0, 0, Header, 0, 1, 480
1, 0, Start_track
1, 0, Sequencer_specific, 6, 67, 113, 0, 0, 0, 67
1, 0, Sequencer_specific, 39, 67, 113, 0, 1, 0, 1, 1, 87, 97, 108, 100, 115, 116, 101, 105, 110, 32, 83, 111, 110, 97, 116, 97, 89, 117, 110, 103, 32, 87, 111, 111, 107, 32, 89, 111, 111, 32, 32, 32
1, 0, Sequencer_specific, 5, 67, 123, 12, 2, 1
1, 0, Tempo, 512820
1, 0, Time_signature, 4, 2, 24, 8
1, 0, System_exclusive, 5, 126, 127, 9, 1, 247
1, 0, Text_t, "Waldstein Sonata by Ludwig van Beethoven"
1, 0, Text_t, "Performed May 25, 2004 by Yung Wook Yoo"
1, 0, Text_t, "From a live recital at the Second International Piano-e-Competition"
1, 0, Instrument_name_t, "Yamaha Disklavier Pro concert grand piano, model DCFIIISAPRO"
1, 1, System_exclusive, 8, 67, 16, 76, 0, 0, 126, 0, 247
1, 2, System_exclusive, 6, 67, 113, 126, 10, 0, 247
1, 5, Control_c, 0, 0, 0
1, 6, Control_c, 0, 32, 0
1, 7, Program_c, 0, 0
1, 8, Control_c, 0, 7, 100
1, 10, Sequencer_specific, 7, 67, 113, 125, 0, 0, 0, 0
1, 10, System_exclusive, 5, 67, 113, 5, 1, 247
1, 10, Title_t, "Waldstein SonataYung Wook Yoo"
1, 10, SMPTE_offset, 96, 0, 0, 0, 0
1, 1920, Control_c, 0, 67, 9
1, 2014, Control_c, 0, 67, 13
1, 2050, Control_c, 0, 67, 17
1, 2087, Control_c, 0, 67, 21
1, 2107, Control_c, 0, 64, 17
1, 2125, Control_c, 0, 64, 22
1, 2138, Control_c, 0, 67, 26
1, 2145, Control_c, 0, 64, 28
1, 2156, Control_c, 0, 67, 31
1, 2175, Control_c, 0, 67, 35
1, 2177, Control_c, 0, 64, 34
1, 2194, Control_c, 0, 67, 40
1, 2195, Control_c, 0, 64, 43
1, 2212, Control_c, 0, 67, 44
1, 2213, Control_c, 0, 64, 53
1, 2231, Control_c, 0, 67, 49
1, 2233, Control_c, 0, 64, 58
1, 2250, Control_c, 0, 67, 54
1, 2251, Control_c, 0, 64, 60
1, 2269, Control_c, 0, 67, 59
1, 2286, Control_c, 0, 67, 66
1, 2288, Control_c, 0, 64, 61
1, 2305, Control_c, 0, 67, 73
1, 2323, Control_c, 0, 67, 79
1, 2342, Control_c, 0, 67, 85
1, 2342, Control_c, 0, 64, 62
1, 2358, Control_c, 0, 67, 90
1, 2377, Control_c, 0, 67, 95
1, 2380, Control_c, 0, 64, 63
1, 2396, Control_c, 0, 67, 102
1, 2415, Control_c, 0, 67, 108
1, 2415, Control_c, 0, 64, 64
1, 2431, Control_c, 0, 67, 114
1, 2434, Control_c, 0, 64, 65
1, 2450, Control_c, 0, 67, 118
1, 2472, Control_c, 0, 64, 67
1, 2506, Control_c, 0, 67, 123
1, 2507, Control_c, 0, 64, 69
1, 2544, Control_c, 0, 67, 127
1, 2545, Control_c, 0, 64, 72
1, 2582, Control_c, 0, 64, 74
1, 2619, Control_c, 0, 64, 77
1, 2636, Control_c, 0, 64, 80
1, 2655, Control_c, 0, 64, 82
1, 2674, Control_c, 0, 64, 84
1, 2727, Control_c, 0, 64, 86
1, 2895, Control_c, 0, 64, 90
1, 3367, Control_c, 0, 64, 88
1, 3424, Control_c, 0, 64, 86
1, 3479, Control_c, 0, 64, 84
1, 3553, Control_c, 0, 64, 82
1, 3854, Note_on_c, 0, 36, 62
1, 3864, Control_c, 0, 64, 79
1, 3885, Control_c, 0, 64, 69
1, 3896, Note_on_c, 0, 36, 0
1, 3900, Control_c, 0, 64, 38
1, 3921, Control_c, 0, 64, 0
1, 4037, Note_on_c, 0, 36, 50
1, 4038, Note_on_c, 0, 52, 56
1, 4040, Note_on_c, 0, 43, 55
1, 4049, Note_on_c, 0, 48, 51
1, 4079, Note_on_c, 0, 36, 0
1, 4080, Note_on_c, 0, 52, 0
1, 4080, Note_on_c, 0, 43, 0
1, 4086, Note_on_c, 0, 48, 0
1, 4188, Note_on_c, 0, 43, 59
1, 4193, Note_on_c, 0, 36, 58
1, 4202, Note_on_c, 0, 52, 51
1, 4209, Note_on_c, 0, 48, 45
1, 4237, Note_on_c, 0, 43, 0
1, 4241, Note_on_c, 0, 36, 0
1, 4242, Note_on_c, 0, 52, 0
1, 4246, Note_on_c, 0, 48, 0
1, 4351, Note_on_c, 0, 43, 53
1, 4351, Note_on_c, 0, 52, 55
1, 4356, Note_on_c, 0, 48, 52
1, 4361, Note_on_c, 0, 36, 47
1, 4393, Note_on_c, 0, 43, 0
1, 4398, Note_on_c, 0, 52, 0
1, 4403, Note_on_c, 0, 48, 0
1, 4403, Note_on_c, 0, 36, 0
1, 4514, Note_on_c, 0, 36, 53
1, 4517, Note_on_c, 0, 43, 50
1, 4522, Note_on_c, 0, 52, 48
1, 4540, Note_on_c, 0, 48, 35
1, 4557, Note_on_c, 0, 36, 0
1, 4557, Note_on_c, 0, 43, 0
1, 4563, Note_on_c, 0, 52, 0
1, 4586, Note_on_c, 0, 48, 0
1, 4690, Note_on_c, 0, 43, 48
1, 4694, Note_on_c, 0, 36, 44
1, 4696, Note_on_c, 0, 48, 47
1, 4698, Note_on_c, 0, 52, 41
1, 4729, Note_on_c, 0, 43, 0
1, 4731, Note_on_c, 0, 36, 0
1, 4734, Note_on_c, 0, 52, 0
1, 4739, Note_on_c, 0, 48, 0
1, 4854, Note_on_c, 0, 36, 47
1, 4854, Note_on_c, 0, 43, 45
1, 4859, Note_on_c, 0, 52, 45
1, 4863, Note_on_c, 0, 48, 44
1, 4898, Note_on_c, 0, 36, 0
1, 4899, Note_on_c, 0, 43, 0
1, 4901, Note_on_c, 0, 52, 0
1, 4907, Note_on_c, 0, 48, 0
1, 5033, Note_on_c, 0, 52, 47
1, 5036, Note_on_c, 0, 48, 46
1, 5040, Note_on_c, 0, 43, 44
1, 5040, Note_on_c, 0, 36, 47
1, 5078, Note_on_c, 0, 52, 0
1, 5078, Note_on_c, 0, 48, 0
1, 5078, Note_on_c, 0, 43, 0
1, 5083, Note_on_c, 0, 36, 0
1, 5193, Note_on_c, 0, 52, 54
1, 5205, Note_on_c, 0, 48, 45
1, 5208, Note_on_c, 0, 36, 47
1, 5210, Note_on_c, 0, 43, 42
1, 5239, Note_on_c, 0, 52, 0
1, 5246, Note_on_c, 0, 48, 0
1, 5251, Note_on_c, 0, 36, 0
1, 5254, Note_on_c, 0, 43, 0
1, 5357, Note_on_c, 0, 52, 58
1, 5361, Note_on_c, 0, 36, 54
1, 5362, Note_on_c, 0, 43, 49
1, 5367, Note_on_c, 0, 48, 46
1, 5400, Note_on_c, 0, 52, 0
1, 5403, Note_on_c, 0, 36, 0
1, 5403, Note_on_c, 0, 43, 0
1, 5404, Note_on_c, 0, 48, 0
1, 5517, Note_on_c, 0, 52, 61
1, 5521, Note_on_c, 0, 43, 57
1, 5524, Note_on_c, 0, 48, 51
1, 5527, Note_on_c, 0, 36, 52
1, 5564, Note_on_c, 0, 52, 0
1, 5564, Note_on_c, 0, 48, 0
1, 5566, Note_on_c, 0, 43, 0
1, 5570, Note_on_c, 0, 36, 0
1, 5678, Note_on_c, 0, 52, 66
1, 5687, Note_on_c, 0, 48, 56
1, 5688, Note_on_c, 0, 36, 53
1, 5692, Note_on_c, 0, 43, 50
1, 5723, Note_on_c, 0, 52, 0
1, 5728, Note_on_c, 0, 48, 0
1, 5730, Note_on_c, 0, 36, 0
1, 5731, Note_on_c, 0, 43, 0
1, 5841, Note_on_c, 0, 52, 72
1, 5860, Note_on_c, 0, 48, 60
1, 5869, Note_on_c, 0, 36, 53
1, 5870, Note_on_c, 0, 43, 52
1, 5903, Note_on_c, 0, 48, 0
1, 5904, Note_on_c, 0, 52, 0
1, 5911, Note_on_c, 0, 43, 0
1, 5912, Note_on_c, 0, 36, 0
1, 6014, Note_on_c, 0, 52, 79
1, 6014, Note_on_c, 0, 48, 60
1, 6025, Note_on_c, 0, 43, 57
1, 6029, Note_on_c, 0, 36, 53
1, 6053, Note_on_c, 0, 48, 0
1, 6059, Note_on_c, 0, 52, 0
1, 6063, Note_on_c, 0, 43, 0
1, 6070, Note_on_c, 0, 36, 0
1, 6179, Note_on_c, 0, 54, 77
1, 6182, Note_on_c, 0, 36, 58
1, 6190, Note_on_c, 0, 45, 58
1, 6197, Note_on_c, 0, 50, 54
1, 6222, Note_on_c, 0, 36, 0
1, 6224, Note_on_c, 0, 45, 0
1, 6227, Note_on_c, 0, 54, 0
1, 6230, Note_on_c, 0, 50, 0
1, 6344, Note_on_c, 0, 50, 57
1, 6345, Note_on_c, 0, 45, 53
1, 6349, Note_on_c, 0, 36, 47
1, 6350, Note_on_c, 0, 54, 67
1, 6380, Note_on_c, 0, 45, 0
1, 6383, Note_on_c, 0, 54, 0
1, 6383, Note_on_c, 0, 50, 0
1, 6390, Note_on_c, 0, 36, 0
1, 6539, Note_on_c, 0, 55, 67
1, 6541, Note_on_c, 0, 43, 49
1, 6550, Note_on_c, 0, 35, 49
1, 6561, Note_on_c, 0, 50, 36
1, 6584, Note_on_c, 0, 43, 0
1, 6592, Note_on_c, 0, 35, 0
1, 6716, Note_on_c, 0, 35, 54
1, 6721, Note_on_c, 0, 43, 44
1, 6760, Note_on_c, 0, 35, 0
1, 6762, Note_on_c, 0, 43, 0
1, 6827, Note_on_c, 0, 50, 0
1, 6893, Note_on_c, 0, 43, 50
1, 6901, Note_on_c, 0, 35, 47
1, 6935, Note_on_c, 0, 43, 0
1, 6941, Note_on_c, 0, 35, 0
1, 7077, Note_on_c, 0, 55, 0
1, 7085, Note_on_c, 0, 35, 45
1, 7087, Note_on_c, 0, 43, 40
1, 7096, Note_on_c, 0, 59, 57
1, 7126, Note_on_c, 0, 35, 0
1, 7130, Note_on_c, 0, 43, 0
1, 7168, Note_on_c, 0, 59, 0
1, 7171, Note_on_c, 0, 57, 60
1, 7245, Note_on_c, 0, 57, 0
1, 7245, Note_on_c, 0, 55, 50
1, 7247, Note_on_c, 0, 35, 52
1, 7250, Note_on_c, 0, 43, 45
1, 7289, Note_on_c, 0, 35, 0
1, 7291, Note_on_c, 0, 43, 0
1, 7415, Note_on_c, 0, 43, 49
1, 7418, Note_on_c, 0, 35, 48
1, 7426, Note_on_c, 0, 55, 0
1, 7455, Note_on_c, 0, 35, 0
1, 7458, Note_on_c, 0, 43, 0
1, 7589, Note_on_c, 0, 43, 54
1, 7594, Note_on_c, 0, 35, 45
1, 7631, Note_on_c, 0, 43, 0
1, 7635, Note_on_c, 0, 35, 0
1, 7769, Note_on_c, 0, 43, 53
1, 7776, Note_on_c, 0, 35, 42
1, 7807, Note_on_c, 0, 43, 0
1, 7817, Note_on_c, 0, 35, 0
1, 7930, Note_on_c, 0, 85, 70
1, 7941, Note_on_c, 0, 35, 49
1, 7941, Note_on_c, 0, 43, 48
1, 7980, Note_on_c, 0, 35, 0
1, 7980, Note_on_c, 0, 43, 0
1, 7990, Note_on_c, 0, 86, 71
1, 8003, Note_on_c, 0, 85, 0
1, 8108, Note_on_c, 0, 35, 45
1, 8110, Note_on_c, 0, 43, 42
1, 8149, Note_on_c, 0, 35, 0
1, 8151, Note_on_c, 0, 43, 0
1, 8270, Note_on_c, 0, 43, 50
1, 8271, Note_on_c, 0, 35, 51
1, 8308, Note_on_c, 0, 43, 0
1, 8310, Note_on_c, 0, 35, 0
1, 8371, Note_on_c, 0, 86, 0
1, 8382, Note_on_c, 0, 84, 58
1, 8433, Note_on_c, 0, 43, 48
1, 8438, Note_on_c, 0, 35, 45
1, 8456, Note_on_c, 0, 83, 64
1, 8475, Note_on_c, 0, 43, 0
1, 8477, Note_on_c, 0, 35, 0
1, 8485, Note_on_c, 0, 84, 0
1, 8526, Note_on_c, 0, 83, 0
1, 8530, Note_on_c, 0, 81, 56
1, 8598, Note_on_c, 0, 43, 51
1, 8602, Note_on_c, 0, 35, 47
1, 8617, Note_on_c, 0, 81, 0
1, 8632, Note_on_c, 0, 79, 43
1, 8640, Note_on_c, 0, 43, 0
1, 8642, Note_on_c, 0, 35, 0
1, 8780, Note_on_c, 0, 35, 51
1, 8782, Note_on_c, 0, 43, 51
1, 8822, Note_on_c, 0, 35, 0
1, 8827, Note_on_c, 0, 43, 0
1, 8861, Note_on_c, 0, 79, 0
1, 8954, Note_on_c, 0, 43, 52
1, 8956, Note_on_c, 0, 35, 49
1, 8989, Note_on_c, 0, 43, 0
1, 8991, Note_on_c, 0, 35, 0
1, 9112, Note_on_c, 0, 35, 55
1, 9115, Note_on_c, 0, 43, 49
1, 9153, Note_on_c, 0, 35, 0
1, 9154, Note_on_c, 0, 43, 0
1, 9300, Note_on_c, 0, 41, 55
1, 9304, Note_on_c, 0, 50, 62
1, 9310, Note_on_c, 0, 34, 50
1, 9315, Note_on_c, 0, 46, 62
1, 9332, Note_on_c, 0, 41, 0
1, 9349, Note_on_c, 0, 34, 0
1, 9358, Note_on_c, 0, 46, 0
1, 9366, Note_on_c, 0, 50, 0
1, 9459, Note_on_c, 0, 34, 61
1, 9479, Note_on_c, 0, 46, 48
1, 9480, Note_on_c, 0, 41, 33
1, 9484, Note_on_c, 0, 50, 47
1, 9506, Note_on_c, 0, 34, 0
1, 9517, Note_on_c, 0, 46, 0
1, 9524, Note_on_c, 0, 50, 0
1, 9525, Note_on_c, 0, 41, 0
1, 9646, Note_on_c, 0, 50, 57
1, 9650, Note_on_c, 0, 46, 56
1, 9652, Note_on_c, 0, 34, 50
1, 9654, Note_on_c, 0, 41, 48
1, 9685, Note_on_c, 0, 41, 0
1, 9693, Note_on_c, 0, 34, 0
1, 9699, Note_on_c, 0, 46, 0
1, 9700, Note_on_c, 0, 50, 0
1, 9819, Note_on_c, 0, 41, 50
1, 9821, Note_on_c, 0, 34, 51
1, 9834, Note_on_c, 0, 50, 52
1, 9835, Note_on_c, 0, 46, 47
1, 9854, Note_on_c, 0, 41, 0
1, 9861, Note_on_c, 0, 34, 0
1, 9874, Note_on_c, 0, 46, 0
1, 9878, Note_on_c, 0, 50, 0
1, 9993, Note_on_c, 0, 50, 51
1, 9997, Note_on_c, 0, 46, 50
1, 9998, Note_on_c, 0, 34, 42
1, 9998, Note_on_c, 0, 41, 44
1, 10035, Note_on_c, 0, 41, 0
1, 10039, Note_on_c, 0, 34, 0
1, 10044, Note_on_c, 0, 50, 0
1, 10044, Note_on_c, 0, 46, 0
1, 10159, Note_on_c, 0, 34, 50
1, 10159, Note_on_c, 0, 50, 52
1, 10163, Note_on_c, 0, 41, 44
1, 10164, Note_on_c, 0, 46, 51
1, 10199, Note_on_c, 0, 41, 0
1, 10202, Note_on_c, 0, 34, 0
1, 10206, Note_on_c, 0, 46, 0
1, 10209, Note_on_c, 0, 50, 0
1, 10332, Note_on_c, 0, 41, 44
1, 10333, Note_on_c, 0, 34, 48
1, 10334, Note_on_c, 0, 50, 49
1, 10340, Note_on_c, 0, 46, 50
1, 10368, Note_on_c, 0, 41, 0
1, 10370, Note_on_c, 0, 34, 0
1, 10375, Note_on_c, 0, 46, 0
1, 10377, Note_on_c, 0, 50, 0
1, 10493, Note_on_c, 0, 50, 52
1, 10495, Note_on_c, 0, 34, 50
1, 10495, Note_on_c, 0, 41, 48
1, 10499, Note_on_c, 0, 46, 50
1, 10547, Note_on_c, 0, 41, 0
1, 10553, Note_on_c, 0, 34, 0
1, 10554, Note_on_c, 0, 46, 0
1, 10556, Note_on_c, 0, 50, 0
1, 10673, Note_on_c, 0, 50, 53
1, 10677, Note_on_c, 0, 34, 51
1, 10679, Note_on_c, 0, 46, 56
1, 10686, Note_on_c, 0, 41, 37
1, 10718, Note_on_c, 0, 34, 0
1, 10723, Note_on_c, 0, 46, 0
1, 10724, Note_on_c, 0, 50, 0
1, 10726, Note_on_c, 0, 41, 0
1, 10842, Note_on_c, 0, 50, 57
1, 10847, Note_on_c, 0, 34, 45
1, 10848, Note_on_c, 0, 41, 45
1, 10850, Note_on_c, 0, 46, 54
1, 10884, Note_on_c, 0, 41, 0
1, 10888, Note_on_c, 0, 46, 0
1, 10890, Note_on_c, 0, 34, 0
1, 10893, Note_on_c, 0, 50, 0
1, 11005, Note_on_c, 0, 50, 57
1, 11009, Note_on_c, 0, 34, 54
1, 11014, Note_on_c, 0, 41, 45
1, 11022, Note_on_c, 0, 46, 50
1, 11048, Note_on_c, 0, 41, 0
1, 11050, Note_on_c, 0, 34, 0
1, 11057, Note_on_c, 0, 46, 0
1, 11060, Note_on_c, 0, 50, 0
1, 11178, Note_on_c, 0, 46, 57
1, 11179, Note_on_c, 0, 50, 64
1, 11180, Note_on_c, 0, 34, 51
1, 11181, Note_on_c, 0, 41, 48
1, 11216, Note_on_c, 0, 41, 0
1, 11220, Note_on_c, 0, 34, 0
1, 11221, Note_on_c, 0, 46, 0
1, 11225, Note_on_c, 0, 50, 0
1, 11327, Note_on_c, 0, 50, 65
1, 11336, Note_on_c, 0, 46, 63
1, 11343, Note_on_c, 0, 34, 50
1, 11347, Note_on_c, 0, 41, 48
1, 11381, Note_on_c, 0, 41, 0
1, 11382, Note_on_c, 0, 46, 0
1, 11384, Note_on_c, 0, 34, 0
1, 11393, Note_on_c, 0, 50, 0
1, 11513, Note_on_c, 0, 50, 68
1, 11518, Note_on_c, 0, 34, 55
1, 11520, Note_on_c, 0, 41, 53
1, 11525, Note_on_c, 0, 46, 51
1, 11554, Note_on_c, 0, 41, 0
1, 11558, Note_on_c, 0, 34, 0
1, 11561, Note_on_c, 0, 46, 0
1, 11572, Note_on_c, 0, 50, 0
1, 11678, Note_on_c, 0, 52, 69
1, 11685, Note_on_c, 0, 48, 64
1, 11689, Note_on_c, 0, 34, 55
1, 11702, Note_on_c, 0, 43, 48
1, 11720, Note_on_c, 0, 48, 0
1, 11727, Note_on_c, 0, 34, 0
1, 11737, Note_on_c, 0, 52, 0
1, 11739, Note_on_c, 0, 43, 0
1, 11840, Note_on_c, 0, 48, 59
1, 11843, Note_on_c, 0, 34, 59
1, 11847, Note_on_c, 0, 43, 52
1, 11848, Note_on_c, 0, 52, 70
1, 11878, Note_on_c, 0, 48, 0
1, 11884, Note_on_c, 0, 34, 0
1, 11885, Note_on_c, 0, 43, 0
1, 11889, Note_on_c, 0, 52, 0
1, 12024, Note_on_c, 0, 53, 70
1, 12038, Note_on_c, 0, 48, 52
1, 12039, Note_on_c, 0, 41, 53
1, 12051, Note_on_c, 0, 33, 45
1, 12072, Note_on_c, 0, 41, 0
1, 12089, Note_on_c, 0, 33, 0
1, 12201, Note_on_c, 0, 33, 56
1, 12209, Note_on_c, 0, 41, 46
1, 12243, Note_on_c, 0, 33, 0
1, 12244, Note_on_c, 0, 41, 0
1, 12310, Note_on_c, 0, 48, 0
1, 12375, Note_on_c, 0, 41, 48
1, 12378, Note_on_c, 0, 33, 50
1, 12420, Note_on_c, 0, 41, 0
1, 12429, Note_on_c, 0, 33, 0
1, 12563, Note_on_c, 0, 53, 0
1, 12571, Note_on_c, 0, 33, 48
1, 12578, Note_on_c, 0, 41, 45
1, 12593, Note_on_c, 0, 57, 55
1, 12613, Note_on_c, 0, 33, 0
1, 12613, Note_on_c, 0, 41, 0
1, 12659, Note_on_c, 0, 57, 0
1, 12667, Note_on_c, 0, 55, 58
1, 12738, Note_on_c, 0, 33, 56
1, 12738, Note_on_c, 0, 41, 52
1, 12741, Note_on_c, 0, 55, 0
1, 12752, Note_on_c, 0, 53, 43
1, 12775, Note_on_c, 0, 41, 0
1, 12777, Note_on_c, 0, 33, 0
1, 12914, Note_on_c, 0, 33, 48
1, 12917, Note_on_c, 0, 53, 0
1, 12917, Note_on_c, 0, 41, 44
1, 12949, Note_on_c, 0, 33, 0
1, 12951, Note_on_c, 0, 41, 0
1, 13082, Note_on_c, 0, 33, 47
1, 13083, Note_on_c, 0, 41, 48
1, 13117, Note_on_c, 0, 41, 0
1, 13121, Note_on_c, 0, 33, 0
1, 13231, Note_on_c, 0, 33, 56
1, 13240, Note_on_c, 0, 41, 43
1, 13277, Note_on_c, 0, 33, 0
1, 13280, Note_on_c, 0, 41, 0
1, 13436, Note_on_c, 0, 83, 68
1, 13440, Note_on_c, 0, 41, 50
1, 13465, Note_on_c, 0, 32, 45
1, 13479, Note_on_c, 0, 41, 0
1, 13488, Note_on_c, 0, 84, 74
1, 13498, Note_on_c, 0, 83, 0
1, 13505, Note_on_c, 0, 32, 0
1, 13625, Note_on_c, 0, 32, 55
1, 13640, Note_on_c, 0, 41, 39
1, 13663, Note_on_c, 0, 32, 0
1, 13680, Note_on_c, 0, 41, 0
1, 13806, Note_on_c, 0, 41, 46
1, 13806, Note_on_c, 0, 32, 48
1, 13840, Note_on_c, 0, 41, 0
1, 13845, Note_on_c, 0, 32, 0
1, 13929, Note_on_c, 0, 84, 0
1, 13938, Note_on_c, 0, 82, 52
1, 13978, Note_on_c, 0, 41, 43
1, 13979, Note_on_c, 0, 32, 48
1, 14006, Note_on_c, 0, 80, 64
1, 14013, Note_on_c, 0, 41, 0
1, 14022, Note_on_c, 0, 32, 0
1, 14034, Note_on_c, 0, 82, 0
1, 14080, Note_on_c, 0, 80, 0
1, 14100, Note_on_c, 0, 79, 55
1, 14151, Note_on_c, 0, 41, 42
1, 14154, Note_on_c, 0, 32, 45
1, 14156, Note_on_c, 0, 79, 0
1, 14182, Note_on_c, 0, 77, 48
1, 14190, Note_on_c, 0, 41, 0
1, 14196, Note_on_c, 0, 32, 0
1, 14340, Note_on_c, 0, 41, 44
1, 14343, Note_on_c, 0, 32, 49
1, 14379, Note_on_c, 0, 41, 0
1, 14385, Note_on_c, 0, 32, 0
1, 14486, Poly_aftertouch_c, 0, 77, 24
1, 14522, Note_on_c, 0, 41, 47
1, 14524, Note_on_c, 0, 32, 49
1, 14532, Note_on_c, 0, 77, 0
1, 14532, Poly_aftertouch_c, 0, 77, 0
1, 14555, Note_on_c, 0, 41, 0
1, 14564, Note_on_c, 0, 32, 0
1, 14692, Note_on_c, 0, 32, 50
1, 14702, Note_on_c, 0, 41, 37
1, 14736, Note_on_c, 0, 32, 0
1, 14743, Note_on_c, 0, 41, 0
1, 14894, Note_on_c, 0, 88, 60
1, 14919, Note_on_c, 0, 41, 34
1, 14935, Note_on_c, 0, 31, 38
1, 14951, Note_on_c, 0, 88, 0
1, 14953, Note_on_c, 0, 89, 67
1, 14969, Note_on_c, 0, 41, 0
1, 14979, Note_on_c, 0, 31, 0
1, 15099, Note_on_c, 0, 41, 44
1, 15105, Note_on_c, 0, 31, 42
1, 15142, Note_on_c, 0, 41, 0
1, 15154, Note_on_c, 0, 31, 0
1, 15286, Note_on_c, 0, 41, 45
1, 15287, Note_on_c, 0, 31, 46
1, 15327, Note_on_c, 0, 41, 0
1, 15331, Note_on_c, 0, 31, 0
1, 15448, Note_on_c, 0, 31, 55
1, 15451, Note_on_c, 0, 41, 51
1, 15491, Note_on_c, 0, 41, 0
1, 15494, Note_on_c, 0, 31, 0
1, 15621, Note_on_c, 0, 31, 52
1, 15622, Note_on_c, 0, 41, 52
1, 15660, Note_on_c, 0, 41, 0
1, 15665, Note_on_c, 0, 31, 0
1, 15772, Note_on_c, 0, 31, 51
1, 15777, Note_on_c, 0, 41, 45
1, 15812, Note_on_c, 0, 89, 0
1, 15815, Note_on_c, 0, 41, 0
1, 15819, Note_on_c, 0, 31, 0
1, 15947, Note_on_c, 0, 41, 50
1, 15961, Note_on_c, 0, 89, 69
1, 15969, Note_on_c, 0, 32, 50
1, 15987, Note_on_c, 0, 41, 0
1, 16014, Note_on_c, 0, 32, 0
1, 16026, Poly_aftertouch_c, 0, 31, 0
1, 16052, Note_on_c, 0, 87, 67
1, 16088, Note_on_c, 0, 89, 0
1, 16113, Note_on_c, 0, 41, 46
1, 16129, Note_on_c, 0, 32, 56
1, 16133, Note_on_c, 0, 86, 66
1, 16139, Note_on_c, 0, 87, 0
1, 16167, Note_on_c, 0, 41, 0
1, 16186, Note_on_c, 0, 32, 0
1, 16199, Note_on_c, 0, 86, 0
1, 16219, Note_on_c, 0, 84, 69
1, 16291, Note_on_c, 0, 41, 54
1, 16292, Note_on_c, 0, 84, 0
1, 16304, Note_on_c, 0, 83, 72
1, 16310, Note_on_c, 0, 31, 54
1, 16321, Control_c, 0, 67, 117
1, 16335, Note_on_c, 0, 41, 0
1, 16339, Control_c, 0, 67, 108
1, 16351, Note_on_c, 0, 31, 0
1, 16356, Note_on_c, 0, 83, 0
1, 16357, Control_c, 0, 67, 99
1, 16376, Control_c, 0, 67, 87
1, 16392, Control_c, 0, 67, 73
1, 16398, Note_on_c, 0, 84, 68
1, 16413, Control_c, 0, 67, 60
1, 16430, Control_c, 0, 67, 45
1, 16450, Control_c, 0, 67, 29
1, 16457, Note_on_c, 0, 31, 65
1, 16463, Note_on_c, 0, 41, 58
1, 16467, Control_c, 0, 67, 14
1, 16474, Note_on_c, 0, 86, 79
1, 16478, Note_on_c, 0, 84, 0
1, 16499, Note_on_c, 0, 41, 0
1, 16508, Note_on_c, 0, 31, 0
1, 16523, Control_c, 0, 67, 0
1, 16564, Note_on_c, 0, 87, 86
1, 16582, Note_on_c, 0, 86, 0
1, 16629, Note_on_c, 0, 41, 63
1, 16639, Note_on_c, 0, 89, 92
1, 16640, Note_on_c, 0, 32, 63
1, 16641, Note_on_c, 0, 87, 0
1, 16664, Note_on_c, 0, 41, 0
1, 16679, Note_on_c, 0, 32, 0
1, 16713, Poly_aftertouch_c, 0, 31, 0
1, 16713, Note_on_c, 0, 87, 86
1, 16725, Control_c, 0, 64, 8
1, 16773, Note_on_c, 0, 89, 0
1, 16790, Note_on_c, 0, 32, 70
1, 16793, Note_on_c, 0, 41, 66
1, 16796, Note_on_c, 0, 86, 88
1, 16815, Note_on_c, 0, 87, 0
1, 16818, Control_c, 0, 64, 12
1, 16827, Note_on_c, 0, 41, 0
1, 16837, Note_on_c, 0, 32, 0
1, 16872, Note_on_c, 0, 84, 85
1, 16875, Note_on_c, 0, 86, 0
1, 16952, Note_on_c, 0, 41, 75
1, 16956, Note_on_c, 0, 31, 82
1, 16962, Note_on_c, 0, 84, 0
1, 16965, Note_on_c, 0, 83, 78
1, 16977, Note_on_c, 0, 81, 62
1, 16998, Note_on_c, 0, 41, 0
1, 16999, Note_on_c, 0, 81, 0
1, 17000, Note_on_c, 0, 31, 0
1, 17018, Note_on_c, 0, 83, 0
1, 17040, Note_on_c, 0, 84, 88
1, 17124, Note_on_c, 0, 31, 73
1, 17127, Note_on_c, 0, 41, 77
1, 17133, Note_on_c, 0, 86, 91
1, 17144, Note_on_c, 0, 84, 0
1, 17169, Note_on_c, 0, 41, 0
1, 17173, Note_on_c, 0, 31, 0
1, 17210, Note_on_c, 0, 87, 94
1, 17220, Note_on_c, 0, 86, 0
1, 17291, Note_on_c, 0, 41, 75
1, 17297, Note_on_c, 0, 89, 100
1, 17300, Note_on_c, 0, 87, 0
1, 17301, Note_on_c, 0, 32, 77
1, 17327, Note_on_c, 0, 41, 0
1, 17337, Note_on_c, 0, 32, 0
1, 17376, Note_on_c, 0, 87, 93
1, 17434, Note_on_c, 0, 89, 0
1, 17441, Note_on_c, 0, 41, 67
1, 17441, Note_on_c, 0, 32, 67
1, 17454, Note_on_c, 0, 86, 94
1, 17477, Note_on_c, 0, 87, 0
1, 17484, Note_on_c, 0, 41, 0
1, 17488, Note_on_c, 0, 32, 0
1, 17539, Note_on_c, 0, 84, 87
1, 17544, Note_on_c, 0, 86, 0
1, 17552, Control_c, 0, 64, 0
1, 17622, Note_on_c, 0, 83, 91
1, 17625, Note_on_c, 0, 31, 85
1, 17626, Note_on_c, 0, 84, 0
1, 17631, Note_on_c, 0, 41, 84
1, 17642, Control_c, 0, 64, 21
1, 17660, Control_c, 0, 64, 50
1, 17679, Control_c, 0, 64, 70
1, 17681, Note_on_c, 0, 31, 0
1, 17687, Note_on_c, 0, 41, 0
1, 17699, Control_c, 0, 64, 78
1, 17711, Note_on_c, 0, 83, 0
1, 17714, Note_on_c, 0, 84, 96
1, 17715, Control_c, 0, 64, 83
1, 17735, Control_c, 0, 64, 86
1, 17753, Control_c, 0, 67, 8
1, 17793, Note_on_c, 0, 84, 0
1, 17793, Note_on_c, 0, 86, 94
1, 17872, Note_on_c, 0, 87, 96
1, 17882, Note_on_c, 0, 86, 0
1, 17882, Control_c, 0, 64, 80
1, 17900, Control_c, 0, 64, 56
1, 17919, Control_c, 0, 64, 0
1, 17961, Note_on_c, 0, 55, 99
1, 17963, Note_on_c, 0, 89, 103
1, 17971, Note_on_c, 0, 43, 83
1, 17972, Note_on_c, 0, 87, 0
1, 18068, Note_on_c, 0, 87, 94
1, 18100, Control_c, 0, 64, 10
1, 18117, Control_c, 0, 64, 36
1, 18126, Note_on_c, 0, 89, 0
1, 18135, Control_c, 0, 64, 50
1, 18151, Note_on_c, 0, 86, 90
1, 18153, Control_c, 0, 64, 62
1, 18173, Control_c, 0, 64, 69
1, 18180, Note_on_c, 0, 87, 0
1, 18192, Control_c, 0, 64, 71
1, 18232, Note_on_c, 0, 84, 83
1, 18235, Note_on_c, 0, 86, 0
1, 18293, Note_on_c, 0, 84, 0
1, 18318, Note_on_c, 0, 83, 91
1, 18358, Control_c, 0, 64, 69
1, 18375, Control_c, 0, 64, 67
1, 18376, Note_on_c, 0, 43, 0
1, 18394, Control_c, 0, 64, 66
1, 18403, Note_on_c, 0, 80, 87
1, 18413, Note_on_c, 0, 83, 0
1, 18431, Control_c, 0, 64, 65
1, 18449, Control_c, 0, 64, 64
1, 18469, Control_c, 0, 64, 63
1, 18480, Note_on_c, 0, 79, 83
1, 18489, Note_on_c, 0, 80, 0
1, 18504, Control_c, 0, 64, 61
1, 18523, Control_c, 0, 64, 60
1, 18554, Note_on_c, 0, 79, 0
1, 18560, Control_c, 0, 64, 58
1, 18561, Note_on_c, 0, 77, 90
1, 18596, Control_c, 0, 64, 55
1, 18641, Note_on_c, 0, 75, 90
1, 18652, Note_on_c, 0, 77, 0
1, 18714, Note_on_c, 0, 74, 84
1, 18715, Note_on_c, 0, 55, 0
1, 18722, Note_on_c, 0, 75, 0
1, 18760, Note_on_c, 0, 74, 0
1, 18802, Note_on_c, 0, 72, 91
1, 18814, Note_on_c, 0, 57, 82
1, 18836, Control_c, 0, 64, 51
1, 18855, Control_c, 0, 64, 47
1, 18873, Control_c, 0, 64, 38
1, 18877, Note_on_c, 0, 72, 0
1, 18884, Note_on_c, 0, 71, 95
1, 18886, Note_on_c, 0, 57, 0
1, 18891, Control_c, 0, 64, 31
1, 18893, Note_on_c, 0, 59, 88
1, 18911, Control_c, 0, 67, 0
1, 18948, Control_c, 0, 64, 26
1, 18978, Note_on_c, 0, 72, 99
1, 18979, Note_on_c, 0, 60, 91
1, 18987, Note_on_c, 0, 59, 0
1, 18995, Note_on_c, 0, 71, 0
1, 18997, Control_c, 0, 64, 22
1, 19020, Note_on_c, 0, 72, 0
1, 19025, Note_on_c, 0, 60, 0
1, 19035, Control_c, 0, 64, 16
1, 19345, Note_on_c, 0, 55, 77
1, 19347, Note_on_c, 0, 43, 73
1, 19350, Note_on_c, 0, 67, 87
1, 19381, Note_on_c, 0, 55, 0
1, 19387, Note_on_c, 0, 43, 0
1, 19404, Note_on_c, 0, 67, 0
1, 19706, Note_on_c, 0, 63, 82
1, 19718, Note_on_c, 0, 51, 73
1, 19727, Note_on_c, 0, 39, 66
1, 19753, Note_on_c, 0, 51, 0
1, 19761, Note_on_c, 0, 39, 0
1, 19762, Note_on_c, 0, 63, 0
1, 20082, Control_c, 0, 67, 8
1, 20103, Note_on_c, 0, 60, 63
1, 20125, Note_on_c, 0, 48, 57
1, 20127, Note_on_c, 0, 36, 53
1, 20168, Note_on_c, 0, 60, 0
1, 20171, Control_c, 0, 67, 12
1, 20173, Note_on_c, 0, 48, 0
1, 20177, Note_on_c, 0, 36, 0
1, 20209, Control_c, 0, 67, 19
1, 20228, Control_c, 0, 67, 25
1, 20246, Control_c, 0, 67, 29
1, 20265, Control_c, 0, 67, 34
1, 20284, Control_c, 0, 67, 38
1, 20303, Control_c, 0, 67, 43
1, 20320, Control_c, 0, 67, 51
1, 20340, Control_c, 0, 67, 60
1, 20359, Control_c, 0, 67, 66
1, 20376, Control_c, 0, 67, 70
1, 20413, Control_c, 0, 67, 77
1, 20432, Control_c, 0, 67, 84
1, 20449, Control_c, 0, 67, 93
1, 20467, Control_c, 0, 67, 101
1, 20486, Control_c, 0, 67, 109
1, 20505, Control_c, 0, 67, 117
1, 20523, Control_c, 0, 67, 125
1, 20717, Note_on_c, 0, 55, 39
1, 20755, Note_on_c, 0, 31, 33
1, 20760, Note_on_c, 0, 43, 26
1, 20908, Control_c, 0, 64, 0
1, 21071, Control_c, 0, 64, 19
1, 21091, Control_c, 0, 64, 28
1, 21108, Control_c, 0, 64, 35
1, 21128, Control_c, 0, 64, 44
1, 21144, Control_c, 0, 64, 53
1, 21164, Control_c, 0, 64, 58
1, 21181, Control_c, 0, 64, 60
1, 21219, Control_c, 0, 64, 62
1, 21257, Control_c, 0, 64, 64
1, 21275, Control_c, 0, 64, 66
1, 21295, Control_c, 0, 64, 67
1, 21311, Control_c, 0, 64, 68
1, 21348, Control_c, 0, 64, 70
1, 21384, Control_c, 0, 64, 72
1, 21441, Control_c, 0, 64, 75
1, 21458, Control_c, 0, 64, 77
1, 21478, Control_c, 0, 64, 79
1, 21516, Control_c, 0, 64, 81
1, 21570, Control_c, 0, 64, 84
1, 21604, Control_c, 0, 64, 86
1, 21679, Control_c, 0, 64, 90
1, 21787, Control_c, 0, 64, 95
1, 21865, Note_on_c, 0, 43, 0
1, 21944, Poly_aftertouch_c, 0, 55, 24
1, 21971, Control_c, 0, 64, 99
1, 22023, Note_on_c, 0, 55, 0
1, 22023, Poly_aftertouch_c, 0, 55, 0
1, 22073, Note_on_c, 0, 31, 0
1, 22192, Control_c, 0, 64, 103
1, 22338, Control_c, 0, 64, 107
1, 23017, Control_c, 0, 64, 87
1, 23035, Control_c, 0, 64, 49
1, 23053, Control_c, 0, 64, 0
1, 23079, Note_on_c, 0, 36, 46
1, 23092, Note_on_c, 0, 64, 57
1, 23096, Note_on_c, 0, 48, 35
1, 23110, Control_c, 0, 64, 21
1, 23122, Note_on_c, 0, 36, 0
1, 23127, Control_c, 0, 64, 47
1, 23140, Note_on_c, 0, 64, 0
1, 23142, Note_on_c, 0, 48, 0
1, 23146, Control_c, 0, 64, 73
1, 23165, Control_c, 0, 64, 87
1, 23183, Control_c, 0, 64, 100
1, 23188, Note_on_c, 0, 60, 60
1, 23201, Control_c, 0, 64, 105
1, 23239, Control_c, 0, 64, 109
1, 23243, Note_on_c, 0, 60, 0
1, 23252, Note_on_c, 0, 48, 54
1, 23262, Note_on_c, 0, 64, 67
1, 23273, Control_c, 0, 64, 114
1, 23311, Control_c, 0, 64, 109
1, 23315, Note_on_c, 0, 64, 0
1, 23322, Note_on_c, 0, 48, 0
1, 23330, Control_c, 0, 64, 84
1, 23347, Control_c, 0, 64, 15
1, 23355, Note_on_c, 0, 60, 57
1, 23361, Note_on_c, 0, 55, 46
1, 23366, Control_c, 0, 64, 0
1, 23397, Note_on_c, 0, 60, 0
1, 23404, Note_on_c, 0, 55, 0
1, 23433, Note_on_c, 0, 64, 62
1, 23435, Note_on_c, 0, 48, 53
1, 23475, Note_on_c, 0, 64, 0
1, 23477, Note_on_c, 0, 48, 0
1, 23499, Note_on_c, 0, 60, 56
1, 23526, Note_on_c, 0, 55, 43
1, 23552, Note_on_c, 0, 60, 0
1, 23577, Note_on_c, 0, 64, 61
1, 23587, Note_on_c, 0, 48, 57
1, 23608, Note_on_c, 0, 55, 0
1, 23646, Note_on_c, 0, 64, 0
1, 23654, Note_on_c, 0, 48, 0
1, 23676, Note_on_c, 0, 60, 59
1, 23709, Note_on_c, 0, 55, 34
1, 23725, Note_on_c, 0, 60, 0
1, 23764, Note_on_c, 0, 48, 55
1, 23765, Note_on_c, 0, 64, 59
1, 23786, Note_on_c, 0, 55, 0
1, 23809, Note_on_c, 0, 64, 0
1, 23811, Note_on_c, 0, 48, 0
1, 23836, Note_on_c, 0, 60, 54
1, 23853, Note_on_c, 0, 55, 46
1, 23887, Note_on_c, 0, 60, 0
1, 23910, Note_on_c, 0, 64, 61
1, 23920, Note_on_c, 0, 48, 56
1, 23936, Note_on_c, 0, 55, 0
1, 23962, Note_on_c, 0, 48, 0
1, 23962, Note_on_c, 0, 64, 0
1, 23995, Note_on_c, 0, 60, 59
1, 24048, Note_on_c, 0, 60, 0
1, 24052, Poly_aftertouch_c, 0, 55, 127
1, 24075, Note_on_c, 0, 48, 57
1, 24084, Note_on_c, 0, 64, 63
1, 24089, Poly_aftertouch_c, 0, 55, 0
1, 24120, Note_on_c, 0, 48, 0
1, 24127, Note_on_c, 0, 64, 0
1, 24164, Note_on_c, 0, 60, 60
1, 24192, Note_on_c, 0, 55, 44
1, 24214, Note_on_c, 0, 60, 0
1, 24239, Note_on_c, 0, 48, 56
1, 24242, Note_on_c, 0, 64, 65
1, 24252, Note_on_c, 0, 55, 0
1, 24291, Note_on_c, 0, 48, 0
1, 24296, Note_on_c, 0, 64, 0
1, 24328, Note_on_c, 0, 60, 59
1, 24354, Note_on_c, 0, 55, 47
1, 24377, Note_on_c, 0, 60, 0
1, 24408, Note_on_c, 0, 55, 0
1, 24408, Note_on_c, 0, 48, 56
1, 24408, Note_on_c, 0, 64, 66
1, 24452, Note_on_c, 0, 48, 0
1, 24458, Note_on_c, 0, 64, 0
1, 24481, Note_on_c, 0, 60, 62
1, 24523, Note_on_c, 0, 55, 47
1, 24538, Note_on_c, 0, 60, 0
1, 24578, Note_on_c, 0, 48, 62
1, 24579, Note_on_c, 0, 55, 0
1, 24586, Note_on_c, 0, 64, 64
1, 24628, Note_on_c, 0, 48, 0
1, 24634, Note_on_c, 0, 64, 0
1, 24667, Note_on_c, 0, 60, 63
1, 24684, Note_on_c, 0, 55, 56
1, 24717, Note_on_c, 0, 60, 0
1, 24734, Note_on_c, 0, 55, 0
1, 24735, Note_on_c, 0, 48, 58
1, 24752, Note_on_c, 0, 64, 67
1, 24781, Note_on_c, 0, 48, 0
1, 24801, Note_on_c, 0, 64, 0
1, 24822, Note_on_c, 0, 60, 63
1, 24844, Note_on_c, 0, 55, 51
1, 24886, Note_on_c, 0, 60, 0
1, 24895, Note_on_c, 0, 55, 0
1, 24896, Note_on_c, 0, 48, 57
1, 24915, Note_on_c, 0, 64, 66
1, 24950, Note_on_c, 0, 48, 0
1, 24958, Note_on_c, 0, 64, 0
1, 24987, Note_on_c, 0, 60, 65
1, 25005, Note_on_c, 0, 55, 51
1, 25053, Note_on_c, 0, 60, 0
1, 25056, Note_on_c, 0, 55, 0
1, 25057, Note_on_c, 0, 48, 64
1, 25073, Note_on_c, 0, 64, 72
1, 25112, Note_on_c, 0, 48, 0
1, 25120, Note_on_c, 0, 64, 0
1, 25157, Note_on_c, 0, 60, 65
1, 25162, Note_on_c, 0, 55, 52
1, 25203, Note_on_c, 0, 60, 0
1, 25212, Note_on_c, 0, 55, 0
1, 25236, Note_on_c, 0, 48, 62
1, 25239, Note_on_c, 0, 64, 66
1, 25277, Note_on_c, 0, 48, 0
1, 25278, Note_on_c, 0, 64, 0
1, 25309, Note_on_c, 0, 55, 66
1, 25313, Note_on_c, 0, 60, 69
1, 25355, Note_on_c, 0, 55, 0
1, 25357, Note_on_c, 0, 60, 0
1, 25387, Note_on_c, 0, 48, 62
1, 25396, Note_on_c, 0, 66, 76
1, 25440, Note_on_c, 0, 48, 0
1, 25441, Note_on_c, 0, 66, 0
1, 25476, Note_on_c, 0, 62, 70
1, 25485, Note_on_c, 0, 57, 56
1, 25535, Note_on_c, 0, 62, 0
1, 25535, Note_on_c, 0, 57, 0
1, 25576, Note_on_c, 0, 66, 73
1, 25577, Note_on_c, 0, 48, 60
1, 25615, Note_on_c, 0, 48, 0
1, 25622, Note_on_c, 0, 66, 0
1, 25639, Note_on_c, 0, 57, 59
1, 25657, Note_on_c, 0, 62, 67
1, 25692, Note_on_c, 0, 57, 0
1, 25725, Note_on_c, 0, 62, 0
1, 25739, Note_on_c, 0, 67, 74
1, 25745, Note_on_c, 0, 50, 54
1, 25746, Note_on_c, 0, 47, 54
1, 25797, Note_on_c, 0, 47, 0
1, 25809, Note_on_c, 0, 50, 0
1, 25838, Note_on_c, 0, 55, 49
1, 25913, Note_on_c, 0, 55, 0
1, 25920, Note_on_c, 0, 47, 51
1, 25938, Note_on_c, 0, 50, 51
1, 25969, Note_on_c, 0, 47, 0
1, 25979, Note_on_c, 0, 50, 0
1, 26021, Note_on_c, 0, 55, 51
1, 26089, Note_on_c, 0, 47, 53
1, 26094, Note_on_c, 0, 55, 0
1, 26097, Note_on_c, 0, 50, 51
1, 26142, Note_on_c, 0, 47, 0
1, 26150, Note_on_c, 0, 50, 0
1, 26198, Note_on_c, 0, 55, 49
1, 26226, Note_on_c, 0, 67, 0
1, 26267, Note_on_c, 0, 71, 60
1, 26273, Note_on_c, 0, 47, 51
1, 26276, Note_on_c, 0, 50, 53
1, 26282, Note_on_c, 0, 55, 0
1, 26322, Note_on_c, 0, 47, 0
1, 26328, Note_on_c, 0, 50, 0
1, 26338, Note_on_c, 0, 71, 0
1, 26343, Note_on_c, 0, 69, 66
1, 26375, Note_on_c, 0, 55, 37
1, 26416, Note_on_c, 0, 69, 0
1, 26434, Note_on_c, 0, 67, 51
1, 26460, Note_on_c, 0, 47, 49
1, 26462, Note_on_c, 0, 55, 0
1, 26463, Note_on_c, 0, 50, 50
1, 26508, Note_on_c, 0, 47, 0
1, 26517, Note_on_c, 0, 50, 0
1, 26562, Note_on_c, 0, 55, 45
1, 26626, Note_on_c, 0, 47, 49
1, 26631, Note_on_c, 0, 55, 0
1, 26632, Note_on_c, 0, 50, 50
1, 26673, Note_on_c, 0, 67, 0
1, 26675, Note_on_c, 0, 47, 0
1, 26680, Note_on_c, 0, 50, 0
1, 26738, Note_on_c, 0, 55, 47
1, 26798, Note_on_c, 0, 55, 0
1, 26799, Note_on_c, 0, 47, 52
1, 26810, Note_on_c, 0, 50, 44
1, 26842, Note_on_c, 0, 47, 0
1, 26851, Note_on_c, 0, 50, 0
1, 26919, Note_on_c, 0, 55, 43
1, 26965, Note_on_c, 0, 50, 54
1, 26970, Note_on_c, 0, 47, 44
1, 26974, Note_on_c, 0, 55, 0
1, 27005, Note_on_c, 0, 47, 0
1, 27012, Note_on_c, 0, 50, 0
1, 27074, Note_on_c, 0, 55, 49
1, 27113, Note_on_c, 0, 85, 73
1, 27132, Note_on_c, 0, 47, 51
1, 27139, Note_on_c, 0, 50, 50
1, 27140, Note_on_c, 0, 55, 0
1, 27146, Note_on_c, 0, 86, 81
1, 27174, Note_on_c, 0, 47, 0
1, 27183, Note_on_c, 0, 50, 0
1, 27184, Note_on_c, 0, 85, 0
1, 27243, Note_on_c, 0, 55, 52
1, 27300, Note_on_c, 0, 47, 51
1, 27303, Note_on_c, 0, 55, 0
1, 27308, Note_on_c, 0, 50, 48
1, 27344, Note_on_c, 0, 47, 0
1, 27355, Note_on_c, 0, 50, 0
1, 27429, Note_on_c, 0, 55, 49
1, 27484, Note_on_c, 0, 55, 0
1, 27486, Note_on_c, 0, 47, 51
1, 27490, Note_on_c, 0, 50, 53
1, 27534, Note_on_c, 0, 47, 0
1, 27541, Note_on_c, 0, 50, 0
1, 27600, Note_on_c, 0, 84, 66
1, 27609, Note_on_c, 0, 55, 47
1, 27611, Note_on_c, 0, 86, 0
1, 27666, Note_on_c, 0, 55, 0
1, 27670, Note_on_c, 0, 47, 46
1, 27673, Note_on_c, 0, 50, 48
1, 27684, Note_on_c, 0, 83, 68
1, 27708, Note_on_c, 0, 47, 0
1, 27718, Note_on_c, 0, 50, 0
1, 27724, Note_on_c, 0, 84, 0
1, 27757, Note_on_c, 0, 83, 0
1, 27763, Note_on_c, 0, 81, 61
1, 27779, Note_on_c, 0, 55, 49
1, 27833, Note_on_c, 0, 47, 46
1, 27834, Note_on_c, 0, 81, 0
1, 27835, Note_on_c, 0, 55, 0
1, 27835, Note_on_c, 0, 50, 53
1, 27849, Note_on_c, 0, 79, 49
1, 27876, Note_on_c, 0, 47, 0
1, 27886, Note_on_c, 0, 50, 0
1, 27952, Note_on_c, 0, 55, 48
1, 28002, Note_on_c, 0, 47, 49
1, 28005, Note_on_c, 0, 50, 51
1, 28007, Note_on_c, 0, 55, 0
1, 28048, Note_on_c, 0, 47, 0
1, 28054, Note_on_c, 0, 50, 0
1, 28061, Note_on_c, 0, 79, 0
1, 28112, Note_on_c, 0, 55, 53
1, 28172, Note_on_c, 0, 50, 55
1, 28174, Note_on_c, 0, 55, 0
1, 28178, Note_on_c, 0, 47, 48
1, 28215, Note_on_c, 0, 47, 0
1, 28222, Note_on_c, 0, 50, 0
1, 28274, Note_on_c, 0, 55, 49
1, 28341, Note_on_c, 0, 55, 0
1, 28344, Note_on_c, 0, 47, 60
1, 28347, Note_on_c, 0, 50, 54
1, 28379, Note_on_c, 0, 50, 0
1, 28386, Note_on_c, 0, 47, 0
1, 28454, Note_on_c, 0, 55, 36
1, 28455, Note_on_c, 0, 55, 0
1, 28540, Note_on_c, 0, 65, 73
1, 28546, Note_on_c, 0, 38, 77
1, 28558, Control_c, 0, 64, 32
1, 28572, Note_on_c, 0, 50, 47
1, 28577, Control_c, 0, 64, 63
1, 28581, Note_on_c, 0, 38, 0
1, 28595, Control_c, 0, 64, 71
1, 28609, Note_on_c, 0, 50, 0
1, 28612, Control_c, 0, 64, 74
1, 28613, Note_on_c, 0, 65, 0
1, 28630, Note_on_c, 0, 62, 63
1, 28630, Control_c, 0, 64, 76
1, 28650, Control_c, 0, 64, 79
1, 28668, Control_c, 0, 64, 84
1, 28681, Note_on_c, 0, 62, 0
1, 28685, Control_c, 0, 64, 89
1, 28705, Control_c, 0, 64, 93
1, 28706, Note_on_c, 0, 50, 70
1, 28710, Note_on_c, 0, 65, 71
1, 28763, Note_on_c, 0, 50, 0
1, 28771, Note_on_c, 0, 65, 0
1, 28799, Note_on_c, 0, 62, 69
1, 28821, Note_on_c, 0, 57, 55
1, 28840, Note_on_c, 0, 62, 0
1, 28854, Control_c, 0, 64, 79
1, 28860, Note_on_c, 0, 57, 0
1, 28870, Control_c, 0, 64, 37
1, 28877, Note_on_c, 0, 65, 69
1, 28888, Control_c, 0, 64, 0
1, 28896, Note_on_c, 0, 50, 53
1, 28932, Note_on_c, 0, 50, 0
1, 28937, Note_on_c, 0, 65, 0
1, 28952, Note_on_c, 0, 62, 64
1, 28965, Note_on_c, 0, 57, 56
1, 29019, Note_on_c, 0, 62, 0
1, 29021, Note_on_c, 0, 57, 0
1, 29038, Note_on_c, 0, 50, 60
1, 29043, Note_on_c, 0, 65, 63
1, 29086, Note_on_c, 0, 50, 0
1, 29101, Note_on_c, 0, 65, 0
1, 29123, Note_on_c, 0, 62, 60
1, 29139, Note_on_c, 0, 57, 54
1, 29186, Note_on_c, 0, 62, 0
1, 29194, Note_on_c, 0, 57, 0
1, 29209, Note_on_c, 0, 50, 54
1, 29213, Note_on_c, 0, 65, 63
1, 29271, Note_on_c, 0, 50, 0
1, 29282, Note_on_c, 0, 65, 0
1, 29310, Note_on_c, 0, 62, 60
1, 29323, Note_on_c, 0, 57, 49
1, 29361, Note_on_c, 0, 62, 0
1, 29375, Note_on_c, 0, 57, 0
1, 29388, Note_on_c, 0, 50, 57
1, 29392, Note_on_c, 0, 65, 64
1, 29436, Note_on_c, 0, 50, 0
1, 29438, Note_on_c, 0, 65, 0
1, 29475, Note_on_c, 0, 62, 60
1, 29486, Note_on_c, 0, 57, 53
1, 29522, Note_on_c, 0, 62, 0
1, 29539, Note_on_c, 0, 57, 0
1, 29544, Note_on_c, 0, 65, 63
1, 29560, Note_on_c, 0, 50, 55
1, 29606, Note_on_c, 0, 50, 0
1, 29610, Note_on_c, 0, 65, 0
1, 29627, Note_on_c, 0, 62, 59
1, 29652, Note_on_c, 0, 57, 55
1, 29691, Note_on_c, 0, 62, 0
1, 29703, Note_on_c, 0, 57, 0
1, 29718, Note_on_c, 0, 65, 63
1, 29722, Note_on_c, 0, 50, 55
1, 29766, Note_on_c, 0, 50, 0
1, 29771, Note_on_c, 0, 65, 0
1, 29798, Note_on_c, 0, 62, 64
1, 29809, Note_on_c, 0, 57, 57
1, 29857, Note_on_c, 0, 62, 0
1, 29863, Note_on_c, 0, 57, 0
1, 29877, Note_on_c, 0, 50, 59
1, 29877, Note_on_c, 0, 65, 63
1, 29926, Note_on_c, 0, 50, 0
1, 29935, Note_on_c, 0, 65, 0
1, 29963, Note_on_c, 0, 62, 64
1, 29968, Note_on_c, 0, 57, 61
1, 30018, Note_on_c, 0, 62, 0
1, 30036, Note_on_c, 0, 57, 0
1, 30042, Note_on_c, 0, 50, 55
1, 30048, Note_on_c, 0, 65, 68
1, 30090, Note_on_c, 0, 50, 0
1, 30105, Note_on_c, 0, 65, 0
1, 30132, Note_on_c, 0, 57, 47
1, 30137, Note_on_c, 0, 62, 66
1, 30200, Note_on_c, 0, 62, 0
1, 30208, Note_on_c, 0, 57, 0
1, 30221, Note_on_c, 0, 50, 60
1, 30228, Note_on_c, 0, 65, 65
1, 30272, Note_on_c, 0, 50, 0
1, 30284, Note_on_c, 0, 65, 0
1, 30305, Note_on_c, 0, 62, 64
1, 30312, Note_on_c, 0, 57, 56
1, 30369, Note_on_c, 0, 62, 0
1, 30378, Note_on_c, 0, 57, 0
1, 30388, Note_on_c, 0, 50, 58
1, 30398, Note_on_c, 0, 65, 67
1, 30438, Note_on_c, 0, 50, 0
1, 30446, Note_on_c, 0, 65, 0
1, 30476, Note_on_c, 0, 57, 50
1, 30477, Note_on_c, 0, 62, 67
1, 30536, Note_on_c, 0, 62, 0
1, 30540, Note_on_c, 0, 57, 0
1, 30546, Note_on_c, 0, 50, 59
1, 30556, Note_on_c, 0, 65, 64
1, 30596, Note_on_c, 0, 50, 0
1, 30605, Note_on_c, 0, 65, 0
1, 30636, Note_on_c, 0, 57, 49
1, 30647, Note_on_c, 0, 62, 67
1, 30688, Note_on_c, 0, 57, 0
1, 30690, Note_on_c, 0, 62, 0
1, 30708, Note_on_c, 0, 50, 60
1, 30719, Note_on_c, 0, 65, 67
1, 30754, Note_on_c, 0, 50, 0
1, 30763, Note_on_c, 0, 65, 0
1, 30785, Note_on_c, 0, 62, 67
1, 30797, Note_on_c, 0, 57, 54
1, 30834, Note_on_c, 0, 57, 0
1, 30849, Note_on_c, 0, 62, 0
1, 30870, Note_on_c, 0, 50, 63
1, 30886, Note_on_c, 0, 68, 76
1, 30919, Note_on_c, 0, 50, 0
1, 30928, Note_on_c, 0, 68, 0
1, 30959, Note_on_c, 0, 64, 72
1, 30961, Note_on_c, 0, 59, 59
1, 31004, Note_on_c, 0, 59, 0
1, 31013, Note_on_c, 0, 64, 0
1, 31044, Note_on_c, 0, 50, 51
1, 31051, Note_on_c, 0, 68, 75
1, 31084, Note_on_c, 0, 50, 0
1, 31097, Note_on_c, 0, 68, 0
1, 31112, Note_on_c, 0, 59, 54
1, 31147, Note_on_c, 0, 64, 66
1, 31173, Note_on_c, 0, 59, 0
1, 31209, Note_on_c, 0, 64, 0
1, 31235, Note_on_c, 0, 48, 53
1, 31240, Note_on_c, 0, 69, 78
1, 31244, Note_on_c, 0, 52, 50
1, 31283, Note_on_c, 0, 48, 0
1, 31292, Note_on_c, 0, 52, 0
1, 31324, Note_on_c, 0, 57, 55
1, 31405, Note_on_c, 0, 57, 0
1, 31410, Note_on_c, 0, 52, 52
1, 31412, Note_on_c, 0, 48, 49
1, 31459, Note_on_c, 0, 48, 0
1, 31461, Note_on_c, 0, 52, 0
1, 31512, Note_on_c, 0, 57, 42
1, 31586, Note_on_c, 0, 48, 45
1, 31589, Note_on_c, 0, 52, 50
1, 31597, Note_on_c, 0, 57, 0
1, 31638, Note_on_c, 0, 48, 0
1, 31647, Note_on_c, 0, 52, 0
1, 31698, Note_on_c, 0, 57, 39
1, 31765, Note_on_c, 0, 69, 0
1, 31774, Note_on_c, 0, 48, 47
1, 31775, Note_on_c, 0, 52, 52
1, 31779, Note_on_c, 0, 57, 0
1, 31788, Note_on_c, 0, 72, 61
1, 31823, Note_on_c, 0, 48, 0
1, 31839, Note_on_c, 0, 52, 0
1, 31857, Note_on_c, 0, 72, 0
1, 31866, Note_on_c, 0, 71, 66
1, 31891, Note_on_c, 0, 57, 37
1, 31933, Note_on_c, 0, 71, 0
1, 31954, Note_on_c, 0, 69, 46
1, 31958, Note_on_c, 0, 57, 0
1, 31960, Note_on_c, 0, 52, 49
1, 31964, Note_on_c, 0, 48, 32
1, 32013, Note_on_c, 0, 48, 0
1, 32016, Note_on_c, 0, 52, 0
1, 32080, Note_on_c, 0, 57, 45
1, 32150, Note_on_c, 0, 48, 43
1, 32151, Note_on_c, 0, 52, 52
1, 32152, Note_on_c, 0, 57, 0
1, 32199, Note_on_c, 0, 69, 0
1, 32199, Note_on_c, 0, 48, 0
1, 32205, Note_on_c, 0, 52, 0
1, 32257, Note_on_c, 0, 57, 42
1, 32326, Note_on_c, 0, 57, 0
1, 32327, Note_on_c, 0, 48, 48
1, 32332, Note_on_c, 0, 52, 51
1, 32376, Note_on_c, 0, 48, 0
1, 32379, Note_on_c, 0, 52, 0
1, 32434, Note_on_c, 0, 57, 45
1, 32502, Note_on_c, 0, 48, 45
1, 32503, Note_on_c, 0, 57, 0
1, 32510, Note_on_c, 0, 52, 47
1, 32544, Note_on_c, 0, 48, 0
1, 32556, Note_on_c, 0, 52, 0
1, 32608, Note_on_c, 0, 57, 45
1, 32675, Note_on_c, 0, 57, 0
1, 32681, Note_on_c, 0, 52, 54
1, 32681, Note_on_c, 0, 48, 43
1, 32684, Note_on_c, 0, 87, 72
1, 32717, Note_on_c, 0, 88, 84
1, 32725, Note_on_c, 0, 48, 0
1, 32733, Note_on_c, 0, 52, 0
1, 32760, Note_on_c, 0, 87, 0
1, 32789, Note_on_c, 0, 57, 52
1, 32851, Note_on_c, 0, 52, 55
1, 32852, Note_on_c, 0, 48, 48
1, 32855, Note_on_c, 0, 57, 0
1, 32902, Note_on_c, 0, 48, 0
1, 32908, Note_on_c, 0, 52, 0
1, 32955, Note_on_c, 0, 57, 53
1, 33039, Note_on_c, 0, 57, 0
1, 33040, Note_on_c, 0, 48, 51
1, 33055, Note_on_c, 0, 52, 50
1, 33088, Note_on_c, 0, 48, 0
1, 33100, Note_on_c, 0, 52, 0
1, 33154, Note_on_c, 0, 57, 47
1, 33156, Note_on_c, 0, 88, 0
1, 33162, Note_on_c, 0, 86, 68
1, 33218, Note_on_c, 0, 52, 55
1, 33220, Note_on_c, 0, 57, 0
1, 33220, Note_on_c, 0, 48, 47
1, 33243, Note_on_c, 0, 84, 63
1, 33269, Note_on_c, 0, 48, 0
1, 33280, Note_on_c, 0, 52, 0
1, 33281, Note_on_c, 0, 86, 0
1, 33308, Note_on_c, 0, 84, 0
1, 33318, Note_on_c, 0, 83, 65
1, 33330, Note_on_c, 0, 57, 51
1, 33386, Note_on_c, 0, 83, 0
1, 33391, Note_on_c, 0, 48, 50
1, 33397, Note_on_c, 0, 57, 0
1, 33399, Note_on_c, 0, 81, 53
1, 33411, Note_on_c, 0, 52, 55
1, 33446, Note_on_c, 0, 48, 0
1, 33459, Note_on_c, 0, 52, 0
1, 33497, Note_on_c, 0, 57, 50
1, 33529, Control_c, 0, 67, 117
1, 33545, Control_c, 0, 67, 106
1, 33564, Control_c, 0, 67, 93
1, 33567, Note_on_c, 0, 57, 0
1, 33569, Note_on_c, 0, 52, 55
1, 33574, Note_on_c, 0, 48, 48
1, 33582, Control_c, 0, 67, 77
1, 33602, Control_c, 0, 67, 59
1, 33618, Note_on_c, 0, 48, 0
1, 33618, Control_c, 0, 67, 41
1, 33630, Note_on_c, 0, 52, 0
1, 33637, Control_c, 0, 67, 22
1, 33664, Note_on_c, 0, 57, 49
1, 33674, Control_c, 0, 67, 0
1, 33722, Note_on_c, 0, 57, 0
1, 33747, Note_on_c, 0, 48, 51
1, 33757, Note_on_c, 0, 52, 55
1, 33788, Note_on_c, 0, 48, 0
1, 33800, Note_on_c, 0, 52, 0
1, 33846, Note_on_c, 0, 57, 54
1, 33885, Note_on_c, 0, 57, 0
1, 33912, Note_on_c, 0, 52, 54
1, 33913, Note_on_c, 0, 48, 50
1, 33964, Note_on_c, 0, 48, 0
1, 33980, Note_on_c, 0, 52, 0
1, 33999, Note_on_c, 0, 57, 62
1, 34036, Poly_aftertouch_c, 0, 55, 0
1, 34037, Note_on_c, 0, 57, 0
1, 34080, Note_on_c, 0, 87, 80
1, 34081, Note_on_c, 0, 48, 58
1, 34092, Note_on_c, 0, 81, 0
1, 34098, Note_on_c, 0, 52, 54
1, 34134, Note_on_c, 0, 88, 92
1, 34145, Note_on_c, 0, 48, 0
1, 34150, Note_on_c, 0, 87, 0
1, 34165, Note_on_c, 0, 52, 0
1, 34182, Note_on_c, 0, 58, 64
1, 34262, Note_on_c, 0, 58, 0
1, 34267, Note_on_c, 0, 52, 62
1, 34283, Note_on_c, 0, 48, 61
1, 34323, Note_on_c, 0, 48, 0
1, 34351, Note_on_c, 0, 52, 0
1, 34358, Note_on_c, 0, 58, 65
1, 34440, Note_on_c, 0, 48, 60
1, 34442, Note_on_c, 0, 52, 63
1, 34451, Note_on_c, 0, 58, 0
1, 34493, Note_on_c, 0, 48, 0
1, 34525, Note_on_c, 0, 58, 63
1, 34529, Note_on_c, 0, 52, 0
1, 34530, Note_on_c, 0, 86, 84
1, 34548, Note_on_c, 0, 88, 0
1, 34610, Note_on_c, 0, 52, 64
1, 34613, Note_on_c, 0, 84, 84
1, 34617, Note_on_c, 0, 58, 0
1, 34620, Note_on_c, 0, 86, 0
1, 34628, Note_on_c, 0, 48, 64
1, 34666, Note_on_c, 0, 48, 0
1, 34682, Note_on_c, 0, 84, 0
1, 34692, Note_on_c, 0, 83, 86
1, 34696, Note_on_c, 0, 58, 66
1, 34697, Note_on_c, 0, 52, 0
1, 34772, Note_on_c, 0, 48, 63
1, 34775, Note_on_c, 0, 52, 64
1, 34775, Note_on_c, 0, 82, 85
1, 34787, Note_on_c, 0, 58, 0
1, 34802, Note_on_c, 0, 83, 0
1, 34839, Note_on_c, 0, 48, 0
1, 34881, Note_on_c, 0, 52, 0
1, 34882, Note_on_c, 0, 58, 67
1, 34969, Note_on_c, 0, 58, 0
1, 34970, Note_on_c, 0, 52, 60
1, 34973, Control_c, 0, 67, 8
1, 34980, Note_on_c, 0, 48, 60
1, 35023, Note_on_c, 0, 48, 0
1, 35054, Note_on_c, 0, 58, 65
1, 35057, Note_on_c, 0, 52, 0
1, 35068, Control_c, 0, 67, 15
1, 35086, Control_c, 0, 67, 21
1, 35104, Control_c, 0, 67, 26
1, 35107, Note_on_c, 0, 82, 0
1, 35123, Control_c, 0, 67, 30
1, 35140, Note_on_c, 0, 48, 57
1, 35145, Note_on_c, 0, 58, 0
1, 35147, Note_on_c, 0, 52, 53
1, 35160, Control_c, 0, 67, 38
1, 35179, Control_c, 0, 67, 44
1, 35193, Note_on_c, 0, 48, 0
1, 35196, Control_c, 0, 67, 52
1, 35215, Note_on_c, 0, 52, 0
1, 35215, Control_c, 0, 67, 61
1, 35225, Note_on_c, 0, 58, 63
1, 35232, Control_c, 0, 67, 72
1, 35253, Control_c, 0, 67, 84
1, 35269, Control_c, 0, 67, 94
1, 35288, Control_c, 0, 67, 104
1, 35305, Note_on_c, 0, 48, 58
1, 35307, Note_on_c, 0, 58, 0
1, 35307, Control_c, 0, 67, 112
1, 35325, Control_c, 0, 67, 120
1, 35331, Note_on_c, 0, 52, 43
1, 35344, Control_c, 0, 67, 127
1, 35364, Note_on_c, 0, 48, 0
1, 35375, Note_on_c, 0, 52, 0
1, 35415, Note_on_c, 0, 58, 50
1, 35583, Note_on_c, 0, 58, 0
1, 35606, Note_on_c, 0, 47, 46
1, 35620, Note_on_c, 0, 83, 62
1, 35710, Note_on_c, 0, 47, 0
1, 35724, Note_on_c, 0, 51, 49
1, 35796, Note_on_c, 0, 51, 0
1, 35834, Note_on_c, 0, 54, 46
1, 35881, Note_on_c, 0, 54, 0
1, 35921, Note_on_c, 0, 59, 42
1, 36017, Note_on_c, 0, 59, 0
1, 36017, Note_on_c, 0, 47, 48
1, 36085, Note_on_c, 0, 47, 0
1, 36107, Note_on_c, 0, 51, 50
1, 36110, Note_on_c, 0, 81, 61
1, 36119, Note_on_c, 0, 83, 0
1, 36182, Note_on_c, 0, 51, 0
1, 36203, Note_on_c, 0, 79, 57
1, 36213, Note_on_c, 0, 54, 43
1, 36215, Note_on_c, 0, 81, 0
1, 36254, Note_on_c, 0, 79, 0
1, 36267, Note_on_c, 0, 54, 0
1, 36278, Note_on_c, 0, 78, 66
1, 36289, Note_on_c, 0, 59, 45
1, 36343, Note_on_c, 0, 78, 0
1, 36371, Note_on_c, 0, 79, 64
1, 36375, Note_on_c, 0, 59, 0
1, 36394, Note_on_c, 0, 47, 33
1, 36437, Note_on_c, 0, 79, 0
1, 36443, Note_on_c, 0, 47, 0
1, 36447, Note_on_c, 0, 78, 70
1, 36461, Note_on_c, 0, 52, 55
1, 36505, Note_on_c, 0, 78, 0
1, 36521, Note_on_c, 0, 52, 0
1, 36542, Note_on_c, 0, 55, 51
1, 36552, Note_on_c, 0, 76, 62
1, 36588, Note_on_c, 0, 76, 0
1, 36592, Note_on_c, 0, 55, 0
1, 36604, Note_on_c, 0, 59, 54
1, 36630, Note_on_c, 0, 75, 63
1, 36680, Note_on_c, 0, 75, 0
1, 36689, Note_on_c, 0, 59, 0
1, 36708, Note_on_c, 0, 47, 44
1, 36714, Note_on_c, 0, 76, 64
1, 36781, Note_on_c, 0, 47, 0
1, 36789, Note_on_c, 0, 52, 52
1, 36806, Note_on_c, 0, 76, 0
1, 36817, Note_on_c, 0, 79, 63
1, 36873, Note_on_c, 0, 52, 0
1, 36889, Note_on_c, 0, 79, 0
1, 36893, Note_on_c, 0, 55, 50
1, 36896, Note_on_c, 0, 78, 69
1, 36940, Note_on_c, 0, 55, 0
1, 36955, Note_on_c, 0, 78, 0
1, 36975, Note_on_c, 0, 59, 53
1, 36985, Note_on_c, 0, 76, 65
1, 37039, Note_on_c, 0, 59, 0
1, 37059, Note_on_c, 0, 76, 0
1, 37068, Note_on_c, 0, 47, 53
1, 37079, Note_on_c, 0, 75, 67
1, 37117, Note_on_c, 0, 47, 0
1, 37140, Note_on_c, 0, 54, 53
1, 37153, Note_on_c, 0, 73, 70
1, 37154, Note_on_c, 0, 75, 0
1, 37202, Note_on_c, 0, 73, 0
1, 37210, Note_on_c, 0, 54, 0
1, 37237, Note_on_c, 0, 57, 45
1, 37240, Note_on_c, 0, 71, 68
1, 37284, Note_on_c, 0, 71, 0
1, 37292, Note_on_c, 0, 57, 0
1, 37321, Note_on_c, 0, 59, 50
1, 37334, Note_on_c, 0, 70, 64
1, 37367, Note_on_c, 0, 70, 0
1, 37369, Note_on_c, 0, 59, 0
1, 37409, Note_on_c, 0, 71, 72
1, 37426, Note_on_c, 0, 47, 43
1, 37453, Note_on_c, 0, 71, 0
1, 37484, Note_on_c, 0, 47, 0
1, 37495, Note_on_c, 0, 54, 53
1, 37499, Note_on_c, 0, 73, 64
1, 37571, Note_on_c, 0, 57, 56
1, 37572, Note_on_c, 0, 73, 0
1, 37579, Note_on_c, 0, 74, 65
1, 37580, Note_on_c, 0, 54, 0
1, 37631, Note_on_c, 0, 57, 0
1, 37659, Note_on_c, 0, 74, 0
1, 37661, Note_on_c, 0, 75, 66
1, 37662, Note_on_c, 0, 59, 50
1, 37733, Note_on_c, 0, 75, 0
1, 37746, Note_on_c, 0, 59, 0
1, 37748, Note_on_c, 0, 76, 73
1, 37753, Note_on_c, 0, 47, 53
1, 37780, Note_on_c, 0, 76, 0
1, 37812, Note_on_c, 0, 47, 0
1, 37831, Note_on_c, 0, 75, 77
1, 37835, Note_on_c, 0, 52, 55
1, 37879, Note_on_c, 0, 75, 0
1, 37897, Note_on_c, 0, 52, 0
1, 37905, Note_on_c, 0, 76, 76
1, 37913, Note_on_c, 0, 55, 49
1, 37960, Note_on_c, 0, 55, 0
1, 37986, Note_on_c, 0, 59, 51
1, 37988, Note_on_c, 0, 78, 75
1, 37990, Note_on_c, 0, 76, 0
1, 38069, Note_on_c, 0, 79, 73
1, 38070, Note_on_c, 0, 59, 0
1, 38070, Note_on_c, 0, 47, 52
1, 38073, Note_on_c, 0, 78, 0
1, 38143, Note_on_c, 0, 80, 78
1, 38145, Note_on_c, 0, 52, 53
1, 38154, Note_on_c, 0, 79, 0
1, 38160, Note_on_c, 0, 47, 0
1, 38192, Note_on_c, 0, 80, 0
1, 38222, Note_on_c, 0, 52, 0
1, 38222, Note_on_c, 0, 55, 55
1, 38226, Note_on_c, 0, 81, 76
1, 38280, Note_on_c, 0, 55, 0
1, 38307, Note_on_c, 0, 81, 0
1, 38313, Note_on_c, 0, 82, 74
1, 38319, Note_on_c, 0, 59, 50
1, 38377, Note_on_c, 0, 82, 0
1, 38390, Note_on_c, 0, 83, 77
1, 38403, Note_on_c, 0, 47, 56
1, 38408, Note_on_c, 0, 59, 0
1, 38451, Note_on_c, 0, 47, 0
1, 38460, Note_on_c, 0, 83, 0
1, 38481, Note_on_c, 0, 51, 56
1, 38487, Note_on_c, 0, 82, 78
1, 38540, Note_on_c, 0, 82, 0
1, 38542, Note_on_c, 0, 51, 0
1, 38558, Note_on_c, 0, 83, 77
1, 38558, Note_on_c, 0, 54, 52
1, 38598, Note_on_c, 0, 54, 0
1, 38637, Note_on_c, 0, 83, 0
1, 38645, Note_on_c, 0, 59, 48
1, 38653, Note_on_c, 0, 82, 80
1, 38706, Note_on_c, 0, 59, 0
1, 38726, Note_on_c, 0, 82, 0
1, 38727, Note_on_c, 0, 47, 63
1, 38736, Note_on_c, 0, 83, 80
1, 38797, Note_on_c, 0, 47, 0
1, 38814, Note_on_c, 0, 51, 61
1, 38816, Note_on_c, 0, 83, 0
1, 38821, Note_on_c, 0, 81, 81
1, 38872, Note_on_c, 0, 81, 0
1, 38881, Note_on_c, 0, 54, 56
1, 38884, Note_on_c, 0, 51, 0
1, 38907, Note_on_c, 0, 79, 73
1, 38932, Note_on_c, 0, 54, 0
1, 38972, Note_on_c, 0, 79, 0
1, 38973, Note_on_c, 0, 59, 47
1, 38978, Note_on_c, 0, 78, 78
1, 39043, Note_on_c, 0, 47, 59
1, 39053, Note_on_c, 0, 59, 0
1, 39060, Note_on_c, 0, 78, 0
1, 39071, Note_on_c, 0, 79, 76
1, 39124, Note_on_c, 0, 47, 0
1, 39128, Note_on_c, 0, 52, 61
1, 39147, Note_on_c, 0, 79, 0
1, 39153, Note_on_c, 0, 78, 74
1, 39199, Note_on_c, 0, 52, 0
1, 39206, Note_on_c, 0, 78, 0
1, 39211, Note_on_c, 0, 55, 61
1, 39236, Note_on_c, 0, 76, 76
1, 39287, Note_on_c, 0, 55, 0
1, 39287, Note_on_c, 0, 76, 0
1, 39298, Note_on_c, 0, 59, 61
1, 39317, Note_on_c, 0, 75, 77
1, 39386, Note_on_c, 0, 47, 68
1, 39387, Note_on_c, 0, 75, 0
1, 39391, Note_on_c, 0, 59, 0
1, 39399, Note_on_c, 0, 76, 78
1, 39462, Note_on_c, 0, 52, 65
1, 39474, Note_on_c, 0, 47, 0
1, 39478, Note_on_c, 0, 76, 0
1, 39483, Note_on_c, 0, 79, 81
1, 39564, Note_on_c, 0, 55, 67
1, 39575, Note_on_c, 0, 52, 0
1, 39580, Note_on_c, 0, 78, 80
1, 39586, Note_on_c, 0, 79, 0
1, 39640, Note_on_c, 0, 55, 0
1, 39650, Note_on_c, 0, 78, 0
1, 39659, Note_on_c, 0, 76, 74
1, 39664, Note_on_c, 0, 59, 57
1, 39728, Note_on_c, 0, 76, 0
1, 39737, Note_on_c, 0, 59, 0
1, 39745, Note_on_c, 0, 75, 80
1, 39751, Note_on_c, 0, 47, 63
1, 39813, Note_on_c, 0, 47, 0
1, 39825, Note_on_c, 0, 73, 80
1, 39826, Note_on_c, 0, 54, 62
1, 39836, Note_on_c, 0, 75, 0
1, 39889, Note_on_c, 0, 73, 0
1, 39906, Note_on_c, 0, 71, 72
1, 39908, Note_on_c, 0, 54, 0
1, 39915, Note_on_c, 0, 57, 61
1, 39965, Note_on_c, 0, 71, 0
1, 39970, Note_on_c, 0, 57, 0
1, 39985, Note_on_c, 0, 59, 66
1, 39987, Note_on_c, 0, 70, 77
1, 40052, Note_on_c, 0, 70, 0
1, 40072, Note_on_c, 0, 47, 69
1, 40074, Note_on_c, 0, 59, 0
1, 40078, Note_on_c, 0, 71, 78
1, 40141, Note_on_c, 0, 71, 0
1, 40147, Note_on_c, 0, 47, 0
1, 40149, Note_on_c, 0, 54, 68
1, 40159, Note_on_c, 0, 73, 75
1, 40234, Note_on_c, 0, 57, 67
1, 40236, Note_on_c, 0, 74, 82
1, 40248, Note_on_c, 0, 73, 0
1, 40262, Note_on_c, 0, 54, 0
1, 40316, Note_on_c, 0, 57, 0
1, 40324, Note_on_c, 0, 75, 81
1, 40333, Note_on_c, 0, 59, 61
1, 40340, Note_on_c, 0, 74, 0
1, 40396, Note_on_c, 0, 75, 0
1, 40404, Note_on_c, 0, 76, 85
1, 40409, Note_on_c, 0, 47, 63
1, 40414, Note_on_c, 0, 59, 0
1, 40453, Note_on_c, 0, 76, 0
1, 40493, Note_on_c, 0, 52, 67
1, 40501, Note_on_c, 0, 75, 88
1, 40512, Note_on_c, 0, 47, 0
1, 40564, Note_on_c, 0, 75, 0
1, 40570, Note_on_c, 0, 55, 65
1, 40579, Note_on_c, 0, 52, 0
1, 40580, Note_on_c, 0, 76, 88
1, 40645, Note_on_c, 0, 55, 0
1, 40665, Note_on_c, 0, 59, 55
1, 40669, Note_on_c, 0, 78, 83
1, 40673, Note_on_c, 0, 76, 0
1, 40739, Note_on_c, 0, 47, 63
1, 40745, Note_on_c, 0, 79, 85
1, 40750, Note_on_c, 0, 59, 0
1, 40761, Note_on_c, 0, 78, 0
1, 40822, Note_on_c, 0, 52, 60
1, 40827, Note_on_c, 0, 80, 81
1, 40834, Note_on_c, 0, 47, 0
1, 40841, Note_on_c, 0, 79, 0
1, 40887, Note_on_c, 0, 80, 0
1, 40893, Note_on_c, 0, 52, 0
1, 40893, Note_on_c, 0, 55, 62
1, 40911, Note_on_c, 0, 81, 79
1, 40944, Note_on_c, 0, 55, 0
1, 40957, Note_on_c, 0, 81, 0
1, 40992, Note_on_c, 0, 59, 49
1, 40998, Note_on_c, 0, 82, 72
1, 41014, Control_c, 0, 64, 17
1, 41030, Control_c, 0, 64, 31
1, 41050, Control_c, 0, 64, 47
1, 41068, Control_c, 0, 64, 60
1, 41077, Note_on_c, 0, 83, 81
1, 41084, Note_on_c, 0, 47, 60
1, 41086, Note_on_c, 0, 59, 0
1, 41086, Control_c, 0, 64, 63
1, 41104, Note_on_c, 0, 82, 0
1, 41104, Control_c, 0, 64, 64
1, 41164, Note_on_c, 0, 51, 62
1, 41171, Note_on_c, 0, 78, 80
1, 41177, Control_c, 0, 64, 65
1, 41189, Note_on_c, 0, 47, 0
1, 41190, Note_on_c, 0, 83, 0
1, 41248, Note_on_c, 0, 54, 66
1, 41249, Note_on_c, 0, 75, 70
1, 41252, Control_c, 0, 64, 64
1, 41256, Note_on_c, 0, 78, 0
1, 41259, Note_on_c, 0, 51, 0
1, 41271, Control_c, 0, 64, 62
1, 41272, Control_c, 0, 67, 114
1, 41288, Control_c, 0, 64, 60
1, 41289, Note_on_c, 0, 54, 0
1, 41289, Control_c, 0, 67, 102
1, 41302, Note_on_c, 0, 75, 0
1, 41307, Control_c, 0, 67, 87
1, 41325, Control_c, 0, 64, 58
1, 41326, Control_c, 0, 67, 70
1, 41328, Note_on_c, 0, 71, 75
1, 41332, Note_on_c, 0, 59, 62
1, 41344, Control_c, 0, 67, 50
1, 41362, Control_c, 0, 67, 30
1, 41371, Note_on_c, 0, 71, 0
1, 41378, Control_c, 0, 67, 9
1, 41382, Note_on_c, 0, 59, 0
1, 41399, Control_c, 0, 67, 0
1, 41427, Note_on_c, 0, 58, 65
1, 41431, Note_on_c, 0, 70, 76
1, 41433, Control_c, 0, 64, 54
1, 41451, Control_c, 0, 64, 47
1, 41464, Note_on_c, 0, 58, 0
1, 41467, Note_on_c, 0, 70, 0
1, 41469, Control_c, 0, 64, 30
1, 41490, Control_c, 0, 64, 0
1, 41506, Note_on_c, 0, 59, 70
1, 41509, Note_on_c, 0, 71, 78
1, 41592, Note_on_c, 0, 59, 0
1, 41595, Note_on_c, 0, 71, 0
1, 41596, Note_on_c, 0, 76, 80
1, 41599, Note_on_c, 0, 55, 67
1, 41626, Note_on_c, 0, 75, 23
1, 41638, Note_on_c, 0, 75, 0
1, 41666, Note_on_c, 0, 79, 81
1, 41676, Note_on_c, 0, 76, 0
1, 41677, Note_on_c, 0, 52, 67
1, 41682, Note_on_c, 0, 55, 0
1, 41750, Note_on_c, 0, 52, 0
1, 41751, Note_on_c, 0, 83, 91
1, 41759, Note_on_c, 0, 47, 75
1, 41764, Control_c, 0, 64, 31
1, 41768, Note_on_c, 0, 79, 0
1, 41783, Control_c, 0, 64, 50
1, 41801, Control_c, 0, 64, 56
1, 41818, Control_c, 0, 64, 58
1, 41832, Note_on_c, 0, 78, 87
1, 41853, Note_on_c, 0, 51, 74
1, 41855, Control_c, 0, 64, 60
1, 41874, Control_c, 0, 64, 62
1, 41883, Note_on_c, 0, 47, 0
1, 41917, Note_on_c, 0, 83, 0
1, 41925, Note_on_c, 0, 75, 81
1, 41934, Note_on_c, 0, 54, 77
1, 41935, Note_on_c, 0, 78, 0
1, 41957, Note_on_c, 0, 51, 0
1, 41991, Note_on_c, 0, 54, 0
1, 41992, Note_on_c, 0, 75, 0
1, 42004, Note_on_c, 0, 71, 74
1, 42017, Note_on_c, 0, 59, 77
1, 42021, Control_c, 0, 64, 60
1, 42058, Control_c, 0, 64, 58
1, 42088, Note_on_c, 0, 71, 0
1, 42095, Control_c, 0, 64, 56
1, 42096, Note_on_c, 0, 70, 82
1, 42102, Note_on_c, 0, 58, 79
1, 42106, Note_on_c, 0, 59, 0
1, 42114, Control_c, 0, 64, 53
1, 42133, Control_c, 0, 64, 50
1, 42150, Control_c, 0, 64, 47
1, 42153, Note_on_c, 0, 70, 0
1, 42164, Note_on_c, 0, 58, 0
1, 42169, Control_c, 0, 64, 45
1, 42186, Note_on_c, 0, 59, 75
1, 42193, Note_on_c, 0, 71, 81
1, 42267, Note_on_c, 0, 76, 89
1, 42272, Note_on_c, 0, 71, 0
1, 42276, Note_on_c, 0, 55, 76
1, 42278, Control_c, 0, 64, 38
1, 42283, Note_on_c, 0, 59, 0
1, 42296, Control_c, 0, 64, 0
1, 42367, Note_on_c, 0, 79, 87
1, 42368, Note_on_c, 0, 52, 72
1, 42376, Note_on_c, 0, 55, 0
1, 42379, Note_on_c, 0, 76, 0
1, 42442, Control_c, 0, 64, 25
1, 42451, Note_on_c, 0, 47, 80
1, 42452, Note_on_c, 0, 52, 0
1, 42453, Note_on_c, 0, 83, 97
1, 42460, Control_c, 0, 64, 47
1, 42478, Control_c, 0, 64, 59
1, 42479, Note_on_c, 0, 79, 0
1, 42498, Control_c, 0, 64, 65
1, 42516, Control_c, 0, 64, 67
1, 42532, Control_c, 0, 64, 69
1, 42536, Note_on_c, 0, 78, 90
1, 42548, Note_on_c, 0, 51, 78
1, 42551, Control_c, 0, 64, 71
1, 42571, Control_c, 0, 64, 73
1, 42573, Note_on_c, 0, 47, 0
1, 42585, Note_on_c, 0, 83, 0
1, 42606, Note_on_c, 0, 54, 73
1, 42609, Control_c, 0, 64, 76
1, 42630, Note_on_c, 0, 78, 0
1, 42632, Note_on_c, 0, 75, 82
1, 42642, Note_on_c, 0, 51, 0
1, 42645, Control_c, 0, 64, 78
1, 42680, Control_c, 0, 64, 74
1, 42689, Note_on_c, 0, 59, 80
1, 42691, Note_on_c, 0, 54, 0
1, 42699, Control_c, 0, 64, 55
1, 42702, Note_on_c, 0, 71, 85
1, 42713, Note_on_c, 0, 75, 0
1, 42718, Control_c, 0, 64, 0
1, 42763, Note_on_c, 0, 71, 0
1, 42779, Note_on_c, 0, 47, 86
1, 42781, Note_on_c, 0, 83, 105
1, 42796, Note_on_c, 0, 59, 0
1, 42810, Control_c, 0, 64, 47
1, 42828, Control_c, 0, 64, 71
1, 42848, Control_c, 0, 64, 79
1, 42865, Control_c, 0, 64, 87
1, 42865, Note_on_c, 0, 52, 77
1, 42873, Note_on_c, 0, 79, 89
1, 42902, Control_c, 0, 64, 94
1, 42907, Note_on_c, 0, 47, 0
1, 42910, Note_on_c, 0, 83, 0
1, 42921, Control_c, 0, 64, 99
1, 42939, Control_c, 0, 64, 104
1, 42949, Note_on_c, 0, 55, 80
1, 42958, Control_c, 0, 64, 109
1, 42964, Note_on_c, 0, 76, 83
1, 42971, Note_on_c, 0, 52, 0
1, 42977, Control_c, 0, 64, 113
1, 42990, Note_on_c, 0, 79, 0
1, 43032, Note_on_c, 0, 59, 78
1, 43034, Note_on_c, 0, 55, 0
1, 43037, Note_on_c, 0, 71, 87
1, 43041, Note_on_c, 0, 76, 0
1, 43069, Control_c, 0, 64, 90
1, 43086, Control_c, 0, 64, 22
1, 43105, Control_c, 0, 64, 0
1, 43106, Note_on_c, 0, 71, 0
1, 43117, Note_on_c, 0, 47, 88
1, 43122, Note_on_c, 0, 83, 104
1, 43128, Note_on_c, 0, 59, 0
1, 43178, Control_c, 0, 64, 36
1, 43200, Control_c, 0, 64, 65
1, 43203, Note_on_c, 0, 78, 90
1, 43208, Note_on_c, 0, 51, 80
1, 43217, Control_c, 0, 64, 76
1, 43233, Control_c, 0, 64, 86
1, 43239, Note_on_c, 0, 47, 0
1, 43251, Control_c, 0, 64, 94
1, 43258, Note_on_c, 0, 83, 0
1, 43271, Control_c, 0, 64, 100
1, 43282, Note_on_c, 0, 54, 83
1, 43305, Control_c, 0, 64, 107
1, 43311, Note_on_c, 0, 75, 86
1, 43322, Control_c, 0, 64, 114
1, 43335, Note_on_c, 0, 51, 0
1, 43340, Control_c, 0, 64, 122
1, 43345, Note_on_c, 0, 78, 0
1, 43360, Control_c, 0, 64, 127
1, 43380, Note_on_c, 0, 59, 78
1, 43387, Note_on_c, 0, 71, 89
1, 43391, Note_on_c, 0, 54, 0
1, 43408, Note_on_c, 0, 75, 0
1, 43452, Control_c, 0, 64, 91
1, 43465, Note_on_c, 0, 71, 0
1, 43467, Control_c, 0, 64, 12
1, 43468, Note_on_c, 0, 59, 0
1, 43474, Note_on_c, 0, 47, 82
1, 43481, Note_on_c, 0, 83, 103
1, 43485, Control_c, 0, 64, 0
1, 43543, Control_c, 0, 64, 24
1, 43562, Control_c, 0, 64, 59
1, 43569, Note_on_c, 0, 52, 69
1, 43576, Note_on_c, 0, 79, 91
1, 43580, Control_c, 0, 64, 78
1, 43600, Control_c, 0, 64, 93
1, 43608, Note_on_c, 0, 47, 0
1, 43614, Note_on_c, 0, 83, 0
1, 43617, Control_c, 0, 64, 102
1, 43635, Note_on_c, 0, 55, 82
1, 43635, Control_c, 0, 64, 106
1, 43666, Note_on_c, 0, 52, 0
1, 43668, Note_on_c, 0, 76, 90
1, 43673, Control_c, 0, 64, 111
1, 43699, Note_on_c, 0, 55, 0
1, 43703, Note_on_c, 0, 79, 0
1, 43708, Control_c, 0, 64, 119
1, 43732, Note_on_c, 0, 59, 70
1, 43744, Control_c, 0, 64, 123
1, 43747, Note_on_c, 0, 71, 87
1, 43766, Note_on_c, 0, 76, 0
1, 43789, Note_on_c, 0, 59, 0
1, 43803, Control_c, 0, 64, 117
1, 43820, Control_c, 0, 64, 84
1, 43837, Control_c, 0, 64, 0
1, 43864, Note_on_c, 0, 71, 0
1, 43871, Note_on_c, 0, 83, 105
1, 43882, Note_on_c, 0, 54, 78
1, 43882, Note_on_c, 0, 59, 81
1, 43883, Note_on_c, 0, 51, 72
1, 43885, Note_on_c, 0, 47, 78
1, 43967, Control_c, 0, 64, 25
1, 43986, Control_c, 0, 64, 66
1, 43997, Note_on_c, 0, 78, 87
1, 44005, Control_c, 0, 64, 75
1, 44022, Control_c, 0, 64, 78
1, 44031, Note_on_c, 0, 83, 0
1, 44060, Control_c, 0, 64, 80
1, 44077, Control_c, 0, 64, 83
1, 44092, Note_on_c, 0, 75, 84
1, 44095, Control_c, 0, 64, 85
1, 44119, Note_on_c, 0, 78, 0
1, 44168, Note_on_c, 0, 75, 0
1, 44181, Note_on_c, 0, 71, 83
1, 44260, Note_on_c, 0, 71, 0
1, 44281, Note_on_c, 0, 78, 90
1, 44313, Control_c, 0, 64, 83
1, 44367, Note_on_c, 0, 75, 78
1, 44430, Note_on_c, 0, 78, 0
1, 44454, Note_on_c, 0, 71, 68
1, 44474, Note_on_c, 0, 75, 0
1, 44523, Note_on_c, 0, 71, 0
1, 44538, Note_on_c, 0, 66, 76
1, 44602, Note_on_c, 0, 66, 0
1, 44622, Note_on_c, 0, 75, 90
1, 44709, Note_on_c, 0, 71, 80
1, 44751, Note_on_c, 0, 75, 0
1, 44804, Note_on_c, 0, 66, 76
1, 44831, Note_on_c, 0, 59, 0
1, 44841, Note_on_c, 0, 71, 0
1, 44874, Note_on_c, 0, 63, 81
1, 44888, Note_on_c, 0, 66, 0
1, 44918, Note_on_c, 0, 63, 0
1, 44958, Control_c, 0, 64, 81
1, 44966, Note_on_c, 0, 71, 94
1, 45048, Note_on_c, 0, 66, 84
1, 45064, Note_on_c, 0, 71, 0
1, 45144, Note_on_c, 0, 63, 80
1, 45153, Note_on_c, 0, 66, 0
1, 45195, Note_on_c, 0, 54, 0
1, 45220, Note_on_c, 0, 63, 0
1, 45244, Note_on_c, 0, 59, 80
1, 45313, Note_on_c, 0, 59, 0
1, 45322, Note_on_c, 0, 66, 90
1, 45381, Note_on_c, 0, 51, 0
1, 45396, Note_on_c, 0, 63, 77
1, 45480, Note_on_c, 0, 66, 0
1, 45493, Note_on_c, 0, 59, 71
1, 45512, Note_on_c, 0, 63, 0
1, 45572, Note_on_c, 0, 59, 0
1, 45577, Note_on_c, 0, 54, 80
1, 45632, Note_on_c, 0, 47, 0
1, 45667, Note_on_c, 0, 54, 0
1, 45668, Note_on_c, 0, 63, 88
1, 45752, Note_on_c, 0, 59, 78
1, 45792, Note_on_c, 0, 63, 0
1, 45855, Note_on_c, 0, 54, 75
1, 45908, Note_on_c, 0, 59, 0
1, 45911, Control_c, 0, 64, 83
1, 45940, Note_on_c, 0, 51, 78
1, 45947, Note_on_c, 0, 54, 0
1, 45978, Note_on_c, 0, 51, 0
1, 46005, Control_c, 0, 64, 85
1, 46027, Note_on_c, 0, 59, 92
1, 46130, Note_on_c, 0, 54, 80
1, 46184, Control_c, 0, 64, 87
1, 46212, Note_on_c, 0, 51, 78
1, 46276, Control_c, 0, 64, 91
1, 46286, Note_on_c, 0, 54, 0
1, 46304, Note_on_c, 0, 47, 80
1, 46345, Note_on_c, 0, 51, 0
1, 46387, Note_on_c, 0, 47, 0
1, 46396, Note_on_c, 0, 35, 87
1, 46444, Note_on_c, 0, 59, 0
1, 46484, Note_on_c, 0, 39, 84
1, 46496, Control_c, 0, 64, 87
1, 46512, Note_on_c, 0, 35, 0
1, 46513, Control_c, 0, 64, 84
1, 46534, Control_c, 0, 64, 81
1, 46552, Control_c, 0, 64, 78
1, 46562, Note_on_c, 0, 42, 87
1, 46571, Control_c, 0, 64, 76
1, 46590, Poly_aftertouch_c, 0, 36, 0
1, 46590, Control_c, 0, 64, 74
1, 46609, Control_c, 0, 64, 72
1, 46611, Note_on_c, 0, 39, 0
1, 46627, Control_c, 0, 64, 70
1, 46644, Note_on_c, 0, 47, 85
1, 46644, Control_c, 0, 64, 66
1, 46663, Control_c, 0, 64, 64
1, 46670, Note_on_c, 0, 42, 0
1, 46682, Control_c, 0, 64, 62
1, 46699, Control_c, 0, 64, 60
1, 46719, Control_c, 0, 64, 58
1, 46736, Control_c, 0, 64, 56
1, 46737, Note_on_c, 0, 35, 91
1, 46755, Control_c, 0, 64, 53
1, 46766, Note_on_c, 0, 47, 0
1, 46772, Control_c, 0, 64, 51
1, 46791, Control_c, 0, 64, 48
1, 46802, Note_on_c, 0, 35, 0
1, 46810, Control_c, 0, 64, 46
1, 46830, Control_c, 0, 64, 44
1, 46848, Control_c, 0, 64, 41
1, 46867, Control_c, 0, 64, 36
1, 46885, Control_c, 0, 64, 31
1, 46915, Note_on_c, 0, 47, 87
1, 46922, Control_c, 0, 64, 25
1, 46968, Note_on_c, 0, 47, 0
1, 46974, Control_c, 0, 64, 19
1, 47012, Control_c, 0, 64, 14
1, 47105, Note_on_c, 0, 37, 88
1, 47149, Note_on_c, 0, 37, 0
1, 47277, Note_on_c, 0, 49, 87
1, 47332, Note_on_c, 0, 49, 0
1, 47454, Note_on_c, 0, 71, 91
1, 47454, Note_on_c, 0, 39, 81
1, 47500, Note_on_c, 0, 39, 0
1, 47516, Note_on_c, 0, 71, 0
1, 47617, Control_c, 0, 64, 10
1, 47626, Note_on_c, 0, 59, 88
1, 47636, Note_on_c, 0, 51, 84
1, 47681, Note_on_c, 0, 59, 0
1, 47697, Note_on_c, 0, 51, 0
1, 47810, Note_on_c, 0, 73, 90
1, 47819, Control_c, 0, 64, 0
1, 47865, Note_on_c, 0, 73, 0
1, 47983, Note_on_c, 0, 61, 85
1, 48042, Note_on_c, 0, 61, 0
1, 48159, Note_on_c, 0, 39, 84
1, 48161, Note_on_c, 0, 75, 97
1, 48205, Note_on_c, 0, 39, 0
1, 48233, Note_on_c, 0, 75, 0
1, 48332, Note_on_c, 0, 51, 89
1, 48337, Note_on_c, 0, 63, 87
1, 48387, Note_on_c, 0, 51, 0
1, 48395, Note_on_c, 0, 63, 0
1, 48499, Note_on_c, 0, 40, 87
1, 48558, Note_on_c, 0, 40, 0
1, 48669, Note_on_c, 0, 52, 89
1, 48721, Note_on_c, 0, 52, 0
1, 48856, Note_on_c, 0, 42, 72
1, 48856, Note_on_c, 0, 75, 87
1, 48920, Note_on_c, 0, 42, 0
1, 48936, Note_on_c, 0, 75, 0
1, 49053, Note_on_c, 0, 63, 75
1, 49064, Note_on_c, 0, 54, 67
1, 49090, Note_on_c, 0, 63, 0
1, 49127, Note_on_c, 0, 54, 0
1, 49222, Note_on_c, 0, 76, 84
1, 49281, Note_on_c, 0, 76, 0
1, 49395, Note_on_c, 0, 64, 79
1, 49441, Note_on_c, 0, 64, 0
1, 49565, Note_on_c, 0, 78, 80
1, 49626, Note_on_c, 0, 78, 0
1, 49732, Note_on_c, 0, 66, 73
1, 49775, Note_on_c, 0, 66, 0
1, 49920, Note_on_c, 0, 80, 80
1, 49991, Note_on_c, 0, 80, 0
1, 50099, Note_on_c, 0, 68, 63
1, 50137, Note_on_c, 0, 68, 0
1, 50268, Note_on_c, 0, 81, 80
1, 50274, Note_on_c, 0, 42, 56
1, 50318, Note_on_c, 0, 42, 0
1, 50326, Note_on_c, 0, 81, 0
1, 50387, Control_c, 0, 67, 8
1, 50437, Note_on_c, 0, 69, 75
1, 50442, Note_on_c, 0, 54, 57
1, 50482, Note_on_c, 0, 54, 0
1, 50483, Note_on_c, 0, 69, 0
1, 50605, Note_on_c, 0, 44, 66
1, 50607, Note_on_c, 0, 81, 82
1, 50610, Control_c, 0, 67, 12
1, 50652, Note_on_c, 0, 44, 0
1, 50662, Note_on_c, 0, 81, 0
1, 50718, Control_c, 0, 67, 18
1, 50789, Note_on_c, 0, 71, 75
1, 50802, Note_on_c, 0, 56, 55
1, 50835, Note_on_c, 0, 71, 0
1, 50849, Note_on_c, 0, 56, 0
1, 50963, Note_on_c, 0, 81, 80
1, 50977, Note_on_c, 0, 45, 55
1, 51020, Note_on_c, 0, 45, 0
1, 51025, Note_on_c, 0, 81, 0
1, 51084, Control_c, 0, 67, 22
1, 51137, Note_on_c, 0, 57, 62
1, 51138, Control_c, 0, 67, 26
1, 51138, Note_on_c, 0, 73, 69
1, 51174, Control_c, 0, 67, 33
1, 51175, Note_on_c, 0, 73, 0
1, 51186, Note_on_c, 0, 57, 0
1, 51192, Control_c, 0, 67, 37
1, 51232, Control_c, 0, 67, 42
1, 51287, Control_c, 0, 67, 48
1, 51318, Note_on_c, 0, 81, 69
1, 51323, Control_c, 0, 67, 53
1, 51323, Note_on_c, 0, 47, 50
1, 51358, Note_on_c, 0, 47, 0
1, 51360, Control_c, 0, 67, 61
1, 51368, Note_on_c, 0, 81, 0
1, 51378, Control_c, 0, 67, 66
1, 51396, Control_c, 0, 67, 72
1, 51414, Control_c, 0, 67, 79
1, 51434, Control_c, 0, 67, 86
1, 51451, Control_c, 0, 67, 93
1, 51470, Control_c, 0, 67, 101
1, 51486, Control_c, 0, 67, 107
1, 51496, Note_on_c, 0, 75, 60
1, 51497, Note_on_c, 0, 59, 49
1, 51505, Control_c, 0, 67, 113
1, 51525, Control_c, 0, 67, 119
1, 51540, Note_on_c, 0, 75, 0
1, 51543, Control_c, 0, 67, 125
1, 51544, Note_on_c, 0, 59, 0
1, 51669, Note_on_c, 0, 49, 47
1, 51671, Note_on_c, 0, 81, 67
1, 51735, Note_on_c, 0, 49, 0
1, 51735, Note_on_c, 0, 81, 0
1, 51849, Note_on_c, 0, 76, 62
1, 51853, Note_on_c, 0, 61, 54
1, 51893, Note_on_c, 0, 76, 0
1, 51901, Note_on_c, 0, 61, 0
1, 52039, Note_on_c, 0, 81, 56
1, 52049, Note_on_c, 0, 51, 40
1, 52089, Note_on_c, 0, 81, 0
1, 52092, Note_on_c, 0, 51, 0
1, 52232, Note_on_c, 0, 78, 47
1, 52258, Note_on_c, 0, 63, 46
1, 52314, Note_on_c, 0, 63, 0
1, 52326, Note_on_c, 0, 78, 0
1, 52712, Note_on_c, 0, 80, 69
1, 52737, Note_on_c, 0, 64, 41
1, 52745, Note_on_c, 0, 68, 41
1, 52746, Note_on_c, 0, 76, 43
1, 52773, Note_on_c, 0, 71, 23
1, 52862, Control_c, 0, 64, 24
1, 52881, Control_c, 0, 64, 37
1, 52899, Control_c, 0, 64, 54
1, 52918, Control_c, 0, 64, 65
1, 52938, Control_c, 0, 64, 71
1, 52956, Control_c, 0, 64, 75
1, 52973, Control_c, 0, 64, 79
1, 52993, Control_c, 0, 64, 84
1, 53010, Control_c, 0, 64, 90
1, 53029, Control_c, 0, 64, 95
1, 53031, Poly_aftertouch_c, 0, 71, 24
1, 53063, Control_c, 0, 64, 99
1, 53070, Note_on_c, 0, 71, 0
1, 53070, Poly_aftertouch_c, 0, 71, 0
1, 53075, Note_on_c, 0, 76, 0
1, 53082, Note_on_c, 0, 64, 0
1, 53102, Control_c, 0, 67, 115
1, 53119, Control_c, 0, 64, 104
1, 53120, Control_c, 0, 67, 108
1, 53137, Control_c, 0, 67, 100
1, 53157, Control_c, 0, 64, 108
1, 53158, Control_c, 0, 67, 90
1, 53175, Control_c, 0, 67, 79
1, 53193, Control_c, 0, 64, 112
1, 53194, Control_c, 0, 67, 66
1, 53212, Control_c, 0, 67, 52
1, 53231, Control_c, 0, 67, 38
1, 53250, Control_c, 0, 64, 116
1, 53251, Control_c, 0, 67, 22
1, 53268, Control_c, 0, 67, 8
1, 53322, Control_c, 0, 67, 0
1, 53357, Control_c, 0, 64, 120
1, 53525, Control_c, 0, 64, 124
1, 53558, Note_on_c, 0, 78, 66
1, 53580, Note_on_c, 0, 68, 0
1, 53608, Note_on_c, 0, 80, 0
1, 53612, Control_c, 0, 64, 113
1, 53615, Note_on_c, 0, 75, 45
1, 53616, Note_on_c, 0, 66, 41
1, 53623, Note_on_c, 0, 59, 42
1, 53631, Control_c, 0, 64, 92
1, 53644, Note_on_c, 0, 63, 37
1, 53645, Note_on_c, 0, 69, 31
1, 53649, Control_c, 0, 64, 60
1, 53669, Control_c, 0, 64, 27
1, 53687, Control_c, 0, 64, 23
1, 53718, Note_on_c, 0, 75, 0
1, 53723, Control_c, 0, 64, 48
1, 53744, Control_c, 0, 64, 71
1, 53748, Note_on_c, 0, 69, 0
1, 53760, Control_c, 0, 64, 85
1, 53774, Note_on_c, 0, 59, 0
1, 53777, Note_on_c, 0, 63, 0
1, 53778, Control_c, 0, 64, 99
1, 53798, Control_c, 0, 64, 106
1, 53835, Control_c, 0, 64, 112
1, 53872, Control_c, 0, 64, 117
1, 53908, Control_c, 0, 64, 123
1, 53992, Note_on_c, 0, 76, 73
1, 54016, Note_on_c, 0, 66, 0
1, 54018, Control_c, 0, 64, 110
1, 54025, Note_on_c, 0, 64, 52
1, 54027, Note_on_c, 0, 73, 50
1, 54031, Note_on_c, 0, 68, 49
1, 54037, Control_c, 0, 64, 82
1, 54040, Note_on_c, 0, 78, 0
1, 54040, Note_on_c, 0, 61, 44
1, 54055, Control_c, 0, 64, 44
1, 54076, Control_c, 0, 64, 8
1, 54093, Note_on_c, 0, 73, 0
1, 54113, Control_c, 0, 64, 25
1, 54125, Note_on_c, 0, 68, 0
1, 54130, Control_c, 0, 64, 52
1, 54147, Control_c, 0, 64, 74
1, 54166, Note_on_c, 0, 61, 0
1, 54166, Control_c, 0, 64, 86
1, 54186, Control_c, 0, 64, 96
1, 54203, Control_c, 0, 64, 100
1, 54258, Control_c, 0, 64, 106
1, 54427, Note_on_c, 0, 75, 67
1, 54453, Note_on_c, 0, 63, 45
1, 54461, Note_on_c, 0, 76, 0
1, 54461, Note_on_c, 0, 72, 45
1, 54478, Note_on_c, 0, 66, 34
1, 54482, Note_on_c, 0, 64, 0
1, 54486, Note_on_c, 0, 60, 38
1, 54497, Control_c, 0, 64, 93
1, 54511, Note_on_c, 0, 56, 33
1, 54529, Control_c, 0, 64, 66
1, 54548, Control_c, 0, 64, 0
1, 54660, Control_c, 0, 64, 14
1, 54680, Control_c, 0, 64, 42
1, 54696, Control_c, 0, 64, 68
1, 54698, Control_c, 0, 67, 8
1, 54714, Control_c, 0, 64, 84
1, 54733, Control_c, 0, 64, 101
1, 54752, Control_c, 0, 64, 110
1, 54787, Note_on_c, 0, 56, 0
1, 54789, Control_c, 0, 67, 13
1, 54792, Note_on_c, 0, 72, 0
1, 54808, Control_c, 0, 64, 115
1, 54827, Control_c, 0, 67, 21
1, 54844, Control_c, 0, 67, 29
1, 54863, Control_c, 0, 64, 120
1, 54865, Control_c, 0, 67, 42
1, 54877, Note_on_c, 0, 66, 0
1, 54880, Control_c, 0, 67, 57
1, 54900, Control_c, 0, 67, 75
1, 54906, Note_on_c, 0, 60, 0
1, 54917, Control_c, 0, 67, 94
1, 54935, Control_c, 0, 67, 109
1, 54954, Control_c, 0, 67, 120
1, 54973, Control_c, 0, 67, 127
1, 55335, Note_on_c, 0, 73, 49
1, 55345, Note_on_c, 0, 61, 35
1, 55350, Note_on_c, 0, 57, 38
1, 55352, Note_on_c, 0, 69, 32
1, 55358, Note_on_c, 0, 64, 29
1, 55400, Note_on_c, 0, 63, 0
1, 55406, Note_on_c, 0, 75, 0
1, 55414, Control_c, 0, 64, 111
1, 55434, Control_c, 0, 64, 90
1, 55466, Control_c, 0, 64, 55
1, 55484, Control_c, 0, 64, 0
1, 55615, Control_c, 0, 64, 35
1, 55632, Control_c, 0, 64, 57
1, 55650, Control_c, 0, 64, 75
1, 55655, Note_on_c, 0, 64, 0
1, 55669, Control_c, 0, 64, 89
1, 55688, Control_c, 0, 64, 101
1, 55704, Control_c, 0, 64, 107
1, 55741, Control_c, 0, 64, 112
1, 55750, Note_on_c, 0, 57, 0
1, 55762, Control_c, 0, 64, 116
1, 55779, Control_c, 0, 64, 120
1, 55790, Note_on_c, 0, 69, 0
1, 55816, Control_c, 0, 64, 127
1, 55831, Note_on_c, 0, 73, 0
1, 55835, Control_c, 0, 67, 122
1, 55852, Control_c, 0, 67, 115
1, 55855, Note_on_c, 0, 61, 0
1, 55870, Control_c, 0, 67, 106
1, 55890, Control_c, 0, 67, 95
1, 55909, Control_c, 0, 67, 83
1, 55927, Control_c, 0, 67, 72
1, 55943, Control_c, 0, 67, 60
1, 55964, Control_c, 0, 67, 49
1, 55982, Control_c, 0, 67, 37
1, 56000, Control_c, 0, 67, 21
1, 56037, Control_c, 0, 67, 0
1, 56237, Note_on_c, 0, 75, 62
1, 56287, Note_on_c, 0, 63, 39
1, 56288, Note_on_c, 0, 59, 41
1, 56297, Note_on_c, 0, 69, 40
1, 56300, Note_on_c, 0, 71, 36
1, 56305, Note_on_c, 0, 54, 33
1, 56311, Note_on_c, 0, 57, 36
1, 56351, Control_c, 0, 64, 122
1, 56369, Control_c, 0, 64, 98
1, 56388, Control_c, 0, 64, 67
1, 56420, Control_c, 0, 64, 37
1, 56438, Control_c, 0, 64, 33
1, 56475, Control_c, 0, 64, 47
1, 56495, Control_c, 0, 64, 67
1, 56512, Control_c, 0, 64, 80
1, 56532, Control_c, 0, 64, 93
1, 56551, Control_c, 0, 64, 105
1, 56567, Control_c, 0, 64, 112
1, 56568, Note_on_c, 0, 69, 0
1, 56604, Control_c, 0, 64, 118
1, 56605, Note_on_c, 0, 71, 0
1, 56655, Note_on_c, 0, 54, 0
1, 56659, Control_c, 0, 64, 122
1, 56686, Note_on_c, 0, 57, 0
1, 56697, Note_on_c, 0, 59, 0
1, 56712, Note_on_c, 0, 75, 0
1, 56772, Control_c, 0, 64, 126
1, 56982, Note_on_c, 0, 63, 0
1, 57078, Note_on_c, 0, 76, 79
1, 57099, Control_c, 0, 64, 112
1, 57102, Note_on_c, 0, 71, 57
1, 57109, Note_on_c, 0, 64, 50
1, 57116, Note_on_c, 0, 56, 49
1, 57120, Control_c, 0, 64, 77
1, 57132, Note_on_c, 0, 59, 37
1, 57138, Control_c, 0, 64, 37
1, 57158, Control_c, 0, 64, 23
1, 57188, Note_on_c, 0, 71, 0
1, 57193, Control_c, 0, 64, 44
1, 57213, Control_c, 0, 64, 68
1, 57231, Control_c, 0, 64, 85
1, 57248, Control_c, 0, 64, 102
1, 57249, Note_on_c, 0, 56, 0
1, 57256, Note_on_c, 0, 59, 0
1, 57258, Note_on_c, 0, 76, 0
1, 57267, Control_c, 0, 64, 112
1, 57287, Control_c, 0, 64, 116
1, 57302, Note_on_c, 0, 64, 0
1, 57324, Control_c, 0, 64, 123
1, 57355, Control_c, 0, 64, 127
1, 57501, Note_on_c, 0, 78, 80
1, 57536, Note_on_c, 0, 73, 51
1, 57536, Note_on_c, 0, 76, 62
1, 57537, Note_on_c, 0, 61, 50
1, 57540, Control_c, 0, 64, 98
1, 57550, Note_on_c, 0, 66, 46
1, 57555, Note_on_c, 0, 57, 44
1, 57558, Control_c, 0, 64, 51
1, 57575, Control_c, 0, 64, 0
1, 57612, Control_c, 0, 64, 8
1, 57632, Control_c, 0, 64, 47
1, 57650, Control_c, 0, 64, 77
1, 57655, Note_on_c, 0, 57, 0
1, 57660, Note_on_c, 0, 61, 0
1, 57661, Note_on_c, 0, 76, 0
1, 57668, Control_c, 0, 64, 99
1, 57688, Control_c, 0, 64, 120
1, 57705, Note_on_c, 0, 73, 0
1, 57707, Control_c, 0, 64, 124
1, 57715, Note_on_c, 0, 78, 0
1, 57799, Note_on_c, 0, 66, 0
1, 58007, Note_on_c, 0, 71, 72
1, 58013, Note_on_c, 0, 80, 72
1, 58041, Note_on_c, 0, 76, 52
1, 58062, Note_on_c, 0, 68, 46
1, 58066, Note_on_c, 0, 64, 46
1, 58072, Note_on_c, 0, 59, 38
1, 58092, Control_c, 0, 64, 111
1, 58111, Control_c, 0, 64, 66
1, 58129, Control_c, 0, 64, 0
1, 58202, Control_c, 0, 64, 8
1, 58222, Control_c, 0, 64, 39
1, 58240, Control_c, 0, 64, 65
1, 58259, Control_c, 0, 64, 81
1, 58291, Control_c, 0, 64, 97
1, 58309, Control_c, 0, 64, 108
1, 58310, Control_c, 0, 67, 8
1, 58366, Control_c, 0, 64, 113
1, 58373, Poly_aftertouch_c, 0, 79, 127
1, 58403, Note_on_c, 0, 76, 0
1, 58421, Control_c, 0, 64, 117
1, 58443, Poly_aftertouch_c, 0, 79, 0
1, 58476, Control_c, 0, 67, 12
1, 58512, Control_c, 0, 67, 17
1, 58522, Note_on_c, 0, 64, 0
1, 58568, Control_c, 0, 67, 23
1, 58586, Control_c, 0, 67, 28
1, 58605, Control_c, 0, 67, 35
1, 58623, Control_c, 0, 67, 41
1, 58643, Control_c, 0, 67, 46
1, 58659, Control_c, 0, 67, 52
1, 58678, Control_c, 0, 67, 58
1, 58696, Control_c, 0, 67, 63
1, 58716, Control_c, 0, 67, 69
1, 58735, Control_c, 0, 67, 75
1, 58750, Control_c, 0, 67, 81
1, 58770, Control_c, 0, 67, 86
1, 58808, Control_c, 0, 67, 91
1, 58864, Control_c, 0, 67, 95
1, 58899, Control_c, 0, 67, 102
1, 58915, Note_on_c, 0, 78, 52
1, 58919, Control_c, 0, 67, 107
1, 58925, Note_on_c, 0, 75, 47
1, 58937, Control_c, 0, 67, 113
1, 58954, Control_c, 0, 67, 119
1, 58965, Note_on_c, 0, 66, 37
1, 58969, Note_on_c, 0, 63, 34
1, 58971, Control_c, 0, 67, 125
1, 58991, Control_c, 0, 64, 99
1, 59009, Control_c, 0, 64, 68
1, 59027, Control_c, 0, 64, 0
1, 59031, Note_on_c, 0, 80, 0
1, 59038, Note_on_c, 0, 68, 0
1, 59110, Poly_aftertouch_c, 0, 71, 24
1, 59119, Control_c, 0, 64, 32
1, 59138, Control_c, 0, 64, 57
1, 59146, Note_on_c, 0, 71, 0
1, 59146, Poly_aftertouch_c, 0, 71, 0
1, 59157, Control_c, 0, 64, 78
1, 59176, Control_c, 0, 64, 90
1, 59194, Control_c, 0, 64, 100
1, 59226, Control_c, 0, 64, 104
1, 59282, Control_c, 0, 64, 108
1, 59405, Note_on_c, 0, 69, 56
1, 59410, Control_c, 0, 64, 102
1, 59430, Control_c, 0, 64, 81
1, 59447, Control_c, 0, 64, 51
1, 59447, Poly_aftertouch_c, 0, 75, 24
1, 59466, Control_c, 0, 64, 33
1, 59469, Note_on_c, 0, 75, 0
1, 59469, Poly_aftertouch_c, 0, 75, 0
1, 59496, Note_on_c, 0, 78, 0
1, 59502, Control_c, 0, 64, 42
1, 59523, Control_c, 0, 64, 63
1, 59525, Poly_aftertouch_c, 0, 66, 24
1, 59530, Poly_aftertouch_c, 0, 59, 24
1, 59540, Control_c, 0, 64, 78
1, 59546, Note_on_c, 0, 66, 0
1, 59546, Poly_aftertouch_c, 0, 66, 0
1, 59560, Note_on_c, 0, 63, 0
1, 59561, Control_c, 0, 64, 90
1, 59565, Note_on_c, 0, 69, 0
1, 59567, Note_on_c, 0, 59, 0
1, 59567, Poly_aftertouch_c, 0, 59, 0
1, 59578, Control_c, 0, 64, 102
1, 59595, Control_c, 0, 64, 110
1, 59632, Control_c, 0, 64, 116
1, 59743, Control_c, 0, 64, 120
1, 59758, Poly_aftertouch_c, 0, 63, 0
1, 60009, Note_on_c, 0, 68, 58
1, 60033, Note_on_c, 0, 59, 38
1, 60048, Note_on_c, 0, 52, 35
1, 60051, Note_on_c, 0, 56, 40
1, 60055, Note_on_c, 0, 64, 35
1, 60074, Control_c, 0, 64, 109
1, 60094, Control_c, 0, 64, 87
1, 60111, Control_c, 0, 64, 48
1, 60130, Control_c, 0, 64, 0
1, 60237, Control_c, 0, 64, 17
1, 60255, Control_c, 0, 64, 43
1, 60275, Control_c, 0, 64, 66
1, 60292, Control_c, 0, 64, 80
1, 60310, Control_c, 0, 64, 92
1, 60329, Control_c, 0, 64, 101
1, 60347, Control_c, 0, 64, 106
1, 60379, Note_on_c, 0, 59, 0
1, 60384, Control_c, 0, 64, 111
1, 60385, Control_c, 0, 67, 121
1, 60393, Note_on_c, 0, 64, 0
1, 60402, Control_c, 0, 67, 115
1, 60421, Control_c, 0, 64, 118
1, 60424, Control_c, 0, 67, 105
1, 60426, Note_on_c, 0, 52, 0
1, 60440, Control_c, 0, 67, 92
1, 60458, Control_c, 0, 64, 122
1, 60459, Control_c, 0, 67, 76
1, 60475, Control_c, 0, 67, 59
1, 60495, Control_c, 0, 64, 126
1, 60496, Control_c, 0, 67, 41
1, 60514, Control_c, 0, 67, 23
1, 60549, Control_c, 0, 67, 0
1, 60875, Note_on_c, 0, 56, 0
1, 60877, Note_on_c, 0, 66, 55
1, 60894, Note_on_c, 0, 54, 36
1, 60906, Note_on_c, 0, 51, 36
1, 60909, Note_on_c, 0, 63, 33
1, 60918, Control_c, 0, 64, 99
1, 60928, Note_on_c, 0, 47, 34
1, 60933, Note_on_c, 0, 57, 24
1, 60937, Control_c, 0, 64, 65
1, 60938, Note_on_c, 0, 68, 0
1, 60956, Control_c, 0, 64, 29
1, 60973, Control_c, 0, 64, 22
1, 61009, Control_c, 0, 64, 39
1, 61029, Control_c, 0, 64, 62
1, 61046, Control_c, 0, 64, 78
1, 61048, Note_on_c, 0, 63, 0
1, 61066, Control_c, 0, 64, 92
1, 61082, Note_on_c, 0, 57, 0
1, 61098, Control_c, 0, 64, 104
1, 61102, Note_on_c, 0, 47, 0
1, 61104, Note_on_c, 0, 51, 0
1, 61118, Control_c, 0, 64, 109
1, 61153, Control_c, 0, 64, 113
1, 61191, Control_c, 0, 64, 117
1, 61228, Control_c, 0, 64, 122
1, 61302, Control_c, 0, 64, 118
1, 61312, Note_on_c, 0, 64, 65
1, 61319, Control_c, 0, 64, 96
1, 61320, Note_on_c, 0, 52, 47
1, 61325, Note_on_c, 0, 54, 0
1, 61325, Note_on_c, 0, 66, 0
1, 61335, Control_c, 0, 64, 62
1, 61342, Note_on_c, 0, 61, 38
1, 61351, Note_on_c, 0, 49, 31
1, 61353, Control_c, 0, 64, 12
1, 61360, Note_on_c, 0, 56, 28
1, 61370, Control_c, 0, 64, 0
1, 61409, Control_c, 0, 64, 31
1, 61418, Note_on_c, 0, 61, 0
1, 61427, Control_c, 0, 64, 56
1, 61447, Control_c, 0, 64, 76
1, 61463, Control_c, 0, 64, 90
1, 61481, Control_c, 0, 64, 101
1, 61487, Note_on_c, 0, 49, 0
1, 61500, Control_c, 0, 64, 106
1, 61508, Note_on_c, 0, 56, 0
1, 61554, Control_c, 0, 64, 110
1, 61629, Control_c, 0, 64, 115
1, 61761, Note_on_c, 0, 63, 64
1, 61787, Note_on_c, 0, 64, 0
1, 61789, Note_on_c, 0, 60, 44
1, 61805, Note_on_c, 0, 51, 41
1, 61813, Control_c, 0, 67, 8
1, 61825, Note_on_c, 0, 54, 23
1, 61830, Note_on_c, 0, 44, 36
1, 61840, Note_on_c, 0, 48, 36
1, 61849, Control_c, 0, 64, 98
1, 61854, Note_on_c, 0, 52, 0
1, 61869, Control_c, 0, 64, 65
1, 61888, Control_c, 0, 64, 0
1, 61980, Control_c, 0, 64, 15
1, 61998, Control_c, 0, 64, 40
1, 62030, Control_c, 0, 64, 63
1, 62050, Control_c, 0, 64, 79
1, 62068, Control_c, 0, 64, 91
1, 62071, Control_c, 0, 67, 12
1, 62085, Control_c, 0, 64, 100
1, 62105, Control_c, 0, 64, 105
1, 62142, Control_c, 0, 64, 109
1, 62143, Control_c, 0, 67, 16
1, 62144, Note_on_c, 0, 44, 0
1, 62150, Note_on_c, 0, 60, 0
1, 62196, Control_c, 0, 64, 115
1, 62197, Control_c, 0, 67, 20
1, 62203, Note_on_c, 0, 48, 0
1, 62215, Control_c, 0, 67, 25
1, 62234, Control_c, 0, 67, 30
1, 62243, Note_on_c, 0, 54, 0
1, 62250, Control_c, 0, 64, 120
1, 62270, Control_c, 0, 67, 35
1, 62326, Control_c, 0, 67, 42
1, 62364, Control_c, 0, 67, 49
1, 62401, Control_c, 0, 67, 54
1, 62436, Control_c, 0, 67, 61
1, 62454, Control_c, 0, 67, 66
1, 62474, Control_c, 0, 67, 72
1, 62491, Control_c, 0, 67, 77
1, 62508, Control_c, 0, 67, 81
1, 62528, Control_c, 0, 64, 124
1, 62546, Control_c, 0, 67, 88
1, 62565, Control_c, 0, 67, 92
1, 62583, Control_c, 0, 67, 98
1, 62603, Control_c, 0, 67, 103
1, 62621, Control_c, 0, 67, 107
1, 62638, Control_c, 0, 67, 111
1, 62656, Control_c, 0, 67, 115
1, 62694, Control_c, 0, 67, 122
1, 62711, Control_c, 0, 67, 126
1, 62718, Note_on_c, 0, 61, 46
1, 62723, Note_on_c, 0, 57, 37
1, 62725, Note_on_c, 0, 49, 35
1, 62737, Note_on_c, 0, 52, 21
1, 62737, Note_on_c, 0, 45, 36
1, 62804, Control_c, 0, 64, 118
1, 62812, Note_on_c, 0, 63, 0
1, 62818, Note_on_c, 0, 51, 0
1, 62822, Control_c, 0, 64, 107
1, 62842, Control_c, 0, 64, 83
1, 62859, Control_c, 0, 64, 45
1, 62877, Control_c, 0, 64, 0
1, 63021, Control_c, 0, 64, 28
1, 63041, Control_c, 0, 64, 45
1, 63059, Control_c, 0, 64, 65
1, 63079, Control_c, 0, 64, 78
1, 63079, Poly_aftertouch_c, 0, 52, 24
1, 63096, Control_c, 0, 64, 88
1, 63113, Control_c, 0, 64, 97
1, 63134, Control_c, 0, 64, 102
1, 63152, Note_on_c, 0, 52, 0
1, 63152, Poly_aftertouch_c, 0, 52, 0
1, 63157, Note_on_c, 0, 49, 0
1, 63186, Note_on_c, 0, 45, 0
1, 63194, Note_on_c, 0, 57, 0
1, 63205, Control_c, 0, 64, 107
1, 63298, Control_c, 0, 64, 111
1, 63763, Note_on_c, 0, 59, 58
1, 63795, Note_on_c, 0, 56, 39
1, 63802, Note_on_c, 0, 52, 39
1, 63810, Note_on_c, 0, 35, 39
1, 63815, Note_on_c, 0, 47, 38
1, 63832, Control_c, 0, 64, 96
1, 63851, Control_c, 0, 64, 65
1, 63869, Control_c, 0, 64, 0
1, 63898, Note_on_c, 0, 61, 0
1, 63974, Note_on_c, 0, 52, 0
1, 63976, Control_c, 0, 64, 25
1, 63979, Note_on_c, 0, 56, 0
1, 63995, Control_c, 0, 64, 49
1, 64013, Control_c, 0, 64, 70
1, 64032, Control_c, 0, 64, 79
1, 64049, Control_c, 0, 64, 86
1, 64069, Control_c, 0, 64, 91
1, 64105, Control_c, 0, 64, 96
1, 64253, Control_c, 0, 64, 100
1, 64354, Note_on_c, 0, 57, 46
1, 64355, Note_on_c, 0, 54, 43
1, 64417, Control_c, 0, 64, 91
1, 64437, Control_c, 0, 64, 76
1, 64454, Control_c, 0, 64, 46
1, 64474, Control_c, 0, 64, 0
1, 64582, Control_c, 0, 64, 20
1, 64602, Control_c, 0, 64, 38
1, 64619, Control_c, 0, 64, 53
1, 64639, Control_c, 0, 64, 63
1, 64640, Control_c, 0, 67, 118
1, 64659, Control_c, 0, 64, 64
1, 64660, Control_c, 0, 67, 105
1, 64675, Control_c, 0, 67, 86
1, 64695, Control_c, 0, 64, 65
1, 64696, Control_c, 0, 67, 62
1, 64714, Control_c, 0, 67, 34
1, 64749, Control_c, 0, 67, 0
1, 64769, Control_c, 0, 64, 63
1, 64769, Note_on_c, 0, 61, 66
1, 64787, Control_c, 0, 64, 58
1, 64806, Control_c, 0, 64, 49
1, 64812, Note_on_c, 0, 59, 0
1, 64836, Control_c, 0, 64, 31
1, 64856, Control_c, 0, 64, 0
1, 65089, Poly_aftertouch_c, 0, 37, 0
1, 65207, Control_c, 0, 67, 8
1, 65209, Note_on_c, 0, 63, 52
1, 65212, Note_on_c, 0, 61, 0
1, 65234, Note_on_c, 0, 57, 0
1, 65243, Control_c, 0, 67, 14
1, 65262, Control_c, 0, 64, 32
1, 65263, Control_c, 0, 67, 18
1, 65280, Control_c, 0, 64, 57
1, 65281, Control_c, 0, 67, 25
1, 65292, Note_on_c, 0, 35, 0
1, 65296, Control_c, 0, 64, 70
1, 65298, Control_c, 0, 67, 36
1, 65314, Note_on_c, 0, 47, 0
1, 65315, Control_c, 0, 64, 77
1, 65316, Control_c, 0, 67, 51
1, 65334, Control_c, 0, 64, 81
1, 65334, Control_c, 0, 67, 69
1, 65339, Note_on_c, 0, 63, 0
1, 65354, Control_c, 0, 64, 85
1, 65357, Control_c, 0, 67, 88
1, 65369, Note_on_c, 0, 54, 0
1, 65372, Control_c, 0, 64, 89
1, 65373, Control_c, 0, 67, 104
1, 65391, Control_c, 0, 67, 117
1, 65410, Control_c, 0, 64, 93
1, 65411, Control_c, 0, 67, 125
1, 65702, Control_c, 0, 64, 82
1, 65706, Note_on_c, 0, 56, 38
1, 65707, Note_on_c, 0, 52, 23
1, 65708, Note_on_c, 0, 40, 32
1, 65721, Note_on_c, 0, 64, 40
1, 65722, Control_c, 0, 64, 58
1, 65740, Control_c, 0, 64, 0
1, 65776, Note_on_c, 0, 56, 0
1, 65901, Note_on_c, 0, 66, 58
1, 65908, Note_on_c, 0, 64, 0
1, 66019, Note_on_c, 0, 68, 66
1, 66037, Note_on_c, 0, 66, 0
1, 66100, Note_on_c, 0, 68, 0
1, 66146, Note_on_c, 0, 69, 66
1, 66162, Poly_aftertouch_c, 0, 40, 24
1, 66220, Note_on_c, 0, 40, 0
1, 66220, Poly_aftertouch_c, 0, 40, 0
1, 66235, Poly_aftertouch_c, 0, 52, 24
1, 66254, Note_on_c, 0, 69, 0
1, 66276, Note_on_c, 0, 71, 62
1, 66282, Note_on_c, 0, 52, 0
1, 66282, Poly_aftertouch_c, 0, 52, 0
1, 66377, Note_on_c, 0, 71, 0
1, 66388, Note_on_c, 0, 73, 62
1, 66455, Note_on_c, 0, 73, 0
1, 66517, Note_on_c, 0, 74, 55
1, 66626, Note_on_c, 0, 74, 0
1, 66639, Note_on_c, 0, 75, 63
1, 66775, Note_on_c, 0, 75, 0
1, 66777, Note_on_c, 0, 76, 61
1, 66845, Note_on_c, 0, 76, 0
1, 66898, Note_on_c, 0, 77, 60
1, 67002, Note_on_c, 0, 77, 0
1, 67009, Note_on_c, 0, 78, 67
1, 67119, Note_on_c, 0, 78, 0
1, 67149, Note_on_c, 0, 79, 59
1, 67318, Note_on_c, 0, 80, 61
1, 67352, Note_on_c, 0, 71, 46
1, 67365, Note_on_c, 0, 68, 70
1, 67384, Note_on_c, 0, 79, 0
1, 67391, Note_on_c, 0, 64, 51
1, 67474, Note_on_c, 0, 80, 0
1, 67519, Control_c, 0, 64, 15
1, 67519, Note_on_c, 0, 79, 46
1, 67539, Control_c, 0, 64, 37
1, 67540, Control_c, 0, 67, 119
1, 67556, Control_c, 0, 64, 58
1, 67557, Control_c, 0, 67, 107
1, 67577, Control_c, 0, 64, 69
1, 67578, Control_c, 0, 67, 91
1, 67594, Control_c, 0, 64, 72
1, 67595, Control_c, 0, 67, 72
1, 67598, Poly_aftertouch_c, 0, 71, 20
1, 67612, Control_c, 0, 67, 52
1, 67644, Control_c, 0, 64, 75
1, 67645, Control_c, 0, 67, 34
1, 67658, Note_on_c, 0, 80, 57
1, 67663, Control_c, 0, 64, 78
1, 67664, Control_c, 0, 67, 18
1, 67673, Note_on_c, 0, 79, 0
1, 67680, Note_on_c, 0, 64, 0
1, 67681, Control_c, 0, 64, 81
1, 67699, Control_c, 0, 64, 86
1, 67737, Control_c, 0, 64, 90
1, 67742, Note_on_c, 0, 80, 0
1, 67756, Control_c, 0, 67, 0
1, 67774, Note_on_c, 0, 81, 54
1, 67847, Control_c, 0, 64, 94
1, 67867, Poly_aftertouch_c, 0, 71, 22
1, 67874, Note_on_c, 0, 81, 0
1, 67894, Note_on_c, 0, 71, 0
1, 67894, Poly_aftertouch_c, 0, 71, 0
1, 67908, Note_on_c, 0, 79, 51
1, 67995, Control_c, 0, 64, 98
1, 68005, Note_on_c, 0, 79, 0
1, 68025, Note_on_c, 0, 80, 50
1, 68091, Note_on_c, 0, 80, 0
1, 68159, Note_on_c, 0, 66, 69
1, 68159, Control_c, 0, 64, 79
1, 68174, Note_on_c, 0, 69, 53
1, 68178, Control_c, 0, 64, 46
1, 68195, Control_c, 0, 64, 0
1, 68197, Note_on_c, 0, 59, 53
1, 68198, Note_on_c, 0, 63, 49
1, 68258, Note_on_c, 0, 68, 0
1, 68289, Control_c, 0, 64, 39
1, 68294, Note_on_c, 0, 59, 0
1, 68302, Note_on_c, 0, 69, 0
1, 68307, Control_c, 0, 64, 64
1, 68314, Note_on_c, 0, 80, 54
1, 68322, Note_on_c, 0, 63, 0
1, 68324, Control_c, 0, 64, 76
1, 68343, Control_c, 0, 64, 84
1, 68362, Control_c, 0, 64, 90
1, 68399, Control_c, 0, 64, 95
1, 68420, Note_on_c, 0, 80, 0
1, 68424, Note_on_c, 0, 78, 57
1, 68438, Control_c, 0, 64, 99
1, 68521, Note_on_c, 0, 78, 0
1, 68547, Control_c, 0, 64, 87
1, 68578, Control_c, 0, 64, 53
1, 68585, Note_on_c, 0, 68, 54
1, 68597, Control_c, 0, 64, 0
1, 68598, Note_on_c, 0, 64, 72
1, 68640, Note_on_c, 0, 61, 48
1, 68672, Note_on_c, 0, 66, 0
1, 68672, Control_c, 0, 64, 12
1, 68692, Control_c, 0, 64, 46
1, 68710, Control_c, 0, 64, 69
1, 68714, Note_on_c, 0, 78, 51
1, 68727, Control_c, 0, 64, 78
1, 68740, Note_on_c, 0, 61, 0
1, 68746, Control_c, 0, 64, 85
1, 68764, Control_c, 0, 64, 87
1, 68809, Note_on_c, 0, 68, 0
1, 68839, Note_on_c, 0, 76, 52
1, 68856, Note_on_c, 0, 78, 0
1, 68856, Control_c, 0, 64, 91
1, 68972, Note_on_c, 0, 76, 0
1, 69032, Note_on_c, 0, 66, 48
1, 69039, Control_c, 0, 64, 84
1, 69040, Note_on_c, 0, 63, 60
1, 69060, Control_c, 0, 64, 70
1, 69075, Control_c, 0, 64, 46
1, 69089, Note_on_c, 0, 60, 32
1, 69091, Note_on_c, 0, 56, 28
1, 69096, Control_c, 0, 64, 0
1, 69113, Note_on_c, 0, 64, 0
1, 69114, Control_c, 0, 67, 8
1, 69204, Note_on_c, 0, 72, 50
1, 69333, Note_on_c, 0, 72, 0
1, 69335, Note_on_c, 0, 75, 52
1, 69391, Control_c, 0, 64, 10
1, 69409, Control_c, 0, 64, 37
1, 69428, Control_c, 0, 64, 53
1, 69438, Note_on_c, 0, 75, 0
1, 69446, Control_c, 0, 64, 66
1, 69463, Note_on_c, 0, 76, 48
1, 69464, Control_c, 0, 64, 71
1, 69483, Control_c, 0, 64, 74
1, 69514, Control_c, 0, 64, 76
1, 69552, Control_c, 0, 64, 80
1, 69571, Control_c, 0, 64, 84
1, 69589, Control_c, 0, 64, 88
1, 69608, Note_on_c, 0, 60, 0
1, 69611, Poly_aftertouch_c, 0, 66, 24
1, 69621, Note_on_c, 0, 76, 0
1, 69624, Note_on_c, 0, 72, 49
1, 69708, Note_on_c, 0, 72, 0
1, 69718, Note_on_c, 0, 66, 0
1, 69718, Poly_aftertouch_c, 0, 66, 0
1, 69731, Note_on_c, 0, 75, 43
1, 69891, Note_on_c, 0, 64, 49
1, 69894, Note_on_c, 0, 61, 49
1, 69901, Control_c, 0, 67, 13
1, 69920, Note_on_c, 0, 57, 39
1, 69920, Control_c, 0, 64, 83
1, 69921, Note_on_c, 0, 63, 0
1, 69931, Note_on_c, 0, 56, 0
1, 69939, Control_c, 0, 64, 71
1, 69940, Control_c, 0, 67, 19
1, 69958, Control_c, 0, 64, 48
1, 69976, Control_c, 0, 64, 0
1, 69977, Control_c, 0, 67, 27
1, 69993, Control_c, 0, 67, 32
1, 70012, Control_c, 0, 67, 36
1, 70020, Note_on_c, 0, 75, 0
1, 70048, Control_c, 0, 67, 40
1, 70054, Note_on_c, 0, 69, 40
1, 70106, Control_c, 0, 67, 45
1, 70141, Control_c, 0, 64, 31
1, 70142, Control_c, 0, 67, 50
1, 70160, Control_c, 0, 64, 50
1, 70177, Note_on_c, 0, 73, 46
1, 70179, Control_c, 0, 64, 68
1, 70180, Control_c, 0, 67, 54
1, 70196, Control_c, 0, 64, 75
1, 70213, Note_on_c, 0, 69, 0
1, 70213, Control_c, 0, 64, 81
1, 70215, Control_c, 0, 67, 62
1, 70222, Poly_aftertouch_c, 0, 64, 22
1, 70234, Control_c, 0, 64, 84
1, 70236, Control_c, 0, 67, 67
1, 70252, Control_c, 0, 64, 89
1, 70253, Control_c, 0, 67, 73
1, 70272, Control_c, 0, 64, 93
1, 70273, Control_c, 0, 67, 80
1, 70281, Note_on_c, 0, 73, 0
1, 70289, Control_c, 0, 64, 97
1, 70291, Control_c, 0, 67, 89
1, 70301, Note_on_c, 0, 75, 48
1, 70308, Control_c, 0, 67, 99
1, 70310, Note_on_c, 0, 57, 0
1, 70317, Note_on_c, 0, 64, 0
1, 70317, Poly_aftertouch_c, 0, 64, 0
1, 70327, Control_c, 0, 67, 107
1, 70345, Control_c, 0, 64, 102
1, 70346, Control_c, 0, 67, 115
1, 70362, Control_c, 0, 67, 119
1, 70380, Note_on_c, 0, 61, 0
1, 70399, Control_c, 0, 64, 106
1, 70401, Control_c, 0, 67, 123
1, 70404, Note_on_c, 0, 69, 40
1, 70489, Control_c, 0, 64, 111
1, 70519, Note_on_c, 0, 75, 0
1, 70564, Note_on_c, 0, 73, 45
1, 70585, Note_on_c, 0, 69, 0
1, 70664, Note_on_c, 0, 73, 0
1, 70748, Note_on_c, 0, 69, 46
1, 70778, Note_on_c, 0, 63, 66
1, 70805, Note_on_c, 0, 59, 45
1, 70821, Control_c, 0, 64, 95
1, 70821, Note_on_c, 0, 54, 40
1, 70837, Control_c, 0, 64, 68
1, 70848, Note_on_c, 0, 57, 26
1, 70856, Control_c, 0, 64, 0
1, 70912, Note_on_c, 0, 74, 49
1, 70949, Control_c, 0, 67, 117
1, 70968, Control_c, 0, 64, 33
1, 70970, Control_c, 0, 67, 112
1, 70986, Control_c, 0, 64, 59
1, 70994, Poly_aftertouch_c, 0, 69, 24
1, 71004, Control_c, 0, 64, 77
1, 71005, Control_c, 0, 67, 104
1, 71022, Control_c, 0, 64, 87
1, 71024, Control_c, 0, 67, 95
1, 71030, Note_on_c, 0, 75, 55
1, 71044, Control_c, 0, 64, 94
1, 71046, Control_c, 0, 67, 81
1, 71059, Control_c, 0, 67, 63
1, 71073, Note_on_c, 0, 54, 0
1, 71076, Control_c, 0, 64, 99
1, 71077, Control_c, 0, 67, 40
1, 71096, Control_c, 0, 67, 13
1, 71109, Note_on_c, 0, 74, 0
1, 71113, Control_c, 0, 67, 0
1, 71124, Poly_aftertouch_c, 0, 57, 24
1, 71138, Note_on_c, 0, 75, 0
1, 71149, Note_on_c, 0, 57, 0
1, 71149, Poly_aftertouch_c, 0, 57, 0
1, 71162, Note_on_c, 0, 59, 0
1, 71166, Note_on_c, 0, 76, 55
1, 71225, Note_on_c, 0, 63, 0
1, 71251, Poly_aftertouch_c, 0, 69, 22
1, 71273, Note_on_c, 0, 69, 0
1, 71273, Poly_aftertouch_c, 0, 69, 0
1, 71289, Note_on_c, 0, 74, 52
1, 71322, Note_on_c, 0, 76, 0
1, 71429, Note_on_c, 0, 74, 0
1, 71437, Note_on_c, 0, 75, 57
1, 71498, Control_c, 0, 64, 103
1, 71529, Note_on_c, 0, 75, 0
1, 71570, Control_c, 0, 64, 98
1, 71571, Note_on_c, 0, 71, 57
1, 71582, Note_on_c, 0, 64, 75
1, 71588, Control_c, 0, 64, 81
1, 71605, Control_c, 0, 64, 55
1, 71616, Note_on_c, 0, 59, 46
1, 71621, Note_on_c, 0, 56, 46
1, 71625, Control_c, 0, 64, 26
1, 71681, Control_c, 0, 64, 37
1, 71688, Note_on_c, 0, 71, 0
1, 71701, Control_c, 0, 64, 58
1, 71711, Note_on_c, 0, 78, 56
1, 71715, Note_on_c, 0, 56, 0
1, 71719, Control_c, 0, 64, 73
1, 71738, Control_c, 0, 64, 82
1, 71757, Control_c, 0, 64, 91
1, 71758, Note_on_c, 0, 59, 0
1, 71773, Control_c, 0, 64, 97
1, 71792, Control_c, 0, 64, 101
1, 71829, Note_on_c, 0, 78, 0
1, 71831, Control_c, 0, 64, 107
1, 71842, Note_on_c, 0, 76, 58
1, 71865, Control_c, 0, 64, 111
1, 71886, Note_on_c, 0, 64, 0
1, 71921, Control_c, 0, 64, 115
1, 71960, Note_on_c, 0, 76, 0
1, 71982, Note_on_c, 0, 73, 69
1, 71984, Note_on_c, 0, 66, 80
1, 71995, Control_c, 0, 64, 100
1, 72012, Control_c, 0, 64, 69
1, 72015, Control_c, 0, 67, 8
1, 72015, Note_on_c, 0, 61, 49
1, 72018, Note_on_c, 0, 57, 50
1, 72033, Control_c, 0, 64, 0
1, 72082, Note_on_c, 0, 57, 0
1, 72087, Note_on_c, 0, 61, 0
1, 72104, Control_c, 0, 64, 29
1, 72123, Control_c, 0, 64, 55
1, 72129, Note_on_c, 0, 80, 68
1, 72142, Control_c, 0, 64, 76
1, 72160, Control_c, 0, 64, 88
1, 72179, Control_c, 0, 64, 98
1, 72188, Note_on_c, 0, 73, 0
1, 72216, Control_c, 0, 64, 103
1, 72250, Note_on_c, 0, 78, 67
1, 72251, Control_c, 0, 64, 107
1, 72269, Note_on_c, 0, 80, 0
1, 72290, Control_c, 0, 64, 111
1, 72458, Note_on_c, 0, 80, 60
1, 72461, Note_on_c, 0, 78, 0
1, 72478, Note_on_c, 0, 76, 53
1, 72494, Note_on_c, 0, 68, 69
1, 72508, Control_c, 0, 67, 12
1, 72511, Note_on_c, 0, 64, 51
1, 72525, Control_c, 0, 64, 89
1, 72538, Note_on_c, 0, 59, 39
1, 72542, Control_c, 0, 64, 51
1, 72561, Control_c, 0, 64, 0
1, 72583, Note_on_c, 0, 80, 0
1, 72588, Note_on_c, 0, 66, 0
1, 72655, Note_on_c, 0, 79, 64
1, 72672, Control_c, 0, 64, 37
1, 72692, Control_c, 0, 64, 60
1, 72708, Control_c, 0, 64, 75
1, 72728, Control_c, 0, 64, 83
1, 72746, Control_c, 0, 64, 90
1, 72758, Note_on_c, 0, 79, 0
1, 72764, Control_c, 0, 64, 94
1, 72776, Note_on_c, 0, 80, 70
1, 72801, Control_c, 0, 64, 99
1, 72803, Control_c, 0, 67, 17
1, 72838, Control_c, 0, 67, 22
1, 72876, Control_c, 0, 67, 29
1, 72894, Control_c, 0, 67, 34
1, 72903, Note_on_c, 0, 83, 80
1, 72907, Note_on_c, 0, 80, 0
1, 72913, Control_c, 0, 67, 39
1, 72930, Control_c, 0, 67, 44
1, 72948, Control_c, 0, 64, 103
1, 72949, Control_c, 0, 67, 49
1, 72967, Control_c, 0, 67, 56
1, 72987, Control_c, 0, 67, 63
1, 72995, Note_on_c, 0, 64, 0
1, 73003, Control_c, 0, 67, 73
1, 73021, Control_c, 0, 67, 83
1, 73038, Control_c, 0, 67, 92
1, 73039, Note_on_c, 0, 81, 77
1, 73059, Control_c, 0, 67, 99
1, 73064, Note_on_c, 0, 83, 0
1, 73065, Note_on_c, 0, 76, 0
1, 73078, Control_c, 0, 67, 103
1, 73115, Control_c, 0, 67, 111
1, 73134, Control_c, 0, 67, 117
1, 73152, Control_c, 0, 64, 107
1, 73167, Note_on_c, 0, 80, 81
1, 73168, Control_c, 0, 67, 121
1, 73184, Note_on_c, 0, 81, 0
1, 73226, Control_c, 0, 67, 127
1, 73227, Note_on_c, 0, 68, 0
1, 73256, Control_c, 0, 64, 85
1, 73276, Control_c, 0, 64, 41
1, 73294, Control_c, 0, 64, 0
1, 73300, Note_on_c, 0, 80, 0
1, 73305, Note_on_c, 0, 78, 78
1, 73320, Note_on_c, 0, 66, 50
1, 73331, Note_on_c, 0, 63, 45
1, 73332, Note_on_c, 0, 75, 66
1, 73343, Note_on_c, 0, 78, 0
1, 73371, Control_c, 0, 64, 27
1, 73383, Note_on_c, 0, 75, 0
1, 73388, Control_c, 0, 64, 54
1, 73401, Note_on_c, 0, 63, 0
1, 73401, Note_on_c, 0, 66, 0
1, 73405, Control_c, 0, 64, 74
1, 73406, Note_on_c, 0, 59, 0
1, 73424, Control_c, 0, 64, 84
1, 73442, Control_c, 0, 64, 92
1, 73458, Note_on_c, 0, 76, 74
1, 73460, Note_on_c, 0, 73, 72
1, 73478, Control_c, 0, 64, 97
1, 73512, Note_on_c, 0, 73, 0
1, 73573, Control_c, 0, 64, 101
1, 73592, Note_on_c, 0, 71, 75
1, 73595, Note_on_c, 0, 75, 74
1, 73610, Note_on_c, 0, 76, 0
1, 73664, Note_on_c, 0, 71, 0
1, 73691, Note_on_c, 0, 47, 58
1, 73707, Note_on_c, 0, 73, 72
1, 73715, Note_on_c, 0, 75, 0
1, 73716, Control_c, 0, 64, 89
1, 73718, Note_on_c, 0, 69, 76
1, 73737, Control_c, 0, 64, 62
1, 73741, Note_on_c, 0, 73, 0
1, 73755, Control_c, 0, 64, 0
1, 73775, Note_on_c, 0, 69, 0
1, 73824, Note_on_c, 0, 47, 0
1, 73844, Note_on_c, 0, 71, 64
1, 73849, Note_on_c, 0, 49, 55
1, 73852, Note_on_c, 0, 68, 62
1, 73935, Note_on_c, 0, 68, 0
1, 73961, Note_on_c, 0, 49, 0
1, 73975, Note_on_c, 0, 71, 0
1, 73996, Note_on_c, 0, 51, 44
1, 74003, Note_on_c, 0, 69, 55
1, 74015, Note_on_c, 0, 66, 34
1, 74085, Note_on_c, 0, 66, 0
1, 74186, Note_on_c, 0, 69, 0
1, 74207, Note_on_c, 0, 68, 59
1, 74220, Note_on_c, 0, 51, 0
1, 74228, Note_on_c, 0, 56, 71
1, 74231, Note_on_c, 0, 59, 49
1, 74263, Note_on_c, 0, 52, 48
1, 74287, Note_on_c, 0, 68, 0
1, 74395, Note_on_c, 0, 67, 60
1, 74480, Note_on_c, 0, 67, 0
1, 74506, Note_on_c, 0, 68, 58
1, 74561, Control_c, 0, 64, 24
1, 74582, Control_c, 0, 64, 43
1, 74599, Control_c, 0, 64, 57
1, 74610, Note_on_c, 0, 68, 0
1, 74616, Control_c, 0, 64, 63
1, 74630, Note_on_c, 0, 69, 57
1, 74635, Control_c, 0, 64, 64
1, 74672, Control_c, 0, 64, 65
1, 74690, Control_c, 0, 64, 66
1, 74708, Note_on_c, 0, 69, 0
1, 74708, Control_c, 0, 64, 68
1, 74722, Note_on_c, 0, 52, 0
1, 74746, Control_c, 0, 64, 70
1, 74766, Note_on_c, 0, 67, 49
1, 74857, Note_on_c, 0, 67, 0
1, 74868, Note_on_c, 0, 59, 0
1, 74896, Note_on_c, 0, 68, 52
1, 74966, Control_c, 0, 64, 68
1, 74978, Note_on_c, 0, 68, 0
1, 74985, Control_c, 0, 64, 63
1, 75005, Control_c, 0, 64, 54
1, 75024, Control_c, 0, 64, 37
1, 75027, Note_on_c, 0, 54, 66
1, 75040, Control_c, 0, 64, 0
1, 75053, Note_on_c, 0, 57, 47
1, 75079, Note_on_c, 0, 51, 43
1, 75082, Note_on_c, 0, 47, 35
1, 75134, Note_on_c, 0, 56, 0
1, 75182, Note_on_c, 0, 57, 0
1, 75199, Note_on_c, 0, 68, 48
1, 75209, Note_on_c, 0, 47, 0
1, 75223, Control_c, 0, 64, 19
1, 75232, Note_on_c, 0, 51, 0
1, 75241, Control_c, 0, 64, 28
1, 75259, Control_c, 0, 64, 36
1, 75275, Control_c, 0, 64, 46
1, 75295, Control_c, 0, 64, 56
1, 75305, Note_on_c, 0, 68, 0
1, 75313, Control_c, 0, 64, 62
1, 75314, Control_c, 0, 67, 123
1, 75314, Note_on_c, 0, 66, 56
1, 75332, Control_c, 0, 64, 64
1, 75332, Control_c, 0, 67, 113
1, 75349, Control_c, 0, 67, 99
1, 75367, Control_c, 0, 67, 82
1, 75387, Control_c, 0, 67, 63
1, 75405, Control_c, 0, 67, 42
1, 75412, Note_on_c, 0, 66, 0
1, 75425, Control_c, 0, 64, 56
1, 75426, Control_c, 0, 67, 22
1, 75441, Control_c, 0, 64, 32
1, 75453, Note_on_c, 0, 52, 63
1, 75455, Note_on_c, 0, 56, 51
1, 75460, Control_c, 0, 64, 0
1, 75478, Control_c, 0, 67, 0
1, 75485, Note_on_c, 0, 49, 47
1, 75526, Note_on_c, 0, 54, 0
1, 75553, Control_c, 0, 64, 25
1, 75572, Control_c, 0, 64, 46
1, 75580, Note_on_c, 0, 66, 52
1, 75589, Control_c, 0, 64, 63
1, 75607, Control_c, 0, 64, 69
1, 75625, Note_on_c, 0, 49, 0
1, 75625, Control_c, 0, 64, 72
1, 75653, Note_on_c, 0, 56, 0
1, 75702, Note_on_c, 0, 64, 52
1, 75737, Control_c, 0, 64, 74
1, 75738, Note_on_c, 0, 66, 0
1, 75840, Note_on_c, 0, 64, 0
1, 75872, Note_on_c, 0, 54, 48
1, 75902, Control_c, 0, 64, 70
1, 75914, Note_on_c, 0, 51, 59
1, 75921, Control_c, 0, 64, 64
1, 75939, Control_c, 0, 64, 57
1, 75943, Note_on_c, 0, 48, 39
1, 75948, Note_on_c, 0, 44, 38
1, 75960, Control_c, 0, 64, 46
1, 75977, Control_c, 0, 64, 23
1, 75994, Control_c, 0, 64, 0
1, 76036, Note_on_c, 0, 52, 0
1, 76061, Note_on_c, 0, 60, 49
1, 76187, Note_on_c, 0, 60, 0
1, 76205, Note_on_c, 0, 63, 50
1, 76250, Control_c, 0, 64, 19
1, 76268, Control_c, 0, 64, 30
1, 76285, Control_c, 0, 64, 44
1, 76303, Control_c, 0, 64, 59
1, 76309, Note_on_c, 0, 63, 0
1, 76323, Control_c, 0, 64, 67
1, 76337, Note_on_c, 0, 64, 48
1, 76341, Control_c, 0, 64, 71
1, 76378, Control_c, 0, 64, 73
1, 76415, Control_c, 0, 64, 76
1, 76433, Note_on_c, 0, 48, 0
1, 76433, Control_c, 0, 64, 79
1, 76442, Poly_aftertouch_c, 0, 54, 24
1, 76451, Control_c, 0, 64, 83
1, 76470, Control_c, 0, 64, 86
1, 76480, Note_on_c, 0, 60, 45
1, 76498, Note_on_c, 0, 64, 0
1, 76508, Control_c, 0, 64, 88
1, 76538, Poly_aftertouch_c, 0, 44, 24
1, 76546, Note_on_c, 0, 54, 0
1, 76546, Poly_aftertouch_c, 0, 54, 0
1, 76547, Poly_aftertouch_c, 0, 54, 0
1, 76573, Note_on_c, 0, 60, 0
1, 76578, Note_on_c, 0, 44, 0
1, 76578, Poly_aftertouch_c, 0, 44, 0
1, 76579, Poly_aftertouch_c, 0, 44, 0
1, 76604, Note_on_c, 0, 63, 45
1, 76685, Note_on_c, 0, 63, 0
1, 76765, Note_on_c, 0, 52, 45
1, 76765, Note_on_c, 0, 49, 48
1, 76788, Note_on_c, 0, 45, 35
1, 76820, Control_c, 0, 64, 81
1, 76833, Note_on_c, 0, 51, 0
1, 76838, Control_c, 0, 64, 71
1, 76857, Control_c, 0, 64, 54
1, 76876, Control_c, 0, 64, 28
1, 76895, Control_c, 0, 64, 0
1, 76920, Note_on_c, 0, 57, 35
1, 77072, Note_on_c, 0, 61, 47
1, 77112, Control_c, 0, 64, 13
1, 77114, Note_on_c, 0, 57, 0
1, 77130, Control_c, 0, 64, 35
1, 77146, Poly_aftertouch_c, 0, 52, 20
1, 77146, Control_c, 0, 64, 55
1, 77166, Control_c, 0, 64, 68
1, 77176, Note_on_c, 0, 61, 0
1, 77183, Control_c, 0, 64, 72
1, 77187, Note_on_c, 0, 52, 0
1, 77187, Poly_aftertouch_c, 0, 52, 0
1, 77204, Control_c, 0, 64, 74
1, 77220, Note_on_c, 0, 49, 0
1, 77220, Note_on_c, 0, 63, 39
1, 77239, Control_c, 0, 64, 79
1, 77243, Note_on_c, 0, 45, 0
1, 77259, Control_c, 0, 64, 83
1, 77277, Control_c, 0, 64, 89
1, 77296, Control_c, 0, 64, 93
1, 77332, Control_c, 0, 64, 97
1, 77345, Note_on_c, 0, 57, 42
1, 77407, Control_c, 0, 64, 101
1, 77461, Note_on_c, 0, 63, 0
1, 77478, Note_on_c, 0, 61, 44
1, 77580, Note_on_c, 0, 57, 0
1, 77719, Note_on_c, 0, 47, 44
1, 77729, Note_on_c, 0, 35, 36
1, 77740, Note_on_c, 0, 52, 42
1, 77764, Note_on_c, 0, 61, 0
1, 77774, Control_c, 0, 64, 85
1, 77794, Control_c, 0, 64, 55
1, 77813, Control_c, 0, 64, 0
1, 77904, Control_c, 0, 64, 20
1, 77935, Control_c, 0, 64, 44
1, 77948, Note_on_c, 0, 56, 36
1, 77954, Control_c, 0, 64, 65
1, 77955, Note_on_c, 0, 52, 0
1, 77973, Control_c, 0, 64, 74
1, 77993, Control_c, 0, 64, 79
1, 78009, Control_c, 0, 64, 82
1, 78027, Control_c, 0, 64, 85
1, 78065, Control_c, 0, 64, 90
1, 78097, Note_on_c, 0, 59, 47
1, 78140, Note_on_c, 0, 56, 0
1, 78158, Control_c, 0, 64, 94
1, 78249, Control_c, 0, 64, 89
1, 78261, Note_on_c, 0, 59, 0
1, 78263, Note_on_c, 0, 54, 49
1, 78269, Control_c, 0, 64, 71
1, 78286, Control_c, 0, 64, 39
1, 78304, Control_c, 0, 64, 0
1, 78361, Control_c, 0, 64, 10
1, 78379, Control_c, 0, 64, 39
1, 78397, Control_c, 0, 64, 61
1, 78404, Note_on_c, 0, 54, 0
1, 78406, Note_on_c, 0, 57, 53
1, 78416, Control_c, 0, 64, 72
1, 78433, Control_c, 0, 64, 77
1, 78490, Control_c, 0, 64, 79
1, 78542, Note_on_c, 0, 59, 59
1, 78563, Control_c, 0, 64, 81
1, 78569, Note_on_c, 0, 57, 0
1, 78663, Note_on_c, 0, 54, 60
1, 78674, Control_c, 0, 64, 83
1, 78675, Note_on_c, 0, 59, 0
1, 78729, Control_c, 0, 64, 85
1, 78768, Control_c, 0, 64, 80
1, 78784, Control_c, 0, 64, 68
1, 78798, Note_on_c, 0, 57, 70
1, 78803, Control_c, 0, 64, 49
1, 78821, Control_c, 0, 64, 33
1, 78849, Note_on_c, 0, 54, 0
1, 78890, Control_c, 0, 64, 43
1, 78909, Control_c, 0, 64, 59
1, 78927, Control_c, 0, 64, 69
1, 78940, Note_on_c, 0, 61, 75
1, 78945, Control_c, 0, 64, 74
1, 78965, Control_c, 0, 64, 76
1, 78985, Control_c, 0, 64, 78
1, 78999, Note_on_c, 0, 57, 0
1, 79003, Poly_aftertouch_c, 0, 37, 0
1, 79018, Control_c, 0, 64, 80
1, 79022, Poly_aftertouch_c, 0, 47, 24
1, 79058, Control_c, 0, 64, 83
1, 79075, Note_on_c, 0, 54, 68
1, 79078, Note_on_c, 0, 35, 0
1, 79085, Note_on_c, 0, 47, 0
1, 79085, Poly_aftertouch_c, 0, 47, 0
1, 79097, Note_on_c, 0, 61, 0
1, 79111, Control_c, 0, 64, 85
1, 79207, Note_on_c, 0, 57, 70
1, 79208, Note_on_c, 0, 54, 0
1, 79239, Control_c, 0, 64, 87
1, 79344, Note_on_c, 0, 63, 78
1, 79368, Note_on_c, 0, 57, 0
1, 79480, Control_c, 0, 64, 91
1, 79514, Note_on_c, 0, 63, 0
1, 79546, Note_on_c, 0, 64, 65
1, 79547, Note_on_c, 0, 56, 61
1, 79554, Control_c, 0, 64, 83
1, 79572, Note_on_c, 0, 52, 51
1, 79572, Control_c, 0, 64, 63
1, 79576, Note_on_c, 0, 40, 54
1, 79609, Control_c, 0, 64, 0
1, 79651, Note_on_c, 0, 56, 0
1, 79684, Control_c, 0, 64, 13
1, 79703, Control_c, 0, 64, 42
1, 79720, Control_c, 0, 64, 65
1, 79735, Note_on_c, 0, 59, 67
1, 79738, Control_c, 0, 64, 76
1, 79756, Note_on_c, 0, 64, 0
1, 79758, Control_c, 0, 64, 86
1, 79776, Control_c, 0, 64, 93
1, 79807, Control_c, 0, 64, 97
1, 79845, Control_c, 0, 64, 102
1, 79873, Note_on_c, 0, 56, 74
1, 79881, Control_c, 0, 64, 107
1, 79888, Note_on_c, 0, 59, 0
1, 79912, Note_on_c, 0, 52, 0
1, 79939, Control_c, 0, 64, 112
1, 79970, Note_on_c, 0, 56, 0
1, 80010, Note_on_c, 0, 59, 73
1, 80011, Control_c, 0, 64, 116
1, 80041, Note_on_c, 0, 47, 66
1, 80084, Control_c, 0, 64, 110
1, 80103, Control_c, 0, 64, 96
1, 80120, Control_c, 0, 64, 68
1, 80137, Note_on_c, 0, 64, 61
1, 80139, Note_on_c, 0, 40, 0
1, 80139, Control_c, 0, 64, 0
1, 80262, Note_on_c, 0, 68, 72
1, 80267, Note_on_c, 0, 64, 0
1, 80403, Note_on_c, 0, 66, 76
1, 80458, Note_on_c, 0, 68, 0
1, 80472, Control_c, 0, 64, 27
1, 80490, Control_c, 0, 64, 49
1, 80509, Control_c, 0, 64, 62
1, 80525, Note_on_c, 0, 63, 71
1, 80525, Control_c, 0, 64, 69
1, 80545, Control_c, 0, 64, 73
1, 80551, Note_on_c, 0, 66, 0
1, 80553, Note_on_c, 0, 59, 0
1, 80564, Control_c, 0, 64, 76
1, 80567, Note_on_c, 0, 47, 0
1, 80582, Control_c, 0, 64, 79
1, 80600, Control_c, 0, 64, 83
1, 80620, Control_c, 0, 64, 87
1, 80641, Note_on_c, 0, 63, 0
1, 80655, Control_c, 0, 64, 91
1, 80655, Note_on_c, 0, 59, 73
1, 80790, Note_on_c, 0, 47, 71
1, 80807, Note_on_c, 0, 63, 75
1, 80817, Control_c, 0, 64, 86
1, 80836, Control_c, 0, 64, 72
1, 80856, Control_c, 0, 64, 46
1, 80874, Control_c, 0, 64, 0
1, 80931, Note_on_c, 0, 66, 76
1, 80955, Note_on_c, 0, 63, 0
1, 81057, Note_on_c, 0, 66, 0
1, 81066, Note_on_c, 0, 69, 75
1, 81190, Note_on_c, 0, 68, 80
1, 81199, Note_on_c, 0, 69, 0
1, 81222, Control_c, 0, 64, 21
1, 81240, Control_c, 0, 64, 50
1, 81260, Control_c, 0, 64, 67
1, 81276, Control_c, 0, 64, 72
1, 81295, Control_c, 0, 64, 76
1, 81313, Control_c, 0, 64, 79
1, 81321, Note_on_c, 0, 64, 74
1, 81332, Control_c, 0, 64, 83
1, 81339, Note_on_c, 0, 59, 0
1, 81347, Note_on_c, 0, 47, 0
1, 81351, Control_c, 0, 64, 88
1, 81355, Note_on_c, 0, 68, 0
1, 81388, Control_c, 0, 64, 93
1, 81432, Note_on_c, 0, 64, 0
1, 81454, Note_on_c, 0, 59, 77
1, 81481, Control_c, 0, 64, 98
1, 81580, Note_on_c, 0, 47, 72
1, 81581, Note_on_c, 0, 64, 71
1, 81610, Control_c, 0, 64, 83
1, 81628, Control_c, 0, 64, 60
1, 81647, Control_c, 0, 64, 0
1, 81711, Note_on_c, 0, 68, 75
1, 81737, Note_on_c, 0, 64, 0
1, 81837, Note_on_c, 0, 71, 80
1, 81862, Note_on_c, 0, 68, 0
1, 81866, Note_on_c, 0, 59, 0
1, 81971, Note_on_c, 0, 69, 78
1, 81973, Control_c, 0, 64, 33
1, 81990, Control_c, 0, 64, 59
1, 81993, Note_on_c, 0, 71, 0
1, 82009, Control_c, 0, 64, 71
1, 82029, Control_c, 0, 64, 77
1, 82046, Control_c, 0, 64, 80
1, 82066, Control_c, 0, 64, 84
1, 82084, Control_c, 0, 64, 89
1, 82091, Note_on_c, 0, 69, 0
1, 82095, Note_on_c, 0, 47, 0
1, 82098, Note_on_c, 0, 66, 77
1, 82123, Control_c, 0, 64, 95
1, 82158, Control_c, 0, 64, 100
1, 82178, Note_on_c, 0, 66, 0
1, 82212, Control_c, 0, 64, 105
1, 82222, Note_on_c, 0, 63, 79
1, 82323, Control_c, 0, 64, 99
1, 82342, Control_c, 0, 64, 77
1, 82347, Note_on_c, 0, 47, 70
1, 82353, Note_on_c, 0, 75, 83
1, 82360, Control_c, 0, 64, 33
1, 82380, Control_c, 0, 64, 0
1, 82403, Note_on_c, 0, 63, 0
1, 82451, Control_c, 0, 64, 37
1, 82470, Control_c, 0, 64, 63
1, 82489, Control_c, 0, 64, 78
1, 82498, Note_on_c, 0, 69, 68
1, 82502, Note_on_c, 0, 47, 0
1, 82508, Control_c, 0, 64, 88
1, 82527, Control_c, 0, 64, 96
1, 82545, Control_c, 0, 64, 100
1, 82615, Control_c, 0, 64, 105
1, 82618, Note_on_c, 0, 69, 0
1, 82629, Note_on_c, 0, 66, 68
1, 82657, Note_on_c, 0, 75, 0
1, 82670, Control_c, 0, 64, 110
1, 82714, Note_on_c, 0, 66, 0
1, 82745, Control_c, 0, 64, 100
1, 82761, Note_on_c, 0, 52, 60
1, 82764, Control_c, 0, 64, 77
1, 82764, Note_on_c, 0, 76, 80
1, 82777, Note_on_c, 0, 68, 62
1, 82781, Control_c, 0, 64, 43
1, 82837, Control_c, 0, 64, 22
1, 82854, Control_c, 0, 64, 47
1, 82872, Note_on_c, 0, 68, 0
1, 82872, Control_c, 0, 64, 68
1, 82891, Control_c, 0, 64, 80
1, 82893, Note_on_c, 0, 47, 60
1, 82894, Note_on_c, 0, 76, 0
1, 82911, Control_c, 0, 64, 90
1, 82928, Control_c, 0, 64, 94
1, 82936, Note_on_c, 0, 52, 0
1, 83004, Note_on_c, 0, 47, 0
1, 83016, Note_on_c, 0, 44, 63
1, 83020, Control_c, 0, 64, 98
1, 83148, Control_c, 0, 64, 92
1, 83167, Control_c, 0, 64, 73
1, 83171, Note_on_c, 0, 71, 82
1, 83182, Note_on_c, 0, 47, 52
1, 83185, Control_c, 0, 64, 44
1, 83204, Control_c, 0, 64, 16
1, 83235, Note_on_c, 0, 44, 0
1, 83242, Control_c, 0, 64, 21
1, 83260, Control_c, 0, 64, 40
1, 83279, Control_c, 0, 64, 59
1, 83284, Note_on_c, 0, 47, 0
1, 83297, Control_c, 0, 64, 71
1, 83315, Control_c, 0, 64, 76
1, 83316, Note_on_c, 0, 52, 60
1, 83333, Control_c, 0, 64, 78
1, 83371, Control_c, 0, 64, 80
1, 83409, Control_c, 0, 64, 83
1, 83427, Control_c, 0, 64, 85
1, 83437, Note_on_c, 0, 56, 71
1, 83440, Note_on_c, 0, 52, 0
1, 83500, Control_c, 0, 64, 76
1, 83519, Control_c, 0, 64, 54
1, 83551, Control_c, 0, 64, 0
1, 83576, Note_on_c, 0, 56, 0
1, 83583, Note_on_c, 0, 54, 71
1, 83643, Control_c, 0, 64, 13
1, 83663, Control_c, 0, 64, 43
1, 83683, Control_c, 0, 64, 63
1, 83700, Control_c, 0, 64, 71
1, 83704, Note_on_c, 0, 54, 0
1, 83706, Note_on_c, 0, 51, 69
1, 83717, Control_c, 0, 64, 74
1, 83732, Note_on_c, 0, 71, 0
1, 83773, Control_c, 0, 64, 77
1, 83791, Control_c, 0, 64, 79
1, 83809, Control_c, 0, 64, 82
1, 83827, Control_c, 0, 64, 85
1, 83830, Note_on_c, 0, 47, 70
1, 83834, Note_on_c, 0, 51, 0
1, 83865, Control_c, 0, 64, 90
1, 83957, Control_c, 0, 64, 88
1, 83975, Note_on_c, 0, 71, 80
1, 83975, Control_c, 0, 64, 71
1, 83980, Note_on_c, 0, 51, 68
1, 83995, Control_c, 0, 64, 36
1, 84011, Control_c, 0, 64, 0
1, 84083, Control_c, 0, 64, 20
1, 84084, Note_on_c, 0, 54, 60
1, 84103, Control_c, 0, 64, 44
1, 84121, Control_c, 0, 64, 63
1, 84136, Note_on_c, 0, 51, 0
1, 84139, Control_c, 0, 64, 71
1, 84159, Control_c, 0, 64, 73
1, 84161, Note_on_c, 0, 47, 0
1, 84196, Control_c, 0, 64, 76
1, 84209, Note_on_c, 0, 54, 0
1, 84211, Note_on_c, 0, 57, 68
1, 84213, Control_c, 0, 64, 78
1, 84250, Control_c, 0, 64, 81
1, 84287, Control_c, 0, 64, 67
1, 84307, Control_c, 0, 64, 32
1, 84323, Control_c, 0, 64, 0
1, 84349, Note_on_c, 0, 56, 67
1, 84350, Note_on_c, 0, 57, 0
1, 84398, Control_c, 0, 64, 20
1, 84417, Control_c, 0, 64, 47
1, 84435, Control_c, 0, 64, 66
1, 84456, Control_c, 0, 64, 72
1, 84487, Control_c, 0, 64, 75
1, 84490, Note_on_c, 0, 52, 66
1, 84511, Note_on_c, 0, 71, 0
1, 84513, Note_on_c, 0, 56, 0
1, 84524, Control_c, 0, 64, 77
1, 84560, Control_c, 0, 64, 82
1, 84577, Control_c, 0, 64, 87
1, 84597, Control_c, 0, 64, 91
1, 84619, Note_on_c, 0, 52, 0
1, 84626, Note_on_c, 0, 47, 69
1, 84634, Control_c, 0, 64, 97
1, 84709, Control_c, 0, 64, 91
1, 84725, Control_c, 0, 64, 75
1, 84745, Control_c, 0, 64, 51
1, 84753, Note_on_c, 0, 71, 80
1, 84763, Control_c, 0, 64, 31
1, 84765, Note_on_c, 0, 52, 65
1, 84767, Note_on_c, 0, 47, 0
1, 84817, Control_c, 0, 64, 45
1, 84837, Control_c, 0, 64, 61
1, 84854, Control_c, 0, 64, 69
1, 84874, Control_c, 0, 64, 72
1, 84884, Note_on_c, 0, 56, 66
1, 84902, Note_on_c, 0, 52, 0
1, 84910, Control_c, 0, 64, 75
1, 84930, Control_c, 0, 64, 77
1, 84946, Control_c, 0, 64, 79
1, 84966, Control_c, 0, 64, 83
1, 84984, Control_c, 0, 64, 87
1, 84987, Note_on_c, 0, 56, 0
1, 85006, Note_on_c, 0, 59, 59
1, 85076, Control_c, 0, 64, 77
1, 85094, Control_c, 0, 64, 53
1, 85113, Control_c, 0, 64, 0
1, 85121, Note_on_c, 0, 59, 0
1, 85128, Note_on_c, 0, 57, 62
1, 85187, Control_c, 0, 64, 30
1, 85204, Control_c, 0, 64, 52
1, 85224, Control_c, 0, 64, 70
1, 85240, Note_on_c, 0, 54, 65
1, 85241, Control_c, 0, 64, 77
1, 85244, Note_on_c, 0, 57, 0
1, 85247, Note_on_c, 0, 71, 0
1, 85259, Control_c, 0, 64, 83
1, 85297, Control_c, 0, 64, 86
1, 85334, Control_c, 0, 64, 91
1, 85364, Note_on_c, 0, 51, 57
1, 85370, Note_on_c, 0, 54, 0
1, 85370, Control_c, 0, 64, 95
1, 85440, Control_c, 0, 64, 99
1, 85513, Control_c, 0, 64, 94
1, 85525, Note_on_c, 0, 71, 68
1, 85532, Control_c, 0, 64, 81
1, 85537, Note_on_c, 0, 63, 54
1, 85551, Control_c, 0, 64, 60
1, 85570, Control_c, 0, 64, 41
1, 85626, Control_c, 0, 64, 50
1, 85644, Note_on_c, 0, 63, 0
1, 85645, Control_c, 0, 64, 64
1, 85661, Control_c, 0, 64, 72
1, 85669, Note_on_c, 0, 51, 0
1, 85669, Note_on_c, 0, 57, 51
1, 85678, Note_on_c, 0, 71, 0
1, 85679, Control_c, 0, 64, 78
1, 85698, Control_c, 0, 64, 81
1, 85734, Control_c, 0, 64, 85
1, 85753, Control_c, 0, 64, 87
1, 85766, Note_on_c, 0, 57, 0
1, 85797, Note_on_c, 0, 54, 49
1, 85847, Control_c, 0, 64, 91
1, 85926, Note_on_c, 0, 54, 0
1, 86003, Note_on_c, 0, 76, 55
1, 86011, Control_c, 0, 64, 76
1, 86022, Note_on_c, 0, 56, 44
1, 86030, Control_c, 0, 64, 58
1, 86051, Control_c, 0, 64, 43
1, 86067, Control_c, 0, 64, 41
1, 86105, Control_c, 0, 64, 48
1, 86122, Control_c, 0, 64, 61
1, 86134, Note_on_c, 0, 56, 0
1, 86140, Control_c, 0, 64, 70
1, 86148, Note_on_c, 0, 59, 45
1, 86153, Note_on_c, 0, 76, 0
1, 86158, Control_c, 0, 64, 76
1, 86164, Note_on_c, 0, 71, 55
1, 86178, Control_c, 0, 64, 80
1, 86195, Control_c, 0, 64, 82
1, 86231, Control_c, 0, 64, 85
1, 86238, Note_on_c, 0, 59, 0
1, 86269, Control_c, 0, 64, 87
1, 86281, Note_on_c, 0, 71, 0
1, 86290, Note_on_c, 0, 68, 58
1, 86296, Note_on_c, 0, 64, 47
1, 86382, Note_on_c, 0, 68, 0
1, 86426, Note_on_c, 0, 64, 0
1, 86428, Note_on_c, 0, 71, 70
1, 86440, Note_on_c, 0, 59, 49
1, 86517, Note_on_c, 0, 59, 0
1, 86538, Note_on_c, 0, 56, 56
1, 86544, Note_on_c, 0, 76, 72
1, 86628, Note_on_c, 0, 56, 0
1, 86660, Note_on_c, 0, 76, 0
1, 86660, Note_on_c, 0, 52, 49
1, 86663, Note_on_c, 0, 80, 74
1, 86669, Control_c, 0, 64, 92
1, 86695, Poly_aftertouch_c, 0, 71, 22
1, 86748, Note_on_c, 0, 71, 0
1, 86748, Poly_aftertouch_c, 0, 71, 0
1, 86763, Control_c, 0, 64, 74
1, 86782, Control_c, 0, 64, 53
1, 86797, Note_on_c, 0, 51, 59
1, 86800, Note_on_c, 0, 78, 78
1, 86800, Control_c, 0, 64, 30
1, 86803, Note_on_c, 0, 52, 0
1, 86818, Control_c, 0, 64, 25
1, 86874, Control_c, 0, 64, 41
1, 86881, Note_on_c, 0, 80, 0
1, 86892, Control_c, 0, 64, 58
1, 86909, Control_c, 0, 64, 69
1, 86914, Note_on_c, 0, 51, 0
1, 86917, Note_on_c, 0, 54, 57
1, 86922, Note_on_c, 0, 75, 73
1, 86927, Control_c, 0, 64, 73
1, 86965, Control_c, 0, 64, 75
1, 86971, Note_on_c, 0, 78, 0
1, 87003, Control_c, 0, 64, 77
1, 87009, Note_on_c, 0, 54, 0
1, 87033, Note_on_c, 0, 75, 0
1, 87039, Control_c, 0, 64, 79
1, 87043, Note_on_c, 0, 71, 75
1, 87054, Note_on_c, 0, 57, 51
1, 87160, Note_on_c, 0, 57, 0
1, 87164, Note_on_c, 0, 75, 78
1, 87167, Note_on_c, 0, 54, 57
1, 87262, Control_c, 0, 64, 81
1, 87292, Note_on_c, 0, 54, 0
1, 87303, Note_on_c, 0, 78, 83
1, 87317, Note_on_c, 0, 75, 0
1, 87321, Note_on_c, 0, 51, 53
1, 87350, Control_c, 0, 64, 84
1, 87396, Note_on_c, 0, 51, 0
1, 87423, Note_on_c, 0, 47, 53
1, 87431, Note_on_c, 0, 81, 80
1, 87438, Note_on_c, 0, 78, 0
1, 87461, Control_c, 0, 64, 79
1, 87478, Control_c, 0, 64, 63
1, 87497, Control_c, 0, 64, 36
1, 87515, Control_c, 0, 64, 0
1, 87524, Note_on_c, 0, 71, 0
1, 87556, Note_on_c, 0, 80, 80
1, 87571, Note_on_c, 0, 52, 54
1, 87588, Control_c, 0, 64, 11
1, 87599, Note_on_c, 0, 81, 0
1, 87605, Control_c, 0, 64, 35
1, 87624, Control_c, 0, 64, 54
1, 87644, Control_c, 0, 64, 66
1, 87662, Control_c, 0, 64, 69
1, 87681, Note_on_c, 0, 76, 73
1, 87700, Note_on_c, 0, 56, 64
1, 87702, Note_on_c, 0, 52, 0
1, 87727, Note_on_c, 0, 80, 0
1, 87735, Control_c, 0, 64, 73
1, 87753, Control_c, 0, 64, 75
1, 87778, Note_on_c, 0, 56, 0
1, 87791, Control_c, 0, 64, 77
1, 87796, Note_on_c, 0, 76, 0
1, 87807, Note_on_c, 0, 47, 0
1, 87807, Note_on_c, 0, 71, 72
1, 87807, Note_on_c, 0, 59, 57
1, 87865, Control_c, 0, 64, 79
1, 87919, Control_c, 0, 64, 81
1, 87922, Note_on_c, 0, 59, 0
1, 87924, Note_on_c, 0, 56, 62
1, 87930, Note_on_c, 0, 76, 80
1, 88012, Control_c, 0, 64, 83
1, 88019, Note_on_c, 0, 56, 0
1, 88031, Note_on_c, 0, 52, 55
1, 88042, Note_on_c, 0, 71, 0
1, 88049, Control_c, 0, 64, 85
1, 88052, Note_on_c, 0, 80, 84
1, 88079, Note_on_c, 0, 76, 0
1, 88085, Control_c, 0, 64, 89
1, 88135, Note_on_c, 0, 52, 0
1, 88140, Control_c, 0, 64, 93
1, 88160, Note_on_c, 0, 47, 60
1, 88179, Note_on_c, 0, 83, 85
1, 88200, Note_on_c, 0, 80, 0
1, 88229, Control_c, 0, 64, 79
1, 88247, Control_c, 0, 64, 62
1, 88266, Control_c, 0, 64, 44
1, 88285, Control_c, 0, 64, 39
1, 88292, Note_on_c, 0, 47, 0
1, 88319, Note_on_c, 0, 54, 60
1, 88319, Control_c, 0, 64, 43
1, 88322, Note_on_c, 0, 81, 80
1, 88339, Control_c, 0, 64, 56
1, 88358, Control_c, 0, 64, 66
1, 88360, Note_on_c, 0, 83, 0
1, 88377, Control_c, 0, 64, 72
1, 88395, Control_c, 0, 64, 76
1, 88415, Control_c, 0, 64, 79
1, 88433, Control_c, 0, 64, 81
1, 88447, Note_on_c, 0, 81, 0
1, 88447, Note_on_c, 0, 57, 61
1, 88450, Note_on_c, 0, 78, 83
1, 88451, Control_c, 0, 64, 83
1, 88453, Note_on_c, 0, 54, 0
1, 88468, Control_c, 0, 64, 86
1, 88498, Note_on_c, 0, 57, 0
1, 88506, Control_c, 0, 64, 93
1, 88519, Note_on_c, 0, 78, 0
1, 88541, Control_c, 0, 64, 98
1, 88550, Note_on_c, 0, 59, 60
1, 88564, Note_on_c, 0, 75, 75
1, 88626, Note_on_c, 0, 59, 0
1, 88633, Control_c, 0, 64, 93
1, 88655, Control_c, 0, 64, 78
1, 88672, Control_c, 0, 64, 58
1, 88688, Control_c, 0, 64, 47
1, 88693, Note_on_c, 0, 87, 91
1, 88697, Note_on_c, 0, 57, 53
1, 88727, Control_c, 0, 64, 51
1, 88728, Note_on_c, 0, 75, 0
1, 88744, Control_c, 0, 64, 61
1, 88762, Control_c, 0, 64, 69
1, 88780, Control_c, 0, 64, 75
1, 88800, Control_c, 0, 64, 79
1, 88811, Note_on_c, 0, 59, 43
1, 88812, Note_on_c, 0, 83, 78
1, 88813, Note_on_c, 0, 57, 0
1, 88818, Control_c, 0, 64, 83
1, 88838, Control_c, 0, 64, 85
1, 88874, Control_c, 0, 64, 92
1, 88891, Note_on_c, 0, 87, 0
1, 88893, Note_on_c, 0, 59, 0
1, 88912, Control_c, 0, 64, 98
1, 88930, Note_on_c, 0, 66, 59
1, 88934, Note_on_c, 0, 78, 78
1, 88946, Note_on_c, 0, 83, 0
1, 88984, Control_c, 0, 64, 102
1, 89017, Note_on_c, 0, 66, 0
1, 89020, Control_c, 0, 64, 97
1, 89027, Note_on_c, 0, 78, 0
1, 89038, Control_c, 0, 64, 83
1, 89058, Control_c, 0, 64, 61
1, 89065, Note_on_c, 0, 56, 50
1, 89072, Note_on_c, 0, 88, 88
1, 89077, Control_c, 0, 64, 44
1, 89096, Control_c, 0, 64, 42
1, 89132, Control_c, 0, 64, 52
1, 89164, Control_c, 0, 64, 65
1, 89183, Note_on_c, 0, 56, 0
1, 89183, Control_c, 0, 64, 73
1, 89185, Note_on_c, 0, 59, 54
1, 89202, Control_c, 0, 64, 79
1, 89211, Note_on_c, 0, 83, 82
1, 89220, Control_c, 0, 64, 83
1, 89238, Control_c, 0, 64, 85
1, 89247, Note_on_c, 0, 88, 0
1, 89255, Control_c, 0, 64, 87
1, 89286, Note_on_c, 0, 59, 0
1, 89293, Control_c, 0, 64, 91
1, 89334, Note_on_c, 0, 80, 80
1, 89335, Note_on_c, 0, 64, 51
1, 89336, Note_on_c, 0, 83, 0
1, 89349, Control_c, 0, 64, 95
1, 89404, Note_on_c, 0, 64, 0
1, 89404, Control_c, 0, 64, 99
1, 89455, Note_on_c, 0, 83, 89
1, 89467, Note_on_c, 0, 80, 0
1, 89469, Note_on_c, 0, 52, 54
1, 89477, Control_c, 0, 64, 84
1, 89496, Control_c, 0, 64, 66
1, 89514, Control_c, 0, 64, 47
1, 89533, Control_c, 0, 64, 45
1, 89571, Control_c, 0, 64, 55
1, 89582, Note_on_c, 0, 80, 76
1, 89583, Note_on_c, 0, 56, 51
1, 89585, Note_on_c, 0, 52, 0
1, 89590, Control_c, 0, 64, 67
1, 89608, Control_c, 0, 64, 75
1, 89624, Control_c, 0, 64, 81
1, 89633, Note_on_c, 0, 83, 0
1, 89644, Control_c, 0, 64, 86
1, 89673, Note_on_c, 0, 56, 0
1, 89680, Control_c, 0, 64, 93
1, 89699, Note_on_c, 0, 80, 0
1, 89705, Note_on_c, 0, 76, 63
1, 89709, Note_on_c, 0, 59, 47
1, 89716, Control_c, 0, 64, 98
1, 89810, Control_c, 0, 64, 79
1, 89814, Note_on_c, 0, 59, 0
1, 89821, Note_on_c, 0, 76, 0
1, 89828, Control_c, 0, 64, 57
1, 89847, Control_c, 0, 64, 42
1, 89849, Note_on_c, 0, 54, 49
1, 89850, Note_on_c, 0, 81, 70
1, 89883, Control_c, 0, 64, 45
1, 89902, Control_c, 0, 64, 58
1, 89920, Control_c, 0, 64, 69
1, 89936, Control_c, 0, 64, 78
1, 89950, Note_on_c, 0, 81, 0
1, 89954, Note_on_c, 0, 54, 0
1, 89955, Control_c, 0, 64, 85
1, 89960, Note_on_c, 0, 57, 54
1, 89964, Note_on_c, 0, 78, 69
1, 89975, Control_c, 0, 64, 91
1, 89993, Control_c, 0, 64, 96
1, 90013, Control_c, 0, 64, 100
1, 90018, Note_on_c, 0, 57, 0
1, 90046, Note_on_c, 0, 78, 0
1, 90049, Control_c, 0, 64, 105
1, 90098, Note_on_c, 0, 59, 46
1, 90099, Control_c, 0, 64, 109
1, 90110, Note_on_c, 0, 75, 62
1, 90179, Note_on_c, 0, 59, 0
1, 90210, Control_c, 0, 64, 89
1, 90220, Note_on_c, 0, 75, 0
1, 90229, Control_c, 0, 64, 64
1, 90242, Note_on_c, 0, 87, 71
1, 90248, Control_c, 0, 64, 43
1, 90260, Note_on_c, 0, 57, 43
1, 90266, Control_c, 0, 64, 41
1, 90267, Control_c, 0, 67, 9
1, 90284, Control_c, 0, 64, 44
1, 90304, Control_c, 0, 64, 57
1, 90305, Control_c, 0, 67, 17
1, 90322, Control_c, 0, 64, 70
1, 90324, Control_c, 0, 67, 25
1, 90340, Control_c, 0, 64, 79
1, 90342, Control_c, 0, 67, 35
1, 90353, Note_on_c, 0, 83, 53
1, 90358, Note_on_c, 0, 57, 0
1, 90359, Control_c, 0, 64, 86
1, 90362, Control_c, 0, 67, 48
1, 90374, Note_on_c, 0, 59, 43
1, 90377, Control_c, 0, 64, 91
1, 90379, Control_c, 0, 67, 67
1, 90396, Control_c, 0, 67, 89
1, 90412, Control_c, 0, 64, 98
1, 90413, Control_c, 0, 67, 110
1, 90429, Note_on_c, 0, 87, 0
1, 90431, Control_c, 0, 67, 123
1, 90449, Control_c, 0, 64, 104
1, 90468, Note_on_c, 0, 59, 0
1, 90469, Control_c, 0, 67, 127
1, 90472, Note_on_c, 0, 83, 0
1, 90490, Note_on_c, 0, 78, 56
1, 90503, Note_on_c, 0, 66, 41
1, 90506, Control_c, 0, 64, 108
1, 90568, Note_on_c, 0, 78, 0
1, 90579, Note_on_c, 0, 66, 0
1, 90616, Control_c, 0, 64, 100
1, 90629, Note_on_c, 0, 56, 43
1, 90632, Control_c, 0, 64, 79
1, 90638, Note_on_c, 0, 88, 64
1, 90652, Control_c, 0, 64, 53
1, 90670, Control_c, 0, 64, 34
1, 90727, Control_c, 0, 64, 47
1, 90730, Note_on_c, 0, 56, 0
1, 90745, Control_c, 0, 64, 64
1, 90751, Note_on_c, 0, 59, 42
1, 90752, Note_on_c, 0, 83, 58
1, 90763, Note_on_c, 0, 88, 0
1, 90763, Control_c, 0, 64, 74
1, 90783, Control_c, 0, 64, 81
1, 90800, Control_c, 0, 64, 85
1, 90845, Note_on_c, 0, 59, 0
1, 90849, Note_on_c, 0, 83, 0
1, 90854, Control_c, 0, 64, 92
1, 90878, Note_on_c, 0, 80, 51
1, 90891, Control_c, 0, 64, 99
1, 90907, Note_on_c, 0, 64, 39
1, 90948, Control_c, 0, 64, 103
1, 90988, Note_on_c, 0, 64, 0
1, 91009, Note_on_c, 0, 83, 64
1, 91045, Note_on_c, 0, 80, 0
1, 91054, Control_c, 0, 64, 93
1, 91054, Note_on_c, 0, 52, 47
1, 91073, Control_c, 0, 64, 75
1, 91092, Control_c, 0, 64, 53
1, 91111, Control_c, 0, 64, 44
1, 91139, Note_on_c, 0, 52, 0
1, 91144, Control_c, 0, 64, 48
1, 91150, Note_on_c, 0, 83, 0
1, 91164, Control_c, 0, 64, 60
1, 91169, Note_on_c, 0, 80, 53
1, 91171, Note_on_c, 0, 56, 37
1, 91184, Control_c, 0, 64, 68
1, 91201, Control_c, 0, 64, 73
1, 91221, Control_c, 0, 64, 77
1, 91239, Control_c, 0, 64, 80
1, 91247, Note_on_c, 0, 80, 0
1, 91255, Note_on_c, 0, 56, 0
1, 91258, Control_c, 0, 64, 83
1, 91275, Control_c, 0, 64, 86
1, 91294, Note_on_c, 0, 76, 34
1, 91294, Control_c, 0, 64, 91
1, 91299, Note_on_c, 0, 59, 42
1, 91312, Control_c, 0, 64, 97
1, 91331, Control_c, 0, 64, 101
1, 91375, Note_on_c, 0, 76, 0
1, 91385, Control_c, 0, 64, 97
1, 91386, Note_on_c, 0, 59, 0
1, 91404, Control_c, 0, 64, 83
1, 91413, Note_on_c, 0, 81, 54
1, 91423, Control_c, 0, 64, 63
1, 91437, Note_on_c, 0, 54, 36
1, 91442, Control_c, 0, 64, 50
1, 91479, Control_c, 0, 64, 57
1, 91496, Control_c, 0, 64, 67
1, 91505, Note_on_c, 0, 81, 0
1, 91513, Control_c, 0, 64, 74
1, 91524, Note_on_c, 0, 54, 0
1, 91533, Control_c, 0, 64, 82
1, 91541, Note_on_c, 0, 78, 52
1, 91551, Control_c, 0, 64, 87
1, 91564, Note_on_c, 0, 57, 44
1, 91588, Control_c, 0, 64, 94
1, 91594, Note_on_c, 0, 78, 0
1, 91602, Note_on_c, 0, 57, 0
1, 91605, Control_c, 0, 64, 98
1, 91643, Control_c, 0, 64, 104
1, 91667, Note_on_c, 0, 59, 43
1, 91673, Note_on_c, 0, 75, 46
1, 91681, Control_c, 0, 64, 108
1, 91729, Note_on_c, 0, 59, 0
1, 91735, Control_c, 0, 64, 97
1, 91754, Control_c, 0, 64, 76
1, 91772, Control_c, 0, 64, 50
1, 91775, Note_on_c, 0, 75, 0
1, 91791, Control_c, 0, 64, 39
1, 91798, Note_on_c, 0, 57, 32
1, 91807, Note_on_c, 0, 87, 62
1, 91827, Control_c, 0, 64, 49
1, 91846, Control_c, 0, 64, 67
1, 91864, Control_c, 0, 64, 78
1, 91884, Control_c, 0, 64, 89
1, 91902, Note_on_c, 0, 83, 54
1, 91902, Control_c, 0, 64, 99
1, 91920, Control_c, 0, 64, 104
1, 91942, Note_on_c, 0, 87, 0
1, 91943, Note_on_c, 0, 59, 46
1, 91971, Control_c, 0, 64, 111
1, 91990, Control_c, 0, 64, 115
1, 91991, Note_on_c, 0, 57, 0
1, 92008, Control_c, 0, 64, 119
1, 92023, Note_on_c, 0, 83, 0
1, 92025, Control_c, 0, 64, 123
1, 92042, Note_on_c, 0, 59, 0
1, 92043, Note_on_c, 0, 78, 51
1, 92044, Control_c, 0, 64, 127
1, 92063, Note_on_c, 0, 66, 45
1, 92089, Note_on_c, 0, 78, 0
1, 92111, Note_on_c, 0, 66, 0
1, 92205, Note_on_c, 0, 56, 60
1, 92209, Control_c, 0, 64, 105
1, 92211, Note_on_c, 0, 88, 76
1, 92229, Control_c, 0, 64, 47
1, 92246, Note_on_c, 0, 56, 0
1, 92248, Control_c, 0, 64, 0
1, 92278, Note_on_c, 0, 88, 0
1, 92295, Note_on_c, 0, 83, 59
1, 92313, Note_on_c, 0, 59, 46
1, 92355, Note_on_c, 0, 59, 0
1, 92361, Note_on_c, 0, 83, 0
1, 92376, Note_on_c, 0, 80, 56
1, 92397, Note_on_c, 0, 52, 50
1, 92434, Note_on_c, 0, 80, 0
1, 92436, Note_on_c, 0, 52, 0
1, 92462, Note_on_c, 0, 59, 56
1, 92482, Note_on_c, 0, 76, 50
1, 92515, Note_on_c, 0, 76, 0
1, 92530, Note_on_c, 0, 59, 0
1, 92554, Note_on_c, 0, 54, 54
1, 92555, Note_on_c, 0, 81, 63
1, 92594, Note_on_c, 0, 81, 0
1, 92602, Note_on_c, 0, 54, 0
1, 92642, Note_on_c, 0, 59, 60
1, 92657, Note_on_c, 0, 78, 57
1, 92680, Note_on_c, 0, 78, 0
1, 92690, Note_on_c, 0, 59, 0
1, 92718, Note_on_c, 0, 87, 70
1, 92733, Note_on_c, 0, 57, 52
1, 92779, Note_on_c, 0, 57, 0
1, 92802, Note_on_c, 0, 87, 0
1, 92808, Note_on_c, 0, 83, 71
1, 92819, Note_on_c, 0, 59, 52
1, 92866, Note_on_c, 0, 83, 0
1, 92890, Note_on_c, 0, 59, 0
1, 92892, Note_on_c, 0, 88, 86
1, 92936, Note_on_c, 0, 56, 52
1, 92973, Note_on_c, 0, 56, 0
1, 92999, Note_on_c, 0, 83, 80
1, 93000, Note_on_c, 0, 88, 0
1, 93009, Note_on_c, 0, 59, 57
1, 93057, Note_on_c, 0, 59, 0
1, 93068, Note_on_c, 0, 83, 0
1, 93086, Note_on_c, 0, 80, 68
1, 93088, Note_on_c, 0, 52, 56
1, 93121, Note_on_c, 0, 52, 0
1, 93130, Note_on_c, 0, 80, 0
1, 93174, Note_on_c, 0, 59, 53
1, 93183, Note_on_c, 0, 76, 53
1, 93218, Note_on_c, 0, 76, 0
1, 93242, Note_on_c, 0, 59, 0
1, 93253, Note_on_c, 0, 54, 54
1, 93255, Note_on_c, 0, 81, 66
1, 93300, Note_on_c, 0, 81, 0
1, 93302, Note_on_c, 0, 54, 0
1, 93347, Note_on_c, 0, 59, 53
1, 93350, Note_on_c, 0, 78, 63
1, 93385, Note_on_c, 0, 78, 0
1, 93393, Note_on_c, 0, 59, 0
1, 93433, Note_on_c, 0, 87, 67
1, 93442, Note_on_c, 0, 57, 47
1, 93483, Note_on_c, 0, 57, 0
1, 93510, Note_on_c, 0, 87, 0
1, 93511, Note_on_c, 0, 83, 67
1, 93531, Note_on_c, 0, 59, 43
1, 93584, Note_on_c, 0, 83, 0
1, 93597, Note_on_c, 0, 59, 0
1, 93606, Note_on_c, 0, 88, 73
1, 93619, Note_on_c, 0, 56, 48
1, 93656, Note_on_c, 0, 56, 0
1, 93670, Note_on_c, 0, 88, 0
1, 93698, Note_on_c, 0, 59, 50
1, 93714, Note_on_c, 0, 83, 62
1, 93744, Note_on_c, 0, 59, 0
1, 93754, Note_on_c, 0, 83, 0
1, 93787, Note_on_c, 0, 87, 70
1, 93800, Note_on_c, 0, 57, 46
1, 93852, Note_on_c, 0, 57, 0
1, 93869, Note_on_c, 0, 87, 0
1, 93880, Note_on_c, 0, 59, 52
1, 93888, Note_on_c, 0, 83, 70
1, 93952, Control_c, 0, 67, 123
1, 93953, Note_on_c, 0, 59, 0
1, 93958, Note_on_c, 0, 83, 0
1, 93971, Control_c, 0, 67, 116
1, 93982, Note_on_c, 0, 56, 55
1, 93984, Note_on_c, 0, 88, 77
1, 93989, Control_c, 0, 67, 106
1, 94009, Control_c, 0, 67, 94
1, 94023, Note_on_c, 0, 56, 0
1, 94026, Control_c, 0, 67, 77
1, 94027, Note_on_c, 0, 88, 0
1, 94046, Control_c, 0, 67, 57
1, 94065, Control_c, 0, 67, 36
1, 94070, Note_on_c, 0, 83, 71
1, 94070, Note_on_c, 0, 59, 52
1, 94081, Control_c, 0, 67, 14
1, 94100, Control_c, 0, 67, 0
1, 94115, Note_on_c, 0, 59, 0
1, 94124, Note_on_c, 0, 83, 0
1, 94147, Note_on_c, 0, 87, 82
1, 94158, Note_on_c, 0, 57, 63
1, 94212, Note_on_c, 0, 57, 0
1, 94236, Note_on_c, 0, 87, 0
1, 94240, Note_on_c, 0, 83, 82
1, 94241, Note_on_c, 0, 59, 56
1, 94313, Note_on_c, 0, 83, 0
1, 94316, Note_on_c, 0, 59, 0
1, 94327, Note_on_c, 0, 88, 90
1, 94335, Note_on_c, 0, 56, 69
1, 94379, Note_on_c, 0, 56, 0
1, 94383, Note_on_c, 0, 88, 0
1, 94415, Note_on_c, 0, 83, 80
1, 94428, Note_on_c, 0, 59, 60
1, 94470, Note_on_c, 0, 83, 0
1, 94491, Note_on_c, 0, 59, 0
1, 94494, Note_on_c, 0, 87, 88
1, 94501, Note_on_c, 0, 57, 74
1, 94570, Note_on_c, 0, 57, 0
1, 94580, Note_on_c, 0, 83, 89
1, 94588, Note_on_c, 0, 87, 0
1, 94594, Note_on_c, 0, 59, 64
1, 94655, Note_on_c, 0, 59, 0
1, 94656, Note_on_c, 0, 83, 0
1, 94668, Note_on_c, 0, 88, 93
1, 94669, Note_on_c, 0, 56, 75
1, 94712, Note_on_c, 0, 56, 0
1, 94730, Note_on_c, 0, 88, 0
1, 94751, Note_on_c, 0, 59, 72
1, 94751, Note_on_c, 0, 83, 80
1, 94837, Note_on_c, 0, 87, 89
1, 94839, Note_on_c, 0, 83, 0
1, 94843, Note_on_c, 0, 59, 0
1, 94847, Note_on_c, 0, 57, 77
1, 94924, Note_on_c, 0, 57, 0
1, 94925, Note_on_c, 0, 87, 0
1, 94935, Note_on_c, 0, 83, 87
1, 94944, Note_on_c, 0, 59, 61
1, 95011, Note_on_c, 0, 88, 101
1, 95016, Note_on_c, 0, 56, 74
1, 95020, Note_on_c, 0, 83, 0
1, 95022, Note_on_c, 0, 59, 0
1, 95036, Control_c, 0, 64, 32
1, 95051, Note_on_c, 0, 56, 0
1, 95053, Control_c, 0, 64, 68
1, 95073, Control_c, 0, 64, 75
1, 95074, Note_on_c, 0, 59, 64
1, 95084, Note_on_c, 0, 88, 0
1, 95090, Control_c, 0, 64, 77
1, 95103, Note_on_c, 0, 83, 80
1, 95108, Note_on_c, 0, 59, 0
1, 95157, Note_on_c, 0, 83, 0
1, 95182, Note_on_c, 0, 44, 77
1, 95183, Note_on_c, 0, 86, 91
1, 95246, Note_on_c, 0, 44, 0
1, 95270, Note_on_c, 0, 86, 0
1, 95272, Note_on_c, 0, 83, 89
1, 95278, Note_on_c, 0, 52, 77
1, 95357, Note_on_c, 0, 86, 96
1, 95359, Note_on_c, 0, 52, 0
1, 95360, Note_on_c, 0, 44, 81
1, 95366, Note_on_c, 0, 83, 0
1, 95423, Note_on_c, 0, 44, 0
1, 95433, Note_on_c, 0, 86, 0
1, 95439, Note_on_c, 0, 52, 77
1, 95440, Note_on_c, 0, 83, 82
1, 95460, Control_c, 0, 64, 75
1, 95497, Control_c, 0, 64, 73
1, 95500, Note_on_c, 0, 83, 0
1, 95509, Note_on_c, 0, 52, 0
1, 95529, Note_on_c, 0, 86, 97
1, 95530, Note_on_c, 0, 44, 86
1, 95534, Control_c, 0, 64, 70
1, 95591, Note_on_c, 0, 44, 0
1, 95604, Note_on_c, 0, 83, 91
1, 95605, Note_on_c, 0, 86, 0
1, 95610, Note_on_c, 0, 52, 77
1, 95635, Poly_aftertouch_c, 0, 48, 0
1, 95696, Note_on_c, 0, 44, 88
1, 95697, Note_on_c, 0, 86, 98
1, 95719, Note_on_c, 0, 83, 0
1, 95719, Note_on_c, 0, 52, 0
1, 95774, Note_on_c, 0, 44, 0
1, 95783, Note_on_c, 0, 86, 0
1, 95790, Note_on_c, 0, 52, 71
1, 95791, Note_on_c, 0, 83, 85
1, 95792, Poly_aftertouch_c, 0, 48, 0
1, 95854, Note_on_c, 0, 83, 0
1, 95876, Note_on_c, 0, 86, 98
1, 95879, Note_on_c, 0, 44, 89
1, 95880, Note_on_c, 0, 52, 0
1, 95944, Note_on_c, 0, 44, 0
1, 95962, Note_on_c, 0, 83, 95
1, 95967, Note_on_c, 0, 86, 0
1, 95968, Note_on_c, 0, 52, 74
1, 96045, Note_on_c, 0, 52, 0
1, 96049, Note_on_c, 0, 44, 86
1, 96051, Note_on_c, 0, 83, 0
1, 96056, Note_on_c, 0, 86, 98
1, 96112, Note_on_c, 0, 44, 0
1, 96122, Note_on_c, 0, 86, 0
1, 96134, Note_on_c, 0, 83, 92
1, 96135, Note_on_c, 0, 52, 79
1, 96186, Note_on_c, 0, 83, 0
1, 96201, Note_on_c, 0, 52, 0
1, 96216, Note_on_c, 0, 44, 86
1, 96220, Note_on_c, 0, 86, 98
1, 96266, Control_c, 0, 64, 64
1, 96284, Control_c, 0, 64, 38
1, 96286, Note_on_c, 0, 44, 0
1, 96296, Note_on_c, 0, 83, 90
1, 96302, Note_on_c, 0, 52, 80
1, 96303, Control_c, 0, 64, 0
1, 96311, Note_on_c, 0, 86, 0
1, 96383, Note_on_c, 0, 86, 99
1, 96391, Note_on_c, 0, 44, 93
1, 96409, Note_on_c, 0, 83, 0
1, 96413, Control_c, 0, 64, 37
1, 96415, Note_on_c, 0, 52, 0
1, 96432, Control_c, 0, 64, 62
1, 96443, Note_on_c, 0, 48, 31
1, 96451, Control_c, 0, 64, 67
1, 96474, Note_on_c, 0, 44, 0
1, 96481, Note_on_c, 0, 52, 71
1, 96494, Note_on_c, 0, 48, 0
1, 96542, Control_c, 0, 64, 66
1, 96560, Control_c, 0, 64, 65
1, 96567, Note_on_c, 0, 52, 0
1, 96574, Note_on_c, 0, 44, 82
1, 96579, Control_c, 0, 64, 64
1, 96583, Note_on_c, 0, 85, 88
1, 96598, Control_c, 0, 64, 62
1, 96613, Note_on_c, 0, 86, 0
1, 96616, Control_c, 0, 64, 61
1, 96635, Control_c, 0, 64, 59
1, 96660, Note_on_c, 0, 44, 0
1, 96668, Control_c, 0, 64, 57
1, 96681, Note_on_c, 0, 52, 76
1, 96686, Control_c, 0, 64, 55
1, 96688, Note_on_c, 0, 83, 86
1, 96707, Note_on_c, 0, 85, 0
1, 96758, Note_on_c, 0, 44, 84
1, 96766, Note_on_c, 0, 52, 0
1, 96770, Note_on_c, 0, 81, 87
1, 96776, Note_on_c, 0, 83, 0
1, 96779, Control_c, 0, 64, 53
1, 96831, Note_on_c, 0, 81, 0
1, 96836, Note_on_c, 0, 44, 0
1, 96850, Note_on_c, 0, 52, 76
1, 96857, Note_on_c, 0, 80, 84
1, 96934, Note_on_c, 0, 44, 85
1, 96936, Note_on_c, 0, 78, 85
1, 96940, Note_on_c, 0, 52, 0
1, 97000, Note_on_c, 0, 80, 0
1, 97017, Note_on_c, 0, 44, 0
1, 97019, Note_on_c, 0, 76, 88
1, 97025, Note_on_c, 0, 52, 74
1, 97050, Note_on_c, 0, 78, 0
1, 97074, Control_c, 0, 64, 51
1, 97103, Note_on_c, 0, 76, 0
1, 97105, Note_on_c, 0, 44, 82
1, 97108, Note_on_c, 0, 74, 83
1, 97124, Note_on_c, 0, 52, 0
1, 97152, Note_on_c, 0, 74, 0
1, 97186, Note_on_c, 0, 44, 0
1, 97187, Note_on_c, 0, 52, 69
1, 97191, Note_on_c, 0, 73, 85
1, 97214, Poly_aftertouch_c, 0, 48, 0
1, 97269, Note_on_c, 0, 52, 0
1, 97274, Note_on_c, 0, 44, 80
1, 97277, Note_on_c, 0, 71, 85
1, 97302, Note_on_c, 0, 73, 0
1, 97341, Note_on_c, 0, 71, 0
1, 97353, Note_on_c, 0, 44, 0
1, 97357, Note_on_c, 0, 69, 81
1, 97357, Note_on_c, 0, 52, 76
1, 97416, Note_on_c, 0, 69, 0
1, 97437, Note_on_c, 0, 52, 0
1, 97442, Note_on_c, 0, 68, 87
1, 97444, Note_on_c, 0, 44, 83
1, 97519, Note_on_c, 0, 44, 0
1, 97527, Note_on_c, 0, 66, 85
1, 97529, Poly_aftertouch_c, 0, 48, 0
1, 97533, Note_on_c, 0, 52, 76
1, 97548, Note_on_c, 0, 68, 0
1, 97612, Note_on_c, 0, 66, 0
1, 97615, Note_on_c, 0, 52, 0
1, 97616, Note_on_c, 0, 64, 80
1, 97631, Note_on_c, 0, 44, 82
1, 97668, Note_on_c, 0, 64, 0
1, 97676, Control_c, 0, 64, 38
1, 97680, Note_on_c, 0, 52, 66
1, 97695, Control_c, 0, 64, 0
1, 97702, Note_on_c, 0, 44, 0
1, 97709, Note_on_c, 0, 62, 83
1, 97723, Note_on_c, 0, 52, 0
1, 97779, Note_on_c, 0, 62, 0
1, 97796, Note_on_c, 0, 52, 98
1, 97798, Note_on_c, 0, 49, 97
1, 97799, Note_on_c, 0, 45, 96
1, 97801, Note_on_c, 0, 61, 88
1, 97825, Control_c, 0, 64, 31
1, 97842, Control_c, 0, 64, 58
1, 97853, Note_on_c, 0, 52, 0
1, 97860, Control_c, 0, 64, 66
1, 97879, Note_on_c, 0, 49, 0
1, 97883, Note_on_c, 0, 45, 0
1, 97898, Note_on_c, 0, 63, 83
1, 97910, Note_on_c, 0, 61, 0
1, 97953, Control_c, 0, 64, 67
1, 97986, Note_on_c, 0, 45, 76
1, 97987, Note_on_c, 0, 49, 80
1, 97987, Note_on_c, 0, 52, 70
1, 97990, Note_on_c, 0, 63, 0
1, 97991, Control_c, 0, 64, 65
1, 97998, Note_on_c, 0, 64, 81
1, 98009, Control_c, 0, 64, 60
1, 98010, Note_on_c, 0, 52, 0
1, 98024, Note_on_c, 0, 45, 0
1, 98027, Control_c, 0, 64, 55
1, 98045, Note_on_c, 0, 49, 0
1, 98045, Control_c, 0, 64, 49
1, 98063, Control_c, 0, 64, 47
1, 98074, Note_on_c, 0, 63, 82
1, 98096, Note_on_c, 0, 64, 0
1, 98130, Note_on_c, 0, 63, 0
1, 98136, Control_c, 0, 64, 45
1, 98159, Note_on_c, 0, 64, 80
1, 98192, Control_c, 0, 64, 43
1, 98251, Note_on_c, 0, 64, 0
1, 98259, Note_on_c, 0, 68, 82
1, 98320, Note_on_c, 0, 49, 90
1, 98321, Note_on_c, 0, 52, 87
1, 98326, Note_on_c, 0, 45, 81
1, 98330, Note_on_c, 0, 69, 86
1, 98331, Note_on_c, 0, 68, 0
1, 98356, Note_on_c, 0, 52, 0
1, 98365, Note_on_c, 0, 45, 0
1, 98377, Control_c, 0, 64, 32
1, 98379, Note_on_c, 0, 49, 0
1, 98396, Control_c, 0, 64, 0
1, 98428, Note_on_c, 0, 69, 0
1, 98432, Note_on_c, 0, 68, 80
1, 98482, Note_on_c, 0, 68, 0
1, 98497, Note_on_c, 0, 49, 95
1, 98497, Note_on_c, 0, 52, 98
1, 98499, Note_on_c, 0, 45, 93
1, 98518, Note_on_c, 0, 69, 88
1, 98556, Note_on_c, 0, 52, 0
1, 98563, Note_on_c, 0, 49, 0
1, 98574, Note_on_c, 0, 45, 0
1, 98595, Control_c, 0, 64, 34
1, 98603, Note_on_c, 0, 72, 86
1, 98608, Note_on_c, 0, 69, 0
1, 98685, Note_on_c, 0, 52, 84
1, 98689, Note_on_c, 0, 45, 80
1, 98691, Note_on_c, 0, 49, 78
1, 98695, Note_on_c, 0, 73, 84
1, 98698, Note_on_c, 0, 72, 0
1, 98718, Note_on_c, 0, 52, 0
1, 98732, Note_on_c, 0, 45, 0
1, 98755, Note_on_c, 0, 49, 0
1, 98758, Note_on_c, 0, 73, 0
1, 98776, Note_on_c, 0, 72, 81
1, 98852, Control_c, 0, 64, 30
1, 98865, Note_on_c, 0, 73, 88
1, 98879, Note_on_c, 0, 72, 0
1, 98955, Note_on_c, 0, 75, 88
1, 98969, Note_on_c, 0, 73, 0
1, 99035, Note_on_c, 0, 52, 82
1, 99036, Note_on_c, 0, 49, 82
1, 99039, Note_on_c, 0, 45, 80
1, 99046, Note_on_c, 0, 76, 83
1, 99053, Note_on_c, 0, 75, 0
1, 99069, Note_on_c, 0, 52, 0
1, 99081, Note_on_c, 0, 45, 0
1, 99085, Note_on_c, 0, 49, 0
1, 99125, Note_on_c, 0, 75, 85
1, 99154, Note_on_c, 0, 76, 0
1, 99184, Control_c, 0, 64, 26
1, 99192, Note_on_c, 0, 75, 0
1, 99200, Note_on_c, 0, 52, 97
1, 99201, Note_on_c, 0, 49, 91
1, 99202, Note_on_c, 0, 45, 92
1, 99209, Note_on_c, 0, 76, 87
1, 99249, Note_on_c, 0, 52, 0
1, 99265, Note_on_c, 0, 49, 0
1, 99265, Note_on_c, 0, 45, 0
1, 99289, Note_on_c, 0, 76, 0
1, 99307, Note_on_c, 0, 80, 86
1, 99377, Note_on_c, 0, 52, 76
1, 99378, Note_on_c, 0, 49, 81
1, 99378, Note_on_c, 0, 81, 87
1, 99383, Note_on_c, 0, 80, 0
1, 99386, Note_on_c, 0, 45, 72
1, 99409, Note_on_c, 0, 52, 0
1, 99420, Note_on_c, 0, 45, 0
1, 99441, Note_on_c, 0, 49, 0
1, 99478, Note_on_c, 0, 80, 85
1, 99490, Note_on_c, 0, 81, 0
1, 99548, Note_on_c, 0, 80, 0
1, 99560, Note_on_c, 0, 81, 81
1, 99649, Note_on_c, 0, 84, 86
1, 99656, Note_on_c, 0, 81, 0
1, 99723, Note_on_c, 0, 49, 87
1, 99725, Note_on_c, 0, 84, 0
1, 99725, Note_on_c, 0, 52, 83
1, 99725, Note_on_c, 0, 85, 91
1, 99725, Note_on_c, 0, 45, 80
1, 99742, Note_on_c, 0, 52, 0
1, 99754, Note_on_c, 0, 45, 0
1, 99758, Note_on_c, 0, 49, 0
1, 99781, Note_on_c, 0, 85, 0
1, 99796, Note_on_c, 0, 84, 87
1, 99878, Note_on_c, 0, 52, 92
1, 99878, Note_on_c, 0, 49, 90
1, 99880, Note_on_c, 0, 45, 89
1, 99888, Note_on_c, 0, 85, 90
1, 99901, Note_on_c, 0, 84, 0
1, 99916, Note_on_c, 0, 52, 0
1, 99924, Note_on_c, 0, 45, 0
1, 99927, Note_on_c, 0, 49, 0
1, 99970, Note_on_c, 0, 87, 89
1, 99984, Note_on_c, 0, 85, 0
1, 100048, Note_on_c, 0, 52, 83
1, 100048, Note_on_c, 0, 45, 81
1, 100049, Note_on_c, 0, 87, 0
1, 100053, Note_on_c, 0, 49, 76
1, 100063, Note_on_c, 0, 88, 89
1, 100078, Note_on_c, 0, 52, 0
1, 100082, Note_on_c, 0, 45, 0
1, 100104, Note_on_c, 0, 49, 0
1, 100143, Note_on_c, 0, 87, 90
1, 100151, Note_on_c, 0, 88, 0
1, 100223, Note_on_c, 0, 88, 88
1, 100225, Note_on_c, 0, 87, 0
1, 100297, Note_on_c, 0, 87, 86
1, 100308, Control_c, 0, 64, 22
1, 100341, Note_on_c, 0, 88, 0
1, 100344, Control_c, 0, 64, 8
1, 100363, Control_c, 0, 64, 0
1, 100385, Note_on_c, 0, 45, 72
1, 100391, Note_on_c, 0, 52, 80
1, 100395, Note_on_c, 0, 49, 76
1, 100399, Note_on_c, 0, 85, 89
1, 100426, Note_on_c, 0, 87, 0
1, 100435, Note_on_c, 0, 45, 0
1, 100442, Note_on_c, 0, 52, 0
1, 100463, Note_on_c, 0, 49, 0
1, 100482, Note_on_c, 0, 84, 85
1, 100488, Note_on_c, 0, 85, 0
1, 100535, Note_on_c, 0, 84, 0
1, 100561, Note_on_c, 0, 52, 92
1, 100566, Note_on_c, 0, 46, 92
1, 100567, Note_on_c, 0, 54, 93
1, 100570, Note_on_c, 0, 85, 95
1, 100570, Note_on_c, 0, 49, 80
1, 100599, Control_c, 0, 64, 42
1, 100617, Control_c, 0, 64, 109
1, 100624, Note_on_c, 0, 54, 0
1, 100635, Control_c, 0, 64, 127
1, 100639, Note_on_c, 0, 85, 0
1, 100648, Note_on_c, 0, 46, 0
1, 100651, Note_on_c, 0, 52, 0
1, 100653, Note_on_c, 0, 49, 0
1, 100669, Note_on_c, 0, 84, 86
1, 100713, Note_on_c, 0, 86, 37
1, 100736, Note_on_c, 0, 52, 75
1, 100742, Note_on_c, 0, 54, 78
1, 100750, Note_on_c, 0, 85, 91
1, 100750, Note_on_c, 0, 49, 68
1, 100755, Note_on_c, 0, 46, 68
1, 100757, Note_on_c, 0, 84, 0
1, 100757, Note_on_c, 0, 86, 0
1, 100787, Note_on_c, 0, 54, 0
1, 100816, Note_on_c, 0, 46, 0
1, 100818, Note_on_c, 0, 52, 0
1, 100839, Note_on_c, 0, 87, 90
1, 100840, Note_on_c, 0, 49, 0
1, 100850, Note_on_c, 0, 85, 0
1, 100854, Control_c, 0, 64, 116
1, 100874, Control_c, 0, 64, 66
1, 100892, Control_c, 0, 64, 0
1, 100923, Note_on_c, 0, 88, 91
1, 100927, Note_on_c, 0, 87, 0
1, 101012, Note_on_c, 0, 87, 90
1, 101061, Note_on_c, 0, 88, 0
1, 101091, Note_on_c, 0, 54, 86
1, 101092, Note_on_c, 0, 52, 80
1, 101096, Note_on_c, 0, 46, 81
1, 101098, Note_on_c, 0, 49, 75
1, 101098, Note_on_c, 0, 85, 89
1, 101131, Note_on_c, 0, 87, 0
1, 101147, Note_on_c, 0, 54, 0
1, 101166, Note_on_c, 0, 46, 0
1, 101177, Note_on_c, 0, 52, 0
1, 101181, Note_on_c, 0, 84, 86
1, 101193, Note_on_c, 0, 85, 0
1, 101195, Note_on_c, 0, 49, 0
1, 101238, Note_on_c, 0, 84, 0
1, 101269, Note_on_c, 0, 85, 93
1, 101269, Note_on_c, 0, 49, 76
1, 101269, Note_on_c, 0, 54, 95
1, 101270, Note_on_c, 0, 52, 87
1, 101273, Note_on_c, 0, 46, 86
1, 101331, Control_c, 0, 64, 44
1, 101339, Note_on_c, 0, 54, 0
1, 101349, Control_c, 0, 64, 95
1, 101359, Note_on_c, 0, 85, 0
1, 101361, Note_on_c, 0, 46, 0
1, 101366, Control_c, 0, 64, 108
1, 101371, Note_on_c, 0, 52, 0
1, 101380, Note_on_c, 0, 49, 0
1, 101380, Note_on_c, 0, 84, 86
1, 101385, Control_c, 0, 64, 113
1, 101452, Note_on_c, 0, 52, 74
1, 101452, Note_on_c, 0, 54, 80
1, 101452, Note_on_c, 0, 49, 65
1, 101463, Note_on_c, 0, 46, 73
1, 101467, Note_on_c, 0, 85, 90
1, 101472, Note_on_c, 0, 84, 0
1, 101495, Note_on_c, 0, 54, 0
1, 101498, Control_c, 0, 64, 93
1, 101508, Note_on_c, 0, 46, 0
1, 101516, Control_c, 0, 64, 51
1, 101529, Note_on_c, 0, 52, 0
1, 101535, Control_c, 0, 64, 0
1, 101545, Note_on_c, 0, 49, 0
1, 101556, Note_on_c, 0, 87, 88
1, 101567, Note_on_c, 0, 85, 0
1, 101641, Note_on_c, 0, 88, 90
1, 101642, Note_on_c, 0, 87, 0
1, 101728, Note_on_c, 0, 87, 90
1, 101774, Note_on_c, 0, 88, 0
1, 101804, Note_on_c, 0, 46, 79
1, 101808, Note_on_c, 0, 52, 81
1, 101808, Note_on_c, 0, 54, 83
1, 101813, Note_on_c, 0, 85, 90
1, 101817, Note_on_c, 0, 49, 72
1, 101848, Note_on_c, 0, 87, 0
1, 101860, Note_on_c, 0, 54, 0
1, 101883, Note_on_c, 0, 46, 0
1, 101888, Note_on_c, 0, 52, 0
1, 101897, Note_on_c, 0, 49, 0
1, 101899, Note_on_c, 0, 84, 86
1, 101907, Note_on_c, 0, 85, 0
1, 101978, Note_on_c, 0, 54, 90
1, 101979, Note_on_c, 0, 52, 85
1, 101983, Note_on_c, 0, 49, 73
1, 101985, Note_on_c, 0, 85, 92
1, 101986, Note_on_c, 0, 46, 85
1, 101988, Note_on_c, 0, 84, 0
1, 101993, Control_c, 0, 64, 20
1, 102011, Control_c, 0, 64, 84
1, 102032, Control_c, 0, 64, 111
1, 102042, Note_on_c, 0, 54, 0
1, 102049, Control_c, 0, 64, 124
1, 102058, Note_on_c, 0, 46, 0
1, 102059, Note_on_c, 0, 85, 0
1, 102067, Note_on_c, 0, 52, 0
1, 102080, Note_on_c, 0, 49, 0
1, 102087, Note_on_c, 0, 84, 87
1, 102140, Control_c, 0, 64, 110
1, 102155, Note_on_c, 0, 52, 74
1, 102159, Control_c, 0, 64, 75
1, 102159, Note_on_c, 0, 54, 78
1, 102166, Note_on_c, 0, 49, 63
1, 102166, Note_on_c, 0, 85, 89
1, 102168, Note_on_c, 0, 84, 0
1, 102169, Note_on_c, 0, 46, 67
1, 102176, Control_c, 0, 64, 0
1, 102190, Note_on_c, 0, 54, 0
1, 102207, Note_on_c, 0, 46, 0
1, 102224, Note_on_c, 0, 52, 0
1, 102258, Note_on_c, 0, 49, 0
1, 102269, Note_on_c, 0, 87, 89
1, 102286, Note_on_c, 0, 85, 0
1, 102359, Note_on_c, 0, 88, 91
1, 102360, Note_on_c, 0, 87, 0
1, 102450, Note_on_c, 0, 87, 89
1, 102495, Note_on_c, 0, 88, 0
1, 102519, Note_on_c, 0, 46, 84
1, 102526, Note_on_c, 0, 54, 86
1, 102529, Note_on_c, 0, 85, 84
1, 102530, Note_on_c, 0, 52, 80
1, 102532, Note_on_c, 0, 49, 75
1, 102552, Note_on_c, 0, 51, 28
1, 102564, Note_on_c, 0, 87, 0
1, 102574, Note_on_c, 0, 54, 0
1, 102596, Note_on_c, 0, 46, 0
1, 102602, Note_on_c, 0, 52, 0
1, 102604, Note_on_c, 0, 84, 85
1, 102606, Note_on_c, 0, 51, 0
1, 102612, Note_on_c, 0, 49, 0
1, 102616, Note_on_c, 0, 85, 0
1, 102684, Note_on_c, 0, 85, 89
1, 102686, Note_on_c, 0, 52, 83
1, 102688, Note_on_c, 0, 84, 0
1, 102695, Note_on_c, 0, 54, 91
1, 102697, Note_on_c, 0, 46, 84
1, 102699, Note_on_c, 0, 49, 70
1, 102746, Control_c, 0, 64, 32
1, 102754, Note_on_c, 0, 54, 0
1, 102766, Note_on_c, 0, 85, 0
1, 102773, Note_on_c, 0, 46, 0
1, 102783, Note_on_c, 0, 84, 87
1, 102787, Note_on_c, 0, 52, 0
1, 102788, Note_on_c, 0, 49, 0
1, 102838, Note_on_c, 0, 84, 0
1, 102858, Note_on_c, 0, 52, 66
1, 102860, Note_on_c, 0, 46, 72
1, 102864, Note_on_c, 0, 49, 62
1, 102866, Note_on_c, 0, 54, 75
1, 102868, Note_on_c, 0, 85, 87
1, 102912, Note_on_c, 0, 54, 0
1, 102932, Note_on_c, 0, 46, 0
1, 102936, Note_on_c, 0, 52, 0
1, 102947, Control_c, 0, 64, 27
1, 102953, Note_on_c, 0, 49, 0
1, 102954, Note_on_c, 0, 87, 88
1, 102969, Note_on_c, 0, 85, 0
1, 103043, Note_on_c, 0, 88, 91
1, 103046, Note_on_c, 0, 87, 0
1, 103131, Note_on_c, 0, 87, 81
1, 103136, Note_on_c, 0, 88, 0
1, 103202, Control_c, 0, 64, 23
1, 103214, Note_on_c, 0, 54, 63
1, 103218, Note_on_c, 0, 46, 61
1, 103222, Note_on_c, 0, 52, 51
1, 103225, Note_on_c, 0, 49, 51
1, 103225, Note_on_c, 0, 88, 83
1, 103234, Note_on_c, 0, 87, 0
1, 103257, Note_on_c, 0, 54, 0
1, 103257, Note_on_c, 0, 52, 0
1, 103259, Note_on_c, 0, 46, 0
1, 103260, Note_on_c, 0, 49, 0
1, 103276, Control_c, 0, 64, 13
1, 103291, Note_on_c, 0, 85, 81
1, 103293, Control_c, 0, 64, 0
1, 103298, Note_on_c, 0, 88, 0
1, 103317, Note_on_c, 0, 85, 0
1, 103411, Note_on_c, 0, 47, 82
1, 103420, Note_on_c, 0, 83, 98
1, 103428, Note_on_c, 0, 71, 96
1, 103460, Control_c, 0, 64, 48
1, 103470, Note_on_c, 0, 71, 0
1, 103477, Control_c, 0, 64, 71
1, 103479, Note_on_c, 0, 83, 0
1, 103522, Note_on_c, 0, 52, 68
1, 103530, Note_on_c, 0, 47, 0
1, 103552, Control_c, 0, 64, 69
1, 103581, Note_on_c, 0, 56, 74
1, 103588, Control_c, 0, 64, 67
1, 103598, Note_on_c, 0, 83, 91
1, 103603, Note_on_c, 0, 71, 84
1, 103627, Note_on_c, 0, 52, 0
1, 103633, Note_on_c, 0, 71, 0
1, 103646, Control_c, 0, 64, 66
1, 103648, Note_on_c, 0, 83, 0
1, 103662, Control_c, 0, 64, 65
1, 103665, Note_on_c, 0, 56, 0
1, 103673, Note_on_c, 0, 59, 67
1, 103680, Control_c, 0, 64, 63
1, 103700, Control_c, 0, 64, 61
1, 103718, Control_c, 0, 64, 60
1, 103768, Note_on_c, 0, 80, 83
1, 103771, Note_on_c, 0, 47, 77
1, 103773, Note_on_c, 0, 59, 0
1, 103777, Note_on_c, 0, 68, 78
1, 103792, Control_c, 0, 64, 58
1, 103805, Note_on_c, 0, 68, 0
1, 103807, Note_on_c, 0, 80, 0
1, 103879, Note_on_c, 0, 47, 0
1, 103879, Note_on_c, 0, 52, 73
1, 103932, Note_on_c, 0, 76, 90
1, 103934, Note_on_c, 0, 64, 85
1, 103940, Note_on_c, 0, 56, 77
1, 103956, Control_c, 0, 64, 60
1, 103958, Note_on_c, 0, 64, 0
1, 103977, Note_on_c, 0, 52, 0
1, 103982, Note_on_c, 0, 76, 0
1, 104012, Control_c, 0, 64, 51
1, 104017, Note_on_c, 0, 59, 67
1, 104027, Note_on_c, 0, 56, 0
1, 104031, Control_c, 0, 64, 30
1, 104051, Control_c, 0, 64, 0
1, 104109, Note_on_c, 0, 47, 86
1, 104132, Note_on_c, 0, 88, 102
1, 104133, Note_on_c, 0, 76, 96
1, 104138, Note_on_c, 0, 59, 0
1, 104138, Control_c, 0, 64, 26
1, 104157, Control_c, 0, 64, 37
1, 104176, Control_c, 0, 64, 47
1, 104183, Note_on_c, 0, 76, 0
1, 104184, Note_on_c, 0, 88, 0
1, 104195, Control_c, 0, 64, 53
1, 104222, Note_on_c, 0, 52, 73
1, 104253, Note_on_c, 0, 47, 0
1, 104289, Note_on_c, 0, 56, 70
1, 104302, Note_on_c, 0, 88, 88
1, 104306, Note_on_c, 0, 76, 82
1, 104321, Control_c, 0, 64, 51
1, 104337, Note_on_c, 0, 88, 0
1, 104339, Note_on_c, 0, 52, 0
1, 104344, Note_on_c, 0, 76, 0
1, 104365, Note_on_c, 0, 59, 67
1, 104374, Note_on_c, 0, 56, 0
1, 104377, Control_c, 0, 64, 48
1, 104415, Control_c, 0, 64, 45
1, 104474, Note_on_c, 0, 59, 0
1, 104475, Note_on_c, 0, 47, 74
1, 104480, Note_on_c, 0, 83, 85
1, 104494, Note_on_c, 0, 71, 78
1, 104521, Note_on_c, 0, 71, 0
1, 104527, Note_on_c, 0, 83, 0
1, 104564, Note_on_c, 0, 47, 0
1, 104565, Note_on_c, 0, 52, 72
1, 104640, Note_on_c, 0, 56, 77
1, 104653, Note_on_c, 0, 80, 86
1, 104661, Note_on_c, 0, 68, 78
1, 104678, Note_on_c, 0, 52, 0
1, 104689, Note_on_c, 0, 68, 0
1, 104720, Note_on_c, 0, 80, 0
1, 104728, Note_on_c, 0, 59, 69
1, 104735, Note_on_c, 0, 56, 0
1, 104819, Note_on_c, 0, 83, 96
1, 104822, Note_on_c, 0, 47, 81
1, 104827, Note_on_c, 0, 71, 92
1, 104832, Note_on_c, 0, 59, 0
1, 104873, Note_on_c, 0, 71, 0
1, 104879, Note_on_c, 0, 83, 0
1, 104909, Note_on_c, 0, 52, 70
1, 104937, Note_on_c, 0, 47, 0
1, 104994, Note_on_c, 0, 56, 74
1, 104997, Note_on_c, 0, 83, 89
1, 105003, Control_c, 0, 64, 47
1, 105009, Note_on_c, 0, 71, 81
1, 105017, Note_on_c, 0, 52, 0
1, 105036, Note_on_c, 0, 71, 0
1, 105067, Note_on_c, 0, 83, 0
1, 105081, Note_on_c, 0, 59, 69
1, 105089, Note_on_c, 0, 56, 0
1, 105171, Note_on_c, 0, 47, 78
1, 105190, Note_on_c, 0, 59, 0
1, 105191, Note_on_c, 0, 80, 83
1, 105196, Note_on_c, 0, 68, 83
1, 105225, Note_on_c, 0, 68, 0
1, 105236, Note_on_c, 0, 80, 0
1, 105264, Note_on_c, 0, 52, 69
1, 105296, Note_on_c, 0, 47, 0
1, 105342, Note_on_c, 0, 56, 80
1, 105356, Note_on_c, 0, 76, 86
1, 105359, Note_on_c, 0, 64, 76
1, 105381, Note_on_c, 0, 52, 0
1, 105386, Note_on_c, 0, 64, 0
1, 105399, Note_on_c, 0, 76, 0
1, 105419, Note_on_c, 0, 59, 72
1, 105420, Note_on_c, 0, 56, 0
1, 105522, Note_on_c, 0, 56, 88
1, 105525, Note_on_c, 0, 88, 102
1, 105527, Note_on_c, 0, 59, 0
1, 105527, Note_on_c, 0, 76, 98
1, 105533, Control_c, 0, 64, 45
1, 105557, Note_on_c, 0, 56, 0
1, 105569, Note_on_c, 0, 88, 0
1, 105571, Note_on_c, 0, 76, 0
1, 105597, Poly_aftertouch_c, 0, 50, 127
1, 105605, Control_c, 0, 64, 43
1, 105606, Note_on_c, 0, 87, 18
1, 105607, Note_on_c, 0, 87, 0
1, 105681, Poly_aftertouch_c, 0, 50, 0
1, 105689, Note_on_c, 0, 56, 75
1, 105697, Note_on_c, 0, 88, 87
1, 105699, Note_on_c, 0, 76, 84
1, 105725, Note_on_c, 0, 56, 0
1, 105726, Note_on_c, 0, 88, 0
1, 105735, Note_on_c, 0, 76, 0
1, 105755, Control_c, 0, 64, 41
1, 105847, Control_c, 0, 64, 37
1, 105866, Note_on_c, 0, 52, 63
1, 105866, Note_on_c, 0, 83, 80
1, 105877, Note_on_c, 0, 71, 72
1, 105895, Note_on_c, 0, 83, 0
1, 105897, Note_on_c, 0, 71, 0
1, 105909, Note_on_c, 0, 52, 0
1, 106032, Note_on_c, 0, 47, 74
1, 106059, Note_on_c, 0, 80, 69
1, 106059, Note_on_c, 0, 68, 70
1, 106064, Note_on_c, 0, 47, 0
1, 106084, Note_on_c, 0, 68, 0
1, 106094, Note_on_c, 0, 80, 0
1, 106218, Note_on_c, 0, 59, 97
1, 106259, Note_on_c, 0, 59, 0
1, 106314, Note_on_c, 0, 80, 69
1, 106364, Note_on_c, 0, 56, 74
1, 106387, Note_on_c, 0, 80, 0
1, 106395, Note_on_c, 0, 56, 0
1, 106408, Note_on_c, 0, 83, 67
1, 106454, Control_c, 0, 64, 33
1, 106469, Note_on_c, 0, 83, 0
1, 106482, Note_on_c, 0, 80, 56
1, 106534, Note_on_c, 0, 80, 0
1, 106545, Note_on_c, 0, 64, 73
1, 106559, Note_on_c, 0, 83, 64
1, 106582, Note_on_c, 0, 64, 0
1, 106626, Note_on_c, 0, 83, 0
1, 106654, Note_on_c, 0, 80, 64
1, 106701, Note_on_c, 0, 80, 0
1, 106710, Note_on_c, 0, 59, 65
1, 106731, Note_on_c, 0, 83, 60
1, 106745, Note_on_c, 0, 59, 0
1, 106785, Note_on_c, 0, 83, 0
1, 106819, Note_on_c, 0, 80, 63
1, 106863, Note_on_c, 0, 80, 0
1, 106886, Note_on_c, 0, 68, 61
1, 106896, Note_on_c, 0, 83, 61
1, 106936, Note_on_c, 0, 68, 0
1, 106972, Note_on_c, 0, 83, 0
1, 106987, Note_on_c, 0, 80, 62
1, 107036, Note_on_c, 0, 80, 0
1, 107053, Note_on_c, 0, 64, 59
1, 107079, Note_on_c, 0, 83, 54
1, 107087, Note_on_c, 0, 64, 0
1, 107129, Note_on_c, 0, 83, 0
1, 107160, Note_on_c, 0, 80, 59
1, 107201, Note_on_c, 0, 80, 0
1, 107236, Note_on_c, 0, 71, 66
1, 107236, Note_on_c, 0, 83, 65
1, 107238, Control_c, 0, 67, 8
1, 107269, Note_on_c, 0, 71, 0
1, 107294, Note_on_c, 0, 83, 0
1, 107316, Note_on_c, 0, 80, 58
1, 107349, Control_c, 0, 64, 29
1, 107366, Note_on_c, 0, 80, 0
1, 107379, Note_on_c, 0, 68, 64
1, 107399, Note_on_c, 0, 83, 61
1, 107411, Note_on_c, 0, 68, 0
1, 107450, Note_on_c, 0, 83, 0
1, 107483, Note_on_c, 0, 80, 60
1, 107526, Note_on_c, 0, 80, 0
1, 107534, Control_c, 0, 67, 12
1, 107553, Note_on_c, 0, 83, 67
1, 107554, Note_on_c, 0, 76, 83
1, 107601, Note_on_c, 0, 76, 0
1, 107607, Control_c, 0, 67, 16
1, 107613, Note_on_c, 0, 83, 0
1, 107638, Note_on_c, 0, 80, 61
1, 107698, Note_on_c, 0, 80, 0
1, 107699, Control_c, 0, 67, 22
1, 107711, Note_on_c, 0, 83, 65
1, 107720, Note_on_c, 0, 71, 66
1, 107738, Control_c, 0, 67, 29
1, 107754, Note_on_c, 0, 71, 0
1, 107755, Control_c, 0, 67, 34
1, 107774, Control_c, 0, 67, 38
1, 107779, Note_on_c, 0, 83, 0
1, 107791, Control_c, 0, 67, 42
1, 107804, Note_on_c, 0, 80, 61
1, 107828, Control_c, 0, 67, 48
1, 107877, Note_on_c, 0, 80, 0
1, 107881, Control_c, 0, 67, 56
1, 107901, Control_c, 0, 67, 62
1, 107902, Note_on_c, 0, 83, 54
1, 107914, Note_on_c, 0, 76, 67
1, 107919, Control_c, 0, 67, 68
1, 107937, Control_c, 0, 67, 73
1, 107944, Note_on_c, 0, 76, 0
1, 107952, Control_c, 0, 67, 80
1, 107961, Note_on_c, 0, 83, 0
1, 107972, Control_c, 0, 67, 86
1, 107990, Control_c, 0, 67, 91
1, 107995, Note_on_c, 0, 80, 53
1, 108010, Control_c, 0, 67, 96
1, 108027, Control_c, 0, 67, 101
1, 108041, Note_on_c, 0, 80, 0
1, 108062, Note_on_c, 0, 83, 54
1, 108063, Control_c, 0, 67, 108
1, 108067, Note_on_c, 0, 71, 63
1, 108082, Control_c, 0, 67, 114
1, 108102, Control_c, 0, 67, 119
1, 108107, Note_on_c, 0, 71, 0
1, 108120, Control_c, 0, 67, 125
1, 108124, Note_on_c, 0, 83, 0
1, 108150, Note_on_c, 0, 80, 57
1, 108199, Note_on_c, 0, 80, 0
1, 108237, Note_on_c, 0, 76, 68
1, 108238, Note_on_c, 0, 83, 60
1, 108271, Note_on_c, 0, 76, 0
1, 108295, Note_on_c, 0, 83, 0
1, 108331, Note_on_c, 0, 80, 53
1, 108360, Control_c, 0, 64, 25
1, 108370, Note_on_c, 0, 80, 0
1, 108413, Note_on_c, 0, 83, 56
1, 108413, Note_on_c, 0, 71, 64
1, 108451, Note_on_c, 0, 71, 0
1, 108465, Note_on_c, 0, 83, 0
1, 108486, Note_on_c, 0, 80, 50
1, 108541, Note_on_c, 0, 80, 0
1, 108586, Note_on_c, 0, 76, 68
1, 108591, Note_on_c, 0, 83, 58
1, 108619, Note_on_c, 0, 76, 0
1, 108640, Note_on_c, 0, 83, 0
1, 108654, Control_c, 0, 64, 21
1, 108669, Note_on_c, 0, 80, 54
1, 108715, Note_on_c, 0, 80, 0
1, 108753, Note_on_c, 0, 71, 57
1, 108756, Note_on_c, 0, 83, 65
1, 108779, Note_on_c, 0, 71, 0
1, 108839, Note_on_c, 0, 83, 0
1, 108861, Note_on_c, 0, 80, 48
1, 108898, Note_on_c, 0, 80, 0
1, 108929, Note_on_c, 0, 75, 75
1, 108978, Note_on_c, 0, 75, 0
1, 109016, Note_on_c, 0, 81, 62
1, 109056, Control_c, 0, 64, 17
1, 109062, Note_on_c, 0, 81, 0
1, 109078, Note_on_c, 0, 71, 54
1, 109106, Note_on_c, 0, 71, 0
1, 109115, Note_on_c, 0, 83, 54
1, 109158, Note_on_c, 0, 83, 0
1, 109187, Note_on_c, 0, 81, 59
1, 109238, Note_on_c, 0, 81, 0
1, 109258, Note_on_c, 0, 75, 56
1, 109263, Note_on_c, 0, 84, 60
1, 109287, Note_on_c, 0, 75, 0
1, 109312, Note_on_c, 0, 84, 0
1, 109367, Note_on_c, 0, 81, 51
1, 109396, Note_on_c, 0, 81, 0
1, 109430, Note_on_c, 0, 71, 50
1, 109438, Note_on_c, 0, 83, 52
1, 109459, Note_on_c, 0, 71, 0
1, 109488, Note_on_c, 0, 83, 0
1, 109505, Note_on_c, 0, 81, 52
1, 109572, Note_on_c, 0, 81, 0
1, 109595, Note_on_c, 0, 84, 60
1, 109609, Note_on_c, 0, 75, 53
1, 109633, Note_on_c, 0, 75, 0
1, 109642, Note_on_c, 0, 84, 0
1, 109696, Note_on_c, 0, 81, 50
1, 109749, Note_on_c, 0, 81, 0
1, 109791, Note_on_c, 0, 83, 51
1, 109797, Note_on_c, 0, 71, 49
1, 109824, Note_on_c, 0, 71, 0
1, 109837, Note_on_c, 0, 83, 0
1, 109864, Note_on_c, 0, 81, 54
1, 109927, Note_on_c, 0, 81, 0
1, 109973, Note_on_c, 0, 84, 48
1, 109978, Note_on_c, 0, 75, 47
1, 110008, Note_on_c, 0, 75, 0
1, 110012, Note_on_c, 0, 84, 0
1, 110060, Note_on_c, 0, 81, 45
1, 110098, Note_on_c, 0, 81, 0
1, 110142, Note_on_c, 0, 83, 46
1, 110154, Note_on_c, 0, 71, 36
1, 110192, Note_on_c, 0, 71, 0
1, 110194, Note_on_c, 0, 83, 0
1, 110219, Note_on_c, 0, 81, 41
1, 110272, Note_on_c, 0, 81, 0
1, 110311, Note_on_c, 0, 84, 56
1, 110312, Note_on_c, 0, 75, 52
1, 110344, Note_on_c, 0, 75, 0
1, 110362, Note_on_c, 0, 84, 0
1, 110395, Note_on_c, 0, 81, 52
1, 110450, Note_on_c, 0, 81, 0
1, 110476, Note_on_c, 0, 71, 56
1, 110490, Note_on_c, 0, 83, 49
1, 110510, Note_on_c, 0, 71, 0
1, 110532, Note_on_c, 0, 83, 0
1, 110579, Note_on_c, 0, 81, 48
1, 110615, Note_on_c, 0, 81, 0
1, 110646, Note_on_c, 0, 84, 57
1, 110681, Note_on_c, 0, 75, 46
1, 110711, Note_on_c, 0, 75, 0
1, 110713, Note_on_c, 0, 84, 0
1, 110752, Note_on_c, 0, 81, 45
1, 110797, Note_on_c, 0, 81, 0
1, 110829, Note_on_c, 0, 83, 53
1, 110854, Note_on_c, 0, 71, 40
1, 110884, Note_on_c, 0, 83, 0
1, 110885, Note_on_c, 0, 71, 0
1, 110916, Note_on_c, 0, 81, 49
1, 110969, Note_on_c, 0, 81, 0
1, 111004, Note_on_c, 0, 84, 56
1, 111018, Note_on_c, 0, 75, 49
1, 111046, Note_on_c, 0, 75, 0
1, 111054, Note_on_c, 0, 84, 0
1, 111083, Poly_aftertouch_c, 0, 86, 0
1, 111090, Note_on_c, 0, 81, 53
1, 111144, Note_on_c, 0, 81, 0
1, 111173, Note_on_c, 0, 83, 57
1, 111179, Note_on_c, 0, 71, 51
1, 111212, Note_on_c, 0, 71, 0
1, 111229, Note_on_c, 0, 83, 0
1, 111279, Note_on_c, 0, 81, 49
1, 111323, Note_on_c, 0, 81, 0
1, 111350, Note_on_c, 0, 75, 53
1, 111353, Note_on_c, 0, 84, 55
1, 111387, Note_on_c, 0, 75, 0
1, 111398, Note_on_c, 0, 84, 0
1, 111440, Note_on_c, 0, 81, 55
1, 111479, Note_on_c, 0, 81, 0
1, 111499, Note_on_c, 0, 71, 47
1, 111504, Note_on_c, 0, 83, 51
1, 111530, Note_on_c, 0, 71, 0
1, 111559, Note_on_c, 0, 83, 0
1, 111596, Note_on_c, 0, 81, 51
1, 111679, Control_c, 0, 64, 24
1, 111681, Note_on_c, 0, 81, 0
1, 111696, Control_c, 0, 64, 39
1, 111715, Control_c, 0, 64, 56
1, 111729, Note_on_c, 0, 75, 46
1, 111733, Note_on_c, 0, 85, 51
1, 111734, Control_c, 0, 64, 66
1, 111753, Control_c, 0, 64, 71
1, 111766, Note_on_c, 0, 75, 0
1, 111769, Control_c, 0, 64, 73
1, 111788, Control_c, 0, 64, 77
1, 111792, Note_on_c, 0, 85, 0
1, 111806, Control_c, 0, 64, 83
1, 111813, Note_on_c, 0, 76, 48
1, 111825, Control_c, 0, 64, 90
1, 111837, Note_on_c, 0, 81, 39
1, 111844, Control_c, 0, 64, 95
1, 111875, Note_on_c, 0, 81, 0
1, 111885, Note_on_c, 0, 75, 57
1, 111893, Note_on_c, 0, 76, 0
1, 111898, Control_c, 0, 64, 99
1, 111911, Note_on_c, 0, 83, 53
1, 111936, Note_on_c, 0, 75, 0
1, 111953, Note_on_c, 0, 83, 0
1, 111971, Note_on_c, 0, 76, 43
1, 111985, Note_on_c, 0, 81, 52
1, 111990, Control_c, 0, 64, 103
1, 112041, Note_on_c, 0, 76, 0
1, 112043, Note_on_c, 0, 81, 0
1, 112056, Note_on_c, 0, 75, 52
1, 112060, Note_on_c, 0, 85, 66
1, 112084, Note_on_c, 0, 75, 0
1, 112109, Note_on_c, 0, 85, 0
1, 112113, Note_on_c, 0, 76, 42
1, 112158, Note_on_c, 0, 81, 59
1, 112167, Note_on_c, 0, 75, 69
1, 112170, Note_on_c, 0, 76, 0
1, 112194, Note_on_c, 0, 75, 0
1, 112198, Note_on_c, 0, 81, 0
1, 112230, Note_on_c, 0, 83, 58
1, 112248, Note_on_c, 0, 76, 47
1, 112277, Note_on_c, 0, 83, 0
1, 112296, Note_on_c, 0, 76, 0
1, 112303, Note_on_c, 0, 75, 65
1, 112309, Note_on_c, 0, 81, 62
1, 112325, Note_on_c, 0, 75, 0
1, 112363, Note_on_c, 0, 81, 0
1, 112377, Control_c, 0, 64, 107
1, 112382, Note_on_c, 0, 85, 67
1, 112390, Note_on_c, 0, 76, 46
1, 112413, Note_on_c, 0, 75, 67
1, 112424, Note_on_c, 0, 76, 0
1, 112441, Note_on_c, 0, 85, 0
1, 112453, Control_c, 0, 67, 119
1, 112457, Note_on_c, 0, 75, 0
1, 112473, Control_c, 0, 67, 112
1, 112473, Note_on_c, 0, 81, 60
1, 112490, Control_c, 0, 67, 105
1, 112508, Control_c, 0, 67, 94
1, 112516, Note_on_c, 0, 76, 54
1, 112520, Note_on_c, 0, 81, 0
1, 112527, Control_c, 0, 67, 80
1, 112558, Control_c, 0, 67, 65
1, 112561, Note_on_c, 0, 83, 71
1, 112562, Note_on_c, 0, 76, 0
1, 112576, Control_c, 0, 67, 50
1, 112577, Note_on_c, 0, 75, 64
1, 112596, Control_c, 0, 67, 35
1, 112605, Note_on_c, 0, 75, 0
1, 112615, Control_c, 0, 67, 19
1, 112630, Note_on_c, 0, 83, 0
1, 112636, Note_on_c, 0, 81, 69
1, 112650, Control_c, 0, 67, 0
1, 112651, Note_on_c, 0, 76, 61
1, 112694, Note_on_c, 0, 75, 66
1, 112695, Note_on_c, 0, 76, 0
1, 112714, Note_on_c, 0, 81, 0
1, 112727, Note_on_c, 0, 85, 77
1, 112728, Note_on_c, 0, 75, 0
1, 112783, Note_on_c, 0, 76, 51
1, 112797, Note_on_c, 0, 85, 0
1, 112802, Note_on_c, 0, 81, 62
1, 112824, Note_on_c, 0, 76, 0
1, 112836, Note_on_c, 0, 75, 68
1, 112867, Note_on_c, 0, 75, 0
1, 112869, Note_on_c, 0, 81, 0
1, 112883, Note_on_c, 0, 83, 72
1, 112918, Note_on_c, 0, 76, 57
1, 112953, Note_on_c, 0, 75, 64
1, 112964, Note_on_c, 0, 83, 0
1, 112965, Note_on_c, 0, 81, 72
1, 112970, Note_on_c, 0, 76, 0
1, 113003, Note_on_c, 0, 75, 0
1, 113041, Note_on_c, 0, 81, 0
1, 113043, Note_on_c, 0, 76, 52
1, 113072, Note_on_c, 0, 90, 83
1, 113093, Note_on_c, 0, 76, 0
1, 113099, Note_on_c, 0, 75, 63
1, 113135, Note_on_c, 0, 75, 0
1, 113156, Note_on_c, 0, 90, 0
1, 113162, Note_on_c, 0, 83, 74
1, 113165, Note_on_c, 0, 81, 70
1, 113182, Note_on_c, 0, 76, 49
1, 113210, Note_on_c, 0, 81, 0
1, 113225, Note_on_c, 0, 75, 72
1, 113226, Note_on_c, 0, 76, 0
1, 113227, Note_on_c, 0, 83, 0
1, 113242, Note_on_c, 0, 90, 89
1, 113258, Note_on_c, 0, 75, 0
1, 113314, Note_on_c, 0, 76, 49
1, 113323, Note_on_c, 0, 90, 0
1, 113334, Note_on_c, 0, 81, 75
1, 113335, Note_on_c, 0, 83, 82
1, 113363, Note_on_c, 0, 76, 0
1, 113364, Note_on_c, 0, 75, 72
1, 113383, Note_on_c, 0, 81, 0
1, 113393, Note_on_c, 0, 75, 0
1, 113407, Note_on_c, 0, 83, 0
1, 113410, Note_on_c, 0, 90, 92
1, 113440, Note_on_c, 0, 76, 55
1, 113509, Note_on_c, 0, 90, 0
1, 113510, Note_on_c, 0, 75, 78
1, 113512, Note_on_c, 0, 76, 0
1, 113513, Note_on_c, 0, 83, 87
1, 113518, Note_on_c, 0, 81, 80
1, 113547, Note_on_c, 0, 75, 0
1, 113559, Note_on_c, 0, 81, 0
1, 113586, Note_on_c, 0, 83, 0
1, 113591, Note_on_c, 0, 76, 54
1, 113595, Note_on_c, 0, 90, 91
1, 113644, Note_on_c, 0, 76, 0
1, 113648, Note_on_c, 0, 75, 76
1, 113672, Note_on_c, 0, 90, 0
1, 113675, Note_on_c, 0, 83, 87
1, 113679, Note_on_c, 0, 81, 80
1, 113683, Note_on_c, 0, 75, 0
1, 113720, Note_on_c, 0, 76, 62
1, 113728, Note_on_c, 0, 81, 0
1, 113754, Note_on_c, 0, 83, 0
1, 113761, Note_on_c, 0, 90, 93
1, 113775, Note_on_c, 0, 76, 0
1, 113782, Note_on_c, 0, 75, 78
1, 113815, Note_on_c, 0, 75, 0
1, 113843, Note_on_c, 0, 83, 86
1, 113845, Note_on_c, 0, 76, 71
1, 113846, Note_on_c, 0, 81, 83
1, 113853, Note_on_c, 0, 90, 0
1, 113904, Note_on_c, 0, 81, 0
1, 113916, Note_on_c, 0, 75, 81
1, 113918, Note_on_c, 0, 76, 0
1, 113928, Note_on_c, 0, 90, 91
1, 113931, Note_on_c, 0, 83, 0
1, 113948, Note_on_c, 0, 75, 0
1, 113984, Note_on_c, 0, 76, 63
1, 114007, Note_on_c, 0, 90, 0
1, 114016, Note_on_c, 0, 83, 89
1, 114019, Note_on_c, 0, 81, 83
1, 114045, Note_on_c, 0, 76, 0
1, 114047, Note_on_c, 0, 75, 82
1, 114073, Note_on_c, 0, 81, 0
1, 114090, Note_on_c, 0, 75, 0
1, 114096, Note_on_c, 0, 83, 0
1, 114100, Note_on_c, 0, 90, 95
1, 114115, Note_on_c, 0, 76, 63
1, 114169, Note_on_c, 0, 75, 77
1, 114170, Note_on_c, 0, 76, 0
1, 114180, Note_on_c, 0, 83, 85
1, 114181, Note_on_c, 0, 81, 82
1, 114190, Note_on_c, 0, 90, 0
1, 114225, Note_on_c, 0, 75, 0
1, 114240, Note_on_c, 0, 76, 68
1, 114249, Note_on_c, 0, 83, 0
1, 114255, Note_on_c, 0, 90, 89
1, 114278, Note_on_c, 0, 81, 0
1, 114310, Note_on_c, 0, 76, 0
1, 114330, Note_on_c, 0, 83, 80
1, 114332, Note_on_c, 0, 73, 69
1, 114398, Note_on_c, 0, 83, 0
1, 114399, Note_on_c, 0, 90, 0
1, 114423, Note_on_c, 0, 75, 87
1, 114444, Note_on_c, 0, 73, 0
1, 114447, Control_c, 0, 64, 111
1, 114491, Note_on_c, 0, 75, 0
1, 114614, Control_c, 0, 64, 115
1, 114663, Note_on_c, 0, 88, 84
1, 114674, Note_on_c, 0, 80, 61
1, 114683, Note_on_c, 0, 83, 64
1, 114701, Note_on_c, 0, 76, 88
1, 114717, Note_on_c, 0, 64, 62
1, 114726, Control_c, 0, 64, 102
1, 114742, Control_c, 0, 64, 75
1, 114762, Control_c, 0, 64, 0
1, 114964, Control_c, 0, 64, 41
1, 114982, Control_c, 0, 64, 64
1, 115001, Control_c, 0, 64, 75
1, 115020, Control_c, 0, 64, 84
1, 115036, Control_c, 0, 64, 92
1, 115055, Control_c, 0, 64, 98
1, 115073, Control_c, 0, 64, 103
1, 115111, Control_c, 0, 64, 108
1, 115202, Control_c, 0, 64, 112
1, 115276, Control_c, 0, 64, 116
1, 115427, Poly_aftertouch_c, 0, 83, 24
1, 115519, Poly_aftertouch_c, 0, 76, 24
1, 115605, Control_c, 0, 67, 9
1, 115661, Control_c, 0, 67, 14
1, 115697, Control_c, 0, 67, 18
1, 115716, Control_c, 0, 67, 24
1, 115733, Control_c, 0, 67, 33
1, 115740, Note_on_c, 0, 74, 39
1, 115750, Note_on_c, 0, 71, 38
1, 115751, Control_c, 0, 67, 42
1, 115768, Note_on_c, 0, 68, 38
1, 115769, Control_c, 0, 67, 49
1, 115777, Poly_aftertouch_c, 0, 76, 32
1, 115789, Control_c, 0, 64, 102
1, 115790, Control_c, 0, 67, 56
1, 115807, Control_c, 0, 64, 67
1, 115810, Control_c, 0, 67, 63
1, 115820, Note_on_c, 0, 76, 0
1, 115820, Poly_aftertouch_c, 0, 76, 0
1, 115821, Poly_aftertouch_c, 0, 76, 0
1, 115824, Control_c, 0, 64, 0
1, 115826, Control_c, 0, 67, 74
1, 115834, Poly_aftertouch_c, 0, 64, 24
1, 115843, Control_c, 0, 67, 86
1, 115863, Control_c, 0, 67, 97
1, 115882, Control_c, 0, 67, 104
1, 115899, Control_c, 0, 67, 110
1, 115918, Control_c, 0, 64, 32
1, 115920, Control_c, 0, 67, 114
1, 115936, Control_c, 0, 64, 59
1, 115956, Control_c, 0, 64, 77
1, 115957, Poly_aftertouch_c, 0, 80, 24
1, 115957, Control_c, 0, 67, 118
1, 115962, Poly_aftertouch_c, 0, 83, 22
1, 115973, Control_c, 0, 64, 88
1, 115982, Note_on_c, 0, 83, 0
1, 115982, Poly_aftertouch_c, 0, 83, 0
1, 115989, Control_c, 0, 64, 97
1, 116000, Note_on_c, 0, 80, 0
1, 116000, Poly_aftertouch_c, 0, 80, 0
1, 116008, Control_c, 0, 67, 124
1, 116028, Note_on_c, 0, 88, 0
1, 116028, Control_c, 0, 64, 102
1, 116091, Poly_aftertouch_c, 0, 64, 32
1, 116196, Note_on_c, 0, 71, 0
1, 116237, Note_on_c, 0, 68, 0
1, 116367, Note_on_c, 0, 88, 46
1, 116445, Note_on_c, 0, 86, 57
1, 116452, Note_on_c, 0, 88, 0
1, 116524, Note_on_c, 0, 84, 61
1, 116555, Note_on_c, 0, 86, 0
1, 116586, Note_on_c, 0, 84, 0
1, 116615, Note_on_c, 0, 83, 62
1, 116676, Note_on_c, 0, 83, 0
1, 116687, Control_c, 0, 64, 95
1, 116705, Control_c, 0, 64, 90
1, 116709, Note_on_c, 0, 84, 67
1, 116720, Note_on_c, 0, 69, 38
1, 116721, Note_on_c, 0, 72, 49
1, 116723, Control_c, 0, 64, 82
1, 116743, Control_c, 0, 64, 74
1, 116762, Control_c, 0, 64, 67
1, 116764, Note_on_c, 0, 74, 0
1, 116779, Control_c, 0, 64, 63
1, 116793, Note_on_c, 0, 84, 0
1, 116802, Note_on_c, 0, 83, 71
1, 116835, Control_c, 0, 64, 62
1, 116853, Control_c, 0, 64, 61
1, 116862, Note_on_c, 0, 83, 0
1, 116872, Control_c, 0, 64, 59
1, 116886, Note_on_c, 0, 81, 73
1, 116945, Control_c, 0, 64, 57
1, 116952, Note_on_c, 0, 81, 0
1, 116979, Note_on_c, 0, 80, 74
1, 117048, Note_on_c, 0, 69, 0
1, 117059, Note_on_c, 0, 80, 0
1, 117066, Note_on_c, 0, 81, 80
1, 117093, Control_c, 0, 64, 55
1, 117139, Note_on_c, 0, 83, 80
1, 117143, Note_on_c, 0, 81, 0
1, 117244, Note_on_c, 0, 84, 86
1, 117255, Note_on_c, 0, 83, 0
1, 117255, Control_c, 0, 64, 53
1, 117313, Note_on_c, 0, 84, 0
1, 117341, Note_on_c, 0, 86, 77
1, 117384, Note_on_c, 0, 72, 0
1, 117401, Control_c, 0, 64, 51
1, 117406, Note_on_c, 0, 71, 43
1, 117423, Note_on_c, 0, 88, 80
1, 117427, Note_on_c, 0, 86, 0
1, 117445, Note_on_c, 0, 74, 47
1, 117497, Note_on_c, 0, 88, 0
1, 117499, Note_on_c, 0, 68, 18
1, 117514, Note_on_c, 0, 89, 77
1, 117606, Control_c, 0, 64, 49
1, 117609, Note_on_c, 0, 88, 76
1, 117623, Note_on_c, 0, 89, 0
1, 117671, Note_on_c, 0, 88, 0
1, 117676, Note_on_c, 0, 87, 77
1, 117762, Note_on_c, 0, 88, 80
1, 117774, Note_on_c, 0, 87, 0
1, 117827, Note_on_c, 0, 88, 0
1, 117839, Note_on_c, 0, 86, 76
1, 117841, Note_on_c, 0, 71, 0
1, 117861, Control_c, 0, 64, 47
1, 117906, Note_on_c, 0, 86, 0
1, 117921, Note_on_c, 0, 68, 0
1, 117940, Note_on_c, 0, 84, 69
1, 118004, Note_on_c, 0, 84, 0
1, 118009, Control_c, 0, 64, 45
1, 118025, Note_on_c, 0, 83, 67
1, 118098, Note_on_c, 0, 83, 0
1, 118121, Note_on_c, 0, 84, 68
1, 118184, Note_on_c, 0, 72, 39
1, 118190, Note_on_c, 0, 84, 0
1, 118191, Note_on_c, 0, 69, 32
1, 118211, Control_c, 0, 64, 43
1, 118227, Note_on_c, 0, 86, 66
1, 118230, Note_on_c, 0, 74, 0
1, 118284, Control_c, 0, 64, 41
1, 118317, Note_on_c, 0, 84, 65
1, 118355, Note_on_c, 0, 86, 0
1, 118388, Note_on_c, 0, 84, 0
1, 118397, Note_on_c, 0, 83, 63
1, 118446, Note_on_c, 0, 83, 0
1, 118479, Note_on_c, 0, 81, 71
1, 118484, Note_on_c, 0, 64, 0
1, 118484, Poly_aftertouch_c, 0, 64, 0
1, 118485, Poly_aftertouch_c, 0, 64, 0
1, 118487, Note_on_c, 0, 72, 0
1, 118519, Note_on_c, 0, 69, 0
1, 118541, Note_on_c, 0, 81, 0
1, 118569, Note_on_c, 0, 80, 68
1, 118643, Note_on_c, 0, 80, 0
1, 118658, Note_on_c, 0, 81, 65
1, 118691, Control_c, 0, 64, 37
1, 118726, Note_on_c, 0, 81, 0
1, 118756, Note_on_c, 0, 83, 64
1, 118910, Note_on_c, 0, 84, 74
1, 118935, Note_on_c, 0, 72, 45
1, 118937, Note_on_c, 0, 66, 33
1, 118940, Note_on_c, 0, 83, 0
1, 118941, Note_on_c, 0, 57, 38
1, 118951, Note_on_c, 0, 69, 39
1, 118972, Note_on_c, 0, 60, 38
1, 119062, Note_on_c, 0, 72, 0
1, 119062, Note_on_c, 0, 72, 11
1, 119075, Control_c, 0, 64, 45
1, 119108, Control_c, 0, 64, 57
1, 119108, Control_c, 0, 67, 118
1, 119127, Control_c, 0, 64, 66
1, 119128, Control_c, 0, 67, 112
1, 119146, Control_c, 0, 64, 71
1, 119148, Control_c, 0, 67, 102
1, 119164, Control_c, 0, 64, 75
1, 119165, Control_c, 0, 67, 89
1, 119181, Note_on_c, 0, 57, 0
1, 119181, Control_c, 0, 64, 79
1, 119182, Control_c, 0, 67, 72
1, 119200, Control_c, 0, 64, 83
1, 119201, Control_c, 0, 67, 53
1, 119210, Note_on_c, 0, 60, 0
1, 119212, Note_on_c, 0, 66, 0
1, 119219, Control_c, 0, 64, 88
1, 119221, Control_c, 0, 67, 32
1, 119237, Control_c, 0, 64, 93
1, 119238, Control_c, 0, 67, 14
1, 119273, Control_c, 0, 64, 97
1, 119310, Control_c, 0, 64, 101
1, 119312, Control_c, 0, 67, 0
1, 119317, Note_on_c, 0, 81, 72
1, 119347, Control_c, 0, 64, 105
1, 119360, Note_on_c, 0, 84, 0
1, 119439, Control_c, 0, 64, 110
1, 119488, Note_on_c, 0, 78, 76
1, 119518, Note_on_c, 0, 72, 0
1, 119644, Note_on_c, 0, 69, 0
1, 119710, Note_on_c, 0, 83, 65
1, 119731, Note_on_c, 0, 78, 0
1, 119741, Note_on_c, 0, 67, 33
1, 119745, Note_on_c, 0, 81, 0
1, 119750, Note_on_c, 0, 64, 38
1, 119752, Control_c, 0, 64, 102
1, 119761, Note_on_c, 0, 71, 44
1, 119763, Note_on_c, 0, 59, 38
1, 119771, Control_c, 0, 64, 80
1, 119789, Control_c, 0, 64, 38
1, 119807, Control_c, 0, 64, 0
1, 119864, Control_c, 0, 67, 9
1, 119900, Control_c, 0, 67, 14
1, 119937, Control_c, 0, 64, 26
1, 119938, Control_c, 0, 67, 20
1, 119955, Control_c, 0, 64, 38
1, 119956, Control_c, 0, 67, 25
1, 119972, Control_c, 0, 64, 51
1, 119973, Control_c, 0, 67, 32
1, 119991, Control_c, 0, 64, 59
1, 119992, Control_c, 0, 67, 41
1, 120011, Control_c, 0, 67, 49
1, 120043, Control_c, 0, 64, 53
1, 120045, Control_c, 0, 67, 56
1, 120062, Control_c, 0, 64, 35
1, 120063, Control_c, 0, 67, 62
1, 120082, Control_c, 0, 64, 9
1, 120083, Control_c, 0, 67, 69
1, 120100, Control_c, 0, 64, 0
1, 120101, Control_c, 0, 67, 78
1, 120116, Control_c, 0, 67, 90
1, 120121, Note_on_c, 0, 79, 57
1, 120135, Control_c, 0, 67, 103
1, 120138, Note_on_c, 0, 64, 0
1, 120146, Note_on_c, 0, 83, 0
1, 120155, Control_c, 0, 64, 20
1, 120156, Control_c, 0, 67, 115
1, 120174, Control_c, 0, 64, 39
1, 120175, Control_c, 0, 67, 123
1, 120189, Control_c, 0, 64, 57
1, 120190, Control_c, 0, 67, 127
1, 120208, Control_c, 0, 64, 67
1, 120227, Control_c, 0, 64, 70
1, 120264, Control_c, 0, 64, 73
1, 120272, Note_on_c, 0, 71, 0
1, 120307, Note_on_c, 0, 76, 55
1, 120321, Control_c, 0, 64, 76
1, 120352, Note_on_c, 0, 79, 0
1, 120356, Control_c, 0, 64, 78
1, 120514, Note_on_c, 0, 81, 49
1, 120527, Note_on_c, 0, 76, 0
1, 120541, Control_c, 0, 64, 75
1, 120561, Control_c, 0, 64, 70
1, 120561, Note_on_c, 0, 63, 34
1, 120561, Note_on_c, 0, 66, 33
1, 120570, Note_on_c, 0, 67, 0
1, 120573, Note_on_c, 0, 69, 16
1, 120577, Control_c, 0, 64, 57
1, 120596, Control_c, 0, 64, 32
1, 120613, Control_c, 0, 64, 0
1, 120743, Control_c, 0, 64, 25
1, 120762, Control_c, 0, 64, 40
1, 120781, Control_c, 0, 64, 57
1, 120801, Control_c, 0, 64, 69
1, 120816, Control_c, 0, 64, 73
1, 120835, Control_c, 0, 64, 76
1, 120852, Poly_aftertouch_c, 0, 69, 24
1, 120852, Control_c, 0, 64, 78
1, 120873, Control_c, 0, 64, 80
1, 120875, Note_on_c, 0, 59, 0
1, 120889, Control_c, 0, 64, 82
1, 120900, Note_on_c, 0, 66, 0
1, 120908, Control_c, 0, 64, 85
1, 120927, Control_c, 0, 64, 88
1, 120940, Note_on_c, 0, 69, 0
1, 120940, Poly_aftertouch_c, 0, 69, 0
1, 120944, Note_on_c, 0, 78, 51
1, 120974, Note_on_c, 0, 63, 0
1, 120982, Note_on_c, 0, 81, 0
1, 120998, Control_c, 0, 64, 92
1, 121017, Control_c, 0, 67, 121
1, 121035, Control_c, 0, 67, 113
1, 121051, Control_c, 0, 67, 102
1, 121071, Control_c, 0, 67, 88
1, 121089, Control_c, 0, 67, 69
1, 121108, Control_c, 0, 67, 45
1, 121119, Note_on_c, 0, 75, 53
1, 121125, Control_c, 0, 64, 96
1, 121126, Control_c, 0, 67, 18
1, 121144, Control_c, 0, 67, 0
1, 121168, Note_on_c, 0, 75, 0
1, 121213, Note_on_c, 0, 78, 0
1, 121352, Note_on_c, 0, 76, 66
1, 121381, Note_on_c, 0, 64, 77
1, 121412, Note_on_c, 0, 52, 61
1, 121420, Control_c, 0, 64, 76
1, 121440, Control_c, 0, 64, 37
1, 121458, Control_c, 0, 64, 0
1, 121568, Control_c, 0, 64, 45
1, 121586, Control_c, 0, 64, 65
1, 121604, Control_c, 0, 64, 72
1, 121623, Control_c, 0, 64, 76
1, 121641, Control_c, 0, 64, 80
1, 121661, Control_c, 0, 64, 83
1, 121679, Control_c, 0, 64, 88
1, 121697, Control_c, 0, 64, 92
1, 121987, Control_c, 0, 67, 9
1, 122025, Control_c, 0, 67, 17
1, 122044, Control_c, 0, 67, 21
1, 122080, Control_c, 0, 67, 27
1, 122099, Control_c, 0, 67, 31
1, 122117, Control_c, 0, 67, 36
1, 122156, Control_c, 0, 67, 41
1, 122211, Poly_aftertouch_c, 0, 52, 24
1, 122264, Control_c, 0, 64, 85
1, 122284, Control_c, 0, 64, 77
1, 122293, Note_on_c, 0, 56, 33
1, 122301, Control_c, 0, 64, 63
1, 122302, Control_c, 0, 67, 45
1, 122306, Note_on_c, 0, 59, 36
1, 122307, Note_on_c, 0, 62, 39
1, 122320, Control_c, 0, 64, 37
1, 122337, Control_c, 0, 64, 0
1, 122360, Note_on_c, 0, 64, 0
1, 122394, Control_c, 0, 67, 51
1, 122431, Control_c, 0, 67, 56
1, 122458, Poly_aftertouch_c, 0, 52, 32
1, 122466, Control_c, 0, 64, 30
1, 122482, Note_on_c, 0, 76, 0
1, 122483, Control_c, 0, 64, 56
1, 122484, Control_c, 0, 67, 63
1, 122505, Control_c, 0, 64, 73
1, 122506, Control_c, 0, 67, 70
1, 122522, Control_c, 0, 64, 80
1, 122524, Control_c, 0, 67, 76
1, 122540, Control_c, 0, 64, 83
1, 122541, Control_c, 0, 67, 80
1, 122560, Control_c, 0, 67, 84
1, 122577, Control_c, 0, 64, 87
1, 122578, Control_c, 0, 67, 90
1, 122597, Control_c, 0, 64, 92
1, 122598, Control_c, 0, 67, 98
1, 122615, Control_c, 0, 64, 96
1, 122615, Control_c, 0, 67, 107
1, 122633, Control_c, 0, 67, 117
1, 122652, Control_c, 0, 67, 123
1, 122671, Control_c, 0, 64, 100
1, 122688, Control_c, 0, 67, 127
1, 122729, Note_on_c, 0, 59, 0
1, 122808, Note_on_c, 0, 56, 0
1, 122853, Note_on_c, 0, 76, 54
1, 122938, Note_on_c, 0, 74, 58
1, 122940, Control_c, 0, 64, 93
1, 122953, Note_on_c, 0, 76, 0
1, 122960, Control_c, 0, 64, 87
1, 122980, Control_c, 0, 64, 81
1, 122996, Control_c, 0, 64, 75
1, 123011, Note_on_c, 0, 72, 65
1, 123015, Control_c, 0, 64, 71
1, 123034, Control_c, 0, 64, 67
1, 123041, Note_on_c, 0, 74, 0
1, 123053, Control_c, 0, 64, 65
1, 123071, Control_c, 0, 64, 62
1, 123072, Note_on_c, 0, 72, 0
1, 123090, Control_c, 0, 64, 60
1, 123111, Note_on_c, 0, 71, 65
1, 123157, Note_on_c, 0, 71, 0
1, 123162, Control_c, 0, 64, 58
1, 123205, Note_on_c, 0, 72, 68
1, 123206, Note_on_c, 0, 57, 44
1, 123211, Note_on_c, 0, 60, 48
1, 123215, Note_on_c, 0, 62, 0
1, 123217, Control_c, 0, 64, 56
1, 123261, Note_on_c, 0, 72, 0
1, 123285, Note_on_c, 0, 71, 66
1, 123311, Control_c, 0, 67, 123
1, 123330, Control_c, 0, 64, 54
1, 123331, Control_c, 0, 67, 118
1, 123335, Note_on_c, 0, 71, 0
1, 123348, Control_c, 0, 67, 109
1, 123367, Control_c, 0, 67, 96
1, 123369, Note_on_c, 0, 69, 66
1, 123384, Control_c, 0, 67, 81
1, 123404, Control_c, 0, 67, 63
1, 123421, Control_c, 0, 67, 44
1, 123425, Note_on_c, 0, 69, 0
1, 123440, Control_c, 0, 67, 27
1, 123458, Control_c, 0, 67, 10
1, 123461, Note_on_c, 0, 68, 68
1, 123476, Control_c, 0, 67, 0
1, 123490, Note_on_c, 0, 57, 0
1, 123521, Note_on_c, 0, 68, 0
1, 123545, Note_on_c, 0, 69, 72
1, 123551, Control_c, 0, 64, 52
1, 123621, Note_on_c, 0, 69, 0
1, 123623, Note_on_c, 0, 71, 73
1, 123706, Note_on_c, 0, 72, 80
1, 123709, Note_on_c, 0, 71, 0
1, 123785, Note_on_c, 0, 72, 0
1, 123814, Note_on_c, 0, 74, 78
1, 123892, Note_on_c, 0, 74, 0
1, 123895, Note_on_c, 0, 59, 42
1, 123902, Note_on_c, 0, 76, 76
1, 123911, Note_on_c, 0, 62, 52
1, 123933, Note_on_c, 0, 56, 35
1, 123967, Note_on_c, 0, 76, 0
1, 123982, Note_on_c, 0, 60, 0
1, 123987, Note_on_c, 0, 77, 69
1, 124084, Note_on_c, 0, 76, 64
1, 124086, Note_on_c, 0, 77, 0
1, 124118, Control_c, 0, 67, 8
1, 124136, Control_c, 0, 64, 50
1, 124140, Note_on_c, 0, 76, 0
1, 124152, Note_on_c, 0, 75, 72
1, 124171, Control_c, 0, 67, 17
1, 124190, Control_c, 0, 67, 22
1, 124228, Control_c, 0, 64, 48
1, 124236, Note_on_c, 0, 75, 0
1, 124238, Note_on_c, 0, 76, 67
1, 124246, Control_c, 0, 67, 29
1, 124265, Control_c, 0, 67, 34
1, 124284, Control_c, 0, 67, 42
1, 124299, Note_on_c, 0, 76, 0
1, 124302, Control_c, 0, 64, 46
1, 124303, Control_c, 0, 67, 50
1, 124313, Note_on_c, 0, 74, 67
1, 124319, Control_c, 0, 67, 55
1, 124338, Control_c, 0, 67, 60
1, 124357, Control_c, 0, 67, 66
1, 124362, Note_on_c, 0, 59, 0
1, 124375, Control_c, 0, 67, 74
1, 124381, Note_on_c, 0, 74, 0
1, 124394, Control_c, 0, 64, 44
1, 124394, Control_c, 0, 67, 85
1, 124407, Note_on_c, 0, 56, 0
1, 124412, Control_c, 0, 67, 94
1, 124414, Note_on_c, 0, 72, 69
1, 124431, Control_c, 0, 67, 102
1, 124449, Control_c, 0, 67, 109
1, 124469, Control_c, 0, 67, 115
1, 124487, Control_c, 0, 64, 42
1, 124488, Control_c, 0, 67, 120
1, 124491, Note_on_c, 0, 72, 0
1, 124511, Note_on_c, 0, 71, 67
1, 124524, Control_c, 0, 67, 127
1, 124580, Control_c, 0, 64, 40
1, 124581, Note_on_c, 0, 71, 0
1, 124597, Note_on_c, 0, 72, 62
1, 124629, Note_on_c, 0, 60, 42
1, 124637, Note_on_c, 0, 57, 35
1, 124654, Note_on_c, 0, 72, 0
1, 124680, Note_on_c, 0, 74, 62
1, 124682, Note_on_c, 0, 62, 0
1, 124795, Note_on_c, 0, 72, 63
1, 124824, Note_on_c, 0, 74, 0
1, 124859, Note_on_c, 0, 72, 0
1, 124869, Note_on_c, 0, 71, 63
1, 124914, Note_on_c, 0, 60, 0
1, 124916, Note_on_c, 0, 52, 0
1, 124916, Poly_aftertouch_c, 0, 52, 0
1, 124917, Note_on_c, 0, 71, 0
1, 124917, Poly_aftertouch_c, 0, 52, 0
1, 124947, Note_on_c, 0, 57, 0
1, 124957, Note_on_c, 0, 69, 66
1, 125014, Note_on_c, 0, 69, 0
1, 125017, Control_c, 0, 64, 35
1, 125037, Note_on_c, 0, 68, 66
1, 125107, Note_on_c, 0, 68, 0
1, 125107, Control_c, 0, 64, 31
1, 125131, Note_on_c, 0, 69, 59
1, 125190, Note_on_c, 0, 69, 0
1, 125226, Note_on_c, 0, 71, 65
1, 125361, Note_on_c, 0, 72, 70
1, 125365, Control_c, 0, 64, 16
1, 125372, Note_on_c, 0, 54, 40
1, 125374, Note_on_c, 0, 45, 40
1, 125378, Note_on_c, 0, 71, 0
1, 125383, Control_c, 0, 64, 0
1, 125383, Note_on_c, 0, 57, 48
1, 125387, Note_on_c, 0, 60, 55
1, 125395, Note_on_c, 0, 48, 42
1, 125515, Control_c, 0, 64, 24
1, 125532, Control_c, 0, 64, 41
1, 125552, Control_c, 0, 64, 55
1, 125568, Control_c, 0, 64, 65
1, 125587, Control_c, 0, 64, 69
1, 125588, Control_c, 0, 67, 122
1, 125605, Control_c, 0, 67, 118
1, 125626, Control_c, 0, 64, 72
1, 125627, Control_c, 0, 67, 110
1, 125658, Control_c, 0, 64, 74
1, 125659, Control_c, 0, 67, 97
1, 125677, Control_c, 0, 64, 77
1, 125679, Control_c, 0, 67, 82
1, 125696, Control_c, 0, 64, 79
1, 125698, Control_c, 0, 67, 65
1, 125715, Control_c, 0, 67, 49
1, 125732, Control_c, 0, 64, 82
1, 125733, Control_c, 0, 67, 33
1, 125750, Control_c, 0, 67, 17
1, 125773, Note_on_c, 0, 54, 0
1, 125781, Note_on_c, 0, 69, 67
1, 125788, Control_c, 0, 64, 84
1, 125789, Control_c, 0, 67, 0
1, 125805, Control_c, 0, 64, 86
1, 125815, Note_on_c, 0, 48, 0
1, 125818, Note_on_c, 0, 72, 0
1, 125822, Control_c, 0, 64, 88
1, 125827, Note_on_c, 0, 45, 0
1, 125868, Note_on_c, 0, 60, 0
1, 125948, Note_on_c, 0, 66, 69
1, 126011, Note_on_c, 0, 69, 0
1, 126177, Note_on_c, 0, 71, 63
1, 126190, Control_c, 0, 64, 83
1, 126195, Note_on_c, 0, 55, 33
1, 126198, Note_on_c, 0, 59, 43
1, 126198, Note_on_c, 0, 47, 34
1, 126199, Note_on_c, 0, 57, 0
1, 126207, Note_on_c, 0, 66, 0
1, 126210, Control_c, 0, 64, 72
1, 126212, Note_on_c, 0, 52, 26
1, 126229, Control_c, 0, 64, 53
1, 126247, Control_c, 0, 64, 14
1, 126267, Control_c, 0, 64, 0
1, 126377, Control_c, 0, 67, 9
1, 126415, Control_c, 0, 67, 14
1, 126431, Control_c, 0, 64, 19
1, 126432, Control_c, 0, 67, 18
1, 126450, Control_c, 0, 64, 29
1, 126451, Control_c, 0, 67, 23
1, 126469, Control_c, 0, 64, 41
1, 126470, Control_c, 0, 67, 27
1, 126487, Control_c, 0, 64, 56
1, 126489, Control_c, 0, 67, 32
1, 126504, Control_c, 0, 64, 65
1, 126505, Control_c, 0, 67, 39
1, 126523, Control_c, 0, 64, 67
1, 126524, Control_c, 0, 67, 47
1, 126527, Note_on_c, 0, 52, 0
1, 126542, Control_c, 0, 67, 58
1, 126561, Control_c, 0, 67, 71
1, 126593, Control_c, 0, 67, 84
1, 126593, Note_on_c, 0, 67, 58
1, 126612, Note_on_c, 0, 71, 0
1, 126613, Control_c, 0, 64, 70
1, 126614, Control_c, 0, 67, 94
1, 126632, Control_c, 0, 67, 101
1, 126650, Control_c, 0, 67, 108
1, 126668, Control_c, 0, 67, 115
1, 126685, Control_c, 0, 67, 121
1, 126718, Note_on_c, 0, 59, 0
1, 126722, Control_c, 0, 67, 125
1, 126768, Note_on_c, 0, 64, 51
1, 126771, Note_on_c, 0, 47, 0
1, 126820, Note_on_c, 0, 67, 0
1, 126959, Note_on_c, 0, 69, 56
1, 126961, Note_on_c, 0, 64, 0
1, 126972, Note_on_c, 0, 47, 17
1, 126988, Note_on_c, 0, 57, 35
1, 127013, Note_on_c, 0, 54, 30
1, 127017, Control_c, 0, 64, 67
1, 127031, Note_on_c, 0, 51, 30
1, 127034, Control_c, 0, 64, 60
1, 127052, Control_c, 0, 64, 46
1, 127072, Control_c, 0, 64, 12
1, 127080, Note_on_c, 0, 55, 0
1, 127090, Control_c, 0, 64, 0
1, 127353, Note_on_c, 0, 57, 0
1, 127380, Note_on_c, 0, 66, 48
1, 127399, Note_on_c, 0, 51, 0
1, 127406, Note_on_c, 0, 69, 0
1, 127577, Note_on_c, 0, 63, 53
1, 127592, Note_on_c, 0, 66, 0
1, 127784, Note_on_c, 0, 63, 0
1, 127787, Note_on_c, 0, 52, 31
1, 127800, Note_on_c, 0, 54, 0
1, 127811, Note_on_c, 0, 64, 39
1, 127816, Note_on_c, 0, 55, 34
1, 127860, Control_c, 0, 67, 119
1, 127880, Control_c, 0, 67, 112
1, 127897, Control_c, 0, 67, 99
1, 127915, Control_c, 0, 64, 24
1, 127917, Control_c, 0, 67, 78
1, 127935, Control_c, 0, 64, 46
1, 127936, Control_c, 0, 67, 52
1, 127940, Poly_aftertouch_c, 0, 47, 24
1, 127953, Control_c, 0, 64, 63
1, 127953, Control_c, 0, 67, 21
1, 127964, Note_on_c, 0, 47, 0
1, 127964, Poly_aftertouch_c, 0, 47, 0
1, 127970, Control_c, 0, 64, 73
1, 127971, Control_c, 0, 67, 0
1, 127979, Note_on_c, 0, 52, 0
1, 127990, Control_c, 0, 64, 80
1, 128008, Control_c, 0, 64, 86
1, 128010, Note_on_c, 0, 64, 0
1, 128028, Control_c, 0, 64, 91
1, 128063, Control_c, 0, 64, 96
1, 128086, Note_on_c, 0, 55, 0
1, 128138, Control_c, 0, 64, 100
1, 128266, Control_c, 0, 64, 104
1, 128296, Note_on_c, 0, 76, 59
1, 128323, Note_on_c, 0, 52, 51
1, 128339, Control_c, 0, 64, 93
1, 128359, Note_on_c, 0, 43, 43
1, 128360, Control_c, 0, 64, 72
1, 128376, Control_c, 0, 64, 45
1, 128395, Control_c, 0, 64, 29
1, 128431, Control_c, 0, 64, 38
1, 128466, Control_c, 0, 64, 58
1, 128473, Note_on_c, 0, 43, 0
1, 128484, Control_c, 0, 64, 71
1, 128502, Control_c, 0, 64, 79
1, 128517, Note_on_c, 0, 74, 79
1, 128521, Control_c, 0, 64, 84
1, 128538, Control_c, 0, 64, 88
1, 128575, Control_c, 0, 64, 93
1, 128584, Note_on_c, 0, 76, 0
1, 128721, Note_on_c, 0, 72, 74
1, 128722, Control_c, 0, 67, 8
1, 128737, Note_on_c, 0, 45, 49
1, 128761, Control_c, 0, 64, 79
1, 128769, Note_on_c, 0, 74, 0
1, 128776, Control_c, 0, 64, 56
1, 128796, Control_c, 0, 64, 0
1, 128869, Control_c, 0, 67, 12
1, 128888, Note_on_c, 0, 52, 0
1, 128891, Note_on_c, 0, 53, 60
1, 129071, Note_on_c, 0, 53, 0
1, 129075, Note_on_c, 0, 55, 59
1, 129085, Note_on_c, 0, 69, 69
1, 129117, Note_on_c, 0, 72, 0
1, 129127, Control_c, 0, 67, 16
1, 129165, Control_c, 0, 64, 23
1, 129183, Control_c, 0, 64, 46
1, 129201, Note_on_c, 0, 45, 0
1, 129201, Control_c, 0, 64, 60
1, 129204, Control_c, 0, 67, 20
1, 129221, Control_c, 0, 64, 68
1, 129239, Control_c, 0, 64, 71
1, 129240, Note_on_c, 0, 55, 0
1, 129240, Control_c, 0, 67, 25
1, 129245, Note_on_c, 0, 57, 60
1, 129249, Note_on_c, 0, 69, 0
1, 129257, Control_c, 0, 67, 29
1, 129260, Note_on_c, 0, 65, 63
1, 129275, Control_c, 0, 64, 73
1, 129276, Control_c, 0, 67, 35
1, 129294, Control_c, 0, 67, 42
1, 129305, Note_on_c, 0, 57, 0
1, 129311, Control_c, 0, 64, 75
1, 129312, Control_c, 0, 67, 48
1, 129329, Control_c, 0, 67, 53
1, 129348, Control_c, 0, 67, 58
1, 129367, Control_c, 0, 67, 64
1, 129401, Control_c, 0, 67, 73
1, 129418, Control_c, 0, 67, 85
1, 129438, Control_c, 0, 67, 97
1, 129457, Control_c, 0, 67, 106
1, 129475, Control_c, 0, 67, 111
1, 129511, Control_c, 0, 64, 73
1, 129513, Control_c, 0, 67, 119
1, 129529, Control_c, 0, 64, 70
1, 129530, Control_c, 0, 67, 124
1, 129534, Note_on_c, 0, 65, 0
1, 129548, Control_c, 0, 64, 64
1, 129552, Note_on_c, 0, 71, 53
1, 129556, Note_on_c, 0, 47, 38
1, 129557, Note_on_c, 0, 55, 33
1, 129563, Note_on_c, 0, 59, 38
1, 129564, Control_c, 0, 64, 55
1, 129583, Control_c, 0, 64, 41
1, 129603, Control_c, 0, 64, 0
1, 129786, Control_c, 0, 64, 34
1, 129805, Control_c, 0, 64, 49
1, 129824, Control_c, 0, 64, 61
1, 129842, Control_c, 0, 64, 66
1, 129859, Control_c, 0, 64, 67
1, 129933, Note_on_c, 0, 67, 57
1, 129936, Note_on_c, 0, 71, 0
1, 129956, Note_on_c, 0, 55, 0
1, 130103, Note_on_c, 0, 67, 0
1, 130116, Note_on_c, 0, 64, 50
1, 130284, Control_c, 0, 64, 66
1, 130337, Control_c, 0, 64, 63
1, 130355, Control_c, 0, 64, 57
1, 130355, Note_on_c, 0, 69, 48
1, 130356, Note_on_c, 0, 54, 36
1, 130356, Note_on_c, 0, 57, 40
1, 130370, Note_on_c, 0, 59, 0
1, 130374, Control_c, 0, 64, 45
1, 130393, Control_c, 0, 64, 20
1, 130411, Control_c, 0, 64, 0
1, 130431, Note_on_c, 0, 64, 0
1, 130558, Control_c, 0, 64, 26
1, 130575, Control_c, 0, 64, 37
1, 130595, Control_c, 0, 64, 44
1, 130613, Control_c, 0, 64, 53
1, 130632, Control_c, 0, 64, 59
1, 130648, Control_c, 0, 64, 61
1, 130668, Control_c, 0, 64, 62
1, 130732, Note_on_c, 0, 66, 44
1, 130750, Note_on_c, 0, 69, 0
1, 130758, Control_c, 0, 64, 63
1, 130791, Note_on_c, 0, 54, 0
1, 130872, Note_on_c, 0, 47, 0
1, 130924, Note_on_c, 0, 63, 45
1, 130938, Note_on_c, 0, 66, 0
1, 131090, Control_c, 0, 64, 59
1, 131110, Control_c, 0, 64, 47
1, 131117, Note_on_c, 0, 63, 0
1, 131127, Control_c, 0, 64, 16
1, 131146, Control_c, 0, 64, 0
1, 131152, Note_on_c, 0, 57, 0
1, 131152, Note_on_c, 0, 55, 39
1, 131159, Note_on_c, 0, 64, 36
1, 131172, Note_on_c, 0, 52, 32
1, 131177, Note_on_c, 0, 48, 28
1, 131291, Control_c, 0, 64, 38
1, 131309, Control_c, 0, 64, 57
1, 131327, Control_c, 0, 64, 69
1, 131340, Note_on_c, 0, 48, 0
1, 131342, Note_on_c, 0, 52, 0
1, 131343, Control_c, 0, 64, 74
1, 131363, Control_c, 0, 64, 77
1, 131381, Note_on_c, 0, 55, 0
1, 131391, Note_on_c, 0, 64, 0
1, 131401, Control_c, 0, 64, 81
1, 131436, Control_c, 0, 64, 83
1, 131638, Note_on_c, 0, 72, 59
1, 131657, Note_on_c, 0, 48, 51
1, 131659, Control_c, 0, 64, 73
1, 131667, Note_on_c, 0, 40, 42
1, 131676, Control_c, 0, 64, 47
1, 131695, Control_c, 0, 64, 0
1, 131772, Note_on_c, 0, 40, 0
1, 131786, Control_c, 0, 64, 25
1, 131805, Control_c, 0, 64, 45
1, 131824, Control_c, 0, 64, 64
1, 131837, Note_on_c, 0, 71, 72
1, 131843, Control_c, 0, 64, 72
1, 131860, Control_c, 0, 64, 75
1, 131885, Note_on_c, 0, 72, 0
1, 132036, Note_on_c, 0, 41, 46
1, 132039, Note_on_c, 0, 69, 71
1, 132044, Control_c, 0, 64, 67
1, 132062, Control_c, 0, 64, 52
1, 132082, Control_c, 0, 64, 24
1, 132091, Note_on_c, 0, 71, 0
1, 132100, Control_c, 0, 64, 0
1, 132214, Note_on_c, 0, 48, 0
1, 132219, Note_on_c, 0, 50, 63
1, 132399, Note_on_c, 0, 50, 0
1, 132405, Note_on_c, 0, 65, 71
1, 132406, Note_on_c, 0, 52, 61
1, 132451, Note_on_c, 0, 69, 0
1, 132465, Control_c, 0, 64, 20
1, 132485, Control_c, 0, 64, 41
1, 132492, Note_on_c, 0, 41, 0
1, 132503, Control_c, 0, 64, 55
1, 132520, Control_c, 0, 64, 64
1, 132539, Control_c, 0, 64, 66
1, 132559, Note_on_c, 0, 52, 0
1, 132568, Note_on_c, 0, 65, 0
1, 132577, Note_on_c, 0, 53, 55
1, 132588, Note_on_c, 0, 62, 67
1, 132612, Control_c, 0, 64, 67
1, 132633, Note_on_c, 0, 53, 0
1, 132816, Control_c, 0, 64, 65
1, 132825, Note_on_c, 0, 67, 51
1, 132833, Control_c, 0, 64, 61
1, 132840, Note_on_c, 0, 43, 33
1, 132842, Note_on_c, 0, 52, 37
1, 132852, Control_c, 0, 64, 53
1, 132858, Note_on_c, 0, 55, 30
1, 132861, Note_on_c, 0, 62, 0
1, 132869, Control_c, 0, 64, 36
1, 132888, Control_c, 0, 64, 0
1, 133092, Control_c, 0, 64, 18
1, 133110, Control_c, 0, 64, 40
1, 133141, Control_c, 0, 64, 54
1, 133160, Control_c, 0, 64, 63
1, 133178, Control_c, 0, 64, 66
1, 133197, Control_c, 0, 64, 67
1, 133248, Note_on_c, 0, 64, 52
1, 133252, Note_on_c, 0, 67, 0
1, 133252, Control_c, 0, 64, 69
1, 133289, Note_on_c, 0, 52, 0
1, 133308, Control_c, 0, 64, 71
1, 133404, Note_on_c, 0, 64, 0
1, 133437, Note_on_c, 0, 60, 45
1, 133616, Poly_aftertouch_c, 0, 43, 24
1, 133642, Control_c, 0, 64, 68
1, 133643, Note_on_c, 0, 65, 46
1, 133647, Note_on_c, 0, 53, 39
1, 133649, Note_on_c, 0, 55, 0
1, 133659, Control_c, 0, 64, 62
1, 133677, Note_on_c, 0, 50, 39
1, 133677, Control_c, 0, 64, 50
1, 133695, Control_c, 0, 64, 29
1, 133700, Note_on_c, 0, 60, 0
1, 133714, Control_c, 0, 64, 0
1, 133859, Control_c, 0, 64, 29
1, 133879, Control_c, 0, 64, 37
1, 133897, Control_c, 0, 64, 46
1, 133916, Control_c, 0, 64, 54
1, 133926, Poly_aftertouch_c, 0, 43, 32
1, 133935, Control_c, 0, 64, 57
1, 133953, Control_c, 0, 64, 59
1, 133995, Note_on_c, 0, 50, 0
1, 134017, Note_on_c, 0, 65, 0
1, 134035, Note_on_c, 0, 62, 44
1, 134045, Control_c, 0, 64, 57
1, 134153, Control_c, 0, 64, 55
1, 134227, Control_c, 0, 64, 53
1, 134241, Note_on_c, 0, 62, 0
1, 134244, Note_on_c, 0, 59, 43
1, 134263, Control_c, 0, 64, 50
1, 134281, Control_c, 0, 64, 46
1, 134299, Control_c, 0, 64, 37
1, 134318, Control_c, 0, 64, 23
1, 134336, Control_c, 0, 64, 0
1, 134386, Note_on_c, 0, 53, 0
1, 134425, Note_on_c, 0, 48, 35
1, 134426, Note_on_c, 0, 59, 0
1, 134429, Note_on_c, 0, 52, 40
1, 134451, Note_on_c, 0, 60, 35
1, 134512, Poly_aftertouch_c, 0, 43, 24
1, 134520, Control_c, 0, 64, 24
1, 134539, Control_c, 0, 64, 45
1, 134557, Control_c, 0, 64, 61
1, 134559, Note_on_c, 0, 43, 0
1, 134559, Poly_aftertouch_c, 0, 43, 0
1, 134560, Poly_aftertouch_c, 0, 43, 0
1, 134577, Control_c, 0, 64, 71
1, 134594, Control_c, 0, 64, 77
1, 134596, Control_c, 0, 67, 118
1, 134613, Control_c, 0, 64, 83
1, 134614, Control_c, 0, 67, 104
1, 134624, Note_on_c, 0, 48, 0
1, 134630, Control_c, 0, 64, 88
1, 134632, Control_c, 0, 67, 86
1, 134639, Note_on_c, 0, 60, 0
1, 134648, Control_c, 0, 64, 92
1, 134650, Control_c, 0, 67, 66
1, 134668, Control_c, 0, 67, 46
1, 134677, Note_on_c, 0, 52, 0
1, 134685, Control_c, 0, 64, 97
1, 134687, Control_c, 0, 67, 27
1, 134703, Control_c, 0, 67, 9
1, 134741, Control_c, 0, 64, 101
1, 134777, Control_c, 0, 67, 0
1, 134795, Control_c, 0, 64, 105
1, 134871, Control_c, 0, 64, 110
1, 134912, Note_on_c, 0, 77, 70
1, 134915, Note_on_c, 0, 53, 55
1, 134935, Note_on_c, 0, 45, 49
1, 134943, Control_c, 0, 64, 101
1, 134962, Control_c, 0, 64, 81
1, 134981, Control_c, 0, 64, 50
1, 135012, Control_c, 0, 64, 19
1, 135066, Note_on_c, 0, 45, 0
1, 135068, Control_c, 0, 64, 37
1, 135087, Control_c, 0, 64, 56
1, 135106, Control_c, 0, 64, 70
1, 135124, Control_c, 0, 64, 76
1, 135132, Note_on_c, 0, 76, 79
1, 135144, Control_c, 0, 64, 79
1, 135179, Control_c, 0, 64, 82
1, 135197, Control_c, 0, 64, 85
1, 135201, Note_on_c, 0, 77, 0
1, 135235, Control_c, 0, 64, 91
1, 135290, Control_c, 0, 67, 8
1, 135323, Note_on_c, 0, 74, 78
1, 135325, Control_c, 0, 64, 87
1, 135343, Note_on_c, 0, 46, 55
1, 135345, Control_c, 0, 64, 73
1, 135347, Control_c, 0, 67, 13
1, 135364, Control_c, 0, 64, 44
1, 135369, Note_on_c, 0, 76, 0
1, 135382, Control_c, 0, 64, 0
1, 135418, Control_c, 0, 67, 17
1, 135492, Note_on_c, 0, 55, 66
1, 135504, Note_on_c, 0, 53, 0
1, 135548, Control_c, 0, 67, 21
1, 135640, Control_c, 0, 67, 25
1, 135682, Note_on_c, 0, 55, 0
1, 135683, Note_on_c, 0, 70, 73
1, 135688, Note_on_c, 0, 57, 58
1, 135694, Control_c, 0, 64, 36
1, 135711, Note_on_c, 0, 74, 0
1, 135711, Control_c, 0, 64, 57
1, 135713, Control_c, 0, 67, 29
1, 135730, Control_c, 0, 64, 66
1, 135733, Note_on_c, 0, 46, 0
1, 135749, Control_c, 0, 64, 70
1, 135768, Control_c, 0, 67, 33
1, 135786, Control_c, 0, 64, 72
1, 135806, Control_c, 0, 67, 37
1, 135825, Control_c, 0, 64, 74
1, 135826, Control_c, 0, 67, 41
1, 135837, Note_on_c, 0, 70, 0
1, 135843, Control_c, 0, 67, 45
1, 135843, Note_on_c, 0, 58, 61
1, 135851, Note_on_c, 0, 67, 65
1, 135852, Note_on_c, 0, 57, 0
1, 135861, Control_c, 0, 64, 76
1, 135879, Control_c, 0, 67, 52
1, 135887, Note_on_c, 0, 58, 0
1, 135916, Control_c, 0, 67, 58
1, 135967, Control_c, 0, 67, 65
1, 136004, Control_c, 0, 67, 72
1, 136024, Control_c, 0, 67, 76
1, 136041, Control_c, 0, 67, 82
1, 136061, Control_c, 0, 67, 87
1, 136079, Control_c, 0, 67, 92
1, 136095, Note_on_c, 0, 67, 0
1, 136096, Control_c, 0, 67, 96
1, 136099, Note_on_c, 0, 60, 43
1, 136109, Note_on_c, 0, 57, 34
1, 136110, Note_on_c, 0, 72, 50
1, 136114, Control_c, 0, 64, 74
1, 136114, Control_c, 0, 67, 100
1, 136127, Note_on_c, 0, 48, 34
1, 136133, Control_c, 0, 64, 67
1, 136134, Control_c, 0, 67, 105
1, 136153, Control_c, 0, 64, 54
1, 136154, Control_c, 0, 67, 111
1, 136171, Control_c, 0, 64, 32
1, 136172, Control_c, 0, 67, 117
1, 136189, Control_c, 0, 64, 0
1, 136191, Control_c, 0, 67, 121
1, 136227, Control_c, 0, 67, 126
1, 136353, Control_c, 0, 64, 15
1, 136374, Control_c, 0, 64, 38
1, 136392, Control_c, 0, 64, 49
1, 136409, Control_c, 0, 64, 57
1, 136421, Note_on_c, 0, 57, 0
1, 136425, Control_c, 0, 64, 60
1, 136512, Note_on_c, 0, 72, 0
1, 136518, Note_on_c, 0, 69, 49
1, 136612, Control_c, 0, 64, 58
1, 136667, Control_c, 0, 64, 54
1, 136675, Note_on_c, 0, 69, 0
1, 136685, Control_c, 0, 64, 50
1, 136701, Note_on_c, 0, 65, 41
1, 136702, Control_c, 0, 64, 44
1, 136723, Control_c, 0, 64, 37
1, 136741, Control_c, 0, 64, 32
1, 136760, Control_c, 0, 64, 27
1, 136779, Control_c, 0, 64, 16
1, 136796, Control_c, 0, 64, 0
1, 136926, Note_on_c, 0, 70, 47
1, 136927, Note_on_c, 0, 58, 35
1, 136935, Note_on_c, 0, 55, 29
1, 136963, Note_on_c, 0, 65, 0
1, 137026, Note_on_c, 0, 60, 0
1, 137141, Control_c, 0, 64, 27
1, 137161, Control_c, 0, 64, 48
1, 137180, Control_c, 0, 64, 60
1, 137197, Control_c, 0, 64, 66
1, 137217, Control_c, 0, 64, 67
1, 137271, Control_c, 0, 64, 68
1, 137284, Note_on_c, 0, 48, 0
1, 137303, Note_on_c, 0, 55, 0
1, 137319, Note_on_c, 0, 67, 49
1, 137413, Note_on_c, 0, 70, 0
1, 137456, Control_c, 0, 64, 67
1, 137461, Note_on_c, 0, 67, 0
1, 137494, Note_on_c, 0, 64, 50
1, 137548, Control_c, 0, 64, 66
1, 137604, Control_c, 0, 64, 65
1, 137620, Control_c, 0, 64, 62
1, 137639, Control_c, 0, 64, 52
1, 137658, Control_c, 0, 64, 25
1, 137678, Control_c, 0, 64, 0
1, 137701, Note_on_c, 0, 64, 0
1, 137704, Note_on_c, 0, 58, 0
1, 137708, Note_on_c, 0, 57, 41
1, 137708, Note_on_c, 0, 53, 31
1, 137716, Note_on_c, 0, 65, 42
1, 137730, Note_on_c, 0, 50, 30
1, 137787, Control_c, 0, 64, 18
1, 137820, Control_c, 0, 64, 46
1, 137821, Control_c, 0, 67, 122
1, 137838, Control_c, 0, 64, 64
1, 137839, Control_c, 0, 67, 113
1, 137856, Control_c, 0, 64, 72
1, 137856, Control_c, 0, 67, 95
1, 137875, Note_on_c, 0, 57, 0
1, 137875, Control_c, 0, 64, 77
1, 137876, Control_c, 0, 67, 67
1, 137880, Note_on_c, 0, 65, 0
1, 137895, Control_c, 0, 64, 79
1, 137897, Control_c, 0, 67, 31
1, 137903, Note_on_c, 0, 53, 0
1, 137905, Note_on_c, 0, 50, 0
1, 137913, Control_c, 0, 64, 82
1, 137914, Control_c, 0, 67, 0
1, 137932, Control_c, 0, 64, 87
1, 137951, Control_c, 0, 64, 94
1, 137970, Control_c, 0, 64, 99
1, 138023, Control_c, 0, 64, 104
1, 138077, Control_c, 0, 64, 109
1, 138171, Control_c, 0, 64, 113
1, 138218, Note_on_c, 0, 65, 62
1, 138249, Note_on_c, 0, 41, 45
1, 138261, Note_on_c, 0, 33, 43
1, 138262, Control_c, 0, 64, 104
1, 138281, Control_c, 0, 64, 81
1, 138301, Control_c, 0, 64, 48
1, 138320, Control_c, 0, 64, 14
1, 138343, Note_on_c, 0, 33, 0
1, 138375, Control_c, 0, 64, 34
1, 138392, Control_c, 0, 64, 55
1, 138410, Control_c, 0, 64, 70
1, 138429, Control_c, 0, 64, 76
1, 138443, Note_on_c, 0, 64, 68
1, 138444, Control_c, 0, 64, 80
1, 138483, Control_c, 0, 64, 82
1, 138495, Note_on_c, 0, 65, 0
1, 138519, Control_c, 0, 64, 85
1, 138643, Note_on_c, 0, 62, 74
1, 138647, Note_on_c, 0, 34, 43
1, 138649, Control_c, 0, 64, 83
1, 138667, Control_c, 0, 64, 74
1, 138685, Control_c, 0, 64, 59
1, 138698, Note_on_c, 0, 64, 0
1, 138703, Control_c, 0, 64, 43
1, 138722, Control_c, 0, 64, 33
1, 138742, Control_c, 0, 64, 29
1, 138810, Control_c, 0, 64, 23
1, 138827, Note_on_c, 0, 43, 64
1, 138862, Note_on_c, 0, 41, 0
1, 139004, Note_on_c, 0, 43, 0
1, 139009, Note_on_c, 0, 34, 0
1, 139013, Control_c, 0, 67, 8
1, 139015, Note_on_c, 0, 45, 62
1, 139015, Note_on_c, 0, 58, 71
1, 139056, Note_on_c, 0, 62, 0
1, 139142, Control_c, 0, 67, 12
1, 139172, Note_on_c, 0, 46, 59
1, 139180, Control_c, 0, 67, 17
1, 139193, Note_on_c, 0, 45, 0
1, 139196, Note_on_c, 0, 58, 0
1, 139196, Note_on_c, 0, 55, 64
1, 139216, Control_c, 0, 67, 21
1, 139245, Note_on_c, 0, 46, 0
1, 139251, Control_c, 0, 67, 28
1, 139272, Control_c, 0, 67, 34
1, 139289, Control_c, 0, 67, 39
1, 139346, Control_c, 0, 67, 44
1, 139382, Control_c, 0, 67, 51
1, 139420, Control_c, 0, 67, 57
1, 139443, Note_on_c, 0, 55, 0
1, 139448, Note_on_c, 0, 60, 57
1, 139453, Control_c, 0, 67, 65
1, 139473, Control_c, 0, 67, 70
1, 139473, Note_on_c, 0, 48, 41
1, 139474, Note_on_c, 0, 36, 32
1, 139480, Note_on_c, 0, 45, 38
1, 139492, Control_c, 0, 67, 76
1, 139511, Control_c, 0, 67, 82
1, 139530, Control_c, 0, 67, 88
1, 139548, Control_c, 0, 67, 93
1, 139568, Control_c, 0, 67, 98
1, 139585, Control_c, 0, 67, 104
1, 139602, Control_c, 0, 67, 109
1, 139622, Control_c, 0, 67, 113
1, 139639, Control_c, 0, 67, 117
1, 139678, Control_c, 0, 67, 126
1, 139821, Note_on_c, 0, 45, 0
1, 139834, Note_on_c, 0, 60, 0
1, 139850, Note_on_c, 0, 57, 51
1, 139974, Note_on_c, 0, 57, 0
1, 140030, Note_on_c, 0, 53, 45
1, 140264, Note_on_c, 0, 46, 40
1, 140272, Note_on_c, 0, 58, 40
1, 140279, Note_on_c, 0, 43, 33
1, 140295, Note_on_c, 0, 48, 0
1, 140306, Note_on_c, 0, 53, 0
1, 140581, Note_on_c, 0, 36, 0
1, 140597, Note_on_c, 0, 46, 0
1, 140614, Note_on_c, 0, 43, 0
1, 140662, Note_on_c, 0, 58, 0
1, 140677, Note_on_c, 0, 55, 51
1, 140856, Note_on_c, 0, 55, 0
1, 140864, Note_on_c, 0, 52, 51
1, 141098, Note_on_c, 0, 52, 0
1, 141103, Note_on_c, 0, 53, 67
1, 141112, Note_on_c, 0, 41, 55
1, 141114, Note_on_c, 0, 29, 53
1, 141124, Note_on_c, 0, 45, 51
1, 141139, Note_on_c, 0, 53, 0
1, 141144, Note_on_c, 0, 41, 0
1, 141154, Note_on_c, 0, 29, 0
1, 141160, Note_on_c, 0, 45, 0
1, 141180, Control_c, 0, 64, 19
1, 141283, Note_on_c, 0, 29, 50
1, 141286, Note_on_c, 0, 45, 57
1, 141308, Note_on_c, 0, 36, 38
1, 141315, Note_on_c, 0, 41, 28
1, 141321, Note_on_c, 0, 29, 0
1, 141330, Note_on_c, 0, 45, 0
1, 141352, Note_on_c, 0, 41, 0
1, 141356, Note_on_c, 0, 36, 0
1, 141454, Note_on_c, 0, 29, 47
1, 141463, Note_on_c, 0, 45, 51
1, 141463, Note_on_c, 0, 36, 48
1, 141466, Note_on_c, 0, 41, 50
1, 141495, Note_on_c, 0, 29, 0
1, 141502, Note_on_c, 0, 45, 0
1, 141505, Note_on_c, 0, 41, 0
1, 141507, Note_on_c, 0, 36, 0
1, 141640, Note_on_c, 0, 36, 47
1, 141641, Note_on_c, 0, 45, 53
1, 141642, Note_on_c, 0, 29, 44
1, 141648, Note_on_c, 0, 41, 47
1, 141678, Note_on_c, 0, 36, 0
1, 141680, Note_on_c, 0, 29, 0
1, 141686, Note_on_c, 0, 45, 0
1, 141691, Note_on_c, 0, 41, 0
1, 141801, Note_on_c, 0, 29, 52
1, 141806, Note_on_c, 0, 45, 50
1, 141808, Note_on_c, 0, 36, 45
1, 141810, Note_on_c, 0, 41, 47
1, 141847, Note_on_c, 0, 29, 0
1, 141847, Note_on_c, 0, 45, 0
1, 141849, Note_on_c, 0, 36, 0
1, 141849, Note_on_c, 0, 41, 0
1, 141977, Note_on_c, 0, 36, 47
1, 141978, Note_on_c, 0, 29, 51
1, 141982, Note_on_c, 0, 41, 43
1, 141985, Note_on_c, 0, 45, 45
1, 142017, Note_on_c, 0, 36, 0
1, 142022, Note_on_c, 0, 29, 0
1, 142022, Note_on_c, 0, 41, 0
1, 142023, Note_on_c, 0, 45, 0
1, 142153, Note_on_c, 0, 36, 49
1, 142154, Note_on_c, 0, 29, 49
1, 142163, Note_on_c, 0, 45, 49
1, 142166, Note_on_c, 0, 41, 40
1, 142191, Note_on_c, 0, 36, 0
1, 142194, Note_on_c, 0, 29, 0
1, 142198, Note_on_c, 0, 45, 0
1, 142203, Note_on_c, 0, 41, 0
1, 142328, Note_on_c, 0, 45, 54
1, 142329, Note_on_c, 0, 29, 49
1, 142331, Note_on_c, 0, 36, 41
1, 142334, Note_on_c, 0, 41, 43
1, 142369, Note_on_c, 0, 45, 0
1, 142371, Note_on_c, 0, 29, 0
1, 142373, Note_on_c, 0, 41, 0
1, 142380, Note_on_c, 0, 36, 0
1, 142512, Note_on_c, 0, 29, 54
1, 142519, Note_on_c, 0, 36, 49
1, 142520, Note_on_c, 0, 45, 60
1, 142527, Note_on_c, 0, 41, 42
1, 142554, Note_on_c, 0, 29, 0
1, 142557, Note_on_c, 0, 45, 0
1, 142559, Note_on_c, 0, 36, 0
1, 142563, Note_on_c, 0, 41, 0
1, 142686, Note_on_c, 0, 36, 49
1, 142687, Note_on_c, 0, 29, 52
1, 142692, Note_on_c, 0, 45, 55
1, 142702, Note_on_c, 0, 41, 35
1, 142726, Note_on_c, 0, 36, 0
1, 142727, Note_on_c, 0, 29, 0
1, 142727, Note_on_c, 0, 45, 0
1, 142743, Note_on_c, 0, 41, 0
1, 142852, Note_on_c, 0, 36, 53
1, 142855, Note_on_c, 0, 29, 51
1, 142857, Note_on_c, 0, 45, 57
1, 142861, Note_on_c, 0, 41, 48
1, 142889, Note_on_c, 0, 36, 0
1, 142892, Note_on_c, 0, 45, 0
1, 142894, Note_on_c, 0, 29, 0
1, 142895, Note_on_c, 0, 41, 0
1, 143022, Note_on_c, 0, 29, 55
1, 143026, Note_on_c, 0, 45, 62
1, 143028, Note_on_c, 0, 36, 47
1, 143034, Note_on_c, 0, 41, 42
1, 143065, Note_on_c, 0, 45, 0
1, 143067, Note_on_c, 0, 29, 0
1, 143068, Note_on_c, 0, 36, 0
1, 143073, Note_on_c, 0, 41, 0
1, 143191, Note_on_c, 0, 29, 55
1, 143192, Note_on_c, 0, 36, 52
1, 143198, Note_on_c, 0, 45, 65
1, 143214, Note_on_c, 0, 41, 32
1, 143227, Note_on_c, 0, 36, 0
1, 143229, Note_on_c, 0, 29, 0
1, 143234, Note_on_c, 0, 45, 0
1, 143261, Note_on_c, 0, 41, 0
1, 143355, Note_on_c, 0, 36, 58
1, 143356, Note_on_c, 0, 29, 58
1, 143364, Note_on_c, 0, 45, 62
1, 143369, Note_on_c, 0, 41, 52
1, 143396, Note_on_c, 0, 36, 0
1, 143400, Note_on_c, 0, 29, 0
1, 143403, Note_on_c, 0, 45, 0
1, 143405, Note_on_c, 0, 41, 0
1, 143544, Note_on_c, 0, 47, 73
1, 143544, Note_on_c, 0, 29, 57
1, 143552, Note_on_c, 0, 38, 58
1, 143575, Note_on_c, 0, 43, 31
1, 143583, Note_on_c, 0, 29, 0
1, 143586, Note_on_c, 0, 47, 0
1, 143586, Note_on_c, 0, 38, 0
1, 143630, Note_on_c, 0, 43, 0
1, 143704, Note_on_c, 0, 29, 57
1, 143704, Note_on_c, 0, 47, 67
1, 143708, Note_on_c, 0, 38, 47
1, 143714, Note_on_c, 0, 43, 63
1, 143743, Note_on_c, 0, 29, 0
1, 143748, Note_on_c, 0, 47, 0
1, 143748, Note_on_c, 0, 38, 0
1, 143755, Note_on_c, 0, 43, 0
1, 143903, Note_on_c, 0, 48, 80
1, 143904, Note_on_c, 0, 43, 53
1, 143904, Note_on_c, 0, 40, 62
1, 143935, Note_on_c, 0, 40, 0
1, 143939, Note_on_c, 0, 43, 0
1, 144072, Note_on_c, 0, 43, 51
1, 144074, Note_on_c, 0, 40, 53
1, 144110, Note_on_c, 0, 40, 0
1, 144114, Note_on_c, 0, 43, 0
1, 144241, Note_on_c, 0, 40, 58
1, 144245, Note_on_c, 0, 43, 53
1, 144275, Note_on_c, 0, 40, 0
1, 144282, Note_on_c, 0, 43, 0
1, 144299, Control_c, 0, 64, 15
1, 144440, Note_on_c, 0, 40, 55
1, 144450, Note_on_c, 0, 43, 42
1, 144452, Note_on_c, 0, 48, 0
1, 144474, Note_on_c, 0, 52, 58
1, 144476, Note_on_c, 0, 40, 0
1, 144494, Note_on_c, 0, 43, 0
1, 144534, Note_on_c, 0, 52, 0
1, 144540, Note_on_c, 0, 50, 64
1, 144572, Control_c, 0, 64, 11
1, 144612, Note_on_c, 0, 50, 0
1, 144618, Note_on_c, 0, 40, 52
1, 144624, Note_on_c, 0, 43, 43
1, 144626, Note_on_c, 0, 48, 48
1, 144651, Note_on_c, 0, 40, 0
1, 144665, Note_on_c, 0, 43, 0
1, 144798, Note_on_c, 0, 43, 51
1, 144801, Note_on_c, 0, 48, 0
1, 144805, Note_on_c, 0, 40, 46
1, 144838, Note_on_c, 0, 43, 0
1, 144840, Note_on_c, 0, 40, 0
1, 144976, Note_on_c, 0, 40, 54
1, 144978, Note_on_c, 0, 43, 52
1, 145008, Note_on_c, 0, 40, 0
1, 145015, Note_on_c, 0, 43, 0
1, 145136, Note_on_c, 0, 43, 54
1, 145140, Note_on_c, 0, 40, 53
1, 145173, Note_on_c, 0, 40, 0
1, 145175, Note_on_c, 0, 43, 0
1, 145310, Note_on_c, 0, 78, 63
1, 145332, Note_on_c, 0, 43, 57
1, 145344, Note_on_c, 0, 39, 54
1, 145366, Note_on_c, 0, 79, 69
1, 145375, Note_on_c, 0, 43, 0
1, 145382, Note_on_c, 0, 39, 0
1, 145399, Note_on_c, 0, 78, 0
1, 145528, Note_on_c, 0, 43, 42
1, 145529, Note_on_c, 0, 39, 39
1, 145569, Note_on_c, 0, 39, 0
1, 145574, Note_on_c, 0, 43, 0
1, 145689, Note_on_c, 0, 43, 49
1, 145693, Note_on_c, 0, 39, 46
1, 145726, Note_on_c, 0, 43, 0
1, 145728, Note_on_c, 0, 39, 0
1, 145800, Note_on_c, 0, 79, 0
1, 145811, Note_on_c, 0, 77, 56
1, 145867, Note_on_c, 0, 39, 47
1, 145868, Note_on_c, 0, 43, 46
1, 145892, Note_on_c, 0, 75, 63
1, 145896, Note_on_c, 0, 77, 0
1, 145905, Note_on_c, 0, 39, 0
1, 145905, Note_on_c, 0, 43, 0
1, 145962, Note_on_c, 0, 75, 0
1, 145971, Note_on_c, 0, 74, 53
1, 146035, Note_on_c, 0, 43, 47
1, 146039, Note_on_c, 0, 39, 45
1, 146045, Note_on_c, 0, 74, 0
1, 146060, Note_on_c, 0, 72, 43
1, 146079, Note_on_c, 0, 39, 0
1, 146079, Note_on_c, 0, 43, 0
1, 146216, Note_on_c, 0, 43, 47
1, 146220, Note_on_c, 0, 39, 46
1, 146269, Note_on_c, 0, 43, 0
1, 146271, Note_on_c, 0, 39, 0
1, 146307, Note_on_c, 0, 72, 0
1, 146400, Note_on_c, 0, 43, 47
1, 146403, Note_on_c, 0, 39, 48
1, 146440, Note_on_c, 0, 43, 0
1, 146442, Note_on_c, 0, 39, 0
1, 146556, Note_on_c, 0, 43, 55
1, 146566, Note_on_c, 0, 39, 47
1, 146599, Note_on_c, 0, 43, 0
1, 146605, Note_on_c, 0, 39, 0
1, 146762, Note_on_c, 0, 45, 51
1, 146764, Note_on_c, 0, 38, 52
1, 146770, Note_on_c, 0, 54, 65
1, 146799, Note_on_c, 0, 45, 0
1, 146803, Note_on_c, 0, 38, 0
1, 146926, Note_on_c, 0, 38, 52
1, 146938, Note_on_c, 0, 45, 40
1, 146967, Note_on_c, 0, 38, 0
1, 146981, Note_on_c, 0, 45, 0
1, 147114, Note_on_c, 0, 38, 51
1, 147117, Note_on_c, 0, 45, 44
1, 147150, Note_on_c, 0, 38, 0
1, 147156, Note_on_c, 0, 45, 0
1, 147285, Note_on_c, 0, 54, 0
1, 147309, Note_on_c, 0, 38, 47
1, 147313, Note_on_c, 0, 45, 45
1, 147326, Note_on_c, 0, 57, 60
1, 147345, Note_on_c, 0, 38, 0
1, 147349, Note_on_c, 0, 45, 0
1, 147394, Note_on_c, 0, 57, 0
1, 147400, Note_on_c, 0, 55, 61
1, 147471, Note_on_c, 0, 55, 0
1, 147481, Note_on_c, 0, 54, 51
1, 147487, Note_on_c, 0, 38, 49
1, 147489, Note_on_c, 0, 45, 48
1, 147524, Note_on_c, 0, 38, 0
1, 147525, Note_on_c, 0, 45, 0
1, 147652, Note_on_c, 0, 38, 55
1, 147658, Note_on_c, 0, 45, 49
1, 147660, Note_on_c, 0, 54, 0
1, 147694, Note_on_c, 0, 38, 0
1, 147696, Note_on_c, 0, 45, 0
1, 147818, Note_on_c, 0, 38, 59
1, 147821, Note_on_c, 0, 45, 54
1, 147857, Note_on_c, 0, 38, 0
1, 147860, Note_on_c, 0, 45, 0
1, 147994, Note_on_c, 0, 38, 53
1, 147996, Note_on_c, 0, 45, 57
1, 148027, Note_on_c, 0, 45, 0
1, 148029, Note_on_c, 0, 38, 0
1, 148181, Note_on_c, 0, 86, 78
1, 148201, Note_on_c, 0, 50, 63
1, 148208, Note_on_c, 0, 42, 56
1, 148241, Note_on_c, 0, 87, 80
1, 148242, Note_on_c, 0, 50, 0
1, 148249, Note_on_c, 0, 42, 0
1, 148262, Note_on_c, 0, 86, 0
1, 148377, Note_on_c, 0, 42, 55
1, 148399, Note_on_c, 0, 50, 22
1, 148418, Note_on_c, 0, 42, 0
1, 148457, Note_on_c, 0, 50, 0
1, 148560, Note_on_c, 0, 50, 49
1, 148564, Note_on_c, 0, 42, 40
1, 148594, Note_on_c, 0, 50, 0
1, 148604, Note_on_c, 0, 42, 0
1, 148666, Note_on_c, 0, 86, 66
1, 148691, Note_on_c, 0, 87, 0
1, 148727, Note_on_c, 0, 42, 51
1, 148735, Note_on_c, 0, 50, 40
1, 148747, Note_on_c, 0, 84, 63
1, 148771, Note_on_c, 0, 42, 0
1, 148776, Note_on_c, 0, 50, 0
1, 148780, Note_on_c, 0, 86, 0
1, 148818, Note_on_c, 0, 82, 66
1, 148830, Note_on_c, 0, 84, 0
1, 148906, Note_on_c, 0, 82, 0
1, 148910, Note_on_c, 0, 42, 51
1, 148910, Note_on_c, 0, 81, 57
1, 148911, Note_on_c, 0, 50, 45
1, 148948, Note_on_c, 0, 50, 0
1, 148952, Note_on_c, 0, 42, 0
1, 149097, Note_on_c, 0, 42, 53
1, 149098, Note_on_c, 0, 50, 48
1, 149136, Note_on_c, 0, 50, 0
1, 149138, Note_on_c, 0, 42, 0
1, 149207, Note_on_c, 0, 81, 0
1, 149273, Note_on_c, 0, 42, 51
1, 149278, Note_on_c, 0, 50, 48
1, 149310, Note_on_c, 0, 42, 0
1, 149313, Note_on_c, 0, 50, 0
1, 149437, Note_on_c, 0, 42, 54
1, 149443, Note_on_c, 0, 50, 45
1, 149474, Note_on_c, 0, 42, 0
1, 149481, Note_on_c, 0, 50, 0
1, 149622, Note_on_c, 0, 43, 58
1, 149629, Note_on_c, 0, 58, 57
1, 149671, Note_on_c, 0, 43, 0
1, 149734, Note_on_c, 0, 50, 53
1, 149769, Note_on_c, 0, 58, 0
1, 149785, Note_on_c, 0, 50, 0
1, 149804, Note_on_c, 0, 43, 50
1, 149829, Note_on_c, 0, 62, 58
1, 149853, Note_on_c, 0, 43, 0
1, 149894, Note_on_c, 0, 62, 0
1, 149896, Note_on_c, 0, 50, 54
1, 149902, Note_on_c, 0, 60, 62
1, 149956, Note_on_c, 0, 50, 0
1, 149990, Note_on_c, 0, 60, 0
1, 149993, Note_on_c, 0, 58, 63
1, 149998, Note_on_c, 0, 43, 53
1, 150040, Note_on_c, 0, 43, 0
1, 150043, Note_on_c, 0, 58, 0
1, 150081, Note_on_c, 0, 50, 55
1, 150140, Note_on_c, 0, 50, 0
1, 150153, Note_on_c, 0, 43, 55
1, 150203, Note_on_c, 0, 43, 0
1, 150254, Note_on_c, 0, 50, 48
1, 150322, Note_on_c, 0, 50, 0
1, 150344, Note_on_c, 0, 45, 56
1, 150362, Note_on_c, 0, 84, 74
1, 150392, Note_on_c, 0, 45, 0
1, 150437, Note_on_c, 0, 82, 73
1, 150455, Note_on_c, 0, 50, 40
1, 150463, Note_on_c, 0, 84, 0
1, 150505, Note_on_c, 0, 50, 0
1, 150507, Note_on_c, 0, 45, 57
1, 150519, Note_on_c, 0, 81, 70
1, 150521, Note_on_c, 0, 82, 0
1, 150554, Note_on_c, 0, 45, 0
1, 150563, Note_on_c, 0, 81, 0
1, 150607, Note_on_c, 0, 79, 65
1, 150627, Note_on_c, 0, 50, 43
1, 150679, Note_on_c, 0, 50, 0
1, 150680, Note_on_c, 0, 45, 57
1, 150689, Note_on_c, 0, 78, 71
1, 150698, Note_on_c, 0, 79, 0
1, 150728, Note_on_c, 0, 45, 0
1, 150749, Note_on_c, 0, 78, 0
1, 150791, Note_on_c, 0, 50, 53
1, 150850, Note_on_c, 0, 50, 0
1, 150858, Note_on_c, 0, 45, 52
1, 150905, Note_on_c, 0, 45, 0
1, 150973, Note_on_c, 0, 50, 54
1, 151036, Note_on_c, 0, 50, 0
1, 151055, Note_on_c, 0, 67, 65
1, 151060, Note_on_c, 0, 46, 58
1, 151099, Note_on_c, 0, 46, 0
1, 151155, Note_on_c, 0, 50, 46
1, 151198, Note_on_c, 0, 67, 0
1, 151218, Note_on_c, 0, 50, 0
1, 151231, Note_on_c, 0, 46, 48
1, 151245, Note_on_c, 0, 70, 65
1, 151277, Note_on_c, 0, 46, 0
1, 151302, Note_on_c, 0, 70, 0
1, 151316, Note_on_c, 0, 69, 62
1, 151327, Note_on_c, 0, 50, 46
1, 151379, Note_on_c, 0, 69, 0
1, 151381, Note_on_c, 0, 50, 0
1, 151391, Note_on_c, 0, 67, 56
1, 151395, Note_on_c, 0, 46, 55
1, 151450, Note_on_c, 0, 46, 0
1, 151456, Note_on_c, 0, 67, 0
1, 151499, Note_on_c, 0, 50, 49
1, 151551, Note_on_c, 0, 50, 0
1, 151570, Note_on_c, 0, 46, 53
1, 151622, Note_on_c, 0, 46, 0
1, 151669, Note_on_c, 0, 50, 48
1, 151726, Note_on_c, 0, 50, 0
1, 151741, Note_on_c, 0, 42, 67
1, 151747, Note_on_c, 0, 87, 80
1, 151782, Note_on_c, 0, 42, 0
1, 151833, Note_on_c, 0, 86, 81
1, 151836, Note_on_c, 0, 50, 59
1, 151875, Note_on_c, 0, 87, 0
1, 151908, Note_on_c, 0, 86, 0
1, 151912, Note_on_c, 0, 42, 57
1, 151922, Note_on_c, 0, 84, 74
1, 151928, Note_on_c, 0, 50, 0
1, 151955, Note_on_c, 0, 42, 0
1, 151973, Note_on_c, 0, 84, 0
1, 152007, Note_on_c, 0, 82, 70
1, 152027, Note_on_c, 0, 50, 36
1, 152074, Note_on_c, 0, 42, 61
1, 152079, Note_on_c, 0, 50, 0
1, 152094, Note_on_c, 0, 81, 69
1, 152096, Note_on_c, 0, 82, 0
1, 152114, Note_on_c, 0, 42, 0
1, 152125, Note_on_c, 0, 81, 0
1, 152196, Note_on_c, 0, 50, 39
1, 152239, Note_on_c, 0, 50, 0
1, 152264, Note_on_c, 0, 42, 33
1, 152310, Note_on_c, 0, 42, 0
1, 152354, Note_on_c, 0, 50, 42
1, 152434, Note_on_c, 0, 50, 0
1, 152450, Note_on_c, 0, 43, 53
1, 152462, Note_on_c, 0, 58, 47
1, 152496, Note_on_c, 0, 43, 0
1, 152558, Note_on_c, 0, 50, 37
1, 152611, Note_on_c, 0, 50, 0
1, 152615, Note_on_c, 0, 43, 48
1, 152621, Note_on_c, 0, 58, 0
1, 152645, Note_on_c, 0, 62, 62
1, 152667, Note_on_c, 0, 43, 0
1, 152717, Note_on_c, 0, 50, 45
1, 152722, Note_on_c, 0, 60, 65
1, 152725, Note_on_c, 0, 62, 0
1, 152768, Note_on_c, 0, 50, 0
1, 152800, Note_on_c, 0, 43, 57
1, 152811, Note_on_c, 0, 58, 60
1, 152817, Note_on_c, 0, 60, 0
1, 152850, Note_on_c, 0, 43, 0
1, 152860, Note_on_c, 0, 58, 0
1, 152898, Note_on_c, 0, 50, 55
1, 152961, Note_on_c, 0, 43, 57
1, 152962, Note_on_c, 0, 50, 0
1, 153021, Note_on_c, 0, 43, 0
1, 153052, Note_on_c, 0, 50, 43
1, 153125, Note_on_c, 0, 50, 0
1, 153151, Note_on_c, 0, 45, 60
1, 153165, Note_on_c, 0, 84, 74
1, 153192, Note_on_c, 0, 45, 0
1, 153247, Note_on_c, 0, 82, 74
1, 153250, Note_on_c, 0, 50, 54
1, 153270, Note_on_c, 0, 84, 0
1, 153308, Note_on_c, 0, 50, 0
1, 153323, Note_on_c, 0, 81, 67
1, 153324, Note_on_c, 0, 45, 57
1, 153325, Note_on_c, 0, 82, 0
1, 153368, Note_on_c, 0, 45, 0
1, 153374, Note_on_c, 0, 81, 0
1, 153404, Note_on_c, 0, 79, 69
1, 153412, Note_on_c, 0, 50, 59
1, 153466, Note_on_c, 0, 50, 0
1, 153471, Control_c, 0, 67, 115
1, 153487, Note_on_c, 0, 45, 62
1, 153488, Control_c, 0, 67, 103
1, 153490, Note_on_c, 0, 78, 78
1, 153507, Control_c, 0, 67, 89
1, 153508, Note_on_c, 0, 79, 0
1, 153527, Control_c, 0, 67, 71
1, 153537, Note_on_c, 0, 45, 0
1, 153542, Note_on_c, 0, 78, 0
1, 153544, Control_c, 0, 67, 52
1, 153562, Control_c, 0, 67, 31
1, 153567, Note_on_c, 0, 50, 65
1, 153581, Control_c, 0, 67, 11
1, 153601, Control_c, 0, 67, 0
1, 153638, Note_on_c, 0, 50, 0
1, 153648, Note_on_c, 0, 45, 67
1, 153702, Note_on_c, 0, 45, 0
1, 153752, Note_on_c, 0, 50, 61
1, 153818, Note_on_c, 0, 50, 0
1, 153838, Note_on_c, 0, 74, 84
1, 153839, Note_on_c, 0, 46, 75
1, 153895, Note_on_c, 0, 46, 0
1, 153913, Note_on_c, 0, 50, 63
1, 153927, Note_on_c, 0, 72, 84
1, 153972, Note_on_c, 0, 50, 0
1, 153977, Note_on_c, 0, 74, 0
1, 153999, Note_on_c, 0, 46, 76
1, 153999, Note_on_c, 0, 70, 85
1, 154057, Note_on_c, 0, 72, 0
1, 154062, Note_on_c, 0, 46, 0
1, 154073, Note_on_c, 0, 50, 73
1, 154078, Note_on_c, 0, 69, 87
1, 154113, Note_on_c, 0, 70, 0
1, 154118, Note_on_c, 0, 50, 0
1, 154165, Note_on_c, 0, 67, 92
1, 154176, Note_on_c, 0, 69, 0
1, 154178, Note_on_c, 0, 46, 80
1, 154237, Note_on_c, 0, 67, 0
1, 154241, Note_on_c, 0, 46, 0
1, 154251, Note_on_c, 0, 55, 84
1, 154301, Note_on_c, 0, 51, 21
1, 154322, Note_on_c, 0, 51, 0
1, 154344, Note_on_c, 0, 55, 0
1, 154347, Note_on_c, 0, 46, 85
1, 154376, Note_on_c, 0, 50, 22
1, 154419, Note_on_c, 0, 46, 0
1, 154420, Note_on_c, 0, 55, 80
1, 154432, Note_on_c, 0, 50, 0
1, 154503, Note_on_c, 0, 80, 94
1, 154515, Note_on_c, 0, 47, 86
1, 154527, Note_on_c, 0, 55, 0
1, 154581, Note_on_c, 0, 47, 0
1, 154581, Note_on_c, 0, 79, 91
1, 154597, Note_on_c, 0, 55, 75
1, 154645, Note_on_c, 0, 80, 0
1, 154678, Note_on_c, 0, 77, 91
1, 154686, Note_on_c, 0, 79, 0
1, 154694, Note_on_c, 0, 47, 83
1, 154701, Note_on_c, 0, 55, 0
1, 154746, Note_on_c, 0, 47, 0
1, 154761, Note_on_c, 0, 75, 94
1, 154762, Note_on_c, 0, 77, 0
1, 154781, Note_on_c, 0, 55, 74
1, 154857, Note_on_c, 0, 47, 75
1, 154857, Note_on_c, 0, 74, 91
1, 154864, Note_on_c, 0, 55, 0
1, 154865, Note_on_c, 0, 75, 0
1, 154898, Note_on_c, 0, 47, 0
1, 154907, Note_on_c, 0, 74, 0
1, 154936, Note_on_c, 0, 55, 64
1, 154936, Control_c, 0, 67, 14
1, 154956, Control_c, 0, 67, 23
1, 154975, Control_c, 0, 67, 31
1, 154993, Control_c, 0, 67, 40
1, 155009, Note_on_c, 0, 55, 0
1, 155010, Control_c, 0, 67, 57
1, 155027, Note_on_c, 0, 47, 53
1, 155030, Control_c, 0, 64, 0
1, 155032, Control_c, 0, 67, 87
1, 155050, Control_c, 0, 67, 115
1, 155064, Note_on_c, 0, 47, 0
1, 155066, Control_c, 0, 67, 127
1, 155114, Note_on_c, 0, 55, 50
1, 155189, Note_on_c, 0, 55, 0
1, 155222, Note_on_c, 0, 48, 55
1, 155249, Note_on_c, 0, 63, 52
1, 155278, Note_on_c, 0, 48, 0
1, 155333, Note_on_c, 0, 55, 43
1, 155392, Note_on_c, 0, 63, 0
1, 155398, Note_on_c, 0, 55, 0
1, 155419, Note_on_c, 0, 48, 47
1, 155444, Note_on_c, 0, 67, 56
1, 155466, Note_on_c, 0, 48, 0
1, 155511, Note_on_c, 0, 67, 0
1, 155516, Note_on_c, 0, 65, 59
1, 155532, Note_on_c, 0, 55, 45
1, 155607, Note_on_c, 0, 65, 0
1, 155609, Note_on_c, 0, 48, 50
1, 155610, Note_on_c, 0, 63, 60
1, 155611, Note_on_c, 0, 55, 0
1, 155658, Note_on_c, 0, 48, 0
1, 155660, Note_on_c, 0, 63, 0
1, 155709, Note_on_c, 0, 55, 42
1, 155774, Note_on_c, 0, 55, 0
1, 155776, Note_on_c, 0, 48, 51
1, 155824, Note_on_c, 0, 48, 0
1, 155864, Note_on_c, 0, 55, 50
1, 155940, Note_on_c, 0, 55, 0
1, 155959, Note_on_c, 0, 50, 51
1, 155967, Note_on_c, 0, 77, 61
1, 156006, Note_on_c, 0, 50, 0
1, 156048, Note_on_c, 0, 77, 0
1, 156050, Note_on_c, 0, 75, 65
1, 156054, Note_on_c, 0, 55, 43
1, 156117, Note_on_c, 0, 55, 0
1, 156124, Note_on_c, 0, 50, 48
1, 156125, Note_on_c, 0, 75, 0
1, 156129, Note_on_c, 0, 74, 66
1, 156170, Note_on_c, 0, 50, 0
1, 156188, Note_on_c, 0, 74, 0
1, 156209, Note_on_c, 0, 72, 59
1, 156214, Note_on_c, 0, 55, 49
1, 156277, Note_on_c, 0, 55, 0
1, 156282, Note_on_c, 0, 72, 0
1, 156288, Note_on_c, 0, 50, 50
1, 156289, Note_on_c, 0, 71, 59
1, 156335, Note_on_c, 0, 71, 0
1, 156345, Note_on_c, 0, 50, 0
1, 156379, Note_on_c, 0, 55, 49
1, 156447, Note_on_c, 0, 55, 0
1, 156463, Note_on_c, 0, 50, 49
1, 156509, Note_on_c, 0, 50, 0
1, 156574, Note_on_c, 0, 55, 53
1, 156638, Note_on_c, 0, 55, 0
1, 156648, Note_on_c, 0, 60, 57
1, 156655, Note_on_c, 0, 51, 56
1, 156702, Note_on_c, 0, 51, 0
1, 156746, Note_on_c, 0, 55, 57
1, 156795, Note_on_c, 0, 60, 0
1, 156815, Note_on_c, 0, 55, 0
1, 156823, Note_on_c, 0, 51, 55
1, 156826, Note_on_c, 0, 63, 65
1, 156877, Note_on_c, 0, 51, 0
1, 156899, Note_on_c, 0, 63, 0
1, 156905, Note_on_c, 0, 62, 67
1, 156913, Note_on_c, 0, 55, 50
1, 156968, Note_on_c, 0, 62, 0
1, 156987, Note_on_c, 0, 55, 0
1, 156993, Note_on_c, 0, 60, 59
1, 156997, Note_on_c, 0, 51, 57
1, 157028, Note_on_c, 0, 60, 0
1, 157043, Note_on_c, 0, 51, 0
1, 157079, Note_on_c, 0, 55, 50
1, 157159, Note_on_c, 0, 55, 0
1, 157169, Note_on_c, 0, 51, 45
1, 157220, Note_on_c, 0, 51, 0
1, 157259, Note_on_c, 0, 55, 38
1, 157332, Note_on_c, 0, 55, 0
1, 157340, Note_on_c, 0, 80, 72
1, 157348, Note_on_c, 0, 47, 54
1, 157388, Note_on_c, 0, 47, 0
1, 157418, Note_on_c, 0, 79, 74
1, 157444, Note_on_c, 0, 80, 0
1, 157446, Note_on_c, 0, 55, 52
1, 157492, Note_on_c, 0, 79, 0
1, 157517, Note_on_c, 0, 47, 56
1, 157520, Note_on_c, 0, 77, 66
1, 157525, Note_on_c, 0, 55, 0
1, 157559, Note_on_c, 0, 47, 0
1, 157566, Note_on_c, 0, 77, 0
1, 157593, Note_on_c, 0, 75, 67
1, 157625, Note_on_c, 0, 55, 47
1, 157686, Note_on_c, 0, 75, 0
1, 157686, Note_on_c, 0, 47, 52
1, 157689, Note_on_c, 0, 74, 62
1, 157691, Note_on_c, 0, 55, 0
1, 157721, Note_on_c, 0, 74, 0
1, 157727, Note_on_c, 0, 47, 0
1, 157776, Note_on_c, 0, 55, 49
1, 157841, Note_on_c, 0, 55, 0
1, 157852, Note_on_c, 0, 47, 54
1, 157904, Note_on_c, 0, 47, 0
1, 157963, Note_on_c, 0, 55, 52
1, 158020, Note_on_c, 0, 55, 0
1, 158032, Note_on_c, 0, 63, 66
1, 158047, Note_on_c, 0, 48, 47
1, 158087, Note_on_c, 0, 48, 0
1, 158136, Note_on_c, 0, 55, 57
1, 158168, Note_on_c, 0, 63, 0
1, 158198, Note_on_c, 0, 48, 56
1, 158201, Note_on_c, 0, 55, 0
1, 158229, Note_on_c, 0, 67, 62
1, 158251, Note_on_c, 0, 48, 0
1, 158302, Note_on_c, 0, 65, 70
1, 158311, Note_on_c, 0, 55, 48
1, 158315, Note_on_c, 0, 67, 0
1, 158363, Note_on_c, 0, 55, 0
1, 158379, Note_on_c, 0, 48, 50
1, 158380, Note_on_c, 0, 63, 65
1, 158381, Note_on_c, 0, 65, 0
1, 158434, Note_on_c, 0, 48, 0
1, 158445, Note_on_c, 0, 63, 0
1, 158486, Note_on_c, 0, 55, 59
1, 158541, Note_on_c, 0, 55, 0
1, 158549, Note_on_c, 0, 48, 51
1, 158595, Note_on_c, 0, 48, 0
1, 158648, Note_on_c, 0, 55, 52
1, 158709, Note_on_c, 0, 55, 0
1, 158724, Note_on_c, 0, 77, 69
1, 158727, Note_on_c, 0, 50, 56
1, 158765, Note_on_c, 0, 50, 0
1, 158804, Note_on_c, 0, 75, 71
1, 158814, Note_on_c, 0, 55, 60
1, 158828, Note_on_c, 0, 77, 0
1, 158877, Note_on_c, 0, 74, 71
1, 158880, Note_on_c, 0, 55, 0
1, 158884, Note_on_c, 0, 50, 53
1, 158944, Note_on_c, 0, 50, 0
1, 158960, Note_on_c, 0, 74, 0
1, 158962, Note_on_c, 0, 72, 73
1, 158973, Note_on_c, 0, 75, 0
1, 158985, Note_on_c, 0, 55, 53
1, 159032, Note_on_c, 0, 72, 0
1, 159046, Note_on_c, 0, 71, 65
1, 159055, Note_on_c, 0, 55, 0
1, 159063, Note_on_c, 0, 50, 63
1, 159065, Control_c, 0, 67, 109
1, 159085, Control_c, 0, 67, 90
1, 159102, Control_c, 0, 67, 66
1, 159108, Note_on_c, 0, 50, 0
1, 159111, Note_on_c, 0, 71, 0
1, 159120, Control_c, 0, 67, 39
1, 159133, Note_on_c, 0, 55, 62
1, 159138, Control_c, 0, 67, 12
1, 159159, Control_c, 0, 67, 0
1, 159206, Note_on_c, 0, 50, 62
1, 159214, Note_on_c, 0, 55, 0
1, 159262, Note_on_c, 0, 50, 0
1, 159285, Note_on_c, 0, 55, 58
1, 159388, Note_on_c, 0, 55, 0
1, 159399, Note_on_c, 0, 79, 89
1, 159401, Note_on_c, 0, 51, 76
1, 159451, Poly_aftertouch_c, 0, 53, 0
1, 159454, Note_on_c, 0, 51, 0
1, 159470, Note_on_c, 0, 55, 69
1, 159491, Note_on_c, 0, 77, 86
1, 159541, Note_on_c, 0, 55, 0
1, 159558, Note_on_c, 0, 79, 0
1, 159559, Note_on_c, 0, 51, 75
1, 159573, Note_on_c, 0, 75, 89
1, 159627, Note_on_c, 0, 51, 0
1, 159632, Note_on_c, 0, 77, 0
1, 159641, Note_on_c, 0, 55, 70
1, 159655, Note_on_c, 0, 74, 90
1, 159683, Note_on_c, 0, 55, 0
1, 159686, Note_on_c, 0, 75, 0
1, 159738, Note_on_c, 0, 72, 86
1, 159745, Note_on_c, 0, 51, 80
1, 159748, Note_on_c, 0, 74, 0
1, 159804, Note_on_c, 0, 72, 0
1, 159810, Note_on_c, 0, 51, 0
1, 159826, Note_on_c, 0, 56, 28
1, 159830, Note_on_c, 0, 60, 80
1, 159880, Note_on_c, 0, 56, 0
1, 159916, Note_on_c, 0, 51, 80
1, 159925, Note_on_c, 0, 60, 0
1, 159985, Note_on_c, 0, 51, 0
1, 159989, Note_on_c, 0, 60, 75
1, 160084, Note_on_c, 0, 52, 81
1, 160086, Note_on_c, 0, 60, 0
1, 160086, Note_on_c, 0, 85, 88
1, 160135, Note_on_c, 0, 52, 0
1, 160169, Note_on_c, 0, 60, 71
1, 160172, Note_on_c, 0, 84, 87
1, 160188, Note_on_c, 0, 85, 0
1, 160249, Note_on_c, 0, 60, 0
1, 160253, Note_on_c, 0, 82, 92
1, 160254, Note_on_c, 0, 52, 76
1, 160315, Note_on_c, 0, 52, 0
1, 160316, Note_on_c, 0, 84, 0
1, 160345, Note_on_c, 0, 80, 90
1, 160346, Note_on_c, 0, 60, 66
1, 160380, Note_on_c, 0, 82, 0
1, 160423, Control_c, 0, 67, 9
1, 160437, Note_on_c, 0, 52, 74
1, 160442, Note_on_c, 0, 79, 86
1, 160449, Note_on_c, 0, 60, 0
1, 160456, Note_on_c, 0, 80, 0
1, 160478, Control_c, 0, 67, 16
1, 160486, Note_on_c, 0, 52, 0
1, 160496, Control_c, 0, 67, 24
1, 160513, Note_on_c, 0, 60, 63
1, 160513, Control_c, 0, 67, 32
1, 160518, Note_on_c, 0, 79, 0
1, 160532, Control_c, 0, 67, 40
1, 160550, Control_c, 0, 67, 47
1, 160569, Control_c, 0, 67, 56
1, 160589, Control_c, 0, 67, 66
1, 160596, Note_on_c, 0, 60, 0
1, 160608, Control_c, 0, 64, 12
1, 160609, Control_c, 0, 67, 75
1, 160615, Note_on_c, 0, 52, 72
1, 160625, Control_c, 0, 64, 21
1, 160626, Control_c, 0, 67, 84
1, 160646, Control_c, 0, 64, 28
1, 160647, Control_c, 0, 67, 93
1, 160663, Control_c, 0, 64, 37
1, 160665, Control_c, 0, 67, 104
1, 160669, Note_on_c, 0, 52, 0
1, 160679, Control_c, 0, 64, 48
1, 160682, Control_c, 0, 67, 115
1, 160699, Control_c, 0, 64, 55
1, 160699, Control_c, 0, 67, 124
1, 160717, Control_c, 0, 64, 57
1, 160738, Note_on_c, 0, 60, 40
1, 160809, Control_c, 0, 64, 59
1, 160862, Control_c, 0, 64, 60
1, 160878, Note_on_c, 0, 60, 0
1, 160919, Control_c, 0, 64, 61
1, 160937, Control_c, 0, 64, 58
1, 160953, Note_on_c, 0, 80, 45
1, 160957, Control_c, 0, 64, 43
1, 160974, Control_c, 0, 64, 0
1, 160977, Note_on_c, 0, 53, 38
1, 161065, Control_c, 0, 64, 15
1, 161076, Note_on_c, 0, 56, 43
1, 161082, Control_c, 0, 64, 40
1, 161103, Control_c, 0, 64, 61
1, 161105, Note_on_c, 0, 53, 0
1, 161122, Control_c, 0, 64, 68
1, 161178, Control_c, 0, 64, 70
1, 161196, Note_on_c, 0, 60, 43
1, 161198, Note_on_c, 0, 56, 0
1, 161231, Note_on_c, 0, 80, 0
1, 161241, Note_on_c, 0, 84, 46
1, 161275, Note_on_c, 0, 60, 0
1, 161283, Control_c, 0, 64, 72
1, 161298, Note_on_c, 0, 84, 0
1, 161308, Note_on_c, 0, 82, 58
1, 161375, Poly_aftertouch_c, 0, 65, 127
1, 161393, Control_c, 0, 64, 74
1, 161394, Note_on_c, 0, 80, 56
1, 161401, Note_on_c, 0, 82, 0
1, 161427, Poly_aftertouch_c, 0, 65, 0
1, 161440, Note_on_c, 0, 53, 36
1, 161451, Control_c, 0, 64, 77
1, 161468, Note_on_c, 0, 80, 0
1, 161495, Note_on_c, 0, 53, 0
1, 161507, Note_on_c, 0, 56, 43
1, 161524, Control_c, 0, 64, 80
1, 161540, Control_c, 0, 64, 82
1, 161560, Control_c, 0, 64, 84
1, 161579, Control_c, 0, 64, 87
1, 161587, Note_on_c, 0, 56, 0
1, 161590, Note_on_c, 0, 60, 50
1, 161616, Control_c, 0, 64, 91
1, 161649, Note_on_c, 0, 60, 0
1, 161687, Control_c, 0, 64, 87
1, 161697, Note_on_c, 0, 65, 35
1, 161707, Control_c, 0, 64, 77
1, 161726, Control_c, 0, 64, 65
1, 161744, Control_c, 0, 64, 57
1, 161756, Note_on_c, 0, 85, 51
1, 161774, Note_on_c, 0, 65, 0
1, 161779, Control_c, 0, 64, 60
1, 161782, Note_on_c, 0, 53, 41
1, 161798, Control_c, 0, 64, 66
1, 161817, Control_c, 0, 64, 70
1, 161836, Control_c, 0, 64, 74
1, 161854, Control_c, 0, 64, 77
1, 161855, Note_on_c, 0, 53, 0
1, 161883, Note_on_c, 0, 58, 49
1, 161893, Control_c, 0, 64, 81
1, 161912, Control_c, 0, 64, 83
1, 161933, Note_on_c, 0, 85, 0
1, 161946, Control_c, 0, 64, 78
1, 161950, Note_on_c, 0, 89, 61
1, 161959, Note_on_c, 0, 58, 0
1, 161964, Control_c, 0, 64, 67
1, 161974, Note_on_c, 0, 61, 47
1, 161983, Control_c, 0, 64, 54
1, 162002, Control_c, 0, 64, 52
1, 162021, Control_c, 0, 64, 55
1, 162027, Note_on_c, 0, 89, 0
1, 162032, Note_on_c, 0, 61, 0
1, 162040, Note_on_c, 0, 87, 62
1, 162041, Control_c, 0, 64, 62
1, 162059, Control_c, 0, 64, 69
1, 162073, Control_c, 0, 64, 74
1, 162078, Note_on_c, 0, 65, 33
1, 162094, Control_c, 0, 64, 77
1, 162113, Note_on_c, 0, 85, 62
1, 162133, Note_on_c, 0, 87, 0
1, 162160, Note_on_c, 0, 65, 0
1, 162163, Control_c, 0, 64, 79
1, 162178, Note_on_c, 0, 53, 32
1, 162179, Note_on_c, 0, 85, 0
1, 162220, Control_c, 0, 64, 81
1, 162233, Note_on_c, 0, 53, 0
1, 162245, Note_on_c, 0, 58, 45
1, 162257, Control_c, 0, 64, 84
1, 162295, Control_c, 0, 64, 87
1, 162319, Note_on_c, 0, 61, 48
1, 162320, Note_on_c, 0, 58, 0
1, 162349, Control_c, 0, 64, 91
1, 162378, Note_on_c, 0, 61, 0
1, 162402, Control_c, 0, 64, 95
1, 162406, Note_on_c, 0, 65, 43
1, 162461, Note_on_c, 0, 65, 0
1, 162476, Control_c, 0, 64, 87
1, 162487, Note_on_c, 0, 66, 49
1, 162494, Control_c, 0, 64, 71
1, 162513, Control_c, 0, 64, 57
1, 162526, Note_on_c, 0, 53, 43
1, 162551, Control_c, 0, 64, 60
1, 162570, Control_c, 0, 64, 67
1, 162588, Control_c, 0, 64, 74
1, 162600, Note_on_c, 0, 53, 0
1, 162607, Control_c, 0, 64, 81
1, 162624, Control_c, 0, 64, 87
1, 162626, Note_on_c, 0, 54, 41
1, 162643, Control_c, 0, 64, 91
1, 162669, Note_on_c, 0, 66, 0
1, 162688, Note_on_c, 0, 70, 58
1, 162695, Note_on_c, 0, 54, 0
1, 162712, Note_on_c, 0, 58, 29
1, 162746, Note_on_c, 0, 61, 42
1, 162759, Note_on_c, 0, 58, 0
1, 162761, Note_on_c, 0, 68, 65
1, 162772, Control_c, 0, 64, 75
1, 162790, Control_c, 0, 64, 54
1, 162800, Note_on_c, 0, 70, 0
1, 162809, Control_c, 0, 64, 39
1, 162830, Note_on_c, 0, 61, 0
1, 162848, Note_on_c, 0, 66, 56
1, 162849, Note_on_c, 0, 68, 0
1, 162853, Note_on_c, 0, 53, 37
1, 162862, Control_c, 0, 64, 52
1, 162882, Control_c, 0, 64, 65
1, 162900, Control_c, 0, 64, 72
1, 162907, Note_on_c, 0, 53, 0
1, 162921, Control_c, 0, 64, 76
1, 162932, Note_on_c, 0, 66, 0
1, 162934, Note_on_c, 0, 54, 49
1, 162938, Control_c, 0, 64, 78
1, 162974, Control_c, 0, 64, 81
1, 162992, Control_c, 0, 64, 85
1, 163011, Control_c, 0, 64, 89
1, 163017, Note_on_c, 0, 54, 0
1, 163023, Note_on_c, 0, 58, 43
1, 163029, Control_c, 0, 64, 93
1, 163077, Note_on_c, 0, 58, 0
1, 163121, Note_on_c, 0, 61, 43
1, 163155, Control_c, 0, 64, 97
1, 163284, Control_c, 0, 64, 101
1, 163334, Note_on_c, 0, 61, 0
1, 163373, Note_on_c, 0, 51, 37
1, 163383, Note_on_c, 0, 71, 59
1, 163394, Control_c, 0, 64, 97
1, 163412, Control_c, 0, 64, 82
1, 163430, Control_c, 0, 64, 59
1, 163449, Control_c, 0, 64, 39
1, 163476, Note_on_c, 0, 51, 0
1, 163489, Note_on_c, 0, 54, 44
1, 163505, Control_c, 0, 64, 47
1, 163524, Control_c, 0, 64, 63
1, 163542, Control_c, 0, 64, 72
1, 163560, Control_c, 0, 64, 77
1, 163578, Control_c, 0, 64, 80
1, 163596, Control_c, 0, 64, 82
1, 163608, Note_on_c, 0, 54, 0
1, 163610, Note_on_c, 0, 59, 39
1, 163615, Control_c, 0, 64, 85
1, 163633, Control_c, 0, 64, 89
1, 163670, Control_c, 0, 64, 94
1, 163682, Note_on_c, 0, 71, 0
1, 163691, Note_on_c, 0, 63, 42
1, 163725, Note_on_c, 0, 59, 0
1, 163771, Note_on_c, 0, 51, 49
1, 163785, Note_on_c, 0, 63, 0
1, 163855, Note_on_c, 0, 51, 0
1, 163872, Note_on_c, 0, 54, 48
1, 163948, Note_on_c, 0, 59, 39
1, 163954, Note_on_c, 0, 54, 0
1, 164009, Note_on_c, 0, 59, 0
1, 164034, Control_c, 0, 64, 98
1, 164052, Note_on_c, 0, 63, 40
1, 164091, Control_c, 0, 64, 102
1, 164131, Note_on_c, 0, 63, 0
1, 164137, Note_on_c, 0, 77, 62
1, 164144, Control_c, 0, 64, 96
1, 164159, Note_on_c, 0, 51, 46
1, 164164, Control_c, 0, 64, 84
1, 164182, Control_c, 0, 64, 66
1, 164201, Control_c, 0, 64, 52
1, 164238, Control_c, 0, 64, 55
1, 164254, Note_on_c, 0, 53, 50
1, 164258, Control_c, 0, 64, 65
1, 164264, Note_on_c, 0, 51, 0
1, 164274, Control_c, 0, 64, 73
1, 164293, Control_c, 0, 64, 81
1, 164311, Control_c, 0, 64, 88
1, 164314, Note_on_c, 0, 77, 0
1, 164329, Control_c, 0, 64, 93
1, 164331, Note_on_c, 0, 81, 62
1, 164342, Note_on_c, 0, 57, 52
1, 164343, Note_on_c, 0, 53, 0
1, 164367, Control_c, 0, 64, 98
1, 164401, Note_on_c, 0, 79, 71
1, 164412, Note_on_c, 0, 57, 0
1, 164422, Control_c, 0, 64, 82
1, 164437, Note_on_c, 0, 81, 0
1, 164439, Note_on_c, 0, 60, 39
1, 164440, Control_c, 0, 64, 59
1, 164459, Control_c, 0, 64, 34
1, 164479, Control_c, 0, 64, 30
1, 164483, Note_on_c, 0, 79, 0
1, 164486, Note_on_c, 0, 77, 69
1, 164496, Note_on_c, 0, 51, 56
1, 164512, Note_on_c, 0, 60, 0
1, 164513, Control_c, 0, 64, 45
1, 164532, Control_c, 0, 64, 66
1, 164551, Control_c, 0, 64, 77
1, 164568, Control_c, 0, 64, 85
1, 164604, Note_on_c, 0, 53, 48
1, 164604, Control_c, 0, 64, 77
1, 164617, Note_on_c, 0, 77, 0
1, 164618, Note_on_c, 0, 51, 0
1, 164624, Control_c, 0, 64, 64
1, 164643, Control_c, 0, 64, 53
1, 164657, Note_on_c, 0, 57, 50
1, 164677, Note_on_c, 0, 53, 0
1, 164680, Control_c, 0, 64, 62
1, 164699, Control_c, 0, 64, 73
1, 164718, Control_c, 0, 64, 83
1, 164726, Note_on_c, 0, 57, 0
1, 164735, Control_c, 0, 64, 94
1, 164752, Control_c, 0, 64, 101
1, 164754, Note_on_c, 0, 60, 50
1, 164812, Note_on_c, 0, 60, 0
1, 164826, Control_c, 0, 64, 86
1, 164845, Control_c, 0, 64, 59
1, 164859, Note_on_c, 0, 82, 62
1, 164861, Note_on_c, 0, 49, 53
1, 164864, Control_c, 0, 64, 26
1, 164920, Control_c, 0, 64, 51
1, 164938, Control_c, 0, 64, 71
1, 164969, Note_on_c, 0, 53, 52
1, 164969, Control_c, 0, 64, 81
1, 164990, Control_c, 0, 64, 89
1, 164998, Note_on_c, 0, 49, 0
1, 165027, Control_c, 0, 64, 94
1, 165040, Note_on_c, 0, 58, 54
1, 165060, Note_on_c, 0, 82, 0
1, 165064, Note_on_c, 0, 53, 0
1, 165074, Note_on_c, 0, 85, 68
1, 165080, Control_c, 0, 64, 100
1, 165103, Note_on_c, 0, 58, 0
1, 165118, Control_c, 0, 64, 104
1, 165135, Note_on_c, 0, 61, 53
1, 165155, Note_on_c, 0, 84, 75
1, 165155, Control_c, 0, 64, 96
1, 165174, Control_c, 0, 64, 77
1, 165184, Note_on_c, 0, 85, 0
1, 165191, Control_c, 0, 64, 52
1, 165209, Control_c, 0, 64, 37
1, 165218, Note_on_c, 0, 49, 50
1, 165236, Note_on_c, 0, 82, 65
1, 165245, Note_on_c, 0, 61, 0
1, 165246, Note_on_c, 0, 84, 0
1, 165246, Control_c, 0, 64, 44
1, 165265, Control_c, 0, 64, 62
1, 165284, Control_c, 0, 64, 74
1, 165301, Note_on_c, 0, 53, 49
1, 165303, Control_c, 0, 64, 81
1, 165309, Note_on_c, 0, 82, 0
1, 165321, Control_c, 0, 64, 85
1, 165335, Note_on_c, 0, 49, 0
1, 165377, Control_c, 0, 64, 88
1, 165402, Note_on_c, 0, 58, 52
1, 165408, Note_on_c, 0, 53, 0
1, 165412, Control_c, 0, 64, 94
1, 165431, Control_c, 0, 64, 98
1, 165458, Note_on_c, 0, 58, 0
1, 165466, Control_c, 0, 64, 102
1, 165494, Note_on_c, 0, 61, 48
1, 165560, Control_c, 0, 64, 95
1, 165567, Note_on_c, 0, 61, 0
1, 165579, Control_c, 0, 64, 69
1, 165593, Note_on_c, 0, 63, 60
1, 165595, Note_on_c, 0, 49, 54
1, 165597, Control_c, 0, 64, 0
1, 165689, Control_c, 0, 64, 23
1, 165695, Note_on_c, 0, 51, 53
1, 165707, Control_c, 0, 64, 41
1, 165727, Control_c, 0, 64, 59
1, 165730, Note_on_c, 0, 49, 0
1, 165743, Control_c, 0, 64, 67
1, 165757, Note_on_c, 0, 63, 0
1, 165764, Note_on_c, 0, 55, 55
1, 165774, Note_on_c, 0, 67, 61
1, 165787, Note_on_c, 0, 51, 0
1, 165817, Control_c, 0, 64, 63
1, 165836, Control_c, 0, 64, 55
1, 165855, Control_c, 0, 64, 20
1, 165857, Note_on_c, 0, 55, 0
1, 165864, Note_on_c, 0, 65, 66
1, 165873, Note_on_c, 0, 67, 0
1, 165873, Control_c, 0, 64, 0
1, 165876, Note_on_c, 0, 58, 41
1, 165927, Note_on_c, 0, 49, 54
1, 165955, Note_on_c, 0, 58, 0
1, 165970, Note_on_c, 0, 63, 57
1, 165985, Note_on_c, 0, 65, 0
1, 166017, Control_c, 0, 64, 10
1, 166035, Control_c, 0, 64, 31
1, 166051, Note_on_c, 0, 49, 0
1, 166052, Note_on_c, 0, 51, 47
1, 166053, Control_c, 0, 64, 48
1, 166072, Control_c, 0, 64, 63
1, 166091, Control_c, 0, 64, 69
1, 166095, Note_on_c, 0, 63, 0
1, 166110, Control_c, 0, 64, 72
1, 166125, Note_on_c, 0, 55, 51
1, 166128, Control_c, 0, 64, 75
1, 166145, Control_c, 0, 64, 80
1, 166154, Note_on_c, 0, 51, 0
1, 166163, Control_c, 0, 64, 87
1, 166183, Control_c, 0, 64, 94
1, 166201, Control_c, 0, 64, 99
1, 166212, Note_on_c, 0, 55, 0
1, 166244, Note_on_c, 0, 58, 33
1, 166293, Control_c, 0, 64, 103
1, 166320, Note_on_c, 0, 58, 0
1, 166430, Note_on_c, 0, 68, 62
1, 166438, Note_on_c, 0, 48, 47
1, 166459, Control_c, 0, 64, 83
1, 166477, Control_c, 0, 64, 50
1, 166495, Control_c, 0, 64, 0
1, 166516, Note_on_c, 0, 48, 0
1, 166541, Note_on_c, 0, 51, 45
1, 166570, Control_c, 0, 64, 22
1, 166589, Control_c, 0, 64, 46
1, 166606, Control_c, 0, 64, 68
1, 166624, Control_c, 0, 64, 79
1, 166632, Note_on_c, 0, 56, 47
1, 166639, Note_on_c, 0, 51, 0
1, 166643, Control_c, 0, 64, 87
1, 166662, Control_c, 0, 64, 91
1, 166682, Note_on_c, 0, 56, 0
1, 166715, Control_c, 0, 64, 96
1, 166720, Note_on_c, 0, 60, 43
1, 166786, Note_on_c, 0, 68, 0
1, 166840, Note_on_c, 0, 48, 48
1, 166841, Control_c, 0, 64, 100
1, 166871, Note_on_c, 0, 60, 0
1, 166914, Note_on_c, 0, 48, 0
1, 166931, Note_on_c, 0, 51, 49
1, 166990, Control_c, 0, 64, 104
1, 167006, Note_on_c, 0, 56, 49
1, 167007, Note_on_c, 0, 51, 0
1, 167027, Control_c, 0, 67, 119
1, 167059, Note_on_c, 0, 56, 0
1, 167064, Control_c, 0, 64, 108
1, 167098, Note_on_c, 0, 60, 47
1, 167119, Control_c, 0, 64, 112
1, 167121, Control_c, 0, 67, 115
1, 167159, Note_on_c, 0, 60, 0
1, 167175, Control_c, 0, 67, 110
1, 167192, Control_c, 0, 64, 105
1, 167193, Control_c, 0, 67, 106
1, 167199, Note_on_c, 0, 73, 62
1, 167210, Control_c, 0, 64, 88
1, 167211, Control_c, 0, 67, 100
1, 167216, Note_on_c, 0, 48, 43
1, 167229, Control_c, 0, 64, 65
1, 167233, Control_c, 0, 67, 93
1, 167247, Control_c, 0, 64, 51
1, 167248, Control_c, 0, 67, 84
1, 167265, Control_c, 0, 67, 71
1, 167285, Control_c, 0, 64, 59
1, 167286, Control_c, 0, 67, 55
1, 167296, Note_on_c, 0, 49, 45
1, 167300, Note_on_c, 0, 48, 0
1, 167302, Control_c, 0, 64, 69
1, 167304, Control_c, 0, 67, 39
1, 167321, Control_c, 0, 64, 77
1, 167322, Control_c, 0, 67, 22
1, 167340, Control_c, 0, 64, 86
1, 167358, Control_c, 0, 64, 93
1, 167375, Control_c, 0, 64, 99
1, 167382, Note_on_c, 0, 73, 0
1, 167393, Note_on_c, 0, 49, 0
1, 167394, Control_c, 0, 67, 0
1, 167396, Note_on_c, 0, 53, 43
1, 167397, Note_on_c, 0, 77, 65
1, 167412, Control_c, 0, 64, 106
1, 167449, Control_c, 0, 64, 111
1, 167471, Note_on_c, 0, 77, 0
1, 167473, Note_on_c, 0, 56, 46
1, 167477, Note_on_c, 0, 75, 67
1, 167488, Note_on_c, 0, 53, 0
1, 167524, Control_c, 0, 64, 103
1, 167541, Control_c, 0, 64, 82
1, 167548, Note_on_c, 0, 73, 59
1, 167550, Note_on_c, 0, 48, 52
1, 167559, Control_c, 0, 64, 55
1, 167580, Control_c, 0, 64, 39
1, 167593, Note_on_c, 0, 75, 0
1, 167601, Note_on_c, 0, 56, 0
1, 167615, Control_c, 0, 64, 47
1, 167633, Control_c, 0, 64, 65
1, 167638, Note_on_c, 0, 48, 0
1, 167645, Note_on_c, 0, 49, 53
1, 167652, Control_c, 0, 64, 76
1, 167660, Note_on_c, 0, 73, 0
1, 167671, Control_c, 0, 64, 86
1, 167690, Control_c, 0, 64, 93
1, 167713, Note_on_c, 0, 53, 55
1, 167727, Control_c, 0, 64, 99
1, 167741, Note_on_c, 0, 49, 0
1, 167777, Control_c, 0, 64, 105
1, 167815, Control_c, 0, 64, 110
1, 167816, Note_on_c, 0, 53, 0
1, 167827, Note_on_c, 0, 56, 56
1, 167850, Control_c, 0, 64, 114
1, 167924, Control_c, 0, 64, 93
1, 167928, Note_on_c, 0, 56, 0
1, 167928, Note_on_c, 0, 46, 56
1, 167943, Control_c, 0, 64, 59
1, 167945, Note_on_c, 0, 78, 68
1, 167962, Control_c, 0, 64, 0
1, 168017, Control_c, 0, 64, 21
1, 168034, Note_on_c, 0, 49, 55
1, 168035, Control_c, 0, 64, 47
1, 168046, Note_on_c, 0, 46, 0
1, 168054, Control_c, 0, 64, 71
1, 168072, Control_c, 0, 64, 82
1, 168089, Control_c, 0, 64, 90
1, 168094, Note_on_c, 0, 54, 55
1, 168135, Note_on_c, 0, 78, 0
1, 168139, Note_on_c, 0, 82, 74
1, 168142, Note_on_c, 0, 49, 0
1, 168169, Note_on_c, 0, 54, 0
1, 168186, Note_on_c, 0, 58, 49
1, 168218, Note_on_c, 0, 80, 73
1, 168238, Control_c, 0, 64, 86
1, 168256, Control_c, 0, 64, 65
1, 168268, Note_on_c, 0, 46, 52
1, 168274, Note_on_c, 0, 82, 0
1, 168274, Control_c, 0, 64, 0
1, 168279, Note_on_c, 0, 58, 0
1, 168301, Note_on_c, 0, 78, 71
1, 168342, Note_on_c, 0, 80, 0
1, 168370, Note_on_c, 0, 49, 55
1, 168386, Control_c, 0, 64, 40
1, 168394, Note_on_c, 0, 78, 0
1, 168402, Control_c, 0, 64, 64
1, 168423, Control_c, 0, 64, 74
1, 168439, Note_on_c, 0, 54, 52
1, 168441, Control_c, 0, 64, 80
1, 168460, Control_c, 0, 64, 82
1, 168470, Note_on_c, 0, 46, 0
1, 168480, Note_on_c, 0, 49, 0
1, 168495, Control_c, 0, 64, 86
1, 168525, Note_on_c, 0, 54, 0
1, 168533, Control_c, 0, 64, 91
1, 168536, Note_on_c, 0, 58, 50
1, 168588, Control_c, 0, 64, 95
1, 168610, Note_on_c, 0, 58, 0
1, 168631, Note_on_c, 0, 46, 61
1, 168641, Note_on_c, 0, 60, 74
1, 168642, Control_c, 0, 64, 91
1, 168662, Control_c, 0, 64, 70
1, 168683, Control_c, 0, 64, 12
1, 168713, Control_c, 0, 64, 0
1, 168753, Note_on_c, 0, 48, 58
1, 168786, Control_c, 0, 64, 32
1, 168804, Control_c, 0, 64, 56
1, 168811, Note_on_c, 0, 46, 0
1, 168823, Control_c, 0, 64, 73
1, 168831, Note_on_c, 0, 60, 0
1, 168840, Control_c, 0, 64, 81
1, 168842, Note_on_c, 0, 52, 59
1, 168860, Control_c, 0, 64, 86
1, 168863, Note_on_c, 0, 48, 0
1, 168865, Note_on_c, 0, 64, 75
1, 168898, Control_c, 0, 64, 91
1, 168935, Note_on_c, 0, 52, 0
1, 168938, Note_on_c, 0, 62, 78
1, 168941, Note_on_c, 0, 55, 48
1, 168947, Note_on_c, 0, 64, 0
1, 168971, Control_c, 0, 64, 73
1, 168990, Control_c, 0, 64, 26
1, 168993, Poly_aftertouch_c, 0, 65, 0
1, 169008, Control_c, 0, 64, 0
1, 169019, Note_on_c, 0, 46, 55
1, 169024, Note_on_c, 0, 55, 0
1, 169025, Note_on_c, 0, 60, 73
1, 169029, Note_on_c, 0, 62, 0
1, 169081, Control_c, 0, 64, 24
1, 169100, Control_c, 0, 64, 50
1, 169120, Control_c, 0, 64, 67
1, 169131, Note_on_c, 0, 48, 49
1, 169137, Control_c, 0, 64, 74
1, 169138, Note_on_c, 0, 60, 0
1, 169157, Control_c, 0, 64, 78
1, 169173, Control_c, 0, 64, 81
1, 169192, Control_c, 0, 64, 83
1, 169201, Note_on_c, 0, 52, 58
1, 169210, Control_c, 0, 64, 87
1, 169218, Note_on_c, 0, 46, 0
1, 169244, Note_on_c, 0, 48, 0
1, 169245, Control_c, 0, 64, 91
1, 169304, Note_on_c, 0, 52, 0
1, 169304, Note_on_c, 0, 55, 49
1, 169378, Note_on_c, 0, 55, 0
1, 169396, Control_c, 0, 64, 95
1, 169488, Note_on_c, 0, 44, 55
1, 169509, Note_on_c, 0, 72, 79
1, 169525, Control_c, 0, 64, 77
1, 169542, Control_c, 0, 64, 54
1, 169560, Control_c, 0, 64, 28
1, 169579, Control_c, 0, 64, 23
1, 169617, Control_c, 0, 64, 36
1, 169633, Note_on_c, 0, 48, 55
1, 169649, Control_c, 0, 64, 55
1, 169654, Note_on_c, 0, 44, 0
1, 169666, Control_c, 0, 64, 70
1, 169686, Control_c, 0, 64, 78
1, 169704, Control_c, 0, 64, 82
1, 169733, Note_on_c, 0, 53, 58
1, 169740, Control_c, 0, 64, 85
1, 169769, Note_on_c, 0, 48, 0
1, 169776, Control_c, 0, 64, 88
1, 169807, Note_on_c, 0, 56, 64
1, 169810, Note_on_c, 0, 53, 0
1, 169885, Note_on_c, 0, 72, 0
1, 169896, Note_on_c, 0, 44, 56
1, 169946, Note_on_c, 0, 56, 0
1, 169959, Control_c, 0, 64, 92
1, 169965, Note_on_c, 0, 48, 65
1, 169998, Note_on_c, 0, 44, 0
1, 170050, Note_on_c, 0, 53, 59
1, 170073, Control_c, 0, 64, 96
1, 170096, Note_on_c, 0, 48, 0
1, 170126, Control_c, 0, 64, 100
1, 170132, Note_on_c, 0, 56, 64
1, 170141, Note_on_c, 0, 53, 0
1, 170165, Control_c, 0, 64, 105
1, 170210, Note_on_c, 0, 56, 0
1, 170237, Control_c, 0, 64, 95
1, 170254, Note_on_c, 0, 72, 85
1, 170255, Note_on_c, 0, 43, 69
1, 170255, Control_c, 0, 64, 69
1, 170275, Control_c, 0, 64, 17
1, 170294, Control_c, 0, 64, 0
1, 170349, Control_c, 0, 64, 38
1, 170363, Note_on_c, 0, 46, 67
1, 170366, Control_c, 0, 64, 65
1, 170385, Control_c, 0, 64, 84
1, 170405, Control_c, 0, 64, 101
1, 170422, Control_c, 0, 64, 109
1, 170435, Note_on_c, 0, 72, 0
1, 170441, Note_on_c, 0, 52, 68
1, 170454, Note_on_c, 0, 76, 87
1, 170455, Note_on_c, 0, 43, 0
1, 170495, Note_on_c, 0, 46, 0
1, 170521, Note_on_c, 0, 74, 88
1, 170533, Note_on_c, 0, 55, 69
1, 170534, Note_on_c, 0, 52, 0
1, 170537, Note_on_c, 0, 76, 0
1, 170602, Control_c, 0, 64, 76
1, 170615, Note_on_c, 0, 43, 76
1, 170621, Control_c, 0, 64, 0
1, 170623, Note_on_c, 0, 72, 87
1, 170629, Note_on_c, 0, 74, 0
1, 170647, Note_on_c, 0, 55, 0
1, 170691, Note_on_c, 0, 72, 0
1, 170706, Note_on_c, 0, 46, 74
1, 170713, Control_c, 0, 64, 34
1, 170732, Control_c, 0, 64, 62
1, 170750, Control_c, 0, 64, 75
1, 170771, Control_c, 0, 64, 84
1, 170788, Control_c, 0, 64, 89
1, 170788, Note_on_c, 0, 52, 74
1, 170806, Control_c, 0, 64, 94
1, 170823, Control_c, 0, 64, 100
1, 170830, Note_on_c, 0, 43, 0
1, 170843, Control_c, 0, 64, 105
1, 170853, Note_on_c, 0, 46, 0
1, 170860, Control_c, 0, 64, 110
1, 170880, Note_on_c, 0, 52, 0
1, 170886, Note_on_c, 0, 55, 69
1, 170896, Control_c, 0, 64, 117
1, 170934, Control_c, 0, 64, 121
1, 170974, Note_on_c, 0, 55, 0
1, 171009, Control_c, 0, 64, 113
1, 171022, Note_on_c, 0, 41, 77
1, 171028, Control_c, 0, 64, 75
1, 171039, Note_on_c, 0, 84, 100
1, 171043, Control_c, 0, 64, 0
1, 171135, Control_c, 0, 64, 40
1, 171144, Note_on_c, 0, 44, 72
1, 171155, Control_c, 0, 64, 67
1, 171169, Note_on_c, 0, 41, 0
1, 171172, Control_c, 0, 64, 79
1, 171192, Control_c, 0, 64, 88
1, 171211, Control_c, 0, 64, 92
1, 171219, Note_on_c, 0, 48, 68
1, 171267, Control_c, 0, 64, 96
1, 171271, Note_on_c, 0, 44, 0
1, 171314, Note_on_c, 0, 53, 67
1, 171318, Note_on_c, 0, 48, 0
1, 171393, Control_c, 0, 64, 100
1, 171396, Note_on_c, 0, 41, 73
1, 171431, Note_on_c, 0, 84, 0
1, 171449, Control_c, 0, 64, 105
1, 171467, Note_on_c, 0, 53, 0
1, 171519, Control_c, 0, 64, 111
1, 171550, Note_on_c, 0, 44, 74
1, 171557, Control_c, 0, 64, 115
1, 171565, Note_on_c, 0, 41, 0
1, 171611, Control_c, 0, 64, 120
1, 171638, Note_on_c, 0, 48, 71
1, 171648, Control_c, 0, 64, 125
1, 171685, Note_on_c, 0, 44, 0
1, 171732, Note_on_c, 0, 53, 71
1, 171733, Note_on_c, 0, 48, 0
1, 171828, Note_on_c, 0, 53, 0
1, 171853, Note_on_c, 0, 40, 85
1, 171872, Note_on_c, 0, 84, 92
1, 171906, Control_c, 0, 64, 94
1, 171926, Control_c, 0, 64, 53
1, 171944, Control_c, 0, 64, 0
1, 171979, Control_c, 0, 64, 26
1, 171999, Control_c, 0, 64, 55
1, 172016, Note_on_c, 0, 43, 77
1, 172016, Control_c, 0, 64, 79
1, 172036, Control_c, 0, 64, 98
1, 172048, Note_on_c, 0, 40, 0
1, 172054, Control_c, 0, 64, 112
1, 172091, Control_c, 0, 64, 117
1, 172092, Note_on_c, 0, 84, 0
1, 172101, Note_on_c, 0, 88, 91
1, 172108, Control_c, 0, 64, 121
1, 172120, Note_on_c, 0, 43, 0
1, 172126, Control_c, 0, 64, 126
1, 172129, Note_on_c, 0, 52, 69
1, 172171, Note_on_c, 0, 86, 91
1, 172202, Control_c, 0, 64, 118
1, 172214, Note_on_c, 0, 52, 0
1, 172218, Control_c, 0, 64, 84
1, 172222, Note_on_c, 0, 39, 89
1, 172231, Note_on_c, 0, 88, 0
1, 172238, Control_c, 0, 64, 34
1, 172239, Note_on_c, 0, 84, 96
1, 172256, Control_c, 0, 64, 0
1, 172257, Note_on_c, 0, 86, 0
1, 172292, Control_c, 0, 64, 38
1, 172302, Note_on_c, 0, 84, 0
1, 172310, Control_c, 0, 64, 70
1, 172328, Note_on_c, 0, 43, 69
1, 172329, Control_c, 0, 64, 93
1, 172348, Control_c, 0, 64, 117
1, 172368, Control_c, 0, 64, 124
1, 172396, Note_on_c, 0, 39, 0
1, 172423, Note_on_c, 0, 84, 100
1, 172467, Note_on_c, 0, 51, 80
1, 172472, Note_on_c, 0, 43, 0
1, 172494, Note_on_c, 0, 84, 0
1, 172589, Note_on_c, 0, 51, 0
1, 172604, Note_on_c, 0, 38, 84
1, 172620, Note_on_c, 0, 84, 100
1, 172620, Control_c, 0, 64, 106
1, 172641, Control_c, 0, 64, 54
1, 172659, Control_c, 0, 64, 0
1, 172679, Note_on_c, 0, 84, 0
1, 172713, Control_c, 0, 64, 31
1, 172732, Control_c, 0, 64, 64
1, 172749, Note_on_c, 0, 41, 76
1, 172750, Control_c, 0, 64, 90
1, 172767, Control_c, 0, 64, 115
1, 172784, Note_on_c, 0, 84, 106
1, 172787, Control_c, 0, 64, 126
1, 172795, Note_on_c, 0, 38, 0
1, 172838, Note_on_c, 0, 41, 0
1, 172854, Note_on_c, 0, 50, 72
1, 172962, Note_on_c, 0, 50, 0
1, 173003, Note_on_c, 0, 37, 89
1, 173015, Note_on_c, 0, 89, 108
1, 173026, Control_c, 0, 64, 75
1, 173029, Note_on_c, 0, 84, 0
1, 173045, Control_c, 0, 64, 0
1, 173119, Control_c, 0, 64, 38
1, 173137, Control_c, 0, 64, 71
1, 173154, Control_c, 0, 64, 98
1, 173156, Note_on_c, 0, 41, 72
1, 173174, Control_c, 0, 64, 127
1, 173221, Note_on_c, 0, 83, 101
1, 173230, Note_on_c, 0, 37, 0
1, 173237, Note_on_c, 0, 89, 0
1, 173285, Note_on_c, 0, 49, 75
1, 173292, Note_on_c, 0, 41, 0
1, 173365, Note_on_c, 0, 49, 0
1, 173465, Control_c, 0, 64, 122
1, 173482, Control_c, 0, 64, 65
1, 173496, Note_on_c, 0, 83, 0
1, 173500, Control_c, 0, 64, 0
1, 173510, Note_on_c, 0, 36, 85
1, 173511, Note_on_c, 0, 84, 99
1, 173515, Note_on_c, 0, 48, 87
1, 173631, Control_c, 0, 64, 51
1, 173649, Control_c, 0, 64, 93
1, 173663, Note_on_c, 0, 48, 0
1, 173668, Control_c, 0, 64, 119
1, 173686, Control_c, 0, 64, 127
1, 173693, Note_on_c, 0, 84, 0
1, 173715, Note_on_c, 0, 43, 81
1, 173841, Note_on_c, 0, 43, 0
1, 173864, Note_on_c, 0, 40, 89
1, 174041, Note_on_c, 0, 43, 80
1, 174052, Note_on_c, 0, 67, 102
1, 174122, Note_on_c, 0, 36, 0
1, 174123, Note_on_c, 0, 40, 0
1, 174152, Note_on_c, 0, 43, 0
1, 174182, Note_on_c, 0, 48, 70
1, 174309, Note_on_c, 0, 52, 82
1, 174344, Note_on_c, 0, 48, 0
1, 174418, Control_c, 0, 64, 86
1, 174437, Control_c, 0, 64, 20
1, 174444, Note_on_c, 0, 50, 80
1, 174455, Control_c, 0, 64, 0
1, 174463, Note_on_c, 0, 52, 0
1, 174512, Control_c, 0, 64, 30
1, 174530, Control_c, 0, 64, 57
1, 174549, Control_c, 0, 64, 79
1, 174558, Note_on_c, 0, 47, 80
1, 174565, Control_c, 0, 64, 96
1, 174584, Control_c, 0, 64, 111
1, 174593, Note_on_c, 0, 50, 0
1, 174619, Note_on_c, 0, 67, 0
1, 174621, Control_c, 0, 64, 115
1, 174676, Control_c, 0, 64, 122
1, 174683, Note_on_c, 0, 43, 80
1, 174689, Note_on_c, 0, 47, 0
1, 174694, Control_c, 0, 64, 126
1, 174805, Control_c, 0, 64, 114
1, 174807, Note_on_c, 0, 67, 86
1, 174813, Note_on_c, 0, 47, 81
1, 174825, Control_c, 0, 64, 86
1, 174842, Control_c, 0, 64, 52
1, 174858, Note_on_c, 0, 43, 0
1, 174860, Control_c, 0, 64, 30
1, 174897, Control_c, 0, 64, 37
1, 174916, Control_c, 0, 64, 58
1, 174934, Control_c, 0, 64, 73
1, 174948, Note_on_c, 0, 50, 74
1, 174953, Control_c, 0, 64, 83
1, 174972, Control_c, 0, 64, 91
1, 175009, Control_c, 0, 64, 96
1, 175044, Note_on_c, 0, 47, 0
1, 175057, Note_on_c, 0, 53, 76
1, 175063, Control_c, 0, 64, 101
1, 175070, Note_on_c, 0, 50, 0
1, 175100, Control_c, 0, 64, 107
1, 175127, Note_on_c, 0, 53, 0
1, 175137, Control_c, 0, 64, 112
1, 175175, Control_c, 0, 64, 117
1, 175227, Note_on_c, 0, 72, 74
1, 175231, Note_on_c, 0, 52, 64
1, 175261, Control_c, 0, 64, 97
1, 175264, Note_on_c, 0, 67, 0
1, 175280, Control_c, 0, 64, 63
1, 175299, Control_c, 0, 64, 0
1, 175371, Control_c, 0, 64, 26
1, 175382, Note_on_c, 0, 67, 73
1, 175382, Note_on_c, 0, 55, 64
1, 175390, Control_c, 0, 64, 48
1, 175410, Control_c, 0, 64, 70
1, 175418, Note_on_c, 0, 72, 0
1, 175428, Control_c, 0, 64, 81
1, 175448, Control_c, 0, 64, 90
1, 175466, Control_c, 0, 64, 94
1, 175470, Note_on_c, 0, 67, 0
1, 175476, Note_on_c, 0, 52, 0
1, 175493, Note_on_c, 0, 64, 79
1, 175495, Note_on_c, 0, 55, 0
1, 175500, Control_c, 0, 64, 99
1, 175507, Note_on_c, 0, 60, 67
1, 175558, Control_c, 0, 64, 103
1, 175612, Note_on_c, 0, 67, 85
1, 175613, Note_on_c, 0, 64, 0
1, 175628, Note_on_c, 0, 55, 72
1, 175650, Control_c, 0, 64, 109
1, 175687, Control_c, 0, 64, 113
1, 175721, Control_c, 0, 64, 117
1, 175723, Note_on_c, 0, 52, 69
1, 175724, Note_on_c, 0, 72, 88
1, 175739, Note_on_c, 0, 55, 0
1, 175747, Note_on_c, 0, 67, 0
1, 175760, Control_c, 0, 64, 122
1, 175797, Control_c, 0, 64, 127
1, 175823, Note_on_c, 0, 48, 77
1, 175839, Note_on_c, 0, 76, 91
1, 175844, Note_on_c, 0, 72, 0
1, 175858, Note_on_c, 0, 52, 0
1, 175907, Control_c, 0, 64, 117
1, 175925, Control_c, 0, 64, 92
1, 175945, Control_c, 0, 64, 61
1, 175954, Note_on_c, 0, 74, 86
1, 175955, Note_on_c, 0, 53, 73
1, 175962, Control_c, 0, 64, 38
1, 175968, Note_on_c, 0, 60, 0
1, 175999, Control_c, 0, 64, 41
1, 176001, Note_on_c, 0, 76, 0
1, 176018, Control_c, 0, 64, 60
1, 176035, Control_c, 0, 64, 75
1, 176054, Control_c, 0, 64, 88
1, 176067, Note_on_c, 0, 71, 82
1, 176072, Control_c, 0, 64, 99
1, 176079, Note_on_c, 0, 74, 0
1, 176090, Control_c, 0, 64, 103
1, 176094, Note_on_c, 0, 56, 78
1, 176112, Note_on_c, 0, 53, 0
1, 176165, Control_c, 0, 64, 108
1, 176180, Note_on_c, 0, 56, 0
1, 176199, Note_on_c, 0, 68, 86
1, 176201, Note_on_c, 0, 71, 0
1, 176213, Note_on_c, 0, 60, 73
1, 176281, Note_on_c, 0, 68, 0
1, 176316, Note_on_c, 0, 71, 88
1, 176322, Note_on_c, 0, 56, 75
1, 176331, Note_on_c, 0, 48, 0
1, 176417, Note_on_c, 0, 53, 74
1, 176426, Note_on_c, 0, 56, 0
1, 176431, Note_on_c, 0, 74, 87
1, 176474, Note_on_c, 0, 71, 0
1, 176514, Note_on_c, 0, 53, 0
1, 176526, Note_on_c, 0, 48, 74
1, 176551, Note_on_c, 0, 77, 89
1, 176558, Note_on_c, 0, 74, 0
1, 176659, Control_c, 0, 64, 98
1, 176677, Control_c, 0, 64, 70
1, 176693, Note_on_c, 0, 76, 83
1, 176694, Control_c, 0, 64, 0
1, 176698, Note_on_c, 0, 55, 66
1, 176738, Note_on_c, 0, 60, 0
1, 176749, Note_on_c, 0, 77, 0
1, 176805, Control_c, 0, 64, 31
1, 176824, Control_c, 0, 64, 53
1, 176842, Control_c, 0, 64, 70
1, 176844, Note_on_c, 0, 73, 86
1, 176860, Note_on_c, 0, 58, 77
1, 176860, Control_c, 0, 64, 77
1, 176872, Note_on_c, 0, 76, 0
1, 176875, Note_on_c, 0, 55, 0
1, 176879, Control_c, 0, 64, 81
1, 176898, Control_c, 0, 64, 84
1, 176917, Control_c, 0, 64, 87
1, 176918, Note_on_c, 0, 48, 0
1, 176936, Note_on_c, 0, 58, 0
1, 176953, Control_c, 0, 64, 94
1, 176958, Note_on_c, 0, 60, 70
1, 176962, Note_on_c, 0, 73, 0
1, 176968, Note_on_c, 0, 70, 86
1, 176969, Control_c, 0, 64, 99
1, 177007, Control_c, 0, 64, 104
1, 177066, Note_on_c, 0, 58, 77
1, 177074, Note_on_c, 0, 73, 89
1, 177082, Control_c, 0, 64, 109
1, 177085, Note_on_c, 0, 70, 0
1, 177152, Control_c, 0, 64, 113
1, 177153, Note_on_c, 0, 73, 0
1, 177185, Note_on_c, 0, 55, 75
1, 177191, Note_on_c, 0, 76, 86
1, 177285, Note_on_c, 0, 48, 66
1, 177300, Note_on_c, 0, 79, 87
1, 177318, Control_c, 0, 64, 108
1, 177328, Note_on_c, 0, 76, 0
1, 177355, Control_c, 0, 64, 103
1, 177391, Control_c, 0, 64, 95
1, 177410, Control_c, 0, 64, 89
1, 177428, Note_on_c, 0, 82, 89
1, 177429, Control_c, 0, 64, 82
1, 177445, Note_on_c, 0, 79, 0
1, 177445, Control_c, 0, 64, 75
1, 177464, Control_c, 0, 64, 69
1, 177484, Control_c, 0, 64, 66
1, 177541, Note_on_c, 0, 76, 79
1, 177631, Control_c, 0, 64, 65
1, 177661, Note_on_c, 0, 85, 89
1, 177686, Note_on_c, 0, 76, 0
1, 177707, Note_on_c, 0, 82, 0
1, 177722, Control_c, 0, 64, 66
1, 177741, Control_c, 0, 64, 67
1, 177776, Control_c, 0, 64, 71
1, 177796, Control_c, 0, 64, 73
1, 177802, Note_on_c, 0, 76, 77
1, 177815, Control_c, 0, 64, 75
1, 177827, Note_on_c, 0, 85, 0
1, 177852, Control_c, 0, 64, 77
1, 177906, Control_c, 0, 64, 79
1, 177923, Note_on_c, 0, 73, 74
1, 177924, Note_on_c, 0, 76, 0
1, 177943, Control_c, 0, 64, 81
1, 177989, Note_on_c, 0, 60, 0
1, 177999, Control_c, 0, 64, 83
1, 178034, Note_on_c, 0, 73, 0
1, 178037, Note_on_c, 0, 82, 78
1, 178106, Control_c, 0, 64, 85
1, 178174, Note_on_c, 0, 73, 74
1, 178188, Note_on_c, 0, 82, 0
1, 178216, Control_c, 0, 64, 87
1, 178234, Note_on_c, 0, 58, 0
1, 178272, Note_on_c, 0, 73, 0
1, 178289, Note_on_c, 0, 70, 61
1, 178373, Note_on_c, 0, 70, 0
1, 178409, Note_on_c, 0, 76, 72
1, 178543, Note_on_c, 0, 70, 59
1, 178637, Note_on_c, 0, 70, 0
1, 178663, Note_on_c, 0, 64, 53
1, 178799, Note_on_c, 0, 73, 69
1, 178831, Note_on_c, 0, 64, 0
1, 178834, Note_on_c, 0, 76, 0
1, 178936, Note_on_c, 0, 70, 58
1, 178966, Note_on_c, 0, 48, 0
1, 179011, Note_on_c, 0, 73, 0
1, 179043, Note_on_c, 0, 55, 0
1, 179044, Note_on_c, 0, 70, 0
1, 179072, Note_on_c, 0, 64, 56
1, 179183, Note_on_c, 0, 72, 66
1, 179185, Note_on_c, 0, 64, 0
1, 179302, Note_on_c, 0, 70, 65
1, 179307, Note_on_c, 0, 72, 0
1, 179415, Note_on_c, 0, 64, 68
1, 179465, Control_c, 0, 64, 91
1, 179472, Note_on_c, 0, 70, 0
1, 179501, Control_c, 0, 64, 96
1, 179521, Control_c, 0, 64, 101
1, 179538, Note_on_c, 0, 72, 82
1, 179538, Control_c, 0, 64, 105
1, 179557, Control_c, 0, 64, 109
1, 179564, Note_on_c, 0, 64, 0
1, 179594, Control_c, 0, 64, 117
1, 179612, Control_c, 0, 64, 122
1, 179626, Note_on_c, 0, 72, 0
1, 179632, Control_c, 0, 64, 127
1, 179703, Note_on_c, 0, 72, 86
1, 179713, Note_on_c, 0, 41, 83
1, 179714, Note_on_c, 0, 65, 76
1, 179718, Note_on_c, 0, 53, 89
1, 179723, Control_c, 0, 64, 94
1, 179724, Note_on_c, 0, 69, 70
1, 179741, Control_c, 0, 64, 44
1, 179760, Control_c, 0, 64, 0
1, 179814, Control_c, 0, 64, 14
1, 179833, Control_c, 0, 64, 44
1, 179842, Note_on_c, 0, 65, 0
1, 179842, Note_on_c, 0, 69, 0
1, 179851, Control_c, 0, 64, 72
1, 179871, Control_c, 0, 64, 90
1, 179889, Control_c, 0, 64, 109
1, 179900, Note_on_c, 0, 48, 80
1, 179901, Note_on_c, 0, 72, 0
1, 179904, Note_on_c, 0, 53, 0
1, 179908, Control_c, 0, 64, 116
1, 180032, Control_c, 0, 64, 120
1, 180043, Note_on_c, 0, 48, 0
1, 180048, Note_on_c, 0, 45, 86
1, 180106, Control_c, 0, 64, 124
1, 180179, Control_c, 0, 64, 120
1, 180182, Note_on_c, 0, 48, 80
1, 180194, Note_on_c, 0, 72, 90
1, 180197, Control_c, 0, 64, 102
1, 180217, Control_c, 0, 64, 77
1, 180236, Control_c, 0, 64, 57
1, 180259, Note_on_c, 0, 45, 0
1, 180271, Control_c, 0, 64, 63
1, 180275, Note_on_c, 0, 41, 0
1, 180286, Note_on_c, 0, 48, 0
1, 180289, Control_c, 0, 64, 75
1, 180310, Control_c, 0, 64, 88
1, 180320, Note_on_c, 0, 53, 72
1, 180328, Control_c, 0, 64, 104
1, 180346, Control_c, 0, 64, 112
1, 180365, Control_c, 0, 64, 116
1, 180402, Control_c, 0, 64, 121
1, 180433, Note_on_c, 0, 57, 82
1, 180455, Note_on_c, 0, 53, 0
1, 180491, Control_c, 0, 64, 95
1, 180513, Control_c, 0, 64, 50
1, 180529, Control_c, 0, 64, 0
1, 180562, Note_on_c, 0, 55, 80
1, 180570, Note_on_c, 0, 57, 0
1, 180604, Control_c, 0, 64, 39
1, 180623, Control_c, 0, 64, 67
1, 180639, Control_c, 0, 64, 83
1, 180660, Control_c, 0, 64, 98
1, 180676, Note_on_c, 0, 52, 79
1, 180678, Control_c, 0, 64, 104
1, 180691, Note_on_c, 0, 72, 0
1, 180717, Note_on_c, 0, 55, 0
1, 180750, Control_c, 0, 64, 109
1, 180788, Control_c, 0, 64, 113
1, 180800, Note_on_c, 0, 48, 76
1, 180801, Note_on_c, 0, 52, 0
1, 180911, Control_c, 0, 64, 99
1, 180916, Note_on_c, 0, 72, 86
1, 180931, Control_c, 0, 64, 79
1, 180932, Note_on_c, 0, 52, 72
1, 180950, Control_c, 0, 64, 61
1, 180963, Note_on_c, 0, 48, 0
1, 180967, Control_c, 0, 64, 57
1, 180985, Control_c, 0, 64, 60
1, 181004, Control_c, 0, 64, 68
1, 181023, Control_c, 0, 64, 76
1, 181042, Control_c, 0, 64, 83
1, 181057, Note_on_c, 0, 55, 70
1, 181060, Control_c, 0, 64, 88
1, 181118, Note_on_c, 0, 52, 0
1, 181147, Note_on_c, 0, 58, 71
1, 181149, Note_on_c, 0, 55, 0
1, 181171, Control_c, 0, 64, 92
1, 181203, Note_on_c, 0, 58, 0
1, 181300, Control_c, 0, 64, 98
1, 181337, Note_on_c, 0, 57, 64
1, 181344, Note_on_c, 0, 77, 77
1, 181359, Note_on_c, 0, 72, 0
1, 181373, Control_c, 0, 64, 84
1, 181393, Control_c, 0, 64, 61
1, 181410, Control_c, 0, 64, 30
1, 181427, Control_c, 0, 64, 14
1, 181465, Control_c, 0, 64, 21
1, 181466, Note_on_c, 0, 60, 62
1, 181483, Control_c, 0, 64, 42
1, 181485, Note_on_c, 0, 72, 78
1, 181502, Control_c, 0, 64, 62
1, 181521, Control_c, 0, 64, 75
1, 181524, Note_on_c, 0, 77, 0
1, 181540, Control_c, 0, 64, 82
1, 181558, Control_c, 0, 64, 87
1, 181569, Note_on_c, 0, 60, 0
1, 181579, Note_on_c, 0, 72, 0
1, 181592, Note_on_c, 0, 65, 66
1, 181594, Control_c, 0, 64, 91
1, 181596, Note_on_c, 0, 69, 78
1, 181657, Note_on_c, 0, 57, 0
1, 181701, Note_on_c, 0, 69, 0
1, 181707, Note_on_c, 0, 72, 88
1, 181711, Note_on_c, 0, 60, 72
1, 181739, Control_c, 0, 64, 95
1, 181827, Note_on_c, 0, 77, 89
1, 181829, Control_c, 0, 64, 99
1, 181837, Note_on_c, 0, 57, 74
1, 181843, Note_on_c, 0, 60, 0
1, 181850, Note_on_c, 0, 72, 0
1, 181867, Control_c, 0, 64, 103
1, 181903, Control_c, 0, 64, 108
1, 181944, Note_on_c, 0, 53, 76
1, 181950, Note_on_c, 0, 81, 91
1, 181956, Note_on_c, 0, 77, 0
1, 181961, Note_on_c, 0, 57, 0
1, 181998, Control_c, 0, 64, 92
1, 182015, Control_c, 0, 64, 69
1, 182033, Control_c, 0, 64, 46
1, 182051, Control_c, 0, 64, 39
1, 182064, Note_on_c, 0, 58, 78
1, 182066, Note_on_c, 0, 79, 85
1, 182082, Note_on_c, 0, 65, 0
1, 182088, Control_c, 0, 64, 44
1, 182107, Control_c, 0, 64, 58
1, 182113, Note_on_c, 0, 81, 0
1, 182124, Control_c, 0, 64, 69
1, 182142, Control_c, 0, 64, 76
1, 182161, Control_c, 0, 64, 80
1, 182179, Control_c, 0, 64, 83
1, 182180, Note_on_c, 0, 76, 83
1, 182183, Note_on_c, 0, 61, 77
1, 182185, Note_on_c, 0, 79, 0
1, 182217, Control_c, 0, 64, 86
1, 182220, Note_on_c, 0, 58, 0
1, 182274, Note_on_c, 0, 61, 0
1, 182274, Control_c, 0, 64, 91
1, 182286, Note_on_c, 0, 76, 0
1, 182290, Note_on_c, 0, 73, 84
1, 182306, Note_on_c, 0, 65, 69
1, 182329, Control_c, 0, 64, 96
1, 182358, Note_on_c, 0, 73, 0
1, 182383, Control_c, 0, 64, 101
1, 182394, Note_on_c, 0, 53, 0
1, 182404, Note_on_c, 0, 76, 90
1, 182406, Note_on_c, 0, 61, 75
1, 182438, Control_c, 0, 64, 106
1, 182493, Control_c, 0, 64, 110
1, 182496, Note_on_c, 0, 58, 72
1, 182516, Note_on_c, 0, 79, 86
1, 182547, Note_on_c, 0, 76, 0
1, 182548, Control_c, 0, 64, 116
1, 182553, Note_on_c, 0, 61, 0
1, 182585, Control_c, 0, 64, 120
1, 182619, Note_on_c, 0, 53, 74
1, 182623, Note_on_c, 0, 82, 91
1, 182632, Note_on_c, 0, 58, 0
1, 182639, Control_c, 0, 64, 124
1, 182652, Note_on_c, 0, 79, 0
1, 182767, Control_c, 0, 64, 114
1, 182784, Control_c, 0, 64, 92
1, 182795, Note_on_c, 0, 82, 0
1, 182797, Note_on_c, 0, 60, 71
1, 182797, Note_on_c, 0, 81, 86
1, 182803, Control_c, 0, 64, 65
1, 182822, Control_c, 0, 64, 43
1, 182831, Note_on_c, 0, 65, 0
1, 182857, Control_c, 0, 64, 45
1, 182877, Control_c, 0, 64, 59
1, 182895, Control_c, 0, 64, 71
1, 182913, Control_c, 0, 64, 81
1, 182930, Control_c, 0, 64, 89
1, 182949, Control_c, 0, 64, 94
1, 182951, Note_on_c, 0, 81, 0
1, 182951, Note_on_c, 0, 78, 88
1, 182959, Note_on_c, 0, 60, 0
1, 182967, Note_on_c, 0, 63, 75
1, 182968, Control_c, 0, 64, 99
1, 183006, Control_c, 0, 64, 105
1, 183030, Note_on_c, 0, 78, 0
1, 183037, Note_on_c, 0, 53, 0
1, 183056, Note_on_c, 0, 63, 0
1, 183060, Control_c, 0, 64, 109
1, 183069, Note_on_c, 0, 75, 88
1, 183083, Note_on_c, 0, 65, 70
1, 183135, Control_c, 0, 64, 113
1, 183181, Note_on_c, 0, 78, 86
1, 183194, Note_on_c, 0, 63, 75
1, 183210, Control_c, 0, 64, 117
1, 183217, Note_on_c, 0, 75, 0
1, 183285, Note_on_c, 0, 60, 67
1, 183291, Note_on_c, 0, 81, 83
1, 183307, Note_on_c, 0, 78, 0
1, 183377, Note_on_c, 0, 81, 0
1, 183395, Note_on_c, 0, 84, 89
1, 183423, Note_on_c, 0, 53, 59
1, 183429, Control_c, 0, 64, 113
1, 183485, Control_c, 0, 64, 109
1, 183511, Note_on_c, 0, 84, 0
1, 183517, Note_on_c, 0, 81, 81
1, 183539, Control_c, 0, 64, 105
1, 183581, Note_on_c, 0, 80, 19
1, 183587, Note_on_c, 0, 81, 0
1, 183623, Note_on_c, 0, 78, 77
1, 183625, Note_on_c, 0, 80, 0
1, 183632, Control_c, 0, 64, 101
1, 183763, Note_on_c, 0, 87, 92
1, 183777, Note_on_c, 0, 78, 0
1, 183793, Control_c, 0, 64, 97
1, 183906, Note_on_c, 0, 78, 76
1, 183924, Note_on_c, 0, 87, 0
1, 184016, Note_on_c, 0, 75, 68
1, 184056, Note_on_c, 0, 78, 0
1, 184124, Note_on_c, 0, 65, 0
1, 184124, Note_on_c, 0, 75, 0
1, 184129, Note_on_c, 0, 84, 84
1, 184256, Note_on_c, 0, 84, 0
1, 184265, Note_on_c, 0, 75, 72
1, 184394, Note_on_c, 0, 72, 60
1, 184397, Note_on_c, 0, 75, 0
1, 184496, Note_on_c, 0, 72, 0
1, 184508, Note_on_c, 0, 81, 76
1, 184629, Note_on_c, 0, 63, 0
1, 184663, Note_on_c, 0, 75, 59
1, 184747, Note_on_c, 0, 53, 0
1, 184772, Note_on_c, 0, 75, 0
1, 184773, Note_on_c, 0, 69, 53
1, 184836, Poly_aftertouch_c, 0, 60, 24
1, 184881, Note_on_c, 0, 60, 0
1, 184881, Poly_aftertouch_c, 0, 60, 0
1, 184904, Note_on_c, 0, 78, 71
1, 184913, Note_on_c, 0, 69, 0
1, 184947, Note_on_c, 0, 81, 0
1, 185040, Note_on_c, 0, 75, 58
1, 185118, Control_c, 0, 64, 101
1, 185128, Note_on_c, 0, 78, 0
1, 185152, Note_on_c, 0, 75, 0
1, 185173, Note_on_c, 0, 69, 53
1, 185246, Control_c, 0, 64, 105
1, 185277, Note_on_c, 0, 77, 77
1, 185336, Note_on_c, 0, 69, 0
1, 185375, Control_c, 0, 64, 109
1, 185402, Note_on_c, 0, 75, 75
1, 185426, Note_on_c, 0, 77, 0
1, 185429, Control_c, 0, 64, 113
1, 185484, Control_c, 0, 64, 119
1, 185520, Control_c, 0, 64, 125
1, 185521, Note_on_c, 0, 69, 73
1, 185568, Note_on_c, 0, 75, 0
1, 185639, Note_on_c, 0, 77, 93
1, 185667, Note_on_c, 0, 69, 0
1, 185740, Note_on_c, 0, 77, 0
1, 185812, Control_c, 0, 64, 77
1, 185812, Note_on_c, 0, 77, 86
1, 185816, Note_on_c, 0, 46, 90
1, 185817, Note_on_c, 0, 34, 87
1, 185822, Note_on_c, 0, 74, 80
1, 185826, Note_on_c, 0, 70, 76
1, 185831, Control_c, 0, 64, 0
1, 185842, Note_on_c, 0, 79, 45
1, 185843, Note_on_c, 0, 79, 0
1, 185923, Control_c, 0, 64, 15
1, 185929, Note_on_c, 0, 46, 0
1, 185941, Control_c, 0, 64, 40
1, 185958, Control_c, 0, 64, 61
1, 185978, Control_c, 0, 64, 75
1, 185996, Control_c, 0, 64, 86
1, 186015, Control_c, 0, 64, 96
1, 186020, Note_on_c, 0, 41, 77
1, 186033, Control_c, 0, 64, 104
1, 186043, Note_on_c, 0, 34, 0
1, 186044, Note_on_c, 0, 70, 0
1, 186052, Control_c, 0, 64, 109
1, 186081, Note_on_c, 0, 74, 0
1, 186089, Control_c, 0, 64, 116
1, 186125, Control_c, 0, 64, 121
1, 186143, Note_on_c, 0, 38, 80
1, 186163, Control_c, 0, 64, 125
1, 186225, Note_on_c, 0, 41, 0
1, 186278, Note_on_c, 0, 41, 68
1, 186293, Control_c, 0, 64, 101
1, 186310, Control_c, 0, 64, 71
1, 186312, Note_on_c, 0, 38, 0
1, 186318, Note_on_c, 0, 65, 89
1, 186327, Control_c, 0, 64, 48
1, 186365, Control_c, 0, 64, 57
1, 186366, Note_on_c, 0, 77, 0
1, 186383, Control_c, 0, 64, 72
1, 186401, Control_c, 0, 64, 85
1, 186418, Note_on_c, 0, 46, 83
1, 186418, Control_c, 0, 64, 100
1, 186434, Note_on_c, 0, 41, 0
1, 186438, Control_c, 0, 64, 109
1, 186475, Control_c, 0, 64, 113
1, 186526, Note_on_c, 0, 46, 0
1, 186527, Control_c, 0, 64, 118
1, 186549, Note_on_c, 0, 50, 77
1, 186565, Control_c, 0, 64, 125
1, 186687, Note_on_c, 0, 48, 78
1, 186691, Control_c, 0, 64, 121
1, 186693, Note_on_c, 0, 50, 0
1, 186711, Control_c, 0, 64, 92
1, 186732, Control_c, 0, 64, 56
1, 186748, Control_c, 0, 64, 22
1, 186786, Control_c, 0, 64, 26
1, 186802, Control_c, 0, 64, 47
1, 186807, Note_on_c, 0, 45, 77
1, 186821, Control_c, 0, 64, 69
1, 186823, Note_on_c, 0, 48, 0
1, 186840, Control_c, 0, 64, 80
1, 186858, Control_c, 0, 64, 90
1, 186878, Control_c, 0, 64, 96
1, 186896, Control_c, 0, 64, 100
1, 186924, Note_on_c, 0, 65, 0
1, 186933, Note_on_c, 0, 41, 79
1, 186950, Note_on_c, 0, 45, 0
1, 187006, Control_c, 0, 64, 85
1, 187025, Control_c, 0, 64, 66
1, 187042, Control_c, 0, 64, 55
1, 187046, Note_on_c, 0, 65, 82
1, 187063, Note_on_c, 0, 45, 72
1, 187080, Control_c, 0, 64, 60
1, 187097, Control_c, 0, 64, 69
1, 187107, Note_on_c, 0, 41, 0
1, 187114, Control_c, 0, 64, 78
1, 187133, Control_c, 0, 64, 87
1, 187153, Control_c, 0, 64, 94
1, 187181, Note_on_c, 0, 48, 74
1, 187188, Control_c, 0, 64, 99
1, 187247, Note_on_c, 0, 45, 0
1, 187287, Note_on_c, 0, 48, 0
1, 187292, Note_on_c, 0, 51, 68
1, 187301, Control_c, 0, 64, 105
1, 187331, Note_on_c, 0, 51, 0
1, 187354, Control_c, 0, 64, 110
1, 187411, Control_c, 0, 64, 114
1, 187453, Note_on_c, 0, 50, 66
1, 187477, Note_on_c, 0, 70, 71
1, 187481, Control_c, 0, 64, 99
1, 187486, Note_on_c, 0, 65, 0
1, 187501, Control_c, 0, 64, 74
1, 187518, Control_c, 0, 64, 47
1, 187536, Control_c, 0, 64, 34
1, 187590, Control_c, 0, 64, 46
1, 187609, Control_c, 0, 64, 62
1, 187618, Note_on_c, 0, 53, 63
1, 187618, Note_on_c, 0, 65, 71
1, 187626, Control_c, 0, 64, 72
1, 187635, Note_on_c, 0, 50, 0
1, 187647, Control_c, 0, 64, 79
1, 187665, Control_c, 0, 64, 83
1, 187682, Note_on_c, 0, 70, 0
1, 187702, Control_c, 0, 64, 86
1, 187710, Note_on_c, 0, 65, 0
1, 187722, Note_on_c, 0, 62, 73
1, 187731, Note_on_c, 0, 53, 0
1, 187743, Note_on_c, 0, 58, 63
1, 187841, Note_on_c, 0, 65, 81
1, 187861, Note_on_c, 0, 62, 0
1, 187872, Note_on_c, 0, 53, 55
1, 187924, Control_c, 0, 64, 88
1, 187955, Note_on_c, 0, 70, 84
1, 187957, Note_on_c, 0, 50, 59
1, 187962, Note_on_c, 0, 53, 0
1, 187978, Note_on_c, 0, 65, 0
1, 188033, Control_c, 0, 64, 92
1, 188065, Note_on_c, 0, 74, 87
1, 188068, Control_c, 0, 64, 98
1, 188070, Note_on_c, 0, 70, 0
1, 188080, Note_on_c, 0, 46, 67
1, 188140, Note_on_c, 0, 50, 0
1, 188164, Control_c, 0, 64, 80
1, 188181, Control_c, 0, 64, 57
1, 188194, Note_on_c, 0, 72, 82
1, 188198, Control_c, 0, 64, 35
1, 188211, Note_on_c, 0, 51, 69
1, 188218, Control_c, 0, 64, 30
1, 188227, Note_on_c, 0, 58, 0
1, 188234, Note_on_c, 0, 74, 0
1, 188273, Control_c, 0, 64, 43
1, 188292, Control_c, 0, 64, 62
1, 188311, Note_on_c, 0, 72, 0
1, 188311, Control_c, 0, 64, 73
1, 188323, Note_on_c, 0, 69, 78
1, 188325, Note_on_c, 0, 54, 72
1, 188329, Control_c, 0, 64, 81
1, 188348, Control_c, 0, 64, 86
1, 188387, Note_on_c, 0, 51, 0
1, 188387, Note_on_c, 0, 46, 0
1, 188399, Control_c, 0, 64, 91
1, 188403, Note_on_c, 0, 69, 0
1, 188436, Control_c, 0, 64, 96
1, 188445, Note_on_c, 0, 66, 81
1, 188448, Note_on_c, 0, 54, 0
1, 188462, Note_on_c, 0, 58, 69
1, 188508, Note_on_c, 0, 66, 0
1, 188526, Control_c, 0, 64, 100
1, 188547, Note_on_c, 0, 69, 82
1, 188579, Note_on_c, 0, 54, 68
1, 188657, Control_c, 0, 64, 104
1, 188668, Note_on_c, 0, 72, 85
1, 188670, Note_on_c, 0, 51, 69
1, 188680, Note_on_c, 0, 58, 0
1, 188698, Note_on_c, 0, 69, 0
1, 188711, Control_c, 0, 64, 110
1, 188738, Note_on_c, 0, 54, 0
1, 188749, Control_c, 0, 64, 114
1, 188769, Note_on_c, 0, 46, 76
1, 188782, Note_on_c, 0, 51, 0
1, 188783, Note_on_c, 0, 75, 85
1, 188803, Control_c, 0, 64, 119
1, 188816, Note_on_c, 0, 72, 0
1, 188930, Control_c, 0, 64, 102
1, 188938, Note_on_c, 0, 74, 81
1, 188941, Note_on_c, 0, 53, 67
1, 188950, Control_c, 0, 64, 76
1, 188969, Control_c, 0, 64, 48
1, 188988, Note_on_c, 0, 75, 0
1, 188989, Control_c, 0, 64, 40
1, 189026, Control_c, 0, 64, 47
1, 189045, Control_c, 0, 64, 62
1, 189061, Control_c, 0, 64, 73
1, 189079, Control_c, 0, 64, 83
1, 189093, Note_on_c, 0, 74, 0
1, 189098, Control_c, 0, 64, 91
1, 189110, Note_on_c, 0, 56, 71
1, 189111, Note_on_c, 0, 71, 74
1, 189115, Control_c, 0, 64, 95
1, 189135, Control_c, 0, 64, 99
1, 189159, Note_on_c, 0, 53, 0
1, 189172, Control_c, 0, 64, 103
1, 189209, Note_on_c, 0, 56, 0
1, 189226, Note_on_c, 0, 58, 66
1, 189229, Note_on_c, 0, 68, 80
1, 189231, Note_on_c, 0, 71, 0
1, 189266, Control_c, 0, 64, 108
1, 189281, Note_on_c, 0, 46, 0
1, 189319, Note_on_c, 0, 68, 0
1, 189335, Control_c, 0, 64, 112
1, 189346, Note_on_c, 0, 56, 69
1, 189347, Note_on_c, 0, 71, 80
1, 189410, Note_on_c, 0, 53, 60
1, 189461, Control_c, 0, 64, 93
1, 189470, Note_on_c, 0, 74, 82
1, 189478, Note_on_c, 0, 71, 0
1, 189480, Control_c, 0, 64, 68
1, 189498, Control_c, 0, 64, 42
1, 189518, Control_c, 0, 64, 35
1, 189546, Note_on_c, 0, 46, 59
1, 189574, Control_c, 0, 64, 48
1, 189586, Note_on_c, 0, 77, 84
1, 189591, Control_c, 0, 64, 65
1, 189609, Control_c, 0, 64, 75
1, 189615, Note_on_c, 0, 74, 0
1, 189629, Control_c, 0, 64, 83
1, 189647, Control_c, 0, 64, 86
1, 189718, Control_c, 0, 64, 90
1, 189720, Note_on_c, 0, 80, 85
1, 189737, Note_on_c, 0, 77, 0
1, 189813, Control_c, 0, 64, 94
1, 189838, Note_on_c, 0, 74, 71
1, 189938, Note_on_c, 0, 83, 89
1, 189965, Note_on_c, 0, 74, 0
1, 189977, Note_on_c, 0, 80, 0
1, 190084, Note_on_c, 0, 74, 77
1, 190097, Note_on_c, 0, 83, 0
1, 190159, Note_on_c, 0, 74, 0
1, 190192, Note_on_c, 0, 58, 0
1, 190202, Note_on_c, 0, 71, 65
1, 190315, Note_on_c, 0, 71, 0
1, 190335, Note_on_c, 0, 80, 81
1, 190465, Note_on_c, 0, 71, 64
1, 190499, Note_on_c, 0, 80, 0
1, 190587, Note_on_c, 0, 71, 0
1, 190593, Note_on_c, 0, 56, 0
1, 190593, Note_on_c, 0, 68, 61
1, 190680, Note_on_c, 0, 68, 0
1, 190707, Note_on_c, 0, 77, 75
1, 190819, Note_on_c, 0, 77, 0
1, 190836, Note_on_c, 0, 68, 56
1, 190855, Poly_aftertouch_c, 0, 53, 24
1, 190908, Note_on_c, 0, 68, 0
1, 190956, Note_on_c, 0, 65, 50
1, 191061, Note_on_c, 0, 65, 0
1, 191068, Note_on_c, 0, 74, 61
1, 191210, Note_on_c, 0, 68, 52
1, 191306, Note_on_c, 0, 68, 0
1, 191313, Note_on_c, 0, 62, 53
1, 191455, Note_on_c, 0, 74, 0
1, 191460, Note_on_c, 0, 71, 63
1, 191483, Note_on_c, 0, 62, 0
1, 191577, Note_on_c, 0, 68, 53
1, 191593, Poly_aftertouch_c, 0, 53, 22
1, 191610, Note_on_c, 0, 46, 0
1, 191631, Note_on_c, 0, 53, 0
1, 191631, Poly_aftertouch_c, 0, 53, 0
1, 191675, Note_on_c, 0, 68, 0
1, 191684, Control_c, 0, 64, 99
1, 191708, Note_on_c, 0, 62, 58
1, 191739, Control_c, 0, 64, 105
1, 191776, Control_c, 0, 64, 109
1, 191801, Note_on_c, 0, 62, 0
1, 191809, Note_on_c, 0, 70, 70
1, 191814, Note_on_c, 0, 71, 0
1, 191830, Control_c, 0, 64, 115
1, 191841, Note_on_c, 0, 70, 0
1, 191867, Control_c, 0, 64, 120
1, 191906, Control_c, 0, 64, 126
1, 192050, Note_on_c, 0, 51, 73
1, 192053, Note_on_c, 0, 78, 93
1, 192070, Control_c, 0, 64, 122
1, 192088, Control_c, 0, 64, 88
1, 192124, Control_c, 0, 64, 39
1, 192141, Control_c, 0, 64, 0
1, 192196, Control_c, 0, 64, 28
1, 192213, Control_c, 0, 64, 52
1, 192215, Note_on_c, 0, 54, 75
1, 192227, Note_on_c, 0, 75, 81
1, 192231, Control_c, 0, 64, 74
1, 192252, Control_c, 0, 64, 89
1, 192269, Control_c, 0, 64, 103
1, 192277, Note_on_c, 0, 78, 0
1, 192287, Control_c, 0, 64, 108
1, 192292, Note_on_c, 0, 51, 0
1, 192337, Note_on_c, 0, 54, 0
1, 192345, Note_on_c, 0, 70, 88
1, 192346, Note_on_c, 0, 58, 71
1, 192349, Note_on_c, 0, 75, 0
1, 192362, Control_c, 0, 64, 112
1, 192416, Control_c, 0, 64, 116
1, 192459, Note_on_c, 0, 75, 91
1, 192467, Note_on_c, 0, 54, 77
1, 192473, Control_c, 0, 64, 122
1, 192494, Note_on_c, 0, 70, 0
1, 192526, Control_c, 0, 64, 127
1, 192541, Note_on_c, 0, 51, 66
1, 192558, Note_on_c, 0, 78, 92
1, 192594, Note_on_c, 0, 75, 0
1, 192650, Note_on_c, 0, 46, 67
1, 192667, Note_on_c, 0, 82, 91
1, 192673, Control_c, 0, 64, 123
1, 192677, Note_on_c, 0, 78, 0
1, 192728, Control_c, 0, 64, 117
1, 192746, Control_c, 0, 64, 112
1, 192765, Control_c, 0, 64, 106
1, 192775, Note_on_c, 0, 82, 0
1, 192785, Control_c, 0, 64, 102
1, 192788, Note_on_c, 0, 78, 95
1, 192796, Poly_aftertouch_c, 0, 80, 0
1, 192841, Control_c, 0, 64, 98
1, 192902, Note_on_c, 0, 75, 87
1, 192933, Note_on_c, 0, 78, 0
1, 193012, Note_on_c, 0, 87, 94
1, 193050, Note_on_c, 0, 75, 0
1, 193082, Note_on_c, 0, 87, 0
1, 193167, Note_on_c, 0, 75, 88
1, 193279, Note_on_c, 0, 70, 79
1, 193308, Note_on_c, 0, 75, 0
1, 193383, Note_on_c, 0, 70, 0
1, 193384, Note_on_c, 0, 82, 85
1, 193447, Note_on_c, 0, 82, 0
1, 193527, Note_on_c, 0, 70, 79
1, 193641, Note_on_c, 0, 66, 76
1, 193652, Note_on_c, 0, 70, 0
1, 193696, Note_on_c, 0, 58, 0
1, 193752, Note_on_c, 0, 78, 80
1, 193767, Note_on_c, 0, 66, 0
1, 193808, Note_on_c, 0, 78, 0
1, 193895, Note_on_c, 0, 66, 73
1, 194017, Note_on_c, 0, 66, 0
1, 194028, Note_on_c, 0, 63, 64
1, 194133, Note_on_c, 0, 63, 0
1, 194138, Note_on_c, 0, 75, 66
1, 194167, Poly_aftertouch_c, 0, 54, 24
1, 194173, Note_on_c, 0, 46, 0
1, 194275, Note_on_c, 0, 66, 59
1, 194292, Note_on_c, 0, 75, 0
1, 194295, Note_on_c, 0, 54, 0
1, 194295, Poly_aftertouch_c, 0, 54, 0
1, 194389, Note_on_c, 0, 66, 0
1, 194394, Note_on_c, 0, 63, 51
1, 194498, Note_on_c, 0, 63, 0
1, 194516, Note_on_c, 0, 75, 68
1, 194545, Control_c, 0, 64, 102
1, 194617, Control_c, 0, 64, 106
1, 194621, Note_on_c, 0, 66, 56
1, 194648, Note_on_c, 0, 51, 0
1, 194660, Note_on_c, 0, 75, 0
1, 194693, Control_c, 0, 64, 110
1, 194729, Note_on_c, 0, 63, 61
1, 194766, Control_c, 0, 64, 116
1, 194804, Control_c, 0, 64, 121
1, 194822, Note_on_c, 0, 63, 0
1, 194834, Note_on_c, 0, 66, 0
1, 194837, Note_on_c, 0, 75, 65
1, 194838, Control_c, 0, 64, 126
1, 194870, Note_on_c, 0, 75, 0
1, 195092, Note_on_c, 0, 49, 76
1, 195101, Note_on_c, 0, 78, 87
1, 195149, Control_c, 0, 64, 118
1, 195169, Control_c, 0, 64, 90
1, 195187, Control_c, 0, 64, 61
1, 195206, Control_c, 0, 64, 45
1, 195241, Control_c, 0, 64, 52
1, 195260, Control_c, 0, 64, 68
1, 195262, Note_on_c, 0, 76, 81
1, 195273, Note_on_c, 0, 54, 75
1, 195279, Control_c, 0, 64, 81
1, 195300, Control_c, 0, 64, 94
1, 195307, Note_on_c, 0, 78, 0
1, 195315, Control_c, 0, 64, 105
1, 195333, Control_c, 0, 64, 112
1, 195359, Note_on_c, 0, 49, 0
1, 195366, Note_on_c, 0, 73, 85
1, 195370, Control_c, 0, 64, 116
1, 195375, Note_on_c, 0, 54, 0
1, 195379, Note_on_c, 0, 58, 74
1, 195386, Note_on_c, 0, 76, 0
1, 195427, Control_c, 0, 64, 121
1, 195470, Note_on_c, 0, 76, 85
1, 195481, Control_c, 0, 64, 125
1, 195485, Note_on_c, 0, 54, 75
1, 195506, Note_on_c, 0, 73, 0
1, 195580, Note_on_c, 0, 78, 90
1, 195596, Note_on_c, 0, 49, 73
1, 195621, Note_on_c, 0, 76, 0
1, 195628, Control_c, 0, 64, 118
1, 195648, Control_c, 0, 64, 98
1, 195667, Control_c, 0, 64, 72
1, 195685, Control_c, 0, 64, 55
1, 195692, Note_on_c, 0, 85, 90
1, 195695, Note_on_c, 0, 46, 67
1, 195707, Note_on_c, 0, 78, 0
1, 195720, Control_c, 0, 64, 57
1, 195740, Control_c, 0, 64, 68
1, 195758, Control_c, 0, 64, 76
1, 195775, Control_c, 0, 64, 86
1, 195793, Control_c, 0, 64, 92
1, 195812, Note_on_c, 0, 78, 91
1, 195817, Note_on_c, 0, 85, 0
1, 195831, Control_c, 0, 64, 96
1, 195937, Note_on_c, 0, 76, 89
1, 195937, Control_c, 0, 64, 100
1, 195947, Note_on_c, 0, 78, 0
1, 196033, Note_on_c, 0, 76, 0
1, 196050, Note_on_c, 0, 88, 96
1, 196098, Note_on_c, 0, 88, 0
1, 196171, Note_on_c, 0, 76, 89
1, 196241, Note_on_c, 0, 76, 0
1, 196288, Note_on_c, 0, 73, 81
1, 196307, Control_c, 0, 64, 104
1, 196380, Note_on_c, 0, 73, 0
1, 196391, Note_on_c, 0, 85, 87
1, 196437, Note_on_c, 0, 85, 0
1, 196540, Note_on_c, 0, 73, 77
1, 196647, Note_on_c, 0, 73, 0
1, 196647, Note_on_c, 0, 66, 72
1, 196762, Note_on_c, 0, 78, 74
1, 196769, Note_on_c, 0, 66, 0
1, 196821, Note_on_c, 0, 78, 0
1, 196915, Note_on_c, 0, 58, 0
1, 196920, Note_on_c, 0, 66, 70
1, 197013, Note_on_c, 0, 66, 0
1, 197024, Note_on_c, 0, 64, 59
1, 197148, Note_on_c, 0, 76, 71
1, 197168, Note_on_c, 0, 64, 0
1, 197276, Note_on_c, 0, 66, 63
1, 197294, Note_on_c, 0, 76, 0
1, 197389, Note_on_c, 0, 66, 0
1, 197391, Note_on_c, 0, 64, 55
1, 197393, Note_on_c, 0, 46, 0
1, 197452, Poly_aftertouch_c, 0, 49, 24
1, 197483, Poly_aftertouch_c, 0, 54, 24
1, 197490, Note_on_c, 0, 64, 0
1, 197523, Note_on_c, 0, 49, 0
1, 197523, Poly_aftertouch_c, 0, 49, 0
1, 197524, Note_on_c, 0, 76, 68
1, 197553, Note_on_c, 0, 54, 0
1, 197553, Poly_aftertouch_c, 0, 54, 0
1, 197629, Note_on_c, 0, 66, 65
1, 197676, Note_on_c, 0, 76, 0
1, 197758, Note_on_c, 0, 64, 67
1, 197841, Note_on_c, 0, 66, 0
1, 197841, Note_on_c, 0, 64, 0
1, 197859, Note_on_c, 0, 76, 67
1, 197884, Note_on_c, 0, 76, 0
1, 197920, Control_c, 0, 64, 108
1, 197957, Control_c, 0, 64, 112
1, 197994, Control_c, 0, 64, 118
1, 198032, Control_c, 0, 64, 123
1, 198075, Note_on_c, 0, 50, 80
1, 198085, Note_on_c, 0, 78, 90
1, 198121, Control_c, 0, 64, 108
1, 198141, Control_c, 0, 64, 81
1, 198158, Control_c, 0, 64, 48
1, 198178, Control_c, 0, 64, 33
1, 198215, Control_c, 0, 64, 37
1, 198228, Note_on_c, 0, 74, 86
1, 198234, Control_c, 0, 64, 55
1, 198236, Note_on_c, 0, 54, 74
1, 198253, Control_c, 0, 64, 71
1, 198269, Control_c, 0, 64, 82
1, 198288, Control_c, 0, 64, 93
1, 198289, Note_on_c, 0, 78, 0
1, 198306, Control_c, 0, 64, 102
1, 198326, Control_c, 0, 64, 107
1, 198340, Note_on_c, 0, 54, 0
1, 198340, Note_on_c, 0, 74, 0
1, 198344, Note_on_c, 0, 71, 87
1, 198349, Note_on_c, 0, 59, 78
1, 198363, Control_c, 0, 64, 111
1, 198373, Note_on_c, 0, 50, 0
1, 198418, Control_c, 0, 64, 116
1, 198452, Note_on_c, 0, 74, 94
1, 198463, Note_on_c, 0, 54, 83
1, 198483, Note_on_c, 0, 71, 0
1, 198494, Control_c, 0, 64, 120
1, 198560, Note_on_c, 0, 78, 93
1, 198593, Note_on_c, 0, 74, 0
1, 198602, Note_on_c, 0, 50, 72
1, 198621, Control_c, 0, 64, 115
1, 198639, Control_c, 0, 64, 111
1, 198693, Note_on_c, 0, 78, 0
1, 198693, Control_c, 0, 64, 105
1, 198695, Note_on_c, 0, 83, 88
1, 198704, Note_on_c, 0, 47, 73
1, 198746, Control_c, 0, 64, 98
1, 198766, Control_c, 0, 64, 94
1, 198784, Control_c, 0, 64, 90
1, 198800, Note_on_c, 0, 83, 0
1, 198809, Note_on_c, 0, 78, 91
1, 198919, Note_on_c, 0, 74, 81
1, 198934, Note_on_c, 0, 78, 0
1, 199034, Note_on_c, 0, 74, 0
1, 199045, Note_on_c, 0, 86, 90
1, 199090, Note_on_c, 0, 86, 0
1, 199178, Note_on_c, 0, 74, 90
1, 199246, Note_on_c, 0, 74, 0
1, 199286, Note_on_c, 0, 71, 84
1, 199385, Note_on_c, 0, 71, 0
1, 199400, Note_on_c, 0, 83, 88
1, 199450, Note_on_c, 0, 83, 0
1, 199529, Note_on_c, 0, 71, 74
1, 199534, Note_on_c, 0, 72, 70
1, 199610, Control_c, 0, 64, 94
1, 199639, Note_on_c, 0, 72, 0
1, 199662, Note_on_c, 0, 66, 77
1, 199730, Note_on_c, 0, 71, 0
1, 199764, Note_on_c, 0, 78, 80
1, 199783, Note_on_c, 0, 66, 0
1, 199814, Note_on_c, 0, 78, 0
1, 199913, Note_on_c, 0, 66, 74
1, 200017, Note_on_c, 0, 62, 71
1, 200018, Note_on_c, 0, 66, 0
1, 200144, Note_on_c, 0, 74, 72
1, 200172, Note_on_c, 0, 62, 0
1, 200253, Note_on_c, 0, 59, 0
1, 200260, Note_on_c, 0, 66, 66
1, 200290, Note_on_c, 0, 74, 0
1, 200384, Note_on_c, 0, 66, 0
1, 200390, Note_on_c, 0, 62, 61
1, 200496, Note_on_c, 0, 62, 0
1, 200514, Note_on_c, 0, 74, 77
1, 200589, Note_on_c, 0, 47, 0
1, 200639, Note_on_c, 0, 66, 69
1, 200647, Note_on_c, 0, 50, 0
1, 200684, Note_on_c, 0, 74, 0
1, 200705, Note_on_c, 0, 54, 0
1, 200756, Note_on_c, 0, 62, 72
1, 200804, Control_c, 0, 64, 99
1, 200845, Note_on_c, 0, 62, 0
1, 200857, Control_c, 0, 64, 104
1, 200868, Note_on_c, 0, 74, 70
1, 200895, Control_c, 0, 64, 109
1, 200902, Note_on_c, 0, 74, 0
1, 200903, Note_on_c, 0, 66, 0
1, 200904, Poly_aftertouch_c, 0, 66, 0
1, 200931, Control_c, 0, 64, 114
1, 200968, Control_c, 0, 64, 118
1, 201006, Control_c, 0, 64, 124
1, 201088, Note_on_c, 0, 50, 81
1, 201089, Note_on_c, 0, 79, 91
1, 201115, Control_c, 0, 64, 109
1, 201134, Control_c, 0, 64, 81
1, 201152, Control_c, 0, 64, 47
1, 201169, Control_c, 0, 64, 28
1, 201225, Control_c, 0, 64, 40
1, 201244, Control_c, 0, 64, 57
1, 201255, Note_on_c, 0, 74, 86
1, 201264, Control_c, 0, 64, 71
1, 201273, Note_on_c, 0, 55, 76
1, 201282, Control_c, 0, 64, 79
1, 201300, Control_c, 0, 64, 86
1, 201303, Note_on_c, 0, 79, 0
1, 201318, Control_c, 0, 64, 90
1, 201354, Control_c, 0, 64, 97
1, 201374, Note_on_c, 0, 74, 0
1, 201375, Note_on_c, 0, 50, 0
1, 201375, Note_on_c, 0, 71, 85
1, 201381, Note_on_c, 0, 59, 75
1, 201382, Note_on_c, 0, 55, 0
1, 201505, Note_on_c, 0, 74, 93
1, 201506, Note_on_c, 0, 55, 80
1, 201515, Note_on_c, 0, 71, 0
1, 201624, Note_on_c, 0, 79, 92
1, 201631, Note_on_c, 0, 50, 72
1, 201660, Note_on_c, 0, 74, 0
1, 201723, Note_on_c, 0, 47, 68
1, 201731, Note_on_c, 0, 83, 90
1, 201759, Note_on_c, 0, 79, 0
1, 201814, Note_on_c, 0, 83, 0
1, 201850, Note_on_c, 0, 79, 93
1, 201926, Note_on_c, 0, 79, 0
1, 201961, Note_on_c, 0, 74, 88
1, 202074, Note_on_c, 0, 86, 94
1, 202088, Note_on_c, 0, 74, 0
1, 202119, Note_on_c, 0, 86, 0
1, 202215, Note_on_c, 0, 74, 90
1, 202283, Note_on_c, 0, 74, 0
1, 202318, Note_on_c, 0, 71, 83
1, 202439, Note_on_c, 0, 71, 0
1, 202442, Note_on_c, 0, 83, 93
1, 202493, Note_on_c, 0, 83, 0
1, 202585, Note_on_c, 0, 71, 87
1, 202653, Note_on_c, 0, 71, 0
1, 202701, Note_on_c, 0, 67, 83
1, 202796, Note_on_c, 0, 67, 0
1, 202810, Note_on_c, 0, 79, 82
1, 202841, Note_on_c, 0, 79, 0
1, 202941, Note_on_c, 0, 67, 82
1, 203004, Note_on_c, 0, 67, 0
1, 203056, Note_on_c, 0, 65, 76
1, 203172, Note_on_c, 0, 77, 83
1, 203187, Note_on_c, 0, 65, 0
1, 203211, Note_on_c, 0, 77, 0
1, 203315, Note_on_c, 0, 67, 74
1, 203402, Note_on_c, 0, 67, 0
1, 203445, Note_on_c, 0, 62, 72
1, 203491, Note_on_c, 0, 59, 0
1, 203575, Note_on_c, 0, 74, 72
1, 203590, Note_on_c, 0, 62, 0
1, 203679, Note_on_c, 0, 47, 0
1, 203685, Note_on_c, 0, 67, 70
1, 203694, Note_on_c, 0, 74, 0
1, 203701, Control_c, 0, 64, 101
1, 203755, Note_on_c, 0, 50, 0
1, 203766, Note_on_c, 0, 55, 0
1, 203794, Control_c, 0, 64, 105
1, 203800, Note_on_c, 0, 62, 60
1, 203886, Control_c, 0, 64, 109
1, 203894, Note_on_c, 0, 62, 0
1, 203902, Poly_aftertouch_c, 0, 60, 0
1, 203921, Note_on_c, 0, 67, 0
1, 203922, Note_on_c, 0, 74, 77
1, 203938, Poly_aftertouch_c, 0, 67, 0
1, 203941, Control_c, 0, 64, 116
1, 203953, Note_on_c, 0, 74, 0
1, 203977, Control_c, 0, 64, 122
1, 203997, Control_c, 0, 64, 126
1, 204207, Note_on_c, 0, 51, 87
1, 204216, Note_on_c, 0, 84, 91
1, 204254, Control_c, 0, 64, 89
1, 204288, Control_c, 0, 64, 0
1, 204380, Control_c, 0, 64, 35
1, 204398, Control_c, 0, 64, 62
1, 204406, Note_on_c, 0, 79, 82
1, 204407, Note_on_c, 0, 55, 79
1, 204415, Control_c, 0, 64, 82
1, 204435, Control_c, 0, 64, 98
1, 204445, Note_on_c, 0, 84, 0
1, 204453, Control_c, 0, 64, 112
1, 204471, Control_c, 0, 64, 117
1, 204501, Note_on_c, 0, 51, 0
1, 204509, Note_on_c, 0, 60, 81
1, 204522, Note_on_c, 0, 55, 0
1, 204531, Note_on_c, 0, 75, 85
1, 204545, Note_on_c, 0, 79, 0
1, 204626, Note_on_c, 0, 55, 78
1, 204649, Note_on_c, 0, 79, 86
1, 204689, Note_on_c, 0, 75, 0
1, 204745, Note_on_c, 0, 51, 69
1, 204761, Note_on_c, 0, 84, 86
1, 204804, Control_c, 0, 64, 113
1, 204806, Note_on_c, 0, 79, 0
1, 204858, Control_c, 0, 64, 107
1, 204859, Note_on_c, 0, 48, 75
1, 204881, Note_on_c, 0, 87, 96
1, 204894, Control_c, 0, 64, 102
1, 204927, Note_on_c, 0, 84, 0
1, 204969, Control_c, 0, 64, 98
1, 204994, Note_on_c, 0, 79, 86
1, 205046, Note_on_c, 0, 87, 0
1, 205109, Note_on_c, 0, 75, 82
1, 205129, Note_on_c, 0, 79, 0
1, 205243, Note_on_c, 0, 87, 87
1, 205256, Note_on_c, 0, 75, 0
1, 205294, Note_on_c, 0, 87, 0
1, 205376, Note_on_c, 0, 75, 89
1, 205490, Note_on_c, 0, 72, 84
1, 205514, Note_on_c, 0, 75, 0
1, 205588, Note_on_c, 0, 72, 0
1, 205595, Note_on_c, 0, 84, 88
1, 205650, Note_on_c, 0, 84, 0
1, 205736, Note_on_c, 0, 72, 89
1, 205823, Note_on_c, 0, 72, 0
1, 205849, Note_on_c, 0, 67, 84
1, 205943, Note_on_c, 0, 67, 0
1, 205959, Note_on_c, 0, 79, 89
1, 205998, Note_on_c, 0, 79, 0
1, 206081, Note_on_c, 0, 67, 87
1, 206230, Note_on_c, 0, 63, 78
1, 206231, Note_on_c, 0, 67, 0
1, 206340, Note_on_c, 0, 75, 78
1, 206359, Note_on_c, 0, 63, 0
1, 206469, Note_on_c, 0, 67, 74
1, 206542, Note_on_c, 0, 75, 0
1, 206567, Note_on_c, 0, 48, 0
1, 206581, Note_on_c, 0, 63, 75
1, 206612, Note_on_c, 0, 60, 0
1, 206617, Control_c, 0, 64, 102
1, 206623, Note_on_c, 0, 67, 0
1, 206649, Poly_aftertouch_c, 0, 55, 24
1, 206683, Note_on_c, 0, 51, 0
1, 206692, Control_c, 0, 64, 106
1, 206694, Note_on_c, 0, 55, 0
1, 206694, Poly_aftertouch_c, 0, 55, 0
1, 206712, Note_on_c, 0, 75, 77
1, 206739, Note_on_c, 0, 63, 0
1, 206749, Control_c, 0, 64, 110
1, 206841, Note_on_c, 0, 67, 68
1, 206859, Control_c, 0, 64, 114
1, 206903, Note_on_c, 0, 75, 0
1, 206958, Note_on_c, 0, 63, 61
1, 207044, Control_c, 0, 64, 118
1, 207051, Note_on_c, 0, 63, 0
1, 207052, Note_on_c, 0, 67, 0
1, 207059, Note_on_c, 0, 75, 68
1, 207118, Note_on_c, 0, 75, 0
1, 207205, Control_c, 0, 64, 122
1, 207280, Control_c, 0, 64, 126
1, 207363, Note_on_c, 0, 77, 83
1, 207371, Note_on_c, 0, 56, 60
1, 207390, Control_c, 0, 64, 103
1, 207408, Control_c, 0, 64, 70
1, 207426, Control_c, 0, 64, 33
1, 207444, Control_c, 0, 64, 10
1, 207481, Control_c, 0, 64, 16
1, 207499, Control_c, 0, 64, 40
1, 207512, Note_on_c, 0, 61, 60
1, 207517, Control_c, 0, 64, 65
1, 207523, Note_on_c, 0, 73, 74
1, 207536, Control_c, 0, 64, 89
1, 207556, Control_c, 0, 64, 116
1, 207563, Note_on_c, 0, 56, 0
1, 207574, Control_c, 0, 64, 127
1, 207576, Note_on_c, 0, 77, 0
1, 207616, Note_on_c, 0, 61, 0
1, 207643, Note_on_c, 0, 68, 70
1, 207645, Note_on_c, 0, 65, 58
1, 207646, Note_on_c, 0, 73, 0
1, 207685, Control_c, 0, 67, 8
1, 207755, Note_on_c, 0, 61, 63
1, 207757, Note_on_c, 0, 73, 80
1, 207847, Note_on_c, 0, 56, 51
1, 207877, Note_on_c, 0, 77, 74
1, 207887, Control_c, 0, 64, 122
1, 207889, Control_c, 0, 67, 12
1, 207906, Control_c, 0, 64, 104
1, 207924, Control_c, 0, 64, 69
1, 207926, Note_on_c, 0, 73, 0
1, 207941, Control_c, 0, 64, 0
1, 207959, Control_c, 0, 67, 16
1, 207970, Note_on_c, 0, 53, 40
1, 207984, Note_on_c, 0, 80, 73
1, 208002, Note_on_c, 0, 77, 0
1, 208049, Control_c, 0, 64, 10
1, 208069, Control_c, 0, 64, 28
1, 208086, Control_c, 0, 64, 43
1, 208103, Control_c, 0, 64, 60
1, 208121, Control_c, 0, 64, 71
1, 208135, Note_on_c, 0, 77, 71
1, 208140, Control_c, 0, 64, 77
1, 208159, Control_c, 0, 64, 83
1, 208177, Control_c, 0, 64, 87
1, 208179, Control_c, 0, 67, 12
1, 208181, Note_on_c, 0, 80, 0
1, 208214, Control_c, 0, 64, 92
1, 208219, Note_on_c, 0, 68, 0
1, 208247, Poly_aftertouch_c, 0, 65, 24
1, 208249, Control_c, 0, 67, 8
1, 208264, Note_on_c, 0, 77, 0
1, 208273, Note_on_c, 0, 73, 54
1, 208289, Control_c, 0, 64, 96
1, 208306, Note_on_c, 0, 53, 0
1, 208321, Note_on_c, 0, 65, 0
1, 208321, Poly_aftertouch_c, 0, 65, 0
1, 208324, Control_c, 0, 64, 100
1, 208363, Note_on_c, 0, 73, 0
1, 208377, Note_on_c, 0, 68, 58
1, 208385, Note_on_c, 0, 56, 0
1, 208421, Note_on_c, 0, 61, 0
1, 208435, Control_c, 0, 64, 104
1, 208452, Control_c, 0, 67, 12
1, 208491, Note_on_c, 0, 68, 0
1, 208502, Note_on_c, 0, 77, 62
1, 208527, Control_c, 0, 64, 108
1, 208582, Control_c, 0, 67, 18
1, 208609, Note_on_c, 0, 77, 0
1, 208620, Control_c, 0, 67, 23
1, 208623, Note_on_c, 0, 73, 57
1, 208638, Control_c, 0, 67, 27
1, 208655, Control_c, 0, 67, 32
1, 208673, Control_c, 0, 67, 37
1, 208693, Control_c, 0, 67, 41
1, 208711, Note_on_c, 0, 73, 0
1, 208713, Control_c, 0, 67, 46
1, 208728, Control_c, 0, 67, 51
1, 208747, Control_c, 0, 67, 57
1, 208752, Note_on_c, 0, 68, 42
1, 208766, Control_c, 0, 67, 63
1, 208785, Control_c, 0, 67, 68
1, 208802, Control_c, 0, 67, 73
1, 208823, Control_c, 0, 67, 79
1, 208840, Control_c, 0, 67, 85
1, 208860, Control_c, 0, 67, 91
1, 208876, Control_c, 0, 64, 100
1, 208877, Control_c, 0, 67, 98
1, 208896, Control_c, 0, 64, 77
1, 208899, Control_c, 0, 67, 103
1, 208911, Note_on_c, 0, 68, 0
1, 208912, Note_on_c, 0, 75, 57
1, 208913, Note_on_c, 0, 60, 43
1, 208915, Control_c, 0, 64, 39
1, 208916, Control_c, 0, 67, 110
1, 208933, Control_c, 0, 64, 0
1, 208933, Control_c, 0, 67, 117
1, 208965, Control_c, 0, 67, 124
1, 209021, Control_c, 0, 64, 8
1, 209038, Control_c, 0, 64, 39
1, 209042, Note_on_c, 0, 72, 56
1, 209058, Control_c, 0, 64, 60
1, 209071, Note_on_c, 0, 63, 48
1, 209072, Note_on_c, 0, 75, 0
1, 209077, Control_c, 0, 64, 74
1, 209094, Control_c, 0, 64, 82
1, 209114, Control_c, 0, 64, 86
1, 209127, Note_on_c, 0, 60, 0
1, 209150, Control_c, 0, 64, 88
1, 209151, Note_on_c, 0, 72, 0
1, 209167, Note_on_c, 0, 63, 0
1, 209181, Note_on_c, 0, 69, 54
1, 209187, Note_on_c, 0, 66, 45
1, 209323, Note_on_c, 0, 72, 52
1, 209334, Control_c, 0, 64, 85
1, 209340, Note_on_c, 0, 63, 42
1, 209352, Control_c, 0, 64, 83
1, 209369, Note_on_c, 0, 69, 0
1, 209369, Note_on_c, 0, 69, 7
1, 209371, Control_c, 0, 64, 80
1, 209386, Note_on_c, 0, 69, 0
1, 209388, Control_c, 0, 64, 77
1, 209408, Control_c, 0, 64, 75
1, 209423, Note_on_c, 0, 72, 0
1, 209431, Note_on_c, 0, 60, 37
1, 209445, Note_on_c, 0, 75, 49
1, 209464, Control_c, 0, 64, 73
1, 209536, Control_c, 0, 64, 71
1, 209547, Note_on_c, 0, 75, 0
1, 209575, Note_on_c, 0, 81, 54
1, 209579, Note_on_c, 0, 54, 39
1, 209609, Control_c, 0, 64, 68
1, 209629, Control_c, 0, 64, 67
1, 209664, Control_c, 0, 64, 66
1, 209682, Control_c, 0, 64, 65
1, 209707, Note_on_c, 0, 75, 52
1, 209751, Note_on_c, 0, 81, 0
1, 209795, Control_c, 0, 64, 66
1, 209812, Control_c, 0, 64, 68
1, 209825, Note_on_c, 0, 72, 48
1, 209826, Note_on_c, 0, 75, 0
1, 209850, Control_c, 0, 64, 71
1, 209902, Control_c, 0, 64, 73
1, 209932, Note_on_c, 0, 72, 0
1, 209957, Control_c, 0, 64, 76
1, 209962, Note_on_c, 0, 69, 39
1, 210008, Note_on_c, 0, 54, 0
1, 210011, Control_c, 0, 64, 78
1, 210019, Note_on_c, 0, 66, 0
1, 210044, Note_on_c, 0, 69, 0
1, 210048, Control_c, 0, 67, 119
1, 210066, Control_c, 0, 64, 80
1, 210067, Control_c, 0, 67, 112
1, 210068, Poly_aftertouch_c, 0, 63, 24
1, 210084, Control_c, 0, 67, 102
1, 210087, Note_on_c, 0, 75, 47
1, 210093, Note_on_c, 0, 60, 0
1, 210103, Control_c, 0, 67, 90
1, 210110, Note_on_c, 0, 63, 0
1, 210110, Poly_aftertouch_c, 0, 63, 0
1, 210123, Control_c, 0, 64, 82
1, 210124, Control_c, 0, 67, 76
1, 210141, Control_c, 0, 67, 61
1, 210161, Control_c, 0, 67, 45
1, 210179, Control_c, 0, 64, 84
1, 210181, Control_c, 0, 67, 30
1, 210197, Control_c, 0, 67, 15
1, 210225, Note_on_c, 0, 72, 37
1, 210240, Note_on_c, 0, 75, 0
1, 210254, Control_c, 0, 64, 86
1, 210255, Control_c, 0, 67, 0
1, 210321, Note_on_c, 0, 72, 0
1, 210342, Note_on_c, 0, 69, 42
1, 210343, Control_c, 0, 64, 90
1, 210399, Control_c, 0, 64, 94
1, 210406, Note_on_c, 0, 69, 0
1, 210472, Control_c, 0, 64, 99
1, 210566, Note_on_c, 0, 59, 82
1, 210600, Control_c, 0, 64, 91
1, 210618, Control_c, 0, 64, 74
1, 210637, Control_c, 0, 64, 51
1, 210656, Control_c, 0, 64, 36
1, 210691, Note_on_c, 0, 62, 82
1, 210713, Control_c, 0, 64, 45
1, 210731, Control_c, 0, 64, 60
1, 210747, Control_c, 0, 64, 70
1, 210766, Control_c, 0, 64, 75
1, 210785, Control_c, 0, 64, 79
1, 210802, Control_c, 0, 64, 84
1, 210804, Note_on_c, 0, 67, 82
1, 210812, Note_on_c, 0, 62, 0
1, 210835, Control_c, 0, 64, 89
1, 210854, Control_c, 0, 64, 94
1, 210873, Control_c, 0, 64, 99
1, 210903, Note_on_c, 0, 59, 0
1, 210910, Control_c, 0, 64, 105
1, 210930, Note_on_c, 0, 62, 80
1, 210945, Note_on_c, 0, 71, 87
1, 210947, Control_c, 0, 64, 109
1, 210985, Control_c, 0, 64, 113
1, 211021, Control_c, 0, 64, 117
1, 211053, Note_on_c, 0, 59, 66
1, 211053, Note_on_c, 0, 74, 91
1, 211091, Note_on_c, 0, 71, 0
1, 211096, Control_c, 0, 64, 111
1, 211114, Control_c, 0, 64, 92
1, 211132, Control_c, 0, 64, 66
1, 211150, Control_c, 0, 64, 41
1, 211164, Note_on_c, 0, 55, 55
1, 211168, Control_c, 0, 64, 37
1, 211174, Note_on_c, 0, 79, 87
1, 211182, Note_on_c, 0, 74, 0
1, 211206, Control_c, 0, 64, 47
1, 211221, Note_on_c, 0, 67, 0
1, 211222, Control_c, 0, 64, 65
1, 211223, Control_c, 0, 67, 8
1, 211241, Control_c, 0, 64, 76
1, 211260, Control_c, 0, 64, 85
1, 211279, Control_c, 0, 64, 91
1, 211284, Note_on_c, 0, 74, 81
1, 211288, Note_on_c, 0, 62, 0
1, 211309, Note_on_c, 0, 79, 0
1, 211314, Control_c, 0, 64, 99
1, 211333, Control_c, 0, 67, 12
1, 211370, Control_c, 0, 64, 104
1, 211372, Control_c, 0, 67, 17
1, 211390, Note_on_c, 0, 59, 0
1, 211390, Control_c, 0, 67, 22
1, 211392, Note_on_c, 0, 74, 0
1, 211394, Note_on_c, 0, 71, 72
1, 211407, Control_c, 0, 67, 29
1, 211427, Control_c, 0, 67, 35
1, 211445, Control_c, 0, 67, 40
1, 211477, Note_on_c, 0, 71, 0
1, 211480, Control_c, 0, 67, 46
1, 211494, Note_on_c, 0, 67, 56
1, 211519, Control_c, 0, 67, 55
1, 211536, Control_c, 0, 67, 63
1, 211553, Control_c, 0, 67, 71
1, 211574, Control_c, 0, 67, 77
1, 211591, Control_c, 0, 67, 82
1, 211610, Control_c, 0, 67, 86
1, 211629, Control_c, 0, 67, 93
1, 211647, Control_c, 0, 67, 102
1, 211666, Control_c, 0, 67, 112
1, 211682, Control_c, 0, 67, 120
1, 211702, Control_c, 0, 67, 125
1, 211807, Note_on_c, 0, 62, 44
1, 211827, Control_c, 0, 64, 90
1, 211846, Control_c, 0, 64, 64
1, 211855, Note_on_c, 0, 77, 71
1, 211869, Poly_aftertouch_c, 0, 67, 24
1, 211883, Control_c, 0, 64, 0
1, 211913, Note_on_c, 0, 67, 0
1, 211913, Poly_aftertouch_c, 0, 67, 0
1, 211957, Control_c, 0, 64, 29
1, 211975, Control_c, 0, 64, 55
1, 211994, Control_c, 0, 64, 75
1, 212011, Control_c, 0, 64, 88
1, 212014, Note_on_c, 0, 71, 37
1, 212031, Control_c, 0, 64, 98
1, 212050, Control_c, 0, 64, 102
1, 212118, Note_on_c, 0, 77, 0
1, 212137, Note_on_c, 0, 71, 0
1, 212140, Note_on_c, 0, 67, 40
1, 212215, Control_c, 0, 64, 106
1, 212311, Note_on_c, 0, 59, 43
1, 212314, Note_on_c, 0, 77, 65
1, 212325, Control_c, 0, 64, 96
1, 212344, Control_c, 0, 64, 77
1, 212360, Note_on_c, 0, 67, 0
1, 212361, Control_c, 0, 64, 56
1, 212381, Control_c, 0, 64, 47
1, 212411, Note_on_c, 0, 55, 0
1, 212415, Control_c, 0, 64, 56
1, 212435, Control_c, 0, 64, 69
1, 212443, Note_on_c, 0, 74, 48
1, 212444, Note_on_c, 0, 62, 0
1, 212453, Control_c, 0, 64, 79
1, 212471, Control_c, 0, 64, 89
1, 212486, Note_on_c, 0, 74, 0
1, 212489, Control_c, 0, 64, 95
1, 212508, Control_c, 0, 64, 99
1, 212560, Note_on_c, 0, 67, 43
1, 212618, Control_c, 0, 64, 104
1, 212687, Note_on_c, 0, 75, 65
1, 212706, Control_c, 0, 64, 95
1, 212721, Note_on_c, 0, 55, 43
1, 212725, Control_c, 0, 64, 75
1, 212732, Note_on_c, 0, 59, 0
1, 212739, Note_on_c, 0, 67, 0
1, 212744, Control_c, 0, 64, 50
1, 212763, Control_c, 0, 64, 31
1, 212770, Note_on_c, 0, 77, 0
1, 212819, Control_c, 0, 64, 43
1, 212832, Note_on_c, 0, 74, 50
1, 212836, Control_c, 0, 64, 62
1, 212855, Control_c, 0, 64, 74
1, 212873, Control_c, 0, 64, 80
1, 212889, Note_on_c, 0, 75, 0
1, 212892, Control_c, 0, 64, 84
1, 212911, Control_c, 0, 64, 86
1, 212918, Note_on_c, 0, 74, 0
1, 212963, Note_on_c, 0, 67, 34
1, 212985, Control_c, 0, 64, 90
1, 213021, Control_c, 0, 64, 96
1, 213058, Control_c, 0, 64, 100
1, 213087, Note_on_c, 0, 75, 51
1, 213093, Control_c, 0, 64, 92
1, 213112, Control_c, 0, 64, 73
1, 213122, Note_on_c, 0, 60, 36
1, 213130, Control_c, 0, 64, 46
1, 213140, Note_on_c, 0, 67, 0
1, 213149, Control_c, 0, 64, 21
1, 213205, Control_c, 0, 64, 33
1, 213225, Control_c, 0, 64, 55
1, 213237, Note_on_c, 0, 72, 45
1, 213243, Control_c, 0, 64, 71
1, 213261, Control_c, 0, 64, 79
1, 213279, Control_c, 0, 64, 84
1, 213297, Control_c, 0, 64, 87
1, 213321, Note_on_c, 0, 72, 0
1, 213351, Control_c, 0, 64, 93
1, 213357, Note_on_c, 0, 67, 37
1, 213372, Control_c, 0, 64, 98
1, 213390, Control_c, 0, 64, 103
1, 213426, Control_c, 0, 64, 108
1, 213435, Note_on_c, 0, 67, 0
1, 213462, Control_c, 0, 64, 96
1, 213464, Note_on_c, 0, 75, 0
1, 213465, Note_on_c, 0, 66, 41
1, 213480, Control_c, 0, 64, 75
1, 213489, Note_on_c, 0, 74, 44
1, 213500, Control_c, 0, 64, 50
1, 213518, Control_c, 0, 64, 37
1, 213554, Control_c, 0, 64, 47
1, 213574, Control_c, 0, 64, 67
1, 213575, Control_c, 0, 67, 117
1, 213579, Note_on_c, 0, 66, 0
1, 213592, Control_c, 0, 64, 81
1, 213593, Control_c, 0, 67, 106
1, 213608, Poly_aftertouch_c, 0, 55, 24
1, 213611, Control_c, 0, 64, 94
1, 213613, Control_c, 0, 67, 90
1, 213613, Note_on_c, 0, 72, 34
1, 213617, Note_on_c, 0, 60, 0
1, 213642, Control_c, 0, 64, 104
1, 213643, Control_c, 0, 67, 69
1, 213660, Control_c, 0, 64, 110
1, 213661, Note_on_c, 0, 55, 0
1, 213661, Control_c, 0, 67, 44
1, 213661, Poly_aftertouch_c, 0, 55, 0
1, 213679, Control_c, 0, 67, 16
1, 213699, Control_c, 0, 64, 114
1, 213700, Control_c, 0, 67, 0
1, 213724, Note_on_c, 0, 69, 43
1, 213735, Control_c, 0, 64, 119
1, 213754, Control_c, 0, 64, 123
1, 213773, Control_c, 0, 64, 127
1, 213821, Note_on_c, 0, 72, 0
1, 213892, Note_on_c, 0, 47, 80
1, 213906, Note_on_c, 0, 69, 0
1, 213907, Note_on_c, 0, 74, 0
1, 213919, Control_c, 0, 64, 110
1, 213938, Control_c, 0, 64, 83
1, 213957, Control_c, 0, 64, 60
1, 213975, Control_c, 0, 64, 56
1, 213993, Control_c, 0, 64, 60
1, 214012, Control_c, 0, 64, 73
1, 214015, Note_on_c, 0, 50, 80
1, 214029, Control_c, 0, 64, 87
1, 214048, Control_c, 0, 64, 102
1, 214066, Control_c, 0, 64, 111
1, 214123, Note_on_c, 0, 55, 85
1, 214136, Note_on_c, 0, 50, 0
1, 214220, Note_on_c, 0, 47, 0
1, 214231, Note_on_c, 0, 50, 74
1, 214252, Control_c, 0, 64, 105
1, 214253, Note_on_c, 0, 59, 85
1, 214269, Control_c, 0, 64, 82
1, 214287, Control_c, 0, 64, 54
1, 214308, Control_c, 0, 64, 33
1, 214360, Note_on_c, 0, 62, 87
1, 214361, Control_c, 0, 64, 47
1, 214368, Note_on_c, 0, 47, 64
1, 214379, Control_c, 0, 64, 66
1, 214393, Note_on_c, 0, 59, 0
1, 214397, Control_c, 0, 64, 77
1, 214417, Control_c, 0, 64, 86
1, 214436, Control_c, 0, 64, 90
1, 214438, Note_on_c, 0, 55, 0
1, 214478, Note_on_c, 0, 67, 89
1, 214480, Note_on_c, 0, 43, 60
1, 214486, Note_on_c, 0, 62, 0
1, 214527, Control_c, 0, 64, 76
1, 214545, Note_on_c, 0, 50, 0
1, 214546, Control_c, 0, 64, 56
1, 214547, Control_c, 0, 67, 8
1, 214578, Control_c, 0, 64, 37
1, 214604, Note_on_c, 0, 47, 0
1, 214612, Note_on_c, 0, 62, 82
1, 214635, Control_c, 0, 64, 48
1, 214652, Control_c, 0, 64, 67
1, 214658, Note_on_c, 0, 67, 0
1, 214672, Control_c, 0, 64, 77
1, 214690, Control_c, 0, 64, 85
1, 214726, Control_c, 0, 64, 90
1, 214730, Note_on_c, 0, 59, 71
1, 214731, Note_on_c, 0, 62, 0
1, 214744, Control_c, 0, 67, 12
1, 214829, Note_on_c, 0, 59, 0
1, 214836, Note_on_c, 0, 55, 57
1, 214855, Control_c, 0, 67, 18
1, 214873, Control_c, 0, 67, 22
1, 214892, Control_c, 0, 67, 26
1, 214930, Control_c, 0, 67, 31
1, 214986, Control_c, 0, 64, 88
1, 214987, Control_c, 0, 67, 36
1, 215021, Control_c, 0, 67, 41
1, 215039, Control_c, 0, 64, 85
1, 215057, Control_c, 0, 64, 81
1, 215058, Control_c, 0, 67, 46
1, 215075, Note_on_c, 0, 50, 40
1, 215075, Control_c, 0, 64, 67
1, 215094, Control_c, 0, 64, 36
1, 215095, Control_c, 0, 67, 50
1, 215100, Note_on_c, 0, 65, 66
1, 215113, Control_c, 0, 64, 0
1, 215132, Control_c, 0, 67, 55
1, 215170, Control_c, 0, 67, 60
1, 215172, Note_on_c, 0, 55, 0
1, 215188, Control_c, 0, 67, 64
1, 215204, Control_c, 0, 67, 69
1, 215223, Control_c, 0, 64, 40
1, 215241, Control_c, 0, 64, 62
1, 215244, Note_on_c, 0, 59, 36
1, 215260, Control_c, 0, 64, 75
1, 215278, Control_c, 0, 64, 82
1, 215296, Control_c, 0, 64, 85
1, 215315, Control_c, 0, 64, 87
1, 215333, Control_c, 0, 67, 63
1, 215337, Note_on_c, 0, 59, 0
1, 215349, Note_on_c, 0, 55, 46
1, 215352, Control_c, 0, 67, 56
1, 215353, Note_on_c, 0, 65, 0
1, 215371, Control_c, 0, 64, 94
1, 215372, Control_c, 0, 67, 47
1, 215390, Control_c, 0, 64, 98
1, 215391, Control_c, 0, 67, 37
1, 215408, Control_c, 0, 67, 27
1, 215426, Control_c, 0, 64, 102
1, 215426, Control_c, 0, 67, 17
1, 215547, Note_on_c, 0, 65, 63
1, 215549, Control_c, 0, 67, 0
1, 215558, Note_on_c, 0, 47, 43
1, 215569, Control_c, 0, 64, 87
1, 215590, Control_c, 0, 64, 63
1, 215594, Note_on_c, 0, 55, 0
1, 215607, Control_c, 0, 64, 34
1, 215625, Control_c, 0, 64, 26
1, 215650, Note_on_c, 0, 62, 52
1, 215662, Control_c, 0, 64, 38
1, 215664, Note_on_c, 0, 43, 0
1, 215670, Note_on_c, 0, 50, 0
1, 215679, Control_c, 0, 64, 58
1, 215699, Control_c, 0, 64, 72
1, 215703, Note_on_c, 0, 62, 0
1, 215718, Control_c, 0, 64, 81
1, 215737, Control_c, 0, 64, 86
1, 215771, Control_c, 0, 64, 91
1, 215792, Note_on_c, 0, 55, 40
1, 215808, Control_c, 0, 64, 97
1, 215846, Control_c, 0, 64, 102
1, 215908, Note_on_c, 0, 63, 65
1, 215919, Control_c, 0, 64, 96
1, 215929, Note_on_c, 0, 43, 42
1, 215935, Poly_aftertouch_c, 0, 47, 24
1, 215937, Control_c, 0, 64, 75
1, 215953, Note_on_c, 0, 65, 0
1, 215955, Control_c, 0, 64, 43
1, 215964, Note_on_c, 0, 55, 0
1, 215973, Control_c, 0, 64, 0
1, 215974, Note_on_c, 0, 47, 0
1, 215974, Poly_aftertouch_c, 0, 47, 0
1, 216011, Control_c, 0, 67, 8
1, 216030, Control_c, 0, 64, 24
1, 216045, Note_on_c, 0, 62, 44
1, 216048, Control_c, 0, 64, 46
1, 216067, Control_c, 0, 64, 65
1, 216085, Control_c, 0, 64, 74
1, 216086, Control_c, 0, 67, 12
1, 216103, Note_on_c, 0, 63, 0
1, 216104, Control_c, 0, 64, 78
1, 216119, Note_on_c, 0, 62, 0
1, 216123, Control_c, 0, 64, 80
1, 216124, Control_c, 0, 67, 19
1, 216158, Control_c, 0, 64, 83
1, 216164, Note_on_c, 0, 55, 40
1, 216178, Control_c, 0, 64, 86
1, 216214, Control_c, 0, 64, 92
1, 216216, Control_c, 0, 67, 25
1, 216231, Control_c, 0, 67, 30
1, 216250, Control_c, 0, 67, 34
1, 216288, Control_c, 0, 64, 83
1, 216289, Control_c, 0, 67, 41
1, 216300, Note_on_c, 0, 48, 40
1, 216308, Control_c, 0, 64, 60
1, 216310, Control_c, 0, 67, 45
1, 216316, Note_on_c, 0, 63, 52
1, 216326, Control_c, 0, 64, 19
1, 216327, Control_c, 0, 67, 52
1, 216345, Control_c, 0, 64, 0
1, 216347, Control_c, 0, 67, 61
1, 216356, Note_on_c, 0, 55, 0
1, 216360, Control_c, 0, 67, 72
1, 216379, Control_c, 0, 67, 84
1, 216399, Control_c, 0, 64, 15
1, 216401, Control_c, 0, 67, 94
1, 216418, Control_c, 0, 64, 41
1, 216419, Control_c, 0, 67, 104
1, 216449, Control_c, 0, 64, 61
1, 216450, Control_c, 0, 67, 113
1, 216463, Note_on_c, 0, 60, 48
1, 216466, Control_c, 0, 64, 73
1, 216467, Control_c, 0, 67, 120
1, 216486, Control_c, 0, 64, 78
1, 216487, Control_c, 0, 67, 127
1, 216506, Control_c, 0, 64, 81
1, 216533, Note_on_c, 0, 60, 0
1, 216541, Control_c, 0, 64, 83
1, 216560, Control_c, 0, 64, 85
1, 216566, Note_on_c, 0, 55, 37
1, 216580, Control_c, 0, 64, 87
1, 216615, Control_c, 0, 64, 91
1, 216654, Note_on_c, 0, 55, 0
1, 216691, Note_on_c, 0, 48, 0
1, 216708, Control_c, 0, 64, 85
1, 216714, Note_on_c, 0, 62, 54
1, 216725, Note_on_c, 0, 54, 43
1, 216726, Control_c, 0, 64, 64
1, 216727, Note_on_c, 0, 63, 0
1, 216744, Control_c, 0, 64, 13
1, 216763, Control_c, 0, 64, 0
1, 216834, Note_on_c, 0, 62, 0
1, 216836, Control_c, 0, 64, 24
1, 216848, Note_on_c, 0, 60, 42
1, 216856, Control_c, 0, 64, 45
1, 216874, Control_c, 0, 64, 63
1, 216892, Control_c, 0, 64, 73
1, 216904, Note_on_c, 0, 60, 0
1, 216910, Control_c, 0, 64, 78
1, 216931, Control_c, 0, 64, 80
1, 216948, Note_on_c, 0, 57, 35
1, 216967, Control_c, 0, 64, 82
1, 216993, Note_on_c, 0, 54, 0
1, 217040, Control_c, 0, 64, 75
1, 217059, Control_c, 0, 64, 50
1, 217075, Note_on_c, 0, 57, 0
1, 217076, Control_c, 0, 64, 0
1, 217099, Note_on_c, 0, 62, 51
1, 217102, Note_on_c, 0, 55, 43
1, 217152, Note_on_c, 0, 55, 0
1, 217167, Control_c, 0, 64, 29
1, 217177, Poly_aftertouch_c, 0, 43, 24
1, 217186, Control_c, 0, 64, 57
1, 217205, Control_c, 0, 64, 70
1, 217211, Note_on_c, 0, 62, 0
1, 217221, Note_on_c, 0, 43, 0
1, 217221, Poly_aftertouch_c, 0, 43, 0
1, 217224, Control_c, 0, 64, 74
1, 217226, Note_on_c, 0, 59, 46
1, 217273, Note_on_c, 0, 59, 0
1, 217296, Control_c, 0, 64, 76
1, 217334, Control_c, 0, 64, 80
1, 217353, Control_c, 0, 64, 83
1, 217356, Note_on_c, 0, 55, 35
1, 217385, Control_c, 0, 64, 87
1, 217432, Note_on_c, 0, 55, 0
1, 217441, Control_c, 0, 64, 91
1, 217494, Note_on_c, 0, 60, 65
1, 217496, Control_c, 0, 64, 77
1, 217498, Note_on_c, 0, 48, 48
1, 217516, Control_c, 0, 64, 48
1, 217534, Control_c, 0, 64, 0
1, 217610, Note_on_c, 0, 60, 0
1, 217614, Note_on_c, 0, 55, 51
1, 217699, Note_on_c, 0, 55, 0
1, 217747, Note_on_c, 0, 51, 41
1, 217843, Poly_aftertouch_c, 0, 48, 24
1, 217850, Note_on_c, 0, 51, 0
1, 217860, Note_on_c, 0, 59, 57
1, 217879, Note_on_c, 0, 43, 42
1, 217896, Note_on_c, 0, 48, 0
1, 217896, Poly_aftertouch_c, 0, 48, 0
1, 217963, Note_on_c, 0, 59, 0
1, 217980, Note_on_c, 0, 55, 52
1, 218065, Note_on_c, 0, 55, 0
1, 218104, Note_on_c, 0, 50, 40
1, 218220, Note_on_c, 0, 50, 0
1, 218247, Note_on_c, 0, 57, 49
1, 218252, Note_on_c, 0, 36, 38
1, 218271, Note_on_c, 0, 43, 0
1, 218361, Note_on_c, 0, 57, 0
1, 218389, Note_on_c, 0, 51, 45
1, 218465, Note_on_c, 0, 51, 0
1, 218498, Note_on_c, 0, 48, 38
1, 218634, Note_on_c, 0, 48, 0
1, 218641, Note_on_c, 0, 55, 48
1, 218659, Note_on_c, 0, 31, 38
1, 218660, Note_on_c, 0, 36, 0
1, 218719, Note_on_c, 0, 55, 0
1, 218768, Note_on_c, 0, 50, 39
1, 218831, Note_on_c, 0, 50, 0
1, 218873, Note_on_c, 0, 47, 38
1, 219010, Note_on_c, 0, 47, 0
1, 219017, Note_on_c, 0, 54, 47
1, 219022, Note_on_c, 0, 36, 38
1, 219047, Note_on_c, 0, 31, 0
1, 219107, Note_on_c, 0, 54, 0
1, 219150, Note_on_c, 0, 51, 41
1, 219238, Note_on_c, 0, 51, 0
1, 219287, Note_on_c, 0, 45, 38
1, 219414, Note_on_c, 0, 31, 41
1, 219419, Note_on_c, 0, 55, 48
1, 219431, Note_on_c, 0, 36, 0
1, 219432, Note_on_c, 0, 45, 0
1, 219527, Note_on_c, 0, 55, 0
1, 219552, Note_on_c, 0, 50, 37
1, 219638, Note_on_c, 0, 50, 0
1, 219665, Note_on_c, 0, 47, 42
1, 219779, Note_on_c, 0, 47, 0
1, 219784, Note_on_c, 0, 31, 0
1, 219789, Note_on_c, 0, 54, 46
1, 219790, Note_on_c, 0, 36, 39
1, 219887, Note_on_c, 0, 54, 0
1, 219901, Note_on_c, 0, 51, 48
1, 219978, Note_on_c, 0, 51, 0
1, 220004, Note_on_c, 0, 45, 51
1, 220046, Note_on_c, 0, 45, 0
1, 220077, Poly_aftertouch_c, 0, 36, 24
1, 220115, Note_on_c, 0, 36, 0
1, 220115, Poly_aftertouch_c, 0, 36, 0
1, 220116, Poly_aftertouch_c, 0, 36, 0
1, 220160, Note_on_c, 0, 31, 47
1, 220169, Note_on_c, 0, 55, 47
1, 220195, Note_on_c, 0, 50, 40
1, 220198, Note_on_c, 0, 47, 45
1, 220231, Note_on_c, 0, 31, 0
1, 220270, Note_on_c, 0, 36, 49
1, 220348, Note_on_c, 0, 36, 0
1, 220370, Note_on_c, 0, 35, 43
1, 220434, Note_on_c, 0, 35, 0
1, 220464, Note_on_c, 0, 33, 52
1, 220539, Note_on_c, 0, 33, 0
1, 220560, Note_on_c, 0, 31, 52
1, 220620, Note_on_c, 0, 31, 0
1, 220662, Note_on_c, 0, 36, 46
1, 220730, Note_on_c, 0, 36, 0
1, 220757, Note_on_c, 0, 35, 40
1, 220826, Note_on_c, 0, 35, 0
1, 220864, Note_on_c, 0, 33, 48
1, 220922, Note_on_c, 0, 33, 0
1, 220933, Poly_aftertouch_c, 0, 47, 24
1, 220945, Note_on_c, 0, 31, 44
1, 220998, Note_on_c, 0, 31, 0
1, 221046, Note_on_c, 0, 36, 43
1, 221128, Note_on_c, 0, 36, 0
1, 221147, Note_on_c, 0, 35, 49
1, 221220, Note_on_c, 0, 35, 0
1, 221258, Note_on_c, 0, 33, 48
1, 221296, Poly_aftertouch_c, 0, 47, 22
1, 221310, Note_on_c, 0, 33, 0
1, 221333, Note_on_c, 0, 31, 46
1, 221343, Note_on_c, 0, 47, 0
1, 221343, Poly_aftertouch_c, 0, 47, 0
1, 221385, Note_on_c, 0, 31, 0
1, 221397, Note_on_c, 0, 50, 0
1, 221413, Note_on_c, 0, 36, 49
1, 221487, Note_on_c, 0, 36, 0
1, 221512, Note_on_c, 0, 35, 45
1, 221573, Note_on_c, 0, 35, 0
1, 221624, Note_on_c, 0, 33, 46
1, 221676, Note_on_c, 0, 33, 0
1, 221715, Note_on_c, 0, 31, 38
1, 221719, Note_on_c, 0, 55, 0
1, 221799, Note_on_c, 0, 50, 48
1, 221861, Note_on_c, 0, 50, 0
1, 221877, Note_on_c, 0, 52, 56
1, 221955, Note_on_c, 0, 52, 0
1, 221970, Note_on_c, 0, 54, 53
1, 222035, Note_on_c, 0, 54, 0
1, 222065, Note_on_c, 0, 55, 63
1, 222114, Note_on_c, 0, 55, 0
1, 222174, Note_on_c, 0, 50, 44
1, 222227, Note_on_c, 0, 50, 0
1, 222256, Note_on_c, 0, 52, 39
1, 222329, Note_on_c, 0, 52, 0
1, 222345, Note_on_c, 0, 54, 43
1, 222410, Note_on_c, 0, 54, 0
1, 222432, Note_on_c, 0, 55, 48
1, 222481, Note_on_c, 0, 55, 0
1, 222520, Note_on_c, 0, 50, 47
1, 222580, Note_on_c, 0, 50, 0
1, 222625, Note_on_c, 0, 52, 36
1, 222696, Note_on_c, 0, 52, 0
1, 222697, Note_on_c, 0, 54, 43
1, 222762, Note_on_c, 0, 54, 0
1, 222788, Note_on_c, 0, 55, 47
1, 222842, Note_on_c, 0, 55, 0
1, 222889, Note_on_c, 0, 50, 43
1, 222942, Note_on_c, 0, 50, 0
1, 222980, Note_on_c, 0, 52, 40
1, 223061, Note_on_c, 0, 52, 0
1, 223076, Note_on_c, 0, 54, 43
1, 223138, Note_on_c, 0, 54, 0
1, 223163, Note_on_c, 0, 55, 44
1, 223203, Note_on_c, 0, 31, 0
1, 223260, Note_on_c, 0, 36, 50
1, 223325, Note_on_c, 0, 36, 0
1, 223356, Note_on_c, 0, 35, 43
1, 223404, Note_on_c, 0, 35, 0
1, 223432, Note_on_c, 0, 33, 54
1, 223492, Note_on_c, 0, 33, 0
1, 223518, Note_on_c, 0, 31, 56
1, 223572, Note_on_c, 0, 31, 0
1, 223615, Note_on_c, 0, 36, 54
1, 223687, Note_on_c, 0, 36, 0
1, 223694, Note_on_c, 0, 35, 49
1, 223769, Note_on_c, 0, 35, 0
1, 223806, Note_on_c, 0, 33, 52
1, 223863, Note_on_c, 0, 33, 0
1, 223881, Note_on_c, 0, 31, 55
1, 223953, Note_on_c, 0, 31, 0
1, 224001, Note_on_c, 0, 36, 49
1, 224070, Note_on_c, 0, 36, 0
1, 224087, Note_on_c, 0, 35, 52
1, 224153, Note_on_c, 0, 35, 0
1, 224188, Note_on_c, 0, 33, 52
1, 224247, Note_on_c, 0, 33, 0
1, 224263, Note_on_c, 0, 31, 50
1, 224318, Note_on_c, 0, 31, 0
1, 224356, Note_on_c, 0, 36, 46
1, 224420, Note_on_c, 0, 36, 0
1, 224446, Note_on_c, 0, 35, 45
1, 224502, Note_on_c, 0, 35, 0
1, 224561, Note_on_c, 0, 33, 46
1, 224608, Note_on_c, 0, 33, 0
1, 224637, Note_on_c, 0, 31, 50
1, 224698, Note_on_c, 0, 55, 0
1, 224740, Note_on_c, 0, 54, 46
1, 224793, Note_on_c, 0, 54, 0
1, 224807, Note_on_c, 0, 55, 61
1, 224875, Note_on_c, 0, 55, 0
1, 224912, Note_on_c, 0, 57, 55
1, 224969, Note_on_c, 0, 57, 0
1, 224984, Note_on_c, 0, 59, 72
1, 225047, Note_on_c, 0, 59, 0
1, 225088, Note_on_c, 0, 54, 62
1, 225133, Note_on_c, 0, 54, 0
1, 225179, Note_on_c, 0, 55, 51
1, 225243, Note_on_c, 0, 57, 46
1, 225244, Note_on_c, 0, 55, 0
1, 225310, Note_on_c, 0, 57, 0
1, 225337, Note_on_c, 0, 59, 54
1, 225403, Note_on_c, 0, 59, 0
1, 225438, Note_on_c, 0, 54, 47
1, 225497, Note_on_c, 0, 54, 0
1, 225534, Note_on_c, 0, 55, 47
1, 225580, Note_on_c, 0, 55, 0
1, 225614, Note_on_c, 0, 57, 42
1, 225687, Note_on_c, 0, 57, 0
1, 225712, Note_on_c, 0, 59, 48
1, 225778, Note_on_c, 0, 59, 0
1, 225827, Note_on_c, 0, 54, 41
1, 225885, Note_on_c, 0, 54, 0
1, 225919, Note_on_c, 0, 55, 46
1, 225975, Note_on_c, 0, 55, 0
1, 226004, Note_on_c, 0, 57, 45
1, 226030, Note_on_c, 0, 31, 0
1, 226086, Note_on_c, 0, 57, 0
1, 226103, Note_on_c, 0, 59, 49
1, 226167, Note_on_c, 0, 36, 44
1, 226241, Note_on_c, 0, 36, 0
1, 226268, Note_on_c, 0, 35, 46
1, 226310, Note_on_c, 0, 59, 0
1, 226355, Note_on_c, 0, 35, 0
1, 226378, Note_on_c, 0, 33, 50
1, 226444, Note_on_c, 0, 33, 0
1, 226463, Note_on_c, 0, 31, 53
1, 226523, Note_on_c, 0, 31, 0
1, 226553, Note_on_c, 0, 36, 46
1, 226627, Note_on_c, 0, 36, 0
1, 226647, Note_on_c, 0, 35, 50
1, 226660, Note_on_c, 0, 59, 58
1, 226704, Note_on_c, 0, 59, 0
1, 226719, Note_on_c, 0, 35, 0
1, 226762, Note_on_c, 0, 60, 54
1, 226771, Note_on_c, 0, 33, 49
1, 226817, Note_on_c, 0, 60, 0
1, 226820, Note_on_c, 0, 33, 0
1, 226836, Note_on_c, 0, 31, 53
1, 226840, Note_on_c, 0, 62, 52
1, 226903, Note_on_c, 0, 31, 0
1, 226940, Note_on_c, 0, 36, 45
1, 227009, Note_on_c, 0, 36, 0
1, 227035, Note_on_c, 0, 35, 47
1, 227065, Note_on_c, 0, 62, 0
1, 227108, Note_on_c, 0, 35, 0
1, 227134, Note_on_c, 0, 33, 43
1, 227189, Note_on_c, 0, 33, 0
1, 227203, Note_on_c, 0, 31, 53
1, 227262, Note_on_c, 0, 31, 0
1, 227291, Note_on_c, 0, 36, 48
1, 227374, Note_on_c, 0, 36, 0
1, 227383, Note_on_c, 0, 62, 58
1, 227399, Note_on_c, 0, 35, 43
1, 227433, Note_on_c, 0, 62, 0
1, 227450, Note_on_c, 0, 64, 56
1, 227457, Note_on_c, 0, 35, 0
1, 227495, Note_on_c, 0, 66, 59
1, 227502, Note_on_c, 0, 64, 0
1, 227507, Note_on_c, 0, 33, 42
1, 227553, Note_on_c, 0, 33, 0
1, 227562, Note_on_c, 0, 66, 0
1, 227565, Note_on_c, 0, 31, 49
1, 227571, Note_on_c, 0, 67, 55
1, 227628, Note_on_c, 0, 31, 0
1, 227692, Note_on_c, 0, 36, 42
1, 227777, Note_on_c, 0, 36, 0
1, 227792, Note_on_c, 0, 35, 47
1, 227836, Note_on_c, 0, 67, 0
1, 227861, Note_on_c, 0, 35, 0
1, 227892, Note_on_c, 0, 33, 52
1, 227954, Note_on_c, 0, 33, 0
1, 227956, Note_on_c, 0, 31, 53
1, 228031, Note_on_c, 0, 31, 0
1, 228053, Note_on_c, 0, 36, 46
1, 228127, Note_on_c, 0, 36, 0
1, 228148, Note_on_c, 0, 67, 55
1, 228152, Note_on_c, 0, 35, 46
1, 228208, Note_on_c, 0, 67, 0
1, 228227, Note_on_c, 0, 35, 0
1, 228229, Note_on_c, 0, 69, 58
1, 228260, Note_on_c, 0, 33, 49
1, 228293, Note_on_c, 0, 69, 0
1, 228296, Note_on_c, 0, 71, 63
1, 228315, Note_on_c, 0, 31, 48
1, 228319, Note_on_c, 0, 33, 0
1, 228328, Note_on_c, 0, 71, 0
1, 228369, Note_on_c, 0, 31, 0
1, 228397, Note_on_c, 0, 36, 49
1, 228471, Note_on_c, 0, 36, 0
1, 228495, Note_on_c, 0, 71, 50
1, 228501, Note_on_c, 0, 35, 47
1, 228553, Note_on_c, 0, 71, 0
1, 228564, Note_on_c, 0, 72, 63
1, 228570, Note_on_c, 0, 35, 0
1, 228594, Note_on_c, 0, 33, 50
1, 228633, Note_on_c, 0, 72, 0
1, 228633, Note_on_c, 0, 74, 65
1, 228660, Note_on_c, 0, 31, 52
1, 228668, Note_on_c, 0, 74, 0
1, 228677, Note_on_c, 0, 33, 0
1, 228723, Note_on_c, 0, 31, 0
1, 228737, Note_on_c, 0, 36, 54
1, 228824, Note_on_c, 0, 36, 0
1, 228846, Note_on_c, 0, 35, 45
1, 228881, Note_on_c, 0, 74, 38
1, 228914, Note_on_c, 0, 35, 0
1, 228916, Note_on_c, 0, 74, 0
1, 228916, Note_on_c, 0, 76, 51
1, 228941, Note_on_c, 0, 33, 48
1, 228963, Note_on_c, 0, 78, 63
1, 228969, Note_on_c, 0, 76, 0
1, 229001, Note_on_c, 0, 33, 0
1, 229021, Note_on_c, 0, 31, 44
1, 229027, Note_on_c, 0, 79, 53
1, 229038, Note_on_c, 0, 78, 0
1, 229086, Note_on_c, 0, 31, 0
1, 229113, Note_on_c, 0, 36, 45
1, 229205, Note_on_c, 0, 36, 0
1, 229217, Note_on_c, 0, 35, 47
1, 229272, Note_on_c, 0, 79, 0
1, 229296, Note_on_c, 0, 35, 0
1, 229310, Note_on_c, 0, 33, 50
1, 229384, Note_on_c, 0, 33, 0
1, 229390, Note_on_c, 0, 31, 48
1, 229453, Note_on_c, 0, 31, 0
1, 229468, Note_on_c, 0, 36, 51
1, 229554, Note_on_c, 0, 36, 0
1, 229598, Note_on_c, 0, 35, 35
1, 229618, Note_on_c, 0, 62, 45
1, 229657, Note_on_c, 0, 62, 0
1, 229658, Note_on_c, 0, 35, 0
1, 229671, Note_on_c, 0, 64, 62
1, 229699, Note_on_c, 0, 33, 43
1, 229721, Note_on_c, 0, 64, 0
1, 229721, Note_on_c, 0, 66, 59
1, 229753, Note_on_c, 0, 33, 0
1, 229771, Note_on_c, 0, 31, 46
1, 229782, Note_on_c, 0, 66, 0
1, 229790, Note_on_c, 0, 67, 52
1, 229843, Note_on_c, 0, 31, 0
1, 229879, Note_on_c, 0, 36, 47
1, 229955, Note_on_c, 0, 36, 0
1, 229982, Note_on_c, 0, 35, 47
1, 230026, Note_on_c, 0, 67, 0
1, 230047, Note_on_c, 0, 35, 0
1, 230070, Note_on_c, 0, 33, 50
1, 230138, Note_on_c, 0, 33, 0
1, 230139, Note_on_c, 0, 31, 51
1, 230210, Note_on_c, 0, 31, 0
1, 230227, Note_on_c, 0, 36, 51
1, 230312, Note_on_c, 0, 36, 0
1, 230335, Note_on_c, 0, 35, 45
1, 230341, Note_on_c, 0, 67, 58
1, 230396, Note_on_c, 0, 67, 0
1, 230397, Note_on_c, 0, 35, 0
1, 230427, Note_on_c, 0, 69, 59
1, 230429, Note_on_c, 0, 33, 45
1, 230504, Note_on_c, 0, 33, 0
1, 230505, Note_on_c, 0, 69, 0
1, 230507, Note_on_c, 0, 31, 52
1, 230523, Note_on_c, 0, 71, 59
1, 230576, Note_on_c, 0, 31, 0
1, 230599, Note_on_c, 0, 36, 49
1, 230694, Note_on_c, 0, 36, 0
1, 230706, Note_on_c, 0, 35, 45
1, 230768, Note_on_c, 0, 71, 0
1, 230782, Note_on_c, 0, 35, 0
1, 230799, Note_on_c, 0, 33, 52
1, 230872, Note_on_c, 0, 33, 0
1, 230873, Note_on_c, 0, 31, 56
1, 230942, Note_on_c, 0, 31, 0
1, 230964, Note_on_c, 0, 36, 49
1, 231041, Note_on_c, 0, 36, 0
1, 231061, Note_on_c, 0, 35, 47
1, 231076, Note_on_c, 0, 71, 53
1, 231135, Note_on_c, 0, 71, 0
1, 231137, Note_on_c, 0, 35, 0
1, 231148, Note_on_c, 0, 72, 61
1, 231158, Note_on_c, 0, 33, 56
1, 231211, Note_on_c, 0, 72, 0
1, 231218, Note_on_c, 0, 74, 61
1, 231223, Note_on_c, 0, 31, 49
1, 231231, Note_on_c, 0, 33, 0
1, 231252, Note_on_c, 0, 74, 0
1, 231284, Note_on_c, 0, 31, 0
1, 231317, Note_on_c, 0, 36, 46
1, 231391, Note_on_c, 0, 36, 0
1, 231434, Note_on_c, 0, 35, 43
1, 231437, Note_on_c, 0, 74, 48
1, 231483, Note_on_c, 0, 74, 0
1, 231485, Note_on_c, 0, 76, 59
1, 231496, Note_on_c, 0, 35, 0
1, 231519, Note_on_c, 0, 33, 52
1, 231532, Note_on_c, 0, 78, 67
1, 231571, Note_on_c, 0, 76, 0
1, 231587, Note_on_c, 0, 31, 52
1, 231588, Note_on_c, 0, 33, 0
1, 231593, Note_on_c, 0, 79, 64
1, 231599, Note_on_c, 0, 78, 0
1, 231630, Note_on_c, 0, 79, 0
1, 231648, Note_on_c, 0, 31, 0
1, 231672, Note_on_c, 0, 36, 49
1, 231759, Note_on_c, 0, 36, 0
1, 231785, Note_on_c, 0, 35, 47
1, 231805, Note_on_c, 0, 79, 55
1, 231854, Note_on_c, 0, 79, 0
1, 231860, Note_on_c, 0, 35, 0
1, 231868, Note_on_c, 0, 81, 65
1, 231887, Note_on_c, 0, 33, 43
1, 231941, Note_on_c, 0, 83, 67
1, 231942, Note_on_c, 0, 31, 51
1, 231953, Note_on_c, 0, 33, 0
1, 231967, Note_on_c, 0, 81, 0
1, 232013, Note_on_c, 0, 31, 0
1, 232038, Note_on_c, 0, 36, 46
1, 232117, Note_on_c, 0, 36, 0
1, 232138, Note_on_c, 0, 35, 46
1, 232216, Note_on_c, 0, 35, 0
1, 232231, Note_on_c, 0, 33, 53
1, 232243, Note_on_c, 0, 83, 0
1, 232309, Note_on_c, 0, 33, 0
1, 232318, Note_on_c, 0, 31, 51
1, 232392, Note_on_c, 0, 31, 0
1, 232414, Note_on_c, 0, 36, 52
1, 232499, Note_on_c, 0, 36, 0
1, 232514, Note_on_c, 0, 35, 45
1, 232533, Note_on_c, 0, 74, 46
1, 232572, Note_on_c, 0, 74, 0
1, 232586, Note_on_c, 0, 35, 0
1, 232589, Note_on_c, 0, 76, 61
1, 232620, Note_on_c, 0, 33, 46
1, 232634, Note_on_c, 0, 78, 65
1, 232642, Note_on_c, 0, 76, 0
1, 232684, Note_on_c, 0, 33, 0
1, 232698, Note_on_c, 0, 31, 48
1, 232713, Note_on_c, 0, 79, 60
1, 232717, Note_on_c, 0, 78, 0
1, 232781, Note_on_c, 0, 31, 0
1, 232798, Note_on_c, 0, 36, 46
1, 232883, Note_on_c, 0, 36, 0
1, 232895, Note_on_c, 0, 35, 47
1, 232978, Note_on_c, 0, 35, 0
1, 232982, Note_on_c, 0, 79, 0
1, 232990, Note_on_c, 0, 33, 53
1, 233059, Note_on_c, 0, 31, 56
1, 233064, Note_on_c, 0, 33, 0
1, 233071, Control_c, 0, 67, 120
1, 233091, Control_c, 0, 67, 114
1, 233110, Control_c, 0, 67, 110
1, 233128, Control_c, 0, 67, 105
1, 233136, Note_on_c, 0, 31, 0
1, 233149, Control_c, 0, 67, 98
1, 233158, Note_on_c, 0, 36, 49
1, 233166, Control_c, 0, 67, 88
1, 233184, Control_c, 0, 67, 78
1, 233204, Control_c, 0, 67, 67
1, 233220, Control_c, 0, 67, 58
1, 233240, Control_c, 0, 67, 50
1, 233250, Note_on_c, 0, 79, 56
1, 233251, Note_on_c, 0, 36, 0
1, 233251, Note_on_c, 0, 35, 47
1, 233259, Control_c, 0, 67, 43
1, 233276, Control_c, 0, 67, 36
1, 233308, Control_c, 0, 67, 29
1, 233316, Note_on_c, 0, 79, 0
1, 233328, Control_c, 0, 67, 22
1, 233345, Note_on_c, 0, 81, 64
1, 233345, Control_c, 0, 67, 16
1, 233352, Note_on_c, 0, 35, 0
1, 233365, Control_c, 0, 67, 11
1, 233371, Note_on_c, 0, 33, 50
1, 233427, Note_on_c, 0, 83, 63
1, 233440, Note_on_c, 0, 31, 53
1, 233442, Note_on_c, 0, 81, 0
1, 233447, Note_on_c, 0, 33, 0
1, 233475, Control_c, 0, 67, 0
1, 233511, Note_on_c, 0, 31, 0
1, 233530, Note_on_c, 0, 36, 51
1, 233612, Note_on_c, 0, 36, 0
1, 233628, Note_on_c, 0, 35, 51
1, 233700, Note_on_c, 0, 83, 0
1, 233704, Note_on_c, 0, 35, 0
1, 233709, Note_on_c, 0, 33, 50
1, 233791, Note_on_c, 0, 31, 52
1, 233792, Note_on_c, 0, 33, 0
1, 233853, Note_on_c, 0, 31, 0
1, 233872, Note_on_c, 0, 36, 52
1, 233961, Note_on_c, 0, 36, 0
1, 233971, Note_on_c, 0, 35, 50
1, 233984, Note_on_c, 0, 79, 61
1, 234058, Note_on_c, 0, 35, 0
1, 234065, Note_on_c, 0, 81, 68
1, 234067, Note_on_c, 0, 79, 0
1, 234071, Note_on_c, 0, 33, 51
1, 234148, Note_on_c, 0, 83, 67
1, 234148, Note_on_c, 0, 31, 53
1, 234151, Note_on_c, 0, 33, 0
1, 234161, Note_on_c, 0, 81, 0
1, 234190, Note_on_c, 0, 83, 0
1, 234239, Note_on_c, 0, 31, 0
1, 234257, Note_on_c, 0, 36, 52
1, 234346, Note_on_c, 0, 36, 0
1, 234350, Note_on_c, 0, 35, 52
1, 234354, Note_on_c, 0, 83, 70
1, 234429, Note_on_c, 0, 35, 0
1, 234430, Note_on_c, 0, 84, 77
1, 234431, Note_on_c, 0, 83, 0
1, 234443, Note_on_c, 0, 33, 51
1, 234501, Note_on_c, 0, 86, 81
1, 234506, Note_on_c, 0, 31, 58
1, 234514, Note_on_c, 0, 84, 0
1, 234541, Note_on_c, 0, 33, 0
1, 234546, Note_on_c, 0, 86, 0
1, 234590, Note_on_c, 0, 31, 0
1, 234605, Note_on_c, 0, 36, 51
1, 234691, Note_on_c, 0, 36, 0
1, 234702, Note_on_c, 0, 35, 52
1, 234703, Note_on_c, 0, 86, 78
1, 234784, Note_on_c, 0, 35, 0
1, 234789, Note_on_c, 0, 88, 84
1, 234795, Note_on_c, 0, 86, 0
1, 234800, Note_on_c, 0, 33, 55
1, 234863, Note_on_c, 0, 89, 86
1, 234881, Note_on_c, 0, 31, 61
1, 234886, Note_on_c, 0, 33, 0
1, 234892, Note_on_c, 0, 88, 0
1, 234963, Note_on_c, 0, 31, 0
1, 234971, Note_on_c, 0, 36, 56
1, 235059, Note_on_c, 0, 35, 61
1, 235068, Note_on_c, 0, 36, 0
1, 235145, Note_on_c, 0, 35, 0
1, 235151, Note_on_c, 0, 33, 68
1, 235255, Note_on_c, 0, 31, 67
1, 235261, Note_on_c, 0, 89, 0
1, 235262, Note_on_c, 0, 33, 0
1, 235328, Note_on_c, 0, 31, 0
1, 235335, Note_on_c, 0, 36, 65
1, 235413, Note_on_c, 0, 35, 70
1, 235419, Note_on_c, 0, 36, 0
1, 235463, Note_on_c, 0, 86, 81
1, 235515, Note_on_c, 0, 33, 75
1, 235518, Note_on_c, 0, 35, 0
1, 235546, Note_on_c, 0, 88, 93
1, 235558, Note_on_c, 0, 86, 0
1, 235598, Note_on_c, 0, 31, 74
1, 235602, Note_on_c, 0, 33, 0
1, 235616, Note_on_c, 0, 89, 98
1, 235648, Note_on_c, 0, 88, 0
1, 235699, Note_on_c, 0, 37, 79
1, 235700, Note_on_c, 0, 31, 0
1, 235788, Note_on_c, 0, 35, 76
1, 235796, Note_on_c, 0, 37, 0
1, 235864, Note_on_c, 0, 33, 80
1, 235880, Control_c, 0, 64, 9
1, 235904, Note_on_c, 0, 35, 0
1, 235918, Control_c, 0, 64, 13
1, 235957, Note_on_c, 0, 89, 0
1, 235961, Note_on_c, 0, 31, 83
1, 235973, Control_c, 0, 64, 17
1, 235984, Note_on_c, 0, 33, 0
1, 236027, Control_c, 0, 64, 22
1, 236041, Note_on_c, 0, 37, 83
1, 236045, Note_on_c, 0, 31, 0
1, 236142, Note_on_c, 0, 35, 80
1, 236165, Note_on_c, 0, 37, 0
1, 236181, Note_on_c, 0, 86, 89
1, 236241, Note_on_c, 0, 33, 80
1, 236255, Note_on_c, 0, 88, 95
1, 236276, Note_on_c, 0, 86, 0
1, 236277, Note_on_c, 0, 35, 0
1, 236332, Note_on_c, 0, 89, 102
1, 236332, Note_on_c, 0, 31, 89
1, 236359, Note_on_c, 0, 33, 0
1, 236365, Note_on_c, 0, 88, 0
1, 236393, Note_on_c, 0, 89, 0
1, 236427, Note_on_c, 0, 38, 80
1, 236441, Note_on_c, 0, 31, 0
1, 236442, Note_on_c, 0, 36, 61
1, 236522, Note_on_c, 0, 35, 82
1, 236537, Note_on_c, 0, 38, 0
1, 236541, Note_on_c, 0, 86, 96
1, 236583, Note_on_c, 0, 36, 0
1, 236584, Poly_aftertouch_c, 0, 36, 0
1, 236619, Note_on_c, 0, 33, 87
1, 236621, Note_on_c, 0, 88, 97
1, 236643, Note_on_c, 0, 35, 0
1, 236647, Note_on_c, 0, 86, 0
1, 236690, Note_on_c, 0, 89, 101
1, 236698, Note_on_c, 0, 31, 87
1, 236719, Note_on_c, 0, 33, 0
1, 236720, Note_on_c, 0, 88, 0
1, 236746, Note_on_c, 0, 89, 0
1, 236781, Note_on_c, 0, 38, 84
1, 236794, Note_on_c, 0, 31, 0
1, 236866, Note_on_c, 0, 35, 79
1, 236883, Note_on_c, 0, 38, 0
1, 236889, Note_on_c, 0, 86, 97
1, 236969, Note_on_c, 0, 88, 97
1, 236973, Note_on_c, 0, 33, 87
1, 236993, Note_on_c, 0, 35, 0
1, 236998, Note_on_c, 0, 86, 0
1, 237057, Note_on_c, 0, 89, 101
1, 237067, Note_on_c, 0, 31, 89
1, 237087, Note_on_c, 0, 88, 0
1, 237090, Note_on_c, 0, 33, 0
1, 237117, Note_on_c, 0, 89, 0
1, 237153, Note_on_c, 0, 38, 84
1, 237160, Note_on_c, 0, 31, 0
1, 237242, Note_on_c, 0, 35, 81
1, 237254, Control_c, 0, 64, 26
1, 237256, Note_on_c, 0, 86, 93
1, 237260, Note_on_c, 0, 38, 0
1, 237328, Note_on_c, 0, 88, 93
1, 237338, Note_on_c, 0, 33, 87
1, 237353, Note_on_c, 0, 86, 0
1, 237364, Note_on_c, 0, 35, 0
1, 237364, Control_c, 0, 64, 30
1, 237398, Note_on_c, 0, 89, 98
1, 237418, Note_on_c, 0, 31, 85
1, 237420, Control_c, 0, 64, 35
1, 237426, Note_on_c, 0, 88, 0
1, 237434, Note_on_c, 0, 33, 0
1, 237450, Note_on_c, 0, 89, 0
1, 237477, Control_c, 0, 64, 40
1, 237508, Note_on_c, 0, 38, 76
1, 237512, Note_on_c, 0, 31, 0
1, 237588, Note_on_c, 0, 38, 0
1, 237590, Note_on_c, 0, 35, 62
1, 237612, Note_on_c, 0, 86, 93
1, 237623, Control_c, 0, 64, 42
1, 237628, Note_on_c, 0, 36, 23
1, 237629, Note_on_c, 0, 36, 0
1, 237642, Control_c, 0, 64, 45
1, 237660, Control_c, 0, 64, 48
1, 237668, Note_on_c, 0, 33, 80
1, 237681, Note_on_c, 0, 35, 0
1, 237684, Note_on_c, 0, 88, 92
1, 237699, Poly_aftertouch_c, 0, 36, 0
1, 237699, Control_c, 0, 64, 42
1, 237703, Note_on_c, 0, 86, 0
1, 237711, Note_on_c, 0, 33, 0
1, 237715, Control_c, 0, 64, 0
1, 237737, Note_on_c, 0, 88, 0
1, 237787, Note_on_c, 0, 31, 98
1, 237792, Note_on_c, 0, 89, 111
1, 237827, Control_c, 0, 64, 40
1, 237847, Control_c, 0, 64, 84
1, 237864, Control_c, 0, 64, 109
1, 237882, Control_c, 0, 64, 127
1, 237891, Note_on_c, 0, 88, 91
1, 237899, Note_on_c, 0, 33, 79
1, 237953, Note_on_c, 0, 89, 0
1, 237961, Note_on_c, 0, 31, 0
1, 237987, Note_on_c, 0, 86, 94
1, 238001, Note_on_c, 0, 35, 82
1, 238004, Note_on_c, 0, 88, 0
1, 238061, Note_on_c, 0, 33, 0
1, 238066, Note_on_c, 0, 86, 0
1, 238081, Note_on_c, 0, 36, 90
1, 238082, Note_on_c, 0, 84, 92
1, 238112, Note_on_c, 0, 35, 0
1, 238155, Note_on_c, 0, 84, 0
1, 238170, Note_on_c, 0, 83, 87
1, 238172, Note_on_c, 0, 38, 80
1, 238175, Note_on_c, 0, 36, 0
1, 238243, Note_on_c, 0, 83, 0
1, 238255, Note_on_c, 0, 84, 96
1, 238260, Note_on_c, 0, 36, 82
1, 238269, Note_on_c, 0, 38, 0
1, 238330, Note_on_c, 0, 35, 80
1, 238333, Note_on_c, 0, 86, 97
1, 238355, Note_on_c, 0, 36, 0
1, 238390, Note_on_c, 0, 33, 83
1, 238392, Note_on_c, 0, 84, 0
1, 238392, Control_c, 0, 64, 115
1, 238412, Control_c, 0, 64, 71
1, 238421, Note_on_c, 0, 88, 87
1, 238428, Note_on_c, 0, 86, 0
1, 238432, Note_on_c, 0, 35, 0
1, 238432, Control_c, 0, 64, 0
1, 238450, Note_on_c, 0, 33, 0
1, 238456, Note_on_c, 0, 88, 0
1, 238500, Note_on_c, 0, 31, 99
1, 238501, Note_on_c, 0, 89, 110
1, 238520, Control_c, 0, 64, 10
1, 238540, Control_c, 0, 64, 54
1, 238558, Control_c, 0, 64, 67
1, 238600, Note_on_c, 0, 88, 96
1, 238616, Note_on_c, 0, 33, 77
1, 238655, Note_on_c, 0, 31, 0
1, 238671, Note_on_c, 0, 89, 0
1, 238683, Note_on_c, 0, 86, 94
1, 238685, Control_c, 0, 64, 69
1, 238693, Note_on_c, 0, 35, 80
1, 238710, Note_on_c, 0, 88, 0
1, 238731, Note_on_c, 0, 33, 0
1, 238767, Note_on_c, 0, 36, 80
1, 238772, Note_on_c, 0, 84, 87
1, 238779, Note_on_c, 0, 86, 0
1, 238793, Note_on_c, 0, 35, 0
1, 238818, Control_c, 0, 64, 67
1, 238835, Control_c, 0, 64, 60
1, 238849, Note_on_c, 0, 36, 0
1, 238853, Control_c, 0, 64, 51
1, 238853, Note_on_c, 0, 38, 76
1, 238856, Note_on_c, 0, 83, 89
1, 238864, Note_on_c, 0, 84, 0
1, 238871, Control_c, 0, 64, 35
1, 238890, Control_c, 0, 64, 0
1, 238950, Note_on_c, 0, 83, 0
1, 238958, Note_on_c, 0, 38, 0
1, 238962, Note_on_c, 0, 36, 79
1, 238971, Note_on_c, 0, 84, 97
1, 239041, Note_on_c, 0, 35, 77
1, 239051, Note_on_c, 0, 86, 96
1, 239094, Note_on_c, 0, 36, 0
1, 239107, Note_on_c, 0, 33, 81
1, 239127, Note_on_c, 0, 35, 0
1, 239131, Note_on_c, 0, 84, 0
1, 239133, Note_on_c, 0, 88, 91
1, 239141, Note_on_c, 0, 86, 0
1, 239176, Note_on_c, 0, 33, 0
1, 239189, Note_on_c, 0, 88, 0
1, 239241, Note_on_c, 0, 89, 111
1, 239249, Note_on_c, 0, 31, 103
1, 239292, Control_c, 0, 64, 36
1, 239309, Control_c, 0, 64, 92
1, 239328, Control_c, 0, 64, 104
1, 239498, Note_on_c, 0, 33, 85
1, 239510, Note_on_c, 0, 88, 97
1, 239512, Control_c, 0, 64, 100
1, 239531, Note_on_c, 0, 31, 0
1, 239546, Note_on_c, 0, 89, 0
1, 239549, Control_c, 0, 64, 95
1, 239595, Note_on_c, 0, 35, 84
1, 239603, Note_on_c, 0, 86, 95
1, 239622, Control_c, 0, 64, 90
1, 239631, Note_on_c, 0, 33, 0
1, 239631, Note_on_c, 0, 88, 0
1, 239641, Control_c, 0, 64, 88
1, 239675, Note_on_c, 0, 36, 87
1, 239678, Control_c, 0, 64, 86
1, 239681, Note_on_c, 0, 84, 89
1, 239689, Note_on_c, 0, 35, 0
1, 239694, Note_on_c, 0, 86, 0
1, 239715, Control_c, 0, 64, 83
1, 239733, Control_c, 0, 64, 78
1, 239746, Note_on_c, 0, 84, 0
1, 239752, Control_c, 0, 64, 72
1, 239761, Note_on_c, 0, 38, 81
1, 239764, Note_on_c, 0, 36, 0
1, 239771, Control_c, 0, 64, 67
1, 239773, Note_on_c, 0, 83, 90
1, 239790, Control_c, 0, 64, 65
1, 239827, Control_c, 0, 64, 63
1, 239858, Control_c, 0, 64, 61
1, 239861, Note_on_c, 0, 38, 0
1, 239868, Note_on_c, 0, 40, 87
1, 239872, Note_on_c, 0, 81, 87
1, 239901, Note_on_c, 0, 83, 0
1, 239934, Control_c, 0, 64, 59
1, 239950, Note_on_c, 0, 41, 87
1, 239955, Note_on_c, 0, 79, 90
1, 239963, Note_on_c, 0, 40, 0
1, 239967, Note_on_c, 0, 81, 0
1, 240007, Control_c, 0, 64, 57
1, 240011, Note_on_c, 0, 79, 0
1, 240016, Note_on_c, 0, 43, 80
1, 240021, Note_on_c, 0, 41, 0
1, 240035, Note_on_c, 0, 77, 92
1, 240063, Control_c, 0, 64, 55
1, 240103, Note_on_c, 0, 43, 0
1, 240109, Note_on_c, 0, 45, 87
1, 240121, Note_on_c, 0, 76, 93
1, 240154, Control_c, 0, 64, 52
1, 240158, Note_on_c, 0, 77, 0
1, 240191, Control_c, 0, 64, 50
1, 240199, Note_on_c, 0, 47, 87
1, 240208, Note_on_c, 0, 74, 91
1, 240218, Note_on_c, 0, 76, 0
1, 240234, Note_on_c, 0, 45, 0
1, 240265, Control_c, 0, 64, 48
1, 240274, Note_on_c, 0, 74, 0
1, 240278, Note_on_c, 0, 48, 87
1, 240289, Note_on_c, 0, 47, 0
1, 240293, Note_on_c, 0, 72, 93
1, 240337, Control_c, 0, 64, 46
1, 240348, Note_on_c, 0, 48, 0
1, 240352, Note_on_c, 0, 50, 78
1, 240377, Note_on_c, 0, 71, 92
1, 240406, Note_on_c, 0, 72, 0
1, 240427, Note_on_c, 0, 50, 0
1, 240444, Note_on_c, 0, 52, 82
1, 240447, Control_c, 0, 64, 44
1, 240458, Note_on_c, 0, 69, 83
1, 240461, Note_on_c, 0, 71, 0
1, 240504, Control_c, 0, 64, 40
1, 240507, Note_on_c, 0, 69, 0
1, 240523, Control_c, 0, 64, 36
1, 240533, Note_on_c, 0, 53, 84
1, 240538, Note_on_c, 0, 52, 0
1, 240538, Note_on_c, 0, 67, 91
1, 240540, Control_c, 0, 64, 24
1, 240559, Control_c, 0, 64, 0
1, 240603, Note_on_c, 0, 53, 0
1, 240608, Note_on_c, 0, 55, 78
1, 240619, Note_on_c, 0, 65, 87
1, 240637, Note_on_c, 0, 67, 0
1, 240701, Note_on_c, 0, 48, 94
1, 240704, Note_on_c, 0, 64, 92
1, 240717, Note_on_c, 0, 65, 0
1, 240720, Note_on_c, 0, 55, 0
1, 240745, Control_c, 0, 64, 47
1, 240752, Note_on_c, 0, 48, 0
1, 240755, Note_on_c, 0, 64, 0
1, 240763, Control_c, 0, 64, 100
1, 240796, Control_c, 0, 64, 111
1, 240832, Control_c, 0, 67, 9
1, 240870, Control_c, 0, 67, 18
1, 240889, Control_c, 0, 67, 24
1, 240908, Control_c, 0, 67, 33
1, 240926, Control_c, 0, 67, 44
1, 240943, Control_c, 0, 67, 56
1, 240963, Control_c, 0, 64, 106
1, 240964, Control_c, 0, 67, 68
1, 240980, Control_c, 0, 64, 80
1, 240982, Control_c, 0, 67, 81
1, 240999, Control_c, 0, 64, 0
1, 241003, Control_c, 0, 67, 93
1, 241015, Control_c, 0, 67, 102
1, 241021, Note_on_c, 0, 52, 56
1, 241030, Note_on_c, 0, 48, 54
1, 241034, Control_c, 0, 67, 108
1, 241039, Note_on_c, 0, 36, 49
1, 241052, Control_c, 0, 67, 113
1, 241055, Note_on_c, 0, 43, 26
1, 241071, Note_on_c, 0, 52, 0
1, 241072, Control_c, 0, 67, 121
1, 241074, Note_on_c, 0, 48, 0
1, 241091, Note_on_c, 0, 36, 0
1, 241091, Control_c, 0, 67, 127
1, 241108, Note_on_c, 0, 43, 0
1, 241208, Note_on_c, 0, 48, 48
1, 241219, Note_on_c, 0, 36, 40
1, 241222, Note_on_c, 0, 43, 38
1, 241230, Note_on_c, 0, 52, 22
1, 241247, Note_on_c, 0, 48, 0
1, 241260, Note_on_c, 0, 36, 0
1, 241264, Note_on_c, 0, 43, 0
1, 241278, Note_on_c, 0, 52, 0
1, 241369, Note_on_c, 0, 43, 53
1, 241372, Note_on_c, 0, 48, 48
1, 241377, Note_on_c, 0, 36, 43
1, 241392, Note_on_c, 0, 52, 49
1, 241415, Note_on_c, 0, 43, 0
1, 241415, Note_on_c, 0, 48, 0
1, 241425, Note_on_c, 0, 36, 0
1, 241428, Note_on_c, 0, 52, 0
1, 241543, Note_on_c, 0, 52, 51
1, 241547, Note_on_c, 0, 48, 50
1, 241548, Note_on_c, 0, 43, 49
1, 241552, Note_on_c, 0, 36, 44
1, 241593, Note_on_c, 0, 52, 0
1, 241593, Note_on_c, 0, 43, 0
1, 241595, Note_on_c, 0, 48, 0
1, 241597, Note_on_c, 0, 36, 0
1, 241730, Note_on_c, 0, 43, 47
1, 241737, Note_on_c, 0, 52, 45
1, 241742, Note_on_c, 0, 36, 43
1, 241743, Note_on_c, 0, 48, 40
1, 241780, Note_on_c, 0, 43, 0
1, 241780, Note_on_c, 0, 52, 0
1, 241787, Note_on_c, 0, 48, 0
1, 241789, Note_on_c, 0, 36, 0
1, 241904, Note_on_c, 0, 48, 45
1, 241906, Note_on_c, 0, 52, 39
1, 241911, Note_on_c, 0, 43, 41
1, 241917, Note_on_c, 0, 36, 42
1, 241952, Note_on_c, 0, 48, 0
1, 241952, Note_on_c, 0, 52, 0
1, 241954, Note_on_c, 0, 43, 0
1, 241958, Note_on_c, 0, 36, 0
1, 242069, Note_on_c, 0, 52, 51
1, 242084, Note_on_c, 0, 48, 37
1, 242088, Note_on_c, 0, 43, 37
1, 242091, Note_on_c, 0, 36, 38
1, 242120, Note_on_c, 0, 52, 0
1, 242129, Note_on_c, 0, 48, 0
1, 242135, Note_on_c, 0, 43, 0
1, 242137, Note_on_c, 0, 36, 0
1, 242250, Note_on_c, 0, 48, 45
1, 242255, Note_on_c, 0, 52, 45
1, 242261, Note_on_c, 0, 43, 40
1, 242265, Note_on_c, 0, 36, 39
1, 242295, Note_on_c, 0, 52, 0
1, 242297, Note_on_c, 0, 48, 0
1, 242305, Note_on_c, 0, 43, 0
1, 242308, Note_on_c, 0, 36, 0
1, 242416, Note_on_c, 0, 52, 45
1, 242424, Note_on_c, 0, 43, 43
1, 242428, Note_on_c, 0, 48, 40
1, 242432, Note_on_c, 0, 36, 41
1, 242470, Note_on_c, 0, 52, 0
1, 242472, Note_on_c, 0, 43, 0
1, 242474, Note_on_c, 0, 48, 0
1, 242483, Note_on_c, 0, 36, 0
1, 242597, Note_on_c, 0, 52, 49
1, 242601, Note_on_c, 0, 48, 38
1, 242602, Note_on_c, 0, 43, 40
1, 242614, Note_on_c, 0, 36, 37
1, 242638, Note_on_c, 0, 52, 0
1, 242658, Note_on_c, 0, 48, 0
1, 242660, Note_on_c, 0, 43, 0
1, 242669, Note_on_c, 0, 36, 0
1, 242768, Note_on_c, 0, 52, 48
1, 242769, Note_on_c, 0, 48, 50
1, 242776, Note_on_c, 0, 43, 46
1, 242786, Note_on_c, 0, 36, 42
1, 242817, Note_on_c, 0, 52, 0
1, 242819, Note_on_c, 0, 48, 0
1, 242821, Note_on_c, 0, 43, 0
1, 242829, Note_on_c, 0, 36, 0
1, 242936, Note_on_c, 0, 48, 50
1, 242939, Note_on_c, 0, 43, 50
1, 242941, Note_on_c, 0, 52, 49
1, 242950, Note_on_c, 0, 36, 42
1, 242977, Note_on_c, 0, 48, 0
1, 242979, Note_on_c, 0, 43, 0
1, 242980, Note_on_c, 0, 52, 0
1, 242992, Note_on_c, 0, 36, 0
1, 243100, Note_on_c, 0, 52, 57
1, 243104, Note_on_c, 0, 48, 52
1, 243107, Note_on_c, 0, 43, 49
1, 243110, Note_on_c, 0, 36, 48
1, 243140, Note_on_c, 0, 48, 0
1, 243146, Note_on_c, 0, 52, 0
1, 243146, Note_on_c, 0, 43, 0
1, 243148, Note_on_c, 0, 36, 0
1, 243271, Note_on_c, 0, 54, 71
1, 243274, Note_on_c, 0, 36, 55
1, 243276, Note_on_c, 0, 50, 64
1, 243282, Note_on_c, 0, 45, 58
1, 243312, Note_on_c, 0, 45, 0
1, 243313, Note_on_c, 0, 36, 0
1, 243314, Note_on_c, 0, 50, 0
1, 243317, Note_on_c, 0, 54, 0
1, 243435, Note_on_c, 0, 45, 49
1, 243436, Note_on_c, 0, 54, 74
1, 243441, Note_on_c, 0, 36, 43
1, 243442, Note_on_c, 0, 50, 45
1, 243472, Note_on_c, 0, 45, 0
1, 243473, Note_on_c, 0, 54, 0
1, 243479, Note_on_c, 0, 50, 0
1, 243484, Note_on_c, 0, 36, 0
1, 243653, Note_on_c, 0, 55, 58
1, 243655, Note_on_c, 0, 43, 47
1, 243658, Note_on_c, 0, 35, 52
1, 243662, Note_on_c, 0, 50, 37
1, 243694, Note_on_c, 0, 43, 0
1, 243696, Note_on_c, 0, 35, 0
1, 243819, Note_on_c, 0, 43, 46
1, 243823, Note_on_c, 0, 35, 49
1, 243858, Note_on_c, 0, 43, 0
1, 243860, Note_on_c, 0, 35, 0
1, 243998, Note_on_c, 0, 43, 45
1, 244000, Note_on_c, 0, 35, 47
1, 244037, Note_on_c, 0, 43, 0
1, 244039, Note_on_c, 0, 35, 0
1, 244107, Note_on_c, 0, 50, 0
1, 244188, Note_on_c, 0, 35, 45
1, 244189, Note_on_c, 0, 43, 39
1, 244190, Note_on_c, 0, 55, 0
1, 244206, Note_on_c, 0, 59, 55
1, 244224, Note_on_c, 0, 35, 0
1, 244233, Note_on_c, 0, 43, 0
1, 244269, Note_on_c, 0, 59, 0
1, 244278, Note_on_c, 0, 57, 60
1, 244354, Note_on_c, 0, 43, 47
1, 244355, Note_on_c, 0, 35, 49
1, 244360, Note_on_c, 0, 57, 0
1, 244360, Note_on_c, 0, 55, 44
1, 244399, Note_on_c, 0, 35, 0
1, 244399, Note_on_c, 0, 43, 0
1, 244545, Note_on_c, 0, 43, 48
1, 244550, Note_on_c, 0, 35, 43
1, 244560, Note_on_c, 0, 55, 0
1, 244587, Note_on_c, 0, 43, 0
1, 244592, Note_on_c, 0, 35, 0
1, 244717, Note_on_c, 0, 43, 50
1, 244724, Note_on_c, 0, 35, 44
1, 244764, Note_on_c, 0, 43, 0
1, 244764, Note_on_c, 0, 35, 0
1, 244886, Note_on_c, 0, 43, 47
1, 244886, Note_on_c, 0, 35, 47
1, 244926, Note_on_c, 0, 35, 0
1, 244927, Note_on_c, 0, 43, 0
1, 245074, Note_on_c, 0, 43, 43
1, 245075, Note_on_c, 0, 35, 44
1, 245079, Note_on_c, 0, 85, 65
1, 245115, Note_on_c, 0, 35, 0
1, 245116, Note_on_c, 0, 43, 0
1, 245117, Note_on_c, 0, 86, 76
1, 245158, Note_on_c, 0, 85, 0
1, 245257, Note_on_c, 0, 43, 42
1, 245267, Note_on_c, 0, 35, 34
1, 245298, Note_on_c, 0, 43, 0
1, 245314, Note_on_c, 0, 35, 0
1, 245432, Note_on_c, 0, 43, 41
1, 245432, Note_on_c, 0, 35, 47
1, 245486, Note_on_c, 0, 35, 0
1, 245489, Note_on_c, 0, 43, 0
1, 245572, Note_on_c, 0, 84, 61
1, 245577, Note_on_c, 0, 86, 0
1, 245616, Note_on_c, 0, 43, 41
1, 245622, Note_on_c, 0, 35, 43
1, 245648, Note_on_c, 0, 83, 61
1, 245662, Note_on_c, 0, 43, 0
1, 245667, Note_on_c, 0, 35, 0
1, 245686, Note_on_c, 0, 84, 0
1, 245721, Note_on_c, 0, 83, 0
1, 245726, Note_on_c, 0, 81, 56
1, 245788, Note_on_c, 0, 43, 47
1, 245796, Note_on_c, 0, 35, 43
1, 245812, Note_on_c, 0, 81, 0
1, 245821, Note_on_c, 0, 79, 50
1, 245830, Note_on_c, 0, 43, 0
1, 245836, Note_on_c, 0, 35, 0
1, 245968, Note_on_c, 0, 43, 48
1, 245972, Note_on_c, 0, 35, 45
1, 246009, Note_on_c, 0, 43, 0
1, 246011, Note_on_c, 0, 35, 0
1, 246052, Note_on_c, 0, 79, 0
1, 246142, Note_on_c, 0, 43, 47
1, 246152, Note_on_c, 0, 35, 40
1, 246181, Note_on_c, 0, 43, 0
1, 246193, Note_on_c, 0, 35, 0
1, 246311, Note_on_c, 0, 35, 54
1, 246311, Note_on_c, 0, 43, 45
1, 246348, Note_on_c, 0, 35, 0
1, 246355, Note_on_c, 0, 43, 0
1, 246527, Note_on_c, 0, 41, 51
1, 246534, Note_on_c, 0, 46, 61
1, 246538, Note_on_c, 0, 34, 43
1, 246544, Note_on_c, 0, 50, 51
1, 246563, Note_on_c, 0, 41, 0
1, 246579, Note_on_c, 0, 34, 0
1, 246582, Note_on_c, 0, 46, 0
1, 246591, Note_on_c, 0, 50, 0
1, 246688, Note_on_c, 0, 34, 58
1, 246697, Note_on_c, 0, 50, 58
1, 246701, Note_on_c, 0, 41, 40
1, 246707, Note_on_c, 0, 46, 49
1, 246735, Note_on_c, 0, 34, 0
1, 246738, Note_on_c, 0, 41, 0
1, 246744, Note_on_c, 0, 46, 0
1, 246748, Note_on_c, 0, 50, 0
1, 246870, Note_on_c, 0, 46, 59
1, 246871, Note_on_c, 0, 34, 53
1, 246871, Note_on_c, 0, 41, 47
1, 246872, Note_on_c, 0, 50, 54
1, 246908, Note_on_c, 0, 41, 0
1, 246915, Note_on_c, 0, 34, 0
1, 246920, Note_on_c, 0, 50, 0
1, 246920, Note_on_c, 0, 46, 0
1, 247046, Note_on_c, 0, 50, 49
1, 247050, Note_on_c, 0, 46, 48
1, 247059, Note_on_c, 0, 34, 44
1, 247063, Note_on_c, 0, 41, 37
1, 247087, Note_on_c, 0, 46, 0
1, 247091, Note_on_c, 0, 50, 0
1, 247098, Note_on_c, 0, 34, 0
1, 247100, Note_on_c, 0, 41, 0
1, 247207, Note_on_c, 0, 50, 54
1, 247215, Note_on_c, 0, 46, 53
1, 247220, Note_on_c, 0, 34, 49
1, 247221, Note_on_c, 0, 41, 48
1, 247259, Note_on_c, 0, 41, 0
1, 247262, Note_on_c, 0, 46, 0
1, 247262, Note_on_c, 0, 50, 0
1, 247266, Note_on_c, 0, 34, 0
1, 247402, Note_on_c, 0, 50, 51
1, 247409, Note_on_c, 0, 46, 50
1, 247414, Note_on_c, 0, 34, 49
1, 247419, Note_on_c, 0, 41, 35
1, 247444, Note_on_c, 0, 46, 0
1, 247449, Note_on_c, 0, 50, 0
1, 247451, Note_on_c, 0, 34, 0
1, 247457, Note_on_c, 0, 41, 0
1, 247574, Note_on_c, 0, 50, 48
1, 247575, Note_on_c, 0, 34, 48
1, 247578, Note_on_c, 0, 46, 49
1, 247584, Note_on_c, 0, 41, 42
1, 247616, Note_on_c, 0, 34, 0
1, 247619, Note_on_c, 0, 50, 0
1, 247619, Note_on_c, 0, 46, 0
1, 247621, Note_on_c, 0, 41, 0
1, 247747, Note_on_c, 0, 34, 49
1, 247748, Note_on_c, 0, 50, 48
1, 247750, Note_on_c, 0, 46, 50
1, 247751, Note_on_c, 0, 41, 41
1, 247787, Note_on_c, 0, 34, 0
1, 247791, Note_on_c, 0, 46, 0
1, 247792, Note_on_c, 0, 41, 0
1, 247794, Note_on_c, 0, 50, 0
1, 247913, Note_on_c, 0, 34, 49
1, 247919, Note_on_c, 0, 41, 45
1, 247920, Note_on_c, 0, 50, 48
1, 247922, Note_on_c, 0, 46, 52
1, 247957, Note_on_c, 0, 34, 0
1, 247957, Note_on_c, 0, 41, 0
1, 247967, Note_on_c, 0, 50, 0
1, 247967, Note_on_c, 0, 46, 0
1, 248090, Note_on_c, 0, 50, 53
1, 248093, Note_on_c, 0, 34, 50
1, 248094, Note_on_c, 0, 41, 44
1, 248098, Note_on_c, 0, 46, 53
1, 248128, Note_on_c, 0, 41, 0
1, 248130, Note_on_c, 0, 34, 0
1, 248133, Note_on_c, 0, 46, 0
1, 248133, Note_on_c, 0, 50, 0
1, 248274, Note_on_c, 0, 34, 52
1, 248275, Note_on_c, 0, 41, 50
1, 248278, Note_on_c, 0, 46, 60
1, 248282, Note_on_c, 0, 50, 51
1, 248310, Note_on_c, 0, 41, 0
1, 248318, Note_on_c, 0, 34, 0
1, 248323, Note_on_c, 0, 46, 0
1, 248325, Note_on_c, 0, 50, 0
1, 248450, Note_on_c, 0, 46, 61
1, 248451, Note_on_c, 0, 41, 55
1, 248451, Note_on_c, 0, 50, 56
1, 248453, Note_on_c, 0, 34, 54
1, 248487, Note_on_c, 0, 41, 0
1, 248494, Note_on_c, 0, 34, 0
1, 248496, Note_on_c, 0, 46, 0
1, 248500, Note_on_c, 0, 50, 0
1, 248617, Note_on_c, 0, 50, 64
1, 248622, Note_on_c, 0, 46, 64
1, 248627, Note_on_c, 0, 34, 51
1, 248634, Note_on_c, 0, 41, 48
1, 248666, Note_on_c, 0, 34, 0
1, 248667, Note_on_c, 0, 46, 0
1, 248669, Note_on_c, 0, 41, 0
1, 248669, Note_on_c, 0, 50, 0
1, 248791, Note_on_c, 0, 41, 62
1, 248794, Note_on_c, 0, 34, 56
1, 248795, Note_on_c, 0, 50, 69
1, 248798, Note_on_c, 0, 46, 63
1, 248824, Note_on_c, 0, 41, 0
1, 248835, Note_on_c, 0, 34, 0
1, 248840, Note_on_c, 0, 46, 0
1, 248845, Note_on_c, 0, 50, 0
1, 248962, Note_on_c, 0, 48, 71
1, 248962, Note_on_c, 0, 52, 72
1, 248963, Note_on_c, 0, 34, 61
1, 248972, Note_on_c, 0, 43, 61
1, 249005, Note_on_c, 0, 48, 0
1, 249005, Note_on_c, 0, 34, 0
1, 249009, Note_on_c, 0, 43, 0
1, 249022, Note_on_c, 0, 52, 0
1, 249126, Note_on_c, 0, 34, 60
1, 249129, Note_on_c, 0, 48, 56
1, 249129, Note_on_c, 0, 52, 73
1, 249133, Note_on_c, 0, 43, 53
1, 249168, Note_on_c, 0, 48, 0
1, 249169, Note_on_c, 0, 52, 0
1, 249171, Note_on_c, 0, 43, 0
1, 249171, Note_on_c, 0, 34, 0
1, 249341, Note_on_c, 0, 53, 63
1, 249353, Note_on_c, 0, 41, 49
1, 249355, Note_on_c, 0, 48, 49
1, 249366, Note_on_c, 0, 33, 47
1, 249393, Note_on_c, 0, 41, 0
1, 249408, Note_on_c, 0, 33, 0
1, 249528, Note_on_c, 0, 33, 52
1, 249529, Note_on_c, 0, 41, 48
1, 249565, Note_on_c, 0, 41, 0
1, 249571, Note_on_c, 0, 33, 0
1, 249694, Note_on_c, 0, 41, 50
1, 249694, Note_on_c, 0, 33, 50
1, 249730, Note_on_c, 0, 41, 0
1, 249737, Note_on_c, 0, 33, 0
1, 249766, Note_on_c, 0, 48, 0
1, 249884, Note_on_c, 0, 33, 46
1, 249884, Note_on_c, 0, 41, 48
1, 249893, Note_on_c, 0, 53, 0
1, 249916, Note_on_c, 0, 57, 55
1, 249919, Note_on_c, 0, 41, 0
1, 249921, Note_on_c, 0, 33, 0
1, 249977, Note_on_c, 0, 57, 0
1, 249982, Note_on_c, 0, 55, 62
1, 250047, Note_on_c, 0, 33, 54
1, 250052, Note_on_c, 0, 41, 48
1, 250062, Note_on_c, 0, 55, 0
1, 250067, Note_on_c, 0, 53, 49
1, 250089, Note_on_c, 0, 41, 0
1, 250094, Note_on_c, 0, 33, 0
1, 250257, Note_on_c, 0, 33, 45
1, 250260, Note_on_c, 0, 41, 40
1, 250276, Note_on_c, 0, 53, 0
1, 250294, Note_on_c, 0, 33, 0
1, 250299, Note_on_c, 0, 41, 0
1, 250420, Note_on_c, 0, 33, 50
1, 250422, Note_on_c, 0, 41, 48
1, 250457, Note_on_c, 0, 41, 0
1, 250461, Note_on_c, 0, 33, 0
1, 250589, Note_on_c, 0, 33, 56
1, 250590, Note_on_c, 0, 41, 49
1, 250626, Note_on_c, 0, 41, 0
1, 250633, Note_on_c, 0, 33, 0
1, 250763, Note_on_c, 0, 83, 74
1, 250771, Note_on_c, 0, 41, 57
1, 250795, Note_on_c, 0, 32, 56
1, 250817, Note_on_c, 0, 41, 0
1, 250819, Note_on_c, 0, 84, 78
1, 250838, Note_on_c, 0, 32, 0
1, 250841, Note_on_c, 0, 83, 0
1, 250958, Note_on_c, 0, 32, 58
1, 250959, Note_on_c, 0, 41, 55
1, 250996, Note_on_c, 0, 41, 0
1, 251002, Note_on_c, 0, 32, 0
1, 251150, Note_on_c, 0, 41, 56
1, 251154, Note_on_c, 0, 32, 52
1, 251184, Note_on_c, 0, 41, 0
1, 251194, Note_on_c, 0, 32, 0
1, 251253, Note_on_c, 0, 84, 0
1, 251253, Note_on_c, 0, 82, 55
1, 251326, Note_on_c, 0, 80, 66
1, 251329, Note_on_c, 0, 32, 49
1, 251334, Note_on_c, 0, 41, 42
1, 251360, Note_on_c, 0, 82, 0
1, 251375, Note_on_c, 0, 32, 0
1, 251377, Note_on_c, 0, 41, 0
1, 251407, Note_on_c, 0, 80, 0
1, 251421, Note_on_c, 0, 79, 56
1, 251486, Note_on_c, 0, 79, 0
1, 251507, Note_on_c, 0, 32, 46
1, 251515, Note_on_c, 0, 41, 33
1, 251516, Note_on_c, 0, 77, 46
1, 251547, Note_on_c, 0, 32, 0
1, 251551, Note_on_c, 0, 41, 0
1, 251682, Note_on_c, 0, 32, 47
1, 251685, Note_on_c, 0, 41, 44
1, 251721, Note_on_c, 0, 41, 0
1, 251728, Note_on_c, 0, 32, 0
1, 251865, Note_on_c, 0, 32, 47
1, 251868, Note_on_c, 0, 41, 37
1, 251909, Note_on_c, 0, 32, 0
1, 251910, Note_on_c, 0, 41, 0
1, 251928, Note_on_c, 0, 77, 0
1, 251991, Control_c, 0, 64, 17
1, 252023, Control_c, 0, 64, 27
1, 252042, Control_c, 0, 64, 38
1, 252055, Note_on_c, 0, 32, 49
1, 252057, Note_on_c, 0, 41, 45
1, 252061, Control_c, 0, 64, 50
1, 252078, Control_c, 0, 64, 57
1, 252114, Control_c, 0, 64, 60
1, 252116, Note_on_c, 0, 41, 0
1, 252131, Note_on_c, 0, 32, 0
1, 252151, Control_c, 0, 64, 61
1, 252171, Control_c, 0, 64, 62
1, 252189, Control_c, 0, 64, 63
1, 252209, Control_c, 0, 64, 64
1, 252246, Control_c, 0, 64, 65
1, 252282, Control_c, 0, 64, 66
1, 252326, Note_on_c, 0, 88, 50
1, 252342, Note_on_c, 0, 41, 34
1, 252354, Control_c, 0, 64, 59
1, 252356, Note_on_c, 0, 31, 41
1, 252373, Control_c, 0, 64, 40
1, 252387, Note_on_c, 0, 88, 0
1, 252391, Control_c, 0, 64, 0
1, 252392, Note_on_c, 0, 89, 63
1, 252450, Note_on_c, 0, 31, 0
1, 252468, Note_on_c, 0, 41, 0
1, 252485, Control_c, 0, 64, 22
1, 252502, Control_c, 0, 64, 40
1, 252521, Control_c, 0, 64, 53
1, 252539, Control_c, 0, 64, 58
1, 252614, Note_on_c, 0, 31, 39
1, 252616, Note_on_c, 0, 41, 31
1, 252661, Note_on_c, 0, 41, 0
1, 252663, Note_on_c, 0, 31, 0
1, 252782, Note_on_c, 0, 41, 39
1, 252783, Note_on_c, 0, 31, 42
1, 252827, Note_on_c, 0, 41, 0
1, 252831, Note_on_c, 0, 31, 0
1, 252971, Note_on_c, 0, 31, 47
1, 252971, Note_on_c, 0, 41, 40
1, 253017, Note_on_c, 0, 41, 0
1, 253019, Note_on_c, 0, 31, 0
1, 253145, Note_on_c, 0, 31, 46
1, 253150, Note_on_c, 0, 41, 41
1, 253187, Note_on_c, 0, 41, 0
1, 253190, Note_on_c, 0, 31, 0
1, 253307, Note_on_c, 0, 31, 48
1, 253312, Note_on_c, 0, 41, 40
1, 253349, Note_on_c, 0, 41, 0
1, 253361, Note_on_c, 0, 89, 0
1, 253362, Note_on_c, 0, 31, 0
1, 253486, Note_on_c, 0, 41, 42
1, 253492, Note_on_c, 0, 89, 64
1, 253498, Note_on_c, 0, 32, 49
1, 253527, Note_on_c, 0, 41, 0
1, 253541, Note_on_c, 0, 32, 0
1, 253576, Note_on_c, 0, 87, 59
1, 253649, Note_on_c, 0, 41, 48
1, 253655, Note_on_c, 0, 86, 59
1, 253663, Note_on_c, 0, 32, 48
1, 253666, Note_on_c, 0, 89, 0
1, 253668, Note_on_c, 0, 87, 0
1, 253700, Note_on_c, 0, 41, 0
1, 253712, Note_on_c, 0, 32, 0
1, 253720, Note_on_c, 0, 86, 0
1, 253738, Note_on_c, 0, 84, 63
1, 253791, Note_on_c, 0, 84, 0
1, 253825, Note_on_c, 0, 83, 70
1, 253832, Note_on_c, 0, 41, 46
1, 253833, Note_on_c, 0, 31, 49
1, 253868, Note_on_c, 0, 41, 0
1, 253876, Note_on_c, 0, 31, 0
1, 253893, Note_on_c, 0, 83, 0
1, 253930, Note_on_c, 0, 84, 75
1, 253997, Note_on_c, 0, 31, 60
1, 253998, Note_on_c, 0, 41, 50
1, 254010, Note_on_c, 0, 84, 0
1, 254012, Note_on_c, 0, 86, 73
1, 254037, Note_on_c, 0, 41, 0
1, 254041, Control_c, 0, 64, 56
1, 254052, Note_on_c, 0, 31, 0
1, 254095, Note_on_c, 0, 86, 0
1, 254098, Note_on_c, 0, 87, 84
1, 254174, Note_on_c, 0, 41, 59
1, 254179, Note_on_c, 0, 87, 0
1, 254179, Note_on_c, 0, 89, 92
1, 254182, Note_on_c, 0, 32, 62
1, 254205, Note_on_c, 0, 41, 0
1, 254220, Note_on_c, 0, 32, 0
1, 254244, Control_c, 0, 67, 121
1, 254258, Note_on_c, 0, 87, 83
1, 254261, Control_c, 0, 67, 110
1, 254282, Control_c, 0, 67, 96
1, 254300, Control_c, 0, 67, 79
1, 254310, Note_on_c, 0, 89, 0
1, 254318, Control_c, 0, 67, 61
1, 254337, Control_c, 0, 67, 43
1, 254339, Note_on_c, 0, 86, 86
1, 254342, Note_on_c, 0, 32, 65
1, 254343, Note_on_c, 0, 41, 64
1, 254354, Control_c, 0, 67, 27
1, 254359, Note_on_c, 0, 87, 0
1, 254373, Control_c, 0, 67, 11
1, 254376, Note_on_c, 0, 41, 0
1, 254390, Note_on_c, 0, 32, 0
1, 254392, Control_c, 0, 67, 0
1, 254418, Note_on_c, 0, 84, 85
1, 254422, Note_on_c, 0, 86, 0
1, 254500, Note_on_c, 0, 41, 76
1, 254503, Note_on_c, 0, 83, 86
1, 254504, Note_on_c, 0, 31, 77
1, 254506, Note_on_c, 0, 84, 0
1, 254547, Note_on_c, 0, 41, 0
1, 254550, Note_on_c, 0, 31, 0
1, 254578, Note_on_c, 0, 83, 0
1, 254594, Note_on_c, 0, 84, 91
1, 254626, Poly_aftertouch_c, 0, 32, 0
1, 254658, Note_on_c, 0, 31, 78
1, 254662, Note_on_c, 0, 41, 79
1, 254672, Note_on_c, 0, 86, 96
1, 254685, Note_on_c, 0, 84, 0
1, 254705, Note_on_c, 0, 41, 0
1, 254712, Note_on_c, 0, 31, 0
1, 254761, Note_on_c, 0, 87, 93
1, 254768, Note_on_c, 0, 86, 0
1, 254843, Note_on_c, 0, 41, 87
1, 254849, Note_on_c, 0, 32, 85
1, 254861, Note_on_c, 0, 89, 103
1, 254870, Note_on_c, 0, 87, 0
1, 254876, Note_on_c, 0, 41, 0
1, 254887, Note_on_c, 0, 32, 0
1, 254902, Control_c, 0, 64, 58
1, 254941, Note_on_c, 0, 87, 93
1, 254959, Control_c, 0, 64, 60
1, 254977, Control_c, 0, 64, 61
1, 254989, Note_on_c, 0, 32, 84
1, 254995, Note_on_c, 0, 41, 78
1, 254997, Note_on_c, 0, 89, 0
1, 255033, Note_on_c, 0, 86, 91
1, 255034, Note_on_c, 0, 41, 0
1, 255052, Note_on_c, 0, 32, 0
1, 255055, Note_on_c, 0, 87, 0
1, 255070, Control_c, 0, 64, 62
1, 255098, Note_on_c, 0, 84, 83
1, 255104, Note_on_c, 0, 86, 0
1, 255105, Control_c, 0, 64, 59
1, 255125, Control_c, 0, 64, 38
1, 255143, Control_c, 0, 64, 0
1, 255188, Note_on_c, 0, 83, 92
1, 255193, Note_on_c, 0, 31, 87
1, 255197, Note_on_c, 0, 41, 87
1, 255207, Note_on_c, 0, 84, 0
1, 255236, Note_on_c, 0, 31, 0
1, 255236, Control_c, 0, 64, 26
1, 255241, Note_on_c, 0, 41, 0
1, 255254, Control_c, 0, 64, 60
1, 255274, Control_c, 0, 64, 75
1, 255280, Note_on_c, 0, 83, 0
1, 255289, Note_on_c, 0, 84, 99
1, 255290, Control_c, 0, 64, 82
1, 255309, Control_c, 0, 64, 85
1, 255327, Control_c, 0, 64, 87
1, 255338, Note_on_c, 0, 84, 0
1, 255365, Control_c, 0, 64, 92
1, 255378, Note_on_c, 0, 86, 96
1, 255400, Control_c, 0, 64, 97
1, 255458, Note_on_c, 0, 87, 97
1, 255468, Note_on_c, 0, 86, 0
1, 255514, Control_c, 0, 64, 73
1, 255530, Control_c, 0, 64, 0
1, 255556, Note_on_c, 0, 87, 0
1, 255558, Note_on_c, 0, 89, 105
1, 255565, Note_on_c, 0, 55, 102
1, 255577, Note_on_c, 0, 43, 84
1, 255659, Control_c, 0, 64, 49
1, 255660, Note_on_c, 0, 87, 97
1, 255678, Control_c, 0, 64, 72
1, 255696, Control_c, 0, 64, 74
1, 255710, Note_on_c, 0, 89, 0
1, 255764, Note_on_c, 0, 86, 91
1, 255784, Control_c, 0, 64, 77
1, 255793, Note_on_c, 0, 87, 0
1, 255843, Note_on_c, 0, 84, 84
1, 255850, Note_on_c, 0, 86, 0
1, 255905, Note_on_c, 0, 84, 0
1, 255932, Note_on_c, 0, 83, 91
1, 255936, Note_on_c, 0, 43, 0
1, 255968, Control_c, 0, 64, 75
1, 256021, Note_on_c, 0, 80, 87
1, 256035, Note_on_c, 0, 83, 0
1, 256088, Note_on_c, 0, 79, 86
1, 256101, Note_on_c, 0, 80, 0
1, 256115, Control_c, 0, 64, 73
1, 256153, Note_on_c, 0, 79, 0
1, 256185, Note_on_c, 0, 77, 89
1, 256226, Control_c, 0, 64, 71
1, 256228, Control_c, 0, 67, 8
1, 256262, Control_c, 0, 64, 69
1, 256266, Note_on_c, 0, 75, 87
1, 256282, Note_on_c, 0, 77, 0
1, 256301, Control_c, 0, 64, 68
1, 256310, Note_on_c, 0, 55, 0
1, 256335, Control_c, 0, 64, 67
1, 256335, Note_on_c, 0, 74, 83
1, 256343, Note_on_c, 0, 75, 0
1, 256355, Control_c, 0, 64, 66
1, 256373, Control_c, 0, 64, 65
1, 256381, Note_on_c, 0, 74, 0
1, 256411, Control_c, 0, 64, 63
1, 256430, Note_on_c, 0, 72, 93
1, 256430, Control_c, 0, 64, 61
1, 256449, Control_c, 0, 64, 60
1, 256460, Note_on_c, 0, 57, 92
1, 256465, Control_c, 0, 64, 58
1, 256503, Control_c, 0, 64, 55
1, 256509, Note_on_c, 0, 72, 0
1, 256517, Note_on_c, 0, 71, 94
1, 256532, Note_on_c, 0, 57, 0
1, 256538, Control_c, 0, 64, 50
1, 256538, Note_on_c, 0, 59, 87
1, 256557, Control_c, 0, 64, 48
1, 256594, Note_on_c, 0, 72, 98
1, 256594, Control_c, 0, 64, 46
1, 256608, Note_on_c, 0, 60, 96
1, 256616, Note_on_c, 0, 71, 0
1, 256625, Note_on_c, 0, 59, 0
1, 256632, Control_c, 0, 64, 43
1, 256637, Note_on_c, 0, 72, 0
1, 256651, Control_c, 0, 64, 40
1, 256656, Note_on_c, 0, 60, 0
1, 256669, Control_c, 0, 64, 32
1, 256701, Control_c, 0, 64, 26
1, 256702, Control_c, 0, 67, 0
1, 256971, Note_on_c, 0, 55, 88
1, 256974, Note_on_c, 0, 67, 93
1, 256975, Note_on_c, 0, 43, 81
1, 257007, Note_on_c, 0, 55, 0
1, 257013, Note_on_c, 0, 43, 0
1, 257034, Note_on_c, 0, 67, 0
1, 257331, Note_on_c, 0, 63, 89
1, 257341, Note_on_c, 0, 51, 80
1, 257344, Note_on_c, 0, 39, 76
1, 257377, Note_on_c, 0, 51, 0
1, 257391, Note_on_c, 0, 39, 0
1, 257394, Note_on_c, 0, 63, 0
1, 257741, Note_on_c, 0, 60, 73
1, 257755, Note_on_c, 0, 36, 58
1, 257762, Note_on_c, 0, 48, 53
1, 257822, Control_c, 0, 67, 8
1, 257835, Note_on_c, 0, 36, 0
1, 257835, Note_on_c, 0, 48, 0
1, 257862, Note_on_c, 0, 60, 0
1, 257895, Control_c, 0, 67, 14
1, 257914, Control_c, 0, 67, 18
1, 257932, Control_c, 0, 67, 23
1, 257950, Control_c, 0, 67, 29
1, 257968, Control_c, 0, 67, 35
1, 257987, Control_c, 0, 67, 42
1, 258005, Control_c, 0, 67, 51
1, 258025, Control_c, 0, 67, 58
1, 258044, Control_c, 0, 67, 65
1, 258061, Control_c, 0, 67, 70
1, 258080, Control_c, 0, 67, 78
1, 258097, Control_c, 0, 67, 88
1, 258116, Control_c, 0, 67, 98
1, 258134, Control_c, 0, 67, 106
1, 258153, Control_c, 0, 67, 113
1, 258172, Control_c, 0, 67, 118
1, 258189, Control_c, 0, 67, 124
1, 258368, Note_on_c, 0, 56, 41
1, 258388, Note_on_c, 0, 44, 35
1, 258388, Note_on_c, 0, 32, 45
1, 258757, Control_c, 0, 64, 32
1, 258794, Control_c, 0, 64, 39
1, 258812, Control_c, 0, 64, 43
1, 258830, Control_c, 0, 64, 49
1, 258849, Control_c, 0, 64, 56
1, 258867, Control_c, 0, 64, 59
1, 258885, Control_c, 0, 64, 60
1, 258922, Control_c, 0, 64, 62
1, 258940, Control_c, 0, 64, 63
1, 258960, Control_c, 0, 64, 64
1, 258978, Control_c, 0, 64, 66
1, 258997, Control_c, 0, 64, 67
1, 259033, Control_c, 0, 64, 70
1, 259070, Control_c, 0, 64, 72
1, 259094, Poly_aftertouch_c, 0, 44, 24
1, 259108, Control_c, 0, 64, 74
1, 259143, Control_c, 0, 64, 78
1, 259162, Control_c, 0, 64, 81
1, 259175, Note_on_c, 0, 44, 0
1, 259175, Poly_aftertouch_c, 0, 44, 0
1, 259199, Control_c, 0, 64, 83
1, 259236, Control_c, 0, 64, 85
1, 259290, Control_c, 0, 64, 88
1, 259419, Control_c, 0, 64, 92
1, 259638, Control_c, 0, 64, 96
1, 259737, Poly_aftertouch_c, 0, 32, 24
1, 259814, Note_on_c, 0, 32, 0
1, 259814, Poly_aftertouch_c, 0, 32, 0
1, 259858, Control_c, 0, 64, 100
1, 260048, Poly_aftertouch_c, 0, 56, 20
1, 260049, Note_on_c, 0, 56, 0
1, 260049, Poly_aftertouch_c, 0, 56, 0
1, 261200, Control_c, 0, 64, 104
1, 261412, Note_on_c, 0, 73, 60
1, 261423, Note_on_c, 0, 61, 49
1, 261436, Control_c, 0, 64, 86
1, 261454, Control_c, 0, 64, 41
1, 261455, Note_on_c, 0, 73, 0
1, 261470, Note_on_c, 0, 61, 0
1, 261470, Control_c, 0, 64, 0
1, 261814, Note_on_c, 0, 68, 55
1, 261823, Note_on_c, 0, 56, 46
1, 261862, Note_on_c, 0, 68, 0
1, 261876, Note_on_c, 0, 56, 0
1, 262186, Note_on_c, 0, 65, 46
1, 262216, Note_on_c, 0, 53, 41
1, 262252, Note_on_c, 0, 65, 0
1, 262263, Note_on_c, 0, 53, 0
1, 262622, Note_on_c, 0, 61, 36
1, 262630, Note_on_c, 0, 49, 35
1, 262692, Note_on_c, 0, 49, 0
1, 262711, Note_on_c, 0, 61, 0
1, 263088, Control_c, 0, 64, 8
1, 263105, Control_c, 0, 64, 24
1, 263125, Control_c, 0, 64, 37
1, 263143, Control_c, 0, 64, 51
1, 263163, Control_c, 0, 64, 59
1, 263180, Control_c, 0, 64, 60
1, 263218, Control_c, 0, 64, 61
1, 263237, Control_c, 0, 64, 63
1, 263268, Control_c, 0, 64, 65
1, 263288, Control_c, 0, 64, 67
1, 263306, Control_c, 0, 64, 69
1, 263341, Control_c, 0, 64, 71
1, 263380, Control_c, 0, 64, 73
1, 263408, Note_on_c, 0, 34, 31
1, 263409, Note_on_c, 0, 58, 36
1, 263413, Note_on_c, 0, 46, 34
1, 263414, Control_c, 0, 64, 76
1, 263453, Control_c, 0, 64, 79
1, 263490, Control_c, 0, 64, 82
1, 263509, Control_c, 0, 64, 85
1, 263529, Control_c, 0, 64, 87
1, 263600, Control_c, 0, 64, 91
1, 263804, Control_c, 0, 64, 95
1, 264164, Poly_aftertouch_c, 0, 46, 24
1, 264225, Note_on_c, 0, 46, 0
1, 264225, Poly_aftertouch_c, 0, 46, 0
1, 264388, Control_c, 0, 64, 99
1, 264468, Poly_aftertouch_c, 0, 34, 24
1, 264683, Control_c, 0, 64, 104
1, 264919, Poly_aftertouch_c, 0, 34, 22
1, 264949, Note_on_c, 0, 34, 0
1, 264949, Poly_aftertouch_c, 0, 34, 0
1, 265054, Poly_aftertouch_c, 0, 58, 24
1, 265069, Control_c, 0, 64, 108
1, 265107, Note_on_c, 0, 58, 0
1, 265107, Poly_aftertouch_c, 0, 58, 0
1, 265895, Control_c, 0, 64, 112
1, 265954, Note_on_c, 0, 63, 64
1, 265967, Control_c, 0, 64, 105
1, 265986, Note_on_c, 0, 63, 0
1, 265986, Control_c, 0, 64, 74
1, 266005, Control_c, 0, 64, 0
1, 266072, Note_on_c, 0, 67, 35
1, 266136, Note_on_c, 0, 67, 0
1, 266160, Note_on_c, 0, 70, 44
1, 266228, Note_on_c, 0, 70, 0
1, 266243, Note_on_c, 0, 75, 48
1, 266293, Note_on_c, 0, 75, 0
1, 266337, Note_on_c, 0, 58, 63
1, 266366, Note_on_c, 0, 58, 0
1, 266428, Note_on_c, 0, 67, 34
1, 266511, Note_on_c, 0, 70, 44
1, 266557, Note_on_c, 0, 67, 0
1, 266600, Note_on_c, 0, 70, 0
1, 266604, Note_on_c, 0, 75, 47
1, 266656, Note_on_c, 0, 75, 0
1, 266698, Note_on_c, 0, 55, 56
1, 266736, Note_on_c, 0, 55, 0
1, 266787, Note_on_c, 0, 67, 39
1, 266859, Note_on_c, 0, 67, 0
1, 266880, Note_on_c, 0, 70, 47
1, 266946, Note_on_c, 0, 70, 0
1, 266980, Note_on_c, 0, 75, 39
1, 267042, Note_on_c, 0, 75, 0
1, 267075, Note_on_c, 0, 51, 55
1, 267114, Note_on_c, 0, 51, 0
1, 267172, Note_on_c, 0, 67, 38
1, 267243, Note_on_c, 0, 70, 48
1, 267282, Note_on_c, 0, 67, 0
1, 267346, Note_on_c, 0, 70, 0
1, 267354, Note_on_c, 0, 75, 45
1, 267401, Note_on_c, 0, 75, 0
1, 267424, Note_on_c, 0, 53, 63
1, 267461, Note_on_c, 0, 53, 0
1, 267503, Note_on_c, 0, 65, 48
1, 267594, Note_on_c, 0, 65, 0
1, 267599, Note_on_c, 0, 68, 45
1, 267656, Note_on_c, 0, 68, 0
1, 267668, Note_on_c, 0, 75, 51
1, 267740, Note_on_c, 0, 75, 0
1, 267778, Note_on_c, 0, 56, 66
1, 267810, Note_on_c, 0, 56, 0
1, 267870, Note_on_c, 0, 65, 30
1, 267956, Note_on_c, 0, 71, 54
1, 268014, Note_on_c, 0, 65, 0
1, 268044, Note_on_c, 0, 71, 0
1, 268061, Note_on_c, 0, 74, 53
1, 268105, Note_on_c, 0, 74, 0
1, 268133, Note_on_c, 0, 57, 65
1, 268166, Note_on_c, 0, 57, 0
1, 268233, Note_on_c, 0, 63, 47
1, 268308, Note_on_c, 0, 63, 0
1, 268322, Note_on_c, 0, 66, 48
1, 268398, Note_on_c, 0, 66, 0
1, 268399, Note_on_c, 0, 74, 54
1, 268460, Note_on_c, 0, 74, 0
1, 268479, Note_on_c, 0, 54, 65
1, 268512, Note_on_c, 0, 54, 0
1, 268577, Note_on_c, 0, 63, 43
1, 268653, Note_on_c, 0, 69, 51
1, 268661, Note_on_c, 0, 63, 0
1, 268738, Note_on_c, 0, 69, 0
1, 268759, Note_on_c, 0, 72, 51
1, 268825, Note_on_c, 0, 72, 0
1, 268833, Note_on_c, 0, 55, 63
1, 268882, Note_on_c, 0, 55, 0
1, 268936, Note_on_c, 0, 62, 50
1, 269028, Note_on_c, 0, 67, 48
1, 269032, Note_on_c, 0, 62, 0
1, 269109, Note_on_c, 0, 67, 0
1, 269134, Note_on_c, 0, 72, 51
1, 269182, Note_on_c, 0, 72, 0
1, 269211, Note_on_c, 0, 54, 57
1, 269246, Note_on_c, 0, 54, 0
1, 269306, Note_on_c, 0, 62, 51
1, 269396, Note_on_c, 0, 67, 47
1, 269460, Note_on_c, 0, 62, 0
1, 269463, Note_on_c, 0, 67, 0
1, 269481, Note_on_c, 0, 72, 43
1, 269557, Note_on_c, 0, 55, 58
1, 269570, Note_on_c, 0, 72, 0
1, 269598, Note_on_c, 0, 55, 0
1, 269655, Note_on_c, 0, 62, 47
1, 269723, Note_on_c, 0, 67, 55
1, 269746, Note_on_c, 0, 62, 0
1, 269788, Note_on_c, 0, 67, 0
1, 269842, Note_on_c, 0, 71, 50
1, 269875, Control_c, 0, 67, 111
1, 269891, Note_on_c, 0, 71, 0
1, 269891, Control_c, 0, 67, 87
1, 269905, Note_on_c, 0, 43, 61
1, 269909, Control_c, 0, 67, 55
1, 269929, Control_c, 0, 67, 13
1, 269945, Note_on_c, 0, 43, 0
1, 269947, Control_c, 0, 67, 0
1, 269993, Note_on_c, 0, 62, 51
1, 270060, Note_on_c, 0, 62, 0
1, 270072, Note_on_c, 0, 65, 55
1, 270126, Note_on_c, 0, 65, 0
1, 270163, Note_on_c, 0, 71, 62
1, 270229, Note_on_c, 0, 36, 83
1, 270231, Note_on_c, 0, 71, 0
1, 270233, Note_on_c, 0, 48, 86
1, 270237, Note_on_c, 0, 72, 92
1, 270247, Note_on_c, 0, 64, 81
1, 270257, Note_on_c, 0, 36, 0
1, 270263, Note_on_c, 0, 48, 0
1, 270276, Note_on_c, 0, 72, 0
1, 270276, Note_on_c, 0, 64, 0
1, 270279, Control_c, 0, 64, 41
1, 270297, Control_c, 0, 64, 127
1, 270424, Note_on_c, 0, 48, 41
1, 270438, Poly_aftertouch_c, 0, 36, 0
1, 270441, Note_on_c, 0, 64, 61
1, 270500, Note_on_c, 0, 48, 0
1, 270518, Control_c, 0, 64, 123
1, 270519, Control_c, 0, 67, 8
1, 270522, Note_on_c, 0, 60, 68
1, 270524, Note_on_c, 0, 64, 0
1, 270533, Note_on_c, 0, 55, 54
1, 270536, Control_c, 0, 64, 67
1, 270538, Control_c, 0, 67, 16
1, 270557, Control_c, 0, 64, 0
1, 270559, Control_c, 0, 67, 32
1, 270572, Control_c, 0, 67, 55
1, 270576, Note_on_c, 0, 60, 0
1, 270590, Note_on_c, 0, 55, 0
1, 270592, Control_c, 0, 67, 76
1, 270609, Control_c, 0, 67, 90
1, 270616, Note_on_c, 0, 48, 51
1, 270627, Control_c, 0, 67, 101
1, 270637, Note_on_c, 0, 64, 51
1, 270648, Control_c, 0, 67, 113
1, 270663, Note_on_c, 0, 48, 0
1, 270665, Control_c, 0, 67, 127
1, 270674, Note_on_c, 0, 64, 0
1, 270707, Note_on_c, 0, 55, 54
1, 270758, Note_on_c, 0, 60, 30
1, 270793, Note_on_c, 0, 55, 0
1, 270796, Note_on_c, 0, 48, 55
1, 270801, Note_on_c, 0, 64, 58
1, 270809, Note_on_c, 0, 60, 0
1, 270846, Note_on_c, 0, 48, 0
1, 270866, Note_on_c, 0, 64, 0
1, 270912, Note_on_c, 0, 55, 42
1, 270912, Note_on_c, 0, 60, 50
1, 270958, Note_on_c, 0, 60, 0
1, 270969, Note_on_c, 0, 55, 0
1, 270973, Note_on_c, 0, 48, 51
1, 271000, Note_on_c, 0, 64, 60
1, 271021, Note_on_c, 0, 48, 0
1, 271041, Note_on_c, 0, 64, 0
1, 271075, Note_on_c, 0, 60, 52
1, 271106, Note_on_c, 0, 55, 12
1, 271130, Note_on_c, 0, 60, 0
1, 271152, Note_on_c, 0, 64, 58
1, 271153, Note_on_c, 0, 48, 50
1, 271181, Note_on_c, 0, 55, 0
1, 271203, Note_on_c, 0, 48, 0
1, 271207, Note_on_c, 0, 64, 0
1, 271249, Note_on_c, 0, 60, 55
1, 271292, Note_on_c, 0, 55, 25
1, 271303, Note_on_c, 0, 60, 0
1, 271335, Note_on_c, 0, 48, 47
1, 271339, Note_on_c, 0, 64, 60
1, 271344, Note_on_c, 0, 55, 0
1, 271379, Note_on_c, 0, 64, 0
1, 271381, Note_on_c, 0, 48, 0
1, 271413, Note_on_c, 0, 60, 58
1, 271443, Note_on_c, 0, 55, 50
1, 271473, Note_on_c, 0, 60, 0
1, 271493, Note_on_c, 0, 64, 62
1, 271499, Note_on_c, 0, 55, 0
1, 271515, Note_on_c, 0, 48, 49
1, 271555, Note_on_c, 0, 64, 0
1, 271566, Note_on_c, 0, 48, 0
1, 271591, Note_on_c, 0, 60, 55
1, 271605, Note_on_c, 0, 55, 59
1, 271645, Note_on_c, 0, 60, 0
1, 271692, Note_on_c, 0, 55, 0
1, 271698, Note_on_c, 0, 48, 57
1, 271702, Note_on_c, 0, 64, 60
1, 271744, Note_on_c, 0, 48, 0
1, 271745, Note_on_c, 0, 64, 0
1, 271767, Note_on_c, 0, 60, 58
1, 271781, Note_on_c, 0, 55, 55
1, 271826, Note_on_c, 0, 60, 0
1, 271849, Note_on_c, 0, 55, 0
1, 271856, Note_on_c, 0, 64, 56
1, 271857, Note_on_c, 0, 48, 56
1, 271907, Note_on_c, 0, 48, 0
1, 271911, Note_on_c, 0, 64, 0
1, 271942, Note_on_c, 0, 55, 61
1, 271953, Note_on_c, 0, 60, 55
1, 272004, Note_on_c, 0, 60, 0
1, 272018, Note_on_c, 0, 55, 0
1, 272020, Note_on_c, 0, 48, 57
1, 272042, Note_on_c, 0, 64, 63
1, 272072, Note_on_c, 0, 48, 0
1, 272083, Note_on_c, 0, 64, 0
1, 272114, Note_on_c, 0, 55, 52
1, 272114, Note_on_c, 0, 60, 61
1, 272172, Note_on_c, 0, 60, 0
1, 272183, Note_on_c, 0, 55, 0
1, 272186, Note_on_c, 0, 48, 59
1, 272196, Note_on_c, 0, 64, 68
1, 272238, Note_on_c, 0, 48, 0
1, 272258, Note_on_c, 0, 64, 0
1, 272275, Note_on_c, 0, 55, 56
1, 272284, Note_on_c, 0, 60, 60
1, 272339, Note_on_c, 0, 60, 0
1, 272354, Note_on_c, 0, 55, 0
1, 272355, Note_on_c, 0, 48, 57
1, 272363, Note_on_c, 0, 64, 72
1, 272407, Note_on_c, 0, 48, 0
1, 272421, Note_on_c, 0, 64, 0
1, 272444, Note_on_c, 0, 60, 66
1, 272446, Note_on_c, 0, 55, 52
1, 272501, Note_on_c, 0, 60, 0
1, 272515, Note_on_c, 0, 55, 0
1, 272519, Note_on_c, 0, 48, 59
1, 272523, Note_on_c, 0, 64, 72
1, 272571, Note_on_c, 0, 48, 0
1, 272582, Note_on_c, 0, 64, 0
1, 272623, Note_on_c, 0, 60, 68
1, 272626, Note_on_c, 0, 55, 60
1, 272678, Note_on_c, 0, 60, 0
1, 272680, Note_on_c, 0, 55, 0
1, 272707, Note_on_c, 0, 48, 60
1, 272713, Note_on_c, 0, 66, 76
1, 272753, Note_on_c, 0, 48, 0
1, 272753, Note_on_c, 0, 66, 0
1, 272786, Note_on_c, 0, 62, 72
1, 272792, Note_on_c, 0, 57, 59
1, 272839, Note_on_c, 0, 62, 0
1, 272841, Note_on_c, 0, 57, 0
1, 272874, Note_on_c, 0, 48, 53
1, 272876, Note_on_c, 0, 66, 76
1, 272918, Note_on_c, 0, 48, 0
1, 272939, Note_on_c, 0, 66, 0
1, 272945, Note_on_c, 0, 57, 57
1, 272958, Note_on_c, 0, 62, 70
1, 272994, Note_on_c, 0, 57, 0
1, 273043, Note_on_c, 0, 62, 0
1, 273050, Note_on_c, 0, 67, 73
1, 273054, Note_on_c, 0, 50, 55
1, 273057, Note_on_c, 0, 47, 52
1, 273109, Note_on_c, 0, 47, 0
1, 273116, Note_on_c, 0, 50, 0
1, 273147, Note_on_c, 0, 55, 53
1, 273221, Note_on_c, 0, 55, 0
1, 273238, Note_on_c, 0, 47, 44
1, 273260, Note_on_c, 0, 50, 47
1, 273281, Note_on_c, 0, 47, 0
1, 273297, Note_on_c, 0, 50, 0
1, 273335, Note_on_c, 0, 55, 47
1, 273415, Note_on_c, 0, 55, 0
1, 273417, Note_on_c, 0, 50, 48
1, 273424, Note_on_c, 0, 47, 39
1, 273466, Note_on_c, 0, 47, 0
1, 273477, Note_on_c, 0, 50, 0
1, 273516, Note_on_c, 0, 55, 48
1, 273611, Note_on_c, 0, 67, 0
1, 273622, Note_on_c, 0, 47, 45
1, 273629, Note_on_c, 0, 55, 0
1, 273638, Note_on_c, 0, 71, 58
1, 273644, Note_on_c, 0, 50, 34
1, 273677, Note_on_c, 0, 47, 0
1, 273688, Note_on_c, 0, 50, 0
1, 273701, Note_on_c, 0, 71, 0
1, 273713, Note_on_c, 0, 69, 63
1, 273734, Note_on_c, 0, 55, 42
1, 273790, Note_on_c, 0, 69, 0
1, 273804, Note_on_c, 0, 47, 45
1, 273809, Note_on_c, 0, 67, 47
1, 273810, Note_on_c, 0, 55, 0
1, 273810, Note_on_c, 0, 50, 43
1, 273855, Note_on_c, 0, 47, 0
1, 273864, Note_on_c, 0, 50, 0
1, 273909, Note_on_c, 0, 55, 41
1, 273981, Note_on_c, 0, 47, 42
1, 273984, Note_on_c, 0, 55, 0
1, 273987, Note_on_c, 0, 50, 48
1, 274030, Note_on_c, 0, 47, 0
1, 274036, Note_on_c, 0, 50, 0
1, 274036, Note_on_c, 0, 67, 0
1, 274086, Note_on_c, 0, 55, 47
1, 274155, Note_on_c, 0, 47, 46
1, 274157, Note_on_c, 0, 55, 0
1, 274159, Note_on_c, 0, 50, 51
1, 274203, Note_on_c, 0, 47, 0
1, 274208, Note_on_c, 0, 50, 0
1, 274275, Note_on_c, 0, 55, 43
1, 274328, Note_on_c, 0, 50, 55
1, 274331, Note_on_c, 0, 47, 48
1, 274332, Note_on_c, 0, 55, 0
1, 274370, Note_on_c, 0, 47, 0
1, 274376, Note_on_c, 0, 50, 0
1, 274424, Note_on_c, 0, 55, 53
1, 274508, Note_on_c, 0, 47, 51
1, 274511, Note_on_c, 0, 50, 53
1, 274512, Note_on_c, 0, 85, 74
1, 274513, Note_on_c, 0, 55, 0
1, 274552, Note_on_c, 0, 47, 0
1, 274553, Note_on_c, 0, 86, 84
1, 274559, Note_on_c, 0, 50, 0
1, 274598, Note_on_c, 0, 85, 0
1, 274602, Note_on_c, 0, 55, 56
1, 274679, Note_on_c, 0, 47, 50
1, 274683, Note_on_c, 0, 50, 51
1, 274685, Note_on_c, 0, 55, 0
1, 274724, Note_on_c, 0, 47, 0
1, 274732, Note_on_c, 0, 50, 0
1, 274790, Note_on_c, 0, 55, 40
1, 274849, Note_on_c, 0, 55, 0
1, 274856, Note_on_c, 0, 50, 51
1, 274857, Note_on_c, 0, 47, 45
1, 274896, Note_on_c, 0, 47, 0
1, 274905, Note_on_c, 0, 50, 0
1, 274962, Note_on_c, 0, 55, 53
1, 274970, Note_on_c, 0, 84, 62
1, 274980, Note_on_c, 0, 86, 0
1, 275025, Note_on_c, 0, 55, 0
1, 275029, Note_on_c, 0, 50, 52
1, 275031, Note_on_c, 0, 47, 42
1, 275060, Note_on_c, 0, 83, 65
1, 275075, Note_on_c, 0, 84, 0
1, 275078, Note_on_c, 0, 47, 0
1, 275085, Note_on_c, 0, 50, 0
1, 275121, Note_on_c, 0, 83, 0
1, 275136, Note_on_c, 0, 81, 58
1, 275146, Note_on_c, 0, 55, 47
1, 275200, Note_on_c, 0, 47, 46
1, 275203, Note_on_c, 0, 50, 52
1, 275207, Note_on_c, 0, 55, 0
1, 275208, Note_on_c, 0, 81, 0
1, 275237, Note_on_c, 0, 79, 44
1, 275249, Note_on_c, 0, 47, 0
1, 275253, Note_on_c, 0, 50, 0
1, 275312, Note_on_c, 0, 55, 51
1, 275375, Note_on_c, 0, 50, 50
1, 275376, Note_on_c, 0, 55, 0
1, 275377, Note_on_c, 0, 47, 43
1, 275438, Note_on_c, 0, 47, 0
1, 275443, Note_on_c, 0, 50, 0
1, 275460, Note_on_c, 0, 79, 0
1, 275489, Note_on_c, 0, 55, 52
1, 275556, Note_on_c, 0, 47, 51
1, 275557, Note_on_c, 0, 50, 56
1, 275559, Note_on_c, 0, 55, 0
1, 275599, Note_on_c, 0, 47, 0
1, 275608, Note_on_c, 0, 50, 0
1, 275648, Note_on_c, 0, 55, 52
1, 275719, Note_on_c, 0, 50, 56
1, 275724, Note_on_c, 0, 55, 0
1, 275749, Note_on_c, 0, 47, 16
1, 275753, Note_on_c, 0, 50, 0
1, 275786, Note_on_c, 0, 55, 45
1, 275813, Note_on_c, 0, 47, 0
1, 275824, Note_on_c, 0, 55, 0
1, 275936, Note_on_c, 0, 38, 75
1, 275952, Note_on_c, 0, 65, 64
1, 275959, Note_on_c, 0, 50, 58
1, 275964, Control_c, 0, 64, 31
1, 275971, Note_on_c, 0, 38, 0
1, 275984, Control_c, 0, 64, 69
1, 275987, Note_on_c, 0, 50, 0
1, 276002, Control_c, 0, 64, 79
1, 276009, Note_on_c, 0, 65, 0
1, 276021, Control_c, 0, 64, 88
1, 276031, Note_on_c, 0, 62, 64
1, 276076, Control_c, 0, 64, 94
1, 276095, Note_on_c, 0, 62, 0
1, 276114, Note_on_c, 0, 50, 62
1, 276126, Note_on_c, 0, 65, 68
1, 276131, Control_c, 0, 64, 98
1, 276175, Note_on_c, 0, 65, 0
1, 276177, Note_on_c, 0, 50, 0
1, 276214, Note_on_c, 0, 57, 64
1, 276216, Note_on_c, 0, 62, 66
1, 276261, Note_on_c, 0, 62, 0
1, 276268, Note_on_c, 0, 57, 0
1, 276276, Control_c, 0, 64, 89
1, 276285, Note_on_c, 0, 65, 69
1, 276287, Note_on_c, 0, 50, 66
1, 276296, Control_c, 0, 64, 65
1, 276315, Control_c, 0, 64, 0
1, 276335, Note_on_c, 0, 50, 0
1, 276370, Note_on_c, 0, 65, 0
1, 276381, Note_on_c, 0, 62, 64
1, 276407, Note_on_c, 0, 57, 60
1, 276453, Note_on_c, 0, 62, 0
1, 276461, Note_on_c, 0, 57, 0
1, 276471, Note_on_c, 0, 65, 66
1, 276475, Note_on_c, 0, 50, 62
1, 276525, Note_on_c, 0, 50, 0
1, 276535, Note_on_c, 0, 65, 0
1, 276556, Note_on_c, 0, 62, 62
1, 276570, Note_on_c, 0, 57, 60
1, 276623, Note_on_c, 0, 62, 0
1, 276629, Note_on_c, 0, 57, 0
1, 276644, Note_on_c, 0, 50, 61
1, 276652, Note_on_c, 0, 65, 63
1, 276693, Note_on_c, 0, 50, 0
1, 276707, Note_on_c, 0, 65, 0
1, 276731, Note_on_c, 0, 62, 63
1, 276735, Note_on_c, 0, 57, 60
1, 276791, Note_on_c, 0, 62, 0
1, 276794, Note_on_c, 0, 57, 0
1, 276800, Note_on_c, 0, 50, 60
1, 276823, Note_on_c, 0, 65, 64
1, 276856, Note_on_c, 0, 50, 0
1, 276877, Note_on_c, 0, 65, 0
1, 276897, Note_on_c, 0, 57, 61
1, 276905, Note_on_c, 0, 62, 61
1, 276954, Note_on_c, 0, 62, 0
1, 276968, Note_on_c, 0, 57, 0
1, 276977, Note_on_c, 0, 65, 61
1, 276988, Note_on_c, 0, 50, 57
1, 277030, Note_on_c, 0, 50, 0
1, 277043, Note_on_c, 0, 65, 0
1, 277063, Note_on_c, 0, 57, 55
1, 277067, Note_on_c, 0, 62, 60
1, 277119, Note_on_c, 0, 62, 0
1, 277130, Note_on_c, 0, 50, 60
1, 277132, Note_on_c, 0, 57, 0
1, 277147, Note_on_c, 0, 65, 62
1, 277185, Note_on_c, 0, 50, 0
1, 277203, Note_on_c, 0, 65, 0
1, 277227, Note_on_c, 0, 57, 51
1, 277232, Note_on_c, 0, 62, 62
1, 277304, Note_on_c, 0, 62, 0
1, 277310, Note_on_c, 0, 57, 0
1, 277326, Note_on_c, 0, 50, 57
1, 277329, Note_on_c, 0, 65, 62
1, 277371, Note_on_c, 0, 50, 0
1, 277394, Note_on_c, 0, 65, 0
1, 277414, Note_on_c, 0, 57, 58
1, 277424, Note_on_c, 0, 62, 60
1, 277472, Note_on_c, 0, 62, 0
1, 277481, Note_on_c, 0, 57, 0
1, 277481, Note_on_c, 0, 50, 60
1, 277496, Note_on_c, 0, 65, 66
1, 277537, Note_on_c, 0, 50, 0
1, 277554, Note_on_c, 0, 65, 0
1, 277576, Note_on_c, 0, 62, 64
1, 277582, Note_on_c, 0, 57, 56
1, 277639, Note_on_c, 0, 62, 0
1, 277650, Note_on_c, 0, 57, 0
1, 277666, Note_on_c, 0, 65, 67
1, 277668, Note_on_c, 0, 50, 56
1, 277706, Note_on_c, 0, 50, 0
1, 277720, Note_on_c, 0, 65, 0
1, 277743, Note_on_c, 0, 57, 54
1, 277749, Note_on_c, 0, 62, 68
1, 277808, Note_on_c, 0, 62, 0
1, 277815, Note_on_c, 0, 57, 0
1, 277817, Note_on_c, 0, 50, 61
1, 277825, Note_on_c, 0, 65, 67
1, 277875, Note_on_c, 0, 50, 0
1, 277902, Note_on_c, 0, 65, 0
1, 277910, Note_on_c, 0, 57, 57
1, 277916, Note_on_c, 0, 62, 69
1, 277976, Note_on_c, 0, 57, 0
1, 277984, Note_on_c, 0, 62, 0
1, 277995, Note_on_c, 0, 50, 61
1, 277998, Note_on_c, 0, 65, 68
1, 278042, Note_on_c, 0, 50, 0
1, 278065, Note_on_c, 0, 65, 0
1, 278072, Note_on_c, 0, 57, 58
1, 278084, Note_on_c, 0, 62, 65
1, 278131, Note_on_c, 0, 57, 0
1, 278139, Note_on_c, 0, 62, 0
1, 278139, Note_on_c, 0, 50, 62
1, 278151, Note_on_c, 0, 65, 69
1, 278201, Note_on_c, 0, 50, 0
1, 278242, Note_on_c, 0, 65, 0
1, 278252, Note_on_c, 0, 57, 61
1, 278256, Note_on_c, 0, 62, 72
1, 278300, Note_on_c, 0, 57, 0
1, 278311, Note_on_c, 0, 62, 0
1, 278344, Note_on_c, 0, 50, 65
1, 278346, Note_on_c, 0, 68, 78
1, 278384, Note_on_c, 0, 50, 0
1, 278390, Note_on_c, 0, 68, 0
1, 278419, Note_on_c, 0, 64, 74
1, 278419, Note_on_c, 0, 59, 65
1, 278466, Note_on_c, 0, 59, 0
1, 278475, Note_on_c, 0, 64, 0
1, 278497, Note_on_c, 0, 50, 55
1, 278516, Note_on_c, 0, 68, 78
1, 278549, Note_on_c, 0, 50, 0
1, 278568, Note_on_c, 0, 68, 0
1, 278580, Note_on_c, 0, 59, 59
1, 278589, Note_on_c, 0, 64, 71
1, 278618, Note_on_c, 0, 59, 0
1, 278674, Note_on_c, 0, 64, 0
1, 278680, Note_on_c, 0, 52, 56
1, 278681, Note_on_c, 0, 48, 53
1, 278684, Note_on_c, 0, 69, 80
1, 278734, Note_on_c, 0, 48, 0
1, 278739, Note_on_c, 0, 52, 0
1, 278777, Note_on_c, 0, 57, 56
1, 278849, Note_on_c, 0, 57, 0
1, 278869, Note_on_c, 0, 48, 41
1, 278888, Note_on_c, 0, 52, 43
1, 278908, Note_on_c, 0, 48, 0
1, 278926, Note_on_c, 0, 52, 0
1, 278960, Note_on_c, 0, 57, 50
1, 279036, Note_on_c, 0, 52, 51
1, 279038, Note_on_c, 0, 48, 44
1, 279040, Note_on_c, 0, 57, 0
1, 279085, Note_on_c, 0, 48, 0
1, 279098, Note_on_c, 0, 52, 0
1, 279147, Note_on_c, 0, 57, 42
1, 279251, Note_on_c, 0, 57, 0
1, 279251, Note_on_c, 0, 52, 54
1, 279254, Note_on_c, 0, 69, 0
1, 279257, Note_on_c, 0, 48, 40
1, 279274, Note_on_c, 0, 72, 62
1, 279304, Note_on_c, 0, 48, 0
1, 279310, Note_on_c, 0, 52, 0
1, 279348, Note_on_c, 0, 72, 0
1, 279353, Note_on_c, 0, 71, 68
1, 279360, Note_on_c, 0, 57, 48
1, 279426, Note_on_c, 0, 48, 51
1, 279428, Note_on_c, 0, 57, 0
1, 279433, Note_on_c, 0, 71, 0
1, 279437, Note_on_c, 0, 69, 54
1, 279448, Note_on_c, 0, 52, 55
1, 279478, Note_on_c, 0, 48, 0
1, 279495, Note_on_c, 0, 52, 0
1, 279542, Note_on_c, 0, 57, 52
1, 279608, Note_on_c, 0, 52, 54
1, 279610, Note_on_c, 0, 57, 0
1, 279620, Note_on_c, 0, 48, 38
1, 279646, Note_on_c, 0, 69, 0
1, 279662, Note_on_c, 0, 48, 0
1, 279671, Note_on_c, 0, 52, 0
1, 279699, Note_on_c, 0, 57, 55
1, 279779, Note_on_c, 0, 48, 48
1, 279789, Note_on_c, 0, 57, 0
1, 279807, Note_on_c, 0, 52, 45
1, 279830, Note_on_c, 0, 48, 0
1, 279847, Note_on_c, 0, 52, 0
1, 279868, Note_on_c, 0, 57, 43
1, 279949, Note_on_c, 0, 52, 53
1, 279950, Note_on_c, 0, 57, 0
1, 279953, Note_on_c, 0, 48, 49
1, 279998, Note_on_c, 0, 48, 0
1, 280007, Note_on_c, 0, 52, 0
1, 280052, Note_on_c, 0, 57, 52
1, 280146, Note_on_c, 0, 57, 0
1, 280147, Note_on_c, 0, 87, 78
1, 280154, Note_on_c, 0, 48, 47
1, 280155, Note_on_c, 0, 52, 53
1, 280176, Note_on_c, 0, 88, 83
1, 280199, Note_on_c, 0, 48, 0
1, 280214, Note_on_c, 0, 52, 0
1, 280229, Note_on_c, 0, 87, 0
1, 280259, Note_on_c, 0, 57, 55
1, 280333, Note_on_c, 0, 52, 58
1, 280335, Note_on_c, 0, 48, 51
1, 280337, Note_on_c, 0, 57, 0
1, 280392, Note_on_c, 0, 48, 0
1, 280400, Note_on_c, 0, 52, 0
1, 280444, Note_on_c, 0, 57, 52
1, 280517, Note_on_c, 0, 57, 0
1, 280519, Note_on_c, 0, 48, 50
1, 280552, Note_on_c, 0, 52, 49
1, 280576, Note_on_c, 0, 48, 0
1, 280595, Note_on_c, 0, 52, 0
1, 280637, Note_on_c, 0, 57, 49
1, 280650, Note_on_c, 0, 86, 67
1, 280670, Note_on_c, 0, 88, 0
1, 280710, Note_on_c, 0, 57, 0
1, 280713, Note_on_c, 0, 48, 47
1, 280714, Note_on_c, 0, 52, 49
1, 280737, Note_on_c, 0, 84, 68
1, 280760, Note_on_c, 0, 48, 0
1, 280774, Note_on_c, 0, 86, 0
1, 280776, Note_on_c, 0, 52, 0
1, 280810, Note_on_c, 0, 83, 59
1, 280812, Note_on_c, 0, 84, 0
1, 280817, Note_on_c, 0, 57, 42
1, 280890, Note_on_c, 0, 48, 51
1, 280894, Note_on_c, 0, 83, 0
1, 280895, Note_on_c, 0, 81, 50
1, 280896, Note_on_c, 0, 57, 0
1, 280908, Note_on_c, 0, 52, 51
1, 280955, Note_on_c, 0, 48, 0
1, 280963, Note_on_c, 0, 52, 0
1, 281007, Note_on_c, 0, 57, 45
1, 281100, Note_on_c, 0, 48, 47
1, 281102, Note_on_c, 0, 57, 0
1, 281109, Note_on_c, 0, 52, 48
1, 281144, Note_on_c, 0, 48, 0
1, 281160, Note_on_c, 0, 52, 0
1, 281181, Note_on_c, 0, 57, 45
1, 281210, Control_c, 0, 64, 8
1, 281228, Control_c, 0, 64, 18
1, 281239, Note_on_c, 0, 81, 0
1, 281246, Control_c, 0, 64, 24
1, 281266, Control_c, 0, 64, 31
1, 281271, Note_on_c, 0, 57, 0
1, 281284, Note_on_c, 0, 52, 44
1, 281284, Note_on_c, 0, 48, 29
1, 281284, Control_c, 0, 64, 41
1, 281304, Control_c, 0, 64, 54
1, 281322, Control_c, 0, 64, 61
1, 281330, Note_on_c, 0, 52, 0
1, 281337, Note_on_c, 0, 48, 0
1, 281342, Control_c, 0, 64, 64
1, 281357, Control_c, 0, 64, 65
1, 281377, Control_c, 0, 64, 67
1, 281387, Note_on_c, 0, 57, 9
1, 281395, Control_c, 0, 64, 70
1, 281414, Control_c, 0, 64, 74
1, 281420, Note_on_c, 0, 57, 0
1, 281431, Control_c, 0, 64, 79
1, 281439, Note_on_c, 0, 48, 47
1, 281442, Note_on_c, 0, 52, 48
1, 281450, Control_c, 0, 64, 86
1, 281469, Control_c, 0, 64, 91
1, 281476, Note_on_c, 0, 48, 0
1, 281481, Note_on_c, 0, 52, 0
1, 281512, Note_on_c, 0, 57, 49
1, 281525, Control_c, 0, 64, 95
1, 281548, Note_on_c, 0, 57, 0
1, 281579, Control_c, 0, 64, 100
1, 281673, Note_on_c, 0, 83, 61
1, 281696, Note_on_c, 0, 57, 30
1, 281722, Note_on_c, 0, 53, 44
1, 281727, Control_c, 0, 64, 92
1, 281743, Note_on_c, 0, 84, 64
1, 281746, Control_c, 0, 64, 71
1, 281753, Note_on_c, 0, 83, 0
1, 281764, Control_c, 0, 64, 19
1, 281783, Control_c, 0, 64, 0
1, 281792, Note_on_c, 0, 53, 0
1, 281805, Note_on_c, 0, 57, 0
1, 281818, Note_on_c, 0, 60, 49
1, 281856, Control_c, 0, 64, 14
1, 281874, Control_c, 0, 64, 45
1, 281892, Control_c, 0, 64, 65
1, 281906, Note_on_c, 0, 60, 0
1, 281909, Control_c, 0, 64, 75
1, 281927, Control_c, 0, 64, 81
1, 281932, Note_on_c, 0, 53, 44
1, 281943, Note_on_c, 0, 57, 35
1, 281948, Control_c, 0, 64, 86
1, 281982, Control_c, 0, 64, 90
1, 281989, Note_on_c, 0, 53, 0
1, 282004, Note_on_c, 0, 57, 0
1, 282018, Control_c, 0, 64, 94
1, 282031, Note_on_c, 0, 60, 47
1, 282097, Note_on_c, 0, 60, 0
1, 282109, Note_on_c, 0, 53, 46
1, 282117, Note_on_c, 0, 57, 55
1, 282154, Note_on_c, 0, 53, 0
1, 282162, Note_on_c, 0, 57, 0
1, 282183, Control_c, 0, 64, 98
1, 282202, Note_on_c, 0, 60, 51
1, 282234, Note_on_c, 0, 83, 65
1, 282244, Note_on_c, 0, 84, 0
1, 282269, Note_on_c, 0, 60, 0
1, 282275, Note_on_c, 0, 53, 51
1, 282277, Note_on_c, 0, 57, 56
1, 282310, Note_on_c, 0, 81, 70
1, 282317, Note_on_c, 0, 83, 0
1, 282327, Note_on_c, 0, 53, 0
1, 282333, Note_on_c, 0, 57, 0
1, 282357, Note_on_c, 0, 81, 0
1, 282383, Note_on_c, 0, 80, 68
1, 282385, Note_on_c, 0, 60, 44
1, 282423, Control_c, 0, 64, 94
1, 282427, Note_on_c, 0, 60, 0
1, 282441, Control_c, 0, 64, 76
1, 282460, Note_on_c, 0, 53, 52
1, 282460, Control_c, 0, 64, 49
1, 282464, Note_on_c, 0, 57, 54
1, 282472, Note_on_c, 0, 81, 65
1, 282479, Control_c, 0, 64, 26
1, 282484, Note_on_c, 0, 80, 0
1, 282510, Note_on_c, 0, 53, 0
1, 282514, Control_c, 0, 64, 31
1, 282528, Note_on_c, 0, 57, 0
1, 282534, Control_c, 0, 64, 48
1, 282552, Control_c, 0, 64, 63
1, 282564, Note_on_c, 0, 62, 54
1, 282571, Control_c, 0, 64, 70
1, 282586, Control_c, 0, 64, 74
1, 282606, Control_c, 0, 64, 76
1, 282629, Note_on_c, 0, 62, 0
1, 282640, Note_on_c, 0, 53, 46
1, 282644, Control_c, 0, 64, 79
1, 282662, Control_c, 0, 64, 81
1, 282663, Note_on_c, 0, 57, 52
1, 282682, Control_c, 0, 64, 83
1, 282700, Control_c, 0, 64, 85
1, 282710, Note_on_c, 0, 53, 0
1, 282714, Note_on_c, 0, 57, 0
1, 282736, Control_c, 0, 64, 87
1, 282794, Note_on_c, 0, 53, 39
1, 282809, Control_c, 0, 64, 91
1, 282809, Note_on_c, 0, 57, 51
1, 282831, Note_on_c, 0, 81, 0
1, 282833, Note_on_c, 0, 53, 0
1, 282844, Note_on_c, 0, 57, 0
1, 282852, Note_on_c, 0, 62, 60
1, 282865, Control_c, 0, 64, 96
1, 282921, Note_on_c, 0, 62, 0
1, 282962, Note_on_c, 0, 53, 47
1, 282964, Note_on_c, 0, 57, 56
1, 282972, Control_c, 0, 64, 101
1, 283007, Note_on_c, 0, 53, 0
1, 283007, Note_on_c, 0, 57, 0
1, 283045, Control_c, 0, 64, 105
1, 283060, Note_on_c, 0, 62, 50
1, 283100, Control_c, 0, 64, 109
1, 283122, Note_on_c, 0, 62, 0
1, 283156, Control_c, 0, 64, 114
1, 283207, Note_on_c, 0, 83, 68
1, 283219, Note_on_c, 0, 53, 62
1, 283228, Control_c, 0, 64, 100
1, 283237, Note_on_c, 0, 57, 60
1, 283243, Note_on_c, 0, 84, 91
1, 283246, Control_c, 0, 64, 79
1, 283266, Control_c, 0, 64, 59
1, 283280, Note_on_c, 0, 83, 0
1, 283285, Control_c, 0, 64, 56
1, 283291, Note_on_c, 0, 53, 0
1, 283302, Control_c, 0, 64, 59
1, 283316, Note_on_c, 0, 57, 0
1, 283320, Control_c, 0, 64, 67
1, 283322, Note_on_c, 0, 63, 62
1, 283340, Control_c, 0, 64, 74
1, 283358, Control_c, 0, 64, 83
1, 283378, Control_c, 0, 64, 90
1, 283415, Note_on_c, 0, 63, 0
1, 283416, Control_c, 0, 64, 94
1, 283421, Note_on_c, 0, 53, 56
1, 283430, Note_on_c, 0, 57, 55
1, 283470, Note_on_c, 0, 53, 0
1, 283492, Note_on_c, 0, 57, 0
1, 283494, Note_on_c, 0, 63, 58
1, 283578, Note_on_c, 0, 63, 0
1, 283596, Control_c, 0, 64, 98
1, 283596, Note_on_c, 0, 57, 61
1, 283599, Note_on_c, 0, 53, 47
1, 283632, Note_on_c, 0, 53, 0
1, 283648, Note_on_c, 0, 57, 0
1, 283669, Note_on_c, 0, 63, 60
1, 283708, Note_on_c, 0, 83, 75
1, 283716, Note_on_c, 0, 84, 0
1, 283726, Control_c, 0, 64, 102
1, 283734, Note_on_c, 0, 63, 0
1, 283747, Note_on_c, 0, 53, 49
1, 283752, Note_on_c, 0, 57, 55
1, 283784, Note_on_c, 0, 53, 0
1, 283785, Note_on_c, 0, 81, 84
1, 283804, Note_on_c, 0, 57, 0
1, 283806, Note_on_c, 0, 63, 61
1, 283818, Control_c, 0, 64, 106
1, 283824, Note_on_c, 0, 83, 0
1, 283878, Note_on_c, 0, 81, 0
1, 283889, Note_on_c, 0, 80, 87
1, 283902, Note_on_c, 0, 63, 0
1, 283956, Note_on_c, 0, 57, 75
1, 283961, Note_on_c, 0, 53, 74
1, 283964, Note_on_c, 0, 81, 87
1, 283975, Note_on_c, 0, 80, 0
1, 283998, Control_c, 0, 64, 98
1, 284019, Control_c, 0, 64, 91
1, 284028, Note_on_c, 0, 57, 0
1, 284030, Note_on_c, 0, 53, 0
1, 284034, Control_c, 0, 64, 86
1, 284037, Note_on_c, 0, 60, 77
1, 284039, Note_on_c, 0, 81, 0
1, 284039, Note_on_c, 0, 80, 80
1, 284097, Note_on_c, 0, 81, 73
1, 284113, Note_on_c, 0, 57, 62
1, 284121, Note_on_c, 0, 60, 0
1, 284122, Note_on_c, 0, 80, 0
1, 284129, Note_on_c, 0, 53, 58
1, 284149, Control_c, 0, 64, 91
1, 284154, Note_on_c, 0, 81, 0
1, 284165, Note_on_c, 0, 53, 0
1, 284194, Note_on_c, 0, 57, 0
1, 284196, Note_on_c, 0, 83, 86
1, 284200, Note_on_c, 0, 60, 56
1, 284201, Control_c, 0, 64, 96
1, 284253, Note_on_c, 0, 60, 0
1, 284275, Control_c, 0, 64, 100
1, 284283, Note_on_c, 0, 53, 63
1, 284288, Note_on_c, 0, 84, 92
1, 284300, Note_on_c, 0, 83, 0
1, 284349, Note_on_c, 0, 53, 0
1, 284374, Note_on_c, 0, 85, 93
1, 284377, Note_on_c, 0, 57, 71
1, 284387, Note_on_c, 0, 84, 0
1, 284422, Note_on_c, 0, 57, 0
1, 284443, Note_on_c, 0, 85, 0
1, 284459, Note_on_c, 0, 86, 89
1, 284542, Note_on_c, 0, 87, 80
1, 284544, Note_on_c, 0, 86, 0
1, 284571, Control_c, 0, 64, 92
1, 284589, Control_c, 0, 64, 80
1, 284604, Note_on_c, 0, 87, 0
1, 284607, Control_c, 0, 64, 56
1, 284625, Control_c, 0, 64, 0
1, 284669, Note_on_c, 0, 52, 48
1, 284694, Note_on_c, 0, 88, 68
1, 284787, Control_c, 0, 64, 23
1, 284787, Note_on_c, 0, 56, 49
1, 284795, Note_on_c, 0, 52, 0
1, 284807, Control_c, 0, 64, 38
1, 284825, Control_c, 0, 64, 53
1, 284843, Control_c, 0, 64, 67
1, 284862, Control_c, 0, 64, 71
1, 284865, Note_on_c, 0, 56, 0
1, 284885, Note_on_c, 0, 59, 54
1, 284940, Note_on_c, 0, 59, 0
1, 284972, Note_on_c, 0, 64, 46
1, 285028, Control_c, 0, 64, 68
1, 285045, Control_c, 0, 64, 66
1, 285065, Control_c, 0, 64, 64
1, 285072, Note_on_c, 0, 64, 0
1, 285084, Control_c, 0, 64, 62
1, 285100, Control_c, 0, 64, 61
1, 285101, Note_on_c, 0, 52, 49
1, 285137, Control_c, 0, 64, 59
1, 285162, Note_on_c, 0, 88, 0
1, 285164, Note_on_c, 0, 86, 57
1, 285173, Control_c, 0, 64, 56
1, 285191, Note_on_c, 0, 52, 0
1, 285206, Note_on_c, 0, 56, 40
1, 285217, Note_on_c, 0, 86, 0
1, 285248, Note_on_c, 0, 84, 64
1, 285251, Note_on_c, 0, 56, 0
1, 285267, Control_c, 0, 64, 54
1, 285274, Note_on_c, 0, 59, 47
1, 285308, Note_on_c, 0, 84, 0
1, 285318, Note_on_c, 0, 59, 0
1, 285332, Note_on_c, 0, 83, 66
1, 285360, Note_on_c, 0, 64, 45
1, 285397, Note_on_c, 0, 83, 0
1, 285421, Note_on_c, 0, 84, 73
1, 285434, Note_on_c, 0, 64, 0
1, 285441, Note_on_c, 0, 52, 46
1, 285495, Note_on_c, 0, 84, 0
1, 285518, Note_on_c, 0, 83, 67
1, 285528, Note_on_c, 0, 57, 52
1, 285549, Note_on_c, 0, 52, 0
1, 285554, Note_on_c, 0, 83, 0
1, 285581, Note_on_c, 0, 57, 0
1, 285595, Note_on_c, 0, 81, 68
1, 285602, Note_on_c, 0, 60, 57
1, 285638, Note_on_c, 0, 81, 0
1, 285657, Note_on_c, 0, 60, 0
1, 285683, Note_on_c, 0, 80, 65
1, 285690, Note_on_c, 0, 64, 44
1, 285758, Note_on_c, 0, 80, 0
1, 285778, Note_on_c, 0, 81, 68
1, 285782, Note_on_c, 0, 64, 0
1, 285804, Note_on_c, 0, 52, 45
1, 285828, Note_on_c, 0, 81, 0
1, 285861, Note_on_c, 0, 84, 68
1, 285866, Note_on_c, 0, 57, 52
1, 285884, Note_on_c, 0, 52, 0
1, 285907, Control_c, 0, 64, 52
1, 285923, Note_on_c, 0, 57, 0
1, 285939, Note_on_c, 0, 84, 0
1, 285940, Note_on_c, 0, 60, 54
1, 285944, Note_on_c, 0, 83, 65
1, 285997, Note_on_c, 0, 83, 0
1, 285998, Note_on_c, 0, 60, 0
1, 286030, Note_on_c, 0, 81, 68
1, 286036, Note_on_c, 0, 64, 54
1, 286087, Note_on_c, 0, 81, 0
1, 286116, Note_on_c, 0, 80, 69
1, 286122, Note_on_c, 0, 64, 0
1, 286134, Note_on_c, 0, 52, 46
1, 286193, Note_on_c, 0, 80, 0
1, 286198, Note_on_c, 0, 78, 67
1, 286198, Note_on_c, 0, 59, 55
1, 286236, Note_on_c, 0, 52, 0
1, 286245, Note_on_c, 0, 78, 0
1, 286267, Note_on_c, 0, 59, 0
1, 286273, Note_on_c, 0, 76, 68
1, 286276, Note_on_c, 0, 62, 58
1, 286331, Note_on_c, 0, 62, 0
1, 286332, Note_on_c, 0, 76, 0
1, 286356, Note_on_c, 0, 64, 57
1, 286374, Note_on_c, 0, 75, 71
1, 286421, Note_on_c, 0, 75, 0
1, 286432, Note_on_c, 0, 64, 0
1, 286439, Note_on_c, 0, 52, 55
1, 286466, Note_on_c, 0, 76, 75
1, 286520, Note_on_c, 0, 59, 59
1, 286539, Note_on_c, 0, 76, 0
1, 286549, Note_on_c, 0, 78, 69
1, 286570, Note_on_c, 0, 52, 0
1, 286596, Note_on_c, 0, 62, 60
1, 286601, Note_on_c, 0, 59, 0
1, 286652, Note_on_c, 0, 78, 0
1, 286653, Note_on_c, 0, 79, 73
1, 286671, Note_on_c, 0, 62, 0
1, 286716, Note_on_c, 0, 64, 50
1, 286733, Note_on_c, 0, 79, 0
1, 286739, Note_on_c, 0, 80, 74
1, 286787, Note_on_c, 0, 64, 0
1, 286797, Note_on_c, 0, 80, 0
1, 286798, Note_on_c, 0, 81, 79
1, 286803, Note_on_c, 0, 52, 63
1, 286842, Note_on_c, 0, 81, 0
1, 286885, Note_on_c, 0, 80, 74
1, 286894, Note_on_c, 0, 52, 0
1, 286896, Note_on_c, 0, 57, 58
1, 286945, Note_on_c, 0, 80, 0
1, 286958, Note_on_c, 0, 81, 84
1, 286975, Note_on_c, 0, 57, 0
1, 286984, Note_on_c, 0, 60, 57
1, 287031, Note_on_c, 0, 60, 0
1, 287032, Note_on_c, 0, 83, 84
1, 287039, Note_on_c, 0, 81, 0
1, 287063, Note_on_c, 0, 64, 52
1, 287117, Note_on_c, 0, 84, 86
1, 287128, Note_on_c, 0, 83, 0
1, 287143, Note_on_c, 0, 64, 0
1, 287148, Note_on_c, 0, 52, 49
1, 287193, Note_on_c, 0, 85, 83
1, 287206, Note_on_c, 0, 84, 0
1, 287207, Note_on_c, 0, 57, 57
1, 287214, Note_on_c, 0, 52, 0
1, 287236, Note_on_c, 0, 85, 0
1, 287250, Control_c, 0, 64, 54
1, 287265, Control_c, 0, 67, 117
1, 287277, Note_on_c, 0, 57, 0
1, 287280, Note_on_c, 0, 86, 82
1, 287284, Control_c, 0, 67, 102
1, 287286, Note_on_c, 0, 60, 51
1, 287303, Control_c, 0, 67, 86
1, 287322, Control_c, 0, 67, 71
1, 287337, Note_on_c, 0, 60, 0
1, 287339, Control_c, 0, 67, 55
1, 287358, Control_c, 0, 67, 40
1, 287370, Note_on_c, 0, 86, 0
1, 287374, Note_on_c, 0, 87, 74
1, 287376, Note_on_c, 0, 64, 40
1, 287377, Control_c, 0, 67, 25
1, 287397, Control_c, 0, 67, 11
1, 287448, Note_on_c, 0, 87, 0
1, 287450, Note_on_c, 0, 64, 0
1, 287456, Note_on_c, 0, 52, 51
1, 287465, Note_on_c, 0, 88, 73
1, 287488, Control_c, 0, 67, 0
1, 287534, Note_on_c, 0, 88, 0
1, 287539, Note_on_c, 0, 52, 0
1, 287541, Note_on_c, 0, 56, 50
1, 287556, Note_on_c, 0, 87, 81
1, 287624, Note_on_c, 0, 56, 0
1, 287627, Note_on_c, 0, 59, 49
1, 287628, Note_on_c, 0, 87, 0
1, 287659, Note_on_c, 0, 88, 77
1, 287680, Note_on_c, 0, 59, 0
1, 287708, Note_on_c, 0, 64, 48
1, 287719, Note_on_c, 0, 88, 0
1, 287731, Note_on_c, 0, 87, 85
1, 287797, Note_on_c, 0, 64, 0
1, 287797, Note_on_c, 0, 52, 63
1, 287808, Note_on_c, 0, 87, 0
1, 287809, Note_on_c, 0, 88, 81
1, 287880, Note_on_c, 0, 56, 61
1, 287882, Note_on_c, 0, 86, 83
1, 287887, Note_on_c, 0, 88, 0
1, 287914, Note_on_c, 0, 52, 0
1, 287948, Note_on_c, 0, 86, 0
1, 287954, Note_on_c, 0, 59, 55
1, 287968, Note_on_c, 0, 84, 80
1, 287972, Note_on_c, 0, 56, 0
1, 288007, Note_on_c, 0, 59, 0
1, 288034, Note_on_c, 0, 84, 0
1, 288041, Note_on_c, 0, 83, 80
1, 288045, Note_on_c, 0, 64, 48
1, 288114, Note_on_c, 0, 83, 0
1, 288117, Note_on_c, 0, 52, 56
1, 288124, Note_on_c, 0, 84, 76
1, 288137, Note_on_c, 0, 64, 0
1, 288203, Note_on_c, 0, 84, 0
1, 288210, Note_on_c, 0, 57, 58
1, 288213, Note_on_c, 0, 52, 0
1, 288215, Note_on_c, 0, 83, 71
1, 288265, Note_on_c, 0, 83, 0
1, 288291, Note_on_c, 0, 60, 52
1, 288301, Note_on_c, 0, 81, 71
1, 288307, Note_on_c, 0, 57, 0
1, 288345, Note_on_c, 0, 81, 0
1, 288351, Note_on_c, 0, 60, 0
1, 288374, Note_on_c, 0, 64, 49
1, 288388, Note_on_c, 0, 80, 67
1, 288438, Note_on_c, 0, 80, 0
1, 288440, Note_on_c, 0, 64, 0
1, 288467, Note_on_c, 0, 81, 72
1, 288470, Note_on_c, 0, 52, 45
1, 288545, Note_on_c, 0, 81, 0
1, 288552, Note_on_c, 0, 52, 0
1, 288561, Note_on_c, 0, 57, 51
1, 288564, Note_on_c, 0, 84, 68
1, 288619, Note_on_c, 0, 57, 0
1, 288630, Note_on_c, 0, 60, 54
1, 288640, Note_on_c, 0, 84, 0
1, 288645, Note_on_c, 0, 83, 66
1, 288678, Note_on_c, 0, 60, 0
1, 288695, Note_on_c, 0, 83, 0
1, 288728, Note_on_c, 0, 64, 46
1, 288733, Note_on_c, 0, 81, 61
1, 288783, Note_on_c, 0, 81, 0
1, 288802, Note_on_c, 0, 64, 0
1, 288818, Note_on_c, 0, 80, 64
1, 288830, Note_on_c, 0, 52, 46
1, 288895, Note_on_c, 0, 80, 0
1, 288900, Note_on_c, 0, 78, 63
1, 288908, Note_on_c, 0, 52, 0
1, 288914, Note_on_c, 0, 59, 53
1, 288935, Note_on_c, 0, 78, 0
1, 288976, Note_on_c, 0, 59, 0
1, 288976, Note_on_c, 0, 76, 68
1, 288991, Note_on_c, 0, 62, 45
1, 289012, Note_on_c, 0, 76, 0
1, 289037, Note_on_c, 0, 62, 0
1, 289066, Note_on_c, 0, 75, 64
1, 289069, Note_on_c, 0, 64, 53
1, 289105, Note_on_c, 0, 75, 0
1, 289137, Note_on_c, 0, 64, 0
1, 289140, Note_on_c, 0, 76, 71
1, 289163, Note_on_c, 0, 52, 49
1, 289200, Note_on_c, 0, 76, 0
1, 289233, Note_on_c, 0, 78, 67
1, 289240, Note_on_c, 0, 59, 53
1, 289267, Note_on_c, 0, 52, 0
1, 289298, Note_on_c, 0, 62, 62
1, 289302, Note_on_c, 0, 59, 0
1, 289321, Note_on_c, 0, 78, 0
1, 289324, Note_on_c, 0, 79, 67
1, 289367, Note_on_c, 0, 62, 0
1, 289397, Note_on_c, 0, 79, 0
1, 289404, Note_on_c, 0, 64, 54
1, 289405, Note_on_c, 0, 80, 73
1, 289478, Note_on_c, 0, 80, 0
1, 289496, Note_on_c, 0, 81, 76
1, 289506, Note_on_c, 0, 52, 62
1, 289510, Note_on_c, 0, 64, 0
1, 289532, Note_on_c, 0, 81, 0
1, 289588, Note_on_c, 0, 80, 64
1, 289591, Note_on_c, 0, 52, 0
1, 289592, Note_on_c, 0, 57, 56
1, 289630, Note_on_c, 0, 80, 0
1, 289652, Note_on_c, 0, 57, 0
1, 289653, Note_on_c, 0, 81, 79
1, 289660, Note_on_c, 0, 60, 60
1, 289713, Note_on_c, 0, 60, 0
1, 289741, Note_on_c, 0, 83, 75
1, 289742, Note_on_c, 0, 81, 0
1, 289763, Note_on_c, 0, 64, 42
1, 289824, Note_on_c, 0, 52, 51
1, 289824, Note_on_c, 0, 84, 77
1, 289825, Note_on_c, 0, 83, 0
1, 289833, Note_on_c, 0, 64, 0
1, 289894, Note_on_c, 0, 84, 0
1, 289896, Note_on_c, 0, 85, 65
1, 289910, Note_on_c, 0, 52, 0
1, 289912, Note_on_c, 0, 57, 52
1, 289934, Note_on_c, 0, 85, 0
1, 289969, Note_on_c, 0, 57, 0
1, 289990, Note_on_c, 0, 86, 70
1, 290003, Note_on_c, 0, 60, 19
1, 290025, Note_on_c, 0, 86, 0
1, 290056, Control_c, 0, 64, 52
1, 290064, Note_on_c, 0, 60, 0
1, 290073, Note_on_c, 0, 87, 67
1, 290075, Note_on_c, 0, 64, 35
1, 290091, Control_c, 0, 64, 50
1, 290147, Control_c, 0, 64, 52
1, 290157, Note_on_c, 0, 64, 0
1, 290162, Note_on_c, 0, 87, 0
1, 290165, Note_on_c, 0, 52, 45
1, 290165, Control_c, 0, 64, 58
1, 290167, Note_on_c, 0, 88, 74
1, 290183, Control_c, 0, 64, 65
1, 290201, Control_c, 0, 64, 70
1, 290220, Control_c, 0, 64, 73
1, 290239, Control_c, 0, 64, 75
1, 290264, Note_on_c, 0, 56, 53
1, 290272, Note_on_c, 0, 83, 71
1, 290275, Control_c, 0, 64, 77
1, 290278, Note_on_c, 0, 52, 0
1, 290284, Note_on_c, 0, 88, 0
1, 290351, Note_on_c, 0, 83, 0
1, 290357, Note_on_c, 0, 80, 73
1, 290360, Note_on_c, 0, 59, 56
1, 290362, Note_on_c, 0, 56, 0
1, 290418, Note_on_c, 0, 59, 0
1, 290419, Note_on_c, 0, 80, 0
1, 290463, Note_on_c, 0, 76, 71
1, 290465, Note_on_c, 0, 64, 51
1, 290515, Note_on_c, 0, 76, 0
1, 290530, Note_on_c, 0, 64, 0
1, 290530, Control_c, 0, 64, 73
1, 290541, Note_on_c, 0, 75, 75
1, 290542, Note_on_c, 0, 63, 62
1, 290567, Control_c, 0, 64, 71
1, 290578, Note_on_c, 0, 75, 0
1, 290580, Note_on_c, 0, 63, 0
1, 290631, Note_on_c, 0, 76, 74
1, 290631, Note_on_c, 0, 64, 59
1, 290699, Note_on_c, 0, 76, 0
1, 290704, Note_on_c, 0, 81, 83
1, 290706, Note_on_c, 0, 64, 0
1, 290717, Note_on_c, 0, 60, 66
1, 290732, Control_c, 0, 64, 69
1, 290751, Control_c, 0, 64, 58
1, 290770, Control_c, 0, 64, 36
1, 290782, Note_on_c, 0, 81, 0
1, 290787, Control_c, 0, 64, 0
1, 290787, Note_on_c, 0, 57, 61
1, 290787, Note_on_c, 0, 84, 85
1, 290816, Note_on_c, 0, 60, 0
1, 290846, Note_on_c, 0, 57, 0
1, 290856, Note_on_c, 0, 52, 74
1, 290861, Note_on_c, 0, 88, 96
1, 290878, Control_c, 0, 64, 32
1, 290879, Note_on_c, 0, 84, 0
1, 290897, Control_c, 0, 64, 51
1, 290916, Control_c, 0, 64, 65
1, 290936, Control_c, 0, 64, 69
1, 290948, Note_on_c, 0, 83, 89
1, 290955, Note_on_c, 0, 56, 71
1, 290994, Note_on_c, 0, 88, 0
1, 290997, Note_on_c, 0, 52, 0
1, 291028, Note_on_c, 0, 80, 85
1, 291036, Note_on_c, 0, 83, 0
1, 291040, Note_on_c, 0, 59, 67
1, 291053, Note_on_c, 0, 56, 0
1, 291089, Note_on_c, 0, 80, 0
1, 291108, Note_on_c, 0, 76, 75
1, 291109, Note_on_c, 0, 59, 0
1, 291118, Note_on_c, 0, 64, 67
1, 291170, Note_on_c, 0, 76, 0
1, 291201, Note_on_c, 0, 75, 78
1, 291215, Note_on_c, 0, 64, 0
1, 291222, Note_on_c, 0, 63, 63
1, 291239, Note_on_c, 0, 75, 0
1, 291259, Note_on_c, 0, 63, 0
1, 291280, Note_on_c, 0, 76, 75
1, 291284, Control_c, 0, 64, 71
1, 291289, Note_on_c, 0, 64, 65
1, 291372, Note_on_c, 0, 81, 87
1, 291388, Note_on_c, 0, 76, 0
1, 291399, Note_on_c, 0, 60, 72
1, 291408, Note_on_c, 0, 64, 0
1, 291448, Control_c, 0, 64, 68
1, 291463, Note_on_c, 0, 84, 82
1, 291464, Control_c, 0, 64, 54
1, 291471, Note_on_c, 0, 81, 0
1, 291483, Control_c, 0, 64, 33
1, 291485, Note_on_c, 0, 60, 0
1, 291494, Note_on_c, 0, 57, 65
1, 291502, Control_c, 0, 64, 16
1, 291554, Note_on_c, 0, 88, 90
1, 291557, Control_c, 0, 64, 27
1, 291564, Note_on_c, 0, 57, 0
1, 291567, Note_on_c, 0, 52, 73
1, 291569, Note_on_c, 0, 84, 0
1, 291576, Control_c, 0, 64, 45
1, 291596, Control_c, 0, 64, 61
1, 291615, Control_c, 0, 64, 70
1, 291632, Control_c, 0, 64, 73
1, 291638, Note_on_c, 0, 83, 82
1, 291660, Note_on_c, 0, 56, 73
1, 291668, Control_c, 0, 64, 76
1, 291674, Note_on_c, 0, 88, 0
1, 291686, Control_c, 0, 64, 78
1, 291697, Note_on_c, 0, 52, 0
1, 291705, Control_c, 0, 64, 81
1, 291717, Note_on_c, 0, 80, 80
1, 291722, Control_c, 0, 64, 85
1, 291724, Note_on_c, 0, 83, 0
1, 291730, Note_on_c, 0, 59, 71
1, 291741, Control_c, 0, 64, 90
1, 291754, Note_on_c, 0, 56, 0
1, 291760, Control_c, 0, 64, 94
1, 291805, Note_on_c, 0, 76, 85
1, 291809, Note_on_c, 0, 64, 73
1, 291813, Control_c, 0, 64, 81
1, 291814, Note_on_c, 0, 59, 0
1, 291817, Note_on_c, 0, 80, 0
1, 291833, Control_c, 0, 64, 59
1, 291852, Control_c, 0, 64, 34
1, 291873, Note_on_c, 0, 76, 0
1, 291896, Note_on_c, 0, 52, 80
1, 291896, Note_on_c, 0, 88, 106
1, 291903, Note_on_c, 0, 64, 0
1, 291909, Control_c, 0, 64, 48
1, 291927, Control_c, 0, 64, 65
1, 291945, Control_c, 0, 64, 75
1, 291962, Control_c, 0, 64, 82
1, 291976, Note_on_c, 0, 57, 78
1, 291979, Control_c, 0, 64, 86
1, 291980, Note_on_c, 0, 84, 90
1, 292019, Control_c, 0, 64, 93
1, 292024, Note_on_c, 0, 88, 0
1, 292031, Note_on_c, 0, 52, 0
1, 292035, Control_c, 0, 64, 97
1, 292042, Note_on_c, 0, 60, 80
1, 292053, Control_c, 0, 64, 101
1, 292061, Note_on_c, 0, 81, 82
1, 292074, Control_c, 0, 64, 105
1, 292084, Note_on_c, 0, 57, 0
1, 292106, Note_on_c, 0, 84, 0
1, 292108, Control_c, 0, 64, 110
1, 292139, Note_on_c, 0, 60, 0
1, 292140, Note_on_c, 0, 76, 90
1, 292143, Note_on_c, 0, 64, 73
1, 292154, Note_on_c, 0, 81, 0
1, 292165, Control_c, 0, 64, 103
1, 292182, Control_c, 0, 64, 81
1, 292201, Control_c, 0, 64, 51
1, 292211, Note_on_c, 0, 76, 0
1, 292214, Note_on_c, 0, 52, 82
1, 292219, Control_c, 0, 64, 28
1, 292222, Note_on_c, 0, 88, 105
1, 292238, Note_on_c, 0, 64, 0
1, 292270, Control_c, 0, 64, 35
1, 292290, Control_c, 0, 64, 55
1, 292308, Control_c, 0, 64, 70
1, 292309, Note_on_c, 0, 56, 77
1, 292322, Note_on_c, 0, 83, 86
1, 292326, Control_c, 0, 64, 79
1, 292345, Control_c, 0, 64, 87
1, 292357, Note_on_c, 0, 52, 0
1, 292363, Control_c, 0, 64, 94
1, 292383, Control_c, 0, 64, 99
1, 292384, Note_on_c, 0, 59, 77
1, 292386, Note_on_c, 0, 88, 0
1, 292400, Control_c, 0, 64, 104
1, 292406, Note_on_c, 0, 80, 85
1, 292420, Note_on_c, 0, 56, 0
1, 292420, Control_c, 0, 64, 108
1, 292421, Note_on_c, 0, 83, 0
1, 292438, Control_c, 0, 64, 112
1, 292473, Note_on_c, 0, 64, 72
1, 292474, Note_on_c, 0, 59, 0
1, 292475, Control_c, 0, 64, 117
1, 292483, Note_on_c, 0, 76, 87
1, 292504, Note_on_c, 0, 80, 0
1, 292549, Control_c, 0, 64, 96
1, 292562, Note_on_c, 0, 76, 0
1, 292563, Note_on_c, 0, 52, 80
1, 292569, Control_c, 0, 64, 66
1, 292574, Note_on_c, 0, 64, 0
1, 292576, Note_on_c, 0, 88, 107
1, 292585, Control_c, 0, 64, 32
1, 292604, Control_c, 0, 64, 27
1, 292622, Control_c, 0, 64, 35
1, 292642, Control_c, 0, 64, 59
1, 292651, Note_on_c, 0, 57, 72
1, 292659, Control_c, 0, 64, 79
1, 292663, Note_on_c, 0, 84, 91
1, 292677, Control_c, 0, 64, 99
1, 292689, Note_on_c, 0, 52, 0
1, 292694, Control_c, 0, 64, 114
1, 292707, Note_on_c, 0, 88, 0
1, 292710, Note_on_c, 0, 60, 73
1, 292734, Control_c, 0, 64, 118
1, 292752, Note_on_c, 0, 81, 86
1, 292758, Note_on_c, 0, 57, 0
1, 292789, Control_c, 0, 64, 124
1, 292796, Note_on_c, 0, 84, 0
1, 292800, Note_on_c, 0, 60, 0
1, 292805, Note_on_c, 0, 64, 71
1, 292830, Note_on_c, 0, 76, 84
1, 292855, Note_on_c, 0, 81, 0
1, 292886, Note_on_c, 0, 64, 0
1, 292917, Control_c, 0, 64, 116
1, 292935, Control_c, 0, 64, 67
1, 292945, Note_on_c, 0, 76, 0
1, 292954, Control_c, 0, 64, 0
1, 292967, Note_on_c, 0, 88, 108
1, 292977, Note_on_c, 0, 64, 79
1, 292980, Note_on_c, 0, 52, 76
1, 292980, Note_on_c, 0, 59, 75
1, 292985, Note_on_c, 0, 56, 70
1, 293045, Control_c, 0, 64, 33
1, 293065, Control_c, 0, 64, 52
1, 293083, Control_c, 0, 64, 63
1, 293097, Note_on_c, 0, 83, 80
1, 293101, Control_c, 0, 64, 67
1, 293149, Note_on_c, 0, 88, 0
1, 293155, Control_c, 0, 64, 69
1, 293178, Note_on_c, 0, 80, 82
1, 293203, Note_on_c, 0, 83, 0
1, 293268, Note_on_c, 0, 80, 0
1, 293276, Note_on_c, 0, 76, 77
1, 293336, Note_on_c, 0, 76, 0
1, 293352, Note_on_c, 0, 83, 86
1, 293441, Note_on_c, 0, 80, 79
1, 293475, Note_on_c, 0, 83, 0
1, 293524, Note_on_c, 0, 76, 56
1, 293540, Note_on_c, 0, 80, 0
1, 293540, Control_c, 0, 64, 71
1, 293576, Note_on_c, 0, 76, 0
1, 293603, Note_on_c, 0, 71, 71
1, 293650, Control_c, 0, 64, 73
1, 293663, Note_on_c, 0, 71, 0
1, 293692, Note_on_c, 0, 80, 88
1, 293742, Control_c, 0, 64, 75
1, 293778, Note_on_c, 0, 76, 77
1, 293798, Control_c, 0, 64, 78
1, 293819, Note_on_c, 0, 80, 0
1, 293833, Control_c, 0, 64, 80
1, 293847, Note_on_c, 0, 64, 0
1, 293861, Note_on_c, 0, 71, 71
1, 293890, Control_c, 0, 64, 82
1, 293914, Note_on_c, 0, 76, 0
1, 293936, Note_on_c, 0, 68, 80
1, 293948, Note_on_c, 0, 71, 0
1, 293990, Note_on_c, 0, 68, 0
1, 294037, Note_on_c, 0, 76, 94
1, 294039, Note_on_c, 0, 59, 0
1, 294076, Note_on_c, 0, 56, 0
1, 294118, Note_on_c, 0, 71, 80
1, 294164, Note_on_c, 0, 52, 0
1, 294172, Note_on_c, 0, 76, 0
1, 294224, Note_on_c, 0, 68, 78
1, 294235, Note_on_c, 0, 71, 0
1, 294294, Note_on_c, 0, 68, 0
1, 294309, Note_on_c, 0, 64, 80
1, 294381, Note_on_c, 0, 64, 0
1, 294402, Note_on_c, 0, 71, 81
1, 294488, Note_on_c, 0, 68, 76
1, 294521, Note_on_c, 0, 71, 0
1, 294564, Note_on_c, 0, 64, 60
1, 294595, Note_on_c, 0, 68, 0
1, 294632, Note_on_c, 0, 64, 0
1, 294662, Note_on_c, 0, 59, 77
1, 294744, Note_on_c, 0, 59, 0
1, 294758, Note_on_c, 0, 68, 87
1, 294838, Note_on_c, 0, 64, 72
1, 294841, Control_c, 0, 64, 84
1, 294878, Note_on_c, 0, 68, 0
1, 294929, Note_on_c, 0, 59, 66
1, 294986, Note_on_c, 0, 64, 0
1, 295001, Note_on_c, 0, 56, 80
1, 295016, Note_on_c, 0, 59, 0
1, 295045, Note_on_c, 0, 56, 0
1, 295045, Control_c, 0, 64, 86
1, 295113, Note_on_c, 0, 64, 94
1, 295180, Note_on_c, 0, 59, 78
1, 295261, Note_on_c, 0, 56, 77
1, 295281, Control_c, 0, 64, 90
1, 295346, Note_on_c, 0, 52, 77
1, 295460, Note_on_c, 0, 52, 0
1, 295460, Note_on_c, 0, 40, 84
1, 295469, Note_on_c, 0, 56, 0
1, 295506, Note_on_c, 0, 59, 0
1, 295553, Note_on_c, 0, 44, 82
1, 295558, Control_c, 0, 64, 94
1, 295594, Note_on_c, 0, 40, 0
1, 295599, Note_on_c, 0, 64, 0
1, 295646, Note_on_c, 0, 47, 87
1, 295653, Poly_aftertouch_c, 0, 41, 0
1, 295689, Control_c, 0, 64, 88
1, 295696, Note_on_c, 0, 44, 0
1, 295705, Control_c, 0, 64, 85
1, 295721, Note_on_c, 0, 52, 87
1, 295724, Control_c, 0, 64, 81
1, 295743, Control_c, 0, 64, 77
1, 295755, Note_on_c, 0, 47, 0
1, 295761, Control_c, 0, 64, 72
1, 295781, Control_c, 0, 64, 67
1, 295800, Control_c, 0, 64, 65
1, 295809, Note_on_c, 0, 40, 94
1, 295818, Control_c, 0, 64, 64
1, 295835, Note_on_c, 0, 52, 0
1, 295836, Control_c, 0, 64, 63
1, 295852, Control_c, 0, 64, 62
1, 295872, Control_c, 0, 64, 60
1, 295874, Note_on_c, 0, 40, 0
1, 295891, Control_c, 0, 64, 58
1, 295909, Control_c, 0, 64, 56
1, 295982, Control_c, 0, 64, 54
1, 295994, Note_on_c, 0, 52, 84
1, 296033, Control_c, 0, 64, 52
1, 296059, Note_on_c, 0, 52, 0
1, 296109, Control_c, 0, 64, 50
1, 296165, Control_c, 0, 64, 48
1, 296180, Note_on_c, 0, 42, 87
1, 296233, Note_on_c, 0, 42, 0
1, 296236, Control_c, 0, 64, 46
1, 296310, Control_c, 0, 64, 44
1, 296347, Note_on_c, 0, 54, 90
1, 296403, Note_on_c, 0, 54, 0
1, 296515, Note_on_c, 0, 76, 90
1, 296525, Note_on_c, 0, 44, 79
1, 296569, Note_on_c, 0, 44, 0
1, 296578, Note_on_c, 0, 76, 0
1, 296660, Control_c, 0, 64, 42
1, 296699, Note_on_c, 0, 56, 84
1, 296705, Note_on_c, 0, 64, 85
1, 296750, Note_on_c, 0, 56, 0
1, 296751, Note_on_c, 0, 64, 0
1, 296827, Control_c, 0, 64, 40
1, 296875, Note_on_c, 0, 78, 92
1, 296971, Note_on_c, 0, 78, 0
1, 297068, Note_on_c, 0, 66, 79
1, 297108, Note_on_c, 0, 66, 0
1, 297224, Note_on_c, 0, 44, 81
1, 297244, Note_on_c, 0, 80, 90
1, 297276, Note_on_c, 0, 44, 0
1, 297308, Note_on_c, 0, 80, 0
1, 297409, Note_on_c, 0, 56, 74
1, 297417, Note_on_c, 0, 68, 78
1, 297445, Note_on_c, 0, 56, 0
1, 297462, Note_on_c, 0, 68, 0
1, 297583, Note_on_c, 0, 45, 76
1, 297635, Note_on_c, 0, 45, 0
1, 297752, Note_on_c, 0, 57, 66
1, 297792, Note_on_c, 0, 57, 0
1, 297953, Note_on_c, 0, 80, 76
1, 297957, Note_on_c, 0, 47, 53
1, 298002, Note_on_c, 0, 47, 0
1, 298028, Note_on_c, 0, 80, 0
1, 298126, Note_on_c, 0, 68, 63
1, 298140, Note_on_c, 0, 59, 52
1, 298164, Note_on_c, 0, 68, 0
1, 298181, Note_on_c, 0, 59, 0
1, 298307, Note_on_c, 0, 81, 70
1, 298358, Note_on_c, 0, 81, 0
1, 298489, Note_on_c, 0, 69, 58
1, 298514, Note_on_c, 0, 69, 0
1, 298656, Note_on_c, 0, 83, 70
1, 298714, Note_on_c, 0, 83, 0
1, 298849, Note_on_c, 0, 71, 67
1, 298885, Note_on_c, 0, 71, 0
1, 299027, Note_on_c, 0, 85, 82
1, 299090, Note_on_c, 0, 85, 0
1, 299195, Note_on_c, 0, 73, 74
1, 299233, Note_on_c, 0, 73, 0
1, 299368, Note_on_c, 0, 86, 87
1, 299375, Note_on_c, 0, 47, 63
1, 299415, Note_on_c, 0, 47, 0
1, 299431, Note_on_c, 0, 86, 0
1, 299536, Note_on_c, 0, 59, 64
1, 299538, Note_on_c, 0, 74, 76
1, 299576, Note_on_c, 0, 59, 0
1, 299583, Note_on_c, 0, 74, 0
1, 299710, Note_on_c, 0, 49, 69
1, 299718, Note_on_c, 0, 86, 83
1, 299776, Note_on_c, 0, 49, 0
1, 299791, Note_on_c, 0, 86, 0
1, 299902, Note_on_c, 0, 61, 66
1, 299906, Note_on_c, 0, 76, 73
1, 299947, Note_on_c, 0, 61, 0
1, 299952, Note_on_c, 0, 76, 0
1, 299996, Control_c, 0, 64, 36
1, 300078, Note_on_c, 0, 86, 77
1, 300079, Note_on_c, 0, 50, 57
1, 300090, Control_c, 0, 67, 9
1, 300125, Note_on_c, 0, 50, 0
1, 300137, Note_on_c, 0, 86, 0
1, 300142, Control_c, 0, 67, 16
1, 300180, Control_c, 0, 67, 21
1, 300217, Control_c, 0, 67, 26
1, 300234, Control_c, 0, 67, 30
1, 300238, Note_on_c, 0, 78, 72
1, 300246, Note_on_c, 0, 62, 57
1, 300253, Control_c, 0, 67, 35
1, 300274, Control_c, 0, 67, 42
1, 300292, Control_c, 0, 67, 48
1, 300294, Note_on_c, 0, 78, 0
1, 300296, Note_on_c, 0, 62, 0
1, 300310, Control_c, 0, 67, 53
1, 300347, Control_c, 0, 67, 60
1, 300384, Control_c, 0, 67, 67
1, 300420, Control_c, 0, 67, 74
1, 300423, Note_on_c, 0, 86, 70
1, 300429, Note_on_c, 0, 52, 48
1, 300440, Control_c, 0, 67, 78
1, 300457, Control_c, 0, 64, 32
1, 300470, Note_on_c, 0, 86, 0
1, 300473, Control_c, 0, 67, 84
1, 300477, Note_on_c, 0, 52, 0
1, 300514, Control_c, 0, 67, 90
1, 300531, Control_c, 0, 67, 94
1, 300550, Control_c, 0, 67, 98
1, 300570, Control_c, 0, 67, 102
1, 300588, Control_c, 0, 67, 107
1, 300598, Note_on_c, 0, 64, 50
1, 300599, Note_on_c, 0, 80, 62
1, 300604, Control_c, 0, 67, 111
1, 300642, Control_c, 0, 67, 120
1, 300644, Note_on_c, 0, 80, 0
1, 300652, Note_on_c, 0, 64, 0
1, 300660, Control_c, 0, 67, 125
1, 300793, Note_on_c, 0, 86, 69
1, 300794, Note_on_c, 0, 54, 49
1, 300843, Note_on_c, 0, 86, 0
1, 300849, Note_on_c, 0, 54, 0
1, 300969, Note_on_c, 0, 81, 60
1, 300976, Note_on_c, 0, 66, 43
1, 301014, Note_on_c, 0, 81, 0
1, 301020, Note_on_c, 0, 66, 0
1, 301159, Note_on_c, 0, 56, 51
1, 301166, Note_on_c, 0, 86, 56
1, 301207, Note_on_c, 0, 56, 0
1, 301208, Note_on_c, 0, 86, 0
1, 301284, Control_c, 0, 64, 22
1, 301303, Control_c, 0, 64, 0
1, 301364, Note_on_c, 0, 83, 56
1, 301387, Note_on_c, 0, 68, 39
1, 301437, Note_on_c, 0, 68, 0
1, 301451, Note_on_c, 0, 83, 0
1, 301467, Control_c, 0, 64, 20
1, 301485, Control_c, 0, 64, 34
1, 301505, Control_c, 0, 64, 45
1, 301523, Control_c, 0, 64, 61
1, 301540, Control_c, 0, 64, 70
1, 301558, Control_c, 0, 64, 73
1, 301577, Control_c, 0, 64, 76
1, 301596, Control_c, 0, 64, 78
1, 301627, Control_c, 0, 64, 82
1, 301647, Control_c, 0, 64, 85
1, 301665, Control_c, 0, 64, 89
1, 301702, Control_c, 0, 64, 94
1, 301813, Control_c, 0, 64, 98
1, 301861, Note_on_c, 0, 85, 68
1, 301889, Note_on_c, 0, 81, 50
1, 301894, Note_on_c, 0, 76, 45
1, 301896, Note_on_c, 0, 64, 40
1, 301901, Note_on_c, 0, 57, 36
1, 301904, Note_on_c, 0, 69, 33
1, 301923, Note_on_c, 0, 61, 35
1, 301930, Note_on_c, 0, 73, 25
1, 301942, Control_c, 0, 64, 93
1, 301962, Control_c, 0, 64, 75
1, 301979, Control_c, 0, 64, 44
1, 301998, Control_c, 0, 64, 0
1, 302052, Control_c, 0, 64, 20
1, 302072, Control_c, 0, 64, 42
1, 302088, Control_c, 0, 64, 65
1, 302108, Control_c, 0, 64, 77
1, 302125, Control_c, 0, 64, 88
1, 302143, Control_c, 0, 64, 96
1, 302163, Control_c, 0, 64, 100
1, 302175, Note_on_c, 0, 69, 0
1, 302188, Poly_aftertouch_c, 0, 57, 24
1, 302218, Control_c, 0, 64, 105
1, 302244, Note_on_c, 0, 57, 0
1, 302244, Poly_aftertouch_c, 0, 57, 0
1, 302254, Control_c, 0, 64, 109
1, 302265, Poly_aftertouch_c, 0, 73, 24
1, 302299, Note_on_c, 0, 64, 0
1, 302305, Note_on_c, 0, 73, 0
1, 302305, Poly_aftertouch_c, 0, 73, 0
1, 302306, Note_on_c, 0, 81, 0
1, 302306, Note_on_c, 0, 76, 0
1, 302309, Note_on_c, 0, 85, 0
1, 302311, Control_c, 0, 64, 114
1, 302329, Note_on_c, 0, 61, 0
1, 302365, Control_c, 0, 64, 119
1, 302367, Control_c, 0, 67, 120
1, 302383, Control_c, 0, 67, 113
1, 302403, Control_c, 0, 64, 125
1, 302403, Control_c, 0, 67, 101
1, 302421, Control_c, 0, 67, 83
1, 302440, Control_c, 0, 67, 58
1, 302459, Control_c, 0, 67, 28
1, 302475, Control_c, 0, 67, 0
1, 302719, Note_on_c, 0, 83, 71
1, 302729, Control_c, 0, 64, 105
1, 302749, Control_c, 0, 64, 74
1, 302754, Note_on_c, 0, 80, 51
1, 302759, Note_on_c, 0, 52, 36
1, 302759, Note_on_c, 0, 64, 33
1, 302766, Note_on_c, 0, 71, 25
1, 302767, Note_on_c, 0, 59, 29
1, 302768, Control_c, 0, 64, 46
1, 302773, Note_on_c, 0, 56, 31
1, 302784, Note_on_c, 0, 76, 36
1, 302786, Control_c, 0, 64, 41
1, 302803, Control_c, 0, 64, 44
1, 302822, Control_c, 0, 64, 61
1, 302841, Control_c, 0, 64, 76
1, 302850, Note_on_c, 0, 52, 0
1, 302858, Control_c, 0, 64, 89
1, 302876, Note_on_c, 0, 76, 0
1, 302878, Control_c, 0, 64, 100
1, 302880, Note_on_c, 0, 56, 0
1, 302884, Note_on_c, 0, 64, 0
1, 302892, Note_on_c, 0, 80, 0
1, 302896, Note_on_c, 0, 59, 0
1, 302896, Control_c, 0, 64, 105
1, 302899, Note_on_c, 0, 83, 0
1, 302934, Control_c, 0, 64, 111
1, 302945, Note_on_c, 0, 71, 0
1, 302970, Control_c, 0, 64, 118
1, 303007, Control_c, 0, 64, 124
1, 303151, Note_on_c, 0, 81, 75
1, 303168, Note_on_c, 0, 78, 61
1, 303170, Note_on_c, 0, 61, 51
1, 303181, Note_on_c, 0, 73, 40
1, 303187, Note_on_c, 0, 57, 40
1, 303190, Control_c, 0, 64, 104
1, 303190, Note_on_c, 0, 66, 42
1, 303194, Note_on_c, 0, 69, 41
1, 303207, Note_on_c, 0, 54, 43
1, 303209, Control_c, 0, 64, 71
1, 303228, Control_c, 0, 64, 41
1, 303246, Control_c, 0, 64, 37
1, 303262, Note_on_c, 0, 73, 0
1, 303263, Control_c, 0, 64, 42
1, 303282, Note_on_c, 0, 66, 0
1, 303282, Control_c, 0, 64, 61
1, 303300, Note_on_c, 0, 81, 0
1, 303300, Control_c, 0, 64, 78
1, 303320, Note_on_c, 0, 69, 0
1, 303320, Control_c, 0, 64, 94
1, 303323, Note_on_c, 0, 78, 0
1, 303331, Note_on_c, 0, 54, 0
1, 303331, Note_on_c, 0, 61, 0
1, 303339, Control_c, 0, 64, 110
1, 303358, Control_c, 0, 64, 118
1, 303359, Note_on_c, 0, 57, 0
1, 303395, Control_c, 0, 64, 124
1, 303643, Note_on_c, 0, 80, 62
1, 303666, Control_c, 0, 67, 8
1, 303675, Note_on_c, 0, 77, 49
1, 303681, Note_on_c, 0, 68, 39
1, 303690, Note_on_c, 0, 61, 37
1, 303702, Note_on_c, 0, 71, 33
1, 303707, Note_on_c, 0, 53, 34
1, 303708, Note_on_c, 0, 49, 33
1, 303712, Note_on_c, 0, 56, 35
1, 303738, Control_c, 0, 64, 99
1, 303758, Control_c, 0, 64, 65
1, 303777, Control_c, 0, 64, 29
1, 303794, Control_c, 0, 64, 24
1, 303814, Control_c, 0, 67, 12
1, 303832, Control_c, 0, 64, 36
1, 303851, Control_c, 0, 64, 57
1, 303852, Control_c, 0, 67, 16
1, 303869, Control_c, 0, 64, 76
1, 303889, Control_c, 0, 64, 89
1, 303891, Control_c, 0, 67, 25
1, 303906, Control_c, 0, 64, 102
1, 303907, Control_c, 0, 67, 29
1, 303924, Control_c, 0, 64, 109
1, 303926, Control_c, 0, 67, 33
1, 303942, Control_c, 0, 67, 37
1, 303960, Control_c, 0, 64, 115
1, 303962, Control_c, 0, 67, 41
1, 303975, Poly_aftertouch_c, 0, 68, 24
1, 303977, Control_c, 0, 67, 46
1, 303989, Note_on_c, 0, 61, 0
1, 303996, Control_c, 0, 67, 54
1, 304008, Note_on_c, 0, 80, 0
1, 304010, Note_on_c, 0, 77, 0
1, 304012, Note_on_c, 0, 68, 0
1, 304012, Poly_aftertouch_c, 0, 68, 0
1, 304015, Control_c, 0, 64, 119
1, 304016, Control_c, 0, 67, 62
1, 304028, Note_on_c, 0, 71, 0
1, 304032, Note_on_c, 0, 49, 0
1, 304034, Control_c, 0, 67, 71
1, 304054, Control_c, 0, 67, 79
1, 304067, Note_on_c, 0, 56, 0
1, 304070, Control_c, 0, 67, 88
1, 304087, Note_on_c, 0, 53, 0
1, 304090, Control_c, 0, 67, 97
1, 304109, Control_c, 0, 67, 108
1, 304127, Control_c, 0, 67, 121
1, 304144, Control_c, 0, 67, 127
1, 304538, Note_on_c, 0, 78, 51
1, 304571, Note_on_c, 0, 74, 41
1, 304585, Note_on_c, 0, 50, 34
1, 304587, Note_on_c, 0, 69, 34
1, 304588, Note_on_c, 0, 57, 32
1, 304596, Note_on_c, 0, 62, 30
1, 304609, Note_on_c, 0, 66, 19
1, 304613, Note_on_c, 0, 54, 32
1, 304675, Control_c, 0, 64, 112
1, 304693, Control_c, 0, 64, 90
1, 304713, Control_c, 0, 64, 54
1, 304729, Control_c, 0, 64, 0
1, 304822, Control_c, 0, 64, 20
1, 304841, Control_c, 0, 64, 46
1, 304860, Control_c, 0, 64, 71
1, 304868, Note_on_c, 0, 62, 0
1, 304878, Control_c, 0, 64, 89
1, 304896, Control_c, 0, 64, 105
1, 304915, Control_c, 0, 64, 113
1, 304916, Poly_aftertouch_c, 0, 66, 24
1, 304947, Note_on_c, 0, 66, 0
1, 304947, Poly_aftertouch_c, 0, 66, 0
1, 304977, Note_on_c, 0, 69, 0
1, 304982, Note_on_c, 0, 50, 0
1, 304988, Control_c, 0, 64, 118
1, 304994, Note_on_c, 0, 74, 0
1, 305016, Note_on_c, 0, 78, 0
1, 305035, Note_on_c, 0, 57, 0
1, 305044, Control_c, 0, 64, 122
1, 305051, Note_on_c, 0, 54, 0
1, 305477, Note_on_c, 0, 80, 60
1, 305515, Note_on_c, 0, 59, 40
1, 305518, Note_on_c, 0, 56, 37
1, 305523, Note_on_c, 0, 76, 40
1, 305523, Note_on_c, 0, 68, 33
1, 305533, Note_on_c, 0, 47, 31
1, 305537, Note_on_c, 0, 74, 30
1, 305545, Note_on_c, 0, 52, 33
1, 305574, Control_c, 0, 64, 104
1, 305594, Control_c, 0, 64, 75
1, 305610, Control_c, 0, 64, 42
1, 305628, Control_c, 0, 64, 28
1, 305665, Control_c, 0, 64, 36
1, 305685, Control_c, 0, 64, 56
1, 305703, Control_c, 0, 64, 76
1, 305722, Control_c, 0, 64, 95
1, 305742, Control_c, 0, 64, 113
1, 305757, Control_c, 0, 64, 121
1, 305796, Control_c, 0, 64, 125
1, 305798, Control_c, 0, 67, 123
1, 305810, Poly_aftertouch_c, 0, 47, 22
1, 305812, Control_c, 0, 67, 112
1, 305826, Note_on_c, 0, 47, 0
1, 305826, Poly_aftertouch_c, 0, 47, 0
1, 305830, Control_c, 0, 67, 97
1, 305849, Note_on_c, 0, 59, 0
1, 305849, Control_c, 0, 67, 78
1, 305868, Control_c, 0, 67, 56
1, 305886, Control_c, 0, 67, 34
1, 305906, Control_c, 0, 67, 13
1, 305922, Note_on_c, 0, 68, 0
1, 305922, Note_on_c, 0, 56, 0
1, 305927, Note_on_c, 0, 52, 0
1, 305943, Note_on_c, 0, 76, 0
1, 305961, Control_c, 0, 67, 0
1, 305970, Note_on_c, 0, 74, 0
1, 306002, Note_on_c, 0, 80, 0
1, 306325, Note_on_c, 0, 81, 67
1, 306348, Note_on_c, 0, 61, 43
1, 306355, Note_on_c, 0, 76, 49
1, 306357, Note_on_c, 0, 57, 31
1, 306375, Note_on_c, 0, 49, 36
1, 306377, Note_on_c, 0, 52, 41
1, 306379, Note_on_c, 0, 69, 35
1, 306382, Control_c, 0, 64, 106
1, 306399, Control_c, 0, 64, 77
1, 306418, Control_c, 0, 64, 53
1, 306437, Control_c, 0, 64, 49
1, 306455, Control_c, 0, 64, 54
1, 306472, Control_c, 0, 64, 69
1, 306491, Control_c, 0, 64, 85
1, 306499, Note_on_c, 0, 69, 0
1, 306510, Control_c, 0, 64, 105
1, 306512, Note_on_c, 0, 76, 0
1, 306527, Note_on_c, 0, 57, 0
1, 306527, Control_c, 0, 64, 121
1, 306533, Note_on_c, 0, 52, 0
1, 306541, Note_on_c, 0, 61, 0
1, 306542, Note_on_c, 0, 81, 0
1, 306545, Control_c, 0, 64, 125
1, 306562, Note_on_c, 0, 49, 0
1, 306757, Note_on_c, 0, 83, 77
1, 306784, Control_c, 0, 64, 118
1, 306788, Note_on_c, 0, 59, 49
1, 306790, Note_on_c, 0, 81, 51
1, 306793, Note_on_c, 0, 54, 42
1, 306794, Note_on_c, 0, 62, 46
1, 306797, Note_on_c, 0, 50, 39
1, 306803, Control_c, 0, 64, 84
1, 306805, Note_on_c, 0, 78, 37
1, 306810, Note_on_c, 0, 71, 36
1, 306822, Control_c, 0, 64, 45
1, 306840, Control_c, 0, 64, 26
1, 306878, Control_c, 0, 64, 46
1, 306897, Control_c, 0, 64, 72
1, 306917, Control_c, 0, 64, 92
1, 306923, Note_on_c, 0, 71, 0
1, 306932, Control_c, 0, 64, 115
1, 306935, Note_on_c, 0, 59, 0
1, 306937, Note_on_c, 0, 54, 0
1, 306951, Note_on_c, 0, 50, 0
1, 306951, Control_c, 0, 64, 123
1, 306952, Note_on_c, 0, 81, 0
1, 306966, Note_on_c, 0, 62, 0
1, 306970, Note_on_c, 0, 83, 0
1, 306988, Control_c, 0, 64, 127
1, 306989, Note_on_c, 0, 78, 0
1, 307198, Note_on_c, 0, 85, 80
1, 307212, Note_on_c, 0, 81, 62
1, 307220, Note_on_c, 0, 61, 47
1, 307238, Note_on_c, 0, 76, 48
1, 307242, Note_on_c, 0, 64, 36
1, 307243, Note_on_c, 0, 57, 41
1, 307248, Note_on_c, 0, 52, 44
1, 307249, Note_on_c, 0, 73, 46
1, 307279, Control_c, 0, 64, 115
1, 307298, Control_c, 0, 64, 67
1, 307316, Control_c, 0, 64, 0
1, 307373, Control_c, 0, 64, 12
1, 307391, Control_c, 0, 64, 44
1, 307408, Control_c, 0, 64, 72
1, 307428, Control_c, 0, 64, 94
1, 307446, Control_c, 0, 64, 120
1, 307463, Control_c, 0, 64, 127
1, 307681, Note_on_c, 0, 61, 0
1, 307706, Note_on_c, 0, 57, 0
1, 307759, Note_on_c, 0, 85, 0
1, 307762, Note_on_c, 0, 81, 0
1, 307803, Note_on_c, 0, 73, 0
1, 308094, Note_on_c, 0, 83, 81
1, 308112, Note_on_c, 0, 59, 44
1, 308114, Note_on_c, 0, 80, 66
1, 308138, Note_on_c, 0, 71, 49
1, 308161, Note_on_c, 0, 56, 41
1, 308233, Control_c, 0, 64, 91
1, 308252, Control_c, 0, 64, 37
1, 308270, Control_c, 0, 64, 0
1, 308279, Note_on_c, 0, 76, 0
1, 308326, Control_c, 0, 64, 35
1, 308343, Control_c, 0, 64, 67
1, 308362, Control_c, 0, 64, 95
1, 308381, Control_c, 0, 64, 126
1, 308561, Note_on_c, 0, 74, 74
1, 308621, Control_c, 0, 64, 94
1, 308639, Control_c, 0, 64, 54
1, 308656, Control_c, 0, 64, 32
1, 308676, Control_c, 0, 64, 36
1, 308693, Control_c, 0, 64, 63
1, 308712, Control_c, 0, 64, 98
1, 308731, Control_c, 0, 64, 127
1, 308749, Note_on_c, 0, 64, 0
1, 308751, Note_on_c, 0, 83, 0
1, 308769, Note_on_c, 0, 71, 0
1, 308775, Note_on_c, 0, 52, 0
1, 308776, Note_on_c, 0, 80, 0
1, 308788, Note_on_c, 0, 74, 0
1, 308814, Note_on_c, 0, 59, 0
1, 308878, Note_on_c, 0, 56, 0
1, 308952, Control_c, 0, 67, 9
1, 308970, Control_c, 0, 67, 17
1, 308990, Control_c, 0, 67, 33
1, 309008, Control_c, 0, 67, 54
1, 309027, Control_c, 0, 67, 75
1, 309043, Control_c, 0, 67, 91
1, 309061, Control_c, 0, 67, 105
1, 309081, Control_c, 0, 67, 118
1, 309099, Control_c, 0, 67, 127
1, 309273, Note_on_c, 0, 72, 49
1, 309297, Control_c, 0, 64, 120
1, 309307, Note_on_c, 0, 60, 37
1, 309315, Note_on_c, 0, 64, 33
1, 309317, Control_c, 0, 64, 101
1, 309326, Note_on_c, 0, 69, 24
1, 309335, Control_c, 0, 64, 74
1, 309337, Note_on_c, 0, 57, 34
1, 309352, Control_c, 0, 64, 38
1, 309371, Control_c, 0, 64, 0
1, 309576, Control_c, 0, 64, 35
1, 309592, Control_c, 0, 64, 51
1, 309610, Control_c, 0, 64, 70
1, 309628, Control_c, 0, 64, 82
1, 309647, Control_c, 0, 64, 93
1, 309666, Control_c, 0, 64, 100
1, 309686, Control_c, 0, 64, 105
1, 309715, Poly_aftertouch_c, 0, 69, 24
1, 309721, Control_c, 0, 64, 110
1, 309744, Note_on_c, 0, 64, 0
1, 309753, Note_on_c, 0, 69, 0
1, 309753, Poly_aftertouch_c, 0, 69, 0
1, 309770, Note_on_c, 0, 57, 0
1, 309776, Control_c, 0, 64, 114
1, 309924, Control_c, 0, 64, 118
1, 310246, Note_on_c, 0, 71, 55
1, 310254, Note_on_c, 0, 67, 39
1, 310275, Note_on_c, 0, 52, 37
1, 310281, Note_on_c, 0, 59, 34
1, 310284, Note_on_c, 0, 64, 31
1, 310287, Control_c, 0, 64, 108
1, 310295, Note_on_c, 0, 55, 23
1, 310306, Note_on_c, 0, 72, 0
1, 310307, Control_c, 0, 64, 91
1, 310319, Note_on_c, 0, 60, 0
1, 310324, Control_c, 0, 64, 68
1, 310344, Control_c, 0, 64, 52
1, 310381, Control_c, 0, 64, 56
1, 310401, Control_c, 0, 64, 68
1, 310418, Control_c, 0, 64, 78
1, 310426, Note_on_c, 0, 67, 0
1, 310438, Control_c, 0, 64, 91
1, 310456, Control_c, 0, 64, 102
1, 310464, Note_on_c, 0, 55, 0
1, 310472, Control_c, 0, 64, 108
1, 310481, Note_on_c, 0, 52, 0
1, 310489, Note_on_c, 0, 64, 0
1, 310528, Control_c, 0, 64, 112
1, 310564, Control_c, 0, 64, 116
1, 310622, Control_c, 0, 64, 120
1, 310695, Note_on_c, 0, 71, 0
1, 310698, Note_on_c, 0, 69, 60
1, 310711, Control_c, 0, 64, 116
1, 310723, Note_on_c, 0, 65, 39
1, 310730, Control_c, 0, 64, 97
1, 310748, Note_on_c, 0, 57, 31
1, 310748, Control_c, 0, 64, 69
1, 310753, Note_on_c, 0, 60, 23
1, 310766, Control_c, 0, 64, 40
1, 310767, Note_on_c, 0, 53, 30
1, 310774, Note_on_c, 0, 59, 0
1, 310785, Control_c, 0, 64, 33
1, 310823, Control_c, 0, 64, 41
1, 310841, Control_c, 0, 64, 61
1, 310857, Note_on_c, 0, 60, 0
1, 310860, Note_on_c, 0, 65, 0
1, 310860, Control_c, 0, 64, 78
1, 310879, Control_c, 0, 64, 92
1, 310898, Control_c, 0, 64, 102
1, 310909, Note_on_c, 0, 53, 0
1, 310914, Control_c, 0, 64, 106
1, 311060, Control_c, 0, 64, 110
1, 311180, Note_on_c, 0, 67, 53
1, 311200, Note_on_c, 0, 64, 39
1, 311214, Note_on_c, 0, 60, 33
1, 311236, Note_on_c, 0, 55, 30
1, 311241, Note_on_c, 0, 69, 0
1, 311248, Note_on_c, 0, 48, 30
1, 311260, Note_on_c, 0, 52, 30
1, 311276, Note_on_c, 0, 57, 0
1, 311298, Control_c, 0, 64, 97
1, 311317, Control_c, 0, 64, 74
1, 311335, Control_c, 0, 64, 39
1, 311353, Control_c, 0, 64, 0
1, 311446, Control_c, 0, 64, 14
1, 311463, Control_c, 0, 64, 41
1, 311482, Control_c, 0, 64, 65
1, 311499, Control_c, 0, 64, 80
1, 311520, Control_c, 0, 64, 91
1, 311538, Control_c, 0, 64, 99
1, 311555, Note_on_c, 0, 64, 0
1, 311571, Poly_aftertouch_c, 0, 60, 24
1, 311574, Control_c, 0, 64, 104
1, 311580, Note_on_c, 0, 48, 0
1, 311609, Note_on_c, 0, 60, 0
1, 311609, Poly_aftertouch_c, 0, 60, 0
1, 311617, Note_on_c, 0, 52, 0
1, 311683, Control_c, 0, 64, 109
1, 312021, Note_on_c, 0, 55, 0
1, 312128, Note_on_c, 0, 65, 43
1, 312151, Note_on_c, 0, 57, 29
1, 312154, Note_on_c, 0, 62, 34
1, 312160, Note_on_c, 0, 53, 24
1, 312165, Note_on_c, 0, 50, 34
1, 312233, Control_c, 0, 64, 94
1, 312253, Control_c, 0, 64, 69
1, 312262, Note_on_c, 0, 67, 0
1, 312271, Control_c, 0, 64, 26
1, 312289, Control_c, 0, 64, 0
1, 312399, Control_c, 0, 64, 32
1, 312417, Control_c, 0, 64, 52
1, 312435, Control_c, 0, 64, 70
1, 312454, Control_c, 0, 64, 78
1, 312473, Control_c, 0, 64, 84
1, 312492, Control_c, 0, 64, 87
1, 312506, Poly_aftertouch_c, 0, 57, 24
1, 312530, Control_c, 0, 64, 92
1, 312547, Note_on_c, 0, 57, 0
1, 312547, Poly_aftertouch_c, 0, 57, 0
1, 312566, Control_c, 0, 64, 98
1, 312601, Note_on_c, 0, 50, 0
1, 312614, Note_on_c, 0, 62, 0
1, 312657, Control_c, 0, 64, 102
1, 312665, Note_on_c, 0, 65, 0
1, 312698, Poly_aftertouch_c, 0, 53, 24
1, 312816, Note_on_c, 0, 53, 0
1, 312816, Poly_aftertouch_c, 0, 53, 0
1, 313157, Note_on_c, 0, 67, 61
1, 313183, Note_on_c, 0, 64, 44
1, 313192, Note_on_c, 0, 52, 37
1, 313192, Note_on_c, 0, 48, 36
1, 313201, Note_on_c, 0, 43, 36
1, 313208, Control_c, 0, 64, 89
1, 313209, Note_on_c, 0, 60, 36
1, 313225, Control_c, 0, 64, 65
1, 313245, Control_c, 0, 64, 32
1, 313260, Control_c, 0, 64, 16
1, 313317, Control_c, 0, 64, 36
1, 313334, Control_c, 0, 64, 57
1, 313353, Control_c, 0, 64, 73
1, 313371, Control_c, 0, 64, 83
1, 313390, Control_c, 0, 64, 91
1, 313399, Note_on_c, 0, 64, 0
1, 313405, Note_on_c, 0, 60, 0
1, 313418, Note_on_c, 0, 52, 0
1, 313427, Control_c, 0, 64, 95
1, 313697, Note_on_c, 0, 65, 49
1, 313704, Control_c, 0, 64, 89
1, 313722, Control_c, 0, 64, 87
1, 313730, Note_on_c, 0, 62, 39
1, 313739, Control_c, 0, 64, 83
1, 313753, Note_on_c, 0, 50, 29
1, 313753, Note_on_c, 0, 53, 36
1, 313758, Control_c, 0, 64, 76
1, 313774, Note_on_c, 0, 48, 0
1, 313777, Control_c, 0, 64, 62
1, 313809, Control_c, 0, 64, 43
1, 313828, Control_c, 0, 64, 17
1, 313846, Control_c, 0, 64, 0
1, 314110, Note_on_c, 0, 69, 62
1, 314148, Note_on_c, 0, 67, 0
1, 314495, Note_on_c, 0, 69, 0
1, 314541, Note_on_c, 0, 71, 49
1, 314585, Control_c, 0, 64, 15
1, 314588, Note_on_c, 0, 65, 0
1, 314603, Control_c, 0, 64, 40
1, 314610, Note_on_c, 0, 43, 0
1, 314621, Control_c, 0, 64, 57
1, 314630, Note_on_c, 0, 50, 0
1, 314639, Control_c, 0, 64, 71
1, 314643, Note_on_c, 0, 53, 0
1, 314658, Control_c, 0, 64, 79
1, 314672, Poly_aftertouch_c, 0, 62, 24
1, 314675, Control_c, 0, 64, 85
1, 314685, Note_on_c, 0, 71, 0
1, 314693, Control_c, 0, 64, 91
1, 314705, Note_on_c, 0, 62, 0
1, 314705, Poly_aftertouch_c, 0, 62, 0
1, 314712, Control_c, 0, 64, 96
1, 314745, Control_c, 0, 64, 100
1, 314783, Control_c, 0, 64, 104
1, 314838, Control_c, 0, 64, 109
1, 315053, Note_on_c, 0, 64, 40
1, 315061, Note_on_c, 0, 72, 42
1, 315062, Note_on_c, 0, 60, 37
1, 315068, Note_on_c, 0, 52, 35
1, 315076, Control_c, 0, 64, 102
1, 315077, Note_on_c, 0, 48, 38
1, 315095, Control_c, 0, 64, 93
1, 315109, Note_on_c, 0, 64, 0
1, 315112, Control_c, 0, 64, 82
1, 315132, Control_c, 0, 64, 69
1, 315152, Control_c, 0, 64, 58
1, 315204, Control_c, 0, 64, 56
1, 315245, Note_on_c, 0, 72, 0
1, 315260, Control_c, 0, 64, 53
1, 315263, Note_on_c, 0, 74, 55
1, 315297, Control_c, 0, 64, 51
1, 315390, Note_on_c, 0, 76, 65
1, 315390, Control_c, 0, 64, 49
1, 315404, Note_on_c, 0, 74, 0
1, 315460, Note_on_c, 0, 76, 0
1, 315511, Note_on_c, 0, 77, 70
1, 315558, Poly_aftertouch_c, 0, 60, 24
1, 315576, Control_c, 0, 64, 47
1, 315601, Note_on_c, 0, 48, 0
1, 315611, Control_c, 0, 64, 45
1, 315618, Note_on_c, 0, 60, 0
1, 315618, Poly_aftertouch_c, 0, 60, 0
1, 315625, Note_on_c, 0, 77, 0
1, 315630, Note_on_c, 0, 79, 72
1, 315638, Poly_aftertouch_c, 0, 52, 24
1, 315649, Control_c, 0, 64, 42
1, 315699, Control_c, 0, 64, 40
1, 315739, Note_on_c, 0, 52, 0
1, 315739, Poly_aftertouch_c, 0, 52, 0
1, 315748, Note_on_c, 0, 79, 0
1, 315772, Note_on_c, 0, 81, 73
1, 315772, Control_c, 0, 64, 36
1, 315862, Note_on_c, 0, 81, 0
1, 315872, Note_on_c, 0, 82, 71
1, 315933, Note_on_c, 0, 82, 0
1, 315987, Note_on_c, 0, 83, 62
1, 316065, Note_on_c, 0, 83, 0
1, 316101, Note_on_c, 0, 84, 67
1, 316214, Note_on_c, 0, 84, 0
1, 316225, Note_on_c, 0, 85, 71
1, 316298, Note_on_c, 0, 85, 0
1, 316355, Note_on_c, 0, 86, 60
1, 316451, Note_on_c, 0, 86, 0
1, 316477, Note_on_c, 0, 87, 58
1, 316585, Control_c, 0, 64, 32
1, 316610, Note_on_c, 0, 87, 0
1, 316629, Note_on_c, 0, 88, 55
1, 316655, Note_on_c, 0, 84, 38
1, 316671, Note_on_c, 0, 76, 74
1, 316720, Note_on_c, 0, 72, 47
1, 316787, Note_on_c, 0, 88, 0
1, 316802, Control_c, 0, 67, 116
1, 316820, Control_c, 0, 64, 44
1, 316821, Control_c, 0, 67, 99
1, 316836, Control_c, 0, 64, 58
1, 316837, Control_c, 0, 67, 74
1, 316845, Note_on_c, 0, 87, 51
1, 316856, Control_c, 0, 64, 70
1, 316857, Control_c, 0, 67, 41
1, 316876, Control_c, 0, 64, 76
1, 316877, Control_c, 0, 67, 9
1, 316893, Control_c, 0, 64, 82
1, 316893, Control_c, 0, 67, 0
1, 316911, Control_c, 0, 64, 85
1, 316944, Note_on_c, 0, 87, 0
1, 316948, Control_c, 0, 64, 93
1, 316952, Note_on_c, 0, 88, 58
1, 316967, Control_c, 0, 64, 98
1, 316984, Control_c, 0, 64, 102
1, 317038, Note_on_c, 0, 88, 0
1, 317051, Note_on_c, 0, 72, 0
1, 317075, Note_on_c, 0, 89, 58
1, 317075, Control_c, 0, 64, 107
1, 317118, Note_on_c, 0, 76, 0
1, 317189, Note_on_c, 0, 89, 0
1, 317198, Note_on_c, 0, 87, 49
1, 317204, Poly_aftertouch_c, 0, 84, 24
1, 317205, Control_c, 0, 64, 111
1, 317249, Note_on_c, 0, 84, 0
1, 317249, Poly_aftertouch_c, 0, 84, 0
1, 317299, Note_on_c, 0, 88, 50
1, 317331, Note_on_c, 0, 87, 0
1, 317389, Note_on_c, 0, 88, 0
1, 317451, Note_on_c, 0, 83, 54
1, 317469, Note_on_c, 0, 77, 70
1, 317515, Note_on_c, 0, 74, 46
1, 317519, Control_c, 0, 64, 99
1, 317547, Note_on_c, 0, 71, 41
1, 317549, Note_on_c, 0, 68, 37
1, 317551, Control_c, 0, 64, 81
1, 317570, Control_c, 0, 64, 63
1, 317589, Control_c, 0, 64, 57
1, 317608, Control_c, 0, 64, 60
1, 317620, Note_on_c, 0, 88, 49
1, 317626, Control_c, 0, 64, 67
1, 317631, Note_on_c, 0, 74, 0
1, 317646, Control_c, 0, 64, 75
1, 317664, Control_c, 0, 64, 87
1, 317667, Note_on_c, 0, 83, 0
1, 317669, Note_on_c, 0, 68, 0
1, 317683, Control_c, 0, 64, 100
1, 317690, Note_on_c, 0, 71, 0
1, 317700, Control_c, 0, 64, 108
1, 317736, Control_c, 0, 64, 112
1, 317743, Note_on_c, 0, 86, 58
1, 317791, Control_c, 0, 64, 116
1, 317795, Note_on_c, 0, 88, 0
1, 317799, Note_on_c, 0, 86, 0
1, 317883, Note_on_c, 0, 81, 57
1, 317891, Note_on_c, 0, 76, 72
1, 317902, Control_c, 0, 64, 98
1, 317920, Control_c, 0, 64, 73
1, 317926, Note_on_c, 0, 77, 0
1, 317939, Control_c, 0, 64, 49
1, 317942, Note_on_c, 0, 72, 45
1, 317952, Note_on_c, 0, 69, 39
1, 317959, Control_c, 0, 64, 46
1, 317977, Control_c, 0, 64, 48
1, 317994, Control_c, 0, 64, 62
1, 318013, Control_c, 0, 64, 76
1, 318021, Note_on_c, 0, 69, 0
1, 318032, Note_on_c, 0, 86, 58
1, 318032, Control_c, 0, 64, 89
1, 318050, Control_c, 0, 64, 99
1, 318051, Note_on_c, 0, 72, 0
1, 318068, Control_c, 0, 64, 103
1, 318154, Note_on_c, 0, 86, 0
1, 318155, Note_on_c, 0, 84, 52
1, 318312, Note_on_c, 0, 84, 0
1, 318343, Note_on_c, 0, 74, 52
1, 318348, Note_on_c, 0, 80, 47
1, 318354, Note_on_c, 0, 81, 0
1, 318362, Note_on_c, 0, 76, 0
1, 318388, Note_on_c, 0, 64, 43
1, 318395, Note_on_c, 0, 71, 39
1, 318407, Note_on_c, 0, 68, 40
1, 318418, Control_c, 0, 64, 89
1, 318419, Control_c, 0, 67, 8
1, 318437, Control_c, 0, 64, 67
1, 318456, Control_c, 0, 64, 31
1, 318488, Control_c, 0, 64, 0
1, 318549, Note_on_c, 0, 82, 50
1, 318561, Control_c, 0, 67, 12
1, 318598, Control_c, 0, 64, 26
1, 318616, Control_c, 0, 64, 51
1, 318618, Control_c, 0, 67, 17
1, 318629, Note_on_c, 0, 82, 0
1, 318635, Control_c, 0, 64, 71
1, 318654, Control_c, 0, 64, 81
1, 318673, Control_c, 0, 64, 89
1, 318676, Control_c, 0, 67, 24
1, 318677, Note_on_c, 0, 83, 50
1, 318691, Control_c, 0, 64, 94
1, 318693, Control_c, 0, 67, 28
1, 318709, Control_c, 0, 67, 33
1, 318727, Control_c, 0, 64, 100
1, 318728, Control_c, 0, 67, 37
1, 318755, Note_on_c, 0, 83, 0
1, 318763, Control_c, 0, 67, 42
1, 318788, Note_on_c, 0, 84, 53
1, 318800, Control_c, 0, 67, 48
1, 318818, Control_c, 0, 67, 52
1, 318833, Note_on_c, 0, 71, 0
1, 318836, Note_on_c, 0, 64, 0
1, 318837, Control_c, 0, 67, 56
1, 318856, Control_c, 0, 67, 60
1, 318878, Note_on_c, 0, 68, 0
1, 318893, Control_c, 0, 67, 67
1, 318912, Control_c, 0, 67, 72
1, 318914, Note_on_c, 0, 84, 0
1, 318932, Control_c, 0, 67, 79
1, 318938, Note_on_c, 0, 82, 48
1, 318948, Control_c, 0, 67, 88
1, 318966, Control_c, 0, 67, 97
1, 318987, Control_c, 0, 67, 105
1, 319003, Control_c, 0, 67, 110
1, 319013, Note_on_c, 0, 82, 0
1, 319013, Poly_aftertouch_c, 0, 80, 24
1, 319019, Control_c, 0, 67, 116
1, 319036, Note_on_c, 0, 83, 50
1, 319038, Control_c, 0, 67, 122
1, 319058, Control_c, 0, 67, 127
1, 319075, Note_on_c, 0, 80, 0
1, 319075, Poly_aftertouch_c, 0, 80, 0
1, 319171, Note_on_c, 0, 83, 0
1, 319212, Note_on_c, 0, 77, 47
1, 319224, Note_on_c, 0, 72, 48
1, 319249, Note_on_c, 0, 69, 38
1, 319267, Note_on_c, 0, 65, 32
1, 319314, Note_on_c, 0, 74, 0
1, 319314, Control_c, 0, 64, 93
1, 319335, Control_c, 0, 64, 74
1, 319353, Control_c, 0, 64, 48
1, 319372, Control_c, 0, 64, 28
1, 319386, Note_on_c, 0, 80, 44
1, 319441, Control_c, 0, 64, 32
1, 319460, Control_c, 0, 64, 50
1, 319479, Control_c, 0, 64, 68
1, 319491, Note_on_c, 0, 80, 0
1, 319496, Control_c, 0, 64, 78
1, 319510, Note_on_c, 0, 81, 46
1, 319514, Control_c, 0, 64, 87
1, 319533, Control_c, 0, 64, 93
1, 319535, Poly_aftertouch_c, 0, 65, 24
1, 319551, Control_c, 0, 64, 98
1, 319577, Note_on_c, 0, 65, 0
1, 319577, Poly_aftertouch_c, 0, 65, 0
1, 319588, Control_c, 0, 64, 102
1, 319591, Note_on_c, 0, 81, 0
1, 319615, Note_on_c, 0, 69, 0
1, 319631, Note_on_c, 0, 83, 52
1, 319681, Control_c, 0, 64, 106
1, 319729, Poly_aftertouch_c, 0, 77, 24
1, 319745, Note_on_c, 0, 83, 0
1, 319766, Note_on_c, 0, 80, 48
1, 319774, Control_c, 0, 67, 121
1, 319810, Control_c, 0, 67, 113
1, 319812, Note_on_c, 0, 77, 0
1, 319812, Poly_aftertouch_c, 0, 77, 0
1, 319829, Control_c, 0, 67, 107
1, 319848, Control_c, 0, 67, 101
1, 319863, Note_on_c, 0, 80, 0
1, 319866, Control_c, 0, 67, 92
1, 319878, Note_on_c, 0, 81, 45
1, 319883, Control_c, 0, 67, 81
1, 319888, Note_on_c, 0, 72, 0
1, 319901, Control_c, 0, 67, 67
1, 319921, Control_c, 0, 67, 52
1, 319939, Control_c, 0, 67, 37
1, 319956, Control_c, 0, 67, 23
1, 319965, Note_on_c, 0, 81, 0
1, 319973, Control_c, 0, 67, 11
1, 320039, Note_on_c, 0, 77, 43
1, 320066, Note_on_c, 0, 71, 60
1, 320068, Control_c, 0, 67, 0
1, 320108, Note_on_c, 0, 67, 42
1, 320119, Note_on_c, 0, 62, 36
1, 320130, Note_on_c, 0, 65, 36
1, 320160, Control_c, 0, 64, 95
1, 320179, Control_c, 0, 64, 75
1, 320197, Control_c, 0, 64, 50
1, 320216, Control_c, 0, 64, 38
1, 320217, Note_on_c, 0, 82, 41
1, 320273, Control_c, 0, 64, 50
1, 320284, Poly_aftertouch_c, 0, 77, 24
1, 320289, Control_c, 0, 64, 65
1, 320307, Control_c, 0, 64, 74
1, 320327, Control_c, 0, 64, 81
1, 320350, Note_on_c, 0, 83, 54
1, 320359, Control_c, 0, 64, 85
1, 320360, Note_on_c, 0, 82, 0
1, 320377, Control_c, 0, 64, 87
1, 320452, Control_c, 0, 64, 91
1, 320461, Note_on_c, 0, 83, 0
1, 320476, Note_on_c, 0, 62, 0
1, 320483, Note_on_c, 0, 84, 58
1, 320538, Note_on_c, 0, 65, 0
1, 320556, Poly_aftertouch_c, 0, 77, 32
1, 320560, Note_on_c, 0, 67, 0
1, 320575, Note_on_c, 0, 71, 0
1, 320596, Note_on_c, 0, 82, 63
1, 320596, Control_c, 0, 64, 95
1, 320607, Note_on_c, 0, 84, 0
1, 320678, Note_on_c, 0, 77, 0
1, 320678, Poly_aftertouch_c, 0, 77, 0
1, 320679, Poly_aftertouch_c, 0, 77, 0
1, 320719, Note_on_c, 0, 83, 62
1, 320726, Control_c, 0, 64, 99
1, 320768, Note_on_c, 0, 82, 0
1, 320784, Control_c, 0, 64, 104
1, 320793, Note_on_c, 0, 83, 0
1, 320869, Note_on_c, 0, 72, 78
1, 320873, Note_on_c, 0, 79, 56
1, 320874, Control_c, 0, 64, 94
1, 320892, Control_c, 0, 64, 76
1, 320898, Note_on_c, 0, 67, 45
1, 320911, Control_c, 0, 64, 54
1, 320929, Note_on_c, 0, 64, 38
1, 320929, Control_c, 0, 64, 43
1, 320985, Control_c, 0, 64, 57
1, 320999, Note_on_c, 0, 64, 0
1, 321004, Control_c, 0, 64, 70
1, 321005, Note_on_c, 0, 86, 56
1, 321006, Note_on_c, 0, 67, 0
1, 321022, Control_c, 0, 64, 79
1, 321039, Control_c, 0, 64, 88
1, 321059, Control_c, 0, 64, 92
1, 321077, Control_c, 0, 64, 97
1, 321081, Note_on_c, 0, 79, 0
1, 321095, Control_c, 0, 64, 101
1, 321131, Control_c, 0, 64, 105
1, 321133, Note_on_c, 0, 84, 57
1, 321137, Note_on_c, 0, 86, 0
1, 321187, Control_c, 0, 64, 109
1, 321268, Note_on_c, 0, 74, 78
1, 321284, Note_on_c, 0, 84, 0
1, 321290, Note_on_c, 0, 81, 68
1, 321311, Note_on_c, 0, 69, 47
1, 321312, Control_c, 0, 64, 98
1, 321313, Control_c, 0, 67, 8
1, 321331, Control_c, 0, 64, 75
1, 321338, Note_on_c, 0, 65, 49
1, 321342, Note_on_c, 0, 72, 0
1, 321350, Control_c, 0, 64, 48
1, 321367, Control_c, 0, 64, 37
1, 321405, Control_c, 0, 64, 42
1, 321423, Control_c, 0, 64, 58
1, 321430, Note_on_c, 0, 65, 0
1, 321431, Note_on_c, 0, 88, 71
1, 321442, Control_c, 0, 64, 74
1, 321459, Note_on_c, 0, 81, 0
1, 321459, Control_c, 0, 64, 86
1, 321463, Note_on_c, 0, 69, 0
1, 321479, Control_c, 0, 64, 96
1, 321498, Control_c, 0, 64, 102
1, 321524, Note_on_c, 0, 74, 0
1, 321551, Control_c, 0, 64, 106
1, 321552, Note_on_c, 0, 86, 58
1, 321564, Note_on_c, 0, 88, 0
1, 321640, Note_on_c, 0, 86, 0
1, 321766, Note_on_c, 0, 88, 55
1, 321767, Note_on_c, 0, 84, 49
1, 321770, Note_on_c, 0, 76, 73
1, 321806, Note_on_c, 0, 72, 47
1, 321810, Note_on_c, 0, 67, 40
1, 321828, Control_c, 0, 64, 94
1, 321846, Control_c, 0, 64, 71
1, 321865, Control_c, 0, 64, 47
1, 321867, Control_c, 0, 67, 12
1, 321869, Note_on_c, 0, 88, 0
1, 321883, Control_c, 0, 64, 40
1, 321939, Control_c, 0, 64, 53
1, 321945, Note_on_c, 0, 87, 55
1, 321958, Control_c, 0, 64, 69
1, 321975, Control_c, 0, 64, 80
1, 321994, Control_c, 0, 64, 90
1, 322013, Control_c, 0, 64, 98
1, 322031, Control_c, 0, 64, 104
1, 322071, Note_on_c, 0, 87, 0
1, 322075, Note_on_c, 0, 88, 63
1, 322085, Control_c, 0, 64, 108
1, 322181, Note_on_c, 0, 72, 0
1, 322189, Note_on_c, 0, 88, 0
1, 322220, Note_on_c, 0, 91, 75
1, 322322, Control_c, 0, 67, 17
1, 322343, Note_on_c, 0, 89, 80
1, 322361, Control_c, 0, 67, 22
1, 322365, Note_on_c, 0, 91, 0
1, 322417, Note_on_c, 0, 84, 0
1, 322434, Control_c, 0, 64, 112
1, 322435, Control_c, 0, 67, 27
1, 322479, Note_on_c, 0, 88, 82
1, 322494, Note_on_c, 0, 76, 0
1, 322507, Control_c, 0, 67, 31
1, 322520, Note_on_c, 0, 89, 0
1, 322563, Control_c, 0, 64, 98
1, 322564, Control_c, 0, 67, 35
1, 322583, Control_c, 0, 64, 76
1, 322590, Note_on_c, 0, 88, 0
1, 322591, Note_on_c, 0, 86, 77
1, 322602, Control_c, 0, 64, 56
1, 322603, Control_c, 0, 67, 42
1, 322617, Control_c, 0, 64, 51
1, 322619, Note_on_c, 0, 74, 52
1, 322627, Note_on_c, 0, 71, 40
1, 322628, Note_on_c, 0, 86, 0
1, 322629, Note_on_c, 0, 83, 66
1, 322635, Control_c, 0, 67, 48
1, 322655, Control_c, 0, 64, 60
1, 322673, Control_c, 0, 64, 70
1, 322676, Control_c, 0, 67, 55
1, 322677, Note_on_c, 0, 83, 0
1, 322690, Control_c, 0, 64, 79
1, 322692, Note_on_c, 0, 74, 0
1, 322692, Control_c, 0, 67, 60
1, 322702, Note_on_c, 0, 67, 0
1, 322709, Control_c, 0, 64, 89
1, 322711, Control_c, 0, 67, 66
1, 322721, Note_on_c, 0, 71, 0
1, 322728, Control_c, 0, 64, 95
1, 322728, Control_c, 0, 67, 73
1, 322741, Note_on_c, 0, 84, 73
1, 322746, Control_c, 0, 67, 78
1, 322752, Note_on_c, 0, 81, 69
1, 322763, Control_c, 0, 64, 101
1, 322765, Control_c, 0, 67, 82
1, 322800, Control_c, 0, 67, 86
1, 322804, Note_on_c, 0, 81, 0
1, 322857, Control_c, 0, 64, 105
1, 322876, Control_c, 0, 67, 92
1, 322879, Note_on_c, 0, 79, 71
1, 322880, Note_on_c, 0, 83, 77
1, 322909, Note_on_c, 0, 84, 0
1, 322910, Control_c, 0, 67, 97
1, 322948, Control_c, 0, 67, 105
1, 322966, Control_c, 0, 67, 113
1, 322967, Note_on_c, 0, 79, 0
1, 322986, Control_c, 0, 67, 123
1, 322990, Note_on_c, 0, 55, 55
1, 322997, Note_on_c, 0, 81, 68
1, 323003, Control_c, 0, 64, 87
1, 323004, Control_c, 0, 67, 127
1, 323013, Note_on_c, 0, 83, 0
1, 323018, Note_on_c, 0, 77, 77
1, 323021, Control_c, 0, 64, 59
1, 323034, Note_on_c, 0, 81, 0
1, 323040, Control_c, 0, 64, 0
1, 323068, Note_on_c, 0, 77, 0
1, 323138, Note_on_c, 0, 79, 66
1, 323156, Note_on_c, 0, 76, 67
1, 323165, Note_on_c, 0, 57, 51
1, 323177, Note_on_c, 0, 55, 0
1, 323255, Note_on_c, 0, 76, 0
1, 323294, Note_on_c, 0, 77, 61
1, 323301, Note_on_c, 0, 79, 0
1, 323302, Note_on_c, 0, 57, 0
1, 323309, Note_on_c, 0, 59, 50
1, 323309, Note_on_c, 0, 74, 57
1, 323427, Note_on_c, 0, 74, 0
1, 323506, Note_on_c, 0, 59, 0
1, 323508, Note_on_c, 0, 77, 0
1, 323509, Note_on_c, 0, 76, 61
1, 323538, Note_on_c, 0, 67, 40
1, 323539, Note_on_c, 0, 64, 72
1, 323560, Note_on_c, 0, 60, 54
1, 323653, Note_on_c, 0, 76, 0
1, 323690, Note_on_c, 0, 75, 50
1, 323773, Control_c, 0, 64, 18
1, 323792, Control_c, 0, 64, 25
1, 323796, Note_on_c, 0, 75, 0
1, 323812, Control_c, 0, 64, 37
1, 323812, Note_on_c, 0, 76, 61
1, 323829, Control_c, 0, 64, 56
1, 323831, Control_c, 0, 67, 123
1, 323848, Control_c, 0, 64, 69
1, 323866, Control_c, 0, 64, 75
1, 323867, Control_c, 0, 67, 117
1, 323884, Control_c, 0, 64, 79
1, 323885, Control_c, 0, 67, 111
1, 323902, Control_c, 0, 64, 82
1, 323903, Control_c, 0, 67, 102
1, 323904, Note_on_c, 0, 76, 0
1, 323922, Control_c, 0, 64, 84
1, 323922, Control_c, 0, 67, 91
1, 323930, Note_on_c, 0, 60, 0
1, 323934, Note_on_c, 0, 77, 64
1, 323939, Control_c, 0, 64, 86
1, 323940, Control_c, 0, 67, 78
1, 323958, Control_c, 0, 67, 63
1, 323976, Control_c, 0, 64, 88
1, 323978, Control_c, 0, 67, 50
1, 323994, Control_c, 0, 67, 38
1, 324013, Control_c, 0, 67, 26
1, 324032, Control_c, 0, 64, 93
1, 324033, Control_c, 0, 67, 15
1, 324067, Poly_aftertouch_c, 0, 67, 24
1, 324068, Control_c, 0, 67, 0
1, 324093, Note_on_c, 0, 77, 0
1, 324100, Control_c, 0, 64, 97
1, 324103, Note_on_c, 0, 75, 53
1, 324134, Note_on_c, 0, 67, 0
1, 324134, Poly_aftertouch_c, 0, 67, 0
1, 324187, Note_on_c, 0, 75, 0
1, 324217, Note_on_c, 0, 76, 50
1, 324298, Note_on_c, 0, 76, 0
1, 324340, Control_c, 0, 64, 89
1, 324353, Note_on_c, 0, 62, 74
1, 324358, Control_c, 0, 64, 73
1, 324370, Note_on_c, 0, 65, 43
1, 324373, Note_on_c, 0, 64, 0
1, 324377, Control_c, 0, 64, 54
1, 324390, Note_on_c, 0, 56, 41
1, 324392, Note_on_c, 0, 59, 46
1, 324396, Control_c, 0, 64, 39
1, 324450, Control_c, 0, 64, 43
1, 324470, Control_c, 0, 64, 60
1, 324488, Control_c, 0, 64, 73
1, 324506, Control_c, 0, 64, 81
1, 324509, Note_on_c, 0, 76, 48
1, 324526, Control_c, 0, 64, 86
1, 324528, Note_on_c, 0, 59, 0
1, 324537, Note_on_c, 0, 56, 0
1, 324580, Control_c, 0, 64, 91
1, 324604, Note_on_c, 0, 65, 0
1, 324609, Note_on_c, 0, 76, 0
1, 324620, Note_on_c, 0, 74, 53
1, 324634, Control_c, 0, 64, 95
1, 324699, Note_on_c, 0, 74, 0
1, 324775, Note_on_c, 0, 60, 66
1, 324784, Control_c, 0, 64, 76
1, 324788, Note_on_c, 0, 64, 52
1, 324800, Control_c, 0, 64, 48
1, 324800, Note_on_c, 0, 57, 46
1, 324820, Control_c, 0, 64, 0
1, 324822, Note_on_c, 0, 62, 0
1, 324893, Control_c, 0, 67, 8
1, 324906, Note_on_c, 0, 57, 0
1, 324911, Control_c, 0, 64, 33
1, 324925, Note_on_c, 0, 74, 47
1, 324929, Control_c, 0, 64, 55
1, 324948, Control_c, 0, 64, 71
1, 324968, Control_c, 0, 64, 78
1, 324985, Control_c, 0, 64, 82
1, 325028, Note_on_c, 0, 74, 0
1, 325042, Note_on_c, 0, 64, 0
1, 325048, Note_on_c, 0, 72, 49
1, 325093, Control_c, 0, 64, 84
1, 325227, Note_on_c, 0, 72, 0
1, 325262, Note_on_c, 0, 62, 37
1, 325266, Note_on_c, 0, 59, 55
1, 325305, Note_on_c, 0, 52, 33
1, 325309, Note_on_c, 0, 56, 37
1, 325311, Control_c, 0, 64, 82
1, 325324, Note_on_c, 0, 60, 0
1, 325332, Control_c, 0, 64, 73
1, 325349, Control_c, 0, 64, 57
1, 325367, Control_c, 0, 64, 32
1, 325386, Control_c, 0, 64, 0
1, 325461, Control_c, 0, 67, 12
1, 325469, Note_on_c, 0, 70, 35
1, 325528, Note_on_c, 0, 70, 0
1, 325595, Note_on_c, 0, 71, 49
1, 325607, Control_c, 0, 64, 23
1, 325626, Control_c, 0, 64, 35
1, 325644, Control_c, 0, 64, 48
1, 325645, Control_c, 0, 67, 18
1, 325664, Control_c, 0, 64, 62
1, 325670, Note_on_c, 0, 71, 0
1, 325683, Control_c, 0, 64, 69
1, 325685, Control_c, 0, 67, 23
1, 325700, Control_c, 0, 64, 72
1, 325714, Note_on_c, 0, 72, 51
1, 325719, Control_c, 0, 67, 30
1, 325756, Control_c, 0, 64, 76
1, 325758, Control_c, 0, 67, 37
1, 325774, Control_c, 0, 64, 79
1, 325794, Control_c, 0, 64, 83
1, 325795, Control_c, 0, 67, 44
1, 325810, Control_c, 0, 64, 86
1, 325812, Control_c, 0, 67, 48
1, 325829, Control_c, 0, 64, 88
1, 325830, Control_c, 0, 67, 55
1, 325838, Note_on_c, 0, 56, 0
1, 325847, Control_c, 0, 67, 63
1, 325848, Note_on_c, 0, 72, 0
1, 325864, Control_c, 0, 67, 73
1, 325870, Note_on_c, 0, 70, 45
1, 325885, Control_c, 0, 67, 83
1, 325903, Control_c, 0, 67, 91
1, 325921, Control_c, 0, 67, 98
1, 325942, Control_c, 0, 67, 104
1, 325949, Note_on_c, 0, 62, 0
1, 325972, Control_c, 0, 67, 108
1, 325979, Note_on_c, 0, 70, 0
1, 326006, Note_on_c, 0, 71, 53
1, 326009, Control_c, 0, 67, 114
1, 326045, Control_c, 0, 67, 121
1, 326064, Control_c, 0, 67, 125
1, 326164, Note_on_c, 0, 71, 0
1, 326169, Note_on_c, 0, 57, 47
1, 326180, Note_on_c, 0, 60, 46
1, 326183, Poly_aftertouch_c, 0, 52, 24
1, 326191, Note_on_c, 0, 59, 0
1, 326205, Note_on_c, 0, 53, 35
1, 326230, Control_c, 0, 64, 84
1, 326247, Note_on_c, 0, 52, 0
1, 326247, Poly_aftertouch_c, 0, 52, 0
1, 326248, Control_c, 0, 64, 72
1, 326268, Control_c, 0, 64, 50
1, 326287, Control_c, 0, 64, 0
1, 326338, Note_on_c, 0, 68, 43
1, 326421, Note_on_c, 0, 68, 0
1, 326468, Note_on_c, 0, 69, 49
1, 326505, Control_c, 0, 64, 28
1, 326524, Control_c, 0, 64, 45
1, 326543, Control_c, 0, 64, 63
1, 326557, Note_on_c, 0, 69, 0
1, 326562, Control_c, 0, 64, 72
1, 326564, Note_on_c, 0, 53, 0
1, 326580, Control_c, 0, 64, 76
1, 326593, Note_on_c, 0, 71, 49
1, 326596, Control_c, 0, 64, 79
1, 326617, Control_c, 0, 64, 82
1, 326637, Control_c, 0, 64, 85
1, 326654, Control_c, 0, 64, 90
1, 326672, Control_c, 0, 64, 96
1, 326710, Control_c, 0, 64, 101
1, 326732, Note_on_c, 0, 57, 0
1, 326747, Note_on_c, 0, 68, 52
1, 326748, Note_on_c, 0, 71, 0
1, 326758, Poly_aftertouch_c, 0, 60, 24
1, 326821, Note_on_c, 0, 60, 0
1, 326821, Poly_aftertouch_c, 0, 60, 0
1, 326839, Control_c, 0, 64, 105
1, 326847, Note_on_c, 0, 68, 0
1, 326871, Note_on_c, 0, 69, 51
1, 326983, Note_on_c, 0, 69, 0
1, 327061, Note_on_c, 0, 52, 50
1, 327064, Note_on_c, 0, 60, 53
1, 327073, Control_c, 0, 64, 91
1, 327086, Note_on_c, 0, 48, 40
1, 327088, Note_on_c, 0, 43, 40
1, 327091, Control_c, 0, 64, 63
1, 327111, Control_c, 0, 64, 0
1, 327203, Control_c, 0, 64, 32
1, 327221, Control_c, 0, 64, 55
1, 327234, Note_on_c, 0, 64, 54
1, 327238, Control_c, 0, 64, 72
1, 327258, Control_c, 0, 64, 82
1, 327277, Control_c, 0, 64, 90
1, 327280, Note_on_c, 0, 52, 0
1, 327284, Note_on_c, 0, 60, 0
1, 327296, Control_c, 0, 64, 94
1, 327353, Control_c, 0, 64, 99
1, 327354, Control_c, 0, 67, 121
1, 327368, Control_c, 0, 67, 115
1, 327387, Control_c, 0, 67, 107
1, 327397, Note_on_c, 0, 67, 55
1, 327398, Note_on_c, 0, 64, 0
1, 327407, Control_c, 0, 67, 96
1, 327425, Control_c, 0, 67, 84
1, 327441, Control_c, 0, 64, 103
1, 327442, Control_c, 0, 67, 71
1, 327460, Control_c, 0, 67, 57
1, 327478, Control_c, 0, 67, 44
1, 327499, Control_c, 0, 67, 32
1, 327515, Control_c, 0, 67, 22
1, 327529, Note_on_c, 0, 67, 0
1, 327535, Control_c, 0, 67, 14
1, 327554, Control_c, 0, 67, 9
1, 327589, Note_on_c, 0, 62, 54
1, 327593, Note_on_c, 0, 53, 51
1, 327595, Note_on_c, 0, 50, 42
1, 327602, Note_on_c, 0, 48, 0
1, 327606, Control_c, 0, 64, 96
1, 327626, Control_c, 0, 64, 77
1, 327646, Control_c, 0, 64, 43
1, 327663, Control_c, 0, 64, 0
1, 327680, Control_c, 0, 67, 0
1, 327734, Note_on_c, 0, 65, 57
1, 327774, Control_c, 0, 64, 30
1, 327792, Control_c, 0, 64, 53
1, 327807, Note_on_c, 0, 62, 0
1, 327811, Control_c, 0, 64, 69
1, 327844, Control_c, 0, 64, 75
1, 327862, Control_c, 0, 64, 78
1, 327882, Note_on_c, 0, 67, 63
1, 327898, Note_on_c, 0, 65, 0
1, 327898, Control_c, 0, 64, 81
1, 327917, Control_c, 0, 64, 83
1, 327936, Control_c, 0, 64, 87
1, 327953, Control_c, 0, 64, 91
1, 327991, Control_c, 0, 64, 97
1, 328007, Note_on_c, 0, 67, 0
1, 328027, Note_on_c, 0, 62, 65
1, 328083, Control_c, 0, 64, 101
1, 328143, Note_on_c, 0, 65, 73
1, 328245, Note_on_c, 0, 62, 0
1, 328281, Note_on_c, 0, 69, 78
1, 328295, Note_on_c, 0, 53, 0
1, 328312, Note_on_c, 0, 65, 0
1, 328365, Note_on_c, 0, 43, 0
1, 328408, Note_on_c, 0, 62, 74
1, 328409, Note_on_c, 0, 69, 0
1, 328415, Note_on_c, 0, 50, 0
1, 328534, Note_on_c, 0, 65, 82
1, 328571, Note_on_c, 0, 62, 0
1, 328669, Note_on_c, 0, 71, 86
1, 328713, Note_on_c, 0, 65, 0
1, 328778, Control_c, 0, 64, 105
1, 328871, Control_c, 0, 64, 97
1, 328887, Note_on_c, 0, 72, 77
1, 328888, Control_c, 0, 64, 72
1, 328891, Note_on_c, 0, 71, 0
1, 328893, Note_on_c, 0, 36, 65
1, 328899, Note_on_c, 0, 64, 61
1, 328900, Note_on_c, 0, 48, 57
1, 328906, Control_c, 0, 64, 18
1, 328926, Control_c, 0, 64, 0
1, 329004, Note_on_c, 0, 72, 0
1, 329019, Control_c, 0, 64, 36
1, 329037, Control_c, 0, 64, 60
1, 329052, Note_on_c, 0, 64, 0
1, 329055, Control_c, 0, 64, 76
1, 329075, Control_c, 0, 64, 85
1, 329092, Control_c, 0, 64, 93
1, 329110, Control_c, 0, 64, 97
1, 329144, Note_on_c, 0, 55, 72
1, 329152, Note_on_c, 0, 48, 0
1, 329167, Control_c, 0, 64, 102
1, 329265, Note_on_c, 0, 55, 0
1, 329301, Note_on_c, 0, 52, 67
1, 329446, Note_on_c, 0, 55, 69
1, 329470, Note_on_c, 0, 52, 0
1, 329491, Note_on_c, 0, 43, 54
1, 329517, Control_c, 0, 64, 98
1, 329532, Note_on_c, 0, 36, 0
1, 329534, Control_c, 0, 64, 82
1, 329552, Control_c, 0, 64, 55
1, 329570, Control_c, 0, 64, 0
1, 329597, Note_on_c, 0, 60, 67
1, 329662, Note_on_c, 0, 55, 0
1, 329714, Control_c, 0, 64, 29
1, 329726, Note_on_c, 0, 64, 74
1, 329731, Poly_aftertouch_c, 0, 39, 0
1, 329733, Control_c, 0, 64, 49
1, 329752, Control_c, 0, 64, 64
1, 329753, Note_on_c, 0, 60, 0
1, 329770, Control_c, 0, 64, 70
1, 329825, Control_c, 0, 64, 63
1, 329843, Control_c, 0, 64, 47
1, 329859, Note_on_c, 0, 62, 74
1, 329862, Control_c, 0, 64, 22
1, 329881, Control_c, 0, 64, 0
1, 329916, Note_on_c, 0, 64, 0
1, 329937, Control_c, 0, 64, 30
1, 329956, Control_c, 0, 64, 53
1, 329972, Control_c, 0, 64, 70
1, 329980, Note_on_c, 0, 59, 68
1, 329992, Control_c, 0, 64, 77
1, 330010, Control_c, 0, 64, 82
1, 330016, Note_on_c, 0, 62, 0
1, 330045, Control_c, 0, 64, 85
1, 330059, Note_on_c, 0, 43, 0
1, 330082, Control_c, 0, 64, 87
1, 330084, Note_on_c, 0, 59, 0
1, 330086, Note_on_c, 0, 55, 73
1, 330231, Note_on_c, 0, 59, 75
1, 330237, Note_on_c, 0, 43, 69
1, 330285, Control_c, 0, 64, 79
1, 330304, Control_c, 0, 64, 62
1, 330322, Control_c, 0, 64, 28
1, 330341, Control_c, 0, 64, 0
1, 330350, Note_on_c, 0, 59, 0
1, 330351, Note_on_c, 0, 62, 75
1, 330471, Note_on_c, 0, 62, 0
1, 330478, Note_on_c, 0, 65, 79
1, 330582, Control_c, 0, 64, 23
1, 330596, Note_on_c, 0, 64, 76
1, 330600, Control_c, 0, 64, 48
1, 330618, Control_c, 0, 64, 63
1, 330650, Control_c, 0, 64, 69
1, 330656, Note_on_c, 0, 65, 0
1, 330705, Note_on_c, 0, 55, 0
1, 330706, Control_c, 0, 64, 72
1, 330735, Note_on_c, 0, 60, 77
1, 330741, Control_c, 0, 64, 74
1, 330761, Control_c, 0, 64, 76
1, 330763, Note_on_c, 0, 64, 0
1, 330783, Note_on_c, 0, 43, 0
1, 330797, Control_c, 0, 64, 79
1, 330852, Note_on_c, 0, 60, 0
1, 330859, Note_on_c, 0, 55, 71
1, 330889, Control_c, 0, 64, 81
1, 330991, Note_on_c, 0, 60, 80
1, 330992, Note_on_c, 0, 43, 76
1, 330998, Control_c, 0, 64, 78
1, 331019, Control_c, 0, 64, 71
1, 331037, Control_c, 0, 64, 53
1, 331056, Control_c, 0, 64, 19
1, 331074, Control_c, 0, 64, 0
1, 331108, Note_on_c, 0, 64, 79
1, 331125, Note_on_c, 0, 60, 0
1, 331229, Note_on_c, 0, 64, 0
1, 331229, Note_on_c, 0, 67, 82
1, 331247, Note_on_c, 0, 55, 0
1, 331361, Note_on_c, 0, 65, 77
1, 331388, Control_c, 0, 64, 24
1, 331399, Note_on_c, 0, 67, 0
1, 331405, Control_c, 0, 64, 57
1, 331423, Control_c, 0, 64, 71
1, 331441, Control_c, 0, 64, 76
1, 331461, Control_c, 0, 64, 78
1, 331462, Note_on_c, 0, 43, 0
1, 331486, Note_on_c, 0, 62, 77
1, 331499, Control_c, 0, 64, 83
1, 331505, Note_on_c, 0, 65, 0
1, 331517, Control_c, 0, 64, 87
1, 331535, Control_c, 0, 64, 92
1, 331555, Control_c, 0, 64, 98
1, 331560, Note_on_c, 0, 62, 0
1, 331605, Control_c, 0, 64, 104
1, 331619, Note_on_c, 0, 59, 73
1, 331752, Control_c, 0, 64, 87
1, 331754, Note_on_c, 0, 43, 64
1, 331757, Note_on_c, 0, 71, 84
1, 331771, Control_c, 0, 64, 57
1, 331777, Note_on_c, 0, 59, 0
1, 331789, Control_c, 0, 64, 0
1, 331863, Control_c, 0, 64, 29
1, 331877, Note_on_c, 0, 65, 75
1, 331882, Control_c, 0, 64, 50
1, 331899, Control_c, 0, 64, 69
1, 331916, Note_on_c, 0, 71, 0
1, 331916, Control_c, 0, 64, 76
1, 331937, Control_c, 0, 64, 81
1, 331955, Control_c, 0, 64, 83
1, 331973, Control_c, 0, 64, 86
1, 331977, Note_on_c, 0, 65, 0
1, 331991, Control_c, 0, 64, 90
1, 331991, Note_on_c, 0, 62, 72
1, 332011, Control_c, 0, 64, 95
1, 332046, Control_c, 0, 64, 99
1, 332102, Control_c, 0, 64, 94
1, 332119, Control_c, 0, 64, 74
1, 332131, Note_on_c, 0, 62, 0
1, 332136, Control_c, 0, 64, 36
1, 332144, Note_on_c, 0, 72, 75
1, 332153, Note_on_c, 0, 43, 0
1, 332153, Note_on_c, 0, 48, 62
1, 332155, Control_c, 0, 64, 0
1, 332156, Note_on_c, 0, 64, 68
1, 332251, Control_c, 0, 64, 33
1, 332268, Control_c, 0, 64, 59
1, 332286, Control_c, 0, 64, 75
1, 332288, Note_on_c, 0, 64, 0
1, 332296, Note_on_c, 0, 43, 64
1, 332304, Note_on_c, 0, 48, 0
1, 332304, Control_c, 0, 64, 83
1, 332323, Note_on_c, 0, 72, 0
1, 332323, Control_c, 0, 64, 89
1, 332358, Control_c, 0, 64, 95
1, 332397, Control_c, 0, 64, 99
1, 332416, Note_on_c, 0, 40, 68
1, 332420, Note_on_c, 0, 43, 0
1, 332451, Control_c, 0, 64, 104
1, 332577, Control_c, 0, 64, 98
1, 332591, Note_on_c, 0, 43, 65
1, 332591, Note_on_c, 0, 67, 85
1, 332596, Control_c, 0, 64, 78
1, 332614, Control_c, 0, 64, 52
1, 332629, Note_on_c, 0, 40, 0
1, 332631, Control_c, 0, 64, 29
1, 332689, Control_c, 0, 64, 49
1, 332707, Control_c, 0, 64, 67
1, 332726, Control_c, 0, 64, 77
1, 332729, Note_on_c, 0, 48, 67
1, 332745, Control_c, 0, 64, 84
1, 332754, Note_on_c, 0, 43, 0
1, 332762, Control_c, 0, 64, 87
1, 332823, Note_on_c, 0, 48, 0
1, 332838, Note_on_c, 0, 52, 66
1, 332854, Control_c, 0, 64, 77
1, 332872, Control_c, 0, 64, 53
1, 332890, Control_c, 0, 64, 0
1, 332972, Note_on_c, 0, 52, 0
1, 332980, Note_on_c, 0, 50, 62
1, 332983, Control_c, 0, 64, 15
1, 333001, Control_c, 0, 64, 48
1, 333020, Control_c, 0, 64, 70
1, 333039, Control_c, 0, 64, 80
1, 333056, Control_c, 0, 64, 87
1, 333085, Note_on_c, 0, 67, 0
1, 333091, Note_on_c, 0, 50, 0
1, 333094, Control_c, 0, 64, 91
1, 333099, Note_on_c, 0, 47, 62
1, 333148, Control_c, 0, 64, 96
1, 333205, Control_c, 0, 64, 100
1, 333208, Note_on_c, 0, 47, 0
1, 333221, Note_on_c, 0, 43, 59
1, 333352, Note_on_c, 0, 67, 80
1, 333362, Note_on_c, 0, 47, 59
1, 333369, Control_c, 0, 64, 78
1, 333389, Control_c, 0, 64, 49
1, 333407, Control_c, 0, 64, 0
1, 333476, Control_c, 0, 64, 29
1, 333496, Control_c, 0, 64, 50
1, 333511, Note_on_c, 0, 50, 65
1, 333514, Control_c, 0, 64, 67
1, 333523, Note_on_c, 0, 43, 0
1, 333523, Note_on_c, 0, 47, 0
1, 333530, Control_c, 0, 64, 75
1, 333550, Control_c, 0, 64, 78
1, 333587, Control_c, 0, 64, 80
1, 333613, Note_on_c, 0, 50, 0
1, 333621, Note_on_c, 0, 53, 64
1, 333624, Control_c, 0, 64, 83
1, 333680, Control_c, 0, 64, 79
1, 333697, Control_c, 0, 64, 62
1, 333716, Control_c, 0, 64, 36
1, 333734, Control_c, 0, 64, 15
1, 333771, Note_on_c, 0, 53, 0
1, 333771, Control_c, 0, 64, 19
1, 333771, Note_on_c, 0, 52, 64
1, 333789, Control_c, 0, 64, 38
1, 333807, Control_c, 0, 64, 59
1, 333827, Control_c, 0, 64, 72
1, 333846, Control_c, 0, 64, 78
1, 333863, Control_c, 0, 64, 82
1, 333877, Note_on_c, 0, 52, 0
1, 333889, Note_on_c, 0, 48, 57
1, 333890, Note_on_c, 0, 67, 0
1, 333901, Control_c, 0, 64, 85
1, 333936, Control_c, 0, 64, 87
1, 333974, Control_c, 0, 64, 92
1, 333991, Note_on_c, 0, 48, 0
1, 334008, Control_c, 0, 64, 96
1, 334009, Note_on_c, 0, 43, 60
1, 334140, Control_c, 0, 64, 85
1, 334154, Note_on_c, 0, 67, 73
1, 334156, Control_c, 0, 64, 65
1, 334156, Note_on_c, 0, 48, 57
1, 334177, Control_c, 0, 64, 40
1, 334195, Control_c, 0, 64, 28
1, 334250, Control_c, 0, 64, 47
1, 334268, Control_c, 0, 64, 63
1, 334286, Control_c, 0, 64, 72
1, 334290, Poly_aftertouch_c, 0, 45, 0
1, 334295, Note_on_c, 0, 52, 63
1, 334305, Control_c, 0, 64, 78
1, 334315, Note_on_c, 0, 48, 0
1, 334323, Control_c, 0, 64, 81
1, 334344, Note_on_c, 0, 43, 0
1, 334344, Control_c, 0, 64, 83
1, 334362, Control_c, 0, 64, 85
1, 334393, Control_c, 0, 64, 88
1, 334400, Note_on_c, 0, 52, 0
1, 334412, Control_c, 0, 64, 92
1, 334423, Note_on_c, 0, 55, 59
1, 334431, Control_c, 0, 64, 96
1, 334467, Control_c, 0, 64, 100
1, 334504, Control_c, 0, 64, 95
1, 334522, Control_c, 0, 64, 80
1, 334542, Control_c, 0, 64, 58
1, 334554, Note_on_c, 0, 55, 0
1, 334559, Note_on_c, 0, 53, 62
1, 334561, Control_c, 0, 64, 39
1, 334616, Control_c, 0, 64, 50
1, 334633, Control_c, 0, 64, 66
1, 334651, Control_c, 0, 64, 75
1, 334670, Control_c, 0, 64, 83
1, 334676, Note_on_c, 0, 53, 0
1, 334679, Note_on_c, 0, 50, 62
1, 334689, Control_c, 0, 64, 86
1, 334706, Note_on_c, 0, 67, 0
1, 334743, Control_c, 0, 64, 91
1, 334781, Control_c, 0, 64, 98
1, 334803, Note_on_c, 0, 50, 0
1, 334809, Note_on_c, 0, 47, 59
1, 334817, Control_c, 0, 64, 104
1, 334927, Control_c, 0, 64, 95
1, 334945, Control_c, 0, 64, 76
1, 334958, Note_on_c, 0, 67, 65
1, 334963, Control_c, 0, 64, 52
1, 334964, Note_on_c, 0, 59, 56
1, 334985, Control_c, 0, 64, 39
1, 335020, Control_c, 0, 64, 42
1, 335039, Control_c, 0, 64, 56
1, 335058, Control_c, 0, 64, 69
1, 335076, Control_c, 0, 64, 79
1, 335091, Note_on_c, 0, 59, 0
1, 335092, Control_c, 0, 64, 86
1, 335111, Control_c, 0, 64, 90
1, 335119, Note_on_c, 0, 53, 55
1, 335149, Control_c, 0, 64, 95
1, 335167, Note_on_c, 0, 47, 0
1, 335203, Control_c, 0, 64, 99
1, 335205, Note_on_c, 0, 53, 0
1, 335209, Note_on_c, 0, 50, 46
1, 335368, Control_c, 0, 64, 95
1, 335384, Control_c, 0, 64, 78
1, 335402, Control_c, 0, 64, 54
1, 335406, Note_on_c, 0, 67, 0
1, 335408, Note_on_c, 0, 52, 51
1, 335416, Note_on_c, 0, 72, 59
1, 335420, Note_on_c, 0, 50, 0
1, 335421, Control_c, 0, 64, 35
1, 335496, Control_c, 0, 64, 51
1, 335514, Control_c, 0, 64, 67
1, 335525, Note_on_c, 0, 52, 0
1, 335532, Control_c, 0, 64, 75
1, 335547, Note_on_c, 0, 55, 52
1, 335549, Note_on_c, 0, 67, 64
1, 335551, Control_c, 0, 64, 82
1, 335570, Control_c, 0, 64, 85
1, 335574, Note_on_c, 0, 72, 0
1, 335606, Control_c, 0, 64, 91
1, 335609, Note_on_c, 0, 55, 0
1, 335637, Note_on_c, 0, 67, 0
1, 335640, Control_c, 0, 64, 97
1, 335655, Note_on_c, 0, 60, 58
1, 335662, Note_on_c, 0, 64, 64
1, 335781, Note_on_c, 0, 60, 0
1, 335787, Note_on_c, 0, 55, 57
1, 335788, Note_on_c, 0, 67, 76
1, 335796, Note_on_c, 0, 64, 0
1, 335882, Note_on_c, 0, 55, 0
1, 335891, Note_on_c, 0, 52, 60
1, 335897, Note_on_c, 0, 72, 80
1, 335915, Note_on_c, 0, 67, 0
1, 335992, Note_on_c, 0, 52, 0
1, 336016, Note_on_c, 0, 72, 0
1, 336016, Note_on_c, 0, 76, 86
1, 336022, Note_on_c, 0, 48, 62
1, 336027, Control_c, 0, 64, 101
1, 336102, Control_c, 0, 64, 89
1, 336120, Control_c, 0, 64, 68
1, 336132, Note_on_c, 0, 48, 0
1, 336139, Control_c, 0, 64, 41
1, 336147, Note_on_c, 0, 74, 80
1, 336158, Control_c, 0, 64, 24
1, 336158, Note_on_c, 0, 47, 59
1, 336191, Note_on_c, 0, 76, 0
1, 336233, Control_c, 0, 64, 34
1, 336264, Control_c, 0, 64, 53
1, 336281, Note_on_c, 0, 71, 75
1, 336283, Control_c, 0, 64, 69
1, 336300, Note_on_c, 0, 50, 61
1, 336301, Note_on_c, 0, 47, 0
1, 336302, Control_c, 0, 64, 75
1, 336310, Note_on_c, 0, 74, 0
1, 336321, Control_c, 0, 64, 78
1, 336357, Control_c, 0, 64, 81
1, 336383, Note_on_c, 0, 50, 0
1, 336391, Note_on_c, 0, 71, 0
1, 336393, Control_c, 0, 64, 83
1, 336403, Note_on_c, 0, 67, 72
1, 336411, Note_on_c, 0, 53, 58
1, 336431, Control_c, 0, 64, 85
1, 336524, Note_on_c, 0, 53, 0
1, 336531, Note_on_c, 0, 71, 80
1, 336536, Note_on_c, 0, 50, 60
1, 336568, Note_on_c, 0, 67, 0
1, 336637, Note_on_c, 0, 50, 0
1, 336646, Note_on_c, 0, 74, 83
1, 336648, Note_on_c, 0, 47, 53
1, 336665, Note_on_c, 0, 71, 0
1, 336745, Note_on_c, 0, 47, 0
1, 336751, Note_on_c, 0, 43, 61
1, 336770, Note_on_c, 0, 77, 83
1, 336771, Note_on_c, 0, 74, 0
1, 336816, Control_c, 0, 64, 73
1, 336836, Control_c, 0, 64, 51
1, 336854, Control_c, 0, 64, 0
1, 336892, Note_on_c, 0, 76, 80
1, 336896, Note_on_c, 0, 48, 56
1, 336917, Note_on_c, 0, 77, 0
1, 336984, Control_c, 0, 64, 36
1, 337004, Control_c, 0, 64, 57
1, 337012, Note_on_c, 0, 72, 77
1, 337022, Control_c, 0, 64, 71
1, 337024, Note_on_c, 0, 52, 60
1, 337029, Note_on_c, 0, 76, 0
1, 337038, Control_c, 0, 64, 77
1, 337056, Control_c, 0, 64, 81
1, 337058, Note_on_c, 0, 48, 0
1, 337075, Control_c, 0, 64, 83
1, 337095, Control_c, 0, 64, 87
1, 337102, Note_on_c, 0, 72, 0
1, 337112, Control_c, 0, 64, 92
1, 337113, Note_on_c, 0, 52, 0
1, 337127, Note_on_c, 0, 67, 74
1, 337131, Note_on_c, 0, 55, 61
1, 337133, Note_on_c, 0, 43, 0
1, 337150, Control_c, 0, 64, 97
1, 337261, Note_on_c, 0, 55, 0
1, 337263, Note_on_c, 0, 72, 79
1, 337283, Note_on_c, 0, 52, 59
1, 337284, Note_on_c, 0, 67, 0
1, 337376, Note_on_c, 0, 48, 61
1, 337381, Note_on_c, 0, 52, 0
1, 337381, Note_on_c, 0, 76, 86
1, 337400, Note_on_c, 0, 72, 0
1, 337476, Control_c, 0, 64, 101
1, 337483, Note_on_c, 0, 48, 0
1, 337497, Note_on_c, 0, 43, 64
1, 337499, Note_on_c, 0, 79, 86
1, 337503, Note_on_c, 0, 76, 0
1, 337550, Control_c, 0, 64, 95
1, 337568, Control_c, 0, 64, 78
1, 337588, Control_c, 0, 64, 53
1, 337605, Control_c, 0, 64, 31
1, 337626, Note_on_c, 0, 77, 83
1, 337647, Note_on_c, 0, 50, 62
1, 337660, Note_on_c, 0, 79, 0
1, 337660, Control_c, 0, 64, 36
1, 337674, Note_on_c, 0, 43, 0
1, 337679, Control_c, 0, 64, 52
1, 337697, Control_c, 0, 64, 68
1, 337718, Control_c, 0, 64, 76
1, 337734, Control_c, 0, 64, 81
1, 337748, Note_on_c, 0, 74, 81
1, 337753, Control_c, 0, 64, 84
1, 337759, Note_on_c, 0, 77, 0
1, 337765, Note_on_c, 0, 53, 67
1, 337766, Note_on_c, 0, 50, 0
1, 337771, Control_c, 0, 64, 86
1, 337808, Control_c, 0, 64, 91
1, 337821, Note_on_c, 0, 74, 0
1, 337833, Note_on_c, 0, 53, 0
1, 337846, Control_c, 0, 64, 99
1, 337863, Note_on_c, 0, 71, 74
1, 337875, Note_on_c, 0, 55, 56
1, 337883, Control_c, 0, 64, 104
1, 337949, Note_on_c, 0, 55, 0
1, 337973, Control_c, 0, 64, 96
1, 337992, Control_c, 0, 64, 77
1, 338011, Control_c, 0, 64, 56
1, 338011, Note_on_c, 0, 53, 54
1, 338011, Note_on_c, 0, 83, 90
1, 338016, Note_on_c, 0, 71, 0
1, 338029, Control_c, 0, 64, 47
1, 338066, Control_c, 0, 64, 54
1, 338086, Control_c, 0, 64, 65
1, 338103, Control_c, 0, 64, 73
1, 338117, Note_on_c, 0, 53, 0
1, 338117, Note_on_c, 0, 55, 58
1, 338135, Control_c, 0, 64, 81
1, 338153, Control_c, 0, 64, 87
1, 338160, Note_on_c, 0, 79, 80
1, 338190, Note_on_c, 0, 83, 0
1, 338192, Control_c, 0, 64, 94
1, 338227, Control_c, 0, 64, 100
1, 338249, Note_on_c, 0, 79, 0
1, 338260, Note_on_c, 0, 62, 62
1, 338262, Note_on_c, 0, 55, 0
1, 338264, Control_c, 0, 64, 105
1, 338274, Note_on_c, 0, 74, 75
1, 338322, Control_c, 0, 64, 110
1, 338411, Control_c, 0, 64, 103
1, 338413, Note_on_c, 0, 84, 87
1, 338418, Note_on_c, 0, 62, 0
1, 338432, Control_c, 0, 64, 85
1, 338441, Note_on_c, 0, 52, 50
1, 338446, Note_on_c, 0, 74, 0
1, 338446, Control_c, 0, 64, 63
1, 338468, Control_c, 0, 64, 50
1, 338504, Control_c, 0, 64, 58
1, 338525, Control_c, 0, 64, 69
1, 338541, Control_c, 0, 64, 79
1, 338552, Note_on_c, 0, 79, 68
1, 338558, Note_on_c, 0, 55, 47
1, 338561, Note_on_c, 0, 52, 0
1, 338561, Control_c, 0, 64, 88
1, 338579, Control_c, 0, 64, 95
1, 338605, Note_on_c, 0, 84, 0
1, 338615, Control_c, 0, 64, 100
1, 338621, Note_on_c, 0, 79, 0
1, 338625, Note_on_c, 0, 55, 0
1, 338665, Note_on_c, 0, 60, 50
1, 338668, Control_c, 0, 64, 104
1, 338669, Note_on_c, 0, 76, 62
1, 338728, Note_on_c, 0, 60, 0
1, 338781, Control_c, 0, 64, 95
1, 338787, Note_on_c, 0, 79, 74
1, 338788, Note_on_c, 0, 48, 53
1, 338800, Control_c, 0, 64, 74
1, 338810, Note_on_c, 0, 76, 0
1, 338819, Control_c, 0, 64, 52
1, 338836, Control_c, 0, 64, 46
1, 338873, Control_c, 0, 64, 55
1, 338892, Control_c, 0, 64, 67
1, 338892, Note_on_c, 0, 52, 49
1, 338908, Control_c, 0, 64, 76
1, 338911, Note_on_c, 0, 48, 0
1, 338915, Note_on_c, 0, 76, 61
1, 338929, Control_c, 0, 64, 86
1, 338946, Control_c, 0, 64, 94
1, 338965, Control_c, 0, 64, 99
1, 338973, Note_on_c, 0, 52, 0
1, 338989, Note_on_c, 0, 79, 0
1, 338994, Note_on_c, 0, 76, 0
1, 339002, Control_c, 0, 64, 103
1, 339025, Note_on_c, 0, 72, 59
1, 339028, Note_on_c, 0, 55, 49
1, 339071, Control_c, 0, 64, 109
1, 339136, Note_on_c, 0, 55, 0
1, 339163, Control_c, 0, 64, 101
1, 339183, Note_on_c, 0, 50, 49
1, 339183, Control_c, 0, 64, 79
1, 339192, Note_on_c, 0, 77, 60
1, 339196, Note_on_c, 0, 72, 0
1, 339200, Control_c, 0, 64, 53
1, 339219, Control_c, 0, 64, 36
1, 339275, Control_c, 0, 64, 50
1, 339294, Control_c, 0, 64, 67
1, 339301, Note_on_c, 0, 50, 0
1, 339301, Poly_aftertouch_c, 0, 79, 0
1, 339311, Control_c, 0, 64, 77
1, 339313, Note_on_c, 0, 77, 0
1, 339317, Note_on_c, 0, 53, 47
1, 339330, Control_c, 0, 64, 84
1, 339332, Note_on_c, 0, 74, 56
1, 339349, Control_c, 0, 64, 88
1, 339389, Note_on_c, 0, 53, 0
1, 339393, Note_on_c, 0, 74, 0
1, 339403, Control_c, 0, 64, 93
1, 339421, Control_c, 0, 67, 8
1, 339440, Control_c, 0, 64, 99
1, 339441, Note_on_c, 0, 55, 42
1, 339450, Note_on_c, 0, 71, 55
1, 339459, Control_c, 0, 67, 14
1, 339477, Control_c, 0, 67, 21
1, 339495, Control_c, 0, 67, 31
1, 339515, Control_c, 0, 67, 45
1, 339522, Note_on_c, 0, 55, 0
1, 339532, Control_c, 0, 64, 82
1, 339533, Control_c, 0, 67, 60
1, 339553, Control_c, 0, 64, 63
1, 339555, Note_on_c, 0, 71, 0
1, 339555, Control_c, 0, 67, 74
1, 339570, Control_c, 0, 64, 49
1, 339571, Control_c, 0, 67, 86
1, 339578, Note_on_c, 0, 83, 69
1, 339589, Control_c, 0, 67, 96
1, 339598, Note_on_c, 0, 53, 39
1, 339606, Control_c, 0, 67, 104
1, 339624, Control_c, 0, 64, 59
1, 339626, Control_c, 0, 67, 110
1, 339642, Control_c, 0, 64, 69
1, 339643, Control_c, 0, 67, 115
1, 339661, Control_c, 0, 64, 78
1, 339662, Control_c, 0, 67, 119
1, 339681, Control_c, 0, 64, 86
1, 339684, Note_on_c, 0, 53, 0
1, 339695, Note_on_c, 0, 55, 47
1, 339696, Control_c, 0, 64, 91
1, 339697, Control_c, 0, 67, 124
1, 339713, Note_on_c, 0, 83, 0
1, 339721, Note_on_c, 0, 79, 55
1, 339735, Control_c, 0, 64, 95
1, 339784, Note_on_c, 0, 79, 0
1, 339789, Control_c, 0, 64, 100
1, 339807, Note_on_c, 0, 55, 0
1, 339828, Control_c, 0, 64, 104
1, 339829, Note_on_c, 0, 62, 38
1, 339838, Note_on_c, 0, 74, 52
1, 339956, Control_c, 0, 64, 92
1, 339968, Note_on_c, 0, 84, 61
1, 339970, Note_on_c, 0, 62, 0
1, 339974, Control_c, 0, 64, 71
1, 339985, Note_on_c, 0, 74, 0
1, 340006, Control_c, 0, 64, 51
1, 340013, Note_on_c, 0, 52, 38
1, 340026, Control_c, 0, 64, 48
1, 340063, Control_c, 0, 64, 57
1, 340081, Control_c, 0, 64, 68
1, 340089, Note_on_c, 0, 52, 0
1, 340098, Control_c, 0, 64, 75
1, 340106, Note_on_c, 0, 55, 41
1, 340109, Note_on_c, 0, 84, 0
1, 340117, Control_c, 0, 64, 82
1, 340123, Note_on_c, 0, 79, 45
1, 340136, Control_c, 0, 64, 87
1, 340172, Note_on_c, 0, 79, 0
1, 340173, Control_c, 0, 64, 91
1, 340183, Note_on_c, 0, 55, 0
1, 340210, Control_c, 0, 64, 96
1, 340224, Note_on_c, 0, 76, 54
1, 340229, Control_c, 0, 64, 101
1, 340229, Note_on_c, 0, 60, 43
1, 340265, Control_c, 0, 64, 106
1, 340282, Note_on_c, 0, 60, 0
1, 340289, Note_on_c, 0, 76, 0
1, 340367, Note_on_c, 0, 48, 48
1, 340372, Note_on_c, 0, 79, 53
1, 340374, Control_c, 0, 64, 88
1, 340395, Control_c, 0, 64, 65
1, 340413, Control_c, 0, 64, 43
1, 340433, Control_c, 0, 64, 40
1, 340468, Control_c, 0, 64, 48
1, 340472, Note_on_c, 0, 52, 36
1, 340482, Note_on_c, 0, 76, 47
1, 340484, Note_on_c, 0, 48, 0
1, 340486, Control_c, 0, 64, 63
1, 340496, Note_on_c, 0, 79, 0
1, 340504, Control_c, 0, 64, 73
1, 340524, Control_c, 0, 64, 82
1, 340543, Control_c, 0, 64, 88
1, 340545, Note_on_c, 0, 76, 0
1, 340550, Note_on_c, 0, 52, 0
1, 340578, Control_c, 0, 64, 95
1, 340595, Control_c, 0, 64, 99
1, 340604, Note_on_c, 0, 72, 45
1, 340605, Note_on_c, 0, 55, 41
1, 340615, Control_c, 0, 64, 104
1, 340633, Control_c, 0, 64, 109
1, 340707, Control_c, 0, 64, 99
1, 340716, Note_on_c, 0, 72, 0
1, 340718, Note_on_c, 0, 55, 0
1, 340725, Control_c, 0, 64, 77
1, 340743, Note_on_c, 0, 50, 43
1, 340743, Control_c, 0, 64, 54
1, 340753, Note_on_c, 0, 77, 51
1, 340763, Control_c, 0, 64, 46
1, 340798, Control_c, 0, 64, 57
1, 340817, Control_c, 0, 64, 70
1, 340833, Note_on_c, 0, 77, 0
1, 340837, Control_c, 0, 64, 80
1, 340849, Note_on_c, 0, 50, 0
1, 340852, Control_c, 0, 64, 91
1, 340868, Note_on_c, 0, 53, 45
1, 340869, Note_on_c, 0, 74, 53
1, 340871, Control_c, 0, 64, 99
1, 340890, Control_c, 0, 64, 103
1, 340924, Note_on_c, 0, 74, 0
1, 340942, Control_c, 0, 64, 108
1, 340950, Note_on_c, 0, 53, 0
1, 340980, Control_c, 0, 64, 112
1, 340998, Note_on_c, 0, 55, 44
1, 341007, Note_on_c, 0, 71, 55
1, 341017, Control_c, 0, 64, 116
1, 341081, Note_on_c, 0, 55, 0
1, 341089, Note_on_c, 0, 71, 0
1, 341090, Control_c, 0, 64, 96
1, 341109, Control_c, 0, 64, 68
1, 341123, Note_on_c, 0, 83, 66
1, 341128, Control_c, 0, 64, 36
1, 341145, Note_on_c, 0, 53, 40
1, 341146, Control_c, 0, 64, 31
1, 341183, Control_c, 0, 64, 48
1, 341201, Control_c, 0, 64, 68
1, 341218, Control_c, 0, 64, 82
1, 341222, Note_on_c, 0, 53, 0
1, 341228, Note_on_c, 0, 83, 0
1, 341237, Control_c, 0, 64, 95
1, 341238, Note_on_c, 0, 55, 52
1, 341251, Note_on_c, 0, 79, 58
1, 341257, Control_c, 0, 64, 105
1, 341274, Control_c, 0, 64, 110
1, 341302, Note_on_c, 0, 79, 0
1, 341310, Control_c, 0, 64, 116
1, 341339, Note_on_c, 0, 55, 0
1, 341348, Control_c, 0, 64, 124
1, 341355, Note_on_c, 0, 62, 45
1, 341358, Note_on_c, 0, 74, 54
1, 341404, Note_on_c, 0, 62, 0
1, 341425, Note_on_c, 0, 74, 0
1, 341498, Note_on_c, 0, 52, 57
1, 341503, Note_on_c, 0, 84, 74
1, 341513, Control_c, 0, 64, 100
1, 341532, Control_c, 0, 64, 37
1, 341546, Note_on_c, 0, 52, 0
1, 341550, Control_c, 0, 64, 0
1, 341569, Note_on_c, 0, 84, 0
1, 341588, Note_on_c, 0, 79, 61
1, 341595, Note_on_c, 0, 55, 53
1, 341647, Note_on_c, 0, 55, 0
1, 341679, Note_on_c, 0, 79, 0
1, 341680, Note_on_c, 0, 48, 57
1, 341691, Note_on_c, 0, 76, 64
1, 341720, Note_on_c, 0, 48, 0
1, 341729, Note_on_c, 0, 76, 0
1, 341762, Note_on_c, 0, 55, 58
1, 341799, Note_on_c, 0, 72, 43
1, 341826, Note_on_c, 0, 55, 0
1, 341834, Note_on_c, 0, 72, 0
1, 341857, Note_on_c, 0, 50, 46
1, 341877, Note_on_c, 0, 77, 64
1, 341900, Note_on_c, 0, 77, 0
1, 341906, Note_on_c, 0, 50, 0
1, 341950, Note_on_c, 0, 74, 64
1, 341961, Note_on_c, 0, 55, 51
1, 341998, Note_on_c, 0, 74, 0
1, 342005, Note_on_c, 0, 55, 0
1, 342039, Note_on_c, 0, 83, 74
1, 342041, Note_on_c, 0, 53, 58
1, 342095, Note_on_c, 0, 83, 0
1, 342095, Note_on_c, 0, 53, 0
1, 342118, Note_on_c, 0, 55, 56
1, 342122, Note_on_c, 0, 79, 64
1, 342161, Note_on_c, 0, 79, 0
1, 342186, Note_on_c, 0, 84, 85
1, 342195, Note_on_c, 0, 55, 0
1, 342207, Note_on_c, 0, 52, 56
1, 342251, Note_on_c, 0, 52, 0
1, 342259, Note_on_c, 0, 84, 0
1, 342282, Note_on_c, 0, 79, 70
1, 342284, Note_on_c, 0, 55, 51
1, 342349, Note_on_c, 0, 55, 0
1, 342361, Note_on_c, 0, 48, 58
1, 342369, Note_on_c, 0, 76, 72
1, 342370, Note_on_c, 0, 79, 0
1, 342403, Note_on_c, 0, 76, 0
1, 342407, Note_on_c, 0, 48, 0
1, 342456, Note_on_c, 0, 55, 46
1, 342459, Note_on_c, 0, 72, 62
1, 342499, Note_on_c, 0, 72, 0
1, 342505, Note_on_c, 0, 55, 0
1, 342530, Note_on_c, 0, 50, 52
1, 342542, Note_on_c, 0, 77, 65
1, 342574, Note_on_c, 0, 77, 0
1, 342580, Note_on_c, 0, 50, 0
1, 342614, Note_on_c, 0, 55, 54
1, 342621, Note_on_c, 0, 74, 61
1, 342666, Note_on_c, 0, 74, 0
1, 342668, Note_on_c, 0, 55, 0
1, 342702, Note_on_c, 0, 53, 56
1, 342710, Note_on_c, 0, 83, 74
1, 342763, Note_on_c, 0, 53, 0
1, 342773, Note_on_c, 0, 83, 0
1, 342789, Note_on_c, 0, 55, 50
1, 342797, Note_on_c, 0, 79, 58
1, 342871, Note_on_c, 0, 55, 0
1, 342895, Note_on_c, 0, 52, 51
1, 342900, Note_on_c, 0, 79, 0
1, 342900, Note_on_c, 0, 84, 68
1, 342941, Note_on_c, 0, 52, 0
1, 342945, Note_on_c, 0, 84, 0
1, 342985, Note_on_c, 0, 79, 56
1, 342987, Note_on_c, 0, 55, 51
1, 343037, Note_on_c, 0, 55, 0
1, 343046, Note_on_c, 0, 79, 0
1, 343073, Note_on_c, 0, 83, 70
1, 343078, Note_on_c, 0, 53, 52
1, 343125, Note_on_c, 0, 53, 0
1, 343137, Note_on_c, 0, 83, 0
1, 343161, Note_on_c, 0, 55, 47
1, 343171, Note_on_c, 0, 79, 65
1, 343221, Note_on_c, 0, 55, 0
1, 343229, Note_on_c, 0, 79, 0
1, 343245, Note_on_c, 0, 52, 56
1, 343254, Note_on_c, 0, 84, 70
1, 343283, Note_on_c, 0, 52, 0
1, 343288, Note_on_c, 0, 84, 0
1, 343293, Control_c, 0, 67, 119
1, 343312, Control_c, 0, 67, 109
1, 343329, Control_c, 0, 67, 96
1, 343335, Note_on_c, 0, 55, 46
1, 343335, Note_on_c, 0, 79, 66
1, 343350, Control_c, 0, 67, 79
1, 343366, Control_c, 0, 67, 58
1, 343370, Note_on_c, 0, 79, 0
1, 343379, Note_on_c, 0, 55, 0
1, 343383, Control_c, 0, 67, 36
1, 343403, Control_c, 0, 67, 16
1, 343419, Note_on_c, 0, 83, 75
1, 343421, Note_on_c, 0, 53, 58
1, 343459, Control_c, 0, 67, 0
1, 343471, Note_on_c, 0, 53, 0
1, 343487, Note_on_c, 0, 83, 0
1, 343496, Note_on_c, 0, 55, 55
1, 343504, Note_on_c, 0, 79, 73
1, 343566, Note_on_c, 0, 55, 0
1, 343587, Note_on_c, 0, 79, 0
1, 343590, Note_on_c, 0, 52, 59
1, 343591, Note_on_c, 0, 84, 84
1, 343632, Note_on_c, 0, 52, 0
1, 343656, Note_on_c, 0, 84, 0
1, 343669, Note_on_c, 0, 55, 56
1, 343680, Note_on_c, 0, 79, 64
1, 343733, Note_on_c, 0, 55, 0
1, 343763, Note_on_c, 0, 53, 69
1, 343766, Note_on_c, 0, 79, 0
1, 343768, Note_on_c, 0, 83, 83
1, 343837, Note_on_c, 0, 53, 0
1, 343850, Note_on_c, 0, 83, 0
1, 343857, Note_on_c, 0, 55, 60
1, 343858, Note_on_c, 0, 79, 81
1, 343924, Note_on_c, 0, 55, 0
1, 343936, Note_on_c, 0, 52, 66
1, 343940, Note_on_c, 0, 84, 88
1, 343947, Note_on_c, 0, 79, 0
1, 343989, Note_on_c, 0, 52, 0
1, 344001, Note_on_c, 0, 84, 0
1, 344015, Note_on_c, 0, 55, 67
1, 344022, Note_on_c, 0, 79, 77
1, 344089, Note_on_c, 0, 55, 0
1, 344100, Note_on_c, 0, 53, 72
1, 344101, Note_on_c, 0, 83, 89
1, 344107, Note_on_c, 0, 79, 0
1, 344186, Note_on_c, 0, 53, 0
1, 344187, Note_on_c, 0, 83, 0
1, 344195, Note_on_c, 0, 79, 89
1, 344199, Note_on_c, 0, 55, 60
1, 344258, Note_on_c, 0, 55, 0
1, 344262, Note_on_c, 0, 52, 72
1, 344273, Note_on_c, 0, 84, 95
1, 344282, Note_on_c, 0, 79, 0
1, 344285, Control_c, 0, 64, 29
1, 344300, Note_on_c, 0, 52, 0
1, 344301, Control_c, 0, 64, 55
1, 344318, Control_c, 0, 64, 69
1, 344327, Note_on_c, 0, 55, 59
1, 344339, Control_c, 0, 64, 73
1, 344341, Note_on_c, 0, 84, 0
1, 344362, Note_on_c, 0, 55, 0
1, 344363, Note_on_c, 0, 79, 86
1, 344423, Note_on_c, 0, 40, 80
1, 344429, Note_on_c, 0, 79, 0
1, 344448, Note_on_c, 0, 82, 87
1, 344474, Note_on_c, 0, 40, 0
1, 344523, Note_on_c, 0, 48, 70
1, 344532, Note_on_c, 0, 82, 0
1, 344534, Note_on_c, 0, 79, 87
1, 344542, Control_c, 0, 64, 70
1, 344578, Control_c, 0, 64, 68
1, 344582, Note_on_c, 0, 48, 0
1, 344600, Note_on_c, 0, 40, 68
1, 344617, Note_on_c, 0, 79, 0
1, 344622, Note_on_c, 0, 82, 90
1, 344632, Control_c, 0, 64, 67
1, 344646, Note_on_c, 0, 40, 0
1, 344685, Control_c, 0, 64, 66
1, 344691, Note_on_c, 0, 48, 75
1, 344710, Note_on_c, 0, 79, 84
1, 344713, Note_on_c, 0, 82, 0
1, 344759, Control_c, 0, 64, 65
1, 344772, Note_on_c, 0, 48, 0
1, 344773, Note_on_c, 0, 40, 81
1, 344777, Note_on_c, 0, 79, 0
1, 344800, Note_on_c, 0, 82, 92
1, 344846, Note_on_c, 0, 40, 0
1, 344860, Note_on_c, 0, 48, 75
1, 344877, Note_on_c, 0, 79, 91
1, 344885, Note_on_c, 0, 82, 0
1, 344888, Poly_aftertouch_c, 0, 45, 0
1, 344951, Note_on_c, 0, 48, 0
1, 344957, Note_on_c, 0, 40, 88
1, 344967, Note_on_c, 0, 82, 94
1, 344980, Note_on_c, 0, 79, 0
1, 345026, Note_on_c, 0, 40, 0
1, 345044, Note_on_c, 0, 48, 77
1, 345051, Note_on_c, 0, 79, 84
1, 345054, Note_on_c, 0, 82, 0
1, 345118, Note_on_c, 0, 79, 0
1, 345131, Note_on_c, 0, 40, 90
1, 345136, Note_on_c, 0, 82, 93
1, 345138, Note_on_c, 0, 48, 0
1, 345183, Control_c, 0, 64, 66
1, 345206, Note_on_c, 0, 40, 0
1, 345218, Control_c, 0, 64, 67
1, 345220, Note_on_c, 0, 79, 92
1, 345223, Note_on_c, 0, 48, 75
1, 345226, Note_on_c, 0, 82, 0
1, 345307, Note_on_c, 0, 48, 0
1, 345310, Note_on_c, 0, 40, 85
1, 345310, Note_on_c, 0, 82, 93
1, 345316, Note_on_c, 0, 79, 0
1, 345350, Control_c, 0, 64, 69
1, 345373, Note_on_c, 0, 40, 0
1, 345385, Note_on_c, 0, 82, 0
1, 345386, Note_on_c, 0, 79, 82
1, 345387, Note_on_c, 0, 48, 77
1, 345441, Control_c, 0, 64, 71
1, 345455, Note_on_c, 0, 79, 0
1, 345462, Note_on_c, 0, 48, 0
1, 345470, Note_on_c, 0, 40, 85
1, 345480, Note_on_c, 0, 82, 96
1, 345541, Note_on_c, 0, 40, 0
1, 345551, Control_c, 0, 64, 61
1, 345553, Note_on_c, 0, 48, 80
1, 345561, Note_on_c, 0, 79, 91
1, 345570, Control_c, 0, 64, 30
1, 345573, Note_on_c, 0, 82, 0
1, 345589, Control_c, 0, 64, 0
1, 345661, Note_on_c, 0, 48, 0
1, 345664, Note_on_c, 0, 40, 96
1, 345671, Note_on_c, 0, 82, 99
1, 345695, Control_c, 0, 64, 20
1, 345701, Note_on_c, 0, 79, 0
1, 345712, Control_c, 0, 64, 47
1, 345731, Control_c, 0, 64, 61
1, 345750, Control_c, 0, 64, 67
1, 345757, Note_on_c, 0, 40, 0
1, 345758, Note_on_c, 0, 48, 77
1, 345797, Poly_aftertouch_c, 0, 45, 0
1, 345857, Note_on_c, 0, 40, 80
1, 345859, Note_on_c, 0, 48, 0
1, 345861, Note_on_c, 0, 81, 86
1, 345879, Control_c, 0, 64, 66
1, 345898, Control_c, 0, 64, 65
1, 345903, Note_on_c, 0, 82, 0
1, 345918, Control_c, 0, 64, 63
1, 345922, Note_on_c, 0, 40, 0
1, 345927, Poly_aftertouch_c, 0, 41, 0
1, 345935, Control_c, 0, 64, 62
1, 345945, Poly_aftertouch_c, 0, 41, 0
1, 345946, Note_on_c, 0, 79, 88
1, 345951, Note_on_c, 0, 48, 71
1, 345954, Control_c, 0, 64, 61
1, 345971, Note_on_c, 0, 81, 0
1, 345988, Control_c, 0, 64, 60
1, 346030, Note_on_c, 0, 40, 85
1, 346033, Note_on_c, 0, 77, 86
1, 346036, Note_on_c, 0, 79, 0
1, 346040, Note_on_c, 0, 48, 0
1, 346045, Control_c, 0, 64, 58
1, 346095, Note_on_c, 0, 40, 0
1, 346101, Note_on_c, 0, 77, 0
1, 346118, Note_on_c, 0, 48, 73
1, 346122, Note_on_c, 0, 76, 86
1, 346197, Note_on_c, 0, 74, 86
1, 346199, Note_on_c, 0, 40, 82
1, 346202, Note_on_c, 0, 48, 0
1, 346209, Note_on_c, 0, 76, 0
1, 346265, Note_on_c, 0, 40, 0
1, 346279, Note_on_c, 0, 74, 0
1, 346279, Note_on_c, 0, 72, 86
1, 346292, Note_on_c, 0, 48, 73
1, 346340, Control_c, 0, 64, 56
1, 346342, Note_on_c, 0, 72, 0
1, 346367, Note_on_c, 0, 70, 88
1, 346371, Note_on_c, 0, 40, 86
1, 346376, Note_on_c, 0, 48, 0
1, 346440, Note_on_c, 0, 40, 0
1, 346454, Note_on_c, 0, 69, 87
1, 346461, Note_on_c, 0, 48, 74
1, 346464, Note_on_c, 0, 45, 28
1, 346465, Note_on_c, 0, 45, 0
1, 346481, Note_on_c, 0, 70, 0
1, 346533, Note_on_c, 0, 69, 0
1, 346537, Note_on_c, 0, 67, 83
1, 346558, Note_on_c, 0, 40, 84
1, 346560, Note_on_c, 0, 48, 0
1, 346625, Note_on_c, 0, 67, 0
1, 346627, Note_on_c, 0, 40, 0
1, 346633, Note_on_c, 0, 65, 86
1, 346637, Note_on_c, 0, 48, 73
1, 346717, Note_on_c, 0, 48, 0
1, 346726, Note_on_c, 0, 64, 86
1, 346732, Note_on_c, 0, 40, 81
1, 346740, Note_on_c, 0, 65, 0
1, 346775, Note_on_c, 0, 40, 0
1, 346798, Note_on_c, 0, 64, 0
1, 346803, Note_on_c, 0, 48, 73
1, 346808, Note_on_c, 0, 62, 80
1, 346860, Note_on_c, 0, 48, 0
1, 346872, Note_on_c, 0, 62, 0
1, 346882, Note_on_c, 0, 40, 81
1, 346896, Note_on_c, 0, 60, 81
1, 346937, Note_on_c, 0, 48, 75
1, 346942, Control_c, 0, 64, 43
1, 346956, Note_on_c, 0, 40, 0
1, 346961, Control_c, 0, 64, 0
1, 346980, Note_on_c, 0, 58, 82
1, 346986, Note_on_c, 0, 60, 0
1, 346995, Note_on_c, 0, 48, 0
1, 347065, Note_on_c, 0, 41, 96
1, 347067, Note_on_c, 0, 48, 94
1, 347068, Note_on_c, 0, 58, 0
1, 347068, Note_on_c, 0, 45, 93
1, 347070, Note_on_c, 0, 57, 89
1, 347109, Control_c, 0, 64, 53
1, 347126, Control_c, 0, 64, 73
1, 347129, Note_on_c, 0, 48, 0
1, 347139, Note_on_c, 0, 45, 0
1, 347148, Note_on_c, 0, 41, 0
1, 347183, Note_on_c, 0, 59, 81
1, 347185, Note_on_c, 0, 57, 0
1, 347200, Control_c, 0, 64, 75
1, 347234, Note_on_c, 0, 48, 83
1, 347241, Note_on_c, 0, 45, 79
1, 347246, Note_on_c, 0, 41, 67
1, 347263, Note_on_c, 0, 60, 85
1, 347268, Note_on_c, 0, 59, 0
1, 347274, Control_c, 0, 64, 70
1, 347283, Note_on_c, 0, 48, 0
1, 347293, Control_c, 0, 64, 54
1, 347313, Control_c, 0, 64, 11
1, 347317, Note_on_c, 0, 41, 0
1, 347320, Note_on_c, 0, 45, 0
1, 347330, Control_c, 0, 64, 0
1, 347361, Note_on_c, 0, 59, 81
1, 347365, Note_on_c, 0, 60, 0
1, 347426, Note_on_c, 0, 59, 0
1, 347447, Note_on_c, 0, 60, 83
1, 347551, Note_on_c, 0, 64, 89
1, 347556, Note_on_c, 0, 60, 0
1, 347606, Note_on_c, 0, 45, 87
1, 347609, Note_on_c, 0, 48, 84
1, 347609, Note_on_c, 0, 41, 81
1, 347624, Note_on_c, 0, 65, 88
1, 347633, Note_on_c, 0, 64, 0
1, 347652, Note_on_c, 0, 48, 0
1, 347668, Note_on_c, 0, 45, 0
1, 347669, Note_on_c, 0, 41, 0
1, 347713, Note_on_c, 0, 64, 85
1, 347726, Note_on_c, 0, 65, 0
1, 347780, Note_on_c, 0, 64, 0
1, 347789, Note_on_c, 0, 48, 96
1, 347790, Note_on_c, 0, 45, 98
1, 347793, Note_on_c, 0, 41, 96
1, 347801, Note_on_c, 0, 65, 89
1, 347842, Control_c, 0, 64, 13
1, 347847, Note_on_c, 0, 48, 0
1, 347860, Control_c, 0, 64, 23
1, 347869, Note_on_c, 0, 45, 0
1, 347872, Note_on_c, 0, 41, 0
1, 347897, Note_on_c, 0, 68, 82
1, 347902, Note_on_c, 0, 65, 0
1, 347964, Note_on_c, 0, 48, 80
1, 347973, Note_on_c, 0, 45, 79
1, 347975, Note_on_c, 0, 68, 0
1, 347976, Note_on_c, 0, 41, 70
1, 347976, Note_on_c, 0, 69, 81
1, 347989, Control_c, 0, 64, 19
1, 348012, Note_on_c, 0, 48, 0
1, 348040, Note_on_c, 0, 41, 0
1, 348048, Note_on_c, 0, 45, 0
1, 348062, Control_c, 0, 64, 15
1, 348066, Note_on_c, 0, 69, 0
1, 348068, Note_on_c, 0, 68, 78
1, 348135, Note_on_c, 0, 68, 0
1, 348145, Note_on_c, 0, 69, 84
1, 348232, Note_on_c, 0, 71, 84
1, 348233, Note_on_c, 0, 69, 0
1, 348304, Control_c, 0, 64, 11
1, 348310, Note_on_c, 0, 45, 86
1, 348311, Note_on_c, 0, 72, 89
1, 348313, Note_on_c, 0, 48, 84
1, 348315, Note_on_c, 0, 41, 80
1, 348317, Note_on_c, 0, 71, 0
1, 348358, Note_on_c, 0, 48, 0
1, 348377, Note_on_c, 0, 45, 0
1, 348384, Note_on_c, 0, 41, 0
1, 348396, Note_on_c, 0, 71, 84
1, 348406, Note_on_c, 0, 72, 0
1, 348483, Note_on_c, 0, 71, 0
1, 348501, Note_on_c, 0, 48, 91
1, 348502, Note_on_c, 0, 72, 89
1, 348503, Note_on_c, 0, 45, 92
1, 348505, Note_on_c, 0, 41, 87
1, 348560, Note_on_c, 0, 48, 0
1, 348584, Note_on_c, 0, 45, 0
1, 348586, Note_on_c, 0, 41, 0
1, 348588, Note_on_c, 0, 76, 89
1, 348604, Note_on_c, 0, 72, 0
1, 348673, Note_on_c, 0, 76, 0
1, 348673, Note_on_c, 0, 77, 88
1, 348680, Note_on_c, 0, 48, 74
1, 348683, Note_on_c, 0, 41, 69
1, 348683, Note_on_c, 0, 45, 74
1, 348721, Note_on_c, 0, 48, 0
1, 348742, Note_on_c, 0, 45, 0
1, 348746, Note_on_c, 0, 41, 0
1, 348757, Note_on_c, 0, 76, 83
1, 348764, Note_on_c, 0, 77, 0
1, 348811, Note_on_c, 0, 76, 0
1, 348846, Note_on_c, 0, 77, 86
1, 348937, Note_on_c, 0, 80, 84
1, 348944, Note_on_c, 0, 77, 0
1, 348999, Note_on_c, 0, 48, 83
1, 349000, Note_on_c, 0, 45, 84
1, 349002, Note_on_c, 0, 41, 80
1, 349010, Note_on_c, 0, 81, 87
1, 349014, Note_on_c, 0, 80, 0
1, 349047, Note_on_c, 0, 48, 0
1, 349062, Note_on_c, 0, 45, 0
1, 349071, Note_on_c, 0, 41, 0
1, 349102, Note_on_c, 0, 80, 86
1, 349114, Note_on_c, 0, 81, 0
1, 349171, Note_on_c, 0, 48, 86
1, 349174, Note_on_c, 0, 45, 88
1, 349175, Note_on_c, 0, 41, 84
1, 349185, Note_on_c, 0, 81, 86
1, 349191, Note_on_c, 0, 80, 0
1, 349217, Note_on_c, 0, 48, 0
1, 349224, Note_on_c, 0, 45, 0
1, 349236, Note_on_c, 0, 41, 0
1, 349277, Note_on_c, 0, 83, 92
1, 349300, Note_on_c, 0, 81, 0
1, 349342, Note_on_c, 0, 48, 80
1, 349348, Note_on_c, 0, 45, 81
1, 349367, Note_on_c, 0, 41, 76
1, 349379, Note_on_c, 0, 84, 92
1, 349387, Note_on_c, 0, 83, 0
1, 349403, Note_on_c, 0, 48, 0
1, 349423, Note_on_c, 0, 41, 0
1, 349426, Note_on_c, 0, 45, 0
1, 349463, Note_on_c, 0, 84, 0
1, 349464, Note_on_c, 0, 83, 92
1, 349544, Note_on_c, 0, 84, 95
1, 349552, Note_on_c, 0, 83, 0
1, 349584, Control_c, 0, 64, 15
1, 349632, Note_on_c, 0, 83, 90
1, 349647, Note_on_c, 0, 84, 0
1, 349694, Note_on_c, 0, 45, 81
1, 349696, Note_on_c, 0, 41, 80
1, 349700, Note_on_c, 0, 48, 80
1, 349702, Note_on_c, 0, 81, 85
1, 349703, Note_on_c, 0, 83, 0
1, 349712, Control_c, 0, 64, 10
1, 349731, Control_c, 0, 64, 0
1, 349738, Note_on_c, 0, 48, 0
1, 349738, Note_on_c, 0, 41, 0
1, 349762, Note_on_c, 0, 45, 0
1, 349769, Note_on_c, 0, 81, 0
1, 349803, Note_on_c, 0, 80, 82
1, 349855, Note_on_c, 0, 80, 0
1, 349869, Note_on_c, 0, 48, 70
1, 349882, Note_on_c, 0, 50, 97
1, 349884, Note_on_c, 0, 45, 79
1, 349885, Note_on_c, 0, 42, 90
1, 349891, Note_on_c, 0, 81, 97
1, 349935, Control_c, 0, 64, 54
1, 349940, Note_on_c, 0, 50, 0
1, 349952, Control_c, 0, 64, 98
1, 349967, Note_on_c, 0, 42, 0
1, 349970, Note_on_c, 0, 45, 0
1, 349972, Control_c, 0, 64, 114
1, 349975, Note_on_c, 0, 48, 0
1, 349988, Control_c, 0, 64, 121
1, 349992, Note_on_c, 0, 80, 96
1, 350003, Note_on_c, 0, 81, 0
1, 350044, Control_c, 0, 64, 127
1, 350052, Note_on_c, 0, 49, 73
1, 350063, Note_on_c, 0, 50, 85
1, 350075, Note_on_c, 0, 81, 80
1, 350079, Note_on_c, 0, 49, 0
1, 350080, Note_on_c, 0, 42, 70
1, 350081, Note_on_c, 0, 80, 0
1, 350081, Note_on_c, 0, 48, 77
1, 350084, Note_on_c, 0, 45, 72
1, 350131, Note_on_c, 0, 50, 0
1, 350160, Note_on_c, 0, 83, 90
1, 350169, Note_on_c, 0, 48, 0
1, 350173, Note_on_c, 0, 42, 0
1, 350181, Note_on_c, 0, 81, 0
1, 350183, Note_on_c, 0, 45, 0
1, 350192, Control_c, 0, 64, 91
1, 350210, Control_c, 0, 64, 0
1, 350241, Note_on_c, 0, 84, 91
1, 350242, Note_on_c, 0, 83, 0
1, 350346, Note_on_c, 0, 83, 90
1, 350365, Note_on_c, 0, 84, 0
1, 350387, Poly_aftertouch_c, 0, 44, 0
1, 350424, Note_on_c, 0, 81, 86
1, 350425, Note_on_c, 0, 83, 0
1, 350432, Note_on_c, 0, 50, 88
1, 350434, Note_on_c, 0, 42, 82
1, 350438, Note_on_c, 0, 45, 76
1, 350438, Note_on_c, 0, 48, 78
1, 350483, Note_on_c, 0, 50, 0
1, 350503, Note_on_c, 0, 81, 0
1, 350509, Note_on_c, 0, 42, 0
1, 350513, Note_on_c, 0, 80, 84
1, 350528, Note_on_c, 0, 45, 0
1, 350528, Note_on_c, 0, 48, 0
1, 350593, Note_on_c, 0, 48, 80
1, 350598, Note_on_c, 0, 45, 72
1, 350600, Note_on_c, 0, 50, 92
1, 350600, Note_on_c, 0, 81, 95
1, 350601, Note_on_c, 0, 42, 88
1, 350607, Note_on_c, 0, 80, 0
1, 350651, Control_c, 0, 64, 17
1, 350668, Note_on_c, 0, 50, 0
1, 350669, Control_c, 0, 64, 71
1, 350686, Control_c, 0, 64, 88
1, 350688, Note_on_c, 0, 42, 0
1, 350696, Note_on_c, 0, 80, 85
1, 350700, Note_on_c, 0, 45, 0
1, 350703, Note_on_c, 0, 48, 0
1, 350704, Note_on_c, 0, 81, 0
1, 350706, Control_c, 0, 64, 96
1, 350780, Note_on_c, 0, 81, 84
1, 350781, Note_on_c, 0, 80, 0
1, 350785, Note_on_c, 0, 48, 73
1, 350786, Note_on_c, 0, 50, 80
1, 350792, Note_on_c, 0, 42, 75
1, 350798, Note_on_c, 0, 45, 65
1, 350817, Control_c, 0, 64, 91
1, 350836, Control_c, 0, 64, 74
1, 350839, Note_on_c, 0, 50, 0
1, 350852, Control_c, 0, 64, 34
1, 350868, Note_on_c, 0, 83, 89
1, 350871, Control_c, 0, 64, 0
1, 350881, Note_on_c, 0, 48, 0
1, 350893, Note_on_c, 0, 42, 0
1, 350893, Note_on_c, 0, 45, 0
1, 350894, Note_on_c, 0, 81, 0
1, 350948, Note_on_c, 0, 84, 89
1, 350955, Note_on_c, 0, 83, 0
1, 351042, Note_on_c, 0, 83, 87
1, 351062, Note_on_c, 0, 84, 0
1, 351116, Note_on_c, 0, 83, 0
1, 351122, Note_on_c, 0, 81, 81
1, 351137, Note_on_c, 0, 50, 82
1, 351140, Note_on_c, 0, 48, 74
1, 351141, Note_on_c, 0, 42, 75
1, 351143, Note_on_c, 0, 45, 71
1, 351189, Note_on_c, 0, 50, 0
1, 351202, Note_on_c, 0, 42, 0
1, 351203, Note_on_c, 0, 81, 0
1, 351205, Note_on_c, 0, 80, 84
1, 351211, Note_on_c, 0, 48, 0
1, 351221, Note_on_c, 0, 45, 0
1, 351303, Note_on_c, 0, 48, 77
1, 351303, Note_on_c, 0, 81, 88
1, 351305, Note_on_c, 0, 50, 89
1, 351306, Note_on_c, 0, 45, 69
1, 351307, Note_on_c, 0, 42, 82
1, 351322, Note_on_c, 0, 80, 0
1, 351346, Control_c, 0, 64, 52
1, 351366, Control_c, 0, 64, 71
1, 351374, Note_on_c, 0, 50, 0
1, 351388, Note_on_c, 0, 42, 0
1, 351400, Note_on_c, 0, 80, 82
1, 351402, Note_on_c, 0, 48, 0
1, 351405, Note_on_c, 0, 45, 0
1, 351412, Note_on_c, 0, 81, 0
1, 351438, Control_c, 0, 64, 68
1, 351457, Control_c, 0, 64, 66
1, 351475, Control_c, 0, 64, 62
1, 351480, Note_on_c, 0, 48, 63
1, 351485, Note_on_c, 0, 80, 0
1, 351485, Note_on_c, 0, 81, 76
1, 351485, Note_on_c, 0, 50, 68
1, 351491, Note_on_c, 0, 45, 61
1, 351494, Control_c, 0, 64, 57
1, 351501, Note_on_c, 0, 42, 63
1, 351514, Control_c, 0, 64, 53
1, 351522, Note_on_c, 0, 50, 0
1, 351532, Control_c, 0, 64, 50
1, 351548, Control_c, 0, 64, 47
1, 351559, Note_on_c, 0, 48, 0
1, 351561, Note_on_c, 0, 42, 0
1, 351567, Control_c, 0, 64, 45
1, 351570, Note_on_c, 0, 83, 86
1, 351573, Note_on_c, 0, 45, 0
1, 351587, Control_c, 0, 64, 41
1, 351589, Note_on_c, 0, 81, 0
1, 351604, Control_c, 0, 64, 36
1, 351623, Control_c, 0, 64, 31
1, 351656, Note_on_c, 0, 84, 88
1, 351659, Note_on_c, 0, 83, 0
1, 351755, Note_on_c, 0, 83, 87
1, 351771, Note_on_c, 0, 84, 0
1, 351807, Control_c, 0, 64, 26
1, 351817, Note_on_c, 0, 50, 82
1, 351819, Note_on_c, 0, 42, 75
1, 351822, Note_on_c, 0, 48, 74
1, 351826, Note_on_c, 0, 83, 0
1, 351826, Control_c, 0, 64, 13
1, 351827, Note_on_c, 0, 45, 71
1, 351835, Note_on_c, 0, 81, 83
1, 351845, Control_c, 0, 64, 0
1, 351865, Note_on_c, 0, 50, 0
1, 351881, Note_on_c, 0, 42, 0
1, 351892, Note_on_c, 0, 48, 0
1, 351900, Note_on_c, 0, 45, 0
1, 351908, Note_on_c, 0, 81, 0
1, 351917, Note_on_c, 0, 80, 82
1, 351982, Note_on_c, 0, 45, 70
1, 351982, Note_on_c, 0, 50, 85
1, 351985, Note_on_c, 0, 42, 80
1, 351985, Note_on_c, 0, 48, 74
1, 351989, Note_on_c, 0, 81, 85
1, 352002, Note_on_c, 0, 80, 0
1, 352009, Control_c, 0, 64, 36
1, 352027, Control_c, 0, 64, 45
1, 352041, Note_on_c, 0, 50, 0
1, 352061, Note_on_c, 0, 42, 0
1, 352074, Note_on_c, 0, 48, 0
1, 352079, Note_on_c, 0, 45, 0
1, 352080, Note_on_c, 0, 80, 85
1, 352092, Note_on_c, 0, 81, 0
1, 352157, Note_on_c, 0, 50, 77
1, 352172, Note_on_c, 0, 80, 0
1, 352173, Note_on_c, 0, 48, 63
1, 352179, Note_on_c, 0, 45, 57
1, 352182, Note_on_c, 0, 81, 80
1, 352186, Note_on_c, 0, 42, 65
1, 352189, Control_c, 0, 64, 43
1, 352210, Control_c, 0, 64, 41
1, 352215, Note_on_c, 0, 50, 0
1, 352236, Note_on_c, 0, 42, 0
1, 352247, Note_on_c, 0, 48, 0
1, 352254, Note_on_c, 0, 45, 0
1, 352268, Note_on_c, 0, 83, 85
1, 352282, Control_c, 0, 64, 36
1, 352286, Note_on_c, 0, 81, 0
1, 352353, Note_on_c, 0, 84, 87
1, 352356, Note_on_c, 0, 83, 0
1, 352441, Note_on_c, 0, 84, 0
1, 352445, Note_on_c, 0, 83, 86
1, 352507, Note_on_c, 0, 48, 66
1, 352510, Note_on_c, 0, 42, 64
1, 352512, Note_on_c, 0, 50, 64
1, 352523, Note_on_c, 0, 45, 45
1, 352523, Note_on_c, 0, 84, 85
1, 352525, Note_on_c, 0, 83, 0
1, 352543, Note_on_c, 0, 48, 0
1, 352552, Note_on_c, 0, 50, 0
1, 352563, Note_on_c, 0, 45, 0
1, 352565, Note_on_c, 0, 42, 0
1, 352598, Note_on_c, 0, 81, 82
1, 352603, Note_on_c, 0, 84, 0
1, 352613, Control_c, 0, 64, 28
1, 352631, Control_c, 0, 64, 0
1, 352635, Note_on_c, 0, 81, 0
1, 352734, Note_on_c, 0, 43, 86
1, 352748, Note_on_c, 0, 79, 97
1, 352757, Note_on_c, 0, 67, 89
1, 352780, Control_c, 0, 64, 47
1, 352789, Note_on_c, 0, 69, 50
1, 352790, Note_on_c, 0, 69, 0
1, 352792, Note_on_c, 0, 67, 0
1, 352798, Control_c, 0, 64, 71
1, 352816, Control_c, 0, 64, 73
1, 352822, Note_on_c, 0, 79, 0
1, 352852, Note_on_c, 0, 48, 68
1, 352864, Note_on_c, 0, 43, 0
1, 352918, Note_on_c, 0, 52, 68
1, 352926, Note_on_c, 0, 79, 87
1, 352940, Note_on_c, 0, 67, 74
1, 352955, Note_on_c, 0, 48, 0
1, 352959, Note_on_c, 0, 79, 0
1, 352964, Note_on_c, 0, 67, 0
1, 352981, Control_c, 0, 64, 70
1, 352996, Note_on_c, 0, 55, 68
1, 353000, Control_c, 0, 64, 67
1, 353011, Note_on_c, 0, 52, 0
1, 353018, Control_c, 0, 64, 66
1, 353055, Control_c, 0, 64, 64
1, 353073, Control_c, 0, 64, 63
1, 353092, Control_c, 0, 64, 62
1, 353094, Note_on_c, 0, 76, 85
1, 353117, Note_on_c, 0, 55, 0
1, 353118, Note_on_c, 0, 43, 73
1, 353119, Note_on_c, 0, 64, 77
1, 353145, Control_c, 0, 64, 61
1, 353152, Note_on_c, 0, 64, 0
1, 353160, Note_on_c, 0, 76, 0
1, 353213, Note_on_c, 0, 48, 68
1, 353218, Note_on_c, 0, 43, 0
1, 353255, Control_c, 0, 64, 62
1, 353281, Note_on_c, 0, 52, 69
1, 353290, Control_c, 0, 64, 64
1, 353293, Note_on_c, 0, 72, 82
1, 353305, Note_on_c, 0, 60, 67
1, 353318, Note_on_c, 0, 48, 0
1, 353328, Note_on_c, 0, 72, 0
1, 353331, Note_on_c, 0, 60, 0
1, 353347, Control_c, 0, 64, 63
1, 353364, Control_c, 0, 64, 60
1, 353366, Note_on_c, 0, 55, 64
1, 353367, Note_on_c, 0, 52, 0
1, 353384, Control_c, 0, 64, 58
1, 353451, Note_on_c, 0, 55, 0
1, 353463, Note_on_c, 0, 43, 84
1, 353465, Note_on_c, 0, 84, 99
1, 353469, Note_on_c, 0, 72, 91
1, 353475, Control_c, 0, 64, 60
1, 353501, Note_on_c, 0, 72, 0
1, 353513, Control_c, 0, 64, 61
1, 353517, Note_on_c, 0, 84, 0
1, 353559, Note_on_c, 0, 48, 67
1, 353573, Note_on_c, 0, 43, 0
1, 353627, Note_on_c, 0, 84, 89
1, 353638, Note_on_c, 0, 72, 79
1, 353641, Control_c, 0, 64, 62
1, 353651, Note_on_c, 0, 52, 62
1, 353667, Note_on_c, 0, 72, 0
1, 353668, Note_on_c, 0, 84, 0
1, 353669, Note_on_c, 0, 48, 0
1, 353723, Note_on_c, 0, 52, 0
1, 353723, Note_on_c, 0, 55, 63
1, 353770, Control_c, 0, 64, 61
1, 353808, Control_c, 0, 64, 60
1, 353821, Note_on_c, 0, 43, 74
1, 353822, Note_on_c, 0, 55, 0
1, 353826, Note_on_c, 0, 79, 81
1, 353840, Note_on_c, 0, 67, 70
1, 353855, Note_on_c, 0, 79, 0
1, 353864, Note_on_c, 0, 67, 0
1, 353917, Note_on_c, 0, 43, 0
1, 353917, Note_on_c, 0, 48, 66
1, 353992, Note_on_c, 0, 76, 82
1, 354004, Note_on_c, 0, 52, 69
1, 354007, Note_on_c, 0, 64, 71
1, 354027, Note_on_c, 0, 48, 0
1, 354032, Note_on_c, 0, 64, 0
1, 354070, Note_on_c, 0, 76, 0
1, 354097, Note_on_c, 0, 55, 68
1, 354107, Note_on_c, 0, 52, 0
1, 354178, Note_on_c, 0, 43, 85
1, 354180, Note_on_c, 0, 79, 97
1, 354183, Note_on_c, 0, 67, 96
1, 354197, Note_on_c, 0, 55, 0
1, 354225, Note_on_c, 0, 67, 0
1, 354235, Note_on_c, 0, 79, 0
1, 354247, Control_c, 0, 64, 61
1, 354263, Note_on_c, 0, 48, 66
1, 354284, Control_c, 0, 64, 62
1, 354302, Control_c, 0, 64, 63
1, 354311, Note_on_c, 0, 43, 0
1, 354320, Control_c, 0, 64, 64
1, 354344, Note_on_c, 0, 52, 72
1, 354350, Note_on_c, 0, 79, 85
1, 354356, Note_on_c, 0, 67, 80
1, 354375, Control_c, 0, 64, 65
1, 354379, Note_on_c, 0, 79, 0
1, 354383, Note_on_c, 0, 67, 0
1, 354384, Note_on_c, 0, 48, 0
1, 354432, Note_on_c, 0, 55, 61
1, 354442, Note_on_c, 0, 52, 0
1, 354527, Note_on_c, 0, 43, 79
1, 354529, Note_on_c, 0, 76, 81
1, 354544, Note_on_c, 0, 64, 71
1, 354546, Note_on_c, 0, 55, 0
1, 354573, Note_on_c, 0, 76, 0
1, 354580, Note_on_c, 0, 64, 0
1, 354580, Control_c, 0, 64, 66
1, 354615, Note_on_c, 0, 48, 68
1, 354657, Note_on_c, 0, 43, 0
1, 354669, Control_c, 0, 64, 67
1, 354700, Note_on_c, 0, 52, 70
1, 354704, Note_on_c, 0, 72, 78
1, 354712, Note_on_c, 0, 60, 68
1, 354726, Note_on_c, 0, 45, 22
1, 354737, Note_on_c, 0, 60, 0
1, 354739, Note_on_c, 0, 45, 0
1, 354740, Note_on_c, 0, 72, 0
1, 354744, Note_on_c, 0, 48, 0
1, 354768, Note_on_c, 0, 55, 75
1, 354772, Note_on_c, 0, 52, 0
1, 354779, Control_c, 0, 64, 69
1, 354855, Control_c, 0, 64, 68
1, 354865, Note_on_c, 0, 52, 87
1, 354874, Control_c, 0, 64, 64
1, 354879, Note_on_c, 0, 55, 0
1, 354880, Note_on_c, 0, 84, 101
1, 354880, Note_on_c, 0, 72, 95
1, 354892, Control_c, 0, 64, 58
1, 354895, Note_on_c, 0, 52, 0
1, 354908, Control_c, 0, 64, 54
1, 354917, Note_on_c, 0, 72, 0
1, 354922, Note_on_c, 0, 84, 0
1, 355017, Control_c, 0, 64, 52
1, 355054, Note_on_c, 0, 84, 87
1, 355059, Note_on_c, 0, 52, 68
1, 355064, Note_on_c, 0, 72, 81
1, 355085, Note_on_c, 0, 84, 0
1, 355089, Note_on_c, 0, 72, 0
1, 355091, Note_on_c, 0, 52, 0
1, 355144, Control_c, 0, 64, 50
1, 355228, Note_on_c, 0, 48, 66
1, 355228, Note_on_c, 0, 79, 80
1, 355238, Note_on_c, 0, 67, 69
1, 355259, Note_on_c, 0, 79, 0
1, 355261, Note_on_c, 0, 67, 0
1, 355273, Note_on_c, 0, 48, 0
1, 355274, Control_c, 0, 64, 48
1, 355387, Note_on_c, 0, 43, 69
1, 355394, Note_on_c, 0, 76, 77
1, 355406, Note_on_c, 0, 64, 56
1, 355424, Note_on_c, 0, 76, 0
1, 355439, Note_on_c, 0, 64, 0
1, 355445, Note_on_c, 0, 43, 0
1, 355569, Note_on_c, 0, 55, 93
1, 355601, Note_on_c, 0, 55, 0
1, 355669, Note_on_c, 0, 84, 63
1, 355698, Note_on_c, 0, 84, 0
1, 355747, Note_on_c, 0, 88, 65
1, 355749, Note_on_c, 0, 52, 61
1, 355789, Note_on_c, 0, 88, 0
1, 355791, Note_on_c, 0, 52, 0
1, 355809, Note_on_c, 0, 84, 57
1, 355876, Note_on_c, 0, 84, 0
1, 355881, Control_c, 0, 64, 46
1, 355924, Note_on_c, 0, 91, 70
1, 355932, Note_on_c, 0, 60, 65
1, 355960, Note_on_c, 0, 60, 0
1, 355998, Note_on_c, 0, 91, 0
1, 356021, Note_on_c, 0, 88, 70
1, 356076, Note_on_c, 0, 88, 0
1, 356097, Note_on_c, 0, 55, 67
1, 356117, Control_c, 0, 64, 44
1, 356122, Note_on_c, 0, 91, 62
1, 356134, Note_on_c, 0, 55, 0
1, 356164, Note_on_c, 0, 91, 0
1, 356203, Note_on_c, 0, 88, 66
1, 356244, Note_on_c, 0, 88, 0
1, 356266, Control_c, 0, 64, 42
1, 356279, Note_on_c, 0, 64, 73
1, 356281, Note_on_c, 0, 91, 69
1, 356309, Note_on_c, 0, 64, 0
1, 356334, Note_on_c, 0, 91, 0
1, 356370, Note_on_c, 0, 88, 65
1, 356412, Note_on_c, 0, 88, 0
1, 356440, Note_on_c, 0, 60, 66
1, 356449, Control_c, 0, 64, 40
1, 356457, Note_on_c, 0, 91, 69
1, 356477, Note_on_c, 0, 60, 0
1, 356494, Note_on_c, 0, 91, 0
1, 356532, Note_on_c, 0, 88, 65
1, 356572, Note_on_c, 0, 88, 0
1, 356576, Control_c, 0, 64, 36
1, 356608, Note_on_c, 0, 91, 68
1, 356609, Note_on_c, 0, 67, 69
1, 356644, Note_on_c, 0, 67, 0
1, 356662, Note_on_c, 0, 91, 0
1, 356703, Note_on_c, 0, 88, 63
1, 356745, Note_on_c, 0, 88, 0
1, 356781, Note_on_c, 0, 64, 59
1, 356782, Note_on_c, 0, 91, 67
1, 356815, Note_on_c, 0, 64, 0
1, 356826, Note_on_c, 0, 91, 0
1, 356875, Note_on_c, 0, 88, 62
1, 356920, Note_on_c, 0, 88, 0
1, 356951, Note_on_c, 0, 91, 70
1, 356963, Note_on_c, 0, 72, 72
1, 356995, Note_on_c, 0, 72, 0
1, 357012, Note_on_c, 0, 91, 0
1, 357040, Note_on_c, 0, 88, 65
1, 357087, Note_on_c, 0, 88, 0
1, 357127, Note_on_c, 0, 67, 60
1, 357128, Note_on_c, 0, 91, 64
1, 357168, Note_on_c, 0, 67, 0
1, 357174, Note_on_c, 0, 91, 0
1, 357218, Note_on_c, 0, 88, 61
1, 357258, Note_on_c, 0, 88, 0
1, 357273, Control_c, 0, 67, 8
1, 357297, Note_on_c, 0, 76, 66
1, 357298, Note_on_c, 0, 91, 66
1, 357330, Note_on_c, 0, 76, 0
1, 357349, Control_c, 0, 67, 12
1, 357357, Note_on_c, 0, 91, 0
1, 357390, Note_on_c, 0, 88, 56
1, 357402, Control_c, 0, 67, 19
1, 357439, Control_c, 0, 67, 23
1, 357440, Note_on_c, 0, 88, 0
1, 357463, Note_on_c, 0, 72, 59
1, 357478, Note_on_c, 0, 91, 68
1, 357495, Control_c, 0, 67, 27
1, 357501, Note_on_c, 0, 72, 0
1, 357514, Control_c, 0, 67, 33
1, 357532, Control_c, 0, 67, 38
1, 357534, Note_on_c, 0, 91, 0
1, 357551, Control_c, 0, 67, 42
1, 357567, Note_on_c, 0, 88, 63
1, 357569, Control_c, 0, 67, 47
1, 357588, Control_c, 0, 67, 55
1, 357607, Control_c, 0, 67, 65
1, 357613, Note_on_c, 0, 88, 0
1, 357624, Control_c, 0, 67, 78
1, 357639, Note_on_c, 0, 81, 68
1, 357642, Control_c, 0, 67, 92
1, 357651, Note_on_c, 0, 91, 68
1, 357659, Control_c, 0, 67, 103
1, 357671, Note_on_c, 0, 81, 0
1, 357679, Control_c, 0, 67, 111
1, 357698, Control_c, 0, 67, 116
1, 357699, Note_on_c, 0, 91, 0
1, 357733, Control_c, 0, 67, 124
1, 357734, Note_on_c, 0, 88, 63
1, 357799, Note_on_c, 0, 88, 0
1, 357811, Note_on_c, 0, 76, 63
1, 357832, Note_on_c, 0, 91, 70
1, 357870, Note_on_c, 0, 76, 0
1, 357884, Note_on_c, 0, 91, 0
1, 357912, Note_on_c, 0, 88, 68
1, 357964, Note_on_c, 0, 88, 0
1, 357985, Note_on_c, 0, 84, 70
1, 357987, Note_on_c, 0, 91, 72
1, 358019, Note_on_c, 0, 84, 0
1, 358044, Note_on_c, 0, 91, 0
1, 358073, Note_on_c, 0, 88, 63
1, 358116, Note_on_c, 0, 88, 0
1, 358145, Note_on_c, 0, 91, 67
1, 358169, Note_on_c, 0, 79, 50
1, 358196, Note_on_c, 0, 79, 0
1, 358233, Note_on_c, 0, 88, 64
1, 358235, Note_on_c, 0, 91, 0
1, 358273, Note_on_c, 0, 88, 0
1, 358326, Note_on_c, 0, 83, 80
1, 358365, Note_on_c, 0, 83, 0
1, 358430, Note_on_c, 0, 89, 58
1, 358472, Note_on_c, 0, 89, 0
1, 358485, Note_on_c, 0, 79, 62
1, 358514, Note_on_c, 0, 91, 50
1, 358517, Note_on_c, 0, 79, 0
1, 358546, Note_on_c, 0, 91, 0
1, 358578, Note_on_c, 0, 89, 65
1, 358596, Control_c, 0, 64, 32
1, 358637, Note_on_c, 0, 89, 0
1, 358659, Note_on_c, 0, 83, 64
1, 358660, Note_on_c, 0, 92, 62
1, 358686, Note_on_c, 0, 83, 0
1, 358710, Note_on_c, 0, 92, 0
1, 358771, Note_on_c, 0, 89, 53
1, 358812, Note_on_c, 0, 89, 0
1, 358854, Note_on_c, 0, 91, 55
1, 358856, Note_on_c, 0, 79, 43
1, 358888, Note_on_c, 0, 79, 0
1, 358894, Note_on_c, 0, 91, 0
1, 358921, Note_on_c, 0, 89, 57
1, 358988, Note_on_c, 0, 89, 0
1, 359015, Note_on_c, 0, 92, 62
1, 359027, Note_on_c, 0, 83, 61
1, 359052, Note_on_c, 0, 83, 0
1, 359067, Note_on_c, 0, 92, 0
1, 359105, Note_on_c, 0, 89, 59
1, 359150, Note_on_c, 0, 89, 0
1, 359193, Note_on_c, 0, 79, 50
1, 359202, Note_on_c, 0, 91, 49
1, 359224, Note_on_c, 0, 79, 0
1, 359244, Note_on_c, 0, 91, 0
1, 359270, Note_on_c, 0, 89, 59
1, 359338, Note_on_c, 0, 89, 0
1, 359357, Note_on_c, 0, 92, 65
1, 359365, Note_on_c, 0, 83, 60
1, 359392, Note_on_c, 0, 83, 0
1, 359415, Note_on_c, 0, 92, 0
1, 359456, Note_on_c, 0, 89, 60
1, 359501, Note_on_c, 0, 89, 0
1, 359537, Note_on_c, 0, 79, 55
1, 359542, Note_on_c, 0, 91, 53
1, 359568, Note_on_c, 0, 79, 0
1, 359590, Note_on_c, 0, 91, 0
1, 359616, Note_on_c, 0, 89, 54
1, 359693, Note_on_c, 0, 89, 0
1, 359718, Note_on_c, 0, 92, 62
1, 359735, Note_on_c, 0, 83, 58
1, 359761, Note_on_c, 0, 83, 0
1, 359782, Note_on_c, 0, 92, 0
1, 359809, Note_on_c, 0, 89, 60
1, 359857, Note_on_c, 0, 89, 0
1, 359902, Note_on_c, 0, 91, 51
1, 359909, Note_on_c, 0, 79, 49
1, 359941, Note_on_c, 0, 79, 0
1, 359952, Note_on_c, 0, 91, 0
1, 359974, Note_on_c, 0, 89, 59
1, 360039, Note_on_c, 0, 89, 0
1, 360064, Note_on_c, 0, 92, 62
1, 360077, Note_on_c, 0, 83, 55
1, 360104, Note_on_c, 0, 83, 0
1, 360120, Note_on_c, 0, 92, 0
1, 360161, Note_on_c, 0, 89, 60
1, 360208, Note_on_c, 0, 89, 0
1, 360236, Note_on_c, 0, 79, 56
1, 360246, Note_on_c, 0, 91, 59
1, 360276, Note_on_c, 0, 79, 0
1, 360299, Note_on_c, 0, 91, 0
1, 360331, Note_on_c, 0, 89, 59
1, 360397, Note_on_c, 0, 89, 0
1, 360421, Note_on_c, 0, 92, 67
1, 360422, Note_on_c, 0, 83, 57
1, 360448, Note_on_c, 0, 83, 0
1, 360490, Note_on_c, 0, 92, 0
1, 360517, Note_on_c, 0, 89, 61
1, 360563, Note_on_c, 0, 89, 0
1, 360608, Note_on_c, 0, 91, 58
1, 360609, Note_on_c, 0, 79, 53
1, 360642, Note_on_c, 0, 79, 0
1, 360662, Note_on_c, 0, 91, 0
1, 360686, Note_on_c, 0, 89, 58
1, 360754, Note_on_c, 0, 89, 0
1, 360777, Note_on_c, 0, 92, 63
1, 360781, Note_on_c, 0, 83, 56
1, 360806, Note_on_c, 0, 83, 0
1, 360830, Note_on_c, 0, 92, 0
1, 360867, Note_on_c, 0, 89, 58
1, 360889, Control_c, 0, 64, 25
1, 360907, Control_c, 0, 64, 0
1, 360916, Note_on_c, 0, 89, 0
1, 360937, Note_on_c, 0, 79, 50
1, 360949, Note_on_c, 0, 91, 56
1, 360970, Note_on_c, 0, 79, 0
1, 361006, Note_on_c, 0, 91, 0
1, 361027, Note_on_c, 0, 89, 59
1, 361035, Control_c, 0, 64, 20
1, 361053, Control_c, 0, 64, 48
1, 361072, Control_c, 0, 64, 70
1, 361091, Control_c, 0, 64, 82
1, 361109, Control_c, 0, 64, 92
1, 361110, Note_on_c, 0, 89, 0
1, 361128, Control_c, 0, 64, 98
1, 361131, Note_on_c, 0, 83, 61
1, 361137, Note_on_c, 0, 93, 63
1, 361160, Note_on_c, 0, 83, 0
1, 361163, Control_c, 0, 64, 103
1, 361200, Control_c, 0, 64, 109
1, 361208, Note_on_c, 0, 93, 0
1, 361216, Note_on_c, 0, 84, 51
1, 361244, Note_on_c, 0, 89, 53
1, 361268, Note_on_c, 0, 84, 0
1, 361274, Note_on_c, 0, 89, 0
1, 361274, Control_c, 0, 64, 113
1, 361279, Note_on_c, 0, 83, 48
1, 361308, Note_on_c, 0, 91, 60
1, 361318, Note_on_c, 0, 83, 0
1, 361366, Note_on_c, 0, 91, 0
1, 361366, Note_on_c, 0, 84, 58
1, 361373, Note_on_c, 0, 89, 59
1, 361417, Note_on_c, 0, 83, 64
1, 361423, Note_on_c, 0, 84, 0
1, 361439, Note_on_c, 0, 89, 0
1, 361456, Note_on_c, 0, 83, 0
1, 361462, Note_on_c, 0, 93, 74
1, 361509, Note_on_c, 0, 93, 0
1, 361510, Note_on_c, 0, 84, 59
1, 361564, Note_on_c, 0, 83, 70
1, 361571, Note_on_c, 0, 89, 64
1, 361573, Note_on_c, 0, 84, 0
1, 361600, Note_on_c, 0, 89, 0
1, 361605, Note_on_c, 0, 83, 0
1, 361646, Note_on_c, 0, 91, 67
1, 361666, Note_on_c, 0, 84, 58
1, 361698, Note_on_c, 0, 91, 0
1, 361698, Note_on_c, 0, 84, 0
1, 361706, Note_on_c, 0, 89, 65
1, 361708, Note_on_c, 0, 83, 70
1, 361737, Note_on_c, 0, 83, 0
1, 361779, Note_on_c, 0, 89, 0
1, 361781, Note_on_c, 0, 84, 70
1, 361813, Note_on_c, 0, 93, 80
1, 361824, Note_on_c, 0, 83, 71
1, 361840, Note_on_c, 0, 84, 0
1, 361872, Note_on_c, 0, 83, 0
1, 361880, Note_on_c, 0, 93, 0
1, 361895, Note_on_c, 0, 89, 78
1, 361913, Note_on_c, 0, 84, 59
1, 361949, Note_on_c, 0, 89, 0
1, 361962, Note_on_c, 0, 84, 0
1, 361967, Note_on_c, 0, 83, 72
1, 361986, Note_on_c, 0, 91, 79
1, 362006, Note_on_c, 0, 83, 0
1, 362028, Poly_aftertouch_c, 0, 79, 0
1, 362039, Note_on_c, 0, 84, 67
1, 362051, Note_on_c, 0, 91, 0
1, 362065, Note_on_c, 0, 89, 77
1, 362099, Note_on_c, 0, 84, 0
1, 362105, Note_on_c, 0, 83, 71
1, 362124, Note_on_c, 0, 89, 0
1, 362137, Note_on_c, 0, 83, 0
1, 362156, Note_on_c, 0, 93, 90
1, 362172, Note_on_c, 0, 84, 63
1, 362184, Poly_aftertouch_c, 0, 79, 0
1, 362228, Note_on_c, 0, 83, 72
1, 362234, Note_on_c, 0, 84, 0
1, 362238, Note_on_c, 0, 93, 0
1, 362247, Note_on_c, 0, 89, 80
1, 362281, Note_on_c, 0, 83, 0
1, 362285, Control_c, 0, 64, 117
1, 362308, Note_on_c, 0, 84, 59
1, 362317, Note_on_c, 0, 89, 0
1, 362333, Note_on_c, 0, 91, 73
1, 362363, Note_on_c, 0, 83, 67
1, 362364, Note_on_c, 0, 84, 0
1, 362404, Note_on_c, 0, 91, 0
1, 362410, Note_on_c, 0, 89, 74
1, 362417, Note_on_c, 0, 83, 0
1, 362431, Control_c, 0, 64, 121
1, 362458, Note_on_c, 0, 84, 52
1, 362502, Note_on_c, 0, 89, 0
1, 362502, Control_c, 0, 67, 120
1, 362518, Note_on_c, 0, 84, 0
1, 362521, Control_c, 0, 67, 113
1, 362536, Note_on_c, 0, 83, 61
1, 362536, Note_on_c, 0, 93, 75
1, 362540, Control_c, 0, 67, 105
1, 362556, Control_c, 0, 67, 95
1, 362569, Note_on_c, 0, 83, 0
1, 362575, Control_c, 0, 67, 82
1, 362579, Note_on_c, 0, 93, 0
1, 362595, Control_c, 0, 67, 63
1, 362613, Control_c, 0, 67, 35
1, 362617, Note_on_c, 0, 84, 48
1, 362648, Control_c, 0, 64, 125
1, 362648, Control_c, 0, 67, 0
1, 362657, Note_on_c, 0, 83, 71
1, 362678, Note_on_c, 0, 84, 0
1, 362708, Note_on_c, 0, 91, 79
1, 362712, Note_on_c, 0, 83, 0
1, 362715, Note_on_c, 0, 89, 76
1, 362745, Note_on_c, 0, 89, 0
1, 362749, Note_on_c, 0, 91, 0
1, 362757, Note_on_c, 0, 84, 37
1, 362810, Note_on_c, 0, 83, 70
1, 362812, Note_on_c, 0, 84, 0
1, 362849, Note_on_c, 0, 83, 0
1, 362883, Note_on_c, 0, 91, 87
1, 362884, Note_on_c, 0, 84, 59
1, 362890, Note_on_c, 0, 89, 80
1, 362916, Note_on_c, 0, 89, 0
1, 362920, Note_on_c, 0, 91, 0
1, 362939, Note_on_c, 0, 84, 0
1, 362944, Note_on_c, 0, 83, 75
1, 362977, Note_on_c, 0, 83, 0
1, 363017, Note_on_c, 0, 84, 66
1, 363055, Note_on_c, 0, 91, 92
1, 363058, Note_on_c, 0, 89, 85
1, 363073, Note_on_c, 0, 83, 80
1, 363082, Note_on_c, 0, 84, 0
1, 363091, Note_on_c, 0, 89, 0
1, 363099, Note_on_c, 0, 91, 0
1, 363122, Note_on_c, 0, 83, 0
1, 363141, Poly_aftertouch_c, 0, 79, 127
1, 363150, Note_on_c, 0, 84, 65
1, 363216, Note_on_c, 0, 84, 0
1, 363217, Note_on_c, 0, 83, 72
1, 363229, Note_on_c, 0, 91, 97
1, 363232, Note_on_c, 0, 89, 93
1, 363257, Note_on_c, 0, 83, 0
1, 363267, Note_on_c, 0, 89, 0
1, 363272, Note_on_c, 0, 91, 0
1, 363287, Note_on_c, 0, 84, 66
1, 363355, Note_on_c, 0, 83, 80
1, 363356, Note_on_c, 0, 84, 0
1, 363410, Note_on_c, 0, 91, 99
1, 363411, Note_on_c, 0, 89, 98
1, 363419, Note_on_c, 0, 83, 0
1, 363441, Note_on_c, 0, 84, 64
1, 363452, Note_on_c, 0, 89, 0
1, 363457, Note_on_c, 0, 91, 0
1, 363506, Note_on_c, 0, 84, 0
1, 363507, Note_on_c, 0, 83, 75
1, 363559, Poly_aftertouch_c, 0, 77, 0
1, 363565, Note_on_c, 0, 83, 0
1, 363576, Note_on_c, 0, 91, 102
1, 363579, Note_on_c, 0, 89, 95
1, 363581, Note_on_c, 0, 84, 64
1, 363619, Note_on_c, 0, 89, 0
1, 363625, Note_on_c, 0, 91, 0
1, 363644, Note_on_c, 0, 84, 0
1, 363656, Note_on_c, 0, 83, 50
1, 363692, Note_on_c, 0, 84, 55
1, 363697, Note_on_c, 0, 83, 0
1, 363752, Note_on_c, 0, 91, 92
1, 363755, Note_on_c, 0, 89, 85
1, 363762, Note_on_c, 0, 84, 0
1, 363762, Poly_aftertouch_c, 0, 79, 0
1, 363793, Note_on_c, 0, 81, 70
1, 363797, Note_on_c, 0, 89, 0
1, 363803, Note_on_c, 0, 91, 0
1, 363855, Note_on_c, 0, 83, 88
1, 363880, Note_on_c, 0, 81, 0
1, 363903, Note_on_c, 0, 83, 0
1, 364186, Note_on_c, 0, 84, 70
1, 364241, Note_on_c, 0, 72, 84
1, 364267, Note_on_c, 0, 60, 74
1, 364303, Control_c, 0, 64, 88
1, 364322, Control_c, 0, 64, 27
1, 364355, Control_c, 0, 64, 0
1, 364446, Control_c, 0, 64, 19
1, 364466, Control_c, 0, 64, 44
1, 364480, Poly_aftertouch_c, 0, 92, 127
1, 364483, Control_c, 0, 64, 67
1, 364501, Control_c, 0, 64, 81
1, 364520, Control_c, 0, 64, 93
1, 364538, Control_c, 0, 64, 101
1, 364575, Control_c, 0, 64, 105
1, 364576, Control_c, 0, 67, 8
1, 364632, Control_c, 0, 67, 12
1, 364706, Control_c, 0, 67, 17
1, 364723, Control_c, 0, 67, 22
1, 364741, Control_c, 0, 67, 27
1, 364759, Control_c, 0, 67, 32
1, 364778, Control_c, 0, 67, 38
1, 364798, Control_c, 0, 67, 44
1, 364813, Control_c, 0, 67, 50
1, 364833, Control_c, 0, 67, 56
1, 364851, Control_c, 0, 67, 62
1, 364870, Control_c, 0, 67, 71
1, 364888, Control_c, 0, 67, 79
1, 364907, Control_c, 0, 67, 87
1, 364925, Control_c, 0, 67, 94
1, 364944, Control_c, 0, 67, 100
1, 364961, Control_c, 0, 67, 107
1, 364980, Control_c, 0, 67, 114
1, 364998, Control_c, 0, 67, 121
1, 365017, Control_c, 0, 67, 127
1, 365165, Control_c, 0, 64, 101
1, 365258, Control_c, 0, 64, 97
1, 365347, Control_c, 0, 64, 91
1, 365364, Control_c, 0, 64, 88
1, 365382, Control_c, 0, 64, 79
1, 365401, Control_c, 0, 64, 63
1, 365421, Note_on_c, 0, 70, 44
1, 365421, Control_c, 0, 64, 33
1, 365425, Note_on_c, 0, 67, 33
1, 365434, Note_on_c, 0, 64, 39
1, 365435, Control_c, 0, 64, 0
1, 365453, Note_on_c, 0, 72, 0
1, 365579, Poly_aftertouch_c, 0, 92, 0
1, 365586, Control_c, 0, 64, 32
1, 365604, Control_c, 0, 64, 53
1, 365622, Control_c, 0, 64, 69
1, 365642, Control_c, 0, 64, 79
1, 365657, Note_on_c, 0, 84, 0
1, 365659, Control_c, 0, 64, 89
1, 365676, Control_c, 0, 64, 96
1, 365694, Control_c, 0, 64, 103
1, 365732, Control_c, 0, 64, 108
1, 365907, Note_on_c, 0, 67, 0
1, 365939, Note_on_c, 0, 84, 58
1, 365999, Note_on_c, 0, 64, 0
1, 366029, Note_on_c, 0, 82, 62
1, 366055, Note_on_c, 0, 84, 0
1, 366111, Note_on_c, 0, 80, 64
1, 366140, Note_on_c, 0, 82, 0
1, 366173, Note_on_c, 0, 80, 0
1, 366192, Control_c, 0, 64, 104
1, 366200, Note_on_c, 0, 79, 65
1, 366264, Control_c, 0, 64, 99
1, 366274, Note_on_c, 0, 79, 0
1, 366297, Control_c, 0, 64, 91
1, 366302, Note_on_c, 0, 80, 69
1, 366317, Control_c, 0, 64, 84
1, 366327, Note_on_c, 0, 65, 46
1, 366328, Note_on_c, 0, 68, 51
1, 366336, Control_c, 0, 64, 76
1, 366355, Control_c, 0, 64, 70
1, 366371, Note_on_c, 0, 70, 0
1, 366373, Control_c, 0, 64, 67
1, 366386, Note_on_c, 0, 80, 0
1, 366394, Note_on_c, 0, 79, 68
1, 366409, Control_c, 0, 64, 66
1, 366444, Note_on_c, 0, 79, 0
1, 366446, Control_c, 0, 64, 64
1, 366466, Control_c, 0, 64, 63
1, 366476, Note_on_c, 0, 77, 70
1, 366485, Control_c, 0, 64, 62
1, 366503, Control_c, 0, 64, 61
1, 366541, Note_on_c, 0, 77, 0
1, 366556, Note_on_c, 0, 76, 72
1, 366557, Control_c, 0, 64, 60
1, 366618, Note_on_c, 0, 76, 0
1, 366642, Note_on_c, 0, 77, 78
1, 366648, Note_on_c, 0, 65, 0
1, 366668, Control_c, 0, 64, 61
1, 366686, Control_c, 0, 64, 65
1, 366706, Control_c, 0, 64, 68
1, 366724, Control_c, 0, 64, 70
1, 366733, Note_on_c, 0, 79, 74
1, 366735, Note_on_c, 0, 77, 0
1, 366760, Control_c, 0, 64, 72
1, 366812, Note_on_c, 0, 80, 84
1, 366830, Note_on_c, 0, 79, 0
1, 366897, Note_on_c, 0, 82, 82
1, 366924, Control_c, 0, 64, 70
1, 366928, Note_on_c, 0, 80, 0
1, 366960, Note_on_c, 0, 82, 0
1, 366981, Control_c, 0, 64, 68
1, 366990, Note_on_c, 0, 67, 51
1, 366993, Note_on_c, 0, 84, 80
1, 367000, Control_c, 0, 64, 67
1, 367013, Note_on_c, 0, 70, 49
1, 367017, Control_c, 0, 64, 65
1, 367035, Note_on_c, 0, 68, 0
1, 367035, Control_c, 0, 64, 64
1, 367048, Note_on_c, 0, 64, 35
1, 367055, Control_c, 0, 64, 63
1, 367072, Control_c, 0, 64, 62
1, 367074, Note_on_c, 0, 84, 0
1, 367078, Note_on_c, 0, 85, 80
1, 367109, Control_c, 0, 64, 61
1, 367163, Control_c, 0, 64, 60
1, 367187, Note_on_c, 0, 84, 81
1, 367194, Note_on_c, 0, 85, 0
1, 367264, Note_on_c, 0, 84, 0
1, 367268, Note_on_c, 0, 83, 77
1, 367291, Control_c, 0, 64, 58
1, 367348, Note_on_c, 0, 84, 74
1, 367350, Note_on_c, 0, 83, 0
1, 367378, Note_on_c, 0, 67, 0
1, 367432, Note_on_c, 0, 82, 77
1, 367457, Note_on_c, 0, 84, 0
1, 367464, Note_on_c, 0, 64, 0
1, 367518, Note_on_c, 0, 82, 0
1, 367527, Note_on_c, 0, 80, 68
1, 367589, Note_on_c, 0, 80, 0
1, 367615, Note_on_c, 0, 79, 57
1, 367692, Note_on_c, 0, 79, 0
1, 367705, Note_on_c, 0, 80, 61
1, 367733, Note_on_c, 0, 68, 39
1, 367749, Note_on_c, 0, 65, 30
1, 367759, Note_on_c, 0, 80, 0
1, 367772, Note_on_c, 0, 70, 0
1, 367801, Note_on_c, 0, 82, 59
1, 367807, Control_c, 0, 64, 56
1, 367893, Note_on_c, 0, 80, 58
1, 367923, Note_on_c, 0, 60, 0
1, 367925, Note_on_c, 0, 82, 0
1, 367961, Note_on_c, 0, 68, 0
1, 367961, Note_on_c, 0, 65, 0
1, 367977, Note_on_c, 0, 80, 0
1, 367985, Note_on_c, 0, 79, 61
1, 368024, Note_on_c, 0, 79, 0
1, 368055, Note_on_c, 0, 77, 69
1, 368098, Control_c, 0, 64, 54
1, 368137, Note_on_c, 0, 77, 0
1, 368169, Note_on_c, 0, 76, 54
1, 368189, Control_c, 0, 64, 52
1, 368210, Note_on_c, 0, 76, 0
1, 368241, Note_on_c, 0, 77, 64
1, 368262, Control_c, 0, 64, 50
1, 368299, Note_on_c, 0, 77, 0
1, 368352, Note_on_c, 0, 79, 57
1, 368482, Control_c, 0, 64, 43
1, 368494, Note_on_c, 0, 80, 68
1, 368494, Note_on_c, 0, 61, 41
1, 368500, Note_on_c, 0, 79, 0
1, 368501, Control_c, 0, 64, 13
1, 368514, Note_on_c, 0, 65, 33
1, 368515, Note_on_c, 0, 56, 31
1, 368520, Control_c, 0, 64, 0
1, 368532, Note_on_c, 0, 68, 48
1, 368540, Note_on_c, 0, 53, 25
1, 368650, Control_c, 0, 64, 14
1, 368668, Control_c, 0, 64, 38
1, 368687, Control_c, 0, 64, 56
1, 368703, Control_c, 0, 64, 70
1, 368723, Control_c, 0, 64, 75
1, 368742, Control_c, 0, 64, 79
1, 368760, Control_c, 0, 64, 82
1, 368779, Control_c, 0, 64, 86
1, 368788, Note_on_c, 0, 61, 0
1, 368795, Note_on_c, 0, 53, 0
1, 368797, Control_c, 0, 64, 91
1, 368816, Control_c, 0, 64, 95
1, 368825, Note_on_c, 0, 56, 0
1, 368854, Control_c, 0, 64, 99
1, 368896, Note_on_c, 0, 77, 69
1, 368933, Note_on_c, 0, 68, 0
1, 368943, Control_c, 0, 64, 103
1, 368962, Note_on_c, 0, 80, 0
1, 369074, Note_on_c, 0, 73, 69
1, 369106, Note_on_c, 0, 77, 0
1, 369106, Control_c, 0, 64, 107
1, 369170, Poly_aftertouch_c, 0, 65, 24
1, 369218, Note_on_c, 0, 65, 0
1, 369218, Poly_aftertouch_c, 0, 65, 0
1, 369292, Note_on_c, 0, 79, 61
1, 369300, Note_on_c, 0, 63, 47
1, 369306, Note_on_c, 0, 67, 49
1, 369328, Control_c, 0, 64, 100
1, 369331, Note_on_c, 0, 73, 0
1, 369331, Note_on_c, 0, 60, 38
1, 369331, Note_on_c, 0, 55, 40
1, 369345, Control_c, 0, 64, 85
1, 369365, Control_c, 0, 64, 57
1, 369383, Control_c, 0, 64, 0
1, 369703, Note_on_c, 0, 79, 0
1, 369704, Note_on_c, 0, 75, 60
1, 369732, Control_c, 0, 64, 16
1, 369750, Control_c, 0, 64, 36
1, 369755, Note_on_c, 0, 67, 0
1, 369769, Control_c, 0, 64, 57
1, 369781, Note_on_c, 0, 60, 0
1, 369785, Control_c, 0, 64, 74
1, 369806, Control_c, 0, 64, 83
1, 369825, Control_c, 0, 64, 91
1, 369843, Control_c, 0, 64, 95
1, 369862, Control_c, 0, 67, 122
1, 369879, Control_c, 0, 67, 115
1, 369890, Note_on_c, 0, 72, 58
1, 369897, Note_on_c, 0, 63, 0
1, 369898, Control_c, 0, 67, 108
1, 369917, Control_c, 0, 64, 100
1, 369919, Control_c, 0, 67, 101
1, 369935, Control_c, 0, 67, 94
1, 369969, Control_c, 0, 67, 86
1, 369987, Control_c, 0, 67, 77
1, 370006, Control_c, 0, 67, 70
1, 370025, Control_c, 0, 67, 63
1, 370043, Control_c, 0, 67, 57
1, 370061, Control_c, 0, 67, 53
1, 370079, Control_c, 0, 67, 48
1, 370098, Control_c, 0, 67, 44
1, 370108, Note_on_c, 0, 72, 0
1, 370114, Control_c, 0, 67, 39
1, 370116, Note_on_c, 0, 75, 0
1, 370117, Note_on_c, 0, 77, 57
1, 370132, Control_c, 0, 67, 34
1, 370140, Note_on_c, 0, 65, 31
1, 370141, Note_on_c, 0, 62, 39
1, 370150, Note_on_c, 0, 59, 32
1, 370151, Control_c, 0, 64, 93
1, 370152, Control_c, 0, 67, 29
1, 370172, Control_c, 0, 64, 75
1, 370175, Control_c, 0, 67, 23
1, 370190, Control_c, 0, 64, 43
1, 370191, Control_c, 0, 67, 17
1, 370208, Control_c, 0, 64, 0
1, 370209, Control_c, 0, 67, 9
1, 370264, Control_c, 0, 67, 0
1, 370320, Control_c, 0, 64, 19
1, 370337, Control_c, 0, 64, 42
1, 370353, Control_c, 0, 64, 63
1, 370373, Control_c, 0, 64, 75
1, 370391, Control_c, 0, 64, 83
1, 370393, Poly_aftertouch_c, 0, 65, 24
1, 370410, Control_c, 0, 64, 88
1, 370412, Note_on_c, 0, 65, 0
1, 370412, Poly_aftertouch_c, 0, 65, 0
1, 370446, Control_c, 0, 64, 94
1, 370461, Note_on_c, 0, 55, 0
1, 370466, Note_on_c, 0, 62, 0
1, 370483, Control_c, 0, 64, 98
1, 370514, Poly_aftertouch_c, 0, 59, 24
1, 370536, Note_on_c, 0, 74, 48
1, 370539, Control_c, 0, 64, 102
1, 370545, Note_on_c, 0, 59, 0
1, 370545, Poly_aftertouch_c, 0, 59, 0
1, 370616, Note_on_c, 0, 77, 0
1, 370694, Note_on_c, 0, 74, 0
1, 370719, Note_on_c, 0, 71, 50
1, 370972, Note_on_c, 0, 72, 62
1, 370979, Note_on_c, 0, 71, 0
1, 371015, Note_on_c, 0, 60, 75
1, 371050, Control_c, 0, 64, 94
1, 371058, Note_on_c, 0, 48, 50
1, 371068, Control_c, 0, 64, 69
1, 371088, Control_c, 0, 64, 0
1, 371200, Control_c, 0, 64, 33
1, 371217, Control_c, 0, 64, 54
1, 371235, Control_c, 0, 64, 71
1, 371256, Control_c, 0, 64, 78
1, 371273, Control_c, 0, 64, 84
1, 371289, Control_c, 0, 64, 88
1, 371327, Control_c, 0, 64, 94
1, 371402, Control_c, 0, 64, 98
1, 371477, Control_c, 0, 67, 8
1, 371622, Control_c, 0, 67, 12
1, 371806, Control_c, 0, 67, 16
1, 371914, Poly_aftertouch_c, 0, 60, 24
1, 371937, Note_on_c, 0, 55, 32
1, 371949, Control_c, 0, 64, 94
1, 371952, Note_on_c, 0, 58, 40
1, 371955, Note_on_c, 0, 60, 0
1, 371955, Poly_aftertouch_c, 0, 60, 0
1, 371969, Control_c, 0, 64, 76
1, 371986, Control_c, 0, 64, 39
1, 371987, Control_c, 0, 67, 20
1, 372005, Control_c, 0, 64, 0
1, 372058, Poly_aftertouch_c, 0, 52, 127
1, 372096, Control_c, 0, 64, 41
1, 372115, Control_c, 0, 64, 70
1, 372117, Control_c, 0, 67, 24
1, 372124, Note_on_c, 0, 72, 0
1, 372132, Control_c, 0, 64, 87
1, 372151, Control_c, 0, 64, 102
1, 372171, Control_c, 0, 64, 109
1, 372172, Control_c, 0, 67, 29
1, 372226, Control_c, 0, 64, 113
1, 372282, Control_c, 0, 67, 33
1, 372338, Control_c, 0, 67, 37
1, 372411, Control_c, 0, 67, 43
1, 372447, Control_c, 0, 67, 48
1, 372453, Note_on_c, 0, 55, 0
1, 372484, Control_c, 0, 67, 52
1, 372493, Poly_aftertouch_c, 0, 52, 0
1, 372521, Control_c, 0, 67, 57
1, 372532, Note_on_c, 0, 72, 52
1, 372537, Control_c, 0, 67, 61
1, 372546, Note_on_c, 0, 58, 0
1, 372557, Control_c, 0, 67, 65
1, 372595, Control_c, 0, 67, 71
1, 372620, Note_on_c, 0, 72, 0
1, 372624, Note_on_c, 0, 70, 57
1, 372631, Control_c, 0, 67, 76
1, 372669, Control_c, 0, 67, 81
1, 372706, Control_c, 0, 67, 88
1, 372741, Control_c, 0, 67, 93
1, 372744, Note_on_c, 0, 69, 46
1, 372745, Note_on_c, 0, 70, 0
1, 372789, Note_on_c, 0, 69, 0
1, 372798, Note_on_c, 0, 67, 58
1, 372812, Control_c, 0, 67, 98
1, 372847, Note_on_c, 0, 67, 0
1, 372848, Control_c, 0, 67, 102
1, 372886, Control_c, 0, 64, 107
1, 372887, Control_c, 0, 67, 108
1, 372890, Note_on_c, 0, 69, 56
1, 372896, Note_on_c, 0, 57, 55
1, 372903, Note_on_c, 0, 53, 48
1, 372904, Control_c, 0, 64, 103
1, 372922, Control_c, 0, 64, 97
1, 372923, Control_c, 0, 67, 115
1, 372940, Control_c, 0, 64, 89
1, 372941, Control_c, 0, 67, 119
1, 372944, Note_on_c, 0, 69, 0
1, 372955, Note_on_c, 0, 67, 65
1, 372958, Control_c, 0, 64, 78
1, 372961, Control_c, 0, 67, 123
1, 372978, Control_c, 0, 64, 67
1, 372997, Control_c, 0, 64, 59
1, 372998, Control_c, 0, 67, 127
1, 373013, Control_c, 0, 64, 56
1, 373042, Note_on_c, 0, 67, 0
1, 373061, Note_on_c, 0, 65, 65
1, 373070, Control_c, 0, 64, 53
1, 373108, Control_c, 0, 64, 50
1, 373113, Note_on_c, 0, 65, 0
1, 373125, Control_c, 0, 64, 47
1, 373144, Control_c, 0, 64, 45
1, 373146, Note_on_c, 0, 64, 70
1, 373179, Control_c, 0, 64, 41
1, 373195, Note_on_c, 0, 53, 0
1, 373198, Note_on_c, 0, 64, 0
1, 373217, Control_c, 0, 64, 35
1, 373233, Note_on_c, 0, 65, 69
1, 373255, Control_c, 0, 64, 29
1, 373291, Control_c, 0, 64, 18
1, 373306, Note_on_c, 0, 65, 0
1, 373308, Control_c, 0, 64, 0
1, 373321, Note_on_c, 0, 67, 68
1, 373402, Note_on_c, 0, 67, 0
1, 373405, Note_on_c, 0, 69, 71
1, 373485, Note_on_c, 0, 70, 78
1, 373491, Note_on_c, 0, 69, 0
1, 373548, Note_on_c, 0, 70, 0
1, 373572, Note_on_c, 0, 55, 43
1, 373572, Note_on_c, 0, 72, 80
1, 373582, Note_on_c, 0, 58, 45
1, 373610, Note_on_c, 0, 52, 43
1, 373613, Note_on_c, 0, 72, 0
1, 373625, Note_on_c, 0, 57, 0
1, 373661, Note_on_c, 0, 74, 73
1, 373757, Note_on_c, 0, 72, 72
1, 373770, Note_on_c, 0, 74, 0
1, 373824, Note_on_c, 0, 72, 0
1, 373833, Note_on_c, 0, 71, 78
1, 373891, Note_on_c, 0, 71, 0
1, 373920, Note_on_c, 0, 72, 80
1, 373949, Note_on_c, 0, 55, 0
1, 373984, Note_on_c, 0, 52, 0
1, 374000, Note_on_c, 0, 72, 0
1, 374008, Note_on_c, 0, 70, 74
1, 374067, Note_on_c, 0, 70, 0
1, 374090, Note_on_c, 0, 69, 69
1, 374151, Note_on_c, 0, 69, 0
1, 374177, Note_on_c, 0, 67, 63
1, 374253, Note_on_c, 0, 67, 0
1, 374268, Note_on_c, 0, 69, 61
1, 374272, Note_on_c, 0, 53, 41
1, 374276, Note_on_c, 0, 57, 44
1, 374284, Note_on_c, 0, 58, 0
1, 374318, Note_on_c, 0, 69, 0
1, 374349, Note_on_c, 0, 70, 63
1, 374440, Note_on_c, 0, 69, 59
1, 374491, Note_on_c, 0, 57, 0
1, 374505, Note_on_c, 0, 69, 0
1, 374507, Note_on_c, 0, 70, 0
1, 374517, Note_on_c, 0, 67, 57
1, 374543, Note_on_c, 0, 48, 0
1, 374563, Note_on_c, 0, 67, 0
1, 374567, Note_on_c, 0, 53, 0
1, 374600, Note_on_c, 0, 65, 65
1, 374676, Note_on_c, 0, 65, 0
1, 374699, Note_on_c, 0, 64, 59
1, 374768, Note_on_c, 0, 64, 0
1, 374783, Note_on_c, 0, 65, 61
1, 374846, Note_on_c, 0, 65, 0
1, 374882, Note_on_c, 0, 67, 59
1, 375023, Note_on_c, 0, 69, 63
1, 375024, Note_on_c, 0, 50, 42
1, 375029, Note_on_c, 0, 67, 0
1, 375047, Note_on_c, 0, 45, 34
1, 375051, Note_on_c, 0, 41, 35
1, 375062, Note_on_c, 0, 57, 32
1, 375198, Control_c, 0, 64, 19
1, 375218, Control_c, 0, 64, 36
1, 375236, Control_c, 0, 64, 48
1, 375255, Control_c, 0, 64, 62
1, 375271, Control_c, 0, 64, 70
1, 375291, Control_c, 0, 64, 73
1, 375310, Control_c, 0, 64, 75
1, 375327, Control_c, 0, 64, 78
1, 375345, Control_c, 0, 64, 82
1, 375366, Control_c, 0, 64, 86
1, 375390, Note_on_c, 0, 45, 0
1, 375395, Note_on_c, 0, 41, 0
1, 375399, Control_c, 0, 64, 91
1, 375450, Note_on_c, 0, 65, 62
1, 375489, Note_on_c, 0, 69, 0
1, 375635, Control_c, 0, 64, 95
1, 375636, Note_on_c, 0, 62, 70
1, 375653, Note_on_c, 0, 57, 0
1, 375691, Note_on_c, 0, 65, 0
1, 375838, Note_on_c, 0, 67, 61
1, 375853, Note_on_c, 0, 43, 39
1, 375860, Note_on_c, 0, 62, 0
1, 375862, Note_on_c, 0, 48, 33
1, 375865, Note_on_c, 0, 52, 43
1, 375865, Note_on_c, 0, 55, 46
1, 375876, Control_c, 0, 64, 88
1, 375889, Note_on_c, 0, 50, 0
1, 375894, Control_c, 0, 64, 76
1, 375913, Control_c, 0, 64, 57
1, 375933, Control_c, 0, 64, 16
1, 375951, Control_c, 0, 64, 0
1, 376190, Control_c, 0, 64, 18
1, 376207, Control_c, 0, 64, 37
1, 376224, Note_on_c, 0, 64, 57
1, 376226, Control_c, 0, 64, 51
1, 376231, Note_on_c, 0, 52, 0
1, 376245, Control_c, 0, 64, 64
1, 376258, Note_on_c, 0, 67, 0
1, 376263, Control_c, 0, 64, 70
1, 376280, Control_c, 0, 64, 72
1, 376310, Note_on_c, 0, 48, 0
1, 376318, Control_c, 0, 64, 75
1, 376335, Control_c, 0, 64, 77
1, 376374, Control_c, 0, 64, 79
1, 376427, Note_on_c, 0, 60, 53
1, 376439, Note_on_c, 0, 64, 0
1, 376646, Control_c, 0, 64, 75
1, 376651, Note_on_c, 0, 50, 36
1, 376652, Note_on_c, 0, 65, 47
1, 376658, Note_on_c, 0, 53, 30
1, 376665, Control_c, 0, 64, 62
1, 376675, Note_on_c, 0, 60, 0
1, 376683, Control_c, 0, 64, 37
1, 376702, Control_c, 0, 64, 0
1, 376849, Control_c, 0, 64, 17
1, 376868, Control_c, 0, 64, 37
1, 376887, Control_c, 0, 64, 45
1, 376903, Control_c, 0, 64, 53
1, 376922, Control_c, 0, 64, 57
1, 377043, Note_on_c, 0, 62, 49
1, 377047, Note_on_c, 0, 50, 0
1, 377097, Note_on_c, 0, 65, 0
1, 377161, Control_c, 0, 64, 55
1, 377205, Note_on_c, 0, 62, 0
1, 377216, Control_c, 0, 64, 53
1, 377227, Note_on_c, 0, 59, 46
1, 377271, Control_c, 0, 64, 51
1, 377310, Control_c, 0, 64, 48
1, 377347, Control_c, 0, 64, 44
1, 377363, Control_c, 0, 64, 39
1, 377383, Control_c, 0, 64, 32
1, 377402, Control_c, 0, 64, 19
1, 377419, Control_c, 0, 64, 0
1, 377421, Note_on_c, 0, 53, 0
1, 377429, Poly_aftertouch_c, 0, 55, 24
1, 377464, Note_on_c, 0, 52, 26
1, 377472, Note_on_c, 0, 60, 38
1, 377475, Note_on_c, 0, 59, 0
1, 377480, Note_on_c, 0, 48, 32
1, 377590, Note_on_c, 0, 43, 0
1, 377601, Control_c, 0, 64, 32
1, 377618, Control_c, 0, 64, 56
1, 377635, Note_on_c, 0, 55, 0
1, 377635, Poly_aftertouch_c, 0, 55, 0
1, 377636, Control_c, 0, 64, 71
1, 377656, Control_c, 0, 64, 79
1, 377657, Control_c, 0, 67, 118
1, 377658, Note_on_c, 0, 60, 0
1, 377666, Note_on_c, 0, 48, 0
1, 377675, Control_c, 0, 64, 87
1, 377675, Control_c, 0, 67, 106
1, 377692, Control_c, 0, 64, 94
1, 377693, Control_c, 0, 67, 92
1, 377711, Control_c, 0, 64, 100
1, 377713, Control_c, 0, 67, 74
1, 377728, Control_c, 0, 64, 104
1, 377729, Control_c, 0, 67, 56
1, 377748, Control_c, 0, 67, 40
1, 377767, Control_c, 0, 64, 108
1, 377768, Control_c, 0, 67, 23
1, 377784, Control_c, 0, 67, 8
1, 377797, Note_on_c, 0, 52, 0
1, 377839, Control_c, 0, 64, 113
1, 377840, Control_c, 0, 67, 0
1, 378018, Note_on_c, 0, 72, 59
1, 378052, Note_on_c, 0, 48, 47
1, 378061, Control_c, 0, 64, 108
1, 378065, Note_on_c, 0, 40, 46
1, 378080, Control_c, 0, 64, 89
1, 378097, Control_c, 0, 64, 61
1, 378117, Control_c, 0, 64, 32
1, 378170, Control_c, 0, 64, 47
1, 378174, Note_on_c, 0, 40, 0
1, 378190, Control_c, 0, 64, 65
1, 378207, Control_c, 0, 64, 76
1, 378227, Control_c, 0, 64, 84
1, 378232, Note_on_c, 0, 71, 71
1, 378247, Control_c, 0, 64, 89
1, 378282, Control_c, 0, 64, 93
1, 378291, Note_on_c, 0, 72, 0
1, 378434, Note_on_c, 0, 41, 48
1, 378442, Note_on_c, 0, 69, 71
1, 378482, Control_c, 0, 64, 79
1, 378490, Note_on_c, 0, 71, 0
1, 378500, Control_c, 0, 64, 54
1, 378519, Control_c, 0, 64, 0
1, 378590, Control_c, 0, 67, 8
1, 378616, Note_on_c, 0, 48, 0
1, 378619, Note_on_c, 0, 50, 59
1, 378812, Control_c, 0, 67, 12
1, 378817, Note_on_c, 0, 50, 0
1, 378817, Note_on_c, 0, 65, 66
1, 378820, Note_on_c, 0, 52, 54
1, 378866, Control_c, 0, 67, 17
1, 378868, Note_on_c, 0, 69, 0
1, 378886, Control_c, 0, 64, 22
1, 378904, Control_c, 0, 64, 49
1, 378905, Control_c, 0, 67, 24
1, 378922, Control_c, 0, 64, 65
1, 378923, Control_c, 0, 67, 29
1, 378928, Note_on_c, 0, 41, 0
1, 378941, Control_c, 0, 64, 71
1, 378942, Control_c, 0, 67, 34
1, 378959, Control_c, 0, 64, 73
1, 378960, Control_c, 0, 67, 39
1, 378966, Note_on_c, 0, 65, 0
1, 378976, Note_on_c, 0, 52, 0
1, 378978, Control_c, 0, 67, 45
1, 378980, Note_on_c, 0, 62, 63
1, 378994, Note_on_c, 0, 53, 49
1, 378996, Control_c, 0, 67, 51
1, 379014, Control_c, 0, 67, 56
1, 379034, Control_c, 0, 67, 61
1, 379052, Control_c, 0, 67, 66
1, 379053, Note_on_c, 0, 53, 0
1, 379070, Control_c, 0, 67, 72
1, 379086, Control_c, 0, 67, 81
1, 379106, Control_c, 0, 67, 92
1, 379124, Control_c, 0, 67, 102
1, 379143, Control_c, 0, 67, 110
1, 379161, Control_c, 0, 67, 115
1, 379181, Control_c, 0, 67, 119
1, 379200, Control_c, 0, 67, 123
1, 379218, Control_c, 0, 67, 127
1, 379222, Note_on_c, 0, 67, 56
1, 379241, Note_on_c, 0, 43, 40
1, 379244, Note_on_c, 0, 62, 0
1, 379253, Control_c, 0, 64, 71
1, 379268, Note_on_c, 0, 55, 37
1, 379270, Note_on_c, 0, 52, 36
1, 379272, Control_c, 0, 64, 65
1, 379290, Control_c, 0, 64, 51
1, 379323, Control_c, 0, 64, 25
1, 379343, Control_c, 0, 64, 0
1, 379526, Control_c, 0, 64, 34
1, 379545, Control_c, 0, 64, 48
1, 379564, Control_c, 0, 64, 61
1, 379580, Control_c, 0, 64, 67
1, 379593, Note_on_c, 0, 52, 0
1, 379616, Note_on_c, 0, 67, 0
1, 379636, Note_on_c, 0, 64, 48
1, 379789, Note_on_c, 0, 64, 0
1, 379835, Note_on_c, 0, 60, 44
1, 379932, Control_c, 0, 64, 66
1, 379987, Control_c, 0, 64, 65
1, 380024, Control_c, 0, 64, 61
1, 380030, Note_on_c, 0, 53, 39
1, 380033, Note_on_c, 0, 65, 49
1, 380042, Control_c, 0, 64, 51
1, 380061, Control_c, 0, 64, 32
1, 380062, Note_on_c, 0, 50, 35
1, 380064, Note_on_c, 0, 55, 0
1, 380074, Note_on_c, 0, 60, 0
1, 380078, Control_c, 0, 64, 0
1, 380326, Note_on_c, 0, 50, 0
1, 380353, Control_c, 0, 64, 28
1, 380370, Control_c, 0, 64, 38
1, 380389, Control_c, 0, 64, 46
1, 380408, Control_c, 0, 64, 56
1, 380425, Control_c, 0, 64, 62
1, 380432, Note_on_c, 0, 65, 0
1, 380444, Control_c, 0, 64, 65
1, 380453, Note_on_c, 0, 62, 44
1, 380461, Control_c, 0, 64, 66
1, 380498, Control_c, 0, 64, 67
1, 380604, Note_on_c, 0, 62, 0
1, 380642, Note_on_c, 0, 59, 42
1, 380719, Control_c, 0, 64, 66
1, 380757, Control_c, 0, 64, 64
1, 380775, Control_c, 0, 64, 62
1, 380794, Control_c, 0, 64, 58
1, 380799, Note_on_c, 0, 53, 0
1, 380813, Control_c, 0, 64, 47
1, 380822, Note_on_c, 0, 59, 0
1, 380832, Control_c, 0, 64, 24
1, 380840, Note_on_c, 0, 48, 22
1, 380843, Note_on_c, 0, 52, 36
1, 380851, Control_c, 0, 64, 0
1, 380861, Note_on_c, 0, 60, 32
1, 380926, Poly_aftertouch_c, 0, 43, 24
1, 380977, Control_c, 0, 64, 25
1, 380981, Note_on_c, 0, 43, 0
1, 380981, Poly_aftertouch_c, 0, 43, 0
1, 380995, Control_c, 0, 64, 54
1, 381014, Control_c, 0, 64, 74
1, 381016, Note_on_c, 0, 60, 0
1, 381033, Control_c, 0, 64, 87
1, 381050, Note_on_c, 0, 52, 0
1, 381051, Control_c, 0, 64, 100
1, 381055, Note_on_c, 0, 48, 0
1, 381071, Control_c, 0, 64, 106
1, 381089, Control_c, 0, 64, 111
1, 381124, Control_c, 0, 64, 115
1, 381144, Control_c, 0, 67, 115
1, 381161, Control_c, 0, 67, 101
1, 381194, Control_c, 0, 67, 84
1, 381213, Control_c, 0, 67, 64
1, 381232, Control_c, 0, 67, 44
1, 381250, Control_c, 0, 67, 27
1, 381269, Control_c, 0, 67, 13
1, 381390, Note_on_c, 0, 77, 64
1, 381398, Control_c, 0, 67, 0
1, 381413, Note_on_c, 0, 53, 49
1, 381417, Control_c, 0, 64, 102
1, 381424, Note_on_c, 0, 45, 41
1, 381434, Control_c, 0, 64, 77
1, 381452, Control_c, 0, 64, 49
1, 381471, Control_c, 0, 64, 36
1, 381509, Control_c, 0, 64, 46
1, 381527, Note_on_c, 0, 45, 0
1, 381527, Control_c, 0, 64, 63
1, 381546, Control_c, 0, 64, 75
1, 381565, Control_c, 0, 64, 85
1, 381583, Control_c, 0, 64, 92
1, 381598, Note_on_c, 0, 76, 80
1, 381598, Control_c, 0, 64, 96
1, 381667, Note_on_c, 0, 77, 0
1, 381672, Control_c, 0, 64, 100
1, 381786, Control_c, 0, 64, 94
1, 381799, Note_on_c, 0, 74, 78
1, 381803, Note_on_c, 0, 46, 56
1, 381804, Control_c, 0, 64, 74
1, 381821, Control_c, 0, 64, 38
1, 381839, Control_c, 0, 64, 0
1, 381853, Note_on_c, 0, 76, 0
1, 381949, Control_c, 0, 67, 8
1, 381952, Note_on_c, 0, 55, 64
1, 381957, Note_on_c, 0, 53, 0
1, 382099, Control_c, 0, 67, 12
1, 382168, Note_on_c, 0, 55, 0
1, 382169, Note_on_c, 0, 70, 71
1, 382173, Note_on_c, 0, 57, 60
1, 382212, Note_on_c, 0, 74, 0
1, 382218, Note_on_c, 0, 46, 0
1, 382222, Control_c, 0, 64, 19
1, 382242, Control_c, 0, 64, 50
1, 382243, Control_c, 0, 67, 17
1, 382261, Control_c, 0, 64, 66
1, 382280, Control_c, 0, 64, 72
1, 382282, Control_c, 0, 67, 24
1, 382316, Control_c, 0, 64, 74
1, 382333, Control_c, 0, 67, 29
1, 382345, Note_on_c, 0, 70, 0
1, 382347, Note_on_c, 0, 57, 0
1, 382347, Note_on_c, 0, 67, 63
1, 382350, Note_on_c, 0, 58, 56
1, 382369, Control_c, 0, 67, 36
1, 382388, Control_c, 0, 67, 40
1, 382402, Note_on_c, 0, 58, 0
1, 382405, Control_c, 0, 67, 44
1, 382426, Control_c, 0, 67, 48
1, 382444, Control_c, 0, 67, 53
1, 382463, Control_c, 0, 67, 57
1, 382481, Control_c, 0, 67, 64
1, 382500, Control_c, 0, 67, 72
1, 382518, Control_c, 0, 67, 78
1, 382535, Control_c, 0, 67, 83
1, 382554, Control_c, 0, 67, 87
1, 382573, Control_c, 0, 67, 91
1, 382590, Control_c, 0, 67, 98
1, 382596, Note_on_c, 0, 67, 0
1, 382604, Note_on_c, 0, 72, 57
1, 382608, Control_c, 0, 67, 108
1, 382622, Note_on_c, 0, 48, 30
1, 382627, Control_c, 0, 64, 71
1, 382628, Control_c, 0, 67, 119
1, 382629, Note_on_c, 0, 60, 36
1, 382643, Note_on_c, 0, 57, 40
1, 382646, Control_c, 0, 64, 60
1, 382647, Control_c, 0, 67, 127
1, 382665, Control_c, 0, 64, 42
1, 382683, Control_c, 0, 64, 0
1, 382794, Control_c, 0, 64, 13
1, 382813, Control_c, 0, 64, 37
1, 382829, Control_c, 0, 64, 56
1, 382847, Control_c, 0, 64, 69
1, 382868, Control_c, 0, 64, 72
1, 382983, Note_on_c, 0, 57, 0
1, 382989, Note_on_c, 0, 72, 0
1, 383005, Note_on_c, 0, 69, 58
1, 383033, Control_c, 0, 64, 70
1, 383065, Control_c, 0, 64, 68
1, 383084, Control_c, 0, 64, 67
1, 383121, Control_c, 0, 64, 66
1, 383159, Control_c, 0, 64, 64
1, 383171, Note_on_c, 0, 69, 0
1, 383177, Control_c, 0, 64, 63
1, 383195, Control_c, 0, 64, 62
1, 383200, Note_on_c, 0, 65, 48
1, 383251, Control_c, 0, 64, 61
1, 383288, Control_c, 0, 64, 60
1, 383380, Control_c, 0, 64, 57
1, 383398, Control_c, 0, 64, 52
1, 383412, Note_on_c, 0, 65, 0
1, 383414, Note_on_c, 0, 70, 50
1, 383416, Control_c, 0, 64, 41
1, 383420, Note_on_c, 0, 55, 33
1, 383426, Note_on_c, 0, 58, 32
1, 383435, Control_c, 0, 64, 16
1, 383444, Note_on_c, 0, 60, 0
1, 383452, Control_c, 0, 64, 0
1, 383638, Control_c, 0, 64, 10
1, 383657, Control_c, 0, 64, 33
1, 383675, Control_c, 0, 64, 39
1, 383692, Control_c, 0, 64, 46
1, 383711, Control_c, 0, 64, 54
1, 383719, Note_on_c, 0, 55, 0
1, 383730, Control_c, 0, 64, 57
1, 383834, Note_on_c, 0, 67, 47
1, 383888, Note_on_c, 0, 70, 0
1, 383950, Control_c, 0, 64, 55
1, 383980, Note_on_c, 0, 67, 0
1, 384031, Note_on_c, 0, 64, 41
1, 384076, Control_c, 0, 64, 53
1, 384132, Control_c, 0, 64, 50
1, 384150, Control_c, 0, 64, 48
1, 384168, Control_c, 0, 64, 45
1, 384186, Control_c, 0, 64, 39
1, 384205, Control_c, 0, 64, 30
1, 384223, Control_c, 0, 64, 13
1, 384240, Control_c, 0, 64, 0
1, 384242, Note_on_c, 0, 56, 34
1, 384251, Note_on_c, 0, 64, 0
1, 384257, Note_on_c, 0, 65, 31
1, 384260, Note_on_c, 0, 58, 0
1, 384267, Note_on_c, 0, 53, 28
1, 384308, Poly_aftertouch_c, 0, 48, 24
1, 384360, Note_on_c, 0, 48, 0
1, 384360, Poly_aftertouch_c, 0, 48, 0
1, 384426, Control_c, 0, 64, 28
1, 384444, Control_c, 0, 64, 58
1, 384456, Note_on_c, 0, 65, 0
1, 384461, Control_c, 0, 64, 73
1, 384479, Control_c, 0, 64, 79
1, 384493, Note_on_c, 0, 53, 0
1, 384498, Control_c, 0, 64, 84
1, 384517, Control_c, 0, 64, 87
1, 384555, Control_c, 0, 64, 93
1, 384567, Note_on_c, 0, 56, 0
1, 384857, Note_on_c, 0, 77, 49
1, 384899, Note_on_c, 0, 53, 45
1, 384945, Note_on_c, 0, 44, 38
1, 384955, Control_c, 0, 64, 86
1, 384974, Control_c, 0, 64, 62
1, 384992, Control_c, 0, 64, 0
1, 385086, Control_c, 0, 64, 26
1, 385103, Control_c, 0, 64, 49
1, 385122, Control_c, 0, 64, 68
1, 385130, Note_on_c, 0, 44, 0
1, 385142, Control_c, 0, 64, 76
1, 385159, Control_c, 0, 64, 81
1, 385172, Note_on_c, 0, 75, 58
1, 385211, Note_on_c, 0, 77, 0
1, 385213, Control_c, 0, 64, 83
1, 385388, Note_on_c, 0, 46, 38
1, 385400, Note_on_c, 0, 73, 60
1, 385435, Note_on_c, 0, 75, 0
1, 385454, Control_c, 0, 64, 73
1, 385472, Control_c, 0, 64, 50
1, 385473, Control_c, 0, 67, 117
1, 385490, Control_c, 0, 64, 0
1, 385491, Control_c, 0, 67, 102
1, 385509, Control_c, 0, 67, 82
1, 385528, Control_c, 0, 67, 58
1, 385547, Control_c, 0, 67, 33
1, 385563, Control_c, 0, 67, 8
1, 385576, Note_on_c, 0, 53, 0
1, 385583, Control_c, 0, 64, 35
1, 385584, Control_c, 0, 67, 0
1, 385601, Note_on_c, 0, 55, 47
1, 385601, Control_c, 0, 64, 57
1, 385620, Control_c, 0, 64, 72
1, 385636, Control_c, 0, 64, 78
1, 385654, Control_c, 0, 64, 82
1, 385693, Control_c, 0, 64, 85
1, 385712, Control_c, 0, 64, 87
1, 385768, Control_c, 0, 64, 75
1, 385773, Note_on_c, 0, 55, 0
1, 385784, Control_c, 0, 64, 47
1, 385789, Note_on_c, 0, 70, 56
1, 385802, Control_c, 0, 64, 0
1, 385809, Note_on_c, 0, 56, 47
1, 385832, Note_on_c, 0, 73, 0
1, 385891, Control_c, 0, 64, 31
1, 385910, Control_c, 0, 64, 56
1, 385928, Control_c, 0, 64, 73
1, 385946, Control_c, 0, 64, 81
1, 385966, Control_c, 0, 64, 85
1, 385968, Control_c, 0, 67, 9
1, 385975, Note_on_c, 0, 56, 0
1, 385985, Control_c, 0, 67, 14
1, 385986, Note_on_c, 0, 70, 0
1, 385986, Note_on_c, 0, 46, 0
1, 385989, Note_on_c, 0, 67, 56
1, 385991, Note_on_c, 0, 58, 46
1, 386004, Control_c, 0, 67, 22
1, 386022, Control_c, 0, 67, 33
1, 386039, Control_c, 0, 67, 42
1, 386058, Control_c, 0, 67, 51
1, 386073, Note_on_c, 0, 58, 0
1, 386075, Control_c, 0, 67, 63
1, 386095, Control_c, 0, 67, 80
1, 386112, Control_c, 0, 67, 102
1, 386131, Control_c, 0, 67, 120
1, 386148, Control_c, 0, 67, 127
1, 386168, Control_c, 0, 64, 83
1, 386243, Control_c, 0, 64, 81
1, 386252, Note_on_c, 0, 67, 0
1, 386278, Control_c, 0, 64, 77
1, 386285, Note_on_c, 0, 72, 54
1, 386297, Control_c, 0, 64, 68
1, 386316, Control_c, 0, 64, 46
1, 386327, Note_on_c, 0, 48, 32
1, 386328, Note_on_c, 0, 56, 26
1, 386335, Control_c, 0, 64, 0
1, 386347, Note_on_c, 0, 60, 27
1, 386482, Control_c, 0, 64, 37
1, 386499, Control_c, 0, 64, 56
1, 386517, Control_c, 0, 64, 68
1, 386537, Control_c, 0, 64, 71
1, 386685, Control_c, 0, 64, 73
1, 386688, Note_on_c, 0, 60, 0
1, 386691, Note_on_c, 0, 56, 0
1, 386702, Note_on_c, 0, 72, 0
1, 386718, Note_on_c, 0, 68, 43
1, 386907, Note_on_c, 0, 68, 0
1, 386913, Note_on_c, 0, 65, 38
1, 387151, Note_on_c, 0, 70, 45
1, 387159, Control_c, 0, 64, 71
1, 387174, Note_on_c, 0, 65, 0
1, 387176, Note_on_c, 0, 55, 30
1, 387178, Control_c, 0, 64, 65
1, 387179, Note_on_c, 0, 58, 38
1, 387196, Control_c, 0, 64, 49
1, 387214, Control_c, 0, 64, 20
1, 387233, Control_c, 0, 64, 0
1, 387380, Control_c, 0, 64, 34
1, 387399, Control_c, 0, 64, 47
1, 387418, Control_c, 0, 64, 58
1, 387435, Control_c, 0, 64, 64
1, 387472, Control_c, 0, 64, 62
1, 387491, Control_c, 0, 64, 48
1, 387507, Control_c, 0, 64, 19
1, 387525, Control_c, 0, 64, 0
1, 387580, Note_on_c, 0, 67, 43
1, 387602, Note_on_c, 0, 70, 0
1, 387639, Control_c, 0, 64, 28
1, 387654, Control_c, 0, 64, 46
1, 387674, Control_c, 0, 64, 63
1, 387693, Control_c, 0, 64, 71
1, 387711, Control_c, 0, 64, 74
1, 387721, Note_on_c, 0, 48, 0
1, 387755, Note_on_c, 0, 55, 0
1, 387756, Note_on_c, 0, 67, 0
1, 387780, Control_c, 0, 64, 77
1, 387811, Note_on_c, 0, 64, 38
1, 387816, Control_c, 0, 64, 81
1, 387837, Control_c, 0, 64, 84
1, 387856, Control_c, 0, 64, 86
1, 387893, Control_c, 0, 64, 91
1, 388001, Poly_aftertouch_c, 0, 58, 24
1, 388001, Control_c, 0, 64, 79
1, 388020, Control_c, 0, 64, 46
1, 388038, Control_c, 0, 64, 0
1, 388043, Note_on_c, 0, 58, 0
1, 388043, Poly_aftertouch_c, 0, 58, 0
1, 388083, Poly_aftertouch_c, 0, 64, 20
1, 388092, Note_on_c, 0, 64, 0
1, 388092, Poly_aftertouch_c, 0, 64, 0
1, 388092, Poly_aftertouch_c, 0, 64, 0
1, 388094, Note_on_c, 0, 65, 47
1, 388110, Note_on_c, 0, 56, 36
1, 388113, Control_c, 0, 64, 17
1, 388118, Note_on_c, 0, 49, 42
1, 388121, Note_on_c, 0, 53, 34
1, 388131, Control_c, 0, 64, 51
1, 388138, Note_on_c, 0, 65, 0
1, 388147, Note_on_c, 0, 56, 0
1, 388148, Control_c, 0, 64, 73
1, 388156, Note_on_c, 0, 49, 0
1, 388158, Note_on_c, 0, 53, 0
1, 388166, Control_c, 0, 64, 85
1, 388186, Control_c, 0, 64, 95
1, 388206, Control_c, 0, 64, 100
1, 388241, Control_c, 0, 64, 105
1, 388279, Control_c, 0, 64, 111
1, 388335, Control_c, 0, 64, 115
1, 388439, Note_on_c, 0, 49, 57
1, 388440, Note_on_c, 0, 53, 57
1, 388447, Note_on_c, 0, 44, 54
1, 388448, Note_on_c, 0, 37, 58
1, 388481, Control_c, 0, 64, 108
1, 388487, Note_on_c, 0, 44, 0
1, 388489, Note_on_c, 0, 53, 0
1, 388493, Note_on_c, 0, 49, 0
1, 388495, Note_on_c, 0, 37, 0
1, 388500, Control_c, 0, 64, 83
1, 388518, Control_c, 0, 64, 38
1, 388536, Control_c, 0, 64, 0
1, 388619, Note_on_c, 0, 49, 51
1, 388620, Note_on_c, 0, 53, 52
1, 388640, Note_on_c, 0, 37, 44
1, 388665, Note_on_c, 0, 49, 0
1, 388681, Note_on_c, 0, 53, 0
1, 388691, Note_on_c, 0, 37, 0
1, 388753, Poly_aftertouch_c, 0, 44, 0
1, 388802, Note_on_c, 0, 49, 51
1, 388804, Note_on_c, 0, 53, 47
1, 388808, Note_on_c, 0, 37, 54
1, 388848, Note_on_c, 0, 37, 0
1, 388854, Note_on_c, 0, 49, 0
1, 388854, Note_on_c, 0, 53, 0
1, 388940, Poly_aftertouch_c, 0, 44, 0
1, 388969, Note_on_c, 0, 37, 54
1, 388977, Note_on_c, 0, 53, 52
1, 388983, Note_on_c, 0, 49, 51
1, 389012, Note_on_c, 0, 37, 0
1, 389029, Note_on_c, 0, 49, 0
1, 389030, Note_on_c, 0, 53, 0
1, 389070, Poly_aftertouch_c, 0, 44, 0
1, 389143, Note_on_c, 0, 37, 44
1, 389148, Note_on_c, 0, 49, 44
1, 389149, Note_on_c, 0, 53, 46
1, 389159, Note_on_c, 0, 44, 32
1, 389182, Note_on_c, 0, 37, 0
1, 389189, Note_on_c, 0, 49, 0
1, 389191, Note_on_c, 0, 53, 0
1, 389204, Note_on_c, 0, 44, 0
1, 389302, Note_on_c, 0, 37, 49
1, 389306, Note_on_c, 0, 44, 54
1, 389308, Note_on_c, 0, 49, 45
1, 389309, Note_on_c, 0, 53, 48
1, 389347, Note_on_c, 0, 37, 0
1, 389349, Note_on_c, 0, 44, 0
1, 389356, Note_on_c, 0, 49, 0
1, 389356, Note_on_c, 0, 53, 0
1, 389467, Note_on_c, 0, 44, 53
1, 389476, Note_on_c, 0, 49, 48
1, 389478, Note_on_c, 0, 53, 49
1, 389480, Note_on_c, 0, 37, 49
1, 389515, Note_on_c, 0, 44, 0
1, 389524, Note_on_c, 0, 37, 0
1, 389524, Note_on_c, 0, 49, 0
1, 389525, Note_on_c, 0, 53, 0
1, 389657, Note_on_c, 0, 53, 53
1, 389659, Note_on_c, 0, 49, 48
1, 389662, Note_on_c, 0, 44, 47
1, 389664, Note_on_c, 0, 37, 52
1, 389705, Note_on_c, 0, 53, 0
1, 389705, Note_on_c, 0, 44, 0
1, 389707, Note_on_c, 0, 37, 0
1, 389708, Note_on_c, 0, 49, 0
1, 389824, Note_on_c, 0, 49, 52
1, 389829, Note_on_c, 0, 44, 52
1, 389830, Note_on_c, 0, 53, 47
1, 389833, Note_on_c, 0, 37, 51
1, 389872, Note_on_c, 0, 49, 0
1, 389872, Note_on_c, 0, 44, 0
1, 389874, Note_on_c, 0, 37, 0
1, 389875, Note_on_c, 0, 53, 0
1, 389993, Note_on_c, 0, 53, 54
1, 389995, Note_on_c, 0, 49, 49
1, 389996, Note_on_c, 0, 44, 50
1, 389998, Note_on_c, 0, 37, 52
1, 390033, Note_on_c, 0, 44, 0
1, 390037, Note_on_c, 0, 49, 0
1, 390037, Note_on_c, 0, 53, 0
1, 390041, Note_on_c, 0, 37, 0
1, 390150, Note_on_c, 0, 44, 53
1, 390154, Note_on_c, 0, 53, 53
1, 390154, Note_on_c, 0, 49, 50
1, 390157, Note_on_c, 0, 37, 53
1, 390195, Note_on_c, 0, 44, 0
1, 390198, Note_on_c, 0, 37, 0
1, 390200, Note_on_c, 0, 49, 0
1, 390203, Note_on_c, 0, 53, 0
1, 390315, Note_on_c, 0, 44, 56
1, 390326, Note_on_c, 0, 37, 51
1, 390328, Note_on_c, 0, 53, 51
1, 390328, Note_on_c, 0, 49, 51
1, 390359, Note_on_c, 0, 44, 0
1, 390365, Note_on_c, 0, 37, 0
1, 390372, Note_on_c, 0, 49, 0
1, 390374, Note_on_c, 0, 53, 0
1, 390485, Note_on_c, 0, 44, 51
1, 390489, Note_on_c, 0, 37, 51
1, 390492, Note_on_c, 0, 49, 51
1, 390497, Note_on_c, 0, 53, 46
1, 390520, Note_on_c, 0, 44, 0
1, 390526, Note_on_c, 0, 37, 0
1, 390537, Note_on_c, 0, 49, 0
1, 390557, Note_on_c, 0, 53, 0
1, 390666, Note_on_c, 0, 37, 55
1, 390676, Note_on_c, 0, 51, 55
1, 390676, Note_on_c, 0, 46, 52
1, 390679, Note_on_c, 0, 55, 54
1, 390706, Note_on_c, 0, 37, 0
1, 390710, Note_on_c, 0, 46, 0
1, 390723, Note_on_c, 0, 51, 0
1, 390724, Note_on_c, 0, 55, 0
1, 390821, Note_on_c, 0, 55, 64
1, 390832, Note_on_c, 0, 46, 52
1, 390832, Note_on_c, 0, 51, 57
1, 390836, Note_on_c, 0, 37, 51
1, 390867, Note_on_c, 0, 46, 0
1, 390870, Note_on_c, 0, 55, 0
1, 390872, Note_on_c, 0, 51, 0
1, 390873, Note_on_c, 0, 37, 0
1, 391017, Note_on_c, 0, 51, 51
1, 391018, Note_on_c, 0, 56, 67
1, 391022, Note_on_c, 0, 44, 49
1, 391023, Note_on_c, 0, 36, 53
1, 391023, Note_on_c, 0, 39, 50
1, 391060, Note_on_c, 0, 44, 0
1, 391062, Note_on_c, 0, 36, 0
1, 391064, Note_on_c, 0, 39, 0
1, 391193, Note_on_c, 0, 39, 51
1, 391202, Note_on_c, 0, 36, 42
1, 391206, Note_on_c, 0, 44, 36
1, 391239, Note_on_c, 0, 39, 0
1, 391241, Note_on_c, 0, 36, 0
1, 391244, Note_on_c, 0, 44, 0
1, 391370, Note_on_c, 0, 44, 52
1, 391373, Note_on_c, 0, 36, 48
1, 391384, Note_on_c, 0, 39, 43
1, 391408, Note_on_c, 0, 44, 0
1, 391412, Note_on_c, 0, 36, 0
1, 391419, Note_on_c, 0, 39, 0
1, 391556, Note_on_c, 0, 56, 0
1, 391577, Note_on_c, 0, 36, 41
1, 391582, Note_on_c, 0, 60, 64
1, 391583, Note_on_c, 0, 39, 37
1, 391584, Note_on_c, 0, 44, 42
1, 391620, Note_on_c, 0, 36, 0
1, 391623, Note_on_c, 0, 39, 0
1, 391628, Note_on_c, 0, 44, 0
1, 391654, Note_on_c, 0, 58, 67
1, 391681, Note_on_c, 0, 60, 0
1, 391733, Note_on_c, 0, 56, 59
1, 391739, Note_on_c, 0, 44, 54
1, 391740, Note_on_c, 0, 39, 52
1, 391744, Note_on_c, 0, 36, 45
1, 391752, Note_on_c, 0, 58, 0
1, 391781, Note_on_c, 0, 39, 0
1, 391782, Note_on_c, 0, 44, 0
1, 391786, Note_on_c, 0, 36, 0
1, 391873, Note_on_c, 0, 51, 0
1, 391892, Control_c, 0, 67, 111
1, 391902, Note_on_c, 0, 44, 60
1, 391909, Note_on_c, 0, 39, 50
1, 391910, Control_c, 0, 67, 93
1, 391912, Note_on_c, 0, 36, 39
1, 391927, Note_on_c, 0, 56, 0
1, 391927, Control_c, 0, 67, 70
1, 391940, Note_on_c, 0, 44, 0
1, 391947, Note_on_c, 0, 39, 0
1, 391947, Control_c, 0, 67, 43
1, 391953, Note_on_c, 0, 36, 0
1, 391965, Control_c, 0, 67, 15
1, 391983, Control_c, 0, 67, 0
1, 392083, Note_on_c, 0, 44, 58
1, 392087, Note_on_c, 0, 36, 46
1, 392088, Note_on_c, 0, 39, 47
1, 392119, Note_on_c, 0, 44, 0
1, 392126, Note_on_c, 0, 39, 0
1, 392126, Note_on_c, 0, 36, 0
1, 392231, Note_on_c, 0, 44, 66
1, 392245, Note_on_c, 0, 36, 41
1, 392252, Note_on_c, 0, 39, 37
1, 392280, Note_on_c, 0, 44, 0
1, 392292, Note_on_c, 0, 36, 0
1, 392312, Note_on_c, 0, 39, 0
1, 392350, Note_on_c, 0, 86, 85
1, 392394, Note_on_c, 0, 41, 90
1, 392394, Note_on_c, 0, 45, 98
1, 392394, Note_on_c, 0, 36, 86
1, 392399, Note_on_c, 0, 87, 102
1, 392416, Note_on_c, 0, 39, 88
1, 392441, Note_on_c, 0, 86, 0
1, 392459, Control_c, 0, 64, 24
1, 392467, Note_on_c, 0, 45, 0
1, 392479, Control_c, 0, 64, 92
1, 392496, Control_c, 0, 64, 127
1, 392507, Note_on_c, 0, 36, 0
1, 392542, Note_on_c, 0, 41, 0
1, 392542, Note_on_c, 0, 41, 37
1, 392575, Note_on_c, 0, 45, 71
1, 392603, Note_on_c, 0, 36, 16
1, 392623, Note_on_c, 0, 45, 0
1, 392634, Note_on_c, 0, 36, 0
1, 392634, Note_on_c, 0, 41, 0
1, 392664, Note_on_c, 0, 39, 0
1, 392727, Note_on_c, 0, 45, 80
1, 392733, Note_on_c, 0, 36, 77
1, 392737, Note_on_c, 0, 41, 71
1, 392764, Note_on_c, 0, 45, 0
1, 392780, Note_on_c, 0, 36, 0
1, 392780, Poly_aftertouch_c, 0, 39, 127
1, 392789, Note_on_c, 0, 41, 0
1, 392794, Poly_aftertouch_c, 0, 39, 0
1, 392838, Note_on_c, 0, 85, 92
1, 392856, Note_on_c, 0, 87, 0
1, 392864, Control_c, 0, 64, 117
1, 392885, Control_c, 0, 64, 104
1, 392895, Note_on_c, 0, 41, 71
1, 392897, Note_on_c, 0, 45, 73
1, 392899, Control_c, 0, 64, 90
1, 392907, Note_on_c, 0, 39, 73
1, 392908, Note_on_c, 0, 84, 93
1, 392908, Note_on_c, 0, 36, 64
1, 392922, Control_c, 0, 64, 75
1, 392923, Note_on_c, 0, 85, 0
1, 392935, Note_on_c, 0, 45, 0
1, 392937, Control_c, 0, 64, 63
1, 392941, Note_on_c, 0, 36, 0
1, 392953, Note_on_c, 0, 39, 0
1, 392956, Control_c, 0, 64, 56
1, 392962, Note_on_c, 0, 41, 0
1, 392987, Note_on_c, 0, 84, 0
1, 392991, Note_on_c, 0, 82, 96
1, 393031, Control_c, 0, 67, 8
1, 393048, Control_c, 0, 64, 54
1, 393053, Note_on_c, 0, 36, 53
1, 393054, Note_on_c, 0, 39, 73
1, 393056, Note_on_c, 0, 45, 72
1, 393061, Note_on_c, 0, 41, 72
1, 393077, Note_on_c, 0, 81, 96
1, 393101, Note_on_c, 0, 45, 0
1, 393108, Note_on_c, 0, 36, 0
1, 393115, Note_on_c, 0, 82, 0
1, 393123, Note_on_c, 0, 41, 0
1, 393132, Note_on_c, 0, 39, 0
1, 393158, Control_c, 0, 64, 52
1, 393214, Note_on_c, 0, 36, 68
1, 393217, Note_on_c, 0, 45, 67
1, 393220, Note_on_c, 0, 39, 59
1, 393226, Note_on_c, 0, 41, 60
1, 393262, Note_on_c, 0, 36, 0
1, 393267, Note_on_c, 0, 45, 0
1, 393275, Note_on_c, 0, 41, 0
1, 393279, Note_on_c, 0, 39, 0
1, 393328, Note_on_c, 0, 81, 0
1, 393343, Control_c, 0, 64, 50
1, 393407, Note_on_c, 0, 45, 66
1, 393410, Note_on_c, 0, 39, 64
1, 393413, Note_on_c, 0, 41, 60
1, 393414, Note_on_c, 0, 36, 55
1, 393443, Note_on_c, 0, 45, 0
1, 393450, Control_c, 0, 67, 13
1, 393451, Note_on_c, 0, 36, 0
1, 393452, Note_on_c, 0, 41, 0
1, 393458, Note_on_c, 0, 39, 0
1, 393488, Control_c, 0, 64, 48
1, 393489, Control_c, 0, 67, 17
1, 393524, Control_c, 0, 64, 45
1, 393525, Control_c, 0, 67, 21
1, 393560, Control_c, 0, 64, 41
1, 393561, Note_on_c, 0, 39, 61
1, 393571, Note_on_c, 0, 45, 54
1, 393578, Control_c, 0, 67, 28
1, 393588, Note_on_c, 0, 41, 35
1, 393590, Note_on_c, 0, 36, 20
1, 393595, Control_c, 0, 67, 33
1, 393603, Note_on_c, 0, 45, 0
1, 393614, Note_on_c, 0, 39, 0
1, 393614, Control_c, 0, 67, 39
1, 393628, Note_on_c, 0, 41, 0
1, 393633, Control_c, 0, 64, 37
1, 393635, Control_c, 0, 67, 44
1, 393653, Control_c, 0, 67, 48
1, 393656, Note_on_c, 0, 36, 0
1, 393670, Control_c, 0, 67, 52
1, 393688, Control_c, 0, 64, 32
1, 393689, Control_c, 0, 67, 57
1, 393707, Control_c, 0, 67, 66
1, 393727, Control_c, 0, 67, 78
1, 393744, Control_c, 0, 67, 91
1, 393763, Control_c, 0, 67, 105
1, 393768, Note_on_c, 0, 41, 42
1, 393781, Control_c, 0, 67, 116
1, 393785, Note_on_c, 0, 58, 56
1, 393791, Note_on_c, 0, 46, 45
1, 393794, Note_on_c, 0, 37, 49
1, 393799, Control_c, 0, 67, 123
1, 393819, Control_c, 0, 67, 127
1, 393839, Note_on_c, 0, 37, 0
1, 393846, Note_on_c, 0, 46, 0
1, 393854, Note_on_c, 0, 41, 0
1, 393892, Control_c, 0, 64, 28
1, 393968, Note_on_c, 0, 37, 50
1, 393970, Note_on_c, 0, 46, 50
1, 394012, Note_on_c, 0, 46, 0
1, 394014, Note_on_c, 0, 37, 0
1, 394015, Note_on_c, 0, 41, 16
1, 394069, Note_on_c, 0, 41, 0
1, 394094, Control_c, 0, 64, 24
1, 394123, Note_on_c, 0, 46, 54
1, 394132, Note_on_c, 0, 37, 52
1, 394168, Note_on_c, 0, 46, 0
1, 394175, Note_on_c, 0, 37, 0
1, 394237, Poly_aftertouch_c, 0, 41, 0
1, 394281, Note_on_c, 0, 58, 0
1, 394317, Note_on_c, 0, 61, 61
1, 394318, Note_on_c, 0, 46, 58
1, 394326, Note_on_c, 0, 37, 49
1, 394355, Note_on_c, 0, 46, 0
1, 394356, Note_on_c, 0, 41, 23
1, 394364, Note_on_c, 0, 37, 0
1, 394392, Note_on_c, 0, 60, 69
1, 394399, Note_on_c, 0, 61, 0
1, 394406, Note_on_c, 0, 41, 0
1, 394473, Note_on_c, 0, 58, 59
1, 394484, Note_on_c, 0, 60, 0
1, 394491, Note_on_c, 0, 37, 56
1, 394498, Note_on_c, 0, 46, 50
1, 394512, Note_on_c, 0, 41, 52
1, 394533, Note_on_c, 0, 37, 0
1, 394534, Note_on_c, 0, 46, 0
1, 394544, Note_on_c, 0, 41, 0
1, 394625, Control_c, 0, 67, 123
1, 394643, Control_c, 0, 67, 109
1, 394651, Note_on_c, 0, 41, 59
1, 394652, Note_on_c, 0, 46, 57
1, 394656, Note_on_c, 0, 37, 57
1, 394660, Control_c, 0, 67, 90
1, 394667, Note_on_c, 0, 58, 0
1, 394680, Control_c, 0, 67, 68
1, 394692, Note_on_c, 0, 46, 0
1, 394696, Note_on_c, 0, 41, 0
1, 394698, Control_c, 0, 67, 44
1, 394701, Note_on_c, 0, 37, 0
1, 394717, Control_c, 0, 67, 20
1, 394735, Control_c, 0, 67, 0
1, 394827, Note_on_c, 0, 46, 60
1, 394830, Note_on_c, 0, 41, 58
1, 394831, Note_on_c, 0, 37, 58
1, 394861, Note_on_c, 0, 46, 0
1, 394864, Note_on_c, 0, 41, 0
1, 394866, Note_on_c, 0, 37, 0
1, 394938, Control_c, 0, 64, 19
1, 394957, Control_c, 0, 64, 12
1, 394974, Control_c, 0, 64, 0
1, 394980, Note_on_c, 0, 46, 66
1, 394982, Note_on_c, 0, 37, 65
1, 394982, Note_on_c, 0, 41, 62
1, 395016, Note_on_c, 0, 41, 0
1, 395020, Note_on_c, 0, 46, 0
1, 395027, Note_on_c, 0, 37, 0
1, 395127, Note_on_c, 0, 88, 89
1, 395158, Note_on_c, 0, 38, 91
1, 395159, Note_on_c, 0, 47, 92
1, 395161, Note_on_c, 0, 41, 81
1, 395163, Note_on_c, 0, 89, 106
1, 395188, Note_on_c, 0, 47, 0
1, 395197, Note_on_c, 0, 88, 0
1, 395200, Note_on_c, 0, 41, 0
1, 395200, Note_on_c, 0, 38, 0
1, 395215, Control_c, 0, 64, 59
1, 395248, Control_c, 0, 64, 94
1, 395266, Control_c, 0, 64, 109
1, 395338, Note_on_c, 0, 47, 74
1, 395341, Note_on_c, 0, 41, 70
1, 395342, Note_on_c, 0, 38, 74
1, 395370, Note_on_c, 0, 38, 0
1, 395371, Note_on_c, 0, 41, 0
1, 395373, Note_on_c, 0, 47, 0
1, 395468, Control_c, 0, 64, 104
1, 395494, Note_on_c, 0, 47, 70
1, 395495, Note_on_c, 0, 38, 67
1, 395498, Note_on_c, 0, 41, 68
1, 395505, Control_c, 0, 64, 97
1, 395532, Note_on_c, 0, 47, 0
1, 395534, Note_on_c, 0, 38, 0
1, 395536, Note_on_c, 0, 41, 0
1, 395542, Control_c, 0, 64, 89
1, 395562, Control_c, 0, 64, 83
1, 395582, Control_c, 0, 64, 78
1, 395597, Note_on_c, 0, 87, 84
1, 395599, Control_c, 0, 64, 72
1, 395618, Control_c, 0, 64, 68
1, 395635, Control_c, 0, 64, 66
1, 395636, Note_on_c, 0, 89, 0
1, 395653, Control_c, 0, 64, 63
1, 395671, Note_on_c, 0, 41, 76
1, 395672, Control_c, 0, 64, 61
1, 395673, Note_on_c, 0, 38, 70
1, 395674, Note_on_c, 0, 47, 78
1, 395677, Note_on_c, 0, 86, 92
1, 395691, Control_c, 0, 64, 59
1, 395704, Note_on_c, 0, 47, 0
1, 395708, Control_c, 0, 64, 57
1, 395709, Note_on_c, 0, 41, 0
1, 395715, Note_on_c, 0, 38, 0
1, 395754, Note_on_c, 0, 84, 93
1, 395765, Note_on_c, 0, 87, 0
1, 395765, Control_c, 0, 64, 55
1, 395780, Note_on_c, 0, 86, 0
1, 395784, Control_c, 0, 67, 8
1, 395833, Note_on_c, 0, 47, 81
1, 395835, Note_on_c, 0, 38, 80
1, 395836, Note_on_c, 0, 41, 86
1, 395839, Note_on_c, 0, 83, 95
1, 395856, Control_c, 0, 64, 53
1, 395865, Note_on_c, 0, 47, 0
1, 395873, Note_on_c, 0, 41, 0
1, 395874, Note_on_c, 0, 84, 0
1, 395875, Note_on_c, 0, 38, 0
1, 395895, Control_c, 0, 64, 51
1, 395929, Control_c, 0, 64, 48
1, 395999, Note_on_c, 0, 38, 72
1, 396001, Note_on_c, 0, 47, 79
1, 396004, Note_on_c, 0, 41, 76
1, 396036, Note_on_c, 0, 47, 0
1, 396038, Note_on_c, 0, 38, 0
1, 396039, Note_on_c, 0, 41, 0
1, 396077, Note_on_c, 0, 83, 0
1, 396184, Note_on_c, 0, 47, 69
1, 396186, Note_on_c, 0, 38, 73
1, 396191, Note_on_c, 0, 41, 73
1, 396226, Note_on_c, 0, 38, 0
1, 396227, Note_on_c, 0, 41, 0
1, 396227, Note_on_c, 0, 47, 0
1, 396239, Control_c, 0, 64, 46
1, 396277, Control_c, 0, 64, 43
1, 396314, Control_c, 0, 64, 40
1, 396350, Note_on_c, 0, 41, 63
1, 396352, Note_on_c, 0, 47, 62
1, 396353, Note_on_c, 0, 38, 61
1, 396384, Note_on_c, 0, 41, 0
1, 396388, Note_on_c, 0, 47, 0
1, 396390, Note_on_c, 0, 38, 0
1, 396520, Note_on_c, 0, 60, 66
1, 396530, Note_on_c, 0, 47, 65
1, 396540, Note_on_c, 0, 39, 64
1, 396551, Note_on_c, 0, 43, 53
1, 396567, Note_on_c, 0, 47, 0
1, 396575, Note_on_c, 0, 39, 0
1, 396590, Note_on_c, 0, 43, 0
1, 396676, Note_on_c, 0, 60, 0
1, 396700, Control_c, 0, 64, 36
1, 396700, Note_on_c, 0, 47, 69
1, 396703, Note_on_c, 0, 43, 71
1, 396706, Note_on_c, 0, 63, 80
1, 396707, Note_on_c, 0, 39, 67
1, 396735, Control_c, 0, 64, 23
1, 396737, Note_on_c, 0, 47, 0
1, 396737, Note_on_c, 0, 43, 0
1, 396743, Note_on_c, 0, 39, 0
1, 396754, Control_c, 0, 64, 0
1, 396779, Note_on_c, 0, 62, 86
1, 396798, Note_on_c, 0, 63, 0
1, 396853, Note_on_c, 0, 48, 99
1, 396854, Note_on_c, 0, 43, 86
1, 396855, Note_on_c, 0, 39, 89
1, 396855, Note_on_c, 0, 60, 97
1, 396881, Note_on_c, 0, 62, 0
1, 396896, Note_on_c, 0, 48, 0
1, 396896, Note_on_c, 0, 43, 0
1, 396901, Note_on_c, 0, 39, 0
1, 396918, Note_on_c, 0, 60, 0
1, 396998, Control_c, 0, 64, 8
1, 397012, Note_on_c, 0, 43, 79
1, 397017, Note_on_c, 0, 48, 70
1, 397018, Note_on_c, 0, 39, 71
1, 397046, Note_on_c, 0, 43, 0
1, 397046, Note_on_c, 0, 48, 0
1, 397051, Note_on_c, 0, 39, 0
1, 397176, Control_c, 0, 67, 0
1, 397218, Note_on_c, 0, 48, 57
1, 397222, Note_on_c, 0, 44, 62
1, 397230, Note_on_c, 0, 41, 54
1, 397232, Note_on_c, 0, 80, 81
1, 397253, Note_on_c, 0, 48, 0
1, 397256, Note_on_c, 0, 44, 0
1, 397264, Note_on_c, 0, 41, 0
1, 397306, Note_on_c, 0, 79, 82
1, 397351, Note_on_c, 0, 80, 0
1, 397374, Note_on_c, 0, 79, 0
1, 397378, Note_on_c, 0, 41, 73
1, 397379, Note_on_c, 0, 77, 83
1, 397381, Note_on_c, 0, 48, 69
1, 397382, Note_on_c, 0, 44, 68
1, 397413, Note_on_c, 0, 41, 0
1, 397413, Note_on_c, 0, 48, 0
1, 397420, Note_on_c, 0, 44, 0
1, 397443, Note_on_c, 0, 77, 0
1, 397457, Note_on_c, 0, 75, 88
1, 397536, Note_on_c, 0, 41, 87
1, 397537, Note_on_c, 0, 44, 85
1, 397538, Note_on_c, 0, 50, 97
1, 397540, Note_on_c, 0, 74, 98
1, 397575, Note_on_c, 0, 50, 0
1, 397578, Note_on_c, 0, 75, 0
1, 397585, Note_on_c, 0, 41, 0
1, 397588, Note_on_c, 0, 44, 0
1, 397595, Note_on_c, 0, 74, 0
1, 397705, Note_on_c, 0, 44, 72
1, 397710, Note_on_c, 0, 50, 64
1, 397724, Note_on_c, 0, 41, 53
1, 397738, Note_on_c, 0, 50, 0
1, 397744, Note_on_c, 0, 44, 0
1, 397753, Note_on_c, 0, 41, 0
1, 397875, Note_on_c, 0, 43, 76
1, 397875, Note_on_c, 0, 50, 62
1, 397881, Note_on_c, 0, 46, 66
1, 397902, Note_on_c, 0, 64, 72
1, 397911, Note_on_c, 0, 50, 0
1, 397918, Note_on_c, 0, 46, 0
1, 397920, Note_on_c, 0, 43, 0
1, 398050, Note_on_c, 0, 64, 0
1, 398057, Note_on_c, 0, 46, 64
1, 398058, Note_on_c, 0, 50, 61
1, 398061, Note_on_c, 0, 43, 62
1, 398093, Note_on_c, 0, 67, 77
1, 398095, Note_on_c, 0, 46, 0
1, 398095, Note_on_c, 0, 50, 0
1, 398100, Note_on_c, 0, 43, 0
1, 398164, Note_on_c, 0, 65, 85
1, 398172, Note_on_c, 0, 67, 0
1, 398233, Note_on_c, 0, 43, 91
1, 398234, Note_on_c, 0, 52, 94
1, 398242, Note_on_c, 0, 46, 76
1, 398244, Note_on_c, 0, 64, 97
1, 398258, Note_on_c, 0, 65, 0
1, 398263, Note_on_c, 0, 52, 0
1, 398267, Note_on_c, 0, 43, 0
1, 398275, Note_on_c, 0, 46, 0
1, 398304, Note_on_c, 0, 64, 0
1, 398405, Note_on_c, 0, 46, 56
1, 398417, Note_on_c, 0, 43, 56
1, 398419, Note_on_c, 0, 52, 56
1, 398440, Note_on_c, 0, 46, 0
1, 398448, Note_on_c, 0, 43, 0
1, 398453, Note_on_c, 0, 52, 0
1, 398584, Note_on_c, 0, 48, 68
1, 398587, Note_on_c, 0, 44, 70
1, 398588, Note_on_c, 0, 52, 59
1, 398591, Note_on_c, 0, 84, 87
1, 398608, Note_on_c, 0, 49, 24
1, 398609, Note_on_c, 0, 49, 0
1, 398627, Note_on_c, 0, 52, 0
1, 398633, Note_on_c, 0, 44, 0
1, 398634, Note_on_c, 0, 48, 0
1, 398675, Note_on_c, 0, 82, 85
1, 398725, Note_on_c, 0, 84, 0
1, 398744, Note_on_c, 0, 52, 66
1, 398746, Note_on_c, 0, 44, 64
1, 398751, Note_on_c, 0, 80, 87
1, 398754, Note_on_c, 0, 48, 70
1, 398787, Note_on_c, 0, 52, 0
1, 398801, Note_on_c, 0, 44, 0
1, 398810, Note_on_c, 0, 48, 0
1, 398832, Note_on_c, 0, 82, 0
1, 398838, Note_on_c, 0, 79, 89
1, 398865, Note_on_c, 0, 80, 0
1, 398901, Note_on_c, 0, 53, 94
1, 398905, Note_on_c, 0, 48, 83
1, 398905, Note_on_c, 0, 44, 87
1, 398914, Note_on_c, 0, 77, 93
1, 398929, Note_on_c, 0, 79, 0
1, 398951, Note_on_c, 0, 53, 0
1, 398982, Note_on_c, 0, 48, 0
1, 398985, Note_on_c, 0, 44, 0
1, 398989, Note_on_c, 0, 77, 0
1, 399078, Note_on_c, 0, 53, 74
1, 399083, Note_on_c, 0, 44, 65
1, 399084, Note_on_c, 0, 48, 62
1, 399112, Note_on_c, 0, 53, 0
1, 399128, Note_on_c, 0, 44, 0
1, 399130, Note_on_c, 0, 48, 0
1, 399257, Note_on_c, 0, 48, 78
1, 399261, Note_on_c, 0, 54, 86
1, 399264, Note_on_c, 0, 87, 101
1, 399264, Note_on_c, 0, 45, 82
1, 399300, Note_on_c, 0, 54, 0
1, 399308, Note_on_c, 0, 45, 0
1, 399322, Note_on_c, 0, 48, 0
1, 399347, Note_on_c, 0, 86, 90
1, 399420, Note_on_c, 0, 54, 80
1, 399429, Note_on_c, 0, 48, 69
1, 399430, Note_on_c, 0, 84, 92
1, 399431, Note_on_c, 0, 45, 70
1, 399441, Note_on_c, 0, 87, 0
1, 399454, Note_on_c, 0, 54, 0
1, 399456, Note_on_c, 0, 86, 0
1, 399469, Note_on_c, 0, 45, 0
1, 399477, Note_on_c, 0, 48, 0
1, 399510, Note_on_c, 0, 83, 92
1, 399516, Note_on_c, 0, 84, 0
1, 399573, Note_on_c, 0, 45, 69
1, 399577, Note_on_c, 0, 54, 75
1, 399587, Note_on_c, 0, 48, 72
1, 399589, Note_on_c, 0, 84, 97
1, 399604, Note_on_c, 0, 83, 0
1, 399621, Note_on_c, 0, 54, 0
1, 399628, Note_on_c, 0, 45, 0
1, 399636, Note_on_c, 0, 48, 0
1, 399645, Note_on_c, 0, 84, 0
1, 399746, Note_on_c, 0, 54, 81
1, 399748, Note_on_c, 0, 45, 74
1, 399752, Note_on_c, 0, 48, 72
1, 399779, Note_on_c, 0, 54, 0
1, 399785, Note_on_c, 0, 45, 0
1, 399793, Note_on_c, 0, 48, 0
1, 399927, Note_on_c, 0, 54, 80
1, 399928, Note_on_c, 0, 45, 69
1, 399931, Note_on_c, 0, 48, 71
1, 399936, Note_on_c, 0, 75, 93
1, 399965, Note_on_c, 0, 54, 0
1, 399975, Note_on_c, 0, 45, 0
1, 399982, Note_on_c, 0, 48, 0
1, 400010, Note_on_c, 0, 74, 91
1, 400092, Note_on_c, 0, 72, 92
1, 400094, Note_on_c, 0, 54, 75
1, 400095, Note_on_c, 0, 45, 70
1, 400102, Note_on_c, 0, 48, 70
1, 400118, Note_on_c, 0, 74, 0
1, 400126, Note_on_c, 0, 75, 0
1, 400131, Note_on_c, 0, 54, 0
1, 400138, Note_on_c, 0, 45, 0
1, 400143, Note_on_c, 0, 48, 0
1, 400163, Note_on_c, 0, 72, 0
1, 400170, Note_on_c, 0, 71, 85
1, 400244, Note_on_c, 0, 54, 66
1, 400248, Note_on_c, 0, 45, 69
1, 400248, Note_on_c, 0, 48, 70
1, 400257, Note_on_c, 0, 72, 89
1, 400262, Note_on_c, 0, 71, 0
1, 400289, Note_on_c, 0, 54, 0
1, 400296, Note_on_c, 0, 45, 0
1, 400303, Note_on_c, 0, 48, 0
1, 400303, Note_on_c, 0, 72, 0
1, 400416, Note_on_c, 0, 45, 64
1, 400419, Note_on_c, 0, 54, 71
1, 400428, Note_on_c, 0, 48, 64
1, 400451, Note_on_c, 0, 54, 0
1, 400459, Note_on_c, 0, 45, 0
1, 400466, Note_on_c, 0, 48, 0
1, 400594, Note_on_c, 0, 63, 93
1, 400595, Note_on_c, 0, 48, 75
1, 400596, Note_on_c, 0, 54, 77
1, 400603, Note_on_c, 0, 44, 80
1, 400632, Note_on_c, 0, 54, 0
1, 400649, Note_on_c, 0, 44, 0
1, 400657, Note_on_c, 0, 48, 0
1, 400674, Note_on_c, 0, 62, 85
1, 400755, Note_on_c, 0, 60, 88
1, 400760, Note_on_c, 0, 54, 75
1, 400763, Note_on_c, 0, 48, 69
1, 400770, Note_on_c, 0, 44, 71
1, 400778, Note_on_c, 0, 62, 0
1, 400783, Note_on_c, 0, 63, 0
1, 400795, Note_on_c, 0, 54, 0
1, 400813, Note_on_c, 0, 48, 0
1, 400816, Note_on_c, 0, 44, 0
1, 400832, Note_on_c, 0, 60, 0
1, 400857, Note_on_c, 0, 59, 84
1, 400932, Note_on_c, 0, 54, 69
1, 400933, Note_on_c, 0, 44, 70
1, 400939, Note_on_c, 0, 60, 88
1, 400943, Note_on_c, 0, 48, 74
1, 400954, Note_on_c, 0, 59, 0
1, 400976, Note_on_c, 0, 54, 0
1, 400984, Note_on_c, 0, 60, 0
1, 400995, Note_on_c, 0, 48, 0
1, 400997, Note_on_c, 0, 44, 0
1, 401100, Note_on_c, 0, 54, 79
1, 401114, Note_on_c, 0, 44, 67
1, 401123, Note_on_c, 0, 48, 59
1, 401137, Note_on_c, 0, 54, 0
1, 401165, Note_on_c, 0, 48, 0
1, 401165, Note_on_c, 0, 44, 0
1, 401275, Note_on_c, 0, 48, 69
1, 401276, Note_on_c, 0, 44, 71
1, 401277, Note_on_c, 0, 51, 78
1, 401286, Note_on_c, 0, 75, 90
1, 401313, Note_on_c, 0, 51, 0
1, 401327, Note_on_c, 0, 44, 0
1, 401329, Note_on_c, 0, 48, 0
1, 401368, Note_on_c, 0, 74, 83
1, 401388, Note_on_c, 0, 75, 0
1, 401431, Note_on_c, 0, 74, 0
1, 401432, Note_on_c, 0, 72, 85
1, 401443, Note_on_c, 0, 51, 71
1, 401455, Note_on_c, 0, 44, 62
1, 401457, Note_on_c, 0, 48, 62
1, 401485, Note_on_c, 0, 51, 0
1, 401497, Note_on_c, 0, 48, 0
1, 401499, Note_on_c, 0, 44, 0
1, 401523, Note_on_c, 0, 71, 86
1, 401526, Note_on_c, 0, 72, 0
1, 401589, Note_on_c, 0, 71, 0
1, 401595, Note_on_c, 0, 48, 72
1, 401598, Note_on_c, 0, 44, 67
1, 401607, Note_on_c, 0, 72, 84
1, 401646, Note_on_c, 0, 48, 0
1, 401649, Note_on_c, 0, 44, 0
1, 401692, Note_on_c, 0, 74, 87
1, 401695, Note_on_c, 0, 72, 0
1, 401769, Note_on_c, 0, 75, 87
1, 401784, Note_on_c, 0, 44, 61
1, 401788, Note_on_c, 0, 74, 0
1, 401790, Note_on_c, 0, 48, 53
1, 401797, Control_c, 0, 67, 8
1, 401817, Control_c, 0, 64, 0
1, 401825, Note_on_c, 0, 48, 0
1, 401827, Note_on_c, 0, 44, 0
1, 401860, Note_on_c, 0, 75, 0
1, 401870, Note_on_c, 0, 78, 84
1, 401944, Note_on_c, 0, 79, 92
1, 401949, Note_on_c, 0, 43, 79
1, 401956, Note_on_c, 0, 47, 77
1, 401979, Note_on_c, 0, 78, 0
1, 401984, Control_c, 0, 64, 43
1, 402002, Control_c, 0, 64, 79
1, 402004, Note_on_c, 0, 79, 0
1, 402020, Control_c, 0, 64, 86
1, 402075, Control_c, 0, 67, 13
1, 402111, Control_c, 0, 67, 22
1, 402123, Note_on_c, 0, 79, 78
1, 402128, Note_on_c, 0, 67, 69
1, 402130, Control_c, 0, 67, 28
1, 402149, Control_c, 0, 67, 34
1, 402151, Note_on_c, 0, 43, 0
1, 402152, Note_on_c, 0, 67, 0
1, 402152, Note_on_c, 0, 79, 0
1, 402168, Control_c, 0, 64, 80
1, 402169, Control_c, 0, 67, 39
1, 402180, Note_on_c, 0, 47, 0
1, 402186, Control_c, 0, 64, 72
1, 402188, Control_c, 0, 67, 44
1, 402204, Control_c, 0, 64, 63
1, 402207, Control_c, 0, 67, 50
1, 402224, Control_c, 0, 64, 57
1, 402225, Control_c, 0, 67, 55
1, 402242, Control_c, 0, 67, 60
1, 402259, Control_c, 0, 67, 65
1, 402277, Control_c, 0, 67, 70
1, 402287, Note_on_c, 0, 79, 68
1, 402293, Note_on_c, 0, 67, 41
1, 402296, Control_c, 0, 67, 75
1, 402315, Control_c, 0, 67, 83
1, 402322, Note_on_c, 0, 79, 0
1, 402329, Note_on_c, 0, 67, 0
1, 402332, Control_c, 0, 64, 55
1, 402335, Control_c, 0, 67, 94
1, 402350, Control_c, 0, 67, 105
1, 402369, Control_c, 0, 67, 115
1, 402370, Poly_aftertouch_c, 0, 69, 0
1, 402388, Control_c, 0, 67, 123
1, 402408, Control_c, 0, 64, 52
1, 402425, Control_c, 0, 67, 127
1, 402445, Control_c, 0, 64, 50
1, 402463, Note_on_c, 0, 67, 56
1, 402466, Note_on_c, 0, 79, 59
1, 402480, Control_c, 0, 64, 47
1, 402496, Note_on_c, 0, 67, 0
1, 402503, Note_on_c, 0, 79, 0
1, 402517, Control_c, 0, 64, 44
1, 402571, Control_c, 0, 64, 42
1, 402627, Note_on_c, 0, 79, 59
1, 402629, Note_on_c, 0, 67, 57
1, 402667, Note_on_c, 0, 79, 0
1, 402674, Note_on_c, 0, 67, 0
1, 402702, Control_c, 0, 64, 38
1, 402825, Note_on_c, 0, 79, 56
1, 402832, Note_on_c, 0, 67, 42
1, 402853, Note_on_c, 0, 79, 0
1, 402865, Note_on_c, 0, 67, 0
1, 402955, Control_c, 0, 64, 34
1, 402988, Note_on_c, 0, 79, 53
1, 402994, Note_on_c, 0, 67, 45
1, 403031, Note_on_c, 0, 79, 0
1, 403031, Note_on_c, 0, 67, 0
1, 403168, Note_on_c, 0, 79, 62
1, 403179, Note_on_c, 0, 67, 46
1, 403205, Note_on_c, 0, 79, 0
1, 403210, Note_on_c, 0, 67, 0
1, 403328, Note_on_c, 0, 67, 53
1, 403332, Note_on_c, 0, 79, 58
1, 403344, Note_on_c, 0, 73, 54
1, 403347, Note_on_c, 0, 70, 54
1, 403367, Note_on_c, 0, 67, 0
1, 403376, Note_on_c, 0, 79, 0
1, 403388, Note_on_c, 0, 73, 0
1, 403388, Note_on_c, 0, 70, 0
1, 403434, Control_c, 0, 64, 30
1, 403500, Note_on_c, 0, 79, 62
1, 403506, Note_on_c, 0, 70, 54
1, 403509, Note_on_c, 0, 73, 50
1, 403519, Note_on_c, 0, 67, 39
1, 403541, Note_on_c, 0, 79, 0
1, 403557, Note_on_c, 0, 67, 0
1, 403557, Note_on_c, 0, 73, 0
1, 403557, Note_on_c, 0, 70, 0
1, 403688, Note_on_c, 0, 79, 70
1, 403691, Note_on_c, 0, 67, 58
1, 403695, Note_on_c, 0, 70, 63
1, 403695, Note_on_c, 0, 73, 59
1, 403729, Note_on_c, 0, 79, 0
1, 403731, Note_on_c, 0, 67, 0
1, 403736, Note_on_c, 0, 70, 0
1, 403738, Note_on_c, 0, 73, 0
1, 403859, Note_on_c, 0, 79, 81
1, 403869, Note_on_c, 0, 70, 76
1, 403870, Note_on_c, 0, 73, 71
1, 403874, Note_on_c, 0, 67, 65
1, 403895, Note_on_c, 0, 67, 0
1, 403901, Note_on_c, 0, 70, 0
1, 403903, Note_on_c, 0, 73, 0
1, 403908, Note_on_c, 0, 79, 0
1, 404030, Note_on_c, 0, 79, 87
1, 404032, Note_on_c, 0, 70, 84
1, 404032, Note_on_c, 0, 73, 81
1, 404034, Note_on_c, 0, 67, 73
1, 404063, Note_on_c, 0, 67, 0
1, 404072, Note_on_c, 0, 79, 0
1, 404078, Note_on_c, 0, 70, 0
1, 404080, Note_on_c, 0, 73, 0
1, 404192, Note_on_c, 0, 79, 89
1, 404198, Note_on_c, 0, 70, 82
1, 404199, Note_on_c, 0, 73, 81
1, 404200, Note_on_c, 0, 67, 72
1, 404226, Note_on_c, 0, 67, 0
1, 404232, Note_on_c, 0, 73, 0
1, 404233, Note_on_c, 0, 79, 0
1, 404235, Note_on_c, 0, 70, 0
1, 404362, Note_on_c, 0, 79, 81
1, 404368, Note_on_c, 0, 67, 62
1, 404369, Note_on_c, 0, 70, 72
1, 404374, Note_on_c, 0, 73, 65
1, 404393, Note_on_c, 0, 79, 0
1, 404395, Note_on_c, 0, 67, 0
1, 404401, Note_on_c, 0, 70, 0
1, 404407, Note_on_c, 0, 73, 0
1, 404529, Note_on_c, 0, 79, 64
1, 404533, Note_on_c, 0, 73, 47
1, 404537, Note_on_c, 0, 70, 55
1, 404538, Note_on_c, 0, 67, 42
1, 404562, Note_on_c, 0, 79, 0
1, 404572, Note_on_c, 0, 70, 0
1, 404573, Note_on_c, 0, 73, 0
1, 404575, Note_on_c, 0, 67, 0
1, 404727, Note_on_c, 0, 79, 55
1, 404737, Note_on_c, 0, 74, 53
1, 404744, Note_on_c, 0, 47, 56
1, 404745, Note_on_c, 0, 67, 23
1, 404749, Note_on_c, 0, 50, 49
1, 404759, Note_on_c, 0, 67, 0
1, 404762, Note_on_c, 0, 74, 0
1, 404784, Poly_aftertouch_c, 0, 71, 0
1, 404785, Note_on_c, 0, 50, 0
1, 404786, Note_on_c, 0, 79, 0
1, 404790, Note_on_c, 0, 47, 0
1, 404907, Note_on_c, 0, 91, 87
1, 404910, Note_on_c, 0, 79, 80
1, 404916, Note_on_c, 0, 47, 57
1, 404917, Note_on_c, 0, 50, 51
1, 404951, Note_on_c, 0, 50, 0
1, 404955, Note_on_c, 0, 47, 0
1, 405058, Note_on_c, 0, 79, 0
1, 405061, Note_on_c, 0, 91, 0
1, 405079, Note_on_c, 0, 47, 53
1, 405083, Note_on_c, 0, 50, 49
1, 405117, Note_on_c, 0, 50, 0
1, 405119, Note_on_c, 0, 47, 0
1, 405261, Note_on_c, 0, 89, 61
1, 405264, Note_on_c, 0, 50, 41
1, 405265, Note_on_c, 0, 47, 46
1, 405278, Note_on_c, 0, 77, 43
1, 405303, Note_on_c, 0, 47, 0
1, 405304, Note_on_c, 0, 50, 0
1, 405413, Note_on_c, 0, 89, 0
1, 405425, Note_on_c, 0, 77, 0
1, 405429, Note_on_c, 0, 47, 49
1, 405429, Note_on_c, 0, 50, 49
1, 405466, Note_on_c, 0, 50, 0
1, 405468, Note_on_c, 0, 47, 0
1, 405616, Note_on_c, 0, 47, 52
1, 405617, Note_on_c, 0, 50, 48
1, 405625, Note_on_c, 0, 88, 64
1, 405637, Note_on_c, 0, 76, 49
1, 405652, Note_on_c, 0, 50, 0
1, 405655, Note_on_c, 0, 47, 0
1, 405756, Note_on_c, 0, 88, 0
1, 405781, Note_on_c, 0, 76, 0
1, 405790, Note_on_c, 0, 50, 48
1, 405791, Note_on_c, 0, 47, 51
1, 405826, Note_on_c, 0, 50, 0
1, 405828, Note_on_c, 0, 47, 0
1, 405956, Note_on_c, 0, 50, 53
1, 405958, Note_on_c, 0, 47, 54
1, 405964, Note_on_c, 0, 86, 63
1, 405982, Note_on_c, 0, 74, 41
1, 405991, Note_on_c, 0, 50, 0
1, 405998, Note_on_c, 0, 47, 0
1, 406099, Note_on_c, 0, 86, 0
1, 406124, Note_on_c, 0, 74, 0
1, 406129, Note_on_c, 0, 50, 56
1, 406129, Note_on_c, 0, 47, 56
1, 406162, Note_on_c, 0, 50, 0
1, 406167, Note_on_c, 0, 47, 0
1, 406297, Note_on_c, 0, 84, 72
1, 406298, Note_on_c, 0, 47, 61
1, 406299, Note_on_c, 0, 50, 59
1, 406314, Note_on_c, 0, 72, 46
1, 406333, Note_on_c, 0, 47, 0
1, 406335, Note_on_c, 0, 50, 0
1, 406419, Note_on_c, 0, 84, 0
1, 406470, Note_on_c, 0, 72, 0
1, 406480, Note_on_c, 0, 50, 70
1, 406482, Note_on_c, 0, 47, 61
1, 406515, Note_on_c, 0, 50, 0
1, 406522, Note_on_c, 0, 47, 0
1, 406652, Note_on_c, 0, 50, 65
1, 406655, Note_on_c, 0, 47, 64
1, 406668, Note_on_c, 0, 83, 77
1, 406682, Note_on_c, 0, 71, 57
1, 406688, Note_on_c, 0, 50, 0
1, 406694, Note_on_c, 0, 47, 0
1, 406808, Note_on_c, 0, 83, 0
1, 406827, Note_on_c, 0, 47, 63
1, 406829, Note_on_c, 0, 50, 62
1, 406853, Note_on_c, 0, 71, 0
1, 406861, Note_on_c, 0, 47, 0
1, 406863, Note_on_c, 0, 50, 0
1, 406986, Note_on_c, 0, 47, 66
1, 406991, Note_on_c, 0, 50, 65
1, 407004, Note_on_c, 0, 81, 74
1, 407010, Note_on_c, 0, 69, 67
1, 407025, Note_on_c, 0, 50, 0
1, 407029, Note_on_c, 0, 47, 0
1, 407105, Note_on_c, 0, 81, 0
1, 407125, Note_on_c, 0, 69, 0
1, 407164, Note_on_c, 0, 52, 73
1, 407172, Note_on_c, 0, 49, 70
1, 407200, Note_on_c, 0, 52, 0
1, 407205, Note_on_c, 0, 49, 0
1, 407312, Note_on_c, 0, 49, 60
1, 407314, Note_on_c, 0, 52, 62
1, 407319, Note_on_c, 0, 79, 66
1, 407327, Note_on_c, 0, 67, 59
1, 407351, Note_on_c, 0, 49, 0
1, 407354, Note_on_c, 0, 67, 0
1, 407358, Note_on_c, 0, 52, 0
1, 407362, Note_on_c, 0, 79, 0
1, 407415, Control_c, 0, 64, 25
1, 407432, Control_c, 0, 64, 0
1, 407526, Note_on_c, 0, 53, 84
1, 407533, Note_on_c, 0, 50, 67
1, 407537, Note_on_c, 0, 77, 63
1, 407559, Note_on_c, 0, 77, 0
1, 407580, Control_c, 0, 64, 21
1, 407638, Note_on_c, 0, 62, 72
1, 407701, Note_on_c, 0, 62, 0
1, 407723, Note_on_c, 0, 64, 71
1, 407787, Note_on_c, 0, 65, 77
1, 407795, Note_on_c, 0, 64, 0
1, 407824, Note_on_c, 0, 65, 0
1, 407882, Note_on_c, 0, 67, 70
1, 407935, Note_on_c, 0, 67, 0
1, 407968, Note_on_c, 0, 69, 68
1, 407988, Note_on_c, 0, 53, 0
1, 408028, Note_on_c, 0, 69, 0
1, 408050, Note_on_c, 0, 71, 68
1, 408056, Note_on_c, 0, 57, 56
1, 408120, Note_on_c, 0, 57, 0
1, 408124, Note_on_c, 0, 55, 64
1, 408134, Note_on_c, 0, 71, 0
1, 408145, Note_on_c, 0, 73, 70
1, 408202, Note_on_c, 0, 53, 59
1, 408204, Note_on_c, 0, 55, 0
1, 408215, Note_on_c, 0, 74, 63
1, 408234, Note_on_c, 0, 73, 0
1, 408258, Note_on_c, 0, 74, 0
1, 408295, Note_on_c, 0, 65, 62
1, 408368, Control_c, 0, 67, 120
1, 408376, Note_on_c, 0, 65, 0
1, 408387, Control_c, 0, 67, 110
1, 408389, Note_on_c, 0, 50, 0
1, 408400, Note_on_c, 0, 67, 58
1, 408405, Control_c, 0, 67, 96
1, 408422, Control_c, 0, 67, 79
1, 408435, Note_on_c, 0, 53, 0
1, 408440, Control_c, 0, 67, 59
1, 408451, Note_on_c, 0, 67, 0
1, 408459, Control_c, 0, 67, 37
1, 408466, Note_on_c, 0, 69, 63
1, 408477, Control_c, 0, 67, 13
1, 408492, Note_on_c, 0, 69, 0
1, 408497, Control_c, 0, 67, 0
1, 408560, Note_on_c, 0, 71, 58
1, 408599, Note_on_c, 0, 71, 0
1, 408638, Note_on_c, 0, 73, 64
1, 408710, Note_on_c, 0, 73, 0
1, 408716, Note_on_c, 0, 74, 60
1, 408789, Note_on_c, 0, 74, 0
1, 408796, Note_on_c, 0, 76, 61
1, 408866, Note_on_c, 0, 77, 68
1, 408881, Note_on_c, 0, 76, 0
1, 408893, Note_on_c, 0, 69, 90
1, 408916, Note_on_c, 0, 77, 0
1, 408968, Note_on_c, 0, 74, 61
1, 409030, Note_on_c, 0, 74, 0
1, 409053, Note_on_c, 0, 76, 66
1, 409135, Note_on_c, 0, 76, 0
1, 409137, Note_on_c, 0, 77, 67
1, 409171, Note_on_c, 0, 77, 0
1, 409226, Note_on_c, 0, 79, 73
1, 409247, Note_on_c, 0, 69, 0
1, 409330, Note_on_c, 0, 81, 78
1, 409334, Note_on_c, 0, 79, 0
1, 409335, Note_on_c, 0, 67, 64
1, 409380, Note_on_c, 0, 67, 0
1, 409403, Note_on_c, 0, 83, 76
1, 409405, Note_on_c, 0, 81, 0
1, 409435, Note_on_c, 0, 65, 69
1, 409497, Note_on_c, 0, 85, 72
1, 409501, Note_on_c, 0, 64, 73
1, 409506, Note_on_c, 0, 65, 0
1, 409518, Note_on_c, 0, 83, 0
1, 409573, Note_on_c, 0, 86, 74
1, 409578, Note_on_c, 0, 62, 63
1, 409580, Note_on_c, 0, 64, 0
1, 409584, Note_on_c, 0, 85, 0
1, 409637, Note_on_c, 0, 86, 0
1, 409677, Note_on_c, 0, 85, 71
1, 409744, Note_on_c, 0, 86, 74
1, 409751, Note_on_c, 0, 85, 0
1, 409783, Note_on_c, 0, 62, 0
1, 409818, Note_on_c, 0, 86, 0
1, 409824, Note_on_c, 0, 88, 74
1, 409895, Note_on_c, 0, 89, 65
1, 409896, Note_on_c, 0, 88, 0
1, 409931, Control_c, 0, 67, 8
1, 409957, Note_on_c, 0, 89, 0
1, 409973, Note_on_c, 0, 85, 69
1, 409984, Control_c, 0, 67, 12
1, 410050, Note_on_c, 0, 85, 0
1, 410057, Note_on_c, 0, 86, 63
1, 410077, Control_c, 0, 67, 16
1, 410113, Control_c, 0, 67, 22
1, 410131, Note_on_c, 0, 86, 0
1, 410137, Note_on_c, 0, 88, 66
1, 410188, Control_c, 0, 67, 26
1, 410219, Control_c, 0, 67, 30
1, 410222, Note_on_c, 0, 89, 72
1, 410225, Note_on_c, 0, 88, 0
1, 410228, Note_on_c, 0, 48, 65
1, 410229, Note_on_c, 0, 45, 62
1, 410240, Control_c, 0, 67, 36
1, 410258, Control_c, 0, 67, 41
1, 410266, Note_on_c, 0, 48, 0
1, 410268, Note_on_c, 0, 45, 0
1, 410272, Note_on_c, 0, 89, 0
1, 410276, Control_c, 0, 67, 46
1, 410293, Control_c, 0, 67, 51
1, 410312, Control_c, 0, 67, 57
1, 410331, Control_c, 0, 67, 68
1, 410349, Control_c, 0, 67, 82
1, 410367, Control_c, 0, 67, 95
1, 410384, Note_on_c, 0, 48, 61
1, 410386, Control_c, 0, 67, 103
1, 410387, Note_on_c, 0, 45, 62
1, 410395, Note_on_c, 0, 89, 71
1, 410405, Control_c, 0, 67, 109
1, 410410, Note_on_c, 0, 77, 53
1, 410422, Note_on_c, 0, 48, 0
1, 410424, Note_on_c, 0, 45, 0
1, 410424, Control_c, 0, 67, 115
1, 410443, Control_c, 0, 67, 122
1, 410459, Control_c, 0, 67, 127
1, 410520, Note_on_c, 0, 89, 0
1, 410550, Note_on_c, 0, 77, 0
1, 410579, Note_on_c, 0, 45, 50
1, 410581, Note_on_c, 0, 48, 41
1, 410615, Note_on_c, 0, 45, 0
1, 410623, Note_on_c, 0, 48, 0
1, 410742, Note_on_c, 0, 48, 57
1, 410742, Note_on_c, 0, 45, 55
1, 410742, Note_on_c, 0, 88, 64
1, 410752, Note_on_c, 0, 76, 49
1, 410776, Note_on_c, 0, 48, 0
1, 410780, Note_on_c, 0, 45, 0
1, 410790, Control_c, 0, 64, 17
1, 410887, Note_on_c, 0, 88, 0
1, 410909, Note_on_c, 0, 76, 0
1, 410922, Note_on_c, 0, 45, 55
1, 410932, Note_on_c, 0, 48, 44
1, 410959, Note_on_c, 0, 45, 0
1, 410971, Note_on_c, 0, 48, 0
1, 411084, Note_on_c, 0, 86, 70
1, 411091, Note_on_c, 0, 48, 56
1, 411096, Note_on_c, 0, 45, 51
1, 411104, Note_on_c, 0, 74, 50
1, 411123, Note_on_c, 0, 48, 0
1, 411131, Note_on_c, 0, 45, 0
1, 411212, Control_c, 0, 64, 13
1, 411258, Note_on_c, 0, 86, 0
1, 411267, Note_on_c, 0, 74, 0
1, 411277, Note_on_c, 0, 45, 51
1, 411279, Note_on_c, 0, 48, 49
1, 411315, Note_on_c, 0, 45, 0
1, 411316, Note_on_c, 0, 48, 0
1, 411440, Note_on_c, 0, 48, 57
1, 411440, Note_on_c, 0, 45, 57
1, 411448, Note_on_c, 0, 84, 72
1, 411469, Note_on_c, 0, 72, 42
1, 411474, Note_on_c, 0, 48, 0
1, 411478, Note_on_c, 0, 45, 0
1, 411612, Note_on_c, 0, 84, 0
1, 411619, Note_on_c, 0, 48, 53
1, 411619, Note_on_c, 0, 45, 53
1, 411632, Note_on_c, 0, 72, 0
1, 411653, Note_on_c, 0, 45, 0
1, 411653, Note_on_c, 0, 48, 0
1, 411782, Note_on_c, 0, 48, 57
1, 411783, Note_on_c, 0, 45, 57
1, 411796, Note_on_c, 0, 83, 78
1, 411814, Note_on_c, 0, 48, 0
1, 411822, Note_on_c, 0, 45, 0
1, 411822, Note_on_c, 0, 71, 51
1, 411856, Control_c, 0, 64, 9
1, 411955, Note_on_c, 0, 45, 59
1, 411958, Note_on_c, 0, 48, 51
1, 411964, Note_on_c, 0, 83, 0
1, 411968, Note_on_c, 0, 71, 0
1, 411994, Note_on_c, 0, 45, 0
1, 411994, Note_on_c, 0, 48, 0
1, 412137, Note_on_c, 0, 48, 60
1, 412142, Note_on_c, 0, 45, 60
1, 412148, Note_on_c, 0, 81, 80
1, 412168, Note_on_c, 0, 69, 57
1, 412176, Note_on_c, 0, 48, 0
1, 412179, Note_on_c, 0, 45, 0
1, 412220, Control_c, 0, 64, 0
1, 412295, Note_on_c, 0, 81, 0
1, 412297, Note_on_c, 0, 69, 0
1, 412310, Note_on_c, 0, 48, 62
1, 412315, Note_on_c, 0, 45, 60
1, 412345, Note_on_c, 0, 48, 0
1, 412349, Note_on_c, 0, 45, 0
1, 412480, Note_on_c, 0, 48, 59
1, 412482, Note_on_c, 0, 45, 59
1, 412486, Note_on_c, 0, 79, 69
1, 412497, Note_on_c, 0, 67, 59
1, 412516, Note_on_c, 0, 48, 0
1, 412523, Note_on_c, 0, 45, 0
1, 412618, Note_on_c, 0, 79, 0
1, 412626, Note_on_c, 0, 67, 0
1, 412650, Note_on_c, 0, 50, 68
1, 412652, Note_on_c, 0, 47, 67
1, 412685, Note_on_c, 0, 50, 0
1, 412689, Note_on_c, 0, 47, 0
1, 412791, Note_on_c, 0, 50, 64
1, 412795, Note_on_c, 0, 47, 64
1, 412819, Note_on_c, 0, 77, 67
1, 412832, Note_on_c, 0, 47, 0
1, 412834, Note_on_c, 0, 65, 49
1, 412836, Note_on_c, 0, 50, 0
1, 412870, Note_on_c, 0, 77, 0
1, 412878, Note_on_c, 0, 65, 0
1, 412995, Note_on_c, 0, 52, 83
1, 412999, Note_on_c, 0, 76, 72
1, 413005, Note_on_c, 0, 48, 67
1, 413043, Note_on_c, 0, 76, 0
1, 413091, Note_on_c, 0, 64, 61
1, 413161, Note_on_c, 0, 64, 0
1, 413173, Control_c, 0, 64, 9
1, 413187, Note_on_c, 0, 65, 63
1, 413267, Note_on_c, 0, 67, 71
1, 413268, Note_on_c, 0, 65, 0
1, 413303, Note_on_c, 0, 67, 0
1, 413369, Note_on_c, 0, 69, 68
1, 413413, Note_on_c, 0, 69, 0
1, 413442, Note_on_c, 0, 52, 0
1, 413472, Note_on_c, 0, 71, 45
1, 413493, Note_on_c, 0, 69, 48
1, 413523, Note_on_c, 0, 69, 0
1, 413540, Note_on_c, 0, 72, 66
1, 413541, Note_on_c, 0, 55, 64
1, 413544, Note_on_c, 0, 71, 0
1, 413618, Note_on_c, 0, 55, 0
1, 413621, Note_on_c, 0, 53, 66
1, 413628, Note_on_c, 0, 72, 0
1, 413635, Note_on_c, 0, 74, 67
1, 413697, Note_on_c, 0, 53, 0
1, 413701, Note_on_c, 0, 52, 60
1, 413707, Note_on_c, 0, 76, 60
1, 413712, Note_on_c, 0, 74, 0
1, 413764, Note_on_c, 0, 76, 0
1, 413787, Note_on_c, 0, 69, 62
1, 413840, Note_on_c, 0, 48, 0
1, 413856, Note_on_c, 0, 69, 0
1, 413875, Note_on_c, 0, 71, 67
1, 413886, Note_on_c, 0, 52, 0
1, 413961, Note_on_c, 0, 71, 0
1, 413961, Note_on_c, 0, 72, 69
1, 413992, Note_on_c, 0, 72, 0
1, 414043, Note_on_c, 0, 74, 71
1, 414072, Control_c, 0, 67, 118
1, 414084, Note_on_c, 0, 74, 0
1, 414090, Control_c, 0, 67, 105
1, 414110, Control_c, 0, 67, 89
1, 414128, Control_c, 0, 67, 69
1, 414132, Note_on_c, 0, 76, 65
1, 414147, Control_c, 0, 67, 48
1, 414166, Control_c, 0, 67, 28
1, 414176, Note_on_c, 0, 76, 0
1, 414181, Control_c, 0, 64, 0
1, 414183, Control_c, 0, 67, 13
1, 414195, Note_on_c, 0, 78, 63
1, 414264, Note_on_c, 0, 48, 53
1, 414269, Note_on_c, 0, 78, 0
1, 414273, Control_c, 0, 67, 0
1, 414283, Note_on_c, 0, 80, 62
1, 414299, Note_on_c, 0, 48, 0
1, 414330, Control_c, 0, 64, 36
1, 414338, Note_on_c, 0, 64, 91
1, 414349, Control_c, 0, 64, 58
1, 414354, Note_on_c, 0, 81, 72
1, 414367, Control_c, 0, 64, 70
1, 414384, Note_on_c, 0, 80, 0
1, 414386, Control_c, 0, 64, 75
1, 414406, Control_c, 0, 64, 77
1, 414422, Note_on_c, 0, 81, 0
1, 414458, Control_c, 0, 64, 80
1, 414462, Note_on_c, 0, 76, 52
1, 414504, Note_on_c, 0, 76, 0
1, 414526, Note_on_c, 0, 78, 69
1, 414604, Note_on_c, 0, 80, 70
1, 414606, Note_on_c, 0, 78, 0
1, 414649, Note_on_c, 0, 80, 0
1, 414692, Note_on_c, 0, 81, 76
1, 414700, Control_c, 0, 67, 8
1, 414705, Note_on_c, 0, 64, 0
1, 414760, Note_on_c, 0, 81, 0
1, 414775, Note_on_c, 0, 83, 78
1, 414782, Note_on_c, 0, 62, 65
1, 414788, Control_c, 0, 64, 77
1, 414809, Control_c, 0, 64, 74
1, 414820, Note_on_c, 0, 62, 0
1, 414826, Control_c, 0, 64, 68
1, 414828, Control_c, 0, 67, 13
1, 414846, Control_c, 0, 64, 62
1, 414859, Note_on_c, 0, 83, 0
1, 414862, Note_on_c, 0, 84, 78
1, 414865, Control_c, 0, 64, 58
1, 414874, Note_on_c, 0, 60, 67
1, 414916, Control_c, 0, 64, 55
1, 414946, Note_on_c, 0, 60, 0
1, 414947, Note_on_c, 0, 84, 0
1, 414952, Control_c, 0, 64, 51
1, 414958, Note_on_c, 0, 59, 68
1, 414962, Note_on_c, 0, 86, 77
1, 414969, Control_c, 0, 64, 48
1, 414988, Control_c, 0, 64, 45
1, 415008, Control_c, 0, 64, 43
1, 415031, Note_on_c, 0, 86, 0
1, 415035, Note_on_c, 0, 59, 0
1, 415044, Control_c, 0, 64, 41
1, 415044, Note_on_c, 0, 88, 73
1, 415050, Note_on_c, 0, 57, 57
1, 415120, Control_c, 0, 64, 36
1, 415130, Note_on_c, 0, 86, 68
1, 415177, Note_on_c, 0, 88, 0
1, 415193, Control_c, 0, 64, 32
1, 415207, Note_on_c, 0, 84, 73
1, 415210, Control_c, 0, 64, 27
1, 415228, Control_c, 0, 64, 20
1, 415230, Control_c, 0, 67, 17
1, 415233, Note_on_c, 0, 57, 0
1, 415247, Control_c, 0, 64, 12
1, 415265, Control_c, 0, 64, 0
1, 415267, Note_on_c, 0, 86, 0
1, 415283, Control_c, 0, 67, 22
1, 415288, Note_on_c, 0, 83, 70
1, 415289, Note_on_c, 0, 84, 0
1, 415334, Note_on_c, 0, 83, 0
1, 415338, Control_c, 0, 67, 26
1, 415360, Note_on_c, 0, 81, 68
1, 415409, Note_on_c, 0, 81, 0
1, 415447, Note_on_c, 0, 83, 59
1, 415499, Note_on_c, 0, 83, 0
1, 415517, Note_on_c, 0, 84, 68
1, 415594, Note_on_c, 0, 81, 65
1, 415599, Note_on_c, 0, 84, 0
1, 415629, Note_on_c, 0, 81, 0
1, 415710, Note_on_c, 0, 53, 80
1, 415730, Note_on_c, 0, 50, 58
1, 415764, Control_c, 0, 64, 31
1, 415783, Control_c, 0, 64, 50
1, 415801, Control_c, 0, 64, 55
1, 415811, Note_on_c, 0, 65, 53
1, 415832, Control_c, 0, 64, 57
1, 415872, Note_on_c, 0, 65, 0
1, 415906, Control_c, 0, 64, 59
1, 415913, Note_on_c, 0, 67, 62
1, 415974, Note_on_c, 0, 67, 0
1, 416001, Note_on_c, 0, 69, 50
1, 416018, Control_c, 0, 64, 57
1, 416032, Note_on_c, 0, 69, 0
1, 416056, Control_c, 0, 64, 55
1, 416080, Note_on_c, 0, 71, 58
1, 416092, Control_c, 0, 64, 53
1, 416122, Note_on_c, 0, 71, 0
1, 416127, Control_c, 0, 64, 51
1, 416157, Note_on_c, 0, 72, 61
1, 416164, Control_c, 0, 64, 48
1, 416215, Note_on_c, 0, 53, 0
1, 416219, Control_c, 0, 64, 46
1, 416228, Note_on_c, 0, 72, 0
1, 416241, Note_on_c, 0, 74, 66
1, 416256, Note_on_c, 0, 57, 63
1, 416257, Control_c, 0, 64, 42
1, 416322, Note_on_c, 0, 74, 0
1, 416327, Note_on_c, 0, 57, 0
1, 416330, Control_c, 0, 64, 38
1, 416331, Note_on_c, 0, 55, 61
1, 416335, Note_on_c, 0, 76, 67
1, 416416, Note_on_c, 0, 55, 0
1, 416420, Note_on_c, 0, 77, 65
1, 416421, Note_on_c, 0, 53, 60
1, 416427, Note_on_c, 0, 76, 0
1, 416441, Control_c, 0, 64, 34
1, 416484, Note_on_c, 0, 77, 0
1, 416513, Note_on_c, 0, 71, 49
1, 416515, Control_c, 0, 64, 29
1, 416551, Control_c, 0, 64, 24
1, 416562, Note_on_c, 0, 71, 0
1, 416574, Note_on_c, 0, 72, 65
1, 416589, Control_c, 0, 64, 17
1, 416593, Note_on_c, 0, 50, 0
1, 416607, Control_c, 0, 64, 10
1, 416624, Control_c, 0, 64, 0
1, 416637, Note_on_c, 0, 53, 0
1, 416643, Note_on_c, 0, 74, 71
1, 416646, Note_on_c, 0, 72, 0
1, 416662, Control_c, 0, 67, 31
1, 416680, Control_c, 0, 67, 35
1, 416681, Note_on_c, 0, 74, 0
1, 416718, Control_c, 0, 67, 41
1, 416738, Note_on_c, 0, 76, 66
1, 416790, Note_on_c, 0, 76, 0
1, 416839, Note_on_c, 0, 77, 64
1, 416886, Note_on_c, 0, 77, 0
1, 416917, Note_on_c, 0, 79, 59
1, 416972, Note_on_c, 0, 79, 0
1, 416989, Note_on_c, 0, 50, 64
1, 416990, Note_on_c, 0, 81, 68
1, 417024, Note_on_c, 0, 50, 0
1, 417026, Control_c, 0, 64, 13
1, 417046, Control_c, 0, 64, 48
1, 417063, Control_c, 0, 64, 66
1, 417074, Note_on_c, 0, 83, 74
1, 417080, Control_c, 0, 64, 73
1, 417084, Note_on_c, 0, 65, 86
1, 417087, Note_on_c, 0, 81, 0
1, 417099, Control_c, 0, 64, 76
1, 417120, Control_c, 0, 64, 78
1, 417136, Control_c, 0, 64, 80
1, 417156, Control_c, 0, 64, 83
1, 417163, Note_on_c, 0, 83, 0
1, 417173, Note_on_c, 0, 77, 60
1, 417175, Control_c, 0, 64, 86
1, 417212, Control_c, 0, 64, 91
1, 417235, Note_on_c, 0, 77, 0
1, 417257, Note_on_c, 0, 79, 69
1, 417336, Note_on_c, 0, 79, 0
1, 417339, Note_on_c, 0, 81, 71
1, 417371, Note_on_c, 0, 81, 0
1, 417433, Note_on_c, 0, 83, 72
1, 417455, Note_on_c, 0, 65, 0
1, 417500, Note_on_c, 0, 83, 0
1, 417522, Note_on_c, 0, 84, 70
1, 417531, Note_on_c, 0, 64, 65
1, 417559, Control_c, 0, 64, 85
1, 417570, Note_on_c, 0, 64, 0
1, 417577, Control_c, 0, 64, 79
1, 417592, Note_on_c, 0, 84, 0
1, 417599, Control_c, 0, 64, 73
1, 417603, Note_on_c, 0, 86, 74
1, 417612, Poly_aftertouch_c, 0, 83, 0
1, 417614, Control_c, 0, 64, 67
1, 417626, Note_on_c, 0, 62, 66
1, 417632, Control_c, 0, 64, 63
1, 417651, Control_c, 0, 64, 61
1, 417670, Note_on_c, 0, 86, 0
1, 417670, Control_c, 0, 64, 60
1, 417704, Note_on_c, 0, 88, 73
1, 417709, Note_on_c, 0, 60, 72
1, 417710, Note_on_c, 0, 62, 0
1, 417722, Control_c, 0, 64, 57
1, 417741, Control_c, 0, 64, 54
1, 417775, Note_on_c, 0, 88, 0
1, 417776, Control_c, 0, 64, 52
1, 417787, Note_on_c, 0, 89, 74
1, 417793, Note_on_c, 0, 59, 63
1, 417794, Note_on_c, 0, 60, 0
1, 417833, Control_c, 0, 64, 50
1, 417870, Control_c, 0, 64, 47
1, 417879, Note_on_c, 0, 88, 74
1, 417926, Note_on_c, 0, 89, 0
1, 417943, Control_c, 0, 64, 45
1, 417954, Note_on_c, 0, 86, 76
1, 417962, Note_on_c, 0, 59, 0
1, 417962, Control_c, 0, 67, 45
1, 417981, Control_c, 0, 64, 42
1, 418004, Note_on_c, 0, 88, 0
1, 418016, Control_c, 0, 64, 40
1, 418017, Control_c, 0, 67, 51
1, 418040, Note_on_c, 0, 84, 76
1, 418041, Note_on_c, 0, 86, 0
1, 418053, Control_c, 0, 67, 56
1, 418092, Note_on_c, 0, 84, 0
1, 418116, Note_on_c, 0, 83, 71
1, 418129, Control_c, 0, 64, 36
1, 418164, Control_c, 0, 64, 30
1, 418168, Note_on_c, 0, 83, 0
1, 418181, Control_c, 0, 64, 25
1, 418185, Note_on_c, 0, 84, 69
1, 418202, Control_c, 0, 64, 16
1, 418220, Control_c, 0, 64, 0
1, 418263, Note_on_c, 0, 84, 0
1, 418266, Note_on_c, 0, 86, 76
1, 418347, Note_on_c, 0, 83, 70
1, 418355, Note_on_c, 0, 86, 0
1, 418357, Note_on_c, 0, 52, 63
1, 418392, Note_on_c, 0, 52, 0
1, 418395, Note_on_c, 0, 83, 0
1, 418403, Control_c, 0, 67, 51
1, 418422, Control_c, 0, 64, 39
1, 418423, Control_c, 0, 67, 44
1, 418441, Control_c, 0, 64, 66
1, 418442, Control_c, 0, 67, 34
1, 418444, Note_on_c, 0, 67, 93
1, 418462, Control_c, 0, 64, 74
1, 418464, Control_c, 0, 67, 20
1, 418477, Control_c, 0, 64, 81
1, 418478, Control_c, 0, 67, 0
1, 418495, Control_c, 0, 64, 83
1, 418515, Control_c, 0, 64, 86
1, 418532, Control_c, 0, 64, 91
1, 418535, Note_on_c, 0, 79, 66
1, 418552, Control_c, 0, 64, 96
1, 418570, Control_c, 0, 64, 101
1, 418639, Note_on_c, 0, 81, 79
1, 418640, Note_on_c, 0, 79, 0
1, 418719, Note_on_c, 0, 83, 82
1, 418722, Note_on_c, 0, 81, 0
1, 418769, Note_on_c, 0, 83, 0
1, 418809, Note_on_c, 0, 84, 81
1, 418824, Note_on_c, 0, 67, 0
1, 418878, Note_on_c, 0, 86, 82
1, 418883, Note_on_c, 0, 65, 70
1, 418888, Note_on_c, 0, 84, 0
1, 418921, Note_on_c, 0, 65, 0
1, 418963, Note_on_c, 0, 88, 87
1, 418963, Note_on_c, 0, 64, 76
1, 418973, Note_on_c, 0, 86, 0
1, 419007, Control_c, 0, 64, 93
1, 419028, Control_c, 0, 64, 86
1, 419040, Note_on_c, 0, 62, 78
1, 419044, Control_c, 0, 64, 78
1, 419046, Note_on_c, 0, 64, 0
1, 419054, Note_on_c, 0, 89, 82
1, 419056, Note_on_c, 0, 88, 0
1, 419063, Control_c, 0, 64, 71
1, 419082, Control_c, 0, 64, 65
1, 419100, Control_c, 0, 64, 61
1, 419118, Control_c, 0, 64, 59
1, 419132, Note_on_c, 0, 91, 82
1, 419133, Note_on_c, 0, 89, 0
1, 419137, Control_c, 0, 64, 57
1, 419139, Note_on_c, 0, 61, 67
1, 419142, Note_on_c, 0, 62, 0
1, 419156, Control_c, 0, 64, 55
1, 419192, Control_c, 0, 64, 53
1, 419217, Note_on_c, 0, 89, 78
1, 419267, Control_c, 0, 64, 50
1, 419274, Note_on_c, 0, 91, 0
1, 419287, Note_on_c, 0, 88, 83
1, 419304, Control_c, 0, 64, 48
1, 419328, Note_on_c, 0, 89, 0
1, 419359, Note_on_c, 0, 61, 0
1, 419365, Note_on_c, 0, 88, 0
1, 419367, Note_on_c, 0, 86, 80
1, 419395, Control_c, 0, 64, 46
1, 419445, Note_on_c, 0, 86, 0
1, 419452, Note_on_c, 0, 85, 81
1, 419468, Control_c, 0, 64, 44
1, 419486, Control_c, 0, 64, 41
1, 419522, Control_c, 0, 64, 34
1, 419527, Note_on_c, 0, 86, 74
1, 419536, Note_on_c, 0, 85, 0
1, 419541, Control_c, 0, 64, 26
1, 419575, Control_c, 0, 64, 0
1, 419621, Note_on_c, 0, 88, 80
1, 419624, Note_on_c, 0, 86, 0
1, 419699, Note_on_c, 0, 85, 76
1, 419709, Note_on_c, 0, 88, 0
1, 419717, Note_on_c, 0, 53, 67
1, 419740, Note_on_c, 0, 85, 0
1, 419742, Control_c, 0, 64, 18
1, 419752, Note_on_c, 0, 53, 0
1, 419759, Control_c, 0, 64, 53
1, 419779, Control_c, 0, 64, 70
1, 419797, Control_c, 0, 64, 76
1, 419803, Note_on_c, 0, 69, 83
1, 419814, Control_c, 0, 64, 79
1, 419853, Control_c, 0, 64, 83
1, 419871, Control_c, 0, 64, 86
1, 419887, Control_c, 0, 64, 90
1, 419902, Note_on_c, 0, 73, 69
1, 419906, Control_c, 0, 64, 94
1, 419939, Note_on_c, 0, 73, 0
1, 419963, Control_c, 0, 64, 98
1, 419977, Note_on_c, 0, 74, 69
1, 420006, Note_on_c, 0, 69, 0
1, 420040, Note_on_c, 0, 74, 0
1, 420054, Note_on_c, 0, 76, 69
1, 420105, Note_on_c, 0, 67, 64
1, 420124, Note_on_c, 0, 77, 77
1, 420129, Note_on_c, 0, 67, 0
1, 420133, Note_on_c, 0, 76, 0
1, 420179, Note_on_c, 0, 65, 73
1, 420200, Note_on_c, 0, 77, 0
1, 420202, Note_on_c, 0, 79, 76
1, 420248, Note_on_c, 0, 81, 79
1, 420256, Control_c, 0, 64, 102
1, 420256, Note_on_c, 0, 64, 72
1, 420262, Note_on_c, 0, 65, 0
1, 420277, Note_on_c, 0, 79, 0
1, 420293, Control_c, 0, 64, 94
1, 420312, Control_c, 0, 64, 67
1, 420330, Control_c, 0, 64, 0
1, 420331, Note_on_c, 0, 62, 74
1, 420333, Note_on_c, 0, 64, 0
1, 420336, Note_on_c, 0, 77, 78
1, 420349, Note_on_c, 0, 81, 0
1, 420381, Note_on_c, 0, 77, 0
1, 420382, Note_on_c, 0, 55, 73
1, 420384, Note_on_c, 0, 62, 0
1, 420414, Note_on_c, 0, 55, 0
1, 420422, Control_c, 0, 64, 17
1, 420441, Control_c, 0, 64, 51
1, 420458, Control_c, 0, 64, 72
1, 420459, Note_on_c, 0, 71, 94
1, 420479, Control_c, 0, 64, 82
1, 420511, Control_c, 0, 64, 91
1, 420530, Control_c, 0, 64, 95
1, 420548, Control_c, 0, 64, 99
1, 420557, Note_on_c, 0, 75, 72
1, 420585, Control_c, 0, 64, 105
1, 420614, Note_on_c, 0, 75, 0
1, 420643, Note_on_c, 0, 76, 74
1, 420714, Note_on_c, 0, 77, 79
1, 420717, Note_on_c, 0, 76, 0
1, 420727, Note_on_c, 0, 71, 0
1, 420776, Note_on_c, 0, 69, 69
1, 420789, Note_on_c, 0, 79, 80
1, 420805, Note_on_c, 0, 77, 0
1, 420810, Note_on_c, 0, 69, 0
1, 420861, Note_on_c, 0, 81, 78
1, 420863, Control_c, 0, 64, 109
1, 420863, Note_on_c, 0, 67, 80
1, 420868, Note_on_c, 0, 79, 0
1, 420896, Note_on_c, 0, 83, 80
1, 420934, Control_c, 0, 64, 115
1, 420940, Note_on_c, 0, 65, 75
1, 420941, Note_on_c, 0, 81, 0
1, 420948, Note_on_c, 0, 67, 0
1, 420981, Note_on_c, 0, 79, 82
1, 420994, Note_on_c, 0, 83, 0
1, 421003, Note_on_c, 0, 64, 81
1, 421007, Control_c, 0, 64, 94
1, 421008, Note_on_c, 0, 65, 0
1, 421027, Control_c, 0, 64, 46
1, 421042, Note_on_c, 0, 79, 0
1, 421043, Control_c, 0, 64, 0
1, 421066, Note_on_c, 0, 57, 88
1, 421074, Note_on_c, 0, 64, 0
1, 421098, Note_on_c, 0, 57, 0
1, 421119, Control_c, 0, 64, 13
1, 421138, Control_c, 0, 64, 50
1, 421151, Note_on_c, 0, 72, 94
1, 421156, Control_c, 0, 64, 73
1, 421175, Control_c, 0, 64, 86
1, 421193, Control_c, 0, 64, 97
1, 421211, Control_c, 0, 64, 101
1, 421226, Note_on_c, 0, 76, 73
1, 421248, Control_c, 0, 64, 107
1, 421282, Note_on_c, 0, 76, 0
1, 421284, Control_c, 0, 64, 111
1, 421311, Note_on_c, 0, 77, 79
1, 421390, Note_on_c, 0, 77, 0
1, 421390, Note_on_c, 0, 79, 75
1, 421409, Note_on_c, 0, 72, 0
1, 421466, Note_on_c, 0, 71, 71
1, 421468, Note_on_c, 0, 81, 83
1, 421493, Note_on_c, 0, 79, 0
1, 421532, Note_on_c, 0, 71, 0
1, 421537, Note_on_c, 0, 69, 70
1, 421549, Note_on_c, 0, 83, 83
1, 421557, Control_c, 0, 64, 116
1, 421558, Note_on_c, 0, 81, 0
1, 421567, Note_on_c, 0, 69, 0
1, 421594, Note_on_c, 0, 84, 79
1, 421594, Control_c, 0, 64, 121
1, 421604, Note_on_c, 0, 67, 80
1, 421630, Control_c, 0, 64, 126
1, 421671, Note_on_c, 0, 81, 88
1, 421685, Control_c, 0, 64, 114
1, 421691, Note_on_c, 0, 65, 79
1, 421692, Note_on_c, 0, 84, 0
1, 421697, Note_on_c, 0, 67, 0
1, 421704, Control_c, 0, 64, 74
1, 421722, Note_on_c, 0, 83, 0
1, 421723, Control_c, 0, 64, 0
1, 421732, Note_on_c, 0, 81, 0
1, 421745, Note_on_c, 0, 59, 91
1, 421756, Note_on_c, 0, 65, 0
1, 421782, Note_on_c, 0, 59, 0
1, 421814, Control_c, 0, 64, 43
1, 421826, Note_on_c, 0, 74, 99
1, 421833, Control_c, 0, 64, 70
1, 421852, Control_c, 0, 64, 84
1, 421872, Control_c, 0, 64, 96
1, 421890, Control_c, 0, 64, 100
1, 421916, Note_on_c, 0, 78, 76
1, 421925, Control_c, 0, 64, 104
1, 421980, Note_on_c, 0, 78, 0
1, 421990, Note_on_c, 0, 79, 80
1, 422079, Note_on_c, 0, 81, 80
1, 422081, Note_on_c, 0, 74, 0
1, 422088, Note_on_c, 0, 79, 0
1, 422136, Note_on_c, 0, 72, 74
1, 422148, Note_on_c, 0, 83, 86
1, 422173, Note_on_c, 0, 81, 0
1, 422181, Control_c, 0, 64, 108
1, 422203, Note_on_c, 0, 72, 0
1, 422220, Note_on_c, 0, 71, 59
1, 422226, Note_on_c, 0, 84, 80
1, 422236, Note_on_c, 0, 83, 0
1, 422242, Note_on_c, 0, 71, 0
1, 422257, Control_c, 0, 64, 115
1, 422263, Note_on_c, 0, 86, 85
1, 422272, Note_on_c, 0, 69, 81
1, 422292, Control_c, 0, 64, 122
1, 422302, Note_on_c, 0, 84, 0
1, 422347, Note_on_c, 0, 83, 86
1, 422353, Note_on_c, 0, 67, 77
1, 422354, Note_on_c, 0, 69, 0
1, 422381, Note_on_c, 0, 86, 0
1, 422381, Control_c, 0, 64, 95
1, 422400, Control_c, 0, 64, 46
1, 422415, Note_on_c, 0, 60, 88
1, 422418, Control_c, 0, 64, 0
1, 422426, Note_on_c, 0, 83, 0
1, 422428, Note_on_c, 0, 67, 0
1, 422453, Note_on_c, 0, 60, 0
1, 422493, Control_c, 0, 64, 40
1, 422501, Note_on_c, 0, 76, 99
1, 422511, Control_c, 0, 64, 70
1, 422530, Control_c, 0, 64, 88
1, 422546, Control_c, 0, 64, 103
1, 422565, Control_c, 0, 64, 108
1, 422580, Note_on_c, 0, 80, 76
1, 422622, Control_c, 0, 64, 113
1, 422646, Note_on_c, 0, 80, 0
1, 422661, Note_on_c, 0, 81, 80
1, 422738, Note_on_c, 0, 83, 80
1, 422742, Note_on_c, 0, 81, 0
1, 422767, Note_on_c, 0, 76, 0
1, 422782, Poly_aftertouch_c, 0, 70, 0
1, 422807, Note_on_c, 0, 84, 86
1, 422809, Note_on_c, 0, 74, 70
1, 422833, Note_on_c, 0, 83, 0
1, 422879, Control_c, 0, 64, 117
1, 422889, Note_on_c, 0, 86, 82
1, 422893, Note_on_c, 0, 74, 0
1, 422896, Note_on_c, 0, 84, 0
1, 422899, Note_on_c, 0, 72, 75
1, 422927, Note_on_c, 0, 88, 81
1, 422928, Note_on_c, 0, 72, 0
1, 422934, Control_c, 0, 64, 121
1, 422964, Note_on_c, 0, 71, 80
1, 422970, Control_c, 0, 64, 126
1, 423009, Note_on_c, 0, 84, 87
1, 423028, Note_on_c, 0, 88, 0
1, 423045, Note_on_c, 0, 71, 0
1, 423045, Control_c, 0, 64, 113
1, 423046, Note_on_c, 0, 69, 75
1, 423051, Note_on_c, 0, 86, 0
1, 423065, Control_c, 0, 64, 73
1, 423072, Note_on_c, 0, 84, 0
1, 423082, Control_c, 0, 64, 0
1, 423092, Note_on_c, 0, 62, 87
1, 423105, Note_on_c, 0, 69, 0
1, 423128, Note_on_c, 0, 62, 0
1, 423155, Control_c, 0, 64, 20
1, 423173, Control_c, 0, 64, 48
1, 423175, Note_on_c, 0, 77, 97
1, 423191, Control_c, 0, 64, 74
1, 423211, Control_c, 0, 64, 89
1, 423227, Control_c, 0, 64, 102
1, 423247, Control_c, 0, 64, 107
1, 423252, Note_on_c, 0, 82, 77
1, 423284, Control_c, 0, 64, 111
1, 423339, Note_on_c, 0, 82, 0
1, 423356, Note_on_c, 0, 83, 80
1, 423374, Control_c, 0, 64, 115
1, 423433, Note_on_c, 0, 84, 81
1, 423438, Note_on_c, 0, 83, 0
1, 423464, Note_on_c, 0, 77, 0
1, 423499, Control_c, 0, 64, 119
1, 423504, Note_on_c, 0, 86, 87
1, 423505, Note_on_c, 0, 76, 74
1, 423532, Note_on_c, 0, 84, 0
1, 423584, Note_on_c, 0, 88, 84
1, 423592, Note_on_c, 0, 76, 0
1, 423594, Note_on_c, 0, 74, 78
1, 423594, Control_c, 0, 64, 123
1, 423610, Note_on_c, 0, 86, 0
1, 423628, Note_on_c, 0, 74, 0
1, 423643, Note_on_c, 0, 89, 78
1, 423672, Note_on_c, 0, 72, 77
1, 423721, Note_on_c, 0, 88, 0
1, 423723, Note_on_c, 0, 86, 81
1, 423734, Note_on_c, 0, 89, 0
1, 423744, Note_on_c, 0, 72, 0
1, 423746, Note_on_c, 0, 71, 69
1, 423767, Note_on_c, 0, 86, 0
1, 423777, Control_c, 0, 64, 127
1, 423822, Note_on_c, 0, 71, 0
1, 423870, Control_c, 0, 64, 108
1, 423883, Note_on_c, 0, 64, 60
1, 423888, Control_c, 0, 64, 72
1, 423906, Control_c, 0, 64, 0
1, 423977, Note_on_c, 0, 72, 58
1, 423982, Control_c, 0, 64, 37
1, 424000, Control_c, 0, 64, 65
1, 424018, Control_c, 0, 64, 84
1, 424032, Note_on_c, 0, 76, 58
1, 424037, Control_c, 0, 64, 100
1, 424053, Control_c, 0, 64, 107
1, 424055, Note_on_c, 0, 79, 53
1, 424096, Note_on_c, 0, 72, 0
1, 424108, Note_on_c, 0, 84, 68
1, 424116, Note_on_c, 0, 64, 0
1, 424151, Note_on_c, 0, 76, 0
1, 424166, Note_on_c, 0, 79, 0
1, 424170, Note_on_c, 0, 91, 73
1, 424188, Note_on_c, 0, 84, 0
1, 424258, Note_on_c, 0, 91, 0
1, 424260, Note_on_c, 0, 64, 80
1, 424333, Note_on_c, 0, 72, 80
1, 424403, Note_on_c, 0, 76, 62
1, 424411, Note_on_c, 0, 79, 73
1, 424414, Note_on_c, 0, 64, 0
1, 424432, Note_on_c, 0, 72, 0
1, 424464, Note_on_c, 0, 84, 82
1, 424491, Note_on_c, 0, 76, 0
1, 424507, Note_on_c, 0, 79, 0
1, 424514, Note_on_c, 0, 91, 96
1, 424539, Note_on_c, 0, 84, 0
1, 424578, Note_on_c, 0, 91, 0
1, 424603, Note_on_c, 0, 64, 85
1, 424657, Note_on_c, 0, 72, 85
1, 424685, Note_on_c, 0, 67, 20
1, 424695, Control_c, 0, 64, 111
1, 424725, Note_on_c, 0, 76, 81
1, 424738, Note_on_c, 0, 64, 0
1, 424757, Note_on_c, 0, 72, 0
1, 424766, Note_on_c, 0, 80, 80
1, 424812, Note_on_c, 0, 84, 84
1, 424824, Note_on_c, 0, 67, 0
1, 424827, Note_on_c, 0, 76, 0
1, 424858, Note_on_c, 0, 80, 0
1, 424863, Note_on_c, 0, 92, 99
1, 424899, Note_on_c, 0, 84, 0
1, 424912, Note_on_c, 0, 64, 83
1, 424969, Note_on_c, 0, 72, 80
1, 424972, Note_on_c, 0, 92, 0
1, 425021, Note_on_c, 0, 64, 0
1, 425038, Note_on_c, 0, 76, 81
1, 425049, Note_on_c, 0, 72, 0
1, 425063, Control_c, 0, 64, 116
1, 425072, Note_on_c, 0, 80, 79
1, 425099, Control_c, 0, 64, 122
1, 425113, Note_on_c, 0, 84, 85
1, 425136, Control_c, 0, 64, 127
1, 425141, Note_on_c, 0, 76, 0
1, 425162, Note_on_c, 0, 80, 0
1, 425202, Note_on_c, 0, 92, 90
1, 425225, Note_on_c, 0, 84, 0
1, 425297, Note_on_c, 0, 92, 0
1, 425298, Control_c, 0, 64, 96
1, 425318, Control_c, 0, 64, 0
1, 425323, Note_on_c, 0, 81, 98
1, 425340, Note_on_c, 0, 72, 78
1, 425342, Note_on_c, 0, 77, 83
1, 425350, Note_on_c, 0, 65, 75
1, 425427, Control_c, 0, 64, 17
1, 425447, Control_c, 0, 64, 50
1, 425466, Control_c, 0, 64, 68
1, 425485, Control_c, 0, 64, 78
1, 425501, Control_c, 0, 64, 85
1, 425519, Control_c, 0, 64, 91
1, 425538, Control_c, 0, 64, 97
1, 425538, Note_on_c, 0, 93, 101
1, 425553, Note_on_c, 0, 81, 0
1, 425556, Control_c, 0, 64, 101
1, 425668, Note_on_c, 0, 91, 94
1, 425720, Note_on_c, 0, 93, 0
1, 425761, Note_on_c, 0, 89, 94
1, 425843, Note_on_c, 0, 88, 95
1, 425847, Note_on_c, 0, 91, 0
1, 425875, Note_on_c, 0, 89, 0
1, 425902, Note_on_c, 0, 77, 0
1, 425920, Note_on_c, 0, 86, 87
1, 425930, Note_on_c, 0, 88, 0
1, 425967, Note_on_c, 0, 72, 0
1, 425979, Note_on_c, 0, 86, 0
1, 425993, Note_on_c, 0, 84, 92
1, 426025, Note_on_c, 0, 65, 0
1, 426070, Note_on_c, 0, 83, 90
1, 426103, Note_on_c, 0, 84, 0
1, 426160, Note_on_c, 0, 81, 87
1, 426168, Note_on_c, 0, 83, 0
1, 426199, Control_c, 0, 64, 96
1, 426217, Note_on_c, 0, 81, 0
1, 426234, Control_c, 0, 64, 90
1, 426241, Note_on_c, 0, 79, 91
1, 426253, Control_c, 0, 64, 85
1, 426272, Control_c, 0, 64, 82
1, 426289, Control_c, 0, 64, 80
1, 426321, Note_on_c, 0, 77, 88
1, 426346, Control_c, 0, 64, 77
1, 426354, Note_on_c, 0, 79, 0
1, 426363, Control_c, 0, 64, 75
1, 426381, Control_c, 0, 64, 73
1, 426389, Note_on_c, 0, 76, 85
1, 426392, Note_on_c, 0, 77, 0
1, 426421, Control_c, 0, 64, 70
1, 426436, Control_c, 0, 64, 68
1, 426447, Note_on_c, 0, 76, 0
1, 426455, Control_c, 0, 64, 67
1, 426467, Note_on_c, 0, 74, 92
1, 426474, Control_c, 0, 64, 65
1, 426509, Control_c, 0, 64, 63
1, 426528, Control_c, 0, 64, 61
1, 426545, Note_on_c, 0, 72, 88
1, 426546, Control_c, 0, 64, 60
1, 426580, Note_on_c, 0, 74, 0
1, 426620, Note_on_c, 0, 71, 86
1, 426624, Note_on_c, 0, 72, 0
1, 426659, Control_c, 0, 64, 58
1, 426672, Note_on_c, 0, 71, 0
1, 426711, Note_on_c, 0, 69, 89
1, 426749, Control_c, 0, 64, 55
1, 426787, Note_on_c, 0, 69, 0
1, 426787, Control_c, 0, 64, 53
1, 426794, Note_on_c, 0, 68, 86
1, 426824, Control_c, 0, 64, 49
1, 426843, Control_c, 0, 64, 47
1, 426864, Note_on_c, 0, 69, 81
1, 426867, Note_on_c, 0, 68, 0
1, 426880, Control_c, 0, 64, 44
1, 426898, Control_c, 0, 64, 42
1, 426934, Control_c, 0, 64, 38
1, 426946, Note_on_c, 0, 67, 87
1, 426967, Note_on_c, 0, 69, 0
1, 427009, Control_c, 0, 64, 15
1, 427027, Note_on_c, 0, 67, 0
1, 427027, Control_c, 0, 64, 0
1, 427032, Note_on_c, 0, 65, 81
1, 427105, Note_on_c, 0, 65, 0
1, 427119, Note_on_c, 0, 29, 97
1, 427130, Note_on_c, 0, 64, 87
1, 427188, Control_c, 0, 64, 25
1, 427215, Note_on_c, 0, 62, 85
1, 427245, Note_on_c, 0, 64, 0
1, 427299, Note_on_c, 0, 60, 82
1, 427300, Note_on_c, 0, 62, 0
1, 427385, Note_on_c, 0, 59, 84
1, 427388, Note_on_c, 0, 60, 0
1, 427471, Note_on_c, 0, 57, 83
1, 427496, Note_on_c, 0, 59, 0
1, 427549, Note_on_c, 0, 31, 78
1, 427550, Note_on_c, 0, 55, 82
1, 427552, Note_on_c, 0, 57, 0
1, 427573, Note_on_c, 0, 29, 0
1, 427630, Note_on_c, 0, 33, 84
1, 427632, Note_on_c, 0, 55, 0
1, 427637, Note_on_c, 0, 53, 86
1, 427665, Note_on_c, 0, 31, 0
1, 427708, Note_on_c, 0, 35, 82
1, 427719, Note_on_c, 0, 33, 0
1, 427724, Note_on_c, 0, 52, 83
1, 427750, Note_on_c, 0, 53, 0
1, 427789, Note_on_c, 0, 36, 81
1, 427797, Note_on_c, 0, 52, 0
1, 427797, Note_on_c, 0, 35, 0
1, 427800, Note_on_c, 0, 50, 81
1, 427854, Note_on_c, 0, 50, 0
1, 427857, Note_on_c, 0, 36, 0
1, 427880, Note_on_c, 0, 38, 80
1, 427887, Note_on_c, 0, 48, 84
1, 427928, Control_c, 0, 64, 20
1, 427961, Note_on_c, 0, 40, 86
1, 427962, Note_on_c, 0, 47, 81
1, 427964, Control_c, 0, 64, 14
1, 427970, Note_on_c, 0, 38, 0
1, 428014, Control_c, 0, 64, 0
1, 428049, Note_on_c, 0, 48, 0
1, 428051, Note_on_c, 0, 40, 0
1, 428057, Note_on_c, 0, 41, 75
1, 428064, Note_on_c, 0, 45, 81
1, 428081, Note_on_c, 0, 47, 0
1, 428123, Note_on_c, 0, 45, 0
1, 428123, Note_on_c, 0, 41, 0
1, 428149, Note_on_c, 0, 43, 86
1, 428157, Note_on_c, 0, 31, 81
1, 428162, Note_on_c, 0, 40, 93
1, 428168, Note_on_c, 0, 36, 82
1, 428216, Control_c, 0, 64, 25
1, 428235, Control_c, 0, 64, 61
1, 428252, Control_c, 0, 64, 66
1, 428253, Note_on_c, 0, 48, 80
1, 428262, Note_on_c, 0, 43, 0
1, 428272, Control_c, 0, 64, 62
1, 428291, Control_c, 0, 64, 61
1, 428300, Poly_aftertouch_c, 0, 35, 0
1, 428342, Note_on_c, 0, 47, 80
1, 428350, Note_on_c, 0, 48, 0
1, 428364, Control_c, 0, 64, 58
1, 428422, Note_on_c, 0, 50, 74
1, 428423, Note_on_c, 0, 47, 0
1, 428437, Note_on_c, 0, 31, 0
1, 428445, Note_on_c, 0, 40, 0
1, 428460, Note_on_c, 0, 50, 0
1, 428482, Note_on_c, 0, 36, 0
1, 428499, Note_on_c, 0, 48, 79
1, 428512, Control_c, 0, 64, 53
1, 428531, Control_c, 0, 64, 48
1, 428547, Control_c, 0, 64, 44
1, 428567, Control_c, 0, 64, 37
1, 428579, Note_on_c, 0, 52, 69
1, 428586, Control_c, 0, 64, 29
1, 428587, Note_on_c, 0, 48, 0
1, 428603, Control_c, 0, 64, 22
1, 428658, Note_on_c, 0, 52, 0
1, 428665, Note_on_c, 0, 51, 65
1, 428740, Note_on_c, 0, 53, 65
1, 428752, Note_on_c, 0, 51, 0
1, 428786, Note_on_c, 0, 53, 0
1, 428830, Note_on_c, 0, 52, 66
1, 428889, Note_on_c, 0, 52, 0
1, 428935, Note_on_c, 0, 55, 54
1, 428997, Note_on_c, 0, 55, 0
1, 429009, Note_on_c, 0, 54, 65
1, 429085, Note_on_c, 0, 57, 49
1, 429089, Note_on_c, 0, 54, 0
1, 429121, Note_on_c, 0, 57, 0
1, 429175, Note_on_c, 0, 55, 62
1, 429232, Note_on_c, 0, 55, 0
1, 429259, Note_on_c, 0, 60, 60
1, 429319, Note_on_c, 0, 60, 0
1, 429342, Note_on_c, 0, 59, 62
1, 429416, Note_on_c, 0, 59, 0
1, 429419, Note_on_c, 0, 62, 59
1, 429460, Note_on_c, 0, 62, 0
1, 429465, Control_c, 0, 67, 8
1, 429505, Note_on_c, 0, 60, 65
1, 429559, Note_on_c, 0, 60, 0
1, 429574, Control_c, 0, 67, 12
1, 429591, Note_on_c, 0, 64, 56
1, 429645, Note_on_c, 0, 64, 0
1, 429664, Note_on_c, 0, 63, 60
1, 429686, Control_c, 0, 67, 17
1, 429745, Note_on_c, 0, 65, 56
1, 429749, Note_on_c, 0, 63, 0
1, 429788, Note_on_c, 0, 65, 0
1, 429814, Control_c, 0, 67, 22
1, 429831, Note_on_c, 0, 64, 65
1, 429894, Note_on_c, 0, 64, 0
1, 429902, Control_c, 0, 67, 26
1, 429931, Note_on_c, 0, 67, 57
1, 429959, Control_c, 0, 67, 30
1, 429989, Note_on_c, 0, 67, 0
1, 430013, Control_c, 0, 67, 35
1, 430013, Note_on_c, 0, 66, 57
1, 430049, Control_c, 0, 67, 39
1, 430077, Note_on_c, 0, 66, 0
1, 430078, Note_on_c, 0, 69, 57
1, 430113, Note_on_c, 0, 69, 0
1, 430125, Control_c, 0, 67, 45
1, 430143, Control_c, 0, 67, 49
1, 430162, Control_c, 0, 67, 53
1, 430167, Note_on_c, 0, 67, 60
1, 430198, Control_c, 0, 67, 58
1, 430219, Note_on_c, 0, 67, 0
1, 430236, Control_c, 0, 67, 65
1, 430252, Note_on_c, 0, 72, 62
1, 430253, Control_c, 0, 67, 70
1, 430289, Control_c, 0, 67, 76
1, 430314, Note_on_c, 0, 72, 0
1, 430326, Control_c, 0, 67, 81
1, 430341, Note_on_c, 0, 71, 63
1, 430366, Control_c, 0, 67, 89
1, 430383, Control_c, 0, 67, 94
1, 430402, Control_c, 0, 67, 98
1, 430409, Note_on_c, 0, 71, 0
1, 430414, Note_on_c, 0, 74, 63
1, 430437, Control_c, 0, 67, 104
1, 430457, Control_c, 0, 67, 111
1, 430458, Note_on_c, 0, 74, 0
1, 430474, Control_c, 0, 67, 119
1, 430492, Control_c, 0, 67, 126
1, 430499, Note_on_c, 0, 72, 68
1, 430551, Note_on_c, 0, 72, 0
1, 430586, Note_on_c, 0, 76, 61
1, 430640, Note_on_c, 0, 76, 0
1, 430653, Note_on_c, 0, 75, 69
1, 430735, Note_on_c, 0, 77, 64
1, 430736, Note_on_c, 0, 75, 0
1, 430768, Note_on_c, 0, 77, 0
1, 430835, Note_on_c, 0, 76, 66
1, 430882, Note_on_c, 0, 76, 0
1, 430913, Note_on_c, 0, 79, 62
1, 430970, Note_on_c, 0, 79, 0
1, 430990, Note_on_c, 0, 78, 69
1, 431068, Note_on_c, 0, 81, 65
1, 431075, Note_on_c, 0, 78, 0
1, 431108, Note_on_c, 0, 81, 0
1, 431160, Note_on_c, 0, 79, 69
1, 431219, Note_on_c, 0, 79, 0
1, 431246, Note_on_c, 0, 84, 70
1, 431247, Note_on_c, 0, 76, 66
1, 431281, Note_on_c, 0, 84, 0
1, 431319, Note_on_c, 0, 83, 74
1, 431324, Note_on_c, 0, 76, 0
1, 431344, Note_on_c, 0, 75, 65
1, 431391, Note_on_c, 0, 84, 74
1, 431392, Note_on_c, 0, 75, 0
1, 431398, Note_on_c, 0, 83, 0
1, 431421, Note_on_c, 0, 76, 49
1, 431453, Note_on_c, 0, 76, 0
1, 431457, Note_on_c, 0, 84, 0
1, 431487, Note_on_c, 0, 79, 73
1, 431503, Note_on_c, 0, 67, 53
1, 431559, Note_on_c, 0, 79, 0
1, 431571, Note_on_c, 0, 67, 0
1, 431571, Note_on_c, 0, 88, 77
1, 431575, Control_c, 0, 67, 115
1, 431575, Note_on_c, 0, 72, 66
1, 431594, Control_c, 0, 67, 100
1, 431613, Note_on_c, 0, 72, 0
1, 431613, Control_c, 0, 67, 81
1, 431633, Control_c, 0, 67, 58
1, 431647, Control_c, 0, 67, 35
1, 431650, Note_on_c, 0, 71, 58
1, 431651, Note_on_c, 0, 88, 0
1, 431658, Note_on_c, 0, 87, 75
1, 431665, Control_c, 0, 67, 13
1, 431687, Control_c, 0, 67, 0
1, 431716, Note_on_c, 0, 71, 0
1, 431722, Note_on_c, 0, 72, 65
1, 431758, Note_on_c, 0, 88, 72
1, 431775, Note_on_c, 0, 87, 0
1, 431789, Note_on_c, 0, 72, 0
1, 431818, Note_on_c, 0, 88, 0
1, 431819, Note_on_c, 0, 67, 69
1, 431832, Note_on_c, 0, 79, 64
1, 431867, Note_on_c, 0, 67, 0
1, 431892, Note_on_c, 0, 79, 0
1, 431903, Note_on_c, 0, 84, 76
1, 431908, Note_on_c, 0, 76, 74
1, 431959, Note_on_c, 0, 84, 0
1, 431978, Note_on_c, 0, 76, 0
1, 431982, Note_on_c, 0, 83, 78
1, 431992, Note_on_c, 0, 75, 71
1, 432059, Note_on_c, 0, 84, 75
1, 432061, Note_on_c, 0, 83, 0
1, 432066, Note_on_c, 0, 75, 0
1, 432075, Note_on_c, 0, 76, 68
1, 432125, Note_on_c, 0, 84, 0
1, 432127, Note_on_c, 0, 76, 0
1, 432152, Note_on_c, 0, 79, 80
1, 432159, Note_on_c, 0, 67, 68
1, 432210, Note_on_c, 0, 67, 0
1, 432222, Note_on_c, 0, 79, 0
1, 432234, Note_on_c, 0, 88, 82
1, 432238, Note_on_c, 0, 72, 73
1, 432286, Note_on_c, 0, 72, 0
1, 432308, Note_on_c, 0, 71, 67
1, 432317, Note_on_c, 0, 87, 86
1, 432319, Note_on_c, 0, 88, 0
1, 432374, Note_on_c, 0, 71, 0
1, 432397, Note_on_c, 0, 72, 78
1, 432402, Note_on_c, 0, 88, 79
1, 432435, Note_on_c, 0, 87, 0
1, 432439, Note_on_c, 0, 72, 0
1, 432463, Note_on_c, 0, 88, 0
1, 432475, Note_on_c, 0, 67, 76
1, 432476, Note_on_c, 0, 79, 85
1, 432535, Note_on_c, 0, 67, 0
1, 432552, Note_on_c, 0, 84, 90
1, 432563, Note_on_c, 0, 79, 0
1, 432564, Note_on_c, 0, 76, 79
1, 432616, Note_on_c, 0, 76, 0
1, 432632, Note_on_c, 0, 83, 92
1, 432635, Note_on_c, 0, 84, 0
1, 432637, Note_on_c, 0, 75, 78
1, 432727, Note_on_c, 0, 84, 87
1, 432729, Note_on_c, 0, 75, 0
1, 432739, Note_on_c, 0, 76, 83
1, 432740, Note_on_c, 0, 83, 0
1, 432798, Note_on_c, 0, 76, 0
1, 432798, Note_on_c, 0, 84, 0
1, 432810, Note_on_c, 0, 79, 94
1, 432825, Note_on_c, 0, 67, 80
1, 432890, Note_on_c, 0, 79, 0
1, 432893, Note_on_c, 0, 88, 97
1, 432906, Note_on_c, 0, 67, 0
1, 432908, Note_on_c, 0, 72, 82
1, 432980, Note_on_c, 0, 72, 0
1, 432980, Note_on_c, 0, 87, 92
1, 432982, Note_on_c, 0, 71, 77
1, 432992, Note_on_c, 0, 88, 0
1, 433063, Note_on_c, 0, 88, 89
1, 433065, Note_on_c, 0, 71, 0
1, 433074, Note_on_c, 0, 72, 87
1, 433125, Note_on_c, 0, 87, 0
1, 433131, Note_on_c, 0, 72, 0
1, 433157, Note_on_c, 0, 67, 79
1, 433159, Note_on_c, 0, 88, 0
1, 433161, Note_on_c, 0, 79, 94
1, 433215, Note_on_c, 0, 67, 0
1, 433250, Note_on_c, 0, 76, 86
1, 433253, Note_on_c, 0, 84, 97
1, 433262, Note_on_c, 0, 79, 0
1, 433283, Control_c, 0, 64, 12
1, 433298, Control_c, 0, 64, 0
1, 433342, Note_on_c, 0, 76, 0
1, 433355, Note_on_c, 0, 83, 97
1, 433361, Note_on_c, 0, 75, 81
1, 433369, Note_on_c, 0, 84, 0
1, 433456, Note_on_c, 0, 84, 97
1, 433459, Note_on_c, 0, 75, 0
1, 433468, Note_on_c, 0, 76, 80
1, 433484, Control_c, 0, 64, 32
1, 433490, Note_on_c, 0, 83, 0
1, 433503, Control_c, 0, 64, 64
1, 433521, Control_c, 0, 64, 73
1, 433539, Control_c, 0, 64, 77
1, 433577, Control_c, 0, 64, 81
1, 433594, Control_c, 0, 64, 88
1, 433629, Control_c, 0, 64, 99
1, 433647, Control_c, 0, 64, 106
1, 433675, Note_on_c, 0, 76, 0
1, 433685, Control_c, 0, 64, 111
1, 433758, Control_c, 0, 64, 106
1, 433765, Note_on_c, 0, 89, 102
1, 433775, Control_c, 0, 64, 73
1, 433780, Note_on_c, 0, 83, 84
1, 433782, Note_on_c, 0, 74, 70
1, 433792, Note_on_c, 0, 77, 73
1, 433793, Control_c, 0, 64, 0
1, 433798, Note_on_c, 0, 84, 0
1, 433800, Note_on_c, 0, 67, 64
1, 434145, Control_c, 0, 64, 34
1, 434163, Control_c, 0, 64, 52
1, 434181, Control_c, 0, 64, 65
1, 434199, Control_c, 0, 64, 69
1, 434235, Control_c, 0, 64, 71
1, 434254, Control_c, 0, 64, 74
1, 434272, Control_c, 0, 64, 76
1, 434310, Control_c, 0, 64, 78
1, 434348, Control_c, 0, 64, 82
1, 434365, Control_c, 0, 64, 85
1, 434383, Control_c, 0, 64, 87
1, 434385, Note_on_c, 0, 89, 0
1, 434393, Note_on_c, 0, 83, 0
1, 434438, Control_c, 0, 64, 92
1, 434511, Control_c, 0, 64, 97
1, 434700, Poly_aftertouch_c, 0, 77, 24
1, 434712, Control_c, 0, 64, 101
1, 434763, Note_on_c, 0, 77, 0
1, 434763, Poly_aftertouch_c, 0, 77, 0
1, 435179, Note_on_c, 0, 89, 90
1, 435228, Note_on_c, 0, 67, 0
1, 435259, Note_on_c, 0, 74, 0
1, 435381, Note_on_c, 0, 88, 93
1, 435415, Note_on_c, 0, 89, 0
1, 435467, Control_c, 0, 64, 105
1, 435515, Note_on_c, 0, 86, 90
1, 435540, Note_on_c, 0, 88, 0
1, 435598, Note_on_c, 0, 84, 87
1, 435606, Note_on_c, 0, 86, 0
1, 435649, Note_on_c, 0, 84, 0
1, 435679, Note_on_c, 0, 83, 85
1, 435750, Note_on_c, 0, 81, 86
1, 435794, Control_c, 0, 64, 109
1, 435813, Note_on_c, 0, 79, 86
1, 435815, Note_on_c, 0, 83, 0
1, 435838, Note_on_c, 0, 81, 0
1, 435869, Note_on_c, 0, 77, 80
1, 435872, Note_on_c, 0, 79, 0
1, 435922, Note_on_c, 0, 77, 0
1, 435948, Note_on_c, 0, 76, 86
1, 436014, Note_on_c, 0, 74, 88
1, 436026, Note_on_c, 0, 76, 0
1, 436071, Control_c, 0, 67, 8
1, 436073, Note_on_c, 0, 74, 0
1, 436078, Note_on_c, 0, 72, 78
1, 436089, Control_c, 0, 64, 113
1, 436125, Control_c, 0, 64, 119
1, 436142, Note_on_c, 0, 72, 0
1, 436146, Note_on_c, 0, 71, 88
1, 436163, Control_c, 0, 64, 125
1, 436191, Note_on_c, 0, 71, 0
1, 436235, Note_on_c, 0, 65, 59
1, 436236, Note_on_c, 0, 77, 97
1, 436247, Note_on_c, 0, 62, 55
1, 436253, Control_c, 0, 64, 121
1, 436259, Note_on_c, 0, 71, 57
1, 436264, Note_on_c, 0, 55, 56
1, 436272, Control_c, 0, 64, 90
1, 436292, Control_c, 0, 64, 32
1, 436310, Control_c, 0, 64, 0
1, 436653, Poly_aftertouch_c, 0, 71, 24
1, 436712, Control_c, 0, 64, 24
1, 436730, Note_on_c, 0, 71, 0
1, 436730, Poly_aftertouch_c, 0, 71, 0
1, 436730, Control_c, 0, 64, 43
1, 436748, Control_c, 0, 64, 62
1, 436767, Control_c, 0, 64, 71
1, 436786, Control_c, 0, 64, 75
1, 436804, Control_c, 0, 64, 78
1, 436822, Control_c, 0, 64, 80
1, 436839, Control_c, 0, 64, 84
1, 436859, Control_c, 0, 64, 90
1, 436878, Control_c, 0, 64, 95
1, 436914, Control_c, 0, 64, 100
1, 436968, Control_c, 0, 64, 104
1, 437006, Control_c, 0, 64, 108
1, 437041, Control_c, 0, 64, 113
1, 437079, Control_c, 0, 64, 117
1, 437128, Note_on_c, 0, 77, 0
1, 437155, Control_c, 0, 64, 122
1, 437208, Control_c, 0, 64, 127
1, 437619, Note_on_c, 0, 65, 0
1, 438091, Control_c, 0, 67, 12
1, 438140, Poly_aftertouch_c, 0, 79, 127
1, 438149, Note_on_c, 0, 77, 55
1, 438180, Control_c, 0, 67, 16
1, 438236, Poly_aftertouch_c, 0, 79, 0
1, 438307, Control_c, 0, 67, 20
1, 438412, Poly_aftertouch_c, 0, 62, 24
1, 438416, Control_c, 0, 64, 123
1, 438418, Control_c, 0, 67, 25
1, 438485, Note_on_c, 0, 62, 0
1, 438485, Poly_aftertouch_c, 0, 62, 0
1, 438489, Control_c, 0, 67, 29
1, 438498, Note_on_c, 0, 76, 60
1, 438509, Control_c, 0, 64, 119
1, 438545, Poly_aftertouch_c, 0, 55, 24
1, 438545, Control_c, 0, 67, 34
1, 438601, Control_c, 0, 67, 38
1, 438618, Note_on_c, 0, 77, 0
1, 438638, Control_c, 0, 67, 42
1, 438656, Control_c, 0, 64, 115
1, 438676, Control_c, 0, 67, 48
1, 438713, Note_on_c, 0, 74, 59
1, 438729, Control_c, 0, 67, 52
1, 438749, Control_c, 0, 64, 111
1, 438752, Note_on_c, 0, 76, 0
1, 438786, Control_c, 0, 67, 57
1, 438804, Poly_aftertouch_c, 0, 55, 32
1, 438824, Control_c, 0, 67, 61
1, 438859, Control_c, 0, 64, 107
1, 438860, Control_c, 0, 67, 68
1, 438863, Note_on_c, 0, 74, 0
1, 438877, Control_c, 0, 67, 73
1, 438880, Note_on_c, 0, 72, 58
1, 438897, Control_c, 0, 67, 78
1, 438912, Control_c, 0, 67, 85
1, 438931, Control_c, 0, 64, 103
1, 438932, Control_c, 0, 67, 90
1, 438950, Control_c, 0, 67, 96
1, 438970, Control_c, 0, 67, 101
1, 438987, Control_c, 0, 64, 99
1, 438988, Control_c, 0, 67, 106
1, 439006, Control_c, 0, 67, 111
1, 439026, Control_c, 0, 67, 115
1, 439043, Control_c, 0, 64, 94
1, 439045, Control_c, 0, 67, 119
1, 439063, Note_on_c, 0, 72, 0
1, 439064, Note_on_c, 0, 71, 51
1, 439079, Control_c, 0, 67, 124
1, 439116, Control_c, 0, 64, 90
1, 439152, Control_c, 0, 64, 87
1, 439172, Control_c, 0, 64, 85
1, 439189, Control_c, 0, 64, 83
1, 439242, Control_c, 0, 64, 79
1, 439261, Control_c, 0, 64, 76
1, 439279, Control_c, 0, 64, 73
1, 439282, Note_on_c, 0, 69, 46
1, 439298, Control_c, 0, 64, 70
1, 439333, Note_on_c, 0, 71, 0
1, 439372, Control_c, 0, 64, 68
1, 439408, Control_c, 0, 64, 66
1, 439425, Control_c, 0, 64, 65
1, 439444, Control_c, 0, 64, 64
1, 439494, Note_on_c, 0, 69, 0
1, 439511, Note_on_c, 0, 67, 47
1, 439518, Control_c, 0, 64, 63
1, 439821, Note_on_c, 0, 65, 48
1, 439827, Note_on_c, 0, 67, 0
1, 439886, Control_c, 0, 64, 64
1, 439905, Control_c, 0, 64, 68
1, 439923, Control_c, 0, 64, 74
1, 439942, Control_c, 0, 64, 83
1, 439944, Poly_aftertouch_c, 0, 55, 24
1, 439961, Control_c, 0, 64, 93
1, 439976, Note_on_c, 0, 55, 0
1, 439976, Poly_aftertouch_c, 0, 55, 0
1, 439977, Poly_aftertouch_c, 0, 55, 0
1, 439978, Control_c, 0, 64, 101
1, 439996, Control_c, 0, 64, 107
1, 440033, Control_c, 0, 64, 111
1, 440088, Control_c, 0, 64, 116
1, 440251, Control_c, 0, 64, 120
1, 440473, Note_on_c, 0, 65, 0
1, 440473, Note_on_c, 0, 64, 52
1, 440512, Note_on_c, 0, 55, 36
1, 440522, Note_on_c, 0, 60, 38
1, 440529, Note_on_c, 0, 36, 37
1, 440536, Note_on_c, 0, 48, 32
1, 440620, Control_c, 0, 64, 115
1, 440638, Control_c, 0, 64, 95
1, 440657, Control_c, 0, 64, 64
1, 440676, Control_c, 0, 64, 22
1, 440730, Control_c, 0, 64, 11
1, 440750, Control_c, 0, 64, 32
1, 440767, Control_c, 0, 64, 52
1, 440784, Control_c, 0, 64, 72
1, 440804, Control_c, 0, 64, 84
1, 440807, Control_c, 0, 67, 120
1, 440822, Control_c, 0, 64, 97
1, 440823, Control_c, 0, 67, 109
1, 440841, Control_c, 0, 64, 105
1, 440842, Control_c, 0, 67, 91
1, 440858, Control_c, 0, 67, 65
1, 440878, Control_c, 0, 64, 109
1, 440879, Control_c, 0, 67, 34
1, 440915, Control_c, 0, 67, 0
1, 440915, Poly_aftertouch_c, 0, 48, 22
1, 440934, Note_on_c, 0, 60, 0
1, 440934, Note_on_c, 0, 48, 0
1, 440934, Poly_aftertouch_c, 0, 48, 0
1, 440934, Control_c, 0, 64, 114
1, 440948, Note_on_c, 0, 36, 0
1, 440988, Note_on_c, 0, 55, 0
1, 440989, Control_c, 0, 64, 119
1, 441064, Control_c, 0, 64, 123
1, 441172, Control_c, 0, 64, 127
1, 441456, Note_on_c, 0, 62, 58
1, 441469, Note_on_c, 0, 59, 36
1, 441482, Note_on_c, 0, 44, 44
1, 441496, Note_on_c, 0, 53, 32
1, 441500, Control_c, 0, 64, 111
1, 441506, Note_on_c, 0, 32, 41
1, 441519, Control_c, 0, 64, 81
1, 441536, Note_on_c, 0, 64, 0
1, 441538, Control_c, 0, 64, 47
1, 441557, Control_c, 0, 64, 29
1, 441613, Control_c, 0, 64, 50
1, 441632, Control_c, 0, 64, 69
1, 441650, Control_c, 0, 64, 83
1, 441667, Control_c, 0, 64, 96
1, 441670, Note_on_c, 0, 59, 0
1, 441683, Note_on_c, 0, 53, 0
1, 441687, Control_c, 0, 64, 106
1, 441705, Control_c, 0, 64, 110
1, 441778, Control_c, 0, 64, 116
1, 441793, Note_on_c, 0, 32, 0
1, 441800, Note_on_c, 0, 44, 0
1, 441815, Control_c, 0, 64, 120
1, 441899, Note_on_c, 0, 60, 70
1, 441920, Note_on_c, 0, 57, 48
1, 441933, Note_on_c, 0, 45, 43
1, 441944, Control_c, 0, 64, 113
1, 441945, Note_on_c, 0, 33, 41
1, 441946, Note_on_c, 0, 52, 43
1, 441952, Note_on_c, 0, 62, 0
1, 441960, Control_c, 0, 64, 89
1, 441981, Control_c, 0, 64, 56
1, 441998, Control_c, 0, 64, 23
1, 442070, Control_c, 0, 64, 37
1, 442088, Control_c, 0, 64, 60
1, 442100, Note_on_c, 0, 57, 0
1, 442107, Control_c, 0, 64, 78
1, 442124, Control_c, 0, 64, 91
1, 442143, Control_c, 0, 64, 101
1, 442145, Note_on_c, 0, 52, 0
1, 442161, Control_c, 0, 64, 106
1, 442216, Control_c, 0, 64, 111
1, 442234, Control_c, 0, 67, 8
1, 442290, Control_c, 0, 64, 115
1, 442375, Note_on_c, 0, 45, 0
1, 442411, Note_on_c, 0, 59, 59
1, 442433, Note_on_c, 0, 40, 42
1, 442437, Note_on_c, 0, 56, 32
1, 442454, Note_on_c, 0, 50, 41
1, 442493, Control_c, 0, 67, 12
1, 442497, Note_on_c, 0, 60, 0
1, 442509, Control_c, 0, 64, 110
1, 442522, Note_on_c, 0, 33, 0
1, 442527, Control_c, 0, 64, 89
1, 442547, Control_c, 0, 64, 51
1, 442548, Control_c, 0, 67, 16
1, 442566, Control_c, 0, 64, 0
1, 442602, Control_c, 0, 67, 21
1, 442657, Control_c, 0, 67, 26
1, 442675, Control_c, 0, 64, 32
1, 442695, Control_c, 0, 64, 55
1, 442698, Control_c, 0, 67, 31
1, 442714, Control_c, 0, 64, 73
1, 442732, Control_c, 0, 64, 83
1, 442751, Control_c, 0, 64, 93
1, 442769, Control_c, 0, 64, 101
1, 442770, Control_c, 0, 67, 35
1, 442788, Control_c, 0, 64, 106
1, 442797, Poly_aftertouch_c, 0, 50, 24
1, 442807, Control_c, 0, 64, 111
1, 442807, Control_c, 0, 67, 41
1, 442823, Note_on_c, 0, 56, 0
1, 442823, Control_c, 0, 67, 45
1, 442845, Control_c, 0, 64, 117
1, 442846, Control_c, 0, 67, 50
1, 442860, Note_on_c, 0, 50, 0
1, 442860, Poly_aftertouch_c, 0, 50, 0
1, 442861, Poly_aftertouch_c, 0, 50, 0
1, 442861, Control_c, 0, 67, 56
1, 442879, Control_c, 0, 67, 63
1, 442897, Control_c, 0, 64, 122
1, 442898, Control_c, 0, 67, 72
1, 442916, Control_c, 0, 67, 82
1, 442931, Note_on_c, 0, 40, 0
1, 442933, Control_c, 0, 67, 90
1, 442953, Control_c, 0, 67, 98
1, 442987, Control_c, 0, 64, 126
1, 442990, Control_c, 0, 67, 105
1, 443006, Control_c, 0, 67, 113
1, 443024, Control_c, 0, 67, 122
1, 443042, Control_c, 0, 67, 127
1, 443387, Note_on_c, 0, 57, 37
1, 443428, Note_on_c, 0, 48, 33
1, 443436, Note_on_c, 0, 41, 28
1, 443501, Control_c, 0, 64, 117
1, 443518, Note_on_c, 0, 59, 0
1, 443518, Control_c, 0, 64, 93
1, 443538, Control_c, 0, 64, 56
1, 443556, Control_c, 0, 64, 0
1, 443667, Control_c, 0, 64, 19
1, 443686, Control_c, 0, 64, 43
1, 443705, Control_c, 0, 64, 66
1, 443723, Control_c, 0, 64, 80
1, 443742, Control_c, 0, 64, 93
1, 443752, Poly_aftertouch_c, 0, 48, 24
1, 443758, Control_c, 0, 64, 103
1, 443778, Control_c, 0, 64, 109
1, 443796, Control_c, 0, 64, 113
1, 443808, Note_on_c, 0, 48, 0
1, 443808, Poly_aftertouch_c, 0, 41, 24
1, 443808, Poly_aftertouch_c, 0, 48, 0
1, 443814, Control_c, 0, 64, 118
1, 443832, Control_c, 0, 64, 125
1, 443846, Note_on_c, 0, 41, 0
1, 443846, Poly_aftertouch_c, 0, 41, 0
1, 443928, Note_on_c, 0, 57, 0
1, 443978, Control_c, 0, 67, 120
1, 443996, Control_c, 0, 67, 110
1, 444014, Control_c, 0, 67, 94
1, 444031, Control_c, 0, 67, 73
1, 444051, Control_c, 0, 67, 49
1, 444068, Control_c, 0, 67, 24
1, 444104, Control_c, 0, 67, 0
1, 444388, Note_on_c, 0, 71, 55
1, 444418, Note_on_c, 0, 55, 36
1, 444437, Note_on_c, 0, 65, 37
1, 444447, Note_on_c, 0, 50, 44
1, 444453, Note_on_c, 0, 59, 36
1, 444454, Note_on_c, 0, 53, 31
1, 444528, Control_c, 0, 64, 110
1, 444546, Control_c, 0, 64, 82
1, 444566, Control_c, 0, 64, 57
1, 444585, Control_c, 0, 64, 48
1, 444620, Control_c, 0, 64, 59
1, 444638, Control_c, 0, 64, 71
1, 444658, Control_c, 0, 64, 83
1, 444676, Control_c, 0, 64, 96
1, 444695, Control_c, 0, 64, 106
1, 444714, Control_c, 0, 64, 111
1, 444750, Control_c, 0, 64, 115
1, 444772, Poly_aftertouch_c, 0, 67, 24
1, 444786, Control_c, 0, 64, 120
1, 444824, Note_on_c, 0, 59, 0
1, 444824, Control_c, 0, 64, 124
1, 444869, Poly_aftertouch_c, 0, 67, 0
1, 444870, Note_on_c, 0, 50, 0
1, 444886, Note_on_c, 0, 65, 0
1, 444939, Note_on_c, 0, 55, 0
1, 444949, Note_on_c, 0, 53, 0
1, 444992, Note_on_c, 0, 71, 0
1, 445305, Note_on_c, 0, 72, 69
1, 445356, Note_on_c, 0, 60, 52
1, 445359, Note_on_c, 0, 52, 50
1, 445360, Note_on_c, 0, 67, 45
1, 445363, Note_on_c, 0, 55, 27
1, 445391, Control_c, 0, 64, 93
1, 445409, Control_c, 0, 64, 64
1, 445430, Control_c, 0, 64, 52
1, 445447, Control_c, 0, 64, 56
1, 445463, Control_c, 0, 64, 69
1, 445472, Note_on_c, 0, 52, 0
1, 445477, Note_on_c, 0, 67, 0
1, 445482, Control_c, 0, 64, 86
1, 445501, Control_c, 0, 64, 108
1, 445521, Control_c, 0, 64, 127
1, 445533, Note_on_c, 0, 55, 0
1, 445534, Note_on_c, 0, 60, 0
1, 445540, Note_on_c, 0, 72, 0
1, 445742, Note_on_c, 0, 74, 84
1, 445756, Note_on_c, 0, 62, 60
1, 445760, Control_c, 0, 64, 115
1, 445789, Note_on_c, 0, 72, 53
1, 445793, Control_c, 0, 64, 69
1, 445797, Note_on_c, 0, 57, 47
1, 445800, Note_on_c, 0, 69, 52
1, 445812, Control_c, 0, 64, 0
1, 445814, Note_on_c, 0, 53, 27
1, 445866, Control_c, 0, 64, 32
1, 445882, Note_on_c, 0, 53, 0
1, 445885, Control_c, 0, 64, 64
1, 445892, Note_on_c, 0, 72, 0
1, 445892, Note_on_c, 0, 72, 7
1, 445904, Control_c, 0, 64, 92
1, 445914, Note_on_c, 0, 57, 0
1, 445915, Note_on_c, 0, 72, 0
1, 445921, Control_c, 0, 64, 122
1, 445935, Note_on_c, 0, 69, 0
1, 445938, Control_c, 0, 64, 127
1, 445979, Note_on_c, 0, 74, 0
1, 446312, Note_on_c, 0, 76, 80
1, 446324, Note_on_c, 0, 64, 46
1, 446326, Note_on_c, 0, 55, 45
1, 446351, Note_on_c, 0, 72, 45
1, 446363, Note_on_c, 0, 60, 42
1, 446370, Note_on_c, 0, 62, 0
1, 446375, Note_on_c, 0, 67, 40
1, 446418, Control_c, 0, 64, 99
1, 446438, Control_c, 0, 64, 53
1, 446456, Control_c, 0, 64, 0
1, 446565, Control_c, 0, 64, 34
1, 446585, Control_c, 0, 64, 59
1, 446603, Control_c, 0, 64, 77
1, 446623, Control_c, 0, 64, 91
1, 446639, Control_c, 0, 64, 104
1, 446658, Control_c, 0, 64, 110
1, 446695, Control_c, 0, 64, 116
1, 446766, Control_c, 0, 64, 121
1, 446780, Note_on_c, 0, 72, 0
1, 446784, Control_c, 0, 67, 9
1, 446831, Note_on_c, 0, 60, 0
1, 446838, Control_c, 0, 67, 15
1, 446875, Control_c, 0, 67, 20
1, 446913, Control_c, 0, 67, 28
1, 446930, Control_c, 0, 67, 33
1, 446970, Control_c, 0, 67, 38
1, 447006, Control_c, 0, 67, 43
1, 447025, Control_c, 0, 67, 48
1, 447042, Control_c, 0, 67, 56
1, 447060, Control_c, 0, 67, 63
1, 447080, Control_c, 0, 67, 70
1, 447098, Control_c, 0, 67, 76
1, 447114, Control_c, 0, 67, 82
1, 447133, Control_c, 0, 67, 89
1, 447151, Control_c, 0, 67, 97
1, 447171, Control_c, 0, 67, 103
1, 447189, Control_c, 0, 67, 107
1, 447208, Note_on_c, 0, 64, 0
1, 447228, Control_c, 0, 67, 111
1, 447262, Control_c, 0, 67, 116
1, 447299, Control_c, 0, 67, 120
1, 447405, Note_on_c, 0, 74, 48
1, 447421, Note_on_c, 0, 71, 35
1, 447430, Note_on_c, 0, 62, 38
1, 447445, Note_on_c, 0, 59, 37
1, 447465, Control_c, 0, 64, 115
1, 447466, Control_c, 0, 67, 124
1, 447471, Note_on_c, 0, 76, 0
1, 447482, Control_c, 0, 64, 96
1, 447502, Control_c, 0, 64, 63
1, 447521, Control_c, 0, 64, 0
1, 447630, Control_c, 0, 64, 24
1, 447662, Control_c, 0, 64, 43
1, 447672, Poly_aftertouch_c, 0, 67, 24
1, 447681, Control_c, 0, 64, 67
1, 447701, Control_c, 0, 64, 81
1, 447701, Control_c, 0, 67, 118
1, 447718, Control_c, 0, 64, 90
1, 447723, Note_on_c, 0, 67, 0
1, 447723, Poly_aftertouch_c, 0, 67, 0
1, 447737, Control_c, 0, 64, 96
1, 447738, Control_c, 0, 67, 113
1, 447743, Poly_aftertouch_c, 0, 55, 24
1, 447752, Note_on_c, 0, 74, 0
1, 447756, Control_c, 0, 64, 100
1, 447775, Control_c, 0, 67, 109
1, 447794, Control_c, 0, 64, 106
1, 447795, Control_c, 0, 67, 105
1, 447803, Note_on_c, 0, 55, 0
1, 447803, Poly_aftertouch_c, 0, 55, 0
1, 447812, Control_c, 0, 67, 96
1, 447818, Note_on_c, 0, 71, 0
1, 447830, Control_c, 0, 64, 111
1, 447831, Control_c, 0, 67, 84
1, 447847, Control_c, 0, 67, 70
1, 447867, Control_c, 0, 67, 55
1, 447886, Control_c, 0, 64, 116
1, 447887, Control_c, 0, 67, 41
1, 447891, Note_on_c, 0, 59, 0
1, 447904, Control_c, 0, 67, 29
1, 447923, Control_c, 0, 64, 121
1, 447925, Control_c, 0, 67, 19
1, 447935, Note_on_c, 0, 62, 0
1, 447941, Control_c, 0, 67, 9
1, 447961, Control_c, 0, 64, 127
1, 448005, Note_on_c, 0, 79, 66
1, 448013, Control_c, 0, 67, 0
1, 448233, Note_on_c, 0, 77, 67
1, 448274, Note_on_c, 0, 79, 0
1, 448491, Note_on_c, 0, 76, 68
1, 448506, Note_on_c, 0, 72, 52
1, 448548, Control_c, 0, 64, 102
1, 448554, Note_on_c, 0, 77, 0
1, 448566, Control_c, 0, 64, 71
1, 448600, Control_c, 0, 64, 47
1, 448621, Control_c, 0, 64, 44
1, 448637, Control_c, 0, 64, 46
1, 448657, Control_c, 0, 64, 58
1, 448673, Control_c, 0, 64, 71
1, 448693, Control_c, 0, 64, 83
1, 448710, Control_c, 0, 64, 96
1, 448729, Control_c, 0, 64, 108
1, 448746, Control_c, 0, 64, 116
1, 448803, Control_c, 0, 64, 120
1, 448931, Control_c, 0, 64, 111
1, 448950, Control_c, 0, 64, 91
1, 448951, Note_on_c, 0, 88, 80
1, 448969, Control_c, 0, 64, 67
1, 448971, Control_c, 0, 67, 8
1, 448985, Control_c, 0, 64, 57
1, 448990, Note_on_c, 0, 84, 44
1, 449004, Control_c, 0, 64, 61
1, 449022, Control_c, 0, 64, 72
1, 449043, Control_c, 0, 64, 88
1, 449058, Control_c, 0, 64, 107
1, 449077, Control_c, 0, 64, 120
1, 449078, Note_on_c, 0, 84, 0
1, 449115, Control_c, 0, 64, 124
1, 449116, Note_on_c, 0, 72, 0
1, 449371, Note_on_c, 0, 86, 78
1, 449387, Note_on_c, 0, 83, 50
1, 449393, Control_c, 0, 64, 108
1, 449411, Control_c, 0, 64, 80
1, 449413, Note_on_c, 0, 74, 51
1, 449428, Control_c, 0, 64, 57
1, 449431, Note_on_c, 0, 71, 35
1, 449440, Note_on_c, 0, 88, 0
1, 449444, Control_c, 0, 64, 52
1, 449447, Note_on_c, 0, 77, 27
1, 449463, Note_on_c, 0, 68, 23
1, 449465, Control_c, 0, 64, 57
1, 449484, Control_c, 0, 64, 70
1, 449501, Control_c, 0, 64, 83
1, 449505, Note_on_c, 0, 76, 0
1, 449536, Control_c, 0, 64, 98
1, 449554, Note_on_c, 0, 83, 0
1, 449555, Control_c, 0, 64, 110
1, 449573, Control_c, 0, 64, 114
1, 449616, Note_on_c, 0, 77, 0
1, 449617, Poly_aftertouch_c, 0, 77, 0
1, 449629, Note_on_c, 0, 68, 0
1, 449648, Note_on_c, 0, 71, 0
1, 449664, Control_c, 0, 64, 118
1, 449739, Control_c, 0, 64, 122
1, 449822, Note_on_c, 0, 84, 80
1, 449843, Note_on_c, 0, 69, 48
1, 449844, Note_on_c, 0, 72, 53
1, 449847, Note_on_c, 0, 81, 53
1, 449848, Control_c, 0, 64, 105
1, 449854, Note_on_c, 0, 74, 0
1, 449867, Control_c, 0, 64, 78
1, 449880, Note_on_c, 0, 76, 43
1, 449884, Control_c, 0, 64, 48
1, 449895, Note_on_c, 0, 86, 0
1, 449904, Control_c, 0, 64, 32
1, 449941, Control_c, 0, 64, 36
1, 449958, Control_c, 0, 64, 56
1, 449977, Control_c, 0, 64, 74
1, 449983, Note_on_c, 0, 81, 0
1, 449987, Note_on_c, 0, 69, 0
1, 449996, Control_c, 0, 64, 88
1, 450015, Control_c, 0, 64, 100
1, 450034, Control_c, 0, 64, 106
1, 450068, Note_on_c, 0, 76, 0
1, 450383, Note_on_c, 0, 83, 65
1, 450424, Note_on_c, 0, 64, 36
1, 450431, Note_on_c, 0, 80, 46
1, 450432, Note_on_c, 0, 71, 39
1, 450446, Note_on_c, 0, 68, 34
1, 450463, Note_on_c, 0, 74, 26
1, 450470, Note_on_c, 0, 72, 0
1, 450486, Note_on_c, 0, 84, 0
1, 450525, Control_c, 0, 64, 96
1, 450544, Control_c, 0, 64, 72
1, 450562, Control_c, 0, 64, 36
1, 450582, Control_c, 0, 64, 0
1, 450655, Control_c, 0, 64, 23
1, 450673, Control_c, 0, 64, 47
1, 450692, Control_c, 0, 64, 69
1, 450711, Control_c, 0, 64, 83
1, 450713, Control_c, 0, 67, 14
1, 450729, Control_c, 0, 64, 94
1, 450749, Control_c, 0, 64, 101
1, 450750, Control_c, 0, 67, 20
1, 450780, Note_on_c, 0, 80, 0
1, 450782, Control_c, 0, 67, 26
1, 450802, Control_c, 0, 64, 106
1, 450804, Control_c, 0, 67, 31
1, 450815, Poly_aftertouch_c, 0, 74, 24
1, 450819, Control_c, 0, 67, 36
1, 450841, Control_c, 0, 67, 40
1, 450852, Note_on_c, 0, 74, 0
1, 450852, Poly_aftertouch_c, 0, 74, 0
1, 450853, Poly_aftertouch_c, 0, 74, 0
1, 450857, Control_c, 0, 67, 44
1, 450859, Note_on_c, 0, 68, 0
1, 450875, Control_c, 0, 67, 49
1, 450895, Control_c, 0, 64, 110
1, 450896, Control_c, 0, 67, 55
1, 450913, Control_c, 0, 67, 62
1, 450930, Control_c, 0, 67, 69
1, 450949, Control_c, 0, 67, 76
1, 450967, Control_c, 0, 67, 82
1, 450987, Control_c, 0, 67, 87
1, 451005, Control_c, 0, 67, 93
1, 451022, Control_c, 0, 67, 98
1, 451042, Control_c, 0, 67, 104
1, 451060, Control_c, 0, 67, 110
1, 451078, Control_c, 0, 67, 116
1, 451115, Control_c, 0, 67, 121
1, 451153, Control_c, 0, 67, 126
1, 451473, Note_on_c, 0, 81, 48
1, 451480, Poly_aftertouch_c, 0, 71, 24
1, 451505, Note_on_c, 0, 69, 31
1, 451517, Note_on_c, 0, 72, 17
1, 451537, Poly_aftertouch_c, 0, 64, 24
1, 451539, Note_on_c, 0, 65, 26
1, 451540, Note_on_c, 0, 71, 0
1, 451540, Poly_aftertouch_c, 0, 71, 0
1, 451572, Control_c, 0, 64, 102
1, 451581, Note_on_c, 0, 83, 0
1, 451590, Control_c, 0, 64, 83
1, 451591, Note_on_c, 0, 64, 0
1, 451591, Poly_aftertouch_c, 0, 64, 0
1, 451609, Control_c, 0, 64, 53
1, 451629, Control_c, 0, 64, 0
1, 451720, Control_c, 0, 64, 8
1, 451738, Control_c, 0, 64, 39
1, 451757, Control_c, 0, 64, 62
1, 451775, Control_c, 0, 64, 78
1, 451795, Control_c, 0, 64, 90
1, 451796, Control_c, 0, 67, 119
1, 451811, Control_c, 0, 64, 100
1, 451812, Control_c, 0, 67, 112
1, 451829, Control_c, 0, 64, 105
1, 451830, Poly_aftertouch_c, 0, 72, 24
1, 451831, Control_c, 0, 67, 101
1, 451849, Control_c, 0, 67, 86
1, 451868, Control_c, 0, 64, 109
1, 451869, Control_c, 0, 67, 70
1, 451886, Control_c, 0, 67, 53
1, 451904, Control_c, 0, 67, 37
1, 451905, Note_on_c, 0, 72, 0
1, 451905, Poly_aftertouch_c, 0, 72, 0
1, 451924, Control_c, 0, 67, 21
1, 451940, Control_c, 0, 64, 114
1, 451956, Note_on_c, 0, 69, 0
1, 451977, Control_c, 0, 67, 0
1, 451994, Note_on_c, 0, 65, 0
1, 452013, Control_c, 0, 64, 118
1, 452179, Control_c, 0, 64, 122
1, 452309, Control_c, 0, 64, 127
1, 452490, Note_on_c, 0, 79, 57
1, 452500, Note_on_c, 0, 64, 41
1, 452515, Note_on_c, 0, 55, 39
1, 452529, Note_on_c, 0, 72, 31
1, 452535, Note_on_c, 0, 76, 36
1, 452543, Note_on_c, 0, 60, 40
1, 452581, Control_c, 0, 64, 112
1, 452599, Control_c, 0, 64, 79
1, 452618, Control_c, 0, 64, 42
1, 452636, Control_c, 0, 64, 25
1, 452648, Note_on_c, 0, 81, 0
1, 452674, Control_c, 0, 64, 40
1, 452692, Control_c, 0, 64, 63
1, 452711, Control_c, 0, 64, 80
1, 452717, Note_on_c, 0, 72, 0
1, 452717, Note_on_c, 0, 76, 0
1, 452730, Control_c, 0, 64, 95
1, 452747, Control_c, 0, 64, 106
1, 452756, Note_on_c, 0, 64, 0
1, 452766, Control_c, 0, 64, 111
1, 452802, Control_c, 0, 64, 118
1, 452820, Control_c, 0, 64, 122
1, 452841, Control_c, 0, 64, 126
1, 453004, Note_on_c, 0, 77, 64
1, 453005, Note_on_c, 0, 62, 56
1, 453014, Note_on_c, 0, 60, 0
1, 453023, Note_on_c, 0, 74, 44
1, 453037, Note_on_c, 0, 65, 46
1, 453058, Control_c, 0, 64, 116
1, 453077, Control_c, 0, 64, 74
1, 453096, Control_c, 0, 64, 0
1, 453152, Control_c, 0, 64, 17
1, 453170, Control_c, 0, 64, 47
1, 453187, Control_c, 0, 64, 75
1, 453206, Control_c, 0, 64, 93
1, 453224, Control_c, 0, 64, 110
1, 453243, Control_c, 0, 64, 115
1, 453313, Control_c, 0, 64, 119
1, 453369, Control_c, 0, 64, 123
1, 453551, Control_c, 0, 67, 8
1, 453553, Note_on_c, 0, 81, 67
1, 453591, Control_c, 0, 64, 119
1, 453608, Control_c, 0, 64, 88
1, 453627, Control_c, 0, 64, 37
1, 453639, Note_on_c, 0, 79, 0
1, 453645, Control_c, 0, 64, 0
1, 453662, Control_c, 0, 67, 13
1, 453700, Control_c, 0, 64, 37
1, 453701, Control_c, 0, 67, 19
1, 453719, Control_c, 0, 64, 65
1, 453720, Control_c, 0, 67, 23
1, 453738, Control_c, 0, 64, 85
1, 453740, Control_c, 0, 67, 28
1, 453756, Control_c, 0, 64, 101
1, 453757, Control_c, 0, 67, 32
1, 453775, Control_c, 0, 64, 109
1, 453776, Control_c, 0, 67, 37
1, 453795, Control_c, 0, 67, 43
1, 453802, Note_on_c, 0, 81, 0
1, 453810, Control_c, 0, 67, 50
1, 453828, Control_c, 0, 67, 58
1, 453848, Control_c, 0, 67, 64
1, 453866, Control_c, 0, 67, 69
1, 453884, Control_c, 0, 67, 75
1, 453901, Control_c, 0, 67, 83
1, 453921, Control_c, 0, 67, 91
1, 453939, Control_c, 0, 67, 99
1, 453959, Control_c, 0, 67, 105
1, 453974, Control_c, 0, 67, 111
1, 453994, Control_c, 0, 67, 118
1, 454012, Control_c, 0, 67, 126
1, 454259, Note_on_c, 0, 83, 48
1, 454323, Control_c, 0, 64, 102
1, 454343, Control_c, 0, 64, 97
1, 454358, Control_c, 0, 64, 91
1, 454378, Control_c, 0, 64, 84
1, 454398, Control_c, 0, 64, 78
1, 454414, Control_c, 0, 64, 71
1, 454433, Control_c, 0, 64, 67
1, 454469, Control_c, 0, 64, 66
1, 454506, Control_c, 0, 64, 65
1, 454526, Control_c, 0, 64, 64
1, 454544, Control_c, 0, 64, 63
1, 454599, Control_c, 0, 64, 62
1, 454635, Control_c, 0, 64, 60
1, 454691, Control_c, 0, 64, 58
1, 454729, Control_c, 0, 64, 55
1, 454746, Control_c, 0, 64, 53
1, 454836, Control_c, 0, 64, 58
1, 454856, Control_c, 0, 64, 67
1, 454875, Control_c, 0, 64, 73
1, 454894, Control_c, 0, 64, 80
1, 454910, Control_c, 0, 64, 86
1, 454929, Control_c, 0, 64, 91
1, 454948, Control_c, 0, 64, 95
1, 454967, Note_on_c, 0, 65, 0
1, 454967, Control_c, 0, 64, 99
1, 454985, Control_c, 0, 64, 103
1, 455023, Control_c, 0, 64, 108
1, 455026, Poly_aftertouch_c, 0, 74, 24
1, 455077, Control_c, 0, 64, 112
1, 455080, Note_on_c, 0, 74, 0
1, 455080, Poly_aftertouch_c, 0, 74, 0
1, 455096, Note_on_c, 0, 62, 0
1, 455120, Note_on_c, 0, 83, 0
1, 455186, Note_on_c, 0, 77, 0
1, 455276, Control_c, 0, 64, 116
1, 455283, Note_on_c, 0, 55, 0
1, 455422, Control_c, 0, 64, 121
1, 455480, Control_c, 0, 64, 125
1, 455498, Control_c, 0, 67, 122
1, 455517, Control_c, 0, 67, 115
1, 455534, Control_c, 0, 67, 107
1, 455553, Control_c, 0, 67, 100
1, 455571, Control_c, 0, 67, 93
1, 455590, Control_c, 0, 67, 87
1, 455606, Control_c, 0, 67, 80
1, 455626, Control_c, 0, 67, 73
1, 455644, Control_c, 0, 67, 66
1, 455663, Control_c, 0, 67, 60
1, 455681, Control_c, 0, 67, 55
1, 455701, Control_c, 0, 67, 48
1, 455718, Control_c, 0, 67, 42
1, 455738, Control_c, 0, 67, 35
1, 455756, Control_c, 0, 67, 29
1, 455772, Control_c, 0, 67, 24
1, 455792, Control_c, 0, 67, 18
1, 455810, Control_c, 0, 67, 12
1, 455958, Control_c, 0, 67, 0
1, 456510, Note_on_c, 0, 67, 53
1, 456556, Note_on_c, 0, 64, 38
1, 456558, Note_on_c, 0, 52, 39
1, 456567, Note_on_c, 0, 43, 35
1, 456571, Note_on_c, 0, 60, 40
1, 456609, Note_on_c, 0, 48, 26
1, 456617, Control_c, 0, 64, 99
1, 456635, Control_c, 0, 64, 71
1, 456654, Control_c, 0, 64, 54
1, 456691, Control_c, 0, 64, 60
1, 456708, Control_c, 0, 64, 73
1, 456729, Control_c, 0, 64, 87
1, 456747, Control_c, 0, 64, 105
1, 456765, Control_c, 0, 64, 121
1, 456774, Note_on_c, 0, 64, 0
1, 456781, Control_c, 0, 64, 126
1, 456782, Note_on_c, 0, 52, 0
1, 456814, Note_on_c, 0, 60, 0
1, 457081, Note_on_c, 0, 65, 65
1, 457107, Note_on_c, 0, 62, 50
1, 457108, Note_on_c, 0, 53, 46
1, 457129, Note_on_c, 0, 50, 39
1, 457167, Control_c, 0, 64, 114
1, 457184, Control_c, 0, 64, 87
1, 457191, Note_on_c, 0, 48, 0
1, 457203, Control_c, 0, 64, 51
1, 457220, Control_c, 0, 64, 0
1, 457332, Control_c, 0, 67, 8
1, 457351, Control_c, 0, 64, 14
1, 457369, Control_c, 0, 64, 38
1, 457388, Control_c, 0, 64, 57
1, 457405, Control_c, 0, 64, 71
1, 457423, Control_c, 0, 64, 76
1, 457442, Control_c, 0, 64, 79
1, 457460, Control_c, 0, 64, 81
1, 457498, Control_c, 0, 64, 86
1, 457533, Control_c, 0, 64, 91
1, 457591, Control_c, 0, 64, 96
1, 457644, Control_c, 0, 64, 100
1, 457736, Control_c, 0, 64, 105
1, 457830, Control_c, 0, 64, 109
1, 457831, Control_c, 0, 67, 0
1, 458139, Control_c, 0, 64, 113
1, 458209, Note_on_c, 0, 67, 0
1, 458866, Note_on_c, 0, 68, 66
1, 459203, Control_c, 0, 64, 109
1, 459222, Control_c, 0, 67, 9
1, 459295, Control_c, 0, 64, 105
1, 459296, Control_c, 0, 67, 14
1, 459332, Control_c, 0, 67, 22
1, 459350, Control_c, 0, 67, 27
1, 459386, Control_c, 0, 67, 32
1, 459425, Control_c, 0, 67, 36
1, 459461, Control_c, 0, 67, 42
1, 459465, Note_on_c, 0, 68, 0
1, 459499, Control_c, 0, 67, 47
1, 459535, Control_c, 0, 67, 53
1, 459554, Control_c, 0, 67, 58
1, 459572, Control_c, 0, 67, 62
1, 459590, Control_c, 0, 67, 66
1, 459607, Control_c, 0, 67, 70
1, 459645, Control_c, 0, 67, 77
1, 459682, Control_c, 0, 67, 83
1, 459702, Control_c, 0, 67, 87
1, 459720, Control_c, 0, 67, 92
1, 459736, Control_c, 0, 67, 97
1, 459755, Control_c, 0, 67, 102
1, 459773, Control_c, 0, 67, 106
1, 459793, Control_c, 0, 67, 111
1, 459823, Control_c, 0, 67, 118
1, 459843, Control_c, 0, 67, 124
1, 460228, Note_on_c, 0, 71, 47
1, 460249, Control_c, 0, 64, 101
1, 460322, Control_c, 0, 64, 95
1, 460359, Control_c, 0, 64, 86
1, 460379, Control_c, 0, 64, 81
1, 460397, Control_c, 0, 64, 76
1, 460416, Control_c, 0, 64, 72
1, 460435, Control_c, 0, 64, 70
1, 460451, Control_c, 0, 64, 67
1, 460470, Control_c, 0, 64, 66
1, 460488, Control_c, 0, 64, 65
1, 460543, Control_c, 0, 64, 64
1, 460599, Control_c, 0, 64, 63
1, 460692, Control_c, 0, 64, 62
1, 460910, Control_c, 0, 64, 63
1, 460926, Control_c, 0, 64, 65
1, 460946, Control_c, 0, 64, 68
1, 460964, Control_c, 0, 64, 72
1, 460983, Control_c, 0, 64, 75
1, 460999, Control_c, 0, 64, 78
1, 461019, Control_c, 0, 64, 82
1, 461037, Control_c, 0, 64, 86
1, 461074, Control_c, 0, 64, 91
1, 461077, Poly_aftertouch_c, 0, 53, 24
1, 461111, Control_c, 0, 64, 96
1, 461147, Control_c, 0, 64, 102
1, 461154, Note_on_c, 0, 53, 0
1, 461154, Poly_aftertouch_c, 0, 53, 0
1, 461203, Control_c, 0, 64, 106
1, 461211, Note_on_c, 0, 43, 0
1, 461295, Control_c, 0, 64, 110
1, 461312, Note_on_c, 0, 71, 0
1, 461324, Poly_aftertouch_c, 0, 62, 24
1, 461335, Note_on_c, 0, 50, 0
1, 461359, Note_on_c, 0, 62, 0
1, 461359, Poly_aftertouch_c, 0, 62, 0
1, 461375, Poly_aftertouch_c, 0, 65, 24
1, 461415, Note_on_c, 0, 65, 0
1, 461415, Poly_aftertouch_c, 0, 65, 0
1, 461573, Control_c, 0, 64, 114
1, 461881, Control_c, 0, 64, 118
1, 462650, Control_c, 0, 64, 122
1, 462860, Note_on_c, 0, 55, 45
1, 462898, Note_on_c, 0, 52, 19
1, 462902, Note_on_c, 0, 31, 34
1, 462906, Note_on_c, 0, 40, 37
1, 462917, Note_on_c, 0, 48, 23
1, 462931, Note_on_c, 0, 36, 32
1, 462983, Control_c, 0, 64, 111
1, 463001, Control_c, 0, 64, 91
1, 463019, Control_c, 0, 64, 67
1, 463038, Control_c, 0, 64, 49
1, 463056, Control_c, 0, 64, 47
1, 463091, Control_c, 0, 64, 57
1, 463112, Control_c, 0, 64, 71
1, 463129, Control_c, 0, 64, 83
1, 463148, Control_c, 0, 64, 94
1, 463166, Control_c, 0, 64, 103
1, 463186, Control_c, 0, 64, 108
1, 463194, Note_on_c, 0, 48, 0
1, 463202, Note_on_c, 0, 52, 0
1, 463222, Control_c, 0, 64, 113
1, 463227, Note_on_c, 0, 40, 0
1, 463258, Control_c, 0, 64, 117
1, 463314, Control_c, 0, 64, 121
1, 463519, Note_on_c, 0, 53, 53
1, 463567, Note_on_c, 0, 50, 39
1, 463568, Note_on_c, 0, 38, 42
1, 463574, Note_on_c, 0, 41, 42
1, 463623, Control_c, 0, 64, 113
1, 463641, Control_c, 0, 64, 100
1, 463661, Control_c, 0, 64, 77
1, 463680, Control_c, 0, 64, 47
1, 463693, Note_on_c, 0, 36, 0
1, 463696, Control_c, 0, 64, 10
1, 463716, Control_c, 0, 64, 0
1, 464046, Control_c, 0, 64, 20
1, 464064, Control_c, 0, 64, 30
1, 464083, Control_c, 0, 64, 40
1, 464101, Control_c, 0, 64, 56
1, 464121, Control_c, 0, 64, 69
1, 464138, Control_c, 0, 64, 75
1, 464158, Control_c, 0, 64, 79
1, 464176, Control_c, 0, 64, 82
1, 464194, Control_c, 0, 64, 85
1, 464231, Control_c, 0, 64, 92
1, 464267, Control_c, 0, 64, 98
1, 464323, Control_c, 0, 64, 102
1, 464398, Control_c, 0, 64, 106
1, 464502, Control_c, 0, 64, 111
1, 464634, Control_c, 0, 64, 115
1, 464798, Control_c, 0, 64, 119
1, 464959, Note_on_c, 0, 55, 0
1, 465604, Control_c, 0, 64, 115
1, 465715, Control_c, 0, 64, 110
1, 465881, Control_c, 0, 64, 106
1, 466065, Control_c, 0, 64, 102
1, 466156, Control_c, 0, 64, 98
1, 466182, Note_on_c, 0, 57, 46
1, 466213, Control_c, 0, 64, 93
1, 466286, Control_c, 0, 64, 89
1, 466305, Control_c, 0, 64, 87
1, 466323, Control_c, 0, 64, 85
1, 466374, Control_c, 0, 64, 82
1, 466392, Control_c, 0, 64, 80
1, 466430, Control_c, 0, 64, 77
1, 466467, Control_c, 0, 64, 75
1, 466559, Control_c, 0, 64, 73
1, 466651, Control_c, 0, 64, 71
1, 466707, Control_c, 0, 64, 69
1, 466726, Control_c, 0, 64, 67
1, 466743, Control_c, 0, 64, 66
1, 466780, Control_c, 0, 64, 65
1, 466799, Control_c, 0, 64, 64
1, 466871, Control_c, 0, 64, 66
1, 466890, Control_c, 0, 64, 71
1, 466909, Control_c, 0, 64, 76
1, 466928, Control_c, 0, 64, 81
1, 466946, Control_c, 0, 64, 88
1, 466965, Control_c, 0, 64, 93
1, 466983, Control_c, 0, 64, 98
1, 467001, Control_c, 0, 64, 102
1, 467030, Note_on_c, 0, 57, 0
1, 467037, Control_c, 0, 64, 107
1, 467092, Control_c, 0, 64, 111
1, 467204, Control_c, 0, 64, 115
1, 467624, Control_c, 0, 64, 119
1, 468145, Note_on_c, 0, 59, 42
1, 468245, Control_c, 0, 64, 111
1, 468263, Control_c, 0, 64, 97
1, 468282, Control_c, 0, 64, 76
1, 468301, Control_c, 0, 64, 57
1, 468320, Control_c, 0, 64, 48
1, 468376, Control_c, 0, 64, 54
1, 468394, Control_c, 0, 64, 60
1, 468411, Control_c, 0, 64, 64
1, 468429, Control_c, 0, 64, 66
1, 468449, Control_c, 0, 64, 67
1, 468503, Control_c, 0, 64, 70
1, 468522, Control_c, 0, 64, 72
1, 468540, Control_c, 0, 64, 74
1, 468559, Control_c, 0, 64, 78
1, 468577, Control_c, 0, 64, 81
1, 468597, Control_c, 0, 64, 84
1, 468615, Control_c, 0, 64, 86
1, 468650, Control_c, 0, 64, 91
1, 468687, Control_c, 0, 64, 95
1, 468724, Control_c, 0, 64, 100
1, 468779, Control_c, 0, 64, 105
1, 468836, Control_c, 0, 64, 110
1, 468892, Poly_aftertouch_c, 0, 50, 24
1, 468928, Control_c, 0, 64, 114
1, 468942, Note_on_c, 0, 50, 0
1, 468942, Poly_aftertouch_c, 0, 50, 0
1, 468966, Poly_aftertouch_c, 0, 41, 24
1, 469092, Note_on_c, 0, 41, 0
1, 469092, Poly_aftertouch_c, 0, 41, 0
1, 469110, Control_c, 0, 64, 118
1, 469234, Note_on_c, 0, 31, 0
1, 469347, Control_c, 0, 64, 122
1, 469369, Poly_aftertouch_c, 0, 53, 24
1, 469382, Note_on_c, 0, 38, 0
1, 469426, Note_on_c, 0, 53, 0
1, 469426, Poly_aftertouch_c, 0, 53, 0
1, 469513, Control_c, 0, 64, 126
1, 469515, Note_on_c, 0, 59, 0
1, 470301, Control_c, 0, 64, 109
1, 470321, Control_c, 0, 64, 76
1, 470339, Control_c, 0, 64, 26
1, 470356, Control_c, 0, 64, 0
1, 470388, Note_on_c, 0, 36, 49
1, 470391, Note_on_c, 0, 60, 54
1, 470393, Control_c, 0, 64, 19
1, 470396, Note_on_c, 0, 52, 50
1, 470412, Control_c, 0, 64, 48
1, 470414, Note_on_c, 0, 48, 31
1, 470428, Note_on_c, 0, 36, 0
1, 470430, Control_c, 0, 64, 75
1, 470431, Note_on_c, 0, 52, 0
1, 470435, Note_on_c, 0, 60, 0
1, 470449, Control_c, 0, 64, 94
1, 470466, Note_on_c, 0, 48, 0
1, 470467, Control_c, 0, 64, 113
1, 470486, Control_c, 0, 64, 118
1, 470558, Control_c, 0, 64, 123
1, 470595, Control_c, 0, 64, 127
1, 470629, Note_on_c, 0, 64, 59
1, 470633, Note_on_c, 0, 60, 60
1, 470640, Note_on_c, 0, 48, 48
1, 470650, Note_on_c, 0, 55, 42
1, 470672, Note_on_c, 0, 60, 0
1, 470675, Note_on_c, 0, 64, 0
1, 470690, Control_c, 0, 64, 120
1, 470691, Note_on_c, 0, 48, 0
1, 470692, Note_on_c, 0, 55, 0
1, 470707, Control_c, 0, 64, 86
1, 470726, Control_c, 0, 64, 20
1, 470743, Control_c, 0, 64, 0
1, 470800, Note_on_c, 0, 64, 58
1, 470806, Note_on_c, 0, 55, 49
1, 470806, Note_on_c, 0, 60, 52
1, 470807, Note_on_c, 0, 48, 54
1, 470836, Note_on_c, 0, 64, 0
1, 470838, Note_on_c, 0, 60, 0
1, 470843, Note_on_c, 0, 55, 0
1, 470849, Note_on_c, 0, 48, 0
1, 470953, Note_on_c, 0, 64, 53
1, 470959, Note_on_c, 0, 60, 49
1, 470962, Note_on_c, 0, 55, 49
1, 470965, Note_on_c, 0, 48, 48
1, 470994, Note_on_c, 0, 64, 0
1, 470996, Note_on_c, 0, 60, 0
1, 470996, Note_on_c, 0, 55, 0
1, 471002, Note_on_c, 0, 48, 0
1, 471130, Note_on_c, 0, 64, 52
1, 471132, Note_on_c, 0, 60, 49
1, 471136, Note_on_c, 0, 55, 48
1, 471142, Note_on_c, 0, 48, 41
1, 471169, Note_on_c, 0, 55, 0
1, 471172, Note_on_c, 0, 64, 0
1, 471173, Note_on_c, 0, 60, 0
1, 471181, Note_on_c, 0, 48, 0
1, 471283, Note_on_c, 0, 64, 57
1, 471286, Note_on_c, 0, 60, 54
1, 471294, Note_on_c, 0, 55, 47
1, 471301, Note_on_c, 0, 48, 44
1, 471330, Note_on_c, 0, 60, 0
1, 471330, Note_on_c, 0, 55, 0
1, 471331, Note_on_c, 0, 64, 0
1, 471338, Note_on_c, 0, 48, 0
1, 471448, Note_on_c, 0, 55, 49
1, 471448, Note_on_c, 0, 64, 52
1, 471451, Note_on_c, 0, 48, 49
1, 471451, Note_on_c, 0, 60, 47
1, 471480, Note_on_c, 0, 64, 0
1, 471482, Note_on_c, 0, 55, 0
1, 471487, Note_on_c, 0, 48, 0
1, 471487, Note_on_c, 0, 60, 0
1, 471600, Note_on_c, 0, 64, 53
1, 471601, Note_on_c, 0, 60, 49
1, 471607, Note_on_c, 0, 55, 47
1, 471607, Note_on_c, 0, 48, 51
1, 471642, Note_on_c, 0, 64, 0
1, 471642, Note_on_c, 0, 55, 0
1, 471644, Note_on_c, 0, 48, 0
1, 471645, Note_on_c, 0, 60, 0
1, 471751, Note_on_c, 0, 64, 58
1, 471756, Note_on_c, 0, 55, 49
1, 471756, Note_on_c, 0, 48, 54
1, 471757, Note_on_c, 0, 60, 52
1, 471791, Note_on_c, 0, 55, 0
1, 471794, Note_on_c, 0, 64, 0
1, 471796, Note_on_c, 0, 60, 0
1, 471799, Note_on_c, 0, 48, 0
1, 471911, Note_on_c, 0, 55, 49
1, 471911, Note_on_c, 0, 64, 57
1, 471911, Note_on_c, 0, 60, 51
1, 471913, Note_on_c, 0, 48, 52
1, 471943, Note_on_c, 0, 55, 0
1, 471949, Note_on_c, 0, 48, 0
1, 471950, Note_on_c, 0, 60, 0
1, 471952, Note_on_c, 0, 64, 0
1, 472085, Note_on_c, 0, 64, 59
1, 472089, Note_on_c, 0, 55, 46
1, 472091, Note_on_c, 0, 60, 45
1, 472093, Note_on_c, 0, 48, 44
1, 472124, Note_on_c, 0, 55, 0
1, 472128, Note_on_c, 0, 48, 0
1, 472129, Note_on_c, 0, 60, 0
1, 472129, Note_on_c, 0, 64, 0
1, 472239, Note_on_c, 0, 55, 50
1, 472240, Note_on_c, 0, 48, 51
1, 472242, Note_on_c, 0, 64, 58
1, 472242, Note_on_c, 0, 60, 52
1, 472276, Note_on_c, 0, 55, 0
1, 472281, Note_on_c, 0, 48, 0
1, 472287, Note_on_c, 0, 64, 0
1, 472289, Note_on_c, 0, 60, 0
1, 472400, Note_on_c, 0, 60, 58
1, 472403, Note_on_c, 0, 64, 55
1, 472406, Note_on_c, 0, 55, 48
1, 472407, Note_on_c, 0, 48, 48
1, 472444, Note_on_c, 0, 55, 0
1, 472445, Note_on_c, 0, 48, 0
1, 472446, Note_on_c, 0, 60, 0
1, 472446, Note_on_c, 0, 64, 0
1, 472545, Note_on_c, 0, 64, 59
1, 472547, Note_on_c, 0, 60, 55
1, 472561, Note_on_c, 0, 48, 52
1, 472590, Note_on_c, 0, 60, 0
1, 472591, Note_on_c, 0, 64, 0
1, 472596, Note_on_c, 0, 48, 0
1, 472597, Note_on_c, 0, 57, 17
1, 472660, Note_on_c, 0, 57, 0
1, 472698, Note_on_c, 0, 48, 63
1, 472704, Note_on_c, 0, 66, 61
1, 472723, Note_on_c, 0, 62, 42
1, 472738, Note_on_c, 0, 48, 0
1, 472742, Note_on_c, 0, 66, 0
1, 472753, Poly_aftertouch_c, 0, 57, 0
1, 472763, Note_on_c, 0, 62, 0
1, 472841, Note_on_c, 0, 57, 65
1, 472843, Note_on_c, 0, 48, 56
1, 472849, Note_on_c, 0, 66, 62
1, 472854, Note_on_c, 0, 62, 55
1, 472882, Note_on_c, 0, 57, 0
1, 472884, Note_on_c, 0, 62, 0
1, 472886, Note_on_c, 0, 48, 0
1, 472898, Note_on_c, 0, 66, 0
1, 473024, Note_on_c, 0, 55, 53
1, 473025, Note_on_c, 0, 50, 56
1, 473025, Note_on_c, 0, 67, 65
1, 473028, Note_on_c, 0, 47, 51
1, 473053, Note_on_c, 0, 55, 0
1, 473061, Note_on_c, 0, 47, 0
1, 473061, Note_on_c, 0, 50, 0
1, 473116, Note_on_c, 0, 67, 0
1, 473173, Note_on_c, 0, 55, 58
1, 473176, Note_on_c, 0, 47, 58
1, 473177, Note_on_c, 0, 50, 57
1, 473188, Note_on_c, 0, 71, 67
1, 473215, Note_on_c, 0, 55, 0
1, 473219, Note_on_c, 0, 47, 0
1, 473220, Note_on_c, 0, 50, 0
1, 473250, Note_on_c, 0, 69, 64
1, 473252, Note_on_c, 0, 71, 0
1, 473314, Note_on_c, 0, 69, 0
1, 473314, Note_on_c, 0, 67, 67
1, 473329, Note_on_c, 0, 55, 58
1, 473330, Note_on_c, 0, 47, 60
1, 473333, Note_on_c, 0, 50, 57
1, 473355, Note_on_c, 0, 67, 0
1, 473368, Note_on_c, 0, 55, 0
1, 473370, Note_on_c, 0, 47, 0
1, 473375, Note_on_c, 0, 50, 0
1, 473471, Note_on_c, 0, 47, 65
1, 473476, Note_on_c, 0, 50, 61
1, 473478, Note_on_c, 0, 55, 59
1, 473515, Note_on_c, 0, 47, 0
1, 473515, Note_on_c, 0, 55, 0
1, 473518, Note_on_c, 0, 50, 0
1, 473629, Note_on_c, 0, 72, 81
1, 473630, Note_on_c, 0, 55, 73
1, 473642, Note_on_c, 0, 46, 72
1, 473652, Note_on_c, 0, 48, 63
1, 473671, Note_on_c, 0, 55, 0
1, 473684, Note_on_c, 0, 46, 0
1, 473692, Note_on_c, 0, 48, 0
1, 473782, Note_on_c, 0, 72, 0
1, 473792, Note_on_c, 0, 46, 67
1, 473793, Note_on_c, 0, 48, 64
1, 473794, Note_on_c, 0, 55, 73
1, 473810, Note_on_c, 0, 76, 81
1, 473828, Note_on_c, 0, 55, 0
1, 473837, Note_on_c, 0, 46, 0
1, 473846, Note_on_c, 0, 48, 0
1, 473881, Note_on_c, 0, 74, 86
1, 473896, Note_on_c, 0, 76, 0
1, 473951, Control_c, 0, 67, 113
1, 473954, Note_on_c, 0, 55, 72
1, 473958, Note_on_c, 0, 72, 85
1, 473966, Note_on_c, 0, 46, 72
1, 473968, Note_on_c, 0, 74, 0
1, 473969, Control_c, 0, 67, 102
1, 473975, Note_on_c, 0, 48, 69
1, 473989, Control_c, 0, 67, 87
1, 473996, Note_on_c, 0, 55, 0
1, 474007, Note_on_c, 0, 46, 0
1, 474008, Control_c, 0, 67, 68
1, 474013, Note_on_c, 0, 48, 0
1, 474020, Note_on_c, 0, 72, 0
1, 474024, Control_c, 0, 67, 45
1, 474043, Control_c, 0, 67, 22
1, 474097, Control_c, 0, 67, 0
1, 474100, Note_on_c, 0, 55, 83
1, 474106, Note_on_c, 0, 46, 69
1, 474115, Note_on_c, 0, 48, 53
1, 474136, Note_on_c, 0, 55, 0
1, 474149, Note_on_c, 0, 46, 0
1, 474155, Note_on_c, 0, 48, 0
1, 474250, Note_on_c, 0, 53, 82
1, 474254, Note_on_c, 0, 77, 97
1, 474263, Note_on_c, 0, 45, 72
1, 474284, Note_on_c, 0, 53, 0
1, 474290, Note_on_c, 0, 48, 48
1, 474293, Note_on_c, 0, 45, 0
1, 474301, Note_on_c, 0, 47, 16
1, 474302, Note_on_c, 0, 47, 0
1, 474327, Note_on_c, 0, 48, 0
1, 474404, Note_on_c, 0, 45, 76
1, 474405, Note_on_c, 0, 48, 81
1, 474408, Note_on_c, 0, 77, 0
1, 474414, Note_on_c, 0, 53, 72
1, 474433, Note_on_c, 0, 81, 92
1, 474444, Note_on_c, 0, 48, 0
1, 474444, Note_on_c, 0, 53, 0
1, 474448, Note_on_c, 0, 45, 0
1, 474493, Note_on_c, 0, 79, 90
1, 474515, Note_on_c, 0, 81, 0
1, 474560, Note_on_c, 0, 53, 78
1, 474563, Note_on_c, 0, 45, 87
1, 474570, Note_on_c, 0, 48, 80
1, 474571, Note_on_c, 0, 77, 92
1, 474590, Note_on_c, 0, 79, 0
1, 474595, Note_on_c, 0, 53, 0
1, 474597, Note_on_c, 0, 45, 0
1, 474600, Note_on_c, 0, 48, 0
1, 474634, Note_on_c, 0, 77, 0
1, 474712, Note_on_c, 0, 48, 72
1, 474712, Note_on_c, 0, 45, 91
1, 474714, Note_on_c, 0, 53, 87
1, 474747, Note_on_c, 0, 53, 0
1, 474755, Note_on_c, 0, 48, 0
1, 474761, Note_on_c, 0, 45, 0
1, 474888, Note_on_c, 0, 53, 86
1, 474889, Note_on_c, 0, 48, 88
1, 474902, Note_on_c, 0, 89, 103
1, 474908, Control_c, 0, 64, 28
1, 474919, Note_on_c, 0, 53, 0
1, 474921, Note_on_c, 0, 48, 0
1, 474923, Note_on_c, 0, 43, 67
1, 474926, Control_c, 0, 64, 54
1, 474944, Control_c, 0, 64, 69
1, 474952, Note_on_c, 0, 43, 0
1, 474952, Note_on_c, 0, 44, 22
1, 474961, Control_c, 0, 64, 73
1, 474979, Note_on_c, 0, 44, 0
1, 474980, Note_on_c, 0, 88, 100
1, 474982, Note_on_c, 0, 89, 0
1, 474997, Control_c, 0, 64, 75
1, 475064, Note_on_c, 0, 89, 102
1, 475064, Note_on_c, 0, 44, 88
1, 475069, Note_on_c, 0, 32, 80
1, 475073, Note_on_c, 0, 88, 0
1, 475097, Note_on_c, 0, 44, 0
1, 475107, Note_on_c, 0, 32, 0
1, 475142, Note_on_c, 0, 88, 97
1, 475147, Note_on_c, 0, 89, 0
1, 475180, Control_c, 0, 64, 71
1, 475200, Control_c, 0, 64, 61
1, 475206, Note_on_c, 0, 44, 74
1, 475209, Note_on_c, 0, 32, 81
1, 475218, Control_c, 0, 64, 37
1, 475219, Note_on_c, 0, 89, 99
1, 475224, Note_on_c, 0, 88, 0
1, 475238, Control_c, 0, 64, 0
1, 475247, Note_on_c, 0, 32, 0
1, 475250, Note_on_c, 0, 44, 0
1, 475293, Note_on_c, 0, 89, 0
1, 475299, Note_on_c, 0, 88, 97
1, 475365, Note_on_c, 0, 44, 97
1, 475366, Note_on_c, 0, 32, 93
1, 475371, Note_on_c, 0, 89, 96
1, 475376, Note_on_c, 0, 88, 0
1, 475402, Note_on_c, 0, 44, 0
1, 475411, Note_on_c, 0, 32, 0
1, 475454, Note_on_c, 0, 89, 0
1, 475455, Note_on_c, 0, 88, 89
1, 475494, Note_on_c, 0, 88, 0
1, 475548, Note_on_c, 0, 43, 102
1, 475550, Note_on_c, 0, 31, 97
1, 475555, Note_on_c, 0, 89, 105
1, 475600, Note_on_c, 0, 43, 0
1, 475605, Control_c, 0, 64, 79
1, 475614, Note_on_c, 0, 91, 36
1, 475615, Note_on_c, 0, 91, 0
1, 475625, Control_c, 0, 64, 119
1, 475633, Note_on_c, 0, 33, 79
1, 475644, Control_c, 0, 64, 127
1, 475644, Note_on_c, 0, 88, 97
1, 475663, Note_on_c, 0, 31, 0
1, 475707, Note_on_c, 0, 35, 83
1, 475736, Note_on_c, 0, 89, 0
1, 475741, Note_on_c, 0, 86, 93
1, 475765, Note_on_c, 0, 88, 0
1, 475776, Note_on_c, 0, 33, 0
1, 475803, Note_on_c, 0, 36, 89
1, 475815, Note_on_c, 0, 35, 0
1, 475818, Note_on_c, 0, 84, 91
1, 475823, Note_on_c, 0, 86, 0
1, 475844, Control_c, 0, 64, 119
1, 475858, Note_on_c, 0, 38, 77
1, 475869, Note_on_c, 0, 36, 0
1, 475873, Note_on_c, 0, 84, 0
1, 475881, Control_c, 0, 64, 114
1, 475900, Note_on_c, 0, 83, 93
1, 475917, Control_c, 0, 64, 104
1, 475937, Control_c, 0, 64, 95
1, 475945, Note_on_c, 0, 40, 87
1, 475954, Control_c, 0, 64, 85
1, 475957, Note_on_c, 0, 38, 0
1, 475971, Control_c, 0, 64, 76
1, 475979, Note_on_c, 0, 81, 93
1, 475990, Control_c, 0, 64, 71
1, 476024, Note_on_c, 0, 41, 92
1, 476043, Control_c, 0, 64, 69
1, 476053, Note_on_c, 0, 79, 89
1, 476057, Note_on_c, 0, 40, 0
1, 476060, Note_on_c, 0, 83, 0
1, 476063, Control_c, 0, 64, 68
1, 476082, Control_c, 0, 64, 66
1, 476087, Note_on_c, 0, 81, 0
1, 476108, Note_on_c, 0, 43, 82
1, 476109, Note_on_c, 0, 41, 0
1, 476129, Note_on_c, 0, 77, 91
1, 476136, Note_on_c, 0, 79, 0
1, 476137, Control_c, 0, 64, 65
1, 476156, Control_c, 0, 64, 63
1, 476175, Control_c, 0, 64, 60
1, 476182, Note_on_c, 0, 77, 0
1, 476192, Note_on_c, 0, 43, 0
1, 476204, Note_on_c, 0, 45, 89
1, 476205, Note_on_c, 0, 76, 97
1, 476209, Control_c, 0, 64, 57
1, 476248, Control_c, 0, 64, 55
1, 476283, Note_on_c, 0, 74, 94
1, 476294, Note_on_c, 0, 47, 78
1, 476297, Note_on_c, 0, 48, 80
1, 476315, Note_on_c, 0, 76, 0
1, 476335, Note_on_c, 0, 45, 0
1, 476361, Note_on_c, 0, 72, 90
1, 476370, Note_on_c, 0, 74, 0
1, 476384, Note_on_c, 0, 47, 0
1, 476419, Note_on_c, 0, 72, 0
1, 476425, Note_on_c, 0, 48, 0
1, 476430, Note_on_c, 0, 50, 70
1, 476438, Note_on_c, 0, 71, 90
1, 476505, Note_on_c, 0, 50, 0
1, 476511, Note_on_c, 0, 69, 89
1, 476514, Note_on_c, 0, 52, 84
1, 476540, Note_on_c, 0, 71, 0
1, 476580, Note_on_c, 0, 67, 90
1, 476584, Note_on_c, 0, 53, 78
1, 476590, Note_on_c, 0, 69, 0
1, 476629, Note_on_c, 0, 52, 0
1, 476636, Note_on_c, 0, 67, 0
1, 476640, Note_on_c, 0, 55, 88
1, 476653, Note_on_c, 0, 53, 0
1, 476679, Note_on_c, 0, 65, 92
1, 476721, Note_on_c, 0, 55, 0
1, 476721, Note_on_c, 0, 57, 71
1, 476723, Control_c, 0, 64, 39
1, 476742, Control_c, 0, 64, 0
1, 476754, Note_on_c, 0, 64, 92
1, 476761, Note_on_c, 0, 57, 0
1, 476774, Note_on_c, 0, 65, 0
1, 476818, Control_c, 0, 64, 29
1, 476830, Note_on_c, 0, 62, 98
1, 476833, Note_on_c, 0, 53, 98
1, 476835, Note_on_c, 0, 41, 94
1, 476835, Control_c, 0, 64, 57
1, 476853, Note_on_c, 0, 64, 0
1, 476853, Control_c, 0, 64, 82
1, 476871, Control_c, 0, 64, 98
1, 476878, Note_on_c, 0, 53, 0
1, 476887, Note_on_c, 0, 41, 0
1, 476890, Control_c, 0, 64, 102
1, 476897, Note_on_c, 0, 62, 0
1, 476906, Control_c, 0, 64, 90
1, 476926, Control_c, 0, 64, 46
1, 476944, Control_c, 0, 64, 0
1, 477300, Note_on_c, 0, 55, 97
1, 477303, Note_on_c, 0, 79, 101
1, 477305, Note_on_c, 0, 50, 83
1, 477306, Note_on_c, 0, 74, 95
1, 477306, Note_on_c, 0, 43, 87
1, 477307, Note_on_c, 0, 71, 93
1, 477307, Note_on_c, 0, 67, 96
1, 477310, Note_on_c, 0, 47, 74
1, 477350, Control_c, 0, 64, 29
1, 477367, Control_c, 0, 64, 127
1, 477577, Note_on_c, 0, 55, 0
1, 477578, Note_on_c, 0, 43, 0
1, 477582, Note_on_c, 0, 67, 0
1, 477612, Note_on_c, 0, 45, 10
1, 477621, Note_on_c, 0, 71, 0
1, 477622, Note_on_c, 0, 47, 0
1, 477623, Note_on_c, 0, 74, 0
1, 477624, Note_on_c, 0, 79, 0
1, 477625, Note_on_c, 0, 50, 0
1, 477658, Control_c, 0, 64, 84
1, 477677, Control_c, 0, 64, 0
1, 477689, Note_on_c, 0, 45, 0
1, 478508, Note_on_c, 0, 60, 96
1, 478510, Note_on_c, 0, 48, 82
1, 478510, Note_on_c, 0, 55, 84
1, 478511, Note_on_c, 0, 76, 96
1, 478529, Note_on_c, 0, 72, 93
1, 478529, Note_on_c, 0, 67, 89
1, 478532, Note_on_c, 0, 64, 87
1, 478534, Note_on_c, 0, 52, 80
1, 478558, Note_on_c, 0, 60, 0
1, 478565, Note_on_c, 0, 48, 0
1, 478573, Note_on_c, 0, 52, 0
1, 478573, Note_on_c, 0, 55, 0
1, 478577, Note_on_c, 0, 64, 0
1, 478577, Control_c, 0, 64, 45
1, 478592, Note_on_c, 0, 67, 0
1, 478592, Control_c, 0, 64, 127
1, 478627, Note_on_c, 0, 76, 0
1, 478630, Note_on_c, 0, 72, 0
1, 478944, Control_c, 0, 64, 103
1, 478964, Control_c, 0, 64, 19
1, 478981, Control_c, 0, 64, 0
1, 479253, Note_on_c, 0, 55, 98
1, 479253, Note_on_c, 0, 79, 98
1, 479254, Note_on_c, 0, 43, 86
1, 479255, Note_on_c, 0, 50, 87
1, 479256, Note_on_c, 0, 74, 92
1, 479256, Note_on_c, 0, 71, 92
1, 479257, Note_on_c, 0, 67, 95
1, 479261, Note_on_c, 0, 47, 81
1, 479290, Note_on_c, 0, 67, 0
1, 479291, Note_on_c, 0, 55, 0
1, 479298, Note_on_c, 0, 43, 0
1, 479301, Note_on_c, 0, 50, 0
1, 479303, Note_on_c, 0, 47, 0
1, 479309, Control_c, 0, 64, 40
1, 479312, Note_on_c, 0, 71, 0
1, 479331, Control_c, 0, 64, 127
1, 479333, Note_on_c, 0, 74, 0
1, 479343, Note_on_c, 0, 79, 0
1, 479714, Control_c, 0, 64, 102
1, 479732, Control_c, 0, 64, 10
1, 479751, Control_c, 0, 64, 0
1, 480137, Note_on_c, 0, 48, 97
1, 480137, Note_on_c, 0, 76, 94
1, 480138, Note_on_c, 0, 79, 91
1, 480139, Note_on_c, 0, 43, 86
1, 480142, Note_on_c, 0, 84, 101
1, 480143, Note_on_c, 0, 36, 89
1, 480143, Note_on_c, 0, 72, 92
1, 480150, Note_on_c, 0, 40, 79
1, 480192, Control_c, 0, 64, 66
1, 480211, Control_c, 0, 64, 127
1, 480509, Poly_aftertouch_c, 0, 81, 0
1, 480571, Poly_aftertouch_c, 0, 38, 127
1, 480587, Poly_aftertouch_c, 0, 39, 127
1, 480664, Poly_aftertouch_c, 0, 39, 0
1, 480696, Note_on_c, 0, 72, 0
1, 480704, Control_c, 0, 64, 109
1, 480723, Control_c, 0, 64, 44
1, 480737, Note_on_c, 0, 84, 0
1, 480740, Control_c, 0, 64, 0
1, 480745, Note_on_c, 0, 48, 0
1, 480746, Note_on_c, 0, 76, 0
1, 480757, Note_on_c, 0, 36, 0
1, 480758, Note_on_c, 0, 79, 0
1, 480767, Note_on_c, 0, 40, 0
1, 480767, Note_on_c, 0, 43, 0
1, 480778, Poly_aftertouch_c, 0, 38, 0
1, 505158, Control_c, 0, 64, 15
1, 505176, Control_c, 0, 64, 22
1, 505195, Control_c, 0, 64, 27
1, 505214, Control_c, 0, 64, 34
1, 505233, Control_c, 0, 64, 43
1, 505251, Control_c, 0, 64, 54
1, 505270, Control_c, 0, 64, 58
1, 505306, Control_c, 0, 64, 60
1, 505324, Control_c, 0, 64, 61
1, 505362, Control_c, 0, 64, 64
1, 505379, Control_c, 0, 64, 66
1, 505396, Control_c, 0, 64, 68
1, 505416, Control_c, 0, 64, 70
1, 505434, Control_c, 0, 64, 72
1, 505454, Control_c, 0, 64, 74
1, 505471, Control_c, 0, 64, 77
1, 505491, Control_c, 0, 64, 80
1, 505510, Control_c, 0, 64, 84
1, 505527, Control_c, 0, 64, 87
1, 505564, Control_c, 0, 64, 92
1, 505601, Control_c, 0, 64, 97
1, 505640, Control_c, 0, 64, 102
1, 505689, Control_c, 0, 64, 109
1, 505727, Control_c, 0, 64, 117
1, 505746, Control_c, 0, 64, 122
1, 505781, Control_c, 0, 64, 126
1, 507471, Control_c, 0, 67, 8
1, 507598, Control_c, 0, 67, 13
1, 507635, Control_c, 0, 67, 21
1, 507725, Control_c, 0, 67, 25
1, 508186, Control_c, 0, 67, 18
1, 508204, Control_c, 0, 67, 12
1, 508279, Control_c, 0, 67, 0
1, 508496, Control_c, 0, 67, 9
1, 508553, Control_c, 0, 64, 121
1, 508554, Control_c, 0, 67, 14
1, 508570, Control_c, 0, 64, 115
1, 508588, Control_c, 0, 64, 109
1, 508608, Control_c, 0, 64, 101
1, 508626, Control_c, 0, 64, 92
1, 508644, Control_c, 0, 64, 85
1, 508645, Control_c, 0, 67, 18
1, 508660, Control_c, 0, 64, 78
1, 508680, Control_c, 0, 64, 73
1, 508698, Control_c, 0, 64, 71
1, 508774, Control_c, 0, 67, 22
1, 508920, Control_c, 0, 64, 69
1, 508937, Control_c, 0, 64, 67
1, 508957, Control_c, 0, 64, 61
1, 508976, Control_c, 0, 64, 49
1, 508977, Control_c, 0, 67, 26
1, 508993, Control_c, 0, 64, 30
1, 509031, Control_c, 0, 64, 0
1, 509197, Control_c, 0, 64, 15
1, 509214, Control_c, 0, 64, 26
1, 509233, Control_c, 0, 64, 34
1, 509252, Control_c, 0, 64, 43
1, 509269, Control_c, 0, 64, 55
1, 509287, Control_c, 0, 64, 64
1, 509306, Control_c, 0, 64, 68
1, 509325, Control_c, 0, 64, 70
1, 509342, Control_c, 0, 64, 72
1, 509379, Control_c, 0, 64, 76
1, 509398, Control_c, 0, 64, 80
1, 509417, Control_c, 0, 64, 84
1, 509450, Control_c, 0, 64, 89
1, 509469, Control_c, 0, 64, 93
1, 509488, Control_c, 0, 64, 99
1, 509506, Control_c, 0, 64, 103
1, 509561, Control_c, 0, 64, 108
1, 509671, Control_c, 0, 64, 112
1, 510479, Control_c, 0, 67, 21
1, 510515, Control_c, 0, 67, 8
1, 510533, Control_c, 0, 67, 0
1, 511124, Control_c, 0, 67, 8
1, 511177, Control_c, 0, 64, 117
1, 511213, Control_c, 0, 64, 121
1, 511269, Control_c, 0, 64, 125
1, 511289, Control_c, 0, 67, 12
1, 511432, Control_c, 0, 67, 17
1, 511524, Control_c, 0, 67, 21
1, 512224, Control_c, 0, 67, 25
1, 512295, Control_c, 0, 67, 29
1, 512679, Control_c, 0, 64, 121
1, 512755, Control_c, 0, 64, 117
1, 512847, Control_c, 0, 64, 112
1, 512939, Control_c, 0, 64, 108
1, 513103, Control_c, 0, 64, 104
1, 513672, Control_c, 0, 64, 100
1, 514147, Control_c, 0, 64, 105
1, 514258, Control_c, 0, 64, 109
1, 515322, Control_c, 0, 64, 113
1, 515357, Control_c, 0, 64, 118
1, 515377, Control_c, 0, 64, 122
1, 515414, Control_c, 0, 64, 127
1, 515505, Control_c, 0, 67, 33
1, 515948, Control_c, 0, 64, 122
1, 515949, Control_c, 0, 67, 29
1, 516000, Control_c, 0, 64, 117
1, 516018, Control_c, 0, 64, 113
1, 516037, Control_c, 0, 64, 108
1, 516056, Control_c, 0, 64, 103
1, 516072, Control_c, 0, 64, 96
1, 516091, Control_c, 0, 64, 89
1, 516110, Control_c, 0, 64, 85
1, 516129, Control_c, 0, 64, 82
1, 516145, Control_c, 0, 64, 79
1, 516183, Control_c, 0, 64, 76
1, 516220, Control_c, 0, 64, 74
1, 516259, Control_c, 0, 67, 34
1, 516294, Control_c, 0, 67, 39
1, 516312, Control_c, 0, 67, 45
1, 516333, Control_c, 0, 67, 50
1, 516350, Control_c, 0, 67, 55
1, 516365, Control_c, 0, 67, 60
1, 516383, Control_c, 0, 67, 66
1, 516402, Control_c, 0, 67, 73
1, 516421, Control_c, 0, 67, 81
1, 516439, Control_c, 0, 67, 91
1, 516458, Control_c, 0, 67, 100
1, 516478, Control_c, 0, 67, 109
1, 516495, Control_c, 0, 67, 117
1, 516514, Control_c, 0, 67, 122
1, 516550, Control_c, 0, 67, 127
1, 516862, Control_c, 0, 64, 76
1, 516900, Control_c, 0, 64, 79
1, 516933, Control_c, 0, 64, 81
1, 516971, Control_c, 0, 64, 85
1, 517006, Control_c, 0, 64, 88
1, 517098, Control_c, 0, 64, 92
1, 517926, Control_c, 0, 64, 88
1, 519813, Control_c, 0, 64, 86
1, 520442, Control_c, 0, 64, 84
1, 521265, Control_c, 0, 64, 82
1, 521338, Control_c, 0, 64, 80
1, 521413, Control_c, 0, 64, 78
1, 521540, Control_c, 0, 64, 76
1, 521630, Control_c, 0, 64, 74
1, 521722, Control_c, 0, 64, 72
1, 521794, Control_c, 0, 64, 70
1, 521870, Control_c, 0, 64, 68
1, 521906, Control_c, 0, 64, 67
1, 521961, Control_c, 0, 64, 66
1, 522513, Control_c, 0, 64, 65
1, 522694, Control_c, 0, 64, 64
1, 522749, Control_c, 0, 64, 63
1, 522824, Control_c, 0, 64, 62
1, 522878, Control_c, 0, 64, 61
1, 522970, Control_c, 0, 64, 59
1, 523025, Control_c, 0, 64, 57
1, 523247, Control_c, 0, 64, 59
1, 523266, Control_c, 0, 64, 60
1, 523284, Control_c, 0, 64, 61
1, 523303, Control_c, 0, 64, 63
1, 523320, Control_c, 0, 64, 64
1, 523338, Control_c, 0, 64, 66
1, 523357, Control_c, 0, 64, 67
1, 523375, Control_c, 0, 64, 69
1, 523394, Control_c, 0, 64, 71
1, 523430, Control_c, 0, 64, 74
1, 523483, Control_c, 0, 64, 76
1, 523519, Control_c, 0, 64, 79
1, 523539, Control_c, 0, 64, 81
1, 523555, Control_c, 0, 64, 83
1, 523574, Control_c, 0, 64, 85
1, 523612, Control_c, 0, 64, 88
1, 523666, Control_c, 0, 64, 92
1, 523721, Control_c, 0, 64, 96
1, 523778, Control_c, 0, 64, 101
1, 523851, Control_c, 0, 64, 106
1, 523961, Control_c, 0, 64, 110
1, 524219, Control_c, 0, 64, 114
1, 524450, Note_on_c, 0, 41, 30
1, 524456, Note_on_c, 0, 29, 33
1, 524803, Control_c, 0, 64, 107
1, 524823, Control_c, 0, 64, 103
1, 524842, Control_c, 0, 64, 98
1, 524860, Control_c, 0, 64, 90
1, 524880, Control_c, 0, 64, 82
1, 524897, Control_c, 0, 64, 75
1, 524915, Control_c, 0, 64, 72
1, 524970, Control_c, 0, 64, 74
1, 524991, Control_c, 0, 64, 76
1, 525007, Control_c, 0, 64, 78
1, 525043, Control_c, 0, 64, 81
1, 525080, Control_c, 0, 64, 83
1, 525116, Control_c, 0, 64, 86
1, 525135, Control_c, 0, 64, 88
1, 525172, Control_c, 0, 64, 92
1, 525228, Control_c, 0, 64, 96
1, 525353, Control_c, 0, 64, 100
1, 525947, Note_on_c, 0, 48, 42
1, 526590, Note_on_c, 0, 48, 0
1, 526620, Control_c, 0, 64, 104
1, 526878, Control_c, 0, 64, 108
1, 527344, Note_on_c, 0, 48, 40
1, 527672, Note_on_c, 0, 48, 0
1, 527683, Note_on_c, 0, 57, 45
1, 527741, Control_c, 0, 64, 103
1, 527759, Control_c, 0, 64, 97
1, 527776, Control_c, 0, 64, 87
1, 527796, Control_c, 0, 64, 71
1, 527814, Control_c, 0, 64, 52
1, 527831, Control_c, 0, 64, 37
1, 527850, Control_c, 0, 64, 31
1, 527922, Control_c, 0, 64, 39
1, 527942, Control_c, 0, 64, 52
1, 527960, Control_c, 0, 64, 63
1, 527979, Control_c, 0, 64, 68
1, 527997, Control_c, 0, 64, 70
1, 528017, Control_c, 0, 64, 72
1, 528023, Poly_aftertouch_c, 0, 41, 24
1, 528034, Control_c, 0, 64, 75
1, 528054, Control_c, 0, 64, 79
1, 528070, Control_c, 0, 64, 83
1, 528090, Control_c, 0, 64, 87
1, 528158, Control_c, 0, 64, 91
1, 528188, Note_on_c, 0, 41, 0
1, 528188, Poly_aftertouch_c, 0, 41, 0
1, 528271, Control_c, 0, 64, 95
1, 528290, Note_on_c, 0, 29, 0
1, 529176, Note_on_c, 0, 41, 34
1, 529197, Note_on_c, 0, 29, 34
1, 529261, Control_c, 0, 64, 84
1, 529279, Control_c, 0, 64, 64
1, 529297, Control_c, 0, 64, 29
1, 529317, Control_c, 0, 64, 0
1, 529394, Poly_aftertouch_c, 0, 57, 24
1, 529432, Note_on_c, 0, 57, 0
1, 529432, Poly_aftertouch_c, 0, 57, 0
1, 529592, Control_c, 0, 64, 17
1, 529611, Control_c, 0, 64, 31
1, 529628, Control_c, 0, 64, 41
1, 529648, Control_c, 0, 64, 51
1, 529667, Control_c, 0, 64, 61
1, 529686, Control_c, 0, 64, 66
1, 529702, Control_c, 0, 64, 70
1, 529721, Control_c, 0, 64, 72
1, 529759, Control_c, 0, 64, 74
1, 529795, Control_c, 0, 64, 77
1, 529812, Control_c, 0, 64, 79
1, 529832, Control_c, 0, 64, 82
1, 529850, Control_c, 0, 64, 84
1, 529869, Control_c, 0, 64, 87
1, 529924, Control_c, 0, 64, 91
1, 529979, Control_c, 0, 64, 96
1, 530049, Control_c, 0, 64, 100
1, 530454, Control_c, 0, 64, 104
1, 530578, Note_on_c, 0, 57, 48
1, 530675, Control_c, 0, 64, 92
1, 530695, Control_c, 0, 64, 70
1, 530712, Control_c, 0, 64, 33
1, 530730, Control_c, 0, 64, 0
1, 530842, Control_c, 0, 64, 28
1, 530860, Control_c, 0, 64, 43
1, 530877, Control_c, 0, 64, 58
1, 530896, Control_c, 0, 64, 70
1, 530915, Control_c, 0, 64, 77
1, 530933, Control_c, 0, 64, 82
1, 530965, Control_c, 0, 64, 86
1, 531002, Control_c, 0, 64, 90
1, 531040, Control_c, 0, 64, 95
1, 531096, Control_c, 0, 64, 99
1, 531188, Control_c, 0, 64, 103
1, 531245, Note_on_c, 0, 57, 0
1, 531501, Control_c, 0, 64, 107
1, 531943, Note_on_c, 0, 57, 36
1, 532159, Control_c, 0, 64, 102
1, 532235, Control_c, 0, 64, 98
1, 532289, Control_c, 0, 64, 94
1, 532313, Note_on_c, 0, 63, 39
1, 532381, Poly_aftertouch_c, 0, 57, 24
1, 532381, Control_c, 0, 64, 89
1, 532400, Control_c, 0, 64, 86
1, 532420, Control_c, 0, 64, 81
1, 532436, Control_c, 0, 64, 73
1, 532447, Note_on_c, 0, 57, 0
1, 532447, Poly_aftertouch_c, 0, 57, 0
1, 532453, Control_c, 0, 64, 64
1, 532474, Control_c, 0, 64, 57
1, 532493, Control_c, 0, 64, 53
1, 532509, Control_c, 0, 64, 50
1, 532583, Control_c, 0, 64, 52
1, 532601, Control_c, 0, 64, 58
1, 532620, Control_c, 0, 64, 63
1, 532639, Control_c, 0, 64, 66
1, 532657, Control_c, 0, 64, 68
1, 532675, Control_c, 0, 64, 70
1, 532696, Control_c, 0, 64, 72
1, 532713, Control_c, 0, 64, 75
1, 532732, Control_c, 0, 64, 78
1, 532748, Control_c, 0, 64, 81
1, 532768, Control_c, 0, 64, 83
1, 532786, Control_c, 0, 64, 85
1, 532856, Control_c, 0, 64, 87
1, 532938, Poly_aftertouch_c, 0, 63, 24
1, 532967, Poly_aftertouch_c, 0, 41, 24
1, 533140, Note_on_c, 0, 41, 0
1, 533140, Poly_aftertouch_c, 0, 41, 0
1, 533262, Control_c, 0, 64, 85
1, 533316, Control_c, 0, 64, 83
1, 533330, Poly_aftertouch_c, 0, 63, 32
1, 533390, Control_c, 0, 64, 81
1, 533428, Control_c, 0, 64, 79
1, 533463, Control_c, 0, 64, 77
1, 533501, Control_c, 0, 64, 75
1, 533520, Poly_aftertouch_c, 0, 29, 24
1, 533536, Control_c, 0, 64, 73
1, 533574, Control_c, 0, 64, 70
1, 533576, Note_on_c, 0, 29, 0
1, 533576, Poly_aftertouch_c, 0, 29, 0
1, 533611, Control_c, 0, 64, 68
1, 533645, Control_c, 0, 64, 67
1, 533670, Poly_aftertouch_c, 0, 63, 24
1, 533680, Control_c, 0, 64, 66
1, 533719, Control_c, 0, 64, 65
1, 533734, Note_on_c, 0, 63, 0
1, 533734, Poly_aftertouch_c, 0, 63, 0
1, 533735, Poly_aftertouch_c, 0, 63, 0
1, 533767, Control_c, 0, 64, 64
1, 533806, Control_c, 0, 64, 63
1, 533845, Control_c, 0, 64, 62
1, 533880, Control_c, 0, 64, 61
1, 533916, Control_c, 0, 64, 60
1, 533991, Control_c, 0, 64, 58
1, 534083, Control_c, 0, 64, 56
1, 534341, Control_c, 0, 64, 58
1, 534360, Control_c, 0, 64, 62
1, 534377, Control_c, 0, 64, 65
1, 534395, Control_c, 0, 64, 67
1, 534413, Control_c, 0, 64, 70
1, 534433, Control_c, 0, 64, 73
1, 534450, Control_c, 0, 64, 76
1, 534468, Control_c, 0, 64, 80
1, 534487, Control_c, 0, 64, 84
1, 534505, Control_c, 0, 64, 87
1, 534561, Control_c, 0, 64, 92
1, 534599, Control_c, 0, 64, 97
1, 534635, Control_c, 0, 64, 101
1, 534742, Control_c, 0, 64, 105
1, 534835, Control_c, 0, 64, 109
1, 535160, Note_on_c, 0, 64, 38
1, 535183, Note_on_c, 0, 40, 28
1, 535199, Note_on_c, 0, 52, 17
1, 535205, Note_on_c, 0, 56, 29
1, 535313, Control_c, 0, 64, 113
1, 535482, Poly_aftertouch_c, 0, 52, 24
1, 535492, Poly_aftertouch_c, 0, 40, 24
1, 535510, Poly_aftertouch_c, 0, 56, 24
1, 535535, Note_on_c, 0, 52, 0
1, 535535, Poly_aftertouch_c, 0, 52, 0
1, 535559, Note_on_c, 0, 56, 0
1, 535559, Poly_aftertouch_c, 0, 56, 0
1, 535561, Note_on_c, 0, 40, 0
1, 535561, Poly_aftertouch_c, 0, 40, 0
1, 535585, Note_on_c, 0, 64, 0
1, 536450, Note_on_c, 0, 64, 44
1, 536481, Note_on_c, 0, 40, 40
1, 536486, Note_on_c, 0, 52, 29
1, 536497, Note_on_c, 0, 59, 20
1, 536503, Note_on_c, 0, 56, 23
1, 536739, Note_on_c, 0, 52, 0
1, 536752, Poly_aftertouch_c, 0, 40, 24
1, 536790, Note_on_c, 0, 56, 0
1, 536792, Note_on_c, 0, 40, 0
1, 536792, Poly_aftertouch_c, 0, 40, 0
1, 536853, Poly_aftertouch_c, 0, 59, 24
1, 536861, Note_on_c, 0, 64, 0
1, 536903, Note_on_c, 0, 59, 0
1, 536903, Poly_aftertouch_c, 0, 59, 0
1, 537293, Control_c, 0, 64, 109
1, 537862, Note_on_c, 0, 64, 41
1, 537882, Note_on_c, 0, 59, 37
1, 537908, Note_on_c, 0, 56, 23
1, 537923, Note_on_c, 0, 52, 23
1, 537931, Note_on_c, 0, 40, 24
1, 537935, Control_c, 0, 64, 105
1, 537954, Control_c, 0, 64, 98
1, 537971, Control_c, 0, 64, 79
1, 537991, Control_c, 0, 64, 51
1, 538008, Control_c, 0, 64, 0
1, 538138, Control_c, 0, 64, 29
1, 538156, Control_c, 0, 64, 46
1, 538176, Control_c, 0, 64, 64
1, 538194, Control_c, 0, 64, 74
1, 538210, Control_c, 0, 64, 81
1, 538229, Control_c, 0, 64, 84
1, 538248, Control_c, 0, 64, 86
1, 538304, Control_c, 0, 64, 90
1, 539933, Poly_aftertouch_c, 0, 52, 24
1, 540083, Poly_aftertouch_c, 0, 40, 24
1, 540119, Control_c, 0, 64, 87
1, 540123, Note_on_c, 0, 52, 0
1, 540123, Poly_aftertouch_c, 0, 52, 0
1, 540174, Control_c, 0, 64, 84
1, 540194, Control_c, 0, 64, 82
1, 540212, Control_c, 0, 64, 80
1, 540243, Poly_aftertouch_c, 0, 56, 24
1, 540248, Control_c, 0, 64, 77
1, 540285, Control_c, 0, 64, 74
1, 540317, Control_c, 0, 64, 72
1, 540347, Note_on_c, 0, 40, 0
1, 540347, Poly_aftertouch_c, 0, 40, 0
1, 540350, Note_on_c, 0, 56, 0
1, 540350, Poly_aftertouch_c, 0, 56, 0
1, 540355, Control_c, 0, 64, 70
1, 540429, Control_c, 0, 64, 68
1, 540442, Poly_aftertouch_c, 0, 59, 24
1, 540468, Control_c, 0, 64, 66
1, 540504, Control_c, 0, 64, 65
1, 540505, Note_on_c, 0, 59, 0
1, 540505, Poly_aftertouch_c, 0, 59, 0
1, 540516, Note_on_c, 0, 64, 0
1, 540520, Control_c, 0, 64, 64
1, 540540, Control_c, 0, 64, 63
1, 540575, Control_c, 0, 64, 62
1, 540614, Control_c, 0, 64, 61
1, 540669, Control_c, 0, 64, 58
1, 540742, Control_c, 0, 64, 56
1, 540815, Control_c, 0, 64, 54
1, 540871, Control_c, 0, 64, 52
1, 540944, Control_c, 0, 64, 50
1, 541036, Control_c, 0, 64, 48
1, 541253, Control_c, 0, 64, 52
1, 541272, Control_c, 0, 64, 56
1, 541290, Control_c, 0, 64, 59
1, 541310, Control_c, 0, 64, 62
1, 541327, Control_c, 0, 64, 65
1, 541347, Control_c, 0, 64, 68
1, 541365, Control_c, 0, 64, 70
1, 541384, Control_c, 0, 64, 72
1, 541402, Control_c, 0, 64, 75
1, 541421, Control_c, 0, 64, 78
1, 541438, Control_c, 0, 64, 81
1, 541457, Control_c, 0, 64, 83
1, 541476, Control_c, 0, 64, 85
1, 541512, Control_c, 0, 64, 88
1, 541568, Control_c, 0, 64, 93
1, 541660, Control_c, 0, 64, 98
1, 542265, Note_on_c, 0, 52, 34
1, 542275, Note_on_c, 0, 40, 35
1, 543726, Note_on_c, 0, 59, 50
1, 543809, Control_c, 0, 64, 86
1, 543825, Control_c, 0, 64, 67
1, 543843, Control_c, 0, 64, 45
1, 543861, Control_c, 0, 64, 34
1, 543937, Control_c, 0, 64, 46
1, 543955, Control_c, 0, 64, 58
1, 543972, Control_c, 0, 64, 67
1, 543990, Control_c, 0, 64, 72
1, 544010, Control_c, 0, 64, 76
1, 544028, Control_c, 0, 64, 80
1, 544059, Control_c, 0, 64, 83
1, 544079, Control_c, 0, 64, 86
1, 544135, Control_c, 0, 64, 90
1, 544264, Control_c, 0, 64, 94
1, 544375, Control_c, 0, 64, 99
1, 544392, Note_on_c, 0, 59, 0
1, 544503, Control_c, 0, 64, 103
1, 545109, Note_on_c, 0, 59, 46
1, 545216, Note_on_c, 0, 59, 0
1, 545463, Note_on_c, 0, 67, 45
1, 545493, Control_c, 0, 64, 98
1, 545512, Control_c, 0, 64, 87
1, 545531, Control_c, 0, 64, 67
1, 545550, Control_c, 0, 64, 40
1, 545567, Control_c, 0, 64, 12
1, 545587, Control_c, 0, 64, 0
1, 545659, Control_c, 0, 64, 8
1, 545679, Control_c, 0, 64, 33
1, 545695, Control_c, 0, 64, 50
1, 545714, Control_c, 0, 64, 66
1, 545732, Control_c, 0, 64, 75
1, 545752, Control_c, 0, 64, 82
1, 545770, Control_c, 0, 64, 86
1, 545788, Control_c, 0, 64, 88
1, 545826, Control_c, 0, 64, 93
1, 545862, Control_c, 0, 64, 99
1, 545949, Poly_aftertouch_c, 0, 40, 24
1, 546000, Note_on_c, 0, 52, 0
1, 546004, Note_on_c, 0, 40, 0
1, 546004, Poly_aftertouch_c, 0, 40, 0
1, 546870, Note_on_c, 0, 52, 36
1, 546870, Note_on_c, 0, 40, 37
1, 546941, Control_c, 0, 64, 94
1, 546961, Control_c, 0, 64, 76
1, 546966, Poly_aftertouch_c, 0, 67, 24
1, 546979, Control_c, 0, 64, 46
1, 546998, Control_c, 0, 64, 0
1, 547028, Note_on_c, 0, 67, 0
1, 547028, Poly_aftertouch_c, 0, 67, 0
1, 547163, Control_c, 0, 64, 27
1, 547181, Control_c, 0, 64, 35
1, 547200, Control_c, 0, 64, 45
1, 547218, Control_c, 0, 64, 57
1, 547237, Control_c, 0, 64, 67
1, 547254, Control_c, 0, 64, 72
1, 547273, Control_c, 0, 64, 74
1, 547310, Control_c, 0, 64, 77
1, 547327, Control_c, 0, 64, 79
1, 547346, Control_c, 0, 64, 82
1, 547364, Control_c, 0, 64, 85
1, 547382, Control_c, 0, 64, 88
1, 547458, Control_c, 0, 64, 92
1, 547877, Control_c, 0, 64, 96
1, 548240, Note_on_c, 0, 61, 51
1, 548881, Note_on_c, 0, 61, 0
1, 549658, Note_on_c, 0, 61, 38
1, 550055, Note_on_c, 0, 70, 37
1, 550111, Note_on_c, 0, 61, 0
1, 550116, Control_c, 0, 64, 84
1, 550134, Control_c, 0, 64, 66
1, 550153, Control_c, 0, 64, 35
1, 550171, Control_c, 0, 64, 0
1, 550283, Control_c, 0, 64, 22
1, 550301, Control_c, 0, 64, 40
1, 550318, Control_c, 0, 64, 56
1, 550338, Control_c, 0, 64, 69
1, 550356, Control_c, 0, 64, 74
1, 550374, Control_c, 0, 64, 77
1, 550392, Control_c, 0, 64, 79
1, 550410, Control_c, 0, 64, 81
1, 550430, Control_c, 0, 64, 83
1, 550449, Control_c, 0, 64, 85
1, 550467, Control_c, 0, 64, 88
1, 550540, Control_c, 0, 64, 92
1, 550641, Poly_aftertouch_c, 0, 52, 24
1, 550788, Note_on_c, 0, 52, 0
1, 550788, Poly_aftertouch_c, 0, 52, 0
1, 550794, Control_c, 0, 64, 96
1, 551107, Control_c, 0, 64, 91
1, 551109, Poly_aftertouch_c, 0, 40, 24
1, 551161, Control_c, 0, 64, 88
1, 551195, Note_on_c, 0, 40, 0
1, 551195, Poly_aftertouch_c, 0, 40, 0
1, 551198, Control_c, 0, 64, 86
1, 551254, Control_c, 0, 64, 84
1, 551255, Poly_aftertouch_c, 0, 70, 24
1, 551293, Control_c, 0, 64, 79
1, 551309, Control_c, 0, 64, 76
1, 551317, Note_on_c, 0, 70, 0
1, 551317, Poly_aftertouch_c, 0, 70, 0
1, 551328, Control_c, 0, 64, 74
1, 551366, Control_c, 0, 64, 71
1, 551384, Control_c, 0, 64, 69
1, 551402, Control_c, 0, 64, 66
1, 551422, Control_c, 0, 64, 64
1, 551440, Control_c, 0, 64, 63
1, 551457, Control_c, 0, 64, 62
1, 551512, Control_c, 0, 64, 60
1, 551602, Control_c, 0, 64, 58
1, 551712, Control_c, 0, 64, 56
1, 551767, Control_c, 0, 64, 54
1, 551971, Control_c, 0, 64, 59
1, 551988, Control_c, 0, 64, 63
1, 552006, Control_c, 0, 64, 67
1, 552024, Control_c, 0, 64, 69
1, 552042, Control_c, 0, 64, 71
1, 552061, Control_c, 0, 64, 74
1, 552079, Control_c, 0, 64, 77
1, 552096, Control_c, 0, 64, 80
1, 552115, Control_c, 0, 64, 83
1, 552134, Control_c, 0, 64, 85
1, 552171, Control_c, 0, 64, 87
1, 552245, Control_c, 0, 64, 92
1, 552319, Control_c, 0, 64, 96
1, 552411, Control_c, 0, 64, 100
1, 552556, Control_c, 0, 64, 104
1, 552881, Note_on_c, 0, 71, 42
1, 552898, Note_on_c, 0, 51, 26
1, 552899, Note_on_c, 0, 47, 30
1, 552907, Note_on_c, 0, 66, 28
1, 552907, Note_on_c, 0, 39, 32
1, 552923, Note_on_c, 0, 59, 12
1, 552942, Control_c, 0, 64, 108
1, 553088, Control_c, 0, 64, 100
1, 553107, Control_c, 0, 64, 89
1, 553126, Control_c, 0, 64, 74
1, 553144, Control_c, 0, 64, 58
1, 553163, Control_c, 0, 64, 46
1, 553182, Control_c, 0, 64, 37
1, 553273, Control_c, 0, 64, 47
1, 553292, Control_c, 0, 64, 59
1, 553311, Control_c, 0, 64, 66
1, 553328, Control_c, 0, 64, 69
1, 553365, Control_c, 0, 64, 72
1, 553403, Control_c, 0, 64, 76
1, 553434, Control_c, 0, 64, 78
1, 553447, Poly_aftertouch_c, 0, 51, 24
1, 553452, Control_c, 0, 64, 81
1, 553455, Poly_aftertouch_c, 0, 39, 24
1, 553455, Poly_aftertouch_c, 0, 59, 24
1, 553472, Control_c, 0, 64, 83
1, 553490, Poly_aftertouch_c, 0, 47, 24
1, 553499, Note_on_c, 0, 51, 0
1, 553499, Poly_aftertouch_c, 0, 51, 0
1, 553501, Note_on_c, 0, 59, 0
1, 553501, Poly_aftertouch_c, 0, 59, 0
1, 553503, Note_on_c, 0, 39, 0
1, 553503, Poly_aftertouch_c, 0, 39, 0
1, 553508, Control_c, 0, 64, 86
1, 553510, Note_on_c, 0, 71, 0
1, 553536, Note_on_c, 0, 47, 0
1, 553536, Poly_aftertouch_c, 0, 47, 0
1, 553545, Control_c, 0, 64, 88
1, 553549, Note_on_c, 0, 66, 0
1, 553638, Control_c, 0, 64, 92
1, 554199, Note_on_c, 0, 71, 43
1, 554213, Note_on_c, 0, 66, 33
1, 554218, Note_on_c, 0, 59, 27
1, 554222, Note_on_c, 0, 47, 26
1, 554225, Note_on_c, 0, 51, 25
1, 554229, Note_on_c, 0, 39, 22
1, 554263, Control_c, 0, 64, 81
1, 554282, Control_c, 0, 64, 62
1, 554300, Control_c, 0, 64, 32
1, 554319, Control_c, 0, 64, 0
1, 554483, Control_c, 0, 64, 25
1, 554501, Control_c, 0, 64, 43
1, 554518, Control_c, 0, 64, 56
1, 554537, Control_c, 0, 64, 68
1, 554555, Control_c, 0, 64, 73
1, 554574, Control_c, 0, 64, 77
1, 554590, Control_c, 0, 64, 81
1, 554610, Control_c, 0, 64, 85
1, 554628, Control_c, 0, 64, 88
1, 554663, Control_c, 0, 64, 92
1, 554715, Poly_aftertouch_c, 0, 39, 24
1, 554735, Poly_aftertouch_c, 0, 59, 24
1, 554779, Note_on_c, 0, 39, 0
1, 554779, Poly_aftertouch_c, 0, 39, 0
1, 554783, Note_on_c, 0, 59, 0
1, 554783, Poly_aftertouch_c, 0, 59, 0
1, 554788, Note_on_c, 0, 51, 0
1, 554796, Poly_aftertouch_c, 0, 47, 24
1, 554826, Note_on_c, 0, 71, 0
1, 554841, Note_on_c, 0, 47, 0
1, 554841, Poly_aftertouch_c, 0, 47, 0
1, 554894, Note_on_c, 0, 66, 0
1, 554940, Control_c, 0, 64, 96
1, 555658, Note_on_c, 0, 71, 34
1, 555666, Note_on_c, 0, 59, 28
1, 555674, Note_on_c, 0, 66, 26
1, 555680, Note_on_c, 0, 47, 29
1, 555683, Note_on_c, 0, 39, 26
1, 555692, Note_on_c, 0, 51, 19
1, 555748, Control_c, 0, 64, 87
1, 555766, Control_c, 0, 64, 71
1, 555785, Control_c, 0, 64, 44
1, 555803, Control_c, 0, 64, 0
1, 555933, Control_c, 0, 64, 19
1, 555950, Control_c, 0, 64, 40
1, 555970, Control_c, 0, 64, 54
1, 555986, Control_c, 0, 64, 66
1, 556006, Control_c, 0, 64, 72
1, 556023, Control_c, 0, 64, 75
1, 556043, Control_c, 0, 64, 77
1, 556059, Control_c, 0, 64, 80
1, 556079, Control_c, 0, 64, 82
1, 556097, Control_c, 0, 64, 85
1, 556116, Control_c, 0, 64, 88
1, 556260, Control_c, 0, 64, 92
1, 557777, Poly_aftertouch_c, 0, 51, 24
1, 557779, Poly_aftertouch_c, 0, 47, 24
1, 557822, Poly_aftertouch_c, 0, 59, 24
1, 557915, Control_c, 0, 64, 88
1, 557923, Note_on_c, 0, 59, 0
1, 557923, Poly_aftertouch_c, 0, 59, 0
1, 557950, Control_c, 0, 64, 85
1, 557959, Note_on_c, 0, 51, 0
1, 557959, Poly_aftertouch_c, 0, 51, 0
1, 557987, Control_c, 0, 64, 83
1, 558025, Control_c, 0, 64, 79
1, 558043, Control_c, 0, 64, 76
1, 558062, Control_c, 0, 64, 73
1, 558062, Poly_aftertouch_c, 0, 47, 22
1, 558081, Control_c, 0, 64, 71
1, 558150, Control_c, 0, 64, 69
1, 558169, Control_c, 0, 64, 68
1, 558202, Poly_aftertouch_c, 0, 39, 24
1, 558203, Control_c, 0, 64, 67
1, 558222, Note_on_c, 0, 47, 0
1, 558222, Poly_aftertouch_c, 0, 47, 0
1, 558244, Control_c, 0, 64, 66
1, 558279, Control_c, 0, 64, 65
1, 558311, Note_on_c, 0, 39, 0
1, 558311, Poly_aftertouch_c, 0, 39, 0
1, 558333, Control_c, 0, 64, 64
1, 558370, Control_c, 0, 64, 63
1, 558425, Control_c, 0, 64, 62
1, 558469, Note_on_c, 0, 66, 0
1, 558474, Note_on_c, 0, 71, 0
1, 558481, Control_c, 0, 64, 61
1, 558537, Control_c, 0, 64, 60
1, 558629, Control_c, 0, 64, 58
1, 558721, Control_c, 0, 64, 56
1, 558813, Control_c, 0, 64, 54
1, 559158, Control_c, 0, 64, 56
1, 559178, Control_c, 0, 64, 60
1, 559196, Control_c, 0, 64, 64
1, 559215, Control_c, 0, 64, 68
1, 559233, Control_c, 0, 64, 71
1, 559253, Control_c, 0, 64, 73
1, 559269, Control_c, 0, 64, 77
1, 559288, Control_c, 0, 64, 80
1, 559306, Control_c, 0, 64, 83
1, 559326, Control_c, 0, 64, 85
1, 559363, Control_c, 0, 64, 87
1, 559436, Control_c, 0, 64, 92
1, 559508, Control_c, 0, 64, 97
1, 559803, Control_c, 0, 64, 101
1, 560576, Note_on_c, 0, 50, 30
1, 560590, Note_on_c, 0, 38, 35
1, 562122, Note_on_c, 0, 65, 45
1, 562777, Note_on_c, 0, 65, 0
1, 562920, Control_c, 0, 64, 105
1, 563407, Note_on_c, 0, 65, 48
1, 563543, Note_on_c, 0, 65, 0
1, 563751, Note_on_c, 0, 71, 46
1, 563819, Control_c, 0, 64, 97
1, 563836, Control_c, 0, 64, 83
1, 563856, Control_c, 0, 64, 62
1, 563875, Control_c, 0, 64, 31
1, 563892, Control_c, 0, 64, 0
1, 564038, Control_c, 0, 64, 28
1, 564057, Control_c, 0, 64, 40
1, 564076, Control_c, 0, 64, 54
1, 564095, Control_c, 0, 64, 67
1, 564111, Poly_aftertouch_c, 0, 46, 0
1, 564113, Control_c, 0, 64, 74
1, 564132, Control_c, 0, 64, 80
1, 564152, Control_c, 0, 64, 85
1, 564169, Control_c, 0, 64, 89
1, 564205, Control_c, 0, 64, 97
1, 564225, Control_c, 0, 64, 101
1, 564260, Control_c, 0, 64, 106
1, 564317, Note_on_c, 0, 50, 0
1, 565130, Note_on_c, 0, 49, 46
1, 565132, Note_on_c, 0, 37, 50
1, 565197, Note_on_c, 0, 38, 0
1, 565214, Control_c, 0, 64, 96
1, 565232, Control_c, 0, 64, 80
1, 565251, Control_c, 0, 64, 57
1, 565269, Control_c, 0, 64, 25
1, 565289, Control_c, 0, 64, 0
1, 565587, Note_on_c, 0, 71, 0
1, 565855, Control_c, 0, 64, 32
1, 565875, Control_c, 0, 64, 48
1, 565891, Control_c, 0, 64, 65
1, 565909, Control_c, 0, 64, 75
1, 565928, Control_c, 0, 64, 82
1, 565947, Control_c, 0, 64, 87
1, 565967, Control_c, 0, 64, 92
1, 565984, Control_c, 0, 64, 96
1, 566004, Control_c, 0, 64, 100
1, 566041, Control_c, 0, 64, 105
1, 566149, Control_c, 0, 64, 109
1, 566568, Note_on_c, 0, 71, 62
1, 566624, Control_c, 0, 64, 99
1, 566643, Control_c, 0, 64, 72
1, 566662, Control_c, 0, 64, 26
1, 566681, Control_c, 0, 64, 0
1, 566754, Control_c, 0, 64, 32
1, 566772, Control_c, 0, 64, 54
1, 566791, Control_c, 0, 64, 71
1, 566809, Control_c, 0, 64, 82
1, 566829, Control_c, 0, 64, 92
1, 566845, Control_c, 0, 64, 99
1, 566883, Control_c, 0, 67, 112
1, 566902, Control_c, 0, 64, 103
1, 566903, Control_c, 0, 67, 94
1, 566920, Control_c, 0, 67, 69
1, 566940, Control_c, 0, 64, 107
1, 566941, Control_c, 0, 67, 41
1, 566958, Control_c, 0, 67, 15
1, 566977, Control_c, 0, 67, 0
1, 566992, Control_c, 0, 64, 111
1, 567066, Control_c, 0, 64, 115
1, 567140, Control_c, 0, 64, 120
1, 567183, Note_on_c, 0, 71, 0
1, 567269, Control_c, 0, 64, 124
1, 567810, Note_on_c, 0, 71, 62
1, 567918, Note_on_c, 0, 71, 0
1, 568127, Note_on_c, 0, 77, 75
1, 568205, Control_c, 0, 64, 115
1, 568224, Control_c, 0, 64, 90
1, 568241, Control_c, 0, 64, 62
1, 568260, Control_c, 0, 64, 44
1, 568316, Control_c, 0, 64, 58
1, 568336, Control_c, 0, 64, 70
1, 568353, Control_c, 0, 64, 79
1, 568372, Control_c, 0, 64, 86
1, 568404, Control_c, 0, 64, 90
1, 568441, Control_c, 0, 64, 97
1, 568461, Control_c, 0, 64, 101
1, 568496, Control_c, 0, 64, 106
1, 568633, Note_on_c, 0, 49, 0
1, 568644, Control_c, 0, 64, 111
1, 568773, Control_c, 0, 64, 115
1, 568800, Note_on_c, 0, 37, 0
1, 568976, Control_c, 0, 64, 119
1, 569548, Note_on_c, 0, 48, 42
1, 569550, Note_on_c, 0, 36, 43
1, 569670, Control_c, 0, 64, 112
1, 569690, Control_c, 0, 64, 93
1, 569708, Control_c, 0, 64, 61
1, 569727, Control_c, 0, 64, 0
1, 569837, Control_c, 0, 64, 32
1, 569857, Control_c, 0, 64, 53
1, 569872, Control_c, 0, 64, 70
1, 569892, Control_c, 0, 64, 80
1, 569911, Control_c, 0, 64, 88
1, 569930, Control_c, 0, 64, 93
1, 569948, Control_c, 0, 64, 98
1, 569987, Control_c, 0, 64, 103
1, 570041, Control_c, 0, 64, 108
1, 570071, Note_on_c, 0, 48, 0
1, 570196, Note_on_c, 0, 36, 0
1, 570224, Control_c, 0, 64, 112
1, 570461, Poly_aftertouch_c, 0, 77, 24
1, 570506, Note_on_c, 0, 77, 0
1, 570506, Poly_aftertouch_c, 0, 77, 0
1, 570515, Control_c, 0, 67, 8
1, 570606, Control_c, 0, 64, 116
1, 570843, Note_on_c, 0, 76, 66
1, 570896, Note_on_c, 0, 48, 35
1, 570896, Note_on_c, 0, 36, 39
1, 570923, Control_c, 0, 67, 12
1, 570994, Control_c, 0, 64, 108
1, 571013, Control_c, 0, 64, 85
1, 571031, Control_c, 0, 64, 50
1, 571048, Control_c, 0, 64, 0
1, 571123, Control_c, 0, 64, 9
1, 571142, Control_c, 0, 64, 39
1, 571160, Control_c, 0, 64, 60
1, 571179, Control_c, 0, 64, 75
1, 571212, Control_c, 0, 64, 85
1, 571230, Control_c, 0, 64, 93
1, 571232, Control_c, 0, 67, 0
1, 571248, Control_c, 0, 64, 99
1, 571284, Control_c, 0, 64, 105
1, 571377, Control_c, 0, 64, 109
1, 571388, Note_on_c, 0, 48, 0
1, 571459, Note_on_c, 0, 36, 0
1, 571488, Control_c, 0, 64, 113
1, 571709, Control_c, 0, 64, 117
1, 572039, Control_c, 0, 64, 121
1, 572220, Control_c, 0, 64, 125
1, 572300, Note_on_c, 0, 79, 75
1, 572336, Note_on_c, 0, 36, 36
1, 572337, Note_on_c, 0, 48, 34
1, 572384, Note_on_c, 0, 76, 0
1, 572404, Control_c, 0, 64, 105
1, 572406, Control_c, 0, 67, 8
1, 572424, Control_c, 0, 64, 75
1, 572443, Control_c, 0, 64, 43
1, 572459, Control_c, 0, 64, 28
1, 572515, Control_c, 0, 64, 47
1, 572534, Control_c, 0, 64, 66
1, 572553, Control_c, 0, 64, 78
1, 572572, Control_c, 0, 64, 88
1, 572591, Control_c, 0, 64, 98
1, 572607, Control_c, 0, 64, 107
1, 572626, Control_c, 0, 64, 113
1, 572680, Control_c, 0, 64, 118
1, 572728, Note_on_c, 0, 48, 0
1, 572735, Control_c, 0, 64, 122
1, 572792, Control_c, 0, 67, 12
1, 572847, Control_c, 0, 64, 126
1, 572865, Control_c, 0, 67, 16
1, 572919, Note_on_c, 0, 36, 0
1, 572919, Control_c, 0, 67, 21
1, 572957, Control_c, 0, 67, 26
1, 572994, Control_c, 0, 67, 31
1, 573032, Control_c, 0, 67, 36
1, 573082, Control_c, 0, 67, 44
1, 573101, Control_c, 0, 67, 49
1, 573119, Control_c, 0, 67, 53
1, 573154, Control_c, 0, 67, 59
1, 573173, Note_on_c, 0, 79, 0
1, 573192, Control_c, 0, 67, 67
1, 573211, Control_c, 0, 67, 73
1, 573230, Control_c, 0, 67, 78
1, 573249, Control_c, 0, 67, 84
1, 573267, Control_c, 0, 67, 89
1, 573286, Control_c, 0, 67, 95
1, 573306, Control_c, 0, 67, 102
1, 573322, Control_c, 0, 67, 108
1, 573340, Control_c, 0, 67, 115
1, 573361, Control_c, 0, 67, 119
1, 573378, Control_c, 0, 67, 124
1, 574134, Note_on_c, 0, 70, 45
1, 574155, Note_on_c, 0, 64, 34
1, 574181, Note_on_c, 0, 48, 18
1, 574183, Note_on_c, 0, 36, 28
1, 574258, Control_c, 0, 64, 121
1, 574275, Control_c, 0, 64, 111
1, 574296, Control_c, 0, 64, 92
1, 574314, Control_c, 0, 64, 67
1, 574330, Control_c, 0, 64, 46
1, 574349, Control_c, 0, 64, 38
1, 574443, Control_c, 0, 64, 47
1, 574461, Control_c, 0, 64, 58
1, 574479, Control_c, 0, 64, 66
1, 574496, Control_c, 0, 64, 70
1, 574534, Control_c, 0, 64, 73
1, 574569, Control_c, 0, 64, 77
1, 574589, Control_c, 0, 64, 80
1, 574607, Control_c, 0, 64, 82
1, 574644, Control_c, 0, 64, 85
1, 574682, Control_c, 0, 64, 87
1, 574883, Control_c, 0, 64, 91
1, 575230, Control_c, 0, 64, 95
1, 575377, Poly_aftertouch_c, 0, 48, 24
1, 575622, Poly_aftertouch_c, 0, 48, 32
1, 575945, Control_c, 0, 64, 99
1, 576343, Poly_aftertouch_c, 0, 48, 24
1, 576406, Control_c, 0, 64, 95
1, 576478, Control_c, 0, 64, 90
1, 576515, Control_c, 0, 64, 88
1, 576527, Poly_aftertouch_c, 0, 64, 24
1, 576553, Control_c, 0, 64, 85
1, 576588, Control_c, 0, 64, 82
1, 576599, Poly_aftertouch_c, 0, 48, 22
1, 576606, Control_c, 0, 64, 80
1, 576626, Control_c, 0, 64, 78
1, 576661, Control_c, 0, 64, 75
1, 576699, Control_c, 0, 64, 73
1, 576735, Control_c, 0, 64, 71
1, 576763, Note_on_c, 0, 48, 0
1, 576763, Poly_aftertouch_c, 0, 48, 0
1, 576791, Poly_aftertouch_c, 0, 64, 22
1, 576844, Control_c, 0, 64, 69
1, 576882, Control_c, 0, 64, 68
1, 576917, Control_c, 0, 64, 67
1, 576954, Control_c, 0, 64, 66
1, 577010, Control_c, 0, 64, 65
1, 577032, Note_on_c, 0, 64, 0
1, 577032, Poly_aftertouch_c, 0, 64, 0
1, 577049, Control_c, 0, 64, 63
1, 577083, Control_c, 0, 64, 62
1, 577101, Control_c, 0, 64, 61
1, 577107, Poly_aftertouch_c, 0, 36, 24
1, 577120, Control_c, 0, 64, 60
1, 577139, Note_on_c, 0, 36, 0
1, 577139, Poly_aftertouch_c, 0, 36, 0
1, 577185, Note_on_c, 0, 70, 0
1, 577213, Control_c, 0, 64, 58
1, 577357, Control_c, 0, 64, 56
1, 577669, Control_c, 0, 64, 54
1, 578239, Control_c, 0, 64, 52
1, 578646, Control_c, 0, 64, 50
1, 579046, Control_c, 0, 64, 54
1, 579064, Control_c, 0, 64, 58
1, 579084, Control_c, 0, 64, 62
1, 579101, Control_c, 0, 64, 66
1, 579121, Control_c, 0, 64, 68
1, 579157, Control_c, 0, 64, 71
1, 579174, Control_c, 0, 64, 73
1, 579194, Control_c, 0, 64, 76
1, 579212, Control_c, 0, 64, 79
1, 579230, Control_c, 0, 64, 83
1, 579247, Control_c, 0, 64, 85
1, 579266, Control_c, 0, 64, 87
1, 579305, Control_c, 0, 64, 91
1, 579342, Control_c, 0, 64, 96
1, 579379, Control_c, 0, 64, 102
1, 579434, Control_c, 0, 64, 107
1, 579506, Control_c, 0, 64, 111
1, 579723, Control_c, 0, 64, 115
1, 579964, Note_on_c, 0, 69, 44
1, 580013, Note_on_c, 0, 38, 27
1, 580017, Note_on_c, 0, 50, 23
1, 580025, Note_on_c, 0, 65, 18
1, 580129, Control_c, 0, 64, 119
1, 580258, Control_c, 0, 64, 123
1, 580281, Note_on_c, 0, 50, 0
1, 580350, Control_c, 0, 64, 127
1, 580417, Note_on_c, 0, 38, 0
1, 580459, Poly_aftertouch_c, 0, 65, 24
1, 580507, Note_on_c, 0, 65, 0
1, 580507, Poly_aftertouch_c, 0, 65, 0
1, 580534, Control_c, 0, 67, 116
1, 580566, Control_c, 0, 67, 107
1, 580585, Control_c, 0, 67, 97
1, 580604, Control_c, 0, 67, 84
1, 580622, Control_c, 0, 67, 70
1, 580637, Note_on_c, 0, 69, 0
1, 580638, Control_c, 0, 67, 55
1, 580659, Control_c, 0, 67, 40
1, 580678, Control_c, 0, 67, 24
1, 580696, Control_c, 0, 67, 8
1, 580751, Control_c, 0, 67, 0
1, 581266, Note_on_c, 0, 77, 66
1, 581302, Note_on_c, 0, 38, 32
1, 581313, Note_on_c, 0, 69, 40
1, 581315, Note_on_c, 0, 50, 27
1, 581396, Control_c, 0, 64, 119
1, 581412, Control_c, 0, 64, 93
1, 581431, Control_c, 0, 64, 69
1, 581451, Control_c, 0, 64, 59
1, 581503, Control_c, 0, 64, 67
1, 581521, Control_c, 0, 64, 78
1, 581541, Control_c, 0, 64, 91
1, 581559, Control_c, 0, 64, 103
1, 581560, Control_c, 0, 67, 9
1, 581575, Control_c, 0, 64, 110
1, 581602, Note_on_c, 0, 50, 0
1, 581613, Control_c, 0, 64, 114
1, 581615, Control_c, 0, 67, 16
1, 581632, Control_c, 0, 67, 22
1, 581650, Control_c, 0, 67, 29
1, 581668, Control_c, 0, 64, 118
1, 581669, Control_c, 0, 67, 36
1, 581686, Control_c, 0, 67, 41
1, 581704, Control_c, 0, 67, 45
1, 581723, Control_c, 0, 67, 50
1, 581742, Control_c, 0, 67, 57
1, 581762, Control_c, 0, 67, 67
1, 581763, Note_on_c, 0, 38, 0
1, 581779, Control_c, 0, 67, 76
1, 581798, Control_c, 0, 64, 122
1, 581800, Control_c, 0, 67, 80
1, 581834, Control_c, 0, 67, 86
1, 581852, Control_c, 0, 67, 93
1, 581870, Note_on_c, 0, 77, 0
1, 581872, Control_c, 0, 67, 102
1, 581888, Control_c, 0, 67, 111
1, 581907, Control_c, 0, 67, 118
1, 581924, Control_c, 0, 67, 124
1, 581963, Control_c, 0, 64, 126
1, 581964, Note_on_c, 0, 69, 0
1, 583003, Note_on_c, 0, 69, 45
1, 583033, Note_on_c, 0, 65, 27
1, 583055, Note_on_c, 0, 50, 19
1, 583058, Note_on_c, 0, 38, 25
1, 583156, Control_c, 0, 64, 116
1, 583176, Control_c, 0, 64, 102
1, 583194, Control_c, 0, 64, 84
1, 583211, Control_c, 0, 64, 67
1, 583230, Control_c, 0, 64, 57
1, 583322, Control_c, 0, 64, 59
1, 583340, Control_c, 0, 64, 65
1, 583374, Control_c, 0, 64, 71
1, 583392, Control_c, 0, 64, 77
1, 583412, Control_c, 0, 64, 84
1, 583430, Control_c, 0, 64, 91
1, 583447, Control_c, 0, 64, 96
1, 583466, Control_c, 0, 64, 100
1, 583503, Control_c, 0, 64, 107
1, 583538, Control_c, 0, 64, 112
1, 583613, Control_c, 0, 64, 117
1, 583759, Control_c, 0, 64, 121
1, 584019, Control_c, 0, 64, 125
1, 584964, Poly_aftertouch_c, 0, 50, 24
1, 585067, Note_on_c, 0, 50, 0
1, 585067, Poly_aftertouch_c, 0, 50, 0
1, 585120, Control_c, 0, 64, 120
1, 585156, Control_c, 0, 64, 114
1, 585192, Control_c, 0, 64, 109
1, 585245, Control_c, 0, 64, 105
1, 585282, Control_c, 0, 64, 101
1, 585317, Control_c, 0, 64, 96
1, 585346, Poly_aftertouch_c, 0, 65, 24
1, 585374, Control_c, 0, 64, 91
1, 585402, Poly_aftertouch_c, 0, 38, 24
1, 585429, Control_c, 0, 64, 86
1, 585440, Note_on_c, 0, 65, 0
1, 585440, Poly_aftertouch_c, 0, 65, 0
1, 585440, Poly_aftertouch_c, 0, 69, 24
1, 585447, Control_c, 0, 64, 83
1, 585453, Note_on_c, 0, 38, 0
1, 585453, Poly_aftertouch_c, 0, 38, 0
1, 585467, Control_c, 0, 64, 79
1, 585485, Control_c, 0, 64, 77
1, 585503, Control_c, 0, 64, 75
1, 585514, Note_on_c, 0, 69, 0
1, 585514, Poly_aftertouch_c, 0, 69, 0
1, 585540, Control_c, 0, 64, 73
1, 585576, Control_c, 0, 64, 71
1, 585650, Control_c, 0, 64, 69
1, 585686, Control_c, 0, 64, 68
1, 585724, Control_c, 0, 64, 67
1, 585761, Control_c, 0, 64, 66
1, 585797, Control_c, 0, 64, 65
1, 585834, Control_c, 0, 64, 63
1, 585854, Control_c, 0, 64, 62
1, 585870, Control_c, 0, 64, 60
1, 585907, Control_c, 0, 64, 57
1, 585945, Control_c, 0, 64, 55
1, 585982, Control_c, 0, 64, 53
1, 586018, Control_c, 0, 64, 51
1, 586198, Control_c, 0, 64, 53
1, 586218, Control_c, 0, 64, 57
1, 586237, Control_c, 0, 64, 60
1, 586253, Control_c, 0, 64, 64
1, 586272, Control_c, 0, 64, 68
1, 586291, Control_c, 0, 64, 71
1, 586310, Control_c, 0, 64, 73
1, 586328, Control_c, 0, 64, 76
1, 586346, Control_c, 0, 64, 79
1, 586364, Control_c, 0, 64, 83
1, 586383, Control_c, 0, 64, 87
1, 586420, Control_c, 0, 64, 93
1, 586458, Control_c, 0, 64, 98
1, 586493, Control_c, 0, 64, 102
1, 586513, Control_c, 0, 64, 106
1, 586549, Control_c, 0, 64, 111
1, 586641, Control_c, 0, 64, 115
1, 586769, Control_c, 0, 64, 119
1, 586991, Control_c, 0, 64, 123
1, 587152, Control_c, 0, 64, 127
1, 587156, Note_on_c, 0, 46, 41
1, 587176, Note_on_c, 0, 34, 36
1, 587337, Control_c, 0, 67, 120
1, 587355, Control_c, 0, 67, 110
1, 587375, Control_c, 0, 67, 97
1, 587393, Control_c, 0, 67, 80
1, 587412, Control_c, 0, 67, 59
1, 587428, Control_c, 0, 67, 37
1, 587448, Control_c, 0, 67, 14
1, 587466, Control_c, 0, 67, 0
1, 587688, Note_on_c, 0, 46, 0
1, 587889, Control_c, 0, 67, 10
1, 587945, Control_c, 0, 67, 15
1, 587963, Control_c, 0, 67, 19
1, 587980, Control_c, 0, 67, 26
1, 587998, Control_c, 0, 67, 33
1, 588018, Control_c, 0, 67, 39
1, 588051, Control_c, 0, 67, 44
1, 588070, Control_c, 0, 67, 50
1, 588089, Control_c, 0, 67, 58
1, 588108, Control_c, 0, 67, 68
1, 588126, Control_c, 0, 67, 76
1, 588144, Control_c, 0, 67, 83
1, 588163, Control_c, 0, 67, 89
1, 588182, Control_c, 0, 67, 94
1, 588199, Control_c, 0, 67, 101
1, 588218, Control_c, 0, 67, 108
1, 588235, Control_c, 0, 67, 116
1, 588253, Control_c, 0, 67, 123
1, 588271, Note_on_c, 0, 34, 0
1, 588272, Control_c, 0, 67, 127
1, 588661, Note_on_c, 0, 67, 53
1, 588677, Note_on_c, 0, 62, 45
1, 588686, Note_on_c, 0, 58, 36
1, 588752, Control_c, 0, 64, 118
1, 588770, Control_c, 0, 64, 110
1, 588790, Control_c, 0, 64, 100
1, 588808, Control_c, 0, 64, 90
1, 588825, Control_c, 0, 64, 81
1, 588843, Control_c, 0, 64, 74
1, 588861, Control_c, 0, 64, 71
1, 588987, Control_c, 0, 64, 69
1, 589025, Control_c, 0, 64, 68
1, 589098, Control_c, 0, 64, 67
1, 589283, Control_c, 0, 64, 66
1, 589429, Control_c, 0, 64, 65
1, 589668, Control_c, 0, 64, 64
1, 589778, Control_c, 0, 64, 63
1, 589851, Control_c, 0, 64, 62
1, 589890, Control_c, 0, 64, 61
1, 589942, Control_c, 0, 64, 60
1, 589968, Poly_aftertouch_c, 0, 62, 24
1, 589982, Note_on_c, 0, 67, 0
1, 589997, Control_c, 0, 64, 57
1, 590005, Note_on_c, 0, 58, 0
1, 590029, Note_on_c, 0, 62, 0
1, 590029, Poly_aftertouch_c, 0, 62, 0
1, 590030, Poly_aftertouch_c, 0, 62, 0
1, 590087, Control_c, 0, 64, 55
1, 590182, Control_c, 0, 64, 53
1, 590273, Control_c, 0, 64, 51
1, 590364, Control_c, 0, 64, 49
1, 590458, Control_c, 0, 64, 47
1, 590661, Control_c, 0, 64, 50
1, 590679, Control_c, 0, 64, 53
1, 590697, Control_c, 0, 64, 57
1, 590714, Control_c, 0, 64, 60
1, 590733, Control_c, 0, 64, 63
1, 590752, Control_c, 0, 64, 65
1, 590769, Control_c, 0, 64, 67
1, 590807, Control_c, 0, 64, 70
1, 590860, Control_c, 0, 64, 73
1, 590897, Control_c, 0, 64, 77
1, 590915, Control_c, 0, 64, 80
1, 590934, Control_c, 0, 64, 84
1, 590951, Control_c, 0, 64, 87
1, 590988, Control_c, 0, 64, 91
1, 591023, Control_c, 0, 64, 96
1, 591061, Control_c, 0, 64, 102
1, 591097, Control_c, 0, 64, 109
1, 591171, Control_c, 0, 64, 113
1, 591300, Control_c, 0, 64, 117
1, 591813, Note_on_c, 0, 48, 32
1, 591832, Note_on_c, 0, 36, 32
1, 592331, Control_c, 0, 64, 121
1, 592533, Poly_aftertouch_c, 0, 48, 24
1, 592651, Note_on_c, 0, 48, 0
1, 592651, Poly_aftertouch_c, 0, 48, 0
1, 592940, Poly_aftertouch_c, 0, 36, 24
1, 593007, Control_c, 0, 64, 117
1, 593044, Note_on_c, 0, 36, 0
1, 593044, Poly_aftertouch_c, 0, 36, 0
1, 593080, Control_c, 0, 64, 113
1, 593134, Control_c, 0, 64, 109
1, 593209, Control_c, 0, 64, 105
1, 593301, Control_c, 0, 64, 100
1, 593329, Note_on_c, 0, 64, 44
1, 593349, Note_on_c, 0, 55, 32
1, 593353, Control_c, 0, 64, 95
1, 593359, Note_on_c, 0, 58, 30
1, 593392, Control_c, 0, 64, 89
1, 593410, Control_c, 0, 64, 84
1, 593431, Control_c, 0, 64, 78
1, 593448, Control_c, 0, 64, 73
1, 593467, Control_c, 0, 64, 70
1, 593486, Control_c, 0, 64, 68
1, 593503, Control_c, 0, 64, 67
1, 593521, Control_c, 0, 64, 66
1, 593539, Control_c, 0, 64, 65
1, 593576, Control_c, 0, 64, 63
1, 594055, Poly_aftertouch_c, 0, 55, 24
1, 594308, Poly_aftertouch_c, 0, 55, 22
1, 594434, Note_on_c, 0, 55, 0
1, 594434, Poly_aftertouch_c, 0, 55, 0
1, 594691, Poly_aftertouch_c, 0, 64, 24
1, 594726, Note_on_c, 0, 64, 0
1, 594726, Poly_aftertouch_c, 0, 64, 0
1, 594735, Poly_aftertouch_c, 0, 58, 24
1, 594790, Note_on_c, 0, 58, 0
1, 594790, Poly_aftertouch_c, 0, 58, 0
1, 595357, Control_c, 0, 64, 64
1, 595375, Control_c, 0, 64, 65
1, 595393, Control_c, 0, 64, 66
1, 595411, Control_c, 0, 64, 67
1, 595447, Control_c, 0, 64, 70
1, 595466, Control_c, 0, 64, 72
1, 595484, Control_c, 0, 64, 74
1, 595521, Control_c, 0, 64, 78
1, 595555, Control_c, 0, 64, 80
1, 595574, Control_c, 0, 64, 83
1, 595593, Control_c, 0, 64, 86
1, 595627, Control_c, 0, 64, 92
1, 595684, Control_c, 0, 64, 96
1, 595719, Control_c, 0, 64, 100
1, 595758, Control_c, 0, 64, 105
1, 595795, Control_c, 0, 64, 110
1, 595848, Control_c, 0, 64, 114
1, 595922, Control_c, 0, 64, 119
1, 596052, Control_c, 0, 64, 123
1, 596274, Control_c, 0, 64, 127
1, 596592, Note_on_c, 0, 41, 29
1, 596610, Note_on_c, 0, 29, 28
1, 596892, Poly_aftertouch_c, 0, 41, 24
1, 596962, Note_on_c, 0, 29, 0
1, 596969, Note_on_c, 0, 41, 0
1, 596969, Poly_aftertouch_c, 0, 41, 0
1, 597818, Note_on_c, 0, 65, 39
1, 597849, Note_on_c, 0, 60, 31
1, 597859, Note_on_c, 0, 57, 24
1, 597859, Note_on_c, 0, 29, 24
1, 597869, Note_on_c, 0, 41, 13
1, 598195, Poly_aftertouch_c, 0, 41, 24
1, 598242, Poly_aftertouch_c, 0, 29, 24
1, 598243, Poly_aftertouch_c, 0, 57, 24
1, 598269, Note_on_c, 0, 41, 0
1, 598269, Poly_aftertouch_c, 0, 41, 0
1, 598287, Note_on_c, 0, 57, 0
1, 598287, Poly_aftertouch_c, 0, 57, 0
1, 598311, Note_on_c, 0, 29, 0
1, 598311, Poly_aftertouch_c, 0, 29, 0
1, 598449, Note_on_c, 0, 60, 0
1, 598467, Note_on_c, 0, 65, 0
1, 599064, Note_on_c, 0, 69, 63
1, 599087, Note_on_c, 0, 57, 32
1, 599095, Note_on_c, 0, 60, 39
1, 599123, Note_on_c, 0, 41, 21
1, 599123, Note_on_c, 0, 29, 29
1, 599357, Poly_aftertouch_c, 0, 57, 24
1, 599404, Poly_aftertouch_c, 0, 41, 24
1, 599430, Note_on_c, 0, 57, 0
1, 599430, Poly_aftertouch_c, 0, 57, 0
1, 599457, Note_on_c, 0, 41, 0
1, 599457, Poly_aftertouch_c, 0, 41, 0
1, 599546, Note_on_c, 0, 29, 0
1, 599607, Note_on_c, 0, 69, 0
1, 599645, Note_on_c, 0, 60, 0
1, 600678, Note_on_c, 0, 65, 39
1, 600722, Note_on_c, 0, 41, 20
1, 600729, Note_on_c, 0, 60, 24
1, 600731, Note_on_c, 0, 29, 24
1, 600747, Note_on_c, 0, 57, 19
1, 600766, Control_c, 0, 64, 121
1, 600787, Control_c, 0, 64, 109
1, 600804, Control_c, 0, 64, 94
1, 600823, Control_c, 0, 64, 79
1, 600840, Control_c, 0, 64, 67
1, 600858, Control_c, 0, 64, 59
1, 600877, Control_c, 0, 64, 57
1, 600988, Control_c, 0, 64, 63
1, 601006, Control_c, 0, 64, 68
1, 601024, Control_c, 0, 64, 72
1, 601043, Control_c, 0, 64, 76
1, 601062, Control_c, 0, 64, 81
1, 601080, Control_c, 0, 64, 86
1, 601098, Control_c, 0, 64, 90
1, 601135, Control_c, 0, 64, 96
1, 601187, Control_c, 0, 64, 100
1, 601225, Control_c, 0, 64, 104
1, 601314, Control_c, 0, 64, 108
1, 601781, Poly_aftertouch_c, 0, 57, 24
1, 601800, Poly_aftertouch_c, 0, 41, 24
1, 601828, Note_on_c, 0, 57, 0
1, 601828, Poly_aftertouch_c, 0, 57, 0
1, 601989, Note_on_c, 0, 65, 0
1, 602009, Note_on_c, 0, 60, 0
1, 602212, Poly_aftertouch_c, 0, 41, 32
1, 602530, Poly_aftertouch_c, 0, 41, 24
1, 602675, Control_c, 0, 64, 112
1, 602679, Note_on_c, 0, 41, 0
1, 602679, Poly_aftertouch_c, 0, 41, 0
1, 602680, Poly_aftertouch_c, 0, 41, 0
1, 602882, Poly_aftertouch_c, 0, 29, 24
1, 602896, Control_c, 0, 64, 116
1, 602981, Note_on_c, 0, 29, 0
1, 602981, Poly_aftertouch_c, 0, 29, 0
1, 603077, Control_c, 0, 67, 121
1, 603097, Control_c, 0, 67, 116
1, 603113, Control_c, 0, 64, 120
1, 603115, Control_c, 0, 67, 108
1, 603131, Control_c, 0, 67, 100
1, 603150, Control_c, 0, 67, 91
1, 603169, Control_c, 0, 67, 82
1, 603186, Control_c, 0, 67, 71
1, 603204, Control_c, 0, 67, 60
1, 603223, Control_c, 0, 67, 50
1, 603242, Control_c, 0, 67, 39
1, 603262, Control_c, 0, 67, 28
1, 603279, Control_c, 0, 67, 19
1, 603298, Control_c, 0, 67, 9
1, 603317, Control_c, 0, 64, 124
1, 603371, Control_c, 0, 67, 0
1, 603564, Note_on_c, 0, 48, 57
1, 603702, Control_c, 0, 64, 107
1, 603719, Control_c, 0, 64, 88
1, 603738, Control_c, 0, 64, 74
1, 603757, Control_c, 0, 64, 70
1, 603794, Control_c, 0, 64, 75
1, 603813, Control_c, 0, 64, 83
1, 603832, Control_c, 0, 64, 91
1, 603852, Control_c, 0, 64, 99
1, 603869, Control_c, 0, 64, 104
1, 603905, Control_c, 0, 64, 110
1, 603976, Control_c, 0, 64, 114
1, 604048, Control_c, 0, 64, 118
1, 604100, Note_on_c, 0, 48, 0
1, 604139, Control_c, 0, 64, 122
1, 604307, Control_c, 0, 64, 126
1, 604558, Note_on_c, 0, 48, 68
1, 604683, Note_on_c, 0, 48, 0
1, 604913, Note_on_c, 0, 41, 41
1, 604915, Note_on_c, 0, 48, 44
1, 604968, Control_c, 0, 64, 117
1, 604984, Control_c, 0, 64, 95
1, 605003, Control_c, 0, 64, 62
1, 605022, Control_c, 0, 64, 0
1, 605151, Control_c, 0, 64, 36
1, 605170, Control_c, 0, 64, 53
1, 605188, Control_c, 0, 64, 69
1, 605206, Control_c, 0, 64, 80
1, 605223, Control_c, 0, 64, 91
1, 605243, Control_c, 0, 64, 100
1, 605261, Control_c, 0, 64, 106
1, 605296, Control_c, 0, 64, 110
1, 605510, Note_on_c, 0, 57, 63
1, 605517, Control_c, 0, 64, 104
1, 605536, Control_c, 0, 64, 100
1, 605555, Control_c, 0, 64, 94
1, 605573, Control_c, 0, 64, 87
1, 605590, Control_c, 0, 64, 77
1, 605610, Control_c, 0, 64, 66
1, 605628, Control_c, 0, 64, 53
1, 605646, Control_c, 0, 64, 34
1, 605665, Control_c, 0, 64, 0
1, 605845, Control_c, 0, 64, 22
1, 605864, Control_c, 0, 64, 40
1, 605883, Control_c, 0, 64, 53
1, 605901, Control_c, 0, 64, 68
1, 605921, Control_c, 0, 64, 75
1, 605938, Control_c, 0, 64, 81
1, 605958, Control_c, 0, 64, 86
1, 605994, Control_c, 0, 64, 92
1, 606031, Control_c, 0, 64, 98
1, 606068, Control_c, 0, 64, 102
1, 606123, Control_c, 0, 64, 106
1, 606199, Note_on_c, 0, 48, 0
1, 606261, Note_on_c, 0, 41, 0
1, 606559, Note_on_c, 0, 57, 0
1, 607031, Note_on_c, 0, 55, 43
1, 607073, Note_on_c, 0, 40, 38
1, 607076, Note_on_c, 0, 48, 33
1, 607077, Control_c, 0, 64, 93
1, 607095, Control_c, 0, 64, 67
1, 607113, Control_c, 0, 64, 0
1, 607224, Control_c, 0, 64, 32
1, 607241, Control_c, 0, 64, 54
1, 607260, Control_c, 0, 64, 70
1, 607278, Control_c, 0, 64, 80
1, 607298, Control_c, 0, 64, 89
1, 607308, Note_on_c, 0, 48, 0
1, 607314, Control_c, 0, 64, 95
1, 607327, Note_on_c, 0, 40, 0
1, 607334, Control_c, 0, 64, 100
1, 607350, Note_on_c, 0, 55, 0
1, 607371, Control_c, 0, 64, 106
1, 607426, Control_c, 0, 64, 110
1, 607518, Control_c, 0, 64, 114
1, 607611, Note_on_c, 0, 57, 67
1, 607646, Control_c, 0, 64, 104
1, 607646, Note_on_c, 0, 41, 44
1, 607649, Note_on_c, 0, 48, 42
1, 607665, Control_c, 0, 64, 77
1, 607685, Control_c, 0, 64, 30
1, 607717, Control_c, 0, 64, 0
1, 607773, Control_c, 0, 64, 14
1, 607791, Control_c, 0, 64, 44
1, 607810, Control_c, 0, 64, 69
1, 607813, Note_on_c, 0, 48, 0
1, 607828, Control_c, 0, 64, 84
1, 607847, Control_c, 0, 64, 98
1, 607864, Control_c, 0, 64, 106
1, 607875, Note_on_c, 0, 41, 0
1, 607901, Control_c, 0, 64, 110
1, 607910, Note_on_c, 0, 57, 0
1, 607995, Control_c, 0, 64, 114
1, 608164, Note_on_c, 0, 58, 70
1, 608197, Control_c, 0, 64, 109
1, 608201, Note_on_c, 0, 48, 39
1, 608206, Note_on_c, 0, 43, 42
1, 608217, Control_c, 0, 64, 87
1, 608234, Control_c, 0, 64, 47
1, 608251, Control_c, 0, 64, 0
1, 608324, Control_c, 0, 64, 34
1, 608343, Control_c, 0, 64, 59
1, 608351, Note_on_c, 0, 48, 0
1, 608363, Control_c, 0, 64, 79
1, 608381, Control_c, 0, 64, 93
1, 608390, Note_on_c, 0, 43, 0
1, 608395, Control_c, 0, 64, 105
1, 608416, Control_c, 0, 64, 109
1, 608437, Note_on_c, 0, 58, 0
1, 608491, Control_c, 0, 64, 113
1, 608718, Note_on_c, 0, 59, 62
1, 608742, Note_on_c, 0, 44, 46
1, 608749, Note_on_c, 0, 48, 36
1, 608764, Control_c, 0, 64, 105
1, 608782, Control_c, 0, 64, 83
1, 608800, Control_c, 0, 64, 47
1, 608819, Control_c, 0, 64, 0
1, 608911, Control_c, 0, 64, 36
1, 608923, Note_on_c, 0, 48, 0
1, 608930, Control_c, 0, 64, 63
1, 608949, Control_c, 0, 64, 82
1, 608967, Control_c, 0, 64, 100
1, 608969, Note_on_c, 0, 44, 0
1, 608985, Control_c, 0, 64, 113
1, 609003, Control_c, 0, 64, 118
1, 609057, Control_c, 0, 64, 123
1, 609125, Note_on_c, 0, 59, 0
1, 609309, Note_on_c, 0, 60, 71
1, 609360, Note_on_c, 0, 45, 41
1, 609364, Note_on_c, 0, 48, 36
1, 609390, Control_c, 0, 64, 109
1, 609407, Control_c, 0, 64, 78
1, 609428, Control_c, 0, 64, 23
1, 609446, Control_c, 0, 64, 0
1, 609537, Control_c, 0, 64, 38
1, 609555, Control_c, 0, 64, 59
1, 609588, Control_c, 0, 64, 74
1, 609606, Control_c, 0, 64, 85
1, 609625, Control_c, 0, 64, 94
1, 609643, Control_c, 0, 64, 100
1, 609681, Control_c, 0, 64, 105
1, 609726, Note_on_c, 0, 48, 0
1, 609830, Note_on_c, 0, 60, 0
1, 609834, Note_on_c, 0, 45, 0
1, 610406, Note_on_c, 0, 62, 77
1, 610422, Note_on_c, 0, 48, 37
1, 610422, Note_on_c, 0, 46, 42
1, 610473, Control_c, 0, 64, 100
1, 610492, Control_c, 0, 64, 82
1, 610524, Control_c, 0, 64, 50
1, 610543, Control_c, 0, 64, 0
1, 610655, Control_c, 0, 64, 41
1, 610673, Control_c, 0, 64, 59
1, 610691, Control_c, 0, 64, 70
1, 610708, Control_c, 0, 64, 76
1, 610729, Control_c, 0, 64, 83
1, 610745, Control_c, 0, 64, 91
1, 610764, Control_c, 0, 64, 100
1, 610782, Control_c, 0, 64, 108
1, 610801, Control_c, 0, 64, 112
1, 610907, Note_on_c, 0, 48, 0
1, 611024, Control_c, 0, 64, 116
1, 611263, Note_on_c, 0, 46, 0
1, 611317, Control_c, 0, 67, 8
1, 611409, Control_c, 0, 67, 12
1, 611860, Note_on_c, 0, 58, 47
1, 611869, Note_on_c, 0, 48, 33
1, 611886, Note_on_c, 0, 43, 31
1, 611903, Control_c, 0, 64, 111
1, 611920, Control_c, 0, 64, 92
1, 611938, Control_c, 0, 64, 59
1, 611958, Control_c, 0, 64, 0
1, 611961, Note_on_c, 0, 62, 0
1, 611977, Control_c, 0, 67, 16
1, 612013, Control_c, 0, 64, 17
1, 612034, Control_c, 0, 64, 42
1, 612051, Control_c, 0, 64, 64
1, 612068, Control_c, 0, 64, 78
1, 612087, Control_c, 0, 64, 89
1, 612090, Control_c, 0, 67, 20
1, 612105, Control_c, 0, 64, 95
1, 612117, Note_on_c, 0, 57, 60
1, 612136, Note_on_c, 0, 41, 36
1, 612159, Note_on_c, 0, 58, 0
1, 612159, Note_on_c, 0, 48, 0
1, 612358, Poly_aftertouch_c, 0, 43, 20
1, 612365, Note_on_c, 0, 57, 0
1, 612409, Note_on_c, 0, 55, 49
1, 612411, Note_on_c, 0, 48, 30
1, 612414, Note_on_c, 0, 40, 41
1, 612414, Control_c, 0, 67, 24
1, 612428, Poly_aftertouch_c, 0, 41, 24
1, 612432, Control_c, 0, 64, 82
1, 612452, Control_c, 0, 64, 62
1, 612467, Note_on_c, 0, 43, 0
1, 612467, Poly_aftertouch_c, 0, 43, 0
1, 612470, Control_c, 0, 64, 28
1, 612471, Control_c, 0, 67, 28
1, 612476, Note_on_c, 0, 41, 0
1, 612476, Poly_aftertouch_c, 0, 41, 0
1, 612489, Control_c, 0, 64, 0
1, 612526, Control_c, 0, 67, 34
1, 612563, Control_c, 0, 67, 38
1, 612599, Control_c, 0, 67, 43
1, 612617, Control_c, 0, 64, 30
1, 612635, Control_c, 0, 64, 59
1, 612636, Control_c, 0, 67, 47
1, 612653, Control_c, 0, 64, 73
1, 612672, Control_c, 0, 64, 81
1, 612673, Control_c, 0, 67, 53
1, 612691, Control_c, 0, 64, 85
1, 612710, Control_c, 0, 67, 60
1, 612728, Control_c, 0, 64, 92
1, 612747, Control_c, 0, 64, 96
1, 612748, Control_c, 0, 67, 68
1, 612783, Control_c, 0, 64, 101
1, 612783, Control_c, 0, 67, 74
1, 612809, Note_on_c, 0, 55, 0
1, 612821, Control_c, 0, 67, 81
1, 612856, Control_c, 0, 67, 87
1, 612892, Control_c, 0, 67, 94
1, 612929, Control_c, 0, 67, 101
1, 612949, Control_c, 0, 67, 106
1, 612967, Control_c, 0, 67, 111
1, 612987, Control_c, 0, 67, 117
1, 613002, Control_c, 0, 67, 123
1, 613022, Control_c, 0, 67, 127
1, 613300, Control_c, 0, 64, 94
1, 613325, Note_on_c, 0, 66, 45
1, 613331, Control_c, 0, 64, 72
1, 613350, Control_c, 0, 64, 23
1, 613368, Control_c, 0, 64, 0
1, 613461, Control_c, 0, 64, 39
1, 613480, Control_c, 0, 64, 60
1, 613497, Control_c, 0, 64, 72
1, 613516, Control_c, 0, 64, 78
1, 613535, Control_c, 0, 64, 82
1, 613571, Control_c, 0, 64, 86
1, 613596, Note_on_c, 0, 66, 0
1, 613608, Control_c, 0, 64, 91
1, 613664, Control_c, 0, 64, 95
1, 613810, Control_c, 0, 64, 83
1, 613828, Control_c, 0, 64, 54
1, 613847, Control_c, 0, 64, 0
1, 613865, Note_on_c, 0, 67, 39
1, 613916, Note_on_c, 0, 40, 0
1, 613935, Note_on_c, 0, 48, 0
1, 613938, Control_c, 0, 64, 42
1, 613958, Control_c, 0, 64, 68
1, 613976, Control_c, 0, 64, 82
1, 613996, Control_c, 0, 64, 94
1, 614012, Control_c, 0, 64, 100
1, 614049, Control_c, 0, 64, 104
1, 614096, Note_on_c, 0, 67, 0
1, 614104, Control_c, 0, 64, 109
1, 614285, Control_c, 0, 64, 113
1, 614365, Note_on_c, 0, 69, 47
1, 614388, Note_on_c, 0, 54, 43
1, 614394, Note_on_c, 0, 60, 36
1, 614397, Control_c, 0, 64, 106
1, 614415, Control_c, 0, 64, 83
1, 614433, Control_c, 0, 64, 43
1, 614451, Control_c, 0, 64, 0
1, 614507, Control_c, 0, 64, 16
1, 614525, Control_c, 0, 64, 44
1, 614543, Control_c, 0, 64, 67
1, 614564, Control_c, 0, 64, 81
1, 614581, Control_c, 0, 64, 92
1, 614599, Control_c, 0, 64, 97
1, 614609, Note_on_c, 0, 69, 0
1, 614615, Note_on_c, 0, 60, 0
1, 614646, Note_on_c, 0, 54, 0
1, 614654, Control_c, 0, 64, 102
1, 614763, Control_c, 0, 64, 106
1, 614869, Note_on_c, 0, 55, 42
1, 614872, Note_on_c, 0, 70, 44
1, 614874, Control_c, 0, 64, 94
1, 614890, Note_on_c, 0, 60, 32
1, 614891, Control_c, 0, 64, 68
1, 614912, Control_c, 0, 64, 15
1, 614932, Control_c, 0, 64, 0
1, 614984, Control_c, 0, 64, 37
1, 615004, Control_c, 0, 64, 63
1, 615021, Control_c, 0, 64, 82
1, 615035, Note_on_c, 0, 70, 0
1, 615040, Control_c, 0, 64, 98
1, 615043, Control_c, 0, 67, 123
1, 615060, Control_c, 0, 64, 107
1, 615079, Control_c, 0, 67, 116
1, 615097, Control_c, 0, 67, 109
1, 615114, Control_c, 0, 64, 111
1, 615116, Control_c, 0, 67, 100
1, 615120, Note_on_c, 0, 60, 0
1, 615131, Note_on_c, 0, 55, 0
1, 615131, Control_c, 0, 67, 90
1, 615152, Control_c, 0, 67, 79
1, 615170, Control_c, 0, 67, 69
1, 615202, Control_c, 0, 67, 58
1, 615221, Control_c, 0, 64, 115
1, 615222, Control_c, 0, 67, 47
1, 615239, Control_c, 0, 67, 38
1, 615258, Control_c, 0, 67, 29
1, 615276, Control_c, 0, 67, 21
1, 615295, Control_c, 0, 67, 15
1, 615313, Control_c, 0, 67, 9
1, 615333, Control_c, 0, 64, 120
1, 615379, Note_on_c, 0, 78, 60
1, 615399, Note_on_c, 0, 60, 42
1, 615406, Control_c, 0, 64, 108
1, 615409, Note_on_c, 0, 57, 44
1, 615425, Control_c, 0, 64, 84
1, 615425, Control_c, 0, 67, 0
1, 615442, Control_c, 0, 64, 51
1, 615459, Control_c, 0, 64, 25
1, 615497, Control_c, 0, 64, 32
1, 615517, Control_c, 0, 64, 55
1, 615534, Control_c, 0, 64, 74
1, 615554, Control_c, 0, 64, 89
1, 615573, Control_c, 0, 64, 102
1, 615590, Control_c, 0, 64, 109
1, 615617, Note_on_c, 0, 60, 0
1, 615635, Note_on_c, 0, 57, 0
1, 615635, Note_on_c, 0, 78, 0
1, 615646, Control_c, 0, 64, 115
1, 615700, Control_c, 0, 64, 119
1, 615856, Note_on_c, 0, 79, 49
1, 615866, Control_c, 0, 64, 111
1, 615884, Control_c, 0, 64, 84
1, 615893, Note_on_c, 0, 58, 35
1, 615900, Control_c, 0, 64, 45
1, 615916, Note_on_c, 0, 60, 25
1, 615919, Control_c, 0, 64, 0
1, 615977, Control_c, 0, 64, 35
1, 615995, Control_c, 0, 64, 61
1, 616014, Control_c, 0, 64, 81
1, 616033, Control_c, 0, 64, 98
1, 616034, Note_on_c, 0, 60, 0
1, 616049, Control_c, 0, 64, 110
1, 616053, Note_on_c, 0, 58, 0
1, 616087, Control_c, 0, 64, 115
1, 616089, Note_on_c, 0, 79, 0
1, 616176, Control_c, 0, 64, 120
1, 616409, Note_on_c, 0, 42, 47
1, 616417, Note_on_c, 0, 81, 52
1, 616433, Control_c, 0, 64, 109
1, 616452, Control_c, 0, 64, 85
1, 616471, Control_c, 0, 64, 53
1, 616489, Control_c, 0, 64, 28
1, 616543, Control_c, 0, 64, 47
1, 616562, Control_c, 0, 64, 69
1, 616582, Control_c, 0, 64, 83
1, 616598, Control_c, 0, 64, 95
1, 616607, Note_on_c, 0, 81, 0
1, 616615, Control_c, 0, 64, 102
1, 616637, Note_on_c, 0, 42, 0
1, 616655, Control_c, 0, 64, 106
1, 616746, Control_c, 0, 64, 111
1, 616893, Control_c, 0, 64, 115
1, 616910, Note_on_c, 0, 43, 41
1, 616911, Note_on_c, 0, 82, 42
1, 616951, Control_c, 0, 64, 101
1, 616969, Control_c, 0, 64, 74
1, 616985, Control_c, 0, 64, 36
1, 617005, Control_c, 0, 64, 0
1, 617041, Control_c, 0, 64, 19
1, 617073, Control_c, 0, 64, 47
1, 617092, Control_c, 0, 64, 70
1, 617111, Control_c, 0, 64, 86
1, 617115, Note_on_c, 0, 43, 0
1, 617129, Control_c, 0, 64, 101
1, 617148, Control_c, 0, 64, 109
1, 617185, Control_c, 0, 64, 113
1, 617240, Control_c, 0, 64, 119
1, 617276, Control_c, 0, 64, 123
1, 617312, Control_c, 0, 64, 127
1, 617440, Note_on_c, 0, 45, 42
1, 617443, Control_c, 0, 64, 109
1, 617460, Control_c, 0, 64, 73
1, 617478, Control_c, 0, 64, 25
1, 617499, Control_c, 0, 64, 0
1, 617531, Note_on_c, 0, 82, 0
1, 617534, Control_c, 0, 64, 33
1, 617551, Control_c, 0, 64, 65
1, 617571, Control_c, 0, 64, 86
1, 617589, Control_c, 0, 64, 108
1, 617609, Control_c, 0, 64, 121
1, 617690, Note_on_c, 0, 45, 0
1, 617738, Control_c, 0, 64, 125
1, 618004, Note_on_c, 0, 46, 45
1, 618034, Note_on_c, 0, 48, 69
1, 618102, Control_c, 0, 64, 115
1, 618121, Control_c, 0, 64, 89
1, 618140, Control_c, 0, 64, 50
1, 618157, Control_c, 0, 64, 0
1, 618231, Control_c, 0, 64, 34
1, 618249, Control_c, 0, 64, 57
1, 618257, Note_on_c, 0, 46, 0
1, 618267, Control_c, 0, 64, 74
1, 618286, Control_c, 0, 64, 84
1, 618304, Control_c, 0, 64, 90
1, 618361, Control_c, 0, 64, 94
1, 618517, Note_on_c, 0, 48, 0
1, 618719, Note_on_c, 0, 43, 39
1, 618941, Note_on_c, 0, 48, 73
1, 618961, Note_on_c, 0, 43, 0
1, 619054, Note_on_c, 0, 48, 0
1, 619237, Note_on_c, 0, 40, 39
1, 619294, Note_on_c, 0, 48, 50
1, 619315, Control_c, 0, 64, 80
1, 619332, Control_c, 0, 64, 50
1, 619350, Control_c, 0, 64, 0
1, 619461, Control_c, 0, 64, 30
1, 619479, Control_c, 0, 64, 63
1, 619498, Control_c, 0, 64, 76
1, 619515, Note_on_c, 0, 48, 0
1, 619516, Control_c, 0, 64, 84
1, 619536, Control_c, 0, 64, 87
1, 619589, Control_c, 0, 64, 94
1, 619609, Control_c, 0, 64, 99
1, 619627, Control_c, 0, 64, 103
1, 619776, Control_c, 0, 64, 107
1, 619814, Note_on_c, 0, 58, 74
1, 619955, Control_c, 0, 64, 95
1, 619975, Control_c, 0, 64, 73
1, 619992, Control_c, 0, 64, 46
1, 620011, Control_c, 0, 64, 37
1, 620046, Control_c, 0, 64, 47
1, 620066, Control_c, 0, 64, 64
1, 620084, Control_c, 0, 64, 73
1, 620103, Control_c, 0, 64, 81
1, 620120, Control_c, 0, 64, 88
1, 620138, Control_c, 0, 64, 94
1, 620157, Control_c, 0, 64, 98
1, 620164, Note_on_c, 0, 43, 39
1, 620166, Note_on_c, 0, 48, 40
1, 620286, Control_c, 0, 64, 92
1, 620305, Control_c, 0, 64, 75
1, 620323, Control_c, 0, 64, 46
1, 620341, Control_c, 0, 64, 0
1, 620435, Control_c, 0, 64, 25
1, 620452, Control_c, 0, 64, 53
1, 620472, Control_c, 0, 64, 71
1, 620490, Control_c, 0, 64, 81
1, 620507, Control_c, 0, 64, 88
1, 620525, Control_c, 0, 64, 92
1, 620563, Control_c, 0, 64, 96
1, 620598, Control_c, 0, 64, 102
1, 620674, Control_c, 0, 64, 106
1, 620753, Note_on_c, 0, 40, 0
1, 620815, Control_c, 0, 64, 110
1, 620875, Note_on_c, 0, 48, 0
1, 620952, Note_on_c, 0, 43, 0
1, 621019, Control_c, 0, 64, 114
1, 621089, Note_on_c, 0, 58, 0
1, 621186, Control_c, 0, 64, 118
1, 621369, Control_c, 0, 64, 122
1, 621464, Note_on_c, 0, 57, 62
1, 621502, Note_on_c, 0, 42, 40
1, 621510, Note_on_c, 0, 48, 33
1, 621535, Control_c, 0, 64, 117
1, 621553, Control_c, 0, 64, 102
1, 621572, Control_c, 0, 64, 79
1, 621590, Control_c, 0, 64, 57
1, 621609, Control_c, 0, 64, 51
1, 621647, Control_c, 0, 64, 63
1, 621663, Control_c, 0, 64, 73
1, 621682, Control_c, 0, 64, 83
1, 621701, Control_c, 0, 64, 91
1, 621719, Control_c, 0, 64, 95
1, 621755, Note_on_c, 0, 48, 0
1, 621770, Control_c, 0, 64, 102
1, 621808, Control_c, 0, 64, 106
1, 621818, Note_on_c, 0, 42, 0
1, 621864, Control_c, 0, 64, 111
1, 621918, Control_c, 0, 64, 115
1, 621958, Note_on_c, 0, 58, 71
1, 621992, Control_c, 0, 64, 103
1, 622001, Note_on_c, 0, 43, 46
1, 622004, Note_on_c, 0, 48, 43
1, 622011, Control_c, 0, 64, 75
1, 622028, Control_c, 0, 64, 28
1, 622030, Note_on_c, 0, 57, 0
1, 622046, Control_c, 0, 64, 0
1, 622103, Control_c, 0, 64, 33
1, 622122, Control_c, 0, 64, 58
1, 622139, Control_c, 0, 64, 78
1, 622158, Control_c, 0, 64, 92
1, 622177, Control_c, 0, 64, 105
1, 622194, Control_c, 0, 64, 110
1, 622236, Note_on_c, 0, 48, 0
1, 622249, Control_c, 0, 64, 114
1, 622310, Note_on_c, 0, 43, 0
1, 622323, Control_c, 0, 64, 119
1, 622437, Note_on_c, 0, 60, 74
1, 622456, Note_on_c, 0, 58, 0
1, 622469, Control_c, 0, 64, 102
1, 622473, Note_on_c, 0, 45, 45
1, 622475, Note_on_c, 0, 48, 45
1, 622490, Control_c, 0, 64, 63
1, 622507, Control_c, 0, 64, 0
1, 622582, Control_c, 0, 64, 10
1, 622598, Control_c, 0, 64, 48
1, 622617, Control_c, 0, 64, 73
1, 622637, Control_c, 0, 64, 88
1, 622646, Note_on_c, 0, 48, 0
1, 622655, Control_c, 0, 64, 101
1, 622662, Note_on_c, 0, 45, 0
1, 622686, Control_c, 0, 64, 105
1, 622743, Control_c, 0, 64, 110
1, 622818, Control_c, 0, 64, 114
1, 622991, Note_on_c, 0, 61, 65
1, 623016, Note_on_c, 0, 48, 40
1, 623018, Note_on_c, 0, 60, 0
1, 623023, Note_on_c, 0, 46, 42
1, 623038, Control_c, 0, 64, 101
1, 623058, Control_c, 0, 64, 74
1, 623074, Control_c, 0, 64, 21
1, 623093, Control_c, 0, 64, 0
1, 623184, Control_c, 0, 64, 26
1, 623203, Control_c, 0, 64, 55
1, 623222, Control_c, 0, 64, 72
1, 623240, Control_c, 0, 64, 84
1, 623255, Note_on_c, 0, 48, 0
1, 623258, Control_c, 0, 64, 94
1, 623278, Control_c, 0, 64, 101
1, 623297, Control_c, 0, 64, 105
1, 623308, Note_on_c, 0, 46, 0
1, 623333, Control_c, 0, 64, 110
1, 623357, Note_on_c, 0, 61, 0
1, 623405, Control_c, 0, 64, 114
1, 623780, Note_on_c, 0, 62, 73
1, 623836, Note_on_c, 0, 48, 33
1, 623840, Note_on_c, 0, 46, 38
1, 623881, Control_c, 0, 64, 98
1, 623899, Control_c, 0, 64, 70
1, 623918, Control_c, 0, 64, 22
1, 623937, Control_c, 0, 64, 0
1, 624030, Control_c, 0, 64, 22
1, 624047, Control_c, 0, 64, 49
1, 624066, Control_c, 0, 64, 71
1, 624082, Control_c, 0, 64, 82
1, 624102, Control_c, 0, 64, 92
1, 624119, Control_c, 0, 64, 99
1, 624140, Control_c, 0, 64, 104
1, 624214, Control_c, 0, 64, 108
1, 624275, Note_on_c, 0, 48, 0
1, 624422, Note_on_c, 0, 46, 0
1, 625148, Note_on_c, 0, 60, 59
1, 625184, Note_on_c, 0, 55, 44
1, 625188, Note_on_c, 0, 48, 31
1, 625215, Note_on_c, 0, 40, 39
1, 625277, Control_c, 0, 64, 95
1, 625295, Control_c, 0, 64, 74
1, 625309, Note_on_c, 0, 62, 0
1, 625315, Control_c, 0, 64, 39
1, 625332, Control_c, 0, 64, 0
1, 625444, Control_c, 0, 64, 38
1, 625462, Control_c, 0, 64, 60
1, 625492, Control_c, 0, 64, 74
1, 625512, Control_c, 0, 64, 82
1, 625532, Control_c, 0, 64, 89
1, 625550, Control_c, 0, 64, 94
1, 625568, Control_c, 0, 64, 99
1, 625602, Note_on_c, 0, 48, 0
1, 625605, Control_c, 0, 64, 104
1, 625660, Control_c, 0, 64, 108
1, 625726, Poly_aftertouch_c, 0, 40, 24
1, 625794, Note_on_c, 0, 40, 0
1, 625794, Poly_aftertouch_c, 0, 40, 0
1, 625937, Note_on_c, 0, 55, 0
1, 625941, Note_on_c, 0, 60, 0
1, 626494, Note_on_c, 0, 62, 56
1, 626533, Note_on_c, 0, 36, 38
1, 626545, Note_on_c, 0, 48, 30
1, 626553, Note_on_c, 0, 52, 29
1, 626578, Control_c, 0, 64, 93
1, 626596, Control_c, 0, 64, 64
1, 626615, Control_c, 0, 64, 0
1, 626706, Control_c, 0, 64, 37
1, 626725, Control_c, 0, 64, 62
1, 626745, Control_c, 0, 64, 80
1, 626763, Control_c, 0, 64, 94
1, 626764, Note_on_c, 0, 58, 58
1, 626772, Note_on_c, 0, 48, 0
1, 626773, Note_on_c, 0, 52, 0
1, 626780, Control_c, 0, 64, 102
1, 626854, Control_c, 0, 64, 106
1, 626874, Note_on_c, 0, 62, 0
1, 627057, Note_on_c, 0, 57, 49
1, 627072, Note_on_c, 0, 58, 0
1, 627074, Control_c, 0, 64, 90
1, 627090, Note_on_c, 0, 53, 34
1, 627092, Control_c, 0, 64, 66
1, 627102, Note_on_c, 0, 41, 26
1, 627109, Note_on_c, 0, 48, 20
1, 627112, Control_c, 0, 64, 24
1, 627119, Note_on_c, 0, 36, 0
1, 627128, Control_c, 0, 64, 0
1, 627261, Control_c, 0, 64, 24
1, 627277, Control_c, 0, 64, 50
1, 627295, Control_c, 0, 64, 68
1, 627314, Control_c, 0, 64, 79
1, 627335, Control_c, 0, 64, 91
1, 627365, Control_c, 0, 64, 101
1, 627383, Control_c, 0, 64, 109
1, 627408, Note_on_c, 0, 53, 0
1, 627421, Control_c, 0, 64, 114
1, 627438, Note_on_c, 0, 57, 0
1, 627531, Control_c, 0, 64, 118
1, 627789, Control_c, 0, 67, 8
1, 627992, Control_c, 0, 67, 12
1, 628022, Note_on_c, 0, 68, 42
1, 628065, Control_c, 0, 64, 109
1, 628066, Control_c, 0, 67, 17
1, 628083, Control_c, 0, 64, 83
1, 628103, Control_c, 0, 64, 39
1, 628106, Control_c, 0, 67, 25
1, 628121, Control_c, 0, 64, 0
1, 628122, Control_c, 0, 67, 30
1, 628139, Control_c, 0, 67, 35
1, 628157, Control_c, 0, 67, 41
1, 628177, Control_c, 0, 67, 48
1, 628196, Control_c, 0, 64, 25
1, 628198, Control_c, 0, 67, 56
1, 628212, Control_c, 0, 64, 49
1, 628213, Control_c, 0, 67, 64
1, 628231, Control_c, 0, 64, 70
1, 628232, Control_c, 0, 67, 71
1, 628251, Control_c, 0, 64, 82
1, 628252, Control_c, 0, 67, 80
1, 628269, Control_c, 0, 64, 92
1, 628271, Control_c, 0, 67, 89
1, 628300, Control_c, 0, 64, 98
1, 628301, Control_c, 0, 67, 98
1, 628319, Control_c, 0, 67, 106
1, 628337, Control_c, 0, 64, 104
1, 628339, Control_c, 0, 67, 113
1, 628349, Note_on_c, 0, 68, 0
1, 628356, Control_c, 0, 67, 120
1, 628375, Control_c, 0, 64, 108
1, 628376, Control_c, 0, 67, 126
1, 628578, Control_c, 0, 64, 100
1, 628596, Control_c, 0, 64, 71
1, 628611, Note_on_c, 0, 69, 38
1, 628614, Control_c, 0, 64, 0
1, 628681, Note_on_c, 0, 48, 0
1, 628685, Note_on_c, 0, 41, 0
1, 628688, Control_c, 0, 64, 21
1, 628706, Control_c, 0, 64, 49
1, 628725, Control_c, 0, 64, 73
1, 628744, Control_c, 0, 64, 88
1, 628760, Control_c, 0, 64, 104
1, 628781, Control_c, 0, 64, 111
1, 628837, Control_c, 0, 64, 116
1, 628872, Note_on_c, 0, 69, 0
1, 628983, Control_c, 0, 64, 120
1, 629097, Note_on_c, 0, 71, 46
1, 629117, Note_on_c, 0, 56, 44
1, 629132, Control_c, 0, 64, 112
1, 629148, Control_c, 0, 64, 90
1, 629167, Control_c, 0, 64, 61
1, 629185, Control_c, 0, 64, 37
1, 629236, Control_c, 0, 64, 40
1, 629255, Control_c, 0, 64, 58
1, 629273, Control_c, 0, 64, 73
1, 629293, Control_c, 0, 64, 85
1, 629310, Control_c, 0, 64, 96
1, 629329, Control_c, 0, 64, 103
1, 629332, Note_on_c, 0, 56, 0
1, 629340, Note_on_c, 0, 71, 0
1, 629367, Control_c, 0, 64, 108
1, 629368, Control_c, 0, 67, 119
1, 629386, Control_c, 0, 67, 111
1, 629402, Control_c, 0, 67, 101
1, 629422, Control_c, 0, 64, 112
1, 629423, Control_c, 0, 67, 88
1, 629441, Control_c, 0, 67, 73
1, 629458, Control_c, 0, 67, 56
1, 629477, Control_c, 0, 67, 39
1, 629494, Control_c, 0, 67, 24
1, 629514, Control_c, 0, 64, 116
1, 629514, Control_c, 0, 67, 10
1, 629604, Control_c, 0, 67, 0
1, 629611, Note_on_c, 0, 57, 45
1, 629612, Note_on_c, 0, 72, 39
1, 629623, Control_c, 0, 64, 102
1, 629643, Control_c, 0, 64, 78
1, 629660, Control_c, 0, 64, 53
1, 629679, Control_c, 0, 64, 39
1, 629716, Control_c, 0, 64, 42
1, 629733, Control_c, 0, 64, 58
1, 629752, Control_c, 0, 64, 73
1, 629771, Control_c, 0, 64, 87
1, 629790, Control_c, 0, 64, 99
1, 629809, Control_c, 0, 64, 107
1, 629844, Note_on_c, 0, 72, 0
1, 629845, Control_c, 0, 64, 113
1, 629873, Note_on_c, 0, 57, 0
1, 629900, Control_c, 0, 64, 117
1, 629973, Control_c, 0, 64, 122
1, 630076, Note_on_c, 0, 80, 62
1, 630102, Control_c, 0, 64, 109
1, 630114, Note_on_c, 0, 59, 44
1, 630121, Control_c, 0, 64, 84
1, 630140, Control_c, 0, 64, 53
1, 630172, Control_c, 0, 64, 32
1, 630228, Control_c, 0, 64, 54
1, 630246, Control_c, 0, 64, 73
1, 630265, Control_c, 0, 64, 88
1, 630284, Control_c, 0, 64, 104
1, 630303, Note_on_c, 0, 80, 0
1, 630303, Control_c, 0, 64, 113
1, 630339, Control_c, 0, 64, 117
1, 630344, Note_on_c, 0, 59, 0
1, 630429, Control_c, 0, 64, 121
1, 630559, Control_c, 0, 64, 117
1, 630577, Control_c, 0, 64, 100
1, 630593, Note_on_c, 0, 81, 55
1, 630596, Control_c, 0, 64, 75
1, 630614, Note_on_c, 0, 60, 38
1, 630615, Control_c, 0, 64, 50
1, 630632, Control_c, 0, 64, 43
1, 630634, Control_c, 0, 67, 8
1, 630669, Control_c, 0, 64, 57
1, 630687, Control_c, 0, 64, 74
1, 630707, Control_c, 0, 64, 89
1, 630724, Control_c, 0, 64, 105
1, 630725, Control_c, 0, 67, 12
1, 630728, Note_on_c, 0, 60, 0
1, 630742, Control_c, 0, 64, 117
1, 630754, Note_on_c, 0, 81, 0
1, 630760, Control_c, 0, 64, 121
1, 630799, Control_c, 0, 64, 125
1, 631123, Note_on_c, 0, 83, 53
1, 631131, Note_on_c, 0, 44, 44
1, 631163, Control_c, 0, 64, 100
1, 631182, Control_c, 0, 64, 60
1, 631201, Control_c, 0, 64, 0
1, 631274, Control_c, 0, 64, 10
1, 631292, Control_c, 0, 64, 39
1, 631313, Control_c, 0, 64, 63
1, 631321, Note_on_c, 0, 83, 0
1, 631328, Control_c, 0, 64, 84
1, 631346, Control_c, 0, 64, 99
1, 631366, Control_c, 0, 64, 109
1, 631403, Control_c, 0, 64, 113
1, 631414, Note_on_c, 0, 44, 0
1, 631458, Control_c, 0, 64, 117
1, 631620, Note_on_c, 0, 45, 39
1, 631627, Note_on_c, 0, 84, 46
1, 631643, Control_c, 0, 64, 106
1, 631660, Control_c, 0, 64, 72
1, 631679, Control_c, 0, 64, 0
1, 631753, Control_c, 0, 64, 22
1, 631771, Control_c, 0, 64, 51
1, 631791, Control_c, 0, 64, 73
1, 631807, Control_c, 0, 64, 87
1, 631825, Control_c, 0, 64, 102
1, 631846, Control_c, 0, 64, 108
1, 631883, Note_on_c, 0, 45, 0
1, 631919, Control_c, 0, 64, 112
1, 632062, Control_c, 0, 64, 116
1, 632173, Control_c, 0, 67, 16
1, 632178, Note_on_c, 0, 47, 39
1, 632192, Control_c, 0, 64, 103
1, 632209, Control_c, 0, 64, 71
1, 632228, Control_c, 0, 64, 0
1, 632320, Control_c, 0, 64, 45
1, 632338, Control_c, 0, 64, 73
1, 632355, Control_c, 0, 64, 89
1, 632365, Note_on_c, 0, 84, 0
1, 632374, Control_c, 0, 64, 105
1, 632393, Control_c, 0, 64, 110
1, 632478, Note_on_c, 0, 47, 0
1, 632503, Control_c, 0, 64, 114
1, 632790, Note_on_c, 0, 72, 59
1, 632840, Note_on_c, 0, 48, 28
1, 632855, Control_c, 0, 64, 109
1, 632874, Control_c, 0, 64, 91
1, 632891, Control_c, 0, 64, 57
1, 632908, Control_c, 0, 64, 0
1, 632997, Control_c, 0, 64, 26
1, 633015, Control_c, 0, 64, 53
1, 633035, Control_c, 0, 64, 76
1, 633053, Control_c, 0, 64, 90
1, 633072, Control_c, 0, 64, 104
1, 633074, Control_c, 0, 67, 12
1, 633091, Control_c, 0, 64, 108
1, 633139, Poly_aftertouch_c, 0, 48, 24
1, 633186, Note_on_c, 0, 48, 0
1, 633186, Poly_aftertouch_c, 0, 48, 0
1, 633237, Control_c, 0, 67, 0
1, 633346, Note_on_c, 0, 72, 0
1, 633566, Note_on_c, 0, 46, 38
1, 633791, Note_on_c, 0, 72, 68
1, 633857, Poly_aftertouch_c, 0, 46, 24
1, 633997, Note_on_c, 0, 46, 0
1, 633997, Poly_aftertouch_c, 0, 46, 0
1, 634092, Note_on_c, 0, 65, 54
1, 634103, Note_on_c, 0, 72, 0
1, 634115, Note_on_c, 0, 45, 40
1, 634153, Control_c, 0, 64, 94
1, 634172, Control_c, 0, 64, 71
1, 634191, Control_c, 0, 64, 35
1, 634210, Control_c, 0, 64, 0
1, 634321, Control_c, 0, 64, 39
1, 634338, Control_c, 0, 64, 62
1, 634357, Control_c, 0, 64, 77
1, 634376, Control_c, 0, 64, 88
1, 634393, Control_c, 0, 64, 98
1, 634412, Control_c, 0, 64, 104
1, 634449, Control_c, 0, 64, 110
1, 634493, Note_on_c, 0, 45, 0
1, 634503, Control_c, 0, 64, 114
1, 634651, Control_c, 0, 64, 118
1, 635129, Note_on_c, 0, 77, 57
1, 635200, Note_on_c, 0, 60, 41
1, 635202, Note_on_c, 0, 57, 37
1, 635525, Note_on_c, 0, 60, 0
1, 635547, Poly_aftertouch_c, 0, 65, 24
1, 635594, Note_on_c, 0, 65, 0
1, 635594, Poly_aftertouch_c, 0, 65, 0
1, 635609, Note_on_c, 0, 77, 0
1, 635687, Note_on_c, 0, 57, 0
1, 635964, Note_on_c, 0, 77, 75
1, 636063, Control_c, 0, 64, 122
1, 636210, Control_c, 0, 64, 126
1, 636222, Note_on_c, 0, 76, 79
1, 636254, Note_on_c, 0, 67, 46
1, 636255, Note_on_c, 0, 58, 44
1, 636259, Note_on_c, 0, 60, 44
1, 636265, Control_c, 0, 64, 117
1, 636283, Control_c, 0, 64, 90
1, 636302, Control_c, 0, 64, 44
1, 636304, Note_on_c, 0, 77, 0
1, 636320, Control_c, 0, 64, 0
1, 636393, Control_c, 0, 64, 16
1, 636412, Control_c, 0, 64, 42
1, 636432, Control_c, 0, 64, 65
1, 636449, Control_c, 0, 64, 81
1, 636468, Control_c, 0, 64, 95
1, 636485, Control_c, 0, 64, 105
1, 636504, Control_c, 0, 64, 110
1, 636587, Note_on_c, 0, 58, 0
1, 636795, Control_c, 0, 64, 114
1, 637035, Control_c, 0, 64, 118
1, 637164, Control_c, 0, 64, 122
1, 637253, Note_on_c, 0, 79, 66
1, 637262, Note_on_c, 0, 52, 36
1, 637272, Control_c, 0, 64, 126
1, 637311, Note_on_c, 0, 76, 0
1, 637367, Control_c, 0, 64, 116
1, 637385, Control_c, 0, 64, 99
1, 637404, Control_c, 0, 64, 77
1, 637420, Control_c, 0, 64, 61
1, 637440, Control_c, 0, 64, 60
1, 637457, Control_c, 0, 64, 66
1, 637477, Control_c, 0, 64, 75
1, 637493, Control_c, 0, 64, 87
1, 637513, Control_c, 0, 64, 101
1, 637531, Control_c, 0, 64, 110
1, 637550, Control_c, 0, 64, 114
1, 637707, Note_on_c, 0, 79, 0
1, 637889, Note_on_c, 0, 60, 0
1, 637940, Note_on_c, 0, 52, 0
1, 638216, Note_on_c, 0, 70, 65
1, 638248, Note_on_c, 0, 64, 52
1, 638287, Note_on_c, 0, 55, 37
1, 638287, Note_on_c, 0, 48, 38
1, 638292, Note_on_c, 0, 67, 0
1, 638356, Control_c, 0, 64, 109
1, 638375, Control_c, 0, 64, 91
1, 638394, Control_c, 0, 64, 68
1, 638412, Control_c, 0, 64, 49
1, 638429, Control_c, 0, 64, 46
1, 638466, Control_c, 0, 64, 59
1, 638485, Control_c, 0, 64, 71
1, 638506, Control_c, 0, 64, 81
1, 638523, Control_c, 0, 64, 91
1, 638541, Control_c, 0, 64, 101
1, 638562, Control_c, 0, 64, 107
1, 638579, Control_c, 0, 64, 111
1, 638662, Note_on_c, 0, 70, 0
1, 638667, Control_c, 0, 64, 115
1, 638772, Note_on_c, 0, 55, 0
1, 638798, Note_on_c, 0, 48, 0
1, 639006, Note_on_c, 0, 70, 64
1, 639072, Note_on_c, 0, 64, 0
1, 639084, Note_on_c, 0, 70, 0
1, 639207, Note_on_c, 0, 70, 62
1, 639286, Note_on_c, 0, 69, 65
1, 639289, Note_on_c, 0, 65, 36
1, 639293, Control_c, 0, 64, 119
1, 639296, Note_on_c, 0, 70, 0
1, 639316, Note_on_c, 0, 57, 38
1, 639326, Note_on_c, 0, 53, 31
1, 639348, Control_c, 0, 64, 109
1, 639365, Control_c, 0, 64, 83
1, 639384, Control_c, 0, 64, 42
1, 639401, Control_c, 0, 64, 0
1, 639478, Control_c, 0, 64, 26
1, 639495, Control_c, 0, 64, 48
1, 639515, Control_c, 0, 64, 67
1, 639547, Control_c, 0, 64, 76
1, 639565, Control_c, 0, 64, 82
1, 639655, Note_on_c, 0, 68, 62
1, 639659, Note_on_c, 0, 69, 0
1, 639676, Control_c, 0, 67, 8
1, 639786, Control_c, 0, 64, 79
1, 639806, Control_c, 0, 64, 77
1, 639808, Control_c, 0, 67, 12
1, 639824, Control_c, 0, 64, 75
1, 639860, Control_c, 0, 64, 72
1, 639873, Note_on_c, 0, 69, 67
1, 639877, Control_c, 0, 64, 70
1, 639896, Control_c, 0, 64, 67
1, 639916, Control_c, 0, 64, 65
1, 639926, Note_on_c, 0, 68, 0
1, 639932, Control_c, 0, 64, 63
1, 639971, Control_c, 0, 64, 62
1, 639974, Control_c, 0, 67, 16
1, 639989, Control_c, 0, 64, 61
1, 640007, Control_c, 0, 64, 60
1, 640044, Control_c, 0, 64, 57
1, 640046, Note_on_c, 0, 65, 0
1, 640046, Control_c, 0, 67, 20
1, 640084, Note_on_c, 0, 72, 52
1, 640088, Note_on_c, 0, 69, 0
1, 640098, Control_c, 0, 67, 24
1, 640173, Control_c, 0, 67, 30
1, 640211, Control_c, 0, 67, 36
1, 640227, Control_c, 0, 64, 55
1, 640265, Control_c, 0, 67, 41
1, 640301, Control_c, 0, 67, 48
1, 640338, Control_c, 0, 67, 53
1, 640394, Control_c, 0, 67, 57
1, 640433, Control_c, 0, 64, 53
1, 640434, Control_c, 0, 67, 65
1, 640482, Control_c, 0, 67, 69
1, 640519, Control_c, 0, 67, 75
1, 640537, Control_c, 0, 67, 80
1, 640548, Note_on_c, 0, 65, 35
1, 640554, Control_c, 0, 67, 86
1, 640574, Control_c, 0, 67, 91
1, 640592, Control_c, 0, 67, 96
1, 640598, Note_on_c, 0, 72, 0
1, 640611, Control_c, 0, 67, 103
1, 640629, Control_c, 0, 67, 110
1, 640648, Control_c, 0, 67, 117
1, 640651, Note_on_c, 0, 57, 0
1, 640668, Control_c, 0, 64, 51
1, 640670, Control_c, 0, 67, 124
1, 640683, Poly_aftertouch_c, 0, 53, 24
1, 640702, Control_c, 0, 64, 45
1, 640721, Control_c, 0, 64, 31
1, 640740, Control_c, 0, 64, 13
1, 640757, Note_on_c, 0, 53, 0
1, 640757, Poly_aftertouch_c, 0, 53, 0
1, 640758, Control_c, 0, 64, 0
1, 640925, Control_c, 0, 64, 22
1, 640942, Control_c, 0, 64, 44
1, 640961, Control_c, 0, 64, 61
1, 640980, Control_c, 0, 64, 73
1, 640998, Control_c, 0, 64, 81
1, 641015, Control_c, 0, 64, 88
1, 641034, Control_c, 0, 64, 94
1, 641053, Control_c, 0, 64, 98
1, 641091, Control_c, 0, 64, 103
1, 641418, Control_c, 0, 64, 107
1, 641529, Control_c, 0, 67, 116
1, 641547, Control_c, 0, 67, 109
1, 641565, Control_c, 0, 67, 102
1, 641585, Control_c, 0, 67, 93
1, 641597, Note_on_c, 0, 77, 52
1, 641603, Control_c, 0, 67, 83
1, 641621, Control_c, 0, 67, 71
1, 641638, Control_c, 0, 67, 57
1, 641653, Note_on_c, 0, 60, 34
1, 641656, Control_c, 0, 67, 44
1, 641664, Note_on_c, 0, 57, 30
1, 641676, Control_c, 0, 67, 30
1, 641694, Control_c, 0, 67, 18
1, 641732, Control_c, 0, 64, 111
1, 641770, Control_c, 0, 67, 0
1, 641877, Control_c, 0, 64, 115
1, 641922, Poly_aftertouch_c, 0, 65, 24
1, 641962, Note_on_c, 0, 77, 0
1, 641970, Note_on_c, 0, 60, 0
1, 641971, Note_on_c, 0, 65, 0
1, 641971, Poly_aftertouch_c, 0, 65, 0
1, 642025, Control_c, 0, 64, 119
1, 642086, Poly_aftertouch_c, 0, 57, 24
1, 642117, Control_c, 0, 64, 123
1, 642131, Note_on_c, 0, 57, 0
1, 642131, Poly_aftertouch_c, 0, 57, 0
1, 642190, Control_c, 0, 64, 127
1, 642406, Note_on_c, 0, 77, 71
1, 642659, Note_on_c, 0, 76, 72
1, 642705, Note_on_c, 0, 60, 40
1, 642710, Note_on_c, 0, 67, 50
1, 642713, Note_on_c, 0, 58, 38
1, 642740, Control_c, 0, 64, 106
1, 642760, Control_c, 0, 64, 71
1, 642764, Note_on_c, 0, 77, 0
1, 642778, Control_c, 0, 64, 31
1, 642797, Control_c, 0, 64, 11
1, 642851, Control_c, 0, 64, 33
1, 642869, Control_c, 0, 64, 54
1, 642886, Control_c, 0, 64, 72
1, 642906, Control_c, 0, 64, 84
1, 642924, Control_c, 0, 64, 94
1, 642942, Control_c, 0, 64, 100
1, 642980, Control_c, 0, 64, 105
1, 643204, Note_on_c, 0, 58, 0
1, 643677, Note_on_c, 0, 79, 61
1, 643700, Note_on_c, 0, 52, 37
1, 643765, Note_on_c, 0, 76, 0
1, 643786, Control_c, 0, 64, 89
1, 643805, Control_c, 0, 64, 72
1, 643823, Control_c, 0, 64, 59
1, 643841, Control_c, 0, 64, 57
1, 643879, Control_c, 0, 64, 63
1, 643897, Control_c, 0, 64, 71
1, 643916, Control_c, 0, 64, 81
1, 643934, Control_c, 0, 64, 90
1, 643952, Control_c, 0, 64, 97
1, 643970, Control_c, 0, 64, 101
1, 644008, Control_c, 0, 64, 106
1, 644112, Note_on_c, 0, 79, 0
1, 644242, Control_c, 0, 67, 8
1, 644321, Note_on_c, 0, 60, 0
1, 644679, Note_on_c, 0, 70, 66
1, 644714, Note_on_c, 0, 64, 47
1, 644724, Note_on_c, 0, 48, 42
1, 644730, Note_on_c, 0, 67, 0
1, 644743, Note_on_c, 0, 55, 41
1, 644813, Control_c, 0, 64, 93
1, 644832, Control_c, 0, 64, 74
1, 644843, Poly_aftertouch_c, 0, 52, 24
1, 644851, Control_c, 0, 64, 54
1, 644870, Control_c, 0, 64, 44
1, 644910, Note_on_c, 0, 52, 0
1, 644910, Poly_aftertouch_c, 0, 52, 0
1, 644924, Control_c, 0, 64, 53
1, 644944, Control_c, 0, 64, 67
1, 644962, Control_c, 0, 64, 75
1, 644978, Control_c, 0, 64, 82
1, 644999, Control_c, 0, 64, 86
1, 645035, Control_c, 0, 64, 90
1, 645090, Control_c, 0, 64, 95
1, 645187, Note_on_c, 0, 64, 0
1, 645191, Note_on_c, 0, 70, 0
1, 645537, Note_on_c, 0, 70, 73
1, 645714, Note_on_c, 0, 55, 0
1, 645786, Note_on_c, 0, 69, 60
1, 645824, Note_on_c, 0, 65, 43
1, 645837, Note_on_c, 0, 70, 0
1, 645841, Note_on_c, 0, 53, 30
1, 645842, Note_on_c, 0, 50, 34
1, 645879, Control_c, 0, 64, 80
1, 645897, Control_c, 0, 64, 58
1, 645908, Note_on_c, 0, 48, 0
1, 645914, Control_c, 0, 64, 20
1, 645933, Control_c, 0, 64, 0
1, 646045, Control_c, 0, 64, 33
1, 646064, Control_c, 0, 64, 54
1, 646097, Control_c, 0, 64, 70
1, 646114, Control_c, 0, 64, 78
1, 646134, Control_c, 0, 64, 85
1, 646153, Control_c, 0, 64, 89
1, 646187, Control_c, 0, 64, 96
1, 646209, Note_on_c, 0, 53, 0
1, 646225, Control_c, 0, 64, 100
1, 646243, Note_on_c, 0, 50, 0
1, 647103, Poly_aftertouch_c, 0, 65, 24
1, 647189, Note_on_c, 0, 46, 45
1, 647193, Note_on_c, 0, 34, 56
1, 647201, Note_on_c, 0, 65, 0
1, 647201, Poly_aftertouch_c, 0, 65, 0
1, 647254, Control_c, 0, 64, 88
1, 647270, Control_c, 0, 64, 72
1, 647289, Control_c, 0, 64, 47
1, 647310, Control_c, 0, 64, 0
1, 647394, Note_on_c, 0, 69, 0
1, 647456, Control_c, 0, 64, 15
1, 647474, Control_c, 0, 64, 42
1, 647491, Control_c, 0, 64, 56
1, 647510, Control_c, 0, 64, 67
1, 647530, Control_c, 0, 64, 74
1, 647547, Control_c, 0, 64, 78
1, 647565, Control_c, 0, 64, 82
1, 647583, Control_c, 0, 64, 86
1, 647601, Control_c, 0, 64, 90
1, 647620, Control_c, 0, 64, 94
1, 647638, Control_c, 0, 64, 98
1, 647695, Control_c, 0, 64, 102
1, 647732, Control_c, 0, 67, 12
1, 647991, Poly_aftertouch_c, 0, 46, 24
1, 648046, Note_on_c, 0, 46, 0
1, 648046, Poly_aftertouch_c, 0, 46, 0
1, 648260, Control_c, 0, 64, 98
1, 648410, Control_c, 0, 64, 94
1, 648483, Control_c, 0, 64, 89
1, 648483, Note_on_c, 0, 67, 56
1, 648500, Control_c, 0, 64, 87
1, 648502, Note_on_c, 0, 62, 49
1, 648512, Note_on_c, 0, 58, 39
1, 648518, Control_c, 0, 64, 85
1, 648537, Control_c, 0, 64, 83
1, 648556, Control_c, 0, 64, 80
1, 648571, Note_on_c, 0, 34, 0
1, 648574, Control_c, 0, 64, 76
1, 648593, Control_c, 0, 64, 71
1, 648613, Control_c, 0, 64, 67
1, 648630, Control_c, 0, 64, 66
1, 648704, Control_c, 0, 64, 65
1, 648814, Poly_aftertouch_c, 0, 65, 0
1, 648814, Control_c, 0, 64, 64
1, 648871, Control_c, 0, 64, 63
1, 649012, Control_c, 0, 64, 62
1, 649123, Control_c, 0, 64, 61
1, 649198, Control_c, 0, 64, 60
1, 649346, Control_c, 0, 64, 58
1, 649435, Control_c, 0, 67, 16
1, 649473, Control_c, 0, 64, 55
1, 649529, Control_c, 0, 67, 20
1, 649548, Control_c, 0, 64, 53
1, 649639, Control_c, 0, 64, 51
1, 649640, Control_c, 0, 67, 24
1, 649656, Note_on_c, 0, 67, 0
1, 649726, Note_on_c, 0, 58, 0
1, 649729, Control_c, 0, 67, 29
1, 649790, Note_on_c, 0, 62, 0
1, 649806, Control_c, 0, 64, 49
1, 649808, Control_c, 0, 67, 34
1, 649894, Control_c, 0, 67, 40
1, 649931, Control_c, 0, 67, 45
1, 649967, Control_c, 0, 67, 51
1, 649986, Control_c, 0, 67, 55
1, 650005, Control_c, 0, 64, 47
1, 650007, Control_c, 0, 67, 61
1, 650023, Control_c, 0, 67, 67
1, 650042, Control_c, 0, 67, 73
1, 650058, Control_c, 0, 67, 79
1, 650077, Control_c, 0, 67, 84
1, 650095, Control_c, 0, 67, 90
1, 650115, Control_c, 0, 67, 96
1, 650133, Control_c, 0, 67, 103
1, 650150, Control_c, 0, 64, 45
1, 650151, Control_c, 0, 67, 112
1, 650169, Control_c, 0, 67, 121
1, 650188, Control_c, 0, 67, 127
1, 650371, Control_c, 0, 64, 43
1, 650666, Control_c, 0, 64, 47
1, 650686, Control_c, 0, 64, 52
1, 650704, Control_c, 0, 64, 58
1, 650723, Control_c, 0, 64, 64
1, 650741, Control_c, 0, 64, 67
1, 650774, Control_c, 0, 64, 70
1, 650792, Control_c, 0, 64, 72
1, 650811, Control_c, 0, 64, 75
1, 650830, Control_c, 0, 64, 78
1, 650846, Control_c, 0, 64, 82
1, 650866, Control_c, 0, 64, 86
1, 650903, Control_c, 0, 64, 92
1, 650940, Control_c, 0, 64, 98
1, 650977, Control_c, 0, 64, 102
1, 651051, Control_c, 0, 64, 106
1, 651161, Control_c, 0, 64, 110
1, 651554, Note_on_c, 0, 36, 32
1, 651555, Note_on_c, 0, 48, 29
1, 652266, Poly_aftertouch_c, 0, 48, 24
1, 652365, Note_on_c, 0, 48, 0
1, 652365, Poly_aftertouch_c, 0, 48, 0
1, 652568, Poly_aftertouch_c, 0, 36, 24
1, 652688, Note_on_c, 0, 36, 0
1, 652688, Poly_aftertouch_c, 0, 36, 0
1, 652829, Control_c, 0, 64, 105
1, 652921, Control_c, 0, 64, 101
1, 652963, Note_on_c, 0, 64, 41
1, 652989, Note_on_c, 0, 55, 33
1, 653003, Note_on_c, 0, 58, 33
1, 653014, Control_c, 0, 64, 97
1, 653051, Control_c, 0, 64, 93
1, 653069, Control_c, 0, 64, 89
1, 653089, Control_c, 0, 64, 85
1, 653104, Control_c, 0, 64, 80
1, 653124, Control_c, 0, 64, 76
1, 653142, Control_c, 0, 64, 72
1, 653161, Control_c, 0, 64, 70
1, 653271, Control_c, 0, 64, 68
1, 653401, Control_c, 0, 64, 67
1, 653509, Control_c, 0, 64, 66
1, 653617, Control_c, 0, 64, 65
1, 653690, Control_c, 0, 64, 64
1, 653762, Poly_aftertouch_c, 0, 55, 24
1, 653764, Control_c, 0, 64, 63
1, 653820, Control_c, 0, 64, 62
1, 653893, Control_c, 0, 64, 61
1, 653987, Control_c, 0, 64, 60
1, 654015, Poly_aftertouch_c, 0, 55, 20
1, 654054, Note_on_c, 0, 55, 0
1, 654054, Poly_aftertouch_c, 0, 55, 0
1, 654200, Poly_aftertouch_c, 0, 64, 22
1, 654219, Note_on_c, 0, 64, 0
1, 654219, Poly_aftertouch_c, 0, 64, 0
1, 654279, Control_c, 0, 64, 58
1, 654307, Poly_aftertouch_c, 0, 58, 24
1, 654357, Note_on_c, 0, 58, 0
1, 654357, Poly_aftertouch_c, 0, 58, 0
1, 654588, Control_c, 0, 64, 56
1, 655106, Control_c, 0, 64, 58
1, 655123, Control_c, 0, 64, 60
1, 655215, Control_c, 0, 64, 61
1, 655235, Control_c, 0, 64, 62
1, 655307, Control_c, 0, 64, 63
1, 655327, Control_c, 0, 64, 64
1, 655344, Control_c, 0, 64, 65
1, 655362, Control_c, 0, 64, 66
1, 655380, Control_c, 0, 64, 67
1, 655417, Control_c, 0, 64, 69
1, 655488, Control_c, 0, 64, 72
1, 655524, Control_c, 0, 64, 76
1, 655543, Control_c, 0, 64, 79
1, 655562, Control_c, 0, 64, 82
1, 655581, Control_c, 0, 64, 85
1, 655599, Control_c, 0, 64, 88
1, 655636, Control_c, 0, 64, 92
1, 655674, Control_c, 0, 64, 99
1, 655709, Control_c, 0, 64, 105
1, 655747, Control_c, 0, 64, 109
1, 655801, Control_c, 0, 64, 113
1, 655876, Control_c, 0, 64, 118
1, 655969, Control_c, 0, 64, 122
1, 656097, Control_c, 0, 64, 126
1, 656675, Note_on_c, 0, 41, 27
1, 656691, Note_on_c, 0, 29, 30
1, 658127, Note_on_c, 0, 48, 38
1, 658673, Note_on_c, 0, 48, 0
1, 659322, Control_c, 0, 64, 122
1, 659354, Note_on_c, 0, 48, 38
1, 659360, Control_c, 0, 64, 116
1, 659378, Control_c, 0, 64, 112
1, 659395, Control_c, 0, 64, 106
1, 659414, Control_c, 0, 64, 98
1, 659433, Control_c, 0, 64, 87
1, 659452, Control_c, 0, 64, 76
1, 659471, Control_c, 0, 64, 66
1, 659490, Control_c, 0, 64, 61
1, 659507, Control_c, 0, 64, 60
1, 659545, Control_c, 0, 64, 57
1, 659562, Control_c, 0, 64, 54
1, 659579, Control_c, 0, 64, 49
1, 659598, Control_c, 0, 64, 44
1, 659617, Control_c, 0, 64, 39
1, 659635, Control_c, 0, 64, 35
1, 659646, Poly_aftertouch_c, 0, 48, 24
1, 659650, Note_on_c, 0, 57, 38
1, 659653, Control_c, 0, 64, 31
1, 659673, Control_c, 0, 64, 25
1, 659691, Control_c, 0, 64, 13
1, 659711, Control_c, 0, 64, 0
1, 659745, Note_on_c, 0, 48, 0
1, 659745, Poly_aftertouch_c, 0, 48, 0
1, 659876, Control_c, 0, 64, 22
1, 659893, Control_c, 0, 64, 39
1, 659912, Control_c, 0, 64, 52
1, 659932, Control_c, 0, 64, 68
1, 659949, Control_c, 0, 64, 76
1, 659967, Control_c, 0, 64, 83
1, 659985, Control_c, 0, 64, 88
1, 660004, Control_c, 0, 64, 92
1, 660022, Control_c, 0, 64, 98
1, 660041, Control_c, 0, 64, 103
1, 660080, Control_c, 0, 64, 108
1, 660081, Poly_aftertouch_c, 0, 41, 24
1, 660143, Note_on_c, 0, 29, 0
1, 660154, Note_on_c, 0, 41, 0
1, 660154, Poly_aftertouch_c, 0, 41, 0
1, 660275, Control_c, 0, 64, 112
1, 660959, Note_on_c, 0, 41, 35
1, 660973, Note_on_c, 0, 29, 35
1, 661064, Control_c, 0, 64, 105
1, 661084, Control_c, 0, 64, 93
1, 661103, Control_c, 0, 64, 74
1, 661121, Control_c, 0, 64, 49
1, 661138, Control_c, 0, 64, 23
1, 661156, Control_c, 0, 64, 0
1, 661295, Note_on_c, 0, 57, 0
1, 661324, Control_c, 0, 64, 22
1, 661341, Control_c, 0, 64, 40
1, 661361, Control_c, 0, 64, 57
1, 661377, Control_c, 0, 64, 72
1, 661397, Control_c, 0, 64, 81
1, 661414, Control_c, 0, 64, 89
1, 661434, Control_c, 0, 64, 94
1, 661451, Control_c, 0, 64, 99
1, 661487, Control_c, 0, 64, 104
1, 661563, Control_c, 0, 64, 108
1, 661765, Control_c, 0, 64, 112
1, 662184, Control_c, 0, 64, 116
1, 662294, Note_on_c, 0, 57, 47
1, 662468, Note_on_c, 0, 29, 0
1, 662757, Control_c, 0, 64, 120
1, 662778, Note_on_c, 0, 57, 0
1, 663157, Control_c, 0, 64, 124
1, 663354, Note_on_c, 0, 57, 47
1, 663649, Note_on_c, 0, 63, 55
1, 663734, Note_on_c, 0, 57, 0
1, 663747, Control_c, 0, 64, 120
1, 663784, Control_c, 0, 64, 116
1, 663821, Control_c, 0, 64, 110
1, 663871, Control_c, 0, 64, 102
1, 663891, Note_on_c, 0, 45, 57
1, 663891, Control_c, 0, 64, 98
1, 663928, Control_c, 0, 64, 91
1, 663964, Control_c, 0, 64, 87
1, 663982, Control_c, 0, 64, 84
1, 664001, Control_c, 0, 64, 81
1, 664018, Control_c, 0, 64, 77
1, 664036, Control_c, 0, 64, 73
1, 664055, Control_c, 0, 64, 71
1, 664112, Control_c, 0, 64, 69
1, 664148, Control_c, 0, 64, 67
1, 664163, Note_on_c, 0, 48, 54
1, 664168, Control_c, 0, 64, 66
1, 664184, Control_c, 0, 64, 65
1, 664203, Control_c, 0, 64, 60
1, 664221, Control_c, 0, 64, 46
1, 664227, Note_on_c, 0, 45, 0
1, 664241, Control_c, 0, 64, 13
1, 664257, Control_c, 0, 64, 0
1, 664424, Note_on_c, 0, 45, 45
1, 664442, Note_on_c, 0, 48, 0
1, 664481, Control_c, 0, 64, 31
1, 664498, Control_c, 0, 64, 49
1, 664517, Control_c, 0, 64, 68
1, 664536, Control_c, 0, 64, 79
1, 664556, Control_c, 0, 64, 87
1, 664572, Control_c, 0, 64, 91
1, 664611, Control_c, 0, 64, 96
1, 664628, Control_c, 0, 64, 100
1, 664649, Note_on_c, 0, 41, 0
1, 664651, Note_on_c, 0, 45, 0
1, 664673, Note_on_c, 0, 63, 0
1, 664681, Control_c, 0, 64, 104
1, 665084, Note_on_c, 0, 64, 33
1, 665120, Control_c, 0, 64, 99
1, 665130, Note_on_c, 0, 40, 31
1, 665158, Control_c, 0, 64, 92
1, 665176, Control_c, 0, 64, 85
1, 665193, Control_c, 0, 64, 72
1, 665214, Control_c, 0, 64, 53
1, 665230, Control_c, 0, 64, 31
1, 665248, Control_c, 0, 64, 8
1, 665268, Control_c, 0, 64, 0
1, 665564, Control_c, 0, 64, 20
1, 665580, Control_c, 0, 64, 36
1, 665599, Control_c, 0, 64, 49
1, 665618, Control_c, 0, 64, 64
1, 665637, Control_c, 0, 64, 72
1, 665653, Control_c, 0, 64, 76
1, 665671, Note_on_c, 0, 64, 0
1, 665671, Control_c, 0, 64, 78
1, 665677, Poly_aftertouch_c, 0, 40, 24
1, 665710, Control_c, 0, 64, 80
1, 665721, Note_on_c, 0, 40, 0
1, 665721, Poly_aftertouch_c, 0, 40, 0
1, 665762, Control_c, 0, 64, 82
1, 666204, Control_c, 0, 64, 84
1, 666322, Note_on_c, 0, 64, 37
1, 666335, Note_on_c, 0, 59, 28
1, 666337, Note_on_c, 0, 56, 28
1, 666340, Note_on_c, 0, 52, 30
1, 666370, Note_on_c, 0, 40, 28
1, 666424, Control_c, 0, 64, 79
1, 666443, Control_c, 0, 64, 71
1, 666461, Control_c, 0, 64, 61
1, 666481, Control_c, 0, 64, 57
1, 666516, Control_c, 0, 64, 52
1, 666534, Control_c, 0, 64, 48
1, 666554, Control_c, 0, 64, 46
1, 666607, Control_c, 0, 64, 55
1, 666626, Control_c, 0, 64, 63
1, 666645, Control_c, 0, 64, 68
1, 666678, Control_c, 0, 64, 70
1, 666716, Control_c, 0, 64, 72
1, 666751, Control_c, 0, 64, 74
1, 666801, Note_on_c, 0, 56, 0
1, 666803, Poly_aftertouch_c, 0, 59, 24
1, 666809, Poly_aftertouch_c, 0, 52, 20
1, 666826, Note_on_c, 0, 52, 0
1, 666826, Poly_aftertouch_c, 0, 52, 0
1, 666841, Note_on_c, 0, 59, 0
1, 666841, Poly_aftertouch_c, 0, 59, 0
1, 666881, Control_c, 0, 64, 76
1, 666882, Poly_aftertouch_c, 0, 40, 24
1, 666891, Note_on_c, 0, 64, 0
1, 666924, Note_on_c, 0, 40, 0
1, 666924, Poly_aftertouch_c, 0, 40, 0
1, 667213, Control_c, 0, 64, 78
1, 667303, Control_c, 0, 64, 81
1, 667533, Note_on_c, 0, 64, 36
1, 667555, Note_on_c, 0, 59, 26
1, 667557, Note_on_c, 0, 52, 16
1, 667557, Note_on_c, 0, 40, 23
1, 667570, Note_on_c, 0, 56, 27
1, 667652, Control_c, 0, 64, 75
1, 667671, Control_c, 0, 64, 65
1, 667687, Control_c, 0, 64, 54
1, 667706, Control_c, 0, 64, 49
1, 667725, Control_c, 0, 64, 46
1, 667778, Control_c, 0, 64, 50
1, 667798, Control_c, 0, 64, 60
1, 667816, Control_c, 0, 64, 67
1, 667835, Control_c, 0, 64, 71
1, 667853, Control_c, 0, 64, 74
1, 667873, Control_c, 0, 64, 76
1, 667910, Control_c, 0, 64, 79
1, 667928, Poly_aftertouch_c, 0, 52, 24
1, 667946, Control_c, 0, 64, 81
1, 667974, Poly_aftertouch_c, 0, 40, 24
1, 667980, Note_on_c, 0, 56, 0
1, 667983, Note_on_c, 0, 52, 0
1, 667983, Poly_aftertouch_c, 0, 52, 0
1, 667999, Control_c, 0, 64, 83
1, 668026, Poly_aftertouch_c, 0, 59, 24
1, 668030, Note_on_c, 0, 40, 0
1, 668030, Poly_aftertouch_c, 0, 40, 0
1, 668070, Note_on_c, 0, 59, 0
1, 668070, Poly_aftertouch_c, 0, 59, 0
1, 668073, Note_on_c, 0, 64, 0
1, 668295, Control_c, 0, 64, 85
1, 668813, Note_on_c, 0, 64, 29
1, 668824, Note_on_c, 0, 59, 26
1, 668841, Note_on_c, 0, 40, 28
1, 668843, Note_on_c, 0, 56, 23
1, 668856, Note_on_c, 0, 52, 15
1, 669010, Control_c, 0, 64, 87
1, 669140, Control_c, 0, 64, 91
1, 669193, Control_c, 0, 64, 96
1, 669250, Control_c, 0, 64, 100
1, 669306, Control_c, 0, 64, 104
1, 669324, Note_on_c, 0, 56, 0
1, 669324, Poly_aftertouch_c, 0, 59, 24
1, 669379, Control_c, 0, 64, 108
1, 669382, Note_on_c, 0, 59, 0
1, 669382, Poly_aftertouch_c, 0, 59, 0
1, 669388, Note_on_c, 0, 64, 0
1, 669485, Control_c, 0, 64, 113
1, 669528, Poly_aftertouch_c, 0, 52, 24
1, 669577, Control_c, 0, 64, 117
1, 669584, Note_on_c, 0, 52, 0
1, 669584, Poly_aftertouch_c, 0, 52, 0
1, 669652, Control_c, 0, 67, 123
1, 669669, Control_c, 0, 67, 117
1, 669689, Control_c, 0, 64, 121
1, 669689, Control_c, 0, 67, 109
1, 669706, Control_c, 0, 67, 99
1, 669725, Control_c, 0, 67, 88
1, 669744, Control_c, 0, 67, 77
1, 669763, Control_c, 0, 67, 67
1, 669781, Control_c, 0, 67, 58
1, 669798, Control_c, 0, 67, 50
1, 669816, Control_c, 0, 67, 42
1, 669836, Control_c, 0, 67, 35
1, 669853, Control_c, 0, 67, 29
1, 669871, Control_c, 0, 67, 23
1, 669889, Control_c, 0, 64, 125
1, 669890, Control_c, 0, 67, 18
1, 669909, Control_c, 0, 67, 14
1, 669927, Control_c, 0, 67, 10
1, 670167, Note_on_c, 0, 55, 43
1, 670259, Control_c, 0, 64, 112
1, 670277, Control_c, 0, 64, 88
1, 670298, Control_c, 0, 64, 51
1, 670315, Control_c, 0, 64, 0
1, 670458, Control_c, 0, 64, 26
1, 670478, Control_c, 0, 64, 42
1, 670496, Control_c, 0, 64, 63
1, 670512, Control_c, 0, 64, 76
1, 670532, Control_c, 0, 64, 87
1, 670550, Control_c, 0, 64, 93
1, 670585, Control_c, 0, 64, 99
1, 670624, Control_c, 0, 64, 105
1, 670626, Control_c, 0, 67, 0
1, 670660, Control_c, 0, 64, 110
1, 670716, Control_c, 0, 64, 115
1, 670755, Poly_aftertouch_c, 0, 52, 0
1, 670772, Control_c, 0, 64, 119
1, 670844, Control_c, 0, 64, 123
1, 670856, Note_on_c, 0, 55, 0
1, 670866, Poly_aftertouch_c, 0, 40, 24
1, 670918, Control_c, 0, 64, 127
1, 670972, Note_on_c, 0, 40, 0
1, 670972, Poly_aftertouch_c, 0, 40, 0
1, 671357, Note_on_c, 0, 55, 66
1, 671504, Control_c, 0, 64, 108
1, 671522, Control_c, 0, 64, 67
1, 671524, Control_c, 0, 67, 8
1, 671541, Control_c, 0, 64, 14
1, 671559, Control_c, 0, 64, 0
1, 671596, Control_c, 0, 64, 23
1, 671615, Control_c, 0, 64, 50
1, 671634, Control_c, 0, 64, 72
1, 671653, Control_c, 0, 64, 86
1, 671670, Control_c, 0, 64, 98
1, 671687, Control_c, 0, 64, 106
1, 671707, Control_c, 0, 64, 111
1, 671708, Control_c, 0, 67, 12
1, 671742, Control_c, 0, 64, 117
1, 671781, Control_c, 0, 67, 16
1, 671797, Control_c, 0, 64, 121
1, 671817, Control_c, 0, 67, 21
1, 671854, Control_c, 0, 67, 27
1, 671909, Control_c, 0, 67, 35
1, 671927, Control_c, 0, 67, 41
1, 671930, Note_on_c, 0, 55, 0
1, 671948, Control_c, 0, 67, 48
1, 671965, Control_c, 0, 67, 53
1, 672000, Control_c, 0, 67, 59
1, 672038, Control_c, 0, 67, 68
1, 672057, Control_c, 0, 67, 74
1, 672075, Control_c, 0, 67, 80
1, 672094, Control_c, 0, 67, 86
1, 672113, Control_c, 0, 67, 90
1, 672131, Control_c, 0, 67, 94
1, 672148, Control_c, 0, 67, 100
1, 672166, Control_c, 0, 67, 107
1, 672186, Control_c, 0, 67, 112
1, 672204, Control_c, 0, 67, 117
1, 672221, Control_c, 0, 67, 122
1, 672239, Control_c, 0, 67, 127
1, 672921, Note_on_c, 0, 55, 32
1, 672963, Note_on_c, 0, 40, 34
1, 672971, Note_on_c, 0, 52, 22
1, 673030, Control_c, 0, 64, 112
1, 673048, Control_c, 0, 64, 94
1, 673066, Control_c, 0, 64, 66
1, 673085, Control_c, 0, 64, 26
1, 673102, Control_c, 0, 64, 0
1, 673247, Control_c, 0, 64, 36
1, 673265, Control_c, 0, 64, 54
1, 673284, Control_c, 0, 64, 70
1, 673302, Control_c, 0, 64, 78
1, 673319, Control_c, 0, 64, 85
1, 673339, Control_c, 0, 64, 89
1, 673375, Control_c, 0, 64, 96
1, 673392, Control_c, 0, 64, 100
1, 673430, Control_c, 0, 64, 104
1, 673633, Control_c, 0, 64, 108
1, 674430, Note_on_c, 0, 59, 45
1, 674478, Control_c, 0, 64, 103
1, 674495, Control_c, 0, 64, 94
1, 674515, Control_c, 0, 64, 76
1, 674523, Poly_aftertouch_c, 0, 55, 24
1, 674532, Control_c, 0, 64, 50
1, 674549, Control_c, 0, 64, 10
1, 674567, Control_c, 0, 64, 0
1, 674699, Control_c, 0, 64, 38
1, 674715, Control_c, 0, 64, 59
1, 674735, Control_c, 0, 64, 75
1, 674752, Control_c, 0, 64, 86
1, 674772, Control_c, 0, 64, 96
1, 674779, Poly_aftertouch_c, 0, 55, 32
1, 674789, Control_c, 0, 64, 103
1, 674825, Control_c, 0, 64, 109
1, 674936, Control_c, 0, 64, 113
1, 674955, Note_on_c, 0, 59, 0
1, 675101, Poly_aftertouch_c, 0, 55, 24
1, 675590, Note_on_c, 0, 59, 38
1, 675885, Note_on_c, 0, 67, 46
1, 675928, Control_c, 0, 64, 105
1, 675945, Control_c, 0, 64, 94
1, 675964, Control_c, 0, 64, 74
1, 675982, Control_c, 0, 64, 47
1, 675995, Poly_aftertouch_c, 0, 55, 22
1, 675999, Control_c, 0, 64, 13
1, 676035, Control_c, 0, 64, 0
1, 676183, Control_c, 0, 64, 27
1, 676195, Note_on_c, 0, 59, 0
1, 676198, Control_c, 0, 64, 47
1, 676217, Control_c, 0, 64, 66
1, 676237, Control_c, 0, 64, 76
1, 676255, Control_c, 0, 64, 83
1, 676263, Poly_aftertouch_c, 0, 55, 24
1, 676274, Control_c, 0, 64, 88
1, 676293, Control_c, 0, 64, 92
1, 676312, Control_c, 0, 64, 96
1, 676330, Control_c, 0, 64, 100
1, 676385, Control_c, 0, 64, 104
1, 676574, Poly_aftertouch_c, 0, 40, 24
1, 676577, Poly_aftertouch_c, 0, 52, 24
1, 676614, Note_on_c, 0, 40, 0
1, 676614, Poly_aftertouch_c, 0, 40, 0
1, 676619, Note_on_c, 0, 52, 0
1, 676619, Poly_aftertouch_c, 0, 52, 0
1, 676642, Control_c, 0, 64, 108
1, 677162, Note_on_c, 0, 52, 33
1, 677170, Note_on_c, 0, 40, 33
1, 677209, Control_c, 0, 64, 104
1, 677229, Control_c, 0, 64, 97
1, 677247, Control_c, 0, 64, 83
1, 677266, Control_c, 0, 64, 61
1, 677282, Control_c, 0, 64, 31
1, 677283, Poly_aftertouch_c, 0, 55, 22
1, 677301, Control_c, 0, 64, 0
1, 677329, Note_on_c, 0, 55, 0
1, 677329, Poly_aftertouch_c, 0, 55, 0
1, 677522, Control_c, 0, 64, 23
1, 677542, Control_c, 0, 64, 34
1, 677555, Note_on_c, 0, 67, 0
1, 677560, Control_c, 0, 64, 38
1, 677578, Control_c, 0, 64, 46
1, 677596, Control_c, 0, 64, 59
1, 677614, Control_c, 0, 64, 68
1, 677632, Control_c, 0, 64, 73
1, 677651, Control_c, 0, 64, 76
1, 677670, Control_c, 0, 64, 79
1, 677689, Control_c, 0, 64, 81
1, 677707, Control_c, 0, 64, 84
1, 677727, Control_c, 0, 64, 88
1, 677762, Control_c, 0, 64, 95
1, 677800, Control_c, 0, 64, 100
1, 677872, Control_c, 0, 64, 105
1, 678054, Control_c, 0, 64, 109
1, 678434, Note_on_c, 0, 61, 55
1, 678531, Control_c, 0, 64, 113
1, 678679, Control_c, 0, 64, 118
1, 678751, Control_c, 0, 64, 122
1, 678788, Control_c, 0, 67, 118
1, 678808, Control_c, 0, 67, 112
1, 678827, Control_c, 0, 64, 127
1, 678845, Control_c, 0, 67, 105
1, 678860, Control_c, 0, 67, 96
1, 678879, Control_c, 0, 67, 86
1, 678897, Control_c, 0, 67, 74
1, 678918, Control_c, 0, 67, 61
1, 678933, Control_c, 0, 67, 48
1, 678951, Control_c, 0, 67, 37
1, 678955, Note_on_c, 0, 61, 0
1, 678971, Control_c, 0, 67, 27
1, 678989, Control_c, 0, 67, 19
1, 679006, Control_c, 0, 67, 12
1, 679099, Control_c, 0, 67, 0
1, 679276, Note_on_c, 0, 40, 0
1, 679426, Note_on_c, 0, 52, 0
1, 679437, Note_on_c, 0, 61, 51
1, 679629, Note_on_c, 0, 61, 0
1, 679708, Note_on_c, 0, 70, 60
1, 679941, Note_on_c, 0, 52, 60
1, 680162, Control_c, 0, 67, 8
1, 680200, Control_c, 0, 67, 12
1, 680208, Note_on_c, 0, 55, 56
1, 680219, Control_c, 0, 64, 122
1, 680237, Control_c, 0, 64, 118
1, 680250, Note_on_c, 0, 52, 0
1, 680254, Control_c, 0, 64, 113
1, 680255, Control_c, 0, 67, 16
1, 680275, Control_c, 0, 64, 107
1, 680276, Control_c, 0, 67, 22
1, 680295, Control_c, 0, 64, 98
1, 680297, Control_c, 0, 67, 31
1, 680312, Control_c, 0, 64, 87
1, 680313, Control_c, 0, 67, 40
1, 680329, Control_c, 0, 64, 77
1, 680330, Control_c, 0, 67, 47
1, 680348, Control_c, 0, 64, 70
1, 680350, Control_c, 0, 67, 52
1, 680367, Control_c, 0, 64, 68
1, 680368, Control_c, 0, 67, 58
1, 680385, Control_c, 0, 67, 67
1, 680402, Control_c, 0, 67, 78
1, 680421, Control_c, 0, 67, 86
1, 680439, Control_c, 0, 64, 67
1, 680441, Control_c, 0, 67, 93
1, 680458, Control_c, 0, 64, 66
1, 680459, Control_c, 0, 67, 100
1, 680477, Control_c, 0, 67, 106
1, 680495, Control_c, 0, 67, 111
1, 680499, Note_on_c, 0, 55, 0
1, 680503, Note_on_c, 0, 52, 39
1, 680514, Control_c, 0, 64, 65
1, 680517, Control_c, 0, 67, 117
1, 680534, Control_c, 0, 67, 122
1, 680551, Control_c, 0, 67, 127
1, 680587, Control_c, 0, 64, 64
1, 680659, Control_c, 0, 64, 63
1, 680750, Control_c, 0, 64, 62
1, 680788, Control_c, 0, 64, 61
1, 680842, Control_c, 0, 64, 60
1, 680990, Control_c, 0, 64, 58
1, 681024, Note_on_c, 0, 70, 0
1, 681034, Note_on_c, 0, 71, 38
1, 681067, Note_on_c, 0, 51, 29
1, 681082, Control_c, 0, 64, 56
1, 681099, Control_c, 0, 64, 50
1, 681108, Note_on_c, 0, 52, 0
1, 681115, Control_c, 0, 64, 36
1, 681135, Control_c, 0, 64, 12
1, 681155, Control_c, 0, 64, 0
1, 681337, Control_c, 0, 64, 23
1, 681357, Control_c, 0, 64, 41
1, 681375, Control_c, 0, 64, 55
1, 681394, Control_c, 0, 64, 66
1, 681412, Control_c, 0, 64, 70
1, 681449, Control_c, 0, 64, 72
1, 681471, Note_on_c, 0, 71, 0
1, 681485, Control_c, 0, 64, 75
1, 681522, Control_c, 0, 64, 78
1, 681570, Poly_aftertouch_c, 0, 51, 24
1, 681608, Note_on_c, 0, 51, 0
1, 681608, Poly_aftertouch_c, 0, 51, 0
1, 681704, Control_c, 0, 64, 80
1, 681759, Control_c, 0, 64, 82
1, 681832, Control_c, 0, 64, 84
1, 681869, Control_c, 0, 64, 87
1, 681960, Control_c, 0, 64, 91
1, 682053, Control_c, 0, 64, 95
1, 682198, Note_on_c, 0, 71, 43
1, 682210, Note_on_c, 0, 47, 31
1, 682211, Note_on_c, 0, 59, 29
1, 682220, Note_on_c, 0, 51, 31
1, 682222, Note_on_c, 0, 66, 28
1, 682247, Note_on_c, 0, 39, 31
1, 682311, Control_c, 0, 64, 91
1, 682329, Control_c, 0, 64, 78
1, 682347, Control_c, 0, 64, 61
1, 682365, Control_c, 0, 64, 52
1, 682421, Control_c, 0, 64, 55
1, 682440, Control_c, 0, 64, 64
1, 682458, Control_c, 0, 64, 71
1, 682477, Control_c, 0, 64, 75
1, 682494, Control_c, 0, 64, 79
1, 682513, Control_c, 0, 64, 82
1, 682550, Control_c, 0, 64, 84
1, 682603, Control_c, 0, 64, 86
1, 682623, Poly_aftertouch_c, 0, 39, 24
1, 682635, Poly_aftertouch_c, 0, 59, 24
1, 682667, Note_on_c, 0, 51, 0
1, 682686, Note_on_c, 0, 59, 0
1, 682686, Poly_aftertouch_c, 0, 59, 0
1, 682688, Note_on_c, 0, 39, 0
1, 682688, Poly_aftertouch_c, 0, 39, 0
1, 682713, Control_c, 0, 64, 88
1, 682734, Note_on_c, 0, 71, 0
1, 682740, Note_on_c, 0, 47, 0
1, 682795, Note_on_c, 0, 66, 0
1, 683406, Note_on_c, 0, 71, 43
1, 683407, Note_on_c, 0, 66, 37
1, 683412, Note_on_c, 0, 51, 29
1, 683419, Note_on_c, 0, 47, 31
1, 683420, Note_on_c, 0, 39, 31
1, 683429, Note_on_c, 0, 59, 19
1, 683448, Control_c, 0, 64, 83
1, 683467, Control_c, 0, 64, 73
1, 683486, Control_c, 0, 64, 58
1, 683504, Control_c, 0, 64, 49
1, 683539, Control_c, 0, 64, 46
1, 683611, Control_c, 0, 64, 57
1, 683631, Control_c, 0, 64, 67
1, 683648, Control_c, 0, 64, 73
1, 683667, Control_c, 0, 64, 78
1, 683684, Control_c, 0, 64, 81
1, 683721, Control_c, 0, 64, 83
1, 683758, Poly_aftertouch_c, 0, 59, 24
1, 683777, Control_c, 0, 64, 85
1, 683787, Note_on_c, 0, 39, 0
1, 683815, Note_on_c, 0, 51, 0
1, 683817, Note_on_c, 0, 59, 0
1, 683817, Poly_aftertouch_c, 0, 59, 0
1, 683887, Note_on_c, 0, 71, 0
1, 683901, Note_on_c, 0, 47, 0
1, 683940, Note_on_c, 0, 66, 0
1, 684562, Note_on_c, 0, 71, 45
1, 684578, Note_on_c, 0, 47, 26
1, 684580, Note_on_c, 0, 66, 34
1, 684586, Note_on_c, 0, 59, 26
1, 684589, Note_on_c, 0, 51, 25
1, 684591, Note_on_c, 0, 39, 28
1, 684657, Control_c, 0, 64, 79
1, 684676, Control_c, 0, 64, 67
1, 684695, Control_c, 0, 64, 50
1, 684712, Control_c, 0, 64, 40
1, 684732, Control_c, 0, 64, 36
1, 684805, Control_c, 0, 64, 53
1, 684824, Control_c, 0, 64, 67
1, 684842, Control_c, 0, 64, 73
1, 684860, Control_c, 0, 64, 77
1, 684878, Control_c, 0, 64, 79
1, 684897, Control_c, 0, 64, 82
1, 684915, Control_c, 0, 64, 84
1, 684934, Control_c, 0, 64, 87
1, 684957, Note_on_c, 0, 51, 0
1, 684990, Control_c, 0, 64, 91
1, 684994, Poly_aftertouch_c, 0, 59, 24
1, 685035, Note_on_c, 0, 59, 0
1, 685035, Poly_aftertouch_c, 0, 59, 0
1, 685044, Control_c, 0, 64, 95
1, 685079, Note_on_c, 0, 39, 0
1, 685098, Control_c, 0, 64, 99
1, 685134, Note_on_c, 0, 71, 0
1, 685172, Control_c, 0, 64, 103
1, 685189, Note_on_c, 0, 47, 0
1, 685200, Note_on_c, 0, 66, 0
1, 685283, Control_c, 0, 64, 107
1, 685319, Control_c, 0, 67, 120
1, 685338, Control_c, 0, 67, 113
1, 685356, Control_c, 0, 67, 103
1, 685376, Control_c, 0, 67, 92
1, 685408, Control_c, 0, 67, 80
1, 685426, Control_c, 0, 64, 111
1, 685428, Control_c, 0, 67, 69
1, 685444, Control_c, 0, 67, 60
1, 685464, Control_c, 0, 67, 53
1, 685483, Control_c, 0, 67, 48
1, 685520, Control_c, 0, 67, 43
1, 685555, Control_c, 0, 67, 34
1, 685574, Control_c, 0, 67, 27
1, 685593, Control_c, 0, 67, 20
1, 685612, Control_c, 0, 67, 12
1, 685687, Control_c, 0, 64, 115
1, 685759, Control_c, 0, 67, 0
1, 685890, Control_c, 0, 64, 119
1, 686011, Note_on_c, 0, 53, 43
1, 686039, Note_on_c, 0, 50, 32
1, 686127, Control_c, 0, 64, 105
1, 686144, Control_c, 0, 64, 83
1, 686164, Control_c, 0, 64, 58
1, 686183, Control_c, 0, 64, 44
1, 686256, Control_c, 0, 64, 50
1, 686274, Control_c, 0, 64, 62
1, 686292, Control_c, 0, 64, 72
1, 686313, Control_c, 0, 64, 80
1, 686343, Control_c, 0, 64, 87
1, 686362, Control_c, 0, 64, 92
1, 686381, Control_c, 0, 64, 96
1, 686418, Control_c, 0, 64, 102
1, 686455, Control_c, 0, 64, 106
1, 686509, Control_c, 0, 64, 110
1, 686603, Control_c, 0, 64, 115
1, 686649, Note_on_c, 0, 50, 0
1, 686669, Note_on_c, 0, 53, 0
1, 686730, Control_c, 0, 64, 119
1, 686841, Control_c, 0, 64, 123
1, 686934, Control_c, 0, 64, 127
1, 687111, Note_on_c, 0, 53, 67
1, 687152, Note_on_c, 0, 50, 44
1, 687248, Control_c, 0, 64, 111
1, 687279, Control_c, 0, 64, 81
1, 687298, Control_c, 0, 64, 49
1, 687318, Control_c, 0, 64, 29
1, 687410, Control_c, 0, 64, 49
1, 687427, Control_c, 0, 64, 67
1, 687445, Control_c, 0, 64, 77
1, 687464, Control_c, 0, 64, 85
1, 687482, Control_c, 0, 64, 91
1, 687519, Control_c, 0, 64, 96
1, 687558, Control_c, 0, 64, 102
1, 687593, Control_c, 0, 64, 107
1, 687653, Note_on_c, 0, 50, 0
1, 687685, Control_c, 0, 64, 111
1, 687732, Note_on_c, 0, 53, 0
1, 687779, Control_c, 0, 67, 8
1, 687925, Control_c, 0, 67, 12
1, 688016, Control_c, 0, 67, 17
1, 688073, Control_c, 0, 67, 22
1, 688110, Control_c, 0, 67, 26
1, 688146, Control_c, 0, 67, 33
1, 688163, Control_c, 0, 67, 37
1, 688214, Control_c, 0, 67, 44
1, 688234, Control_c, 0, 67, 48
1, 688251, Control_c, 0, 67, 53
1, 688271, Control_c, 0, 67, 59
1, 688289, Control_c, 0, 67, 66
1, 688308, Control_c, 0, 64, 107
1, 688310, Control_c, 0, 67, 72
1, 688327, Control_c, 0, 67, 78
1, 688345, Control_c, 0, 67, 83
1, 688363, Control_c, 0, 67, 88
1, 688381, Control_c, 0, 67, 94
1, 688400, Control_c, 0, 64, 103
1, 688401, Control_c, 0, 67, 101
1, 688419, Control_c, 0, 67, 108
1, 688435, Control_c, 0, 67, 114
1, 688454, Control_c, 0, 67, 118
1, 688473, Control_c, 0, 67, 123
1, 688492, Control_c, 0, 67, 127
1, 688530, Control_c, 0, 64, 99
1, 688674, Control_c, 0, 64, 95
1, 688768, Control_c, 0, 64, 90
1, 688770, Note_on_c, 0, 53, 35
1, 688777, Note_on_c, 0, 50, 34
1, 688786, Control_c, 0, 64, 86
1, 688805, Control_c, 0, 64, 79
1, 688823, Control_c, 0, 64, 68
1, 688841, Control_c, 0, 64, 55
1, 688861, Control_c, 0, 64, 40
1, 688878, Control_c, 0, 64, 23
1, 688914, Control_c, 0, 64, 0
1, 689118, Control_c, 0, 64, 29
1, 689151, Control_c, 0, 64, 44
1, 689169, Control_c, 0, 64, 57
1, 689188, Control_c, 0, 64, 70
1, 689206, Control_c, 0, 64, 76
1, 689224, Control_c, 0, 64, 81
1, 689244, Control_c, 0, 64, 84
1, 689262, Control_c, 0, 64, 87
1, 689297, Control_c, 0, 64, 91
1, 689371, Control_c, 0, 64, 95
1, 689438, Note_on_c, 0, 53, 0
1, 690196, Note_on_c, 0, 65, 47
1, 690715, Note_on_c, 0, 65, 0
1, 691390, Note_on_c, 0, 65, 38
1, 691680, Note_on_c, 0, 71, 46
1, 691795, Note_on_c, 0, 65, 0
1, 691887, Control_c, 0, 64, 91
1, 691953, Note_on_c, 0, 53, 34
1, 691976, Control_c, 0, 64, 88
1, 692050, Control_c, 0, 64, 86
1, 692124, Control_c, 0, 64, 84
1, 692207, Note_on_c, 0, 56, 40
1, 692242, Note_on_c, 0, 53, 0
1, 692327, Control_c, 0, 64, 86
1, 692381, Control_c, 0, 64, 90
1, 692435, Control_c, 0, 64, 94
1, 692443, Note_on_c, 0, 53, 41
1, 692458, Note_on_c, 0, 56, 0
1, 692507, Poly_aftertouch_c, 0, 50, 24
1, 692549, Note_on_c, 0, 50, 0
1, 692549, Poly_aftertouch_c, 0, 50, 0
1, 692854, Note_on_c, 0, 49, 34
1, 692859, Control_c, 0, 64, 87
1, 692893, Control_c, 0, 64, 80
1, 692898, Poly_aftertouch_c, 0, 53, 24
1, 692912, Control_c, 0, 64, 70
1, 692929, Control_c, 0, 64, 59
1, 692944, Note_on_c, 0, 53, 0
1, 692944, Poly_aftertouch_c, 0, 53, 0
1, 692947, Control_c, 0, 64, 55
1, 692967, Control_c, 0, 64, 50
1, 692986, Control_c, 0, 64, 46
1, 693004, Control_c, 0, 64, 44
1, 693096, Control_c, 0, 64, 47
1, 693113, Control_c, 0, 64, 58
1, 693132, Control_c, 0, 64, 65
1, 693150, Control_c, 0, 64, 68
1, 693170, Control_c, 0, 64, 70
1, 693207, Control_c, 0, 64, 74
1, 693225, Control_c, 0, 64, 77
1, 693243, Control_c, 0, 64, 81
1, 693263, Control_c, 0, 64, 83
1, 693280, Control_c, 0, 64, 85
1, 693336, Control_c, 0, 64, 87
1, 693441, Note_on_c, 0, 71, 0
1, 693520, Control_c, 0, 64, 91
1, 693724, Control_c, 0, 64, 95
1, 694135, Note_on_c, 0, 71, 45
1, 694620, Note_on_c, 0, 71, 0
1, 694826, Poly_aftertouch_c, 0, 49, 24
1, 695176, Note_on_c, 0, 71, 43
1, 695218, Poly_aftertouch_c, 0, 49, 32
1, 695298, Note_on_c, 0, 71, 0
1, 695443, Note_on_c, 0, 77, 47
1, 695630, Control_c, 0, 64, 91
1, 695695, Note_on_c, 0, 53, 38
1, 695718, Control_c, 0, 64, 87
1, 695737, Control_c, 0, 64, 85
1, 695754, Control_c, 0, 64, 83
1, 695793, Control_c, 0, 64, 80
1, 695830, Control_c, 0, 64, 77
1, 695952, Note_on_c, 0, 56, 43
1, 695967, Note_on_c, 0, 53, 0
1, 696015, Control_c, 0, 64, 80
1, 696032, Control_c, 0, 64, 82
1, 696070, Control_c, 0, 64, 85
1, 696105, Control_c, 0, 64, 87
1, 696176, Note_on_c, 0, 56, 0
1, 696198, Note_on_c, 0, 53, 40
1, 696291, Control_c, 0, 64, 91
1, 696388, Poly_aftertouch_c, 0, 49, 24
1, 696511, Note_on_c, 0, 49, 0
1, 696511, Poly_aftertouch_c, 0, 49, 0
1, 696512, Poly_aftertouch_c, 0, 49, 0
1, 696531, Note_on_c, 0, 48, 41
1, 696585, Control_c, 0, 64, 82
1, 696603, Control_c, 0, 64, 68
1, 696635, Control_c, 0, 64, 50
1, 696644, Note_on_c, 0, 53, 0
1, 696652, Control_c, 0, 64, 41
1, 696747, Control_c, 0, 64, 43
1, 696765, Control_c, 0, 64, 57
1, 696783, Control_c, 0, 64, 68
1, 696801, Control_c, 0, 64, 74
1, 696820, Control_c, 0, 64, 77
1, 696876, Control_c, 0, 64, 79
1, 696892, Control_c, 0, 64, 82
1, 696912, Control_c, 0, 64, 84
1, 696932, Control_c, 0, 64, 87
1, 697005, Control_c, 0, 64, 91
1, 697041, Note_on_c, 0, 77, 0
1, 697079, Control_c, 0, 64, 95
1, 697095, Control_c, 0, 67, 119
1, 697114, Control_c, 0, 67, 110
1, 697132, Control_c, 0, 67, 99
1, 697152, Control_c, 0, 67, 86
1, 697170, Control_c, 0, 67, 73
1, 697189, Control_c, 0, 67, 60
1, 697207, Control_c, 0, 67, 49
1, 697226, Control_c, 0, 67, 38
1, 697244, Control_c, 0, 67, 27
1, 697261, Control_c, 0, 67, 18
1, 697281, Control_c, 0, 67, 9
1, 697373, Control_c, 0, 64, 99
1, 697374, Control_c, 0, 67, 0
1, 697693, Note_on_c, 0, 77, 56
1, 698194, Note_on_c, 0, 77, 0
1, 698640, Note_on_c, 0, 77, 62
1, 698758, Note_on_c, 0, 77, 0
1, 698952, Note_on_c, 0, 80, 61
1, 699213, Note_on_c, 0, 53, 47
1, 699478, Note_on_c, 0, 56, 46
1, 699489, Note_on_c, 0, 53, 0
1, 699713, Note_on_c, 0, 53, 54
1, 699774, Note_on_c, 0, 56, 0
1, 700010, Note_on_c, 0, 47, 58
1, 700068, Control_c, 0, 64, 93
1, 700087, Control_c, 0, 64, 78
1, 700105, Control_c, 0, 64, 59
1, 700108, Note_on_c, 0, 48, 0
1, 700125, Control_c, 0, 64, 46
1, 700141, Control_c, 0, 64, 44
1, 700161, Note_on_c, 0, 53, 0
1, 700198, Control_c, 0, 64, 48
1, 700215, Control_c, 0, 64, 58
1, 700235, Control_c, 0, 64, 65
1, 700253, Control_c, 0, 64, 69
1, 700272, Control_c, 0, 64, 72
1, 700288, Control_c, 0, 64, 74
1, 700328, Control_c, 0, 64, 76
1, 700378, Control_c, 0, 64, 78
1, 700415, Control_c, 0, 64, 81
1, 700453, Control_c, 0, 64, 83
1, 700490, Control_c, 0, 64, 85
1, 700525, Control_c, 0, 64, 88
1, 700600, Control_c, 0, 64, 92
1, 700634, Note_on_c, 0, 80, 0
1, 700691, Control_c, 0, 64, 96
1, 701082, Note_on_c, 0, 77, 66
1, 701614, Note_on_c, 0, 77, 0
1, 701646, Control_c, 0, 64, 100
1, 702000, Note_on_c, 0, 77, 78
1, 702139, Note_on_c, 0, 77, 0
1, 702289, Note_on_c, 0, 86, 81
1, 702538, Note_on_c, 0, 53, 59
1, 702786, Note_on_c, 0, 56, 66
1, 702843, Note_on_c, 0, 53, 0
1, 702860, Note_on_c, 0, 47, 0
1, 703022, Control_c, 0, 64, 104
1, 703032, Note_on_c, 0, 53, 76
1, 703067, Note_on_c, 0, 56, 0
1, 703134, Control_c, 0, 64, 108
1, 703296, Control_c, 0, 64, 112
1, 703351, Control_c, 0, 64, 116
1, 703388, Control_c, 0, 64, 120
1, 703424, Control_c, 0, 64, 124
1, 703436, Note_on_c, 0, 44, 86
1, 703498, Control_c, 0, 64, 102
1, 703518, Control_c, 0, 64, 59
1, 703536, Control_c, 0, 64, 0
1, 703566, Note_on_c, 0, 53, 0
1, 703628, Control_c, 0, 64, 32
1, 703644, Control_c, 0, 64, 48
1, 703664, Control_c, 0, 64, 63
1, 703681, Control_c, 0, 64, 71
1, 703701, Control_c, 0, 64, 74
1, 703738, Control_c, 0, 64, 76
1, 703776, Control_c, 0, 64, 79
1, 703794, Control_c, 0, 64, 81
1, 703811, Control_c, 0, 64, 84
1, 703829, Control_c, 0, 64, 86
1, 703884, Control_c, 0, 64, 90
1, 703924, Note_on_c, 0, 86, 0
1, 703959, Control_c, 0, 64, 95
1, 704176, Control_c, 0, 64, 99
1, 704574, Note_on_c, 0, 77, 73
1, 704991, Note_on_c, 0, 77, 0
1, 705495, Note_on_c, 0, 77, 84
1, 705630, Note_on_c, 0, 77, 0
1, 705739, Note_on_c, 0, 89, 101
1, 705855, Poly_aftertouch_c, 0, 83, 0
1, 705959, Note_on_c, 0, 53, 68
1, 706092, Note_on_c, 0, 44, 0
1, 706104, Control_c, 0, 64, 95
1, 706213, Control_c, 0, 64, 91
1, 706247, Note_on_c, 0, 59, 72
1, 706292, Note_on_c, 0, 53, 0
1, 706481, Note_on_c, 0, 53, 58
1, 706518, Note_on_c, 0, 59, 0
1, 706709, Control_c, 0, 64, 88
1, 706965, Note_on_c, 0, 43, 62
1, 707038, Control_c, 0, 64, 85
1, 707057, Control_c, 0, 64, 72
1, 707076, Control_c, 0, 64, 47
1, 707111, Control_c, 0, 64, 0
1, 707167, Note_on_c, 0, 53, 0
1, 707184, Control_c, 0, 64, 22
1, 707203, Control_c, 0, 64, 43
1, 707222, Control_c, 0, 64, 59
1, 707239, Control_c, 0, 64, 68
1, 707257, Control_c, 0, 64, 70
1, 707701, Control_c, 0, 64, 72
1, 707739, Control_c, 0, 64, 75
1, 707774, Control_c, 0, 64, 78
1, 707811, Control_c, 0, 64, 81
1, 707862, Control_c, 0, 64, 83
1, 707881, Control_c, 0, 64, 85
1, 707918, Control_c, 0, 64, 87
1, 708047, Control_c, 0, 64, 91
1, 708132, Note_on_c, 0, 77, 71
1, 708463, Note_on_c, 0, 89, 0
1, 708498, Note_on_c, 0, 77, 0
1, 709031, Note_on_c, 0, 77, 77
1, 709196, Note_on_c, 0, 77, 0
1, 709303, Note_on_c, 0, 89, 88
1, 709537, Note_on_c, 0, 53, 63
1, 709585, Note_on_c, 0, 43, 0
1, 709785, Note_on_c, 0, 59, 72
1, 709789, Control_c, 0, 64, 95
1, 709818, Note_on_c, 0, 53, 0
1, 709977, Note_on_c, 0, 59, 0
1, 710025, Note_on_c, 0, 53, 68
1, 710046, Control_c, 0, 64, 99
1, 710177, Control_c, 0, 64, 104
1, 710226, Poly_aftertouch_c, 0, 50, 0
1, 710285, Control_c, 0, 64, 109
1, 710341, Control_c, 0, 64, 113
1, 710378, Control_c, 0, 64, 117
1, 710416, Control_c, 0, 64, 122
1, 710435, Note_on_c, 0, 44, 91
1, 710471, Control_c, 0, 64, 106
1, 710489, Control_c, 0, 64, 63
1, 710508, Control_c, 0, 64, 0
1, 710521, Poly_aftertouch_c, 0, 50, 0
1, 710544, Note_on_c, 0, 53, 0
1, 710669, Control_c, 0, 64, 32
1, 710688, Control_c, 0, 64, 51
1, 710707, Control_c, 0, 64, 67
1, 710726, Control_c, 0, 64, 73
1, 710743, Control_c, 0, 64, 76
1, 710761, Control_c, 0, 64, 79
1, 710781, Control_c, 0, 64, 82
1, 710801, Control_c, 0, 64, 85
1, 710817, Control_c, 0, 64, 87
1, 710854, Control_c, 0, 64, 91
1, 710888, Note_on_c, 0, 89, 0
1, 710907, Control_c, 0, 64, 97
1, 710981, Control_c, 0, 64, 101
1, 711547, Note_on_c, 0, 77, 85
1, 711933, Note_on_c, 0, 77, 0
1, 712468, Note_on_c, 0, 77, 87
1, 712618, Note_on_c, 0, 77, 0
1, 712706, Control_c, 0, 64, 105
1, 712839, Note_on_c, 0, 89, 101
1, 713161, Note_on_c, 0, 53, 77
1, 713240, Note_on_c, 0, 44, 0
1, 713369, Control_c, 0, 64, 101
1, 713557, Note_on_c, 0, 59, 84
1, 713598, Note_on_c, 0, 53, 0
1, 713854, Note_on_c, 0, 53, 81
1, 713973, Note_on_c, 0, 59, 0
1, 714027, Control_c, 0, 64, 105
1, 714162, Note_on_c, 0, 44, 78
1, 714194, Control_c, 0, 64, 93
1, 714212, Control_c, 0, 64, 73
1, 714232, Control_c, 0, 64, 53
1, 714248, Control_c, 0, 64, 45
1, 714304, Control_c, 0, 64, 56
1, 714324, Control_c, 0, 64, 67
1, 714331, Note_on_c, 0, 53, 0
1, 714342, Control_c, 0, 64, 73
1, 714360, Control_c, 0, 64, 76
1, 714380, Control_c, 0, 64, 79
1, 714430, Control_c, 0, 64, 81
1, 714469, Control_c, 0, 64, 83
1, 714494, Note_on_c, 0, 53, 77
1, 714640, Note_on_c, 0, 44, 0
1, 714750, Note_on_c, 0, 59, 76
1, 714800, Note_on_c, 0, 53, 0
1, 714867, Note_on_c, 0, 89, 0
1, 714870, Control_c, 0, 64, 85
1, 714963, Note_on_c, 0, 77, 88
1, 714964, Control_c, 0, 64, 87
1, 714970, Note_on_c, 0, 53, 62
1, 715039, Note_on_c, 0, 59, 0
1, 715058, Control_c, 0, 64, 91
1, 715111, Control_c, 0, 64, 95
1, 715148, Control_c, 0, 64, 99
1, 715247, Note_on_c, 0, 44, 68
1, 715259, Control_c, 0, 64, 89
1, 715276, Note_on_c, 0, 89, 94
1, 715277, Control_c, 0, 64, 73
1, 715296, Control_c, 0, 64, 56
1, 715315, Control_c, 0, 64, 50
1, 715329, Note_on_c, 0, 53, 0
1, 715386, Control_c, 0, 64, 57
1, 715403, Control_c, 0, 64, 66
1, 715421, Control_c, 0, 64, 72
1, 715438, Control_c, 0, 64, 77
1, 715456, Control_c, 0, 64, 82
1, 715476, Control_c, 0, 64, 85
1, 715495, Control_c, 0, 64, 87
1, 715523, Note_on_c, 0, 53, 58
1, 715619, Note_on_c, 0, 89, 0
1, 715639, Note_on_c, 0, 77, 0
1, 715649, Note_on_c, 0, 44, 0
1, 715678, Control_c, 0, 64, 91
1, 715696, Poly_aftertouch_c, 0, 87, 0
1, 715801, Note_on_c, 0, 59, 64
1, 715816, Note_on_c, 0, 53, 0
1, 715976, Poly_aftertouch_c, 0, 49, 0
1, 716008, Note_on_c, 0, 74, 88
1, 716019, Note_on_c, 0, 53, 57
1, 716030, Control_c, 0, 64, 95
1, 716032, Control_c, 0, 67, 8
1, 716090, Note_on_c, 0, 59, 0
1, 716103, Control_c, 0, 64, 100
1, 716195, Control_c, 0, 64, 104
1, 716295, Note_on_c, 0, 44, 62
1, 716304, Note_on_c, 0, 86, 90
1, 716320, Control_c, 0, 64, 88
1, 716338, Control_c, 0, 64, 71
1, 716359, Control_c, 0, 64, 57
1, 716363, Note_on_c, 0, 53, 0
1, 716411, Control_c, 0, 64, 60
1, 716431, Control_c, 0, 64, 67
1, 716448, Control_c, 0, 64, 73
1, 716468, Control_c, 0, 64, 79
1, 716486, Control_c, 0, 64, 84
1, 716505, Control_c, 0, 64, 87
1, 716533, Note_on_c, 0, 53, 58
1, 716628, Note_on_c, 0, 86, 0
1, 716651, Control_c, 0, 64, 91
1, 716655, Note_on_c, 0, 74, 0
1, 716674, Note_on_c, 0, 44, 0
1, 716818, Note_on_c, 0, 59, 62
1, 716841, Note_on_c, 0, 53, 0
1, 716854, Control_c, 0, 64, 95
1, 716929, Control_c, 0, 67, 12
1, 717036, Note_on_c, 0, 53, 50
1, 717045, Note_on_c, 0, 71, 80
1, 717058, Note_on_c, 0, 59, 0
1, 717112, Control_c, 0, 64, 99
1, 717363, Note_on_c, 0, 43, 53
1, 717377, Note_on_c, 0, 83, 79
1, 717383, Control_c, 0, 64, 90
1, 717403, Control_c, 0, 64, 69
1, 717410, Note_on_c, 0, 53, 0
1, 717422, Control_c, 0, 64, 36
1, 717441, Control_c, 0, 64, 0
1, 717496, Control_c, 0, 64, 10
1, 717514, Control_c, 0, 64, 36
1, 717530, Control_c, 0, 64, 57
1, 717549, Control_c, 0, 64, 71
1, 717567, Control_c, 0, 64, 77
1, 717587, Control_c, 0, 64, 79
1, 717665, Note_on_c, 0, 53, 54
1, 717714, Note_on_c, 0, 43, 0
1, 717715, Control_c, 0, 64, 81
1, 717719, Note_on_c, 0, 83, 0
1, 717730, Note_on_c, 0, 71, 0
1, 717895, Note_on_c, 0, 53, 0
1, 717924, Note_on_c, 0, 59, 49
1, 718141, Note_on_c, 0, 59, 0
1, 718154, Control_c, 0, 64, 83
1, 718156, Note_on_c, 0, 53, 46
1, 718166, Note_on_c, 0, 65, 63
1, 718320, Control_c, 0, 64, 85
1, 718414, Note_on_c, 0, 53, 0
1, 718436, Note_on_c, 0, 43, 47
1, 718448, Note_on_c, 0, 77, 61
1, 718466, Control_c, 0, 64, 80
1, 718485, Control_c, 0, 64, 73
1, 718504, Control_c, 0, 64, 67
1, 718523, Control_c, 0, 64, 66
1, 718560, Control_c, 0, 64, 69
1, 718578, Control_c, 0, 64, 72
1, 718597, Control_c, 0, 64, 75
1, 718615, Control_c, 0, 64, 77
1, 718651, Control_c, 0, 64, 81
1, 718680, Note_on_c, 0, 77, 0
1, 718683, Note_on_c, 0, 53, 54
1, 718688, Control_c, 0, 64, 83
1, 718691, Note_on_c, 0, 43, 0
1, 718780, Control_c, 0, 64, 85
1, 718798, Note_on_c, 0, 53, 0
1, 718809, Note_on_c, 0, 65, 0
1, 718880, Note_on_c, 0, 50, 36
1, 718938, Note_on_c, 0, 50, 0
1, 718971, Note_on_c, 0, 59, 37
1, 719096, Note_on_c, 0, 59, 0
1, 719196, Note_on_c, 0, 62, 60
1, 719219, Note_on_c, 0, 50, 31
1, 719313, Control_c, 0, 64, 87
1, 719431, Note_on_c, 0, 50, 0
1, 719470, Note_on_c, 0, 43, 48
1, 719481, Note_on_c, 0, 74, 57
1, 719515, Control_c, 0, 64, 85
1, 719532, Control_c, 0, 64, 75
1, 719551, Control_c, 0, 64, 64
1, 719568, Control_c, 0, 64, 60
1, 719605, Control_c, 0, 64, 63
1, 719626, Control_c, 0, 64, 68
1, 719641, Control_c, 0, 64, 73
1, 719660, Control_c, 0, 64, 78
1, 719679, Control_c, 0, 64, 83
1, 719698, Control_c, 0, 64, 87
1, 719730, Note_on_c, 0, 47, 39
1, 719838, Note_on_c, 0, 74, 0
1, 719901, Note_on_c, 0, 62, 0
1, 719922, Note_on_c, 0, 47, 0
1, 719968, Note_on_c, 0, 50, 38
1, 719972, Control_c, 0, 64, 91
1, 720176, Poly_aftertouch_c, 0, 43, 24
1, 720212, Note_on_c, 0, 43, 0
1, 720212, Poly_aftertouch_c, 0, 43, 0
1, 720218, Note_on_c, 0, 59, 62
1, 720229, Note_on_c, 0, 47, 41
1, 720238, Note_on_c, 0, 50, 0
1, 720394, Control_c, 0, 64, 95
1, 720509, Note_on_c, 0, 43, 45
1, 720525, Poly_aftertouch_c, 0, 47, 22
1, 720535, Note_on_c, 0, 71, 55
1, 720550, Note_on_c, 0, 47, 0
1, 720550, Poly_aftertouch_c, 0, 47, 0
1, 720558, Control_c, 0, 64, 90
1, 720577, Control_c, 0, 64, 77
1, 720596, Control_c, 0, 64, 61
1, 720615, Control_c, 0, 64, 55
1, 720670, Control_c, 0, 64, 61
1, 720689, Control_c, 0, 64, 68
1, 720707, Control_c, 0, 64, 74
1, 720725, Control_c, 0, 64, 79
1, 720744, Control_c, 0, 64, 83
1, 720761, Note_on_c, 0, 47, 39
1, 720761, Control_c, 0, 64, 86
1, 720796, Note_on_c, 0, 71, 0
1, 720797, Control_c, 0, 67, 16
1, 720845, Note_on_c, 0, 59, 0
1, 720853, Control_c, 0, 64, 90
1, 720854, Control_c, 0, 67, 21
1, 720896, Note_on_c, 0, 43, 0
1, 720909, Control_c, 0, 67, 25
1, 720984, Note_on_c, 0, 47, 0
1, 721053, Note_on_c, 0, 50, 30
1, 721275, Note_on_c, 0, 53, 50
1, 721281, Note_on_c, 0, 47, 37
1, 721283, Note_on_c, 0, 50, 0
1, 721535, Note_on_c, 0, 47, 0
1, 721571, Note_on_c, 0, 43, 32
1, 721573, Note_on_c, 0, 65, 50
1, 721607, Control_c, 0, 64, 88
1, 721624, Control_c, 0, 64, 78
1, 721643, Control_c, 0, 64, 67
1, 721660, Control_c, 0, 64, 61
1, 721697, Control_c, 0, 67, 29
1, 721717, Control_c, 0, 64, 66
1, 721733, Control_c, 0, 64, 70
1, 721753, Control_c, 0, 64, 75
1, 721754, Control_c, 0, 67, 33
1, 721770, Control_c, 0, 64, 79
1, 721789, Control_c, 0, 64, 83
1, 721802, Note_on_c, 0, 47, 36
1, 721808, Control_c, 0, 64, 86
1, 721881, Note_on_c, 0, 43, 0
1, 721933, Note_on_c, 0, 65, 0
1, 721984, Note_on_c, 0, 53, 0
1, 722025, Control_c, 0, 64, 90
1, 722039, Note_on_c, 0, 47, 0
1, 722043, Control_c, 0, 67, 38
1, 722081, Note_on_c, 0, 50, 36
1, 722136, Control_c, 0, 67, 42
1, 722192, Control_c, 0, 67, 46
1, 722218, Note_on_c, 0, 50, 0
1, 722226, Control_c, 0, 67, 50
1, 722265, Control_c, 0, 67, 55
1, 722320, Control_c, 0, 67, 60
1, 722323, Note_on_c, 0, 47, 43
1, 722339, Note_on_c, 0, 50, 54
1, 722358, Control_c, 0, 67, 64
1, 722393, Control_c, 0, 67, 70
1, 722430, Control_c, 0, 67, 77
1, 722467, Control_c, 0, 67, 84
1, 722504, Control_c, 0, 67, 90
1, 722542, Control_c, 0, 67, 98
1, 722579, Control_c, 0, 67, 104
1, 722589, Note_on_c, 0, 47, 0
1, 722615, Control_c, 0, 67, 112
1, 722626, Note_on_c, 0, 62, 56
1, 722632, Control_c, 0, 67, 116
1, 722651, Control_c, 0, 67, 120
1, 722655, Note_on_c, 0, 43, 41
1, 722669, Control_c, 0, 64, 87
1, 722670, Control_c, 0, 67, 125
1, 722688, Control_c, 0, 64, 77
1, 722706, Control_c, 0, 64, 65
1, 722725, Control_c, 0, 64, 58
1, 722799, Control_c, 0, 64, 61
1, 722819, Control_c, 0, 64, 67
1, 722850, Control_c, 0, 64, 71
1, 722869, Control_c, 0, 64, 75
1, 722887, Control_c, 0, 64, 78
1, 722907, Control_c, 0, 64, 81
1, 722914, Note_on_c, 0, 38, 34
1, 722942, Control_c, 0, 64, 83
1, 722979, Control_c, 0, 64, 86
1, 723035, Control_c, 0, 64, 88
1, 723082, Note_on_c, 0, 62, 0
1, 723145, Note_on_c, 0, 50, 0
1, 723203, Note_on_c, 0, 35, 37
1, 723207, Note_on_c, 0, 38, 0
1, 723469, Note_on_c, 0, 47, 50
1, 723490, Note_on_c, 0, 38, 36
1, 723648, Poly_aftertouch_c, 0, 35, 24
1, 723659, Poly_aftertouch_c, 0, 43, 24
1, 723793, Poly_aftertouch_c, 0, 38, 24
1, 723934, Note_on_c, 0, 59, 51
1, 723964, Note_on_c, 0, 31, 32
1, 723991, Control_c, 0, 64, 85
1, 724007, Control_c, 0, 64, 76
1, 724014, Poly_aftertouch_c, 0, 43, 22
1, 724017, Poly_aftertouch_c, 0, 35, 22
1, 724019, Note_on_c, 0, 38, 0
1, 724019, Poly_aftertouch_c, 0, 38, 0
1, 724025, Control_c, 0, 64, 60
1, 724044, Control_c, 0, 64, 37
1, 724053, Note_on_c, 0, 35, 0
1, 724053, Poly_aftertouch_c, 0, 35, 0
1, 724063, Control_c, 0, 64, 0
1, 724265, Control_c, 0, 64, 13
1, 724272, Poly_aftertouch_c, 0, 43, 20
1, 724284, Control_c, 0, 64, 38
1, 724302, Control_c, 0, 64, 48
1, 724312, Note_on_c, 0, 43, 0
1, 724312, Poly_aftertouch_c, 0, 43, 0
1, 724318, Control_c, 0, 64, 60
1, 724338, Control_c, 0, 64, 66
1, 724357, Control_c, 0, 64, 69
1, 724395, Control_c, 0, 64, 71
1, 724432, Control_c, 0, 64, 74
1, 724461, Poly_aftertouch_c, 0, 47, 24
1, 724467, Control_c, 0, 64, 77
1, 724510, Note_on_c, 0, 47, 0
1, 724510, Poly_aftertouch_c, 0, 47, 0
1, 724578, Control_c, 0, 64, 79
1, 724607, Note_on_c, 0, 59, 0
1, 724616, Note_on_c, 0, 31, 0
1, 724833, Control_c, 0, 64, 81
1, 724943, Control_c, 0, 64, 83
1, 725291, Note_on_c, 0, 53, 39
1, 725292, Control_c, 0, 64, 85
1, 725294, Note_on_c, 0, 47, 28
1, 725305, Note_on_c, 0, 43, 22
1, 725307, Note_on_c, 0, 50, 33
1, 725312, Note_on_c, 0, 31, 25
1, 725403, Control_c, 0, 64, 79
1, 725421, Control_c, 0, 64, 67
1, 725441, Control_c, 0, 64, 52
1, 725458, Control_c, 0, 64, 42
1, 725476, Control_c, 0, 64, 36
1, 725550, Control_c, 0, 64, 53
1, 725569, Control_c, 0, 64, 67
1, 725587, Control_c, 0, 64, 74
1, 725606, Control_c, 0, 64, 78
1, 725625, Control_c, 0, 64, 80
1, 725675, Control_c, 0, 64, 83
1, 725714, Control_c, 0, 64, 85
1, 725767, Control_c, 0, 64, 89
1, 725831, Note_on_c, 0, 47, 0
1, 725861, Control_c, 0, 67, 116
1, 725873, Note_on_c, 0, 31, 0
1, 725877, Control_c, 0, 64, 93
1, 725878, Note_on_c, 0, 43, 0
1, 725878, Control_c, 0, 67, 105
1, 725896, Control_c, 0, 67, 90
1, 725915, Control_c, 0, 67, 72
1, 725935, Control_c, 0, 64, 98
1, 725937, Note_on_c, 0, 50, 0
1, 725937, Control_c, 0, 67, 51
1, 725951, Control_c, 0, 67, 32
1, 725952, Note_on_c, 0, 53, 0
1, 725971, Control_c, 0, 67, 16
1, 726007, Control_c, 0, 64, 102
1, 726082, Control_c, 0, 64, 107
1, 726084, Control_c, 0, 67, 0
1, 726117, Control_c, 0, 64, 111
1, 726173, Control_c, 0, 64, 116
1, 726245, Control_c, 0, 64, 120
1, 726303, Control_c, 0, 64, 124
1, 726496, Note_on_c, 0, 53, 61
1, 726530, Note_on_c, 0, 31, 41
1, 726534, Note_on_c, 0, 50, 37
1, 726538, Note_on_c, 0, 47, 35
1, 726540, Note_on_c, 0, 43, 31
1, 726649, Control_c, 0, 64, 120
1, 726667, Control_c, 0, 64, 96
1, 726684, Control_c, 0, 64, 65
1, 726704, Control_c, 0, 64, 40
1, 726722, Control_c, 0, 64, 36
1, 726759, Control_c, 0, 64, 43
1, 726779, Control_c, 0, 64, 62
1, 726797, Control_c, 0, 64, 75
1, 726815, Control_c, 0, 64, 84
1, 726832, Control_c, 0, 64, 91
1, 726870, Control_c, 0, 64, 96
1, 726885, Note_on_c, 0, 43, 0
1, 726898, Poly_aftertouch_c, 0, 47, 24
1, 726904, Control_c, 0, 64, 100
1, 726943, Control_c, 0, 64, 106
1, 726961, Control_c, 0, 67, 8
1, 726979, Note_on_c, 0, 47, 0
1, 726979, Poly_aftertouch_c, 0, 47, 0
1, 727005, Note_on_c, 0, 31, 0
1, 727037, Control_c, 0, 67, 12
1, 727072, Control_c, 0, 67, 17
1, 727109, Control_c, 0, 67, 21
1, 727145, Control_c, 0, 67, 28
1, 727153, Note_on_c, 0, 53, 0
1, 727162, Note_on_c, 0, 50, 0
1, 727162, Control_c, 0, 67, 35
1, 727182, Control_c, 0, 67, 44
1, 727201, Control_c, 0, 67, 52
1, 727220, Control_c, 0, 67, 58
1, 727239, Control_c, 0, 67, 62
1, 727258, Control_c, 0, 67, 68
1, 727274, Control_c, 0, 67, 76
1, 727292, Control_c, 0, 67, 86
1, 727312, Control_c, 0, 67, 95
1, 727329, Control_c, 0, 67, 101
1, 727365, Control_c, 0, 67, 108
1, 727385, Control_c, 0, 67, 115
1, 727402, Control_c, 0, 67, 124
1, 727694, Control_c, 0, 64, 102
1, 727750, Control_c, 0, 64, 98
1, 727822, Control_c, 0, 64, 93
1, 727954, Control_c, 0, 64, 89
1, 728282, Control_c, 0, 64, 87
1, 728431, Note_on_c, 0, 53, 34
1, 728466, Note_on_c, 0, 44, 28
1, 728467, Note_on_c, 0, 50, 33
1, 728468, Note_on_c, 0, 47, 24
1, 728472, Note_on_c, 0, 32, 35
1, 728556, Control_c, 0, 64, 83
1, 728575, Control_c, 0, 64, 76
1, 728592, Control_c, 0, 64, 62
1, 728612, Control_c, 0, 64, 43
1, 728630, Control_c, 0, 64, 19
1, 728649, Control_c, 0, 64, 0
1, 728907, Control_c, 0, 64, 14
1, 728923, Control_c, 0, 64, 29
1, 728943, Control_c, 0, 64, 41
1, 728962, Control_c, 0, 64, 54
1, 728980, Control_c, 0, 64, 65
1, 728997, Control_c, 0, 64, 69
1, 729034, Control_c, 0, 64, 72
1, 729072, Control_c, 0, 64, 76
1, 729091, Control_c, 0, 64, 79
1, 729110, Control_c, 0, 64, 83
1, 729128, Control_c, 0, 64, 86
1, 729164, Control_c, 0, 64, 88
1, 729274, Control_c, 0, 64, 92
1, 729290, Poly_aftertouch_c, 0, 44, 24
1, 729430, Poly_aftertouch_c, 0, 47, 24
1, 729511, Control_c, 0, 64, 96
1, 729639, Control_c, 0, 64, 100
1, 729689, Poly_aftertouch_c, 0, 47, 20
1, 729702, Note_on_c, 0, 47, 0
1, 729702, Poly_aftertouch_c, 0, 47, 0
1, 730071, Note_on_c, 0, 50, 0
1, 730137, Control_c, 0, 64, 104
1, 730176, Note_on_c, 0, 53, 0
1, 730587, Poly_aftertouch_c, 0, 44, 32
1, 730614, Control_c, 0, 64, 108
1, 730826, Poly_aftertouch_c, 0, 44, 24
1, 731085, Poly_aftertouch_c, 0, 44, 22
1, 731146, Note_on_c, 0, 44, 0
1, 731146, Poly_aftertouch_c, 0, 44, 0
1, 731147, Poly_aftertouch_c, 0, 44, 0
1, 731308, Control_c, 0, 64, 104
1, 731375, Poly_aftertouch_c, 0, 32, 24
1, 731437, Control_c, 0, 64, 100
1, 731489, Note_on_c, 0, 32, 0
1, 731489, Poly_aftertouch_c, 0, 32, 0
1, 731583, Control_c, 0, 64, 96
1, 731730, Control_c, 0, 64, 92
1, 731772, Note_on_c, 0, 77, 57
1, 731804, Control_c, 0, 64, 87
1, 731842, Control_c, 0, 64, 84
1, 731860, Control_c, 0, 64, 81
1, 731879, Control_c, 0, 64, 76
1, 731898, Control_c, 0, 64, 73
1, 731916, Control_c, 0, 64, 70
1, 731970, Control_c, 0, 64, 68
1, 732008, Control_c, 0, 64, 66
1, 732062, Control_c, 0, 64, 65
1, 732119, Control_c, 0, 64, 64
1, 732175, Control_c, 0, 64, 63
1, 732316, Control_c, 0, 64, 62
1, 732373, Control_c, 0, 64, 61
1, 732410, Control_c, 0, 64, 60
1, 732593, Control_c, 0, 64, 66
1, 732613, Control_c, 0, 64, 70
1, 732631, Control_c, 0, 64, 75
1, 732651, Control_c, 0, 64, 79
1, 732667, Control_c, 0, 64, 83
1, 732686, Control_c, 0, 64, 86
1, 732722, Control_c, 0, 64, 91
1, 732759, Control_c, 0, 64, 95
1, 732792, Poly_aftertouch_c, 0, 77, 24
1, 732795, Control_c, 0, 64, 99
1, 732869, Control_c, 0, 64, 103
1, 733047, Poly_aftertouch_c, 0, 77, 32
1, 733323, Poly_aftertouch_c, 0, 77, 24
1, 733349, Note_on_c, 0, 76, 37
1, 733413, Note_on_c, 0, 77, 0
1, 733413, Poly_aftertouch_c, 0, 77, 0
1, 733414, Poly_aftertouch_c, 0, 77, 0
1, 733438, Control_c, 0, 64, 96
1, 733455, Control_c, 0, 64, 77
1, 733472, Control_c, 0, 64, 55
1, 733492, Control_c, 0, 64, 41
1, 733566, Control_c, 0, 64, 43
1, 733586, Control_c, 0, 64, 58
1, 733602, Control_c, 0, 64, 70
1, 733621, Control_c, 0, 64, 75
1, 733640, Control_c, 0, 64, 79
1, 733659, Control_c, 0, 64, 82
1, 733694, Control_c, 0, 64, 85
1, 733732, Control_c, 0, 64, 87
1, 733822, Note_on_c, 0, 76, 0
1, 734114, Control_c, 0, 64, 85
1, 734169, Control_c, 0, 64, 83
1, 734206, Control_c, 0, 64, 81
1, 734245, Control_c, 0, 64, 79
1, 734281, Control_c, 0, 64, 76
1, 734318, Control_c, 0, 64, 73
1, 734373, Control_c, 0, 64, 71
1, 734705, Control_c, 0, 64, 73
1, 734768, Note_on_c, 0, 52, 31
1, 734791, Note_on_c, 0, 48, 30
1, 734805, Note_on_c, 0, 45, 24
1, 734826, Note_on_c, 0, 33, 21
1, 734833, Control_c, 0, 64, 75
1, 734907, Control_c, 0, 64, 77
1, 734962, Control_c, 0, 64, 81
1, 735014, Control_c, 0, 64, 84
1, 735069, Control_c, 0, 64, 87
1, 735122, Poly_aftertouch_c, 0, 45, 20
1, 735137, Note_on_c, 0, 45, 0
1, 735137, Poly_aftertouch_c, 0, 45, 0
1, 735159, Control_c, 0, 64, 91
1, 735166, Poly_aftertouch_c, 0, 33, 24
1, 735233, Note_on_c, 0, 33, 0
1, 735233, Poly_aftertouch_c, 0, 33, 0
1, 735234, Note_on_c, 0, 48, 0
1, 735315, Note_on_c, 0, 52, 0
1, 736009, Note_on_c, 0, 52, 38
1, 736056, Note_on_c, 0, 45, 20
1, 736058, Note_on_c, 0, 48, 30
1, 736060, Note_on_c, 0, 33, 28
1, 736132, Control_c, 0, 64, 86
1, 736151, Control_c, 0, 64, 76
1, 736170, Control_c, 0, 64, 61
1, 736188, Control_c, 0, 64, 54
1, 736207, Control_c, 0, 64, 52
1, 736279, Control_c, 0, 64, 56
1, 736299, Control_c, 0, 64, 65
1, 736317, Control_c, 0, 64, 71
1, 736337, Control_c, 0, 64, 76
1, 736344, Poly_aftertouch_c, 0, 45, 24
1, 736354, Control_c, 0, 64, 81
1, 736374, Control_c, 0, 64, 85
1, 736392, Control_c, 0, 64, 88
1, 736400, Poly_aftertouch_c, 0, 33, 24
1, 736432, Note_on_c, 0, 45, 0
1, 736432, Poly_aftertouch_c, 0, 45, 0
1, 736465, Control_c, 0, 64, 92
1, 736466, Note_on_c, 0, 33, 0
1, 736466, Poly_aftertouch_c, 0, 33, 0
1, 736468, Note_on_c, 0, 48, 0
1, 736617, Note_on_c, 0, 52, 0
1, 737434, Note_on_c, 0, 52, 32
1, 737463, Note_on_c, 0, 45, 29
1, 737466, Note_on_c, 0, 48, 32
1, 737469, Note_on_c, 0, 33, 31
1, 737550, Control_c, 0, 64, 79
1, 737567, Control_c, 0, 64, 63
1, 737584, Control_c, 0, 64, 50
1, 737602, Control_c, 0, 64, 44
1, 737622, Control_c, 0, 64, 41
1, 737676, Control_c, 0, 64, 49
1, 737694, Control_c, 0, 64, 61
1, 737713, Control_c, 0, 64, 69
1, 737729, Control_c, 0, 64, 72
1, 737749, Control_c, 0, 64, 75
1, 737768, Control_c, 0, 64, 77
1, 737819, Control_c, 0, 64, 81
1, 737858, Control_c, 0, 64, 84
1, 737892, Control_c, 0, 64, 86
1, 738197, Poly_aftertouch_c, 0, 45, 24
1, 738349, Poly_aftertouch_c, 0, 48, 24
1, 738447, Poly_aftertouch_c, 0, 45, 22
1, 738503, Control_c, 0, 64, 84
1, 738557, Control_c, 0, 64, 82
1, 738591, Poly_aftertouch_c, 0, 48, 22
1, 738648, Control_c, 0, 64, 80
1, 738702, Poly_aftertouch_c, 0, 45, 20
1, 738706, Note_on_c, 0, 48, 0
1, 738706, Poly_aftertouch_c, 0, 48, 0
1, 738811, Control_c, 0, 64, 78
1, 738823, Note_on_c, 0, 45, 0
1, 738823, Poly_aftertouch_c, 0, 45, 0
1, 738939, Control_c, 0, 64, 76
1, 739032, Control_c, 0, 64, 74
1, 739159, Control_c, 0, 64, 72
1, 739289, Control_c, 0, 64, 74
1, 739326, Control_c, 0, 64, 77
1, 739364, Control_c, 0, 64, 81
1, 739382, Control_c, 0, 64, 83
1, 739401, Control_c, 0, 64, 85
1, 739420, Control_c, 0, 64, 87
1, 739445, Note_on_c, 0, 52, 0
1, 739493, Control_c, 0, 64, 92
1, 739565, Control_c, 0, 64, 96
1, 739691, Control_c, 0, 64, 100
1, 739756, Poly_aftertouch_c, 0, 45, 0
1, 740022, Poly_aftertouch_c, 0, 33, 22
1, 740042, Note_on_c, 0, 33, 0
1, 740042, Poly_aftertouch_c, 0, 33, 0
1, 740465, Control_c, 0, 64, 96
1, 740699, Control_c, 0, 64, 92
1, 740914, Note_on_c, 0, 76, 47
1, 740976, Control_c, 0, 64, 88
1, 740995, Control_c, 0, 64, 85
1, 741014, Control_c, 0, 64, 78
1, 741031, Control_c, 0, 64, 69
1, 741049, Control_c, 0, 64, 62
1, 741068, Control_c, 0, 64, 60
1, 741087, Control_c, 0, 64, 58
1, 741105, Control_c, 0, 64, 54
1, 741124, Control_c, 0, 64, 49
1, 741143, Control_c, 0, 64, 44
1, 741160, Control_c, 0, 64, 42
1, 741270, Control_c, 0, 64, 51
1, 741290, Control_c, 0, 64, 60
1, 741308, Control_c, 0, 64, 67
1, 741327, Control_c, 0, 64, 70
1, 741345, Control_c, 0, 64, 72
1, 741364, Control_c, 0, 64, 75
1, 741382, Control_c, 0, 64, 79
1, 741398, Control_c, 0, 64, 83
1, 741418, Control_c, 0, 64, 87
1, 741455, Control_c, 0, 64, 92
1, 741493, Control_c, 0, 64, 98
1, 741530, Control_c, 0, 64, 104
1, 741600, Control_c, 0, 64, 109
1, 741877, Poly_aftertouch_c, 0, 76, 20
1, 741880, Note_on_c, 0, 76, 0
1, 741880, Poly_aftertouch_c, 0, 76, 0
1, 742526, Note_on_c, 0, 74, 31
1, 742541, Note_on_c, 0, 29, 25
1, 742549, Note_on_c, 0, 41, 22
1, 742643, Control_c, 0, 64, 102
1, 742663, Control_c, 0, 64, 84
1, 742682, Control_c, 0, 64, 58
1, 742699, Control_c, 0, 64, 36
1, 742720, Control_c, 0, 64, 30
1, 742793, Control_c, 0, 64, 37
1, 742811, Control_c, 0, 64, 53
1, 742829, Control_c, 0, 64, 68
1, 742848, Control_c, 0, 64, 77
1, 742867, Control_c, 0, 64, 84
1, 742875, Poly_aftertouch_c, 0, 41, 24
1, 742881, Note_on_c, 0, 29, 0
1, 742881, Control_c, 0, 64, 91
1, 742902, Control_c, 0, 64, 97
1, 742920, Note_on_c, 0, 41, 0
1, 742920, Poly_aftertouch_c, 0, 41, 0
1, 742921, Control_c, 0, 64, 101
1, 742958, Control_c, 0, 64, 105
1, 743872, Note_on_c, 0, 57, 32
1, 743875, Note_on_c, 0, 53, 26
1, 743900, Note_on_c, 0, 50, 35
1, 743931, Control_c, 0, 64, 101
1, 743949, Control_c, 0, 64, 96
1, 743967, Control_c, 0, 64, 88
1, 743986, Control_c, 0, 64, 71
1, 744004, Control_c, 0, 64, 49
1, 744024, Control_c, 0, 64, 24
1, 744039, Control_c, 0, 64, 0
1, 744189, Control_c, 0, 64, 34
1, 744206, Control_c, 0, 64, 54
1, 744224, Control_c, 0, 64, 70
1, 744244, Control_c, 0, 64, 78
1, 744251, Poly_aftertouch_c, 0, 74, 24
1, 744262, Control_c, 0, 64, 83
1, 744279, Control_c, 0, 64, 87
1, 744287, Note_on_c, 0, 74, 0
1, 744287, Poly_aftertouch_c, 0, 74, 0
1, 744317, Control_c, 0, 64, 94
1, 744369, Control_c, 0, 64, 100
1, 744498, Control_c, 0, 64, 104
1, 744705, Poly_aftertouch_c, 0, 57, 24
1, 744815, Note_on_c, 0, 57, 0
1, 744815, Poly_aftertouch_c, 0, 57, 0
1, 744904, Poly_aftertouch_c, 0, 53, 24
1, 744970, Poly_aftertouch_c, 0, 50, 24
1, 745091, Note_on_c, 0, 53, 0
1, 745091, Poly_aftertouch_c, 0, 53, 0
1, 745104, Note_on_c, 0, 50, 0
1, 745104, Poly_aftertouch_c, 0, 50, 0
1, 745229, Note_on_c, 0, 74, 54
1, 745324, Control_c, 0, 64, 98
1, 745342, Control_c, 0, 64, 90
1, 745362, Control_c, 0, 64, 77
1, 745377, Control_c, 0, 64, 58
1, 745396, Control_c, 0, 64, 33
1, 745416, Control_c, 0, 64, 0
1, 745563, Control_c, 0, 64, 40
1, 745581, Control_c, 0, 64, 58
1, 745600, Control_c, 0, 64, 71
1, 745617, Control_c, 0, 64, 77
1, 745637, Control_c, 0, 64, 81
1, 745654, Control_c, 0, 64, 85
1, 745673, Control_c, 0, 64, 89
1, 745710, Control_c, 0, 64, 98
1, 745727, Control_c, 0, 64, 102
1, 745765, Control_c, 0, 64, 106
1, 745875, Control_c, 0, 64, 110
1, 746384, Poly_aftertouch_c, 0, 74, 24
1, 746428, Note_on_c, 0, 74, 0
1, 746428, Poly_aftertouch_c, 0, 74, 0
1, 746989, Note_on_c, 0, 79, 40
1, 747039, Note_on_c, 0, 43, 24
1, 747055, Note_on_c, 0, 31, 27
1, 747105, Control_c, 0, 64, 101
1, 747123, Control_c, 0, 64, 88
1, 747143, Control_c, 0, 64, 66
1, 747177, Control_c, 0, 64, 36
1, 747194, Control_c, 0, 64, 0
1, 747305, Control_c, 0, 64, 9
1, 747324, Control_c, 0, 64, 41
1, 747340, Control_c, 0, 64, 64
1, 747360, Control_c, 0, 64, 79
1, 747378, Control_c, 0, 64, 89
1, 747393, Poly_aftertouch_c, 0, 31, 24
1, 747395, Control_c, 0, 64, 96
1, 747410, Poly_aftertouch_c, 0, 43, 24
1, 747414, Control_c, 0, 64, 101
1, 747437, Note_on_c, 0, 31, 0
1, 747437, Poly_aftertouch_c, 0, 31, 0
1, 747452, Control_c, 0, 64, 107
1, 747464, Note_on_c, 0, 43, 0
1, 747464, Poly_aftertouch_c, 0, 43, 0
1, 747488, Control_c, 0, 64, 112
1, 748593, Note_on_c, 0, 55, 30
1, 748613, Note_on_c, 0, 47, 32
1, 748632, Note_on_c, 0, 50, 29
1, 748774, Control_c, 0, 64, 105
1, 748792, Control_c, 0, 64, 101
1, 748812, Control_c, 0, 64, 96
1, 748829, Control_c, 0, 64, 89
1, 748849, Control_c, 0, 64, 81
1, 748867, Control_c, 0, 64, 74
1, 748885, Control_c, 0, 64, 71
1, 748958, Control_c, 0, 64, 69
1, 748975, Control_c, 0, 64, 68
1, 749262, Poly_aftertouch_c, 0, 79, 24
1, 749266, Control_c, 0, 64, 67
1, 749313, Note_on_c, 0, 79, 0
1, 749313, Poly_aftertouch_c, 0, 79, 0
1, 749379, Control_c, 0, 64, 68
1, 749416, Control_c, 0, 64, 70
1, 749432, Control_c, 0, 64, 73
1, 749452, Control_c, 0, 64, 76
1, 749470, Control_c, 0, 64, 78
1, 749489, Control_c, 0, 64, 80
1, 749563, Control_c, 0, 64, 82
1, 749637, Control_c, 0, 64, 84
1, 749672, Control_c, 0, 64, 87
1, 749710, Control_c, 0, 64, 91
1, 749765, Control_c, 0, 64, 95
1, 749820, Control_c, 0, 64, 101
1, 749858, Control_c, 0, 64, 105
1, 749893, Control_c, 0, 64, 109
1, 749944, Poly_aftertouch_c, 0, 43, 0
1, 749948, Control_c, 0, 64, 113
1, 749986, Poly_aftertouch_c, 0, 47, 24
1, 750019, Control_c, 0, 64, 117
1, 750074, Control_c, 0, 64, 122
1, 750076, Note_on_c, 0, 47, 0
1, 750076, Poly_aftertouch_c, 0, 47, 0
1, 750108, Note_on_c, 0, 55, 0
1, 750141, Poly_aftertouch_c, 0, 50, 24
1, 750166, Control_c, 0, 64, 126
1, 750229, Note_on_c, 0, 50, 0
1, 750229, Poly_aftertouch_c, 0, 50, 0
1, 750241, Control_c, 0, 67, 117
1, 750260, Control_c, 0, 67, 113
1, 750278, Control_c, 0, 67, 108
1, 750295, Control_c, 0, 67, 101
1, 750314, Control_c, 0, 67, 94
1, 750332, Control_c, 0, 67, 86
1, 750352, Control_c, 0, 67, 80
1, 750367, Control_c, 0, 67, 73
1, 750387, Control_c, 0, 67, 67
1, 750405, Control_c, 0, 67, 62
1, 750424, Control_c, 0, 67, 57
1, 750462, Control_c, 0, 67, 50
1, 750499, Control_c, 0, 67, 43
1, 750517, Control_c, 0, 67, 39
1, 750535, Control_c, 0, 67, 34
1, 750552, Control_c, 0, 67, 27
1, 750572, Control_c, 0, 67, 21
1, 750590, Control_c, 0, 67, 15
1, 750608, Control_c, 0, 67, 10
1, 750738, Control_c, 0, 67, 0
1, 751343, Note_on_c, 0, 79, 72
1, 751470, Control_c, 0, 64, 120
1, 751489, Control_c, 0, 64, 113
1, 751490, Control_c, 0, 67, 8
1, 751508, Control_c, 0, 64, 105
1, 751527, Control_c, 0, 64, 95
1, 751543, Control_c, 0, 64, 86
1, 751562, Control_c, 0, 64, 79
1, 751581, Control_c, 0, 64, 76
1, 751599, Control_c, 0, 67, 12
1, 751675, Control_c, 0, 67, 17
1, 751709, Control_c, 0, 67, 24
1, 751747, Control_c, 0, 67, 29
1, 751802, Control_c, 0, 67, 36
1, 751854, Control_c, 0, 67, 42
1, 751891, Control_c, 0, 67, 48
1, 751928, Control_c, 0, 67, 53
1, 751964, Control_c, 0, 67, 57
1, 752002, Control_c, 0, 67, 63
1, 752056, Control_c, 0, 67, 70
1, 752093, Control_c, 0, 67, 77
1, 752131, Control_c, 0, 67, 83
1, 752166, Control_c, 0, 67, 88
1, 752185, Control_c, 0, 67, 92
1, 752222, Control_c, 0, 67, 99
1, 752258, Control_c, 0, 64, 74
1, 752259, Control_c, 0, 67, 105
1, 752295, Control_c, 0, 67, 111
1, 752333, Control_c, 0, 67, 118
1, 752352, Control_c, 0, 64, 72
1, 752370, Control_c, 0, 67, 123
1, 752406, Control_c, 0, 67, 127
1, 752644, Control_c, 0, 64, 75
1, 752700, Control_c, 0, 64, 78
1, 752737, Control_c, 0, 64, 81
1, 752790, Control_c, 0, 64, 84
1, 752808, Control_c, 0, 64, 86
1, 752846, Control_c, 0, 64, 92
1, 752882, Control_c, 0, 64, 98
1, 752919, Control_c, 0, 64, 102
1, 752953, Control_c, 0, 64, 106
1, 753010, Control_c, 0, 64, 111
1, 753067, Control_c, 0, 64, 116
1, 753120, Control_c, 0, 64, 120
1, 753125, Poly_aftertouch_c, 0, 79, 24
1, 753194, Control_c, 0, 64, 125
1, 753313, Note_on_c, 0, 79, 0
1, 753313, Poly_aftertouch_c, 0, 79, 0
1, 756188, Note_on_c, 0, 36, 38
1, 756482, Note_on_c, 0, 36, 0
1, 756585, Note_on_c, 0, 52, 37
1, 756785, Note_on_c, 0, 52, 0
1, 756820, Note_on_c, 0, 55, 24
1, 756969, Note_on_c, 0, 60, 36
1, 757194, Note_on_c, 0, 64, 47
1, 757221, Note_on_c, 0, 79, 57
1, 757229, Note_on_c, 0, 55, 0
1, 757240, Note_on_c, 0, 60, 0
1, 757373, Note_on_c, 0, 79, 0
1, 757389, Note_on_c, 0, 52, 35
1, 757440, Note_on_c, 0, 64, 0
1, 757516, Note_on_c, 0, 52, 0
1, 757536, Note_on_c, 0, 55, 38
1, 757660, Note_on_c, 0, 60, 35
1, 757742, Note_on_c, 0, 60, 0
1, 757747, Note_on_c, 0, 55, 0
1, 757755, Note_on_c, 0, 64, 50
1, 757785, Note_on_c, 0, 79, 62
1, 757930, Note_on_c, 0, 52, 15
1, 758000, Note_on_c, 0, 55, 49
1, 758004, Note_on_c, 0, 52, 0
1, 758024, Note_on_c, 0, 64, 0
1, 758129, Note_on_c, 0, 60, 47
1, 758204, Control_c, 0, 64, 121
1, 758247, Note_on_c, 0, 55, 0
1, 758263, Note_on_c, 0, 60, 0
1, 758270, Note_on_c, 0, 64, 45
1, 758313, Control_c, 0, 64, 117
1, 758374, Note_on_c, 0, 52, 33
1, 758448, Note_on_c, 0, 52, 0
1, 758494, Control_c, 0, 64, 113
1, 758509, Note_on_c, 0, 76, 65
1, 758530, Note_on_c, 0, 55, 16
1, 758572, Poly_aftertouch_c, 0, 64, 24
1, 758603, Note_on_c, 0, 60, 45
1, 758611, Note_on_c, 0, 64, 0
1, 758611, Poly_aftertouch_c, 0, 64, 0
1, 758611, Poly_aftertouch_c, 0, 64, 0
1, 758612, Note_on_c, 0, 55, 0
1, 758624, Control_c, 0, 64, 109
1, 758647, Poly_aftertouch_c, 0, 72, 127
1, 758655, Note_on_c, 0, 60, 0
1, 758760, Poly_aftertouch_c, 0, 72, 0
1, 758772, Control_c, 0, 64, 104
1, 758801, Note_on_c, 0, 79, 0
1, 758841, Note_on_c, 0, 74, 57
1, 758882, Control_c, 0, 64, 100
1, 758906, Note_on_c, 0, 53, 35
1, 758938, Control_c, 0, 64, 96
1, 758991, Note_on_c, 0, 76, 0
1, 759030, Control_c, 0, 64, 92
1, 759047, Note_on_c, 0, 55, 31
1, 759059, Note_on_c, 0, 53, 0
1, 759150, Note_on_c, 0, 59, 42
1, 759249, Control_c, 0, 64, 87
1, 759282, Note_on_c, 0, 55, 0
1, 759286, Control_c, 0, 64, 85
1, 759291, Note_on_c, 0, 62, 49
1, 759308, Note_on_c, 0, 67, 60
1, 759320, Note_on_c, 0, 59, 0
1, 759357, Control_c, 0, 64, 83
1, 759414, Control_c, 0, 64, 81
1, 759446, Note_on_c, 0, 53, 36
1, 759476, Note_on_c, 0, 74, 0
1, 759513, Note_on_c, 0, 53, 0
1, 759541, Control_c, 0, 64, 79
1, 759581, Note_on_c, 0, 55, 28
1, 759666, Poly_aftertouch_c, 0, 62, 20
1, 759671, Note_on_c, 0, 62, 0
1, 759671, Poly_aftertouch_c, 0, 62, 0
1, 759675, Note_on_c, 0, 59, 38
1, 759708, Control_c, 0, 64, 77
1, 759722, Note_on_c, 0, 55, 0
1, 759734, Note_on_c, 0, 59, 0
1, 759780, Control_c, 0, 64, 75
1, 759824, Note_on_c, 0, 72, 61
1, 759938, Note_on_c, 0, 52, 33
1, 760011, Note_on_c, 0, 52, 0
1, 760039, Control_c, 0, 64, 77
1, 760061, Note_on_c, 0, 55, 31
1, 760112, Control_c, 0, 64, 79
1, 760151, Note_on_c, 0, 60, 43
1, 760204, Control_c, 0, 64, 81
1, 760303, Note_on_c, 0, 60, 0
1, 760327, Note_on_c, 0, 64, 34
1, 760332, Note_on_c, 0, 55, 0
1, 760335, Note_on_c, 0, 76, 50
1, 760394, Note_on_c, 0, 76, 0
1, 760396, Note_on_c, 0, 67, 0
1, 760405, Note_on_c, 0, 72, 0
1, 760528, Poly_aftertouch_c, 0, 52, 127
1, 760554, Poly_aftertouch_c, 0, 52, 0
1, 760576, Note_on_c, 0, 55, 35
1, 760610, Poly_aftertouch_c, 0, 64, 24
1, 760658, Note_on_c, 0, 64, 0
1, 760658, Poly_aftertouch_c, 0, 64, 0
1, 760658, Poly_aftertouch_c, 0, 64, 0
1, 760659, Note_on_c, 0, 60, 37
1, 760691, Note_on_c, 0, 55, 0
1, 760720, Note_on_c, 0, 60, 0
1, 760745, Note_on_c, 0, 48, 45
1, 760875, Note_on_c, 0, 48, 0
1, 760887, Note_on_c, 0, 36, 42
1, 760935, Note_on_c, 0, 36, 0
1, 760961, Note_on_c, 0, 52, 36
1, 760972, Control_c, 0, 64, 84
1, 761009, Control_c, 0, 64, 86
1, 761086, Note_on_c, 0, 55, 47
1, 761087, Note_on_c, 0, 52, 0
1, 761103, Control_c, 0, 64, 91
1, 761192, Note_on_c, 0, 60, 44
1, 761319, Note_on_c, 0, 64, 49
1, 761353, Note_on_c, 0, 55, 0
1, 761361, Note_on_c, 0, 79, 62
1, 761374, Note_on_c, 0, 60, 0
1, 761463, Note_on_c, 0, 79, 0
1, 761469, Note_on_c, 0, 52, 36
1, 761498, Note_on_c, 0, 64, 0
1, 761570, Note_on_c, 0, 52, 0
1, 761604, Note_on_c, 0, 55, 30
1, 761687, Note_on_c, 0, 60, 37
1, 761706, Note_on_c, 0, 55, 0
1, 761819, Note_on_c, 0, 64, 51
1, 761831, Note_on_c, 0, 79, 70
1, 761848, Note_on_c, 0, 60, 0
1, 761969, Note_on_c, 0, 52, 24
1, 761990, Note_on_c, 0, 64, 0
1, 762039, Note_on_c, 0, 52, 0
1, 762072, Note_on_c, 0, 55, 40
1, 762206, Note_on_c, 0, 60, 43
1, 762300, Note_on_c, 0, 55, 0
1, 762313, Note_on_c, 0, 60, 0
1, 762332, Note_on_c, 0, 64, 45
1, 762441, Note_on_c, 0, 52, 39
1, 762515, Note_on_c, 0, 52, 0
1, 762564, Note_on_c, 0, 76, 63
1, 762574, Note_on_c, 0, 55, 32
1, 762618, Poly_aftertouch_c, 0, 64, 24
1, 762651, Note_on_c, 0, 60, 48
1, 762663, Note_on_c, 0, 64, 0
1, 762663, Poly_aftertouch_c, 0, 64, 0
1, 762664, Poly_aftertouch_c, 0, 64, 0
1, 762668, Note_on_c, 0, 55, 0
1, 762701, Note_on_c, 0, 60, 0
1, 762850, Note_on_c, 0, 74, 52
1, 762864, Control_c, 0, 64, 88
1, 762871, Note_on_c, 0, 79, 0
1, 762963, Note_on_c, 0, 53, 37
1, 762965, Note_on_c, 0, 76, 0
1, 763043, Note_on_c, 0, 53, 0
1, 763089, Note_on_c, 0, 55, 36
1, 763190, Control_c, 0, 64, 86
1, 763191, Note_on_c, 0, 59, 44
1, 763232, Note_on_c, 0, 55, 0
1, 763307, Note_on_c, 0, 59, 0
1, 763323, Note_on_c, 0, 62, 48
1, 763325, Note_on_c, 0, 67, 52
1, 763441, Note_on_c, 0, 74, 0
1, 763450, Note_on_c, 0, 53, 38
1, 763516, Note_on_c, 0, 53, 0
1, 763572, Note_on_c, 0, 55, 31
1, 763654, Note_on_c, 0, 59, 51
1, 763662, Note_on_c, 0, 62, 0
1, 763719, Note_on_c, 0, 59, 0
1, 763726, Note_on_c, 0, 55, 0
1, 763744, Control_c, 0, 64, 83
1, 763804, Note_on_c, 0, 72, 53
1, 763835, Control_c, 0, 64, 81
1, 764071, Control_c, 0, 64, 79
1, 764108, Control_c, 0, 64, 77
1, 764118, Note_on_c, 0, 52, 40
1, 764124, Note_on_c, 0, 67, 0
1, 764127, Control_c, 0, 64, 75
1, 764146, Control_c, 0, 64, 71
1, 764164, Control_c, 0, 64, 64
1, 764172, Note_on_c, 0, 72, 0
1, 764180, Control_c, 0, 64, 53
1, 764182, Note_on_c, 0, 52, 0
1, 764199, Control_c, 0, 64, 32
1, 764218, Control_c, 0, 64, 0
1, 764223, Note_on_c, 0, 55, 48
1, 764339, Note_on_c, 0, 55, 0
1, 764345, Note_on_c, 0, 60, 46
1, 764402, Note_on_c, 0, 60, 0
1, 764420, Note_on_c, 0, 64, 56
1, 764528, Note_on_c, 0, 64, 0
1, 764547, Note_on_c, 0, 62, 51
1, 764651, Note_on_c, 0, 62, 0
1, 764664, Note_on_c, 0, 60, 45
1, 764667, Note_on_c, 0, 43, 41
1, 764758, Note_on_c, 0, 60, 0
1, 764772, Note_on_c, 0, 59, 52
1, 764784, Note_on_c, 0, 31, 46
1, 764843, Note_on_c, 0, 59, 0
1, 764862, Control_c, 0, 64, 35
1, 764881, Control_c, 0, 64, 47
1, 764889, Note_on_c, 0, 55, 48
1, 764900, Control_c, 0, 64, 58
1, 764917, Note_on_c, 0, 31, 0
1, 764918, Control_c, 0, 64, 66
1, 764931, Note_on_c, 0, 43, 0
1, 764936, Control_c, 0, 64, 68
1, 764969, Control_c, 0, 64, 70
1, 765006, Control_c, 0, 64, 74
1, 765025, Control_c, 0, 64, 77
1, 765041, Note_on_c, 0, 59, 39
1, 765043, Note_on_c, 0, 55, 0
1, 765044, Control_c, 0, 64, 82
1, 765063, Control_c, 0, 64, 86
1, 765117, Control_c, 0, 64, 90
1, 765149, Note_on_c, 0, 62, 36
1, 765192, Control_c, 0, 64, 94
1, 765233, Note_on_c, 0, 59, 0
1, 765310, Note_on_c, 0, 62, 0
1, 765337, Note_on_c, 0, 77, 66
1, 765343, Note_on_c, 0, 67, 53
1, 765470, Note_on_c, 0, 77, 0
1, 765486, Note_on_c, 0, 55, 26
1, 765537, Note_on_c, 0, 67, 0
1, 765546, Note_on_c, 0, 55, 0
1, 765571, Note_on_c, 0, 59, 45
1, 765576, Control_c, 0, 64, 98
1, 765697, Note_on_c, 0, 62, 37
1, 765707, Note_on_c, 0, 59, 0
1, 765762, Note_on_c, 0, 62, 0
1, 765809, Note_on_c, 0, 67, 54
1, 765811, Note_on_c, 0, 77, 71
1, 765965, Note_on_c, 0, 55, 35
1, 765977, Note_on_c, 0, 67, 0
1, 766023, Note_on_c, 0, 55, 0
1, 766055, Note_on_c, 0, 59, 42
1, 766182, Note_on_c, 0, 62, 42
1, 766216, Note_on_c, 0, 59, 0
1, 766289, Note_on_c, 0, 62, 0
1, 766301, Note_on_c, 0, 67, 45
1, 766375, Note_on_c, 0, 67, 0
1, 766421, Note_on_c, 0, 55, 40
1, 766523, Note_on_c, 0, 74, 69
1, 766537, Note_on_c, 0, 59, 48
1, 766550, Note_on_c, 0, 55, 0
1, 766655, Note_on_c, 0, 59, 0
1, 766680, Note_on_c, 0, 67, 24
1, 766728, Note_on_c, 0, 67, 0
1, 766857, Note_on_c, 0, 76, 67
1, 766858, Control_c, 0, 64, 93
1, 766896, Control_c, 0, 64, 86
1, 766897, Note_on_c, 0, 77, 0
1, 766953, Control_c, 0, 64, 84
1, 766970, Note_on_c, 0, 55, 36
1, 767006, Note_on_c, 0, 74, 0
1, 767079, Note_on_c, 0, 60, 50
1, 767143, Note_on_c, 0, 55, 0
1, 767182, Note_on_c, 0, 67, 47
1, 767247, Control_c, 0, 64, 86
1, 767257, Note_on_c, 0, 60, 0
1, 767329, Note_on_c, 0, 72, 55
1, 767440, Note_on_c, 0, 55, 45
1, 767444, Note_on_c, 0, 67, 0
1, 767468, Control_c, 0, 64, 90
1, 767518, Note_on_c, 0, 76, 0
1, 767555, Note_on_c, 0, 64, 44
1, 767587, Note_on_c, 0, 55, 0
1, 767663, Note_on_c, 0, 67, 47
1, 767675, Note_on_c, 0, 64, 0
1, 767738, Note_on_c, 0, 72, 0
1, 767764, Note_on_c, 0, 67, 0
1, 767814, Note_on_c, 0, 71, 58
1, 767869, Control_c, 0, 64, 87
1, 767888, Control_c, 0, 64, 85
1, 767942, Note_on_c, 0, 55, 41
1, 768050, Note_on_c, 0, 62, 39
1, 768053, Control_c, 0, 64, 87
1, 768105, Note_on_c, 0, 55, 0
1, 768117, Note_on_c, 0, 62, 0
1, 768157, Note_on_c, 0, 67, 43
1, 768238, Note_on_c, 0, 67, 0
1, 768260, Note_on_c, 0, 74, 50
1, 768326, Note_on_c, 0, 74, 0
1, 768339, Note_on_c, 0, 71, 0
1, 768415, Note_on_c, 0, 55, 24
1, 768522, Note_on_c, 0, 59, 32
1, 768551, Control_c, 0, 64, 91
1, 768607, Control_c, 0, 64, 95
1, 768651, Note_on_c, 0, 67, 38
1, 768660, Control_c, 0, 64, 99
1, 768663, Poly_aftertouch_c, 0, 55, 24
1, 768678, Note_on_c, 0, 43, 55
1, 768712, Control_c, 0, 64, 87
1, 768731, Control_c, 0, 64, 62
1, 768736, Note_on_c, 0, 55, 0
1, 768736, Poly_aftertouch_c, 0, 55, 0
1, 768749, Control_c, 0, 64, 0
1, 768779, Note_on_c, 0, 59, 0
1, 768795, Note_on_c, 0, 31, 46
1, 768842, Control_c, 0, 64, 31
1, 768860, Control_c, 0, 64, 56
1, 768878, Control_c, 0, 64, 74
1, 768883, Note_on_c, 0, 67, 0
1, 768897, Control_c, 0, 64, 82
1, 768910, Note_on_c, 0, 31, 0
1, 768913, Note_on_c, 0, 43, 0
1, 768915, Control_c, 0, 64, 88
1, 768951, Control_c, 0, 64, 93
1, 768958, Note_on_c, 0, 55, 41
1, 769053, Note_on_c, 0, 55, 0
1, 769086, Note_on_c, 0, 59, 34
1, 769150, Note_on_c, 0, 59, 0
1, 769156, Control_c, 0, 64, 97
1, 769198, Note_on_c, 0, 62, 40
1, 769228, Control_c, 0, 64, 102
1, 769261, Note_on_c, 0, 62, 0
1, 769302, Note_on_c, 0, 77, 70
1, 769303, Note_on_c, 0, 67, 51
1, 769434, Note_on_c, 0, 77, 0
1, 769444, Note_on_c, 0, 55, 44
1, 769471, Note_on_c, 0, 67, 0
1, 769523, Note_on_c, 0, 55, 0
1, 769580, Note_on_c, 0, 59, 31
1, 769656, Note_on_c, 0, 59, 0
1, 769665, Note_on_c, 0, 62, 45
1, 769729, Note_on_c, 0, 62, 0
1, 769780, Note_on_c, 0, 67, 54
1, 769781, Note_on_c, 0, 77, 72
1, 769919, Note_on_c, 0, 55, 33
1, 769921, Note_on_c, 0, 67, 0
1, 769978, Note_on_c, 0, 55, 0
1, 770008, Note_on_c, 0, 59, 45
1, 770126, Note_on_c, 0, 62, 44
1, 770177, Note_on_c, 0, 59, 0
1, 770227, Note_on_c, 0, 62, 0
1, 770258, Note_on_c, 0, 67, 42
1, 770360, Note_on_c, 0, 67, 0
1, 770383, Note_on_c, 0, 55, 39
1, 770468, Note_on_c, 0, 74, 62
1, 770491, Note_on_c, 0, 55, 0
1, 770499, Note_on_c, 0, 59, 43
1, 770615, Note_on_c, 0, 67, 47
1, 770653, Note_on_c, 0, 59, 0
1, 770677, Note_on_c, 0, 67, 0
1, 770768, Control_c, 0, 64, 98
1, 770782, Note_on_c, 0, 77, 0
1, 770837, Note_on_c, 0, 75, 53
1, 770888, Note_on_c, 0, 74, 0
1, 770971, Note_on_c, 0, 55, 35
1, 771098, Control_c, 0, 64, 94
1, 771103, Note_on_c, 0, 60, 40
1, 771115, Note_on_c, 0, 55, 0
1, 771184, Note_on_c, 0, 67, 47
1, 771241, Note_on_c, 0, 60, 0
1, 771265, Note_on_c, 0, 67, 0
1, 771308, Note_on_c, 0, 72, 58
1, 771431, Note_on_c, 0, 55, 43
1, 771513, Note_on_c, 0, 72, 0
1, 771522, Note_on_c, 0, 75, 0
1, 771559, Note_on_c, 0, 55, 0
1, 771581, Note_on_c, 0, 63, 40
1, 771674, Note_on_c, 0, 63, 0
1, 771702, Note_on_c, 0, 67, 49
1, 771803, Note_on_c, 0, 71, 56
1, 771807, Note_on_c, 0, 67, 0
1, 771920, Note_on_c, 0, 55, 44
1, 772020, Note_on_c, 0, 55, 0
1, 772039, Note_on_c, 0, 62, 44
1, 772109, Note_on_c, 0, 62, 0
1, 772146, Control_c, 0, 64, 90
1, 772151, Note_on_c, 0, 67, 42
1, 772226, Note_on_c, 0, 67, 0
1, 772242, Note_on_c, 0, 74, 63
1, 772359, Note_on_c, 0, 55, 39
1, 772385, Control_c, 0, 64, 88
1, 772495, Note_on_c, 0, 59, 46
1, 772563, Note_on_c, 0, 55, 0
1, 772565, Note_on_c, 0, 74, 0
1, 772600, Note_on_c, 0, 67, 51
1, 772610, Note_on_c, 0, 59, 0
1, 772695, Note_on_c, 0, 67, 0
1, 772746, Note_on_c, 0, 76, 67
1, 772841, Control_c, 0, 64, 86
1, 772881, Note_on_c, 0, 55, 37
1, 772925, Note_on_c, 0, 71, 0
1, 772991, Note_on_c, 0, 60, 44
1, 773028, Note_on_c, 0, 55, 0
1, 773097, Note_on_c, 0, 67, 41
1, 773105, Note_on_c, 0, 60, 0
1, 773178, Note_on_c, 0, 67, 0
1, 773194, Note_on_c, 0, 72, 68
1, 773323, Note_on_c, 0, 55, 38
1, 773404, Note_on_c, 0, 72, 0
1, 773454, Note_on_c, 0, 64, 46
1, 773455, Note_on_c, 0, 76, 0
1, 773555, Note_on_c, 0, 55, 0
1, 773570, Note_on_c, 0, 67, 48
1, 773589, Note_on_c, 0, 64, 0
1, 773645, Note_on_c, 0, 67, 0
1, 773680, Note_on_c, 0, 71, 62
1, 773808, Note_on_c, 0, 55, 45
1, 773921, Note_on_c, 0, 62, 40
1, 773961, Note_on_c, 0, 55, 0
1, 774003, Note_on_c, 0, 62, 0
1, 774022, Note_on_c, 0, 67, 40
1, 774096, Note_on_c, 0, 67, 0
1, 774127, Control_c, 0, 64, 84
1, 774157, Note_on_c, 0, 74, 53
1, 774236, Control_c, 0, 64, 82
1, 774296, Note_on_c, 0, 55, 35
1, 774383, Note_on_c, 0, 71, 0
1, 774414, Note_on_c, 0, 74, 0
1, 774432, Note_on_c, 0, 59, 36
1, 774481, Note_on_c, 0, 55, 0
1, 774544, Note_on_c, 0, 67, 41
1, 774615, Note_on_c, 0, 67, 0
1, 774623, Note_on_c, 0, 59, 0
1, 774760, Note_on_c, 0, 75, 53
1, 774883, Note_on_c, 0, 55, 31
1, 774953, Note_on_c, 0, 75, 0
1, 775017, Note_on_c, 0, 60, 42
1, 775021, Note_on_c, 0, 55, 0
1, 775125, Note_on_c, 0, 67, 45
1, 775189, Note_on_c, 0, 60, 0
1, 775259, Note_on_c, 0, 67, 0
1, 775301, Note_on_c, 0, 72, 45
1, 775398, Note_on_c, 0, 55, 38
1, 775499, Control_c, 0, 64, 80
1, 775528, Note_on_c, 0, 60, 44
1, 775565, Note_on_c, 0, 55, 0
1, 775667, Note_on_c, 0, 63, 39
1, 775682, Note_on_c, 0, 60, 0
1, 775720, Note_on_c, 0, 63, 0
1, 775814, Note_on_c, 0, 79, 48
1, 775927, Note_on_c, 0, 55, 37
1, 775941, Note_on_c, 0, 72, 0
1, 776044, Note_on_c, 0, 59, 35
1, 776058, Note_on_c, 0, 79, 0
1, 776067, Note_on_c, 0, 55, 0
1, 776158, Note_on_c, 0, 62, 44
1, 776200, Note_on_c, 0, 59, 0
1, 776274, Note_on_c, 0, 62, 0
1, 776304, Note_on_c, 0, 79, 57
1, 776411, Note_on_c, 0, 55, 45
1, 776464, Note_on_c, 0, 79, 0
1, 776515, Note_on_c, 0, 60, 53
1, 776601, Note_on_c, 0, 55, 0
1, 776626, Note_on_c, 0, 60, 0
1, 776631, Note_on_c, 0, 63, 56
1, 776730, Note_on_c, 0, 63, 0
1, 776740, Note_on_c, 0, 79, 67
1, 776748, Control_c, 0, 64, 78
1, 776843, Note_on_c, 0, 55, 46
1, 776940, Note_on_c, 0, 59, 52
1, 776981, Note_on_c, 0, 79, 0
1, 777005, Note_on_c, 0, 55, 0
1, 777064, Note_on_c, 0, 62, 57
1, 777081, Note_on_c, 0, 59, 0
1, 777188, Note_on_c, 0, 62, 0
1, 777195, Note_on_c, 0, 79, 70
1, 777305, Note_on_c, 0, 55, 41
1, 777400, Note_on_c, 0, 79, 0
1, 777423, Note_on_c, 0, 60, 49
1, 777446, Control_c, 0, 64, 76
1, 777536, Note_on_c, 0, 60, 0
1, 777550, Note_on_c, 0, 63, 41
1, 777554, Note_on_c, 0, 55, 0
1, 777620, Note_on_c, 0, 63, 0
1, 777669, Note_on_c, 0, 79, 52
1, 777795, Note_on_c, 0, 55, 37
1, 777893, Note_on_c, 0, 79, 0
1, 777916, Note_on_c, 0, 59, 45
1, 777972, Note_on_c, 0, 55, 0
1, 778007, Note_on_c, 0, 59, 0
1, 778030, Note_on_c, 0, 62, 40
1, 778173, Note_on_c, 0, 79, 44
1, 778187, Note_on_c, 0, 62, 0
1, 778296, Note_on_c, 0, 55, 27
1, 778323, Note_on_c, 0, 79, 0
1, 778369, Note_on_c, 0, 55, 0
1, 778425, Note_on_c, 0, 57, 40
1, 778538, Note_on_c, 0, 60, 44
1, 778584, Note_on_c, 0, 57, 0
1, 778600, Note_on_c, 0, 60, 0
1, 778673, Note_on_c, 0, 79, 42
1, 778795, Note_on_c, 0, 55, 35
1, 778839, Note_on_c, 0, 55, 0
1, 778897, Note_on_c, 0, 59, 57
1, 778925, Note_on_c, 0, 79, 0
1, 778969, Control_c, 0, 64, 73
1, 779000, Note_on_c, 0, 59, 0
1, 779002, Control_c, 0, 64, 70
1, 779021, Control_c, 0, 64, 67
1, 779033, Note_on_c, 0, 62, 54
1, 779040, Control_c, 0, 64, 64
1, 779058, Control_c, 0, 64, 62
1, 779076, Control_c, 0, 64, 59
1, 779116, Control_c, 0, 64, 57
1, 779147, Note_on_c, 0, 62, 0
1, 779152, Note_on_c, 0, 67, 59
1, 779169, Control_c, 0, 64, 54
1, 779206, Control_c, 0, 64, 51
1, 779224, Control_c, 0, 64, 49
1, 779229, Note_on_c, 0, 67, 0
1, 779242, Control_c, 0, 64, 47
1, 779246, Note_on_c, 0, 71, 58
1, 779261, Control_c, 0, 64, 44
1, 779297, Control_c, 0, 64, 42
1, 779350, Note_on_c, 0, 71, 0
1, 779366, Note_on_c, 0, 69, 55
1, 779424, Note_on_c, 0, 69, 0
1, 779446, Control_c, 0, 64, 40
1, 779468, Note_on_c, 0, 66, 45
1, 779562, Note_on_c, 0, 66, 0
1, 779607, Note_on_c, 0, 67, 35
1, 779713, Note_on_c, 0, 59, 40
1, 779741, Note_on_c, 0, 67, 0
1, 779806, Note_on_c, 0, 59, 0
1, 779834, Note_on_c, 0, 62, 45
1, 779949, Note_on_c, 0, 67, 48
1, 779995, Note_on_c, 0, 62, 0
1, 780042, Note_on_c, 0, 67, 0
1, 780065, Note_on_c, 0, 71, 57
1, 780141, Note_on_c, 0, 71, 0
1, 780167, Note_on_c, 0, 74, 58
1, 780269, Note_on_c, 0, 74, 0
1, 780284, Note_on_c, 0, 72, 57
1, 780353, Note_on_c, 0, 72, 0
1, 780395, Note_on_c, 0, 69, 50
1, 780480, Note_on_c, 0, 69, 0
1, 780517, Note_on_c, 0, 71, 46
1, 780577, Note_on_c, 0, 71, 0
1, 780621, Note_on_c, 0, 67, 40
1, 780683, Note_on_c, 0, 67, 0
1, 780732, Note_on_c, 0, 71, 49
1, 780837, Note_on_c, 0, 74, 53
1, 780911, Note_on_c, 0, 71, 0
1, 780928, Note_on_c, 0, 74, 0
1, 780964, Note_on_c, 0, 79, 58
1, 781045, Note_on_c, 0, 79, 0
1, 781070, Note_on_c, 0, 83, 60
1, 781161, Note_on_c, 0, 83, 0
1, 781174, Note_on_c, 0, 81, 57
1, 781279, Note_on_c, 0, 81, 0
1, 781293, Note_on_c, 0, 78, 52
1, 781375, Note_on_c, 0, 78, 0
1, 781417, Note_on_c, 0, 79, 49
1, 781510, Note_on_c, 0, 79, 0
1, 781516, Note_on_c, 0, 83, 58
1, 781607, Note_on_c, 0, 83, 0
1, 781630, Note_on_c, 0, 81, 61
1, 781735, Note_on_c, 0, 84, 57
1, 781742, Note_on_c, 0, 81, 0
1, 781824, Note_on_c, 0, 84, 0
1, 781860, Note_on_c, 0, 83, 66
1, 781968, Note_on_c, 0, 86, 65
1, 781982, Note_on_c, 0, 83, 0
1, 782068, Note_on_c, 0, 86, 0
1, 782070, Note_on_c, 0, 85, 74
1, 782183, Note_on_c, 0, 88, 71
1, 782210, Note_on_c, 0, 85, 0
1, 782266, Note_on_c, 0, 88, 0
1, 782297, Note_on_c, 0, 86, 69
1, 782402, Note_on_c, 0, 89, 74
1, 782421, Note_on_c, 0, 86, 0
1, 782511, Note_on_c, 0, 88, 79
1, 782517, Note_on_c, 0, 89, 0
1, 782612, Note_on_c, 0, 91, 79
1, 782626, Note_on_c, 0, 88, 0
1, 782722, Note_on_c, 0, 89, 82
1, 782785, Note_on_c, 0, 91, 0
1, 782849, Note_on_c, 0, 89, 0
1, 782851, Note_on_c, 0, 93, 72
1, 782911, Control_c, 0, 67, 119
1, 782930, Control_c, 0, 67, 110
1, 782949, Control_c, 0, 64, 42
1, 782950, Control_c, 0, 67, 99
1, 782967, Control_c, 0, 67, 86
1, 782971, Note_on_c, 0, 93, 0
1, 782984, Note_on_c, 0, 89, 57
1, 782984, Control_c, 0, 67, 71
1, 783004, Control_c, 0, 64, 44
1, 783005, Control_c, 0, 67, 53
1, 783023, Control_c, 0, 64, 46
1, 783024, Control_c, 0, 67, 36
1, 783040, Control_c, 0, 64, 49
1, 783041, Control_c, 0, 67, 20
1, 783059, Control_c, 0, 64, 53
1, 783071, Note_on_c, 0, 89, 0
1, 783077, Control_c, 0, 64, 56
1, 783096, Note_on_c, 0, 88, 58
1, 783116, Control_c, 0, 64, 58
1, 783117, Control_c, 0, 67, 0
1, 783166, Note_on_c, 0, 88, 0
1, 783167, Control_c, 0, 64, 61
1, 783196, Note_on_c, 0, 86, 58
1, 783261, Control_c, 0, 64, 62
1, 783312, Note_on_c, 0, 89, 68
1, 783320, Note_on_c, 0, 86, 0
1, 783418, Note_on_c, 0, 88, 73
1, 783422, Note_on_c, 0, 89, 0
1, 783527, Note_on_c, 0, 91, 76
1, 783542, Note_on_c, 0, 88, 0
1, 783638, Note_on_c, 0, 89, 80
1, 783648, Control_c, 0, 64, 61
1, 783688, Note_on_c, 0, 91, 0
1, 783717, Control_c, 0, 64, 60
1, 783761, Note_on_c, 0, 93, 80
1, 783764, Note_on_c, 0, 89, 0
1, 783880, Note_on_c, 0, 89, 79
1, 783922, Note_on_c, 0, 93, 0
1, 783957, Control_c, 0, 67, 8
1, 783982, Note_on_c, 0, 88, 75
1, 783990, Note_on_c, 0, 89, 0
1, 784032, Control_c, 0, 67, 13
1, 784083, Note_on_c, 0, 88, 0
1, 784086, Control_c, 0, 67, 18
1, 784087, Note_on_c, 0, 86, 73
1, 784123, Control_c, 0, 67, 22
1, 784177, Control_c, 0, 67, 28
1, 784204, Note_on_c, 0, 86, 0
1, 784204, Note_on_c, 0, 89, 71
1, 784216, Control_c, 0, 67, 33
1, 784272, Control_c, 0, 67, 37
1, 784306, Control_c, 0, 67, 43
1, 784306, Note_on_c, 0, 88, 74
1, 784344, Control_c, 0, 67, 49
1, 784350, Note_on_c, 0, 89, 0
1, 784380, Control_c, 0, 67, 55
1, 784390, Note_on_c, 0, 88, 0
1, 784418, Control_c, 0, 67, 60
1, 784420, Note_on_c, 0, 84, 62
1, 784437, Control_c, 0, 67, 64
1, 784454, Control_c, 0, 67, 69
1, 784474, Control_c, 0, 67, 73
1, 784512, Control_c, 0, 67, 79
1, 784527, Control_c, 0, 67, 84
1, 784531, Note_on_c, 0, 84, 0
1, 784538, Note_on_c, 0, 83, 62
1, 784546, Control_c, 0, 67, 89
1, 784566, Control_c, 0, 67, 96
1, 784584, Control_c, 0, 67, 103
1, 784616, Control_c, 0, 67, 108
1, 784634, Control_c, 0, 67, 112
1, 784654, Control_c, 0, 64, 61
1, 784656, Control_c, 0, 67, 117
1, 784671, Control_c, 0, 64, 62
1, 784672, Note_on_c, 0, 83, 0
1, 784672, Control_c, 0, 67, 123
1, 784680, Note_on_c, 0, 86, 53
1, 784691, Control_c, 0, 67, 127
1, 784709, Control_c, 0, 64, 63
1, 784747, Control_c, 0, 64, 64
1, 784781, Control_c, 0, 64, 65
1, 784790, Note_on_c, 0, 84, 54
1, 784799, Note_on_c, 0, 86, 0
1, 784819, Control_c, 0, 64, 66
1, 784842, Note_on_c, 0, 84, 0
1, 784855, Control_c, 0, 64, 67
1, 784899, Note_on_c, 0, 81, 50
1, 784929, Control_c, 0, 64, 69
1, 785003, Note_on_c, 0, 81, 0
1, 785015, Note_on_c, 0, 79, 52
1, 785023, Control_c, 0, 64, 71
1, 785130, Note_on_c, 0, 83, 49
1, 785134, Note_on_c, 0, 79, 0
1, 785240, Note_on_c, 0, 83, 0
1, 785256, Note_on_c, 0, 81, 41
1, 785295, Note_on_c, 0, 81, 0
1, 785355, Note_on_c, 0, 77, 45
1, 785447, Note_on_c, 0, 77, 0
1, 785476, Note_on_c, 0, 76, 45
1, 785614, Note_on_c, 0, 76, 0
1, 785614, Note_on_c, 0, 79, 39
1, 785663, Control_c, 0, 64, 73
1, 785722, Note_on_c, 0, 79, 0
1, 785725, Note_on_c, 0, 77, 48
1, 785736, Control_c, 0, 64, 75
1, 785774, Control_c, 0, 64, 77
1, 785776, Note_on_c, 0, 77, 0
1, 785811, Control_c, 0, 64, 80
1, 785847, Control_c, 0, 64, 83
1, 785852, Note_on_c, 0, 74, 33
1, 785882, Control_c, 0, 64, 85
1, 785938, Control_c, 0, 64, 87
1, 786031, Note_on_c, 0, 36, 36
1, 786038, Note_on_c, 0, 72, 41
1, 786048, Control_c, 0, 64, 80
1, 786055, Note_on_c, 0, 74, 0
1, 786068, Control_c, 0, 64, 65
1, 786087, Control_c, 0, 64, 51
1, 786143, Control_c, 0, 64, 59
1, 786161, Control_c, 0, 64, 72
1, 786179, Control_c, 0, 64, 83
1, 786197, Control_c, 0, 64, 96
1, 786215, Control_c, 0, 64, 106
1, 786235, Control_c, 0, 64, 110
1, 786249, Note_on_c, 0, 43, 36
1, 786264, Note_on_c, 0, 72, 0
1, 786271, Note_on_c, 0, 36, 0
1, 786336, Note_on_c, 0, 43, 0
1, 786444, Note_on_c, 0, 48, 39
1, 786544, Note_on_c, 0, 48, 0
1, 786598, Note_on_c, 0, 52, 39
1, 786759, Note_on_c, 0, 52, 0
1, 786761, Note_on_c, 0, 91, 62
1, 786770, Note_on_c, 0, 55, 39
1, 786803, Note_on_c, 0, 79, 39
1, 786855, Note_on_c, 0, 79, 0
1, 786884, Note_on_c, 0, 55, 0
1, 786917, Note_on_c, 0, 91, 0
1, 786933, Note_on_c, 0, 48, 41
1, 787012, Note_on_c, 0, 48, 0
1, 787061, Note_on_c, 0, 52, 45
1, 787131, Note_on_c, 0, 52, 0
1, 787167, Note_on_c, 0, 55, 38
1, 787207, Note_on_c, 0, 55, 0
1, 787271, Note_on_c, 0, 91, 79
1, 787301, Note_on_c, 0, 60, 47
1, 787306, Note_on_c, 0, 79, 51
1, 787428, Note_on_c, 0, 60, 0
1, 787460, Note_on_c, 0, 52, 45
1, 787530, Note_on_c, 0, 52, 0
1, 787542, Note_on_c, 0, 55, 48
1, 787543, Note_on_c, 0, 79, 0
1, 787577, Note_on_c, 0, 91, 0
1, 787651, Note_on_c, 0, 55, 0
1, 787674, Note_on_c, 0, 60, 43
1, 787723, Note_on_c, 0, 60, 0
1, 787785, Note_on_c, 0, 64, 45
1, 787919, Note_on_c, 0, 55, 46
1, 787922, Note_on_c, 0, 64, 0
1, 788013, Note_on_c, 0, 88, 72
1, 788015, Note_on_c, 0, 60, 47
1, 788043, Note_on_c, 0, 76, 47
1, 788116, Note_on_c, 0, 60, 0
1, 788141, Note_on_c, 0, 76, 0
1, 788165, Note_on_c, 0, 64, 46
1, 788180, Control_c, 0, 64, 106
1, 788226, Note_on_c, 0, 64, 0
1, 788254, Control_c, 0, 64, 102
1, 788271, Note_on_c, 0, 65, 50
1, 788276, Note_on_c, 0, 86, 70
1, 788291, Note_on_c, 0, 88, 0
1, 788306, Control_c, 0, 64, 98
1, 788309, Note_on_c, 0, 74, 43
1, 788314, Poly_aftertouch_c, 0, 55, 24
1, 788383, Note_on_c, 0, 65, 0
1, 788404, Note_on_c, 0, 86, 0
1, 788422, Note_on_c, 0, 55, 0
1, 788422, Poly_aftertouch_c, 0, 55, 0
1, 788426, Note_on_c, 0, 64, 41
1, 788432, Control_c, 0, 64, 94
1, 788467, Note_on_c, 0, 74, 0
1, 788511, Note_on_c, 0, 64, 0
1, 788519, Note_on_c, 0, 62, 50
1, 788553, Note_on_c, 0, 62, 0
1, 788641, Note_on_c, 0, 60, 46
1, 788736, Note_on_c, 0, 60, 0
1, 788756, Note_on_c, 0, 79, 66
1, 788772, Note_on_c, 0, 59, 49
1, 788784, Note_on_c, 0, 67, 42
1, 788843, Note_on_c, 0, 67, 0
1, 788861, Note_on_c, 0, 59, 0
1, 788873, Control_c, 0, 64, 90
1, 788879, Note_on_c, 0, 57, 55
1, 788927, Note_on_c, 0, 57, 0
1, 788986, Control_c, 0, 64, 88
1, 789005, Note_on_c, 0, 55, 45
1, 789076, Note_on_c, 0, 55, 0
1, 789111, Control_c, 0, 64, 86
1, 789153, Note_on_c, 0, 53, 34
1, 789185, Control_c, 0, 64, 83
1, 789227, Note_on_c, 0, 53, 0
1, 789242, Note_on_c, 0, 84, 69
1, 789251, Note_on_c, 0, 52, 50
1, 789253, Note_on_c, 0, 79, 0
1, 789290, Control_c, 0, 64, 81
1, 789309, Note_on_c, 0, 72, 36
1, 789316, Note_on_c, 0, 52, 0
1, 789379, Note_on_c, 0, 55, 53
1, 789402, Control_c, 0, 64, 79
1, 789447, Note_on_c, 0, 72, 0
1, 789488, Note_on_c, 0, 55, 0
1, 789493, Control_c, 0, 64, 77
1, 789524, Note_on_c, 0, 48, 34
1, 789588, Note_on_c, 0, 48, 0
1, 789599, Note_on_c, 0, 52, 43
1, 789732, Note_on_c, 0, 43, 45
1, 789746, Note_on_c, 0, 88, 63
1, 789771, Note_on_c, 0, 84, 0
1, 789779, Note_on_c, 0, 52, 0
1, 789790, Note_on_c, 0, 76, 34
1, 789792, Note_on_c, 0, 43, 0
1, 789862, Note_on_c, 0, 48, 45
1, 789986, Note_on_c, 0, 48, 0
1, 789987, Note_on_c, 0, 40, 50
1, 790064, Poly_aftertouch_c, 0, 76, 24
1, 790101, Note_on_c, 0, 43, 42
1, 790181, Note_on_c, 0, 40, 0
1, 790192, Note_on_c, 0, 76, 0
1, 790192, Poly_aftertouch_c, 0, 76, 0
1, 790245, Note_on_c, 0, 43, 0
1, 790261, Note_on_c, 0, 36, 57
1, 790411, Note_on_c, 0, 43, 50
1, 790430, Note_on_c, 0, 36, 0
1, 790451, Note_on_c, 0, 43, 0
1, 790483, Control_c, 0, 64, 79
1, 790514, Note_on_c, 0, 48, 44
1, 790538, Control_c, 0, 64, 81
1, 790594, Control_c, 0, 64, 83
1, 790623, Note_on_c, 0, 48, 0
1, 790661, Note_on_c, 0, 52, 32
1, 790740, Note_on_c, 0, 91, 68
1, 790766, Note_on_c, 0, 79, 42
1, 790771, Note_on_c, 0, 52, 0
1, 790773, Note_on_c, 0, 55, 51
1, 790778, Poly_aftertouch_c, 0, 88, 24
1, 790807, Note_on_c, 0, 88, 0
1, 790807, Poly_aftertouch_c, 0, 88, 0
1, 790808, Poly_aftertouch_c, 0, 88, 0
1, 790812, Note_on_c, 0, 79, 0
1, 790881, Note_on_c, 0, 55, 0
1, 790889, Note_on_c, 0, 91, 0
1, 790912, Note_on_c, 0, 48, 45
1, 791004, Note_on_c, 0, 48, 0
1, 791020, Note_on_c, 0, 52, 46
1, 791106, Note_on_c, 0, 52, 0
1, 791131, Note_on_c, 0, 55, 53
1, 791190, Note_on_c, 0, 55, 0
1, 791257, Note_on_c, 0, 91, 86
1, 791282, Note_on_c, 0, 60, 50
1, 791291, Note_on_c, 0, 79, 61
1, 791387, Note_on_c, 0, 60, 0
1, 791402, Note_on_c, 0, 52, 52
1, 791465, Note_on_c, 0, 79, 0
1, 791496, Note_on_c, 0, 52, 0
1, 791502, Note_on_c, 0, 55, 51
1, 791553, Note_on_c, 0, 91, 0
1, 791591, Note_on_c, 0, 55, 0
1, 791616, Note_on_c, 0, 60, 50
1, 791665, Note_on_c, 0, 60, 0
1, 791711, Note_on_c, 0, 64, 53
1, 791847, Note_on_c, 0, 55, 45
1, 791869, Note_on_c, 0, 64, 0
1, 791949, Note_on_c, 0, 88, 72
1, 791959, Note_on_c, 0, 60, 50
1, 791982, Note_on_c, 0, 76, 42
1, 792025, Note_on_c, 0, 76, 0
1, 792106, Note_on_c, 0, 60, 0
1, 792153, Note_on_c, 0, 64, 36
1, 792209, Note_on_c, 0, 64, 0
1, 792267, Note_on_c, 0, 65, 45
1, 792268, Note_on_c, 0, 86, 67
1, 792275, Note_on_c, 0, 55, 0
1, 792283, Note_on_c, 0, 88, 0
1, 792314, Note_on_c, 0, 74, 29
1, 792369, Note_on_c, 0, 86, 0
1, 792371, Note_on_c, 0, 65, 0
1, 792399, Note_on_c, 0, 74, 0
1, 792407, Note_on_c, 0, 64, 48
1, 792496, Note_on_c, 0, 64, 0
1, 792515, Note_on_c, 0, 62, 49
1, 792554, Note_on_c, 0, 62, 0
1, 792619, Note_on_c, 0, 60, 53
1, 792649, Control_c, 0, 64, 81
1, 792697, Note_on_c, 0, 60, 0
1, 792752, Note_on_c, 0, 59, 46
1, 792780, Note_on_c, 0, 79, 60
1, 792819, Note_on_c, 0, 67, 29
1, 792855, Control_c, 0, 64, 79
1, 792857, Note_on_c, 0, 59, 0
1, 792872, Note_on_c, 0, 55, 47
1, 792879, Note_on_c, 0, 67, 0
1, 792967, Note_on_c, 0, 55, 0
1, 792997, Note_on_c, 0, 57, 47
1, 793095, Note_on_c, 0, 57, 0
1, 793136, Note_on_c, 0, 59, 37
1, 793197, Note_on_c, 0, 59, 0
1, 793256, Poly_aftertouch_c, 0, 79, 24
1, 793260, Note_on_c, 0, 60, 40
1, 793276, Note_on_c, 0, 84, 63
1, 793289, Note_on_c, 0, 79, 0
1, 793289, Poly_aftertouch_c, 0, 79, 0
1, 793290, Poly_aftertouch_c, 0, 79, 0
1, 793290, Control_c, 0, 64, 77
1, 793317, Note_on_c, 0, 72, 30
1, 793382, Control_c, 0, 64, 75
1, 793386, Note_on_c, 0, 60, 0
1, 793405, Note_on_c, 0, 59, 38
1, 793502, Note_on_c, 0, 59, 0
1, 793516, Note_on_c, 0, 57, 49
1, 793566, Note_on_c, 0, 57, 0
1, 793624, Note_on_c, 0, 55, 54
1, 793659, Control_c, 0, 64, 73
1, 793696, Poly_aftertouch_c, 0, 72, 24
1, 793733, Note_on_c, 0, 72, 0
1, 793733, Poly_aftertouch_c, 0, 72, 0
1, 793743, Note_on_c, 0, 55, 0
1, 793766, Note_on_c, 0, 53, 52
1, 793841, Note_on_c, 0, 53, 0
1, 793874, Note_on_c, 0, 52, 51
1, 793914, Note_on_c, 0, 52, 0
1, 793997, Note_on_c, 0, 50, 51
1, 794113, Note_on_c, 0, 50, 0
1, 794127, Note_on_c, 0, 48, 45
1, 794182, Note_on_c, 0, 84, 0
1, 794207, Control_c, 0, 64, 70
1, 794226, Control_c, 0, 64, 66
1, 794245, Control_c, 0, 64, 51
1, 794263, Control_c, 0, 64, 0
1, 794272, Note_on_c, 0, 48, 0
1, 794278, Note_on_c, 0, 43, 55
1, 794375, Control_c, 0, 64, 15
1, 794392, Control_c, 0, 64, 50
1, 794411, Control_c, 0, 64, 70
1, 794427, Control_c, 0, 64, 78
1, 794438, Note_on_c, 0, 47, 52
1, 794447, Control_c, 0, 64, 84
1, 794466, Control_c, 0, 64, 88
1, 794483, Note_on_c, 0, 43, 0
1, 794483, Control_c, 0, 64, 94
1, 794503, Control_c, 0, 64, 104
1, 794521, Control_c, 0, 64, 114
1, 794539, Control_c, 0, 64, 119
1, 794545, Note_on_c, 0, 47, 0
1, 794557, Control_c, 0, 67, 114
1, 794560, Note_on_c, 0, 50, 49
1, 794575, Control_c, 0, 67, 102
1, 794595, Control_c, 0, 67, 88
1, 794599, Note_on_c, 0, 50, 0
1, 794613, Control_c, 0, 67, 72
1, 794632, Control_c, 0, 67, 57
1, 794651, Control_c, 0, 67, 43
1, 794665, Note_on_c, 0, 55, 46
1, 794665, Control_c, 0, 67, 32
1, 794686, Control_c, 0, 67, 20
1, 794705, Control_c, 0, 67, 9
1, 794779, Control_c, 0, 67, 0
1, 794789, Note_on_c, 0, 89, 75
1, 794805, Note_on_c, 0, 55, 0
1, 794819, Note_on_c, 0, 77, 45
1, 794834, Note_on_c, 0, 47, 49
1, 794866, Note_on_c, 0, 77, 0
1, 794870, Control_c, 0, 64, 123
1, 794954, Note_on_c, 0, 47, 0
1, 794957, Note_on_c, 0, 50, 50
1, 794978, Note_on_c, 0, 89, 0
1, 795029, Note_on_c, 0, 50, 0
1, 795044, Note_on_c, 0, 55, 55
1, 795098, Note_on_c, 0, 55, 0
1, 795106, Control_c, 0, 64, 127
1, 795152, Note_on_c, 0, 59, 50
1, 795288, Note_on_c, 0, 89, 81
1, 795298, Note_on_c, 0, 59, 0
1, 795309, Note_on_c, 0, 77, 51
1, 795311, Note_on_c, 0, 50, 49
1, 795410, Note_on_c, 0, 50, 0
1, 795416, Note_on_c, 0, 55, 50
1, 795509, Note_on_c, 0, 55, 0
1, 795546, Note_on_c, 0, 59, 46
1, 795577, Note_on_c, 0, 59, 0
1, 795638, Note_on_c, 0, 62, 52
1, 795672, Note_on_c, 0, 89, 0
1, 795692, Note_on_c, 0, 77, 0
1, 795766, Note_on_c, 0, 62, 0
1, 795784, Note_on_c, 0, 55, 47
1, 795881, Note_on_c, 0, 55, 0
1, 795894, Note_on_c, 0, 59, 48
1, 795896, Control_c, 0, 67, 8
1, 795949, Control_c, 0, 67, 13
1, 795987, Control_c, 0, 67, 18
1, 795994, Note_on_c, 0, 59, 0
1, 796010, Note_on_c, 0, 86, 74
1, 796024, Control_c, 0, 67, 25
1, 796028, Note_on_c, 0, 62, 42
1, 796043, Control_c, 0, 67, 32
1, 796055, Note_on_c, 0, 74, 48
1, 796060, Control_c, 0, 67, 42
1, 796078, Control_c, 0, 67, 52
1, 796097, Control_c, 0, 67, 61
1, 796103, Note_on_c, 0, 62, 0
1, 796116, Control_c, 0, 67, 70
1, 796134, Control_c, 0, 67, 80
1, 796149, Note_on_c, 0, 67, 30
1, 796152, Control_c, 0, 67, 91
1, 796159, Note_on_c, 0, 74, 0
1, 796170, Control_c, 0, 67, 104
1, 796189, Control_c, 0, 67, 118
1, 796207, Control_c, 0, 67, 127
1, 796226, Note_on_c, 0, 67, 0
1, 796342, Note_on_c, 0, 55, 39
1, 796373, Control_c, 0, 64, 117
1, 796391, Control_c, 0, 64, 89
1, 796396, Note_on_c, 0, 86, 0
1, 796410, Control_c, 0, 64, 47
1, 796413, Note_on_c, 0, 88, 54
1, 796427, Control_c, 0, 64, 0
1, 796438, Note_on_c, 0, 76, 34
1, 796503, Control_c, 0, 64, 34
1, 796522, Control_c, 0, 64, 55
1, 796534, Note_on_c, 0, 55, 0
1, 796539, Control_c, 0, 64, 74
1, 796549, Note_on_c, 0, 60, 29
1, 796558, Control_c, 0, 64, 86
1, 796576, Control_c, 0, 64, 96
1, 796591, Note_on_c, 0, 88, 0
1, 796594, Control_c, 0, 64, 103
1, 796599, Note_on_c, 0, 60, 0
1, 796611, Control_c, 0, 64, 107
1, 796630, Note_on_c, 0, 76, 0
1, 796648, Note_on_c, 0, 67, 30
1, 796705, Control_c, 0, 64, 111
1, 796723, Note_on_c, 0, 67, 0
1, 796729, Note_on_c, 0, 60, 43
1, 796812, Control_c, 0, 64, 115
1, 796865, Control_c, 0, 64, 119
1, 796876, Note_on_c, 0, 60, 0
1, 796894, Note_on_c, 0, 55, 41
1, 796907, Note_on_c, 0, 84, 62
1, 796923, Control_c, 0, 64, 112
1, 796940, Control_c, 0, 64, 96
1, 796949, Note_on_c, 0, 72, 31
1, 796961, Control_c, 0, 64, 73
1, 796979, Control_c, 0, 64, 57
1, 797015, Control_c, 0, 64, 63
1, 797019, Note_on_c, 0, 64, 41
1, 797032, Note_on_c, 0, 55, 0
1, 797032, Control_c, 0, 64, 75
1, 797051, Control_c, 0, 64, 90
1, 797070, Control_c, 0, 64, 106
1, 797087, Control_c, 0, 64, 115
1, 797089, Note_on_c, 0, 64, 0
1, 797098, Note_on_c, 0, 72, 0
1, 797147, Note_on_c, 0, 67, 38
1, 797160, Note_on_c, 0, 84, 0
1, 797235, Note_on_c, 0, 67, 0
1, 797257, Note_on_c, 0, 64, 29
1, 797319, Note_on_c, 0, 64, 0
1, 797326, Control_c, 0, 64, 119
1, 797370, Note_on_c, 0, 83, 56
1, 797377, Note_on_c, 0, 55, 45
1, 797382, Control_c, 0, 64, 115
1, 797392, Note_on_c, 0, 71, 45
1, 797402, Control_c, 0, 64, 99
1, 797420, Control_c, 0, 64, 75
1, 797438, Control_c, 0, 64, 53
1, 797458, Control_c, 0, 64, 48
1, 797488, Note_on_c, 0, 55, 0
1, 797493, Control_c, 0, 64, 61
1, 797510, Note_on_c, 0, 71, 0
1, 797511, Control_c, 0, 64, 76
1, 797514, Note_on_c, 0, 62, 50
1, 797531, Control_c, 0, 64, 89
1, 797549, Control_c, 0, 64, 102
1, 797566, Note_on_c, 0, 62, 0
1, 797566, Control_c, 0, 64, 108
1, 797628, Note_on_c, 0, 67, 41
1, 797720, Note_on_c, 0, 67, 0
1, 797728, Control_c, 0, 64, 112
1, 797772, Note_on_c, 0, 62, 18
1, 797801, Control_c, 0, 64, 117
1, 797843, Note_on_c, 0, 62, 0
1, 797846, Note_on_c, 0, 55, 43
1, 797873, Note_on_c, 0, 86, 52
1, 797893, Control_c, 0, 64, 106
1, 797902, Note_on_c, 0, 74, 41
1, 797915, Control_c, 0, 64, 89
1, 797933, Control_c, 0, 64, 69
1, 797943, Note_on_c, 0, 83, 0
1, 797948, Control_c, 0, 64, 61
1, 797965, Note_on_c, 0, 59, 40
1, 797987, Note_on_c, 0, 55, 0
1, 797987, Control_c, 0, 64, 69
1, 798006, Control_c, 0, 64, 80
1, 798023, Control_c, 0, 64, 95
1, 798042, Control_c, 0, 64, 109
1, 798043, Note_on_c, 0, 59, 0
1, 798060, Control_c, 0, 64, 117
1, 798079, Control_c, 0, 67, 120
1, 798081, Note_on_c, 0, 67, 47
1, 798097, Control_c, 0, 67, 111
1, 798116, Control_c, 0, 67, 98
1, 798135, Control_c, 0, 64, 121
1, 798136, Control_c, 0, 67, 81
1, 798153, Control_c, 0, 67, 60
1, 798161, Note_on_c, 0, 67, 0
1, 798170, Control_c, 0, 67, 38
1, 798189, Control_c, 0, 64, 126
1, 798191, Control_c, 0, 67, 15
1, 798204, Note_on_c, 0, 59, 39
1, 798208, Control_c, 0, 67, 0
1, 798246, Note_on_c, 0, 59, 0
1, 798457, Note_on_c, 0, 43, 55
1, 798465, Control_c, 0, 64, 109
1, 798483, Control_c, 0, 64, 84
1, 798503, Control_c, 0, 64, 68
1, 798504, Note_on_c, 0, 74, 0
1, 798538, Control_c, 0, 64, 75
1, 798558, Control_c, 0, 64, 91
1, 798576, Control_c, 0, 64, 114
1, 798578, Note_on_c, 0, 86, 0
1, 798580, Note_on_c, 0, 47, 53
1, 798595, Control_c, 0, 64, 127
1, 798671, Note_on_c, 0, 43, 0
1, 798698, Note_on_c, 0, 47, 0
1, 798705, Note_on_c, 0, 50, 49
1, 798747, Note_on_c, 0, 50, 0
1, 798802, Note_on_c, 0, 55, 48
1, 798918, Note_on_c, 0, 55, 0
1, 798938, Note_on_c, 0, 89, 82
1, 798956, Note_on_c, 0, 47, 48
1, 798960, Note_on_c, 0, 77, 52
1, 798989, Note_on_c, 0, 77, 0
1, 799072, Note_on_c, 0, 89, 0
1, 799076, Note_on_c, 0, 50, 51
1, 799080, Note_on_c, 0, 47, 0
1, 799148, Note_on_c, 0, 50, 0
1, 799175, Note_on_c, 0, 55, 52
1, 799220, Note_on_c, 0, 55, 0
1, 799284, Note_on_c, 0, 59, 50
1, 799425, Note_on_c, 0, 59, 0
1, 799429, Note_on_c, 0, 50, 49
1, 799440, Note_on_c, 0, 89, 80
1, 799476, Note_on_c, 0, 77, 50
1, 799558, Note_on_c, 0, 50, 0
1, 799566, Note_on_c, 0, 55, 48
1, 799669, Note_on_c, 0, 55, 0
1, 799680, Note_on_c, 0, 77, 0
1, 799685, Note_on_c, 0, 59, 51
1, 799730, Note_on_c, 0, 59, 0
1, 799783, Note_on_c, 0, 89, 0
1, 799784, Note_on_c, 0, 62, 54
1, 799895, Note_on_c, 0, 62, 0
1, 799924, Note_on_c, 0, 55, 51
1, 800020, Note_on_c, 0, 55, 0
1, 800033, Note_on_c, 0, 59, 43
1, 800042, Control_c, 0, 67, 8
1, 800119, Note_on_c, 0, 59, 0
1, 800122, Note_on_c, 0, 86, 77
1, 800144, Note_on_c, 0, 62, 45
1, 800151, Control_c, 0, 67, 15
1, 800169, Note_on_c, 0, 74, 28
1, 800188, Control_c, 0, 67, 21
1, 800200, Note_on_c, 0, 62, 0
1, 800207, Control_c, 0, 67, 25
1, 800215, Note_on_c, 0, 74, 0
1, 800227, Control_c, 0, 67, 31
1, 800246, Control_c, 0, 67, 39
1, 800263, Control_c, 0, 67, 48
1, 800272, Note_on_c, 0, 67, 25
1, 800281, Control_c, 0, 67, 60
1, 800300, Control_c, 0, 67, 73
1, 800318, Control_c, 0, 67, 85
1, 800336, Control_c, 0, 67, 92
1, 800342, Note_on_c, 0, 67, 0
1, 800354, Control_c, 0, 67, 98
1, 800373, Control_c, 0, 67, 104
1, 800391, Control_c, 0, 67, 113
1, 800411, Control_c, 0, 67, 122
1, 800429, Control_c, 0, 67, 127
1, 800448, Note_on_c, 0, 55, 40
1, 800470, Note_on_c, 0, 86, 0
1, 800474, Note_on_c, 0, 87, 64
1, 800503, Control_c, 0, 64, 115
1, 800520, Note_on_c, 0, 75, 44
1, 800536, Control_c, 0, 64, 85
1, 800554, Control_c, 0, 64, 56
1, 800572, Control_c, 0, 64, 47
1, 800590, Note_on_c, 0, 55, 0
1, 800608, Control_c, 0, 64, 51
1, 800627, Control_c, 0, 64, 65
1, 800634, Note_on_c, 0, 60, 43
1, 800646, Control_c, 0, 64, 78
1, 800665, Control_c, 0, 64, 94
1, 800683, Control_c, 0, 64, 109
1, 800692, Note_on_c, 0, 60, 0
1, 800701, Note_on_c, 0, 87, 0
1, 800701, Control_c, 0, 64, 118
1, 800741, Note_on_c, 0, 67, 40
1, 800761, Note_on_c, 0, 75, 0
1, 800819, Note_on_c, 0, 67, 0
1, 800829, Control_c, 0, 64, 122
1, 800852, Note_on_c, 0, 60, 41
1, 800919, Note_on_c, 0, 60, 0
1, 800982, Note_on_c, 0, 55, 38
1, 800992, Note_on_c, 0, 84, 61
1, 800995, Control_c, 0, 64, 117
1, 801014, Control_c, 0, 64, 99
1, 801031, Note_on_c, 0, 72, 41
1, 801034, Control_c, 0, 64, 75
1, 801052, Control_c, 0, 64, 58
1, 801089, Control_c, 0, 64, 63
1, 801107, Control_c, 0, 64, 77
1, 801110, Note_on_c, 0, 63, 43
1, 801121, Note_on_c, 0, 55, 0
1, 801124, Control_c, 0, 64, 95
1, 801144, Control_c, 0, 64, 119
1, 801163, Control_c, 0, 64, 127
1, 801171, Note_on_c, 0, 63, 0
1, 801187, Note_on_c, 0, 72, 0
1, 801200, Control_c, 0, 67, 118
1, 801216, Control_c, 0, 67, 106
1, 801235, Control_c, 0, 67, 92
1, 801238, Note_on_c, 0, 67, 38
1, 801253, Control_c, 0, 67, 77
1, 801272, Control_c, 0, 67, 63
1, 801275, Note_on_c, 0, 84, 0
1, 801290, Control_c, 0, 67, 50
1, 801309, Control_c, 0, 67, 38
1, 801313, Note_on_c, 0, 63, 47
1, 801320, Note_on_c, 0, 67, 0
1, 801327, Control_c, 0, 67, 26
1, 801346, Control_c, 0, 67, 16
1, 801364, Control_c, 0, 67, 8
1, 801397, Note_on_c, 0, 63, 0
1, 801474, Note_on_c, 0, 83, 60
1, 801498, Note_on_c, 0, 55, 39
1, 801499, Note_on_c, 0, 71, 46
1, 801509, Control_c, 0, 64, 114
1, 801527, Control_c, 0, 64, 90
1, 801546, Control_c, 0, 64, 68
1, 801547, Control_c, 0, 67, 0
1, 801563, Control_c, 0, 64, 60
1, 801581, Control_c, 0, 64, 62
1, 801591, Note_on_c, 0, 71, 0
1, 801601, Control_c, 0, 64, 73
1, 801601, Note_on_c, 0, 62, 47
1, 801619, Control_c, 0, 64, 90
1, 801638, Control_c, 0, 64, 114
1, 801656, Control_c, 0, 64, 127
1, 801661, Note_on_c, 0, 62, 0
1, 801722, Note_on_c, 0, 67, 39
1, 801778, Note_on_c, 0, 55, 0
1, 801815, Note_on_c, 0, 67, 0
1, 801831, Note_on_c, 0, 62, 32
1, 801928, Note_on_c, 0, 86, 70
1, 801946, Note_on_c, 0, 55, 46
1, 801969, Control_c, 0, 64, 120
1, 801970, Note_on_c, 0, 74, 54
1, 801987, Control_c, 0, 64, 96
1, 801993, Note_on_c, 0, 83, 0
1, 802005, Control_c, 0, 64, 71
1, 802023, Control_c, 0, 64, 57
1, 802056, Note_on_c, 0, 62, 0
1, 802059, Control_c, 0, 64, 62
1, 802062, Note_on_c, 0, 59, 46
1, 802079, Control_c, 0, 64, 75
1, 802096, Note_on_c, 0, 74, 0
1, 802097, Note_on_c, 0, 55, 0
1, 802097, Control_c, 0, 64, 92
1, 802117, Control_c, 0, 64, 111
1, 802127, Note_on_c, 0, 59, 0
1, 802135, Control_c, 0, 64, 122
1, 802188, Note_on_c, 0, 67, 40
1, 802225, Control_c, 0, 64, 126
1, 802266, Note_on_c, 0, 67, 0
1, 802267, Note_on_c, 0, 59, 44
1, 802353, Note_on_c, 0, 59, 0
1, 802432, Note_on_c, 0, 55, 43
1, 802437, Note_on_c, 0, 88, 77
1, 802463, Control_c, 0, 64, 113
1, 802477, Note_on_c, 0, 86, 0
1, 802477, Note_on_c, 0, 76, 40
1, 802481, Control_c, 0, 64, 88
1, 802499, Control_c, 0, 64, 66
1, 802517, Control_c, 0, 64, 57
1, 802555, Control_c, 0, 64, 65
1, 802573, Control_c, 0, 64, 78
1, 802591, Control_c, 0, 64, 96
1, 802599, Note_on_c, 0, 60, 37
1, 802611, Control_c, 0, 64, 118
1, 802613, Note_on_c, 0, 55, 0
1, 802627, Control_c, 0, 64, 127
1, 802630, Note_on_c, 0, 88, 0
1, 802644, Note_on_c, 0, 76, 0
1, 802644, Note_on_c, 0, 76, 43
1, 802646, Note_on_c, 0, 60, 0
1, 802655, Note_on_c, 0, 76, 0
1, 802701, Note_on_c, 0, 67, 37
1, 802776, Note_on_c, 0, 67, 0
1, 802783, Note_on_c, 0, 60, 39
1, 802908, Note_on_c, 0, 84, 69
1, 802913, Note_on_c, 0, 55, 41
1, 802920, Note_on_c, 0, 60, 0
1, 802940, Control_c, 0, 64, 118
1, 802959, Control_c, 0, 64, 93
1, 802964, Note_on_c, 0, 72, 27
1, 802978, Control_c, 0, 64, 67
1, 802996, Control_c, 0, 64, 55
1, 803033, Control_c, 0, 64, 63
1, 803048, Note_on_c, 0, 64, 49
1, 803051, Control_c, 0, 64, 78
1, 803071, Control_c, 0, 64, 98
1, 803084, Note_on_c, 0, 55, 0
1, 803087, Control_c, 0, 64, 121
1, 803100, Note_on_c, 0, 72, 0
1, 803106, Control_c, 0, 64, 127
1, 803117, Note_on_c, 0, 64, 0
1, 803163, Note_on_c, 0, 67, 45
1, 803200, Note_on_c, 0, 84, 0
1, 803239, Note_on_c, 0, 67, 0
1, 803278, Note_on_c, 0, 64, 35
1, 803330, Note_on_c, 0, 64, 0
1, 803381, Note_on_c, 0, 83, 71
1, 803410, Note_on_c, 0, 71, 49
1, 803415, Control_c, 0, 64, 121
1, 803429, Note_on_c, 0, 55, 35
1, 803432, Control_c, 0, 64, 96
1, 803452, Control_c, 0, 64, 71
1, 803467, Note_on_c, 0, 71, 0
1, 803471, Control_c, 0, 64, 57
1, 803506, Note_on_c, 0, 55, 0
1, 803509, Control_c, 0, 64, 64
1, 803526, Control_c, 0, 64, 79
1, 803536, Note_on_c, 0, 62, 48
1, 803546, Control_c, 0, 64, 99
1, 803564, Control_c, 0, 64, 123
1, 803582, Control_c, 0, 64, 127
1, 803591, Note_on_c, 0, 62, 0
1, 803653, Note_on_c, 0, 67, 31
1, 803738, Note_on_c, 0, 62, 42
1, 803762, Note_on_c, 0, 67, 0
1, 803821, Control_c, 0, 67, 9
1, 803855, Note_on_c, 0, 62, 0
1, 803860, Note_on_c, 0, 86, 71
1, 803871, Note_on_c, 0, 55, 42
1, 803874, Control_c, 0, 67, 15
1, 803893, Control_c, 0, 64, 116
1, 803897, Note_on_c, 0, 83, 0
1, 803898, Note_on_c, 0, 74, 46
1, 803913, Control_c, 0, 64, 90
1, 803914, Control_c, 0, 67, 24
1, 803932, Control_c, 0, 64, 66
1, 803935, Control_c, 0, 67, 31
1, 803951, Control_c, 0, 64, 57
1, 803952, Control_c, 0, 67, 38
1, 803971, Control_c, 0, 67, 44
1, 803988, Control_c, 0, 64, 67
1, 803990, Control_c, 0, 67, 49
1, 804005, Control_c, 0, 64, 81
1, 804006, Control_c, 0, 67, 55
1, 804015, Note_on_c, 0, 59, 38
1, 804024, Control_c, 0, 64, 99
1, 804027, Control_c, 0, 67, 62
1, 804043, Control_c, 0, 64, 113
1, 804044, Control_c, 0, 67, 71
1, 804046, Note_on_c, 0, 74, 0
1, 804062, Control_c, 0, 64, 118
1, 804063, Control_c, 0, 67, 81
1, 804079, Control_c, 0, 67, 90
1, 804097, Control_c, 0, 67, 98
1, 804103, Note_on_c, 0, 59, 0
1, 804105, Note_on_c, 0, 55, 0
1, 804116, Control_c, 0, 67, 105
1, 804130, Note_on_c, 0, 67, 38
1, 804134, Control_c, 0, 67, 116
1, 804152, Control_c, 0, 67, 127
1, 804213, Note_on_c, 0, 86, 0
1, 804215, Note_on_c, 0, 67, 0
1, 804266, Note_on_c, 0, 59, 21
1, 804539, Note_on_c, 0, 55, 36
1, 804550, Poly_aftertouch_c, 0, 59, 24
1, 804589, Note_on_c, 0, 87, 49
1, 804629, Note_on_c, 0, 75, 35
1, 804665, Control_c, 0, 64, 103
1, 804685, Control_c, 0, 64, 78
1, 804703, Control_c, 0, 64, 52
1, 804712, Note_on_c, 0, 59, 0
1, 804712, Poly_aftertouch_c, 0, 59, 0
1, 804720, Control_c, 0, 64, 42
1, 804776, Control_c, 0, 64, 53
1, 804793, Control_c, 0, 64, 72
1, 804811, Control_c, 0, 64, 88
1, 804825, Note_on_c, 0, 55, 0
1, 804830, Control_c, 0, 64, 105
1, 804838, Note_on_c, 0, 60, 24
1, 804839, Note_on_c, 0, 75, 0
1, 804849, Control_c, 0, 64, 115
1, 804864, Note_on_c, 0, 87, 0
1, 804896, Note_on_c, 0, 60, 0
1, 804981, Note_on_c, 0, 67, 32
1, 805041, Note_on_c, 0, 67, 0
1, 805077, Note_on_c, 0, 60, 25
1, 805170, Note_on_c, 0, 60, 0
1, 805304, Note_on_c, 0, 55, 33
1, 805333, Note_on_c, 0, 84, 46
1, 805354, Note_on_c, 0, 72, 33
1, 805419, Note_on_c, 0, 72, 0
1, 805469, Note_on_c, 0, 60, 42
1, 805474, Note_on_c, 0, 55, 0
1, 805489, Note_on_c, 0, 84, 0
1, 805544, Note_on_c, 0, 60, 0
1, 805629, Note_on_c, 0, 63, 35
1, 805714, Note_on_c, 0, 60, 37
1, 805721, Note_on_c, 0, 63, 0
1, 805783, Note_on_c, 0, 60, 0
1, 805862, Note_on_c, 0, 79, 52
1, 805875, Note_on_c, 0, 55, 43
1, 805877, Control_c, 0, 64, 104
1, 805895, Control_c, 0, 64, 84
1, 805914, Control_c, 0, 64, 62
1, 805933, Control_c, 0, 64, 55
1, 805966, Note_on_c, 0, 55, 0
1, 805968, Control_c, 0, 64, 58
1, 805987, Control_c, 0, 64, 70
1, 806005, Control_c, 0, 64, 82
1, 806017, Note_on_c, 0, 59, 38
1, 806022, Control_c, 0, 64, 96
1, 806043, Control_c, 0, 64, 108
1, 806052, Note_on_c, 0, 79, 0
1, 806060, Control_c, 0, 64, 114
1, 806086, Note_on_c, 0, 59, 0
1, 806118, Control_c, 0, 64, 119
1, 806136, Note_on_c, 0, 62, 43
1, 806186, Control_c, 0, 64, 124
1, 806207, Note_on_c, 0, 62, 0
1, 806255, Note_on_c, 0, 59, 41
1, 806327, Note_on_c, 0, 59, 0
1, 806366, Note_on_c, 0, 55, 51
1, 806372, Control_c, 0, 64, 119
1, 806379, Note_on_c, 0, 79, 56
1, 806389, Control_c, 0, 64, 96
1, 806407, Control_c, 0, 64, 73
1, 806427, Control_c, 0, 64, 64
1, 806443, Control_c, 0, 64, 66
1, 806448, Note_on_c, 0, 55, 0
1, 806462, Control_c, 0, 64, 75
1, 806480, Control_c, 0, 64, 90
1, 806499, Control_c, 0, 64, 110
1, 806518, Note_on_c, 0, 60, 39
1, 806518, Control_c, 0, 64, 126
1, 806537, Note_on_c, 0, 79, 0
1, 806566, Note_on_c, 0, 60, 0
1, 806617, Note_on_c, 0, 63, 51
1, 806723, Note_on_c, 0, 60, 44
1, 806782, Note_on_c, 0, 63, 0
1, 806813, Note_on_c, 0, 60, 0
1, 806849, Control_c, 0, 64, 104
1, 806857, Note_on_c, 0, 55, 63
1, 806869, Control_c, 0, 64, 77
1, 806878, Note_on_c, 0, 81, 60
1, 806886, Control_c, 0, 64, 58
1, 806900, Note_on_c, 0, 81, 0
1, 806902, Control_c, 0, 64, 56
1, 806929, Note_on_c, 0, 79, 56
1, 806942, Note_on_c, 0, 55, 0
1, 806942, Control_c, 0, 64, 60
1, 806960, Control_c, 0, 64, 63
1, 806968, Note_on_c, 0, 79, 0
1, 806979, Control_c, 0, 64, 64
1, 806981, Note_on_c, 0, 59, 48
1, 806989, Note_on_c, 0, 81, 68
1, 807015, Control_c, 0, 64, 65
1, 807023, Note_on_c, 0, 81, 0
1, 807030, Note_on_c, 0, 59, 0
1, 807053, Note_on_c, 0, 79, 64
1, 807105, Note_on_c, 0, 79, 0
1, 807116, Note_on_c, 0, 62, 35
1, 807129, Note_on_c, 0, 81, 62
1, 807155, Note_on_c, 0, 81, 0
1, 807191, Note_on_c, 0, 59, 43
1, 807193, Note_on_c, 0, 79, 63
1, 807214, Control_c, 0, 64, 67
1, 807222, Note_on_c, 0, 62, 0
1, 807239, Note_on_c, 0, 79, 0
1, 807240, Note_on_c, 0, 81, 68
1, 807270, Control_c, 0, 64, 66
1, 807281, Note_on_c, 0, 81, 0
1, 807288, Control_c, 0, 64, 62
1, 807294, Note_on_c, 0, 59, 0
1, 807306, Control_c, 0, 64, 59
1, 807316, Note_on_c, 0, 79, 62
1, 807324, Control_c, 0, 64, 57
1, 807336, Note_on_c, 0, 55, 70
1, 807355, Note_on_c, 0, 79, 0
1, 807365, Note_on_c, 0, 81, 69
1, 807402, Note_on_c, 0, 81, 0
1, 807415, Note_on_c, 0, 55, 0
1, 807446, Note_on_c, 0, 60, 61
1, 807449, Note_on_c, 0, 79, 61
1, 807489, Note_on_c, 0, 79, 0
1, 807495, Note_on_c, 0, 81, 73
1, 807508, Note_on_c, 0, 60, 0
1, 807527, Note_on_c, 0, 81, 0
1, 807567, Note_on_c, 0, 64, 46
1, 807570, Note_on_c, 0, 79, 63
1, 807611, Note_on_c, 0, 79, 0
1, 807621, Note_on_c, 0, 81, 71
1, 807654, Note_on_c, 0, 81, 0
1, 807680, Note_on_c, 0, 64, 0
1, 807694, Note_on_c, 0, 79, 61
1, 807701, Note_on_c, 0, 60, 36
1, 807739, Note_on_c, 0, 79, 0
1, 807745, Note_on_c, 0, 81, 72
1, 807766, Note_on_c, 0, 60, 0
1, 807776, Note_on_c, 0, 81, 0
1, 807807, Note_on_c, 0, 55, 79
1, 807813, Note_on_c, 0, 79, 66
1, 807862, Note_on_c, 0, 81, 73
1, 807864, Note_on_c, 0, 79, 0
1, 807894, Note_on_c, 0, 55, 0
1, 807894, Control_c, 0, 64, 55
1, 807901, Note_on_c, 0, 81, 0
1, 807917, Note_on_c, 0, 59, 63
1, 807947, Note_on_c, 0, 79, 59
1, 807971, Note_on_c, 0, 59, 0
1, 807991, Note_on_c, 0, 79, 0
1, 808007, Note_on_c, 0, 81, 72
1, 808050, Note_on_c, 0, 81, 0
1, 808054, Note_on_c, 0, 62, 58
1, 808084, Note_on_c, 0, 79, 65
1, 808140, Note_on_c, 0, 79, 0
1, 808144, Note_on_c, 0, 81, 61
1, 808161, Note_on_c, 0, 62, 0
1, 808163, Note_on_c, 0, 59, 52
1, 808177, Note_on_c, 0, 81, 0
1, 808217, Note_on_c, 0, 79, 57
1, 808259, Note_on_c, 0, 81, 75
1, 808268, Note_on_c, 0, 79, 0
1, 808292, Note_on_c, 0, 59, 0
1, 808292, Note_on_c, 0, 55, 82
1, 808310, Note_on_c, 0, 81, 0
1, 808338, Note_on_c, 0, 79, 61
1, 808382, Note_on_c, 0, 55, 0
1, 808390, Note_on_c, 0, 81, 75
1, 808394, Note_on_c, 0, 79, 0
1, 808408, Note_on_c, 0, 57, 71
1, 808439, Note_on_c, 0, 81, 0
1, 808467, Note_on_c, 0, 57, 0
1, 808480, Note_on_c, 0, 79, 62
1, 808528, Note_on_c, 0, 81, 73
1, 808529, Note_on_c, 0, 79, 0
1, 808530, Note_on_c, 0, 60, 60
1, 808571, Note_on_c, 0, 81, 0
1, 808607, Note_on_c, 0, 79, 56
1, 808622, Note_on_c, 0, 60, 0
1, 808639, Note_on_c, 0, 57, 57
1, 808653, Note_on_c, 0, 79, 0
1, 808660, Note_on_c, 0, 81, 72
1, 808696, Note_on_c, 0, 81, 0
1, 808719, Note_on_c, 0, 57, 0
1, 808746, Note_on_c, 0, 79, 66
1, 808760, Note_on_c, 0, 55, 84
1, 808785, Note_on_c, 0, 81, 80
1, 808786, Note_on_c, 0, 79, 0
1, 808822, Note_on_c, 0, 55, 0
1, 808826, Note_on_c, 0, 81, 0
1, 808873, Note_on_c, 0, 79, 65
1, 808876, Note_on_c, 0, 59, 72
1, 808917, Note_on_c, 0, 79, 0
1, 808917, Note_on_c, 0, 81, 75
1, 808924, Control_c, 0, 67, 114
1, 808956, Control_c, 0, 67, 100
1, 808975, Control_c, 0, 67, 83
1, 808978, Note_on_c, 0, 81, 0
1, 808993, Control_c, 0, 67, 66
1, 808997, Note_on_c, 0, 59, 0
1, 809011, Control_c, 0, 67, 47
1, 809014, Note_on_c, 0, 57, 66
1, 809019, Note_on_c, 0, 79, 65
1, 809027, Control_c, 0, 67, 28
1, 809050, Control_c, 0, 67, 10
1, 809060, Note_on_c, 0, 81, 75
1, 809061, Note_on_c, 0, 79, 0
1, 809069, Control_c, 0, 67, 0
1, 809101, Note_on_c, 0, 57, 0
1, 809106, Note_on_c, 0, 81, 0
1, 809134, Note_on_c, 0, 55, 78
1, 809153, Note_on_c, 0, 79, 68
1, 809195, Note_on_c, 0, 81, 76
1, 809196, Note_on_c, 0, 79, 0
1, 809199, Note_on_c, 0, 55, 0
1, 809237, Note_on_c, 0, 81, 0
1, 809243, Note_on_c, 0, 53, 90
1, 809274, Note_on_c, 0, 79, 68
1, 809306, Note_on_c, 0, 53, 0
1, 809328, Note_on_c, 0, 81, 79
1, 809329, Note_on_c, 0, 79, 0
1, 809370, Note_on_c, 0, 57, 80
1, 809373, Note_on_c, 0, 81, 0
1, 809415, Note_on_c, 0, 79, 70
1, 809426, Note_on_c, 0, 57, 0
1, 809465, Note_on_c, 0, 79, 0
1, 809466, Note_on_c, 0, 81, 74
1, 809489, Note_on_c, 0, 55, 75
1, 809509, Note_on_c, 0, 81, 0
1, 809537, Note_on_c, 0, 79, 69
1, 809541, Note_on_c, 0, 55, 0
1, 809594, Note_on_c, 0, 81, 77
1, 809596, Note_on_c, 0, 79, 0
1, 809604, Note_on_c, 0, 53, 81
1, 809638, Note_on_c, 0, 81, 0
1, 809656, Note_on_c, 0, 53, 0
1, 809674, Note_on_c, 0, 79, 73
1, 809724, Note_on_c, 0, 52, 99
1, 809725, Note_on_c, 0, 81, 80
1, 809726, Note_on_c, 0, 79, 0
1, 809769, Note_on_c, 0, 81, 0
1, 809789, Note_on_c, 0, 52, 0
1, 809815, Note_on_c, 0, 79, 73
1, 809842, Note_on_c, 0, 55, 83
1, 809878, Note_on_c, 0, 81, 79
1, 809879, Note_on_c, 0, 79, 0
1, 809914, Note_on_c, 0, 81, 0
1, 809924, Note_on_c, 0, 55, 0
1, 809959, Note_on_c, 0, 79, 69
1, 809973, Note_on_c, 0, 53, 80
1, 810012, Note_on_c, 0, 79, 0
1, 810013, Note_on_c, 0, 81, 79
1, 810039, Note_on_c, 0, 53, 0
1, 810057, Note_on_c, 0, 81, 0
1, 810085, Note_on_c, 0, 79, 75
1, 810091, Note_on_c, 0, 52, 83
1, 810143, Note_on_c, 0, 81, 73
1, 810146, Note_on_c, 0, 79, 0
1, 810150, Note_on_c, 0, 52, 0
1, 810178, Note_on_c, 0, 81, 0
1, 810215, Note_on_c, 0, 79, 72
1, 810216, Note_on_c, 0, 50, 99
1, 810268, Note_on_c, 0, 79, 0
1, 810269, Note_on_c, 0, 81, 81
1, 810277, Note_on_c, 0, 50, 0
1, 810312, Note_on_c, 0, 81, 0
1, 810338, Note_on_c, 0, 53, 78
1, 810345, Note_on_c, 0, 79, 78
1, 810395, Note_on_c, 0, 79, 0
1, 810395, Note_on_c, 0, 81, 79
1, 810430, Note_on_c, 0, 81, 0
1, 810442, Note_on_c, 0, 53, 0
1, 810464, Note_on_c, 0, 52, 73
1, 810471, Note_on_c, 0, 79, 69
1, 810510, Note_on_c, 0, 81, 80
1, 810516, Note_on_c, 0, 79, 0
1, 810532, Note_on_c, 0, 52, 0
1, 810547, Note_on_c, 0, 50, 75
1, 810556, Note_on_c, 0, 81, 0
1, 810584, Note_on_c, 0, 50, 0
1, 810590, Note_on_c, 0, 79, 75
1, 810592, Control_c, 0, 64, 53
1, 810610, Control_c, 0, 64, 44
1, 810628, Control_c, 0, 64, 0
1, 810714, Note_on_c, 0, 81, 85
1, 810716, Note_on_c, 0, 48, 101
1, 810721, Note_on_c, 0, 36, 94
1, 810758, Control_c, 0, 64, 51
1, 810777, Control_c, 0, 64, 93
1, 810784, Note_on_c, 0, 36, 0
1, 810789, Note_on_c, 0, 81, 0
1, 810796, Control_c, 0, 64, 118
1, 810827, Control_c, 0, 64, 127
1, 810846, Note_on_c, 0, 79, 0
1, 810846, Note_on_c, 0, 79, 23
1, 810871, Note_on_c, 0, 79, 0
1, 810904, Note_on_c, 0, 81, 65
1, 810939, Note_on_c, 0, 81, 0
1, 810946, Note_on_c, 0, 48, 0
1, 810947, Note_on_c, 0, 50, 69
1, 810960, Note_on_c, 0, 79, 68
1, 811012, Note_on_c, 0, 52, 76
1, 811016, Note_on_c, 0, 79, 0
1, 811034, Note_on_c, 0, 50, 0
1, 811036, Note_on_c, 0, 81, 76
1, 811067, Note_on_c, 0, 81, 0
1, 811076, Note_on_c, 0, 52, 0
1, 811088, Note_on_c, 0, 53, 63
1, 811091, Note_on_c, 0, 79, 56
1, 811118, Note_on_c, 0, 53, 0
1, 811118, Note_on_c, 0, 55, 70
1, 811138, Note_on_c, 0, 79, 0
1, 811158, Note_on_c, 0, 81, 76
1, 811187, Note_on_c, 0, 55, 0
1, 811190, Note_on_c, 0, 57, 81
1, 811198, Note_on_c, 0, 81, 0
1, 811214, Note_on_c, 0, 79, 90
1, 811214, Control_c, 0, 64, 119
1, 811229, Note_on_c, 0, 59, 78
1, 811232, Control_c, 0, 64, 114
1, 811266, Note_on_c, 0, 57, 0
1, 811267, Note_on_c, 0, 79, 0
1, 811270, Control_c, 0, 64, 109
1, 811276, Note_on_c, 0, 91, 105
1, 811276, Note_on_c, 0, 60, 93
1, 811295, Note_on_c, 0, 59, 0
1, 811325, Control_c, 0, 64, 104
1, 811334, Note_on_c, 0, 91, 0
1, 811349, Note_on_c, 0, 79, 66
1, 811399, Note_on_c, 0, 60, 0
1, 811407, Note_on_c, 0, 79, 0
1, 811431, Note_on_c, 0, 62, 77
1, 811450, Note_on_c, 0, 81, 72
1, 811481, Note_on_c, 0, 81, 0
1, 811495, Note_on_c, 0, 62, 0
1, 811514, Note_on_c, 0, 65, 60
1, 811516, Note_on_c, 0, 64, 61
1, 811517, Note_on_c, 0, 79, 53
1, 811547, Note_on_c, 0, 79, 0
1, 811552, Note_on_c, 0, 64, 0
1, 811578, Note_on_c, 0, 81, 76
1, 811600, Note_on_c, 0, 65, 0
1, 811608, Note_on_c, 0, 81, 0
1, 811609, Note_on_c, 0, 67, 68
1, 811635, Note_on_c, 0, 79, 61
1, 811668, Note_on_c, 0, 67, 0
1, 811688, Note_on_c, 0, 69, 76
1, 811696, Note_on_c, 0, 79, 0
1, 811699, Note_on_c, 0, 81, 85
1, 811710, Control_c, 0, 64, 99
1, 811727, Note_on_c, 0, 81, 0
1, 811733, Note_on_c, 0, 69, 0
1, 811749, Note_on_c, 0, 71, 80
1, 811763, Control_c, 0, 64, 92
1, 811777, Note_on_c, 0, 79, 56
1, 811787, Note_on_c, 0, 72, 98
1, 811795, Note_on_c, 0, 91, 102
1, 811799, Control_c, 0, 64, 88
1, 811818, Note_on_c, 0, 71, 0
1, 811818, Control_c, 0, 64, 85
1, 811836, Control_c, 0, 64, 82
1, 811847, Note_on_c, 0, 91, 0
1, 811858, Note_on_c, 0, 72, 0
1, 811874, Control_c, 0, 64, 79
1, 811898, Note_on_c, 0, 79, 0
1, 811917, Note_on_c, 0, 71, 88
1, 811929, Note_on_c, 0, 81, 84
1, 811970, Note_on_c, 0, 71, 0
1, 811998, Note_on_c, 0, 81, 0
1, 812020, Control_c, 0, 64, 77
1, 812020, Note_on_c, 0, 79, 73
1, 812032, Note_on_c, 0, 69, 90
1, 812067, Note_on_c, 0, 79, 0
1, 812076, Note_on_c, 0, 69, 0
1, 812076, Control_c, 0, 64, 74
1, 812089, Note_on_c, 0, 81, 73
1, 812141, Note_on_c, 0, 67, 94
1, 812150, Note_on_c, 0, 81, 0
1, 812167, Note_on_c, 0, 79, 69
1, 812198, Note_on_c, 0, 67, 0
1, 812205, Control_c, 0, 64, 72
1, 812230, Note_on_c, 0, 79, 0
1, 812240, Note_on_c, 0, 81, 76
1, 812259, Note_on_c, 0, 65, 88
1, 812295, Note_on_c, 0, 81, 0
1, 812312, Note_on_c, 0, 65, 0
1, 812315, Note_on_c, 0, 79, 56
1, 812379, Note_on_c, 0, 64, 91
1, 812387, Note_on_c, 0, 79, 0
1, 812401, Note_on_c, 0, 81, 68
1, 812430, Note_on_c, 0, 64, 0
1, 812439, Note_on_c, 0, 81, 0
1, 812492, Note_on_c, 0, 88, 101
1, 812492, Note_on_c, 0, 62, 93
1, 812494, Note_on_c, 0, 79, 64
1, 812544, Note_on_c, 0, 79, 0
1, 812553, Note_on_c, 0, 62, 0
1, 812582, Note_on_c, 0, 81, 65
1, 812612, Note_on_c, 0, 60, 87
1, 812633, Note_on_c, 0, 88, 0
1, 812646, Control_c, 0, 64, 70
1, 812665, Note_on_c, 0, 60, 0
1, 812670, Note_on_c, 0, 81, 0
1, 812718, Control_c, 0, 64, 67
1, 812728, Note_on_c, 0, 86, 99
1, 812737, Control_c, 0, 64, 66
1, 812741, Note_on_c, 0, 59, 96
1, 812742, Note_on_c, 0, 79, 82
1, 812754, Control_c, 0, 64, 64
1, 812768, Note_on_c, 0, 79, 0
1, 812770, Control_c, 0, 64, 62
1, 812787, Note_on_c, 0, 59, 0
1, 812790, Control_c, 0, 64, 60
1, 812851, Note_on_c, 0, 60, 85
1, 812857, Note_on_c, 0, 81, 68
1, 812892, Note_on_c, 0, 60, 0
1, 812903, Note_on_c, 0, 81, 0
1, 812910, Note_on_c, 0, 79, 56
1, 812957, Control_c, 0, 64, 58
1, 812969, Note_on_c, 0, 79, 0
1, 812972, Note_on_c, 0, 59, 86
1, 812988, Note_on_c, 0, 81, 60
1, 813012, Control_c, 0, 64, 56
1, 813022, Note_on_c, 0, 59, 0
1, 813052, Note_on_c, 0, 81, 0
1, 813058, Note_on_c, 0, 79, 69
1, 813067, Control_c, 0, 64, 54
1, 813085, Note_on_c, 0, 57, 88
1, 813109, Note_on_c, 0, 79, 0
1, 813123, Note_on_c, 0, 81, 66
1, 813137, Note_on_c, 0, 57, 0
1, 813141, Control_c, 0, 64, 52
1, 813178, Control_c, 0, 64, 50
1, 813199, Note_on_c, 0, 79, 88
1, 813200, Note_on_c, 0, 81, 0
1, 813202, Note_on_c, 0, 55, 92
1, 813215, Control_c, 0, 64, 47
1, 813251, Control_c, 0, 64, 45
1, 813257, Note_on_c, 0, 55, 0
1, 813258, Note_on_c, 0, 79, 0
1, 813272, Note_on_c, 0, 81, 66
1, 813317, Note_on_c, 0, 53, 85
1, 813344, Note_on_c, 0, 81, 0
1, 813356, Note_on_c, 0, 79, 71
1, 813368, Note_on_c, 0, 53, 0
1, 813405, Note_on_c, 0, 79, 0
1, 813419, Note_on_c, 0, 81, 70
1, 813436, Note_on_c, 0, 52, 86
1, 813471, Control_c, 0, 64, 43
1, 813478, Note_on_c, 0, 81, 0
1, 813487, Note_on_c, 0, 52, 0
1, 813502, Note_on_c, 0, 79, 70
1, 813503, Note_on_c, 0, 86, 0
1, 813554, Note_on_c, 0, 50, 85
1, 813562, Note_on_c, 0, 81, 71
1, 813564, Note_on_c, 0, 79, 0
1, 813595, Note_on_c, 0, 81, 0
1, 813600, Note_on_c, 0, 50, 0
1, 813678, Note_on_c, 0, 84, 97
1, 813684, Note_on_c, 0, 81, 89
1, 813684, Note_on_c, 0, 48, 95
1, 813686, Note_on_c, 0, 79, 63
1, 813712, Note_on_c, 0, 79, 0
1, 813724, Note_on_c, 0, 48, 0
1, 813760, Note_on_c, 0, 81, 0
1, 813781, Note_on_c, 0, 79, 75
1, 813810, Note_on_c, 0, 48, 79
1, 813834, Note_on_c, 0, 79, 0
1, 813843, Note_on_c, 0, 48, 0
1, 813851, Note_on_c, 0, 81, 70
1, 813919, Note_on_c, 0, 81, 0
1, 813919, Note_on_c, 0, 47, 81
1, 813923, Note_on_c, 0, 79, 72
1, 813963, Note_on_c, 0, 47, 0
1, 813964, Control_c, 0, 64, 41
1, 813989, Note_on_c, 0, 79, 0
1, 814002, Note_on_c, 0, 81, 70
1, 814036, Note_on_c, 0, 45, 87
1, 814079, Note_on_c, 0, 81, 0
1, 814079, Note_on_c, 0, 45, 0
1, 814087, Note_on_c, 0, 79, 67
1, 814105, Note_on_c, 0, 84, 0
1, 814120, Note_on_c, 0, 79, 0
1, 814143, Note_on_c, 0, 43, 90
1, 814147, Note_on_c, 0, 88, 99
1, 814150, Note_on_c, 0, 81, 80
1, 814157, Note_on_c, 0, 84, 43
1, 814188, Note_on_c, 0, 84, 0
1, 814198, Note_on_c, 0, 43, 0
1, 814221, Note_on_c, 0, 79, 72
1, 814226, Note_on_c, 0, 81, 0
1, 814255, Note_on_c, 0, 41, 86
1, 814290, Note_on_c, 0, 79, 0
1, 814306, Note_on_c, 0, 41, 0
1, 814310, Note_on_c, 0, 81, 66
1, 814378, Note_on_c, 0, 81, 0
1, 814380, Note_on_c, 0, 79, 70
1, 814387, Note_on_c, 0, 40, 77
1, 814388, Control_c, 0, 64, 32
1, 814407, Control_c, 0, 64, 22
1, 814425, Control_c, 0, 64, 0
1, 814454, Note_on_c, 0, 79, 0
1, 814460, Note_on_c, 0, 81, 71
1, 814463, Note_on_c, 0, 40, 0
1, 814486, Note_on_c, 0, 38, 75
1, 814527, Note_on_c, 0, 81, 0
1, 814560, Note_on_c, 0, 38, 0
1, 814561, Note_on_c, 0, 79, 62
1, 814572, Note_on_c, 0, 88, 0
1, 814618, Note_on_c, 0, 79, 0
1, 814635, Note_on_c, 0, 48, 98
1, 814635, Note_on_c, 0, 81, 80
1, 814643, Note_on_c, 0, 36, 86
1, 814680, Note_on_c, 0, 36, 0
1, 814699, Control_c, 0, 64, 62
1, 814709, Note_on_c, 0, 81, 0
1, 814715, Note_on_c, 0, 79, 55
1, 814718, Control_c, 0, 64, 109
1, 814736, Control_c, 0, 64, 127
1, 814783, Note_on_c, 0, 79, 0
1, 814806, Note_on_c, 0, 81, 65
1, 814848, Note_on_c, 0, 50, 60
1, 814851, Note_on_c, 0, 81, 0
1, 814855, Note_on_c, 0, 48, 0
1, 814874, Note_on_c, 0, 79, 59
1, 814906, Note_on_c, 0, 52, 76
1, 814917, Note_on_c, 0, 79, 0
1, 814954, Note_on_c, 0, 50, 0
1, 814958, Note_on_c, 0, 81, 54
1, 814971, Note_on_c, 0, 52, 0
1, 814985, Note_on_c, 0, 81, 0
1, 815022, Note_on_c, 0, 55, 69
1, 815028, Note_on_c, 0, 79, 47
1, 815061, Note_on_c, 0, 79, 0
1, 815069, Note_on_c, 0, 81, 79
1, 815095, Note_on_c, 0, 57, 59
1, 815099, Poly_aftertouch_c, 0, 53, 0
1, 815111, Note_on_c, 0, 81, 0
1, 815113, Note_on_c, 0, 55, 0
1, 815120, Note_on_c, 0, 59, 78
1, 815132, Note_on_c, 0, 79, 80
1, 815137, Note_on_c, 0, 57, 0
1, 815137, Note_on_c, 0, 57, 53
1, 815168, Note_on_c, 0, 60, 90
1, 815170, Note_on_c, 0, 91, 104
1, 815180, Note_on_c, 0, 57, 0
1, 815185, Note_on_c, 0, 59, 0
1, 815226, Note_on_c, 0, 91, 0
1, 815312, Note_on_c, 0, 60, 0
1, 815315, Note_on_c, 0, 81, 80
1, 815318, Note_on_c, 0, 79, 0
1, 815326, Note_on_c, 0, 62, 75
1, 815371, Note_on_c, 0, 81, 0
1, 815374, Note_on_c, 0, 64, 81
1, 815391, Note_on_c, 0, 62, 0
1, 815396, Note_on_c, 0, 79, 56
1, 815437, Note_on_c, 0, 64, 0
1, 815441, Note_on_c, 0, 65, 76
1, 815442, Note_on_c, 0, 79, 0
1, 815455, Note_on_c, 0, 81, 76
1, 815479, Note_on_c, 0, 65, 0
1, 815495, Note_on_c, 0, 67, 76
1, 815527, Note_on_c, 0, 81, 0
1, 815548, Note_on_c, 0, 79, 72
1, 815557, Note_on_c, 0, 67, 0
1, 815570, Note_on_c, 0, 69, 80
1, 815604, Note_on_c, 0, 81, 82
1, 815609, Note_on_c, 0, 79, 0
1, 815619, Note_on_c, 0, 71, 82
1, 815625, Note_on_c, 0, 69, 0
1, 815646, Note_on_c, 0, 81, 0
1, 815663, Note_on_c, 0, 72, 100
1, 815679, Note_on_c, 0, 79, 81
1, 815681, Note_on_c, 0, 91, 105
1, 815694, Note_on_c, 0, 71, 0
1, 815740, Note_on_c, 0, 72, 0
1, 815761, Note_on_c, 0, 79, 0
1, 815805, Note_on_c, 0, 71, 85
1, 815806, Note_on_c, 0, 81, 78
1, 815811, Note_on_c, 0, 91, 0
1, 815854, Note_on_c, 0, 71, 0
1, 815873, Note_on_c, 0, 81, 0
1, 815894, Note_on_c, 0, 79, 69
1, 815915, Note_on_c, 0, 69, 85
1, 815951, Note_on_c, 0, 79, 0
1, 815961, Note_on_c, 0, 69, 0
1, 815962, Note_on_c, 0, 81, 73
1, 816018, Note_on_c, 0, 67, 89
1, 816027, Note_on_c, 0, 81, 0
1, 816040, Note_on_c, 0, 79, 67
1, 816071, Note_on_c, 0, 67, 0
1, 816100, Note_on_c, 0, 79, 0
1, 816121, Note_on_c, 0, 81, 72
1, 816136, Note_on_c, 0, 65, 87
1, 816185, Note_on_c, 0, 81, 0
1, 816192, Note_on_c, 0, 65, 0
1, 816199, Note_on_c, 0, 79, 58
1, 816243, Control_c, 0, 64, 123
1, 816261, Note_on_c, 0, 64, 88
1, 816268, Note_on_c, 0, 79, 0
1, 816269, Note_on_c, 0, 81, 76
1, 816308, Note_on_c, 0, 64, 0
1, 816315, Control_c, 0, 64, 119
1, 816326, Note_on_c, 0, 81, 0
1, 816363, Note_on_c, 0, 88, 102
1, 816364, Note_on_c, 0, 62, 92
1, 816370, Note_on_c, 0, 79, 84
1, 816439, Note_on_c, 0, 62, 0
1, 816439, Control_c, 0, 64, 115
1, 816478, Note_on_c, 0, 79, 0
1, 816493, Note_on_c, 0, 60, 90
1, 816498, Note_on_c, 0, 81, 78
1, 816514, Control_c, 0, 64, 109
1, 816524, Note_on_c, 0, 88, 0
1, 816531, Control_c, 0, 64, 103
1, 816545, Note_on_c, 0, 60, 0
1, 816551, Control_c, 0, 64, 95
1, 816555, Note_on_c, 0, 81, 0
1, 816570, Control_c, 0, 64, 88
1, 816586, Control_c, 0, 64, 83
1, 816598, Note_on_c, 0, 86, 99
1, 816602, Note_on_c, 0, 59, 94
1, 816604, Control_c, 0, 64, 78
1, 816612, Note_on_c, 0, 79, 83
1, 816624, Control_c, 0, 64, 75
1, 816658, Note_on_c, 0, 59, 0
1, 816659, Note_on_c, 0, 79, 0
1, 816716, Note_on_c, 0, 81, 81
1, 816725, Note_on_c, 0, 60, 83
1, 816770, Note_on_c, 0, 60, 0
1, 816771, Control_c, 0, 64, 73
1, 816786, Note_on_c, 0, 81, 0
1, 816794, Note_on_c, 0, 79, 69
1, 816829, Control_c, 0, 64, 71
1, 816847, Note_on_c, 0, 59, 82
1, 816847, Control_c, 0, 64, 69
1, 816860, Note_on_c, 0, 79, 0
1, 816865, Control_c, 0, 64, 67
1, 816877, Note_on_c, 0, 81, 71
1, 816884, Control_c, 0, 64, 65
1, 816901, Note_on_c, 0, 59, 0
1, 816902, Control_c, 0, 64, 64
1, 816938, Control_c, 0, 64, 62
1, 816943, Note_on_c, 0, 81, 0
1, 816957, Control_c, 0, 64, 61
1, 816959, Note_on_c, 0, 57, 84
1, 816963, Note_on_c, 0, 79, 61
1, 816974, Control_c, 0, 64, 60
1, 816999, Note_on_c, 0, 79, 0
1, 817011, Note_on_c, 0, 57, 0
1, 817011, Control_c, 0, 64, 58
1, 817025, Note_on_c, 0, 81, 64
1, 817051, Note_on_c, 0, 86, 0
1, 817074, Note_on_c, 0, 55, 89
1, 817087, Note_on_c, 0, 81, 0
1, 817092, Note_on_c, 0, 79, 81
1, 817105, Control_c, 0, 64, 56
1, 817129, Note_on_c, 0, 55, 0
1, 817141, Note_on_c, 0, 79, 0
1, 817165, Note_on_c, 0, 81, 72
1, 817190, Note_on_c, 0, 53, 81
1, 817198, Note_on_c, 0, 81, 0
1, 817229, Note_on_c, 0, 79, 65
1, 817231, Control_c, 0, 64, 54
1, 817241, Note_on_c, 0, 53, 0
1, 817263, Note_on_c, 0, 79, 0
1, 817281, Note_on_c, 0, 81, 81
1, 817288, Control_c, 0, 64, 50
1, 817299, Note_on_c, 0, 52, 76
1, 817307, Control_c, 0, 64, 42
1, 817314, Note_on_c, 0, 81, 0
1, 817326, Control_c, 0, 64, 29
1, 817341, Note_on_c, 0, 79, 75
1, 817343, Control_c, 0, 64, 19
1, 817376, Control_c, 0, 64, 12
1, 817395, Control_c, 0, 64, 0
1, 817413, Note_on_c, 0, 79, 0
1, 817414, Note_on_c, 0, 52, 0
1, 817418, Note_on_c, 0, 50, 68
1, 817425, Note_on_c, 0, 78, 76
1, 817488, Note_on_c, 0, 79, 83
1, 817496, Note_on_c, 0, 78, 0
1, 817512, Note_on_c, 0, 50, 0
1, 817544, Note_on_c, 0, 48, 81
1, 817557, Note_on_c, 0, 84, 97
1, 817578, Control_c, 0, 64, 41
1, 817586, Note_on_c, 0, 79, 0
1, 817594, Note_on_c, 0, 48, 0
1, 817597, Control_c, 0, 64, 59
1, 817673, Control_c, 0, 64, 61
1, 817689, Control_c, 0, 64, 63
1, 817708, Control_c, 0, 64, 64
1, 817723, Note_on_c, 0, 84, 0
1, 817799, Control_c, 0, 64, 65
1, 817838, Control_c, 0, 64, 56
1, 817855, Control_c, 0, 64, 19
1, 817873, Control_c, 0, 64, 0
1, 817914, Note_on_c, 0, 36, 91
1, 817966, Control_c, 0, 64, 28
1, 817984, Control_c, 0, 64, 68
1, 818003, Control_c, 0, 64, 83
1, 818013, Note_on_c, 0, 36, 0
1, 818021, Control_c, 0, 64, 93
1, 818076, Control_c, 0, 64, 98
1, 818113, Control_c, 0, 64, 104
1, 818148, Control_c, 0, 64, 110
1, 818201, Note_on_c, 0, 60, 81
1, 818204, Control_c, 0, 64, 88
1, 818222, Control_c, 0, 64, 36
1, 818241, Control_c, 0, 64, 0
1, 818268, Note_on_c, 0, 60, 0
1, 818270, Note_on_c, 0, 64, 79
1, 818366, Note_on_c, 0, 60, 81
1, 818384, Note_on_c, 0, 64, 0
1, 818441, Note_on_c, 0, 36, 70
1, 818445, Note_on_c, 0, 48, 74
1, 818448, Note_on_c, 0, 55, 80
1, 818474, Note_on_c, 0, 60, 0
1, 818484, Note_on_c, 0, 48, 0
1, 818490, Note_on_c, 0, 36, 0
1, 818512, Note_on_c, 0, 55, 0
1, 818528, Note_on_c, 0, 52, 73
1, 818599, Note_on_c, 0, 52, 0
1, 818606, Note_on_c, 0, 55, 84
1, 818685, Note_on_c, 0, 60, 87
1, 818690, Note_on_c, 0, 55, 0
1, 818745, Note_on_c, 0, 65, 90
1, 818759, Note_on_c, 0, 60, 0
1, 818822, Note_on_c, 0, 60, 79
1, 818914, Note_on_c, 0, 36, 79
1, 818920, Note_on_c, 0, 57, 66
1, 818923, Note_on_c, 0, 48, 76
1, 818931, Note_on_c, 0, 60, 0
1, 818937, Note_on_c, 0, 59, 61
1, 818961, Note_on_c, 0, 65, 0
1, 818965, Note_on_c, 0, 59, 0
1, 818975, Note_on_c, 0, 57, 0
1, 818995, Note_on_c, 0, 53, 74
1, 819015, Note_on_c, 0, 48, 0
1, 819040, Note_on_c, 0, 36, 0
1, 819083, Note_on_c, 0, 57, 67
1, 819084, Note_on_c, 0, 53, 0
1, 819159, Note_on_c, 0, 60, 80
1, 819168, Note_on_c, 0, 57, 0
1, 819244, Note_on_c, 0, 64, 77
1, 819253, Note_on_c, 0, 60, 0
1, 819325, Note_on_c, 0, 60, 73
1, 819354, Note_on_c, 0, 64, 0
1, 819390, Note_on_c, 0, 48, 60
1, 819391, Note_on_c, 0, 36, 61
1, 819401, Note_on_c, 0, 55, 67
1, 819433, Note_on_c, 0, 60, 0
1, 819447, Note_on_c, 0, 48, 0
1, 819461, Note_on_c, 0, 36, 0
1, 819466, Note_on_c, 0, 55, 0
1, 819485, Note_on_c, 0, 52, 65
1, 819561, Note_on_c, 0, 52, 0
1, 819567, Note_on_c, 0, 55, 62
1, 819636, Note_on_c, 0, 60, 73
1, 819645, Note_on_c, 0, 55, 0
1, 819705, Note_on_c, 0, 62, 78
1, 819712, Note_on_c, 0, 60, 0
1, 819787, Note_on_c, 0, 60, 66
1, 819802, Note_on_c, 0, 62, 0
1, 819863, Note_on_c, 0, 53, 71
1, 819864, Note_on_c, 0, 60, 0
1, 819869, Note_on_c, 0, 48, 63
1, 819870, Note_on_c, 0, 36, 59
1, 819913, Note_on_c, 0, 53, 0
1, 819915, Note_on_c, 0, 48, 0
1, 819916, Note_on_c, 0, 36, 0
1, 819943, Note_on_c, 0, 50, 63
1, 819988, Note_on_c, 0, 50, 0
1, 820015, Note_on_c, 0, 53, 68
1, 820070, Note_on_c, 0, 53, 0
1, 820089, Note_on_c, 0, 60, 75
1, 820180, Note_on_c, 0, 63, 78
1, 820182, Note_on_c, 0, 60, 0
1, 820237, Note_on_c, 0, 60, 68
1, 820265, Note_on_c, 0, 63, 0
1, 820324, Note_on_c, 0, 54, 72
1, 820339, Note_on_c, 0, 60, 0
1, 820339, Note_on_c, 0, 36, 68
1, 820344, Note_on_c, 0, 48, 66
1, 820375, Note_on_c, 0, 54, 0
1, 820386, Note_on_c, 0, 48, 0
1, 820391, Note_on_c, 0, 36, 0
1, 820393, Note_on_c, 0, 51, 69
1, 820459, Note_on_c, 0, 51, 0
1, 820489, Note_on_c, 0, 54, 74
1, 820557, Note_on_c, 0, 60, 81
1, 820558, Note_on_c, 0, 54, 0
1, 820621, Note_on_c, 0, 64, 89
1, 820649, Note_on_c, 0, 60, 0
1, 820701, Note_on_c, 0, 60, 74
1, 820738, Note_on_c, 0, 64, 0
1, 820781, Note_on_c, 0, 55, 67
1, 820809, Note_on_c, 0, 36, 67
1, 820815, Note_on_c, 0, 48, 65
1, 820821, Note_on_c, 0, 60, 0
1, 820845, Note_on_c, 0, 55, 0
1, 820869, Note_on_c, 0, 48, 0
1, 820874, Note_on_c, 0, 52, 64
1, 820876, Note_on_c, 0, 36, 0
1, 820942, Note_on_c, 0, 52, 0
1, 820960, Note_on_c, 0, 55, 68
1, 821020, Note_on_c, 0, 55, 0
1, 821044, Note_on_c, 0, 59, 68
1, 821090, Note_on_c, 0, 59, 0
1, 821091, Note_on_c, 0, 62, 74
1, 821187, Note_on_c, 0, 59, 73
1, 821201, Note_on_c, 0, 62, 0
1, 821269, Note_on_c, 0, 53, 68
1, 821298, Note_on_c, 0, 48, 60
1, 821299, Note_on_c, 0, 59, 0
1, 821302, Note_on_c, 0, 36, 56
1, 821325, Note_on_c, 0, 53, 0
1, 821338, Note_on_c, 0, 48, 0
1, 821344, Note_on_c, 0, 36, 0
1, 821355, Note_on_c, 0, 50, 63
1, 821442, Note_on_c, 0, 50, 0
1, 821444, Note_on_c, 0, 53, 59
1, 821513, Note_on_c, 0, 55, 67
1, 821517, Note_on_c, 0, 53, 0
1, 821566, Note_on_c, 0, 55, 0
1, 821590, Note_on_c, 0, 60, 73
1, 821668, Note_on_c, 0, 55, 56
1, 821686, Note_on_c, 0, 60, 0
1, 821727, Note_on_c, 0, 52, 68
1, 821731, Note_on_c, 0, 55, 0
1, 821737, Note_on_c, 0, 36, 63
1, 821772, Note_on_c, 0, 52, 0
1, 821812, Note_on_c, 0, 48, 57
1, 821855, Note_on_c, 0, 48, 0
1, 821871, Note_on_c, 0, 52, 67
1, 821899, Note_on_c, 0, 52, 0
1, 821909, Note_on_c, 0, 36, 0
1, 821991, Note_on_c, 0, 64, 80
1, 822070, Note_on_c, 0, 64, 0
1, 822083, Note_on_c, 0, 67, 70
1, 822157, Note_on_c, 0, 64, 76
1, 822177, Note_on_c, 0, 67, 0
1, 822211, Note_on_c, 0, 52, 59
1, 822216, Note_on_c, 0, 48, 60
1, 822229, Note_on_c, 0, 40, 55
1, 822231, Note_on_c, 0, 60, 68
1, 822247, Note_on_c, 0, 64, 0
1, 822281, Note_on_c, 0, 60, 0
1, 822291, Note_on_c, 0, 55, 72
1, 822322, Note_on_c, 0, 52, 0
1, 822330, Note_on_c, 0, 40, 0
1, 822369, Note_on_c, 0, 48, 0
1, 822372, Note_on_c, 0, 55, 0
1, 822379, Note_on_c, 0, 60, 83
1, 822448, Note_on_c, 0, 65, 84
1, 822473, Note_on_c, 0, 60, 0
1, 822519, Note_on_c, 0, 69, 93
1, 822548, Note_on_c, 0, 65, 0
1, 822593, Note_on_c, 0, 65, 80
1, 822663, Note_on_c, 0, 69, 0
1, 822674, Note_on_c, 0, 60, 75
1, 822700, Note_on_c, 0, 53, 75
1, 822710, Note_on_c, 0, 48, 68
1, 822713, Note_on_c, 0, 41, 66
1, 822738, Note_on_c, 0, 65, 0
1, 822758, Note_on_c, 0, 57, 78
1, 822759, Note_on_c, 0, 60, 0
1, 822764, Note_on_c, 0, 53, 0
1, 822779, Note_on_c, 0, 41, 0
1, 822810, Note_on_c, 0, 48, 0
1, 822849, Note_on_c, 0, 60, 71
1, 822853, Note_on_c, 0, 57, 0
1, 822928, Note_on_c, 0, 64, 81
1, 822939, Note_on_c, 0, 60, 0
1, 823012, Note_on_c, 0, 67, 80
1, 823020, Note_on_c, 0, 64, 0
1, 823097, Note_on_c, 0, 64, 74
1, 823129, Note_on_c, 0, 67, 0
1, 823175, Note_on_c, 0, 60, 75
1, 823198, Note_on_c, 0, 52, 65
1, 823200, Note_on_c, 0, 40, 60
1, 823202, Note_on_c, 0, 48, 63
1, 823211, Note_on_c, 0, 64, 0
1, 823244, Note_on_c, 0, 60, 0
1, 823248, Note_on_c, 0, 52, 0
1, 823261, Note_on_c, 0, 55, 67
1, 823273, Note_on_c, 0, 40, 0
1, 823296, Note_on_c, 0, 48, 0
1, 823351, Note_on_c, 0, 60, 72
1, 823357, Note_on_c, 0, 55, 0
1, 823433, Note_on_c, 0, 62, 70
1, 823440, Note_on_c, 0, 60, 0
1, 823481, Note_on_c, 0, 62, 0
1, 823493, Note_on_c, 0, 65, 73
1, 823585, Note_on_c, 0, 62, 70
1, 823612, Note_on_c, 0, 65, 0
1, 823663, Note_on_c, 0, 50, 67
1, 823665, Note_on_c, 0, 38, 63
1, 823669, Note_on_c, 0, 60, 66
1, 823674, Note_on_c, 0, 62, 0
1, 823675, Note_on_c, 0, 48, 63
1, 823714, Note_on_c, 0, 60, 0
1, 823723, Note_on_c, 0, 50, 0
1, 823747, Note_on_c, 0, 38, 0
1, 823752, Note_on_c, 0, 53, 58
1, 823764, Note_on_c, 0, 48, 0
1, 823819, Note_on_c, 0, 53, 0
1, 823825, Note_on_c, 0, 60, 71
1, 823922, Note_on_c, 0, 63, 78
1, 823949, Note_on_c, 0, 60, 0
1, 823993, Note_on_c, 0, 63, 0
1, 823993, Note_on_c, 0, 66, 81
1, 824073, Note_on_c, 0, 63, 65
1, 824119, Note_on_c, 0, 66, 0
1, 824142, Note_on_c, 0, 60, 68
1, 824160, Note_on_c, 0, 63, 0
1, 824161, Note_on_c, 0, 51, 69
1, 824163, Note_on_c, 0, 39, 65
1, 824166, Note_on_c, 0, 48, 66
1, 824216, Note_on_c, 0, 60, 0
1, 824227, Note_on_c, 0, 54, 65
1, 824242, Note_on_c, 0, 51, 0
1, 824256, Note_on_c, 0, 39, 0
1, 824268, Note_on_c, 0, 48, 0
1, 824290, Note_on_c, 0, 54, 0
1, 824308, Note_on_c, 0, 60, 68
1, 824395, Note_on_c, 0, 64, 73
1, 824403, Note_on_c, 0, 60, 0
1, 824447, Note_on_c, 0, 67, 76
1, 824458, Note_on_c, 0, 64, 0
1, 824527, Note_on_c, 0, 64, 72
1, 824558, Note_on_c, 0, 67, 0
1, 824631, Note_on_c, 0, 60, 67
1, 824643, Note_on_c, 0, 52, 67
1, 824646, Note_on_c, 0, 40, 68
1, 824647, Note_on_c, 0, 48, 63
1, 824657, Note_on_c, 0, 64, 0
1, 824678, Note_on_c, 0, 60, 0
1, 824687, Note_on_c, 0, 52, 0
1, 824704, Note_on_c, 0, 55, 61
1, 824715, Note_on_c, 0, 40, 0
1, 824732, Note_on_c, 0, 48, 0
1, 824787, Note_on_c, 0, 60, 71
1, 824800, Note_on_c, 0, 55, 0
1, 824882, Note_on_c, 0, 62, 74
1, 824897, Note_on_c, 0, 60, 0
1, 824939, Note_on_c, 0, 62, 0
1, 824948, Note_on_c, 0, 65, 76
1, 825018, Note_on_c, 0, 62, 73
1, 825041, Note_on_c, 0, 65, 0
1, 825110, Note_on_c, 0, 59, 72
1, 825110, Note_on_c, 0, 50, 72
1, 825115, Note_on_c, 0, 38, 69
1, 825125, Note_on_c, 0, 48, 68
1, 825131, Note_on_c, 0, 62, 0
1, 825155, Note_on_c, 0, 50, 0
1, 825173, Note_on_c, 0, 59, 0
1, 825175, Note_on_c, 0, 48, 0
1, 825175, Note_on_c, 0, 38, 0
1, 825201, Note_on_c, 0, 53, 64
1, 825263, Note_on_c, 0, 59, 68
1, 825275, Note_on_c, 0, 53, 0
1, 825345, Note_on_c, 0, 59, 0
1, 825347, Note_on_c, 0, 60, 71
1, 825389, Note_on_c, 0, 60, 0
1, 825400, Note_on_c, 0, 64, 76
1, 825491, Note_on_c, 0, 60, 65
1, 825521, Note_on_c, 0, 64, 0
1, 825550, Note_on_c, 0, 60, 0
1, 825578, Note_on_c, 0, 48, 66
1, 825579, Note_on_c, 0, 36, 69
1, 825589, Note_on_c, 0, 52, 67
1, 825619, Note_on_c, 0, 36, 0
1, 825620, Note_on_c, 0, 48, 0
1, 825630, Note_on_c, 0, 52, 0
1, 825665, Note_on_c, 0, 64, 64
1, 825723, Note_on_c, 0, 64, 0
1, 825736, Note_on_c, 0, 52, 58
1, 825799, Note_on_c, 0, 52, 0
1, 825841, Note_on_c, 0, 40, 74
1, 825870, Note_on_c, 0, 40, 0
1, 825925, Note_on_c, 0, 52, 61
1, 825988, Note_on_c, 0, 52, 0
1, 826003, Note_on_c, 0, 64, 61
1, 826074, Note_on_c, 0, 40, 68
1, 826088, Note_on_c, 0, 64, 0
1, 826103, Note_on_c, 0, 40, 0
1, 826149, Note_on_c, 0, 52, 60
1, 826202, Note_on_c, 0, 52, 0
1, 826230, Note_on_c, 0, 64, 59
1, 826277, Note_on_c, 0, 64, 0
1, 826321, Note_on_c, 0, 45, 74
1, 826326, Note_on_c, 0, 33, 67
1, 826351, Note_on_c, 0, 45, 0
1, 826360, Note_on_c, 0, 33, 0
1, 826406, Note_on_c, 0, 57, 56
1, 826446, Note_on_c, 0, 57, 0
1, 826477, Note_on_c, 0, 69, 58
1, 826518, Note_on_c, 0, 69, 0
1, 826566, Note_on_c, 0, 47, 78
1, 826571, Note_on_c, 0, 35, 73
1, 826599, Note_on_c, 0, 47, 0
1, 826604, Note_on_c, 0, 35, 0
1, 826634, Note_on_c, 0, 59, 66
1, 826705, Note_on_c, 0, 59, 0
1, 826730, Note_on_c, 0, 71, 70
1, 826768, Note_on_c, 0, 71, 0
1, 826819, Note_on_c, 0, 48, 82
1, 826821, Note_on_c, 0, 36, 79
1, 826851, Note_on_c, 0, 48, 0
1, 826851, Note_on_c, 0, 36, 0
1, 826904, Note_on_c, 0, 60, 81
1, 826970, Note_on_c, 0, 60, 0
1, 826974, Note_on_c, 0, 72, 76
1, 827023, Note_on_c, 0, 72, 0
1, 827052, Note_on_c, 0, 50, 84
1, 827058, Note_on_c, 0, 38, 78
1, 827082, Note_on_c, 0, 50, 0
1, 827096, Note_on_c, 0, 38, 0
1, 827111, Note_on_c, 0, 62, 82
1, 827177, Note_on_c, 0, 74, 85
1, 827190, Note_on_c, 0, 62, 0
1, 827224, Note_on_c, 0, 74, 0
1, 827328, Note_on_c, 0, 52, 102
1, 827330, Note_on_c, 0, 76, 103
1, 827336, Note_on_c, 0, 40, 91
1, 827369, Note_on_c, 0, 42, 43
1, 827397, Control_c, 0, 64, 91
1, 827410, Note_on_c, 0, 42, 0
1, 827415, Control_c, 0, 64, 127
1, 827416, Note_on_c, 0, 76, 0
1, 827419, Note_on_c, 0, 64, 86
1, 827453, Note_on_c, 0, 52, 0
1, 827455, Note_on_c, 0, 40, 0
1, 827487, Note_on_c, 0, 64, 0
1, 827504, Note_on_c, 0, 76, 87
1, 827567, Note_on_c, 0, 76, 0
1, 827576, Note_on_c, 0, 64, 84
1, 827637, Note_on_c, 0, 64, 0
1, 827665, Note_on_c, 0, 76, 92
1, 827731, Note_on_c, 0, 76, 0
1, 827746, Note_on_c, 0, 64, 85
1, 827797, Note_on_c, 0, 64, 0
1, 827816, Note_on_c, 0, 52, 87
1, 827821, Note_on_c, 0, 40, 81
1, 827835, Control_c, 0, 64, 93
1, 827850, Note_on_c, 0, 52, 0
1, 827853, Control_c, 0, 64, 0
1, 827856, Note_on_c, 0, 40, 0
1, 827922, Note_on_c, 0, 64, 70
1, 827977, Note_on_c, 0, 64, 0
1, 827989, Note_on_c, 0, 76, 70
1, 828030, Note_on_c, 0, 76, 0
1, 828061, Note_on_c, 0, 50, 73
1, 828064, Note_on_c, 0, 38, 71
1, 828095, Note_on_c, 0, 50, 0
1, 828097, Note_on_c, 0, 38, 0
1, 828162, Note_on_c, 0, 62, 61
1, 828223, Note_on_c, 0, 74, 73
1, 828225, Note_on_c, 0, 62, 0
1, 828274, Note_on_c, 0, 74, 0
1, 828299, Note_on_c, 0, 48, 74
1, 828304, Note_on_c, 0, 36, 69
1, 828333, Note_on_c, 0, 48, 0
1, 828337, Note_on_c, 0, 36, 0
1, 828397, Note_on_c, 0, 60, 67
1, 828459, Note_on_c, 0, 72, 59
1, 828466, Note_on_c, 0, 60, 0
1, 828499, Note_on_c, 0, 72, 0
1, 828535, Note_on_c, 0, 47, 79
1, 828540, Note_on_c, 0, 35, 70
1, 828577, Note_on_c, 0, 35, 0
1, 828578, Note_on_c, 0, 47, 0
1, 828646, Note_on_c, 0, 59, 59
1, 828694, Note_on_c, 0, 59, 0
1, 828707, Note_on_c, 0, 71, 60
1, 828753, Note_on_c, 0, 71, 0
1, 828799, Note_on_c, 0, 48, 71
1, 828799, Note_on_c, 0, 36, 71
1, 828833, Note_on_c, 0, 36, 0
1, 828837, Note_on_c, 0, 48, 0
1, 828865, Note_on_c, 0, 60, 67
1, 828929, Note_on_c, 0, 60, 0
1, 828937, Note_on_c, 0, 72, 72
1, 828976, Note_on_c, 0, 72, 0
1, 829026, Note_on_c, 0, 33, 68
1, 829029, Note_on_c, 0, 45, 70
1, 829064, Note_on_c, 0, 33, 0
1, 829068, Note_on_c, 0, 45, 0
1, 829092, Note_on_c, 0, 57, 67
1, 829136, Note_on_c, 0, 57, 0
1, 829154, Note_on_c, 0, 69, 76
1, 829185, Note_on_c, 0, 69, 0
1, 829295, Note_on_c, 0, 40, 99
1, 829300, Note_on_c, 0, 64, 92
1, 829362, Control_c, 0, 64, 43
1, 829378, Control_c, 0, 64, 112
1, 829382, Note_on_c, 0, 52, 76
1, 829386, Note_on_c, 0, 64, 0
1, 829396, Control_c, 0, 64, 127
1, 829432, Note_on_c, 0, 40, 0
1, 829444, Note_on_c, 0, 52, 0
1, 829472, Note_on_c, 0, 64, 80
1, 829521, Note_on_c, 0, 64, 0
1, 829551, Note_on_c, 0, 52, 79
1, 829600, Poly_aftertouch_c, 0, 61, 0
1, 829609, Note_on_c, 0, 52, 0
1, 829633, Note_on_c, 0, 64, 87
1, 829695, Poly_aftertouch_c, 0, 53, 0
1, 829702, Note_on_c, 0, 52, 76
1, 829715, Note_on_c, 0, 64, 0
1, 829734, Note_on_c, 0, 52, 0
1, 829802, Note_on_c, 0, 52, 81
1, 829804, Note_on_c, 0, 40, 77
1, 829834, Note_on_c, 0, 52, 0
1, 829835, Control_c, 0, 64, 82
1, 829842, Note_on_c, 0, 40, 0
1, 829853, Control_c, 0, 64, 0
1, 829893, Note_on_c, 0, 64, 70
1, 829943, Note_on_c, 0, 64, 0
1, 829954, Note_on_c, 0, 76, 65
1, 830036, Note_on_c, 0, 52, 79
1, 830038, Note_on_c, 0, 40, 66
1, 830054, Note_on_c, 0, 76, 0
1, 830072, Note_on_c, 0, 40, 0
1, 830072, Note_on_c, 0, 52, 0
1, 830124, Note_on_c, 0, 64, 68
1, 830187, Note_on_c, 0, 64, 0
1, 830199, Note_on_c, 0, 76, 66
1, 830237, Note_on_c, 0, 76, 0
1, 830287, Note_on_c, 0, 57, 81
1, 830294, Note_on_c, 0, 45, 73
1, 830330, Note_on_c, 0, 57, 0
1, 830339, Note_on_c, 0, 45, 0
1, 830385, Note_on_c, 0, 69, 69
1, 830445, Note_on_c, 0, 81, 75
1, 830448, Note_on_c, 0, 69, 0
1, 830503, Note_on_c, 0, 81, 0
1, 830545, Note_on_c, 0, 59, 81
1, 830548, Note_on_c, 0, 47, 71
1, 830580, Note_on_c, 0, 59, 0
1, 830582, Note_on_c, 0, 47, 0
1, 830629, Note_on_c, 0, 71, 75
1, 830683, Note_on_c, 0, 71, 0
1, 830693, Note_on_c, 0, 83, 79
1, 830743, Note_on_c, 0, 83, 0
1, 830778, Note_on_c, 0, 60, 84
1, 830781, Note_on_c, 0, 48, 73
1, 830810, Note_on_c, 0, 60, 0
1, 830821, Note_on_c, 0, 48, 0
1, 830854, Note_on_c, 0, 72, 81
1, 830909, Note_on_c, 0, 72, 0
1, 830922, Note_on_c, 0, 84, 81
1, 830982, Note_on_c, 0, 84, 0
1, 831007, Note_on_c, 0, 62, 82
1, 831026, Note_on_c, 0, 50, 53
1, 831035, Note_on_c, 0, 62, 0
1, 831061, Note_on_c, 0, 50, 0
1, 831079, Note_on_c, 0, 74, 75
1, 831130, Note_on_c, 0, 74, 0
1, 831139, Note_on_c, 0, 86, 83
1, 831177, Note_on_c, 0, 86, 0
1, 831264, Note_on_c, 0, 64, 105
1, 831268, Note_on_c, 0, 88, 105
1, 831272, Note_on_c, 0, 52, 92
1, 831305, Control_c, 0, 64, 30
1, 831308, Note_on_c, 0, 54, 40
1, 831323, Control_c, 0, 64, 126
1, 831352, Note_on_c, 0, 54, 0
1, 831359, Note_on_c, 0, 86, 17
1, 831360, Note_on_c, 0, 86, 0
1, 831362, Note_on_c, 0, 52, 0
1, 831364, Note_on_c, 0, 76, 83
1, 831368, Note_on_c, 0, 88, 0
1, 831377, Note_on_c, 0, 64, 0
1, 831415, Note_on_c, 0, 77, 53
1, 831436, Note_on_c, 0, 76, 0
1, 831442, Note_on_c, 0, 77, 0
1, 831460, Note_on_c, 0, 88, 88
1, 831513, Note_on_c, 0, 88, 0
1, 831528, Note_on_c, 0, 76, 84
1, 831583, Note_on_c, 0, 76, 0
1, 831599, Note_on_c, 0, 88, 97
1, 831665, Note_on_c, 0, 88, 0
1, 831683, Note_on_c, 0, 76, 90
1, 831742, Note_on_c, 0, 76, 0
1, 831759, Note_on_c, 0, 64, 97
1, 831761, Note_on_c, 0, 52, 88
1, 831798, Control_c, 0, 64, 75
1, 831800, Note_on_c, 0, 64, 0
1, 831804, Note_on_c, 0, 52, 0
1, 831816, Poly_aftertouch_c, 0, 80, 0
1, 831817, Control_c, 0, 64, 0
1, 831862, Note_on_c, 0, 76, 81
1, 831930, Poly_aftertouch_c, 0, 80, 0
1, 831942, Note_on_c, 0, 88, 76
1, 831947, Note_on_c, 0, 76, 0
1, 831981, Note_on_c, 0, 88, 0
1, 832002, Note_on_c, 0, 62, 80
1, 832002, Note_on_c, 0, 50, 77
1, 832031, Note_on_c, 0, 62, 0
1, 832039, Note_on_c, 0, 50, 0
1, 832097, Note_on_c, 0, 74, 71
1, 832166, Note_on_c, 0, 74, 0
1, 832170, Note_on_c, 0, 86, 73
1, 832194, Poly_aftertouch_c, 0, 76, 0
1, 832219, Note_on_c, 0, 86, 0
1, 832244, Note_on_c, 0, 60, 80
1, 832247, Note_on_c, 0, 48, 74
1, 832272, Note_on_c, 0, 60, 0
1, 832279, Note_on_c, 0, 48, 0
1, 832317, Note_on_c, 0, 72, 71
1, 832401, Note_on_c, 0, 84, 73
1, 832412, Note_on_c, 0, 72, 0
1, 832463, Note_on_c, 0, 84, 0
1, 832491, Note_on_c, 0, 47, 79
1, 832493, Note_on_c, 0, 59, 80
1, 832524, Note_on_c, 0, 59, 0
1, 832529, Note_on_c, 0, 47, 0
1, 832560, Note_on_c, 0, 71, 72
1, 832632, Note_on_c, 0, 83, 75
1, 832634, Note_on_c, 0, 71, 0
1, 832689, Note_on_c, 0, 83, 0
1, 832717, Note_on_c, 0, 60, 82
1, 832724, Note_on_c, 0, 48, 75
1, 832743, Note_on_c, 0, 60, 0
1, 832758, Note_on_c, 0, 48, 0
1, 832801, Note_on_c, 0, 72, 74
1, 832863, Note_on_c, 0, 72, 0
1, 832869, Note_on_c, 0, 84, 74
1, 832903, Note_on_c, 0, 84, 0
1, 832956, Note_on_c, 0, 57, 81
1, 832962, Note_on_c, 0, 45, 78
1, 832983, Note_on_c, 0, 57, 0
1, 833002, Note_on_c, 0, 45, 0
1, 833037, Note_on_c, 0, 69, 67
1, 833092, Note_on_c, 0, 69, 0
1, 833095, Note_on_c, 0, 81, 76
1, 833122, Note_on_c, 0, 81, 0
1, 833240, Note_on_c, 0, 52, 103
1, 833247, Note_on_c, 0, 40, 94
1, 833260, Note_on_c, 0, 76, 89
1, 833302, Control_c, 0, 64, 49
1, 833321, Control_c, 0, 64, 125
1, 833357, Note_on_c, 0, 76, 0
1, 833368, Note_on_c, 0, 64, 62
1, 833377, Note_on_c, 0, 52, 0
1, 833389, Note_on_c, 0, 40, 0
1, 833431, Note_on_c, 0, 64, 0
1, 833442, Note_on_c, 0, 76, 70
1, 833480, Note_on_c, 0, 73, 33
1, 833490, Note_on_c, 0, 76, 0
1, 833518, Note_on_c, 0, 64, 79
1, 833523, Note_on_c, 0, 73, 0
1, 833579, Note_on_c, 0, 64, 0
1, 833604, Note_on_c, 0, 76, 78
1, 833663, Note_on_c, 0, 76, 0
1, 833688, Note_on_c, 0, 73, 21
1, 833693, Note_on_c, 0, 64, 80
1, 833701, Note_on_c, 0, 73, 0
1, 833752, Note_on_c, 0, 64, 0
1, 833796, Note_on_c, 0, 53, 110
1, 833799, Note_on_c, 0, 81, 108
1, 833800, Note_on_c, 0, 45, 86
1, 833801, Note_on_c, 0, 41, 91
1, 833833, Note_on_c, 0, 53, 0
1, 833834, Control_c, 0, 64, 102
1, 833848, Note_on_c, 0, 45, 0
1, 833853, Note_on_c, 0, 41, 0
1, 833853, Control_c, 0, 64, 0
1, 833896, Note_on_c, 0, 81, 0
1, 833909, Note_on_c, 0, 69, 79
1, 833989, Note_on_c, 0, 69, 0
1, 834023, Note_on_c, 0, 81, 92
1, 834087, Note_on_c, 0, 53, 91
1, 834089, Note_on_c, 0, 81, 0
1, 834090, Note_on_c, 0, 45, 79
1, 834093, Note_on_c, 0, 41, 85
1, 834111, Note_on_c, 0, 69, 84
1, 834114, Note_on_c, 0, 53, 0
1, 834128, Note_on_c, 0, 45, 0
1, 834130, Note_on_c, 0, 41, 0
1, 834163, Note_on_c, 0, 69, 0
1, 834193, Note_on_c, 0, 81, 88
1, 834262, Note_on_c, 0, 81, 0
1, 834284, Note_on_c, 0, 69, 82
1, 834343, Note_on_c, 0, 52, 98
1, 834346, Note_on_c, 0, 45, 90
1, 834347, Note_on_c, 0, 40, 90
1, 834349, Note_on_c, 0, 69, 0
1, 834359, Note_on_c, 0, 81, 102
1, 834382, Note_on_c, 0, 52, 0
1, 834383, Control_c, 0, 64, 109
1, 834384, Note_on_c, 0, 45, 0
1, 834403, Control_c, 0, 64, 127
1, 834405, Note_on_c, 0, 40, 0
1, 834426, Note_on_c, 0, 81, 0
1, 834452, Note_on_c, 0, 69, 86
1, 834457, Control_c, 0, 64, 90
1, 834477, Control_c, 0, 64, 0
1, 834499, Note_on_c, 0, 69, 0
1, 834534, Note_on_c, 0, 81, 83
1, 834582, Note_on_c, 0, 45, 74
1, 834585, Note_on_c, 0, 52, 78
1, 834592, Note_on_c, 0, 40, 74
1, 834594, Note_on_c, 0, 81, 0
1, 834613, Note_on_c, 0, 69, 79
1, 834622, Note_on_c, 0, 52, 0
1, 834628, Note_on_c, 0, 45, 0
1, 834642, Note_on_c, 0, 40, 0
1, 834664, Note_on_c, 0, 69, 0
1, 834700, Note_on_c, 0, 81, 85
1, 834747, Note_on_c, 0, 81, 0
1, 834773, Note_on_c, 0, 69, 88
1, 834823, Note_on_c, 0, 50, 99
1, 834825, Note_on_c, 0, 45, 91
1, 834826, Note_on_c, 0, 69, 0
1, 834826, Note_on_c, 0, 38, 92
1, 834845, Note_on_c, 0, 81, 102
1, 834862, Control_c, 0, 64, 82
1, 834871, Note_on_c, 0, 45, 0
1, 834871, Note_on_c, 0, 50, 0
1, 834881, Control_c, 0, 64, 127
1, 834887, Note_on_c, 0, 38, 0
1, 834922, Note_on_c, 0, 81, 0
1, 834937, Control_c, 0, 64, 117
1, 834937, Note_on_c, 0, 69, 87
1, 834957, Control_c, 0, 64, 68
1, 834976, Control_c, 0, 64, 0
1, 834997, Note_on_c, 0, 69, 0
1, 835030, Note_on_c, 0, 81, 80
1, 835072, Note_on_c, 0, 45, 69
1, 835076, Note_on_c, 0, 50, 81
1, 835082, Note_on_c, 0, 81, 0
1, 835086, Note_on_c, 0, 38, 74
1, 835099, Note_on_c, 0, 69, 77
1, 835110, Note_on_c, 0, 50, 0
1, 835123, Note_on_c, 0, 45, 0
1, 835153, Note_on_c, 0, 38, 0
1, 835166, Note_on_c, 0, 69, 0
1, 835192, Note_on_c, 0, 81, 76
1, 835249, Note_on_c, 0, 81, 0
1, 835275, Note_on_c, 0, 78, 29
1, 835276, Note_on_c, 0, 78, 0
1, 835279, Note_on_c, 0, 69, 75
1, 835328, Note_on_c, 0, 69, 0
1, 835342, Note_on_c, 0, 48, 84
1, 835345, Note_on_c, 0, 45, 81
1, 835345, Note_on_c, 0, 36, 82
1, 835347, Note_on_c, 0, 81, 90
1, 835377, Note_on_c, 0, 48, 0
1, 835380, Note_on_c, 0, 45, 0
1, 835389, Note_on_c, 0, 36, 0
1, 835409, Note_on_c, 0, 81, 0
1, 835455, Note_on_c, 0, 69, 70
1, 835492, Note_on_c, 0, 69, 0
1, 835525, Note_on_c, 0, 81, 69
1, 835556, Note_on_c, 0, 81, 0
1, 835584, Note_on_c, 0, 69, 68
1, 835606, Note_on_c, 0, 48, 68
1, 835610, Note_on_c, 0, 36, 67
1, 835616, Note_on_c, 0, 45, 57
1, 835621, Note_on_c, 0, 69, 0
1, 835642, Note_on_c, 0, 48, 0
1, 835647, Note_on_c, 0, 81, 80
1, 835648, Note_on_c, 0, 36, 0
1, 835651, Note_on_c, 0, 45, 0
1, 835729, Note_on_c, 0, 69, 60
1, 835733, Note_on_c, 0, 81, 0
1, 835796, Note_on_c, 0, 69, 0
1, 835833, Note_on_c, 0, 45, 66
1, 835834, Note_on_c, 0, 77, 90
1, 835834, Note_on_c, 0, 50, 77
1, 835843, Note_on_c, 0, 38, 73
1, 835869, Note_on_c, 0, 50, 0
1, 835871, Note_on_c, 0, 45, 0
1, 835881, Note_on_c, 0, 38, 0
1, 835912, Note_on_c, 0, 79, 72
1, 835919, Note_on_c, 0, 77, 0
1, 835977, Note_on_c, 0, 81, 86
1, 835990, Note_on_c, 0, 79, 0
1, 836061, Note_on_c, 0, 38, 59
1, 836084, Note_on_c, 0, 77, 85
1, 836085, Note_on_c, 0, 45, 59
1, 836087, Note_on_c, 0, 50, 54
1, 836107, Note_on_c, 0, 81, 0
1, 836118, Note_on_c, 0, 50, 0
1, 836122, Note_on_c, 0, 38, 0
1, 836126, Note_on_c, 0, 45, 0
1, 836173, Note_on_c, 0, 77, 0
1, 836178, Note_on_c, 0, 76, 80
1, 836227, Note_on_c, 0, 76, 0
1, 836246, Note_on_c, 0, 74, 72
1, 836305, Note_on_c, 0, 74, 0
1, 836317, Note_on_c, 0, 52, 79
1, 836318, Note_on_c, 0, 72, 81
1, 836320, Note_on_c, 0, 45, 74
1, 836323, Note_on_c, 0, 40, 73
1, 836354, Note_on_c, 0, 52, 0
1, 836366, Note_on_c, 0, 45, 0
1, 836383, Note_on_c, 0, 40, 0
1, 836399, Note_on_c, 0, 74, 86
1, 836402, Note_on_c, 0, 72, 0
1, 836483, Note_on_c, 0, 74, 0
1, 836483, Note_on_c, 0, 76, 81
1, 836565, Note_on_c, 0, 72, 80
1, 836573, Note_on_c, 0, 52, 65
1, 836574, Note_on_c, 0, 40, 68
1, 836586, Note_on_c, 0, 76, 0
1, 836602, Note_on_c, 0, 52, 0
1, 836608, Note_on_c, 0, 40, 0
1, 836623, Note_on_c, 0, 72, 0
1, 836661, Note_on_c, 0, 71, 71
1, 836705, Note_on_c, 0, 71, 0
1, 836729, Note_on_c, 0, 69, 68
1, 836790, Note_on_c, 0, 40, 67
1, 836792, Note_on_c, 0, 52, 74
1, 836807, Note_on_c, 0, 71, 81
1, 836813, Note_on_c, 0, 69, 0
1, 836826, Note_on_c, 0, 52, 0
1, 836828, Note_on_c, 0, 40, 0
1, 836882, Note_on_c, 0, 71, 0
1, 836891, Note_on_c, 0, 72, 72
1, 836948, Note_on_c, 0, 72, 0
1, 836953, Note_on_c, 0, 74, 77
1, 837034, Note_on_c, 0, 52, 55
1, 837040, Note_on_c, 0, 40, 66
1, 837051, Note_on_c, 0, 71, 72
1, 837070, Note_on_c, 0, 52, 0
1, 837073, Note_on_c, 0, 40, 0
1, 837088, Note_on_c, 0, 74, 0
1, 837119, Note_on_c, 0, 69, 66
1, 837161, Note_on_c, 0, 71, 0
1, 837173, Note_on_c, 0, 69, 0
1, 837182, Note_on_c, 0, 68, 72
1, 837211, Note_on_c, 0, 68, 0
1, 837273, Note_on_c, 0, 33, 86
1, 837292, Note_on_c, 0, 69, 82
1, 837322, Control_c, 0, 67, 8
1, 837333, Note_on_c, 0, 69, 0
1, 837338, Note_on_c, 0, 33, 0
1, 837357, Note_on_c, 0, 57, 80
1, 837374, Note_on_c, 0, 45, 71
1, 837405, Note_on_c, 0, 57, 0
1, 837425, Note_on_c, 0, 45, 0
1, 837451, Note_on_c, 0, 69, 72
1, 837485, Note_on_c, 0, 69, 0
1, 837493, Note_on_c, 0, 44, 59
1, 837522, Note_on_c, 0, 57, 71
1, 837545, Note_on_c, 0, 44, 0
1, 837562, Note_on_c, 0, 57, 0
1, 837592, Note_on_c, 0, 69, 66
1, 837620, Note_on_c, 0, 45, 51
1, 837652, Note_on_c, 0, 69, 0
1, 837675, Note_on_c, 0, 57, 80
1, 837679, Note_on_c, 0, 45, 0
1, 837733, Note_on_c, 0, 57, 0
1, 837755, Note_on_c, 0, 41, 103
1, 837762, Note_on_c, 0, 69, 101
1, 837799, Control_c, 0, 64, 75
1, 837817, Control_c, 0, 64, 127
1, 837831, Note_on_c, 0, 41, 0
1, 837849, Note_on_c, 0, 57, 82
1, 837852, Note_on_c, 0, 69, 0
1, 837889, Control_c, 0, 64, 100
1, 837895, Note_on_c, 0, 45, 69
1, 837901, Note_on_c, 0, 57, 0
1, 837908, Control_c, 0, 64, 36
1, 837911, Control_c, 0, 67, 13
1, 837928, Control_c, 0, 64, 0
1, 837941, Note_on_c, 0, 69, 80
1, 837962, Control_c, 0, 67, 18
1, 837968, Note_on_c, 0, 45, 0
1, 838022, Note_on_c, 0, 69, 0
1, 838031, Note_on_c, 0, 44, 67
1, 838035, Note_on_c, 0, 57, 71
1, 838086, Note_on_c, 0, 57, 0
1, 838106, Note_on_c, 0, 44, 0
1, 838116, Note_on_c, 0, 69, 82
1, 838138, Note_on_c, 0, 45, 63
1, 838172, Note_on_c, 0, 69, 0
1, 838198, Note_on_c, 0, 57, 81
1, 838226, Note_on_c, 0, 45, 0
1, 838258, Control_c, 0, 67, 14
1, 838263, Note_on_c, 0, 57, 0
1, 838272, Note_on_c, 0, 40, 99
1, 838284, Note_on_c, 0, 69, 102
1, 838311, Control_c, 0, 64, 63
1, 838330, Control_c, 0, 64, 127
1, 838350, Note_on_c, 0, 69, 0
1, 838377, Note_on_c, 0, 40, 0
1, 838378, Note_on_c, 0, 57, 86
1, 838416, Note_on_c, 0, 45, 76
1, 838421, Control_c, 0, 64, 101
1, 838422, Control_c, 0, 67, 18
1, 838430, Note_on_c, 0, 57, 0
1, 838441, Control_c, 0, 64, 42
1, 838459, Control_c, 0, 64, 0
1, 838460, Control_c, 0, 67, 23
1, 838466, Note_on_c, 0, 69, 80
1, 838477, Control_c, 0, 67, 27
1, 838524, Note_on_c, 0, 45, 0
1, 838527, Note_on_c, 0, 44, 71
1, 838529, Note_on_c, 0, 69, 0
1, 838531, Note_on_c, 0, 57, 74
1, 838550, Poly_aftertouch_c, 0, 62, 0
1, 838588, Note_on_c, 0, 57, 0
1, 838625, Note_on_c, 0, 44, 0
1, 838629, Note_on_c, 0, 69, 74
1, 838661, Note_on_c, 0, 45, 65
1, 838669, Note_on_c, 0, 69, 0
1, 838698, Note_on_c, 0, 57, 78
1, 838747, Note_on_c, 0, 45, 0
1, 838752, Control_c, 0, 67, 23
1, 838757, Note_on_c, 0, 57, 0
1, 838781, Note_on_c, 0, 38, 92
1, 838785, Note_on_c, 0, 69, 97
1, 838825, Control_c, 0, 64, 54
1, 838845, Control_c, 0, 64, 127
1, 838856, Note_on_c, 0, 69, 0
1, 838898, Note_on_c, 0, 57, 80
1, 838900, Note_on_c, 0, 38, 0
1, 838945, Note_on_c, 0, 45, 76
1, 838949, Note_on_c, 0, 57, 0
1, 838972, Control_c, 0, 67, 27
1, 838980, Note_on_c, 0, 69, 77
1, 839007, Control_c, 0, 64, 87
1, 839024, Note_on_c, 0, 69, 0
1, 839025, Control_c, 0, 64, 0
1, 839027, Note_on_c, 0, 45, 0
1, 839036, Note_on_c, 0, 44, 70
1, 839045, Note_on_c, 0, 57, 66
1, 839138, Note_on_c, 0, 69, 69
1, 839139, Note_on_c, 0, 57, 0
1, 839155, Note_on_c, 0, 44, 0
1, 839163, Note_on_c, 0, 45, 69
1, 839174, Note_on_c, 0, 69, 0
1, 839192, Note_on_c, 0, 57, 45
1, 839249, Note_on_c, 0, 57, 0
1, 839272, Note_on_c, 0, 45, 0
1, 839274, Note_on_c, 0, 69, 75
1, 839286, Note_on_c, 0, 36, 81
1, 839345, Note_on_c, 0, 69, 0
1, 839356, Note_on_c, 0, 57, 59
1, 839356, Control_c, 0, 67, 31
1, 839390, Note_on_c, 0, 36, 0
1, 839418, Note_on_c, 0, 45, 63
1, 839420, Note_on_c, 0, 57, 0
1, 839460, Note_on_c, 0, 69, 61
1, 839498, Note_on_c, 0, 69, 0
1, 839502, Note_on_c, 0, 45, 0
1, 839506, Note_on_c, 0, 44, 68
1, 839511, Note_on_c, 0, 57, 59
1, 839570, Note_on_c, 0, 57, 0
1, 839593, Note_on_c, 0, 69, 69
1, 839612, Note_on_c, 0, 44, 0
1, 839637, Note_on_c, 0, 45, 49
1, 839684, Note_on_c, 0, 57, 58
1, 839730, Note_on_c, 0, 45, 0
1, 839736, Note_on_c, 0, 57, 0
1, 839743, Note_on_c, 0, 69, 0
1, 839748, Note_on_c, 0, 38, 80
1, 839777, Note_on_c, 0, 65, 81
1, 839871, Note_on_c, 0, 38, 0
1, 839875, Note_on_c, 0, 67, 77
1, 839882, Note_on_c, 0, 65, 0
1, 839884, Note_on_c, 0, 45, 68
1, 839940, Note_on_c, 0, 69, 81
1, 839966, Note_on_c, 0, 67, 0
1, 839999, Note_on_c, 0, 45, 0
1, 840021, Note_on_c, 0, 65, 85
1, 840022, Note_on_c, 0, 38, 68
1, 840049, Note_on_c, 0, 69, 0
1, 840092, Poly_aftertouch_c, 0, 67, 0
1, 840103, Note_on_c, 0, 64, 85
1, 840113, Note_on_c, 0, 65, 0
1, 840117, Note_on_c, 0, 38, 0
1, 840154, Note_on_c, 0, 45, 60
1, 840166, Note_on_c, 0, 64, 0
1, 840184, Note_on_c, 0, 62, 78
1, 840231, Note_on_c, 0, 45, 0
1, 840253, Note_on_c, 0, 62, 0
1, 840254, Note_on_c, 0, 40, 70
1, 840254, Note_on_c, 0, 60, 80
1, 840328, Note_on_c, 0, 62, 80
1, 840336, Note_on_c, 0, 60, 0
1, 840347, Note_on_c, 0, 40, 0
1, 840366, Note_on_c, 0, 45, 67
1, 840408, Note_on_c, 0, 64, 81
1, 840416, Note_on_c, 0, 45, 0
1, 840424, Note_on_c, 0, 62, 0
1, 840474, Note_on_c, 0, 40, 69
1, 840486, Note_on_c, 0, 60, 75
1, 840512, Note_on_c, 0, 64, 0
1, 840539, Note_on_c, 0, 40, 0
1, 840544, Note_on_c, 0, 60, 0
1, 840563, Note_on_c, 0, 52, 67
1, 840570, Note_on_c, 0, 59, 75
1, 840644, Note_on_c, 0, 59, 0
1, 840650, Note_on_c, 0, 57, 75
1, 840673, Note_on_c, 0, 52, 0
1, 840697, Note_on_c, 0, 40, 61
1, 840729, Note_on_c, 0, 59, 71
1, 840743, Note_on_c, 0, 57, 0
1, 840789, Note_on_c, 0, 40, 0
1, 840822, Note_on_c, 0, 60, 75
1, 840828, Note_on_c, 0, 52, 62
1, 840835, Note_on_c, 0, 59, 0
1, 840896, Note_on_c, 0, 62, 72
1, 840911, Note_on_c, 0, 60, 0
1, 840931, Note_on_c, 0, 52, 0
1, 840957, Note_on_c, 0, 40, 63
1, 840969, Note_on_c, 0, 59, 72
1, 841005, Note_on_c, 0, 62, 0
1, 841019, Note_on_c, 0, 59, 0
1, 841020, Note_on_c, 0, 40, 0
1, 841059, Note_on_c, 0, 57, 65
1, 841088, Note_on_c, 0, 52, 45
1, 841105, Note_on_c, 0, 57, 0
1, 841141, Note_on_c, 0, 56, 61
1, 841180, Note_on_c, 0, 52, 0
1, 841191, Control_c, 0, 67, 26
1, 841209, Control_c, 0, 67, 18
1, 841221, Note_on_c, 0, 45, 58
1, 841228, Control_c, 0, 67, 0
1, 841230, Note_on_c, 0, 57, 62
1, 841231, Note_on_c, 0, 56, 0
1, 841302, Control_c, 0, 64, 22
1, 841321, Control_c, 0, 64, 40
1, 841339, Control_c, 0, 64, 59
1, 841341, Note_on_c, 0, 52, 56
1, 841349, Note_on_c, 0, 45, 0
1, 841356, Control_c, 0, 64, 69
1, 841373, Note_on_c, 0, 57, 0
1, 841375, Control_c, 0, 64, 73
1, 841393, Control_c, 0, 64, 77
1, 841412, Control_c, 0, 64, 81
1, 841430, Control_c, 0, 64, 85
1, 841449, Control_c, 0, 64, 87
1, 841453, Note_on_c, 0, 52, 0
1, 841486, Note_on_c, 0, 48, 53
1, 841541, Control_c, 0, 64, 91
1, 841546, Note_on_c, 0, 48, 0
1, 841598, Control_c, 0, 64, 96
1, 841611, Note_on_c, 0, 52, 51
1, 841651, Control_c, 0, 64, 79
1, 841663, Note_on_c, 0, 52, 0
1, 841669, Control_c, 0, 64, 0
1, 841740, Note_on_c, 0, 45, 90
1, 841742, Note_on_c, 0, 47, 88
1, 841748, Note_on_c, 0, 88, 105
1, 841757, Note_on_c, 0, 76, 92
1, 841788, Note_on_c, 0, 76, 0
1, 841795, Control_c, 0, 64, 29
1, 841814, Control_c, 0, 64, 65
1, 841822, Note_on_c, 0, 88, 0
1, 841827, Note_on_c, 0, 47, 0
1, 841834, Control_c, 0, 64, 84
1, 841835, Note_on_c, 0, 45, 0
1, 841852, Control_c, 0, 64, 100
1, 841868, Control_c, 0, 64, 107
1, 841878, Note_on_c, 0, 52, 68
1, 841906, Control_c, 0, 64, 94
1, 841926, Control_c, 0, 64, 49
1, 841943, Control_c, 0, 64, 0
1, 841945, Note_on_c, 0, 52, 0
1, 841975, Note_on_c, 0, 45, 87
1, 841986, Note_on_c, 0, 88, 106
1, 841993, Note_on_c, 0, 76, 92
1, 841995, Note_on_c, 0, 50, 80
1, 841999, Control_c, 0, 64, 20
1, 842017, Note_on_c, 0, 88, 0
1, 842017, Control_c, 0, 64, 62
1, 842018, Note_on_c, 0, 77, 58
1, 842019, Note_on_c, 0, 77, 0
1, 842033, Note_on_c, 0, 76, 0
1, 842035, Control_c, 0, 64, 88
1, 842054, Control_c, 0, 64, 112
1, 842072, Control_c, 0, 64, 121
1, 842091, Note_on_c, 0, 45, 0
1, 842103, Note_on_c, 0, 52, 74
1, 842110, Note_on_c, 0, 50, 0
1, 842127, Control_c, 0, 64, 117
1, 842146, Control_c, 0, 64, 87
1, 842164, Control_c, 0, 64, 0
1, 842219, Note_on_c, 0, 45, 88
1, 842222, Note_on_c, 0, 48, 86
1, 842223, Note_on_c, 0, 76, 101
1, 842233, Note_on_c, 0, 64, 90
1, 842235, Note_on_c, 0, 52, 0
1, 842236, Control_c, 0, 64, 24
1, 842255, Control_c, 0, 64, 69
1, 842275, Control_c, 0, 64, 95
1, 842286, Note_on_c, 0, 64, 0
1, 842292, Control_c, 0, 64, 117
1, 842321, Note_on_c, 0, 76, 0
1, 842328, Control_c, 0, 64, 88
1, 842331, Note_on_c, 0, 48, 0
1, 842331, Note_on_c, 0, 45, 0
1, 842348, Control_c, 0, 64, 0
1, 842356, Note_on_c, 0, 52, 74
1, 842421, Control_c, 0, 64, 30
1, 842439, Control_c, 0, 64, 75
1, 842458, Control_c, 0, 64, 99
1, 842465, Note_on_c, 0, 45, 85
1, 842466, Note_on_c, 0, 48, 85
1, 842467, Note_on_c, 0, 76, 102
1, 842478, Control_c, 0, 64, 120
1, 842482, Note_on_c, 0, 52, 0
1, 842487, Note_on_c, 0, 64, 86
1, 842517, Note_on_c, 0, 64, 0
1, 842574, Note_on_c, 0, 76, 0
1, 842577, Note_on_c, 0, 48, 0
1, 842585, Note_on_c, 0, 45, 0
1, 842587, Control_c, 0, 64, 86
1, 842588, Note_on_c, 0, 52, 72
1, 842606, Control_c, 0, 64, 0
1, 842663, Note_on_c, 0, 52, 0
1, 842706, Note_on_c, 0, 47, 87
1, 842709, Note_on_c, 0, 45, 85
1, 842712, Control_c, 0, 64, 32
1, 842720, Note_on_c, 0, 76, 101
1, 842728, Note_on_c, 0, 64, 88
1, 842730, Control_c, 0, 64, 83
1, 842743, Note_on_c, 0, 74, 63
1, 842744, Note_on_c, 0, 74, 0
1, 842751, Control_c, 0, 64, 110
1, 842753, Note_on_c, 0, 64, 0
1, 842768, Control_c, 0, 64, 127
1, 842776, Note_on_c, 0, 76, 0
1, 842820, Note_on_c, 0, 47, 0
1, 842820, Note_on_c, 0, 45, 0
1, 842823, Control_c, 0, 64, 116
1, 842834, Note_on_c, 0, 52, 73
1, 842842, Control_c, 0, 64, 72
1, 842860, Control_c, 0, 64, 0
1, 842922, Note_on_c, 0, 52, 0
1, 842935, Control_c, 0, 64, 37
1, 842947, Note_on_c, 0, 45, 86
1, 842952, Control_c, 0, 64, 76
1, 842952, Note_on_c, 0, 50, 83
1, 842954, Note_on_c, 0, 80, 102
1, 842959, Note_on_c, 0, 68, 89
1, 842970, Control_c, 0, 64, 102
1, 842990, Control_c, 0, 64, 126
1, 843011, Note_on_c, 0, 80, 0
1, 843015, Note_on_c, 0, 68, 0
1, 843026, Note_on_c, 0, 50, 0
1, 843045, Note_on_c, 0, 45, 0
1, 843067, Note_on_c, 0, 52, 70
1, 843109, Note_on_c, 0, 52, 0
1, 843117, Control_c, 0, 64, 109
1, 843139, Control_c, 0, 64, 53
1, 843155, Control_c, 0, 64, 0
1, 843202, Note_on_c, 0, 81, 99
1, 843204, Note_on_c, 0, 45, 78
1, 843214, Note_on_c, 0, 48, 78
1, 843218, Note_on_c, 0, 69, 76
1, 843254, Note_on_c, 0, 69, 0
1, 843264, Control_c, 0, 64, 58
1, 843284, Control_c, 0, 64, 91
1, 843290, Note_on_c, 0, 45, 0
1, 843301, Control_c, 0, 64, 113
1, 843321, Control_c, 0, 64, 124
1, 843330, Note_on_c, 0, 48, 0
1, 843334, Note_on_c, 0, 81, 0
1, 843344, Note_on_c, 0, 57, 68
1, 843435, Note_on_c, 0, 52, 65
1, 843437, Note_on_c, 0, 57, 0
1, 843525, Note_on_c, 0, 52, 0
1, 843536, Note_on_c, 0, 57, 45
1, 843612, Control_c, 0, 64, 115
1, 843614, Control_c, 0, 67, 10
1, 843625, Note_on_c, 0, 57, 0
1, 843629, Control_c, 0, 64, 93
1, 843630, Control_c, 0, 67, 14
1, 843651, Control_c, 0, 64, 59
1, 843652, Control_c, 0, 67, 23
1, 843667, Control_c, 0, 64, 0
1, 843668, Control_c, 0, 67, 38
1, 843685, Control_c, 0, 67, 57
1, 843704, Control_c, 0, 67, 80
1, 843723, Control_c, 0, 67, 101
1, 843739, Control_c, 0, 67, 115
1, 843758, Control_c, 0, 67, 120
1, 843795, Control_c, 0, 67, 127
1, 843798, Note_on_c, 0, 45, 33
1, 843807, Note_on_c, 0, 50, 35
1, 843821, Note_on_c, 0, 83, 50
1, 843925, Control_c, 0, 64, 20
1, 843940, Note_on_c, 0, 83, 0
1, 843944, Control_c, 0, 64, 37
1, 843955, Note_on_c, 0, 56, 40
1, 843960, Control_c, 0, 64, 49
1, 843963, Note_on_c, 0, 86, 49
1, 843979, Control_c, 0, 64, 60
1, 843998, Control_c, 0, 64, 64
1, 844012, Note_on_c, 0, 56, 0
1, 844017, Control_c, 0, 64, 65
1, 844054, Control_c, 0, 64, 66
1, 844072, Note_on_c, 0, 84, 56
1, 844077, Note_on_c, 0, 52, 42
1, 844088, Note_on_c, 0, 86, 0
1, 844101, Note_on_c, 0, 50, 0
1, 844103, Note_on_c, 0, 45, 0
1, 844110, Control_c, 0, 64, 68
1, 844144, Note_on_c, 0, 52, 0
1, 844148, Note_on_c, 0, 84, 0
1, 844175, Note_on_c, 0, 56, 42
1, 844195, Note_on_c, 0, 83, 47
1, 844198, Control_c, 0, 64, 70
1, 844257, Note_on_c, 0, 56, 0
1, 844274, Control_c, 0, 64, 55
1, 844287, Note_on_c, 0, 45, 24
1, 844290, Note_on_c, 0, 48, 40
1, 844292, Control_c, 0, 64, 19
1, 844307, Note_on_c, 0, 83, 0
1, 844310, Control_c, 0, 64, 0
1, 844318, Note_on_c, 0, 84, 57
1, 844404, Control_c, 0, 64, 26
1, 844405, Note_on_c, 0, 57, 44
1, 844422, Control_c, 0, 64, 51
1, 844430, Note_on_c, 0, 84, 0
1, 844441, Control_c, 0, 64, 71
1, 844444, Note_on_c, 0, 88, 58
1, 844458, Control_c, 0, 64, 79
1, 844473, Note_on_c, 0, 57, 0
1, 844477, Control_c, 0, 64, 87
1, 844529, Control_c, 0, 64, 92
1, 844544, Note_on_c, 0, 52, 48
1, 844562, Note_on_c, 0, 48, 0
1, 844578, Note_on_c, 0, 86, 63
1, 844582, Note_on_c, 0, 45, 0
1, 844619, Note_on_c, 0, 88, 0
1, 844625, Note_on_c, 0, 52, 0
1, 844659, Note_on_c, 0, 57, 35
1, 844686, Note_on_c, 0, 84, 58
1, 844705, Note_on_c, 0, 86, 0
1, 844783, Note_on_c, 0, 57, 0
1, 844787, Control_c, 0, 64, 88
1, 844788, Note_on_c, 0, 84, 0
1, 844797, Note_on_c, 0, 83, 62
1, 844806, Control_c, 0, 64, 63
1, 844807, Note_on_c, 0, 45, 42
1, 844822, Control_c, 0, 64, 0
1, 844829, Note_on_c, 0, 50, 39
1, 844913, Note_on_c, 0, 83, 0
1, 844925, Note_on_c, 0, 86, 53
1, 844934, Control_c, 0, 64, 38
1, 844943, Note_on_c, 0, 45, 0
1, 844952, Control_c, 0, 64, 62
1, 844953, Note_on_c, 0, 56, 46
1, 844970, Control_c, 0, 64, 73
1, 844990, Control_c, 0, 64, 79
1, 844997, Note_on_c, 0, 56, 0
1, 845009, Control_c, 0, 64, 82
1, 845027, Control_c, 0, 64, 84
1, 845044, Note_on_c, 0, 84, 58
1, 845046, Note_on_c, 0, 52, 44
1, 845046, Control_c, 0, 64, 87
1, 845049, Note_on_c, 0, 50, 0
1, 845082, Control_c, 0, 64, 92
1, 845095, Note_on_c, 0, 86, 0
1, 845109, Note_on_c, 0, 52, 0
1, 845132, Note_on_c, 0, 84, 0
1, 845135, Control_c, 0, 64, 97
1, 845149, Note_on_c, 0, 56, 34
1, 845160, Note_on_c, 0, 83, 54
1, 845229, Control_c, 0, 64, 89
1, 845246, Control_c, 0, 64, 61
1, 845260, Note_on_c, 0, 56, 0
1, 845260, Note_on_c, 0, 83, 0
1, 845264, Control_c, 0, 64, 0
1, 845287, Note_on_c, 0, 45, 33
1, 845289, Note_on_c, 0, 81, 50
1, 845291, Note_on_c, 0, 48, 32
1, 845357, Control_c, 0, 64, 19
1, 845375, Control_c, 0, 64, 48
1, 845394, Control_c, 0, 64, 68
1, 845395, Control_c, 0, 67, 121
1, 845412, Control_c, 0, 64, 79
1, 845414, Control_c, 0, 67, 114
1, 845416, Note_on_c, 0, 57, 47
1, 845422, Note_on_c, 0, 45, 0
1, 845433, Control_c, 0, 64, 87
1, 845449, Control_c, 0, 67, 104
1, 845463, Control_c, 0, 64, 93
1, 845464, Control_c, 0, 67, 90
1, 845482, Control_c, 0, 64, 99
1, 845484, Control_c, 0, 67, 72
1, 845493, Note_on_c, 0, 81, 0
1, 845501, Control_c, 0, 64, 103
1, 845503, Control_c, 0, 67, 50
1, 845511, Note_on_c, 0, 57, 0
1, 845518, Control_c, 0, 67, 29
1, 845538, Control_c, 0, 64, 109
1, 845538, Control_c, 0, 67, 8
1, 845540, Note_on_c, 0, 52, 49
1, 845556, Control_c, 0, 64, 113
1, 845557, Control_c, 0, 67, 0
1, 845575, Control_c, 0, 64, 117
1, 845596, Control_c, 0, 64, 122
1, 845610, Note_on_c, 0, 52, 0
1, 845611, Control_c, 0, 64, 127
1, 845613, Note_on_c, 0, 48, 0
1, 845650, Note_on_c, 0, 57, 56
1, 845701, Note_on_c, 0, 57, 0
1, 845703, Control_c, 0, 64, 84
1, 845723, Control_c, 0, 64, 0
1, 845766, Note_on_c, 0, 45, 83
1, 845772, Note_on_c, 0, 47, 81
1, 845773, Note_on_c, 0, 88, 102
1, 845786, Note_on_c, 0, 76, 89
1, 845815, Control_c, 0, 64, 33
1, 845829, Note_on_c, 0, 76, 0
1, 845831, Control_c, 0, 64, 76
1, 845850, Control_c, 0, 64, 108
1, 845852, Note_on_c, 0, 88, 0
1, 845869, Control_c, 0, 64, 127
1, 845881, Note_on_c, 0, 47, 0
1, 845886, Note_on_c, 0, 45, 0
1, 845895, Note_on_c, 0, 52, 77
1, 845925, Control_c, 0, 64, 119
1, 845944, Control_c, 0, 64, 67
1, 845962, Control_c, 0, 64, 0
1, 845977, Note_on_c, 0, 52, 0
1, 845998, Note_on_c, 0, 45, 91
1, 846004, Note_on_c, 0, 88, 105
1, 846006, Note_on_c, 0, 50, 85
1, 846008, Note_on_c, 0, 76, 99
1, 846016, Control_c, 0, 64, 28
1, 846036, Control_c, 0, 64, 70
1, 846039, Note_on_c, 0, 88, 0
1, 846050, Poly_aftertouch_c, 0, 86, 0
1, 846050, Note_on_c, 0, 86, 61
1, 846051, Note_on_c, 0, 76, 0
1, 846051, Note_on_c, 0, 86, 0
1, 846053, Control_c, 0, 64, 106
1, 846071, Control_c, 0, 64, 127
1, 846102, Poly_aftertouch_c, 0, 81, 0
1, 846108, Note_on_c, 0, 45, 0
1, 846119, Note_on_c, 0, 52, 77
1, 846135, Note_on_c, 0, 50, 0
1, 846163, Control_c, 0, 64, 122
1, 846182, Control_c, 0, 64, 67
1, 846200, Control_c, 0, 64, 0
1, 846233, Note_on_c, 0, 45, 90
1, 846237, Note_on_c, 0, 48, 88
1, 846241, Note_on_c, 0, 76, 102
1, 846253, Note_on_c, 0, 64, 86
1, 846256, Note_on_c, 0, 52, 0
1, 846275, Control_c, 0, 64, 50
1, 846294, Control_c, 0, 64, 85
1, 846299, Note_on_c, 0, 64, 0
1, 846311, Control_c, 0, 64, 98
1, 846328, Control_c, 0, 64, 86
1, 846349, Control_c, 0, 64, 13
1, 846362, Note_on_c, 0, 45, 0
1, 846365, Note_on_c, 0, 76, 0
1, 846366, Control_c, 0, 64, 0
1, 846382, Note_on_c, 0, 48, 0
1, 846391, Note_on_c, 0, 52, 76
1, 846436, Control_c, 0, 64, 20
1, 846456, Control_c, 0, 64, 69
1, 846474, Control_c, 0, 64, 96
1, 846493, Control_c, 0, 64, 121
1, 846496, Note_on_c, 0, 48, 89
1, 846496, Note_on_c, 0, 45, 88
1, 846498, Note_on_c, 0, 52, 0
1, 846499, Note_on_c, 0, 76, 103
1, 846516, Note_on_c, 0, 64, 87
1, 846565, Control_c, 0, 64, 92
1, 846569, Note_on_c, 0, 64, 0
1, 846584, Control_c, 0, 64, 31
1, 846603, Control_c, 0, 64, 0
1, 846613, Note_on_c, 0, 48, 0
1, 846618, Note_on_c, 0, 52, 76
1, 846625, Note_on_c, 0, 45, 0
1, 846626, Note_on_c, 0, 76, 0
1, 846678, Control_c, 0, 64, 22
1, 846694, Control_c, 0, 64, 57
1, 846706, Note_on_c, 0, 52, 0
1, 846711, Control_c, 0, 64, 78
1, 846731, Control_c, 0, 64, 90
1, 846732, Note_on_c, 0, 47, 87
1, 846734, Note_on_c, 0, 45, 88
1, 846739, Note_on_c, 0, 76, 103
1, 846749, Note_on_c, 0, 64, 88
1, 846751, Control_c, 0, 64, 95
1, 846770, Note_on_c, 0, 64, 0
1, 846786, Control_c, 0, 64, 90
1, 846805, Control_c, 0, 64, 80
1, 846814, Note_on_c, 0, 76, 0
1, 846823, Control_c, 0, 64, 61
1, 846841, Control_c, 0, 64, 11
1, 846853, Note_on_c, 0, 45, 0
1, 846855, Note_on_c, 0, 47, 0
1, 846858, Note_on_c, 0, 52, 74
1, 846860, Control_c, 0, 64, 0
1, 846917, Control_c, 0, 64, 30
1, 846934, Control_c, 0, 64, 57
1, 846953, Control_c, 0, 64, 83
1, 846965, Note_on_c, 0, 45, 84
1, 846967, Note_on_c, 0, 50, 81
1, 846970, Note_on_c, 0, 80, 102
1, 846972, Control_c, 0, 64, 105
1, 846979, Note_on_c, 0, 68, 90
1, 846988, Note_on_c, 0, 52, 0
1, 846989, Control_c, 0, 64, 122
1, 847032, Note_on_c, 0, 68, 0
1, 847049, Note_on_c, 0, 80, 0
1, 847059, Note_on_c, 0, 50, 0
1, 847066, Note_on_c, 0, 45, 0
1, 847068, Note_on_c, 0, 52, 72
1, 847084, Note_on_c, 0, 47, 18
1, 847099, Control_c, 0, 64, 113
1, 847101, Note_on_c, 0, 47, 0
1, 847118, Control_c, 0, 64, 74
1, 847119, Note_on_c, 0, 52, 0
1, 847136, Control_c, 0, 64, 0
1, 847213, Note_on_c, 0, 45, 74
1, 847220, Note_on_c, 0, 81, 102
1, 847227, Note_on_c, 0, 48, 73
1, 847229, Note_on_c, 0, 69, 83
1, 847247, Control_c, 0, 64, 23
1, 847265, Control_c, 0, 64, 60
1, 847275, Note_on_c, 0, 69, 0
1, 847283, Control_c, 0, 64, 76
1, 847303, Control_c, 0, 64, 87
1, 847323, Note_on_c, 0, 45, 0
1, 847335, Control_c, 0, 64, 92
1, 847336, Control_c, 0, 67, 9
1, 847356, Note_on_c, 0, 57, 70
1, 847357, Note_on_c, 0, 48, 0
1, 847369, Note_on_c, 0, 81, 0
1, 847391, Control_c, 0, 67, 15
1, 847409, Control_c, 0, 67, 19
1, 847429, Control_c, 0, 67, 23
1, 847466, Note_on_c, 0, 57, 0
1, 847475, Note_on_c, 0, 52, 63
1, 847481, Control_c, 0, 67, 27
1, 847501, Control_c, 0, 67, 33
1, 847519, Control_c, 0, 67, 40
1, 847540, Control_c, 0, 67, 46
1, 847557, Control_c, 0, 67, 54
1, 847561, Note_on_c, 0, 52, 0
1, 847569, Note_on_c, 0, 57, 57
1, 847574, Control_c, 0, 67, 62
1, 847595, Control_c, 0, 67, 72
1, 847613, Control_c, 0, 67, 86
1, 847619, Note_on_c, 0, 57, 0
1, 847630, Control_c, 0, 67, 100
1, 847649, Control_c, 0, 67, 111
1, 847667, Control_c, 0, 67, 120
1, 847688, Control_c, 0, 64, 88
1, 847689, Control_c, 0, 67, 127
1, 847703, Control_c, 0, 64, 85
1, 847722, Control_c, 0, 64, 82
1, 847741, Control_c, 0, 64, 76
1, 847759, Control_c, 0, 64, 66
1, 847778, Control_c, 0, 64, 52
1, 847794, Control_c, 0, 64, 36
1, 847814, Control_c, 0, 64, 13
1, 847824, Note_on_c, 0, 45, 39
1, 847833, Control_c, 0, 64, 0
1, 847836, Note_on_c, 0, 50, 41
1, 847847, Note_on_c, 0, 83, 54
1, 847962, Control_c, 0, 64, 12
1, 847972, Note_on_c, 0, 56, 46
1, 847981, Control_c, 0, 64, 45
1, 847993, Note_on_c, 0, 86, 59
1, 847997, Control_c, 0, 64, 65
1, 848015, Control_c, 0, 64, 74
1, 848026, Note_on_c, 0, 56, 0
1, 848027, Note_on_c, 0, 83, 0
1, 848034, Control_c, 0, 64, 80
1, 848053, Control_c, 0, 64, 82
1, 848090, Control_c, 0, 64, 85
1, 848099, Note_on_c, 0, 84, 62
1, 848111, Note_on_c, 0, 52, 40
1, 848128, Note_on_c, 0, 45, 0
1, 848136, Note_on_c, 0, 50, 0
1, 848144, Note_on_c, 0, 86, 0
1, 848178, Note_on_c, 0, 52, 0
1, 848188, Note_on_c, 0, 84, 0
1, 848204, Note_on_c, 0, 56, 39
1, 848216, Note_on_c, 0, 83, 67
1, 848308, Control_c, 0, 64, 70
1, 848320, Note_on_c, 0, 45, 42
1, 848326, Control_c, 0, 64, 40
1, 848330, Note_on_c, 0, 48, 46
1, 848333, Note_on_c, 0, 56, 0
1, 848344, Control_c, 0, 64, 0
1, 848346, Note_on_c, 0, 84, 72
1, 848348, Note_on_c, 0, 83, 0
1, 848438, Control_c, 0, 64, 26
1, 848455, Control_c, 0, 64, 47
1, 848463, Note_on_c, 0, 84, 0
1, 848468, Note_on_c, 0, 88, 73
1, 848471, Note_on_c, 0, 57, 40
1, 848475, Control_c, 0, 64, 66
1, 848491, Control_c, 0, 64, 75
1, 848493, Note_on_c, 0, 45, 0
1, 848509, Control_c, 0, 64, 80
1, 848528, Control_c, 0, 64, 82
1, 848536, Note_on_c, 0, 48, 0
1, 848586, Note_on_c, 0, 52, 50
1, 848592, Note_on_c, 0, 86, 70
1, 848604, Note_on_c, 0, 57, 0
1, 848626, Note_on_c, 0, 88, 0
1, 848665, Note_on_c, 0, 52, 0
1, 848689, Note_on_c, 0, 57, 29
1, 848717, Note_on_c, 0, 84, 63
1, 848736, Note_on_c, 0, 86, 0
1, 848771, Note_on_c, 0, 57, 0
1, 848826, Control_c, 0, 64, 77
1, 848828, Note_on_c, 0, 84, 0
1, 848834, Note_on_c, 0, 45, 43
1, 848844, Control_c, 0, 64, 60
1, 848845, Note_on_c, 0, 83, 59
1, 848859, Control_c, 0, 64, 17
1, 848864, Note_on_c, 0, 50, 41
1, 848877, Control_c, 0, 64, 0
1, 848945, Note_on_c, 0, 83, 0
1, 848961, Note_on_c, 0, 56, 43
1, 848965, Note_on_c, 0, 86, 52
1, 848969, Control_c, 0, 64, 34
1, 848990, Control_c, 0, 64, 55
1, 849000, Note_on_c, 0, 45, 0
1, 849006, Control_c, 0, 64, 70
1, 849024, Note_on_c, 0, 56, 0
1, 849024, Control_c, 0, 64, 77
1, 849045, Control_c, 0, 64, 81
1, 849063, Note_on_c, 0, 52, 49
1, 849065, Note_on_c, 0, 50, 0
1, 849083, Note_on_c, 0, 84, 53
1, 849134, Note_on_c, 0, 52, 0
1, 849155, Control_c, 0, 64, 83
1, 849166, Note_on_c, 0, 84, 0
1, 849175, Note_on_c, 0, 86, 0
1, 849203, Note_on_c, 0, 83, 54
1, 849223, Note_on_c, 0, 56, 26
1, 849293, Note_on_c, 0, 83, 0
1, 849297, Note_on_c, 0, 56, 0
1, 849300, Control_c, 0, 64, 80
1, 849318, Control_c, 0, 64, 65
1, 849331, Note_on_c, 0, 81, 51
1, 849332, Note_on_c, 0, 48, 39
1, 849336, Control_c, 0, 64, 31
1, 849339, Note_on_c, 0, 45, 37
1, 849353, Control_c, 0, 64, 0
1, 849444, Note_on_c, 0, 45, 0
1, 849444, Control_c, 0, 64, 34
1, 849456, Note_on_c, 0, 84, 58
1, 849463, Control_c, 0, 64, 57
1, 849468, Note_on_c, 0, 57, 42
1, 849484, Control_c, 0, 64, 72
1, 849492, Note_on_c, 0, 81, 0
1, 849500, Control_c, 0, 64, 80
1, 849520, Control_c, 0, 64, 85
1, 849523, Control_c, 0, 67, 115
1, 849541, Control_c, 0, 64, 88
1, 849542, Control_c, 0, 67, 102
1, 849544, Note_on_c, 0, 57, 0
1, 849558, Control_c, 0, 67, 85
1, 849571, Note_on_c, 0, 52, 44
1, 849574, Note_on_c, 0, 83, 68
1, 849576, Control_c, 0, 67, 64
1, 849581, Note_on_c, 0, 84, 0
1, 849593, Note_on_c, 0, 48, 0
1, 849594, Control_c, 0, 64, 93
1, 849594, Control_c, 0, 67, 40
1, 849611, Control_c, 0, 67, 16
1, 849632, Control_c, 0, 67, 0
1, 849645, Note_on_c, 0, 52, 0
1, 849648, Control_c, 0, 64, 99
1, 849668, Note_on_c, 0, 83, 0
1, 849677, Note_on_c, 0, 57, 49
1, 849683, Note_on_c, 0, 81, 68
1, 849704, Control_c, 0, 64, 103
1, 849751, Note_on_c, 0, 57, 0
1, 849778, Control_c, 0, 64, 90
1, 849796, Control_c, 0, 64, 68
1, 849805, Note_on_c, 0, 45, 32
1, 849807, Note_on_c, 0, 83, 74
1, 849813, Control_c, 0, 64, 37
1, 849825, Note_on_c, 0, 50, 41
1, 849832, Control_c, 0, 64, 22
1, 849835, Note_on_c, 0, 81, 0
1, 849886, Control_c, 0, 64, 38
1, 849905, Control_c, 0, 64, 57
1, 849917, Note_on_c, 0, 56, 48
1, 849919, Note_on_c, 0, 86, 72
1, 849924, Control_c, 0, 64, 71
1, 849942, Control_c, 0, 64, 81
1, 849962, Control_c, 0, 64, 88
1, 849971, Note_on_c, 0, 83, 0
1, 849981, Control_c, 0, 64, 93
1, 849987, Note_on_c, 0, 56, 0
1, 850029, Note_on_c, 0, 84, 74
1, 850033, Note_on_c, 0, 52, 47
1, 850035, Control_c, 0, 67, 9
1, 850077, Note_on_c, 0, 45, 0
1, 850079, Note_on_c, 0, 50, 0
1, 850091, Control_c, 0, 67, 13
1, 850097, Note_on_c, 0, 52, 0
1, 850105, Note_on_c, 0, 86, 0
1, 850108, Control_c, 0, 67, 17
1, 850141, Control_c, 0, 67, 24
1, 850160, Note_on_c, 0, 84, 0
1, 850160, Control_c, 0, 64, 97
1, 850160, Control_c, 0, 67, 34
1, 850160, Note_on_c, 0, 83, 74
1, 850164, Note_on_c, 0, 56, 45
1, 850178, Control_c, 0, 67, 41
1, 850198, Control_c, 0, 67, 45
1, 850216, Control_c, 0, 67, 50
1, 850235, Control_c, 0, 67, 56
1, 850253, Control_c, 0, 67, 66
1, 850268, Note_on_c, 0, 56, 0
1, 850273, Control_c, 0, 67, 77
1, 850290, Control_c, 0, 64, 92
1, 850291, Control_c, 0, 67, 86
1, 850292, Note_on_c, 0, 45, 33
1, 850293, Note_on_c, 0, 48, 41
1, 850304, Note_on_c, 0, 84, 69
1, 850309, Control_c, 0, 64, 75
1, 850311, Control_c, 0, 67, 94
1, 850314, Note_on_c, 0, 83, 0
1, 850326, Control_c, 0, 64, 44
1, 850328, Control_c, 0, 67, 103
1, 850346, Control_c, 0, 64, 0
1, 850348, Control_c, 0, 67, 111
1, 850363, Control_c, 0, 67, 119
1, 850380, Control_c, 0, 67, 127
1, 850418, Note_on_c, 0, 84, 0
1, 850427, Note_on_c, 0, 57, 36
1, 850430, Note_on_c, 0, 88, 64
1, 850456, Control_c, 0, 64, 23
1, 850474, Control_c, 0, 64, 43
1, 850493, Control_c, 0, 64, 61
1, 850507, Note_on_c, 0, 57, 0
1, 850511, Control_c, 0, 64, 71
1, 850527, Control_c, 0, 64, 75
1, 850540, Note_on_c, 0, 52, 36
1, 850542, Poly_aftertouch_c, 0, 45, 20
1, 850546, Control_c, 0, 64, 77
1, 850558, Note_on_c, 0, 86, 62
1, 850563, Note_on_c, 0, 88, 0
1, 850572, Note_on_c, 0, 45, 0
1, 850572, Poly_aftertouch_c, 0, 45, 0
1, 850609, Note_on_c, 0, 48, 0
1, 850613, Note_on_c, 0, 52, 0
1, 850653, Note_on_c, 0, 57, 33
1, 850673, Note_on_c, 0, 84, 57
1, 850700, Note_on_c, 0, 57, 0
1, 850702, Note_on_c, 0, 86, 0
1, 850768, Note_on_c, 0, 45, 40
1, 850784, Note_on_c, 0, 84, 0
1, 850785, Control_c, 0, 64, 74
1, 850805, Control_c, 0, 64, 62
1, 850805, Note_on_c, 0, 83, 50
1, 850811, Note_on_c, 0, 50, 32
1, 850822, Control_c, 0, 64, 38
1, 850841, Control_c, 0, 64, 0
1, 850901, Note_on_c, 0, 56, 42
1, 850908, Note_on_c, 0, 83, 0
1, 850930, Note_on_c, 0, 86, 50
1, 850935, Control_c, 0, 64, 10
1, 850953, Control_c, 0, 64, 39
1, 850961, Note_on_c, 0, 56, 0
1, 850969, Note_on_c, 0, 45, 0
1, 850972, Control_c, 0, 64, 59
1, 850989, Control_c, 0, 64, 71
1, 851008, Control_c, 0, 64, 77
1, 851023, Note_on_c, 0, 52, 39
1, 851024, Control_c, 0, 64, 79
1, 851039, Note_on_c, 0, 50, 0
1, 851043, Note_on_c, 0, 84, 50
1, 851099, Note_on_c, 0, 52, 0
1, 851115, Note_on_c, 0, 86, 0
1, 851131, Note_on_c, 0, 84, 0
1, 851148, Note_on_c, 0, 56, 33
1, 851150, Control_c, 0, 64, 81
1, 851158, Note_on_c, 0, 83, 58
1, 851225, Control_c, 0, 64, 83
1, 851236, Note_on_c, 0, 83, 0
1, 851262, Note_on_c, 0, 56, 0
1, 851277, Note_on_c, 0, 48, 41
1, 851291, Note_on_c, 0, 81, 40
1, 851298, Control_c, 0, 64, 72
1, 851299, Note_on_c, 0, 45, 38
1, 851316, Control_c, 0, 64, 55
1, 851335, Control_c, 0, 64, 33
1, 851354, Control_c, 0, 64, 22
1, 851386, Note_on_c, 0, 45, 0
1, 851395, Note_on_c, 0, 81, 0
1, 851401, Note_on_c, 0, 84, 52
1, 851409, Control_c, 0, 64, 30
1, 851423, Note_on_c, 0, 57, 42
1, 851428, Control_c, 0, 64, 47
1, 851447, Control_c, 0, 64, 62
1, 851464, Control_c, 0, 64, 69
1, 851482, Control_c, 0, 64, 71
1, 851486, Note_on_c, 0, 57, 0
1, 851507, Note_on_c, 0, 84, 0
1, 851518, Note_on_c, 0, 83, 53
1, 851530, Note_on_c, 0, 52, 40
1, 851535, Control_c, 0, 64, 73
1, 851549, Note_on_c, 0, 48, 0
1, 851588, Note_on_c, 0, 83, 0
1, 851593, Control_c, 0, 64, 75
1, 851595, Note_on_c, 0, 52, 0
1, 851630, Control_c, 0, 64, 77
1, 851635, Note_on_c, 0, 81, 47
1, 851643, Note_on_c, 0, 57, 35
1, 851684, Control_c, 0, 64, 79
1, 851705, Note_on_c, 0, 57, 0
1, 851741, Control_c, 0, 64, 75
1, 851756, Note_on_c, 0, 83, 52
1, 851756, Control_c, 0, 64, 59
1, 851759, Note_on_c, 0, 45, 37
1, 851768, Note_on_c, 0, 81, 0
1, 851770, Note_on_c, 0, 50, 40
1, 851775, Control_c, 0, 64, 25
1, 851795, Control_c, 0, 64, 0
1, 851822, Note_on_c, 0, 45, 0
1, 851860, Note_on_c, 0, 83, 0
1, 851876, Note_on_c, 0, 86, 55
1, 851888, Control_c, 0, 64, 32
1, 851897, Note_on_c, 0, 56, 43
1, 851908, Control_c, 0, 64, 51
1, 851924, Control_c, 0, 64, 68
1, 851944, Control_c, 0, 64, 75
1, 851949, Note_on_c, 0, 56, 0
1, 851961, Control_c, 0, 64, 79
1, 852008, Note_on_c, 0, 84, 52
1, 852013, Control_c, 0, 64, 81
1, 852020, Note_on_c, 0, 52, 44
1, 852046, Note_on_c, 0, 86, 0
1, 852049, Note_on_c, 0, 50, 0
1, 852068, Control_c, 0, 64, 84
1, 852093, Note_on_c, 0, 52, 0
1, 852105, Control_c, 0, 64, 86
1, 852112, Note_on_c, 0, 84, 0
1, 852125, Note_on_c, 0, 56, 37
1, 852142, Note_on_c, 0, 83, 47
1, 852216, Control_c, 0, 64, 90
1, 852230, Note_on_c, 0, 83, 0
1, 852234, Note_on_c, 0, 56, 0
1, 852251, Note_on_c, 0, 48, 39
1, 852252, Control_c, 0, 64, 78
1, 852264, Note_on_c, 0, 45, 41
1, 852266, Note_on_c, 0, 81, 46
1, 852271, Control_c, 0, 64, 57
1, 852291, Control_c, 0, 64, 17
1, 852308, Control_c, 0, 64, 0
1, 852341, Note_on_c, 0, 45, 0
1, 852381, Note_on_c, 0, 57, 30
1, 852383, Control_c, 0, 64, 28
1, 852391, Note_on_c, 0, 84, 48
1, 852398, Control_c, 0, 64, 49
1, 852415, Note_on_c, 0, 81, 0
1, 852417, Control_c, 0, 64, 67
1, 852437, Control_c, 0, 64, 74
1, 852447, Note_on_c, 0, 57, 0
1, 852455, Control_c, 0, 64, 78
1, 852473, Control_c, 0, 64, 81
1, 852496, Note_on_c, 0, 84, 0
1, 852500, Note_on_c, 0, 52, 37
1, 852509, Control_c, 0, 64, 84
1, 852516, Note_on_c, 0, 83, 48
1, 852529, Control_c, 0, 64, 86
1, 852530, Note_on_c, 0, 48, 0
1, 852565, Note_on_c, 0, 52, 0
1, 852565, Control_c, 0, 64, 92
1, 852578, Note_on_c, 0, 83, 0
1, 852588, Note_on_c, 0, 57, 42
1, 852603, Control_c, 0, 64, 96
1, 852636, Note_on_c, 0, 81, 39
1, 852712, Control_c, 0, 64, 92
1, 852731, Control_c, 0, 64, 70
1, 852732, Note_on_c, 0, 57, 0
1, 852738, Note_on_c, 0, 45, 40
1, 852748, Control_c, 0, 64, 23
1, 852753, Note_on_c, 0, 83, 52
1, 852767, Control_c, 0, 64, 0
1, 852781, Note_on_c, 0, 81, 0
1, 852788, Note_on_c, 0, 50, 31
1, 852827, Note_on_c, 0, 45, 0
1, 852843, Control_c, 0, 64, 14
1, 852857, Note_on_c, 0, 83, 0
1, 852861, Control_c, 0, 64, 40
1, 852862, Note_on_c, 0, 86, 53
1, 852879, Control_c, 0, 64, 62
1, 852897, Control_c, 0, 64, 76
1, 852905, Note_on_c, 0, 56, 44
1, 852916, Control_c, 0, 64, 85
1, 852918, Control_c, 0, 67, 122
1, 852949, Control_c, 0, 64, 91
1, 852951, Control_c, 0, 67, 109
1, 852967, Control_c, 0, 67, 91
1, 852975, Note_on_c, 0, 56, 0
1, 852986, Control_c, 0, 64, 96
1, 852987, Control_c, 0, 67, 67
1, 853004, Control_c, 0, 67, 41
1, 853017, Note_on_c, 0, 50, 0
1, 853019, Note_on_c, 0, 84, 51
1, 853022, Control_c, 0, 67, 15
1, 853041, Note_on_c, 0, 52, 45
1, 853041, Control_c, 0, 67, 0
1, 853060, Control_c, 0, 64, 102
1, 853098, Note_on_c, 0, 52, 0
1, 853111, Note_on_c, 0, 56, 43
1, 853114, Control_c, 0, 64, 106
1, 853121, Note_on_c, 0, 84, 0
1, 853129, Note_on_c, 0, 83, 65
1, 853140, Note_on_c, 0, 86, 0
1, 853211, Note_on_c, 0, 56, 0
1, 853226, Note_on_c, 0, 83, 0
1, 853244, Control_c, 0, 64, 82
1, 853262, Control_c, 0, 64, 0
1, 853302, Note_on_c, 0, 57, 98
1, 853308, Note_on_c, 0, 81, 87
1, 853309, Note_on_c, 0, 45, 82
1, 853389, Note_on_c, 0, 45, 0
1, 853396, Note_on_c, 0, 81, 0
1, 853409, Control_c, 0, 64, 62
1, 853427, Control_c, 0, 64, 92
1, 853430, Note_on_c, 0, 57, 0
1, 853446, Control_c, 0, 64, 116
1, 853464, Control_c, 0, 64, 126
1, 853944, Note_on_c, 0, 76, 83
1, 853953, Note_on_c, 0, 64, 56
1, 854068, Note_on_c, 0, 76, 0
1, 854076, Note_on_c, 0, 64, 0
1, 854526, Note_on_c, 0, 76, 105
1, 854545, Note_on_c, 0, 64, 74
1, 855295, Note_on_c, 0, 64, 0
1, 855318, Control_c, 0, 67, 8
1, 855557, Control_c, 0, 67, 12
1, 855577, Note_on_c, 0, 72, 59
1, 855585, Note_on_c, 0, 60, 43
1, 855693, Note_on_c, 0, 76, 0
1, 855885, Note_on_c, 0, 71, 57
1, 855913, Note_on_c, 0, 59, 41
1, 855947, Note_on_c, 0, 72, 0
1, 855956, Note_on_c, 0, 60, 0
1, 856032, Control_c, 0, 64, 122
1, 856033, Control_c, 0, 67, 17
1, 856087, Control_c, 0, 67, 21
1, 856427, Note_on_c, 0, 64, 44
1, 856471, Note_on_c, 0, 52, 37
1, 856511, Control_c, 0, 64, 118
1, 856560, Note_on_c, 0, 71, 0
1, 856681, Note_on_c, 0, 59, 0
1, 856728, Control_c, 0, 67, 17
1, 856822, Control_c, 0, 67, 13
1, 856912, Control_c, 0, 67, 9
1, 856995, Note_on_c, 0, 69, 43
1, 857026, Note_on_c, 0, 57, 36
1, 857071, Poly_aftertouch_c, 0, 72, 0
1, 857088, Poly_aftertouch_c, 0, 52, 24
1, 857115, Control_c, 0, 67, 0
1, 857159, Note_on_c, 0, 52, 0
1, 857159, Poly_aftertouch_c, 0, 52, 0
1, 857376, Note_on_c, 0, 57, 0
1, 857414, Poly_aftertouch_c, 0, 64, 24
1, 857452, Note_on_c, 0, 64, 0
1, 857452, Poly_aftertouch_c, 0, 64, 0
1, 857464, Note_on_c, 0, 69, 0
1, 857757, Control_c, 0, 64, 122
1, 857866, Control_c, 0, 64, 126
1, 858050, Control_c, 0, 67, 8
1, 858161, Control_c, 0, 64, 79
1, 858179, Control_c, 0, 64, 0
1, 858209, Note_on_c, 0, 41, 92
1, 858211, Note_on_c, 0, 29, 88
1, 858214, Note_on_c, 0, 53, 98
1, 858272, Control_c, 0, 64, 15
1, 858290, Control_c, 0, 64, 57
1, 858296, Note_on_c, 0, 41, 0
1, 858305, Note_on_c, 0, 29, 0
1, 858306, Control_c, 0, 64, 83
1, 858322, Note_on_c, 0, 53, 0
1, 858325, Control_c, 0, 64, 104
1, 858345, Control_c, 0, 64, 124
1, 858529, Control_c, 0, 67, 0
1, 858789, Note_on_c, 0, 84, 93
1, 858812, Note_on_c, 0, 60, 64
1, 858817, Note_on_c, 0, 72, 65
1, 858839, Note_on_c, 0, 72, 0
1, 858892, Note_on_c, 0, 84, 0
1, 858906, Note_on_c, 0, 60, 0
1, 859324, Note_on_c, 0, 84, 103
1, 859344, Note_on_c, 0, 72, 84
1, 859353, Note_on_c, 0, 60, 78
1, 859366, Note_on_c, 0, 79, 38
1, 859406, Note_on_c, 0, 79, 0
1, 859723, Note_on_c, 0, 84, 0
1, 859754, Note_on_c, 0, 72, 0
1, 860100, Note_on_c, 0, 60, 0
1, 860250, Note_on_c, 0, 81, 72
1, 860277, Note_on_c, 0, 57, 44
1, 860300, Note_on_c, 0, 69, 33
1, 860327, Control_c, 0, 67, 8
1, 860354, Note_on_c, 0, 69, 0
1, 860508, Control_c, 0, 67, 13
1, 860513, Note_on_c, 0, 81, 0
1, 860572, Note_on_c, 0, 55, 44
1, 860579, Note_on_c, 0, 79, 62
1, 860599, Control_c, 0, 67, 17
1, 860613, Note_on_c, 0, 67, 39
1, 860637, Control_c, 0, 67, 22
1, 860644, Note_on_c, 0, 57, 0
1, 860710, Control_c, 0, 67, 26
1, 860719, Note_on_c, 0, 79, 0
1, 860748, Control_c, 0, 67, 30
1, 860766, Note_on_c, 0, 67, 0
1, 860785, Control_c, 0, 67, 34
1, 860838, Control_c, 0, 67, 39
1, 860876, Control_c, 0, 67, 44
1, 860912, Control_c, 0, 67, 50
1, 860968, Control_c, 0, 67, 54
1, 861024, Control_c, 0, 67, 59
1, 861098, Control_c, 0, 67, 64
1, 861125, Note_on_c, 0, 72, 55
1, 861150, Control_c, 0, 67, 69
1, 861160, Note_on_c, 0, 60, 35
1, 861164, Note_on_c, 0, 48, 39
1, 861238, Note_on_c, 0, 60, 0
1, 861246, Note_on_c, 0, 55, 0
1, 861283, Note_on_c, 0, 72, 0
1, 861338, Control_c, 0, 67, 65
1, 861444, Control_c, 0, 67, 60
1, 861480, Control_c, 0, 67, 54
1, 861516, Control_c, 0, 67, 48
1, 861553, Control_c, 0, 67, 43
1, 861589, Control_c, 0, 67, 38
1, 861626, Control_c, 0, 67, 34
1, 861664, Control_c, 0, 67, 28
1, 861682, Note_on_c, 0, 77, 54
1, 861701, Control_c, 0, 67, 21
1, 861719, Control_c, 0, 67, 16
1, 861727, Note_on_c, 0, 65, 19
1, 861728, Note_on_c, 0, 53, 37
1, 861739, Control_c, 0, 67, 10
1, 861781, Poly_aftertouch_c, 0, 48, 22
1, 861806, Note_on_c, 0, 48, 0
1, 861806, Poly_aftertouch_c, 0, 48, 0
1, 861847, Control_c, 0, 67, 0
1, 862025, Note_on_c, 0, 77, 0
1, 862042, Note_on_c, 0, 53, 0
1, 862098, Note_on_c, 0, 65, 0
1, 862877, Control_c, 0, 64, 101
1, 862896, Control_c, 0, 64, 17
1, 862911, Note_on_c, 0, 55, 93
1, 862911, Control_c, 0, 64, 0
1, 862915, Note_on_c, 0, 43, 89
1, 862917, Note_on_c, 0, 31, 86
1, 863003, Control_c, 0, 64, 34
1, 863015, Note_on_c, 0, 31, 0
1, 863022, Control_c, 0, 64, 67
1, 863024, Note_on_c, 0, 55, 0
1, 863028, Note_on_c, 0, 43, 0
1, 863043, Control_c, 0, 64, 87
1, 863059, Control_c, 0, 64, 111
1, 863079, Control_c, 0, 64, 127
1, 863490, Note_on_c, 0, 89, 88
1, 863510, Note_on_c, 0, 65, 60
1, 863514, Note_on_c, 0, 77, 65
1, 863538, Note_on_c, 0, 77, 0
1, 863595, Note_on_c, 0, 65, 0
1, 863606, Note_on_c, 0, 89, 0
1, 864039, Note_on_c, 0, 89, 110
1, 864047, Note_on_c, 0, 65, 91
1, 864062, Note_on_c, 0, 77, 84
1, 864075, Note_on_c, 0, 83, 50
1, 864104, Note_on_c, 0, 83, 0
1, 864419, Note_on_c, 0, 89, 0
1, 864462, Note_on_c, 0, 77, 0
1, 864862, Note_on_c, 0, 65, 0
1, 864896, Note_on_c, 0, 86, 90
1, 864920, Note_on_c, 0, 62, 57
1, 864931, Note_on_c, 0, 74, 48
1, 864961, Note_on_c, 0, 74, 0
1, 865037, Note_on_c, 0, 86, 0
1, 865236, Note_on_c, 0, 83, 75
1, 865241, Control_c, 0, 67, 8
1, 865249, Note_on_c, 0, 59, 51
1, 865258, Note_on_c, 0, 71, 55
1, 865303, Note_on_c, 0, 62, 0
1, 865335, Note_on_c, 0, 71, 0
1, 865345, Poly_aftertouch_c, 0, 78, 0
1, 865369, Control_c, 0, 67, 12
1, 865373, Note_on_c, 0, 83, 0
1, 865424, Control_c, 0, 67, 16
1, 865461, Control_c, 0, 67, 21
1, 865499, Control_c, 0, 64, 123
1, 865501, Control_c, 0, 67, 27
1, 865517, Control_c, 0, 67, 32
1, 865536, Control_c, 0, 67, 36
1, 865554, Control_c, 0, 67, 40
1, 865571, Control_c, 0, 67, 44
1, 865609, Control_c, 0, 64, 119
1, 865610, Control_c, 0, 67, 50
1, 865647, Control_c, 0, 67, 55
1, 865664, Control_c, 0, 67, 59
1, 865683, Control_c, 0, 67, 64
1, 865702, Control_c, 0, 67, 69
1, 865719, Control_c, 0, 67, 73
1, 865753, Note_on_c, 0, 59, 0
1, 865757, Control_c, 0, 67, 79
1, 865794, Control_c, 0, 67, 84
1, 865804, Note_on_c, 0, 79, 67
1, 865809, Control_c, 0, 64, 115
1, 865828, Control_c, 0, 67, 88
1, 865831, Note_on_c, 0, 67, 44
1, 865840, Note_on_c, 0, 55, 45
1, 865867, Control_c, 0, 67, 92
1, 865889, Note_on_c, 0, 67, 0
1, 865905, Control_c, 0, 67, 97
1, 865941, Control_c, 0, 67, 103
1, 865955, Note_on_c, 0, 79, 0
1, 865957, Control_c, 0, 67, 107
1, 865978, Control_c, 0, 67, 112
1, 865996, Control_c, 0, 67, 117
1, 866015, Control_c, 0, 67, 121
1, 866046, Control_c, 0, 67, 125
1, 866375, Note_on_c, 0, 77, 64
1, 866408, Note_on_c, 0, 53, 45
1, 866412, Note_on_c, 0, 65, 39
1, 866451, Poly_aftertouch_c, 0, 55, 24
1, 866472, Control_c, 0, 64, 111
1, 866496, Note_on_c, 0, 55, 0
1, 866496, Poly_aftertouch_c, 0, 55, 0
1, 866673, Control_c, 0, 64, 107
1, 866686, Poly_aftertouch_c, 0, 65, 24
1, 866694, Note_on_c, 0, 77, 0
1, 866736, Note_on_c, 0, 65, 0
1, 866736, Poly_aftertouch_c, 0, 65, 0
1, 867130, Note_on_c, 0, 53, 0
1, 867223, Note_on_c, 0, 74, 69
1, 867247, Note_on_c, 0, 62, 51
1, 867261, Note_on_c, 0, 50, 40
1, 867297, Note_on_c, 0, 62, 0
1, 867326, Note_on_c, 0, 74, 0
1, 867549, Note_on_c, 0, 71, 60
1, 867563, Note_on_c, 0, 47, 37
1, 867568, Poly_aftertouch_c, 0, 50, 24
1, 867588, Note_on_c, 0, 59, 35
1, 867605, Note_on_c, 0, 50, 0
1, 867605, Poly_aftertouch_c, 0, 50, 0
1, 867637, Note_on_c, 0, 59, 0
1, 867669, Note_on_c, 0, 71, 0
1, 868027, Poly_aftertouch_c, 0, 47, 24
1, 868077, Note_on_c, 0, 47, 0
1, 868077, Poly_aftertouch_c, 0, 47, 0
1, 868078, Poly_aftertouch_c, 0, 47, 0
1, 868124, Note_on_c, 0, 67, 57
1, 868157, Note_on_c, 0, 43, 41
1, 868166, Note_on_c, 0, 55, 35
1, 868224, Note_on_c, 0, 55, 0
1, 868250, Control_c, 0, 64, 103
1, 868257, Note_on_c, 0, 67, 0
1, 868672, Note_on_c, 0, 65, 50
1, 868694, Note_on_c, 0, 41, 38
1, 868711, Poly_aftertouch_c, 0, 43, 24
1, 868713, Note_on_c, 0, 53, 26
1, 868780, Note_on_c, 0, 43, 0
1, 868780, Poly_aftertouch_c, 0, 43, 0
1, 868991, Poly_aftertouch_c, 0, 53, 24
1, 869033, Note_on_c, 0, 65, 0
1, 869060, Note_on_c, 0, 53, 0
1, 869060, Poly_aftertouch_c, 0, 53, 0
1, 869061, Poly_aftertouch_c, 0, 53, 0
1, 869112, Control_c, 0, 64, 99
1, 869285, Note_on_c, 0, 41, 0
1, 869648, Note_on_c, 0, 62, 48
1, 869657, Note_on_c, 0, 38, 37
1, 869686, Note_on_c, 0, 50, 27
1, 869741, Note_on_c, 0, 50, 0
1, 869992, Note_on_c, 0, 59, 48
1, 870007, Poly_aftertouch_c, 0, 62, 24
1, 870036, Note_on_c, 0, 35, 34
1, 870037, Note_on_c, 0, 47, 29
1, 870085, Note_on_c, 0, 62, 0
1, 870085, Poly_aftertouch_c, 0, 62, 0
1, 870159, Poly_aftertouch_c, 0, 38, 24
1, 870241, Note_on_c, 0, 38, 0
1, 870241, Poly_aftertouch_c, 0, 38, 0
1, 870283, Poly_aftertouch_c, 0, 47, 22
1, 870303, Note_on_c, 0, 47, 0
1, 870303, Poly_aftertouch_c, 0, 47, 0
1, 870304, Poly_aftertouch_c, 0, 47, 0
1, 870532, Note_on_c, 0, 59, 0
1, 870589, Note_on_c, 0, 35, 0
1, 871294, Note_on_c, 0, 55, 39
1, 871330, Note_on_c, 0, 43, 29
1, 871345, Note_on_c, 0, 31, 33
1, 871587, Poly_aftertouch_c, 0, 43, 24
1, 871659, Note_on_c, 0, 43, 0
1, 871659, Poly_aftertouch_c, 0, 43, 0
1, 871697, Note_on_c, 0, 31, 0
1, 871838, Note_on_c, 0, 55, 0
1, 872140, Control_c, 0, 64, 103
1, 873165, Note_on_c, 0, 36, 39
1, 873203, Control_c, 0, 64, 95
1, 873223, Control_c, 0, 64, 71
1, 873241, Control_c, 0, 64, 28
1, 873259, Control_c, 0, 64, 0
1, 873313, Control_c, 0, 64, 24
1, 873333, Control_c, 0, 64, 47
1, 873351, Control_c, 0, 64, 72
1, 873369, Control_c, 0, 64, 89
1, 873387, Control_c, 0, 64, 107
1, 873399, Note_on_c, 0, 36, 0
1, 873406, Control_c, 0, 64, 116
1, 873461, Control_c, 0, 64, 120
1, 873479, Note_on_c, 0, 52, 39
1, 873568, Control_c, 0, 64, 124
1, 873603, Note_on_c, 0, 52, 0
1, 873693, Note_on_c, 0, 55, 37
1, 873848, Note_on_c, 0, 60, 40
1, 873938, Note_on_c, 0, 55, 0
1, 874047, Note_on_c, 0, 64, 44
1, 874058, Note_on_c, 0, 79, 68
1, 874071, Note_on_c, 0, 60, 0
1, 874153, Note_on_c, 0, 64, 0
1, 874190, Note_on_c, 0, 79, 0
1, 874204, Note_on_c, 0, 52, 45
1, 874271, Note_on_c, 0, 52, 0
1, 874327, Note_on_c, 0, 55, 41
1, 874471, Note_on_c, 0, 60, 41
1, 874584, Note_on_c, 0, 64, 44
1, 874615, Note_on_c, 0, 60, 0
1, 874616, Note_on_c, 0, 55, 0
1, 874621, Note_on_c, 0, 79, 65
1, 874762, Note_on_c, 0, 52, 35
1, 874818, Note_on_c, 0, 64, 0
1, 874831, Note_on_c, 0, 52, 0
1, 874874, Note_on_c, 0, 55, 40
1, 874985, Note_on_c, 0, 60, 48
1, 875133, Note_on_c, 0, 64, 49
1, 875160, Note_on_c, 0, 60, 0
1, 875225, Control_c, 0, 64, 120
1, 875227, Note_on_c, 0, 55, 0
1, 875269, Note_on_c, 0, 52, 32
1, 875326, Note_on_c, 0, 52, 0
1, 875332, Control_c, 0, 64, 116
1, 875363, Note_on_c, 0, 55, 45
1, 875377, Note_on_c, 0, 76, 66
1, 875458, Control_c, 0, 64, 112
1, 875472, Note_on_c, 0, 60, 44
1, 875475, Note_on_c, 0, 55, 0
1, 875492, Note_on_c, 0, 64, 0
1, 875524, Note_on_c, 0, 60, 0
1, 875550, Control_c, 0, 64, 108
1, 875624, Control_c, 0, 64, 103
1, 875652, Note_on_c, 0, 79, 0
1, 875698, Control_c, 0, 64, 99
1, 875744, Note_on_c, 0, 74, 69
1, 875825, Note_on_c, 0, 76, 0
1, 875832, Note_on_c, 0, 53, 36
1, 875922, Note_on_c, 0, 53, 0
1, 875961, Note_on_c, 0, 55, 35
1, 876029, Control_c, 0, 64, 95
1, 876062, Note_on_c, 0, 59, 43
1, 876212, Poly_aftertouch_c, 0, 55, 22
1, 876225, Note_on_c, 0, 62, 48
1, 876230, Note_on_c, 0, 67, 62
1, 876246, Note_on_c, 0, 55, 0
1, 876246, Poly_aftertouch_c, 0, 55, 0
1, 876251, Note_on_c, 0, 59, 0
1, 876357, Note_on_c, 0, 74, 0
1, 876397, Note_on_c, 0, 53, 43
1, 876462, Note_on_c, 0, 53, 0
1, 876512, Note_on_c, 0, 55, 41
1, 876523, Control_c, 0, 64, 91
1, 876595, Note_on_c, 0, 59, 52
1, 876610, Note_on_c, 0, 62, 0
1, 876644, Note_on_c, 0, 55, 0
1, 876662, Note_on_c, 0, 59, 0
1, 876759, Note_on_c, 0, 72, 59
1, 876817, Control_c, 0, 64, 88
1, 876880, Note_on_c, 0, 52, 42
1, 876945, Control_c, 0, 64, 86
1, 876964, Note_on_c, 0, 52, 0
1, 877002, Note_on_c, 0, 55, 45
1, 877125, Note_on_c, 0, 60, 40
1, 877234, Note_on_c, 0, 60, 0
1, 877236, Note_on_c, 0, 55, 0
1, 877244, Note_on_c, 0, 76, 53
1, 877275, Note_on_c, 0, 64, 35
1, 877280, Note_on_c, 0, 67, 0
1, 877306, Note_on_c, 0, 76, 0
1, 877329, Note_on_c, 0, 72, 0
1, 877365, Control_c, 0, 64, 84
1, 877399, Note_on_c, 0, 52, 42
1, 877499, Note_on_c, 0, 52, 0
1, 877505, Note_on_c, 0, 55, 46
1, 877601, Poly_aftertouch_c, 0, 64, 24
1, 877626, Note_on_c, 0, 60, 40
1, 877644, Note_on_c, 0, 64, 0
1, 877644, Poly_aftertouch_c, 0, 64, 0
1, 877669, Note_on_c, 0, 55, 0
1, 877672, Note_on_c, 0, 48, 50
1, 877697, Note_on_c, 0, 60, 0
1, 877771, Note_on_c, 0, 36, 53
1, 877800, Note_on_c, 0, 48, 0
1, 877888, Note_on_c, 0, 36, 0
1, 877891, Note_on_c, 0, 52, 36
1, 877919, Control_c, 0, 64, 86
1, 878000, Note_on_c, 0, 52, 0
1, 878015, Note_on_c, 0, 55, 43
1, 878122, Note_on_c, 0, 60, 44
1, 878239, Note_on_c, 0, 55, 0
1, 878251, Note_on_c, 0, 60, 0
1, 878286, Note_on_c, 0, 64, 41
1, 878308, Note_on_c, 0, 79, 69
1, 878416, Note_on_c, 0, 52, 24
1, 878440, Note_on_c, 0, 79, 0
1, 878494, Note_on_c, 0, 52, 0
1, 878526, Note_on_c, 0, 55, 45
1, 878527, Note_on_c, 0, 64, 0
1, 878664, Note_on_c, 0, 60, 40
1, 878708, Note_on_c, 0, 55, 0
1, 878790, Note_on_c, 0, 64, 52
1, 878805, Note_on_c, 0, 79, 63
1, 878831, Note_on_c, 0, 60, 0
1, 878928, Note_on_c, 0, 52, 36
1, 879009, Note_on_c, 0, 52, 0
1, 879026, Note_on_c, 0, 64, 0
1, 879049, Note_on_c, 0, 55, 43
1, 879190, Note_on_c, 0, 60, 45
1, 879324, Note_on_c, 0, 64, 51
1, 879327, Note_on_c, 0, 60, 0
1, 879363, Note_on_c, 0, 55, 0
1, 879438, Note_on_c, 0, 52, 35
1, 879509, Note_on_c, 0, 52, 0
1, 879555, Note_on_c, 0, 55, 32
1, 879559, Note_on_c, 0, 76, 68
1, 879637, Note_on_c, 0, 60, 49
1, 879639, Note_on_c, 0, 55, 0
1, 879645, Note_on_c, 0, 64, 0
1, 879678, Note_on_c, 0, 60, 0
1, 879771, Note_on_c, 0, 79, 0
1, 879844, Note_on_c, 0, 74, 58
1, 879911, Note_on_c, 0, 76, 0
1, 879985, Note_on_c, 0, 53, 34
1, 880067, Note_on_c, 0, 53, 0
1, 880081, Control_c, 0, 64, 84
1, 880098, Note_on_c, 0, 55, 37
1, 880215, Note_on_c, 0, 59, 42
1, 880310, Note_on_c, 0, 55, 0
1, 880332, Note_on_c, 0, 59, 0
1, 880334, Note_on_c, 0, 67, 57
1, 880351, Note_on_c, 0, 62, 47
1, 880445, Note_on_c, 0, 74, 0
1, 880466, Note_on_c, 0, 53, 35
1, 880546, Note_on_c, 0, 53, 0
1, 880571, Note_on_c, 0, 55, 45
1, 880678, Note_on_c, 0, 59, 42
1, 880680, Note_on_c, 0, 62, 0
1, 880687, Control_c, 0, 64, 82
1, 880733, Note_on_c, 0, 59, 0
1, 880739, Note_on_c, 0, 55, 0
1, 880836, Control_c, 0, 64, 80
1, 880876, Note_on_c, 0, 72, 54
1, 880909, Control_c, 0, 64, 78
1, 881158, Note_on_c, 0, 67, 0
1, 881170, Note_on_c, 0, 52, 37
1, 881205, Note_on_c, 0, 72, 0
1, 881220, Control_c, 0, 64, 74
1, 881238, Control_c, 0, 64, 71
1, 881255, Control_c, 0, 64, 67
1, 881275, Control_c, 0, 64, 64
1, 881282, Note_on_c, 0, 52, 0
1, 881289, Note_on_c, 0, 55, 46
1, 881294, Control_c, 0, 64, 61
1, 881311, Control_c, 0, 64, 57
1, 881328, Control_c, 0, 64, 52
1, 881347, Control_c, 0, 64, 38
1, 881366, Control_c, 0, 64, 13
1, 881384, Control_c, 0, 64, 0
1, 881396, Note_on_c, 0, 60, 53
1, 881424, Note_on_c, 0, 55, 0
1, 881486, Note_on_c, 0, 60, 0
1, 881487, Note_on_c, 0, 64, 59
1, 881604, Note_on_c, 0, 64, 0
1, 881612, Note_on_c, 0, 62, 55
1, 881721, Note_on_c, 0, 62, 0
1, 881739, Note_on_c, 0, 43, 47
1, 881740, Note_on_c, 0, 60, 43
1, 881837, Note_on_c, 0, 60, 0
1, 881854, Note_on_c, 0, 59, 52
1, 881871, Note_on_c, 0, 31, 42
1, 881901, Control_c, 0, 64, 36
1, 881920, Control_c, 0, 64, 48
1, 881928, Note_on_c, 0, 59, 0
1, 881939, Control_c, 0, 64, 59
1, 881970, Control_c, 0, 64, 67
1, 881989, Control_c, 0, 64, 71
1, 881994, Note_on_c, 0, 31, 0
1, 881997, Note_on_c, 0, 55, 49
1, 881998, Note_on_c, 0, 43, 0
1, 882008, Control_c, 0, 64, 74
1, 882026, Control_c, 0, 64, 78
1, 882043, Control_c, 0, 64, 82
1, 882061, Control_c, 0, 64, 86
1, 882081, Control_c, 0, 64, 88
1, 882112, Note_on_c, 0, 55, 0
1, 882117, Note_on_c, 0, 59, 46
1, 882219, Note_on_c, 0, 62, 48
1, 882236, Note_on_c, 0, 59, 0
1, 882298, Note_on_c, 0, 62, 0
1, 882390, Note_on_c, 0, 77, 69
1, 882398, Note_on_c, 0, 67, 55
1, 882511, Note_on_c, 0, 77, 0
1, 882517, Note_on_c, 0, 67, 0
1, 882540, Note_on_c, 0, 55, 38
1, 882612, Note_on_c, 0, 55, 0
1, 882632, Note_on_c, 0, 59, 45
1, 882728, Note_on_c, 0, 59, 0
1, 882774, Note_on_c, 0, 62, 28
1, 882844, Note_on_c, 0, 62, 0
1, 882871, Note_on_c, 0, 77, 73
1, 882891, Note_on_c, 0, 67, 51
1, 882963, Control_c, 0, 64, 86
1, 882998, Note_on_c, 0, 67, 0
1, 883034, Note_on_c, 0, 55, 32
1, 883097, Note_on_c, 0, 55, 0
1, 883119, Note_on_c, 0, 59, 40
1, 883145, Control_c, 0, 64, 84
1, 883255, Note_on_c, 0, 62, 39
1, 883282, Note_on_c, 0, 59, 0
1, 883366, Note_on_c, 0, 62, 0
1, 883380, Note_on_c, 0, 67, 52
1, 883472, Note_on_c, 0, 67, 0
1, 883519, Note_on_c, 0, 55, 36
1, 883535, Control_c, 0, 64, 82
1, 883600, Note_on_c, 0, 74, 68
1, 883610, Note_on_c, 0, 59, 44
1, 883630, Note_on_c, 0, 55, 0
1, 883679, Control_c, 0, 64, 80
1, 883730, Note_on_c, 0, 59, 0
1, 883735, Note_on_c, 0, 67, 48
1, 883792, Note_on_c, 0, 67, 0
1, 883810, Control_c, 0, 64, 78
1, 883898, Note_on_c, 0, 76, 66
1, 883933, Control_c, 0, 64, 75
1, 883943, Note_on_c, 0, 77, 0
1, 884019, Note_on_c, 0, 74, 0
1, 884023, Note_on_c, 0, 55, 39
1, 884134, Note_on_c, 0, 60, 50
1, 884152, Note_on_c, 0, 55, 0
1, 884256, Note_on_c, 0, 67, 45
1, 884279, Note_on_c, 0, 60, 0
1, 884342, Note_on_c, 0, 67, 0
1, 884377, Note_on_c, 0, 72, 68
1, 884500, Note_on_c, 0, 55, 38
1, 884620, Note_on_c, 0, 76, 0
1, 884637, Note_on_c, 0, 64, 38
1, 884708, Note_on_c, 0, 55, 0
1, 884746, Note_on_c, 0, 67, 43
1, 884760, Note_on_c, 0, 64, 0
1, 884836, Note_on_c, 0, 67, 0
1, 884880, Note_on_c, 0, 71, 62
1, 884919, Note_on_c, 0, 72, 0
1, 884991, Note_on_c, 0, 55, 39
1, 885103, Note_on_c, 0, 55, 0
1, 885113, Note_on_c, 0, 62, 45
1, 885213, Note_on_c, 0, 62, 0
1, 885234, Note_on_c, 0, 67, 33
1, 885367, Note_on_c, 0, 67, 0
1, 885369, Note_on_c, 0, 74, 52
1, 885422, Note_on_c, 0, 74, 0
1, 885433, Note_on_c, 0, 71, 0
1, 885475, Note_on_c, 0, 55, 41
1, 885590, Note_on_c, 0, 59, 44
1, 885605, Note_on_c, 0, 55, 0
1, 885731, Control_c, 0, 64, 78
1, 885754, Note_on_c, 0, 43, 53
1, 885759, Note_on_c, 0, 67, 38
1, 885768, Control_c, 0, 64, 80
1, 885786, Control_c, 0, 64, 76
1, 885803, Control_c, 0, 64, 60
1, 885823, Control_c, 0, 64, 22
1, 885831, Note_on_c, 0, 59, 0
1, 885842, Control_c, 0, 64, 0
1, 885857, Note_on_c, 0, 31, 53
1, 885916, Control_c, 0, 64, 35
1, 885933, Control_c, 0, 64, 57
1, 885951, Control_c, 0, 64, 75
1, 885957, Note_on_c, 0, 67, 0
1, 885968, Note_on_c, 0, 31, 0
1, 885971, Control_c, 0, 64, 87
1, 885977, Note_on_c, 0, 43, 0
1, 885981, Note_on_c, 0, 55, 46
1, 885990, Control_c, 0, 64, 96
1, 886006, Control_c, 0, 64, 101
1, 886075, Note_on_c, 0, 55, 0
1, 886091, Note_on_c, 0, 59, 49
1, 886226, Note_on_c, 0, 62, 38
1, 886231, Note_on_c, 0, 59, 0
1, 886313, Note_on_c, 0, 62, 0
1, 886354, Note_on_c, 0, 67, 50
1, 886361, Note_on_c, 0, 77, 73
1, 886474, Note_on_c, 0, 77, 0
1, 886485, Note_on_c, 0, 55, 42
1, 886538, Note_on_c, 0, 67, 0
1, 886545, Note_on_c, 0, 55, 0
1, 886584, Note_on_c, 0, 59, 48
1, 886714, Note_on_c, 0, 59, 0
1, 886733, Note_on_c, 0, 62, 38
1, 886876, Note_on_c, 0, 77, 65
1, 886886, Note_on_c, 0, 67, 52
1, 886903, Note_on_c, 0, 62, 0
1, 886908, Control_c, 0, 64, 97
1, 887026, Note_on_c, 0, 67, 0
1, 887039, Note_on_c, 0, 55, 47
1, 887142, Note_on_c, 0, 59, 49
1, 887180, Note_on_c, 0, 55, 0
1, 887237, Control_c, 0, 64, 93
1, 887267, Note_on_c, 0, 62, 48
1, 887317, Note_on_c, 0, 59, 0
1, 887387, Note_on_c, 0, 62, 0
1, 887393, Note_on_c, 0, 67, 58
1, 887523, Note_on_c, 0, 55, 40
1, 887531, Note_on_c, 0, 67, 0
1, 887601, Note_on_c, 0, 74, 71
1, 887655, Note_on_c, 0, 55, 0
1, 887662, Note_on_c, 0, 59, 41
1, 887748, Note_on_c, 0, 67, 50
1, 887783, Note_on_c, 0, 59, 0
1, 887826, Note_on_c, 0, 67, 0
1, 887934, Note_on_c, 0, 77, 0
1, 887934, Control_c, 0, 64, 89
1, 887961, Note_on_c, 0, 75, 59
1, 887971, Control_c, 0, 64, 86
1, 888010, Control_c, 0, 64, 84
1, 888048, Note_on_c, 0, 74, 0
1, 888062, Control_c, 0, 64, 81
1, 888074, Note_on_c, 0, 55, 41
1, 888099, Control_c, 0, 64, 79
1, 888135, Control_c, 0, 64, 77
1, 888205, Note_on_c, 0, 60, 47
1, 888229, Control_c, 0, 64, 75
1, 888246, Note_on_c, 0, 55, 0
1, 888314, Note_on_c, 0, 67, 47
1, 888329, Note_on_c, 0, 60, 0
1, 888396, Note_on_c, 0, 67, 0
1, 888434, Note_on_c, 0, 72, 59
1, 888571, Note_on_c, 0, 55, 45
1, 888668, Control_c, 0, 64, 77
1, 888686, Note_on_c, 0, 72, 0
1, 888702, Note_on_c, 0, 63, 45
1, 888719, Note_on_c, 0, 75, 0
1, 888723, Note_on_c, 0, 55, 0
1, 888741, Control_c, 0, 64, 79
1, 888813, Control_c, 0, 64, 81
1, 888814, Note_on_c, 0, 67, 47
1, 888823, Note_on_c, 0, 63, 0
1, 888930, Note_on_c, 0, 71, 53
1, 889031, Note_on_c, 0, 67, 0
1, 889052, Control_c, 0, 64, 83
1, 889055, Note_on_c, 0, 55, 40
1, 889157, Note_on_c, 0, 62, 45
1, 889232, Note_on_c, 0, 55, 0
1, 889276, Note_on_c, 0, 62, 0
1, 889284, Note_on_c, 0, 67, 44
1, 889407, Note_on_c, 0, 74, 62
1, 889455, Note_on_c, 0, 67, 0
1, 889531, Note_on_c, 0, 55, 44
1, 889666, Note_on_c, 0, 59, 44
1, 889706, Note_on_c, 0, 55, 0
1, 889781, Note_on_c, 0, 67, 48
1, 889798, Note_on_c, 0, 59, 0
1, 889857, Note_on_c, 0, 67, 0
1, 889908, Note_on_c, 0, 76, 63
1, 889957, Note_on_c, 0, 74, 0
1, 890027, Note_on_c, 0, 71, 0
1, 890043, Note_on_c, 0, 55, 46
1, 890154, Note_on_c, 0, 60, 52
1, 890155, Note_on_c, 0, 76, 0
1, 890207, Note_on_c, 0, 55, 0
1, 890256, Note_on_c, 0, 67, 52
1, 890291, Note_on_c, 0, 60, 0
1, 890380, Note_on_c, 0, 67, 0
1, 890389, Note_on_c, 0, 72, 72
1, 890494, Note_on_c, 0, 55, 47
1, 890602, Note_on_c, 0, 72, 0
1, 890620, Note_on_c, 0, 64, 52
1, 890727, Note_on_c, 0, 55, 0
1, 890740, Note_on_c, 0, 67, 54
1, 890755, Note_on_c, 0, 64, 0
1, 890830, Note_on_c, 0, 67, 0
1, 890861, Note_on_c, 0, 71, 73
1, 890976, Note_on_c, 0, 55, 51
1, 891053, Control_c, 0, 64, 81
1, 891104, Note_on_c, 0, 62, 51
1, 891196, Note_on_c, 0, 55, 0
1, 891205, Note_on_c, 0, 67, 51
1, 891210, Note_on_c, 0, 62, 0
1, 891279, Note_on_c, 0, 67, 0
1, 891344, Control_c, 0, 64, 79
1, 891355, Note_on_c, 0, 74, 61
1, 891467, Note_on_c, 0, 55, 43
1, 891569, Note_on_c, 0, 71, 0
1, 891622, Note_on_c, 0, 55, 0
1, 891623, Note_on_c, 0, 59, 38
1, 891759, Note_on_c, 0, 67, 27
1, 891799, Note_on_c, 0, 59, 0
1, 891846, Note_on_c, 0, 67, 0
1, 891946, Note_on_c, 0, 75, 56
1, 891983, Note_on_c, 0, 74, 0
1, 892074, Note_on_c, 0, 55, 30
1, 892176, Note_on_c, 0, 75, 0
1, 892220, Note_on_c, 0, 60, 41
1, 892273, Note_on_c, 0, 55, 0
1, 892363, Note_on_c, 0, 67, 34
1, 892392, Control_c, 0, 64, 77
1, 892438, Note_on_c, 0, 60, 0
1, 892557, Note_on_c, 0, 72, 46
1, 892592, Note_on_c, 0, 67, 0
1, 892668, Note_on_c, 0, 55, 36
1, 892824, Note_on_c, 0, 60, 34
1, 892860, Note_on_c, 0, 55, 0
1, 892950, Note_on_c, 0, 63, 36
1, 893017, Note_on_c, 0, 63, 0
1, 893037, Note_on_c, 0, 60, 0
1, 893161, Note_on_c, 0, 79, 49
1, 893315, Note_on_c, 0, 55, 38
1, 893368, Note_on_c, 0, 72, 0
1, 893434, Note_on_c, 0, 59, 36
1, 893450, Note_on_c, 0, 79, 0
1, 893455, Note_on_c, 0, 55, 0
1, 893557, Note_on_c, 0, 62, 39
1, 893600, Note_on_c, 0, 59, 0
1, 893670, Note_on_c, 0, 62, 0
1, 893699, Note_on_c, 0, 79, 51
1, 893812, Note_on_c, 0, 55, 35
1, 893875, Note_on_c, 0, 79, 0
1, 893917, Note_on_c, 0, 60, 48
1, 894022, Note_on_c, 0, 60, 0
1, 894029, Note_on_c, 0, 63, 48
1, 894044, Note_on_c, 0, 55, 0
1, 894160, Note_on_c, 0, 79, 57
1, 894177, Note_on_c, 0, 63, 0
1, 894272, Note_on_c, 0, 55, 45
1, 894374, Note_on_c, 0, 79, 0
1, 894389, Note_on_c, 0, 59, 43
1, 894489, Note_on_c, 0, 55, 0
1, 894529, Note_on_c, 0, 62, 45
1, 894556, Note_on_c, 0, 59, 0
1, 894637, Note_on_c, 0, 79, 59
1, 894650, Note_on_c, 0, 62, 0
1, 894741, Note_on_c, 0, 55, 49
1, 894820, Note_on_c, 0, 79, 0
1, 894871, Note_on_c, 0, 60, 54
1, 894971, Note_on_c, 0, 63, 60
1, 894986, Note_on_c, 0, 55, 0
1, 894989, Note_on_c, 0, 60, 0
1, 895070, Note_on_c, 0, 63, 0
1, 895109, Note_on_c, 0, 79, 73
1, 895242, Note_on_c, 0, 55, 47
1, 895301, Poly_aftertouch_c, 0, 75, 0
1, 895355, Note_on_c, 0, 79, 0
1, 895363, Note_on_c, 0, 59, 52
1, 895425, Note_on_c, 0, 55, 0
1, 895440, Note_on_c, 0, 59, 0
1, 895456, Note_on_c, 0, 62, 54
1, 895590, Note_on_c, 0, 62, 0
1, 895601, Note_on_c, 0, 79, 57
1, 895695, Note_on_c, 0, 55, 45
1, 895697, Control_c, 0, 64, 75
1, 895768, Note_on_c, 0, 55, 0
1, 895789, Note_on_c, 0, 79, 0
1, 895833, Note_on_c, 0, 57, 44
1, 895963, Note_on_c, 0, 60, 41
1, 895973, Note_on_c, 0, 57, 0
1, 896048, Note_on_c, 0, 60, 0
1, 896126, Note_on_c, 0, 79, 44
1, 896254, Note_on_c, 0, 55, 29
1, 896307, Note_on_c, 0, 55, 0
1, 896352, Note_on_c, 0, 79, 0
1, 896353, Note_on_c, 0, 59, 54
1, 896390, Control_c, 0, 64, 73
1, 896396, Poly_aftertouch_c, 0, 75, 0
1, 896432, Note_on_c, 0, 59, 0
1, 896461, Note_on_c, 0, 62, 62
1, 896463, Control_c, 0, 64, 71
1, 896502, Control_c, 0, 64, 69
1, 896520, Control_c, 0, 64, 68
1, 896537, Control_c, 0, 64, 67
1, 896555, Control_c, 0, 64, 65
1, 896574, Note_on_c, 0, 62, 0
1, 896574, Control_c, 0, 64, 64
1, 896576, Note_on_c, 0, 67, 60
1, 896594, Control_c, 0, 64, 63
1, 896612, Control_c, 0, 64, 62
1, 896631, Control_c, 0, 64, 60
1, 896659, Note_on_c, 0, 67, 0
1, 896667, Control_c, 0, 64, 58
1, 896672, Note_on_c, 0, 71, 63
1, 896704, Control_c, 0, 64, 56
1, 896741, Control_c, 0, 64, 53
1, 896777, Control_c, 0, 64, 51
1, 896785, Note_on_c, 0, 71, 0
1, 896796, Note_on_c, 0, 69, 58
1, 896871, Control_c, 0, 64, 49
1, 896877, Note_on_c, 0, 69, 0
1, 896933, Note_on_c, 0, 66, 44
1, 897029, Note_on_c, 0, 66, 0
1, 897078, Note_on_c, 0, 67, 43
1, 897195, Note_on_c, 0, 59, 40
1, 897209, Note_on_c, 0, 67, 0
1, 897295, Note_on_c, 0, 59, 0
1, 897303, Note_on_c, 0, 62, 49
1, 897429, Note_on_c, 0, 67, 51
1, 897463, Note_on_c, 0, 62, 0
1, 897534, Note_on_c, 0, 71, 59
1, 897537, Note_on_c, 0, 67, 0
1, 897620, Note_on_c, 0, 71, 0
1, 897643, Note_on_c, 0, 74, 62
1, 897747, Note_on_c, 0, 74, 0
1, 897760, Note_on_c, 0, 72, 57
1, 897833, Note_on_c, 0, 72, 0
1, 897891, Note_on_c, 0, 69, 50
1, 897993, Note_on_c, 0, 69, 0
1, 898020, Note_on_c, 0, 71, 47
1, 898110, Note_on_c, 0, 71, 0
1, 898132, Note_on_c, 0, 67, 42
1, 898207, Note_on_c, 0, 67, 0
1, 898256, Note_on_c, 0, 71, 46
1, 898356, Note_on_c, 0, 74, 54
1, 898392, Note_on_c, 0, 71, 0
1, 898424, Note_on_c, 0, 74, 0
1, 898475, Note_on_c, 0, 79, 56
1, 898560, Note_on_c, 0, 79, 0
1, 898581, Note_on_c, 0, 83, 65
1, 898691, Note_on_c, 0, 83, 0
1, 898697, Note_on_c, 0, 81, 55
1, 898809, Note_on_c, 0, 81, 0
1, 898816, Note_on_c, 0, 78, 53
1, 898897, Note_on_c, 0, 78, 0
1, 898937, Note_on_c, 0, 79, 54
1, 899061, Note_on_c, 0, 83, 46
1, 899081, Note_on_c, 0, 79, 0
1, 899169, Note_on_c, 0, 83, 0
1, 899184, Note_on_c, 0, 81, 59
1, 899297, Note_on_c, 0, 84, 58
1, 899305, Note_on_c, 0, 81, 0
1, 899361, Note_on_c, 0, 84, 0
1, 899404, Note_on_c, 0, 83, 68
1, 899521, Note_on_c, 0, 86, 69
1, 899546, Note_on_c, 0, 83, 0
1, 899625, Note_on_c, 0, 85, 77
1, 899629, Note_on_c, 0, 86, 0
1, 899761, Note_on_c, 0, 88, 72
1, 899798, Note_on_c, 0, 85, 0
1, 899861, Note_on_c, 0, 88, 0
1, 899873, Note_on_c, 0, 86, 73
1, 899994, Note_on_c, 0, 89, 78
1, 900016, Note_on_c, 0, 86, 0
1, 900097, Note_on_c, 0, 88, 82
1, 900105, Note_on_c, 0, 89, 0
1, 900200, Note_on_c, 0, 91, 82
1, 900228, Note_on_c, 0, 88, 0
1, 900316, Note_on_c, 0, 89, 82
1, 900358, Note_on_c, 0, 91, 0
1, 900425, Note_on_c, 0, 93, 78
1, 900432, Note_on_c, 0, 89, 0
1, 900539, Control_c, 0, 64, 53
1, 900562, Note_on_c, 0, 89, 64
1, 900576, Control_c, 0, 64, 56
1, 900612, Control_c, 0, 64, 58
1, 900631, Control_c, 0, 64, 60
1, 900648, Control_c, 0, 64, 61
1, 900681, Note_on_c, 0, 89, 0
1, 900689, Note_on_c, 0, 93, 0
1, 900691, Note_on_c, 0, 88, 59
1, 900701, Control_c, 0, 64, 62
1, 900763, Note_on_c, 0, 88, 0
1, 900793, Note_on_c, 0, 86, 56
1, 900847, Control_c, 0, 64, 61
1, 900904, Note_on_c, 0, 89, 66
1, 900910, Note_on_c, 0, 86, 0
1, 900922, Control_c, 0, 64, 60
1, 901010, Note_on_c, 0, 89, 0
1, 901011, Note_on_c, 0, 88, 72
1, 901032, Control_c, 0, 64, 58
1, 901123, Note_on_c, 0, 91, 79
1, 901135, Note_on_c, 0, 88, 0
1, 901245, Note_on_c, 0, 89, 82
1, 901285, Note_on_c, 0, 91, 0
1, 901346, Note_on_c, 0, 93, 83
1, 901356, Note_on_c, 0, 89, 0
1, 901465, Note_on_c, 0, 89, 81
1, 901486, Note_on_c, 0, 93, 0
1, 901585, Note_on_c, 0, 88, 75
1, 901589, Note_on_c, 0, 89, 0
1, 901655, Control_c, 0, 64, 60
1, 901675, Control_c, 0, 64, 62
1, 901691, Control_c, 0, 64, 63
1, 901705, Note_on_c, 0, 86, 72
1, 901708, Note_on_c, 0, 88, 0
1, 901708, Control_c, 0, 64, 64
1, 901747, Control_c, 0, 64, 65
1, 901817, Note_on_c, 0, 89, 74
1, 901820, Note_on_c, 0, 86, 0
1, 901931, Note_on_c, 0, 88, 73
1, 901971, Note_on_c, 0, 89, 0
1, 902006, Note_on_c, 0, 88, 0
1, 902035, Note_on_c, 0, 84, 61
1, 902039, Control_c, 0, 64, 66
1, 902146, Note_on_c, 0, 84, 0
1, 902157, Note_on_c, 0, 83, 61
1, 902263, Control_c, 0, 64, 67
1, 902270, Note_on_c, 0, 83, 0
1, 902284, Note_on_c, 0, 86, 58
1, 902397, Note_on_c, 0, 84, 56
1, 902408, Note_on_c, 0, 86, 0
1, 902454, Note_on_c, 0, 84, 0
1, 902508, Note_on_c, 0, 81, 50
1, 902519, Control_c, 0, 64, 69
1, 902621, Note_on_c, 0, 81, 0
1, 902625, Control_c, 0, 64, 71
1, 902636, Note_on_c, 0, 79, 53
1, 902737, Note_on_c, 0, 79, 0
1, 902758, Note_on_c, 0, 83, 48
1, 902775, Control_c, 0, 64, 73
1, 902870, Note_on_c, 0, 83, 0
1, 902874, Note_on_c, 0, 81, 50
1, 902903, Control_c, 0, 64, 75
1, 902929, Note_on_c, 0, 81, 0
1, 902957, Control_c, 0, 64, 78
1, 902994, Control_c, 0, 64, 81
1, 902998, Note_on_c, 0, 77, 36
1, 903033, Control_c, 0, 64, 83
1, 903070, Control_c, 0, 64, 85
1, 903082, Note_on_c, 0, 77, 0
1, 903105, Control_c, 0, 64, 87
1, 903109, Note_on_c, 0, 76, 48
1, 903189, Note_on_c, 0, 76, 0
1, 903232, Note_on_c, 0, 79, 45
1, 903235, Control_c, 0, 64, 91
1, 903359, Note_on_c, 0, 77, 48
1, 903375, Note_on_c, 0, 79, 0
1, 903420, Note_on_c, 0, 77, 0
1, 903437, Control_c, 0, 64, 95
1, 903489, Note_on_c, 0, 74, 39
1, 903526, Control_c, 0, 64, 99
1, 903691, Note_on_c, 0, 36, 37
1, 903707, Note_on_c, 0, 72, 41
1, 903710, Control_c, 0, 64, 94
1, 903728, Control_c, 0, 64, 83
1, 903734, Note_on_c, 0, 74, 0
1, 903747, Control_c, 0, 64, 69
1, 903765, Control_c, 0, 64, 59
1, 903820, Control_c, 0, 64, 64
1, 903838, Control_c, 0, 64, 70
1, 903858, Control_c, 0, 64, 77
1, 903874, Control_c, 0, 64, 86
1, 903893, Control_c, 0, 64, 94
1, 903910, Control_c, 0, 64, 99
1, 903918, Note_on_c, 0, 72, 0
1, 903922, Note_on_c, 0, 43, 32
1, 903950, Control_c, 0, 64, 104
1, 903953, Note_on_c, 0, 36, 0
1, 903999, Note_on_c, 0, 43, 0
1, 904105, Note_on_c, 0, 48, 43
1, 904221, Note_on_c, 0, 48, 0
1, 904253, Note_on_c, 0, 52, 47
1, 904428, Note_on_c, 0, 52, 0
1, 904429, Note_on_c, 0, 91, 56
1, 904451, Note_on_c, 0, 55, 40
1, 904462, Note_on_c, 0, 79, 46
1, 904507, Note_on_c, 0, 79, 0
1, 904534, Note_on_c, 0, 55, 0
1, 904580, Note_on_c, 0, 91, 0
1, 904604, Note_on_c, 0, 48, 45
1, 904681, Note_on_c, 0, 48, 0
1, 904725, Note_on_c, 0, 52, 39
1, 904795, Note_on_c, 0, 52, 0
1, 904814, Note_on_c, 0, 55, 49
1, 904868, Note_on_c, 0, 55, 0
1, 904948, Note_on_c, 0, 91, 81
1, 904957, Note_on_c, 0, 60, 52
1, 904979, Note_on_c, 0, 79, 53
1, 905083, Note_on_c, 0, 60, 0
1, 905092, Note_on_c, 0, 52, 48
1, 905202, Note_on_c, 0, 55, 50
1, 905238, Note_on_c, 0, 52, 0
1, 905246, Note_on_c, 0, 79, 0
1, 905300, Note_on_c, 0, 55, 0
1, 905330, Note_on_c, 0, 60, 48
1, 905337, Note_on_c, 0, 91, 0
1, 905399, Note_on_c, 0, 60, 0
1, 905454, Note_on_c, 0, 64, 52
1, 905596, Note_on_c, 0, 55, 47
1, 905619, Note_on_c, 0, 64, 0
1, 905698, Note_on_c, 0, 60, 50
1, 905705, Note_on_c, 0, 88, 74
1, 905746, Note_on_c, 0, 76, 39
1, 905784, Note_on_c, 0, 76, 0
1, 905803, Note_on_c, 0, 60, 0
1, 905870, Note_on_c, 0, 64, 44
1, 905894, Control_c, 0, 64, 100
1, 905917, Note_on_c, 0, 64, 0
1, 905931, Control_c, 0, 64, 96
1, 905936, Note_on_c, 0, 55, 0
1, 905959, Note_on_c, 0, 88, 0
1, 905964, Note_on_c, 0, 65, 50
1, 905971, Note_on_c, 0, 86, 72
1, 906002, Control_c, 0, 64, 92
1, 906010, Note_on_c, 0, 74, 37
1, 906050, Note_on_c, 0, 65, 0
1, 906073, Note_on_c, 0, 86, 0
1, 906087, Note_on_c, 0, 64, 42
1, 906123, Note_on_c, 0, 74, 0
1, 906170, Control_c, 0, 64, 88
1, 906183, Note_on_c, 0, 64, 0
1, 906195, Note_on_c, 0, 62, 54
1, 906237, Note_on_c, 0, 62, 0
1, 906295, Control_c, 0, 64, 86
1, 906335, Note_on_c, 0, 60, 44
1, 906419, Note_on_c, 0, 60, 0
1, 906424, Control_c, 0, 64, 84
1, 906467, Note_on_c, 0, 79, 64
1, 906471, Note_on_c, 0, 59, 48
1, 906489, Note_on_c, 0, 67, 44
1, 906536, Control_c, 0, 64, 82
1, 906546, Note_on_c, 0, 67, 0
1, 906565, Note_on_c, 0, 59, 0
1, 906584, Note_on_c, 0, 57, 54
1, 906626, Note_on_c, 0, 57, 0
1, 906694, Note_on_c, 0, 55, 51
1, 906775, Control_c, 0, 64, 80
1, 906789, Note_on_c, 0, 55, 0
1, 906823, Note_on_c, 0, 53, 44
1, 906930, Note_on_c, 0, 84, 70
1, 906934, Note_on_c, 0, 53, 0
1, 906945, Note_on_c, 0, 52, 51
1, 906956, Note_on_c, 0, 79, 0
1, 906958, Control_c, 0, 64, 78
1, 906966, Note_on_c, 0, 72, 41
1, 906998, Note_on_c, 0, 52, 0
1, 907014, Control_c, 0, 64, 75
1, 907049, Note_on_c, 0, 55, 59
1, 907091, Note_on_c, 0, 72, 0
1, 907125, Control_c, 0, 64, 73
1, 907146, Note_on_c, 0, 55, 0
1, 907170, Note_on_c, 0, 48, 53
1, 907250, Control_c, 0, 64, 71
1, 907263, Note_on_c, 0, 48, 0
1, 907315, Note_on_c, 0, 52, 45
1, 907417, Note_on_c, 0, 52, 0
1, 907433, Note_on_c, 0, 43, 56
1, 907434, Note_on_c, 0, 88, 65
1, 907447, Note_on_c, 0, 84, 0
1, 907464, Note_on_c, 0, 76, 41
1, 907520, Note_on_c, 0, 43, 0
1, 907578, Note_on_c, 0, 48, 47
1, 907682, Note_on_c, 0, 48, 0
1, 907697, Note_on_c, 0, 40, 48
1, 907800, Note_on_c, 0, 40, 0
1, 907820, Note_on_c, 0, 43, 50
1, 907921, Note_on_c, 0, 43, 0
1, 907948, Note_on_c, 0, 36, 60
1, 907968, Control_c, 0, 64, 74
1, 908002, Note_on_c, 0, 76, 0
1, 908004, Control_c, 0, 64, 77
1, 908041, Control_c, 0, 64, 79
1, 908076, Control_c, 0, 64, 81
1, 908079, Note_on_c, 0, 43, 52
1, 908090, Note_on_c, 0, 36, 0
1, 908130, Note_on_c, 0, 43, 0
1, 908132, Control_c, 0, 64, 83
1, 908205, Note_on_c, 0, 48, 51
1, 908224, Control_c, 0, 64, 85
1, 908246, Note_on_c, 0, 88, 0
1, 908314, Note_on_c, 0, 48, 0
1, 908339, Note_on_c, 0, 52, 48
1, 908428, Note_on_c, 0, 52, 0
1, 908455, Note_on_c, 0, 91, 71
1, 908466, Note_on_c, 0, 55, 54
1, 908479, Note_on_c, 0, 79, 44
1, 908531, Poly_aftertouch_c, 0, 88, 0
1, 908548, Note_on_c, 0, 79, 0
1, 908565, Note_on_c, 0, 55, 0
1, 908598, Note_on_c, 0, 48, 48
1, 908606, Note_on_c, 0, 91, 0
1, 908670, Note_on_c, 0, 48, 0
1, 908695, Note_on_c, 0, 52, 50
1, 908784, Note_on_c, 0, 52, 0
1, 908810, Note_on_c, 0, 55, 48
1, 908855, Note_on_c, 0, 55, 0
1, 908939, Note_on_c, 0, 91, 82
1, 908941, Note_on_c, 0, 60, 54
1, 908968, Note_on_c, 0, 79, 54
1, 909056, Note_on_c, 0, 60, 0
1, 909066, Note_on_c, 0, 52, 48
1, 909186, Note_on_c, 0, 52, 0
1, 909202, Note_on_c, 0, 55, 51
1, 909237, Note_on_c, 0, 91, 0
1, 909304, Note_on_c, 0, 79, 0
1, 909307, Note_on_c, 0, 55, 0
1, 909324, Note_on_c, 0, 60, 50
1, 909384, Note_on_c, 0, 60, 0
1, 909430, Note_on_c, 0, 64, 53
1, 909562, Control_c, 0, 64, 83
1, 909565, Note_on_c, 0, 64, 0
1, 909565, Note_on_c, 0, 55, 51
1, 909660, Note_on_c, 0, 88, 73
1, 909664, Note_on_c, 0, 60, 48
1, 909704, Note_on_c, 0, 76, 33
1, 909745, Note_on_c, 0, 76, 0
1, 909771, Note_on_c, 0, 60, 0
1, 909815, Note_on_c, 0, 64, 51
1, 909857, Note_on_c, 0, 88, 0
1, 909875, Note_on_c, 0, 64, 0
1, 909922, Note_on_c, 0, 86, 70
1, 909923, Note_on_c, 0, 65, 53
1, 909948, Note_on_c, 0, 74, 48
1, 910013, Note_on_c, 0, 65, 0
1, 910037, Note_on_c, 0, 86, 0
1, 910048, Note_on_c, 0, 55, 0
1, 910048, Note_on_c, 0, 64, 50
1, 910056, Control_c, 0, 64, 81
1, 910057, Note_on_c, 0, 74, 0
1, 910145, Note_on_c, 0, 64, 0
1, 910160, Note_on_c, 0, 62, 56
1, 910202, Note_on_c, 0, 62, 0
1, 910273, Note_on_c, 0, 60, 54
1, 910366, Note_on_c, 0, 60, 0
1, 910399, Note_on_c, 0, 59, 50
1, 910414, Note_on_c, 0, 79, 61
1, 910435, Note_on_c, 0, 67, 44
1, 910487, Note_on_c, 0, 59, 0
1, 910489, Note_on_c, 0, 67, 0
1, 910516, Note_on_c, 0, 55, 52
1, 910632, Note_on_c, 0, 55, 0
1, 910641, Note_on_c, 0, 57, 52
1, 910745, Note_on_c, 0, 57, 0
1, 910778, Note_on_c, 0, 59, 46
1, 910796, Control_c, 0, 64, 79
1, 910849, Control_c, 0, 64, 77
1, 910859, Note_on_c, 0, 59, 0
1, 910887, Note_on_c, 0, 84, 57
1, 910898, Note_on_c, 0, 79, 0
1, 910910, Note_on_c, 0, 60, 45
1, 910920, Control_c, 0, 64, 75
1, 910928, Note_on_c, 0, 72, 41
1, 910993, Control_c, 0, 64, 73
1, 911025, Note_on_c, 0, 60, 0
1, 911030, Control_c, 0, 64, 70
1, 911040, Note_on_c, 0, 59, 48
1, 911121, Control_c, 0, 64, 68
1, 911138, Note_on_c, 0, 59, 0
1, 911143, Note_on_c, 0, 57, 57
1, 911157, Control_c, 0, 64, 67
1, 911197, Note_on_c, 0, 57, 0
1, 911232, Control_c, 0, 64, 66
1, 911263, Note_on_c, 0, 55, 54
1, 911269, Control_c, 0, 64, 65
1, 911343, Control_c, 0, 64, 64
1, 911369, Note_on_c, 0, 55, 0
1, 911378, Control_c, 0, 64, 63
1, 911381, Note_on_c, 0, 53, 55
1, 911435, Control_c, 0, 64, 62
1, 911483, Note_on_c, 0, 53, 0
1, 911490, Control_c, 0, 64, 61
1, 911492, Note_on_c, 0, 52, 57
1, 911541, Note_on_c, 0, 52, 0
1, 911543, Control_c, 0, 64, 60
1, 911600, Note_on_c, 0, 50, 54
1, 911652, Poly_aftertouch_c, 0, 72, 24
1, 911697, Note_on_c, 0, 72, 0
1, 911697, Poly_aftertouch_c, 0, 72, 0
1, 911698, Poly_aftertouch_c, 0, 72, 0
1, 911708, Note_on_c, 0, 50, 0
1, 911729, Note_on_c, 0, 48, 46
1, 911747, Control_c, 0, 64, 58
1, 911765, Control_c, 0, 64, 54
1, 911784, Control_c, 0, 64, 40
1, 911802, Control_c, 0, 64, 0
1, 911832, Note_on_c, 0, 48, 0
1, 911843, Note_on_c, 0, 84, 0
1, 911870, Note_on_c, 0, 43, 52
1, 911966, Control_c, 0, 64, 23
1, 911982, Control_c, 0, 64, 39
1, 912001, Control_c, 0, 64, 53
1, 912019, Control_c, 0, 64, 67
1, 912029, Note_on_c, 0, 47, 49
1, 912039, Control_c, 0, 64, 74
1, 912057, Control_c, 0, 64, 78
1, 912062, Note_on_c, 0, 43, 0
1, 912073, Control_c, 0, 64, 81
1, 912093, Control_c, 0, 64, 83
1, 912111, Control_c, 0, 64, 85
1, 912128, Note_on_c, 0, 47, 0
1, 912130, Control_c, 0, 64, 88
1, 912150, Note_on_c, 0, 50, 47
1, 912186, Control_c, 0, 64, 92
1, 912192, Note_on_c, 0, 50, 0
1, 912270, Note_on_c, 0, 55, 38
1, 912342, Note_on_c, 0, 89, 73
1, 912367, Note_on_c, 0, 77, 54
1, 912398, Note_on_c, 0, 55, 0
1, 912404, Note_on_c, 0, 47, 48
1, 912419, Note_on_c, 0, 77, 0
1, 912493, Note_on_c, 0, 47, 0
1, 912495, Note_on_c, 0, 89, 0
1, 912515, Note_on_c, 0, 50, 46
1, 912604, Note_on_c, 0, 50, 0
1, 912610, Note_on_c, 0, 55, 56
1, 912662, Note_on_c, 0, 55, 0
1, 912717, Note_on_c, 0, 59, 50
1, 912847, Note_on_c, 0, 89, 85
1, 912869, Note_on_c, 0, 50, 49
1, 912870, Note_on_c, 0, 59, 0
1, 912881, Note_on_c, 0, 77, 55
1, 912918, Control_c, 0, 67, 119
1, 912936, Control_c, 0, 67, 110
1, 912955, Control_c, 0, 67, 98
1, 912974, Control_c, 0, 67, 83
1, 912980, Note_on_c, 0, 50, 0
1, 912992, Control_c, 0, 67, 66
1, 912994, Note_on_c, 0, 55, 45
1, 913010, Control_c, 0, 67, 47
1, 913029, Control_c, 0, 67, 30
1, 913048, Control_c, 0, 67, 13
1, 913079, Note_on_c, 0, 55, 0
1, 913105, Control_c, 0, 67, 0
1, 913116, Note_on_c, 0, 59, 45
1, 913148, Note_on_c, 0, 59, 0
1, 913186, Note_on_c, 0, 89, 0
1, 913202, Poly_aftertouch_c, 0, 77, 24
1, 913205, Note_on_c, 0, 62, 51
1, 913236, Note_on_c, 0, 77, 0
1, 913236, Poly_aftertouch_c, 0, 77, 0
1, 913327, Note_on_c, 0, 62, 0
1, 913345, Note_on_c, 0, 55, 48
1, 913436, Note_on_c, 0, 55, 0
1, 913460, Note_on_c, 0, 59, 42
1, 913542, Note_on_c, 0, 59, 0
1, 913558, Note_on_c, 0, 86, 72
1, 913581, Note_on_c, 0, 62, 42
1, 913586, Note_on_c, 0, 74, 46
1, 913658, Note_on_c, 0, 62, 0
1, 913684, Note_on_c, 0, 67, 43
1, 913716, Note_on_c, 0, 74, 0
1, 913780, Note_on_c, 0, 67, 0
1, 913780, Control_c, 0, 67, 8
1, 913894, Note_on_c, 0, 55, 34
1, 913910, Control_c, 0, 67, 12
1, 913940, Note_on_c, 0, 88, 61
1, 913944, Control_c, 0, 64, 84
1, 913949, Note_on_c, 0, 86, 0
1, 913963, Control_c, 0, 64, 67
1, 913967, Control_c, 0, 67, 17
1, 913973, Note_on_c, 0, 76, 32
1, 913982, Control_c, 0, 64, 47
1, 914002, Control_c, 0, 64, 40
1, 914003, Control_c, 0, 67, 22
1, 914038, Control_c, 0, 67, 30
1, 914057, Control_c, 0, 64, 45
1, 914058, Control_c, 0, 67, 36
1, 914072, Note_on_c, 0, 55, 0
1, 914075, Note_on_c, 0, 60, 45
1, 914076, Control_c, 0, 64, 57
1, 914078, Control_c, 0, 67, 43
1, 914093, Control_c, 0, 64, 68
1, 914095, Control_c, 0, 67, 50
1, 914112, Control_c, 0, 64, 74
1, 914113, Control_c, 0, 67, 58
1, 914129, Note_on_c, 0, 88, 0
1, 914131, Control_c, 0, 64, 80
1, 914132, Control_c, 0, 67, 65
1, 914145, Note_on_c, 0, 60, 0
1, 914149, Control_c, 0, 64, 84
1, 914151, Control_c, 0, 67, 72
1, 914166, Control_c, 0, 64, 87
1, 914167, Control_c, 0, 67, 80
1, 914174, Note_on_c, 0, 76, 0
1, 914185, Control_c, 0, 67, 89
1, 914202, Note_on_c, 0, 67, 38
1, 914203, Control_c, 0, 67, 97
1, 914223, Control_c, 0, 64, 91
1, 914224, Control_c, 0, 67, 104
1, 914241, Control_c, 0, 67, 112
1, 914259, Control_c, 0, 67, 119
1, 914278, Control_c, 0, 67, 124
1, 914290, Note_on_c, 0, 67, 0
1, 914326, Note_on_c, 0, 60, 35
1, 914369, Control_c, 0, 64, 95
1, 914410, Note_on_c, 0, 60, 0
1, 914426, Note_on_c, 0, 55, 41
1, 914441, Note_on_c, 0, 84, 56
1, 914461, Control_c, 0, 64, 85
1, 914467, Note_on_c, 0, 72, 40
1, 914481, Control_c, 0, 64, 73
1, 914498, Control_c, 0, 64, 65
1, 914537, Control_c, 0, 64, 66
1, 914554, Control_c, 0, 64, 71
1, 914557, Note_on_c, 0, 55, 0
1, 914561, Note_on_c, 0, 64, 38
1, 914572, Control_c, 0, 64, 77
1, 914591, Control_c, 0, 64, 86
1, 914610, Control_c, 0, 64, 93
1, 914614, Note_on_c, 0, 64, 0
1, 914645, Control_c, 0, 64, 98
1, 914661, Note_on_c, 0, 72, 0
1, 914680, Note_on_c, 0, 67, 42
1, 914723, Note_on_c, 0, 84, 0
1, 914786, Note_on_c, 0, 64, 36
1, 914798, Note_on_c, 0, 67, 0
1, 914846, Control_c, 0, 64, 102
1, 914851, Note_on_c, 0, 64, 0
1, 914938, Note_on_c, 0, 83, 54
1, 914946, Note_on_c, 0, 55, 40
1, 914955, Control_c, 0, 64, 91
1, 914970, Note_on_c, 0, 71, 40
1, 914974, Control_c, 0, 64, 75
1, 914993, Control_c, 0, 64, 60
1, 915011, Control_c, 0, 64, 58
1, 915048, Control_c, 0, 64, 66
1, 915049, Note_on_c, 0, 55, 0
1, 915064, Note_on_c, 0, 62, 45
1, 915066, Control_c, 0, 64, 74
1, 915084, Control_c, 0, 64, 83
1, 915096, Note_on_c, 0, 71, 0
1, 915101, Control_c, 0, 64, 92
1, 915117, Note_on_c, 0, 62, 0
1, 915119, Control_c, 0, 64, 98
1, 915176, Control_c, 0, 64, 102
1, 915184, Note_on_c, 0, 67, 37
1, 915268, Note_on_c, 0, 67, 0
1, 915287, Note_on_c, 0, 62, 39
1, 915353, Note_on_c, 0, 62, 0
1, 915403, Note_on_c, 0, 55, 44
1, 915416, Note_on_c, 0, 86, 54
1, 915453, Control_c, 0, 64, 92
1, 915473, Control_c, 0, 64, 78
1, 915475, Note_on_c, 0, 74, 25
1, 915476, Note_on_c, 0, 83, 0
1, 915489, Control_c, 0, 64, 66
1, 915509, Control_c, 0, 64, 63
1, 915522, Note_on_c, 0, 59, 42
1, 915526, Control_c, 0, 64, 64
1, 915545, Control_c, 0, 64, 69
1, 915562, Control_c, 0, 64, 76
1, 915581, Control_c, 0, 64, 85
1, 915599, Control_c, 0, 64, 93
1, 915601, Note_on_c, 0, 59, 0
1, 915619, Control_c, 0, 64, 98
1, 915667, Note_on_c, 0, 67, 42
1, 915689, Control_c, 0, 64, 102
1, 915725, Note_on_c, 0, 67, 0
1, 915778, Note_on_c, 0, 59, 39
1, 915780, Poly_aftertouch_c, 0, 55, 24
1, 915799, Control_c, 0, 64, 106
1, 915819, Note_on_c, 0, 59, 0
1, 915827, Note_on_c, 0, 55, 0
1, 915827, Poly_aftertouch_c, 0, 55, 0
1, 915827, Poly_aftertouch_c, 0, 55, 0
1, 915855, Control_c, 0, 64, 111
1, 915892, Control_c, 0, 64, 116
1, 915947, Control_c, 0, 64, 121
1, 915982, Control_c, 0, 64, 115
1, 916002, Control_c, 0, 64, 100
1, 916014, Note_on_c, 0, 43, 58
1, 916020, Control_c, 0, 64, 79
1, 916038, Control_c, 0, 64, 62
1, 916051, Poly_aftertouch_c, 0, 74, 24
1, 916054, Control_c, 0, 64, 59
1, 916085, Note_on_c, 0, 74, 0
1, 916085, Poly_aftertouch_c, 0, 74, 0
1, 916093, Control_c, 0, 64, 66
1, 916111, Control_c, 0, 64, 75
1, 916131, Control_c, 0, 64, 86
1, 916144, Note_on_c, 0, 47, 51
1, 916149, Control_c, 0, 64, 98
1, 916152, Note_on_c, 0, 43, 0
1, 916163, Note_on_c, 0, 86, 0
1, 916168, Control_c, 0, 64, 107
1, 916186, Control_c, 0, 64, 112
1, 916241, Control_c, 0, 67, 111
1, 916248, Note_on_c, 0, 47, 0
1, 916259, Control_c, 0, 64, 116
1, 916259, Control_c, 0, 67, 99
1, 916260, Note_on_c, 0, 50, 51
1, 916278, Control_c, 0, 67, 85
1, 916296, Control_c, 0, 67, 69
1, 916300, Note_on_c, 0, 50, 0
1, 916316, Control_c, 0, 67, 54
1, 916334, Control_c, 0, 67, 39
1, 916353, Control_c, 0, 67, 26
1, 916371, Control_c, 0, 67, 15
1, 916374, Note_on_c, 0, 55, 37
1, 916475, Note_on_c, 0, 55, 0
1, 916481, Control_c, 0, 67, 0
1, 916501, Note_on_c, 0, 89, 76
1, 916521, Note_on_c, 0, 47, 44
1, 916524, Note_on_c, 0, 77, 54
1, 916564, Note_on_c, 0, 77, 0
1, 916625, Note_on_c, 0, 47, 0
1, 916647, Note_on_c, 0, 50, 49
1, 916668, Note_on_c, 0, 89, 0
1, 916719, Note_on_c, 0, 50, 0
1, 916751, Note_on_c, 0, 55, 55
1, 916799, Note_on_c, 0, 55, 0
1, 916866, Note_on_c, 0, 59, 47
1, 916943, Note_on_c, 0, 59, 0
1, 917008, Note_on_c, 0, 89, 85
1, 917012, Note_on_c, 0, 50, 46
1, 917047, Note_on_c, 0, 77, 52
1, 917114, Note_on_c, 0, 50, 0
1, 917132, Note_on_c, 0, 55, 48
1, 917207, Note_on_c, 0, 55, 0
1, 917229, Note_on_c, 0, 59, 53
1, 917261, Note_on_c, 0, 77, 0
1, 917269, Note_on_c, 0, 59, 0
1, 917364, Note_on_c, 0, 62, 39
1, 917401, Note_on_c, 0, 89, 0
1, 917463, Note_on_c, 0, 62, 0
1, 917482, Note_on_c, 0, 55, 50
1, 917603, Note_on_c, 0, 55, 0
1, 917631, Note_on_c, 0, 59, 42
1, 917688, Control_c, 0, 64, 112
1, 917706, Note_on_c, 0, 86, 76
1, 917716, Note_on_c, 0, 59, 0
1, 917735, Note_on_c, 0, 62, 48
1, 917758, Note_on_c, 0, 74, 20
1, 917763, Control_c, 0, 67, 9
1, 917796, Note_on_c, 0, 62, 0
1, 917813, Note_on_c, 0, 74, 0
1, 917830, Note_on_c, 0, 67, 37
1, 917836, Control_c, 0, 67, 14
1, 917855, Control_c, 0, 67, 18
1, 917874, Control_c, 0, 67, 25
1, 917892, Control_c, 0, 67, 32
1, 917909, Control_c, 0, 67, 36
1, 917928, Control_c, 0, 67, 40
1, 917952, Note_on_c, 0, 67, 0
1, 917965, Control_c, 0, 67, 48
1, 917984, Control_c, 0, 67, 55
1, 918003, Control_c, 0, 67, 61
1, 918021, Control_c, 0, 67, 67
1, 918039, Control_c, 0, 64, 108
1, 918040, Control_c, 0, 67, 72
1, 918050, Note_on_c, 0, 55, 42
1, 918058, Control_c, 0, 64, 94
1, 918058, Control_c, 0, 67, 78
1, 918058, Note_on_c, 0, 87, 60
1, 918075, Control_c, 0, 64, 74
1, 918077, Control_c, 0, 67, 86
1, 918082, Note_on_c, 0, 86, 0
1, 918084, Note_on_c, 0, 75, 36
1, 918095, Control_c, 0, 64, 57
1, 918096, Control_c, 0, 67, 96
1, 918113, Control_c, 0, 67, 107
1, 918132, Control_c, 0, 67, 114
1, 918150, Control_c, 0, 64, 65
1, 918151, Control_c, 0, 67, 119
1, 918167, Control_c, 0, 64, 73
1, 918168, Control_c, 0, 67, 123
1, 918188, Control_c, 0, 64, 83
1, 918188, Control_c, 0, 67, 127
1, 918198, Note_on_c, 0, 60, 45
1, 918201, Note_on_c, 0, 55, 0
1, 918205, Control_c, 0, 64, 94
1, 918224, Control_c, 0, 64, 102
1, 918260, Control_c, 0, 64, 106
1, 918261, Note_on_c, 0, 60, 0
1, 918266, Note_on_c, 0, 87, 0
1, 918287, Note_on_c, 0, 75, 0
1, 918330, Note_on_c, 0, 67, 35
1, 918426, Note_on_c, 0, 60, 36
1, 918428, Note_on_c, 0, 67, 0
1, 918547, Note_on_c, 0, 60, 0
1, 918550, Note_on_c, 0, 55, 46
1, 918554, Note_on_c, 0, 84, 61
1, 918570, Control_c, 0, 64, 101
1, 918588, Control_c, 0, 64, 90
1, 918591, Note_on_c, 0, 72, 34
1, 918607, Control_c, 0, 64, 75
1, 918624, Control_c, 0, 64, 66
1, 918662, Control_c, 0, 64, 70
1, 918673, Note_on_c, 0, 55, 0
1, 918679, Control_c, 0, 64, 77
1, 918698, Control_c, 0, 64, 89
1, 918701, Note_on_c, 0, 63, 43
1, 918718, Control_c, 0, 64, 101
1, 918736, Control_c, 0, 64, 109
1, 918750, Note_on_c, 0, 63, 0
1, 918784, Note_on_c, 0, 72, 0
1, 918804, Note_on_c, 0, 67, 43
1, 918823, Note_on_c, 0, 84, 0
1, 918901, Note_on_c, 0, 67, 0
1, 918907, Note_on_c, 0, 63, 40
1, 918974, Control_c, 0, 64, 113
1, 918979, Note_on_c, 0, 63, 0
1, 919035, Note_on_c, 0, 83, 59
1, 919048, Control_c, 0, 64, 97
1, 919053, Note_on_c, 0, 55, 47
1, 919062, Note_on_c, 0, 71, 37
1, 919067, Control_c, 0, 64, 81
1, 919085, Control_c, 0, 64, 66
1, 919103, Control_c, 0, 64, 62
1, 919122, Control_c, 0, 64, 63
1, 919140, Control_c, 0, 64, 70
1, 919158, Control_c, 0, 64, 79
1, 919171, Note_on_c, 0, 62, 46
1, 919176, Control_c, 0, 64, 90
1, 919187, Note_on_c, 0, 71, 0
1, 919194, Control_c, 0, 64, 100
1, 919214, Control_c, 0, 64, 105
1, 919225, Note_on_c, 0, 62, 0
1, 919255, Note_on_c, 0, 55, 0
1, 919288, Note_on_c, 0, 67, 47
1, 919366, Note_on_c, 0, 67, 0
1, 919404, Note_on_c, 0, 62, 43
1, 919433, Control_c, 0, 64, 109
1, 919524, Control_c, 0, 64, 113
1, 919529, Note_on_c, 0, 86, 64
1, 919533, Note_on_c, 0, 55, 47
1, 919543, Control_c, 0, 64, 109
1, 919558, Note_on_c, 0, 83, 0
1, 919558, Control_c, 0, 64, 96
1, 919563, Note_on_c, 0, 74, 46
1, 919578, Control_c, 0, 64, 79
1, 919597, Control_c, 0, 64, 62
1, 919614, Note_on_c, 0, 62, 0
1, 919615, Control_c, 0, 64, 59
1, 919629, Note_on_c, 0, 59, 48
1, 919655, Control_c, 0, 64, 66
1, 919659, Note_on_c, 0, 55, 0
1, 919672, Control_c, 0, 64, 75
1, 919691, Control_c, 0, 64, 85
1, 919700, Note_on_c, 0, 59, 0
1, 919706, Control_c, 0, 64, 96
1, 919726, Control_c, 0, 64, 102
1, 919761, Control_c, 0, 64, 107
1, 919763, Control_c, 0, 67, 120
1, 919763, Note_on_c, 0, 67, 46
1, 919776, Note_on_c, 0, 74, 0
1, 919780, Control_c, 0, 67, 115
1, 919801, Control_c, 0, 67, 106
1, 919818, Control_c, 0, 67, 96
1, 919837, Control_c, 0, 67, 84
1, 919853, Note_on_c, 0, 67, 0
1, 919853, Control_c, 0, 64, 111
1, 919855, Control_c, 0, 67, 71
1, 919870, Note_on_c, 0, 59, 39
1, 919874, Control_c, 0, 67, 58
1, 919893, Control_c, 0, 67, 47
1, 919911, Control_c, 0, 64, 117
1, 919912, Control_c, 0, 67, 37
1, 919929, Control_c, 0, 67, 28
1, 919948, Control_c, 0, 67, 20
1, 919963, Note_on_c, 0, 59, 0
1, 919966, Control_c, 0, 67, 13
1, 919985, Control_c, 0, 67, 8
1, 920007, Note_on_c, 0, 55, 49
1, 920014, Note_on_c, 0, 88, 74
1, 920021, Control_c, 0, 64, 102
1, 920038, Control_c, 0, 64, 84
1, 920048, Note_on_c, 0, 86, 0
1, 920049, Note_on_c, 0, 76, 43
1, 920059, Control_c, 0, 64, 66
1, 920078, Control_c, 0, 64, 61
1, 920079, Control_c, 0, 67, 0
1, 920095, Control_c, 0, 64, 63
1, 920112, Control_c, 0, 64, 69
1, 920130, Note_on_c, 0, 55, 0
1, 920131, Control_c, 0, 64, 79
1, 920151, Control_c, 0, 64, 92
1, 920155, Note_on_c, 0, 60, 44
1, 920169, Control_c, 0, 64, 105
1, 920188, Control_c, 0, 64, 113
1, 920201, Note_on_c, 0, 60, 0
1, 920210, Note_on_c, 0, 88, 0
1, 920240, Note_on_c, 0, 76, 0
1, 920244, Note_on_c, 0, 67, 50
1, 920280, Control_c, 0, 64, 117
1, 920349, Control_c, 0, 64, 122
1, 920360, Note_on_c, 0, 60, 46
1, 920364, Note_on_c, 0, 67, 0
1, 920387, Control_c, 0, 64, 126
1, 920479, Note_on_c, 0, 60, 0
1, 920493, Note_on_c, 0, 84, 78
1, 920495, Control_c, 0, 64, 109
1, 920512, Note_on_c, 0, 55, 50
1, 920513, Control_c, 0, 64, 89
1, 920523, Note_on_c, 0, 72, 54
1, 920534, Control_c, 0, 64, 71
1, 920552, Control_c, 0, 64, 66
1, 920571, Control_c, 0, 64, 67
1, 920590, Control_c, 0, 64, 74
1, 920609, Control_c, 0, 64, 84
1, 920620, Note_on_c, 0, 64, 55
1, 920627, Control_c, 0, 64, 96
1, 920646, Control_c, 0, 64, 107
1, 920663, Control_c, 0, 64, 112
1, 920667, Note_on_c, 0, 55, 0
1, 920695, Note_on_c, 0, 64, 0
1, 920712, Note_on_c, 0, 72, 0
1, 920734, Control_c, 0, 64, 116
1, 920738, Note_on_c, 0, 67, 49
1, 920773, Control_c, 0, 64, 120
1, 920811, Control_c, 0, 64, 125
1, 920812, Note_on_c, 0, 84, 0
1, 920822, Note_on_c, 0, 67, 0
1, 920853, Note_on_c, 0, 64, 50
1, 920900, Note_on_c, 0, 64, 0
1, 920963, Note_on_c, 0, 83, 77
1, 920975, Note_on_c, 0, 55, 47
1, 920975, Control_c, 0, 64, 118
1, 920975, Control_c, 0, 67, 8
1, 920994, Control_c, 0, 64, 95
1, 921003, Note_on_c, 0, 71, 56
1, 921013, Control_c, 0, 64, 70
1, 921029, Control_c, 0, 64, 54
1, 921039, Note_on_c, 0, 71, 0
1, 921059, Poly_aftertouch_c, 0, 78, 0
1, 921073, Note_on_c, 0, 55, 0
1, 921086, Control_c, 0, 64, 67
1, 921100, Note_on_c, 0, 62, 48
1, 921104, Control_c, 0, 64, 78
1, 921105, Control_c, 0, 67, 15
1, 921123, Control_c, 0, 64, 91
1, 921125, Control_c, 0, 67, 20
1, 921142, Control_c, 0, 64, 103
1, 921143, Control_c, 0, 67, 25
1, 921155, Note_on_c, 0, 62, 0
1, 921160, Control_c, 0, 64, 109
1, 921178, Control_c, 0, 67, 29
1, 921203, Note_on_c, 0, 67, 47
1, 921215, Control_c, 0, 64, 114
1, 921233, Control_c, 0, 67, 36
1, 921266, Control_c, 0, 67, 40
1, 921283, Control_c, 0, 64, 119
1, 921303, Control_c, 0, 67, 47
1, 921310, Note_on_c, 0, 67, 0
1, 921330, Note_on_c, 0, 62, 33
1, 921341, Control_c, 0, 64, 123
1, 921343, Control_c, 0, 67, 52
1, 921378, Control_c, 0, 67, 57
1, 921397, Control_c, 0, 64, 127
1, 921415, Control_c, 0, 67, 65
1, 921435, Control_c, 0, 67, 70
1, 921444, Note_on_c, 0, 86, 76
1, 921454, Control_c, 0, 64, 119
1, 921455, Control_c, 0, 67, 76
1, 921458, Note_on_c, 0, 55, 49
1, 921467, Note_on_c, 0, 83, 0
1, 921469, Control_c, 0, 64, 100
1, 921471, Note_on_c, 0, 62, 0
1, 921471, Control_c, 0, 67, 82
1, 921473, Note_on_c, 0, 74, 52
1, 921488, Control_c, 0, 64, 76
1, 921490, Control_c, 0, 67, 88
1, 921507, Control_c, 0, 64, 59
1, 921508, Control_c, 0, 67, 95
1, 921526, Control_c, 0, 64, 57
1, 921528, Control_c, 0, 67, 103
1, 921542, Note_on_c, 0, 55, 0
1, 921544, Control_c, 0, 64, 60
1, 921546, Control_c, 0, 67, 112
1, 921563, Control_c, 0, 64, 69
1, 921564, Control_c, 0, 67, 120
1, 921575, Note_on_c, 0, 74, 0
1, 921578, Control_c, 0, 64, 81
1, 921579, Control_c, 0, 67, 127
1, 921590, Note_on_c, 0, 59, 35
1, 921599, Control_c, 0, 64, 94
1, 921617, Control_c, 0, 64, 106
1, 921635, Control_c, 0, 64, 111
1, 921658, Note_on_c, 0, 59, 0
1, 921708, Note_on_c, 0, 67, 43
1, 921763, Control_c, 0, 64, 115
1, 921783, Note_on_c, 0, 67, 0
1, 921814, Note_on_c, 0, 59, 35
1, 921955, Note_on_c, 0, 59, 0
1, 921999, Note_on_c, 0, 55, 36
1, 922015, Note_on_c, 0, 87, 61
1, 922020, Note_on_c, 0, 86, 0
1, 922048, Note_on_c, 0, 75, 42
1, 922058, Control_c, 0, 64, 97
1, 922078, Control_c, 0, 64, 73
1, 922097, Control_c, 0, 64, 51
1, 922113, Control_c, 0, 64, 46
1, 922150, Control_c, 0, 64, 51
1, 922169, Control_c, 0, 64, 68
1, 922201, Control_c, 0, 64, 82
1, 922202, Note_on_c, 0, 55, 0
1, 922219, Control_c, 0, 64, 97
1, 922222, Note_on_c, 0, 60, 38
1, 922236, Note_on_c, 0, 75, 0
1, 922238, Control_c, 0, 64, 110
1, 922248, Note_on_c, 0, 87, 0
1, 922257, Control_c, 0, 64, 116
1, 922285, Note_on_c, 0, 60, 0
1, 922357, Note_on_c, 0, 67, 37
1, 922432, Note_on_c, 0, 67, 0
1, 922477, Note_on_c, 0, 60, 30
1, 922547, Note_on_c, 0, 60, 0
1, 922696, Note_on_c, 0, 55, 29
1, 922697, Note_on_c, 0, 84, 52
1, 922730, Note_on_c, 0, 72, 39
1, 922852, Note_on_c, 0, 72, 0
1, 922863, Note_on_c, 0, 55, 0
1, 922878, Note_on_c, 0, 60, 49
1, 922879, Note_on_c, 0, 84, 0
1, 922951, Note_on_c, 0, 60, 0
1, 923030, Note_on_c, 0, 63, 36
1, 923101, Note_on_c, 0, 63, 0
1, 923164, Note_on_c, 0, 60, 30
1, 923227, Note_on_c, 0, 60, 0
1, 923284, Note_on_c, 0, 55, 42
1, 923286, Control_c, 0, 64, 102
1, 923291, Note_on_c, 0, 79, 55
1, 923302, Control_c, 0, 64, 81
1, 923322, Control_c, 0, 64, 60
1, 923340, Control_c, 0, 64, 55
1, 923377, Control_c, 0, 64, 62
1, 923383, Note_on_c, 0, 55, 0
1, 923397, Control_c, 0, 64, 72
1, 923415, Control_c, 0, 64, 83
1, 923433, Control_c, 0, 64, 96
1, 923443, Note_on_c, 0, 59, 38
1, 923451, Control_c, 0, 64, 107
1, 923470, Control_c, 0, 64, 112
1, 923476, Note_on_c, 0, 79, 0
1, 923505, Note_on_c, 0, 59, 0
1, 923535, Note_on_c, 0, 62, 42
1, 923562, Control_c, 0, 64, 116
1, 923637, Control_c, 0, 64, 121
1, 923647, Note_on_c, 0, 62, 0
1, 923660, Note_on_c, 0, 59, 44
1, 923674, Control_c, 0, 64, 125
1, 923741, Note_on_c, 0, 59, 0
1, 923764, Control_c, 0, 64, 106
1, 923774, Note_on_c, 0, 55, 42
1, 923782, Note_on_c, 0, 79, 60
1, 923783, Control_c, 0, 64, 84
1, 923800, Control_c, 0, 64, 66
1, 923819, Control_c, 0, 64, 63
1, 923837, Control_c, 0, 64, 64
1, 923843, Note_on_c, 0, 55, 0
1, 923855, Control_c, 0, 64, 70
1, 923874, Control_c, 0, 64, 78
1, 923892, Control_c, 0, 64, 90
1, 923900, Note_on_c, 0, 60, 47
1, 923911, Control_c, 0, 64, 101
1, 923930, Note_on_c, 0, 79, 0
1, 923930, Control_c, 0, 64, 109
1, 923948, Control_c, 0, 64, 113
1, 923973, Note_on_c, 0, 60, 0
1, 924003, Control_c, 0, 64, 118
1, 924005, Note_on_c, 0, 63, 48
1, 924041, Control_c, 0, 64, 125
1, 924138, Note_on_c, 0, 63, 0
1, 924157, Note_on_c, 0, 60, 43
1, 924228, Note_on_c, 0, 60, 0
1, 924256, Control_c, 0, 64, 84
1, 924263, Note_on_c, 0, 55, 61
1, 924268, Note_on_c, 0, 81, 66
1, 924275, Control_c, 0, 64, 0
1, 924299, Note_on_c, 0, 81, 0
1, 924342, Note_on_c, 0, 55, 0
1, 924344, Note_on_c, 0, 79, 56
1, 924381, Note_on_c, 0, 79, 0
1, 924383, Note_on_c, 0, 59, 48
1, 924395, Note_on_c, 0, 81, 66
1, 924440, Note_on_c, 0, 59, 0
1, 924440, Note_on_c, 0, 81, 0
1, 924464, Note_on_c, 0, 79, 66
1, 924501, Note_on_c, 0, 62, 43
1, 924505, Note_on_c, 0, 79, 0
1, 924529, Note_on_c, 0, 81, 58
1, 924560, Note_on_c, 0, 81, 0
1, 924579, Note_on_c, 0, 62, 0
1, 924590, Note_on_c, 0, 59, 44
1, 924595, Note_on_c, 0, 79, 65
1, 924632, Note_on_c, 0, 79, 0
1, 924646, Note_on_c, 0, 81, 67
1, 924680, Note_on_c, 0, 81, 0
1, 924682, Note_on_c, 0, 59, 0
1, 924719, Note_on_c, 0, 79, 67
1, 924719, Note_on_c, 0, 55, 72
1, 924764, Note_on_c, 0, 79, 0
1, 924768, Note_on_c, 0, 81, 75
1, 924786, Note_on_c, 0, 55, 0
1, 924809, Note_on_c, 0, 81, 0
1, 924831, Note_on_c, 0, 60, 64
1, 924844, Note_on_c, 0, 79, 63
1, 924884, Note_on_c, 0, 60, 0
1, 924900, Note_on_c, 0, 79, 0
1, 924903, Note_on_c, 0, 81, 66
1, 924938, Note_on_c, 0, 81, 0
1, 924950, Note_on_c, 0, 64, 53
1, 924969, Note_on_c, 0, 79, 54
1, 925030, Note_on_c, 0, 81, 72
1, 925035, Note_on_c, 0, 79, 0
1, 925066, Note_on_c, 0, 60, 64
1, 925069, Note_on_c, 0, 64, 0
1, 925071, Note_on_c, 0, 81, 0
1, 925112, Note_on_c, 0, 79, 57
1, 925156, Note_on_c, 0, 79, 0
1, 925158, Note_on_c, 0, 60, 0
1, 925161, Note_on_c, 0, 81, 72
1, 925187, Note_on_c, 0, 55, 80
1, 925189, Note_on_c, 0, 81, 0
1, 925230, Note_on_c, 0, 79, 62
1, 925277, Note_on_c, 0, 81, 75
1, 925280, Note_on_c, 0, 55, 0
1, 925283, Note_on_c, 0, 79, 0
1, 925295, Note_on_c, 0, 59, 67
1, 925324, Note_on_c, 0, 81, 0
1, 925365, Note_on_c, 0, 79, 54
1, 925368, Note_on_c, 0, 59, 0
1, 925405, Note_on_c, 0, 79, 0
1, 925408, Note_on_c, 0, 81, 71
1, 925421, Note_on_c, 0, 62, 58
1, 925447, Note_on_c, 0, 81, 0
1, 925494, Note_on_c, 0, 79, 62
1, 925536, Note_on_c, 0, 59, 58
1, 925538, Note_on_c, 0, 79, 0
1, 925539, Note_on_c, 0, 62, 0
1, 925546, Note_on_c, 0, 81, 71
1, 925577, Note_on_c, 0, 81, 0
1, 925615, Note_on_c, 0, 79, 58
1, 925642, Note_on_c, 0, 59, 0
1, 925661, Note_on_c, 0, 81, 78
1, 925661, Note_on_c, 0, 55, 85
1, 925666, Note_on_c, 0, 79, 0
1, 925703, Note_on_c, 0, 81, 0
1, 925743, Note_on_c, 0, 79, 55
1, 925749, Note_on_c, 0, 55, 0
1, 925776, Note_on_c, 0, 57, 77
1, 925792, Note_on_c, 0, 79, 0
1, 925796, Note_on_c, 0, 81, 71
1, 925831, Note_on_c, 0, 81, 0
1, 925851, Note_on_c, 0, 57, 0
1, 925872, Note_on_c, 0, 79, 63
1, 925900, Note_on_c, 0, 60, 62
1, 925927, Note_on_c, 0, 79, 0
1, 925943, Note_on_c, 0, 81, 71
1, 925977, Note_on_c, 0, 81, 0
1, 926015, Note_on_c, 0, 79, 62
1, 926018, Note_on_c, 0, 60, 0
1, 926026, Note_on_c, 0, 57, 61
1, 926068, Note_on_c, 0, 81, 72
1, 926073, Note_on_c, 0, 79, 0
1, 926108, Note_on_c, 0, 81, 0
1, 926113, Note_on_c, 0, 57, 0
1, 926146, Note_on_c, 0, 79, 63
1, 926146, Note_on_c, 0, 55, 89
1, 926195, Note_on_c, 0, 81, 75
1, 926199, Note_on_c, 0, 79, 0
1, 926208, Note_on_c, 0, 55, 0
1, 926238, Note_on_c, 0, 81, 0
1, 926272, Note_on_c, 0, 59, 77
1, 926280, Note_on_c, 0, 79, 62
1, 926328, Note_on_c, 0, 79, 0
1, 926330, Note_on_c, 0, 81, 73
1, 926348, Note_on_c, 0, 59, 0
1, 926372, Note_on_c, 0, 81, 0
1, 926384, Note_on_c, 0, 57, 73
1, 926403, Control_c, 0, 67, 118
1, 926406, Note_on_c, 0, 79, 66
1, 926422, Control_c, 0, 67, 104
1, 926442, Control_c, 0, 67, 86
1, 926457, Note_on_c, 0, 57, 0
1, 926460, Note_on_c, 0, 79, 0
1, 926460, Control_c, 0, 67, 65
1, 926461, Note_on_c, 0, 81, 72
1, 926479, Control_c, 0, 67, 42
1, 926498, Control_c, 0, 67, 21
1, 926503, Note_on_c, 0, 81, 0
1, 926506, Note_on_c, 0, 55, 78
1, 926534, Control_c, 0, 67, 0
1, 926542, Note_on_c, 0, 79, 68
1, 926563, Note_on_c, 0, 55, 0
1, 926592, Note_on_c, 0, 81, 77
1, 926593, Note_on_c, 0, 79, 0
1, 926611, Note_on_c, 0, 53, 94
1, 926635, Note_on_c, 0, 81, 0
1, 926672, Note_on_c, 0, 79, 70
1, 926679, Note_on_c, 0, 53, 0
1, 926723, Note_on_c, 0, 79, 0
1, 926727, Note_on_c, 0, 57, 78
1, 926731, Note_on_c, 0, 81, 75
1, 926761, Note_on_c, 0, 81, 0
1, 926797, Note_on_c, 0, 57, 0
1, 926820, Note_on_c, 0, 79, 66
1, 926846, Note_on_c, 0, 55, 75
1, 926857, Note_on_c, 0, 79, 0
1, 926860, Note_on_c, 0, 81, 76
1, 926923, Note_on_c, 0, 55, 0
1, 926924, Note_on_c, 0, 81, 0
1, 926958, Note_on_c, 0, 79, 72
1, 926978, Note_on_c, 0, 53, 80
1, 927006, Note_on_c, 0, 81, 75
1, 927009, Note_on_c, 0, 79, 0
1, 927033, Note_on_c, 0, 53, 0
1, 927046, Note_on_c, 0, 81, 0
1, 927081, Note_on_c, 0, 79, 66
1, 927090, Note_on_c, 0, 52, 98
1, 927129, Note_on_c, 0, 81, 80
1, 927131, Note_on_c, 0, 79, 0
1, 927161, Note_on_c, 0, 52, 0
1, 927173, Note_on_c, 0, 81, 0
1, 927213, Note_on_c, 0, 55, 81
1, 927227, Note_on_c, 0, 79, 70
1, 927265, Note_on_c, 0, 79, 0
1, 927270, Note_on_c, 0, 81, 77
1, 927291, Note_on_c, 0, 55, 0
1, 927311, Note_on_c, 0, 81, 0
1, 927334, Note_on_c, 0, 53, 76
1, 927355, Note_on_c, 0, 79, 75
1, 927403, Note_on_c, 0, 81, 77
1, 927406, Note_on_c, 0, 79, 0
1, 927410, Note_on_c, 0, 53, 0
1, 927446, Note_on_c, 0, 52, 79
1, 927450, Note_on_c, 0, 81, 0
1, 927480, Note_on_c, 0, 79, 70
1, 927520, Note_on_c, 0, 52, 0
1, 927531, Note_on_c, 0, 79, 0
1, 927533, Note_on_c, 0, 81, 77
1, 927568, Note_on_c, 0, 50, 97
1, 927577, Note_on_c, 0, 81, 0
1, 927609, Note_on_c, 0, 79, 76
1, 927634, Note_on_c, 0, 50, 0
1, 927659, Note_on_c, 0, 79, 0
1, 927659, Note_on_c, 0, 81, 79
1, 927680, Note_on_c, 0, 53, 81
1, 927706, Note_on_c, 0, 81, 0
1, 927743, Note_on_c, 0, 79, 70
1, 927789, Note_on_c, 0, 81, 80
1, 927791, Note_on_c, 0, 79, 0
1, 927799, Note_on_c, 0, 53, 0
1, 927820, Note_on_c, 0, 52, 74
1, 927836, Note_on_c, 0, 81, 0
1, 927877, Note_on_c, 0, 79, 69
1, 927919, Note_on_c, 0, 52, 0
1, 927921, Note_on_c, 0, 50, 78
1, 927922, Note_on_c, 0, 79, 0
1, 927927, Note_on_c, 0, 81, 80
1, 927959, Note_on_c, 0, 81, 0
1, 927975, Note_on_c, 0, 50, 0
1, 927991, Note_on_c, 0, 79, 78
1, 928072, Note_on_c, 0, 48, 102
1, 928076, Note_on_c, 0, 81, 84
1, 928080, Note_on_c, 0, 36, 93
1, 928110, Control_c, 0, 64, 14
1, 928116, Note_on_c, 0, 36, 0
1, 928129, Control_c, 0, 64, 84
1, 928147, Control_c, 0, 64, 124
1, 928162, Note_on_c, 0, 81, 0
1, 928211, Note_on_c, 0, 79, 0
1, 928265, Note_on_c, 0, 81, 48
1, 928279, Note_on_c, 0, 48, 0
1, 928289, Note_on_c, 0, 50, 68
1, 928302, Note_on_c, 0, 81, 0
1, 928307, Note_on_c, 0, 79, 64
1, 928347, Note_on_c, 0, 52, 78
1, 928355, Note_on_c, 0, 79, 0
1, 928361, Note_on_c, 0, 50, 0
1, 928391, Note_on_c, 0, 81, 72
1, 928408, Note_on_c, 0, 52, 0
1, 928427, Note_on_c, 0, 81, 0
1, 928428, Note_on_c, 0, 53, 50
1, 928452, Note_on_c, 0, 55, 69
1, 928452, Note_on_c, 0, 79, 56
1, 928466, Note_on_c, 0, 53, 0
1, 928486, Note_on_c, 0, 79, 0
1, 928508, Note_on_c, 0, 55, 0
1, 928517, Note_on_c, 0, 81, 70
1, 928521, Note_on_c, 0, 57, 80
1, 928550, Note_on_c, 0, 81, 0
1, 928551, Note_on_c, 0, 79, 86
1, 928558, Note_on_c, 0, 59, 80
1, 928596, Note_on_c, 0, 57, 0
1, 928600, Note_on_c, 0, 60, 97
1, 928600, Note_on_c, 0, 91, 106
1, 928620, Note_on_c, 0, 59, 0
1, 928663, Note_on_c, 0, 91, 0
1, 928700, Note_on_c, 0, 79, 0
1, 928758, Note_on_c, 0, 60, 0
1, 928775, Note_on_c, 0, 81, 75
1, 928781, Note_on_c, 0, 62, 75
1, 928807, Note_on_c, 0, 81, 0
1, 928836, Note_on_c, 0, 64, 73
1, 928841, Note_on_c, 0, 62, 0
1, 928852, Note_on_c, 0, 79, 60
1, 928882, Note_on_c, 0, 79, 0
1, 928898, Note_on_c, 0, 64, 0
1, 928904, Note_on_c, 0, 65, 76
1, 928904, Note_on_c, 0, 81, 79
1, 928934, Note_on_c, 0, 65, 0
1, 928946, Note_on_c, 0, 81, 0
1, 928949, Note_on_c, 0, 67, 60
1, 928972, Note_on_c, 0, 79, 69
1, 929010, Note_on_c, 0, 67, 0
1, 929024, Note_on_c, 0, 69, 78
1, 929035, Note_on_c, 0, 81, 83
1, 929038, Note_on_c, 0, 79, 0
1, 929067, Note_on_c, 0, 69, 0
1, 929072, Note_on_c, 0, 71, 80
1, 929075, Note_on_c, 0, 81, 0
1, 929107, Note_on_c, 0, 72, 101
1, 929112, Note_on_c, 0, 91, 108
1, 929129, Note_on_c, 0, 79, 65
1, 929133, Note_on_c, 0, 71, 0
1, 929152, Note_on_c, 0, 79, 0
1, 929171, Note_on_c, 0, 72, 0
1, 929218, Note_on_c, 0, 91, 0
1, 929238, Note_on_c, 0, 71, 89
1, 929243, Note_on_c, 0, 81, 78
1, 929290, Note_on_c, 0, 71, 0
1, 929296, Note_on_c, 0, 81, 0
1, 929341, Note_on_c, 0, 79, 63
1, 929355, Note_on_c, 0, 69, 89
1, 929359, Control_c, 0, 64, 118
1, 929371, Note_on_c, 0, 79, 0
1, 929396, Control_c, 0, 64, 111
1, 929401, Note_on_c, 0, 69, 0
1, 929416, Note_on_c, 0, 81, 67
1, 929433, Control_c, 0, 64, 106
1, 929448, Note_on_c, 0, 81, 0
1, 929461, Note_on_c, 0, 67, 93
1, 929478, Note_on_c, 0, 79, 62
1, 929522, Note_on_c, 0, 67, 0
1, 929525, Control_c, 0, 64, 102
1, 929558, Note_on_c, 0, 79, 0
1, 929560, Note_on_c, 0, 81, 68
1, 929589, Note_on_c, 0, 65, 86
1, 929640, Note_on_c, 0, 81, 0
1, 929646, Note_on_c, 0, 65, 0
1, 929661, Note_on_c, 0, 79, 51
1, 929672, Control_c, 0, 64, 98
1, 929718, Note_on_c, 0, 64, 91
1, 929752, Note_on_c, 0, 79, 0
1, 929759, Note_on_c, 0, 81, 67
1, 929769, Note_on_c, 0, 64, 0
1, 929810, Note_on_c, 0, 88, 103
1, 929826, Note_on_c, 0, 62, 96
1, 929843, Note_on_c, 0, 81, 0
1, 929843, Note_on_c, 0, 79, 69
1, 929891, Note_on_c, 0, 62, 0
1, 929910, Note_on_c, 0, 79, 0
1, 929941, Note_on_c, 0, 60, 92
1, 929942, Control_c, 0, 64, 93
1, 929986, Note_on_c, 0, 88, 0
1, 929994, Note_on_c, 0, 60, 0
1, 929999, Control_c, 0, 64, 89
1, 930014, Note_on_c, 0, 81, 21
1, 930020, Control_c, 0, 64, 86
1, 930038, Control_c, 0, 64, 84
1, 930049, Note_on_c, 0, 86, 99
1, 930051, Note_on_c, 0, 59, 98
1, 930056, Control_c, 0, 64, 80
1, 930066, Note_on_c, 0, 81, 0
1, 930067, Note_on_c, 0, 79, 85
1, 930073, Control_c, 0, 64, 76
1, 930092, Control_c, 0, 64, 72
1, 930105, Note_on_c, 0, 59, 0
1, 930110, Note_on_c, 0, 79, 0
1, 930110, Control_c, 0, 64, 69
1, 930164, Note_on_c, 0, 60, 87
1, 930184, Note_on_c, 0, 81, 56
1, 930221, Note_on_c, 0, 60, 0
1, 930230, Note_on_c, 0, 81, 0
1, 930238, Note_on_c, 0, 79, 70
1, 930277, Control_c, 0, 64, 67
1, 930292, Note_on_c, 0, 79, 0
1, 930294, Note_on_c, 0, 59, 85
1, 930295, Control_c, 0, 64, 65
1, 930311, Note_on_c, 0, 81, 72
1, 930312, Control_c, 0, 64, 62
1, 930331, Control_c, 0, 64, 59
1, 930346, Note_on_c, 0, 59, 0
1, 930349, Control_c, 0, 64, 56
1, 930368, Control_c, 0, 64, 53
1, 930380, Note_on_c, 0, 81, 0
1, 930386, Control_c, 0, 64, 50
1, 930388, Note_on_c, 0, 79, 76
1, 930404, Control_c, 0, 64, 47
1, 930414, Note_on_c, 0, 57, 88
1, 930423, Control_c, 0, 64, 43
1, 930452, Note_on_c, 0, 79, 0
1, 930461, Note_on_c, 0, 57, 0
1, 930461, Control_c, 0, 64, 41
1, 930465, Note_on_c, 0, 81, 72
1, 930524, Note_on_c, 0, 55, 92
1, 930535, Note_on_c, 0, 79, 84
1, 930543, Note_on_c, 0, 81, 0
1, 930580, Note_on_c, 0, 55, 0
1, 930602, Note_on_c, 0, 79, 0
1, 930632, Note_on_c, 0, 81, 65
1, 930654, Note_on_c, 0, 53, 84
1, 930703, Note_on_c, 0, 81, 0
1, 930712, Note_on_c, 0, 53, 0
1, 930714, Note_on_c, 0, 79, 69
1, 930769, Note_on_c, 0, 79, 0
1, 930772, Note_on_c, 0, 52, 85
1, 930776, Note_on_c, 0, 81, 71
1, 930822, Note_on_c, 0, 52, 0
1, 930823, Note_on_c, 0, 86, 0
1, 930845, Note_on_c, 0, 81, 0
1, 930858, Note_on_c, 0, 79, 75
1, 930891, Note_on_c, 0, 50, 85
1, 930922, Note_on_c, 0, 79, 0
1, 930935, Note_on_c, 0, 50, 0
1, 930971, Note_on_c, 0, 81, 73
1, 930979, Note_on_c, 0, 84, 91
1, 930992, Control_c, 0, 64, 37
1, 931000, Note_on_c, 0, 48, 94
1, 931031, Note_on_c, 0, 79, 70
1, 931038, Note_on_c, 0, 81, 0
1, 931049, Note_on_c, 0, 48, 0
1, 931115, Note_on_c, 0, 79, 0
1, 931118, Note_on_c, 0, 48, 79
1, 931138, Note_on_c, 0, 81, 64
1, 931157, Note_on_c, 0, 48, 0
1, 931200, Note_on_c, 0, 81, 0
1, 931206, Note_on_c, 0, 79, 73
1, 931230, Note_on_c, 0, 47, 83
1, 931264, Note_on_c, 0, 79, 0
1, 931281, Note_on_c, 0, 47, 0
1, 931293, Note_on_c, 0, 81, 63
1, 931351, Note_on_c, 0, 45, 83
1, 931377, Note_on_c, 0, 81, 0
1, 931385, Note_on_c, 0, 79, 70
1, 931390, Note_on_c, 0, 45, 0
1, 931432, Note_on_c, 0, 79, 0
1, 931456, Note_on_c, 0, 88, 99
1, 931457, Note_on_c, 0, 43, 89
1, 931457, Note_on_c, 0, 81, 80
1, 931474, Note_on_c, 0, 84, 0
1, 931488, Control_c, 0, 64, 32
1, 931506, Control_c, 0, 64, 24
1, 931515, Note_on_c, 0, 43, 0
1, 931524, Control_c, 0, 64, 11
1, 931535, Note_on_c, 0, 81, 0
1, 931538, Note_on_c, 0, 79, 75
1, 931542, Control_c, 0, 64, 0
1, 931589, Note_on_c, 0, 41, 83
1, 931613, Note_on_c, 0, 79, 0
1, 931629, Note_on_c, 0, 81, 62
1, 931633, Note_on_c, 0, 41, 0
1, 931697, Note_on_c, 0, 81, 0
1, 931701, Note_on_c, 0, 79, 72
1, 931712, Note_on_c, 0, 40, 74
1, 931765, Note_on_c, 0, 40, 0
1, 931776, Note_on_c, 0, 79, 0
1, 931793, Note_on_c, 0, 81, 67
1, 931802, Note_on_c, 0, 38, 72
1, 931857, Note_on_c, 0, 81, 0
1, 931863, Note_on_c, 0, 38, 0
1, 931866, Note_on_c, 0, 79, 66
1, 931937, Note_on_c, 0, 36, 87
1, 931937, Note_on_c, 0, 48, 98
1, 931955, Note_on_c, 0, 81, 80
1, 931963, Note_on_c, 0, 79, 0
1, 931988, Note_on_c, 0, 36, 0
1, 932001, Control_c, 0, 64, 57
1, 932003, Note_on_c, 0, 88, 0
1, 932003, Poly_aftertouch_c, 0, 88, 0
1, 932019, Control_c, 0, 64, 121
1, 932027, Note_on_c, 0, 79, 51
1, 932028, Note_on_c, 0, 81, 0
1, 932035, Control_c, 0, 64, 127
1, 932095, Note_on_c, 0, 79, 0
1, 932138, Note_on_c, 0, 81, 56
1, 932159, Note_on_c, 0, 48, 0
1, 932160, Note_on_c, 0, 50, 62
1, 932179, Note_on_c, 0, 81, 0
1, 932193, Note_on_c, 0, 79, 65
1, 932212, Note_on_c, 0, 52, 76
1, 932222, Note_on_c, 0, 50, 0
1, 932246, Note_on_c, 0, 79, 0
1, 932270, Note_on_c, 0, 81, 67
1, 932274, Note_on_c, 0, 52, 0
1, 932275, Note_on_c, 0, 53, 66
1, 932304, Note_on_c, 0, 81, 0
1, 932307, Note_on_c, 0, 53, 0
1, 932336, Note_on_c, 0, 55, 66
1, 932340, Note_on_c, 0, 79, 45
1, 932376, Note_on_c, 0, 79, 0
1, 932384, Note_on_c, 0, 55, 0
1, 932385, Note_on_c, 0, 81, 76
1, 932397, Note_on_c, 0, 57, 81
1, 932415, Note_on_c, 0, 81, 0
1, 932440, Note_on_c, 0, 59, 81
1, 932449, Note_on_c, 0, 79, 61
1, 932450, Note_on_c, 0, 57, 0
1, 932474, Note_on_c, 0, 91, 105
1, 932475, Note_on_c, 0, 60, 91
1, 932514, Note_on_c, 0, 59, 0
1, 932534, Note_on_c, 0, 91, 0
1, 932573, Note_on_c, 0, 79, 0
1, 932639, Note_on_c, 0, 60, 0
1, 932640, Note_on_c, 0, 81, 75
1, 932646, Note_on_c, 0, 62, 77
1, 932678, Note_on_c, 0, 81, 0
1, 932697, Note_on_c, 0, 64, 76
1, 932705, Note_on_c, 0, 62, 0
1, 932719, Note_on_c, 0, 79, 56
1, 932748, Note_on_c, 0, 79, 0
1, 932759, Note_on_c, 0, 64, 0
1, 932759, Note_on_c, 0, 65, 75
1, 932778, Note_on_c, 0, 81, 73
1, 932798, Note_on_c, 0, 65, 0
1, 932810, Note_on_c, 0, 67, 74
1, 932811, Note_on_c, 0, 81, 0
1, 932838, Note_on_c, 0, 79, 65
1, 932881, Note_on_c, 0, 67, 0
1, 932885, Note_on_c, 0, 69, 81
1, 932905, Note_on_c, 0, 81, 85
1, 932907, Note_on_c, 0, 79, 0
1, 932932, Note_on_c, 0, 81, 0
1, 932936, Control_c, 0, 64, 123
1, 932939, Note_on_c, 0, 71, 74
1, 932941, Note_on_c, 0, 69, 0
1, 932970, Note_on_c, 0, 72, 99
1, 932974, Note_on_c, 0, 91, 108
1, 932985, Note_on_c, 0, 79, 75
1, 932991, Control_c, 0, 64, 117
1, 932999, Note_on_c, 0, 72, 0
1, 933002, Note_on_c, 0, 71, 0
1, 933012, Note_on_c, 0, 79, 0
1, 933027, Control_c, 0, 64, 111
1, 933067, Control_c, 0, 64, 106
1, 933087, Poly_aftertouch_c, 0, 70, 0
1, 933099, Note_on_c, 0, 81, 65
1, 933104, Note_on_c, 0, 71, 90
1, 933126, Note_on_c, 0, 67, 9
1, 933159, Note_on_c, 0, 71, 0
1, 933167, Note_on_c, 0, 67, 0
1, 933180, Note_on_c, 0, 79, 69
1, 933181, Note_on_c, 0, 81, 0
1, 933211, Control_c, 0, 64, 101
1, 933215, Note_on_c, 0, 69, 89
1, 933266, Note_on_c, 0, 79, 0
1, 933266, Note_on_c, 0, 69, 0
1, 933266, Control_c, 0, 64, 95
1, 933271, Note_on_c, 0, 81, 63
1, 933297, Note_on_c, 0, 91, 0
1, 933321, Note_on_c, 0, 67, 85
1, 933347, Note_on_c, 0, 81, 0
1, 933356, Note_on_c, 0, 79, 62
1, 933386, Note_on_c, 0, 67, 0
1, 933415, Control_c, 0, 64, 91
1, 933450, Note_on_c, 0, 79, 0
1, 933458, Note_on_c, 0, 65, 85
1, 933470, Note_on_c, 0, 81, 72
1, 933516, Note_on_c, 0, 65, 0
1, 933522, Control_c, 0, 64, 88
1, 933543, Note_on_c, 0, 81, 0
1, 933559, Control_c, 0, 64, 85
1, 933567, Note_on_c, 0, 79, 50
1, 933579, Note_on_c, 0, 64, 85
1, 933596, Control_c, 0, 64, 83
1, 933630, Note_on_c, 0, 64, 0
1, 933632, Control_c, 0, 64, 81
1, 933643, Note_on_c, 0, 79, 0
1, 933651, Note_on_c, 0, 81, 67
1, 933684, Note_on_c, 0, 62, 89
1, 933700, Note_on_c, 0, 88, 99
1, 933723, Control_c, 0, 64, 79
1, 933728, Note_on_c, 0, 81, 0
1, 933731, Note_on_c, 0, 79, 70
1, 933797, Note_on_c, 0, 60, 85
1, 933798, Note_on_c, 0, 62, 0
1, 933811, Note_on_c, 0, 79, 0
1, 933855, Note_on_c, 0, 60, 0
1, 933862, Note_on_c, 0, 88, 0
1, 933872, Control_c, 0, 64, 76
1, 933876, Note_on_c, 0, 81, 44
1, 933890, Control_c, 0, 64, 73
1, 933906, Control_c, 0, 64, 69
1, 933911, Note_on_c, 0, 59, 91
1, 933918, Note_on_c, 0, 86, 97
1, 933924, Control_c, 0, 64, 65
1, 933930, Note_on_c, 0, 79, 82
1, 933931, Note_on_c, 0, 81, 0
1, 933945, Control_c, 0, 64, 62
1, 933962, Note_on_c, 0, 59, 0
1, 933963, Control_c, 0, 64, 60
1, 933982, Control_c, 0, 64, 58
1, 933996, Note_on_c, 0, 79, 0
1, 934018, Control_c, 0, 64, 56
1, 934021, Note_on_c, 0, 60, 85
1, 934030, Note_on_c, 0, 81, 82
1, 934079, Note_on_c, 0, 60, 0
1, 934105, Note_on_c, 0, 81, 0
1, 934115, Note_on_c, 0, 79, 75
1, 934156, Note_on_c, 0, 59, 82
1, 934174, Note_on_c, 0, 79, 0
1, 934201, Note_on_c, 0, 81, 66
1, 934206, Note_on_c, 0, 59, 0
1, 934236, Note_on_c, 0, 81, 0
1, 934274, Note_on_c, 0, 57, 82
1, 934285, Note_on_c, 0, 79, 55
1, 934310, Note_on_c, 0, 57, 0
1, 934314, Note_on_c, 0, 79, 0
1, 934331, Note_on_c, 0, 81, 72
1, 934383, Control_c, 0, 64, 54
1, 934386, Note_on_c, 0, 86, 0
1, 934401, Note_on_c, 0, 55, 85
1, 934403, Note_on_c, 0, 81, 0
1, 934415, Note_on_c, 0, 79, 80
1, 934458, Note_on_c, 0, 55, 0
1, 934464, Note_on_c, 0, 79, 0
1, 934500, Note_on_c, 0, 81, 73
1, 934518, Note_on_c, 0, 53, 80
1, 934534, Note_on_c, 0, 81, 0
1, 934555, Note_on_c, 0, 79, 72
1, 934599, Note_on_c, 0, 79, 0
1, 934611, Note_on_c, 0, 53, 0
1, 934613, Note_on_c, 0, 81, 72
1, 934616, Note_on_c, 0, 52, 76
1, 934648, Note_on_c, 0, 81, 0
1, 934684, Note_on_c, 0, 79, 58
1, 934714, Note_on_c, 0, 79, 0
1, 934716, Control_c, 0, 64, 46
1, 934721, Note_on_c, 0, 52, 0
1, 934724, Note_on_c, 0, 78, 77
1, 934736, Control_c, 0, 64, 18
1, 934738, Note_on_c, 0, 50, 63
1, 934753, Control_c, 0, 64, 0
1, 934786, Note_on_c, 0, 79, 81
1, 934791, Note_on_c, 0, 78, 0
1, 934815, Note_on_c, 0, 50, 0
1, 934841, Note_on_c, 0, 48, 86
1, 934842, Control_c, 0, 64, 28
1, 934852, Note_on_c, 0, 84, 95
1, 934861, Control_c, 0, 64, 44
1, 934881, Control_c, 0, 64, 55
1, 934882, Note_on_c, 0, 79, 0
1, 934898, Control_c, 0, 64, 59
1, 934900, Note_on_c, 0, 48, 0
1, 934963, Note_on_c, 0, 84, 0
1, 935138, Control_c, 0, 64, 57
1, 935158, Control_c, 0, 64, 55
1, 935206, Note_on_c, 0, 31, 86
1, 935207, Note_on_c, 0, 43, 87
1, 935213, Control_c, 0, 64, 53
1, 935249, Control_c, 0, 64, 50
1, 935267, Note_on_c, 0, 31, 0
1, 935267, Note_on_c, 0, 43, 0
1, 935342, Note_on_c, 0, 55, 83
1, 935449, Control_c, 0, 64, 48
1, 935474, Note_on_c, 0, 46, 29
1, 935486, Note_on_c, 0, 51, 94
1, 935496, Poly_aftertouch_c, 0, 42, 127
1, 935500, Note_on_c, 0, 39, 77
1, 935516, Note_on_c, 0, 46, 0
1, 935526, Poly_aftertouch_c, 0, 42, 0
1, 935540, Control_c, 0, 64, 46
1, 935552, Note_on_c, 0, 51, 0
1, 935565, Note_on_c, 0, 39, 0
1, 935565, Note_on_c, 0, 55, 0
1, 935577, Control_c, 0, 64, 43
1, 935606, Note_on_c, 0, 63, 85
1, 935703, Note_on_c, 0, 63, 0
1, 935727, Note_on_c, 0, 50, 87
1, 935733, Note_on_c, 0, 38, 78
1, 935777, Note_on_c, 0, 38, 0
1, 935779, Note_on_c, 0, 50, 0
1, 935865, Note_on_c, 0, 62, 74
1, 935951, Note_on_c, 0, 62, 0
1, 935974, Note_on_c, 0, 48, 70
1, 935976, Poly_aftertouch_c, 0, 64, 0
1, 935983, Note_on_c, 0, 36, 68
1, 936007, Note_on_c, 0, 48, 0
1, 936017, Note_on_c, 0, 36, 0
1, 936018, Control_c, 0, 64, 41
1, 936085, Note_on_c, 0, 60, 71
1, 936145, Poly_aftertouch_c, 0, 64, 0
1, 936151, Note_on_c, 0, 60, 0
1, 936204, Note_on_c, 0, 43, 72
1, 936212, Note_on_c, 0, 31, 64
1, 936268, Note_on_c, 0, 43, 0
1, 936273, Note_on_c, 0, 31, 0
1, 936358, Note_on_c, 0, 55, 55
1, 936401, Note_on_c, 0, 55, 0
1, 936455, Note_on_c, 0, 45, 72
1, 936456, Note_on_c, 0, 33, 69
1, 936501, Note_on_c, 0, 45, 0
1, 936506, Note_on_c, 0, 33, 0
1, 936569, Note_on_c, 0, 57, 65
1, 936622, Note_on_c, 0, 57, 0
1, 936685, Note_on_c, 0, 47, 73
1, 936690, Note_on_c, 0, 35, 66
1, 936729, Note_on_c, 0, 47, 0
1, 936729, Note_on_c, 0, 35, 0
1, 936803, Note_on_c, 0, 59, 67
1, 936844, Note_on_c, 0, 59, 0
1, 936929, Note_on_c, 0, 48, 76
1, 936929, Note_on_c, 0, 36, 69
1, 936981, Note_on_c, 0, 48, 0
1, 936992, Note_on_c, 0, 36, 0
1, 937050, Note_on_c, 0, 60, 71
1, 937102, Note_on_c, 0, 60, 0
1, 937102, Control_c, 0, 64, 37
1, 937152, Note_on_c, 0, 36, 73
1, 937159, Note_on_c, 0, 48, 80
1, 937198, Note_on_c, 0, 36, 0
1, 937218, Note_on_c, 0, 48, 0
1, 937291, Note_on_c, 0, 60, 80
1, 937406, Note_on_c, 0, 56, 97
1, 937418, Note_on_c, 0, 44, 79
1, 937442, Note_on_c, 0, 60, 0
1, 937508, Note_on_c, 0, 56, 0
1, 937512, Note_on_c, 0, 44, 0
1, 937534, Note_on_c, 0, 68, 84
1, 937638, Note_on_c, 0, 68, 0
1, 937639, Note_on_c, 0, 55, 90
1, 937653, Note_on_c, 0, 43, 79
1, 937700, Note_on_c, 0, 43, 0
1, 937711, Note_on_c, 0, 55, 0
1, 937771, Note_on_c, 0, 67, 85
1, 937865, Note_on_c, 0, 67, 0
1, 937884, Note_on_c, 0, 53, 90
1, 937891, Note_on_c, 0, 41, 80
1, 937921, Note_on_c, 0, 53, 0
1, 937936, Note_on_c, 0, 41, 0
1, 938009, Note_on_c, 0, 65, 76
1, 938074, Note_on_c, 0, 65, 0
1, 938132, Note_on_c, 0, 48, 80
1, 938139, Note_on_c, 0, 36, 74
1, 938188, Note_on_c, 0, 36, 0
1, 938201, Control_c, 0, 64, 33
1, 938208, Note_on_c, 0, 48, 0
1, 938250, Note_on_c, 0, 60, 74
1, 938324, Note_on_c, 0, 60, 0
1, 938374, Note_on_c, 0, 38, 71
1, 938376, Note_on_c, 0, 50, 74
1, 938412, Note_on_c, 0, 50, 0
1, 938420, Note_on_c, 0, 38, 0
1, 938472, Note_on_c, 0, 62, 74
1, 938540, Note_on_c, 0, 62, 0
1, 938601, Note_on_c, 0, 40, 73
1, 938604, Note_on_c, 0, 52, 72
1, 938651, Note_on_c, 0, 40, 0
1, 938657, Note_on_c, 0, 52, 0
1, 938714, Note_on_c, 0, 64, 76
1, 938788, Note_on_c, 0, 64, 0
1, 938831, Note_on_c, 0, 53, 83
1, 938836, Note_on_c, 0, 41, 76
1, 938903, Note_on_c, 0, 53, 0
1, 938918, Note_on_c, 0, 41, 0
1, 938939, Note_on_c, 0, 65, 79
1, 939004, Note_on_c, 0, 65, 0
1, 939083, Note_on_c, 0, 41, 75
1, 939083, Note_on_c, 0, 53, 84
1, 939113, Note_on_c, 0, 41, 0
1, 939129, Note_on_c, 0, 53, 0
1, 939194, Note_on_c, 0, 65, 82
1, 939318, Note_on_c, 0, 61, 98
1, 939324, Note_on_c, 0, 49, 81
1, 939333, Note_on_c, 0, 65, 0
1, 939429, Note_on_c, 0, 73, 85
1, 939433, Note_on_c, 0, 49, 0
1, 939439, Note_on_c, 0, 61, 0
1, 939494, Note_on_c, 0, 73, 0
1, 939546, Note_on_c, 0, 60, 91
1, 939553, Note_on_c, 0, 48, 78
1, 939592, Note_on_c, 0, 48, 0
1, 939594, Note_on_c, 0, 60, 0
1, 939682, Note_on_c, 0, 72, 87
1, 939769, Note_on_c, 0, 72, 0
1, 939787, Note_on_c, 0, 58, 88
1, 939791, Note_on_c, 0, 46, 76
1, 939850, Note_on_c, 0, 58, 0
1, 939873, Note_on_c, 0, 46, 0
1, 939917, Note_on_c, 0, 70, 84
1, 940020, Note_on_c, 0, 70, 0
1, 940048, Note_on_c, 0, 44, 80
1, 940049, Note_on_c, 0, 56, 79
1, 940103, Note_on_c, 0, 56, 0
1, 940130, Note_on_c, 0, 44, 0
1, 940162, Note_on_c, 0, 68, 81
1, 940228, Note_on_c, 0, 68, 0
1, 940282, Note_on_c, 0, 55, 80
1, 940284, Note_on_c, 0, 43, 76
1, 940347, Note_on_c, 0, 43, 0
1, 940349, Note_on_c, 0, 55, 0
1, 940403, Note_on_c, 0, 67, 80
1, 940454, Note_on_c, 0, 67, 0
1, 940492, Poly_aftertouch_c, 0, 70, 0
1, 940514, Control_c, 0, 64, 26
1, 940522, Note_on_c, 0, 53, 82
1, 940528, Note_on_c, 0, 41, 80
1, 940532, Control_c, 0, 64, 13
1, 940551, Control_c, 0, 64, 0
1, 940567, Note_on_c, 0, 53, 0
1, 940573, Note_on_c, 0, 41, 0
1, 940637, Note_on_c, 0, 65, 75
1, 940676, Note_on_c, 0, 65, 0
1, 940770, Note_on_c, 0, 51, 94
1, 940771, Control_c, 0, 64, 13
1, 940777, Note_on_c, 0, 39, 86
1, 940791, Control_c, 0, 64, 31
1, 940832, Note_on_c, 0, 51, 0
1, 940869, Note_on_c, 0, 39, 0
1, 940874, Note_on_c, 0, 63, 76
1, 940907, Note_on_c, 0, 63, 0
1, 941022, Note_on_c, 0, 49, 87
1, 941089, Note_on_c, 0, 49, 0
1, 941144, Note_on_c, 0, 63, 64
1, 941211, Note_on_c, 0, 63, 0
1, 941257, Note_on_c, 0, 48, 81
1, 941305, Note_on_c, 0, 48, 0
1, 941369, Note_on_c, 0, 55, 67
1, 941371, Note_on_c, 0, 51, 69
1, 941377, Note_on_c, 0, 63, 66
1, 941412, Control_c, 0, 64, 27
1, 941429, Note_on_c, 0, 55, 0
1, 941429, Note_on_c, 0, 51, 0
1, 941454, Note_on_c, 0, 63, 0
1, 941492, Note_on_c, 0, 46, 80
1, 941557, Note_on_c, 0, 46, 0
1, 941604, Note_on_c, 0, 63, 71
1, 941610, Note_on_c, 0, 53, 64
1, 941611, Note_on_c, 0, 56, 64
1, 941656, Note_on_c, 0, 53, 0
1, 941667, Note_on_c, 0, 56, 0
1, 941681, Note_on_c, 0, 63, 0
1, 941731, Note_on_c, 0, 44, 84
1, 941795, Note_on_c, 0, 44, 0
1, 941832, Note_on_c, 0, 63, 75
1, 941857, Note_on_c, 0, 55, 69
1, 941862, Note_on_c, 0, 58, 64
1, 941893, Note_on_c, 0, 55, 0
1, 941902, Note_on_c, 0, 58, 0
1, 941914, Note_on_c, 0, 63, 0
1, 941966, Note_on_c, 0, 43, 77
1, 942022, Note_on_c, 0, 43, 0
1, 942075, Note_on_c, 0, 63, 67
1, 942087, Note_on_c, 0, 56, 67
1, 942091, Note_on_c, 0, 60, 67
1, 942148, Note_on_c, 0, 56, 0
1, 942150, Note_on_c, 0, 60, 0
1, 942179, Note_on_c, 0, 63, 0
1, 942210, Note_on_c, 0, 41, 81
1, 942284, Note_on_c, 0, 41, 0
1, 942324, Note_on_c, 0, 63, 71
1, 942328, Note_on_c, 0, 61, 74
1, 942357, Note_on_c, 0, 58, 47
1, 942387, Note_on_c, 0, 63, 0
1, 942393, Note_on_c, 0, 58, 0
1, 942394, Note_on_c, 0, 61, 0
1, 942454, Note_on_c, 0, 39, 74
1, 942495, Control_c, 0, 64, 17
1, 942503, Note_on_c, 0, 39, 0
1, 942514, Control_c, 0, 64, 0
1, 942551, Note_on_c, 0, 63, 68
1, 942561, Note_on_c, 0, 58, 52
1, 942566, Note_on_c, 0, 55, 62
1, 942597, Note_on_c, 0, 63, 0
1, 942603, Note_on_c, 0, 55, 0
1, 942608, Note_on_c, 0, 58, 0
1, 942689, Note_on_c, 0, 44, 70
1, 942698, Control_c, 0, 64, 39
1, 942698, Note_on_c, 0, 60, 66
1, 942715, Control_c, 0, 64, 63
1, 942722, Note_on_c, 0, 44, 0
1, 942728, Note_on_c, 0, 60, 0
1, 942963, Note_on_c, 0, 67, 69
1, 942971, Control_c, 0, 64, 61
1, 942971, Note_on_c, 0, 35, 64
1, 942991, Control_c, 0, 64, 47
1, 942993, Note_on_c, 0, 55, 29
1, 942994, Note_on_c, 0, 55, 0
1, 942999, Note_on_c, 0, 67, 0
1, 943007, Control_c, 0, 64, 9
1, 943022, Note_on_c, 0, 35, 0
1, 943023, Control_c, 0, 64, 0
1, 943046, Note_on_c, 0, 33, 65
1, 943104, Note_on_c, 0, 33, 0
1, 943125, Note_on_c, 0, 35, 65
1, 943173, Note_on_c, 0, 35, 0
1, 943199, Note_on_c, 0, 36, 68
1, 943210, Note_on_c, 0, 75, 94
1, 943218, Note_on_c, 0, 63, 66
1, 943244, Note_on_c, 0, 36, 0
1, 943252, Note_on_c, 0, 63, 0
1, 943269, Note_on_c, 0, 75, 0
1, 943297, Note_on_c, 0, 39, 69
1, 943382, Note_on_c, 0, 41, 79
1, 943389, Note_on_c, 0, 39, 0
1, 943438, Note_on_c, 0, 41, 0
1, 943446, Poly_aftertouch_c, 0, 68, 0
1, 943449, Note_on_c, 0, 74, 96
1, 943468, Note_on_c, 0, 62, 68
1, 943469, Note_on_c, 0, 43, 73
1, 943489, Note_on_c, 0, 62, 0
1, 943490, Note_on_c, 0, 74, 0
1, 943555, Note_on_c, 0, 43, 0
1, 943557, Note_on_c, 0, 45, 79
1, 943641, Note_on_c, 0, 45, 0
1, 943644, Note_on_c, 0, 47, 81
1, 943688, Note_on_c, 0, 47, 0
1, 943701, Note_on_c, 0, 72, 95
1, 943727, Note_on_c, 0, 60, 81
1, 943732, Note_on_c, 0, 48, 63
1, 943734, Note_on_c, 0, 72, 0
1, 943759, Note_on_c, 0, 60, 0
1, 943793, Note_on_c, 0, 48, 0
1, 943810, Note_on_c, 0, 50, 74
1, 943886, Note_on_c, 0, 50, 0
1, 943888, Note_on_c, 0, 51, 71
1, 943937, Note_on_c, 0, 51, 0
1, 943960, Note_on_c, 0, 53, 74
1, 943962, Note_on_c, 0, 67, 85
1, 943975, Note_on_c, 0, 55, 70
1, 944002, Note_on_c, 0, 55, 0
1, 944007, Note_on_c, 0, 67, 0
1, 944033, Note_on_c, 0, 53, 0
1, 944053, Note_on_c, 0, 51, 71
1, 944126, Note_on_c, 0, 51, 0
1, 944140, Note_on_c, 0, 50, 64
1, 944202, Note_on_c, 0, 50, 0
1, 944209, Note_on_c, 0, 69, 78
1, 944213, Note_on_c, 0, 48, 70
1, 944225, Note_on_c, 0, 57, 56
1, 944244, Note_on_c, 0, 69, 0
1, 944254, Note_on_c, 0, 57, 0
1, 944300, Note_on_c, 0, 50, 69
1, 944301, Note_on_c, 0, 48, 0
1, 944366, Note_on_c, 0, 51, 77
1, 944370, Note_on_c, 0, 50, 0
1, 944421, Note_on_c, 0, 51, 0
1, 944445, Note_on_c, 0, 71, 81
1, 944451, Note_on_c, 0, 53, 70
1, 944462, Note_on_c, 0, 59, 59
1, 944489, Note_on_c, 0, 71, 0
1, 944491, Note_on_c, 0, 59, 0
1, 944516, Note_on_c, 0, 53, 0
1, 944558, Note_on_c, 0, 51, 60
1, 944610, Note_on_c, 0, 51, 0
1, 944639, Note_on_c, 0, 50, 53
1, 944693, Note_on_c, 0, 72, 79
1, 944697, Note_on_c, 0, 50, 0
1, 944701, Note_on_c, 0, 48, 66
1, 944704, Note_on_c, 0, 60, 70
1, 944712, Control_c, 0, 64, 47
1, 944731, Note_on_c, 0, 60, 0
1, 944732, Control_c, 0, 64, 66
1, 944733, Note_on_c, 0, 48, 0
1, 944745, Note_on_c, 0, 72, 0
1, 944915, Control_c, 0, 64, 64
1, 944934, Control_c, 0, 64, 59
1, 944951, Control_c, 0, 64, 54
1, 944956, Note_on_c, 0, 72, 82
1, 944961, Note_on_c, 0, 40, 66
1, 944970, Control_c, 0, 64, 49
1, 944972, Note_on_c, 0, 60, 55
1, 944986, Note_on_c, 0, 72, 0
1, 945002, Note_on_c, 0, 40, 0
1, 945008, Note_on_c, 0, 60, 0
1, 945025, Control_c, 0, 64, 47
1, 945030, Note_on_c, 0, 38, 66
1, 945082, Control_c, 0, 64, 45
1, 945103, Note_on_c, 0, 38, 0
1, 945105, Note_on_c, 0, 40, 70
1, 945155, Note_on_c, 0, 40, 0
1, 945187, Note_on_c, 0, 41, 69
1, 945193, Note_on_c, 0, 80, 93
1, 945196, Note_on_c, 0, 68, 78
1, 945228, Note_on_c, 0, 68, 0
1, 945234, Note_on_c, 0, 41, 0
1, 945246, Note_on_c, 0, 80, 0
1, 945281, Note_on_c, 0, 44, 77
1, 945321, Control_c, 0, 64, 43
1, 945356, Note_on_c, 0, 46, 76
1, 945371, Note_on_c, 0, 44, 0
1, 945422, Note_on_c, 0, 46, 0
1, 945434, Note_on_c, 0, 79, 93
1, 945435, Note_on_c, 0, 48, 73
1, 945448, Note_on_c, 0, 67, 71
1, 945470, Note_on_c, 0, 67, 0
1, 945486, Note_on_c, 0, 79, 0
1, 945495, Note_on_c, 0, 48, 0
1, 945529, Note_on_c, 0, 50, 72
1, 945632, Note_on_c, 0, 52, 83
1, 945638, Note_on_c, 0, 50, 0
1, 945663, Poly_aftertouch_c, 0, 48, 0
1, 945675, Note_on_c, 0, 52, 0
1, 945694, Note_on_c, 0, 77, 102
1, 945706, Note_on_c, 0, 53, 75
1, 945706, Note_on_c, 0, 65, 85
1, 945723, Control_c, 0, 64, 41
1, 945732, Note_on_c, 0, 77, 0
1, 945736, Note_on_c, 0, 65, 0
1, 945781, Note_on_c, 0, 55, 83
1, 945786, Note_on_c, 0, 53, 0
1, 945869, Note_on_c, 0, 55, 0
1, 945871, Poly_aftertouch_c, 0, 65, 0
1, 945872, Note_on_c, 0, 56, 78
1, 945913, Note_on_c, 0, 56, 0
1, 945935, Note_on_c, 0, 58, 79
1, 945940, Note_on_c, 0, 72, 87
1, 945946, Note_on_c, 0, 60, 82
1, 945976, Note_on_c, 0, 60, 0
1, 946002, Note_on_c, 0, 72, 0
1, 946008, Note_on_c, 0, 58, 0
1, 946024, Note_on_c, 0, 56, 75
1, 946091, Note_on_c, 0, 56, 0
1, 946092, Note_on_c, 0, 55, 68
1, 946171, Note_on_c, 0, 55, 0
1, 946174, Note_on_c, 0, 53, 71
1, 946177, Note_on_c, 0, 74, 89
1, 946191, Note_on_c, 0, 62, 72
1, 946225, Note_on_c, 0, 62, 0
1, 946240, Note_on_c, 0, 74, 0
1, 946257, Note_on_c, 0, 55, 70
1, 946269, Note_on_c, 0, 53, 0
1, 946328, Note_on_c, 0, 56, 74
1, 946329, Note_on_c, 0, 55, 0
1, 946384, Note_on_c, 0, 56, 0
1, 946395, Note_on_c, 0, 58, 74
1, 946414, Note_on_c, 0, 76, 92
1, 946421, Control_c, 0, 64, 35
1, 946429, Note_on_c, 0, 64, 71
1, 946441, Control_c, 0, 64, 15
1, 946458, Control_c, 0, 64, 0
1, 946465, Note_on_c, 0, 64, 0
1, 946473, Note_on_c, 0, 58, 0
1, 946479, Note_on_c, 0, 76, 0
1, 946484, Note_on_c, 0, 56, 69
1, 946586, Note_on_c, 0, 56, 0
1, 946588, Note_on_c, 0, 55, 69
1, 946663, Note_on_c, 0, 55, 0
1, 946664, Note_on_c, 0, 77, 95
1, 946666, Note_on_c, 0, 53, 63
1, 946674, Note_on_c, 0, 65, 73
1, 946677, Control_c, 0, 64, 46
1, 946694, Control_c, 0, 64, 66
1, 946697, Note_on_c, 0, 53, 0
1, 946697, Note_on_c, 0, 65, 0
1, 946714, Control_c, 0, 64, 68
1, 946738, Note_on_c, 0, 77, 0
1, 946878, Control_c, 0, 64, 67
1, 946897, Control_c, 0, 64, 65
1, 946914, Control_c, 0, 64, 62
1, 946920, Note_on_c, 0, 45, 67
1, 946924, Note_on_c, 0, 77, 92
1, 946933, Control_c, 0, 64, 60
1, 946936, Note_on_c, 0, 65, 68
1, 946952, Control_c, 0, 64, 58
1, 946962, Note_on_c, 0, 65, 0
1, 946966, Note_on_c, 0, 77, 0
1, 946988, Note_on_c, 0, 45, 0
1, 946989, Control_c, 0, 64, 56
1, 947000, Note_on_c, 0, 43, 72
1, 947097, Control_c, 0, 64, 54
1, 947098, Note_on_c, 0, 45, 72
1, 947104, Note_on_c, 0, 43, 0
1, 947163, Note_on_c, 0, 85, 98
1, 947167, Note_on_c, 0, 73, 84
1, 947172, Note_on_c, 0, 46, 77
1, 947173, Note_on_c, 0, 45, 0
1, 947192, Control_c, 0, 64, 52
1, 947203, Note_on_c, 0, 73, 0
1, 947216, Note_on_c, 0, 85, 0
1, 947220, Note_on_c, 0, 46, 0
1, 947248, Note_on_c, 0, 48, 71
1, 947340, Control_c, 0, 64, 50
1, 947343, Note_on_c, 0, 46, 71
1, 947350, Note_on_c, 0, 48, 0
1, 947406, Note_on_c, 0, 45, 75
1, 947415, Note_on_c, 0, 46, 0
1, 947420, Note_on_c, 0, 84, 96
1, 947429, Note_on_c, 0, 72, 81
1, 947432, Control_c, 0, 64, 48
1, 947454, Note_on_c, 0, 72, 0
1, 947500, Note_on_c, 0, 84, 0
1, 947502, Note_on_c, 0, 43, 69
1, 947503, Note_on_c, 0, 45, 0
1, 947593, Note_on_c, 0, 45, 68
1, 947597, Note_on_c, 0, 43, 0
1, 947661, Note_on_c, 0, 45, 0
1, 947668, Note_on_c, 0, 46, 78
1, 947675, Note_on_c, 0, 82, 90
1, 947686, Note_on_c, 0, 70, 75
1, 947715, Note_on_c, 0, 70, 0
1, 947737, Note_on_c, 0, 82, 0
1, 947739, Control_c, 0, 64, 46
1, 947740, Note_on_c, 0, 46, 0
1, 947762, Note_on_c, 0, 45, 69
1, 947842, Note_on_c, 0, 46, 76
1, 947856, Note_on_c, 0, 45, 0
1, 947909, Note_on_c, 0, 80, 92
1, 947915, Note_on_c, 0, 46, 0
1, 947921, Note_on_c, 0, 68, 76
1, 947922, Note_on_c, 0, 48, 73
1, 947947, Note_on_c, 0, 68, 0
1, 947962, Note_on_c, 0, 80, 0
1, 947990, Note_on_c, 0, 47, 75
1, 948002, Note_on_c, 0, 48, 0
1, 948068, Note_on_c, 0, 48, 66
1, 948099, Note_on_c, 0, 47, 0
1, 948107, Control_c, 0, 64, 44
1, 948146, Note_on_c, 0, 49, 81
1, 948149, Note_on_c, 0, 48, 0
1, 948155, Note_on_c, 0, 79, 87
1, 948163, Note_on_c, 0, 67, 76
1, 948192, Note_on_c, 0, 67, 0
1, 948211, Note_on_c, 0, 79, 0
1, 948233, Note_on_c, 0, 48, 73
1, 948246, Note_on_c, 0, 49, 0
1, 948319, Note_on_c, 0, 49, 73
1, 948321, Note_on_c, 0, 48, 0
1, 948383, Note_on_c, 0, 49, 0
1, 948396, Note_on_c, 0, 50, 73
1, 948409, Note_on_c, 0, 77, 88
1, 948419, Note_on_c, 0, 65, 79
1, 948451, Note_on_c, 0, 65, 0
1, 948457, Note_on_c, 0, 77, 0
1, 948485, Note_on_c, 0, 50, 0
1, 948486, Note_on_c, 0, 48, 68
1, 948548, Control_c, 0, 64, 42
1, 948574, Note_on_c, 0, 50, 75
1, 948618, Note_on_c, 0, 48, 0
1, 948643, Note_on_c, 0, 75, 92
1, 948647, Note_on_c, 0, 51, 84
1, 948653, Note_on_c, 0, 63, 79
1, 948656, Note_on_c, 0, 50, 0
1, 948682, Note_on_c, 0, 63, 0
1, 948713, Note_on_c, 0, 51, 0
1, 948720, Note_on_c, 0, 75, 0
1, 948721, Note_on_c, 0, 53, 67
1, 948802, Note_on_c, 0, 53, 0
1, 948820, Note_on_c, 0, 51, 72
1, 948849, Poly_aftertouch_c, 0, 48, 127
1, 948871, Note_on_c, 0, 48, 53
1, 948882, Note_on_c, 0, 48, 0
1, 948882, Poly_aftertouch_c, 0, 48, 0
1, 948884, Note_on_c, 0, 75, 77
1, 948885, Note_on_c, 0, 49, 75
1, 948892, Note_on_c, 0, 51, 0
1, 948896, Note_on_c, 0, 63, 61
1, 948924, Note_on_c, 0, 63, 0
1, 948933, Note_on_c, 0, 75, 0
1, 948956, Note_on_c, 0, 49, 0
1, 948975, Note_on_c, 0, 51, 73
1, 949048, Note_on_c, 0, 49, 65
1, 949059, Note_on_c, 0, 51, 0
1, 949100, Note_on_c, 0, 49, 0
1, 949120, Note_on_c, 0, 48, 80
1, 949130, Note_on_c, 0, 67, 67
1, 949131, Note_on_c, 0, 75, 82
1, 949141, Note_on_c, 0, 63, 64
1, 949163, Note_on_c, 0, 67, 0
1, 949166, Note_on_c, 0, 63, 0
1, 949181, Note_on_c, 0, 48, 0
1, 949197, Note_on_c, 0, 75, 0
1, 949223, Note_on_c, 0, 49, 75
1, 949262, Note_on_c, 0, 49, 0
1, 949288, Note_on_c, 0, 48, 69
1, 949389, Note_on_c, 0, 68, 78
1, 949390, Note_on_c, 0, 75, 83
1, 949392, Note_on_c, 0, 48, 0
1, 949392, Note_on_c, 0, 46, 76
1, 949394, Note_on_c, 0, 65, 69
1, 949418, Note_on_c, 0, 68, 0
1, 949421, Note_on_c, 0, 65, 0
1, 949429, Note_on_c, 0, 46, 0
1, 949446, Note_on_c, 0, 75, 0
1, 949480, Note_on_c, 0, 48, 58
1, 949537, Note_on_c, 0, 48, 0
1, 949544, Note_on_c, 0, 46, 72
1, 949630, Note_on_c, 0, 44, 77
1, 949631, Note_on_c, 0, 46, 0
1, 949645, Note_on_c, 0, 67, 69
1, 949645, Note_on_c, 0, 75, 74
1, 949648, Note_on_c, 0, 70, 65
1, 949665, Note_on_c, 0, 67, 0
1, 949680, Note_on_c, 0, 70, 0
1, 949683, Control_c, 0, 64, 40
1, 949684, Note_on_c, 0, 75, 0
1, 949691, Note_on_c, 0, 44, 0
1, 949709, Note_on_c, 0, 46, 74
1, 949799, Note_on_c, 0, 44, 75
1, 949800, Note_on_c, 0, 46, 0
1, 949853, Note_on_c, 0, 44, 0
1, 949864, Note_on_c, 0, 43, 81
1, 949871, Note_on_c, 0, 72, 78
1, 949877, Note_on_c, 0, 75, 80
1, 949889, Note_on_c, 0, 68, 60
1, 949913, Note_on_c, 0, 72, 0
1, 949918, Note_on_c, 0, 68, 0
1, 949946, Note_on_c, 0, 43, 0
1, 949948, Note_on_c, 0, 75, 0
1, 949959, Note_on_c, 0, 44, 80
1, 950016, Note_on_c, 0, 44, 0
1, 950042, Note_on_c, 0, 43, 66
1, 950125, Note_on_c, 0, 75, 80
1, 950127, Note_on_c, 0, 43, 0
1, 950127, Note_on_c, 0, 41, 76
1, 950129, Note_on_c, 0, 70, 75
1, 950133, Note_on_c, 0, 73, 69
1, 950161, Note_on_c, 0, 70, 0
1, 950167, Note_on_c, 0, 73, 0
1, 950182, Note_on_c, 0, 41, 0
1, 950193, Note_on_c, 0, 75, 0
1, 950207, Note_on_c, 0, 43, 62
1, 950302, Note_on_c, 0, 41, 76
1, 950306, Note_on_c, 0, 43, 0
1, 950375, Note_on_c, 0, 41, 0
1, 950380, Note_on_c, 0, 39, 77
1, 950383, Note_on_c, 0, 70, 72
1, 950387, Note_on_c, 0, 67, 71
1, 950395, Note_on_c, 0, 75, 58
1, 950415, Note_on_c, 0, 70, 0
1, 950417, Note_on_c, 0, 67, 0
1, 950419, Note_on_c, 0, 75, 0
1, 950457, Note_on_c, 0, 39, 0
1, 950457, Note_on_c, 0, 41, 79
1, 950492, Control_c, 0, 64, 15
1, 950512, Control_c, 0, 64, 0
1, 950527, Note_on_c, 0, 41, 0
1, 950554, Note_on_c, 0, 39, 73
1, 950611, Note_on_c, 0, 72, 78
1, 950615, Note_on_c, 0, 44, 85
1, 950618, Note_on_c, 0, 39, 0
1, 950621, Note_on_c, 0, 68, 70
1, 950641, Control_c, 0, 64, 47
1, 950646, Note_on_c, 0, 44, 0
1, 950647, Note_on_c, 0, 72, 0
1, 950657, Note_on_c, 0, 68, 0
1, 950658, Control_c, 0, 64, 72
1, 950715, Control_c, 0, 64, 69
1, 950778, Poly_aftertouch_c, 0, 44, 0
1, 950786, Note_on_c, 0, 44, 25
1, 950787, Note_on_c, 0, 44, 0
1, 950840, Control_c, 0, 64, 68
1, 950859, Control_c, 0, 64, 63
1, 950878, Control_c, 0, 64, 58
1, 950887, Note_on_c, 0, 51, 84
1, 950891, Note_on_c, 0, 39, 72
1, 950893, Note_on_c, 0, 67, 61
1, 950896, Control_c, 0, 64, 55
1, 950915, Control_c, 0, 64, 53
1, 950925, Note_on_c, 0, 39, 0
1, 950926, Note_on_c, 0, 51, 0
1, 950928, Note_on_c, 0, 67, 0
1, 950953, Control_c, 0, 64, 50
1, 950968, Note_on_c, 0, 65, 67
1, 950988, Control_c, 0, 64, 47
1, 951016, Note_on_c, 0, 65, 0
1, 951021, Note_on_c, 0, 67, 62
1, 951062, Control_c, 0, 64, 45
1, 951102, Note_on_c, 0, 68, 76
1, 951105, Note_on_c, 0, 67, 0
1, 951121, Note_on_c, 0, 60, 98
1, 951131, Note_on_c, 0, 48, 81
1, 951132, Note_on_c, 0, 68, 0
1, 951135, Control_c, 0, 64, 43
1, 951168, Note_on_c, 0, 48, 0
1, 951170, Note_on_c, 0, 60, 0
1, 951192, Control_c, 0, 64, 41
1, 951199, Note_on_c, 0, 72, 76
1, 951283, Note_on_c, 0, 72, 0
1, 951294, Note_on_c, 0, 73, 80
1, 951373, Note_on_c, 0, 75, 84
1, 951373, Note_on_c, 0, 58, 99
1, 951386, Note_on_c, 0, 73, 0
1, 951395, Note_on_c, 0, 46, 76
1, 951415, Poly_aftertouch_c, 0, 48, 0
1, 951419, Note_on_c, 0, 58, 0
1, 951434, Note_on_c, 0, 75, 0
1, 951438, Note_on_c, 0, 46, 0
1, 951455, Note_on_c, 0, 77, 83
1, 951549, Note_on_c, 0, 79, 86
1, 951553, Note_on_c, 0, 77, 0
1, 951621, Note_on_c, 0, 56, 97
1, 951627, Note_on_c, 0, 80, 89
1, 951634, Note_on_c, 0, 44, 83
1, 951643, Note_on_c, 0, 79, 0
1, 951668, Note_on_c, 0, 56, 0
1, 951676, Note_on_c, 0, 44, 0
1, 951713, Note_on_c, 0, 82, 80
1, 951732, Note_on_c, 0, 80, 0
1, 951761, Note_on_c, 0, 82, 0
1, 951787, Note_on_c, 0, 84, 86
1, 951851, Control_c, 0, 64, 37
1, 951866, Note_on_c, 0, 84, 0
1, 951869, Note_on_c, 0, 85, 86
1, 951872, Note_on_c, 0, 51, 90
1, 951876, Note_on_c, 0, 39, 79
1, 951913, Note_on_c, 0, 39, 0
1, 951946, Note_on_c, 0, 51, 0
1, 951956, Note_on_c, 0, 84, 81
1, 952002, Note_on_c, 0, 85, 0
1, 952036, Note_on_c, 0, 84, 0
1, 952039, Note_on_c, 0, 82, 86
1, 952105, Note_on_c, 0, 53, 86
1, 952109, Note_on_c, 0, 41, 81
1, 952120, Note_on_c, 0, 85, 89
1, 952130, Note_on_c, 0, 82, 0
1, 952167, Note_on_c, 0, 53, 0
1, 952171, Note_on_c, 0, 41, 0
1, 952216, Control_c, 0, 64, 33
1, 952224, Note_on_c, 0, 84, 78
1, 952263, Note_on_c, 0, 85, 0
1, 952298, Note_on_c, 0, 82, 77
1, 952304, Note_on_c, 0, 84, 0
1, 952353, Note_on_c, 0, 55, 88
1, 952361, Note_on_c, 0, 43, 79
1, 952371, Note_on_c, 0, 85, 89
1, 952375, Note_on_c, 0, 82, 0
1, 952381, Control_c, 0, 64, 29
1, 952384, Note_on_c, 0, 55, 0
1, 952396, Note_on_c, 0, 43, 0
1, 952399, Control_c, 0, 64, 18
1, 952418, Control_c, 0, 64, 0
1, 952441, Note_on_c, 0, 84, 81
1, 952507, Note_on_c, 0, 85, 0
1, 952520, Note_on_c, 0, 82, 81
1, 952528, Note_on_c, 0, 84, 0
1, 952594, Note_on_c, 0, 80, 90
1, 952597, Note_on_c, 0, 44, 84
1, 952598, Note_on_c, 0, 56, 85
1, 952601, Control_c, 0, 64, 44
1, 952606, Note_on_c, 0, 82, 0
1, 952614, Note_on_c, 0, 80, 0
1, 952619, Control_c, 0, 64, 81
1, 952622, Note_on_c, 0, 56, 0
1, 952635, Poly_aftertouch_c, 0, 50, 127
1, 952638, Control_c, 0, 64, 87
1, 952652, Note_on_c, 0, 44, 0
1, 952659, Poly_aftertouch_c, 0, 50, 0
1, 952825, Control_c, 0, 64, 76
1, 952843, Control_c, 0, 64, 37
1, 952843, Note_on_c, 0, 48, 84
1, 952847, Note_on_c, 0, 36, 73
1, 952848, Note_on_c, 0, 64, 74
1, 952859, Control_c, 0, 64, 0
1, 952882, Note_on_c, 0, 36, 0
1, 952888, Note_on_c, 0, 48, 0
1, 952908, Note_on_c, 0, 64, 0
1, 952934, Note_on_c, 0, 62, 80
1, 953000, Note_on_c, 0, 62, 0
1, 953003, Note_on_c, 0, 64, 80
1, 953043, Note_on_c, 0, 64, 0
1, 953102, Note_on_c, 0, 56, 95
1, 953104, Note_on_c, 0, 65, 86
1, 953112, Note_on_c, 0, 44, 72
1, 953151, Note_on_c, 0, 44, 0
1, 953154, Note_on_c, 0, 56, 0
1, 953163, Note_on_c, 0, 65, 0
1, 953198, Note_on_c, 0, 68, 81
1, 953265, Note_on_c, 0, 70, 83
1, 953266, Note_on_c, 0, 68, 0
1, 953323, Note_on_c, 0, 70, 0
1, 953333, Note_on_c, 0, 43, 78
1, 953333, Note_on_c, 0, 55, 88
1, 953345, Note_on_c, 0, 72, 85
1, 953372, Note_on_c, 0, 55, 0
1, 953377, Note_on_c, 0, 43, 0
1, 953427, Note_on_c, 0, 72, 0
1, 953428, Note_on_c, 0, 74, 86
1, 953502, Note_on_c, 0, 76, 87
1, 953505, Note_on_c, 0, 74, 0
1, 953552, Note_on_c, 0, 76, 0
1, 953566, Note_on_c, 0, 53, 88
1, 953568, Note_on_c, 0, 41, 84
1, 953575, Note_on_c, 0, 77, 83
1, 953593, Note_on_c, 0, 53, 0
1, 953610, Note_on_c, 0, 41, 0
1, 953655, Note_on_c, 0, 77, 0
1, 953658, Note_on_c, 0, 79, 81
1, 953730, Note_on_c, 0, 80, 86
1, 953737, Note_on_c, 0, 79, 0
1, 953797, Note_on_c, 0, 48, 80
1, 953804, Note_on_c, 0, 36, 67
1, 953806, Note_on_c, 0, 82, 82
1, 953807, Note_on_c, 0, 80, 0
1, 953838, Note_on_c, 0, 48, 0
1, 953840, Note_on_c, 0, 36, 0
1, 953887, Note_on_c, 0, 80, 79
1, 953925, Note_on_c, 0, 82, 0
1, 953966, Note_on_c, 0, 79, 78
1, 953976, Note_on_c, 0, 80, 0
1, 954053, Note_on_c, 0, 50, 77
1, 954054, Note_on_c, 0, 38, 76
1, 954056, Note_on_c, 0, 79, 0
1, 954057, Note_on_c, 0, 82, 85
1, 954092, Note_on_c, 0, 50, 0
1, 954098, Note_on_c, 0, 38, 0
1, 954136, Note_on_c, 0, 80, 80
1, 954163, Note_on_c, 0, 82, 0
1, 954209, Note_on_c, 0, 79, 70
1, 954212, Note_on_c, 0, 80, 0
1, 954282, Note_on_c, 0, 52, 68
1, 954284, Note_on_c, 0, 82, 81
1, 954288, Note_on_c, 0, 40, 58
1, 954290, Note_on_c, 0, 79, 0
1, 954321, Note_on_c, 0, 40, 0
1, 954327, Note_on_c, 0, 52, 0
1, 954349, Note_on_c, 0, 80, 80
1, 954379, Note_on_c, 0, 82, 0
1, 954428, Note_on_c, 0, 80, 0
1, 954440, Note_on_c, 0, 79, 73
1, 954504, Note_on_c, 0, 53, 84
1, 954505, Note_on_c, 0, 41, 75
1, 954511, Control_c, 0, 64, 24
1, 954512, Note_on_c, 0, 79, 0
1, 954524, Note_on_c, 0, 80, 80
1, 954529, Control_c, 0, 64, 61
1, 954536, Note_on_c, 0, 41, 0
1, 954536, Note_on_c, 0, 53, 0
1, 954548, Control_c, 0, 64, 71
1, 954594, Note_on_c, 0, 80, 0
1, 954606, Note_on_c, 0, 82, 79
1, 954688, Note_on_c, 0, 80, 73
1, 954696, Control_c, 0, 64, 69
1, 954715, Control_c, 0, 64, 65
1, 954717, Note_on_c, 0, 82, 0
1, 954732, Control_c, 0, 64, 61
1, 954749, Control_c, 0, 64, 58
1, 954754, Note_on_c, 0, 65, 84
1, 954756, Note_on_c, 0, 80, 0
1, 954757, Note_on_c, 0, 53, 76
1, 954764, Note_on_c, 0, 79, 78
1, 954799, Note_on_c, 0, 53, 0
1, 954803, Note_on_c, 0, 65, 0
1, 954803, Control_c, 0, 64, 56
1, 954816, Note_on_c, 0, 79, 0
1, 954822, Control_c, 0, 64, 53
1, 954841, Note_on_c, 0, 80, 76
1, 954842, Control_c, 0, 64, 51
1, 954879, Control_c, 0, 64, 49
1, 954928, Note_on_c, 0, 79, 75
1, 954935, Note_on_c, 0, 80, 0
1, 954967, Control_c, 0, 64, 47
1, 954996, Note_on_c, 0, 79, 0
1, 955005, Control_c, 0, 64, 44
1, 955012, Poly_aftertouch_c, 0, 63, 0
1, 955014, Note_on_c, 0, 77, 77
1, 955019, Note_on_c, 0, 68, 88
1, 955020, Note_on_c, 0, 56, 73
1, 955022, Note_on_c, 0, 63, 26
1, 955023, Note_on_c, 0, 63, 0
1, 955056, Note_on_c, 0, 56, 0
1, 955063, Note_on_c, 0, 77, 0
1, 955078, Control_c, 0, 64, 42
1, 955081, Note_on_c, 0, 68, 0
1, 955106, Note_on_c, 0, 79, 73
1, 955134, Control_c, 0, 64, 40
1, 955186, Note_on_c, 0, 77, 74
1, 955211, Note_on_c, 0, 79, 0
1, 955240, Note_on_c, 0, 67, 85
1, 955242, Note_on_c, 0, 77, 0
1, 955247, Note_on_c, 0, 55, 74
1, 955254, Note_on_c, 0, 75, 72
1, 955280, Note_on_c, 0, 67, 0
1, 955280, Control_c, 0, 64, 36
1, 955282, Note_on_c, 0, 55, 0
1, 955301, Note_on_c, 0, 75, 0
1, 955330, Note_on_c, 0, 77, 69
1, 955404, Note_on_c, 0, 77, 0
1, 955410, Note_on_c, 0, 75, 78
1, 955470, Note_on_c, 0, 65, 87
1, 955471, Note_on_c, 0, 75, 0
1, 955474, Note_on_c, 0, 53, 78
1, 955481, Note_on_c, 0, 74, 78
1, 955503, Note_on_c, 0, 65, 0
1, 955508, Note_on_c, 0, 53, 0
1, 955533, Note_on_c, 0, 74, 0
1, 955566, Note_on_c, 0, 75, 74
1, 955628, Note_on_c, 0, 75, 0
1, 955640, Note_on_c, 0, 74, 73
1, 955707, Note_on_c, 0, 63, 91
1, 955713, Note_on_c, 0, 75, 75
1, 955715, Note_on_c, 0, 51, 77
1, 955719, Note_on_c, 0, 74, 0
1, 955754, Note_on_c, 0, 51, 0
1, 955768, Note_on_c, 0, 63, 0
1, 955776, Note_on_c, 0, 75, 0
1, 955798, Note_on_c, 0, 77, 79
1, 955900, Note_on_c, 0, 77, 0
1, 955901, Note_on_c, 0, 75, 74
1, 955963, Note_on_c, 0, 62, 88
1, 955973, Note_on_c, 0, 75, 0
1, 955973, Note_on_c, 0, 50, 77
1, 955984, Note_on_c, 0, 77, 78
1, 956002, Note_on_c, 0, 62, 0
1, 956005, Note_on_c, 0, 50, 0
1, 956032, Control_c, 0, 64, 28
1, 956035, Note_on_c, 0, 77, 0
1, 956045, Control_c, 0, 64, 20
1, 956056, Note_on_c, 0, 79, 77
1, 956064, Control_c, 0, 64, 0
1, 956133, Note_on_c, 0, 79, 0
1, 956136, Note_on_c, 0, 77, 71
1, 956190, Note_on_c, 0, 60, 86
1, 956202, Note_on_c, 0, 78, 78
1, 956204, Note_on_c, 0, 48, 67
1, 956210, Note_on_c, 0, 77, 0
1, 956215, Note_on_c, 0, 60, 0
1, 956231, Note_on_c, 0, 48, 0
1, 956258, Note_on_c, 0, 78, 0
1, 956270, Note_on_c, 0, 79, 73
1, 956354, Note_on_c, 0, 79, 0
1, 956365, Note_on_c, 0, 78, 77
1, 956469, Note_on_c, 0, 78, 0
1, 956480, Note_on_c, 0, 79, 80
1, 956498, Note_on_c, 0, 59, 106
1, 956505, Note_on_c, 0, 47, 97
1, 956544, Control_c, 0, 64, 45
1, 956563, Control_c, 0, 64, 127
1, 956580, Note_on_c, 0, 80, 81
1, 956587, Note_on_c, 0, 79, 0
1, 956670, Note_on_c, 0, 79, 77
1, 956725, Note_on_c, 0, 80, 0
1, 956733, Note_on_c, 0, 79, 0
1, 956743, Note_on_c, 0, 78, 77
1, 956783, Note_on_c, 0, 59, 0
1, 956812, Note_on_c, 0, 78, 0
1, 956836, Note_on_c, 0, 79, 73
1, 956906, Note_on_c, 0, 79, 0
1, 956928, Note_on_c, 0, 78, 76
1, 956992, Note_on_c, 0, 55, 90
1, 956995, Note_on_c, 0, 43, 75
1, 957003, Note_on_c, 0, 47, 0
1, 957007, Note_on_c, 0, 78, 0
1, 957007, Note_on_c, 0, 79, 86
1, 957020, Control_c, 0, 64, 68
1, 957029, Note_on_c, 0, 55, 0
1, 957037, Control_c, 0, 64, 0
1, 957038, Note_on_c, 0, 43, 0
1, 957063, Note_on_c, 0, 79, 0
1, 957098, Note_on_c, 0, 80, 74
1, 957181, Note_on_c, 0, 79, 73
1, 957220, Note_on_c, 0, 80, 0
1, 957236, Note_on_c, 0, 79, 0
1, 957250, Note_on_c, 0, 55, 78
1, 957251, Note_on_c, 0, 78, 78
1, 957255, Note_on_c, 0, 43, 76
1, 957284, Note_on_c, 0, 55, 0
1, 957289, Note_on_c, 0, 43, 0
1, 957304, Note_on_c, 0, 78, 0
1, 957330, Note_on_c, 0, 79, 75
1, 957394, Note_on_c, 0, 79, 0
1, 957398, Note_on_c, 0, 78, 75
1, 957475, Note_on_c, 0, 55, 82
1, 957475, Note_on_c, 0, 43, 77
1, 957482, Note_on_c, 0, 78, 0
1, 957496, Note_on_c, 0, 79, 80
1, 957513, Note_on_c, 0, 55, 0
1, 957521, Note_on_c, 0, 43, 0
1, 957544, Note_on_c, 0, 79, 0
1, 957560, Note_on_c, 0, 80, 72
1, 957644, Note_on_c, 0, 79, 78
1, 957647, Note_on_c, 0, 80, 0
1, 957699, Note_on_c, 0, 79, 0
1, 957707, Note_on_c, 0, 55, 82
1, 957709, Note_on_c, 0, 43, 79
1, 957722, Note_on_c, 0, 77, 77
1, 957738, Note_on_c, 0, 55, 0
1, 957748, Note_on_c, 0, 43, 0
1, 957787, Note_on_c, 0, 77, 0
1, 957817, Note_on_c, 0, 79, 76
1, 957904, Note_on_c, 0, 77, 75
1, 957929, Note_on_c, 0, 79, 0
1, 957964, Note_on_c, 0, 77, 0
1, 957965, Note_on_c, 0, 55, 82
1, 957968, Note_on_c, 0, 43, 80
1, 957972, Note_on_c, 0, 75, 80
1, 957997, Note_on_c, 0, 55, 0
1, 958010, Note_on_c, 0, 43, 0
1, 958030, Note_on_c, 0, 75, 0
1, 958049, Note_on_c, 0, 77, 76
1, 958120, Note_on_c, 0, 75, 75
1, 958124, Note_on_c, 0, 77, 0
1, 958186, Note_on_c, 0, 43, 72
1, 958188, Note_on_c, 0, 55, 76
1, 958192, Note_on_c, 0, 74, 80
1, 958193, Note_on_c, 0, 75, 0
1, 958222, Note_on_c, 0, 55, 0
1, 958224, Note_on_c, 0, 43, 0
1, 958240, Note_on_c, 0, 74, 0
1, 958279, Note_on_c, 0, 75, 69
1, 958355, Note_on_c, 0, 74, 78
1, 958357, Note_on_c, 0, 75, 0
1, 958419, Note_on_c, 0, 48, 82
1, 958421, Note_on_c, 0, 60, 84
1, 958427, Note_on_c, 0, 72, 88
1, 958433, Note_on_c, 0, 74, 0
1, 958449, Note_on_c, 0, 60, 0
1, 958452, Control_c, 0, 64, 22
1, 958455, Note_on_c, 0, 48, 0
1, 958456, Note_on_c, 0, 72, 0
1, 958469, Control_c, 0, 64, 109
1, 958488, Control_c, 0, 64, 127
1, 958622, Poly_aftertouch_c, 0, 60, 0
1, 958684, Note_on_c, 0, 43, 70
1, 958703, Note_on_c, 0, 70, 14
1, 958704, Control_c, 0, 64, 96
1, 958723, Control_c, 0, 64, 0
1, 958723, Note_on_c, 0, 75, 77
1, 958727, Note_on_c, 0, 63, 67
1, 958736, Note_on_c, 0, 70, 0
1, 958756, Note_on_c, 0, 75, 0
1, 958760, Note_on_c, 0, 63, 0
1, 958773, Note_on_c, 0, 43, 0
1, 958783, Note_on_c, 0, 41, 74
1, 958889, Note_on_c, 0, 43, 73
1, 958893, Note_on_c, 0, 41, 0
1, 958962, Note_on_c, 0, 84, 87
1, 958964, Note_on_c, 0, 44, 80
1, 958967, Note_on_c, 0, 43, 0
1, 958972, Poly_aftertouch_c, 0, 78, 0
1, 958972, Note_on_c, 0, 72, 75
1, 959000, Note_on_c, 0, 72, 0
1, 959007, Note_on_c, 0, 44, 0
1, 959013, Note_on_c, 0, 84, 0
1, 959045, Note_on_c, 0, 48, 69
1, 959130, Note_on_c, 0, 48, 0
1, 959137, Note_on_c, 0, 49, 73
1, 959199, Note_on_c, 0, 70, 86
1, 959200, Note_on_c, 0, 82, 101
1, 959217, Note_on_c, 0, 51, 80
1, 959245, Note_on_c, 0, 70, 0
1, 959268, Note_on_c, 0, 82, 0
1, 959274, Note_on_c, 0, 49, 0
1, 959295, Note_on_c, 0, 53, 78
1, 959309, Note_on_c, 0, 51, 0
1, 959362, Note_on_c, 0, 53, 0
1, 959369, Note_on_c, 0, 55, 71
1, 959437, Note_on_c, 0, 80, 101
1, 959445, Note_on_c, 0, 68, 96
1, 959468, Note_on_c, 0, 55, 0
1, 959468, Note_on_c, 0, 55, 44
1, 959478, Note_on_c, 0, 68, 0
1, 959482, Note_on_c, 0, 80, 0
1, 959487, Note_on_c, 0, 51, 16
1, 959488, Note_on_c, 0, 51, 0
1, 959510, Note_on_c, 0, 55, 0
1, 959524, Note_on_c, 0, 58, 77
1, 959572, Note_on_c, 0, 58, 0
1, 959612, Note_on_c, 0, 60, 74
1, 959689, Note_on_c, 0, 75, 78
1, 959696, Note_on_c, 0, 61, 78
1, 959697, Note_on_c, 0, 63, 82
1, 959698, Note_on_c, 0, 60, 0
1, 959730, Note_on_c, 0, 63, 0
1, 959758, Note_on_c, 0, 61, 0
1, 959781, Note_on_c, 0, 75, 0
1, 959786, Note_on_c, 0, 60, 74
1, 959837, Note_on_c, 0, 60, 0
1, 959878, Note_on_c, 0, 58, 67
1, 959929, Note_on_c, 0, 77, 92
1, 959932, Note_on_c, 0, 58, 0
1, 959932, Note_on_c, 0, 65, 85
1, 959935, Note_on_c, 0, 56, 71
1, 959962, Note_on_c, 0, 65, 0
1, 959987, Note_on_c, 0, 77, 0
1, 960013, Note_on_c, 0, 56, 0
1, 960018, Note_on_c, 0, 58, 70
1, 960062, Note_on_c, 0, 58, 0
1, 960086, Poly_aftertouch_c, 0, 65, 0
1, 960103, Note_on_c, 0, 60, 71
1, 960172, Note_on_c, 0, 61, 75
1, 960176, Note_on_c, 0, 60, 0
1, 960177, Note_on_c, 0, 79, 89
1, 960186, Note_on_c, 0, 67, 79
1, 960212, Note_on_c, 0, 61, 0
1, 960215, Note_on_c, 0, 67, 0
1, 960241, Note_on_c, 0, 79, 0
1, 960256, Note_on_c, 0, 60, 59
1, 960319, Note_on_c, 0, 60, 0
1, 960339, Note_on_c, 0, 58, 67
1, 960396, Control_c, 0, 64, 34
1, 960399, Note_on_c, 0, 80, 94
1, 960401, Note_on_c, 0, 68, 84
1, 960403, Note_on_c, 0, 56, 65
1, 960404, Note_on_c, 0, 58, 0
1, 960413, Control_c, 0, 64, 79
1, 960429, Note_on_c, 0, 56, 0
1, 960429, Note_on_c, 0, 68, 0
1, 960432, Note_on_c, 0, 80, 0
1, 960432, Control_c, 0, 64, 93
1, 960451, Control_c, 0, 64, 103
1, 960651, Control_c, 0, 64, 86
1, 960668, Control_c, 0, 64, 43
1, 960676, Note_on_c, 0, 72, 82
1, 960686, Control_c, 0, 64, 0
1, 960687, Note_on_c, 0, 40, 69
1, 960694, Note_on_c, 0, 60, 61
1, 960714, Note_on_c, 0, 72, 0
1, 960722, Note_on_c, 0, 60, 0
1, 960738, Note_on_c, 0, 40, 0
1, 960754, Note_on_c, 0, 38, 67
1, 960842, Note_on_c, 0, 38, 0
1, 960843, Note_on_c, 0, 40, 70
1, 960892, Note_on_c, 0, 40, 0
1, 960922, Note_on_c, 0, 80, 88
1, 960924, Note_on_c, 0, 68, 73
1, 960924, Note_on_c, 0, 41, 69
1, 960957, Note_on_c, 0, 68, 0
1, 960965, Note_on_c, 0, 41, 0
1, 960970, Note_on_c, 0, 80, 0
1, 961026, Note_on_c, 0, 44, 74
1, 961090, Note_on_c, 0, 46, 78
1, 961116, Note_on_c, 0, 44, 0
1, 961146, Note_on_c, 0, 46, 0
1, 961162, Note_on_c, 0, 79, 84
1, 961168, Note_on_c, 0, 67, 77
1, 961173, Note_on_c, 0, 48, 68
1, 961200, Note_on_c, 0, 67, 0
1, 961209, Note_on_c, 0, 79, 0
1, 961257, Note_on_c, 0, 48, 0
1, 961261, Note_on_c, 0, 50, 80
1, 961345, Note_on_c, 0, 52, 82
1, 961357, Note_on_c, 0, 50, 0
1, 961402, Note_on_c, 0, 52, 0
1, 961409, Note_on_c, 0, 77, 92
1, 961419, Note_on_c, 0, 53, 71
1, 961419, Note_on_c, 0, 65, 80
1, 961443, Note_on_c, 0, 77, 0
1, 961451, Note_on_c, 0, 65, 0
1, 961497, Note_on_c, 0, 53, 0
1, 961511, Note_on_c, 0, 55, 80
1, 961587, Note_on_c, 0, 56, 81
1, 961592, Note_on_c, 0, 55, 0
1, 961655, Note_on_c, 0, 56, 0
1, 961659, Note_on_c, 0, 58, 80
1, 961662, Note_on_c, 0, 72, 87
1, 961677, Note_on_c, 0, 60, 71
1, 961701, Note_on_c, 0, 60, 0
1, 961722, Note_on_c, 0, 72, 0
1, 961740, Note_on_c, 0, 58, 0
1, 961744, Note_on_c, 0, 56, 76
1, 961801, Note_on_c, 0, 55, 71
1, 961817, Note_on_c, 0, 56, 0
1, 961887, Note_on_c, 0, 53, 74
1, 961891, Note_on_c, 0, 55, 0
1, 961906, Note_on_c, 0, 74, 89
1, 961922, Note_on_c, 0, 62, 66
1, 961948, Note_on_c, 0, 62, 0
1, 961963, Note_on_c, 0, 74, 0
1, 961971, Note_on_c, 0, 55, 65
1, 961989, Note_on_c, 0, 53, 0
1, 962048, Note_on_c, 0, 56, 79
1, 962062, Note_on_c, 0, 55, 0
1, 962115, Note_on_c, 0, 56, 0
1, 962126, Note_on_c, 0, 58, 73
1, 962150, Note_on_c, 0, 76, 90
1, 962163, Note_on_c, 0, 64, 71
1, 962195, Poly_aftertouch_c, 0, 70, 0
1, 962198, Note_on_c, 0, 64, 0
1, 962206, Note_on_c, 0, 76, 0
1, 962208, Note_on_c, 0, 58, 0
1, 962221, Note_on_c, 0, 56, 67
1, 962302, Note_on_c, 0, 56, 0
1, 962312, Note_on_c, 0, 55, 67
1, 962382, Note_on_c, 0, 77, 98
1, 962383, Note_on_c, 0, 53, 78
1, 962389, Note_on_c, 0, 55, 0
1, 962396, Control_c, 0, 64, 18
1, 962396, Note_on_c, 0, 65, 68
1, 962414, Note_on_c, 0, 53, 0
1, 962415, Control_c, 0, 64, 71
1, 962420, Note_on_c, 0, 65, 0
1, 962420, Note_on_c, 0, 77, 0
1, 962447, Control_c, 0, 64, 93
1, 962466, Control_c, 0, 64, 104
1, 962706, Note_on_c, 0, 36, 86
1, 962709, Note_on_c, 0, 89, 103
1, 962720, Note_on_c, 0, 77, 82
1, 962743, Control_c, 0, 64, 90
1, 962744, Note_on_c, 0, 77, 0
1, 962759, Control_c, 0, 64, 65
1, 962778, Control_c, 0, 64, 38
1, 962781, Note_on_c, 0, 89, 0
1, 962815, Control_c, 0, 64, 44
1, 962836, Control_c, 0, 64, 59
1, 962850, Note_on_c, 0, 38, 80
1, 962856, Control_c, 0, 64, 69
1, 962872, Control_c, 0, 64, 76
1, 962890, Control_c, 0, 64, 83
1, 962905, Note_on_c, 0, 36, 0
1, 962906, Control_c, 0, 64, 85
1, 962926, Control_c, 0, 64, 83
1, 962945, Control_c, 0, 64, 69
1, 962948, Note_on_c, 0, 40, 84
1, 962963, Control_c, 0, 64, 46
1, 962970, Poly_aftertouch_c, 0, 85, 127
1, 962980, Note_on_c, 0, 38, 0
1, 962983, Control_c, 0, 64, 21
1, 963009, Note_on_c, 0, 92, 108
1, 963016, Poly_aftertouch_c, 0, 85, 0
1, 963016, Note_on_c, 0, 80, 93
1, 963017, Control_c, 0, 64, 26
1, 963033, Note_on_c, 0, 40, 0
1, 963039, Note_on_c, 0, 41, 75
1, 963039, Control_c, 0, 64, 44
1, 963056, Control_c, 0, 64, 63
1, 963059, Note_on_c, 0, 92, 0
1, 963066, Note_on_c, 0, 80, 0
1, 963074, Control_c, 0, 64, 71
1, 963111, Note_on_c, 0, 41, 0
1, 963111, Control_c, 0, 64, 68
1, 963114, Note_on_c, 0, 40, 80
1, 963131, Control_c, 0, 64, 63
1, 963148, Control_c, 0, 64, 58
1, 963166, Control_c, 0, 64, 56
1, 963205, Note_on_c, 0, 41, 76
1, 963213, Note_on_c, 0, 40, 0
1, 963257, Control_c, 0, 64, 54
1, 963259, Note_on_c, 0, 41, 0
1, 963267, Note_on_c, 0, 43, 76
1, 963275, Note_on_c, 0, 91, 93
1, 963285, Note_on_c, 0, 79, 75
1, 963311, Note_on_c, 0, 79, 0
1, 963326, Note_on_c, 0, 91, 0
1, 963339, Note_on_c, 0, 43, 0
1, 963344, Note_on_c, 0, 41, 74
1, 963417, Note_on_c, 0, 41, 0
1, 963447, Note_on_c, 0, 43, 73
1, 963524, Note_on_c, 0, 43, 0
1, 963533, Note_on_c, 0, 89, 102
1, 963542, Note_on_c, 0, 44, 80
1, 963543, Note_on_c, 0, 77, 81
1, 963571, Note_on_c, 0, 77, 0
1, 963595, Note_on_c, 0, 89, 0
1, 963612, Note_on_c, 0, 46, 81
1, 963613, Note_on_c, 0, 44, 0
1, 963696, Control_c, 0, 64, 52
1, 963702, Note_on_c, 0, 46, 0
1, 963705, Note_on_c, 0, 44, 72
1, 963752, Note_on_c, 0, 44, 0
1, 963770, Note_on_c, 0, 43, 79
1, 963777, Note_on_c, 0, 87, 93
1, 963780, Note_on_c, 0, 75, 83
1, 963825, Note_on_c, 0, 87, 0
1, 963826, Control_c, 0, 64, 50
1, 963833, Note_on_c, 0, 75, 0
1, 963847, Note_on_c, 0, 43, 0
1, 963855, Note_on_c, 0, 44, 75
1, 963939, Note_on_c, 0, 43, 66
1, 963941, Note_on_c, 0, 44, 0
1, 964017, Note_on_c, 0, 41, 79
1, 964018, Note_on_c, 0, 86, 94
1, 964021, Note_on_c, 0, 74, 84
1, 964024, Note_on_c, 0, 43, 0
1, 964069, Note_on_c, 0, 74, 0
1, 964086, Note_on_c, 0, 86, 0
1, 964096, Note_on_c, 0, 41, 0
1, 964102, Poly_aftertouch_c, 0, 79, 0
1, 964107, Note_on_c, 0, 43, 67
1, 964188, Note_on_c, 0, 43, 0
1, 964189, Note_on_c, 0, 41, 66
1, 964250, Control_c, 0, 64, 52
1, 964260, Note_on_c, 0, 84, 87
1, 964264, Note_on_c, 0, 42, 80
1, 964268, Note_on_c, 0, 41, 0
1, 964269, Note_on_c, 0, 72, 82
1, 964304, Note_on_c, 0, 72, 0
1, 964318, Control_c, 0, 64, 54
1, 964326, Note_on_c, 0, 84, 0
1, 964349, Note_on_c, 0, 42, 0
1, 964365, Note_on_c, 0, 43, 70
1, 964411, Control_c, 0, 64, 47
1, 964429, Control_c, 0, 64, 0
1, 964442, Note_on_c, 0, 43, 0
1, 964444, Note_on_c, 0, 42, 79
1, 964532, Note_on_c, 0, 83, 110
1, 964541, Note_on_c, 0, 43, 86
1, 964542, Note_on_c, 0, 71, 102
1, 964546, Note_on_c, 0, 42, 0
1, 964573, Note_on_c, 0, 76, 51
1, 964579, Control_c, 0, 64, 86
1, 964596, Control_c, 0, 64, 127
1, 964603, Note_on_c, 0, 76, 0
1, 964625, Note_on_c, 0, 44, 78
1, 964633, Note_on_c, 0, 43, 0
1, 964698, Note_on_c, 0, 43, 59
1, 964700, Note_on_c, 0, 83, 0
1, 964720, Note_on_c, 0, 44, 0
1, 964727, Note_on_c, 0, 71, 0
1, 964786, Note_on_c, 0, 43, 0
1, 964802, Note_on_c, 0, 42, 71
1, 964873, Note_on_c, 0, 43, 71
1, 964877, Note_on_c, 0, 42, 0
1, 964916, Poly_aftertouch_c, 0, 40, 0
1, 964948, Note_on_c, 0, 43, 0
1, 964973, Note_on_c, 0, 42, 62
1, 965037, Note_on_c, 0, 42, 0
1, 965037, Control_c, 0, 64, 100
1, 965039, Note_on_c, 0, 79, 80
1, 965041, Note_on_c, 0, 43, 73
1, 965050, Note_on_c, 0, 67, 76
1, 965056, Control_c, 0, 64, 14
1, 965061, Poly_aftertouch_c, 0, 40, 0
1, 965075, Control_c, 0, 64, 0
1, 965078, Note_on_c, 0, 67, 0
1, 965090, Note_on_c, 0, 79, 0
1, 965112, Note_on_c, 0, 43, 0
1, 965116, Note_on_c, 0, 44, 73
1, 965201, Note_on_c, 0, 44, 0
1, 965204, Note_on_c, 0, 43, 67
1, 965286, Note_on_c, 0, 43, 0
1, 965299, Note_on_c, 0, 42, 65
1, 965313, Note_on_c, 0, 67, 79
1, 965313, Note_on_c, 0, 79, 80
1, 965352, Note_on_c, 0, 67, 0
1, 965367, Note_on_c, 0, 79, 0
1, 965370, Poly_aftertouch_c, 0, 40, 0
1, 965372, Note_on_c, 0, 42, 0
1, 965377, Note_on_c, 0, 43, 61
1, 965439, Note_on_c, 0, 43, 0
1, 965451, Note_on_c, 0, 42, 60
1, 965533, Note_on_c, 0, 43, 70
1, 965535, Note_on_c, 0, 42, 0
1, 965559, Note_on_c, 0, 79, 85
1, 965560, Note_on_c, 0, 67, 81
1, 965607, Note_on_c, 0, 44, 74
1, 965608, Note_on_c, 0, 67, 0
1, 965614, Note_on_c, 0, 43, 0
1, 965626, Note_on_c, 0, 79, 0
1, 965703, Note_on_c, 0, 44, 0
1, 965708, Note_on_c, 0, 43, 54
1, 965783, Note_on_c, 0, 41, 74
1, 965791, Note_on_c, 0, 43, 0
1, 965795, Note_on_c, 0, 79, 87
1, 965797, Note_on_c, 0, 67, 87
1, 965837, Note_on_c, 0, 67, 0
1, 965857, Note_on_c, 0, 41, 0
1, 965861, Note_on_c, 0, 79, 0
1, 965881, Note_on_c, 0, 43, 68
1, 965969, Note_on_c, 0, 41, 77
1, 965975, Note_on_c, 0, 43, 0
1, 966040, Note_on_c, 0, 79, 92
1, 966043, Note_on_c, 0, 39, 81
1, 966044, Note_on_c, 0, 67, 89
1, 966052, Note_on_c, 0, 41, 0
1, 966086, Note_on_c, 0, 67, 0
1, 966115, Note_on_c, 0, 79, 0
1, 966120, Note_on_c, 0, 39, 0
1, 966126, Note_on_c, 0, 41, 71
1, 966219, Note_on_c, 0, 39, 75
1, 966226, Note_on_c, 0, 41, 0
1, 966290, Note_on_c, 0, 79, 88
1, 966294, Note_on_c, 0, 67, 77
1, 966304, Note_on_c, 0, 38, 80
1, 966310, Note_on_c, 0, 39, 0
1, 966323, Note_on_c, 0, 67, 0
1, 966338, Note_on_c, 0, 79, 0
1, 966401, Note_on_c, 0, 38, 0
1, 966404, Note_on_c, 0, 39, 75
1, 966480, Note_on_c, 0, 38, 59
1, 966482, Note_on_c, 0, 39, 0
1, 966532, Note_on_c, 0, 36, 93
1, 966540, Note_on_c, 0, 84, 105
1, 966545, Note_on_c, 0, 72, 98
1, 966559, Note_on_c, 0, 38, 0
1, 966577, Control_c, 0, 64, 65
1, 966588, Note_on_c, 0, 36, 0
1, 966593, Note_on_c, 0, 84, 0
1, 966596, Control_c, 0, 64, 127
1, 966605, Note_on_c, 0, 72, 0
1, 966739, Note_on_c, 0, 73, 19
1, 966794, Note_on_c, 0, 73, 0
1, 966808, Note_on_c, 0, 53, 97
1, 966809, Note_on_c, 0, 41, 89
1, 966819, Note_on_c, 0, 72, 78
1, 966853, Note_on_c, 0, 41, 0
1, 966854, Note_on_c, 0, 53, 0
1, 966867, Poly_aftertouch_c, 0, 78, 0
1, 966879, Note_on_c, 0, 72, 0
1, 966890, Control_c, 0, 64, 119
1, 966893, Note_on_c, 0, 74, 82
1, 966908, Control_c, 0, 64, 57
1, 966928, Control_c, 0, 64, 0
1, 966981, Note_on_c, 0, 76, 79
1, 966984, Note_on_c, 0, 74, 0
1, 967051, Note_on_c, 0, 77, 85
1, 967054, Note_on_c, 0, 44, 78
1, 967054, Note_on_c, 0, 56, 90
1, 967070, Note_on_c, 0, 76, 0
1, 967093, Note_on_c, 0, 44, 0
1, 967100, Note_on_c, 0, 77, 0
1, 967106, Note_on_c, 0, 56, 0
1, 967156, Note_on_c, 0, 76, 71
1, 967235, Note_on_c, 0, 77, 82
1, 967247, Note_on_c, 0, 76, 0
1, 967304, Note_on_c, 0, 55, 86
1, 967307, Note_on_c, 0, 43, 79
1, 967310, Note_on_c, 0, 79, 86
1, 967322, Note_on_c, 0, 77, 0
1, 967349, Note_on_c, 0, 55, 0
1, 967353, Note_on_c, 0, 43, 0
1, 967362, Note_on_c, 0, 79, 0
1, 967391, Note_on_c, 0, 77, 74
1, 967479, Note_on_c, 0, 79, 80
1, 967481, Note_on_c, 0, 77, 0
1, 967540, Note_on_c, 0, 41, 81
1, 967540, Note_on_c, 0, 53, 86
1, 967547, Note_on_c, 0, 80, 87
1, 967562, Note_on_c, 0, 79, 0
1, 967580, Note_on_c, 0, 53, 0
1, 967588, Note_on_c, 0, 41, 0
1, 967620, Note_on_c, 0, 80, 0
1, 967629, Note_on_c, 0, 82, 78
1, 967714, Note_on_c, 0, 80, 80
1, 967747, Note_on_c, 0, 82, 0
1, 967780, Note_on_c, 0, 51, 86
1, 967784, Note_on_c, 0, 39, 80
1, 967788, Note_on_c, 0, 80, 0
1, 967791, Note_on_c, 0, 79, 82
1, 967818, Note_on_c, 0, 51, 0
1, 967829, Note_on_c, 0, 39, 0
1, 967841, Note_on_c, 0, 79, 0
1, 967868, Note_on_c, 0, 80, 80
1, 967941, Note_on_c, 0, 79, 76
1, 967963, Note_on_c, 0, 80, 0
1, 968014, Note_on_c, 0, 79, 0
1, 968016, Note_on_c, 0, 50, 89
1, 968021, Note_on_c, 0, 77, 83
1, 968021, Note_on_c, 0, 38, 80
1, 968078, Note_on_c, 0, 50, 0
1, 968080, Note_on_c, 0, 38, 0
1, 968092, Note_on_c, 0, 77, 0
1, 968136, Note_on_c, 0, 79, 80
1, 968206, Note_on_c, 0, 79, 0
1, 968209, Note_on_c, 0, 77, 79
1, 968270, Note_on_c, 0, 48, 88
1, 968280, Note_on_c, 0, 36, 74
1, 968280, Note_on_c, 0, 78, 82
1, 968283, Note_on_c, 0, 77, 0
1, 968297, Note_on_c, 0, 48, 0
1, 968315, Note_on_c, 0, 36, 0
1, 968342, Note_on_c, 0, 78, 0
1, 968353, Note_on_c, 0, 79, 81
1, 968454, Note_on_c, 0, 78, 80
1, 968455, Note_on_c, 0, 79, 0
1, 968536, Note_on_c, 0, 78, 0
1, 968564, Note_on_c, 0, 47, 105
1, 968566, Note_on_c, 0, 79, 86
1, 968566, Note_on_c, 0, 35, 93
1, 968614, Control_c, 0, 64, 80
1, 968632, Control_c, 0, 64, 127
1, 968642, Note_on_c, 0, 80, 74
1, 968656, Note_on_c, 0, 79, 0
1, 968738, Note_on_c, 0, 79, 76
1, 968783, Note_on_c, 0, 47, 0
1, 968798, Note_on_c, 0, 80, 0
1, 968802, Note_on_c, 0, 79, 0
1, 968810, Note_on_c, 0, 78, 80
1, 968863, Note_on_c, 0, 35, 0
1, 968870, Note_on_c, 0, 78, 0
1, 968877, Note_on_c, 0, 79, 70
1, 968956, Note_on_c, 0, 79, 0
1, 968971, Note_on_c, 0, 78, 80
1, 969073, Note_on_c, 0, 78, 0
1, 969073, Note_on_c, 0, 79, 87
1, 969075, Note_on_c, 0, 43, 88
1, 969077, Note_on_c, 0, 31, 82
1, 969088, Control_c, 0, 64, 68
1, 969107, Control_c, 0, 64, 0
1, 969111, Note_on_c, 0, 43, 0
1, 969122, Note_on_c, 0, 31, 0
1, 969135, Note_on_c, 0, 79, 0
1, 969162, Note_on_c, 0, 80, 78
1, 969257, Note_on_c, 0, 79, 72
1, 969296, Note_on_c, 0, 80, 0
1, 969308, Note_on_c, 0, 79, 0
1, 969317, Note_on_c, 0, 78, 80
1, 969336, Note_on_c, 0, 43, 85
1, 969342, Note_on_c, 0, 31, 80
1, 969373, Note_on_c, 0, 43, 0
1, 969376, Note_on_c, 0, 31, 0
1, 969390, Note_on_c, 0, 78, 0
1, 969400, Note_on_c, 0, 79, 75
1, 969476, Note_on_c, 0, 79, 0
1, 969479, Note_on_c, 0, 78, 74
1, 969573, Note_on_c, 0, 31, 80
1, 969573, Note_on_c, 0, 43, 88
1, 969576, Note_on_c, 0, 78, 0
1, 969579, Note_on_c, 0, 79, 81
1, 969609, Note_on_c, 0, 43, 0
1, 969619, Note_on_c, 0, 31, 0
1, 969638, Note_on_c, 0, 79, 0
1, 969655, Note_on_c, 0, 80, 71
1, 969733, Note_on_c, 0, 79, 76
1, 969740, Note_on_c, 0, 80, 0
1, 969801, Note_on_c, 0, 43, 91
1, 969804, Note_on_c, 0, 79, 0
1, 969806, Note_on_c, 0, 31, 81
1, 969815, Note_on_c, 0, 77, 77
1, 969843, Note_on_c, 0, 43, 0
1, 969851, Note_on_c, 0, 31, 0
1, 969879, Note_on_c, 0, 77, 0
1, 969895, Note_on_c, 0, 79, 76
1, 970006, Note_on_c, 0, 77, 75
1, 970035, Note_on_c, 0, 79, 0
1, 970057, Note_on_c, 0, 43, 93
1, 970058, Note_on_c, 0, 31, 84
1, 970069, Note_on_c, 0, 75, 81
1, 970072, Note_on_c, 0, 77, 0
1, 970096, Note_on_c, 0, 43, 0
1, 970100, Note_on_c, 0, 31, 0
1, 970135, Note_on_c, 0, 75, 0
1, 970147, Note_on_c, 0, 77, 80
1, 970231, Note_on_c, 0, 75, 81
1, 970235, Note_on_c, 0, 77, 0
1, 970268, Note_on_c, 0, 43, 87
1, 970271, Note_on_c, 0, 31, 78
1, 970296, Note_on_c, 0, 74, 78
1, 970300, Note_on_c, 0, 31, 0
1, 970301, Note_on_c, 0, 75, 0
1, 970303, Note_on_c, 0, 43, 0
1, 970348, Note_on_c, 0, 74, 0
1, 970373, Note_on_c, 0, 75, 71
1, 970451, Note_on_c, 0, 74, 75
1, 970481, Note_on_c, 0, 75, 0
1, 970505, Note_on_c, 0, 74, 0
1, 970521, Note_on_c, 0, 48, 106
1, 970526, Note_on_c, 0, 36, 95
1, 970527, Note_on_c, 0, 72, 81
1, 970559, Control_c, 0, 64, 51
1, 970578, Control_c, 0, 64, 127
1, 970606, Note_on_c, 0, 72, 0
1, 970608, Note_on_c, 0, 36, 0
1, 970612, Note_on_c, 0, 48, 0
1, 970622, Note_on_c, 0, 71, 76
1, 970681, Note_on_c, 0, 71, 0
1, 970706, Note_on_c, 0, 72, 86
1, 970776, Note_on_c, 0, 72, 0
1, 970784, Note_on_c, 0, 74, 83
1, 970856, Note_on_c, 0, 74, 0
1, 970892, Note_on_c, 0, 72, 72
1, 970952, Note_on_c, 0, 74, 78
1, 970960, Note_on_c, 0, 72, 0
1, 971005, Note_on_c, 0, 55, 94
1, 971008, Note_on_c, 0, 43, 84
1, 971014, Control_c, 0, 64, 113
1, 971022, Note_on_c, 0, 75, 85
1, 971030, Note_on_c, 0, 74, 0
1, 971034, Control_c, 0, 64, 49
1, 971046, Note_on_c, 0, 55, 0
1, 971052, Control_c, 0, 64, 0
1, 971053, Note_on_c, 0, 43, 0
1, 971094, Note_on_c, 0, 75, 0
1, 971101, Note_on_c, 0, 74, 74
1, 971192, Note_on_c, 0, 75, 82
1, 971200, Note_on_c, 0, 74, 0
1, 971247, Note_on_c, 0, 55, 86
1, 971249, Note_on_c, 0, 43, 85
1, 971260, Note_on_c, 0, 75, 0
1, 971264, Note_on_c, 0, 77, 87
1, 971280, Note_on_c, 0, 55, 0
1, 971292, Note_on_c, 0, 43, 0
1, 971333, Note_on_c, 0, 75, 83
1, 971343, Note_on_c, 0, 77, 0
1, 971406, Note_on_c, 0, 75, 0
1, 971406, Note_on_c, 0, 77, 80
1, 971485, Note_on_c, 0, 55, 94
1, 971489, Note_on_c, 0, 43, 86
1, 971496, Note_on_c, 0, 79, 88
1, 971510, Note_on_c, 0, 77, 0
1, 971524, Note_on_c, 0, 55, 0
1, 971530, Note_on_c, 0, 43, 0
1, 971565, Note_on_c, 0, 79, 0
1, 971568, Note_on_c, 0, 80, 88
1, 971649, Note_on_c, 0, 79, 84
1, 971671, Note_on_c, 0, 80, 0
1, 971714, Note_on_c, 0, 55, 94
1, 971714, Note_on_c, 0, 77, 85
1, 971717, Note_on_c, 0, 43, 88
1, 971727, Note_on_c, 0, 79, 0
1, 971751, Note_on_c, 0, 55, 0
1, 971755, Note_on_c, 0, 43, 0
1, 971770, Note_on_c, 0, 77, 0
1, 971820, Note_on_c, 0, 79, 82
1, 971901, Note_on_c, 0, 77, 85
1, 971942, Note_on_c, 0, 79, 0
1, 971968, Note_on_c, 0, 55, 97
1, 971969, Note_on_c, 0, 75, 86
1, 971972, Note_on_c, 0, 43, 88
1, 971973, Note_on_c, 0, 77, 0
1, 972010, Note_on_c, 0, 55, 0
1, 972014, Note_on_c, 0, 43, 0
1, 972043, Note_on_c, 0, 75, 0
1, 972052, Note_on_c, 0, 77, 81
1, 972130, Note_on_c, 0, 75, 88
1, 972143, Note_on_c, 0, 77, 0
1, 972180, Note_on_c, 0, 55, 96
1, 972201, Note_on_c, 0, 45, 63
1, 972204, Note_on_c, 0, 43, 54
1, 972211, Note_on_c, 0, 74, 77
1, 972213, Note_on_c, 0, 75, 0
1, 972215, Note_on_c, 0, 55, 0
1, 972238, Note_on_c, 0, 45, 0
1, 972246, Note_on_c, 0, 43, 0
1, 972266, Note_on_c, 0, 74, 0
1, 972275, Note_on_c, 0, 75, 71
1, 972366, Note_on_c, 0, 74, 80
1, 972386, Note_on_c, 0, 75, 0
1, 972420, Note_on_c, 0, 74, 0
1, 972425, Note_on_c, 0, 60, 112
1, 972428, Note_on_c, 0, 48, 94
1, 972435, Note_on_c, 0, 72, 87
1, 972468, Control_c, 0, 64, 58
1, 972480, Note_on_c, 0, 60, 0
1, 972486, Note_on_c, 0, 48, 0
1, 972486, Control_c, 0, 64, 127
1, 972508, Note_on_c, 0, 72, 0
1, 972528, Note_on_c, 0, 71, 73
1, 972566, Poly_aftertouch_c, 0, 51, 127
1, 972572, Note_on_c, 0, 71, 0
1, 972580, Poly_aftertouch_c, 0, 51, 0
1, 972612, Note_on_c, 0, 72, 87
1, 972676, Note_on_c, 0, 72, 0
1, 972692, Note_on_c, 0, 74, 82
1, 972773, Note_on_c, 0, 74, 0
1, 972785, Note_on_c, 0, 72, 71
1, 972849, Note_on_c, 0, 74, 80
1, 972858, Note_on_c, 0, 72, 0
1, 972906, Note_on_c, 0, 75, 87
1, 972913, Note_on_c, 0, 43, 97
1, 972914, Note_on_c, 0, 31, 92
1, 972919, Note_on_c, 0, 74, 0
1, 972952, Note_on_c, 0, 43, 0
1, 972962, Note_on_c, 0, 75, 0
1, 972971, Note_on_c, 0, 31, 0
1, 972979, Note_on_c, 0, 34, 11
1, 972979, Control_c, 0, 64, 85
1, 972987, Note_on_c, 0, 74, 82
1, 972998, Control_c, 0, 64, 0
1, 973011, Note_on_c, 0, 34, 0
1, 973066, Note_on_c, 0, 75, 87
1, 973084, Note_on_c, 0, 74, 0
1, 973137, Note_on_c, 0, 43, 97
1, 973138, Note_on_c, 0, 75, 0
1, 973141, Note_on_c, 0, 77, 87
1, 973150, Note_on_c, 0, 31, 75
1, 973157, Note_on_c, 0, 29, 73
1, 973173, Note_on_c, 0, 43, 0
1, 973186, Note_on_c, 0, 31, 0
1, 973197, Note_on_c, 0, 29, 0
1, 973211, Note_on_c, 0, 75, 83
1, 973226, Note_on_c, 0, 34, 9
1, 973232, Note_on_c, 0, 77, 0
1, 973247, Note_on_c, 0, 34, 0
1, 973278, Note_on_c, 0, 77, 63
1, 973285, Note_on_c, 0, 75, 0
1, 973367, Note_on_c, 0, 43, 103
1, 973367, Note_on_c, 0, 31, 92
1, 973370, Note_on_c, 0, 79, 91
1, 973387, Note_on_c, 0, 34, 65
1, 973395, Note_on_c, 0, 77, 0
1, 973418, Note_on_c, 0, 34, 0
1, 973419, Note_on_c, 0, 43, 0
1, 973427, Note_on_c, 0, 31, 0
1, 973444, Note_on_c, 0, 79, 0
1, 973445, Note_on_c, 0, 80, 89
1, 973530, Note_on_c, 0, 79, 84
1, 973555, Note_on_c, 0, 80, 0
1, 973604, Note_on_c, 0, 43, 93
1, 973605, Note_on_c, 0, 77, 83
1, 973605, Note_on_c, 0, 31, 90
1, 973611, Note_on_c, 0, 79, 0
1, 973645, Note_on_c, 0, 31, 0
1, 973645, Note_on_c, 0, 43, 0
1, 973650, Note_on_c, 0, 77, 0
1, 973662, Note_on_c, 0, 41, 24
1, 973663, Note_on_c, 0, 41, 0
1, 973694, Note_on_c, 0, 79, 81
1, 973778, Note_on_c, 0, 77, 77
1, 973822, Note_on_c, 0, 79, 0
1, 973834, Note_on_c, 0, 75, 87
1, 973842, Note_on_c, 0, 77, 0
1, 973859, Note_on_c, 0, 43, 96
1, 973862, Note_on_c, 0, 31, 91
1, 973902, Note_on_c, 0, 43, 0
1, 973906, Note_on_c, 0, 31, 0
1, 973912, Note_on_c, 0, 75, 0
1, 973926, Note_on_c, 0, 77, 82
1, 974010, Note_on_c, 0, 75, 83
1, 974017, Note_on_c, 0, 77, 0
1, 974071, Note_on_c, 0, 43, 92
1, 974074, Note_on_c, 0, 31, 85
1, 974088, Note_on_c, 0, 74, 78
1, 974095, Note_on_c, 0, 75, 0
1, 974103, Note_on_c, 0, 31, 0
1, 974105, Note_on_c, 0, 43, 0
1, 974156, Note_on_c, 0, 74, 0
1, 974164, Note_on_c, 0, 75, 68
1, 974244, Note_on_c, 0, 74, 77
1, 974268, Note_on_c, 0, 75, 0
1, 974311, Note_on_c, 0, 48, 103
1, 974313, Note_on_c, 0, 36, 93
1, 974320, Note_on_c, 0, 74, 0
1, 974323, Note_on_c, 0, 72, 84
1, 974358, Control_c, 0, 64, 46
1, 974376, Control_c, 0, 64, 127
1, 974388, Note_on_c, 0, 48, 0
1, 974401, Note_on_c, 0, 72, 0
1, 974405, Note_on_c, 0, 36, 0
1, 974410, Note_on_c, 0, 71, 83
1, 974460, Note_on_c, 0, 71, 0
1, 974502, Note_on_c, 0, 72, 78
1, 974503, Control_c, 0, 64, 113
1, 974524, Control_c, 0, 64, 51
1, 974540, Control_c, 0, 64, 0
1, 974568, Note_on_c, 0, 74, 90
1, 974572, Note_on_c, 0, 72, 0
1, 974663, Note_on_c, 0, 75, 86
1, 974668, Note_on_c, 0, 74, 0
1, 974726, Note_on_c, 0, 75, 0
1, 974731, Note_on_c, 0, 77, 90
1, 974785, Note_on_c, 0, 43, 101
1, 974788, Note_on_c, 0, 31, 94
1, 974814, Note_on_c, 0, 79, 92
1, 974830, Note_on_c, 0, 77, 0
1, 974832, Note_on_c, 0, 32, 53
1, 974850, Control_c, 0, 64, 82
1, 974852, Note_on_c, 0, 41, 16
1, 974853, Note_on_c, 0, 41, 0
1, 974854, Note_on_c, 0, 43, 0
1, 974861, Note_on_c, 0, 31, 0
1, 974869, Control_c, 0, 64, 127
1, 974873, Note_on_c, 0, 32, 0
1, 974890, Note_on_c, 0, 80, 90
1, 974893, Note_on_c, 0, 79, 0
1, 974917, Poly_aftertouch_c, 0, 41, 0
1, 974974, Note_on_c, 0, 79, 84
1, 974979, Control_c, 0, 64, 123
1, 974998, Control_c, 0, 64, 81
1, 975002, Note_on_c, 0, 80, 0
1, 975015, Control_c, 0, 64, 0
1, 975049, Note_on_c, 0, 77, 84
1, 975050, Note_on_c, 0, 79, 0
1, 975101, Note_on_c, 0, 77, 0
1, 975131, Note_on_c, 0, 75, 90
1, 975201, Note_on_c, 0, 74, 84
1, 975229, Note_on_c, 0, 75, 0
1, 975266, Note_on_c, 0, 72, 86
1, 975266, Note_on_c, 0, 36, 88
1, 975268, Note_on_c, 0, 48, 99
1, 975269, Note_on_c, 0, 74, 0
1, 975330, Control_c, 0, 64, 25
1, 975336, Note_on_c, 0, 44, 18
1, 975341, Note_on_c, 0, 48, 0
1, 975348, Control_c, 0, 64, 99
1, 975353, Note_on_c, 0, 72, 0
1, 975354, Note_on_c, 0, 71, 87
1, 975365, Note_on_c, 0, 36, 0
1, 975366, Control_c, 0, 64, 127
1, 975401, Note_on_c, 0, 44, 0
1, 975409, Note_on_c, 0, 71, 0
1, 975441, Note_on_c, 0, 72, 78
1, 975459, Control_c, 0, 64, 88
1, 975477, Control_c, 0, 64, 0
1, 975512, Note_on_c, 0, 74, 87
1, 975524, Note_on_c, 0, 72, 0
1, 975600, Note_on_c, 0, 75, 90
1, 975622, Note_on_c, 0, 74, 0
1, 975663, Note_on_c, 0, 75, 0
1, 975678, Note_on_c, 0, 77, 88
1, 975742, Note_on_c, 0, 31, 90
1, 975744, Note_on_c, 0, 43, 102
1, 975761, Note_on_c, 0, 79, 89
1, 975781, Note_on_c, 0, 77, 0
1, 975804, Control_c, 0, 64, 29
1, 975804, Note_on_c, 0, 39, 30
1, 975823, Control_c, 0, 64, 93
1, 975826, Note_on_c, 0, 80, 88
1, 975834, Note_on_c, 0, 43, 0
1, 975835, Note_on_c, 0, 79, 0
1, 975842, Note_on_c, 0, 31, 0
1, 975842, Control_c, 0, 64, 115
1, 975856, Note_on_c, 0, 39, 0
1, 975859, Control_c, 0, 64, 119
1, 975911, Note_on_c, 0, 79, 85
1, 975947, Note_on_c, 0, 80, 0
1, 975949, Control_c, 0, 64, 107
1, 975970, Control_c, 0, 64, 87
1, 975978, Note_on_c, 0, 77, 85
1, 975981, Note_on_c, 0, 79, 0
1, 975989, Control_c, 0, 64, 57
1, 976006, Control_c, 0, 64, 0
1, 976054, Note_on_c, 0, 75, 91
1, 976055, Note_on_c, 0, 77, 0
1, 976128, Note_on_c, 0, 74, 86
1, 976145, Note_on_c, 0, 75, 0
1, 976179, Note_on_c, 0, 74, 0
1, 976252, Note_on_c, 0, 36, 90
1, 976256, Note_on_c, 0, 48, 99
1, 976270, Note_on_c, 0, 72, 93
1, 976273, Note_on_c, 0, 74, 85
1, 976306, Note_on_c, 0, 60, 75
1, 976312, Note_on_c, 0, 74, 0
1, 976338, Control_c, 0, 64, 44
1, 976357, Control_c, 0, 64, 106
1, 976376, Control_c, 0, 64, 127
1, 976436, Note_on_c, 0, 43, 13
1, 976460, Note_on_c, 0, 48, 0
1, 976502, Note_on_c, 0, 36, 0
1, 976532, Note_on_c, 0, 60, 0
1, 976546, Note_on_c, 0, 43, 0
1, 976547, Poly_aftertouch_c, 0, 38, 127
1, 976576, Poly_aftertouch_c, 0, 38, 0
1, 976580, Note_on_c, 0, 72, 0
1, 976593, Control_c, 0, 64, 100
1, 976611, Control_c, 0, 64, 58
1, 976630, Control_c, 0, 64, 0
1, 976780, Note_on_c, 0, 72, 105
1, 976784, Note_on_c, 0, 36, 88
1, 976788, Note_on_c, 0, 48, 102
1, 976794, Note_on_c, 0, 60, 87
1, 976810, Note_on_c, 0, 67, 54
1, 976832, Control_c, 0, 64, 22
1, 976838, Note_on_c, 0, 44, 37
1, 976847, Note_on_c, 0, 67, 0
1, 976850, Control_c, 0, 64, 100
1, 976851, Note_on_c, 0, 48, 0
1, 976854, Note_on_c, 0, 39, 21
1, 976855, Note_on_c, 0, 39, 0
1, 976869, Control_c, 0, 64, 127
1, 976873, Note_on_c, 0, 36, 0
1, 976883, Note_on_c, 0, 44, 0
1, 976911, Poly_aftertouch_c, 0, 39, 0
1, 976923, Note_on_c, 0, 60, 0
1, 977040, Note_on_c, 0, 72, 0
1, 977219, Control_c, 0, 64, 88
1, 977238, Control_c, 0, 64, 0
1, 977304, Note_on_c, 0, 36, 93
1, 977306, Note_on_c, 0, 48, 101
1, 977310, Note_on_c, 0, 72, 105
1, 977327, Note_on_c, 0, 60, 85
1, 977336, Note_on_c, 0, 67, 59
1, 977362, Note_on_c, 0, 67, 0
1, 977365, Control_c, 0, 64, 60
1, 977384, Note_on_c, 0, 60, 0
1, 977384, Control_c, 0, 64, 127
1, 977425, Note_on_c, 0, 48, 0
1, 977427, Note_on_c, 0, 36, 0
1, 977451, Note_on_c, 0, 72, 0
1, 977466, Poly_aftertouch_c, 0, 39, 0
1, 977878, Control_c, 0, 64, 79
1, 977897, Control_c, 0, 64, 0
1, 978419, Note_on_c, 0, 36, 91
1, 978420, Note_on_c, 0, 48, 97
1, 978422, Note_on_c, 0, 72, 103
1, 978433, Note_on_c, 0, 60, 83
1, 978453, Note_on_c, 0, 48, 0
1, 978462, Note_on_c, 0, 60, 0
1, 978463, Control_c, 0, 64, 57
1, 978463, Note_on_c, 0, 67, 34
1, 978464, Note_on_c, 0, 67, 0
1, 978476, Note_on_c, 0, 72, 0
1, 978479, Note_on_c, 0, 36, 0
1, 978482, Control_c, 0, 64, 127
1, 979053, Control_c, 0, 64, 121
1, 979072, Control_c, 0, 64, 83
1, 979091, Control_c, 0, 64, 23
1, 979109, Control_c, 0, 64, 0
1, 979566, Control_c, 0, 64, 23
1, 979585, Control_c, 0, 64, 47
1, 979603, Control_c, 0, 64, 59
1, 979619, Control_c, 0, 64, 65
1, 979630, Note_on_c, 0, 72, 78
1, 979637, Control_c, 0, 64, 68
1, 979648, Note_on_c, 0, 48, 60
1, 979651, Note_on_c, 0, 36, 62
1, 979657, Control_c, 0, 64, 71
1, 979667, Note_on_c, 0, 60, 44
1, 979675, Control_c, 0, 64, 74
1, 979693, Control_c, 0, 64, 78
1, 979698, Note_on_c, 0, 36, 0
1, 979701, Note_on_c, 0, 48, 0
1, 979713, Control_c, 0, 64, 81
1, 979731, Control_c, 0, 64, 84
1, 979749, Control_c, 0, 64, 86
1, 979784, Note_on_c, 0, 72, 0
1, 979787, Control_c, 0, 64, 90
1, 979803, Note_on_c, 0, 60, 0
1, 980100, Control_c, 0, 64, 87
1, 980137, Control_c, 0, 64, 84
1, 980153, Control_c, 0, 64, 82
1, 980173, Control_c, 0, 64, 79
1, 980190, Control_c, 0, 64, 77
1, 980243, Control_c, 0, 64, 75
1, 980299, Control_c, 0, 64, 73
1, 980334, Control_c, 0, 64, 70
1, 980373, Control_c, 0, 64, 68
1, 980390, Control_c, 0, 64, 67
1, 980408, Control_c, 0, 64, 66
1, 980427, Control_c, 0, 64, 65
1, 980464, Control_c, 0, 64, 63
1, 980483, Control_c, 0, 64, 62
1, 980502, Control_c, 0, 64, 60
1, 980538, Control_c, 0, 64, 58
1, 980594, Control_c, 0, 64, 55
1, 980629, Control_c, 0, 64, 48
1, 980647, Control_c, 0, 64, 34
1, 980667, Control_c, 0, 64, 9
1, 980685, Control_c, 0, 64, 0
1, 980951, Note_on_c, 0, 56, 101
1, 980955, Note_on_c, 0, 44, 102
1, 980956, Note_on_c, 0, 32, 97
1, 981016, Control_c, 0, 64, 34
1, 981035, Control_c, 0, 64, 110
1, 981052, Control_c, 0, 64, 127
1, 981071, Note_on_c, 0, 32, 0
1, 981072, Note_on_c, 0, 44, 0
1, 981077, Note_on_c, 0, 56, 0
1, 981474, Note_on_c, 0, 56, 87
1, 981476, Note_on_c, 0, 75, 97
1, 981477, Note_on_c, 0, 44, 77
1, 981479, Note_on_c, 0, 63, 89
1, 981485, Note_on_c, 0, 68, 89
1, 981488, Note_on_c, 0, 51, 76
1, 981489, Note_on_c, 0, 72, 92
1, 981490, Note_on_c, 0, 48, 70
1, 981527, Note_on_c, 0, 63, 0
1, 981533, Note_on_c, 0, 56, 0
1, 981542, Note_on_c, 0, 44, 0
1, 981551, Note_on_c, 0, 68, 0
1, 981562, Note_on_c, 0, 48, 0
1, 981563, Note_on_c, 0, 51, 0
1, 981576, Note_on_c, 0, 72, 0
1, 981586, Note_on_c, 0, 75, 0
1, 982007, Note_on_c, 0, 87, 103
1, 982014, Note_on_c, 0, 84, 93
1, 982016, Note_on_c, 0, 75, 93
1, 982020, Note_on_c, 0, 80, 88
1, 982023, Note_on_c, 0, 68, 91
1, 982032, Note_on_c, 0, 56, 80
1, 982037, Note_on_c, 0, 63, 74
1, 982045, Note_on_c, 0, 60, 67
1, 982424, Note_on_c, 0, 68, 0
1, 982499, Note_on_c, 0, 56, 0
1, 982584, Note_on_c, 0, 87, 0
1, 982618, Note_on_c, 0, 84, 0
1, 982625, Note_on_c, 0, 80, 0
1, 982644, Note_on_c, 0, 60, 0
1, 982645, Note_on_c, 0, 75, 0
1, 982657, Note_on_c, 0, 63, 0
1, 982960, Control_c, 0, 67, 9
1, 983069, Control_c, 0, 67, 14
1, 983106, Control_c, 0, 67, 21
1, 983123, Control_c, 0, 67, 27
1, 983142, Control_c, 0, 67, 37
1, 983151, Note_on_c, 0, 84, 73
1, 983161, Control_c, 0, 64, 89
1, 983162, Control_c, 0, 67, 49
1, 983170, Note_on_c, 0, 60, 40
1, 983176, Note_on_c, 0, 68, 39
1, 983178, Note_on_c, 0, 75, 49
1, 983180, Control_c, 0, 64, 27
1, 983183, Control_c, 0, 67, 62
1, 983186, Note_on_c, 0, 63, 37
1, 983197, Control_c, 0, 64, 0
1, 983197, Note_on_c, 0, 56, 36
1, 983199, Control_c, 0, 67, 74
1, 983215, Control_c, 0, 67, 83
1, 983233, Control_c, 0, 67, 91
1, 983253, Control_c, 0, 64, 29
1, 983254, Control_c, 0, 67, 101
1, 983272, Control_c, 0, 64, 57
1, 983273, Control_c, 0, 67, 112
1, 983284, Note_on_c, 0, 75, 0
1, 983288, Control_c, 0, 64, 87
1, 983291, Control_c, 0, 67, 124
1, 983292, Note_on_c, 0, 60, 0
1, 983306, Note_on_c, 0, 56, 0
1, 983308, Control_c, 0, 64, 112
1, 983315, Note_on_c, 0, 63, 0
1, 983327, Control_c, 0, 64, 127
1, 983364, Note_on_c, 0, 68, 0
1, 983491, Note_on_c, 0, 82, 63
1, 983493, Note_on_c, 0, 84, 0
1, 983510, Control_c, 0, 64, 112
1, 983519, Note_on_c, 0, 73, 47
1, 983528, Control_c, 0, 64, 74
1, 983541, Note_on_c, 0, 63, 27
1, 983550, Control_c, 0, 64, 0
1, 983557, Note_on_c, 0, 61, 36
1, 983558, Note_on_c, 0, 67, 24
1, 983569, Note_on_c, 0, 56, 10
1, 983582, Note_on_c, 0, 58, 36
1, 983656, Control_c, 0, 64, 45
1, 983675, Control_c, 0, 64, 74
1, 983694, Control_c, 0, 64, 92
1, 983712, Control_c, 0, 64, 113
1, 983724, Note_on_c, 0, 63, 0
1, 983727, Note_on_c, 0, 61, 0
1, 983729, Note_on_c, 0, 67, 0
1, 983729, Note_on_c, 0, 56, 0
1, 983730, Control_c, 0, 64, 123
1, 983742, Note_on_c, 0, 73, 0
1, 983763, Note_on_c, 0, 58, 0
1, 983768, Control_c, 0, 64, 127
1, 983840, Note_on_c, 0, 82, 0
1, 984043, Note_on_c, 0, 75, 55
1, 984075, Note_on_c, 0, 73, 45
1, 984080, Note_on_c, 0, 61, 37
1, 984088, Note_on_c, 0, 67, 34
1, 984092, Note_on_c, 0, 63, 33
1, 984095, Control_c, 0, 64, 99
1, 984115, Control_c, 0, 64, 52
1, 984129, Note_on_c, 0, 56, 19
1, 984131, Control_c, 0, 64, 0
1, 984147, Note_on_c, 0, 58, 9
1, 984207, Control_c, 0, 64, 14
1, 984225, Control_c, 0, 64, 48
1, 984233, Note_on_c, 0, 75, 0
1, 984244, Control_c, 0, 64, 76
1, 984253, Note_on_c, 0, 67, 0
1, 984259, Note_on_c, 0, 56, 0
1, 984263, Control_c, 0, 64, 94
1, 984267, Note_on_c, 0, 58, 0
1, 984275, Note_on_c, 0, 61, 0
1, 984282, Control_c, 0, 64, 111
1, 984295, Note_on_c, 0, 63, 0
1, 984297, Control_c, 0, 64, 116
1, 984390, Note_on_c, 0, 73, 0
1, 984642, Note_on_c, 0, 80, 45
1, 984658, Note_on_c, 0, 60, 39
1, 984663, Note_on_c, 0, 68, 31
1, 984663, Note_on_c, 0, 63, 34
1, 984666, Note_on_c, 0, 72, 35
1, 984673, Note_on_c, 0, 56, 30
1, 984706, Control_c, 0, 64, 98
1, 984723, Control_c, 0, 64, 66
1, 984742, Control_c, 0, 64, 0
1, 984851, Control_c, 0, 64, 19
1, 984868, Control_c, 0, 64, 41
1, 984888, Control_c, 0, 64, 64
1, 984919, Note_on_c, 0, 68, 0
1, 984921, Control_c, 0, 64, 77
1, 984940, Control_c, 0, 64, 88
1, 984956, Poly_aftertouch_c, 0, 56, 24
1, 984957, Control_c, 0, 64, 96
1, 984997, Note_on_c, 0, 72, 0
1, 985001, Note_on_c, 0, 56, 0
1, 985001, Poly_aftertouch_c, 0, 56, 0
1, 985013, Control_c, 0, 64, 100
1, 985013, Control_c, 0, 67, 117
1, 985032, Control_c, 0, 67, 105
1, 985050, Control_c, 0, 67, 88
1, 985058, Note_on_c, 0, 80, 0
1, 985067, Control_c, 0, 67, 64
1, 985068, Note_on_c, 0, 60, 0
1, 985087, Control_c, 0, 67, 33
1, 985094, Note_on_c, 0, 63, 0
1, 985124, Control_c, 0, 67, 0
1, 985565, Control_c, 0, 64, 104
1, 985677, Control_c, 0, 64, 80
1, 985694, Control_c, 0, 64, 0
1, 985734, Note_on_c, 0, 29, 90
1, 985734, Note_on_c, 0, 41, 98
1, 985736, Note_on_c, 0, 53, 97
1, 985795, Note_on_c, 0, 41, 0
1, 985804, Control_c, 0, 64, 12
1, 985805, Note_on_c, 0, 29, 0
1, 985823, Note_on_c, 0, 53, 0
1, 985823, Control_c, 0, 64, 66
1, 985858, Control_c, 0, 64, 93
1, 985877, Control_c, 0, 64, 116
1, 985894, Control_c, 0, 64, 127
1, 986251, Note_on_c, 0, 72, 102
1, 986269, Note_on_c, 0, 41, 72
1, 986270, Note_on_c, 0, 68, 80
1, 986271, Note_on_c, 0, 60, 77
1, 986271, Note_on_c, 0, 53, 75
1, 986272, Note_on_c, 0, 65, 69
1, 986282, Note_on_c, 0, 48, 67
1, 986292, Note_on_c, 0, 44, 64
1, 986297, Note_on_c, 0, 68, 0
1, 986301, Note_on_c, 0, 60, 0
1, 986304, Note_on_c, 0, 65, 0
1, 986329, Note_on_c, 0, 53, 0
1, 986330, Note_on_c, 0, 72, 0
1, 986333, Note_on_c, 0, 41, 0
1, 986368, Note_on_c, 0, 48, 0
1, 986375, Note_on_c, 0, 44, 0
1, 986832, Note_on_c, 0, 84, 106
1, 986845, Note_on_c, 0, 80, 86
1, 986852, Note_on_c, 0, 77, 70
1, 986852, Note_on_c, 0, 65, 76
1, 986856, Note_on_c, 0, 53, 69
1, 986857, Note_on_c, 0, 72, 70
1, 986857, Note_on_c, 0, 60, 71
1, 986881, Note_on_c, 0, 56, 65
1, 986889, Control_c, 0, 64, 118
1, 986903, Control_c, 0, 64, 80
1, 986922, Control_c, 0, 64, 55
1, 986938, Control_c, 0, 64, 61
1, 986958, Control_c, 0, 64, 75
1, 986976, Control_c, 0, 64, 94
1, 986995, Control_c, 0, 64, 123
1, 987014, Control_c, 0, 64, 127
1, 987047, Note_on_c, 0, 77, 0
1, 987047, Note_on_c, 0, 77, 6
1, 987127, Poly_aftertouch_c, 0, 72, 24
1, 987171, Note_on_c, 0, 72, 0
1, 987171, Poly_aftertouch_c, 0, 72, 0
1, 987172, Poly_aftertouch_c, 0, 72, 0
1, 987182, Note_on_c, 0, 53, 0
1, 987206, Note_on_c, 0, 84, 0
1, 987232, Note_on_c, 0, 65, 0
1, 987262, Note_on_c, 0, 80, 0
1, 987265, Note_on_c, 0, 77, 0
1, 987291, Control_c, 0, 67, 8
1, 987294, Note_on_c, 0, 56, 0
1, 987301, Note_on_c, 0, 60, 0
1, 987345, Control_c, 0, 67, 12
1, 987398, Control_c, 0, 67, 18
1, 987436, Control_c, 0, 67, 24
1, 987473, Control_c, 0, 67, 28
1, 987511, Control_c, 0, 67, 33
1, 987530, Control_c, 0, 67, 37
1, 987548, Control_c, 0, 67, 42
1, 987565, Control_c, 0, 67, 47
1, 987603, Control_c, 0, 67, 54
1, 987621, Control_c, 0, 67, 59
1, 987639, Control_c, 0, 67, 67
1, 987659, Control_c, 0, 67, 76
1, 987676, Control_c, 0, 67, 86
1, 987693, Control_c, 0, 67, 94
1, 987728, Control_c, 0, 67, 101
1, 987746, Control_c, 0, 67, 105
1, 987785, Control_c, 0, 67, 112
1, 987820, Control_c, 0, 67, 118
1, 987838, Control_c, 0, 67, 123
1, 987857, Control_c, 0, 67, 127
1, 987873, Control_c, 0, 64, 98
1, 987877, Note_on_c, 0, 80, 76
1, 987893, Control_c, 0, 64, 45
1, 987895, Note_on_c, 0, 56, 41
1, 987901, Note_on_c, 0, 65, 37
1, 987909, Note_on_c, 0, 60, 40
1, 987910, Control_c, 0, 64, 0
1, 987925, Note_on_c, 0, 53, 35
1, 987937, Note_on_c, 0, 72, 42
1, 987986, Control_c, 0, 64, 36
1, 987995, Note_on_c, 0, 65, 0
1, 988005, Control_c, 0, 64, 65
1, 988007, Note_on_c, 0, 53, 0
1, 988012, Note_on_c, 0, 56, 0
1, 988024, Control_c, 0, 64, 87
1, 988029, Note_on_c, 0, 72, 0
1, 988041, Control_c, 0, 64, 104
1, 988059, Control_c, 0, 64, 115
1, 988082, Note_on_c, 0, 80, 0
1, 988171, Control_c, 0, 64, 100
1, 988188, Control_c, 0, 64, 65
1, 988195, Note_on_c, 0, 79, 55
1, 988200, Note_on_c, 0, 64, 36
1, 988204, Note_on_c, 0, 60, 0
1, 988204, Note_on_c, 0, 60, 6
1, 988207, Control_c, 0, 64, 0
1, 988229, Note_on_c, 0, 58, 37
1, 988232, Note_on_c, 0, 70, 38
1, 988232, Note_on_c, 0, 53, 7
1, 988275, Note_on_c, 0, 55, 14
1, 988335, Control_c, 0, 64, 42
1, 988354, Control_c, 0, 64, 69
1, 988373, Control_c, 0, 64, 84
1, 988391, Control_c, 0, 64, 99
1, 988401, Note_on_c, 0, 53, 0
1, 988407, Note_on_c, 0, 64, 0
1, 988409, Control_c, 0, 64, 107
1, 988419, Note_on_c, 0, 58, 0
1, 988422, Note_on_c, 0, 60, 0
1, 988425, Note_on_c, 0, 70, 0
1, 988433, Note_on_c, 0, 55, 0
1, 988447, Control_c, 0, 64, 112
1, 988489, Note_on_c, 0, 79, 0
1, 988612, Control_c, 0, 64, 116
1, 988751, Note_on_c, 0, 72, 50
1, 988759, Note_on_c, 0, 64, 32
1, 988774, Control_c, 0, 64, 100
1, 988774, Note_on_c, 0, 70, 42
1, 988779, Note_on_c, 0, 58, 28
1, 988792, Control_c, 0, 64, 67
1, 988798, Note_on_c, 0, 55, 24
1, 988801, Note_on_c, 0, 60, 18
1, 988810, Control_c, 0, 64, 0
1, 988845, Note_on_c, 0, 53, 11
1, 988903, Control_c, 0, 64, 10
1, 988922, Control_c, 0, 64, 49
1, 988940, Control_c, 0, 64, 75
1, 988955, Note_on_c, 0, 72, 0
1, 988955, Note_on_c, 0, 70, 0
1, 988959, Control_c, 0, 64, 91
1, 988977, Control_c, 0, 64, 105
1, 988995, Control_c, 0, 64, 109
1, 989002, Note_on_c, 0, 55, 0
1, 989017, Note_on_c, 0, 58, 0
1, 989028, Note_on_c, 0, 53, 0
1, 989029, Note_on_c, 0, 64, 0
1, 989035, Note_on_c, 0, 60, 0
1, 989087, Control_c, 0, 64, 113
1, 989336, Note_on_c, 0, 77, 49
1, 989365, Note_on_c, 0, 60, 34
1, 989367, Note_on_c, 0, 65, 30
1, 989378, Note_on_c, 0, 68, 34
1, 989381, Note_on_c, 0, 56, 33
1, 989395, Note_on_c, 0, 53, 18
1, 989401, Control_c, 0, 64, 97
1, 989419, Control_c, 0, 64, 68
1, 989437, Control_c, 0, 64, 0
1, 989567, Control_c, 0, 64, 28
1, 989599, Control_c, 0, 64, 47
1, 989619, Control_c, 0, 64, 62
1, 989637, Control_c, 0, 64, 70
1, 989656, Control_c, 0, 64, 73
1, 989672, Control_c, 0, 64, 75
1, 989682, Poly_aftertouch_c, 0, 65, 24
1, 989691, Control_c, 0, 64, 78
1, 989702, Poly_aftertouch_c, 0, 53, 24
1, 989709, Control_c, 0, 64, 81
1, 989728, Control_c, 0, 64, 85
1, 989730, Note_on_c, 0, 65, 0
1, 989730, Poly_aftertouch_c, 0, 65, 0
1, 989764, Control_c, 0, 64, 92
1, 989766, Control_c, 0, 67, 121
1, 989772, Note_on_c, 0, 53, 0
1, 989772, Poly_aftertouch_c, 0, 53, 0
1, 989773, Poly_aftertouch_c, 0, 53, 0
1, 989782, Note_on_c, 0, 77, 0
1, 989782, Control_c, 0, 67, 113
1, 989802, Control_c, 0, 67, 98
1, 989820, Control_c, 0, 67, 79
1, 989832, Poly_aftertouch_c, 0, 56, 24
1, 989839, Control_c, 0, 67, 55
1, 989858, Control_c, 0, 67, 29
1, 989867, Note_on_c, 0, 68, 0
1, 989885, Note_on_c, 0, 56, 0
1, 989885, Poly_aftertouch_c, 0, 56, 0
1, 989896, Control_c, 0, 67, 0
1, 989900, Note_on_c, 0, 60, 0
1, 990133, Control_c, 0, 64, 96
1, 990206, Control_c, 0, 64, 101
1, 990262, Control_c, 0, 64, 106
1, 990299, Control_c, 0, 64, 110
1, 990337, Control_c, 0, 64, 117
1, 990355, Control_c, 0, 64, 122
1, 990372, Control_c, 0, 64, 127
1, 990483, Control_c, 0, 64, 110
1, 990502, Control_c, 0, 64, 52
1, 990528, Note_on_c, 0, 61, 98
1, 990529, Note_on_c, 0, 37, 87
1, 990535, Note_on_c, 0, 49, 97
1, 990535, Control_c, 0, 64, 0
1, 990604, Note_on_c, 0, 49, 0
1, 990607, Control_c, 0, 64, 44
1, 990616, Note_on_c, 0, 37, 0
1, 990625, Note_on_c, 0, 61, 0
1, 990626, Control_c, 0, 64, 76
1, 990645, Control_c, 0, 64, 98
1, 990664, Control_c, 0, 64, 124
1, 990667, Poly_aftertouch_c, 0, 43, 0
1, 990998, Note_on_c, 0, 80, 98
1, 991005, Note_on_c, 0, 77, 89
1, 991007, Note_on_c, 0, 68, 81
1, 991007, Note_on_c, 0, 61, 80
1, 991014, Note_on_c, 0, 49, 69
1, 991015, Note_on_c, 0, 73, 79
1, 991019, Note_on_c, 0, 56, 69
1, 991025, Note_on_c, 0, 53, 65
1, 991032, Note_on_c, 0, 68, 0
1, 991045, Note_on_c, 0, 73, 0
1, 991076, Note_on_c, 0, 61, 0
1, 991078, Note_on_c, 0, 77, 0
1, 991084, Note_on_c, 0, 49, 0
1, 991103, Note_on_c, 0, 80, 0
1, 991112, Note_on_c, 0, 53, 0
1, 991113, Note_on_c, 0, 56, 0
1, 991665, Note_on_c, 0, 92, 101
1, 991683, Note_on_c, 0, 89, 84
1, 991690, Note_on_c, 0, 85, 77
1, 991691, Note_on_c, 0, 80, 74
1, 991695, Note_on_c, 0, 73, 75
1, 991708, Note_on_c, 0, 68, 65
1, 991709, Note_on_c, 0, 61, 62
1, 991714, Note_on_c, 0, 65, 58
1, 991878, Note_on_c, 0, 73, 0
1, 992035, Note_on_c, 0, 61, 0
1, 992179, Note_on_c, 0, 68, 0
1, 992180, Note_on_c, 0, 85, 0
1, 992223, Note_on_c, 0, 92, 0
1, 992231, Note_on_c, 0, 89, 0
1, 992243, Note_on_c, 0, 80, 0
1, 992265, Note_on_c, 0, 65, 0
1, 992608, Control_c, 0, 67, 8
1, 992738, Control_c, 0, 67, 13
1, 992752, Note_on_c, 0, 89, 86
1, 992756, Control_c, 0, 64, 119
1, 992761, Note_on_c, 0, 73, 46
1, 992765, Note_on_c, 0, 65, 44
1, 992768, Note_on_c, 0, 68, 48
1, 992771, Note_on_c, 0, 61, 47
1, 992775, Control_c, 0, 64, 95
1, 992788, Note_on_c, 0, 80, 60
1, 992790, Control_c, 0, 64, 78
1, 992829, Control_c, 0, 64, 85
1, 992831, Control_c, 0, 67, 21
1, 992848, Control_c, 0, 64, 98
1, 992850, Control_c, 0, 67, 25
1, 992864, Note_on_c, 0, 80, 0
1, 992867, Control_c, 0, 64, 118
1, 992867, Control_c, 0, 67, 30
1, 992874, Note_on_c, 0, 65, 0
1, 992884, Control_c, 0, 64, 127
1, 992891, Note_on_c, 0, 61, 0
1, 992903, Note_on_c, 0, 68, 0
1, 992905, Control_c, 0, 67, 36
1, 992923, Control_c, 0, 67, 41
1, 992940, Control_c, 0, 67, 48
1, 992941, Note_on_c, 0, 73, 0
1, 992959, Control_c, 0, 67, 55
1, 992976, Control_c, 0, 67, 61
1, 992996, Control_c, 0, 67, 67
1, 993013, Control_c, 0, 67, 71
1, 993031, Control_c, 0, 67, 75
1, 993069, Control_c, 0, 67, 83
1, 993087, Control_c, 0, 67, 88
1, 993105, Control_c, 0, 67, 93
1, 993106, Note_on_c, 0, 87, 68
1, 993125, Control_c, 0, 64, 113
1, 993126, Control_c, 0, 67, 98
1, 993136, Note_on_c, 0, 78, 47
1, 993138, Note_on_c, 0, 72, 41
1, 993144, Control_c, 0, 64, 71
1, 993146, Control_c, 0, 67, 103
1, 993150, Note_on_c, 0, 61, 32
1, 993151, Note_on_c, 0, 68, 35
1, 993156, Note_on_c, 0, 89, 0
1, 993161, Note_on_c, 0, 66, 36
1, 993162, Control_c, 0, 64, 0
1, 993163, Control_c, 0, 67, 108
1, 993177, Control_c, 0, 67, 112
1, 993191, Note_on_c, 0, 63, 29
1, 993196, Control_c, 0, 67, 116
1, 993234, Control_c, 0, 67, 122
1, 993253, Control_c, 0, 64, 29
1, 993270, Control_c, 0, 64, 57
1, 993272, Control_c, 0, 67, 127
1, 993290, Control_c, 0, 64, 82
1, 993308, Control_c, 0, 64, 101
1, 993341, Control_c, 0, 64, 119
1, 993361, Control_c, 0, 64, 125
1, 993362, Note_on_c, 0, 66, 0
1, 993383, Note_on_c, 0, 61, 0
1, 993383, Note_on_c, 0, 68, 0
1, 993384, Note_on_c, 0, 78, 0
1, 993386, Note_on_c, 0, 72, 0
1, 993396, Note_on_c, 0, 63, 0
1, 993421, Note_on_c, 0, 87, 0
1, 993662, Note_on_c, 0, 80, 59
1, 993695, Note_on_c, 0, 78, 45
1, 993706, Note_on_c, 0, 66, 36
1, 993710, Control_c, 0, 64, 109
1, 993716, Note_on_c, 0, 72, 31
1, 993725, Note_on_c, 0, 61, 30
1, 993727, Control_c, 0, 64, 79
1, 993746, Control_c, 0, 64, 47
1, 993751, Note_on_c, 0, 68, 16
1, 993765, Control_c, 0, 64, 33
1, 993767, Note_on_c, 0, 63, 7
1, 993803, Control_c, 0, 64, 42
1, 993821, Control_c, 0, 64, 64
1, 993840, Control_c, 0, 64, 82
1, 993857, Note_on_c, 0, 80, 0
1, 993857, Control_c, 0, 64, 101
1, 993875, Control_c, 0, 64, 118
1, 993876, Note_on_c, 0, 72, 0
1, 993893, Note_on_c, 0, 61, 0
1, 993893, Control_c, 0, 64, 124
1, 993896, Note_on_c, 0, 63, 0
1, 993905, Note_on_c, 0, 66, 0
1, 993908, Note_on_c, 0, 68, 0
1, 993950, Note_on_c, 0, 78, 0
1, 994253, Note_on_c, 0, 85, 52
1, 994295, Note_on_c, 0, 77, 31
1, 994297, Note_on_c, 0, 73, 21
1, 994305, Note_on_c, 0, 68, 33
1, 994308, Note_on_c, 0, 65, 31
1, 994320, Note_on_c, 0, 61, 29
1, 994333, Control_c, 0, 64, 116
1, 994351, Control_c, 0, 64, 89
1, 994369, Control_c, 0, 64, 52
1, 994388, Control_c, 0, 64, 10
1, 994442, Control_c, 0, 64, 22
1, 994462, Control_c, 0, 64, 44
1, 994479, Control_c, 0, 64, 67
1, 994499, Control_c, 0, 64, 83
1, 994517, Control_c, 0, 64, 99
1, 994535, Control_c, 0, 64, 112
1, 994537, Note_on_c, 0, 73, 0
1, 994549, Poly_aftertouch_c, 0, 77, 24
1, 994553, Control_c, 0, 64, 118
1, 994578, Note_on_c, 0, 77, 0
1, 994578, Poly_aftertouch_c, 0, 77, 0
1, 994613, Note_on_c, 0, 85, 0
1, 994650, Note_on_c, 0, 61, 0
1, 994681, Note_on_c, 0, 68, 0
1, 994681, Control_c, 0, 64, 122
1, 994708, Note_on_c, 0, 65, 0
1, 995069, Control_c, 0, 64, 126
1, 995223, Note_on_c, 0, 77, 71
1, 995231, Control_c, 0, 64, 109
1, 995249, Control_c, 0, 64, 84
1, 995261, Note_on_c, 0, 61, 38
1, 995269, Control_c, 0, 64, 63
1, 995269, Note_on_c, 0, 56, 37
1, 995274, Note_on_c, 0, 68, 39
1, 995280, Note_on_c, 0, 49, 30
1, 995286, Control_c, 0, 64, 62
1, 995306, Control_c, 0, 64, 68
1, 995324, Control_c, 0, 64, 76
1, 995327, Note_on_c, 0, 77, 0
1, 995333, Note_on_c, 0, 68, 0
1, 995341, Control_c, 0, 64, 91
1, 995361, Control_c, 0, 64, 110
1, 995377, Note_on_c, 0, 49, 0
1, 995377, Control_c, 0, 64, 125
1, 995440, Note_on_c, 0, 61, 0
1, 995530, Note_on_c, 0, 75, 62
1, 995544, Control_c, 0, 64, 94
1, 995563, Control_c, 0, 64, 55
1, 995564, Note_on_c, 0, 66, 39
1, 995569, Note_on_c, 0, 60, 29
1, 995570, Note_on_c, 0, 56, 0
1, 995570, Note_on_c, 0, 56, 6
1, 995572, Note_on_c, 0, 49, 30
1, 995582, Control_c, 0, 64, 8
1, 995635, Control_c, 0, 64, 31
1, 995655, Control_c, 0, 64, 56
1, 995671, Control_c, 0, 64, 77
1, 995690, Control_c, 0, 64, 94
1, 995693, Note_on_c, 0, 49, 0
1, 995709, Control_c, 0, 64, 110
1, 995728, Control_c, 0, 64, 118
1, 995732, Note_on_c, 0, 60, 0
1, 995740, Note_on_c, 0, 66, 0
1, 995744, Note_on_c, 0, 56, 0
1, 995770, Note_on_c, 0, 75, 0
1, 995802, Control_c, 0, 64, 122
1, 996030, Note_on_c, 0, 68, 51
1, 996051, Note_on_c, 0, 66, 38
1, 996063, Note_on_c, 0, 56, 35
1, 996074, Note_on_c, 0, 60, 36
1, 996076, Control_c, 0, 64, 112
1, 996077, Note_on_c, 0, 49, 32
1, 996096, Control_c, 0, 64, 84
1, 996115, Control_c, 0, 64, 46
1, 996149, Control_c, 0, 64, 0
1, 996188, Control_c, 0, 64, 9
1, 996204, Control_c, 0, 64, 33
1, 996222, Control_c, 0, 64, 56
1, 996232, Note_on_c, 0, 49, 0
1, 996240, Control_c, 0, 64, 77
1, 996255, Note_on_c, 0, 68, 0
1, 996258, Control_c, 0, 64, 94
1, 996273, Note_on_c, 0, 60, 0
1, 996275, Note_on_c, 0, 56, 0
1, 996277, Control_c, 0, 64, 110
1, 996296, Control_c, 0, 64, 119
1, 996340, Note_on_c, 0, 66, 0
1, 996369, Control_c, 0, 64, 123
1, 996670, Note_on_c, 0, 73, 41
1, 996680, Note_on_c, 0, 56, 28
1, 996687, Note_on_c, 0, 61, 24
1, 996695, Note_on_c, 0, 49, 28
1, 996702, Note_on_c, 0, 65, 26
1, 996719, Control_c, 0, 64, 117
1, 996738, Control_c, 0, 64, 99
1, 996757, Control_c, 0, 64, 66
1, 996773, Control_c, 0, 64, 0
1, 996904, Control_c, 0, 64, 26
1, 996921, Control_c, 0, 64, 47
1, 996940, Control_c, 0, 64, 67
1, 996959, Control_c, 0, 64, 78
1, 996968, Note_on_c, 0, 61, 0
1, 996975, Poly_aftertouch_c, 0, 49, 22
1, 996978, Control_c, 0, 64, 88
1, 996994, Control_c, 0, 64, 94
1, 997003, Note_on_c, 0, 49, 0
1, 997003, Poly_aftertouch_c, 0, 49, 0
1, 997013, Control_c, 0, 64, 98
1, 997032, Note_on_c, 0, 65, 0
1, 997055, Note_on_c, 0, 73, 0
1, 997115, Note_on_c, 0, 56, 0
1, 997750, Note_on_c, 0, 65, 56
1, 997790, Note_on_c, 0, 44, 33
1, 997795, Note_on_c, 0, 49, 27
1, 997795, Note_on_c, 0, 37, 30
1, 997809, Note_on_c, 0, 56, 24
1, 997855, Note_on_c, 0, 65, 0
1, 997873, Note_on_c, 0, 37, 0
1, 997889, Note_on_c, 0, 44, 0
1, 997904, Note_on_c, 0, 49, 0
1, 997961, Note_on_c, 0, 56, 0
1, 998147, Note_on_c, 0, 63, 47
1, 998150, Note_on_c, 0, 44, 23
1, 998167, Control_c, 0, 64, 80
1, 998169, Note_on_c, 0, 54, 30
1, 998183, Control_c, 0, 64, 57
1, 998188, Note_on_c, 0, 48, 18
1, 998190, Note_on_c, 0, 37, 23
1, 998203, Control_c, 0, 64, 37
1, 998278, Control_c, 0, 64, 42
1, 998297, Control_c, 0, 64, 57
1, 998315, Control_c, 0, 64, 68
1, 998333, Control_c, 0, 64, 73
1, 998351, Control_c, 0, 64, 77
1, 998370, Control_c, 0, 64, 80
1, 998388, Control_c, 0, 64, 82
1, 998425, Control_c, 0, 64, 85
1, 998457, Poly_aftertouch_c, 0, 48, 20
1, 998459, Note_on_c, 0, 37, 0
1, 998468, Note_on_c, 0, 44, 0
1, 998469, Note_on_c, 0, 48, 0
1, 998469, Poly_aftertouch_c, 0, 48, 0
1, 998470, Note_on_c, 0, 54, 0
1, 998560, Note_on_c, 0, 63, 0
1, 998723, Note_on_c, 0, 56, 40
1, 998753, Note_on_c, 0, 54, 26
1, 998771, Note_on_c, 0, 44, 18
1, 998791, Note_on_c, 0, 48, 12
1, 998792, Note_on_c, 0, 37, 15
1, 998870, Note_on_c, 0, 37, 0
1, 998895, Note_on_c, 0, 48, 0
1, 998903, Note_on_c, 0, 56, 0
1, 998921, Note_on_c, 0, 44, 0
1, 998974, Control_c, 0, 64, 83
1, 998984, Note_on_c, 0, 54, 0
1, 999275, Note_on_c, 0, 61, 43
1, 999286, Note_on_c, 0, 53, 34
1, 999289, Note_on_c, 0, 44, 32
1, 999292, Note_on_c, 0, 49, 29
1, 999309, Note_on_c, 0, 37, 33
1, 999435, Note_on_c, 0, 37, 0
1, 999455, Note_on_c, 0, 49, 0
1, 999467, Note_on_c, 0, 44, 0
1, 999521, Note_on_c, 0, 53, 0
1, 999541, Note_on_c, 0, 61, 0
1, 999815, Note_on_c, 0, 56, 37
1, 999820, Note_on_c, 0, 53, 28
1, 999828, Note_on_c, 0, 49, 29
1, 999839, Note_on_c, 0, 44, 27
1, 999855, Note_on_c, 0, 37, 23
1, 999981, Note_on_c, 0, 37, 0
1, 999990, Note_on_c, 0, 49, 0
1, 999996, Note_on_c, 0, 44, 0
1, 1000023, Note_on_c, 0, 53, 0
1, 1000030, Note_on_c, 0, 56, 0
1, 1000388, Note_on_c, 0, 63, 41
1, 1000405, Note_on_c, 0, 44, 28
1, 1000407, Note_on_c, 0, 54, 35
1, 1000427, Note_on_c, 0, 48, 32
1, 1000427, Note_on_c, 0, 37, 28
1, 1000539, Note_on_c, 0, 37, 0
1, 1000554, Note_on_c, 0, 48, 0
1, 1000563, Note_on_c, 0, 44, 0
1, 1000587, Note_on_c, 0, 63, 0
1, 1000605, Note_on_c, 0, 54, 0
1, 1000956, Note_on_c, 0, 56, 38
1, 1000977, Note_on_c, 0, 54, 28
1, 1000985, Note_on_c, 0, 44, 28
1, 1000999, Note_on_c, 0, 48, 21
1, 1000999, Note_on_c, 0, 37, 20
1, 1001079, Note_on_c, 0, 37, 0
1, 1001088, Note_on_c, 0, 44, 0
1, 1001095, Note_on_c, 0, 48, 0
1, 1001108, Note_on_c, 0, 56, 0
1, 1001128, Note_on_c, 0, 54, 0
1, 1001160, Control_c, 0, 64, 81
1, 1001508, Note_on_c, 0, 37, 26
1, 1001508, Note_on_c, 0, 63, 45
1, 1001514, Note_on_c, 0, 44, 32
1, 1001526, Note_on_c, 0, 54, 32
1, 1001526, Note_on_c, 0, 48, 21
1, 1001603, Note_on_c, 0, 37, 0
1, 1001616, Note_on_c, 0, 48, 0
1, 1001625, Note_on_c, 0, 44, 0
1, 1001692, Note_on_c, 0, 63, 0
1, 1001703, Note_on_c, 0, 54, 0
1, 1002064, Note_on_c, 0, 56, 34
1, 1002069, Note_on_c, 0, 54, 27
1, 1002080, Note_on_c, 0, 44, 26
1, 1002097, Note_on_c, 0, 48, 17
1, 1002109, Note_on_c, 0, 37, 17
1, 1002168, Note_on_c, 0, 37, 0
1, 1002177, Note_on_c, 0, 56, 0
1, 1002184, Note_on_c, 0, 48, 0
1, 1002202, Note_on_c, 0, 44, 0
1, 1002234, Note_on_c, 0, 54, 0
1, 1002594, Control_c, 0, 64, 83
1, 1002628, Control_c, 0, 64, 73
1, 1002637, Note_on_c, 0, 61, 51
1, 1002641, Note_on_c, 0, 49, 32
1, 1002648, Note_on_c, 0, 53, 40
1, 1002648, Control_c, 0, 64, 54
1, 1002653, Note_on_c, 0, 44, 34
1, 1002654, Note_on_c, 0, 37, 38
1, 1002666, Control_c, 0, 64, 9
1, 1002679, Note_on_c, 0, 61, 0
1, 1002697, Control_c, 0, 64, 0
1, 1002702, Note_on_c, 0, 53, 0
1, 1002871, Note_on_c, 0, 49, 0
1, 1002877, Note_on_c, 0, 44, 0
1, 1002887, Note_on_c, 0, 37, 0
1, 1002956, Note_on_c, 0, 65, 47
1, 1002967, Note_on_c, 0, 56, 43
1, 1002972, Note_on_c, 0, 61, 37
1, 1003085, Control_c, 0, 64, 12
1, 1003104, Control_c, 0, 64, 21
1, 1003122, Control_c, 0, 64, 26
1, 1003158, Control_c, 0, 64, 33
1, 1003177, Control_c, 0, 64, 37
1, 1003195, Control_c, 0, 64, 42
1, 1003208, Note_on_c, 0, 49, 45
1, 1003213, Control_c, 0, 64, 47
1, 1003233, Control_c, 0, 64, 52
1, 1003237, Note_on_c, 0, 56, 0
1, 1003242, Note_on_c, 0, 61, 0
1, 1003251, Control_c, 0, 64, 55
1, 1003257, Note_on_c, 0, 49, 0
1, 1003257, Note_on_c, 0, 65, 0
1, 1003462, Note_on_c, 0, 65, 39
1, 1003479, Note_on_c, 0, 61, 32
1, 1003486, Note_on_c, 0, 56, 35
1, 1003583, Control_c, 0, 64, 57
1, 1003723, Note_on_c, 0, 56, 0
1, 1003728, Note_on_c, 0, 61, 0
1, 1003743, Note_on_c, 0, 49, 32
1, 1003744, Note_on_c, 0, 65, 0
1, 1003786, Note_on_c, 0, 49, 0
1, 1003977, Note_on_c, 0, 65, 46
1, 1003995, Note_on_c, 0, 56, 38
1, 1004002, Note_on_c, 0, 61, 31
1, 1004223, Note_on_c, 0, 65, 0
1, 1004227, Note_on_c, 0, 56, 0
1, 1004228, Note_on_c, 0, 61, 0
1, 1004234, Note_on_c, 0, 49, 42
1, 1004269, Note_on_c, 0, 49, 0
1, 1004426, Control_c, 0, 64, 59
1, 1004478, Note_on_c, 0, 65, 46
1, 1004487, Note_on_c, 0, 61, 44
1, 1004500, Note_on_c, 0, 56, 35
1, 1004626, Control_c, 0, 64, 57
1, 1004644, Control_c, 0, 64, 49
1, 1004662, Control_c, 0, 64, 36
1, 1004682, Control_c, 0, 64, 28
1, 1004735, Note_on_c, 0, 65, 0
1, 1004743, Note_on_c, 0, 44, 45
1, 1004745, Note_on_c, 0, 63, 46
1, 1004771, Note_on_c, 0, 61, 0
1, 1004772, Control_c, 0, 64, 33
1, 1004783, Poly_aftertouch_c, 0, 56, 20
1, 1004787, Note_on_c, 0, 56, 0
1, 1004787, Poly_aftertouch_c, 0, 56, 0
1, 1004788, Poly_aftertouch_c, 0, 56, 0
1, 1004791, Control_c, 0, 64, 40
1, 1004794, Note_on_c, 0, 44, 0
1, 1004796, Note_on_c, 0, 63, 0
1, 1004808, Control_c, 0, 64, 44
1, 1004828, Control_c, 0, 64, 47
1, 1004846, Control_c, 0, 64, 49
1, 1004903, Control_c, 0, 64, 51
1, 1005017, Note_on_c, 0, 60, 36
1, 1005019, Note_on_c, 0, 56, 37
1, 1005020, Note_on_c, 0, 63, 43
1, 1005197, Control_c, 0, 64, 53
1, 1005270, Note_on_c, 0, 60, 0
1, 1005271, Note_on_c, 0, 44, 46
1, 1005275, Note_on_c, 0, 63, 0
1, 1005275, Note_on_c, 0, 56, 0
1, 1005287, Control_c, 0, 64, 55
1, 1005321, Note_on_c, 0, 44, 0
1, 1005435, Control_c, 0, 64, 57
1, 1005536, Note_on_c, 0, 63, 44
1, 1005537, Note_on_c, 0, 60, 50
1, 1005557, Note_on_c, 0, 56, 35
1, 1005747, Note_on_c, 0, 60, 0
1, 1005782, Control_c, 0, 64, 55
1, 1005782, Note_on_c, 0, 44, 43
1, 1005786, Note_on_c, 0, 59, 56
1, 1005812, Note_on_c, 0, 56, 0
1, 1005829, Note_on_c, 0, 63, 0
1, 1005838, Control_c, 0, 64, 53
1, 1005850, Note_on_c, 0, 44, 0
1, 1005850, Note_on_c, 0, 59, 0
1, 1005875, Control_c, 0, 64, 51
1, 1005928, Control_c, 0, 64, 48
1, 1006022, Note_on_c, 0, 63, 66
1, 1006039, Note_on_c, 0, 59, 56
1, 1006043, Note_on_c, 0, 56, 54
1, 1006132, Control_c, 0, 67, 122
1, 1006149, Control_c, 0, 67, 111
1, 1006169, Control_c, 0, 67, 93
1, 1006188, Control_c, 0, 67, 68
1, 1006205, Control_c, 0, 64, 50
1, 1006206, Control_c, 0, 67, 36
1, 1006217, Note_on_c, 0, 59, 0
1, 1006228, Note_on_c, 0, 56, 0
1, 1006242, Control_c, 0, 67, 0
1, 1006259, Note_on_c, 0, 44, 53
1, 1006260, Note_on_c, 0, 63, 0
1, 1006335, Note_on_c, 0, 44, 0
1, 1006390, Control_c, 0, 64, 53
1, 1006408, Control_c, 0, 64, 56
1, 1006440, Control_c, 0, 64, 61
1, 1006459, Control_c, 0, 64, 66
1, 1006478, Control_c, 0, 64, 72
1, 1006497, Control_c, 0, 64, 77
1, 1006515, Control_c, 0, 64, 85
1, 1006524, Note_on_c, 0, 65, 83
1, 1006534, Control_c, 0, 64, 92
1, 1006536, Note_on_c, 0, 56, 64
1, 1006542, Note_on_c, 0, 62, 67
1, 1006552, Control_c, 0, 64, 99
1, 1006554, Note_on_c, 0, 59, 50
1, 1006571, Control_c, 0, 64, 105
1, 1006572, Note_on_c, 0, 56, 0
1, 1006586, Note_on_c, 0, 62, 0
1, 1006588, Note_on_c, 0, 59, 0
1, 1006588, Control_c, 0, 64, 110
1, 1006618, Note_on_c, 0, 65, 0
1, 1006625, Control_c, 0, 64, 115
1, 1006663, Control_c, 0, 64, 119
1, 1006718, Control_c, 0, 64, 123
1, 1006719, Control_c, 0, 67, 9
1, 1006736, Control_c, 0, 67, 13
1, 1006773, Control_c, 0, 67, 20
1, 1006810, Control_c, 0, 64, 117
1, 1006812, Control_c, 0, 67, 28
1, 1006827, Control_c, 0, 64, 83
1, 1006828, Control_c, 0, 67, 38
1, 1006845, Control_c, 0, 64, 0
1, 1006848, Control_c, 0, 67, 51
1, 1006851, Note_on_c, 0, 66, 46
1, 1006864, Control_c, 0, 67, 65
1, 1006865, Note_on_c, 0, 63, 47
1, 1006870, Note_on_c, 0, 58, 46
1, 1006871, Note_on_c, 0, 54, 44
1, 1006873, Note_on_c, 0, 39, 38
1, 1006884, Control_c, 0, 67, 79
1, 1006902, Control_c, 0, 67, 93
1, 1006919, Control_c, 0, 67, 106
1, 1006921, Note_on_c, 0, 54, 0
1, 1006925, Note_on_c, 0, 63, 0
1, 1006932, Note_on_c, 0, 58, 0
1, 1006937, Control_c, 0, 64, 17
1, 1006938, Control_c, 0, 67, 120
1, 1006944, Note_on_c, 0, 66, 0
1, 1006957, Control_c, 0, 64, 46
1, 1006958, Control_c, 0, 67, 127
1, 1006975, Control_c, 0, 64, 60
1, 1006995, Control_c, 0, 64, 62
1, 1007085, Control_c, 0, 64, 61
1, 1007123, Control_c, 0, 64, 60
1, 1007143, Note_on_c, 0, 39, 0
1, 1007186, Note_on_c, 0, 66, 46
1, 1007196, Control_c, 0, 64, 58
1, 1007201, Note_on_c, 0, 63, 36
1, 1007207, Note_on_c, 0, 58, 38
1, 1007422, Note_on_c, 0, 66, 0
1, 1007432, Note_on_c, 0, 58, 0
1, 1007434, Note_on_c, 0, 51, 45
1, 1007437, Note_on_c, 0, 63, 0
1, 1007532, Note_on_c, 0, 51, 0
1, 1007691, Note_on_c, 0, 66, 51
1, 1007705, Note_on_c, 0, 63, 41
1, 1007710, Note_on_c, 0, 58, 36
1, 1007895, Note_on_c, 0, 63, 0
1, 1007902, Note_on_c, 0, 66, 0
1, 1007913, Note_on_c, 0, 58, 0
1, 1007953, Note_on_c, 0, 51, 42
1, 1008004, Note_on_c, 0, 51, 0
1, 1008191, Note_on_c, 0, 66, 42
1, 1008208, Note_on_c, 0, 58, 36
1, 1008211, Note_on_c, 0, 63, 37
1, 1008280, Control_c, 0, 64, 60
1, 1008349, Control_c, 0, 64, 61
1, 1008417, Note_on_c, 0, 63, 0
1, 1008420, Note_on_c, 0, 66, 0
1, 1008424, Note_on_c, 0, 58, 0
1, 1008456, Note_on_c, 0, 51, 49
1, 1008513, Note_on_c, 0, 51, 0
1, 1008692, Note_on_c, 0, 66, 51
1, 1008708, Note_on_c, 0, 63, 44
1, 1008710, Note_on_c, 0, 58, 34
1, 1008847, Note_on_c, 0, 63, 0
1, 1008926, Note_on_c, 0, 65, 54
1, 1008952, Note_on_c, 0, 46, 45
1, 1008982, Note_on_c, 0, 66, 0
1, 1009004, Note_on_c, 0, 65, 0
1, 1009012, Note_on_c, 0, 58, 0
1, 1009053, Note_on_c, 0, 46, 0
1, 1009087, Control_c, 0, 64, 60
1, 1009189, Note_on_c, 0, 58, 34
1, 1009206, Note_on_c, 0, 65, 43
1, 1009217, Note_on_c, 0, 62, 38
1, 1009267, Control_c, 0, 64, 61
1, 1009416, Note_on_c, 0, 62, 0
1, 1009436, Note_on_c, 0, 65, 0
1, 1009457, Note_on_c, 0, 58, 0
1, 1009462, Note_on_c, 0, 46, 44
1, 1009561, Note_on_c, 0, 46, 0
1, 1009703, Note_on_c, 0, 65, 53
1, 1009713, Note_on_c, 0, 58, 40
1, 1009719, Note_on_c, 0, 62, 48
1, 1009939, Note_on_c, 0, 62, 0
1, 1009950, Note_on_c, 0, 61, 58
1, 1009953, Note_on_c, 0, 46, 43
1, 1009955, Note_on_c, 0, 65, 0
1, 1010003, Control_c, 0, 67, 117
1, 1010008, Note_on_c, 0, 61, 0
1, 1010009, Note_on_c, 0, 58, 0
1, 1010022, Control_c, 0, 67, 105
1, 1010040, Control_c, 0, 67, 92
1, 1010059, Control_c, 0, 67, 78
1, 1010078, Control_c, 0, 67, 61
1, 1010096, Control_c, 0, 67, 42
1, 1010107, Note_on_c, 0, 46, 0
1, 1010112, Control_c, 0, 67, 20
1, 1010132, Control_c, 0, 67, 0
1, 1010217, Note_on_c, 0, 65, 66
1, 1010232, Note_on_c, 0, 58, 40
1, 1010235, Note_on_c, 0, 61, 51
1, 1010368, Control_c, 0, 64, 59
1, 1010387, Control_c, 0, 64, 45
1, 1010405, Control_c, 0, 64, 0
1, 1010432, Note_on_c, 0, 61, 0
1, 1010462, Note_on_c, 0, 58, 0
1, 1010467, Note_on_c, 0, 46, 51
1, 1010497, Control_c, 0, 64, 10
1, 1010516, Control_c, 0, 64, 38
1, 1010534, Control_c, 0, 64, 57
1, 1010541, Note_on_c, 0, 46, 0
1, 1010554, Control_c, 0, 64, 69
1, 1010563, Note_on_c, 0, 65, 0
1, 1010568, Control_c, 0, 64, 74
1, 1010588, Control_c, 0, 64, 77
1, 1010608, Control_c, 0, 64, 81
1, 1010625, Control_c, 0, 64, 83
1, 1010645, Control_c, 0, 64, 85
1, 1010662, Control_c, 0, 64, 87
1, 1010716, Note_on_c, 0, 67, 86
1, 1010717, Control_c, 0, 64, 93
1, 1010731, Note_on_c, 0, 58, 65
1, 1010736, Note_on_c, 0, 64, 67
1, 1010737, Control_c, 0, 64, 98
1, 1010756, Control_c, 0, 64, 103
1, 1010758, Note_on_c, 0, 58, 0
1, 1010793, Control_c, 0, 64, 110
1, 1010794, Control_c, 0, 67, 8
1, 1010801, Note_on_c, 0, 64, 0
1, 1010808, Note_on_c, 0, 67, 0
1, 1010808, Control_c, 0, 64, 114
1, 1010846, Control_c, 0, 64, 119
1, 1010901, Control_c, 0, 67, 12
1, 1010919, Control_c, 0, 64, 89
1, 1010939, Control_c, 0, 64, 37
1, 1010941, Control_c, 0, 67, 16
1, 1010959, Control_c, 0, 64, 0
1, 1010983, Note_on_c, 0, 68, 65
1, 1010984, Note_on_c, 0, 56, 57
1, 1010988, Note_on_c, 0, 41, 50
1, 1010994, Note_on_c, 0, 60, 51
1, 1011003, Note_on_c, 0, 65, 44
1, 1011013, Control_c, 0, 67, 22
1, 1011023, Note_on_c, 0, 56, 0
1, 1011026, Note_on_c, 0, 60, 0
1, 1011029, Control_c, 0, 64, 38
1, 1011033, Note_on_c, 0, 65, 0
1, 1011049, Control_c, 0, 64, 69
1, 1011050, Control_c, 0, 67, 29
1, 1011058, Note_on_c, 0, 68, 0
1, 1011068, Control_c, 0, 64, 83
1, 1011087, Control_c, 0, 64, 89
1, 1011089, Control_c, 0, 67, 35
1, 1011137, Control_c, 0, 64, 87
1, 1011138, Control_c, 0, 67, 39
1, 1011156, Control_c, 0, 64, 82
1, 1011174, Control_c, 0, 64, 76
1, 1011178, Control_c, 0, 67, 45
1, 1011193, Control_c, 0, 64, 72
1, 1011193, Control_c, 0, 67, 49
1, 1011211, Control_c, 0, 64, 68
1, 1011230, Control_c, 0, 64, 64
1, 1011231, Control_c, 0, 67, 56
1, 1011249, Control_c, 0, 64, 62
1, 1011267, Control_c, 0, 67, 63
1, 1011277, Note_on_c, 0, 41, 0
1, 1011304, Control_c, 0, 67, 71
1, 1011321, Control_c, 0, 64, 61
1, 1011323, Control_c, 0, 67, 75
1, 1011323, Note_on_c, 0, 68, 50
1, 1011335, Note_on_c, 0, 65, 27
1, 1011339, Control_c, 0, 64, 60
1, 1011341, Control_c, 0, 67, 81
1, 1011347, Note_on_c, 0, 60, 34
1, 1011358, Control_c, 0, 67, 85
1, 1011376, Control_c, 0, 64, 58
1, 1011378, Control_c, 0, 67, 89
1, 1011396, Control_c, 0, 67, 94
1, 1011413, Control_c, 0, 67, 102
1, 1011433, Control_c, 0, 67, 109
1, 1011451, Control_c, 0, 67, 116
1, 1011471, Control_c, 0, 67, 123
1, 1011488, Control_c, 0, 67, 127
1, 1011559, Note_on_c, 0, 68, 0
1, 1011560, Note_on_c, 0, 53, 43
1, 1011569, Note_on_c, 0, 60, 0
1, 1011575, Note_on_c, 0, 65, 0
1, 1011582, Control_c, 0, 64, 56
1, 1011720, Note_on_c, 0, 53, 0
1, 1011798, Note_on_c, 0, 68, 57
1, 1011801, Control_c, 0, 64, 54
1, 1011825, Note_on_c, 0, 65, 39
1, 1011828, Note_on_c, 0, 60, 40
1, 1012004, Note_on_c, 0, 68, 0
1, 1012019, Note_on_c, 0, 65, 0
1, 1012025, Note_on_c, 0, 60, 0
1, 1012071, Note_on_c, 0, 53, 41
1, 1012150, Note_on_c, 0, 53, 0
1, 1012314, Note_on_c, 0, 68, 52
1, 1012336, Note_on_c, 0, 60, 42
1, 1012344, Note_on_c, 0, 65, 40
1, 1012480, Note_on_c, 0, 68, 0
1, 1012517, Note_on_c, 0, 65, 0
1, 1012536, Note_on_c, 0, 60, 0
1, 1012579, Note_on_c, 0, 53, 52
1, 1012640, Note_on_c, 0, 53, 0
1, 1012817, Note_on_c, 0, 68, 53
1, 1012828, Note_on_c, 0, 60, 45
1, 1012840, Note_on_c, 0, 65, 41
1, 1013078, Note_on_c, 0, 67, 56
1, 1013084, Note_on_c, 0, 65, 0
1, 1013093, Note_on_c, 0, 48, 41
1, 1013107, Note_on_c, 0, 68, 0
1, 1013127, Note_on_c, 0, 67, 0
1, 1013146, Note_on_c, 0, 60, 0
1, 1013187, Note_on_c, 0, 48, 0
1, 1013355, Note_on_c, 0, 67, 44
1, 1013359, Note_on_c, 0, 64, 43
1, 1013364, Note_on_c, 0, 60, 29
1, 1013553, Note_on_c, 0, 67, 0
1, 1013596, Note_on_c, 0, 64, 0
1, 1013605, Note_on_c, 0, 48, 41
1, 1013609, Note_on_c, 0, 60, 0
1, 1013698, Note_on_c, 0, 48, 0
1, 1013835, Note_on_c, 0, 67, 55
1, 1013847, Note_on_c, 0, 64, 46
1, 1013849, Note_on_c, 0, 60, 46
1, 1014097, Note_on_c, 0, 68, 53
1, 1014119, Note_on_c, 0, 65, 34
1, 1014122, Note_on_c, 0, 64, 0
1, 1014130, Note_on_c, 0, 53, 42
1, 1014133, Note_on_c, 0, 67, 0
1, 1014150, Note_on_c, 0, 60, 0
1, 1014151, Note_on_c, 0, 68, 0
1, 1014174, Note_on_c, 0, 65, 0
1, 1014265, Note_on_c, 0, 53, 0
1, 1014369, Note_on_c, 0, 68, 52
1, 1014396, Note_on_c, 0, 65, 30
1, 1014399, Note_on_c, 0, 60, 35
1, 1014479, Control_c, 0, 64, 47
1, 1014497, Control_c, 0, 64, 15
1, 1014516, Control_c, 0, 64, 0
1, 1014595, Note_on_c, 0, 65, 0
1, 1014622, Note_on_c, 0, 68, 0
1, 1014624, Note_on_c, 0, 60, 0
1, 1014638, Note_on_c, 0, 53, 40
1, 1014662, Control_c, 0, 64, 22
1, 1014681, Control_c, 0, 64, 37
1, 1014700, Control_c, 0, 64, 50
1, 1014718, Control_c, 0, 64, 63
1, 1014737, Control_c, 0, 64, 70
1, 1014742, Note_on_c, 0, 53, 0
1, 1014756, Control_c, 0, 64, 73
1, 1014775, Control_c, 0, 64, 75
1, 1014810, Control_c, 0, 64, 78
1, 1014848, Control_c, 0, 64, 81
1, 1014916, Control_c, 0, 64, 83
1, 1014919, Note_on_c, 0, 68, 44
1, 1014951, Note_on_c, 0, 60, 35
1, 1014954, Control_c, 0, 64, 85
1, 1014960, Note_on_c, 0, 65, 27
1, 1015065, Control_c, 0, 64, 87
1, 1015158, Note_on_c, 0, 60, 0
1, 1015215, Poly_aftertouch_c, 0, 65, 20
1, 1015227, Note_on_c, 0, 65, 0
1, 1015227, Poly_aftertouch_c, 0, 65, 0
1, 1015250, Control_c, 0, 64, 72
1, 1015267, Control_c, 0, 64, 39
1, 1015286, Control_c, 0, 64, 0
1, 1015288, Note_on_c, 0, 36, 41
1, 1015330, Note_on_c, 0, 68, 0
1, 1015376, Control_c, 0, 64, 41
1, 1015396, Control_c, 0, 64, 66
1, 1015407, Note_on_c, 0, 36, 0
1, 1015413, Control_c, 0, 64, 80
1, 1015434, Control_c, 0, 64, 90
1, 1015444, Note_on_c, 0, 60, 47
1, 1015452, Control_c, 0, 64, 96
1, 1015536, Note_on_c, 0, 60, 0
1, 1015581, Note_on_c, 0, 64, 41
1, 1015646, Note_on_c, 0, 64, 0
1, 1015677, Note_on_c, 0, 67, 52
1, 1015768, Note_on_c, 0, 67, 0
1, 1015812, Note_on_c, 0, 55, 56
1, 1015815, Control_c, 0, 64, 92
1, 1015822, Note_on_c, 0, 71, 52
1, 1015836, Note_on_c, 0, 52, 45
1, 1015851, Note_on_c, 0, 71, 0
1, 1015859, Note_on_c, 0, 55, 0
1, 1015881, Note_on_c, 0, 52, 0
1, 1015928, Control_c, 0, 64, 87
1, 1015932, Note_on_c, 0, 72, 59
1, 1015961, Note_on_c, 0, 72, 0
1, 1016044, Note_on_c, 0, 76, 57
1, 1016110, Note_on_c, 0, 76, 0
1, 1016161, Note_on_c, 0, 79, 53
1, 1016252, Note_on_c, 0, 79, 0
1, 1016283, Note_on_c, 0, 83, 60
1, 1016288, Note_on_c, 0, 55, 75
1, 1016323, Note_on_c, 0, 52, 50
1, 1016330, Control_c, 0, 64, 85
1, 1016377, Note_on_c, 0, 83, 0
1, 1016397, Note_on_c, 0, 84, 66
1, 1016406, Control_c, 0, 64, 83
1, 1016502, Note_on_c, 0, 84, 0
1, 1016518, Note_on_c, 0, 79, 62
1, 1016590, Control_c, 0, 64, 81
1, 1016628, Note_on_c, 0, 79, 0
1, 1016653, Note_on_c, 0, 76, 46
1, 1016671, Note_on_c, 0, 55, 0
1, 1016682, Note_on_c, 0, 76, 0
1, 1016757, Note_on_c, 0, 52, 0
1, 1016779, Note_on_c, 0, 72, 43
1, 1016813, Note_on_c, 0, 72, 0
1, 1016862, Control_c, 0, 64, 83
1, 1016879, Note_on_c, 0, 67, 57
1, 1016943, Note_on_c, 0, 67, 0
1, 1016955, Control_c, 0, 64, 85
1, 1016990, Note_on_c, 0, 64, 55
1, 1017046, Control_c, 0, 64, 87
1, 1017051, Note_on_c, 0, 64, 0
1, 1017099, Note_on_c, 0, 60, 46
1, 1017156, Control_c, 0, 64, 85
1, 1017175, Control_c, 0, 64, 66
1, 1017178, Note_on_c, 0, 60, 0
1, 1017194, Control_c, 0, 64, 25
1, 1017211, Control_c, 0, 64, 0
1, 1017242, Note_on_c, 0, 36, 46
1, 1017286, Control_c, 0, 64, 27
1, 1017305, Control_c, 0, 64, 50
1, 1017323, Control_c, 0, 64, 69
1, 1017341, Control_c, 0, 64, 79
1, 1017344, Note_on_c, 0, 61, 57
1, 1017351, Note_on_c, 0, 36, 0
1, 1017359, Control_c, 0, 64, 86
1, 1017377, Control_c, 0, 64, 88
1, 1017393, Note_on_c, 0, 61, 0
1, 1017457, Note_on_c, 0, 65, 55
1, 1017511, Note_on_c, 0, 65, 0
1, 1017576, Note_on_c, 0, 68, 57
1, 1017620, Note_on_c, 0, 68, 0
1, 1017687, Control_c, 0, 64, 86
1, 1017701, Note_on_c, 0, 72, 54
1, 1017713, Note_on_c, 0, 56, 63
1, 1017721, Note_on_c, 0, 53, 50
1, 1017760, Control_c, 0, 64, 84
1, 1017772, Note_on_c, 0, 72, 0
1, 1017781, Note_on_c, 0, 56, 0
1, 1017801, Note_on_c, 0, 53, 0
1, 1017811, Note_on_c, 0, 73, 63
1, 1017841, Note_on_c, 0, 73, 0
1, 1017871, Control_c, 0, 64, 82
1, 1017944, Note_on_c, 0, 77, 50
1, 1017994, Note_on_c, 0, 77, 0
1, 1018051, Note_on_c, 0, 80, 61
1, 1018075, Control_c, 0, 64, 80
1, 1018120, Note_on_c, 0, 80, 0
1, 1018172, Note_on_c, 0, 84, 60
1, 1018194, Note_on_c, 0, 56, 82
1, 1018205, Note_on_c, 0, 53, 51
1, 1018254, Note_on_c, 0, 84, 0
1, 1018284, Note_on_c, 0, 85, 62
1, 1018408, Note_on_c, 0, 80, 61
1, 1018409, Note_on_c, 0, 85, 0
1, 1018458, Note_on_c, 0, 80, 0
1, 1018517, Control_c, 0, 64, 82
1, 1018522, Note_on_c, 0, 77, 51
1, 1018539, Note_on_c, 0, 56, 0
1, 1018547, Note_on_c, 0, 77, 0
1, 1018610, Note_on_c, 0, 53, 0
1, 1018640, Control_c, 0, 64, 84
1, 1018647, Note_on_c, 0, 73, 61
1, 1018764, Note_on_c, 0, 68, 57
1, 1018767, Note_on_c, 0, 73, 0
1, 1018788, Control_c, 0, 64, 86
1, 1018808, Note_on_c, 0, 68, 0
1, 1018867, Note_on_c, 0, 65, 54
1, 1018955, Control_c, 0, 64, 90
1, 1018956, Note_on_c, 0, 65, 0
1, 1018981, Note_on_c, 0, 61, 52
1, 1019015, Note_on_c, 0, 61, 0
1, 1019028, Control_c, 0, 64, 78
1, 1019047, Control_c, 0, 64, 52
1, 1019064, Control_c, 0, 64, 0
1, 1019125, Note_on_c, 0, 36, 43
1, 1019158, Control_c, 0, 64, 36
1, 1019176, Control_c, 0, 64, 55
1, 1019193, Control_c, 0, 64, 70
1, 1019209, Note_on_c, 0, 36, 0
1, 1019212, Control_c, 0, 64, 77
1, 1019229, Control_c, 0, 64, 81
1, 1019242, Note_on_c, 0, 64, 47
1, 1019268, Control_c, 0, 64, 83
1, 1019329, Note_on_c, 0, 64, 0
1, 1019369, Note_on_c, 0, 67, 35
1, 1019433, Note_on_c, 0, 67, 0
1, 1019486, Note_on_c, 0, 70, 47
1, 1019586, Note_on_c, 0, 58, 60
1, 1019592, Note_on_c, 0, 70, 0
1, 1019602, Note_on_c, 0, 55, 47
1, 1019607, Note_on_c, 0, 75, 57
1, 1019646, Note_on_c, 0, 75, 0
1, 1019665, Note_on_c, 0, 58, 0
1, 1019685, Note_on_c, 0, 55, 0
1, 1019726, Note_on_c, 0, 76, 54
1, 1019758, Note_on_c, 0, 76, 0
1, 1019835, Control_c, 0, 64, 81
1, 1019835, Note_on_c, 0, 79, 48
1, 1019875, Note_on_c, 0, 79, 0
1, 1019926, Note_on_c, 0, 82, 71
1, 1019945, Control_c, 0, 64, 79
1, 1019989, Note_on_c, 0, 82, 0
1, 1020056, Note_on_c, 0, 87, 68
1, 1020063, Note_on_c, 0, 58, 76
1, 1020087, Note_on_c, 0, 55, 57
1, 1020152, Note_on_c, 0, 87, 0
1, 1020171, Note_on_c, 0, 88, 76
1, 1020286, Note_on_c, 0, 88, 0
1, 1020290, Note_on_c, 0, 82, 74
1, 1020388, Note_on_c, 0, 82, 0
1, 1020388, Control_c, 0, 64, 81
1, 1020397, Note_on_c, 0, 79, 66
1, 1020406, Note_on_c, 0, 58, 0
1, 1020449, Note_on_c, 0, 55, 0
1, 1020457, Note_on_c, 0, 79, 0
1, 1020528, Note_on_c, 0, 76, 60
1, 1020568, Note_on_c, 0, 76, 0
1, 1020651, Note_on_c, 0, 70, 52
1, 1020715, Note_on_c, 0, 70, 0
1, 1020741, Note_on_c, 0, 67, 65
1, 1020751, Control_c, 0, 64, 83
1, 1020790, Note_on_c, 0, 67, 0
1, 1020853, Note_on_c, 0, 64, 55
1, 1020909, Note_on_c, 0, 64, 0
1, 1020917, Control_c, 0, 64, 70
1, 1020936, Control_c, 0, 64, 41
1, 1020953, Control_c, 0, 64, 0
1, 1021021, Note_on_c, 0, 41, 43
1, 1021047, Control_c, 0, 64, 28
1, 1021065, Control_c, 0, 64, 53
1, 1021084, Control_c, 0, 64, 70
1, 1021102, Control_c, 0, 64, 77
1, 1021119, Control_c, 0, 64, 82
1, 1021122, Note_on_c, 0, 41, 0
1, 1021135, Note_on_c, 0, 65, 46
1, 1021211, Note_on_c, 0, 65, 0
1, 1021265, Note_on_c, 0, 69, 37
1, 1021314, Note_on_c, 0, 69, 0
1, 1021370, Note_on_c, 0, 72, 44
1, 1021456, Note_on_c, 0, 72, 0
1, 1021504, Note_on_c, 0, 76, 49
1, 1021514, Note_on_c, 0, 60, 58
1, 1021532, Note_on_c, 0, 57, 46
1, 1021546, Note_on_c, 0, 76, 0
1, 1021591, Note_on_c, 0, 60, 0
1, 1021618, Note_on_c, 0, 77, 55
1, 1021625, Note_on_c, 0, 57, 0
1, 1021652, Note_on_c, 0, 77, 0
1, 1021724, Note_on_c, 0, 81, 58
1, 1021784, Note_on_c, 0, 81, 0
1, 1021833, Note_on_c, 0, 84, 63
1, 1021910, Note_on_c, 0, 84, 0
1, 1021962, Note_on_c, 0, 88, 64
1, 1021974, Note_on_c, 0, 60, 78
1, 1022005, Note_on_c, 0, 57, 52
1, 1022058, Note_on_c, 0, 88, 0
1, 1022075, Note_on_c, 0, 89, 71
1, 1022192, Note_on_c, 0, 89, 0
1, 1022200, Note_on_c, 0, 84, 64
1, 1022296, Note_on_c, 0, 84, 0
1, 1022304, Note_on_c, 0, 81, 67
1, 1022315, Note_on_c, 0, 60, 0
1, 1022363, Note_on_c, 0, 81, 0
1, 1022411, Note_on_c, 0, 57, 0
1, 1022440, Note_on_c, 0, 77, 57
1, 1022467, Note_on_c, 0, 77, 0
1, 1022476, Control_c, 0, 64, 84
1, 1022549, Note_on_c, 0, 72, 59
1, 1022623, Note_on_c, 0, 72, 0
1, 1022650, Note_on_c, 0, 69, 57
1, 1022679, Control_c, 0, 64, 86
1, 1022704, Note_on_c, 0, 69, 0
1, 1022783, Note_on_c, 0, 65, 39
1, 1022807, Control_c, 0, 64, 78
1, 1022820, Note_on_c, 0, 65, 0
1, 1022824, Control_c, 0, 64, 49
1, 1022843, Control_c, 0, 64, 0
1, 1022907, Note_on_c, 0, 41, 45
1, 1022937, Control_c, 0, 64, 23
1, 1022955, Control_c, 0, 64, 48
1, 1022973, Control_c, 0, 64, 66
1, 1022990, Note_on_c, 0, 41, 0
1, 1022993, Control_c, 0, 64, 73
1, 1023009, Control_c, 0, 64, 75
1, 1023010, Note_on_c, 0, 66, 47
1, 1023084, Control_c, 0, 64, 78
1, 1023086, Note_on_c, 0, 66, 0
1, 1023121, Control_c, 0, 64, 80
1, 1023132, Note_on_c, 0, 70, 51
1, 1023214, Note_on_c, 0, 70, 0
1, 1023245, Note_on_c, 0, 73, 47
1, 1023330, Note_on_c, 0, 73, 0
1, 1023348, Note_on_c, 0, 77, 59
1, 1023359, Note_on_c, 0, 61, 62
1, 1023384, Note_on_c, 0, 77, 0
1, 1023387, Note_on_c, 0, 58, 49
1, 1023453, Note_on_c, 0, 61, 0
1, 1023465, Note_on_c, 0, 58, 0
1, 1023498, Note_on_c, 0, 78, 38
1, 1023543, Note_on_c, 0, 78, 0
1, 1023591, Note_on_c, 0, 82, 57
1, 1023679, Note_on_c, 0, 82, 0
1, 1023705, Note_on_c, 0, 85, 68
1, 1023788, Note_on_c, 0, 85, 0
1, 1023819, Note_on_c, 0, 89, 72
1, 1023834, Note_on_c, 0, 61, 77
1, 1023870, Control_c, 0, 64, 82
1, 1023880, Note_on_c, 0, 58, 45
1, 1023940, Note_on_c, 0, 90, 71
1, 1023945, Note_on_c, 0, 89, 0
1, 1024035, Control_c, 0, 64, 84
1, 1024057, Note_on_c, 0, 85, 74
1, 1024078, Note_on_c, 0, 90, 0
1, 1024127, Note_on_c, 0, 85, 0
1, 1024152, Note_on_c, 0, 82, 68
1, 1024155, Note_on_c, 0, 61, 0
1, 1024164, Control_c, 0, 64, 86
1, 1024186, Note_on_c, 0, 82, 0
1, 1024240, Note_on_c, 0, 58, 0
1, 1024291, Note_on_c, 0, 78, 68
1, 1024394, Note_on_c, 0, 78, 0
1, 1024398, Note_on_c, 0, 73, 58
1, 1024446, Note_on_c, 0, 73, 0
1, 1024511, Note_on_c, 0, 70, 54
1, 1024548, Note_on_c, 0, 70, 0
1, 1024610, Note_on_c, 0, 66, 51
1, 1024641, Note_on_c, 0, 66, 0
1, 1024658, Control_c, 0, 64, 83
1, 1024676, Control_c, 0, 64, 65
1, 1024695, Control_c, 0, 64, 22
1, 1024712, Control_c, 0, 64, 0
1, 1024759, Note_on_c, 0, 41, 41
1, 1024787, Control_c, 0, 64, 22
1, 1024806, Control_c, 0, 64, 47
1, 1024824, Control_c, 0, 64, 68
1, 1024840, Control_c, 0, 64, 77
1, 1024860, Control_c, 0, 64, 82
1, 1024868, Note_on_c, 0, 41, 0
1, 1024880, Control_c, 0, 64, 84
1, 1024901, Note_on_c, 0, 69, 44
1, 1024957, Note_on_c, 0, 69, 0
1, 1025017, Note_on_c, 0, 72, 44
1, 1025067, Note_on_c, 0, 72, 0
1, 1025120, Note_on_c, 0, 75, 51
1, 1025232, Note_on_c, 0, 75, 0
1, 1025242, Note_on_c, 0, 80, 61
1, 1025246, Note_on_c, 0, 63, 64
1, 1025260, Note_on_c, 0, 60, 50
1, 1025283, Note_on_c, 0, 80, 0
1, 1025341, Note_on_c, 0, 63, 0
1, 1025353, Note_on_c, 0, 60, 0
1, 1025359, Note_on_c, 0, 81, 62
1, 1025442, Note_on_c, 0, 81, 0
1, 1025468, Note_on_c, 0, 84, 60
1, 1025522, Note_on_c, 0, 84, 0
1, 1025568, Note_on_c, 0, 87, 70
1, 1025639, Note_on_c, 0, 87, 0
1, 1025696, Note_on_c, 0, 92, 74
1, 1025703, Note_on_c, 0, 63, 78
1, 1025728, Note_on_c, 0, 60, 58
1, 1025783, Note_on_c, 0, 92, 0
1, 1025810, Note_on_c, 0, 93, 76
1, 1025931, Note_on_c, 0, 93, 0
1, 1025936, Note_on_c, 0, 87, 76
1, 1025996, Note_on_c, 0, 63, 0
1, 1026036, Note_on_c, 0, 84, 72
1, 1026044, Note_on_c, 0, 87, 0
1, 1026063, Note_on_c, 0, 60, 0
1, 1026077, Note_on_c, 0, 84, 0
1, 1026152, Note_on_c, 0, 81, 61
1, 1026182, Note_on_c, 0, 81, 0
1, 1026276, Note_on_c, 0, 75, 53
1, 1026349, Note_on_c, 0, 75, 0
1, 1026366, Note_on_c, 0, 72, 60
1, 1026411, Note_on_c, 0, 72, 0
1, 1026469, Note_on_c, 0, 69, 51
1, 1026519, Note_on_c, 0, 69, 0
1, 1026565, Control_c, 0, 64, 75
1, 1026584, Control_c, 0, 64, 51
1, 1026602, Control_c, 0, 64, 0
1, 1026665, Note_on_c, 0, 46, 41
1, 1026696, Control_c, 0, 64, 23
1, 1026712, Control_c, 0, 64, 48
1, 1026732, Control_c, 0, 64, 67
1, 1026750, Control_c, 0, 64, 75
1, 1026766, Note_on_c, 0, 46, 0
1, 1026768, Control_c, 0, 64, 81
1, 1026807, Note_on_c, 0, 70, 39
1, 1026823, Control_c, 0, 64, 83
1, 1026845, Note_on_c, 0, 70, 0
1, 1026929, Note_on_c, 0, 74, 47
1, 1026974, Note_on_c, 0, 74, 0
1, 1027057, Note_on_c, 0, 77, 50
1, 1027119, Note_on_c, 0, 77, 0
1, 1027160, Note_on_c, 0, 65, 57
1, 1027168, Note_on_c, 0, 81, 52
1, 1027179, Note_on_c, 0, 62, 45
1, 1027248, Note_on_c, 0, 65, 0
1, 1027275, Note_on_c, 0, 81, 0
1, 1027285, Note_on_c, 0, 82, 57
1, 1027288, Note_on_c, 0, 62, 0
1, 1027391, Note_on_c, 0, 82, 0
1, 1027392, Note_on_c, 0, 77, 48
1, 1027418, Note_on_c, 0, 77, 0
1, 1027503, Note_on_c, 0, 74, 46
1, 1027592, Note_on_c, 0, 74, 0
1, 1027652, Note_on_c, 0, 65, 72
1, 1027658, Note_on_c, 0, 70, 50
1, 1027680, Note_on_c, 0, 62, 52
1, 1027702, Note_on_c, 0, 70, 0
1, 1027776, Note_on_c, 0, 74, 54
1, 1027872, Note_on_c, 0, 74, 0
1, 1027895, Note_on_c, 0, 77, 60
1, 1027943, Note_on_c, 0, 65, 0
1, 1027986, Note_on_c, 0, 77, 0
1, 1028017, Note_on_c, 0, 81, 61
1, 1028030, Poly_aftertouch_c, 0, 60, 0
1, 1028054, Note_on_c, 0, 62, 0
1, 1028123, Note_on_c, 0, 81, 0
1, 1028135, Note_on_c, 0, 82, 57
1, 1028237, Note_on_c, 0, 77, 55
1, 1028252, Note_on_c, 0, 82, 0
1, 1028274, Note_on_c, 0, 77, 0
1, 1028337, Note_on_c, 0, 74, 55
1, 1028411, Note_on_c, 0, 74, 0
1, 1028455, Control_c, 0, 64, 85
1, 1028465, Note_on_c, 0, 70, 42
1, 1028504, Note_on_c, 0, 70, 0
1, 1028508, Control_c, 0, 64, 74
1, 1028527, Control_c, 0, 64, 50
1, 1028547, Control_c, 0, 64, 0
1, 1028597, Note_on_c, 0, 46, 42
1, 1028622, Control_c, 0, 64, 23
1, 1028639, Control_c, 0, 64, 47
1, 1028658, Control_c, 0, 64, 68
1, 1028675, Control_c, 0, 64, 78
1, 1028688, Note_on_c, 0, 46, 0
1, 1028694, Control_c, 0, 64, 84
1, 1028716, Note_on_c, 0, 71, 34
1, 1028750, Control_c, 0, 64, 86
1, 1028764, Note_on_c, 0, 71, 0
1, 1028823, Note_on_c, 0, 75, 52
1, 1028915, Note_on_c, 0, 75, 0
1, 1028960, Note_on_c, 0, 78, 51
1, 1029032, Note_on_c, 0, 78, 0
1, 1029075, Note_on_c, 0, 82, 49
1, 1029084, Note_on_c, 0, 66, 53
1, 1029106, Note_on_c, 0, 63, 41
1, 1029172, Note_on_c, 0, 66, 0
1, 1029180, Note_on_c, 0, 82, 0
1, 1029189, Note_on_c, 0, 63, 0
1, 1029197, Note_on_c, 0, 83, 54
1, 1029298, Note_on_c, 0, 83, 0
1, 1029320, Note_on_c, 0, 78, 47
1, 1029382, Note_on_c, 0, 78, 0
1, 1029421, Note_on_c, 0, 75, 45
1, 1029492, Note_on_c, 0, 75, 0
1, 1029586, Note_on_c, 0, 71, 54
1, 1029589, Note_on_c, 0, 66, 72
1, 1029635, Note_on_c, 0, 63, 41
1, 1029654, Note_on_c, 0, 71, 0
1, 1029692, Note_on_c, 0, 75, 53
1, 1029796, Note_on_c, 0, 75, 0
1, 1029808, Note_on_c, 0, 78, 62
1, 1029890, Note_on_c, 0, 66, 0
1, 1029900, Note_on_c, 0, 78, 0
1, 1029930, Note_on_c, 0, 82, 62
1, 1029992, Note_on_c, 0, 63, 0
1, 1030024, Note_on_c, 0, 82, 0
1, 1030033, Note_on_c, 0, 83, 66
1, 1030139, Note_on_c, 0, 83, 0
1, 1030147, Note_on_c, 0, 78, 60
1, 1030250, Note_on_c, 0, 75, 59
1, 1030254, Note_on_c, 0, 78, 0
1, 1030327, Note_on_c, 0, 75, 0
1, 1030364, Note_on_c, 0, 71, 51
1, 1030403, Note_on_c, 0, 71, 0
1, 1030437, Control_c, 0, 64, 72
1, 1030455, Control_c, 0, 64, 38
1, 1030474, Control_c, 0, 64, 0
1, 1030524, Note_on_c, 0, 46, 39
1, 1030566, Control_c, 0, 64, 41
1, 1030584, Control_c, 0, 64, 66
1, 1030600, Note_on_c, 0, 46, 0
1, 1030601, Control_c, 0, 64, 79
1, 1030621, Control_c, 0, 64, 87
1, 1030634, Note_on_c, 0, 74, 39
1, 1030657, Control_c, 0, 64, 91
1, 1030669, Note_on_c, 0, 74, 0
1, 1030782, Note_on_c, 0, 77, 33
1, 1030826, Note_on_c, 0, 77, 0
1, 1030872, Note_on_c, 0, 80, 55
1, 1030965, Note_on_c, 0, 80, 0
1, 1031000, Note_on_c, 0, 85, 55
1, 1031007, Note_on_c, 0, 65, 41
1, 1031013, Note_on_c, 0, 68, 64
1, 1031096, Note_on_c, 0, 85, 0
1, 1031097, Note_on_c, 0, 68, 0
1, 1031101, Note_on_c, 0, 86, 62
1, 1031125, Note_on_c, 0, 65, 0
1, 1031215, Note_on_c, 0, 86, 0
1, 1031221, Note_on_c, 0, 80, 54
1, 1031272, Note_on_c, 0, 80, 0
1, 1031329, Note_on_c, 0, 77, 54
1, 1031409, Note_on_c, 0, 77, 0
1, 1031477, Note_on_c, 0, 74, 54
1, 1031482, Note_on_c, 0, 68, 69
1, 1031508, Note_on_c, 0, 65, 48
1, 1031530, Note_on_c, 0, 74, 0
1, 1031613, Note_on_c, 0, 77, 61
1, 1031718, Note_on_c, 0, 77, 0
1, 1031742, Note_on_c, 0, 80, 64
1, 1031769, Note_on_c, 0, 68, 0
1, 1031843, Note_on_c, 0, 80, 0
1, 1031860, Note_on_c, 0, 85, 67
1, 1031861, Note_on_c, 0, 65, 0
1, 1031967, Note_on_c, 0, 85, 0
1, 1031968, Note_on_c, 0, 86, 67
1, 1032097, Note_on_c, 0, 80, 53
1, 1032104, Note_on_c, 0, 86, 0
1, 1032149, Note_on_c, 0, 80, 0
1, 1032201, Note_on_c, 0, 77, 53
1, 1032289, Note_on_c, 0, 77, 0
1, 1032318, Note_on_c, 0, 74, 54
1, 1032348, Note_on_c, 0, 74, 0
1, 1032436, Control_c, 0, 64, 79
1, 1032456, Control_c, 0, 64, 50
1, 1032474, Control_c, 0, 64, 0
1, 1032499, Note_on_c, 0, 51, 32
1, 1032567, Control_c, 0, 64, 22
1, 1032584, Control_c, 0, 64, 48
1, 1032603, Control_c, 0, 64, 66
1, 1032620, Control_c, 0, 64, 74
1, 1032625, Note_on_c, 0, 78, 50
1, 1032654, Control_c, 0, 64, 77
1, 1032686, Note_on_c, 0, 51, 0
1, 1032691, Control_c, 0, 64, 80
1, 1032714, Note_on_c, 0, 78, 0
1, 1032749, Note_on_c, 0, 77, 46
1, 1032793, Note_on_c, 0, 77, 0
1, 1032866, Note_on_c, 0, 78, 52
1, 1032912, Note_on_c, 0, 78, 0
1, 1032981, Note_on_c, 0, 66, 60
1, 1032999, Note_on_c, 0, 63, 45
1, 1033009, Note_on_c, 0, 58, 40
1, 1033071, Note_on_c, 0, 66, 0
1, 1033071, Note_on_c, 0, 58, 0
1, 1033073, Note_on_c, 0, 63, 0
1, 1033100, Note_on_c, 0, 82, 57
1, 1033165, Note_on_c, 0, 82, 0
1, 1033201, Note_on_c, 0, 81, 56
1, 1033261, Note_on_c, 0, 81, 0
1, 1033313, Note_on_c, 0, 82, 53
1, 1033367, Note_on_c, 0, 82, 0
1, 1033476, Note_on_c, 0, 66, 60
1, 1033481, Control_c, 0, 64, 82
1, 1033513, Note_on_c, 0, 58, 40
1, 1033515, Note_on_c, 0, 63, 39
1, 1033613, Note_on_c, 0, 87, 55
1, 1033691, Note_on_c, 0, 87, 0
1, 1033725, Note_on_c, 0, 86, 59
1, 1033760, Note_on_c, 0, 66, 0
1, 1033839, Note_on_c, 0, 87, 61
1, 1033852, Note_on_c, 0, 63, 0
1, 1033865, Note_on_c, 0, 58, 0
1, 1033875, Note_on_c, 0, 86, 0
1, 1033959, Note_on_c, 0, 87, 0
1, 1033967, Note_on_c, 0, 90, 74
1, 1034062, Note_on_c, 0, 90, 0
1, 1034081, Note_on_c, 0, 87, 76
1, 1034166, Note_on_c, 0, 87, 0
1, 1034184, Note_on_c, 0, 90, 75
1, 1034255, Control_c, 0, 64, 84
1, 1034268, Note_on_c, 0, 90, 0
1, 1034293, Note_on_c, 0, 87, 68
1, 1034363, Control_c, 0, 64, 68
1, 1034381, Control_c, 0, 64, 34
1, 1034400, Control_c, 0, 64, 0
1, 1034416, Note_on_c, 0, 48, 39
1, 1034420, Note_on_c, 0, 90, 58
1, 1034426, Note_on_c, 0, 87, 0
1, 1034475, Control_c, 0, 64, 28
1, 1034492, Control_c, 0, 64, 53
1, 1034525, Control_c, 0, 64, 73
1, 1034541, Note_on_c, 0, 48, 0
1, 1034544, Control_c, 0, 64, 82
1, 1034562, Note_on_c, 0, 90, 0
1, 1034562, Control_c, 0, 64, 88
1, 1034570, Note_on_c, 0, 89, 53
1, 1034646, Note_on_c, 0, 89, 0
1, 1034679, Note_on_c, 0, 87, 52
1, 1034751, Note_on_c, 0, 87, 0
1, 1034799, Note_on_c, 0, 85, 49
1, 1034854, Note_on_c, 0, 85, 0
1, 1034887, Note_on_c, 0, 66, 51
1, 1034900, Note_on_c, 0, 84, 53
1, 1034916, Note_on_c, 0, 63, 36
1, 1034931, Note_on_c, 0, 56, 24
1, 1034968, Note_on_c, 0, 56, 0
1, 1034974, Note_on_c, 0, 66, 0
1, 1034974, Note_on_c, 0, 63, 0
1, 1035002, Note_on_c, 0, 84, 0
1, 1035003, Control_c, 0, 64, 86
1, 1035020, Note_on_c, 0, 85, 52
1, 1035077, Control_c, 0, 64, 84
1, 1035099, Note_on_c, 0, 85, 0
1, 1035131, Note_on_c, 0, 87, 55
1, 1035178, Note_on_c, 0, 87, 0
1, 1035236, Note_on_c, 0, 89, 61
1, 1035308, Note_on_c, 0, 89, 0
1, 1035357, Note_on_c, 0, 66, 61
1, 1035366, Note_on_c, 0, 90, 57
1, 1035380, Note_on_c, 0, 56, 39
1, 1035382, Note_on_c, 0, 63, 47
1, 1035431, Note_on_c, 0, 90, 0
1, 1035492, Note_on_c, 0, 89, 53
1, 1035570, Note_on_c, 0, 89, 0
1, 1035614, Note_on_c, 0, 87, 54
1, 1035660, Note_on_c, 0, 66, 0
1, 1035664, Control_c, 0, 64, 86
1, 1035718, Note_on_c, 0, 87, 0
1, 1035718, Note_on_c, 0, 85, 61
1, 1035727, Note_on_c, 0, 56, 0
1, 1035779, Note_on_c, 0, 63, 0
1, 1035782, Note_on_c, 0, 85, 0
1, 1035847, Note_on_c, 0, 84, 46
1, 1035892, Note_on_c, 0, 84, 0
1, 1035953, Note_on_c, 0, 82, 54
1, 1036073, Note_on_c, 0, 80, 49
1, 1036079, Note_on_c, 0, 82, 0
1, 1036142, Note_on_c, 0, 80, 0
1, 1036180, Control_c, 0, 64, 88
1, 1036180, Note_on_c, 0, 78, 36
1, 1036230, Note_on_c, 0, 78, 0
1, 1036272, Control_c, 0, 64, 69
1, 1036290, Control_c, 0, 64, 29
1, 1036308, Control_c, 0, 64, 0
1, 1036314, Note_on_c, 0, 49, 41
1, 1036397, Control_c, 0, 64, 31
1, 1036415, Control_c, 0, 64, 53
1, 1036433, Control_c, 0, 64, 70
1, 1036447, Note_on_c, 0, 77, 32
1, 1036452, Control_c, 0, 64, 78
1, 1036466, Note_on_c, 0, 49, 0
1, 1036469, Control_c, 0, 64, 82
1, 1036506, Note_on_c, 0, 77, 0
1, 1036560, Note_on_c, 0, 76, 44
1, 1036615, Note_on_c, 0, 76, 0
1, 1036661, Note_on_c, 0, 77, 44
1, 1036705, Note_on_c, 0, 77, 0
1, 1036791, Note_on_c, 0, 65, 53
1, 1036814, Note_on_c, 0, 56, 37
1, 1036815, Note_on_c, 0, 61, 43
1, 1036866, Note_on_c, 0, 65, 0
1, 1036868, Note_on_c, 0, 56, 0
1, 1036879, Note_on_c, 0, 61, 0
1, 1036917, Note_on_c, 0, 80, 53
1, 1036978, Note_on_c, 0, 80, 0
1, 1037018, Note_on_c, 0, 79, 55
1, 1037022, Control_c, 0, 64, 80
1, 1037063, Note_on_c, 0, 79, 0
1, 1037126, Note_on_c, 0, 80, 61
1, 1037172, Note_on_c, 0, 80, 0
1, 1037254, Note_on_c, 0, 65, 66
1, 1037294, Note_on_c, 0, 61, 46
1, 1037303, Note_on_c, 0, 56, 45
1, 1037401, Note_on_c, 0, 85, 64
1, 1037472, Note_on_c, 0, 85, 0
1, 1037513, Note_on_c, 0, 84, 58
1, 1037583, Note_on_c, 0, 65, 0
1, 1037612, Note_on_c, 0, 85, 71
1, 1037664, Note_on_c, 0, 61, 0
1, 1037670, Note_on_c, 0, 56, 0
1, 1037676, Note_on_c, 0, 84, 0
1, 1037736, Note_on_c, 0, 85, 0
1, 1037739, Note_on_c, 0, 89, 78
1, 1037848, Control_c, 0, 64, 82
1, 1037855, Note_on_c, 0, 89, 0
1, 1037860, Note_on_c, 0, 85, 74
1, 1037941, Note_on_c, 0, 85, 0
1, 1037968, Note_on_c, 0, 89, 77
1, 1037997, Control_c, 0, 64, 84
1, 1038031, Control_c, 0, 64, 86
1, 1038063, Note_on_c, 0, 89, 0
1, 1038082, Note_on_c, 0, 85, 61
1, 1038143, Control_c, 0, 64, 73
1, 1038161, Control_c, 0, 64, 43
1, 1038179, Control_c, 0, 64, 0
1, 1038182, Note_on_c, 0, 85, 0
1, 1038209, Note_on_c, 0, 47, 44
1, 1038210, Note_on_c, 0, 89, 68
1, 1038267, Control_c, 0, 64, 36
1, 1038286, Control_c, 0, 64, 58
1, 1038305, Control_c, 0, 64, 74
1, 1038322, Note_on_c, 0, 47, 0
1, 1038324, Control_c, 0, 64, 82
1, 1038340, Control_c, 0, 64, 85
1, 1038357, Note_on_c, 0, 87, 55
1, 1038358, Note_on_c, 0, 89, 0
1, 1038459, Note_on_c, 0, 87, 0
1, 1038480, Note_on_c, 0, 86, 50
1, 1038528, Note_on_c, 0, 86, 0
1, 1038572, Note_on_c, 0, 84, 55
1, 1038667, Note_on_c, 0, 84, 0
1, 1038687, Note_on_c, 0, 65, 52
1, 1038698, Note_on_c, 0, 83, 57
1, 1038717, Note_on_c, 0, 55, 35
1, 1038723, Note_on_c, 0, 62, 45
1, 1038744, Note_on_c, 0, 83, 0
1, 1038760, Note_on_c, 0, 55, 0
1, 1038764, Control_c, 0, 64, 83
1, 1038768, Note_on_c, 0, 65, 0
1, 1038783, Note_on_c, 0, 62, 0
1, 1038800, Note_on_c, 0, 84, 62
1, 1038894, Control_c, 0, 64, 81
1, 1038895, Note_on_c, 0, 84, 0
1, 1038928, Note_on_c, 0, 86, 58
1, 1039010, Note_on_c, 0, 86, 0
1, 1039035, Note_on_c, 0, 87, 54
1, 1039039, Control_c, 0, 64, 79
1, 1039143, Note_on_c, 0, 87, 0
1, 1039154, Note_on_c, 0, 65, 68
1, 1039170, Note_on_c, 0, 89, 65
1, 1039202, Note_on_c, 0, 55, 46
1, 1039204, Note_on_c, 0, 62, 48
1, 1039313, Note_on_c, 0, 87, 53
1, 1039316, Note_on_c, 0, 89, 0
1, 1039416, Note_on_c, 0, 86, 61
1, 1039422, Note_on_c, 0, 87, 0
1, 1039479, Note_on_c, 0, 65, 0
1, 1039485, Note_on_c, 0, 86, 0
1, 1039520, Note_on_c, 0, 55, 0
1, 1039524, Note_on_c, 0, 84, 55
1, 1039608, Note_on_c, 0, 62, 0
1, 1039634, Note_on_c, 0, 84, 0
1, 1039648, Note_on_c, 0, 83, 61
1, 1039744, Note_on_c, 0, 83, 0
1, 1039754, Note_on_c, 0, 80, 58
1, 1039824, Note_on_c, 0, 80, 0
1, 1039890, Note_on_c, 0, 79, 40
1, 1039959, Note_on_c, 0, 79, 0
1, 1039998, Note_on_c, 0, 77, 45
1, 1040014, Control_c, 0, 64, 81
1, 1040040, Note_on_c, 0, 77, 0
1, 1040088, Control_c, 0, 64, 68
1, 1040106, Control_c, 0, 64, 34
1, 1040138, Control_c, 0, 64, 0
1, 1040162, Note_on_c, 0, 48, 45
1, 1040230, Control_c, 0, 64, 36
1, 1040249, Control_c, 0, 64, 57
1, 1040267, Control_c, 0, 64, 70
1, 1040271, Note_on_c, 0, 48, 0
1, 1040272, Note_on_c, 0, 75, 38
1, 1040286, Control_c, 0, 64, 75
1, 1040329, Note_on_c, 0, 75, 0
1, 1040389, Note_on_c, 0, 74, 44
1, 1040481, Note_on_c, 0, 74, 0
1, 1040491, Note_on_c, 0, 75, 50
1, 1040557, Note_on_c, 0, 75, 0
1, 1040632, Note_on_c, 0, 63, 59
1, 1040650, Note_on_c, 0, 60, 36
1, 1040660, Note_on_c, 0, 55, 41
1, 1040703, Note_on_c, 0, 63, 0
1, 1040707, Note_on_c, 0, 55, 0
1, 1040711, Note_on_c, 0, 60, 0
1, 1040778, Note_on_c, 0, 79, 47
1, 1040864, Note_on_c, 0, 79, 0
1, 1040899, Note_on_c, 0, 78, 50
1, 1040949, Note_on_c, 0, 78, 0
1, 1040994, Note_on_c, 0, 79, 56
1, 1041033, Note_on_c, 0, 79, 0
1, 1041121, Note_on_c, 0, 63, 66
1, 1041142, Note_on_c, 0, 60, 50
1, 1041152, Note_on_c, 0, 55, 37
1, 1041242, Note_on_c, 0, 83, 61
1, 1041275, Note_on_c, 0, 60, 0
1, 1041282, Note_on_c, 0, 63, 0
1, 1041286, Note_on_c, 0, 55, 0
1, 1041322, Note_on_c, 0, 83, 0
1, 1041359, Note_on_c, 0, 84, 63
1, 1041443, Note_on_c, 0, 84, 0
1, 1041487, Note_on_c, 0, 83, 61
1, 1041536, Control_c, 0, 64, 77
1, 1041579, Note_on_c, 0, 83, 0
1, 1041604, Note_on_c, 0, 84, 57
1, 1041610, Note_on_c, 0, 48, 44
1, 1041643, Note_on_c, 0, 84, 0
1, 1041661, Note_on_c, 0, 48, 0
1, 1041701, Control_c, 0, 64, 79
1, 1041712, Note_on_c, 0, 86, 69
1, 1041814, Note_on_c, 0, 86, 0
1, 1041832, Note_on_c, 0, 87, 60
1, 1041903, Note_on_c, 0, 87, 0
1, 1041948, Note_on_c, 0, 90, 53
1, 1042011, Control_c, 0, 64, 71
1, 1042021, Note_on_c, 0, 90, 0
1, 1042028, Control_c, 0, 64, 42
1, 1042047, Control_c, 0, 64, 0
1, 1042071, Note_on_c, 0, 43, 47
1, 1042087, Note_on_c, 0, 91, 68
1, 1042138, Control_c, 0, 64, 36
1, 1042146, Note_on_c, 0, 43, 0
1, 1042159, Control_c, 0, 64, 61
1, 1042176, Control_c, 0, 64, 74
1, 1042195, Control_c, 0, 64, 78
1, 1042205, Note_on_c, 0, 91, 0
1, 1042220, Note_on_c, 0, 86, 61
1, 1042307, Note_on_c, 0, 86, 0
1, 1042319, Note_on_c, 0, 83, 57
1, 1042375, Note_on_c, 0, 83, 0
1, 1042448, Note_on_c, 0, 79, 52
1, 1042520, Note_on_c, 0, 79, 0
1, 1042555, Note_on_c, 0, 62, 36
1, 1042568, Note_on_c, 0, 78, 52
1, 1042580, Note_on_c, 0, 55, 30
1, 1042582, Note_on_c, 0, 59, 33
1, 1042616, Note_on_c, 0, 78, 0
1, 1042641, Note_on_c, 0, 59, 0
1, 1042650, Note_on_c, 0, 62, 0
1, 1042652, Note_on_c, 0, 55, 0
1, 1042666, Note_on_c, 0, 79, 63
1, 1042693, Control_c, 0, 64, 80
1, 1042763, Note_on_c, 0, 79, 0
1, 1042782, Control_c, 0, 64, 83
1, 1042785, Note_on_c, 0, 83, 62
1, 1042801, Control_c, 0, 64, 86
1, 1042839, Control_c, 0, 64, 93
1, 1042854, Note_on_c, 0, 83, 0
1, 1042856, Control_c, 0, 64, 98
1, 1042884, Note_on_c, 0, 86, 63
1, 1042946, Control_c, 0, 64, 88
1, 1042964, Control_c, 0, 64, 54
1, 1042973, Note_on_c, 0, 86, 0
1, 1042982, Control_c, 0, 64, 0
1, 1043018, Note_on_c, 0, 87, 69
1, 1043021, Note_on_c, 0, 48, 45
1, 1043056, Control_c, 0, 64, 22
1, 1043074, Control_c, 0, 64, 47
1, 1043084, Note_on_c, 0, 48, 0
1, 1043092, Control_c, 0, 64, 66
1, 1043111, Control_c, 0, 64, 74
1, 1043131, Control_c, 0, 64, 77
1, 1043152, Note_on_c, 0, 84, 51
1, 1043156, Note_on_c, 0, 87, 0
1, 1043183, Note_on_c, 0, 84, 0
1, 1043241, Control_c, 0, 64, 79
1, 1043263, Note_on_c, 0, 79, 48
1, 1043306, Note_on_c, 0, 79, 0
1, 1043381, Note_on_c, 0, 75, 42
1, 1043452, Note_on_c, 0, 75, 0
1, 1043482, Note_on_c, 0, 84, 63
1, 1043483, Note_on_c, 0, 60, 31
1, 1043485, Note_on_c, 0, 63, 49
1, 1043495, Note_on_c, 0, 55, 36
1, 1043534, Note_on_c, 0, 63, 0
1, 1043544, Note_on_c, 0, 60, 0
1, 1043548, Note_on_c, 0, 55, 0
1, 1043612, Note_on_c, 0, 84, 0
1, 1043624, Note_on_c, 0, 79, 49
1, 1043710, Note_on_c, 0, 79, 0
1, 1043739, Note_on_c, 0, 75, 40
1, 1043775, Control_c, 0, 64, 82
1, 1043785, Note_on_c, 0, 75, 0
1, 1043812, Control_c, 0, 64, 85
1, 1043816, Note_on_c, 0, 72, 41
1, 1043881, Control_c, 0, 64, 77
1, 1043899, Control_c, 0, 64, 56
1, 1043920, Control_c, 0, 64, 0
1, 1043935, Note_on_c, 0, 72, 0
1, 1043945, Note_on_c, 0, 43, 47
1, 1043957, Note_on_c, 0, 83, 68
1, 1043992, Control_c, 0, 64, 16
1, 1044010, Control_c, 0, 64, 41
1, 1044023, Note_on_c, 0, 43, 0
1, 1044029, Control_c, 0, 64, 60
1, 1044047, Control_c, 0, 64, 71
1, 1044064, Note_on_c, 0, 83, 0
1, 1044066, Control_c, 0, 64, 76
1, 1044083, Note_on_c, 0, 79, 56
1, 1044153, Note_on_c, 0, 79, 0
1, 1044186, Note_on_c, 0, 74, 48
1, 1044217, Note_on_c, 0, 74, 0
1, 1044317, Note_on_c, 0, 71, 45
1, 1044374, Note_on_c, 0, 71, 0
1, 1044401, Note_on_c, 0, 59, 46
1, 1044410, Note_on_c, 0, 55, 42
1, 1044414, Note_on_c, 0, 79, 61
1, 1044422, Note_on_c, 0, 50, 38
1, 1044469, Note_on_c, 0, 59, 0
1, 1044484, Note_on_c, 0, 55, 0
1, 1044507, Control_c, 0, 64, 78
1, 1044509, Note_on_c, 0, 79, 0
1, 1044510, Note_on_c, 0, 50, 0
1, 1044527, Note_on_c, 0, 74, 55
1, 1044617, Note_on_c, 0, 74, 0
1, 1044649, Note_on_c, 0, 71, 47
1, 1044653, Control_c, 0, 64, 82
1, 1044673, Control_c, 0, 64, 84
1, 1044691, Control_c, 0, 64, 86
1, 1044711, Note_on_c, 0, 71, 0
1, 1044728, Control_c, 0, 64, 90
1, 1044746, Note_on_c, 0, 67, 54
1, 1044785, Control_c, 0, 64, 88
1, 1044816, Control_c, 0, 64, 71
1, 1044836, Control_c, 0, 64, 34
1, 1044849, Note_on_c, 0, 67, 0
1, 1044854, Control_c, 0, 64, 0
1, 1044879, Note_on_c, 0, 75, 64
1, 1044890, Note_on_c, 0, 36, 44
1, 1044928, Control_c, 0, 64, 21
1, 1044946, Control_c, 0, 64, 43
1, 1044955, Note_on_c, 0, 36, 0
1, 1044962, Control_c, 0, 64, 61
1, 1044984, Control_c, 0, 64, 71
1, 1044996, Note_on_c, 0, 72, 57
1, 1045003, Control_c, 0, 64, 76
1, 1045012, Note_on_c, 0, 75, 0
1, 1045036, Note_on_c, 0, 72, 0
1, 1045113, Note_on_c, 0, 67, 48
1, 1045143, Note_on_c, 0, 67, 0
1, 1045237, Note_on_c, 0, 63, 46
1, 1045303, Note_on_c, 0, 63, 0
1, 1045352, Note_on_c, 0, 55, 44
1, 1045352, Note_on_c, 0, 72, 58
1, 1045360, Note_on_c, 0, 51, 36
1, 1045365, Note_on_c, 0, 48, 33
1, 1045411, Note_on_c, 0, 55, 0
1, 1045438, Note_on_c, 0, 51, 0
1, 1045447, Note_on_c, 0, 48, 0
1, 1045448, Note_on_c, 0, 72, 0
1, 1045482, Control_c, 0, 64, 78
1, 1045483, Note_on_c, 0, 67, 46
1, 1045539, Note_on_c, 0, 67, 0
1, 1045565, Note_on_c, 0, 63, 47
1, 1045591, Control_c, 0, 64, 80
1, 1045629, Control_c, 0, 64, 83
1, 1045633, Note_on_c, 0, 63, 0
1, 1045677, Note_on_c, 0, 60, 52
1, 1045722, Control_c, 0, 64, 72
1, 1045755, Control_c, 0, 64, 47
1, 1045772, Control_c, 0, 64, 0
1, 1045790, Note_on_c, 0, 60, 0
1, 1045824, Note_on_c, 0, 31, 52
1, 1045830, Note_on_c, 0, 71, 58
1, 1045865, Control_c, 0, 64, 34
1, 1045875, Note_on_c, 0, 31, 0
1, 1045882, Control_c, 0, 64, 53
1, 1045902, Control_c, 0, 64, 67
1, 1045919, Note_on_c, 0, 71, 0
1, 1045919, Control_c, 0, 64, 73
1, 1045933, Note_on_c, 0, 67, 44
1, 1045938, Control_c, 0, 64, 75
1, 1045977, Note_on_c, 0, 67, 0
1, 1046030, Control_c, 0, 64, 77
1, 1046054, Note_on_c, 0, 62, 43
1, 1046090, Note_on_c, 0, 62, 0
1, 1046157, Note_on_c, 0, 59, 55
1, 1046200, Note_on_c, 0, 59, 0
1, 1046276, Note_on_c, 0, 62, 56
1, 1046279, Note_on_c, 0, 55, 51
1, 1046285, Note_on_c, 0, 50, 39
1, 1046285, Note_on_c, 0, 47, 39
1, 1046313, Note_on_c, 0, 55, 0
1, 1046335, Note_on_c, 0, 50, 0
1, 1046339, Note_on_c, 0, 62, 0
1, 1046343, Note_on_c, 0, 47, 0
1, 1046378, Note_on_c, 0, 65, 58
1, 1046428, Control_c, 0, 64, 79
1, 1046448, Note_on_c, 0, 65, 0
1, 1046483, Control_c, 0, 64, 82
1, 1046489, Note_on_c, 0, 71, 58
1, 1046517, Control_c, 0, 64, 85
1, 1046555, Control_c, 0, 64, 87
1, 1046575, Note_on_c, 0, 71, 0
1, 1046586, Note_on_c, 0, 74, 63
1, 1046612, Control_c, 0, 64, 83
1, 1046630, Control_c, 0, 64, 65
1, 1046648, Control_c, 0, 64, 20
1, 1046680, Control_c, 0, 64, 0
1, 1046721, Note_on_c, 0, 36, 47
1, 1046726, Note_on_c, 0, 72, 63
1, 1046734, Note_on_c, 0, 74, 0
1, 1046772, Control_c, 0, 64, 38
1, 1046788, Note_on_c, 0, 36, 0
1, 1046790, Control_c, 0, 64, 59
1, 1046799, Note_on_c, 0, 72, 0
1, 1046808, Control_c, 0, 64, 71
1, 1046829, Control_c, 0, 64, 76
1, 1046839, Note_on_c, 0, 67, 57
1, 1046885, Control_c, 0, 64, 78
1, 1046894, Note_on_c, 0, 67, 0
1, 1046981, Note_on_c, 0, 63, 45
1, 1047035, Note_on_c, 0, 63, 0
1, 1047071, Note_on_c, 0, 60, 54
1, 1047154, Note_on_c, 0, 60, 0
1, 1047183, Note_on_c, 0, 67, 60
1, 1047189, Note_on_c, 0, 51, 43
1, 1047192, Note_on_c, 0, 48, 33
1, 1047196, Control_c, 0, 64, 80
1, 1047197, Note_on_c, 0, 43, 40
1, 1047250, Note_on_c, 0, 51, 0
1, 1047266, Note_on_c, 0, 48, 0
1, 1047270, Control_c, 0, 67, 116
1, 1047279, Note_on_c, 0, 67, 0
1, 1047283, Note_on_c, 0, 43, 0
1, 1047289, Control_c, 0, 67, 101
1, 1047297, Note_on_c, 0, 63, 47
1, 1047307, Control_c, 0, 67, 78
1, 1047326, Control_c, 0, 67, 45
1, 1047364, Control_c, 0, 67, 0
1, 1047381, Control_c, 0, 64, 82
1, 1047398, Note_on_c, 0, 63, 0
1, 1047412, Note_on_c, 0, 60, 60
1, 1047417, Control_c, 0, 64, 85
1, 1047437, Control_c, 0, 64, 87
1, 1047457, Note_on_c, 0, 60, 0
1, 1047511, Note_on_c, 0, 55, 61
1, 1047567, Control_c, 0, 64, 67
1, 1047584, Control_c, 0, 64, 0
1, 1047599, Note_on_c, 0, 55, 0
1, 1047649, Note_on_c, 0, 43, 77
1, 1047658, Note_on_c, 0, 31, 69
1, 1047658, Note_on_c, 0, 67, 102
1, 1047687, Note_on_c, 0, 43, 0
1, 1047690, Note_on_c, 0, 31, 0
1, 1047690, Control_c, 0, 64, 36
1, 1047708, Control_c, 0, 64, 64
1, 1047727, Control_c, 0, 64, 78
1, 1047746, Control_c, 0, 64, 89
1, 1047763, Control_c, 0, 64, 94
1, 1047775, Note_on_c, 0, 62, 86
1, 1047820, Note_on_c, 0, 67, 0
1, 1047875, Control_c, 0, 64, 99
1, 1047882, Note_on_c, 0, 59, 83
1, 1047885, Poly_aftertouch_c, 0, 64, 0
1, 1047906, Note_on_c, 0, 62, 0
1, 1047976, Note_on_c, 0, 59, 0
1, 1047988, Note_on_c, 0, 55, 82
1, 1048023, Control_c, 0, 64, 103
1, 1048096, Note_on_c, 0, 47, 80
1, 1048100, Note_on_c, 0, 59, 97
1, 1048125, Note_on_c, 0, 55, 0
1, 1048133, Control_c, 0, 64, 95
1, 1048151, Control_c, 0, 64, 90
1, 1048169, Control_c, 0, 64, 85
1, 1048176, Note_on_c, 0, 47, 0
1, 1048187, Control_c, 0, 64, 81
1, 1048205, Note_on_c, 0, 50, 68
1, 1048205, Control_c, 0, 64, 76
1, 1048212, Note_on_c, 0, 62, 93
1, 1048218, Note_on_c, 0, 59, 0
1, 1048223, Control_c, 0, 64, 73
1, 1048243, Control_c, 0, 64, 70
1, 1048261, Control_c, 0, 64, 68
1, 1048281, Control_c, 0, 64, 66
1, 1048300, Control_c, 0, 64, 64
1, 1048313, Note_on_c, 0, 47, 69
1, 1048315, Note_on_c, 0, 50, 0
1, 1048316, Control_c, 0, 64, 63
1, 1048330, Note_on_c, 0, 59, 91
1, 1048333, Control_c, 0, 64, 62
1, 1048370, Note_on_c, 0, 62, 0
1, 1048372, Control_c, 0, 64, 60
1, 1048414, Note_on_c, 0, 59, 0
1, 1048426, Note_on_c, 0, 47, 0
1, 1048427, Control_c, 0, 64, 58
1, 1048432, Note_on_c, 0, 55, 87
1, 1048433, Note_on_c, 0, 43, 65
1, 1048447, Control_c, 0, 67, 8
1, 1048481, Control_c, 0, 64, 55
1, 1048498, Note_on_c, 0, 55, 0
1, 1048498, Note_on_c, 0, 43, 0
1, 1048499, Control_c, 0, 67, 12
1, 1048518, Control_c, 0, 64, 53
1, 1048533, Note_on_c, 0, 60, 93
1, 1048569, Control_c, 0, 67, 16
1, 1048575, Note_on_c, 0, 48, 62
1, 1048608, Control_c, 0, 67, 20
1, 1048627, Control_c, 0, 64, 51
1, 1048629, Control_c, 0, 67, 26
1, 1048643, Control_c, 0, 67, 33
1, 1048661, Note_on_c, 0, 55, 79
1, 1048662, Control_c, 0, 67, 38
1, 1048664, Note_on_c, 0, 48, 0
1, 1048673, Note_on_c, 0, 43, 67
1, 1048700, Control_c, 0, 67, 42
1, 1048710, Note_on_c, 0, 60, 0
1, 1048738, Control_c, 0, 67, 50
1, 1048755, Control_c, 0, 67, 58
1, 1048769, Note_on_c, 0, 51, 81
1, 1048775, Control_c, 0, 64, 49
1, 1048776, Control_c, 0, 67, 65
1, 1048779, Note_on_c, 0, 55, 0
1, 1048791, Note_on_c, 0, 43, 0
1, 1048792, Control_c, 0, 67, 72
1, 1048792, Note_on_c, 0, 39, 65
1, 1048812, Control_c, 0, 67, 78
1, 1048828, Control_c, 0, 67, 85
1, 1048846, Note_on_c, 0, 39, 0
1, 1048849, Control_c, 0, 67, 91
1, 1048864, Control_c, 0, 67, 100
1, 1048882, Note_on_c, 0, 51, 0
1, 1048883, Control_c, 0, 67, 108
1, 1048886, Note_on_c, 0, 55, 80
1, 1048901, Note_on_c, 0, 43, 58
1, 1048902, Control_c, 0, 64, 47
1, 1048903, Control_c, 0, 67, 116
1, 1048920, Control_c, 0, 67, 123
1, 1048939, Control_c, 0, 67, 127
1, 1048983, Note_on_c, 0, 55, 0
1, 1048989, Note_on_c, 0, 43, 0
1, 1049006, Note_on_c, 0, 51, 71
1, 1049008, Note_on_c, 0, 39, 58
1, 1049050, Control_c, 0, 64, 45
1, 1049058, Note_on_c, 0, 51, 0
1, 1049061, Note_on_c, 0, 39, 0
1, 1049103, Control_c, 0, 64, 43
1, 1049106, Note_on_c, 0, 55, 57
1, 1049108, Note_on_c, 0, 43, 54
1, 1049142, Control_c, 0, 64, 41
1, 1049222, Note_on_c, 0, 55, 0
1, 1049227, Note_on_c, 0, 43, 0
1, 1049235, Note_on_c, 0, 51, 40
1, 1049238, Note_on_c, 0, 39, 51
1, 1049278, Note_on_c, 0, 51, 0
1, 1049310, Note_on_c, 0, 48, 47
1, 1049325, Note_on_c, 0, 39, 0
1, 1049350, Note_on_c, 0, 48, 0
1, 1049356, Note_on_c, 0, 36, 31
1, 1049380, Control_c, 0, 64, 34
1, 1049399, Control_c, 0, 64, 20
1, 1049417, Control_c, 0, 64, 0
1, 1049421, Note_on_c, 0, 36, 0
1, 1049560, Note_on_c, 0, 31, 36
1, 1049561, Control_c, 0, 64, 25
1, 1049579, Control_c, 0, 64, 50
1, 1049597, Control_c, 0, 64, 64
1, 1049617, Control_c, 0, 64, 69
1, 1049654, Control_c, 0, 64, 71
1, 1049664, Note_on_c, 0, 31, 0
1, 1049691, Control_c, 0, 64, 74
1, 1049706, Note_on_c, 0, 55, 35
1, 1049708, Control_c, 0, 64, 76
1, 1049727, Control_c, 0, 64, 79
1, 1049746, Control_c, 0, 64, 81
1, 1049789, Note_on_c, 0, 50, 33
1, 1049851, Note_on_c, 0, 55, 0
1, 1049867, Note_on_c, 0, 50, 0
1, 1049912, Control_c, 0, 64, 83
1, 1049913, Note_on_c, 0, 47, 30
1, 1049971, Note_on_c, 0, 47, 0
1, 1050040, Control_c, 0, 64, 85
1, 1050050, Note_on_c, 0, 56, 54
1, 1050100, Note_on_c, 0, 56, 0
1, 1050180, Note_on_c, 0, 55, 37
1, 1050245, Note_on_c, 0, 55, 0
1, 1050307, Note_on_c, 0, 50, 15
1, 1050316, Control_c, 0, 64, 83
1, 1050373, Note_on_c, 0, 50, 0
1, 1050389, Note_on_c, 0, 47, 30
1, 1050459, Note_on_c, 0, 47, 0
1, 1050549, Note_on_c, 0, 56, 38
1, 1050598, Note_on_c, 0, 56, 0
1, 1050656, Note_on_c, 0, 55, 35
1, 1050758, Note_on_c, 0, 55, 0
1, 1050762, Note_on_c, 0, 50, 32
1, 1050835, Note_on_c, 0, 50, 0
1, 1050871, Note_on_c, 0, 47, 31
1, 1050932, Note_on_c, 0, 47, 0
1, 1050979, Note_on_c, 0, 56, 39
1, 1051037, Note_on_c, 0, 56, 0
1, 1051104, Note_on_c, 0, 55, 36
1, 1051123, Control_c, 0, 64, 85
1, 1051169, Note_on_c, 0, 55, 0
1, 1051216, Note_on_c, 0, 50, 38
1, 1051270, Note_on_c, 0, 50, 0
1, 1051310, Note_on_c, 0, 47, 45
1, 1051370, Note_on_c, 0, 47, 0
1, 1051376, Control_c, 0, 64, 87
1, 1051415, Control_c, 0, 64, 74
1, 1051435, Control_c, 0, 64, 50
1, 1051450, Control_c, 0, 64, 0
1, 1051473, Note_on_c, 0, 36, 39
1, 1051525, Control_c, 0, 64, 8
1, 1051544, Control_c, 0, 64, 39
1, 1051562, Control_c, 0, 64, 60
1, 1051580, Control_c, 0, 64, 72
1, 1051598, Control_c, 0, 64, 78
1, 1051604, Note_on_c, 0, 36, 0
1, 1051616, Control_c, 0, 64, 82
1, 1051628, Note_on_c, 0, 57, 34
1, 1051721, Note_on_c, 0, 51, 39
1, 1051735, Note_on_c, 0, 57, 0
1, 1051747, Control_c, 0, 64, 84
1, 1051798, Note_on_c, 0, 51, 0
1, 1051892, Poly_aftertouch_c, 0, 48, 127
1, 1051924, Note_on_c, 0, 48, 48
1, 1051933, Note_on_c, 0, 48, 0
1, 1051933, Poly_aftertouch_c, 0, 48, 0
1, 1051936, Note_on_c, 0, 54, 53
1, 1051973, Note_on_c, 0, 54, 0
1, 1052045, Note_on_c, 0, 57, 40
1, 1052128, Note_on_c, 0, 57, 0
1, 1052174, Note_on_c, 0, 51, 37
1, 1052243, Note_on_c, 0, 51, 0
1, 1052306, Note_on_c, 0, 48, 23
1, 1052366, Note_on_c, 0, 48, 0
1, 1052431, Note_on_c, 0, 54, 39
1, 1052481, Note_on_c, 0, 54, 0
1, 1052546, Note_on_c, 0, 57, 40
1, 1052630, Note_on_c, 0, 57, 0
1, 1052655, Note_on_c, 0, 51, 34
1, 1052717, Note_on_c, 0, 51, 0
1, 1052812, Poly_aftertouch_c, 0, 48, 127
1, 1052865, Poly_aftertouch_c, 0, 48, 0
1, 1052894, Note_on_c, 0, 54, 30
1, 1052948, Note_on_c, 0, 54, 0
1, 1053014, Note_on_c, 0, 57, 37
1, 1053153, Note_on_c, 0, 51, 30
1, 1053160, Control_c, 0, 64, 86
1, 1053174, Note_on_c, 0, 57, 0
1, 1053207, Note_on_c, 0, 51, 0
1, 1053247, Note_on_c, 0, 48, 42
1, 1053248, Control_c, 0, 64, 88
1, 1053288, Note_on_c, 0, 48, 0
1, 1053323, Control_c, 0, 64, 75
1, 1053340, Control_c, 0, 64, 49
1, 1053359, Control_c, 0, 64, 0
1, 1053373, Note_on_c, 0, 31, 46
1, 1053432, Note_on_c, 0, 31, 0
1, 1053432, Control_c, 0, 64, 34
1, 1053450, Control_c, 0, 64, 57
1, 1053468, Control_c, 0, 64, 72
1, 1053473, Note_on_c, 0, 55, 48
1, 1053489, Control_c, 0, 64, 80
1, 1053507, Control_c, 0, 64, 85
1, 1053542, Control_c, 0, 64, 87
1, 1053572, Note_on_c, 0, 55, 0
1, 1053584, Note_on_c, 0, 50, 42
1, 1053653, Note_on_c, 0, 50, 0
1, 1053683, Note_on_c, 0, 47, 44
1, 1053727, Note_on_c, 0, 47, 0
1, 1053799, Note_on_c, 0, 56, 65
1, 1053835, Note_on_c, 0, 56, 0
1, 1053874, Control_c, 0, 64, 85
1, 1053919, Note_on_c, 0, 55, 53
1, 1053930, Control_c, 0, 64, 82
1, 1053999, Note_on_c, 0, 55, 0
1, 1054020, Control_c, 0, 64, 80
1, 1054029, Note_on_c, 0, 50, 41
1, 1054103, Note_on_c, 0, 50, 0
1, 1054133, Control_c, 0, 64, 78
1, 1054147, Note_on_c, 0, 47, 18
1, 1054202, Control_c, 0, 64, 76
1, 1054219, Note_on_c, 0, 47, 0
1, 1054279, Note_on_c, 0, 56, 52
1, 1054313, Control_c, 0, 64, 74
1, 1054337, Note_on_c, 0, 56, 0
1, 1054390, Note_on_c, 0, 55, 40
1, 1054471, Note_on_c, 0, 55, 0
1, 1054489, Note_on_c, 0, 50, 32
1, 1054553, Note_on_c, 0, 50, 0
1, 1054607, Note_on_c, 0, 47, 11
1, 1054682, Note_on_c, 0, 47, 0
1, 1054682, Control_c, 0, 64, 76
1, 1054726, Note_on_c, 0, 56, 39
1, 1054783, Note_on_c, 0, 56, 0
1, 1054846, Note_on_c, 0, 55, 41
1, 1054903, Control_c, 0, 64, 78
1, 1054926, Note_on_c, 0, 55, 0
1, 1054956, Control_c, 0, 64, 80
1, 1054959, Note_on_c, 0, 50, 38
1, 1055019, Note_on_c, 0, 50, 0
1, 1055029, Control_c, 0, 64, 82
1, 1055058, Note_on_c, 0, 47, 41
1, 1055128, Note_on_c, 0, 47, 0
1, 1055138, Control_c, 0, 64, 75
1, 1055158, Control_c, 0, 64, 55
1, 1055175, Control_c, 0, 64, 0
1, 1055208, Note_on_c, 0, 36, 49
1, 1055265, Control_c, 0, 64, 32
1, 1055284, Control_c, 0, 64, 55
1, 1055303, Control_c, 0, 64, 72
1, 1055305, Note_on_c, 0, 36, 0
1, 1055321, Control_c, 0, 64, 78
1, 1055328, Note_on_c, 0, 57, 44
1, 1055340, Control_c, 0, 64, 82
1, 1055413, Note_on_c, 0, 57, 0
1, 1055448, Note_on_c, 0, 51, 41
1, 1055509, Note_on_c, 0, 51, 0
1, 1055569, Note_on_c, 0, 48, 20
1, 1055637, Note_on_c, 0, 48, 0
1, 1055662, Note_on_c, 0, 54, 61
1, 1055705, Note_on_c, 0, 54, 0
1, 1055769, Note_on_c, 0, 57, 46
1, 1055844, Note_on_c, 0, 57, 0
1, 1055884, Note_on_c, 0, 51, 40
1, 1055948, Note_on_c, 0, 51, 0
1, 1056015, Note_on_c, 0, 48, 26
1, 1056093, Note_on_c, 0, 48, 0
1, 1056126, Note_on_c, 0, 54, 42
1, 1056176, Note_on_c, 0, 54, 0
1, 1056239, Control_c, 0, 67, 122
1, 1056258, Control_c, 0, 67, 109
1, 1056272, Note_on_c, 0, 57, 34
1, 1056276, Control_c, 0, 67, 94
1, 1056295, Control_c, 0, 67, 75
1, 1056316, Control_c, 0, 67, 50
1, 1056332, Control_c, 0, 67, 22
1, 1056349, Control_c, 0, 67, 0
1, 1056358, Note_on_c, 0, 57, 0
1, 1056370, Note_on_c, 0, 51, 27
1, 1056423, Note_on_c, 0, 51, 0
1, 1056474, Note_on_c, 0, 48, 23
1, 1056543, Note_on_c, 0, 48, 0
1, 1056590, Control_c, 0, 64, 84
1, 1056601, Note_on_c, 0, 54, 36
1, 1056645, Control_c, 0, 64, 86
1, 1056660, Note_on_c, 0, 54, 0
1, 1056711, Note_on_c, 0, 57, 37
1, 1056736, Control_c, 0, 64, 90
1, 1056834, Note_on_c, 0, 51, 37
1, 1056835, Note_on_c, 0, 57, 0
1, 1056847, Control_c, 0, 64, 95
1, 1056881, Note_on_c, 0, 51, 0
1, 1056882, Control_c, 0, 64, 100
1, 1056919, Control_c, 0, 64, 104
1, 1056923, Note_on_c, 0, 48, 44
1, 1056958, Control_c, 0, 64, 109
1, 1057010, Control_c, 0, 64, 113
1, 1057064, Control_c, 0, 64, 94
1, 1057074, Note_on_c, 0, 48, 0
1, 1057082, Control_c, 0, 64, 34
1, 1057101, Control_c, 0, 64, 0
1, 1057120, Note_on_c, 0, 55, 88
1, 1057130, Note_on_c, 0, 31, 97
1, 1057174, Control_c, 0, 64, 28
1, 1057193, Control_c, 0, 64, 76
1, 1057212, Control_c, 0, 64, 104
1, 1057230, Control_c, 0, 64, 127
1, 1057247, Note_on_c, 0, 50, 80
1, 1057261, Note_on_c, 0, 31, 0
1, 1057329, Note_on_c, 0, 55, 0
1, 1057344, Note_on_c, 0, 50, 0
1, 1057348, Note_on_c, 0, 47, 80
1, 1057451, Note_on_c, 0, 50, 73
1, 1057457, Note_on_c, 0, 47, 0
1, 1057573, Poly_aftertouch_c, 0, 56, 0
1, 1057613, Note_on_c, 0, 59, 85
1, 1057620, Note_on_c, 0, 55, 84
1, 1057629, Note_on_c, 0, 50, 0
1, 1057709, Note_on_c, 0, 59, 0
1, 1057751, Note_on_c, 0, 50, 67
1, 1057764, Note_on_c, 0, 55, 0
1, 1057816, Note_on_c, 0, 50, 0
1, 1057835, Note_on_c, 0, 47, 70
1, 1057959, Poly_aftertouch_c, 0, 56, 127
1, 1057982, Note_on_c, 0, 50, 61
1, 1057983, Poly_aftertouch_c, 0, 58, 0
1, 1057990, Note_on_c, 0, 47, 0
1, 1058008, Poly_aftertouch_c, 0, 56, 0
1, 1058065, Note_on_c, 0, 59, 111
1, 1058078, Note_on_c, 0, 50, 0
1, 1058087, Note_on_c, 0, 55, 87
1, 1058199, Note_on_c, 0, 50, 68
1, 1058206, Poly_aftertouch_c, 0, 58, 0
1, 1058218, Note_on_c, 0, 55, 0
1, 1058280, Note_on_c, 0, 50, 0
1, 1058297, Note_on_c, 0, 47, 70
1, 1058299, Note_on_c, 0, 59, 0
1, 1058422, Note_on_c, 0, 50, 67
1, 1058474, Note_on_c, 0, 47, 0
1, 1058533, Note_on_c, 0, 55, 79
1, 1058539, Note_on_c, 0, 50, 0
1, 1058657, Note_on_c, 0, 55, 0
1, 1058662, Note_on_c, 0, 50, 72
1, 1058728, Note_on_c, 0, 50, 0
1, 1058737, Note_on_c, 0, 47, 69
1, 1058859, Note_on_c, 0, 47, 0
1, 1058883, Note_on_c, 0, 50, 62
1, 1059007, Note_on_c, 0, 50, 0
1, 1059026, Note_on_c, 0, 59, 90
1, 1059035, Note_on_c, 0, 31, 99
1, 1059153, Note_on_c, 0, 55, 70
1, 1059157, Note_on_c, 0, 57, 70
1, 1059171, Note_on_c, 0, 59, 0
1, 1059180, Note_on_c, 0, 31, 0
1, 1059196, Note_on_c, 0, 57, 0
1, 1059214, Note_on_c, 0, 55, 0
1, 1059241, Note_on_c, 0, 50, 80
1, 1059280, Poly_aftertouch_c, 0, 32, 0
1, 1059358, Note_on_c, 0, 55, 72
1, 1059363, Note_on_c, 0, 53, 75
1, 1059366, Note_on_c, 0, 50, 0
1, 1059467, Note_on_c, 0, 53, 0
1, 1059475, Note_on_c, 0, 59, 89
1, 1059476, Note_on_c, 0, 55, 0
1, 1059487, Note_on_c, 0, 62, 108
1, 1059510, Poly_aftertouch_c, 0, 60, 127
1, 1059546, Note_on_c, 0, 62, 0
1, 1059578, Poly_aftertouch_c, 0, 60, 0
1, 1059587, Note_on_c, 0, 55, 76
1, 1059591, Poly_aftertouch_c, 0, 57, 127
1, 1059622, Note_on_c, 0, 59, 0
1, 1059632, Poly_aftertouch_c, 0, 57, 0
1, 1059665, Note_on_c, 0, 55, 0
1, 1059704, Note_on_c, 0, 50, 61
1, 1059816, Note_on_c, 0, 50, 0
1, 1059819, Note_on_c, 0, 55, 73
1, 1059827, Poly_aftertouch_c, 0, 52, 127
1, 1059865, Poly_aftertouch_c, 0, 52, 0
1, 1059935, Note_on_c, 0, 55, 0
1, 1059943, Note_on_c, 0, 62, 108
1, 1059944, Note_on_c, 0, 59, 90
1, 1060034, Note_on_c, 0, 57, 35
1, 1060061, Note_on_c, 0, 55, 76
1, 1060081, Note_on_c, 0, 57, 0
1, 1060092, Note_on_c, 0, 59, 0
1, 1060156, Note_on_c, 0, 55, 0
1, 1060156, Note_on_c, 0, 62, 0
1, 1060157, Note_on_c, 0, 50, 73
1, 1060277, Note_on_c, 0, 55, 82
1, 1060313, Note_on_c, 0, 50, 0
1, 1060389, Note_on_c, 0, 59, 88
1, 1060401, Note_on_c, 0, 55, 0
1, 1060491, Note_on_c, 0, 55, 80
1, 1060518, Note_on_c, 0, 59, 0
1, 1060586, Note_on_c, 0, 55, 0
1, 1060586, Note_on_c, 0, 50, 75
1, 1060676, Note_on_c, 0, 55, 80
1, 1060694, Note_on_c, 0, 50, 0
1, 1060811, Note_on_c, 0, 55, 0
1, 1060819, Note_on_c, 0, 31, 97
1, 1060820, Note_on_c, 0, 62, 95
1, 1060938, Note_on_c, 0, 59, 80
1, 1060965, Note_on_c, 0, 31, 0
1, 1060983, Note_on_c, 0, 62, 0
1, 1061026, Note_on_c, 0, 59, 0
1, 1061043, Note_on_c, 0, 55, 79
1, 1061153, Note_on_c, 0, 59, 80
1, 1061160, Note_on_c, 0, 55, 0
1, 1061275, Note_on_c, 0, 62, 87
1, 1061276, Note_on_c, 0, 59, 0
1, 1061277, Note_on_c, 0, 65, 105
1, 1061341, Note_on_c, 0, 65, 0
1, 1061357, Note_on_c, 0, 60, 27
1, 1061399, Note_on_c, 0, 59, 78
1, 1061409, Note_on_c, 0, 60, 0
1, 1061421, Note_on_c, 0, 62, 0
1, 1061485, Note_on_c, 0, 59, 0
1, 1061497, Note_on_c, 0, 55, 72
1, 1061581, Note_on_c, 0, 55, 0
1, 1061604, Note_on_c, 0, 59, 74
1, 1061623, Poly_aftertouch_c, 0, 63, 0
1, 1061625, Poly_aftertouch_c, 0, 66, 127
1, 1061668, Poly_aftertouch_c, 0, 66, 0
1, 1061750, Note_on_c, 0, 65, 105
1, 1061764, Note_on_c, 0, 62, 86
1, 1061773, Note_on_c, 0, 59, 0
1, 1061893, Note_on_c, 0, 59, 74
1, 1061897, Note_on_c, 0, 62, 0
1, 1061970, Note_on_c, 0, 59, 0
1, 1061996, Note_on_c, 0, 55, 69
1, 1062096, Note_on_c, 0, 59, 80
1, 1062139, Note_on_c, 0, 55, 0
1, 1062196, Note_on_c, 0, 62, 80
1, 1062203, Note_on_c, 0, 59, 0
1, 1062312, Note_on_c, 0, 59, 78
1, 1062317, Note_on_c, 0, 62, 0
1, 1062368, Note_on_c, 0, 65, 0
1, 1062383, Note_on_c, 0, 59, 0
1, 1062403, Note_on_c, 0, 55, 72
1, 1062517, Note_on_c, 0, 59, 71
1, 1062598, Note_on_c, 0, 55, 0
1, 1062651, Note_on_c, 0, 59, 0
1, 1062654, Note_on_c, 0, 65, 71
1, 1062747, Note_on_c, 0, 62, 64
1, 1062755, Note_on_c, 0, 65, 0
1, 1062772, Note_on_c, 0, 59, 63
1, 1062824, Note_on_c, 0, 59, 0
1, 1062830, Note_on_c, 0, 62, 0
1, 1062856, Note_on_c, 0, 55, 60
1, 1062908, Note_on_c, 0, 55, 0
1, 1062964, Note_on_c, 0, 59, 59
1, 1062970, Note_on_c, 0, 62, 49
1, 1063043, Note_on_c, 0, 59, 0
1, 1063046, Note_on_c, 0, 62, 0
1, 1063087, Note_on_c, 0, 65, 65
1, 1063114, Note_on_c, 0, 71, 89
1, 1063184, Note_on_c, 0, 65, 0
1, 1063192, Note_on_c, 0, 62, 61
1, 1063201, Note_on_c, 0, 59, 63
1, 1063263, Note_on_c, 0, 62, 0
1, 1063274, Note_on_c, 0, 59, 0
1, 1063305, Note_on_c, 0, 55, 66
1, 1063391, Note_on_c, 0, 55, 0
1, 1063420, Note_on_c, 0, 62, 51
1, 1063421, Note_on_c, 0, 59, 60
1, 1063505, Note_on_c, 0, 62, 0
1, 1063511, Note_on_c, 0, 59, 0
1, 1063544, Note_on_c, 0, 65, 65
1, 1063591, Note_on_c, 0, 71, 0
1, 1063642, Note_on_c, 0, 65, 0
1, 1063669, Note_on_c, 0, 59, 60
1, 1063675, Note_on_c, 0, 62, 46
1, 1063719, Note_on_c, 0, 59, 0
1, 1063730, Note_on_c, 0, 62, 0
1, 1063776, Note_on_c, 0, 55, 42
1, 1063835, Note_on_c, 0, 55, 0
1, 1063865, Note_on_c, 0, 62, 44
1, 1063879, Note_on_c, 0, 59, 49
1, 1063940, Note_on_c, 0, 59, 0
1, 1063950, Note_on_c, 0, 62, 0
1, 1063991, Note_on_c, 0, 65, 56
1, 1064005, Note_on_c, 0, 74, 87
1, 1064074, Note_on_c, 0, 65, 0
1, 1064095, Note_on_c, 0, 62, 60
1, 1064102, Note_on_c, 0, 59, 54
1, 1064174, Note_on_c, 0, 62, 0
1, 1064178, Note_on_c, 0, 59, 0
1, 1064212, Note_on_c, 0, 55, 54
1, 1064293, Note_on_c, 0, 55, 0
1, 1064333, Note_on_c, 0, 59, 52
1, 1064333, Note_on_c, 0, 62, 50
1, 1064369, Control_c, 0, 67, 8
1, 1064382, Note_on_c, 0, 59, 0
1, 1064397, Note_on_c, 0, 62, 0
1, 1064403, Control_c, 0, 67, 14
1, 1064423, Control_c, 0, 67, 18
1, 1064433, Note_on_c, 0, 65, 58
1, 1064476, Control_c, 0, 67, 23
1, 1064497, Note_on_c, 0, 74, 0
1, 1064513, Control_c, 0, 67, 30
1, 1064531, Control_c, 0, 67, 36
1, 1064540, Note_on_c, 0, 65, 0
1, 1064549, Control_c, 0, 67, 41
1, 1064558, Note_on_c, 0, 62, 50
1, 1064567, Control_c, 0, 67, 46
1, 1064568, Note_on_c, 0, 59, 47
1, 1064586, Control_c, 0, 67, 50
1, 1064622, Control_c, 0, 67, 54
1, 1064627, Note_on_c, 0, 62, 0
1, 1064629, Note_on_c, 0, 59, 0
1, 1064663, Note_on_c, 0, 55, 46
1, 1064731, Note_on_c, 0, 55, 0
1, 1064734, Control_c, 0, 67, 58
1, 1064769, Control_c, 0, 67, 66
1, 1064774, Note_on_c, 0, 62, 42
1, 1064779, Note_on_c, 0, 59, 41
1, 1064807, Control_c, 0, 67, 71
1, 1064830, Note_on_c, 0, 59, 0
1, 1064842, Note_on_c, 0, 62, 0
1, 1064861, Control_c, 0, 67, 77
1, 1064917, Control_c, 0, 67, 81
1, 1064918, Note_on_c, 0, 65, 46
1, 1064972, Note_on_c, 0, 77, 79
1, 1064993, Control_c, 0, 64, 123
1, 1065008, Control_c, 0, 67, 86
1, 1065017, Note_on_c, 0, 65, 0
1, 1065018, Note_on_c, 0, 62, 48
1, 1065057, Note_on_c, 0, 59, 47
1, 1065082, Control_c, 0, 67, 91
1, 1065119, Note_on_c, 0, 59, 0
1, 1065123, Note_on_c, 0, 62, 0
1, 1065138, Control_c, 0, 67, 95
1, 1065172, Note_on_c, 0, 55, 45
1, 1065176, Control_c, 0, 67, 99
1, 1065232, Control_c, 0, 67, 103
1, 1065242, Note_on_c, 0, 55, 0
1, 1065267, Control_c, 0, 67, 107
1, 1065279, Note_on_c, 0, 59, 48
1, 1065288, Note_on_c, 0, 62, 42
1, 1065304, Control_c, 0, 67, 113
1, 1065317, Note_on_c, 0, 77, 0
1, 1065322, Control_c, 0, 67, 117
1, 1065337, Note_on_c, 0, 59, 0
1, 1065339, Control_c, 0, 67, 122
1, 1065348, Note_on_c, 0, 62, 0
1, 1065358, Control_c, 0, 67, 126
1, 1065412, Note_on_c, 0, 65, 48
1, 1065481, Note_on_c, 0, 65, 0
1, 1065504, Note_on_c, 0, 62, 47
1, 1065509, Note_on_c, 0, 59, 45
1, 1065579, Note_on_c, 0, 59, 0
1, 1065588, Note_on_c, 0, 62, 0
1, 1065619, Note_on_c, 0, 55, 43
1, 1065700, Note_on_c, 0, 55, 0
1, 1065728, Note_on_c, 0, 59, 44
1, 1065737, Note_on_c, 0, 62, 33
1, 1065762, Control_c, 0, 64, 119
1, 1065815, Note_on_c, 0, 59, 0
1, 1065852, Note_on_c, 0, 62, 0
1, 1065901, Note_on_c, 0, 65, 44
1, 1065924, Note_on_c, 0, 77, 73
1, 1065992, Note_on_c, 0, 62, 52
1, 1066007, Note_on_c, 0, 65, 0
1, 1066029, Note_on_c, 0, 59, 42
1, 1066076, Note_on_c, 0, 59, 0
1, 1066080, Note_on_c, 0, 62, 0
1, 1066090, Note_on_c, 0, 77, 0
1, 1066123, Note_on_c, 0, 55, 43
1, 1066185, Note_on_c, 0, 55, 0
1, 1066209, Note_on_c, 0, 59, 42
1, 1066240, Note_on_c, 0, 62, 40
1, 1066307, Note_on_c, 0, 62, 0
1, 1066360, Note_on_c, 0, 59, 0
1, 1066388, Note_on_c, 0, 65, 40
1, 1066396, Note_on_c, 0, 77, 53
1, 1066426, Note_on_c, 0, 77, 0
1, 1066458, Note_on_c, 0, 65, 0
1, 1066486, Note_on_c, 0, 59, 38
1, 1066488, Note_on_c, 0, 62, 38
1, 1066539, Note_on_c, 0, 59, 0
1, 1066552, Note_on_c, 0, 62, 0
1, 1066593, Note_on_c, 0, 55, 31
1, 1066646, Note_on_c, 0, 55, 0
1, 1066693, Note_on_c, 0, 62, 32
1, 1066695, Note_on_c, 0, 59, 35
1, 1066776, Note_on_c, 0, 59, 0
1, 1066807, Note_on_c, 0, 62, 0
1, 1066807, Control_c, 0, 64, 123
1, 1066808, Control_c, 0, 67, 117
1, 1066826, Control_c, 0, 67, 107
1, 1066845, Control_c, 0, 67, 94
1, 1066862, Control_c, 0, 67, 79
1, 1066880, Control_c, 0, 67, 61
1, 1066899, Control_c, 0, 67, 45
1, 1066907, Note_on_c, 0, 65, 42
1, 1066918, Control_c, 0, 67, 31
1, 1066919, Note_on_c, 0, 32, 70
1, 1066934, Note_on_c, 0, 44, 55
1, 1066936, Control_c, 0, 67, 20
1, 1066953, Control_c, 0, 67, 10
1, 1066967, Note_on_c, 0, 65, 0
1, 1067035, Note_on_c, 0, 62, 38
1, 1067045, Control_c, 0, 67, 18
1, 1067051, Note_on_c, 0, 59, 39
1, 1067065, Control_c, 0, 67, 26
1, 1067084, Control_c, 0, 67, 36
1, 1067092, Note_on_c, 0, 62, 0
1, 1067094, Note_on_c, 0, 59, 0
1, 1067102, Control_c, 0, 67, 48
1, 1067120, Control_c, 0, 67, 59
1, 1067139, Control_c, 0, 67, 68
1, 1067141, Note_on_c, 0, 55, 31
1, 1067156, Control_c, 0, 67, 75
1, 1067168, Note_on_c, 0, 44, 0
1, 1067175, Control_c, 0, 67, 83
1, 1067193, Control_c, 0, 67, 93
1, 1067201, Note_on_c, 0, 55, 0
1, 1067211, Control_c, 0, 67, 105
1, 1067231, Control_c, 0, 67, 116
1, 1067234, Note_on_c, 0, 59, 32
1, 1067249, Control_c, 0, 67, 124
1, 1067273, Note_on_c, 0, 62, 13
1, 1067304, Note_on_c, 0, 32, 0
1, 1067305, Note_on_c, 0, 59, 0
1, 1067339, Control_c, 0, 64, 118
1, 1067349, Note_on_c, 0, 62, 0
1, 1067393, Control_c, 0, 64, 114
1, 1067394, Note_on_c, 0, 65, 35
1, 1067402, Note_on_c, 0, 43, 47
1, 1067404, Note_on_c, 0, 31, 52
1, 1067465, Note_on_c, 0, 65, 0
1, 1067473, Note_on_c, 0, 62, 47
1, 1067484, Control_c, 0, 64, 110
1, 1067518, Note_on_c, 0, 31, 0
1, 1067535, Note_on_c, 0, 59, 23
1, 1067538, Note_on_c, 0, 43, 0
1, 1067552, Note_on_c, 0, 62, 0
1, 1067589, Note_on_c, 0, 59, 0
1, 1067602, Note_on_c, 0, 55, 47
1, 1067672, Note_on_c, 0, 55, 0
1, 1067713, Note_on_c, 0, 62, 46
1, 1067717, Note_on_c, 0, 59, 46
1, 1067787, Note_on_c, 0, 59, 0
1, 1067799, Note_on_c, 0, 62, 0
1, 1067870, Note_on_c, 0, 65, 51
1, 1067903, Note_on_c, 0, 77, 78
1, 1067968, Note_on_c, 0, 65, 0
1, 1067969, Note_on_c, 0, 62, 48
1, 1068008, Note_on_c, 0, 59, 45
1, 1068020, Note_on_c, 0, 77, 0
1, 1068053, Note_on_c, 0, 59, 0
1, 1068053, Note_on_c, 0, 62, 0
1, 1068104, Note_on_c, 0, 55, 45
1, 1068167, Control_c, 0, 64, 106
1, 1068213, Note_on_c, 0, 55, 0
1, 1068219, Note_on_c, 0, 59, 41
1, 1068256, Note_on_c, 0, 62, 27
1, 1068322, Note_on_c, 0, 62, 0
1, 1068323, Note_on_c, 0, 59, 0
1, 1068356, Note_on_c, 0, 65, 48
1, 1068362, Note_on_c, 0, 77, 53
1, 1068406, Note_on_c, 0, 77, 0
1, 1068425, Note_on_c, 0, 65, 0
1, 1068469, Note_on_c, 0, 62, 42
1, 1068484, Note_on_c, 0, 59, 47
1, 1068520, Note_on_c, 0, 59, 0
1, 1068536, Note_on_c, 0, 62, 0
1, 1068574, Note_on_c, 0, 55, 33
1, 1068627, Note_on_c, 0, 55, 0
1, 1068672, Note_on_c, 0, 59, 35
1, 1068681, Note_on_c, 0, 62, 44
1, 1068745, Note_on_c, 0, 62, 0
1, 1068759, Note_on_c, 0, 59, 0
1, 1068845, Note_on_c, 0, 65, 36
1, 1068864, Note_on_c, 0, 32, 69
1, 1068873, Note_on_c, 0, 44, 56
1, 1068908, Note_on_c, 0, 65, 0
1, 1068943, Note_on_c, 0, 62, 46
1, 1068964, Note_on_c, 0, 59, 40
1, 1068975, Control_c, 0, 64, 102
1, 1069002, Note_on_c, 0, 62, 0
1, 1069009, Note_on_c, 0, 59, 0
1, 1069036, Note_on_c, 0, 44, 0
1, 1069063, Control_c, 0, 64, 98
1, 1069066, Note_on_c, 0, 55, 39
1, 1069125, Note_on_c, 0, 55, 0
1, 1069165, Note_on_c, 0, 59, 40
1, 1069169, Note_on_c, 0, 62, 43
1, 1069179, Note_on_c, 0, 32, 0
1, 1069248, Note_on_c, 0, 62, 0
1, 1069264, Note_on_c, 0, 59, 0
1, 1069323, Note_on_c, 0, 65, 41
1, 1069332, Note_on_c, 0, 43, 53
1, 1069335, Note_on_c, 0, 31, 55
1, 1069388, Note_on_c, 0, 65, 0
1, 1069391, Note_on_c, 0, 31, 0
1, 1069409, Note_on_c, 0, 43, 0
1, 1069437, Note_on_c, 0, 62, 31
1, 1069442, Note_on_c, 0, 59, 44
1, 1069482, Note_on_c, 0, 59, 0
1, 1069496, Note_on_c, 0, 62, 0
1, 1069540, Note_on_c, 0, 55, 41
1, 1069637, Note_on_c, 0, 59, 41
1, 1069638, Note_on_c, 0, 62, 40
1, 1069655, Note_on_c, 0, 55, 0
1, 1069729, Note_on_c, 0, 59, 0
1, 1069736, Note_on_c, 0, 62, 0
1, 1069787, Note_on_c, 0, 65, 50
1, 1069804, Note_on_c, 0, 77, 81
1, 1069888, Note_on_c, 0, 62, 55
1, 1069893, Note_on_c, 0, 65, 0
1, 1069922, Note_on_c, 0, 77, 0
1, 1069927, Note_on_c, 0, 59, 28
1, 1069956, Note_on_c, 0, 62, 0
1, 1069976, Note_on_c, 0, 59, 0
1, 1070012, Note_on_c, 0, 55, 36
1, 1070108, Note_on_c, 0, 55, 0
1, 1070114, Note_on_c, 0, 59, 42
1, 1070150, Note_on_c, 0, 62, 21
1, 1070221, Note_on_c, 0, 62, 0
1, 1070223, Note_on_c, 0, 59, 0
1, 1070269, Note_on_c, 0, 65, 38
1, 1070271, Note_on_c, 0, 77, 34
1, 1070310, Note_on_c, 0, 77, 0
1, 1070356, Note_on_c, 0, 65, 0
1, 1070382, Note_on_c, 0, 62, 32
1, 1070400, Note_on_c, 0, 59, 23
1, 1070448, Note_on_c, 0, 62, 0
1, 1070460, Note_on_c, 0, 59, 0
1, 1070467, Note_on_c, 0, 55, 40
1, 1070527, Note_on_c, 0, 55, 0
1, 1070579, Note_on_c, 0, 59, 56
1, 1070630, Note_on_c, 0, 59, 0
1, 1070663, Poly_aftertouch_c, 0, 62, 0
1, 1070765, Note_on_c, 0, 65, 46
1, 1070868, Note_on_c, 0, 65, 0
1, 1070878, Note_on_c, 0, 62, 19
1, 1070881, Note_on_c, 0, 59, 39
1, 1070916, Note_on_c, 0, 59, 0
1, 1070949, Note_on_c, 0, 55, 40
1, 1070956, Note_on_c, 0, 62, 0
1, 1071018, Note_on_c, 0, 55, 0
1, 1071065, Note_on_c, 0, 59, 35
1, 1071092, Poly_aftertouch_c, 0, 62, 127
1, 1071144, Note_on_c, 0, 59, 0
1, 1071146, Poly_aftertouch_c, 0, 62, 0
1, 1071175, Note_on_c, 0, 65, 51
1, 1071246, Note_on_c, 0, 65, 0
1, 1071246, Control_c, 0, 64, 102
1, 1071266, Note_on_c, 0, 62, 51
1, 1071287, Note_on_c, 0, 59, 45
1, 1071334, Note_on_c, 0, 59, 0
1, 1071338, Note_on_c, 0, 62, 0
1, 1071395, Note_on_c, 0, 55, 28
1, 1071458, Note_on_c, 0, 55, 0
1, 1071501, Note_on_c, 0, 59, 25
1, 1071543, Poly_aftertouch_c, 0, 62, 127
1, 1071559, Note_on_c, 0, 59, 0
1, 1071598, Poly_aftertouch_c, 0, 62, 0
1, 1071637, Note_on_c, 0, 65, 40
1, 1071673, Note_on_c, 0, 56, 69
1, 1071730, Note_on_c, 0, 62, 48
1, 1071785, Note_on_c, 0, 65, 0
1, 1071789, Note_on_c, 0, 59, 35
1, 1071822, Note_on_c, 0, 62, 0
1, 1071834, Note_on_c, 0, 59, 0
1, 1071889, Note_on_c, 0, 55, 40
1, 1071899, Note_on_c, 0, 56, 0
1, 1071990, Note_on_c, 0, 55, 0
1, 1071999, Note_on_c, 0, 59, 33
1, 1072023, Note_on_c, 0, 62, 34
1, 1072129, Note_on_c, 0, 62, 0
1, 1072146, Note_on_c, 0, 59, 0
1, 1072155, Note_on_c, 0, 65, 48
1, 1072229, Note_on_c, 0, 65, 0
1, 1072280, Note_on_c, 0, 62, 42
1, 1072291, Note_on_c, 0, 59, 46
1, 1072310, Control_c, 0, 67, 119
1, 1072330, Control_c, 0, 67, 115
1, 1072337, Note_on_c, 0, 59, 0
1, 1072343, Note_on_c, 0, 62, 0
1, 1072345, Control_c, 0, 67, 110
1, 1072364, Control_c, 0, 67, 105
1, 1072382, Note_on_c, 0, 55, 47
1, 1072383, Control_c, 0, 64, 106
1, 1072384, Control_c, 0, 67, 98
1, 1072403, Control_c, 0, 67, 91
1, 1072419, Control_c, 0, 67, 82
1, 1072438, Control_c, 0, 67, 71
1, 1072456, Control_c, 0, 67, 59
1, 1072470, Note_on_c, 0, 55, 0
1, 1072475, Control_c, 0, 67, 46
1, 1072494, Control_c, 0, 67, 31
1, 1072505, Note_on_c, 0, 62, 37
1, 1072507, Note_on_c, 0, 59, 36
1, 1072512, Control_c, 0, 67, 16
1, 1072532, Control_c, 0, 64, 110
1, 1072550, Control_c, 0, 67, 0
1, 1072596, Note_on_c, 0, 59, 0
1, 1072603, Control_c, 0, 64, 114
1, 1072615, Note_on_c, 0, 43, 65
1, 1072620, Note_on_c, 0, 62, 0
1, 1072637, Note_on_c, 0, 65, 57
1, 1072660, Control_c, 0, 64, 119
1, 1072740, Note_on_c, 0, 65, 0
1, 1072752, Control_c, 0, 64, 123
1, 1072760, Note_on_c, 0, 62, 58
1, 1072761, Note_on_c, 0, 59, 52
1, 1072822, Note_on_c, 0, 59, 0
1, 1072831, Note_on_c, 0, 62, 0
1, 1072858, Note_on_c, 0, 55, 53
1, 1072933, Control_c, 0, 64, 127
1, 1072992, Note_on_c, 0, 62, 62
1, 1073001, Note_on_c, 0, 59, 59
1, 1073030, Note_on_c, 0, 55, 0
1, 1073066, Note_on_c, 0, 43, 0
1, 1073083, Note_on_c, 0, 65, 86
1, 1073092, Note_on_c, 0, 59, 0
1, 1073095, Note_on_c, 0, 62, 0
1, 1073164, Poly_aftertouch_c, 0, 34, 0
1, 1073193, Note_on_c, 0, 62, 75
1, 1073203, Note_on_c, 0, 59, 75
1, 1073221, Note_on_c, 0, 65, 0
1, 1073274, Note_on_c, 0, 59, 0
1, 1073282, Note_on_c, 0, 62, 0
1, 1073290, Note_on_c, 0, 55, 84
1, 1073385, Note_on_c, 0, 59, 76
1, 1073386, Note_on_c, 0, 55, 0
1, 1073386, Note_on_c, 0, 62, 77
1, 1073413, Note_on_c, 0, 59, 0
1, 1073436, Note_on_c, 0, 62, 0
1, 1073544, Note_on_c, 0, 71, 103
1, 1073547, Note_on_c, 0, 59, 93
1, 1073551, Note_on_c, 0, 31, 93
1, 1073554, Note_on_c, 0, 43, 98
1, 1073597, Note_on_c, 0, 59, 0
1, 1073656, Note_on_c, 0, 43, 0
1, 1073660, Note_on_c, 0, 65, 86
1, 1073661, Note_on_c, 0, 62, 90
1, 1073676, Note_on_c, 0, 31, 0
1, 1073677, Note_on_c, 0, 71, 0
1, 1073681, Note_on_c, 0, 69, 21
1, 1073721, Note_on_c, 0, 62, 0
1, 1073734, Note_on_c, 0, 69, 0
1, 1073736, Note_on_c, 0, 65, 0
1, 1073796, Note_on_c, 0, 31, 92
1, 1073798, Note_on_c, 0, 43, 95
1, 1073818, Note_on_c, 0, 71, 102
1, 1073822, Note_on_c, 0, 59, 98
1, 1073860, Note_on_c, 0, 43, 0
1, 1073868, Note_on_c, 0, 31, 0
1, 1073880, Note_on_c, 0, 69, 20
1, 1073881, Note_on_c, 0, 69, 0
1, 1073902, Note_on_c, 0, 59, 0
1, 1073910, Note_on_c, 0, 65, 82
1, 1073916, Note_on_c, 0, 62, 80
1, 1073939, Note_on_c, 0, 62, 0
1, 1073951, Note_on_c, 0, 71, 0
1, 1073954, Note_on_c, 0, 65, 0
1, 1074201, Note_on_c, 0, 36, 97
1, 1074201, Note_on_c, 0, 72, 103
1, 1074202, Note_on_c, 0, 48, 97
1, 1074204, Note_on_c, 0, 64, 94
1, 1074214, Note_on_c, 0, 60, 86
1, 1074217, Control_c, 0, 64, 72
1, 1074235, Control_c, 0, 64, 0
1, 1074334, Note_on_c, 0, 48, 0
1, 1074403, Control_c, 0, 64, 16
1, 1074422, Control_c, 0, 64, 89
1, 1074437, Control_c, 0, 64, 127
1, 1074468, Note_on_c, 0, 60, 0
1, 1074474, Note_on_c, 0, 43, 75
1, 1074498, Note_on_c, 0, 64, 0
1, 1074549, Note_on_c, 0, 72, 0
1, 1074626, Note_on_c, 0, 36, 0
1, 1074627, Note_on_c, 0, 43, 0
1, 1074635, Note_on_c, 0, 48, 81
1, 1074798, Note_on_c, 0, 48, 0
1, 1074800, Note_on_c, 0, 52, 70
1, 1074997, Note_on_c, 0, 52, 0
1, 1075000, Note_on_c, 0, 55, 63
1, 1075001, Note_on_c, 0, 91, 101
1, 1075025, Note_on_c, 0, 79, 69
1, 1075047, Note_on_c, 0, 79, 0
1, 1075067, Note_on_c, 0, 91, 0
1, 1075140, Note_on_c, 0, 55, 0
1, 1075144, Note_on_c, 0, 48, 72
1, 1075268, Note_on_c, 0, 52, 81
1, 1075376, Note_on_c, 0, 55, 80
1, 1075402, Note_on_c, 0, 52, 0
1, 1075410, Note_on_c, 0, 48, 0
1, 1075449, Note_on_c, 0, 55, 0
1, 1075497, Note_on_c, 0, 91, 111
1, 1075507, Note_on_c, 0, 60, 75
1, 1075514, Note_on_c, 0, 79, 84
1, 1075529, Note_on_c, 0, 86, 47
1, 1075563, Note_on_c, 0, 86, 0
1, 1075599, Note_on_c, 0, 60, 0
1, 1075649, Note_on_c, 0, 52, 70
1, 1075775, Note_on_c, 0, 79, 0
1, 1075777, Note_on_c, 0, 55, 78
1, 1075831, Note_on_c, 0, 91, 0
1, 1075899, Note_on_c, 0, 60, 75
1, 1075928, Note_on_c, 0, 52, 0
1, 1075941, Note_on_c, 0, 55, 0
1, 1075977, Note_on_c, 0, 60, 0
1, 1076005, Note_on_c, 0, 64, 66
1, 1076114, Note_on_c, 0, 55, 65
1, 1076122, Note_on_c, 0, 64, 0
1, 1076213, Note_on_c, 0, 88, 103
1, 1076221, Note_on_c, 0, 60, 73
1, 1076245, Note_on_c, 0, 76, 64
1, 1076300, Note_on_c, 0, 76, 0
1, 1076324, Note_on_c, 0, 88, 0
1, 1076381, Note_on_c, 0, 64, 67
1, 1076408, Note_on_c, 0, 60, 0
1, 1076471, Note_on_c, 0, 86, 98
1, 1076486, Note_on_c, 0, 64, 0
1, 1076495, Note_on_c, 0, 65, 64
1, 1076499, Note_on_c, 0, 74, 71
1, 1076591, Poly_aftertouch_c, 0, 81, 0
1, 1076599, Note_on_c, 0, 65, 0
1, 1076609, Note_on_c, 0, 64, 73
1, 1076611, Note_on_c, 0, 86, 0
1, 1076646, Note_on_c, 0, 74, 0
1, 1076715, Note_on_c, 0, 55, 0
1, 1076719, Note_on_c, 0, 62, 78
1, 1076726, Note_on_c, 0, 64, 0
1, 1076763, Note_on_c, 0, 62, 0
1, 1076814, Note_on_c, 0, 60, 74
1, 1076919, Note_on_c, 0, 60, 0
1, 1076953, Note_on_c, 0, 59, 67
1, 1076965, Note_on_c, 0, 79, 92
1, 1076997, Note_on_c, 0, 67, 67
1, 1077030, Note_on_c, 0, 67, 0
1, 1077043, Note_on_c, 0, 59, 0
1, 1077061, Note_on_c, 0, 57, 75
1, 1077063, Poly_aftertouch_c, 0, 74, 127
1, 1077098, Poly_aftertouch_c, 0, 74, 0
1, 1077101, Note_on_c, 0, 57, 0
1, 1077169, Note_on_c, 0, 55, 67
1, 1077284, Note_on_c, 0, 55, 0
1, 1077304, Note_on_c, 0, 53, 56
1, 1077412, Note_on_c, 0, 84, 92
1, 1077429, Note_on_c, 0, 52, 67
1, 1077431, Control_c, 0, 64, 118
1, 1077441, Note_on_c, 0, 79, 0
1, 1077447, Note_on_c, 0, 72, 52
1, 1077448, Control_c, 0, 64, 112
1, 1077449, Note_on_c, 0, 53, 0
1, 1077483, Control_c, 0, 64, 127
1, 1077509, Note_on_c, 0, 52, 0
1, 1077526, Note_on_c, 0, 55, 73
1, 1077637, Note_on_c, 0, 72, 0
1, 1077638, Poly_aftertouch_c, 0, 72, 0
1, 1077655, Note_on_c, 0, 48, 76
1, 1077664, Note_on_c, 0, 55, 0
1, 1077771, Note_on_c, 0, 52, 76
1, 1077877, Note_on_c, 0, 48, 0
1, 1077892, Note_on_c, 0, 43, 75
1, 1077906, Note_on_c, 0, 52, 0
1, 1077914, Note_on_c, 0, 88, 92
1, 1077942, Note_on_c, 0, 76, 63
1, 1077951, Note_on_c, 0, 84, 0
1, 1077977, Note_on_c, 0, 43, 0
1, 1078007, Note_on_c, 0, 48, 77
1, 1078139, Note_on_c, 0, 40, 73
1, 1078261, Note_on_c, 0, 43, 68
1, 1078334, Note_on_c, 0, 40, 0
1, 1078389, Note_on_c, 0, 36, 94
1, 1078420, Control_c, 0, 64, 121
1, 1078422, Note_on_c, 0, 48, 0
1, 1078423, Poly_aftertouch_c, 0, 48, 0
1, 1078431, Note_on_c, 0, 43, 0
1, 1078439, Control_c, 0, 64, 77
1, 1078458, Control_c, 0, 64, 55
1, 1078476, Control_c, 0, 64, 61
1, 1078508, Control_c, 0, 64, 74
1, 1078527, Control_c, 0, 64, 97
1, 1078546, Control_c, 0, 64, 127
1, 1078550, Note_on_c, 0, 76, 0
1, 1078579, Note_on_c, 0, 43, 84
1, 1078648, Note_on_c, 0, 36, 0
1, 1078667, Note_on_c, 0, 43, 0
1, 1078678, Note_on_c, 0, 48, 80
1, 1078785, Note_on_c, 0, 48, 0
1, 1078808, Note_on_c, 0, 52, 81
1, 1078908, Note_on_c, 0, 91, 106
1, 1078924, Note_on_c, 0, 88, 0
1, 1078932, Note_on_c, 0, 55, 76
1, 1078933, Note_on_c, 0, 79, 62
1, 1078937, Note_on_c, 0, 52, 0
1, 1078954, Note_on_c, 0, 91, 0
1, 1078957, Note_on_c, 0, 79, 0
1, 1079028, Note_on_c, 0, 55, 0
1, 1079035, Note_on_c, 0, 48, 78
1, 1079129, Note_on_c, 0, 52, 78
1, 1079154, Note_on_c, 0, 48, 0
1, 1079233, Note_on_c, 0, 55, 82
1, 1079248, Note_on_c, 0, 52, 0
1, 1079309, Note_on_c, 0, 55, 0
1, 1079354, Note_on_c, 0, 60, 80
1, 1079366, Note_on_c, 0, 91, 112
1, 1079383, Note_on_c, 0, 79, 90
1, 1079466, Note_on_c, 0, 60, 0
1, 1079467, Poly_aftertouch_c, 0, 86, 0
1, 1079469, Note_on_c, 0, 52, 69
1, 1079593, Note_on_c, 0, 55, 80
1, 1079613, Note_on_c, 0, 52, 0
1, 1079703, Note_on_c, 0, 91, 0
1, 1079712, Note_on_c, 0, 60, 82
1, 1079737, Note_on_c, 0, 55, 0
1, 1079748, Note_on_c, 0, 79, 0
1, 1079792, Note_on_c, 0, 60, 0
1, 1079813, Note_on_c, 0, 64, 79
1, 1079915, Note_on_c, 0, 64, 0
1, 1079932, Note_on_c, 0, 55, 72
1, 1080009, Note_on_c, 0, 60, 70
1, 1080025, Note_on_c, 0, 88, 102
1, 1080052, Note_on_c, 0, 76, 74
1, 1080091, Note_on_c, 0, 76, 0
1, 1080135, Note_on_c, 0, 88, 0
1, 1080146, Note_on_c, 0, 64, 74
1, 1080154, Poly_aftertouch_c, 0, 81, 0
1, 1080179, Note_on_c, 0, 60, 0
1, 1080285, Note_on_c, 0, 64, 0
1, 1080301, Note_on_c, 0, 86, 94
1, 1080303, Note_on_c, 0, 65, 71
1, 1080333, Note_on_c, 0, 74, 69
1, 1080374, Poly_aftertouch_c, 0, 80, 0
1, 1080396, Poly_aftertouch_c, 0, 81, 127
1, 1080423, Poly_aftertouch_c, 0, 81, 0
1, 1080433, Note_on_c, 0, 64, 79
1, 1080438, Note_on_c, 0, 65, 0
1, 1080461, Note_on_c, 0, 86, 0
1, 1080490, Note_on_c, 0, 74, 0
1, 1080532, Note_on_c, 0, 62, 79
1, 1080555, Note_on_c, 0, 64, 0
1, 1080564, Control_c, 0, 64, 123
1, 1080565, Note_on_c, 0, 55, 0
1, 1080600, Note_on_c, 0, 62, 0
1, 1080641, Note_on_c, 0, 60, 77
1, 1080677, Control_c, 0, 64, 119
1, 1080684, Note_on_c, 0, 73, 12
1, 1080696, Note_on_c, 0, 73, 0
1, 1080749, Control_c, 0, 64, 111
1, 1080754, Note_on_c, 0, 59, 77
1, 1080758, Note_on_c, 0, 60, 0
1, 1080760, Note_on_c, 0, 79, 93
1, 1080766, Control_c, 0, 64, 106
1, 1080779, Note_on_c, 0, 67, 76
1, 1080804, Control_c, 0, 64, 101
1, 1080851, Note_on_c, 0, 67, 0
1, 1080869, Note_on_c, 0, 59, 0
1, 1080870, Note_on_c, 0, 55, 77
1, 1080873, Poly_aftertouch_c, 0, 74, 127
1, 1080887, Poly_aftertouch_c, 0, 74, 0
1, 1080988, Note_on_c, 0, 57, 80
1, 1081116, Note_on_c, 0, 59, 72
1, 1081174, Note_on_c, 0, 57, 0
1, 1081191, Control_c, 0, 64, 97
1, 1081253, Note_on_c, 0, 59, 0
1, 1081263, Note_on_c, 0, 60, 71
1, 1081266, Note_on_c, 0, 84, 86
1, 1081283, Control_c, 0, 64, 91
1, 1081291, Note_on_c, 0, 79, 0
1, 1081291, Note_on_c, 0, 72, 59
1, 1081334, Control_c, 0, 64, 85
1, 1081352, Control_c, 0, 64, 82
1, 1081370, Control_c, 0, 64, 80
1, 1081391, Note_on_c, 0, 59, 76
1, 1081395, Note_on_c, 0, 55, 0
1, 1081398, Note_on_c, 0, 60, 0
1, 1081492, Note_on_c, 0, 57, 81
1, 1081516, Note_on_c, 0, 59, 0
1, 1081569, Note_on_c, 0, 57, 0
1, 1081598, Note_on_c, 0, 55, 82
1, 1081709, Note_on_c, 0, 53, 80
1, 1081720, Control_c, 0, 64, 77
1, 1081725, Note_on_c, 0, 55, 0
1, 1081739, Control_c, 0, 64, 75
1, 1081777, Control_c, 0, 64, 72
1, 1081814, Control_c, 0, 64, 70
1, 1081818, Note_on_c, 0, 52, 85
1, 1081834, Note_on_c, 0, 53, 0
1, 1081868, Control_c, 0, 64, 68
1, 1081883, Note_on_c, 0, 52, 0
1, 1081917, Note_on_c, 0, 50, 81
1, 1081924, Note_on_c, 0, 72, 0
1, 1082019, Note_on_c, 0, 48, 77
1, 1082045, Poly_aftertouch_c, 0, 80, 127
1, 1082051, Note_on_c, 0, 50, 0
1, 1082105, Poly_aftertouch_c, 0, 80, 0
1, 1082144, Note_on_c, 0, 84, 0
1, 1082156, Note_on_c, 0, 43, 87
1, 1082161, Control_c, 0, 64, 67
1, 1082181, Control_c, 0, 64, 54
1, 1082189, Note_on_c, 0, 48, 0
1, 1082200, Control_c, 0, 64, 0
1, 1082322, Note_on_c, 0, 47, 77
1, 1082363, Control_c, 0, 64, 36
1, 1082381, Control_c, 0, 64, 61
1, 1082400, Control_c, 0, 64, 77
1, 1082418, Control_c, 0, 64, 89
1, 1082421, Note_on_c, 0, 43, 0
1, 1082434, Control_c, 0, 64, 99
1, 1082437, Note_on_c, 0, 50, 81
1, 1082454, Control_c, 0, 64, 105
1, 1082457, Poly_aftertouch_c, 0, 45, 127
1, 1082461, Note_on_c, 0, 47, 0
1, 1082473, Control_c, 0, 64, 109
1, 1082500, Poly_aftertouch_c, 0, 45, 0
1, 1082509, Control_c, 0, 64, 113
1, 1082522, Note_on_c, 0, 50, 0
1, 1082538, Note_on_c, 0, 55, 75
1, 1082648, Note_on_c, 0, 55, 0
1, 1082677, Note_on_c, 0, 89, 103
1, 1082687, Note_on_c, 0, 47, 71
1, 1082694, Note_on_c, 0, 77, 78
1, 1082719, Note_on_c, 0, 77, 0
1, 1082740, Note_on_c, 0, 89, 0
1, 1082791, Note_on_c, 0, 50, 68
1, 1082817, Note_on_c, 0, 47, 0
1, 1082841, Control_c, 0, 64, 117
1, 1082886, Note_on_c, 0, 55, 68
1, 1082894, Control_c, 0, 64, 121
1, 1082896, Note_on_c, 0, 50, 0
1, 1082949, Control_c, 0, 64, 126
1, 1082951, Note_on_c, 0, 55, 0
1, 1082986, Note_on_c, 0, 59, 61
1, 1083092, Note_on_c, 0, 59, 0
1, 1083124, Note_on_c, 0, 89, 106
1, 1083133, Note_on_c, 0, 50, 71
1, 1083145, Note_on_c, 0, 77, 81
1, 1083241, Poly_aftertouch_c, 0, 83, 0
1, 1083255, Note_on_c, 0, 55, 61
1, 1083262, Note_on_c, 0, 50, 0
1, 1083357, Note_on_c, 0, 55, 0
1, 1083365, Note_on_c, 0, 59, 70
1, 1083436, Note_on_c, 0, 59, 0
1, 1083461, Note_on_c, 0, 62, 68
1, 1083544, Poly_aftertouch_c, 0, 77, 24
1, 1083548, Note_on_c, 0, 89, 0
1, 1083565, Note_on_c, 0, 77, 0
1, 1083565, Poly_aftertouch_c, 0, 77, 0
1, 1083587, Note_on_c, 0, 62, 0
1, 1083606, Note_on_c, 0, 55, 62
1, 1083723, Note_on_c, 0, 55, 0
1, 1083729, Note_on_c, 0, 59, 56
1, 1083817, Note_on_c, 0, 59, 0
1, 1083820, Note_on_c, 0, 86, 88
1, 1083844, Note_on_c, 0, 62, 57
1, 1083850, Control_c, 0, 67, 9
1, 1083851, Note_on_c, 0, 74, 65
1, 1083869, Control_c, 0, 67, 14
1, 1083884, Control_c, 0, 67, 23
1, 1083904, Control_c, 0, 67, 35
1, 1083918, Note_on_c, 0, 67, 56
1, 1083920, Note_on_c, 0, 62, 0
1, 1083920, Note_on_c, 0, 74, 0
1, 1083923, Control_c, 0, 67, 47
1, 1083942, Control_c, 0, 67, 58
1, 1083960, Control_c, 0, 67, 72
1, 1083979, Control_c, 0, 67, 90
1, 1083998, Control_c, 0, 67, 108
1, 1083999, Note_on_c, 0, 67, 0
1, 1084016, Control_c, 0, 67, 121
1, 1084032, Control_c, 0, 67, 127
1, 1084159, Control_c, 0, 64, 121
1, 1084177, Control_c, 0, 64, 112
1, 1084195, Control_c, 0, 64, 100
1, 1084204, Note_on_c, 0, 55, 35
1, 1084215, Control_c, 0, 64, 83
1, 1084234, Control_c, 0, 64, 61
1, 1084236, Note_on_c, 0, 86, 0
1, 1084252, Control_c, 0, 64, 35
1, 1084268, Note_on_c, 0, 88, 58
1, 1084271, Control_c, 0, 64, 0
1, 1084297, Note_on_c, 0, 76, 37
1, 1084398, Control_c, 0, 64, 37
1, 1084413, Note_on_c, 0, 60, 37
1, 1084416, Control_c, 0, 64, 62
1, 1084436, Control_c, 0, 64, 78
1, 1084443, Note_on_c, 0, 88, 0
1, 1084455, Control_c, 0, 64, 88
1, 1084472, Control_c, 0, 64, 96
1, 1084476, Note_on_c, 0, 60, 0
1, 1084492, Control_c, 0, 64, 100
1, 1084493, Note_on_c, 0, 76, 0
1, 1084497, Note_on_c, 0, 55, 0
1, 1084528, Note_on_c, 0, 67, 36
1, 1084565, Control_c, 0, 64, 104
1, 1084599, Note_on_c, 0, 67, 0
1, 1084640, Control_c, 0, 64, 109
1, 1084654, Note_on_c, 0, 60, 30
1, 1084694, Control_c, 0, 64, 115
1, 1084719, Note_on_c, 0, 60, 0
1, 1084737, Note_on_c, 0, 55, 45
1, 1084758, Note_on_c, 0, 84, 62
1, 1084766, Control_c, 0, 64, 111
1, 1084786, Control_c, 0, 64, 98
1, 1084788, Note_on_c, 0, 72, 40
1, 1084805, Control_c, 0, 64, 81
1, 1084820, Control_c, 0, 64, 70
1, 1084860, Control_c, 0, 64, 74
1, 1084860, Note_on_c, 0, 64, 44
1, 1084878, Control_c, 0, 64, 83
1, 1084891, Note_on_c, 0, 55, 0
1, 1084895, Control_c, 0, 64, 95
1, 1084914, Control_c, 0, 64, 106
1, 1084918, Note_on_c, 0, 64, 0
1, 1084934, Control_c, 0, 64, 113
1, 1084954, Note_on_c, 0, 72, 0
1, 1084980, Note_on_c, 0, 67, 39
1, 1085008, Note_on_c, 0, 84, 0
1, 1085057, Control_c, 0, 64, 117
1, 1085062, Note_on_c, 0, 67, 0
1, 1085085, Note_on_c, 0, 64, 38
1, 1085113, Control_c, 0, 64, 121
1, 1085145, Note_on_c, 0, 64, 0
1, 1085170, Control_c, 0, 64, 126
1, 1085227, Note_on_c, 0, 83, 57
1, 1085236, Note_on_c, 0, 55, 43
1, 1085242, Control_c, 0, 64, 122
1, 1085261, Control_c, 0, 64, 103
1, 1085262, Note_on_c, 0, 71, 35
1, 1085279, Control_c, 0, 64, 78
1, 1085296, Control_c, 0, 64, 55
1, 1085316, Control_c, 0, 64, 50
1, 1085333, Note_on_c, 0, 55, 0
1, 1085333, Control_c, 0, 64, 52
1, 1085353, Control_c, 0, 64, 64
1, 1085360, Note_on_c, 0, 62, 44
1, 1085371, Control_c, 0, 64, 79
1, 1085384, Note_on_c, 0, 71, 0
1, 1085389, Control_c, 0, 64, 95
1, 1085405, Note_on_c, 0, 62, 0
1, 1085409, Control_c, 0, 64, 111
1, 1085427, Control_c, 0, 64, 121
1, 1085456, Note_on_c, 0, 67, 39
1, 1085538, Control_c, 0, 64, 125
1, 1085552, Note_on_c, 0, 67, 0
1, 1085562, Note_on_c, 0, 62, 35
1, 1085692, Note_on_c, 0, 55, 46
1, 1085697, Note_on_c, 0, 62, 0
1, 1085709, Note_on_c, 0, 86, 56
1, 1085742, Control_c, 0, 67, 118
1, 1085757, Note_on_c, 0, 74, 33
1, 1085757, Control_c, 0, 67, 106
1, 1085775, Control_c, 0, 67, 89
1, 1085790, Note_on_c, 0, 83, 0
1, 1085794, Control_c, 0, 67, 66
1, 1085804, Note_on_c, 0, 55, 0
1, 1085813, Control_c, 0, 67, 40
1, 1085819, Note_on_c, 0, 59, 44
1, 1085831, Control_c, 0, 67, 13
1, 1085850, Control_c, 0, 67, 0
1, 1085879, Note_on_c, 0, 59, 0
1, 1085923, Note_on_c, 0, 67, 46
1, 1085972, Note_on_c, 0, 67, 0
1, 1086027, Note_on_c, 0, 59, 56
1, 1086063, Note_on_c, 0, 59, 0
1, 1086240, Note_on_c, 0, 43, 96
1, 1086288, Note_on_c, 0, 74, 0
1, 1086351, Note_on_c, 0, 86, 0
1, 1086392, Note_on_c, 0, 47, 83
1, 1086415, Note_on_c, 0, 43, 0
1, 1086502, Note_on_c, 0, 47, 0
1, 1086507, Note_on_c, 0, 50, 77
1, 1086515, Poly_aftertouch_c, 0, 45, 0
1, 1086566, Note_on_c, 0, 50, 0
1, 1086575, Note_on_c, 0, 55, 79
1, 1086685, Note_on_c, 0, 55, 0
1, 1086714, Note_on_c, 0, 47, 75
1, 1086718, Note_on_c, 0, 89, 105
1, 1086733, Note_on_c, 0, 77, 80
1, 1086760, Note_on_c, 0, 77, 0
1, 1086773, Note_on_c, 0, 89, 0
1, 1086816, Note_on_c, 0, 50, 69
1, 1086824, Note_on_c, 0, 47, 0
1, 1086911, Note_on_c, 0, 55, 72
1, 1086935, Note_on_c, 0, 50, 0
1, 1086990, Note_on_c, 0, 55, 0
1, 1087023, Note_on_c, 0, 59, 65
1, 1087134, Note_on_c, 0, 59, 0
1, 1087189, Note_on_c, 0, 89, 108
1, 1087191, Note_on_c, 0, 50, 66
1, 1087204, Note_on_c, 0, 77, 83
1, 1087310, Note_on_c, 0, 55, 61
1, 1087323, Note_on_c, 0, 50, 0
1, 1087413, Note_on_c, 0, 59, 66
1, 1087420, Note_on_c, 0, 55, 0
1, 1087493, Note_on_c, 0, 59, 0
1, 1087518, Note_on_c, 0, 62, 65
1, 1087621, Note_on_c, 0, 89, 0
1, 1087627, Note_on_c, 0, 77, 0
1, 1087656, Note_on_c, 0, 62, 0
1, 1087668, Note_on_c, 0, 55, 60
1, 1087791, Note_on_c, 0, 55, 0
1, 1087809, Note_on_c, 0, 59, 51
1, 1087832, Control_c, 0, 67, 8
1, 1087889, Note_on_c, 0, 86, 88
1, 1087901, Control_c, 0, 67, 13
1, 1087904, Note_on_c, 0, 59, 0
1, 1087920, Note_on_c, 0, 74, 55
1, 1087934, Note_on_c, 0, 62, 48
1, 1087938, Control_c, 0, 67, 22
1, 1087947, Note_on_c, 0, 74, 0
1, 1087957, Control_c, 0, 67, 27
1, 1087986, Note_on_c, 0, 62, 0
1, 1087994, Control_c, 0, 67, 34
1, 1088014, Poly_aftertouch_c, 0, 81, 0
1, 1088014, Control_c, 0, 67, 40
1, 1088017, Note_on_c, 0, 67, 39
1, 1088033, Control_c, 0, 67, 48
1, 1088051, Control_c, 0, 67, 57
1, 1088069, Control_c, 0, 67, 68
1, 1088089, Control_c, 0, 67, 77
1, 1088101, Note_on_c, 0, 67, 0
1, 1088104, Control_c, 0, 67, 86
1, 1088124, Control_c, 0, 67, 95
1, 1088143, Control_c, 0, 67, 105
1, 1088161, Control_c, 0, 67, 115
1, 1088180, Control_c, 0, 67, 124
1, 1088273, Note_on_c, 0, 55, 42
1, 1088295, Note_on_c, 0, 86, 0
1, 1088307, Note_on_c, 0, 87, 60
1, 1088309, Control_c, 0, 64, 117
1, 1088326, Control_c, 0, 64, 77
1, 1088344, Control_c, 0, 64, 22
1, 1088345, Note_on_c, 0, 75, 39
1, 1088363, Control_c, 0, 64, 0
1, 1088412, Note_on_c, 0, 55, 0
1, 1088420, Control_c, 0, 64, 39
1, 1088438, Control_c, 0, 64, 64
1, 1088439, Note_on_c, 0, 60, 33
1, 1088457, Control_c, 0, 64, 85
1, 1088476, Control_c, 0, 64, 104
1, 1088492, Control_c, 0, 64, 116
1, 1088537, Note_on_c, 0, 87, 0
1, 1088550, Note_on_c, 0, 60, 0
1, 1088550, Note_on_c, 0, 75, 0
1, 1088556, Note_on_c, 0, 67, 29
1, 1088626, Note_on_c, 0, 67, 0
1, 1088658, Control_c, 0, 64, 120
1, 1088667, Note_on_c, 0, 60, 29
1, 1088769, Control_c, 0, 64, 125
1, 1088839, Note_on_c, 0, 55, 46
1, 1088855, Note_on_c, 0, 84, 62
1, 1088856, Control_c, 0, 64, 110
1, 1088857, Note_on_c, 0, 60, 0
1, 1088876, Control_c, 0, 64, 92
1, 1088886, Note_on_c, 0, 72, 39
1, 1088895, Control_c, 0, 64, 75
1, 1088914, Control_c, 0, 64, 69
1, 1088932, Control_c, 0, 64, 73
1, 1088951, Control_c, 0, 64, 82
1, 1088965, Note_on_c, 0, 55, 0
1, 1088967, Control_c, 0, 64, 98
1, 1088985, Control_c, 0, 64, 116
1, 1088988, Note_on_c, 0, 63, 46
1, 1089005, Control_c, 0, 64, 127
1, 1089038, Note_on_c, 0, 63, 0
1, 1089076, Note_on_c, 0, 72, 0
1, 1089093, Note_on_c, 0, 67, 39
1, 1089118, Note_on_c, 0, 84, 0
1, 1089183, Note_on_c, 0, 67, 0
1, 1089195, Note_on_c, 0, 63, 38
1, 1089246, Note_on_c, 0, 63, 0
1, 1089310, Note_on_c, 0, 55, 49
1, 1089318, Note_on_c, 0, 83, 62
1, 1089320, Control_c, 0, 64, 117
1, 1089338, Control_c, 0, 64, 94
1, 1089344, Note_on_c, 0, 71, 36
1, 1089355, Control_c, 0, 64, 71
1, 1089373, Control_c, 0, 64, 62
1, 1089393, Control_c, 0, 64, 65
1, 1089411, Control_c, 0, 64, 75
1, 1089424, Note_on_c, 0, 62, 48
1, 1089428, Control_c, 0, 64, 92
1, 1089447, Control_c, 0, 64, 115
1, 1089462, Note_on_c, 0, 71, 0
1, 1089465, Control_c, 0, 64, 127
1, 1089483, Note_on_c, 0, 62, 0
1, 1089548, Note_on_c, 0, 67, 38
1, 1089562, Note_on_c, 0, 55, 0
1, 1089621, Note_on_c, 0, 67, 0
1, 1089629, Note_on_c, 0, 62, 44
1, 1089780, Note_on_c, 0, 86, 68
1, 1089788, Note_on_c, 0, 55, 49
1, 1089811, Control_c, 0, 64, 101
1, 1089815, Note_on_c, 0, 74, 50
1, 1089821, Note_on_c, 0, 83, 0
1, 1089830, Control_c, 0, 64, 79
1, 1089849, Control_c, 0, 64, 71
1, 1089868, Control_c, 0, 64, 74
1, 1089869, Control_c, 0, 67, 115
1, 1089881, Note_on_c, 0, 55, 0
1, 1089885, Control_c, 0, 64, 83
1, 1089886, Control_c, 0, 67, 106
1, 1089887, Note_on_c, 0, 59, 49
1, 1089905, Control_c, 0, 64, 102
1, 1089907, Control_c, 0, 67, 97
1, 1089922, Control_c, 0, 64, 127
1, 1089923, Control_c, 0, 67, 87
1, 1089937, Poly_aftertouch_c, 0, 62, 20
1, 1089940, Control_c, 0, 67, 75
1, 1089959, Control_c, 0, 67, 61
1, 1089961, Note_on_c, 0, 59, 0
1, 1089976, Control_c, 0, 67, 46
1, 1089996, Control_c, 0, 67, 31
1, 1090013, Control_c, 0, 67, 16
1, 1090014, Note_on_c, 0, 67, 48
1, 1090015, Note_on_c, 0, 74, 0
1, 1090087, Note_on_c, 0, 67, 0
1, 1090117, Note_on_c, 0, 62, 0
1, 1090117, Poly_aftertouch_c, 0, 62, 0
1, 1090126, Note_on_c, 0, 59, 43
1, 1090193, Note_on_c, 0, 59, 0
1, 1090232, Note_on_c, 0, 55, 51
1, 1090250, Note_on_c, 0, 88, 79
1, 1090252, Control_c, 0, 64, 117
1, 1090271, Note_on_c, 0, 86, 0
1, 1090272, Control_c, 0, 64, 91
1, 1090282, Note_on_c, 0, 76, 51
1, 1090290, Control_c, 0, 64, 71
1, 1090309, Control_c, 0, 64, 68
1, 1090328, Control_c, 0, 64, 73
1, 1090349, Control_c, 0, 64, 86
1, 1090363, Control_c, 0, 64, 108
1, 1090376, Note_on_c, 0, 55, 0
1, 1090381, Control_c, 0, 64, 127
1, 1090387, Note_on_c, 0, 60, 55
1, 1090400, Note_on_c, 0, 76, 0
1, 1090418, Note_on_c, 0, 88, 0
1, 1090467, Note_on_c, 0, 60, 0
1, 1090502, Note_on_c, 0, 67, 54
1, 1090614, Note_on_c, 0, 67, 0
1, 1090628, Note_on_c, 0, 60, 53
1, 1090704, Note_on_c, 0, 60, 0
1, 1090732, Note_on_c, 0, 55, 58
1, 1090737, Note_on_c, 0, 84, 82
1, 1090745, Control_c, 0, 64, 99
1, 1090766, Control_c, 0, 64, 71
1, 1090772, Note_on_c, 0, 72, 59
1, 1090785, Control_c, 0, 64, 57
1, 1090823, Control_c, 0, 64, 68
1, 1090839, Control_c, 0, 64, 84
1, 1090856, Note_on_c, 0, 64, 60
1, 1090857, Control_c, 0, 64, 106
1, 1090876, Control_c, 0, 64, 127
1, 1090884, Note_on_c, 0, 55, 0
1, 1090945, Note_on_c, 0, 64, 0
1, 1090960, Note_on_c, 0, 72, 0
1, 1090967, Note_on_c, 0, 67, 62
1, 1090971, Note_on_c, 0, 84, 0
1, 1091069, Note_on_c, 0, 67, 0
1, 1091087, Note_on_c, 0, 64, 59
1, 1091144, Note_on_c, 0, 64, 0
1, 1091181, Note_on_c, 0, 83, 89
1, 1091188, Control_c, 0, 64, 123
1, 1091193, Note_on_c, 0, 55, 60
1, 1091208, Control_c, 0, 64, 99
1, 1091215, Note_on_c, 0, 71, 61
1, 1091226, Control_c, 0, 64, 78
1, 1091244, Control_c, 0, 64, 71
1, 1091264, Control_c, 0, 64, 75
1, 1091283, Control_c, 0, 64, 86
1, 1091284, Note_on_c, 0, 71, 0
1, 1091301, Poly_aftertouch_c, 0, 79, 0
1, 1091301, Control_c, 0, 64, 107
1, 1091301, Control_c, 0, 67, 8
1, 1091316, Note_on_c, 0, 62, 48
1, 1091318, Control_c, 0, 64, 127
1, 1091337, Poly_aftertouch_c, 0, 78, 0
1, 1091356, Control_c, 0, 67, 12
1, 1091363, Note_on_c, 0, 62, 0
1, 1091391, Note_on_c, 0, 55, 0
1, 1091391, Control_c, 0, 67, 18
1, 1091401, Note_on_c, 0, 67, 51
1, 1091409, Control_c, 0, 67, 23
1, 1091429, Control_c, 0, 67, 28
1, 1091447, Control_c, 0, 67, 32
1, 1091466, Control_c, 0, 67, 37
1, 1091485, Control_c, 0, 67, 42
1, 1091502, Control_c, 0, 67, 49
1, 1091507, Note_on_c, 0, 62, 43
1, 1091510, Note_on_c, 0, 67, 0
1, 1091520, Control_c, 0, 67, 57
1, 1091539, Control_c, 0, 67, 66
1, 1091557, Control_c, 0, 67, 75
1, 1091577, Control_c, 0, 67, 84
1, 1091594, Control_c, 0, 67, 92
1, 1091627, Control_c, 0, 67, 99
1, 1091646, Control_c, 0, 67, 104
1, 1091660, Note_on_c, 0, 55, 54
1, 1091664, Control_c, 0, 67, 109
1, 1091675, Note_on_c, 0, 86, 84
1, 1091683, Control_c, 0, 67, 115
1, 1091696, Note_on_c, 0, 62, 0
1, 1091702, Control_c, 0, 64, 99
1, 1091703, Control_c, 0, 67, 122
1, 1091705, Note_on_c, 0, 83, 0
1, 1091709, Note_on_c, 0, 74, 52
1, 1091721, Control_c, 0, 64, 73
1, 1091723, Control_c, 0, 67, 127
1, 1091740, Control_c, 0, 64, 59
1, 1091768, Note_on_c, 0, 55, 0
1, 1091768, Note_on_c, 0, 59, 41
1, 1091775, Control_c, 0, 64, 67
1, 1091794, Control_c, 0, 64, 81
1, 1091812, Control_c, 0, 64, 101
1, 1091831, Control_c, 0, 64, 122
1, 1091840, Note_on_c, 0, 59, 0
1, 1091846, Control_c, 0, 64, 127
1, 1091877, Note_on_c, 0, 74, 0
1, 1091906, Note_on_c, 0, 67, 41
1, 1092006, Note_on_c, 0, 67, 0
1, 1092010, Note_on_c, 0, 59, 36
1, 1092085, Note_on_c, 0, 59, 0
1, 1092245, Note_on_c, 0, 55, 31
1, 1092296, Note_on_c, 0, 87, 64
1, 1092307, Note_on_c, 0, 75, 47
1, 1092313, Note_on_c, 0, 86, 0
1, 1092326, Control_c, 0, 64, 106
1, 1092345, Control_c, 0, 64, 77
1, 1092365, Control_c, 0, 64, 55
1, 1092382, Control_c, 0, 64, 51
1, 1092401, Control_c, 0, 64, 53
1, 1092420, Control_c, 0, 64, 66
1, 1092439, Control_c, 0, 64, 83
1, 1092451, Note_on_c, 0, 55, 0
1, 1092455, Control_c, 0, 64, 104
1, 1092475, Control_c, 0, 64, 127
1, 1092480, Note_on_c, 0, 60, 39
1, 1092495, Note_on_c, 0, 87, 0
1, 1092554, Note_on_c, 0, 60, 0
1, 1092555, Note_on_c, 0, 75, 0
1, 1092612, Note_on_c, 0, 67, 41
1, 1092680, Note_on_c, 0, 67, 0
1, 1092723, Note_on_c, 0, 60, 41
1, 1092776, Note_on_c, 0, 60, 0
1, 1092865, Note_on_c, 0, 55, 43
1, 1092907, Note_on_c, 0, 84, 56
1, 1092932, Note_on_c, 0, 72, 41
1, 1092994, Note_on_c, 0, 72, 0
1, 1093015, Note_on_c, 0, 55, 0
1, 1093042, Note_on_c, 0, 60, 44
1, 1093057, Note_on_c, 0, 84, 0
1, 1093106, Note_on_c, 0, 60, 0
1, 1093163, Note_on_c, 0, 63, 47
1, 1093239, Note_on_c, 0, 63, 0
1, 1093273, Note_on_c, 0, 60, 36
1, 1093366, Note_on_c, 0, 60, 0
1, 1093384, Note_on_c, 0, 55, 51
1, 1093390, Control_c, 0, 64, 112
1, 1093401, Note_on_c, 0, 79, 57
1, 1093409, Control_c, 0, 64, 90
1, 1093429, Control_c, 0, 64, 72
1, 1093448, Control_c, 0, 64, 68
1, 1093465, Control_c, 0, 64, 70
1, 1093487, Note_on_c, 0, 55, 0
1, 1093498, Control_c, 0, 64, 77
1, 1093518, Control_c, 0, 64, 88
1, 1093537, Note_on_c, 0, 59, 45
1, 1093537, Control_c, 0, 64, 103
1, 1093554, Control_c, 0, 64, 115
1, 1093564, Note_on_c, 0, 79, 0
1, 1093571, Control_c, 0, 64, 121
1, 1093587, Note_on_c, 0, 59, 0
1, 1093610, Control_c, 0, 64, 125
1, 1093639, Note_on_c, 0, 62, 48
1, 1093721, Note_on_c, 0, 62, 0
1, 1093733, Note_on_c, 0, 59, 44
1, 1093858, Note_on_c, 0, 55, 55
1, 1093860, Note_on_c, 0, 59, 0
1, 1093886, Control_c, 0, 64, 100
1, 1093888, Note_on_c, 0, 79, 65
1, 1093904, Control_c, 0, 64, 75
1, 1093919, Note_on_c, 0, 55, 0
1, 1093921, Control_c, 0, 64, 65
1, 1093958, Control_c, 0, 64, 71
1, 1093962, Note_on_c, 0, 60, 59
1, 1093977, Control_c, 0, 64, 82
1, 1093996, Control_c, 0, 64, 99
1, 1094015, Control_c, 0, 64, 115
1, 1094033, Control_c, 0, 64, 126
1, 1094041, Note_on_c, 0, 60, 0
1, 1094085, Note_on_c, 0, 64, 50
1, 1094096, Note_on_c, 0, 79, 0
1, 1094162, Note_on_c, 0, 64, 0
1, 1094231, Note_on_c, 0, 60, 30
1, 1094276, Note_on_c, 0, 60, 0
1, 1094326, Note_on_c, 0, 55, 71
1, 1094327, Control_c, 0, 64, 103
1, 1094346, Note_on_c, 0, 81, 73
1, 1094346, Control_c, 0, 64, 79
1, 1094365, Control_c, 0, 64, 68
1, 1094385, Note_on_c, 0, 81, 0
1, 1094401, Control_c, 0, 64, 74
1, 1094428, Note_on_c, 0, 79, 51
1, 1094432, Control_c, 0, 64, 80
1, 1094443, Note_on_c, 0, 55, 0
1, 1094446, Note_on_c, 0, 59, 52
1, 1094451, Control_c, 0, 64, 84
1, 1094480, Note_on_c, 0, 79, 0
1, 1094486, Note_on_c, 0, 81, 74
1, 1094489, Control_c, 0, 64, 81
1, 1094511, Note_on_c, 0, 59, 0
1, 1094535, Note_on_c, 0, 81, 0
1, 1094546, Note_on_c, 0, 62, 50
1, 1094573, Note_on_c, 0, 79, 61
1, 1094601, Control_c, 0, 64, 79
1, 1094609, Note_on_c, 0, 79, 0
1, 1094617, Note_on_c, 0, 81, 70
1, 1094618, Note_on_c, 0, 62, 0
1, 1094659, Note_on_c, 0, 59, 49
1, 1094661, Note_on_c, 0, 81, 0
1, 1094689, Note_on_c, 0, 79, 70
1, 1094691, Control_c, 0, 64, 76
1, 1094710, Control_c, 0, 64, 74
1, 1094722, Note_on_c, 0, 59, 0
1, 1094727, Control_c, 0, 64, 70
1, 1094745, Note_on_c, 0, 79, 0
1, 1094748, Control_c, 0, 64, 67
1, 1094753, Note_on_c, 0, 81, 68
1, 1094765, Control_c, 0, 64, 66
1, 1094770, Note_on_c, 0, 55, 76
1, 1094787, Note_on_c, 0, 81, 0
1, 1094813, Note_on_c, 0, 79, 61
1, 1094821, Control_c, 0, 64, 65
1, 1094859, Note_on_c, 0, 55, 0
1, 1094864, Note_on_c, 0, 81, 75
1, 1094868, Note_on_c, 0, 79, 0
1, 1094877, Note_on_c, 0, 60, 75
1, 1094877, Control_c, 0, 64, 64
1, 1094905, Note_on_c, 0, 81, 0
1, 1094956, Note_on_c, 0, 60, 0
1, 1094956, Note_on_c, 0, 79, 62
1, 1094986, Control_c, 0, 64, 63
1, 1094991, Note_on_c, 0, 64, 66
1, 1094994, Note_on_c, 0, 79, 0
1, 1094995, Note_on_c, 0, 81, 75
1, 1095033, Note_on_c, 0, 81, 0
1, 1095080, Note_on_c, 0, 79, 71
1, 1095102, Note_on_c, 0, 60, 68
1, 1095104, Note_on_c, 0, 64, 0
1, 1095124, Note_on_c, 0, 81, 73
1, 1095126, Note_on_c, 0, 79, 0
1, 1095160, Note_on_c, 0, 81, 0
1, 1095171, Control_c, 0, 64, 62
1, 1095200, Note_on_c, 0, 79, 65
1, 1095211, Note_on_c, 0, 60, 0
1, 1095221, Note_on_c, 0, 55, 84
1, 1095227, Control_c, 0, 64, 61
1, 1095248, Note_on_c, 0, 81, 76
1, 1095249, Note_on_c, 0, 79, 0
1, 1095281, Control_c, 0, 64, 60
1, 1095286, Note_on_c, 0, 81, 0
1, 1095323, Note_on_c, 0, 55, 0
1, 1095331, Note_on_c, 0, 59, 70
1, 1095336, Note_on_c, 0, 79, 64
1, 1095370, Control_c, 0, 67, 121
1, 1095388, Control_c, 0, 67, 111
1, 1095390, Note_on_c, 0, 79, 0
1, 1095394, Note_on_c, 0, 81, 75
1, 1095408, Control_c, 0, 67, 97
1, 1095416, Note_on_c, 0, 59, 0
1, 1095424, Control_c, 0, 67, 81
1, 1095429, Note_on_c, 0, 81, 0
1, 1095442, Control_c, 0, 67, 62
1, 1095447, Note_on_c, 0, 62, 67
1, 1095463, Control_c, 0, 67, 42
1, 1095475, Note_on_c, 0, 79, 65
1, 1095482, Control_c, 0, 67, 23
1, 1095522, Note_on_c, 0, 79, 0
1, 1095525, Note_on_c, 0, 81, 72
1, 1095555, Note_on_c, 0, 62, 0
1, 1095555, Control_c, 0, 67, 0
1, 1095562, Note_on_c, 0, 59, 66
1, 1095563, Note_on_c, 0, 81, 0
1, 1095598, Note_on_c, 0, 79, 61
1, 1095650, Note_on_c, 0, 79, 0
1, 1095656, Note_on_c, 0, 81, 73
1, 1095671, Note_on_c, 0, 59, 0
1, 1095681, Note_on_c, 0, 55, 79
1, 1095685, Note_on_c, 0, 81, 0
1, 1095730, Note_on_c, 0, 79, 59
1, 1095769, Note_on_c, 0, 55, 0
1, 1095775, Note_on_c, 0, 79, 0
1, 1095776, Note_on_c, 0, 81, 75
1, 1095794, Note_on_c, 0, 57, 72
1, 1095815, Note_on_c, 0, 81, 0
1, 1095854, Note_on_c, 0, 79, 63
1, 1095864, Note_on_c, 0, 57, 0
1, 1095908, Note_on_c, 0, 79, 0
1, 1095909, Note_on_c, 0, 81, 72
1, 1095917, Note_on_c, 0, 60, 61
1, 1095951, Note_on_c, 0, 81, 0
1, 1095984, Note_on_c, 0, 79, 61
1, 1096009, Note_on_c, 0, 60, 0
1, 1096017, Note_on_c, 0, 57, 60
1, 1096033, Control_c, 0, 64, 58
1, 1096036, Note_on_c, 0, 79, 0
1, 1096036, Note_on_c, 0, 81, 70
1, 1096077, Note_on_c, 0, 81, 0
1, 1096082, Note_on_c, 0, 57, 0
1, 1096112, Note_on_c, 0, 79, 63
1, 1096117, Note_on_c, 0, 55, 87
1, 1096159, Note_on_c, 0, 81, 72
1, 1096161, Note_on_c, 0, 79, 0
1, 1096177, Note_on_c, 0, 55, 0
1, 1096210, Note_on_c, 0, 81, 0
1, 1096242, Note_on_c, 0, 79, 65
1, 1096242, Note_on_c, 0, 59, 72
1, 1096304, Note_on_c, 0, 59, 0
1, 1096306, Note_on_c, 0, 79, 0
1, 1096309, Note_on_c, 0, 81, 65
1, 1096345, Note_on_c, 0, 81, 0
1, 1096371, Note_on_c, 0, 57, 75
1, 1096395, Note_on_c, 0, 79, 64
1, 1096438, Note_on_c, 0, 57, 0
1, 1096439, Note_on_c, 0, 81, 75
1, 1096440, Note_on_c, 0, 79, 0
1, 1096483, Note_on_c, 0, 55, 79
1, 1096485, Note_on_c, 0, 81, 0
1, 1096530, Note_on_c, 0, 79, 64
1, 1096534, Note_on_c, 0, 55, 0
1, 1096567, Note_on_c, 0, 79, 0
1, 1096571, Note_on_c, 0, 81, 76
1, 1096590, Note_on_c, 0, 53, 97
1, 1096600, Control_c, 0, 64, 56
1, 1096616, Note_on_c, 0, 81, 0
1, 1096652, Note_on_c, 0, 53, 0
1, 1096659, Note_on_c, 0, 79, 72
1, 1096675, Control_c, 0, 64, 54
1, 1096708, Note_on_c, 0, 79, 0
1, 1096710, Note_on_c, 0, 57, 82
1, 1096711, Note_on_c, 0, 81, 75
1, 1096742, Note_on_c, 0, 81, 0
1, 1096776, Note_on_c, 0, 57, 0
1, 1096792, Note_on_c, 0, 79, 63
1, 1096827, Note_on_c, 0, 55, 78
1, 1096835, Note_on_c, 0, 81, 79
1, 1096837, Note_on_c, 0, 79, 0
1, 1096886, Note_on_c, 0, 81, 0
1, 1096901, Note_on_c, 0, 55, 0
1, 1096916, Note_on_c, 0, 79, 66
1, 1096938, Note_on_c, 0, 53, 81
1, 1096965, Note_on_c, 0, 81, 75
1, 1096971, Note_on_c, 0, 79, 0
1, 1096999, Note_on_c, 0, 53, 0
1, 1097009, Note_on_c, 0, 81, 0
1, 1097050, Note_on_c, 0, 79, 72
1, 1097051, Note_on_c, 0, 52, 98
1, 1097095, Note_on_c, 0, 81, 77
1, 1097098, Note_on_c, 0, 79, 0
1, 1097114, Note_on_c, 0, 52, 0
1, 1097135, Note_on_c, 0, 81, 0
1, 1097165, Note_on_c, 0, 55, 85
1, 1097178, Note_on_c, 0, 79, 73
1, 1097239, Note_on_c, 0, 79, 0
1, 1097241, Note_on_c, 0, 55, 0
1, 1097241, Note_on_c, 0, 81, 76
1, 1097281, Note_on_c, 0, 81, 0
1, 1097296, Note_on_c, 0, 53, 81
1, 1097326, Note_on_c, 0, 79, 75
1, 1097368, Note_on_c, 0, 53, 0
1, 1097375, Note_on_c, 0, 81, 79
1, 1097376, Note_on_c, 0, 79, 0
1, 1097416, Note_on_c, 0, 81, 0
1, 1097416, Note_on_c, 0, 52, 80
1, 1097456, Note_on_c, 0, 79, 69
1, 1097483, Note_on_c, 0, 52, 0
1, 1097499, Note_on_c, 0, 81, 79
1, 1097502, Note_on_c, 0, 79, 0
1, 1097523, Note_on_c, 0, 50, 96
1, 1097547, Note_on_c, 0, 81, 0
1, 1097577, Note_on_c, 0, 79, 70
1, 1097586, Note_on_c, 0, 50, 0
1, 1097624, Note_on_c, 0, 81, 80
1, 1097626, Note_on_c, 0, 79, 0
1, 1097633, Note_on_c, 0, 53, 80
1, 1097663, Note_on_c, 0, 81, 0
1, 1097713, Note_on_c, 0, 79, 65
1, 1097747, Note_on_c, 0, 53, 0
1, 1097750, Note_on_c, 0, 79, 0
1, 1097752, Note_on_c, 0, 52, 77
1, 1097752, Note_on_c, 0, 81, 80
1, 1097784, Note_on_c, 0, 81, 0
1, 1097822, Note_on_c, 0, 79, 80
1, 1097828, Note_on_c, 0, 50, 80
1, 1097834, Note_on_c, 0, 52, 0
1, 1097883, Note_on_c, 0, 50, 0
1, 1097886, Control_c, 0, 64, 50
1, 1097905, Control_c, 0, 64, 15
1, 1097908, Poly_aftertouch_c, 0, 47, 0
1, 1097922, Control_c, 0, 64, 0
1, 1097940, Note_on_c, 0, 79, 0
1, 1097940, Note_on_c, 0, 79, 40
1, 1097986, Note_on_c, 0, 48, 99
1, 1097996, Note_on_c, 0, 81, 71
1, 1097997, Note_on_c, 0, 36, 91
1, 1098011, Note_on_c, 0, 79, 0
1, 1098034, Control_c, 0, 64, 44
1, 1098035, Note_on_c, 0, 36, 0
1, 1098053, Control_c, 0, 64, 108
1, 1098070, Control_c, 0, 64, 127
1, 1098079, Note_on_c, 0, 79, 65
1, 1098081, Note_on_c, 0, 81, 0
1, 1098139, Note_on_c, 0, 79, 0
1, 1098178, Note_on_c, 0, 81, 67
1, 1098202, Note_on_c, 0, 50, 72
1, 1098205, Note_on_c, 0, 48, 0
1, 1098227, Note_on_c, 0, 81, 0
1, 1098246, Note_on_c, 0, 79, 65
1, 1098270, Note_on_c, 0, 52, 77
1, 1098281, Note_on_c, 0, 50, 0
1, 1098282, Note_on_c, 0, 79, 0
1, 1098315, Note_on_c, 0, 81, 74
1, 1098329, Note_on_c, 0, 52, 0
1, 1098337, Note_on_c, 0, 53, 59
1, 1098356, Note_on_c, 0, 81, 0
1, 1098375, Note_on_c, 0, 79, 55
1, 1098378, Note_on_c, 0, 53, 0
1, 1098383, Note_on_c, 0, 55, 72
1, 1098413, Note_on_c, 0, 79, 0
1, 1098421, Note_on_c, 0, 55, 0
1, 1098434, Note_on_c, 0, 81, 71
1, 1098457, Note_on_c, 0, 57, 78
1, 1098471, Note_on_c, 0, 81, 0
1, 1098482, Note_on_c, 0, 79, 89
1, 1098491, Note_on_c, 0, 59, 81
1, 1098495, Note_on_c, 0, 57, 0
1, 1098520, Note_on_c, 0, 79, 0
1, 1098529, Note_on_c, 0, 60, 92
1, 1098529, Note_on_c, 0, 91, 106
1, 1098540, Note_on_c, 0, 59, 0
1, 1098583, Note_on_c, 0, 91, 0
1, 1098618, Note_on_c, 0, 79, 42
1, 1098647, Note_on_c, 0, 79, 0
1, 1098669, Note_on_c, 0, 60, 0
1, 1098672, Note_on_c, 0, 62, 80
1, 1098683, Note_on_c, 0, 81, 75
1, 1098718, Note_on_c, 0, 81, 0
1, 1098736, Note_on_c, 0, 64, 80
1, 1098751, Note_on_c, 0, 62, 0
1, 1098763, Note_on_c, 0, 79, 51
1, 1098797, Note_on_c, 0, 65, 80
1, 1098798, Note_on_c, 0, 64, 0
1, 1098799, Note_on_c, 0, 79, 0
1, 1098812, Note_on_c, 0, 81, 81
1, 1098833, Note_on_c, 0, 65, 0
1, 1098846, Note_on_c, 0, 67, 70
1, 1098855, Note_on_c, 0, 81, 0
1, 1098875, Control_c, 0, 64, 123
1, 1098875, Note_on_c, 0, 79, 73
1, 1098909, Note_on_c, 0, 67, 0
1, 1098924, Note_on_c, 0, 69, 80
1, 1098940, Note_on_c, 0, 81, 83
1, 1098945, Note_on_c, 0, 79, 0
1, 1098949, Control_c, 0, 64, 117
1, 1098968, Note_on_c, 0, 81, 0
1, 1098970, Note_on_c, 0, 69, 0
1, 1098976, Note_on_c, 0, 71, 83
1, 1098988, Control_c, 0, 64, 110
1, 1099009, Note_on_c, 0, 72, 100
1, 1099013, Note_on_c, 0, 91, 110
1, 1099024, Control_c, 0, 64, 104
1, 1099039, Note_on_c, 0, 79, 55
1, 1099040, Note_on_c, 0, 71, 0
1, 1099062, Control_c, 0, 64, 98
1, 1099067, Note_on_c, 0, 79, 0
1, 1099101, Note_on_c, 0, 72, 0
1, 1099147, Note_on_c, 0, 91, 0
1, 1099154, Note_on_c, 0, 71, 89
1, 1099159, Note_on_c, 0, 81, 69
1, 1099205, Note_on_c, 0, 71, 0
1, 1099217, Note_on_c, 0, 81, 0
1, 1099255, Note_on_c, 0, 79, 66
1, 1099263, Note_on_c, 0, 69, 93
1, 1099279, Control_c, 0, 64, 94
1, 1099304, Note_on_c, 0, 79, 0
1, 1099313, Note_on_c, 0, 69, 0
1, 1099317, Control_c, 0, 64, 89
1, 1099320, Note_on_c, 0, 81, 73
1, 1099332, Control_c, 0, 64, 87
1, 1099375, Note_on_c, 0, 67, 77
1, 1099376, Note_on_c, 0, 69, 75
1, 1099380, Note_on_c, 0, 81, 0
1, 1099403, Note_on_c, 0, 79, 62
1, 1099409, Note_on_c, 0, 69, 0
1, 1099417, Note_on_c, 0, 67, 0
1, 1099426, Control_c, 0, 64, 85
1, 1099456, Note_on_c, 0, 79, 0
1, 1099483, Note_on_c, 0, 81, 75
1, 1099488, Note_on_c, 0, 65, 73
1, 1099533, Note_on_c, 0, 81, 0
1, 1099550, Note_on_c, 0, 65, 0
1, 1099570, Note_on_c, 0, 79, 57
1, 1099588, Note_on_c, 0, 64, 88
1, 1099636, Note_on_c, 0, 79, 0
1, 1099643, Note_on_c, 0, 81, 80
1, 1099647, Note_on_c, 0, 64, 0
1, 1099695, Note_on_c, 0, 62, 93
1, 1099710, Note_on_c, 0, 81, 0
1, 1099712, Note_on_c, 0, 88, 104
1, 1099738, Note_on_c, 0, 79, 80
1, 1099763, Note_on_c, 0, 62, 0
1, 1099806, Note_on_c, 0, 79, 0
1, 1099809, Note_on_c, 0, 60, 83
1, 1099831, Control_c, 0, 64, 83
1, 1099839, Note_on_c, 0, 81, 75
1, 1099847, Note_on_c, 0, 88, 0
1, 1099862, Note_on_c, 0, 60, 0
1, 1099866, Control_c, 0, 64, 81
1, 1099869, Note_on_c, 0, 81, 0
1, 1099905, Control_c, 0, 64, 78
1, 1099913, Poly_aftertouch_c, 0, 62, 0
1, 1099920, Note_on_c, 0, 59, 93
1, 1099927, Note_on_c, 0, 86, 101
1, 1099942, Control_c, 0, 64, 75
1, 1099943, Note_on_c, 0, 79, 88
1, 1099967, Note_on_c, 0, 59, 0
1, 1099980, Note_on_c, 0, 79, 0
1, 1100040, Note_on_c, 0, 60, 86
1, 1100064, Note_on_c, 0, 81, 75
1, 1100098, Note_on_c, 0, 60, 0
1, 1100120, Note_on_c, 0, 81, 0
1, 1100143, Note_on_c, 0, 79, 67
1, 1100166, Note_on_c, 0, 59, 81
1, 1100188, Note_on_c, 0, 79, 0
1, 1100217, Note_on_c, 0, 81, 65
1, 1100230, Note_on_c, 0, 59, 0
1, 1100267, Control_c, 0, 64, 73
1, 1100274, Note_on_c, 0, 57, 87
1, 1100313, Note_on_c, 0, 81, 0
1, 1100327, Note_on_c, 0, 79, 53
1, 1100329, Note_on_c, 0, 57, 0
1, 1100343, Control_c, 0, 64, 71
1, 1100381, Control_c, 0, 64, 68
1, 1100386, Note_on_c, 0, 55, 98
1, 1100398, Control_c, 0, 64, 67
1, 1100404, Note_on_c, 0, 81, 73
1, 1100449, Note_on_c, 0, 55, 0
1, 1100456, Note_on_c, 0, 86, 0
1, 1100477, Note_on_c, 0, 81, 0
1, 1100485, Note_on_c, 0, 79, 0
1, 1100485, Note_on_c, 0, 79, 55
1, 1100509, Note_on_c, 0, 53, 83
1, 1100555, Note_on_c, 0, 79, 0
1, 1100559, Note_on_c, 0, 81, 72
1, 1100573, Note_on_c, 0, 53, 0
1, 1100620, Note_on_c, 0, 52, 84
1, 1100642, Note_on_c, 0, 81, 0
1, 1100647, Note_on_c, 0, 79, 64
1, 1100678, Note_on_c, 0, 52, 0
1, 1100738, Note_on_c, 0, 50, 85
1, 1100746, Control_c, 0, 64, 66
1, 1100773, Note_on_c, 0, 79, 0
1, 1100799, Note_on_c, 0, 50, 0
1, 1100803, Control_c, 0, 64, 64
1, 1100822, Control_c, 0, 64, 63
1, 1100824, Note_on_c, 0, 84, 98
1, 1100826, Note_on_c, 0, 81, 82
1, 1100845, Note_on_c, 0, 48, 93
1, 1100859, Control_c, 0, 64, 62
1, 1100896, Control_c, 0, 64, 61
1, 1100900, Note_on_c, 0, 48, 0
1, 1100906, Note_on_c, 0, 81, 0
1, 1100908, Note_on_c, 0, 79, 69
1, 1100915, Control_c, 0, 64, 60
1, 1100951, Control_c, 0, 64, 58
1, 1100978, Note_on_c, 0, 48, 81
1, 1100990, Note_on_c, 0, 79, 0
1, 1101008, Note_on_c, 0, 81, 66
1, 1101021, Control_c, 0, 64, 55
1, 1101024, Note_on_c, 0, 48, 0
1, 1101059, Control_c, 0, 64, 51
1, 1101076, Control_c, 0, 64, 49
1, 1101082, Note_on_c, 0, 47, 84
1, 1101083, Note_on_c, 0, 81, 0
1, 1101086, Note_on_c, 0, 79, 66
1, 1101095, Control_c, 0, 64, 47
1, 1101113, Control_c, 0, 64, 44
1, 1101130, Control_c, 0, 64, 37
1, 1101145, Note_on_c, 0, 47, 0
1, 1101147, Control_c, 0, 64, 22
1, 1101165, Note_on_c, 0, 79, 0
1, 1101168, Control_c, 0, 64, 0
1, 1101171, Note_on_c, 0, 81, 68
1, 1101195, Note_on_c, 0, 45, 87
1, 1101241, Note_on_c, 0, 81, 0
1, 1101246, Note_on_c, 0, 45, 0
1, 1101247, Note_on_c, 0, 84, 0
1, 1101269, Note_on_c, 0, 79, 46
1, 1101301, Note_on_c, 0, 43, 91
1, 1101302, Note_on_c, 0, 88, 102
1, 1101309, Note_on_c, 0, 81, 81
1, 1101328, Note_on_c, 0, 79, 0
1, 1101359, Note_on_c, 0, 43, 0
1, 1101395, Note_on_c, 0, 79, 68
1, 1101396, Note_on_c, 0, 81, 0
1, 1101415, Note_on_c, 0, 41, 82
1, 1101465, Note_on_c, 0, 79, 0
1, 1101469, Note_on_c, 0, 41, 0
1, 1101484, Note_on_c, 0, 81, 66
1, 1101534, Note_on_c, 0, 40, 74
1, 1101544, Note_on_c, 0, 81, 0
1, 1101557, Note_on_c, 0, 79, 68
1, 1101591, Note_on_c, 0, 40, 0
1, 1101624, Note_on_c, 0, 38, 74
1, 1101639, Note_on_c, 0, 79, 0
1, 1101654, Note_on_c, 0, 81, 71
1, 1101698, Note_on_c, 0, 38, 0
1, 1101707, Note_on_c, 0, 81, 0
1, 1101719, Note_on_c, 0, 79, 73
1, 1101744, Note_on_c, 0, 36, 79
1, 1101748, Note_on_c, 0, 48, 97
1, 1101787, Note_on_c, 0, 36, 0
1, 1101793, Note_on_c, 0, 79, 0
1, 1101794, Note_on_c, 0, 81, 66
1, 1101814, Control_c, 0, 64, 64
1, 1101820, Note_on_c, 0, 88, 0
1, 1101830, Control_c, 0, 64, 127
1, 1101860, Note_on_c, 0, 81, 0
1, 1101876, Note_on_c, 0, 79, 64
1, 1101936, Note_on_c, 0, 48, 0
1, 1101939, Note_on_c, 0, 79, 0
1, 1101961, Note_on_c, 0, 50, 62
1, 1101978, Note_on_c, 0, 81, 60
1, 1102016, Note_on_c, 0, 81, 0
1, 1102027, Note_on_c, 0, 50, 0
1, 1102030, Note_on_c, 0, 52, 69
1, 1102040, Note_on_c, 0, 79, 62
1, 1102072, Note_on_c, 0, 52, 0
1, 1102079, Note_on_c, 0, 53, 69
1, 1102080, Note_on_c, 0, 79, 0
1, 1102104, Note_on_c, 0, 81, 71
1, 1102116, Note_on_c, 0, 53, 0
1, 1102136, Note_on_c, 0, 55, 68
1, 1102139, Note_on_c, 0, 81, 0
1, 1102171, Note_on_c, 0, 55, 0
1, 1102176, Note_on_c, 0, 79, 65
1, 1102208, Note_on_c, 0, 57, 78
1, 1102252, Note_on_c, 0, 59, 80
1, 1102255, Note_on_c, 0, 79, 0
1, 1102257, Note_on_c, 0, 57, 0
1, 1102278, Note_on_c, 0, 91, 108
1, 1102283, Note_on_c, 0, 60, 90
1, 1102297, Note_on_c, 0, 79, 67
1, 1102299, Note_on_c, 0, 59, 0
1, 1102341, Note_on_c, 0, 91, 0
1, 1102384, Note_on_c, 0, 79, 0
1, 1102425, Note_on_c, 0, 60, 0
1, 1102428, Note_on_c, 0, 81, 79
1, 1102429, Note_on_c, 0, 62, 78
1, 1102478, Note_on_c, 0, 81, 0
1, 1102499, Note_on_c, 0, 62, 0
1, 1102499, Note_on_c, 0, 64, 70
1, 1102531, Note_on_c, 0, 79, 39
1, 1102554, Note_on_c, 0, 64, 0
1, 1102561, Note_on_c, 0, 65, 71
1, 1102569, Note_on_c, 0, 79, 0
1, 1102573, Note_on_c, 0, 81, 72
1, 1102590, Note_on_c, 0, 67, 69
1, 1102593, Note_on_c, 0, 65, 0
1, 1102609, Note_on_c, 0, 81, 0
1, 1102634, Note_on_c, 0, 67, 0
1, 1102648, Note_on_c, 0, 79, 71
1, 1102670, Note_on_c, 0, 69, 75
1, 1102700, Note_on_c, 0, 81, 80
1, 1102705, Note_on_c, 0, 79, 0
1, 1102712, Note_on_c, 0, 71, 78
1, 1102713, Note_on_c, 0, 69, 0
1, 1102728, Note_on_c, 0, 81, 0
1, 1102756, Note_on_c, 0, 72, 99
1, 1102758, Note_on_c, 0, 91, 108
1, 1102791, Note_on_c, 0, 71, 0
1, 1102803, Control_c, 0, 64, 123
1, 1102805, Note_on_c, 0, 70, 23
1, 1102808, Note_on_c, 0, 79, 21
1, 1102839, Note_on_c, 0, 72, 0
1, 1102853, Control_c, 0, 64, 118
1, 1102870, Note_on_c, 0, 70, 0
1, 1102879, Note_on_c, 0, 79, 0
1, 1102905, Poly_aftertouch_c, 0, 81, 127
1, 1102906, Note_on_c, 0, 71, 85
1, 1102910, Control_c, 0, 64, 113
1, 1102956, Note_on_c, 0, 71, 0
1, 1102974, Note_on_c, 0, 79, 70
1, 1102984, Poly_aftertouch_c, 0, 81, 0
1, 1102985, Control_c, 0, 64, 108
1, 1103008, Note_on_c, 0, 69, 87
1, 1103021, Control_c, 0, 64, 100
1, 1103036, Poly_aftertouch_c, 0, 81, 0
1, 1103039, Control_c, 0, 64, 95
1, 1103055, Note_on_c, 0, 79, 0
1, 1103061, Note_on_c, 0, 69, 0
1, 1103068, Note_on_c, 0, 81, 60
1, 1103074, Control_c, 0, 64, 89
1, 1103112, Control_c, 0, 64, 87
1, 1103112, Note_on_c, 0, 67, 90
1, 1103115, Note_on_c, 0, 91, 0
1, 1103144, Note_on_c, 0, 81, 0
1, 1103160, Note_on_c, 0, 79, 64
1, 1103167, Control_c, 0, 64, 85
1, 1103171, Note_on_c, 0, 67, 0
1, 1103226, Note_on_c, 0, 79, 0
1, 1103231, Note_on_c, 0, 65, 86
1, 1103256, Note_on_c, 0, 81, 68
1, 1103286, Note_on_c, 0, 65, 0
1, 1103304, Note_on_c, 0, 81, 0
1, 1103340, Note_on_c, 0, 64, 89
1, 1103352, Note_on_c, 0, 79, 59
1, 1103395, Note_on_c, 0, 64, 0
1, 1103404, Note_on_c, 0, 79, 0
1, 1103415, Note_on_c, 0, 81, 71
1, 1103454, Note_on_c, 0, 62, 90
1, 1103470, Note_on_c, 0, 88, 102
1, 1103490, Note_on_c, 0, 81, 0
1, 1103498, Note_on_c, 0, 79, 75
1, 1103523, Note_on_c, 0, 62, 0
1, 1103565, Note_on_c, 0, 60, 86
1, 1103573, Note_on_c, 0, 79, 0
1, 1103599, Note_on_c, 0, 81, 75
1, 1103610, Control_c, 0, 64, 82
1, 1103620, Note_on_c, 0, 60, 0
1, 1103621, Note_on_c, 0, 88, 0
1, 1103628, Control_c, 0, 64, 76
1, 1103642, Note_on_c, 0, 81, 0
1, 1103646, Control_c, 0, 64, 66
1, 1103666, Control_c, 0, 64, 56
1, 1103678, Note_on_c, 0, 59, 92
1, 1103685, Control_c, 0, 64, 52
1, 1103690, Note_on_c, 0, 86, 99
1, 1103704, Note_on_c, 0, 79, 85
1, 1103729, Note_on_c, 0, 59, 0
1, 1103747, Note_on_c, 0, 79, 0
1, 1103798, Note_on_c, 0, 60, 84
1, 1103809, Note_on_c, 0, 81, 80
1, 1103854, Note_on_c, 0, 60, 0
1, 1103883, Note_on_c, 0, 81, 0
1, 1103886, Note_on_c, 0, 79, 71
1, 1103932, Note_on_c, 0, 59, 80
1, 1103965, Note_on_c, 0, 79, 0
1, 1103977, Note_on_c, 0, 81, 73
1, 1103980, Note_on_c, 0, 59, 0
1, 1104025, Note_on_c, 0, 81, 0
1, 1104045, Note_on_c, 0, 57, 82
1, 1104049, Note_on_c, 0, 79, 62
1, 1104085, Note_on_c, 0, 57, 0
1, 1104090, Note_on_c, 0, 79, 0
1, 1104127, Note_on_c, 0, 81, 66
1, 1104153, Note_on_c, 0, 86, 0
1, 1104157, Note_on_c, 0, 55, 84
1, 1104170, Note_on_c, 0, 81, 0
1, 1104183, Note_on_c, 0, 79, 85
1, 1104218, Note_on_c, 0, 55, 0
1, 1104223, Note_on_c, 0, 79, 0
1, 1104251, Note_on_c, 0, 81, 80
1, 1104267, Note_on_c, 0, 53, 76
1, 1104288, Note_on_c, 0, 81, 0
1, 1104323, Note_on_c, 0, 79, 63
1, 1104341, Note_on_c, 0, 53, 0
1, 1104355, Note_on_c, 0, 79, 0
1, 1104366, Note_on_c, 0, 52, 73
1, 1104371, Note_on_c, 0, 81, 79
1, 1104396, Note_on_c, 0, 81, 0
1, 1104435, Note_on_c, 0, 79, 68
1, 1104454, Control_c, 0, 64, 47
1, 1104463, Note_on_c, 0, 52, 0
1, 1104470, Note_on_c, 0, 50, 64
1, 1104471, Control_c, 0, 64, 23
1, 1104477, Note_on_c, 0, 79, 0
1, 1104484, Note_on_c, 0, 78, 76
1, 1104490, Control_c, 0, 64, 0
1, 1104546, Note_on_c, 0, 78, 0
1, 1104549, Note_on_c, 0, 79, 85
1, 1104550, Note_on_c, 0, 50, 0
1, 1104602, Note_on_c, 0, 84, 97
1, 1104606, Note_on_c, 0, 48, 80
1, 1104621, Control_c, 0, 64, 26
1, 1104630, Note_on_c, 0, 79, 0
1, 1104637, Control_c, 0, 64, 74
1, 1104640, Note_on_c, 0, 48, 0
1, 1104656, Control_c, 0, 64, 93
1, 1104675, Note_on_c, 0, 84, 0
1, 1104675, Control_c, 0, 64, 98
1, 1104837, Control_c, 0, 64, 102
1, 1104891, Control_c, 0, 64, 91
1, 1104912, Control_c, 0, 64, 58
1, 1104929, Control_c, 0, 64, 0
1, 1104943, Note_on_c, 0, 36, 87
1, 1105020, Control_c, 0, 64, 43
1, 1105037, Control_c, 0, 64, 71
1, 1105044, Note_on_c, 0, 36, 0
1, 1105057, Control_c, 0, 64, 83
1, 1105075, Control_c, 0, 64, 94
1, 1105115, Poly_aftertouch_c, 0, 38, 0
1, 1105186, Control_c, 0, 64, 98
1, 1105208, Note_on_c, 0, 60, 82
1, 1105222, Control_c, 0, 64, 94
1, 1105242, Control_c, 0, 64, 77
1, 1105258, Control_c, 0, 64, 43
1, 1105278, Control_c, 0, 64, 0
1, 1105287, Note_on_c, 0, 60, 0
1, 1105290, Note_on_c, 0, 64, 76
1, 1105354, Note_on_c, 0, 60, 72
1, 1105376, Note_on_c, 0, 64, 0
1, 1105431, Note_on_c, 0, 36, 66
1, 1105435, Note_on_c, 0, 48, 69
1, 1105442, Note_on_c, 0, 55, 76
1, 1105464, Note_on_c, 0, 60, 0
1, 1105486, Note_on_c, 0, 48, 0
1, 1105488, Note_on_c, 0, 36, 0
1, 1105493, Note_on_c, 0, 55, 0
1, 1105520, Note_on_c, 0, 52, 76
1, 1105590, Note_on_c, 0, 52, 0
1, 1105600, Note_on_c, 0, 55, 82
1, 1105688, Note_on_c, 0, 60, 88
1, 1105692, Note_on_c, 0, 55, 0
1, 1105741, Note_on_c, 0, 65, 90
1, 1105753, Note_on_c, 0, 60, 0
1, 1105828, Note_on_c, 0, 60, 78
1, 1105877, Note_on_c, 0, 59, 27
1, 1105878, Note_on_c, 0, 59, 0
1, 1105907, Note_on_c, 0, 57, 80
1, 1105914, Note_on_c, 0, 65, 0
1, 1105922, Note_on_c, 0, 48, 76
1, 1105922, Note_on_c, 0, 36, 71
1, 1105924, Note_on_c, 0, 60, 0
1, 1105968, Poly_aftertouch_c, 0, 62, 0
1, 1105973, Note_on_c, 0, 57, 0
1, 1105976, Note_on_c, 0, 48, 0
1, 1105982, Note_on_c, 0, 53, 78
1, 1105987, Note_on_c, 0, 36, 0
1, 1106066, Note_on_c, 0, 53, 0
1, 1106080, Note_on_c, 0, 57, 75
1, 1106153, Note_on_c, 0, 60, 80
1, 1106156, Note_on_c, 0, 57, 0
1, 1106222, Note_on_c, 0, 64, 80
1, 1106230, Note_on_c, 0, 60, 0
1, 1106314, Note_on_c, 0, 60, 74
1, 1106334, Note_on_c, 0, 64, 0
1, 1106372, Note_on_c, 0, 36, 63
1, 1106374, Note_on_c, 0, 48, 66
1, 1106378, Note_on_c, 0, 55, 70
1, 1106421, Note_on_c, 0, 60, 0
1, 1106424, Note_on_c, 0, 36, 0
1, 1106426, Note_on_c, 0, 48, 0
1, 1106452, Note_on_c, 0, 55, 0
1, 1106473, Note_on_c, 0, 52, 68
1, 1106550, Note_on_c, 0, 52, 0
1, 1106553, Note_on_c, 0, 55, 70
1, 1106642, Note_on_c, 0, 60, 80
1, 1106656, Note_on_c, 0, 55, 0
1, 1106711, Note_on_c, 0, 62, 77
1, 1106718, Note_on_c, 0, 60, 0
1, 1106787, Note_on_c, 0, 60, 72
1, 1106798, Note_on_c, 0, 62, 0
1, 1106857, Note_on_c, 0, 36, 63
1, 1106860, Note_on_c, 0, 48, 66
1, 1106871, Note_on_c, 0, 53, 68
1, 1106879, Note_on_c, 0, 60, 0
1, 1106901, Note_on_c, 0, 48, 0
1, 1106904, Note_on_c, 0, 36, 0
1, 1106915, Note_on_c, 0, 53, 0
1, 1106942, Note_on_c, 0, 50, 65
1, 1106981, Note_on_c, 0, 50, 0
1, 1107012, Note_on_c, 0, 53, 61
1, 1107056, Note_on_c, 0, 53, 0
1, 1107074, Note_on_c, 0, 60, 68
1, 1107140, Note_on_c, 0, 63, 76
1, 1107144, Note_on_c, 0, 60, 0
1, 1107213, Note_on_c, 0, 60, 70
1, 1107230, Note_on_c, 0, 63, 0
1, 1107288, Note_on_c, 0, 54, 72
1, 1107310, Note_on_c, 0, 48, 75
1, 1107311, Note_on_c, 0, 36, 69
1, 1107319, Note_on_c, 0, 60, 0
1, 1107352, Note_on_c, 0, 54, 0
1, 1107354, Note_on_c, 0, 48, 0
1, 1107360, Note_on_c, 0, 36, 0
1, 1107368, Note_on_c, 0, 51, 72
1, 1107425, Note_on_c, 0, 51, 0
1, 1107453, Note_on_c, 0, 54, 72
1, 1107532, Note_on_c, 0, 60, 80
1, 1107533, Note_on_c, 0, 54, 0
1, 1107592, Note_on_c, 0, 64, 89
1, 1107617, Note_on_c, 0, 60, 0
1, 1107671, Note_on_c, 0, 60, 77
1, 1107710, Note_on_c, 0, 64, 0
1, 1107754, Note_on_c, 0, 55, 75
1, 1107763, Note_on_c, 0, 36, 70
1, 1107767, Note_on_c, 0, 48, 71
1, 1107790, Note_on_c, 0, 60, 0
1, 1107810, Note_on_c, 0, 48, 0
1, 1107816, Note_on_c, 0, 36, 0
1, 1107821, Note_on_c, 0, 55, 0
1, 1107840, Note_on_c, 0, 52, 68
1, 1107890, Note_on_c, 0, 52, 0
1, 1107930, Note_on_c, 0, 55, 67
1, 1107995, Note_on_c, 0, 55, 0
1, 1108002, Note_on_c, 0, 59, 72
1, 1108060, Note_on_c, 0, 59, 0
1, 1108060, Note_on_c, 0, 62, 70
1, 1108137, Note_on_c, 0, 59, 72
1, 1108158, Note_on_c, 0, 62, 0
1, 1108214, Note_on_c, 0, 48, 64
1, 1108219, Note_on_c, 0, 36, 52
1, 1108223, Note_on_c, 0, 53, 58
1, 1108241, Note_on_c, 0, 59, 0
1, 1108258, Note_on_c, 0, 48, 0
1, 1108258, Note_on_c, 0, 36, 0
1, 1108276, Note_on_c, 0, 53, 0
1, 1108300, Note_on_c, 0, 50, 63
1, 1108376, Note_on_c, 0, 50, 0
1, 1108383, Note_on_c, 0, 53, 63
1, 1108461, Note_on_c, 0, 55, 69
1, 1108477, Note_on_c, 0, 53, 0
1, 1108513, Note_on_c, 0, 55, 0
1, 1108529, Note_on_c, 0, 60, 74
1, 1108605, Note_on_c, 0, 55, 60
1, 1108646, Note_on_c, 0, 60, 0
1, 1108650, Note_on_c, 0, 36, 64
1, 1108675, Note_on_c, 0, 52, 68
1, 1108684, Note_on_c, 0, 55, 0
1, 1108707, Control_c, 0, 64, 34
1, 1108717, Note_on_c, 0, 52, 0
1, 1108725, Control_c, 0, 64, 46
1, 1108744, Control_c, 0, 64, 52
1, 1108747, Note_on_c, 0, 48, 60
1, 1108784, Note_on_c, 0, 48, 0
1, 1108809, Note_on_c, 0, 52, 54
1, 1108840, Note_on_c, 0, 36, 0
1, 1108845, Note_on_c, 0, 52, 0
1, 1108893, Control_c, 0, 64, 49
1, 1108912, Control_c, 0, 64, 47
1, 1108928, Control_c, 0, 64, 45
1, 1108945, Note_on_c, 0, 64, 50
1, 1108946, Control_c, 0, 64, 43
1, 1108951, Note_on_c, 0, 62, 48
1, 1108981, Note_on_c, 0, 64, 0
1, 1108983, Control_c, 0, 64, 41
1, 1108987, Note_on_c, 0, 62, 0
1, 1108995, Note_on_c, 0, 67, 57
1, 1109040, Note_on_c, 0, 65, 19
1, 1109065, Note_on_c, 0, 64, 79
1, 1109083, Note_on_c, 0, 67, 0
1, 1109094, Note_on_c, 0, 65, 0
1, 1109148, Note_on_c, 0, 64, 0
1, 1109150, Note_on_c, 0, 60, 63
1, 1109153, Note_on_c, 0, 52, 63
1, 1109156, Note_on_c, 0, 48, 64
1, 1109158, Note_on_c, 0, 40, 59
1, 1109188, Note_on_c, 0, 60, 0
1, 1109207, Note_on_c, 0, 55, 64
1, 1109211, Note_on_c, 0, 52, 0
1, 1109219, Note_on_c, 0, 40, 0
1, 1109254, Note_on_c, 0, 55, 0
1, 1109258, Note_on_c, 0, 48, 0
1, 1109273, Note_on_c, 0, 60, 80
1, 1109358, Note_on_c, 0, 65, 87
1, 1109398, Note_on_c, 0, 60, 0
1, 1109403, Control_c, 0, 64, 34
1, 1109422, Control_c, 0, 64, 8
1, 1109436, Note_on_c, 0, 69, 89
1, 1109439, Control_c, 0, 64, 0
1, 1109460, Note_on_c, 0, 65, 0
1, 1109510, Note_on_c, 0, 65, 79
1, 1109551, Note_on_c, 0, 69, 0
1, 1109593, Note_on_c, 0, 60, 74
1, 1109615, Note_on_c, 0, 53, 80
1, 1109616, Note_on_c, 0, 41, 70
1, 1109622, Note_on_c, 0, 48, 70
1, 1109640, Note_on_c, 0, 65, 0
1, 1109672, Note_on_c, 0, 60, 0
1, 1109674, Note_on_c, 0, 53, 0
1, 1109677, Note_on_c, 0, 57, 72
1, 1109690, Note_on_c, 0, 41, 0
1, 1109710, Note_on_c, 0, 48, 0
1, 1109763, Note_on_c, 0, 57, 0
1, 1109765, Note_on_c, 0, 60, 70
1, 1109849, Note_on_c, 0, 64, 84
1, 1109862, Note_on_c, 0, 60, 0
1, 1109916, Note_on_c, 0, 67, 77
1, 1109922, Note_on_c, 0, 64, 0
1, 1109992, Note_on_c, 0, 64, 77
1, 1110027, Note_on_c, 0, 67, 0
1, 1110070, Note_on_c, 0, 60, 77
1, 1110078, Note_on_c, 0, 40, 62
1, 1110079, Note_on_c, 0, 52, 68
1, 1110087, Note_on_c, 0, 48, 67
1, 1110103, Note_on_c, 0, 64, 0
1, 1110137, Note_on_c, 0, 60, 0
1, 1110138, Note_on_c, 0, 52, 0
1, 1110152, Note_on_c, 0, 40, 0
1, 1110161, Note_on_c, 0, 55, 66
1, 1110176, Note_on_c, 0, 48, 0
1, 1110240, Note_on_c, 0, 60, 75
1, 1110252, Note_on_c, 0, 55, 0
1, 1110311, Note_on_c, 0, 62, 80
1, 1110338, Note_on_c, 0, 60, 0
1, 1110383, Note_on_c, 0, 62, 0
1, 1110383, Note_on_c, 0, 65, 82
1, 1110474, Note_on_c, 0, 62, 72
1, 1110507, Note_on_c, 0, 65, 0
1, 1110513, Note_on_c, 0, 64, 34
1, 1110531, Note_on_c, 0, 60, 79
1, 1110552, Note_on_c, 0, 38, 73
1, 1110554, Note_on_c, 0, 50, 77
1, 1110556, Note_on_c, 0, 62, 0
1, 1110558, Note_on_c, 0, 64, 0
1, 1110563, Note_on_c, 0, 48, 73
1, 1110598, Note_on_c, 0, 50, 0
1, 1110598, Note_on_c, 0, 60, 0
1, 1110624, Note_on_c, 0, 38, 0
1, 1110626, Note_on_c, 0, 53, 62
1, 1110639, Note_on_c, 0, 48, 0
1, 1110675, Note_on_c, 0, 55, 28
1, 1110704, Note_on_c, 0, 60, 75
1, 1110709, Note_on_c, 0, 53, 0
1, 1110731, Note_on_c, 0, 55, 0
1, 1110790, Note_on_c, 0, 63, 81
1, 1110823, Note_on_c, 0, 60, 0
1, 1110852, Note_on_c, 0, 66, 86
1, 1110857, Note_on_c, 0, 63, 0
1, 1110929, Note_on_c, 0, 63, 68
1, 1110984, Note_on_c, 0, 66, 0
1, 1110995, Note_on_c, 0, 60, 77
1, 1111024, Note_on_c, 0, 51, 73
1, 1111025, Note_on_c, 0, 48, 70
1, 1111026, Note_on_c, 0, 39, 67
1, 1111030, Note_on_c, 0, 63, 0
1, 1111075, Note_on_c, 0, 60, 0
1, 1111086, Note_on_c, 0, 54, 75
1, 1111104, Note_on_c, 0, 51, 0
1, 1111131, Note_on_c, 0, 39, 0
1, 1111134, Note_on_c, 0, 48, 0
1, 1111161, Note_on_c, 0, 54, 0
1, 1111175, Note_on_c, 0, 60, 77
1, 1111265, Note_on_c, 0, 64, 87
1, 1111290, Note_on_c, 0, 60, 0
1, 1111326, Note_on_c, 0, 67, 83
1, 1111360, Note_on_c, 0, 64, 0
1, 1111409, Note_on_c, 0, 64, 71
1, 1111457, Note_on_c, 0, 67, 0
1, 1111496, Note_on_c, 0, 60, 78
1, 1111506, Note_on_c, 0, 52, 73
1, 1111510, Note_on_c, 0, 40, 70
1, 1111516, Note_on_c, 0, 48, 68
1, 1111528, Note_on_c, 0, 64, 0
1, 1111557, Note_on_c, 0, 60, 0
1, 1111575, Note_on_c, 0, 52, 0
1, 1111578, Note_on_c, 0, 55, 68
1, 1111602, Note_on_c, 0, 40, 0
1, 1111620, Note_on_c, 0, 48, 0
1, 1111666, Note_on_c, 0, 60, 77
1, 1111678, Note_on_c, 0, 55, 0
1, 1111741, Note_on_c, 0, 62, 78
1, 1111752, Note_on_c, 0, 60, 0
1, 1111803, Note_on_c, 0, 62, 0
1, 1111804, Note_on_c, 0, 65, 77
1, 1111871, Note_on_c, 0, 62, 76
1, 1111911, Note_on_c, 0, 65, 0
1, 1111950, Note_on_c, 0, 59, 75
1, 1111969, Note_on_c, 0, 50, 70
1, 1111979, Note_on_c, 0, 38, 63
1, 1111980, Note_on_c, 0, 48, 67
1, 1112014, Note_on_c, 0, 59, 0
1, 1112025, Note_on_c, 0, 50, 0
1, 1112041, Note_on_c, 0, 53, 65
1, 1112052, Note_on_c, 0, 62, 0
1, 1112066, Note_on_c, 0, 38, 0
1, 1112070, Note_on_c, 0, 48, 0
1, 1112115, Note_on_c, 0, 53, 0
1, 1112119, Note_on_c, 0, 59, 67
1, 1112208, Note_on_c, 0, 60, 76
1, 1112216, Note_on_c, 0, 59, 0
1, 1112268, Note_on_c, 0, 60, 0
1, 1112272, Note_on_c, 0, 64, 81
1, 1112349, Note_on_c, 0, 60, 78
1, 1112386, Note_on_c, 0, 64, 0
1, 1112413, Note_on_c, 0, 55, 71
1, 1112432, Control_c, 0, 64, 17
1, 1112444, Note_on_c, 0, 48, 61
1, 1112447, Note_on_c, 0, 36, 61
1, 1112448, Control_c, 0, 64, 46
1, 1112467, Note_on_c, 0, 55, 0
1, 1112467, Control_c, 0, 64, 62
1, 1112487, Control_c, 0, 64, 68
1, 1112499, Note_on_c, 0, 52, 68
1, 1112506, Control_c, 0, 64, 70
1, 1112532, Note_on_c, 0, 60, 0
1, 1112540, Control_c, 0, 64, 72
1, 1112544, Note_on_c, 0, 52, 0
1, 1112544, Note_on_c, 0, 48, 0
1, 1112546, Note_on_c, 0, 36, 0
1, 1112568, Note_on_c, 0, 55, 62
1, 1112577, Control_c, 0, 64, 74
1, 1112596, Control_c, 0, 64, 76
1, 1112603, Note_on_c, 0, 55, 0
1, 1112616, Control_c, 0, 64, 79
1, 1112635, Control_c, 0, 64, 82
1, 1112653, Control_c, 0, 64, 84
1, 1112689, Control_c, 0, 64, 82
1, 1112710, Control_c, 0, 64, 72
1, 1112727, Control_c, 0, 64, 57
1, 1112739, Note_on_c, 0, 36, 53
1, 1112744, Control_c, 0, 64, 47
1, 1112775, Note_on_c, 0, 67, 16
1, 1112779, Note_on_c, 0, 67, 0
1, 1112779, Control_c, 0, 64, 51
1, 1112799, Control_c, 0, 64, 63
1, 1112819, Control_c, 0, 64, 73
1, 1112820, Note_on_c, 0, 72, 64
1, 1112837, Control_c, 0, 64, 82
1, 1112841, Note_on_c, 0, 36, 0
1, 1112844, Note_on_c, 0, 40, 52
1, 1112856, Control_c, 0, 64, 89
1, 1112891, Note_on_c, 0, 72, 0
1, 1112891, Note_on_c, 0, 67, 53
1, 1112892, Control_c, 0, 64, 94
1, 1112903, Note_on_c, 0, 40, 0
1, 1112915, Note_on_c, 0, 43, 49
1, 1112959, Note_on_c, 0, 43, 0
1, 1112959, Note_on_c, 0, 64, 70
1, 1112960, Note_on_c, 0, 67, 0
1, 1112965, Control_c, 0, 64, 98
1, 1112978, Note_on_c, 0, 48, 46
1, 1113020, Note_on_c, 0, 64, 0
1, 1113020, Control_c, 0, 64, 102
1, 1113041, Note_on_c, 0, 60, 57
1, 1113044, Note_on_c, 0, 48, 0
1, 1113060, Note_on_c, 0, 43, 53
1, 1113096, Control_c, 0, 64, 106
1, 1113106, Note_on_c, 0, 60, 0
1, 1113119, Note_on_c, 0, 40, 51
1, 1113120, Note_on_c, 0, 43, 0
1, 1113121, Note_on_c, 0, 64, 72
1, 1113165, Control_c, 0, 64, 96
1, 1113184, Control_c, 0, 64, 77
1, 1113195, Note_on_c, 0, 40, 0
1, 1113202, Control_c, 0, 64, 52
1, 1113210, Note_on_c, 0, 64, 0
1, 1113212, Note_on_c, 0, 69, 71
1, 1113215, Note_on_c, 0, 36, 63
1, 1113219, Control_c, 0, 64, 33
1, 1113273, Note_on_c, 0, 69, 0
1, 1113276, Control_c, 0, 64, 54
1, 1113276, Note_on_c, 0, 72, 72
1, 1113291, Note_on_c, 0, 36, 0
1, 1113293, Control_c, 0, 64, 70
1, 1113307, Note_on_c, 0, 41, 59
1, 1113310, Control_c, 0, 64, 79
1, 1113334, Control_c, 0, 64, 86
1, 1113354, Note_on_c, 0, 69, 65
1, 1113369, Control_c, 0, 64, 92
1, 1113381, Note_on_c, 0, 45, 60
1, 1113385, Note_on_c, 0, 41, 0
1, 1113386, Note_on_c, 0, 72, 0
1, 1113426, Note_on_c, 0, 45, 0
1, 1113430, Note_on_c, 0, 65, 70
1, 1113460, Note_on_c, 0, 69, 0
1, 1113460, Control_c, 0, 64, 96
1, 1113460, Note_on_c, 0, 48, 52
1, 1113484, Note_on_c, 0, 65, 0
1, 1113509, Note_on_c, 0, 60, 67
1, 1113516, Control_c, 0, 64, 101
1, 1113522, Note_on_c, 0, 48, 0
1, 1113528, Note_on_c, 0, 45, 56
1, 1113572, Note_on_c, 0, 45, 0
1, 1113596, Note_on_c, 0, 41, 54
1, 1113600, Note_on_c, 0, 65, 68
1, 1113605, Note_on_c, 0, 60, 0
1, 1113607, Control_c, 0, 64, 93
1, 1113626, Control_c, 0, 64, 73
1, 1113641, Note_on_c, 0, 41, 0
1, 1113643, Control_c, 0, 64, 46
1, 1113663, Control_c, 0, 64, 23
1, 1113676, Note_on_c, 0, 67, 76
1, 1113676, Note_on_c, 0, 36, 60
1, 1113691, Note_on_c, 0, 65, 0
1, 1113719, Control_c, 0, 64, 34
1, 1113736, Control_c, 0, 64, 56
1, 1113744, Note_on_c, 0, 67, 0
1, 1113751, Note_on_c, 0, 72, 78
1, 1113756, Note_on_c, 0, 36, 0
1, 1113756, Control_c, 0, 64, 72
1, 1113761, Note_on_c, 0, 40, 63
1, 1113774, Control_c, 0, 64, 80
1, 1113793, Control_c, 0, 64, 86
1, 1113811, Control_c, 0, 64, 88
1, 1113822, Note_on_c, 0, 67, 61
1, 1113827, Note_on_c, 0, 40, 0
1, 1113831, Note_on_c, 0, 43, 43
1, 1113849, Note_on_c, 0, 72, 0
1, 1113877, Note_on_c, 0, 43, 0
1, 1113881, Note_on_c, 0, 48, 62
1, 1113885, Control_c, 0, 64, 92
1, 1113899, Note_on_c, 0, 64, 76
1, 1113910, Note_on_c, 0, 67, 0
1, 1113921, Control_c, 0, 64, 98
1, 1113930, Poly_aftertouch_c, 0, 69, 0
1, 1113957, Note_on_c, 0, 64, 0
1, 1113957, Note_on_c, 0, 48, 0
1, 1113957, Control_c, 0, 64, 105
1, 1113977, Note_on_c, 0, 43, 54
1, 1113982, Note_on_c, 0, 60, 66
1, 1113995, Control_c, 0, 64, 109
1, 1114024, Note_on_c, 0, 43, 0
1, 1114044, Note_on_c, 0, 40, 53
1, 1114077, Note_on_c, 0, 60, 0
1, 1114081, Note_on_c, 0, 64, 63
1, 1114101, Control_c, 0, 64, 91
1, 1114115, Note_on_c, 0, 40, 0
1, 1114119, Control_c, 0, 64, 68
1, 1114128, Note_on_c, 0, 36, 68
1, 1114139, Control_c, 0, 64, 45
1, 1114149, Note_on_c, 0, 65, 75
1, 1114156, Control_c, 0, 64, 38
1, 1114157, Note_on_c, 0, 64, 0
1, 1114190, Note_on_c, 0, 65, 0
1, 1114192, Control_c, 0, 64, 48
1, 1114204, Note_on_c, 0, 38, 61
1, 1114211, Note_on_c, 0, 36, 0
1, 1114211, Control_c, 0, 64, 66
1, 1114213, Note_on_c, 0, 72, 79
1, 1114231, Control_c, 0, 64, 76
1, 1114250, Control_c, 0, 64, 85
1, 1114267, Control_c, 0, 64, 90
1, 1114274, Note_on_c, 0, 41, 63
1, 1114290, Note_on_c, 0, 72, 0
1, 1114290, Note_on_c, 0, 65, 75
1, 1114298, Note_on_c, 0, 38, 0
1, 1114316, Note_on_c, 0, 41, 0
1, 1114320, Control_c, 0, 64, 95
1, 1114330, Note_on_c, 0, 48, 66
1, 1114373, Note_on_c, 0, 62, 74
1, 1114378, Note_on_c, 0, 65, 0
1, 1114378, Control_c, 0, 64, 101
1, 1114413, Note_on_c, 0, 62, 0
1, 1114413, Control_c, 0, 64, 108
1, 1114415, Note_on_c, 0, 41, 63
1, 1114436, Note_on_c, 0, 60, 75
1, 1114445, Note_on_c, 0, 48, 0
1, 1114451, Control_c, 0, 64, 113
1, 1114477, Note_on_c, 0, 38, 59
1, 1114495, Note_on_c, 0, 41, 0
1, 1114506, Note_on_c, 0, 60, 0
1, 1114510, Note_on_c, 0, 62, 79
1, 1114554, Note_on_c, 0, 38, 0
1, 1114561, Control_c, 0, 64, 105
1, 1114581, Control_c, 0, 64, 77
1, 1114591, Note_on_c, 0, 66, 87
1, 1114592, Note_on_c, 0, 36, 68
1, 1114599, Control_c, 0, 64, 27
1, 1114601, Note_on_c, 0, 62, 0
1, 1114616, Control_c, 0, 64, 0
1, 1114659, Note_on_c, 0, 72, 84
1, 1114661, Note_on_c, 0, 66, 0
1, 1114670, Note_on_c, 0, 36, 0
1, 1114674, Note_on_c, 0, 39, 67
1, 1114691, Control_c, 0, 64, 13
1, 1114711, Control_c, 0, 64, 41
1, 1114724, Note_on_c, 0, 66, 69
1, 1114729, Control_c, 0, 64, 63
1, 1114747, Control_c, 0, 64, 76
1, 1114749, Note_on_c, 0, 42, 54
1, 1114751, Note_on_c, 0, 39, 0
1, 1114767, Control_c, 0, 64, 84
1, 1114773, Note_on_c, 0, 72, 0
1, 1114783, Control_c, 0, 64, 89
1, 1114785, Note_on_c, 0, 42, 0
1, 1114806, Note_on_c, 0, 63, 76
1, 1114822, Note_on_c, 0, 48, 53
1, 1114824, Note_on_c, 0, 66, 0
1, 1114851, Note_on_c, 0, 63, 0
1, 1114855, Control_c, 0, 64, 93
1, 1114880, Note_on_c, 0, 42, 68
1, 1114885, Note_on_c, 0, 60, 70
1, 1114886, Note_on_c, 0, 48, 0
1, 1114892, Control_c, 0, 64, 100
1, 1114931, Control_c, 0, 64, 104
1, 1114954, Note_on_c, 0, 39, 49
1, 1114971, Note_on_c, 0, 63, 80
1, 1114977, Note_on_c, 0, 60, 0
1, 1114978, Note_on_c, 0, 42, 0
1, 1115020, Control_c, 0, 64, 95
1, 1115027, Note_on_c, 0, 39, 0
1, 1115037, Control_c, 0, 64, 66
1, 1115047, Note_on_c, 0, 63, 0
1, 1115055, Control_c, 0, 64, 0
1, 1115058, Note_on_c, 0, 36, 63
1, 1115066, Note_on_c, 0, 67, 85
1, 1115122, Note_on_c, 0, 40, 69
1, 1115135, Note_on_c, 0, 72, 89
1, 1115136, Note_on_c, 0, 67, 0
1, 1115138, Note_on_c, 0, 36, 0
1, 1115167, Control_c, 0, 64, 43
1, 1115185, Control_c, 0, 64, 69
1, 1115202, Note_on_c, 0, 38, 22
1, 1115206, Control_c, 0, 64, 80
1, 1115211, Note_on_c, 0, 43, 62
1, 1115213, Note_on_c, 0, 38, 0
1, 1115218, Note_on_c, 0, 40, 0
1, 1115222, Note_on_c, 0, 67, 77
1, 1115224, Control_c, 0, 64, 86
1, 1115246, Note_on_c, 0, 43, 0
1, 1115255, Note_on_c, 0, 72, 0
1, 1115277, Note_on_c, 0, 48, 50
1, 1115305, Note_on_c, 0, 64, 70
1, 1115312, Note_on_c, 0, 67, 0
1, 1115343, Note_on_c, 0, 48, 0
1, 1115345, Note_on_c, 0, 64, 0
1, 1115349, Note_on_c, 0, 43, 58
1, 1115368, Control_c, 0, 64, 91
1, 1115372, Note_on_c, 0, 60, 66
1, 1115406, Control_c, 0, 64, 95
1, 1115419, Note_on_c, 0, 43, 0
1, 1115443, Control_c, 0, 64, 100
1, 1115445, Note_on_c, 0, 40, 55
1, 1115460, Note_on_c, 0, 60, 0
1, 1115472, Note_on_c, 0, 64, 68
1, 1115516, Note_on_c, 0, 40, 0
1, 1115534, Control_c, 0, 64, 87
1, 1115550, Note_on_c, 0, 36, 64
1, 1115553, Control_c, 0, 64, 63
1, 1115554, Note_on_c, 0, 65, 72
1, 1115557, Note_on_c, 0, 64, 0
1, 1115570, Control_c, 0, 64, 28
1, 1115590, Control_c, 0, 64, 10
1, 1115619, Note_on_c, 0, 36, 0
1, 1115621, Note_on_c, 0, 65, 0
1, 1115622, Note_on_c, 0, 38, 63
1, 1115626, Control_c, 0, 64, 25
1, 1115631, Note_on_c, 0, 71, 77
1, 1115646, Control_c, 0, 64, 50
1, 1115664, Control_c, 0, 64, 70
1, 1115682, Control_c, 0, 64, 79
1, 1115700, Control_c, 0, 64, 88
1, 1115701, Note_on_c, 0, 38, 0
1, 1115706, Note_on_c, 0, 65, 57
1, 1115709, Note_on_c, 0, 41, 56
1, 1115717, Control_c, 0, 64, 93
1, 1115728, Note_on_c, 0, 71, 0
1, 1115751, Note_on_c, 0, 41, 0
1, 1115773, Note_on_c, 0, 48, 56
1, 1115774, Control_c, 0, 64, 98
1, 1115793, Note_on_c, 0, 62, 65
1, 1115796, Note_on_c, 0, 65, 0
1, 1115828, Control_c, 0, 64, 104
1, 1115829, Note_on_c, 0, 62, 0
1, 1115848, Note_on_c, 0, 48, 0
1, 1115860, Note_on_c, 0, 59, 67
1, 1115865, Note_on_c, 0, 41, 60
1, 1115866, Control_c, 0, 64, 109
1, 1115902, Note_on_c, 0, 38, 55
1, 1115902, Control_c, 0, 64, 113
1, 1115926, Note_on_c, 0, 41, 0
1, 1115950, Note_on_c, 0, 59, 0
1, 1115954, Control_c, 0, 64, 117
1, 1115955, Note_on_c, 0, 62, 62
1, 1115991, Note_on_c, 0, 62, 0
1, 1115996, Note_on_c, 0, 38, 0
1, 1116027, Control_c, 0, 64, 100
1, 1116045, Control_c, 0, 64, 71
1, 1116048, Note_on_c, 0, 36, 63
1, 1116063, Note_on_c, 0, 67, 80
1, 1116063, Control_c, 0, 64, 28
1, 1116085, Control_c, 0, 64, 0
1, 1116112, Note_on_c, 0, 67, 0
1, 1116124, Note_on_c, 0, 36, 0
1, 1116136, Note_on_c, 0, 72, 71
1, 1116139, Control_c, 0, 64, 29
1, 1116147, Note_on_c, 0, 40, 60
1, 1116158, Control_c, 0, 64, 54
1, 1116177, Control_c, 0, 64, 73
1, 1116193, Control_c, 0, 64, 84
1, 1116200, Note_on_c, 0, 67, 64
1, 1116210, Note_on_c, 0, 40, 0
1, 1116212, Control_c, 0, 64, 94
1, 1116218, Note_on_c, 0, 72, 0
1, 1116223, Note_on_c, 0, 43, 45
1, 1116231, Control_c, 0, 64, 98
1, 1116267, Note_on_c, 0, 43, 0
1, 1116270, Note_on_c, 0, 64, 70
1, 1116274, Note_on_c, 0, 67, 0
1, 1116279, Note_on_c, 0, 48, 55
1, 1116304, Control_c, 0, 64, 103
1, 1116312, Note_on_c, 0, 64, 0
1, 1116341, Control_c, 0, 64, 111
1, 1116346, Note_on_c, 0, 48, 0
1, 1116349, Note_on_c, 0, 60, 59
1, 1116360, Control_c, 0, 64, 116
1, 1116369, Note_on_c, 0, 43, 58
1, 1116379, Note_on_c, 0, 60, 0
1, 1116379, Control_c, 0, 64, 120
1, 1116414, Control_c, 0, 64, 124
1, 1116424, Note_on_c, 0, 43, 0
1, 1116455, Note_on_c, 0, 40, 46
1, 1116471, Control_c, 0, 64, 105
1, 1116487, Control_c, 0, 64, 82
1, 1116507, Control_c, 0, 64, 57
1, 1116513, Note_on_c, 0, 40, 0
1, 1116525, Control_c, 0, 64, 49
1, 1116539, Note_on_c, 0, 36, 57
1, 1116545, Note_on_c, 0, 72, 70
1, 1116562, Control_c, 0, 64, 59
1, 1116572, Note_on_c, 0, 36, 0
1, 1116580, Control_c, 0, 64, 71
1, 1116589, Note_on_c, 0, 72, 0
1, 1116599, Control_c, 0, 64, 81
1, 1116601, Note_on_c, 0, 76, 72
1, 1116609, Note_on_c, 0, 48, 64
1, 1116617, Control_c, 0, 64, 90
1, 1116637, Control_c, 0, 64, 96
1, 1116653, Note_on_c, 0, 48, 0
1, 1116673, Control_c, 0, 64, 101
1, 1116680, Note_on_c, 0, 72, 83
1, 1116701, Note_on_c, 0, 76, 0
1, 1116709, Note_on_c, 0, 52, 56
1, 1116741, Note_on_c, 0, 52, 0
1, 1116745, Control_c, 0, 64, 106
1, 1116765, Note_on_c, 0, 67, 76
1, 1116777, Note_on_c, 0, 55, 73
1, 1116783, Control_c, 0, 64, 112
1, 1116785, Note_on_c, 0, 72, 0
1, 1116820, Control_c, 0, 64, 119
1, 1116821, Note_on_c, 0, 67, 0
1, 1116839, Note_on_c, 0, 64, 73
1, 1116840, Note_on_c, 0, 55, 0
1, 1116843, Note_on_c, 0, 52, 76
1, 1116859, Control_c, 0, 64, 125
1, 1116892, Note_on_c, 0, 52, 0
1, 1116925, Note_on_c, 0, 64, 0
1, 1116950, Note_on_c, 0, 67, 77
1, 1116961, Note_on_c, 0, 48, 77
1, 1116962, Control_c, 0, 64, 108
1, 1116982, Control_c, 0, 64, 68
1, 1116993, Note_on_c, 0, 48, 0
1, 1116999, Control_c, 0, 64, 0
1, 1117010, Note_on_c, 0, 67, 0
1, 1117025, Note_on_c, 0, 36, 82
1, 1117026, Note_on_c, 0, 72, 90
1, 1117056, Note_on_c, 0, 36, 0
1, 1117072, Note_on_c, 0, 48, 73
1, 1117075, Control_c, 0, 64, 12
1, 1117093, Control_c, 0, 64, 49
1, 1117098, Note_on_c, 0, 72, 0
1, 1117099, Note_on_c, 0, 77, 90
1, 1117110, Note_on_c, 0, 48, 0
1, 1117112, Control_c, 0, 64, 74
1, 1117129, Control_c, 0, 64, 87
1, 1117148, Control_c, 0, 64, 98
1, 1117174, Note_on_c, 0, 72, 81
1, 1117174, Note_on_c, 0, 53, 76
1, 1117210, Poly_aftertouch_c, 0, 36, 0
1, 1117216, Note_on_c, 0, 77, 0
1, 1117224, Note_on_c, 0, 53, 0
1, 1117259, Control_c, 0, 64, 102
1, 1117259, Note_on_c, 0, 57, 66
1, 1117261, Note_on_c, 0, 69, 78
1, 1117264, Note_on_c, 0, 72, 0
1, 1117301, Note_on_c, 0, 57, 0
1, 1117323, Note_on_c, 0, 69, 0
1, 1117334, Note_on_c, 0, 65, 68
1, 1117336, Note_on_c, 0, 53, 67
1, 1117349, Control_c, 0, 64, 108
1, 1117365, Note_on_c, 0, 53, 0
1, 1117371, Note_on_c, 0, 51, 20
1, 1117406, Control_c, 0, 64, 112
1, 1117416, Note_on_c, 0, 48, 80
1, 1117417, Note_on_c, 0, 69, 75
1, 1117420, Note_on_c, 0, 65, 0
1, 1117431, Note_on_c, 0, 51, 0
1, 1117453, Note_on_c, 0, 48, 0
1, 1117460, Control_c, 0, 64, 94
1, 1117478, Control_c, 0, 64, 69
1, 1117487, Note_on_c, 0, 36, 76
1, 1117497, Control_c, 0, 64, 39
1, 1117498, Note_on_c, 0, 72, 82
1, 1117507, Note_on_c, 0, 69, 0
1, 1117516, Control_c, 0, 64, 29
1, 1117522, Note_on_c, 0, 36, 0
1, 1117544, Note_on_c, 0, 48, 67
1, 1117554, Control_c, 0, 64, 42
1, 1117556, Note_on_c, 0, 76, 88
1, 1117572, Control_c, 0, 64, 63
1, 1117576, Note_on_c, 0, 72, 0
1, 1117589, Control_c, 0, 64, 76
1, 1117595, Note_on_c, 0, 48, 0
1, 1117609, Control_c, 0, 64, 87
1, 1117626, Control_c, 0, 64, 95
1, 1117642, Note_on_c, 0, 52, 73
1, 1117643, Note_on_c, 0, 72, 80
1, 1117646, Control_c, 0, 64, 100
1, 1117672, Note_on_c, 0, 76, 0
1, 1117698, Note_on_c, 0, 52, 0
1, 1117714, Note_on_c, 0, 55, 73
1, 1117722, Note_on_c, 0, 67, 79
1, 1117739, Control_c, 0, 64, 106
1, 1117748, Note_on_c, 0, 72, 0
1, 1117756, Control_c, 0, 64, 111
1, 1117758, Note_on_c, 0, 55, 0
1, 1117775, Control_c, 0, 64, 115
1, 1117792, Note_on_c, 0, 67, 0
1, 1117793, Control_c, 0, 64, 119
1, 1117820, Note_on_c, 0, 64, 77
1, 1117842, Note_on_c, 0, 52, 24
1, 1117844, Control_c, 0, 64, 124
1, 1117887, Note_on_c, 0, 48, 78
1, 1117897, Note_on_c, 0, 52, 0
1, 1117913, Note_on_c, 0, 67, 79
1, 1117916, Note_on_c, 0, 64, 0
1, 1117917, Control_c, 0, 64, 119
1, 1117928, Note_on_c, 0, 48, 0
1, 1117934, Control_c, 0, 64, 94
1, 1117954, Control_c, 0, 64, 56
1, 1117975, Control_c, 0, 64, 0
1, 1117976, Note_on_c, 0, 36, 76
1, 1117989, Note_on_c, 0, 72, 86
1, 1118005, Note_on_c, 0, 67, 0
1, 1118005, Note_on_c, 0, 36, 0
1, 1118047, Control_c, 0, 64, 39
1, 1118048, Note_on_c, 0, 48, 72
1, 1118049, Note_on_c, 0, 74, 85
1, 1118064, Note_on_c, 0, 72, 0
1, 1118064, Control_c, 0, 64, 63
1, 1118085, Control_c, 0, 64, 79
1, 1118092, Note_on_c, 0, 48, 0
1, 1118103, Control_c, 0, 64, 92
1, 1118120, Control_c, 0, 64, 100
1, 1118125, Note_on_c, 0, 72, 78
1, 1118142, Note_on_c, 0, 50, 71
1, 1118166, Note_on_c, 0, 74, 0
1, 1118175, Control_c, 0, 64, 104
1, 1118189, Note_on_c, 0, 50, 0
1, 1118218, Note_on_c, 0, 53, 74
1, 1118226, Note_on_c, 0, 72, 0
1, 1118227, Note_on_c, 0, 65, 77
1, 1118231, Control_c, 0, 64, 110
1, 1118269, Control_c, 0, 64, 117
1, 1118279, Note_on_c, 0, 65, 0
1, 1118283, Note_on_c, 0, 53, 0
1, 1118287, Note_on_c, 0, 62, 73
1, 1118297, Note_on_c, 0, 50, 72
1, 1118304, Control_c, 0, 64, 123
1, 1118330, Note_on_c, 0, 50, 0
1, 1118356, Note_on_c, 0, 62, 0
1, 1118366, Note_on_c, 0, 65, 68
1, 1118373, Note_on_c, 0, 48, 78
1, 1118396, Control_c, 0, 64, 98
1, 1118414, Note_on_c, 0, 48, 0
1, 1118415, Control_c, 0, 64, 62
1, 1118433, Control_c, 0, 64, 0
1, 1118446, Note_on_c, 0, 65, 0
1, 1118450, Note_on_c, 0, 36, 76
1, 1118455, Note_on_c, 0, 72, 64
1, 1118461, Note_on_c, 0, 71, 71
1, 1118483, Note_on_c, 0, 36, 0
1, 1118489, Control_c, 0, 64, 18
1, 1118507, Note_on_c, 0, 71, 0
1, 1118507, Control_c, 0, 64, 47
1, 1118514, Note_on_c, 0, 75, 87
1, 1118518, Note_on_c, 0, 72, 0
1, 1118523, Note_on_c, 0, 48, 69
1, 1118525, Control_c, 0, 64, 71
1, 1118545, Control_c, 0, 64, 87
1, 1118563, Control_c, 0, 64, 101
1, 1118576, Note_on_c, 0, 48, 0
1, 1118581, Control_c, 0, 64, 107
1, 1118603, Note_on_c, 0, 72, 80
1, 1118603, Note_on_c, 0, 51, 69
1, 1118622, Note_on_c, 0, 75, 0
1, 1118643, Note_on_c, 0, 51, 0
1, 1118659, Note_on_c, 0, 54, 77
1, 1118676, Note_on_c, 0, 66, 81
1, 1118692, Control_c, 0, 64, 113
1, 1118706, Note_on_c, 0, 72, 0
1, 1118711, Control_c, 0, 64, 117
1, 1118721, Note_on_c, 0, 51, 69
1, 1118722, Note_on_c, 0, 54, 0
1, 1118730, Control_c, 0, 64, 122
1, 1118759, Note_on_c, 0, 66, 0
1, 1118759, Control_c, 0, 64, 127
1, 1118760, Note_on_c, 0, 63, 74
1, 1118779, Note_on_c, 0, 51, 0
1, 1118804, Note_on_c, 0, 63, 0
1, 1118823, Note_on_c, 0, 48, 77
1, 1118837, Note_on_c, 0, 66, 73
1, 1118872, Control_c, 0, 64, 122
1, 1118879, Note_on_c, 0, 48, 0
1, 1118890, Control_c, 0, 64, 83
1, 1118909, Control_c, 0, 64, 0
1, 1118913, Note_on_c, 0, 72, 84
1, 1118914, Note_on_c, 0, 36, 76
1, 1118918, Note_on_c, 0, 66, 0
1, 1118953, Note_on_c, 0, 36, 0
1, 1118978, Note_on_c, 0, 76, 90
1, 1118985, Note_on_c, 0, 48, 75
1, 1119000, Control_c, 0, 64, 40
1, 1119005, Note_on_c, 0, 72, 0
1, 1119019, Control_c, 0, 64, 69
1, 1119031, Note_on_c, 0, 48, 0
1, 1119036, Control_c, 0, 64, 84
1, 1119056, Control_c, 0, 64, 96
1, 1119057, Note_on_c, 0, 72, 75
1, 1119074, Control_c, 0, 64, 102
1, 1119095, Note_on_c, 0, 76, 0
1, 1119105, Note_on_c, 0, 52, 39
1, 1119114, Note_on_c, 0, 55, 68
1, 1119146, Note_on_c, 0, 67, 73
1, 1119149, Note_on_c, 0, 52, 0
1, 1119173, Note_on_c, 0, 72, 0
1, 1119179, Note_on_c, 0, 55, 0
1, 1119185, Control_c, 0, 64, 107
1, 1119211, Note_on_c, 0, 67, 0
1, 1119221, Control_c, 0, 64, 112
1, 1119228, Note_on_c, 0, 64, 65
1, 1119230, Note_on_c, 0, 52, 53
1, 1119260, Control_c, 0, 64, 117
1, 1119265, Note_on_c, 0, 52, 0
1, 1119294, Control_c, 0, 64, 122
1, 1119304, Note_on_c, 0, 48, 79
1, 1119307, Note_on_c, 0, 67, 70
1, 1119309, Note_on_c, 0, 64, 0
1, 1119342, Note_on_c, 0, 48, 0
1, 1119350, Control_c, 0, 64, 112
1, 1119369, Control_c, 0, 64, 89
1, 1119378, Note_on_c, 0, 36, 81
1, 1119387, Note_on_c, 0, 71, 80
1, 1119388, Control_c, 0, 64, 60
1, 1119399, Note_on_c, 0, 67, 0
1, 1119406, Control_c, 0, 64, 43
1, 1119414, Note_on_c, 0, 36, 0
1, 1119443, Control_c, 0, 64, 49
1, 1119444, Note_on_c, 0, 74, 79
1, 1119455, Note_on_c, 0, 48, 73
1, 1119459, Note_on_c, 0, 71, 0
1, 1119460, Control_c, 0, 64, 66
1, 1119480, Control_c, 0, 64, 78
1, 1119498, Control_c, 0, 64, 90
1, 1119506, Note_on_c, 0, 48, 0
1, 1119517, Control_c, 0, 64, 99
1, 1119528, Note_on_c, 0, 71, 74
1, 1119534, Control_c, 0, 64, 103
1, 1119562, Note_on_c, 0, 74, 0
1, 1119567, Note_on_c, 0, 50, 52
1, 1119604, Note_on_c, 0, 50, 0
1, 1119608, Note_on_c, 0, 65, 68
1, 1119608, Control_c, 0, 64, 108
1, 1119619, Note_on_c, 0, 53, 67
1, 1119642, Note_on_c, 0, 71, 0
1, 1119644, Control_c, 0, 64, 116
1, 1119665, Control_c, 0, 64, 121
1, 1119670, Note_on_c, 0, 65, 0
1, 1119697, Control_c, 0, 64, 125
1, 1119700, Note_on_c, 0, 53, 0
1, 1119711, Note_on_c, 0, 62, 67
1, 1119716, Note_on_c, 0, 50, 73
1, 1119748, Note_on_c, 0, 50, 0
1, 1119781, Note_on_c, 0, 62, 0
1, 1119798, Note_on_c, 0, 65, 68
1, 1119805, Note_on_c, 0, 48, 78
1, 1119845, Control_c, 0, 64, 104
1, 1119847, Note_on_c, 0, 48, 0
1, 1119863, Control_c, 0, 64, 67
1, 1119870, Note_on_c, 0, 67, 81
1, 1119877, Note_on_c, 0, 65, 0
1, 1119879, Note_on_c, 0, 36, 69
1, 1119882, Control_c, 0, 64, 19
1, 1119901, Control_c, 0, 64, 0
1, 1119912, Note_on_c, 0, 36, 0
1, 1119933, Note_on_c, 0, 67, 0
1, 1119935, Control_c, 0, 64, 26
1, 1119940, Note_on_c, 0, 72, 80
1, 1119950, Note_on_c, 0, 48, 68
1, 1119954, Control_c, 0, 64, 52
1, 1119974, Control_c, 0, 64, 74
1, 1119981, Note_on_c, 0, 48, 0
1, 1119993, Control_c, 0, 64, 89
1, 1120009, Control_c, 0, 64, 104
1, 1120016, Note_on_c, 0, 67, 69
1, 1120028, Control_c, 0, 64, 111
1, 1120049, Note_on_c, 0, 72, 0
1, 1120054, Note_on_c, 0, 55, 69
1, 1120080, Note_on_c, 0, 64, 74
1, 1120089, Note_on_c, 0, 67, 0
1, 1120096, Note_on_c, 0, 55, 0
1, 1120102, Control_c, 0, 64, 116
1, 1120121, Note_on_c, 0, 64, 0
1, 1120125, Note_on_c, 0, 52, 53
1, 1120140, Control_c, 0, 64, 124
1, 1120155, Note_on_c, 0, 60, 60
1, 1120160, Note_on_c, 0, 52, 0
1, 1120196, Note_on_c, 0, 60, 0
1, 1120213, Note_on_c, 0, 64, 72
1, 1120238, Note_on_c, 0, 48, 30
1, 1120241, Note_on_c, 0, 64, 0
1, 1120296, Poly_aftertouch_c, 0, 50, 127
1, 1120313, Note_on_c, 0, 48, 0
1, 1120316, Poly_aftertouch_c, 0, 50, 0
1, 1120322, Control_c, 0, 64, 111
1, 1120342, Control_c, 0, 64, 54
1, 1120359, Note_on_c, 0, 36, 77
1, 1120360, Control_c, 0, 64, 0
1, 1120370, Note_on_c, 0, 72, 102
1, 1120399, Note_on_c, 0, 36, 0
1, 1120413, Note_on_c, 0, 48, 69
1, 1120433, Control_c, 0, 64, 47
1, 1120452, Control_c, 0, 64, 93
1, 1120453, Note_on_c, 0, 76, 92
1, 1120460, Note_on_c, 0, 48, 0
1, 1120469, Note_on_c, 0, 72, 0
1, 1120469, Control_c, 0, 64, 127
1, 1120527, Note_on_c, 0, 72, 81
1, 1120550, Note_on_c, 0, 52, 44
1, 1120550, Note_on_c, 0, 53, 34
1, 1120579, Note_on_c, 0, 76, 0
1, 1120595, Note_on_c, 0, 52, 0
1, 1120598, Note_on_c, 0, 53, 0
1, 1120604, Note_on_c, 0, 67, 72
1, 1120654, Note_on_c, 0, 72, 0
1, 1120657, Note_on_c, 0, 55, 60
1, 1120697, Note_on_c, 0, 52, 66
1, 1120699, Note_on_c, 0, 67, 0
1, 1120706, Note_on_c, 0, 55, 0
1, 1120706, Note_on_c, 0, 64, 71
1, 1120751, Note_on_c, 0, 48, 56
1, 1120769, Note_on_c, 0, 52, 0
1, 1120779, Note_on_c, 0, 67, 68
1, 1120786, Note_on_c, 0, 64, 0
1, 1120832, Note_on_c, 0, 48, 0
1, 1120836, Control_c, 0, 64, 122
1, 1120857, Control_c, 0, 64, 81
1, 1120864, Note_on_c, 0, 43, 72
1, 1120873, Note_on_c, 0, 71, 81
1, 1120874, Control_c, 0, 64, 10
1, 1120885, Note_on_c, 0, 67, 0
1, 1120890, Control_c, 0, 64, 0
1, 1120941, Note_on_c, 0, 74, 84
1, 1120943, Note_on_c, 0, 71, 0
1, 1120945, Control_c, 0, 64, 31
1, 1120960, Note_on_c, 0, 43, 0
1, 1120964, Control_c, 0, 64, 63
1, 1120965, Note_on_c, 0, 47, 60
1, 1120984, Control_c, 0, 64, 89
1, 1121001, Control_c, 0, 64, 115
1, 1121003, Note_on_c, 0, 50, 61
1, 1121019, Note_on_c, 0, 47, 0
1, 1121019, Control_c, 0, 64, 127
1, 1121019, Note_on_c, 0, 71, 71
1, 1121055, Note_on_c, 0, 50, 0
1, 1121056, Note_on_c, 0, 74, 0
1, 1121062, Note_on_c, 0, 55, 69
1, 1121093, Note_on_c, 0, 67, 79
1, 1121115, Note_on_c, 0, 71, 0
1, 1121117, Note_on_c, 0, 55, 0
1, 1121136, Note_on_c, 0, 47, 64
1, 1121147, Note_on_c, 0, 50, 29
1, 1121149, Note_on_c, 0, 67, 0
1, 1121160, Note_on_c, 0, 62, 77
1, 1121170, Note_on_c, 0, 47, 0
1, 1121192, Note_on_c, 0, 50, 0
1, 1121233, Note_on_c, 0, 62, 0
1, 1121235, Note_on_c, 0, 67, 74
1, 1121280, Note_on_c, 0, 67, 0
1, 1121333, Control_c, 0, 64, 81
1, 1121352, Control_c, 0, 64, 0
1, 1121364, Note_on_c, 0, 38, 84
1, 1121369, Note_on_c, 0, 74, 102
1, 1121410, Note_on_c, 0, 38, 0
1, 1121420, Note_on_c, 0, 50, 73
1, 1121424, Control_c, 0, 64, 32
1, 1121443, Control_c, 0, 64, 76
1, 1121456, Note_on_c, 0, 77, 97
1, 1121460, Control_c, 0, 64, 104
1, 1121475, Note_on_c, 0, 50, 0
1, 1121480, Control_c, 0, 64, 127
1, 1121484, Note_on_c, 0, 74, 0
1, 1121532, Note_on_c, 0, 74, 82
1, 1121537, Note_on_c, 0, 53, 74
1, 1121594, Note_on_c, 0, 77, 0
1, 1121623, Note_on_c, 0, 69, 80
1, 1121673, Note_on_c, 0, 74, 0
1, 1121692, Note_on_c, 0, 57, 47
1, 1121705, Note_on_c, 0, 69, 0
1, 1121710, Note_on_c, 0, 65, 77
1, 1121732, Note_on_c, 0, 50, 64
1, 1121735, Note_on_c, 0, 57, 0
1, 1121784, Note_on_c, 0, 69, 72
1, 1121791, Note_on_c, 0, 65, 0
1, 1121796, Note_on_c, 0, 53, 0
1, 1121796, Poly_aftertouch_c, 0, 53, 0
1, 1121812, Note_on_c, 0, 50, 0
1, 1121846, Control_c, 0, 64, 119
1, 1121865, Control_c, 0, 64, 79
1, 1121866, Note_on_c, 0, 72, 87
1, 1121874, Note_on_c, 0, 45, 81
1, 1121881, Note_on_c, 0, 69, 0
1, 1121881, Control_c, 0, 64, 17
1, 1121901, Control_c, 0, 64, 0
1, 1121938, Note_on_c, 0, 76, 88
1, 1121946, Note_on_c, 0, 72, 0
1, 1121956, Control_c, 0, 64, 39
1, 1121975, Control_c, 0, 64, 66
1, 1121979, Note_on_c, 0, 48, 65
1, 1121995, Control_c, 0, 64, 86
1, 1122012, Note_on_c, 0, 45, 0
1, 1122012, Control_c, 0, 64, 106
1, 1122013, Note_on_c, 0, 72, 75
1, 1122022, Note_on_c, 0, 52, 73
1, 1122028, Control_c, 0, 64, 117
1, 1122056, Note_on_c, 0, 48, 0
1, 1122058, Note_on_c, 0, 76, 0
1, 1122071, Note_on_c, 0, 52, 0
1, 1122097, Poly_aftertouch_c, 0, 47, 0
1, 1122098, Note_on_c, 0, 57, 63
1, 1122105, Note_on_c, 0, 69, 75
1, 1122115, Note_on_c, 0, 72, 0
1, 1122121, Control_c, 0, 64, 122
1, 1122131, Poly_aftertouch_c, 0, 74, 0
1, 1122140, Control_c, 0, 64, 127
1, 1122146, Note_on_c, 0, 69, 0
1, 1122148, Note_on_c, 0, 57, 0
1, 1122168, Note_on_c, 0, 64, 73
1, 1122188, Note_on_c, 0, 52, 63
1, 1122238, Note_on_c, 0, 64, 0
1, 1122248, Note_on_c, 0, 48, 57
1, 1122255, Note_on_c, 0, 69, 74
1, 1122260, Note_on_c, 0, 52, 0
1, 1122279, Note_on_c, 0, 69, 0
1, 1122291, Note_on_c, 0, 48, 0
1, 1122307, Control_c, 0, 64, 117
1, 1122325, Control_c, 0, 64, 69
1, 1122342, Control_c, 0, 64, 0
1, 1122349, Note_on_c, 0, 41, 99
1, 1122355, Note_on_c, 0, 77, 103
1, 1122399, Control_c, 0, 64, 19
1, 1122417, Control_c, 0, 64, 52
1, 1122436, Control_c, 0, 64, 80
1, 1122446, Note_on_c, 0, 81, 91
1, 1122453, Control_c, 0, 64, 103
1, 1122459, Note_on_c, 0, 77, 0
1, 1122465, Note_on_c, 0, 48, 80
1, 1122472, Control_c, 0, 64, 124
1, 1122535, Note_on_c, 0, 77, 82
1, 1122541, Note_on_c, 0, 50, 62
1, 1122545, Note_on_c, 0, 41, 0
1, 1122573, Note_on_c, 0, 81, 0
1, 1122582, Note_on_c, 0, 48, 0
1, 1122609, Note_on_c, 0, 50, 0
1, 1122620, Note_on_c, 0, 53, 60
1, 1122629, Note_on_c, 0, 72, 82
1, 1122654, Note_on_c, 0, 77, 0
1, 1122695, Note_on_c, 0, 72, 0
1, 1122698, Note_on_c, 0, 69, 77
1, 1122700, Note_on_c, 0, 53, 0
1, 1122700, Note_on_c, 0, 50, 57
1, 1122750, Note_on_c, 0, 48, 59
1, 1122780, Note_on_c, 0, 72, 85
1, 1122784, Note_on_c, 0, 50, 0
1, 1122785, Note_on_c, 0, 69, 0
1, 1122788, Note_on_c, 0, 48, 0
1, 1122819, Control_c, 0, 64, 95
1, 1122836, Control_c, 0, 64, 0
1, 1122846, Note_on_c, 0, 43, 102
1, 1122855, Note_on_c, 0, 74, 96
1, 1122885, Note_on_c, 0, 72, 0
1, 1122930, Control_c, 0, 64, 58
1, 1122944, Note_on_c, 0, 79, 92
1, 1122948, Control_c, 0, 64, 85
1, 1122954, Note_on_c, 0, 74, 0
1, 1122967, Control_c, 0, 64, 109
1, 1122983, Control_c, 0, 64, 123
1, 1122985, Note_on_c, 0, 48, 68
1, 1123021, Note_on_c, 0, 74, 86
1, 1123033, Note_on_c, 0, 50, 67
1, 1123046, Note_on_c, 0, 43, 0
1, 1123080, Note_on_c, 0, 79, 0
1, 1123082, Note_on_c, 0, 76, 20
1, 1123097, Note_on_c, 0, 48, 0
1, 1123106, Note_on_c, 0, 50, 0
1, 1123107, Note_on_c, 0, 72, 82
1, 1123114, Note_on_c, 0, 55, 62
1, 1123116, Note_on_c, 0, 74, 0
1, 1123130, Control_c, 0, 64, 127
1, 1123133, Note_on_c, 0, 76, 0
1, 1123146, Note_on_c, 0, 53, 51
1, 1123171, Note_on_c, 0, 72, 0
1, 1123179, Note_on_c, 0, 67, 74
1, 1123186, Note_on_c, 0, 50, 49
1, 1123198, Note_on_c, 0, 53, 0
1, 1123224, Note_on_c, 0, 55, 0
1, 1123259, Note_on_c, 0, 72, 77
1, 1123261, Note_on_c, 0, 48, 54
1, 1123268, Note_on_c, 0, 67, 0
1, 1123276, Note_on_c, 0, 50, 0
1, 1123297, Control_c, 0, 64, 110
1, 1123315, Control_c, 0, 64, 78
1, 1123332, Note_on_c, 0, 43, 84
1, 1123332, Note_on_c, 0, 74, 87
1, 1123335, Control_c, 0, 64, 56
1, 1123347, Note_on_c, 0, 48, 0
1, 1123358, Note_on_c, 0, 72, 0
1, 1123372, Control_c, 0, 64, 64
1, 1123390, Control_c, 0, 64, 78
1, 1123399, Note_on_c, 0, 79, 86
1, 1123408, Note_on_c, 0, 74, 0
1, 1123409, Control_c, 0, 64, 97
1, 1123441, Control_c, 0, 64, 120
1, 1123460, Control_c, 0, 64, 127
1, 1123476, Note_on_c, 0, 74, 78
1, 1123477, Note_on_c, 0, 47, 61
1, 1123506, Note_on_c, 0, 50, 57
1, 1123508, Note_on_c, 0, 43, 0
1, 1123517, Note_on_c, 0, 47, 0
1, 1123531, Note_on_c, 0, 45, 9
1, 1123535, Note_on_c, 0, 55, 74
1, 1123546, Note_on_c, 0, 76, 23
1, 1123558, Note_on_c, 0, 79, 0
1, 1123564, Note_on_c, 0, 71, 82
1, 1123584, Note_on_c, 0, 45, 0
1, 1123590, Note_on_c, 0, 74, 0
1, 1123600, Note_on_c, 0, 76, 0
1, 1123602, Note_on_c, 0, 55, 0
1, 1123606, Note_on_c, 0, 47, 68
1, 1123610, Note_on_c, 0, 50, 0
1, 1123636, Note_on_c, 0, 71, 0
1, 1123638, Note_on_c, 0, 47, 0
1, 1123644, Note_on_c, 0, 67, 73
1, 1123732, Note_on_c, 0, 67, 0
1, 1123735, Note_on_c, 0, 71, 78
1, 1123772, Control_c, 0, 64, 122
1, 1123792, Control_c, 0, 64, 83
1, 1123802, Note_on_c, 0, 36, 77
1, 1123810, Control_c, 0, 64, 33
1, 1123819, Note_on_c, 0, 76, 82
1, 1123827, Control_c, 0, 64, 0
1, 1123829, Note_on_c, 0, 71, 0
1, 1123840, Note_on_c, 0, 36, 0
1, 1123866, Control_c, 0, 64, 24
1, 1123884, Control_c, 0, 64, 57
1, 1123884, Note_on_c, 0, 79, 78
1, 1123886, Note_on_c, 0, 48, 70
1, 1123897, Note_on_c, 0, 76, 0
1, 1123902, Control_c, 0, 64, 83
1, 1123920, Control_c, 0, 64, 109
1, 1123921, Note_on_c, 0, 48, 0
1, 1123939, Control_c, 0, 64, 127
1, 1123957, Note_on_c, 0, 76, 73
1, 1123998, Note_on_c, 0, 55, 68
1, 1124004, Note_on_c, 0, 79, 0
1, 1124032, Note_on_c, 0, 55, 0
1, 1124036, Note_on_c, 0, 72, 78
1, 1124057, Note_on_c, 0, 52, 65
1, 1124063, Note_on_c, 0, 76, 0
1, 1124091, Note_on_c, 0, 72, 0
1, 1124093, Note_on_c, 0, 52, 0
1, 1124107, Note_on_c, 0, 67, 70
1, 1124150, Note_on_c, 0, 48, 78
1, 1124180, Note_on_c, 0, 67, 0
1, 1124196, Note_on_c, 0, 72, 80
1, 1124234, Note_on_c, 0, 72, 0
1, 1124241, Note_on_c, 0, 48, 0
1, 1124269, Control_c, 0, 64, 77
1, 1124271, Note_on_c, 0, 36, 86
1, 1124288, Control_c, 0, 64, 0
1, 1124288, Note_on_c, 0, 76, 90
1, 1124315, Note_on_c, 0, 36, 0
1, 1124344, Note_on_c, 0, 48, 78
1, 1124377, Control_c, 0, 64, 42
1, 1124383, Note_on_c, 0, 79, 92
1, 1124385, Note_on_c, 0, 48, 0
1, 1124396, Control_c, 0, 64, 81
1, 1124404, Note_on_c, 0, 76, 0
1, 1124414, Control_c, 0, 64, 110
1, 1124432, Control_c, 0, 64, 127
1, 1124446, Note_on_c, 0, 52, 72
1, 1124469, Note_on_c, 0, 76, 80
1, 1124513, Note_on_c, 0, 79, 0
1, 1124527, Note_on_c, 0, 52, 0
1, 1124536, Poly_aftertouch_c, 0, 48, 0
1, 1124546, Note_on_c, 0, 55, 72
1, 1124553, Note_on_c, 0, 72, 67
1, 1124603, Note_on_c, 0, 76, 0
1, 1124628, Note_on_c, 0, 52, 61
1, 1124630, Note_on_c, 0, 67, 77
1, 1124633, Note_on_c, 0, 55, 0
1, 1124636, Note_on_c, 0, 72, 0
1, 1124679, Poly_aftertouch_c, 0, 76, 0
1, 1124691, Note_on_c, 0, 48, 64
1, 1124710, Note_on_c, 0, 72, 69
1, 1124717, Note_on_c, 0, 52, 0
1, 1124722, Note_on_c, 0, 67, 0
1, 1124772, Note_on_c, 0, 48, 0
1, 1124782, Note_on_c, 0, 43, 81
1, 1124782, Control_c, 0, 64, 96
1, 1124791, Note_on_c, 0, 74, 84
1, 1124802, Control_c, 0, 64, 47
1, 1124810, Note_on_c, 0, 72, 0
1, 1124821, Control_c, 0, 64, 0
1, 1124850, Note_on_c, 0, 79, 83
1, 1124860, Note_on_c, 0, 74, 0
1, 1124874, Control_c, 0, 64, 28
1, 1124893, Control_c, 0, 64, 56
1, 1124893, Note_on_c, 0, 47, 64
1, 1124909, Control_c, 0, 64, 80
1, 1124924, Note_on_c, 0, 74, 71
1, 1124928, Control_c, 0, 64, 100
1, 1124931, Note_on_c, 0, 50, 57
1, 1124947, Control_c, 0, 64, 118
1, 1124966, Control_c, 0, 64, 122
1, 1124973, Note_on_c, 0, 55, 65
1, 1125007, Poly_aftertouch_c, 0, 76, 127
1, 1125009, Note_on_c, 0, 71, 78
1, 1125010, Note_on_c, 0, 79, 0
1, 1125016, Note_on_c, 0, 55, 0
1, 1125028, Note_on_c, 0, 50, 0
1, 1125038, Note_on_c, 0, 74, 0
1, 1125040, Control_c, 0, 64, 127
1, 1125046, Note_on_c, 0, 43, 0
1, 1125051, Note_on_c, 0, 47, 0
1, 1125064, Poly_aftertouch_c, 0, 76, 0
1, 1125068, Note_on_c, 0, 71, 0
1, 1125074, Poly_aftertouch_c, 0, 45, 0
1, 1125079, Note_on_c, 0, 67, 63
1, 1125140, Note_on_c, 0, 67, 0
1, 1125144, Note_on_c, 0, 71, 67
1, 1125174, Note_on_c, 0, 71, 0
1, 1125206, Control_c, 0, 64, 95
1, 1125224, Control_c, 0, 64, 31
1, 1125231, Note_on_c, 0, 38, 89
1, 1125242, Note_on_c, 0, 77, 99
1, 1125243, Control_c, 0, 64, 0
1, 1125290, Note_on_c, 0, 38, 0
1, 1125312, Control_c, 0, 64, 48
1, 1125312, Note_on_c, 0, 50, 78
1, 1125328, Note_on_c, 0, 77, 0
1, 1125330, Control_c, 0, 64, 82
1, 1125332, Note_on_c, 0, 40, 39
1, 1125341, Note_on_c, 0, 81, 90
1, 1125348, Control_c, 0, 64, 109
1, 1125368, Note_on_c, 0, 50, 0
1, 1125368, Control_c, 0, 64, 127
1, 1125387, Note_on_c, 0, 40, 0
1, 1125421, Note_on_c, 0, 77, 88
1, 1125432, Note_on_c, 0, 53, 67
1, 1125471, Note_on_c, 0, 81, 0
1, 1125509, Note_on_c, 0, 74, 72
1, 1125552, Note_on_c, 0, 57, 66
1, 1125569, Note_on_c, 0, 53, 0
1, 1125570, Note_on_c, 0, 74, 0
1, 1125575, Note_on_c, 0, 50, 64
1, 1125583, Note_on_c, 0, 69, 75
1, 1125586, Note_on_c, 0, 77, 0
1, 1125616, Note_on_c, 0, 57, 0
1, 1125654, Note_on_c, 0, 74, 80
1, 1125656, Note_on_c, 0, 69, 0
1, 1125666, Note_on_c, 0, 50, 0
1, 1125714, Note_on_c, 0, 45, 87
1, 1125718, Control_c, 0, 64, 104
1, 1125736, Note_on_c, 0, 76, 86
1, 1125737, Control_c, 0, 64, 57
1, 1125756, Control_c, 0, 64, 0
1, 1125757, Note_on_c, 0, 74, 0
1, 1125785, Note_on_c, 0, 81, 87
1, 1125800, Note_on_c, 0, 76, 0
1, 1125806, Note_on_c, 0, 48, 76
1, 1125810, Control_c, 0, 64, 31
1, 1125829, Control_c, 0, 64, 62
1, 1125839, Note_on_c, 0, 45, 0
1, 1125845, Control_c, 0, 64, 86
1, 1125847, Note_on_c, 0, 47, 22
1, 1125852, Note_on_c, 0, 52, 72
1, 1125859, Note_on_c, 0, 76, 72
1, 1125864, Control_c, 0, 64, 110
1, 1125883, Control_c, 0, 64, 125
1, 1125906, Note_on_c, 0, 77, 37
1, 1125911, Note_on_c, 0, 52, 0
1, 1125916, Note_on_c, 0, 48, 0
1, 1125918, Note_on_c, 0, 47, 0
1, 1125925, Note_on_c, 0, 57, 73
1, 1125939, Note_on_c, 0, 81, 0
1, 1125948, Note_on_c, 0, 72, 77
1, 1125950, Note_on_c, 0, 77, 0
1, 1125965, Note_on_c, 0, 76, 0
1, 1125996, Note_on_c, 0, 72, 0
1, 1126000, Note_on_c, 0, 69, 72
1, 1126034, Note_on_c, 0, 52, 70
1, 1126040, Note_on_c, 0, 57, 0
1, 1126061, Note_on_c, 0, 69, 0
1, 1126077, Note_on_c, 0, 72, 69
1, 1126097, Note_on_c, 0, 48, 64
1, 1126109, Note_on_c, 0, 72, 0
1, 1126123, Note_on_c, 0, 52, 0
1, 1126149, Note_on_c, 0, 48, 0
1, 1126204, Note_on_c, 0, 45, 96
1, 1126205, Note_on_c, 0, 81, 104
1, 1126312, Note_on_c, 0, 84, 97
1, 1126323, Note_on_c, 0, 48, 73
1, 1126335, Note_on_c, 0, 81, 0
1, 1126359, Note_on_c, 0, 52, 77
1, 1126387, Note_on_c, 0, 81, 80
1, 1126402, Note_on_c, 0, 48, 0
1, 1126405, Note_on_c, 0, 52, 0
1, 1126422, Note_on_c, 0, 57, 75
1, 1126429, Note_on_c, 0, 84, 0
1, 1126487, Note_on_c, 0, 76, 73
1, 1126495, Note_on_c, 0, 57, 0
1, 1126495, Note_on_c, 0, 52, 59
1, 1126511, Note_on_c, 0, 81, 0
1, 1126522, Note_on_c, 0, 45, 0
1, 1126525, Note_on_c, 0, 48, 65
1, 1126528, Note_on_c, 0, 52, 0
1, 1126543, Poly_aftertouch_c, 0, 80, 0
1, 1126544, Note_on_c, 0, 72, 81
1, 1126548, Note_on_c, 0, 48, 0
1, 1126548, Note_on_c, 0, 76, 0
1, 1126612, Note_on_c, 0, 76, 82
1, 1126628, Note_on_c, 0, 72, 0
1, 1126692, Note_on_c, 0, 76, 0
1, 1126699, Poly_aftertouch_c, 0, 48, 0
1, 1126708, Control_c, 0, 64, 103
1, 1126724, Note_on_c, 0, 38, 97
1, 1126726, Control_c, 0, 64, 35
1, 1126732, Note_on_c, 0, 81, 100
1, 1126746, Control_c, 0, 64, 0
1, 1126800, Control_c, 0, 64, 14
1, 1126818, Control_c, 0, 64, 54
1, 1126837, Control_c, 0, 64, 84
1, 1126839, Note_on_c, 0, 84, 96
1, 1126856, Control_c, 0, 64, 111
1, 1126866, Note_on_c, 0, 81, 0
1, 1126873, Control_c, 0, 64, 127
1, 1126895, Note_on_c, 0, 38, 0
1, 1126898, Note_on_c, 0, 45, 65
1, 1126904, Note_on_c, 0, 47, 64
1, 1126933, Note_on_c, 0, 81, 86
1, 1126940, Note_on_c, 0, 48, 73
1, 1126962, Note_on_c, 0, 47, 0
1, 1126970, Note_on_c, 0, 84, 0
1, 1126974, Poly_aftertouch_c, 0, 40, 0
1, 1126975, Note_on_c, 0, 45, 0
1, 1126980, Note_on_c, 0, 48, 0
1, 1127015, Note_on_c, 0, 78, 80
1, 1127018, Note_on_c, 0, 50, 64
1, 1127056, Note_on_c, 0, 81, 0
1, 1127077, Note_on_c, 0, 50, 0
1, 1127078, Note_on_c, 0, 48, 72
1, 1127082, Note_on_c, 0, 72, 78
1, 1127085, Note_on_c, 0, 78, 0
1, 1127152, Note_on_c, 0, 45, 58
1, 1127187, Note_on_c, 0, 78, 81
1, 1127195, Note_on_c, 0, 48, 0
1, 1127205, Note_on_c, 0, 45, 0
1, 1127220, Note_on_c, 0, 72, 0
1, 1127241, Note_on_c, 0, 38, 92
1, 1127259, Note_on_c, 0, 81, 91
1, 1127303, Note_on_c, 0, 78, 0
1, 1127318, Note_on_c, 0, 84, 81
1, 1127343, Note_on_c, 0, 45, 64
1, 1127350, Note_on_c, 0, 81, 0
1, 1127397, Note_on_c, 0, 38, 0
1, 1127405, Note_on_c, 0, 81, 70
1, 1127422, Poly_aftertouch_c, 0, 40, 0
1, 1127438, Note_on_c, 0, 48, 77
1, 1127467, Note_on_c, 0, 45, 0
1, 1127478, Note_on_c, 0, 84, 0
1, 1127494, Note_on_c, 0, 78, 78
1, 1127523, Note_on_c, 0, 48, 0
1, 1127529, Note_on_c, 0, 50, 59
1, 1127537, Note_on_c, 0, 81, 0
1, 1127556, Note_on_c, 0, 78, 0
1, 1127561, Note_on_c, 0, 72, 67
1, 1127574, Note_on_c, 0, 48, 40
1, 1127592, Note_on_c, 0, 50, 0
1, 1127605, Note_on_c, 0, 45, 65
1, 1127620, Note_on_c, 0, 48, 0
1, 1127645, Note_on_c, 0, 78, 77
1, 1127652, Note_on_c, 0, 45, 0
1, 1127662, Note_on_c, 0, 72, 0
1, 1127701, Control_c, 0, 64, 111
1, 1127713, Note_on_c, 0, 43, 92
1, 1127719, Control_c, 0, 64, 62
1, 1127729, Note_on_c, 0, 79, 83
1, 1127735, Control_c, 0, 64, 0
1, 1127749, Note_on_c, 0, 78, 0
1, 1127791, Control_c, 0, 64, 35
1, 1127794, Note_on_c, 0, 83, 91
1, 1127804, Note_on_c, 0, 50, 78
1, 1127805, Note_on_c, 0, 79, 0
1, 1127810, Control_c, 0, 64, 66
1, 1127829, Control_c, 0, 64, 92
1, 1127848, Control_c, 0, 64, 123
1, 1127851, Note_on_c, 0, 43, 0
1, 1127865, Control_c, 0, 64, 127
1, 1127874, Note_on_c, 0, 79, 80
1, 1127886, Note_on_c, 0, 55, 69
1, 1127890, Note_on_c, 0, 50, 0
1, 1127918, Note_on_c, 0, 83, 0
1, 1127950, Note_on_c, 0, 74, 80
1, 1127961, Note_on_c, 0, 43, 82
1, 1127975, Note_on_c, 0, 55, 0
1, 1128008, Note_on_c, 0, 79, 0
1, 1128014, Note_on_c, 0, 74, 0
1, 1128036, Note_on_c, 0, 71, 72
1, 1128040, Note_on_c, 0, 50, 72
1, 1128082, Note_on_c, 0, 71, 0
1, 1128084, Note_on_c, 0, 43, 0
1, 1128085, Note_on_c, 0, 74, 71
1, 1128122, Note_on_c, 0, 55, 73
1, 1128143, Note_on_c, 0, 74, 0
1, 1128155, Note_on_c, 0, 50, 0
1, 1128175, Note_on_c, 0, 55, 0
1, 1128175, Control_c, 0, 64, 113
1, 1128194, Control_c, 0, 64, 70
1, 1128209, Control_c, 0, 64, 12
1, 1128211, Note_on_c, 0, 43, 92
1, 1128221, Note_on_c, 0, 81, 105
1, 1128228, Control_c, 0, 64, 0
1, 1128248, Control_c, 0, 64, 14
1, 1128268, Control_c, 0, 64, 46
1, 1128286, Control_c, 0, 64, 73
1, 1128304, Control_c, 0, 64, 95
1, 1128311, Note_on_c, 0, 86, 101
1, 1128320, Note_on_c, 0, 81, 0
1, 1128320, Note_on_c, 0, 48, 73
1, 1128323, Control_c, 0, 64, 124
1, 1128361, Note_on_c, 0, 43, 0
1, 1128391, Note_on_c, 0, 81, 84
1, 1128394, Note_on_c, 0, 48, 0
1, 1128405, Note_on_c, 0, 50, 71
1, 1128440, Note_on_c, 0, 86, 0
1, 1128462, Note_on_c, 0, 78, 83
1, 1128477, Note_on_c, 0, 81, 0
1, 1128482, Note_on_c, 0, 50, 0
1, 1128488, Note_on_c, 0, 43, 60
1, 1128500, Note_on_c, 0, 48, 73
1, 1128526, Note_on_c, 0, 74, 82
1, 1128529, Note_on_c, 0, 78, 0
1, 1128568, Note_on_c, 0, 43, 0
1, 1128602, Note_on_c, 0, 48, 0
1, 1128608, Note_on_c, 0, 78, 88
1, 1128610, Note_on_c, 0, 50, 72
1, 1128637, Note_on_c, 0, 74, 0
1, 1128654, Control_c, 0, 64, 84
1, 1128662, Note_on_c, 0, 43, 97
1, 1128671, Control_c, 0, 64, 31
1, 1128681, Note_on_c, 0, 83, 91
1, 1128690, Control_c, 0, 64, 0
1, 1128693, Note_on_c, 0, 50, 0
1, 1128711, Note_on_c, 0, 78, 0
1, 1128720, Note_on_c, 0, 86, 87
1, 1128726, Control_c, 0, 64, 35
1, 1128745, Control_c, 0, 64, 67
1, 1128752, Note_on_c, 0, 83, 0
1, 1128763, Note_on_c, 0, 47, 83
1, 1128765, Control_c, 0, 64, 96
1, 1128783, Control_c, 0, 64, 127
1, 1128813, Note_on_c, 0, 43, 0
1, 1128813, Note_on_c, 0, 83, 81
1, 1128842, Note_on_c, 0, 50, 72
1, 1128858, Note_on_c, 0, 86, 0
1, 1128859, Note_on_c, 0, 47, 0
1, 1128906, Note_on_c, 0, 79, 85
1, 1128919, Note_on_c, 0, 43, 89
1, 1128950, Note_on_c, 0, 83, 0
1, 1128952, Note_on_c, 0, 50, 0
1, 1128962, Note_on_c, 0, 74, 75
1, 1128965, Note_on_c, 0, 79, 0
1, 1128995, Note_on_c, 0, 47, 72
1, 1129039, Note_on_c, 0, 43, 0
1, 1129066, Note_on_c, 0, 79, 89
1, 1129077, Note_on_c, 0, 50, 71
1, 1129081, Note_on_c, 0, 74, 0
1, 1129100, Note_on_c, 0, 47, 0
1, 1129110, Control_c, 0, 64, 81
1, 1129130, Control_c, 0, 64, 0
1, 1129136, Note_on_c, 0, 81, 90
1, 1129149, Note_on_c, 0, 43, 93
1, 1129153, Note_on_c, 0, 79, 0
1, 1129175, Note_on_c, 0, 50, 0
1, 1129202, Note_on_c, 0, 86, 88
1, 1129202, Control_c, 0, 64, 47
1, 1129213, Note_on_c, 0, 81, 0
1, 1129219, Control_c, 0, 64, 82
1, 1129237, Control_c, 0, 64, 111
1, 1129240, Note_on_c, 0, 48, 80
1, 1129256, Control_c, 0, 64, 127
1, 1129274, Note_on_c, 0, 81, 82
1, 1129286, Note_on_c, 0, 43, 0
1, 1129324, Poly_aftertouch_c, 0, 83, 127
1, 1129325, Note_on_c, 0, 50, 64
1, 1129333, Note_on_c, 0, 48, 0
1, 1129340, Note_on_c, 0, 86, 0
1, 1129355, Note_on_c, 0, 78, 81
1, 1129365, Note_on_c, 0, 81, 0
1, 1129368, Poly_aftertouch_c, 0, 83, 0
1, 1129385, Note_on_c, 0, 43, 84
1, 1129405, Note_on_c, 0, 50, 0
1, 1129417, Note_on_c, 0, 78, 0
1, 1129428, Note_on_c, 0, 74, 74
1, 1129468, Note_on_c, 0, 48, 76
1, 1129495, Note_on_c, 0, 43, 0
1, 1129515, Note_on_c, 0, 78, 85
1, 1129530, Note_on_c, 0, 74, 0
1, 1129536, Note_on_c, 0, 50, 68
1, 1129568, Note_on_c, 0, 48, 0
1, 1129571, Control_c, 0, 64, 120
1, 1129588, Control_c, 0, 64, 68
1, 1129594, Note_on_c, 0, 83, 80
1, 1129605, Control_c, 0, 64, 0
1, 1129611, Note_on_c, 0, 43, 96
1, 1129616, Note_on_c, 0, 78, 0
1, 1129627, Note_on_c, 0, 50, 0
1, 1129651, Note_on_c, 0, 86, 94
1, 1129663, Control_c, 0, 64, 24
1, 1129679, Control_c, 0, 64, 60
1, 1129682, Note_on_c, 0, 83, 0
1, 1129699, Control_c, 0, 64, 94
1, 1129706, Note_on_c, 0, 47, 86
1, 1129716, Control_c, 0, 64, 127
1, 1129739, Note_on_c, 0, 83, 78
1, 1129764, Note_on_c, 0, 43, 0
1, 1129785, Note_on_c, 0, 50, 67
1, 1129813, Note_on_c, 0, 47, 0
1, 1129822, Note_on_c, 0, 79, 76
1, 1129825, Control_c, 0, 64, 81
1, 1129847, Control_c, 0, 64, 0
1, 1129871, Note_on_c, 0, 43, 75
1, 1129881, Note_on_c, 0, 83, 0
1, 1129884, Note_on_c, 0, 79, 0
1, 1129890, Note_on_c, 0, 50, 0
1, 1129902, Control_c, 0, 64, 30
1, 1129903, Note_on_c, 0, 74, 70
1, 1129913, Note_on_c, 0, 47, 71
1, 1129920, Control_c, 0, 64, 67
1, 1129939, Control_c, 0, 64, 100
1, 1129944, Note_on_c, 0, 79, 73
1, 1129959, Control_c, 0, 64, 127
1, 1129964, Note_on_c, 0, 74, 0
1, 1129977, Control_c, 0, 67, 8
1, 1129990, Note_on_c, 0, 43, 0
1, 1130003, Note_on_c, 0, 47, 0
1, 1130009, Note_on_c, 0, 79, 0
1, 1130009, Note_on_c, 0, 86, 0
1, 1130013, Note_on_c, 0, 50, 56
1, 1130027, Control_c, 0, 67, 14
1, 1130037, Poly_aftertouch_c, 0, 76, 0
1, 1130043, Note_on_c, 0, 50, 0
1, 1130046, Control_c, 0, 67, 21
1, 1130065, Control_c, 0, 67, 30
1, 1130082, Control_c, 0, 67, 40
1, 1130100, Control_c, 0, 67, 49
1, 1130119, Control_c, 0, 67, 59
1, 1130138, Control_c, 0, 67, 71
1, 1130154, Control_c, 0, 67, 85
1, 1130174, Control_c, 0, 67, 101
1, 1130191, Control_c, 0, 67, 114
1, 1130211, Control_c, 0, 67, 120
1, 1130248, Control_c, 0, 67, 127
1, 1130286, Control_c, 0, 64, 89
1, 1130303, Control_c, 0, 64, 33
1, 1130319, Control_c, 0, 64, 0
1, 1130323, Note_on_c, 0, 43, 49
1, 1130361, Note_on_c, 0, 86, 44
1, 1130396, Control_c, 0, 64, 19
1, 1130405, Note_on_c, 0, 86, 0
1, 1130413, Control_c, 0, 64, 53
1, 1130421, Note_on_c, 0, 90, 66
1, 1130434, Control_c, 0, 64, 78
1, 1130444, Note_on_c, 0, 48, 40
1, 1130448, Note_on_c, 0, 43, 0
1, 1130451, Control_c, 0, 64, 95
1, 1130469, Control_c, 0, 64, 110
1, 1130493, Note_on_c, 0, 86, 60
1, 1130495, Note_on_c, 0, 90, 0
1, 1130509, Note_on_c, 0, 48, 0
1, 1130518, Note_on_c, 0, 50, 16
1, 1130541, Note_on_c, 0, 86, 0
1, 1130560, Note_on_c, 0, 57, 46
1, 1130567, Note_on_c, 0, 81, 50
1, 1130580, Control_c, 0, 64, 115
1, 1130596, Note_on_c, 0, 81, 0
1, 1130615, Note_on_c, 0, 57, 0
1, 1130629, Note_on_c, 0, 78, 66
1, 1130635, Control_c, 0, 64, 119
1, 1130671, Note_on_c, 0, 78, 0
1, 1130691, Control_c, 0, 64, 125
1, 1130692, Note_on_c, 0, 50, 0
1, 1130700, Note_on_c, 0, 48, 30
1, 1130712, Note_on_c, 0, 81, 68
1, 1130743, Note_on_c, 0, 48, 0
1, 1130788, Note_on_c, 0, 43, 56
1, 1130801, Control_c, 0, 64, 111
1, 1130810, Note_on_c, 0, 81, 0
1, 1130817, Note_on_c, 0, 86, 73
1, 1130819, Control_c, 0, 64, 85
1, 1130838, Control_c, 0, 64, 61
1, 1130856, Control_c, 0, 64, 56
1, 1130861, Note_on_c, 0, 86, 0
1, 1130875, Control_c, 0, 64, 60
1, 1130885, Note_on_c, 0, 91, 69
1, 1130894, Control_c, 0, 64, 71
1, 1130907, Note_on_c, 0, 47, 49
1, 1130912, Note_on_c, 0, 43, 0
1, 1130927, Control_c, 0, 64, 84
1, 1130944, Control_c, 0, 64, 100
1, 1130963, Control_c, 0, 64, 113
1, 1130972, Note_on_c, 0, 86, 59
1, 1130982, Control_c, 0, 64, 118
1, 1130987, Note_on_c, 0, 91, 0
1, 1131002, Note_on_c, 0, 50, 28
1, 1131008, Note_on_c, 0, 47, 0
1, 1131036, Note_on_c, 0, 55, 56
1, 1131056, Note_on_c, 0, 86, 0
1, 1131058, Note_on_c, 0, 83, 60
1, 1131065, Note_on_c, 0, 50, 0
1, 1131074, Control_c, 0, 64, 122
1, 1131091, Note_on_c, 0, 83, 0
1, 1131124, Note_on_c, 0, 50, 45
1, 1131127, Control_c, 0, 64, 127
1, 1131143, Note_on_c, 0, 55, 0
1, 1131144, Note_on_c, 0, 79, 51
1, 1131195, Note_on_c, 0, 83, 53
1, 1131197, Note_on_c, 0, 47, 44
1, 1131208, Note_on_c, 0, 79, 0
1, 1131277, Note_on_c, 0, 47, 0
1, 1131280, Note_on_c, 0, 50, 0
1, 1131292, Note_on_c, 0, 83, 0
1, 1131295, Control_c, 0, 64, 109
1, 1131300, Note_on_c, 0, 86, 67
1, 1131300, Note_on_c, 0, 43, 65
1, 1131313, Control_c, 0, 64, 81
1, 1131332, Control_c, 0, 64, 59
1, 1131350, Control_c, 0, 64, 57
1, 1131369, Control_c, 0, 64, 63
1, 1131380, Note_on_c, 0, 90, 72
1, 1131384, Note_on_c, 0, 86, 0
1, 1131387, Control_c, 0, 64, 75
1, 1131403, Control_c, 0, 64, 92
1, 1131404, Note_on_c, 0, 48, 51
1, 1131406, Note_on_c, 0, 43, 0
1, 1131422, Control_c, 0, 64, 112
1, 1131430, Note_on_c, 0, 50, 59
1, 1131441, Control_c, 0, 64, 125
1, 1131448, Note_on_c, 0, 86, 63
1, 1131469, Note_on_c, 0, 90, 0
1, 1131490, Note_on_c, 0, 48, 0
1, 1131499, Note_on_c, 0, 50, 0
1, 1131519, Note_on_c, 0, 86, 0
1, 1131533, Note_on_c, 0, 57, 52
1, 1131568, Note_on_c, 0, 81, 21
1, 1131594, Note_on_c, 0, 50, 35
1, 1131602, Note_on_c, 0, 57, 0
1, 1131611, Note_on_c, 0, 78, 71
1, 1131621, Note_on_c, 0, 81, 0
1, 1131625, Note_on_c, 0, 48, 56
1, 1131660, Note_on_c, 0, 50, 0
1, 1131663, Note_on_c, 0, 78, 0
1, 1131675, Note_on_c, 0, 81, 72
1, 1131696, Note_on_c, 0, 48, 0
1, 1131750, Note_on_c, 0, 43, 63
1, 1131772, Control_c, 0, 64, 103
1, 1131774, Note_on_c, 0, 86, 79
1, 1131776, Note_on_c, 0, 81, 0
1, 1131792, Control_c, 0, 64, 72
1, 1131812, Control_c, 0, 64, 52
1, 1131838, Note_on_c, 0, 86, 0
1, 1131842, Note_on_c, 0, 91, 67
1, 1131849, Control_c, 0, 64, 61
1, 1131870, Note_on_c, 0, 47, 48
1, 1131875, Note_on_c, 0, 43, 0
1, 1131881, Control_c, 0, 64, 75
1, 1131896, Note_on_c, 0, 50, 52
1, 1131898, Control_c, 0, 64, 92
1, 1131901, Note_on_c, 0, 89, 40
1, 1131913, Note_on_c, 0, 86, 59
1, 1131917, Control_c, 0, 64, 113
1, 1131926, Note_on_c, 0, 47, 0
1, 1131936, Control_c, 0, 64, 127
1, 1131943, Note_on_c, 0, 91, 0
1, 1131943, Note_on_c, 0, 89, 0
1, 1131957, Note_on_c, 0, 50, 0
1, 1131973, Note_on_c, 0, 55, 38
1, 1131990, Control_c, 0, 67, 122
1, 1132008, Control_c, 0, 67, 111
1, 1132011, Note_on_c, 0, 86, 0
1, 1132012, Note_on_c, 0, 83, 66
1, 1132028, Note_on_c, 0, 55, 0
1, 1132030, Control_c, 0, 67, 96
1, 1132045, Control_c, 0, 67, 78
1, 1132049, Note_on_c, 0, 83, 0
1, 1132050, Note_on_c, 0, 47, 55
1, 1132064, Control_c, 0, 67, 58
1, 1132066, Note_on_c, 0, 79, 71
1, 1132084, Control_c, 0, 67, 38
1, 1132100, Control_c, 0, 67, 21
1, 1132103, Note_on_c, 0, 79, 0
1, 1132137, Control_c, 0, 67, 0
1, 1132146, Note_on_c, 0, 83, 66
1, 1132165, Note_on_c, 0, 47, 0
1, 1132192, Control_c, 0, 64, 118
1, 1132194, Note_on_c, 0, 83, 0
1, 1132211, Control_c, 0, 64, 64
1, 1132219, Note_on_c, 0, 43, 98
1, 1132230, Control_c, 0, 64, 0
1, 1132235, Note_on_c, 0, 81, 100
1, 1132305, Control_c, 0, 64, 44
1, 1132323, Control_c, 0, 64, 76
1, 1132323, Note_on_c, 0, 48, 78
1, 1132328, Note_on_c, 0, 86, 91
1, 1132331, Note_on_c, 0, 81, 0
1, 1132340, Control_c, 0, 64, 102
1, 1132359, Control_c, 0, 64, 127
1, 1132374, Note_on_c, 0, 43, 0
1, 1132403, Poly_aftertouch_c, 0, 45, 0
1, 1132411, Note_on_c, 0, 81, 79
1, 1132423, Note_on_c, 0, 50, 71
1, 1132458, Note_on_c, 0, 86, 0
1, 1132475, Note_on_c, 0, 78, 88
1, 1132480, Note_on_c, 0, 43, 89
1, 1132498, Note_on_c, 0, 81, 0
1, 1132499, Note_on_c, 0, 50, 0
1, 1132550, Note_on_c, 0, 78, 0
1, 1132552, Note_on_c, 0, 74, 75
1, 1132586, Note_on_c, 0, 43, 0
1, 1132605, Note_on_c, 0, 50, 77
1, 1132628, Note_on_c, 0, 48, 0
1, 1132629, Poly_aftertouch_c, 0, 48, 0
1, 1132631, Note_on_c, 0, 78, 84
1, 1132671, Control_c, 0, 64, 96
1, 1132672, Note_on_c, 0, 74, 0
1, 1132675, Note_on_c, 0, 43, 98
1, 1132690, Control_c, 0, 64, 28
1, 1132700, Note_on_c, 0, 50, 0
1, 1132704, Note_on_c, 0, 83, 89
1, 1132705, Control_c, 0, 64, 0
1, 1132730, Note_on_c, 0, 78, 0
1, 1132757, Note_on_c, 0, 86, 87
1, 1132759, Note_on_c, 0, 47, 80
1, 1132762, Control_c, 0, 64, 36
1, 1132783, Control_c, 0, 64, 71
1, 1132806, Note_on_c, 0, 83, 0
1, 1132817, Control_c, 0, 64, 98
1, 1132835, Control_c, 0, 64, 127
1, 1132838, Note_on_c, 0, 43, 0
1, 1132853, Note_on_c, 0, 50, 71
1, 1132864, Note_on_c, 0, 83, 81
1, 1132879, Note_on_c, 0, 47, 0
1, 1132879, Poly_aftertouch_c, 0, 45, 0
1, 1132905, Note_on_c, 0, 86, 0
1, 1132934, Note_on_c, 0, 43, 88
1, 1132954, Note_on_c, 0, 79, 78
1, 1132957, Note_on_c, 0, 50, 0
1, 1133010, Note_on_c, 0, 47, 79
1, 1133013, Note_on_c, 0, 79, 0
1, 1133017, Note_on_c, 0, 74, 76
1, 1133028, Note_on_c, 0, 83, 0
1, 1133058, Note_on_c, 0, 43, 0
1, 1133070, Note_on_c, 0, 50, 65
1, 1133091, Note_on_c, 0, 74, 0
1, 1133094, Note_on_c, 0, 79, 84
1, 1133106, Note_on_c, 0, 47, 0
1, 1133109, Control_c, 0, 64, 117
1, 1133128, Control_c, 0, 64, 68
1, 1133145, Control_c, 0, 64, 0
1, 1133149, Note_on_c, 0, 43, 89
1, 1133169, Note_on_c, 0, 81, 90
1, 1133170, Note_on_c, 0, 50, 0
1, 1133196, Note_on_c, 0, 79, 0
1, 1133219, Control_c, 0, 64, 42
1, 1133233, Note_on_c, 0, 86, 91
1, 1133238, Note_on_c, 0, 48, 81
1, 1133238, Control_c, 0, 64, 76
1, 1133247, Note_on_c, 0, 81, 0
1, 1133257, Control_c, 0, 64, 101
1, 1133275, Control_c, 0, 64, 127
1, 1133284, Note_on_c, 0, 43, 0
1, 1133301, Note_on_c, 0, 81, 79
1, 1133303, Note_on_c, 0, 50, 73
1, 1133327, Note_on_c, 0, 48, 0
1, 1133367, Note_on_c, 0, 86, 0
1, 1133377, Note_on_c, 0, 43, 82
1, 1133385, Note_on_c, 0, 78, 86
1, 1133394, Note_on_c, 0, 50, 0
1, 1133406, Note_on_c, 0, 81, 0
1, 1133431, Poly_aftertouch_c, 0, 83, 0
1, 1133447, Note_on_c, 0, 48, 70
1, 1133456, Note_on_c, 0, 74, 80
1, 1133462, Note_on_c, 0, 78, 0
1, 1133499, Note_on_c, 0, 43, 0
1, 1133521, Note_on_c, 0, 50, 70
1, 1133542, Note_on_c, 0, 48, 0
1, 1133543, Note_on_c, 0, 78, 85
1, 1133564, Note_on_c, 0, 74, 0
1, 1133568, Control_c, 0, 64, 102
1, 1133590, Control_c, 0, 64, 51
1, 1133607, Control_c, 0, 64, 0
1, 1133614, Note_on_c, 0, 43, 91
1, 1133624, Note_on_c, 0, 83, 85
1, 1133626, Note_on_c, 0, 50, 0
1, 1133657, Note_on_c, 0, 78, 0
1, 1133661, Control_c, 0, 64, 35
1, 1133678, Control_c, 0, 64, 72
1, 1133681, Note_on_c, 0, 86, 90
1, 1133698, Control_c, 0, 64, 105
1, 1133702, Note_on_c, 0, 47, 76
1, 1133712, Note_on_c, 0, 83, 0
1, 1133717, Control_c, 0, 64, 127
1, 1133765, Note_on_c, 0, 43, 0
1, 1133782, Note_on_c, 0, 83, 79
1, 1133792, Note_on_c, 0, 50, 63
1, 1133807, Control_c, 0, 64, 77
1, 1133812, Note_on_c, 0, 47, 0
1, 1133824, Control_c, 0, 64, 0
1, 1133865, Note_on_c, 0, 79, 76
1, 1133877, Note_on_c, 0, 43, 75
1, 1133880, Control_c, 0, 67, 8
1, 1133897, Control_c, 0, 64, 46
1, 1133905, Note_on_c, 0, 50, 0
1, 1133916, Control_c, 0, 64, 81
1, 1133918, Note_on_c, 0, 47, 64
1, 1133930, Note_on_c, 0, 79, 0
1, 1133932, Note_on_c, 0, 83, 0
1, 1133933, Note_on_c, 0, 74, 77
1, 1133935, Control_c, 0, 64, 106
1, 1133938, Control_c, 0, 67, 13
1, 1133953, Control_c, 0, 64, 127
1, 1133971, Control_c, 0, 67, 19
1, 1133990, Note_on_c, 0, 43, 0
1, 1133990, Control_c, 0, 67, 24
1, 1133992, Note_on_c, 0, 50, 45
1, 1133995, Note_on_c, 0, 79, 70
1, 1134002, Note_on_c, 0, 47, 0
1, 1134003, Note_on_c, 0, 74, 0
1, 1134008, Control_c, 0, 67, 28
1, 1134028, Control_c, 0, 67, 33
1, 1134037, Note_on_c, 0, 79, 0
1, 1134039, Note_on_c, 0, 86, 0
1, 1134039, Note_on_c, 0, 50, 0
1, 1134044, Control_c, 0, 67, 39
1, 1134063, Control_c, 0, 67, 45
1, 1134083, Control_c, 0, 67, 53
1, 1134101, Control_c, 0, 67, 60
1, 1134119, Control_c, 0, 67, 68
1, 1134137, Control_c, 0, 67, 76
1, 1134156, Control_c, 0, 67, 85
1, 1134175, Control_c, 0, 67, 95
1, 1134194, Control_c, 0, 67, 105
1, 1134212, Control_c, 0, 67, 113
1, 1134232, Control_c, 0, 64, 115
1, 1134233, Control_c, 0, 67, 119
1, 1134250, Control_c, 0, 64, 79
1, 1134254, Control_c, 0, 67, 125
1, 1134268, Control_c, 0, 64, 22
1, 1134285, Control_c, 0, 64, 0
1, 1134288, Note_on_c, 0, 43, 53
1, 1134312, Note_on_c, 0, 86, 67
1, 1134341, Control_c, 0, 64, 32
1, 1134360, Control_c, 0, 64, 60
1, 1134375, Note_on_c, 0, 86, 0
1, 1134379, Control_c, 0, 64, 83
1, 1134385, Note_on_c, 0, 90, 67
1, 1134388, Note_on_c, 0, 43, 0
1, 1134398, Control_c, 0, 64, 101
1, 1134409, Note_on_c, 0, 48, 39
1, 1134416, Control_c, 0, 64, 113
1, 1134458, Note_on_c, 0, 48, 0
1, 1134460, Note_on_c, 0, 90, 0
1, 1134466, Note_on_c, 0, 50, 14
1, 1134471, Note_on_c, 0, 86, 47
1, 1134492, Note_on_c, 0, 81, 66
1, 1134502, Note_on_c, 0, 86, 0
1, 1134512, Note_on_c, 0, 57, 45
1, 1134544, Control_c, 0, 64, 117
1, 1134549, Note_on_c, 0, 81, 0
1, 1134570, Note_on_c, 0, 57, 0
1, 1134590, Note_on_c, 0, 50, 0
1, 1134590, Note_on_c, 0, 50, 26
1, 1134594, Note_on_c, 0, 78, 67
1, 1134630, Note_on_c, 0, 78, 0
1, 1134636, Control_c, 0, 64, 121
1, 1134657, Note_on_c, 0, 48, 29
1, 1134673, Note_on_c, 0, 50, 0
1, 1134687, Control_c, 0, 64, 125
1, 1134705, Note_on_c, 0, 81, 64
1, 1134721, Note_on_c, 0, 48, 0
1, 1134742, Note_on_c, 0, 81, 0
1, 1134752, Note_on_c, 0, 43, 59
1, 1134780, Control_c, 0, 64, 111
1, 1134794, Note_on_c, 0, 86, 70
1, 1134797, Control_c, 0, 64, 87
1, 1134817, Control_c, 0, 64, 61
1, 1134834, Note_on_c, 0, 86, 0
1, 1134834, Control_c, 0, 64, 50
1, 1134857, Note_on_c, 0, 91, 65
1, 1134872, Control_c, 0, 64, 62
1, 1134877, Note_on_c, 0, 47, 50
1, 1134878, Note_on_c, 0, 43, 0
1, 1134890, Control_c, 0, 64, 76
1, 1134909, Control_c, 0, 64, 90
1, 1134926, Note_on_c, 0, 86, 63
1, 1134926, Control_c, 0, 64, 106
1, 1134945, Control_c, 0, 64, 116
1, 1134955, Note_on_c, 0, 50, 48
1, 1134967, Note_on_c, 0, 91, 0
1, 1134977, Note_on_c, 0, 47, 0
1, 1134996, Note_on_c, 0, 50, 0
1, 1135013, Note_on_c, 0, 83, 67
1, 1135020, Note_on_c, 0, 86, 0
1, 1135025, Note_on_c, 0, 55, 54
1, 1135037, Control_c, 0, 64, 121
1, 1135055, Note_on_c, 0, 83, 0
1, 1135073, Control_c, 0, 64, 125
1, 1135088, Note_on_c, 0, 79, 61
1, 1135101, Note_on_c, 0, 55, 0
1, 1135120, Note_on_c, 0, 50, 53
1, 1135167, Note_on_c, 0, 79, 0
1, 1135180, Note_on_c, 0, 83, 61
1, 1135184, Note_on_c, 0, 47, 48
1, 1135191, Note_on_c, 0, 50, 0
1, 1135221, Control_c, 0, 64, 115
1, 1135236, Note_on_c, 0, 83, 0
1, 1135239, Control_c, 0, 64, 90
1, 1135240, Note_on_c, 0, 86, 71
1, 1135257, Note_on_c, 0, 47, 0
1, 1135258, Control_c, 0, 64, 68
1, 1135269, Note_on_c, 0, 43, 65
1, 1135276, Control_c, 0, 64, 60
1, 1135296, Control_c, 0, 64, 63
1, 1135313, Control_c, 0, 64, 73
1, 1135320, Note_on_c, 0, 86, 0
1, 1135321, Note_on_c, 0, 90, 76
1, 1135335, Control_c, 0, 64, 88
1, 1135337, Control_c, 0, 67, 119
1, 1135352, Control_c, 0, 64, 107
1, 1135353, Control_c, 0, 67, 113
1, 1135370, Control_c, 0, 64, 122
1, 1135371, Control_c, 0, 67, 107
1, 1135376, Note_on_c, 0, 43, 0
1, 1135389, Control_c, 0, 64, 126
1, 1135390, Control_c, 0, 67, 99
1, 1135394, Note_on_c, 0, 86, 69
1, 1135396, Note_on_c, 0, 48, 47
1, 1135408, Control_c, 0, 67, 88
1, 1135412, Note_on_c, 0, 90, 0
1, 1135424, Note_on_c, 0, 50, 59
1, 1135426, Control_c, 0, 67, 71
1, 1135441, Control_c, 0, 67, 49
1, 1135463, Control_c, 0, 67, 24
1, 1135465, Note_on_c, 0, 48, 0
1, 1135470, Note_on_c, 0, 86, 0
1, 1135471, Note_on_c, 0, 81, 68
1, 1135477, Note_on_c, 0, 50, 0
1, 1135482, Control_c, 0, 67, 0
1, 1135501, Note_on_c, 0, 57, 45
1, 1135507, Note_on_c, 0, 81, 0
1, 1135550, Note_on_c, 0, 78, 75
1, 1135577, Note_on_c, 0, 50, 61
1, 1135580, Note_on_c, 0, 57, 0
1, 1135620, Note_on_c, 0, 78, 0
1, 1135625, Note_on_c, 0, 81, 77
1, 1135648, Note_on_c, 0, 48, 57
1, 1135665, Note_on_c, 0, 50, 0
1, 1135705, Note_on_c, 0, 81, 0
1, 1135707, Note_on_c, 0, 86, 89
1, 1135713, Control_c, 0, 64, 118
1, 1135732, Control_c, 0, 64, 91
1, 1135734, Note_on_c, 0, 48, 0
1, 1135736, Note_on_c, 0, 43, 73
1, 1135752, Control_c, 0, 64, 66
1, 1135770, Control_c, 0, 64, 57
1, 1135778, Note_on_c, 0, 91, 90
1, 1135782, Note_on_c, 0, 86, 0
1, 1135789, Control_c, 0, 64, 60
1, 1135807, Control_c, 0, 64, 71
1, 1135825, Control_c, 0, 64, 86
1, 1135830, Note_on_c, 0, 47, 77
1, 1135844, Control_c, 0, 64, 105
1, 1135845, Note_on_c, 0, 86, 73
1, 1135848, Note_on_c, 0, 43, 0
1, 1135863, Control_c, 0, 64, 123
1, 1135881, Control_c, 0, 64, 127
1, 1135898, Note_on_c, 0, 88, 37
1, 1135905, Note_on_c, 0, 50, 65
1, 1135908, Poly_aftertouch_c, 0, 45, 0
1, 1135913, Note_on_c, 0, 91, 0
1, 1135939, Note_on_c, 0, 83, 83
1, 1135940, Note_on_c, 0, 88, 0
1, 1135947, Note_on_c, 0, 50, 0
1, 1135950, Note_on_c, 0, 47, 0
1, 1135953, Note_on_c, 0, 55, 73
1, 1135965, Note_on_c, 0, 86, 0
1, 1136010, Note_on_c, 0, 79, 80
1, 1136012, Note_on_c, 0, 83, 0
1, 1136023, Note_on_c, 0, 50, 73
1, 1136042, Poly_aftertouch_c, 0, 45, 0
1, 1136071, Note_on_c, 0, 55, 0
1, 1136084, Note_on_c, 0, 83, 71
1, 1136116, Note_on_c, 0, 47, 74
1, 1136125, Note_on_c, 0, 79, 0
1, 1136143, Note_on_c, 0, 50, 0
1, 1136156, Control_c, 0, 64, 110
1, 1136162, Note_on_c, 0, 86, 90
1, 1136175, Control_c, 0, 64, 79
1, 1136175, Note_on_c, 0, 43, 92
1, 1136184, Note_on_c, 0, 83, 0
1, 1136191, Note_on_c, 0, 47, 0
1, 1136193, Control_c, 0, 64, 54
1, 1136213, Control_c, 0, 64, 51
1, 1136221, Note_on_c, 0, 90, 78
1, 1136229, Control_c, 0, 64, 57
1, 1136248, Control_c, 0, 64, 73
1, 1136259, Note_on_c, 0, 86, 0
1, 1136266, Control_c, 0, 64, 91
1, 1136268, Note_on_c, 0, 48, 86
1, 1136285, Control_c, 0, 64, 115
1, 1136297, Note_on_c, 0, 43, 0
1, 1136303, Control_c, 0, 64, 127
1, 1136309, Note_on_c, 0, 86, 71
1, 1136322, Note_on_c, 0, 50, 59
1, 1136332, Poly_aftertouch_c, 0, 45, 127
1, 1136351, Note_on_c, 0, 90, 0
1, 1136374, Note_on_c, 0, 48, 0
1, 1136375, Poly_aftertouch_c, 0, 45, 0
1, 1136392, Note_on_c, 0, 57, 77
1, 1136398, Note_on_c, 0, 50, 0
1, 1136399, Note_on_c, 0, 81, 76
1, 1136407, Note_on_c, 0, 86, 0
1, 1136465, Note_on_c, 0, 81, 0
1, 1136478, Note_on_c, 0, 50, 72
1, 1136482, Note_on_c, 0, 78, 78
1, 1136491, Note_on_c, 0, 57, 0
1, 1136548, Note_on_c, 0, 48, 66
1, 1136565, Note_on_c, 0, 78, 0
1, 1136568, Note_on_c, 0, 81, 82
1, 1136591, Note_on_c, 0, 50, 0
1, 1136617, Note_on_c, 0, 48, 0
1, 1136620, Note_on_c, 0, 81, 0
1, 1136640, Note_on_c, 0, 43, 90
1, 1136650, Control_c, 0, 64, 95
1, 1136652, Note_on_c, 0, 86, 96
1, 1136669, Control_c, 0, 64, 65
1, 1136688, Control_c, 0, 64, 50
1, 1136705, Control_c, 0, 64, 52
1, 1136724, Control_c, 0, 64, 64
1, 1136727, Note_on_c, 0, 91, 80
1, 1136729, Note_on_c, 0, 86, 0
1, 1136733, Note_on_c, 0, 47, 82
1, 1136737, Note_on_c, 0, 93, 76
1, 1136742, Control_c, 0, 64, 78
1, 1136758, Note_on_c, 0, 45, 52
1, 1136759, Note_on_c, 0, 93, 0
1, 1136761, Control_c, 0, 64, 96
1, 1136772, Note_on_c, 0, 43, 0
1, 1136779, Control_c, 0, 64, 119
1, 1136798, Control_c, 0, 64, 127
1, 1136798, Note_on_c, 0, 86, 82
1, 1136802, Note_on_c, 0, 45, 0
1, 1136807, Note_on_c, 0, 50, 70
1, 1136861, Note_on_c, 0, 50, 0
1, 1136867, Note_on_c, 0, 47, 0
1, 1136870, Note_on_c, 0, 55, 76
1, 1136886, Note_on_c, 0, 83, 81
1, 1136906, Note_on_c, 0, 86, 0
1, 1136906, Note_on_c, 0, 91, 0
1, 1136950, Note_on_c, 0, 50, 74
1, 1136951, Note_on_c, 0, 83, 0
1, 1136956, Note_on_c, 0, 79, 80
1, 1136977, Note_on_c, 0, 55, 0
1, 1137024, Note_on_c, 0, 83, 71
1, 1137031, Note_on_c, 0, 47, 63
1, 1137060, Note_on_c, 0, 79, 0
1, 1137071, Note_on_c, 0, 50, 0
1, 1137093, Control_c, 0, 64, 101
1, 1137101, Note_on_c, 0, 43, 92
1, 1137106, Note_on_c, 0, 86, 89
1, 1137112, Control_c, 0, 64, 60
1, 1137120, Note_on_c, 0, 47, 0
1, 1137130, Control_c, 0, 64, 24
1, 1137131, Note_on_c, 0, 83, 0
1, 1137165, Control_c, 0, 64, 33
1, 1137173, Note_on_c, 0, 90, 91
1, 1137184, Control_c, 0, 64, 60
1, 1137194, Note_on_c, 0, 48, 85
1, 1137203, Control_c, 0, 64, 89
1, 1137208, Note_on_c, 0, 86, 0
1, 1137222, Control_c, 0, 64, 127
1, 1137227, Note_on_c, 0, 43, 0
1, 1137234, Note_on_c, 0, 50, 68
1, 1137237, Note_on_c, 0, 45, 32
1, 1137267, Note_on_c, 0, 86, 80
1, 1137288, Note_on_c, 0, 45, 0
1, 1137303, Note_on_c, 0, 48, 0
1, 1137310, Note_on_c, 0, 57, 80
1, 1137312, Note_on_c, 0, 90, 0
1, 1137325, Note_on_c, 0, 50, 0
1, 1137355, Note_on_c, 0, 81, 80
1, 1137360, Note_on_c, 0, 86, 0
1, 1137414, Note_on_c, 0, 50, 68
1, 1137427, Note_on_c, 0, 78, 85
1, 1137430, Note_on_c, 0, 48, 73
1, 1137431, Note_on_c, 0, 57, 0
1, 1137432, Note_on_c, 0, 81, 0
1, 1137490, Note_on_c, 0, 50, 0
1, 1137500, Note_on_c, 0, 81, 72
1, 1137516, Note_on_c, 0, 78, 0
1, 1137518, Note_on_c, 0, 48, 0
1, 1137530, Note_on_c, 0, 81, 0
1, 1137660, Control_c, 0, 64, 87
1, 1137677, Control_c, 0, 64, 0
1, 1137686, Note_on_c, 0, 55, 98
1, 1137690, Note_on_c, 0, 91, 98
1, 1137691, Note_on_c, 0, 50, 80
1, 1137692, Note_on_c, 0, 43, 86
1, 1137704, Note_on_c, 0, 47, 74
1, 1137708, Note_on_c, 0, 79, 80
1, 1137709, Note_on_c, 0, 89, 75
1, 1137732, Note_on_c, 0, 89, 0
1, 1137755, Note_on_c, 0, 46, 23
1, 1137756, Note_on_c, 0, 46, 0
1, 1137790, Control_c, 0, 64, 38
1, 1137807, Control_c, 0, 64, 75
1, 1137826, Control_c, 0, 64, 96
1, 1137846, Control_c, 0, 64, 117
1, 1137858, Note_on_c, 0, 91, 0
1, 1137863, Control_c, 0, 64, 122
1, 1137865, Note_on_c, 0, 79, 0
1, 1138084, Control_c, 0, 64, 126
1, 1138200, Note_on_c, 0, 79, 87
1, 1138215, Note_on_c, 0, 67, 67
1, 1138216, Note_on_c, 0, 74, 70
1, 1138219, Note_on_c, 0, 71, 66
1, 1138255, Note_on_c, 0, 67, 0
1, 1138293, Note_on_c, 0, 71, 0
1, 1138305, Control_c, 0, 64, 122
1, 1138307, Note_on_c, 0, 74, 0
1, 1138310, Note_on_c, 0, 79, 0
1, 1138700, Note_on_c, 0, 79, 103
1, 1138705, Note_on_c, 0, 74, 91
1, 1138707, Note_on_c, 0, 71, 89
1, 1138714, Note_on_c, 0, 67, 90
1, 1138733, Note_on_c, 0, 55, 0
1, 1138749, Note_on_c, 0, 43, 0
1, 1138770, Note_on_c, 0, 50, 0
1, 1138781, Poly_aftertouch_c, 0, 70, 0
1, 1138795, Note_on_c, 0, 47, 0
1, 1138815, Control_c, 0, 64, 126
1, 1139179, Note_on_c, 0, 55, 83
1, 1139182, Note_on_c, 0, 43, 73
1, 1139191, Note_on_c, 0, 50, 74
1, 1139203, Note_on_c, 0, 47, 65
1, 1139233, Note_on_c, 0, 55, 0
1, 1139255, Note_on_c, 0, 43, 0
1, 1139265, Note_on_c, 0, 50, 0
1, 1139284, Note_on_c, 0, 47, 0
1, 1139690, Note_on_c, 0, 43, 98
1, 1139691, Note_on_c, 0, 31, 92
1, 1139703, Note_on_c, 0, 67, 0
1, 1139732, Note_on_c, 0, 31, 0
1, 1139735, Note_on_c, 0, 43, 0
1, 1139735, Note_on_c, 0, 71, 0
1, 1139757, Note_on_c, 0, 74, 0
1, 1139796, Note_on_c, 0, 79, 0
1, 1140164, Note_on_c, 0, 83, 86
1, 1140178, Note_on_c, 0, 79, 75
1, 1140184, Note_on_c, 0, 71, 68
1, 1140189, Note_on_c, 0, 74, 65
1, 1140215, Note_on_c, 0, 71, 0
1, 1140237, Note_on_c, 0, 74, 0
1, 1140248, Note_on_c, 0, 83, 0
1, 1140265, Note_on_c, 0, 79, 0
1, 1140583, Poly_aftertouch_c, 0, 75, 0
1, 1140638, Note_on_c, 0, 83, 102
1, 1140639, Note_on_c, 0, 74, 99
1, 1140642, Note_on_c, 0, 79, 96
1, 1140650, Note_on_c, 0, 71, 99
1, 1141086, Note_on_c, 0, 55, 93
1, 1141090, Note_on_c, 0, 43, 81
1, 1141098, Note_on_c, 0, 50, 83
1, 1141108, Note_on_c, 0, 47, 74
1, 1141131, Note_on_c, 0, 55, 0
1, 1141161, Note_on_c, 0, 43, 0
1, 1141162, Note_on_c, 0, 50, 0
1, 1141172, Note_on_c, 0, 47, 0
1, 1141595, Note_on_c, 0, 31, 92
1, 1141595, Note_on_c, 0, 43, 102
1, 1141632, Note_on_c, 0, 71, 0
1, 1141647, Note_on_c, 0, 43, 0
1, 1141648, Note_on_c, 0, 74, 0
1, 1141649, Note_on_c, 0, 31, 0
1, 1141676, Note_on_c, 0, 79, 0
1, 1141702, Note_on_c, 0, 83, 0
1, 1142050, Note_on_c, 0, 86, 93
1, 1142057, Note_on_c, 0, 83, 83
1, 1142061, Note_on_c, 0, 74, 76
1, 1142063, Note_on_c, 0, 77, 75
1, 1142092, Note_on_c, 0, 74, 0
1, 1142113, Note_on_c, 0, 77, 0
1, 1142116, Note_on_c, 0, 86, 0
1, 1142137, Note_on_c, 0, 83, 0
1, 1142535, Note_on_c, 0, 86, 103
1, 1142537, Note_on_c, 0, 83, 97
1, 1142537, Note_on_c, 0, 77, 99
1, 1142542, Note_on_c, 0, 74, 101
1, 1143000, Note_on_c, 0, 55, 99
1, 1143002, Note_on_c, 0, 43, 85
1, 1143013, Note_on_c, 0, 50, 87
1, 1143019, Note_on_c, 0, 47, 77
1, 1143046, Note_on_c, 0, 55, 0
1, 1143073, Note_on_c, 0, 50, 0
1, 1143080, Note_on_c, 0, 43, 0
1, 1143102, Note_on_c, 0, 47, 0
1, 1143486, Note_on_c, 0, 31, 93
1, 1143487, Note_on_c, 0, 43, 105
1, 1143492, Note_on_c, 0, 74, 0
1, 1143517, Note_on_c, 0, 77, 0
1, 1143542, Note_on_c, 0, 43, 0
1, 1143544, Note_on_c, 0, 31, 0
1, 1143562, Note_on_c, 0, 83, 0
1, 1143595, Note_on_c, 0, 86, 0
1, 1143639, Poly_aftertouch_c, 0, 38, 0
1, 1143938, Note_on_c, 0, 89, 92
1, 1143944, Note_on_c, 0, 86, 86
1, 1143951, Note_on_c, 0, 83, 80
1, 1143953, Note_on_c, 0, 77, 71
1, 1143984, Note_on_c, 0, 77, 0
1, 1143998, Note_on_c, 0, 83, 0
1, 1144014, Note_on_c, 0, 89, 0
1, 1144039, Note_on_c, 0, 86, 0
1, 1144435, Note_on_c, 0, 89, 104
1, 1144437, Note_on_c, 0, 86, 98
1, 1144437, Note_on_c, 0, 83, 96
1, 1144444, Note_on_c, 0, 77, 99
1, 1144922, Note_on_c, 0, 55, 101
1, 1144926, Note_on_c, 0, 43, 86
1, 1144938, Note_on_c, 0, 50, 84
1, 1144945, Note_on_c, 0, 47, 69
1, 1144985, Note_on_c, 0, 55, 0
1, 1145015, Note_on_c, 0, 43, 0
1, 1145025, Note_on_c, 0, 50, 0
1, 1145038, Note_on_c, 0, 47, 0
1, 1145544, Note_on_c, 0, 43, 103
1, 1145546, Note_on_c, 0, 31, 96
1, 1145553, Note_on_c, 0, 77, 0
1, 1145583, Note_on_c, 0, 83, 0
1, 1145591, Note_on_c, 0, 86, 0
1, 1145594, Note_on_c, 0, 89, 0
1, 1145664, Note_on_c, 0, 34, 13
1, 1145673, Note_on_c, 0, 34, 0
1, 1146165, Note_on_c, 0, 31, 0
1, 1146165, Note_on_c, 0, 92, 105
1, 1146185, Note_on_c, 0, 89, 85
1, 1146186, Note_on_c, 0, 83, 88
1, 1146188, Note_on_c, 0, 86, 80
1, 1146198, Note_on_c, 0, 43, 0
1, 1146206, Poly_aftertouch_c, 0, 34, 0
1, 1146279, Poly_aftertouch_c, 0, 38, 0
1, 1146697, Poly_aftertouch_c, 0, 83, 20
1, 1146702, Note_on_c, 0, 83, 0
1, 1146702, Poly_aftertouch_c, 0, 83, 0
1, 1146759, Note_on_c, 0, 92, 0
1, 1146760, Note_on_c, 0, 65, 99
1, 1146762, Note_on_c, 0, 86, 0
1, 1146778, Note_on_c, 0, 89, 0
1, 1146779, Note_on_c, 0, 62, 70
1, 1146783, Note_on_c, 0, 55, 69
1, 1146785, Note_on_c, 0, 59, 58
1, 1146838, Poly_aftertouch_c, 0, 87, 0
1, 1147301, Note_on_c, 0, 55, 0
1, 1147327, Note_on_c, 0, 89, 103
1, 1147343, Note_on_c, 0, 80, 82
1, 1147343, Note_on_c, 0, 86, 82
1, 1147350, Note_on_c, 0, 83, 71
1, 1147382, Note_on_c, 0, 65, 0
1, 1147432, Poly_aftertouch_c, 0, 58, 0
1, 1147448, Note_on_c, 0, 62, 0
1, 1147475, Note_on_c, 0, 59, 0
1, 1147813, Note_on_c, 0, 86, 0
1, 1147820, Note_on_c, 0, 83, 0
1, 1147823, Note_on_c, 0, 65, 91
1, 1147830, Note_on_c, 0, 80, 0
1, 1147836, Note_on_c, 0, 89, 0
1, 1147845, Note_on_c, 0, 55, 61
1, 1147848, Note_on_c, 0, 62, 68
1, 1147850, Note_on_c, 0, 59, 58
1, 1148321, Note_on_c, 0, 86, 93
1, 1148322, Note_on_c, 0, 55, 0
1, 1148349, Note_on_c, 0, 83, 63
1, 1148349, Note_on_c, 0, 77, 64
1, 1148350, Note_on_c, 0, 65, 0
1, 1148353, Note_on_c, 0, 80, 58
1, 1148390, Poly_aftertouch_c, 0, 59, 24
1, 1148431, Note_on_c, 0, 62, 0
1, 1148433, Note_on_c, 0, 59, 0
1, 1148433, Poly_aftertouch_c, 0, 59, 0
1, 1148723, Poly_aftertouch_c, 0, 77, 24
1, 1148746, Note_on_c, 0, 77, 0
1, 1148746, Poly_aftertouch_c, 0, 77, 0
1, 1148806, Note_on_c, 0, 86, 0
1, 1148810, Note_on_c, 0, 65, 72
1, 1148813, Note_on_c, 0, 83, 0
1, 1148834, Note_on_c, 0, 80, 0
1, 1148837, Note_on_c, 0, 62, 56
1, 1148839, Note_on_c, 0, 59, 49
1, 1148845, Note_on_c, 0, 55, 51
1, 1149242, Note_on_c, 0, 65, 0
1, 1149259, Note_on_c, 0, 55, 0
1, 1149322, Note_on_c, 0, 83, 80
1, 1149324, Poly_aftertouch_c, 0, 59, 22
1, 1149357, Note_on_c, 0, 77, 54
1, 1149359, Note_on_c, 0, 74, 56
1, 1149361, Note_on_c, 0, 80, 60
1, 1149390, Note_on_c, 0, 59, 0
1, 1149390, Poly_aftertouch_c, 0, 59, 0
1, 1149427, Note_on_c, 0, 62, 0
1, 1149656, Note_on_c, 0, 74, 0
1, 1149773, Note_on_c, 0, 83, 0
1, 1149817, Note_on_c, 0, 77, 0
1, 1149826, Note_on_c, 0, 80, 0
1, 1149854, Note_on_c, 0, 65, 62
1, 1149887, Note_on_c, 0, 55, 41
1, 1149888, Note_on_c, 0, 59, 43
1, 1149895, Note_on_c, 0, 62, 49
1, 1150130, Note_on_c, 0, 65, 0
1, 1150250, Note_on_c, 0, 55, 0
1, 1150290, Note_on_c, 0, 62, 0
1, 1150322, Note_on_c, 0, 59, 0
1, 1150355, Note_on_c, 0, 80, 69
1, 1150389, Note_on_c, 0, 77, 52
1, 1150400, Note_on_c, 0, 74, 45
1, 1150403, Note_on_c, 0, 71, 45
1, 1150660, Note_on_c, 0, 71, 0
1, 1150834, Note_on_c, 0, 80, 0
1, 1150838, Note_on_c, 0, 74, 0
1, 1150845, Note_on_c, 0, 77, 0
1, 1150910, Note_on_c, 0, 53, 46
1, 1150937, Note_on_c, 0, 43, 38
1, 1150938, Note_on_c, 0, 50, 42
1, 1150941, Note_on_c, 0, 47, 39
1, 1151253, Note_on_c, 0, 53, 0
1, 1151302, Note_on_c, 0, 43, 0
1, 1151374, Note_on_c, 0, 50, 0
1, 1151382, Note_on_c, 0, 47, 0
1, 1151420, Note_on_c, 0, 77, 59
1, 1151449, Note_on_c, 0, 74, 47
1, 1151452, Note_on_c, 0, 68, 39
1, 1151453, Note_on_c, 0, 71, 38
1, 1151790, Note_on_c, 0, 77, 0
1, 1151801, Note_on_c, 0, 68, 0
1, 1151801, Poly_aftertouch_c, 0, 71, 24
1, 1151829, Note_on_c, 0, 74, 0
1, 1151846, Note_on_c, 0, 71, 0
1, 1151846, Poly_aftertouch_c, 0, 71, 0
1, 1151930, Note_on_c, 0, 53, 44
1, 1151944, Note_on_c, 0, 50, 38
1, 1151948, Note_on_c, 0, 47, 30
1, 1151965, Note_on_c, 0, 43, 35
1, 1152268, Note_on_c, 0, 53, 0
1, 1152309, Note_on_c, 0, 43, 0
1, 1152393, Note_on_c, 0, 47, 0
1, 1152393, Note_on_c, 0, 50, 0
1, 1152473, Note_on_c, 0, 74, 56
1, 1152516, Note_on_c, 0, 68, 43
1, 1152524, Note_on_c, 0, 71, 35
1, 1152535, Note_on_c, 0, 65, 36
1, 1152834, Note_on_c, 0, 65, 0
1, 1152842, Note_on_c, 0, 74, 0
1, 1152850, Control_c, 0, 67, 8
1, 1152870, Note_on_c, 0, 71, 0
1, 1152890, Note_on_c, 0, 68, 0
1, 1152986, Note_on_c, 0, 53, 35
1, 1152997, Note_on_c, 0, 47, 29
1, 1152999, Control_c, 0, 67, 12
1, 1153007, Note_on_c, 0, 43, 35
1, 1153011, Note_on_c, 0, 50, 29
1, 1153056, Control_c, 0, 67, 17
1, 1153091, Control_c, 0, 67, 21
1, 1153128, Control_c, 0, 67, 29
1, 1153147, Control_c, 0, 67, 36
1, 1153165, Control_c, 0, 67, 43
1, 1153184, Control_c, 0, 67, 50
1, 1153203, Control_c, 0, 67, 56
1, 1153221, Note_on_c, 0, 53, 0
1, 1153222, Control_c, 0, 67, 62
1, 1153239, Control_c, 0, 67, 67
1, 1153257, Control_c, 0, 67, 71
1, 1153295, Control_c, 0, 67, 78
1, 1153321, Note_on_c, 0, 43, 0
1, 1153330, Control_c, 0, 67, 83
1, 1153401, Control_c, 0, 67, 90
1, 1153420, Control_c, 0, 67, 96
1, 1153439, Control_c, 0, 67, 102
1, 1153449, Note_on_c, 0, 50, 0
1, 1153453, Note_on_c, 0, 47, 0
1, 1153457, Control_c, 0, 67, 107
1, 1153474, Control_c, 0, 67, 113
1, 1153493, Control_c, 0, 67, 119
1, 1153513, Control_c, 0, 67, 125
1, 1153566, Note_on_c, 0, 71, 56
1, 1153601, Note_on_c, 0, 62, 41
1, 1153603, Note_on_c, 0, 68, 43
1, 1153616, Note_on_c, 0, 65, 25
1, 1153897, Poly_aftertouch_c, 0, 62, 22
1, 1153910, Note_on_c, 0, 62, 0
1, 1153910, Poly_aftertouch_c, 0, 62, 0
1, 1154032, Note_on_c, 0, 71, 0
1, 1154044, Poly_aftertouch_c, 0, 65, 24
1, 1154094, Note_on_c, 0, 65, 0
1, 1154094, Poly_aftertouch_c, 0, 65, 0
1, 1154102, Note_on_c, 0, 68, 0
1, 1154154, Note_on_c, 0, 53, 39
1, 1154177, Note_on_c, 0, 50, 32
1, 1154186, Note_on_c, 0, 47, 27
1, 1154188, Note_on_c, 0, 43, 30
1, 1154534, Note_on_c, 0, 53, 0
1, 1154786, Note_on_c, 0, 68, 49
1, 1154815, Note_on_c, 0, 62, 32
1, 1154819, Note_on_c, 0, 59, 34
1, 1154900, Poly_aftertouch_c, 0, 65, 127
1, 1155141, Note_on_c, 0, 43, 0
1, 1155241, Note_on_c, 0, 59, 0
1, 1155272, Control_c, 0, 64, 121
1, 1155286, Poly_aftertouch_c, 0, 47, 24
1, 1155310, Control_c, 0, 64, 114
1, 1155329, Control_c, 0, 64, 110
1, 1155342, Note_on_c, 0, 50, 0
1, 1155346, Control_c, 0, 64, 106
1, 1155383, Control_c, 0, 64, 100
1, 1155389, Note_on_c, 0, 47, 0
1, 1155389, Poly_aftertouch_c, 0, 47, 0
1, 1155406, Poly_aftertouch_c, 0, 65, 24
1, 1155419, Control_c, 0, 64, 95
1, 1155467, Note_on_c, 0, 68, 0
1, 1155474, Control_c, 0, 64, 91
1, 1155495, Note_on_c, 0, 62, 0
1, 1155513, Control_c, 0, 64, 87
1, 1155524, Poly_aftertouch_c, 0, 65, 0
1, 1155533, Control_c, 0, 64, 85
1, 1155550, Control_c, 0, 64, 83
1, 1155586, Control_c, 0, 64, 79
1, 1155624, Control_c, 0, 64, 77
1, 1155659, Control_c, 0, 64, 75
1, 1155696, Control_c, 0, 64, 73
1, 1155751, Control_c, 0, 64, 70
1, 1155806, Control_c, 0, 64, 68
1, 1155862, Control_c, 0, 64, 67
1, 1155898, Control_c, 0, 64, 66
1, 1155935, Control_c, 0, 64, 65
1, 1155972, Control_c, 0, 64, 64
1, 1156008, Control_c, 0, 64, 63
1, 1156027, Control_c, 0, 64, 62
1, 1156045, Control_c, 0, 64, 61
1, 1156083, Control_c, 0, 64, 60
1, 1156118, Control_c, 0, 64, 58
1, 1156208, Control_c, 0, 64, 56
1, 1156467, Control_c, 0, 64, 61
1, 1156485, Control_c, 0, 64, 64
1, 1156504, Control_c, 0, 64, 67
1, 1156520, Control_c, 0, 64, 69
1, 1156540, Control_c, 0, 64, 71
1, 1156558, Control_c, 0, 64, 73
1, 1156577, Control_c, 0, 64, 75
1, 1156593, Control_c, 0, 64, 78
1, 1156613, Control_c, 0, 64, 81
1, 1156631, Control_c, 0, 64, 85
1, 1156650, Control_c, 0, 64, 88
1, 1156688, Control_c, 0, 64, 93
1, 1156726, Control_c, 0, 64, 97
1, 1156780, Control_c, 0, 64, 102
1, 1156833, Control_c, 0, 64, 107
1, 1156870, Control_c, 0, 64, 112
1, 1156926, Control_c, 0, 64, 116
1, 1157038, Control_c, 0, 64, 120
1, 1157163, Control_c, 0, 64, 125
1, 1157289, Note_on_c, 0, 52, 30
1, 1157309, Note_on_c, 0, 49, 33
1, 1157316, Note_on_c, 0, 46, 32
1, 1157327, Note_on_c, 0, 43, 34
1, 1157829, Note_on_c, 0, 52, 0
1, 1157864, Note_on_c, 0, 67, 49
1, 1157894, Note_on_c, 0, 58, 36
1, 1157903, Note_on_c, 0, 61, 37
1, 1157906, Note_on_c, 0, 64, 35
1, 1158035, Poly_aftertouch_c, 0, 43, 24
1, 1158141, Note_on_c, 0, 43, 0
1, 1158141, Poly_aftertouch_c, 0, 43, 0
1, 1158162, Note_on_c, 0, 49, 0
1, 1158252, Poly_aftertouch_c, 0, 46, 22
1, 1158270, Note_on_c, 0, 46, 0
1, 1158270, Poly_aftertouch_c, 0, 46, 0
1, 1158329, Note_on_c, 0, 67, 0
1, 1158372, Note_on_c, 0, 58, 0
1, 1158393, Control_c, 0, 64, 120
1, 1158406, Note_on_c, 0, 64, 0
1, 1158429, Control_c, 0, 64, 114
1, 1158448, Control_c, 0, 64, 110
1, 1158454, Note_on_c, 0, 61, 0
1, 1158466, Control_c, 0, 64, 106
1, 1158484, Control_c, 0, 64, 102
1, 1158522, Control_c, 0, 64, 96
1, 1158559, Control_c, 0, 64, 91
1, 1158576, Control_c, 0, 64, 88
1, 1158596, Control_c, 0, 64, 85
1, 1158613, Control_c, 0, 64, 82
1, 1158651, Control_c, 0, 64, 79
1, 1158705, Control_c, 0, 64, 76
1, 1158742, Control_c, 0, 64, 74
1, 1158796, Control_c, 0, 64, 72
1, 1158853, Control_c, 0, 64, 69
1, 1158890, Control_c, 0, 64, 68
1, 1158908, Control_c, 0, 64, 67
1, 1158926, Control_c, 0, 64, 66
1, 1158943, Control_c, 0, 64, 65
1, 1158963, Control_c, 0, 64, 63
1, 1158982, Control_c, 0, 64, 62
1, 1159015, Control_c, 0, 64, 60
1, 1159053, Control_c, 0, 64, 57
1, 1159071, Control_c, 0, 64, 53
1, 1159088, Control_c, 0, 64, 50
1, 1159144, Control_c, 0, 64, 48
1, 1159254, Control_c, 0, 64, 50
1, 1159274, Control_c, 0, 64, 56
1, 1159292, Control_c, 0, 64, 61
1, 1159311, Control_c, 0, 64, 65
1, 1159327, Control_c, 0, 64, 70
1, 1159346, Control_c, 0, 64, 73
1, 1159365, Control_c, 0, 64, 77
1, 1159383, Control_c, 0, 64, 81
1, 1159401, Control_c, 0, 64, 84
1, 1159419, Control_c, 0, 64, 88
1, 1159456, Control_c, 0, 64, 94
1, 1159492, Control_c, 0, 64, 99
1, 1159530, Control_c, 0, 64, 103
1, 1159568, Control_c, 0, 64, 108
1, 1159605, Control_c, 0, 64, 113
1, 1159640, Control_c, 0, 64, 117
1, 1159751, Control_c, 0, 64, 121
1, 1160124, Note_on_c, 0, 51, 35
1, 1160129, Note_on_c, 0, 48, 39
1, 1160147, Note_on_c, 0, 43, 31
1, 1160157, Note_on_c, 0, 45, 31
1, 1160726, Note_on_c, 0, 51, 0
1, 1160773, Note_on_c, 0, 66, 41
1, 1160782, Note_on_c, 0, 57, 35
1, 1160791, Note_on_c, 0, 63, 33
1, 1160796, Note_on_c, 0, 60, 36
1, 1161028, Poly_aftertouch_c, 0, 43, 24
1, 1161048, Poly_aftertouch_c, 0, 48, 24
1, 1161069, Poly_aftertouch_c, 0, 45, 24
1, 1161135, Note_on_c, 0, 43, 0
1, 1161135, Poly_aftertouch_c, 0, 43, 0
1, 1161164, Note_on_c, 0, 48, 0
1, 1161164, Poly_aftertouch_c, 0, 48, 0
1, 1161234, Note_on_c, 0, 57, 0
1, 1161245, Note_on_c, 0, 45, 0
1, 1161245, Poly_aftertouch_c, 0, 45, 0
1, 1161254, Control_c, 0, 64, 116
1, 1161291, Control_c, 0, 64, 111
1, 1161295, Note_on_c, 0, 66, 0
1, 1161303, Poly_aftertouch_c, 0, 63, 24
1, 1161346, Control_c, 0, 64, 107
1, 1161347, Note_on_c, 0, 63, 0
1, 1161347, Poly_aftertouch_c, 0, 63, 0
1, 1161383, Control_c, 0, 64, 102
1, 1161393, Poly_aftertouch_c, 0, 60, 24
1, 1161420, Control_c, 0, 64, 96
1, 1161431, Note_on_c, 0, 60, 0
1, 1161431, Poly_aftertouch_c, 0, 60, 0
1, 1161457, Control_c, 0, 64, 92
1, 1161511, Control_c, 0, 64, 87
1, 1161530, Control_c, 0, 64, 85
1, 1161548, Control_c, 0, 64, 83
1, 1161568, Control_c, 0, 64, 81
1, 1161603, Control_c, 0, 64, 79
1, 1161659, Control_c, 0, 64, 76
1, 1161734, Control_c, 0, 64, 74
1, 1161820, Control_c, 0, 64, 72
1, 1161876, Control_c, 0, 64, 70
1, 1161969, Control_c, 0, 64, 68
1, 1162005, Control_c, 0, 64, 67
1, 1162059, Control_c, 0, 64, 66
1, 1162097, Control_c, 0, 64, 65
1, 1162134, Control_c, 0, 64, 64
1, 1162172, Control_c, 0, 64, 63
1, 1162191, Control_c, 0, 64, 62
1, 1162245, Control_c, 0, 64, 61
1, 1162374, Control_c, 0, 64, 63
1, 1162392, Control_c, 0, 64, 65
1, 1162411, Control_c, 0, 64, 67
1, 1162430, Control_c, 0, 64, 70
1, 1162448, Control_c, 0, 64, 73
1, 1162466, Control_c, 0, 64, 77
1, 1162485, Control_c, 0, 64, 82
1, 1162504, Control_c, 0, 64, 87
1, 1162520, Control_c, 0, 64, 91
1, 1162559, Control_c, 0, 64, 96
1, 1162596, Control_c, 0, 64, 100
1, 1162632, Control_c, 0, 64, 105
1, 1162668, Control_c, 0, 64, 111
1, 1162705, Control_c, 0, 64, 115
1, 1162756, Control_c, 0, 64, 120
1, 1162812, Control_c, 0, 64, 125
1, 1163282, Note_on_c, 0, 43, 34
1, 1163621, Note_on_c, 0, 43, 0
1, 1163985, Note_on_c, 0, 65, 42
1, 1164000, Note_on_c, 0, 62, 39
1, 1164002, Note_on_c, 0, 59, 31
1, 1164820, Note_on_c, 0, 79, 57
1, 1164879, Note_on_c, 0, 79, 0
1, 1165380, Note_on_c, 0, 55, 44
1, 1165477, Note_on_c, 0, 55, 0
1, 1166140, Note_on_c, 0, 43, 40
1, 1166404, Note_on_c, 0, 43, 0
1, 1167625, Note_on_c, 0, 31, 38
1, 1170169, Poly_aftertouch_c, 0, 31, 24
1, 1170336, Note_on_c, 0, 31, 0
1, 1170336, Poly_aftertouch_c, 0, 31, 0
1, 1170519, Poly_aftertouch_c, 0, 59, 24
1, 1170570, Note_on_c, 0, 59, 0
1, 1170570, Poly_aftertouch_c, 0, 59, 0
1, 1170646, Control_c, 0, 67, 121
1, 1170666, Control_c, 0, 67, 113
1, 1170684, Control_c, 0, 67, 101
1, 1170701, Control_c, 0, 67, 86
1, 1170719, Control_c, 0, 67, 66
1, 1170739, Control_c, 0, 67, 45
1, 1170757, Control_c, 0, 67, 25
1, 1170770, Note_on_c, 0, 65, 0
1, 1170779, Note_on_c, 0, 62, 0
1, 1170795, Control_c, 0, 67, 0
1, 1171233, Control_c, 0, 64, 92
1, 1171251, Control_c, 0, 64, 0
1, 1171287, Note_on_c, 0, 60, 95
1, 1171297, Note_on_c, 0, 36, 62
1, 1171308, Note_on_c, 0, 48, 55
1, 1171325, Control_c, 0, 64, 28
1, 1171333, Note_on_c, 0, 36, 0
1, 1171336, Note_on_c, 0, 60, 0
1, 1171338, Note_on_c, 0, 48, 0
1, 1171342, Control_c, 0, 64, 71
1, 1171361, Control_c, 0, 64, 104
1, 1171380, Control_c, 0, 64, 127
1, 1171692, Control_c, 0, 67, 9
1, 1171732, Note_on_c, 0, 91, 69
1, 1171740, Note_on_c, 0, 64, 32
1, 1171786, Note_on_c, 0, 64, 0
1, 1171794, Note_on_c, 0, 91, 0
1, 1171802, Control_c, 0, 67, 17
1, 1171803, Note_on_c, 0, 67, 48
1, 1171840, Control_c, 0, 67, 22
1, 1171858, Note_on_c, 0, 67, 0
1, 1171875, Control_c, 0, 64, 123
1, 1171877, Control_c, 0, 67, 28
1, 1171882, Note_on_c, 0, 64, 57
1, 1171893, Control_c, 0, 67, 36
1, 1171895, Note_on_c, 0, 91, 70
1, 1171914, Control_c, 0, 67, 44
1, 1171928, Note_on_c, 0, 64, 0
1, 1171931, Control_c, 0, 64, 118
1, 1171933, Control_c, 0, 67, 50
1, 1171951, Control_c, 0, 67, 54
1, 1171969, Control_c, 0, 64, 114
1, 1171973, Note_on_c, 0, 67, 58
1, 1171988, Control_c, 0, 67, 62
1, 1172007, Control_c, 0, 67, 68
1, 1172021, Note_on_c, 0, 67, 0
1, 1172023, Control_c, 0, 67, 76
1, 1172025, Note_on_c, 0, 64, 58
1, 1172043, Control_c, 0, 67, 83
1, 1172062, Control_c, 0, 67, 88
1, 1172079, Note_on_c, 0, 64, 0
1, 1172111, Control_c, 0, 67, 93
1, 1172131, Control_c, 0, 67, 98
1, 1172138, Note_on_c, 0, 67, 53
1, 1172144, Note_on_c, 0, 91, 0
1, 1172148, Control_c, 0, 67, 104
1, 1172156, Note_on_c, 0, 88, 72
1, 1172168, Control_c, 0, 67, 109
1, 1172200, Note_on_c, 0, 67, 0
1, 1172206, Control_c, 0, 64, 110
1, 1172207, Control_c, 0, 67, 117
1, 1172208, Note_on_c, 0, 65, 60
1, 1172215, Note_on_c, 0, 86, 73
1, 1172224, Control_c, 0, 67, 124
1, 1172259, Note_on_c, 0, 65, 0
1, 1172263, Note_on_c, 0, 88, 0
1, 1172277, Note_on_c, 0, 67, 57
1, 1172356, Note_on_c, 0, 67, 0
1, 1172357, Note_on_c, 0, 65, 60
1, 1172359, Note_on_c, 0, 86, 0
1, 1172370, Control_c, 0, 64, 106
1, 1172372, Note_on_c, 0, 79, 65
1, 1172416, Note_on_c, 0, 65, 0
1, 1172455, Note_on_c, 0, 67, 39
1, 1172463, Control_c, 0, 64, 101
1, 1172521, Note_on_c, 0, 67, 0
1, 1172529, Note_on_c, 0, 64, 53
1, 1172537, Note_on_c, 0, 84, 62
1, 1172559, Note_on_c, 0, 79, 0
1, 1172572, Note_on_c, 0, 64, 0
1, 1172609, Control_c, 0, 64, 97
1, 1172610, Note_on_c, 0, 67, 48
1, 1172672, Note_on_c, 0, 67, 0
1, 1172688, Note_on_c, 0, 64, 50
1, 1172690, Note_on_c, 0, 88, 65
1, 1172704, Note_on_c, 0, 84, 0
1, 1172726, Note_on_c, 0, 88, 0
1, 1172736, Note_on_c, 0, 64, 0
1, 1172738, Control_c, 0, 64, 93
1, 1172776, Note_on_c, 0, 67, 53
1, 1172830, Note_on_c, 0, 67, 0
1, 1172854, Note_on_c, 0, 64, 52
1, 1172897, Note_on_c, 0, 64, 0
1, 1172935, Note_on_c, 0, 67, 49
1, 1172992, Note_on_c, 0, 67, 0
1, 1173006, Note_on_c, 0, 64, 55
1, 1173012, Note_on_c, 0, 91, 85
1, 1173062, Note_on_c, 0, 91, 0
1, 1173068, Note_on_c, 0, 64, 0
1, 1173104, Control_c, 0, 64, 89
1, 1173113, Note_on_c, 0, 67, 54
1, 1173163, Note_on_c, 0, 67, 0
1, 1173178, Note_on_c, 0, 64, 58
1, 1173180, Note_on_c, 0, 91, 97
1, 1173217, Note_on_c, 0, 64, 0
1, 1173264, Note_on_c, 0, 67, 59
1, 1173317, Note_on_c, 0, 67, 0
1, 1173364, Note_on_c, 0, 64, 37
1, 1173405, Note_on_c, 0, 64, 0
1, 1173417, Note_on_c, 0, 91, 0
1, 1173425, Note_on_c, 0, 67, 46
1, 1173432, Note_on_c, 0, 88, 79
1, 1173452, Control_c, 0, 64, 87
1, 1173471, Note_on_c, 0, 67, 0
1, 1173490, Note_on_c, 0, 65, 56
1, 1173494, Note_on_c, 0, 86, 75
1, 1173536, Note_on_c, 0, 88, 0
1, 1173537, Note_on_c, 0, 65, 0
1, 1173563, Note_on_c, 0, 67, 59
1, 1173621, Note_on_c, 0, 67, 0
1, 1173629, Note_on_c, 0, 86, 0
1, 1173649, Note_on_c, 0, 65, 51
1, 1173668, Note_on_c, 0, 79, 59
1, 1173703, Note_on_c, 0, 65, 0
1, 1173732, Note_on_c, 0, 67, 42
1, 1173791, Note_on_c, 0, 67, 0
1, 1173810, Note_on_c, 0, 79, 0
1, 1173811, Note_on_c, 0, 84, 67
1, 1173812, Note_on_c, 0, 64, 52
1, 1173842, Note_on_c, 0, 84, 0
1, 1173855, Poly_aftertouch_c, 0, 88, 0
1, 1173861, Note_on_c, 0, 64, 0
1, 1173897, Note_on_c, 0, 67, 54
1, 1173951, Note_on_c, 0, 67, 0
1, 1173983, Note_on_c, 0, 64, 54
1, 1174030, Note_on_c, 0, 64, 0
1, 1174082, Note_on_c, 0, 67, 51
1, 1174134, Note_on_c, 0, 67, 0
1, 1174150, Control_c, 0, 64, 85
1, 1174160, Note_on_c, 0, 64, 55
1, 1174162, Note_on_c, 0, 60, 59
1, 1174167, Note_on_c, 0, 91, 79
1, 1174203, Note_on_c, 0, 64, 0
1, 1174210, Note_on_c, 0, 60, 0
1, 1174212, Note_on_c, 0, 91, 0
1, 1174241, Note_on_c, 0, 90, 78
1, 1174244, Note_on_c, 0, 67, 60
1, 1174297, Note_on_c, 0, 67, 0
1, 1174307, Note_on_c, 0, 60, 63
1, 1174309, Note_on_c, 0, 64, 60
1, 1174310, Note_on_c, 0, 90, 0
1, 1174316, Note_on_c, 0, 91, 78
1, 1174352, Note_on_c, 0, 60, 0
1, 1174355, Note_on_c, 0, 64, 0
1, 1174376, Note_on_c, 0, 91, 0
1, 1174388, Note_on_c, 0, 90, 78
1, 1174404, Note_on_c, 0, 67, 49
1, 1174426, Control_c, 0, 64, 83
1, 1174444, Note_on_c, 0, 67, 0
1, 1174448, Note_on_c, 0, 64, 63
1, 1174456, Note_on_c, 0, 60, 54
1, 1174459, Note_on_c, 0, 90, 0
1, 1174472, Note_on_c, 0, 91, 76
1, 1174499, Note_on_c, 0, 60, 0
1, 1174500, Note_on_c, 0, 64, 0
1, 1174501, Control_c, 0, 64, 81
1, 1174533, Note_on_c, 0, 91, 0
1, 1174539, Note_on_c, 0, 90, 71
1, 1174546, Note_on_c, 0, 67, 58
1, 1174590, Note_on_c, 0, 67, 0
1, 1174601, Note_on_c, 0, 60, 58
1, 1174609, Note_on_c, 0, 90, 0
1, 1174613, Note_on_c, 0, 91, 77
1, 1174618, Note_on_c, 0, 64, 61
1, 1174626, Control_c, 0, 64, 79
1, 1174640, Note_on_c, 0, 60, 0
1, 1174655, Note_on_c, 0, 64, 0
1, 1174667, Note_on_c, 0, 91, 0
1, 1174692, Note_on_c, 0, 88, 76
1, 1174702, Note_on_c, 0, 67, 47
1, 1174727, Note_on_c, 0, 88, 0
1, 1174741, Note_on_c, 0, 67, 0
1, 1174766, Note_on_c, 0, 60, 59
1, 1174769, Note_on_c, 0, 65, 65
1, 1174771, Note_on_c, 0, 86, 81
1, 1174803, Note_on_c, 0, 60, 0
1, 1174812, Note_on_c, 0, 65, 0
1, 1174831, Note_on_c, 0, 86, 0
1, 1174841, Note_on_c, 0, 85, 81
1, 1174855, Note_on_c, 0, 67, 51
1, 1174899, Note_on_c, 0, 67, 0
1, 1174919, Control_c, 0, 64, 77
1, 1174926, Note_on_c, 0, 60, 61
1, 1174932, Note_on_c, 0, 86, 76
1, 1174932, Note_on_c, 0, 65, 54
1, 1174943, Note_on_c, 0, 85, 0
1, 1174970, Note_on_c, 0, 60, 0
1, 1174983, Note_on_c, 0, 86, 0
1, 1174983, Note_on_c, 0, 65, 0
1, 1175012, Note_on_c, 0, 79, 76
1, 1175025, Note_on_c, 0, 67, 55
1, 1175065, Note_on_c, 0, 79, 0
1, 1175068, Control_c, 0, 64, 75
1, 1175076, Note_on_c, 0, 67, 0
1, 1175092, Note_on_c, 0, 84, 84
1, 1175094, Note_on_c, 0, 60, 45
1, 1175102, Note_on_c, 0, 64, 52
1, 1175135, Note_on_c, 0, 60, 0
1, 1175146, Note_on_c, 0, 64, 0
1, 1175154, Note_on_c, 0, 84, 0
1, 1175178, Note_on_c, 0, 67, 58
1, 1175179, Note_on_c, 0, 83, 77
1, 1175230, Note_on_c, 0, 67, 0
1, 1175239, Note_on_c, 0, 83, 0
1, 1175243, Note_on_c, 0, 64, 66
1, 1175251, Note_on_c, 0, 84, 77
1, 1175253, Note_on_c, 0, 60, 50
1, 1175295, Note_on_c, 0, 60, 0
1, 1175296, Note_on_c, 0, 64, 0
1, 1175329, Note_on_c, 0, 88, 81
1, 1175333, Note_on_c, 0, 67, 56
1, 1175336, Note_on_c, 0, 84, 0
1, 1175376, Note_on_c, 0, 67, 0
1, 1175401, Note_on_c, 0, 91, 85
1, 1175407, Note_on_c, 0, 60, 59
1, 1175412, Note_on_c, 0, 88, 0
1, 1175415, Note_on_c, 0, 64, 69
1, 1175453, Note_on_c, 0, 91, 0
1, 1175453, Note_on_c, 0, 64, 0
1, 1175455, Note_on_c, 0, 60, 0
1, 1175486, Note_on_c, 0, 67, 62
1, 1175492, Note_on_c, 0, 90, 86
1, 1175554, Note_on_c, 0, 64, 73
1, 1175561, Note_on_c, 0, 60, 56
1, 1175562, Note_on_c, 0, 67, 0
1, 1175568, Note_on_c, 0, 91, 86
1, 1175571, Note_on_c, 0, 90, 0
1, 1175600, Note_on_c, 0, 60, 0
1, 1175601, Note_on_c, 0, 64, 0
1, 1175636, Note_on_c, 0, 91, 0
1, 1175641, Note_on_c, 0, 67, 51
1, 1175643, Note_on_c, 0, 90, 85
1, 1175699, Note_on_c, 0, 60, 58
1, 1175707, Note_on_c, 0, 67, 0
1, 1175711, Note_on_c, 0, 64, 65
1, 1175722, Note_on_c, 0, 91, 87
1, 1175728, Note_on_c, 0, 90, 0
1, 1175746, Note_on_c, 0, 60, 0
1, 1175751, Note_on_c, 0, 64, 0
1, 1175777, Note_on_c, 0, 67, 55
1, 1175796, Note_on_c, 0, 91, 0
1, 1175802, Note_on_c, 0, 90, 84
1, 1175842, Note_on_c, 0, 64, 58
1, 1175858, Note_on_c, 0, 67, 0
1, 1175870, Note_on_c, 0, 60, 58
1, 1175886, Note_on_c, 0, 91, 89
1, 1175897, Note_on_c, 0, 90, 0
1, 1175903, Note_on_c, 0, 60, 0
1, 1175907, Note_on_c, 0, 64, 0
1, 1175934, Note_on_c, 0, 67, 60
1, 1175952, Note_on_c, 0, 91, 0
1, 1175960, Note_on_c, 0, 88, 85
1, 1176007, Note_on_c, 0, 67, 0
1, 1176008, Note_on_c, 0, 88, 0
1, 1176013, Note_on_c, 0, 60, 63
1, 1176022, Note_on_c, 0, 65, 66
1, 1176038, Note_on_c, 0, 86, 89
1, 1176066, Note_on_c, 0, 60, 0
1, 1176082, Note_on_c, 0, 65, 0
1, 1176086, Note_on_c, 0, 67, 58
1, 1176095, Control_c, 0, 67, 107
1, 1176107, Note_on_c, 0, 86, 0
1, 1176111, Note_on_c, 0, 85, 87
1, 1176113, Control_c, 0, 67, 88
1, 1176131, Control_c, 0, 67, 66
1, 1176150, Control_c, 0, 67, 45
1, 1176169, Control_c, 0, 67, 28
1, 1176171, Note_on_c, 0, 67, 0
1, 1176184, Note_on_c, 0, 60, 57
1, 1176184, Note_on_c, 0, 86, 87
1, 1176188, Control_c, 0, 67, 15
1, 1176193, Note_on_c, 0, 65, 59
1, 1176197, Note_on_c, 0, 85, 0
1, 1176209, Note_on_c, 0, 60, 0
1, 1176242, Note_on_c, 0, 86, 0
1, 1176242, Note_on_c, 0, 65, 0
1, 1176254, Note_on_c, 0, 67, 48
1, 1176265, Note_on_c, 0, 79, 81
1, 1176318, Control_c, 0, 67, 0
1, 1176333, Note_on_c, 0, 79, 0
1, 1176334, Note_on_c, 0, 60, 53
1, 1176336, Note_on_c, 0, 64, 71
1, 1176337, Note_on_c, 0, 67, 0
1, 1176344, Note_on_c, 0, 84, 87
1, 1176389, Note_on_c, 0, 60, 0
1, 1176394, Note_on_c, 0, 64, 0
1, 1176410, Note_on_c, 0, 83, 87
1, 1176412, Note_on_c, 0, 84, 0
1, 1176417, Note_on_c, 0, 67, 54
1, 1176487, Note_on_c, 0, 84, 88
1, 1176491, Note_on_c, 0, 67, 0
1, 1176495, Note_on_c, 0, 83, 0
1, 1176498, Note_on_c, 0, 60, 59
1, 1176501, Note_on_c, 0, 64, 71
1, 1176540, Note_on_c, 0, 60, 0
1, 1176550, Note_on_c, 0, 64, 0
1, 1176553, Note_on_c, 0, 84, 0
1, 1176556, Note_on_c, 0, 88, 86
1, 1176570, Note_on_c, 0, 67, 57
1, 1176638, Note_on_c, 0, 86, 92
1, 1176641, Note_on_c, 0, 60, 74
1, 1176653, Note_on_c, 0, 65, 72
1, 1176655, Note_on_c, 0, 67, 0
1, 1176661, Note_on_c, 0, 88, 0
1, 1176689, Note_on_c, 0, 60, 0
1, 1176697, Note_on_c, 0, 65, 0
1, 1176706, Note_on_c, 0, 86, 0
1, 1176708, Note_on_c, 0, 67, 54
1, 1176709, Note_on_c, 0, 85, 86
1, 1176799, Note_on_c, 0, 86, 89
1, 1176800, Note_on_c, 0, 65, 59
1, 1176803, Note_on_c, 0, 60, 70
1, 1176807, Note_on_c, 0, 67, 0
1, 1176817, Note_on_c, 0, 85, 0
1, 1176837, Note_on_c, 0, 60, 0
1, 1176844, Note_on_c, 0, 67, 56
1, 1176848, Note_on_c, 0, 65, 0
1, 1176862, Note_on_c, 0, 86, 0
1, 1176889, Note_on_c, 0, 79, 83
1, 1176932, Note_on_c, 0, 67, 0
1, 1176936, Note_on_c, 0, 79, 0
1, 1176948, Note_on_c, 0, 64, 64
1, 1176956, Note_on_c, 0, 84, 95
1, 1177004, Note_on_c, 0, 63, 68
1, 1177006, Note_on_c, 0, 64, 0
1, 1177033, Note_on_c, 0, 84, 0
1, 1177034, Note_on_c, 0, 83, 92
1, 1177061, Note_on_c, 0, 63, 0
1, 1177076, Note_on_c, 0, 64, 59
1, 1177118, Note_on_c, 0, 84, 91
1, 1177121, Note_on_c, 0, 83, 0
1, 1177132, Note_on_c, 0, 64, 0
1, 1177153, Note_on_c, 0, 60, 70
1, 1177161, Control_c, 0, 64, 73
1, 1177181, Note_on_c, 0, 88, 91
1, 1177186, Note_on_c, 0, 60, 0
1, 1177187, Note_on_c, 0, 84, 0
1, 1177198, Control_c, 0, 64, 70
1, 1177216, Control_c, 0, 64, 68
1, 1177232, Note_on_c, 0, 62, 80
1, 1177236, Control_c, 0, 64, 64
1, 1177252, Control_c, 0, 64, 60
1, 1177255, Note_on_c, 0, 83, 89
1, 1177269, Note_on_c, 0, 62, 0
1, 1177271, Control_c, 0, 64, 57
1, 1177281, Note_on_c, 0, 88, 0
1, 1177288, Control_c, 0, 64, 54
1, 1177309, Control_c, 0, 64, 51
1, 1177319, Note_on_c, 0, 61, 71
1, 1177327, Control_c, 0, 64, 47
1, 1177332, Note_on_c, 0, 82, 82
1, 1177333, Note_on_c, 0, 83, 0
1, 1177345, Control_c, 0, 64, 42
1, 1177364, Control_c, 0, 64, 36
1, 1177375, Note_on_c, 0, 61, 0
1, 1177383, Control_c, 0, 64, 30
1, 1177393, Note_on_c, 0, 62, 73
1, 1177403, Note_on_c, 0, 83, 82
1, 1177403, Control_c, 0, 64, 17
1, 1177411, Note_on_c, 0, 82, 0
1, 1177418, Control_c, 0, 64, 0
1, 1177445, Note_on_c, 0, 62, 0
1, 1177473, Note_on_c, 0, 86, 91
1, 1177474, Note_on_c, 0, 83, 0
1, 1177486, Note_on_c, 0, 59, 64
1, 1177523, Note_on_c, 0, 59, 0
1, 1177554, Note_on_c, 0, 60, 77
1, 1177554, Note_on_c, 0, 81, 89
1, 1177561, Note_on_c, 0, 86, 0
1, 1177617, Note_on_c, 0, 60, 0
1, 1177618, Note_on_c, 0, 81, 0
1, 1177621, Note_on_c, 0, 80, 81
1, 1177629, Note_on_c, 0, 59, 63
1, 1177682, Note_on_c, 0, 59, 0
1, 1177694, Note_on_c, 0, 81, 87
1, 1177707, Note_on_c, 0, 80, 0
1, 1177716, Note_on_c, 0, 60, 65
1, 1177778, Note_on_c, 0, 60, 0
1, 1177780, Note_on_c, 0, 81, 0
1, 1177793, Note_on_c, 0, 84, 88
1, 1177809, Note_on_c, 0, 57, 56
1, 1177841, Note_on_c, 0, 57, 0
1, 1177871, Note_on_c, 0, 79, 86
1, 1177872, Note_on_c, 0, 59, 75
1, 1177881, Note_on_c, 0, 84, 0
1, 1177917, Note_on_c, 0, 59, 0
1, 1177939, Note_on_c, 0, 79, 0
1, 1177945, Note_on_c, 0, 58, 70
1, 1177947, Note_on_c, 0, 78, 81
1, 1177999, Note_on_c, 0, 58, 0
1, 1178024, Note_on_c, 0, 79, 86
1, 1178025, Note_on_c, 0, 59, 73
1, 1178034, Note_on_c, 0, 78, 0
1, 1178084, Note_on_c, 0, 59, 0
1, 1178095, Note_on_c, 0, 79, 0
1, 1178100, Note_on_c, 0, 83, 88
1, 1178115, Note_on_c, 0, 55, 60
1, 1178153, Note_on_c, 0, 55, 0
1, 1178178, Note_on_c, 0, 77, 89
1, 1178183, Note_on_c, 0, 57, 73
1, 1178188, Note_on_c, 0, 83, 0
1, 1178225, Note_on_c, 0, 57, 0
1, 1178245, Note_on_c, 0, 77, 0
1, 1178261, Note_on_c, 0, 76, 79
1, 1178270, Note_on_c, 0, 56, 65
1, 1178319, Note_on_c, 0, 56, 0
1, 1178321, Note_on_c, 0, 77, 86
1, 1178333, Note_on_c, 0, 76, 0
1, 1178340, Note_on_c, 0, 57, 70
1, 1178388, Note_on_c, 0, 57, 0
1, 1178396, Note_on_c, 0, 77, 0
1, 1178402, Note_on_c, 0, 81, 87
1, 1178415, Note_on_c, 0, 53, 62
1, 1178462, Note_on_c, 0, 53, 0
1, 1178479, Note_on_c, 0, 55, 77
1, 1178480, Note_on_c, 0, 76, 85
1, 1178491, Note_on_c, 0, 81, 0
1, 1178501, Control_c, 0, 67, 8
1, 1178536, Note_on_c, 0, 55, 0
1, 1178554, Note_on_c, 0, 76, 0
1, 1178563, Note_on_c, 0, 54, 72
1, 1178564, Note_on_c, 0, 75, 82
1, 1178628, Note_on_c, 0, 76, 82
1, 1178637, Note_on_c, 0, 54, 0
1, 1178639, Note_on_c, 0, 55, 73
1, 1178644, Note_on_c, 0, 75, 0
1, 1178709, Note_on_c, 0, 55, 0
1, 1178717, Note_on_c, 0, 79, 84
1, 1178719, Note_on_c, 0, 76, 0
1, 1178729, Note_on_c, 0, 52, 68
1, 1178765, Note_on_c, 0, 52, 0
1, 1178796, Note_on_c, 0, 53, 80
1, 1178805, Note_on_c, 0, 74, 83
1, 1178813, Note_on_c, 0, 79, 0
1, 1178869, Note_on_c, 0, 53, 0
1, 1178870, Note_on_c, 0, 74, 0
1, 1178874, Note_on_c, 0, 73, 78
1, 1178875, Note_on_c, 0, 52, 60
1, 1178943, Note_on_c, 0, 74, 80
1, 1178951, Note_on_c, 0, 53, 71
1, 1178956, Note_on_c, 0, 52, 0
1, 1178957, Note_on_c, 0, 73, 0
1, 1179011, Note_on_c, 0, 77, 77
1, 1179020, Note_on_c, 0, 74, 0
1, 1179029, Note_on_c, 0, 53, 0
1, 1179036, Note_on_c, 0, 50, 52
1, 1179085, Note_on_c, 0, 50, 0
1, 1179089, Note_on_c, 0, 52, 76
1, 1179100, Note_on_c, 0, 72, 80
1, 1179113, Note_on_c, 0, 77, 0
1, 1179150, Note_on_c, 0, 72, 0
1, 1179160, Note_on_c, 0, 52, 0
1, 1179185, Note_on_c, 0, 71, 74
1, 1179194, Note_on_c, 0, 51, 65
1, 1179250, Note_on_c, 0, 72, 76
1, 1179255, Note_on_c, 0, 71, 0
1, 1179280, Note_on_c, 0, 52, 74
1, 1179285, Note_on_c, 0, 51, 0
1, 1179308, Note_on_c, 0, 48, 78
1, 1179312, Note_on_c, 0, 72, 0
1, 1179321, Note_on_c, 0, 52, 0
1, 1179324, Note_on_c, 0, 76, 76
1, 1179342, Note_on_c, 0, 48, 0
1, 1179350, Note_on_c, 0, 76, 0
1, 1179387, Note_on_c, 0, 60, 78
1, 1179411, Note_on_c, 0, 76, 98
1, 1179431, Note_on_c, 0, 60, 0
1, 1179473, Note_on_c, 0, 59, 81
1, 1179486, Note_on_c, 0, 76, 0
1, 1179488, Note_on_c, 0, 75, 88
1, 1179529, Control_c, 0, 67, 0
1, 1179533, Note_on_c, 0, 59, 0
1, 1179559, Note_on_c, 0, 60, 80
1, 1179562, Note_on_c, 0, 76, 83
1, 1179571, Note_on_c, 0, 75, 0
1, 1179627, Note_on_c, 0, 60, 0
1, 1179634, Note_on_c, 0, 76, 0
1, 1179653, Note_on_c, 0, 72, 81
1, 1179657, Note_on_c, 0, 64, 72
1, 1179692, Note_on_c, 0, 64, 0
1, 1179710, Note_on_c, 0, 72, 0
1, 1179727, Note_on_c, 0, 74, 93
1, 1179749, Note_on_c, 0, 59, 68
1, 1179796, Note_on_c, 0, 59, 0
1, 1179801, Note_on_c, 0, 74, 0
1, 1179809, Note_on_c, 0, 73, 82
1, 1179815, Note_on_c, 0, 58, 72
1, 1179856, Note_on_c, 0, 58, 0
1, 1179882, Note_on_c, 0, 74, 83
1, 1179891, Note_on_c, 0, 73, 0
1, 1179900, Note_on_c, 0, 59, 69
1, 1179935, Note_on_c, 0, 59, 0
1, 1179936, Note_on_c, 0, 74, 0
1, 1179959, Note_on_c, 0, 71, 80
1, 1179968, Note_on_c, 0, 62, 65
1, 1180001, Note_on_c, 0, 71, 0
1, 1180012, Note_on_c, 0, 62, 0
1, 1180037, Note_on_c, 0, 72, 90
1, 1180045, Note_on_c, 0, 57, 71
1, 1180095, Note_on_c, 0, 57, 0
1, 1180105, Note_on_c, 0, 72, 0
1, 1180115, Note_on_c, 0, 71, 86
1, 1180120, Note_on_c, 0, 56, 73
1, 1180176, Note_on_c, 0, 56, 0
1, 1180196, Note_on_c, 0, 72, 83
1, 1180197, Note_on_c, 0, 71, 0
1, 1180200, Note_on_c, 0, 57, 63
1, 1180235, Note_on_c, 0, 57, 0
1, 1180246, Note_on_c, 0, 72, 0
1, 1180266, Note_on_c, 0, 60, 71
1, 1180274, Note_on_c, 0, 69, 79
1, 1180318, Note_on_c, 0, 69, 0
1, 1180320, Note_on_c, 0, 60, 0
1, 1180347, Note_on_c, 0, 55, 75
1, 1180347, Note_on_c, 0, 71, 87
1, 1180418, Note_on_c, 0, 55, 0
1, 1180424, Note_on_c, 0, 71, 0
1, 1180429, Note_on_c, 0, 54, 77
1, 1180433, Note_on_c, 0, 70, 83
1, 1180496, Note_on_c, 0, 54, 0
1, 1180499, Note_on_c, 0, 71, 80
1, 1180542, Note_on_c, 0, 55, 51
1, 1180560, Note_on_c, 0, 70, 0
1, 1180572, Note_on_c, 0, 71, 0
1, 1180574, Note_on_c, 0, 55, 0
1, 1180594, Note_on_c, 0, 59, 57
1, 1180601, Note_on_c, 0, 67, 77
1, 1180642, Note_on_c, 0, 59, 0
1, 1180656, Note_on_c, 0, 67, 0
1, 1180684, Note_on_c, 0, 53, 65
1, 1180685, Note_on_c, 0, 69, 85
1, 1180734, Note_on_c, 0, 53, 0
1, 1180749, Note_on_c, 0, 52, 66
1, 1180750, Note_on_c, 0, 69, 0
1, 1180758, Note_on_c, 0, 68, 80
1, 1180800, Note_on_c, 0, 52, 0
1, 1180830, Note_on_c, 0, 69, 79
1, 1180838, Note_on_c, 0, 68, 0
1, 1180838, Note_on_c, 0, 53, 60
1, 1180876, Note_on_c, 0, 53, 0
1, 1180891, Note_on_c, 0, 69, 0
1, 1180894, Note_on_c, 0, 57, 61
1, 1180915, Note_on_c, 0, 65, 79
1, 1180961, Note_on_c, 0, 57, 0
1, 1180983, Note_on_c, 0, 65, 0
1, 1180984, Note_on_c, 0, 52, 69
1, 1180994, Note_on_c, 0, 67, 82
1, 1181052, Note_on_c, 0, 52, 0
1, 1181059, Note_on_c, 0, 51, 73
1, 1181067, Note_on_c, 0, 67, 0
1, 1181074, Note_on_c, 0, 66, 77
1, 1181131, Note_on_c, 0, 51, 0
1, 1181143, Note_on_c, 0, 67, 75
1, 1181151, Note_on_c, 0, 52, 67
1, 1181156, Note_on_c, 0, 66, 0
1, 1181190, Note_on_c, 0, 52, 0
1, 1181203, Note_on_c, 0, 67, 0
1, 1181213, Note_on_c, 0, 55, 68
1, 1181227, Note_on_c, 0, 64, 79
1, 1181272, Note_on_c, 0, 64, 0
1, 1181288, Note_on_c, 0, 55, 0
1, 1181302, Note_on_c, 0, 65, 80
1, 1181313, Note_on_c, 0, 50, 65
1, 1181365, Note_on_c, 0, 49, 73
1, 1181368, Note_on_c, 0, 50, 0
1, 1181370, Note_on_c, 0, 65, 0
1, 1181379, Note_on_c, 0, 64, 82
1, 1181450, Note_on_c, 0, 49, 0
1, 1181455, Note_on_c, 0, 65, 73
1, 1181460, Note_on_c, 0, 64, 0
1, 1181502, Note_on_c, 0, 50, 38
1, 1181515, Note_on_c, 0, 65, 0
1, 1181537, Note_on_c, 0, 53, 67
1, 1181542, Note_on_c, 0, 62, 69
1, 1181545, Note_on_c, 0, 50, 0
1, 1181576, Note_on_c, 0, 62, 0
1, 1181599, Note_on_c, 0, 48, 87
1, 1181602, Note_on_c, 0, 53, 0
1, 1181611, Note_on_c, 0, 64, 86
1, 1181629, Note_on_c, 0, 48, 0
1, 1181694, Note_on_c, 0, 60, 70
1, 1181702, Note_on_c, 0, 64, 0
1, 1181753, Note_on_c, 0, 60, 0
1, 1181765, Note_on_c, 0, 55, 68
1, 1181842, Note_on_c, 0, 64, 68
1, 1181849, Note_on_c, 0, 55, 0
1, 1181859, Note_on_c, 0, 48, 64
1, 1181900, Note_on_c, 0, 43, 70
1, 1181904, Note_on_c, 0, 48, 0
1, 1181924, Note_on_c, 0, 62, 70
1, 1181933, Note_on_c, 0, 43, 0
1, 1181948, Note_on_c, 0, 64, 0
1, 1181989, Note_on_c, 0, 59, 66
1, 1182000, Note_on_c, 0, 62, 0
1, 1182042, Note_on_c, 0, 59, 0
1, 1182078, Note_on_c, 0, 55, 51
1, 1182145, Note_on_c, 0, 43, 65
1, 1182151, Note_on_c, 0, 55, 0
1, 1182152, Note_on_c, 0, 62, 60
1, 1182205, Note_on_c, 0, 43, 0
1, 1182209, Note_on_c, 0, 62, 0
1, 1182210, Note_on_c, 0, 50, 77
1, 1182223, Note_on_c, 0, 65, 72
1, 1182240, Note_on_c, 0, 50, 0
1, 1182307, Note_on_c, 0, 65, 0
1, 1182315, Note_on_c, 0, 62, 65
1, 1182370, Note_on_c, 0, 62, 0
1, 1182388, Note_on_c, 0, 57, 56
1, 1182464, Note_on_c, 0, 57, 0
1, 1182484, Note_on_c, 0, 65, 63
1, 1182487, Note_on_c, 0, 50, 69
1, 1182540, Note_on_c, 0, 65, 0
1, 1182545, Note_on_c, 0, 64, 71
1, 1182553, Note_on_c, 0, 45, 69
1, 1182560, Note_on_c, 0, 50, 0
1, 1182583, Note_on_c, 0, 45, 0
1, 1182629, Note_on_c, 0, 64, 0
1, 1182635, Note_on_c, 0, 60, 59
1, 1182678, Note_on_c, 0, 60, 0
1, 1182693, Note_on_c, 0, 57, 61
1, 1182755, Note_on_c, 0, 57, 0
1, 1182767, Note_on_c, 0, 64, 71
1, 1182770, Note_on_c, 0, 45, 76
1, 1182813, Note_on_c, 0, 64, 0
1, 1182832, Note_on_c, 0, 45, 0
1, 1182844, Note_on_c, 0, 53, 81
1, 1182846, Note_on_c, 0, 69, 82
1, 1182872, Note_on_c, 0, 53, 0
1, 1182921, Note_on_c, 0, 65, 76
1, 1182962, Note_on_c, 0, 69, 0
1, 1183001, Note_on_c, 0, 65, 0
1, 1183012, Note_on_c, 0, 60, 80
1, 1183073, Note_on_c, 0, 60, 0
1, 1183084, Note_on_c, 0, 53, 67
1, 1183090, Note_on_c, 0, 69, 86
1, 1183145, Note_on_c, 0, 48, 80
1, 1183152, Note_on_c, 0, 67, 80
1, 1183155, Note_on_c, 0, 53, 0
1, 1183174, Note_on_c, 0, 48, 0
1, 1183183, Note_on_c, 0, 69, 0
1, 1183219, Note_on_c, 0, 64, 74
1, 1183246, Note_on_c, 0, 67, 0
1, 1183290, Note_on_c, 0, 60, 80
1, 1183291, Note_on_c, 0, 64, 0
1, 1183351, Note_on_c, 0, 60, 0
1, 1183357, Note_on_c, 0, 48, 66
1, 1183387, Note_on_c, 0, 72, 90
1, 1183435, Note_on_c, 0, 48, 0
1, 1183444, Note_on_c, 0, 72, 0
1, 1183444, Note_on_c, 0, 55, 89
1, 1183456, Note_on_c, 0, 62, 85
1, 1183475, Note_on_c, 0, 55, 0
1, 1183512, Note_on_c, 0, 62, 0
1, 1183540, Note_on_c, 0, 72, 85
1, 1183609, Note_on_c, 0, 67, 79
1, 1183625, Note_on_c, 0, 72, 0
1, 1183680, Note_on_c, 0, 62, 74
1, 1183681, Note_on_c, 0, 67, 0
1, 1183681, Note_on_c, 0, 55, 76
1, 1183724, Note_on_c, 0, 55, 0
1, 1183749, Note_on_c, 0, 43, 76
1, 1183754, Note_on_c, 0, 71, 83
1, 1183757, Note_on_c, 0, 62, 0
1, 1183782, Note_on_c, 0, 43, 0
1, 1183817, Note_on_c, 0, 67, 74
1, 1183839, Note_on_c, 0, 71, 0
1, 1183885, Note_on_c, 0, 62, 75
1, 1183886, Note_on_c, 0, 67, 0
1, 1183945, Note_on_c, 0, 62, 0
1, 1183965, Note_on_c, 0, 71, 78
1, 1183976, Note_on_c, 0, 43, 45
1, 1184009, Note_on_c, 0, 71, 0
1, 1184021, Note_on_c, 0, 48, 87
1, 1184033, Note_on_c, 0, 76, 95
1, 1184036, Note_on_c, 0, 43, 0
1, 1184050, Note_on_c, 0, 48, 0
1, 1184058, Control_c, 0, 64, 38
1, 1184078, Control_c, 0, 64, 75
1, 1184096, Control_c, 0, 64, 82
1, 1184104, Note_on_c, 0, 72, 81
1, 1184133, Control_c, 0, 64, 73
1, 1184152, Note_on_c, 0, 76, 0
1, 1184152, Control_c, 0, 64, 60
1, 1184170, Control_c, 0, 64, 41
1, 1184189, Control_c, 0, 64, 0
1, 1184190, Note_on_c, 0, 72, 0
1, 1184196, Note_on_c, 0, 67, 77
1, 1184244, Note_on_c, 0, 67, 0
1, 1184287, Note_on_c, 0, 60, 75
1, 1184295, Note_on_c, 0, 76, 87
1, 1184355, Note_on_c, 0, 55, 82
1, 1184371, Note_on_c, 0, 60, 0
1, 1184371, Note_on_c, 0, 67, 82
1, 1184372, Note_on_c, 0, 76, 0
1, 1184388, Note_on_c, 0, 55, 0
1, 1184444, Note_on_c, 0, 74, 89
1, 1184446, Note_on_c, 0, 67, 0
1, 1184522, Note_on_c, 0, 71, 80
1, 1184544, Note_on_c, 0, 74, 0
1, 1184593, Note_on_c, 0, 67, 80
1, 1184600, Note_on_c, 0, 71, 0
1, 1184610, Note_on_c, 0, 55, 79
1, 1184666, Note_on_c, 0, 67, 0
1, 1184673, Note_on_c, 0, 77, 97
1, 1184679, Note_on_c, 0, 50, 88
1, 1184680, Control_c, 0, 64, 28
1, 1184695, Note_on_c, 0, 55, 0
1, 1184699, Control_c, 0, 64, 65
1, 1184719, Control_c, 0, 64, 71
1, 1184737, Note_on_c, 0, 50, 0
1, 1184737, Control_c, 0, 64, 65
1, 1184753, Control_c, 0, 64, 55
1, 1184759, Note_on_c, 0, 74, 81
1, 1184773, Control_c, 0, 64, 46
1, 1184788, Note_on_c, 0, 77, 0
1, 1184792, Control_c, 0, 64, 36
1, 1184811, Control_c, 0, 64, 24
1, 1184827, Control_c, 0, 64, 15
1, 1184837, Note_on_c, 0, 69, 79
1, 1184839, Note_on_c, 0, 74, 0
1, 1184894, Note_on_c, 0, 69, 0
1, 1184914, Note_on_c, 0, 62, 77
1, 1184923, Note_on_c, 0, 77, 85
1, 1184996, Note_on_c, 0, 77, 0
1, 1184997, Note_on_c, 0, 57, 80
1, 1184997, Note_on_c, 0, 69, 81
1, 1185006, Note_on_c, 0, 62, 0
1, 1185029, Note_on_c, 0, 57, 0
1, 1185067, Note_on_c, 0, 76, 84
1, 1185089, Note_on_c, 0, 69, 0
1, 1185148, Note_on_c, 0, 72, 71
1, 1185161, Control_c, 0, 64, 10
1, 1185167, Note_on_c, 0, 76, 0
1, 1185179, Control_c, 0, 64, 0
1, 1185222, Note_on_c, 0, 72, 0
1, 1185231, Note_on_c, 0, 57, 56
1, 1185233, Note_on_c, 0, 69, 71
1, 1185291, Note_on_c, 0, 69, 0
1, 1185324, Note_on_c, 0, 81, 79
1, 1185331, Note_on_c, 0, 57, 0
1, 1185339, Note_on_c, 0, 53, 69
1, 1185341, Control_c, 0, 64, 35
1, 1185361, Control_c, 0, 64, 62
1, 1185378, Control_c, 0, 64, 73
1, 1185396, Control_c, 0, 64, 76
1, 1185412, Note_on_c, 0, 81, 0
1, 1185415, Note_on_c, 0, 77, 61
1, 1185437, Note_on_c, 0, 53, 0
1, 1185485, Note_on_c, 0, 77, 0
1, 1185486, Control_c, 0, 64, 78
1, 1185494, Note_on_c, 0, 72, 67
1, 1185539, Note_on_c, 0, 72, 0
1, 1185561, Control_c, 0, 64, 81
1, 1185573, Note_on_c, 0, 65, 56
1, 1185577, Note_on_c, 0, 81, 66
1, 1185616, Note_on_c, 0, 81, 0
1, 1185642, Note_on_c, 0, 65, 0
1, 1185660, Note_on_c, 0, 72, 61
1, 1185662, Note_on_c, 0, 53, 62
1, 1185704, Note_on_c, 0, 72, 0
1, 1185707, Note_on_c, 0, 53, 0
1, 1185722, Note_on_c, 0, 81, 77
1, 1185803, Note_on_c, 0, 77, 73
1, 1185824, Note_on_c, 0, 81, 0
1, 1185872, Note_on_c, 0, 77, 0
1, 1185876, Note_on_c, 0, 65, 81
1, 1185878, Note_on_c, 0, 72, 79
1, 1185932, Note_on_c, 0, 65, 0
1, 1185932, Note_on_c, 0, 72, 0
1, 1185948, Note_on_c, 0, 81, 92
1, 1185960, Note_on_c, 0, 53, 81
1, 1186017, Note_on_c, 0, 77, 74
1, 1186020, Note_on_c, 0, 53, 0
1, 1186057, Note_on_c, 0, 81, 0
1, 1186059, Control_c, 0, 64, 83
1, 1186082, Note_on_c, 0, 72, 85
1, 1186095, Note_on_c, 0, 77, 0
1, 1186114, Control_c, 0, 64, 85
1, 1186159, Note_on_c, 0, 72, 0
1, 1186165, Control_c, 0, 64, 87
1, 1186187, Note_on_c, 0, 81, 95
1, 1186187, Note_on_c, 0, 65, 89
1, 1186244, Note_on_c, 0, 65, 0
1, 1186244, Note_on_c, 0, 61, 15
1, 1186251, Note_on_c, 0, 53, 85
1, 1186256, Note_on_c, 0, 81, 0
1, 1186273, Note_on_c, 0, 72, 87
1, 1186283, Note_on_c, 0, 53, 0
1, 1186296, Control_c, 0, 64, 92
1, 1186310, Note_on_c, 0, 61, 0
1, 1186315, Control_c, 0, 64, 96
1, 1186332, Control_c, 0, 64, 102
1, 1186341, Note_on_c, 0, 81, 96
1, 1186347, Note_on_c, 0, 72, 0
1, 1186350, Control_c, 0, 64, 106
1, 1186369, Control_c, 0, 64, 111
1, 1186386, Control_c, 0, 64, 117
1, 1186405, Control_c, 0, 64, 122
1, 1186419, Note_on_c, 0, 77, 91
1, 1186423, Control_c, 0, 64, 127
1, 1186462, Note_on_c, 0, 81, 0
1, 1186485, Note_on_c, 0, 72, 85
1, 1186504, Note_on_c, 0, 53, 92
1, 1186533, Note_on_c, 0, 77, 0
1, 1186533, Control_c, 0, 64, 101
1, 1186552, Control_c, 0, 64, 34
1, 1186571, Control_c, 0, 64, 0
1, 1186575, Note_on_c, 0, 41, 101
1, 1186596, Note_on_c, 0, 72, 0
1, 1186626, Control_c, 0, 64, 36
1, 1186632, Note_on_c, 0, 53, 0
1, 1186644, Control_c, 0, 64, 73
1, 1186652, Note_on_c, 0, 41, 0
1, 1186663, Control_c, 0, 64, 93
1, 1186682, Control_c, 0, 64, 103
1, 1186699, Poly_aftertouch_c, 0, 42, 0
1, 1186736, Control_c, 0, 67, 8
1, 1186755, Control_c, 0, 67, 12
1, 1186773, Control_c, 0, 67, 18
1, 1186792, Control_c, 0, 67, 26
1, 1186811, Control_c, 0, 67, 34
1, 1186830, Control_c, 0, 67, 39
1, 1186864, Control_c, 0, 64, 98
1, 1186903, Control_c, 0, 64, 90
1, 1186921, Control_c, 0, 64, 84
1, 1186939, Control_c, 0, 64, 79
1, 1186942, Control_c, 0, 67, 48
1, 1186958, Control_c, 0, 64, 75
1, 1186959, Control_c, 0, 67, 56
1, 1186976, Control_c, 0, 64, 73
1, 1186976, Control_c, 0, 67, 66
1, 1186993, Control_c, 0, 67, 77
1, 1187001, Note_on_c, 0, 57, 32
1, 1187002, Note_on_c, 0, 84, 71
1, 1187013, Control_c, 0, 67, 89
1, 1187031, Control_c, 0, 67, 100
1, 1187050, Control_c, 0, 67, 109
1, 1187051, Note_on_c, 0, 57, 0
1, 1187069, Control_c, 0, 67, 119
1, 1187093, Note_on_c, 0, 84, 0
1, 1187094, Note_on_c, 0, 60, 52
1, 1187102, Control_c, 0, 67, 125
1, 1187160, Note_on_c, 0, 60, 0
1, 1187184, Note_on_c, 0, 84, 69
1, 1187186, Note_on_c, 0, 57, 50
1, 1187225, Note_on_c, 0, 57, 0
1, 1187288, Note_on_c, 0, 60, 47
1, 1187346, Note_on_c, 0, 60, 0
1, 1187346, Note_on_c, 0, 57, 51
1, 1187394, Note_on_c, 0, 57, 0
1, 1187426, Note_on_c, 0, 84, 0
1, 1187444, Note_on_c, 0, 60, 47
1, 1187447, Note_on_c, 0, 81, 60
1, 1187501, Note_on_c, 0, 60, 0
1, 1187512, Note_on_c, 0, 79, 63
1, 1187521, Note_on_c, 0, 58, 55
1, 1187562, Note_on_c, 0, 81, 0
1, 1187564, Note_on_c, 0, 58, 0
1, 1187603, Note_on_c, 0, 60, 48
1, 1187633, Note_on_c, 0, 79, 0
1, 1187647, Note_on_c, 0, 60, 0
1, 1187675, Note_on_c, 0, 72, 57
1, 1187676, Note_on_c, 0, 58, 49
1, 1187727, Note_on_c, 0, 58, 0
1, 1187762, Note_on_c, 0, 60, 50
1, 1187784, Note_on_c, 0, 72, 0
1, 1187828, Note_on_c, 0, 60, 0
1, 1187842, Note_on_c, 0, 77, 58
1, 1187856, Note_on_c, 0, 57, 41
1, 1187896, Note_on_c, 0, 57, 0
1, 1187952, Note_on_c, 0, 60, 41
1, 1188003, Note_on_c, 0, 60, 0
1, 1188026, Note_on_c, 0, 57, 47
1, 1188034, Note_on_c, 0, 77, 0
1, 1188034, Note_on_c, 0, 81, 56
1, 1188066, Note_on_c, 0, 81, 0
1, 1188074, Control_c, 0, 64, 75
1, 1188075, Note_on_c, 0, 57, 0
1, 1188118, Note_on_c, 0, 60, 51
1, 1188182, Note_on_c, 0, 60, 0
1, 1188206, Note_on_c, 0, 57, 45
1, 1188245, Note_on_c, 0, 57, 0
1, 1188300, Note_on_c, 0, 60, 30
1, 1188347, Note_on_c, 0, 60, 0
1, 1188360, Note_on_c, 0, 57, 52
1, 1188370, Note_on_c, 0, 84, 78
1, 1188405, Note_on_c, 0, 57, 0
1, 1188421, Note_on_c, 0, 84, 0
1, 1188447, Note_on_c, 0, 60, 54
1, 1188452, Note_on_c, 0, 83, 80
1, 1188502, Note_on_c, 0, 60, 0
1, 1188505, Note_on_c, 0, 83, 0
1, 1188511, Note_on_c, 0, 57, 62
1, 1188524, Note_on_c, 0, 84, 81
1, 1188551, Note_on_c, 0, 57, 0
1, 1188585, Note_on_c, 0, 84, 0
1, 1188593, Note_on_c, 0, 83, 84
1, 1188602, Note_on_c, 0, 60, 58
1, 1188658, Note_on_c, 0, 57, 59
1, 1188664, Note_on_c, 0, 60, 0
1, 1188671, Note_on_c, 0, 83, 0
1, 1188681, Note_on_c, 0, 84, 83
1, 1188703, Note_on_c, 0, 57, 0
1, 1188735, Note_on_c, 0, 84, 0
1, 1188745, Note_on_c, 0, 81, 79
1, 1188748, Note_on_c, 0, 60, 65
1, 1188791, Note_on_c, 0, 81, 0
1, 1188809, Control_c, 0, 64, 73
1, 1188819, Note_on_c, 0, 60, 0
1, 1188824, Note_on_c, 0, 58, 67
1, 1188832, Note_on_c, 0, 79, 84
1, 1188864, Note_on_c, 0, 58, 0
1, 1188900, Note_on_c, 0, 60, 60
1, 1188906, Note_on_c, 0, 79, 0
1, 1188909, Note_on_c, 0, 78, 86
1, 1188990, Note_on_c, 0, 60, 0
1, 1188995, Note_on_c, 0, 58, 72
1, 1188999, Note_on_c, 0, 79, 81
1, 1189011, Note_on_c, 0, 78, 0
1, 1189045, Note_on_c, 0, 58, 0
1, 1189054, Note_on_c, 0, 79, 0
1, 1189070, Note_on_c, 0, 60, 62
1, 1189089, Note_on_c, 0, 72, 75
1, 1189121, Control_c, 0, 67, 121
1, 1189136, Note_on_c, 0, 72, 0
1, 1189140, Note_on_c, 0, 60, 0
1, 1189140, Control_c, 0, 64, 75
1, 1189141, Control_c, 0, 67, 105
1, 1189154, Note_on_c, 0, 57, 55
1, 1189158, Control_c, 0, 67, 78
1, 1189165, Note_on_c, 0, 77, 75
1, 1189176, Control_c, 0, 67, 42
1, 1189189, Note_on_c, 0, 57, 0
1, 1189211, Control_c, 0, 67, 0
1, 1189219, Note_on_c, 0, 60, 63
1, 1189224, Note_on_c, 0, 77, 0
1, 1189232, Note_on_c, 0, 76, 80
1, 1189278, Note_on_c, 0, 57, 70
1, 1189291, Note_on_c, 0, 60, 0
1, 1189312, Note_on_c, 0, 57, 0
1, 1189315, Note_on_c, 0, 77, 73
1, 1189319, Note_on_c, 0, 76, 0
1, 1189342, Control_c, 0, 64, 77
1, 1189345, Note_on_c, 0, 60, 62
1, 1189364, Note_on_c, 0, 81, 82
1, 1189372, Note_on_c, 0, 77, 0
1, 1189378, Note_on_c, 0, 60, 0
1, 1189416, Control_c, 0, 64, 57
1, 1189418, Note_on_c, 0, 81, 0
1, 1189432, Control_c, 0, 64, 0
1, 1189448, Poly_aftertouch_c, 0, 59, 0
1, 1189497, Note_on_c, 0, 43, 96
1, 1189524, Control_c, 0, 64, 19
1, 1189543, Control_c, 0, 64, 74
1, 1189548, Note_on_c, 0, 43, 0
1, 1189563, Control_c, 0, 64, 104
1, 1189580, Control_c, 0, 64, 120
1, 1189605, Poly_aftertouch_c, 0, 50, 0
1, 1189717, Note_on_c, 0, 89, 100
1, 1189733, Note_on_c, 0, 77, 77
1, 1189756, Note_on_c, 0, 59, 62
1, 1189761, Note_on_c, 0, 77, 0
1, 1189783, Control_c, 0, 64, 114
1, 1189791, Note_on_c, 0, 89, 0
1, 1189820, Control_c, 0, 64, 110
1, 1189851, Note_on_c, 0, 59, 0
1, 1189905, Note_on_c, 0, 89, 98
1, 1189907, Control_c, 0, 64, 106
1, 1189925, Note_on_c, 0, 62, 57
1, 1189936, Note_on_c, 0, 77, 59
1, 1189959, Note_on_c, 0, 77, 0
1, 1189964, Control_c, 0, 64, 102
1, 1189970, Note_on_c, 0, 89, 0
1, 1190004, Note_on_c, 0, 62, 0
1, 1190019, Control_c, 0, 64, 97
1, 1190037, Poly_aftertouch_c, 0, 82, 0
1, 1190090, Note_on_c, 0, 59, 57
1, 1190112, Control_c, 0, 64, 92
1, 1190147, Control_c, 0, 64, 87
1, 1190150, Note_on_c, 0, 86, 81
1, 1190165, Control_c, 0, 64, 85
1, 1190176, Note_on_c, 0, 74, 41
1, 1190211, Note_on_c, 0, 74, 0
1, 1190220, Control_c, 0, 64, 83
1, 1190223, Note_on_c, 0, 88, 86
1, 1190233, Note_on_c, 0, 59, 0
1, 1190241, Note_on_c, 0, 76, 40
1, 1190259, Note_on_c, 0, 60, 59
1, 1190277, Control_c, 0, 64, 81
1, 1190282, Note_on_c, 0, 76, 0
1, 1190293, Note_on_c, 0, 88, 0
1, 1190301, Note_on_c, 0, 86, 0
1, 1190332, Control_c, 0, 67, 8
1, 1190368, Control_c, 0, 67, 13
1, 1190370, Note_on_c, 0, 60, 0
1, 1190401, Note_on_c, 0, 84, 80
1, 1190402, Note_on_c, 0, 64, 59
1, 1190428, Note_on_c, 0, 72, 61
1, 1190442, Control_c, 0, 67, 17
1, 1190449, Note_on_c, 0, 72, 0
1, 1190479, Control_c, 0, 67, 24
1, 1190505, Note_on_c, 0, 84, 0
1, 1190551, Note_on_c, 0, 64, 0
1, 1190560, Note_on_c, 0, 62, 58
1, 1190566, Note_on_c, 0, 83, 74
1, 1190588, Note_on_c, 0, 71, 55
1, 1190615, Note_on_c, 0, 71, 0
1, 1190681, Control_c, 0, 67, 29
1, 1190712, Note_on_c, 0, 83, 0
1, 1190716, Note_on_c, 0, 62, 0
1, 1190718, Control_c, 0, 67, 34
1, 1190732, Note_on_c, 0, 74, 71
1, 1190732, Note_on_c, 0, 86, 76
1, 1190744, Note_on_c, 0, 59, 42
1, 1190763, Note_on_c, 0, 74, 0
1, 1190805, Note_on_c, 0, 86, 0
1, 1190927, Note_on_c, 0, 55, 55
1, 1190936, Note_on_c, 0, 59, 0
1, 1191080, Note_on_c, 0, 59, 54
1, 1191092, Note_on_c, 0, 89, 80
1, 1191101, Note_on_c, 0, 77, 65
1, 1191126, Note_on_c, 0, 77, 0
1, 1191154, Note_on_c, 0, 89, 0
1, 1191159, Note_on_c, 0, 55, 0
1, 1191189, Note_on_c, 0, 59, 0
1, 1191250, Note_on_c, 0, 62, 52
1, 1191260, Note_on_c, 0, 89, 87
1, 1191270, Note_on_c, 0, 77, 66
1, 1191299, Note_on_c, 0, 77, 0
1, 1191320, Note_on_c, 0, 89, 0
1, 1191414, Note_on_c, 0, 59, 55
1, 1191416, Poly_aftertouch_c, 0, 55, 127
1, 1191437, Note_on_c, 0, 62, 0
1, 1191471, Poly_aftertouch_c, 0, 55, 0
1, 1191487, Note_on_c, 0, 86, 73
1, 1191496, Note_on_c, 0, 74, 55
1, 1191525, Note_on_c, 0, 74, 0
1, 1191525, Control_c, 0, 64, 79
1, 1191564, Control_c, 0, 64, 75
1, 1191566, Note_on_c, 0, 59, 0
1, 1191569, Note_on_c, 0, 86, 0
1, 1191571, Note_on_c, 0, 88, 85
1, 1191583, Control_c, 0, 64, 70
1, 1191583, Control_c, 0, 67, 40
1, 1191589, Note_on_c, 0, 76, 61
1, 1191600, Control_c, 0, 64, 66
1, 1191600, Control_c, 0, 67, 44
1, 1191608, Note_on_c, 0, 60, 46
1, 1191619, Control_c, 0, 64, 64
1, 1191620, Control_c, 0, 67, 49
1, 1191627, Note_on_c, 0, 76, 0
1, 1191638, Control_c, 0, 64, 62
1, 1191656, Note_on_c, 0, 88, 0
1, 1191657, Control_c, 0, 64, 59
1, 1191657, Control_c, 0, 67, 57
1, 1191675, Control_c, 0, 67, 63
1, 1191695, Control_c, 0, 64, 56
1, 1191697, Control_c, 0, 67, 73
1, 1191712, Control_c, 0, 67, 85
1, 1191714, Note_on_c, 0, 60, 0
1, 1191731, Control_c, 0, 64, 54
1, 1191732, Control_c, 0, 67, 96
1, 1191748, Note_on_c, 0, 84, 77
1, 1191750, Control_c, 0, 67, 105
1, 1191774, Note_on_c, 0, 64, 54
1, 1191781, Control_c, 0, 64, 51
1, 1191782, Control_c, 0, 67, 111
1, 1191794, Note_on_c, 0, 72, 49
1, 1191802, Control_c, 0, 67, 117
1, 1191818, Control_c, 0, 64, 49
1, 1191819, Control_c, 0, 67, 122
1, 1191823, Note_on_c, 0, 72, 0
1, 1191838, Control_c, 0, 67, 127
1, 1191876, Control_c, 0, 64, 47
1, 1191906, Note_on_c, 0, 64, 0
1, 1191920, Note_on_c, 0, 62, 55
1, 1191927, Note_on_c, 0, 83, 82
1, 1191957, Note_on_c, 0, 84, 0
1, 1191960, Note_on_c, 0, 71, 46
1, 1191992, Note_on_c, 0, 71, 0
1, 1192063, Note_on_c, 0, 62, 0
1, 1192077, Note_on_c, 0, 83, 0
1, 1192081, Note_on_c, 0, 59, 52
1, 1192092, Note_on_c, 0, 86, 74
1, 1192098, Note_on_c, 0, 74, 62
1, 1192128, Note_on_c, 0, 74, 0
1, 1192146, Note_on_c, 0, 86, 0
1, 1192169, Control_c, 0, 64, 52
1, 1192188, Control_c, 0, 64, 57
1, 1192205, Control_c, 0, 64, 60
1, 1192220, Note_on_c, 0, 59, 0
1, 1192224, Control_c, 0, 64, 61
1, 1192240, Note_on_c, 0, 57, 55
1, 1192240, Control_c, 0, 64, 62
1, 1192254, Note_on_c, 0, 84, 78
1, 1192271, Note_on_c, 0, 72, 60
1, 1192279, Control_c, 0, 64, 64
1, 1192303, Note_on_c, 0, 72, 0
1, 1192333, Note_on_c, 0, 84, 0
1, 1192350, Note_on_c, 0, 57, 0
1, 1192415, Note_on_c, 0, 81, 71
1, 1192418, Note_on_c, 0, 60, 56
1, 1192481, Poly_aftertouch_c, 0, 69, 0
1, 1192518, Control_c, 0, 64, 61
1, 1192532, Note_on_c, 0, 81, 0
1, 1192536, Control_c, 0, 64, 59
1, 1192568, Note_on_c, 0, 79, 73
1, 1192574, Note_on_c, 0, 67, 63
1, 1192578, Note_on_c, 0, 60, 0
1, 1192582, Note_on_c, 0, 59, 53
1, 1192600, Note_on_c, 0, 67, 0
1, 1192609, Control_c, 0, 64, 62
1, 1192629, Control_c, 0, 64, 65
1, 1192647, Control_c, 0, 64, 68
1, 1192665, Control_c, 0, 64, 70
1, 1192717, Control_c, 0, 64, 73
1, 1192723, Note_on_c, 0, 79, 0
1, 1192730, Note_on_c, 0, 83, 80
1, 1192753, Control_c, 0, 64, 75
1, 1192758, Note_on_c, 0, 59, 0
1, 1192764, Note_on_c, 0, 55, 49
1, 1192764, Note_on_c, 0, 71, 43
1, 1192782, Note_on_c, 0, 83, 0
1, 1192790, Control_c, 0, 64, 78
1, 1192796, Note_on_c, 0, 71, 0
1, 1192883, Control_c, 0, 64, 75
1, 1192898, Note_on_c, 0, 81, 80
1, 1192901, Control_c, 0, 64, 71
1, 1192906, Note_on_c, 0, 55, 0
1, 1192919, Control_c, 0, 64, 69
1, 1192919, Note_on_c, 0, 69, 62
1, 1192928, Note_on_c, 0, 53, 52
1, 1192943, Note_on_c, 0, 69, 0
1, 1192956, Control_c, 0, 64, 71
1, 1192974, Note_on_c, 0, 81, 0
1, 1192974, Control_c, 0, 64, 73
1, 1192993, Control_c, 0, 64, 75
1, 1192995, Note_on_c, 0, 53, 0
1, 1193029, Control_c, 0, 64, 77
1, 1193060, Note_on_c, 0, 57, 50
1, 1193069, Note_on_c, 0, 77, 74
1, 1193085, Control_c, 0, 64, 79
1, 1193110, Note_on_c, 0, 65, 24
1, 1193157, Note_on_c, 0, 57, 0
1, 1193163, Note_on_c, 0, 65, 0
1, 1193176, Control_c, 0, 64, 73
1, 1193190, Note_on_c, 0, 77, 0
1, 1193194, Control_c, 0, 64, 66
1, 1193214, Note_on_c, 0, 55, 51
1, 1193214, Control_c, 0, 64, 63
1, 1193235, Note_on_c, 0, 76, 77
1, 1193250, Control_c, 0, 64, 66
1, 1193267, Control_c, 0, 64, 69
1, 1193287, Control_c, 0, 64, 72
1, 1193306, Control_c, 0, 64, 74
1, 1193342, Control_c, 0, 64, 76
1, 1193370, Poly_aftertouch_c, 0, 64, 0
1, 1193376, Note_on_c, 0, 76, 0
1, 1193387, Note_on_c, 0, 55, 0
1, 1193395, Note_on_c, 0, 79, 69
1, 1193397, Note_on_c, 0, 52, 51
1, 1193401, Note_on_c, 0, 67, 62
1, 1193415, Control_c, 0, 64, 78
1, 1193424, Note_on_c, 0, 67, 0
1, 1193430, Note_on_c, 0, 79, 0
1, 1193454, Control_c, 0, 64, 81
1, 1193527, Control_c, 0, 64, 77
1, 1193536, Note_on_c, 0, 52, 0
1, 1193544, Control_c, 0, 64, 67
1, 1193549, Note_on_c, 0, 77, 75
1, 1193552, Note_on_c, 0, 50, 49
1, 1193564, Control_c, 0, 64, 56
1, 1193569, Note_on_c, 0, 65, 64
1, 1193583, Control_c, 0, 64, 52
1, 1193605, Note_on_c, 0, 65, 0
1, 1193620, Note_on_c, 0, 77, 0
1, 1193620, Note_on_c, 0, 50, 0
1, 1193651, Control_c, 0, 64, 60
1, 1193671, Control_c, 0, 64, 67
1, 1193688, Control_c, 0, 64, 72
1, 1193706, Control_c, 0, 64, 75
1, 1193713, Note_on_c, 0, 53, 52
1, 1193723, Control_c, 0, 64, 78
1, 1193730, Note_on_c, 0, 74, 69
1, 1193743, Control_c, 0, 64, 80
1, 1193754, Note_on_c, 0, 62, 52
1, 1193782, Control_c, 0, 64, 82
1, 1193790, Note_on_c, 0, 62, 0
1, 1193837, Control_c, 0, 64, 73
1, 1193841, Note_on_c, 0, 53, 0
1, 1193843, Poly_aftertouch_c, 0, 64, 0
1, 1193856, Control_c, 0, 64, 62
1, 1193864, Note_on_c, 0, 74, 0
1, 1193873, Control_c, 0, 64, 53
1, 1193890, Control_c, 0, 64, 50
1, 1193893, Note_on_c, 0, 76, 68
1, 1193908, Note_on_c, 0, 64, 48
1, 1193910, Note_on_c, 0, 48, 42
1, 1193929, Control_c, 0, 64, 55
1, 1193936, Note_on_c, 0, 76, 0
1, 1193943, Note_on_c, 0, 64, 0
1, 1193948, Control_c, 0, 64, 64
1, 1193964, Control_c, 0, 64, 71
1, 1193983, Control_c, 0, 64, 76
1, 1193993, Note_on_c, 0, 48, 0
1, 1194000, Control_c, 0, 64, 81
1, 1194021, Control_c, 0, 64, 83
1, 1194047, Note_on_c, 0, 52, 49
1, 1194049, Note_on_c, 0, 72, 66
1, 1194073, Note_on_c, 0, 60, 44
1, 1194096, Control_c, 0, 64, 79
1, 1194110, Note_on_c, 0, 60, 0
1, 1194113, Control_c, 0, 64, 68
1, 1194131, Control_c, 0, 64, 54
1, 1194149, Control_c, 0, 64, 45
1, 1194162, Note_on_c, 0, 52, 0
1, 1194167, Control_c, 0, 64, 42
1, 1194202, Control_c, 0, 64, 47
1, 1194206, Note_on_c, 0, 47, 51
1, 1194213, Note_on_c, 0, 74, 71
1, 1194214, Note_on_c, 0, 72, 0
1, 1194221, Control_c, 0, 64, 60
1, 1194235, Note_on_c, 0, 62, 51
1, 1194240, Control_c, 0, 64, 69
1, 1194260, Control_c, 0, 64, 73
1, 1194265, Note_on_c, 0, 74, 0
1, 1194273, Note_on_c, 0, 62, 0
1, 1194273, Note_on_c, 0, 47, 0
1, 1194279, Control_c, 0, 64, 76
1, 1194316, Control_c, 0, 64, 79
1, 1194352, Control_c, 0, 64, 81
1, 1194358, Note_on_c, 0, 50, 51
1, 1194370, Note_on_c, 0, 71, 67
1, 1194395, Note_on_c, 0, 59, 42
1, 1194424, Control_c, 0, 64, 73
1, 1194433, Note_on_c, 0, 59, 0
1, 1194443, Control_c, 0, 64, 58
1, 1194463, Control_c, 0, 64, 43
1, 1194478, Note_on_c, 0, 50, 0
1, 1194481, Control_c, 0, 64, 32
1, 1194536, Note_on_c, 0, 45, 46
1, 1194540, Note_on_c, 0, 72, 65
1, 1194545, Note_on_c, 0, 71, 0
1, 1194549, Note_on_c, 0, 60, 58
1, 1194555, Control_c, 0, 64, 48
1, 1194587, Control_c, 0, 64, 63
1, 1194595, Note_on_c, 0, 72, 0
1, 1194595, Note_on_c, 0, 60, 0
1, 1194606, Control_c, 0, 64, 71
1, 1194625, Control_c, 0, 64, 74
1, 1194660, Control_c, 0, 64, 76
1, 1194676, Note_on_c, 0, 45, 0
1, 1194713, Note_on_c, 0, 69, 66
1, 1194720, Note_on_c, 0, 48, 43
1, 1194749, Note_on_c, 0, 57, 34
1, 1194754, Control_c, 0, 64, 69
1, 1194773, Control_c, 0, 64, 60
1, 1194791, Control_c, 0, 64, 53
1, 1194796, Note_on_c, 0, 57, 0
1, 1194809, Control_c, 0, 64, 51
1, 1194840, Note_on_c, 0, 48, 0
1, 1194844, Control_c, 0, 64, 53
1, 1194864, Control_c, 0, 64, 61
1, 1194877, Note_on_c, 0, 43, 49
1, 1194882, Note_on_c, 0, 69, 0
1, 1194882, Control_c, 0, 64, 69
1, 1194882, Note_on_c, 0, 71, 68
1, 1194900, Control_c, 0, 64, 73
1, 1194905, Note_on_c, 0, 59, 45
1, 1194919, Control_c, 0, 64, 77
1, 1194933, Note_on_c, 0, 71, 0
1, 1194943, Note_on_c, 0, 59, 0
1, 1194956, Control_c, 0, 64, 79
1, 1194964, Note_on_c, 0, 43, 0
1, 1194993, Control_c, 0, 64, 76
1, 1195011, Control_c, 0, 64, 67
1, 1195030, Control_c, 0, 64, 53
1, 1195036, Note_on_c, 0, 47, 55
1, 1195038, Note_on_c, 0, 67, 68
1, 1195047, Control_c, 0, 64, 43
1, 1195068, Control_c, 0, 64, 38
1, 1195075, Note_on_c, 0, 55, 28
1, 1195121, Control_c, 0, 64, 50
1, 1195124, Note_on_c, 0, 55, 0
1, 1195139, Control_c, 0, 64, 63
1, 1195158, Control_c, 0, 64, 69
1, 1195161, Note_on_c, 0, 47, 0
1, 1195177, Control_c, 0, 64, 72
1, 1195182, Note_on_c, 0, 67, 0
1, 1195196, Note_on_c, 0, 69, 71
1, 1195213, Note_on_c, 0, 41, 50
1, 1195238, Note_on_c, 0, 57, 32
1, 1195253, Note_on_c, 0, 69, 0
1, 1195269, Control_c, 0, 64, 66
1, 1195287, Note_on_c, 0, 57, 0
1, 1195287, Control_c, 0, 64, 51
1, 1195306, Control_c, 0, 64, 34
1, 1195326, Control_c, 0, 64, 24
1, 1195327, Note_on_c, 0, 41, 0
1, 1195364, Note_on_c, 0, 65, 68
1, 1195367, Note_on_c, 0, 45, 48
1, 1195380, Control_c, 0, 64, 33
1, 1195394, Note_on_c, 0, 53, 41
1, 1195396, Control_c, 0, 64, 51
1, 1195416, Control_c, 0, 64, 67
1, 1195434, Note_on_c, 0, 53, 0
1, 1195454, Control_c, 0, 64, 56
1, 1195473, Control_c, 0, 64, 28
1, 1195483, Note_on_c, 0, 45, 0
1, 1195490, Control_c, 0, 64, 0
1, 1195551, Note_on_c, 0, 65, 0
1, 1195555, Note_on_c, 0, 67, 70
1, 1195560, Note_on_c, 0, 40, 46
1, 1195579, Control_c, 0, 64, 27
1, 1195582, Note_on_c, 0, 55, 44
1, 1195596, Control_c, 0, 64, 48
1, 1195597, Control_c, 0, 67, 118
1, 1195600, Note_on_c, 0, 67, 0
1, 1195617, Control_c, 0, 64, 66
1, 1195619, Control_c, 0, 67, 103
1, 1195622, Note_on_c, 0, 55, 0
1, 1195630, Note_on_c, 0, 40, 0
1, 1195636, Control_c, 0, 64, 74
1, 1195637, Control_c, 0, 67, 77
1, 1195652, Control_c, 0, 64, 76
1, 1195653, Control_c, 0, 67, 40
1, 1195671, Control_c, 0, 67, 0
1, 1195709, Note_on_c, 0, 43, 44
1, 1195713, Note_on_c, 0, 64, 67
1, 1195763, Control_c, 0, 64, 72
1, 1195781, Control_c, 0, 64, 59
1, 1195800, Control_c, 0, 64, 36
1, 1195821, Control_c, 0, 64, 10
1, 1195832, Poly_aftertouch_c, 0, 52, 0
1, 1195868, Note_on_c, 0, 43, 0
1, 1195869, Note_on_c, 0, 64, 0
1, 1195873, Control_c, 0, 64, 18
1, 1195883, Note_on_c, 0, 65, 71
1, 1195892, Control_c, 0, 64, 42
1, 1195893, Note_on_c, 0, 38, 48
1, 1195910, Control_c, 0, 64, 62
1, 1195916, Note_on_c, 0, 31, 47
1, 1195918, Note_on_c, 0, 65, 0
1, 1195928, Control_c, 0, 64, 73
1, 1195948, Control_c, 0, 64, 79
1, 1195967, Control_c, 0, 64, 83
1, 1195989, Note_on_c, 0, 38, 0
1, 1195991, Poly_aftertouch_c, 0, 53, 0
1, 1196021, Note_on_c, 0, 31, 0
1, 1196041, Control_c, 0, 64, 81
1, 1196045, Note_on_c, 0, 59, 80
1, 1196053, Note_on_c, 0, 43, 58
1, 1196071, Note_on_c, 0, 47, 58
1, 1196093, Note_on_c, 0, 43, 0
1, 1196105, Note_on_c, 0, 47, 0
1, 1196108, Note_on_c, 0, 59, 0
1, 1196110, Control_c, 0, 64, 77
1, 1196131, Control_c, 0, 64, 74
1, 1196149, Control_c, 0, 64, 71
1, 1196168, Control_c, 0, 64, 66
1, 1196187, Control_c, 0, 64, 55
1, 1196205, Control_c, 0, 64, 10
1, 1196222, Control_c, 0, 64, 0
1, 1196277, Note_on_c, 0, 60, 96
1, 1196277, Note_on_c, 0, 32, 94
1, 1196279, Note_on_c, 0, 44, 110
1, 1196280, Note_on_c, 0, 51, 97
1, 1196284, Note_on_c, 0, 48, 96
1, 1196325, Note_on_c, 0, 32, 0
1, 1196326, Note_on_c, 0, 48, 0
1, 1196326, Note_on_c, 0, 44, 0
1, 1196352, Control_c, 0, 64, 65
1, 1196355, Note_on_c, 0, 51, 0
1, 1196364, Note_on_c, 0, 60, 0
1, 1196371, Control_c, 0, 64, 127
1, 1196631, Poly_aftertouch_c, 0, 61, 0
1, 1196686, Note_on_c, 0, 63, 97
1, 1196686, Note_on_c, 0, 60, 86
1, 1196691, Note_on_c, 0, 56, 79
1, 1196726, Note_on_c, 0, 63, 0
1, 1196733, Note_on_c, 0, 60, 0
1, 1196748, Note_on_c, 0, 56, 0
1, 1197060, Note_on_c, 0, 63, 107
1, 1197063, Note_on_c, 0, 60, 83
1, 1197071, Note_on_c, 0, 56, 86
1, 1197189, Note_on_c, 0, 72, 89
1, 1197191, Poly_aftertouch_c, 0, 57, 127
1, 1197222, Note_on_c, 0, 63, 0
1, 1197225, Poly_aftertouch_c, 0, 57, 0
1, 1197250, Note_on_c, 0, 60, 0
1, 1197256, Note_on_c, 0, 56, 0
1, 1197293, Note_on_c, 0, 75, 93
1, 1197308, Note_on_c, 0, 72, 0
1, 1197404, Note_on_c, 0, 75, 0
1, 1197416, Note_on_c, 0, 80, 91
1, 1197464, Note_on_c, 0, 80, 0
1, 1197516, Note_on_c, 0, 84, 86
1, 1197560, Note_on_c, 0, 83, 19
1, 1197561, Note_on_c, 0, 83, 0
1, 1197606, Note_on_c, 0, 84, 0
1, 1197610, Note_on_c, 0, 87, 72
1, 1197644, Note_on_c, 0, 87, 0
1, 1197706, Control_c, 0, 64, 69
1, 1197725, Control_c, 0, 64, 0
1, 1197765, Note_on_c, 0, 85, 79
1, 1197769, Note_on_c, 0, 39, 56
1, 1197781, Control_c, 0, 67, 8
1, 1197799, Control_c, 0, 64, 47
1, 1197804, Note_on_c, 0, 39, 0
1, 1197818, Control_c, 0, 64, 71
1, 1197838, Control_c, 0, 64, 74
1, 1197854, Control_c, 0, 64, 72
1, 1197869, Note_on_c, 0, 85, 0
1, 1197870, Note_on_c, 0, 82, 73
1, 1197872, Control_c, 0, 64, 66
1, 1197890, Control_c, 0, 64, 54
1, 1197910, Control_c, 0, 64, 36
1, 1197914, Note_on_c, 0, 82, 0
1, 1197928, Control_c, 0, 64, 0
1, 1197977, Note_on_c, 0, 79, 56
1, 1198004, Note_on_c, 0, 79, 0
1, 1198083, Note_on_c, 0, 61, 56
1, 1198084, Note_on_c, 0, 73, 70
1, 1198091, Note_on_c, 0, 58, 48
1, 1198098, Note_on_c, 0, 55, 47
1, 1198099, Note_on_c, 0, 51, 45
1, 1198113, Note_on_c, 0, 61, 0
1, 1198124, Note_on_c, 0, 58, 0
1, 1198132, Note_on_c, 0, 55, 0
1, 1198135, Note_on_c, 0, 51, 0
1, 1198148, Control_c, 0, 67, 13
1, 1198170, Note_on_c, 0, 73, 0
1, 1198191, Note_on_c, 0, 70, 57
1, 1198239, Note_on_c, 0, 70, 0
1, 1198283, Note_on_c, 0, 67, 54
1, 1198324, Note_on_c, 0, 67, 0
1, 1198384, Control_c, 0, 64, 12
1, 1198402, Control_c, 0, 64, 48
1, 1198411, Note_on_c, 0, 40, 60
1, 1198421, Control_c, 0, 64, 67
1, 1198439, Control_c, 0, 64, 66
1, 1198442, Note_on_c, 0, 40, 0
1, 1198445, Note_on_c, 0, 85, 70
1, 1198542, Note_on_c, 0, 82, 71
1, 1198566, Note_on_c, 0, 85, 0
1, 1198587, Control_c, 0, 64, 65
1, 1198605, Control_c, 0, 64, 64
1, 1198610, Note_on_c, 0, 82, 0
1, 1198625, Control_c, 0, 64, 62
1, 1198647, Note_on_c, 0, 79, 63
1, 1198660, Control_c, 0, 64, 61
1, 1198679, Control_c, 0, 64, 60
1, 1198680, Note_on_c, 0, 79, 0
1, 1198697, Control_c, 0, 64, 57
1, 1198716, Control_c, 0, 64, 52
1, 1198734, Control_c, 0, 64, 40
1, 1198753, Control_c, 0, 64, 12
1, 1198763, Note_on_c, 0, 61, 63
1, 1198766, Note_on_c, 0, 73, 68
1, 1198771, Control_c, 0, 64, 0
1, 1198773, Note_on_c, 0, 55, 56
1, 1198773, Note_on_c, 0, 58, 54
1, 1198776, Note_on_c, 0, 52, 52
1, 1198795, Note_on_c, 0, 61, 0
1, 1198809, Note_on_c, 0, 58, 0
1, 1198811, Note_on_c, 0, 52, 0
1, 1198820, Note_on_c, 0, 55, 0
1, 1198866, Note_on_c, 0, 73, 0
1, 1198868, Note_on_c, 0, 70, 64
1, 1198940, Note_on_c, 0, 70, 0
1, 1198967, Note_on_c, 0, 67, 63
1, 1199008, Note_on_c, 0, 67, 0
1, 1199028, Control_c, 0, 67, 9
1, 1199078, Note_on_c, 0, 41, 105
1, 1199120, Control_c, 0, 64, 45
1, 1199140, Control_c, 0, 64, 118
1, 1199149, Note_on_c, 0, 41, 0
1, 1199158, Control_c, 0, 64, 127
1, 1199435, Note_on_c, 0, 60, 103
1, 1199447, Note_on_c, 0, 53, 81
1, 1199447, Note_on_c, 0, 56, 89
1, 1199468, Control_c, 0, 67, 0
1, 1199473, Note_on_c, 0, 60, 0
1, 1199479, Note_on_c, 0, 56, 0
1, 1199485, Note_on_c, 0, 53, 0
1, 1199815, Note_on_c, 0, 60, 106
1, 1199826, Note_on_c, 0, 53, 80
1, 1199834, Note_on_c, 0, 56, 81
1, 1199941, Note_on_c, 0, 68, 86
1, 1199947, Poly_aftertouch_c, 0, 51, 0
1, 1199966, Note_on_c, 0, 60, 0
1, 1199997, Note_on_c, 0, 68, 0
1, 1200021, Note_on_c, 0, 56, 0
1, 1200031, Note_on_c, 0, 53, 0
1, 1200038, Note_on_c, 0, 72, 90
1, 1200149, Note_on_c, 0, 72, 0
1, 1200149, Note_on_c, 0, 77, 94
1, 1200168, Control_c, 0, 67, 8
1, 1200269, Note_on_c, 0, 80, 97
1, 1200300, Note_on_c, 0, 77, 0
1, 1200371, Note_on_c, 0, 80, 0
1, 1200372, Note_on_c, 0, 84, 86
1, 1200403, Control_c, 0, 67, 12
1, 1200429, Note_on_c, 0, 84, 0
1, 1200440, Control_c, 0, 64, 84
1, 1200459, Control_c, 0, 64, 0
1, 1200507, Note_on_c, 0, 36, 51
1, 1200523, Note_on_c, 0, 82, 77
1, 1200545, Note_on_c, 0, 36, 0
1, 1200549, Control_c, 0, 64, 26
1, 1200569, Control_c, 0, 64, 55
1, 1200588, Control_c, 0, 64, 69
1, 1200606, Control_c, 0, 67, 17
1, 1200626, Control_c, 0, 64, 67
1, 1200641, Note_on_c, 0, 82, 0
1, 1200642, Note_on_c, 0, 79, 64
1, 1200645, Control_c, 0, 64, 57
1, 1200661, Control_c, 0, 64, 38
1, 1200674, Note_on_c, 0, 79, 0
1, 1200678, Control_c, 0, 64, 0
1, 1200697, Control_c, 0, 67, 22
1, 1200735, Note_on_c, 0, 76, 57
1, 1200761, Note_on_c, 0, 76, 0
1, 1200839, Note_on_c, 0, 58, 52
1, 1200859, Note_on_c, 0, 55, 36
1, 1200860, Note_on_c, 0, 70, 61
1, 1200866, Note_on_c, 0, 48, 46
1, 1200875, Note_on_c, 0, 58, 0
1, 1200875, Note_on_c, 0, 52, 32
1, 1200900, Note_on_c, 0, 55, 0
1, 1200903, Note_on_c, 0, 48, 0
1, 1200925, Note_on_c, 0, 52, 0
1, 1200936, Note_on_c, 0, 70, 0
1, 1200959, Note_on_c, 0, 67, 56
1, 1200996, Note_on_c, 0, 67, 0
1, 1201059, Note_on_c, 0, 64, 40
1, 1201101, Note_on_c, 0, 64, 0
1, 1201180, Note_on_c, 0, 36, 63
1, 1201192, Control_c, 0, 64, 51
1, 1201205, Note_on_c, 0, 82, 72
1, 1201209, Control_c, 0, 64, 72
1, 1201218, Note_on_c, 0, 36, 0
1, 1201310, Note_on_c, 0, 79, 64
1, 1201321, Note_on_c, 0, 82, 0
1, 1201351, Note_on_c, 0, 79, 0
1, 1201394, Control_c, 0, 64, 68
1, 1201413, Control_c, 0, 64, 62
1, 1201426, Note_on_c, 0, 76, 52
1, 1201432, Control_c, 0, 64, 55
1, 1201448, Control_c, 0, 64, 43
1, 1201453, Note_on_c, 0, 76, 0
1, 1201467, Control_c, 0, 64, 14
1, 1201486, Control_c, 0, 64, 0
1, 1201512, Note_on_c, 0, 58, 67
1, 1201521, Note_on_c, 0, 55, 53
1, 1201535, Note_on_c, 0, 48, 40
1, 1201539, Note_on_c, 0, 70, 59
1, 1201546, Note_on_c, 0, 52, 51
1, 1201547, Note_on_c, 0, 58, 0
1, 1201558, Note_on_c, 0, 55, 0
1, 1201573, Note_on_c, 0, 48, 0
1, 1201582, Note_on_c, 0, 52, 0
1, 1201616, Note_on_c, 0, 70, 0
1, 1201635, Note_on_c, 0, 67, 58
1, 1201691, Note_on_c, 0, 67, 0
1, 1201729, Note_on_c, 0, 64, 62
1, 1201820, Note_on_c, 0, 64, 0
1, 1201823, Note_on_c, 0, 37, 99
1, 1201873, Control_c, 0, 64, 33
1, 1201875, Note_on_c, 0, 37, 0
1, 1201892, Control_c, 0, 64, 105
1, 1201909, Control_c, 0, 64, 127
1, 1202109, Control_c, 0, 67, 18
1, 1202144, Control_c, 0, 67, 11
1, 1202192, Note_on_c, 0, 56, 102
1, 1202202, Note_on_c, 0, 53, 86
1, 1202210, Note_on_c, 0, 49, 78
1, 1202235, Note_on_c, 0, 56, 0
1, 1202249, Note_on_c, 0, 53, 0
1, 1202258, Note_on_c, 0, 49, 0
1, 1202602, Note_on_c, 0, 56, 105
1, 1202612, Note_on_c, 0, 53, 78
1, 1202622, Note_on_c, 0, 49, 75
1, 1202709, Note_on_c, 0, 65, 88
1, 1202814, Note_on_c, 0, 68, 90
1, 1202817, Note_on_c, 0, 56, 0
1, 1202833, Note_on_c, 0, 65, 0
1, 1202851, Note_on_c, 0, 53, 0
1, 1202898, Note_on_c, 0, 49, 0
1, 1202924, Note_on_c, 0, 73, 92
1, 1202928, Note_on_c, 0, 68, 0
1, 1202973, Note_on_c, 0, 73, 0
1, 1203045, Note_on_c, 0, 77, 93
1, 1203121, Note_on_c, 0, 77, 0
1, 1203145, Note_on_c, 0, 80, 87
1, 1203153, Control_c, 0, 67, 15
1, 1203212, Note_on_c, 0, 80, 0
1, 1203247, Control_c, 0, 64, 110
1, 1203266, Control_c, 0, 64, 59
1, 1203284, Control_c, 0, 64, 0
1, 1203308, Note_on_c, 0, 32, 62
1, 1203328, Note_on_c, 0, 78, 69
1, 1203338, Control_c, 0, 67, 21
1, 1203340, Note_on_c, 0, 32, 0
1, 1203356, Control_c, 0, 64, 22
1, 1203376, Control_c, 0, 64, 41
1, 1203377, Control_c, 0, 67, 28
1, 1203394, Control_c, 0, 64, 59
1, 1203396, Control_c, 0, 67, 33
1, 1203413, Control_c, 0, 64, 62
1, 1203431, Control_c, 0, 64, 56
1, 1203432, Control_c, 0, 67, 37
1, 1203440, Note_on_c, 0, 78, 0
1, 1203444, Note_on_c, 0, 75, 65
1, 1203450, Control_c, 0, 64, 42
1, 1203467, Control_c, 0, 64, 21
1, 1203486, Control_c, 0, 64, 0
1, 1203487, Control_c, 0, 67, 42
1, 1203489, Note_on_c, 0, 75, 0
1, 1203545, Note_on_c, 0, 72, 59
1, 1203567, Note_on_c, 0, 72, 0
1, 1203645, Note_on_c, 0, 54, 55
1, 1203656, Note_on_c, 0, 66, 66
1, 1203672, Note_on_c, 0, 44, 38
1, 1203674, Note_on_c, 0, 51, 33
1, 1203674, Note_on_c, 0, 48, 40
1, 1203682, Note_on_c, 0, 54, 0
1, 1203690, Control_c, 0, 67, 46
1, 1203712, Note_on_c, 0, 48, 0
1, 1203712, Note_on_c, 0, 44, 0
1, 1203714, Note_on_c, 0, 51, 0
1, 1203735, Note_on_c, 0, 66, 0
1, 1203764, Note_on_c, 0, 63, 55
1, 1203779, Control_c, 0, 67, 51
1, 1203811, Note_on_c, 0, 63, 0
1, 1203852, Control_c, 0, 67, 56
1, 1203857, Note_on_c, 0, 60, 50
1, 1203892, Control_c, 0, 67, 62
1, 1203896, Note_on_c, 0, 60, 0
1, 1203912, Control_c, 0, 64, 18
1, 1203943, Control_c, 0, 64, 44
1, 1203944, Control_c, 0, 67, 67
1, 1203961, Control_c, 0, 64, 54
1, 1203980, Control_c, 0, 67, 73
1, 1203984, Note_on_c, 0, 33, 57
1, 1203998, Control_c, 0, 67, 77
1, 1204014, Control_c, 0, 67, 81
1, 1204018, Note_on_c, 0, 78, 67
1, 1204020, Note_on_c, 0, 33, 0
1, 1204034, Control_c, 0, 67, 86
1, 1204053, Control_c, 0, 64, 52
1, 1204054, Control_c, 0, 67, 90
1, 1204090, Control_c, 0, 64, 49
1, 1204091, Control_c, 0, 67, 95
1, 1204115, Note_on_c, 0, 78, 0
1, 1204117, Note_on_c, 0, 75, 67
1, 1204146, Control_c, 0, 64, 46
1, 1204181, Note_on_c, 0, 75, 0
1, 1204201, Control_c, 0, 64, 44
1, 1204230, Note_on_c, 0, 72, 54
1, 1204259, Note_on_c, 0, 72, 0
1, 1204292, Control_c, 0, 64, 42
1, 1204333, Note_on_c, 0, 51, 48
1, 1204335, Note_on_c, 0, 54, 48
1, 1204342, Note_on_c, 0, 48, 51
1, 1204343, Note_on_c, 0, 66, 64
1, 1204343, Note_on_c, 0, 45, 46
1, 1204348, Control_c, 0, 64, 40
1, 1204376, Note_on_c, 0, 54, 0
1, 1204378, Note_on_c, 0, 51, 0
1, 1204386, Control_c, 0, 64, 33
1, 1204389, Note_on_c, 0, 45, 0
1, 1204391, Note_on_c, 0, 48, 0
1, 1204403, Control_c, 0, 64, 28
1, 1204417, Note_on_c, 0, 66, 0
1, 1204421, Control_c, 0, 64, 19
1, 1204440, Control_c, 0, 64, 0
1, 1204453, Note_on_c, 0, 63, 45
1, 1204458, Control_c, 0, 67, 99
1, 1204495, Control_c, 0, 67, 105
1, 1204510, Note_on_c, 0, 63, 0
1, 1204532, Control_c, 0, 67, 110
1, 1204545, Note_on_c, 0, 60, 54
1, 1204596, Note_on_c, 0, 60, 0
1, 1204626, Control_c, 0, 67, 114
1, 1204642, Control_c, 0, 67, 118
1, 1204660, Control_c, 0, 67, 124
1, 1204680, Control_c, 0, 64, 28
1, 1204687, Note_on_c, 0, 34, 48
1, 1204698, Control_c, 0, 64, 60
1, 1204715, Control_c, 0, 64, 72
1, 1204730, Note_on_c, 0, 34, 0
1, 1204733, Control_c, 0, 64, 74
1, 1204828, Control_c, 0, 64, 76
1, 1204838, Note_on_c, 0, 53, 31
1, 1204878, Control_c, 0, 64, 78
1, 1204902, Note_on_c, 0, 53, 0
1, 1204964, Note_on_c, 0, 58, 45
1, 1205046, Note_on_c, 0, 58, 0
1, 1205067, Note_on_c, 0, 53, 50
1, 1205072, Note_on_c, 0, 61, 55
1, 1205095, Note_on_c, 0, 49, 40
1, 1205101, Note_on_c, 0, 46, 33
1, 1205110, Note_on_c, 0, 53, 0
1, 1205110, Note_on_c, 0, 61, 0
1, 1205131, Note_on_c, 0, 49, 0
1, 1205141, Note_on_c, 0, 46, 0
1, 1205190, Note_on_c, 0, 65, 52
1, 1205245, Note_on_c, 0, 65, 0
1, 1205313, Note_on_c, 0, 70, 56
1, 1205410, Note_on_c, 0, 70, 0
1, 1205431, Note_on_c, 0, 73, 53
1, 1205439, Note_on_c, 0, 53, 78
1, 1205476, Note_on_c, 0, 73, 0
1, 1205478, Note_on_c, 0, 49, 54
1, 1205490, Note_on_c, 0, 46, 46
1, 1205524, Control_c, 0, 64, 81
1, 1205562, Note_on_c, 0, 77, 62
1, 1205643, Note_on_c, 0, 77, 0
1, 1205670, Note_on_c, 0, 82, 67
1, 1205677, Note_on_c, 0, 53, 0
1, 1205736, Note_on_c, 0, 49, 0
1, 1205754, Note_on_c, 0, 46, 0
1, 1205762, Control_c, 0, 64, 83
1, 1205768, Note_on_c, 0, 85, 76
1, 1205773, Note_on_c, 0, 82, 0
1, 1205852, Control_c, 0, 64, 85
1, 1205888, Note_on_c, 0, 89, 70
1, 1205897, Note_on_c, 0, 85, 0
1, 1205905, Control_c, 0, 64, 87
1, 1205969, Note_on_c, 0, 89, 0
1, 1206073, Control_c, 0, 64, 75
1, 1206091, Control_c, 0, 64, 41
1, 1206109, Control_c, 0, 64, 0
1, 1206167, Note_on_c, 0, 32, 51
1, 1206201, Control_c, 0, 64, 35
1, 1206221, Note_on_c, 0, 32, 0
1, 1206221, Control_c, 0, 64, 64
1, 1206238, Control_c, 0, 64, 76
1, 1206258, Control_c, 0, 64, 80
1, 1206305, Note_on_c, 0, 53, 50
1, 1206353, Note_on_c, 0, 53, 0
1, 1206414, Note_on_c, 0, 56, 51
1, 1206450, Note_on_c, 0, 56, 0
1, 1206524, Note_on_c, 0, 60, 59
1, 1206543, Note_on_c, 0, 53, 60
1, 1206553, Note_on_c, 0, 48, 53
1, 1206561, Note_on_c, 0, 60, 0
1, 1206585, Note_on_c, 0, 53, 0
1, 1206587, Note_on_c, 0, 44, 30
1, 1206594, Note_on_c, 0, 48, 0
1, 1206632, Note_on_c, 0, 44, 0
1, 1206657, Note_on_c, 0, 65, 50
1, 1206697, Note_on_c, 0, 65, 0
1, 1206700, Control_c, 0, 64, 78
1, 1206787, Control_c, 0, 64, 76
1, 1206791, Note_on_c, 0, 68, 54
1, 1206823, Note_on_c, 0, 68, 0
1, 1206878, Control_c, 0, 64, 74
1, 1206905, Note_on_c, 0, 72, 67
1, 1206910, Note_on_c, 0, 53, 68
1, 1206933, Note_on_c, 0, 48, 57
1, 1206941, Note_on_c, 0, 44, 43
1, 1206950, Note_on_c, 0, 72, 0
1, 1207039, Note_on_c, 0, 77, 77
1, 1207112, Note_on_c, 0, 77, 0
1, 1207126, Note_on_c, 0, 53, 0
1, 1207151, Note_on_c, 0, 80, 77
1, 1207197, Note_on_c, 0, 48, 0
1, 1207235, Note_on_c, 0, 44, 0
1, 1207243, Note_on_c, 0, 80, 0
1, 1207261, Note_on_c, 0, 84, 81
1, 1207339, Control_c, 0, 64, 76
1, 1207346, Note_on_c, 0, 84, 0
1, 1207360, Note_on_c, 0, 89, 79
1, 1207434, Note_on_c, 0, 89, 0
1, 1207468, Control_c, 0, 64, 78
1, 1207477, Note_on_c, 0, 77, 51
1, 1207506, Note_on_c, 0, 77, 0
1, 1207522, Control_c, 0, 64, 75
1, 1207541, Control_c, 0, 64, 60
1, 1207560, Control_c, 0, 64, 0
1, 1207650, Note_on_c, 0, 31, 48
1, 1207684, Control_c, 0, 64, 39
1, 1207704, Control_c, 0, 64, 64
1, 1207711, Note_on_c, 0, 31, 0
1, 1207723, Control_c, 0, 64, 74
1, 1207742, Control_c, 0, 64, 77
1, 1207798, Note_on_c, 0, 53, 52
1, 1207851, Note_on_c, 0, 53, 0
1, 1207934, Note_on_c, 0, 59, 42
1, 1208006, Note_on_c, 0, 59, 0
1, 1208035, Note_on_c, 0, 62, 60
1, 1208039, Note_on_c, 0, 43, 47
1, 1208041, Note_on_c, 0, 53, 57
1, 1208068, Note_on_c, 0, 47, 42
1, 1208071, Note_on_c, 0, 62, 0
1, 1208074, Note_on_c, 0, 50, 36
1, 1208088, Note_on_c, 0, 53, 0
1, 1208093, Note_on_c, 0, 43, 0
1, 1208108, Note_on_c, 0, 47, 0
1, 1208113, Note_on_c, 0, 50, 0
1, 1208160, Note_on_c, 0, 65, 52
1, 1208198, Note_on_c, 0, 65, 0
1, 1208267, Note_on_c, 0, 71, 60
1, 1208330, Control_c, 0, 64, 79
1, 1208369, Note_on_c, 0, 71, 0
1, 1208377, Note_on_c, 0, 74, 66
1, 1208384, Control_c, 0, 64, 81
1, 1208388, Note_on_c, 0, 53, 76
1, 1208415, Note_on_c, 0, 50, 53
1, 1208417, Note_on_c, 0, 47, 51
1, 1208421, Note_on_c, 0, 43, 53
1, 1208426, Note_on_c, 0, 74, 0
1, 1208476, Control_c, 0, 64, 83
1, 1208517, Note_on_c, 0, 77, 69
1, 1208532, Control_c, 0, 64, 85
1, 1208603, Note_on_c, 0, 77, 0
1, 1208644, Note_on_c, 0, 83, 75
1, 1208647, Note_on_c, 0, 53, 0
1, 1208651, Note_on_c, 0, 43, 0
1, 1208697, Note_on_c, 0, 50, 0
1, 1208736, Note_on_c, 0, 83, 0
1, 1208754, Note_on_c, 0, 47, 0
1, 1208761, Note_on_c, 0, 86, 74
1, 1208851, Note_on_c, 0, 89, 74
1, 1208868, Note_on_c, 0, 86, 0
1, 1208925, Note_on_c, 0, 89, 0
1, 1208962, Note_on_c, 0, 77, 61
1, 1208985, Note_on_c, 0, 77, 0
1, 1209027, Control_c, 0, 64, 73
1, 1209045, Control_c, 0, 64, 45
1, 1209064, Control_c, 0, 64, 0
1, 1209150, Note_on_c, 0, 32, 52
1, 1209155, Control_c, 0, 64, 24
1, 1209172, Control_c, 0, 64, 55
1, 1209190, Control_c, 0, 64, 74
1, 1209196, Note_on_c, 0, 32, 0
1, 1209211, Control_c, 0, 64, 83
1, 1209228, Control_c, 0, 64, 88
1, 1209287, Note_on_c, 0, 51, 53
1, 1209361, Note_on_c, 0, 51, 0
1, 1209380, Note_on_c, 0, 56, 56
1, 1209489, Note_on_c, 0, 60, 61
1, 1209490, Note_on_c, 0, 56, 0
1, 1209497, Note_on_c, 0, 51, 60
1, 1209517, Note_on_c, 0, 48, 46
1, 1209520, Note_on_c, 0, 44, 51
1, 1209533, Note_on_c, 0, 60, 0
1, 1209566, Note_on_c, 0, 51, 0
1, 1209579, Note_on_c, 0, 48, 0
1, 1209585, Note_on_c, 0, 44, 0
1, 1209592, Control_c, 0, 64, 86
1, 1209641, Note_on_c, 0, 63, 56
1, 1209740, Note_on_c, 0, 63, 0
1, 1209740, Control_c, 0, 64, 84
1, 1209763, Note_on_c, 0, 68, 59
1, 1209883, Note_on_c, 0, 72, 60
1, 1209887, Note_on_c, 0, 51, 57
1, 1209891, Note_on_c, 0, 44, 49
1, 1209892, Note_on_c, 0, 68, 0
1, 1209893, Note_on_c, 0, 48, 46
1, 1209932, Note_on_c, 0, 72, 0
1, 1210012, Note_on_c, 0, 75, 73
1, 1210074, Note_on_c, 0, 51, 0
1, 1210134, Note_on_c, 0, 80, 65
1, 1210144, Note_on_c, 0, 75, 0
1, 1210178, Note_on_c, 0, 48, 0
1, 1210242, Note_on_c, 0, 44, 0
1, 1210248, Note_on_c, 0, 84, 70
1, 1210257, Note_on_c, 0, 80, 0
1, 1210360, Note_on_c, 0, 87, 67
1, 1210371, Note_on_c, 0, 84, 0
1, 1210494, Note_on_c, 0, 87, 0
1, 1210498, Note_on_c, 0, 75, 41
1, 1210553, Note_on_c, 0, 75, 0
1, 1210750, Control_c, 0, 64, 78
1, 1210768, Control_c, 0, 64, 62
1, 1210773, Note_on_c, 0, 33, 38
1, 1210787, Control_c, 0, 64, 29
1, 1210804, Control_c, 0, 64, 0
1, 1210898, Control_c, 0, 64, 26
1, 1210916, Control_c, 0, 64, 51
1, 1210935, Control_c, 0, 64, 70
1, 1210951, Control_c, 0, 64, 78
1, 1210957, Note_on_c, 0, 36, 34
1, 1210970, Control_c, 0, 64, 82
1, 1211082, Note_on_c, 0, 39, 48
1, 1211202, Note_on_c, 0, 42, 44
1, 1211203, Poly_aftertouch_c, 0, 33, 20
1, 1211338, Note_on_c, 0, 45, 43
1, 1211349, Note_on_c, 0, 33, 0
1, 1211349, Poly_aftertouch_c, 0, 33, 0
1, 1211369, Poly_aftertouch_c, 0, 36, 24
1, 1211452, Note_on_c, 0, 48, 42
1, 1211522, Note_on_c, 0, 48, 0
1, 1211580, Note_on_c, 0, 51, 48
1, 1211659, Poly_aftertouch_c, 0, 45, 20
1, 1211676, Note_on_c, 0, 51, 0
1, 1211684, Note_on_c, 0, 45, 0
1, 1211684, Poly_aftertouch_c, 0, 45, 0
1, 1211709, Note_on_c, 0, 54, 52
1, 1211750, Note_on_c, 0, 54, 0
1, 1211759, Poly_aftertouch_c, 0, 42, 24
1, 1211823, Note_on_c, 0, 57, 54
1, 1211858, Poly_aftertouch_c, 0, 39, 24
1, 1211870, Note_on_c, 0, 57, 0
1, 1211925, Control_c, 0, 64, 80
1, 1211942, Note_on_c, 0, 60, 55
1, 1212002, Note_on_c, 0, 60, 0
1, 1212040, Poly_aftertouch_c, 0, 36, 22
1, 1212051, Note_on_c, 0, 63, 55
1, 1212102, Poly_aftertouch_c, 0, 39, 32
1, 1212136, Note_on_c, 0, 63, 0
1, 1212167, Note_on_c, 0, 66, 54
1, 1212176, Poly_aftertouch_c, 0, 42, 22
1, 1212212, Note_on_c, 0, 66, 0
1, 1212295, Note_on_c, 0, 69, 55
1, 1212342, Note_on_c, 0, 69, 0
1, 1212395, Poly_aftertouch_c, 0, 36, 24
1, 1212420, Note_on_c, 0, 72, 58
1, 1212447, Poly_aftertouch_c, 0, 42, 20
1, 1212485, Note_on_c, 0, 72, 0
1, 1212531, Note_on_c, 0, 42, 0
1, 1212531, Poly_aftertouch_c, 0, 42, 0
1, 1212538, Note_on_c, 0, 75, 59
1, 1212642, Note_on_c, 0, 75, 0
1, 1212643, Note_on_c, 0, 78, 65
1, 1212652, Poly_aftertouch_c, 0, 36, 22
1, 1212692, Note_on_c, 0, 78, 0
1, 1212762, Note_on_c, 0, 81, 65
1, 1212821, Note_on_c, 0, 81, 0
1, 1212878, Note_on_c, 0, 84, 63
1, 1212907, Poly_aftertouch_c, 0, 36, 20
1, 1212936, Note_on_c, 0, 36, 0
1, 1212936, Poly_aftertouch_c, 0, 36, 0
1, 1212951, Note_on_c, 0, 84, 0
1, 1212986, Note_on_c, 0, 87, 67
1, 1213079, Poly_aftertouch_c, 0, 39, 24
1, 1213088, Note_on_c, 0, 87, 0
1, 1213099, Note_on_c, 0, 84, 59
1, 1213142, Note_on_c, 0, 84, 0
1, 1213143, Note_on_c, 0, 39, 0
1, 1213143, Poly_aftertouch_c, 0, 39, 0
1, 1213223, Note_on_c, 0, 81, 50
1, 1213385, Note_on_c, 0, 90, 53
1, 1213493, Note_on_c, 0, 90, 0
1, 1213502, Control_c, 0, 64, 82
1, 1213512, Note_on_c, 0, 87, 55
1, 1213569, Poly_aftertouch_c, 0, 81, 22
1, 1213602, Note_on_c, 0, 81, 0
1, 1213602, Poly_aftertouch_c, 0, 81, 0
1, 1213612, Note_on_c, 0, 87, 0
1, 1213614, Note_on_c, 0, 84, 46
1, 1213648, Control_c, 0, 64, 84
1, 1213722, Note_on_c, 0, 84, 0
1, 1213742, Control_c, 0, 64, 70
1, 1213760, Control_c, 0, 64, 40
1, 1213779, Control_c, 0, 64, 0
1, 1213815, Note_on_c, 0, 36, 25
1, 1213829, Note_on_c, 0, 43, 44
1, 1213831, Note_on_c, 0, 40, 35
1, 1213846, Note_on_c, 0, 31, 46
1, 1213852, Control_c, 0, 64, 26
1, 1213869, Control_c, 0, 64, 51
1, 1213887, Control_c, 0, 64, 73
1, 1213891, Note_on_c, 0, 36, 0
1, 1213892, Note_on_c, 0, 43, 0
1, 1213892, Note_on_c, 0, 40, 0
1, 1213894, Note_on_c, 0, 31, 0
1, 1213907, Control_c, 0, 64, 85
1, 1213925, Control_c, 0, 64, 93
1, 1214051, Note_on_c, 0, 91, 61
1, 1214074, Note_on_c, 0, 79, 39
1, 1214122, Note_on_c, 0, 79, 0
1, 1214183, Note_on_c, 0, 91, 0
1, 1214190, Note_on_c, 0, 89, 65
1, 1214216, Note_on_c, 0, 77, 57
1, 1214288, Note_on_c, 0, 88, 63
1, 1214289, Note_on_c, 0, 77, 0
1, 1214300, Note_on_c, 0, 76, 59
1, 1214352, Note_on_c, 0, 76, 0
1, 1214355, Note_on_c, 0, 89, 0
1, 1214360, Note_on_c, 0, 88, 0
1, 1214361, Note_on_c, 0, 86, 69
1, 1214374, Note_on_c, 0, 74, 49
1, 1214398, Control_c, 0, 64, 89
1, 1214400, Note_on_c, 0, 86, 0
1, 1214400, Note_on_c, 0, 74, 0
1, 1214447, Note_on_c, 0, 84, 59
1, 1214471, Note_on_c, 0, 72, 52
1, 1214485, Note_on_c, 0, 84, 0
1, 1214506, Note_on_c, 0, 72, 0
1, 1214511, Control_c, 0, 64, 87
1, 1214527, Note_on_c, 0, 83, 61
1, 1214530, Note_on_c, 0, 71, 53
1, 1214579, Note_on_c, 0, 71, 0
1, 1214584, Control_c, 0, 64, 84
1, 1214589, Note_on_c, 0, 83, 0
1, 1214603, Control_c, 0, 64, 81
1, 1214610, Note_on_c, 0, 69, 55
1, 1214611, Note_on_c, 0, 81, 58
1, 1214620, Control_c, 0, 64, 78
1, 1214638, Control_c, 0, 64, 76
1, 1214657, Note_on_c, 0, 81, 0
1, 1214683, Note_on_c, 0, 69, 0
1, 1214696, Note_on_c, 0, 79, 58
1, 1214702, Note_on_c, 0, 67, 52
1, 1214797, Note_on_c, 0, 67, 0
1, 1214827, Note_on_c, 0, 79, 0
1, 1214895, Note_on_c, 0, 77, 60
1, 1214900, Note_on_c, 0, 65, 48
1, 1214948, Note_on_c, 0, 65, 0
1, 1214974, Note_on_c, 0, 64, 55
1, 1214982, Note_on_c, 0, 76, 57
1, 1214990, Note_on_c, 0, 77, 0
1, 1215020, Note_on_c, 0, 64, 0
1, 1215041, Note_on_c, 0, 76, 0
1, 1215046, Note_on_c, 0, 74, 63
1, 1215052, Note_on_c, 0, 62, 50
1, 1215084, Note_on_c, 0, 62, 0
1, 1215099, Note_on_c, 0, 74, 0
1, 1215126, Note_on_c, 0, 72, 63
1, 1215137, Note_on_c, 0, 60, 55
1, 1215190, Note_on_c, 0, 72, 0
1, 1215209, Note_on_c, 0, 60, 0
1, 1215215, Note_on_c, 0, 59, 65
1, 1215229, Note_on_c, 0, 71, 66
1, 1215245, Control_c, 0, 64, 79
1, 1215270, Note_on_c, 0, 59, 0
1, 1215278, Note_on_c, 0, 71, 0
1, 1215293, Note_on_c, 0, 69, 58
1, 1215297, Note_on_c, 0, 57, 45
1, 1215299, Control_c, 0, 64, 81
1, 1215318, Note_on_c, 0, 69, 0
1, 1215334, Note_on_c, 0, 57, 0
1, 1215372, Control_c, 0, 64, 83
1, 1215447, Control_c, 0, 64, 80
1, 1215465, Control_c, 0, 64, 70
1, 1215478, Note_on_c, 0, 67, 51
1, 1215481, Control_c, 0, 64, 56
1, 1215490, Note_on_c, 0, 65, 56
1, 1215497, Note_on_c, 0, 55, 38
1, 1215500, Control_c, 0, 64, 48
1, 1215547, Poly_aftertouch_c, 0, 64, 127
1, 1215553, Control_c, 0, 64, 56
1, 1215556, Note_on_c, 0, 31, 61
1, 1215558, Poly_aftertouch_c, 0, 60, 127
1, 1215569, Note_on_c, 0, 62, 22
1, 1215573, Control_c, 0, 64, 63
1, 1215575, Note_on_c, 0, 65, 0
1, 1215593, Control_c, 0, 64, 67
1, 1215594, Note_on_c, 0, 62, 0
1, 1215594, Poly_aftertouch_c, 0, 59, 0
1, 1215599, Note_on_c, 0, 43, 45
1, 1215600, Note_on_c, 0, 31, 0
1, 1215629, Control_c, 0, 64, 69
1, 1215674, Note_on_c, 0, 43, 0
1, 1215711, Note_on_c, 0, 45, 66
1, 1215777, Control_c, 0, 64, 71
1, 1215780, Note_on_c, 0, 45, 0
1, 1215795, Note_on_c, 0, 47, 71
1, 1215840, Note_on_c, 0, 55, 0
1, 1215850, Control_c, 0, 64, 73
1, 1215865, Note_on_c, 0, 47, 0
1, 1215879, Note_on_c, 0, 48, 66
1, 1215924, Note_on_c, 0, 48, 0
1, 1215925, Control_c, 0, 64, 75
1, 1215952, Note_on_c, 0, 50, 62
1, 1215960, Control_c, 0, 64, 77
1, 1215998, Control_c, 0, 64, 80
1, 1216004, Poly_aftertouch_c, 0, 60, 0
1, 1216015, Control_c, 0, 64, 82
1, 1216028, Note_on_c, 0, 50, 0
1, 1216038, Note_on_c, 0, 52, 61
1, 1216053, Control_c, 0, 64, 85
1, 1216079, Note_on_c, 0, 52, 0
1, 1216091, Control_c, 0, 64, 83
1, 1216123, Control_c, 0, 64, 68
1, 1216134, Note_on_c, 0, 53, 67
1, 1216142, Control_c, 0, 64, 40
1, 1216162, Control_c, 0, 64, 0
1, 1216174, Note_on_c, 0, 53, 0
1, 1216228, Note_on_c, 0, 62, 61
1, 1216234, Control_c, 0, 64, 24
1, 1216234, Note_on_c, 0, 59, 56
1, 1216237, Note_on_c, 0, 43, 60
1, 1216240, Note_on_c, 0, 55, 63
1, 1216253, Control_c, 0, 64, 45
1, 1216265, Note_on_c, 0, 59, 0
1, 1216267, Poly_aftertouch_c, 0, 64, 0
1, 1216270, Control_c, 0, 64, 63
1, 1216274, Note_on_c, 0, 43, 0
1, 1216279, Note_on_c, 0, 62, 0
1, 1216289, Control_c, 0, 64, 72
1, 1216301, Note_on_c, 0, 67, 0
1, 1216305, Control_c, 0, 64, 76
1, 1216380, Note_on_c, 0, 55, 0
1, 1216436, Note_on_c, 0, 57, 57
1, 1216491, Note_on_c, 0, 57, 0
1, 1216515, Note_on_c, 0, 59, 62
1, 1216574, Note_on_c, 0, 59, 0
1, 1216592, Note_on_c, 0, 60, 60
1, 1216594, Note_on_c, 0, 77, 76
1, 1216602, Note_on_c, 0, 74, 65
1, 1216643, Note_on_c, 0, 60, 0
1, 1216668, Note_on_c, 0, 62, 69
1, 1216675, Control_c, 0, 64, 78
1, 1216713, Control_c, 0, 64, 81
1, 1216732, Control_c, 0, 64, 83
1, 1216745, Note_on_c, 0, 62, 0
1, 1216748, Control_c, 0, 64, 86
1, 1216753, Note_on_c, 0, 64, 64
1, 1216767, Control_c, 0, 64, 88
1, 1216797, Note_on_c, 0, 64, 0
1, 1216839, Note_on_c, 0, 65, 62
1, 1216840, Control_c, 0, 64, 84
1, 1216862, Control_c, 0, 64, 64
1, 1216875, Note_on_c, 0, 65, 0
1, 1216878, Control_c, 0, 64, 16
1, 1216897, Control_c, 0, 64, 0
1, 1216906, Note_on_c, 0, 74, 0
1, 1216924, Note_on_c, 0, 77, 0
1, 1216931, Note_on_c, 0, 76, 63
1, 1216942, Note_on_c, 0, 67, 67
1, 1216953, Note_on_c, 0, 55, 57
1, 1216960, Note_on_c, 0, 72, 48
1, 1216971, Note_on_c, 0, 76, 0
1, 1216972, Control_c, 0, 64, 37
1, 1216982, Note_on_c, 0, 67, 0
1, 1216988, Note_on_c, 0, 55, 0
1, 1216990, Control_c, 0, 64, 62
1, 1216992, Note_on_c, 0, 72, 0
1, 1217009, Control_c, 0, 64, 76
1, 1217028, Control_c, 0, 64, 83
1, 1217124, Note_on_c, 0, 91, 80
1, 1217133, Note_on_c, 0, 79, 57
1, 1217162, Note_on_c, 0, 79, 0
1, 1217226, Note_on_c, 0, 89, 81
1, 1217233, Note_on_c, 0, 77, 54
1, 1217241, Control_c, 0, 64, 80
1, 1217256, Note_on_c, 0, 91, 0
1, 1217275, Note_on_c, 0, 77, 0
1, 1217282, Note_on_c, 0, 76, 64
1, 1217288, Note_on_c, 0, 88, 76
1, 1217334, Note_on_c, 0, 76, 0
1, 1217348, Note_on_c, 0, 89, 0
1, 1217351, Note_on_c, 0, 74, 58
1, 1217358, Note_on_c, 0, 86, 80
1, 1217373, Note_on_c, 0, 88, 0
1, 1217373, Note_on_c, 0, 74, 0
1, 1217426, Note_on_c, 0, 86, 0
1, 1217440, Note_on_c, 0, 84, 71
1, 1217445, Note_on_c, 0, 72, 58
1, 1217489, Note_on_c, 0, 84, 0
1, 1217497, Note_on_c, 0, 72, 0
1, 1217508, Note_on_c, 0, 71, 63
1, 1217526, Note_on_c, 0, 83, 68
1, 1217557, Note_on_c, 0, 71, 0
1, 1217576, Control_c, 0, 64, 78
1, 1217593, Note_on_c, 0, 69, 62
1, 1217594, Note_on_c, 0, 83, 0
1, 1217600, Note_on_c, 0, 81, 69
1, 1217611, Control_c, 0, 64, 75
1, 1217662, Note_on_c, 0, 81, 0
1, 1217682, Note_on_c, 0, 69, 0
1, 1217691, Note_on_c, 0, 79, 62
1, 1217697, Note_on_c, 0, 67, 58
1, 1217775, Note_on_c, 0, 67, 0
1, 1217816, Note_on_c, 0, 79, 0
1, 1217871, Note_on_c, 0, 65, 53
1, 1217878, Note_on_c, 0, 77, 66
1, 1217927, Note_on_c, 0, 65, 0
1, 1217943, Control_c, 0, 64, 77
1, 1217945, Note_on_c, 0, 64, 65
1, 1217963, Note_on_c, 0, 76, 68
1, 1218001, Note_on_c, 0, 64, 0
1, 1218002, Note_on_c, 0, 77, 0
1, 1218049, Note_on_c, 0, 76, 0
1, 1218049, Note_on_c, 0, 62, 41
1, 1218051, Control_c, 0, 64, 79
1, 1218051, Note_on_c, 0, 74, 69
1, 1218093, Note_on_c, 0, 62, 0
1, 1218095, Note_on_c, 0, 74, 0
1, 1218113, Note_on_c, 0, 60, 65
1, 1218120, Note_on_c, 0, 72, 63
1, 1218126, Control_c, 0, 64, 81
1, 1218166, Note_on_c, 0, 72, 0
1, 1218180, Control_c, 0, 64, 83
1, 1218191, Note_on_c, 0, 59, 69
1, 1218197, Note_on_c, 0, 60, 0
1, 1218207, Note_on_c, 0, 71, 69
1, 1218251, Note_on_c, 0, 59, 0
1, 1218260, Note_on_c, 0, 57, 62
1, 1218267, Note_on_c, 0, 69, 74
1, 1218269, Note_on_c, 0, 71, 0
1, 1218286, Note_on_c, 0, 57, 0
1, 1218299, Note_on_c, 0, 69, 0
1, 1218383, Control_c, 0, 64, 86
1, 1218477, Control_c, 0, 64, 78
1, 1218496, Control_c, 0, 64, 56
1, 1218511, Note_on_c, 0, 67, 76
1, 1218511, Control_c, 0, 64, 0
1, 1218519, Note_on_c, 0, 60, 67
1, 1218521, Note_on_c, 0, 64, 56
1, 1218535, Note_on_c, 0, 55, 60
1, 1218585, Note_on_c, 0, 31, 55
1, 1218588, Control_c, 0, 64, 12
1, 1218605, Control_c, 0, 64, 40
1, 1218623, Control_c, 0, 64, 58
1, 1218627, Note_on_c, 0, 31, 0
1, 1218640, Note_on_c, 0, 43, 56
1, 1218641, Control_c, 0, 64, 69
1, 1218661, Control_c, 0, 64, 72
1, 1218708, Note_on_c, 0, 43, 0
1, 1218756, Note_on_c, 0, 45, 61
1, 1218834, Note_on_c, 0, 45, 0
1, 1218851, Note_on_c, 0, 47, 58
1, 1218858, Note_on_c, 0, 55, 0
1, 1218899, Note_on_c, 0, 47, 0
1, 1218938, Note_on_c, 0, 48, 66
1, 1218961, Note_on_c, 0, 60, 0
1, 1218978, Note_on_c, 0, 48, 0
1, 1219020, Note_on_c, 0, 50, 63
1, 1219044, Control_c, 0, 64, 74
1, 1219079, Control_c, 0, 64, 77
1, 1219082, Note_on_c, 0, 50, 0
1, 1219110, Note_on_c, 0, 52, 59
1, 1219135, Control_c, 0, 64, 70
1, 1219152, Note_on_c, 0, 52, 0
1, 1219154, Control_c, 0, 64, 51
1, 1219173, Control_c, 0, 64, 0
1, 1219198, Note_on_c, 0, 53, 64
1, 1219245, Note_on_c, 0, 62, 59
1, 1219252, Note_on_c, 0, 53, 0
1, 1219253, Note_on_c, 0, 59, 49
1, 1219265, Control_c, 0, 64, 27
1, 1219279, Note_on_c, 0, 43, 53
1, 1219280, Note_on_c, 0, 55, 66
1, 1219283, Control_c, 0, 64, 47
1, 1219287, Note_on_c, 0, 64, 0
1, 1219287, Note_on_c, 0, 59, 0
1, 1219290, Note_on_c, 0, 62, 0
1, 1219301, Note_on_c, 0, 67, 0
1, 1219301, Control_c, 0, 64, 64
1, 1219316, Note_on_c, 0, 43, 0
1, 1219322, Control_c, 0, 64, 71
1, 1219406, Poly_aftertouch_c, 0, 45, 0
1, 1219431, Note_on_c, 0, 55, 0
1, 1219514, Note_on_c, 0, 57, 29
1, 1219538, Note_on_c, 0, 59, 9
1, 1219561, Note_on_c, 0, 57, 0
1, 1219615, Control_c, 0, 64, 73
1, 1219617, Note_on_c, 0, 77, 69
1, 1219620, Note_on_c, 0, 74, 64
1, 1219634, Note_on_c, 0, 59, 0
1, 1219642, Note_on_c, 0, 60, 67
1, 1219687, Note_on_c, 0, 60, 0
1, 1219705, Note_on_c, 0, 62, 72
1, 1219727, Control_c, 0, 64, 75
1, 1219764, Control_c, 0, 64, 79
1, 1219776, Note_on_c, 0, 62, 0
1, 1219782, Control_c, 0, 64, 82
1, 1219788, Note_on_c, 0, 64, 68
1, 1219803, Control_c, 0, 64, 85
1, 1219821, Control_c, 0, 64, 87
1, 1219829, Note_on_c, 0, 64, 0
1, 1219885, Note_on_c, 0, 65, 69
1, 1219888, Control_c, 0, 64, 83
1, 1219909, Control_c, 0, 64, 65
1, 1219927, Control_c, 0, 64, 12
1, 1219930, Note_on_c, 0, 65, 0
1, 1219943, Control_c, 0, 64, 0
1, 1219979, Note_on_c, 0, 74, 0
1, 1219999, Note_on_c, 0, 67, 62
1, 1220001, Note_on_c, 0, 77, 0
1, 1220003, Note_on_c, 0, 76, 62
1, 1220009, Note_on_c, 0, 55, 57
1, 1220015, Note_on_c, 0, 72, 58
1, 1220017, Control_c, 0, 64, 17
1, 1220036, Control_c, 0, 64, 50
1, 1220040, Note_on_c, 0, 76, 0
1, 1220049, Note_on_c, 0, 67, 0
1, 1220049, Note_on_c, 0, 55, 0
1, 1220050, Note_on_c, 0, 72, 0
1, 1220054, Control_c, 0, 64, 71
1, 1220073, Control_c, 0, 64, 78
1, 1220092, Control_c, 0, 64, 81
1, 1220201, Note_on_c, 0, 91, 69
1, 1220218, Note_on_c, 0, 79, 53
1, 1220246, Note_on_c, 0, 79, 0
1, 1220311, Note_on_c, 0, 89, 68
1, 1220313, Note_on_c, 0, 77, 46
1, 1220314, Note_on_c, 0, 91, 0
1, 1220315, Poly_aftertouch_c, 0, 91, 0
1, 1220367, Note_on_c, 0, 77, 0
1, 1220374, Note_on_c, 0, 76, 63
1, 1220389, Note_on_c, 0, 88, 72
1, 1220424, Note_on_c, 0, 76, 0
1, 1220439, Note_on_c, 0, 89, 0
1, 1220441, Note_on_c, 0, 74, 56
1, 1220457, Note_on_c, 0, 86, 83
1, 1220465, Note_on_c, 0, 74, 0
1, 1220470, Note_on_c, 0, 88, 0
1, 1220530, Note_on_c, 0, 86, 0
1, 1220541, Note_on_c, 0, 84, 69
1, 1220544, Note_on_c, 0, 72, 52
1, 1220593, Note_on_c, 0, 72, 0
1, 1220596, Note_on_c, 0, 84, 0
1, 1220609, Note_on_c, 0, 71, 58
1, 1220623, Note_on_c, 0, 83, 77
1, 1220657, Note_on_c, 0, 71, 0
1, 1220662, Control_c, 0, 64, 77
1, 1220681, Control_c, 0, 64, 70
1, 1220692, Note_on_c, 0, 69, 54
1, 1220693, Note_on_c, 0, 83, 0
1, 1220697, Note_on_c, 0, 81, 76
1, 1220698, Control_c, 0, 64, 63
1, 1220716, Control_c, 0, 64, 62
1, 1220750, Note_on_c, 0, 69, 0
1, 1220754, Control_c, 0, 64, 66
1, 1220764, Note_on_c, 0, 81, 0
1, 1220772, Control_c, 0, 64, 69
1, 1220796, Note_on_c, 0, 79, 68
1, 1220805, Control_c, 0, 64, 71
1, 1220806, Note_on_c, 0, 67, 51
1, 1220845, Control_c, 0, 64, 73
1, 1220888, Note_on_c, 0, 67, 0
1, 1220919, Note_on_c, 0, 79, 0
1, 1220979, Note_on_c, 0, 65, 58
1, 1220988, Note_on_c, 0, 77, 65
1, 1221048, Note_on_c, 0, 65, 0
1, 1221069, Note_on_c, 0, 64, 62
1, 1221069, Note_on_c, 0, 76, 67
1, 1221094, Note_on_c, 0, 77, 0
1, 1221111, Note_on_c, 0, 64, 0
1, 1221140, Note_on_c, 0, 76, 0
1, 1221142, Note_on_c, 0, 62, 55
1, 1221146, Note_on_c, 0, 74, 65
1, 1221174, Note_on_c, 0, 62, 0
1, 1221174, Control_c, 0, 64, 75
1, 1221191, Note_on_c, 0, 74, 0
1, 1221223, Note_on_c, 0, 72, 65
1, 1221232, Note_on_c, 0, 60, 64
1, 1221272, Note_on_c, 0, 72, 0
1, 1221312, Note_on_c, 0, 60, 0
1, 1221314, Note_on_c, 0, 71, 70
1, 1221315, Note_on_c, 0, 59, 66
1, 1221342, Control_c, 0, 64, 77
1, 1221368, Note_on_c, 0, 59, 0
1, 1221376, Note_on_c, 0, 71, 0
1, 1221388, Note_on_c, 0, 69, 62
1, 1221393, Note_on_c, 0, 57, 56
1, 1221411, Note_on_c, 0, 69, 0
1, 1221415, Control_c, 0, 64, 80
1, 1221423, Note_on_c, 0, 57, 0
1, 1221451, Control_c, 0, 64, 83
1, 1221471, Control_c, 0, 64, 85
1, 1221527, Control_c, 0, 64, 89
1, 1221581, Control_c, 0, 64, 87
1, 1221600, Control_c, 0, 64, 79
1, 1221603, Note_on_c, 0, 67, 81
1, 1221619, Control_c, 0, 64, 68
1, 1221624, Note_on_c, 0, 55, 69
1, 1221637, Control_c, 0, 64, 59
1, 1221652, Note_on_c, 0, 67, 0
1, 1221692, Control_c, 0, 64, 62
1, 1221710, Control_c, 0, 64, 64
1, 1221733, Note_on_c, 0, 57, 76
1, 1221791, Note_on_c, 0, 53, 65
1, 1221799, Note_on_c, 0, 55, 0
1, 1221806, Note_on_c, 0, 59, 82
1, 1221816, Note_on_c, 0, 57, 0
1, 1221846, Note_on_c, 0, 59, 0
1, 1221854, Control_c, 0, 64, 62
1, 1221867, Note_on_c, 0, 53, 0
1, 1221873, Control_c, 0, 64, 61
1, 1221878, Note_on_c, 0, 52, 61
1, 1221887, Note_on_c, 0, 60, 80
1, 1221890, Control_c, 0, 64, 60
1, 1221905, Note_on_c, 0, 52, 0
1, 1221946, Control_c, 0, 64, 58
1, 1221958, Note_on_c, 0, 60, 0
1, 1221962, Note_on_c, 0, 50, 60
1, 1221974, Note_on_c, 0, 62, 80
1, 1222032, Note_on_c, 0, 50, 0
1, 1222040, Note_on_c, 0, 48, 65
1, 1222045, Note_on_c, 0, 62, 0
1, 1222060, Note_on_c, 0, 64, 75
1, 1222104, Note_on_c, 0, 64, 0
1, 1222108, Note_on_c, 0, 48, 0
1, 1222125, Note_on_c, 0, 47, 63
1, 1222146, Note_on_c, 0, 65, 72
1, 1222186, Note_on_c, 0, 47, 0
1, 1222197, Note_on_c, 0, 65, 0
1, 1222215, Note_on_c, 0, 45, 68
1, 1222235, Note_on_c, 0, 66, 70
1, 1222240, Control_c, 0, 64, 56
1, 1222268, Note_on_c, 0, 45, 0
1, 1222296, Note_on_c, 0, 66, 0
1, 1222321, Note_on_c, 0, 67, 70
1, 1222332, Note_on_c, 0, 43, 62
1, 1222367, Note_on_c, 0, 67, 0
1, 1222415, Note_on_c, 0, 69, 76
1, 1222464, Note_on_c, 0, 43, 0
1, 1222482, Note_on_c, 0, 41, 67
1, 1222485, Note_on_c, 0, 69, 0
1, 1222485, Note_on_c, 0, 71, 78
1, 1222527, Note_on_c, 0, 71, 0
1, 1222546, Note_on_c, 0, 41, 0
1, 1222568, Note_on_c, 0, 72, 79
1, 1222572, Note_on_c, 0, 40, 57
1, 1222590, Control_c, 0, 67, 115
1, 1222607, Note_on_c, 0, 40, 0
1, 1222609, Control_c, 0, 67, 99
1, 1222627, Note_on_c, 0, 72, 0
1, 1222627, Control_c, 0, 67, 77
1, 1222645, Control_c, 0, 67, 51
1, 1222665, Note_on_c, 0, 38, 64
1, 1222665, Note_on_c, 0, 74, 82
1, 1222680, Control_c, 0, 67, 24
1, 1222698, Control_c, 0, 67, 0
1, 1222727, Note_on_c, 0, 38, 0
1, 1222737, Note_on_c, 0, 36, 69
1, 1222738, Note_on_c, 0, 76, 81
1, 1222739, Note_on_c, 0, 74, 0
1, 1222789, Note_on_c, 0, 76, 0
1, 1222805, Note_on_c, 0, 36, 0
1, 1222826, Note_on_c, 0, 35, 70
1, 1222827, Note_on_c, 0, 77, 78
1, 1222870, Note_on_c, 0, 77, 0
1, 1222883, Note_on_c, 0, 35, 0
1, 1222910, Note_on_c, 0, 33, 56
1, 1222922, Note_on_c, 0, 78, 67
1, 1222948, Note_on_c, 0, 33, 0
1, 1222965, Note_on_c, 0, 78, 0
1, 1222979, Note_on_c, 0, 31, 85
1, 1222998, Note_on_c, 0, 79, 80
1, 1223042, Note_on_c, 0, 79, 0
1, 1223077, Note_on_c, 0, 33, 72
1, 1223079, Note_on_c, 0, 81, 75
1, 1223106, Note_on_c, 0, 31, 0
1, 1223128, Note_on_c, 0, 81, 0
1, 1223163, Note_on_c, 0, 79, 66
1, 1223165, Note_on_c, 0, 35, 69
1, 1223181, Note_on_c, 0, 33, 0
1, 1223197, Note_on_c, 0, 79, 0
1, 1223230, Note_on_c, 0, 81, 68
1, 1223251, Note_on_c, 0, 35, 0
1, 1223254, Note_on_c, 0, 36, 68
1, 1223269, Note_on_c, 0, 81, 0
1, 1223282, Note_on_c, 0, 79, 66
1, 1223309, Note_on_c, 0, 36, 0
1, 1223336, Note_on_c, 0, 38, 60
1, 1223337, Note_on_c, 0, 79, 0
1, 1223357, Note_on_c, 0, 81, 68
1, 1223390, Note_on_c, 0, 81, 0
1, 1223391, Note_on_c, 0, 38, 0
1, 1223424, Note_on_c, 0, 40, 62
1, 1223428, Note_on_c, 0, 79, 66
1, 1223470, Note_on_c, 0, 79, 0
1, 1223479, Note_on_c, 0, 81, 70
1, 1223480, Note_on_c, 0, 40, 0
1, 1223511, Note_on_c, 0, 41, 69
1, 1223524, Note_on_c, 0, 81, 0
1, 1223556, Note_on_c, 0, 79, 66
1, 1223578, Note_on_c, 0, 41, 0
1, 1223611, Note_on_c, 0, 42, 75
1, 1223613, Note_on_c, 0, 79, 0
1, 1223619, Note_on_c, 0, 81, 71
1, 1223672, Note_on_c, 0, 81, 0
1, 1223694, Note_on_c, 0, 79, 76
1, 1223696, Note_on_c, 0, 42, 0
1, 1223698, Note_on_c, 0, 43, 82
1, 1223742, Note_on_c, 0, 81, 71
1, 1223750, Note_on_c, 0, 79, 0
1, 1223800, Note_on_c, 0, 43, 0
1, 1223803, Note_on_c, 0, 45, 80
1, 1223807, Note_on_c, 0, 81, 0
1, 1223831, Note_on_c, 0, 79, 72
1, 1223878, Note_on_c, 0, 79, 0
1, 1223879, Note_on_c, 0, 81, 66
1, 1223891, Note_on_c, 0, 47, 79
1, 1223910, Note_on_c, 0, 45, 0
1, 1223929, Note_on_c, 0, 81, 0
1, 1223965, Note_on_c, 0, 79, 66
1, 1223969, Note_on_c, 0, 48, 74
1, 1223971, Note_on_c, 0, 47, 0
1, 1224007, Note_on_c, 0, 79, 0
1, 1224013, Note_on_c, 0, 81, 69
1, 1224021, Note_on_c, 0, 48, 0
1, 1224049, Note_on_c, 0, 50, 71
1, 1224060, Note_on_c, 0, 81, 0
1, 1224093, Control_c, 0, 64, 54
1, 1224093, Note_on_c, 0, 79, 73
1, 1224113, Note_on_c, 0, 50, 0
1, 1224132, Note_on_c, 0, 52, 73
1, 1224140, Note_on_c, 0, 81, 71
1, 1224142, Note_on_c, 0, 79, 0
1, 1224196, Note_on_c, 0, 81, 0
1, 1224210, Note_on_c, 0, 52, 0
1, 1224221, Note_on_c, 0, 53, 80
1, 1224223, Note_on_c, 0, 79, 70
1, 1224267, Note_on_c, 0, 81, 68
1, 1224272, Note_on_c, 0, 79, 0
1, 1224286, Note_on_c, 0, 53, 0
1, 1224302, Note_on_c, 0, 54, 82
1, 1224320, Note_on_c, 0, 81, 0
1, 1224357, Note_on_c, 0, 79, 73
1, 1224376, Note_on_c, 0, 54, 0
1, 1224386, Note_on_c, 0, 55, 85
1, 1224397, Note_on_c, 0, 81, 73
1, 1224404, Note_on_c, 0, 79, 0
1, 1224450, Note_on_c, 0, 81, 0
1, 1224471, Note_on_c, 0, 55, 0
1, 1224480, Note_on_c, 0, 79, 70
1, 1224485, Note_on_c, 0, 57, 83
1, 1224517, Control_c, 0, 64, 52
1, 1224550, Note_on_c, 0, 81, 72
1, 1224551, Note_on_c, 0, 79, 0
1, 1224587, Note_on_c, 0, 59, 82
1, 1224596, Note_on_c, 0, 57, 0
1, 1224597, Note_on_c, 0, 81, 0
1, 1224638, Note_on_c, 0, 79, 68
1, 1224656, Note_on_c, 0, 60, 82
1, 1224666, Note_on_c, 0, 59, 0
1, 1224685, Note_on_c, 0, 79, 0
1, 1224685, Note_on_c, 0, 81, 75
1, 1224718, Note_on_c, 0, 60, 0
1, 1224736, Note_on_c, 0, 81, 0
1, 1224736, Note_on_c, 0, 62, 78
1, 1224768, Note_on_c, 0, 79, 72
1, 1224814, Note_on_c, 0, 62, 0
1, 1224815, Note_on_c, 0, 81, 72
1, 1224818, Note_on_c, 0, 64, 79
1, 1224820, Note_on_c, 0, 79, 0
1, 1224862, Note_on_c, 0, 81, 0
1, 1224902, Note_on_c, 0, 64, 0
1, 1224907, Note_on_c, 0, 79, 69
1, 1224909, Note_on_c, 0, 65, 84
1, 1224950, Note_on_c, 0, 81, 76
1, 1224951, Note_on_c, 0, 79, 0
1, 1224995, Note_on_c, 0, 81, 0
1, 1225002, Note_on_c, 0, 66, 80
1, 1225011, Note_on_c, 0, 65, 0
1, 1225037, Note_on_c, 0, 79, 73
1, 1225067, Note_on_c, 0, 66, 0
1, 1225071, Note_on_c, 0, 67, 87
1, 1225079, Note_on_c, 0, 81, 75
1, 1225086, Note_on_c, 0, 79, 0
1, 1225130, Note_on_c, 0, 81, 0
1, 1225151, Note_on_c, 0, 67, 0
1, 1225164, Note_on_c, 0, 79, 72
1, 1225172, Note_on_c, 0, 69, 85
1, 1225176, Control_c, 0, 64, 50
1, 1225221, Note_on_c, 0, 81, 72
1, 1225223, Note_on_c, 0, 79, 0
1, 1225255, Note_on_c, 0, 71, 85
1, 1225257, Note_on_c, 0, 81, 0
1, 1225282, Note_on_c, 0, 69, 0
1, 1225307, Note_on_c, 0, 79, 65
1, 1225336, Note_on_c, 0, 72, 87
1, 1225339, Note_on_c, 0, 71, 0
1, 1225350, Note_on_c, 0, 79, 0
1, 1225351, Note_on_c, 0, 81, 80
1, 1225393, Note_on_c, 0, 72, 0
1, 1225399, Note_on_c, 0, 81, 0
1, 1225403, Note_on_c, 0, 74, 78
1, 1225436, Note_on_c, 0, 79, 74
1, 1225497, Note_on_c, 0, 81, 76
1, 1225502, Note_on_c, 0, 79, 0
1, 1225505, Note_on_c, 0, 74, 0
1, 1225509, Note_on_c, 0, 76, 86
1, 1225549, Note_on_c, 0, 81, 0
1, 1225578, Note_on_c, 0, 76, 0
1, 1225588, Note_on_c, 0, 77, 90
1, 1225591, Note_on_c, 0, 79, 71
1, 1225630, Note_on_c, 0, 81, 79
1, 1225631, Note_on_c, 0, 79, 0
1, 1225663, Note_on_c, 0, 77, 0
1, 1225676, Note_on_c, 0, 76, 88
1, 1225681, Note_on_c, 0, 81, 0
1, 1225726, Note_on_c, 0, 79, 71
1, 1225757, Note_on_c, 0, 76, 0
1, 1225762, Control_c, 0, 64, 48
1, 1225775, Note_on_c, 0, 79, 0
1, 1225775, Note_on_c, 0, 81, 72
1, 1225776, Note_on_c, 0, 77, 78
1, 1225828, Note_on_c, 0, 81, 0
1, 1225853, Note_on_c, 0, 79, 63
1, 1225904, Note_on_c, 0, 79, 0
1, 1225912, Note_on_c, 0, 81, 65
1, 1225965, Note_on_c, 0, 81, 0
1, 1226000, Note_on_c, 0, 79, 66
1, 1226002, Note_on_c, 0, 77, 0
1, 1226045, Note_on_c, 0, 79, 0
1, 1226051, Note_on_c, 0, 81, 66
1, 1226097, Note_on_c, 0, 81, 0
1, 1226127, Note_on_c, 0, 79, 61
1, 1226168, Control_c, 0, 64, 46
1, 1226182, Note_on_c, 0, 79, 0
1, 1226187, Note_on_c, 0, 81, 65
1, 1226226, Note_on_c, 0, 81, 0
1, 1226243, Control_c, 0, 64, 44
1, 1226260, Note_on_c, 0, 79, 59
1, 1226287, Note_on_c, 0, 76, 79
1, 1226304, Note_on_c, 0, 79, 0
1, 1226315, Note_on_c, 0, 81, 77
1, 1226352, Note_on_c, 0, 76, 0
1, 1226353, Note_on_c, 0, 81, 0
1, 1226359, Note_on_c, 0, 77, 79
1, 1226388, Control_c, 0, 64, 42
1, 1226392, Note_on_c, 0, 79, 70
1, 1226454, Note_on_c, 0, 76, 81
1, 1226457, Note_on_c, 0, 79, 0
1, 1226459, Note_on_c, 0, 77, 0
1, 1226460, Note_on_c, 0, 81, 81
1, 1226506, Note_on_c, 0, 81, 0
1, 1226520, Note_on_c, 0, 76, 0
1, 1226540, Note_on_c, 0, 79, 73
1, 1226544, Note_on_c, 0, 77, 79
1, 1226593, Note_on_c, 0, 79, 0
1, 1226594, Note_on_c, 0, 81, 73
1, 1226640, Note_on_c, 0, 81, 0
1, 1226682, Control_c, 0, 67, 8
1, 1226690, Note_on_c, 0, 79, 61
1, 1226717, Control_c, 0, 67, 16
1, 1226727, Note_on_c, 0, 79, 0
1, 1226735, Control_c, 0, 67, 23
1, 1226737, Note_on_c, 0, 81, 71
1, 1226754, Control_c, 0, 67, 30
1, 1226771, Control_c, 0, 67, 36
1, 1226773, Note_on_c, 0, 81, 0
1, 1226791, Control_c, 0, 67, 40
1, 1226793, Note_on_c, 0, 77, 0
1, 1226808, Control_c, 0, 67, 48
1, 1226822, Note_on_c, 0, 79, 59
1, 1226827, Control_c, 0, 67, 59
1, 1226845, Control_c, 0, 67, 71
1, 1226858, Note_on_c, 0, 79, 0
1, 1226862, Control_c, 0, 67, 81
1, 1226873, Note_on_c, 0, 81, 71
1, 1226881, Control_c, 0, 67, 87
1, 1226908, Note_on_c, 0, 81, 0
1, 1226921, Control_c, 0, 67, 93
1, 1226938, Control_c, 0, 67, 97
1, 1226948, Note_on_c, 0, 79, 60
1, 1226955, Control_c, 0, 67, 101
1, 1226993, Control_c, 0, 67, 106
1, 1227001, Note_on_c, 0, 79, 0
1, 1227011, Note_on_c, 0, 81, 68
1, 1227028, Control_c, 0, 67, 111
1, 1227047, Note_on_c, 0, 81, 0
1, 1227047, Control_c, 0, 67, 115
1, 1227067, Control_c, 0, 67, 119
1, 1227090, Note_on_c, 0, 79, 56
1, 1227122, Control_c, 0, 67, 125
1, 1227131, Note_on_c, 0, 79, 0
1, 1227144, Note_on_c, 0, 81, 67
1, 1227171, Note_on_c, 0, 76, 65
1, 1227179, Note_on_c, 0, 81, 0
1, 1227226, Note_on_c, 0, 79, 60
1, 1227228, Note_on_c, 0, 76, 0
1, 1227249, Note_on_c, 0, 77, 64
1, 1227264, Note_on_c, 0, 79, 0
1, 1227265, Note_on_c, 0, 81, 72
1, 1227321, Note_on_c, 0, 81, 0
1, 1227348, Note_on_c, 0, 77, 0
1, 1227361, Note_on_c, 0, 76, 65
1, 1227374, Note_on_c, 0, 79, 55
1, 1227422, Note_on_c, 0, 79, 0
1, 1227427, Note_on_c, 0, 81, 65
1, 1227435, Note_on_c, 0, 76, 0
1, 1227470, Note_on_c, 0, 81, 0
1, 1227477, Note_on_c, 0, 77, 56
1, 1227521, Note_on_c, 0, 79, 46
1, 1227555, Note_on_c, 0, 79, 0
1, 1227574, Note_on_c, 0, 81, 54
1, 1227607, Note_on_c, 0, 81, 0
1, 1227651, Note_on_c, 0, 79, 53
1, 1227676, Note_on_c, 0, 77, 0
1, 1227683, Note_on_c, 0, 79, 0
1, 1227688, Control_c, 0, 64, 46
1, 1227704, Note_on_c, 0, 81, 59
1, 1227707, Control_c, 0, 64, 48
1, 1227728, Control_c, 0, 64, 53
1, 1227735, Note_on_c, 0, 81, 0
1, 1227742, Control_c, 0, 64, 57
1, 1227763, Control_c, 0, 64, 60
1, 1227778, Note_on_c, 0, 79, 53
1, 1227781, Control_c, 0, 64, 62
1, 1227799, Control_c, 0, 64, 63
1, 1227817, Note_on_c, 0, 79, 0
1, 1227818, Control_c, 0, 64, 64
1, 1227834, Note_on_c, 0, 81, 57
1, 1227837, Control_c, 0, 64, 65
1, 1227855, Control_c, 0, 64, 66
1, 1227869, Note_on_c, 0, 81, 0
1, 1227874, Control_c, 0, 64, 68
1, 1227907, Note_on_c, 0, 79, 51
1, 1227910, Control_c, 0, 64, 70
1, 1227946, Control_c, 0, 64, 72
1, 1227952, Note_on_c, 0, 79, 0
1, 1227969, Note_on_c, 0, 81, 53
1, 1228001, Note_on_c, 0, 81, 0
1, 1228001, Control_c, 0, 64, 74
1, 1228041, Note_on_c, 0, 79, 45
1, 1228057, Control_c, 0, 64, 76
1, 1228081, Note_on_c, 0, 79, 0
1, 1228095, Control_c, 0, 64, 78
1, 1228106, Note_on_c, 0, 81, 51
1, 1228131, Note_on_c, 0, 81, 0
1, 1228170, Control_c, 0, 64, 81
1, 1228181, Note_on_c, 0, 79, 45
1, 1228203, Control_c, 0, 64, 83
1, 1228212, Note_on_c, 0, 79, 0
1, 1228232, Note_on_c, 0, 81, 54
1, 1228239, Control_c, 0, 64, 85
1, 1228262, Note_on_c, 0, 81, 0
1, 1228293, Control_c, 0, 64, 87
1, 1228322, Note_on_c, 0, 79, 46
1, 1228358, Note_on_c, 0, 79, 0
1, 1228366, Control_c, 0, 64, 91
1, 1228379, Note_on_c, 0, 81, 45
1, 1228411, Note_on_c, 0, 81, 0
1, 1228452, Note_on_c, 0, 79, 42
1, 1228489, Note_on_c, 0, 79, 0
1, 1228495, Control_c, 0, 64, 95
1, 1228507, Note_on_c, 0, 81, 42
1, 1228539, Note_on_c, 0, 81, 0
1, 1228578, Note_on_c, 0, 79, 42
1, 1228616, Note_on_c, 0, 79, 0
1, 1228618, Note_on_c, 0, 81, 51
1, 1228653, Note_on_c, 0, 81, 0
1, 1228714, Note_on_c, 0, 79, 16
1, 1228861, Poly_aftertouch_c, 0, 81, 127
1, 1228876, Note_on_c, 0, 79, 0
1, 1228917, Poly_aftertouch_c, 0, 81, 0
1, 1228934, Note_on_c, 0, 79, 37
1, 1228985, Note_on_c, 0, 79, 0
1, 1229005, Note_on_c, 0, 81, 29
1, 1229030, Control_c, 0, 64, 99
1, 1229045, Note_on_c, 0, 81, 0
1, 1229078, Note_on_c, 0, 79, 22
1, 1229111, Note_on_c, 0, 81, 46
1, 1229139, Control_c, 0, 64, 103
1, 1229224, Note_on_c, 0, 79, 0
1, 1229224, Note_on_c, 0, 79, 14
1, 1229251, Note_on_c, 0, 81, 0
1, 1229251, Note_on_c, 0, 81, 37
1, 1229302, Control_c, 0, 64, 107
1, 1229344, Note_on_c, 0, 79, 0
1, 1229344, Note_on_c, 0, 79, 11
1, 1229560, Control_c, 0, 64, 111
1, 1229601, Note_on_c, 0, 79, 0
1, 1229601, Note_on_c, 0, 79, 24
1, 1229722, Note_on_c, 0, 48, 37
1, 1229725, Note_on_c, 0, 79, 0
1, 1229725, Note_on_c, 0, 79, 17
1, 1229802, Poly_aftertouch_c, 0, 81, 24
1, 1229830, Note_on_c, 0, 81, 0
1, 1229830, Poly_aftertouch_c, 0, 81, 0
1, 1229831, Poly_aftertouch_c, 0, 81, 0
1, 1229861, Note_on_c, 0, 79, 0
1, 1229861, Note_on_c, 0, 79, 16
1, 1229900, Note_on_c, 0, 81, 35
1, 1229952, Note_on_c, 0, 81, 0
1, 1229967, Control_c, 0, 64, 115
1, 1229981, Note_on_c, 0, 79, 0
1, 1229981, Note_on_c, 0, 79, 21
1, 1229987, Note_on_c, 0, 55, 38
1, 1229988, Note_on_c, 0, 48, 0
1, 1230031, Note_on_c, 0, 79, 0
1, 1230039, Note_on_c, 0, 81, 24
1, 1230082, Note_on_c, 0, 55, 0
1, 1230088, Note_on_c, 0, 81, 0
1, 1230090, Note_on_c, 0, 79, 36
1, 1230135, Note_on_c, 0, 79, 0
1, 1230163, Note_on_c, 0, 81, 43
1, 1230185, Note_on_c, 0, 60, 51
1, 1230195, Note_on_c, 0, 81, 0
1, 1230258, Note_on_c, 0, 79, 37
1, 1230295, Note_on_c, 0, 60, 0
1, 1230340, Note_on_c, 0, 79, 0
1, 1230342, Note_on_c, 0, 64, 48
1, 1230344, Note_on_c, 0, 91, 68
1, 1230404, Control_c, 0, 64, 119
1, 1230420, Note_on_c, 0, 91, 0
1, 1230470, Note_on_c, 0, 79, 44
1, 1230507, Note_on_c, 0, 79, 0
1, 1230523, Note_on_c, 0, 64, 0
1, 1230527, Note_on_c, 0, 81, 61
1, 1230540, Note_on_c, 0, 60, 44
1, 1230570, Note_on_c, 0, 81, 0
1, 1230605, Note_on_c, 0, 79, 40
1, 1230643, Note_on_c, 0, 79, 0
1, 1230652, Note_on_c, 0, 81, 62
1, 1230658, Note_on_c, 0, 64, 42
1, 1230703, Note_on_c, 0, 81, 0
1, 1230735, Note_on_c, 0, 79, 57
1, 1230766, Control_c, 0, 64, 123
1, 1230774, Note_on_c, 0, 79, 0
1, 1230787, Note_on_c, 0, 64, 0
1, 1230808, Note_on_c, 0, 91, 87
1, 1230834, Poly_aftertouch_c, 0, 60, 24
1, 1230835, Note_on_c, 0, 67, 51
1, 1230862, Note_on_c, 0, 91, 0
1, 1230941, Note_on_c, 0, 67, 0
1, 1230946, Poly_aftertouch_c, 0, 79, 0
1, 1230977, Note_on_c, 0, 81, 49
1, 1230992, Note_on_c, 0, 64, 42
1, 1230997, Note_on_c, 0, 60, 0
1, 1230997, Poly_aftertouch_c, 0, 60, 0
1, 1231006, Note_on_c, 0, 81, 0
1, 1231038, Note_on_c, 0, 79, 53
1, 1231048, Note_on_c, 0, 64, 0
1, 1231092, Note_on_c, 0, 79, 0
1, 1231111, Note_on_c, 0, 81, 68
1, 1231124, Note_on_c, 0, 67, 46
1, 1231150, Note_on_c, 0, 81, 0
1, 1231188, Note_on_c, 0, 79, 50
1, 1231194, Note_on_c, 0, 67, 0
1, 1231226, Note_on_c, 0, 79, 0
1, 1231244, Note_on_c, 0, 64, 40
1, 1231250, Note_on_c, 0, 81, 66
1, 1231291, Note_on_c, 0, 81, 0
1, 1231332, Note_on_c, 0, 79, 48
1, 1231355, Note_on_c, 0, 64, 0
1, 1231374, Note_on_c, 0, 79, 0
1, 1231394, Note_on_c, 0, 81, 62
1, 1231402, Note_on_c, 0, 60, 45
1, 1231445, Note_on_c, 0, 88, 86
1, 1231446, Note_on_c, 0, 81, 0
1, 1231482, Note_on_c, 0, 79, 46
1, 1231515, Note_on_c, 0, 64, 50
1, 1231534, Note_on_c, 0, 79, 0
1, 1231569, Note_on_c, 0, 81, 56
1, 1231618, Note_on_c, 0, 81, 0
1, 1231647, Control_c, 0, 64, 117
1, 1231661, Note_on_c, 0, 86, 81
1, 1231664, Control_c, 0, 64, 110
1, 1231668, Note_on_c, 0, 79, 42
1, 1231678, Note_on_c, 0, 65, 46
1, 1231681, Note_on_c, 0, 64, 0
1, 1231684, Control_c, 0, 64, 105
1, 1231698, Note_on_c, 0, 88, 0
1, 1231730, Note_on_c, 0, 79, 0
1, 1231745, Note_on_c, 0, 60, 0
1, 1231748, Note_on_c, 0, 65, 0
1, 1231756, Note_on_c, 0, 81, 62
1, 1231757, Control_c, 0, 64, 110
1, 1231775, Control_c, 0, 64, 115
1, 1231782, Note_on_c, 0, 62, 44
1, 1231812, Note_on_c, 0, 81, 0
1, 1231813, Control_c, 0, 64, 119
1, 1231818, Note_on_c, 0, 79, 40
1, 1231840, Note_on_c, 0, 62, 0
1, 1231872, Note_on_c, 0, 79, 0
1, 1231902, Note_on_c, 0, 81, 52
1, 1231909, Note_on_c, 0, 65, 42
1, 1231943, Note_on_c, 0, 81, 0
1, 1231978, Note_on_c, 0, 79, 35
1, 1232033, Note_on_c, 0, 79, 0
1, 1232050, Note_on_c, 0, 81, 72
1, 1232082, Note_on_c, 0, 62, 54
1, 1232089, Note_on_c, 0, 65, 0
1, 1232103, Note_on_c, 0, 81, 0
1, 1232108, Note_on_c, 0, 79, 66
1, 1232152, Note_on_c, 0, 79, 0
1, 1232171, Note_on_c, 0, 81, 58
1, 1232179, Note_on_c, 0, 62, 0
1, 1232199, Note_on_c, 0, 59, 51
1, 1232237, Note_on_c, 0, 81, 0
1, 1232259, Note_on_c, 0, 79, 56
1, 1232289, Note_on_c, 0, 79, 0
1, 1232289, Control_c, 0, 64, 123
1, 1232315, Note_on_c, 0, 81, 54
1, 1232338, Note_on_c, 0, 62, 52
1, 1232370, Note_on_c, 0, 81, 0
1, 1232379, Note_on_c, 0, 79, 59
1, 1232403, Note_on_c, 0, 59, 0
1, 1232406, Note_on_c, 0, 62, 0
1, 1232415, Control_c, 0, 64, 106
1, 1232432, Note_on_c, 0, 81, 59
1, 1232434, Control_c, 0, 64, 87
1, 1232435, Note_on_c, 0, 84, 80
1, 1232436, Note_on_c, 0, 79, 0
1, 1232453, Note_on_c, 0, 64, 48
1, 1232453, Control_c, 0, 64, 74
1, 1232465, Note_on_c, 0, 86, 0
1, 1232492, Control_c, 0, 64, 76
1, 1232510, Control_c, 0, 64, 84
1, 1232512, Note_on_c, 0, 81, 0
1, 1232528, Control_c, 0, 64, 94
1, 1232541, Note_on_c, 0, 79, 37
1, 1232545, Control_c, 0, 64, 104
1, 1232564, Control_c, 0, 64, 111
1, 1232570, Note_on_c, 0, 64, 0
1, 1232581, Note_on_c, 0, 79, 0
1, 1232583, Control_c, 0, 64, 115
1, 1232584, Note_on_c, 0, 60, 51
1, 1232586, Note_on_c, 0, 81, 54
1, 1232648, Note_on_c, 0, 81, 0
1, 1232654, Note_on_c, 0, 79, 52
1, 1232717, Note_on_c, 0, 60, 0
1, 1232725, Note_on_c, 0, 55, 48
1, 1232728, Note_on_c, 0, 81, 46
1, 1232730, Note_on_c, 0, 79, 0
1, 1232783, Note_on_c, 0, 55, 0
1, 1232808, Note_on_c, 0, 81, 0
1, 1232817, Note_on_c, 0, 79, 39
1, 1232873, Note_on_c, 0, 60, 44
1, 1232876, Note_on_c, 0, 88, 68
1, 1232890, Note_on_c, 0, 84, 0
1, 1232933, Poly_aftertouch_c, 0, 81, 127
1, 1232965, Poly_aftertouch_c, 0, 81, 0
1, 1232999, Note_on_c, 0, 79, 0
1, 1232999, Note_on_c, 0, 60, 0
1, 1232999, Note_on_c, 0, 79, 10
1, 1233035, Note_on_c, 0, 55, 44
1, 1233046, Note_on_c, 0, 79, 0
1, 1233061, Note_on_c, 0, 81, 45
1, 1233099, Note_on_c, 0, 81, 0
1, 1233137, Note_on_c, 0, 79, 21
1, 1233147, Note_on_c, 0, 55, 0
1, 1233159, Note_on_c, 0, 52, 43
1, 1233192, Note_on_c, 0, 79, 0
1, 1233205, Control_c, 0, 64, 119
1, 1233212, Note_on_c, 0, 81, 48
1, 1233249, Note_on_c, 0, 81, 0
1, 1233280, Note_on_c, 0, 79, 34
1, 1233297, Control_c, 0, 64, 109
1, 1233317, Control_c, 0, 64, 91
1, 1233318, Note_on_c, 0, 52, 0
1, 1233324, Note_on_c, 0, 79, 0
1, 1233332, Note_on_c, 0, 48, 52
1, 1233335, Control_c, 0, 64, 71
1, 1233350, Control_c, 0, 64, 64
1, 1233355, Note_on_c, 0, 81, 42
1, 1233371, Control_c, 0, 64, 66
1, 1233390, Control_c, 0, 64, 73
1, 1233391, Note_on_c, 0, 81, 0
1, 1233408, Control_c, 0, 64, 85
1, 1233419, Note_on_c, 0, 79, 47
1, 1233424, Control_c, 0, 64, 99
1, 1233444, Control_c, 0, 64, 111
1, 1233451, Note_on_c, 0, 79, 0
1, 1233463, Control_c, 0, 64, 115
1, 1233476, Note_on_c, 0, 55, 53
1, 1233486, Note_on_c, 0, 81, 53
1, 1233494, Note_on_c, 0, 88, 0
1, 1233510, Note_on_c, 0, 48, 0
1, 1233513, Note_on_c, 0, 81, 0
1, 1233539, Note_on_c, 0, 55, 0
1, 1233541, Note_on_c, 0, 79, 55
1, 1233572, Note_on_c, 0, 79, 0
1, 1233600, Note_on_c, 0, 81, 64
1, 1233614, Note_on_c, 0, 60, 52
1, 1233638, Note_on_c, 0, 81, 0
1, 1233668, Note_on_c, 0, 79, 64
1, 1233708, Note_on_c, 0, 60, 0
1, 1233726, Note_on_c, 0, 79, 0
1, 1233747, Note_on_c, 0, 91, 88
1, 1233770, Note_on_c, 0, 64, 50
1, 1233794, Note_on_c, 0, 89, 40
1, 1233795, Note_on_c, 0, 89, 0
1, 1233800, Note_on_c, 0, 91, 0
1, 1233872, Note_on_c, 0, 64, 0
1, 1233878, Poly_aftertouch_c, 0, 79, 127
1, 1233909, Note_on_c, 0, 81, 62
1, 1233916, Note_on_c, 0, 60, 46
1, 1233957, Note_on_c, 0, 81, 0
1, 1233987, Note_on_c, 0, 79, 42
1, 1234020, Note_on_c, 0, 79, 0
1, 1234020, Poly_aftertouch_c, 0, 79, 0
1, 1234030, Note_on_c, 0, 81, 68
1, 1234044, Note_on_c, 0, 64, 52
1, 1234056, Note_on_c, 0, 60, 0
1, 1234077, Note_on_c, 0, 81, 0
1, 1234112, Note_on_c, 0, 79, 57
1, 1234133, Note_on_c, 0, 64, 0
1, 1234137, Note_on_c, 0, 79, 0
1, 1234169, Note_on_c, 0, 91, 92
1, 1234171, Note_on_c, 0, 67, 48
1, 1234225, Note_on_c, 0, 91, 0
1, 1234234, Note_on_c, 0, 79, 50
1, 1234274, Note_on_c, 0, 67, 0
1, 1234289, Note_on_c, 0, 79, 0
1, 1234314, Note_on_c, 0, 81, 61
1, 1234323, Note_on_c, 0, 64, 46
1, 1234351, Note_on_c, 0, 81, 0
1, 1234395, Note_on_c, 0, 79, 47
1, 1234410, Note_on_c, 0, 64, 0
1, 1234429, Note_on_c, 0, 79, 0
1, 1234445, Note_on_c, 0, 81, 62
1, 1234445, Note_on_c, 0, 67, 47
1, 1234487, Note_on_c, 0, 81, 0
1, 1234524, Note_on_c, 0, 79, 51
1, 1234551, Note_on_c, 0, 67, 0
1, 1234560, Note_on_c, 0, 79, 0
1, 1234569, Note_on_c, 0, 64, 49
1, 1234592, Note_on_c, 0, 81, 59
1, 1234641, Note_on_c, 0, 81, 0
1, 1234672, Note_on_c, 0, 79, 40
1, 1234688, Note_on_c, 0, 64, 0
1, 1234708, Note_on_c, 0, 60, 52
1, 1234711, Note_on_c, 0, 79, 0
1, 1234731, Note_on_c, 0, 88, 84
1, 1234742, Note_on_c, 0, 81, 55
1, 1234781, Note_on_c, 0, 81, 0
1, 1234837, Note_on_c, 0, 79, 40
1, 1234867, Control_c, 0, 64, 119
1, 1234872, Note_on_c, 0, 64, 44
1, 1234877, Note_on_c, 0, 79, 0
1, 1234935, Note_on_c, 0, 81, 38
1, 1234941, Control_c, 0, 64, 102
1, 1234959, Control_c, 0, 64, 84
1, 1234977, Control_c, 0, 64, 70
1, 1234987, Note_on_c, 0, 81, 0
1, 1235000, Note_on_c, 0, 64, 0
1, 1235000, Note_on_c, 0, 86, 77
1, 1235005, Note_on_c, 0, 79, 42
1, 1235013, Note_on_c, 0, 60, 0
1, 1235028, Note_on_c, 0, 88, 0
1, 1235032, Note_on_c, 0, 65, 44
1, 1235032, Control_c, 0, 64, 79
1, 1235052, Control_c, 0, 64, 89
1, 1235070, Control_c, 0, 64, 100
1, 1235081, Note_on_c, 0, 79, 0
1, 1235087, Control_c, 0, 64, 106
1, 1235115, Note_on_c, 0, 65, 0
1, 1235141, Note_on_c, 0, 62, 50
1, 1235149, Note_on_c, 0, 81, 30
1, 1235180, Note_on_c, 0, 79, 44
1, 1235193, Note_on_c, 0, 62, 0
1, 1235193, Note_on_c, 0, 81, 0
1, 1235216, Control_c, 0, 64, 110
1, 1235230, Note_on_c, 0, 79, 0
1, 1235255, Note_on_c, 0, 65, 46
1, 1235281, Note_on_c, 0, 81, 56
1, 1235289, Control_c, 0, 64, 114
1, 1235317, Note_on_c, 0, 65, 0
1, 1235317, Note_on_c, 0, 81, 0
1, 1235338, Note_on_c, 0, 79, 64
1, 1235383, Control_c, 0, 64, 104
1, 1235393, Note_on_c, 0, 59, 59
1, 1235401, Control_c, 0, 64, 91
1, 1235414, Note_on_c, 0, 81, 71
1, 1235420, Control_c, 0, 64, 80
1, 1235448, Note_on_c, 0, 59, 0
1, 1235454, Control_c, 0, 64, 83
1, 1235466, Note_on_c, 0, 81, 0
1, 1235474, Control_c, 0, 64, 90
1, 1235493, Control_c, 0, 64, 99
1, 1235497, Note_on_c, 0, 79, 0
1, 1235497, Note_on_c, 0, 79, 14
1, 1235512, Control_c, 0, 64, 107
1, 1235528, Control_c, 0, 64, 112
1, 1235528, Note_on_c, 0, 62, 48
1, 1235544, Note_on_c, 0, 79, 0
1, 1235571, Note_on_c, 0, 81, 50
1, 1235612, Note_on_c, 0, 81, 0
1, 1235632, Note_on_c, 0, 62, 0
1, 1235635, Note_on_c, 0, 79, 47
1, 1235667, Note_on_c, 0, 79, 0
1, 1235670, Note_on_c, 0, 59, 46
1, 1235720, Note_on_c, 0, 81, 50
1, 1235733, Control_c, 0, 64, 116
1, 1235778, Note_on_c, 0, 81, 0
1, 1235780, Note_on_c, 0, 59, 0
1, 1235794, Note_on_c, 0, 79, 42
1, 1235830, Note_on_c, 0, 84, 70
1, 1235840, Control_c, 0, 64, 104
1, 1235853, Note_on_c, 0, 60, 50
1, 1235858, Control_c, 0, 64, 83
1, 1235865, Note_on_c, 0, 79, 0
1, 1235866, Note_on_c, 0, 86, 0
1, 1235876, Note_on_c, 0, 81, 32
1, 1235877, Control_c, 0, 64, 60
1, 1235895, Control_c, 0, 64, 51
1, 1235916, Note_on_c, 0, 81, 0
1, 1235930, Control_c, 0, 64, 57
1, 1235939, Note_on_c, 0, 79, 29
1, 1235950, Control_c, 0, 64, 70
1, 1235969, Control_c, 0, 64, 80
1, 1235986, Note_on_c, 0, 79, 0
1, 1235987, Control_c, 0, 64, 90
1, 1236004, Control_c, 0, 64, 97
1, 1236012, Note_on_c, 0, 57, 50
1, 1236013, Note_on_c, 0, 60, 0
1, 1236027, Note_on_c, 0, 81, 53
1, 1236056, Note_on_c, 0, 81, 0
1, 1236060, Control_c, 0, 64, 101
1, 1236087, Note_on_c, 0, 79, 52
1, 1236103, Note_on_c, 0, 57, 0
1, 1236132, Note_on_c, 0, 55, 49
1, 1236135, Note_on_c, 0, 79, 0
1, 1236150, Note_on_c, 0, 81, 58
1, 1236189, Note_on_c, 0, 55, 0
1, 1236219, Note_on_c, 0, 81, 0
1, 1236244, Note_on_c, 0, 79, 51
1, 1236275, Note_on_c, 0, 53, 41
1, 1236283, Note_on_c, 0, 79, 0
1, 1236305, Note_on_c, 0, 81, 46
1, 1236358, Note_on_c, 0, 81, 0
1, 1236382, Note_on_c, 0, 79, 50
1, 1236402, Note_on_c, 0, 53, 0
1, 1236416, Note_on_c, 0, 79, 0
1, 1236419, Note_on_c, 0, 52, 43
1, 1236445, Note_on_c, 0, 81, 49
1, 1236476, Note_on_c, 0, 81, 0
1, 1236521, Note_on_c, 0, 79, 44
1, 1236539, Note_on_c, 0, 52, 0
1, 1236556, Note_on_c, 0, 79, 0
1, 1236581, Note_on_c, 0, 81, 54
1, 1236616, Note_on_c, 0, 50, 27
1, 1236617, Note_on_c, 0, 81, 0
1, 1236631, Note_on_c, 0, 84, 0
1, 1236632, Poly_aftertouch_c, 0, 84, 0
1, 1236659, Note_on_c, 0, 79, 42
1, 1236711, Note_on_c, 0, 50, 0
1, 1236898, Note_on_c, 0, 48, 35
1, 1236925, Control_c, 0, 64, 85
1, 1236927, Poly_aftertouch_c, 0, 79, 24
1, 1236940, Control_c, 0, 64, 62
1, 1236952, Note_on_c, 0, 80, 37
1, 1236953, Note_on_c, 0, 79, 0
1, 1236953, Poly_aftertouch_c, 0, 79, 0
1, 1236961, Control_c, 0, 64, 37
1, 1236979, Control_c, 0, 64, 32
1, 1237007, Note_on_c, 0, 80, 0
1, 1237013, Control_c, 0, 64, 41
1, 1237033, Control_c, 0, 64, 63
1, 1237039, Note_on_c, 0, 79, 33
1, 1237052, Control_c, 0, 64, 80
1, 1237072, Control_c, 0, 64, 95
1, 1237087, Control_c, 0, 64, 108
1, 1237106, Control_c, 0, 64, 112
1, 1237112, Note_on_c, 0, 79, 0
1, 1237130, Note_on_c, 0, 80, 49
1, 1237152, Note_on_c, 0, 55, 36
1, 1237165, Note_on_c, 0, 48, 0
1, 1237166, Note_on_c, 0, 80, 0
1, 1237183, Note_on_c, 0, 79, 41
1, 1237214, Note_on_c, 0, 55, 0
1, 1237232, Note_on_c, 0, 79, 0
1, 1237278, Note_on_c, 0, 80, 39
1, 1237314, Note_on_c, 0, 80, 0
1, 1237317, Note_on_c, 0, 60, 35
1, 1237346, Note_on_c, 0, 79, 40
1, 1237403, Note_on_c, 0, 79, 0
1, 1237516, Note_on_c, 0, 60, 0
1, 1237522, Poly_aftertouch_c, 0, 79, 0
1, 1237522, Note_on_c, 0, 63, 42
1, 1237567, Note_on_c, 0, 91, 71
1, 1237653, Note_on_c, 0, 91, 0
1, 1237666, Note_on_c, 0, 63, 0
1, 1237684, Note_on_c, 0, 79, 47
1, 1237732, Note_on_c, 0, 60, 40
1, 1237741, Note_on_c, 0, 79, 0
1, 1237778, Note_on_c, 0, 80, 53
1, 1237810, Note_on_c, 0, 80, 0
1, 1237851, Note_on_c, 0, 63, 41
1, 1237851, Note_on_c, 0, 79, 49
1, 1237888, Note_on_c, 0, 79, 0
1, 1237903, Note_on_c, 0, 80, 62
1, 1237946, Note_on_c, 0, 80, 0
1, 1237987, Note_on_c, 0, 79, 59
1, 1237990, Note_on_c, 0, 63, 0
1, 1238034, Note_on_c, 0, 79, 0
1, 1238064, Note_on_c, 0, 67, 43
1, 1238066, Note_on_c, 0, 91, 79
1, 1238130, Note_on_c, 0, 91, 0
1, 1238164, Note_on_c, 0, 79, 51
1, 1238201, Note_on_c, 0, 67, 0
1, 1238216, Note_on_c, 0, 79, 0
1, 1238254, Note_on_c, 0, 63, 47
1, 1238265, Note_on_c, 0, 80, 42
1, 1238266, Poly_aftertouch_c, 0, 60, 24
1, 1238300, Note_on_c, 0, 80, 0
1, 1238309, Note_on_c, 0, 63, 0
1, 1238309, Note_on_c, 0, 79, 58
1, 1238315, Note_on_c, 0, 60, 0
1, 1238315, Poly_aftertouch_c, 0, 60, 0
1, 1238346, Note_on_c, 0, 79, 0
1, 1238374, Note_on_c, 0, 67, 48
1, 1238392, Note_on_c, 0, 80, 63
1, 1238425, Note_on_c, 0, 80, 0
1, 1238448, Note_on_c, 0, 79, 56
1, 1238487, Note_on_c, 0, 67, 0
1, 1238508, Note_on_c, 0, 79, 0
1, 1238512, Note_on_c, 0, 80, 69
1, 1238516, Note_on_c, 0, 63, 44
1, 1238605, Note_on_c, 0, 63, 0
1, 1238618, Note_on_c, 0, 79, 40
1, 1238619, Note_on_c, 0, 80, 0
1, 1238662, Note_on_c, 0, 80, 49
1, 1238669, Note_on_c, 0, 60, 47
1, 1238671, Note_on_c, 0, 79, 0
1, 1238681, Note_on_c, 0, 87, 83
1, 1238767, Note_on_c, 0, 79, 42
1, 1238775, Control_c, 0, 64, 116
1, 1238795, Note_on_c, 0, 63, 45
1, 1238823, Note_on_c, 0, 79, 0
1, 1238835, Note_on_c, 0, 87, 0
1, 1238885, Control_c, 0, 64, 103
1, 1238897, Note_on_c, 0, 86, 79
1, 1238902, Note_on_c, 0, 63, 0
1, 1238904, Control_c, 0, 64, 88
1, 1238906, Note_on_c, 0, 60, 0
1, 1238920, Note_on_c, 0, 80, 0
1, 1238921, Poly_aftertouch_c, 0, 80, 0
1, 1238923, Control_c, 0, 64, 76
1, 1238941, Control_c, 0, 64, 72
1, 1238942, Note_on_c, 0, 65, 45
1, 1238950, Note_on_c, 0, 79, 28
1, 1238978, Control_c, 0, 64, 79
1, 1238995, Note_on_c, 0, 79, 0
1, 1238995, Control_c, 0, 64, 89
1, 1239014, Control_c, 0, 64, 100
1, 1239016, Note_on_c, 0, 65, 0
1, 1239025, Note_on_c, 0, 80, 56
1, 1239033, Control_c, 0, 64, 110
1, 1239052, Control_c, 0, 64, 115
1, 1239062, Note_on_c, 0, 62, 46
1, 1239072, Note_on_c, 0, 80, 0
1, 1239082, Note_on_c, 0, 79, 57
1, 1239102, Note_on_c, 0, 62, 0
1, 1239142, Note_on_c, 0, 79, 0
1, 1239143, Control_c, 0, 64, 119
1, 1239173, Note_on_c, 0, 80, 51
1, 1239175, Note_on_c, 0, 65, 47
1, 1239198, Control_c, 0, 64, 125
1, 1239202, Note_on_c, 0, 80, 0
1, 1239266, Note_on_c, 0, 65, 0
1, 1239270, Control_c, 0, 64, 119
1, 1239283, Note_on_c, 0, 79, 74
1, 1239289, Control_c, 0, 64, 102
1, 1239306, Note_on_c, 0, 62, 51
1, 1239307, Control_c, 0, 64, 79
1, 1239327, Control_c, 0, 64, 63
1, 1239338, Note_on_c, 0, 79, 0
1, 1239365, Control_c, 0, 64, 69
1, 1239382, Control_c, 0, 64, 79
1, 1239401, Control_c, 0, 64, 93
1, 1239406, Note_on_c, 0, 80, 40
1, 1239417, Note_on_c, 0, 62, 0
1, 1239418, Control_c, 0, 64, 108
1, 1239438, Control_c, 0, 64, 118
1, 1239439, Note_on_c, 0, 80, 0
1, 1239448, Note_on_c, 0, 59, 46
1, 1239460, Note_on_c, 0, 79, 50
1, 1239506, Note_on_c, 0, 79, 0
1, 1239507, Control_c, 0, 64, 122
1, 1239555, Note_on_c, 0, 80, 53
1, 1239564, Control_c, 0, 64, 126
1, 1239594, Note_on_c, 0, 62, 51
1, 1239600, Note_on_c, 0, 80, 0
1, 1239607, Note_on_c, 0, 79, 51
1, 1239635, Note_on_c, 0, 59, 0
1, 1239657, Note_on_c, 0, 79, 0
1, 1239674, Control_c, 0, 64, 119
1, 1239683, Note_on_c, 0, 86, 0
1, 1239688, Note_on_c, 0, 62, 0
1, 1239694, Control_c, 0, 64, 99
1, 1239700, Note_on_c, 0, 80, 45
1, 1239703, Note_on_c, 0, 84, 72
1, 1239712, Control_c, 0, 64, 78
1, 1239713, Note_on_c, 0, 63, 52
1, 1239730, Control_c, 0, 64, 69
1, 1239740, Note_on_c, 0, 80, 0
1, 1239746, Control_c, 0, 64, 72
1, 1239766, Control_c, 0, 64, 79
1, 1239778, Note_on_c, 0, 79, 42
1, 1239785, Control_c, 0, 64, 91
1, 1239787, Note_on_c, 0, 63, 0
1, 1239805, Control_c, 0, 64, 106
1, 1239815, Note_on_c, 0, 79, 0
1, 1239821, Control_c, 0, 64, 117
1, 1239838, Note_on_c, 0, 80, 58
1, 1239859, Control_c, 0, 64, 121
1, 1239861, Note_on_c, 0, 60, 42
1, 1239888, Note_on_c, 0, 80, 0
1, 1239902, Note_on_c, 0, 60, 0
1, 1239920, Note_on_c, 0, 79, 42
1, 1239932, Control_c, 0, 64, 126
1, 1239962, Note_on_c, 0, 79, 0
1, 1239964, Note_on_c, 0, 63, 47
1, 1240000, Note_on_c, 0, 80, 54
1, 1240023, Note_on_c, 0, 84, 0
1, 1240039, Note_on_c, 0, 80, 0
1, 1240050, Note_on_c, 0, 79, 68
1, 1240067, Note_on_c, 0, 63, 0
1, 1240090, Note_on_c, 0, 79, 0
1, 1240096, Control_c, 0, 64, 104
1, 1240111, Note_on_c, 0, 51, 47
1, 1240112, Control_c, 0, 64, 76
1, 1240113, Note_on_c, 0, 58, 49
1, 1240126, Note_on_c, 0, 80, 70
1, 1240131, Control_c, 0, 64, 58
1, 1240165, Note_on_c, 0, 80, 0
1, 1240169, Control_c, 0, 64, 62
1, 1240189, Control_c, 0, 64, 73
1, 1240197, Note_on_c, 0, 79, 63
1, 1240202, Note_on_c, 0, 58, 0
1, 1240208, Control_c, 0, 64, 85
1, 1240221, Note_on_c, 0, 79, 0
1, 1240227, Control_c, 0, 64, 99
1, 1240245, Control_c, 0, 64, 110
1, 1240245, Note_on_c, 0, 61, 55
1, 1240249, Note_on_c, 0, 80, 72
1, 1240264, Control_c, 0, 64, 115
1, 1240284, Note_on_c, 0, 80, 0
1, 1240300, Note_on_c, 0, 79, 65
1, 1240328, Note_on_c, 0, 61, 0
1, 1240331, Note_on_c, 0, 51, 0
1, 1240336, Control_c, 0, 64, 119
1, 1240346, Note_on_c, 0, 79, 0
1, 1240383, Note_on_c, 0, 77, 51
1, 1240411, Control_c, 0, 64, 123
1, 1240437, Note_on_c, 0, 77, 0
1, 1240439, Poly_aftertouch_c, 0, 58, 127
1, 1240459, Note_on_c, 0, 79, 75
1, 1240476, Poly_aftertouch_c, 0, 58, 0
1, 1240517, Control_c, 0, 64, 127
1, 1240602, Note_on_c, 0, 79, 0
1, 1240608, Control_c, 0, 64, 111
1, 1240621, Note_on_c, 0, 44, 52
1, 1240626, Control_c, 0, 64, 87
1, 1240636, Note_on_c, 0, 80, 65
1, 1240646, Control_c, 0, 64, 62
1, 1240665, Control_c, 0, 64, 56
1, 1240673, Note_on_c, 0, 80, 0
1, 1240701, Control_c, 0, 64, 68
1, 1240713, Note_on_c, 0, 82, 66
1, 1240719, Control_c, 0, 64, 80
1, 1240738, Note_on_c, 0, 44, 0
1, 1240738, Control_c, 0, 64, 96
1, 1240749, Note_on_c, 0, 82, 0
1, 1240755, Control_c, 0, 64, 111
1, 1240757, Note_on_c, 0, 80, 74
1, 1240776, Control_c, 0, 64, 119
1, 1240786, Note_on_c, 0, 51, 55
1, 1240794, Note_on_c, 0, 80, 0
1, 1240812, Note_on_c, 0, 82, 74
1, 1240865, Note_on_c, 0, 82, 0
1, 1240865, Note_on_c, 0, 80, 79
1, 1240899, Note_on_c, 0, 56, 59
1, 1240905, Control_c, 0, 64, 123
1, 1240914, Note_on_c, 0, 80, 0
1, 1240930, Note_on_c, 0, 51, 0
1, 1240994, Note_on_c, 0, 56, 0
1, 1241041, Note_on_c, 0, 60, 54
1, 1241076, Note_on_c, 0, 87, 82
1, 1241091, Note_on_c, 0, 75, 53
1, 1241132, Note_on_c, 0, 75, 0
1, 1241170, Note_on_c, 0, 77, 60
1, 1241182, Note_on_c, 0, 60, 0
1, 1241192, Note_on_c, 0, 56, 45
1, 1241237, Note_on_c, 0, 77, 0
1, 1241237, Note_on_c, 0, 75, 65
1, 1241257, Note_on_c, 0, 87, 0
1, 1241291, Poly_aftertouch_c, 0, 87, 0
1, 1241302, Note_on_c, 0, 75, 0
1, 1241320, Note_on_c, 0, 60, 50
1, 1241325, Note_on_c, 0, 77, 55
1, 1241380, Control_c, 0, 64, 127
1, 1241391, Note_on_c, 0, 77, 0
1, 1241413, Note_on_c, 0, 75, 63
1, 1241472, Note_on_c, 0, 75, 0
1, 1241484, Note_on_c, 0, 77, 69
1, 1241488, Control_c, 0, 64, 122
1, 1241509, Control_c, 0, 64, 107
1, 1241516, Note_on_c, 0, 60, 0
1, 1241526, Control_c, 0, 64, 88
1, 1241541, Note_on_c, 0, 63, 52
1, 1241544, Control_c, 0, 64, 72
1, 1241545, Note_on_c, 0, 87, 85
1, 1241558, Note_on_c, 0, 77, 0
1, 1241564, Control_c, 0, 64, 69
1, 1241568, Note_on_c, 0, 75, 44
1, 1241601, Control_c, 0, 64, 76
1, 1241617, Control_c, 0, 64, 86
1, 1241632, Note_on_c, 0, 75, 0
1, 1241636, Control_c, 0, 64, 99
1, 1241655, Control_c, 0, 64, 109
1, 1241667, Note_on_c, 0, 77, 61
1, 1241674, Control_c, 0, 64, 115
1, 1241709, Note_on_c, 0, 87, 0
1, 1241713, Note_on_c, 0, 63, 0
1, 1241717, Note_on_c, 0, 60, 45
1, 1241722, Note_on_c, 0, 77, 0
1, 1241748, Control_c, 0, 64, 120
1, 1241750, Note_on_c, 0, 75, 59
1, 1241771, Note_on_c, 0, 56, 0
1, 1241784, Note_on_c, 0, 60, 0
1, 1241790, Note_on_c, 0, 75, 0
1, 1241833, Note_on_c, 0, 77, 58
1, 1241848, Note_on_c, 0, 63, 49
1, 1241866, Note_on_c, 0, 77, 0
1, 1241891, Note_on_c, 0, 75, 63
1, 1241936, Note_on_c, 0, 75, 0
1, 1241948, Note_on_c, 0, 63, 0
1, 1241965, Note_on_c, 0, 77, 59
1, 1241989, Note_on_c, 0, 60, 48
1, 1242000, Note_on_c, 0, 77, 0
1, 1242039, Note_on_c, 0, 75, 57
1, 1242072, Note_on_c, 0, 60, 0
1, 1242083, Note_on_c, 0, 75, 0
1, 1242109, Note_on_c, 0, 77, 64
1, 1242116, Note_on_c, 0, 56, 50
1, 1242133, Note_on_c, 0, 84, 84
1, 1242175, Note_on_c, 0, 77, 0
1, 1242209, Control_c, 0, 64, 124
1, 1242220, Note_on_c, 0, 75, 23
1, 1242231, Note_on_c, 0, 60, 54
1, 1242264, Note_on_c, 0, 75, 0
1, 1242292, Note_on_c, 0, 77, 64
1, 1242351, Control_c, 0, 64, 117
1, 1242370, Control_c, 0, 64, 96
1, 1242378, Note_on_c, 0, 60, 0
1, 1242378, Note_on_c, 0, 82, 81
1, 1242382, Note_on_c, 0, 56, 0
1, 1242383, Note_on_c, 0, 77, 0
1, 1242385, Note_on_c, 0, 75, 50
1, 1242389, Control_c, 0, 64, 72
1, 1242401, Note_on_c, 0, 84, 0
1, 1242404, Note_on_c, 0, 61, 51
1, 1242408, Control_c, 0, 64, 60
1, 1242445, Control_c, 0, 64, 67
1, 1242458, Note_on_c, 0, 75, 0
1, 1242463, Control_c, 0, 64, 78
1, 1242481, Control_c, 0, 64, 93
1, 1242499, Control_c, 0, 64, 110
1, 1242508, Note_on_c, 0, 61, 0
1, 1242514, Note_on_c, 0, 77, 49
1, 1242518, Control_c, 0, 64, 121
1, 1242537, Note_on_c, 0, 58, 52
1, 1242540, Note_on_c, 0, 77, 0
1, 1242561, Note_on_c, 0, 75, 55
1, 1242609, Control_c, 0, 64, 125
1, 1242641, Note_on_c, 0, 77, 64
1, 1242643, Note_on_c, 0, 58, 0
1, 1242664, Note_on_c, 0, 61, 59
1, 1242692, Note_on_c, 0, 77, 0
1, 1242692, Note_on_c, 0, 75, 0
1, 1242789, Note_on_c, 0, 75, 70
1, 1242793, Control_c, 0, 64, 106
1, 1242801, Note_on_c, 0, 58, 59
1, 1242813, Note_on_c, 0, 61, 0
1, 1242813, Control_c, 0, 64, 81
1, 1242832, Control_c, 0, 64, 61
1, 1242841, Note_on_c, 0, 75, 0
1, 1242850, Control_c, 0, 64, 58
1, 1242867, Control_c, 0, 64, 61
1, 1242868, Note_on_c, 0, 77, 51
1, 1242889, Control_c, 0, 64, 71
1, 1242906, Control_c, 0, 64, 83
1, 1242913, Note_on_c, 0, 77, 0
1, 1242925, Control_c, 0, 64, 99
1, 1242926, Note_on_c, 0, 58, 0
1, 1242926, Note_on_c, 0, 75, 49
1, 1242943, Control_c, 0, 64, 110
1, 1242957, Note_on_c, 0, 55, 45
1, 1242961, Control_c, 0, 64, 117
1, 1242974, Note_on_c, 0, 75, 0
1, 1243003, Note_on_c, 0, 77, 52
1, 1243044, Note_on_c, 0, 77, 0
1, 1243071, Note_on_c, 0, 75, 62
1, 1243071, Control_c, 0, 64, 121
1, 1243082, Note_on_c, 0, 58, 55
1, 1243124, Note_on_c, 0, 75, 0
1, 1243127, Control_c, 0, 64, 125
1, 1243162, Note_on_c, 0, 77, 52
1, 1243182, Control_c, 0, 64, 112
1, 1243184, Note_on_c, 0, 58, 0
1, 1243191, Note_on_c, 0, 80, 73
1, 1243196, Note_on_c, 0, 55, 0
1, 1243198, Note_on_c, 0, 77, 0
1, 1243201, Control_c, 0, 64, 92
1, 1243219, Control_c, 0, 64, 70
1, 1243226, Note_on_c, 0, 60, 48
1, 1243229, Note_on_c, 0, 82, 0
1, 1243251, Control_c, 0, 64, 60
1, 1243270, Control_c, 0, 64, 61
1, 1243288, Control_c, 0, 64, 68
1, 1243298, Poly_aftertouch_c, 0, 75, 0
1, 1243307, Control_c, 0, 64, 79
1, 1243325, Note_on_c, 0, 77, 53
1, 1243327, Control_c, 0, 64, 92
1, 1243330, Note_on_c, 0, 60, 0
1, 1243344, Control_c, 0, 64, 105
1, 1243362, Control_c, 0, 64, 113
1, 1243370, Note_on_c, 0, 56, 48
1, 1243382, Note_on_c, 0, 77, 0
1, 1243401, Note_on_c, 0, 75, 29
1, 1243415, Note_on_c, 0, 56, 0
1, 1243416, Control_c, 0, 64, 117
1, 1243445, Note_on_c, 0, 75, 0
1, 1243489, Note_on_c, 0, 77, 39
1, 1243490, Control_c, 0, 64, 123
1, 1243517, Note_on_c, 0, 60, 36
1, 1243527, Control_c, 0, 64, 127
1, 1243529, Note_on_c, 0, 77, 0
1, 1243546, Note_on_c, 0, 75, 33
1, 1243553, Note_on_c, 0, 80, 0
1, 1243568, Note_on_c, 0, 60, 0
1, 1243586, Note_on_c, 0, 75, 0
1, 1243622, Control_c, 0, 64, 116
1, 1243637, Control_c, 0, 64, 93
1, 1243645, Note_on_c, 0, 55, 43
1, 1243657, Control_c, 0, 64, 68
1, 1243676, Control_c, 0, 64, 56
1, 1243677, Note_on_c, 0, 48, 38
1, 1243713, Control_c, 0, 64, 65
1, 1243732, Control_c, 0, 64, 77
1, 1243745, Poly_aftertouch_c, 0, 76, 127
1, 1243749, Note_on_c, 0, 77, 55
1, 1243751, Control_c, 0, 64, 93
1, 1243754, Note_on_c, 0, 55, 0
1, 1243768, Control_c, 0, 64, 108
1, 1243776, Note_on_c, 0, 58, 53
1, 1243785, Note_on_c, 0, 77, 0
1, 1243786, Control_c, 0, 64, 120
1, 1243793, Note_on_c, 0, 76, 33
1, 1243848, Note_on_c, 0, 76, 0
1, 1243848, Poly_aftertouch_c, 0, 76, 0
1, 1243872, Note_on_c, 0, 77, 65
1, 1243898, Control_c, 0, 64, 124
1, 1243904, Note_on_c, 0, 58, 0
1, 1243911, Note_on_c, 0, 55, 52
1, 1243914, Note_on_c, 0, 77, 0
1, 1243929, Note_on_c, 0, 76, 58
1, 1243947, Note_on_c, 0, 55, 0
1, 1243947, Note_on_c, 0, 48, 0
1, 1243966, Note_on_c, 0, 76, 0
1, 1243986, Note_on_c, 0, 77, 62
1, 1244035, Note_on_c, 0, 77, 0
1, 1244049, Note_on_c, 0, 76, 71
1, 1244103, Note_on_c, 0, 76, 0
1, 1244192, Note_on_c, 0, 77, 25
1, 1244201, Note_on_c, 0, 41, 55
1, 1244209, Note_on_c, 0, 76, 56
1, 1244224, Control_c, 0, 64, 107
1, 1244233, Note_on_c, 0, 77, 0
1, 1244243, Control_c, 0, 64, 80
1, 1244261, Control_c, 0, 64, 56
1, 1244280, Control_c, 0, 64, 51
1, 1244284, Note_on_c, 0, 76, 0
1, 1244293, Note_on_c, 0, 77, 65
1, 1244318, Control_c, 0, 64, 62
1, 1244337, Control_c, 0, 64, 75
1, 1244352, Control_c, 0, 64, 88
1, 1244373, Control_c, 0, 64, 99
1, 1244374, Note_on_c, 0, 77, 0
1, 1244390, Control_c, 0, 64, 105
1, 1244401, Note_on_c, 0, 79, 66
1, 1244415, Note_on_c, 0, 48, 46
1, 1244438, Note_on_c, 0, 41, 0
1, 1244450, Note_on_c, 0, 79, 0
1, 1244460, Note_on_c, 0, 77, 57
1, 1244476, Note_on_c, 0, 48, 0
1, 1244485, Note_on_c, 0, 77, 0
1, 1244505, Note_on_c, 0, 79, 60
1, 1244548, Note_on_c, 0, 79, 0
1, 1244564, Note_on_c, 0, 53, 41
1, 1244574, Note_on_c, 0, 77, 63
1, 1244594, Note_on_c, 0, 77, 0
1, 1244653, Note_on_c, 0, 73, 62
1, 1244667, Note_on_c, 0, 53, 0
1, 1244697, Note_on_c, 0, 56, 55
1, 1244706, Note_on_c, 0, 73, 0
1, 1244772, Note_on_c, 0, 84, 78
1, 1244803, Note_on_c, 0, 72, 49
1, 1244832, Note_on_c, 0, 84, 0
1, 1244891, Note_on_c, 0, 56, 0
1, 1244916, Note_on_c, 0, 53, 49
1, 1244923, Note_on_c, 0, 73, 60
1, 1244940, Note_on_c, 0, 72, 0
1, 1244952, Note_on_c, 0, 73, 0
1, 1244979, Note_on_c, 0, 72, 52
1, 1245028, Note_on_c, 0, 72, 0
1, 1245047, Note_on_c, 0, 73, 65
1, 1245064, Note_on_c, 0, 56, 46
1, 1245100, Note_on_c, 0, 73, 0
1, 1245141, Note_on_c, 0, 72, 60
1, 1245170, Note_on_c, 0, 72, 0
1, 1245182, Note_on_c, 0, 84, 87
1, 1245187, Note_on_c, 0, 56, 0
1, 1245215, Note_on_c, 0, 60, 54
1, 1245231, Note_on_c, 0, 84, 0
1, 1245278, Note_on_c, 0, 72, 35
1, 1245315, Note_on_c, 0, 72, 0
1, 1245325, Note_on_c, 0, 60, 0
1, 1245330, Note_on_c, 0, 73, 61
1, 1245347, Note_on_c, 0, 56, 56
1, 1245370, Note_on_c, 0, 73, 0
1, 1245399, Note_on_c, 0, 56, 0
1, 1245401, Note_on_c, 0, 72, 66
1, 1245436, Note_on_c, 0, 53, 0
1, 1245448, Note_on_c, 0, 72, 0
1, 1245451, Note_on_c, 0, 60, 50
1, 1245466, Note_on_c, 0, 73, 65
1, 1245537, Note_on_c, 0, 73, 0
1, 1245550, Note_on_c, 0, 72, 59
1, 1245560, Note_on_c, 0, 56, 54
1, 1245572, Note_on_c, 0, 60, 0
1, 1245614, Note_on_c, 0, 72, 0
1, 1245624, Note_on_c, 0, 73, 59
1, 1245679, Note_on_c, 0, 56, 0
1, 1245717, Note_on_c, 0, 53, 53
1, 1245741, Note_on_c, 0, 72, 25
1, 1245768, Note_on_c, 0, 80, 86
1, 1245785, Control_c, 0, 64, 109
1, 1245836, Note_on_c, 0, 56, 57
1, 1245850, Note_on_c, 0, 72, 0
1, 1245857, Note_on_c, 0, 53, 0
1, 1245878, Control_c, 0, 64, 115
1, 1245913, Note_on_c, 0, 80, 0
1, 1245954, Control_c, 0, 64, 102
1, 1245958, Note_on_c, 0, 56, 0
1, 1245970, Control_c, 0, 64, 82
1, 1245983, Note_on_c, 0, 73, 0
1, 1245984, Note_on_c, 0, 79, 80
1, 1245989, Control_c, 0, 64, 63
1, 1245990, Note_on_c, 0, 58, 53
1, 1246003, Note_on_c, 0, 72, 53
1, 1246006, Control_c, 0, 64, 60
1, 1246026, Control_c, 0, 64, 63
1, 1246058, Control_c, 0, 64, 72
1, 1246059, Note_on_c, 0, 72, 0
1, 1246077, Control_c, 0, 64, 85
1, 1246092, Note_on_c, 0, 58, 0
1, 1246094, Control_c, 0, 64, 104
1, 1246110, Note_on_c, 0, 73, 63
1, 1246113, Control_c, 0, 64, 121
1, 1246127, Note_on_c, 0, 55, 53
1, 1246131, Control_c, 0, 64, 127
1, 1246183, Note_on_c, 0, 72, 56
1, 1246186, Note_on_c, 0, 73, 0
1, 1246188, Note_on_c, 0, 55, 0
1, 1246243, Note_on_c, 0, 72, 0
1, 1246246, Note_on_c, 0, 58, 61
1, 1246380, Note_on_c, 0, 58, 0
1, 1246391, Control_c, 0, 64, 122
1, 1246398, Note_on_c, 0, 55, 55
1, 1246406, Note_on_c, 0, 72, 77
1, 1246409, Control_c, 0, 64, 102
1, 1246429, Control_c, 0, 64, 75
1, 1246445, Control_c, 0, 64, 54
1, 1246459, Note_on_c, 0, 72, 0
1, 1246463, Control_c, 0, 64, 52
1, 1246482, Control_c, 0, 64, 55
1, 1246485, Note_on_c, 0, 73, 57
1, 1246501, Control_c, 0, 64, 69
1, 1246502, Note_on_c, 0, 55, 0
1, 1246517, Control_c, 0, 64, 83
1, 1246533, Note_on_c, 0, 52, 42
1, 1246535, Control_c, 0, 64, 101
1, 1246538, Note_on_c, 0, 73, 0
1, 1246556, Control_c, 0, 64, 117
1, 1246565, Note_on_c, 0, 72, 54
1, 1246574, Control_c, 0, 64, 123
1, 1246606, Note_on_c, 0, 72, 0
1, 1246663, Note_on_c, 0, 73, 51
1, 1246674, Note_on_c, 0, 55, 47
1, 1246698, Note_on_c, 0, 73, 0
1, 1246703, Control_c, 0, 64, 127
1, 1246722, Note_on_c, 0, 72, 51
1, 1246736, Note_on_c, 0, 52, 0
1, 1246764, Note_on_c, 0, 72, 0
1, 1246793, Note_on_c, 0, 55, 0
1, 1246795, Note_on_c, 0, 73, 63
1, 1246813, Control_c, 0, 64, 113
1, 1246814, Note_on_c, 0, 77, 71
1, 1246825, Note_on_c, 0, 56, 51
1, 1246832, Control_c, 0, 64, 90
1, 1246847, Note_on_c, 0, 73, 0
1, 1246848, Note_on_c, 0, 79, 0
1, 1246852, Control_c, 0, 64, 67
1, 1246870, Control_c, 0, 64, 57
1, 1246878, Note_on_c, 0, 72, 47
1, 1246906, Control_c, 0, 64, 65
1, 1246918, Note_on_c, 0, 72, 0
1, 1246922, Control_c, 0, 64, 76
1, 1246936, Note_on_c, 0, 56, 0
1, 1246941, Control_c, 0, 64, 89
1, 1246962, Control_c, 0, 64, 101
1, 1246970, Note_on_c, 0, 73, 51
1, 1246972, Note_on_c, 0, 53, 49
1, 1246994, Control_c, 0, 64, 106
1, 1247032, Note_on_c, 0, 73, 0
1, 1247050, Note_on_c, 0, 72, 47
1, 1247057, Note_on_c, 0, 53, 0
1, 1247100, Note_on_c, 0, 72, 0
1, 1247115, Note_on_c, 0, 56, 45
1, 1247144, Note_on_c, 0, 73, 59
1, 1247185, Note_on_c, 0, 73, 0
1, 1247219, Note_on_c, 0, 56, 0
1, 1247219, Note_on_c, 0, 72, 49
1, 1247225, Note_on_c, 0, 53, 48
1, 1247280, Note_on_c, 0, 72, 0
1, 1247292, Note_on_c, 0, 73, 55
1, 1247331, Note_on_c, 0, 53, 0
1, 1247376, Note_on_c, 0, 48, 51
1, 1247400, Control_c, 0, 64, 110
1, 1247422, Note_on_c, 0, 72, 36
1, 1247423, Note_on_c, 0, 80, 82
1, 1247433, Note_on_c, 0, 73, 0
1, 1247453, Control_c, 0, 64, 114
1, 1247460, Note_on_c, 0, 77, 0
1, 1247492, Control_c, 0, 64, 120
1, 1247508, Note_on_c, 0, 72, 0
1, 1247510, Control_c, 0, 64, 124
1, 1247515, Note_on_c, 0, 53, 44
1, 1247552, Note_on_c, 0, 80, 0
1, 1247603, Control_c, 0, 64, 107
1, 1247608, Note_on_c, 0, 48, 0
1, 1247621, Control_c, 0, 64, 85
1, 1247637, Note_on_c, 0, 79, 81
1, 1247640, Control_c, 0, 64, 65
1, 1247641, Note_on_c, 0, 53, 0
1, 1247657, Control_c, 0, 64, 61
1, 1247658, Note_on_c, 0, 72, 52
1, 1247659, Note_on_c, 0, 58, 54
1, 1247676, Control_c, 0, 64, 63
1, 1247693, Control_c, 0, 64, 71
1, 1247711, Control_c, 0, 64, 81
1, 1247714, Note_on_c, 0, 72, 0
1, 1247731, Control_c, 0, 64, 95
1, 1247748, Note_on_c, 0, 73, 61
1, 1247749, Control_c, 0, 64, 107
1, 1247760, Note_on_c, 0, 58, 0
1, 1247767, Control_c, 0, 64, 114
1, 1247794, Note_on_c, 0, 55, 49
1, 1247815, Note_on_c, 0, 73, 0
1, 1247835, Note_on_c, 0, 72, 57
1, 1247877, Control_c, 0, 64, 119
1, 1247888, Note_on_c, 0, 72, 0
1, 1247891, Note_on_c, 0, 55, 0
1, 1247932, Note_on_c, 0, 58, 50
1, 1247940, Note_on_c, 0, 73, 51
1, 1247948, Control_c, 0, 64, 124
1, 1247988, Note_on_c, 0, 73, 0
1, 1248006, Note_on_c, 0, 58, 0
1, 1248041, Control_c, 0, 64, 118
1, 1248047, Note_on_c, 0, 72, 71
1, 1248061, Control_c, 0, 64, 98
1, 1248070, Note_on_c, 0, 52, 61
1, 1248079, Control_c, 0, 64, 72
1, 1248096, Control_c, 0, 64, 56
1, 1248114, Note_on_c, 0, 72, 0
1, 1248133, Control_c, 0, 64, 58
1, 1248133, Note_on_c, 0, 73, 52
1, 1248152, Control_c, 0, 64, 69
1, 1248169, Control_c, 0, 64, 81
1, 1248183, Note_on_c, 0, 52, 0
1, 1248186, Control_c, 0, 64, 94
1, 1248189, Note_on_c, 0, 73, 0
1, 1248204, Control_c, 0, 64, 104
1, 1248208, Note_on_c, 0, 72, 50
1, 1248224, Note_on_c, 0, 55, 52
1, 1248224, Control_c, 0, 64, 108
1, 1248270, Note_on_c, 0, 72, 0
1, 1248306, Note_on_c, 0, 73, 54
1, 1248316, Control_c, 0, 64, 114
1, 1248317, Note_on_c, 0, 55, 0
1, 1248343, Note_on_c, 0, 73, 0
1, 1248345, Note_on_c, 0, 52, 55
1, 1248354, Control_c, 0, 64, 122
1, 1248382, Note_on_c, 0, 72, 54
1, 1248388, Control_c, 0, 64, 127
1, 1248432, Note_on_c, 0, 72, 0
1, 1248441, Note_on_c, 0, 73, 65
1, 1248446, Control_c, 0, 64, 109
1, 1248462, Control_c, 0, 64, 87
1, 1248465, Note_on_c, 0, 77, 77
1, 1248480, Note_on_c, 0, 52, 0
1, 1248481, Control_c, 0, 64, 65
1, 1248490, Note_on_c, 0, 79, 0
1, 1248500, Control_c, 0, 64, 55
1, 1248507, Note_on_c, 0, 53, 51
1, 1248514, Note_on_c, 0, 73, 0
1, 1248539, Control_c, 0, 64, 62
1, 1248556, Control_c, 0, 64, 74
1, 1248569, Note_on_c, 0, 72, 24
1, 1248574, Control_c, 0, 64, 86
1, 1248593, Control_c, 0, 64, 97
1, 1248606, Note_on_c, 0, 53, 0
1, 1248610, Control_c, 0, 64, 102
1, 1248622, Note_on_c, 0, 72, 0
1, 1248622, Note_on_c, 0, 73, 57
1, 1248623, Note_on_c, 0, 56, 59
1, 1248672, Note_on_c, 0, 73, 0
1, 1248719, Note_on_c, 0, 72, 35
1, 1248722, Control_c, 0, 64, 106
1, 1248739, Note_on_c, 0, 56, 0
1, 1248760, Note_on_c, 0, 72, 0
1, 1248760, Control_c, 0, 64, 111
1, 1248770, Note_on_c, 0, 53, 54
1, 1248796, Control_c, 0, 64, 118
1, 1248813, Control_c, 0, 64, 122
1, 1248813, Note_on_c, 0, 73, 50
1, 1248897, Note_on_c, 0, 72, 43
1, 1248900, Control_c, 0, 64, 102
1, 1248909, Note_on_c, 0, 53, 0
1, 1248916, Note_on_c, 0, 75, 70
1, 1248919, Control_c, 0, 64, 77
1, 1248922, Note_on_c, 0, 73, 0
1, 1248922, Note_on_c, 0, 55, 50
1, 1248926, Note_on_c, 0, 77, 0
1, 1248940, Control_c, 0, 64, 53
1, 1248944, Note_on_c, 0, 72, 0
1, 1248958, Control_c, 0, 64, 48
1, 1248996, Control_c, 0, 64, 59
1, 1249015, Control_c, 0, 64, 74
1, 1249020, Note_on_c, 0, 55, 0
1, 1249032, Control_c, 0, 64, 87
1, 1249049, Control_c, 0, 64, 102
1, 1249064, Note_on_c, 0, 60, 47
1, 1249067, Control_c, 0, 64, 111
1, 1249069, Note_on_c, 0, 73, 58
1, 1249076, Poly_aftertouch_c, 0, 72, 127
1, 1249088, Control_c, 0, 64, 115
1, 1249123, Note_on_c, 0, 73, 0
1, 1249141, Control_c, 0, 64, 119
1, 1249162, Note_on_c, 0, 60, 0
1, 1249179, Control_c, 0, 64, 125
1, 1249193, Note_on_c, 0, 55, 50
1, 1249216, Poly_aftertouch_c, 0, 72, 0
1, 1249257, Note_on_c, 0, 73, 39
1, 1249289, Note_on_c, 0, 75, 0
1, 1249292, Note_on_c, 0, 73, 0
1, 1249317, Note_on_c, 0, 72, 28
1, 1249354, Note_on_c, 0, 55, 0
1, 1249360, Note_on_c, 0, 72, 0
1, 1249503, Poly_aftertouch_c, 0, 73, 0
1, 1249509, Control_c, 0, 64, 121
1, 1249529, Control_c, 0, 64, 87
1, 1249547, Control_c, 0, 64, 48
1, 1249564, Control_c, 0, 64, 32
1, 1249588, Note_on_c, 0, 74, 47
1, 1249597, Note_on_c, 0, 65, 47
1, 1249601, Note_on_c, 0, 56, 44
1, 1249602, Control_c, 0, 64, 44
1, 1249620, Control_c, 0, 64, 70
1, 1249640, Control_c, 0, 64, 93
1, 1249645, Note_on_c, 0, 74, 0
1, 1249655, Note_on_c, 0, 65, 0
1, 1249657, Note_on_c, 0, 56, 0
1, 1249659, Control_c, 0, 64, 123
1, 1249677, Control_c, 0, 64, 127
1, 1249688, Note_on_c, 0, 72, 40
1, 1249723, Note_on_c, 0, 72, 0
1, 1249741, Note_on_c, 0, 74, 57
1, 1249803, Note_on_c, 0, 74, 0
1, 1249836, Control_c, 0, 64, 114
1, 1249840, Note_on_c, 0, 72, 39
1, 1249856, Control_c, 0, 64, 71
1, 1249875, Note_on_c, 0, 72, 0
1, 1249875, Control_c, 0, 64, 0
1, 1249909, Note_on_c, 0, 74, 44
1, 1249940, Note_on_c, 0, 74, 0
1, 1249976, Note_on_c, 0, 72, 38
1, 1250008, Note_on_c, 0, 74, 49
1, 1250015, Note_on_c, 0, 72, 0
1, 1250075, Note_on_c, 0, 74, 0
1, 1250090, Note_on_c, 0, 72, 44
1, 1250119, Note_on_c, 0, 74, 43
1, 1250124, Note_on_c, 0, 72, 0
1, 1250173, Note_on_c, 0, 74, 0
1, 1250182, Note_on_c, 0, 56, 51
1, 1250182, Note_on_c, 0, 65, 50
1, 1250207, Note_on_c, 0, 72, 43
1, 1250216, Note_on_c, 0, 65, 0
1, 1250217, Note_on_c, 0, 56, 0
1, 1250243, Note_on_c, 0, 72, 0
1, 1250255, Note_on_c, 0, 74, 51
1, 1250287, Note_on_c, 0, 74, 0
1, 1250347, Note_on_c, 0, 72, 29
1, 1250370, Note_on_c, 0, 56, 60
1, 1250379, Note_on_c, 0, 65, 56
1, 1250386, Note_on_c, 0, 74, 53
1, 1250392, Control_c, 0, 64, 25
1, 1250395, Note_on_c, 0, 72, 0
1, 1250404, Note_on_c, 0, 56, 0
1, 1250410, Control_c, 0, 64, 45
1, 1250411, Note_on_c, 0, 65, 0
1, 1250413, Note_on_c, 0, 74, 0
1, 1250427, Control_c, 0, 64, 48
1, 1250458, Note_on_c, 0, 72, 44
1, 1250484, Control_c, 0, 64, 50
1, 1250493, Note_on_c, 0, 72, 0
1, 1250500, Note_on_c, 0, 74, 60
1, 1250528, Note_on_c, 0, 74, 0
1, 1250572, Note_on_c, 0, 72, 46
1, 1250612, Control_c, 0, 64, 44
1, 1250613, Note_on_c, 0, 74, 65
1, 1250621, Note_on_c, 0, 72, 0
1, 1250632, Control_c, 0, 64, 38
1, 1250648, Control_c, 0, 64, 31
1, 1250654, Note_on_c, 0, 74, 0
1, 1250668, Control_c, 0, 64, 22
1, 1250685, Note_on_c, 0, 72, 47
1, 1250686, Control_c, 0, 64, 0
1, 1250743, Note_on_c, 0, 74, 67
1, 1250769, Note_on_c, 0, 72, 0
1, 1250792, Note_on_c, 0, 74, 0
1, 1250881, Note_on_c, 0, 74, 57
1, 1250919, Note_on_c, 0, 74, 0
1, 1250937, Note_on_c, 0, 56, 56
1, 1250938, Note_on_c, 0, 65, 53
1, 1250965, Note_on_c, 0, 65, 0
1, 1250975, Note_on_c, 0, 56, 0
1, 1250982, Poly_aftertouch_c, 0, 72, 127
1, 1250998, Poly_aftertouch_c, 0, 72, 0
1, 1251011, Note_on_c, 0, 74, 62
1, 1251048, Note_on_c, 0, 74, 0
1, 1251085, Note_on_c, 0, 72, 47
1, 1251115, Note_on_c, 0, 56, 69
1, 1251120, Note_on_c, 0, 66, 72
1, 1251123, Note_on_c, 0, 74, 74
1, 1251123, Control_c, 0, 64, 34
1, 1251124, Note_on_c, 0, 72, 0
1, 1251143, Control_c, 0, 64, 64
1, 1251145, Note_on_c, 0, 56, 0
1, 1251150, Note_on_c, 0, 66, 0
1, 1251161, Control_c, 0, 64, 68
1, 1251170, Note_on_c, 0, 74, 0
1, 1251196, Control_c, 0, 64, 65
1, 1251217, Control_c, 0, 64, 63
1, 1251220, Note_on_c, 0, 72, 61
1, 1251260, Note_on_c, 0, 72, 0
1, 1251261, Note_on_c, 0, 74, 72
1, 1251271, Control_c, 0, 64, 62
1, 1251290, Control_c, 0, 64, 59
1, 1251305, Note_on_c, 0, 74, 0
1, 1251309, Control_c, 0, 64, 56
1, 1251328, Control_c, 0, 64, 52
1, 1251347, Control_c, 0, 64, 48
1, 1251352, Note_on_c, 0, 72, 56
1, 1251364, Control_c, 0, 64, 46
1, 1251389, Note_on_c, 0, 74, 65
1, 1251391, Note_on_c, 0, 72, 0
1, 1251439, Note_on_c, 0, 74, 0
1, 1251455, Control_c, 0, 64, 44
1, 1251489, Note_on_c, 0, 72, 40
1, 1251518, Note_on_c, 0, 74, 69
1, 1251525, Note_on_c, 0, 72, 0
1, 1251572, Note_on_c, 0, 74, 0
1, 1251584, Control_c, 0, 64, 41
1, 1251604, Control_c, 0, 64, 33
1, 1251621, Note_on_c, 0, 72, 48
1, 1251621, Control_c, 0, 64, 8
1, 1251640, Control_c, 0, 64, 0
1, 1251655, Note_on_c, 0, 72, 0
1, 1251656, Note_on_c, 0, 74, 67
1, 1251716, Note_on_c, 0, 74, 0
1, 1251722, Note_on_c, 0, 56, 69
1, 1251723, Note_on_c, 0, 66, 73
1, 1251745, Note_on_c, 0, 72, 56
1, 1251761, Note_on_c, 0, 66, 0
1, 1251767, Note_on_c, 0, 56, 0
1, 1251785, Note_on_c, 0, 74, 71
1, 1251799, Note_on_c, 0, 72, 0
1, 1251842, Note_on_c, 0, 74, 0
1, 1251876, Note_on_c, 0, 72, 53
1, 1251889, Note_on_c, 0, 66, 88
1, 1251892, Note_on_c, 0, 56, 86
1, 1251911, Control_c, 0, 64, 22
1, 1251915, Note_on_c, 0, 74, 68
1, 1251916, Note_on_c, 0, 66, 0
1, 1251918, Note_on_c, 0, 56, 0
1, 1251929, Note_on_c, 0, 72, 0
1, 1251930, Control_c, 0, 64, 55
1, 1251949, Control_c, 0, 64, 66
1, 1251967, Note_on_c, 0, 74, 0
1, 1251968, Control_c, 0, 64, 65
1, 1251986, Control_c, 0, 64, 62
1, 1252005, Control_c, 0, 64, 58
1, 1252017, Note_on_c, 0, 72, 47
1, 1252025, Control_c, 0, 64, 56
1, 1252044, Control_c, 0, 64, 53
1, 1252047, Note_on_c, 0, 74, 75
1, 1252052, Note_on_c, 0, 72, 0
1, 1252060, Control_c, 0, 64, 46
1, 1252078, Control_c, 0, 64, 35
1, 1252089, Note_on_c, 0, 74, 0
1, 1252097, Control_c, 0, 64, 17
1, 1252116, Control_c, 0, 64, 0
1, 1252148, Note_on_c, 0, 72, 49
1, 1252174, Note_on_c, 0, 74, 75
1, 1252179, Note_on_c, 0, 72, 0
1, 1252224, Note_on_c, 0, 74, 0
1, 1252264, Note_on_c, 0, 72, 59
1, 1252308, Note_on_c, 0, 72, 0
1, 1252308, Note_on_c, 0, 74, 73
1, 1252348, Note_on_c, 0, 74, 0
1, 1252396, Poly_aftertouch_c, 0, 72, 127
1, 1252404, Note_on_c, 0, 74, 70
1, 1252413, Note_on_c, 0, 66, 79
1, 1252416, Note_on_c, 0, 56, 73
1, 1252418, Poly_aftertouch_c, 0, 72, 0
1, 1252448, Note_on_c, 0, 74, 0
1, 1252475, Note_on_c, 0, 56, 0
1, 1252478, Note_on_c, 0, 66, 0
1, 1252521, Note_on_c, 0, 72, 22
1, 1252574, Note_on_c, 0, 72, 0
1, 1252587, Note_on_c, 0, 55, 82
1, 1252592, Note_on_c, 0, 67, 90
1, 1252626, Control_c, 0, 64, 28
1, 1252630, Note_on_c, 0, 72, 59
1, 1252632, Note_on_c, 0, 55, 0
1, 1252637, Note_on_c, 0, 67, 0
1, 1252644, Control_c, 0, 64, 85
1, 1252663, Control_c, 0, 64, 109
1, 1252672, Note_on_c, 0, 72, 0
1, 1252682, Control_c, 0, 64, 113
1, 1252720, Control_c, 0, 64, 107
1, 1252736, Note_on_c, 0, 74, 51
1, 1252774, Note_on_c, 0, 74, 0
1, 1252804, Note_on_c, 0, 76, 52
1, 1252814, Note_on_c, 0, 67, 65
1, 1252821, Note_on_c, 0, 72, 63
1, 1252836, Note_on_c, 0, 76, 0
1, 1252845, Note_on_c, 0, 72, 0
1, 1252850, Note_on_c, 0, 67, 0
1, 1252882, Note_on_c, 0, 74, 60
1, 1252909, Note_on_c, 0, 74, 0
1, 1252930, Note_on_c, 0, 76, 65
1, 1252941, Control_c, 0, 64, 103
1, 1252978, Note_on_c, 0, 72, 55
1, 1252982, Note_on_c, 0, 67, 65
1, 1252986, Note_on_c, 0, 76, 0
1, 1253006, Note_on_c, 0, 74, 64
1, 1253019, Note_on_c, 0, 67, 0
1, 1253019, Note_on_c, 0, 72, 0
1, 1253032, Control_c, 0, 67, 119
1, 1253052, Control_c, 0, 67, 111
1, 1253063, Note_on_c, 0, 74, 0
1, 1253068, Note_on_c, 0, 76, 68
1, 1253068, Control_c, 0, 67, 102
1, 1253087, Control_c, 0, 67, 89
1, 1253105, Control_c, 0, 67, 71
1, 1253125, Note_on_c, 0, 76, 0
1, 1253125, Control_c, 0, 64, 99
1, 1253127, Control_c, 0, 67, 50
1, 1253140, Note_on_c, 0, 72, 79
1, 1253142, Control_c, 0, 67, 27
1, 1253148, Note_on_c, 0, 67, 70
1, 1253155, Note_on_c, 0, 74, 67
1, 1253180, Control_c, 0, 67, 0
1, 1253181, Note_on_c, 0, 72, 0
1, 1253181, Note_on_c, 0, 67, 0
1, 1253200, Note_on_c, 0, 74, 0
1, 1253207, Note_on_c, 0, 76, 69
1, 1253218, Control_c, 0, 64, 95
1, 1253258, Note_on_c, 0, 76, 0
1, 1253288, Note_on_c, 0, 74, 67
1, 1253310, Note_on_c, 0, 72, 89
1, 1253318, Note_on_c, 0, 67, 69
1, 1253347, Note_on_c, 0, 76, 62
1, 1253348, Note_on_c, 0, 74, 0
1, 1253355, Note_on_c, 0, 67, 0
1, 1253363, Note_on_c, 0, 72, 0
1, 1253364, Control_c, 0, 64, 91
1, 1253398, Note_on_c, 0, 76, 0
1, 1253431, Note_on_c, 0, 74, 69
1, 1253475, Note_on_c, 0, 76, 71
1, 1253480, Note_on_c, 0, 74, 0
1, 1253481, Note_on_c, 0, 72, 95
1, 1253486, Note_on_c, 0, 67, 82
1, 1253520, Note_on_c, 0, 67, 0
1, 1253526, Note_on_c, 0, 72, 0
1, 1253540, Note_on_c, 0, 76, 0
1, 1253577, Note_on_c, 0, 74, 71
1, 1253628, Note_on_c, 0, 76, 74
1, 1253632, Note_on_c, 0, 74, 0
1, 1253666, Note_on_c, 0, 72, 93
1, 1253672, Note_on_c, 0, 76, 0
1, 1253673, Note_on_c, 0, 67, 85
1, 1253705, Note_on_c, 0, 67, 0
1, 1253711, Control_c, 0, 64, 96
1, 1253713, Note_on_c, 0, 74, 63
1, 1253716, Note_on_c, 0, 72, 0
1, 1253762, Note_on_c, 0, 76, 76
1, 1253763, Note_on_c, 0, 74, 0
1, 1253766, Control_c, 0, 64, 102
1, 1253802, Control_c, 0, 64, 107
1, 1253805, Note_on_c, 0, 76, 0
1, 1253830, Note_on_c, 0, 72, 97
1, 1253836, Note_on_c, 0, 67, 93
1, 1253838, Note_on_c, 0, 74, 70
1, 1253858, Control_c, 0, 64, 112
1, 1253879, Note_on_c, 0, 76, 67
1, 1253880, Note_on_c, 0, 67, 0
1, 1253885, Note_on_c, 0, 72, 0
1, 1253899, Note_on_c, 0, 74, 0
1, 1253928, Note_on_c, 0, 76, 0
1, 1253931, Control_c, 0, 64, 94
1, 1253951, Control_c, 0, 64, 61
1, 1253968, Control_c, 0, 64, 0
1, 1253981, Poly_aftertouch_c, 0, 74, 127
1, 1254002, Note_on_c, 0, 67, 99
1, 1254002, Note_on_c, 0, 71, 103
1, 1254024, Control_c, 0, 64, 17
1, 1254039, Note_on_c, 0, 76, 83
1, 1254042, Control_c, 0, 64, 44
1, 1254053, Poly_aftertouch_c, 0, 74, 0
1, 1254061, Control_c, 0, 64, 68
1, 1254067, Note_on_c, 0, 71, 0
1, 1254081, Control_c, 0, 64, 83
1, 1254100, Control_c, 0, 64, 94
1, 1254110, Note_on_c, 0, 72, 82
1, 1254114, Note_on_c, 0, 76, 0
1, 1254120, Note_on_c, 0, 74, 62
1, 1254136, Control_c, 0, 64, 98
1, 1254158, Note_on_c, 0, 74, 0
1, 1254177, Note_on_c, 0, 72, 0
1, 1254185, Note_on_c, 0, 71, 80
1, 1254196, Note_on_c, 0, 79, 96
1, 1254204, Note_on_c, 0, 76, 84
1, 1254241, Note_on_c, 0, 71, 0
1, 1254261, Note_on_c, 0, 72, 80
1, 1254269, Note_on_c, 0, 79, 0
1, 1254279, Note_on_c, 0, 76, 0
1, 1254281, Note_on_c, 0, 74, 83
1, 1254327, Note_on_c, 0, 71, 75
1, 1254331, Note_on_c, 0, 72, 0
1, 1254361, Note_on_c, 0, 79, 101
1, 1254370, Note_on_c, 0, 76, 87
1, 1254372, Note_on_c, 0, 74, 0
1, 1254392, Control_c, 0, 64, 102
1, 1254397, Note_on_c, 0, 71, 0
1, 1254409, Note_on_c, 0, 72, 79
1, 1254448, Control_c, 0, 64, 108
1, 1254450, Note_on_c, 0, 79, 0
1, 1254455, Note_on_c, 0, 74, 87
1, 1254458, Note_on_c, 0, 76, 0
1, 1254489, Note_on_c, 0, 71, 74
1, 1254498, Control_c, 0, 64, 112
1, 1254509, Note_on_c, 0, 72, 0
1, 1254529, Note_on_c, 0, 74, 0
1, 1254536, Control_c, 0, 64, 118
1, 1254554, Note_on_c, 0, 71, 0
1, 1254556, Note_on_c, 0, 79, 101
1, 1254564, Note_on_c, 0, 72, 72
1, 1254565, Note_on_c, 0, 76, 88
1, 1254574, Control_c, 0, 64, 125
1, 1254635, Note_on_c, 0, 71, 72
1, 1254638, Note_on_c, 0, 72, 0
1, 1254650, Note_on_c, 0, 74, 94
1, 1254656, Note_on_c, 0, 76, 0
1, 1254656, Note_on_c, 0, 79, 0
1, 1254697, Note_on_c, 0, 71, 0
1, 1254708, Note_on_c, 0, 74, 0
1, 1254713, Note_on_c, 0, 72, 79
1, 1254738, Note_on_c, 0, 79, 101
1, 1254745, Note_on_c, 0, 76, 92
1, 1254771, Note_on_c, 0, 71, 75
1, 1254781, Note_on_c, 0, 72, 0
1, 1254831, Note_on_c, 0, 71, 0
1, 1254835, Note_on_c, 0, 74, 96
1, 1254841, Note_on_c, 0, 76, 0
1, 1254845, Note_on_c, 0, 79, 0
1, 1254845, Note_on_c, 0, 72, 72
1, 1254893, Note_on_c, 0, 74, 0
1, 1254916, Note_on_c, 0, 71, 78
1, 1254918, Note_on_c, 0, 79, 98
1, 1254926, Note_on_c, 0, 76, 91
1, 1254927, Note_on_c, 0, 72, 0
1, 1254972, Note_on_c, 0, 71, 0
1, 1254985, Note_on_c, 0, 72, 75
1, 1255008, Note_on_c, 0, 74, 94
1, 1255016, Note_on_c, 0, 76, 0
1, 1255019, Note_on_c, 0, 79, 0
1, 1255057, Note_on_c, 0, 71, 77
1, 1255061, Note_on_c, 0, 72, 0
1, 1255069, Note_on_c, 0, 74, 0
1, 1255094, Note_on_c, 0, 79, 97
1, 1255100, Note_on_c, 0, 76, 90
1, 1255111, Note_on_c, 0, 71, 0
1, 1255116, Poly_aftertouch_c, 0, 74, 0
1, 1255131, Note_on_c, 0, 72, 72
1, 1255180, Note_on_c, 0, 79, 0
1, 1255187, Note_on_c, 0, 74, 88
1, 1255195, Note_on_c, 0, 76, 0
1, 1255220, Note_on_c, 0, 71, 80
1, 1255259, Note_on_c, 0, 79, 97
1, 1255262, Note_on_c, 0, 72, 0
1, 1255266, Note_on_c, 0, 76, 86
1, 1255278, Note_on_c, 0, 71, 0
1, 1255281, Note_on_c, 0, 67, 0
1, 1255295, Note_on_c, 0, 74, 0
1, 1255314, Note_on_c, 0, 76, 0
1, 1255323, Note_on_c, 0, 79, 0
1, 1255365, Note_on_c, 0, 74, 81
1, 1255443, Note_on_c, 0, 74, 0
1, 1255555, Note_on_c, 0, 36, 96
1, 1255566, Control_c, 0, 64, 79
1, 1255568, Note_on_c, 0, 76, 96
1, 1255571, Note_on_c, 0, 72, 96
1, 1255581, Poly_aftertouch_c, 0, 42, 0
1, 1255584, Control_c, 0, 64, 24
1, 1255598, Note_on_c, 0, 36, 0
1, 1255599, Control_c, 0, 64, 0
1, 1255611, Note_on_c, 0, 72, 0
1, 1255619, Control_c, 0, 64, 28
1, 1255639, Control_c, 0, 64, 66
1, 1255642, Note_on_c, 0, 76, 0
1, 1255657, Control_c, 0, 64, 110
1, 1255674, Control_c, 0, 64, 127
1, 1255796, Note_on_c, 0, 51, 47
1, 1255840, Note_on_c, 0, 51, 0
1, 1255878, Poly_aftertouch_c, 0, 85, 127
1, 1255884, Poly_aftertouch_c, 0, 85, 0
1, 1255894, Note_on_c, 0, 60, 83
1, 1255896, Note_on_c, 0, 55, 75
1, 1255898, Note_on_c, 0, 91, 108
1, 1255901, Note_on_c, 0, 48, 80
1, 1255906, Note_on_c, 0, 52, 69
1, 1255912, Note_on_c, 0, 79, 94
1, 1255925, Note_on_c, 0, 60, 0
1, 1255933, Note_on_c, 0, 55, 0
1, 1255946, Note_on_c, 0, 52, 0
1, 1255960, Note_on_c, 0, 48, 0
1, 1255981, Note_on_c, 0, 79, 0
1, 1256011, Note_on_c, 0, 91, 0
1, 1256134, Note_on_c, 0, 91, 110
1, 1256139, Note_on_c, 0, 55, 86
1, 1256140, Note_on_c, 0, 60, 97
1, 1256142, Note_on_c, 0, 48, 85
1, 1256150, Note_on_c, 0, 52, 85
1, 1256152, Note_on_c, 0, 79, 90
1, 1256301, Note_on_c, 0, 79, 0
1, 1256405, Note_on_c, 0, 60, 0
1, 1256446, Note_on_c, 0, 88, 88
1, 1256449, Note_on_c, 0, 91, 0
1, 1256487, Note_on_c, 0, 52, 0
1, 1256497, Note_on_c, 0, 86, 96
1, 1256512, Note_on_c, 0, 59, 93
1, 1256520, Note_on_c, 0, 53, 75
1, 1256545, Note_on_c, 0, 88, 0
1, 1256686, Note_on_c, 0, 79, 97
1, 1256730, Note_on_c, 0, 86, 0
1, 1256746, Note_on_c, 0, 59, 0
1, 1256823, Note_on_c, 0, 53, 0
1, 1256847, Note_on_c, 0, 84, 102
1, 1256861, Note_on_c, 0, 60, 94
1, 1256878, Note_on_c, 0, 79, 0
1, 1256879, Note_on_c, 0, 52, 78
1, 1256914, Note_on_c, 0, 60, 0
1, 1256930, Note_on_c, 0, 55, 0
1, 1256950, Note_on_c, 0, 52, 0
1, 1256959, Note_on_c, 0, 48, 0
1, 1257012, Note_on_c, 0, 88, 108
1, 1257036, Note_on_c, 0, 84, 0
1, 1257061, Note_on_c, 0, 88, 0
1, 1257128, Control_c, 0, 67, 8
1, 1257164, Control_c, 0, 64, 108
1, 1257183, Control_c, 0, 64, 59
1, 1257185, Control_c, 0, 67, 19
1, 1257200, Control_c, 0, 64, 0
1, 1257201, Control_c, 0, 67, 31
1, 1257201, Note_on_c, 0, 36, 74
1, 1257219, Control_c, 0, 67, 48
1, 1257235, Note_on_c, 0, 36, 0
1, 1257237, Control_c, 0, 64, 13
1, 1257237, Control_c, 0, 67, 66
1, 1257256, Control_c, 0, 64, 43
1, 1257257, Control_c, 0, 67, 80
1, 1257289, Control_c, 0, 64, 58
1, 1257290, Control_c, 0, 67, 95
1, 1257307, Control_c, 0, 64, 62
1, 1257309, Control_c, 0, 67, 108
1, 1257325, Control_c, 0, 64, 61
1, 1257326, Control_c, 0, 67, 119
1, 1257344, Control_c, 0, 67, 125
1, 1257418, Note_on_c, 0, 60, 63
1, 1257418, Note_on_c, 0, 79, 63
1, 1257428, Note_on_c, 0, 48, 49
1, 1257432, Note_on_c, 0, 55, 46
1, 1257445, Note_on_c, 0, 67, 33
1, 1257447, Note_on_c, 0, 60, 0
1, 1257450, Note_on_c, 0, 52, 26
1, 1257462, Note_on_c, 0, 79, 0
1, 1257469, Note_on_c, 0, 55, 0
1, 1257471, Note_on_c, 0, 48, 0
1, 1257487, Note_on_c, 0, 67, 0
1, 1257505, Note_on_c, 0, 52, 0
1, 1257566, Control_c, 0, 64, 62
1, 1257599, Note_on_c, 0, 79, 64
1, 1257601, Control_c, 0, 64, 63
1, 1257611, Note_on_c, 0, 52, 51
1, 1257616, Note_on_c, 0, 55, 34
1, 1257617, Note_on_c, 0, 60, 44
1, 1257618, Control_c, 0, 64, 64
1, 1257619, Note_on_c, 0, 48, 44
1, 1257621, Note_on_c, 0, 67, 38
1, 1257659, Control_c, 0, 64, 66
1, 1257675, Control_c, 0, 64, 67
1, 1257712, Control_c, 0, 64, 69
1, 1257734, Note_on_c, 0, 60, 0
1, 1257767, Control_c, 0, 64, 71
1, 1257785, Control_c, 0, 64, 73
1, 1257805, Control_c, 0, 64, 76
1, 1257822, Control_c, 0, 64, 79
1, 1257842, Control_c, 0, 64, 81
1, 1257844, Note_on_c, 0, 79, 0
1, 1257879, Control_c, 0, 64, 83
1, 1257880, Poly_aftertouch_c, 0, 67, 24
1, 1257880, Note_on_c, 0, 76, 53
1, 1257895, Note_on_c, 0, 52, 0
1, 1257924, Note_on_c, 0, 67, 0
1, 1257924, Poly_aftertouch_c, 0, 67, 0
1, 1257944, Note_on_c, 0, 74, 64
1, 1257953, Note_on_c, 0, 59, 56
1, 1257972, Note_on_c, 0, 53, 47
1, 1258007, Note_on_c, 0, 76, 0
1, 1258062, Control_c, 0, 64, 85
1, 1258073, Note_on_c, 0, 74, 0
1, 1258096, Note_on_c, 0, 59, 0
1, 1258117, Control_c, 0, 67, 113
1, 1258118, Note_on_c, 0, 67, 45
1, 1258135, Control_c, 0, 67, 98
1, 1258155, Control_c, 0, 67, 77
1, 1258173, Control_c, 0, 67, 50
1, 1258191, Control_c, 0, 67, 22
1, 1258199, Note_on_c, 0, 53, 0
1, 1258225, Control_c, 0, 64, 87
1, 1258226, Control_c, 0, 67, 0
1, 1258282, Note_on_c, 0, 67, 0
1, 1258287, Note_on_c, 0, 60, 56
1, 1258304, Note_on_c, 0, 52, 46
1, 1258307, Note_on_c, 0, 72, 54
1, 1258334, Note_on_c, 0, 60, 0
1, 1258365, Note_on_c, 0, 55, 0
1, 1258369, Note_on_c, 0, 52, 0
1, 1258373, Control_c, 0, 64, 92
1, 1258380, Note_on_c, 0, 48, 0
1, 1258408, Control_c, 0, 64, 96
1, 1258428, Control_c, 0, 64, 101
1, 1258446, Control_c, 0, 64, 108
1, 1258460, Note_on_c, 0, 76, 69
1, 1258463, Note_on_c, 0, 72, 0
1, 1258463, Control_c, 0, 64, 115
1, 1258481, Control_c, 0, 64, 121
1, 1258491, Note_on_c, 0, 76, 0
1, 1258500, Control_c, 0, 64, 126
1, 1258611, Control_c, 0, 64, 116
1, 1258629, Control_c, 0, 64, 88
1, 1258647, Note_on_c, 0, 36, 91
1, 1258649, Control_c, 0, 64, 64
1, 1258667, Control_c, 0, 64, 62
1, 1258686, Control_c, 0, 64, 69
1, 1258696, Note_on_c, 0, 36, 0
1, 1258701, Control_c, 0, 64, 82
1, 1258722, Control_c, 0, 64, 103
1, 1258739, Control_c, 0, 64, 127
1, 1258837, Note_on_c, 0, 91, 102
1, 1258842, Note_on_c, 0, 52, 88
1, 1258843, Note_on_c, 0, 60, 92
1, 1258845, Note_on_c, 0, 48, 81
1, 1258853, Note_on_c, 0, 55, 73
1, 1258866, Note_on_c, 0, 60, 0
1, 1258876, Note_on_c, 0, 52, 0
1, 1258879, Note_on_c, 0, 48, 0
1, 1258881, Note_on_c, 0, 55, 0
1, 1258921, Note_on_c, 0, 91, 0
1, 1258933, Note_on_c, 0, 90, 98
1, 1258992, Note_on_c, 0, 60, 92
1, 1258996, Note_on_c, 0, 52, 95
1, 1258998, Note_on_c, 0, 55, 85
1, 1259000, Note_on_c, 0, 48, 81
1, 1259013, Note_on_c, 0, 91, 101
1, 1259016, Control_c, 0, 64, 105
1, 1259029, Note_on_c, 0, 90, 0
1, 1259034, Control_c, 0, 64, 73
1, 1259054, Control_c, 0, 64, 62
1, 1259071, Control_c, 0, 64, 71
1, 1259090, Control_c, 0, 64, 86
1, 1259105, Note_on_c, 0, 90, 98
1, 1259107, Control_c, 0, 64, 112
1, 1259117, Note_on_c, 0, 91, 0
1, 1259125, Control_c, 0, 64, 127
1, 1259182, Note_on_c, 0, 60, 0
1, 1259189, Note_on_c, 0, 91, 90
1, 1259200, Note_on_c, 0, 90, 0
1, 1259261, Note_on_c, 0, 91, 0
1, 1259281, Note_on_c, 0, 88, 89
1, 1259296, Note_on_c, 0, 52, 0
1, 1259324, Note_on_c, 0, 88, 0
1, 1259350, Note_on_c, 0, 59, 97
1, 1259356, Note_on_c, 0, 53, 78
1, 1259361, Control_c, 0, 64, 100
1, 1259363, Note_on_c, 0, 86, 98
1, 1259382, Control_c, 0, 64, 65
1, 1259391, Note_on_c, 0, 88, 46
1, 1259398, Control_c, 0, 64, 47
1, 1259418, Control_c, 0, 64, 52
1, 1259423, Note_on_c, 0, 88, 0
1, 1259433, Note_on_c, 0, 86, 0
1, 1259435, Control_c, 0, 64, 68
1, 1259449, Note_on_c, 0, 85, 97
1, 1259455, Control_c, 0, 64, 89
1, 1259472, Control_c, 0, 64, 118
1, 1259489, Control_c, 0, 64, 127
1, 1259530, Note_on_c, 0, 86, 87
1, 1259532, Note_on_c, 0, 85, 0
1, 1259536, Note_on_c, 0, 59, 0
1, 1259588, Note_on_c, 0, 86, 0
1, 1259606, Note_on_c, 0, 79, 89
1, 1259654, Note_on_c, 0, 79, 0
1, 1259656, Note_on_c, 0, 53, 0
1, 1259656, Control_c, 0, 64, 110
1, 1259675, Control_c, 0, 64, 83
1, 1259690, Note_on_c, 0, 60, 90
1, 1259694, Control_c, 0, 64, 68
1, 1259699, Note_on_c, 0, 52, 80
1, 1259700, Note_on_c, 0, 84, 98
1, 1259713, Control_c, 0, 64, 70
1, 1259732, Control_c, 0, 64, 80
1, 1259740, Note_on_c, 0, 60, 0
1, 1259747, Note_on_c, 0, 55, 0
1, 1259750, Control_c, 0, 64, 100
1, 1259768, Control_c, 0, 64, 126
1, 1259773, Note_on_c, 0, 52, 0
1, 1259776, Note_on_c, 0, 83, 85
1, 1259781, Note_on_c, 0, 84, 0
1, 1259785, Note_on_c, 0, 48, 0
1, 1259785, Control_c, 0, 67, 8
1, 1259857, Note_on_c, 0, 84, 95
1, 1259884, Note_on_c, 0, 83, 0
1, 1259926, Note_on_c, 0, 88, 102
1, 1259943, Note_on_c, 0, 84, 0
1, 1259949, Note_on_c, 0, 86, 36
1, 1259971, Control_c, 0, 64, 113
1, 1259972, Note_on_c, 0, 88, 0
1, 1259990, Control_c, 0, 64, 55
1, 1259992, Note_on_c, 0, 86, 0
1, 1260008, Control_c, 0, 64, 0
1, 1260019, Note_on_c, 0, 36, 83
1, 1260045, Control_c, 0, 67, 13
1, 1260059, Note_on_c, 0, 36, 0
1, 1260062, Control_c, 0, 64, 37
1, 1260063, Control_c, 0, 67, 17
1, 1260081, Control_c, 0, 64, 71
1, 1260083, Control_c, 0, 67, 25
1, 1260114, Control_c, 0, 64, 88
1, 1260117, Control_c, 0, 67, 34
1, 1260132, Control_c, 0, 64, 95
1, 1260133, Control_c, 0, 67, 41
1, 1260150, Control_c, 0, 67, 45
1, 1260170, Control_c, 0, 64, 91
1, 1260172, Control_c, 0, 67, 49
1, 1260189, Control_c, 0, 67, 55
1, 1260206, Control_c, 0, 67, 63
1, 1260227, Control_c, 0, 67, 72
1, 1260242, Note_on_c, 0, 60, 62
1, 1260243, Control_c, 0, 67, 78
1, 1260246, Note_on_c, 0, 55, 58
1, 1260255, Note_on_c, 0, 48, 51
1, 1260256, Note_on_c, 0, 52, 51
1, 1260265, Note_on_c, 0, 79, 70
1, 1260269, Note_on_c, 0, 60, 0
1, 1260279, Control_c, 0, 67, 82
1, 1260287, Note_on_c, 0, 55, 0
1, 1260292, Note_on_c, 0, 48, 0
1, 1260293, Note_on_c, 0, 52, 0
1, 1260317, Control_c, 0, 67, 89
1, 1260323, Note_on_c, 0, 79, 0
1, 1260335, Control_c, 0, 67, 94
1, 1260352, Control_c, 0, 67, 101
1, 1260352, Note_on_c, 0, 78, 74
1, 1260371, Control_c, 0, 67, 107
1, 1260391, Control_c, 0, 67, 112
1, 1260404, Note_on_c, 0, 78, 0
1, 1260407, Control_c, 0, 67, 117
1, 1260416, Note_on_c, 0, 60, 59
1, 1260425, Control_c, 0, 67, 122
1, 1260425, Note_on_c, 0, 52, 51
1, 1260426, Note_on_c, 0, 55, 51
1, 1260431, Note_on_c, 0, 48, 53
1, 1260444, Control_c, 0, 67, 127
1, 1260446, Note_on_c, 0, 79, 65
1, 1260463, Control_c, 0, 64, 88
1, 1260490, Note_on_c, 0, 79, 0
1, 1260500, Control_c, 0, 64, 84
1, 1260510, Note_on_c, 0, 60, 0
1, 1260517, Control_c, 0, 64, 80
1, 1260518, Note_on_c, 0, 78, 73
1, 1260541, Control_c, 0, 64, 78
1, 1260568, Note_on_c, 0, 78, 0
1, 1260590, Note_on_c, 0, 79, 71
1, 1260630, Control_c, 0, 64, 76
1, 1260647, Note_on_c, 0, 79, 0
1, 1260654, Note_on_c, 0, 52, 0
1, 1260674, Note_on_c, 0, 76, 64
1, 1260710, Note_on_c, 0, 76, 0
1, 1260722, Control_c, 0, 64, 74
1, 1260756, Note_on_c, 0, 59, 65
1, 1260765, Note_on_c, 0, 74, 74
1, 1260774, Note_on_c, 0, 53, 58
1, 1260826, Note_on_c, 0, 74, 0
1, 1260840, Note_on_c, 0, 73, 74
1, 1260849, Control_c, 0, 64, 72
1, 1260887, Note_on_c, 0, 59, 0
1, 1260904, Note_on_c, 0, 74, 74
1, 1260905, Note_on_c, 0, 73, 0
1, 1260965, Note_on_c, 0, 74, 0
1, 1260998, Control_c, 0, 64, 70
1, 1261010, Note_on_c, 0, 67, 72
1, 1261083, Note_on_c, 0, 67, 0
1, 1261087, Note_on_c, 0, 60, 70
1, 1261097, Note_on_c, 0, 52, 60
1, 1261098, Note_on_c, 0, 72, 71
1, 1261119, Note_on_c, 0, 48, 0
1, 1261119, Note_on_c, 0, 60, 0
1, 1261125, Note_on_c, 0, 55, 0
1, 1261126, Poly_aftertouch_c, 0, 55, 0
1, 1261130, Note_on_c, 0, 52, 0
1, 1261131, Note_on_c, 0, 53, 0
1, 1261155, Note_on_c, 0, 72, 0
1, 1261180, Note_on_c, 0, 71, 75
1, 1261254, Note_on_c, 0, 71, 0
1, 1261262, Note_on_c, 0, 72, 70
1, 1261288, Control_c, 0, 64, 73
1, 1261306, Control_c, 0, 64, 75
1, 1261326, Control_c, 0, 64, 79
1, 1261328, Note_on_c, 0, 72, 0
1, 1261340, Note_on_c, 0, 76, 74
1, 1261343, Control_c, 0, 64, 82
1, 1261364, Note_on_c, 0, 76, 0
1, 1261380, Control_c, 0, 64, 79
1, 1261398, Control_c, 0, 64, 63
1, 1261417, Control_c, 0, 64, 19
1, 1261421, Note_on_c, 0, 48, 77
1, 1261422, Note_on_c, 0, 53, 82
1, 1261425, Note_on_c, 0, 62, 70
1, 1261435, Control_c, 0, 64, 0
1, 1261453, Note_on_c, 0, 53, 0
1, 1261459, Note_on_c, 0, 62, 0
1, 1261459, Note_on_c, 0, 48, 0
1, 1261503, Note_on_c, 0, 61, 69
1, 1261577, Note_on_c, 0, 53, 55
1, 1261579, Note_on_c, 0, 62, 63
1, 1261580, Note_on_c, 0, 61, 0
1, 1261581, Note_on_c, 0, 48, 46
1, 1261609, Note_on_c, 0, 53, 0
1, 1261619, Note_on_c, 0, 48, 0
1, 1261637, Note_on_c, 0, 62, 0
1, 1261683, Note_on_c, 0, 55, 63
1, 1261737, Note_on_c, 0, 55, 0
1, 1261744, Note_on_c, 0, 48, 54
1, 1261753, Note_on_c, 0, 52, 59
1, 1261770, Note_on_c, 0, 60, 61
1, 1261782, Note_on_c, 0, 48, 0
1, 1261786, Note_on_c, 0, 52, 0
1, 1261824, Note_on_c, 0, 60, 0
1, 1261853, Note_on_c, 0, 59, 58
1, 1261902, Note_on_c, 0, 59, 0
1, 1261917, Note_on_c, 0, 52, 51
1, 1261918, Note_on_c, 0, 48, 47
1, 1261918, Note_on_c, 0, 60, 63
1, 1261954, Note_on_c, 0, 52, 0
1, 1261969, Note_on_c, 0, 48, 0
1, 1261989, Note_on_c, 0, 60, 0
1, 1262026, Note_on_c, 0, 64, 58
1, 1262097, Note_on_c, 0, 64, 0
1, 1262099, Note_on_c, 0, 53, 88
1, 1262102, Note_on_c, 0, 62, 74
1, 1262103, Note_on_c, 0, 48, 69
1, 1262125, Note_on_c, 0, 53, 0
1, 1262139, Note_on_c, 0, 48, 0
1, 1262168, Note_on_c, 0, 62, 0
1, 1262190, Note_on_c, 0, 61, 66
1, 1262249, Note_on_c, 0, 61, 0
1, 1262255, Note_on_c, 0, 62, 61
1, 1262256, Note_on_c, 0, 53, 57
1, 1262258, Note_on_c, 0, 48, 53
1, 1262285, Note_on_c, 0, 53, 0
1, 1262287, Note_on_c, 0, 48, 0
1, 1262303, Note_on_c, 0, 62, 0
1, 1262357, Note_on_c, 0, 55, 52
1, 1262407, Note_on_c, 0, 55, 0
1, 1262414, Note_on_c, 0, 48, 60
1, 1262423, Note_on_c, 0, 52, 64
1, 1262441, Note_on_c, 0, 60, 55
1, 1262452, Note_on_c, 0, 48, 0
1, 1262458, Note_on_c, 0, 52, 0
1, 1262490, Note_on_c, 0, 60, 0
1, 1262508, Note_on_c, 0, 59, 62
1, 1262562, Note_on_c, 0, 59, 0
1, 1262576, Note_on_c, 0, 52, 55
1, 1262579, Note_on_c, 0, 48, 52
1, 1262590, Note_on_c, 0, 60, 62
1, 1262612, Note_on_c, 0, 52, 0
1, 1262614, Note_on_c, 0, 48, 0
1, 1262635, Note_on_c, 0, 60, 0
1, 1262676, Note_on_c, 0, 64, 56
1, 1262741, Note_on_c, 0, 64, 0
1, 1262752, Note_on_c, 0, 53, 68
1, 1262752, Note_on_c, 0, 62, 60
1, 1262780, Note_on_c, 0, 48, 11
1, 1262786, Note_on_c, 0, 53, 0
1, 1262810, Note_on_c, 0, 62, 0
1, 1262832, Note_on_c, 0, 61, 64
1, 1262853, Note_on_c, 0, 48, 0
1, 1262908, Note_on_c, 0, 61, 0
1, 1262917, Note_on_c, 0, 62, 54
1, 1262918, Note_on_c, 0, 53, 54
1, 1262935, Note_on_c, 0, 55, 57
1, 1262943, Note_on_c, 0, 48, 34
1, 1262955, Note_on_c, 0, 53, 0
1, 1262965, Note_on_c, 0, 62, 0
1, 1262967, Note_on_c, 0, 55, 0
1, 1262990, Note_on_c, 0, 48, 0
1, 1263005, Note_on_c, 0, 59, 62
1, 1263060, Note_on_c, 0, 59, 0
1, 1263086, Note_on_c, 0, 48, 65
1, 1263090, Note_on_c, 0, 53, 60
1, 1263093, Note_on_c, 0, 55, 52
1, 1263093, Note_on_c, 0, 65, 60
1, 1263126, Note_on_c, 0, 48, 0
1, 1263126, Note_on_c, 0, 53, 0
1, 1263126, Note_on_c, 0, 55, 0
1, 1263151, Poly_aftertouch_c, 0, 59, 0
1, 1263155, Note_on_c, 0, 65, 0
1, 1263171, Note_on_c, 0, 64, 67
1, 1263177, Control_c, 0, 67, 123
1, 1263196, Control_c, 0, 67, 113
1, 1263215, Control_c, 0, 67, 102
1, 1263232, Control_c, 0, 67, 91
1, 1263243, Note_on_c, 0, 64, 0
1, 1263248, Note_on_c, 0, 59, 68
1, 1263250, Control_c, 0, 67, 79
1, 1263254, Note_on_c, 0, 53, 53
1, 1263255, Note_on_c, 0, 65, 63
1, 1263257, Note_on_c, 0, 48, 49
1, 1263260, Note_on_c, 0, 55, 52
1, 1263273, Control_c, 0, 67, 66
1, 1263283, Note_on_c, 0, 59, 0
1, 1263289, Control_c, 0, 67, 52
1, 1263290, Note_on_c, 0, 53, 0
1, 1263292, Note_on_c, 0, 55, 0
1, 1263295, Note_on_c, 0, 48, 0
1, 1263297, Note_on_c, 0, 65, 0
1, 1263307, Control_c, 0, 67, 35
1, 1263324, Control_c, 0, 67, 14
1, 1263332, Note_on_c, 0, 62, 63
1, 1263345, Control_c, 0, 67, 0
1, 1263379, Note_on_c, 0, 62, 0
1, 1263410, Note_on_c, 0, 59, 70
1, 1263417, Note_on_c, 0, 55, 57
1, 1263418, Note_on_c, 0, 48, 59
1, 1263419, Note_on_c, 0, 53, 62
1, 1263421, Note_on_c, 0, 71, 68
1, 1263442, Note_on_c, 0, 59, 0
1, 1263452, Note_on_c, 0, 55, 0
1, 1263452, Note_on_c, 0, 53, 0
1, 1263454, Note_on_c, 0, 48, 0
1, 1263473, Note_on_c, 0, 71, 0
1, 1263491, Note_on_c, 0, 70, 75
1, 1263565, Note_on_c, 0, 71, 74
1, 1263567, Note_on_c, 0, 70, 0
1, 1263568, Note_on_c, 0, 59, 75
1, 1263574, Note_on_c, 0, 53, 64
1, 1263576, Note_on_c, 0, 48, 67
1, 1263578, Note_on_c, 0, 55, 64
1, 1263601, Note_on_c, 0, 59, 0
1, 1263608, Note_on_c, 0, 55, 0
1, 1263610, Note_on_c, 0, 53, 0
1, 1263613, Note_on_c, 0, 48, 0
1, 1263622, Note_on_c, 0, 71, 0
1, 1263648, Note_on_c, 0, 65, 78
1, 1263713, Note_on_c, 0, 65, 0
1, 1263730, Note_on_c, 0, 74, 89
1, 1263732, Note_on_c, 0, 55, 78
1, 1263733, Note_on_c, 0, 59, 87
1, 1263735, Note_on_c, 0, 53, 75
1, 1263735, Note_on_c, 0, 48, 71
1, 1263758, Note_on_c, 0, 59, 0
1, 1263768, Note_on_c, 0, 55, 0
1, 1263772, Note_on_c, 0, 48, 0
1, 1263773, Note_on_c, 0, 53, 0
1, 1263776, Note_on_c, 0, 50, 32
1, 1263803, Note_on_c, 0, 74, 0
1, 1263807, Note_on_c, 0, 73, 83
1, 1263839, Note_on_c, 0, 50, 0
1, 1263895, Note_on_c, 0, 74, 86
1, 1263902, Note_on_c, 0, 48, 76
1, 1263903, Note_on_c, 0, 59, 89
1, 1263905, Note_on_c, 0, 53, 80
1, 1263906, Note_on_c, 0, 73, 0
1, 1263906, Note_on_c, 0, 55, 74
1, 1263927, Note_on_c, 0, 50, 63
1, 1263935, Note_on_c, 0, 59, 0
1, 1263942, Note_on_c, 0, 55, 0
1, 1263944, Note_on_c, 0, 53, 0
1, 1263949, Note_on_c, 0, 48, 0
1, 1263961, Note_on_c, 0, 74, 0
1, 1263963, Note_on_c, 0, 50, 0
1, 1263983, Note_on_c, 0, 71, 88
1, 1264055, Note_on_c, 0, 71, 0
1, 1264060, Note_on_c, 0, 59, 95
1, 1264061, Note_on_c, 0, 77, 94
1, 1264061, Note_on_c, 0, 55, 71
1, 1264061, Note_on_c, 0, 48, 86
1, 1264062, Note_on_c, 0, 53, 86
1, 1264082, Note_on_c, 0, 50, 61
1, 1264090, Note_on_c, 0, 59, 0
1, 1264101, Note_on_c, 0, 53, 0
1, 1264101, Note_on_c, 0, 55, 0
1, 1264105, Note_on_c, 0, 48, 0
1, 1264111, Note_on_c, 0, 50, 0
1, 1264139, Note_on_c, 0, 76, 85
1, 1264141, Note_on_c, 0, 77, 0
1, 1264218, Note_on_c, 0, 77, 90
1, 1264219, Note_on_c, 0, 59, 95
1, 1264219, Note_on_c, 0, 55, 80
1, 1264219, Note_on_c, 0, 48, 89
1, 1264221, Note_on_c, 0, 53, 84
1, 1264230, Note_on_c, 0, 50, 61
1, 1264231, Note_on_c, 0, 76, 0
1, 1264245, Note_on_c, 0, 59, 0
1, 1264254, Note_on_c, 0, 55, 0
1, 1264256, Note_on_c, 0, 53, 0
1, 1264262, Note_on_c, 0, 48, 0
1, 1264264, Note_on_c, 0, 50, 0
1, 1264285, Note_on_c, 0, 77, 0
1, 1264297, Note_on_c, 0, 74, 91
1, 1264378, Note_on_c, 0, 59, 97
1, 1264378, Note_on_c, 0, 48, 92
1, 1264381, Note_on_c, 0, 53, 86
1, 1264381, Note_on_c, 0, 55, 86
1, 1264383, Note_on_c, 0, 83, 97
1, 1264387, Note_on_c, 0, 50, 64
1, 1264402, Note_on_c, 0, 74, 0
1, 1264411, Note_on_c, 0, 59, 0
1, 1264413, Note_on_c, 0, 55, 0
1, 1264416, Note_on_c, 0, 53, 0
1, 1264419, Note_on_c, 0, 50, 0
1, 1264424, Note_on_c, 0, 48, 0
1, 1264468, Note_on_c, 0, 82, 90
1, 1264473, Note_on_c, 0, 83, 0
1, 1264536, Note_on_c, 0, 59, 96
1, 1264537, Note_on_c, 0, 48, 89
1, 1264540, Note_on_c, 0, 53, 85
1, 1264541, Note_on_c, 0, 55, 84
1, 1264544, Note_on_c, 0, 83, 87
1, 1264549, Note_on_c, 0, 50, 61
1, 1264563, Note_on_c, 0, 82, 0
1, 1264571, Note_on_c, 0, 59, 0
1, 1264573, Note_on_c, 0, 55, 0
1, 1264580, Note_on_c, 0, 53, 0
1, 1264582, Note_on_c, 0, 50, 0
1, 1264582, Note_on_c, 0, 48, 0
1, 1264625, Note_on_c, 0, 83, 0
1, 1264627, Note_on_c, 0, 77, 89
1, 1264705, Note_on_c, 0, 59, 98
1, 1264705, Note_on_c, 0, 86, 99
1, 1264707, Note_on_c, 0, 48, 89
1, 1264708, Note_on_c, 0, 53, 86
1, 1264709, Note_on_c, 0, 55, 86
1, 1264717, Note_on_c, 0, 50, 64
1, 1264721, Note_on_c, 0, 77, 0
1, 1264741, Note_on_c, 0, 55, 0
1, 1264744, Note_on_c, 0, 59, 0
1, 1264749, Note_on_c, 0, 53, 0
1, 1264751, Note_on_c, 0, 50, 0
1, 1264753, Note_on_c, 0, 48, 0
1, 1264812, Control_c, 0, 64, 10
1, 1264813, Note_on_c, 0, 85, 93
1, 1264826, Note_on_c, 0, 86, 0
1, 1264829, Control_c, 0, 64, 16
1, 1264866, Control_c, 0, 64, 21
1, 1264883, Note_on_c, 0, 59, 93
1, 1264885, Note_on_c, 0, 86, 87
1, 1264885, Note_on_c, 0, 53, 85
1, 1264886, Note_on_c, 0, 55, 86
1, 1264886, Note_on_c, 0, 48, 83
1, 1264893, Note_on_c, 0, 50, 60
1, 1264910, Control_c, 0, 64, 25
1, 1264918, Note_on_c, 0, 59, 0
1, 1264919, Note_on_c, 0, 85, 0
1, 1264924, Note_on_c, 0, 55, 0
1, 1264928, Note_on_c, 0, 53, 0
1, 1264928, Note_on_c, 0, 48, 0
1, 1264934, Note_on_c, 0, 50, 0
1, 1264942, Control_c, 0, 64, 32
1, 1264969, Note_on_c, 0, 83, 91
1, 1264979, Note_on_c, 0, 86, 0
1, 1265014, Control_c, 0, 64, 36
1, 1265041, Note_on_c, 0, 59, 93
1, 1265044, Note_on_c, 0, 48, 83
1, 1265044, Note_on_c, 0, 55, 81
1, 1265046, Note_on_c, 0, 53, 83
1, 1265049, Control_c, 0, 64, 42
1, 1265050, Note_on_c, 0, 89, 102
1, 1265054, Note_on_c, 0, 50, 61
1, 1265071, Control_c, 0, 64, 46
1, 1265073, Note_on_c, 0, 83, 0
1, 1265075, Note_on_c, 0, 59, 0
1, 1265079, Note_on_c, 0, 55, 0
1, 1265082, Note_on_c, 0, 53, 0
1, 1265086, Note_on_c, 0, 48, 0
1, 1265088, Note_on_c, 0, 50, 0
1, 1265142, Note_on_c, 0, 88, 92
1, 1265144, Control_c, 0, 64, 49
1, 1265164, Control_c, 0, 64, 51
1, 1265165, Note_on_c, 0, 89, 0
1, 1265204, Note_on_c, 0, 59, 86
1, 1265206, Note_on_c, 0, 55, 74
1, 1265210, Note_on_c, 0, 53, 75
1, 1265212, Note_on_c, 0, 50, 61
1, 1265215, Note_on_c, 0, 89, 88
1, 1265217, Note_on_c, 0, 48, 71
1, 1265218, Control_c, 0, 64, 53
1, 1265237, Note_on_c, 0, 59, 0
1, 1265239, Note_on_c, 0, 53, 0
1, 1265239, Note_on_c, 0, 55, 0
1, 1265247, Note_on_c, 0, 88, 0
1, 1265250, Note_on_c, 0, 50, 0
1, 1265252, Note_on_c, 0, 48, 0
1, 1265272, Control_c, 0, 64, 56
1, 1265291, Control_c, 0, 64, 59
1, 1265305, Note_on_c, 0, 89, 0
1, 1265306, Note_on_c, 0, 83, 91
1, 1265328, Control_c, 0, 64, 48
1, 1265346, Control_c, 0, 64, 0
1, 1265367, Note_on_c, 0, 83, 0
1, 1265427, Note_on_c, 0, 36, 89
1, 1265427, Note_on_c, 0, 48, 74
1, 1265428, Note_on_c, 0, 84, 106
1, 1265471, Note_on_c, 0, 84, 0
1, 1265472, Control_c, 0, 64, 98
1, 1265478, Note_on_c, 0, 36, 0
1, 1265479, Note_on_c, 0, 48, 0
1, 1265493, Control_c, 0, 64, 127
1, 1265728, Note_on_c, 0, 67, 91
1, 1265735, Note_on_c, 0, 64, 86
1, 1265737, Note_on_c, 0, 55, 72
1, 1265739, Note_on_c, 0, 52, 67
1, 1265790, Note_on_c, 0, 55, 0
1, 1265799, Note_on_c, 0, 64, 0
1, 1265812, Note_on_c, 0, 52, 0
1, 1265833, Note_on_c, 0, 67, 0
1, 1265902, Note_on_c, 0, 52, 65
1, 1265905, Note_on_c, 0, 48, 73
1, 1265925, Note_on_c, 0, 64, 82
1, 1265931, Note_on_c, 0, 60, 74
1, 1265964, Note_on_c, 0, 60, 0
1, 1265984, Note_on_c, 0, 64, 0
1, 1266061, Note_on_c, 0, 60, 71
1, 1266062, Note_on_c, 0, 55, 72
1, 1266081, Note_on_c, 0, 72, 92
1, 1266084, Note_on_c, 0, 48, 0
1, 1266086, Note_on_c, 0, 67, 92
1, 1266087, Note_on_c, 0, 52, 0
1, 1266097, Note_on_c, 0, 55, 0
1, 1266108, Note_on_c, 0, 60, 0
1, 1266137, Note_on_c, 0, 67, 0
1, 1266163, Note_on_c, 0, 72, 0
1, 1266234, Note_on_c, 0, 52, 73
1, 1266241, Note_on_c, 0, 55, 78
1, 1266257, Note_on_c, 0, 67, 92
1, 1266260, Note_on_c, 0, 64, 89
1, 1266316, Note_on_c, 0, 67, 0
1, 1266318, Note_on_c, 0, 64, 0
1, 1266325, Note_on_c, 0, 52, 0
1, 1266377, Poly_aftertouch_c, 0, 52, 0
1, 1266405, Note_on_c, 0, 60, 83
1, 1266415, Note_on_c, 0, 76, 91
1, 1266417, Note_on_c, 0, 72, 89
1, 1266418, Note_on_c, 0, 64, 74
1, 1266434, Note_on_c, 0, 55, 0
1, 1266444, Note_on_c, 0, 60, 0
1, 1266446, Note_on_c, 0, 64, 0
1, 1266474, Note_on_c, 0, 72, 0
1, 1266490, Note_on_c, 0, 76, 0
1, 1266571, Note_on_c, 0, 55, 81
1, 1266579, Note_on_c, 0, 72, 99
1, 1266584, Note_on_c, 0, 60, 80
1, 1266588, Note_on_c, 0, 67, 88
1, 1266627, Note_on_c, 0, 67, 0
1, 1266674, Note_on_c, 0, 72, 0
1, 1266699, Note_on_c, 0, 60, 0
1, 1266741, Note_on_c, 0, 55, 0
1, 1266746, Note_on_c, 0, 64, 85
1, 1266750, Note_on_c, 0, 79, 92
1, 1266755, Note_on_c, 0, 76, 88
1, 1266758, Note_on_c, 0, 67, 76
1, 1266784, Note_on_c, 0, 64, 0
1, 1266788, Note_on_c, 0, 67, 0
1, 1266802, Note_on_c, 0, 76, 0
1, 1266816, Note_on_c, 0, 79, 0
1, 1266916, Note_on_c, 0, 76, 99
1, 1266919, Note_on_c, 0, 60, 72
1, 1266921, Note_on_c, 0, 72, 90
1, 1266924, Note_on_c, 0, 64, 76
1, 1266962, Note_on_c, 0, 72, 0
1, 1266979, Note_on_c, 0, 76, 0
1, 1267078, Note_on_c, 0, 67, 85
1, 1267085, Note_on_c, 0, 84, 95
1, 1267085, Note_on_c, 0, 79, 97
1, 1267085, Note_on_c, 0, 72, 81
1, 1267120, Note_on_c, 0, 67, 0
1, 1267122, Note_on_c, 0, 60, 0
1, 1267125, Note_on_c, 0, 72, 0
1, 1267129, Note_on_c, 0, 64, 0
1, 1267130, Note_on_c, 0, 79, 0
1, 1267143, Note_on_c, 0, 84, 0
1, 1267247, Note_on_c, 0, 79, 94
1, 1267248, Note_on_c, 0, 76, 96
1, 1267249, Note_on_c, 0, 64, 74
1, 1267252, Note_on_c, 0, 67, 81
1, 1267307, Note_on_c, 0, 76, 0
1, 1267323, Note_on_c, 0, 64, 0
1, 1267324, Note_on_c, 0, 79, 0
1, 1267380, Note_on_c, 0, 67, 0
1, 1267399, Note_on_c, 0, 72, 87
1, 1267399, Note_on_c, 0, 88, 96
1, 1267399, Note_on_c, 0, 84, 92
1, 1267412, Note_on_c, 0, 76, 79
1, 1267438, Note_on_c, 0, 72, 0
1, 1267441, Note_on_c, 0, 76, 0
1, 1267452, Note_on_c, 0, 84, 0
1, 1267471, Note_on_c, 0, 88, 0
1, 1267560, Note_on_c, 0, 67, 81
1, 1267562, Note_on_c, 0, 84, 100
1, 1267567, Note_on_c, 0, 79, 95
1, 1267587, Note_on_c, 0, 72, 80
1, 1267638, Note_on_c, 0, 79, 0
1, 1267652, Note_on_c, 0, 72, 0
1, 1267663, Note_on_c, 0, 84, 0
1, 1267671, Note_on_c, 0, 67, 0
1, 1267733, Note_on_c, 0, 91, 99
1, 1267736, Note_on_c, 0, 88, 92
1, 1267738, Note_on_c, 0, 76, 80
1, 1267740, Note_on_c, 0, 79, 83
1, 1267770, Note_on_c, 0, 76, 0
1, 1267779, Note_on_c, 0, 79, 0
1, 1267792, Note_on_c, 0, 88, 0
1, 1267803, Note_on_c, 0, 91, 0
1, 1267904, Note_on_c, 0, 76, 87
1, 1267906, Note_on_c, 0, 88, 106
1, 1267913, Note_on_c, 0, 84, 96
1, 1267917, Note_on_c, 0, 72, 75
1, 1267939, Note_on_c, 0, 84, 0
1, 1267947, Note_on_c, 0, 72, 0
1, 1267955, Note_on_c, 0, 76, 0
1, 1267962, Note_on_c, 0, 88, 0
1, 1268063, Note_on_c, 0, 91, 110
1, 1268067, Note_on_c, 0, 79, 84
1, 1268070, Note_on_c, 0, 88, 98
1, 1268080, Note_on_c, 0, 76, 77
1, 1268107, Note_on_c, 0, 76, 0
1, 1268114, Note_on_c, 0, 88, 0
1, 1268124, Note_on_c, 0, 79, 0
1, 1268140, Note_on_c, 0, 91, 0
1, 1268237, Note_on_c, 0, 88, 111
1, 1268242, Note_on_c, 0, 76, 80
1, 1268246, Note_on_c, 0, 72, 81
1, 1268248, Note_on_c, 0, 84, 95
1, 1268269, Note_on_c, 0, 84, 0
1, 1268276, Note_on_c, 0, 76, 0
1, 1268277, Note_on_c, 0, 72, 0
1, 1268277, Note_on_c, 0, 88, 0
1, 1268987, Note_on_c, 0, 79, 87
1, 1269005, Note_on_c, 0, 76, 71
1, 1269005, Note_on_c, 0, 67, 54
1, 1269005, Note_on_c, 0, 64, 50
1, 1269029, Note_on_c, 0, 76, 0
1, 1269043, Note_on_c, 0, 79, 0
1, 1269044, Note_on_c, 0, 67, 0
1, 1269048, Note_on_c, 0, 64, 0
1, 1269744, Note_on_c, 0, 76, 76
1, 1269769, Note_on_c, 0, 72, 56
1, 1269771, Note_on_c, 0, 64, 46
1, 1269778, Note_on_c, 0, 60, 47
1, 1269816, Note_on_c, 0, 72, 0
1, 1269829, Note_on_c, 0, 76, 0
1, 1269844, Note_on_c, 0, 64, 0
1, 1269853, Note_on_c, 0, 60, 0
1, 1270347, Control_c, 0, 67, 8
1, 1270554, Note_on_c, 0, 67, 58
1, 1270577, Note_on_c, 0, 64, 44
1, 1270582, Note_on_c, 0, 55, 36
1, 1270585, Note_on_c, 0, 52, 37
1, 1270631, Note_on_c, 0, 64, 0
1, 1270650, Note_on_c, 0, 67, 0
1, 1270655, Note_on_c, 0, 52, 0
1, 1270657, Note_on_c, 0, 55, 0
1, 1270767, Control_c, 0, 67, 13
1, 1270822, Control_c, 0, 67, 19
1, 1270857, Control_c, 0, 67, 24
1, 1271342, Note_on_c, 0, 64, 42
1, 1271358, Note_on_c, 0, 52, 36
1, 1271370, Note_on_c, 0, 60, 34
1, 1271378, Note_on_c, 0, 48, 29
1, 1271467, Note_on_c, 0, 60, 0
1, 1271485, Note_on_c, 0, 48, 0
1, 1271496, Note_on_c, 0, 64, 0
1, 1271507, Note_on_c, 0, 52, 0
1, 1271554, Control_c, 0, 67, 28
1, 1271591, Control_c, 0, 67, 33
1, 1271629, Control_c, 0, 67, 38
1, 1271683, Control_c, 0, 67, 45
1, 1271720, Control_c, 0, 67, 53
1, 1271738, Control_c, 0, 67, 58
1, 1271758, Control_c, 0, 67, 63
1, 1271777, Control_c, 0, 67, 68
1, 1271793, Control_c, 0, 67, 73
1, 1271812, Control_c, 0, 67, 81
1, 1271830, Control_c, 0, 67, 91
1, 1271850, Control_c, 0, 67, 100
1, 1271866, Control_c, 0, 67, 107
1, 1271885, Control_c, 0, 67, 111
1, 1271923, Control_c, 0, 67, 116
1, 1271959, Control_c, 0, 67, 122
1, 1271997, Control_c, 0, 67, 127
1, 1272191, Note_on_c, 0, 67, 42
1, 1272193, Note_on_c, 0, 64, 40
1, 1272193, Note_on_c, 0, 76, 53
1, 1272194, Note_on_c, 0, 79, 47
1, 1272260, Note_on_c, 0, 76, 0
1, 1272266, Note_on_c, 0, 67, 0
1, 1272273, Note_on_c, 0, 64, 0
1, 1272281, Note_on_c, 0, 79, 0
1, 1272611, Note_on_c, 0, 79, 44
1, 1272619, Note_on_c, 0, 76, 35
1, 1272630, Note_on_c, 0, 67, 35
1, 1272641, Note_on_c, 0, 64, 34
1, 1272663, Note_on_c, 0, 76, 0
1, 1272666, Note_on_c, 0, 79, 0
1, 1272676, Note_on_c, 0, 67, 0
1, 1272683, Note_on_c, 0, 64, 0
1, 1272987, Control_c, 0, 67, 123
1, 1273024, Control_c, 0, 67, 118
1, 1273031, Note_on_c, 0, 76, 44
1, 1273056, Note_on_c, 0, 64, 39
1, 1273060, Control_c, 0, 67, 111
1, 1273061, Note_on_c, 0, 72, 38
1, 1273079, Control_c, 0, 67, 104
1, 1273084, Note_on_c, 0, 60, 36
1, 1273098, Control_c, 0, 67, 96
1, 1273116, Control_c, 0, 67, 86
1, 1273135, Control_c, 0, 67, 74
1, 1273136, Note_on_c, 0, 72, 0
1, 1273142, Note_on_c, 0, 64, 0
1, 1273154, Control_c, 0, 67, 59
1, 1273158, Note_on_c, 0, 60, 0
1, 1273172, Control_c, 0, 67, 41
1, 1273204, Control_c, 0, 67, 17
1, 1273212, Note_on_c, 0, 76, 0
1, 1273224, Control_c, 0, 67, 0
1, 1273826, Note_on_c, 0, 48, 104
1, 1273827, Note_on_c, 0, 36, 93
1, 1273827, Note_on_c, 0, 91, 104
1, 1273828, Note_on_c, 0, 88, 102
1, 1273830, Note_on_c, 0, 43, 96
1, 1273833, Note_on_c, 0, 79, 104
1, 1273835, Note_on_c, 0, 84, 98
1, 1273839, Note_on_c, 0, 40, 89
1, 1273869, Note_on_c, 0, 81, 50
1, 1273870, Note_on_c, 0, 81, 0
1, 1273871, Note_on_c, 0, 48, 0
1, 1273872, Note_on_c, 0, 79, 0
1, 1273880, Note_on_c, 0, 84, 0
1, 1273881, Note_on_c, 0, 40, 0
1, 1273884, Note_on_c, 0, 36, 0
1, 1273888, Note_on_c, 0, 43, 0
1, 1273888, Note_on_c, 0, 91, 0
1, 1273907, Note_on_c, 0, 88, 0
1, 1273946, Poly_aftertouch_c, 0, 39, 0
1, 1274156, Note_on_c, 0, 91, 102
1, 1274159, Note_on_c, 0, 88, 95
1, 1274161, Note_on_c, 0, 84, 97
1, 1274163, Note_on_c, 0, 48, 98
1, 1274163, Note_on_c, 0, 43, 95
1, 1274164, Note_on_c, 0, 36, 87
1, 1274165, Note_on_c, 0, 79, 96
1, 1274171, Note_on_c, 0, 40, 86
1, 1274195, Note_on_c, 0, 48, 0
1, 1274202, Note_on_c, 0, 91, 0
1, 1274205, Note_on_c, 0, 79, 0
1, 1274205, Note_on_c, 0, 84, 0
1, 1274208, Note_on_c, 0, 36, 0
1, 1274213, Note_on_c, 0, 43, 0
1, 1274215, Note_on_c, 0, 40, 0
1, 1274226, Note_on_c, 0, 88, 0
1, 1274519, Note_on_c, 0, 48, 97
1, 1274520, Note_on_c, 0, 84, 98
1, 1274521, Note_on_c, 0, 36, 93
1, 1274521, Note_on_c, 0, 43, 88
1, 1274522, Note_on_c, 0, 88, 104
1, 1274524, Note_on_c, 0, 79, 99
1, 1274528, Control_c, 0, 64, 112
1, 1274528, Note_on_c, 0, 76, 98
1, 1274529, Note_on_c, 0, 40, 82
1, 1274558, Control_c, 0, 64, 55
1, 1274566, Control_c, 0, 64, 0
1, 1274583, Control_c, 0, 64, 19
1, 1274601, Control_c, 0, 64, 56
1, 1274619, Control_c, 0, 64, 117
1, 1274637, Control_c, 0, 64, 127
1, 1274668, Poly_aftertouch_c, 0, 39, 0
1, 1274756, Note_on_c, 0, 76, 0
1, 1274771, Note_on_c, 0, 48, 0
1, 1274783, Note_on_c, 0, 88, 0
1, 1274784, Note_on_c, 0, 36, 0
1, 1274818, Note_on_c, 0, 84, 0
1, 1274818, Note_on_c, 0, 79, 0
1, 1274818, Poly_aftertouch_c, 0, 38, 0
1, 1274829, Note_on_c, 0, 43, 0
1, 1274835, Note_on_c, 0, 40, 0
1, 1274912, Control_c, 0, 64, 100
1, 1274932, Control_c, 0, 64, 62
1, 1274969, Control_c, 0, 64, 0
1, 1275286, Note_on_c, 0, 76, 99
1, 1275287, Note_on_c, 0, 36, 86
1, 1275288, Note_on_c, 0, 48, 102
1, 1275288, Note_on_c, 0, 64, 103
1, 1275288, Note_on_c, 0, 43, 91
1, 1275289, Note_on_c, 0, 72, 97
1, 1275289, Note_on_c, 0, 67, 97
1, 1275292, Note_on_c, 0, 40, 83
1, 1275332, Note_on_c, 0, 48, 0
1, 1275333, Note_on_c, 0, 64, 0
1, 1275345, Note_on_c, 0, 40, 0
1, 1275346, Note_on_c, 0, 67, 0
1, 1275347, Note_on_c, 0, 43, 0
1, 1275351, Control_c, 0, 64, 83
1, 1275359, Note_on_c, 0, 76, 0
1, 1275362, Note_on_c, 0, 36, 0
1, 1275370, Control_c, 0, 64, 127
1, 1275390, Note_on_c, 0, 72, 0
1, 1275813, Control_c, 0, 64, 121
1, 1275831, Control_c, 0, 64, 61
1, 1275849, Control_c, 0, 64, 0
1, 1276142, Note_on_c, 0, 72, 98
1, 1276143, Note_on_c, 0, 48, 99
1, 1276143, Note_on_c, 0, 64, 97
1, 1276146, Note_on_c, 0, 43, 89
1, 1276146, Note_on_c, 0, 67, 91
1, 1276148, Note_on_c, 0, 60, 98
1, 1276148, Note_on_c, 0, 36, 90
1, 1276157, Note_on_c, 0, 40, 82
1, 1276197, Control_c, 0, 64, 37
1, 1276215, Control_c, 0, 64, 127
1, 1276519, Poly_aftertouch_c, 0, 39, 127
1, 1276540, Poly_aftertouch_c, 0, 38, 127
1, 1276604, Poly_aftertouch_c, 0, 62, 0
1, 1276707, Note_on_c, 0, 60, 0
1, 1276730, Control_c, 0, 64, 119
1, 1276738, Note_on_c, 0, 72, 0
1, 1276747, Note_on_c, 0, 64, 0
1, 1276747, Control_c, 0, 64, 54
1, 1276750, Note_on_c, 0, 67, 0
1, 1276751, Note_on_c, 0, 48, 0
1, 1276755, Note_on_c, 0, 36, 0
1, 1276758, Note_on_c, 0, 43, 0
1, 1276758, Note_on_c, 0, 40, 0
1, 1276764, Poly_aftertouch_c, 0, 38, 0
1, 1276766, Control_c, 0, 64, 0
1, 1276789, Poly_aftertouch_c, 0, 39, 0
1, 1276800, End_track
0, 0, End_of_file
