0, 0, Header, 0, 1, 384
1, 0, Start_track
1, 0, Title_t, "Beethoven Sonata1. Movement"
1, 0, Time_signature, 4, 2, 24, 8
1, 0, Key_signature, 0, "major"
1, 0, Tempo, 512821
1, 0, Program_c, 0, 0
1, 0, Control_c, 0, 7, 89
1, 0, Control_c, 0, 91, 127
1, 3, Program_c, 0, 1
1, 3, Control_c, 0, 7, 100
1, 748, Note_on_c, 0, 36, 46
1, 748, Control_c, 0, 64, 0
1, 853, Note_on_c, 0, 36, 0
1, 888, Note_on_c, 0, 48, 49
1, 888, Note_on_c, 0, 52, 54
1, 888, Note_on_c, 0, 43, 47
1, 891, Note_on_c, 0, 36, 43
1, 993, Note_on_c, 0, 36, 0
1, 993, Note_on_c, 0, 48, 0
1, 993, Note_on_c, 0, 52, 0
1, 996, Note_on_c, 0, 43, 0
1, 1028, Note_on_c, 0, 48, 49
1, 1028, Note_on_c, 0, 52, 54
1, 1028, Note_on_c, 0, 43, 47
1, 1031, Note_on_c, 0, 36, 43
1, 1133, Note_on_c, 0, 36, 0
1, 1133, Note_on_c, 0, 48, 0
1, 1133, Note_on_c, 0, 52, 0
1, 1136, Note_on_c, 0, 43, 0
1, 1167, Note_on_c, 0, 48, 49
1, 1167, Note_on_c, 0, 52, 55
1, 1167, Note_on_c, 0, 43, 48
1, 1170, Note_on_c, 0, 36, 43
1, 1272, Note_on_c, 0, 36, 0
1, 1272, Note_on_c, 0, 48, 0
1, 1272, Note_on_c, 0, 52, 0
1, 1275, Note_on_c, 0, 43, 0
1, 1306, Note_on_c, 0, 48, 49
1, 1306, Note_on_c, 0, 52, 55
1, 1306, Note_on_c, 0, 43, 48
1, 1309, Note_on_c, 0, 36, 43
1, 1412, Note_on_c, 0, 36, 0
1, 1412, Note_on_c, 0, 48, 0
1, 1412, Note_on_c, 0, 52, 0
1, 1415, Note_on_c, 0, 43, 0
1, 1447, Note_on_c, 0, 48, 49
1, 1447, Note_on_c, 0, 52, 55
1, 1447, Note_on_c, 0, 43, 49
1, 1450, Note_on_c, 0, 36, 44
1, 1552, Note_on_c, 0, 36, 0
1, 1552, Note_on_c, 0, 48, 0
1, 1552, Note_on_c, 0, 52, 0
1, 1555, Note_on_c, 0, 43, 0
1, 1587, Note_on_c, 0, 48, 50
1, 1587, Note_on_c, 0, 52, 56
1, 1587, Note_on_c, 0, 43, 49
1, 1590, Note_on_c, 0, 36, 44
1, 1692, Note_on_c, 0, 36, 0
1, 1692, Note_on_c, 0, 48, 0
1, 1692, Note_on_c, 0, 52, 0
1, 1695, Note_on_c, 0, 43, 0
1, 1727, Note_on_c, 0, 48, 50
1, 1727, Note_on_c, 0, 52, 56
1, 1727, Note_on_c, 0, 43, 50
1, 1730, Note_on_c, 0, 36, 45
1, 1831, Note_on_c, 0, 36, 0
1, 1831, Note_on_c, 0, 48, 0
1, 1831, Note_on_c, 0, 52, 0
1, 1834, Note_on_c, 0, 43, 0
1, 1866, Note_on_c, 0, 48, 51
1, 1866, Note_on_c, 0, 52, 57
1, 1866, Note_on_c, 0, 36, 46
1, 1869, Note_on_c, 0, 43, 51
1, 1971, Note_on_c, 0, 43, 0
1, 1971, Note_on_c, 0, 48, 0
1, 1971, Note_on_c, 0, 52, 0
1, 1974, Note_on_c, 0, 36, 0
1, 2006, Note_on_c, 0, 48, 51
1, 2006, Note_on_c, 0, 52, 57
1, 2006, Note_on_c, 0, 36, 43
1, 2009, Note_on_c, 0, 43, 48
1, 2111, Note_on_c, 0, 43, 0
1, 2111, Note_on_c, 0, 48, 0
1, 2111, Note_on_c, 0, 52, 0
1, 2114, Note_on_c, 0, 36, 0
1, 2146, Note_on_c, 0, 48, 52
1, 2146, Note_on_c, 0, 52, 58
1, 2146, Note_on_c, 0, 36, 44
1, 2149, Note_on_c, 0, 43, 49
1, 2251, Note_on_c, 0, 43, 0
1, 2251, Note_on_c, 0, 48, 0
1, 2251, Note_on_c, 0, 52, 0
1, 2254, Note_on_c, 0, 36, 0
1, 2286, Note_on_c, 0, 48, 53
1, 2286, Note_on_c, 0, 52, 59
1, 2286, Note_on_c, 0, 36, 45
1, 2289, Note_on_c, 0, 43, 50
1, 2390, Note_on_c, 0, 43, 0
1, 2390, Note_on_c, 0, 48, 0
1, 2390, Note_on_c, 0, 52, 0
1, 2393, Note_on_c, 0, 36, 0
1, 2425, Note_on_c, 0, 48, 54
1, 2425, Note_on_c, 0, 52, 60
1, 2425, Note_on_c, 0, 36, 46
1, 2428, Note_on_c, 0, 43, 51
1, 2530, Note_on_c, 0, 43, 0
1, 2530, Note_on_c, 0, 48, 0
1, 2530, Note_on_c, 0, 52, 0
1, 2533, Note_on_c, 0, 36, 0
1, 2565, Note_on_c, 0, 48, 55
1, 2565, Note_on_c, 0, 52, 61
1, 2565, Note_on_c, 0, 36, 46
1, 2568, Note_on_c, 0, 43, 51
1, 2670, Note_on_c, 0, 43, 0
1, 2670, Note_on_c, 0, 48, 0
1, 2670, Note_on_c, 0, 52, 0
1, 2673, Note_on_c, 0, 36, 0
1, 2705, Note_on_c, 0, 50, 55
1, 2705, Note_on_c, 0, 54, 61
1, 2705, Note_on_c, 0, 36, 46
1, 2708, Note_on_c, 0, 45, 51
1, 2810, Note_on_c, 0, 45, 0
1, 2810, Note_on_c, 0, 50, 0
1, 2810, Note_on_c, 0, 54, 0
1, 2813, Note_on_c, 0, 36, 0
1, 2845, Note_on_c, 0, 50, 55
1, 2845, Note_on_c, 0, 54, 61
1, 2845, Note_on_c, 0, 36, 46
1, 2848, Note_on_c, 0, 45, 51
1, 2950, Note_on_c, 0, 45, 0
1, 2950, Note_on_c, 0, 50, 0
1, 2950, Note_on_c, 0, 54, 0
1, 2953, Note_on_c, 0, 36, 0
1, 2985, Note_on_c, 0, 50, 60
1, 2985, Note_on_c, 0, 55, 67
1, 2985, Note_on_c, 0, 35, 46
1, 2988, Note_on_c, 0, 43, 51
1, 3090, Note_on_c, 0, 43, 0
1, 3090, Note_on_c, 0, 35, 0
1, 3125, Note_on_c, 0, 35, 46
1, 3125, Note_on_c, 0, 43, 51
1, 3230, Note_on_c, 0, 43, 0
1, 3230, Note_on_c, 0, 35, 0
1, 3265, Note_on_c, 0, 35, 46
1, 3265, Note_on_c, 0, 43, 51
1, 3370, Note_on_c, 0, 43, 0
1, 3370, Note_on_c, 0, 35, 0
1, 3405, Note_on_c, 0, 55, 0
1, 3405, Note_on_c, 0, 50, 0
1, 3405, Note_on_c, 0, 59, 61
1, 3408, Note_on_c, 0, 35, 46
1, 3408, Note_on_c, 0, 43, 51
1, 3475, Note_on_c, 0, 59, 0
1, 3475, Note_on_c, 0, 57, 61
1, 3510, Note_on_c, 0, 43, 0
1, 3510, Note_on_c, 0, 35, 0
1, 3545, Note_on_c, 0, 57, 0
1, 3545, Note_on_c, 0, 55, 66
1, 3545, Note_on_c, 0, 35, 46
1, 3548, Note_on_c, 0, 43, 51
1, 3615, Note_on_c, 0, 55, 0
1, 3650, Note_on_c, 0, 43, 0
1, 3650, Note_on_c, 0, 35, 0
1, 3685, Note_on_c, 0, 35, 46
1, 3685, Note_on_c, 0, 43, 51
1, 3790, Note_on_c, 0, 43, 0
1, 3790, Note_on_c, 0, 35, 0
1, 3825, Note_on_c, 0, 35, 46
1, 3825, Note_on_c, 0, 43, 51
1, 3930, Note_on_c, 0, 43, 0
1, 3930, Note_on_c, 0, 35, 0
1, 3965, Note_on_c, 0, 35, 46
1, 3965, Note_on_c, 0, 43, 51
1, 4075, Note_on_c, 0, 43, 0
1, 4075, Note_on_c, 0, 35, 0
1, 4075, Note_on_c, 0, 85, 67
1, 4111, Note_on_c, 0, 85, 0
1, 4111, Note_on_c, 0, 86, 78
1, 4111, Note_on_c, 0, 35, 46
1, 4114, Note_on_c, 0, 43, 51
1, 4218, Note_on_c, 0, 43, 0
1, 4218, Note_on_c, 0, 35, 0
1, 4253, Note_on_c, 0, 35, 46
1, 4253, Note_on_c, 0, 43, 51
1, 4360, Note_on_c, 0, 43, 0
1, 4360, Note_on_c, 0, 35, 0
1, 4395, Note_on_c, 0, 35, 46
1, 4395, Note_on_c, 0, 43, 51
1, 4466, Note_on_c, 0, 86, 0
1, 4466, Note_on_c, 0, 84, 69
1, 4502, Note_on_c, 0, 43, 0
1, 4502, Note_on_c, 0, 35, 0
1, 4538, Note_on_c, 0, 84, 0
1, 4538, Note_on_c, 0, 83, 68
1, 4538, Note_on_c, 0, 35, 46
1, 4541, Note_on_c, 0, 43, 51
1, 4609, Note_on_c, 0, 83, 0
1, 4609, Note_on_c, 0, 81, 66
1, 4644, Note_on_c, 0, 43, 0
1, 4644, Note_on_c, 0, 35, 0
1, 4680, Note_on_c, 0, 81, 0
1, 4680, Note_on_c, 0, 79, 65
1, 4680, Note_on_c, 0, 35, 46
1, 4683, Note_on_c, 0, 43, 51
1, 4786, Note_on_c, 0, 43, 0
1, 4786, Note_on_c, 0, 35, 0
1, 4822, Note_on_c, 0, 79, 0
1, 4822, Note_on_c, 0, 35, 46
1, 4822, Note_on_c, 0, 43, 51
1, 4929, Note_on_c, 0, 43, 0
1, 4929, Note_on_c, 0, 35, 0
1, 4964, Note_on_c, 0, 35, 46
1, 4964, Note_on_c, 0, 43, 51
1, 5071, Note_on_c, 0, 43, 0
1, 5071, Note_on_c, 0, 35, 0
1, 5106, Note_on_c, 0, 35, 46
1, 5106, Note_on_c, 0, 43, 51
1, 5215, Note_on_c, 0, 43, 0
1, 5215, Note_on_c, 0, 35, 0
1, 5251, Note_on_c, 0, 46, 50
1, 5251, Note_on_c, 0, 50, 56
1, 5251, Control_c, 0, 91, 127
1, 5254, Note_on_c, 0, 41, 51
1, 5254, Note_on_c, 0, 34, 47
1, 5254, Control_c, 0, 64, 0
1, 5356, Note_on_c, 0, 34, 0
1, 5356, Note_on_c, 0, 46, 0
1, 5356, Note_on_c, 0, 50, 0
1, 5359, Note_on_c, 0, 41, 0
1, 5391, Note_on_c, 0, 46, 50
1, 5391, Note_on_c, 0, 50, 56
1, 5391, Note_on_c, 0, 41, 51
1, 5394, Note_on_c, 0, 34, 46
1, 5496, Note_on_c, 0, 34, 0
1, 5496, Note_on_c, 0, 46, 0
1, 5496, Note_on_c, 0, 50, 0
1, 5499, Note_on_c, 0, 41, 0
1, 5531, Note_on_c, 0, 46, 50
1, 5531, Note_on_c, 0, 50, 56
1, 5531, Note_on_c, 0, 41, 51
1, 5534, Note_on_c, 0, 34, 46
1, 5635, Note_on_c, 0, 34, 0
1, 5635, Note_on_c, 0, 46, 0
1, 5635, Note_on_c, 0, 50, 0
1, 5638, Note_on_c, 0, 41, 0
1, 5670, Note_on_c, 0, 46, 51
1, 5670, Note_on_c, 0, 50, 57
1, 5670, Note_on_c, 0, 41, 52
1, 5673, Note_on_c, 0, 34, 47
1, 5774, Note_on_c, 0, 34, 0
1, 5774, Note_on_c, 0, 46, 0
1, 5774, Note_on_c, 0, 50, 0
1, 5777, Note_on_c, 0, 41, 0
1, 5808, Note_on_c, 0, 46, 52
1, 5808, Note_on_c, 0, 50, 58
1, 5808, Note_on_c, 0, 41, 52
1, 5811, Note_on_c, 0, 34, 47
1, 5914, Note_on_c, 0, 34, 0
1, 5914, Note_on_c, 0, 46, 0
1, 5914, Note_on_c, 0, 50, 0
1, 5917, Note_on_c, 0, 41, 0
1, 5949, Note_on_c, 0, 46, 52
1, 5949, Note_on_c, 0, 50, 58
1, 5949, Note_on_c, 0, 41, 52
1, 5952, Note_on_c, 0, 34, 47
1, 6054, Note_on_c, 0, 34, 0
1, 6054, Note_on_c, 0, 46, 0
1, 6054, Note_on_c, 0, 50, 0
1, 6057, Note_on_c, 0, 41, 0
1, 6089, Note_on_c, 0, 46, 53
1, 6089, Note_on_c, 0, 50, 59
1, 6089, Note_on_c, 0, 41, 52
1, 6092, Note_on_c, 0, 34, 47
1, 6195, Note_on_c, 0, 34, 0
1, 6195, Note_on_c, 0, 46, 0
1, 6195, Note_on_c, 0, 50, 0
1, 6198, Note_on_c, 0, 41, 0
1, 6230, Note_on_c, 0, 46, 54
1, 6230, Note_on_c, 0, 50, 60
1, 6230, Note_on_c, 0, 41, 52
1, 6233, Note_on_c, 0, 34, 47
1, 6335, Note_on_c, 0, 34, 0
1, 6335, Note_on_c, 0, 46, 0
1, 6335, Note_on_c, 0, 50, 0
1, 6338, Note_on_c, 0, 41, 0
1, 6370, Note_on_c, 0, 46, 54
1, 6370, Note_on_c, 0, 50, 60
1, 6370, Note_on_c, 0, 34, 47
1, 6373, Note_on_c, 0, 41, 52
1, 6475, Note_on_c, 0, 41, 0
1, 6475, Note_on_c, 0, 46, 0
1, 6475, Note_on_c, 0, 50, 0
1, 6478, Note_on_c, 0, 34, 0
1, 6510, Note_on_c, 0, 46, 55
1, 6510, Note_on_c, 0, 50, 61
1, 6510, Note_on_c, 0, 34, 47
1, 6513, Note_on_c, 0, 41, 52
1, 6615, Note_on_c, 0, 41, 0
1, 6615, Note_on_c, 0, 46, 0
1, 6615, Note_on_c, 0, 50, 0
1, 6618, Note_on_c, 0, 34, 0
1, 6650, Note_on_c, 0, 46, 55
1, 6650, Note_on_c, 0, 50, 61
1, 6650, Note_on_c, 0, 34, 47
1, 6653, Note_on_c, 0, 41, 52
1, 6756, Note_on_c, 0, 41, 0
1, 6756, Note_on_c, 0, 46, 0
1, 6756, Note_on_c, 0, 50, 0
1, 6759, Note_on_c, 0, 34, 0
1, 6791, Note_on_c, 0, 46, 55
1, 6791, Note_on_c, 0, 50, 61
1, 6791, Note_on_c, 0, 34, 47
1, 6794, Note_on_c, 0, 41, 52
1, 6896, Note_on_c, 0, 41, 0
1, 6896, Note_on_c, 0, 46, 0
1, 6896, Note_on_c, 0, 50, 0
1, 6899, Note_on_c, 0, 34, 0
1, 6931, Note_on_c, 0, 46, 55
1, 6931, Note_on_c, 0, 50, 61
1, 6931, Note_on_c, 0, 34, 47
1, 6934, Note_on_c, 0, 41, 52
1, 7035, Note_on_c, 0, 41, 0
1, 7035, Note_on_c, 0, 46, 0
1, 7035, Note_on_c, 0, 50, 0
1, 7038, Note_on_c, 0, 34, 0
1, 7070, Note_on_c, 0, 46, 55
1, 7070, Note_on_c, 0, 50, 61
1, 7070, Note_on_c, 0, 34, 46
1, 7073, Note_on_c, 0, 41, 51
1, 7174, Note_on_c, 0, 41, 0
1, 7174, Note_on_c, 0, 46, 0
1, 7174, Note_on_c, 0, 50, 0
1, 7177, Note_on_c, 0, 34, 0
1, 7208, Note_on_c, 0, 48, 55
1, 7208, Note_on_c, 0, 52, 61
1, 7208, Note_on_c, 0, 34, 46
1, 7211, Note_on_c, 0, 43, 51
1, 7313, Note_on_c, 0, 43, 0
1, 7313, Note_on_c, 0, 48, 0
1, 7313, Note_on_c, 0, 52, 0
1, 7316, Note_on_c, 0, 34, 0
1, 7348, Note_on_c, 0, 48, 55
1, 7348, Note_on_c, 0, 52, 61
1, 7348, Note_on_c, 0, 34, 46
1, 7351, Note_on_c, 0, 43, 51
1, 7452, Note_on_c, 0, 43, 0
1, 7452, Note_on_c, 0, 48, 0
1, 7452, Note_on_c, 0, 52, 0
1, 7455, Note_on_c, 0, 34, 0
1, 7487, Note_on_c, 0, 48, 60
1, 7487, Note_on_c, 0, 53, 67
1, 7487, Note_on_c, 0, 33, 46
1, 7490, Note_on_c, 0, 41, 51
1, 7591, Note_on_c, 0, 41, 0
1, 7591, Note_on_c, 0, 33, 0
1, 7626, Note_on_c, 0, 33, 46
1, 7626, Note_on_c, 0, 41, 51
1, 7731, Note_on_c, 0, 41, 0
1, 7731, Note_on_c, 0, 33, 0
1, 7766, Note_on_c, 0, 33, 46
1, 7766, Note_on_c, 0, 41, 51
1, 7870, Note_on_c, 0, 41, 0
1, 7870, Note_on_c, 0, 33, 0
1, 7905, Note_on_c, 0, 53, 0
1, 7905, Note_on_c, 0, 48, 0
1, 7905, Note_on_c, 0, 57, 61
1, 7908, Note_on_c, 0, 33, 46
1, 7908, Note_on_c, 0, 41, 51
1, 7975, Note_on_c, 0, 57, 0
1, 7975, Note_on_c, 0, 55, 61
1, 8010, Note_on_c, 0, 41, 0
1, 8010, Note_on_c, 0, 33, 0
1, 8045, Note_on_c, 0, 55, 0
1, 8045, Note_on_c, 0, 53, 66
1, 8045, Note_on_c, 0, 33, 46
1, 8048, Note_on_c, 0, 41, 51
1, 8114, Note_on_c, 0, 53, 0
1, 8149, Note_on_c, 0, 41, 0
1, 8149, Note_on_c, 0, 33, 0
1, 8184, Note_on_c, 0, 33, 46
1, 8184, Note_on_c, 0, 41, 51
1, 8289, Note_on_c, 0, 41, 0
1, 8289, Note_on_c, 0, 33, 0
1, 8324, Note_on_c, 0, 33, 46
1, 8324, Note_on_c, 0, 41, 51
1, 8428, Note_on_c, 0, 41, 0
1, 8428, Note_on_c, 0, 33, 0
1, 8463, Note_on_c, 0, 33, 46
1, 8463, Note_on_c, 0, 41, 51
1, 8573, Note_on_c, 0, 41, 0
1, 8573, Note_on_c, 0, 33, 0
1, 8573, Note_on_c, 0, 83, 67
1, 8610, Note_on_c, 0, 83, 0
1, 8610, Note_on_c, 0, 84, 78
1, 8610, Note_on_c, 0, 32, 46
1, 8613, Note_on_c, 0, 41, 51
1, 8716, Note_on_c, 0, 41, 0
1, 8716, Note_on_c, 0, 32, 0
1, 8752, Note_on_c, 0, 32, 46
1, 8752, Note_on_c, 0, 41, 51
1, 8858, Note_on_c, 0, 41, 0
1, 8858, Note_on_c, 0, 32, 0
1, 8894, Note_on_c, 0, 32, 46
1, 8894, Note_on_c, 0, 41, 51
1, 8965, Note_on_c, 0, 84, 0
1, 8965, Note_on_c, 0, 82, 71
1, 9001, Note_on_c, 0, 41, 0
1, 9001, Note_on_c, 0, 32, 0
1, 9036, Note_on_c, 0, 82, 0
1, 9036, Note_on_c, 0, 80, 70
1, 9036, Note_on_c, 0, 32, 46
1, 9039, Note_on_c, 0, 41, 51
1, 9107, Note_on_c, 0, 80, 0
1, 9107, Note_on_c, 0, 79, 68
1, 9143, Note_on_c, 0, 41, 0
1, 9143, Note_on_c, 0, 32, 0
1, 9178, Note_on_c, 0, 79, 0
1, 9178, Note_on_c, 0, 77, 67
1, 9178, Note_on_c, 0, 32, 46
1, 9181, Note_on_c, 0, 41, 51
1, 9285, Note_on_c, 0, 41, 0
1, 9285, Note_on_c, 0, 32, 0
1, 9321, Note_on_c, 0, 77, 0
1, 9321, Note_on_c, 0, 32, 46
1, 9321, Note_on_c, 0, 41, 51
1, 9427, Note_on_c, 0, 41, 0
1, 9427, Note_on_c, 0, 32, 0
1, 9463, Note_on_c, 0, 32, 46
1, 9463, Note_on_c, 0, 41, 51
1, 9571, Note_on_c, 0, 41, 0
1, 9571, Note_on_c, 0, 32, 0
1, 9607, Note_on_c, 0, 32, 46
1, 9607, Note_on_c, 0, 41, 51
1, 9714, Note_on_c, 0, 41, 0
1, 9714, Note_on_c, 0, 32, 0
1, 9714, Note_on_c, 0, 88, 88
1, 9750, Note_on_c, 0, 88, 0
1, 9750, Note_on_c, 0, 89, 94
1, 9750, Note_on_c, 0, 31, 51
1, 9753, Note_on_c, 0, 41, 57
1, 9855, Note_on_c, 0, 41, 0
1, 9855, Note_on_c, 0, 31, 0
1, 9890, Note_on_c, 0, 31, 53
1, 9890, Note_on_c, 0, 41, 59
1, 9995, Note_on_c, 0, 41, 0
1, 9995, Note_on_c, 0, 31, 0
1, 10030, Note_on_c, 0, 31, 54
1, 10030, Note_on_c, 0, 41, 60
1, 10135, Note_on_c, 0, 41, 0
1, 10135, Note_on_c, 0, 31, 0
1, 10169, Note_on_c, 0, 31, 55
1, 10169, Note_on_c, 0, 41, 62
1, 10274, Note_on_c, 0, 41, 0
1, 10274, Note_on_c, 0, 31, 0
1, 10309, Note_on_c, 0, 31, 57
1, 10309, Note_on_c, 0, 41, 64
1, 10414, Note_on_c, 0, 41, 0
1, 10414, Note_on_c, 0, 31, 0
1, 10449, Note_on_c, 0, 31, 59
1, 10449, Note_on_c, 0, 41, 66
1, 10554, Note_on_c, 0, 41, 0
1, 10554, Note_on_c, 0, 31, 0
1, 10589, Note_on_c, 0, 89, 0
1, 10589, Note_on_c, 0, 89, 95
1, 10589, Note_on_c, 0, 32, 60
1, 10592, Note_on_c, 0, 41, 67
1, 10660, Note_on_c, 0, 89, 0
1, 10660, Note_on_c, 0, 87, 94
1, 10695, Note_on_c, 0, 41, 0
1, 10695, Note_on_c, 0, 32, 0
1, 10730, Note_on_c, 0, 87, 0
1, 10730, Note_on_c, 0, 86, 92
1, 10730, Note_on_c, 0, 32, 61
1, 10733, Note_on_c, 0, 41, 69
1, 10800, Note_on_c, 0, 86, 0
1, 10800, Note_on_c, 0, 84, 91
1, 10835, Note_on_c, 0, 41, 0
1, 10835, Note_on_c, 0, 32, 0
1, 10870, Note_on_c, 0, 84, 0
1, 10870, Note_on_c, 0, 83, 93
1, 10870, Note_on_c, 0, 31, 65
1, 10873, Note_on_c, 0, 41, 73
1, 10940, Note_on_c, 0, 83, 0
1, 10940, Note_on_c, 0, 84, 92
1, 10975, Note_on_c, 0, 41, 0
1, 10975, Note_on_c, 0, 31, 0
1, 11010, Note_on_c, 0, 84, 0
1, 11010, Note_on_c, 0, 86, 93
1, 11010, Note_on_c, 0, 31, 65
1, 11013, Note_on_c, 0, 41, 73
1, 11080, Note_on_c, 0, 86, 0
1, 11080, Note_on_c, 0, 87, 94
1, 11115, Note_on_c, 0, 41, 0
1, 11115, Note_on_c, 0, 31, 0
1, 11150, Note_on_c, 0, 87, 0
1, 11150, Note_on_c, 0, 89, 95
1, 11150, Note_on_c, 0, 32, 66
1, 11153, Note_on_c, 0, 41, 76
1, 11221, Note_on_c, 0, 89, 0
1, 11221, Note_on_c, 0, 87, 93
1, 11256, Note_on_c, 0, 41, 0
1, 11256, Note_on_c, 0, 32, 0
1, 11292, Note_on_c, 0, 87, 0
1, 11292, Note_on_c, 0, 86, 92
1, 11292, Note_on_c, 0, 32, 67
1, 11295, Note_on_c, 0, 41, 76
1, 11362, Note_on_c, 0, 86, 0
1, 11362, Note_on_c, 0, 84, 90
1, 11398, Note_on_c, 0, 41, 0
1, 11398, Note_on_c, 0, 32, 0
1, 11433, Note_on_c, 0, 84, 0
1, 11433, Note_on_c, 0, 83, 93
1, 11433, Note_on_c, 0, 31, 69
1, 11436, Note_on_c, 0, 41, 79
1, 11503, Note_on_c, 0, 83, 0
1, 11503, Note_on_c, 0, 84, 96
1, 11538, Note_on_c, 0, 41, 0
1, 11538, Note_on_c, 0, 31, 0
1, 11573, Note_on_c, 0, 84, 0
1, 11573, Note_on_c, 0, 86, 98
1, 11573, Note_on_c, 0, 31, 72
1, 11576, Note_on_c, 0, 41, 81
1, 11643, Note_on_c, 0, 86, 0
1, 11643, Note_on_c, 0, 87, 101
1, 11678, Note_on_c, 0, 41, 0
1, 11678, Note_on_c, 0, 31, 0
1, 11713, Note_on_c, 0, 87, 0
1, 11713, Note_on_c, 0, 89, 101
1, 11713, Note_on_c, 0, 32, 75
1, 11716, Note_on_c, 0, 41, 85
1, 11783, Note_on_c, 0, 89, 0
1, 11783, Note_on_c, 0, 87, 101
1, 11818, Note_on_c, 0, 41, 0
1, 11818, Note_on_c, 0, 32, 0
1, 11853, Note_on_c, 0, 87, 0
1, 11853, Note_on_c, 0, 86, 100
1, 11853, Note_on_c, 0, 32, 77
1, 11856, Note_on_c, 0, 41, 87
1, 11923, Note_on_c, 0, 86, 0
1, 11923, Note_on_c, 0, 84, 102
1, 11958, Note_on_c, 0, 41, 0
1, 11958, Note_on_c, 0, 32, 0
1, 11993, Note_on_c, 0, 84, 0
1, 11993, Note_on_c, 0, 83, 106
1, 11993, Note_on_c, 0, 31, 91
1, 11996, Note_on_c, 0, 41, 106
1, 12064, Note_on_c, 0, 83, 0
1, 12064, Note_on_c, 0, 84, 110
1, 12135, Note_on_c, 0, 84, 0
1, 12135, Note_on_c, 0, 86, 115
1, 12208, Note_on_c, 0, 86, 0
1, 12208, Note_on_c, 0, 87, 119
1, 12287, Note_on_c, 0, 87, 0
1, 12287, Note_on_c, 0, 41, 0
1, 12287, Note_on_c, 0, 89, 121
1, 12290, Note_on_c, 0, 31, 0
1, 12290, Note_on_c, 0, 43, 102
1, 12290, Note_on_c, 0, 55, 117
1, 12357, Note_on_c, 0, 89, 0
1, 12357, Note_on_c, 0, 87, 119
1, 12427, Note_on_c, 0, 87, 0
1, 12427, Note_on_c, 0, 86, 117
1, 12497, Note_on_c, 0, 86, 0
1, 12497, Note_on_c, 0, 84, 115
1, 12567, Note_on_c, 0, 84, 0
1, 12567, Note_on_c, 0, 83, 114
1, 12637, Note_on_c, 0, 83, 0
1, 12637, Note_on_c, 0, 80, 112
1, 12707, Note_on_c, 0, 80, 0
1, 12707, Note_on_c, 0, 79, 110
1, 12777, Note_on_c, 0, 79, 0
1, 12777, Note_on_c, 0, 77, 108
1, 12847, Note_on_c, 0, 77, 0
1, 12847, Note_on_c, 0, 75, 106
1, 12918, Note_on_c, 0, 75, 0
1, 12918, Note_on_c, 0, 74, 104
1, 12989, Note_on_c, 0, 74, 0
1, 12989, Note_on_c, 0, 55, 0
1, 12989, Note_on_c, 0, 72, 102
1, 12992, Note_on_c, 0, 43, 0
1, 12992, Note_on_c, 0, 57, 88
1, 13061, Note_on_c, 0, 57, 0
1, 13061, Note_on_c, 0, 72, 0
1, 13061, Note_on_c, 0, 71, 100
1, 13064, Note_on_c, 0, 59, 91
1, 13132, Note_on_c, 0, 59, 0
1, 13132, Note_on_c, 0, 71, 0
1, 13132, Note_on_c, 0, 72, 114
1, 13135, Note_on_c, 0, 60, 93
1, 13243, Note_on_c, 0, 60, 0
1, 13243, Note_on_c, 0, 72, 0
1, 13429, Note_on_c, 0, 67, 104
1, 13429, Note_on_c, 0, 43, 77
1, 13429, Note_on_c, 0, 55, 87
1, 13552, Note_on_c, 0, 55, 0
1, 13552, Note_on_c, 0, 43, 0
1, 13552, Note_on_c, 0, 67, 0
1, 13756, Note_on_c, 0, 63, 93
1, 13756, Note_on_c, 0, 39, 73
1, 13756, Note_on_c, 0, 51, 83
1, 13885, Note_on_c, 0, 51, 0
1, 13885, Note_on_c, 0, 39, 0
1, 13885, Note_on_c, 0, 63, 0
1, 14099, Note_on_c, 0, 60, 85
1, 14099, Note_on_c, 0, 36, 69
1, 14099, Note_on_c, 0, 48, 78
1, 14261, Note_on_c, 0, 48, 0
1, 14261, Note_on_c, 0, 36, 0
1, 14261, Note_on_c, 0, 60, 0
1, 14531, Note_on_c, 0, 55, 81
1, 14531, Note_on_c, 0, 31, 67
1, 14531, Note_on_c, 0, 43, 75
1, 15866, Note_on_c, 0, 43, 0
1, 15866, Note_on_c, 0, 55, 0
1, 15866, Note_on_c, 0, 64, 58
1, 15869, Note_on_c, 0, 31, 0
1, 15869, Note_on_c, 0, 36, 51
1, 15869, Note_on_c, 0, 48, 51
1, 15936, Note_on_c, 0, 60, 54
1, 15971, Note_on_c, 0, 64, 0
1, 16006, Note_on_c, 0, 60, 0
1, 16006, Note_on_c, 0, 48, 0
1, 16006, Note_on_c, 0, 64, 58
1, 16009, Note_on_c, 0, 48, 52
1, 16076, Note_on_c, 0, 60, 54
1, 16076, Note_on_c, 0, 55, 47
1, 16111, Note_on_c, 0, 64, 0
1, 16146, Note_on_c, 0, 60, 0
1, 16146, Note_on_c, 0, 55, 0
1, 16146, Note_on_c, 0, 64, 58
1, 16149, Note_on_c, 0, 48, 0
1, 16149, Note_on_c, 0, 48, 52
1, 16216, Note_on_c, 0, 60, 54
1, 16216, Note_on_c, 0, 55, 48
1, 16251, Note_on_c, 0, 64, 0
1, 16285, Note_on_c, 0, 60, 0
1, 16285, Note_on_c, 0, 55, 0
1, 16285, Note_on_c, 0, 64, 57
1, 16288, Note_on_c, 0, 48, 0
1, 16288, Note_on_c, 0, 48, 52
1, 16355, Note_on_c, 0, 60, 54
1, 16355, Note_on_c, 0, 55, 48
1, 16390, Note_on_c, 0, 64, 0
1, 16424, Note_on_c, 0, 60, 0
1, 16424, Note_on_c, 0, 55, 0
1, 16424, Note_on_c, 0, 64, 57
1, 16427, Note_on_c, 0, 48, 0
1, 16427, Note_on_c, 0, 48, 52
1, 16494, Note_on_c, 0, 60, 54
1, 16494, Note_on_c, 0, 55, 47
1, 16529, Note_on_c, 0, 64, 0
1, 16564, Note_on_c, 0, 60, 0
1, 16564, Note_on_c, 0, 55, 0
1, 16564, Note_on_c, 0, 64, 58
1, 16567, Note_on_c, 0, 48, 0
1, 16567, Note_on_c, 0, 48, 52
1, 16633, Note_on_c, 0, 60, 54
1, 16633, Note_on_c, 0, 55, 48
1, 16668, Note_on_c, 0, 64, 0
1, 16703, Note_on_c, 0, 60, 0
1, 16703, Note_on_c, 0, 55, 0
1, 16703, Note_on_c, 0, 64, 57
1, 16706, Note_on_c, 0, 48, 0
1, 16706, Note_on_c, 0, 48, 52
1, 16773, Note_on_c, 0, 60, 54
1, 16773, Note_on_c, 0, 55, 48
1, 16808, Note_on_c, 0, 64, 0
1, 16843, Note_on_c, 0, 60, 0
1, 16843, Note_on_c, 0, 55, 0
1, 16843, Note_on_c, 0, 64, 57
1, 16846, Note_on_c, 0, 48, 0
1, 16846, Note_on_c, 0, 48, 52
1, 16913, Note_on_c, 0, 60, 54
1, 16913, Note_on_c, 0, 55, 46
1, 16948, Note_on_c, 0, 64, 0
1, 16983, Note_on_c, 0, 60, 0
1, 16983, Note_on_c, 0, 55, 0
1, 16983, Note_on_c, 0, 64, 58
1, 16986, Note_on_c, 0, 48, 0
1, 16986, Note_on_c, 0, 36, 0
1, 16986, Note_on_c, 0, 48, 52
1, 17053, Note_on_c, 0, 60, 54
1, 17053, Note_on_c, 0, 55, 47
1, 17088, Note_on_c, 0, 64, 0
1, 17123, Note_on_c, 0, 55, 0
1, 17123, Note_on_c, 0, 60, 0
1, 17123, Note_on_c, 0, 64, 58
1, 17126, Note_on_c, 0, 48, 0
1, 17126, Note_on_c, 0, 48, 52
1, 17193, Note_on_c, 0, 60, 54
1, 17193, Note_on_c, 0, 55, 47
1, 17228, Note_on_c, 0, 64, 0
1, 17263, Note_on_c, 0, 55, 0
1, 17263, Note_on_c, 0, 60, 0
1, 17263, Note_on_c, 0, 64, 58
1, 17266, Note_on_c, 0, 48, 0
1, 17266, Note_on_c, 0, 48, 52
1, 17332, Note_on_c, 0, 60, 54
1, 17332, Note_on_c, 0, 55, 48
1, 17367, Note_on_c, 0, 64, 0
1, 17401, Note_on_c, 0, 55, 0
1, 17401, Note_on_c, 0, 60, 0
1, 17401, Note_on_c, 0, 64, 57
1, 17404, Note_on_c, 0, 48, 0
1, 17404, Note_on_c, 0, 48, 52
1, 17471, Note_on_c, 0, 60, 54
1, 17471, Note_on_c, 0, 55, 48
1, 17505, Note_on_c, 0, 64, 0
1, 17540, Note_on_c, 0, 55, 0
1, 17540, Note_on_c, 0, 60, 0
1, 17540, Note_on_c, 0, 64, 57
1, 17543, Note_on_c, 0, 48, 0
1, 17543, Note_on_c, 0, 48, 52
1, 17609, Note_on_c, 0, 60, 54
1, 17609, Note_on_c, 0, 55, 47
1, 17644, Note_on_c, 0, 64, 0
1, 17679, Note_on_c, 0, 55, 0
1, 17679, Note_on_c, 0, 60, 0
1, 17679, Note_on_c, 0, 64, 58
1, 17682, Note_on_c, 0, 48, 0
1, 17682, Note_on_c, 0, 48, 52
1, 17748, Note_on_c, 0, 60, 54
1, 17748, Note_on_c, 0, 55, 48
1, 17782, Note_on_c, 0, 64, 0
1, 17817, Note_on_c, 0, 55, 0
1, 17817, Note_on_c, 0, 60, 0
1, 17817, Note_on_c, 0, 66, 57
1, 17820, Note_on_c, 0, 48, 0
1, 17820, Note_on_c, 0, 48, 52
1, 17887, Note_on_c, 0, 62, 54
1, 17887, Note_on_c, 0, 57, 48
1, 17922, Note_on_c, 0, 66, 0
1, 17957, Note_on_c, 0, 57, 0
1, 17957, Note_on_c, 0, 62, 0
1, 17957, Note_on_c, 0, 66, 57
1, 17960, Note_on_c, 0, 48, 0
1, 17960, Note_on_c, 0, 48, 52
1, 18027, Note_on_c, 0, 62, 54
1, 18027, Note_on_c, 0, 57, 46
1, 18062, Note_on_c, 0, 66, 0
1, 18097, Note_on_c, 0, 57, 0
1, 18097, Note_on_c, 0, 62, 0
1, 18097, Note_on_c, 0, 67, 67
1, 18100, Note_on_c, 0, 48, 0
1, 18100, Note_on_c, 0, 47, 47
1, 18100, Note_on_c, 0, 50, 52
1, 18167, Note_on_c, 0, 55, 46
1, 18237, Note_on_c, 0, 55, 0
1, 18237, Note_on_c, 0, 50, 0
1, 18237, Note_on_c, 0, 47, 0
1, 18240, Note_on_c, 0, 47, 47
1, 18240, Note_on_c, 0, 50, 52
1, 18307, Note_on_c, 0, 55, 46
1, 18377, Note_on_c, 0, 55, 0
1, 18377, Note_on_c, 0, 50, 0
1, 18377, Note_on_c, 0, 47, 0
1, 18380, Note_on_c, 0, 47, 47
1, 18380, Note_on_c, 0, 50, 52
1, 18447, Note_on_c, 0, 55, 46
1, 18517, Note_on_c, 0, 55, 0
1, 18517, Note_on_c, 0, 67, 0
1, 18517, Note_on_c, 0, 71, 61
1, 18520, Note_on_c, 0, 50, 0
1, 18520, Note_on_c, 0, 47, 0
1, 18520, Note_on_c, 0, 47, 47
1, 18523, Note_on_c, 0, 50, 52
1, 18587, Note_on_c, 0, 71, 0
1, 18587, Note_on_c, 0, 69, 61
1, 18587, Note_on_c, 0, 55, 46
1, 18657, Note_on_c, 0, 55, 0
1, 18657, Note_on_c, 0, 69, 0
1, 18657, Note_on_c, 0, 67, 66
1, 18660, Note_on_c, 0, 50, 0
1, 18660, Note_on_c, 0, 47, 0
1, 18660, Note_on_c, 0, 47, 47
1, 18663, Note_on_c, 0, 50, 52
1, 18727, Note_on_c, 0, 67, 0
1, 18727, Note_on_c, 0, 55, 46
1, 18797, Note_on_c, 0, 55, 0
1, 18797, Note_on_c, 0, 50, 0
1, 18797, Note_on_c, 0, 47, 0
1, 18800, Note_on_c, 0, 47, 47
1, 18800, Note_on_c, 0, 50, 52
1, 18867, Note_on_c, 0, 55, 46
1, 18937, Note_on_c, 0, 55, 0
1, 18937, Note_on_c, 0, 50, 0
1, 18937, Note_on_c, 0, 47, 0
1, 18940, Note_on_c, 0, 47, 47
1, 18940, Note_on_c, 0, 50, 52
1, 19007, Note_on_c, 0, 55, 46
1, 19077, Note_on_c, 0, 55, 0
1, 19077, Note_on_c, 0, 50, 0
1, 19077, Note_on_c, 0, 47, 0
1, 19080, Note_on_c, 0, 47, 47
1, 19080, Note_on_c, 0, 50, 52
1, 19149, Note_on_c, 0, 55, 46
1, 19186, Note_on_c, 0, 85, 67
1, 19222, Note_on_c, 0, 85, 0
1, 19222, Note_on_c, 0, 55, 0
1, 19222, Note_on_c, 0, 86, 78
1, 19225, Note_on_c, 0, 50, 0
1, 19225, Note_on_c, 0, 47, 0
1, 19225, Note_on_c, 0, 47, 47
1, 19228, Note_on_c, 0, 50, 52
1, 19293, Note_on_c, 0, 55, 46
1, 19364, Note_on_c, 0, 55, 0
1, 19364, Note_on_c, 0, 50, 0
1, 19364, Note_on_c, 0, 47, 0
1, 19367, Note_on_c, 0, 47, 47
1, 19367, Note_on_c, 0, 50, 52
1, 19434, Note_on_c, 0, 55, 46
1, 19505, Note_on_c, 0, 55, 0
1, 19505, Note_on_c, 0, 50, 0
1, 19505, Note_on_c, 0, 47, 0
1, 19508, Note_on_c, 0, 47, 47
1, 19508, Note_on_c, 0, 50, 52
1, 19576, Note_on_c, 0, 86, 0
1, 19576, Note_on_c, 0, 84, 69
1, 19576, Note_on_c, 0, 55, 46
1, 19647, Note_on_c, 0, 55, 0
1, 19647, Note_on_c, 0, 84, 0
1, 19647, Note_on_c, 0, 83, 68
1, 19650, Note_on_c, 0, 50, 0
1, 19650, Note_on_c, 0, 47, 0
1, 19650, Note_on_c, 0, 47, 47
1, 19653, Note_on_c, 0, 50, 52
1, 19718, Note_on_c, 0, 83, 0
1, 19718, Note_on_c, 0, 81, 66
1, 19718, Note_on_c, 0, 55, 46
1, 19789, Note_on_c, 0, 55, 0
1, 19789, Note_on_c, 0, 81, 0
1, 19789, Note_on_c, 0, 79, 65
1, 19792, Note_on_c, 0, 50, 0
1, 19792, Note_on_c, 0, 47, 0
1, 19792, Note_on_c, 0, 47, 47
1, 19795, Note_on_c, 0, 50, 52
1, 19860, Note_on_c, 0, 55, 46
1, 19931, Note_on_c, 0, 55, 0
1, 19931, Note_on_c, 0, 50, 0
1, 19931, Note_on_c, 0, 79, 0
1, 19934, Note_on_c, 0, 47, 0
1, 19934, Note_on_c, 0, 47, 47
1, 19934, Note_on_c, 0, 50, 52
1, 20001, Note_on_c, 0, 55, 46
1, 20072, Note_on_c, 0, 55, 0
1, 20072, Note_on_c, 0, 50, 0
1, 20072, Note_on_c, 0, 47, 0
1, 20075, Note_on_c, 0, 47, 47
1, 20075, Note_on_c, 0, 50, 52
1, 20143, Note_on_c, 0, 55, 46
1, 20214, Note_on_c, 0, 55, 0
1, 20214, Note_on_c, 0, 50, 0
1, 20214, Note_on_c, 0, 47, 0
1, 20217, Note_on_c, 0, 47, 47
1, 20217, Note_on_c, 0, 50, 52
1, 20286, Note_on_c, 0, 55, 46
1, 20358, Note_on_c, 0, 55, 0
1, 20358, Note_on_c, 0, 50, 0
1, 20358, Note_on_c, 0, 65, 61
1, 20361, Note_on_c, 0, 47, 0
1, 20361, Note_on_c, 0, 38, 54
1, 20361, Note_on_c, 0, 50, 54
1, 20428, Note_on_c, 0, 62, 57
1, 20463, Note_on_c, 0, 65, 0
1, 20498, Note_on_c, 0, 62, 0
1, 20498, Note_on_c, 0, 50, 0
1, 20498, Note_on_c, 0, 65, 61
1, 20501, Note_on_c, 0, 50, 55
1, 20568, Note_on_c, 0, 62, 57
1, 20568, Note_on_c, 0, 57, 49
1, 20603, Note_on_c, 0, 65, 0
1, 20638, Note_on_c, 0, 62, 0
1, 20638, Note_on_c, 0, 57, 0
1, 20638, Note_on_c, 0, 65, 61
1, 20641, Note_on_c, 0, 50, 0
1, 20641, Note_on_c, 0, 50, 55
1, 20707, Note_on_c, 0, 62, 57
1, 20707, Note_on_c, 0, 57, 50
1, 20742, Note_on_c, 0, 65, 0
1, 20777, Note_on_c, 0, 62, 0
1, 20777, Note_on_c, 0, 57, 0
1, 20777, Note_on_c, 0, 65, 60
1, 20780, Note_on_c, 0, 50, 0
1, 20780, Note_on_c, 0, 50, 55
1, 20846, Note_on_c, 0, 62, 57
1, 20846, Note_on_c, 0, 57, 50
1, 20881, Note_on_c, 0, 65, 0
1, 20915, Note_on_c, 0, 62, 0
1, 20915, Note_on_c, 0, 57, 0
1, 20915, Note_on_c, 0, 65, 60
1, 20918, Note_on_c, 0, 50, 0
1, 20918, Note_on_c, 0, 50, 55
1, 20985, Note_on_c, 0, 62, 57
1, 20985, Note_on_c, 0, 57, 49
1, 21019, Note_on_c, 0, 65, 0
1, 21054, Note_on_c, 0, 62, 0
1, 21054, Note_on_c, 0, 57, 0
1, 21054, Note_on_c, 0, 65, 62
1, 21057, Note_on_c, 0, 50, 0
1, 21057, Note_on_c, 0, 50, 55
1, 21123, Note_on_c, 0, 62, 57
1, 21123, Note_on_c, 0, 57, 50
1, 21158, Note_on_c, 0, 65, 0
1, 21193, Note_on_c, 0, 62, 0
1, 21193, Note_on_c, 0, 57, 0
1, 21193, Note_on_c, 0, 65, 61
1, 21196, Note_on_c, 0, 50, 0
1, 21196, Note_on_c, 0, 50, 55
1, 21263, Note_on_c, 0, 62, 58
1, 21263, Note_on_c, 0, 57, 51
1, 21298, Note_on_c, 0, 65, 0
1, 21334, Note_on_c, 0, 62, 0
1, 21334, Note_on_c, 0, 57, 0
1, 21334, Note_on_c, 0, 65, 61
1, 21337, Note_on_c, 0, 50, 0
1, 21337, Note_on_c, 0, 50, 56
1, 21404, Note_on_c, 0, 62, 58
1, 21404, Note_on_c, 0, 57, 49
1, 21439, Note_on_c, 0, 65, 0
1, 21475, Note_on_c, 0, 62, 0
1, 21475, Note_on_c, 0, 57, 0
1, 21475, Note_on_c, 0, 65, 62
1, 21478, Note_on_c, 0, 50, 0
1, 21478, Note_on_c, 0, 38, 0
1, 21478, Note_on_c, 0, 50, 56
1, 21545, Note_on_c, 0, 62, 58
1, 21545, Note_on_c, 0, 57, 50
1, 21580, Note_on_c, 0, 65, 0
1, 21615, Note_on_c, 0, 57, 0
1, 21615, Note_on_c, 0, 62, 0
1, 21615, Note_on_c, 0, 65, 62
1, 21618, Note_on_c, 0, 50, 0
1, 21618, Note_on_c, 0, 50, 56
1, 21685, Note_on_c, 0, 62, 58
1, 21685, Note_on_c, 0, 57, 50
1, 21720, Note_on_c, 0, 65, 0
1, 21755, Note_on_c, 0, 57, 0
1, 21755, Note_on_c, 0, 62, 0
1, 21755, Note_on_c, 0, 65, 63
1, 21758, Note_on_c, 0, 50, 0
1, 21758, Note_on_c, 0, 50, 56
1, 21824, Note_on_c, 0, 62, 58
1, 21824, Note_on_c, 0, 57, 51
1, 21859, Note_on_c, 0, 65, 0
1, 21894, Note_on_c, 0, 57, 0
1, 21894, Note_on_c, 0, 62, 0
1, 21894, Note_on_c, 0, 65, 62
1, 21897, Note_on_c, 0, 50, 0
1, 21897, Note_on_c, 0, 50, 56
1, 21963, Note_on_c, 0, 62, 59
1, 21963, Note_on_c, 0, 57, 51
1, 21998, Note_on_c, 0, 65, 0
1, 22033, Note_on_c, 0, 57, 0
1, 22033, Note_on_c, 0, 62, 0
1, 22033, Note_on_c, 0, 65, 62
1, 22036, Note_on_c, 0, 50, 0
1, 22036, Note_on_c, 0, 50, 57
1, 22103, Note_on_c, 0, 62, 59
1, 22103, Note_on_c, 0, 57, 50
1, 22138, Note_on_c, 0, 65, 0
1, 22173, Note_on_c, 0, 57, 0
1, 22173, Note_on_c, 0, 62, 0
1, 22173, Note_on_c, 0, 65, 63
1, 22176, Note_on_c, 0, 50, 0
1, 22176, Note_on_c, 0, 50, 57
1, 22244, Note_on_c, 0, 62, 59
1, 22244, Note_on_c, 0, 57, 52
1, 22279, Note_on_c, 0, 65, 0
1, 22314, Note_on_c, 0, 57, 0
1, 22314, Note_on_c, 0, 62, 0
1, 22314, Note_on_c, 0, 68, 62
1, 22317, Note_on_c, 0, 50, 0
1, 22317, Note_on_c, 0, 50, 57
1, 22385, Note_on_c, 0, 64, 59
1, 22385, Note_on_c, 0, 59, 52
1, 22420, Note_on_c, 0, 68, 0
1, 22455, Note_on_c, 0, 59, 0
1, 22455, Note_on_c, 0, 64, 0
1, 22455, Note_on_c, 0, 68, 63
1, 22458, Note_on_c, 0, 50, 0
1, 22458, Note_on_c, 0, 50, 57
1, 22526, Note_on_c, 0, 64, 59
1, 22526, Note_on_c, 0, 59, 50
1, 22561, Note_on_c, 0, 68, 0
1, 22596, Note_on_c, 0, 59, 0
1, 22596, Note_on_c, 0, 64, 0
1, 22596, Note_on_c, 0, 69, 76
1, 22599, Note_on_c, 0, 50, 0
1, 22599, Note_on_c, 0, 48, 51
1, 22599, Note_on_c, 0, 52, 58
1, 22666, Note_on_c, 0, 57, 50
1, 22736, Note_on_c, 0, 57, 0
1, 22736, Note_on_c, 0, 52, 0
1, 22736, Note_on_c, 0, 48, 0
1, 22739, Note_on_c, 0, 48, 51
1, 22739, Note_on_c, 0, 52, 58
1, 22806, Note_on_c, 0, 57, 50
1, 22876, Note_on_c, 0, 57, 0
1, 22876, Note_on_c, 0, 52, 0
1, 22876, Note_on_c, 0, 48, 0
1, 22879, Note_on_c, 0, 48, 51
1, 22879, Note_on_c, 0, 52, 58
1, 22946, Note_on_c, 0, 57, 50
1, 23016, Note_on_c, 0, 57, 0
1, 23016, Note_on_c, 0, 69, 0
1, 23016, Note_on_c, 0, 72, 69
1, 23019, Note_on_c, 0, 52, 0
1, 23019, Note_on_c, 0, 48, 0
1, 23019, Note_on_c, 0, 48, 51
1, 23022, Note_on_c, 0, 52, 58
1, 23086, Note_on_c, 0, 72, 0
1, 23086, Note_on_c, 0, 71, 69
1, 23086, Note_on_c, 0, 57, 50
1, 23156, Note_on_c, 0, 57, 0
1, 23156, Note_on_c, 0, 71, 0
1, 23156, Note_on_c, 0, 69, 74
1, 23159, Note_on_c, 0, 52, 0
1, 23159, Note_on_c, 0, 48, 0
1, 23159, Note_on_c, 0, 48, 51
1, 23162, Note_on_c, 0, 52, 58
1, 23226, Note_on_c, 0, 69, 0
1, 23226, Note_on_c, 0, 57, 50
1, 23296, Note_on_c, 0, 57, 0
1, 23296, Note_on_c, 0, 52, 0
1, 23296, Note_on_c, 0, 48, 0
1, 23299, Note_on_c, 0, 48, 51
1, 23299, Note_on_c, 0, 52, 58
1, 23366, Note_on_c, 0, 57, 50
1, 23436, Note_on_c, 0, 57, 0
1, 23436, Note_on_c, 0, 52, 0
1, 23436, Note_on_c, 0, 48, 0
1, 23439, Note_on_c, 0, 48, 51
1, 23439, Note_on_c, 0, 52, 58
1, 23506, Note_on_c, 0, 57, 50
1, 23576, Note_on_c, 0, 57, 0
1, 23576, Note_on_c, 0, 52, 0
1, 23576, Note_on_c, 0, 48, 0
1, 23579, Note_on_c, 0, 48, 51
1, 23579, Note_on_c, 0, 52, 58
1, 23649, Note_on_c, 0, 57, 50
1, 23685, Note_on_c, 0, 87, 76
1, 23721, Note_on_c, 0, 87, 0
1, 23721, Note_on_c, 0, 57, 0
1, 23721, Note_on_c, 0, 88, 89
1, 23724, Note_on_c, 0, 52, 0
1, 23724, Note_on_c, 0, 48, 0
1, 23724, Note_on_c, 0, 48, 51
1, 23727, Note_on_c, 0, 52, 58
1, 23792, Note_on_c, 0, 57, 50
1, 23863, Note_on_c, 0, 57, 0
1, 23863, Note_on_c, 0, 52, 0
1, 23863, Note_on_c, 0, 48, 0
1, 23866, Note_on_c, 0, 48, 51
1, 23866, Note_on_c, 0, 52, 58
1, 23934, Note_on_c, 0, 57, 50
1, 24005, Note_on_c, 0, 57, 0
1, 24005, Note_on_c, 0, 52, 0
1, 24005, Note_on_c, 0, 48, 0
1, 24008, Note_on_c, 0, 48, 51
1, 24008, Note_on_c, 0, 52, 58
1, 24076, Note_on_c, 0, 88, 0
1, 24076, Note_on_c, 0, 86, 80
1, 24076, Note_on_c, 0, 57, 50
1, 24147, Note_on_c, 0, 57, 0
1, 24147, Note_on_c, 0, 86, 0
1, 24147, Note_on_c, 0, 84, 79
1, 24150, Note_on_c, 0, 52, 0
1, 24150, Note_on_c, 0, 48, 0
1, 24150, Note_on_c, 0, 48, 51
1, 24153, Note_on_c, 0, 52, 60
1, 24218, Note_on_c, 0, 84, 0
1, 24218, Note_on_c, 0, 83, 78
1, 24218, Note_on_c, 0, 57, 52
1, 24288, Note_on_c, 0, 57, 0
1, 24288, Note_on_c, 0, 83, 0
1, 24288, Note_on_c, 0, 81, 78
1, 24291, Note_on_c, 0, 52, 0
1, 24291, Note_on_c, 0, 48, 0
1, 24291, Note_on_c, 0, 48, 53
1, 24294, Note_on_c, 0, 52, 60
1, 24359, Note_on_c, 0, 57, 52
1, 24430, Note_on_c, 0, 57, 0
1, 24430, Note_on_c, 0, 52, 0
1, 24430, Note_on_c, 0, 81, 0
1, 24433, Note_on_c, 0, 48, 0
1, 24433, Note_on_c, 0, 48, 53
1, 24433, Note_on_c, 0, 52, 62
1, 24501, Note_on_c, 0, 57, 52
1, 24572, Note_on_c, 0, 57, 0
1, 24572, Note_on_c, 0, 52, 0
1, 24572, Note_on_c, 0, 48, 0
1, 24575, Note_on_c, 0, 48, 54
1, 24575, Note_on_c, 0, 52, 62
1, 24643, Note_on_c, 0, 57, 54
1, 24714, Note_on_c, 0, 57, 0
1, 24714, Note_on_c, 0, 52, 0
1, 24714, Note_on_c, 0, 48, 0
1, 24717, Note_on_c, 0, 48, 56
1, 24717, Note_on_c, 0, 52, 63
1, 24786, Note_on_c, 0, 57, 54
1, 24822, Note_on_c, 0, 87, 87
1, 24858, Note_on_c, 0, 87, 0
1, 24858, Note_on_c, 0, 57, 0
1, 24858, Note_on_c, 0, 88, 106
1, 24861, Note_on_c, 0, 52, 0
1, 24861, Note_on_c, 0, 48, 0
1, 24861, Note_on_c, 0, 48, 58
1, 24864, Note_on_c, 0, 52, 66
1, 24929, Note_on_c, 0, 58, 57
1, 25000, Note_on_c, 0, 58, 0
1, 25000, Note_on_c, 0, 52, 0
1, 25000, Note_on_c, 0, 48, 0
1, 25003, Note_on_c, 0, 48, 59
1, 25003, Note_on_c, 0, 52, 66
1, 25071, Note_on_c, 0, 58, 58
1, 25142, Note_on_c, 0, 58, 0
1, 25142, Note_on_c, 0, 52, 0
1, 25142, Note_on_c, 0, 48, 0
1, 25145, Note_on_c, 0, 48, 60
1, 25145, Note_on_c, 0, 52, 68
1, 25213, Note_on_c, 0, 88, 0
1, 25213, Note_on_c, 0, 86, 97
1, 25213, Note_on_c, 0, 58, 59
1, 25284, Note_on_c, 0, 58, 0
1, 25284, Note_on_c, 0, 86, 0
1, 25284, Note_on_c, 0, 84, 96
1, 25287, Note_on_c, 0, 52, 0
1, 25287, Note_on_c, 0, 48, 0
1, 25287, Note_on_c, 0, 48, 60
1, 25290, Note_on_c, 0, 52, 68
1, 25355, Note_on_c, 0, 84, 0
1, 25355, Note_on_c, 0, 83, 92
1, 25355, Note_on_c, 0, 58, 59
1, 25426, Note_on_c, 0, 58, 0
1, 25426, Note_on_c, 0, 83, 0
1, 25426, Note_on_c, 0, 82, 92
1, 25429, Note_on_c, 0, 52, 0
1, 25429, Note_on_c, 0, 48, 0
1, 25429, Note_on_c, 0, 48, 62
1, 25432, Note_on_c, 0, 52, 71
1, 25498, Note_on_c, 0, 58, 61
1, 25569, Note_on_c, 0, 58, 0
1, 25569, Note_on_c, 0, 52, 0
1, 25569, Note_on_c, 0, 82, 0
1, 25572, Note_on_c, 0, 48, 0
1, 25572, Note_on_c, 0, 48, 62
1, 25572, Note_on_c, 0, 52, 72
1, 25640, Note_on_c, 0, 58, 61
1, 25711, Note_on_c, 0, 58, 0
1, 25711, Note_on_c, 0, 52, 0
1, 25711, Note_on_c, 0, 48, 0
1, 25714, Note_on_c, 0, 48, 63
1, 25714, Note_on_c, 0, 52, 72
1, 25782, Note_on_c, 0, 58, 63
1, 25853, Note_on_c, 0, 58, 0
1, 25853, Note_on_c, 0, 52, 0
1, 25853, Note_on_c, 0, 48, 0
1, 25856, Note_on_c, 0, 48, 64
1, 25856, Note_on_c, 0, 52, 74
1, 25926, Note_on_c, 0, 58, 63
1, 26000, Note_on_c, 0, 58, 0
1, 26000, Note_on_c, 0, 52, 0
1, 26000, Note_on_c, 0, 83, 77
1, 26003, Note_on_c, 0, 48, 0
1, 26003, Note_on_c, 0, 47, 61
1, 26070, Note_on_c, 0, 51, 56
1, 26081, Note_on_c, 0, 47, 0
1, 26140, Note_on_c, 0, 54, 56
1, 26151, Note_on_c, 0, 51, 0
1, 26210, Note_on_c, 0, 59, 56
1, 26221, Note_on_c, 0, 54, 0
1, 26280, Note_on_c, 0, 59, 0
1, 26280, Note_on_c, 0, 47, 62
1, 26350, Note_on_c, 0, 81, 75
1, 26350, Note_on_c, 0, 51, 56
1, 26361, Note_on_c, 0, 47, 0
1, 26361, Note_on_c, 0, 83, 0
1, 26420, Note_on_c, 0, 79, 74
1, 26420, Note_on_c, 0, 54, 56
1, 26431, Note_on_c, 0, 81, 0
1, 26431, Note_on_c, 0, 51, 0
1, 26490, Note_on_c, 0, 78, 72
1, 26490, Note_on_c, 0, 59, 56
1, 26501, Note_on_c, 0, 79, 0
1, 26501, Note_on_c, 0, 54, 0
1, 26560, Note_on_c, 0, 59, 0
1, 26560, Note_on_c, 0, 79, 74
1, 26560, Note_on_c, 0, 47, 60
1, 26571, Note_on_c, 0, 78, 0
1, 26630, Note_on_c, 0, 78, 73
1, 26630, Note_on_c, 0, 52, 56
1, 26641, Note_on_c, 0, 47, 0
1, 26641, Note_on_c, 0, 79, 0
1, 26700, Note_on_c, 0, 76, 72
1, 26700, Note_on_c, 0, 55, 56
1, 26711, Note_on_c, 0, 78, 0
1, 26711, Note_on_c, 0, 52, 0
1, 26770, Note_on_c, 0, 75, 71
1, 26770, Note_on_c, 0, 59, 56
1, 26781, Note_on_c, 0, 76, 0
1, 26781, Note_on_c, 0, 55, 0
1, 26840, Note_on_c, 0, 59, 0
1, 26840, Note_on_c, 0, 76, 71
1, 26840, Note_on_c, 0, 47, 61
1, 26851, Note_on_c, 0, 75, 0
1, 26910, Note_on_c, 0, 79, 73
1, 26910, Note_on_c, 0, 52, 56
1, 26921, Note_on_c, 0, 47, 0
1, 26921, Note_on_c, 0, 76, 0
1, 26980, Note_on_c, 0, 78, 71
1, 26980, Note_on_c, 0, 55, 56
1, 26991, Note_on_c, 0, 79, 0
1, 26991, Note_on_c, 0, 52, 0
1, 27050, Note_on_c, 0, 76, 71
1, 27050, Note_on_c, 0, 59, 56
1, 27061, Note_on_c, 0, 78, 0
1, 27061, Note_on_c, 0, 55, 0
1, 27120, Note_on_c, 0, 59, 0
1, 27120, Note_on_c, 0, 75, 71
1, 27120, Note_on_c, 0, 47, 61
1, 27131, Note_on_c, 0, 76, 0
1, 27190, Note_on_c, 0, 73, 70
1, 27190, Note_on_c, 0, 54, 56
1, 27201, Note_on_c, 0, 47, 0
1, 27201, Note_on_c, 0, 75, 0
1, 27260, Note_on_c, 0, 71, 69
1, 27260, Note_on_c, 0, 57, 56
1, 27271, Note_on_c, 0, 73, 0
1, 27271, Note_on_c, 0, 54, 0
1, 27330, Note_on_c, 0, 70, 68
1, 27330, Note_on_c, 0, 59, 56
1, 27342, Note_on_c, 0, 71, 0
1, 27342, Note_on_c, 0, 57, 0
1, 27400, Note_on_c, 0, 59, 0
1, 27400, Note_on_c, 0, 71, 70
1, 27400, Note_on_c, 0, 47, 61
1, 27412, Note_on_c, 0, 70, 0
1, 27470, Note_on_c, 0, 73, 70
1, 27470, Note_on_c, 0, 54, 56
1, 27482, Note_on_c, 0, 47, 0
1, 27482, Note_on_c, 0, 71, 0
1, 27541, Note_on_c, 0, 74, 70
1, 27541, Note_on_c, 0, 57, 56
1, 27553, Note_on_c, 0, 73, 0
1, 27553, Note_on_c, 0, 54, 0
1, 27611, Note_on_c, 0, 75, 71
1, 27611, Note_on_c, 0, 59, 56
1, 27623, Note_on_c, 0, 74, 0
1, 27623, Note_on_c, 0, 57, 0
1, 27682, Note_on_c, 0, 59, 0
1, 27682, Note_on_c, 0, 76, 71
1, 27682, Note_on_c, 0, 47, 61
1, 27694, Note_on_c, 0, 75, 0
1, 27752, Note_on_c, 0, 75, 71
1, 27752, Note_on_c, 0, 52, 56
1, 27764, Note_on_c, 0, 47, 0
1, 27764, Note_on_c, 0, 76, 0
1, 27823, Note_on_c, 0, 76, 72
1, 27823, Note_on_c, 0, 55, 56
1, 27835, Note_on_c, 0, 75, 0
1, 27835, Note_on_c, 0, 52, 0
1, 27894, Note_on_c, 0, 78, 72
1, 27894, Note_on_c, 0, 59, 56
1, 27906, Note_on_c, 0, 76, 0
1, 27906, Note_on_c, 0, 55, 0
1, 27965, Note_on_c, 0, 59, 0
1, 27965, Note_on_c, 0, 79, 70
1, 27965, Note_on_c, 0, 47, 61
1, 27977, Note_on_c, 0, 78, 0
1, 28036, Note_on_c, 0, 80, 71
1, 28036, Note_on_c, 0, 52, 56
1, 28048, Note_on_c, 0, 47, 0
1, 28048, Note_on_c, 0, 79, 0
1, 28107, Note_on_c, 0, 81, 73
1, 28107, Note_on_c, 0, 55, 56
1, 28119, Note_on_c, 0, 80, 0
1, 28119, Note_on_c, 0, 52, 0
1, 28178, Note_on_c, 0, 82, 74
1, 28178, Note_on_c, 0, 59, 56
1, 28190, Note_on_c, 0, 81, 0
1, 28190, Note_on_c, 0, 55, 0
1, 28249, Note_on_c, 0, 59, 0
1, 28249, Note_on_c, 0, 83, 76
1, 28249, Note_on_c, 0, 47, 61
1, 28261, Note_on_c, 0, 82, 0
1, 28320, Note_on_c, 0, 82, 74
1, 28320, Note_on_c, 0, 51, 56
1, 28332, Note_on_c, 0, 47, 0
1, 28332, Note_on_c, 0, 83, 0
1, 28390, Note_on_c, 0, 83, 74
1, 28390, Note_on_c, 0, 54, 56
1, 28402, Note_on_c, 0, 82, 0
1, 28402, Note_on_c, 0, 51, 0
1, 28461, Note_on_c, 0, 82, 71
1, 28461, Note_on_c, 0, 59, 56
1, 28472, Note_on_c, 0, 83, 0
1, 28472, Note_on_c, 0, 54, 0
1, 28531, Note_on_c, 0, 59, 0
1, 28531, Note_on_c, 0, 83, 73
1, 28531, Note_on_c, 0, 47, 61
1, 28543, Note_on_c, 0, 82, 0
1, 28601, Note_on_c, 0, 81, 73
1, 28601, Note_on_c, 0, 51, 56
1, 28613, Note_on_c, 0, 47, 0
1, 28613, Note_on_c, 0, 83, 0
1, 28671, Note_on_c, 0, 79, 72
1, 28671, Note_on_c, 0, 54, 56
1, 28683, Note_on_c, 0, 81, 0
1, 28683, Note_on_c, 0, 51, 0
1, 28741, Note_on_c, 0, 78, 71
1, 28741, Note_on_c, 0, 59, 56
1, 28753, Note_on_c, 0, 79, 0
1, 28753, Note_on_c, 0, 54, 0
1, 28811, Note_on_c, 0, 59, 0
1, 28811, Note_on_c, 0, 79, 73
1, 28811, Note_on_c, 0, 47, 61
1, 28823, Note_on_c, 0, 78, 0
1, 28881, Note_on_c, 0, 78, 72
1, 28881, Note_on_c, 0, 52, 56
1, 28893, Note_on_c, 0, 47, 0
1, 28893, Note_on_c, 0, 79, 0
1, 28951, Note_on_c, 0, 76, 70
1, 28951, Note_on_c, 0, 55, 56
1, 28963, Note_on_c, 0, 78, 0
1, 28963, Note_on_c, 0, 52, 0
1, 29021, Note_on_c, 0, 75, 71
1, 29021, Note_on_c, 0, 59, 56
1, 29033, Note_on_c, 0, 76, 0
1, 29033, Note_on_c, 0, 55, 0
1, 29091, Note_on_c, 0, 59, 0
1, 29091, Note_on_c, 0, 76, 71
1, 29091, Note_on_c, 0, 47, 62
1, 29103, Note_on_c, 0, 75, 0
1, 29161, Note_on_c, 0, 79, 74
1, 29161, Note_on_c, 0, 52, 56
1, 29173, Note_on_c, 0, 47, 0
1, 29173, Note_on_c, 0, 76, 0
1, 29231, Note_on_c, 0, 78, 71
1, 29231, Note_on_c, 0, 55, 56
1, 29243, Note_on_c, 0, 79, 0
1, 29243, Note_on_c, 0, 52, 0
1, 29301, Note_on_c, 0, 76, 71
1, 29301, Note_on_c, 0, 59, 56
1, 29313, Note_on_c, 0, 78, 0
1, 29313, Note_on_c, 0, 55, 0
1, 29371, Note_on_c, 0, 59, 0
1, 29371, Note_on_c, 0, 75, 71
1, 29371, Note_on_c, 0, 47, 61
1, 29383, Note_on_c, 0, 76, 0
1, 29441, Note_on_c, 0, 73, 70
1, 29441, Note_on_c, 0, 54, 56
1, 29453, Note_on_c, 0, 47, 0
1, 29453, Note_on_c, 0, 75, 0
1, 29511, Note_on_c, 0, 71, 69
1, 29511, Note_on_c, 0, 57, 56
1, 29523, Note_on_c, 0, 73, 0
1, 29523, Note_on_c, 0, 54, 0
1, 29581, Note_on_c, 0, 70, 68
1, 29581, Note_on_c, 0, 59, 56
1, 29593, Note_on_c, 0, 71, 0
1, 29593, Note_on_c, 0, 57, 0
1, 29651, Note_on_c, 0, 59, 0
1, 29651, Note_on_c, 0, 71, 70
1, 29651, Note_on_c, 0, 47, 61
1, 29663, Note_on_c, 0, 70, 0
1, 29721, Note_on_c, 0, 73, 71
1, 29721, Note_on_c, 0, 54, 57
1, 29733, Note_on_c, 0, 47, 0
1, 29733, Note_on_c, 0, 71, 0
1, 29791, Note_on_c, 0, 74, 71
1, 29791, Note_on_c, 0, 57, 57
1, 29803, Note_on_c, 0, 73, 0
1, 29803, Note_on_c, 0, 54, 0
1, 29861, Note_on_c, 0, 75, 73
1, 29861, Note_on_c, 0, 59, 57
1, 29873, Note_on_c, 0, 74, 0
1, 29873, Note_on_c, 0, 57, 0
1, 29931, Note_on_c, 0, 59, 0
1, 29931, Note_on_c, 0, 76, 73
1, 29931, Note_on_c, 0, 47, 63
1, 29943, Note_on_c, 0, 75, 0
1, 30001, Note_on_c, 0, 75, 73
1, 30001, Note_on_c, 0, 52, 57
1, 30013, Note_on_c, 0, 47, 0
1, 30013, Note_on_c, 0, 76, 0
1, 30071, Note_on_c, 0, 76, 75
1, 30071, Note_on_c, 0, 55, 58
1, 30083, Note_on_c, 0, 75, 0
1, 30083, Note_on_c, 0, 52, 0
1, 30141, Note_on_c, 0, 78, 75
1, 30141, Note_on_c, 0, 59, 58
1, 30153, Note_on_c, 0, 76, 0
1, 30153, Note_on_c, 0, 55, 0
1, 30211, Note_on_c, 0, 59, 0
1, 30211, Note_on_c, 0, 79, 77
1, 30211, Note_on_c, 0, 47, 63
1, 30223, Note_on_c, 0, 78, 0
1, 30281, Note_on_c, 0, 80, 79
1, 30281, Note_on_c, 0, 52, 58
1, 30293, Note_on_c, 0, 47, 0
1, 30293, Note_on_c, 0, 79, 0
1, 30351, Note_on_c, 0, 81, 81
1, 30351, Note_on_c, 0, 55, 58
1, 30363, Note_on_c, 0, 80, 0
1, 30363, Note_on_c, 0, 52, 0
1, 30425, Note_on_c, 0, 82, 83
1, 30425, Note_on_c, 0, 59, 59
1, 30437, Note_on_c, 0, 81, 0
1, 30437, Note_on_c, 0, 55, 0
1, 30498, Note_on_c, 0, 59, 0
1, 30498, Note_on_c, 0, 83, 89
1, 30498, Note_on_c, 0, 47, 65
1, 30505, Control_c, 0, 64, 0
1, 30510, Note_on_c, 0, 82, 0
1, 30535, Control_c, 0, 64, 127
1, 30568, Note_on_c, 0, 47, 0
1, 30568, Note_on_c, 0, 83, 0
1, 30568, Note_on_c, 0, 78, 81
1, 30571, Note_on_c, 0, 51, 59
1, 30638, Note_on_c, 0, 51, 0
1, 30638, Note_on_c, 0, 78, 0
1, 30638, Note_on_c, 0, 75, 82
1, 30641, Note_on_c, 0, 54, 59
1, 30708, Note_on_c, 0, 54, 0
1, 30708, Note_on_c, 0, 75, 0
1, 30708, Note_on_c, 0, 71, 82
1, 30711, Note_on_c, 0, 59, 59
1, 30778, Note_on_c, 0, 59, 0
1, 30778, Note_on_c, 0, 71, 0
1, 30778, Note_on_c, 0, 70, 96
1, 30781, Note_on_c, 0, 58, 71
1, 30781, Control_c, 0, 64, 0
1, 30798, Control_c, 0, 64, 127
1, 30848, Note_on_c, 0, 58, 0
1, 30848, Note_on_c, 0, 70, 0
1, 30848, Note_on_c, 0, 71, 84
1, 30851, Note_on_c, 0, 59, 62
1, 30918, Note_on_c, 0, 59, 0
1, 30918, Note_on_c, 0, 71, 0
1, 30918, Note_on_c, 0, 76, 84
1, 30921, Note_on_c, 0, 55, 61
1, 30988, Note_on_c, 0, 55, 0
1, 30988, Note_on_c, 0, 76, 0
1, 30988, Note_on_c, 0, 79, 84
1, 30991, Note_on_c, 0, 52, 62
1, 31058, Note_on_c, 0, 52, 0
1, 31058, Note_on_c, 0, 79, 0
1, 31058, Note_on_c, 0, 83, 95
1, 31061, Note_on_c, 0, 47, 73
1, 31061, Control_c, 0, 64, 0
1, 31071, Control_c, 0, 64, 127
1, 31128, Note_on_c, 0, 47, 0
1, 31128, Note_on_c, 0, 83, 0
1, 31128, Note_on_c, 0, 78, 86
1, 31131, Note_on_c, 0, 51, 65
1, 31198, Note_on_c, 0, 51, 0
1, 31198, Note_on_c, 0, 78, 0
1, 31198, Note_on_c, 0, 75, 89
1, 31201, Note_on_c, 0, 54, 66
1, 31268, Note_on_c, 0, 54, 0
1, 31268, Note_on_c, 0, 75, 0
1, 31268, Note_on_c, 0, 71, 89
1, 31271, Note_on_c, 0, 59, 66
1, 31338, Note_on_c, 0, 59, 0
1, 31338, Note_on_c, 0, 71, 0
1, 31338, Note_on_c, 0, 70, 101
1, 31341, Note_on_c, 0, 58, 81
1, 31344, Control_c, 0, 64, 0
1, 31388, Control_c, 0, 64, 127
1, 31408, Note_on_c, 0, 58, 0
1, 31408, Note_on_c, 0, 70, 0
1, 31408, Note_on_c, 0, 71, 92
1, 31411, Note_on_c, 0, 59, 72
1, 31478, Note_on_c, 0, 59, 0
1, 31478, Note_on_c, 0, 71, 0
1, 31478, Note_on_c, 0, 76, 92
1, 31481, Note_on_c, 0, 55, 72
1, 31548, Note_on_c, 0, 55, 0
1, 31548, Note_on_c, 0, 76, 0
1, 31548, Note_on_c, 0, 79, 93
1, 31551, Note_on_c, 0, 52, 73
1, 31618, Note_on_c, 0, 52, 0
1, 31618, Note_on_c, 0, 79, 0
1, 31618, Note_on_c, 0, 83, 112
1, 31621, Note_on_c, 0, 47, 84
1, 31621, Control_c, 0, 64, 0
1, 31668, Control_c, 0, 64, 127
1, 31688, Note_on_c, 0, 47, 0
1, 31688, Note_on_c, 0, 83, 0
1, 31688, Note_on_c, 0, 78, 103
1, 31691, Note_on_c, 0, 51, 73
1, 31758, Note_on_c, 0, 51, 0
1, 31758, Note_on_c, 0, 78, 0
1, 31758, Note_on_c, 0, 75, 103
1, 31761, Note_on_c, 0, 54, 73
1, 31828, Note_on_c, 0, 54, 0
1, 31828, Note_on_c, 0, 75, 0
1, 31828, Note_on_c, 0, 71, 103
1, 31831, Note_on_c, 0, 59, 73
1, 31898, Note_on_c, 0, 59, 0
1, 31898, Note_on_c, 0, 71, 0
1, 31898, Note_on_c, 0, 83, 112
1, 31901, Note_on_c, 0, 47, 84
1, 31901, Control_c, 0, 64, 0
1, 31925, Control_c, 0, 64, 127
1, 31968, Note_on_c, 0, 47, 0
1, 31968, Note_on_c, 0, 83, 0
1, 31968, Note_on_c, 0, 79, 103
1, 31971, Note_on_c, 0, 52, 73
1, 32038, Note_on_c, 0, 52, 0
1, 32038, Note_on_c, 0, 79, 0
1, 32038, Note_on_c, 0, 76, 103
1, 32041, Note_on_c, 0, 55, 73
1, 32108, Note_on_c, 0, 55, 0
1, 32108, Note_on_c, 0, 76, 0
1, 32108, Note_on_c, 0, 71, 103
1, 32111, Note_on_c, 0, 59, 73
1, 32178, Note_on_c, 0, 59, 0
1, 32178, Note_on_c, 0, 71, 0
1, 32178, Note_on_c, 0, 83, 112
1, 32181, Note_on_c, 0, 47, 84
1, 32181, Control_c, 0, 64, 0
1, 32208, Control_c, 0, 64, 127
1, 32248, Note_on_c, 0, 47, 0
1, 32248, Note_on_c, 0, 83, 0
1, 32248, Note_on_c, 0, 78, 103
1, 32251, Note_on_c, 0, 51, 73
1, 32318, Note_on_c, 0, 51, 0
1, 32318, Note_on_c, 0, 78, 0
1, 32318, Note_on_c, 0, 75, 102
1, 32321, Note_on_c, 0, 54, 73
1, 32388, Note_on_c, 0, 54, 0
1, 32388, Note_on_c, 0, 75, 0
1, 32388, Note_on_c, 0, 71, 102
1, 32391, Note_on_c, 0, 59, 73
1, 32458, Note_on_c, 0, 59, 0
1, 32458, Note_on_c, 0, 71, 0
1, 32458, Note_on_c, 0, 83, 112
1, 32461, Note_on_c, 0, 47, 84
1, 32461, Control_c, 0, 64, 0
1, 32481, Control_c, 0, 64, 127
1, 32528, Note_on_c, 0, 47, 0
1, 32528, Note_on_c, 0, 83, 0
1, 32528, Note_on_c, 0, 79, 102
1, 32531, Note_on_c, 0, 52, 73
1, 32598, Note_on_c, 0, 52, 0
1, 32598, Note_on_c, 0, 79, 0
1, 32598, Note_on_c, 0, 76, 102
1, 32601, Note_on_c, 0, 55, 73
1, 32668, Note_on_c, 0, 55, 0
1, 32668, Note_on_c, 0, 76, 0
1, 32668, Note_on_c, 0, 71, 103
1, 32671, Note_on_c, 0, 59, 73
1, 32738, Note_on_c, 0, 59, 0
1, 32738, Note_on_c, 0, 71, 0
1, 32738, Note_on_c, 0, 83, 112
1, 32741, Note_on_c, 0, 47, 75
1, 32741, Note_on_c, 0, 51, 75
1, 32741, Note_on_c, 0, 54, 75
1, 32744, Note_on_c, 0, 59, 84
1, 32744, Control_c, 0, 64, 0
1, 32778, Control_c, 0, 64, 127
1, 32808, Note_on_c, 0, 83, 0
1, 32808, Note_on_c, 0, 78, 103
1, 32878, Note_on_c, 0, 78, 0
1, 32878, Note_on_c, 0, 75, 103
1, 32949, Note_on_c, 0, 75, 0
1, 32949, Note_on_c, 0, 71, 103
1, 33019, Note_on_c, 0, 71, 0
1, 33019, Note_on_c, 0, 59, 0
1, 33019, Note_on_c, 0, 78, 112
1, 33022, Note_on_c, 0, 47, 0
1, 33022, Note_on_c, 0, 54, 0
1, 33022, Note_on_c, 0, 51, 0
1, 33089, Note_on_c, 0, 78, 0
1, 33089, Note_on_c, 0, 75, 103
1, 33159, Note_on_c, 0, 75, 0
1, 33159, Note_on_c, 0, 71, 103
1, 33230, Note_on_c, 0, 71, 0
1, 33230, Note_on_c, 0, 66, 103
1, 33300, Note_on_c, 0, 66, 0
1, 33300, Note_on_c, 0, 75, 112
1, 33371, Note_on_c, 0, 75, 0
1, 33371, Note_on_c, 0, 71, 103
1, 33441, Note_on_c, 0, 71, 0
1, 33441, Note_on_c, 0, 66, 102
1, 33512, Note_on_c, 0, 66, 0
1, 33512, Note_on_c, 0, 63, 102
1, 33582, Note_on_c, 0, 63, 0
1, 33582, Note_on_c, 0, 71, 112
1, 33653, Note_on_c, 0, 71, 0
1, 33653, Note_on_c, 0, 66, 102
1, 33724, Note_on_c, 0, 66, 0
1, 33724, Note_on_c, 0, 63, 102
1, 33794, Note_on_c, 0, 63, 0
1, 33794, Note_on_c, 0, 59, 103
1, 33865, Note_on_c, 0, 59, 0
1, 33865, Note_on_c, 0, 66, 112
1, 33869, Control_c, 0, 64, 0
1, 33912, Control_c, 0, 64, 127
1, 33935, Note_on_c, 0, 66, 0
1, 33935, Note_on_c, 0, 63, 102
1, 34006, Note_on_c, 0, 63, 0
1, 34006, Note_on_c, 0, 59, 101
1, 34076, Note_on_c, 0, 59, 0
1, 34076, Note_on_c, 0, 54, 101
1, 34147, Note_on_c, 0, 54, 0
1, 34147, Note_on_c, 0, 63, 110
1, 34217, Note_on_c, 0, 63, 0
1, 34217, Note_on_c, 0, 59, 100
1, 34288, Note_on_c, 0, 59, 0
1, 34288, Note_on_c, 0, 54, 100
1, 34358, Note_on_c, 0, 54, 0
1, 34358, Note_on_c, 0, 51, 99
1, 34429, Note_on_c, 0, 51, 0
1, 34429, Note_on_c, 0, 59, 108
1, 34500, Note_on_c, 0, 59, 0
1, 34500, Note_on_c, 0, 54, 99
1, 34571, Note_on_c, 0, 54, 0
1, 34571, Note_on_c, 0, 51, 98
1, 34642, Note_on_c, 0, 51, 0
1, 34642, Note_on_c, 0, 47, 98
1, 34714, Note_on_c, 0, 47, 0
1, 34714, Note_on_c, 0, 35, 106
1, 34785, Note_on_c, 0, 35, 0
1, 34785, Note_on_c, 0, 39, 97
1, 34856, Note_on_c, 0, 39, 0
1, 34856, Note_on_c, 0, 42, 97
1, 34931, Note_on_c, 0, 42, 0
1, 34931, Note_on_c, 0, 47, 96
1, 35006, Note_on_c, 0, 47, 0
1, 35006, Note_on_c, 0, 35, 98
1, 35006, Control_c, 0, 64, 0
1, 35078, Note_on_c, 0, 35, 0
1, 35150, Note_on_c, 0, 47, 89
1, 35222, Note_on_c, 0, 47, 0
1, 35293, Note_on_c, 0, 37, 94
1, 35365, Note_on_c, 0, 37, 0
1, 35437, Note_on_c, 0, 49, 87
1, 35509, Note_on_c, 0, 49, 0
1, 35581, Note_on_c, 0, 71, 96
1, 35581, Note_on_c, 0, 39, 92
1, 35653, Note_on_c, 0, 39, 0
1, 35653, Note_on_c, 0, 71, 0
1, 35725, Note_on_c, 0, 59, 90
1, 35725, Note_on_c, 0, 51, 86
1, 35796, Note_on_c, 0, 51, 0
1, 35796, Note_on_c, 0, 59, 0
1, 35868, Note_on_c, 0, 73, 95
1, 35940, Note_on_c, 0, 73, 0
1, 36012, Note_on_c, 0, 61, 86
1, 36087, Note_on_c, 0, 61, 0
1, 36162, Note_on_c, 0, 75, 92
1, 36162, Note_on_c, 0, 39, 90
1, 36234, Note_on_c, 0, 39, 0
1, 36234, Note_on_c, 0, 75, 0
1, 36306, Note_on_c, 0, 63, 85
1, 36306, Note_on_c, 0, 51, 82
1, 36378, Note_on_c, 0, 51, 0
1, 36378, Note_on_c, 0, 63, 0
1, 36450, Note_on_c, 0, 40, 86
1, 36522, Note_on_c, 0, 40, 0
1, 36594, Note_on_c, 0, 52, 80
1, 36666, Note_on_c, 0, 52, 0
1, 36739, Note_on_c, 0, 75, 88
1, 36739, Note_on_c, 0, 42, 86
1, 36811, Note_on_c, 0, 42, 0
1, 36811, Note_on_c, 0, 75, 0
1, 36884, Note_on_c, 0, 63, 74
1, 36884, Note_on_c, 0, 54, 75
1, 36956, Note_on_c, 0, 54, 0
1, 36956, Note_on_c, 0, 63, 0
1, 37029, Note_on_c, 0, 76, 80
1, 37102, Note_on_c, 0, 76, 0
1, 37175, Note_on_c, 0, 64, 71
1, 37248, Note_on_c, 0, 64, 0
1, 37321, Note_on_c, 0, 78, 73
1, 37394, Note_on_c, 0, 78, 0
1, 37466, Note_on_c, 0, 66, 70
1, 37539, Note_on_c, 0, 66, 0
1, 37612, Note_on_c, 0, 80, 73
1, 37684, Note_on_c, 0, 80, 0
1, 37757, Note_on_c, 0, 68, 70
1, 37830, Note_on_c, 0, 68, 0
1, 37904, Note_on_c, 0, 81, 73
1, 37904, Note_on_c, 0, 42, 62
1, 37977, Note_on_c, 0, 42, 0
1, 37977, Note_on_c, 0, 81, 0
1, 38050, Note_on_c, 0, 69, 69
1, 38050, Note_on_c, 0, 54, 57
1, 38123, Note_on_c, 0, 54, 0
1, 38123, Note_on_c, 0, 69, 0
1, 38197, Note_on_c, 0, 81, 73
1, 38197, Note_on_c, 0, 44, 62
1, 38270, Note_on_c, 0, 44, 0
1, 38270, Note_on_c, 0, 81, 0
1, 38343, Note_on_c, 0, 71, 67
1, 38343, Note_on_c, 0, 56, 57
1, 38416, Note_on_c, 0, 56, 0
1, 38416, Note_on_c, 0, 71, 0
1, 38490, Note_on_c, 0, 81, 72
1, 38490, Note_on_c, 0, 45, 61
1, 38563, Note_on_c, 0, 45, 0
1, 38563, Note_on_c, 0, 81, 0
1, 38637, Note_on_c, 0, 73, 67
1, 38637, Note_on_c, 0, 57, 58
1, 38711, Note_on_c, 0, 57, 0
1, 38711, Note_on_c, 0, 73, 0
1, 38785, Note_on_c, 0, 81, 72
1, 38785, Note_on_c, 0, 47, 60
1, 38860, Note_on_c, 0, 47, 0
1, 38860, Note_on_c, 0, 81, 0
1, 38934, Note_on_c, 0, 75, 67
1, 38934, Note_on_c, 0, 59, 57
1, 39009, Note_on_c, 0, 59, 0
1, 39009, Note_on_c, 0, 75, 0
1, 39084, Note_on_c, 0, 81, 72
1, 39084, Note_on_c, 0, 49, 59
1, 39158, Note_on_c, 0, 49, 0
1, 39158, Note_on_c, 0, 81, 0
1, 39233, Note_on_c, 0, 76, 68
1, 39233, Note_on_c, 0, 61, 58
1, 39310, Note_on_c, 0, 61, 0
1, 39310, Note_on_c, 0, 76, 0
1, 39387, Note_on_c, 0, 81, 71
1, 39387, Note_on_c, 0, 51, 61
1, 39468, Note_on_c, 0, 51, 0
1, 39468, Note_on_c, 0, 81, 0
1, 39554, Note_on_c, 0, 78, 67
1, 39554, Note_on_c, 0, 63, 58
1, 39646, Note_on_c, 0, 63, 0
1, 39646, Note_on_c, 0, 78, 0
1, 39747, Note_on_c, 0, 71, 63
1, 39747, Note_on_c, 0, 76, 63
1, 39747, Note_on_c, 0, 80, 76
1, 39750, Note_on_c, 0, 68, 60
1, 39750, Note_on_c, 0, 64, 54
1, 40406, Note_on_c, 0, 80, 0
1, 40406, Note_on_c, 0, 71, 0
1, 40406, Note_on_c, 0, 76, 0
1, 40409, Note_on_c, 0, 69, 61
1, 40409, Note_on_c, 0, 75, 61
1, 40409, Note_on_c, 0, 78, 73
1, 40412, Note_on_c, 0, 68, 0
1, 40412, Note_on_c, 0, 64, 0
1, 40412, Note_on_c, 0, 66, 56
1, 40415, Note_on_c, 0, 63, 50
1, 40415, Note_on_c, 0, 59, 50
1, 40729, Note_on_c, 0, 75, 0
1, 40729, Note_on_c, 0, 78, 0
1, 40729, Note_on_c, 0, 69, 0
1, 40732, Note_on_c, 0, 68, 61
1, 40732, Note_on_c, 0, 73, 61
1, 40732, Note_on_c, 0, 76, 73
1, 40735, Note_on_c, 0, 66, 0
1, 40735, Note_on_c, 0, 59, 0
1, 40735, Note_on_c, 0, 63, 0
1, 40738, Note_on_c, 0, 64, 56
1, 40738, Note_on_c, 0, 61, 50
1, 41070, Note_on_c, 0, 68, 0
1, 41070, Note_on_c, 0, 76, 0
1, 41070, Note_on_c, 0, 73, 0
1, 41073, Note_on_c, 0, 66, 63
1, 41073, Note_on_c, 0, 72, 63
1, 41073, Note_on_c, 0, 75, 76
1, 41076, Note_on_c, 0, 64, 0
1, 41076, Note_on_c, 0, 61, 0
1, 41076, Note_on_c, 0, 63, 60
1, 41079, Note_on_c, 0, 60, 54
1, 41079, Note_on_c, 0, 56, 54
1, 41732, Note_on_c, 0, 72, 0
1, 41732, Note_on_c, 0, 75, 0
1, 41732, Note_on_c, 0, 66, 0
1, 41735, Note_on_c, 0, 56, 0
1, 41735, Note_on_c, 0, 64, 61
1, 41735, Note_on_c, 0, 73, 73
1, 41738, Note_on_c, 0, 60, 0
1, 41738, Note_on_c, 0, 63, 0
1, 41738, Note_on_c, 0, 61, 55
1, 41741, Note_on_c, 0, 57, 49
1, 42409, Note_on_c, 0, 64, 0
1, 42409, Note_on_c, 0, 73, 0
1, 42409, Note_on_c, 0, 69, 70
1, 42412, Note_on_c, 0, 57, 0
1, 42412, Note_on_c, 0, 71, 70
1, 42412, Note_on_c, 0, 75, 84
1, 42415, Note_on_c, 0, 61, 0
1, 42415, Note_on_c, 0, 54, 58
1, 42415, Note_on_c, 0, 57, 66
1, 42418, Note_on_c, 0, 59, 58
1, 42418, Note_on_c, 0, 63, 66
1, 43076, Note_on_c, 0, 69, 0
1, 43076, Note_on_c, 0, 75, 0
1, 43076, Note_on_c, 0, 71, 0
1, 43079, Note_on_c, 0, 63, 0
1, 43079, Note_on_c, 0, 71, 71
1, 43079, Note_on_c, 0, 76, 87
1, 43082, Note_on_c, 0, 54, 0
1, 43082, Note_on_c, 0, 57, 0
1, 43082, Note_on_c, 0, 59, 0
1, 43085, Note_on_c, 0, 56, 61
1, 43085, Note_on_c, 0, 59, 61
1, 43085, Note_on_c, 0, 64, 70
1, 43424, Note_on_c, 0, 71, 0
1, 43424, Note_on_c, 0, 76, 0
1, 43424, Note_on_c, 0, 73, 69
1, 43427, Note_on_c, 0, 64, 0
1, 43427, Note_on_c, 0, 76, 76
1, 43427, Note_on_c, 0, 78, 93
1, 43430, Note_on_c, 0, 59, 0
1, 43430, Note_on_c, 0, 56, 0
1, 43430, Note_on_c, 0, 66, 72
1, 43433, Note_on_c, 0, 57, 67
1, 43433, Note_on_c, 0, 61, 63
1, 43791, Note_on_c, 0, 73, 0
1, 43791, Note_on_c, 0, 78, 0
1, 43791, Note_on_c, 0, 76, 0
1, 43794, Note_on_c, 0, 71, 80
1, 43794, Note_on_c, 0, 76, 80
1, 43794, Note_on_c, 0, 80, 98
1, 43797, Note_on_c, 0, 66, 0
1, 43797, Note_on_c, 0, 61, 0
1, 43797, Note_on_c, 0, 57, 0
1, 43800, Note_on_c, 0, 59, 70
1, 43800, Note_on_c, 0, 64, 70
1, 43800, Note_on_c, 0, 68, 80
1, 44472, Note_on_c, 0, 80, 0
1, 44472, Note_on_c, 0, 76, 0
1, 44472, Note_on_c, 0, 75, 53
1, 44475, Note_on_c, 0, 64, 0
1, 44475, Note_on_c, 0, 68, 0
1, 44475, Note_on_c, 0, 78, 70
1, 44478, Note_on_c, 0, 63, 48
1, 44478, Note_on_c, 0, 66, 53
1, 44819, Note_on_c, 0, 71, 0
1, 44819, Note_on_c, 0, 69, 69
1, 45167, Note_on_c, 0, 69, 0
1, 45167, Note_on_c, 0, 66, 0
1, 45167, Note_on_c, 0, 78, 0
1, 45167, Note_on_c, 0, 59, 0
1, 45167, Note_on_c, 0, 75, 0
1, 45167, Note_on_c, 0, 63, 0
1, 45167, Note_on_c, 0, 59, 58
1, 45167, Note_on_c, 0, 64, 58
1, 45167, Note_on_c, 0, 68, 66
1, 45167, Note_on_c, 0, 56, 56
1, 45167, Note_on_c, 0, 52, 50
1, 45827, Note_on_c, 0, 68, 0
1, 45827, Note_on_c, 0, 59, 0
1, 45827, Note_on_c, 0, 64, 0
1, 45830, Note_on_c, 0, 57, 57
1, 45830, Note_on_c, 0, 63, 57
1, 45830, Note_on_c, 0, 66, 64
1, 45833, Note_on_c, 0, 56, 0
1, 45833, Note_on_c, 0, 52, 0
1, 45833, Note_on_c, 0, 54, 52
1, 45836, Note_on_c, 0, 51, 47
1, 45836, Note_on_c, 0, 47, 47
1, 46150, Note_on_c, 0, 63, 0
1, 46150, Note_on_c, 0, 66, 0
1, 46150, Note_on_c, 0, 57, 0
1, 46153, Note_on_c, 0, 56, 57
1, 46153, Note_on_c, 0, 61, 57
1, 46153, Note_on_c, 0, 64, 64
1, 46156, Note_on_c, 0, 54, 0
1, 46156, Note_on_c, 0, 47, 0
1, 46156, Note_on_c, 0, 51, 0
1, 46159, Note_on_c, 0, 52, 52
1, 46159, Note_on_c, 0, 49, 47
1, 46491, Note_on_c, 0, 56, 0
1, 46491, Note_on_c, 0, 64, 0
1, 46491, Note_on_c, 0, 61, 0
1, 46494, Note_on_c, 0, 54, 58
1, 46494, Note_on_c, 0, 60, 58
1, 46494, Note_on_c, 0, 63, 66
1, 46497, Note_on_c, 0, 52, 0
1, 46497, Note_on_c, 0, 49, 0
1, 46497, Note_on_c, 0, 51, 56
1, 46500, Note_on_c, 0, 48, 50
1, 46500, Note_on_c, 0, 44, 50
1, 47153, Note_on_c, 0, 60, 0
1, 47153, Note_on_c, 0, 63, 0
1, 47153, Note_on_c, 0, 54, 0
1, 47156, Note_on_c, 0, 57, 57
1, 47156, Note_on_c, 0, 52, 57
1, 47156, Note_on_c, 0, 61, 64
1, 47159, Note_on_c, 0, 51, 0
1, 47159, Note_on_c, 0, 44, 0
1, 47159, Note_on_c, 0, 48, 0
1, 47162, Note_on_c, 0, 49, 51
1, 47162, Note_on_c, 0, 45, 46
1, 47830, Note_on_c, 0, 57, 0
1, 47830, Note_on_c, 0, 61, 0
1, 47830, Note_on_c, 0, 52, 0
1, 47833, Note_on_c, 0, 52, 65
1, 47833, Note_on_c, 0, 56, 65
1, 47833, Note_on_c, 0, 59, 73
1, 47836, Note_on_c, 0, 49, 0
1, 47836, Note_on_c, 0, 45, 0
1, 47836, Note_on_c, 0, 35, 54
1, 47839, Note_on_c, 0, 47, 61
1, 48164, Note_on_c, 0, 56, 0
1, 48164, Note_on_c, 0, 52, 0
1, 48164, Note_on_c, 0, 54, 71
1, 48167, Note_on_c, 0, 57, 71
1, 48497, Note_on_c, 0, 59, 0
1, 48497, Note_on_c, 0, 61, 82
1, 48823, Note_on_c, 0, 61, 0
1, 48823, Note_on_c, 0, 63, 90
1, 49168, Note_on_c, 0, 63, 0
1, 49168, Note_on_c, 0, 54, 0
1, 49168, Note_on_c, 0, 57, 0
1, 49171, Note_on_c, 0, 47, 0
1, 49171, Note_on_c, 0, 56, 64
1, 49171, Note_on_c, 0, 64, 70
1, 49174, Note_on_c, 0, 35, 0
1, 49174, Note_on_c, 0, 40, 59
1, 49174, Note_on_c, 0, 52, 64
1, 49253, Note_on_c, 0, 64, 0
1, 49281, Note_on_c, 0, 56, 0
1, 49281, Note_on_c, 0, 66, 69
1, 49365, Note_on_c, 0, 66, 0
1, 49393, Note_on_c, 0, 68, 70
1, 49478, Note_on_c, 0, 68, 0
1, 49506, Note_on_c, 0, 40, 0
1, 49506, Note_on_c, 0, 52, 0
1, 49506, Note_on_c, 0, 69, 68
1, 49590, Note_on_c, 0, 69, 0
1, 49618, Note_on_c, 0, 71, 69
1, 49702, Note_on_c, 0, 71, 0
1, 49730, Note_on_c, 0, 73, 70
1, 49814, Note_on_c, 0, 73, 0
1, 49842, Note_on_c, 0, 74, 71
1, 49926, Note_on_c, 0, 74, 0
1, 49954, Note_on_c, 0, 75, 72
1, 50038, Note_on_c, 0, 75, 0
1, 50066, Note_on_c, 0, 76, 73
1, 50149, Note_on_c, 0, 76, 0
1, 50177, Note_on_c, 0, 77, 73
1, 50261, Note_on_c, 0, 77, 0
1, 50289, Note_on_c, 0, 78, 74
1, 50373, Note_on_c, 0, 78, 0
1, 50401, Note_on_c, 0, 79, 74
1, 50485, Note_on_c, 0, 79, 0
1, 50512, Note_on_c, 0, 71, 66
1, 50512, Note_on_c, 0, 80, 78
1, 50512, Note_on_c, 0, 68, 65
1, 50515, Note_on_c, 0, 64, 58
1, 50621, Note_on_c, 0, 80, 0
1, 50621, Note_on_c, 0, 79, 74
1, 50729, Note_on_c, 0, 79, 0
1, 50729, Note_on_c, 0, 80, 74
1, 50838, Note_on_c, 0, 80, 0
1, 50838, Note_on_c, 0, 81, 74
1, 50946, Note_on_c, 0, 81, 0
1, 50946, Note_on_c, 0, 79, 74
1, 51054, Note_on_c, 0, 79, 0
1, 51054, Note_on_c, 0, 80, 74
1, 51163, Note_on_c, 0, 80, 0
1, 51163, Note_on_c, 0, 71, 0
1, 51163, Note_on_c, 0, 69, 81
1, 51166, Note_on_c, 0, 68, 0
1, 51166, Note_on_c, 0, 64, 0
1, 51166, Note_on_c, 0, 66, 61
1, 51169, Note_on_c, 0, 63, 54
1, 51169, Note_on_c, 0, 59, 54
1, 51269, Note_on_c, 0, 80, 75
1, 51375, Note_on_c, 0, 80, 0
1, 51375, Note_on_c, 0, 78, 75
1, 51481, Note_on_c, 0, 78, 0
1, 51481, Note_on_c, 0, 69, 0
1, 51481, Note_on_c, 0, 68, 81
1, 51484, Note_on_c, 0, 66, 0
1, 51484, Note_on_c, 0, 59, 0
1, 51484, Note_on_c, 0, 63, 0
1, 51487, Note_on_c, 0, 64, 61
1, 51487, Note_on_c, 0, 61, 54
1, 51593, Note_on_c, 0, 78, 74
1, 51705, Note_on_c, 0, 78, 0
1, 51705, Note_on_c, 0, 76, 74
1, 51817, Note_on_c, 0, 76, 0
1, 51817, Note_on_c, 0, 68, 0
1, 51817, Note_on_c, 0, 66, 81
1, 51820, Note_on_c, 0, 61, 0
1, 51820, Note_on_c, 0, 64, 0
1, 51820, Note_on_c, 0, 63, 65
1, 51823, Note_on_c, 0, 60, 58
1, 51823, Note_on_c, 0, 56, 58
1, 51926, Note_on_c, 0, 72, 75
1, 52034, Note_on_c, 0, 72, 0
1, 52034, Note_on_c, 0, 75, 75
1, 52143, Note_on_c, 0, 75, 0
1, 52143, Note_on_c, 0, 76, 75
1, 52252, Note_on_c, 0, 76, 0
1, 52252, Note_on_c, 0, 72, 75
1, 52361, Note_on_c, 0, 72, 0
1, 52361, Note_on_c, 0, 75, 75
1, 52470, Note_on_c, 0, 75, 0
1, 52470, Note_on_c, 0, 66, 0
1, 52470, Note_on_c, 0, 64, 81
1, 52473, Note_on_c, 0, 63, 0
1, 52473, Note_on_c, 0, 56, 0
1, 52473, Note_on_c, 0, 60, 0
1, 52476, Note_on_c, 0, 61, 60
1, 52476, Note_on_c, 0, 57, 53
1, 52578, Note_on_c, 0, 69, 75
1, 52687, Note_on_c, 0, 69, 0
1, 52687, Note_on_c, 0, 73, 75
1, 52796, Note_on_c, 0, 73, 0
1, 52796, Note_on_c, 0, 75, 75
1, 52910, Note_on_c, 0, 75, 0
1, 52910, Note_on_c, 0, 69, 75
1, 53024, Note_on_c, 0, 69, 0
1, 53024, Note_on_c, 0, 73, 75
1, 53138, Note_on_c, 0, 73, 0
1, 53138, Note_on_c, 0, 64, 0
1, 53138, Note_on_c, 0, 69, 83
1, 53141, Note_on_c, 0, 57, 0
1, 53141, Note_on_c, 0, 61, 0
1, 53141, Note_on_c, 0, 54, 60
1, 53144, Note_on_c, 0, 57, 68
1, 53144, Note_on_c, 0, 59, 60
1, 53144, Note_on_c, 0, 63, 68
1, 53247, Note_on_c, 0, 74, 83
1, 53357, Note_on_c, 0, 74, 0
1, 53357, Note_on_c, 0, 75, 78
1, 53466, Note_on_c, 0, 75, 0
1, 53466, Note_on_c, 0, 76, 78
1, 53576, Note_on_c, 0, 76, 0
1, 53576, Note_on_c, 0, 74, 80
1, 53685, Note_on_c, 0, 74, 0
1, 53685, Note_on_c, 0, 75, 80
1, 53795, Note_on_c, 0, 75, 0
1, 53795, Note_on_c, 0, 69, 0
1, 53795, Note_on_c, 0, 71, 92
1, 53798, Note_on_c, 0, 54, 0
1, 53798, Note_on_c, 0, 63, 0
1, 53798, Note_on_c, 0, 57, 0
1, 53801, Note_on_c, 0, 59, 0
1, 53801, Note_on_c, 0, 56, 66
1, 53801, Note_on_c, 0, 59, 66
1, 53804, Note_on_c, 0, 64, 74
1, 53902, Note_on_c, 0, 78, 84
1, 54009, Note_on_c, 0, 78, 0
1, 54009, Note_on_c, 0, 76, 85
1, 54117, Note_on_c, 0, 76, 0
1, 54117, Note_on_c, 0, 71, 0
1, 54117, Note_on_c, 0, 73, 95
1, 54120, Note_on_c, 0, 56, 0
1, 54120, Note_on_c, 0, 64, 0
1, 54120, Note_on_c, 0, 59, 0
1, 54123, Note_on_c, 0, 66, 80
1, 54123, Note_on_c, 0, 57, 70
1, 54123, Note_on_c, 0, 61, 70
1, 54230, Note_on_c, 0, 80, 86
1, 54343, Note_on_c, 0, 80, 0
1, 54343, Note_on_c, 0, 78, 86
1, 54457, Note_on_c, 0, 78, 0
1, 54457, Note_on_c, 0, 73, 0
1, 54457, Note_on_c, 0, 80, 100
1, 54460, Note_on_c, 0, 61, 0
1, 54460, Note_on_c, 0, 57, 0
1, 54460, Note_on_c, 0, 76, 100
1, 54463, Note_on_c, 0, 66, 0
1, 54463, Note_on_c, 0, 59, 74
1, 54463, Note_on_c, 0, 64, 74
1, 54466, Note_on_c, 0, 68, 86
1, 54566, Note_on_c, 0, 80, 0
1, 54566, Note_on_c, 0, 79, 93
1, 54674, Note_on_c, 0, 79, 0
1, 54674, Note_on_c, 0, 80, 93
1, 54783, Note_on_c, 0, 80, 0
1, 54783, Note_on_c, 0, 83, 89
1, 54892, Note_on_c, 0, 83, 0
1, 54892, Note_on_c, 0, 81, 93
1, 55001, Note_on_c, 0, 81, 0
1, 55001, Note_on_c, 0, 80, 90
1, 55109, Note_on_c, 0, 80, 0
1, 55109, Note_on_c, 0, 76, 0
1, 55109, Note_on_c, 0, 75, 88
1, 55112, Note_on_c, 0, 64, 0
1, 55112, Note_on_c, 0, 68, 0
1, 55112, Note_on_c, 0, 78, 88
1, 55115, Note_on_c, 0, 63, 66
1, 55115, Note_on_c, 0, 66, 74
1, 55219, Note_on_c, 0, 78, 0
1, 55219, Note_on_c, 0, 75, 0
1, 55219, Note_on_c, 0, 73, 85
1, 55222, Note_on_c, 0, 76, 85
1, 55329, Note_on_c, 0, 76, 0
1, 55329, Note_on_c, 0, 73, 0
1, 55329, Note_on_c, 0, 75, 81
1, 55332, Note_on_c, 0, 71, 81
1, 55439, Note_on_c, 0, 71, 0
1, 55439, Note_on_c, 0, 75, 0
1, 55439, Note_on_c, 0, 69, 81
1, 55442, Note_on_c, 0, 66, 0
1, 55442, Note_on_c, 0, 63, 0
1, 55442, Note_on_c, 0, 73, 81
1, 55445, Note_on_c, 0, 47, 65
1, 55554, Note_on_c, 0, 73, 0
1, 55554, Note_on_c, 0, 69, 0
1, 55554, Note_on_c, 0, 68, 77
1, 55557, Note_on_c, 0, 47, 0
1, 55557, Note_on_c, 0, 71, 77
1, 55557, Note_on_c, 0, 49, 64
1, 55669, Note_on_c, 0, 71, 0
1, 55669, Note_on_c, 0, 68, 0
1, 55669, Note_on_c, 0, 66, 74
1, 55672, Note_on_c, 0, 49, 0
1, 55672, Note_on_c, 0, 69, 74
1, 55672, Note_on_c, 0, 51, 62
1, 55782, Note_on_c, 0, 51, 0
1, 55782, Note_on_c, 0, 59, 0
1, 55782, Note_on_c, 0, 66, 0
1, 55782, Note_on_c, 0, 69, 0
1, 55782, Note_on_c, 0, 59, 78
1, 55782, Note_on_c, 0, 68, 78
1, 55782, Note_on_c, 0, 56, 66
1, 55782, Note_on_c, 0, 52, 58
1, 55892, Note_on_c, 0, 68, 0
1, 55892, Note_on_c, 0, 67, 70
1, 56001, Note_on_c, 0, 67, 0
1, 56001, Note_on_c, 0, 68, 70
1, 56109, Note_on_c, 0, 68, 0
1, 56109, Note_on_c, 0, 69, 70
1, 56217, Note_on_c, 0, 69, 0
1, 56217, Note_on_c, 0, 67, 70
1, 56326, Note_on_c, 0, 67, 0
1, 56326, Note_on_c, 0, 68, 70
1, 56434, Note_on_c, 0, 68, 0
1, 56434, Note_on_c, 0, 59, 0
1, 56434, Note_on_c, 0, 57, 77
1, 56437, Note_on_c, 0, 56, 0
1, 56437, Note_on_c, 0, 52, 0
1, 56437, Note_on_c, 0, 54, 62
1, 56440, Note_on_c, 0, 51, 54
1, 56440, Note_on_c, 0, 47, 54
1, 56540, Note_on_c, 0, 68, 71
1, 56646, Note_on_c, 0, 68, 0
1, 56646, Note_on_c, 0, 66, 71
1, 56752, Note_on_c, 0, 66, 0
1, 56752, Note_on_c, 0, 57, 0
1, 56752, Note_on_c, 0, 56, 77
1, 56755, Note_on_c, 0, 54, 0
1, 56755, Note_on_c, 0, 47, 0
1, 56755, Note_on_c, 0, 51, 0
1, 56758, Note_on_c, 0, 52, 62
1, 56758, Note_on_c, 0, 49, 54
1, 56864, Note_on_c, 0, 66, 70
1, 56976, Note_on_c, 0, 66, 0
1, 56976, Note_on_c, 0, 64, 70
1, 57088, Note_on_c, 0, 64, 0
1, 57088, Note_on_c, 0, 49, 0
1, 57088, Note_on_c, 0, 56, 0
1, 57091, Note_on_c, 0, 52, 0
1, 57091, Note_on_c, 0, 51, 58
1, 57091, Note_on_c, 0, 54, 70
1, 57094, Note_on_c, 0, 48, 58
1, 57094, Note_on_c, 0, 44, 58
1, 57197, Note_on_c, 0, 60, 71
1, 57306, Note_on_c, 0, 60, 0
1, 57306, Note_on_c, 0, 63, 71
1, 57415, Note_on_c, 0, 63, 0
1, 57415, Note_on_c, 0, 64, 74
1, 57523, Note_on_c, 0, 64, 0
1, 57523, Note_on_c, 0, 60, 71
1, 57632, Note_on_c, 0, 60, 0
1, 57632, Note_on_c, 0, 63, 71
1, 57741, Note_on_c, 0, 63, 0
1, 57741, Note_on_c, 0, 51, 0
1, 57741, Note_on_c, 0, 44, 0
1, 57744, Note_on_c, 0, 48, 0
1, 57744, Note_on_c, 0, 54, 0
1, 57744, Note_on_c, 0, 45, 60
1, 57747, Note_on_c, 0, 49, 60
1, 57747, Note_on_c, 0, 52, 53
1, 57850, Note_on_c, 0, 57, 71
1, 57959, Note_on_c, 0, 57, 0
1, 57959, Note_on_c, 0, 61, 71
1, 58067, Note_on_c, 0, 61, 0
1, 58067, Note_on_c, 0, 63, 74
1, 58181, Note_on_c, 0, 63, 0
1, 58181, Note_on_c, 0, 57, 71
1, 58295, Note_on_c, 0, 57, 0
1, 58295, Note_on_c, 0, 61, 71
1, 58409, Note_on_c, 0, 61, 0
1, 58409, Note_on_c, 0, 52, 0
1, 58409, Note_on_c, 0, 52, 81
1, 58412, Note_on_c, 0, 49, 0
1, 58412, Note_on_c, 0, 45, 0
1, 58412, Note_on_c, 0, 35, 67
1, 58415, Note_on_c, 0, 47, 76
1, 58445, Control_c, 0, 64, 127
1, 58519, Note_on_c, 0, 56, 77
1, 58628, Note_on_c, 0, 56, 0
1, 58628, Note_on_c, 0, 59, 78
1, 58744, Note_on_c, 0, 59, 0
1, 58744, Note_on_c, 0, 52, 0
1, 58744, Note_on_c, 0, 54, 87
1, 58749, Control_c, 0, 64, 0
1, 58788, Control_c, 0, 64, 127
1, 58855, Note_on_c, 0, 57, 82
1, 58966, Note_on_c, 0, 57, 0
1, 58966, Note_on_c, 0, 59, 82
1, 59084, Note_on_c, 0, 59, 0
1, 59084, Note_on_c, 0, 54, 0
1, 59084, Note_on_c, 0, 54, 95
1, 59088, Control_c, 0, 64, 0
1, 59119, Control_c, 0, 64, 127
1, 59198, Note_on_c, 0, 57, 88
1, 59310, Note_on_c, 0, 57, 0
1, 59310, Note_on_c, 0, 61, 86
1, 59426, Note_on_c, 0, 61, 0
1, 59426, Note_on_c, 0, 54, 0
1, 59426, Note_on_c, 0, 54, 101
1, 59426, Control_c, 0, 64, 0
1, 59460, Control_c, 0, 64, 127
1, 59538, Note_on_c, 0, 57, 92
1, 59651, Note_on_c, 0, 57, 0
1, 59651, Note_on_c, 0, 63, 91
1, 59766, Note_on_c, 0, 63, 0
1, 59766, Note_on_c, 0, 54, 0
1, 59766, Note_on_c, 0, 56, 98
1, 59769, Note_on_c, 0, 47, 0
1, 59769, Note_on_c, 0, 35, 0
1, 59769, Note_on_c, 0, 64, 103
1, 59772, Note_on_c, 0, 40, 71
1, 59772, Note_on_c, 0, 52, 81
1, 59772, Control_c, 0, 64, 0
1, 59827, Control_c, 0, 64, 127
1, 59876, Note_on_c, 0, 64, 0
1, 59876, Note_on_c, 0, 56, 0
1, 59876, Note_on_c, 0, 59, 96
1, 59985, Note_on_c, 0, 59, 0
1, 59985, Note_on_c, 0, 56, 98
1, 60094, Note_on_c, 0, 56, 0
1, 60094, Note_on_c, 0, 52, 0
1, 60094, Note_on_c, 0, 59, 103
1, 60097, Note_on_c, 0, 40, 0
1, 60097, Note_on_c, 0, 47, 97
1, 60203, Note_on_c, 0, 59, 0
1, 60203, Note_on_c, 0, 64, 98
1, 60312, Note_on_c, 0, 64, 0
1, 60312, Note_on_c, 0, 68, 98
1, 60424, Note_on_c, 0, 68, 0
1, 60424, Note_on_c, 0, 66, 103
1, 60428, Control_c, 0, 64, 0
1, 60444, Control_c, 0, 64, 127
1, 60533, Note_on_c, 0, 66, 0
1, 60533, Note_on_c, 0, 63, 98
1, 60642, Note_on_c, 0, 63, 0
1, 60642, Note_on_c, 0, 59, 98
1, 60751, Note_on_c, 0, 59, 0
1, 60751, Note_on_c, 0, 47, 0
1, 60751, Note_on_c, 0, 63, 103
1, 60754, Note_on_c, 0, 47, 97
1, 60860, Note_on_c, 0, 63, 0
1, 60860, Note_on_c, 0, 66, 98
1, 60968, Note_on_c, 0, 66, 0
1, 60968, Note_on_c, 0, 69, 98
1, 61081, Note_on_c, 0, 69, 0
1, 61081, Note_on_c, 0, 68, 103
1, 61084, Control_c, 0, 64, 0
1, 61109, Control_c, 0, 64, 127
1, 61188, Note_on_c, 0, 68, 0
1, 61188, Note_on_c, 0, 64, 96
1, 61296, Note_on_c, 0, 64, 0
1, 61296, Note_on_c, 0, 59, 98
1, 61404, Note_on_c, 0, 59, 0
1, 61404, Note_on_c, 0, 47, 0
1, 61404, Note_on_c, 0, 64, 103
1, 61407, Note_on_c, 0, 47, 96
1, 61511, Note_on_c, 0, 64, 0
1, 61511, Note_on_c, 0, 68, 98
1, 61619, Note_on_c, 0, 68, 0
1, 61619, Note_on_c, 0, 71, 98
1, 61731, Note_on_c, 0, 71, 0
1, 61731, Note_on_c, 0, 69, 103
1, 61736, Control_c, 0, 64, 0
1, 61792, Control_c, 0, 64, 127
1, 61838, Note_on_c, 0, 69, 0
1, 61838, Note_on_c, 0, 66, 98
1, 61944, Note_on_c, 0, 66, 0
1, 61944, Note_on_c, 0, 63, 98
1, 62056, Note_on_c, 0, 63, 0
1, 62056, Note_on_c, 0, 47, 0
1, 62056, Note_on_c, 0, 75, 103
1, 62059, Note_on_c, 0, 47, 95
1, 62162, Note_on_c, 0, 75, 0
1, 62162, Note_on_c, 0, 69, 98
1, 62269, Note_on_c, 0, 69, 0
1, 62269, Note_on_c, 0, 66, 98
1, 62376, Note_on_c, 0, 66, 0
1, 62376, Note_on_c, 0, 68, 84
1, 62376, Note_on_c, 0, 76, 96
1, 62379, Note_on_c, 0, 47, 0
1, 62379, Note_on_c, 0, 52, 94
1, 62379, Control_c, 0, 64, 0
1, 62406, Control_c, 0, 64, 127
1, 62482, Note_on_c, 0, 52, 0
1, 62482, Note_on_c, 0, 47, 88
1, 62589, Note_on_c, 0, 47, 0
1, 62589, Note_on_c, 0, 44, 90
1, 62695, Note_on_c, 0, 76, 0
1, 62695, Note_on_c, 0, 68, 0
1, 62695, Note_on_c, 0, 71, 101
1, 62698, Note_on_c, 0, 44, 0
1, 62698, Note_on_c, 0, 47, 94
1, 62801, Note_on_c, 0, 47, 0
1, 62801, Note_on_c, 0, 52, 90
1, 62908, Note_on_c, 0, 52, 0
1, 62908, Note_on_c, 0, 56, 90
1, 63018, Note_on_c, 0, 56, 0
1, 63018, Note_on_c, 0, 54, 94
1, 63021, Control_c, 0, 64, 0
1, 63058, Control_c, 0, 64, 127
1, 63125, Note_on_c, 0, 54, 0
1, 63125, Note_on_c, 0, 51, 90
1, 63232, Note_on_c, 0, 51, 0
1, 63232, Note_on_c, 0, 47, 90
1, 63339, Note_on_c, 0, 47, 0
1, 63339, Note_on_c, 0, 71, 0
1, 63339, Note_on_c, 0, 71, 101
1, 63342, Note_on_c, 0, 51, 94
1, 63446, Note_on_c, 0, 51, 0
1, 63446, Note_on_c, 0, 54, 90
1, 63553, Note_on_c, 0, 54, 0
1, 63553, Note_on_c, 0, 57, 90
1, 63664, Note_on_c, 0, 57, 0
1, 63664, Note_on_c, 0, 56, 94
1, 63668, Control_c, 0, 64, 0
1, 63687, Control_c, 0, 64, 127
1, 63771, Note_on_c, 0, 56, 0
1, 63771, Note_on_c, 0, 52, 88
1, 63878, Note_on_c, 0, 52, 0
1, 63878, Note_on_c, 0, 47, 90
1, 63985, Note_on_c, 0, 47, 0
1, 63985, Note_on_c, 0, 71, 0
1, 63985, Note_on_c, 0, 71, 101
1, 63988, Note_on_c, 0, 52, 94
1, 64093, Note_on_c, 0, 52, 0
1, 64093, Note_on_c, 0, 56, 90
1, 64200, Note_on_c, 0, 56, 0
1, 64200, Note_on_c, 0, 59, 90
1, 64310, Note_on_c, 0, 59, 0
1, 64310, Note_on_c, 0, 57, 94
1, 64310, Control_c, 0, 64, 0
1, 64336, Control_c, 0, 64, 127
1, 64418, Note_on_c, 0, 57, 0
1, 64418, Note_on_c, 0, 54, 90
1, 64525, Note_on_c, 0, 54, 0
1, 64525, Note_on_c, 0, 51, 90
1, 64636, Note_on_c, 0, 51, 0
1, 64636, Note_on_c, 0, 71, 0
1, 64636, Note_on_c, 0, 71, 101
1, 64639, Note_on_c, 0, 63, 94
1, 64743, Note_on_c, 0, 63, 0
1, 64743, Note_on_c, 0, 57, 90
1, 64850, Note_on_c, 0, 57, 0
1, 64850, Note_on_c, 0, 54, 90
1, 64960, Note_on_c, 0, 54, 0
1, 64960, Note_on_c, 0, 71, 0
1, 64960, Note_on_c, 0, 76, 103
1, 64963, Note_on_c, 0, 56, 85
1, 64963, Control_c, 0, 64, 0
1, 65002, Control_c, 0, 64, 127
1, 65067, Note_on_c, 0, 56, 0
1, 65067, Note_on_c, 0, 76, 0
1, 65067, Note_on_c, 0, 71, 96
1, 65070, Note_on_c, 0, 59, 77
1, 65173, Note_on_c, 0, 59, 0
1, 65173, Note_on_c, 0, 71, 0
1, 65173, Note_on_c, 0, 68, 98
1, 65176, Note_on_c, 0, 64, 77
1, 65280, Note_on_c, 0, 64, 0
1, 65280, Note_on_c, 0, 68, 0
1, 65280, Note_on_c, 0, 71, 103
1, 65283, Note_on_c, 0, 59, 85
1, 65386, Note_on_c, 0, 59, 0
1, 65386, Note_on_c, 0, 71, 0
1, 65386, Note_on_c, 0, 76, 98
1, 65389, Note_on_c, 0, 56, 78
1, 65492, Note_on_c, 0, 56, 0
1, 65492, Note_on_c, 0, 76, 0
1, 65492, Note_on_c, 0, 80, 98
1, 65495, Note_on_c, 0, 52, 78
1, 65602, Note_on_c, 0, 52, 0
1, 65602, Note_on_c, 0, 80, 0
1, 65602, Note_on_c, 0, 78, 103
1, 65605, Note_on_c, 0, 51, 85
1, 65608, Control_c, 0, 64, 0
1, 65644, Control_c, 0, 64, 127
1, 65709, Note_on_c, 0, 51, 0
1, 65709, Note_on_c, 0, 78, 0
1, 65709, Note_on_c, 0, 75, 98
1, 65712, Note_on_c, 0, 54, 77
1, 65816, Note_on_c, 0, 54, 0
1, 65816, Note_on_c, 0, 75, 0
1, 65816, Note_on_c, 0, 71, 98
1, 65819, Note_on_c, 0, 57, 77
1, 65923, Note_on_c, 0, 57, 0
1, 65923, Note_on_c, 0, 71, 0
1, 65923, Note_on_c, 0, 75, 103
1, 65926, Note_on_c, 0, 54, 85
1, 66029, Note_on_c, 0, 54, 0
1, 66029, Note_on_c, 0, 75, 0
1, 66029, Note_on_c, 0, 78, 98
1, 66032, Note_on_c, 0, 51, 78
1, 66136, Note_on_c, 0, 51, 0
1, 66136, Note_on_c, 0, 78, 0
1, 66136, Note_on_c, 0, 81, 98
1, 66139, Note_on_c, 0, 47, 79
1, 66246, Note_on_c, 0, 47, 0
1, 66246, Note_on_c, 0, 81, 0
1, 66246, Note_on_c, 0, 80, 103
1, 66250, Control_c, 0, 64, 0
1, 66250, Note_on_c, 0, 52, 85
1, 66287, Control_c, 0, 64, 127
1, 66352, Note_on_c, 0, 80, 0
1, 66352, Note_on_c, 0, 76, 96
1, 66352, Note_on_c, 0, 56, 77
1, 66356, Note_on_c, 0, 52, 0
1, 66458, Note_on_c, 0, 56, 0
1, 66458, Note_on_c, 0, 76, 0
1, 66458, Note_on_c, 0, 71, 98
1, 66461, Note_on_c, 0, 59, 77
1, 66564, Note_on_c, 0, 59, 0
1, 66564, Note_on_c, 0, 71, 0
1, 66564, Note_on_c, 0, 76, 103
1, 66567, Note_on_c, 0, 56, 85
1, 66670, Note_on_c, 0, 56, 0
1, 66670, Note_on_c, 0, 76, 0
1, 66670, Note_on_c, 0, 80, 98
1, 66673, Note_on_c, 0, 52, 78
1, 66776, Note_on_c, 0, 52, 0
1, 66776, Note_on_c, 0, 80, 0
1, 66776, Note_on_c, 0, 83, 98
1, 66780, Note_on_c, 0, 47, 78
1, 66892, Note_on_c, 0, 83, 0
1, 66892, Note_on_c, 0, 81, 103
1, 66892, Note_on_c, 0, 51, 85
1, 66896, Note_on_c, 0, 47, 0
1, 66896, Control_c, 0, 64, 0
1, 66934, Control_c, 0, 64, 127
1, 66998, Note_on_c, 0, 51, 0
1, 66998, Note_on_c, 0, 81, 0
1, 66998, Note_on_c, 0, 78, 98
1, 67001, Note_on_c, 0, 57, 77
1, 67104, Note_on_c, 0, 57, 0
1, 67104, Note_on_c, 0, 78, 0
1, 67104, Note_on_c, 0, 75, 98
1, 67109, Note_on_c, 0, 59, 77
1, 67219, Note_on_c, 0, 75, 0
1, 67219, Note_on_c, 0, 87, 103
1, 67219, Note_on_c, 0, 57, 85
1, 67223, Note_on_c, 0, 59, 0
1, 67325, Note_on_c, 0, 57, 0
1, 67325, Note_on_c, 0, 87, 0
1, 67325, Note_on_c, 0, 81, 98
1, 67328, Note_on_c, 0, 59, 78
1, 67431, Note_on_c, 0, 59, 0
1, 67431, Note_on_c, 0, 81, 0
1, 67431, Note_on_c, 0, 78, 98
1, 67434, Note_on_c, 0, 66, 79
1, 67537, Note_on_c, 0, 66, 0
1, 67537, Note_on_c, 0, 78, 0
1, 67537, Note_on_c, 0, 88, 105
1, 67540, Note_on_c, 0, 56, 85
1, 67540, Control_c, 0, 64, 0
1, 67579, Control_c, 0, 64, 127
1, 67643, Note_on_c, 0, 56, 0
1, 67643, Note_on_c, 0, 83, 95
1, 67643, Note_on_c, 0, 59, 76
1, 67696, Note_on_c, 0, 88, 0
1, 67748, Note_on_c, 0, 59, 0
1, 67748, Note_on_c, 0, 83, 0
1, 67748, Note_on_c, 0, 80, 95
1, 67751, Note_on_c, 0, 64, 76
1, 67854, Note_on_c, 0, 64, 0
1, 67854, Note_on_c, 0, 80, 0
1, 67854, Note_on_c, 0, 83, 100
1, 67857, Note_on_c, 0, 52, 83
1, 67960, Note_on_c, 0, 52, 0
1, 67960, Note_on_c, 0, 80, 94
1, 67960, Note_on_c, 0, 56, 76
1, 68012, Note_on_c, 0, 83, 0
1, 68065, Note_on_c, 0, 56, 0
1, 68065, Note_on_c, 0, 80, 0
1, 68065, Note_on_c, 0, 76, 93
1, 68068, Note_on_c, 0, 59, 75
1, 68175, Note_on_c, 0, 59, 0
1, 68175, Note_on_c, 0, 76, 0
1, 68175, Note_on_c, 0, 81, 99
1, 68178, Note_on_c, 0, 54, 80
1, 68178, Control_c, 0, 64, 0
1, 68216, Control_c, 0, 64, 127
1, 68280, Note_on_c, 0, 54, 0
1, 68280, Note_on_c, 0, 78, 92
1, 68280, Note_on_c, 0, 57, 72
1, 68333, Note_on_c, 0, 81, 0
1, 68385, Note_on_c, 0, 57, 0
1, 68385, Note_on_c, 0, 78, 0
1, 68385, Note_on_c, 0, 75, 91
1, 68388, Note_on_c, 0, 59, 72
1, 68490, Note_on_c, 0, 59, 0
1, 68490, Note_on_c, 0, 75, 0
1, 68490, Note_on_c, 0, 87, 98
1, 68493, Note_on_c, 0, 57, 78
1, 68596, Note_on_c, 0, 57, 0
1, 68596, Note_on_c, 0, 83, 90
1, 68596, Note_on_c, 0, 59, 72
1, 68648, Note_on_c, 0, 87, 0
1, 68701, Note_on_c, 0, 59, 0
1, 68701, Note_on_c, 0, 83, 0
1, 68701, Note_on_c, 0, 78, 88
1, 68704, Note_on_c, 0, 66, 72
1, 68816, Note_on_c, 0, 66, 0
1, 68816, Note_on_c, 0, 78, 0
1, 68816, Note_on_c, 0, 88, 95
1, 68819, Note_on_c, 0, 56, 77
1, 68819, Control_c, 0, 64, 0
1, 68858, Control_c, 0, 64, 127
1, 68921, Note_on_c, 0, 56, 0
1, 68921, Note_on_c, 0, 83, 86
1, 68921, Note_on_c, 0, 59, 69
1, 68974, Note_on_c, 0, 88, 0
1, 69026, Note_on_c, 0, 59, 0
1, 69026, Note_on_c, 0, 83, 0
1, 69026, Note_on_c, 0, 80, 86
1, 69029, Note_on_c, 0, 64, 69
1, 69131, Note_on_c, 0, 64, 0
1, 69131, Note_on_c, 0, 80, 0
1, 69131, Note_on_c, 0, 83, 93
1, 69134, Note_on_c, 0, 52, 75
1, 69236, Note_on_c, 0, 52, 0
1, 69236, Note_on_c, 0, 80, 85
1, 69236, Note_on_c, 0, 56, 69
1, 69288, Note_on_c, 0, 83, 0
1, 69341, Note_on_c, 0, 56, 0
1, 69341, Note_on_c, 0, 80, 0
1, 69341, Note_on_c, 0, 76, 84
1, 69344, Note_on_c, 0, 59, 68
1, 69451, Note_on_c, 0, 59, 0
1, 69451, Note_on_c, 0, 76, 0
1, 69451, Note_on_c, 0, 81, 90
1, 69454, Note_on_c, 0, 54, 72
1, 69454, Control_c, 0, 64, 0
1, 69492, Control_c, 0, 64, 127
1, 69555, Note_on_c, 0, 54, 0
1, 69555, Note_on_c, 0, 78, 83
1, 69555, Note_on_c, 0, 57, 65
1, 69607, Note_on_c, 0, 81, 0
1, 69660, Note_on_c, 0, 57, 0
1, 69660, Note_on_c, 0, 78, 0
1, 69660, Note_on_c, 0, 75, 81
1, 69663, Note_on_c, 0, 59, 65
1, 69764, Note_on_c, 0, 59, 0
1, 69764, Note_on_c, 0, 75, 0
1, 69764, Note_on_c, 0, 87, 89
1, 69767, Note_on_c, 0, 57, 71
1, 69868, Note_on_c, 0, 57, 0
1, 69868, Note_on_c, 0, 83, 80
1, 69868, Note_on_c, 0, 59, 65
1, 69921, Note_on_c, 0, 87, 0
1, 69973, Note_on_c, 0, 59, 0
1, 69973, Note_on_c, 0, 83, 0
1, 69973, Note_on_c, 0, 78, 79
1, 69976, Note_on_c, 0, 66, 65
1, 70089, Note_on_c, 0, 66, 0
1, 70089, Note_on_c, 0, 78, 0
1, 70089, Note_on_c, 0, 88, 85
1, 70092, Note_on_c, 0, 56, 71
1, 70092, Control_c, 0, 64, 0
1, 70166, Note_on_c, 0, 56, 0
1, 70166, Note_on_c, 0, 88, 0
1, 70166, Note_on_c, 0, 83, 79
1, 70169, Note_on_c, 0, 59, 64
1, 70243, Note_on_c, 0, 59, 0
1, 70243, Note_on_c, 0, 83, 0
1, 70243, Note_on_c, 0, 80, 79
1, 70246, Note_on_c, 0, 52, 64
1, 70321, Note_on_c, 0, 52, 0
1, 70321, Note_on_c, 0, 80, 0
1, 70321, Note_on_c, 0, 76, 80
1, 70324, Note_on_c, 0, 59, 65
1, 70398, Note_on_c, 0, 59, 0
1, 70398, Note_on_c, 0, 76, 0
1, 70398, Note_on_c, 0, 81, 86
1, 70401, Note_on_c, 0, 54, 72
1, 70474, Note_on_c, 0, 54, 0
1, 70474, Note_on_c, 0, 81, 0
1, 70474, Note_on_c, 0, 78, 80
1, 70477, Note_on_c, 0, 59, 65
1, 70551, Note_on_c, 0, 59, 0
1, 70551, Note_on_c, 0, 78, 0
1, 70551, Note_on_c, 0, 87, 83
1, 70554, Note_on_c, 0, 57, 65
1, 70627, Note_on_c, 0, 57, 0
1, 70627, Note_on_c, 0, 87, 0
1, 70627, Note_on_c, 0, 83, 84
1, 70630, Note_on_c, 0, 59, 65
1, 70703, Note_on_c, 0, 59, 0
1, 70703, Note_on_c, 0, 83, 0
1, 70703, Note_on_c, 0, 88, 90
1, 70706, Note_on_c, 0, 56, 73
1, 70779, Note_on_c, 0, 56, 0
1, 70779, Note_on_c, 0, 88, 0
1, 70779, Note_on_c, 0, 83, 84
1, 70782, Note_on_c, 0, 59, 67
1, 70855, Note_on_c, 0, 59, 0
1, 70855, Note_on_c, 0, 83, 0
1, 70855, Note_on_c, 0, 80, 84
1, 70858, Note_on_c, 0, 52, 68
1, 70931, Note_on_c, 0, 52, 0
1, 70931, Note_on_c, 0, 80, 0
1, 70931, Note_on_c, 0, 76, 85
1, 70934, Note_on_c, 0, 59, 70
1, 71007, Note_on_c, 0, 59, 0
1, 71007, Note_on_c, 0, 76, 0
1, 71007, Note_on_c, 0, 81, 92
1, 71010, Note_on_c, 0, 54, 76
1, 71083, Note_on_c, 0, 54, 0
1, 71083, Note_on_c, 0, 81, 0
1, 71083, Note_on_c, 0, 78, 87
1, 71086, Note_on_c, 0, 59, 69
1, 71159, Note_on_c, 0, 59, 0
1, 71159, Note_on_c, 0, 78, 0
1, 71159, Note_on_c, 0, 87, 88
1, 71162, Note_on_c, 0, 57, 69
1, 71234, Note_on_c, 0, 57, 0
1, 71234, Note_on_c, 0, 87, 0
1, 71234, Note_on_c, 0, 83, 88
1, 71237, Note_on_c, 0, 59, 70
1, 71315, Note_on_c, 0, 59, 0
1, 71315, Note_on_c, 0, 83, 0
1, 71315, Note_on_c, 0, 88, 95
1, 71318, Note_on_c, 0, 56, 79
1, 71391, Note_on_c, 0, 56, 0
1, 71391, Note_on_c, 0, 88, 0
1, 71391, Note_on_c, 0, 83, 88
1, 71394, Note_on_c, 0, 59, 71
1, 71466, Note_on_c, 0, 59, 0
1, 71466, Note_on_c, 0, 83, 0
1, 71466, Note_on_c, 0, 87, 90
1, 71469, Note_on_c, 0, 57, 72
1, 71541, Note_on_c, 0, 57, 0
1, 71541, Note_on_c, 0, 87, 0
1, 71541, Note_on_c, 0, 83, 90
1, 71544, Note_on_c, 0, 59, 73
1, 71616, Note_on_c, 0, 59, 0
1, 71616, Note_on_c, 0, 83, 0
1, 71616, Note_on_c, 0, 88, 98
1, 71619, Note_on_c, 0, 56, 81
1, 71691, Note_on_c, 0, 56, 0
1, 71691, Note_on_c, 0, 88, 0
1, 71691, Note_on_c, 0, 83, 98
1, 71694, Note_on_c, 0, 59, 73
1, 71765, Note_on_c, 0, 59, 0
1, 71765, Note_on_c, 0, 83, 0
1, 71765, Note_on_c, 0, 87, 93
1, 71768, Note_on_c, 0, 57, 73
1, 71840, Note_on_c, 0, 57, 0
1, 71840, Note_on_c, 0, 87, 0
1, 71840, Note_on_c, 0, 83, 94
1, 71843, Note_on_c, 0, 59, 75
1, 71914, Note_on_c, 0, 59, 0
1, 71914, Note_on_c, 0, 83, 0
1, 71914, Note_on_c, 0, 88, 101
1, 71917, Note_on_c, 0, 56, 83
1, 71988, Note_on_c, 0, 56, 0
1, 71988, Note_on_c, 0, 88, 0
1, 71988, Note_on_c, 0, 83, 94
1, 71991, Note_on_c, 0, 59, 76
1, 72062, Note_on_c, 0, 59, 0
1, 72062, Note_on_c, 0, 83, 0
1, 72062, Note_on_c, 0, 87, 95
1, 72065, Note_on_c, 0, 57, 76
1, 72136, Note_on_c, 0, 57, 0
1, 72136, Note_on_c, 0, 87, 0
1, 72136, Note_on_c, 0, 83, 95
1, 72139, Note_on_c, 0, 59, 78
1, 72210, Note_on_c, 0, 59, 0
1, 72210, Note_on_c, 0, 83, 0
1, 72210, Note_on_c, 0, 88, 103
1, 72213, Note_on_c, 0, 56, 86
1, 72284, Note_on_c, 0, 56, 0
1, 72284, Note_on_c, 0, 88, 0
1, 72284, Note_on_c, 0, 83, 106
1, 72287, Note_on_c, 0, 59, 78
1, 72358, Note_on_c, 0, 59, 0
1, 72358, Note_on_c, 0, 83, 0
1, 72358, Note_on_c, 0, 87, 99
1, 72361, Note_on_c, 0, 57, 78
1, 72432, Note_on_c, 0, 57, 0
1, 72432, Note_on_c, 0, 87, 0
1, 72432, Note_on_c, 0, 83, 100
1, 72435, Note_on_c, 0, 59, 79
1, 72513, Note_on_c, 0, 59, 0
1, 72513, Note_on_c, 0, 83, 0
1, 72513, Note_on_c, 0, 88, 110
1, 72516, Note_on_c, 0, 56, 91
1, 72587, Note_on_c, 0, 56, 0
1, 72587, Note_on_c, 0, 88, 0
1, 72587, Note_on_c, 0, 83, 102
1, 72590, Note_on_c, 0, 59, 81
1, 72661, Note_on_c, 0, 59, 0
1, 72661, Note_on_c, 0, 83, 0
1, 72661, Note_on_c, 0, 86, 102
1, 72664, Note_on_c, 0, 44, 81
1, 72735, Note_on_c, 0, 44, 0
1, 72735, Note_on_c, 0, 86, 0
1, 72735, Note_on_c, 0, 83, 102
1, 72738, Note_on_c, 0, 52, 83
1, 72808, Note_on_c, 0, 52, 0
1, 72808, Note_on_c, 0, 83, 0
1, 72808, Note_on_c, 0, 86, 110
1, 72811, Note_on_c, 0, 44, 91
1, 72843, Control_c, 0, 64, 127
1, 72882, Note_on_c, 0, 44, 0
1, 72882, Note_on_c, 0, 86, 0
1, 72882, Note_on_c, 0, 83, 104
1, 72885, Note_on_c, 0, 52, 81
1, 72955, Note_on_c, 0, 52, 0
1, 72955, Note_on_c, 0, 83, 0
1, 72955, Note_on_c, 0, 86, 103
1, 72958, Note_on_c, 0, 44, 81
1, 73029, Note_on_c, 0, 44, 0
1, 73029, Note_on_c, 0, 86, 0
1, 73029, Note_on_c, 0, 83, 103
1, 73032, Note_on_c, 0, 52, 81
1, 73102, Note_on_c, 0, 52, 0
1, 73102, Note_on_c, 0, 83, 0
1, 73102, Note_on_c, 0, 86, 110
1, 73105, Note_on_c, 0, 44, 91
1, 73175, Note_on_c, 0, 44, 0
1, 73175, Note_on_c, 0, 86, 0
1, 73175, Note_on_c, 0, 83, 102
1, 73178, Note_on_c, 0, 52, 81
1, 73248, Note_on_c, 0, 52, 0
1, 73248, Note_on_c, 0, 83, 0
1, 73248, Note_on_c, 0, 86, 102
1, 73251, Note_on_c, 0, 44, 81
1, 73321, Note_on_c, 0, 44, 0
1, 73321, Note_on_c, 0, 86, 0
1, 73321, Note_on_c, 0, 83, 102
1, 73324, Note_on_c, 0, 52, 83
1, 73394, Note_on_c, 0, 52, 0
1, 73394, Note_on_c, 0, 83, 0
1, 73394, Note_on_c, 0, 86, 110
1, 73397, Note_on_c, 0, 44, 91
1, 73467, Note_on_c, 0, 44, 0
1, 73467, Note_on_c, 0, 86, 0
1, 73467, Note_on_c, 0, 83, 104
1, 73470, Note_on_c, 0, 52, 81
1, 73540, Note_on_c, 0, 52, 0
1, 73540, Note_on_c, 0, 83, 0
1, 73540, Note_on_c, 0, 86, 103
1, 73543, Note_on_c, 0, 44, 81
1, 73613, Note_on_c, 0, 44, 0
1, 73613, Note_on_c, 0, 86, 0
1, 73613, Note_on_c, 0, 83, 103
1, 73616, Note_on_c, 0, 52, 81
1, 73689, Note_on_c, 0, 52, 0
1, 73689, Note_on_c, 0, 83, 0
1, 73689, Note_on_c, 0, 86, 110
1, 73692, Note_on_c, 0, 44, 91
1, 73696, Control_c, 0, 64, 0
1, 73713, Control_c, 0, 64, 127
1, 73760, Note_on_c, 0, 44, 0
1, 73760, Note_on_c, 0, 52, 81
1, 73831, Note_on_c, 0, 52, 0
1, 73831, Note_on_c, 0, 86, 0
1, 73831, Note_on_c, 0, 85, 102
1, 73834, Note_on_c, 0, 44, 81
1, 73903, Note_on_c, 0, 44, 0
1, 73903, Note_on_c, 0, 85, 0
1, 73903, Note_on_c, 0, 83, 102
1, 73906, Note_on_c, 0, 52, 83
1, 73974, Note_on_c, 0, 52, 0
1, 73974, Note_on_c, 0, 83, 0
1, 73974, Note_on_c, 0, 81, 109
1, 73977, Note_on_c, 0, 44, 91
1, 74045, Note_on_c, 0, 44, 0
1, 74045, Note_on_c, 0, 81, 0
1, 74045, Note_on_c, 0, 80, 104
1, 74048, Note_on_c, 0, 52, 81
1, 74116, Note_on_c, 0, 52, 0
1, 74116, Note_on_c, 0, 80, 0
1, 74116, Note_on_c, 0, 78, 104
1, 74119, Note_on_c, 0, 44, 81
1, 74187, Note_on_c, 0, 44, 0
1, 74187, Note_on_c, 0, 78, 0
1, 74187, Note_on_c, 0, 76, 104
1, 74190, Note_on_c, 0, 52, 82
1, 74258, Note_on_c, 0, 52, 0
1, 74258, Note_on_c, 0, 76, 0
1, 74258, Note_on_c, 0, 74, 109
1, 74261, Note_on_c, 0, 44, 92
1, 74264, Control_c, 0, 64, 0
1, 74296, Control_c, 0, 64, 127
1, 74329, Note_on_c, 0, 44, 0
1, 74329, Note_on_c, 0, 74, 0
1, 74329, Note_on_c, 0, 73, 103
1, 74332, Note_on_c, 0, 52, 82
1, 74401, Note_on_c, 0, 52, 0
1, 74401, Note_on_c, 0, 73, 0
1, 74401, Note_on_c, 0, 71, 104
1, 74404, Note_on_c, 0, 44, 82
1, 74472, Note_on_c, 0, 44, 0
1, 74472, Note_on_c, 0, 71, 0
1, 74472, Note_on_c, 0, 69, 104
1, 74475, Note_on_c, 0, 52, 84
1, 74543, Note_on_c, 0, 52, 0
1, 74543, Note_on_c, 0, 69, 0
1, 74543, Note_on_c, 0, 68, 112
1, 74546, Note_on_c, 0, 44, 93
1, 74614, Note_on_c, 0, 44, 0
1, 74614, Note_on_c, 0, 68, 0
1, 74614, Note_on_c, 0, 66, 107
1, 74617, Note_on_c, 0, 52, 83
1, 74685, Note_on_c, 0, 52, 0
1, 74685, Note_on_c, 0, 66, 0
1, 74685, Note_on_c, 0, 64, 106
1, 74688, Note_on_c, 0, 44, 83
1, 74756, Note_on_c, 0, 44, 0
1, 74756, Note_on_c, 0, 64, 0
1, 74756, Note_on_c, 0, 62, 106
1, 74759, Note_on_c, 0, 52, 83
1, 74827, Note_on_c, 0, 52, 0
1, 74827, Note_on_c, 0, 62, 0
1, 74827, Note_on_c, 0, 61, 114
1, 74830, Note_on_c, 0, 45, 88
1, 74830, Note_on_c, 0, 49, 88
1, 74830, Note_on_c, 0, 52, 101
1, 74883, Control_c, 0, 64, 0
1, 74897, Note_on_c, 0, 61, 0
1, 74897, Note_on_c, 0, 63, 105
1, 74931, Note_on_c, 0, 45, 0
1, 74931, Note_on_c, 0, 52, 0
1, 74931, Note_on_c, 0, 49, 0
1, 74966, Note_on_c, 0, 63, 0
1, 74966, Note_on_c, 0, 64, 105
1, 74966, Note_on_c, 0, 45, 81
1, 74969, Note_on_c, 0, 49, 81
1, 74969, Note_on_c, 0, 52, 94
1, 75036, Note_on_c, 0, 64, 0
1, 75036, Note_on_c, 0, 63, 107
1, 75071, Note_on_c, 0, 45, 0
1, 75071, Note_on_c, 0, 52, 0
1, 75071, Note_on_c, 0, 49, 0
1, 75106, Note_on_c, 0, 63, 0
1, 75106, Note_on_c, 0, 64, 113
1, 75176, Note_on_c, 0, 64, 0
1, 75176, Note_on_c, 0, 68, 106
1, 75246, Note_on_c, 0, 68, 0
1, 75246, Note_on_c, 0, 69, 106
1, 75246, Note_on_c, 0, 45, 81
1, 75249, Note_on_c, 0, 49, 81
1, 75249, Note_on_c, 0, 52, 94
1, 75319, Note_on_c, 0, 69, 0
1, 75319, Note_on_c, 0, 68, 106
1, 75356, Note_on_c, 0, 45, 0
1, 75356, Note_on_c, 0, 52, 0
1, 75356, Note_on_c, 0, 49, 0
1, 75392, Note_on_c, 0, 68, 0
1, 75392, Note_on_c, 0, 69, 114
1, 75392, Note_on_c, 0, 45, 88
1, 75395, Note_on_c, 0, 49, 88
1, 75395, Note_on_c, 0, 52, 101
1, 75462, Note_on_c, 0, 69, 0
1, 75462, Note_on_c, 0, 72, 105
1, 75496, Note_on_c, 0, 45, 0
1, 75496, Note_on_c, 0, 52, 0
1, 75496, Note_on_c, 0, 49, 0
1, 75531, Note_on_c, 0, 72, 0
1, 75531, Note_on_c, 0, 73, 105
1, 75531, Note_on_c, 0, 45, 81
1, 75534, Note_on_c, 0, 49, 81
1, 75534, Note_on_c, 0, 52, 94
1, 75601, Note_on_c, 0, 73, 0
1, 75601, Note_on_c, 0, 72, 105
1, 75636, Note_on_c, 0, 45, 0
1, 75636, Note_on_c, 0, 52, 0
1, 75636, Note_on_c, 0, 49, 0
1, 75670, Note_on_c, 0, 72, 0
1, 75670, Note_on_c, 0, 73, 114
1, 75741, Note_on_c, 0, 73, 0
1, 75741, Note_on_c, 0, 75, 105
1, 75810, Note_on_c, 0, 75, 0
1, 75810, Note_on_c, 0, 76, 105
1, 75810, Note_on_c, 0, 45, 81
1, 75813, Note_on_c, 0, 49, 81
1, 75813, Note_on_c, 0, 52, 94
1, 75883, Note_on_c, 0, 76, 0
1, 75883, Note_on_c, 0, 75, 105
1, 75920, Note_on_c, 0, 45, 0
1, 75920, Note_on_c, 0, 52, 0
1, 75920, Note_on_c, 0, 49, 0
1, 75956, Note_on_c, 0, 75, 0
1, 75956, Note_on_c, 0, 76, 116
1, 75956, Note_on_c, 0, 45, 88
1, 75959, Note_on_c, 0, 49, 88
1, 75959, Note_on_c, 0, 52, 99
1, 76026, Note_on_c, 0, 76, 0
1, 76026, Note_on_c, 0, 80, 107
1, 76061, Note_on_c, 0, 45, 0
1, 76061, Note_on_c, 0, 52, 0
1, 76061, Note_on_c, 0, 49, 0
1, 76096, Note_on_c, 0, 80, 0
1, 76096, Note_on_c, 0, 81, 107
1, 76096, Note_on_c, 0, 45, 81
1, 76099, Note_on_c, 0, 49, 81
1, 76099, Note_on_c, 0, 52, 94
1, 76165, Note_on_c, 0, 81, 0
1, 76165, Note_on_c, 0, 80, 107
1, 76200, Note_on_c, 0, 45, 0
1, 76200, Note_on_c, 0, 52, 0
1, 76200, Note_on_c, 0, 49, 0
1, 76235, Note_on_c, 0, 80, 0
1, 76235, Note_on_c, 0, 81, 116
1, 76305, Note_on_c, 0, 81, 0
1, 76305, Note_on_c, 0, 84, 107
1, 76375, Note_on_c, 0, 84, 0
1, 76375, Note_on_c, 0, 85, 107
1, 76375, Note_on_c, 0, 45, 81
1, 76378, Note_on_c, 0, 49, 81
1, 76378, Note_on_c, 0, 52, 94
1, 76447, Note_on_c, 0, 85, 0
1, 76447, Note_on_c, 0, 84, 107
1, 76483, Note_on_c, 0, 45, 0
1, 76483, Note_on_c, 0, 52, 0
1, 76483, Note_on_c, 0, 49, 0
1, 76520, Note_on_c, 0, 84, 0
1, 76520, Note_on_c, 0, 85, 116
1, 76520, Note_on_c, 0, 45, 88
1, 76523, Note_on_c, 0, 49, 88
1, 76523, Note_on_c, 0, 52, 99
1, 76589, Note_on_c, 0, 85, 0
1, 76589, Note_on_c, 0, 87, 107
1, 76624, Note_on_c, 0, 45, 0
1, 76624, Note_on_c, 0, 52, 0
1, 76624, Note_on_c, 0, 49, 0
1, 76659, Note_on_c, 0, 87, 0
1, 76659, Note_on_c, 0, 88, 107
1, 76659, Note_on_c, 0, 45, 81
1, 76662, Note_on_c, 0, 49, 81
1, 76662, Note_on_c, 0, 52, 94
1, 76728, Note_on_c, 0, 88, 0
1, 76728, Note_on_c, 0, 87, 107
1, 76763, Note_on_c, 0, 45, 0
1, 76763, Note_on_c, 0, 52, 0
1, 76763, Note_on_c, 0, 49, 0
1, 76798, Note_on_c, 0, 87, 0
1, 76798, Note_on_c, 0, 88, 116
1, 76868, Note_on_c, 0, 88, 0
1, 76868, Note_on_c, 0, 87, 107
1, 76938, Note_on_c, 0, 87, 0
1, 76938, Note_on_c, 0, 85, 107
1, 76938, Note_on_c, 0, 45, 81
1, 76941, Note_on_c, 0, 49, 81
1, 76941, Note_on_c, 0, 52, 94
1, 77013, Note_on_c, 0, 85, 0
1, 77013, Note_on_c, 0, 84, 107
1, 77051, Note_on_c, 0, 45, 0
1, 77051, Note_on_c, 0, 52, 0
1, 77051, Note_on_c, 0, 49, 0
1, 77088, Note_on_c, 0, 84, 0
1, 77088, Note_on_c, 0, 85, 116
1, 77088, Note_on_c, 0, 52, 88
1, 77091, Note_on_c, 0, 46, 88
1, 77091, Note_on_c, 0, 49, 88
1, 77091, Note_on_c, 0, 54, 99
1, 77157, Note_on_c, 0, 85, 0
1, 77157, Note_on_c, 0, 84, 107
1, 77192, Note_on_c, 0, 52, 0
1, 77192, Note_on_c, 0, 54, 0
1, 77192, Note_on_c, 0, 46, 0
1, 77195, Note_on_c, 0, 49, 0
1, 77227, Note_on_c, 0, 84, 0
1, 77227, Note_on_c, 0, 85, 107
1, 77227, Note_on_c, 0, 52, 81
1, 77230, Note_on_c, 0, 46, 81
1, 77230, Note_on_c, 0, 49, 81
1, 77230, Note_on_c, 0, 54, 94
1, 77298, Note_on_c, 0, 85, 0
1, 77298, Note_on_c, 0, 87, 107
1, 77332, Note_on_c, 0, 52, 0
1, 77332, Note_on_c, 0, 54, 0
1, 77332, Note_on_c, 0, 46, 0
1, 77335, Note_on_c, 0, 49, 0
1, 77367, Note_on_c, 0, 87, 0
1, 77367, Note_on_c, 0, 88, 116
1, 77437, Note_on_c, 0, 88, 0
1, 77437, Note_on_c, 0, 87, 107
1, 77507, Note_on_c, 0, 87, 0
1, 77507, Note_on_c, 0, 85, 107
1, 77507, Note_on_c, 0, 52, 81
1, 77510, Note_on_c, 0, 46, 81
1, 77510, Note_on_c, 0, 49, 81
1, 77510, Note_on_c, 0, 54, 94
1, 77580, Note_on_c, 0, 85, 0
1, 77580, Note_on_c, 0, 84, 107
1, 77616, Note_on_c, 0, 52, 0
1, 77616, Note_on_c, 0, 54, 0
1, 77616, Note_on_c, 0, 46, 0
1, 77619, Note_on_c, 0, 49, 0
1, 77652, Note_on_c, 0, 84, 0
1, 77652, Note_on_c, 0, 85, 116
1, 77652, Note_on_c, 0, 52, 88
1, 77655, Note_on_c, 0, 46, 88
1, 77655, Note_on_c, 0, 49, 88
1, 77655, Note_on_c, 0, 54, 99
1, 77722, Note_on_c, 0, 85, 0
1, 77722, Note_on_c, 0, 84, 107
1, 77757, Note_on_c, 0, 52, 0
1, 77757, Note_on_c, 0, 54, 0
1, 77757, Note_on_c, 0, 46, 0
1, 77760, Note_on_c, 0, 49, 0
1, 77792, Note_on_c, 0, 84, 0
1, 77792, Note_on_c, 0, 85, 107
1, 77792, Note_on_c, 0, 52, 81
1, 77795, Note_on_c, 0, 46, 81
1, 77795, Note_on_c, 0, 49, 81
1, 77795, Note_on_c, 0, 54, 94
1, 77862, Note_on_c, 0, 85, 0
1, 77862, Note_on_c, 0, 87, 107
1, 77897, Note_on_c, 0, 52, 0
1, 77897, Note_on_c, 0, 54, 0
1, 77897, Note_on_c, 0, 46, 0
1, 77900, Note_on_c, 0, 49, 0
1, 77932, Note_on_c, 0, 87, 0
1, 77932, Note_on_c, 0, 88, 116
1, 78002, Note_on_c, 0, 88, 0
1, 78002, Note_on_c, 0, 87, 107
1, 78072, Note_on_c, 0, 87, 0
1, 78072, Note_on_c, 0, 85, 107
1, 78072, Note_on_c, 0, 52, 81
1, 78075, Note_on_c, 0, 46, 81
1, 78075, Note_on_c, 0, 49, 81
1, 78075, Note_on_c, 0, 54, 94
1, 78144, Note_on_c, 0, 85, 0
1, 78144, Note_on_c, 0, 84, 107
1, 78181, Note_on_c, 0, 52, 0
1, 78181, Note_on_c, 0, 54, 0
1, 78181, Note_on_c, 0, 46, 0
1, 78184, Note_on_c, 0, 49, 0
1, 78217, Note_on_c, 0, 84, 0
1, 78217, Note_on_c, 0, 85, 116
1, 78217, Note_on_c, 0, 52, 88
1, 78220, Note_on_c, 0, 46, 88
1, 78220, Note_on_c, 0, 49, 88
1, 78220, Note_on_c, 0, 54, 99
1, 78286, Note_on_c, 0, 85, 0
1, 78286, Note_on_c, 0, 84, 107
1, 78321, Note_on_c, 0, 52, 0
1, 78321, Note_on_c, 0, 54, 0
1, 78321, Note_on_c, 0, 46, 0
1, 78324, Note_on_c, 0, 49, 0
1, 78356, Note_on_c, 0, 84, 0
1, 78356, Note_on_c, 0, 85, 107
1, 78356, Note_on_c, 0, 52, 81
1, 78359, Note_on_c, 0, 46, 81
1, 78359, Note_on_c, 0, 49, 81
1, 78359, Note_on_c, 0, 54, 94
1, 78427, Note_on_c, 0, 85, 0
1, 78427, Note_on_c, 0, 87, 107
1, 78461, Note_on_c, 0, 52, 0
1, 78461, Note_on_c, 0, 54, 0
1, 78461, Note_on_c, 0, 46, 0
1, 78464, Note_on_c, 0, 49, 0
1, 78496, Note_on_c, 0, 87, 0
1, 78496, Note_on_c, 0, 88, 116
1, 78566, Note_on_c, 0, 88, 0
1, 78566, Note_on_c, 0, 87, 107
1, 78636, Note_on_c, 0, 87, 0
1, 78636, Note_on_c, 0, 85, 107
1, 78636, Note_on_c, 0, 52, 81
1, 78639, Note_on_c, 0, 46, 81
1, 78639, Note_on_c, 0, 49, 81
1, 78639, Note_on_c, 0, 54, 94
1, 78708, Note_on_c, 0, 85, 0
1, 78708, Note_on_c, 0, 84, 107
1, 78745, Note_on_c, 0, 52, 0
1, 78745, Note_on_c, 0, 54, 0
1, 78745, Note_on_c, 0, 46, 0
1, 78748, Note_on_c, 0, 49, 0
1, 78781, Note_on_c, 0, 84, 0
1, 78781, Note_on_c, 0, 85, 116
1, 78781, Note_on_c, 0, 52, 88
1, 78784, Note_on_c, 0, 46, 88
1, 78784, Note_on_c, 0, 49, 88
1, 78784, Note_on_c, 0, 54, 99
1, 78850, Note_on_c, 0, 85, 0
1, 78850, Note_on_c, 0, 84, 107
1, 78885, Note_on_c, 0, 52, 0
1, 78885, Note_on_c, 0, 54, 0
1, 78885, Note_on_c, 0, 46, 0
1, 78888, Note_on_c, 0, 49, 0
1, 78921, Note_on_c, 0, 84, 0
1, 78921, Note_on_c, 0, 85, 107
1, 78921, Note_on_c, 0, 52, 81
1, 78924, Note_on_c, 0, 46, 81
1, 78924, Note_on_c, 0, 49, 81
1, 78924, Note_on_c, 0, 54, 94
1, 78990, Note_on_c, 0, 85, 0
1, 78990, Note_on_c, 0, 87, 107
1, 79025, Note_on_c, 0, 52, 0
1, 79025, Note_on_c, 0, 54, 0
1, 79025, Note_on_c, 0, 46, 0
1, 79028, Note_on_c, 0, 49, 0
1, 79060, Note_on_c, 0, 87, 0
1, 79060, Note_on_c, 0, 88, 116
1, 79130, Note_on_c, 0, 88, 0
1, 79130, Note_on_c, 0, 87, 107
1, 79199, Note_on_c, 0, 87, 0
1, 79199, Note_on_c, 0, 88, 107
1, 79199, Note_on_c, 0, 52, 81
1, 79202, Note_on_c, 0, 46, 81
1, 79202, Note_on_c, 0, 49, 81
1, 79202, Note_on_c, 0, 54, 94
1, 79272, Note_on_c, 0, 88, 0
1, 79272, Note_on_c, 0, 85, 107
1, 79308, Note_on_c, 0, 52, 0
1, 79308, Note_on_c, 0, 54, 0
1, 79308, Note_on_c, 0, 46, 0
1, 79311, Note_on_c, 0, 49, 0
1, 79344, Note_on_c, 0, 85, 0
1, 79344, Note_on_c, 0, 71, 108
1, 79344, Note_on_c, 0, 83, 124
1, 79347, Note_on_c, 0, 47, 99
1, 79414, Note_on_c, 0, 47, 0
1, 79414, Note_on_c, 0, 83, 0
1, 79414, Note_on_c, 0, 71, 0
1, 79417, Note_on_c, 0, 52, 91
1, 79484, Note_on_c, 0, 52, 0
1, 79484, Note_on_c, 0, 71, 94
1, 79484, Note_on_c, 0, 83, 108
1, 79487, Note_on_c, 0, 56, 91
1, 79554, Note_on_c, 0, 56, 0
1, 79554, Note_on_c, 0, 83, 0
1, 79554, Note_on_c, 0, 71, 0
1, 79557, Note_on_c, 0, 59, 91
1, 79624, Note_on_c, 0, 59, 0
1, 79624, Note_on_c, 0, 68, 95
1, 79624, Note_on_c, 0, 80, 109
1, 79627, Note_on_c, 0, 47, 98
1, 79695, Note_on_c, 0, 47, 0
1, 79695, Note_on_c, 0, 80, 0
1, 79695, Note_on_c, 0, 68, 0
1, 79698, Note_on_c, 0, 52, 91
1, 79766, Note_on_c, 0, 52, 0
1, 79766, Note_on_c, 0, 64, 94
1, 79766, Note_on_c, 0, 76, 108
1, 79769, Note_on_c, 0, 56, 91
1, 79837, Note_on_c, 0, 56, 0
1, 79837, Note_on_c, 0, 76, 0
1, 79837, Note_on_c, 0, 64, 0
1, 79840, Note_on_c, 0, 59, 91
1, 79908, Note_on_c, 0, 59, 0
1, 79908, Note_on_c, 0, 76, 108
1, 79908, Note_on_c, 0, 88, 124
1, 79911, Note_on_c, 0, 47, 96
1, 79978, Note_on_c, 0, 47, 0
1, 79978, Note_on_c, 0, 88, 0
1, 79978, Note_on_c, 0, 76, 0
1, 79981, Note_on_c, 0, 52, 91
1, 80048, Note_on_c, 0, 52, 0
1, 80048, Note_on_c, 0, 76, 94
1, 80048, Note_on_c, 0, 88, 108
1, 80051, Note_on_c, 0, 56, 91
1, 80118, Note_on_c, 0, 56, 0
1, 80118, Note_on_c, 0, 88, 0
1, 80118, Note_on_c, 0, 76, 0
1, 80121, Note_on_c, 0, 59, 91
1, 80188, Note_on_c, 0, 59, 0
1, 80188, Note_on_c, 0, 71, 94
1, 80188, Note_on_c, 0, 83, 108
1, 80191, Note_on_c, 0, 47, 96
1, 80259, Note_on_c, 0, 47, 0
1, 80259, Note_on_c, 0, 83, 0
1, 80259, Note_on_c, 0, 71, 0
1, 80262, Note_on_c, 0, 52, 91
1, 80330, Note_on_c, 0, 52, 0
1, 80330, Note_on_c, 0, 68, 94
1, 80330, Note_on_c, 0, 80, 108
1, 80333, Note_on_c, 0, 56, 91
1, 80402, Note_on_c, 0, 56, 0
1, 80402, Note_on_c, 0, 80, 0
1, 80402, Note_on_c, 0, 68, 0
1, 80405, Note_on_c, 0, 59, 91
1, 80473, Note_on_c, 0, 59, 0
1, 80473, Note_on_c, 0, 71, 108
1, 80473, Note_on_c, 0, 83, 124
1, 80476, Note_on_c, 0, 47, 99
1, 80543, Note_on_c, 0, 47, 0
1, 80543, Note_on_c, 0, 83, 0
1, 80543, Note_on_c, 0, 71, 0
1, 80546, Note_on_c, 0, 52, 91
1, 80613, Note_on_c, 0, 52, 0
1, 80613, Note_on_c, 0, 71, 94
1, 80613, Note_on_c, 0, 83, 108
1, 80616, Note_on_c, 0, 56, 91
1, 80683, Note_on_c, 0, 56, 0
1, 80683, Note_on_c, 0, 83, 0
1, 80683, Note_on_c, 0, 71, 0
1, 80686, Note_on_c, 0, 59, 91
1, 80753, Note_on_c, 0, 59, 0
1, 80753, Note_on_c, 0, 68, 95
1, 80753, Note_on_c, 0, 80, 109
1, 80756, Note_on_c, 0, 47, 98
1, 80823, Note_on_c, 0, 47, 0
1, 80823, Note_on_c, 0, 80, 0
1, 80823, Note_on_c, 0, 68, 0
1, 80826, Note_on_c, 0, 52, 91
1, 80894, Note_on_c, 0, 52, 0
1, 80894, Note_on_c, 0, 64, 94
1, 80894, Note_on_c, 0, 76, 108
1, 80897, Note_on_c, 0, 56, 91
1, 80965, Note_on_c, 0, 56, 0
1, 80965, Note_on_c, 0, 76, 0
1, 80965, Note_on_c, 0, 64, 0
1, 80968, Note_on_c, 0, 59, 91
1, 81035, Note_on_c, 0, 59, 0
1, 81035, Note_on_c, 0, 76, 108
1, 81035, Note_on_c, 0, 88, 124
1, 81038, Note_on_c, 0, 56, 96
1, 81105, Note_on_c, 0, 56, 0
1, 81105, Note_on_c, 0, 88, 0
1, 81105, Note_on_c, 0, 76, 0
1, 81175, Note_on_c, 0, 76, 94
1, 81175, Note_on_c, 0, 88, 108
1, 81175, Note_on_c, 0, 56, 91
1, 81245, Note_on_c, 0, 56, 0
1, 81245, Note_on_c, 0, 88, 0
1, 81245, Note_on_c, 0, 76, 0
1, 81315, Note_on_c, 0, 71, 94
1, 81315, Note_on_c, 0, 83, 108
1, 81315, Note_on_c, 0, 52, 96
1, 81386, Note_on_c, 0, 52, 0
1, 81386, Note_on_c, 0, 83, 0
1, 81386, Note_on_c, 0, 71, 0
1, 81457, Note_on_c, 0, 68, 94
1, 81457, Note_on_c, 0, 80, 108
1, 81457, Note_on_c, 0, 47, 91
1, 81528, Note_on_c, 0, 47, 0
1, 81528, Note_on_c, 0, 80, 0
1, 81528, Note_on_c, 0, 68, 0
1, 81599, Note_on_c, 0, 59, 107
1, 81669, Note_on_c, 0, 59, 0
1, 81669, Note_on_c, 0, 80, 68
1, 81739, Note_on_c, 0, 80, 0
1, 81739, Note_on_c, 0, 83, 71
1, 81739, Note_on_c, 0, 56, 68
1, 81809, Note_on_c, 0, 56, 0
1, 81809, Note_on_c, 0, 80, 68
1, 81879, Note_on_c, 0, 80, 0
1, 81879, Note_on_c, 0, 83, 0
1, 81879, Note_on_c, 0, 83, 72
1, 81882, Note_on_c, 0, 64, 74
1, 81949, Note_on_c, 0, 64, 0
1, 81949, Note_on_c, 0, 80, 68
1, 82019, Note_on_c, 0, 80, 0
1, 82019, Note_on_c, 0, 83, 0
1, 82019, Note_on_c, 0, 83, 71
1, 82022, Note_on_c, 0, 59, 69
1, 82089, Note_on_c, 0, 59, 0
1, 82089, Note_on_c, 0, 80, 68
1, 82159, Note_on_c, 0, 80, 0
1, 82159, Note_on_c, 0, 83, 0
1, 82159, Note_on_c, 0, 83, 72
1, 82162, Note_on_c, 0, 68, 73
1, 82228, Note_on_c, 0, 68, 0
1, 82228, Note_on_c, 0, 80, 68
1, 82298, Note_on_c, 0, 80, 0
1, 82298, Note_on_c, 0, 83, 0
1, 82298, Note_on_c, 0, 83, 71
1, 82301, Note_on_c, 0, 64, 62
1, 82367, Note_on_c, 0, 64, 0
1, 82367, Note_on_c, 0, 80, 68
1, 82436, Note_on_c, 0, 80, 0
1, 82436, Note_on_c, 0, 83, 0
1, 82436, Note_on_c, 0, 83, 73
1, 82439, Note_on_c, 0, 71, 71
1, 82506, Note_on_c, 0, 71, 0
1, 82506, Note_on_c, 0, 80, 68
1, 82575, Note_on_c, 0, 80, 0
1, 82575, Note_on_c, 0, 83, 0
1, 82575, Note_on_c, 0, 83, 72
1, 82578, Note_on_c, 0, 68, 62
1, 82644, Note_on_c, 0, 68, 0
1, 82644, Note_on_c, 0, 80, 68
1, 82714, Note_on_c, 0, 80, 0
1, 82714, Note_on_c, 0, 83, 0
1, 82714, Note_on_c, 0, 83, 71
1, 82717, Note_on_c, 0, 76, 71
1, 82783, Note_on_c, 0, 76, 0
1, 82783, Note_on_c, 0, 80, 68
1, 82853, Note_on_c, 0, 80, 0
1, 82853, Note_on_c, 0, 83, 0
1, 82853, Note_on_c, 0, 83, 71
1, 82856, Note_on_c, 0, 71, 62
1, 82923, Note_on_c, 0, 71, 0
1, 82923, Note_on_c, 0, 80, 68
1, 82993, Note_on_c, 0, 80, 0
1, 82993, Note_on_c, 0, 83, 0
1, 82993, Note_on_c, 0, 83, 72
1, 82996, Note_on_c, 0, 76, 71
1, 83062, Note_on_c, 0, 76, 0
1, 83062, Note_on_c, 0, 80, 68
1, 83132, Note_on_c, 0, 80, 0
1, 83132, Note_on_c, 0, 83, 0
1, 83132, Note_on_c, 0, 83, 71
1, 83135, Note_on_c, 0, 71, 60
1, 83202, Note_on_c, 0, 71, 0
1, 83202, Note_on_c, 0, 80, 68
1, 83272, Note_on_c, 0, 80, 0
1, 83272, Note_on_c, 0, 83, 0
1, 83272, Note_on_c, 0, 83, 72
1, 83275, Note_on_c, 0, 76, 71
1, 83341, Note_on_c, 0, 76, 0
1, 83341, Note_on_c, 0, 80, 68
1, 83411, Note_on_c, 0, 80, 0
1, 83411, Note_on_c, 0, 83, 0
1, 83411, Note_on_c, 0, 83, 71
1, 83414, Note_on_c, 0, 71, 62
1, 83481, Note_on_c, 0, 71, 0
1, 83481, Note_on_c, 0, 80, 68
1, 83552, Note_on_c, 0, 80, 0
1, 83552, Note_on_c, 0, 83, 0
1, 83552, Note_on_c, 0, 83, 73
1, 83555, Note_on_c, 0, 76, 71
1, 83622, Note_on_c, 0, 76, 0
1, 83622, Note_on_c, 0, 80, 68
1, 83693, Note_on_c, 0, 80, 0
1, 83693, Note_on_c, 0, 83, 0
1, 83693, Note_on_c, 0, 83, 72
1, 83696, Note_on_c, 0, 71, 63
1, 83764, Note_on_c, 0, 71, 0
1, 83764, Note_on_c, 0, 80, 68
1, 83836, Note_on_c, 0, 80, 0
1, 83836, Note_on_c, 0, 83, 0
1, 83836, Note_on_c, 0, 75, 67
1, 83906, Note_on_c, 0, 75, 0
1, 83906, Note_on_c, 0, 81, 63
1, 83976, Note_on_c, 0, 81, 0
1, 83976, Note_on_c, 0, 83, 66
1, 83976, Note_on_c, 0, 71, 58
1, 84046, Note_on_c, 0, 71, 0
1, 84046, Note_on_c, 0, 81, 62
1, 84116, Note_on_c, 0, 81, 0
1, 84116, Note_on_c, 0, 83, 0
1, 84116, Note_on_c, 0, 84, 65
1, 84119, Note_on_c, 0, 75, 64
1, 84186, Note_on_c, 0, 75, 0
1, 84186, Note_on_c, 0, 81, 61
1, 84255, Note_on_c, 0, 81, 0
1, 84255, Note_on_c, 0, 84, 0
1, 84255, Note_on_c, 0, 83, 63
1, 84258, Note_on_c, 0, 71, 57
1, 84325, Note_on_c, 0, 71, 0
1, 84325, Note_on_c, 0, 81, 60
1, 84394, Note_on_c, 0, 81, 0
1, 84394, Note_on_c, 0, 83, 0
1, 84394, Note_on_c, 0, 84, 63
1, 84397, Note_on_c, 0, 75, 62
1, 84463, Note_on_c, 0, 75, 0
1, 84463, Note_on_c, 0, 81, 59
1, 84533, Note_on_c, 0, 81, 0
1, 84533, Note_on_c, 0, 84, 0
1, 84533, Note_on_c, 0, 83, 61
1, 84536, Note_on_c, 0, 71, 53
1, 84602, Note_on_c, 0, 71, 0
1, 84602, Note_on_c, 0, 81, 58
1, 84671, Note_on_c, 0, 81, 0
1, 84671, Note_on_c, 0, 83, 0
1, 84671, Note_on_c, 0, 84, 61
1, 84674, Note_on_c, 0, 75, 60
1, 84740, Note_on_c, 0, 75, 0
1, 84740, Note_on_c, 0, 81, 57
1, 84809, Note_on_c, 0, 81, 0
1, 84809, Note_on_c, 0, 84, 0
1, 84809, Note_on_c, 0, 83, 60
1, 84812, Note_on_c, 0, 71, 52
1, 84878, Note_on_c, 0, 71, 0
1, 84878, Note_on_c, 0, 81, 56
1, 84947, Note_on_c, 0, 81, 0
1, 84947, Note_on_c, 0, 83, 0
1, 84947, Note_on_c, 0, 84, 58
1, 84950, Note_on_c, 0, 75, 57
1, 85016, Note_on_c, 0, 75, 0
1, 85016, Note_on_c, 0, 81, 55
1, 85086, Note_on_c, 0, 81, 0
1, 85086, Note_on_c, 0, 84, 0
1, 85086, Note_on_c, 0, 83, 57
1, 85089, Note_on_c, 0, 71, 51
1, 85154, Note_on_c, 0, 71, 0
1, 85154, Note_on_c, 0, 81, 55
1, 85224, Note_on_c, 0, 81, 0
1, 85224, Note_on_c, 0, 83, 0
1, 85224, Note_on_c, 0, 84, 58
1, 85227, Note_on_c, 0, 75, 57
1, 85293, Note_on_c, 0, 75, 0
1, 85293, Note_on_c, 0, 81, 55
1, 85362, Note_on_c, 0, 81, 0
1, 85362, Note_on_c, 0, 84, 0
1, 85362, Note_on_c, 0, 83, 57
1, 85365, Note_on_c, 0, 71, 52
1, 85430, Note_on_c, 0, 71, 0
1, 85430, Note_on_c, 0, 81, 55
1, 85500, Note_on_c, 0, 81, 0
1, 85500, Note_on_c, 0, 83, 0
1, 85500, Note_on_c, 0, 84, 58
1, 85503, Note_on_c, 0, 75, 57
1, 85569, Note_on_c, 0, 75, 0
1, 85569, Note_on_c, 0, 81, 55
1, 85639, Note_on_c, 0, 81, 0
1, 85639, Note_on_c, 0, 84, 0
1, 85639, Note_on_c, 0, 83, 57
1, 85642, Note_on_c, 0, 71, 50
1, 85709, Note_on_c, 0, 71, 0
1, 85709, Note_on_c, 0, 81, 55
1, 85779, Note_on_c, 0, 81, 0
1, 85779, Note_on_c, 0, 83, 0
1, 85779, Note_on_c, 0, 84, 59
1, 85782, Note_on_c, 0, 75, 57
1, 85850, Note_on_c, 0, 75, 0
1, 85850, Note_on_c, 0, 81, 55
1, 85920, Note_on_c, 0, 81, 0
1, 85920, Note_on_c, 0, 84, 0
1, 85920, Note_on_c, 0, 83, 58
1, 85923, Note_on_c, 0, 71, 51
1, 85991, Note_on_c, 0, 71, 0
1, 85991, Note_on_c, 0, 81, 55
1, 86062, Note_on_c, 0, 81, 0
1, 86062, Note_on_c, 0, 83, 0
1, 86062, Note_on_c, 0, 85, 58
1, 86065, Note_on_c, 0, 75, 58
1, 86109, Note_on_c, 0, 75, 0
1, 86109, Note_on_c, 0, 76, 53
1, 86132, Note_on_c, 0, 81, 55
1, 86155, Note_on_c, 0, 76, 0
1, 86155, Note_on_c, 0, 75, 57
1, 86203, Note_on_c, 0, 81, 0
1, 86203, Note_on_c, 0, 85, 0
1, 86203, Note_on_c, 0, 83, 57
1, 86206, Note_on_c, 0, 75, 0
1, 86206, Note_on_c, 0, 76, 52
1, 86249, Note_on_c, 0, 76, 0
1, 86249, Note_on_c, 0, 75, 57
1, 86273, Note_on_c, 0, 81, 56
1, 86297, Note_on_c, 0, 75, 0
1, 86297, Note_on_c, 0, 76, 54
1, 86343, Note_on_c, 0, 81, 0
1, 86343, Note_on_c, 0, 83, 0
1, 86343, Note_on_c, 0, 85, 59
1, 86346, Note_on_c, 0, 76, 0
1, 86346, Note_on_c, 0, 75, 58
1, 86390, Note_on_c, 0, 75, 0
1, 86390, Note_on_c, 0, 76, 54
1, 86414, Note_on_c, 0, 81, 57
1, 86438, Note_on_c, 0, 76, 0
1, 86438, Note_on_c, 0, 75, 58
1, 86484, Note_on_c, 0, 81, 0
1, 86484, Note_on_c, 0, 85, 0
1, 86484, Note_on_c, 0, 83, 59
1, 86487, Note_on_c, 0, 75, 0
1, 86487, Note_on_c, 0, 76, 54
1, 86531, Note_on_c, 0, 76, 0
1, 86531, Note_on_c, 0, 75, 59
1, 86555, Note_on_c, 0, 81, 57
1, 86578, Note_on_c, 0, 75, 0
1, 86578, Note_on_c, 0, 76, 55
1, 86624, Note_on_c, 0, 81, 0
1, 86624, Note_on_c, 0, 83, 0
1, 86624, Note_on_c, 0, 85, 61
1, 86627, Note_on_c, 0, 76, 0
1, 86627, Note_on_c, 0, 75, 59
1, 86672, Note_on_c, 0, 75, 0
1, 86672, Note_on_c, 0, 76, 56
1, 86695, Note_on_c, 0, 81, 58
1, 86718, Note_on_c, 0, 76, 0
1, 86718, Note_on_c, 0, 75, 60
1, 86765, Note_on_c, 0, 81, 0
1, 86765, Note_on_c, 0, 85, 0
1, 86765, Note_on_c, 0, 83, 61
1, 86768, Note_on_c, 0, 75, 0
1, 86768, Note_on_c, 0, 76, 56
1, 86812, Note_on_c, 0, 76, 0
1, 86812, Note_on_c, 0, 75, 60
1, 86835, Note_on_c, 0, 81, 59
1, 86858, Note_on_c, 0, 75, 0
1, 86858, Note_on_c, 0, 76, 57
1, 86904, Note_on_c, 0, 81, 0
1, 86904, Note_on_c, 0, 83, 0
1, 86904, Note_on_c, 0, 85, 64
1, 86907, Note_on_c, 0, 76, 0
1, 86907, Note_on_c, 0, 75, 61
1, 86951, Note_on_c, 0, 75, 0
1, 86951, Note_on_c, 0, 76, 57
1, 86975, Note_on_c, 0, 81, 60
1, 86998, Note_on_c, 0, 76, 0
1, 86998, Note_on_c, 0, 75, 61
1, 87044, Note_on_c, 0, 81, 0
1, 87044, Note_on_c, 0, 85, 0
1, 87044, Note_on_c, 0, 83, 64
1, 87047, Note_on_c, 0, 75, 0
1, 87047, Note_on_c, 0, 76, 57
1, 87091, Note_on_c, 0, 76, 0
1, 87091, Note_on_c, 0, 75, 62
1, 87114, Note_on_c, 0, 81, 61
1, 87137, Note_on_c, 0, 75, 0
1, 87137, Note_on_c, 0, 76, 58
1, 87184, Note_on_c, 0, 81, 0
1, 87184, Note_on_c, 0, 83, 0
1, 87184, Note_on_c, 0, 90, 65
1, 87187, Note_on_c, 0, 76, 0
1, 87187, Note_on_c, 0, 75, 62
1, 87230, Note_on_c, 0, 75, 0
1, 87230, Note_on_c, 0, 76, 57
1, 87254, Note_on_c, 0, 83, 62
1, 87254, Note_on_c, 0, 81, 62
1, 87277, Note_on_c, 0, 76, 0
1, 87277, Note_on_c, 0, 75, 63
1, 87322, Note_on_c, 0, 90, 0
1, 87322, Note_on_c, 0, 81, 0
1, 87322, Note_on_c, 0, 83, 0
1, 87325, Note_on_c, 0, 75, 0
1, 87325, Note_on_c, 0, 90, 64
1, 87325, Note_on_c, 0, 76, 58
1, 87369, Note_on_c, 0, 76, 0
1, 87369, Note_on_c, 0, 75, 63
1, 87392, Note_on_c, 0, 83, 62
1, 87392, Note_on_c, 0, 81, 62
1, 87416, Note_on_c, 0, 75, 0
1, 87416, Note_on_c, 0, 76, 58
1, 87462, Note_on_c, 0, 90, 0
1, 87462, Note_on_c, 0, 81, 0
1, 87462, Note_on_c, 0, 83, 0
1, 87465, Note_on_c, 0, 76, 0
1, 87465, Note_on_c, 0, 90, 67
1, 87465, Note_on_c, 0, 75, 64
1, 87509, Note_on_c, 0, 75, 0
1, 87509, Note_on_c, 0, 76, 59
1, 87532, Note_on_c, 0, 83, 63
1, 87532, Note_on_c, 0, 81, 63
1, 87555, Note_on_c, 0, 76, 0
1, 87555, Note_on_c, 0, 75, 64
1, 87601, Note_on_c, 0, 90, 0
1, 87601, Note_on_c, 0, 81, 0
1, 87601, Note_on_c, 0, 83, 0
1, 87604, Note_on_c, 0, 75, 0
1, 87604, Note_on_c, 0, 90, 67
1, 87604, Note_on_c, 0, 76, 60
1, 87648, Note_on_c, 0, 76, 0
1, 87648, Note_on_c, 0, 75, 65
1, 87671, Note_on_c, 0, 83, 65
1, 87671, Note_on_c, 0, 81, 65
1, 87694, Note_on_c, 0, 75, 0
1, 87694, Note_on_c, 0, 76, 60
1, 87740, Note_on_c, 0, 90, 0
1, 87740, Note_on_c, 0, 81, 0
1, 87740, Note_on_c, 0, 83, 0
1, 87743, Note_on_c, 0, 76, 0
1, 87743, Note_on_c, 0, 90, 70
1, 87743, Note_on_c, 0, 75, 65
1, 87787, Note_on_c, 0, 75, 0
1, 87787, Note_on_c, 0, 76, 59
1, 87810, Note_on_c, 0, 83, 66
1, 87810, Note_on_c, 0, 81, 66
1, 87833, Note_on_c, 0, 76, 0
1, 87833, Note_on_c, 0, 75, 66
1, 87880, Note_on_c, 0, 90, 0
1, 87880, Note_on_c, 0, 81, 0
1, 87880, Note_on_c, 0, 83, 0
1, 87883, Note_on_c, 0, 75, 0
1, 87883, Note_on_c, 0, 90, 70
1, 87883, Note_on_c, 0, 76, 59
1, 87926, Note_on_c, 0, 76, 0
1, 87926, Note_on_c, 0, 75, 66
1, 87950, Note_on_c, 0, 83, 68
1, 87950, Note_on_c, 0, 81, 68
1, 87973, Note_on_c, 0, 75, 0
1, 87973, Note_on_c, 0, 76, 61
1, 88020, Note_on_c, 0, 90, 0
1, 88020, Note_on_c, 0, 81, 0
1, 88020, Note_on_c, 0, 83, 0
1, 88023, Note_on_c, 0, 76, 0
1, 88023, Note_on_c, 0, 90, 75
1, 88023, Note_on_c, 0, 75, 71
1, 88089, Note_on_c, 0, 75, 0
1, 88089, Note_on_c, 0, 83, 69
1, 88089, Note_on_c, 0, 81, 69
1, 88092, Note_on_c, 0, 76, 65
1, 88160, Note_on_c, 0, 81, 0
1, 88160, Note_on_c, 0, 90, 0
1, 88160, Note_on_c, 0, 83, 0
1, 88163, Note_on_c, 0, 76, 0
1, 88163, Note_on_c, 0, 90, 74
1, 88163, Note_on_c, 0, 73, 73
1, 88232, Note_on_c, 0, 73, 0
1, 88232, Note_on_c, 0, 83, 70
1, 88232, Note_on_c, 0, 81, 70
1, 88235, Note_on_c, 0, 75, 68
1, 88307, Note_on_c, 0, 81, 0
1, 88307, Note_on_c, 0, 90, 0
1, 88307, Note_on_c, 0, 83, 0
1, 88310, Note_on_c, 0, 80, 93
1, 88310, Note_on_c, 0, 83, 93
1, 88310, Note_on_c, 0, 88, 93
1, 88313, Note_on_c, 0, 75, 0
1, 88313, Note_on_c, 0, 64, 69
1, 88313, Note_on_c, 0, 76, 78
1, 88883, Note_on_c, 0, 76, 0
1, 88883, Note_on_c, 0, 68, 59
1, 88883, Note_on_c, 0, 74, 66
1, 88886, Note_on_c, 0, 71, 59
1, 89163, Note_on_c, 0, 88, 0
1, 89163, Note_on_c, 0, 80, 0
1, 89163, Note_on_c, 0, 83, 0
1, 89166, Note_on_c, 0, 88, 79
1, 89233, Note_on_c, 0, 88, 0
1, 89233, Note_on_c, 0, 86, 78
1, 89303, Note_on_c, 0, 86, 0
1, 89303, Note_on_c, 0, 84, 77
1, 89373, Note_on_c, 0, 84, 0
1, 89373, Note_on_c, 0, 83, 76
1, 89443, Note_on_c, 0, 83, 0
1, 89443, Note_on_c, 0, 71, 0
1, 89443, Note_on_c, 0, 84, 79
1, 89446, Note_on_c, 0, 68, 0
1, 89446, Note_on_c, 0, 74, 0
1, 89446, Note_on_c, 0, 72, 68
1, 89449, Note_on_c, 0, 69, 60
1, 89513, Note_on_c, 0, 84, 0
1, 89513, Note_on_c, 0, 83, 78
1, 89583, Note_on_c, 0, 83, 0
1, 89583, Note_on_c, 0, 81, 77
1, 89653, Note_on_c, 0, 81, 0
1, 89653, Note_on_c, 0, 80, 76
1, 89723, Note_on_c, 0, 80, 0
1, 89723, Note_on_c, 0, 81, 72
1, 89793, Note_on_c, 0, 81, 0
1, 89793, Note_on_c, 0, 83, 73
1, 89863, Note_on_c, 0, 83, 0
1, 89863, Note_on_c, 0, 84, 74
1, 89933, Note_on_c, 0, 84, 0
1, 89933, Note_on_c, 0, 86, 75
1, 90007, Note_on_c, 0, 86, 0
1, 90007, Note_on_c, 0, 69, 0
1, 90007, Note_on_c, 0, 88, 77
1, 90010, Note_on_c, 0, 72, 0
1, 90010, Note_on_c, 0, 74, 67
1, 90010, Note_on_c, 0, 71, 60
1, 90013, Note_on_c, 0, 68, 60
1, 90077, Note_on_c, 0, 88, 0
1, 90077, Note_on_c, 0, 89, 78
1, 90147, Note_on_c, 0, 89, 0
1, 90147, Note_on_c, 0, 88, 78
1, 90217, Note_on_c, 0, 88, 0
1, 90217, Note_on_c, 0, 87, 77
1, 90287, Note_on_c, 0, 87, 0
1, 90287, Note_on_c, 0, 88, 77
1, 90357, Note_on_c, 0, 88, 0
1, 90357, Note_on_c, 0, 86, 77
1, 90427, Note_on_c, 0, 86, 0
1, 90427, Note_on_c, 0, 84, 77
1, 90497, Note_on_c, 0, 84, 0
1, 90497, Note_on_c, 0, 83, 77
1, 90567, Note_on_c, 0, 83, 0
1, 90567, Note_on_c, 0, 68, 0
1, 90567, Note_on_c, 0, 84, 78
1, 90570, Note_on_c, 0, 64, 0
1, 90570, Note_on_c, 0, 71, 0
1, 90570, Note_on_c, 0, 74, 0
1, 90573, Note_on_c, 0, 69, 61
1, 90573, Note_on_c, 0, 72, 69
1, 90638, Note_on_c, 0, 84, 0
1, 90638, Note_on_c, 0, 86, 78
1, 90709, Note_on_c, 0, 86, 0
1, 90709, Note_on_c, 0, 84, 78
1, 90780, Note_on_c, 0, 84, 0
1, 90780, Note_on_c, 0, 83, 74
1, 90850, Note_on_c, 0, 83, 0
1, 90850, Note_on_c, 0, 72, 0
1, 90850, Note_on_c, 0, 81, 77
1, 90853, Note_on_c, 0, 69, 0
1, 90922, Note_on_c, 0, 81, 0
1, 90922, Note_on_c, 0, 80, 73
1, 90993, Note_on_c, 0, 80, 0
1, 90993, Note_on_c, 0, 81, 77
1, 91064, Note_on_c, 0, 81, 0
1, 91064, Note_on_c, 0, 83, 73
1, 91136, Note_on_c, 0, 83, 0
1, 91136, Note_on_c, 0, 72, 66
1, 91136, Note_on_c, 0, 84, 80
1, 91139, Note_on_c, 0, 57, 60
1, 91139, Note_on_c, 0, 60, 60
1, 91139, Note_on_c, 0, 66, 60
1, 91142, Note_on_c, 0, 69, 68
1, 91180, Control_c, 0, 64, 127
1, 91427, Note_on_c, 0, 84, 0
1, 91427, Note_on_c, 0, 81, 73
1, 91572, Note_on_c, 0, 81, 0
1, 91572, Note_on_c, 0, 78, 73
1, 91723, Note_on_c, 0, 78, 0
1, 91723, Note_on_c, 0, 72, 0
1, 91723, Note_on_c, 0, 71, 66
1, 91726, Note_on_c, 0, 57, 0
1, 91726, Note_on_c, 0, 69, 0
1, 91726, Note_on_c, 0, 83, 78
1, 91729, Note_on_c, 0, 60, 0
1, 91729, Note_on_c, 0, 66, 0
1, 91729, Note_on_c, 0, 59, 60
1, 91732, Note_on_c, 0, 64, 60
1, 91732, Note_on_c, 0, 67, 67
1, 91732, Control_c, 0, 64, 0
1, 91840, Control_c, 0, 64, 127
1, 92014, Note_on_c, 0, 83, 0
1, 92014, Note_on_c, 0, 79, 73
1, 92159, Note_on_c, 0, 79, 0
1, 92159, Note_on_c, 0, 76, 73
1, 92310, Note_on_c, 0, 76, 0
1, 92310, Note_on_c, 0, 71, 0
1, 92310, Note_on_c, 0, 69, 66
1, 92313, Note_on_c, 0, 64, 0
1, 92313, Note_on_c, 0, 67, 0
1, 92313, Note_on_c, 0, 81, 78
1, 92316, Note_on_c, 0, 59, 0
1, 92316, Note_on_c, 0, 63, 58
1, 92316, Note_on_c, 0, 66, 65
1, 92319, Note_on_c, 0, 59, 58
1, 92319, Control_c, 0, 64, 0
1, 92408, Control_c, 0, 64, 127
1, 92602, Note_on_c, 0, 81, 0
1, 92602, Note_on_c, 0, 78, 73
1, 92748, Note_on_c, 0, 78, 0
1, 92748, Note_on_c, 0, 75, 73
1, 92895, Note_on_c, 0, 75, 0
1, 92895, Note_on_c, 0, 69, 0
1, 92895, Note_on_c, 0, 76, 93
1, 92898, Note_on_c, 0, 66, 0
1, 92898, Note_on_c, 0, 59, 0
1, 92898, Note_on_c, 0, 63, 0
1, 92901, Note_on_c, 0, 64, 77
1, 92901, Note_on_c, 0, 52, 66
1, 92901, Control_c, 0, 64, 0
1, 93469, Note_on_c, 0, 64, 0
1, 93469, Note_on_c, 0, 62, 66
1, 93469, Note_on_c, 0, 59, 59
1, 93472, Note_on_c, 0, 56, 59
1, 93748, Note_on_c, 0, 76, 0
1, 93748, Note_on_c, 0, 76, 79
1, 93818, Note_on_c, 0, 76, 0
1, 93818, Note_on_c, 0, 74, 78
1, 93888, Note_on_c, 0, 74, 0
1, 93888, Note_on_c, 0, 72, 77
1, 93958, Note_on_c, 0, 72, 0
1, 93958, Note_on_c, 0, 71, 76
1, 94028, Note_on_c, 0, 71, 0
1, 94028, Note_on_c, 0, 56, 0
1, 94028, Note_on_c, 0, 72, 79
1, 94031, Note_on_c, 0, 59, 0
1, 94031, Note_on_c, 0, 62, 0
1, 94031, Note_on_c, 0, 57, 60
1, 94034, Note_on_c, 0, 60, 68
1, 94097, Note_on_c, 0, 72, 0
1, 94097, Note_on_c, 0, 71, 78
1, 94167, Note_on_c, 0, 71, 0
1, 94167, Note_on_c, 0, 69, 77
1, 94237, Note_on_c, 0, 69, 0
1, 94237, Note_on_c, 0, 68, 76
1, 94307, Note_on_c, 0, 68, 0
1, 94307, Note_on_c, 0, 69, 72
1, 94376, Note_on_c, 0, 69, 0
1, 94376, Note_on_c, 0, 71, 73
1, 94446, Note_on_c, 0, 71, 0
1, 94446, Note_on_c, 0, 72, 74
1, 94516, Note_on_c, 0, 72, 0
1, 94516, Note_on_c, 0, 74, 75
1, 94590, Note_on_c, 0, 74, 0
1, 94590, Note_on_c, 0, 60, 0
1, 94590, Note_on_c, 0, 76, 77
1, 94593, Note_on_c, 0, 57, 0
1, 94593, Note_on_c, 0, 62, 67
1, 94593, Note_on_c, 0, 59, 60
1, 94596, Note_on_c, 0, 56, 60
1, 94660, Note_on_c, 0, 76, 0
1, 94660, Note_on_c, 0, 77, 78
1, 94730, Note_on_c, 0, 77, 0
1, 94730, Note_on_c, 0, 76, 78
1, 94800, Note_on_c, 0, 76, 0
1, 94800, Note_on_c, 0, 75, 77
1, 94870, Note_on_c, 0, 75, 0
1, 94870, Note_on_c, 0, 76, 77
1, 94939, Note_on_c, 0, 76, 0
1, 94939, Note_on_c, 0, 74, 77
1, 95009, Note_on_c, 0, 74, 0
1, 95009, Note_on_c, 0, 72, 77
1, 95078, Note_on_c, 0, 72, 0
1, 95078, Note_on_c, 0, 71, 77
1, 95148, Note_on_c, 0, 71, 0
1, 95148, Note_on_c, 0, 56, 0
1, 95148, Note_on_c, 0, 72, 78
1, 95151, Note_on_c, 0, 52, 0
1, 95151, Note_on_c, 0, 59, 0
1, 95151, Note_on_c, 0, 62, 0
1, 95154, Note_on_c, 0, 57, 69
1, 95154, Note_on_c, 0, 60, 69
1, 95219, Note_on_c, 0, 72, 0
1, 95219, Note_on_c, 0, 74, 78
1, 95289, Note_on_c, 0, 74, 0
1, 95289, Note_on_c, 0, 72, 78
1, 95359, Note_on_c, 0, 72, 0
1, 95359, Note_on_c, 0, 71, 74
1, 95430, Note_on_c, 0, 71, 0
1, 95430, Note_on_c, 0, 60, 0
1, 95430, Note_on_c, 0, 69, 77
1, 95433, Note_on_c, 0, 57, 0
1, 95501, Note_on_c, 0, 69, 0
1, 95501, Note_on_c, 0, 68, 73
1, 95573, Note_on_c, 0, 68, 0
1, 95573, Note_on_c, 0, 69, 77
1, 95644, Note_on_c, 0, 69, 0
1, 95644, Note_on_c, 0, 71, 73
1, 95716, Note_on_c, 0, 71, 0
1, 95716, Note_on_c, 0, 60, 66
1, 95716, Note_on_c, 0, 72, 80
1, 95719, Note_on_c, 0, 45, 60
1, 95719, Note_on_c, 0, 48, 60
1, 95719, Note_on_c, 0, 54, 60
1, 95722, Note_on_c, 0, 57, 68
1, 95761, Control_c, 0, 64, 127
1, 96006, Note_on_c, 0, 72, 0
1, 96006, Note_on_c, 0, 69, 73
1, 96151, Note_on_c, 0, 69, 0
1, 96151, Note_on_c, 0, 66, 73
1, 96302, Note_on_c, 0, 66, 0
1, 96302, Note_on_c, 0, 60, 0
1, 96302, Note_on_c, 0, 59, 66
1, 96305, Note_on_c, 0, 45, 0
1, 96305, Note_on_c, 0, 57, 0
1, 96305, Note_on_c, 0, 71, 78
1, 96308, Note_on_c, 0, 48, 0
1, 96308, Note_on_c, 0, 54, 0
1, 96308, Note_on_c, 0, 47, 60
1, 96311, Note_on_c, 0, 52, 60
1, 96311, Note_on_c, 0, 55, 67
1, 96311, Control_c, 0, 64, 0
1, 96420, Control_c, 0, 64, 127
1, 96593, Note_on_c, 0, 71, 0
1, 96593, Note_on_c, 0, 67, 73
1, 96739, Note_on_c, 0, 67, 0
1, 96739, Note_on_c, 0, 64, 73
1, 96890, Note_on_c, 0, 64, 0
1, 96890, Note_on_c, 0, 59, 0
1, 96890, Note_on_c, 0, 57, 66
1, 96893, Note_on_c, 0, 52, 0
1, 96893, Note_on_c, 0, 55, 0
1, 96893, Note_on_c, 0, 69, 78
1, 96896, Note_on_c, 0, 47, 0
1, 96896, Note_on_c, 0, 54, 65
1, 96896, Note_on_c, 0, 51, 58
1, 96899, Note_on_c, 0, 47, 58
1, 96899, Control_c, 0, 64, 0
1, 97056, Control_c, 0, 64, 127
1, 97181, Note_on_c, 0, 69, 0
1, 97181, Note_on_c, 0, 66, 73
1, 97329, Note_on_c, 0, 66, 0
1, 97329, Note_on_c, 0, 63, 73
1, 97476, Note_on_c, 0, 63, 0
1, 97476, Note_on_c, 0, 57, 0
1, 97476, Note_on_c, 0, 64, 76
1, 97479, Note_on_c, 0, 51, 0
1, 97479, Note_on_c, 0, 47, 0
1, 97479, Note_on_c, 0, 54, 0
1, 97482, Note_on_c, 0, 55, 65
1, 97482, Note_on_c, 0, 52, 58
1, 97482, Control_c, 0, 64, 0
1, 97624, Note_on_c, 0, 64, 0
1, 97778, Note_on_c, 0, 52, 0
1, 97778, Note_on_c, 0, 55, 0
1, 97778, Note_on_c, 0, 76, 88
1, 97781, Note_on_c, 0, 43, 63
1, 97781, Note_on_c, 0, 52, 72
1, 97925, Note_on_c, 0, 76, 0
1, 97925, Note_on_c, 0, 74, 83
1, 98073, Note_on_c, 0, 74, 0
1, 98073, Note_on_c, 0, 43, 0
1, 98073, Note_on_c, 0, 72, 87
1, 98076, Note_on_c, 0, 45, 63
1, 98220, Note_on_c, 0, 52, 0
1, 98220, Note_on_c, 0, 53, 70
1, 98368, Note_on_c, 0, 53, 0
1, 98368, Note_on_c, 0, 72, 0
1, 98368, Note_on_c, 0, 69, 82
1, 98371, Note_on_c, 0, 55, 72
1, 98516, Note_on_c, 0, 55, 0
1, 98516, Note_on_c, 0, 69, 0
1, 98516, Note_on_c, 0, 65, 75
1, 98519, Note_on_c, 0, 57, 76
1, 98668, Note_on_c, 0, 57, 0
1, 98668, Note_on_c, 0, 65, 0
1, 98668, Note_on_c, 0, 71, 72
1, 98671, Note_on_c, 0, 45, 0
1, 98671, Note_on_c, 0, 59, 62
1, 98671, Note_on_c, 0, 47, 56
1, 98674, Note_on_c, 0, 55, 56
1, 98767, Control_c, 0, 64, 127
1, 98965, Note_on_c, 0, 71, 0
1, 98965, Note_on_c, 0, 67, 67
1, 99113, Note_on_c, 0, 67, 0
1, 99113, Note_on_c, 0, 64, 67
1, 99261, Note_on_c, 0, 64, 0
1, 99261, Note_on_c, 0, 55, 0
1, 99261, Note_on_c, 0, 69, 72
1, 99264, Note_on_c, 0, 59, 0
1, 99264, Note_on_c, 0, 54, 54
1, 99264, Note_on_c, 0, 57, 60
1, 99267, Control_c, 0, 64, 0
1, 99366, Control_c, 0, 64, 127
1, 99557, Note_on_c, 0, 69, 0
1, 99557, Note_on_c, 0, 66, 67
1, 99705, Note_on_c, 0, 66, 0
1, 99705, Note_on_c, 0, 63, 67
1, 99853, Note_on_c, 0, 63, 0
1, 99853, Note_on_c, 0, 57, 0
1, 99853, Note_on_c, 0, 64, 76
1, 99856, Note_on_c, 0, 54, 0
1, 99856, Note_on_c, 0, 47, 0
1, 99856, Note_on_c, 0, 48, 58
1, 99859, Control_c, 0, 64, 0
1, 99859, Note_on_c, 0, 52, 58
1, 99859, Note_on_c, 0, 55, 65
1, 100001, Note_on_c, 0, 64, 0
1, 100156, Note_on_c, 0, 55, 0
1, 100156, Note_on_c, 0, 52, 0
1, 100156, Note_on_c, 0, 72, 87
1, 100159, Note_on_c, 0, 48, 0
1, 100159, Note_on_c, 0, 40, 63
1, 100159, Note_on_c, 0, 48, 72
1, 100305, Note_on_c, 0, 72, 0
1, 100305, Note_on_c, 0, 71, 83
1, 100453, Note_on_c, 0, 71, 0
1, 100453, Note_on_c, 0, 40, 0
1, 100453, Note_on_c, 0, 69, 87
1, 100456, Note_on_c, 0, 41, 63
1, 100601, Note_on_c, 0, 48, 0
1, 100601, Note_on_c, 0, 50, 70
1, 100749, Note_on_c, 0, 50, 0
1, 100749, Note_on_c, 0, 69, 0
1, 100749, Note_on_c, 0, 65, 82
1, 100752, Note_on_c, 0, 52, 72
1, 100897, Note_on_c, 0, 52, 0
1, 100897, Note_on_c, 0, 65, 0
1, 100897, Note_on_c, 0, 62, 75
1, 100900, Note_on_c, 0, 53, 76
1, 101051, Note_on_c, 0, 53, 0
1, 101051, Note_on_c, 0, 62, 0
1, 101051, Note_on_c, 0, 67, 72
1, 101054, Note_on_c, 0, 41, 0
1, 101054, Note_on_c, 0, 52, 56
1, 101054, Note_on_c, 0, 43, 56
1, 101057, Note_on_c, 0, 55, 62
1, 101150, Control_c, 0, 64, 127
1, 101349, Note_on_c, 0, 67, 0
1, 101349, Note_on_c, 0, 64, 67
1, 101497, Note_on_c, 0, 64, 0
1, 101497, Note_on_c, 0, 60, 67
1, 101651, Note_on_c, 0, 60, 0
1, 101651, Note_on_c, 0, 55, 0
1, 101651, Note_on_c, 0, 65, 72
1, 101654, Note_on_c, 0, 52, 0
1, 101654, Note_on_c, 0, 53, 60
1, 101654, Note_on_c, 0, 50, 54
1, 101657, Control_c, 0, 64, 0
1, 101821, Control_c, 0, 64, 127
1, 101949, Note_on_c, 0, 65, 0
1, 101949, Note_on_c, 0, 62, 67
1, 102098, Note_on_c, 0, 62, 0
1, 102098, Note_on_c, 0, 59, 67
1, 102252, Note_on_c, 0, 59, 0
1, 102252, Note_on_c, 0, 48, 49
1, 102252, Note_on_c, 0, 52, 54
1, 102255, Note_on_c, 0, 50, 0
1, 102255, Note_on_c, 0, 60, 61
1, 102255, Control_c, 0, 91, 127
1, 102258, Note_on_c, 0, 43, 0
1, 102258, Note_on_c, 0, 53, 0
1, 102258, Control_c, 0, 64, 0
1, 102261, Note_on_c, 0, 36, 46
1, 102261, Control_c, 0, 64, 0
1, 102357, Note_on_c, 0, 36, 0
1, 102357, Note_on_c, 0, 52, 0
1, 102357, Note_on_c, 0, 48, 0
1, 102392, Note_on_c, 0, 60, 0
1, 102392, Note_on_c, 0, 48, 49
1, 102392, Note_on_c, 0, 52, 54
1, 102395, Note_on_c, 0, 43, 47
1, 102395, Note_on_c, 0, 36, 43
1, 102497, Note_on_c, 0, 36, 0
1, 102497, Note_on_c, 0, 48, 0
1, 102497, Note_on_c, 0, 52, 0
1, 102500, Note_on_c, 0, 43, 0
1, 102532, Note_on_c, 0, 48, 49
1, 102532, Note_on_c, 0, 52, 54
1, 102532, Note_on_c, 0, 43, 47
1, 102535, Note_on_c, 0, 36, 43
1, 102636, Note_on_c, 0, 36, 0
1, 102636, Note_on_c, 0, 48, 0
1, 102636, Note_on_c, 0, 52, 0
1, 102639, Note_on_c, 0, 43, 0
1, 102671, Note_on_c, 0, 48, 49
1, 102671, Note_on_c, 0, 52, 55
1, 102671, Note_on_c, 0, 43, 48
1, 102674, Note_on_c, 0, 36, 43
1, 102775, Note_on_c, 0, 36, 0
1, 102775, Note_on_c, 0, 48, 0
1, 102775, Note_on_c, 0, 52, 0
1, 102778, Note_on_c, 0, 43, 0
1, 102810, Note_on_c, 0, 48, 49
1, 102810, Note_on_c, 0, 52, 55
1, 102810, Note_on_c, 0, 43, 48
1, 102813, Note_on_c, 0, 36, 43
1, 102915, Note_on_c, 0, 36, 0
1, 102915, Note_on_c, 0, 48, 0
1, 102915, Note_on_c, 0, 52, 0
1, 102918, Note_on_c, 0, 43, 0
1, 102950, Note_on_c, 0, 48, 49
1, 102950, Note_on_c, 0, 52, 55
1, 102950, Note_on_c, 0, 43, 49
1, 102953, Note_on_c, 0, 36, 44
1, 103056, Note_on_c, 0, 36, 0
1, 103056, Note_on_c, 0, 48, 0
1, 103056, Note_on_c, 0, 52, 0
1, 103059, Note_on_c, 0, 43, 0
1, 103091, Note_on_c, 0, 48, 50
1, 103091, Note_on_c, 0, 52, 56
1, 103091, Note_on_c, 0, 43, 49
1, 103094, Note_on_c, 0, 36, 44
1, 103195, Note_on_c, 0, 36, 0
1, 103195, Note_on_c, 0, 48, 0
1, 103195, Note_on_c, 0, 52, 0
1, 103198, Note_on_c, 0, 43, 0
1, 103230, Note_on_c, 0, 48, 50
1, 103230, Note_on_c, 0, 52, 56
1, 103230, Note_on_c, 0, 43, 50
1, 103233, Note_on_c, 0, 36, 45
1, 103335, Note_on_c, 0, 36, 0
1, 103335, Note_on_c, 0, 48, 0
1, 103335, Note_on_c, 0, 52, 0
1, 103338, Note_on_c, 0, 43, 0
1, 103370, Note_on_c, 0, 48, 51
1, 103370, Note_on_c, 0, 52, 57
1, 103370, Note_on_c, 0, 36, 46
1, 103373, Note_on_c, 0, 43, 51
1, 103475, Note_on_c, 0, 43, 0
1, 103475, Note_on_c, 0, 48, 0
1, 103475, Note_on_c, 0, 52, 0
1, 103478, Note_on_c, 0, 36, 0
1, 103510, Note_on_c, 0, 48, 51
1, 103510, Note_on_c, 0, 52, 57
1, 103510, Note_on_c, 0, 36, 43
1, 103513, Note_on_c, 0, 43, 48
1, 103615, Note_on_c, 0, 43, 0
1, 103615, Note_on_c, 0, 48, 0
1, 103615, Note_on_c, 0, 52, 0
1, 103618, Note_on_c, 0, 36, 0
1, 103650, Note_on_c, 0, 48, 52
1, 103650, Note_on_c, 0, 52, 58
1, 103650, Note_on_c, 0, 36, 44
1, 103653, Note_on_c, 0, 43, 49
1, 103754, Note_on_c, 0, 43, 0
1, 103754, Note_on_c, 0, 48, 0
1, 103754, Note_on_c, 0, 52, 0
1, 103757, Note_on_c, 0, 36, 0
1, 103789, Note_on_c, 0, 48, 53
1, 103789, Note_on_c, 0, 52, 59
1, 103789, Note_on_c, 0, 36, 45
1, 103792, Note_on_c, 0, 43, 50
1, 103894, Note_on_c, 0, 43, 0
1, 103894, Note_on_c, 0, 48, 0
1, 103894, Note_on_c, 0, 52, 0
1, 103897, Note_on_c, 0, 36, 0
1, 103929, Note_on_c, 0, 48, 54
1, 103929, Note_on_c, 0, 52, 60
1, 103929, Note_on_c, 0, 36, 46
1, 103932, Note_on_c, 0, 43, 51
1, 104034, Note_on_c, 0, 43, 0
1, 104034, Note_on_c, 0, 48, 0
1, 104034, Note_on_c, 0, 52, 0
1, 104037, Note_on_c, 0, 36, 0
1, 104069, Note_on_c, 0, 48, 55
1, 104069, Note_on_c, 0, 52, 61
1, 104069, Note_on_c, 0, 36, 46
1, 104072, Note_on_c, 0, 43, 51
1, 104174, Note_on_c, 0, 43, 0
1, 104174, Note_on_c, 0, 48, 0
1, 104174, Note_on_c, 0, 52, 0
1, 104177, Note_on_c, 0, 36, 0
1, 104209, Note_on_c, 0, 50, 55
1, 104209, Note_on_c, 0, 54, 61
1, 104209, Note_on_c, 0, 36, 46
1, 104212, Note_on_c, 0, 45, 51
1, 104314, Note_on_c, 0, 45, 0
1, 104314, Note_on_c, 0, 50, 0
1, 104314, Note_on_c, 0, 54, 0
1, 104317, Note_on_c, 0, 36, 0
1, 104349, Note_on_c, 0, 50, 55
1, 104349, Note_on_c, 0, 54, 61
1, 104349, Note_on_c, 0, 36, 46
1, 104352, Note_on_c, 0, 45, 51
1, 104454, Note_on_c, 0, 45, 0
1, 104454, Note_on_c, 0, 50, 0
1, 104454, Note_on_c, 0, 54, 0
1, 104457, Note_on_c, 0, 36, 0
1, 104489, Note_on_c, 0, 50, 60
1, 104489, Note_on_c, 0, 55, 67
1, 104489, Note_on_c, 0, 35, 46
1, 104492, Note_on_c, 0, 43, 51
1, 104594, Note_on_c, 0, 43, 0
1, 104594, Note_on_c, 0, 35, 0
1, 104630, Note_on_c, 0, 35, 46
1, 104630, Note_on_c, 0, 43, 51
1, 104735, Note_on_c, 0, 43, 0
1, 104735, Note_on_c, 0, 35, 0
1, 104771, Note_on_c, 0, 35, 46
1, 104771, Note_on_c, 0, 43, 51
1, 104876, Note_on_c, 0, 43, 0
1, 104876, Note_on_c, 0, 35, 0
1, 104911, Note_on_c, 0, 55, 0
1, 104911, Note_on_c, 0, 50, 0
1, 104911, Note_on_c, 0, 59, 61
1, 104914, Note_on_c, 0, 35, 46
1, 104914, Note_on_c, 0, 43, 51
1, 104982, Note_on_c, 0, 59, 0
1, 104982, Note_on_c, 0, 57, 61
1, 105017, Note_on_c, 0, 43, 0
1, 105017, Note_on_c, 0, 35, 0
1, 105052, Note_on_c, 0, 57, 0
1, 105052, Note_on_c, 0, 55, 66
1, 105052, Note_on_c, 0, 35, 46
1, 105055, Note_on_c, 0, 43, 51
1, 105123, Note_on_c, 0, 55, 0
1, 105158, Note_on_c, 0, 43, 0
1, 105158, Note_on_c, 0, 35, 0
1, 105193, Note_on_c, 0, 35, 46
1, 105193, Note_on_c, 0, 43, 51
1, 105299, Note_on_c, 0, 43, 0
1, 105299, Note_on_c, 0, 35, 0
1, 105334, Note_on_c, 0, 35, 46
1, 105334, Note_on_c, 0, 43, 51
1, 105440, Note_on_c, 0, 43, 0
1, 105440, Note_on_c, 0, 35, 0
1, 105475, Note_on_c, 0, 35, 46
1, 105475, Note_on_c, 0, 43, 51
1, 105584, Note_on_c, 0, 43, 0
1, 105584, Note_on_c, 0, 35, 0
1, 105584, Note_on_c, 0, 85, 67
1, 105620, Note_on_c, 0, 85, 0
1, 105620, Note_on_c, 0, 86, 78
1, 105620, Note_on_c, 0, 35, 46
1, 105623, Note_on_c, 0, 43, 51
1, 105727, Note_on_c, 0, 43, 0
1, 105727, Note_on_c, 0, 35, 0
1, 105762, Note_on_c, 0, 35, 46
1, 105762, Note_on_c, 0, 43, 51
1, 105869, Note_on_c, 0, 43, 0
1, 105869, Note_on_c, 0, 35, 0
1, 105904, Note_on_c, 0, 35, 46
1, 105904, Note_on_c, 0, 43, 51
1, 105976, Note_on_c, 0, 86, 0
1, 105976, Note_on_c, 0, 84, 69
1, 106011, Note_on_c, 0, 43, 0
1, 106011, Note_on_c, 0, 35, 0
1, 106047, Note_on_c, 0, 84, 0
1, 106047, Note_on_c, 0, 83, 68
1, 106047, Note_on_c, 0, 35, 46
1, 106050, Note_on_c, 0, 43, 51
1, 106118, Note_on_c, 0, 83, 0
1, 106118, Note_on_c, 0, 81, 66
1, 106153, Note_on_c, 0, 43, 0
1, 106153, Note_on_c, 0, 35, 0
1, 106189, Note_on_c, 0, 81, 0
1, 106189, Note_on_c, 0, 79, 65
1, 106189, Note_on_c, 0, 35, 46
1, 106192, Note_on_c, 0, 43, 51
1, 106294, Note_on_c, 0, 43, 0
1, 106294, Note_on_c, 0, 35, 0
1, 106329, Note_on_c, 0, 79, 0
1, 106329, Note_on_c, 0, 35, 46
1, 106329, Note_on_c, 0, 43, 51
1, 106434, Note_on_c, 0, 43, 0
1, 106434, Note_on_c, 0, 35, 0
1, 106469, Note_on_c, 0, 35, 46
1, 106469, Note_on_c, 0, 43, 51
1, 106574, Note_on_c, 0, 43, 0
1, 106574, Note_on_c, 0, 35, 0
1, 106609, Note_on_c, 0, 35, 46
1, 106609, Note_on_c, 0, 43, 51
1, 106716, Note_on_c, 0, 43, 0
1, 106716, Note_on_c, 0, 35, 0
1, 106752, Note_on_c, 0, 46, 50
1, 106752, Note_on_c, 0, 50, 56
1, 106752, Control_c, 0, 91, 127
1, 106755, Note_on_c, 0, 41, 51
1, 106755, Note_on_c, 0, 34, 47
1, 106755, Control_c, 0, 64, 0
1, 106857, Note_on_c, 0, 34, 0
1, 106857, Note_on_c, 0, 46, 0
1, 106857, Note_on_c, 0, 50, 0
1, 106860, Note_on_c, 0, 41, 0
1, 106892, Note_on_c, 0, 46, 50
1, 106892, Note_on_c, 0, 50, 56
1, 106892, Note_on_c, 0, 41, 51
1, 106895, Note_on_c, 0, 34, 46
1, 106997, Note_on_c, 0, 34, 0
1, 106997, Note_on_c, 0, 46, 0
1, 106997, Note_on_c, 0, 50, 0
1, 107000, Note_on_c, 0, 41, 0
1, 107032, Note_on_c, 0, 46, 50
1, 107032, Note_on_c, 0, 50, 56
1, 107032, Note_on_c, 0, 41, 51
1, 107035, Note_on_c, 0, 34, 46
1, 107136, Note_on_c, 0, 34, 0
1, 107136, Note_on_c, 0, 46, 0
1, 107136, Note_on_c, 0, 50, 0
1, 107139, Note_on_c, 0, 41, 0
1, 107170, Note_on_c, 0, 46, 51
1, 107170, Note_on_c, 0, 50, 57
1, 107170, Note_on_c, 0, 41, 52
1, 107173, Note_on_c, 0, 34, 47
1, 107274, Note_on_c, 0, 34, 0
1, 107274, Note_on_c, 0, 46, 0
1, 107274, Note_on_c, 0, 50, 0
1, 107277, Note_on_c, 0, 41, 0
1, 107309, Note_on_c, 0, 46, 52
1, 107309, Note_on_c, 0, 50, 58
1, 107309, Note_on_c, 0, 41, 52
1, 107312, Note_on_c, 0, 34, 47
1, 107414, Note_on_c, 0, 34, 0
1, 107414, Note_on_c, 0, 46, 0
1, 107414, Note_on_c, 0, 50, 0
1, 107417, Note_on_c, 0, 41, 0
1, 107449, Note_on_c, 0, 46, 52
1, 107449, Note_on_c, 0, 50, 58
1, 107449, Note_on_c, 0, 41, 52
1, 107452, Note_on_c, 0, 34, 47
1, 107555, Note_on_c, 0, 34, 0
1, 107555, Note_on_c, 0, 46, 0
1, 107555, Note_on_c, 0, 50, 0
1, 107558, Note_on_c, 0, 41, 0
1, 107590, Note_on_c, 0, 46, 53
1, 107590, Note_on_c, 0, 50, 59
1, 107590, Note_on_c, 0, 41, 52
1, 107593, Note_on_c, 0, 34, 47
1, 107695, Note_on_c, 0, 34, 0
1, 107695, Note_on_c, 0, 46, 0
1, 107695, Note_on_c, 0, 50, 0
1, 107698, Note_on_c, 0, 41, 0
1, 107730, Note_on_c, 0, 46, 54
1, 107730, Note_on_c, 0, 50, 60
1, 107730, Note_on_c, 0, 41, 52
1, 107733, Note_on_c, 0, 34, 47
1, 107835, Note_on_c, 0, 34, 0
1, 107835, Note_on_c, 0, 46, 0
1, 107835, Note_on_c, 0, 50, 0
1, 107838, Note_on_c, 0, 41, 0
1, 107871, Note_on_c, 0, 46, 54
1, 107871, Note_on_c, 0, 50, 60
1, 107871, Note_on_c, 0, 34, 47
1, 107874, Note_on_c, 0, 41, 52
1, 107976, Note_on_c, 0, 41, 0
1, 107976, Note_on_c, 0, 46, 0
1, 107976, Note_on_c, 0, 50, 0
1, 107979, Note_on_c, 0, 34, 0
1, 108011, Note_on_c, 0, 46, 55
1, 108011, Note_on_c, 0, 50, 61
1, 108011, Note_on_c, 0, 34, 47
1, 108014, Note_on_c, 0, 41, 52
1, 108116, Note_on_c, 0, 41, 0
1, 108116, Note_on_c, 0, 46, 0
1, 108116, Note_on_c, 0, 50, 0
1, 108119, Note_on_c, 0, 34, 0
1, 108151, Note_on_c, 0, 46, 55
1, 108151, Note_on_c, 0, 50, 61
1, 108151, Note_on_c, 0, 34, 47
1, 108154, Note_on_c, 0, 41, 52
1, 108256, Note_on_c, 0, 41, 0
1, 108256, Note_on_c, 0, 46, 0
1, 108256, Note_on_c, 0, 50, 0
1, 108259, Note_on_c, 0, 34, 0
1, 108291, Note_on_c, 0, 46, 55
1, 108291, Note_on_c, 0, 50, 61
1, 108291, Note_on_c, 0, 34, 47
1, 108294, Note_on_c, 0, 41, 52
1, 108396, Note_on_c, 0, 41, 0
1, 108396, Note_on_c, 0, 46, 0
1, 108396, Note_on_c, 0, 50, 0
1, 108399, Note_on_c, 0, 34, 0
1, 108431, Note_on_c, 0, 46, 55
1, 108431, Note_on_c, 0, 50, 61
1, 108431, Note_on_c, 0, 34, 47
1, 108434, Note_on_c, 0, 41, 52
1, 108535, Note_on_c, 0, 41, 0
1, 108535, Note_on_c, 0, 46, 0
1, 108535, Note_on_c, 0, 50, 0
1, 108538, Note_on_c, 0, 34, 0
1, 108570, Note_on_c, 0, 46, 55
1, 108570, Note_on_c, 0, 50, 61
1, 108570, Note_on_c, 0, 34, 46
1, 108573, Note_on_c, 0, 41, 51
1, 108674, Note_on_c, 0, 41, 0
1, 108674, Note_on_c, 0, 46, 0
1, 108674, Note_on_c, 0, 50, 0
1, 108677, Note_on_c, 0, 34, 0
1, 108709, Note_on_c, 0, 48, 55
1, 108709, Note_on_c, 0, 52, 61
1, 108709, Note_on_c, 0, 34, 46
1, 108712, Note_on_c, 0, 43, 51
1, 108813, Note_on_c, 0, 43, 0
1, 108813, Note_on_c, 0, 48, 0
1, 108813, Note_on_c, 0, 52, 0
1, 108816, Note_on_c, 0, 34, 0
1, 108848, Note_on_c, 0, 48, 55
1, 108848, Note_on_c, 0, 52, 61
1, 108848, Note_on_c, 0, 34, 46
1, 108851, Note_on_c, 0, 43, 51
1, 108952, Note_on_c, 0, 43, 0
1, 108952, Note_on_c, 0, 48, 0
1, 108952, Note_on_c, 0, 52, 0
1, 108955, Note_on_c, 0, 34, 0
1, 108987, Note_on_c, 0, 48, 60
1, 108987, Note_on_c, 0, 53, 67
1, 108987, Note_on_c, 0, 33, 46
1, 108990, Note_on_c, 0, 41, 51
1, 109092, Note_on_c, 0, 41, 0
1, 109092, Note_on_c, 0, 33, 0
1, 109126, Note_on_c, 0, 33, 46
1, 109126, Note_on_c, 0, 41, 51
1, 109231, Note_on_c, 0, 41, 0
1, 109231, Note_on_c, 0, 33, 0
1, 109266, Note_on_c, 0, 33, 46
1, 109266, Note_on_c, 0, 41, 51
1, 109371, Note_on_c, 0, 41, 0
1, 109371, Note_on_c, 0, 33, 0
1, 109406, Note_on_c, 0, 53, 0
1, 109406, Note_on_c, 0, 48, 0
1, 109406, Note_on_c, 0, 57, 61
1, 109409, Note_on_c, 0, 33, 46
1, 109409, Note_on_c, 0, 41, 51
1, 109475, Note_on_c, 0, 57, 0
1, 109475, Note_on_c, 0, 55, 61
1, 109510, Note_on_c, 0, 41, 0
1, 109510, Note_on_c, 0, 33, 0
1, 109545, Note_on_c, 0, 55, 0
1, 109545, Note_on_c, 0, 53, 66
1, 109545, Note_on_c, 0, 33, 46
1, 109548, Note_on_c, 0, 41, 51
1, 109615, Note_on_c, 0, 53, 0
1, 109650, Note_on_c, 0, 41, 0
1, 109650, Note_on_c, 0, 33, 0
1, 109685, Note_on_c, 0, 33, 46
1, 109685, Note_on_c, 0, 41, 51
1, 109789, Note_on_c, 0, 41, 0
1, 109789, Note_on_c, 0, 33, 0
1, 109824, Note_on_c, 0, 33, 46
1, 109824, Note_on_c, 0, 41, 51
1, 109932, Note_on_c, 0, 41, 0
1, 109932, Note_on_c, 0, 33, 0
1, 109969, Note_on_c, 0, 33, 46
1, 109969, Note_on_c, 0, 41, 51
1, 110078, Note_on_c, 0, 41, 0
1, 110078, Note_on_c, 0, 33, 0
1, 110078, Note_on_c, 0, 83, 67
1, 110114, Note_on_c, 0, 83, 0
1, 110114, Note_on_c, 0, 84, 78
1, 110114, Note_on_c, 0, 32, 46
1, 110117, Note_on_c, 0, 41, 51
1, 110221, Note_on_c, 0, 41, 0
1, 110221, Note_on_c, 0, 32, 0
1, 110256, Note_on_c, 0, 32, 46
1, 110256, Note_on_c, 0, 41, 51
1, 110363, Note_on_c, 0, 41, 0
1, 110363, Note_on_c, 0, 32, 0
1, 110398, Note_on_c, 0, 32, 46
1, 110398, Note_on_c, 0, 41, 51
1, 110469, Note_on_c, 0, 84, 0
1, 110469, Note_on_c, 0, 82, 71
1, 110504, Note_on_c, 0, 41, 0
1, 110504, Note_on_c, 0, 32, 0
1, 110540, Note_on_c, 0, 82, 0
1, 110540, Note_on_c, 0, 80, 70
1, 110540, Note_on_c, 0, 32, 46
1, 110543, Note_on_c, 0, 41, 51
1, 110611, Note_on_c, 0, 80, 0
1, 110611, Note_on_c, 0, 79, 68
1, 110646, Note_on_c, 0, 41, 0
1, 110646, Note_on_c, 0, 32, 0
1, 110681, Note_on_c, 0, 79, 0
1, 110681, Note_on_c, 0, 77, 67
1, 110681, Note_on_c, 0, 32, 46
1, 110684, Note_on_c, 0, 41, 51
1, 110788, Note_on_c, 0, 41, 0
1, 110788, Note_on_c, 0, 32, 0
1, 110823, Note_on_c, 0, 77, 0
1, 110823, Note_on_c, 0, 32, 46
1, 110823, Note_on_c, 0, 41, 51
1, 110929, Note_on_c, 0, 41, 0
1, 110929, Note_on_c, 0, 32, 0
1, 110965, Note_on_c, 0, 32, 46
1, 110965, Note_on_c, 0, 41, 51
1, 111074, Note_on_c, 0, 41, 0
1, 111074, Note_on_c, 0, 32, 0
1, 111111, Note_on_c, 0, 32, 46
1, 111111, Note_on_c, 0, 41, 51
1, 111220, Note_on_c, 0, 41, 0
1, 111220, Note_on_c, 0, 32, 0
1, 111220, Note_on_c, 0, 88, 88
1, 111256, Note_on_c, 0, 88, 0
1, 111256, Note_on_c, 0, 89, 94
1, 111256, Note_on_c, 0, 31, 51
1, 111259, Note_on_c, 0, 41, 57
1, 111361, Note_on_c, 0, 41, 0
1, 111361, Note_on_c, 0, 31, 0
1, 111396, Note_on_c, 0, 31, 53
1, 111396, Note_on_c, 0, 41, 59
1, 111501, Note_on_c, 0, 41, 0
1, 111501, Note_on_c, 0, 31, 0
1, 111536, Note_on_c, 0, 31, 54
1, 111536, Note_on_c, 0, 41, 60
1, 111640, Note_on_c, 0, 41, 0
1, 111640, Note_on_c, 0, 31, 0
1, 111675, Note_on_c, 0, 31, 55
1, 111675, Note_on_c, 0, 41, 62
1, 111779, Note_on_c, 0, 41, 0
1, 111779, Note_on_c, 0, 31, 0
1, 111814, Note_on_c, 0, 31, 57
1, 111814, Note_on_c, 0, 41, 64
1, 111919, Note_on_c, 0, 41, 0
1, 111919, Note_on_c, 0, 31, 0
1, 111955, Note_on_c, 0, 31, 59
1, 111955, Note_on_c, 0, 41, 66
1, 112060, Note_on_c, 0, 41, 0
1, 112060, Note_on_c, 0, 31, 0
1, 112095, Note_on_c, 0, 89, 0
1, 112095, Note_on_c, 0, 89, 95
1, 112095, Note_on_c, 0, 32, 60
1, 112098, Note_on_c, 0, 41, 67
1, 112165, Note_on_c, 0, 89, 0
1, 112165, Note_on_c, 0, 87, 94
1, 112200, Note_on_c, 0, 41, 0
1, 112200, Note_on_c, 0, 32, 0
1, 112235, Note_on_c, 0, 87, 0
1, 112235, Note_on_c, 0, 86, 92
1, 112235, Note_on_c, 0, 32, 61
1, 112238, Note_on_c, 0, 41, 69
1, 112306, Note_on_c, 0, 86, 0
1, 112306, Note_on_c, 0, 84, 91
1, 112341, Note_on_c, 0, 41, 0
1, 112341, Note_on_c, 0, 32, 0
1, 112376, Note_on_c, 0, 84, 0
1, 112376, Note_on_c, 0, 83, 93
1, 112376, Note_on_c, 0, 31, 65
1, 112379, Note_on_c, 0, 41, 73
1, 112446, Note_on_c, 0, 83, 0
1, 112446, Note_on_c, 0, 84, 92
1, 112481, Note_on_c, 0, 41, 0
1, 112481, Note_on_c, 0, 31, 0
1, 112516, Note_on_c, 0, 84, 0
1, 112516, Note_on_c, 0, 86, 93
1, 112516, Note_on_c, 0, 31, 65
1, 112519, Note_on_c, 0, 41, 73
1, 112586, Note_on_c, 0, 86, 0
1, 112586, Note_on_c, 0, 87, 94
1, 112621, Note_on_c, 0, 41, 0
1, 112621, Note_on_c, 0, 31, 0
1, 112656, Note_on_c, 0, 87, 0
1, 112656, Note_on_c, 0, 89, 95
1, 112656, Note_on_c, 0, 32, 66
1, 112659, Note_on_c, 0, 41, 76
1, 112727, Note_on_c, 0, 89, 0
1, 112727, Note_on_c, 0, 87, 93
1, 112762, Note_on_c, 0, 41, 0
1, 112762, Note_on_c, 0, 32, 0
1, 112797, Note_on_c, 0, 87, 0
1, 112797, Note_on_c, 0, 86, 92
1, 112797, Note_on_c, 0, 32, 67
1, 112800, Note_on_c, 0, 41, 76
1, 112868, Note_on_c, 0, 86, 0
1, 112868, Note_on_c, 0, 84, 90
1, 112903, Note_on_c, 0, 41, 0
1, 112903, Note_on_c, 0, 32, 0
1, 112939, Note_on_c, 0, 84, 0
1, 112939, Note_on_c, 0, 83, 93
1, 112939, Note_on_c, 0, 31, 69
1, 112942, Note_on_c, 0, 41, 79
1, 113009, Note_on_c, 0, 83, 0
1, 113009, Note_on_c, 0, 84, 96
1, 113044, Note_on_c, 0, 41, 0
1, 113044, Note_on_c, 0, 31, 0
1, 113079, Note_on_c, 0, 84, 0
1, 113079, Note_on_c, 0, 86, 98
1, 113079, Note_on_c, 0, 31, 72
1, 113082, Note_on_c, 0, 41, 81
1, 113149, Note_on_c, 0, 86, 0
1, 113149, Note_on_c, 0, 87, 101
1, 113184, Note_on_c, 0, 41, 0
1, 113184, Note_on_c, 0, 31, 0
1, 113219, Note_on_c, 0, 87, 0
1, 113219, Note_on_c, 0, 89, 101
1, 113219, Note_on_c, 0, 32, 75
1, 113222, Note_on_c, 0, 41, 85
1, 113289, Note_on_c, 0, 89, 0
1, 113289, Note_on_c, 0, 87, 101
1, 113324, Note_on_c, 0, 41, 0
1, 113324, Note_on_c, 0, 32, 0
1, 113359, Note_on_c, 0, 87, 0
1, 113359, Note_on_c, 0, 86, 100
1, 113359, Note_on_c, 0, 32, 77
1, 113362, Note_on_c, 0, 41, 87
1, 113429, Note_on_c, 0, 86, 0
1, 113429, Note_on_c, 0, 84, 102
1, 113464, Note_on_c, 0, 41, 0
1, 113464, Note_on_c, 0, 32, 0
1, 113499, Note_on_c, 0, 84, 0
1, 113499, Note_on_c, 0, 83, 106
1, 113499, Note_on_c, 0, 31, 91
1, 113502, Note_on_c, 0, 41, 106
1, 113569, Note_on_c, 0, 83, 0
1, 113569, Note_on_c, 0, 84, 110
1, 113641, Note_on_c, 0, 84, 0
1, 113641, Note_on_c, 0, 86, 115
1, 113714, Note_on_c, 0, 86, 0
1, 113714, Note_on_c, 0, 87, 119
1, 113793, Note_on_c, 0, 87, 0
1, 113793, Note_on_c, 0, 41, 0
1, 113793, Note_on_c, 0, 89, 121
1, 113796, Note_on_c, 0, 31, 0
1, 113796, Note_on_c, 0, 43, 102
1, 113796, Note_on_c, 0, 55, 117
1, 113863, Note_on_c, 0, 89, 0
1, 113863, Note_on_c, 0, 87, 119
1, 113933, Note_on_c, 0, 87, 0
1, 113933, Note_on_c, 0, 86, 117
1, 114003, Note_on_c, 0, 86, 0
1, 114003, Note_on_c, 0, 84, 115
1, 114073, Note_on_c, 0, 84, 0
1, 114073, Note_on_c, 0, 83, 114
1, 114143, Note_on_c, 0, 83, 0
1, 114143, Note_on_c, 0, 80, 112
1, 114213, Note_on_c, 0, 80, 0
1, 114213, Note_on_c, 0, 79, 110
1, 114283, Note_on_c, 0, 79, 0
1, 114283, Note_on_c, 0, 77, 108
1, 114353, Note_on_c, 0, 77, 0
1, 114353, Note_on_c, 0, 75, 106
1, 114424, Note_on_c, 0, 75, 0
1, 114424, Note_on_c, 0, 74, 104
1, 114495, Note_on_c, 0, 74, 0
1, 114495, Note_on_c, 0, 55, 0
1, 114495, Note_on_c, 0, 72, 102
1, 114498, Note_on_c, 0, 43, 0
1, 114498, Note_on_c, 0, 57, 88
1, 114566, Note_on_c, 0, 57, 0
1, 114566, Note_on_c, 0, 72, 0
1, 114566, Note_on_c, 0, 71, 100
1, 114569, Note_on_c, 0, 59, 91
1, 114637, Note_on_c, 0, 59, 0
1, 114637, Note_on_c, 0, 71, 0
1, 114637, Note_on_c, 0, 72, 114
1, 114640, Note_on_c, 0, 60, 93
1, 114750, Note_on_c, 0, 60, 0
1, 114750, Note_on_c, 0, 72, 0
1, 114937, Note_on_c, 0, 67, 104
1, 114937, Note_on_c, 0, 43, 77
1, 114937, Note_on_c, 0, 55, 87
1, 115059, Note_on_c, 0, 55, 0
1, 115059, Note_on_c, 0, 43, 0
1, 115059, Note_on_c, 0, 67, 0
1, 115263, Note_on_c, 0, 63, 93
1, 115263, Note_on_c, 0, 39, 73
1, 115263, Note_on_c, 0, 51, 83
1, 115401, Note_on_c, 0, 51, 0
1, 115401, Note_on_c, 0, 39, 0
1, 115401, Note_on_c, 0, 63, 0
1, 115630, Note_on_c, 0, 60, 85
1, 115630, Note_on_c, 0, 36, 69
1, 115630, Note_on_c, 0, 48, 78
1, 115796, Note_on_c, 0, 48, 0
1, 115796, Note_on_c, 0, 36, 0
1, 115796, Note_on_c, 0, 60, 0
1, 116073, Note_on_c, 0, 55, 81
1, 116073, Note_on_c, 0, 31, 67
1, 116073, Note_on_c, 0, 43, 75
1, 117424, Note_on_c, 0, 43, 0
1, 117424, Note_on_c, 0, 55, 0
1, 117424, Note_on_c, 0, 64, 58
1, 117427, Note_on_c, 0, 31, 0
1, 117427, Note_on_c, 0, 36, 51
1, 117427, Note_on_c, 0, 48, 51
1, 117494, Note_on_c, 0, 60, 54
1, 117529, Note_on_c, 0, 64, 0
1, 117564, Note_on_c, 0, 60, 0
1, 117564, Note_on_c, 0, 48, 0
1, 117564, Note_on_c, 0, 64, 58
1, 117567, Note_on_c, 0, 48, 52
1, 117634, Note_on_c, 0, 60, 54
1, 117634, Note_on_c, 0, 55, 47
1, 117669, Note_on_c, 0, 64, 0
1, 117704, Note_on_c, 0, 60, 0
1, 117704, Note_on_c, 0, 55, 0
1, 117704, Note_on_c, 0, 64, 58
1, 117707, Note_on_c, 0, 48, 0
1, 117707, Note_on_c, 0, 48, 52
1, 117774, Note_on_c, 0, 60, 54
1, 117774, Note_on_c, 0, 55, 48
1, 117808, Note_on_c, 0, 64, 0
1, 117843, Note_on_c, 0, 60, 0
1, 117843, Note_on_c, 0, 55, 0
1, 117843, Note_on_c, 0, 64, 57
1, 117846, Note_on_c, 0, 48, 0
1, 117846, Note_on_c, 0, 48, 52
1, 117913, Note_on_c, 0, 60, 54
1, 117913, Note_on_c, 0, 55, 48
1, 117947, Note_on_c, 0, 64, 0
1, 117982, Note_on_c, 0, 60, 0
1, 117982, Note_on_c, 0, 55, 0
1, 117982, Note_on_c, 0, 64, 57
1, 117985, Note_on_c, 0, 48, 0
1, 117985, Note_on_c, 0, 48, 52
1, 118052, Note_on_c, 0, 60, 54
1, 118052, Note_on_c, 0, 55, 47
1, 118087, Note_on_c, 0, 64, 0
1, 118121, Note_on_c, 0, 60, 0
1, 118121, Note_on_c, 0, 55, 0
1, 118121, Note_on_c, 0, 64, 58
1, 118124, Note_on_c, 0, 48, 0
1, 118124, Note_on_c, 0, 48, 52
1, 118191, Note_on_c, 0, 60, 54
1, 118191, Note_on_c, 0, 55, 48
1, 118226, Note_on_c, 0, 64, 0
1, 118260, Note_on_c, 0, 60, 0
1, 118260, Note_on_c, 0, 55, 0
1, 118260, Note_on_c, 0, 64, 57
1, 118263, Note_on_c, 0, 48, 0
1, 118263, Note_on_c, 0, 48, 52
1, 118330, Note_on_c, 0, 60, 54
1, 118330, Note_on_c, 0, 55, 48
1, 118365, Note_on_c, 0, 64, 0
1, 118400, Note_on_c, 0, 60, 0
1, 118400, Note_on_c, 0, 55, 0
1, 118400, Note_on_c, 0, 64, 57
1, 118403, Note_on_c, 0, 48, 0
1, 118403, Note_on_c, 0, 48, 52
1, 118470, Note_on_c, 0, 60, 54
1, 118470, Note_on_c, 0, 55, 46
1, 118505, Note_on_c, 0, 64, 0
1, 118540, Note_on_c, 0, 60, 0
1, 118540, Note_on_c, 0, 55, 0
1, 118540, Note_on_c, 0, 64, 58
1, 118543, Note_on_c, 0, 48, 0
1, 118543, Note_on_c, 0, 36, 0
1, 118543, Note_on_c, 0, 48, 52
1, 118610, Note_on_c, 0, 60, 54
1, 118610, Note_on_c, 0, 55, 47
1, 118645, Note_on_c, 0, 64, 0
1, 118680, Note_on_c, 0, 55, 0
1, 118680, Note_on_c, 0, 60, 0
1, 118680, Note_on_c, 0, 64, 58
1, 118683, Note_on_c, 0, 48, 0
1, 118683, Note_on_c, 0, 48, 52
1, 118750, Note_on_c, 0, 60, 54
1, 118750, Note_on_c, 0, 55, 47
1, 118785, Note_on_c, 0, 64, 0
1, 118820, Note_on_c, 0, 55, 0
1, 118820, Note_on_c, 0, 60, 0
1, 118820, Note_on_c, 0, 64, 58
1, 118823, Note_on_c, 0, 48, 0
1, 118823, Note_on_c, 0, 48, 52
1, 118890, Note_on_c, 0, 60, 54
1, 118890, Note_on_c, 0, 55, 48
1, 118924, Note_on_c, 0, 64, 0
1, 118959, Note_on_c, 0, 55, 0
1, 118959, Note_on_c, 0, 60, 0
1, 118959, Note_on_c, 0, 64, 57
1, 118962, Note_on_c, 0, 48, 0
1, 118962, Note_on_c, 0, 48, 52
1, 119028, Note_on_c, 0, 60, 54
1, 119028, Note_on_c, 0, 55, 48
1, 119063, Note_on_c, 0, 64, 0
1, 119098, Note_on_c, 0, 55, 0
1, 119098, Note_on_c, 0, 60, 0
1, 119098, Note_on_c, 0, 64, 57
1, 119101, Note_on_c, 0, 48, 0
1, 119101, Note_on_c, 0, 48, 52
1, 119167, Note_on_c, 0, 60, 54
1, 119167, Note_on_c, 0, 55, 47
1, 119202, Note_on_c, 0, 64, 0
1, 119236, Note_on_c, 0, 55, 0
1, 119236, Note_on_c, 0, 60, 0
1, 119236, Note_on_c, 0, 64, 58
1, 119239, Note_on_c, 0, 48, 0
1, 119239, Note_on_c, 0, 48, 52
1, 119306, Note_on_c, 0, 60, 54
1, 119306, Note_on_c, 0, 55, 48
1, 119340, Note_on_c, 0, 64, 0
1, 119375, Note_on_c, 0, 55, 0
1, 119375, Note_on_c, 0, 60, 0
1, 119375, Note_on_c, 0, 66, 57
1, 119378, Note_on_c, 0, 48, 0
1, 119378, Note_on_c, 0, 48, 52
1, 119445, Note_on_c, 0, 62, 54
1, 119445, Note_on_c, 0, 57, 48
1, 119480, Note_on_c, 0, 66, 0
1, 119515, Note_on_c, 0, 57, 0
1, 119515, Note_on_c, 0, 62, 0
1, 119515, Note_on_c, 0, 66, 57
1, 119518, Note_on_c, 0, 48, 0
1, 119518, Note_on_c, 0, 48, 52
1, 119585, Note_on_c, 0, 62, 54
1, 119585, Note_on_c, 0, 57, 46
1, 119620, Note_on_c, 0, 66, 0
1, 119655, Note_on_c, 0, 57, 0
1, 119655, Note_on_c, 0, 62, 0
1, 119655, Note_on_c, 0, 67, 67
1, 119658, Note_on_c, 0, 48, 0
1, 119658, Note_on_c, 0, 47, 47
1, 119658, Note_on_c, 0, 50, 52
1, 119725, Note_on_c, 0, 55, 46
1, 119795, Note_on_c, 0, 55, 0
1, 119795, Note_on_c, 0, 50, 0
1, 119795, Note_on_c, 0, 47, 0
1, 119798, Note_on_c, 0, 47, 47
1, 119798, Note_on_c, 0, 50, 52
1, 119865, Note_on_c, 0, 55, 46
1, 119935, Note_on_c, 0, 55, 0
1, 119935, Note_on_c, 0, 50, 0
1, 119935, Note_on_c, 0, 47, 0
1, 119938, Note_on_c, 0, 47, 47
1, 119938, Note_on_c, 0, 50, 52
1, 120005, Note_on_c, 0, 55, 46
1, 120075, Note_on_c, 0, 55, 0
1, 120075, Note_on_c, 0, 67, 0
1, 120075, Note_on_c, 0, 71, 61
1, 120078, Note_on_c, 0, 50, 0
1, 120078, Note_on_c, 0, 47, 0
1, 120078, Note_on_c, 0, 47, 47
1, 120081, Note_on_c, 0, 50, 52
1, 120145, Note_on_c, 0, 71, 0
1, 120145, Note_on_c, 0, 69, 61
1, 120145, Note_on_c, 0, 55, 46
1, 120215, Note_on_c, 0, 55, 0
1, 120215, Note_on_c, 0, 69, 0
1, 120215, Note_on_c, 0, 67, 66
1, 120218, Note_on_c, 0, 50, 0
1, 120218, Note_on_c, 0, 47, 0
1, 120218, Note_on_c, 0, 47, 47
1, 120221, Note_on_c, 0, 50, 52
1, 120285, Note_on_c, 0, 67, 0
1, 120285, Note_on_c, 0, 55, 46
1, 120355, Note_on_c, 0, 55, 0
1, 120355, Note_on_c, 0, 50, 0
1, 120355, Note_on_c, 0, 47, 0
1, 120358, Note_on_c, 0, 47, 47
1, 120358, Note_on_c, 0, 50, 52
1, 120425, Note_on_c, 0, 55, 46
1, 120495, Note_on_c, 0, 55, 0
1, 120495, Note_on_c, 0, 50, 0
1, 120495, Note_on_c, 0, 47, 0
1, 120498, Note_on_c, 0, 47, 47
1, 120498, Note_on_c, 0, 50, 52
1, 120565, Note_on_c, 0, 55, 46
1, 120635, Note_on_c, 0, 55, 0
1, 120635, Note_on_c, 0, 50, 0
1, 120635, Note_on_c, 0, 47, 0
1, 120638, Note_on_c, 0, 47, 47
1, 120638, Note_on_c, 0, 50, 52
1, 120707, Note_on_c, 0, 55, 46
1, 120744, Note_on_c, 0, 85, 67
1, 120780, Note_on_c, 0, 85, 0
1, 120780, Note_on_c, 0, 55, 0
1, 120780, Note_on_c, 0, 86, 78
1, 120783, Note_on_c, 0, 50, 0
1, 120783, Note_on_c, 0, 47, 0
1, 120783, Note_on_c, 0, 47, 47
1, 120786, Note_on_c, 0, 50, 52
1, 120851, Note_on_c, 0, 55, 46
1, 120922, Note_on_c, 0, 55, 0
1, 120922, Note_on_c, 0, 50, 0
1, 120922, Note_on_c, 0, 47, 0
1, 120925, Note_on_c, 0, 47, 47
1, 120925, Note_on_c, 0, 50, 52
1, 120993, Note_on_c, 0, 55, 46
1, 121064, Note_on_c, 0, 55, 0
1, 121064, Note_on_c, 0, 50, 0
1, 121064, Note_on_c, 0, 47, 0
1, 121067, Note_on_c, 0, 47, 47
1, 121067, Note_on_c, 0, 50, 52
1, 121134, Note_on_c, 0, 86, 0
1, 121134, Note_on_c, 0, 84, 69
1, 121134, Note_on_c, 0, 55, 46
1, 121205, Note_on_c, 0, 55, 0
1, 121205, Note_on_c, 0, 84, 0
1, 121205, Note_on_c, 0, 83, 68
1, 121208, Note_on_c, 0, 50, 0
1, 121208, Note_on_c, 0, 47, 0
1, 121208, Note_on_c, 0, 47, 47
1, 121211, Note_on_c, 0, 50, 52
1, 121276, Note_on_c, 0, 83, 0
1, 121276, Note_on_c, 0, 81, 66
1, 121276, Note_on_c, 0, 55, 46
1, 121347, Note_on_c, 0, 55, 0
1, 121347, Note_on_c, 0, 81, 0
1, 121347, Note_on_c, 0, 79, 65
1, 121350, Note_on_c, 0, 50, 0
1, 121350, Note_on_c, 0, 47, 0
1, 121350, Note_on_c, 0, 47, 47
1, 121353, Note_on_c, 0, 50, 52
1, 121418, Note_on_c, 0, 55, 46
1, 121489, Note_on_c, 0, 55, 0
1, 121489, Note_on_c, 0, 50, 0
1, 121489, Note_on_c, 0, 79, 0
1, 121492, Note_on_c, 0, 47, 0
1, 121492, Note_on_c, 0, 47, 47
1, 121492, Note_on_c, 0, 50, 52
1, 121560, Note_on_c, 0, 55, 46
1, 121631, Note_on_c, 0, 55, 0
1, 121631, Note_on_c, 0, 50, 0
1, 121631, Note_on_c, 0, 47, 0
1, 121634, Note_on_c, 0, 47, 47
1, 121634, Note_on_c, 0, 50, 52
1, 121701, Note_on_c, 0, 55, 46
1, 121772, Note_on_c, 0, 55, 0
1, 121772, Note_on_c, 0, 50, 0
1, 121772, Note_on_c, 0, 47, 0
1, 121775, Note_on_c, 0, 47, 47
1, 121775, Note_on_c, 0, 50, 52
1, 121844, Note_on_c, 0, 55, 46
1, 121916, Note_on_c, 0, 55, 0
1, 121916, Note_on_c, 0, 50, 0
1, 121916, Note_on_c, 0, 65, 61
1, 121919, Note_on_c, 0, 47, 0
1, 121919, Note_on_c, 0, 38, 54
1, 121919, Note_on_c, 0, 50, 54
1, 121986, Note_on_c, 0, 62, 57
1, 122021, Note_on_c, 0, 65, 0
1, 122056, Note_on_c, 0, 62, 0
1, 122056, Note_on_c, 0, 50, 0
1, 122056, Note_on_c, 0, 65, 61
1, 122059, Note_on_c, 0, 50, 55
1, 122126, Note_on_c, 0, 62, 57
1, 122126, Note_on_c, 0, 57, 49
1, 122161, Note_on_c, 0, 65, 0
1, 122196, Note_on_c, 0, 62, 0
1, 122196, Note_on_c, 0, 57, 0
1, 122196, Note_on_c, 0, 65, 61
1, 122199, Note_on_c, 0, 50, 0
1, 122199, Note_on_c, 0, 50, 55
1, 122266, Note_on_c, 0, 62, 57
1, 122266, Note_on_c, 0, 57, 50
1, 122300, Note_on_c, 0, 65, 0
1, 122335, Note_on_c, 0, 62, 0
1, 122335, Note_on_c, 0, 57, 0
1, 122335, Note_on_c, 0, 65, 60
1, 122338, Note_on_c, 0, 50, 0
1, 122338, Note_on_c, 0, 50, 55
1, 122404, Note_on_c, 0, 62, 57
1, 122404, Note_on_c, 0, 57, 50
1, 122439, Note_on_c, 0, 65, 0
1, 122474, Note_on_c, 0, 62, 0
1, 122474, Note_on_c, 0, 57, 0
1, 122474, Note_on_c, 0, 65, 60
1, 122477, Note_on_c, 0, 50, 0
1, 122477, Note_on_c, 0, 50, 55
1, 122543, Note_on_c, 0, 62, 57
1, 122543, Note_on_c, 0, 57, 49
1, 122578, Note_on_c, 0, 65, 0
1, 122612, Note_on_c, 0, 62, 0
1, 122612, Note_on_c, 0, 57, 0
1, 122612, Note_on_c, 0, 65, 62
1, 122615, Note_on_c, 0, 50, 0
1, 122615, Note_on_c, 0, 50, 55
1, 122682, Note_on_c, 0, 62, 57
1, 122682, Note_on_c, 0, 57, 50
1, 122716, Note_on_c, 0, 65, 0
1, 122751, Note_on_c, 0, 62, 0
1, 122751, Note_on_c, 0, 57, 0
1, 122751, Note_on_c, 0, 65, 61
1, 122754, Note_on_c, 0, 50, 0
1, 122754, Note_on_c, 0, 50, 55
1, 122821, Note_on_c, 0, 62, 58
1, 122821, Note_on_c, 0, 57, 51
1, 122857, Note_on_c, 0, 65, 0
1, 122892, Note_on_c, 0, 62, 0
1, 122892, Note_on_c, 0, 57, 0
1, 122892, Note_on_c, 0, 65, 61
1, 122895, Note_on_c, 0, 50, 0
1, 122895, Note_on_c, 0, 50, 56
1, 122962, Note_on_c, 0, 62, 58
1, 122962, Note_on_c, 0, 57, 49
1, 122998, Note_on_c, 0, 65, 0
1, 123033, Note_on_c, 0, 62, 0
1, 123033, Note_on_c, 0, 57, 0
1, 123033, Note_on_c, 0, 65, 62
1, 123036, Note_on_c, 0, 50, 0
1, 123036, Note_on_c, 0, 38, 0
1, 123036, Note_on_c, 0, 50, 56
1, 123103, Note_on_c, 0, 62, 58
1, 123103, Note_on_c, 0, 57, 50
1, 123138, Note_on_c, 0, 65, 0
1, 123173, Note_on_c, 0, 57, 0
1, 123173, Note_on_c, 0, 62, 0
1, 123173, Note_on_c, 0, 65, 62
1, 123176, Note_on_c, 0, 50, 0
1, 123176, Note_on_c, 0, 50, 56
1, 123243, Note_on_c, 0, 62, 58
1, 123243, Note_on_c, 0, 57, 50
1, 123278, Note_on_c, 0, 65, 0
1, 123313, Note_on_c, 0, 57, 0
1, 123313, Note_on_c, 0, 62, 0
1, 123313, Note_on_c, 0, 65, 63
1, 123316, Note_on_c, 0, 50, 0
1, 123316, Note_on_c, 0, 50, 56
1, 123382, Note_on_c, 0, 62, 58
1, 123382, Note_on_c, 0, 57, 51
1, 123417, Note_on_c, 0, 65, 0
1, 123452, Note_on_c, 0, 57, 0
1, 123452, Note_on_c, 0, 62, 0
1, 123452, Note_on_c, 0, 65, 62
1, 123455, Note_on_c, 0, 50, 0
1, 123455, Note_on_c, 0, 50, 56
1, 123521, Note_on_c, 0, 62, 59
1, 123521, Note_on_c, 0, 57, 51
1, 123556, Note_on_c, 0, 65, 0
1, 123591, Note_on_c, 0, 57, 0
1, 123591, Note_on_c, 0, 62, 0
1, 123591, Note_on_c, 0, 65, 62
1, 123594, Note_on_c, 0, 50, 0
1, 123594, Note_on_c, 0, 50, 57
1, 123661, Note_on_c, 0, 62, 59
1, 123661, Note_on_c, 0, 57, 50
1, 123697, Note_on_c, 0, 65, 0
1, 123732, Note_on_c, 0, 57, 0
1, 123732, Note_on_c, 0, 62, 0
1, 123732, Note_on_c, 0, 65, 63
1, 123735, Note_on_c, 0, 50, 0
1, 123735, Note_on_c, 0, 50, 57
1, 123802, Note_on_c, 0, 62, 59
1, 123802, Note_on_c, 0, 57, 52
1, 123837, Note_on_c, 0, 65, 0
1, 123873, Note_on_c, 0, 57, 0
1, 123873, Note_on_c, 0, 62, 0
1, 123873, Note_on_c, 0, 68, 62
1, 123876, Note_on_c, 0, 50, 0
1, 123876, Note_on_c, 0, 50, 57
1, 123943, Note_on_c, 0, 64, 59
1, 123943, Note_on_c, 0, 59, 52
1, 123978, Note_on_c, 0, 68, 0
1, 124014, Note_on_c, 0, 59, 0
1, 124014, Note_on_c, 0, 64, 0
1, 124014, Note_on_c, 0, 68, 63
1, 124017, Note_on_c, 0, 50, 0
1, 124017, Note_on_c, 0, 50, 57
1, 124084, Note_on_c, 0, 64, 59
1, 124084, Note_on_c, 0, 59, 50
1, 124119, Note_on_c, 0, 68, 0
1, 124154, Note_on_c, 0, 59, 0
1, 124154, Note_on_c, 0, 64, 0
1, 124154, Note_on_c, 0, 69, 76
1, 124157, Note_on_c, 0, 50, 0
1, 124157, Note_on_c, 0, 48, 51
1, 124157, Note_on_c, 0, 52, 58
1, 124224, Note_on_c, 0, 57, 50
1, 124294, Note_on_c, 0, 57, 0
1, 124294, Note_on_c, 0, 52, 0
1, 124294, Note_on_c, 0, 48, 0
1, 124297, Note_on_c, 0, 48, 51
1, 124297, Note_on_c, 0, 52, 58
1, 124364, Note_on_c, 0, 57, 50
1, 124434, Note_on_c, 0, 57, 0
1, 124434, Note_on_c, 0, 52, 0
1, 124434, Note_on_c, 0, 48, 0
1, 124437, Note_on_c, 0, 48, 51
1, 124437, Note_on_c, 0, 52, 58
1, 124504, Note_on_c, 0, 57, 50
1, 124574, Note_on_c, 0, 57, 0
1, 124574, Note_on_c, 0, 69, 0
1, 124574, Note_on_c, 0, 72, 69
1, 124577, Note_on_c, 0, 52, 0
1, 124577, Note_on_c, 0, 48, 0
1, 124577, Note_on_c, 0, 48, 51
1, 124580, Note_on_c, 0, 52, 58
1, 124644, Note_on_c, 0, 72, 0
1, 124644, Note_on_c, 0, 71, 69
1, 124644, Note_on_c, 0, 57, 50
1, 124714, Note_on_c, 0, 57, 0
1, 124714, Note_on_c, 0, 71, 0
1, 124714, Note_on_c, 0, 69, 74
1, 124717, Note_on_c, 0, 52, 0
1, 124717, Note_on_c, 0, 48, 0
1, 124717, Note_on_c, 0, 48, 51
1, 124720, Note_on_c, 0, 52, 58
1, 124784, Note_on_c, 0, 69, 0
1, 124784, Note_on_c, 0, 57, 50
1, 124854, Note_on_c, 0, 57, 0
1, 124854, Note_on_c, 0, 52, 0
1, 124854, Note_on_c, 0, 48, 0
1, 124857, Note_on_c, 0, 48, 51
1, 124857, Note_on_c, 0, 52, 58
1, 124924, Note_on_c, 0, 57, 50
1, 124994, Note_on_c, 0, 57, 0
1, 124994, Note_on_c, 0, 52, 0
1, 124994, Note_on_c, 0, 48, 0
1, 124997, Note_on_c, 0, 48, 51
1, 124997, Note_on_c, 0, 52, 58
1, 125064, Note_on_c, 0, 57, 50
1, 125134, Note_on_c, 0, 57, 0
1, 125134, Note_on_c, 0, 52, 0
1, 125134, Note_on_c, 0, 48, 0
1, 125137, Note_on_c, 0, 48, 51
1, 125137, Note_on_c, 0, 52, 58
1, 125208, Note_on_c, 0, 57, 50
1, 125244, Note_on_c, 0, 87, 76
1, 125281, Note_on_c, 0, 87, 0
1, 125281, Note_on_c, 0, 57, 0
1, 125281, Note_on_c, 0, 88, 89
1, 125284, Note_on_c, 0, 52, 0
1, 125284, Note_on_c, 0, 48, 0
1, 125284, Note_on_c, 0, 48, 51
1, 125287, Note_on_c, 0, 52, 58
1, 125352, Note_on_c, 0, 57, 50
1, 125423, Note_on_c, 0, 57, 0
1, 125423, Note_on_c, 0, 52, 0
1, 125423, Note_on_c, 0, 48, 0
1, 125426, Note_on_c, 0, 48, 51
1, 125426, Note_on_c, 0, 52, 58
1, 125494, Note_on_c, 0, 57, 50
1, 125565, Note_on_c, 0, 57, 0
1, 125565, Note_on_c, 0, 52, 0
1, 125565, Note_on_c, 0, 48, 0
1, 125568, Note_on_c, 0, 48, 51
1, 125568, Note_on_c, 0, 52, 58
1, 125636, Note_on_c, 0, 88, 0
1, 125636, Note_on_c, 0, 86, 80
1, 125636, Note_on_c, 0, 57, 50
1, 125707, Note_on_c, 0, 57, 0
1, 125707, Note_on_c, 0, 86, 0
1, 125707, Note_on_c, 0, 84, 79
1, 125710, Note_on_c, 0, 52, 0
1, 125710, Note_on_c, 0, 48, 0
1, 125710, Note_on_c, 0, 48, 51
1, 125713, Note_on_c, 0, 52, 60
1, 125778, Note_on_c, 0, 84, 0
1, 125778, Note_on_c, 0, 83, 78
1, 125778, Note_on_c, 0, 57, 52
1, 125849, Note_on_c, 0, 57, 0
1, 125849, Note_on_c, 0, 83, 0
1, 125849, Note_on_c, 0, 81, 78
1, 125852, Note_on_c, 0, 52, 0
1, 125852, Note_on_c, 0, 48, 0
1, 125852, Note_on_c, 0, 48, 53
1, 125855, Note_on_c, 0, 52, 60
1, 125921, Note_on_c, 0, 57, 52
1, 125992, Note_on_c, 0, 57, 0
1, 125992, Note_on_c, 0, 52, 0
1, 125992, Note_on_c, 0, 81, 0
1, 125995, Note_on_c, 0, 48, 0
1, 125995, Note_on_c, 0, 48, 53
1, 125995, Note_on_c, 0, 52, 62
1, 126063, Note_on_c, 0, 57, 52
1, 126134, Note_on_c, 0, 57, 0
1, 126134, Note_on_c, 0, 52, 0
1, 126134, Note_on_c, 0, 48, 0
1, 126137, Note_on_c, 0, 48, 54
1, 126137, Note_on_c, 0, 52, 62
1, 126205, Note_on_c, 0, 57, 54
1, 126276, Note_on_c, 0, 57, 0
1, 126276, Note_on_c, 0, 52, 0
1, 126276, Note_on_c, 0, 48, 0
1, 126279, Note_on_c, 0, 48, 56
1, 126279, Note_on_c, 0, 52, 63
1, 126349, Note_on_c, 0, 57, 54
1, 126386, Note_on_c, 0, 87, 87
1, 126423, Note_on_c, 0, 87, 0
1, 126423, Note_on_c, 0, 57, 0
1, 126423, Note_on_c, 0, 88, 106
1, 126426, Note_on_c, 0, 52, 0
1, 126426, Note_on_c, 0, 48, 0
1, 126426, Note_on_c, 0, 48, 58
1, 126429, Note_on_c, 0, 52, 66
1, 126495, Note_on_c, 0, 58, 57
1, 126567, Note_on_c, 0, 58, 0
1, 126567, Note_on_c, 0, 52, 0
1, 126567, Note_on_c, 0, 48, 0
1, 126570, Note_on_c, 0, 48, 59
1, 126570, Note_on_c, 0, 52, 66
1, 126639, Note_on_c, 0, 58, 58
1, 126711, Note_on_c, 0, 58, 0
1, 126711, Note_on_c, 0, 52, 0
1, 126711, Note_on_c, 0, 48, 0
1, 126714, Note_on_c, 0, 48, 60
1, 126714, Note_on_c, 0, 52, 68
1, 126783, Note_on_c, 0, 88, 0
1, 126783, Note_on_c, 0, 86, 97
1, 126783, Note_on_c, 0, 58, 59
1, 126855, Note_on_c, 0, 58, 0
1, 126855, Note_on_c, 0, 86, 0
1, 126855, Note_on_c, 0, 84, 96
1, 126858, Note_on_c, 0, 52, 0
1, 126858, Note_on_c, 0, 48, 0
1, 126858, Note_on_c, 0, 48, 60
1, 126861, Note_on_c, 0, 52, 68
1, 126927, Note_on_c, 0, 84, 0
1, 126927, Note_on_c, 0, 83, 92
1, 126927, Note_on_c, 0, 58, 59
1, 126999, Note_on_c, 0, 58, 0
1, 126999, Note_on_c, 0, 83, 0
1, 126999, Note_on_c, 0, 82, 92
1, 127002, Note_on_c, 0, 52, 0
1, 127002, Note_on_c, 0, 48, 0
1, 127002, Note_on_c, 0, 48, 62
1, 127005, Note_on_c, 0, 52, 71
1, 127071, Note_on_c, 0, 58, 61
1, 127143, Note_on_c, 0, 58, 0
1, 127143, Note_on_c, 0, 52, 0
1, 127143, Note_on_c, 0, 82, 0
1, 127146, Note_on_c, 0, 48, 0
1, 127146, Note_on_c, 0, 48, 62
1, 127146, Note_on_c, 0, 52, 72
1, 127215, Note_on_c, 0, 58, 61
1, 127287, Note_on_c, 0, 58, 0
1, 127287, Note_on_c, 0, 52, 0
1, 127287, Note_on_c, 0, 48, 0
1, 127290, Note_on_c, 0, 48, 63
1, 127290, Note_on_c, 0, 52, 72
1, 127359, Note_on_c, 0, 58, 63
1, 127431, Note_on_c, 0, 58, 0
1, 127431, Note_on_c, 0, 52, 0
1, 127431, Note_on_c, 0, 48, 0
1, 127434, Note_on_c, 0, 48, 64
1, 127434, Note_on_c, 0, 52, 74
1, 127507, Note_on_c, 0, 58, 63
1, 127583, Note_on_c, 0, 58, 0
1, 127583, Note_on_c, 0, 52, 0
1, 127583, Note_on_c, 0, 83, 77
1, 127586, Note_on_c, 0, 48, 0
1, 127586, Note_on_c, 0, 47, 61
1, 127655, Note_on_c, 0, 51, 56
1, 127667, Note_on_c, 0, 47, 0
1, 127726, Note_on_c, 0, 54, 56
1, 127738, Note_on_c, 0, 51, 0
1, 127798, Note_on_c, 0, 59, 56
1, 127810, Note_on_c, 0, 54, 0
1, 127869, Note_on_c, 0, 59, 0
1, 127869, Note_on_c, 0, 47, 62
1, 127940, Note_on_c, 0, 81, 75
1, 127940, Note_on_c, 0, 51, 56
1, 127952, Note_on_c, 0, 47, 0
1, 127952, Note_on_c, 0, 83, 0
1, 128011, Note_on_c, 0, 79, 74
1, 128011, Note_on_c, 0, 54, 56
1, 128023, Note_on_c, 0, 81, 0
1, 128023, Note_on_c, 0, 51, 0
1, 128082, Note_on_c, 0, 78, 72
1, 128082, Note_on_c, 0, 59, 56
1, 128093, Note_on_c, 0, 79, 0
1, 128093, Note_on_c, 0, 54, 0
1, 128152, Note_on_c, 0, 59, 0
1, 128152, Note_on_c, 0, 79, 74
1, 128152, Note_on_c, 0, 47, 60
1, 128164, Note_on_c, 0, 78, 0
1, 128222, Note_on_c, 0, 78, 73
1, 128222, Note_on_c, 0, 52, 56
1, 128234, Note_on_c, 0, 47, 0
1, 128234, Note_on_c, 0, 79, 0
1, 128292, Note_on_c, 0, 76, 72
1, 128292, Note_on_c, 0, 55, 56
1, 128304, Note_on_c, 0, 78, 0
1, 128304, Note_on_c, 0, 52, 0
1, 128363, Note_on_c, 0, 75, 71
1, 128363, Note_on_c, 0, 59, 56
1, 128374, Note_on_c, 0, 76, 0
1, 128374, Note_on_c, 0, 55, 0
1, 128433, Note_on_c, 0, 59, 0
1, 128433, Note_on_c, 0, 76, 71
1, 128433, Note_on_c, 0, 47, 61
1, 128445, Note_on_c, 0, 75, 0
1, 128503, Note_on_c, 0, 79, 73
1, 128503, Note_on_c, 0, 52, 56
1, 128515, Note_on_c, 0, 47, 0
1, 128515, Note_on_c, 0, 76, 0
1, 128573, Note_on_c, 0, 78, 71
1, 128573, Note_on_c, 0, 55, 56
1, 128585, Note_on_c, 0, 79, 0
1, 128585, Note_on_c, 0, 52, 0
1, 128643, Note_on_c, 0, 76, 71
1, 128643, Note_on_c, 0, 59, 56
1, 128655, Note_on_c, 0, 78, 0
1, 128655, Note_on_c, 0, 55, 0
1, 128714, Note_on_c, 0, 59, 0
1, 128714, Note_on_c, 0, 75, 71
1, 128714, Note_on_c, 0, 47, 61
1, 128725, Note_on_c, 0, 76, 0
1, 128784, Note_on_c, 0, 73, 70
1, 128784, Note_on_c, 0, 54, 56
1, 128795, Note_on_c, 0, 47, 0
1, 128795, Note_on_c, 0, 75, 0
1, 128854, Note_on_c, 0, 71, 69
1, 128854, Note_on_c, 0, 57, 56
1, 128865, Note_on_c, 0, 73, 0
1, 128865, Note_on_c, 0, 54, 0
1, 128924, Note_on_c, 0, 70, 68
1, 128924, Note_on_c, 0, 59, 56
1, 128935, Note_on_c, 0, 71, 0
1, 128935, Note_on_c, 0, 57, 0
1, 128994, Note_on_c, 0, 59, 0
1, 128994, Note_on_c, 0, 71, 70
1, 128994, Note_on_c, 0, 47, 61
1, 129006, Note_on_c, 0, 70, 0
1, 129064, Note_on_c, 0, 73, 70
1, 129064, Note_on_c, 0, 54, 56
1, 129076, Note_on_c, 0, 47, 0
1, 129076, Note_on_c, 0, 71, 0
1, 129135, Note_on_c, 0, 74, 70
1, 129135, Note_on_c, 0, 57, 56
1, 129146, Note_on_c, 0, 73, 0
1, 129146, Note_on_c, 0, 54, 0
1, 129205, Note_on_c, 0, 75, 71
1, 129205, Note_on_c, 0, 59, 56
1, 129217, Note_on_c, 0, 74, 0
1, 129217, Note_on_c, 0, 57, 0
1, 129276, Note_on_c, 0, 59, 0
1, 129276, Note_on_c, 0, 76, 71
1, 129276, Note_on_c, 0, 47, 61
1, 129287, Note_on_c, 0, 75, 0
1, 129346, Note_on_c, 0, 75, 71
1, 129346, Note_on_c, 0, 52, 56
1, 129358, Note_on_c, 0, 47, 0
1, 129358, Note_on_c, 0, 76, 0
1, 129418, Note_on_c, 0, 76, 72
1, 129418, Note_on_c, 0, 55, 56
1, 129429, Note_on_c, 0, 75, 0
1, 129429, Note_on_c, 0, 52, 0
1, 129489, Note_on_c, 0, 78, 72
1, 129489, Note_on_c, 0, 59, 56
1, 129500, Note_on_c, 0, 76, 0
1, 129500, Note_on_c, 0, 55, 0
1, 129560, Note_on_c, 0, 59, 0
1, 129560, Note_on_c, 0, 79, 70
1, 129560, Note_on_c, 0, 47, 61
1, 129572, Note_on_c, 0, 78, 0
1, 129631, Note_on_c, 0, 80, 71
1, 129631, Note_on_c, 0, 52, 56
1, 129643, Note_on_c, 0, 47, 0
1, 129643, Note_on_c, 0, 79, 0
1, 129703, Note_on_c, 0, 81, 73
1, 129703, Note_on_c, 0, 55, 56
1, 129715, Note_on_c, 0, 80, 0
1, 129715, Note_on_c, 0, 52, 0
1, 129775, Note_on_c, 0, 82, 74
1, 129775, Note_on_c, 0, 59, 56
1, 129786, Note_on_c, 0, 81, 0
1, 129786, Note_on_c, 0, 55, 0
1, 129846, Note_on_c, 0, 59, 0
1, 129846, Note_on_c, 0, 83, 76
1, 129846, Note_on_c, 0, 47, 61
1, 129858, Note_on_c, 0, 82, 0
1, 129918, Note_on_c, 0, 82, 74
1, 129918, Note_on_c, 0, 51, 56
1, 129930, Note_on_c, 0, 47, 0
1, 129930, Note_on_c, 0, 83, 0
1, 129990, Note_on_c, 0, 83, 74
1, 129990, Note_on_c, 0, 54, 56
1, 130002, Note_on_c, 0, 82, 0
1, 130002, Note_on_c, 0, 51, 0
1, 130061, Note_on_c, 0, 82, 71
1, 130061, Note_on_c, 0, 59, 56
1, 130073, Note_on_c, 0, 83, 0
1, 130073, Note_on_c, 0, 54, 0
1, 130132, Note_on_c, 0, 59, 0
1, 130132, Note_on_c, 0, 83, 73
1, 130132, Note_on_c, 0, 47, 61
1, 130144, Note_on_c, 0, 82, 0
1, 130203, Note_on_c, 0, 81, 73
1, 130203, Note_on_c, 0, 51, 56
1, 130214, Note_on_c, 0, 47, 0
1, 130214, Note_on_c, 0, 83, 0
1, 130273, Note_on_c, 0, 79, 72
1, 130273, Note_on_c, 0, 54, 56
1, 130285, Note_on_c, 0, 81, 0
1, 130285, Note_on_c, 0, 51, 0
1, 130343, Note_on_c, 0, 78, 71
1, 130343, Note_on_c, 0, 59, 56
1, 130355, Note_on_c, 0, 79, 0
1, 130355, Note_on_c, 0, 54, 0
1, 130413, Note_on_c, 0, 59, 0
1, 130413, Note_on_c, 0, 79, 73
1, 130413, Note_on_c, 0, 47, 61
1, 130425, Note_on_c, 0, 78, 0
1, 130483, Note_on_c, 0, 78, 72
1, 130483, Note_on_c, 0, 52, 56
1, 130495, Note_on_c, 0, 47, 0
1, 130495, Note_on_c, 0, 79, 0
1, 130553, Note_on_c, 0, 76, 70
1, 130553, Note_on_c, 0, 55, 56
1, 130565, Note_on_c, 0, 78, 0
1, 130565, Note_on_c, 0, 52, 0
1, 130623, Note_on_c, 0, 75, 71
1, 130623, Note_on_c, 0, 59, 56
1, 130635, Note_on_c, 0, 76, 0
1, 130635, Note_on_c, 0, 55, 0
1, 130693, Note_on_c, 0, 59, 0
1, 130693, Note_on_c, 0, 76, 71
1, 130693, Note_on_c, 0, 47, 62
1, 130705, Note_on_c, 0, 75, 0
1, 130763, Note_on_c, 0, 79, 74
1, 130763, Note_on_c, 0, 52, 56
1, 130775, Note_on_c, 0, 47, 0
1, 130775, Note_on_c, 0, 76, 0
1, 130833, Note_on_c, 0, 78, 71
1, 130833, Note_on_c, 0, 55, 56
1, 130845, Note_on_c, 0, 79, 0
1, 130845, Note_on_c, 0, 52, 0
1, 130903, Note_on_c, 0, 76, 71
1, 130903, Note_on_c, 0, 59, 56
1, 130915, Note_on_c, 0, 78, 0
1, 130915, Note_on_c, 0, 55, 0
1, 130973, Note_on_c, 0, 59, 0
1, 130973, Note_on_c, 0, 75, 71
1, 130973, Note_on_c, 0, 47, 61
1, 130985, Note_on_c, 0, 76, 0
1, 131043, Note_on_c, 0, 73, 70
1, 131043, Note_on_c, 0, 54, 56
1, 131055, Note_on_c, 0, 47, 0
1, 131055, Note_on_c, 0, 75, 0
1, 131113, Note_on_c, 0, 71, 69
1, 131113, Note_on_c, 0, 57, 56
1, 131125, Note_on_c, 0, 73, 0
1, 131125, Note_on_c, 0, 54, 0
1, 131183, Note_on_c, 0, 70, 68
1, 131183, Note_on_c, 0, 59, 56
1, 131195, Note_on_c, 0, 71, 0
1, 131195, Note_on_c, 0, 57, 0
1, 131253, Note_on_c, 0, 59, 0
1, 131253, Note_on_c, 0, 71, 70
1, 131253, Note_on_c, 0, 47, 61
1, 131265, Note_on_c, 0, 70, 0
1, 131323, Note_on_c, 0, 73, 71
1, 131323, Note_on_c, 0, 54, 57
1, 131335, Note_on_c, 0, 47, 0
1, 131335, Note_on_c, 0, 71, 0
1, 131393, Note_on_c, 0, 74, 71
1, 131393, Note_on_c, 0, 57, 57
1, 131405, Note_on_c, 0, 73, 0
1, 131405, Note_on_c, 0, 54, 0
1, 131463, Note_on_c, 0, 75, 73
1, 131463, Note_on_c, 0, 59, 57
1, 131475, Note_on_c, 0, 74, 0
1, 131475, Note_on_c, 0, 57, 0
1, 131533, Note_on_c, 0, 59, 0
1, 131533, Note_on_c, 0, 76, 73
1, 131533, Note_on_c, 0, 47, 63
1, 131545, Note_on_c, 0, 75, 0
1, 131603, Note_on_c, 0, 75, 73
1, 131603, Note_on_c, 0, 52, 57
1, 131615, Note_on_c, 0, 47, 0
1, 131615, Note_on_c, 0, 76, 0
1, 131673, Note_on_c, 0, 76, 75
1, 131673, Note_on_c, 0, 55, 58
1, 131685, Note_on_c, 0, 75, 0
1, 131685, Note_on_c, 0, 52, 0
1, 131743, Note_on_c, 0, 78, 75
1, 131743, Note_on_c, 0, 59, 58
1, 131755, Note_on_c, 0, 76, 0
1, 131755, Note_on_c, 0, 55, 0
1, 131813, Note_on_c, 0, 59, 0
1, 131813, Note_on_c, 0, 79, 77
1, 131813, Note_on_c, 0, 47, 63
1, 131825, Note_on_c, 0, 78, 0
1, 131883, Note_on_c, 0, 80, 79
1, 131883, Note_on_c, 0, 52, 58
1, 131895, Note_on_c, 0, 47, 0
1, 131895, Note_on_c, 0, 79, 0
1, 131953, Note_on_c, 0, 81, 81
1, 131953, Note_on_c, 0, 55, 58
1, 131965, Note_on_c, 0, 80, 0
1, 131965, Note_on_c, 0, 52, 0
1, 132027, Note_on_c, 0, 82, 83
1, 132027, Note_on_c, 0, 59, 59
1, 132039, Note_on_c, 0, 81, 0
1, 132039, Note_on_c, 0, 55, 0
1, 132100, Note_on_c, 0, 59, 0
1, 132100, Note_on_c, 0, 83, 89
1, 132100, Note_on_c, 0, 47, 65
1, 132107, Control_c, 0, 64, 0
1, 132112, Note_on_c, 0, 82, 0
1, 132137, Control_c, 0, 64, 127
1, 132170, Note_on_c, 0, 47, 0
1, 132170, Note_on_c, 0, 83, 0
1, 132170, Note_on_c, 0, 78, 81
1, 132173, Note_on_c, 0, 51, 59
1, 132240, Note_on_c, 0, 51, 0
1, 132240, Note_on_c, 0, 78, 0
1, 132240, Note_on_c, 0, 75, 82
1, 132243, Note_on_c, 0, 53, 59
1, 132310, Note_on_c, 0, 53, 0
1, 132310, Note_on_c, 0, 75, 0
1, 132310, Note_on_c, 0, 71, 82
1, 132313, Note_on_c, 0, 59, 59
1, 132380, Note_on_c, 0, 59, 0
1, 132380, Note_on_c, 0, 71, 0
1, 132380, Note_on_c, 0, 70, 96
1, 132383, Note_on_c, 0, 58, 71
1, 132383, Control_c, 0, 64, 0
1, 132417, Control_c, 0, 64, 127
1, 132450, Note_on_c, 0, 58, 0
1, 132450, Note_on_c, 0, 70, 0
1, 132450, Note_on_c, 0, 71, 84
1, 132453, Note_on_c, 0, 59, 62
1, 132520, Note_on_c, 0, 59, 0
1, 132520, Note_on_c, 0, 71, 0
1, 132520, Note_on_c, 0, 76, 84
1, 132523, Note_on_c, 0, 55, 61
1, 132590, Note_on_c, 0, 55, 0
1, 132590, Note_on_c, 0, 76, 0
1, 132590, Note_on_c, 0, 79, 84
1, 132593, Note_on_c, 0, 52, 62
1, 132660, Note_on_c, 0, 52, 0
1, 132660, Note_on_c, 0, 79, 0
1, 132660, Note_on_c, 0, 83, 95
1, 132663, Note_on_c, 0, 47, 73
1, 132663, Control_c, 0, 64, 0
1, 132697, Control_c, 0, 64, 127
1, 132730, Note_on_c, 0, 47, 0
1, 132730, Note_on_c, 0, 83, 0
1, 132730, Note_on_c, 0, 78, 86
1, 132733, Note_on_c, 0, 51, 65
1, 132800, Note_on_c, 0, 51, 0
1, 132800, Note_on_c, 0, 78, 0
1, 132800, Note_on_c, 0, 75, 89
1, 132803, Note_on_c, 0, 54, 66
1, 132870, Note_on_c, 0, 54, 0
1, 132870, Note_on_c, 0, 75, 0
1, 132870, Note_on_c, 0, 71, 89
1, 132873, Note_on_c, 0, 59, 66
1, 132940, Note_on_c, 0, 59, 0
1, 132940, Note_on_c, 0, 71, 0
1, 132940, Note_on_c, 0, 70, 101
1, 132943, Note_on_c, 0, 58, 81
1, 132943, Control_c, 0, 64, 0
1, 132990, Control_c, 0, 64, 127
1, 133010, Note_on_c, 0, 58, 0
1, 133010, Note_on_c, 0, 70, 0
1, 133010, Note_on_c, 0, 71, 92
1, 133013, Note_on_c, 0, 59, 72
1, 133080, Note_on_c, 0, 59, 0
1, 133080, Note_on_c, 0, 71, 0
1, 133080, Note_on_c, 0, 76, 92
1, 133083, Note_on_c, 0, 55, 72
1, 133150, Note_on_c, 0, 55, 0
1, 133150, Note_on_c, 0, 76, 0
1, 133150, Note_on_c, 0, 79, 93
1, 133153, Note_on_c, 0, 52, 73
1, 133220, Note_on_c, 0, 52, 0
1, 133220, Note_on_c, 0, 79, 0
1, 133220, Note_on_c, 0, 83, 112
1, 133223, Note_on_c, 0, 47, 84
1, 133223, Control_c, 0, 64, 0
1, 133270, Control_c, 0, 64, 127
1, 133290, Note_on_c, 0, 47, 0
1, 133290, Note_on_c, 0, 83, 0
1, 133290, Note_on_c, 0, 78, 103
1, 133293, Note_on_c, 0, 51, 73
1, 133360, Note_on_c, 0, 51, 0
1, 133360, Note_on_c, 0, 78, 0
1, 133360, Note_on_c, 0, 75, 103
1, 133363, Note_on_c, 0, 54, 73
1, 133430, Note_on_c, 0, 54, 0
1, 133430, Note_on_c, 0, 75, 0
1, 133430, Note_on_c, 0, 71, 103
1, 133433, Note_on_c, 0, 59, 73
1, 133500, Note_on_c, 0, 59, 0
1, 133500, Note_on_c, 0, 71, 0
1, 133500, Note_on_c, 0, 83, 112
1, 133503, Note_on_c, 0, 47, 84
1, 133503, Control_c, 0, 64, 0
1, 133527, Control_c, 0, 64, 127
1, 133570, Note_on_c, 0, 47, 0
1, 133570, Note_on_c, 0, 83, 0
1, 133570, Note_on_c, 0, 79, 103
1, 133573, Note_on_c, 0, 52, 73
1, 133640, Note_on_c, 0, 52, 0
1, 133640, Note_on_c, 0, 79, 0
1, 133640, Note_on_c, 0, 76, 103
1, 133643, Note_on_c, 0, 55, 73
1, 133710, Note_on_c, 0, 55, 0
1, 133710, Note_on_c, 0, 76, 0
1, 133710, Note_on_c, 0, 71, 103
1, 133713, Note_on_c, 0, 59, 73
1, 133780, Note_on_c, 0, 59, 0
1, 133780, Note_on_c, 0, 71, 0
1, 133780, Note_on_c, 0, 83, 112
1, 133783, Note_on_c, 0, 47, 84
1, 133783, Control_c, 0, 64, 0
1, 133810, Control_c, 0, 64, 127
1, 133850, Note_on_c, 0, 47, 0
1, 133850, Note_on_c, 0, 83, 0
1, 133850, Note_on_c, 0, 78, 103
1, 133853, Note_on_c, 0, 51, 73
1, 133920, Note_on_c, 0, 51, 0
1, 133920, Note_on_c, 0, 78, 0
1, 133920, Note_on_c, 0, 75, 102
1, 133923, Note_on_c, 0, 54, 73
1, 133990, Note_on_c, 0, 54, 0
1, 133990, Note_on_c, 0, 75, 0
1, 133990, Note_on_c, 0, 71, 102
1, 133993, Note_on_c, 0, 59, 73
1, 134060, Note_on_c, 0, 59, 0
1, 134060, Note_on_c, 0, 71, 0
1, 134060, Note_on_c, 0, 83, 112
1, 134063, Note_on_c, 0, 47, 84
1, 134063, Control_c, 0, 64, 0
1, 134083, Control_c, 0, 64, 127
1, 134130, Note_on_c, 0, 47, 0
1, 134130, Note_on_c, 0, 83, 0
1, 134130, Note_on_c, 0, 79, 102
1, 134133, Note_on_c, 0, 52, 73
1, 134200, Note_on_c, 0, 52, 0
1, 134200, Note_on_c, 0, 79, 0
1, 134200, Note_on_c, 0, 76, 102
1, 134203, Note_on_c, 0, 55, 73
1, 134270, Note_on_c, 0, 55, 0
1, 134270, Note_on_c, 0, 76, 0
1, 134270, Note_on_c, 0, 71, 103
1, 134273, Note_on_c, 0, 59, 73
1, 134340, Note_on_c, 0, 59, 0
1, 134340, Note_on_c, 0, 71, 0
1, 134340, Note_on_c, 0, 83, 112
1, 134343, Note_on_c, 0, 47, 75
1, 134343, Note_on_c, 0, 51, 75
1, 134343, Note_on_c, 0, 54, 75
1, 134346, Note_on_c, 0, 59, 84
1, 134346, Control_c, 0, 64, 0
1, 134387, Control_c, 0, 64, 127
1, 134410, Note_on_c, 0, 83, 0
1, 134410, Note_on_c, 0, 78, 103
1, 134480, Note_on_c, 0, 78, 0
1, 134480, Note_on_c, 0, 75, 103
1, 134551, Note_on_c, 0, 75, 0
1, 134551, Note_on_c, 0, 71, 103
1, 134621, Note_on_c, 0, 71, 0
1, 134621, Note_on_c, 0, 59, 0
1, 134621, Note_on_c, 0, 78, 112
1, 134624, Note_on_c, 0, 47, 0
1, 134624, Note_on_c, 0, 54, 0
1, 134624, Note_on_c, 0, 51, 0
1, 134691, Note_on_c, 0, 78, 0
1, 134691, Note_on_c, 0, 75, 103
1, 134761, Note_on_c, 0, 75, 0
1, 134761, Note_on_c, 0, 71, 103
1, 134832, Note_on_c, 0, 71, 0
1, 134832, Note_on_c, 0, 66, 103
1, 134902, Note_on_c, 0, 66, 0
1, 134902, Note_on_c, 0, 75, 112
1, 134973, Note_on_c, 0, 75, 0
1, 134973, Note_on_c, 0, 71, 103
1, 135043, Note_on_c, 0, 71, 0
1, 135043, Note_on_c, 0, 66, 102
1, 135114, Note_on_c, 0, 66, 0
1, 135114, Note_on_c, 0, 63, 102
1, 135184, Note_on_c, 0, 63, 0
1, 135184, Note_on_c, 0, 71, 112
1, 135255, Note_on_c, 0, 71, 0
1, 135255, Note_on_c, 0, 66, 102
1, 135326, Note_on_c, 0, 66, 0
1, 135326, Note_on_c, 0, 63, 102
1, 135396, Note_on_c, 0, 63, 0
1, 135396, Note_on_c, 0, 59, 103
1, 135467, Note_on_c, 0, 59, 0
1, 135467, Note_on_c, 0, 66, 112
1, 135470, Control_c, 0, 64, 0
1, 135514, Control_c, 0, 64, 127
1, 135537, Note_on_c, 0, 66, 0
1, 135537, Note_on_c, 0, 63, 102
1, 135608, Note_on_c, 0, 63, 0
1, 135608, Note_on_c, 0, 59, 101
1, 135678, Note_on_c, 0, 59, 0
1, 135678, Note_on_c, 0, 54, 101
1, 135749, Note_on_c, 0, 54, 0
1, 135749, Note_on_c, 0, 63, 110
1, 135819, Note_on_c, 0, 63, 0
1, 135819, Note_on_c, 0, 59, 100
1, 135890, Note_on_c, 0, 59, 0
1, 135890, Note_on_c, 0, 54, 100
1, 135960, Note_on_c, 0, 54, 0
1, 135960, Note_on_c, 0, 51, 99
1, 136031, Note_on_c, 0, 51, 0
1, 136031, Note_on_c, 0, 59, 108
1, 136102, Note_on_c, 0, 59, 0
1, 136102, Note_on_c, 0, 54, 99
1, 136173, Note_on_c, 0, 54, 0
1, 136173, Note_on_c, 0, 51, 98
1, 136244, Note_on_c, 0, 51, 0
1, 136244, Note_on_c, 0, 47, 98
1, 136316, Note_on_c, 0, 47, 0
1, 136316, Note_on_c, 0, 35, 106
1, 136387, Note_on_c, 0, 35, 0
1, 136387, Note_on_c, 0, 39, 97
1, 136458, Note_on_c, 0, 39, 0
1, 136458, Note_on_c, 0, 42, 97
1, 136533, Note_on_c, 0, 42, 0
1, 136533, Note_on_c, 0, 47, 96
1, 136608, Note_on_c, 0, 47, 0
1, 136608, Note_on_c, 0, 35, 98
1, 136608, Control_c, 0, 64, 0
1, 136678, Note_on_c, 0, 35, 0
1, 136747, Note_on_c, 0, 47, 89
1, 136819, Note_on_c, 0, 47, 0
1, 136890, Note_on_c, 0, 37, 94
1, 136960, Note_on_c, 0, 37, 0
1, 137031, Note_on_c, 0, 49, 87
1, 137102, Note_on_c, 0, 49, 0
1, 137174, Note_on_c, 0, 71, 96
1, 137174, Note_on_c, 0, 39, 92
1, 137243, Note_on_c, 0, 39, 0
1, 137243, Note_on_c, 0, 71, 0
1, 137313, Note_on_c, 0, 59, 90
1, 137313, Note_on_c, 0, 51, 86
1, 137384, Note_on_c, 0, 51, 0
1, 137384, Note_on_c, 0, 59, 0
1, 137455, Note_on_c, 0, 73, 95
1, 137527, Note_on_c, 0, 73, 0
1, 137598, Note_on_c, 0, 61, 86
1, 137673, Note_on_c, 0, 61, 0
1, 137748, Note_on_c, 0, 75, 92
1, 137748, Note_on_c, 0, 39, 90
1, 137819, Note_on_c, 0, 39, 0
1, 137819, Note_on_c, 0, 75, 0
1, 137890, Note_on_c, 0, 63, 85
1, 137890, Note_on_c, 0, 51, 82
1, 137962, Note_on_c, 0, 51, 0
1, 137962, Note_on_c, 0, 63, 0
1, 138034, Note_on_c, 0, 40, 86
1, 138104, Note_on_c, 0, 40, 0
1, 138176, Note_on_c, 0, 52, 80
1, 138248, Note_on_c, 0, 52, 0
1, 138320, Note_on_c, 0, 75, 88
1, 138320, Note_on_c, 0, 42, 86
1, 138391, Note_on_c, 0, 42, 0
1, 138391, Note_on_c, 0, 75, 0
1, 138462, Note_on_c, 0, 63, 74
1, 138462, Note_on_c, 0, 54, 75
1, 138535, Note_on_c, 0, 54, 0
1, 138535, Note_on_c, 0, 63, 0
1, 138608, Note_on_c, 0, 76, 80
1, 138681, Note_on_c, 0, 76, 0
1, 138753, Note_on_c, 0, 64, 71
1, 138827, Note_on_c, 0, 64, 0
1, 138900, Note_on_c, 0, 78, 73
1, 138972, Note_on_c, 0, 78, 0
1, 139045, Note_on_c, 0, 66, 70
1, 139117, Note_on_c, 0, 66, 0
1, 139190, Note_on_c, 0, 80, 73
1, 139263, Note_on_c, 0, 80, 0
1, 139336, Note_on_c, 0, 68, 70
1, 139409, Note_on_c, 0, 68, 0
1, 139482, Note_on_c, 0, 81, 73
1, 139482, Note_on_c, 0, 42, 62
1, 139556, Note_on_c, 0, 42, 0
1, 139556, Note_on_c, 0, 81, 0
1, 139629, Note_on_c, 0, 69, 69
1, 139629, Note_on_c, 0, 54, 57
1, 139702, Note_on_c, 0, 54, 0
1, 139702, Note_on_c, 0, 69, 0
1, 139775, Note_on_c, 0, 81, 73
1, 139775, Note_on_c, 0, 44, 62
1, 139848, Note_on_c, 0, 44, 0
1, 139848, Note_on_c, 0, 81, 0
1, 139922, Note_on_c, 0, 71, 67
1, 139922, Note_on_c, 0, 56, 57
1, 139995, Note_on_c, 0, 56, 0
1, 139995, Note_on_c, 0, 71, 0
1, 140068, Note_on_c, 0, 81, 72
1, 140068, Note_on_c, 0, 45, 61
1, 140142, Note_on_c, 0, 45, 0
1, 140142, Note_on_c, 0, 81, 0
1, 140216, Note_on_c, 0, 73, 67
1, 140216, Note_on_c, 0, 57, 58
1, 140290, Note_on_c, 0, 57, 0
1, 140290, Note_on_c, 0, 73, 0
1, 140364, Note_on_c, 0, 81, 72
1, 140364, Note_on_c, 0, 47, 60
1, 140438, Note_on_c, 0, 47, 0
1, 140438, Note_on_c, 0, 81, 0
1, 140513, Note_on_c, 0, 75, 67
1, 140513, Note_on_c, 0, 59, 57
1, 140588, Note_on_c, 0, 59, 0
1, 140588, Note_on_c, 0, 75, 0
1, 140662, Note_on_c, 0, 81, 72
1, 140662, Note_on_c, 0, 49, 59
1, 140737, Note_on_c, 0, 49, 0
1, 140737, Note_on_c, 0, 81, 0
1, 140812, Note_on_c, 0, 76, 68
1, 140812, Note_on_c, 0, 61, 58
1, 140888, Note_on_c, 0, 61, 0
1, 140888, Note_on_c, 0, 76, 0
1, 140966, Note_on_c, 0, 81, 71
1, 140966, Note_on_c, 0, 51, 61
1, 141047, Note_on_c, 0, 51, 0
1, 141047, Note_on_c, 0, 81, 0
1, 141133, Note_on_c, 0, 78, 67
1, 141133, Note_on_c, 0, 63, 58
1, 141225, Note_on_c, 0, 63, 0
1, 141225, Note_on_c, 0, 78, 0
1, 141325, Note_on_c, 0, 71, 63
1, 141325, Note_on_c, 0, 76, 63
1, 141325, Note_on_c, 0, 80, 76
1, 141328, Note_on_c, 0, 68, 60
1, 141328, Note_on_c, 0, 64, 54
1, 141996, Note_on_c, 0, 80, 0
1, 141996, Note_on_c, 0, 71, 0
1, 141996, Note_on_c, 0, 76, 0
1, 141999, Note_on_c, 0, 69, 61
1, 141999, Note_on_c, 0, 75, 61
1, 141999, Note_on_c, 0, 78, 73
1, 142002, Note_on_c, 0, 68, 0
1, 142002, Note_on_c, 0, 64, 0
1, 142002, Note_on_c, 0, 66, 56
1, 142005, Note_on_c, 0, 63, 50
1, 142005, Note_on_c, 0, 59, 50
1, 142324, Note_on_c, 0, 75, 0
1, 142324, Note_on_c, 0, 78, 0
1, 142324, Note_on_c, 0, 69, 0
1, 142327, Note_on_c, 0, 68, 61
1, 142327, Note_on_c, 0, 73, 61
1, 142327, Note_on_c, 0, 76, 73
1, 142330, Note_on_c, 0, 66, 0
1, 142330, Note_on_c, 0, 59, 0
1, 142330, Note_on_c, 0, 63, 0
1, 142333, Note_on_c, 0, 64, 56
1, 142333, Note_on_c, 0, 61, 50
1, 142665, Note_on_c, 0, 68, 0
1, 142665, Note_on_c, 0, 76, 0
1, 142665, Note_on_c, 0, 73, 0
1, 142668, Note_on_c, 0, 66, 63
1, 142668, Note_on_c, 0, 72, 63
1, 142668, Note_on_c, 0, 75, 76
1, 142671, Note_on_c, 0, 64, 0
1, 142671, Note_on_c, 0, 61, 0
1, 142671, Note_on_c, 0, 63, 60
1, 142674, Note_on_c, 0, 60, 54
1, 142674, Note_on_c, 0, 56, 54
1, 143326, Note_on_c, 0, 72, 0
1, 143326, Note_on_c, 0, 75, 0
1, 143326, Note_on_c, 0, 66, 0
1, 143329, Note_on_c, 0, 56, 0
1, 143329, Note_on_c, 0, 64, 61
1, 143329, Note_on_c, 0, 73, 73
1, 143332, Note_on_c, 0, 60, 0
1, 143332, Note_on_c, 0, 63, 0
1, 143332, Note_on_c, 0, 61, 55
1, 143335, Note_on_c, 0, 57, 49
1, 144003, Note_on_c, 0, 64, 0
1, 144003, Note_on_c, 0, 73, 0
1, 144003, Note_on_c, 0, 69, 70
1, 144006, Note_on_c, 0, 57, 0
1, 144006, Note_on_c, 0, 71, 70
1, 144006, Note_on_c, 0, 75, 84
1, 144009, Note_on_c, 0, 61, 0
1, 144009, Note_on_c, 0, 54, 58
1, 144009, Note_on_c, 0, 57, 66
1, 144012, Note_on_c, 0, 59, 58
1, 144012, Note_on_c, 0, 63, 66
1, 144676, Note_on_c, 0, 69, 0
1, 144676, Note_on_c, 0, 75, 0
1, 144676, Note_on_c, 0, 71, 0
1, 144679, Note_on_c, 0, 63, 0
1, 144679, Note_on_c, 0, 71, 71
1, 144679, Note_on_c, 0, 76, 87
1, 144682, Note_on_c, 0, 54, 0
1, 144682, Note_on_c, 0, 57, 0
1, 144682, Note_on_c, 0, 59, 0
1, 144685, Note_on_c, 0, 56, 61
1, 144685, Note_on_c, 0, 59, 61
1, 144685, Note_on_c, 0, 64, 70
1, 145021, Note_on_c, 0, 71, 0
1, 145021, Note_on_c, 0, 76, 0
1, 145021, Note_on_c, 0, 73, 70
1, 145024, Note_on_c, 0, 64, 0
1, 145024, Note_on_c, 0, 76, 76
1, 145024, Note_on_c, 0, 78, 93
1, 145027, Note_on_c, 0, 59, 0
1, 145027, Note_on_c, 0, 56, 0
1, 145027, Note_on_c, 0, 66, 76
1, 145030, Note_on_c, 0, 57, 63
1, 145030, Note_on_c, 0, 61, 64
1, 145406, Note_on_c, 0, 73, 0
1, 145406, Note_on_c, 0, 78, 0
1, 145406, Note_on_c, 0, 76, 0
1, 145409, Note_on_c, 0, 71, 80
1, 145409, Note_on_c, 0, 76, 80
1, 145409, Note_on_c, 0, 80, 98
1, 145412, Note_on_c, 0, 66, 0
1, 145412, Note_on_c, 0, 61, 0
1, 145412, Note_on_c, 0, 57, 0
1, 145415, Note_on_c, 0, 59, 70
1, 145415, Note_on_c, 0, 64, 70
1, 145415, Note_on_c, 0, 68, 80
1, 146103, Note_on_c, 0, 80, 0
1, 146103, Note_on_c, 0, 76, 0
1, 146103, Note_on_c, 0, 75, 53
1, 146106, Note_on_c, 0, 64, 0
1, 146106, Note_on_c, 0, 68, 0
1, 146106, Note_on_c, 0, 78, 70
1, 146109, Note_on_c, 0, 63, 48
1, 146109, Note_on_c, 0, 66, 53
1, 146467, Note_on_c, 0, 71, 0
1, 146467, Note_on_c, 0, 69, 69
1, 146814, Note_on_c, 0, 69, 0
1, 146814, Note_on_c, 0, 66, 0
1, 146814, Note_on_c, 0, 78, 0
1, 146814, Note_on_c, 0, 59, 0
1, 146814, Note_on_c, 0, 75, 0
1, 146814, Note_on_c, 0, 63, 0
1, 146814, Note_on_c, 0, 59, 58
1, 146814, Note_on_c, 0, 64, 58
1, 146814, Note_on_c, 0, 68, 66
1, 146814, Note_on_c, 0, 56, 56
1, 146814, Note_on_c, 0, 52, 50
1, 147475, Note_on_c, 0, 68, 0
1, 147475, Note_on_c, 0, 59, 0
1, 147475, Note_on_c, 0, 64, 0
1, 147478, Note_on_c, 0, 57, 57
1, 147478, Note_on_c, 0, 63, 57
1, 147478, Note_on_c, 0, 66, 64
1, 147481, Note_on_c, 0, 56, 0
1, 147481, Note_on_c, 0, 52, 0
1, 147481, Note_on_c, 0, 54, 52
1, 147484, Note_on_c, 0, 51, 47
1, 147484, Note_on_c, 0, 47, 47
1, 147797, Note_on_c, 0, 63, 0
1, 147797, Note_on_c, 0, 66, 0
1, 147797, Note_on_c, 0, 57, 0
1, 147800, Note_on_c, 0, 56, 57
1, 147800, Note_on_c, 0, 61, 57
1, 147800, Note_on_c, 0, 64, 64
1, 147803, Note_on_c, 0, 54, 0
1, 147803, Note_on_c, 0, 47, 0
1, 147803, Note_on_c, 0, 51, 0
1, 147806, Note_on_c, 0, 52, 52
1, 147806, Note_on_c, 0, 49, 47
1, 148138, Note_on_c, 0, 56, 0
1, 148138, Note_on_c, 0, 64, 0
1, 148138, Note_on_c, 0, 61, 0
1, 148141, Note_on_c, 0, 54, 58
1, 148141, Note_on_c, 0, 60, 58
1, 148141, Note_on_c, 0, 63, 66
1, 148144, Note_on_c, 0, 52, 0
1, 148144, Note_on_c, 0, 49, 0
1, 148144, Note_on_c, 0, 51, 56
1, 148147, Note_on_c, 0, 48, 50
1, 148147, Note_on_c, 0, 44, 50
1, 148799, Note_on_c, 0, 60, 0
1, 148799, Note_on_c, 0, 63, 0
1, 148799, Note_on_c, 0, 54, 0
1, 148802, Note_on_c, 0, 57, 57
1, 148802, Note_on_c, 0, 52, 57
1, 148802, Note_on_c, 0, 61, 64
1, 148805, Note_on_c, 0, 51, 0
1, 148805, Note_on_c, 0, 44, 0
1, 148805, Note_on_c, 0, 48, 0
1, 148808, Note_on_c, 0, 49, 51
1, 148808, Note_on_c, 0, 45, 46
1, 149476, Note_on_c, 0, 57, 0
1, 149476, Note_on_c, 0, 61, 0
1, 149476, Note_on_c, 0, 52, 0
1, 149479, Note_on_c, 0, 52, 65
1, 149479, Note_on_c, 0, 56, 65
1, 149479, Note_on_c, 0, 59, 73
1, 149482, Note_on_c, 0, 49, 0
1, 149482, Note_on_c, 0, 45, 0
1, 149482, Note_on_c, 0, 35, 54
1, 149485, Note_on_c, 0, 47, 61
1, 149809, Note_on_c, 0, 56, 0
1, 149809, Note_on_c, 0, 52, 0
1, 149809, Note_on_c, 0, 54, 70
1, 149812, Note_on_c, 0, 57, 70
1, 150143, Note_on_c, 0, 59, 0
1, 150143, Note_on_c, 0, 61, 82
1, 150468, Note_on_c, 0, 61, 0
1, 150468, Note_on_c, 0, 63, 89
1, 150813, Note_on_c, 0, 63, 0
1, 150813, Note_on_c, 0, 54, 0
1, 150813, Note_on_c, 0, 57, 0
1, 150816, Note_on_c, 0, 47, 0
1, 150816, Note_on_c, 0, 56, 63
1, 150816, Note_on_c, 0, 64, 70
1, 150819, Note_on_c, 0, 35, 0
1, 150819, Note_on_c, 0, 40, 63
1, 150819, Note_on_c, 0, 52, 66
1, 150897, Note_on_c, 0, 64, 0
1, 150925, Note_on_c, 0, 56, 0
1, 150925, Note_on_c, 0, 66, 69
1, 151008, Note_on_c, 0, 66, 0
1, 151036, Note_on_c, 0, 68, 70
1, 151119, Note_on_c, 0, 68, 0
1, 151147, Note_on_c, 0, 40, 0
1, 151147, Note_on_c, 0, 52, 0
1, 151147, Note_on_c, 0, 69, 67
1, 151230, Note_on_c, 0, 69, 0
1, 151258, Note_on_c, 0, 71, 68
1, 151341, Note_on_c, 0, 71, 0
1, 151369, Note_on_c, 0, 73, 69
1, 151452, Note_on_c, 0, 73, 0
1, 151480, Note_on_c, 0, 74, 71
1, 151563, Note_on_c, 0, 74, 0
1, 151591, Note_on_c, 0, 75, 72
1, 151673, Note_on_c, 0, 75, 0
1, 151701, Note_on_c, 0, 76, 73
1, 151784, Note_on_c, 0, 76, 0
1, 151812, Note_on_c, 0, 77, 74
1, 151895, Note_on_c, 0, 77, 0
1, 151922, Note_on_c, 0, 78, 72
1, 152005, Note_on_c, 0, 78, 0
1, 152033, Note_on_c, 0, 79, 73
1, 152116, Note_on_c, 0, 79, 0
1, 152143, Note_on_c, 0, 71, 67
1, 152143, Note_on_c, 0, 80, 77
1, 152143, Note_on_c, 0, 68, 64
1, 152146, Note_on_c, 0, 64, 57
1, 152252, Note_on_c, 0, 80, 0
1, 152252, Note_on_c, 0, 79, 74
1, 152360, Note_on_c, 0, 79, 0
1, 152360, Note_on_c, 0, 80, 74
1, 152468, Note_on_c, 0, 80, 0
1, 152468, Note_on_c, 0, 81, 74
1, 152577, Note_on_c, 0, 81, 0
1, 152577, Note_on_c, 0, 79, 74
1, 152685, Note_on_c, 0, 79, 0
1, 152685, Note_on_c, 0, 80, 74
1, 152793, Note_on_c, 0, 80, 0
1, 152793, Note_on_c, 0, 71, 0
1, 152793, Note_on_c, 0, 69, 81
1, 152796, Note_on_c, 0, 68, 0
1, 152796, Note_on_c, 0, 64, 0
1, 152796, Note_on_c, 0, 66, 60
1, 152799, Note_on_c, 0, 63, 53
1, 152799, Note_on_c, 0, 59, 53
1, 152899, Note_on_c, 0, 80, 75
1, 153005, Note_on_c, 0, 80, 0
1, 153005, Note_on_c, 0, 78, 75
1, 153111, Note_on_c, 0, 78, 0
1, 153111, Note_on_c, 0, 69, 0
1, 153111, Note_on_c, 0, 68, 81
1, 153114, Note_on_c, 0, 66, 0
1, 153114, Note_on_c, 0, 59, 0
1, 153114, Note_on_c, 0, 63, 0
1, 153117, Note_on_c, 0, 64, 60
1, 153117, Note_on_c, 0, 61, 53
1, 153223, Note_on_c, 0, 78, 74
1, 153336, Note_on_c, 0, 78, 0
1, 153336, Note_on_c, 0, 76, 74
1, 153448, Note_on_c, 0, 76, 0
1, 153448, Note_on_c, 0, 68, 0
1, 153448, Note_on_c, 0, 66, 81
1, 153451, Note_on_c, 0, 61, 0
1, 153451, Note_on_c, 0, 64, 0
1, 153451, Note_on_c, 0, 63, 64
1, 153454, Note_on_c, 0, 60, 57
1, 153454, Note_on_c, 0, 56, 57
1, 153556, Note_on_c, 0, 72, 75
1, 153665, Note_on_c, 0, 72, 0
1, 153665, Note_on_c, 0, 75, 75
1, 153774, Note_on_c, 0, 75, 0
1, 153774, Note_on_c, 0, 76, 75
1, 153883, Note_on_c, 0, 76, 0
1, 153883, Note_on_c, 0, 72, 75
1, 153992, Note_on_c, 0, 72, 0
1, 153992, Note_on_c, 0, 75, 75
1, 154100, Note_on_c, 0, 75, 0
1, 154100, Note_on_c, 0, 66, 0
1, 154100, Note_on_c, 0, 64, 81
1, 154103, Note_on_c, 0, 63, 0
1, 154103, Note_on_c, 0, 56, 0
1, 154103, Note_on_c, 0, 60, 0
1, 154106, Note_on_c, 0, 61, 59
1, 154106, Note_on_c, 0, 57, 52
1, 154209, Note_on_c, 0, 69, 75
1, 154318, Note_on_c, 0, 69, 0
1, 154318, Note_on_c, 0, 73, 75
1, 154427, Note_on_c, 0, 73, 0
1, 154427, Note_on_c, 0, 75, 75
1, 154540, Note_on_c, 0, 75, 0
1, 154540, Note_on_c, 0, 69, 75
1, 154654, Note_on_c, 0, 69, 0
1, 154654, Note_on_c, 0, 73, 75
1, 154768, Note_on_c, 0, 73, 0
1, 154768, Note_on_c, 0, 64, 0
1, 154768, Note_on_c, 0, 69, 83
1, 154771, Note_on_c, 0, 57, 0
1, 154771, Note_on_c, 0, 61, 0
1, 154771, Note_on_c, 0, 54, 60
1, 154774, Note_on_c, 0, 57, 68
1, 154774, Note_on_c, 0, 59, 60
1, 154774, Note_on_c, 0, 63, 68
1, 154878, Note_on_c, 0, 74, 83
1, 154987, Note_on_c, 0, 74, 0
1, 154987, Note_on_c, 0, 75, 78
1, 155097, Note_on_c, 0, 75, 0
1, 155097, Note_on_c, 0, 76, 78
1, 155207, Note_on_c, 0, 76, 0
1, 155207, Note_on_c, 0, 74, 80
1, 155316, Note_on_c, 0, 74, 0
1, 155316, Note_on_c, 0, 75, 80
1, 155426, Note_on_c, 0, 75, 0
1, 155426, Note_on_c, 0, 69, 0
1, 155426, Note_on_c, 0, 71, 92
1, 155429, Note_on_c, 0, 54, 0
1, 155429, Note_on_c, 0, 63, 0
1, 155429, Note_on_c, 0, 57, 0
1, 155432, Note_on_c, 0, 59, 0
1, 155432, Note_on_c, 0, 56, 66
1, 155432, Note_on_c, 0, 59, 66
1, 155435, Note_on_c, 0, 64, 74
1, 155533, Note_on_c, 0, 78, 84
1, 155640, Note_on_c, 0, 78, 0
1, 155640, Note_on_c, 0, 76, 85
1, 155747, Note_on_c, 0, 76, 0
1, 155747, Note_on_c, 0, 71, 0
1, 155747, Note_on_c, 0, 73, 95
1, 155750, Note_on_c, 0, 56, 0
1, 155750, Note_on_c, 0, 64, 0
1, 155750, Note_on_c, 0, 59, 0
1, 155753, Note_on_c, 0, 66, 80
1, 155753, Note_on_c, 0, 57, 70
1, 155753, Note_on_c, 0, 61, 70
1, 155861, Note_on_c, 0, 80, 86
1, 155974, Note_on_c, 0, 80, 0
1, 155974, Note_on_c, 0, 78, 86
1, 156088, Note_on_c, 0, 78, 0
1, 156088, Note_on_c, 0, 73, 0
1, 156088, Note_on_c, 0, 80, 100
1, 156091, Note_on_c, 0, 61, 0
1, 156091, Note_on_c, 0, 57, 0
1, 156091, Note_on_c, 0, 76, 100
1, 156094, Note_on_c, 0, 66, 0
1, 156094, Note_on_c, 0, 59, 74
1, 156094, Note_on_c, 0, 64, 74
1, 156097, Note_on_c, 0, 68, 86
1, 156196, Note_on_c, 0, 80, 0
1, 156196, Note_on_c, 0, 79, 93
1, 156305, Note_on_c, 0, 79, 0
1, 156305, Note_on_c, 0, 80, 93
1, 156414, Note_on_c, 0, 80, 0
1, 156414, Note_on_c, 0, 83, 89
1, 156523, Note_on_c, 0, 83, 0
1, 156523, Note_on_c, 0, 81, 93
1, 156631, Note_on_c, 0, 81, 0
1, 156631, Note_on_c, 0, 80, 90
1, 156740, Note_on_c, 0, 80, 0
1, 156740, Note_on_c, 0, 76, 0
1, 156740, Note_on_c, 0, 75, 88
1, 156743, Note_on_c, 0, 64, 0
1, 156743, Note_on_c, 0, 68, 0
1, 156743, Note_on_c, 0, 78, 88
1, 156746, Note_on_c, 0, 63, 66
1, 156746, Note_on_c, 0, 66, 74
1, 156850, Note_on_c, 0, 78, 0
1, 156850, Note_on_c, 0, 75, 0
1, 156850, Note_on_c, 0, 73, 85
1, 156853, Note_on_c, 0, 76, 85
1, 156960, Note_on_c, 0, 76, 0
1, 156960, Note_on_c, 0, 73, 0
1, 156960, Note_on_c, 0, 75, 81
1, 156963, Note_on_c, 0, 71, 81
1, 157070, Note_on_c, 0, 71, 0
1, 157070, Note_on_c, 0, 75, 0
1, 157070, Note_on_c, 0, 69, 81
1, 157073, Note_on_c, 0, 66, 0
1, 157073, Note_on_c, 0, 63, 0
1, 157073, Note_on_c, 0, 73, 81
1, 157076, Note_on_c, 0, 47, 65
1, 157185, Note_on_c, 0, 73, 0
1, 157185, Note_on_c, 0, 69, 0
1, 157185, Note_on_c, 0, 68, 77
1, 157188, Note_on_c, 0, 47, 0
1, 157188, Note_on_c, 0, 71, 77
1, 157188, Note_on_c, 0, 49, 64
1, 157300, Note_on_c, 0, 71, 0
1, 157300, Note_on_c, 0, 68, 0
1, 157300, Note_on_c, 0, 66, 74
1, 157303, Note_on_c, 0, 49, 0
1, 157303, Note_on_c, 0, 69, 74
1, 157303, Note_on_c, 0, 51, 62
1, 157413, Note_on_c, 0, 51, 0
1, 157413, Note_on_c, 0, 59, 0
1, 157413, Note_on_c, 0, 66, 0
1, 157413, Note_on_c, 0, 69, 0
1, 157413, Note_on_c, 0, 59, 78
1, 157413, Note_on_c, 0, 68, 78
1, 157413, Note_on_c, 0, 56, 66
1, 157413, Note_on_c, 0, 52, 58
1, 157524, Note_on_c, 0, 68, 0
1, 157524, Note_on_c, 0, 67, 70
1, 157634, Note_on_c, 0, 67, 0
1, 157634, Note_on_c, 0, 68, 70
1, 157744, Note_on_c, 0, 68, 0
1, 157744, Note_on_c, 0, 69, 70
1, 157854, Note_on_c, 0, 69, 0
1, 157854, Note_on_c, 0, 67, 70
1, 157963, Note_on_c, 0, 67, 0
1, 157963, Note_on_c, 0, 68, 70
1, 158073, Note_on_c, 0, 68, 0
1, 158073, Note_on_c, 0, 59, 0
1, 158073, Note_on_c, 0, 57, 77
1, 158076, Note_on_c, 0, 56, 0
1, 158076, Note_on_c, 0, 52, 0
1, 158076, Note_on_c, 0, 54, 62
1, 158079, Note_on_c, 0, 51, 54
1, 158079, Note_on_c, 0, 47, 54
1, 158180, Note_on_c, 0, 68, 71
1, 158287, Note_on_c, 0, 68, 0
1, 158287, Note_on_c, 0, 66, 71
1, 158394, Note_on_c, 0, 66, 0
1, 158394, Note_on_c, 0, 57, 0
1, 158394, Note_on_c, 0, 56, 77
1, 158397, Note_on_c, 0, 54, 0
1, 158397, Note_on_c, 0, 47, 0
1, 158397, Note_on_c, 0, 51, 0
1, 158400, Note_on_c, 0, 52, 62
1, 158400, Note_on_c, 0, 49, 54
1, 158506, Note_on_c, 0, 66, 70
1, 158618, Note_on_c, 0, 66, 0
1, 158618, Note_on_c, 0, 64, 70
1, 158730, Note_on_c, 0, 64, 0
1, 158730, Note_on_c, 0, 49, 0
1, 158730, Note_on_c, 0, 56, 0
1, 158733, Note_on_c, 0, 52, 0
1, 158733, Note_on_c, 0, 51, 58
1, 158733, Note_on_c, 0, 54, 70
1, 158736, Note_on_c, 0, 48, 58
1, 158736, Note_on_c, 0, 44, 58
1, 158839, Note_on_c, 0, 60, 71
1, 158948, Note_on_c, 0, 60, 0
1, 158948, Note_on_c, 0, 63, 71
1, 159057, Note_on_c, 0, 63, 0
1, 159057, Note_on_c, 0, 64, 74
1, 159165, Note_on_c, 0, 64, 0
1, 159165, Note_on_c, 0, 60, 71
1, 159274, Note_on_c, 0, 60, 0
1, 159274, Note_on_c, 0, 63, 71
1, 159383, Note_on_c, 0, 63, 0
1, 159383, Note_on_c, 0, 51, 0
1, 159383, Note_on_c, 0, 44, 0
1, 159386, Note_on_c, 0, 48, 0
1, 159386, Note_on_c, 0, 54, 0
1, 159386, Note_on_c, 0, 45, 60
1, 159389, Note_on_c, 0, 49, 60
1, 159389, Note_on_c, 0, 52, 53
1, 159492, Note_on_c, 0, 57, 71
1, 159600, Note_on_c, 0, 57, 0
1, 159600, Note_on_c, 0, 61, 71
1, 159709, Note_on_c, 0, 61, 0
1, 159709, Note_on_c, 0, 63, 74
1, 159823, Note_on_c, 0, 63, 0
1, 159823, Note_on_c, 0, 57, 71
1, 159937, Note_on_c, 0, 57, 0
1, 159937, Note_on_c, 0, 61, 71
1, 160051, Note_on_c, 0, 61, 0
1, 160051, Note_on_c, 0, 52, 0
1, 160051, Note_on_c, 0, 52, 81
1, 160054, Note_on_c, 0, 49, 0
1, 160054, Note_on_c, 0, 45, 0
1, 160054, Note_on_c, 0, 35, 67
1, 160057, Note_on_c, 0, 47, 76
1, 160078, Control_c, 0, 64, 127
1, 160160, Note_on_c, 0, 56, 77
1, 160270, Note_on_c, 0, 56, 0
1, 160270, Note_on_c, 0, 59, 78
1, 160386, Note_on_c, 0, 59, 0
1, 160386, Note_on_c, 0, 52, 0
1, 160386, Note_on_c, 0, 54, 87
1, 160391, Control_c, 0, 64, 0
1, 160425, Control_c, 0, 64, 127
1, 160497, Note_on_c, 0, 57, 82
1, 160608, Note_on_c, 0, 57, 0
1, 160608, Note_on_c, 0, 59, 82
1, 160726, Note_on_c, 0, 59, 0
1, 160726, Note_on_c, 0, 54, 0
1, 160726, Note_on_c, 0, 54, 95
1, 160731, Control_c, 0, 64, 0
1, 160766, Control_c, 0, 64, 127
1, 160840, Note_on_c, 0, 57, 88
1, 160952, Note_on_c, 0, 57, 0
1, 160952, Note_on_c, 0, 61, 86
1, 161067, Note_on_c, 0, 61, 0
1, 161067, Note_on_c, 0, 54, 0
1, 161067, Note_on_c, 0, 54, 101
1, 161074, Control_c, 0, 64, 0
1, 161119, Control_c, 0, 64, 127
1, 161180, Note_on_c, 0, 57, 92
1, 161293, Note_on_c, 0, 57, 0
1, 161293, Note_on_c, 0, 63, 91
1, 161408, Note_on_c, 0, 63, 0
1, 161408, Note_on_c, 0, 54, 0
1, 161408, Note_on_c, 0, 56, 98
1, 161411, Note_on_c, 0, 47, 0
1, 161411, Note_on_c, 0, 35, 0
1, 161411, Note_on_c, 0, 64, 103
1, 161414, Note_on_c, 0, 40, 71
1, 161414, Note_on_c, 0, 52, 81
1, 161414, Control_c, 0, 64, 0
1, 161468, Control_c, 0, 64, 127
1, 161516, Note_on_c, 0, 64, 0
1, 161516, Note_on_c, 0, 56, 0
1, 161516, Note_on_c, 0, 59, 96
1, 161625, Note_on_c, 0, 59, 0
1, 161625, Note_on_c, 0, 56, 98
1, 161733, Note_on_c, 0, 56, 0
1, 161733, Note_on_c, 0, 52, 0
1, 161733, Note_on_c, 0, 59, 103
1, 161736, Note_on_c, 0, 40, 0
1, 161736, Note_on_c, 0, 47, 95
1, 161841, Note_on_c, 0, 59, 0
1, 161841, Note_on_c, 0, 64, 98
1, 161949, Note_on_c, 0, 64, 0
1, 161949, Note_on_c, 0, 68, 98
1, 162061, Note_on_c, 0, 68, 0
1, 162061, Note_on_c, 0, 66, 103
1, 162061, Control_c, 0, 64, 0
1, 162080, Control_c, 0, 64, 127
1, 162168, Note_on_c, 0, 66, 0
1, 162168, Note_on_c, 0, 63, 98
1, 162276, Note_on_c, 0, 63, 0
1, 162276, Note_on_c, 0, 59, 98
1, 162383, Note_on_c, 0, 59, 0
1, 162383, Note_on_c, 0, 47, 0
1, 162383, Note_on_c, 0, 63, 103
1, 162386, Note_on_c, 0, 47, 95
1, 162491, Note_on_c, 0, 63, 0
1, 162491, Note_on_c, 0, 66, 98
1, 162598, Note_on_c, 0, 66, 0
1, 162598, Note_on_c, 0, 69, 98
1, 162710, Note_on_c, 0, 69, 0
1, 162710, Note_on_c, 0, 68, 103
1, 162713, Control_c, 0, 64, 0
1, 162738, Control_c, 0, 64, 127
1, 162817, Note_on_c, 0, 68, 0
1, 162817, Note_on_c, 0, 64, 96
1, 162924, Note_on_c, 0, 64, 0
1, 162924, Note_on_c, 0, 59, 98
1, 163030, Note_on_c, 0, 59, 0
1, 163030, Note_on_c, 0, 47, 0
1, 163030, Note_on_c, 0, 64, 103
1, 163033, Note_on_c, 0, 47, 95
1, 163137, Note_on_c, 0, 64, 0
1, 163137, Note_on_c, 0, 68, 98
1, 163243, Note_on_c, 0, 68, 0
1, 163243, Note_on_c, 0, 71, 98
1, 163356, Note_on_c, 0, 71, 0
1, 163356, Note_on_c, 0, 69, 103
1, 163356, Control_c, 0, 64, 0
1, 163383, Control_c, 0, 64, 127
1, 163461, Note_on_c, 0, 69, 0
1, 163461, Note_on_c, 0, 66, 98
1, 163567, Note_on_c, 0, 66, 0
1, 163567, Note_on_c, 0, 63, 98
1, 163679, Note_on_c, 0, 63, 0
1, 163679, Note_on_c, 0, 47, 0
1, 163679, Note_on_c, 0, 75, 103
1, 163682, Note_on_c, 0, 47, 94
1, 163785, Note_on_c, 0, 75, 0
1, 163785, Note_on_c, 0, 69, 98
1, 163892, Note_on_c, 0, 69, 0
1, 163892, Note_on_c, 0, 66, 98
1, 163999, Note_on_c, 0, 66, 0
1, 163999, Note_on_c, 0, 68, 84
1, 163999, Note_on_c, 0, 76, 96
1, 164002, Note_on_c, 0, 47, 0
1, 164002, Note_on_c, 0, 52, 94
1, 164002, Control_c, 0, 64, 0
1, 164029, Control_c, 0, 64, 127
1, 164104, Note_on_c, 0, 52, 0
1, 164104, Note_on_c, 0, 47, 88
1, 164210, Note_on_c, 0, 47, 0
1, 164210, Note_on_c, 0, 44, 90
1, 164315, Note_on_c, 0, 76, 0
1, 164315, Note_on_c, 0, 68, 0
1, 164315, Note_on_c, 0, 71, 101
1, 164318, Note_on_c, 0, 44, 0
1, 164318, Note_on_c, 0, 47, 94
1, 164421, Note_on_c, 0, 47, 0
1, 164421, Note_on_c, 0, 52, 90
1, 164526, Note_on_c, 0, 52, 0
1, 164526, Note_on_c, 0, 56, 90
1, 164636, Note_on_c, 0, 56, 0
1, 164636, Note_on_c, 0, 54, 94
1, 164639, Control_c, 0, 64, 0
1, 164674, Control_c, 0, 64, 127
1, 164742, Note_on_c, 0, 54, 0
1, 164742, Note_on_c, 0, 51, 90
1, 164849, Note_on_c, 0, 51, 0
1, 164849, Note_on_c, 0, 47, 90
1, 164955, Note_on_c, 0, 47, 0
1, 164955, Note_on_c, 0, 71, 0
1, 164955, Note_on_c, 0, 71, 101
1, 164958, Note_on_c, 0, 51, 94
1, 165061, Note_on_c, 0, 51, 0
1, 165061, Note_on_c, 0, 54, 90
1, 165167, Note_on_c, 0, 54, 0
1, 165167, Note_on_c, 0, 57, 90
1, 165278, Note_on_c, 0, 57, 0
1, 165278, Note_on_c, 0, 56, 94
1, 165282, Control_c, 0, 64, 0
1, 165327, Control_c, 0, 64, 127
1, 165384, Note_on_c, 0, 56, 0
1, 165384, Note_on_c, 0, 52, 88
1, 165490, Note_on_c, 0, 52, 0
1, 165490, Note_on_c, 0, 47, 90
1, 165596, Note_on_c, 0, 47, 0
1, 165596, Note_on_c, 0, 71, 0
1, 165596, Note_on_c, 0, 71, 101
1, 165599, Note_on_c, 0, 52, 94
1, 165702, Note_on_c, 0, 52, 0
1, 165702, Note_on_c, 0, 56, 90
1, 165809, Note_on_c, 0, 56, 0
1, 165809, Note_on_c, 0, 59, 90
1, 165919, Note_on_c, 0, 59, 0
1, 165919, Note_on_c, 0, 57, 94
1, 165926, Control_c, 0, 64, 0
1, 165987, Control_c, 0, 64, 127
1, 166025, Note_on_c, 0, 57, 0
1, 166025, Note_on_c, 0, 54, 90
1, 166132, Note_on_c, 0, 54, 0
1, 166132, Note_on_c, 0, 51, 90
1, 166242, Note_on_c, 0, 51, 0
1, 166242, Note_on_c, 0, 71, 0
1, 166242, Note_on_c, 0, 71, 101
1, 166245, Note_on_c, 0, 63, 94
1, 166348, Note_on_c, 0, 63, 0
1, 166348, Note_on_c, 0, 57, 90
1, 166454, Note_on_c, 0, 57, 0
1, 166454, Note_on_c, 0, 54, 90
1, 166565, Note_on_c, 0, 54, 0
1, 166565, Note_on_c, 0, 71, 0
1, 166565, Note_on_c, 0, 76, 103
1, 166568, Note_on_c, 0, 56, 85
1, 166568, Control_c, 0, 64, 0
1, 166606, Control_c, 0, 64, 127
1, 166670, Note_on_c, 0, 56, 0
1, 166670, Note_on_c, 0, 76, 0
1, 166670, Note_on_c, 0, 71, 96
1, 166673, Note_on_c, 0, 59, 77
1, 166776, Note_on_c, 0, 59, 0
1, 166776, Note_on_c, 0, 71, 0
1, 166776, Note_on_c, 0, 68, 98
1, 166779, Note_on_c, 0, 64, 77
1, 166881, Note_on_c, 0, 64, 0
1, 166881, Note_on_c, 0, 68, 0
1, 166881, Note_on_c, 0, 71, 103
1, 166884, Note_on_c, 0, 59, 85
1, 166987, Note_on_c, 0, 59, 0
1, 166987, Note_on_c, 0, 71, 0
1, 166987, Note_on_c, 0, 76, 98
1, 166990, Note_on_c, 0, 56, 78
1, 167092, Note_on_c, 0, 56, 0
1, 167092, Note_on_c, 0, 76, 0
1, 167092, Note_on_c, 0, 80, 98
1, 167095, Note_on_c, 0, 52, 78
1, 167202, Note_on_c, 0, 52, 0
1, 167202, Note_on_c, 0, 80, 0
1, 167202, Note_on_c, 0, 78, 103
1, 167205, Note_on_c, 0, 51, 85
1, 167205, Control_c, 0, 64, 0
1, 167244, Control_c, 0, 64, 127
1, 167308, Note_on_c, 0, 51, 0
1, 167308, Note_on_c, 0, 78, 0
1, 167308, Note_on_c, 0, 75, 98
1, 167311, Note_on_c, 0, 54, 77
1, 167413, Note_on_c, 0, 54, 0
1, 167413, Note_on_c, 0, 75, 0
1, 167413, Note_on_c, 0, 71, 98
1, 167416, Note_on_c, 0, 57, 77
1, 167519, Note_on_c, 0, 57, 0
1, 167519, Note_on_c, 0, 71, 0
1, 167519, Note_on_c, 0, 75, 103
1, 167522, Note_on_c, 0, 54, 85
1, 167624, Note_on_c, 0, 54, 0
1, 167624, Note_on_c, 0, 75, 0
1, 167624, Note_on_c, 0, 78, 98
1, 167627, Note_on_c, 0, 51, 78
1, 167730, Note_on_c, 0, 51, 0
1, 167730, Note_on_c, 0, 78, 0
1, 167730, Note_on_c, 0, 81, 98
1, 167733, Note_on_c, 0, 47, 79
1, 167839, Note_on_c, 0, 47, 0
1, 167839, Note_on_c, 0, 81, 0
1, 167839, Note_on_c, 0, 80, 103
1, 167842, Control_c, 0, 64, 0
1, 167842, Note_on_c, 0, 52, 85
1, 167880, Control_c, 0, 64, 127
1, 167944, Note_on_c, 0, 80, 0
1, 167944, Note_on_c, 0, 76, 96
1, 167944, Note_on_c, 0, 56, 77
1, 167948, Note_on_c, 0, 52, 0
1, 168049, Note_on_c, 0, 56, 0
1, 168049, Note_on_c, 0, 76, 0
1, 168049, Note_on_c, 0, 71, 98
1, 168052, Note_on_c, 0, 59, 77
1, 168153, Note_on_c, 0, 59, 0
1, 168153, Note_on_c, 0, 71, 0
1, 168153, Note_on_c, 0, 76, 103
1, 168156, Note_on_c, 0, 56, 85
1, 168258, Note_on_c, 0, 56, 0
1, 168258, Note_on_c, 0, 76, 0
1, 168258, Note_on_c, 0, 80, 98
1, 168261, Note_on_c, 0, 52, 78
1, 168363, Note_on_c, 0, 52, 0
1, 168363, Note_on_c, 0, 80, 0
1, 168363, Note_on_c, 0, 83, 98
1, 168367, Note_on_c, 0, 47, 78
1, 168479, Note_on_c, 0, 83, 0
1, 168479, Note_on_c, 0, 81, 103
1, 168479, Note_on_c, 0, 51, 85
1, 168483, Note_on_c, 0, 47, 0
1, 168483, Control_c, 0, 64, 0
1, 168520, Control_c, 0, 64, 127
1, 168584, Note_on_c, 0, 51, 0
1, 168584, Note_on_c, 0, 81, 0
1, 168584, Note_on_c, 0, 78, 98
1, 168587, Note_on_c, 0, 57, 77
1, 168689, Note_on_c, 0, 57, 0
1, 168689, Note_on_c, 0, 78, 0
1, 168689, Note_on_c, 0, 75, 98
1, 168693, Note_on_c, 0, 59, 77
1, 168804, Note_on_c, 0, 75, 0
1, 168804, Note_on_c, 0, 87, 103
1, 168804, Note_on_c, 0, 57, 85
1, 168808, Note_on_c, 0, 59, 0
1, 168909, Note_on_c, 0, 57, 0
1, 168909, Note_on_c, 0, 87, 0
1, 168909, Note_on_c, 0, 81, 98
1, 168912, Note_on_c, 0, 59, 78
1, 169013, Note_on_c, 0, 59, 0
1, 169013, Note_on_c, 0, 81, 0
1, 169013, Note_on_c, 0, 78, 98
1, 169016, Note_on_c, 0, 66, 79
1, 169118, Note_on_c, 0, 66, 0
1, 169118, Note_on_c, 0, 78, 0
1, 169118, Note_on_c, 0, 88, 107
1, 169121, Note_on_c, 0, 56, 85
1, 169121, Control_c, 0, 64, 0
1, 169149, Control_c, 0, 64, 127
1, 169223, Note_on_c, 0, 56, 0
1, 169223, Note_on_c, 0, 83, 95
1, 169223, Note_on_c, 0, 59, 76
1, 169275, Note_on_c, 0, 88, 0
1, 169327, Note_on_c, 0, 59, 0
1, 169327, Note_on_c, 0, 83, 0
1, 169327, Note_on_c, 0, 80, 95
1, 169330, Note_on_c, 0, 64, 76
1, 169431, Note_on_c, 0, 64, 0
1, 169431, Note_on_c, 0, 80, 0
1, 169431, Note_on_c, 0, 83, 103
1, 169434, Note_on_c, 0, 52, 83
1, 169536, Note_on_c, 0, 52, 0
1, 169536, Note_on_c, 0, 80, 94
1, 169536, Note_on_c, 0, 56, 76
1, 169588, Note_on_c, 0, 83, 0
1, 169640, Note_on_c, 0, 56, 0
1, 169640, Note_on_c, 0, 80, 0
1, 169640, Note_on_c, 0, 76, 93
1, 169643, Note_on_c, 0, 59, 75
1, 169750, Note_on_c, 0, 59, 0
1, 169750, Note_on_c, 0, 76, 0
1, 169750, Note_on_c, 0, 81, 100
1, 169753, Note_on_c, 0, 54, 80
1, 169753, Control_c, 0, 64, 0
1, 169791, Control_c, 0, 64, 127
1, 169854, Note_on_c, 0, 54, 0
1, 169854, Note_on_c, 0, 78, 92
1, 169854, Note_on_c, 0, 57, 72
1, 169906, Note_on_c, 0, 81, 0
1, 169958, Note_on_c, 0, 57, 0
1, 169958, Note_on_c, 0, 78, 0
1, 169958, Note_on_c, 0, 75, 91
1, 169961, Note_on_c, 0, 59, 72
1, 170062, Note_on_c, 0, 59, 0
1, 170062, Note_on_c, 0, 75, 0
1, 170062, Note_on_c, 0, 87, 97
1, 170065, Note_on_c, 0, 57, 78
1, 170166, Note_on_c, 0, 57, 0
1, 170166, Note_on_c, 0, 83, 90
1, 170166, Note_on_c, 0, 59, 72
1, 170218, Note_on_c, 0, 87, 0
1, 170270, Note_on_c, 0, 59, 0
1, 170270, Note_on_c, 0, 83, 0
1, 170270, Note_on_c, 0, 78, 88
1, 170273, Note_on_c, 0, 66, 72
1, 170385, Note_on_c, 0, 66, 0
1, 170385, Note_on_c, 0, 78, 0
1, 170385, Note_on_c, 0, 88, 96
1, 170388, Note_on_c, 0, 56, 77
1, 170388, Control_c, 0, 64, 0
1, 170415, Control_c, 0, 64, 127
1, 170489, Note_on_c, 0, 56, 0
1, 170489, Note_on_c, 0, 83, 86
1, 170489, Note_on_c, 0, 59, 69
1, 170541, Note_on_c, 0, 88, 0
1, 170593, Note_on_c, 0, 59, 0
1, 170593, Note_on_c, 0, 83, 0
1, 170593, Note_on_c, 0, 80, 86
1, 170596, Note_on_c, 0, 64, 69
1, 170697, Note_on_c, 0, 64, 0
1, 170697, Note_on_c, 0, 80, 0
1, 170697, Note_on_c, 0, 83, 93
1, 170700, Note_on_c, 0, 52, 75
1, 170801, Note_on_c, 0, 52, 0
1, 170801, Note_on_c, 0, 80, 85
1, 170801, Note_on_c, 0, 56, 69
1, 170853, Note_on_c, 0, 83, 0
1, 170905, Note_on_c, 0, 56, 0
1, 170905, Note_on_c, 0, 80, 0
1, 170905, Note_on_c, 0, 76, 84
1, 170908, Note_on_c, 0, 59, 68
1, 171015, Note_on_c, 0, 59, 0
1, 171015, Note_on_c, 0, 76, 0
1, 171015, Note_on_c, 0, 81, 90
1, 171018, Note_on_c, 0, 54, 72
1, 171018, Control_c, 0, 64, 0
1, 171056, Control_c, 0, 64, 127
1, 171119, Note_on_c, 0, 54, 0
1, 171119, Note_on_c, 0, 78, 83
1, 171119, Note_on_c, 0, 57, 65
1, 171170, Note_on_c, 0, 81, 0
1, 171222, Note_on_c, 0, 57, 0
1, 171222, Note_on_c, 0, 78, 0
1, 171222, Note_on_c, 0, 75, 81
1, 171225, Note_on_c, 0, 59, 65
1, 171325, Note_on_c, 0, 59, 0
1, 171325, Note_on_c, 0, 75, 0
1, 171325, Note_on_c, 0, 87, 90
1, 171328, Note_on_c, 0, 57, 71
1, 171428, Note_on_c, 0, 57, 0
1, 171428, Note_on_c, 0, 83, 80
1, 171428, Note_on_c, 0, 59, 65
1, 171480, Note_on_c, 0, 87, 0
1, 171532, Note_on_c, 0, 59, 0
1, 171532, Note_on_c, 0, 83, 0
1, 171532, Note_on_c, 0, 78, 79
1, 171535, Note_on_c, 0, 66, 65
1, 171647, Note_on_c, 0, 66, 0
1, 171647, Note_on_c, 0, 78, 0
1, 171647, Note_on_c, 0, 88, 85
1, 171650, Control_c, 0, 64, 0
1, 171650, Note_on_c, 0, 56, 71
1, 171725, Note_on_c, 0, 56, 0
1, 171725, Note_on_c, 0, 88, 0
1, 171725, Note_on_c, 0, 83, 79
1, 171728, Note_on_c, 0, 59, 64
1, 171802, Note_on_c, 0, 59, 0
1, 171802, Note_on_c, 0, 83, 0
1, 171802, Note_on_c, 0, 80, 79
1, 171805, Note_on_c, 0, 52, 64
1, 171879, Note_on_c, 0, 52, 0
1, 171879, Note_on_c, 0, 80, 0
1, 171879, Note_on_c, 0, 76, 80
1, 171882, Note_on_c, 0, 59, 65
1, 171956, Note_on_c, 0, 59, 0
1, 171956, Note_on_c, 0, 76, 0
1, 171956, Note_on_c, 0, 81, 86
1, 171959, Note_on_c, 0, 54, 72
1, 172033, Note_on_c, 0, 54, 0
1, 172033, Note_on_c, 0, 81, 0
1, 172033, Note_on_c, 0, 78, 80
1, 172036, Note_on_c, 0, 59, 65
1, 172110, Note_on_c, 0, 59, 0
1, 172110, Note_on_c, 0, 78, 0
1, 172110, Note_on_c, 0, 87, 83
1, 172113, Note_on_c, 0, 57, 65
1, 172186, Note_on_c, 0, 57, 0
1, 172186, Note_on_c, 0, 87, 0
1, 172186, Note_on_c, 0, 83, 84
1, 172189, Note_on_c, 0, 59, 65
1, 172262, Note_on_c, 0, 59, 0
1, 172262, Note_on_c, 0, 83, 0
1, 172262, Note_on_c, 0, 88, 90
1, 172265, Note_on_c, 0, 56, 73
1, 172338, Note_on_c, 0, 56, 0
1, 172338, Note_on_c, 0, 88, 0
1, 172338, Note_on_c, 0, 83, 84
1, 172341, Note_on_c, 0, 59, 67
1, 172414, Note_on_c, 0, 59, 0
1, 172414, Note_on_c, 0, 83, 0
1, 172414, Note_on_c, 0, 80, 84
1, 172417, Note_on_c, 0, 52, 68
1, 172490, Note_on_c, 0, 52, 0
1, 172490, Note_on_c, 0, 80, 0
1, 172490, Note_on_c, 0, 76, 85
1, 172493, Note_on_c, 0, 59, 70
1, 172566, Note_on_c, 0, 59, 0
1, 172566, Note_on_c, 0, 76, 0
1, 172566, Note_on_c, 0, 81, 92
1, 172569, Note_on_c, 0, 54, 76
1, 172642, Note_on_c, 0, 54, 0
1, 172642, Note_on_c, 0, 81, 0
1, 172642, Note_on_c, 0, 78, 87
1, 172645, Note_on_c, 0, 59, 69
1, 172717, Note_on_c, 0, 59, 0
1, 172717, Note_on_c, 0, 78, 0
1, 172717, Note_on_c, 0, 87, 88
1, 172720, Note_on_c, 0, 57, 69
1, 172793, Note_on_c, 0, 57, 0
1, 172793, Note_on_c, 0, 87, 0
1, 172793, Note_on_c, 0, 83, 88
1, 172796, Note_on_c, 0, 59, 70
1, 172874, Note_on_c, 0, 59, 0
1, 172874, Note_on_c, 0, 83, 0
1, 172874, Note_on_c, 0, 88, 95
1, 172877, Note_on_c, 0, 56, 79
1, 172949, Note_on_c, 0, 56, 0
1, 172949, Note_on_c, 0, 88, 0
1, 172949, Note_on_c, 0, 83, 88
1, 172952, Note_on_c, 0, 59, 71
1, 173025, Note_on_c, 0, 59, 0
1, 173025, Note_on_c, 0, 83, 0
1, 173025, Note_on_c, 0, 87, 90
1, 173028, Note_on_c, 0, 57, 72
1, 173100, Note_on_c, 0, 57, 0
1, 173100, Note_on_c, 0, 87, 0
1, 173100, Note_on_c, 0, 83, 90
1, 173103, Note_on_c, 0, 59, 73
1, 173175, Note_on_c, 0, 59, 0
1, 173175, Note_on_c, 0, 83, 0
1, 173175, Note_on_c, 0, 88, 98
1, 173178, Note_on_c, 0, 56, 81
1, 173249, Note_on_c, 0, 56, 0
1, 173249, Note_on_c, 0, 88, 0
1, 173249, Note_on_c, 0, 83, 98
1, 173252, Note_on_c, 0, 59, 73
1, 173324, Note_on_c, 0, 59, 0
1, 173324, Note_on_c, 0, 83, 0
1, 173324, Note_on_c, 0, 87, 93
1, 173327, Note_on_c, 0, 57, 73
1, 173398, Note_on_c, 0, 57, 0
1, 173398, Note_on_c, 0, 87, 0
1, 173398, Note_on_c, 0, 83, 94
1, 173401, Note_on_c, 0, 59, 75
1, 173473, Note_on_c, 0, 59, 0
1, 173473, Note_on_c, 0, 83, 0
1, 173473, Note_on_c, 0, 88, 101
1, 173476, Note_on_c, 0, 56, 83
1, 173547, Note_on_c, 0, 56, 0
1, 173547, Note_on_c, 0, 88, 0
1, 173547, Note_on_c, 0, 83, 94
1, 173550, Note_on_c, 0, 59, 76
1, 173621, Note_on_c, 0, 59, 0
1, 173621, Note_on_c, 0, 83, 0
1, 173621, Note_on_c, 0, 87, 95
1, 173624, Note_on_c, 0, 57, 76
1, 173695, Note_on_c, 0, 57, 0
1, 173695, Note_on_c, 0, 87, 0
1, 173695, Note_on_c, 0, 83, 95
1, 173698, Note_on_c, 0, 59, 78
1, 173769, Note_on_c, 0, 59, 0
1, 173769, Note_on_c, 0, 83, 0
1, 173769, Note_on_c, 0, 88, 103
1, 173772, Note_on_c, 0, 56, 86
1, 173843, Note_on_c, 0, 56, 0
1, 173843, Note_on_c, 0, 88, 0
1, 173843, Note_on_c, 0, 83, 106
1, 173846, Note_on_c, 0, 59, 78
1, 173917, Note_on_c, 0, 59, 0
1, 173917, Note_on_c, 0, 83, 0
1, 173917, Note_on_c, 0, 87, 99
1, 173920, Note_on_c, 0, 57, 78
1, 173991, Note_on_c, 0, 57, 0
1, 173991, Note_on_c, 0, 87, 0
1, 173991, Note_on_c, 0, 83, 100
1, 173994, Note_on_c, 0, 59, 79
1, 174072, Note_on_c, 0, 59, 0
1, 174072, Note_on_c, 0, 83, 0
1, 174072, Note_on_c, 0, 88, 110
1, 174075, Note_on_c, 0, 56, 91
1, 174146, Note_on_c, 0, 56, 0
1, 174146, Note_on_c, 0, 88, 0
1, 174146, Note_on_c, 0, 83, 102
1, 174149, Note_on_c, 0, 59, 81
1, 174220, Note_on_c, 0, 59, 0
1, 174220, Note_on_c, 0, 83, 0
1, 174220, Note_on_c, 0, 86, 102
1, 174223, Note_on_c, 0, 44, 81
1, 174294, Note_on_c, 0, 44, 0
1, 174294, Note_on_c, 0, 86, 0
1, 174294, Note_on_c, 0, 83, 102
1, 174297, Note_on_c, 0, 52, 83
1, 174367, Note_on_c, 0, 52, 0
1, 174367, Note_on_c, 0, 83, 0
1, 174367, Note_on_c, 0, 86, 110
1, 174370, Note_on_c, 0, 44, 91
1, 174392, Control_c, 0, 64, 127
1, 174441, Note_on_c, 0, 44, 0
1, 174441, Note_on_c, 0, 86, 0
1, 174441, Note_on_c, 0, 83, 104
1, 174444, Note_on_c, 0, 52, 81
1, 174514, Note_on_c, 0, 52, 0
1, 174514, Note_on_c, 0, 83, 0
1, 174514, Note_on_c, 0, 86, 103
1, 174517, Note_on_c, 0, 44, 81
1, 174587, Note_on_c, 0, 44, 0
1, 174587, Note_on_c, 0, 86, 0
1, 174587, Note_on_c, 0, 83, 103
1, 174590, Note_on_c, 0, 52, 81
1, 174661, Note_on_c, 0, 52, 0
1, 174661, Note_on_c, 0, 83, 0
1, 174661, Note_on_c, 0, 86, 110
1, 174664, Note_on_c, 0, 44, 91
1, 174734, Note_on_c, 0, 44, 0
1, 174734, Note_on_c, 0, 86, 0
1, 174734, Note_on_c, 0, 83, 102
1, 174737, Note_on_c, 0, 52, 81
1, 174807, Note_on_c, 0, 52, 0
1, 174807, Note_on_c, 0, 83, 0
1, 174807, Note_on_c, 0, 86, 102
1, 174810, Note_on_c, 0, 44, 81
1, 174880, Note_on_c, 0, 44, 0
1, 174880, Note_on_c, 0, 86, 0
1, 174880, Note_on_c, 0, 83, 102
1, 174883, Note_on_c, 0, 52, 83
1, 174953, Note_on_c, 0, 52, 0
1, 174953, Note_on_c, 0, 83, 0
1, 174953, Note_on_c, 0, 86, 110
1, 174956, Note_on_c, 0, 44, 91
1, 175026, Note_on_c, 0, 44, 0
1, 175026, Note_on_c, 0, 86, 0
1, 175026, Note_on_c, 0, 83, 104
1, 175029, Note_on_c, 0, 52, 81
1, 175099, Note_on_c, 0, 52, 0
1, 175099, Note_on_c, 0, 83, 0
1, 175099, Note_on_c, 0, 86, 103
1, 175102, Note_on_c, 0, 44, 81
1, 175172, Note_on_c, 0, 44, 0
1, 175172, Note_on_c, 0, 86, 0
1, 175172, Note_on_c, 0, 83, 103
1, 175175, Note_on_c, 0, 52, 81
1, 175248, Note_on_c, 0, 52, 0
1, 175248, Note_on_c, 0, 83, 0
1, 175248, Note_on_c, 0, 86, 110
1, 175251, Note_on_c, 0, 44, 91
1, 175255, Control_c, 0, 64, 0
1, 175272, Control_c, 0, 64, 127
1, 175319, Note_on_c, 0, 44, 0
1, 175319, Note_on_c, 0, 52, 81
1, 175390, Note_on_c, 0, 52, 0
1, 175390, Note_on_c, 0, 86, 0
1, 175390, Note_on_c, 0, 85, 102
1, 175393, Note_on_c, 0, 44, 81
1, 175461, Note_on_c, 0, 44, 0
1, 175461, Note_on_c, 0, 85, 0
1, 175461, Note_on_c, 0, 83, 102
1, 175464, Note_on_c, 0, 52, 83
1, 175533, Note_on_c, 0, 52, 0
1, 175533, Note_on_c, 0, 83, 0
1, 175533, Note_on_c, 0, 81, 107
1, 175536, Note_on_c, 0, 44, 91
1, 175604, Note_on_c, 0, 44, 0
1, 175604, Note_on_c, 0, 81, 0
1, 175604, Note_on_c, 0, 80, 103
1, 175607, Note_on_c, 0, 52, 81
1, 175675, Note_on_c, 0, 52, 0
1, 175675, Note_on_c, 0, 80, 0
1, 175675, Note_on_c, 0, 78, 104
1, 175678, Note_on_c, 0, 44, 81
1, 175746, Note_on_c, 0, 44, 0
1, 175746, Note_on_c, 0, 78, 0
1, 175746, Note_on_c, 0, 76, 104
1, 175749, Note_on_c, 0, 52, 82
1, 175817, Note_on_c, 0, 52, 0
1, 175817, Note_on_c, 0, 76, 0
1, 175817, Note_on_c, 0, 74, 107
1, 175820, Note_on_c, 0, 44, 92
1, 175820, Control_c, 0, 64, 0
1, 175875, Control_c, 0, 64, 127
1, 175888, Note_on_c, 0, 44, 0
1, 175888, Note_on_c, 0, 74, 0
1, 175888, Note_on_c, 0, 73, 103
1, 175891, Note_on_c, 0, 52, 82
1, 175959, Note_on_c, 0, 52, 0
1, 175959, Note_on_c, 0, 73, 0
1, 175959, Note_on_c, 0, 71, 104
1, 175962, Note_on_c, 0, 44, 82
1, 176031, Note_on_c, 0, 44, 0
1, 176031, Note_on_c, 0, 71, 0
1, 176031, Note_on_c, 0, 69, 104
1, 176034, Note_on_c, 0, 52, 84
1, 176102, Note_on_c, 0, 52, 0
1, 176102, Note_on_c, 0, 69, 0
1, 176102, Note_on_c, 0, 68, 109
1, 176105, Note_on_c, 0, 44, 93
1, 176173, Note_on_c, 0, 44, 0
1, 176173, Note_on_c, 0, 68, 0
1, 176173, Note_on_c, 0, 66, 106
1, 176176, Note_on_c, 0, 52, 83
1, 176244, Note_on_c, 0, 52, 0
1, 176244, Note_on_c, 0, 66, 0
1, 176244, Note_on_c, 0, 64, 106
1, 176247, Note_on_c, 0, 44, 83
1, 176315, Note_on_c, 0, 44, 0
1, 176315, Note_on_c, 0, 64, 0
1, 176315, Note_on_c, 0, 62, 106
1, 176318, Note_on_c, 0, 52, 83
1, 176386, Note_on_c, 0, 52, 0
1, 176386, Note_on_c, 0, 62, 0
1, 176386, Note_on_c, 0, 61, 114
1, 176389, Note_on_c, 0, 45, 88
1, 176389, Note_on_c, 0, 49, 88
1, 176389, Note_on_c, 0, 52, 101
1, 176394, Control_c, 0, 64, 0
1, 176456, Note_on_c, 0, 61, 0
1, 176456, Note_on_c, 0, 63, 104
1, 176490, Note_on_c, 0, 45, 0
1, 176490, Note_on_c, 0, 52, 0
1, 176490, Note_on_c, 0, 49, 0
1, 176525, Note_on_c, 0, 63, 0
1, 176525, Note_on_c, 0, 64, 104
1, 176525, Note_on_c, 0, 45, 81
1, 176528, Note_on_c, 0, 49, 81
1, 176528, Note_on_c, 0, 52, 94
1, 176595, Note_on_c, 0, 64, 0
1, 176595, Note_on_c, 0, 63, 105
1, 176629, Note_on_c, 0, 45, 0
1, 176629, Note_on_c, 0, 52, 0
1, 176629, Note_on_c, 0, 49, 0
1, 176664, Note_on_c, 0, 63, 0
1, 176664, Note_on_c, 0, 64, 113
1, 176734, Note_on_c, 0, 64, 0
1, 176734, Note_on_c, 0, 68, 105
1, 176804, Note_on_c, 0, 68, 0
1, 176804, Note_on_c, 0, 69, 105
1, 176804, Note_on_c, 0, 45, 81
1, 176807, Note_on_c, 0, 49, 81
1, 176807, Note_on_c, 0, 52, 94
1, 176877, Note_on_c, 0, 69, 0
1, 176877, Note_on_c, 0, 68, 105
1, 176914, Note_on_c, 0, 45, 0
1, 176914, Note_on_c, 0, 52, 0
1, 176914, Note_on_c, 0, 49, 0
1, 176951, Note_on_c, 0, 68, 0
1, 176951, Note_on_c, 0, 69, 114
1, 176951, Note_on_c, 0, 45, 88
1, 176954, Note_on_c, 0, 49, 88
1, 176954, Note_on_c, 0, 52, 101
1, 177020, Note_on_c, 0, 69, 0
1, 177020, Note_on_c, 0, 72, 105
1, 177056, Note_on_c, 0, 45, 0
1, 177056, Note_on_c, 0, 52, 0
1, 177056, Note_on_c, 0, 49, 0
1, 177091, Note_on_c, 0, 72, 0
1, 177091, Note_on_c, 0, 73, 105
1, 177091, Note_on_c, 0, 45, 81
1, 177094, Note_on_c, 0, 49, 81
1, 177094, Note_on_c, 0, 52, 94
1, 177161, Note_on_c, 0, 73, 0
1, 177161, Note_on_c, 0, 72, 105
1, 177196, Note_on_c, 0, 45, 0
1, 177196, Note_on_c, 0, 52, 0
1, 177196, Note_on_c, 0, 49, 0
1, 177231, Note_on_c, 0, 72, 0
1, 177231, Note_on_c, 0, 73, 114
1, 177302, Note_on_c, 0, 73, 0
1, 177302, Note_on_c, 0, 75, 105
1, 177372, Note_on_c, 0, 75, 0
1, 177372, Note_on_c, 0, 76, 105
1, 177372, Note_on_c, 0, 45, 81
1, 177375, Note_on_c, 0, 49, 81
1, 177375, Note_on_c, 0, 52, 94
1, 177445, Note_on_c, 0, 76, 0
1, 177445, Note_on_c, 0, 75, 105
1, 177481, Note_on_c, 0, 45, 0
1, 177481, Note_on_c, 0, 52, 0
1, 177481, Note_on_c, 0, 49, 0
1, 177517, Note_on_c, 0, 75, 0
1, 177517, Note_on_c, 0, 76, 116
1, 177517, Note_on_c, 0, 45, 88
1, 177520, Note_on_c, 0, 49, 88
1, 177520, Note_on_c, 0, 52, 99
1, 177587, Note_on_c, 0, 76, 0
1, 177587, Note_on_c, 0, 80, 106
1, 177622, Note_on_c, 0, 45, 0
1, 177622, Note_on_c, 0, 52, 0
1, 177622, Note_on_c, 0, 49, 0
1, 177657, Note_on_c, 0, 80, 0
1, 177657, Note_on_c, 0, 81, 106
1, 177657, Note_on_c, 0, 45, 81
1, 177660, Note_on_c, 0, 49, 81
1, 177660, Note_on_c, 0, 52, 94
1, 177728, Note_on_c, 0, 81, 0
1, 177728, Note_on_c, 0, 80, 106
1, 177762, Note_on_c, 0, 45, 0
1, 177762, Note_on_c, 0, 52, 0
1, 177762, Note_on_c, 0, 49, 0
1, 177798, Note_on_c, 0, 80, 0
1, 177798, Note_on_c, 0, 81, 116
1, 177868, Note_on_c, 0, 81, 0
1, 177868, Note_on_c, 0, 84, 106
1, 177938, Note_on_c, 0, 84, 0
1, 177938, Note_on_c, 0, 85, 106
1, 177938, Note_on_c, 0, 45, 81
1, 177941, Note_on_c, 0, 49, 81
1, 177941, Note_on_c, 0, 52, 94
1, 178010, Note_on_c, 0, 85, 0
1, 178010, Note_on_c, 0, 84, 107
1, 178046, Note_on_c, 0, 45, 0
1, 178046, Note_on_c, 0, 52, 0
1, 178046, Note_on_c, 0, 49, 0
1, 178083, Note_on_c, 0, 84, 0
1, 178083, Note_on_c, 0, 85, 116
1, 178083, Note_on_c, 0, 45, 88
1, 178086, Note_on_c, 0, 49, 88
1, 178086, Note_on_c, 0, 52, 99
1, 178153, Note_on_c, 0, 85, 0
1, 178153, Note_on_c, 0, 87, 107
1, 178188, Note_on_c, 0, 45, 0
1, 178188, Note_on_c, 0, 52, 0
1, 178188, Note_on_c, 0, 49, 0
1, 178223, Note_on_c, 0, 87, 0
1, 178223, Note_on_c, 0, 88, 107
1, 178223, Note_on_c, 0, 45, 81
1, 178226, Note_on_c, 0, 49, 81
1, 178226, Note_on_c, 0, 52, 94
1, 178292, Note_on_c, 0, 88, 0
1, 178292, Note_on_c, 0, 87, 107
1, 178328, Note_on_c, 0, 45, 0
1, 178328, Note_on_c, 0, 52, 0
1, 178328, Note_on_c, 0, 49, 0
1, 178363, Note_on_c, 0, 87, 0
1, 178363, Note_on_c, 0, 88, 116
1, 178433, Note_on_c, 0, 88, 0
1, 178433, Note_on_c, 0, 87, 107
1, 178504, Note_on_c, 0, 87, 0
1, 178504, Note_on_c, 0, 85, 107
1, 178504, Note_on_c, 0, 45, 81
1, 178507, Note_on_c, 0, 49, 81
1, 178507, Note_on_c, 0, 52, 94
1, 178579, Note_on_c, 0, 85, 0
1, 178579, Note_on_c, 0, 84, 107
1, 178617, Note_on_c, 0, 45, 0
1, 178617, Note_on_c, 0, 52, 0
1, 178617, Note_on_c, 0, 49, 0
1, 178655, Note_on_c, 0, 84, 0
1, 178655, Note_on_c, 0, 85, 116
1, 178655, Note_on_c, 0, 52, 88
1, 178658, Note_on_c, 0, 46, 88
1, 178658, Note_on_c, 0, 49, 88
1, 178658, Note_on_c, 0, 54, 99
1, 178725, Note_on_c, 0, 85, 0
1, 178725, Note_on_c, 0, 84, 107
1, 178760, Note_on_c, 0, 52, 0
1, 178760, Note_on_c, 0, 54, 0
1, 178760, Note_on_c, 0, 46, 0
1, 178763, Note_on_c, 0, 49, 0
1, 178795, Note_on_c, 0, 84, 0
1, 178795, Note_on_c, 0, 85, 107
1, 178795, Note_on_c, 0, 52, 81
1, 178798, Note_on_c, 0, 46, 81
1, 178798, Note_on_c, 0, 49, 81
1, 178798, Note_on_c, 0, 54, 94
1, 178866, Note_on_c, 0, 85, 0
1, 178866, Note_on_c, 0, 87, 107
1, 178901, Note_on_c, 0, 52, 0
1, 178901, Note_on_c, 0, 54, 0
1, 178901, Note_on_c, 0, 46, 0
1, 178904, Note_on_c, 0, 49, 0
1, 178936, Note_on_c, 0, 87, 0
1, 178936, Note_on_c, 0, 88, 116
1, 179006, Note_on_c, 0, 88, 0
1, 179006, Note_on_c, 0, 87, 107
1, 179076, Note_on_c, 0, 87, 0
1, 179076, Note_on_c, 0, 85, 107
1, 179076, Note_on_c, 0, 52, 81
1, 179079, Note_on_c, 0, 46, 81
1, 179079, Note_on_c, 0, 49, 81
1, 179079, Note_on_c, 0, 54, 94
1, 179149, Note_on_c, 0, 85, 0
1, 179149, Note_on_c, 0, 84, 107
1, 179185, Note_on_c, 0, 52, 0
1, 179185, Note_on_c, 0, 54, 0
1, 179185, Note_on_c, 0, 46, 0
1, 179188, Note_on_c, 0, 49, 0
1, 179221, Note_on_c, 0, 84, 0
1, 179221, Note_on_c, 0, 85, 116
1, 179221, Note_on_c, 0, 52, 88
1, 179224, Note_on_c, 0, 46, 88
1, 179224, Note_on_c, 0, 49, 88
1, 179224, Note_on_c, 0, 54, 99
1, 179291, Note_on_c, 0, 85, 0
1, 179291, Note_on_c, 0, 84, 107
1, 179326, Note_on_c, 0, 52, 0
1, 179326, Note_on_c, 0, 54, 0
1, 179326, Note_on_c, 0, 46, 0
1, 179329, Note_on_c, 0, 49, 0
1, 179361, Note_on_c, 0, 84, 0
1, 179361, Note_on_c, 0, 85, 107
1, 179361, Note_on_c, 0, 52, 81
1, 179364, Note_on_c, 0, 46, 81
1, 179364, Note_on_c, 0, 49, 81
1, 179364, Note_on_c, 0, 54, 94
1, 179431, Note_on_c, 0, 85, 0
1, 179431, Note_on_c, 0, 87, 107
1, 179466, Note_on_c, 0, 52, 0
1, 179466, Note_on_c, 0, 54, 0
1, 179466, Note_on_c, 0, 46, 0
1, 179469, Note_on_c, 0, 49, 0
1, 179502, Note_on_c, 0, 87, 0
1, 179502, Note_on_c, 0, 88, 116
1, 179571, Note_on_c, 0, 88, 0
1, 179571, Note_on_c, 0, 87, 107
1, 179642, Note_on_c, 0, 87, 0
1, 179642, Note_on_c, 0, 85, 107
1, 179642, Note_on_c, 0, 52, 81
1, 179645, Note_on_c, 0, 46, 81
1, 179645, Note_on_c, 0, 49, 81
1, 179645, Note_on_c, 0, 54, 94
1, 179714, Note_on_c, 0, 85, 0
1, 179714, Note_on_c, 0, 84, 107
1, 179750, Note_on_c, 0, 52, 0
1, 179750, Note_on_c, 0, 54, 0
1, 179750, Note_on_c, 0, 46, 0
1, 179753, Note_on_c, 0, 49, 0
1, 179786, Note_on_c, 0, 84, 0
1, 179786, Note_on_c, 0, 85, 116
1, 179786, Note_on_c, 0, 52, 88
1, 179789, Note_on_c, 0, 46, 88
1, 179789, Note_on_c, 0, 49, 88
1, 179789, Note_on_c, 0, 54, 99
1, 179857, Note_on_c, 0, 85, 0
1, 179857, Note_on_c, 0, 84, 107
1, 179892, Note_on_c, 0, 52, 0
1, 179892, Note_on_c, 0, 54, 0
1, 179892, Note_on_c, 0, 46, 0
1, 179895, Note_on_c, 0, 49, 0
1, 179927, Note_on_c, 0, 84, 0
1, 179927, Note_on_c, 0, 85, 107
1, 179927, Note_on_c, 0, 52, 81
1, 179930, Note_on_c, 0, 46, 81
1, 179930, Note_on_c, 0, 49, 81
1, 179930, Note_on_c, 0, 54, 94
1, 179997, Note_on_c, 0, 85, 0
1, 179997, Note_on_c, 0, 87, 107
1, 180032, Note_on_c, 0, 52, 0
1, 180032, Note_on_c, 0, 54, 0
1, 180032, Note_on_c, 0, 46, 0
1, 180035, Note_on_c, 0, 49, 0
1, 180067, Note_on_c, 0, 87, 0
1, 180067, Note_on_c, 0, 88, 116
1, 180137, Note_on_c, 0, 88, 0
1, 180137, Note_on_c, 0, 87, 107
1, 180206, Note_on_c, 0, 87, 0
1, 180206, Note_on_c, 0, 85, 107
1, 180206, Note_on_c, 0, 52, 81
1, 180209, Note_on_c, 0, 46, 81
1, 180209, Note_on_c, 0, 49, 81
1, 180209, Note_on_c, 0, 54, 94
1, 180279, Note_on_c, 0, 85, 0
1, 180279, Note_on_c, 0, 84, 107
1, 180315, Note_on_c, 0, 52, 0
1, 180315, Note_on_c, 0, 54, 0
1, 180315, Note_on_c, 0, 46, 0
1, 180318, Note_on_c, 0, 49, 0
1, 180351, Note_on_c, 0, 84, 0
1, 180351, Note_on_c, 0, 85, 116
1, 180351, Note_on_c, 0, 52, 88
1, 180354, Note_on_c, 0, 46, 88
1, 180354, Note_on_c, 0, 49, 88
1, 180354, Note_on_c, 0, 54, 99
1, 180422, Note_on_c, 0, 85, 0
1, 180422, Note_on_c, 0, 84, 107
1, 180458, Note_on_c, 0, 52, 0
1, 180458, Note_on_c, 0, 54, 0
1, 180458, Note_on_c, 0, 46, 0
1, 180461, Note_on_c, 0, 49, 0
1, 180493, Note_on_c, 0, 84, 0
1, 180493, Note_on_c, 0, 85, 107
1, 180493, Note_on_c, 0, 52, 81
1, 180496, Note_on_c, 0, 46, 81
1, 180496, Note_on_c, 0, 49, 81
1, 180496, Note_on_c, 0, 54, 94
1, 180563, Note_on_c, 0, 85, 0
1, 180563, Note_on_c, 0, 87, 107
1, 180598, Note_on_c, 0, 52, 0
1, 180598, Note_on_c, 0, 54, 0
1, 180598, Note_on_c, 0, 46, 0
1, 180601, Note_on_c, 0, 49, 0
1, 180633, Note_on_c, 0, 87, 0
1, 180633, Note_on_c, 0, 88, 116
1, 180703, Note_on_c, 0, 88, 0
1, 180703, Note_on_c, 0, 87, 107
1, 180772, Note_on_c, 0, 87, 0
1, 180772, Note_on_c, 0, 88, 107
1, 180772, Note_on_c, 0, 52, 81
1, 180775, Note_on_c, 0, 46, 81
1, 180775, Note_on_c, 0, 49, 81
1, 180775, Note_on_c, 0, 54, 94
1, 180845, Note_on_c, 0, 88, 0
1, 180845, Note_on_c, 0, 85, 107
1, 180881, Note_on_c, 0, 52, 0
1, 180881, Note_on_c, 0, 54, 0
1, 180881, Note_on_c, 0, 46, 0
1, 180884, Note_on_c, 0, 49, 0
1, 180917, Note_on_c, 0, 85, 0
1, 180917, Note_on_c, 0, 71, 108
1, 180917, Note_on_c, 0, 83, 124
1, 180920, Note_on_c, 0, 47, 99
1, 180987, Note_on_c, 0, 47, 0
1, 180987, Note_on_c, 0, 83, 0
1, 180987, Note_on_c, 0, 71, 0
1, 180990, Note_on_c, 0, 52, 91
1, 181057, Note_on_c, 0, 52, 0
1, 181057, Note_on_c, 0, 71, 94
1, 181057, Note_on_c, 0, 83, 108
1, 181060, Note_on_c, 0, 56, 91
1, 181126, Note_on_c, 0, 56, 0
1, 181126, Note_on_c, 0, 83, 0
1, 181126, Note_on_c, 0, 71, 0
1, 181129, Note_on_c, 0, 59, 91
1, 181196, Note_on_c, 0, 59, 0
1, 181196, Note_on_c, 0, 68, 95
1, 181196, Note_on_c, 0, 80, 109
1, 181199, Note_on_c, 0, 47, 98
1, 181267, Note_on_c, 0, 47, 0
1, 181267, Note_on_c, 0, 80, 0
1, 181267, Note_on_c, 0, 68, 0
1, 181270, Note_on_c, 0, 52, 91
1, 181338, Note_on_c, 0, 52, 0
1, 181338, Note_on_c, 0, 64, 94
1, 181338, Note_on_c, 0, 76, 108
1, 181341, Note_on_c, 0, 56, 91
1, 181409, Note_on_c, 0, 56, 0
1, 181409, Note_on_c, 0, 76, 0
1, 181409, Note_on_c, 0, 64, 0
1, 181412, Note_on_c, 0, 59, 91
1, 181480, Note_on_c, 0, 59, 0
1, 181480, Note_on_c, 0, 76, 108
1, 181480, Note_on_c, 0, 88, 124
1, 181483, Note_on_c, 0, 47, 96
1, 181549, Note_on_c, 0, 47, 0
1, 181549, Note_on_c, 0, 88, 0
1, 181549, Note_on_c, 0, 76, 0
1, 181552, Note_on_c, 0, 52, 91
1, 181619, Note_on_c, 0, 52, 0
1, 181619, Note_on_c, 0, 76, 94
1, 181619, Note_on_c, 0, 88, 108
1, 181622, Note_on_c, 0, 56, 91
1, 181688, Note_on_c, 0, 56, 0
1, 181688, Note_on_c, 0, 88, 0
1, 181688, Note_on_c, 0, 76, 0
1, 181691, Note_on_c, 0, 59, 91
1, 181758, Note_on_c, 0, 59, 0
1, 181758, Note_on_c, 0, 71, 94
1, 181758, Note_on_c, 0, 83, 108
1, 181761, Note_on_c, 0, 47, 96
1, 181829, Note_on_c, 0, 47, 0
1, 181829, Note_on_c, 0, 83, 0
1, 181829, Note_on_c, 0, 71, 0
1, 181832, Note_on_c, 0, 52, 91
1, 181901, Note_on_c, 0, 52, 0
1, 181901, Note_on_c, 0, 68, 94
1, 181901, Note_on_c, 0, 80, 108
1, 181904, Note_on_c, 0, 56, 91
1, 181972, Note_on_c, 0, 56, 0
1, 181972, Note_on_c, 0, 80, 0
1, 181972, Note_on_c, 0, 68, 0
1, 181975, Note_on_c, 0, 59, 91
1, 182043, Note_on_c, 0, 59, 0
1, 182043, Note_on_c, 0, 71, 108
1, 182043, Note_on_c, 0, 83, 124
1, 182046, Note_on_c, 0, 47, 99
1, 182113, Note_on_c, 0, 47, 0
1, 182113, Note_on_c, 0, 83, 0
1, 182113, Note_on_c, 0, 71, 0
1, 182116, Note_on_c, 0, 52, 91
1, 182183, Note_on_c, 0, 52, 0
1, 182183, Note_on_c, 0, 71, 94
1, 182183, Note_on_c, 0, 83, 108
1, 182186, Note_on_c, 0, 56, 91
1, 182253, Note_on_c, 0, 56, 0
1, 182253, Note_on_c, 0, 83, 0
1, 182253, Note_on_c, 0, 71, 0
1, 182256, Note_on_c, 0, 59, 91
1, 182323, Note_on_c, 0, 59, 0
1, 182323, Note_on_c, 0, 68, 95
1, 182323, Note_on_c, 0, 80, 109
1, 182326, Note_on_c, 0, 47, 98
1, 182394, Note_on_c, 0, 47, 0
1, 182394, Note_on_c, 0, 80, 0
1, 182394, Note_on_c, 0, 68, 0
1, 182397, Note_on_c, 0, 52, 91
1, 182464, Note_on_c, 0, 52, 0
1, 182464, Note_on_c, 0, 64, 94
1, 182464, Note_on_c, 0, 76, 108
1, 182467, Note_on_c, 0, 56, 91
1, 182535, Note_on_c, 0, 56, 0
1, 182535, Note_on_c, 0, 76, 0
1, 182535, Note_on_c, 0, 64, 0
1, 182538, Note_on_c, 0, 59, 91
1, 182606, Note_on_c, 0, 59, 0
1, 182606, Note_on_c, 0, 76, 108
1, 182606, Note_on_c, 0, 88, 124
1, 182609, Note_on_c, 0, 56, 96
1, 182676, Note_on_c, 0, 56, 0
1, 182676, Note_on_c, 0, 88, 0
1, 182676, Note_on_c, 0, 76, 0
1, 182746, Note_on_c, 0, 76, 94
1, 182746, Note_on_c, 0, 88, 108
1, 182746, Note_on_c, 0, 56, 91
1, 182816, Note_on_c, 0, 56, 0
1, 182816, Note_on_c, 0, 88, 0
1, 182816, Note_on_c, 0, 76, 0
1, 182886, Note_on_c, 0, 71, 94
1, 182886, Note_on_c, 0, 83, 108
1, 182886, Note_on_c, 0, 52, 96
1, 182957, Note_on_c, 0, 52, 0
1, 182957, Note_on_c, 0, 83, 0
1, 182957, Note_on_c, 0, 71, 0
1, 183028, Note_on_c, 0, 68, 94
1, 183028, Note_on_c, 0, 80, 108
1, 183028, Note_on_c, 0, 47, 91
1, 183098, Note_on_c, 0, 47, 0
1, 183098, Note_on_c, 0, 80, 0
1, 183098, Note_on_c, 0, 68, 0
1, 183169, Note_on_c, 0, 59, 103
1, 183239, Note_on_c, 0, 59, 0
1, 183239, Note_on_c, 0, 80, 68
1, 183309, Note_on_c, 0, 80, 0
1, 183309, Note_on_c, 0, 83, 71
1, 183309, Note_on_c, 0, 56, 68
1, 183379, Note_on_c, 0, 56, 0
1, 183379, Note_on_c, 0, 80, 68
1, 183449, Note_on_c, 0, 80, 0
1, 183449, Note_on_c, 0, 83, 0
1, 183449, Note_on_c, 0, 83, 72
1, 183452, Note_on_c, 0, 64, 74
1, 183519, Note_on_c, 0, 64, 0
1, 183519, Note_on_c, 0, 80, 68
1, 183589, Note_on_c, 0, 80, 0
1, 183589, Note_on_c, 0, 83, 0
1, 183589, Note_on_c, 0, 83, 71
1, 183592, Note_on_c, 0, 59, 69
1, 183659, Note_on_c, 0, 59, 0
1, 183659, Note_on_c, 0, 80, 68
1, 183729, Note_on_c, 0, 80, 0
1, 183729, Note_on_c, 0, 83, 0
1, 183729, Note_on_c, 0, 83, 72
1, 183732, Note_on_c, 0, 68, 73
1, 183799, Note_on_c, 0, 68, 0
1, 183799, Note_on_c, 0, 80, 68
1, 183868, Note_on_c, 0, 80, 0
1, 183868, Note_on_c, 0, 83, 0
1, 183868, Note_on_c, 0, 83, 71
1, 183871, Note_on_c, 0, 64, 62
1, 183937, Note_on_c, 0, 64, 0
1, 183937, Note_on_c, 0, 80, 68
1, 184007, Note_on_c, 0, 80, 0
1, 184007, Note_on_c, 0, 83, 0
1, 184007, Note_on_c, 0, 83, 73
1, 184010, Note_on_c, 0, 71, 71
1, 184076, Note_on_c, 0, 71, 0
1, 184076, Note_on_c, 0, 80, 68
1, 184145, Note_on_c, 0, 80, 0
1, 184145, Note_on_c, 0, 83, 0
1, 184145, Note_on_c, 0, 83, 72
1, 184148, Note_on_c, 0, 68, 62
1, 184215, Note_on_c, 0, 68, 0
1, 184215, Note_on_c, 0, 80, 68
1, 184284, Note_on_c, 0, 80, 0
1, 184284, Note_on_c, 0, 83, 0
1, 184284, Note_on_c, 0, 83, 71
1, 184287, Note_on_c, 0, 76, 71
1, 184354, Note_on_c, 0, 76, 0
1, 184354, Note_on_c, 0, 80, 68
1, 184423, Note_on_c, 0, 80, 0
1, 184423, Note_on_c, 0, 83, 0
1, 184423, Note_on_c, 0, 83, 71
1, 184426, Note_on_c, 0, 71, 62
1, 184493, Note_on_c, 0, 71, 0
1, 184493, Note_on_c, 0, 80, 68
1, 184563, Note_on_c, 0, 80, 0
1, 184563, Note_on_c, 0, 83, 0
1, 184563, Note_on_c, 0, 83, 72
1, 184566, Note_on_c, 0, 76, 71
1, 184633, Note_on_c, 0, 76, 0
1, 184633, Note_on_c, 0, 80, 68
1, 184702, Note_on_c, 0, 80, 0
1, 184702, Note_on_c, 0, 83, 0
1, 184702, Note_on_c, 0, 83, 71
1, 184705, Note_on_c, 0, 71, 60
1, 184772, Note_on_c, 0, 71, 0
1, 184772, Note_on_c, 0, 80, 68
1, 184842, Note_on_c, 0, 80, 0
1, 184842, Note_on_c, 0, 83, 0
1, 184842, Note_on_c, 0, 83, 72
1, 184845, Note_on_c, 0, 76, 71
1, 184912, Note_on_c, 0, 76, 0
1, 184912, Note_on_c, 0, 80, 68
1, 184982, Note_on_c, 0, 80, 0
1, 184982, Note_on_c, 0, 83, 0
1, 184982, Note_on_c, 0, 83, 71
1, 184985, Note_on_c, 0, 71, 62
1, 185052, Note_on_c, 0, 71, 0
1, 185052, Note_on_c, 0, 80, 68
1, 185122, Note_on_c, 0, 80, 0
1, 185122, Note_on_c, 0, 83, 0
1, 185122, Note_on_c, 0, 83, 73
1, 185125, Note_on_c, 0, 76, 71
1, 185193, Note_on_c, 0, 76, 0
1, 185193, Note_on_c, 0, 80, 68
1, 185264, Note_on_c, 0, 80, 0
1, 185264, Note_on_c, 0, 83, 0
1, 185264, Note_on_c, 0, 83, 72
1, 185267, Note_on_c, 0, 71, 63
1, 185335, Note_on_c, 0, 71, 0
1, 185335, Note_on_c, 0, 80, 68
1, 185406, Note_on_c, 0, 80, 0
1, 185406, Note_on_c, 0, 83, 0
1, 185406, Note_on_c, 0, 75, 67
1, 185476, Note_on_c, 0, 75, 0
1, 185476, Note_on_c, 0, 81, 63
1, 185546, Note_on_c, 0, 81, 0
1, 185546, Note_on_c, 0, 83, 66
1, 185546, Note_on_c, 0, 71, 58
1, 185616, Note_on_c, 0, 71, 0
1, 185616, Note_on_c, 0, 81, 62
1, 185686, Note_on_c, 0, 81, 0
1, 185686, Note_on_c, 0, 83, 0
1, 185686, Note_on_c, 0, 84, 65
1, 185689, Note_on_c, 0, 75, 64
1, 185756, Note_on_c, 0, 75, 0
1, 185756, Note_on_c, 0, 81, 61
1, 185826, Note_on_c, 0, 81, 0
1, 185826, Note_on_c, 0, 84, 0
1, 185826, Note_on_c, 0, 83, 63
1, 185829, Note_on_c, 0, 71, 57
1, 185895, Note_on_c, 0, 71, 0
1, 185895, Note_on_c, 0, 81, 60
1, 185965, Note_on_c, 0, 81, 0
1, 185965, Note_on_c, 0, 83, 0
1, 185965, Note_on_c, 0, 84, 63
1, 185968, Note_on_c, 0, 75, 62
1, 186036, Note_on_c, 0, 75, 0
1, 186036, Note_on_c, 0, 81, 59
1, 186106, Note_on_c, 0, 81, 0
1, 186106, Note_on_c, 0, 84, 0
1, 186106, Note_on_c, 0, 83, 61
1, 186109, Note_on_c, 0, 71, 53
1, 186175, Note_on_c, 0, 71, 0
1, 186175, Note_on_c, 0, 81, 58
1, 186245, Note_on_c, 0, 81, 0
1, 186245, Note_on_c, 0, 83, 0
1, 186245, Note_on_c, 0, 84, 61
1, 186248, Note_on_c, 0, 75, 60
1, 186315, Note_on_c, 0, 75, 0
1, 186315, Note_on_c, 0, 81, 57
1, 186383, Note_on_c, 0, 81, 0
1, 186383, Note_on_c, 0, 84, 0
1, 186383, Note_on_c, 0, 83, 60
1, 186386, Note_on_c, 0, 71, 52
1, 186452, Note_on_c, 0, 71, 0
1, 186452, Note_on_c, 0, 81, 56
1, 186522, Note_on_c, 0, 81, 0
1, 186522, Note_on_c, 0, 83, 0
1, 186522, Note_on_c, 0, 84, 58
1, 186525, Note_on_c, 0, 75, 57
1, 186590, Note_on_c, 0, 75, 0
1, 186590, Note_on_c, 0, 81, 55
1, 186659, Note_on_c, 0, 81, 0
1, 186659, Note_on_c, 0, 84, 0
1, 186659, Note_on_c, 0, 83, 57
1, 186662, Note_on_c, 0, 71, 51
1, 186728, Note_on_c, 0, 71, 0
1, 186728, Note_on_c, 0, 81, 55
1, 186796, Note_on_c, 0, 81, 0
1, 186796, Note_on_c, 0, 83, 0
1, 186796, Note_on_c, 0, 84, 58
1, 186799, Note_on_c, 0, 75, 57
1, 186866, Note_on_c, 0, 75, 0
1, 186866, Note_on_c, 0, 81, 55
1, 186935, Note_on_c, 0, 81, 0
1, 186935, Note_on_c, 0, 84, 0
1, 186935, Note_on_c, 0, 83, 57
1, 186938, Note_on_c, 0, 71, 52
1, 187003, Note_on_c, 0, 71, 0
1, 187003, Note_on_c, 0, 81, 55
1, 187072, Note_on_c, 0, 81, 0
1, 187072, Note_on_c, 0, 83, 0
1, 187072, Note_on_c, 0, 84, 58
1, 187075, Note_on_c, 0, 75, 57
1, 187142, Note_on_c, 0, 75, 0
1, 187142, Note_on_c, 0, 81, 55
1, 187212, Note_on_c, 0, 81, 0
1, 187212, Note_on_c, 0, 84, 0
1, 187212, Note_on_c, 0, 83, 57
1, 187215, Note_on_c, 0, 71, 50
1, 187282, Note_on_c, 0, 71, 0
1, 187282, Note_on_c, 0, 81, 55
1, 187352, Note_on_c, 0, 81, 0
1, 187352, Note_on_c, 0, 83, 0
1, 187352, Note_on_c, 0, 84, 59
1, 187355, Note_on_c, 0, 75, 57
1, 187423, Note_on_c, 0, 75, 0
1, 187423, Note_on_c, 0, 81, 55
1, 187493, Note_on_c, 0, 81, 0
1, 187493, Note_on_c, 0, 84, 0
1, 187493, Note_on_c, 0, 83, 58
1, 187496, Note_on_c, 0, 71, 51
1, 187564, Note_on_c, 0, 71, 0
1, 187564, Note_on_c, 0, 81, 55
1, 187635, Note_on_c, 0, 81, 0
1, 187635, Note_on_c, 0, 83, 0
1, 187635, Note_on_c, 0, 85, 58
1, 187638, Note_on_c, 0, 75, 58
1, 187682, Note_on_c, 0, 75, 0
1, 187682, Note_on_c, 0, 76, 53
1, 187705, Note_on_c, 0, 81, 55
1, 187728, Note_on_c, 0, 76, 0
1, 187728, Note_on_c, 0, 75, 57
1, 187775, Note_on_c, 0, 81, 0
1, 187775, Note_on_c, 0, 85, 0
1, 187775, Note_on_c, 0, 83, 57
1, 187778, Note_on_c, 0, 75, 0
1, 187778, Note_on_c, 0, 76, 52
1, 187822, Note_on_c, 0, 76, 0
1, 187822, Note_on_c, 0, 75, 57
1, 187846, Note_on_c, 0, 81, 56
1, 187869, Note_on_c, 0, 75, 0
1, 187869, Note_on_c, 0, 76, 54
1, 187916, Note_on_c, 0, 81, 0
1, 187916, Note_on_c, 0, 83, 0
1, 187916, Note_on_c, 0, 85, 59
1, 187919, Note_on_c, 0, 76, 0
1, 187919, Note_on_c, 0, 75, 58
1, 187963, Note_on_c, 0, 75, 0
1, 187963, Note_on_c, 0, 76, 54
1, 187987, Note_on_c, 0, 81, 57
1, 188011, Note_on_c, 0, 76, 0
1, 188011, Note_on_c, 0, 75, 58
1, 188057, Note_on_c, 0, 81, 0
1, 188057, Note_on_c, 0, 85, 0
1, 188057, Note_on_c, 0, 83, 59
1, 188060, Note_on_c, 0, 75, 0
1, 188060, Note_on_c, 0, 76, 54
1, 188104, Note_on_c, 0, 76, 0
1, 188104, Note_on_c, 0, 75, 59
1, 188127, Note_on_c, 0, 81, 57
1, 188151, Note_on_c, 0, 75, 0
1, 188151, Note_on_c, 0, 76, 55
1, 188197, Note_on_c, 0, 81, 0
1, 188197, Note_on_c, 0, 83, 0
1, 188197, Note_on_c, 0, 85, 61
1, 188200, Note_on_c, 0, 76, 0
1, 188200, Note_on_c, 0, 75, 59
1, 188244, Note_on_c, 0, 75, 0
1, 188244, Note_on_c, 0, 76, 56
1, 188268, Note_on_c, 0, 81, 58
1, 188291, Note_on_c, 0, 76, 0
1, 188291, Note_on_c, 0, 75, 60
1, 188338, Note_on_c, 0, 81, 0
1, 188338, Note_on_c, 0, 85, 0
1, 188338, Note_on_c, 0, 83, 61
1, 188341, Note_on_c, 0, 75, 0
1, 188341, Note_on_c, 0, 76, 56
1, 188384, Note_on_c, 0, 76, 0
1, 188384, Note_on_c, 0, 75, 60
1, 188408, Note_on_c, 0, 81, 59
1, 188430, Note_on_c, 0, 75, 0
1, 188430, Note_on_c, 0, 76, 57
1, 188477, Note_on_c, 0, 81, 0
1, 188477, Note_on_c, 0, 83, 0
1, 188477, Note_on_c, 0, 85, 64
1, 188480, Note_on_c, 0, 76, 0
1, 188480, Note_on_c, 0, 75, 61
1, 188524, Note_on_c, 0, 75, 0
1, 188524, Note_on_c, 0, 76, 57
1, 188547, Note_on_c, 0, 81, 60
1, 188570, Note_on_c, 0, 76, 0
1, 188570, Note_on_c, 0, 75, 61
1, 188617, Note_on_c, 0, 81, 0
1, 188617, Note_on_c, 0, 85, 0
1, 188617, Note_on_c, 0, 83, 64
1, 188620, Note_on_c, 0, 75, 0
1, 188620, Note_on_c, 0, 76, 57
1, 188664, Note_on_c, 0, 76, 0
1, 188664, Note_on_c, 0, 75, 62
1, 188687, Note_on_c, 0, 81, 61
1, 188710, Note_on_c, 0, 75, 0
1, 188710, Note_on_c, 0, 76, 58
1, 188756, Note_on_c, 0, 81, 0
1, 188756, Note_on_c, 0, 83, 0
1, 188756, Note_on_c, 0, 90, 65
1, 188759, Note_on_c, 0, 76, 0
1, 188759, Note_on_c, 0, 75, 62
1, 188803, Note_on_c, 0, 75, 0
1, 188803, Note_on_c, 0, 76, 57
1, 188826, Note_on_c, 0, 83, 62
1, 188826, Note_on_c, 0, 81, 62
1, 188850, Note_on_c, 0, 76, 0
1, 188850, Note_on_c, 0, 75, 63
1, 188895, Note_on_c, 0, 90, 0
1, 188895, Note_on_c, 0, 81, 0
1, 188895, Note_on_c, 0, 83, 0
1, 188898, Note_on_c, 0, 75, 0
1, 188898, Note_on_c, 0, 90, 64
1, 188898, Note_on_c, 0, 76, 58
1, 188942, Note_on_c, 0, 76, 0
1, 188942, Note_on_c, 0, 75, 63
1, 188965, Note_on_c, 0, 83, 62
1, 188965, Note_on_c, 0, 81, 62
1, 188989, Note_on_c, 0, 75, 0
1, 188989, Note_on_c, 0, 76, 58
1, 189035, Note_on_c, 0, 90, 0
1, 189035, Note_on_c, 0, 81, 0
1, 189035, Note_on_c, 0, 83, 0
1, 189038, Note_on_c, 0, 76, 0
1, 189038, Note_on_c, 0, 90, 67
1, 189038, Note_on_c, 0, 75, 64
1, 189082, Note_on_c, 0, 75, 0
1, 189082, Note_on_c, 0, 76, 59
1, 189105, Note_on_c, 0, 83, 63
1, 189105, Note_on_c, 0, 81, 63
1, 189128, Note_on_c, 0, 76, 0
1, 189128, Note_on_c, 0, 75, 64
1, 189174, Note_on_c, 0, 90, 0
1, 189174, Note_on_c, 0, 81, 0
1, 189174, Note_on_c, 0, 83, 0
1, 189177, Note_on_c, 0, 75, 0
1, 189177, Note_on_c, 0, 90, 67
1, 189177, Note_on_c, 0, 76, 60
1, 189221, Note_on_c, 0, 76, 0
1, 189221, Note_on_c, 0, 75, 65
1, 189244, Note_on_c, 0, 83, 65
1, 189244, Note_on_c, 0, 81, 65
1, 189267, Note_on_c, 0, 75, 0
1, 189267, Note_on_c, 0, 76, 60
1, 189313, Note_on_c, 0, 90, 0
1, 189313, Note_on_c, 0, 81, 0
1, 189313, Note_on_c, 0, 83, 0
1, 189316, Note_on_c, 0, 76, 0
1, 189316, Note_on_c, 0, 90, 70
1, 189316, Note_on_c, 0, 75, 65
1, 189360, Note_on_c, 0, 75, 0
1, 189360, Note_on_c, 0, 76, 59
1, 189383, Note_on_c, 0, 83, 66
1, 189383, Note_on_c, 0, 81, 66
1, 189406, Note_on_c, 0, 76, 0
1, 189406, Note_on_c, 0, 75, 66
1, 189453, Note_on_c, 0, 90, 0
1, 189453, Note_on_c, 0, 81, 0
1, 189453, Note_on_c, 0, 83, 0
1, 189456, Note_on_c, 0, 75, 0
1, 189456, Note_on_c, 0, 90, 70
1, 189456, Note_on_c, 0, 76, 59
1, 189499, Note_on_c, 0, 76, 0
1, 189499, Note_on_c, 0, 75, 66
1, 189522, Note_on_c, 0, 83, 68
1, 189522, Note_on_c, 0, 81, 68
1, 189546, Note_on_c, 0, 75, 0
1, 189546, Note_on_c, 0, 76, 61
1, 189592, Note_on_c, 0, 90, 0
1, 189592, Note_on_c, 0, 81, 0
1, 189592, Note_on_c, 0, 83, 0
1, 189595, Note_on_c, 0, 76, 0
1, 189595, Note_on_c, 0, 90, 75
1, 189595, Note_on_c, 0, 75, 71
1, 189662, Note_on_c, 0, 75, 0
1, 189662, Note_on_c, 0, 83, 69
1, 189662, Note_on_c, 0, 81, 69
1, 189665, Note_on_c, 0, 76, 65
1, 189732, Note_on_c, 0, 81, 0
1, 189732, Note_on_c, 0, 90, 0
1, 189732, Note_on_c, 0, 83, 0
1, 189735, Note_on_c, 0, 76, 0
1, 189735, Note_on_c, 0, 90, 74
1, 189735, Note_on_c, 0, 73, 73
1, 189805, Note_on_c, 0, 73, 0
1, 189805, Note_on_c, 0, 83, 70
1, 189805, Note_on_c, 0, 81, 70
1, 189808, Note_on_c, 0, 75, 68
1, 189880, Note_on_c, 0, 81, 0
1, 189880, Note_on_c, 0, 90, 0
1, 189880, Note_on_c, 0, 83, 0
1, 189883, Note_on_c, 0, 80, 93
1, 189883, Note_on_c, 0, 83, 93
1, 189883, Note_on_c, 0, 88, 93
1, 189886, Note_on_c, 0, 75, 0
1, 189886, Note_on_c, 0, 64, 69
1, 189886, Note_on_c, 0, 76, 78
1, 190455, Note_on_c, 0, 76, 0
1, 190455, Note_on_c, 0, 68, 59
1, 190455, Note_on_c, 0, 74, 66
1, 190458, Note_on_c, 0, 71, 59
1, 190735, Note_on_c, 0, 88, 0
1, 190735, Note_on_c, 0, 80, 0
1, 190735, Note_on_c, 0, 83, 0
1, 190738, Note_on_c, 0, 88, 79
1, 190805, Note_on_c, 0, 88, 0
1, 190805, Note_on_c, 0, 86, 78
1, 190875, Note_on_c, 0, 86, 0
1, 190875, Note_on_c, 0, 84, 77
1, 190945, Note_on_c, 0, 84, 0
1, 190945, Note_on_c, 0, 83, 76
1, 191015, Note_on_c, 0, 83, 0
1, 191015, Note_on_c, 0, 71, 0
1, 191015, Note_on_c, 0, 84, 79
1, 191018, Note_on_c, 0, 68, 0
1, 191018, Note_on_c, 0, 74, 0
1, 191018, Note_on_c, 0, 72, 68
1, 191021, Note_on_c, 0, 69, 60
1, 191085, Note_on_c, 0, 84, 0
1, 191085, Note_on_c, 0, 83, 78
1, 191154, Note_on_c, 0, 83, 0
1, 191154, Note_on_c, 0, 81, 77
1, 191223, Note_on_c, 0, 81, 0
1, 191223, Note_on_c, 0, 80, 76
1, 191293, Note_on_c, 0, 80, 0
1, 191293, Note_on_c, 0, 81, 72
1, 191363, Note_on_c, 0, 81, 0
1, 191363, Note_on_c, 0, 83, 73
1, 191433, Note_on_c, 0, 83, 0
1, 191433, Note_on_c, 0, 84, 74
1, 191503, Note_on_c, 0, 84, 0
1, 191503, Note_on_c, 0, 86, 75
1, 191577, Note_on_c, 0, 86, 0
1, 191577, Note_on_c, 0, 69, 0
1, 191577, Note_on_c, 0, 88, 77
1, 191580, Note_on_c, 0, 72, 0
1, 191580, Note_on_c, 0, 74, 67
1, 191580, Note_on_c, 0, 71, 60
1, 191583, Note_on_c, 0, 68, 60
1, 191647, Note_on_c, 0, 88, 0
1, 191647, Note_on_c, 0, 89, 78
1, 191717, Note_on_c, 0, 89, 0
1, 191717, Note_on_c, 0, 88, 78
1, 191787, Note_on_c, 0, 88, 0
1, 191787, Note_on_c, 0, 87, 77
1, 191857, Note_on_c, 0, 87, 0
1, 191857, Note_on_c, 0, 88, 77
1, 191927, Note_on_c, 0, 88, 0
1, 191927, Note_on_c, 0, 86, 77
1, 191998, Note_on_c, 0, 86, 0
1, 191998, Note_on_c, 0, 84, 77
1, 192068, Note_on_c, 0, 84, 0
1, 192068, Note_on_c, 0, 83, 77
1, 192138, Note_on_c, 0, 83, 0
1, 192138, Note_on_c, 0, 68, 0
1, 192138, Note_on_c, 0, 84, 78
1, 192141, Note_on_c, 0, 64, 0
1, 192141, Note_on_c, 0, 71, 0
1, 192141, Note_on_c, 0, 74, 0
1, 192144, Note_on_c, 0, 69, 61
1, 192144, Note_on_c, 0, 72, 69
1, 192209, Note_on_c, 0, 84, 0
1, 192209, Note_on_c, 0, 86, 78
1, 192279, Note_on_c, 0, 86, 0
1, 192279, Note_on_c, 0, 84, 78
1, 192350, Note_on_c, 0, 84, 0
1, 192350, Note_on_c, 0, 83, 74
1, 192421, Note_on_c, 0, 83, 0
1, 192421, Note_on_c, 0, 72, 0
1, 192421, Note_on_c, 0, 81, 77
1, 192424, Note_on_c, 0, 69, 0
1, 192492, Note_on_c, 0, 81, 0
1, 192492, Note_on_c, 0, 80, 73
1, 192564, Note_on_c, 0, 80, 0
1, 192564, Note_on_c, 0, 81, 77
1, 192635, Note_on_c, 0, 81, 0
1, 192635, Note_on_c, 0, 83, 73
1, 192706, Note_on_c, 0, 83, 0
1, 192706, Note_on_c, 0, 72, 66
1, 192706, Note_on_c, 0, 84, 80
1, 192709, Note_on_c, 0, 57, 60
1, 192709, Note_on_c, 0, 60, 60
1, 192709, Note_on_c, 0, 66, 60
1, 192712, Note_on_c, 0, 69, 68
1, 192751, Control_c, 0, 64, 127
1, 192998, Note_on_c, 0, 84, 0
1, 192998, Note_on_c, 0, 81, 73
1, 193143, Note_on_c, 0, 81, 0
1, 193143, Note_on_c, 0, 78, 73
1, 193293, Note_on_c, 0, 78, 0
1, 193293, Note_on_c, 0, 72, 0
1, 193293, Note_on_c, 0, 71, 66
1, 193296, Note_on_c, 0, 57, 0
1, 193296, Note_on_c, 0, 69, 0
1, 193296, Note_on_c, 0, 83, 78
1, 193299, Note_on_c, 0, 60, 0
1, 193299, Note_on_c, 0, 66, 0
1, 193299, Note_on_c, 0, 59, 60
1, 193302, Note_on_c, 0, 64, 60
1, 193302, Note_on_c, 0, 67, 67
1, 193302, Control_c, 0, 64, 0
1, 193411, Control_c, 0, 64, 127
1, 193585, Note_on_c, 0, 83, 0
1, 193585, Note_on_c, 0, 79, 73
1, 193730, Note_on_c, 0, 79, 0
1, 193730, Note_on_c, 0, 76, 73
1, 193881, Note_on_c, 0, 76, 0
1, 193881, Note_on_c, 0, 71, 0
1, 193881, Note_on_c, 0, 69, 66
1, 193884, Note_on_c, 0, 64, 0
1, 193884, Note_on_c, 0, 67, 0
1, 193884, Note_on_c, 0, 81, 78
1, 193887, Note_on_c, 0, 59, 0
1, 193887, Note_on_c, 0, 66, 65
1, 193887, Note_on_c, 0, 63, 58
1, 193890, Note_on_c, 0, 59, 58
1, 193890, Control_c, 0, 64, 0
1, 193999, Control_c, 0, 64, 127
1, 194173, Note_on_c, 0, 81, 0
1, 194173, Note_on_c, 0, 78, 73
1, 194319, Note_on_c, 0, 78, 0
1, 194319, Note_on_c, 0, 75, 73
1, 194465, Note_on_c, 0, 75, 0
1, 194465, Note_on_c, 0, 69, 0
1, 194465, Note_on_c, 0, 76, 93
1, 194468, Note_on_c, 0, 63, 0
1, 194468, Note_on_c, 0, 59, 0
1, 194468, Note_on_c, 0, 66, 0
1, 194471, Note_on_c, 0, 64, 77
1, 194471, Note_on_c, 0, 52, 66
1, 194471, Control_c, 0, 64, 0
1, 195040, Note_on_c, 0, 64, 0
1, 195040, Note_on_c, 0, 62, 66
1, 195040, Note_on_c, 0, 59, 59
1, 195043, Note_on_c, 0, 56, 59
1, 195324, Note_on_c, 0, 76, 0
1, 195324, Note_on_c, 0, 76, 79
1, 195394, Note_on_c, 0, 76, 0
1, 195394, Note_on_c, 0, 74, 78
1, 195464, Note_on_c, 0, 74, 0
1, 195464, Note_on_c, 0, 72, 77
1, 195534, Note_on_c, 0, 72, 0
1, 195534, Note_on_c, 0, 71, 76
1, 195604, Note_on_c, 0, 71, 0
1, 195604, Note_on_c, 0, 56, 0
1, 195604, Note_on_c, 0, 72, 79
1, 195607, Note_on_c, 0, 59, 0
1, 195607, Note_on_c, 0, 62, 0
1, 195607, Note_on_c, 0, 57, 60
1, 195610, Note_on_c, 0, 60, 68
1, 195674, Note_on_c, 0, 72, 0
1, 195674, Note_on_c, 0, 71, 78
1, 195743, Note_on_c, 0, 71, 0
1, 195743, Note_on_c, 0, 69, 77
1, 195813, Note_on_c, 0, 69, 0
1, 195813, Note_on_c, 0, 68, 76
1, 195883, Note_on_c, 0, 68, 0
1, 195883, Note_on_c, 0, 69, 72
1, 195953, Note_on_c, 0, 69, 0
1, 195953, Note_on_c, 0, 71, 73
1, 196023, Note_on_c, 0, 71, 0
1, 196023, Note_on_c, 0, 72, 74
1, 196093, Note_on_c, 0, 72, 0
1, 196093, Note_on_c, 0, 74, 75
1, 196167, Note_on_c, 0, 74, 0
1, 196167, Note_on_c, 0, 60, 0
1, 196167, Note_on_c, 0, 76, 77
1, 196170, Note_on_c, 0, 57, 0
1, 196170, Note_on_c, 0, 62, 67
1, 196170, Note_on_c, 0, 59, 60
1, 196173, Note_on_c, 0, 56, 60
1, 196237, Note_on_c, 0, 76, 0
1, 196237, Note_on_c, 0, 77, 78
1, 196307, Note_on_c, 0, 77, 0
1, 196307, Note_on_c, 0, 76, 78
1, 196377, Note_on_c, 0, 76, 0
1, 196377, Note_on_c, 0, 75, 77
1, 196447, Note_on_c, 0, 75, 0
1, 196447, Note_on_c, 0, 76, 77
1, 196517, Note_on_c, 0, 76, 0
1, 196517, Note_on_c, 0, 74, 77
1, 196586, Note_on_c, 0, 74, 0
1, 196586, Note_on_c, 0, 72, 77
1, 196656, Note_on_c, 0, 72, 0
1, 196656, Note_on_c, 0, 71, 77
1, 196726, Note_on_c, 0, 71, 0
1, 196726, Note_on_c, 0, 56, 0
1, 196726, Note_on_c, 0, 72, 78
1, 196729, Note_on_c, 0, 52, 0
1, 196729, Note_on_c, 0, 59, 0
1, 196729, Note_on_c, 0, 62, 0
1, 196732, Note_on_c, 0, 57, 69
1, 196732, Note_on_c, 0, 60, 69
1, 196796, Note_on_c, 0, 72, 0
1, 196796, Note_on_c, 0, 74, 78
1, 196866, Note_on_c, 0, 74, 0
1, 196866, Note_on_c, 0, 72, 78
1, 196937, Note_on_c, 0, 72, 0
1, 196937, Note_on_c, 0, 71, 74
1, 197008, Note_on_c, 0, 71, 0
1, 197008, Note_on_c, 0, 60, 0
1, 197008, Note_on_c, 0, 69, 77
1, 197011, Note_on_c, 0, 57, 0
1, 197079, Note_on_c, 0, 69, 0
1, 197079, Note_on_c, 0, 68, 73
1, 197150, Note_on_c, 0, 68, 0
1, 197150, Note_on_c, 0, 69, 77
1, 197222, Note_on_c, 0, 69, 0
1, 197222, Note_on_c, 0, 71, 73
1, 197293, Note_on_c, 0, 71, 0
1, 197293, Note_on_c, 0, 60, 66
1, 197293, Note_on_c, 0, 72, 80
1, 197296, Note_on_c, 0, 45, 60
1, 197296, Note_on_c, 0, 48, 60
1, 197296, Note_on_c, 0, 54, 60
1, 197299, Note_on_c, 0, 57, 68
1, 197337, Control_c, 0, 64, 127
1, 197579, Note_on_c, 0, 72, 0
1, 197579, Note_on_c, 0, 69, 73
1, 197723, Note_on_c, 0, 69, 0
1, 197723, Note_on_c, 0, 66, 73
1, 197874, Note_on_c, 0, 66, 0
1, 197874, Note_on_c, 0, 60, 0
1, 197874, Note_on_c, 0, 59, 66
1, 197877, Note_on_c, 0, 45, 0
1, 197877, Note_on_c, 0, 57, 0
1, 197877, Note_on_c, 0, 71, 78
1, 197880, Note_on_c, 0, 48, 0
1, 197880, Note_on_c, 0, 54, 0
1, 197880, Note_on_c, 0, 47, 60
1, 197883, Note_on_c, 0, 52, 60
1, 197883, Note_on_c, 0, 55, 67
1, 197883, Control_c, 0, 64, 0
1, 197990, Control_c, 0, 64, 127
1, 198162, Note_on_c, 0, 71, 0
1, 198162, Note_on_c, 0, 67, 73
1, 198308, Note_on_c, 0, 67, 0
1, 198308, Note_on_c, 0, 64, 73
1, 198458, Note_on_c, 0, 64, 0
1, 198458, Note_on_c, 0, 59, 0
1, 198458, Note_on_c, 0, 57, 66
1, 198461, Note_on_c, 0, 52, 0
1, 198461, Note_on_c, 0, 55, 0
1, 198461, Note_on_c, 0, 69, 78
1, 198464, Note_on_c, 0, 47, 0
1, 198464, Note_on_c, 0, 54, 65
1, 198464, Note_on_c, 0, 51, 58
1, 198467, Note_on_c, 0, 47, 58
1, 198467, Control_c, 0, 64, 0
1, 198528, Control_c, 0, 64, 127
1, 198750, Note_on_c, 0, 69, 0
1, 198750, Note_on_c, 0, 66, 73
1, 198897, Note_on_c, 0, 66, 0
1, 198897, Note_on_c, 0, 63, 73
1, 199045, Note_on_c, 0, 63, 0
1, 199045, Note_on_c, 0, 57, 0
1, 199045, Note_on_c, 0, 64, 76
1, 199048, Note_on_c, 0, 51, 0
1, 199048, Note_on_c, 0, 47, 0
1, 199048, Note_on_c, 0, 54, 0
1, 199051, Note_on_c, 0, 55, 65
1, 199051, Note_on_c, 0, 52, 58
1, 199051, Control_c, 0, 64, 0
1, 199193, Note_on_c, 0, 64, 0
1, 199337, Note_on_c, 0, 52, 0
1, 199337, Note_on_c, 0, 55, 0
1, 199337, Note_on_c, 0, 76, 89
1, 199340, Note_on_c, 0, 43, 63
1, 199340, Note_on_c, 0, 52, 72
1, 199485, Note_on_c, 0, 76, 0
1, 199485, Note_on_c, 0, 74, 84
1, 199632, Note_on_c, 0, 74, 0
1, 199632, Note_on_c, 0, 43, 0
1, 199632, Note_on_c, 0, 72, 87
1, 199635, Note_on_c, 0, 45, 63
1, 199780, Note_on_c, 0, 52, 0
1, 199780, Note_on_c, 0, 53, 70
1, 199927, Note_on_c, 0, 53, 0
1, 199927, Note_on_c, 0, 72, 0
1, 199927, Note_on_c, 0, 69, 82
1, 199930, Note_on_c, 0, 55, 72
1, 200075, Note_on_c, 0, 55, 0
1, 200075, Note_on_c, 0, 69, 0
1, 200075, Note_on_c, 0, 65, 75
1, 200078, Note_on_c, 0, 57, 76
1, 200228, Note_on_c, 0, 57, 0
1, 200228, Note_on_c, 0, 65, 0
1, 200228, Note_on_c, 0, 71, 72
1, 200231, Note_on_c, 0, 45, 0
1, 200231, Note_on_c, 0, 59, 62
1, 200231, Note_on_c, 0, 47, 56
1, 200234, Note_on_c, 0, 55, 56
1, 200327, Control_c, 0, 64, 127
1, 200524, Note_on_c, 0, 71, 0
1, 200524, Note_on_c, 0, 67, 67
1, 200672, Note_on_c, 0, 67, 0
1, 200672, Note_on_c, 0, 64, 67
1, 200820, Note_on_c, 0, 64, 0
1, 200820, Note_on_c, 0, 55, 0
1, 200820, Note_on_c, 0, 69, 72
1, 200823, Note_on_c, 0, 59, 0
1, 200823, Note_on_c, 0, 54, 54
1, 200823, Note_on_c, 0, 57, 60
1, 200823, Control_c, 0, 64, 0
1, 200876, Control_c, 0, 64, 127
1, 201116, Note_on_c, 0, 69, 0
1, 201116, Note_on_c, 0, 66, 67
1, 201265, Note_on_c, 0, 66, 0
1, 201265, Note_on_c, 0, 63, 67
1, 201413, Note_on_c, 0, 63, 0
1, 201413, Note_on_c, 0, 57, 0
1, 201413, Note_on_c, 0, 64, 76
1, 201416, Note_on_c, 0, 54, 0
1, 201416, Note_on_c, 0, 47, 0
1, 201416, Note_on_c, 0, 48, 58
1, 201419, Note_on_c, 0, 52, 58
1, 201419, Note_on_c, 0, 55, 65
1, 201419, Control_c, 0, 64, 0
1, 201561, Note_on_c, 0, 64, 0
1, 201707, Note_on_c, 0, 55, 0
1, 201707, Note_on_c, 0, 52, 0
1, 201707, Note_on_c, 0, 72, 88
1, 201710, Note_on_c, 0, 48, 0
1, 201710, Note_on_c, 0, 40, 63
1, 201710, Note_on_c, 0, 48, 72
1, 201855, Note_on_c, 0, 72, 0
1, 201855, Note_on_c, 0, 71, 84
1, 202003, Note_on_c, 0, 71, 0
1, 202003, Note_on_c, 0, 40, 0
1, 202003, Note_on_c, 0, 69, 87
1, 202006, Note_on_c, 0, 41, 63
1, 202151, Note_on_c, 0, 48, 0
1, 202151, Note_on_c, 0, 50, 70
1, 202299, Note_on_c, 0, 50, 0
1, 202299, Note_on_c, 0, 69, 0
1, 202299, Note_on_c, 0, 65, 82
1, 202302, Note_on_c, 0, 52, 72
1, 202447, Note_on_c, 0, 52, 0
1, 202447, Note_on_c, 0, 65, 0
1, 202447, Note_on_c, 0, 62, 75
1, 202450, Note_on_c, 0, 53, 76
1, 202602, Note_on_c, 0, 53, 0
1, 202602, Note_on_c, 0, 62, 0
1, 202602, Note_on_c, 0, 67, 72
1, 202605, Note_on_c, 0, 41, 0
1, 202605, Note_on_c, 0, 52, 56
1, 202605, Note_on_c, 0, 43, 56
1, 202608, Note_on_c, 0, 55, 62
1, 202701, Control_c, 0, 64, 127
1, 202899, Note_on_c, 0, 67, 0
1, 202899, Note_on_c, 0, 64, 67
1, 203048, Note_on_c, 0, 64, 0
1, 203048, Note_on_c, 0, 60, 67
1, 203201, Note_on_c, 0, 60, 0
1, 203201, Note_on_c, 0, 55, 0
1, 203201, Note_on_c, 0, 65, 72
1, 203204, Note_on_c, 0, 52, 0
1, 203204, Note_on_c, 0, 53, 60
1, 203204, Note_on_c, 0, 50, 54
1, 203207, Control_c, 0, 64, 0
1, 203297, Control_c, 0, 64, 127
1, 203499, Note_on_c, 0, 65, 0
1, 203499, Note_on_c, 0, 62, 67
1, 203648, Note_on_c, 0, 62, 0
1, 203648, Note_on_c, 0, 59, 67
1, 203802, Note_on_c, 0, 59, 0
1, 203802, Note_on_c, 0, 50, 0
1, 203802, Note_on_c, 0, 60, 76
1, 203805, Note_on_c, 0, 53, 0
1, 203805, Note_on_c, 0, 43, 0
1, 203805, Note_on_c, 0, 48, 58
1, 203808, Control_c, 0, 64, 0
1, 203808, Note_on_c, 0, 52, 65
1, 204101, Note_on_c, 0, 52, 0
1, 204101, Note_on_c, 0, 60, 0
1, 204101, Note_on_c, 0, 77, 90
1, 204104, Note_on_c, 0, 48, 0
1, 204104, Note_on_c, 0, 45, 63
1, 204104, Note_on_c, 0, 53, 72
1, 204249, Note_on_c, 0, 77, 0
1, 204249, Note_on_c, 0, 76, 85
1, 204397, Note_on_c, 0, 76, 0
1, 204397, Note_on_c, 0, 45, 0
1, 204397, Note_on_c, 0, 74, 87
1, 204400, Note_on_c, 0, 46, 63
1, 204545, Note_on_c, 0, 53, 0
1, 204545, Note_on_c, 0, 55, 70
1, 204693, Note_on_c, 0, 55, 0
1, 204693, Note_on_c, 0, 74, 0
1, 204693, Note_on_c, 0, 70, 82
1, 204696, Note_on_c, 0, 57, 72
1, 204842, Note_on_c, 0, 57, 0
1, 204842, Note_on_c, 0, 70, 0
1, 204842, Note_on_c, 0, 67, 75
1, 204845, Note_on_c, 0, 58, 76
1, 204996, Note_on_c, 0, 58, 0
1, 204996, Note_on_c, 0, 67, 0
1, 204996, Note_on_c, 0, 72, 72
1, 204999, Note_on_c, 0, 46, 0
1, 204999, Note_on_c, 0, 60, 62
1, 204999, Note_on_c, 0, 48, 56
1, 205002, Note_on_c, 0, 57, 56
1, 205095, Control_c, 0, 64, 127
1, 205293, Note_on_c, 0, 72, 0
1, 205293, Note_on_c, 0, 69, 67
1, 205442, Note_on_c, 0, 69, 0
1, 205442, Note_on_c, 0, 65, 67
1, 205595, Note_on_c, 0, 65, 0
1, 205595, Note_on_c, 0, 57, 0
1, 205595, Note_on_c, 0, 70, 72
1, 205598, Note_on_c, 0, 60, 0
1, 205598, Note_on_c, 0, 55, 54
1, 205598, Note_on_c, 0, 58, 60
1, 205598, Control_c, 0, 64, 0
1, 205700, Control_c, 0, 64, 127
1, 205893, Note_on_c, 0, 70, 0
1, 205893, Note_on_c, 0, 67, 67
1, 206043, Note_on_c, 0, 67, 0
1, 206043, Note_on_c, 0, 64, 67
1, 206197, Note_on_c, 0, 64, 0
1, 206197, Note_on_c, 0, 58, 0
1, 206197, Note_on_c, 0, 65, 76
1, 206200, Note_on_c, 0, 55, 0
1, 206200, Note_on_c, 0, 48, 0
1, 206200, Note_on_c, 0, 50, 58
1, 206203, Note_on_c, 0, 53, 58
1, 206203, Note_on_c, 0, 57, 65
1, 206203, Control_c, 0, 64, 0
1, 206350, Note_on_c, 0, 65, 0
1, 206505, Note_on_c, 0, 57, 0
1, 206505, Note_on_c, 0, 53, 0
1, 206505, Note_on_c, 0, 65, 89
1, 206508, Note_on_c, 0, 50, 0
1, 206508, Note_on_c, 0, 33, 63
1, 206508, Note_on_c, 0, 41, 72
1, 206654, Note_on_c, 0, 65, 0
1, 206654, Note_on_c, 0, 64, 84
1, 206802, Note_on_c, 0, 64, 0
1, 206802, Note_on_c, 0, 33, 0
1, 206802, Note_on_c, 0, 62, 87
1, 206805, Note_on_c, 0, 34, 63
1, 206950, Note_on_c, 0, 41, 0
1, 206950, Note_on_c, 0, 43, 70
1, 207098, Note_on_c, 0, 43, 0
1, 207098, Note_on_c, 0, 62, 0
1, 207098, Note_on_c, 0, 58, 82
1, 207101, Note_on_c, 0, 45, 72
1, 207246, Note_on_c, 0, 45, 0
1, 207246, Note_on_c, 0, 58, 0
1, 207246, Note_on_c, 0, 55, 75
1, 207249, Note_on_c, 0, 46, 76
1, 207400, Note_on_c, 0, 46, 0
1, 207400, Note_on_c, 0, 55, 0
1, 207400, Note_on_c, 0, 60, 72
1, 207403, Note_on_c, 0, 34, 0
1, 207403, Note_on_c, 0, 48, 62
1, 207403, Note_on_c, 0, 36, 56
1, 207406, Note_on_c, 0, 45, 56
1, 207499, Control_c, 0, 64, 127
1, 207698, Note_on_c, 0, 60, 0
1, 207698, Note_on_c, 0, 57, 67
1, 207846, Note_on_c, 0, 57, 0
1, 207846, Note_on_c, 0, 53, 67
1, 208000, Note_on_c, 0, 53, 0
1, 208000, Note_on_c, 0, 45, 0
1, 208000, Note_on_c, 0, 58, 72
1, 208003, Note_on_c, 0, 48, 0
1, 208003, Note_on_c, 0, 43, 54
1, 208003, Note_on_c, 0, 46, 60
1, 208006, Control_c, 0, 64, 0
1, 208170, Control_c, 0, 64, 127
1, 208298, Note_on_c, 0, 58, 0
1, 208298, Note_on_c, 0, 55, 67
1, 208447, Note_on_c, 0, 55, 0
1, 208447, Note_on_c, 0, 52, 67
1, 208601, Note_on_c, 0, 52, 0
1, 208601, Note_on_c, 0, 45, 54
1, 208601, Note_on_c, 0, 53, 61
1, 208604, Note_on_c, 0, 46, 0
1, 208604, Note_on_c, 0, 43, 0
1, 208604, Control_c, 0, 91, 127
1, 208607, Note_on_c, 0, 36, 0
1, 208607, Note_on_c, 0, 41, 49
1, 208607, Control_c, 0, 64, 0
1, 208610, Note_on_c, 0, 29, 46
1, 208610, Control_c, 0, 64, 0
1, 208671, Note_on_c, 0, 29, 0
1, 208671, Note_on_c, 0, 41, 0
1, 208671, Note_on_c, 0, 45, 0
1, 208741, Note_on_c, 0, 53, 0
1, 208741, Note_on_c, 0, 41, 49
1, 208741, Note_on_c, 0, 45, 54
1, 208744, Note_on_c, 0, 36, 47
1, 208744, Note_on_c, 0, 29, 43
1, 208811, Note_on_c, 0, 29, 0
1, 208811, Note_on_c, 0, 41, 0
1, 208811, Note_on_c, 0, 45, 0
1, 208814, Note_on_c, 0, 36, 0
1, 208881, Note_on_c, 0, 41, 49
1, 208881, Note_on_c, 0, 45, 54
1, 208881, Note_on_c, 0, 36, 47
1, 208884, Note_on_c, 0, 29, 43
1, 208950, Note_on_c, 0, 29, 0
1, 208950, Note_on_c, 0, 41, 0
1, 208950, Note_on_c, 0, 45, 0
1, 208953, Note_on_c, 0, 36, 0
1, 209020, Note_on_c, 0, 41, 49
1, 209020, Note_on_c, 0, 45, 55
1, 209020, Note_on_c, 0, 36, 48
1, 209023, Note_on_c, 0, 29, 43
1, 209090, Note_on_c, 0, 29, 0
1, 209090, Note_on_c, 0, 41, 0
1, 209090, Note_on_c, 0, 45, 0
1, 209093, Note_on_c, 0, 36, 0
1, 209159, Note_on_c, 0, 41, 49
1, 209159, Note_on_c, 0, 45, 55
1, 209159, Note_on_c, 0, 36, 48
1, 209162, Note_on_c, 0, 29, 43
1, 209229, Note_on_c, 0, 29, 0
1, 209229, Note_on_c, 0, 41, 0
1, 209229, Note_on_c, 0, 45, 0
1, 209232, Note_on_c, 0, 36, 0
1, 209299, Note_on_c, 0, 41, 49
1, 209299, Note_on_c, 0, 45, 55
1, 209299, Note_on_c, 0, 36, 49
1, 209302, Note_on_c, 0, 29, 44
1, 209370, Note_on_c, 0, 29, 0
1, 209370, Note_on_c, 0, 41, 0
1, 209370, Note_on_c, 0, 45, 0
1, 209373, Note_on_c, 0, 36, 0
1, 209440, Note_on_c, 0, 41, 50
1, 209440, Note_on_c, 0, 45, 56
1, 209440, Note_on_c, 0, 36, 49
1, 209443, Note_on_c, 0, 29, 44
1, 209510, Note_on_c, 0, 29, 0
1, 209510, Note_on_c, 0, 41, 0
1, 209510, Note_on_c, 0, 45, 0
1, 209513, Note_on_c, 0, 36, 0
1, 209579, Note_on_c, 0, 41, 50
1, 209579, Note_on_c, 0, 45, 56
1, 209579, Note_on_c, 0, 36, 50
1, 209582, Note_on_c, 0, 29, 45
1, 209649, Note_on_c, 0, 29, 0
1, 209649, Note_on_c, 0, 41, 0
1, 209649, Note_on_c, 0, 45, 0
1, 209652, Note_on_c, 0, 36, 0
1, 209719, Note_on_c, 0, 41, 51
1, 209719, Note_on_c, 0, 45, 57
1, 209719, Note_on_c, 0, 29, 46
1, 209722, Note_on_c, 0, 36, 51
1, 209789, Note_on_c, 0, 36, 0
1, 209789, Note_on_c, 0, 41, 0
1, 209789, Note_on_c, 0, 45, 0
1, 209792, Note_on_c, 0, 29, 0
1, 209859, Note_on_c, 0, 41, 51
1, 209859, Note_on_c, 0, 45, 57
1, 209859, Note_on_c, 0, 29, 43
1, 209862, Note_on_c, 0, 36, 48
1, 209929, Note_on_c, 0, 36, 0
1, 209929, Note_on_c, 0, 41, 0
1, 209929, Note_on_c, 0, 45, 0
1, 209932, Note_on_c, 0, 29, 0
1, 209999, Note_on_c, 0, 41, 52
1, 209999, Note_on_c, 0, 45, 58
1, 209999, Note_on_c, 0, 29, 44
1, 210002, Note_on_c, 0, 36, 49
1, 210069, Note_on_c, 0, 36, 0
1, 210069, Note_on_c, 0, 41, 0
1, 210069, Note_on_c, 0, 45, 0
1, 210072, Note_on_c, 0, 29, 0
1, 210138, Note_on_c, 0, 41, 53
1, 210138, Note_on_c, 0, 45, 59
1, 210138, Note_on_c, 0, 29, 45
1, 210141, Note_on_c, 0, 36, 50
1, 210208, Note_on_c, 0, 36, 0
1, 210208, Note_on_c, 0, 41, 0
1, 210208, Note_on_c, 0, 45, 0
1, 210211, Note_on_c, 0, 29, 0
1, 210278, Note_on_c, 0, 41, 54
1, 210278, Note_on_c, 0, 45, 60
1, 210278, Note_on_c, 0, 29, 46
1, 210281, Note_on_c, 0, 36, 51
1, 210348, Note_on_c, 0, 36, 0
1, 210348, Note_on_c, 0, 41, 0
1, 210348, Note_on_c, 0, 45, 0
1, 210351, Note_on_c, 0, 29, 0
1, 210418, Note_on_c, 0, 41, 55
1, 210418, Note_on_c, 0, 45, 61
1, 210418, Note_on_c, 0, 29, 46
1, 210421, Note_on_c, 0, 36, 51
1, 210488, Note_on_c, 0, 36, 0
1, 210488, Note_on_c, 0, 41, 0
1, 210488, Note_on_c, 0, 45, 0
1, 210491, Note_on_c, 0, 29, 0
1, 210558, Note_on_c, 0, 43, 55
1, 210558, Note_on_c, 0, 47, 61
1, 210558, Note_on_c, 0, 29, 46
1, 210561, Note_on_c, 0, 38, 51
1, 210628, Note_on_c, 0, 38, 0
1, 210628, Note_on_c, 0, 43, 0
1, 210628, Note_on_c, 0, 47, 0
1, 210631, Note_on_c, 0, 29, 0
1, 210698, Note_on_c, 0, 43, 55
1, 210698, Note_on_c, 0, 47, 61
1, 210698, Note_on_c, 0, 29, 46
1, 210701, Note_on_c, 0, 38, 51
1, 210768, Note_on_c, 0, 38, 0
1, 210768, Note_on_c, 0, 43, 0
1, 210768, Note_on_c, 0, 47, 0
1, 210771, Note_on_c, 0, 29, 0
1, 210838, Note_on_c, 0, 48, 67
1, 210838, Note_on_c, 0, 40, 46
1, 210838, Note_on_c, 0, 43, 51
1, 210943, Note_on_c, 0, 43, 0
1, 210943, Note_on_c, 0, 40, 0
1, 210978, Note_on_c, 0, 40, 46
1, 210978, Note_on_c, 0, 43, 51
1, 211083, Note_on_c, 0, 43, 0
1, 211083, Note_on_c, 0, 40, 0
1, 211118, Note_on_c, 0, 40, 46
1, 211118, Note_on_c, 0, 43, 51
1, 211223, Note_on_c, 0, 43, 0
1, 211223, Note_on_c, 0, 40, 0
1, 211258, Note_on_c, 0, 48, 0
1, 211258, Note_on_c, 0, 52, 61
1, 211258, Note_on_c, 0, 40, 46
1, 211261, Note_on_c, 0, 43, 51
1, 211328, Note_on_c, 0, 52, 0
1, 211328, Note_on_c, 0, 50, 61
1, 211363, Note_on_c, 0, 43, 0
1, 211363, Note_on_c, 0, 40, 0
1, 211398, Note_on_c, 0, 50, 0
1, 211398, Note_on_c, 0, 48, 66
1, 211398, Note_on_c, 0, 40, 46
1, 211401, Note_on_c, 0, 43, 51
1, 211468, Note_on_c, 0, 48, 0
1, 211503, Note_on_c, 0, 43, 0
1, 211503, Note_on_c, 0, 40, 0
1, 211538, Note_on_c, 0, 40, 46
1, 211538, Note_on_c, 0, 43, 51
1, 211643, Note_on_c, 0, 43, 0
1, 211643, Note_on_c, 0, 40, 0
1, 211678, Note_on_c, 0, 40, 46
1, 211678, Note_on_c, 0, 43, 51
1, 211783, Note_on_c, 0, 43, 0
1, 211783, Note_on_c, 0, 40, 0
1, 211818, Note_on_c, 0, 40, 46
1, 211818, Note_on_c, 0, 43, 51
1, 211926, Note_on_c, 0, 43, 0
1, 211926, Note_on_c, 0, 40, 0
1, 211926, Note_on_c, 0, 78, 67
1, 211961, Note_on_c, 0, 78, 0
1, 211961, Note_on_c, 0, 79, 78
1, 211961, Note_on_c, 0, 39, 46
1, 211964, Note_on_c, 0, 43, 51
1, 212066, Note_on_c, 0, 43, 0
1, 212066, Note_on_c, 0, 39, 0
1, 212101, Note_on_c, 0, 39, 46
1, 212101, Note_on_c, 0, 43, 51
1, 212206, Note_on_c, 0, 43, 0
1, 212206, Note_on_c, 0, 39, 0
1, 212241, Note_on_c, 0, 39, 46
1, 212241, Note_on_c, 0, 43, 51
1, 212311, Note_on_c, 0, 79, 0
1, 212311, Note_on_c, 0, 77, 69
1, 212346, Note_on_c, 0, 43, 0
1, 212346, Note_on_c, 0, 39, 0
1, 212381, Note_on_c, 0, 77, 0
1, 212381, Note_on_c, 0, 75, 68
1, 212381, Note_on_c, 0, 39, 46
1, 212384, Note_on_c, 0, 43, 51
1, 212451, Note_on_c, 0, 75, 0
1, 212451, Note_on_c, 0, 74, 66
1, 212486, Note_on_c, 0, 43, 0
1, 212486, Note_on_c, 0, 39, 0
1, 212521, Note_on_c, 0, 74, 0
1, 212521, Note_on_c, 0, 72, 65
1, 212521, Note_on_c, 0, 39, 46
1, 212524, Note_on_c, 0, 43, 51
1, 212626, Note_on_c, 0, 43, 0
1, 212626, Note_on_c, 0, 39, 0
1, 212661, Note_on_c, 0, 72, 0
1, 212661, Note_on_c, 0, 39, 46
1, 212661, Note_on_c, 0, 43, 51
1, 212766, Note_on_c, 0, 43, 0
1, 212766, Note_on_c, 0, 39, 0
1, 212801, Note_on_c, 0, 39, 46
1, 212801, Note_on_c, 0, 43, 51
1, 212906, Note_on_c, 0, 43, 0
1, 212906, Note_on_c, 0, 39, 0
1, 212941, Note_on_c, 0, 39, 46
1, 212941, Note_on_c, 0, 43, 51
1, 213048, Note_on_c, 0, 43, 0
1, 213048, Note_on_c, 0, 39, 0
1, 213084, Note_on_c, 0, 54, 67
1, 213084, Note_on_c, 0, 38, 46
1, 213084, Note_on_c, 0, 45, 51
1, 213189, Note_on_c, 0, 45, 0
1, 213189, Note_on_c, 0, 38, 0
1, 213224, Note_on_c, 0, 38, 46
1, 213224, Note_on_c, 0, 45, 51
1, 213329, Note_on_c, 0, 45, 0
1, 213329, Note_on_c, 0, 38, 0
1, 213364, Note_on_c, 0, 38, 46
1, 213364, Note_on_c, 0, 45, 51
1, 213469, Note_on_c, 0, 45, 0
1, 213469, Note_on_c, 0, 38, 0
1, 213504, Note_on_c, 0, 54, 0
1, 213504, Note_on_c, 0, 57, 61
1, 213504, Note_on_c, 0, 38, 46
1, 213507, Note_on_c, 0, 45, 51
1, 213573, Note_on_c, 0, 57, 0
1, 213573, Note_on_c, 0, 55, 61
1, 213607, Note_on_c, 0, 45, 0
1, 213607, Note_on_c, 0, 38, 0
1, 213642, Note_on_c, 0, 55, 0
1, 213642, Note_on_c, 0, 54, 66
1, 213642, Note_on_c, 0, 38, 46
1, 213645, Note_on_c, 0, 45, 51
1, 213713, Note_on_c, 0, 54, 0
1, 213749, Note_on_c, 0, 45, 0
1, 213749, Note_on_c, 0, 38, 0
1, 213785, Note_on_c, 0, 38, 46
1, 213785, Note_on_c, 0, 45, 51
1, 213892, Note_on_c, 0, 45, 0
1, 213892, Note_on_c, 0, 38, 0
1, 213928, Note_on_c, 0, 38, 46
1, 213928, Note_on_c, 0, 45, 51
1, 214035, Note_on_c, 0, 45, 0
1, 214035, Note_on_c, 0, 38, 0
1, 214071, Note_on_c, 0, 38, 46
1, 214071, Note_on_c, 0, 45, 51
1, 214181, Note_on_c, 0, 45, 0
1, 214181, Note_on_c, 0, 38, 0
1, 214181, Note_on_c, 0, 86, 67
1, 214217, Note_on_c, 0, 86, 0
1, 214217, Note_on_c, 0, 87, 78
1, 214217, Note_on_c, 0, 42, 46
1, 214220, Note_on_c, 0, 50, 51
1, 214322, Note_on_c, 0, 50, 0
1, 214322, Note_on_c, 0, 42, 0
1, 214357, Note_on_c, 0, 42, 46
1, 214357, Note_on_c, 0, 50, 51
1, 214462, Note_on_c, 0, 50, 0
1, 214462, Note_on_c, 0, 42, 0
1, 214497, Note_on_c, 0, 42, 46
1, 214497, Note_on_c, 0, 50, 51
1, 214567, Note_on_c, 0, 87, 0
1, 214567, Note_on_c, 0, 86, 69
1, 214601, Note_on_c, 0, 50, 0
1, 214601, Note_on_c, 0, 42, 0
1, 214636, Note_on_c, 0, 86, 0
1, 214636, Note_on_c, 0, 84, 68
1, 214636, Note_on_c, 0, 42, 46
1, 214639, Note_on_c, 0, 50, 51
1, 214705, Note_on_c, 0, 84, 0
1, 214705, Note_on_c, 0, 82, 66
1, 214739, Note_on_c, 0, 50, 0
1, 214739, Note_on_c, 0, 42, 0
1, 214774, Note_on_c, 0, 82, 0
1, 214774, Note_on_c, 0, 81, 65
1, 214774, Note_on_c, 0, 42, 46
1, 214777, Note_on_c, 0, 50, 51
1, 214880, Note_on_c, 0, 50, 0
1, 214880, Note_on_c, 0, 42, 0
1, 214916, Note_on_c, 0, 81, 0
1, 214916, Note_on_c, 0, 42, 46
1, 214916, Note_on_c, 0, 50, 51
1, 215023, Note_on_c, 0, 50, 0
1, 215023, Note_on_c, 0, 42, 0
1, 215058, Note_on_c, 0, 42, 46
1, 215058, Note_on_c, 0, 50, 51
1, 215165, Note_on_c, 0, 50, 0
1, 215165, Note_on_c, 0, 42, 0
1, 215200, Note_on_c, 0, 42, 46
1, 215200, Note_on_c, 0, 50, 51
1, 215309, Note_on_c, 0, 50, 0
1, 215309, Note_on_c, 0, 42, 0
1, 215346, Note_on_c, 0, 58, 78
1, 215346, Note_on_c, 0, 43, 51
1, 215416, Note_on_c, 0, 50, 47
1, 215474, Note_on_c, 0, 43, 0
1, 215486, Note_on_c, 0, 50, 0
1, 215486, Note_on_c, 0, 58, 0
1, 215486, Note_on_c, 0, 62, 69
1, 215489, Note_on_c, 0, 43, 51
1, 215554, Note_on_c, 0, 62, 0
1, 215554, Note_on_c, 0, 60, 69
1, 215554, Note_on_c, 0, 50, 48
1, 215611, Note_on_c, 0, 43, 0
1, 215623, Note_on_c, 0, 50, 0
1, 215623, Note_on_c, 0, 60, 0
1, 215623, Note_on_c, 0, 58, 72
1, 215626, Note_on_c, 0, 43, 51
1, 215693, Note_on_c, 0, 50, 47
1, 215751, Note_on_c, 0, 43, 0
1, 215763, Note_on_c, 0, 50, 0
1, 215763, Note_on_c, 0, 58, 0
1, 215763, Note_on_c, 0, 43, 51
1, 215833, Note_on_c, 0, 50, 46
1, 215891, Note_on_c, 0, 43, 0
1, 215903, Note_on_c, 0, 50, 0
1, 215903, Note_on_c, 0, 84, 75
1, 215903, Note_on_c, 0, 45, 52
1, 215972, Note_on_c, 0, 84, 0
1, 215972, Note_on_c, 0, 82, 73
1, 215972, Note_on_c, 0, 50, 47
1, 216029, Note_on_c, 0, 45, 0
1, 216040, Note_on_c, 0, 50, 0
1, 216040, Note_on_c, 0, 82, 0
1, 216040, Note_on_c, 0, 81, 71
1, 216043, Note_on_c, 0, 45, 52
1, 216109, Note_on_c, 0, 81, 0
1, 216109, Note_on_c, 0, 79, 69
1, 216109, Note_on_c, 0, 50, 48
1, 216167, Note_on_c, 0, 45, 0
1, 216178, Note_on_c, 0, 50, 0
1, 216178, Note_on_c, 0, 79, 0
1, 216178, Note_on_c, 0, 78, 72
1, 216181, Note_on_c, 0, 45, 52
1, 216248, Note_on_c, 0, 50, 49
1, 216307, Note_on_c, 0, 45, 0
1, 216318, Note_on_c, 0, 50, 0
1, 216318, Note_on_c, 0, 78, 0
1, 216318, Note_on_c, 0, 45, 52
1, 216388, Note_on_c, 0, 50, 48
1, 216446, Note_on_c, 0, 45, 0
1, 216458, Note_on_c, 0, 50, 0
1, 216458, Note_on_c, 0, 67, 78
1, 216458, Note_on_c, 0, 46, 51
1, 216528, Note_on_c, 0, 50, 47
1, 216586, Note_on_c, 0, 46, 0
1, 216598, Note_on_c, 0, 50, 0
1, 216598, Note_on_c, 0, 67, 0
1, 216598, Note_on_c, 0, 70, 69
1, 216601, Note_on_c, 0, 46, 51
1, 216667, Note_on_c, 0, 70, 0
1, 216667, Note_on_c, 0, 69, 69
1, 216667, Note_on_c, 0, 50, 48
1, 216724, Note_on_c, 0, 46, 0
1, 216735, Note_on_c, 0, 50, 0
1, 216735, Note_on_c, 0, 69, 0
1, 216735, Note_on_c, 0, 67, 72
1, 216738, Note_on_c, 0, 46, 51
1, 216805, Note_on_c, 0, 50, 47
1, 216863, Note_on_c, 0, 46, 0
1, 216875, Note_on_c, 0, 50, 0
1, 216875, Note_on_c, 0, 67, 0
1, 216875, Note_on_c, 0, 46, 51
1, 216945, Note_on_c, 0, 50, 46
1, 217007, Note_on_c, 0, 46, 0
1, 217019, Note_on_c, 0, 50, 0
1, 217019, Note_on_c, 0, 87, 75
1, 217019, Note_on_c, 0, 42, 52
1, 217088, Note_on_c, 0, 87, 0
1, 217088, Note_on_c, 0, 86, 73
1, 217088, Note_on_c, 0, 50, 47
1, 217146, Note_on_c, 0, 42, 0
1, 217157, Note_on_c, 0, 50, 0
1, 217157, Note_on_c, 0, 86, 0
1, 217157, Note_on_c, 0, 84, 71
1, 217160, Note_on_c, 0, 42, 52
1, 217226, Note_on_c, 0, 84, 0
1, 217226, Note_on_c, 0, 82, 69
1, 217226, Note_on_c, 0, 50, 48
1, 217283, Note_on_c, 0, 42, 0
1, 217295, Note_on_c, 0, 50, 0
1, 217295, Note_on_c, 0, 82, 0
1, 217295, Note_on_c, 0, 81, 72
1, 217298, Note_on_c, 0, 42, 52
1, 217365, Note_on_c, 0, 50, 49
1, 217423, Note_on_c, 0, 42, 0
1, 217435, Note_on_c, 0, 50, 0
1, 217435, Note_on_c, 0, 81, 0
1, 217435, Note_on_c, 0, 42, 52
1, 217505, Note_on_c, 0, 50, 48
1, 217563, Note_on_c, 0, 42, 0
1, 217575, Note_on_c, 0, 50, 0
1, 217575, Note_on_c, 0, 58, 80
1, 217575, Note_on_c, 0, 43, 52
1, 217645, Note_on_c, 0, 50, 48
1, 217703, Note_on_c, 0, 43, 0
1, 217715, Note_on_c, 0, 50, 0
1, 217715, Note_on_c, 0, 58, 0
1, 217715, Note_on_c, 0, 62, 71
1, 217718, Note_on_c, 0, 43, 52
1, 217783, Note_on_c, 0, 62, 0
1, 217783, Note_on_c, 0, 60, 72
1, 217783, Note_on_c, 0, 50, 50
1, 217840, Note_on_c, 0, 43, 0
1, 217852, Note_on_c, 0, 50, 0
1, 217852, Note_on_c, 0, 60, 0
1, 217852, Note_on_c, 0, 58, 77
1, 217855, Note_on_c, 0, 43, 53
1, 217922, Note_on_c, 0, 50, 49
1, 217980, Note_on_c, 0, 43, 0
1, 217992, Note_on_c, 0, 50, 0
1, 217992, Note_on_c, 0, 58, 0
1, 217992, Note_on_c, 0, 43, 55
1, 218062, Note_on_c, 0, 50, 50
1, 218120, Note_on_c, 0, 43, 0
1, 218132, Note_on_c, 0, 50, 0
1, 218132, Note_on_c, 0, 84, 84
1, 218132, Note_on_c, 0, 45, 57
1, 218201, Note_on_c, 0, 84, 0
1, 218201, Note_on_c, 0, 82, 84
1, 218201, Note_on_c, 0, 50, 52
1, 218258, Note_on_c, 0, 45, 0
1, 218269, Note_on_c, 0, 50, 0
1, 218269, Note_on_c, 0, 82, 0
1, 218269, Note_on_c, 0, 81, 83
1, 218272, Note_on_c, 0, 45, 59
1, 218338, Note_on_c, 0, 81, 0
1, 218338, Note_on_c, 0, 79, 81
1, 218338, Note_on_c, 0, 50, 56
1, 218396, Note_on_c, 0, 45, 0
1, 218407, Note_on_c, 0, 50, 0
1, 218407, Note_on_c, 0, 79, 0
1, 218407, Note_on_c, 0, 78, 85
1, 218410, Note_on_c, 0, 45, 61
1, 218477, Note_on_c, 0, 50, 58
1, 218536, Note_on_c, 0, 45, 0
1, 218547, Note_on_c, 0, 50, 0
1, 218547, Note_on_c, 0, 78, 0
1, 218547, Note_on_c, 0, 45, 64
1, 218617, Note_on_c, 0, 50, 59
1, 218676, Note_on_c, 0, 45, 0
1, 218687, Note_on_c, 0, 50, 0
1, 218687, Note_on_c, 0, 74, 94
1, 218687, Note_on_c, 0, 46, 66
1, 218756, Note_on_c, 0, 74, 0
1, 218756, Note_on_c, 0, 72, 92
1, 218756, Note_on_c, 0, 50, 60
1, 218814, Note_on_c, 0, 46, 0
1, 218825, Note_on_c, 0, 50, 0
1, 218825, Note_on_c, 0, 72, 0
1, 218825, Note_on_c, 0, 70, 92
1, 218828, Note_on_c, 0, 46, 69
1, 218894, Note_on_c, 0, 70, 0
1, 218894, Note_on_c, 0, 69, 88
1, 218894, Note_on_c, 0, 50, 63
1, 218951, Note_on_c, 0, 46, 0
1, 218963, Note_on_c, 0, 50, 0
1, 218963, Note_on_c, 0, 69, 0
1, 218963, Note_on_c, 0, 67, 95
1, 218966, Note_on_c, 0, 46, 71
1, 219036, Note_on_c, 0, 55, 67
1, 219097, Note_on_c, 0, 46, 0
1, 219110, Note_on_c, 0, 55, 0
1, 219110, Note_on_c, 0, 67, 0
1, 219110, Note_on_c, 0, 46, 75
1, 219185, Note_on_c, 0, 55, 72
1, 219251, Note_on_c, 0, 46, 0
1, 219264, Note_on_c, 0, 55, 0
1, 219264, Note_on_c, 0, 80, 108
1, 219264, Note_on_c, 0, 47, 85
1, 219333, Note_on_c, 0, 80, 0
1, 219333, Note_on_c, 0, 79, 104
1, 219333, Note_on_c, 0, 55, 74
1, 219391, Note_on_c, 0, 47, 0
1, 219402, Note_on_c, 0, 55, 0
1, 219402, Note_on_c, 0, 79, 0
1, 219402, Note_on_c, 0, 77, 102
1, 219405, Note_on_c, 0, 47, 85
1, 219471, Note_on_c, 0, 77, 0
1, 219471, Note_on_c, 0, 75, 99
1, 219471, Note_on_c, 0, 55, 77
1, 219528, Note_on_c, 0, 47, 0
1, 219540, Note_on_c, 0, 55, 0
1, 219540, Note_on_c, 0, 75, 0
1, 219540, Note_on_c, 0, 74, 104
1, 219543, Note_on_c, 0, 47, 87
1, 219610, Note_on_c, 0, 55, 80
1, 219668, Note_on_c, 0, 47, 0
1, 219680, Note_on_c, 0, 55, 0
1, 219680, Note_on_c, 0, 74, 0
1, 219680, Note_on_c, 0, 47, 87
1, 219750, Note_on_c, 0, 55, 78
1, 219808, Note_on_c, 0, 47, 0
1, 219820, Note_on_c, 0, 55, 0
1, 219820, Note_on_c, 0, 63, 78
1, 219820, Note_on_c, 0, 48, 51
1, 219890, Note_on_c, 0, 55, 47
1, 219948, Note_on_c, 0, 48, 0
1, 219960, Note_on_c, 0, 55, 0
1, 219960, Note_on_c, 0, 63, 0
1, 219960, Note_on_c, 0, 67, 69
1, 219963, Note_on_c, 0, 48, 51
1, 220028, Note_on_c, 0, 67, 0
1, 220028, Note_on_c, 0, 65, 69
1, 220028, Note_on_c, 0, 55, 48
1, 220085, Note_on_c, 0, 48, 0
1, 220097, Note_on_c, 0, 55, 0
1, 220097, Note_on_c, 0, 65, 0
1, 220097, Note_on_c, 0, 63, 72
1, 220100, Note_on_c, 0, 48, 51
1, 220167, Note_on_c, 0, 55, 47
1, 220225, Note_on_c, 0, 48, 0
1, 220237, Note_on_c, 0, 55, 0
1, 220237, Note_on_c, 0, 63, 0
1, 220237, Note_on_c, 0, 48, 51
1, 220307, Note_on_c, 0, 55, 46
1, 220365, Note_on_c, 0, 48, 0
1, 220377, Note_on_c, 0, 55, 0
1, 220377, Note_on_c, 0, 77, 75
1, 220377, Note_on_c, 0, 50, 52
1, 220446, Note_on_c, 0, 77, 0
1, 220446, Note_on_c, 0, 75, 73
1, 220446, Note_on_c, 0, 55, 47
1, 220503, Note_on_c, 0, 50, 0
1, 220515, Note_on_c, 0, 55, 0
1, 220515, Note_on_c, 0, 75, 0
1, 220515, Note_on_c, 0, 74, 71
1, 220518, Note_on_c, 0, 50, 52
1, 220583, Note_on_c, 0, 74, 0
1, 220583, Note_on_c, 0, 72, 69
1, 220583, Note_on_c, 0, 55, 48
1, 220641, Note_on_c, 0, 50, 0
1, 220652, Note_on_c, 0, 55, 0
1, 220652, Note_on_c, 0, 72, 0
1, 220652, Note_on_c, 0, 71, 72
1, 220655, Note_on_c, 0, 50, 52
1, 220722, Note_on_c, 0, 55, 49
1, 220781, Note_on_c, 0, 50, 0
1, 220792, Note_on_c, 0, 55, 0
1, 220792, Note_on_c, 0, 71, 0
1, 220792, Note_on_c, 0, 50, 52
1, 220862, Note_on_c, 0, 55, 48
1, 220921, Note_on_c, 0, 50, 0
1, 220932, Note_on_c, 0, 55, 0
1, 220932, Note_on_c, 0, 60, 78
1, 220932, Note_on_c, 0, 51, 51
1, 221002, Note_on_c, 0, 55, 47
1, 221061, Note_on_c, 0, 51, 0
1, 221072, Note_on_c, 0, 55, 0
1, 221072, Note_on_c, 0, 60, 0
1, 221072, Note_on_c, 0, 63, 69
1, 221075, Note_on_c, 0, 51, 51
1, 221141, Note_on_c, 0, 63, 0
1, 221141, Note_on_c, 0, 62, 69
1, 221141, Note_on_c, 0, 55, 48
1, 221198, Note_on_c, 0, 51, 0
1, 221209, Note_on_c, 0, 55, 0
1, 221209, Note_on_c, 0, 62, 0
1, 221209, Note_on_c, 0, 60, 72
1, 221212, Note_on_c, 0, 51, 51
1, 221281, Note_on_c, 0, 55, 47
1, 221341, Note_on_c, 0, 51, 0
1, 221353, Note_on_c, 0, 55, 0
1, 221353, Note_on_c, 0, 60, 0
1, 221353, Note_on_c, 0, 51, 51
1, 221425, Note_on_c, 0, 55, 46
1, 221489, Note_on_c, 0, 51, 0
1, 221502, Note_on_c, 0, 55, 0
1, 221502, Note_on_c, 0, 80, 75
1, 221502, Note_on_c, 0, 47, 52
1, 221571, Note_on_c, 0, 80, 0
1, 221571, Note_on_c, 0, 79, 73
1, 221571, Note_on_c, 0, 55, 47
1, 221628, Note_on_c, 0, 47, 0
1, 221640, Note_on_c, 0, 55, 0
1, 221640, Note_on_c, 0, 79, 0
1, 221640, Note_on_c, 0, 77, 71
1, 221643, Note_on_c, 0, 47, 52
1, 221709, Note_on_c, 0, 77, 0
1, 221709, Note_on_c, 0, 75, 69
1, 221709, Note_on_c, 0, 55, 48
1, 221766, Note_on_c, 0, 47, 0
1, 221778, Note_on_c, 0, 55, 0
1, 221778, Note_on_c, 0, 75, 0
1, 221778, Note_on_c, 0, 74, 72
1, 221781, Note_on_c, 0, 47, 52
1, 221848, Note_on_c, 0, 55, 49
1, 221906, Note_on_c, 0, 47, 0
1, 221918, Note_on_c, 0, 55, 0
1, 221918, Note_on_c, 0, 74, 0
1, 221918, Note_on_c, 0, 47, 52
1, 221988, Note_on_c, 0, 55, 48
1, 222046, Note_on_c, 0, 47, 0
1, 222058, Note_on_c, 0, 55, 0
1, 222058, Note_on_c, 0, 63, 80
1, 222058, Note_on_c, 0, 48, 52
1, 222128, Note_on_c, 0, 55, 48
1, 222186, Note_on_c, 0, 48, 0
1, 222198, Note_on_c, 0, 55, 0
1, 222198, Note_on_c, 0, 63, 0
1, 222198, Note_on_c, 0, 67, 71
1, 222201, Note_on_c, 0, 48, 52
1, 222266, Note_on_c, 0, 67, 0
1, 222266, Note_on_c, 0, 65, 72
1, 222266, Note_on_c, 0, 55, 50
1, 222323, Note_on_c, 0, 48, 0
1, 222335, Note_on_c, 0, 55, 0
1, 222335, Note_on_c, 0, 65, 0
1, 222335, Note_on_c, 0, 63, 77
1, 222338, Note_on_c, 0, 48, 53
1, 222405, Note_on_c, 0, 55, 49
1, 222463, Note_on_c, 0, 48, 0
1, 222475, Note_on_c, 0, 55, 0
1, 222475, Note_on_c, 0, 63, 0
1, 222475, Note_on_c, 0, 48, 55
1, 222544, Note_on_c, 0, 55, 50
1, 222603, Note_on_c, 0, 48, 0
1, 222614, Note_on_c, 0, 55, 0
1, 222614, Note_on_c, 0, 77, 84
1, 222614, Note_on_c, 0, 50, 57
1, 222683, Note_on_c, 0, 77, 0
1, 222683, Note_on_c, 0, 75, 84
1, 222683, Note_on_c, 0, 55, 52
1, 222741, Note_on_c, 0, 50, 0
1, 222752, Note_on_c, 0, 55, 0
1, 222752, Note_on_c, 0, 75, 0
1, 222752, Note_on_c, 0, 74, 83
1, 222755, Note_on_c, 0, 50, 59
1, 222821, Note_on_c, 0, 74, 0
1, 222821, Note_on_c, 0, 72, 81
1, 222821, Note_on_c, 0, 55, 56
1, 222879, Note_on_c, 0, 50, 0
1, 222890, Note_on_c, 0, 55, 0
1, 222890, Note_on_c, 0, 72, 0
1, 222890, Note_on_c, 0, 71, 85
1, 222893, Note_on_c, 0, 50, 61
1, 222960, Note_on_c, 0, 55, 58
1, 223018, Note_on_c, 0, 50, 0
1, 223030, Note_on_c, 0, 55, 0
1, 223030, Note_on_c, 0, 71, 0
1, 223030, Note_on_c, 0, 50, 64
1, 223100, Note_on_c, 0, 55, 59
1, 223158, Note_on_c, 0, 50, 0
1, 223170, Note_on_c, 0, 55, 0
1, 223170, Note_on_c, 0, 79, 94
1, 223170, Note_on_c, 0, 51, 66
1, 223239, Note_on_c, 0, 79, 0
1, 223239, Note_on_c, 0, 77, 92
1, 223239, Note_on_c, 0, 55, 60
1, 223296, Note_on_c, 0, 51, 0
1, 223308, Note_on_c, 0, 55, 0
1, 223308, Note_on_c, 0, 77, 0
1, 223308, Note_on_c, 0, 75, 92
1, 223311, Note_on_c, 0, 51, 69
1, 223377, Note_on_c, 0, 75, 0
1, 223377, Note_on_c, 0, 74, 88
1, 223377, Note_on_c, 0, 55, 63
1, 223434, Note_on_c, 0, 51, 0
1, 223446, Note_on_c, 0, 55, 0
1, 223446, Note_on_c, 0, 74, 0
1, 223446, Note_on_c, 0, 72, 95
1, 223449, Note_on_c, 0, 51, 71
1, 223518, Note_on_c, 0, 60, 67
1, 223579, Note_on_c, 0, 51, 0
1, 223591, Note_on_c, 0, 60, 0
1, 223591, Note_on_c, 0, 72, 0
1, 223591, Note_on_c, 0, 51, 75
1, 223668, Note_on_c, 0, 60, 68
1, 223734, Note_on_c, 0, 51, 0
1, 223747, Note_on_c, 0, 60, 0
1, 223747, Note_on_c, 0, 85, 108
1, 223747, Note_on_c, 0, 52, 85
1, 223816, Note_on_c, 0, 85, 0
1, 223816, Note_on_c, 0, 84, 104
1, 223816, Note_on_c, 0, 60, 74
1, 223873, Note_on_c, 0, 52, 0
1, 223885, Note_on_c, 0, 60, 0
1, 223885, Note_on_c, 0, 84, 0
1, 223885, Note_on_c, 0, 82, 102
1, 223888, Note_on_c, 0, 52, 85
1, 223953, Note_on_c, 0, 82, 0
1, 223953, Note_on_c, 0, 80, 99
1, 223953, Note_on_c, 0, 60, 77
1, 224011, Note_on_c, 0, 52, 0
1, 224022, Note_on_c, 0, 60, 0
1, 224022, Note_on_c, 0, 80, 0
1, 224022, Note_on_c, 0, 79, 104
1, 224025, Note_on_c, 0, 52, 87
1, 224092, Note_on_c, 0, 60, 80
1, 224151, Note_on_c, 0, 52, 0
1, 224162, Note_on_c, 0, 60, 0
1, 224162, Note_on_c, 0, 79, 0
1, 224162, Note_on_c, 0, 52, 87
1, 224232, Note_on_c, 0, 60, 78
1, 224333, Note_on_c, 0, 52, 0
1, 224353, Note_on_c, 0, 60, 0
1, 224353, Note_on_c, 0, 80, 69
1, 224353, Note_on_c, 0, 53, 46
1, 224407, Control_c, 0, 64, 127
1, 224424, Note_on_c, 0, 53, 0
1, 224424, Note_on_c, 0, 56, 43
1, 224496, Note_on_c, 0, 56, 0
1, 224496, Note_on_c, 0, 80, 0
1, 224496, Note_on_c, 0, 84, 61
1, 224499, Note_on_c, 0, 60, 43
1, 224566, Note_on_c, 0, 60, 0
1, 224566, Note_on_c, 0, 84, 0
1, 224566, Note_on_c, 0, 82, 61
1, 224569, Note_on_c, 0, 65, 43
1, 224636, Note_on_c, 0, 65, 0
1, 224636, Note_on_c, 0, 82, 0
1, 224636, Note_on_c, 0, 80, 64
1, 224639, Note_on_c, 0, 53, 46
1, 224639, Control_c, 0, 64, 0
1, 224687, Control_c, 0, 64, 127
1, 224708, Note_on_c, 0, 53, 0
1, 224708, Note_on_c, 0, 56, 43
1, 224779, Note_on_c, 0, 56, 0
1, 224779, Note_on_c, 0, 80, 0
1, 224779, Note_on_c, 0, 60, 43
1, 224851, Note_on_c, 0, 60, 0
1, 224851, Note_on_c, 0, 65, 43
1, 224922, Note_on_c, 0, 65, 0
1, 224922, Note_on_c, 0, 85, 69
1, 224922, Note_on_c, 0, 53, 47
1, 224925, Control_c, 0, 64, 0
1, 224966, Control_c, 0, 64, 127
1, 224993, Note_on_c, 0, 53, 0
1, 224993, Note_on_c, 0, 58, 43
1, 225063, Note_on_c, 0, 58, 0
1, 225063, Note_on_c, 0, 85, 0
1, 225063, Note_on_c, 0, 89, 61
1, 225066, Note_on_c, 0, 61, 43
1, 225134, Note_on_c, 0, 61, 0
1, 225134, Note_on_c, 0, 89, 0
1, 225134, Note_on_c, 0, 87, 61
1, 225137, Note_on_c, 0, 65, 43
1, 225204, Note_on_c, 0, 65, 0
1, 225204, Note_on_c, 0, 87, 0
1, 225204, Note_on_c, 0, 85, 64
1, 225207, Note_on_c, 0, 53, 47
1, 225207, Control_c, 0, 64, 0
1, 225252, Control_c, 0, 64, 127
1, 225276, Note_on_c, 0, 53, 0
1, 225276, Note_on_c, 0, 58, 44
1, 225347, Note_on_c, 0, 58, 0
1, 225347, Note_on_c, 0, 85, 0
1, 225347, Note_on_c, 0, 61, 43
1, 225419, Note_on_c, 0, 61, 0
1, 225419, Note_on_c, 0, 65, 43
1, 225490, Note_on_c, 0, 65, 0
1, 225490, Note_on_c, 0, 66, 61
1, 225490, Note_on_c, 0, 52, 46
1, 225493, Control_c, 0, 64, 0
1, 225521, Control_c, 0, 64, 127
1, 225562, Note_on_c, 0, 52, 0
1, 225562, Note_on_c, 0, 54, 43
1, 225634, Note_on_c, 0, 54, 0
1, 225634, Note_on_c, 0, 66, 0
1, 225634, Note_on_c, 0, 70, 55
1, 225637, Note_on_c, 0, 58, 43
1, 225704, Note_on_c, 0, 58, 0
1, 225704, Note_on_c, 0, 70, 0
1, 225704, Note_on_c, 0, 68, 55
1, 225707, Note_on_c, 0, 61, 43
1, 225774, Note_on_c, 0, 61, 0
1, 225774, Note_on_c, 0, 68, 0
1, 225774, Note_on_c, 0, 66, 57
1, 225777, Note_on_c, 0, 52, 46
1, 225777, Control_c, 0, 64, 0
1, 225804, Control_c, 0, 64, 127
1, 225845, Note_on_c, 0, 52, 0
1, 225845, Note_on_c, 0, 54, 43
1, 225917, Note_on_c, 0, 54, 0
1, 225917, Note_on_c, 0, 66, 0
1, 225917, Note_on_c, 0, 58, 43
1, 225988, Note_on_c, 0, 58, 0
1, 225988, Note_on_c, 0, 61, 43
1, 226083, Note_on_c, 0, 61, 0
1, 226083, Note_on_c, 0, 71, 61
1, 226083, Note_on_c, 0, 51, 47
1, 226086, Control_c, 0, 64, 0
1, 226126, Control_c, 0, 64, 127
1, 226153, Note_on_c, 0, 51, 0
1, 226153, Note_on_c, 0, 54, 43
1, 226224, Note_on_c, 0, 54, 0
1, 226224, Note_on_c, 0, 59, 43
1, 226294, Note_on_c, 0, 59, 0
1, 226294, Note_on_c, 0, 63, 43
1, 226365, Note_on_c, 0, 63, 0
1, 226365, Note_on_c, 0, 51, 47
1, 226436, Note_on_c, 0, 51, 0
1, 226436, Note_on_c, 0, 54, 44
1, 226508, Note_on_c, 0, 54, 0
1, 226508, Note_on_c, 0, 59, 43
1, 226579, Note_on_c, 0, 59, 0
1, 226579, Note_on_c, 0, 63, 43
1, 226697, Note_on_c, 0, 63, 0
1, 226697, Note_on_c, 0, 71, 0
1, 226697, Note_on_c, 0, 77, 69
1, 226700, Note_on_c, 0, 51, 46
1, 226703, Control_c, 0, 64, 0
1, 226752, Control_c, 0, 64, 127
1, 226769, Note_on_c, 0, 51, 0
1, 226769, Note_on_c, 0, 53, 43
1, 226841, Note_on_c, 0, 53, 0
1, 226841, Note_on_c, 0, 77, 0
1, 226841, Note_on_c, 0, 81, 61
1, 226844, Note_on_c, 0, 57, 43
1, 226912, Note_on_c, 0, 57, 0
1, 226912, Note_on_c, 0, 81, 0
1, 226912, Note_on_c, 0, 79, 61
1, 226915, Note_on_c, 0, 60, 43
1, 226982, Note_on_c, 0, 60, 0
1, 226982, Note_on_c, 0, 79, 0
1, 226982, Note_on_c, 0, 77, 64
1, 226985, Note_on_c, 0, 51, 46
1, 226985, Control_c, 0, 64, 0
1, 227006, Control_c, 0, 64, 127
1, 227055, Note_on_c, 0, 51, 0
1, 227055, Note_on_c, 0, 53, 43
1, 227127, Note_on_c, 0, 53, 0
1, 227127, Note_on_c, 0, 77, 0
1, 227127, Note_on_c, 0, 57, 43
1, 227199, Note_on_c, 0, 57, 0
1, 227199, Note_on_c, 0, 60, 43
1, 227271, Note_on_c, 0, 60, 0
1, 227271, Note_on_c, 0, 82, 69
1, 227271, Note_on_c, 0, 49, 47
1, 227275, Control_c, 0, 64, 0
1, 227301, Control_c, 0, 64, 127
1, 227342, Note_on_c, 0, 49, 0
1, 227342, Note_on_c, 0, 53, 43
1, 227413, Note_on_c, 0, 53, 0
1, 227413, Note_on_c, 0, 82, 0
1, 227413, Note_on_c, 0, 85, 61
1, 227416, Note_on_c, 0, 58, 43
1, 227484, Note_on_c, 0, 58, 0
1, 227484, Note_on_c, 0, 85, 0
1, 227484, Note_on_c, 0, 84, 61
1, 227487, Note_on_c, 0, 61, 43
1, 227555, Note_on_c, 0, 61, 0
1, 227555, Note_on_c, 0, 84, 0
1, 227555, Note_on_c, 0, 82, 64
1, 227558, Note_on_c, 0, 49, 47
1, 227558, Control_c, 0, 64, 0
1, 227586, Control_c, 0, 64, 127
1, 227627, Note_on_c, 0, 49, 0
1, 227627, Note_on_c, 0, 53, 44
1, 227700, Note_on_c, 0, 53, 0
1, 227700, Note_on_c, 0, 82, 0
1, 227700, Note_on_c, 0, 58, 43
1, 227772, Note_on_c, 0, 58, 0
1, 227772, Note_on_c, 0, 61, 43
1, 227844, Note_on_c, 0, 61, 0
1, 227844, Note_on_c, 0, 63, 61
1, 227844, Note_on_c, 0, 49, 46
1, 227844, Control_c, 0, 64, 0
1, 227876, Control_c, 0, 64, 127
1, 227916, Note_on_c, 0, 49, 0
1, 227916, Note_on_c, 0, 51, 43
1, 227988, Note_on_c, 0, 51, 0
1, 227988, Note_on_c, 0, 63, 0
1, 227988, Note_on_c, 0, 67, 55
1, 227991, Note_on_c, 0, 55, 43
1, 228059, Note_on_c, 0, 55, 0
1, 228059, Note_on_c, 0, 67, 0
1, 228059, Note_on_c, 0, 65, 55
1, 228062, Note_on_c, 0, 58, 43
1, 228130, Note_on_c, 0, 58, 0
1, 228130, Note_on_c, 0, 65, 0
1, 228130, Note_on_c, 0, 63, 57
1, 228133, Note_on_c, 0, 49, 46
1, 228133, Control_c, 0, 64, 0
1, 228147, Control_c, 0, 64, 127
1, 228202, Note_on_c, 0, 49, 0
1, 228202, Note_on_c, 0, 51, 43
1, 228274, Note_on_c, 0, 51, 0
1, 228274, Note_on_c, 0, 63, 0
1, 228274, Note_on_c, 0, 55, 43
1, 228346, Note_on_c, 0, 55, 0
1, 228346, Note_on_c, 0, 58, 43
1, 228441, Note_on_c, 0, 58, 0
1, 228441, Note_on_c, 0, 68, 61
1, 228441, Note_on_c, 0, 48, 47
1, 228444, Control_c, 0, 64, 0
1, 228485, Control_c, 0, 64, 127
1, 228512, Note_on_c, 0, 48, 0
1, 228512, Note_on_c, 0, 51, 43
1, 228583, Note_on_c, 0, 51, 0
1, 228583, Note_on_c, 0, 56, 43
1, 228654, Note_on_c, 0, 56, 0
1, 228654, Note_on_c, 0, 60, 43
1, 228726, Note_on_c, 0, 60, 0
1, 228726, Note_on_c, 0, 48, 47
1, 228798, Note_on_c, 0, 48, 0
1, 228798, Note_on_c, 0, 51, 44
1, 228870, Note_on_c, 0, 51, 0
1, 228870, Note_on_c, 0, 56, 43
1, 228942, Note_on_c, 0, 56, 0
1, 228942, Note_on_c, 0, 60, 43
1, 229014, Note_on_c, 0, 60, 0
1, 229014, Note_on_c, 0, 68, 0
1, 229014, Note_on_c, 0, 73, 69
1, 229017, Note_on_c, 0, 47, 46
1, 229017, Control_c, 0, 64, 0
1, 229045, Control_c, 0, 64, 127
1, 229086, Note_on_c, 0, 47, 0
1, 229086, Note_on_c, 0, 49, 43
1, 229159, Note_on_c, 0, 49, 0
1, 229159, Note_on_c, 0, 73, 0
1, 229159, Note_on_c, 0, 77, 61
1, 229162, Note_on_c, 0, 53, 43
1, 229229, Note_on_c, 0, 53, 0
1, 229229, Note_on_c, 0, 77, 0
1, 229229, Note_on_c, 0, 75, 61
1, 229232, Note_on_c, 0, 56, 43
1, 229300, Note_on_c, 0, 56, 0
1, 229300, Note_on_c, 0, 75, 0
1, 229300, Note_on_c, 0, 73, 64
1, 229303, Note_on_c, 0, 47, 46
1, 229303, Control_c, 0, 64, 0
1, 229327, Control_c, 0, 64, 127
1, 229372, Note_on_c, 0, 47, 0
1, 229372, Note_on_c, 0, 49, 43
1, 229444, Note_on_c, 0, 49, 0
1, 229444, Note_on_c, 0, 73, 0
1, 229444, Note_on_c, 0, 53, 43
1, 229516, Note_on_c, 0, 53, 0
1, 229516, Note_on_c, 0, 56, 43
1, 229589, Note_on_c, 0, 56, 0
1, 229589, Note_on_c, 0, 78, 69
1, 229589, Note_on_c, 0, 46, 47
1, 229589, Control_c, 0, 64, 0
1, 229632, Control_c, 0, 64, 127
1, 229660, Note_on_c, 0, 46, 0
1, 229660, Note_on_c, 0, 49, 43
1, 229731, Note_on_c, 0, 49, 0
1, 229731, Note_on_c, 0, 78, 0
1, 229731, Note_on_c, 0, 82, 61
1, 229734, Note_on_c, 0, 54, 43
1, 229802, Note_on_c, 0, 54, 0
1, 229802, Note_on_c, 0, 82, 0
1, 229802, Note_on_c, 0, 80, 61
1, 229805, Note_on_c, 0, 58, 43
1, 229873, Note_on_c, 0, 58, 0
1, 229873, Note_on_c, 0, 80, 0
1, 229873, Note_on_c, 0, 78, 64
1, 229876, Note_on_c, 0, 46, 47
1, 229876, Control_c, 0, 64, 0
1, 229897, Control_c, 0, 64, 127
1, 229945, Note_on_c, 0, 46, 0
1, 229945, Note_on_c, 0, 49, 44
1, 230017, Note_on_c, 0, 49, 0
1, 230017, Note_on_c, 0, 78, 0
1, 230017, Note_on_c, 0, 54, 43
1, 230089, Note_on_c, 0, 54, 0
1, 230089, Note_on_c, 0, 58, 43
1, 230161, Note_on_c, 0, 58, 0
1, 230161, Note_on_c, 0, 60, 63
1, 230161, Note_on_c, 0, 46, 47
1, 230164, Control_c, 0, 64, 0
1, 230182, Control_c, 0, 64, 127
1, 230234, Note_on_c, 0, 46, 0
1, 230234, Note_on_c, 0, 48, 44
1, 230306, Note_on_c, 0, 48, 0
1, 230306, Note_on_c, 0, 60, 0
1, 230306, Note_on_c, 0, 64, 56
1, 230309, Note_on_c, 0, 52, 44
1, 230376, Note_on_c, 0, 52, 0
1, 230376, Note_on_c, 0, 64, 0
1, 230376, Note_on_c, 0, 62, 56
1, 230379, Note_on_c, 0, 55, 44
1, 230447, Note_on_c, 0, 55, 0
1, 230447, Note_on_c, 0, 62, 0
1, 230447, Note_on_c, 0, 60, 59
1, 230450, Note_on_c, 0, 46, 47
1, 230450, Control_c, 0, 64, 0
1, 230485, Control_c, 0, 64, 127
1, 230519, Note_on_c, 0, 46, 0
1, 230519, Note_on_c, 0, 48, 44
1, 230591, Note_on_c, 0, 48, 0
1, 230591, Note_on_c, 0, 60, 0
1, 230591, Note_on_c, 0, 52, 44
1, 230664, Note_on_c, 0, 52, 0
1, 230664, Note_on_c, 0, 55, 44
1, 230759, Note_on_c, 0, 55, 0
1, 230759, Note_on_c, 0, 72, 63
1, 230759, Note_on_c, 0, 44, 48
1, 230762, Control_c, 0, 64, 0
1, 230803, Control_c, 0, 64, 127
1, 230830, Note_on_c, 0, 44, 0
1, 230830, Note_on_c, 0, 48, 44
1, 230901, Note_on_c, 0, 48, 0
1, 230901, Note_on_c, 0, 53, 44
1, 230972, Note_on_c, 0, 53, 0
1, 230972, Note_on_c, 0, 56, 44
1, 231043, Note_on_c, 0, 56, 0
1, 231043, Note_on_c, 0, 44, 49
1, 231115, Note_on_c, 0, 44, 0
1, 231115, Note_on_c, 0, 48, 46
1, 231187, Note_on_c, 0, 48, 0
1, 231187, Note_on_c, 0, 53, 44
1, 231259, Note_on_c, 0, 53, 0
1, 231259, Note_on_c, 0, 56, 44
1, 231332, Note_on_c, 0, 56, 0
1, 231332, Note_on_c, 0, 72, 0
1, 231332, Note_on_c, 0, 72, 80
1, 231335, Note_on_c, 0, 43, 53
1, 231335, Control_c, 0, 64, 0
1, 231373, Control_c, 0, 64, 127
1, 231404, Note_on_c, 0, 43, 0
1, 231404, Note_on_c, 0, 46, 49
1, 231476, Note_on_c, 0, 46, 0
1, 231476, Note_on_c, 0, 72, 0
1, 231476, Note_on_c, 0, 76, 73
1, 231479, Note_on_c, 0, 52, 49
1, 231547, Note_on_c, 0, 52, 0
1, 231547, Note_on_c, 0, 76, 0
1, 231547, Note_on_c, 0, 74, 73
1, 231550, Note_on_c, 0, 55, 50
1, 231617, Note_on_c, 0, 55, 0
1, 231617, Note_on_c, 0, 74, 0
1, 231617, Note_on_c, 0, 72, 77
1, 231620, Note_on_c, 0, 43, 55
1, 231620, Control_c, 0, 64, 0
1, 231659, Control_c, 0, 64, 127
1, 231689, Note_on_c, 0, 43, 0
1, 231689, Note_on_c, 0, 46, 50
1, 231762, Note_on_c, 0, 46, 0
1, 231762, Note_on_c, 0, 72, 0
1, 231762, Note_on_c, 0, 52, 52
1, 231834, Note_on_c, 0, 52, 0
1, 231834, Note_on_c, 0, 55, 53
1, 231929, Note_on_c, 0, 55, 0
1, 231929, Note_on_c, 0, 84, 90
1, 231929, Note_on_c, 0, 41, 60
1, 231932, Control_c, 0, 64, 0
1, 231973, Control_c, 0, 64, 127
1, 232000, Note_on_c, 0, 41, 0
1, 232000, Note_on_c, 0, 44, 54
1, 232071, Note_on_c, 0, 44, 0
1, 232071, Note_on_c, 0, 48, 54
1, 232142, Note_on_c, 0, 48, 0
1, 232142, Note_on_c, 0, 53, 55
1, 232213, Note_on_c, 0, 53, 0
1, 232213, Note_on_c, 0, 41, 62
1, 232309, Note_on_c, 0, 41, 0
1, 232309, Note_on_c, 0, 44, 56
1, 232406, Note_on_c, 0, 44, 0
1, 232406, Note_on_c, 0, 53, 57
1, 232502, Note_on_c, 0, 53, 0
1, 232502, Note_on_c, 0, 84, 0
1, 232502, Note_on_c, 0, 84, 89
1, 232505, Note_on_c, 0, 40, 65
1, 232505, Control_c, 0, 64, 0
1, 232558, Control_c, 0, 64, 127
1, 232601, Note_on_c, 0, 40, 0
1, 232601, Note_on_c, 0, 43, 66
1, 232651, Note_on_c, 0, 84, 0
1, 232651, Note_on_c, 0, 88, 91
1, 232700, Note_on_c, 0, 43, 0
1, 232700, Note_on_c, 0, 52, 68
1, 232724, Note_on_c, 0, 88, 0
1, 232724, Note_on_c, 0, 86, 92
1, 232797, Note_on_c, 0, 86, 0
1, 232797, Note_on_c, 0, 52, 0
1, 232797, Note_on_c, 0, 84, 94
1, 232800, Note_on_c, 0, 39, 68
1, 232800, Control_c, 0, 64, 0
1, 232871, Note_on_c, 0, 84, 0
1, 232896, Note_on_c, 0, 39, 0
1, 232896, Note_on_c, 0, 43, 70
1, 232946, Note_on_c, 0, 84, 98
1, 232995, Note_on_c, 0, 43, 0
1, 232995, Note_on_c, 0, 51, 72
1, 233020, Note_on_c, 0, 84, 0
1, 233094, Note_on_c, 0, 51, 0
1, 233094, Note_on_c, 0, 84, 102
1, 233094, Note_on_c, 0, 38, 75
1, 233169, Note_on_c, 0, 84, 0
1, 233193, Note_on_c, 0, 38, 0
1, 233193, Note_on_c, 0, 41, 74
1, 233243, Note_on_c, 0, 84, 104
1, 233293, Note_on_c, 0, 41, 0
1, 233293, Note_on_c, 0, 50, 77
1, 233392, Note_on_c, 0, 50, 0
1, 233392, Note_on_c, 0, 84, 0
1, 233392, Note_on_c, 0, 89, 107
1, 233395, Note_on_c, 0, 37, 77
1, 233428, Control_c, 0, 64, 127
1, 233494, Note_on_c, 0, 37, 0
1, 233494, Note_on_c, 0, 41, 79
1, 233545, Note_on_c, 0, 89, 0
1, 233545, Note_on_c, 0, 83, 111
1, 233601, Note_on_c, 0, 41, 0
1, 233601, Note_on_c, 0, 49, 80
1, 233712, Note_on_c, 0, 49, 0
1, 233712, Note_on_c, 0, 83, 0
1, 233712, Note_on_c, 0, 84, 114
1, 233715, Note_on_c, 0, 36, 87
1, 233715, Note_on_c, 0, 48, 91
1, 233715, Control_c, 0, 64, 0
1, 233715, Control_c, 0, 64, 0
1, 233759, Control_c, 0, 64, 127
1, 233814, Note_on_c, 0, 48, 0
1, 233814, Note_on_c, 0, 36, 0
1, 233814, Note_on_c, 0, 43, 82
1, 233917, Note_on_c, 0, 43, 0
1, 233917, Note_on_c, 0, 40, 83
1, 234019, Note_on_c, 0, 40, 0
1, 234019, Note_on_c, 0, 84, 0
1, 234019, Note_on_c, 0, 67, 96
1, 234022, Note_on_c, 0, 43, 91
1, 234122, Note_on_c, 0, 43, 0
1, 234122, Note_on_c, 0, 48, 84
1, 234224, Note_on_c, 0, 48, 0
1, 234224, Note_on_c, 0, 52, 85
1, 234330, Note_on_c, 0, 52, 0
1, 234330, Note_on_c, 0, 50, 91
1, 234335, Control_c, 0, 64, 0
1, 234371, Control_c, 0, 64, 127
1, 234433, Note_on_c, 0, 50, 0
1, 234433, Note_on_c, 0, 47, 84
1, 234536, Note_on_c, 0, 47, 0
1, 234536, Note_on_c, 0, 43, 85
1, 234642, Note_on_c, 0, 43, 0
1, 234642, Note_on_c, 0, 67, 0
1, 234642, Note_on_c, 0, 67, 96
1, 234645, Note_on_c, 0, 47, 91
1, 234744, Note_on_c, 0, 47, 0
1, 234744, Note_on_c, 0, 50, 86
1, 234846, Note_on_c, 0, 50, 0
1, 234846, Note_on_c, 0, 53, 86
1, 234952, Note_on_c, 0, 53, 0
1, 234952, Note_on_c, 0, 67, 0
1, 234952, Note_on_c, 0, 72, 103
1, 234955, Note_on_c, 0, 52, 85
1, 234955, Control_c, 0, 64, 0
1, 234991, Control_c, 0, 64, 127
1, 235051, Note_on_c, 0, 52, 0
1, 235051, Note_on_c, 0, 72, 0
1, 235051, Note_on_c, 0, 67, 95
1, 235054, Note_on_c, 0, 55, 77
1, 235151, Note_on_c, 0, 55, 0
1, 235151, Note_on_c, 0, 67, 0
1, 235151, Note_on_c, 0, 64, 95
1, 235154, Note_on_c, 0, 60, 77
1, 235250, Note_on_c, 0, 60, 0
1, 235250, Note_on_c, 0, 64, 0
1, 235250, Note_on_c, 0, 67, 103
1, 235253, Note_on_c, 0, 55, 85
1, 235349, Note_on_c, 0, 55, 0
1, 235349, Note_on_c, 0, 67, 0
1, 235349, Note_on_c, 0, 72, 95
1, 235352, Note_on_c, 0, 52, 78
1, 235448, Note_on_c, 0, 52, 0
1, 235448, Note_on_c, 0, 72, 0
1, 235448, Note_on_c, 0, 76, 94
1, 235451, Note_on_c, 0, 48, 78
1, 235552, Note_on_c, 0, 48, 0
1, 235552, Note_on_c, 0, 76, 0
1, 235552, Note_on_c, 0, 74, 103
1, 235555, Note_on_c, 0, 53, 85
1, 235555, Control_c, 0, 64, 0
1, 235592, Control_c, 0, 64, 127
1, 235652, Note_on_c, 0, 53, 0
1, 235652, Note_on_c, 0, 74, 0
1, 235652, Note_on_c, 0, 71, 95
1, 235655, Note_on_c, 0, 56, 77
1, 235752, Note_on_c, 0, 56, 0
1, 235752, Note_on_c, 0, 71, 0
1, 235752, Note_on_c, 0, 68, 95
1, 235755, Note_on_c, 0, 60, 77
1, 235851, Note_on_c, 0, 60, 0
1, 235851, Note_on_c, 0, 68, 0
1, 235851, Note_on_c, 0, 71, 103
1, 235854, Note_on_c, 0, 56, 85
1, 235951, Note_on_c, 0, 56, 0
1, 235951, Note_on_c, 0, 71, 0
1, 235951, Note_on_c, 0, 74, 96
1, 235954, Note_on_c, 0, 53, 78
1, 236050, Note_on_c, 0, 53, 0
1, 236050, Note_on_c, 0, 74, 0
1, 236050, Note_on_c, 0, 77, 96
1, 236053, Note_on_c, 0, 48, 79
1, 236154, Note_on_c, 0, 48, 0
1, 236154, Note_on_c, 0, 77, 0
1, 236154, Note_on_c, 0, 76, 103
1, 236157, Note_on_c, 0, 55, 85
1, 236157, Control_c, 0, 64, 0
1, 236193, Control_c, 0, 64, 127
1, 236253, Note_on_c, 0, 76, 0
1, 236253, Note_on_c, 0, 73, 95
1, 236253, Note_on_c, 0, 58, 77
1, 236352, Note_on_c, 0, 73, 0
1, 236352, Note_on_c, 0, 70, 98
1, 236352, Note_on_c, 0, 60, 77
1, 236451, Note_on_c, 0, 70, 0
1, 236451, Note_on_c, 0, 58, 0
1, 236451, Note_on_c, 0, 73, 103
1, 236454, Note_on_c, 0, 58, 85
1, 236550, Note_on_c, 0, 73, 0
1, 236550, Note_on_c, 0, 55, 0
1, 236550, Note_on_c, 0, 76, 96
1, 236553, Note_on_c, 0, 55, 78
1, 236649, Note_on_c, 0, 76, 0
1, 236649, Note_on_c, 0, 79, 95
1, 236649, Note_on_c, 0, 48, 78
1, 236759, Note_on_c, 0, 79, 0
1, 236759, Note_on_c, 0, 82, 103
1, 236763, Control_c, 0, 64, 0
1, 236798, Control_c, 0, 64, 127
1, 236858, Note_on_c, 0, 82, 0
1, 236858, Note_on_c, 0, 76, 95
1, 236957, Note_on_c, 0, 76, 0
1, 236957, Note_on_c, 0, 85, 95
1, 237056, Note_on_c, 0, 85, 0
1, 237056, Note_on_c, 0, 76, 103
1, 237155, Note_on_c, 0, 76, 0
1, 237155, Note_on_c, 0, 73, 95
1, 237254, Note_on_c, 0, 73, 0
1, 237254, Note_on_c, 0, 82, 95
1, 237353, Note_on_c, 0, 82, 0
1, 237353, Note_on_c, 0, 73, 103
1, 237452, Note_on_c, 0, 73, 0
1, 237452, Note_on_c, 0, 70, 95
1, 237551, Note_on_c, 0, 70, 0
1, 237551, Note_on_c, 0, 76, 95
1, 237650, Note_on_c, 0, 76, 0
1, 237650, Note_on_c, 0, 70, 99
1, 237749, Note_on_c, 0, 70, 0
1, 237749, Note_on_c, 0, 64, 95
1, 237848, Note_on_c, 0, 64, 0
1, 237848, Note_on_c, 0, 73, 95
1, 237946, Note_on_c, 0, 73, 0
1, 237946, Note_on_c, 0, 70, 98
1, 237950, Control_c, 0, 64, 0
1, 237975, Control_c, 0, 64, 127
1, 238046, Note_on_c, 0, 70, 0
1, 238046, Note_on_c, 0, 64, 92
1, 238145, Note_on_c, 0, 64, 0
1, 238145, Note_on_c, 0, 72, 92
1, 238244, Note_on_c, 0, 72, 0
1, 238244, Note_on_c, 0, 70, 97
1, 238343, Note_on_c, 0, 70, 0
1, 238343, Note_on_c, 0, 64, 92
1, 238443, Note_on_c, 0, 64, 0
1, 238443, Note_on_c, 0, 72, 92
1, 238542, Note_on_c, 0, 72, 0
1, 238542, Note_on_c, 0, 65, 88
1, 238542, Note_on_c, 0, 69, 88
1, 238545, Note_on_c, 0, 60, 0
1, 238545, Note_on_c, 0, 48, 0
1, 238545, Note_on_c, 0, 72, 100
1, 238548, Note_on_c, 0, 55, 0
1, 238548, Note_on_c, 0, 58, 0
1, 238548, Note_on_c, 0, 41, 87
1, 238551, Note_on_c, 0, 53, 91
1, 238551, Control_c, 0, 64, 0
1, 238551, Control_c, 0, 64, 0
1, 238589, Control_c, 0, 64, 127
1, 238643, Note_on_c, 0, 53, 0
1, 238643, Note_on_c, 0, 41, 0
1, 238643, Note_on_c, 0, 48, 82
1, 238745, Note_on_c, 0, 48, 0
1, 238745, Note_on_c, 0, 45, 83
1, 238847, Note_on_c, 0, 69, 0
1, 238847, Note_on_c, 0, 72, 0
1, 238847, Note_on_c, 0, 65, 0
1, 238850, Note_on_c, 0, 45, 0
1, 238850, Note_on_c, 0, 72, 96
1, 238850, Note_on_c, 0, 48, 91
1, 238853, Control_c, 0, 64, 0
1, 238868, Control_c, 0, 64, 127
1, 238948, Note_on_c, 0, 48, 0
1, 238948, Note_on_c, 0, 53, 84
1, 239050, Note_on_c, 0, 53, 0
1, 239050, Note_on_c, 0, 57, 85
1, 239154, Note_on_c, 0, 57, 0
1, 239154, Note_on_c, 0, 55, 91
1, 239160, Control_c, 0, 64, 0
1, 239187, Control_c, 0, 64, 127
1, 239256, Note_on_c, 0, 55, 0
1, 239256, Note_on_c, 0, 52, 84
1, 239358, Note_on_c, 0, 52, 0
1, 239358, Note_on_c, 0, 48, 85
1, 239463, Note_on_c, 0, 48, 0
1, 239463, Note_on_c, 0, 72, 0
1, 239463, Note_on_c, 0, 72, 96
1, 239466, Note_on_c, 0, 52, 91
1, 239466, Control_c, 0, 64, 0
1, 239485, Control_c, 0, 64, 127
1, 239565, Note_on_c, 0, 52, 0
1, 239565, Note_on_c, 0, 55, 86
1, 239666, Note_on_c, 0, 55, 0
1, 239666, Note_on_c, 0, 58, 86
1, 239771, Note_on_c, 0, 58, 0
1, 239771, Note_on_c, 0, 72, 0
1, 239771, Note_on_c, 0, 77, 103
1, 239774, Note_on_c, 0, 57, 85
1, 239774, Control_c, 0, 64, 0
1, 239810, Control_c, 0, 64, 127
1, 239870, Note_on_c, 0, 57, 0
1, 239870, Note_on_c, 0, 77, 0
1, 239870, Note_on_c, 0, 72, 95
1, 239873, Note_on_c, 0, 60, 77
1, 239969, Note_on_c, 0, 60, 0
1, 239969, Note_on_c, 0, 72, 0
1, 239969, Note_on_c, 0, 69, 95
1, 239972, Note_on_c, 0, 65, 77
1, 240069, Note_on_c, 0, 65, 0
1, 240069, Note_on_c, 0, 69, 0
1, 240069, Note_on_c, 0, 72, 103
1, 240072, Note_on_c, 0, 60, 85
1, 240168, Note_on_c, 0, 60, 0
1, 240168, Note_on_c, 0, 72, 0
1, 240168, Note_on_c, 0, 77, 95
1, 240171, Note_on_c, 0, 57, 78
1, 240267, Note_on_c, 0, 57, 0
1, 240267, Note_on_c, 0, 77, 0
1, 240267, Note_on_c, 0, 81, 94
1, 240270, Note_on_c, 0, 53, 78
1, 240371, Note_on_c, 0, 53, 0
1, 240371, Note_on_c, 0, 81, 0
1, 240371, Note_on_c, 0, 79, 103
1, 240374, Note_on_c, 0, 58, 85
1, 240374, Control_c, 0, 64, 0
1, 240411, Control_c, 0, 64, 127
1, 240471, Note_on_c, 0, 58, 0
1, 240471, Note_on_c, 0, 79, 0
1, 240471, Note_on_c, 0, 76, 95
1, 240474, Note_on_c, 0, 61, 77
1, 240571, Note_on_c, 0, 61, 0
1, 240571, Note_on_c, 0, 76, 0
1, 240571, Note_on_c, 0, 73, 95
1, 240574, Note_on_c, 0, 65, 77
1, 240670, Note_on_c, 0, 65, 0
1, 240670, Note_on_c, 0, 73, 0
1, 240670, Note_on_c, 0, 76, 103
1, 240673, Note_on_c, 0, 61, 85
1, 240770, Note_on_c, 0, 61, 0
1, 240770, Note_on_c, 0, 76, 0
1, 240770, Note_on_c, 0, 79, 96
1, 240773, Note_on_c, 0, 58, 78
1, 240869, Note_on_c, 0, 58, 0
1, 240869, Note_on_c, 0, 79, 0
1, 240869, Note_on_c, 0, 82, 96
1, 240872, Note_on_c, 0, 53, 79
1, 240973, Note_on_c, 0, 53, 0
1, 240973, Note_on_c, 0, 82, 0
1, 240973, Note_on_c, 0, 81, 103
1, 240976, Note_on_c, 0, 60, 85
1, 240976, Control_c, 0, 64, 0
1, 241012, Control_c, 0, 64, 127
1, 241072, Note_on_c, 0, 81, 0
1, 241072, Note_on_c, 0, 78, 95
1, 241072, Note_on_c, 0, 63, 77
1, 241171, Note_on_c, 0, 78, 0
1, 241171, Note_on_c, 0, 75, 98
1, 241171, Note_on_c, 0, 65, 77
1, 241270, Note_on_c, 0, 75, 0
1, 241270, Note_on_c, 0, 63, 0
1, 241270, Note_on_c, 0, 78, 103
1, 241273, Note_on_c, 0, 63, 85
1, 241369, Note_on_c, 0, 78, 0
1, 241369, Note_on_c, 0, 60, 0
1, 241369, Note_on_c, 0, 81, 96
1, 241372, Note_on_c, 0, 60, 78
1, 241468, Note_on_c, 0, 81, 0
1, 241468, Note_on_c, 0, 84, 95
1, 241468, Note_on_c, 0, 53, 78
1, 241578, Note_on_c, 0, 84, 0
1, 241578, Note_on_c, 0, 87, 103
1, 241677, Note_on_c, 0, 87, 0
1, 241677, Note_on_c, 0, 81, 95
1, 241776, Note_on_c, 0, 81, 0
1, 241776, Note_on_c, 0, 90, 95
1, 241875, Note_on_c, 0, 90, 0
1, 241875, Note_on_c, 0, 78, 103
1, 241974, Note_on_c, 0, 78, 0
1, 241974, Note_on_c, 0, 75, 95
1, 242073, Note_on_c, 0, 75, 0
1, 242073, Note_on_c, 0, 84, 95
1, 242172, Note_on_c, 0, 84, 0
1, 242172, Note_on_c, 0, 75, 103
1, 242271, Note_on_c, 0, 75, 0
1, 242271, Note_on_c, 0, 72, 95
1, 242370, Note_on_c, 0, 72, 0
1, 242370, Note_on_c, 0, 81, 95
1, 242469, Note_on_c, 0, 81, 0
1, 242469, Note_on_c, 0, 75, 99
1, 242568, Note_on_c, 0, 75, 0
1, 242568, Note_on_c, 0, 69, 95
1, 242666, Note_on_c, 0, 69, 0
1, 242666, Note_on_c, 0, 78, 95
1, 242765, Note_on_c, 0, 78, 0
1, 242765, Note_on_c, 0, 75, 98
1, 242765, Control_c, 0, 64, 0
1, 242836, Control_c, 0, 64, 127
1, 242865, Note_on_c, 0, 75, 0
1, 242865, Note_on_c, 0, 69, 92
1, 242964, Note_on_c, 0, 69, 0
1, 242964, Note_on_c, 0, 77, 92
1, 243063, Note_on_c, 0, 77, 0
1, 243063, Note_on_c, 0, 75, 97
1, 243162, Note_on_c, 0, 75, 0
1, 243162, Note_on_c, 0, 69, 92
1, 243261, Note_on_c, 0, 69, 0
1, 243261, Note_on_c, 0, 77, 92
1, 243361, Note_on_c, 0, 77, 0
1, 243361, Note_on_c, 0, 70, 88
1, 243361, Note_on_c, 0, 74, 88
1, 243364, Note_on_c, 0, 65, 0
1, 243364, Note_on_c, 0, 53, 0
1, 243364, Note_on_c, 0, 77, 100
1, 243367, Note_on_c, 0, 60, 0
1, 243367, Note_on_c, 0, 63, 0
1, 243367, Note_on_c, 0, 34, 87
1, 243370, Note_on_c, 0, 46, 91
1, 243370, Control_c, 0, 64, 0
1, 243370, Control_c, 0, 64, 0
1, 243408, Control_c, 0, 64, 127
1, 243462, Note_on_c, 0, 46, 0
1, 243462, Note_on_c, 0, 34, 0
1, 243462, Note_on_c, 0, 41, 82
1, 243564, Note_on_c, 0, 41, 0
1, 243564, Note_on_c, 0, 38, 83
1, 243666, Note_on_c, 0, 74, 0
1, 243666, Note_on_c, 0, 77, 0
1, 243666, Note_on_c, 0, 70, 0
1, 243669, Note_on_c, 0, 38, 0
1, 243669, Note_on_c, 0, 65, 96
1, 243669, Note_on_c, 0, 41, 91
1, 243672, Control_c, 0, 64, 0
1, 243687, Control_c, 0, 64, 127
1, 243767, Note_on_c, 0, 41, 0
1, 243767, Note_on_c, 0, 46, 84
1, 243869, Note_on_c, 0, 46, 0
1, 243869, Note_on_c, 0, 50, 85
1, 243973, Note_on_c, 0, 50, 0
1, 243973, Note_on_c, 0, 48, 91
1, 243977, Control_c, 0, 64, 0
1, 244039, Control_c, 0, 64, 127
1, 244075, Note_on_c, 0, 48, 0
1, 244075, Note_on_c, 0, 45, 84
1, 244177, Note_on_c, 0, 45, 0
1, 244177, Note_on_c, 0, 41, 85
1, 244282, Note_on_c, 0, 41, 0
1, 244282, Note_on_c, 0, 65, 0
1, 244282, Note_on_c, 0, 65, 96
1, 244285, Note_on_c, 0, 45, 91
1, 244285, Control_c, 0, 64, 0
1, 244304, Control_c, 0, 64, 127
1, 244384, Note_on_c, 0, 45, 0
1, 244384, Note_on_c, 0, 48, 86
1, 244485, Note_on_c, 0, 48, 0
1, 244485, Note_on_c, 0, 51, 86
1, 244590, Note_on_c, 0, 51, 0
1, 244590, Note_on_c, 0, 65, 0
1, 244590, Note_on_c, 0, 70, 103
1, 244593, Note_on_c, 0, 50, 85
1, 244593, Control_c, 0, 64, 0
1, 244629, Control_c, 0, 64, 127
1, 244689, Note_on_c, 0, 50, 0
1, 244689, Note_on_c, 0, 70, 0
1, 244689, Note_on_c, 0, 65, 95
1, 244692, Note_on_c, 0, 53, 77
1, 244788, Note_on_c, 0, 53, 0
1, 244788, Note_on_c, 0, 65, 0
1, 244788, Note_on_c, 0, 62, 95
1, 244791, Note_on_c, 0, 58, 77
1, 244888, Note_on_c, 0, 58, 0
1, 244888, Note_on_c, 0, 62, 0
1, 244888, Note_on_c, 0, 65, 103
1, 244891, Note_on_c, 0, 53, 85
1, 244987, Note_on_c, 0, 53, 0
1, 244987, Note_on_c, 0, 65, 0
1, 244987, Note_on_c, 0, 70, 95
1, 244990, Note_on_c, 0, 50, 78
1, 245086, Note_on_c, 0, 50, 0
1, 245086, Note_on_c, 0, 70, 0
1, 245086, Note_on_c, 0, 74, 94
1, 245089, Note_on_c, 0, 46, 78
1, 245190, Note_on_c, 0, 46, 0
1, 245190, Note_on_c, 0, 74, 0
1, 245190, Note_on_c, 0, 72, 103
1, 245193, Note_on_c, 0, 51, 85
1, 245193, Control_c, 0, 64, 0
1, 245230, Control_c, 0, 64, 127
1, 245290, Note_on_c, 0, 51, 0
1, 245290, Note_on_c, 0, 72, 0
1, 245290, Note_on_c, 0, 69, 95
1, 245293, Note_on_c, 0, 54, 77
1, 245389, Note_on_c, 0, 54, 0
1, 245389, Note_on_c, 0, 69, 0
1, 245389, Note_on_c, 0, 66, 95
1, 245392, Note_on_c, 0, 58, 77
1, 245489, Note_on_c, 0, 58, 0
1, 245489, Note_on_c, 0, 66, 0
1, 245489, Note_on_c, 0, 69, 103
1, 245492, Note_on_c, 0, 54, 85
1, 245589, Note_on_c, 0, 54, 0
1, 245589, Note_on_c, 0, 69, 0
1, 245589, Note_on_c, 0, 72, 96
1, 245592, Note_on_c, 0, 51, 78
1, 245688, Note_on_c, 0, 51, 0
1, 245688, Note_on_c, 0, 72, 0
1, 245688, Note_on_c, 0, 75, 96
1, 245691, Note_on_c, 0, 46, 79
1, 245792, Note_on_c, 0, 46, 0
1, 245792, Note_on_c, 0, 75, 0
1, 245792, Note_on_c, 0, 74, 103
1, 245795, Note_on_c, 0, 53, 85
1, 245795, Control_c, 0, 64, 0
1, 245831, Control_c, 0, 64, 127
1, 245891, Note_on_c, 0, 74, 0
1, 245891, Note_on_c, 0, 71, 95
1, 245891, Note_on_c, 0, 56, 77
1, 245990, Note_on_c, 0, 71, 0
1, 245990, Note_on_c, 0, 68, 98
1, 245990, Note_on_c, 0, 58, 77
1, 246089, Note_on_c, 0, 68, 0
1, 246089, Note_on_c, 0, 56, 0
1, 246089, Note_on_c, 0, 71, 103
1, 246092, Note_on_c, 0, 56, 85
1, 246188, Note_on_c, 0, 71, 0
1, 246188, Note_on_c, 0, 53, 0
1, 246188, Note_on_c, 0, 74, 96
1, 246191, Note_on_c, 0, 53, 78
1, 246287, Note_on_c, 0, 74, 0
1, 246287, Note_on_c, 0, 77, 95
1, 246287, Note_on_c, 0, 46, 78
1, 246397, Note_on_c, 0, 77, 0
1, 246397, Note_on_c, 0, 80, 103
1, 246496, Note_on_c, 0, 80, 0
1, 246496, Note_on_c, 0, 74, 95
1, 246595, Note_on_c, 0, 74, 0
1, 246595, Note_on_c, 0, 83, 95
1, 246694, Note_on_c, 0, 83, 0
1, 246694, Note_on_c, 0, 74, 103
1, 246793, Note_on_c, 0, 74, 0
1, 246793, Note_on_c, 0, 71, 95
1, 246892, Note_on_c, 0, 71, 0
1, 246892, Note_on_c, 0, 80, 95
1, 246991, Note_on_c, 0, 80, 0
1, 246991, Note_on_c, 0, 71, 103
1, 247090, Note_on_c, 0, 71, 0
1, 247090, Note_on_c, 0, 68, 95
1, 247189, Note_on_c, 0, 68, 0
1, 247189, Note_on_c, 0, 77, 95
1, 247288, Note_on_c, 0, 77, 0
1, 247288, Note_on_c, 0, 68, 99
1, 247387, Note_on_c, 0, 68, 0
1, 247387, Note_on_c, 0, 65, 95
1, 247485, Note_on_c, 0, 65, 0
1, 247485, Note_on_c, 0, 74, 95
1, 247584, Note_on_c, 0, 74, 0
1, 247584, Note_on_c, 0, 68, 98
1, 247584, Control_c, 0, 64, 0
1, 247605, Control_c, 0, 64, 127
1, 247684, Note_on_c, 0, 68, 0
1, 247684, Note_on_c, 0, 62, 92
1, 247783, Note_on_c, 0, 62, 0
1, 247783, Note_on_c, 0, 71, 92
1, 247882, Note_on_c, 0, 71, 0
1, 247882, Note_on_c, 0, 68, 97
1, 247981, Note_on_c, 0, 68, 0
1, 247981, Note_on_c, 0, 62, 92
1, 248080, Note_on_c, 0, 62, 0
1, 248080, Note_on_c, 0, 70, 92
1, 248189, Note_on_c, 0, 70, 0
1, 248189, Note_on_c, 0, 46, 0
1, 248189, Note_on_c, 0, 78, 103
1, 248192, Note_on_c, 0, 53, 0
1, 248192, Note_on_c, 0, 56, 0
1, 248192, Note_on_c, 0, 58, 0
1, 248195, Note_on_c, 0, 51, 85
1, 248195, Control_c, 0, 64, 0
1, 248228, Control_c, 0, 64, 127
1, 248288, Note_on_c, 0, 78, 0
1, 248288, Note_on_c, 0, 75, 95
1, 248288, Note_on_c, 0, 54, 77
1, 248386, Note_on_c, 0, 75, 0
1, 248386, Note_on_c, 0, 70, 98
1, 248386, Note_on_c, 0, 58, 77
1, 248485, Note_on_c, 0, 70, 0
1, 248485, Note_on_c, 0, 54, 0
1, 248485, Note_on_c, 0, 75, 103
1, 248488, Note_on_c, 0, 54, 85
1, 248584, Note_on_c, 0, 75, 0
1, 248584, Note_on_c, 0, 51, 0
1, 248584, Note_on_c, 0, 78, 96
1, 248587, Note_on_c, 0, 51, 78
1, 248683, Note_on_c, 0, 78, 0
1, 248683, Note_on_c, 0, 82, 95
1, 248683, Note_on_c, 0, 46, 78
1, 248782, Note_on_c, 0, 82, 0
1, 248782, Note_on_c, 0, 78, 103
1, 248881, Note_on_c, 0, 78, 0
1, 248881, Note_on_c, 0, 75, 95
1, 248980, Note_on_c, 0, 75, 0
1, 248980, Note_on_c, 0, 87, 95
1, 249080, Note_on_c, 0, 87, 0
1, 249080, Note_on_c, 0, 75, 103
1, 249179, Note_on_c, 0, 75, 0
1, 249179, Note_on_c, 0, 70, 95
1, 249277, Note_on_c, 0, 70, 0
1, 249277, Note_on_c, 0, 82, 95
1, 249376, Note_on_c, 0, 82, 0
1, 249376, Note_on_c, 0, 70, 103
1, 249475, Note_on_c, 0, 70, 0
1, 249475, Note_on_c, 0, 66, 95
1, 249574, Note_on_c, 0, 66, 0
1, 249574, Note_on_c, 0, 78, 95
1, 249673, Note_on_c, 0, 78, 0
1, 249673, Note_on_c, 0, 66, 99
1, 249772, Note_on_c, 0, 66, 0
1, 249772, Note_on_c, 0, 63, 95
1, 249871, Note_on_c, 0, 63, 0
1, 249871, Note_on_c, 0, 75, 95
1, 249970, Note_on_c, 0, 75, 0
1, 249970, Note_on_c, 0, 66, 98
1, 250069, Note_on_c, 0, 66, 0
1, 250069, Note_on_c, 0, 63, 92
1, 250168, Note_on_c, 0, 63, 0
1, 250168, Note_on_c, 0, 75, 92
1, 250267, Note_on_c, 0, 75, 0
1, 250267, Note_on_c, 0, 66, 97
1, 250366, Note_on_c, 0, 66, 0
1, 250366, Note_on_c, 0, 63, 92
1, 250466, Note_on_c, 0, 63, 0
1, 250466, Note_on_c, 0, 75, 92
1, 250575, Note_on_c, 0, 75, 0
1, 250575, Note_on_c, 0, 46, 0
1, 250575, Note_on_c, 0, 78, 103
1, 250578, Note_on_c, 0, 51, 0
1, 250578, Note_on_c, 0, 54, 0
1, 250578, Note_on_c, 0, 58, 0
1, 250581, Note_on_c, 0, 49, 85
1, 250581, Control_c, 0, 64, 0
1, 250614, Control_c, 0, 64, 127
1, 250674, Note_on_c, 0, 78, 0
1, 250674, Note_on_c, 0, 76, 95
1, 250674, Note_on_c, 0, 54, 77
1, 250773, Note_on_c, 0, 76, 0
1, 250773, Note_on_c, 0, 73, 98
1, 250773, Note_on_c, 0, 58, 77
1, 250871, Note_on_c, 0, 73, 0
1, 250871, Note_on_c, 0, 54, 0
1, 250871, Note_on_c, 0, 76, 103
1, 250874, Note_on_c, 0, 54, 85
1, 250970, Note_on_c, 0, 76, 0
1, 250970, Note_on_c, 0, 49, 0
1, 250970, Note_on_c, 0, 78, 96
1, 250973, Note_on_c, 0, 49, 78
1, 251069, Note_on_c, 0, 78, 0
1, 251069, Note_on_c, 0, 85, 95
1, 251069, Note_on_c, 0, 46, 78
1, 251168, Note_on_c, 0, 85, 0
1, 251168, Note_on_c, 0, 78, 103
1, 251267, Note_on_c, 0, 78, 0
1, 251267, Note_on_c, 0, 76, 95
1, 251366, Note_on_c, 0, 76, 0
1, 251366, Note_on_c, 0, 88, 95
1, 251466, Note_on_c, 0, 88, 0
1, 251466, Note_on_c, 0, 76, 103
1, 251565, Note_on_c, 0, 76, 0
1, 251565, Note_on_c, 0, 73, 95
1, 251663, Note_on_c, 0, 73, 0
1, 251663, Note_on_c, 0, 85, 95
1, 251762, Note_on_c, 0, 85, 0
1, 251762, Note_on_c, 0, 73, 103
1, 251861, Note_on_c, 0, 73, 0
1, 251861, Note_on_c, 0, 66, 95
1, 251960, Note_on_c, 0, 66, 0
1, 251960, Note_on_c, 0, 78, 95
1, 252059, Note_on_c, 0, 78, 0
1, 252059, Note_on_c, 0, 66, 99
1, 252158, Note_on_c, 0, 66, 0
1, 252158, Note_on_c, 0, 64, 95
1, 252257, Note_on_c, 0, 64, 0
1, 252257, Note_on_c, 0, 76, 95
1, 252356, Note_on_c, 0, 76, 0
1, 252356, Note_on_c, 0, 66, 98
1, 252455, Note_on_c, 0, 66, 0
1, 252455, Note_on_c, 0, 64, 92
1, 252554, Note_on_c, 0, 64, 0
1, 252554, Note_on_c, 0, 76, 92
1, 252653, Note_on_c, 0, 76, 0
1, 252653, Note_on_c, 0, 66, 97
1, 252753, Note_on_c, 0, 66, 0
1, 252753, Note_on_c, 0, 64, 92
1, 252852, Note_on_c, 0, 64, 0
1, 252852, Note_on_c, 0, 76, 92
1, 252961, Note_on_c, 0, 76, 0
1, 252961, Note_on_c, 0, 46, 0
1, 252961, Note_on_c, 0, 78, 103
1, 252964, Note_on_c, 0, 49, 0
1, 252964, Note_on_c, 0, 54, 0
1, 252964, Note_on_c, 0, 58, 0
1, 252967, Note_on_c, 0, 50, 85
1, 252967, Control_c, 0, 64, 0
1, 253000, Control_c, 0, 64, 127
1, 253060, Note_on_c, 0, 78, 0
1, 253060, Note_on_c, 0, 74, 95
1, 253060, Note_on_c, 0, 54, 77
1, 253159, Note_on_c, 0, 74, 0
1, 253159, Note_on_c, 0, 71, 98
1, 253159, Note_on_c, 0, 59, 77
1, 253257, Note_on_c, 0, 71, 0
1, 253257, Note_on_c, 0, 54, 0
1, 253257, Note_on_c, 0, 74, 103
1, 253260, Note_on_c, 0, 54, 85
1, 253356, Note_on_c, 0, 74, 0
1, 253356, Note_on_c, 0, 50, 0
1, 253356, Note_on_c, 0, 78, 96
1, 253359, Note_on_c, 0, 50, 78
1, 253455, Note_on_c, 0, 78, 0
1, 253455, Note_on_c, 0, 83, 95
1, 253455, Note_on_c, 0, 47, 78
1, 253554, Note_on_c, 0, 83, 0
1, 253554, Note_on_c, 0, 78, 103
1, 253653, Note_on_c, 0, 78, 0
1, 253653, Note_on_c, 0, 74, 95
1, 253753, Note_on_c, 0, 74, 0
1, 253753, Note_on_c, 0, 86, 95
1, 253852, Note_on_c, 0, 86, 0
1, 253852, Note_on_c, 0, 74, 103
1, 253951, Note_on_c, 0, 74, 0
1, 253951, Note_on_c, 0, 71, 95
1, 254050, Note_on_c, 0, 71, 0
1, 254050, Note_on_c, 0, 83, 95
1, 254148, Note_on_c, 0, 83, 0
1, 254148, Note_on_c, 0, 71, 103
1, 254247, Note_on_c, 0, 71, 0
1, 254247, Note_on_c, 0, 66, 95
1, 254346, Note_on_c, 0, 66, 0
1, 254346, Note_on_c, 0, 78, 95
1, 254445, Note_on_c, 0, 78, 0
1, 254445, Note_on_c, 0, 66, 99
1, 254544, Note_on_c, 0, 66, 0
1, 254544, Note_on_c, 0, 62, 95
1, 254643, Note_on_c, 0, 62, 0
1, 254643, Note_on_c, 0, 74, 95
1, 254742, Note_on_c, 0, 74, 0
1, 254742, Note_on_c, 0, 66, 98
1, 254841, Note_on_c, 0, 66, 0
1, 254841, Note_on_c, 0, 62, 92
1, 254940, Note_on_c, 0, 62, 0
1, 254940, Note_on_c, 0, 74, 92
1, 255039, Note_on_c, 0, 74, 0
1, 255039, Note_on_c, 0, 66, 97
1, 255139, Note_on_c, 0, 66, 0
1, 255139, Note_on_c, 0, 62, 92
1, 255238, Note_on_c, 0, 62, 0
1, 255238, Note_on_c, 0, 74, 92
1, 255347, Note_on_c, 0, 74, 0
1, 255347, Note_on_c, 0, 47, 0
1, 255347, Note_on_c, 0, 79, 103
1, 255350, Note_on_c, 0, 50, 0
1, 255350, Note_on_c, 0, 54, 0
1, 255350, Note_on_c, 0, 59, 0
1, 255353, Note_on_c, 0, 50, 85
1, 255353, Control_c, 0, 64, 0
1, 255386, Control_c, 0, 64, 127
1, 255446, Note_on_c, 0, 79, 0
1, 255446, Note_on_c, 0, 74, 95
1, 255446, Note_on_c, 0, 55, 77
1, 255545, Note_on_c, 0, 74, 0
1, 255545, Note_on_c, 0, 71, 98
1, 255545, Note_on_c, 0, 59, 77
1, 255644, Note_on_c, 0, 71, 0
1, 255644, Note_on_c, 0, 55, 0
1, 255644, Note_on_c, 0, 74, 103
1, 255647, Note_on_c, 0, 55, 85
1, 255742, Note_on_c, 0, 74, 0
1, 255742, Note_on_c, 0, 50, 0
1, 255742, Note_on_c, 0, 79, 96
1, 255745, Note_on_c, 0, 50, 78
1, 255841, Note_on_c, 0, 79, 0
1, 255841, Note_on_c, 0, 83, 95
1, 255841, Note_on_c, 0, 47, 78
1, 255940, Note_on_c, 0, 83, 0
1, 255940, Note_on_c, 0, 79, 103
1, 256039, Note_on_c, 0, 79, 0
1, 256039, Note_on_c, 0, 74, 95
1, 256139, Note_on_c, 0, 74, 0
1, 256139, Note_on_c, 0, 86, 95
1, 256238, Note_on_c, 0, 86, 0
1, 256238, Note_on_c, 0, 74, 103
1, 256337, Note_on_c, 0, 74, 0
1, 256337, Note_on_c, 0, 71, 95
1, 256436, Note_on_c, 0, 71, 0
1, 256436, Note_on_c, 0, 83, 95
1, 256535, Note_on_c, 0, 83, 0
1, 256535, Note_on_c, 0, 71, 103
1, 256633, Note_on_c, 0, 71, 0
1, 256633, Note_on_c, 0, 67, 95
1, 256732, Note_on_c, 0, 67, 0
1, 256732, Note_on_c, 0, 79, 95
1, 256831, Note_on_c, 0, 79, 0
1, 256831, Note_on_c, 0, 67, 99
1, 256930, Note_on_c, 0, 67, 0
1, 256930, Note_on_c, 0, 65, 95
1, 257029, Note_on_c, 0, 65, 0
1, 257029, Note_on_c, 0, 77, 95
1, 257128, Note_on_c, 0, 77, 0
1, 257128, Note_on_c, 0, 67, 98
1, 257227, Note_on_c, 0, 67, 0
1, 257227, Note_on_c, 0, 62, 92
1, 257326, Note_on_c, 0, 62, 0
1, 257326, Note_on_c, 0, 74, 92
1, 257426, Note_on_c, 0, 74, 0
1, 257426, Note_on_c, 0, 67, 97
1, 257525, Note_on_c, 0, 67, 0
1, 257525, Note_on_c, 0, 62, 92
1, 257624, Note_on_c, 0, 62, 0
1, 257624, Note_on_c, 0, 74, 92
1, 257733, Note_on_c, 0, 74, 0
1, 257733, Note_on_c, 0, 47, 0
1, 257733, Note_on_c, 0, 84, 103
1, 257736, Note_on_c, 0, 50, 0
1, 257736, Note_on_c, 0, 55, 0
1, 257736, Note_on_c, 0, 59, 0
1, 257739, Note_on_c, 0, 51, 85
1, 257739, Control_c, 0, 64, 0
1, 257772, Control_c, 0, 64, 127
1, 257832, Note_on_c, 0, 84, 0
1, 257832, Note_on_c, 0, 79, 95
1, 257832, Note_on_c, 0, 55, 77
1, 257931, Note_on_c, 0, 79, 0
1, 257931, Note_on_c, 0, 75, 98
1, 257931, Note_on_c, 0, 60, 77
1, 258030, Note_on_c, 0, 75, 0
1, 258030, Note_on_c, 0, 55, 0
1, 258030, Note_on_c, 0, 79, 103
1, 258033, Note_on_c, 0, 55, 85
1, 258129, Note_on_c, 0, 79, 0
1, 258129, Note_on_c, 0, 51, 0
1, 258129, Note_on_c, 0, 84, 96
1, 258132, Note_on_c, 0, 51, 78
1, 258227, Note_on_c, 0, 84, 0
1, 258227, Note_on_c, 0, 87, 95
1, 258227, Note_on_c, 0, 48, 78
1, 258326, Note_on_c, 0, 87, 0
1, 258326, Note_on_c, 0, 79, 103
1, 258426, Note_on_c, 0, 79, 0
1, 258426, Note_on_c, 0, 75, 95
1, 258525, Note_on_c, 0, 75, 0
1, 258525, Note_on_c, 0, 87, 95
1, 258624, Note_on_c, 0, 87, 0
1, 258624, Note_on_c, 0, 75, 103
1, 258723, Note_on_c, 0, 75, 0
1, 258723, Note_on_c, 0, 72, 95
1, 258822, Note_on_c, 0, 72, 0
1, 258822, Note_on_c, 0, 84, 95
1, 258921, Note_on_c, 0, 84, 0
1, 258921, Note_on_c, 0, 72, 103
1, 259020, Note_on_c, 0, 72, 0
1, 259020, Note_on_c, 0, 67, 95
1, 259118, Note_on_c, 0, 67, 0
1, 259118, Note_on_c, 0, 79, 95
1, 259217, Note_on_c, 0, 79, 0
1, 259217, Note_on_c, 0, 67, 99
1, 259316, Note_on_c, 0, 67, 0
1, 259316, Note_on_c, 0, 63, 95
1, 259415, Note_on_c, 0, 63, 0
1, 259415, Note_on_c, 0, 75, 95
1, 259514, Note_on_c, 0, 75, 0
1, 259514, Note_on_c, 0, 67, 98
1, 259613, Note_on_c, 0, 67, 0
1, 259613, Note_on_c, 0, 63, 92
1, 259712, Note_on_c, 0, 63, 0
1, 259712, Note_on_c, 0, 75, 92
1, 259812, Note_on_c, 0, 75, 0
1, 259812, Note_on_c, 0, 67, 97
1, 259911, Note_on_c, 0, 67, 0
1, 259911, Note_on_c, 0, 63, 92
1, 260010, Note_on_c, 0, 63, 0
1, 260010, Note_on_c, 0, 75, 92
1, 260119, Note_on_c, 0, 75, 0
1, 260119, Note_on_c, 0, 48, 0
1, 260119, Note_on_c, 0, 77, 103
1, 260122, Note_on_c, 0, 51, 0
1, 260122, Note_on_c, 0, 55, 0
1, 260122, Note_on_c, 0, 60, 0
1, 260125, Note_on_c, 0, 56, 85
1, 260125, Control_c, 0, 64, 0
1, 260158, Control_c, 0, 64, 127
1, 260218, Note_on_c, 0, 77, 0
1, 260218, Note_on_c, 0, 73, 95
1, 260218, Note_on_c, 0, 61, 77
1, 260317, Note_on_c, 0, 73, 0
1, 260317, Note_on_c, 0, 68, 98
1, 260317, Note_on_c, 0, 65, 77
1, 260416, Note_on_c, 0, 68, 0
1, 260416, Note_on_c, 0, 61, 0
1, 260416, Note_on_c, 0, 73, 103
1, 260419, Note_on_c, 0, 61, 85
1, 260515, Note_on_c, 0, 73, 0
1, 260515, Note_on_c, 0, 56, 0
1, 260515, Note_on_c, 0, 77, 96
1, 260518, Note_on_c, 0, 56, 78
1, 260614, Note_on_c, 0, 77, 0
1, 260614, Note_on_c, 0, 80, 95
1, 260614, Note_on_c, 0, 53, 78
1, 260712, Note_on_c, 0, 80, 0
1, 260712, Note_on_c, 0, 77, 103
1, 260812, Note_on_c, 0, 77, 0
1, 260812, Note_on_c, 0, 73, 95
1, 260911, Note_on_c, 0, 73, 0
1, 260911, Note_on_c, 0, 68, 95
1, 261010, Note_on_c, 0, 68, 0
1, 261010, Note_on_c, 0, 77, 103
1, 261109, Note_on_c, 0, 77, 0
1, 261109, Note_on_c, 0, 73, 95
1, 261208, Note_on_c, 0, 73, 0
1, 261208, Note_on_c, 0, 68, 95
1, 261307, Note_on_c, 0, 68, 0
1, 261307, Note_on_c, 0, 53, 0
1, 261307, Note_on_c, 0, 75, 103
1, 261310, Note_on_c, 0, 56, 0
1, 261310, Note_on_c, 0, 61, 0
1, 261310, Note_on_c, 0, 65, 0
1, 261313, Note_on_c, 0, 60, 85
1, 261313, Control_c, 0, 64, 0
1, 261346, Control_c, 0, 64, 127
1, 261406, Note_on_c, 0, 75, 0
1, 261406, Note_on_c, 0, 72, 95
1, 261406, Note_on_c, 0, 63, 77
1, 261505, Note_on_c, 0, 72, 0
1, 261505, Note_on_c, 0, 69, 98
1, 261505, Note_on_c, 0, 66, 77
1, 261603, Note_on_c, 0, 69, 0
1, 261603, Note_on_c, 0, 63, 0
1, 261603, Note_on_c, 0, 72, 103
1, 261606, Note_on_c, 0, 63, 85
1, 261702, Note_on_c, 0, 72, 0
1, 261702, Note_on_c, 0, 60, 0
1, 261702, Note_on_c, 0, 75, 96
1, 261705, Note_on_c, 0, 60, 78
1, 261801, Note_on_c, 0, 75, 0
1, 261801, Note_on_c, 0, 81, 95
1, 261801, Note_on_c, 0, 54, 78
1, 261900, Note_on_c, 0, 81, 0
1, 261900, Note_on_c, 0, 63, 0
1, 261900, Note_on_c, 0, 75, 103
1, 261999, Note_on_c, 0, 75, 0
1, 261999, Note_on_c, 0, 72, 95
1, 262098, Note_on_c, 0, 72, 0
1, 262098, Note_on_c, 0, 69, 95
1, 262198, Note_on_c, 0, 69, 0
1, 262198, Note_on_c, 0, 75, 103
1, 262297, Note_on_c, 0, 75, 0
1, 262297, Note_on_c, 0, 72, 95
1, 262395, Note_on_c, 0, 72, 0
1, 262395, Note_on_c, 0, 69, 95
1, 262494, Note_on_c, 0, 69, 0
1, 262494, Note_on_c, 0, 60, 0
1, 262494, Note_on_c, 0, 66, 0
1, 262497, Note_on_c, 0, 54, 0
1, 262497, Note_on_c, 0, 59, 91
1, 262497, Control_c, 0, 64, 0
1, 262533, Control_c, 0, 64, 127
1, 262593, Note_on_c, 0, 62, 82
1, 262692, Note_on_c, 0, 67, 82
1, 262791, Note_on_c, 0, 62, 0
1, 262791, Note_on_c, 0, 71, 104
1, 262791, Note_on_c, 0, 62, 91
1, 262889, Note_on_c, 0, 71, 0
1, 262889, Note_on_c, 0, 59, 0
1, 262889, Note_on_c, 0, 74, 93
1, 262892, Note_on_c, 0, 59, 83
1, 262987, Note_on_c, 0, 74, 0
1, 262987, Note_on_c, 0, 79, 93
1, 262987, Note_on_c, 0, 55, 83
1, 263085, Note_on_c, 0, 79, 0
1, 263085, Note_on_c, 0, 74, 104
1, 263184, Note_on_c, 0, 74, 0
1, 263184, Note_on_c, 0, 71, 92
1, 263283, Note_on_c, 0, 71, 0
1, 263283, Note_on_c, 0, 67, 91
1, 263401, Note_on_c, 0, 59, 0
1, 263401, Note_on_c, 0, 67, 0
1, 263401, Note_on_c, 0, 77, 79
1, 263404, Note_on_c, 0, 67, 0
1, 263404, Note_on_c, 0, 62, 0
1, 263404, Note_on_c, 0, 62, 57
1, 263407, Control_c, 0, 64, 0
1, 263436, Control_c, 0, 64, 127
1, 263500, Note_on_c, 0, 77, 0
1, 263500, Note_on_c, 0, 71, 68
1, 263599, Note_on_c, 0, 71, 0
1, 263599, Note_on_c, 0, 67, 68
1, 263706, Note_on_c, 0, 67, 0
1, 263706, Note_on_c, 0, 62, 0
1, 263706, Note_on_c, 0, 77, 76
1, 263709, Note_on_c, 0, 59, 62
1, 263805, Note_on_c, 0, 77, 0
1, 263805, Note_on_c, 0, 74, 68
1, 263905, Note_on_c, 0, 74, 0
1, 263905, Note_on_c, 0, 67, 68
1, 264011, Note_on_c, 0, 67, 0
1, 264011, Note_on_c, 0, 59, 0
1, 264011, Note_on_c, 0, 75, 76
1, 264014, Note_on_c, 0, 55, 0
1, 264014, Note_on_c, 0, 55, 57
1, 264014, Control_c, 0, 64, 0
1, 264050, Control_c, 0, 64, 127
1, 264110, Note_on_c, 0, 75, 0
1, 264110, Note_on_c, 0, 74, 68
1, 264209, Note_on_c, 0, 74, 0
1, 264209, Note_on_c, 0, 67, 68
1, 264315, Note_on_c, 0, 67, 0
1, 264315, Note_on_c, 0, 75, 76
1, 264315, Note_on_c, 0, 60, 57
1, 264318, Control_c, 0, 64, 0
1, 264358, Control_c, 0, 64, 127
1, 264414, Note_on_c, 0, 75, 0
1, 264414, Note_on_c, 0, 72, 69
1, 264513, Note_on_c, 0, 72, 0
1, 264513, Note_on_c, 0, 67, 69
1, 264618, Note_on_c, 0, 67, 0
1, 264618, Note_on_c, 0, 60, 0
1, 264618, Note_on_c, 0, 74, 76
1, 264621, Note_on_c, 0, 66, 57
1, 264621, Control_c, 0, 64, 0
1, 264661, Control_c, 0, 64, 127
1, 264717, Note_on_c, 0, 74, 0
1, 264717, Note_on_c, 0, 72, 68
1, 264817, Note_on_c, 0, 72, 0
1, 264817, Note_on_c, 0, 69, 68
1, 264940, Note_on_c, 0, 69, 0
1, 264940, Note_on_c, 0, 66, 0
1, 264940, Note_on_c, 0, 55, 0
1, 264943, Note_on_c, 0, 47, 83
1, 264943, Control_c, 0, 64, 0
1, 264979, Control_c, 0, 64, 127
1, 265039, Note_on_c, 0, 50, 76
1, 265138, Note_on_c, 0, 55, 76
1, 265237, Note_on_c, 0, 50, 0
1, 265237, Note_on_c, 0, 59, 99
1, 265237, Note_on_c, 0, 50, 83
1, 265335, Note_on_c, 0, 59, 0
1, 265335, Note_on_c, 0, 47, 0
1, 265335, Note_on_c, 0, 62, 92
1, 265338, Note_on_c, 0, 47, 77
1, 265433, Note_on_c, 0, 62, 0
1, 265433, Note_on_c, 0, 67, 92
1, 265433, Note_on_c, 0, 43, 77
1, 265530, Note_on_c, 0, 67, 0
1, 265530, Note_on_c, 0, 62, 95
1, 265630, Note_on_c, 0, 62, 0
1, 265630, Note_on_c, 0, 59, 84
1, 265729, Note_on_c, 0, 59, 0
1, 265729, Note_on_c, 0, 55, 83
1, 265847, Note_on_c, 0, 47, 0
1, 265847, Note_on_c, 0, 55, 0
1, 265847, Note_on_c, 0, 65, 73
1, 265850, Note_on_c, 0, 55, 0
1, 265850, Note_on_c, 0, 50, 0
1, 265850, Note_on_c, 0, 50, 53
1, 265850, Control_c, 0, 64, 0
1, 265882, Control_c, 0, 64, 127
1, 265946, Note_on_c, 0, 65, 0
1, 265946, Note_on_c, 0, 59, 63
1, 266045, Note_on_c, 0, 59, 0
1, 266045, Note_on_c, 0, 55, 63
1, 266152, Note_on_c, 0, 55, 0
1, 266152, Note_on_c, 0, 50, 0
1, 266152, Note_on_c, 0, 65, 70
1, 266155, Note_on_c, 0, 47, 57
1, 266251, Note_on_c, 0, 65, 0
1, 266251, Note_on_c, 0, 62, 63
1, 266351, Note_on_c, 0, 62, 0
1, 266351, Note_on_c, 0, 55, 63
1, 266456, Note_on_c, 0, 55, 0
1, 266456, Note_on_c, 0, 47, 0
1, 266456, Note_on_c, 0, 63, 70
1, 266459, Note_on_c, 0, 43, 0
1, 266459, Note_on_c, 0, 43, 53
1, 266459, Control_c, 0, 64, 0
1, 266476, Control_c, 0, 64, 127
1, 266556, Note_on_c, 0, 63, 0
1, 266556, Note_on_c, 0, 62, 63
1, 266655, Note_on_c, 0, 62, 0
1, 266655, Note_on_c, 0, 55, 63
1, 266761, Note_on_c, 0, 55, 0
1, 266761, Note_on_c, 0, 63, 70
1, 266761, Note_on_c, 0, 48, 53
1, 266764, Control_c, 0, 64, 0
1, 266795, Control_c, 0, 64, 127
1, 266860, Note_on_c, 0, 63, 0
1, 266860, Note_on_c, 0, 60, 64
1, 266959, Note_on_c, 0, 60, 0
1, 266959, Note_on_c, 0, 55, 64
1, 267064, Note_on_c, 0, 55, 0
1, 267064, Note_on_c, 0, 48, 0
1, 267064, Note_on_c, 0, 62, 70
1, 267067, Note_on_c, 0, 54, 53
1, 267067, Control_c, 0, 64, 0
1, 267090, Control_c, 0, 64, 127
1, 267163, Note_on_c, 0, 62, 0
1, 267163, Note_on_c, 0, 60, 63
1, 267263, Note_on_c, 0, 60, 0
1, 267263, Note_on_c, 0, 57, 63
1, 267367, Note_on_c, 0, 57, 0
1, 267367, Note_on_c, 0, 54, 0
1, 267367, Note_on_c, 0, 62, 70
1, 267370, Note_on_c, 0, 55, 57
1, 267370, Control_c, 0, 64, 0
1, 267406, Control_c, 0, 64, 127
1, 267466, Note_on_c, 0, 62, 0
1, 267466, Note_on_c, 0, 59, 63
1, 267516, Note_on_c, 0, 55, 0
1, 267516, Note_on_c, 0, 43, 0
1, 267565, Note_on_c, 0, 59, 0
1, 267565, Note_on_c, 0, 55, 63
1, 267671, Note_on_c, 0, 55, 0
1, 267671, Note_on_c, 0, 60, 70
1, 267671, Note_on_c, 0, 48, 53
1, 267674, Control_c, 0, 64, 0
1, 267696, Control_c, 0, 64, 127
1, 267771, Note_on_c, 0, 60, 0
1, 267771, Note_on_c, 0, 55, 63
1, 267871, Note_on_c, 0, 55, 0
1, 267871, Note_on_c, 0, 51, 62
1, 267978, Note_on_c, 0, 51, 0
1, 267978, Note_on_c, 0, 48, 0
1, 267978, Note_on_c, 0, 59, 69
1, 267981, Note_on_c, 0, 43, 52
1, 267981, Control_c, 0, 64, 0
1, 268004, Control_c, 0, 64, 127
1, 268079, Note_on_c, 0, 59, 0
1, 268079, Note_on_c, 0, 55, 62
1, 268179, Note_on_c, 0, 55, 0
1, 268179, Note_on_c, 0, 50, 62
1, 268286, Note_on_c, 0, 50, 0
1, 268286, Note_on_c, 0, 43, 0
1, 268286, Note_on_c, 0, 57, 67
1, 268289, Note_on_c, 0, 36, 51
1, 268289, Control_c, 0, 64, 0
1, 268317, Control_c, 0, 64, 127
1, 268388, Note_on_c, 0, 57, 0
1, 268388, Note_on_c, 0, 51, 60
1, 268489, Note_on_c, 0, 51, 0
1, 268489, Note_on_c, 0, 48, 60
1, 268596, Note_on_c, 0, 48, 0
1, 268596, Note_on_c, 0, 36, 0
1, 268596, Note_on_c, 0, 55, 66
1, 268599, Note_on_c, 0, 31, 54
1, 268599, Control_c, 0, 64, 0
1, 268636, Control_c, 0, 64, 127
1, 268698, Note_on_c, 0, 55, 0
1, 268698, Note_on_c, 0, 50, 59
1, 268800, Note_on_c, 0, 50, 0
1, 268800, Note_on_c, 0, 47, 58
1, 268909, Note_on_c, 0, 47, 0
1, 268909, Note_on_c, 0, 31, 0
1, 268909, Note_on_c, 0, 54, 64
1, 268912, Note_on_c, 0, 36, 49
1, 268912, Control_c, 0, 64, 0
1, 268967, Control_c, 0, 64, 127
1, 269012, Note_on_c, 0, 54, 0
1, 269012, Note_on_c, 0, 51, 57
1, 269115, Note_on_c, 0, 51, 0
1, 269115, Note_on_c, 0, 45, 57
1, 269224, Note_on_c, 0, 45, 0
1, 269224, Note_on_c, 0, 36, 0
1, 269224, Note_on_c, 0, 55, 63
1, 269227, Note_on_c, 0, 31, 48
1, 269227, Control_c, 0, 64, 0
1, 269260, Control_c, 0, 64, 127
1, 269327, Note_on_c, 0, 55, 0
1, 269327, Note_on_c, 0, 50, 57
1, 269431, Note_on_c, 0, 50, 0
1, 269431, Note_on_c, 0, 47, 57
1, 269539, Note_on_c, 0, 47, 0
1, 269539, Note_on_c, 0, 31, 0
1, 269539, Note_on_c, 0, 54, 61
1, 269542, Note_on_c, 0, 36, 47
1, 269542, Control_c, 0, 64, 0
1, 269576, Control_c, 0, 64, 127
1, 269644, Note_on_c, 0, 54, 0
1, 269644, Note_on_c, 0, 51, 55
1, 269749, Note_on_c, 0, 51, 0
1, 269749, Note_on_c, 0, 45, 55
1, 269858, Note_on_c, 0, 45, 0
1, 269858, Note_on_c, 0, 47, 59
1, 269858, Note_on_c, 0, 50, 59
1, 269861, Note_on_c, 0, 36, 0
1, 269861, Note_on_c, 0, 55, 66
1, 269861, Note_on_c, 0, 31, 58
1, 269865, Control_c, 0, 64, 0
1, 269933, Note_on_c, 0, 31, 0
1, 269933, Note_on_c, 0, 36, 54
1, 270008, Note_on_c, 0, 36, 0
1, 270008, Note_on_c, 0, 35, 54
1, 270083, Note_on_c, 0, 35, 0
1, 270083, Note_on_c, 0, 33, 54
1, 270158, Note_on_c, 0, 33, 0
1, 270158, Note_on_c, 0, 31, 58
1, 270233, Note_on_c, 0, 31, 0
1, 270233, Note_on_c, 0, 36, 54
1, 270307, Note_on_c, 0, 36, 0
1, 270307, Note_on_c, 0, 35, 54
1, 270382, Note_on_c, 0, 35, 0
1, 270382, Note_on_c, 0, 33, 54
1, 270457, Note_on_c, 0, 33, 0
1, 270457, Note_on_c, 0, 31, 58
1, 270532, Note_on_c, 0, 31, 0
1, 270532, Note_on_c, 0, 36, 54
1, 270607, Note_on_c, 0, 36, 0
1, 270607, Note_on_c, 0, 35, 54
1, 270681, Note_on_c, 0, 35, 0
1, 270681, Note_on_c, 0, 33, 54
1, 270756, Note_on_c, 0, 33, 0
1, 270756, Note_on_c, 0, 31, 58
1, 270831, Note_on_c, 0, 31, 0
1, 270831, Note_on_c, 0, 36, 54
1, 270906, Note_on_c, 0, 36, 0
1, 270906, Note_on_c, 0, 35, 54
1, 270981, Note_on_c, 0, 35, 0
1, 270981, Note_on_c, 0, 33, 54
1, 271055, Note_on_c, 0, 33, 0
1, 271055, Note_on_c, 0, 31, 54
1, 271135, Note_on_c, 0, 55, 0
1, 271135, Note_on_c, 0, 47, 0
1, 271135, Note_on_c, 0, 50, 0
1, 271138, Note_on_c, 0, 50, 61
1, 271210, Note_on_c, 0, 50, 0
1, 271210, Note_on_c, 0, 52, 61
1, 271285, Note_on_c, 0, 52, 0
1, 271285, Note_on_c, 0, 54, 61
1, 271360, Note_on_c, 0, 54, 0
1, 271360, Note_on_c, 0, 55, 66
1, 271434, Note_on_c, 0, 55, 0
1, 271434, Note_on_c, 0, 50, 61
1, 271509, Note_on_c, 0, 50, 0
1, 271509, Note_on_c, 0, 52, 61
1, 271584, Note_on_c, 0, 52, 0
1, 271584, Note_on_c, 0, 54, 61
1, 271659, Note_on_c, 0, 54, 0
1, 271659, Note_on_c, 0, 55, 66
1, 271734, Note_on_c, 0, 55, 0
1, 271734, Note_on_c, 0, 50, 61
1, 271809, Note_on_c, 0, 50, 0
1, 271809, Note_on_c, 0, 52, 61
1, 271883, Note_on_c, 0, 52, 0
1, 271883, Note_on_c, 0, 54, 61
1, 271958, Note_on_c, 0, 54, 0
1, 271958, Note_on_c, 0, 55, 67
1, 272033, Note_on_c, 0, 55, 0
1, 272033, Note_on_c, 0, 50, 61
1, 272108, Note_on_c, 0, 50, 0
1, 272108, Note_on_c, 0, 52, 61
1, 272183, Note_on_c, 0, 52, 0
1, 272183, Note_on_c, 0, 54, 61
1, 272258, Note_on_c, 0, 54, 0
1, 272258, Note_on_c, 0, 55, 66
1, 272276, Control_c, 0, 64, 0
1, 272338, Note_on_c, 0, 31, 0
1, 272338, Note_on_c, 0, 36, 54
1, 272413, Note_on_c, 0, 36, 0
1, 272413, Note_on_c, 0, 35, 54
1, 272488, Note_on_c, 0, 35, 0
1, 272488, Note_on_c, 0, 33, 54
1, 272563, Note_on_c, 0, 33, 0
1, 272563, Note_on_c, 0, 31, 58
1, 272637, Note_on_c, 0, 31, 0
1, 272637, Note_on_c, 0, 36, 54
1, 272712, Note_on_c, 0, 36, 0
1, 272712, Note_on_c, 0, 35, 54
1, 272787, Note_on_c, 0, 35, 0
1, 272787, Note_on_c, 0, 33, 54
1, 272862, Note_on_c, 0, 33, 0
1, 272862, Note_on_c, 0, 31, 58
1, 272937, Note_on_c, 0, 31, 0
1, 272937, Note_on_c, 0, 36, 54
1, 273012, Note_on_c, 0, 36, 0
1, 273012, Note_on_c, 0, 35, 54
1, 273086, Note_on_c, 0, 35, 0
1, 273086, Note_on_c, 0, 33, 54
1, 273161, Note_on_c, 0, 33, 0
1, 273161, Note_on_c, 0, 31, 58
1, 273236, Note_on_c, 0, 31, 0
1, 273236, Note_on_c, 0, 36, 54
1, 273311, Note_on_c, 0, 36, 0
1, 273311, Note_on_c, 0, 35, 54
1, 273386, Note_on_c, 0, 35, 0
1, 273386, Note_on_c, 0, 33, 54
1, 273461, Note_on_c, 0, 33, 0
1, 273461, Note_on_c, 0, 31, 54
1, 273541, Note_on_c, 0, 55, 0
1, 273541, Note_on_c, 0, 54, 61
1, 273615, Note_on_c, 0, 54, 0
1, 273615, Note_on_c, 0, 55, 61
1, 273690, Note_on_c, 0, 55, 0
1, 273690, Note_on_c, 0, 57, 61
1, 273765, Note_on_c, 0, 57, 0
1, 273765, Note_on_c, 0, 59, 66
1, 273840, Note_on_c, 0, 59, 0
1, 273840, Note_on_c, 0, 54, 61
1, 273915, Note_on_c, 0, 54, 0
1, 273915, Note_on_c, 0, 55, 61
1, 273990, Note_on_c, 0, 55, 0
1, 273990, Note_on_c, 0, 57, 61
1, 274064, Note_on_c, 0, 57, 0
1, 274064, Note_on_c, 0, 59, 66
1, 274139, Note_on_c, 0, 59, 0
1, 274139, Note_on_c, 0, 54, 61
1, 274214, Note_on_c, 0, 54, 0
1, 274214, Note_on_c, 0, 55, 61
1, 274289, Note_on_c, 0, 55, 0
1, 274289, Note_on_c, 0, 57, 61
1, 274364, Note_on_c, 0, 57, 0
1, 274364, Note_on_c, 0, 59, 67
1, 274439, Note_on_c, 0, 59, 0
1, 274439, Note_on_c, 0, 54, 61
1, 274513, Note_on_c, 0, 54, 0
1, 274513, Note_on_c, 0, 55, 61
1, 274588, Note_on_c, 0, 55, 0
1, 274588, Note_on_c, 0, 57, 61
1, 274663, Note_on_c, 0, 57, 0
1, 274663, Note_on_c, 0, 59, 66
1, 274680, Control_c, 0, 64, 0
1, 274738, Note_on_c, 0, 31, 0
1, 274738, Note_on_c, 0, 36, 54
1, 274813, Note_on_c, 0, 36, 0
1, 274813, Note_on_c, 0, 59, 0
1, 274813, Note_on_c, 0, 35, 54
1, 274887, Note_on_c, 0, 35, 0
1, 274887, Note_on_c, 0, 33, 54
1, 274962, Note_on_c, 0, 33, 0
1, 274962, Note_on_c, 0, 31, 58
1, 275037, Note_on_c, 0, 31, 0
1, 275037, Note_on_c, 0, 36, 54
1, 275112, Note_on_c, 0, 36, 0
1, 275112, Note_on_c, 0, 59, 62
1, 275112, Note_on_c, 0, 35, 54
1, 275187, Note_on_c, 0, 35, 0
1, 275187, Note_on_c, 0, 59, 0
1, 275187, Note_on_c, 0, 60, 65
1, 275190, Note_on_c, 0, 33, 54
1, 275262, Note_on_c, 0, 33, 0
1, 275262, Note_on_c, 0, 60, 0
1, 275262, Note_on_c, 0, 62, 69
1, 275265, Note_on_c, 0, 31, 59
1, 275336, Note_on_c, 0, 31, 0
1, 275336, Note_on_c, 0, 62, 0
1, 275336, Note_on_c, 0, 36, 54
1, 275411, Note_on_c, 0, 36, 0
1, 275411, Note_on_c, 0, 35, 55
1, 275486, Note_on_c, 0, 35, 0
1, 275486, Note_on_c, 0, 33, 55
1, 275561, Note_on_c, 0, 33, 0
1, 275561, Note_on_c, 0, 31, 59
1, 275636, Note_on_c, 0, 31, 0
1, 275636, Note_on_c, 0, 36, 55
1, 275711, Note_on_c, 0, 36, 0
1, 275711, Note_on_c, 0, 62, 66
1, 275711, Note_on_c, 0, 35, 55
1, 275760, Note_on_c, 0, 62, 0
1, 275760, Note_on_c, 0, 64, 68
1, 275785, Note_on_c, 0, 35, 0
1, 275785, Note_on_c, 0, 33, 55
1, 275810, Note_on_c, 0, 64, 0
1, 275810, Note_on_c, 0, 66, 69
1, 275860, Note_on_c, 0, 66, 0
1, 275860, Note_on_c, 0, 33, 0
1, 275860, Note_on_c, 0, 67, 74
1, 275863, Note_on_c, 0, 31, 60
1, 275935, Note_on_c, 0, 31, 0
1, 275935, Note_on_c, 0, 36, 56
1, 276009, Note_on_c, 0, 36, 0
1, 276009, Note_on_c, 0, 67, 0
1, 276009, Note_on_c, 0, 35, 56
1, 276083, Note_on_c, 0, 35, 0
1, 276083, Note_on_c, 0, 33, 56
1, 276157, Note_on_c, 0, 33, 0
1, 276157, Note_on_c, 0, 31, 60
1, 276232, Note_on_c, 0, 31, 0
1, 276232, Note_on_c, 0, 36, 56
1, 276306, Note_on_c, 0, 36, 0
1, 276306, Note_on_c, 0, 67, 72
1, 276306, Note_on_c, 0, 35, 56
1, 276378, Note_on_c, 0, 35, 0
1, 276378, Note_on_c, 0, 67, 0
1, 276378, Note_on_c, 0, 69, 72
1, 276381, Note_on_c, 0, 33, 56
1, 276450, Note_on_c, 0, 33, 0
1, 276450, Note_on_c, 0, 69, 0
1, 276450, Note_on_c, 0, 71, 76
1, 276453, Note_on_c, 0, 31, 61
1, 276524, Note_on_c, 0, 31, 0
1, 276524, Note_on_c, 0, 71, 0
1, 276524, Note_on_c, 0, 36, 57
1, 276598, Note_on_c, 0, 36, 0
1, 276598, Note_on_c, 0, 71, 72
1, 276598, Note_on_c, 0, 35, 57
1, 276670, Note_on_c, 0, 35, 0
1, 276670, Note_on_c, 0, 71, 0
1, 276670, Note_on_c, 0, 72, 73
1, 276673, Note_on_c, 0, 33, 57
1, 276742, Note_on_c, 0, 33, 0
1, 276742, Note_on_c, 0, 72, 0
1, 276742, Note_on_c, 0, 74, 76
1, 276745, Note_on_c, 0, 31, 61
1, 276816, Note_on_c, 0, 31, 0
1, 276816, Note_on_c, 0, 74, 0
1, 276816, Note_on_c, 0, 36, 57
1, 276891, Note_on_c, 0, 36, 0
1, 276891, Note_on_c, 0, 74, 73
1, 276891, Note_on_c, 0, 35, 57
1, 276939, Note_on_c, 0, 74, 0
1, 276939, Note_on_c, 0, 76, 75
1, 276963, Note_on_c, 0, 35, 0
1, 276963, Note_on_c, 0, 33, 57
1, 276986, Note_on_c, 0, 76, 0
1, 276986, Note_on_c, 0, 78, 77
1, 277034, Note_on_c, 0, 78, 0
1, 277034, Note_on_c, 0, 33, 0
1, 277034, Note_on_c, 0, 79, 79
1, 277037, Note_on_c, 0, 31, 62
1, 277109, Note_on_c, 0, 31, 0
1, 277109, Note_on_c, 0, 36, 57
1, 277183, Note_on_c, 0, 36, 0
1, 277183, Note_on_c, 0, 79, 0
1, 277183, Note_on_c, 0, 35, 58
1, 277257, Note_on_c, 0, 35, 0
1, 277257, Note_on_c, 0, 33, 58
1, 277332, Note_on_c, 0, 33, 0
1, 277332, Note_on_c, 0, 31, 63
1, 277406, Note_on_c, 0, 31, 0
1, 277406, Note_on_c, 0, 36, 58
1, 277480, Note_on_c, 0, 36, 0
1, 277480, Note_on_c, 0, 62, 71
1, 277480, Note_on_c, 0, 35, 58
1, 277528, Note_on_c, 0, 62, 0
1, 277528, Note_on_c, 0, 64, 74
1, 277552, Note_on_c, 0, 35, 0
1, 277552, Note_on_c, 0, 33, 58
1, 277575, Note_on_c, 0, 64, 0
1, 277575, Note_on_c, 0, 66, 76
1, 277623, Note_on_c, 0, 66, 0
1, 277623, Note_on_c, 0, 33, 0
1, 277623, Note_on_c, 0, 67, 79
1, 277626, Note_on_c, 0, 31, 63
1, 277697, Note_on_c, 0, 31, 0
1, 277697, Note_on_c, 0, 36, 59
1, 277772, Note_on_c, 0, 36, 0
1, 277772, Note_on_c, 0, 67, 0
1, 277772, Note_on_c, 0, 35, 59
1, 277846, Note_on_c, 0, 35, 0
1, 277846, Note_on_c, 0, 33, 59
1, 277920, Note_on_c, 0, 33, 0
1, 277920, Note_on_c, 0, 31, 65
1, 277995, Note_on_c, 0, 31, 0
1, 277995, Note_on_c, 0, 36, 59
1, 278069, Note_on_c, 0, 36, 0
1, 278069, Note_on_c, 0, 67, 76
1, 278069, Note_on_c, 0, 35, 59
1, 278140, Note_on_c, 0, 35, 0
1, 278140, Note_on_c, 0, 67, 0
1, 278140, Note_on_c, 0, 69, 80
1, 278143, Note_on_c, 0, 33, 59
1, 278211, Note_on_c, 0, 33, 0
1, 278211, Note_on_c, 0, 69, 0
1, 278211, Note_on_c, 0, 71, 84
1, 278214, Note_on_c, 0, 31, 65
1, 278284, Note_on_c, 0, 31, 0
1, 278284, Note_on_c, 0, 71, 0
1, 278284, Note_on_c, 0, 36, 60
1, 278358, Note_on_c, 0, 36, 0
1, 278358, Note_on_c, 0, 35, 60
1, 278432, Note_on_c, 0, 35, 0
1, 278432, Note_on_c, 0, 33, 60
1, 278506, Note_on_c, 0, 33, 0
1, 278506, Note_on_c, 0, 31, 66
1, 278580, Note_on_c, 0, 31, 0
1, 278580, Note_on_c, 0, 36, 60
1, 278654, Note_on_c, 0, 36, 0
1, 278654, Note_on_c, 0, 71, 78
1, 278654, Note_on_c, 0, 35, 60
1, 278724, Note_on_c, 0, 35, 0
1, 278724, Note_on_c, 0, 71, 0
1, 278724, Note_on_c, 0, 72, 79
1, 278727, Note_on_c, 0, 33, 60
1, 278795, Note_on_c, 0, 33, 0
1, 278795, Note_on_c, 0, 72, 0
1, 278795, Note_on_c, 0, 74, 84
1, 278798, Note_on_c, 0, 31, 66
1, 278869, Note_on_c, 0, 31, 0
1, 278869, Note_on_c, 0, 74, 0
1, 278869, Note_on_c, 0, 36, 60
1, 278942, Note_on_c, 0, 36, 0
1, 278942, Note_on_c, 0, 74, 79
1, 278942, Note_on_c, 0, 35, 61
1, 278990, Note_on_c, 0, 74, 0
1, 278990, Note_on_c, 0, 76, 81
1, 279013, Note_on_c, 0, 35, 0
1, 279013, Note_on_c, 0, 33, 61
1, 279037, Note_on_c, 0, 76, 0
1, 279037, Note_on_c, 0, 78, 84
1, 279084, Note_on_c, 0, 78, 0
1, 279084, Note_on_c, 0, 33, 0
1, 279084, Note_on_c, 0, 79, 87
1, 279087, Note_on_c, 0, 31, 67
1, 279157, Note_on_c, 0, 31, 0
1, 279157, Note_on_c, 0, 79, 0
1, 279157, Note_on_c, 0, 36, 61
1, 279231, Note_on_c, 0, 36, 0
1, 279231, Note_on_c, 0, 79, 86
1, 279231, Note_on_c, 0, 35, 61
1, 279301, Note_on_c, 0, 35, 0
1, 279301, Note_on_c, 0, 79, 0
1, 279301, Note_on_c, 0, 81, 89
1, 279304, Note_on_c, 0, 33, 61
1, 279372, Note_on_c, 0, 33, 0
1, 279372, Note_on_c, 0, 81, 0
1, 279372, Note_on_c, 0, 83, 91
1, 279375, Note_on_c, 0, 31, 67
1, 279445, Note_on_c, 0, 31, 0
1, 279445, Note_on_c, 0, 83, 0
1, 279445, Note_on_c, 0, 36, 62
1, 279519, Note_on_c, 0, 36, 0
1, 279519, Note_on_c, 0, 35, 62
1, 279593, Note_on_c, 0, 35, 0
1, 279593, Note_on_c, 0, 33, 62
1, 279666, Note_on_c, 0, 33, 0
1, 279666, Note_on_c, 0, 31, 68
1, 279740, Note_on_c, 0, 31, 0
1, 279740, Note_on_c, 0, 36, 62
1, 279813, Note_on_c, 0, 36, 0
1, 279813, Note_on_c, 0, 74, 86
1, 279813, Note_on_c, 0, 35, 62
1, 279860, Note_on_c, 0, 74, 0
1, 279860, Note_on_c, 0, 76, 89
1, 279883, Note_on_c, 0, 35, 0
1, 279883, Note_on_c, 0, 33, 62
1, 279906, Note_on_c, 0, 76, 0
1, 279906, Note_on_c, 0, 78, 90
1, 279953, Note_on_c, 0, 78, 0
1, 279953, Note_on_c, 0, 33, 0
1, 279953, Note_on_c, 0, 79, 92
1, 279956, Note_on_c, 0, 31, 69
1, 280026, Note_on_c, 0, 31, 0
1, 280026, Note_on_c, 0, 79, 0
1, 280026, Note_on_c, 0, 36, 63
1, 280100, Note_on_c, 0, 36, 0
1, 280100, Note_on_c, 0, 35, 63
1, 280173, Note_on_c, 0, 35, 0
1, 280173, Note_on_c, 0, 33, 63
1, 280247, Note_on_c, 0, 33, 0
1, 280247, Note_on_c, 0, 31, 69
1, 280320, Note_on_c, 0, 31, 0
1, 280320, Note_on_c, 0, 36, 63
1, 280394, Note_on_c, 0, 36, 0
1, 280394, Note_on_c, 0, 79, 87
1, 280394, Note_on_c, 0, 35, 63
1, 280463, Note_on_c, 0, 35, 0
1, 280463, Note_on_c, 0, 79, 0
1, 280463, Note_on_c, 0, 81, 89
1, 280466, Note_on_c, 0, 33, 63
1, 280533, Note_on_c, 0, 33, 0
1, 280533, Note_on_c, 0, 81, 0
1, 280533, Note_on_c, 0, 83, 94
1, 280536, Note_on_c, 0, 31, 70
1, 280606, Note_on_c, 0, 31, 0
1, 280606, Note_on_c, 0, 83, 0
1, 280606, Note_on_c, 0, 36, 63
1, 280680, Note_on_c, 0, 36, 0
1, 280680, Note_on_c, 0, 35, 65
1, 280753, Note_on_c, 0, 35, 0
1, 280753, Note_on_c, 0, 33, 65
1, 280827, Note_on_c, 0, 33, 0
1, 280827, Note_on_c, 0, 31, 70
1, 280899, Note_on_c, 0, 31, 0
1, 280899, Note_on_c, 0, 36, 65
1, 280972, Note_on_c, 0, 36, 0
1, 280972, Note_on_c, 0, 79, 89
1, 280972, Note_on_c, 0, 35, 65
1, 281041, Note_on_c, 0, 35, 0
1, 281041, Note_on_c, 0, 79, 0
1, 281041, Note_on_c, 0, 81, 93
1, 281044, Note_on_c, 0, 33, 65
1, 281109, Note_on_c, 0, 33, 0
1, 281109, Note_on_c, 0, 81, 0
1, 281109, Note_on_c, 0, 83, 97
1, 281112, Note_on_c, 0, 31, 71
1, 281182, Note_on_c, 0, 31, 0
1, 281182, Note_on_c, 0, 83, 0
1, 281182, Note_on_c, 0, 36, 66
1, 281254, Note_on_c, 0, 36, 0
1, 281254, Note_on_c, 0, 83, 89
1, 281254, Note_on_c, 0, 35, 66
1, 281322, Note_on_c, 0, 35, 0
1, 281322, Note_on_c, 0, 83, 0
1, 281322, Note_on_c, 0, 84, 92
1, 281325, Note_on_c, 0, 33, 66
1, 281391, Note_on_c, 0, 33, 0
1, 281391, Note_on_c, 0, 84, 0
1, 281391, Note_on_c, 0, 86, 96
1, 281394, Note_on_c, 0, 31, 71
1, 281463, Note_on_c, 0, 31, 0
1, 281463, Note_on_c, 0, 86, 0
1, 281463, Note_on_c, 0, 36, 66
1, 281535, Note_on_c, 0, 36, 0
1, 281535, Note_on_c, 0, 86, 91
1, 281535, Note_on_c, 0, 35, 66
1, 281603, Note_on_c, 0, 35, 0
1, 281603, Note_on_c, 0, 86, 0
1, 281603, Note_on_c, 0, 88, 96
1, 281606, Note_on_c, 0, 33, 66
1, 281671, Note_on_c, 0, 33, 0
1, 281671, Note_on_c, 0, 88, 0
1, 281671, Note_on_c, 0, 89, 100
1, 281674, Note_on_c, 0, 31, 72
1, 281743, Note_on_c, 0, 31, 0
1, 281743, Note_on_c, 0, 89, 0
1, 281743, Note_on_c, 0, 36, 67
1, 281816, Note_on_c, 0, 36, 0
1, 281816, Note_on_c, 0, 35, 67
1, 281888, Note_on_c, 0, 35, 0
1, 281888, Note_on_c, 0, 33, 67
1, 281960, Note_on_c, 0, 33, 0
1, 281960, Note_on_c, 0, 31, 73
1, 282032, Note_on_c, 0, 31, 0
1, 282032, Note_on_c, 0, 36, 68
1, 282104, Note_on_c, 0, 36, 0
1, 282104, Note_on_c, 0, 86, 98
1, 282104, Note_on_c, 0, 35, 69
1, 282172, Note_on_c, 0, 35, 0
1, 282172, Note_on_c, 0, 86, 0
1, 282172, Note_on_c, 0, 88, 103
1, 282175, Note_on_c, 0, 33, 69
1, 282239, Note_on_c, 0, 33, 0
1, 282239, Note_on_c, 0, 88, 0
1, 282239, Note_on_c, 0, 89, 107
1, 282242, Note_on_c, 0, 31, 75
1, 282311, Note_on_c, 0, 31, 0
1, 282311, Note_on_c, 0, 89, 0
1, 282311, Note_on_c, 0, 37, 70
1, 282382, Note_on_c, 0, 37, 0
1, 282382, Note_on_c, 0, 35, 70
1, 282454, Note_on_c, 0, 35, 0
1, 282454, Note_on_c, 0, 33, 71
1, 282525, Note_on_c, 0, 33, 0
1, 282525, Note_on_c, 0, 31, 77
1, 282596, Note_on_c, 0, 31, 0
1, 282596, Note_on_c, 0, 37, 72
1, 282668, Note_on_c, 0, 37, 0
1, 282668, Note_on_c, 0, 86, 100
1, 282668, Note_on_c, 0, 35, 72
1, 282736, Note_on_c, 0, 35, 0
1, 282736, Note_on_c, 0, 86, 0
1, 282736, Note_on_c, 0, 88, 105
1, 282739, Note_on_c, 0, 33, 72
1, 282803, Note_on_c, 0, 33, 0
1, 282803, Note_on_c, 0, 88, 0
1, 282803, Note_on_c, 0, 89, 109
1, 282806, Note_on_c, 0, 31, 78
1, 282875, Note_on_c, 0, 89, 0
1, 282875, Note_on_c, 0, 38, 73
1, 282886, Note_on_c, 0, 31, 0
1, 282946, Note_on_c, 0, 86, 100
1, 282946, Note_on_c, 0, 35, 73
1, 282957, Note_on_c, 0, 38, 0
1, 283013, Note_on_c, 0, 86, 0
1, 283013, Note_on_c, 0, 88, 105
1, 283013, Note_on_c, 0, 33, 74
1, 283025, Note_on_c, 0, 35, 0
1, 283081, Note_on_c, 0, 88, 0
1, 283081, Note_on_c, 0, 89, 109
1, 283081, Note_on_c, 0, 31, 80
1, 283093, Note_on_c, 0, 33, 0
1, 283152, Note_on_c, 0, 89, 0
1, 283152, Note_on_c, 0, 38, 75
1, 283164, Note_on_c, 0, 31, 0
1, 283223, Note_on_c, 0, 86, 102
1, 283223, Note_on_c, 0, 35, 75
1, 283234, Note_on_c, 0, 38, 0
1, 283291, Note_on_c, 0, 86, 0
1, 283291, Note_on_c, 0, 88, 106
1, 283291, Note_on_c, 0, 33, 75
1, 283302, Note_on_c, 0, 35, 0
1, 283359, Note_on_c, 0, 88, 0
1, 283359, Note_on_c, 0, 89, 110
1, 283359, Note_on_c, 0, 31, 82
1, 283371, Note_on_c, 0, 33, 0
1, 283430, Note_on_c, 0, 89, 0
1, 283430, Note_on_c, 0, 38, 76
1, 283442, Note_on_c, 0, 31, 0
1, 283501, Note_on_c, 0, 86, 102
1, 283501, Note_on_c, 0, 35, 77
1, 283512, Note_on_c, 0, 38, 0
1, 283569, Note_on_c, 0, 86, 0
1, 283569, Note_on_c, 0, 88, 107
1, 283569, Note_on_c, 0, 33, 77
1, 283580, Note_on_c, 0, 35, 0
1, 283637, Note_on_c, 0, 88, 0
1, 283637, Note_on_c, 0, 89, 113
1, 283637, Note_on_c, 0, 31, 84
1, 283649, Note_on_c, 0, 33, 0
1, 283708, Note_on_c, 0, 89, 0
1, 283708, Note_on_c, 0, 38, 78
1, 283720, Note_on_c, 0, 31, 0
1, 283779, Note_on_c, 0, 86, 106
1, 283779, Note_on_c, 0, 35, 78
1, 283790, Note_on_c, 0, 38, 0
1, 283847, Note_on_c, 0, 86, 0
1, 283847, Note_on_c, 0, 88, 112
1, 283847, Note_on_c, 0, 33, 78
1, 283858, Note_on_c, 0, 35, 0
1, 283914, Note_on_c, 0, 88, 0
1, 283914, Note_on_c, 0, 89, 117
1, 283914, Note_on_c, 0, 31, 88
1, 283925, Note_on_c, 0, 33, 0
1, 283982, Note_on_c, 0, 88, 115
1, 283982, Note_on_c, 0, 33, 87
1, 283993, Note_on_c, 0, 31, 0
1, 283993, Note_on_c, 0, 89, 0
1, 284050, Note_on_c, 0, 86, 113
1, 284050, Note_on_c, 0, 35, 86
1, 284061, Note_on_c, 0, 88, 0
1, 284061, Note_on_c, 0, 33, 0
1, 284118, Note_on_c, 0, 84, 112
1, 284118, Note_on_c, 0, 36, 84
1, 284129, Note_on_c, 0, 86, 0
1, 284129, Note_on_c, 0, 35, 0
1, 284186, Note_on_c, 0, 83, 110
1, 284186, Note_on_c, 0, 38, 83
1, 284198, Note_on_c, 0, 84, 0
1, 284198, Note_on_c, 0, 36, 0
1, 284255, Note_on_c, 0, 84, 112
1, 284255, Note_on_c, 0, 36, 84
1, 284266, Note_on_c, 0, 83, 0
1, 284266, Note_on_c, 0, 38, 0
1, 284324, Note_on_c, 0, 86, 113
1, 284324, Note_on_c, 0, 35, 85
1, 284335, Note_on_c, 0, 84, 0
1, 284335, Note_on_c, 0, 36, 0
1, 284393, Note_on_c, 0, 88, 114
1, 284393, Note_on_c, 0, 33, 87
1, 284404, Note_on_c, 0, 86, 0
1, 284404, Note_on_c, 0, 35, 0
1, 284462, Note_on_c, 0, 89, 117
1, 284462, Note_on_c, 0, 31, 87
1, 284474, Note_on_c, 0, 88, 0
1, 284474, Note_on_c, 0, 33, 0
1, 284532, Note_on_c, 0, 88, 116
1, 284532, Note_on_c, 0, 33, 86
1, 284543, Note_on_c, 0, 89, 0
1, 284543, Note_on_c, 0, 31, 0
1, 284602, Note_on_c, 0, 86, 115
1, 284602, Note_on_c, 0, 35, 85
1, 284613, Note_on_c, 0, 88, 0
1, 284613, Note_on_c, 0, 33, 0
1, 284671, Note_on_c, 0, 84, 114
1, 284671, Note_on_c, 0, 36, 85
1, 284683, Note_on_c, 0, 86, 0
1, 284683, Note_on_c, 0, 35, 0
1, 284740, Note_on_c, 0, 83, 114
1, 284740, Note_on_c, 0, 38, 82
1, 284752, Note_on_c, 0, 84, 0
1, 284752, Note_on_c, 0, 36, 0
1, 284809, Note_on_c, 0, 84, 114
1, 284809, Note_on_c, 0, 36, 84
1, 284821, Note_on_c, 0, 83, 0
1, 284821, Note_on_c, 0, 38, 0
1, 284878, Note_on_c, 0, 86, 116
1, 284878, Note_on_c, 0, 35, 86
1, 284890, Note_on_c, 0, 84, 0
1, 284890, Note_on_c, 0, 36, 0
1, 284947, Note_on_c, 0, 88, 118
1, 284947, Note_on_c, 0, 33, 88
1, 284958, Note_on_c, 0, 86, 0
1, 284958, Note_on_c, 0, 35, 0
1, 285015, Note_on_c, 0, 89, 120
1, 285015, Note_on_c, 0, 31, 90
1, 285027, Note_on_c, 0, 88, 0
1, 285027, Note_on_c, 0, 33, 0
1, 285152, Note_on_c, 0, 88, 118
1, 285152, Note_on_c, 0, 33, 87
1, 285164, Note_on_c, 0, 89, 0
1, 285164, Note_on_c, 0, 31, 0
1, 285221, Note_on_c, 0, 86, 117
1, 285221, Note_on_c, 0, 35, 86
1, 285233, Note_on_c, 0, 88, 0
1, 285233, Note_on_c, 0, 33, 0
1, 285290, Note_on_c, 0, 84, 116
1, 285290, Note_on_c, 0, 36, 85
1, 285301, Note_on_c, 0, 86, 0
1, 285301, Note_on_c, 0, 35, 0
1, 285359, Note_on_c, 0, 83, 114
1, 285359, Note_on_c, 0, 38, 84
1, 285370, Note_on_c, 0, 84, 0
1, 285370, Note_on_c, 0, 36, 0
1, 285428, Note_on_c, 0, 81, 113
1, 285428, Note_on_c, 0, 40, 84
1, 285440, Note_on_c, 0, 83, 0
1, 285440, Note_on_c, 0, 38, 0
1, 285497, Note_on_c, 0, 79, 112
1, 285497, Note_on_c, 0, 41, 83
1, 285509, Note_on_c, 0, 81, 0
1, 285509, Note_on_c, 0, 40, 0
1, 285567, Note_on_c, 0, 77, 111
1, 285567, Note_on_c, 0, 43, 82
1, 285578, Note_on_c, 0, 79, 0
1, 285578, Note_on_c, 0, 41, 0
1, 285637, Note_on_c, 0, 76, 109
1, 285637, Note_on_c, 0, 45, 81
1, 285648, Note_on_c, 0, 77, 0
1, 285648, Note_on_c, 0, 43, 0
1, 285706, Note_on_c, 0, 74, 108
1, 285706, Note_on_c, 0, 47, 80
1, 285718, Note_on_c, 0, 76, 0
1, 285718, Note_on_c, 0, 45, 0
1, 285776, Note_on_c, 0, 72, 107
1, 285776, Note_on_c, 0, 48, 79
1, 285788, Note_on_c, 0, 74, 0
1, 285788, Note_on_c, 0, 47, 0
1, 285846, Note_on_c, 0, 71, 106
1, 285846, Note_on_c, 0, 50, 78
1, 285858, Note_on_c, 0, 72, 0
1, 285858, Note_on_c, 0, 48, 0
1, 285917, Note_on_c, 0, 69, 104
1, 285917, Note_on_c, 0, 52, 77
1, 285928, Note_on_c, 0, 71, 0
1, 285928, Note_on_c, 0, 50, 0
1, 285987, Note_on_c, 0, 67, 103
1, 285987, Note_on_c, 0, 53, 76
1, 285999, Note_on_c, 0, 69, 0
1, 285999, Note_on_c, 0, 52, 0
1, 286058, Note_on_c, 0, 65, 102
1, 286058, Note_on_c, 0, 55, 76
1, 286069, Note_on_c, 0, 67, 0
1, 286069, Note_on_c, 0, 53, 0
1, 286128, Note_on_c, 0, 64, 101
1, 286128, Control_c, 0, 91, 127
1, 286128, Note_on_c, 0, 48, 75
1, 286131, Control_c, 0, 64, 0
1, 286140, Note_on_c, 0, 65, 0
1, 286140, Note_on_c, 0, 55, 0
1, 286268, Note_on_c, 0, 64, 0
1, 286268, Note_on_c, 0, 48, 49
1, 286268, Note_on_c, 0, 52, 54
1, 286271, Note_on_c, 0, 48, 0
1, 286271, Note_on_c, 0, 43, 47
1, 286271, Note_on_c, 0, 36, 43
1, 286373, Note_on_c, 0, 36, 0
1, 286373, Note_on_c, 0, 48, 0
1, 286373, Note_on_c, 0, 52, 0
1, 286376, Note_on_c, 0, 43, 0
1, 286408, Note_on_c, 0, 48, 49
1, 286408, Note_on_c, 0, 52, 54
1, 286408, Note_on_c, 0, 43, 47
1, 286411, Note_on_c, 0, 36, 43
1, 286513, Note_on_c, 0, 36, 0
1, 286513, Note_on_c, 0, 48, 0
1, 286513, Note_on_c, 0, 52, 0
1, 286516, Note_on_c, 0, 43, 0
1, 286547, Note_on_c, 0, 48, 49
1, 286547, Note_on_c, 0, 52, 55
1, 286547, Note_on_c, 0, 43, 48
1, 286550, Note_on_c, 0, 36, 43
1, 286652, Note_on_c, 0, 36, 0
1, 286652, Note_on_c, 0, 48, 0
1, 286652, Note_on_c, 0, 52, 0
1, 286655, Note_on_c, 0, 43, 0
1, 286687, Note_on_c, 0, 48, 49
1, 286687, Note_on_c, 0, 52, 55
1, 286687, Note_on_c, 0, 43, 48
1, 286690, Note_on_c, 0, 36, 43
1, 286792, Note_on_c, 0, 36, 0
1, 286792, Note_on_c, 0, 48, 0
1, 286792, Note_on_c, 0, 52, 0
1, 286795, Note_on_c, 0, 43, 0
1, 286827, Note_on_c, 0, 48, 49
1, 286827, Note_on_c, 0, 52, 55
1, 286827, Note_on_c, 0, 43, 49
1, 286830, Note_on_c, 0, 36, 44
1, 286932, Note_on_c, 0, 36, 0
1, 286932, Note_on_c, 0, 48, 0
1, 286932, Note_on_c, 0, 52, 0
1, 286935, Note_on_c, 0, 43, 0
1, 286967, Note_on_c, 0, 48, 50
1, 286967, Note_on_c, 0, 52, 56
1, 286967, Note_on_c, 0, 43, 49
1, 286970, Note_on_c, 0, 36, 44
1, 287072, Note_on_c, 0, 36, 0
1, 287072, Note_on_c, 0, 48, 0
1, 287072, Note_on_c, 0, 52, 0
1, 287075, Note_on_c, 0, 43, 0
1, 287107, Note_on_c, 0, 48, 50
1, 287107, Note_on_c, 0, 52, 56
1, 287107, Note_on_c, 0, 43, 50
1, 287110, Note_on_c, 0, 36, 45
1, 287212, Note_on_c, 0, 36, 0
1, 287212, Note_on_c, 0, 48, 0
1, 287212, Note_on_c, 0, 52, 0
1, 287215, Note_on_c, 0, 43, 0
1, 287246, Note_on_c, 0, 48, 51
1, 287246, Note_on_c, 0, 52, 57
1, 287246, Note_on_c, 0, 36, 46
1, 287249, Note_on_c, 0, 43, 51
1, 287351, Note_on_c, 0, 43, 0
1, 287351, Note_on_c, 0, 48, 0
1, 287351, Note_on_c, 0, 52, 0
1, 287354, Note_on_c, 0, 36, 0
1, 287386, Note_on_c, 0, 48, 51
1, 287386, Note_on_c, 0, 52, 57
1, 287386, Note_on_c, 0, 36, 43
1, 287389, Note_on_c, 0, 43, 48
1, 287491, Note_on_c, 0, 43, 0
1, 287491, Note_on_c, 0, 48, 0
1, 287491, Note_on_c, 0, 52, 0
1, 287494, Note_on_c, 0, 36, 0
1, 287526, Note_on_c, 0, 48, 52
1, 287526, Note_on_c, 0, 52, 58
1, 287526, Note_on_c, 0, 36, 44
1, 287529, Note_on_c, 0, 43, 49
1, 287631, Note_on_c, 0, 43, 0
1, 287631, Note_on_c, 0, 48, 0
1, 287631, Note_on_c, 0, 52, 0
1, 287634, Note_on_c, 0, 36, 0
1, 287666, Note_on_c, 0, 48, 53
1, 287666, Note_on_c, 0, 52, 59
1, 287666, Note_on_c, 0, 36, 45
1, 287669, Note_on_c, 0, 43, 50
1, 287770, Note_on_c, 0, 43, 0
1, 287770, Note_on_c, 0, 48, 0
1, 287770, Note_on_c, 0, 52, 0
1, 287773, Note_on_c, 0, 36, 0
1, 287805, Note_on_c, 0, 48, 54
1, 287805, Note_on_c, 0, 52, 60
1, 287805, Note_on_c, 0, 36, 46
1, 287808, Note_on_c, 0, 43, 51
1, 287910, Note_on_c, 0, 43, 0
1, 287910, Note_on_c, 0, 48, 0
1, 287910, Note_on_c, 0, 52, 0
1, 287913, Note_on_c, 0, 36, 0
1, 287945, Note_on_c, 0, 48, 55
1, 287945, Note_on_c, 0, 52, 61
1, 287945, Note_on_c, 0, 36, 46
1, 287948, Note_on_c, 0, 43, 51
1, 288050, Note_on_c, 0, 43, 0
1, 288050, Note_on_c, 0, 48, 0
1, 288050, Note_on_c, 0, 52, 0
1, 288053, Note_on_c, 0, 36, 0
1, 288085, Note_on_c, 0, 50, 55
1, 288085, Note_on_c, 0, 54, 61
1, 288085, Note_on_c, 0, 36, 46
1, 288088, Note_on_c, 0, 45, 51
1, 288190, Note_on_c, 0, 45, 0
1, 288190, Note_on_c, 0, 50, 0
1, 288190, Note_on_c, 0, 54, 0
1, 288193, Note_on_c, 0, 36, 0
1, 288225, Note_on_c, 0, 50, 55
1, 288225, Note_on_c, 0, 54, 61
1, 288225, Note_on_c, 0, 36, 46
1, 288228, Note_on_c, 0, 45, 51
1, 288330, Note_on_c, 0, 45, 0
1, 288330, Note_on_c, 0, 50, 0
1, 288330, Note_on_c, 0, 54, 0
1, 288333, Note_on_c, 0, 36, 0
1, 288365, Note_on_c, 0, 50, 60
1, 288365, Note_on_c, 0, 55, 67
1, 288365, Note_on_c, 0, 35, 46
1, 288368, Note_on_c, 0, 43, 51
1, 288470, Note_on_c, 0, 43, 0
1, 288470, Note_on_c, 0, 35, 0
1, 288505, Note_on_c, 0, 35, 46
1, 288505, Note_on_c, 0, 43, 51
1, 288610, Note_on_c, 0, 43, 0
1, 288610, Note_on_c, 0, 35, 0
1, 288645, Note_on_c, 0, 35, 46
1, 288645, Note_on_c, 0, 43, 51
1, 288750, Note_on_c, 0, 43, 0
1, 288750, Note_on_c, 0, 35, 0
1, 288785, Note_on_c, 0, 55, 0
1, 288785, Note_on_c, 0, 50, 0
1, 288785, Note_on_c, 0, 59, 61
1, 288788, Note_on_c, 0, 35, 46
1, 288788, Note_on_c, 0, 43, 51
1, 288855, Note_on_c, 0, 59, 0
1, 288855, Note_on_c, 0, 57, 61
1, 288890, Note_on_c, 0, 43, 0
1, 288890, Note_on_c, 0, 35, 0
1, 288925, Note_on_c, 0, 57, 0
1, 288925, Note_on_c, 0, 55, 66
1, 288925, Note_on_c, 0, 35, 46
1, 288928, Note_on_c, 0, 43, 51
1, 288995, Note_on_c, 0, 55, 0
1, 289030, Note_on_c, 0, 43, 0
1, 289030, Note_on_c, 0, 35, 0
1, 289065, Note_on_c, 0, 35, 46
1, 289065, Note_on_c, 0, 43, 51
1, 289170, Note_on_c, 0, 43, 0
1, 289170, Note_on_c, 0, 35, 0
1, 289205, Note_on_c, 0, 35, 46
1, 289205, Note_on_c, 0, 43, 51
1, 289310, Note_on_c, 0, 43, 0
1, 289310, Note_on_c, 0, 35, 0
1, 289345, Note_on_c, 0, 35, 46
1, 289345, Note_on_c, 0, 43, 51
1, 289453, Note_on_c, 0, 43, 0
1, 289453, Note_on_c, 0, 35, 0
1, 289453, Note_on_c, 0, 85, 67
1, 289489, Note_on_c, 0, 85, 0
1, 289489, Note_on_c, 0, 86, 78
1, 289489, Note_on_c, 0, 35, 46
1, 289492, Note_on_c, 0, 43, 51
1, 289594, Note_on_c, 0, 43, 0
1, 289594, Note_on_c, 0, 35, 0
1, 289629, Note_on_c, 0, 35, 46
1, 289629, Note_on_c, 0, 43, 51
1, 289734, Note_on_c, 0, 43, 0
1, 289734, Note_on_c, 0, 35, 0
1, 289769, Note_on_c, 0, 35, 46
1, 289769, Note_on_c, 0, 43, 51
1, 289839, Note_on_c, 0, 86, 0
1, 289839, Note_on_c, 0, 84, 69
1, 289874, Note_on_c, 0, 43, 0
1, 289874, Note_on_c, 0, 35, 0
1, 289909, Note_on_c, 0, 84, 0
1, 289909, Note_on_c, 0, 83, 68
1, 289909, Note_on_c, 0, 35, 46
1, 289912, Note_on_c, 0, 43, 51
1, 289979, Note_on_c, 0, 83, 0
1, 289979, Note_on_c, 0, 81, 66
1, 290014, Note_on_c, 0, 43, 0
1, 290014, Note_on_c, 0, 35, 0
1, 290049, Note_on_c, 0, 81, 0
1, 290049, Note_on_c, 0, 79, 65
1, 290049, Note_on_c, 0, 35, 46
1, 290052, Note_on_c, 0, 43, 51
1, 290154, Note_on_c, 0, 43, 0
1, 290154, Note_on_c, 0, 35, 0
1, 290189, Note_on_c, 0, 79, 0
1, 290189, Note_on_c, 0, 35, 46
1, 290189, Note_on_c, 0, 43, 51
1, 290294, Note_on_c, 0, 43, 0
1, 290294, Note_on_c, 0, 35, 0
1, 290329, Note_on_c, 0, 35, 46
1, 290329, Note_on_c, 0, 43, 51
1, 290434, Note_on_c, 0, 43, 0
1, 290434, Note_on_c, 0, 35, 0
1, 290469, Note_on_c, 0, 35, 46
1, 290469, Note_on_c, 0, 43, 51
1, 290576, Note_on_c, 0, 43, 0
1, 290576, Note_on_c, 0, 35, 0
1, 290612, Note_on_c, 0, 46, 50
1, 290612, Note_on_c, 0, 50, 58
1, 290612, Control_c, 0, 91, 127
1, 290615, Note_on_c, 0, 41, 51
1, 290615, Note_on_c, 0, 34, 47
1, 290615, Control_c, 0, 64, 0
1, 290717, Note_on_c, 0, 34, 0
1, 290717, Note_on_c, 0, 46, 0
1, 290717, Note_on_c, 0, 50, 0
1, 290720, Note_on_c, 0, 41, 0
1, 290752, Note_on_c, 0, 46, 50
1, 290752, Note_on_c, 0, 50, 56
1, 290752, Note_on_c, 0, 41, 51
1, 290755, Note_on_c, 0, 34, 46
1, 290857, Note_on_c, 0, 34, 0
1, 290857, Note_on_c, 0, 46, 0
1, 290857, Note_on_c, 0, 50, 0
1, 290860, Note_on_c, 0, 41, 0
1, 290892, Note_on_c, 0, 46, 50
1, 290892, Note_on_c, 0, 50, 56
1, 290892, Note_on_c, 0, 41, 51
1, 290895, Note_on_c, 0, 34, 46
1, 290996, Note_on_c, 0, 34, 0
1, 290996, Note_on_c, 0, 46, 0
1, 290996, Note_on_c, 0, 50, 0
1, 290999, Note_on_c, 0, 41, 0
1, 291030, Note_on_c, 0, 46, 51
1, 291030, Note_on_c, 0, 50, 57
1, 291030, Note_on_c, 0, 41, 52
1, 291033, Note_on_c, 0, 34, 47
1, 291134, Note_on_c, 0, 34, 0
1, 291134, Note_on_c, 0, 46, 0
1, 291134, Note_on_c, 0, 50, 0
1, 291137, Note_on_c, 0, 41, 0
1, 291169, Note_on_c, 0, 46, 52
1, 291169, Note_on_c, 0, 50, 58
1, 291169, Note_on_c, 0, 41, 52
1, 291172, Note_on_c, 0, 34, 47
1, 291274, Note_on_c, 0, 34, 0
1, 291274, Note_on_c, 0, 46, 0
1, 291274, Note_on_c, 0, 50, 0
1, 291277, Note_on_c, 0, 41, 0
1, 291309, Note_on_c, 0, 46, 52
1, 291309, Note_on_c, 0, 50, 58
1, 291309, Note_on_c, 0, 41, 52
1, 291312, Note_on_c, 0, 34, 47
1, 291415, Note_on_c, 0, 34, 0
1, 291415, Note_on_c, 0, 46, 0
1, 291415, Note_on_c, 0, 50, 0
1, 291418, Note_on_c, 0, 41, 0
1, 291450, Note_on_c, 0, 46, 53
1, 291450, Note_on_c, 0, 50, 59
1, 291450, Note_on_c, 0, 41, 52
1, 291453, Note_on_c, 0, 34, 47
1, 291555, Note_on_c, 0, 34, 0
1, 291555, Note_on_c, 0, 46, 0
1, 291555, Note_on_c, 0, 50, 0
1, 291558, Note_on_c, 0, 41, 0
1, 291590, Note_on_c, 0, 46, 54
1, 291590, Note_on_c, 0, 50, 60
1, 291590, Note_on_c, 0, 41, 52
1, 291593, Note_on_c, 0, 34, 47
1, 291696, Note_on_c, 0, 34, 0
1, 291696, Note_on_c, 0, 46, 0
1, 291696, Note_on_c, 0, 50, 0
1, 291699, Note_on_c, 0, 41, 0
1, 291731, Note_on_c, 0, 46, 54
1, 291731, Note_on_c, 0, 50, 60
1, 291731, Note_on_c, 0, 34, 47
1, 291734, Note_on_c, 0, 41, 52
1, 291836, Note_on_c, 0, 41, 0
1, 291836, Note_on_c, 0, 46, 0
1, 291836, Note_on_c, 0, 50, 0
1, 291839, Note_on_c, 0, 34, 0
1, 291871, Note_on_c, 0, 46, 55
1, 291871, Note_on_c, 0, 50, 61
1, 291871, Note_on_c, 0, 34, 47
1, 291874, Note_on_c, 0, 41, 52
1, 291976, Note_on_c, 0, 41, 0
1, 291976, Note_on_c, 0, 46, 0
1, 291976, Note_on_c, 0, 50, 0
1, 291979, Note_on_c, 0, 34, 0
1, 292011, Note_on_c, 0, 46, 55
1, 292011, Note_on_c, 0, 50, 61
1, 292011, Note_on_c, 0, 34, 47
1, 292014, Note_on_c, 0, 41, 52
1, 292116, Note_on_c, 0, 41, 0
1, 292116, Note_on_c, 0, 46, 0
1, 292116, Note_on_c, 0, 50, 0
1, 292119, Note_on_c, 0, 34, 0
1, 292151, Note_on_c, 0, 46, 55
1, 292151, Note_on_c, 0, 50, 61
1, 292151, Note_on_c, 0, 34, 47
1, 292154, Note_on_c, 0, 41, 52
1, 292256, Note_on_c, 0, 41, 0
1, 292256, Note_on_c, 0, 46, 0
1, 292256, Note_on_c, 0, 50, 0
1, 292259, Note_on_c, 0, 34, 0
1, 292292, Note_on_c, 0, 46, 55
1, 292292, Note_on_c, 0, 50, 61
1, 292292, Note_on_c, 0, 34, 47
1, 292295, Note_on_c, 0, 41, 52
1, 292396, Note_on_c, 0, 41, 0
1, 292396, Note_on_c, 0, 46, 0
1, 292396, Note_on_c, 0, 50, 0
1, 292399, Note_on_c, 0, 34, 0
1, 292430, Note_on_c, 0, 46, 55
1, 292430, Note_on_c, 0, 50, 61
1, 292430, Note_on_c, 0, 34, 46
1, 292433, Note_on_c, 0, 41, 51
1, 292534, Note_on_c, 0, 41, 0
1, 292534, Note_on_c, 0, 46, 0
1, 292534, Note_on_c, 0, 50, 0
1, 292537, Note_on_c, 0, 34, 0
1, 292569, Note_on_c, 0, 48, 55
1, 292569, Note_on_c, 0, 52, 61
1, 292569, Note_on_c, 0, 34, 46
1, 292572, Note_on_c, 0, 43, 51
1, 292673, Note_on_c, 0, 43, 0
1, 292673, Note_on_c, 0, 48, 0
1, 292673, Note_on_c, 0, 52, 0
1, 292676, Note_on_c, 0, 34, 0
1, 292708, Note_on_c, 0, 48, 55
1, 292708, Note_on_c, 0, 52, 61
1, 292708, Note_on_c, 0, 34, 46
1, 292711, Note_on_c, 0, 43, 51
1, 292812, Note_on_c, 0, 43, 0
1, 292812, Note_on_c, 0, 48, 0
1, 292812, Note_on_c, 0, 52, 0
1, 292815, Note_on_c, 0, 34, 0
1, 292847, Note_on_c, 0, 48, 60
1, 292847, Note_on_c, 0, 53, 67
1, 292847, Note_on_c, 0, 33, 46
1, 292850, Note_on_c, 0, 41, 51
1, 292952, Note_on_c, 0, 41, 0
1, 292952, Note_on_c, 0, 33, 0
1, 292987, Note_on_c, 0, 33, 46
1, 292987, Note_on_c, 0, 41, 51
1, 293091, Note_on_c, 0, 41, 0
1, 293091, Note_on_c, 0, 33, 0
1, 293126, Note_on_c, 0, 33, 46
1, 293126, Note_on_c, 0, 41, 51
1, 293231, Note_on_c, 0, 41, 0
1, 293231, Note_on_c, 0, 33, 0
1, 293266, Note_on_c, 0, 53, 0
1, 293266, Note_on_c, 0, 48, 0
1, 293266, Note_on_c, 0, 57, 61
1, 293269, Note_on_c, 0, 33, 46
1, 293269, Note_on_c, 0, 41, 51
1, 293335, Note_on_c, 0, 57, 0
1, 293335, Note_on_c, 0, 55, 61
1, 293370, Note_on_c, 0, 41, 0
1, 293370, Note_on_c, 0, 33, 0
1, 293405, Note_on_c, 0, 55, 0
1, 293405, Note_on_c, 0, 53, 66
1, 293405, Note_on_c, 0, 33, 46
1, 293408, Note_on_c, 0, 41, 51
1, 293475, Note_on_c, 0, 53, 0
1, 293510, Note_on_c, 0, 41, 0
1, 293510, Note_on_c, 0, 33, 0
1, 293545, Note_on_c, 0, 33, 46
1, 293545, Note_on_c, 0, 41, 51
1, 293649, Note_on_c, 0, 41, 0
1, 293649, Note_on_c, 0, 33, 0
1, 293684, Note_on_c, 0, 33, 46
1, 293684, Note_on_c, 0, 41, 51
1, 293789, Note_on_c, 0, 41, 0
1, 293789, Note_on_c, 0, 33, 0
1, 293824, Note_on_c, 0, 33, 46
1, 293824, Note_on_c, 0, 41, 51
1, 293931, Note_on_c, 0, 41, 0
1, 293931, Note_on_c, 0, 33, 0
1, 293931, Note_on_c, 0, 83, 67
1, 293967, Note_on_c, 0, 83, 0
1, 293967, Note_on_c, 0, 84, 78
1, 293967, Note_on_c, 0, 32, 46
1, 293970, Note_on_c, 0, 41, 51
1, 294072, Note_on_c, 0, 41, 0
1, 294072, Note_on_c, 0, 32, 0
1, 294107, Note_on_c, 0, 32, 46
1, 294107, Note_on_c, 0, 41, 51
1, 294212, Note_on_c, 0, 41, 0
1, 294212, Note_on_c, 0, 32, 0
1, 294247, Note_on_c, 0, 32, 46
1, 294247, Note_on_c, 0, 41, 51
1, 294317, Note_on_c, 0, 84, 0
1, 294317, Note_on_c, 0, 82, 71
1, 294352, Note_on_c, 0, 41, 0
1, 294352, Note_on_c, 0, 32, 0
1, 294387, Note_on_c, 0, 82, 0
1, 294387, Note_on_c, 0, 80, 70
1, 294387, Note_on_c, 0, 32, 46
1, 294390, Note_on_c, 0, 41, 51
1, 294457, Note_on_c, 0, 80, 0
1, 294457, Note_on_c, 0, 79, 68
1, 294492, Note_on_c, 0, 41, 0
1, 294492, Note_on_c, 0, 32, 0
1, 294527, Note_on_c, 0, 79, 0
1, 294527, Note_on_c, 0, 77, 67
1, 294527, Note_on_c, 0, 32, 46
1, 294530, Note_on_c, 0, 41, 51
1, 294632, Note_on_c, 0, 41, 0
1, 294632, Note_on_c, 0, 32, 0
1, 294667, Note_on_c, 0, 77, 0
1, 294667, Note_on_c, 0, 32, 46
1, 294667, Note_on_c, 0, 41, 51
1, 294772, Note_on_c, 0, 41, 0
1, 294772, Note_on_c, 0, 32, 0
1, 294808, Note_on_c, 0, 32, 46
1, 294808, Note_on_c, 0, 41, 51
1, 294915, Note_on_c, 0, 41, 0
1, 294915, Note_on_c, 0, 32, 0
1, 294951, Note_on_c, 0, 32, 46
1, 294951, Note_on_c, 0, 41, 51
1, 295059, Note_on_c, 0, 41, 0
1, 295059, Note_on_c, 0, 32, 0
1, 295059, Note_on_c, 0, 88, 88
1, 295095, Note_on_c, 0, 88, 0
1, 295095, Note_on_c, 0, 89, 94
1, 295095, Note_on_c, 0, 31, 51
1, 295098, Note_on_c, 0, 41, 57
1, 295200, Note_on_c, 0, 41, 0
1, 295200, Note_on_c, 0, 31, 0
1, 295235, Note_on_c, 0, 31, 53
1, 295235, Note_on_c, 0, 41, 59
1, 295340, Note_on_c, 0, 41, 0
1, 295340, Note_on_c, 0, 31, 0
1, 295375, Note_on_c, 0, 31, 54
1, 295375, Note_on_c, 0, 41, 60
1, 295479, Note_on_c, 0, 41, 0
1, 295479, Note_on_c, 0, 31, 0
1, 295514, Note_on_c, 0, 31, 55
1, 295514, Note_on_c, 0, 41, 62
1, 295618, Note_on_c, 0, 41, 0
1, 295618, Note_on_c, 0, 31, 0
1, 295653, Note_on_c, 0, 31, 57
1, 295653, Note_on_c, 0, 41, 64
1, 295758, Note_on_c, 0, 41, 0
1, 295758, Note_on_c, 0, 31, 0
1, 295794, Note_on_c, 0, 31, 59
1, 295794, Note_on_c, 0, 41, 66
1, 295899, Note_on_c, 0, 41, 0
1, 295899, Note_on_c, 0, 31, 0
1, 295934, Note_on_c, 0, 89, 0
1, 295934, Note_on_c, 0, 89, 95
1, 295934, Note_on_c, 0, 32, 60
1, 295937, Note_on_c, 0, 41, 67
1, 296004, Note_on_c, 0, 89, 0
1, 296004, Note_on_c, 0, 87, 94
1, 296039, Note_on_c, 0, 41, 0
1, 296039, Note_on_c, 0, 32, 0
1, 296074, Note_on_c, 0, 87, 0
1, 296074, Note_on_c, 0, 86, 92
1, 296074, Note_on_c, 0, 32, 61
1, 296077, Note_on_c, 0, 41, 69
1, 296145, Note_on_c, 0, 86, 0
1, 296145, Note_on_c, 0, 84, 91
1, 296180, Note_on_c, 0, 41, 0
1, 296180, Note_on_c, 0, 32, 0
1, 296215, Note_on_c, 0, 84, 0
1, 296215, Note_on_c, 0, 83, 93
1, 296215, Note_on_c, 0, 31, 65
1, 296218, Note_on_c, 0, 41, 73
1, 296285, Note_on_c, 0, 83, 0
1, 296285, Note_on_c, 0, 84, 92
1, 296320, Note_on_c, 0, 41, 0
1, 296320, Note_on_c, 0, 31, 0
1, 296355, Note_on_c, 0, 84, 0
1, 296355, Note_on_c, 0, 86, 93
1, 296355, Note_on_c, 0, 31, 65
1, 296358, Note_on_c, 0, 41, 73
1, 296425, Note_on_c, 0, 86, 0
1, 296425, Note_on_c, 0, 87, 94
1, 296460, Note_on_c, 0, 41, 0
1, 296460, Note_on_c, 0, 31, 0
1, 296495, Note_on_c, 0, 87, 0
1, 296495, Note_on_c, 0, 89, 95
1, 296495, Note_on_c, 0, 32, 66
1, 296498, Note_on_c, 0, 41, 76
1, 296566, Note_on_c, 0, 89, 0
1, 296566, Note_on_c, 0, 87, 93
1, 296601, Note_on_c, 0, 41, 0
1, 296601, Note_on_c, 0, 32, 0
1, 296636, Note_on_c, 0, 87, 0
1, 296636, Note_on_c, 0, 86, 92
1, 296636, Note_on_c, 0, 32, 67
1, 296639, Note_on_c, 0, 41, 76
1, 296707, Note_on_c, 0, 86, 0
1, 296707, Note_on_c, 0, 84, 90
1, 296742, Note_on_c, 0, 41, 0
1, 296742, Note_on_c, 0, 32, 0
1, 296778, Note_on_c, 0, 84, 0
1, 296778, Note_on_c, 0, 83, 93
1, 296778, Note_on_c, 0, 31, 69
1, 296781, Note_on_c, 0, 41, 79
1, 296848, Note_on_c, 0, 83, 0
1, 296848, Note_on_c, 0, 84, 96
1, 296883, Note_on_c, 0, 41, 0
1, 296883, Note_on_c, 0, 31, 0
1, 296918, Note_on_c, 0, 84, 0
1, 296918, Note_on_c, 0, 86, 98
1, 296918, Note_on_c, 0, 31, 72
1, 296921, Note_on_c, 0, 41, 81
1, 296988, Note_on_c, 0, 86, 0
1, 296988, Note_on_c, 0, 87, 101
1, 297023, Note_on_c, 0, 41, 0
1, 297023, Note_on_c, 0, 31, 0
1, 297058, Note_on_c, 0, 87, 0
1, 297058, Note_on_c, 0, 89, 101
1, 297058, Note_on_c, 0, 32, 75
1, 297061, Note_on_c, 0, 41, 85
1, 297128, Note_on_c, 0, 89, 0
1, 297128, Note_on_c, 0, 87, 101
1, 297163, Note_on_c, 0, 41, 0
1, 297163, Note_on_c, 0, 32, 0
1, 297198, Note_on_c, 0, 87, 0
1, 297198, Note_on_c, 0, 86, 100
1, 297198, Note_on_c, 0, 32, 77
1, 297201, Note_on_c, 0, 41, 87
1, 297268, Note_on_c, 0, 86, 0
1, 297268, Note_on_c, 0, 84, 102
1, 297303, Note_on_c, 0, 41, 0
1, 297303, Note_on_c, 0, 32, 0
1, 297338, Note_on_c, 0, 84, 0
1, 297338, Note_on_c, 0, 83, 106
1, 297338, Note_on_c, 0, 41, 106
1, 297341, Note_on_c, 0, 31, 91
1, 297408, Note_on_c, 0, 83, 0
1, 297408, Note_on_c, 0, 84, 110
1, 297480, Note_on_c, 0, 84, 0
1, 297480, Note_on_c, 0, 86, 115
1, 297553, Note_on_c, 0, 86, 0
1, 297553, Note_on_c, 0, 87, 119
1, 297632, Note_on_c, 0, 87, 0
1, 297632, Note_on_c, 0, 41, 0
1, 297632, Note_on_c, 0, 89, 121
1, 297635, Note_on_c, 0, 31, 0
1, 297635, Note_on_c, 0, 43, 102
1, 297635, Note_on_c, 0, 55, 117
1, 297702, Note_on_c, 0, 89, 0
1, 297702, Note_on_c, 0, 87, 119
1, 297772, Note_on_c, 0, 87, 0
1, 297772, Note_on_c, 0, 86, 117
1, 297842, Note_on_c, 0, 86, 0
1, 297842, Note_on_c, 0, 84, 115
1, 297912, Note_on_c, 0, 84, 0
1, 297912, Note_on_c, 0, 83, 114
1, 297982, Note_on_c, 0, 83, 0
1, 297982, Note_on_c, 0, 80, 112
1, 298052, Note_on_c, 0, 80, 0
1, 298052, Note_on_c, 0, 79, 110
1, 298122, Note_on_c, 0, 79, 0
1, 298122, Note_on_c, 0, 77, 108
1, 298192, Note_on_c, 0, 77, 0
1, 298192, Note_on_c, 0, 75, 106
1, 298263, Note_on_c, 0, 75, 0
1, 298263, Note_on_c, 0, 74, 104
1, 298334, Note_on_c, 0, 74, 0
1, 298334, Note_on_c, 0, 55, 0
1, 298334, Note_on_c, 0, 72, 102
1, 298337, Note_on_c, 0, 43, 0
1, 298337, Note_on_c, 0, 57, 88
1, 298405, Note_on_c, 0, 57, 0
1, 298405, Note_on_c, 0, 72, 0
1, 298405, Note_on_c, 0, 71, 100
1, 298408, Note_on_c, 0, 59, 91
1, 298476, Note_on_c, 0, 59, 0
1, 298476, Note_on_c, 0, 71, 0
1, 298476, Note_on_c, 0, 72, 114
1, 298479, Note_on_c, 0, 60, 93
1, 298590, Note_on_c, 0, 60, 0
1, 298590, Note_on_c, 0, 72, 0
1, 298781, Note_on_c, 0, 67, 104
1, 298781, Note_on_c, 0, 43, 77
1, 298781, Note_on_c, 0, 55, 87
1, 298905, Note_on_c, 0, 55, 0
1, 298905, Note_on_c, 0, 43, 0
1, 298905, Note_on_c, 0, 67, 0
1, 299111, Note_on_c, 0, 63, 93
1, 299111, Note_on_c, 0, 39, 73
1, 299111, Note_on_c, 0, 51, 83
1, 299245, Note_on_c, 0, 51, 0
1, 299245, Note_on_c, 0, 39, 0
1, 299245, Note_on_c, 0, 63, 0
1, 299469, Note_on_c, 0, 60, 85
1, 299469, Note_on_c, 0, 36, 69
1, 299469, Note_on_c, 0, 48, 78
1, 299646, Note_on_c, 0, 48, 0
1, 299646, Note_on_c, 0, 36, 0
1, 299646, Note_on_c, 0, 60, 0
1, 299940, Note_on_c, 0, 56, 81
1, 299940, Note_on_c, 0, 32, 67
1, 299940, Note_on_c, 0, 44, 75
1, 301368, Note_on_c, 0, 44, 0
1, 301368, Note_on_c, 0, 56, 0
1, 301368, Note_on_c, 0, 73, 75
1, 301371, Note_on_c, 0, 32, 0
1, 301371, Note_on_c, 0, 61, 58
1, 301487, Note_on_c, 0, 61, 0
1, 301487, Note_on_c, 0, 73, 0
1, 301686, Note_on_c, 0, 68, 73
1, 301686, Note_on_c, 0, 56, 54
1, 301815, Note_on_c, 0, 56, 0
1, 301815, Note_on_c, 0, 68, 0
1, 302031, Note_on_c, 0, 65, 69
1, 302031, Note_on_c, 0, 53, 53
1, 302179, Note_on_c, 0, 53, 0
1, 302179, Note_on_c, 0, 65, 0
1, 302424, Note_on_c, 0, 61, 64
1, 302424, Note_on_c, 0, 49, 50
1, 302613, Note_on_c, 0, 49, 0
1, 302613, Note_on_c, 0, 61, 0
1, 302929, Note_on_c, 0, 58, 60
1, 302929, Note_on_c, 0, 34, 45
1, 302929, Note_on_c, 0, 46, 50
1, 304369, Note_on_c, 0, 46, 0
1, 304369, Note_on_c, 0, 34, 0
1, 304369, Note_on_c, 0, 58, 0
1, 304372, Note_on_c, 0, 63, 62
1, 304441, Note_on_c, 0, 67, 58
1, 304476, Note_on_c, 0, 63, 0
1, 304512, Note_on_c, 0, 67, 0
1, 304512, Note_on_c, 0, 70, 58
1, 304583, Note_on_c, 0, 70, 0
1, 304583, Note_on_c, 0, 75, 58
1, 304655, Note_on_c, 0, 75, 0
1, 304655, Note_on_c, 0, 58, 58
1, 304726, Note_on_c, 0, 67, 58
1, 304762, Note_on_c, 0, 58, 0
1, 304797, Note_on_c, 0, 67, 0
1, 304797, Note_on_c, 0, 70, 58
1, 304869, Note_on_c, 0, 70, 0
1, 304869, Note_on_c, 0, 75, 58
1, 304940, Note_on_c, 0, 75, 0
1, 304940, Note_on_c, 0, 55, 58
1, 305012, Note_on_c, 0, 67, 58
1, 305047, Note_on_c, 0, 55, 0
1, 305083, Note_on_c, 0, 67, 0
1, 305083, Note_on_c, 0, 70, 58
1, 305154, Note_on_c, 0, 70, 0
1, 305154, Note_on_c, 0, 75, 58
1, 305226, Note_on_c, 0, 75, 0
1, 305226, Note_on_c, 0, 51, 58
1, 305299, Note_on_c, 0, 67, 58
1, 305335, Note_on_c, 0, 51, 0
1, 305371, Note_on_c, 0, 67, 0
1, 305371, Note_on_c, 0, 70, 58
1, 305444, Note_on_c, 0, 70, 0
1, 305444, Note_on_c, 0, 75, 58
1, 305517, Note_on_c, 0, 75, 0
1, 305517, Note_on_c, 0, 53, 56
1, 305588, Note_on_c, 0, 65, 58
1, 305624, Note_on_c, 0, 53, 0
1, 305660, Note_on_c, 0, 65, 0
1, 305660, Note_on_c, 0, 68, 58
1, 305731, Note_on_c, 0, 68, 0
1, 305731, Note_on_c, 0, 75, 58
1, 305803, Note_on_c, 0, 75, 0
1, 305803, Note_on_c, 0, 56, 59
1, 305873, Note_on_c, 0, 65, 62
1, 305909, Note_on_c, 0, 56, 0
1, 305944, Note_on_c, 0, 65, 0
1, 305944, Note_on_c, 0, 71, 62
1, 306015, Note_on_c, 0, 71, 0
1, 306015, Note_on_c, 0, 74, 62
1, 306086, Note_on_c, 0, 74, 0
1, 306086, Note_on_c, 0, 57, 60
1, 306158, Note_on_c, 0, 63, 66
1, 306193, Note_on_c, 0, 57, 0
1, 306229, Note_on_c, 0, 63, 0
1, 306229, Note_on_c, 0, 66, 66
1, 306300, Note_on_c, 0, 66, 0
1, 306300, Note_on_c, 0, 74, 66
1, 306372, Note_on_c, 0, 74, 0
1, 306372, Note_on_c, 0, 54, 58
1, 306445, Note_on_c, 0, 63, 60
1, 306481, Note_on_c, 0, 54, 0
1, 306518, Note_on_c, 0, 63, 0
1, 306518, Note_on_c, 0, 69, 60
1, 306591, Note_on_c, 0, 69, 0
1, 306591, Note_on_c, 0, 72, 60
1, 306664, Note_on_c, 0, 72, 0
1, 306664, Note_on_c, 0, 55, 67
1, 306737, Note_on_c, 0, 62, 65
1, 306773, Note_on_c, 0, 55, 0
1, 306810, Note_on_c, 0, 62, 0
1, 306810, Note_on_c, 0, 67, 65
1, 306882, Note_on_c, 0, 67, 0
1, 306882, Note_on_c, 0, 72, 65
1, 306955, Note_on_c, 0, 72, 0
1, 306955, Note_on_c, 0, 54, 65
1, 307029, Note_on_c, 0, 62, 69
1, 307066, Note_on_c, 0, 54, 0
1, 307103, Note_on_c, 0, 62, 0
1, 307103, Note_on_c, 0, 67, 69
1, 307177, Note_on_c, 0, 67, 0
1, 307177, Note_on_c, 0, 72, 69
1, 307251, Note_on_c, 0, 72, 0
1, 307251, Note_on_c, 0, 55, 81
1, 307324, Note_on_c, 0, 62, 74
1, 307361, Note_on_c, 0, 55, 0
1, 307397, Note_on_c, 0, 62, 0
1, 307397, Note_on_c, 0, 67, 74
1, 307471, Note_on_c, 0, 67, 0
1, 307471, Note_on_c, 0, 71, 74
1, 307544, Note_on_c, 0, 71, 0
1, 307544, Note_on_c, 0, 43, 77
1, 307618, Note_on_c, 0, 62, 79
1, 307655, Note_on_c, 0, 43, 0
1, 307693, Note_on_c, 0, 62, 0
1, 307693, Note_on_c, 0, 65, 80
1, 307767, Note_on_c, 0, 65, 0
1, 307767, Note_on_c, 0, 71, 80
1, 307860, Note_on_c, 0, 71, 0
1, 307860, Note_on_c, 0, 64, 89
1, 307860, Note_on_c, 0, 72, 105
1, 307863, Note_on_c, 0, 36, 91
1, 307863, Note_on_c, 0, 48, 91
1, 308000, Note_on_c, 0, 72, 0
1, 308000, Note_on_c, 0, 64, 0
1, 308000, Note_on_c, 0, 64, 58
1, 308003, Note_on_c, 0, 48, 0
1, 308003, Note_on_c, 0, 48, 52
1, 308070, Note_on_c, 0, 60, 54
1, 308070, Note_on_c, 0, 55, 47
1, 308105, Note_on_c, 0, 64, 0
1, 308140, Note_on_c, 0, 60, 0
1, 308140, Note_on_c, 0, 55, 0
1, 308140, Note_on_c, 0, 64, 58
1, 308143, Note_on_c, 0, 48, 0
1, 308143, Note_on_c, 0, 48, 52
1, 308210, Note_on_c, 0, 60, 54
1, 308210, Note_on_c, 0, 55, 48
1, 308244, Note_on_c, 0, 64, 0
1, 308279, Note_on_c, 0, 60, 0
1, 308279, Note_on_c, 0, 55, 0
1, 308279, Note_on_c, 0, 64, 57
1, 308282, Note_on_c, 0, 48, 0
1, 308282, Note_on_c, 0, 48, 52
1, 308349, Note_on_c, 0, 60, 54
1, 308349, Note_on_c, 0, 55, 48
1, 308383, Note_on_c, 0, 64, 0
1, 308418, Note_on_c, 0, 60, 0
1, 308418, Note_on_c, 0, 55, 0
1, 308418, Note_on_c, 0, 64, 57
1, 308421, Note_on_c, 0, 48, 0
1, 308421, Note_on_c, 0, 48, 52
1, 308488, Note_on_c, 0, 60, 54
1, 308488, Note_on_c, 0, 55, 47
1, 308523, Note_on_c, 0, 64, 0
1, 308557, Note_on_c, 0, 60, 0
1, 308557, Note_on_c, 0, 55, 0
1, 308557, Note_on_c, 0, 64, 58
1, 308560, Note_on_c, 0, 48, 0
1, 308560, Note_on_c, 0, 48, 52
1, 308627, Note_on_c, 0, 60, 54
1, 308627, Note_on_c, 0, 55, 48
1, 308662, Note_on_c, 0, 64, 0
1, 308696, Note_on_c, 0, 60, 0
1, 308696, Note_on_c, 0, 55, 0
1, 308696, Note_on_c, 0, 64, 57
1, 308699, Note_on_c, 0, 48, 0
1, 308699, Note_on_c, 0, 48, 52
1, 308766, Note_on_c, 0, 60, 54
1, 308766, Note_on_c, 0, 55, 48
1, 308801, Note_on_c, 0, 64, 0
1, 308836, Note_on_c, 0, 60, 0
1, 308836, Note_on_c, 0, 55, 0
1, 308836, Note_on_c, 0, 64, 57
1, 308839, Note_on_c, 0, 48, 0
1, 308839, Note_on_c, 0, 48, 52
1, 308906, Note_on_c, 0, 60, 54
1, 308906, Note_on_c, 0, 55, 46
1, 308941, Note_on_c, 0, 64, 0
1, 308976, Note_on_c, 0, 60, 0
1, 308976, Note_on_c, 0, 55, 0
1, 308976, Note_on_c, 0, 64, 58
1, 308979, Note_on_c, 0, 48, 0
1, 308979, Note_on_c, 0, 36, 0
1, 308979, Note_on_c, 0, 48, 52
1, 309046, Note_on_c, 0, 60, 54
1, 309046, Note_on_c, 0, 55, 47
1, 309081, Note_on_c, 0, 64, 0
1, 309116, Note_on_c, 0, 55, 0
1, 309116, Note_on_c, 0, 60, 0
1, 309116, Note_on_c, 0, 64, 58
1, 309119, Note_on_c, 0, 48, 0
1, 309119, Note_on_c, 0, 48, 52
1, 309186, Note_on_c, 0, 60, 54
1, 309186, Note_on_c, 0, 55, 47
1, 309221, Note_on_c, 0, 64, 0
1, 309256, Note_on_c, 0, 55, 0
1, 309256, Note_on_c, 0, 60, 0
1, 309256, Note_on_c, 0, 64, 58
1, 309259, Note_on_c, 0, 48, 0
1, 309259, Note_on_c, 0, 48, 52
1, 309326, Note_on_c, 0, 60, 54
1, 309326, Note_on_c, 0, 55, 48
1, 309360, Note_on_c, 0, 64, 0
1, 309395, Note_on_c, 0, 55, 0
1, 309395, Note_on_c, 0, 60, 0
1, 309395, Note_on_c, 0, 64, 57
1, 309398, Note_on_c, 0, 48, 0
1, 309398, Note_on_c, 0, 48, 52
1, 309464, Note_on_c, 0, 60, 54
1, 309464, Note_on_c, 0, 55, 48
1, 309499, Note_on_c, 0, 64, 0
1, 309534, Note_on_c, 0, 55, 0
1, 309534, Note_on_c, 0, 60, 0
1, 309534, Note_on_c, 0, 64, 57
1, 309537, Note_on_c, 0, 48, 0
1, 309537, Note_on_c, 0, 48, 52
1, 309603, Note_on_c, 0, 60, 54
1, 309603, Note_on_c, 0, 55, 47
1, 309638, Note_on_c, 0, 64, 0
1, 309672, Note_on_c, 0, 55, 0
1, 309672, Note_on_c, 0, 60, 0
1, 309672, Note_on_c, 0, 64, 58
1, 309675, Note_on_c, 0, 48, 0
1, 309675, Note_on_c, 0, 48, 52
1, 309742, Note_on_c, 0, 60, 54
1, 309742, Note_on_c, 0, 55, 48
1, 309776, Note_on_c, 0, 64, 0
1, 309811, Note_on_c, 0, 55, 0
1, 309811, Note_on_c, 0, 60, 0
1, 309811, Note_on_c, 0, 66, 57
1, 309814, Note_on_c, 0, 48, 0
1, 309814, Note_on_c, 0, 48, 52
1, 309881, Note_on_c, 0, 62, 54
1, 309881, Note_on_c, 0, 57, 48
1, 309916, Note_on_c, 0, 66, 0
1, 309951, Note_on_c, 0, 57, 0
1, 309951, Note_on_c, 0, 62, 0
1, 309951, Note_on_c, 0, 66, 57
1, 309954, Note_on_c, 0, 48, 0
1, 309954, Note_on_c, 0, 48, 52
1, 310021, Note_on_c, 0, 62, 54
1, 310021, Note_on_c, 0, 57, 46
1, 310056, Note_on_c, 0, 66, 0
1, 310091, Note_on_c, 0, 57, 0
1, 310091, Note_on_c, 0, 62, 0
1, 310091, Note_on_c, 0, 67, 67
1, 310094, Note_on_c, 0, 48, 0
1, 310094, Note_on_c, 0, 47, 47
1, 310094, Note_on_c, 0, 50, 52
1, 310161, Note_on_c, 0, 55, 46
1, 310231, Note_on_c, 0, 55, 0
1, 310231, Note_on_c, 0, 50, 0
1, 310231, Note_on_c, 0, 47, 0
1, 310234, Note_on_c, 0, 47, 47
1, 310234, Note_on_c, 0, 50, 52
1, 310301, Note_on_c, 0, 55, 46
1, 310371, Note_on_c, 0, 55, 0
1, 310371, Note_on_c, 0, 50, 0
1, 310371, Note_on_c, 0, 47, 0
1, 310374, Note_on_c, 0, 47, 47
1, 310374, Note_on_c, 0, 50, 52
1, 310441, Note_on_c, 0, 55, 46
1, 310511, Note_on_c, 0, 55, 0
1, 310511, Note_on_c, 0, 67, 0
1, 310511, Note_on_c, 0, 71, 61
1, 310514, Note_on_c, 0, 50, 0
1, 310514, Note_on_c, 0, 47, 0
1, 310514, Note_on_c, 0, 47, 47
1, 310517, Note_on_c, 0, 50, 52
1, 310581, Note_on_c, 0, 71, 0
1, 310581, Note_on_c, 0, 69, 61
1, 310581, Note_on_c, 0, 55, 46
1, 310651, Note_on_c, 0, 55, 0
1, 310651, Note_on_c, 0, 69, 0
1, 310651, Note_on_c, 0, 67, 66
1, 310654, Note_on_c, 0, 50, 0
1, 310654, Note_on_c, 0, 47, 0
1, 310654, Note_on_c, 0, 47, 47
1, 310657, Note_on_c, 0, 50, 52
1, 310721, Note_on_c, 0, 67, 0
1, 310721, Note_on_c, 0, 55, 46
1, 310791, Note_on_c, 0, 55, 0
1, 310791, Note_on_c, 0, 50, 0
1, 310791, Note_on_c, 0, 47, 0
1, 310794, Note_on_c, 0, 47, 47
1, 310794, Note_on_c, 0, 50, 52
1, 310861, Note_on_c, 0, 55, 46
1, 310931, Note_on_c, 0, 55, 0
1, 310931, Note_on_c, 0, 50, 0
1, 310931, Note_on_c, 0, 47, 0
1, 310934, Note_on_c, 0, 47, 47
1, 310934, Note_on_c, 0, 50, 52
1, 311001, Note_on_c, 0, 55, 46
1, 311071, Note_on_c, 0, 55, 0
1, 311071, Note_on_c, 0, 50, 0
1, 311071, Note_on_c, 0, 47, 0
1, 311074, Note_on_c, 0, 47, 47
1, 311074, Note_on_c, 0, 50, 52
1, 311143, Note_on_c, 0, 55, 46
1, 311179, Note_on_c, 0, 85, 67
1, 311214, Note_on_c, 0, 85, 0
1, 311214, Note_on_c, 0, 55, 0
1, 311214, Note_on_c, 0, 86, 78
1, 311217, Note_on_c, 0, 50, 0
1, 311217, Note_on_c, 0, 47, 0
1, 311217, Note_on_c, 0, 47, 47
1, 311220, Note_on_c, 0, 50, 52
1, 311284, Note_on_c, 0, 55, 46
1, 311354, Note_on_c, 0, 55, 0
1, 311354, Note_on_c, 0, 50, 0
1, 311354, Note_on_c, 0, 47, 0
1, 311357, Note_on_c, 0, 47, 47
1, 311357, Note_on_c, 0, 50, 52
1, 311424, Note_on_c, 0, 55, 46
1, 311494, Note_on_c, 0, 55, 0
1, 311494, Note_on_c, 0, 50, 0
1, 311494, Note_on_c, 0, 47, 0
1, 311497, Note_on_c, 0, 47, 47
1, 311497, Note_on_c, 0, 50, 52
1, 311564, Note_on_c, 0, 86, 0
1, 311564, Note_on_c, 0, 84, 69
1, 311564, Note_on_c, 0, 55, 46
1, 311634, Note_on_c, 0, 55, 0
1, 311634, Note_on_c, 0, 84, 0
1, 311634, Note_on_c, 0, 83, 68
1, 311637, Note_on_c, 0, 50, 0
1, 311637, Note_on_c, 0, 47, 0
1, 311637, Note_on_c, 0, 47, 47
1, 311640, Note_on_c, 0, 50, 52
1, 311704, Note_on_c, 0, 83, 0
1, 311704, Note_on_c, 0, 81, 66
1, 311704, Note_on_c, 0, 55, 46
1, 311774, Note_on_c, 0, 55, 0
1, 311774, Note_on_c, 0, 81, 0
1, 311774, Note_on_c, 0, 79, 65
1, 311777, Note_on_c, 0, 50, 0
1, 311777, Note_on_c, 0, 47, 0
1, 311777, Note_on_c, 0, 47, 47
1, 311780, Note_on_c, 0, 50, 52
1, 311844, Note_on_c, 0, 55, 46
1, 311914, Note_on_c, 0, 55, 0
1, 311914, Note_on_c, 0, 50, 0
1, 311914, Note_on_c, 0, 79, 0
1, 311917, Note_on_c, 0, 47, 0
1, 311917, Note_on_c, 0, 47, 47
1, 311917, Note_on_c, 0, 50, 52
1, 311984, Note_on_c, 0, 55, 46
1, 312054, Note_on_c, 0, 55, 0
1, 312054, Note_on_c, 0, 50, 0
1, 312054, Note_on_c, 0, 47, 0
1, 312057, Note_on_c, 0, 47, 47
1, 312057, Note_on_c, 0, 50, 52
1, 312124, Note_on_c, 0, 55, 46
1, 312194, Note_on_c, 0, 55, 0
1, 312194, Note_on_c, 0, 50, 0
1, 312194, Note_on_c, 0, 47, 0
1, 312197, Note_on_c, 0, 47, 47
1, 312197, Note_on_c, 0, 50, 52
1, 312266, Note_on_c, 0, 55, 46
1, 312339, Note_on_c, 0, 55, 0
1, 312339, Note_on_c, 0, 50, 0
1, 312339, Note_on_c, 0, 65, 61
1, 312342, Note_on_c, 0, 47, 0
1, 312342, Note_on_c, 0, 38, 54
1, 312342, Note_on_c, 0, 50, 54
1, 312409, Note_on_c, 0, 62, 57
1, 312444, Note_on_c, 0, 65, 0
1, 312479, Note_on_c, 0, 62, 0
1, 312479, Note_on_c, 0, 50, 0
1, 312479, Note_on_c, 0, 65, 61
1, 312482, Note_on_c, 0, 50, 55
1, 312549, Note_on_c, 0, 62, 57
1, 312549, Note_on_c, 0, 57, 49
1, 312584, Note_on_c, 0, 65, 0
1, 312619, Note_on_c, 0, 62, 0
1, 312619, Note_on_c, 0, 57, 0
1, 312619, Note_on_c, 0, 65, 61
1, 312622, Note_on_c, 0, 50, 0
1, 312622, Note_on_c, 0, 50, 55
1, 312688, Note_on_c, 0, 62, 57
1, 312688, Note_on_c, 0, 57, 50
1, 312722, Note_on_c, 0, 65, 0
1, 312757, Note_on_c, 0, 62, 0
1, 312757, Note_on_c, 0, 57, 0
1, 312757, Note_on_c, 0, 65, 60
1, 312760, Note_on_c, 0, 50, 0
1, 312760, Note_on_c, 0, 50, 55
1, 312826, Note_on_c, 0, 62, 57
1, 312826, Note_on_c, 0, 57, 50
1, 312861, Note_on_c, 0, 65, 0
1, 312896, Note_on_c, 0, 62, 0
1, 312896, Note_on_c, 0, 57, 0
1, 312896, Note_on_c, 0, 65, 60
1, 312899, Note_on_c, 0, 50, 0
1, 312899, Note_on_c, 0, 50, 55
1, 312965, Note_on_c, 0, 62, 57
1, 312965, Note_on_c, 0, 57, 49
1, 313000, Note_on_c, 0, 65, 0
1, 313034, Note_on_c, 0, 62, 0
1, 313034, Note_on_c, 0, 57, 0
1, 313034, Note_on_c, 0, 65, 62
1, 313037, Note_on_c, 0, 50, 0
1, 313037, Note_on_c, 0, 50, 55
1, 313104, Note_on_c, 0, 62, 57
1, 313104, Note_on_c, 0, 57, 50
1, 313138, Note_on_c, 0, 65, 0
1, 313173, Note_on_c, 0, 62, 0
1, 313173, Note_on_c, 0, 57, 0
1, 313173, Note_on_c, 0, 65, 61
1, 313176, Note_on_c, 0, 50, 0
1, 313176, Note_on_c, 0, 50, 55
1, 313244, Note_on_c, 0, 62, 58
1, 313244, Note_on_c, 0, 57, 51
1, 313279, Note_on_c, 0, 65, 0
1, 313314, Note_on_c, 0, 62, 0
1, 313314, Note_on_c, 0, 57, 0
1, 313314, Note_on_c, 0, 65, 61
1, 313317, Note_on_c, 0, 50, 0
1, 313317, Note_on_c, 0, 50, 56
1, 313384, Note_on_c, 0, 62, 58
1, 313384, Note_on_c, 0, 57, 49
1, 313420, Note_on_c, 0, 65, 0
1, 313455, Note_on_c, 0, 62, 0
1, 313455, Note_on_c, 0, 57, 0
1, 313455, Note_on_c, 0, 65, 62
1, 313458, Note_on_c, 0, 50, 0
1, 313458, Note_on_c, 0, 38, 0
1, 313458, Note_on_c, 0, 50, 56
1, 313525, Note_on_c, 0, 62, 58
1, 313525, Note_on_c, 0, 57, 50
1, 313560, Note_on_c, 0, 65, 0
1, 313595, Note_on_c, 0, 57, 0
1, 313595, Note_on_c, 0, 62, 0
1, 313595, Note_on_c, 0, 65, 62
1, 313598, Note_on_c, 0, 50, 0
1, 313598, Note_on_c, 0, 50, 56
1, 313665, Note_on_c, 0, 62, 58
1, 313665, Note_on_c, 0, 57, 50
1, 313700, Note_on_c, 0, 65, 0
1, 313735, Note_on_c, 0, 57, 0
1, 313735, Note_on_c, 0, 62, 0
1, 313735, Note_on_c, 0, 65, 63
1, 313738, Note_on_c, 0, 50, 0
1, 313738, Note_on_c, 0, 50, 56
1, 313804, Note_on_c, 0, 62, 58
1, 313804, Note_on_c, 0, 57, 51
1, 313839, Note_on_c, 0, 65, 0
1, 313874, Note_on_c, 0, 57, 0
1, 313874, Note_on_c, 0, 62, 0
1, 313874, Note_on_c, 0, 65, 62
1, 313877, Note_on_c, 0, 50, 0
1, 313877, Note_on_c, 0, 50, 56
1, 313944, Note_on_c, 0, 62, 59
1, 313944, Note_on_c, 0, 57, 51
1, 313978, Note_on_c, 0, 65, 0
1, 314013, Note_on_c, 0, 57, 0
1, 314013, Note_on_c, 0, 62, 0
1, 314013, Note_on_c, 0, 65, 62
1, 314016, Note_on_c, 0, 50, 0
1, 314016, Note_on_c, 0, 50, 57
1, 314083, Note_on_c, 0, 62, 59
1, 314083, Note_on_c, 0, 57, 50
1, 314119, Note_on_c, 0, 65, 0
1, 314154, Note_on_c, 0, 57, 0
1, 314154, Note_on_c, 0, 62, 0
1, 314154, Note_on_c, 0, 65, 63
1, 314157, Note_on_c, 0, 50, 0
1, 314157, Note_on_c, 0, 50, 57
1, 314224, Note_on_c, 0, 62, 59
1, 314224, Note_on_c, 0, 57, 52
1, 314260, Note_on_c, 0, 65, 0
1, 314295, Note_on_c, 0, 57, 0
1, 314295, Note_on_c, 0, 62, 0
1, 314295, Note_on_c, 0, 68, 62
1, 314298, Note_on_c, 0, 50, 0
1, 314298, Note_on_c, 0, 50, 57
1, 314365, Note_on_c, 0, 64, 59
1, 314365, Note_on_c, 0, 59, 52
1, 314400, Note_on_c, 0, 68, 0
1, 314436, Note_on_c, 0, 59, 0
1, 314436, Note_on_c, 0, 64, 0
1, 314436, Note_on_c, 0, 68, 63
1, 314439, Note_on_c, 0, 50, 0
1, 314439, Note_on_c, 0, 50, 57
1, 314506, Note_on_c, 0, 64, 59
1, 314506, Note_on_c, 0, 59, 50
1, 314541, Note_on_c, 0, 68, 0
1, 314577, Note_on_c, 0, 59, 0
1, 314577, Note_on_c, 0, 64, 0
1, 314577, Note_on_c, 0, 69, 76
1, 314580, Note_on_c, 0, 50, 0
1, 314580, Note_on_c, 0, 48, 51
1, 314580, Note_on_c, 0, 52, 58
1, 314647, Note_on_c, 0, 57, 50
1, 314717, Note_on_c, 0, 57, 0
1, 314717, Note_on_c, 0, 52, 0
1, 314717, Note_on_c, 0, 48, 0
1, 314720, Note_on_c, 0, 48, 51
1, 314720, Note_on_c, 0, 52, 58
1, 314787, Note_on_c, 0, 57, 50
1, 314857, Note_on_c, 0, 57, 0
1, 314857, Note_on_c, 0, 52, 0
1, 314857, Note_on_c, 0, 48, 0
1, 314860, Note_on_c, 0, 48, 51
1, 314860, Note_on_c, 0, 52, 58
1, 314927, Note_on_c, 0, 57, 50
1, 314997, Note_on_c, 0, 57, 0
1, 314997, Note_on_c, 0, 69, 0
1, 314997, Note_on_c, 0, 72, 69
1, 315000, Note_on_c, 0, 52, 0
1, 315000, Note_on_c, 0, 48, 0
1, 315000, Note_on_c, 0, 48, 51
1, 315003, Note_on_c, 0, 52, 58
1, 315066, Note_on_c, 0, 72, 0
1, 315066, Note_on_c, 0, 71, 69
1, 315066, Note_on_c, 0, 57, 50
1, 315136, Note_on_c, 0, 57, 0
1, 315136, Note_on_c, 0, 71, 0
1, 315136, Note_on_c, 0, 69, 74
1, 315139, Note_on_c, 0, 52, 0
1, 315139, Note_on_c, 0, 48, 0
1, 315139, Note_on_c, 0, 48, 51
1, 315142, Note_on_c, 0, 52, 58
1, 315206, Note_on_c, 0, 69, 0
1, 315206, Note_on_c, 0, 57, 50
1, 315276, Note_on_c, 0, 57, 0
1, 315276, Note_on_c, 0, 52, 0
1, 315276, Note_on_c, 0, 48, 0
1, 315279, Note_on_c, 0, 48, 51
1, 315279, Note_on_c, 0, 52, 58
1, 315346, Note_on_c, 0, 57, 50
1, 315416, Note_on_c, 0, 57, 0
1, 315416, Note_on_c, 0, 52, 0
1, 315416, Note_on_c, 0, 48, 0
1, 315419, Note_on_c, 0, 48, 51
1, 315419, Note_on_c, 0, 52, 58
1, 315486, Note_on_c, 0, 57, 50
1, 315556, Note_on_c, 0, 57, 0
1, 315556, Note_on_c, 0, 52, 0
1, 315556, Note_on_c, 0, 48, 0
1, 315559, Note_on_c, 0, 48, 51
1, 315559, Note_on_c, 0, 52, 58
1, 315628, Note_on_c, 0, 57, 50
1, 315664, Note_on_c, 0, 87, 76
1, 315700, Note_on_c, 0, 87, 0
1, 315700, Note_on_c, 0, 57, 0
1, 315700, Note_on_c, 0, 88, 89
1, 315703, Note_on_c, 0, 52, 0
1, 315703, Note_on_c, 0, 48, 0
1, 315703, Note_on_c, 0, 48, 51
1, 315706, Note_on_c, 0, 52, 58
1, 315770, Note_on_c, 0, 57, 50
1, 315840, Note_on_c, 0, 57, 0
1, 315840, Note_on_c, 0, 52, 0
1, 315840, Note_on_c, 0, 48, 0
1, 315843, Note_on_c, 0, 48, 51
1, 315843, Note_on_c, 0, 52, 58
1, 315910, Note_on_c, 0, 57, 50
1, 315980, Note_on_c, 0, 57, 0
1, 315980, Note_on_c, 0, 52, 0
1, 315980, Note_on_c, 0, 48, 0
1, 315983, Note_on_c, 0, 48, 51
1, 315983, Note_on_c, 0, 52, 58
1, 316050, Note_on_c, 0, 88, 0
1, 316050, Note_on_c, 0, 86, 79
1, 316050, Note_on_c, 0, 57, 50
1, 316120, Note_on_c, 0, 57, 0
1, 316120, Note_on_c, 0, 86, 0
1, 316120, Note_on_c, 0, 84, 78
1, 316123, Note_on_c, 0, 52, 0
1, 316123, Note_on_c, 0, 48, 0
1, 316123, Note_on_c, 0, 48, 51
1, 316126, Note_on_c, 0, 52, 59
1, 316190, Note_on_c, 0, 84, 0
1, 316190, Note_on_c, 0, 83, 76
1, 316190, Note_on_c, 0, 57, 51
1, 316260, Note_on_c, 0, 57, 0
1, 316260, Note_on_c, 0, 83, 0
1, 316260, Note_on_c, 0, 81, 76
1, 316263, Note_on_c, 0, 52, 0
1, 316263, Note_on_c, 0, 48, 0
1, 316263, Note_on_c, 0, 48, 52
1, 316266, Note_on_c, 0, 52, 59
1, 316330, Note_on_c, 0, 57, 51
1, 316400, Note_on_c, 0, 57, 0
1, 316400, Note_on_c, 0, 52, 0
1, 316400, Note_on_c, 0, 81, 0
1, 316403, Note_on_c, 0, 48, 0
1, 316403, Note_on_c, 0, 48, 52
1, 316403, Note_on_c, 0, 52, 60
1, 316470, Note_on_c, 0, 57, 51
1, 316540, Note_on_c, 0, 57, 0
1, 316540, Note_on_c, 0, 52, 0
1, 316540, Note_on_c, 0, 48, 0
1, 316543, Note_on_c, 0, 48, 52
1, 316543, Note_on_c, 0, 52, 60
1, 316610, Note_on_c, 0, 57, 52
1, 316680, Note_on_c, 0, 57, 0
1, 316680, Note_on_c, 0, 52, 0
1, 316680, Note_on_c, 0, 48, 0
1, 316683, Note_on_c, 0, 48, 54
1, 316683, Note_on_c, 0, 52, 60
1, 316752, Note_on_c, 0, 57, 52
1, 316788, Note_on_c, 0, 83, 82
1, 316824, Note_on_c, 0, 83, 0
1, 316824, Note_on_c, 0, 57, 0
1, 316824, Note_on_c, 0, 84, 99
1, 316827, Note_on_c, 0, 52, 0
1, 316827, Note_on_c, 0, 48, 0
1, 316827, Note_on_c, 0, 53, 55
1, 316830, Note_on_c, 0, 57, 62
1, 316894, Note_on_c, 0, 60, 54
1, 316964, Note_on_c, 0, 60, 0
1, 316964, Note_on_c, 0, 57, 0
1, 316964, Note_on_c, 0, 53, 0
1, 316967, Note_on_c, 0, 53, 56
1, 316967, Note_on_c, 0, 57, 62
1, 317034, Note_on_c, 0, 60, 55
1, 317104, Note_on_c, 0, 60, 0
1, 317104, Note_on_c, 0, 57, 0
1, 317104, Note_on_c, 0, 53, 0
1, 317107, Note_on_c, 0, 53, 56
1, 317107, Note_on_c, 0, 57, 63
1, 317174, Note_on_c, 0, 84, 0
1, 317174, Note_on_c, 0, 83, 89
1, 317174, Note_on_c, 0, 60, 55
1, 317244, Note_on_c, 0, 60, 0
1, 317244, Note_on_c, 0, 83, 0
1, 317244, Note_on_c, 0, 81, 88
1, 317247, Note_on_c, 0, 57, 0
1, 317247, Note_on_c, 0, 53, 0
1, 317247, Note_on_c, 0, 53, 56
1, 317250, Note_on_c, 0, 57, 63
1, 317314, Note_on_c, 0, 81, 0
1, 317314, Note_on_c, 0, 80, 85
1, 317314, Note_on_c, 0, 60, 55
1, 317384, Note_on_c, 0, 60, 0
1, 317384, Note_on_c, 0, 80, 0
1, 317384, Note_on_c, 0, 81, 84
1, 317387, Note_on_c, 0, 57, 0
1, 317387, Note_on_c, 0, 53, 0
1, 317387, Note_on_c, 0, 53, 57
1, 317390, Note_on_c, 0, 57, 65
1, 317454, Note_on_c, 0, 62, 56
1, 317524, Note_on_c, 0, 62, 0
1, 317524, Note_on_c, 0, 57, 0
1, 317524, Note_on_c, 0, 81, 0
1, 317527, Note_on_c, 0, 53, 0
1, 317527, Note_on_c, 0, 53, 58
1, 317527, Note_on_c, 0, 57, 66
1, 317594, Note_on_c, 0, 62, 57
1, 317664, Note_on_c, 0, 62, 0
1, 317664, Note_on_c, 0, 57, 0
1, 317664, Note_on_c, 0, 53, 0
1, 317667, Note_on_c, 0, 53, 58
1, 317667, Note_on_c, 0, 57, 66
1, 317734, Note_on_c, 0, 62, 58
1, 317804, Note_on_c, 0, 62, 0
1, 317804, Note_on_c, 0, 57, 0
1, 317804, Note_on_c, 0, 53, 0
1, 317807, Note_on_c, 0, 53, 59
1, 317807, Note_on_c, 0, 57, 67
1, 317876, Note_on_c, 0, 62, 58
1, 317912, Note_on_c, 0, 83, 84
1, 317967, Note_on_c, 0, 83, 0
1, 317967, Note_on_c, 0, 62, 0
1, 317967, Note_on_c, 0, 84, 102
1, 317970, Note_on_c, 0, 57, 0
1, 317970, Note_on_c, 0, 53, 0
1, 317970, Note_on_c, 0, 53, 56
1, 317973, Note_on_c, 0, 57, 64
1, 318037, Note_on_c, 0, 63, 55
1, 318107, Note_on_c, 0, 63, 0
1, 318107, Note_on_c, 0, 57, 0
1, 318107, Note_on_c, 0, 53, 0
1, 318110, Note_on_c, 0, 53, 57
1, 318110, Note_on_c, 0, 57, 64
1, 318177, Note_on_c, 0, 63, 56
1, 318247, Note_on_c, 0, 63, 0
1, 318247, Note_on_c, 0, 57, 0
1, 318247, Note_on_c, 0, 53, 0
1, 318250, Note_on_c, 0, 53, 58
1, 318250, Note_on_c, 0, 57, 65
1, 318317, Note_on_c, 0, 84, 0
1, 318317, Note_on_c, 0, 83, 93
1, 318317, Note_on_c, 0, 63, 57
1, 318387, Note_on_c, 0, 63, 0
1, 318387, Note_on_c, 0, 83, 0
1, 318387, Note_on_c, 0, 81, 92
1, 318390, Note_on_c, 0, 57, 0
1, 318390, Note_on_c, 0, 53, 0
1, 318390, Note_on_c, 0, 53, 58
1, 318393, Note_on_c, 0, 57, 65
1, 318457, Note_on_c, 0, 81, 0
1, 318457, Note_on_c, 0, 80, 88
1, 318457, Note_on_c, 0, 63, 57
1, 318527, Note_on_c, 0, 63, 0
1, 318527, Note_on_c, 0, 80, 0
1, 318527, Note_on_c, 0, 81, 91
1, 318530, Note_on_c, 0, 57, 0
1, 318530, Note_on_c, 0, 53, 0
1, 318530, Note_on_c, 0, 53, 59
1, 318533, Note_on_c, 0, 57, 68
1, 318596, Note_on_c, 0, 81, 0
1, 318596, Note_on_c, 0, 80, 87
1, 318596, Note_on_c, 0, 60, 58
1, 318667, Note_on_c, 0, 60, 0
1, 318667, Note_on_c, 0, 80, 0
1, 318667, Note_on_c, 0, 81, 87
1, 318670, Note_on_c, 0, 57, 0
1, 318670, Note_on_c, 0, 53, 0
1, 318670, Note_on_c, 0, 53, 59
1, 318673, Note_on_c, 0, 57, 68
1, 318737, Note_on_c, 0, 81, 0
1, 318737, Note_on_c, 0, 83, 87
1, 318737, Note_on_c, 0, 60, 58
1, 318808, Note_on_c, 0, 60, 0
1, 318808, Note_on_c, 0, 83, 0
1, 318808, Note_on_c, 0, 84, 90
1, 318811, Note_on_c, 0, 57, 0
1, 318811, Note_on_c, 0, 53, 0
1, 318811, Note_on_c, 0, 53, 68
1, 318879, Note_on_c, 0, 84, 0
1, 318879, Note_on_c, 0, 85, 91
1, 318879, Note_on_c, 0, 57, 60
1, 318949, Note_on_c, 0, 57, 0
1, 318949, Note_on_c, 0, 85, 0
1, 318949, Note_on_c, 0, 86, 92
1, 318952, Note_on_c, 0, 53, 0
1, 318952, Note_on_c, 0, 53, 70
1, 319027, Note_on_c, 0, 86, 0
1, 319027, Note_on_c, 0, 87, 95
1, 319027, Note_on_c, 0, 57, 60
1, 319124, Note_on_c, 0, 57, 0
1, 319124, Note_on_c, 0, 87, 0
1, 319124, Note_on_c, 0, 88, 89
1, 319127, Note_on_c, 0, 53, 0
1, 319127, Note_on_c, 0, 52, 61
1, 319197, Note_on_c, 0, 56, 56
1, 319209, Note_on_c, 0, 52, 0
1, 319269, Note_on_c, 0, 59, 56
1, 319281, Note_on_c, 0, 56, 0
1, 319341, Note_on_c, 0, 64, 56
1, 319353, Note_on_c, 0, 59, 0
1, 319412, Note_on_c, 0, 64, 0
1, 319412, Note_on_c, 0, 52, 62
1, 319484, Note_on_c, 0, 86, 75
1, 319484, Note_on_c, 0, 56, 56
1, 319496, Note_on_c, 0, 52, 0
1, 319496, Note_on_c, 0, 88, 0
1, 319555, Note_on_c, 0, 84, 74
1, 319555, Note_on_c, 0, 59, 56
1, 319567, Note_on_c, 0, 86, 0
1, 319567, Note_on_c, 0, 56, 0
1, 319626, Note_on_c, 0, 83, 72
1, 319626, Note_on_c, 0, 64, 56
1, 319638, Note_on_c, 0, 84, 0
1, 319638, Note_on_c, 0, 59, 0
1, 319697, Note_on_c, 0, 64, 0
1, 319697, Note_on_c, 0, 84, 74
1, 319697, Note_on_c, 0, 52, 60
1, 319709, Note_on_c, 0, 83, 0
1, 319767, Note_on_c, 0, 83, 73
1, 319767, Note_on_c, 0, 57, 56
1, 319779, Note_on_c, 0, 52, 0
1, 319779, Note_on_c, 0, 84, 0
1, 319838, Note_on_c, 0, 81, 72
1, 319838, Note_on_c, 0, 60, 56
1, 319849, Note_on_c, 0, 83, 0
1, 319849, Note_on_c, 0, 57, 0
1, 319908, Note_on_c, 0, 80, 71
1, 319908, Note_on_c, 0, 64, 56
1, 319920, Note_on_c, 0, 81, 0
1, 319920, Note_on_c, 0, 60, 0
1, 319978, Note_on_c, 0, 64, 0
1, 319978, Note_on_c, 0, 81, 71
1, 319978, Note_on_c, 0, 52, 61
1, 319990, Note_on_c, 0, 80, 0
1, 320049, Note_on_c, 0, 84, 73
1, 320049, Note_on_c, 0, 57, 56
1, 320061, Note_on_c, 0, 52, 0
1, 320061, Note_on_c, 0, 81, 0
1, 320119, Note_on_c, 0, 83, 71
1, 320119, Note_on_c, 0, 60, 56
1, 320131, Note_on_c, 0, 84, 0
1, 320131, Note_on_c, 0, 57, 0
1, 320190, Note_on_c, 0, 81, 71
1, 320190, Note_on_c, 0, 64, 56
1, 320201, Note_on_c, 0, 83, 0
1, 320201, Note_on_c, 0, 60, 0
1, 320260, Note_on_c, 0, 64, 0
1, 320260, Note_on_c, 0, 80, 71
1, 320260, Note_on_c, 0, 52, 61
1, 320272, Note_on_c, 0, 81, 0
1, 320330, Note_on_c, 0, 78, 70
1, 320330, Note_on_c, 0, 59, 56
1, 320342, Note_on_c, 0, 52, 0
1, 320342, Note_on_c, 0, 80, 0
1, 320400, Note_on_c, 0, 76, 69
1, 320400, Note_on_c, 0, 62, 56
1, 320412, Note_on_c, 0, 78, 0
1, 320412, Note_on_c, 0, 59, 0
1, 320470, Note_on_c, 0, 75, 68
1, 320470, Note_on_c, 0, 64, 56
1, 320482, Note_on_c, 0, 76, 0
1, 320482, Note_on_c, 0, 62, 0
1, 320540, Note_on_c, 0, 64, 0
1, 320540, Note_on_c, 0, 76, 70
1, 320540, Note_on_c, 0, 52, 61
1, 320552, Note_on_c, 0, 75, 0
1, 320611, Note_on_c, 0, 78, 70
1, 320611, Note_on_c, 0, 59, 56
1, 320622, Note_on_c, 0, 52, 0
1, 320622, Note_on_c, 0, 76, 0
1, 320681, Note_on_c, 0, 79, 70
1, 320681, Note_on_c, 0, 62, 56
1, 320693, Note_on_c, 0, 78, 0
1, 320693, Note_on_c, 0, 59, 0
1, 320751, Note_on_c, 0, 80, 71
1, 320751, Note_on_c, 0, 64, 56
1, 320763, Note_on_c, 0, 79, 0
1, 320763, Note_on_c, 0, 62, 0
1, 320822, Note_on_c, 0, 64, 0
1, 320822, Note_on_c, 0, 81, 71
1, 320822, Note_on_c, 0, 52, 61
1, 320834, Note_on_c, 0, 80, 0
1, 320893, Note_on_c, 0, 80, 71
1, 320893, Note_on_c, 0, 57, 56
1, 320904, Note_on_c, 0, 52, 0
1, 320904, Note_on_c, 0, 81, 0
1, 320963, Note_on_c, 0, 81, 72
1, 320963, Note_on_c, 0, 60, 56
1, 320975, Note_on_c, 0, 80, 0
1, 320975, Note_on_c, 0, 57, 0
1, 321034, Note_on_c, 0, 83, 72
1, 321034, Note_on_c, 0, 64, 56
1, 321046, Note_on_c, 0, 81, 0
1, 321046, Note_on_c, 0, 60, 0
1, 321105, Note_on_c, 0, 64, 0
1, 321105, Note_on_c, 0, 84, 70
1, 321105, Note_on_c, 0, 52, 61
1, 321117, Note_on_c, 0, 83, 0
1, 321176, Note_on_c, 0, 85, 71
1, 321176, Note_on_c, 0, 57, 56
1, 321188, Note_on_c, 0, 52, 0
1, 321188, Note_on_c, 0, 84, 0
1, 321249, Note_on_c, 0, 86, 73
1, 321249, Note_on_c, 0, 60, 56
1, 321261, Note_on_c, 0, 85, 0
1, 321261, Note_on_c, 0, 57, 0
1, 321327, Note_on_c, 0, 87, 74
1, 321327, Note_on_c, 0, 64, 56
1, 321341, Note_on_c, 0, 86, 0
1, 321341, Note_on_c, 0, 60, 0
1, 321414, Note_on_c, 0, 64, 0
1, 321414, Note_on_c, 0, 88, 76
1, 321414, Note_on_c, 0, 52, 61
1, 321426, Note_on_c, 0, 87, 0
1, 321486, Note_on_c, 0, 87, 74
1, 321486, Note_on_c, 0, 56, 56
1, 321498, Note_on_c, 0, 52, 0
1, 321498, Note_on_c, 0, 88, 0
1, 321557, Note_on_c, 0, 88, 74
1, 321557, Note_on_c, 0, 59, 56
1, 321569, Note_on_c, 0, 87, 0
1, 321569, Note_on_c, 0, 56, 0
1, 321628, Note_on_c, 0, 87, 71
1, 321628, Note_on_c, 0, 64, 56
1, 321640, Note_on_c, 0, 88, 0
1, 321640, Note_on_c, 0, 59, 0
1, 321700, Note_on_c, 0, 64, 0
1, 321700, Note_on_c, 0, 88, 73
1, 321700, Note_on_c, 0, 52, 61
1, 321711, Note_on_c, 0, 87, 0
1, 321771, Note_on_c, 0, 86, 73
1, 321771, Note_on_c, 0, 56, 56
1, 321782, Note_on_c, 0, 52, 0
1, 321782, Note_on_c, 0, 88, 0
1, 321841, Note_on_c, 0, 84, 72
1, 321841, Note_on_c, 0, 59, 56
1, 321853, Note_on_c, 0, 86, 0
1, 321853, Note_on_c, 0, 56, 0
1, 321912, Note_on_c, 0, 83, 71
1, 321912, Note_on_c, 0, 64, 56
1, 321924, Note_on_c, 0, 84, 0
1, 321924, Note_on_c, 0, 59, 0
1, 321983, Note_on_c, 0, 64, 0
1, 321983, Note_on_c, 0, 84, 73
1, 321983, Note_on_c, 0, 52, 61
1, 321995, Note_on_c, 0, 83, 0
1, 322053, Note_on_c, 0, 83, 72
1, 322053, Note_on_c, 0, 57, 56
1, 322065, Note_on_c, 0, 52, 0
1, 322065, Note_on_c, 0, 84, 0
1, 322124, Note_on_c, 0, 81, 70
1, 322124, Note_on_c, 0, 60, 56
1, 322135, Note_on_c, 0, 83, 0
1, 322135, Note_on_c, 0, 57, 0
1, 322194, Note_on_c, 0, 80, 71
1, 322194, Note_on_c, 0, 64, 56
1, 322206, Note_on_c, 0, 81, 0
1, 322206, Note_on_c, 0, 60, 0
1, 322265, Note_on_c, 0, 64, 0
1, 322265, Note_on_c, 0, 81, 71
1, 322265, Note_on_c, 0, 52, 62
1, 322276, Note_on_c, 0, 80, 0
1, 322335, Note_on_c, 0, 84, 74
1, 322335, Note_on_c, 0, 57, 56
1, 322346, Note_on_c, 0, 52, 0
1, 322346, Note_on_c, 0, 81, 0
1, 322405, Note_on_c, 0, 83, 71
1, 322405, Note_on_c, 0, 60, 56
1, 322417, Note_on_c, 0, 84, 0
1, 322417, Note_on_c, 0, 57, 0
1, 322475, Note_on_c, 0, 81, 71
1, 322475, Note_on_c, 0, 64, 56
1, 322487, Note_on_c, 0, 83, 0
1, 322487, Note_on_c, 0, 60, 0
1, 322545, Note_on_c, 0, 64, 0
1, 322545, Note_on_c, 0, 80, 71
1, 322545, Note_on_c, 0, 52, 61
1, 322557, Note_on_c, 0, 81, 0
1, 322615, Note_on_c, 0, 78, 70
1, 322615, Note_on_c, 0, 59, 56
1, 322627, Note_on_c, 0, 52, 0
1, 322627, Note_on_c, 0, 80, 0
1, 322685, Note_on_c, 0, 76, 69
1, 322685, Note_on_c, 0, 62, 56
1, 322697, Note_on_c, 0, 78, 0
1, 322697, Note_on_c, 0, 59, 0
1, 322755, Note_on_c, 0, 75, 68
1, 322755, Note_on_c, 0, 64, 56
1, 322767, Note_on_c, 0, 76, 0
1, 322767, Note_on_c, 0, 62, 0
1, 322825, Note_on_c, 0, 64, 0
1, 322825, Note_on_c, 0, 76, 70
1, 322825, Note_on_c, 0, 52, 61
1, 322837, Note_on_c, 0, 75, 0
1, 322895, Note_on_c, 0, 78, 71
1, 322895, Note_on_c, 0, 59, 57
1, 322907, Note_on_c, 0, 52, 0
1, 322907, Note_on_c, 0, 76, 0
1, 322965, Note_on_c, 0, 79, 71
1, 322965, Note_on_c, 0, 62, 57
1, 322977, Note_on_c, 0, 78, 0
1, 322977, Note_on_c, 0, 59, 0
1, 323035, Note_on_c, 0, 80, 73
1, 323035, Note_on_c, 0, 64, 57
1, 323047, Note_on_c, 0, 79, 0
1, 323047, Note_on_c, 0, 62, 0
1, 323105, Note_on_c, 0, 64, 0
1, 323105, Note_on_c, 0, 81, 73
1, 323105, Note_on_c, 0, 52, 63
1, 323117, Note_on_c, 0, 80, 0
1, 323175, Note_on_c, 0, 80, 73
1, 323175, Note_on_c, 0, 57, 57
1, 323187, Note_on_c, 0, 52, 0
1, 323187, Note_on_c, 0, 81, 0
1, 323245, Note_on_c, 0, 81, 75
1, 323245, Note_on_c, 0, 60, 58
1, 323257, Note_on_c, 0, 80, 0
1, 323257, Note_on_c, 0, 57, 0
1, 323315, Note_on_c, 0, 83, 75
1, 323315, Note_on_c, 0, 64, 58
1, 323327, Note_on_c, 0, 81, 0
1, 323327, Note_on_c, 0, 60, 0
1, 323385, Note_on_c, 0, 64, 0
1, 323385, Note_on_c, 0, 84, 77
1, 323385, Note_on_c, 0, 52, 63
1, 323397, Note_on_c, 0, 83, 0
1, 323455, Note_on_c, 0, 85, 79
1, 323455, Note_on_c, 0, 57, 58
1, 323467, Note_on_c, 0, 52, 0
1, 323467, Note_on_c, 0, 84, 0
1, 323525, Note_on_c, 0, 86, 81
1, 323525, Note_on_c, 0, 60, 58
1, 323537, Note_on_c, 0, 85, 0
1, 323537, Note_on_c, 0, 57, 0
1, 323599, Note_on_c, 0, 87, 83
1, 323599, Note_on_c, 0, 64, 59
1, 323611, Note_on_c, 0, 86, 0
1, 323611, Note_on_c, 0, 60, 0
1, 323672, Note_on_c, 0, 64, 0
1, 323672, Note_on_c, 0, 88, 89
1, 323672, Note_on_c, 0, 52, 65
1, 323672, Control_c, 0, 64, 0
1, 323684, Note_on_c, 0, 87, 0
1, 323709, Control_c, 0, 64, 127
1, 323742, Note_on_c, 0, 52, 0
1, 323742, Note_on_c, 0, 88, 0
1, 323742, Note_on_c, 0, 83, 81
1, 323745, Note_on_c, 0, 56, 59
1, 323812, Note_on_c, 0, 56, 0
1, 323812, Note_on_c, 0, 83, 0
1, 323812, Note_on_c, 0, 80, 82
1, 323815, Note_on_c, 0, 59, 59
1, 323882, Note_on_c, 0, 59, 0
1, 323882, Note_on_c, 0, 80, 0
1, 323882, Note_on_c, 0, 76, 82
1, 323885, Note_on_c, 0, 64, 59
1, 323952, Note_on_c, 0, 64, 0
1, 323952, Note_on_c, 0, 76, 0
1, 323952, Note_on_c, 0, 75, 96
1, 323955, Note_on_c, 0, 63, 71
1, 323955, Control_c, 0, 64, 0
1, 323972, Control_c, 0, 64, 127
1, 324022, Note_on_c, 0, 63, 0
1, 324022, Note_on_c, 0, 75, 0
1, 324022, Note_on_c, 0, 76, 84
1, 324025, Note_on_c, 0, 64, 62
1, 324092, Note_on_c, 0, 64, 0
1, 324092, Note_on_c, 0, 76, 0
1, 324092, Note_on_c, 0, 81, 84
1, 324095, Note_on_c, 0, 60, 61
1, 324162, Note_on_c, 0, 60, 0
1, 324162, Note_on_c, 0, 81, 0
1, 324162, Note_on_c, 0, 84, 84
1, 324165, Note_on_c, 0, 57, 62
1, 324232, Note_on_c, 0, 57, 0
1, 324232, Note_on_c, 0, 84, 0
1, 324232, Note_on_c, 0, 88, 95
1, 324235, Note_on_c, 0, 52, 73
1, 324235, Control_c, 0, 64, 0
1, 324246, Control_c, 0, 64, 127
1, 324302, Note_on_c, 0, 52, 0
1, 324302, Note_on_c, 0, 88, 0
1, 324302, Note_on_c, 0, 83, 86
1, 324305, Note_on_c, 0, 56, 65
1, 324372, Note_on_c, 0, 56, 0
1, 324372, Note_on_c, 0, 83, 0
1, 324372, Note_on_c, 0, 80, 89
1, 324375, Note_on_c, 0, 59, 66
1, 324442, Note_on_c, 0, 59, 0
1, 324442, Note_on_c, 0, 80, 0
1, 324442, Note_on_c, 0, 76, 89
1, 324445, Note_on_c, 0, 64, 66
1, 324512, Note_on_c, 0, 64, 0
1, 324512, Note_on_c, 0, 76, 0
1, 324512, Note_on_c, 0, 75, 101
1, 324515, Note_on_c, 0, 63, 81
1, 324515, Control_c, 0, 64, 0
1, 324562, Control_c, 0, 64, 127
1, 324582, Note_on_c, 0, 63, 0
1, 324582, Note_on_c, 0, 75, 0
1, 324582, Note_on_c, 0, 76, 92
1, 324585, Note_on_c, 0, 64, 72
1, 324652, Note_on_c, 0, 64, 0
1, 324652, Note_on_c, 0, 76, 0
1, 324652, Note_on_c, 0, 81, 92
1, 324655, Note_on_c, 0, 60, 72
1, 324722, Note_on_c, 0, 60, 0
1, 324722, Note_on_c, 0, 81, 0
1, 324722, Note_on_c, 0, 84, 93
1, 324725, Note_on_c, 0, 57, 73
1, 324792, Note_on_c, 0, 57, 0
1, 324792, Note_on_c, 0, 84, 0
1, 324792, Note_on_c, 0, 88, 112
1, 324795, Note_on_c, 0, 52, 84
1, 324795, Control_c, 0, 64, 0
1, 324842, Control_c, 0, 64, 127
1, 324862, Note_on_c, 0, 52, 0
1, 324862, Note_on_c, 0, 88, 0
1, 324862, Note_on_c, 0, 83, 103
1, 324865, Note_on_c, 0, 56, 73
1, 324932, Note_on_c, 0, 56, 0
1, 324932, Note_on_c, 0, 83, 0
1, 324932, Note_on_c, 0, 80, 103
1, 324935, Note_on_c, 0, 59, 73
1, 325002, Note_on_c, 0, 59, 0
1, 325002, Note_on_c, 0, 80, 0
1, 325002, Note_on_c, 0, 76, 103
1, 325005, Note_on_c, 0, 64, 73
1, 325072, Note_on_c, 0, 64, 0
1, 325072, Note_on_c, 0, 76, 0
1, 325072, Note_on_c, 0, 88, 112
1, 325075, Note_on_c, 0, 52, 84
1, 325075, Control_c, 0, 64, 0
1, 325099, Control_c, 0, 64, 127
1, 325142, Note_on_c, 0, 52, 0
1, 325142, Note_on_c, 0, 88, 0
1, 325142, Note_on_c, 0, 84, 103
1, 325145, Note_on_c, 0, 57, 73
1, 325212, Note_on_c, 0, 57, 0
1, 325212, Note_on_c, 0, 84, 0
1, 325212, Note_on_c, 0, 81, 103
1, 325215, Note_on_c, 0, 60, 73
1, 325282, Note_on_c, 0, 60, 0
1, 325282, Note_on_c, 0, 81, 0
1, 325282, Note_on_c, 0, 76, 103
1, 325285, Note_on_c, 0, 64, 73
1, 325352, Note_on_c, 0, 64, 0
1, 325352, Note_on_c, 0, 76, 0
1, 325352, Note_on_c, 0, 88, 112
1, 325355, Note_on_c, 0, 52, 84
1, 325355, Control_c, 0, 64, 0
1, 325382, Control_c, 0, 64, 127
1, 325422, Note_on_c, 0, 52, 0
1, 325422, Note_on_c, 0, 88, 0
1, 325422, Note_on_c, 0, 83, 103
1, 325425, Note_on_c, 0, 56, 73
1, 325492, Note_on_c, 0, 56, 0
1, 325492, Note_on_c, 0, 83, 0
1, 325492, Note_on_c, 0, 80, 102
1, 325495, Note_on_c, 0, 59, 73
1, 325562, Note_on_c, 0, 59, 0
1, 325562, Note_on_c, 0, 80, 0
1, 325562, Note_on_c, 0, 76, 102
1, 325565, Note_on_c, 0, 64, 73
1, 325632, Note_on_c, 0, 64, 0
1, 325632, Note_on_c, 0, 76, 0
1, 325632, Note_on_c, 0, 88, 112
1, 325635, Note_on_c, 0, 52, 84
1, 325635, Control_c, 0, 64, 0
1, 325655, Control_c, 0, 64, 127
1, 325702, Note_on_c, 0, 52, 0
1, 325702, Note_on_c, 0, 88, 0
1, 325702, Note_on_c, 0, 84, 102
1, 325705, Note_on_c, 0, 57, 73
1, 325772, Note_on_c, 0, 57, 0
1, 325772, Note_on_c, 0, 84, 0
1, 325772, Note_on_c, 0, 81, 102
1, 325775, Note_on_c, 0, 60, 73
1, 325842, Note_on_c, 0, 60, 0
1, 325842, Note_on_c, 0, 81, 0
1, 325842, Note_on_c, 0, 76, 103
1, 325845, Note_on_c, 0, 64, 73
1, 325912, Note_on_c, 0, 64, 0
1, 325912, Note_on_c, 0, 76, 0
1, 325912, Note_on_c, 0, 88, 112
1, 325915, Note_on_c, 0, 52, 75
1, 325915, Note_on_c, 0, 56, 75
1, 325915, Note_on_c, 0, 59, 75
1, 325918, Note_on_c, 0, 64, 84
1, 325918, Control_c, 0, 64, 0
1, 325942, Control_c, 0, 64, 127
1, 325982, Note_on_c, 0, 88, 0
1, 325982, Note_on_c, 0, 83, 103
1, 326052, Note_on_c, 0, 83, 0
1, 326052, Note_on_c, 0, 80, 103
1, 326123, Note_on_c, 0, 80, 0
1, 326123, Note_on_c, 0, 76, 103
1, 326193, Note_on_c, 0, 76, 0
1, 326193, Note_on_c, 0, 64, 0
1, 326193, Note_on_c, 0, 83, 112
1, 326196, Note_on_c, 0, 52, 0
1, 326196, Note_on_c, 0, 59, 0
1, 326196, Note_on_c, 0, 56, 0
1, 326263, Note_on_c, 0, 83, 0
1, 326263, Note_on_c, 0, 80, 103
1, 326333, Note_on_c, 0, 80, 0
1, 326333, Note_on_c, 0, 76, 103
1, 326404, Note_on_c, 0, 76, 0
1, 326404, Note_on_c, 0, 71, 103
1, 326474, Note_on_c, 0, 71, 0
1, 326474, Note_on_c, 0, 80, 112
1, 326545, Note_on_c, 0, 80, 0
1, 326545, Note_on_c, 0, 76, 103
1, 326615, Note_on_c, 0, 76, 0
1, 326615, Note_on_c, 0, 71, 102
1, 326686, Note_on_c, 0, 71, 0
1, 326686, Note_on_c, 0, 68, 102
1, 326756, Note_on_c, 0, 68, 0
1, 326756, Note_on_c, 0, 76, 112
1, 326827, Note_on_c, 0, 76, 0
1, 326827, Note_on_c, 0, 71, 102
1, 326898, Note_on_c, 0, 71, 0
1, 326898, Note_on_c, 0, 68, 102
1, 326969, Note_on_c, 0, 68, 0
1, 326969, Note_on_c, 0, 64, 103
1, 327039, Note_on_c, 0, 64, 0
1, 327039, Note_on_c, 0, 71, 112
1, 327042, Control_c, 0, 64, 0
1, 327086, Control_c, 0, 64, 127
1, 327110, Note_on_c, 0, 71, 0
1, 327110, Note_on_c, 0, 68, 102
1, 327180, Note_on_c, 0, 68, 0
1, 327180, Note_on_c, 0, 64, 101
1, 327250, Note_on_c, 0, 64, 0
1, 327250, Note_on_c, 0, 59, 101
1, 327321, Note_on_c, 0, 59, 0
1, 327321, Note_on_c, 0, 68, 110
1, 327391, Note_on_c, 0, 68, 0
1, 327391, Note_on_c, 0, 64, 100
1, 327462, Note_on_c, 0, 64, 0
1, 327462, Note_on_c, 0, 59, 100
1, 327532, Note_on_c, 0, 59, 0
1, 327532, Note_on_c, 0, 56, 99
1, 327603, Note_on_c, 0, 56, 0
1, 327603, Note_on_c, 0, 64, 108
1, 327674, Note_on_c, 0, 64, 0
1, 327674, Note_on_c, 0, 59, 99
1, 327745, Note_on_c, 0, 59, 0
1, 327745, Note_on_c, 0, 56, 98
1, 327816, Note_on_c, 0, 56, 0
1, 327816, Note_on_c, 0, 52, 98
1, 327888, Note_on_c, 0, 52, 0
1, 327888, Note_on_c, 0, 40, 106
1, 327959, Note_on_c, 0, 40, 0
1, 327959, Note_on_c, 0, 44, 97
1, 328030, Note_on_c, 0, 44, 0
1, 328030, Note_on_c, 0, 47, 97
1, 328105, Note_on_c, 0, 47, 0
1, 328105, Note_on_c, 0, 52, 96
1, 328180, Note_on_c, 0, 52, 0
1, 328180, Note_on_c, 0, 40, 98
1, 328180, Control_c, 0, 64, 0
1, 328250, Note_on_c, 0, 40, 0
1, 328320, Note_on_c, 0, 52, 89
1, 328391, Note_on_c, 0, 52, 0
1, 328463, Note_on_c, 0, 42, 94
1, 328533, Note_on_c, 0, 42, 0
1, 328603, Note_on_c, 0, 54, 87
1, 328674, Note_on_c, 0, 54, 0
1, 328746, Note_on_c, 0, 76, 96
1, 328746, Note_on_c, 0, 44, 92
1, 328816, Note_on_c, 0, 44, 0
1, 328816, Note_on_c, 0, 76, 0
1, 328886, Note_on_c, 0, 64, 90
1, 328886, Note_on_c, 0, 56, 86
1, 328957, Note_on_c, 0, 56, 0
1, 328957, Note_on_c, 0, 64, 0
1, 329029, Note_on_c, 0, 78, 95
1, 329099, Note_on_c, 0, 78, 0
1, 329170, Note_on_c, 0, 66, 86
1, 329245, Note_on_c, 0, 66, 0
1, 329320, Note_on_c, 0, 80, 92
1, 329320, Note_on_c, 0, 44, 90
1, 329391, Note_on_c, 0, 44, 0
1, 329391, Note_on_c, 0, 80, 0
1, 329461, Note_on_c, 0, 68, 85
1, 329461, Note_on_c, 0, 56, 82
1, 329533, Note_on_c, 0, 56, 0
1, 329533, Note_on_c, 0, 68, 0
1, 329605, Note_on_c, 0, 45, 86
1, 329676, Note_on_c, 0, 45, 0
1, 329747, Note_on_c, 0, 57, 80
1, 329819, Note_on_c, 0, 57, 0
1, 329891, Note_on_c, 0, 80, 88
1, 329891, Note_on_c, 0, 47, 86
1, 329962, Note_on_c, 0, 47, 0
1, 329962, Note_on_c, 0, 80, 0
1, 330034, Note_on_c, 0, 68, 74
1, 330034, Note_on_c, 0, 59, 75
1, 330106, Note_on_c, 0, 59, 0
1, 330106, Note_on_c, 0, 68, 0
1, 330178, Note_on_c, 0, 81, 80
1, 330251, Note_on_c, 0, 81, 0
1, 330324, Note_on_c, 0, 69, 71
1, 330397, Note_on_c, 0, 69, 0
1, 330470, Note_on_c, 0, 83, 73
1, 330542, Note_on_c, 0, 83, 0
1, 330613, Note_on_c, 0, 71, 70
1, 330685, Note_on_c, 0, 71, 0
1, 330758, Note_on_c, 0, 85, 73
1, 330831, Note_on_c, 0, 85, 0
1, 330904, Note_on_c, 0, 73, 70
1, 330977, Note_on_c, 0, 73, 0
1, 331050, Note_on_c, 0, 86, 73
1, 331050, Note_on_c, 0, 47, 62
1, 331123, Note_on_c, 0, 47, 0
1, 331123, Note_on_c, 0, 86, 0
1, 331197, Note_on_c, 0, 74, 69
1, 331197, Note_on_c, 0, 59, 57
1, 331270, Note_on_c, 0, 59, 0
1, 331270, Note_on_c, 0, 74, 0
1, 331343, Note_on_c, 0, 86, 73
1, 331343, Note_on_c, 0, 49, 62
1, 331416, Note_on_c, 0, 49, 0
1, 331416, Note_on_c, 0, 86, 0
1, 331490, Note_on_c, 0, 76, 67
1, 331490, Note_on_c, 0, 61, 57
1, 331563, Note_on_c, 0, 61, 0
1, 331563, Note_on_c, 0, 76, 0
1, 331636, Note_on_c, 0, 86, 72
1, 331636, Note_on_c, 0, 50, 61
1, 331710, Note_on_c, 0, 50, 0
1, 331710, Note_on_c, 0, 86, 0
1, 331784, Note_on_c, 0, 78, 67
1, 331784, Note_on_c, 0, 62, 58
1, 331858, Note_on_c, 0, 62, 0
1, 331858, Note_on_c, 0, 78, 0
1, 331932, Note_on_c, 0, 86, 72
1, 331932, Note_on_c, 0, 52, 60
1, 332006, Note_on_c, 0, 52, 0
1, 332006, Note_on_c, 0, 86, 0
1, 332081, Note_on_c, 0, 80, 67
1, 332081, Note_on_c, 0, 64, 57
1, 332156, Note_on_c, 0, 64, 0
1, 332156, Note_on_c, 0, 80, 0
1, 332230, Note_on_c, 0, 86, 72
1, 332230, Note_on_c, 0, 54, 59
1, 332305, Note_on_c, 0, 54, 0
1, 332305, Note_on_c, 0, 86, 0
1, 332380, Note_on_c, 0, 81, 68
1, 332380, Note_on_c, 0, 66, 58
1, 332456, Note_on_c, 0, 66, 0
1, 332456, Note_on_c, 0, 81, 0
1, 332534, Note_on_c, 0, 86, 71
1, 332534, Note_on_c, 0, 56, 61
1, 332615, Note_on_c, 0, 56, 0
1, 332615, Note_on_c, 0, 86, 0
1, 332701, Note_on_c, 0, 83, 67
1, 332701, Note_on_c, 0, 68, 58
1, 332793, Note_on_c, 0, 68, 0
1, 332793, Note_on_c, 0, 83, 0
1, 332893, Note_on_c, 0, 73, 63
1, 332893, Note_on_c, 0, 76, 63
1, 332893, Note_on_c, 0, 81, 63
1, 332896, Note_on_c, 0, 85, 76
1, 332896, Note_on_c, 0, 64, 54
1, 332896, Note_on_c, 0, 61, 54
1, 332899, Note_on_c, 0, 69, 60
1, 332899, Note_on_c, 0, 57, 54
1, 333553, Note_on_c, 0, 85, 0
1, 333553, Note_on_c, 0, 76, 0
1, 333553, Note_on_c, 0, 73, 0
1, 333556, Note_on_c, 0, 81, 0
1, 333556, Note_on_c, 0, 71, 61
1, 333556, Note_on_c, 0, 76, 61
1, 333559, Note_on_c, 0, 57, 0
1, 333559, Note_on_c, 0, 80, 61
1, 333559, Note_on_c, 0, 83, 73
1, 333562, Note_on_c, 0, 64, 0
1, 333562, Note_on_c, 0, 69, 0
1, 333562, Note_on_c, 0, 61, 0
1, 333565, Note_on_c, 0, 59, 50
1, 333565, Note_on_c, 0, 64, 56
1, 333565, Note_on_c, 0, 56, 50
1, 333568, Note_on_c, 0, 52, 50
1, 333875, Note_on_c, 0, 71, 0
1, 333875, Note_on_c, 0, 83, 0
1, 333875, Note_on_c, 0, 76, 0
1, 333878, Note_on_c, 0, 80, 0
1, 333878, Note_on_c, 0, 69, 61
1, 333878, Note_on_c, 0, 73, 61
1, 333881, Note_on_c, 0, 52, 0
1, 333881, Note_on_c, 0, 78, 61
1, 333881, Note_on_c, 0, 81, 73
1, 333884, Note_on_c, 0, 59, 0
1, 333884, Note_on_c, 0, 56, 0
1, 333884, Note_on_c, 0, 64, 0
1, 333887, Note_on_c, 0, 57, 50
1, 333887, Note_on_c, 0, 61, 50
1, 333887, Note_on_c, 0, 66, 56
1, 333890, Note_on_c, 0, 54, 50
1, 334227, Note_on_c, 0, 69, 0
1, 334227, Note_on_c, 0, 81, 0
1, 334227, Note_on_c, 0, 73, 0
1, 334230, Note_on_c, 0, 78, 0
1, 334230, Note_on_c, 0, 68, 63
1, 334230, Note_on_c, 0, 71, 63
1, 334233, Note_on_c, 0, 54, 0
1, 334233, Note_on_c, 0, 77, 63
1, 334233, Note_on_c, 0, 80, 76
1, 334236, Note_on_c, 0, 57, 0
1, 334236, Note_on_c, 0, 66, 0
1, 334236, Note_on_c, 0, 61, 0
1, 334239, Note_on_c, 0, 49, 54
1, 334239, Note_on_c, 0, 61, 60
1, 334239, Note_on_c, 0, 56, 54
1, 334242, Note_on_c, 0, 53, 54
1, 334893, Note_on_c, 0, 68, 0
1, 334893, Note_on_c, 0, 80, 0
1, 334893, Note_on_c, 0, 71, 0
1, 334896, Note_on_c, 0, 77, 0
1, 334896, Note_on_c, 0, 74, 61
1, 334896, Note_on_c, 0, 66, 61
1, 334899, Note_on_c, 0, 53, 0
1, 334899, Note_on_c, 0, 69, 61
1, 334899, Note_on_c, 0, 78, 73
1, 334902, Note_on_c, 0, 49, 0
1, 334902, Note_on_c, 0, 56, 0
1, 334902, Note_on_c, 0, 61, 0
1, 334905, Note_on_c, 0, 54, 49
1, 334905, Note_on_c, 0, 50, 49
1, 334905, Note_on_c, 0, 62, 55
1, 334908, Note_on_c, 0, 57, 49
1, 335572, Note_on_c, 0, 74, 0
1, 335572, Note_on_c, 0, 78, 0
1, 335572, Note_on_c, 0, 66, 0
1, 335575, Note_on_c, 0, 69, 0
1, 335575, Note_on_c, 0, 68, 70
1, 335575, Note_on_c, 0, 74, 70
1, 335578, Note_on_c, 0, 57, 0
1, 335578, Note_on_c, 0, 76, 70
1, 335578, Note_on_c, 0, 80, 84
1, 335581, Note_on_c, 0, 54, 0
1, 335581, Note_on_c, 0, 62, 0
1, 335581, Note_on_c, 0, 50, 0
1, 335584, Note_on_c, 0, 47, 58
1, 335584, Note_on_c, 0, 52, 66
1, 335584, Note_on_c, 0, 56, 58
1, 335587, Note_on_c, 0, 59, 66
1, 336248, Note_on_c, 0, 68, 0
1, 336248, Note_on_c, 0, 80, 0
1, 336248, Note_on_c, 0, 74, 0
1, 336251, Note_on_c, 0, 76, 0
1, 336251, Note_on_c, 0, 69, 71
1, 336251, Note_on_c, 0, 76, 71
1, 336254, Note_on_c, 0, 47, 0
1, 336254, Note_on_c, 0, 59, 0
1, 336254, Note_on_c, 0, 81, 87
1, 336257, Note_on_c, 0, 56, 0
1, 336257, Note_on_c, 0, 52, 0
1, 336257, Note_on_c, 0, 57, 61
1, 336260, Note_on_c, 0, 49, 61
1, 336260, Note_on_c, 0, 52, 61
1, 336260, Note_on_c, 0, 61, 70
1, 336599, Note_on_c, 0, 76, 0
1, 336599, Note_on_c, 0, 81, 0
1, 336599, Note_on_c, 0, 69, 0
1, 336602, Note_on_c, 0, 71, 76
1, 336602, Note_on_c, 0, 78, 76
1, 336602, Note_on_c, 0, 81, 76
1, 336605, Note_on_c, 0, 61, 0
1, 336605, Note_on_c, 0, 57, 0
1, 336605, Note_on_c, 0, 83, 93
1, 336608, Note_on_c, 0, 49, 0
1, 336608, Note_on_c, 0, 52, 0
1, 336608, Note_on_c, 0, 59, 67
1, 336611, Note_on_c, 0, 62, 76
1, 336611, Note_on_c, 0, 50, 57
1, 336611, Note_on_c, 0, 54, 62
1, 336979, Note_on_c, 0, 71, 0
1, 336979, Note_on_c, 0, 78, 0
1, 336979, Note_on_c, 0, 83, 0
1, 336982, Note_on_c, 0, 81, 0
1, 336982, Note_on_c, 0, 73, 80
1, 336982, Note_on_c, 0, 76, 80
1, 336985, Note_on_c, 0, 54, 0
1, 336985, Note_on_c, 0, 81, 80
1, 336985, Note_on_c, 0, 85, 98
1, 336988, Note_on_c, 0, 59, 0
1, 336988, Note_on_c, 0, 62, 0
1, 336988, Note_on_c, 0, 50, 0
1, 336991, Note_on_c, 0, 61, 70
1, 336991, Note_on_c, 0, 52, 70
1, 336991, Note_on_c, 0, 57, 70
1, 336994, Note_on_c, 0, 64, 80
1, 337652, Note_on_c, 0, 73, 0
1, 337652, Note_on_c, 0, 85, 0
1, 337652, Note_on_c, 0, 81, 0
1, 337655, Note_on_c, 0, 71, 54
1, 337655, Note_on_c, 0, 80, 53
1, 337655, Note_on_c, 0, 83, 70
1, 337658, Note_on_c, 0, 64, 0
1, 337658, Note_on_c, 0, 61, 0
1, 337658, Note_on_c, 0, 57, 0
1, 337661, Note_on_c, 0, 59, 48
1, 337661, Note_on_c, 0, 56, 48
1, 337661, Note_on_c, 0, 64, 53
1, 338001, Note_on_c, 0, 76, 0
1, 338001, Note_on_c, 0, 74, 76
1, 338349, Note_on_c, 0, 74, 0
1, 338349, Note_on_c, 0, 71, 0
1, 338349, Note_on_c, 0, 59, 0
1, 338349, Note_on_c, 0, 80, 0
1, 338349, Note_on_c, 0, 52, 0
1, 338349, Note_on_c, 0, 64, 0
1, 338349, Note_on_c, 0, 56, 0
1, 338349, Note_on_c, 0, 83, 0
1, 338349, Note_on_c, 0, 64, 58
1, 338349, Note_on_c, 0, 69, 58
1, 338349, Note_on_c, 0, 72, 66
1, 338349, Note_on_c, 0, 60, 56
1, 338349, Note_on_c, 0, 57, 50
1, 339009, Note_on_c, 0, 72, 0
1, 339009, Note_on_c, 0, 64, 0
1, 339009, Note_on_c, 0, 69, 0
1, 339012, Note_on_c, 0, 64, 57
1, 339012, Note_on_c, 0, 67, 57
1, 339012, Note_on_c, 0, 71, 64
1, 339015, Note_on_c, 0, 60, 0
1, 339015, Note_on_c, 0, 57, 0
1, 339015, Note_on_c, 0, 59, 52
1, 339018, Note_on_c, 0, 55, 47
1, 339018, Note_on_c, 0, 52, 47
1, 339331, Note_on_c, 0, 67, 0
1, 339331, Note_on_c, 0, 71, 0
1, 339331, Note_on_c, 0, 64, 0
1, 339334, Note_on_c, 0, 60, 57
1, 339334, Note_on_c, 0, 65, 57
1, 339334, Note_on_c, 0, 69, 64
1, 339337, Note_on_c, 0, 59, 0
1, 339337, Note_on_c, 0, 52, 0
1, 339337, Note_on_c, 0, 55, 0
1, 339340, Note_on_c, 0, 57, 52
1, 339340, Note_on_c, 0, 53, 47
1, 339672, Note_on_c, 0, 60, 0
1, 339672, Note_on_c, 0, 69, 0
1, 339672, Note_on_c, 0, 65, 0
1, 339675, Note_on_c, 0, 60, 58
1, 339675, Note_on_c, 0, 64, 58
1, 339675, Note_on_c, 0, 67, 66
1, 339678, Note_on_c, 0, 57, 0
1, 339678, Note_on_c, 0, 53, 0
1, 339678, Note_on_c, 0, 55, 56
1, 339681, Note_on_c, 0, 52, 50
1, 339681, Note_on_c, 0, 48, 50
1, 340334, Note_on_c, 0, 64, 0
1, 340334, Note_on_c, 0, 67, 0
1, 340334, Note_on_c, 0, 60, 0
1, 340337, Note_on_c, 0, 62, 57
1, 340337, Note_on_c, 0, 57, 57
1, 340337, Note_on_c, 0, 65, 64
1, 340340, Note_on_c, 0, 55, 0
1, 340340, Note_on_c, 0, 48, 0
1, 340340, Note_on_c, 0, 52, 0
1, 340343, Note_on_c, 0, 53, 51
1, 340343, Note_on_c, 0, 50, 46
1, 341011, Note_on_c, 0, 62, 0
1, 341011, Note_on_c, 0, 65, 0
1, 341011, Note_on_c, 0, 57, 0
1, 341014, Note_on_c, 0, 60, 65
1, 341014, Note_on_c, 0, 64, 65
1, 341014, Note_on_c, 0, 67, 73
1, 341017, Note_on_c, 0, 53, 0
1, 341017, Note_on_c, 0, 50, 0
1, 341017, Note_on_c, 0, 48, 56
1, 341020, Note_on_c, 0, 52, 56
1, 341020, Note_on_c, 0, 43, 47
1, 341345, Note_on_c, 0, 64, 0
1, 341345, Note_on_c, 0, 60, 0
1, 341345, Note_on_c, 0, 62, 66
1, 341348, Note_on_c, 0, 48, 0
1, 341348, Note_on_c, 0, 52, 0
1, 341348, Note_on_c, 0, 65, 66
1, 341351, Note_on_c, 0, 50, 56
1, 341351, Note_on_c, 0, 53, 56
1, 341678, Note_on_c, 0, 67, 0
1, 341678, Note_on_c, 0, 69, 82
1, 342004, Note_on_c, 0, 69, 0
1, 342004, Note_on_c, 0, 71, 90
1, 342349, Note_on_c, 0, 71, 0
1, 342349, Note_on_c, 0, 65, 0
1, 342349, Note_on_c, 0, 62, 0
1, 342352, Note_on_c, 0, 60, 62
1, 342352, Note_on_c, 0, 64, 62
1, 342352, Note_on_c, 0, 72, 72
1, 342355, Note_on_c, 0, 43, 0
1, 342355, Note_on_c, 0, 53, 0
1, 342355, Note_on_c, 0, 50, 0
1, 342358, Note_on_c, 0, 48, 58
1, 342358, Note_on_c, 0, 52, 61
1, 342433, Note_on_c, 0, 72, 0
1, 342461, Note_on_c, 0, 60, 0
1, 342461, Note_on_c, 0, 64, 0
1, 342461, Note_on_c, 0, 74, 69
1, 342546, Note_on_c, 0, 74, 0
1, 342574, Note_on_c, 0, 76, 70
1, 342659, Note_on_c, 0, 76, 0
1, 342687, Note_on_c, 0, 48, 0
1, 342687, Note_on_c, 0, 52, 0
1, 342687, Note_on_c, 0, 77, 71
1, 342771, Note_on_c, 0, 77, 0
1, 342799, Note_on_c, 0, 79, 71
1, 342882, Note_on_c, 0, 79, 0
1, 342910, Note_on_c, 0, 81, 72
1, 342994, Note_on_c, 0, 81, 0
1, 343021, Note_on_c, 0, 82, 73
1, 343105, Note_on_c, 0, 82, 0
1, 343132, Note_on_c, 0, 83, 69
1, 343215, Note_on_c, 0, 83, 0
1, 343243, Note_on_c, 0, 84, 70
1, 343325, Note_on_c, 0, 84, 0
1, 343353, Note_on_c, 0, 85, 72
1, 343435, Note_on_c, 0, 85, 0
1, 343462, Note_on_c, 0, 86, 74
1, 343544, Note_on_c, 0, 86, 0
1, 343572, Note_on_c, 0, 87, 75
1, 343654, Note_on_c, 0, 87, 0
1, 343681, Note_on_c, 0, 84, 69
1, 343681, Note_on_c, 0, 88, 79
1, 343681, Note_on_c, 0, 76, 65
1, 343684, Note_on_c, 0, 72, 58
1, 343789, Note_on_c, 0, 88, 0
1, 343789, Note_on_c, 0, 87, 74
1, 343897, Note_on_c, 0, 87, 0
1, 343897, Note_on_c, 0, 88, 74
1, 344006, Note_on_c, 0, 88, 0
1, 344006, Note_on_c, 0, 89, 74
1, 344114, Note_on_c, 0, 89, 0
1, 344114, Note_on_c, 0, 87, 74
1, 344223, Note_on_c, 0, 87, 0
1, 344223, Note_on_c, 0, 88, 74
1, 344331, Note_on_c, 0, 88, 0
1, 344331, Note_on_c, 0, 84, 0
1, 344331, Note_on_c, 0, 83, 81
1, 344334, Note_on_c, 0, 76, 0
1, 344334, Note_on_c, 0, 72, 0
1, 344334, Note_on_c, 0, 77, 61
1, 344337, Note_on_c, 0, 74, 61
1, 344337, Note_on_c, 0, 71, 54
1, 344337, Note_on_c, 0, 68, 54
1, 344437, Note_on_c, 0, 88, 75
1, 344543, Note_on_c, 0, 88, 0
1, 344543, Note_on_c, 0, 86, 75
1, 344649, Note_on_c, 0, 86, 0
1, 344649, Note_on_c, 0, 83, 0
1, 344649, Note_on_c, 0, 76, 81
1, 344652, Note_on_c, 0, 77, 0
1, 344652, Note_on_c, 0, 68, 0
1, 344652, Note_on_c, 0, 74, 0
1, 344655, Note_on_c, 0, 71, 0
1, 344655, Note_on_c, 0, 76, 61
1, 344655, Note_on_c, 0, 72, 61
1, 344658, Note_on_c, 0, 69, 54
1, 344761, Note_on_c, 0, 86, 74
1, 344873, Note_on_c, 0, 86, 0
1, 344873, Note_on_c, 0, 84, 74
1, 344985, Note_on_c, 0, 84, 0
1, 344985, Note_on_c, 0, 76, 0
1, 344985, Note_on_c, 0, 80, 81
1, 344988, Note_on_c, 0, 76, 0
1, 344988, Note_on_c, 0, 69, 0
1, 344988, Note_on_c, 0, 72, 0
1, 344991, Note_on_c, 0, 74, 65
1, 344991, Note_on_c, 0, 71, 65
1, 344991, Note_on_c, 0, 68, 58
1, 344994, Note_on_c, 0, 64, 58
1, 345094, Note_on_c, 0, 82, 75
1, 345203, Note_on_c, 0, 82, 0
1, 345203, Note_on_c, 0, 83, 75
1, 345312, Note_on_c, 0, 83, 0
1, 345312, Note_on_c, 0, 84, 75
1, 345420, Note_on_c, 0, 84, 0
1, 345420, Note_on_c, 0, 82, 75
1, 345529, Note_on_c, 0, 82, 0
1, 345529, Note_on_c, 0, 83, 75
1, 345638, Note_on_c, 0, 83, 0
1, 345638, Note_on_c, 0, 80, 0
1, 345638, Note_on_c, 0, 77, 81
1, 345641, Note_on_c, 0, 74, 0
1, 345641, Note_on_c, 0, 64, 0
1, 345641, Note_on_c, 0, 71, 0
1, 345644, Note_on_c, 0, 68, 0
1, 345644, Note_on_c, 0, 72, 60
1, 345644, Note_on_c, 0, 69, 60
1, 345647, Note_on_c, 0, 65, 53
1, 345747, Note_on_c, 0, 80, 75
1, 345855, Note_on_c, 0, 80, 0
1, 345855, Note_on_c, 0, 81, 75
1, 345964, Note_on_c, 0, 81, 0
1, 345964, Note_on_c, 0, 83, 75
1, 346078, Note_on_c, 0, 83, 0
1, 346078, Note_on_c, 0, 80, 75
1, 346192, Note_on_c, 0, 80, 0
1, 346192, Note_on_c, 0, 81, 75
1, 346306, Note_on_c, 0, 81, 0
1, 346306, Note_on_c, 0, 77, 0
1, 346306, Note_on_c, 0, 77, 83
1, 346309, Note_on_c, 0, 72, 0
1, 346309, Note_on_c, 0, 65, 0
1, 346309, Note_on_c, 0, 69, 0
1, 346312, Note_on_c, 0, 62, 60
1, 346312, Note_on_c, 0, 65, 68
1, 346312, Note_on_c, 0, 67, 60
1, 346315, Note_on_c, 0, 71, 68
1, 346415, Note_on_c, 0, 82, 83
1, 346525, Note_on_c, 0, 82, 0
1, 346525, Note_on_c, 0, 83, 78
1, 346635, Note_on_c, 0, 83, 0
1, 346635, Note_on_c, 0, 84, 78
1, 346744, Note_on_c, 0, 84, 0
1, 346744, Note_on_c, 0, 82, 80
1, 346854, Note_on_c, 0, 82, 0
1, 346854, Note_on_c, 0, 83, 80
1, 346963, Note_on_c, 0, 83, 0
1, 346963, Note_on_c, 0, 77, 0
1, 346963, Note_on_c, 0, 79, 92
1, 346966, Note_on_c, 0, 62, 0
1, 346966, Note_on_c, 0, 71, 0
1, 346966, Note_on_c, 0, 65, 0
1, 346969, Note_on_c, 0, 67, 0
1, 346969, Note_on_c, 0, 64, 66
1, 346969, Note_on_c, 0, 67, 66
1, 346972, Note_on_c, 0, 72, 74
1, 347071, Note_on_c, 0, 86, 84
1, 347178, Note_on_c, 0, 86, 0
1, 347178, Note_on_c, 0, 84, 85
1, 347285, Note_on_c, 0, 84, 0
1, 347285, Note_on_c, 0, 79, 0
1, 347285, Note_on_c, 0, 81, 95
1, 347288, Note_on_c, 0, 64, 0
1, 347288, Note_on_c, 0, 72, 0
1, 347288, Note_on_c, 0, 67, 0
1, 347291, Note_on_c, 0, 72, 77
1, 347291, Note_on_c, 0, 74, 78
1, 347291, Note_on_c, 0, 65, 66
1, 347294, Note_on_c, 0, 69, 69
1, 347398, Note_on_c, 0, 88, 86
1, 347512, Note_on_c, 0, 88, 0
1, 347512, Note_on_c, 0, 86, 86
1, 347625, Note_on_c, 0, 86, 0
1, 347625, Note_on_c, 0, 81, 0
1, 347625, Note_on_c, 0, 88, 100
1, 347628, Note_on_c, 0, 72, 0
1, 347628, Note_on_c, 0, 69, 0
1, 347628, Note_on_c, 0, 84, 100
1, 347631, Note_on_c, 0, 65, 0
1, 347631, Note_on_c, 0, 74, 0
1, 347631, Note_on_c, 0, 67, 74
1, 347634, Note_on_c, 0, 72, 74
1, 347634, Note_on_c, 0, 76, 86
1, 347734, Note_on_c, 0, 88, 0
1, 347734, Note_on_c, 0, 87, 93
1, 347843, Note_on_c, 0, 87, 0
1, 347843, Note_on_c, 0, 88, 93
1, 347952, Note_on_c, 0, 88, 0
1, 347952, Note_on_c, 0, 91, 89
1, 348060, Note_on_c, 0, 91, 0
1, 348060, Note_on_c, 0, 89, 93
1, 348169, Note_on_c, 0, 89, 0
1, 348169, Note_on_c, 0, 88, 90
1, 348278, Note_on_c, 0, 88, 0
1, 348278, Note_on_c, 0, 84, 0
1, 348278, Note_on_c, 0, 83, 88
1, 348281, Note_on_c, 0, 72, 0
1, 348281, Note_on_c, 0, 76, 0
1, 348281, Note_on_c, 0, 86, 88
1, 348284, Note_on_c, 0, 71, 66
1, 348284, Note_on_c, 0, 74, 74
1, 348388, Note_on_c, 0, 86, 0
1, 348388, Note_on_c, 0, 83, 0
1, 348388, Note_on_c, 0, 81, 85
1, 348391, Note_on_c, 0, 84, 85
1, 348498, Note_on_c, 0, 84, 0
1, 348498, Note_on_c, 0, 81, 0
1, 348498, Note_on_c, 0, 83, 81
1, 348501, Note_on_c, 0, 79, 81
1, 348608, Note_on_c, 0, 79, 0
1, 348608, Note_on_c, 0, 83, 0
1, 348608, Note_on_c, 0, 77, 81
1, 348611, Note_on_c, 0, 74, 0
1, 348611, Note_on_c, 0, 71, 0
1, 348611, Note_on_c, 0, 81, 81
1, 348614, Note_on_c, 0, 67, 0
1, 348614, Note_on_c, 0, 55, 65
1, 348723, Note_on_c, 0, 81, 0
1, 348723, Note_on_c, 0, 77, 0
1, 348723, Note_on_c, 0, 76, 77
1, 348726, Note_on_c, 0, 55, 0
1, 348726, Note_on_c, 0, 79, 77
1, 348726, Note_on_c, 0, 57, 64
1, 348837, Note_on_c, 0, 79, 0
1, 348837, Note_on_c, 0, 76, 0
1, 348837, Note_on_c, 0, 74, 74
1, 348840, Note_on_c, 0, 57, 0
1, 348840, Note_on_c, 0, 77, 74
1, 348840, Note_on_c, 0, 59, 62
1, 348952, Note_on_c, 0, 77, 0
1, 348952, Note_on_c, 0, 74, 0
1, 348952, Note_on_c, 0, 67, 78
1, 348955, Note_on_c, 0, 59, 0
1, 348955, Note_on_c, 0, 76, 78
1, 348955, Note_on_c, 0, 64, 66
1, 348958, Note_on_c, 0, 60, 58
1, 349061, Note_on_c, 0, 76, 0
1, 349061, Note_on_c, 0, 75, 70
1, 349169, Note_on_c, 0, 75, 0
1, 349169, Note_on_c, 0, 76, 70
1, 349277, Note_on_c, 0, 76, 0
1, 349277, Note_on_c, 0, 77, 70
1, 349386, Note_on_c, 0, 77, 0
1, 349386, Note_on_c, 0, 75, 70
1, 349494, Note_on_c, 0, 75, 0
1, 349494, Note_on_c, 0, 76, 70
1, 349602, Note_on_c, 0, 76, 0
1, 349602, Note_on_c, 0, 67, 0
1, 349602, Note_on_c, 0, 65, 77
1, 349605, Note_on_c, 0, 64, 0
1, 349605, Note_on_c, 0, 60, 0
1, 349605, Note_on_c, 0, 62, 62
1, 349608, Note_on_c, 0, 59, 54
1, 349608, Note_on_c, 0, 56, 54
1, 349708, Note_on_c, 0, 76, 71
1, 349814, Note_on_c, 0, 76, 0
1, 349814, Note_on_c, 0, 74, 71
1, 349920, Note_on_c, 0, 74, 0
1, 349920, Note_on_c, 0, 65, 0
1, 349920, Note_on_c, 0, 64, 77
1, 349923, Note_on_c, 0, 62, 0
1, 349923, Note_on_c, 0, 56, 0
1, 349923, Note_on_c, 0, 59, 0
1, 349926, Note_on_c, 0, 60, 62
1, 349926, Note_on_c, 0, 57, 54
1, 350032, Note_on_c, 0, 74, 70
1, 350145, Note_on_c, 0, 74, 0
1, 350145, Note_on_c, 0, 72, 70
1, 350257, Note_on_c, 0, 72, 0
1, 350257, Note_on_c, 0, 57, 0
1, 350257, Note_on_c, 0, 64, 0
1, 350260, Note_on_c, 0, 60, 0
1, 350260, Note_on_c, 0, 59, 58
1, 350260, Note_on_c, 0, 62, 77
1, 350263, Note_on_c, 0, 56, 58
1, 350263, Note_on_c, 0, 52, 58
1, 350366, Note_on_c, 0, 70, 71
1, 350474, Note_on_c, 0, 70, 0
1, 350474, Note_on_c, 0, 71, 71
1, 350583, Note_on_c, 0, 71, 0
1, 350583, Note_on_c, 0, 72, 74
1, 350692, Note_on_c, 0, 72, 0
1, 350692, Note_on_c, 0, 70, 71
1, 350801, Note_on_c, 0, 70, 0
1, 350801, Note_on_c, 0, 71, 71
1, 350909, Note_on_c, 0, 71, 0
1, 350909, Note_on_c, 0, 59, 0
1, 350909, Note_on_c, 0, 52, 0
1, 350912, Note_on_c, 0, 56, 0
1, 350912, Note_on_c, 0, 62, 0
1, 350912, Note_on_c, 0, 53, 60
1, 350915, Note_on_c, 0, 57, 60
1, 350915, Note_on_c, 0, 60, 53
1, 351018, Note_on_c, 0, 65, 71
1, 351127, Note_on_c, 0, 65, 0
1, 351127, Note_on_c, 0, 68, 71
1, 351236, Note_on_c, 0, 68, 0
1, 351236, Note_on_c, 0, 69, 74
1, 351350, Note_on_c, 0, 69, 0
1, 351350, Note_on_c, 0, 68, 71
1, 351463, Note_on_c, 0, 68, 0
1, 351463, Note_on_c, 0, 69, 71
1, 351577, Note_on_c, 0, 69, 0
1, 351577, Note_on_c, 0, 60, 0
1, 351577, Note_on_c, 0, 60, 81
1, 351580, Note_on_c, 0, 57, 0
1, 351580, Note_on_c, 0, 53, 0
1, 351580, Note_on_c, 0, 48, 73
1, 351583, Note_on_c, 0, 43, 67
1, 351583, Note_on_c, 0, 52, 76
1, 351611, Control_c, 0, 64, 127
1, 351687, Note_on_c, 0, 60, 0
1, 351687, Note_on_c, 0, 64, 77
1, 351797, Note_on_c, 0, 64, 0
1, 351797, Note_on_c, 0, 67, 78
1, 351912, Note_on_c, 0, 67, 0
1, 351912, Note_on_c, 0, 52, 0
1, 351912, Note_on_c, 0, 62, 87
1, 351915, Note_on_c, 0, 48, 0
1, 351915, Note_on_c, 0, 50, 76
1, 351915, Note_on_c, 0, 53, 79
1, 351918, Control_c, 0, 64, 0
1, 351971, Control_c, 0, 64, 127
1, 352023, Note_on_c, 0, 62, 0
1, 352023, Note_on_c, 0, 65, 82
1, 352134, Note_on_c, 0, 65, 0
1, 352134, Note_on_c, 0, 67, 82
1, 352253, Note_on_c, 0, 67, 0
1, 352253, Note_on_c, 0, 62, 95
1, 352253, Control_c, 0, 64, 0
1, 352313, Control_c, 0, 64, 127
1, 352366, Note_on_c, 0, 62, 0
1, 352366, Note_on_c, 0, 65, 88
1, 352478, Note_on_c, 0, 65, 0
1, 352478, Note_on_c, 0, 69, 86
1, 352594, Note_on_c, 0, 69, 0
1, 352594, Note_on_c, 0, 62, 101
1, 352594, Control_c, 0, 64, 0
1, 352659, Control_c, 0, 64, 127
1, 352706, Note_on_c, 0, 62, 0
1, 352706, Note_on_c, 0, 65, 92
1, 352819, Note_on_c, 0, 65, 0
1, 352819, Note_on_c, 0, 71, 91
1, 352935, Note_on_c, 0, 71, 0
1, 352935, Note_on_c, 0, 64, 98
1, 352935, Note_on_c, 0, 72, 103
1, 352938, Note_on_c, 0, 43, 0
1, 352938, Note_on_c, 0, 53, 0
1, 352938, Note_on_c, 0, 50, 0
1, 352941, Note_on_c, 0, 36, 71
1, 352941, Note_on_c, 0, 48, 81
1, 352941, Control_c, 0, 64, 0
1, 352995, Control_c, 0, 64, 127
1, 353044, Note_on_c, 0, 64, 0
1, 353044, Note_on_c, 0, 72, 0
1, 353044, Note_on_c, 0, 55, 96
1, 353153, Note_on_c, 0, 55, 0
1, 353153, Note_on_c, 0, 52, 98
1, 353262, Note_on_c, 0, 52, 0
1, 353262, Note_on_c, 0, 48, 0
1, 353262, Note_on_c, 0, 55, 103
1, 353265, Note_on_c, 0, 36, 0
1, 353265, Note_on_c, 0, 43, 81
1, 353372, Note_on_c, 0, 55, 0
1, 353372, Note_on_c, 0, 60, 98
1, 353481, Note_on_c, 0, 60, 0
1, 353481, Note_on_c, 0, 64, 98
1, 353593, Note_on_c, 0, 64, 0
1, 353593, Note_on_c, 0, 62, 103
1, 353593, Control_c, 0, 64, 0
1, 353629, Control_c, 0, 64, 127
1, 353702, Note_on_c, 0, 62, 0
1, 353702, Note_on_c, 0, 59, 98
1, 353810, Note_on_c, 0, 59, 0
1, 353810, Note_on_c, 0, 55, 98
1, 353919, Note_on_c, 0, 55, 0
1, 353919, Note_on_c, 0, 43, 0
1, 353919, Note_on_c, 0, 59, 103
1, 353922, Note_on_c, 0, 43, 81
1, 354028, Note_on_c, 0, 59, 0
1, 354028, Note_on_c, 0, 62, 98
1, 354137, Note_on_c, 0, 62, 0
1, 354137, Note_on_c, 0, 65, 98
1, 354249, Note_on_c, 0, 65, 0
1, 354249, Note_on_c, 0, 64, 103
1, 354249, Control_c, 0, 64, 0
1, 354277, Control_c, 0, 64, 127
1, 354357, Note_on_c, 0, 64, 0
1, 354357, Note_on_c, 0, 60, 96
1, 354464, Note_on_c, 0, 60, 0
1, 354464, Note_on_c, 0, 55, 98
1, 354572, Note_on_c, 0, 55, 0
1, 354572, Note_on_c, 0, 43, 0
1, 354572, Note_on_c, 0, 60, 103
1, 354575, Note_on_c, 0, 43, 81
1, 354679, Note_on_c, 0, 60, 0
1, 354679, Note_on_c, 0, 64, 98
1, 354787, Note_on_c, 0, 64, 0
1, 354787, Note_on_c, 0, 67, 98
1, 354899, Note_on_c, 0, 67, 0
1, 354899, Note_on_c, 0, 65, 103
1, 354902, Control_c, 0, 64, 0
1, 354947, Control_c, 0, 64, 127
1, 355006, Note_on_c, 0, 65, 0
1, 355006, Note_on_c, 0, 62, 98
1, 355113, Note_on_c, 0, 62, 0
1, 355113, Note_on_c, 0, 59, 98
1, 355224, Note_on_c, 0, 59, 0
1, 355224, Note_on_c, 0, 43, 0
1, 355224, Note_on_c, 0, 71, 103
1, 355227, Note_on_c, 0, 43, 81
1, 355331, Note_on_c, 0, 71, 0
1, 355331, Note_on_c, 0, 65, 98
1, 355437, Note_on_c, 0, 65, 0
1, 355437, Note_on_c, 0, 62, 98
1, 355544, Note_on_c, 0, 62, 0
1, 355544, Note_on_c, 0, 64, 84
1, 355544, Note_on_c, 0, 72, 96
1, 355547, Note_on_c, 0, 43, 0
1, 355547, Note_on_c, 0, 48, 94
1, 355547, Control_c, 0, 64, 0
1, 355575, Control_c, 0, 64, 127
1, 355651, Note_on_c, 0, 48, 0
1, 355651, Note_on_c, 0, 43, 88
1, 355757, Note_on_c, 0, 43, 0
1, 355757, Note_on_c, 0, 40, 90
1, 355863, Note_on_c, 0, 72, 0
1, 355863, Note_on_c, 0, 64, 0
1, 355863, Note_on_c, 0, 67, 96
1, 355866, Note_on_c, 0, 40, 0
1, 355866, Note_on_c, 0, 43, 94
1, 355970, Note_on_c, 0, 43, 0
1, 355970, Note_on_c, 0, 48, 90
1, 356076, Note_on_c, 0, 48, 0
1, 356076, Note_on_c, 0, 52, 90
1, 356186, Note_on_c, 0, 52, 0
1, 356186, Note_on_c, 0, 50, 94
1, 356190, Control_c, 0, 64, 0
1, 356255, Control_c, 0, 64, 127
1, 356293, Note_on_c, 0, 50, 0
1, 356293, Note_on_c, 0, 47, 90
1, 356400, Note_on_c, 0, 47, 0
1, 356400, Note_on_c, 0, 43, 90
1, 356508, Note_on_c, 0, 43, 0
1, 356508, Note_on_c, 0, 67, 0
1, 356508, Note_on_c, 0, 67, 96
1, 356511, Note_on_c, 0, 47, 94
1, 356615, Note_on_c, 0, 47, 0
1, 356615, Note_on_c, 0, 50, 90
1, 356722, Note_on_c, 0, 50, 0
1, 356722, Note_on_c, 0, 53, 90
1, 356832, Note_on_c, 0, 53, 0
1, 356832, Note_on_c, 0, 52, 94
1, 356836, Control_c, 0, 64, 0
1, 356882, Control_c, 0, 64, 127
1, 356939, Note_on_c, 0, 52, 0
1, 356939, Note_on_c, 0, 48, 88
1, 357047, Note_on_c, 0, 48, 0
1, 357047, Note_on_c, 0, 43, 90
1, 357154, Note_on_c, 0, 43, 0
1, 357154, Note_on_c, 0, 67, 0
1, 357154, Note_on_c, 0, 67, 96
1, 357157, Note_on_c, 0, 48, 94
1, 357261, Note_on_c, 0, 48, 0
1, 357261, Note_on_c, 0, 52, 90
1, 357368, Note_on_c, 0, 52, 0
1, 357368, Note_on_c, 0, 55, 90
1, 357478, Note_on_c, 0, 55, 0
1, 357478, Note_on_c, 0, 53, 94
1, 357481, Control_c, 0, 64, 0
1, 357516, Control_c, 0, 64, 127
1, 357586, Note_on_c, 0, 53, 0
1, 357586, Note_on_c, 0, 50, 90
1, 357694, Note_on_c, 0, 50, 0
1, 357694, Note_on_c, 0, 47, 90
1, 357804, Note_on_c, 0, 47, 0
1, 357804, Note_on_c, 0, 67, 0
1, 357804, Note_on_c, 0, 67, 96
1, 357807, Note_on_c, 0, 59, 94
1, 357911, Note_on_c, 0, 59, 0
1, 357911, Note_on_c, 0, 53, 90
1, 358018, Note_on_c, 0, 53, 0
1, 358018, Note_on_c, 0, 50, 90
1, 358129, Note_on_c, 0, 50, 0
1, 358129, Note_on_c, 0, 67, 0
1, 358129, Note_on_c, 0, 72, 103
1, 358132, Note_on_c, 0, 52, 85
1, 358132, Control_c, 0, 64, 0
1, 358159, Control_c, 0, 64, 127
1, 358235, Note_on_c, 0, 52, 0
1, 358235, Note_on_c, 0, 72, 0
1, 358235, Note_on_c, 0, 67, 96
1, 358238, Note_on_c, 0, 55, 77
1, 358341, Note_on_c, 0, 55, 0
1, 358341, Note_on_c, 0, 67, 0
1, 358341, Note_on_c, 0, 64, 98
1, 358344, Note_on_c, 0, 60, 77
1, 358448, Note_on_c, 0, 60, 0
1, 358448, Note_on_c, 0, 64, 0
1, 358448, Note_on_c, 0, 67, 103
1, 358451, Note_on_c, 0, 55, 85
1, 358554, Note_on_c, 0, 55, 0
1, 358554, Note_on_c, 0, 67, 0
1, 358554, Note_on_c, 0, 72, 98
1, 358557, Note_on_c, 0, 52, 78
1, 358661, Note_on_c, 0, 52, 0
1, 358661, Note_on_c, 0, 72, 0
1, 358661, Note_on_c, 0, 76, 98
1, 358664, Note_on_c, 0, 48, 78
1, 358771, Note_on_c, 0, 48, 0
1, 358771, Note_on_c, 0, 76, 0
1, 358771, Note_on_c, 0, 74, 103
1, 358774, Note_on_c, 0, 47, 85
1, 358774, Control_c, 0, 64, 0
1, 358813, Control_c, 0, 64, 127
1, 358877, Note_on_c, 0, 47, 0
1, 358877, Note_on_c, 0, 74, 0
1, 358877, Note_on_c, 0, 71, 98
1, 358880, Note_on_c, 0, 50, 77
1, 358984, Note_on_c, 0, 50, 0
1, 358984, Note_on_c, 0, 71, 0
1, 358984, Note_on_c, 0, 67, 98
1, 358987, Note_on_c, 0, 53, 77
1, 359091, Note_on_c, 0, 53, 0
1, 359091, Note_on_c, 0, 67, 0
1, 359091, Note_on_c, 0, 71, 103
1, 359094, Note_on_c, 0, 50, 85
1, 359198, Note_on_c, 0, 50, 0
1, 359198, Note_on_c, 0, 71, 0
1, 359198, Note_on_c, 0, 74, 98
1, 359201, Note_on_c, 0, 47, 78
1, 359304, Note_on_c, 0, 47, 0
1, 359304, Note_on_c, 0, 74, 0
1, 359304, Note_on_c, 0, 77, 98
1, 359307, Note_on_c, 0, 43, 79
1, 359414, Note_on_c, 0, 43, 0
1, 359414, Note_on_c, 0, 77, 0
1, 359414, Note_on_c, 0, 76, 103
1, 359414, Control_c, 0, 64, 0
1, 359418, Note_on_c, 0, 48, 85
1, 359456, Control_c, 0, 64, 127
1, 359520, Note_on_c, 0, 76, 0
1, 359520, Note_on_c, 0, 72, 96
1, 359520, Note_on_c, 0, 52, 77
1, 359524, Note_on_c, 0, 48, 0
1, 359626, Note_on_c, 0, 52, 0
1, 359626, Note_on_c, 0, 72, 0
1, 359626, Note_on_c, 0, 67, 98
1, 359629, Note_on_c, 0, 55, 77
1, 359732, Note_on_c, 0, 55, 0
1, 359732, Note_on_c, 0, 67, 0
1, 359732, Note_on_c, 0, 72, 103
1, 359735, Note_on_c, 0, 52, 85
1, 359838, Note_on_c, 0, 52, 0
1, 359838, Note_on_c, 0, 72, 0
1, 359838, Note_on_c, 0, 76, 98
1, 359841, Note_on_c, 0, 48, 78
1, 359944, Note_on_c, 0, 48, 0
1, 359944, Note_on_c, 0, 76, 0
1, 359944, Note_on_c, 0, 79, 98
1, 359948, Note_on_c, 0, 43, 78
1, 360060, Note_on_c, 0, 79, 0
1, 360060, Note_on_c, 0, 77, 103
1, 360060, Note_on_c, 0, 47, 85
1, 360064, Note_on_c, 0, 43, 0
1, 360064, Control_c, 0, 64, 0
1, 360102, Control_c, 0, 64, 127
1, 360166, Note_on_c, 0, 47, 0
1, 360166, Note_on_c, 0, 77, 0
1, 360166, Note_on_c, 0, 74, 98
1, 360169, Note_on_c, 0, 53, 77
1, 360273, Note_on_c, 0, 53, 0
1, 360273, Note_on_c, 0, 74, 0
1, 360273, Note_on_c, 0, 71, 98
1, 360277, Note_on_c, 0, 55, 77
1, 360388, Note_on_c, 0, 71, 0
1, 360388, Note_on_c, 0, 83, 103
1, 360388, Note_on_c, 0, 53, 85
1, 360392, Note_on_c, 0, 55, 0
1, 360494, Note_on_c, 0, 53, 0
1, 360494, Note_on_c, 0, 83, 0
1, 360494, Note_on_c, 0, 77, 98
1, 360497, Note_on_c, 0, 55, 78
1, 360600, Note_on_c, 0, 55, 0
1, 360600, Note_on_c, 0, 77, 0
1, 360600, Note_on_c, 0, 74, 98
1, 360603, Note_on_c, 0, 62, 79
1, 360706, Note_on_c, 0, 62, 0
1, 360706, Note_on_c, 0, 74, 0
1, 360706, Note_on_c, 0, 84, 103
1, 360709, Note_on_c, 0, 52, 85
1, 360709, Control_c, 0, 64, 0
1, 360747, Control_c, 0, 64, 127
1, 360811, Note_on_c, 0, 52, 0
1, 360811, Note_on_c, 0, 79, 95
1, 360811, Note_on_c, 0, 55, 76
1, 360864, Note_on_c, 0, 84, 0
1, 360917, Note_on_c, 0, 55, 0
1, 360917, Note_on_c, 0, 79, 0
1, 360917, Note_on_c, 0, 76, 95
1, 360920, Note_on_c, 0, 60, 76
1, 361022, Note_on_c, 0, 60, 0
1, 361022, Note_on_c, 0, 76, 0
1, 361022, Note_on_c, 0, 79, 100
1, 361025, Note_on_c, 0, 48, 83
1, 361128, Note_on_c, 0, 48, 0
1, 361128, Note_on_c, 0, 76, 94
1, 361128, Note_on_c, 0, 52, 76
1, 361181, Note_on_c, 0, 79, 0
1, 361233, Note_on_c, 0, 52, 0
1, 361233, Note_on_c, 0, 76, 0
1, 361233, Note_on_c, 0, 72, 93
1, 361236, Note_on_c, 0, 55, 75
1, 361343, Note_on_c, 0, 55, 0
1, 361343, Note_on_c, 0, 72, 0
1, 361343, Note_on_c, 0, 77, 98
1, 361346, Note_on_c, 0, 50, 80
1, 361346, Control_c, 0, 64, 0
1, 361385, Control_c, 0, 64, 127
1, 361448, Note_on_c, 0, 50, 0
1, 361448, Note_on_c, 0, 74, 92
1, 361448, Note_on_c, 0, 53, 72
1, 361501, Note_on_c, 0, 77, 0
1, 361553, Note_on_c, 0, 53, 0
1, 361553, Note_on_c, 0, 74, 0
1, 361553, Note_on_c, 0, 71, 91
1, 361556, Note_on_c, 0, 55, 72
1, 361659, Note_on_c, 0, 55, 0
1, 361659, Note_on_c, 0, 71, 0
1, 361659, Note_on_c, 0, 83, 95
1, 361662, Note_on_c, 0, 53, 78
1, 361764, Note_on_c, 0, 53, 0
1, 361764, Note_on_c, 0, 79, 90
1, 361764, Note_on_c, 0, 55, 72
1, 361817, Note_on_c, 0, 83, 0
1, 361869, Note_on_c, 0, 55, 0
1, 361869, Note_on_c, 0, 79, 0
1, 361869, Note_on_c, 0, 74, 88
1, 361872, Note_on_c, 0, 62, 72
1, 361985, Note_on_c, 0, 62, 0
1, 361985, Note_on_c, 0, 74, 0
1, 361985, Note_on_c, 0, 84, 93
1, 361988, Note_on_c, 0, 52, 77
1, 361988, Control_c, 0, 64, 0
1, 362008, Control_c, 0, 64, 127
1, 362090, Note_on_c, 0, 52, 0
1, 362090, Note_on_c, 0, 79, 86
1, 362090, Note_on_c, 0, 55, 69
1, 362142, Note_on_c, 0, 84, 0
1, 362194, Note_on_c, 0, 55, 0
1, 362194, Note_on_c, 0, 79, 0
1, 362194, Note_on_c, 0, 76, 86
1, 362197, Note_on_c, 0, 60, 69
1, 362299, Note_on_c, 0, 60, 0
1, 362299, Note_on_c, 0, 76, 0
1, 362299, Note_on_c, 0, 79, 91
1, 362302, Note_on_c, 0, 48, 75
1, 362404, Note_on_c, 0, 48, 0
1, 362404, Note_on_c, 0, 76, 85
1, 362404, Note_on_c, 0, 52, 69
1, 362457, Note_on_c, 0, 79, 0
1, 362509, Note_on_c, 0, 52, 0
1, 362509, Note_on_c, 0, 76, 0
1, 362509, Note_on_c, 0, 72, 84
1, 362512, Note_on_c, 0, 55, 68
1, 362619, Note_on_c, 0, 55, 0
1, 362619, Note_on_c, 0, 72, 0
1, 362619, Note_on_c, 0, 77, 88
1, 362622, Note_on_c, 0, 50, 72
1, 362622, Control_c, 0, 64, 0
1, 362651, Control_c, 0, 64, 127
1, 362723, Note_on_c, 0, 50, 0
1, 362723, Note_on_c, 0, 74, 83
1, 362723, Note_on_c, 0, 53, 65
1, 362776, Note_on_c, 0, 77, 0
1, 362828, Note_on_c, 0, 53, 0
1, 362828, Note_on_c, 0, 74, 0
1, 362828, Note_on_c, 0, 71, 81
1, 362831, Note_on_c, 0, 55, 65
1, 362932, Note_on_c, 0, 55, 0
1, 362932, Note_on_c, 0, 71, 0
1, 362932, Note_on_c, 0, 83, 85
1, 362935, Note_on_c, 0, 53, 71
1, 363037, Note_on_c, 0, 53, 0
1, 363037, Note_on_c, 0, 79, 80
1, 363037, Note_on_c, 0, 55, 65
1, 363089, Note_on_c, 0, 83, 0
1, 363141, Note_on_c, 0, 55, 0
1, 363141, Note_on_c, 0, 79, 0
1, 363141, Note_on_c, 0, 74, 79
1, 363144, Note_on_c, 0, 62, 65
1, 363257, Note_on_c, 0, 62, 0
1, 363257, Note_on_c, 0, 74, 0
1, 363257, Note_on_c, 0, 84, 85
1, 363260, Note_on_c, 0, 52, 71
1, 363260, Control_c, 0, 64, 0
1, 363334, Note_on_c, 0, 52, 0
1, 363334, Note_on_c, 0, 84, 0
1, 363334, Note_on_c, 0, 79, 79
1, 363337, Note_on_c, 0, 55, 64
1, 363412, Note_on_c, 0, 55, 0
1, 363412, Note_on_c, 0, 79, 0
1, 363412, Note_on_c, 0, 76, 79
1, 363415, Note_on_c, 0, 48, 64
1, 363489, Note_on_c, 0, 48, 0
1, 363489, Note_on_c, 0, 76, 0
1, 363489, Note_on_c, 0, 72, 80
1, 363492, Note_on_c, 0, 55, 65
1, 363566, Note_on_c, 0, 55, 0
1, 363566, Note_on_c, 0, 72, 0
1, 363566, Note_on_c, 0, 77, 86
1, 363569, Note_on_c, 0, 50, 72
1, 363643, Note_on_c, 0, 50, 0
1, 363643, Note_on_c, 0, 77, 0
1, 363643, Note_on_c, 0, 74, 80
1, 363646, Note_on_c, 0, 55, 65
1, 363719, Note_on_c, 0, 55, 0
1, 363719, Note_on_c, 0, 74, 0
1, 363719, Note_on_c, 0, 83, 83
1, 363722, Note_on_c, 0, 53, 65
1, 363796, Note_on_c, 0, 53, 0
1, 363796, Note_on_c, 0, 83, 0
1, 363796, Note_on_c, 0, 79, 84
1, 363799, Note_on_c, 0, 55, 65
1, 363872, Note_on_c, 0, 55, 0
1, 363872, Note_on_c, 0, 79, 0
1, 363872, Note_on_c, 0, 84, 90
1, 363875, Note_on_c, 0, 52, 73
1, 363948, Note_on_c, 0, 52, 0
1, 363948, Note_on_c, 0, 84, 0
1, 363948, Note_on_c, 0, 79, 84
1, 363951, Note_on_c, 0, 55, 67
1, 364023, Note_on_c, 0, 55, 0
1, 364023, Note_on_c, 0, 79, 0
1, 364023, Note_on_c, 0, 76, 84
1, 364026, Note_on_c, 0, 48, 68
1, 364099, Note_on_c, 0, 48, 0
1, 364099, Note_on_c, 0, 76, 0
1, 364099, Note_on_c, 0, 72, 85
1, 364102, Note_on_c, 0, 55, 70
1, 364175, Note_on_c, 0, 55, 0
1, 364175, Note_on_c, 0, 72, 0
1, 364175, Note_on_c, 0, 77, 92
1, 364178, Note_on_c, 0, 50, 76
1, 364251, Note_on_c, 0, 50, 0
1, 364251, Note_on_c, 0, 77, 0
1, 364251, Note_on_c, 0, 74, 87
1, 364254, Note_on_c, 0, 55, 69
1, 364327, Note_on_c, 0, 55, 0
1, 364327, Note_on_c, 0, 74, 0
1, 364327, Note_on_c, 0, 83, 88
1, 364330, Note_on_c, 0, 53, 69
1, 364403, Note_on_c, 0, 53, 0
1, 364403, Note_on_c, 0, 83, 0
1, 364403, Note_on_c, 0, 79, 88
1, 364406, Note_on_c, 0, 55, 70
1, 364484, Note_on_c, 0, 55, 0
1, 364484, Note_on_c, 0, 79, 0
1, 364484, Note_on_c, 0, 84, 95
1, 364487, Note_on_c, 0, 52, 79
1, 364559, Note_on_c, 0, 52, 0
1, 364559, Note_on_c, 0, 84, 0
1, 364559, Note_on_c, 0, 79, 88
1, 364562, Note_on_c, 0, 55, 71
1, 364634, Note_on_c, 0, 55, 0
1, 364634, Note_on_c, 0, 79, 0
1, 364634, Note_on_c, 0, 83, 90
1, 364637, Note_on_c, 0, 53, 72
1, 364709, Note_on_c, 0, 53, 0
1, 364709, Note_on_c, 0, 83, 0
1, 364709, Note_on_c, 0, 79, 90
1, 364712, Note_on_c, 0, 55, 73
1, 364784, Note_on_c, 0, 55, 0
1, 364784, Note_on_c, 0, 79, 0
1, 364784, Note_on_c, 0, 84, 98
1, 364787, Note_on_c, 0, 52, 81
1, 364859, Note_on_c, 0, 52, 0
1, 364859, Note_on_c, 0, 84, 0
1, 364859, Note_on_c, 0, 79, 98
1, 364862, Note_on_c, 0, 55, 73
1, 364933, Note_on_c, 0, 55, 0
1, 364933, Note_on_c, 0, 79, 0
1, 364933, Note_on_c, 0, 83, 93
1, 364936, Note_on_c, 0, 53, 73
1, 365008, Note_on_c, 0, 53, 0
1, 365008, Note_on_c, 0, 83, 0
1, 365008, Note_on_c, 0, 79, 94
1, 365011, Note_on_c, 0, 55, 75
1, 365082, Note_on_c, 0, 55, 0
1, 365082, Note_on_c, 0, 79, 0
1, 365082, Note_on_c, 0, 84, 101
1, 365085, Note_on_c, 0, 52, 83
1, 365156, Note_on_c, 0, 52, 0
1, 365156, Note_on_c, 0, 84, 0
1, 365156, Note_on_c, 0, 79, 94
1, 365159, Note_on_c, 0, 55, 76
1, 365230, Note_on_c, 0, 55, 0
1, 365230, Note_on_c, 0, 79, 0
1, 365230, Note_on_c, 0, 83, 95
1, 365233, Note_on_c, 0, 53, 76
1, 365304, Note_on_c, 0, 53, 0
1, 365304, Note_on_c, 0, 83, 0
1, 365304, Note_on_c, 0, 79, 95
1, 365307, Note_on_c, 0, 55, 78
1, 365378, Note_on_c, 0, 55, 0
1, 365378, Note_on_c, 0, 79, 0
1, 365378, Note_on_c, 0, 84, 103
1, 365381, Note_on_c, 0, 52, 86
1, 365452, Note_on_c, 0, 52, 0
1, 365452, Note_on_c, 0, 84, 0
1, 365452, Note_on_c, 0, 79, 106
1, 365455, Note_on_c, 0, 55, 78
1, 365527, Note_on_c, 0, 55, 0
1, 365527, Note_on_c, 0, 79, 0
1, 365527, Note_on_c, 0, 83, 99
1, 365530, Note_on_c, 0, 53, 78
1, 365601, Note_on_c, 0, 53, 0
1, 365601, Note_on_c, 0, 83, 0
1, 365601, Note_on_c, 0, 79, 100
1, 365604, Note_on_c, 0, 55, 79
1, 365682, Note_on_c, 0, 55, 0
1, 365682, Note_on_c, 0, 79, 0
1, 365682, Note_on_c, 0, 84, 110
1, 365685, Note_on_c, 0, 52, 91
1, 365756, Note_on_c, 0, 52, 0
1, 365756, Note_on_c, 0, 84, 0
1, 365756, Note_on_c, 0, 79, 102
1, 365759, Note_on_c, 0, 55, 81
1, 365829, Note_on_c, 0, 55, 0
1, 365829, Note_on_c, 0, 79, 0
1, 365829, Note_on_c, 0, 82, 102
1, 365832, Note_on_c, 0, 40, 81
1, 365903, Note_on_c, 0, 40, 0
1, 365903, Note_on_c, 0, 82, 0
1, 365903, Note_on_c, 0, 79, 102
1, 365906, Note_on_c, 0, 48, 83
1, 365977, Note_on_c, 0, 48, 0
1, 365977, Note_on_c, 0, 79, 0
1, 365977, Note_on_c, 0, 82, 110
1, 365980, Note_on_c, 0, 40, 91
1, 366015, Control_c, 0, 64, 127
1, 366050, Note_on_c, 0, 40, 0
1, 366050, Note_on_c, 0, 82, 0
1, 366050, Note_on_c, 0, 79, 104
1, 366053, Note_on_c, 0, 48, 81
1, 366124, Note_on_c, 0, 48, 0
1, 366124, Note_on_c, 0, 79, 0
1, 366124, Note_on_c, 0, 82, 103
1, 366127, Note_on_c, 0, 40, 81
1, 366197, Note_on_c, 0, 40, 0
1, 366197, Note_on_c, 0, 82, 0
1, 366197, Note_on_c, 0, 79, 103
1, 366200, Note_on_c, 0, 48, 81
1, 366270, Note_on_c, 0, 48, 0
1, 366270, Note_on_c, 0, 79, 0
1, 366270, Note_on_c, 0, 82, 110
1, 366273, Note_on_c, 0, 40, 91
1, 366343, Note_on_c, 0, 40, 0
1, 366343, Note_on_c, 0, 82, 0
1, 366343, Note_on_c, 0, 79, 102
1, 366346, Note_on_c, 0, 48, 81
1, 366416, Note_on_c, 0, 48, 0
1, 366416, Note_on_c, 0, 79, 0
1, 366416, Note_on_c, 0, 82, 102
1, 366419, Note_on_c, 0, 40, 81
1, 366489, Note_on_c, 0, 40, 0
1, 366489, Note_on_c, 0, 82, 0
1, 366489, Note_on_c, 0, 79, 102
1, 366492, Note_on_c, 0, 48, 83
1, 366562, Note_on_c, 0, 48, 0
1, 366562, Note_on_c, 0, 79, 0
1, 366562, Note_on_c, 0, 82, 110
1, 366565, Note_on_c, 0, 40, 91
1, 366636, Note_on_c, 0, 40, 0
1, 366636, Note_on_c, 0, 82, 0
1, 366636, Note_on_c, 0, 79, 104
1, 366639, Note_on_c, 0, 48, 81
1, 366709, Note_on_c, 0, 48, 0
1, 366709, Note_on_c, 0, 79, 0
1, 366709, Note_on_c, 0, 82, 103
1, 366712, Note_on_c, 0, 40, 81
1, 366782, Note_on_c, 0, 40, 0
1, 366782, Note_on_c, 0, 82, 0
1, 366782, Note_on_c, 0, 79, 103
1, 366785, Note_on_c, 0, 48, 81
1, 366858, Note_on_c, 0, 48, 0
1, 366858, Note_on_c, 0, 79, 0
1, 366858, Note_on_c, 0, 82, 110
1, 366861, Note_on_c, 0, 40, 91
1, 366861, Control_c, 0, 64, 0
1, 366881, Control_c, 0, 64, 127
1, 366929, Note_on_c, 0, 40, 0
1, 366929, Note_on_c, 0, 48, 81
1, 367000, Note_on_c, 0, 48, 0
1, 367000, Note_on_c, 0, 82, 0
1, 367000, Note_on_c, 0, 81, 102
1, 367003, Note_on_c, 0, 40, 81
1, 367071, Note_on_c, 0, 40, 0
1, 367071, Note_on_c, 0, 81, 0
1, 367071, Note_on_c, 0, 79, 102
1, 367074, Note_on_c, 0, 48, 83
1, 367142, Note_on_c, 0, 48, 0
1, 367142, Note_on_c, 0, 79, 0
1, 367142, Note_on_c, 0, 77, 105
1, 367145, Note_on_c, 0, 40, 91
1, 367213, Note_on_c, 0, 40, 0
1, 367213, Note_on_c, 0, 77, 0
1, 367213, Note_on_c, 0, 76, 99
1, 367216, Note_on_c, 0, 48, 81
1, 367284, Note_on_c, 0, 48, 0
1, 367284, Note_on_c, 0, 76, 0
1, 367284, Note_on_c, 0, 74, 99
1, 367287, Note_on_c, 0, 40, 81
1, 367356, Note_on_c, 0, 40, 0
1, 367356, Note_on_c, 0, 74, 0
1, 367356, Note_on_c, 0, 72, 101
1, 367359, Note_on_c, 0, 48, 82
1, 367427, Note_on_c, 0, 48, 0
1, 367427, Note_on_c, 0, 72, 0
1, 367427, Note_on_c, 0, 70, 105
1, 367430, Note_on_c, 0, 40, 92
1, 367430, Control_c, 0, 64, 0
1, 367464, Control_c, 0, 64, 127
1, 367498, Note_on_c, 0, 40, 0
1, 367498, Note_on_c, 0, 70, 0
1, 367498, Note_on_c, 0, 69, 101
1, 367501, Note_on_c, 0, 48, 82
1, 367569, Note_on_c, 0, 48, 0
1, 367569, Note_on_c, 0, 69, 0
1, 367569, Note_on_c, 0, 67, 101
1, 367572, Note_on_c, 0, 40, 82
1, 367640, Note_on_c, 0, 40, 0
1, 367640, Note_on_c, 0, 67, 0
1, 367640, Note_on_c, 0, 65, 102
1, 367643, Note_on_c, 0, 48, 84
1, 367711, Note_on_c, 0, 48, 0
1, 367711, Note_on_c, 0, 65, 0
1, 367711, Note_on_c, 0, 64, 107
1, 367714, Note_on_c, 0, 40, 93
1, 367782, Note_on_c, 0, 40, 0
1, 367782, Note_on_c, 0, 64, 0
1, 367782, Note_on_c, 0, 62, 105
1, 367785, Note_on_c, 0, 48, 83
1, 367854, Note_on_c, 0, 48, 0
1, 367854, Note_on_c, 0, 62, 0
1, 367854, Note_on_c, 0, 60, 106
1, 367857, Note_on_c, 0, 40, 83
1, 367925, Note_on_c, 0, 40, 0
1, 367925, Note_on_c, 0, 60, 0
1, 367925, Note_on_c, 0, 58, 106
1, 367928, Note_on_c, 0, 48, 83
1, 367996, Note_on_c, 0, 48, 0
1, 367996, Note_on_c, 0, 58, 0
1, 367996, Note_on_c, 0, 57, 114
1, 367999, Note_on_c, 0, 41, 88
1, 367999, Note_on_c, 0, 45, 88
1, 367999, Note_on_c, 0, 48, 101
1, 368002, Control_c, 0, 64, 0
1, 368066, Note_on_c, 0, 57, 0
1, 368066, Note_on_c, 0, 59, 102
1, 368101, Note_on_c, 0, 41, 0
1, 368101, Note_on_c, 0, 48, 0
1, 368101, Note_on_c, 0, 45, 0
1, 368136, Note_on_c, 0, 59, 0
1, 368136, Note_on_c, 0, 60, 102
1, 368136, Note_on_c, 0, 41, 81
1, 368139, Note_on_c, 0, 45, 81
1, 368139, Note_on_c, 0, 48, 94
1, 368206, Note_on_c, 0, 60, 0
1, 368206, Note_on_c, 0, 59, 102
1, 368241, Note_on_c, 0, 41, 0
1, 368241, Note_on_c, 0, 48, 0
1, 368241, Note_on_c, 0, 45, 0
1, 368277, Note_on_c, 0, 59, 0
1, 368277, Note_on_c, 0, 60, 113
1, 368347, Note_on_c, 0, 60, 0
1, 368347, Note_on_c, 0, 64, 102
1, 368417, Note_on_c, 0, 64, 0
1, 368417, Note_on_c, 0, 65, 102
1, 368417, Note_on_c, 0, 41, 81
1, 368420, Note_on_c, 0, 45, 81
1, 368420, Note_on_c, 0, 48, 94
1, 368490, Note_on_c, 0, 65, 0
1, 368490, Note_on_c, 0, 64, 103
1, 368527, Note_on_c, 0, 41, 0
1, 368527, Note_on_c, 0, 48, 0
1, 368527, Note_on_c, 0, 45, 0
1, 368563, Note_on_c, 0, 64, 0
1, 368563, Note_on_c, 0, 65, 114
1, 368563, Note_on_c, 0, 41, 88
1, 368566, Note_on_c, 0, 45, 88
1, 368566, Note_on_c, 0, 48, 101
1, 368633, Note_on_c, 0, 65, 0
1, 368633, Note_on_c, 0, 68, 101
1, 368668, Note_on_c, 0, 41, 0
1, 368668, Note_on_c, 0, 48, 0
1, 368668, Note_on_c, 0, 45, 0
1, 368703, Note_on_c, 0, 68, 0
1, 368703, Note_on_c, 0, 69, 101
1, 368703, Note_on_c, 0, 41, 81
1, 368706, Note_on_c, 0, 45, 81
1, 368706, Note_on_c, 0, 48, 94
1, 368773, Note_on_c, 0, 69, 0
1, 368773, Note_on_c, 0, 68, 102
1, 368808, Note_on_c, 0, 41, 0
1, 368808, Note_on_c, 0, 48, 0
1, 368808, Note_on_c, 0, 45, 0
1, 368843, Note_on_c, 0, 68, 0
1, 368843, Note_on_c, 0, 69, 114
1, 368913, Note_on_c, 0, 69, 0
1, 368913, Note_on_c, 0, 71, 104
1, 368983, Note_on_c, 0, 71, 0
1, 368983, Note_on_c, 0, 72, 104
1, 368983, Note_on_c, 0, 41, 81
1, 368986, Note_on_c, 0, 45, 81
1, 368986, Note_on_c, 0, 48, 94
1, 369056, Note_on_c, 0, 72, 0
1, 369056, Note_on_c, 0, 71, 104
1, 369093, Note_on_c, 0, 41, 0
1, 369093, Note_on_c, 0, 48, 0
1, 369093, Note_on_c, 0, 45, 0
1, 369129, Note_on_c, 0, 71, 0
1, 369129, Note_on_c, 0, 72, 116
1, 369129, Note_on_c, 0, 41, 88
1, 369132, Note_on_c, 0, 45, 88
1, 369132, Note_on_c, 0, 48, 99
1, 369199, Note_on_c, 0, 72, 0
1, 369199, Note_on_c, 0, 76, 105
1, 369234, Note_on_c, 0, 41, 0
1, 369234, Note_on_c, 0, 48, 0
1, 369234, Note_on_c, 0, 45, 0
1, 369268, Note_on_c, 0, 76, 0
1, 369268, Note_on_c, 0, 77, 105
1, 369268, Note_on_c, 0, 41, 81
1, 369271, Note_on_c, 0, 45, 81
1, 369271, Note_on_c, 0, 48, 94
1, 369339, Note_on_c, 0, 77, 0
1, 369339, Note_on_c, 0, 76, 105
1, 369374, Note_on_c, 0, 41, 0
1, 369374, Note_on_c, 0, 48, 0
1, 369374, Note_on_c, 0, 45, 0
1, 369408, Note_on_c, 0, 76, 0
1, 369408, Note_on_c, 0, 77, 116
1, 369478, Note_on_c, 0, 77, 0
1, 369478, Note_on_c, 0, 80, 103
1, 369548, Note_on_c, 0, 80, 0
1, 369548, Note_on_c, 0, 81, 103
1, 369548, Note_on_c, 0, 41, 81
1, 369551, Note_on_c, 0, 45, 81
1, 369551, Note_on_c, 0, 48, 94
1, 369620, Note_on_c, 0, 81, 0
1, 369620, Note_on_c, 0, 80, 103
1, 369656, Note_on_c, 0, 41, 0
1, 369656, Note_on_c, 0, 48, 0
1, 369656, Note_on_c, 0, 45, 0
1, 369693, Note_on_c, 0, 80, 0
1, 369693, Note_on_c, 0, 81, 116
1, 369693, Note_on_c, 0, 41, 88
1, 369696, Note_on_c, 0, 45, 88
1, 369696, Note_on_c, 0, 48, 99
1, 369762, Note_on_c, 0, 81, 0
1, 369762, Note_on_c, 0, 83, 103
1, 369797, Note_on_c, 0, 41, 0
1, 369797, Note_on_c, 0, 48, 0
1, 369797, Note_on_c, 0, 45, 0
1, 369832, Note_on_c, 0, 83, 0
1, 369832, Note_on_c, 0, 84, 103
1, 369832, Note_on_c, 0, 41, 81
1, 369835, Note_on_c, 0, 45, 81
1, 369835, Note_on_c, 0, 48, 94
1, 369902, Note_on_c, 0, 84, 0
1, 369902, Note_on_c, 0, 83, 103
1, 369936, Note_on_c, 0, 41, 0
1, 369936, Note_on_c, 0, 48, 0
1, 369936, Note_on_c, 0, 45, 0
1, 369971, Note_on_c, 0, 83, 0
1, 369971, Note_on_c, 0, 84, 116
1, 370041, Note_on_c, 0, 84, 0
1, 370041, Note_on_c, 0, 83, 103
1, 370111, Note_on_c, 0, 83, 0
1, 370111, Note_on_c, 0, 81, 104
1, 370111, Note_on_c, 0, 41, 81
1, 370114, Note_on_c, 0, 45, 81
1, 370114, Note_on_c, 0, 48, 94
1, 370187, Note_on_c, 0, 81, 0
1, 370187, Note_on_c, 0, 80, 104
1, 370224, Note_on_c, 0, 41, 0
1, 370224, Note_on_c, 0, 48, 0
1, 370224, Note_on_c, 0, 45, 0
1, 370262, Note_on_c, 0, 80, 0
1, 370262, Note_on_c, 0, 81, 116
1, 370262, Note_on_c, 0, 48, 88
1, 370265, Note_on_c, 0, 42, 88
1, 370265, Note_on_c, 0, 45, 88
1, 370265, Note_on_c, 0, 50, 99
1, 370332, Note_on_c, 0, 81, 0
1, 370332, Note_on_c, 0, 80, 104
1, 370366, Note_on_c, 0, 48, 0
1, 370366, Note_on_c, 0, 50, 0
1, 370366, Note_on_c, 0, 42, 0
1, 370369, Note_on_c, 0, 45, 0
1, 370401, Note_on_c, 0, 80, 0
1, 370401, Note_on_c, 0, 81, 104
1, 370401, Note_on_c, 0, 48, 81
1, 370404, Note_on_c, 0, 42, 81
1, 370404, Note_on_c, 0, 45, 81
1, 370404, Note_on_c, 0, 50, 94
1, 370471, Note_on_c, 0, 81, 0
1, 370471, Note_on_c, 0, 83, 104
1, 370506, Note_on_c, 0, 48, 0
1, 370506, Note_on_c, 0, 50, 0
1, 370506, Note_on_c, 0, 42, 0
1, 370509, Note_on_c, 0, 45, 0
1, 370541, Note_on_c, 0, 83, 0
1, 370541, Note_on_c, 0, 84, 116
1, 370611, Note_on_c, 0, 84, 0
1, 370611, Note_on_c, 0, 83, 106
1, 370681, Note_on_c, 0, 83, 0
1, 370681, Note_on_c, 0, 81, 106
1, 370681, Note_on_c, 0, 48, 81
1, 370684, Note_on_c, 0, 42, 81
1, 370684, Note_on_c, 0, 45, 81
1, 370684, Note_on_c, 0, 50, 94
1, 370753, Note_on_c, 0, 81, 0
1, 370753, Note_on_c, 0, 80, 106
1, 370790, Note_on_c, 0, 48, 0
1, 370790, Note_on_c, 0, 50, 0
1, 370790, Note_on_c, 0, 42, 0
1, 370793, Note_on_c, 0, 45, 0
1, 370826, Note_on_c, 0, 80, 0
1, 370826, Note_on_c, 0, 81, 116
1, 370826, Note_on_c, 0, 48, 88
1, 370829, Note_on_c, 0, 42, 88
1, 370829, Note_on_c, 0, 45, 88
1, 370829, Note_on_c, 0, 50, 99
1, 370895, Note_on_c, 0, 81, 0
1, 370895, Note_on_c, 0, 80, 105
1, 370930, Note_on_c, 0, 48, 0
1, 370930, Note_on_c, 0, 50, 0
1, 370930, Note_on_c, 0, 42, 0
1, 370933, Note_on_c, 0, 45, 0
1, 370965, Note_on_c, 0, 80, 0
1, 370965, Note_on_c, 0, 81, 105
1, 370965, Note_on_c, 0, 48, 81
1, 370968, Note_on_c, 0, 42, 81
1, 370968, Note_on_c, 0, 45, 81
1, 370968, Note_on_c, 0, 50, 94
1, 371035, Note_on_c, 0, 81, 0
1, 371035, Note_on_c, 0, 83, 105
1, 371071, Note_on_c, 0, 48, 0
1, 371071, Note_on_c, 0, 50, 0
1, 371071, Note_on_c, 0, 42, 0
1, 371074, Note_on_c, 0, 45, 0
1, 371106, Note_on_c, 0, 83, 0
1, 371106, Note_on_c, 0, 84, 116
1, 371176, Note_on_c, 0, 84, 0
1, 371176, Note_on_c, 0, 83, 105
1, 371246, Note_on_c, 0, 83, 0
1, 371246, Note_on_c, 0, 81, 105
1, 371246, Note_on_c, 0, 48, 81
1, 371249, Note_on_c, 0, 42, 81
1, 371249, Note_on_c, 0, 45, 81
1, 371249, Note_on_c, 0, 50, 94
1, 371318, Note_on_c, 0, 81, 0
1, 371318, Note_on_c, 0, 80, 105
1, 371354, Note_on_c, 0, 48, 0
1, 371354, Note_on_c, 0, 50, 0
1, 371354, Note_on_c, 0, 42, 0
1, 371357, Note_on_c, 0, 45, 0
1, 371390, Note_on_c, 0, 80, 0
1, 371390, Note_on_c, 0, 81, 116
1, 371390, Note_on_c, 0, 48, 88
1, 371393, Note_on_c, 0, 42, 88
1, 371393, Note_on_c, 0, 45, 88
1, 371393, Note_on_c, 0, 50, 99
1, 371460, Note_on_c, 0, 81, 0
1, 371460, Note_on_c, 0, 80, 105
1, 371495, Note_on_c, 0, 48, 0
1, 371495, Note_on_c, 0, 50, 0
1, 371495, Note_on_c, 0, 42, 0
1, 371498, Note_on_c, 0, 45, 0
1, 371530, Note_on_c, 0, 80, 0
1, 371530, Note_on_c, 0, 81, 105
1, 371530, Note_on_c, 0, 48, 81
1, 371533, Note_on_c, 0, 42, 81
1, 371533, Note_on_c, 0, 45, 81
1, 371533, Note_on_c, 0, 50, 94
1, 371600, Note_on_c, 0, 81, 0
1, 371600, Note_on_c, 0, 83, 105
1, 371635, Note_on_c, 0, 48, 0
1, 371635, Note_on_c, 0, 50, 0
1, 371635, Note_on_c, 0, 42, 0
1, 371638, Note_on_c, 0, 45, 0
1, 371670, Note_on_c, 0, 83, 0
1, 371670, Note_on_c, 0, 84, 116
1, 371740, Note_on_c, 0, 84, 0
1, 371740, Note_on_c, 0, 83, 104
1, 371810, Note_on_c, 0, 83, 0
1, 371810, Note_on_c, 0, 81, 104
1, 371810, Note_on_c, 0, 48, 81
1, 371813, Note_on_c, 0, 42, 81
1, 371813, Note_on_c, 0, 45, 81
1, 371813, Note_on_c, 0, 50, 94
1, 371882, Note_on_c, 0, 81, 0
1, 371882, Note_on_c, 0, 80, 104
1, 371918, Note_on_c, 0, 48, 0
1, 371918, Note_on_c, 0, 50, 0
1, 371918, Note_on_c, 0, 42, 0
1, 371921, Note_on_c, 0, 45, 0
1, 371955, Note_on_c, 0, 80, 0
1, 371955, Note_on_c, 0, 81, 116
1, 371955, Note_on_c, 0, 48, 88
1, 371958, Note_on_c, 0, 42, 88
1, 371958, Note_on_c, 0, 45, 88
1, 371958, Note_on_c, 0, 50, 99
1, 372025, Note_on_c, 0, 81, 0
1, 372025, Note_on_c, 0, 80, 104
1, 372060, Note_on_c, 0, 48, 0
1, 372060, Note_on_c, 0, 50, 0
1, 372060, Note_on_c, 0, 42, 0
1, 372063, Note_on_c, 0, 45, 0
1, 372095, Note_on_c, 0, 80, 0
1, 372095, Note_on_c, 0, 81, 104
1, 372095, Note_on_c, 0, 48, 81
1, 372098, Note_on_c, 0, 42, 81
1, 372098, Note_on_c, 0, 45, 81
1, 372098, Note_on_c, 0, 50, 94
1, 372165, Note_on_c, 0, 81, 0
1, 372165, Note_on_c, 0, 83, 104
1, 372200, Note_on_c, 0, 48, 0
1, 372200, Note_on_c, 0, 50, 0
1, 372200, Note_on_c, 0, 42, 0
1, 372203, Note_on_c, 0, 45, 0
1, 372235, Note_on_c, 0, 83, 0
1, 372235, Note_on_c, 0, 84, 116
1, 372305, Note_on_c, 0, 84, 0
1, 372305, Note_on_c, 0, 83, 105
1, 372375, Note_on_c, 0, 83, 0
1, 372375, Note_on_c, 0, 84, 105
1, 372375, Note_on_c, 0, 48, 81
1, 372378, Note_on_c, 0, 42, 81
1, 372378, Note_on_c, 0, 45, 81
1, 372378, Note_on_c, 0, 50, 94
1, 372447, Note_on_c, 0, 84, 0
1, 372447, Note_on_c, 0, 81, 107
1, 372484, Note_on_c, 0, 48, 0
1, 372484, Note_on_c, 0, 50, 0
1, 372484, Note_on_c, 0, 42, 0
1, 372487, Note_on_c, 0, 45, 0
1, 372520, Note_on_c, 0, 81, 0
1, 372520, Note_on_c, 0, 67, 108
1, 372520, Note_on_c, 0, 79, 124
1, 372523, Note_on_c, 0, 43, 99
1, 372590, Note_on_c, 0, 43, 0
1, 372590, Note_on_c, 0, 79, 0
1, 372590, Note_on_c, 0, 67, 0
1, 372593, Note_on_c, 0, 48, 91
1, 372660, Note_on_c, 0, 48, 0
1, 372660, Note_on_c, 0, 67, 94
1, 372660, Note_on_c, 0, 79, 108
1, 372663, Note_on_c, 0, 52, 91
1, 372730, Note_on_c, 0, 52, 0
1, 372730, Note_on_c, 0, 79, 0
1, 372730, Note_on_c, 0, 67, 0
1, 372733, Note_on_c, 0, 55, 91
1, 372800, Note_on_c, 0, 55, 0
1, 372800, Note_on_c, 0, 64, 95
1, 372800, Note_on_c, 0, 76, 109
1, 372803, Note_on_c, 0, 43, 98
1, 372871, Note_on_c, 0, 43, 0
1, 372871, Note_on_c, 0, 76, 0
1, 372871, Note_on_c, 0, 64, 0
1, 372874, Note_on_c, 0, 48, 91
1, 372942, Note_on_c, 0, 48, 0
1, 372942, Note_on_c, 0, 60, 94
1, 372942, Note_on_c, 0, 72, 108
1, 372945, Note_on_c, 0, 52, 91
1, 373012, Note_on_c, 0, 52, 0
1, 373012, Note_on_c, 0, 72, 0
1, 373012, Note_on_c, 0, 60, 0
1, 373015, Note_on_c, 0, 55, 91
1, 373083, Note_on_c, 0, 55, 0
1, 373083, Note_on_c, 0, 72, 108
1, 373083, Note_on_c, 0, 84, 124
1, 373086, Note_on_c, 0, 43, 96
1, 373153, Note_on_c, 0, 43, 0
1, 373153, Note_on_c, 0, 84, 0
1, 373153, Note_on_c, 0, 72, 0
1, 373156, Note_on_c, 0, 48, 91
1, 373223, Note_on_c, 0, 48, 0
1, 373223, Note_on_c, 0, 72, 94
1, 373223, Note_on_c, 0, 84, 108
1, 373226, Note_on_c, 0, 52, 91
1, 373293, Note_on_c, 0, 52, 0
1, 373293, Note_on_c, 0, 84, 0
1, 373293, Note_on_c, 0, 72, 0
1, 373296, Note_on_c, 0, 55, 91
1, 373363, Note_on_c, 0, 55, 0
1, 373363, Note_on_c, 0, 67, 94
1, 373363, Note_on_c, 0, 79, 108
1, 373366, Note_on_c, 0, 43, 96
1, 373435, Note_on_c, 0, 43, 0
1, 373435, Note_on_c, 0, 79, 0
1, 373435, Note_on_c, 0, 67, 0
1, 373438, Note_on_c, 0, 48, 91
1, 373506, Note_on_c, 0, 48, 0
1, 373506, Note_on_c, 0, 64, 94
1, 373506, Note_on_c, 0, 76, 108
1, 373509, Note_on_c, 0, 52, 91
1, 373577, Note_on_c, 0, 52, 0
1, 373577, Note_on_c, 0, 76, 0
1, 373577, Note_on_c, 0, 64, 0
1, 373580, Note_on_c, 0, 55, 91
1, 373648, Note_on_c, 0, 55, 0
1, 373648, Note_on_c, 0, 67, 108
1, 373648, Note_on_c, 0, 79, 124
1, 373651, Note_on_c, 0, 43, 99
1, 373718, Note_on_c, 0, 43, 0
1, 373718, Note_on_c, 0, 79, 0
1, 373718, Note_on_c, 0, 67, 0
1, 373721, Note_on_c, 0, 48, 91
1, 373788, Note_on_c, 0, 48, 0
1, 373788, Note_on_c, 0, 67, 94
1, 373788, Note_on_c, 0, 79, 108
1, 373791, Note_on_c, 0, 52, 91
1, 373858, Note_on_c, 0, 52, 0
1, 373858, Note_on_c, 0, 79, 0
1, 373858, Note_on_c, 0, 67, 0
1, 373861, Note_on_c, 0, 55, 91
1, 373928, Note_on_c, 0, 55, 0
1, 373928, Note_on_c, 0, 64, 95
1, 373928, Note_on_c, 0, 76, 109
1, 373931, Note_on_c, 0, 43, 98
1, 373999, Note_on_c, 0, 43, 0
1, 373999, Note_on_c, 0, 76, 0
1, 373999, Note_on_c, 0, 64, 0
1, 374002, Note_on_c, 0, 48, 91
1, 374070, Note_on_c, 0, 48, 0
1, 374070, Note_on_c, 0, 60, 94
1, 374070, Note_on_c, 0, 72, 108
1, 374073, Note_on_c, 0, 52, 91
1, 374140, Note_on_c, 0, 52, 0
1, 374140, Note_on_c, 0, 72, 0
1, 374140, Note_on_c, 0, 60, 0
1, 374143, Note_on_c, 0, 55, 91
1, 374211, Note_on_c, 0, 55, 0
1, 374211, Note_on_c, 0, 72, 108
1, 374211, Note_on_c, 0, 84, 124
1, 374214, Note_on_c, 0, 52, 96
1, 374281, Note_on_c, 0, 52, 0
1, 374281, Note_on_c, 0, 84, 0
1, 374281, Note_on_c, 0, 72, 0
1, 374351, Note_on_c, 0, 72, 94
1, 374351, Note_on_c, 0, 84, 108
1, 374351, Note_on_c, 0, 52, 91
1, 374421, Note_on_c, 0, 52, 0
1, 374421, Note_on_c, 0, 84, 0
1, 374421, Note_on_c, 0, 72, 0
1, 374491, Note_on_c, 0, 67, 94
1, 374491, Note_on_c, 0, 79, 108
1, 374491, Note_on_c, 0, 48, 96
1, 374562, Note_on_c, 0, 48, 0
1, 374562, Note_on_c, 0, 79, 0
1, 374562, Note_on_c, 0, 67, 0
1, 374633, Note_on_c, 0, 64, 94
1, 374633, Note_on_c, 0, 76, 108
1, 374633, Note_on_c, 0, 43, 91
1, 374704, Note_on_c, 0, 43, 0
1, 374704, Note_on_c, 0, 76, 0
1, 374704, Note_on_c, 0, 64, 0
1, 374775, Note_on_c, 0, 55, 107
1, 374845, Note_on_c, 0, 55, 0
1, 374845, Note_on_c, 0, 84, 68
1, 374915, Note_on_c, 0, 84, 0
1, 374915, Note_on_c, 0, 88, 71
1, 374915, Note_on_c, 0, 52, 68
1, 374985, Note_on_c, 0, 52, 0
1, 374985, Note_on_c, 0, 84, 68
1, 375055, Note_on_c, 0, 84, 0
1, 375055, Note_on_c, 0, 88, 0
1, 375055, Note_on_c, 0, 91, 72
1, 375058, Note_on_c, 0, 60, 74
1, 375124, Note_on_c, 0, 60, 0
1, 375124, Note_on_c, 0, 88, 68
1, 375194, Note_on_c, 0, 88, 0
1, 375194, Note_on_c, 0, 91, 0
1, 375194, Note_on_c, 0, 91, 71
1, 375197, Note_on_c, 0, 55, 69
1, 375263, Note_on_c, 0, 55, 0
1, 375263, Note_on_c, 0, 88, 68
1, 375332, Note_on_c, 0, 88, 0
1, 375332, Note_on_c, 0, 91, 0
1, 375332, Note_on_c, 0, 91, 72
1, 375335, Note_on_c, 0, 64, 73
1, 375401, Note_on_c, 0, 64, 0
1, 375401, Note_on_c, 0, 88, 68
1, 375471, Note_on_c, 0, 88, 0
1, 375471, Note_on_c, 0, 91, 0
1, 375471, Note_on_c, 0, 91, 71
1, 375474, Note_on_c, 0, 60, 62
1, 375540, Note_on_c, 0, 60, 0
1, 375540, Note_on_c, 0, 88, 68
1, 375609, Note_on_c, 0, 88, 0
1, 375609, Note_on_c, 0, 91, 0
1, 375609, Note_on_c, 0, 91, 73
1, 375612, Note_on_c, 0, 67, 71
1, 375679, Note_on_c, 0, 67, 0
1, 375679, Note_on_c, 0, 88, 68
1, 375748, Note_on_c, 0, 88, 0
1, 375748, Note_on_c, 0, 91, 0
1, 375748, Note_on_c, 0, 91, 72
1, 375751, Note_on_c, 0, 64, 62
1, 375817, Note_on_c, 0, 64, 0
1, 375817, Note_on_c, 0, 88, 68
1, 375887, Note_on_c, 0, 88, 0
1, 375887, Note_on_c, 0, 91, 0
1, 375887, Note_on_c, 0, 91, 71
1, 375890, Note_on_c, 0, 72, 71
1, 375956, Note_on_c, 0, 72, 0
1, 375956, Note_on_c, 0, 88, 68
1, 376026, Note_on_c, 0, 88, 0
1, 376026, Note_on_c, 0, 91, 0
1, 376026, Note_on_c, 0, 91, 71
1, 376029, Note_on_c, 0, 67, 62
1, 376096, Note_on_c, 0, 67, 0
1, 376096, Note_on_c, 0, 88, 68
1, 376166, Note_on_c, 0, 88, 0
1, 376166, Note_on_c, 0, 91, 0
1, 376166, Note_on_c, 0, 91, 72
1, 376169, Note_on_c, 0, 76, 71
1, 376235, Note_on_c, 0, 76, 0
1, 376235, Note_on_c, 0, 88, 68
1, 376305, Note_on_c, 0, 88, 0
1, 376305, Note_on_c, 0, 91, 0
1, 376305, Note_on_c, 0, 91, 71
1, 376308, Note_on_c, 0, 72, 60
1, 376375, Note_on_c, 0, 72, 0
1, 376375, Note_on_c, 0, 88, 68
1, 376445, Note_on_c, 0, 88, 0
1, 376445, Note_on_c, 0, 91, 0
1, 376445, Note_on_c, 0, 91, 72
1, 376448, Note_on_c, 0, 79, 71
1, 376514, Note_on_c, 0, 79, 0
1, 376514, Note_on_c, 0, 88, 68
1, 376584, Note_on_c, 0, 88, 0
1, 376584, Note_on_c, 0, 91, 0
1, 376584, Note_on_c, 0, 91, 71
1, 376587, Note_on_c, 0, 76, 62
1, 376654, Note_on_c, 0, 76, 0
1, 376654, Note_on_c, 0, 88, 68
1, 376725, Note_on_c, 0, 88, 0
1, 376725, Note_on_c, 0, 91, 0
1, 376725, Note_on_c, 0, 91, 73
1, 376728, Note_on_c, 0, 84, 71
1, 376795, Note_on_c, 0, 84, 0
1, 376795, Note_on_c, 0, 88, 68
1, 376866, Note_on_c, 0, 88, 0
1, 376866, Note_on_c, 0, 91, 0
1, 376866, Note_on_c, 0, 91, 72
1, 376869, Note_on_c, 0, 79, 63
1, 376937, Note_on_c, 0, 79, 0
1, 376937, Note_on_c, 0, 88, 68
1, 377009, Note_on_c, 0, 88, 0
1, 377009, Note_on_c, 0, 91, 0
1, 377009, Note_on_c, 0, 83, 67
1, 377079, Note_on_c, 0, 83, 0
1, 377079, Note_on_c, 0, 89, 63
1, 377149, Note_on_c, 0, 89, 0
1, 377149, Note_on_c, 0, 91, 66
1, 377149, Note_on_c, 0, 79, 58
1, 377219, Note_on_c, 0, 79, 0
1, 377219, Note_on_c, 0, 89, 62
1, 377289, Note_on_c, 0, 89, 0
1, 377289, Note_on_c, 0, 91, 0
1, 377289, Note_on_c, 0, 92, 65
1, 377292, Note_on_c, 0, 83, 64
1, 377359, Note_on_c, 0, 83, 0
1, 377359, Note_on_c, 0, 89, 61
1, 377428, Note_on_c, 0, 89, 0
1, 377428, Note_on_c, 0, 92, 0
1, 377428, Note_on_c, 0, 91, 63
1, 377431, Note_on_c, 0, 79, 57
1, 377498, Note_on_c, 0, 79, 0
1, 377498, Note_on_c, 0, 89, 60
1, 377567, Note_on_c, 0, 89, 0
1, 377567, Note_on_c, 0, 91, 0
1, 377567, Note_on_c, 0, 92, 63
1, 377570, Note_on_c, 0, 83, 62
1, 377636, Note_on_c, 0, 83, 0
1, 377636, Note_on_c, 0, 89, 59
1, 377704, Note_on_c, 0, 89, 0
1, 377704, Note_on_c, 0, 92, 0
1, 377704, Note_on_c, 0, 91, 61
1, 377707, Note_on_c, 0, 79, 53
1, 377773, Note_on_c, 0, 79, 0
1, 377773, Note_on_c, 0, 89, 58
1, 377842, Note_on_c, 0, 89, 0
1, 377842, Note_on_c, 0, 91, 0
1, 377842, Note_on_c, 0, 92, 61
1, 377845, Note_on_c, 0, 83, 60
1, 377910, Note_on_c, 0, 83, 0
1, 377910, Note_on_c, 0, 89, 57
1, 377978, Note_on_c, 0, 89, 0
1, 377978, Note_on_c, 0, 92, 0
1, 377978, Note_on_c, 0, 91, 60
1, 377981, Note_on_c, 0, 79, 52
1, 378047, Note_on_c, 0, 79, 0
1, 378047, Note_on_c, 0, 89, 56
1, 378115, Note_on_c, 0, 89, 0
1, 378115, Note_on_c, 0, 91, 0
1, 378115, Note_on_c, 0, 92, 58
1, 378118, Note_on_c, 0, 83, 57
1, 378182, Note_on_c, 0, 83, 0
1, 378182, Note_on_c, 0, 89, 55
1, 378251, Note_on_c, 0, 89, 0
1, 378251, Note_on_c, 0, 92, 0
1, 378251, Note_on_c, 0, 91, 57
1, 378254, Note_on_c, 0, 79, 51
1, 378318, Note_on_c, 0, 79, 0
1, 378318, Note_on_c, 0, 89, 55
1, 378386, Note_on_c, 0, 89, 0
1, 378386, Note_on_c, 0, 91, 0
1, 378386, Note_on_c, 0, 92, 58
1, 378389, Note_on_c, 0, 83, 57
1, 378454, Note_on_c, 0, 83, 0
1, 378454, Note_on_c, 0, 89, 55
1, 378521, Note_on_c, 0, 89, 0
1, 378521, Note_on_c, 0, 92, 0
1, 378521, Note_on_c, 0, 91, 57
1, 378524, Note_on_c, 0, 79, 52
1, 378590, Note_on_c, 0, 79, 0
1, 378590, Note_on_c, 0, 89, 55
1, 378659, Note_on_c, 0, 89, 0
1, 378659, Note_on_c, 0, 91, 0
1, 378659, Note_on_c, 0, 92, 58
1, 378662, Note_on_c, 0, 83, 57
1, 378729, Note_on_c, 0, 83, 0
1, 378729, Note_on_c, 0, 89, 55
1, 378799, Note_on_c, 0, 89, 0
1, 378799, Note_on_c, 0, 92, 0
1, 378799, Note_on_c, 0, 91, 57
1, 378802, Note_on_c, 0, 79, 50
1, 378869, Note_on_c, 0, 79, 0
1, 378869, Note_on_c, 0, 89, 55
1, 378939, Note_on_c, 0, 89, 0
1, 378939, Note_on_c, 0, 91, 0
1, 378939, Note_on_c, 0, 92, 59
1, 378942, Note_on_c, 0, 83, 57
1, 379010, Note_on_c, 0, 83, 0
1, 379010, Note_on_c, 0, 89, 55
1, 379080, Note_on_c, 0, 89, 0
1, 379080, Note_on_c, 0, 92, 0
1, 379080, Note_on_c, 0, 91, 58
1, 379083, Note_on_c, 0, 79, 51
1, 379151, Note_on_c, 0, 79, 0
1, 379151, Note_on_c, 0, 89, 55
1, 379221, Note_on_c, 0, 89, 0
1, 379221, Note_on_c, 0, 91, 0
1, 379221, Note_on_c, 0, 93, 58
1, 379224, Note_on_c, 0, 83, 58
1, 379269, Note_on_c, 0, 83, 0
1, 379269, Note_on_c, 0, 84, 53
1, 379293, Note_on_c, 0, 89, 55
1, 379317, Note_on_c, 0, 84, 0
1, 379317, Note_on_c, 0, 83, 57
1, 379364, Note_on_c, 0, 89, 0
1, 379364, Note_on_c, 0, 93, 0
1, 379364, Note_on_c, 0, 91, 57
1, 379367, Note_on_c, 0, 83, 0
1, 379367, Note_on_c, 0, 84, 52
1, 379411, Note_on_c, 0, 84, 0
1, 379411, Note_on_c, 0, 83, 57
1, 379435, Note_on_c, 0, 89, 56
1, 379458, Note_on_c, 0, 83, 0
1, 379458, Note_on_c, 0, 84, 54
1, 379505, Note_on_c, 0, 89, 0
1, 379505, Note_on_c, 0, 91, 0
1, 379505, Note_on_c, 0, 93, 59
1, 379508, Note_on_c, 0, 84, 0
1, 379508, Note_on_c, 0, 83, 58
1, 379551, Note_on_c, 0, 83, 0
1, 379551, Note_on_c, 0, 84, 54
1, 379575, Note_on_c, 0, 89, 57
1, 379599, Note_on_c, 0, 84, 0
1, 379599, Note_on_c, 0, 83, 58
1, 379646, Note_on_c, 0, 89, 0
1, 379646, Note_on_c, 0, 93, 0
1, 379646, Note_on_c, 0, 91, 59
1, 379649, Note_on_c, 0, 83, 0
1, 379649, Note_on_c, 0, 84, 54
1, 379693, Note_on_c, 0, 84, 0
1, 379693, Note_on_c, 0, 83, 59
1, 379716, Note_on_c, 0, 89, 57
1, 379740, Note_on_c, 0, 83, 0
1, 379740, Note_on_c, 0, 84, 55
1, 379786, Note_on_c, 0, 89, 0
1, 379786, Note_on_c, 0, 91, 0
1, 379786, Note_on_c, 0, 93, 61
1, 379789, Note_on_c, 0, 84, 0
1, 379789, Note_on_c, 0, 83, 59
1, 379833, Note_on_c, 0, 83, 0
1, 379833, Note_on_c, 0, 84, 56
1, 379856, Note_on_c, 0, 89, 58
1, 379880, Note_on_c, 0, 84, 0
1, 379880, Note_on_c, 0, 83, 60
1, 379926, Note_on_c, 0, 89, 0
1, 379926, Note_on_c, 0, 93, 0
1, 379926, Note_on_c, 0, 91, 61
1, 379929, Note_on_c, 0, 83, 0
1, 379929, Note_on_c, 0, 84, 56
1, 379973, Note_on_c, 0, 84, 0
1, 379973, Note_on_c, 0, 83, 60
1, 379996, Note_on_c, 0, 89, 59
1, 380019, Note_on_c, 0, 83, 0
1, 380019, Note_on_c, 0, 84, 57
1, 380066, Note_on_c, 0, 89, 0
1, 380066, Note_on_c, 0, 91, 0
1, 380066, Note_on_c, 0, 93, 64
1, 380069, Note_on_c, 0, 84, 0
1, 380069, Note_on_c, 0, 83, 61
1, 380113, Note_on_c, 0, 83, 0
1, 380113, Note_on_c, 0, 84, 57
1, 380136, Note_on_c, 0, 89, 60
1, 380159, Note_on_c, 0, 84, 0
1, 380159, Note_on_c, 0, 83, 61
1, 380206, Note_on_c, 0, 89, 0
1, 380206, Note_on_c, 0, 93, 0
1, 380206, Note_on_c, 0, 91, 64
1, 380209, Note_on_c, 0, 83, 0
1, 380209, Note_on_c, 0, 84, 57
1, 380253, Note_on_c, 0, 84, 0
1, 380253, Note_on_c, 0, 83, 62
1, 380276, Note_on_c, 0, 89, 61
1, 380299, Note_on_c, 0, 83, 0
1, 380299, Note_on_c, 0, 84, 58
1, 380345, Note_on_c, 0, 89, 0
1, 380345, Note_on_c, 0, 91, 0
1, 380345, Note_on_c, 0, 93, 65
1, 380348, Note_on_c, 0, 84, 0
1, 380348, Note_on_c, 0, 83, 62
1, 380392, Note_on_c, 0, 83, 0
1, 380392, Note_on_c, 0, 84, 57
1, 380415, Note_on_c, 0, 93, 0
1, 380438, Note_on_c, 0, 84, 0
1, 380438, Note_on_c, 0, 83, 63
1, 380484, Note_on_c, 0, 83, 0
1, 380484, Note_on_c, 0, 89, 64
1, 380484, Note_on_c, 0, 91, 64
1, 380487, Note_on_c, 0, 84, 58
1, 380531, Note_on_c, 0, 84, 0
1, 380531, Note_on_c, 0, 83, 63
1, 380554, Note_on_c, 0, 91, 0
1, 380554, Note_on_c, 0, 89, 0
1, 380577, Note_on_c, 0, 83, 0
1, 380577, Note_on_c, 0, 84, 58
1, 380623, Note_on_c, 0, 84, 0
1, 380623, Note_on_c, 0, 89, 67
1, 380623, Note_on_c, 0, 91, 67
1, 380626, Note_on_c, 0, 83, 64
1, 380670, Note_on_c, 0, 83, 0
1, 380670, Note_on_c, 0, 84, 59
1, 380694, Note_on_c, 0, 91, 0
1, 380694, Note_on_c, 0, 89, 0
1, 380717, Note_on_c, 0, 84, 0
1, 380717, Note_on_c, 0, 83, 64
1, 380763, Note_on_c, 0, 83, 0
1, 380763, Note_on_c, 0, 89, 67
1, 380763, Note_on_c, 0, 91, 67
1, 380766, Note_on_c, 0, 84, 60
1, 380810, Note_on_c, 0, 84, 0
1, 380810, Note_on_c, 0, 83, 65
1, 380833, Note_on_c, 0, 91, 0
1, 380833, Note_on_c, 0, 89, 0
1, 380856, Note_on_c, 0, 83, 0
1, 380856, Note_on_c, 0, 84, 60
1, 380902, Note_on_c, 0, 84, 0
1, 380902, Note_on_c, 0, 89, 70
1, 380902, Note_on_c, 0, 91, 70
1, 380905, Note_on_c, 0, 83, 65
1, 380949, Note_on_c, 0, 83, 0
1, 380949, Note_on_c, 0, 84, 59
1, 380972, Note_on_c, 0, 91, 0
1, 380972, Note_on_c, 0, 89, 0
1, 380995, Note_on_c, 0, 84, 0
1, 380995, Note_on_c, 0, 83, 66
1, 381042, Note_on_c, 0, 83, 0
1, 381042, Note_on_c, 0, 89, 70
1, 381042, Note_on_c, 0, 91, 70
1, 381045, Note_on_c, 0, 84, 59
1, 381088, Note_on_c, 0, 84, 0
1, 381088, Note_on_c, 0, 83, 66
1, 381111, Note_on_c, 0, 91, 0
1, 381111, Note_on_c, 0, 89, 0
1, 381135, Note_on_c, 0, 83, 0
1, 381135, Note_on_c, 0, 84, 61
1, 381181, Note_on_c, 0, 84, 0
1, 381181, Note_on_c, 0, 89, 75
1, 381181, Note_on_c, 0, 91, 75
1, 381184, Note_on_c, 0, 83, 71
1, 381251, Note_on_c, 0, 83, 0
1, 381251, Note_on_c, 0, 91, 0
1, 381251, Note_on_c, 0, 89, 0
1, 381254, Note_on_c, 0, 84, 65
1, 381321, Note_on_c, 0, 84, 0
1, 381321, Note_on_c, 0, 89, 74
1, 381321, Note_on_c, 0, 91, 74
1, 381324, Note_on_c, 0, 81, 73
1, 381394, Note_on_c, 0, 81, 0
1, 381394, Note_on_c, 0, 91, 0
1, 381394, Note_on_c, 0, 89, 0
1, 381397, Note_on_c, 0, 83, 68
1, 381469, Note_on_c, 0, 83, 0
1, 381469, Note_on_c, 0, 84, 103
1, 381469, Note_on_c, 0, 60, 73
1, 381472, Note_on_c, 0, 72, 83
1, 382044, Note_on_c, 0, 72, 0
1, 382044, Note_on_c, 0, 64, 59
1, 382044, Note_on_c, 0, 67, 59
1, 382047, Note_on_c, 0, 70, 66
1, 382324, Note_on_c, 0, 84, 0
1, 382324, Note_on_c, 0, 84, 79
1, 382394, Note_on_c, 0, 84, 0
1, 382394, Note_on_c, 0, 82, 78
1, 382464, Note_on_c, 0, 82, 0
1, 382464, Note_on_c, 0, 80, 77
1, 382534, Note_on_c, 0, 80, 0
1, 382534, Note_on_c, 0, 79, 76
1, 382604, Note_on_c, 0, 79, 0
1, 382604, Note_on_c, 0, 70, 0
1, 382604, Note_on_c, 0, 80, 79
1, 382607, Note_on_c, 0, 67, 0
1, 382607, Note_on_c, 0, 64, 0
1, 382607, Note_on_c, 0, 65, 60
1, 382610, Note_on_c, 0, 68, 68
1, 382674, Note_on_c, 0, 80, 0
1, 382674, Note_on_c, 0, 79, 78
1, 382744, Note_on_c, 0, 79, 0
1, 382744, Note_on_c, 0, 77, 77
1, 382814, Note_on_c, 0, 77, 0
1, 382814, Note_on_c, 0, 76, 76
1, 382884, Note_on_c, 0, 76, 0
1, 382884, Note_on_c, 0, 77, 72
1, 382954, Note_on_c, 0, 77, 0
1, 382954, Note_on_c, 0, 79, 73
1, 383024, Note_on_c, 0, 79, 0
1, 383024, Note_on_c, 0, 80, 74
1, 383094, Note_on_c, 0, 80, 0
1, 383094, Note_on_c, 0, 82, 75
1, 383168, Note_on_c, 0, 82, 0
1, 383168, Note_on_c, 0, 68, 0
1, 383168, Note_on_c, 0, 84, 77
1, 383171, Note_on_c, 0, 65, 0
1, 383171, Note_on_c, 0, 64, 60
1, 383171, Note_on_c, 0, 67, 60
1, 383174, Note_on_c, 0, 70, 67
1, 383238, Note_on_c, 0, 84, 0
1, 383238, Note_on_c, 0, 85, 78
1, 383308, Note_on_c, 0, 85, 0
1, 383308, Note_on_c, 0, 84, 78
1, 383378, Note_on_c, 0, 84, 0
1, 383378, Note_on_c, 0, 83, 77
1, 383448, Note_on_c, 0, 83, 0
1, 383448, Note_on_c, 0, 84, 77
1, 383518, Note_on_c, 0, 84, 0
1, 383518, Note_on_c, 0, 82, 77
1, 383588, Note_on_c, 0, 82, 0
1, 383588, Note_on_c, 0, 80, 77
1, 383659, Note_on_c, 0, 80, 0
1, 383659, Note_on_c, 0, 79, 77
1, 383729, Note_on_c, 0, 79, 0
1, 383729, Note_on_c, 0, 70, 0
1, 383729, Note_on_c, 0, 80, 78
1, 383732, Note_on_c, 0, 60, 0
1, 383732, Note_on_c, 0, 67, 0
1, 383732, Note_on_c, 0, 64, 0
1, 383735, Note_on_c, 0, 68, 69
1, 383735, Note_on_c, 0, 65, 61
1, 383800, Note_on_c, 0, 80, 0
1, 383800, Note_on_c, 0, 82, 78
1, 383870, Note_on_c, 0, 82, 0
1, 383870, Note_on_c, 0, 80, 78
1, 383941, Note_on_c, 0, 80, 0
1, 383941, Note_on_c, 0, 79, 74
1, 384012, Note_on_c, 0, 79, 0
1, 384012, Note_on_c, 0, 65, 0
1, 384012, Note_on_c, 0, 77, 77
1, 384015, Note_on_c, 0, 68, 0
1, 384083, Note_on_c, 0, 77, 0
1, 384083, Note_on_c, 0, 76, 73
1, 384154, Note_on_c, 0, 76, 0
1, 384154, Note_on_c, 0, 77, 77
1, 384226, Note_on_c, 0, 77, 0
1, 384226, Note_on_c, 0, 79, 73
1, 384297, Note_on_c, 0, 79, 0
1, 384297, Note_on_c, 0, 68, 66
1, 384297, Note_on_c, 0, 80, 80
1, 384300, Note_on_c, 0, 65, 68
1, 384300, Note_on_c, 0, 61, 60
1, 384300, Note_on_c, 0, 56, 60
1, 384303, Note_on_c, 0, 53, 60
1, 384342, Control_c, 0, 64, 127
1, 384588, Note_on_c, 0, 80, 0
1, 384588, Note_on_c, 0, 77, 73
1, 384734, Note_on_c, 0, 77, 0
1, 384734, Note_on_c, 0, 73, 73
1, 384884, Note_on_c, 0, 73, 0
1, 384884, Note_on_c, 0, 68, 0
1, 384884, Note_on_c, 0, 67, 66
1, 384887, Note_on_c, 0, 65, 0
1, 384887, Note_on_c, 0, 53, 0
1, 384887, Note_on_c, 0, 79, 78
1, 384890, Note_on_c, 0, 61, 0
1, 384890, Note_on_c, 0, 56, 0
1, 384890, Note_on_c, 0, 60, 60
1, 384893, Note_on_c, 0, 55, 60
1, 384893, Note_on_c, 0, 63, 67
1, 384893, Control_c, 0, 64, 0
1, 385002, Control_c, 0, 64, 127
1, 385175, Note_on_c, 0, 79, 0
1, 385175, Note_on_c, 0, 75, 73
1, 385321, Note_on_c, 0, 75, 0
1, 385321, Note_on_c, 0, 72, 73
1, 385472, Note_on_c, 0, 72, 0
1, 385472, Note_on_c, 0, 67, 0
1, 385472, Note_on_c, 0, 65, 66
1, 385475, Note_on_c, 0, 55, 0
1, 385475, Note_on_c, 0, 63, 0
1, 385475, Note_on_c, 0, 77, 78
1, 385478, Note_on_c, 0, 60, 0
1, 385478, Note_on_c, 0, 55, 58
1, 385478, Note_on_c, 0, 59, 58
1, 385481, Note_on_c, 0, 62, 65
1, 385481, Control_c, 0, 64, 0
1, 385555, Control_c, 0, 64, 127
1, 385764, Note_on_c, 0, 77, 0
1, 385764, Note_on_c, 0, 74, 73
1, 385910, Note_on_c, 0, 74, 0
1, 385910, Note_on_c, 0, 71, 73
1, 386056, Note_on_c, 0, 71, 0
1, 386056, Note_on_c, 0, 65, 0
1, 386056, Note_on_c, 0, 72, 93
1, 386059, Note_on_c, 0, 59, 0
1, 386059, Note_on_c, 0, 62, 0
1, 386059, Note_on_c, 0, 55, 0
1, 386062, Control_c, 0, 64, 0
1, 386062, Note_on_c, 0, 60, 77
1, 386062, Note_on_c, 0, 48, 66
1, 386631, Note_on_c, 0, 60, 0
1, 386631, Note_on_c, 0, 52, 59
1, 386631, Note_on_c, 0, 55, 59
1, 386634, Note_on_c, 0, 58, 66
1, 386910, Note_on_c, 0, 72, 0
1, 386910, Note_on_c, 0, 72, 79
1, 386980, Note_on_c, 0, 72, 0
1, 386980, Note_on_c, 0, 70, 78
1, 387050, Note_on_c, 0, 70, 0
1, 387050, Note_on_c, 0, 69, 77
1, 387119, Note_on_c, 0, 69, 0
1, 387119, Note_on_c, 0, 67, 76
1, 387189, Note_on_c, 0, 67, 0
1, 387189, Note_on_c, 0, 58, 0
1, 387189, Note_on_c, 0, 69, 79
1, 387192, Note_on_c, 0, 55, 0
1, 387192, Note_on_c, 0, 52, 0
1, 387192, Note_on_c, 0, 53, 60
1, 387195, Note_on_c, 0, 57, 68
1, 387259, Note_on_c, 0, 69, 0
1, 387259, Note_on_c, 0, 67, 78
1, 387329, Note_on_c, 0, 67, 0
1, 387329, Note_on_c, 0, 65, 77
1, 387398, Note_on_c, 0, 65, 0
1, 387398, Note_on_c, 0, 64, 76
1, 387468, Note_on_c, 0, 64, 0
1, 387468, Note_on_c, 0, 65, 72
1, 387538, Note_on_c, 0, 65, 0
1, 387538, Note_on_c, 0, 67, 73
1, 387608, Note_on_c, 0, 67, 0
1, 387608, Note_on_c, 0, 69, 74
1, 387677, Note_on_c, 0, 69, 0
1, 387677, Note_on_c, 0, 70, 75
1, 387752, Note_on_c, 0, 70, 0
1, 387752, Note_on_c, 0, 57, 0
1, 387752, Note_on_c, 0, 72, 77
1, 387755, Note_on_c, 0, 53, 0
1, 387755, Note_on_c, 0, 55, 60
1, 387755, Note_on_c, 0, 58, 67
1, 387758, Note_on_c, 0, 52, 60
1, 387822, Note_on_c, 0, 72, 0
1, 387822, Note_on_c, 0, 74, 78
1, 387892, Note_on_c, 0, 74, 0
1, 387892, Note_on_c, 0, 72, 78
1, 387962, Note_on_c, 0, 72, 0
1, 387962, Note_on_c, 0, 71, 77
1, 388032, Note_on_c, 0, 71, 0
1, 388032, Note_on_c, 0, 72, 77
1, 388101, Note_on_c, 0, 72, 0
1, 388101, Note_on_c, 0, 70, 77
1, 388170, Note_on_c, 0, 70, 0
1, 388170, Note_on_c, 0, 69, 77
1, 388240, Note_on_c, 0, 69, 0
1, 388240, Note_on_c, 0, 67, 77
1, 388310, Note_on_c, 0, 67, 0
1, 388310, Note_on_c, 0, 52, 0
1, 388310, Note_on_c, 0, 69, 78
1, 388313, Note_on_c, 0, 48, 0
1, 388313, Note_on_c, 0, 58, 0
1, 388313, Note_on_c, 0, 55, 0
1, 388316, Note_on_c, 0, 53, 69
1, 388316, Note_on_c, 0, 57, 69
1, 388380, Note_on_c, 0, 69, 0
1, 388380, Note_on_c, 0, 70, 78
1, 388450, Note_on_c, 0, 70, 0
1, 388450, Note_on_c, 0, 69, 78
1, 388521, Note_on_c, 0, 69, 0
1, 388521, Note_on_c, 0, 67, 74
1, 388592, Note_on_c, 0, 67, 0
1, 388592, Note_on_c, 0, 57, 0
1, 388592, Note_on_c, 0, 65, 77
1, 388595, Note_on_c, 0, 53, 0
1, 388663, Note_on_c, 0, 65, 0
1, 388663, Note_on_c, 0, 64, 73
1, 388734, Note_on_c, 0, 64, 0
1, 388734, Note_on_c, 0, 65, 77
1, 388806, Note_on_c, 0, 65, 0
1, 388806, Note_on_c, 0, 67, 73
1, 388878, Note_on_c, 0, 67, 0
1, 388878, Note_on_c, 0, 57, 66
1, 388878, Note_on_c, 0, 69, 80
1, 388881, Note_on_c, 0, 41, 60
1, 388881, Note_on_c, 0, 50, 68
1, 388881, Note_on_c, 0, 45, 60
1, 388922, Control_c, 0, 64, 127
1, 389168, Note_on_c, 0, 69, 0
1, 389168, Note_on_c, 0, 65, 73
1, 389313, Note_on_c, 0, 65, 0
1, 389313, Note_on_c, 0, 62, 73
1, 389464, Note_on_c, 0, 62, 0
1, 389464, Note_on_c, 0, 57, 0
1, 389464, Note_on_c, 0, 55, 66
1, 389467, Note_on_c, 0, 50, 0
1, 389467, Note_on_c, 0, 45, 0
1, 389467, Note_on_c, 0, 67, 78
1, 389470, Note_on_c, 0, 41, 0
1, 389470, Note_on_c, 0, 48, 60
1, 389470, Note_on_c, 0, 43, 60
1, 389473, Note_on_c, 0, 52, 67
1, 389473, Control_c, 0, 64, 0
1, 389581, Control_c, 0, 64, 127
1, 389755, Note_on_c, 0, 67, 0
1, 389755, Note_on_c, 0, 64, 73
1, 389901, Note_on_c, 0, 64, 0
1, 389901, Note_on_c, 0, 60, 73
1, 390051, Note_on_c, 0, 60, 0
1, 390051, Note_on_c, 0, 52, 0
1, 390051, Note_on_c, 0, 65, 78
1, 390054, Note_on_c, 0, 48, 0
1, 390054, Note_on_c, 0, 50, 58
1, 390054, Note_on_c, 0, 53, 65
1, 390057, Control_c, 0, 64, 0
1, 390171, Control_c, 0, 64, 127
1, 390342, Note_on_c, 0, 65, 0
1, 390342, Note_on_c, 0, 62, 73
1, 390490, Note_on_c, 0, 62, 0
1, 390490, Note_on_c, 0, 59, 73
1, 390638, Note_on_c, 0, 59, 0
1, 390638, Note_on_c, 0, 55, 0
1, 390638, Note_on_c, 0, 55, 72
1, 390641, Note_on_c, 0, 50, 0
1, 390641, Note_on_c, 0, 53, 0
1, 390641, Note_on_c, 0, 60, 76
1, 390644, Note_on_c, 0, 43, 0
1, 390644, Note_on_c, 0, 48, 58
1, 390644, Note_on_c, 0, 52, 65
1, 390647, Control_c, 0, 64, 0
1, 390939, Note_on_c, 0, 60, 0
1, 390939, Note_on_c, 0, 55, 0
1, 390939, Note_on_c, 0, 72, 89
1, 390942, Note_on_c, 0, 48, 0
1, 390942, Note_on_c, 0, 52, 0
1, 390942, Note_on_c, 0, 48, 72
1, 390945, Note_on_c, 0, 40, 63
1, 391087, Note_on_c, 0, 72, 0
1, 391087, Note_on_c, 0, 71, 85
1, 391234, Note_on_c, 0, 71, 0
1, 391234, Note_on_c, 0, 40, 0
1, 391234, Note_on_c, 0, 69, 87
1, 391237, Note_on_c, 0, 41, 63
1, 391382, Note_on_c, 0, 48, 0
1, 391382, Note_on_c, 0, 50, 70
1, 391530, Note_on_c, 0, 50, 0
1, 391530, Note_on_c, 0, 69, 0
1, 391530, Note_on_c, 0, 65, 82
1, 391533, Note_on_c, 0, 52, 72
1, 391677, Note_on_c, 0, 52, 0
1, 391677, Note_on_c, 0, 65, 0
1, 391677, Note_on_c, 0, 62, 75
1, 391680, Note_on_c, 0, 53, 76
1, 391830, Note_on_c, 0, 53, 0
1, 391830, Note_on_c, 0, 62, 0
1, 391830, Note_on_c, 0, 67, 72
1, 391833, Note_on_c, 0, 41, 0
1, 391833, Note_on_c, 0, 43, 56
1, 391833, Note_on_c, 0, 52, 56
1, 391836, Note_on_c, 0, 55, 62
1, 391929, Control_c, 0, 64, 127
1, 392126, Note_on_c, 0, 67, 0
1, 392126, Note_on_c, 0, 64, 67
1, 392274, Note_on_c, 0, 64, 0
1, 392274, Note_on_c, 0, 60, 67
1, 392422, Note_on_c, 0, 60, 0
1, 392422, Note_on_c, 0, 55, 0
1, 392422, Note_on_c, 0, 65, 72
1, 392425, Note_on_c, 0, 52, 0
1, 392425, Note_on_c, 0, 50, 54
1, 392425, Note_on_c, 0, 53, 60
1, 392425, Control_c, 0, 64, 0
1, 392536, Control_c, 0, 64, 127
1, 392719, Note_on_c, 0, 65, 0
1, 392719, Note_on_c, 0, 62, 67
1, 392867, Note_on_c, 0, 62, 0
1, 392867, Note_on_c, 0, 59, 67
1, 393015, Note_on_c, 0, 59, 0
1, 393015, Note_on_c, 0, 53, 0
1, 393015, Note_on_c, 0, 60, 76
1, 393018, Note_on_c, 0, 50, 0
1, 393018, Note_on_c, 0, 43, 0
1, 393018, Note_on_c, 0, 52, 65
1, 393021, Note_on_c, 0, 48, 58
1, 393021, Control_c, 0, 64, 0
1, 393310, Note_on_c, 0, 48, 0
1, 393310, Note_on_c, 0, 60, 0
1, 393310, Note_on_c, 0, 77, 89
1, 393313, Note_on_c, 0, 52, 0
1, 393313, Note_on_c, 0, 45, 63
1, 393313, Note_on_c, 0, 53, 72
1, 393458, Note_on_c, 0, 77, 0
1, 393458, Note_on_c, 0, 76, 85
1, 393607, Note_on_c, 0, 76, 0
1, 393607, Note_on_c, 0, 45, 0
1, 393607, Note_on_c, 0, 74, 87
1, 393610, Note_on_c, 0, 46, 63
1, 393755, Note_on_c, 0, 53, 0
1, 393755, Note_on_c, 0, 55, 70
1, 393903, Note_on_c, 0, 55, 0
1, 393903, Note_on_c, 0, 74, 0
1, 393903, Note_on_c, 0, 70, 82
1, 393906, Note_on_c, 0, 57, 72
1, 394051, Note_on_c, 0, 57, 0
1, 394051, Note_on_c, 0, 70, 0
1, 394051, Note_on_c, 0, 67, 75
1, 394054, Note_on_c, 0, 58, 76
1, 394205, Note_on_c, 0, 58, 0
1, 394205, Note_on_c, 0, 67, 0
1, 394205, Note_on_c, 0, 72, 72
1, 394208, Note_on_c, 0, 46, 0
1, 394208, Note_on_c, 0, 60, 62
1, 394208, Note_on_c, 0, 57, 56
1, 394211, Note_on_c, 0, 48, 56
1, 394304, Control_c, 0, 64, 127
1, 394503, Note_on_c, 0, 72, 0
1, 394503, Note_on_c, 0, 69, 67
1, 394651, Note_on_c, 0, 69, 0
1, 394651, Note_on_c, 0, 65, 67
1, 394805, Note_on_c, 0, 65, 0
1, 394805, Note_on_c, 0, 57, 0
1, 394805, Note_on_c, 0, 70, 72
1, 394808, Note_on_c, 0, 60, 0
1, 394808, Note_on_c, 0, 55, 54
1, 394808, Note_on_c, 0, 58, 60
1, 394811, Control_c, 0, 64, 0
1, 394901, Control_c, 0, 64, 127
1, 395103, Note_on_c, 0, 70, 0
1, 395103, Note_on_c, 0, 67, 67
1, 395252, Note_on_c, 0, 67, 0
1, 395252, Note_on_c, 0, 64, 67
1, 395406, Note_on_c, 0, 64, 0
1, 395406, Note_on_c, 0, 58, 0
1, 395406, Note_on_c, 0, 65, 76
1, 395409, Note_on_c, 0, 55, 0
1, 395409, Note_on_c, 0, 48, 0
1, 395409, Note_on_c, 0, 56, 65
1, 395412, Note_on_c, 0, 53, 58
1, 395412, Control_c, 0, 64, 0
1, 395715, Note_on_c, 0, 53, 0
1, 395715, Note_on_c, 0, 65, 0
1, 395715, Note_on_c, 0, 77, 88
1, 395718, Note_on_c, 0, 56, 0
1, 395718, Note_on_c, 0, 44, 63
1, 395718, Note_on_c, 0, 53, 72
1, 395863, Note_on_c, 0, 77, 0
1, 395863, Note_on_c, 0, 75, 84
1, 396011, Note_on_c, 0, 75, 0
1, 396011, Note_on_c, 0, 44, 0
1, 396011, Note_on_c, 0, 73, 87
1, 396014, Note_on_c, 0, 46, 63
1, 396159, Note_on_c, 0, 53, 0
1, 396159, Note_on_c, 0, 55, 70
1, 396307, Note_on_c, 0, 55, 0
1, 396307, Note_on_c, 0, 73, 0
1, 396307, Note_on_c, 0, 70, 82
1, 396310, Note_on_c, 0, 56, 72
1, 396455, Note_on_c, 0, 56, 0
1, 396455, Note_on_c, 0, 70, 0
1, 396455, Note_on_c, 0, 67, 75
1, 396458, Note_on_c, 0, 58, 76
1, 396610, Note_on_c, 0, 58, 0
1, 396610, Note_on_c, 0, 67, 0
1, 396610, Note_on_c, 0, 72, 72
1, 396613, Note_on_c, 0, 46, 0
1, 396613, Note_on_c, 0, 48, 56
1, 396613, Note_on_c, 0, 60, 62
1, 396616, Note_on_c, 0, 56, 56
1, 396709, Control_c, 0, 64, 127
1, 396907, Note_on_c, 0, 72, 0
1, 396907, Note_on_c, 0, 68, 67
1, 397056, Note_on_c, 0, 68, 0
1, 397056, Note_on_c, 0, 65, 67
1, 397209, Note_on_c, 0, 65, 0
1, 397209, Note_on_c, 0, 56, 0
1, 397209, Note_on_c, 0, 70, 72
1, 397212, Note_on_c, 0, 60, 0
1, 397212, Note_on_c, 0, 55, 54
1, 397212, Note_on_c, 0, 58, 60
1, 397215, Control_c, 0, 64, 0
1, 397315, Control_c, 0, 64, 127
1, 397507, Note_on_c, 0, 70, 0
1, 397507, Note_on_c, 0, 67, 67
1, 397656, Note_on_c, 0, 67, 0
1, 397656, Note_on_c, 0, 64, 67
1, 397810, Note_on_c, 0, 64, 0
1, 397810, Note_on_c, 0, 65, 61
1, 397810, Control_c, 0, 91, 127
1, 397813, Note_on_c, 0, 48, 0
1, 397813, Note_on_c, 0, 58, 0
1, 397813, Note_on_c, 0, 55, 0
1, 397816, Note_on_c, 0, 49, 46
1, 397816, Note_on_c, 0, 56, 49
1, 397816, Control_c, 0, 64, 0
1, 397819, Control_c, 0, 64, 0
1, 397819, Note_on_c, 0, 53, 46
1, 397880, Note_on_c, 0, 53, 0
1, 397880, Note_on_c, 0, 56, 0
1, 397880, Note_on_c, 0, 49, 0
1, 397950, Note_on_c, 0, 65, 0
1, 397950, Note_on_c, 0, 49, 49
1, 397950, Note_on_c, 0, 53, 54
1, 397953, Note_on_c, 0, 37, 43
1, 397953, Note_on_c, 0, 44, 47
1, 398020, Note_on_c, 0, 44, 0
1, 398020, Note_on_c, 0, 49, 0
1, 398020, Note_on_c, 0, 53, 0
1, 398023, Note_on_c, 0, 37, 0
1, 398090, Note_on_c, 0, 49, 49
1, 398090, Note_on_c, 0, 53, 54
1, 398090, Note_on_c, 0, 44, 47
1, 398093, Note_on_c, 0, 37, 43
1, 398160, Note_on_c, 0, 37, 0
1, 398160, Note_on_c, 0, 49, 0
1, 398160, Note_on_c, 0, 53, 0
1, 398163, Note_on_c, 0, 44, 0
1, 398229, Note_on_c, 0, 49, 49
1, 398229, Note_on_c, 0, 53, 55
1, 398229, Note_on_c, 0, 44, 48
1, 398232, Note_on_c, 0, 37, 43
1, 398299, Note_on_c, 0, 37, 0
1, 398299, Note_on_c, 0, 49, 0
1, 398299, Note_on_c, 0, 53, 0
1, 398302, Note_on_c, 0, 44, 0
1, 398368, Note_on_c, 0, 49, 49
1, 398368, Note_on_c, 0, 53, 55
1, 398368, Note_on_c, 0, 37, 43
1, 398371, Note_on_c, 0, 44, 48
1, 398438, Note_on_c, 0, 44, 0
1, 398438, Note_on_c, 0, 49, 0
1, 398438, Note_on_c, 0, 53, 0
1, 398441, Note_on_c, 0, 37, 0
1, 398509, Note_on_c, 0, 49, 49
1, 398509, Note_on_c, 0, 53, 55
1, 398509, Note_on_c, 0, 44, 49
1, 398512, Note_on_c, 0, 37, 44
1, 398579, Note_on_c, 0, 37, 0
1, 398579, Note_on_c, 0, 49, 0
1, 398579, Note_on_c, 0, 53, 0
1, 398582, Note_on_c, 0, 44, 0
1, 398649, Note_on_c, 0, 49, 50
1, 398649, Note_on_c, 0, 53, 56
1, 398649, Note_on_c, 0, 44, 49
1, 398652, Note_on_c, 0, 37, 44
1, 398719, Note_on_c, 0, 37, 0
1, 398719, Note_on_c, 0, 49, 0
1, 398719, Note_on_c, 0, 53, 0
1, 398722, Note_on_c, 0, 44, 0
1, 398789, Note_on_c, 0, 49, 50
1, 398789, Note_on_c, 0, 53, 56
1, 398789, Note_on_c, 0, 37, 45
1, 398792, Note_on_c, 0, 44, 50
1, 398858, Note_on_c, 0, 44, 0
1, 398858, Note_on_c, 0, 49, 0
1, 398858, Note_on_c, 0, 53, 0
1, 398861, Note_on_c, 0, 37, 0
1, 398928, Note_on_c, 0, 49, 51
1, 398928, Note_on_c, 0, 53, 57
1, 398928, Note_on_c, 0, 37, 46
1, 398931, Note_on_c, 0, 44, 51
1, 398998, Note_on_c, 0, 44, 0
1, 398998, Note_on_c, 0, 49, 0
1, 398998, Note_on_c, 0, 53, 0
1, 399001, Note_on_c, 0, 37, 0
1, 399068, Note_on_c, 0, 49, 51
1, 399068, Note_on_c, 0, 53, 57
1, 399068, Note_on_c, 0, 44, 48
1, 399071, Note_on_c, 0, 37, 43
1, 399138, Note_on_c, 0, 37, 0
1, 399138, Note_on_c, 0, 49, 0
1, 399138, Note_on_c, 0, 53, 0
1, 399141, Note_on_c, 0, 44, 0
1, 399208, Note_on_c, 0, 49, 52
1, 399208, Note_on_c, 0, 53, 58
1, 399208, Note_on_c, 0, 37, 44
1, 399211, Note_on_c, 0, 44, 49
1, 399278, Note_on_c, 0, 44, 0
1, 399278, Note_on_c, 0, 49, 0
1, 399278, Note_on_c, 0, 53, 0
1, 399281, Note_on_c, 0, 37, 0
1, 399348, Note_on_c, 0, 49, 53
1, 399348, Note_on_c, 0, 53, 59
1, 399348, Note_on_c, 0, 44, 50
1, 399351, Note_on_c, 0, 37, 45
1, 399417, Note_on_c, 0, 37, 0
1, 399417, Note_on_c, 0, 49, 0
1, 399417, Note_on_c, 0, 53, 0
1, 399420, Note_on_c, 0, 44, 0
1, 399487, Note_on_c, 0, 49, 54
1, 399487, Note_on_c, 0, 53, 60
1, 399487, Note_on_c, 0, 37, 46
1, 399490, Note_on_c, 0, 44, 51
1, 399557, Note_on_c, 0, 44, 0
1, 399557, Note_on_c, 0, 49, 0
1, 399557, Note_on_c, 0, 53, 0
1, 399560, Note_on_c, 0, 37, 0
1, 399627, Note_on_c, 0, 49, 55
1, 399627, Note_on_c, 0, 53, 61
1, 399627, Note_on_c, 0, 37, 46
1, 399630, Note_on_c, 0, 44, 51
1, 399697, Note_on_c, 0, 44, 0
1, 399697, Note_on_c, 0, 49, 0
1, 399697, Note_on_c, 0, 53, 0
1, 399700, Note_on_c, 0, 37, 0
1, 399767, Note_on_c, 0, 51, 55
1, 399767, Note_on_c, 0, 55, 61
1, 399767, Note_on_c, 0, 37, 46
1, 399770, Note_on_c, 0, 46, 51
1, 399837, Note_on_c, 0, 46, 0
1, 399837, Note_on_c, 0, 51, 0
1, 399837, Note_on_c, 0, 55, 0
1, 399840, Note_on_c, 0, 37, 0
1, 399907, Note_on_c, 0, 51, 55
1, 399907, Note_on_c, 0, 55, 61
1, 399907, Note_on_c, 0, 37, 46
1, 399910, Note_on_c, 0, 46, 51
1, 399977, Note_on_c, 0, 46, 0
1, 399977, Note_on_c, 0, 51, 0
1, 399977, Note_on_c, 0, 55, 0
1, 399980, Note_on_c, 0, 37, 0
1, 400047, Note_on_c, 0, 56, 67
1, 400047, Note_on_c, 0, 36, 46
1, 400047, Note_on_c, 0, 44, 51
1, 400050, Note_on_c, 0, 39, 46
1, 400152, Note_on_c, 0, 39, 0
1, 400152, Note_on_c, 0, 44, 0
1, 400152, Note_on_c, 0, 36, 0
1, 400187, Note_on_c, 0, 36, 46
1, 400187, Note_on_c, 0, 39, 46
1, 400187, Note_on_c, 0, 44, 51
1, 400292, Note_on_c, 0, 44, 0
1, 400292, Note_on_c, 0, 39, 0
1, 400292, Note_on_c, 0, 36, 0
1, 400327, Note_on_c, 0, 36, 46
1, 400327, Note_on_c, 0, 39, 46
1, 400327, Note_on_c, 0, 44, 51
1, 400432, Note_on_c, 0, 44, 0
1, 400432, Note_on_c, 0, 39, 0
1, 400432, Note_on_c, 0, 36, 0
1, 400467, Note_on_c, 0, 56, 0
1, 400467, Note_on_c, 0, 60, 61
1, 400467, Note_on_c, 0, 36, 46
1, 400470, Note_on_c, 0, 39, 46
1, 400470, Note_on_c, 0, 44, 51
1, 400537, Note_on_c, 0, 60, 0
1, 400537, Note_on_c, 0, 58, 61
1, 400572, Note_on_c, 0, 36, 0
1, 400572, Note_on_c, 0, 44, 0
1, 400572, Note_on_c, 0, 39, 0
1, 400607, Note_on_c, 0, 58, 0
1, 400607, Note_on_c, 0, 56, 66
1, 400607, Note_on_c, 0, 36, 46
1, 400610, Note_on_c, 0, 39, 46
1, 400610, Note_on_c, 0, 44, 51
1, 400677, Note_on_c, 0, 56, 0
1, 400712, Note_on_c, 0, 36, 0
1, 400712, Note_on_c, 0, 39, 0
1, 400712, Note_on_c, 0, 44, 0
1, 400747, Note_on_c, 0, 44, 51
1, 400747, Note_on_c, 0, 39, 46
1, 400747, Note_on_c, 0, 36, 46
1, 400852, Note_on_c, 0, 36, 0
1, 400852, Note_on_c, 0, 39, 0
1, 400852, Note_on_c, 0, 44, 0
1, 400887, Note_on_c, 0, 36, 46
1, 400887, Note_on_c, 0, 39, 46
1, 400887, Note_on_c, 0, 44, 51
1, 400992, Note_on_c, 0, 44, 0
1, 400992, Note_on_c, 0, 39, 0
1, 400992, Note_on_c, 0, 36, 0
1, 401027, Note_on_c, 0, 36, 46
1, 401027, Note_on_c, 0, 39, 46
1, 401027, Note_on_c, 0, 44, 51
1, 401135, Note_on_c, 0, 44, 0
1, 401135, Note_on_c, 0, 39, 0
1, 401135, Note_on_c, 0, 86, 93
1, 401138, Note_on_c, 0, 36, 0
1, 401171, Note_on_c, 0, 86, 0
1, 401171, Note_on_c, 0, 87, 110
1, 401171, Note_on_c, 0, 41, 59
1, 401174, Note_on_c, 0, 39, 59
1, 401174, Note_on_c, 0, 36, 59
1, 401174, Note_on_c, 0, 45, 68
1, 401276, Note_on_c, 0, 45, 0
1, 401276, Note_on_c, 0, 39, 0
1, 401276, Note_on_c, 0, 41, 0
1, 401279, Note_on_c, 0, 36, 0
1, 401311, Note_on_c, 0, 39, 59
1, 401311, Note_on_c, 0, 36, 59
1, 401311, Note_on_c, 0, 45, 68
1, 401314, Note_on_c, 0, 41, 59
1, 401416, Note_on_c, 0, 41, 0
1, 401416, Note_on_c, 0, 36, 0
1, 401416, Note_on_c, 0, 39, 0
1, 401419, Note_on_c, 0, 45, 0
1, 401451, Note_on_c, 0, 39, 59
1, 401451, Note_on_c, 0, 36, 59
1, 401451, Note_on_c, 0, 41, 59
1, 401454, Note_on_c, 0, 45, 68
1, 401521, Note_on_c, 0, 87, 0
1, 401521, Note_on_c, 0, 85, 96
1, 401556, Note_on_c, 0, 39, 0
1, 401556, Note_on_c, 0, 45, 0
1, 401556, Note_on_c, 0, 36, 0
1, 401559, Note_on_c, 0, 41, 0
1, 401591, Note_on_c, 0, 85, 0
1, 401591, Note_on_c, 0, 84, 94
1, 401591, Note_on_c, 0, 41, 59
1, 401594, Note_on_c, 0, 39, 59
1, 401594, Note_on_c, 0, 36, 59
1, 401594, Note_on_c, 0, 45, 68
1, 401661, Note_on_c, 0, 84, 0
1, 401661, Note_on_c, 0, 82, 91
1, 401696, Note_on_c, 0, 41, 0
1, 401696, Note_on_c, 0, 45, 0
1, 401696, Note_on_c, 0, 39, 0
1, 401699, Note_on_c, 0, 36, 0
1, 401731, Note_on_c, 0, 82, 0
1, 401731, Note_on_c, 0, 81, 90
1, 401731, Note_on_c, 0, 41, 59
1, 401734, Note_on_c, 0, 45, 68
1, 401734, Note_on_c, 0, 36, 59
1, 401734, Note_on_c, 0, 39, 59
1, 401836, Note_on_c, 0, 39, 0
1, 401836, Note_on_c, 0, 45, 0
1, 401836, Note_on_c, 0, 41, 0
1, 401839, Note_on_c, 0, 36, 0
1, 401871, Note_on_c, 0, 81, 0
1, 401871, Note_on_c, 0, 36, 58
1, 401871, Note_on_c, 0, 39, 58
1, 401874, Note_on_c, 0, 41, 58
1, 401874, Note_on_c, 0, 45, 66
1, 401976, Note_on_c, 0, 45, 0
1, 401976, Note_on_c, 0, 36, 0
1, 401976, Note_on_c, 0, 39, 0
1, 401979, Note_on_c, 0, 41, 0
1, 402011, Note_on_c, 0, 41, 58
1, 402011, Note_on_c, 0, 39, 58
1, 402011, Note_on_c, 0, 36, 58
1, 402014, Note_on_c, 0, 45, 66
1, 402116, Note_on_c, 0, 45, 0
1, 402116, Note_on_c, 0, 41, 0
1, 402116, Note_on_c, 0, 39, 0
1, 402119, Note_on_c, 0, 36, 0
1, 402151, Note_on_c, 0, 41, 58
1, 402151, Note_on_c, 0, 45, 66
1, 402151, Note_on_c, 0, 39, 58
1, 402154, Note_on_c, 0, 36, 58
1, 402258, Note_on_c, 0, 36, 0
1, 402258, Note_on_c, 0, 41, 0
1, 402258, Note_on_c, 0, 45, 0
1, 402261, Note_on_c, 0, 39, 0
1, 402293, Note_on_c, 0, 58, 67
1, 402293, Note_on_c, 0, 41, 46
1, 402293, Note_on_c, 0, 37, 46
1, 402296, Note_on_c, 0, 46, 51
1, 402398, Note_on_c, 0, 46, 0
1, 402398, Note_on_c, 0, 37, 0
1, 402398, Note_on_c, 0, 41, 0
1, 402433, Note_on_c, 0, 41, 46
1, 402433, Note_on_c, 0, 37, 46
1, 402433, Note_on_c, 0, 46, 51
1, 402538, Note_on_c, 0, 46, 0
1, 402538, Note_on_c, 0, 37, 0
1, 402538, Note_on_c, 0, 41, 0
1, 402573, Note_on_c, 0, 41, 46
1, 402573, Note_on_c, 0, 37, 46
1, 402573, Note_on_c, 0, 46, 51
1, 402678, Note_on_c, 0, 46, 0
1, 402678, Note_on_c, 0, 37, 0
1, 402678, Note_on_c, 0, 41, 0
1, 402713, Note_on_c, 0, 58, 0
1, 402713, Note_on_c, 0, 61, 61
1, 402713, Note_on_c, 0, 41, 46
1, 402716, Note_on_c, 0, 37, 46
1, 402716, Note_on_c, 0, 46, 51
1, 402782, Note_on_c, 0, 61, 0
1, 402782, Note_on_c, 0, 60, 61
1, 402817, Note_on_c, 0, 41, 0
1, 402817, Note_on_c, 0, 46, 0
1, 402817, Note_on_c, 0, 37, 0
1, 402851, Note_on_c, 0, 60, 0
1, 402851, Note_on_c, 0, 58, 66
1, 402851, Note_on_c, 0, 46, 51
1, 402854, Note_on_c, 0, 41, 46
1, 402854, Note_on_c, 0, 37, 46
1, 402921, Note_on_c, 0, 58, 0
1, 402956, Note_on_c, 0, 46, 0
1, 402956, Note_on_c, 0, 41, 0
1, 402956, Note_on_c, 0, 37, 0
1, 402991, Note_on_c, 0, 37, 46
1, 402991, Note_on_c, 0, 46, 51
1, 402991, Note_on_c, 0, 41, 46
1, 403096, Note_on_c, 0, 41, 0
1, 403096, Note_on_c, 0, 46, 0
1, 403096, Note_on_c, 0, 37, 0
1, 403131, Note_on_c, 0, 37, 46
1, 403131, Note_on_c, 0, 46, 51
1, 403131, Note_on_c, 0, 41, 46
1, 403236, Note_on_c, 0, 41, 0
1, 403236, Note_on_c, 0, 46, 0
1, 403236, Note_on_c, 0, 37, 0
1, 403271, Note_on_c, 0, 37, 46
1, 403271, Note_on_c, 0, 46, 51
1, 403271, Note_on_c, 0, 41, 46
1, 403379, Note_on_c, 0, 41, 0
1, 403379, Note_on_c, 0, 46, 0
1, 403379, Note_on_c, 0, 88, 93
1, 403382, Note_on_c, 0, 37, 0
1, 403415, Note_on_c, 0, 88, 0
1, 403415, Note_on_c, 0, 89, 110
1, 403415, Note_on_c, 0, 47, 68
1, 403418, Note_on_c, 0, 41, 59
1, 403418, Note_on_c, 0, 38, 59
1, 403520, Note_on_c, 0, 38, 0
1, 403520, Note_on_c, 0, 41, 0
1, 403520, Note_on_c, 0, 47, 0
1, 403555, Note_on_c, 0, 41, 59
1, 403555, Note_on_c, 0, 38, 59
1, 403555, Note_on_c, 0, 47, 68
1, 403660, Note_on_c, 0, 47, 0
1, 403660, Note_on_c, 0, 38, 0
1, 403660, Note_on_c, 0, 41, 0
1, 403695, Note_on_c, 0, 41, 59
1, 403695, Note_on_c, 0, 38, 59
1, 403695, Note_on_c, 0, 47, 68
1, 403764, Note_on_c, 0, 89, 0
1, 403764, Note_on_c, 0, 87, 96
1, 403798, Note_on_c, 0, 41, 0
1, 403798, Note_on_c, 0, 47, 0
1, 403798, Note_on_c, 0, 38, 0
1, 403833, Note_on_c, 0, 87, 0
1, 403833, Note_on_c, 0, 86, 94
1, 403833, Note_on_c, 0, 41, 59
1, 403836, Note_on_c, 0, 38, 59
1, 403836, Note_on_c, 0, 47, 68
1, 403902, Note_on_c, 0, 86, 0
1, 403902, Note_on_c, 0, 84, 91
1, 403937, Note_on_c, 0, 41, 0
1, 403937, Note_on_c, 0, 47, 0
1, 403937, Note_on_c, 0, 38, 0
1, 403971, Note_on_c, 0, 84, 0
1, 403971, Note_on_c, 0, 83, 90
1, 403971, Note_on_c, 0, 41, 58
1, 403974, Note_on_c, 0, 38, 58
1, 403974, Note_on_c, 0, 47, 66
1, 404076, Note_on_c, 0, 47, 0
1, 404076, Note_on_c, 0, 38, 0
1, 404076, Note_on_c, 0, 41, 0
1, 404111, Note_on_c, 0, 83, 0
1, 404111, Note_on_c, 0, 47, 66
1, 404111, Note_on_c, 0, 41, 58
1, 404114, Note_on_c, 0, 38, 58
1, 404216, Note_on_c, 0, 38, 0
1, 404216, Note_on_c, 0, 41, 0
1, 404216, Note_on_c, 0, 47, 0
1, 404251, Note_on_c, 0, 41, 58
1, 404251, Note_on_c, 0, 47, 66
1, 404251, Note_on_c, 0, 38, 58
1, 404356, Note_on_c, 0, 38, 0
1, 404356, Note_on_c, 0, 47, 0
1, 404356, Note_on_c, 0, 41, 0
1, 404391, Note_on_c, 0, 38, 58
1, 404391, Note_on_c, 0, 41, 58
1, 404391, Note_on_c, 0, 47, 66
1, 404498, Note_on_c, 0, 47, 0
1, 404498, Note_on_c, 0, 41, 0
1, 404498, Note_on_c, 0, 38, 0
1, 404534, Note_on_c, 0, 60, 103
1, 404534, Note_on_c, 0, 43, 58
1, 404534, Note_on_c, 0, 39, 58
1, 404537, Note_on_c, 0, 47, 66
1, 404639, Note_on_c, 0, 47, 0
1, 404639, Note_on_c, 0, 39, 0
1, 404639, Note_on_c, 0, 43, 0
1, 404674, Note_on_c, 0, 60, 0
1, 404674, Note_on_c, 0, 63, 91
1, 404674, Note_on_c, 0, 43, 58
1, 404677, Note_on_c, 0, 39, 58
1, 404677, Note_on_c, 0, 47, 66
1, 404742, Note_on_c, 0, 63, 0
1, 404742, Note_on_c, 0, 62, 91
1, 404777, Note_on_c, 0, 43, 0
1, 404777, Note_on_c, 0, 47, 0
1, 404777, Note_on_c, 0, 39, 0
1, 404811, Note_on_c, 0, 62, 0
1, 404811, Note_on_c, 0, 60, 95
1, 404811, Note_on_c, 0, 43, 58
1, 404814, Note_on_c, 0, 39, 58
1, 404814, Note_on_c, 0, 48, 66
1, 404916, Note_on_c, 0, 48, 0
1, 404916, Note_on_c, 0, 39, 0
1, 404916, Note_on_c, 0, 43, 0
1, 404951, Note_on_c, 0, 60, 0
1, 404951, Note_on_c, 0, 39, 58
1, 404951, Note_on_c, 0, 48, 66
1, 404954, Note_on_c, 0, 43, 58
1, 405061, Note_on_c, 0, 43, 0
1, 405061, Note_on_c, 0, 48, 0
1, 405061, Note_on_c, 0, 39, 0
1, 405097, Note_on_c, 0, 80, 99
1, 405097, Note_on_c, 0, 41, 58
1, 405097, Note_on_c, 0, 48, 66
1, 405100, Note_on_c, 0, 44, 58
1, 405166, Note_on_c, 0, 80, 0
1, 405166, Note_on_c, 0, 79, 96
1, 405201, Note_on_c, 0, 41, 0
1, 405201, Note_on_c, 0, 44, 0
1, 405201, Note_on_c, 0, 48, 0
1, 405235, Note_on_c, 0, 79, 0
1, 405235, Note_on_c, 0, 77, 94
1, 405235, Note_on_c, 0, 41, 59
1, 405238, Note_on_c, 0, 48, 67
1, 405238, Note_on_c, 0, 44, 59
1, 405304, Note_on_c, 0, 77, 0
1, 405304, Note_on_c, 0, 75, 91
1, 405339, Note_on_c, 0, 41, 0
1, 405339, Note_on_c, 0, 44, 0
1, 405339, Note_on_c, 0, 48, 0
1, 405373, Note_on_c, 0, 75, 0
1, 405373, Note_on_c, 0, 74, 95
1, 405373, Note_on_c, 0, 44, 59
1, 405376, Note_on_c, 0, 41, 59
1, 405376, Note_on_c, 0, 50, 67
1, 405478, Note_on_c, 0, 50, 0
1, 405478, Note_on_c, 0, 41, 0
1, 405478, Note_on_c, 0, 44, 0
1, 405513, Note_on_c, 0, 74, 0
1, 405513, Note_on_c, 0, 50, 67
1, 405513, Note_on_c, 0, 41, 59
1, 405516, Note_on_c, 0, 44, 59
1, 405618, Note_on_c, 0, 44, 0
1, 405618, Note_on_c, 0, 41, 0
1, 405618, Note_on_c, 0, 50, 0
1, 405653, Note_on_c, 0, 64, 103
1, 405653, Note_on_c, 0, 43, 59
1, 405653, Note_on_c, 0, 46, 59
1, 405656, Note_on_c, 0, 50, 68
1, 405758, Note_on_c, 0, 50, 0
1, 405758, Note_on_c, 0, 46, 0
1, 405758, Note_on_c, 0, 43, 0
1, 405793, Note_on_c, 0, 64, 0
1, 405793, Note_on_c, 0, 67, 91
1, 405793, Note_on_c, 0, 43, 59
1, 405796, Note_on_c, 0, 46, 59
1, 405796, Note_on_c, 0, 50, 68
1, 405861, Note_on_c, 0, 67, 0
1, 405861, Note_on_c, 0, 65, 91
1, 405896, Note_on_c, 0, 43, 0
1, 405896, Note_on_c, 0, 50, 0
1, 405896, Note_on_c, 0, 46, 0
1, 405930, Note_on_c, 0, 65, 0
1, 405930, Note_on_c, 0, 64, 95
1, 405930, Note_on_c, 0, 43, 60
1, 405933, Note_on_c, 0, 46, 60
1, 405933, Note_on_c, 0, 52, 68
1, 406035, Note_on_c, 0, 52, 0
1, 406035, Note_on_c, 0, 46, 0
1, 406035, Note_on_c, 0, 43, 0
1, 406070, Note_on_c, 0, 64, 0
1, 406070, Note_on_c, 0, 46, 60
1, 406070, Note_on_c, 0, 43, 60
1, 406073, Note_on_c, 0, 52, 69
1, 406181, Note_on_c, 0, 52, 0
1, 406181, Note_on_c, 0, 43, 0
1, 406181, Note_on_c, 0, 46, 0
1, 406218, Note_on_c, 0, 84, 99
1, 406218, Note_on_c, 0, 44, 60
1, 406218, Note_on_c, 0, 52, 69
1, 406221, Note_on_c, 0, 48, 60
1, 406287, Note_on_c, 0, 84, 0
1, 406287, Note_on_c, 0, 82, 96
1, 406322, Note_on_c, 0, 44, 0
1, 406322, Note_on_c, 0, 48, 0
1, 406322, Note_on_c, 0, 52, 0
1, 406356, Note_on_c, 0, 82, 0
1, 406356, Note_on_c, 0, 80, 94
1, 406356, Note_on_c, 0, 44, 60
1, 406359, Note_on_c, 0, 52, 69
1, 406359, Note_on_c, 0, 48, 60
1, 406425, Note_on_c, 0, 80, 0
1, 406425, Note_on_c, 0, 79, 91
1, 406460, Note_on_c, 0, 44, 0
1, 406460, Note_on_c, 0, 48, 0
1, 406460, Note_on_c, 0, 52, 0
1, 406494, Note_on_c, 0, 79, 0
1, 406494, Note_on_c, 0, 77, 95
1, 406494, Note_on_c, 0, 44, 61
1, 406497, Note_on_c, 0, 53, 70
1, 406497, Note_on_c, 0, 48, 61
1, 406599, Note_on_c, 0, 48, 0
1, 406599, Note_on_c, 0, 53, 0
1, 406599, Note_on_c, 0, 44, 0
1, 406634, Note_on_c, 0, 77, 0
1, 406634, Note_on_c, 0, 48, 61
1, 406634, Note_on_c, 0, 44, 61
1, 406637, Note_on_c, 0, 53, 70
1, 406741, Note_on_c, 0, 53, 0
1, 406741, Note_on_c, 0, 44, 0
1, 406741, Note_on_c, 0, 48, 0
1, 406777, Note_on_c, 0, 87, 111
1, 406777, Note_on_c, 0, 54, 72
1, 406777, Note_on_c, 0, 45, 63
1, 406780, Note_on_c, 0, 48, 63
1, 406846, Note_on_c, 0, 87, 0
1, 406846, Note_on_c, 0, 86, 107
1, 406880, Note_on_c, 0, 54, 0
1, 406880, Note_on_c, 0, 48, 0
1, 406880, Note_on_c, 0, 45, 0
1, 406914, Note_on_c, 0, 86, 0
1, 406914, Note_on_c, 0, 84, 105
1, 406914, Note_on_c, 0, 54, 72
1, 406917, Note_on_c, 0, 45, 63
1, 406917, Note_on_c, 0, 48, 63
1, 406983, Note_on_c, 0, 84, 0
1, 406983, Note_on_c, 0, 83, 101
1, 407018, Note_on_c, 0, 54, 0
1, 407018, Note_on_c, 0, 48, 0
1, 407018, Note_on_c, 0, 45, 0
1, 407052, Note_on_c, 0, 83, 0
1, 407052, Note_on_c, 0, 84, 106
1, 407052, Note_on_c, 0, 48, 63
1, 407055, Note_on_c, 0, 45, 63
1, 407055, Note_on_c, 0, 54, 72
1, 407157, Note_on_c, 0, 54, 0
1, 407157, Note_on_c, 0, 45, 0
1, 407157, Note_on_c, 0, 48, 0
1, 407192, Note_on_c, 0, 84, 0
1, 407192, Note_on_c, 0, 48, 63
1, 407192, Note_on_c, 0, 45, 63
1, 407195, Note_on_c, 0, 54, 72
1, 407299, Note_on_c, 0, 54, 0
1, 407299, Note_on_c, 0, 45, 0
1, 407299, Note_on_c, 0, 48, 0
1, 407335, Note_on_c, 0, 75, 111
1, 407335, Note_on_c, 0, 54, 72
1, 407335, Note_on_c, 0, 48, 63
1, 407338, Note_on_c, 0, 45, 63
1, 407404, Note_on_c, 0, 75, 0
1, 407404, Note_on_c, 0, 74, 107
1, 407438, Note_on_c, 0, 54, 0
1, 407438, Note_on_c, 0, 45, 0
1, 407438, Note_on_c, 0, 48, 0
1, 407473, Note_on_c, 0, 74, 0
1, 407473, Note_on_c, 0, 72, 105
1, 407473, Note_on_c, 0, 48, 63
1, 407476, Note_on_c, 0, 45, 63
1, 407476, Note_on_c, 0, 54, 72
1, 407542, Note_on_c, 0, 72, 0
1, 407542, Note_on_c, 0, 71, 101
1, 407576, Note_on_c, 0, 48, 0
1, 407576, Note_on_c, 0, 54, 0
1, 407576, Note_on_c, 0, 45, 0
1, 407611, Note_on_c, 0, 71, 0
1, 407611, Note_on_c, 0, 72, 106
1, 407611, Note_on_c, 0, 48, 63
1, 407614, Note_on_c, 0, 45, 63
1, 407614, Note_on_c, 0, 54, 72
1, 407716, Note_on_c, 0, 54, 0
1, 407716, Note_on_c, 0, 45, 0
1, 407716, Note_on_c, 0, 48, 0
1, 407751, Note_on_c, 0, 72, 0
1, 407751, Note_on_c, 0, 48, 63
1, 407751, Note_on_c, 0, 45, 63
1, 407754, Note_on_c, 0, 54, 72
1, 407861, Note_on_c, 0, 54, 0
1, 407861, Note_on_c, 0, 45, 0
1, 407861, Note_on_c, 0, 48, 0
1, 407898, Note_on_c, 0, 63, 111
1, 407898, Note_on_c, 0, 48, 63
1, 407898, Note_on_c, 0, 54, 72
1, 407901, Note_on_c, 0, 44, 63
1, 407967, Note_on_c, 0, 63, 0
1, 407967, Note_on_c, 0, 62, 107
1, 408002, Note_on_c, 0, 48, 0
1, 408002, Note_on_c, 0, 44, 0
1, 408002, Note_on_c, 0, 54, 0
1, 408036, Note_on_c, 0, 62, 0
1, 408036, Note_on_c, 0, 60, 105
1, 408036, Note_on_c, 0, 54, 72
1, 408039, Note_on_c, 0, 44, 63
1, 408039, Note_on_c, 0, 48, 63
1, 408105, Note_on_c, 0, 60, 0
1, 408105, Note_on_c, 0, 59, 101
1, 408139, Note_on_c, 0, 54, 0
1, 408139, Note_on_c, 0, 48, 0
1, 408139, Note_on_c, 0, 44, 0
1, 408174, Note_on_c, 0, 59, 0
1, 408174, Note_on_c, 0, 60, 106
1, 408174, Note_on_c, 0, 48, 63
1, 408177, Note_on_c, 0, 44, 63
1, 408177, Note_on_c, 0, 54, 72
1, 408279, Note_on_c, 0, 54, 0
1, 408279, Note_on_c, 0, 44, 0
1, 408279, Note_on_c, 0, 48, 0
1, 408314, Note_on_c, 0, 60, 0
1, 408314, Note_on_c, 0, 48, 63
1, 408314, Note_on_c, 0, 44, 63
1, 408317, Note_on_c, 0, 54, 72
1, 408419, Note_on_c, 0, 54, 0
1, 408419, Note_on_c, 0, 44, 0
1, 408419, Note_on_c, 0, 48, 0
1, 408454, Note_on_c, 0, 75, 111
1, 408454, Note_on_c, 0, 48, 63
1, 408454, Note_on_c, 0, 44, 63
1, 408457, Note_on_c, 0, 51, 72
1, 408523, Note_on_c, 0, 75, 0
1, 408523, Note_on_c, 0, 74, 107
1, 408557, Note_on_c, 0, 48, 0
1, 408557, Note_on_c, 0, 51, 0
1, 408557, Note_on_c, 0, 44, 0
1, 408592, Note_on_c, 0, 74, 0
1, 408592, Note_on_c, 0, 72, 105
1, 408592, Note_on_c, 0, 51, 72
1, 408595, Note_on_c, 0, 48, 63
1, 408595, Note_on_c, 0, 44, 63
1, 408660, Note_on_c, 0, 72, 0
1, 408660, Note_on_c, 0, 71, 101
1, 408695, Note_on_c, 0, 51, 0
1, 408695, Note_on_c, 0, 44, 0
1, 408695, Note_on_c, 0, 48, 0
1, 408729, Note_on_c, 0, 71, 0
1, 408729, Note_on_c, 0, 72, 106
1, 408729, Note_on_c, 0, 44, 63
1, 408732, Note_on_c, 0, 48, 72
1, 408800, Note_on_c, 0, 72, 0
1, 408800, Note_on_c, 0, 74, 106
1, 408836, Note_on_c, 0, 48, 0
1, 408836, Note_on_c, 0, 44, 0
1, 408873, Note_on_c, 0, 74, 0
1, 408873, Note_on_c, 0, 75, 106
1, 408873, Note_on_c, 0, 48, 72
1, 408876, Note_on_c, 0, 44, 63
1, 408947, Note_on_c, 0, 75, 0
1, 408947, Note_on_c, 0, 78, 106
1, 408985, Note_on_c, 0, 44, 0
1, 408985, Note_on_c, 0, 48, 0
1, 409024, Note_on_c, 0, 78, 0
1, 409024, Note_on_c, 0, 79, 106
1, 409024, Note_on_c, 0, 43, 63
1, 409027, Note_on_c, 0, 47, 72
1, 409158, Note_on_c, 0, 47, 0
1, 409158, Note_on_c, 0, 43, 0
1, 409158, Note_on_c, 0, 79, 0
1, 409170, Note_on_c, 0, 67, 59
1, 409170, Note_on_c, 0, 79, 66
1, 409304, Note_on_c, 0, 79, 0
1, 409304, Note_on_c, 0, 67, 0
1, 409316, Note_on_c, 0, 67, 59
1, 409316, Note_on_c, 0, 79, 66
1, 409450, Note_on_c, 0, 79, 0
1, 409450, Note_on_c, 0, 67, 0
1, 409462, Note_on_c, 0, 67, 59
1, 409462, Note_on_c, 0, 79, 66
1, 409596, Note_on_c, 0, 79, 0
1, 409596, Note_on_c, 0, 67, 0
1, 409608, Note_on_c, 0, 67, 59
1, 409608, Note_on_c, 0, 79, 66
1, 409742, Note_on_c, 0, 79, 0
1, 409742, Note_on_c, 0, 67, 0
1, 409754, Note_on_c, 0, 67, 59
1, 409754, Note_on_c, 0, 79, 66
1, 409888, Note_on_c, 0, 79, 0
1, 409888, Note_on_c, 0, 67, 0
1, 409900, Note_on_c, 0, 67, 59
1, 409900, Note_on_c, 0, 79, 66
1, 410034, Note_on_c, 0, 79, 0
1, 410034, Note_on_c, 0, 67, 0
1, 410046, Note_on_c, 0, 67, 59
1, 410046, Note_on_c, 0, 79, 66
1, 410180, Note_on_c, 0, 79, 0
1, 410180, Note_on_c, 0, 67, 0
1, 410193, Note_on_c, 0, 67, 58
1, 410193, Note_on_c, 0, 70, 58
1, 410193, Note_on_c, 0, 73, 58
1, 410196, Note_on_c, 0, 79, 66
1, 410324, Note_on_c, 0, 79, 0
1, 410324, Note_on_c, 0, 67, 0
1, 410324, Note_on_c, 0, 70, 0
1, 410327, Note_on_c, 0, 73, 0
1, 410336, Note_on_c, 0, 67, 60
1, 410336, Note_on_c, 0, 70, 60
1, 410336, Note_on_c, 0, 73, 60
1, 410339, Note_on_c, 0, 79, 68
1, 410467, Note_on_c, 0, 79, 0
1, 410467, Note_on_c, 0, 67, 0
1, 410467, Note_on_c, 0, 70, 0
1, 410470, Note_on_c, 0, 73, 0
1, 410479, Note_on_c, 0, 67, 62
1, 410479, Note_on_c, 0, 70, 62
1, 410479, Note_on_c, 0, 73, 62
1, 410482, Note_on_c, 0, 79, 70
1, 410610, Note_on_c, 0, 79, 0
1, 410610, Note_on_c, 0, 67, 0
1, 410610, Note_on_c, 0, 70, 0
1, 410613, Note_on_c, 0, 73, 0
1, 410622, Note_on_c, 0, 67, 64
1, 410622, Note_on_c, 0, 70, 64
1, 410622, Note_on_c, 0, 73, 64
1, 410625, Note_on_c, 0, 79, 73
1, 410754, Note_on_c, 0, 79, 0
1, 410754, Note_on_c, 0, 67, 0
1, 410754, Note_on_c, 0, 70, 0
1, 410757, Note_on_c, 0, 73, 0
1, 410765, Note_on_c, 0, 67, 66
1, 410765, Note_on_c, 0, 70, 66
1, 410765, Note_on_c, 0, 73, 66
1, 410768, Note_on_c, 0, 79, 75
1, 410898, Note_on_c, 0, 79, 0
1, 410898, Note_on_c, 0, 67, 0
1, 410898, Note_on_c, 0, 70, 0
1, 410901, Note_on_c, 0, 73, 0
1, 410910, Note_on_c, 0, 67, 67
1, 410910, Note_on_c, 0, 70, 67
1, 410910, Note_on_c, 0, 73, 67
1, 410913, Note_on_c, 0, 79, 76
1, 411044, Note_on_c, 0, 79, 0
1, 411044, Note_on_c, 0, 67, 0
1, 411044, Note_on_c, 0, 70, 0
1, 411047, Note_on_c, 0, 73, 0
1, 411056, Note_on_c, 0, 67, 70
1, 411056, Note_on_c, 0, 70, 70
1, 411056, Note_on_c, 0, 73, 70
1, 411059, Note_on_c, 0, 79, 80
1, 411191, Note_on_c, 0, 79, 0
1, 411191, Note_on_c, 0, 67, 0
1, 411191, Note_on_c, 0, 70, 0
1, 411194, Note_on_c, 0, 73, 0
1, 411204, Note_on_c, 0, 67, 72
1, 411204, Note_on_c, 0, 70, 72
1, 411204, Note_on_c, 0, 73, 72
1, 411207, Note_on_c, 0, 79, 82
1, 411341, Note_on_c, 0, 79, 0
1, 411341, Note_on_c, 0, 67, 0
1, 411341, Note_on_c, 0, 70, 0
1, 411344, Note_on_c, 0, 73, 0
1, 411353, Note_on_c, 0, 67, 62
1, 411353, Note_on_c, 0, 71, 62
1, 411353, Note_on_c, 0, 74, 62
1, 411356, Note_on_c, 0, 79, 70
1, 411356, Note_on_c, 0, 47, 50
1, 411356, Note_on_c, 0, 50, 56
1, 411467, Note_on_c, 0, 50, 0
1, 411467, Note_on_c, 0, 47, 0
1, 411504, Note_on_c, 0, 71, 0
1, 411504, Note_on_c, 0, 67, 0
1, 411504, Note_on_c, 0, 79, 0
1, 411507, Note_on_c, 0, 74, 0
1, 411507, Note_on_c, 0, 91, 79
1, 411507, Note_on_c, 0, 79, 70
1, 411510, Note_on_c, 0, 50, 56
1, 411510, Note_on_c, 0, 47, 50
1, 411614, Note_on_c, 0, 47, 0
1, 411614, Note_on_c, 0, 50, 0
1, 411651, Note_on_c, 0, 50, 56
1, 411651, Note_on_c, 0, 47, 50
1, 411760, Note_on_c, 0, 47, 0
1, 411760, Note_on_c, 0, 50, 0
1, 411797, Note_on_c, 0, 79, 0
1, 411797, Note_on_c, 0, 91, 0
1, 411797, Note_on_c, 0, 89, 74
1, 411800, Note_on_c, 0, 77, 74
1, 411800, Note_on_c, 0, 47, 50
1, 411800, Note_on_c, 0, 50, 56
1, 411906, Note_on_c, 0, 50, 0
1, 411906, Note_on_c, 0, 47, 0
1, 411943, Note_on_c, 0, 47, 50
1, 411943, Note_on_c, 0, 50, 56
1, 412052, Note_on_c, 0, 50, 0
1, 412052, Note_on_c, 0, 47, 0
1, 412089, Note_on_c, 0, 77, 0
1, 412089, Note_on_c, 0, 89, 0
1, 412089, Note_on_c, 0, 88, 76
1, 412092, Note_on_c, 0, 76, 67
1, 412092, Note_on_c, 0, 50, 56
1, 412092, Note_on_c, 0, 47, 50
1, 412198, Note_on_c, 0, 47, 0
1, 412198, Note_on_c, 0, 50, 0
1, 412235, Note_on_c, 0, 47, 50
1, 412235, Note_on_c, 0, 50, 56
1, 412345, Note_on_c, 0, 50, 0
1, 412345, Note_on_c, 0, 47, 0
1, 412381, Note_on_c, 0, 76, 0
1, 412381, Note_on_c, 0, 88, 0
1, 412381, Note_on_c, 0, 86, 74
1, 412384, Note_on_c, 0, 74, 66
1, 412384, Note_on_c, 0, 47, 50
1, 412384, Note_on_c, 0, 50, 56
1, 412487, Note_on_c, 0, 50, 0
1, 412487, Note_on_c, 0, 47, 0
1, 412523, Note_on_c, 0, 47, 50
1, 412523, Note_on_c, 0, 50, 56
1, 412633, Note_on_c, 0, 50, 0
1, 412633, Note_on_c, 0, 47, 0
1, 412670, Note_on_c, 0, 74, 0
1, 412670, Note_on_c, 0, 86, 0
1, 412670, Note_on_c, 0, 84, 73
1, 412673, Note_on_c, 0, 72, 65
1, 412673, Note_on_c, 0, 47, 50
1, 412673, Note_on_c, 0, 50, 56
1, 412779, Note_on_c, 0, 50, 0
1, 412779, Note_on_c, 0, 47, 0
1, 412816, Note_on_c, 0, 47, 50
1, 412816, Note_on_c, 0, 50, 56
1, 412927, Note_on_c, 0, 50, 0
1, 412927, Note_on_c, 0, 47, 0
1, 412963, Note_on_c, 0, 72, 0
1, 412963, Note_on_c, 0, 84, 0
1, 412963, Note_on_c, 0, 83, 71
1, 412966, Note_on_c, 0, 71, 63
1, 412966, Note_on_c, 0, 47, 50
1, 412966, Note_on_c, 0, 50, 56
1, 413073, Note_on_c, 0, 50, 0
1, 413073, Note_on_c, 0, 47, 0
1, 413110, Note_on_c, 0, 50, 56
1, 413110, Note_on_c, 0, 47, 50
1, 413219, Note_on_c, 0, 47, 0
1, 413219, Note_on_c, 0, 50, 0
1, 413256, Note_on_c, 0, 71, 0
1, 413256, Note_on_c, 0, 83, 0
1, 413256, Note_on_c, 0, 81, 70
1, 413259, Note_on_c, 0, 69, 62
1, 413259, Note_on_c, 0, 47, 50
1, 413259, Note_on_c, 0, 50, 56
1, 413365, Note_on_c, 0, 50, 0
1, 413365, Note_on_c, 0, 47, 0
1, 413401, Note_on_c, 0, 52, 56
1, 413401, Note_on_c, 0, 49, 50
1, 413510, Note_on_c, 0, 49, 0
1, 413510, Note_on_c, 0, 52, 0
1, 413546, Note_on_c, 0, 69, 0
1, 413546, Note_on_c, 0, 81, 0
1, 413546, Note_on_c, 0, 79, 68
1, 413549, Note_on_c, 0, 67, 60
1, 413549, Note_on_c, 0, 49, 50
1, 413549, Note_on_c, 0, 52, 56
1, 413655, Note_on_c, 0, 52, 0
1, 413655, Note_on_c, 0, 49, 0
1, 413691, Note_on_c, 0, 67, 0
1, 413691, Note_on_c, 0, 79, 0
1, 413691, Note_on_c, 0, 65, 59
1, 413694, Note_on_c, 0, 77, 66
1, 413694, Note_on_c, 0, 53, 63
1, 413694, Note_on_c, 0, 50, 63
1, 413761, Note_on_c, 0, 77, 0
1, 413761, Note_on_c, 0, 65, 0
1, 413761, Note_on_c, 0, 62, 58
1, 413831, Note_on_c, 0, 62, 0
1, 413831, Note_on_c, 0, 64, 60
1, 413901, Note_on_c, 0, 64, 0
1, 413901, Note_on_c, 0, 65, 61
1, 413971, Note_on_c, 0, 65, 0
1, 413971, Note_on_c, 0, 67, 63
1, 414041, Note_on_c, 0, 67, 0
1, 414041, Note_on_c, 0, 69, 65
1, 414111, Note_on_c, 0, 69, 0
1, 414111, Note_on_c, 0, 53, 0
1, 414111, Note_on_c, 0, 71, 66
1, 414114, Note_on_c, 0, 57, 61
1, 414179, Note_on_c, 0, 57, 0
1, 414179, Note_on_c, 0, 71, 0
1, 414179, Note_on_c, 0, 73, 68
1, 414182, Note_on_c, 0, 55, 61
1, 414248, Note_on_c, 0, 55, 0
1, 414248, Note_on_c, 0, 73, 0
1, 414248, Note_on_c, 0, 74, 69
1, 414251, Note_on_c, 0, 53, 66
1, 414318, Note_on_c, 0, 74, 0
1, 414318, Note_on_c, 0, 65, 63
1, 414388, Note_on_c, 0, 65, 0
1, 414388, Note_on_c, 0, 53, 0
1, 414388, Note_on_c, 0, 67, 64
1, 414391, Note_on_c, 0, 50, 0
1, 414458, Note_on_c, 0, 67, 0
1, 414458, Note_on_c, 0, 69, 66
1, 414528, Note_on_c, 0, 69, 0
1, 414528, Note_on_c, 0, 71, 67
1, 414598, Note_on_c, 0, 71, 0
1, 414598, Note_on_c, 0, 73, 69
1, 414668, Note_on_c, 0, 73, 0
1, 414668, Note_on_c, 0, 74, 70
1, 414740, Note_on_c, 0, 74, 0
1, 414740, Note_on_c, 0, 76, 71
1, 414812, Note_on_c, 0, 76, 0
1, 414812, Note_on_c, 0, 77, 73
1, 414812, Note_on_c, 0, 69, 67
1, 414882, Note_on_c, 0, 77, 0
1, 414882, Note_on_c, 0, 74, 67
1, 414952, Note_on_c, 0, 74, 0
1, 414952, Note_on_c, 0, 76, 67
1, 415022, Note_on_c, 0, 76, 0
1, 415022, Note_on_c, 0, 77, 68
1, 415092, Note_on_c, 0, 77, 0
1, 415092, Note_on_c, 0, 79, 69
1, 415162, Note_on_c, 0, 79, 0
1, 415162, Note_on_c, 0, 69, 0
1, 415162, Note_on_c, 0, 81, 70
1, 415165, Note_on_c, 0, 67, 61
1, 415232, Note_on_c, 0, 67, 0
1, 415232, Note_on_c, 0, 81, 0
1, 415232, Note_on_c, 0, 83, 71
1, 415235, Note_on_c, 0, 65, 61
1, 415301, Note_on_c, 0, 65, 0
1, 415301, Note_on_c, 0, 83, 0
1, 415301, Note_on_c, 0, 85, 72
1, 415304, Note_on_c, 0, 64, 61
1, 415370, Note_on_c, 0, 64, 0
1, 415370, Note_on_c, 0, 85, 0
1, 415370, Note_on_c, 0, 86, 73
1, 415373, Note_on_c, 0, 62, 66
1, 415440, Note_on_c, 0, 86, 0
1, 415440, Note_on_c, 0, 85, 67
1, 415510, Note_on_c, 0, 85, 0
1, 415510, Note_on_c, 0, 62, 0
1, 415510, Note_on_c, 0, 86, 68
1, 415580, Note_on_c, 0, 86, 0
1, 415580, Note_on_c, 0, 88, 69
1, 415650, Note_on_c, 0, 88, 0
1, 415650, Note_on_c, 0, 89, 70
1, 415720, Note_on_c, 0, 89, 0
1, 415720, Note_on_c, 0, 85, 72
1, 415790, Note_on_c, 0, 85, 0
1, 415790, Note_on_c, 0, 86, 73
1, 415862, Note_on_c, 0, 86, 0
1, 415862, Note_on_c, 0, 88, 74
1, 415933, Note_on_c, 0, 88, 0
1, 415933, Note_on_c, 0, 89, 70
1, 415933, Note_on_c, 0, 45, 50
1, 415936, Note_on_c, 0, 48, 56
1, 416047, Note_on_c, 0, 48, 0
1, 416047, Note_on_c, 0, 45, 0
1, 416085, Note_on_c, 0, 89, 0
1, 416085, Note_on_c, 0, 89, 79
1, 416085, Note_on_c, 0, 77, 70
1, 416088, Note_on_c, 0, 45, 50
1, 416088, Note_on_c, 0, 48, 56
1, 416194, Note_on_c, 0, 48, 0
1, 416194, Note_on_c, 0, 45, 0
1, 416231, Note_on_c, 0, 48, 56
1, 416231, Note_on_c, 0, 45, 50
1, 416340, Note_on_c, 0, 45, 0
1, 416340, Note_on_c, 0, 48, 0
1, 416377, Note_on_c, 0, 77, 0
1, 416377, Note_on_c, 0, 89, 0
1, 416377, Note_on_c, 0, 88, 74
1, 416380, Note_on_c, 0, 76, 74
1, 416380, Note_on_c, 0, 45, 50
1, 416380, Note_on_c, 0, 48, 56
1, 416486, Note_on_c, 0, 48, 0
1, 416486, Note_on_c, 0, 45, 0
1, 416523, Note_on_c, 0, 45, 50
1, 416523, Note_on_c, 0, 48, 56
1, 416633, Note_on_c, 0, 48, 0
1, 416633, Note_on_c, 0, 45, 0
1, 416669, Note_on_c, 0, 76, 0
1, 416669, Note_on_c, 0, 88, 0
1, 416669, Note_on_c, 0, 86, 76
1, 416672, Note_on_c, 0, 74, 67
1, 416672, Note_on_c, 0, 48, 56
1, 416672, Note_on_c, 0, 45, 50
1, 416779, Note_on_c, 0, 45, 0
1, 416779, Note_on_c, 0, 48, 0
1, 416815, Note_on_c, 0, 45, 50
1, 416815, Note_on_c, 0, 48, 56
1, 416925, Note_on_c, 0, 48, 0
1, 416925, Note_on_c, 0, 45, 0
1, 416961, Note_on_c, 0, 74, 0
1, 416961, Note_on_c, 0, 86, 0
1, 416961, Note_on_c, 0, 84, 74
1, 416964, Note_on_c, 0, 72, 66
1, 416964, Note_on_c, 0, 45, 50
1, 416964, Note_on_c, 0, 48, 56
1, 417068, Note_on_c, 0, 48, 0
1, 417068, Note_on_c, 0, 45, 0
1, 417103, Note_on_c, 0, 48, 56
1, 417103, Note_on_c, 0, 45, 50
1, 417213, Note_on_c, 0, 45, 0
1, 417213, Note_on_c, 0, 48, 0
1, 417250, Note_on_c, 0, 72, 0
1, 417250, Note_on_c, 0, 84, 0
1, 417250, Note_on_c, 0, 83, 73
1, 417253, Note_on_c, 0, 71, 65
1, 417253, Note_on_c, 0, 45, 50
1, 417253, Note_on_c, 0, 48, 56
1, 417360, Note_on_c, 0, 48, 0
1, 417360, Note_on_c, 0, 45, 0
1, 417396, Note_on_c, 0, 45, 50
1, 417396, Note_on_c, 0, 48, 56
1, 417507, Note_on_c, 0, 48, 0
1, 417507, Note_on_c, 0, 45, 0
1, 417543, Note_on_c, 0, 71, 0
1, 417543, Note_on_c, 0, 83, 0
1, 417543, Note_on_c, 0, 81, 71
1, 417546, Note_on_c, 0, 69, 63
1, 417546, Note_on_c, 0, 48, 56
1, 417546, Note_on_c, 0, 45, 50
1, 417653, Note_on_c, 0, 45, 0
1, 417653, Note_on_c, 0, 48, 0
1, 417690, Note_on_c, 0, 45, 50
1, 417690, Note_on_c, 0, 48, 56
1, 417800, Note_on_c, 0, 48, 0
1, 417800, Note_on_c, 0, 45, 0
1, 417836, Note_on_c, 0, 69, 0
1, 417836, Note_on_c, 0, 81, 0
1, 417836, Note_on_c, 0, 79, 70
1, 417839, Note_on_c, 0, 67, 62
1, 417839, Note_on_c, 0, 48, 56
1, 417839, Note_on_c, 0, 45, 50
1, 417945, Note_on_c, 0, 45, 0
1, 417945, Note_on_c, 0, 48, 0
1, 417981, Note_on_c, 0, 47, 50
1, 417981, Note_on_c, 0, 50, 56
1, 418090, Note_on_c, 0, 50, 0
1, 418090, Note_on_c, 0, 47, 0
1, 418126, Note_on_c, 0, 67, 0
1, 418126, Note_on_c, 0, 79, 0
1, 418126, Note_on_c, 0, 77, 68
1, 418129, Note_on_c, 0, 65, 60
1, 418129, Note_on_c, 0, 47, 50
1, 418129, Note_on_c, 0, 50, 56
1, 418235, Note_on_c, 0, 50, 0
1, 418235, Note_on_c, 0, 47, 0
1, 418271, Note_on_c, 0, 65, 0
1, 418271, Note_on_c, 0, 77, 0
1, 418271, Note_on_c, 0, 64, 59
1, 418274, Note_on_c, 0, 76, 66
1, 418274, Note_on_c, 0, 52, 63
1, 418274, Note_on_c, 0, 48, 63
1, 418341, Note_on_c, 0, 76, 0
1, 418341, Note_on_c, 0, 64, 0
1, 418341, Note_on_c, 0, 64, 58
1, 418411, Note_on_c, 0, 64, 0
1, 418411, Note_on_c, 0, 65, 60
1, 418481, Note_on_c, 0, 65, 0
1, 418481, Note_on_c, 0, 67, 61
1, 418551, Note_on_c, 0, 67, 0
1, 418551, Note_on_c, 0, 69, 63
1, 418621, Note_on_c, 0, 69, 0
1, 418621, Note_on_c, 0, 71, 65
1, 418691, Note_on_c, 0, 71, 0
1, 418691, Note_on_c, 0, 52, 0
1, 418691, Note_on_c, 0, 72, 66
1, 418694, Note_on_c, 0, 55, 61
1, 418760, Note_on_c, 0, 55, 0
1, 418760, Note_on_c, 0, 72, 0
1, 418760, Note_on_c, 0, 74, 68
1, 418763, Note_on_c, 0, 53, 61
1, 418829, Note_on_c, 0, 53, 0
1, 418829, Note_on_c, 0, 74, 0
1, 418829, Note_on_c, 0, 76, 69
1, 418832, Note_on_c, 0, 52, 66
1, 418899, Note_on_c, 0, 76, 0
1, 418899, Note_on_c, 0, 69, 63
1, 418969, Note_on_c, 0, 69, 0
1, 418969, Note_on_c, 0, 52, 0
1, 418969, Note_on_c, 0, 71, 64
1, 418972, Note_on_c, 0, 48, 0
1, 419039, Note_on_c, 0, 71, 0
1, 419039, Note_on_c, 0, 72, 66
1, 419109, Note_on_c, 0, 72, 0
1, 419109, Note_on_c, 0, 74, 67
1, 419179, Note_on_c, 0, 74, 0
1, 419179, Note_on_c, 0, 76, 69
1, 419249, Note_on_c, 0, 76, 0
1, 419249, Note_on_c, 0, 78, 70
1, 419320, Note_on_c, 0, 78, 0
1, 419320, Note_on_c, 0, 80, 71
1, 419356, Note_on_c, 0, 48, 57
1, 419392, Note_on_c, 0, 48, 0
1, 419392, Note_on_c, 0, 80, 0
1, 419392, Note_on_c, 0, 81, 73
1, 419395, Note_on_c, 0, 64, 67
1, 419462, Note_on_c, 0, 81, 0
1, 419462, Note_on_c, 0, 76, 67
1, 419532, Note_on_c, 0, 76, 0
1, 419532, Note_on_c, 0, 78, 67
1, 419602, Note_on_c, 0, 78, 0
1, 419602, Note_on_c, 0, 80, 68
1, 419672, Note_on_c, 0, 80, 0
1, 419672, Note_on_c, 0, 81, 69
1, 419742, Note_on_c, 0, 81, 0
1, 419742, Note_on_c, 0, 64, 0
1, 419742, Note_on_c, 0, 83, 70
1, 419745, Note_on_c, 0, 62, 61
1, 419812, Note_on_c, 0, 62, 0
1, 419812, Note_on_c, 0, 83, 0
1, 419812, Note_on_c, 0, 84, 71
1, 419815, Note_on_c, 0, 60, 61
1, 419881, Note_on_c, 0, 60, 0
1, 419881, Note_on_c, 0, 84, 0
1, 419881, Note_on_c, 0, 86, 72
1, 419884, Note_on_c, 0, 59, 61
1, 419950, Note_on_c, 0, 59, 0
1, 419950, Note_on_c, 0, 86, 0
1, 419950, Note_on_c, 0, 88, 73
1, 419953, Note_on_c, 0, 57, 66
1, 420020, Note_on_c, 0, 88, 0
1, 420020, Note_on_c, 0, 86, 67
1, 420090, Note_on_c, 0, 86, 0
1, 420090, Note_on_c, 0, 57, 0
1, 420090, Note_on_c, 0, 84, 68
1, 420160, Note_on_c, 0, 84, 0
1, 420160, Note_on_c, 0, 83, 69
1, 420230, Note_on_c, 0, 83, 0
1, 420230, Note_on_c, 0, 81, 70
1, 420300, Note_on_c, 0, 81, 0
1, 420300, Note_on_c, 0, 83, 72
1, 420370, Note_on_c, 0, 83, 0
1, 420370, Note_on_c, 0, 84, 73
1, 420442, Note_on_c, 0, 84, 0
1, 420442, Note_on_c, 0, 81, 74
1, 420514, Note_on_c, 0, 81, 0
1, 420514, Note_on_c, 0, 53, 65
1, 420514, Note_on_c, 0, 50, 65
1, 420584, Note_on_c, 0, 65, 59
1, 420654, Note_on_c, 0, 65, 0
1, 420654, Note_on_c, 0, 67, 62
1, 420724, Note_on_c, 0, 67, 0
1, 420724, Note_on_c, 0, 69, 63
1, 420794, Note_on_c, 0, 69, 0
1, 420794, Note_on_c, 0, 71, 65
1, 420864, Note_on_c, 0, 71, 0
1, 420864, Note_on_c, 0, 72, 68
1, 420934, Note_on_c, 0, 72, 0
1, 420934, Note_on_c, 0, 53, 0
1, 420934, Note_on_c, 0, 74, 69
1, 420937, Note_on_c, 0, 57, 64
1, 421002, Note_on_c, 0, 57, 0
1, 421002, Note_on_c, 0, 74, 0
1, 421002, Note_on_c, 0, 76, 71
1, 421005, Note_on_c, 0, 55, 64
1, 421071, Note_on_c, 0, 55, 0
1, 421071, Note_on_c, 0, 76, 0
1, 421071, Note_on_c, 0, 77, 73
1, 421074, Note_on_c, 0, 53, 70
1, 421141, Note_on_c, 0, 77, 0
1, 421141, Note_on_c, 0, 71, 66
1, 421211, Note_on_c, 0, 71, 0
1, 421211, Note_on_c, 0, 53, 0
1, 421211, Note_on_c, 0, 72, 68
1, 421214, Note_on_c, 0, 50, 0
1, 421281, Note_on_c, 0, 72, 0
1, 421281, Note_on_c, 0, 74, 70
1, 421351, Note_on_c, 0, 74, 0
1, 421351, Note_on_c, 0, 76, 72
1, 421421, Note_on_c, 0, 76, 0
1, 421421, Note_on_c, 0, 77, 74
1, 421491, Note_on_c, 0, 77, 0
1, 421491, Note_on_c, 0, 79, 75
1, 421563, Note_on_c, 0, 79, 0
1, 421563, Note_on_c, 0, 81, 77
1, 421599, Note_on_c, 0, 50, 56
1, 421635, Note_on_c, 0, 50, 0
1, 421635, Note_on_c, 0, 81, 0
1, 421635, Note_on_c, 0, 83, 79
1, 421638, Note_on_c, 0, 65, 76
1, 421705, Note_on_c, 0, 83, 0
1, 421705, Note_on_c, 0, 77, 72
1, 421775, Note_on_c, 0, 77, 0
1, 421775, Note_on_c, 0, 79, 73
1, 421845, Note_on_c, 0, 79, 0
1, 421845, Note_on_c, 0, 81, 74
1, 421915, Note_on_c, 0, 81, 0
1, 421915, Note_on_c, 0, 83, 76
1, 421985, Note_on_c, 0, 83, 0
1, 421985, Note_on_c, 0, 65, 0
1, 421985, Note_on_c, 0, 84, 77
1, 421988, Note_on_c, 0, 64, 67
1, 422055, Note_on_c, 0, 64, 0
1, 422055, Note_on_c, 0, 84, 0
1, 422055, Note_on_c, 0, 86, 79
1, 422058, Note_on_c, 0, 62, 67
1, 422124, Note_on_c, 0, 62, 0
1, 422124, Note_on_c, 0, 86, 0
1, 422124, Note_on_c, 0, 88, 80
1, 422127, Note_on_c, 0, 60, 67
1, 422193, Note_on_c, 0, 60, 0
1, 422193, Note_on_c, 0, 88, 0
1, 422193, Note_on_c, 0, 89, 81
1, 422196, Note_on_c, 0, 59, 73
1, 422263, Note_on_c, 0, 89, 0
1, 422263, Note_on_c, 0, 88, 75
1, 422333, Note_on_c, 0, 88, 0
1, 422333, Note_on_c, 0, 59, 0
1, 422333, Note_on_c, 0, 86, 76
1, 422403, Note_on_c, 0, 86, 0
1, 422403, Note_on_c, 0, 84, 78
1, 422473, Note_on_c, 0, 84, 0
1, 422473, Note_on_c, 0, 83, 79
1, 422543, Note_on_c, 0, 83, 0
1, 422543, Note_on_c, 0, 84, 82
1, 422613, Note_on_c, 0, 84, 0
1, 422613, Note_on_c, 0, 86, 83
1, 422685, Note_on_c, 0, 86, 0
1, 422685, Note_on_c, 0, 83, 85
1, 422720, Note_on_c, 0, 52, 61
1, 422775, Note_on_c, 0, 52, 0
1, 422775, Note_on_c, 0, 83, 0
1, 422775, Note_on_c, 0, 67, 85
1, 422845, Note_on_c, 0, 79, 77
1, 422915, Note_on_c, 0, 79, 0
1, 422915, Note_on_c, 0, 81, 77
1, 422985, Note_on_c, 0, 81, 0
1, 422985, Note_on_c, 0, 83, 78
1, 423055, Note_on_c, 0, 83, 0
1, 423055, Note_on_c, 0, 84, 80
1, 423125, Note_on_c, 0, 84, 0
1, 423125, Note_on_c, 0, 67, 0
1, 423125, Note_on_c, 0, 86, 81
1, 423128, Note_on_c, 0, 65, 73
1, 423195, Note_on_c, 0, 65, 0
1, 423195, Note_on_c, 0, 86, 0
1, 423195, Note_on_c, 0, 88, 83
1, 423198, Note_on_c, 0, 64, 72
1, 423264, Note_on_c, 0, 64, 0
1, 423264, Note_on_c, 0, 88, 0
1, 423264, Note_on_c, 0, 89, 84
1, 423267, Note_on_c, 0, 62, 72
1, 423332, Note_on_c, 0, 62, 0
1, 423332, Note_on_c, 0, 89, 0
1, 423332, Note_on_c, 0, 91, 86
1, 423335, Note_on_c, 0, 61, 77
1, 423402, Note_on_c, 0, 91, 0
1, 423402, Note_on_c, 0, 89, 78
1, 423472, Note_on_c, 0, 89, 0
1, 423472, Note_on_c, 0, 61, 0
1, 423472, Note_on_c, 0, 88, 80
1, 423542, Note_on_c, 0, 88, 0
1, 423542, Note_on_c, 0, 86, 81
1, 423612, Note_on_c, 0, 86, 0
1, 423612, Note_on_c, 0, 85, 83
1, 423682, Note_on_c, 0, 85, 0
1, 423682, Note_on_c, 0, 86, 86
1, 423752, Note_on_c, 0, 86, 0
1, 423752, Note_on_c, 0, 88, 87
1, 423824, Note_on_c, 0, 88, 0
1, 423824, Note_on_c, 0, 85, 89
1, 423860, Note_on_c, 0, 53, 67
1, 423914, Note_on_c, 0, 53, 0
1, 423914, Note_on_c, 0, 85, 0
1, 423914, Note_on_c, 0, 69, 94
1, 423984, Note_on_c, 0, 73, 80
1, 424054, Note_on_c, 0, 73, 0
1, 424054, Note_on_c, 0, 74, 80
1, 424124, Note_on_c, 0, 74, 0
1, 424124, Note_on_c, 0, 76, 82
1, 424194, Note_on_c, 0, 76, 0
1, 424194, Note_on_c, 0, 69, 0
1, 424194, Note_on_c, 0, 77, 84
1, 424197, Note_on_c, 0, 67, 81
1, 424264, Note_on_c, 0, 67, 0
1, 424264, Note_on_c, 0, 77, 0
1, 424264, Note_on_c, 0, 79, 85
1, 424267, Note_on_c, 0, 65, 81
1, 424334, Note_on_c, 0, 65, 0
1, 424334, Note_on_c, 0, 79, 0
1, 424334, Note_on_c, 0, 81, 87
1, 424337, Note_on_c, 0, 64, 81
1, 424407, Note_on_c, 0, 64, 0
1, 424407, Note_on_c, 0, 81, 0
1, 424407, Note_on_c, 0, 77, 88
1, 424410, Note_on_c, 0, 62, 80
1, 424444, Note_on_c, 0, 55, 68
1, 424491, Note_on_c, 0, 55, 0
1, 424491, Note_on_c, 0, 62, 0
1, 424491, Note_on_c, 0, 71, 96
1, 424561, Note_on_c, 0, 77, 0
1, 424561, Note_on_c, 0, 75, 82
1, 424631, Note_on_c, 0, 75, 0
1, 424631, Note_on_c, 0, 76, 82
1, 424701, Note_on_c, 0, 76, 0
1, 424701, Note_on_c, 0, 77, 85
1, 424771, Note_on_c, 0, 77, 0
1, 424771, Note_on_c, 0, 71, 0
1, 424771, Note_on_c, 0, 79, 86
1, 424774, Note_on_c, 0, 69, 83
1, 424841, Note_on_c, 0, 69, 0
1, 424841, Note_on_c, 0, 79, 0
1, 424841, Note_on_c, 0, 81, 87
1, 424844, Note_on_c, 0, 67, 83
1, 424911, Note_on_c, 0, 67, 0
1, 424911, Note_on_c, 0, 81, 0
1, 424911, Note_on_c, 0, 83, 90
1, 424914, Note_on_c, 0, 65, 84
1, 424983, Note_on_c, 0, 65, 0
1, 424983, Note_on_c, 0, 83, 0
1, 424983, Note_on_c, 0, 79, 91
1, 424986, Note_on_c, 0, 64, 83
1, 425019, Note_on_c, 0, 57, 71
1, 425065, Note_on_c, 0, 57, 0
1, 425065, Note_on_c, 0, 64, 0
1, 425065, Note_on_c, 0, 72, 99
1, 425135, Note_on_c, 0, 79, 0
1, 425135, Note_on_c, 0, 76, 84
1, 425205, Note_on_c, 0, 76, 0
1, 425205, Note_on_c, 0, 77, 85
1, 425275, Note_on_c, 0, 77, 0
1, 425275, Note_on_c, 0, 79, 87
1, 425345, Note_on_c, 0, 79, 0
1, 425345, Note_on_c, 0, 72, 0
1, 425345, Note_on_c, 0, 81, 89
1, 425348, Note_on_c, 0, 71, 85
1, 425415, Note_on_c, 0, 71, 0
1, 425415, Note_on_c, 0, 81, 0
1, 425415, Note_on_c, 0, 83, 90
1, 425418, Note_on_c, 0, 69, 85
1, 425485, Note_on_c, 0, 69, 0
1, 425485, Note_on_c, 0, 83, 0
1, 425485, Note_on_c, 0, 84, 93
1, 425488, Note_on_c, 0, 67, 86
1, 425556, Note_on_c, 0, 67, 0
1, 425556, Note_on_c, 0, 84, 0
1, 425556, Note_on_c, 0, 81, 94
1, 425559, Note_on_c, 0, 65, 85
1, 425593, Note_on_c, 0, 59, 75
1, 425639, Note_on_c, 0, 59, 0
1, 425639, Note_on_c, 0, 65, 0
1, 425639, Note_on_c, 0, 74, 102
1, 425709, Note_on_c, 0, 81, 0
1, 425709, Note_on_c, 0, 78, 87
1, 425779, Note_on_c, 0, 78, 0
1, 425779, Note_on_c, 0, 79, 87
1, 425849, Note_on_c, 0, 79, 0
1, 425849, Note_on_c, 0, 81, 89
1, 425919, Note_on_c, 0, 81, 0
1, 425919, Note_on_c, 0, 74, 0
1, 425919, Note_on_c, 0, 83, 91
1, 425922, Note_on_c, 0, 72, 88
1, 425989, Note_on_c, 0, 72, 0
1, 425989, Note_on_c, 0, 83, 0
1, 425989, Note_on_c, 0, 84, 92
1, 425992, Note_on_c, 0, 71, 88
1, 426059, Note_on_c, 0, 71, 0
1, 426059, Note_on_c, 0, 84, 0
1, 426059, Note_on_c, 0, 86, 95
1, 426062, Note_on_c, 0, 69, 88
1, 426131, Note_on_c, 0, 69, 0
1, 426131, Note_on_c, 0, 86, 0
1, 426131, Note_on_c, 0, 83, 96
1, 426134, Note_on_c, 0, 67, 87
1, 426167, Note_on_c, 0, 60, 77
1, 426212, Note_on_c, 0, 60, 0
1, 426212, Note_on_c, 0, 67, 0
1, 426212, Note_on_c, 0, 76, 105
1, 426282, Note_on_c, 0, 83, 0
1, 426282, Note_on_c, 0, 80, 90
1, 426352, Note_on_c, 0, 80, 0
1, 426352, Note_on_c, 0, 81, 90
1, 426422, Note_on_c, 0, 81, 0
1, 426422, Note_on_c, 0, 83, 92
1, 426492, Note_on_c, 0, 83, 0
1, 426492, Note_on_c, 0, 76, 0
1, 426492, Note_on_c, 0, 84, 94
1, 426495, Note_on_c, 0, 74, 90
1, 426562, Note_on_c, 0, 74, 0
1, 426562, Note_on_c, 0, 84, 0
1, 426562, Note_on_c, 0, 86, 95
1, 426565, Note_on_c, 0, 72, 91
1, 426632, Note_on_c, 0, 72, 0
1, 426632, Note_on_c, 0, 86, 0
1, 426632, Note_on_c, 0, 88, 98
1, 426635, Note_on_c, 0, 71, 91
1, 426705, Note_on_c, 0, 71, 0
1, 426705, Note_on_c, 0, 88, 0
1, 426705, Note_on_c, 0, 84, 100
1, 426708, Note_on_c, 0, 69, 90
1, 426743, Note_on_c, 0, 62, 79
1, 426788, Note_on_c, 0, 62, 0
1, 426788, Note_on_c, 0, 69, 0
1, 426788, Note_on_c, 0, 77, 108
1, 426858, Note_on_c, 0, 84, 0
1, 426858, Note_on_c, 0, 82, 92
1, 426928, Note_on_c, 0, 82, 0
1, 426928, Note_on_c, 0, 83, 92
1, 426998, Note_on_c, 0, 83, 0
1, 426998, Note_on_c, 0, 84, 95
1, 427068, Note_on_c, 0, 84, 0
1, 427068, Note_on_c, 0, 77, 0
1, 427068, Note_on_c, 0, 86, 96
1, 427071, Note_on_c, 0, 76, 92
1, 427138, Note_on_c, 0, 76, 0
1, 427138, Note_on_c, 0, 86, 0
1, 427138, Note_on_c, 0, 88, 98
1, 427141, Note_on_c, 0, 74, 93
1, 427208, Note_on_c, 0, 74, 0
1, 427208, Note_on_c, 0, 88, 0
1, 427208, Note_on_c, 0, 89, 100
1, 427211, Note_on_c, 0, 72, 93
1, 427280, Note_on_c, 0, 72, 0
1, 427280, Note_on_c, 0, 89, 0
1, 427280, Note_on_c, 0, 86, 102
1, 427283, Note_on_c, 0, 71, 92
1, 427353, Note_on_c, 0, 71, 0
1, 427353, Note_on_c, 0, 86, 0
1, 427353, Control_c, 0, 64, 127
1, 427356, Note_on_c, 0, 64, 99
1, 427401, Note_on_c, 0, 64, 0
1, 427401, Note_on_c, 0, 72, 95
1, 427449, Note_on_c, 0, 72, 0
1, 427449, Note_on_c, 0, 76, 95
1, 427497, Note_on_c, 0, 76, 0
1, 427497, Note_on_c, 0, 79, 97
1, 427544, Note_on_c, 0, 79, 0
1, 427544, Note_on_c, 0, 84, 90
1, 427592, Note_on_c, 0, 84, 0
1, 427592, Note_on_c, 0, 91, 91
1, 427640, Note_on_c, 0, 91, 0
1, 427640, Note_on_c, 0, 64, 100
1, 427688, Note_on_c, 0, 64, 0
1, 427688, Note_on_c, 0, 72, 95
1, 427735, Note_on_c, 0, 72, 0
1, 427735, Note_on_c, 0, 76, 96
1, 427783, Note_on_c, 0, 76, 0
1, 427783, Note_on_c, 0, 79, 99
1, 427831, Note_on_c, 0, 79, 0
1, 427831, Note_on_c, 0, 84, 93
1, 427879, Note_on_c, 0, 84, 0
1, 427879, Note_on_c, 0, 91, 92
1, 427926, Note_on_c, 0, 91, 0
1, 427926, Note_on_c, 0, 64, 102
1, 427930, Control_c, 0, 64, 0
1, 427950, Control_c, 0, 64, 127
1, 427974, Note_on_c, 0, 64, 0
1, 427974, Note_on_c, 0, 72, 98
1, 428022, Note_on_c, 0, 72, 0
1, 428022, Note_on_c, 0, 76, 98
1, 428070, Note_on_c, 0, 76, 0
1, 428070, Note_on_c, 0, 80, 101
1, 428118, Note_on_c, 0, 80, 0
1, 428118, Note_on_c, 0, 84, 94
1, 428166, Note_on_c, 0, 84, 0
1, 428166, Note_on_c, 0, 92, 95
1, 428214, Note_on_c, 0, 92, 0
1, 428214, Note_on_c, 0, 64, 102
1, 428263, Note_on_c, 0, 64, 0
1, 428263, Note_on_c, 0, 72, 99
1, 428311, Note_on_c, 0, 72, 0
1, 428311, Note_on_c, 0, 76, 100
1, 428360, Note_on_c, 0, 76, 0
1, 428360, Note_on_c, 0, 80, 103
1, 428409, Note_on_c, 0, 80, 0
1, 428409, Note_on_c, 0, 84, 96
1, 428459, Note_on_c, 0, 84, 0
1, 428459, Note_on_c, 0, 92, 96
1, 428508, Note_on_c, 0, 92, 0
1, 428508, Note_on_c, 0, 81, 106
1, 428508, Note_on_c, 0, 72, 96
1, 428511, Note_on_c, 0, 77, 96
1, 428511, Note_on_c, 0, 65, 96
1, 428511, Control_c, 0, 64, 0
1, 428553, Control_c, 0, 64, 127
1, 428583, Note_on_c, 0, 81, 0
1, 428583, Note_on_c, 0, 93, 109
1, 428653, Note_on_c, 0, 93, 0
1, 428653, Note_on_c, 0, 91, 108
1, 428723, Note_on_c, 0, 91, 0
1, 428723, Note_on_c, 0, 89, 107
1, 428793, Note_on_c, 0, 89, 0
1, 428793, Note_on_c, 0, 65, 0
1, 428793, Note_on_c, 0, 88, 107
1, 428796, Note_on_c, 0, 77, 0
1, 428796, Note_on_c, 0, 72, 0
1, 428796, Control_c, 0, 64, 0
1, 428818, Control_c, 0, 64, 127
1, 428863, Note_on_c, 0, 88, 0
1, 428863, Note_on_c, 0, 86, 106
1, 428933, Note_on_c, 0, 86, 0
1, 428933, Note_on_c, 0, 84, 105
1, 429003, Note_on_c, 0, 84, 0
1, 429003, Note_on_c, 0, 83, 104
1, 429073, Note_on_c, 0, 83, 0
1, 429073, Note_on_c, 0, 81, 103
1, 429076, Control_c, 0, 64, 0
1, 429119, Control_c, 0, 64, 127
1, 429143, Note_on_c, 0, 81, 0
1, 429143, Note_on_c, 0, 79, 102
1, 429214, Note_on_c, 0, 79, 0
1, 429214, Note_on_c, 0, 77, 101
1, 429284, Note_on_c, 0, 77, 0
1, 429284, Note_on_c, 0, 76, 100
1, 429354, Note_on_c, 0, 76, 0
1, 429354, Note_on_c, 0, 74, 99
1, 429357, Control_c, 0, 64, 0
1, 429395, Control_c, 0, 64, 127
1, 429424, Note_on_c, 0, 74, 0
1, 429424, Note_on_c, 0, 72, 98
1, 429494, Note_on_c, 0, 72, 0
1, 429494, Note_on_c, 0, 71, 98
1, 429565, Note_on_c, 0, 71, 0
1, 429565, Note_on_c, 0, 69, 97
1, 429635, Note_on_c, 0, 69, 0
1, 429635, Note_on_c, 0, 68, 96
1, 429635, Control_c, 0, 64, 0
1, 429668, Control_c, 0, 64, 127
1, 429705, Note_on_c, 0, 68, 0
1, 429705, Note_on_c, 0, 69, 99
1, 429776, Note_on_c, 0, 69, 0
1, 429776, Note_on_c, 0, 67, 98
1, 429846, Note_on_c, 0, 67, 0
1, 429846, Note_on_c, 0, 65, 98
1, 429917, Note_on_c, 0, 65, 0
1, 429917, Note_on_c, 0, 64, 98
1, 429917, Note_on_c, 0, 29, 96
1, 429920, Control_c, 0, 64, 0
1, 429947, Control_c, 0, 64, 127
1, 429987, Note_on_c, 0, 64, 0
1, 429987, Note_on_c, 0, 62, 98
1, 430057, Note_on_c, 0, 62, 0
1, 430057, Note_on_c, 0, 60, 97
1, 430128, Note_on_c, 0, 60, 0
1, 430128, Note_on_c, 0, 59, 97
1, 430198, Note_on_c, 0, 59, 0
1, 430198, Note_on_c, 0, 57, 97
1, 430201, Control_c, 0, 64, 0
1, 430235, Control_c, 0, 64, 127
1, 430268, Note_on_c, 0, 57, 0
1, 430268, Note_on_c, 0, 29, 0
1, 430268, Note_on_c, 0, 55, 96
1, 430271, Note_on_c, 0, 31, 89
1, 430339, Note_on_c, 0, 31, 0
1, 430339, Note_on_c, 0, 55, 0
1, 430339, Note_on_c, 0, 53, 96
1, 430342, Note_on_c, 0, 33, 90
1, 430409, Note_on_c, 0, 33, 0
1, 430409, Note_on_c, 0, 53, 0
1, 430409, Note_on_c, 0, 52, 96
1, 430412, Note_on_c, 0, 35, 91
1, 430479, Note_on_c, 0, 35, 0
1, 430479, Note_on_c, 0, 52, 0
1, 430479, Note_on_c, 0, 50, 96
1, 430482, Note_on_c, 0, 36, 92
1, 430485, Control_c, 0, 64, 0
1, 430523, Control_c, 0, 64, 127
1, 430550, Note_on_c, 0, 36, 0
1, 430550, Note_on_c, 0, 50, 0
1, 430550, Note_on_c, 0, 48, 95
1, 430553, Note_on_c, 0, 38, 94
1, 430620, Note_on_c, 0, 38, 0
1, 430620, Note_on_c, 0, 48, 0
1, 430620, Note_on_c, 0, 47, 95
1, 430623, Note_on_c, 0, 40, 95
1, 430691, Note_on_c, 0, 40, 0
1, 430691, Note_on_c, 0, 47, 0
1, 430691, Note_on_c, 0, 45, 95
1, 430694, Note_on_c, 0, 41, 96
1, 430762, Note_on_c, 0, 41, 0
1, 430762, Note_on_c, 0, 45, 0
1, 430762, Note_on_c, 0, 43, 96
1, 430765, Note_on_c, 0, 31, 84
1, 430765, Note_on_c, 0, 36, 84
1, 430765, Note_on_c, 0, 40, 96
1, 430768, Control_c, 0, 64, 0
1, 430833, Note_on_c, 0, 43, 0
1, 430833, Note_on_c, 0, 48, 96
1, 430904, Note_on_c, 0, 48, 0
1, 430904, Note_on_c, 0, 47, 68
1, 430975, Note_on_c, 0, 47, 0
1, 430975, Note_on_c, 0, 50, 68
1, 431047, Note_on_c, 0, 50, 0
1, 431047, Note_on_c, 0, 40, 0
1, 431047, Note_on_c, 0, 48, 68
1, 431050, Note_on_c, 0, 36, 0
1, 431050, Note_on_c, 0, 31, 0
1, 431118, Note_on_c, 0, 48, 0
1, 431118, Note_on_c, 0, 52, 69
1, 431189, Note_on_c, 0, 52, 0
1, 431189, Note_on_c, 0, 51, 69
1, 431260, Note_on_c, 0, 51, 0
1, 431260, Note_on_c, 0, 53, 69
1, 431331, Note_on_c, 0, 53, 0
1, 431331, Note_on_c, 0, 52, 69
1, 431402, Note_on_c, 0, 52, 0
1, 431402, Note_on_c, 0, 55, 70
1, 431473, Note_on_c, 0, 55, 0
1, 431473, Note_on_c, 0, 54, 70
1, 431544, Note_on_c, 0, 54, 0
1, 431544, Note_on_c, 0, 57, 70
1, 431614, Note_on_c, 0, 57, 0
1, 431614, Note_on_c, 0, 55, 71
1, 431685, Note_on_c, 0, 55, 0
1, 431685, Note_on_c, 0, 60, 71
1, 431756, Note_on_c, 0, 60, 0
1, 431756, Note_on_c, 0, 59, 71
1, 431827, Note_on_c, 0, 59, 0
1, 431827, Note_on_c, 0, 62, 72
1, 431898, Note_on_c, 0, 62, 0
1, 431898, Note_on_c, 0, 60, 72
1, 431968, Note_on_c, 0, 60, 0
1, 431968, Note_on_c, 0, 64, 72
1, 432038, Note_on_c, 0, 64, 0
1, 432038, Note_on_c, 0, 63, 73
1, 432108, Note_on_c, 0, 63, 0
1, 432108, Note_on_c, 0, 65, 73
1, 432179, Note_on_c, 0, 65, 0
1, 432179, Note_on_c, 0, 64, 73
1, 432249, Note_on_c, 0, 64, 0
1, 432249, Note_on_c, 0, 67, 74
1, 432319, Note_on_c, 0, 67, 0
1, 432319, Note_on_c, 0, 66, 74
1, 432389, Note_on_c, 0, 66, 0
1, 432389, Note_on_c, 0, 69, 74
1, 432459, Note_on_c, 0, 69, 0
1, 432459, Note_on_c, 0, 67, 75
1, 432530, Note_on_c, 0, 67, 0
1, 432530, Note_on_c, 0, 72, 75
1, 432600, Note_on_c, 0, 72, 0
1, 432600, Note_on_c, 0, 71, 75
1, 432670, Note_on_c, 0, 71, 0
1, 432670, Note_on_c, 0, 74, 76
1, 432740, Note_on_c, 0, 74, 0
1, 432740, Note_on_c, 0, 72, 76
1, 432810, Note_on_c, 0, 72, 0
1, 432810, Note_on_c, 0, 76, 76
1, 432881, Note_on_c, 0, 76, 0
1, 432881, Note_on_c, 0, 75, 77
1, 432951, Note_on_c, 0, 75, 0
1, 432951, Note_on_c, 0, 77, 77
1, 433021, Note_on_c, 0, 77, 0
1, 433021, Note_on_c, 0, 76, 77
1, 433091, Note_on_c, 0, 76, 0
1, 433091, Note_on_c, 0, 79, 79
1, 433161, Note_on_c, 0, 79, 0
1, 433161, Note_on_c, 0, 78, 81
1, 433232, Note_on_c, 0, 78, 0
1, 433232, Note_on_c, 0, 81, 83
1, 433312, Note_on_c, 0, 81, 0
1, 433312, Note_on_c, 0, 79, 91
1, 433347, Note_on_c, 0, 79, 0
1, 433382, Note_on_c, 0, 84, 83
1, 433382, Note_on_c, 0, 76, 73
1, 433389, Control_c, 0, 64, 127
1, 433452, Note_on_c, 0, 76, 0
1, 433452, Note_on_c, 0, 84, 0
1, 433452, Note_on_c, 0, 83, 83
1, 433455, Note_on_c, 0, 75, 73
1, 433523, Note_on_c, 0, 75, 0
1, 433523, Note_on_c, 0, 83, 0
1, 433523, Note_on_c, 0, 84, 84
1, 433526, Note_on_c, 0, 76, 74
1, 433600, Note_on_c, 0, 76, 0
1, 433600, Note_on_c, 0, 84, 0
1, 433600, Note_on_c, 0, 79, 91
1, 433603, Note_on_c, 0, 67, 81
1, 433603, Control_c, 0, 64, 0
1, 433635, Note_on_c, 0, 67, 0
1, 433635, Note_on_c, 0, 79, 0
1, 433670, Note_on_c, 0, 88, 84
1, 433670, Control_c, 0, 64, 127
1, 433670, Note_on_c, 0, 72, 75
1, 433740, Note_on_c, 0, 72, 0
1, 433740, Note_on_c, 0, 88, 0
1, 433740, Note_on_c, 0, 87, 85
1, 433743, Note_on_c, 0, 71, 76
1, 433810, Note_on_c, 0, 71, 0
1, 433810, Note_on_c, 0, 87, 0
1, 433810, Note_on_c, 0, 88, 86
1, 433813, Note_on_c, 0, 72, 76
1, 433885, Note_on_c, 0, 72, 0
1, 433885, Note_on_c, 0, 88, 0
1, 433885, Note_on_c, 0, 79, 93
1, 433888, Control_c, 0, 64, 0
1, 433888, Note_on_c, 0, 67, 82
1, 433920, Note_on_c, 0, 67, 0
1, 433920, Note_on_c, 0, 79, 0
1, 433953, Control_c, 0, 64, 127
1, 433956, Note_on_c, 0, 84, 86
1, 433956, Note_on_c, 0, 76, 77
1, 434026, Note_on_c, 0, 76, 0
1, 434026, Note_on_c, 0, 84, 0
1, 434026, Note_on_c, 0, 83, 87
1, 434029, Note_on_c, 0, 75, 77
1, 434096, Note_on_c, 0, 75, 0
1, 434096, Note_on_c, 0, 83, 0
1, 434096, Note_on_c, 0, 84, 87
1, 434099, Note_on_c, 0, 76, 77
1, 434171, Note_on_c, 0, 76, 0
1, 434171, Note_on_c, 0, 84, 0
1, 434171, Note_on_c, 0, 79, 95
1, 434174, Note_on_c, 0, 67, 84
1, 434174, Control_c, 0, 64, 0
1, 434206, Note_on_c, 0, 67, 0
1, 434206, Note_on_c, 0, 79, 0
1, 434241, Note_on_c, 0, 88, 88
1, 434241, Note_on_c, 0, 72, 78
1, 434251, Control_c, 0, 64, 127
1, 434311, Note_on_c, 0, 72, 0
1, 434311, Note_on_c, 0, 88, 0
1, 434311, Note_on_c, 0, 87, 89
1, 434314, Note_on_c, 0, 71, 79
1, 434381, Note_on_c, 0, 71, 0
1, 434381, Note_on_c, 0, 87, 0
1, 434381, Note_on_c, 0, 88, 89
1, 434384, Note_on_c, 0, 72, 79
1, 434455, Note_on_c, 0, 72, 0
1, 434455, Note_on_c, 0, 88, 0
1, 434455, Note_on_c, 0, 79, 97
1, 434458, Control_c, 0, 64, 0
1, 434458, Note_on_c, 0, 67, 86
1, 434490, Note_on_c, 0, 67, 0
1, 434490, Note_on_c, 0, 79, 0
1, 434525, Note_on_c, 0, 84, 90
1, 434525, Note_on_c, 0, 76, 80
1, 434556, Control_c, 0, 64, 127
1, 434595, Note_on_c, 0, 76, 0
1, 434595, Note_on_c, 0, 84, 0
1, 434595, Note_on_c, 0, 83, 90
1, 434598, Note_on_c, 0, 75, 80
1, 434666, Note_on_c, 0, 75, 0
1, 434666, Note_on_c, 0, 83, 0
1, 434666, Note_on_c, 0, 84, 91
1, 434669, Note_on_c, 0, 76, 80
1, 434739, Note_on_c, 0, 76, 0
1, 434739, Note_on_c, 0, 84, 0
1, 434739, Note_on_c, 0, 79, 99
1, 434742, Control_c, 0, 64, 0
1, 434742, Note_on_c, 0, 67, 88
1, 434775, Note_on_c, 0, 67, 0
1, 434775, Note_on_c, 0, 79, 0
1, 434810, Note_on_c, 0, 88, 92
1, 434810, Note_on_c, 0, 72, 81
1, 434834, Control_c, 0, 64, 127
1, 434880, Note_on_c, 0, 72, 0
1, 434880, Note_on_c, 0, 88, 0
1, 434880, Note_on_c, 0, 87, 92
1, 434883, Note_on_c, 0, 71, 81
1, 434951, Note_on_c, 0, 71, 0
1, 434951, Note_on_c, 0, 87, 0
1, 434951, Note_on_c, 0, 88, 92
1, 434954, Note_on_c, 0, 72, 82
1, 435021, Note_on_c, 0, 72, 0
1, 435021, Note_on_c, 0, 88, 0
1, 435021, Note_on_c, 0, 79, 101
1, 435024, Control_c, 0, 64, 0
1, 435024, Note_on_c, 0, 67, 90
1, 435056, Note_on_c, 0, 67, 0
1, 435056, Note_on_c, 0, 79, 0
1, 435092, Note_on_c, 0, 84, 93
1, 435092, Note_on_c, 0, 76, 83
1, 435124, Control_c, 0, 64, 127
1, 435165, Note_on_c, 0, 76, 0
1, 435165, Note_on_c, 0, 84, 0
1, 435165, Note_on_c, 0, 83, 94
1, 435168, Note_on_c, 0, 75, 83
1, 435247, Note_on_c, 0, 75, 0
1, 435247, Note_on_c, 0, 83, 0
1, 435247, Note_on_c, 0, 84, 94
1, 435250, Note_on_c, 0, 76, 84
1, 435343, Note_on_c, 0, 84, 0
1, 435343, Note_on_c, 0, 89, 108
1, 435343, Note_on_c, 0, 83, 108
1, 435346, Note_on_c, 0, 76, 0
1, 435346, Note_on_c, 0, 74, 94
1, 435346, Control_c, 0, 64, 0
1, 435349, Note_on_c, 0, 67, 94
1, 435349, Note_on_c, 0, 77, 94
1, 435418, Control_c, 0, 64, 127
1, 436454, Note_on_c, 0, 83, 0
1, 436454, Note_on_c, 0, 89, 0
1, 436454, Note_on_c, 0, 89, 94
1, 436462, Control_c, 0, 64, 0
1, 436502, Control_c, 0, 64, 127
1, 436505, Note_on_c, 0, 89, 0
1, 436505, Note_on_c, 0, 88, 94
1, 436556, Note_on_c, 0, 88, 0
1, 436556, Note_on_c, 0, 86, 93
1, 436608, Note_on_c, 0, 86, 0
1, 436608, Note_on_c, 0, 84, 92
1, 436660, Note_on_c, 0, 84, 0
1, 436660, Note_on_c, 0, 83, 91
1, 436713, Note_on_c, 0, 83, 0
1, 436713, Note_on_c, 0, 81, 90
1, 436766, Note_on_c, 0, 81, 0
1, 436766, Note_on_c, 0, 79, 89
1, 436819, Note_on_c, 0, 79, 0
1, 436819, Note_on_c, 0, 77, 89
1, 436872, Note_on_c, 0, 77, 0
1, 436872, Note_on_c, 0, 76, 87
1, 436925, Note_on_c, 0, 76, 0
1, 436925, Note_on_c, 0, 74, 87
1, 436979, Note_on_c, 0, 74, 0
1, 436979, Note_on_c, 0, 72, 86
1, 437034, Note_on_c, 0, 72, 0
1, 437034, Note_on_c, 0, 71, 86
1, 437095, Note_on_c, 0, 71, 0
1, 437095, Note_on_c, 0, 71, 99
1, 437095, Note_on_c, 0, 77, 99
1, 437098, Note_on_c, 0, 77, 0
1, 437098, Note_on_c, 0, 74, 0
1, 437098, Note_on_c, 0, 67, 0
1, 437101, Note_on_c, 0, 65, 86
1, 437101, Note_on_c, 0, 55, 86
1, 437101, Note_on_c, 0, 62, 86
1, 437104, Control_c, 0, 64, 0
1, 437160, Control_c, 0, 64, 127
1, 438493, Note_on_c, 0, 71, 0
1, 438493, Note_on_c, 0, 77, 0
1, 438493, Note_on_c, 0, 77, 85
1, 438503, Control_c, 0, 64, 0
1, 438545, Control_c, 0, 64, 127
1, 438556, Note_on_c, 0, 77, 0
1, 438556, Note_on_c, 0, 76, 83
1, 438619, Note_on_c, 0, 76, 0
1, 438619, Note_on_c, 0, 74, 81
1, 438684, Note_on_c, 0, 74, 0
1, 438684, Note_on_c, 0, 72, 81
1, 438751, Note_on_c, 0, 72, 0
1, 438751, Note_on_c, 0, 71, 81
1, 438818, Note_on_c, 0, 71, 0
1, 438818, Note_on_c, 0, 69, 80
1, 438891, Note_on_c, 0, 69, 0
1, 438891, Note_on_c, 0, 67, 77
1, 438970, Note_on_c, 0, 67, 0
1, 438970, Note_on_c, 0, 65, 75
1, 439057, Note_on_c, 0, 65, 0
1, 439057, Note_on_c, 0, 55, 63
1, 439057, Note_on_c, 0, 60, 63
1, 439060, Note_on_c, 0, 62, 0
1, 439060, Note_on_c, 0, 55, 0
1, 439060, Note_on_c, 0, 64, 71
1, 439063, Note_on_c, 0, 65, 0
1, 439063, Note_on_c, 0, 48, 60
1, 439063, Note_on_c, 0, 36, 54
1, 439066, Control_c, 0, 64, 0
1, 439724, Note_on_c, 0, 55, 0
1, 439724, Note_on_c, 0, 64, 0
1, 439724, Note_on_c, 0, 60, 0
1, 439727, Note_on_c, 0, 53, 61
1, 439727, Note_on_c, 0, 59, 61
1, 439727, Note_on_c, 0, 62, 69
1, 439730, Note_on_c, 0, 48, 0
1, 439730, Note_on_c, 0, 36, 0
1, 439730, Note_on_c, 0, 44, 50
1, 439733, Note_on_c, 0, 32, 50
1, 440050, Note_on_c, 0, 59, 0
1, 440050, Note_on_c, 0, 62, 0
1, 440050, Note_on_c, 0, 53, 0
1, 440053, Note_on_c, 0, 52, 61
1, 440053, Note_on_c, 0, 57, 61
1, 440053, Note_on_c, 0, 60, 69
1, 440056, Note_on_c, 0, 44, 0
1, 440056, Note_on_c, 0, 32, 0
1, 440056, Note_on_c, 0, 45, 56
1, 440059, Note_on_c, 0, 33, 50
1, 440395, Note_on_c, 0, 57, 0
1, 440395, Note_on_c, 0, 60, 0
1, 440395, Note_on_c, 0, 52, 0
1, 440398, Note_on_c, 0, 50, 63
1, 440398, Note_on_c, 0, 56, 63
1, 440398, Note_on_c, 0, 59, 71
1, 440401, Note_on_c, 0, 45, 0
1, 440401, Note_on_c, 0, 33, 0
1, 440401, Note_on_c, 0, 40, 60
1, 441064, Note_on_c, 0, 56, 0
1, 441064, Note_on_c, 0, 59, 0
1, 441064, Note_on_c, 0, 50, 0
1, 441067, Note_on_c, 0, 40, 0
1, 441067, Note_on_c, 0, 48, 61
1, 441067, Note_on_c, 0, 57, 69
1, 441070, Note_on_c, 0, 41, 55
1, 441749, Note_on_c, 0, 57, 0
1, 441749, Note_on_c, 0, 48, 0
1, 441749, Note_on_c, 0, 65, 66
1, 441752, Note_on_c, 0, 41, 0
1, 441752, Note_on_c, 0, 67, 66
1, 441752, Note_on_c, 0, 71, 74
1, 441755, Note_on_c, 0, 53, 62
1, 441755, Note_on_c, 0, 55, 55
1, 441755, Note_on_c, 0, 59, 62
1, 441758, Note_on_c, 0, 50, 55
1, 442423, Note_on_c, 0, 71, 0
1, 442423, Note_on_c, 0, 65, 0
1, 442423, Note_on_c, 0, 67, 0
1, 442426, Note_on_c, 0, 50, 0
1, 442426, Note_on_c, 0, 67, 68
1, 442426, Note_on_c, 0, 72, 77
1, 442429, Note_on_c, 0, 53, 0
1, 442429, Note_on_c, 0, 55, 0
1, 442429, Note_on_c, 0, 59, 0
1, 442432, Note_on_c, 0, 55, 59
1, 442432, Note_on_c, 0, 60, 67
1, 442432, Note_on_c, 0, 52, 59
1, 442753, Note_on_c, 0, 67, 0
1, 442753, Note_on_c, 0, 72, 0
1, 442753, Note_on_c, 0, 69, 72
1, 442756, Note_on_c, 0, 52, 0
1, 442756, Note_on_c, 0, 72, 72
1, 442756, Note_on_c, 0, 74, 83
1, 442759, Note_on_c, 0, 60, 0
1, 442759, Note_on_c, 0, 55, 0
1, 442759, Note_on_c, 0, 62, 72
1, 442762, Note_on_c, 0, 53, 64
1, 442762, Note_on_c, 0, 60, 64
1, 442762, Note_on_c, 0, 57, 64
1, 443118, Note_on_c, 0, 69, 0
1, 443118, Note_on_c, 0, 74, 0
1, 443118, Note_on_c, 0, 72, 0
1, 443121, Note_on_c, 0, 67, 77
1, 443121, Note_on_c, 0, 72, 77
1, 443121, Note_on_c, 0, 76, 88
1, 443124, Note_on_c, 0, 53, 0
1, 443124, Note_on_c, 0, 57, 0
1, 443124, Note_on_c, 0, 62, 0
1, 443127, Note_on_c, 0, 60, 0
1, 443127, Note_on_c, 0, 55, 67
1, 443127, Note_on_c, 0, 60, 67
1, 443130, Note_on_c, 0, 64, 77
1, 443787, Note_on_c, 0, 76, 0
1, 443787, Note_on_c, 0, 72, 0
1, 443787, Note_on_c, 0, 71, 71
1, 443790, Note_on_c, 0, 60, 0
1, 443790, Note_on_c, 0, 64, 0
1, 443790, Note_on_c, 0, 74, 81
1, 443793, Note_on_c, 0, 59, 62
1, 443793, Note_on_c, 0, 62, 70
1, 444126, Note_on_c, 0, 67, 0
1, 444126, Note_on_c, 0, 79, 71
1, 444302, Note_on_c, 0, 79, 0
1, 444302, Note_on_c, 0, 77, 70
1, 444479, Note_on_c, 0, 77, 0
1, 444479, Note_on_c, 0, 74, 0
1, 444479, Note_on_c, 0, 71, 0
1, 444482, Note_on_c, 0, 55, 0
1, 444482, Note_on_c, 0, 59, 0
1, 444482, Note_on_c, 0, 62, 0
1, 444485, Note_on_c, 0, 76, 71
1, 444485, Note_on_c, 0, 72, 63
1, 444808, Note_on_c, 0, 88, 73
1, 444808, Note_on_c, 0, 84, 65
1, 445137, Note_on_c, 0, 84, 0
1, 445137, Note_on_c, 0, 88, 0
1, 445137, Note_on_c, 0, 86, 71
1, 445140, Note_on_c, 0, 72, 0
1, 445140, Note_on_c, 0, 83, 63
1, 445140, Note_on_c, 0, 77, 63
1, 445143, Note_on_c, 0, 76, 0
1, 445143, Note_on_c, 0, 74, 69
1, 445143, Note_on_c, 0, 68, 61
1, 445146, Note_on_c, 0, 71, 61
1, 445458, Note_on_c, 0, 86, 0
1, 445458, Note_on_c, 0, 77, 0
1, 445458, Note_on_c, 0, 83, 0
1, 445461, Note_on_c, 0, 84, 71
1, 445461, Note_on_c, 0, 81, 63
1, 445461, Note_on_c, 0, 76, 63
1, 445464, Note_on_c, 0, 74, 0
1, 445464, Note_on_c, 0, 71, 0
1, 445464, Note_on_c, 0, 68, 0
1, 445467, Note_on_c, 0, 69, 61
1, 445467, Note_on_c, 0, 72, 69
1, 445795, Note_on_c, 0, 84, 0
1, 445795, Note_on_c, 0, 76, 0
1, 445795, Note_on_c, 0, 81, 0
1, 445798, Note_on_c, 0, 74, 66
1, 445798, Note_on_c, 0, 80, 66
1, 445798, Note_on_c, 0, 83, 74
1, 445801, Note_on_c, 0, 69, 0
1, 445801, Note_on_c, 0, 72, 0
1, 445801, Note_on_c, 0, 64, 63
1, 445804, Note_on_c, 0, 68, 63
1, 445804, Note_on_c, 0, 71, 71
1, 446447, Note_on_c, 0, 80, 0
1, 446447, Note_on_c, 0, 83, 0
1, 446447, Note_on_c, 0, 74, 0
1, 446450, Note_on_c, 0, 71, 0
1, 446450, Note_on_c, 0, 72, 63
1, 446450, Note_on_c, 0, 81, 71
1, 446453, Note_on_c, 0, 68, 0
1, 446453, Note_on_c, 0, 64, 0
1, 446453, Note_on_c, 0, 65, 61
1, 446456, Note_on_c, 0, 69, 69
1, 447125, Note_on_c, 0, 72, 0
1, 447125, Note_on_c, 0, 81, 0
1, 447125, Note_on_c, 0, 72, 66
1, 447128, Note_on_c, 0, 69, 0
1, 447128, Note_on_c, 0, 76, 66
1, 447128, Note_on_c, 0, 79, 74
1, 447131, Note_on_c, 0, 65, 0
1, 447131, Note_on_c, 0, 64, 55
1, 447131, Note_on_c, 0, 67, 61
1, 447134, Note_on_c, 0, 55, 55
1, 447464, Note_on_c, 0, 72, 0
1, 447464, Note_on_c, 0, 76, 0
1, 447464, Note_on_c, 0, 74, 61
1, 447467, Note_on_c, 0, 64, 0
1, 447467, Note_on_c, 0, 67, 0
1, 447467, Note_on_c, 0, 77, 69
1, 447470, Note_on_c, 0, 69, 56
1, 447470, Note_on_c, 0, 65, 50
1, 447817, Note_on_c, 0, 79, 0
1, 447817, Note_on_c, 0, 81, 74
1, 448215, Note_on_c, 0, 81, 0
1, 448215, Note_on_c, 0, 83, 72
1, 449190, Note_on_c, 0, 83, 0
1, 449190, Note_on_c, 0, 77, 0
1, 449190, Note_on_c, 0, 74, 0
1, 449193, Note_on_c, 0, 60, 66
1, 449193, Note_on_c, 0, 64, 66
1, 449193, Note_on_c, 0, 67, 74
1, 449196, Note_on_c, 0, 55, 0
1, 449196, Note_on_c, 0, 65, 0
1, 449196, Note_on_c, 0, 69, 0
1, 449199, Note_on_c, 0, 43, 55
1, 449199, Note_on_c, 0, 55, 61
1, 449199, Note_on_c, 0, 52, 55
1, 449554, Note_on_c, 0, 60, 0
1, 449554, Note_on_c, 0, 64, 0
1, 449554, Note_on_c, 0, 62, 61
1, 449557, Note_on_c, 0, 55, 0
1, 449557, Note_on_c, 0, 52, 0
1, 449557, Note_on_c, 0, 65, 69
1, 449560, Note_on_c, 0, 53, 50
1, 449560, Note_on_c, 0, 57, 56
1, 449925, Note_on_c, 0, 67, 0
1, 450666, Note_on_c, 0, 68, 77
1, 451438, Note_on_c, 0, 68, 0
1, 451438, Note_on_c, 0, 71, 67
1, 452537, Note_on_c, 0, 71, 0
1, 452537, Note_on_c, 0, 65, 0
1, 452537, Note_on_c, 0, 62, 0
1, 452540, Note_on_c, 0, 48, 66
1, 452540, Note_on_c, 0, 52, 66
1, 452540, Note_on_c, 0, 55, 74
1, 452543, Note_on_c, 0, 43, 0
1, 452543, Note_on_c, 0, 57, 0
1, 452543, Note_on_c, 0, 53, 0
1, 452546, Note_on_c, 0, 31, 55
1, 452546, Note_on_c, 0, 40, 55
1, 452546, Note_on_c, 0, 43, 61
1, 452900, Note_on_c, 0, 48, 0
1, 452900, Note_on_c, 0, 52, 0
1, 452900, Note_on_c, 0, 50, 61
1, 452903, Note_on_c, 0, 40, 0
1, 452903, Note_on_c, 0, 43, 0
1, 452903, Note_on_c, 0, 53, 69
1, 452906, Note_on_c, 0, 41, 50
1, 452906, Note_on_c, 0, 45, 56
1, 453271, Note_on_c, 0, 55, 0
1, 454012, Note_on_c, 0, 57, 77
1, 454784, Note_on_c, 0, 57, 0
1, 454784, Note_on_c, 0, 59, 67
1, 455883, Note_on_c, 0, 59, 0
1, 455883, Note_on_c, 0, 53, 0
1, 455883, Note_on_c, 0, 50, 0
1, 455886, Note_on_c, 0, 52, 49
1, 455886, Note_on_c, 0, 60, 61
1, 455886, Control_c, 0, 91, 127
1, 455889, Note_on_c, 0, 31, 0
1, 455889, Note_on_c, 0, 45, 0
1, 455889, Note_on_c, 0, 41, 0
1, 455892, Note_on_c, 0, 48, 46
1, 455892, Control_c, 0, 64, 0
1, 455892, Note_on_c, 0, 36, 46
1, 455895, Control_c, 0, 64, 0
1, 455950, Note_on_c, 0, 36, 0
1, 455950, Note_on_c, 0, 48, 0
1, 455950, Note_on_c, 0, 52, 0
1, 456018, Note_on_c, 0, 60, 0
1, 456018, Note_on_c, 0, 60, 49
1, 456018, Note_on_c, 0, 64, 54
1, 456021, Note_on_c, 0, 55, 47
1, 456021, Note_on_c, 0, 48, 43
1, 456086, Note_on_c, 0, 48, 0
1, 456086, Note_on_c, 0, 60, 0
1, 456086, Note_on_c, 0, 64, 0
1, 456089, Note_on_c, 0, 55, 0
1, 456154, Note_on_c, 0, 60, 49
1, 456154, Note_on_c, 0, 64, 54
1, 456154, Note_on_c, 0, 55, 47
1, 456157, Note_on_c, 0, 48, 43
1, 456221, Note_on_c, 0, 48, 0
1, 456221, Note_on_c, 0, 60, 0
1, 456221, Note_on_c, 0, 64, 0
1, 456224, Note_on_c, 0, 55, 0
1, 456288, Note_on_c, 0, 60, 49
1, 456288, Note_on_c, 0, 64, 55
1, 456288, Note_on_c, 0, 55, 48
1, 456291, Note_on_c, 0, 48, 43
1, 456355, Note_on_c, 0, 48, 0
1, 456355, Note_on_c, 0, 60, 0
1, 456355, Note_on_c, 0, 64, 0
1, 456358, Note_on_c, 0, 55, 0
1, 456423, Note_on_c, 0, 60, 49
1, 456423, Note_on_c, 0, 64, 55
1, 456423, Note_on_c, 0, 48, 43
1, 456426, Note_on_c, 0, 55, 48
1, 456490, Note_on_c, 0, 55, 0
1, 456490, Note_on_c, 0, 60, 0
1, 456490, Note_on_c, 0, 64, 0
1, 456493, Note_on_c, 0, 48, 0
1, 456558, Note_on_c, 0, 60, 49
1, 456558, Note_on_c, 0, 64, 55
1, 456558, Note_on_c, 0, 55, 49
1, 456561, Note_on_c, 0, 48, 44
1, 456626, Note_on_c, 0, 48, 0
1, 456626, Note_on_c, 0, 60, 0
1, 456626, Note_on_c, 0, 64, 0
1, 456629, Note_on_c, 0, 55, 0
1, 456694, Note_on_c, 0, 60, 50
1, 456694, Note_on_c, 0, 64, 56
1, 456694, Note_on_c, 0, 55, 49
1, 456697, Note_on_c, 0, 48, 44
1, 456762, Note_on_c, 0, 48, 0
1, 456762, Note_on_c, 0, 60, 0
1, 456762, Note_on_c, 0, 64, 0
1, 456765, Note_on_c, 0, 55, 0
1, 456829, Note_on_c, 0, 60, 50
1, 456829, Note_on_c, 0, 64, 56
1, 456829, Note_on_c, 0, 55, 50
1, 456832, Note_on_c, 0, 48, 45
1, 456897, Note_on_c, 0, 48, 0
1, 456897, Note_on_c, 0, 60, 0
1, 456897, Note_on_c, 0, 64, 0
1, 456900, Note_on_c, 0, 55, 0
1, 456964, Note_on_c, 0, 60, 51
1, 456964, Note_on_c, 0, 64, 57
1, 456964, Note_on_c, 0, 48, 46
1, 456967, Note_on_c, 0, 55, 51
1, 457032, Note_on_c, 0, 55, 0
1, 457032, Note_on_c, 0, 60, 0
1, 457032, Note_on_c, 0, 64, 0
1, 457035, Note_on_c, 0, 48, 0
1, 457099, Note_on_c, 0, 60, 51
1, 457099, Note_on_c, 0, 64, 57
1, 457099, Note_on_c, 0, 48, 43
1, 457102, Note_on_c, 0, 55, 48
1, 457167, Note_on_c, 0, 55, 0
1, 457167, Note_on_c, 0, 60, 0
1, 457167, Note_on_c, 0, 64, 0
1, 457170, Note_on_c, 0, 48, 0
1, 457235, Note_on_c, 0, 60, 52
1, 457235, Note_on_c, 0, 64, 58
1, 457235, Note_on_c, 0, 48, 44
1, 457238, Note_on_c, 0, 55, 49
1, 457302, Note_on_c, 0, 55, 0
1, 457302, Note_on_c, 0, 60, 0
1, 457302, Note_on_c, 0, 64, 0
1, 457305, Note_on_c, 0, 48, 0
1, 457370, Note_on_c, 0, 60, 53
1, 457370, Note_on_c, 0, 64, 59
1, 457370, Note_on_c, 0, 55, 50
1, 457373, Note_on_c, 0, 48, 45
1, 457437, Note_on_c, 0, 48, 0
1, 457437, Note_on_c, 0, 60, 0
1, 457437, Note_on_c, 0, 64, 0
1, 457440, Note_on_c, 0, 55, 0
1, 457505, Note_on_c, 0, 60, 54
1, 457505, Note_on_c, 0, 64, 60
1, 457505, Note_on_c, 0, 55, 51
1, 457508, Note_on_c, 0, 48, 46
1, 457573, Note_on_c, 0, 48, 0
1, 457573, Note_on_c, 0, 60, 0
1, 457573, Note_on_c, 0, 64, 0
1, 457576, Note_on_c, 0, 55, 0
1, 457640, Note_on_c, 0, 60, 55
1, 457640, Note_on_c, 0, 64, 61
1, 457640, Note_on_c, 0, 48, 46
1, 457643, Note_on_c, 0, 55, 51
1, 457708, Note_on_c, 0, 55, 0
1, 457708, Note_on_c, 0, 60, 0
1, 457708, Note_on_c, 0, 64, 0
1, 457711, Note_on_c, 0, 48, 0
1, 457776, Note_on_c, 0, 62, 55
1, 457776, Note_on_c, 0, 66, 61
1, 457776, Note_on_c, 0, 57, 51
1, 457779, Note_on_c, 0, 48, 46
1, 457843, Note_on_c, 0, 48, 0
1, 457843, Note_on_c, 0, 62, 0
1, 457843, Note_on_c, 0, 66, 0
1, 457846, Note_on_c, 0, 57, 0
1, 457911, Note_on_c, 0, 62, 55
1, 457911, Note_on_c, 0, 66, 61
1, 457911, Note_on_c, 0, 48, 46
1, 457914, Note_on_c, 0, 57, 51
1, 457979, Note_on_c, 0, 57, 0
1, 457979, Note_on_c, 0, 62, 0
1, 457979, Note_on_c, 0, 66, 0
1, 457982, Note_on_c, 0, 48, 0
1, 458046, Note_on_c, 0, 67, 73
1, 458046, Note_on_c, 0, 47, 49
1, 458046, Note_on_c, 0, 50, 49
1, 458049, Note_on_c, 0, 55, 55
1, 458148, Note_on_c, 0, 55, 0
1, 458148, Note_on_c, 0, 50, 0
1, 458148, Note_on_c, 0, 47, 0
1, 458182, Note_on_c, 0, 67, 0
1, 458182, Note_on_c, 0, 71, 67
1, 458182, Note_on_c, 0, 55, 55
1, 458185, Note_on_c, 0, 47, 49
1, 458185, Note_on_c, 0, 50, 49
1, 458248, Note_on_c, 0, 71, 0
1, 458248, Note_on_c, 0, 69, 67
1, 458281, Note_on_c, 0, 55, 0
1, 458281, Note_on_c, 0, 50, 0
1, 458281, Note_on_c, 0, 47, 0
1, 458315, Note_on_c, 0, 69, 0
1, 458315, Note_on_c, 0, 67, 73
1, 458315, Note_on_c, 0, 47, 49
1, 458318, Note_on_c, 0, 50, 49
1, 458318, Note_on_c, 0, 55, 55
1, 458382, Note_on_c, 0, 67, 0
1, 458416, Note_on_c, 0, 47, 0
1, 458416, Note_on_c, 0, 50, 0
1, 458416, Note_on_c, 0, 55, 0
1, 458450, Note_on_c, 0, 47, 49
1, 458450, Note_on_c, 0, 50, 49
1, 458450, Note_on_c, 0, 55, 56
1, 458552, Note_on_c, 0, 55, 0
1, 458552, Note_on_c, 0, 50, 0
1, 458552, Note_on_c, 0, 47, 0
1, 458585, Note_on_c, 0, 72, 86
1, 458585, Note_on_c, 0, 46, 55
1, 458585, Note_on_c, 0, 48, 55
1, 458588, Note_on_c, 0, 55, 63
1, 458687, Note_on_c, 0, 55, 0
1, 458687, Note_on_c, 0, 48, 0
1, 458687, Note_on_c, 0, 46, 0
1, 458721, Note_on_c, 0, 72, 0
1, 458721, Note_on_c, 0, 76, 79
1, 458721, Note_on_c, 0, 55, 63
1, 458724, Note_on_c, 0, 46, 55
1, 458724, Note_on_c, 0, 48, 55
1, 458787, Note_on_c, 0, 76, 0
1, 458787, Note_on_c, 0, 74, 79
1, 458821, Note_on_c, 0, 55, 0
1, 458821, Note_on_c, 0, 48, 0
1, 458821, Note_on_c, 0, 46, 0
1, 458854, Note_on_c, 0, 74, 0
1, 458854, Note_on_c, 0, 72, 85
1, 458854, Note_on_c, 0, 55, 63
1, 458857, Note_on_c, 0, 48, 56
1, 458857, Note_on_c, 0, 46, 56
1, 458921, Note_on_c, 0, 72, 0
1, 458955, Note_on_c, 0, 55, 0
1, 458955, Note_on_c, 0, 48, 0
1, 458955, Note_on_c, 0, 46, 0
1, 458989, Note_on_c, 0, 55, 64
1, 458989, Note_on_c, 0, 46, 56
1, 458989, Note_on_c, 0, 48, 56
1, 459091, Note_on_c, 0, 48, 0
1, 459091, Note_on_c, 0, 46, 0
1, 459091, Note_on_c, 0, 55, 0
1, 459125, Note_on_c, 0, 77, 96
1, 459125, Note_on_c, 0, 45, 59
1, 459125, Note_on_c, 0, 48, 59
1, 459128, Note_on_c, 0, 53, 69
1, 459226, Note_on_c, 0, 53, 0
1, 459226, Note_on_c, 0, 48, 0
1, 459226, Note_on_c, 0, 45, 0
1, 459260, Note_on_c, 0, 77, 0
1, 459260, Note_on_c, 0, 81, 86
1, 459260, Note_on_c, 0, 45, 59
1, 459263, Note_on_c, 0, 48, 59
1, 459263, Note_on_c, 0, 53, 69
1, 459326, Note_on_c, 0, 81, 0
1, 459326, Note_on_c, 0, 79, 86
1, 459360, Note_on_c, 0, 45, 0
1, 459360, Note_on_c, 0, 53, 0
1, 459360, Note_on_c, 0, 48, 0
1, 459393, Note_on_c, 0, 79, 0
1, 459393, Note_on_c, 0, 77, 94
1, 459393, Note_on_c, 0, 45, 60
1, 459396, Note_on_c, 0, 48, 60
1, 459396, Note_on_c, 0, 53, 70
1, 459460, Note_on_c, 0, 77, 0
1, 459494, Note_on_c, 0, 45, 0
1, 459494, Note_on_c, 0, 48, 0
1, 459494, Note_on_c, 0, 53, 0
1, 459528, Note_on_c, 0, 45, 60
1, 459528, Note_on_c, 0, 53, 70
1, 459528, Note_on_c, 0, 48, 60
1, 459630, Note_on_c, 0, 48, 0
1, 459630, Note_on_c, 0, 53, 0
1, 459630, Note_on_c, 0, 45, 0
1, 459664, Note_on_c, 0, 89, 108
1, 459664, Note_on_c, 0, 44, 83
1, 459664, Note_on_c, 0, 48, 83
1, 459667, Note_on_c, 0, 53, 83
1, 459712, Control_c, 0, 64, 127
1, 459731, Note_on_c, 0, 89, 0
1, 459731, Note_on_c, 0, 88, 100
1, 459765, Note_on_c, 0, 44, 0
1, 459765, Note_on_c, 0, 53, 0
1, 459765, Note_on_c, 0, 48, 0
1, 459799, Note_on_c, 0, 88, 0
1, 459799, Note_on_c, 0, 89, 100
1, 459799, Note_on_c, 0, 32, 76
1, 459802, Note_on_c, 0, 44, 76
1, 459867, Note_on_c, 0, 89, 0
1, 459867, Note_on_c, 0, 88, 100
1, 459901, Note_on_c, 0, 44, 0
1, 459901, Note_on_c, 0, 32, 0
1, 459934, Note_on_c, 0, 88, 0
1, 459934, Note_on_c, 0, 89, 100
1, 459934, Note_on_c, 0, 32, 76
1, 459937, Note_on_c, 0, 44, 76
1, 460002, Note_on_c, 0, 89, 0
1, 460002, Note_on_c, 0, 88, 100
1, 460036, Note_on_c, 0, 44, 0
1, 460036, Note_on_c, 0, 32, 0
1, 460070, Note_on_c, 0, 88, 0
1, 460070, Note_on_c, 0, 89, 100
1, 460070, Note_on_c, 0, 32, 76
1, 460073, Note_on_c, 0, 44, 76
1, 460138, Note_on_c, 0, 89, 0
1, 460138, Note_on_c, 0, 88, 100
1, 460171, Note_on_c, 0, 44, 0
1, 460171, Note_on_c, 0, 32, 0
1, 460205, Note_on_c, 0, 88, 0
1, 460205, Note_on_c, 0, 89, 99
1, 460205, Note_on_c, 0, 43, 77
1, 460208, Note_on_c, 0, 31, 77
1, 460208, Control_c, 0, 64, 0
1, 460245, Control_c, 0, 64, 127
1, 460273, Note_on_c, 0, 31, 0
1, 460273, Note_on_c, 0, 89, 0
1, 460273, Note_on_c, 0, 88, 99
1, 460276, Note_on_c, 0, 43, 0
1, 460276, Note_on_c, 0, 33, 78
1, 460341, Note_on_c, 0, 33, 0
1, 460341, Note_on_c, 0, 88, 0
1, 460341, Note_on_c, 0, 86, 100
1, 460344, Note_on_c, 0, 35, 78
1, 460408, Note_on_c, 0, 35, 0
1, 460408, Note_on_c, 0, 86, 0
1, 460408, Note_on_c, 0, 84, 101
1, 460411, Note_on_c, 0, 36, 79
1, 460476, Note_on_c, 0, 36, 0
1, 460476, Note_on_c, 0, 84, 0
1, 460476, Note_on_c, 0, 83, 102
1, 460479, Note_on_c, 0, 38, 80
1, 460544, Note_on_c, 0, 38, 0
1, 460544, Note_on_c, 0, 83, 0
1, 460544, Note_on_c, 0, 81, 103
1, 460547, Note_on_c, 0, 40, 80
1, 460611, Note_on_c, 0, 40, 0
1, 460611, Note_on_c, 0, 81, 0
1, 460611, Note_on_c, 0, 79, 104
1, 460614, Note_on_c, 0, 41, 81
1, 460679, Note_on_c, 0, 41, 0
1, 460679, Note_on_c, 0, 79, 0
1, 460679, Note_on_c, 0, 77, 105
1, 460682, Note_on_c, 0, 43, 83
1, 460747, Note_on_c, 0, 43, 0
1, 460747, Note_on_c, 0, 77, 0
1, 460747, Note_on_c, 0, 76, 106
1, 460750, Note_on_c, 0, 45, 83
1, 460750, Control_c, 0, 64, 0
1, 460791, Control_c, 0, 64, 127
1, 460815, Note_on_c, 0, 45, 0
1, 460815, Note_on_c, 0, 76, 0
1, 460815, Note_on_c, 0, 74, 107
1, 460818, Note_on_c, 0, 47, 84
1, 460883, Note_on_c, 0, 47, 0
1, 460883, Note_on_c, 0, 74, 0
1, 460883, Note_on_c, 0, 72, 109
1, 460886, Note_on_c, 0, 48, 84
1, 460952, Note_on_c, 0, 48, 0
1, 460952, Note_on_c, 0, 72, 0
1, 460952, Note_on_c, 0, 71, 110
1, 460955, Note_on_c, 0, 50, 85
1, 461022, Note_on_c, 0, 50, 0
1, 461022, Note_on_c, 0, 71, 0
1, 461022, Note_on_c, 0, 69, 111
1, 461025, Note_on_c, 0, 52, 86
1, 461092, Note_on_c, 0, 52, 0
1, 461092, Note_on_c, 0, 69, 0
1, 461092, Note_on_c, 0, 67, 113
1, 461095, Note_on_c, 0, 53, 87
1, 461164, Note_on_c, 0, 53, 0
1, 461164, Note_on_c, 0, 67, 0
1, 461164, Note_on_c, 0, 65, 113
1, 461167, Note_on_c, 0, 55, 88
1, 461235, Note_on_c, 0, 55, 0
1, 461235, Note_on_c, 0, 65, 0
1, 461235, Note_on_c, 0, 64, 114
1, 461238, Note_on_c, 0, 57, 89
1, 461308, Note_on_c, 0, 57, 0
1, 461308, Note_on_c, 0, 64, 0
1, 461308, Note_on_c, 0, 62, 121
1, 461311, Note_on_c, 0, 53, 99
1, 461311, Note_on_c, 0, 41, 87
1, 461311, Control_c, 0, 64, 0
1, 461454, Note_on_c, 0, 41, 0
1, 461454, Note_on_c, 0, 53, 0
1, 461454, Note_on_c, 0, 62, 0
1, 461600, Note_on_c, 0, 67, 106
1, 461600, Note_on_c, 0, 71, 106
1, 461600, Note_on_c, 0, 74, 121
1, 461603, Note_on_c, 0, 79, 121
1, 461603, Note_on_c, 0, 43, 87
1, 461603, Note_on_c, 0, 47, 87
1, 461606, Note_on_c, 0, 50, 99
1, 461606, Note_on_c, 0, 55, 99
1, 461746, Note_on_c, 0, 79, 0
1, 461746, Note_on_c, 0, 71, 0
1, 461746, Note_on_c, 0, 67, 0
1, 461749, Note_on_c, 0, 55, 0
1, 461749, Note_on_c, 0, 43, 0
1, 461749, Note_on_c, 0, 74, 0
1, 461752, Note_on_c, 0, 50, 0
1, 461752, Note_on_c, 0, 47, 0
1, 462477, Note_on_c, 0, 64, 110
1, 462477, Note_on_c, 0, 67, 110
1, 462477, Note_on_c, 0, 72, 126
1, 462480, Note_on_c, 0, 76, 126
1, 462480, Note_on_c, 0, 60, 99
1, 462480, Note_on_c, 0, 55, 99
1, 462483, Note_on_c, 0, 48, 87
1, 462483, Note_on_c, 0, 52, 87
1, 462623, Note_on_c, 0, 76, 0
1, 462623, Note_on_c, 0, 67, 0
1, 462623, Note_on_c, 0, 64, 0
1, 462626, Note_on_c, 0, 52, 0
1, 462626, Note_on_c, 0, 60, 0
1, 462626, Note_on_c, 0, 72, 0
1, 462629, Note_on_c, 0, 48, 0
1, 462629, Note_on_c, 0, 55, 0
1, 463061, Note_on_c, 0, 67, 110
1, 463061, Note_on_c, 0, 71, 110
1, 463061, Note_on_c, 0, 74, 126
1, 463064, Note_on_c, 0, 79, 126
1, 463064, Note_on_c, 0, 47, 87
1, 463064, Note_on_c, 0, 43, 87
1, 463067, Note_on_c, 0, 50, 99
1, 463067, Note_on_c, 0, 55, 99
1, 463208, Note_on_c, 0, 79, 0
1, 463208, Note_on_c, 0, 71, 0
1, 463208, Note_on_c, 0, 67, 0
1, 463211, Note_on_c, 0, 55, 0
1, 463211, Note_on_c, 0, 47, 0
1, 463211, Note_on_c, 0, 74, 0
1, 463214, Note_on_c, 0, 50, 0
1, 463214, Note_on_c, 0, 43, 0
1, 463672, Note_on_c, 0, 84, 126
1, 463672, Note_on_c, 0, 79, 126
1, 463672, Note_on_c, 0, 76, 110
1, 463675, Note_on_c, 0, 72, 110
1, 463675, Note_on_c, 0, 36, 86
1, 463675, Note_on_c, 0, 40, 86
1, 463678, Note_on_c, 0, 43, 98
1, 463678, Note_on_c, 0, 48, 98
1, 463831, Note_on_c, 0, 72, 0
1, 463831, Note_on_c, 0, 79, 0
1, 463831, Note_on_c, 0, 84, 0
1, 463834, Note_on_c, 0, 48, 0
1, 463834, Note_on_c, 0, 36, 0
1, 463834, Note_on_c, 0, 76, 0
1, 463837, Note_on_c, 0, 43, 0
1, 463837, Note_on_c, 0, 40, 0
1, 463837, End_track
0, 0, End_of_file
