0, 0, Header, 0, 1, 384
1, 0, Start_track
1, 0, Tempo, 512820
1, 0, Title_t, "Beethoven Sonata2. Movement"
1, 0, Program_c, 0, 1
1, 0, Control_c, 0, 7, 100
1, 3, Control_c, 0, 91, 127
1, 3, Program_c, 0, 1
1, 3, Control_c, 0, 7, 100
1, 748, Note_on_c, 0, 29, 40
1, 748, Note_on_c, 0, 41, 47
1, 748, Control_c, 0, 64, 0
1, 978, Control_c, 0, 64, 127
1, 1872, Note_on_c, 0, 48, 54
1, 2714, Note_on_c, 0, 48, 0
1, 2714, Note_on_c, 0, 48, 54
1, 3026, Note_on_c, 0, 48, 0
1, 3026, Note_on_c, 0, 57, 60
1, 4149, Note_on_c, 0, 57, 0
1, 4149, Note_on_c, 0, 41, 0
1, 4149, Note_on_c, 0, 29, 0
1, 4152, Note_on_c, 0, 29, 40
1, 4152, Note_on_c, 0, 41, 47
1, 4196, Control_c, 0, 64, 0
1, 4514, Control_c, 0, 64, 127
1, 5272, Note_on_c, 0, 57, 53
1, 6115, Note_on_c, 0, 57, 0
1, 6115, Note_on_c, 0, 57, 53
1, 6427, Note_on_c, 0, 57, 0
1, 6427, Note_on_c, 0, 63, 59
1, 7550, Note_on_c, 0, 63, 0
1, 7550, Note_on_c, 0, 41, 0
1, 7550, Note_on_c, 0, 29, 0
1, 7553, Control_c, 0, 64, 0
1, 8673, Note_on_c, 0, 56, 48
1, 8673, Note_on_c, 0, 64, 48
1, 8673, Note_on_c, 0, 40, 37
1, 8676, Note_on_c, 0, 52, 42
1, 9284, Control_c, 0, 64, 127
1, 9743, Note_on_c, 0, 64, 0
1, 9743, Note_on_c, 0, 56, 0
1, 9743, Note_on_c, 0, 59, 41
1, 9746, Note_on_c, 0, 56, 36
1, 9746, Note_on_c, 0, 64, 41
1, 9746, Note_on_c, 0, 52, 0
1, 9749, Note_on_c, 0, 40, 0
1, 9749, Note_on_c, 0, 40, 31
1, 9749, Note_on_c, 0, 52, 36
1, 10866, Note_on_c, 0, 64, 0
1, 10866, Note_on_c, 0, 56, 0
1, 10866, Note_on_c, 0, 59, 0
1, 10869, Note_on_c, 0, 56, 34
1, 10869, Note_on_c, 0, 59, 39
1, 10869, Note_on_c, 0, 64, 39
1, 10872, Note_on_c, 0, 52, 0
1, 10872, Note_on_c, 0, 40, 0
1, 10872, Note_on_c, 0, 40, 30
1, 10875, Note_on_c, 0, 52, 34
1, 13112, Note_on_c, 0, 64, 0
1, 13112, Note_on_c, 0, 59, 0
1, 13112, Note_on_c, 0, 56, 0
1, 13115, Note_on_c, 0, 52, 0
1, 13115, Note_on_c, 0, 40, 0
1, 13115, Control_c, 0, 64, 0
1, 14236, Control_c, 0, 91, 127
1, 14236, Note_on_c, 0, 40, 42
1, 14236, Note_on_c, 0, 52, 50
1, 14239, Control_c, 0, 64, 0
1, 14465, Control_c, 0, 64, 127
1, 15359, Note_on_c, 0, 59, 54
1, 16201, Note_on_c, 0, 59, 0
1, 16201, Note_on_c, 0, 59, 54
1, 16505, Note_on_c, 0, 59, 0
1, 16505, Note_on_c, 0, 67, 60
1, 17628, Note_on_c, 0, 67, 0
1, 17628, Note_on_c, 0, 52, 0
1, 17628, Note_on_c, 0, 40, 0
1, 17631, Note_on_c, 0, 40, 42
1, 17631, Note_on_c, 0, 52, 50
1, 17675, Control_c, 0, 64, 0
1, 17993, Control_c, 0, 64, 127
1, 18751, Note_on_c, 0, 61, 53
1, 19594, Note_on_c, 0, 61, 0
1, 19594, Note_on_c, 0, 61, 53
1, 19934, Note_on_c, 0, 61, 0
1, 19934, Note_on_c, 0, 70, 59
1, 21057, Note_on_c, 0, 70, 0
1, 21057, Note_on_c, 0, 52, 0
1, 21057, Note_on_c, 0, 40, 0
1, 21060, Control_c, 0, 64, 0
1, 22180, Note_on_c, 0, 66, 43
1, 22180, Note_on_c, 0, 59, 48
1, 22180, Note_on_c, 0, 71, 48
1, 22183, Note_on_c, 0, 47, 37
1, 22183, Note_on_c, 0, 39, 37
1, 22183, Note_on_c, 0, 51, 42
1, 22791, Control_c, 0, 64, 127
1, 23250, Note_on_c, 0, 71, 0
1, 23250, Note_on_c, 0, 59, 0
1, 23250, Note_on_c, 0, 66, 0
1, 23253, Note_on_c, 0, 66, 43
1, 23253, Note_on_c, 0, 59, 38
1, 23253, Note_on_c, 0, 71, 43
1, 23256, Note_on_c, 0, 51, 0
1, 23256, Note_on_c, 0, 39, 0
1, 23256, Note_on_c, 0, 47, 0
1, 23259, Note_on_c, 0, 47, 33
1, 23259, Note_on_c, 0, 39, 33
1, 23259, Note_on_c, 0, 51, 38
1, 24373, Note_on_c, 0, 71, 0
1, 24373, Note_on_c, 0, 59, 0
1, 24373, Note_on_c, 0, 66, 0
1, 24376, Note_on_c, 0, 59, 34
1, 24376, Note_on_c, 0, 66, 39
1, 24376, Note_on_c, 0, 71, 39
1, 24379, Note_on_c, 0, 51, 0
1, 24379, Note_on_c, 0, 39, 0
1, 24379, Note_on_c, 0, 47, 0
1, 24382, Note_on_c, 0, 47, 30
1, 24382, Note_on_c, 0, 39, 30
1, 24382, Note_on_c, 0, 51, 34
1, 26620, Note_on_c, 0, 71, 0
1, 26620, Note_on_c, 0, 66, 0
1, 26620, Note_on_c, 0, 59, 0
1, 26623, Note_on_c, 0, 51, 0
1, 26623, Note_on_c, 0, 39, 0
1, 26623, Note_on_c, 0, 47, 0
1, 26626, Control_c, 0, 64, 0
1, 27743, Control_c, 0, 91, 127
1, 27743, Note_on_c, 0, 38, 50
1, 27743, Note_on_c, 0, 50, 58
1, 27746, Control_c, 0, 64, 0
1, 27972, Control_c, 0, 64, 127
1, 28866, Note_on_c, 0, 65, 59
1, 29689, Note_on_c, 0, 65, 0
1, 29689, Note_on_c, 0, 65, 68
1, 29994, Note_on_c, 0, 65, 0
1, 29994, Note_on_c, 0, 71, 75
1, 31117, Note_on_c, 0, 71, 0
1, 31117, Note_on_c, 0, 50, 0
1, 31117, Note_on_c, 0, 38, 0
1, 31120, Note_on_c, 0, 37, 55
1, 31120, Note_on_c, 0, 49, 64
1, 31164, Control_c, 0, 64, 0
1, 31482, Control_c, 0, 64, 127
1, 32240, Note_on_c, 0, 71, 75
1, 33043, Note_on_c, 0, 71, 0
1, 33043, Note_on_c, 0, 71, 75
1, 33364, Note_on_c, 0, 71, 0
1, 33364, Note_on_c, 0, 77, 86
1, 34487, Note_on_c, 0, 49, 0
1, 34487, Note_on_c, 0, 37, 0
1, 34487, Note_on_c, 0, 36, 57
1, 34490, Note_on_c, 0, 48, 66
1, 34613, Control_c, 0, 64, 0
1, 35236, Control_c, 0, 64, 127
1, 35610, Note_on_c, 0, 77, 0
1, 35610, Note_on_c, 0, 76, 81
1, 35610, Note_on_c, 0, 48, 0
1, 35613, Note_on_c, 0, 36, 0
1, 35613, Note_on_c, 0, 36, 57
1, 35613, Note_on_c, 0, 48, 66
1, 36655, Note_on_c, 0, 76, 0
1, 36655, Note_on_c, 0, 79, 84
1, 36655, Note_on_c, 0, 48, 0
1, 36658, Note_on_c, 0, 36, 0
1, 36658, Note_on_c, 0, 36, 57
1, 36658, Note_on_c, 0, 48, 66
1, 37837, Note_on_c, 0, 79, 0
1, 37837, Note_on_c, 0, 64, 43
1, 37837, Note_on_c, 0, 70, 51
1, 37840, Note_on_c, 0, 48, 0
1, 37840, Note_on_c, 0, 36, 0
1, 37840, Note_on_c, 0, 36, 42
1, 37843, Note_on_c, 0, 48, 48
1, 39522, Control_c, 0, 64, 0
1, 40084, Note_on_c, 0, 70, 0
1, 40084, Note_on_c, 0, 64, 0
1, 40084, Note_on_c, 0, 48, 0
1, 40087, Note_on_c, 0, 36, 0
1, 42269, Control_c, 0, 64, 127
1, 42330, Note_on_c, 0, 65, 47
1, 42330, Note_on_c, 0, 69, 55
1, 42330, Note_on_c, 0, 38, 39
1, 42333, Note_on_c, 0, 50, 46
1, 43337, Note_on_c, 0, 69, 0
1, 43337, Note_on_c, 0, 65, 0
1, 43337, Note_on_c, 0, 69, 53
1, 43340, Note_on_c, 0, 77, 62
1, 43340, Note_on_c, 0, 50, 0
1, 43340, Note_on_c, 0, 38, 0
1, 43343, Note_on_c, 0, 38, 47
1, 43343, Note_on_c, 0, 50, 55
1, 44487, Note_on_c, 0, 77, 0
1, 44487, Note_on_c, 0, 69, 0
1, 44487, Note_on_c, 0, 65, 41
1, 44490, Note_on_c, 0, 69, 48
1, 44490, Note_on_c, 0, 50, 0
1, 44490, Note_on_c, 0, 38, 0
1, 44493, Note_on_c, 0, 38, 34
1, 44493, Note_on_c, 0, 50, 40
1, 45610, Control_c, 0, 64, 0
1, 46733, Note_on_c, 0, 69, 0
1, 46733, Note_on_c, 0, 65, 0
1, 46733, Note_on_c, 0, 50, 0
1, 46736, Note_on_c, 0, 38, 0
1, 47857, Control_c, 0, 64, 127
1, 47857, Note_on_c, 0, 34, 50
1, 47857, Note_on_c, 0, 46, 58
1, 48864, Note_on_c, 0, 58, 48
1, 48864, Note_on_c, 0, 62, 48
1, 48864, Note_on_c, 0, 67, 56
1, 48867, Note_on_c, 0, 46, 0
1, 48867, Note_on_c, 0, 34, 0
1, 49987, Note_on_c, 0, 67, 0
1, 49987, Note_on_c, 0, 62, 0
1, 49987, Note_on_c, 0, 58, 0
1, 49990, Control_c, 0, 64, 0
1, 51110, Note_on_c, 0, 36, 47
1, 51110, Note_on_c, 0, 48, 55
1, 51703, Control_c, 0, 64, 127
1, 52180, Note_on_c, 0, 55, 46
1, 52180, Note_on_c, 0, 58, 46
1, 52180, Note_on_c, 0, 64, 53
1, 52183, Note_on_c, 0, 48, 0
1, 52183, Note_on_c, 0, 36, 0
1, 53303, Note_on_c, 0, 64, 0
1, 53303, Note_on_c, 0, 58, 0
1, 53303, Note_on_c, 0, 55, 0
1, 53306, Control_c, 0, 64, 0
1, 54426, Note_on_c, 0, 29, 43
1, 54426, Note_on_c, 0, 41, 50
1, 54688, Control_c, 0, 64, 127
1, 55609, Note_on_c, 0, 57, 38
1, 55609, Note_on_c, 0, 60, 38
1, 55609, Note_on_c, 0, 65, 45
1, 55612, Note_on_c, 0, 41, 0
1, 55612, Note_on_c, 0, 29, 0
1, 55612, Note_on_c, 0, 29, 33
1, 55615, Note_on_c, 0, 41, 38
1, 56658, Note_on_c, 0, 65, 0
1, 56658, Note_on_c, 0, 60, 0
1, 56658, Note_on_c, 0, 57, 0
1, 56661, Note_on_c, 0, 57, 38
1, 56661, Note_on_c, 0, 60, 38
1, 56661, Note_on_c, 0, 69, 45
1, 56664, Note_on_c, 0, 41, 0
1, 56664, Note_on_c, 0, 29, 0
1, 56664, Note_on_c, 0, 29, 33
1, 56667, Note_on_c, 0, 41, 38
1, 57708, Note_on_c, 0, 69, 0
1, 57708, Note_on_c, 0, 60, 0
1, 57708, Note_on_c, 0, 57, 0
1, 57711, Note_on_c, 0, 57, 38
1, 57711, Note_on_c, 0, 60, 38
1, 57711, Note_on_c, 0, 65, 45
1, 57714, Note_on_c, 0, 41, 0
1, 57714, Note_on_c, 0, 29, 0
1, 57714, Note_on_c, 0, 29, 33
1, 57717, Note_on_c, 0, 41, 38
1, 59079, Control_c, 0, 64, 0
1, 59955, Note_on_c, 0, 65, 0
1, 59955, Note_on_c, 0, 60, 0
1, 59955, Note_on_c, 0, 57, 0
1, 59958, Note_on_c, 0, 48, 67
1, 59958, Note_on_c, 0, 41, 0
1, 59958, Note_on_c, 0, 29, 0
1, 60720, Note_on_c, 0, 48, 0
1, 60720, Note_on_c, 0, 48, 67
1, 60848, Note_on_c, 0, 48, 0
1, 60848, Note_on_c, 0, 48, 67
1, 60976, Note_on_c, 0, 48, 0
1, 60976, Note_on_c, 0, 57, 76
1, 60976, Note_on_c, 0, 41, 54
1, 60979, Note_on_c, 0, 48, 63
1, 62507, Note_on_c, 0, 57, 0
1, 62507, Note_on_c, 0, 55, 73
1, 62507, Note_on_c, 0, 48, 0
1, 62510, Note_on_c, 0, 41, 0
1, 62510, Note_on_c, 0, 40, 51
1, 62510, Note_on_c, 0, 48, 62
1, 62975, Note_on_c, 0, 55, 0
1, 62975, Note_on_c, 0, 48, 0
1, 62975, Note_on_c, 0, 40, 0
1, 63018, Note_on_c, 0, 57, 76
1, 63018, Note_on_c, 0, 41, 55
1, 63018, Note_on_c, 0, 48, 64
1, 63486, Note_on_c, 0, 57, 0
1, 63486, Note_on_c, 0, 48, 0
1, 63486, Note_on_c, 0, 41, 0
1, 63528, Note_on_c, 0, 58, 80
1, 63528, Note_on_c, 0, 43, 58
1, 63528, Note_on_c, 0, 48, 67
1, 63996, Note_on_c, 0, 58, 0
1, 63996, Note_on_c, 0, 48, 0
1, 63996, Note_on_c, 0, 43, 0
1, 64039, Note_on_c, 0, 59, 84
1, 64039, Note_on_c, 0, 44, 62
1, 64039, Note_on_c, 0, 48, 73
1, 64587, Note_on_c, 0, 59, 0
1, 64587, Note_on_c, 0, 60, 90
1, 64587, Note_on_c, 0, 48, 0
1, 64590, Note_on_c, 0, 44, 0
1, 64590, Note_on_c, 0, 45, 64
1, 64590, Note_on_c, 0, 48, 75
1, 65585, Note_on_c, 0, 60, 0
1, 65585, Note_on_c, 0, 62, 88
1, 65585, Note_on_c, 0, 48, 0
1, 65588, Note_on_c, 0, 45, 0
1, 65588, Note_on_c, 0, 46, 64
1, 65588, Note_on_c, 0, 48, 76
1, 66606, Note_on_c, 0, 62, 0
1, 66606, Note_on_c, 0, 58, 62
1, 66606, Note_on_c, 0, 48, 0
1, 66609, Note_on_c, 0, 46, 0
1, 66609, Note_on_c, 0, 43, 53
1, 66609, Note_on_c, 0, 48, 53
1, 66862, Note_on_c, 0, 58, 0
1, 66862, Note_on_c, 0, 57, 56
1, 66862, Note_on_c, 0, 43, 0
1, 66865, Note_on_c, 0, 41, 47
1, 67117, Note_on_c, 0, 57, 0
1, 67117, Note_on_c, 0, 55, 58
1, 67117, Note_on_c, 0, 41, 0
1, 67120, Note_on_c, 0, 48, 0
1, 67120, Note_on_c, 0, 40, 53
1, 67120, Note_on_c, 0, 48, 53
1, 67627, Note_on_c, 0, 55, 0
1, 67627, Note_on_c, 0, 66, 62
1, 68095, Note_on_c, 0, 66, 0
1, 68138, Note_on_c, 0, 67, 62
1, 68606, Note_on_c, 0, 67, 0
1, 68649, Note_on_c, 0, 69, 63
1, 68649, Note_on_c, 0, 48, 0
1, 68649, Note_on_c, 0, 40, 0
1, 68652, Note_on_c, 0, 54, 47
1, 68652, Note_on_c, 0, 60, 40
1, 69117, Note_on_c, 0, 69, 0
1, 69117, Note_on_c, 0, 60, 0
1, 69117, Note_on_c, 0, 54, 0
1, 69159, Note_on_c, 0, 70, 67
1, 69159, Note_on_c, 0, 55, 50
1, 69159, Note_on_c, 0, 60, 43
1, 69638, Note_on_c, 0, 70, 0
1, 69638, Note_on_c, 0, 60, 0
1, 69638, Note_on_c, 0, 55, 0
1, 69682, Note_on_c, 0, 78, 68
1, 69682, Note_on_c, 0, 57, 53
1, 69682, Note_on_c, 0, 60, 46
1, 70150, Note_on_c, 0, 78, 0
1, 70150, Note_on_c, 0, 60, 0
1, 70150, Note_on_c, 0, 57, 0
1, 70192, Note_on_c, 0, 79, 70
1, 70192, Note_on_c, 0, 58, 65
1, 70192, Note_on_c, 0, 60, 65
1, 70660, Note_on_c, 0, 79, 0
1, 70660, Note_on_c, 0, 60, 0
1, 70660, Note_on_c, 0, 58, 0
1, 70703, Note_on_c, 0, 81, 71
1, 70703, Note_on_c, 0, 42, 65
1, 71171, Note_on_c, 0, 81, 0
1, 71171, Note_on_c, 0, 42, 0
1, 71213, Note_on_c, 0, 82, 72
1, 71213, Note_on_c, 0, 43, 70
1, 71681, Note_on_c, 0, 82, 0
1, 71681, Note_on_c, 0, 43, 0
1, 71724, Note_on_c, 0, 45, 65
1, 72192, Note_on_c, 0, 45, 0
1, 72234, Note_on_c, 0, 48, 72
1, 72234, Note_on_c, 0, 46, 72
1, 72702, Note_on_c, 0, 46, 0
1, 72745, Note_on_c, 0, 43, 64
1, 73000, Note_on_c, 0, 48, 0
1, 73000, Note_on_c, 0, 48, 72
1, 73148, Note_on_c, 0, 48, 0
1, 73148, Note_on_c, 0, 48, 67
1, 73246, Note_on_c, 0, 43, 0
1, 73296, Note_on_c, 0, 48, 0
1, 73296, Note_on_c, 0, 58, 85
1, 73296, Note_on_c, 0, 40, 54
1, 73784, Note_on_c, 0, 40, 0
1, 73784, Note_on_c, 0, 43, 53
1, 73784, Note_on_c, 0, 48, 59
1, 74805, Note_on_c, 0, 58, 0
1, 74805, Note_on_c, 0, 57, 79
1, 74805, Note_on_c, 0, 48, 0
1, 74808, Note_on_c, 0, 43, 0
1, 74808, Note_on_c, 0, 42, 55
1, 74808, Note_on_c, 0, 48, 66
1, 75273, Note_on_c, 0, 57, 0
1, 75273, Note_on_c, 0, 48, 0
1, 75273, Note_on_c, 0, 42, 0
1, 75316, Note_on_c, 0, 58, 82
1, 75316, Note_on_c, 0, 43, 59
1, 75316, Note_on_c, 0, 48, 70
1, 75784, Note_on_c, 0, 58, 0
1, 75784, Note_on_c, 0, 48, 0
1, 75784, Note_on_c, 0, 43, 0
1, 75826, Note_on_c, 0, 60, 84
1, 75826, Note_on_c, 0, 45, 63
1, 75826, Note_on_c, 0, 48, 73
1, 76305, Note_on_c, 0, 60, 0
1, 76305, Note_on_c, 0, 48, 0
1, 76305, Note_on_c, 0, 45, 0
1, 76349, Note_on_c, 0, 61, 88
1, 76349, Note_on_c, 0, 46, 66
1, 76349, Note_on_c, 0, 48, 79
1, 76925, Note_on_c, 0, 61, 0
1, 76925, Note_on_c, 0, 62, 85
1, 76925, Note_on_c, 0, 46, 0
1, 76928, Note_on_c, 0, 46, 70
1, 77946, Note_on_c, 0, 62, 0
1, 77946, Note_on_c, 0, 60, 91
1, 77946, Note_on_c, 0, 46, 0
1, 77949, Note_on_c, 0, 48, 0
1, 77949, Note_on_c, 0, 40, 64
1, 77949, Note_on_c, 0, 48, 64
1, 77952, Note_on_c, 0, 55, 76
1, 78967, Note_on_c, 0, 60, 0
1, 78967, Note_on_c, 0, 62, 70
1, 78967, Note_on_c, 0, 55, 0
1, 78970, Note_on_c, 0, 48, 0
1, 78970, Note_on_c, 0, 40, 0
1, 78970, Note_on_c, 0, 36, 37
1, 78973, Note_on_c, 0, 48, 37
1, 78973, Note_on_c, 0, 52, 49
1, 79228, Note_on_c, 0, 62, 0
1, 79228, Note_on_c, 0, 58, 64
1, 79489, Note_on_c, 0, 58, 0
1, 79489, Note_on_c, 0, 53, 57
1, 79489, Note_on_c, 0, 57, 57
1, 79492, Note_on_c, 0, 52, 0
1, 79492, Note_on_c, 0, 48, 0
1, 79492, Note_on_c, 0, 36, 0
1, 79495, Note_on_c, 0, 41, 40
1, 79495, Note_on_c, 0, 48, 50
1, 80024, Note_on_c, 0, 57, 0
1, 80024, Note_on_c, 0, 53, 0
1, 80024, Note_on_c, 0, 68, 62
1, 80492, Note_on_c, 0, 68, 0
1, 80535, Note_on_c, 0, 69, 62
1, 81003, Note_on_c, 0, 69, 0
1, 81045, Note_on_c, 0, 71, 63
1, 81045, Note_on_c, 0, 48, 0
1, 81045, Note_on_c, 0, 41, 0
1, 81048, Note_on_c, 0, 56, 47
1, 81513, Note_on_c, 0, 71, 0
1, 81513, Note_on_c, 0, 56, 0
1, 81556, Note_on_c, 0, 72, 63
1, 81556, Note_on_c, 0, 57, 50
1, 82013, Note_on_c, 0, 72, 0
1, 82013, Note_on_c, 0, 57, 0
1, 82055, Note_on_c, 0, 80, 68
1, 82055, Note_on_c, 0, 59, 53
1, 82512, Note_on_c, 0, 80, 0
1, 82512, Note_on_c, 0, 59, 0
1, 82554, Note_on_c, 0, 81, 70
1, 82554, Note_on_c, 0, 60, 60
1, 83012, Note_on_c, 0, 81, 0
1, 83012, Note_on_c, 0, 60, 0
1, 83053, Note_on_c, 0, 83, 71
1, 83053, Note_on_c, 0, 44, 54
1, 83511, Note_on_c, 0, 83, 0
1, 83511, Note_on_c, 0, 44, 0
1, 83552, Note_on_c, 0, 84, 72
1, 83552, Note_on_c, 0, 45, 64
1, 84010, Note_on_c, 0, 84, 0
1, 84010, Note_on_c, 0, 45, 0
1, 84052, Note_on_c, 0, 47, 65
1, 84509, Note_on_c, 0, 47, 0
1, 84551, Note_on_c, 0, 72, 76
1, 84551, Note_on_c, 0, 48, 71
1, 85008, Note_on_c, 0, 48, 0
1, 85050, Note_on_c, 0, 46, 65
1, 85300, Note_on_c, 0, 72, 0
1, 85300, Note_on_c, 0, 72, 76
1, 85508, Note_on_c, 0, 46, 0
1, 85549, Note_on_c, 0, 72, 0
1, 85549, Note_on_c, 0, 65, 84
1, 85549, Note_on_c, 0, 45, 71
1, 86570, Note_on_c, 0, 77, 84
1, 86570, Note_on_c, 0, 45, 0
1, 86570, Control_c, 0, 64, 127
1, 86573, Note_on_c, 0, 60, 68
1, 86573, Note_on_c, 0, 57, 58
1, 87336, Note_on_c, 0, 77, 0
1, 87336, Note_on_c, 0, 77, 74
1, 87591, Note_on_c, 0, 77, 0
1, 87591, Note_on_c, 0, 65, 0
1, 87591, Note_on_c, 0, 67, 73
1, 87594, Note_on_c, 0, 76, 85
1, 87594, Note_on_c, 0, 57, 0
1, 87594, Note_on_c, 0, 60, 0
1, 87597, Note_on_c, 0, 60, 75
1, 87597, Note_on_c, 0, 58, 65
1, 87604, Control_c, 0, 64, 0
1, 88568, Note_on_c, 0, 76, 0
1, 88568, Note_on_c, 0, 79, 82
1, 88568, Note_on_c, 0, 58, 0
1, 88571, Note_on_c, 0, 52, 59
1, 89589, Note_on_c, 0, 79, 0
1, 89589, Note_on_c, 0, 67, 0
1, 89589, Note_on_c, 0, 64, 67
1, 89592, Note_on_c, 0, 70, 79
1, 89592, Note_on_c, 0, 52, 0
1, 89592, Note_on_c, 0, 60, 0
1, 89595, Note_on_c, 0, 48, 59
1, 89595, Note_on_c, 0, 55, 70
1, 90355, Note_on_c, 0, 70, 0
1, 90355, Note_on_c, 0, 70, 71
1, 90494, Note_on_c, 0, 70, 0
1, 90494, Note_on_c, 0, 70, 60
1, 90633, Note_on_c, 0, 70, 0
1, 90633, Note_on_c, 0, 64, 0
1, 90633, Note_on_c, 0, 65, 56
1, 90636, Note_on_c, 0, 69, 66
1, 90636, Note_on_c, 0, 55, 0
1, 90636, Note_on_c, 0, 48, 0
1, 90639, Note_on_c, 0, 53, 58
1, 90639, Note_on_c, 0, 57, 67
1, 90888, Note_on_c, 0, 69, 0
1, 90888, Note_on_c, 0, 68, 65
1, 91144, Note_on_c, 0, 68, 0
1, 91144, Note_on_c, 0, 69, 65
1, 91399, Note_on_c, 0, 69, 0
1, 91399, Note_on_c, 0, 72, 60
1, 91654, Note_on_c, 0, 72, 0
1, 91654, Note_on_c, 0, 65, 0
1, 91654, Note_on_c, 0, 65, 66
1, 91657, Note_on_c, 0, 57, 0
1, 91657, Note_on_c, 0, 53, 0
1, 92682, Control_c, 0, 64, 127
1, 92699, Note_on_c, 0, 77, 77
1, 92699, Note_on_c, 0, 60, 68
1, 92699, Note_on_c, 0, 57, 58
1, 93483, Note_on_c, 0, 77, 0
1, 93483, Note_on_c, 0, 77, 68
1, 93744, Note_on_c, 0, 77, 0
1, 93744, Note_on_c, 0, 65, 0
1, 93744, Note_on_c, 0, 67, 73
1, 93747, Note_on_c, 0, 76, 85
1, 93747, Note_on_c, 0, 57, 0
1, 93747, Note_on_c, 0, 60, 0
1, 93750, Note_on_c, 0, 60, 75
1, 93750, Note_on_c, 0, 58, 65
1, 93786, Control_c, 0, 64, 0
1, 94765, Note_on_c, 0, 76, 0
1, 94765, Note_on_c, 0, 79, 75
1, 94765, Note_on_c, 0, 58, 0
1, 94768, Note_on_c, 0, 52, 59
1, 95835, Note_on_c, 0, 79, 0
1, 95835, Note_on_c, 0, 67, 0
1, 95835, Note_on_c, 0, 64, 63
1, 95838, Note_on_c, 0, 70, 73
1, 95838, Note_on_c, 0, 52, 0
1, 95838, Note_on_c, 0, 60, 0
1, 95841, Note_on_c, 0, 48, 59
1, 95841, Note_on_c, 0, 55, 70
1, 95852, Control_c, 0, 64, 127
1, 96637, Note_on_c, 0, 70, 0
1, 96637, Note_on_c, 0, 70, 63
1, 96904, Note_on_c, 0, 70, 0
1, 96904, Note_on_c, 0, 64, 0
1, 96904, Note_on_c, 0, 65, 63
1, 96907, Note_on_c, 0, 69, 73
1, 96907, Note_on_c, 0, 55, 0
1, 96907, Note_on_c, 0, 48, 0
1, 96910, Note_on_c, 0, 50, 58
1, 96910, Note_on_c, 0, 53, 67
1, 96949, Control_c, 0, 64, 0
1, 97974, Note_on_c, 0, 69, 0
1, 97974, Note_on_c, 0, 65, 0
1, 97974, Note_on_c, 0, 53, 0
1, 97977, Note_on_c, 0, 50, 0
1, 97977, Control_c, 0, 64, 127
1, 97977, Note_on_c, 0, 34, 50
1, 97980, Note_on_c, 0, 46, 58
1, 99044, Note_on_c, 0, 58, 53
1, 99044, Note_on_c, 0, 62, 53
1, 99044, Note_on_c, 0, 67, 62
1, 99047, Note_on_c, 0, 46, 0
1, 99047, Note_on_c, 0, 34, 0
1, 100167, Note_on_c, 0, 67, 0
1, 100167, Note_on_c, 0, 62, 0
1, 100167, Note_on_c, 0, 58, 0
1, 100170, Control_c, 0, 64, 0
1, 101290, Note_on_c, 0, 36, 47
1, 101290, Note_on_c, 0, 48, 55
1, 101883, Control_c, 0, 64, 127
1, 102360, Note_on_c, 0, 55, 50
1, 102360, Note_on_c, 0, 58, 50
1, 102360, Note_on_c, 0, 64, 58
1, 102363, Note_on_c, 0, 48, 0
1, 102363, Note_on_c, 0, 36, 0
1, 103483, Note_on_c, 0, 64, 0
1, 103483, Note_on_c, 0, 58, 0
1, 103483, Note_on_c, 0, 55, 0
1, 103486, Control_c, 0, 64, 0
1, 104606, Control_c, 0, 91, 127
1, 104606, Note_on_c, 0, 29, 40
1, 104606, Note_on_c, 0, 41, 47
1, 104609, Control_c, 0, 64, 0
1, 104836, Control_c, 0, 64, 127
1, 105730, Note_on_c, 0, 48, 54
1, 106572, Note_on_c, 0, 48, 0
1, 106572, Note_on_c, 0, 48, 54
1, 106886, Note_on_c, 0, 48, 0
1, 106886, Note_on_c, 0, 57, 60
1, 108009, Note_on_c, 0, 57, 0
1, 108009, Note_on_c, 0, 41, 0
1, 108009, Note_on_c, 0, 29, 0
1, 108012, Note_on_c, 0, 29, 42
1, 108012, Note_on_c, 0, 41, 50
1, 108056, Control_c, 0, 64, 0
1, 108374, Control_c, 0, 64, 127
1, 109132, Note_on_c, 0, 57, 53
1, 109974, Note_on_c, 0, 57, 0
1, 109974, Note_on_c, 0, 57, 53
1, 110313, Note_on_c, 0, 57, 0
1, 110313, Note_on_c, 0, 63, 64
1, 110313, Note_on_c, 0, 29, 0
1, 110594, Note_on_c, 0, 41, 0
1, 110594, Note_on_c, 0, 45, 51
1, 110864, Note_on_c, 0, 45, 0
1, 110864, Note_on_c, 0, 48, 57
1, 111134, Note_on_c, 0, 48, 0
1, 111134, Note_on_c, 0, 45, 50
1, 111428, Note_on_c, 0, 63, 0
1, 111428, Note_on_c, 0, 64, 60
1, 111428, Note_on_c, 0, 45, 0
1, 111431, Note_on_c, 0, 40, 54
1, 111474, Control_c, 0, 64, 0
1, 112551, Note_on_c, 0, 64, 0
1, 112551, Note_on_c, 0, 59, 48
1, 112551, Note_on_c, 0, 56, 48
1, 112554, Note_on_c, 0, 64, 48
1, 112554, Note_on_c, 0, 40, 0
1, 112554, Note_on_c, 0, 40, 37
1, 112557, Note_on_c, 0, 52, 42
1, 113202, Control_c, 0, 64, 127
1, 113691, Note_on_c, 0, 64, 0
1, 113691, Note_on_c, 0, 56, 0
1, 113691, Note_on_c, 0, 59, 0
1, 113694, Note_on_c, 0, 59, 41
1, 113694, Note_on_c, 0, 56, 36
1, 113694, Note_on_c, 0, 64, 41
1, 113697, Note_on_c, 0, 52, 0
1, 113697, Note_on_c, 0, 40, 0
1, 113697, Note_on_c, 0, 40, 31
1, 113700, Note_on_c, 0, 52, 36
1, 114831, Note_on_c, 0, 64, 0
1, 114831, Note_on_c, 0, 56, 0
1, 114831, Note_on_c, 0, 59, 0
1, 114834, Note_on_c, 0, 56, 34
1, 114834, Note_on_c, 0, 59, 39
1, 114834, Note_on_c, 0, 64, 39
1, 114837, Note_on_c, 0, 52, 0
1, 114837, Note_on_c, 0, 40, 0
1, 114837, Note_on_c, 0, 40, 30
1, 114840, Note_on_c, 0, 52, 33
1, 115373, Control_c, 0, 64, 0
1, 115972, Note_on_c, 0, 64, 0
1, 115972, Note_on_c, 0, 59, 0
1, 115972, Note_on_c, 0, 56, 0
1, 115975, Note_on_c, 0, 55, 73
1, 117095, Note_on_c, 0, 55, 0
1, 117095, Note_on_c, 0, 55, 79
1, 117095, Note_on_c, 0, 52, 0
1, 117098, Note_on_c, 0, 40, 0
1, 118303, Note_on_c, 0, 55, 0
1, 118303, Note_on_c, 0, 55, 59
1, 118303, Control_c, 0, 91, 127
1, 118306, Note_on_c, 0, 40, 38
1, 118306, Note_on_c, 0, 52, 46
1, 118306, Control_c, 0, 64, 0
1, 118532, Control_c, 0, 64, 127
1, 119426, Note_on_c, 0, 59, 54
1, 120268, Note_on_c, 0, 59, 0
1, 120268, Note_on_c, 0, 59, 54
1, 120572, Note_on_c, 0, 59, 0
1, 120572, Note_on_c, 0, 67, 60
1, 121695, Note_on_c, 0, 67, 0
1, 121695, Note_on_c, 0, 55, 0
1, 121695, Note_on_c, 0, 52, 0
1, 121698, Note_on_c, 0, 40, 0
1, 121698, Note_on_c, 0, 40, 42
1, 121698, Note_on_c, 0, 52, 50
1, 121737, Control_c, 0, 64, 0
1, 122060, Control_c, 0, 64, 127
1, 122818, Note_on_c, 0, 61, 53
1, 123661, Note_on_c, 0, 61, 0
1, 123661, Note_on_c, 0, 61, 53
1, 123958, Note_on_c, 0, 61, 0
1, 123958, Note_on_c, 0, 70, 59
1, 124239, Note_on_c, 0, 52, 0
1, 124239, Note_on_c, 0, 52, 50
1, 124507, Note_on_c, 0, 52, 0
1, 124507, Note_on_c, 0, 55, 55
1, 124789, Note_on_c, 0, 55, 0
1, 124789, Note_on_c, 0, 52, 50
1, 125084, Note_on_c, 0, 70, 0
1, 125084, Note_on_c, 0, 71, 60
1, 125084, Note_on_c, 0, 52, 0
1, 125087, Note_on_c, 0, 40, 0
1, 125087, Note_on_c, 0, 51, 59
1, 125108, Control_c, 0, 64, 0
1, 126260, Note_on_c, 0, 71, 0
1, 126260, Note_on_c, 0, 66, 43
1, 126260, Note_on_c, 0, 59, 48
1, 126263, Note_on_c, 0, 71, 48
1, 126263, Note_on_c, 0, 51, 0
1, 126263, Note_on_c, 0, 47, 37
1, 126266, Note_on_c, 0, 39, 37
1, 126266, Note_on_c, 0, 51, 42
1, 126931, Control_c, 0, 64, 127
1, 127436, Note_on_c, 0, 71, 0
1, 127436, Note_on_c, 0, 59, 0
1, 127436, Note_on_c, 0, 66, 0
1, 127439, Note_on_c, 0, 66, 43
1, 127439, Note_on_c, 0, 59, 38
1, 127439, Note_on_c, 0, 71, 43
1, 127442, Note_on_c, 0, 51, 0
1, 127442, Note_on_c, 0, 39, 0
1, 127442, Note_on_c, 0, 47, 0
1, 127445, Note_on_c, 0, 47, 33
1, 127445, Note_on_c, 0, 39, 33
1, 127445, Note_on_c, 0, 51, 38
1, 128612, Note_on_c, 0, 71, 0
1, 128612, Note_on_c, 0, 59, 0
1, 128612, Note_on_c, 0, 66, 0
1, 128615, Note_on_c, 0, 59, 38
1, 128615, Note_on_c, 0, 66, 43
1, 128615, Note_on_c, 0, 71, 43
1, 128618, Note_on_c, 0, 51, 0
1, 128618, Note_on_c, 0, 39, 0
1, 128618, Note_on_c, 0, 47, 0
1, 128621, Note_on_c, 0, 47, 33
1, 128621, Note_on_c, 0, 39, 33
1, 128621, Note_on_c, 0, 51, 38
1, 129788, Note_on_c, 0, 71, 0
1, 129788, Note_on_c, 0, 66, 0
1, 129788, Note_on_c, 0, 59, 0
1, 129791, Note_on_c, 0, 50, 58
1, 129791, Note_on_c, 0, 53, 70
1, 129791, Note_on_c, 0, 51, 0
1, 129794, Note_on_c, 0, 39, 0
1, 129794, Note_on_c, 0, 47, 0
1, 130911, Note_on_c, 0, 53, 0
1, 130911, Note_on_c, 0, 50, 0
1, 130911, Note_on_c, 0, 50, 63
1, 130914, Note_on_c, 0, 53, 75
1, 132132, Note_on_c, 0, 53, 0
1, 132132, Note_on_c, 0, 50, 0
1, 132132, Note_on_c, 0, 53, 49
1, 132135, Control_c, 0, 91, 127
1, 132135, Note_on_c, 0, 50, 41
1, 132135, Control_c, 0, 64, 0
1, 132352, Control_c, 0, 64, 127
1, 133207, Note_on_c, 0, 65, 59
1, 133983, Note_on_c, 0, 65, 0
1, 133983, Note_on_c, 0, 65, 62
1, 134253, Note_on_c, 0, 65, 0
1, 134253, Note_on_c, 0, 53, 0
1, 134253, Note_on_c, 0, 71, 68
1, 134512, Note_on_c, 0, 50, 0
1, 134512, Note_on_c, 0, 53, 53
1, 134763, Note_on_c, 0, 53, 0
1, 134763, Note_on_c, 0, 56, 58
1, 135022, Note_on_c, 0, 56, 0
1, 135022, Note_on_c, 0, 53, 54
1, 135280, Note_on_c, 0, 53, 0
1, 135280, Note_on_c, 0, 49, 66
1, 135324, Control_c, 0, 64, 0
1, 135617, Control_c, 0, 64, 127
1, 136316, Note_on_c, 0, 71, 0
1, 136316, Note_on_c, 0, 71, 64
1, 137092, Note_on_c, 0, 71, 0
1, 137092, Note_on_c, 0, 71, 68
1, 137361, Note_on_c, 0, 71, 0
1, 137361, Note_on_c, 0, 77, 73
1, 137620, Note_on_c, 0, 49, 0
1, 137620, Note_on_c, 0, 53, 59
1, 137870, Note_on_c, 0, 53, 0
1, 137870, Note_on_c, 0, 56, 64
1, 138129, Note_on_c, 0, 56, 0
1, 138129, Note_on_c, 0, 53, 59
1, 138387, Control_c, 0, 91, 127
1, 138387, Note_on_c, 0, 53, 0
1, 138387, Note_on_c, 0, 48, 71
1, 138417, Control_c, 0, 64, 0
1, 138597, Control_c, 0, 64, 127
1, 139417, Note_on_c, 0, 77, 0
1, 139417, Note_on_c, 0, 77, 65
1, 140190, Note_on_c, 0, 77, 0
1, 140190, Note_on_c, 0, 77, 67
1, 140459, Note_on_c, 0, 77, 0
1, 140459, Note_on_c, 0, 80, 82
1, 140716, Note_on_c, 0, 48, 0
1, 140716, Note_on_c, 0, 53, 65
1, 140965, Note_on_c, 0, 53, 0
1, 140965, Note_on_c, 0, 56, 70
1, 141221, Note_on_c, 0, 56, 0
1, 141221, Note_on_c, 0, 53, 64
1, 141478, Note_on_c, 0, 53, 0
1, 141478, Note_on_c, 0, 47, 77
1, 141520, Control_c, 0, 64, 0
1, 141811, Control_c, 0, 64, 127
1, 142503, Note_on_c, 0, 80, 0
1, 142503, Note_on_c, 0, 77, 76
1, 143273, Note_on_c, 0, 77, 0
1, 143273, Note_on_c, 0, 77, 76
1, 143540, Note_on_c, 0, 77, 0
1, 143540, Note_on_c, 0, 86, 92
1, 143794, Note_on_c, 0, 47, 0
1, 143794, Note_on_c, 0, 53, 73
1, 144041, Note_on_c, 0, 53, 0
1, 144041, Note_on_c, 0, 56, 77
1, 144296, Note_on_c, 0, 56, 0
1, 144296, Note_on_c, 0, 53, 71
1, 144551, Control_c, 0, 91, 127
1, 144551, Note_on_c, 0, 53, 0
1, 144551, Note_on_c, 0, 44, 86
1, 144585, Control_c, 0, 64, 0
1, 144760, Control_c, 0, 64, 127
1, 145572, Note_on_c, 0, 86, 0
1, 145572, Note_on_c, 0, 77, 86
1, 146338, Note_on_c, 0, 77, 0
1, 146338, Note_on_c, 0, 77, 86
1, 146608, Note_on_c, 0, 77, 0
1, 146608, Note_on_c, 0, 89, 100
1, 146861, Note_on_c, 0, 44, 0
1, 146861, Note_on_c, 0, 53, 84
1, 147110, Note_on_c, 0, 53, 0
1, 147110, Note_on_c, 0, 59, 90
1, 147358, Note_on_c, 0, 59, 0
1, 147358, Note_on_c, 0, 53, 84
1, 147618, Note_on_c, 0, 53, 0
1, 147618, Note_on_c, 0, 43, 100
1, 147660, Control_c, 0, 64, 0
1, 147948, Control_c, 0, 64, 127
1, 148635, Note_on_c, 0, 89, 0
1, 148635, Note_on_c, 0, 77, 90
1, 149397, Note_on_c, 0, 77, 0
1, 149397, Note_on_c, 0, 77, 82
1, 149667, Note_on_c, 0, 77, 0
1, 149667, Note_on_c, 0, 89, 107
1, 149921, Note_on_c, 0, 43, 0
1, 149921, Note_on_c, 0, 53, 93
1, 150168, Note_on_c, 0, 53, 0
1, 150168, Note_on_c, 0, 59, 98
1, 150423, Note_on_c, 0, 59, 0
1, 150423, Note_on_c, 0, 53, 93
1, 150677, Control_c, 0, 91, 127
1, 150677, Note_on_c, 0, 53, 0
1, 150677, Note_on_c, 0, 44, 111
1, 150680, Control_c, 0, 64, 0
1, 150884, Control_c, 0, 64, 127
1, 151693, Note_on_c, 0, 89, 0
1, 151693, Note_on_c, 0, 77, 89
1, 152455, Note_on_c, 0, 77, 0
1, 152455, Note_on_c, 0, 77, 91
1, 152724, Note_on_c, 0, 77, 0
1, 152724, Note_on_c, 0, 89, 109
1, 152978, Note_on_c, 0, 44, 0
1, 152978, Note_on_c, 0, 53, 92
1, 153226, Note_on_c, 0, 53, 0
1, 153226, Note_on_c, 0, 59, 100
1, 153473, Note_on_c, 0, 59, 0
1, 153473, Note_on_c, 0, 53, 91
1, 153730, Note_on_c, 0, 53, 0
1, 153730, Note_on_c, 0, 44, 109
1, 153772, Control_c, 0, 64, 0
1, 153888, Control_c, 0, 64, 127
1, 153986, Note_on_c, 0, 44, 0
1, 153986, Note_on_c, 0, 53, 89
1, 154242, Note_on_c, 0, 53, 0
1, 154242, Note_on_c, 0, 59, 99
1, 154499, Note_on_c, 0, 89, 0
1, 154499, Note_on_c, 0, 77, 97
1, 154499, Note_on_c, 0, 59, 0
1, 154502, Note_on_c, 0, 53, 80
1, 154770, Note_on_c, 0, 77, 0
1, 154770, Note_on_c, 0, 89, 113
1, 154770, Note_on_c, 0, 53, 0
1, 154773, Note_on_c, 0, 44, 88
1, 155027, Note_on_c, 0, 89, 0
1, 155027, Note_on_c, 0, 44, 0
1, 155027, Note_on_c, 0, 53, 66
1, 155283, Note_on_c, 0, 53, 0
1, 155283, Note_on_c, 0, 59, 68
1, 155539, Note_on_c, 0, 74, 91
1, 155539, Note_on_c, 0, 59, 0
1, 155539, Note_on_c, 0, 53, 65
1, 155809, Note_on_c, 0, 74, 0
1, 155809, Note_on_c, 0, 86, 108
1, 155809, Note_on_c, 0, 53, 0
1, 155812, Note_on_c, 0, 44, 72
1, 156066, Note_on_c, 0, 86, 0
1, 156066, Note_on_c, 0, 44, 0
1, 156066, Note_on_c, 0, 53, 63
1, 156322, Note_on_c, 0, 53, 0
1, 156322, Note_on_c, 0, 59, 66
1, 156579, Note_on_c, 0, 71, 80
1, 156579, Note_on_c, 0, 59, 0
1, 156579, Note_on_c, 0, 53, 62
1, 156846, Note_on_c, 0, 71, 0
1, 156846, Note_on_c, 0, 83, 92
1, 156846, Note_on_c, 0, 53, 0
1, 156849, Note_on_c, 0, 43, 70
1, 156885, Control_c, 0, 64, 0
1, 156932, Control_c, 0, 64, 127
1, 157103, Note_on_c, 0, 83, 0
1, 157103, Note_on_c, 0, 43, 0
1, 157103, Note_on_c, 0, 53, 60
1, 157359, Note_on_c, 0, 53, 0
1, 157359, Note_on_c, 0, 59, 64
1, 157616, Note_on_c, 0, 65, 79
1, 157616, Note_on_c, 0, 59, 0
1, 157616, Note_on_c, 0, 53, 59
1, 157880, Note_on_c, 0, 65, 0
1, 157880, Note_on_c, 0, 77, 89
1, 157880, Note_on_c, 0, 53, 0
1, 157883, Note_on_c, 0, 43, 67
1, 158137, Note_on_c, 0, 77, 0
1, 158137, Note_on_c, 0, 43, 0
1, 158137, Note_on_c, 0, 50, 58
1, 158393, Note_on_c, 0, 50, 0
1, 158393, Note_on_c, 0, 53, 62
1, 158650, Note_on_c, 0, 62, 66
1, 158650, Note_on_c, 0, 53, 0
1, 158650, Note_on_c, 0, 50, 57
1, 158918, Note_on_c, 0, 62, 0
1, 158918, Note_on_c, 0, 74, 75
1, 158918, Note_on_c, 0, 50, 0
1, 158921, Note_on_c, 0, 43, 65
1, 159178, Note_on_c, 0, 74, 0
1, 159178, Note_on_c, 0, 43, 0
1, 159178, Note_on_c, 0, 47, 55
1, 159438, Note_on_c, 0, 47, 0
1, 159438, Note_on_c, 0, 50, 57
1, 159698, Note_on_c, 0, 59, 60
1, 159698, Note_on_c, 0, 50, 0
1, 159698, Note_on_c, 0, 47, 53
1, 159971, Note_on_c, 0, 59, 0
1, 159971, Note_on_c, 0, 71, 70
1, 159971, Note_on_c, 0, 47, 0
1, 159974, Note_on_c, 0, 43, 58
1, 159998, Control_c, 0, 64, 0
1, 160109, Control_c, 0, 64, 127
1, 160237, Note_on_c, 0, 71, 0
1, 160237, Note_on_c, 0, 43, 0
1, 160237, Note_on_c, 0, 47, 49
1, 160503, Note_on_c, 0, 47, 0
1, 160503, Note_on_c, 0, 50, 51
1, 160770, Note_on_c, 0, 53, 55
1, 160770, Note_on_c, 0, 50, 0
1, 160770, Note_on_c, 0, 47, 47
1, 161048, Note_on_c, 0, 53, 0
1, 161048, Note_on_c, 0, 65, 62
1, 161048, Note_on_c, 0, 47, 0
1, 161051, Note_on_c, 0, 43, 55
1, 161319, Note_on_c, 0, 65, 0
1, 161319, Note_on_c, 0, 43, 0
1, 161319, Note_on_c, 0, 47, 45
1, 161590, Note_on_c, 0, 47, 0
1, 161590, Note_on_c, 0, 50, 48
1, 161861, Note_on_c, 0, 50, 50
1, 161861, Note_on_c, 0, 50, 0
1, 161861, Note_on_c, 0, 47, 43
1, 162147, Note_on_c, 0, 50, 0
1, 162147, Note_on_c, 0, 62, 55
1, 162147, Note_on_c, 0, 47, 0
1, 162150, Note_on_c, 0, 43, 49
1, 162423, Note_on_c, 0, 62, 0
1, 162423, Note_on_c, 0, 43, 0
1, 162423, Note_on_c, 0, 38, 41
1, 162700, Note_on_c, 0, 38, 0
1, 162700, Note_on_c, 0, 35, 42
1, 162977, Note_on_c, 0, 47, 43
1, 162977, Note_on_c, 0, 35, 0
1, 162977, Note_on_c, 0, 38, 39
1, 163267, Note_on_c, 0, 47, 0
1, 163267, Note_on_c, 0, 59, 53
1, 163267, Note_on_c, 0, 38, 0
1, 163270, Note_on_c, 0, 31, 43
1, 163310, Control_c, 0, 64, 0
1, 164414, Note_on_c, 0, 59, 0
1, 164414, Note_on_c, 0, 47, 36
1, 164414, Note_on_c, 0, 50, 36
1, 164417, Note_on_c, 0, 53, 41
1, 164417, Note_on_c, 0, 31, 0
1, 164417, Note_on_c, 0, 43, 36
1, 164420, Note_on_c, 0, 31, 31
1, 165560, Note_on_c, 0, 53, 0
1, 165560, Note_on_c, 0, 50, 0
1, 165560, Note_on_c, 0, 47, 0
1, 165563, Note_on_c, 0, 47, 33
1, 165563, Note_on_c, 0, 50, 33
1, 165563, Note_on_c, 0, 53, 39
1, 165566, Note_on_c, 0, 31, 0
1, 165566, Note_on_c, 0, 43, 0
1, 165566, Note_on_c, 0, 43, 36
1, 165569, Note_on_c, 0, 31, 31
1, 166866, Note_on_c, 0, 53, 0
1, 166866, Note_on_c, 0, 50, 0
1, 166866, Note_on_c, 0, 47, 0
1, 166869, Note_on_c, 0, 47, 33
1, 166869, Note_on_c, 0, 50, 33
1, 166869, Note_on_c, 0, 53, 39
1, 166872, Note_on_c, 0, 31, 0
1, 166872, Note_on_c, 0, 43, 0
1, 166872, Note_on_c, 0, 32, 31
1, 166875, Note_on_c, 0, 44, 36
1, 169170, Note_on_c, 0, 53, 0
1, 169170, Note_on_c, 0, 50, 0
1, 169170, Note_on_c, 0, 47, 0
1, 169173, Note_on_c, 0, 77, 53
1, 169173, Note_on_c, 0, 44, 0
1, 169173, Note_on_c, 0, 32, 0
1, 170322, Note_on_c, 0, 77, 0
1, 170322, Note_on_c, 0, 76, 53
1, 170768, Control_c, 0, 64, 127
1, 171474, Note_on_c, 0, 76, 0
1, 171474, Note_on_c, 0, 48, 34
1, 171474, Note_on_c, 0, 52, 39
1, 171477, Note_on_c, 0, 33, 28
1, 171477, Note_on_c, 0, 45, 32
1, 172626, Note_on_c, 0, 45, 0
1, 172626, Note_on_c, 0, 48, 0
1, 172626, Note_on_c, 0, 52, 0
1, 172629, Note_on_c, 0, 33, 0
1, 172629, Note_on_c, 0, 45, 31
1, 172629, Note_on_c, 0, 33, 27
1, 172632, Note_on_c, 0, 52, 37
1, 172632, Note_on_c, 0, 48, 32
1, 173778, Note_on_c, 0, 48, 0
1, 173778, Note_on_c, 0, 45, 0
1, 173778, Note_on_c, 0, 33, 0
1, 173781, Note_on_c, 0, 52, 0
1, 173781, Note_on_c, 0, 52, 36
1, 173781, Note_on_c, 0, 48, 31
1, 173784, Note_on_c, 0, 33, 27
1, 173784, Note_on_c, 0, 45, 30
1, 174608, Control_c, 0, 64, 0
1, 176082, Note_on_c, 0, 76, 53
1, 176082, Note_on_c, 0, 45, 0
1, 176082, Note_on_c, 0, 52, 0
1, 176085, Note_on_c, 0, 48, 0
1, 176085, Note_on_c, 0, 33, 0
1, 177234, Note_on_c, 0, 76, 0
1, 177234, Note_on_c, 0, 74, 53
1, 177234, Note_on_c, 0, 29, 31
1, 177237, Note_on_c, 0, 41, 36
1, 177344, Control_c, 0, 64, 127
1, 178386, Note_on_c, 0, 74, 0
1, 178386, Note_on_c, 0, 41, 0
1, 178386, Note_on_c, 0, 29, 0
1, 178389, Note_on_c, 0, 50, 30
1, 178389, Note_on_c, 0, 53, 36
1, 178389, Note_on_c, 0, 57, 41
1, 179336, Control_c, 0, 64, 0
1, 179538, Note_on_c, 0, 74, 53
1, 179538, Note_on_c, 0, 57, 0
1, 179538, Note_on_c, 0, 53, 0
1, 179541, Note_on_c, 0, 50, 0
1, 179878, Control_c, 0, 64, 127
1, 180720, Note_on_c, 0, 74, 0
1, 180720, Note_on_c, 0, 79, 53
1, 180720, Note_on_c, 0, 31, 31
1, 180723, Note_on_c, 0, 43, 36
1, 181872, Note_on_c, 0, 79, 0
1, 181872, Note_on_c, 0, 43, 0
1, 181872, Note_on_c, 0, 31, 0
1, 181875, Note_on_c, 0, 47, 31
1, 181875, Note_on_c, 0, 50, 36
1, 181875, Note_on_c, 0, 55, 41
1, 182369, Control_c, 0, 64, 0
1, 183127, Note_on_c, 0, 79, 88
1, 183127, Note_on_c, 0, 55, 0
1, 183127, Note_on_c, 0, 50, 0
1, 183130, Note_on_c, 0, 47, 0
1, 185015, Note_on_c, 0, 79, 0
1, 186513, End_track
0, 0, End_of_file
