0, 0, Header, 0, 1, 384
1, 0, Start_track
1, 0, Tempo, 512820
1, 0, Title_t, "Sonate Nr. 23 OpAppassionata"
1, 0, Program_c, 0, 0
1, 0, Control_c, 0, 7, 100
1, 748, Note_on_c, 0, 49, 49
1, 748, Note_on_c, 0, 53, 49
1, 748, Note_on_c, 0, 56, 57
1, 751, Control_c, 0, 91, 127
1, 751, Program_c, 0, 0
1, 751, Control_c, 0, 7, 100
1, 754, Control_c, 0, 64, 127
1, 754, Note_on_c, 0, 37, 57
1, 1752, Control_c, 0, 64, 0
1, 1811, Note_on_c, 0, 56, 0
1, 1811, Note_on_c, 0, 53, 0
1, 1811, Note_on_c, 0, 49, 0
1, 1814, Note_on_c, 0, 49, 47
1, 1814, Note_on_c, 0, 58, 54
1, 1814, Note_on_c, 0, 54, 54
1, 1817, Note_on_c, 0, 37, 0
1, 1817, Note_on_c, 0, 30, 45
1, 2173, Control_c, 0, 64, 127
1, 2895, Note_on_c, 0, 54, 0
1, 2895, Note_on_c, 0, 58, 0
1, 2895, Note_on_c, 0, 49, 0
1, 2898, Note_on_c, 0, 49, 47
1, 2898, Note_on_c, 0, 53, 47
1, 2898, Note_on_c, 0, 56, 54
1, 2901, Note_on_c, 0, 30, 0
1, 2901, Note_on_c, 0, 37, 47
1, 2901, Control_c, 0, 64, 0
1, 3073, Control_c, 0, 64, 127
1, 4224, Control_c, 0, 64, 0
1, 4351, Note_on_c, 0, 56, 0
1, 4351, Note_on_c, 0, 53, 0
1, 4351, Note_on_c, 0, 49, 0
1, 4354, Note_on_c, 0, 58, 54
1, 4354, Note_on_c, 0, 51, 47
1, 4354, Note_on_c, 0, 49, 47
1, 4357, Note_on_c, 0, 37, 0
1, 4357, Note_on_c, 0, 30, 45
1, 4864, Note_on_c, 0, 49, 0
1, 4864, Note_on_c, 0, 51, 0
1, 4864, Note_on_c, 0, 58, 0
1, 4867, Note_on_c, 0, 49, 49
1, 4867, Note_on_c, 0, 51, 49
1, 4867, Note_on_c, 0, 56, 57
1, 4870, Note_on_c, 0, 30, 0
1, 4870, Note_on_c, 0, 32, 50
1, 4973, Control_c, 0, 64, 127
1, 5927, Note_on_c, 0, 56, 0
1, 5927, Note_on_c, 0, 51, 0
1, 5927, Note_on_c, 0, 49, 0
1, 5930, Note_on_c, 0, 56, 56
1, 5930, Note_on_c, 0, 48, 48
1, 5930, Note_on_c, 0, 51, 48
1, 5933, Note_on_c, 0, 32, 0
1, 5933, Note_on_c, 0, 44, 50
1, 5986, Control_c, 0, 64, 0
1, 6069, Control_c, 0, 64, 127
1, 6815, Note_on_c, 0, 44, 0
1, 6815, Note_on_c, 0, 42, 46
1, 6942, Note_on_c, 0, 51, 0
1, 6942, Note_on_c, 0, 48, 0
1, 6942, Note_on_c, 0, 56, 0
1, 6945, Note_on_c, 0, 49, 49
1, 6945, Note_on_c, 0, 53, 49
1, 6945, Note_on_c, 0, 56, 57
1, 6948, Note_on_c, 0, 42, 0
1, 6948, Note_on_c, 0, 41, 53
1, 6948, Control_c, 0, 64, 0
1, 7023, Control_c, 0, 64, 127
1, 7578, Note_on_c, 0, 41, 0
1, 7578, Note_on_c, 0, 42, 46
1, 7813, Note_on_c, 0, 42, 0
1, 7813, Note_on_c, 0, 44, 51
1, 7842, Control_c, 0, 64, 0
1, 7893, Control_c, 0, 64, 127
1, 8182, Note_on_c, 0, 44, 0
1, 8182, Note_on_c, 0, 42, 47
1, 8305, Note_on_c, 0, 42, 0
1, 8305, Note_on_c, 0, 41, 50
1, 8343, Control_c, 0, 64, 0
1, 8403, Control_c, 0, 64, 127
1, 8711, Note_on_c, 0, 41, 0
1, 8711, Note_on_c, 0, 39, 50
1, 8862, Note_on_c, 0, 56, 0
1, 8862, Note_on_c, 0, 53, 0
1, 8862, Note_on_c, 0, 49, 0
1, 8865, Note_on_c, 0, 61, 64
1, 8865, Note_on_c, 0, 56, 55
1, 8865, Note_on_c, 0, 53, 55
1, 8868, Note_on_c, 0, 39, 0
1, 8868, Control_c, 0, 64, 0
1, 8868, Note_on_c, 0, 37, 49
1, 8871, Note_on_c, 0, 49, 56
1, 9371, Control_c, 0, 64, 127
1, 9881, Note_on_c, 0, 53, 0
1, 9881, Note_on_c, 0, 56, 0
1, 9881, Note_on_c, 0, 61, 0
1, 9884, Note_on_c, 0, 54, 57
1, 9884, Note_on_c, 0, 58, 57
1, 9884, Note_on_c, 0, 61, 66
1, 9887, Note_on_c, 0, 49, 0
1, 9887, Note_on_c, 0, 37, 0
1, 9887, Note_on_c, 0, 42, 58
1, 9890, Note_on_c, 0, 30, 50
1, 9946, Control_c, 0, 64, 0
1, 10525, Control_c, 0, 64, 127
1, 11038, Note_on_c, 0, 61, 0
1, 11038, Note_on_c, 0, 58, 0
1, 11038, Note_on_c, 0, 54, 0
1, 11041, Note_on_c, 0, 56, 46
1, 11041, Note_on_c, 0, 53, 46
1, 11041, Note_on_c, 0, 61, 54
1, 11044, Note_on_c, 0, 30, 0
1, 11044, Note_on_c, 0, 42, 0
1, 11044, Control_c, 0, 64, 0
1, 11047, Note_on_c, 0, 37, 37
1, 11047, Note_on_c, 0, 49, 42
1, 11209, Control_c, 0, 64, 127
1, 12348, Control_c, 0, 64, 0
1, 12481, Note_on_c, 0, 61, 0
1, 12481, Note_on_c, 0, 53, 0
1, 12481, Note_on_c, 0, 56, 0
1, 12484, Note_on_c, 0, 52, 47
1, 12484, Note_on_c, 0, 61, 54
1, 12484, Note_on_c, 0, 55, 47
1, 12487, Note_on_c, 0, 49, 0
1, 12487, Note_on_c, 0, 37, 0
1, 12487, Note_on_c, 0, 33, 40
1, 12490, Note_on_c, 0, 45, 46
1, 13013, Note_on_c, 0, 55, 0
1, 13013, Note_on_c, 0, 61, 0
1, 13013, Note_on_c, 0, 52, 0
1, 13016, Note_on_c, 0, 54, 49
1, 13016, Note_on_c, 0, 51, 49
1, 13016, Note_on_c, 0, 61, 57
1, 13019, Note_on_c, 0, 45, 0
1, 13019, Note_on_c, 0, 33, 0
1, 13019, Note_on_c, 0, 32, 41
1, 13022, Note_on_c, 0, 44, 47
1, 13427, Control_c, 0, 64, 127
1, 14076, Note_on_c, 0, 61, 0
1, 14076, Note_on_c, 0, 51, 0
1, 14076, Note_on_c, 0, 54, 0
1, 14079, Note_on_c, 0, 51, 47
1, 14079, Note_on_c, 0, 60, 53
1, 14079, Note_on_c, 0, 54, 47
1, 14082, Note_on_c, 0, 44, 0
1, 14082, Note_on_c, 0, 32, 0
1, 14082, Note_on_c, 0, 44, 44
1, 14197, Control_c, 0, 64, 0
1, 14746, Control_c, 0, 64, 127
1, 15174, Note_on_c, 0, 54, 0
1, 15174, Note_on_c, 0, 60, 0
1, 15174, Note_on_c, 0, 51, 0
1, 15177, Note_on_c, 0, 49, 47
1, 15177, Note_on_c, 0, 53, 47
1, 15177, Note_on_c, 0, 61, 53
1, 15180, Control_c, 0, 64, 0
1, 15254, Control_c, 0, 64, 127
1, 15543, Note_on_c, 0, 44, 0
1, 15543, Note_on_c, 0, 42, 38
1, 15669, Note_on_c, 0, 42, 0
1, 15669, Note_on_c, 0, 41, 42
1, 15728, Control_c, 0, 64, 0
1, 15773, Control_c, 0, 64, 127
1, 16070, Note_on_c, 0, 41, 0
1, 16070, Note_on_c, 0, 39, 37
1, 16155, Control_c, 0, 64, 0
1, 16215, Note_on_c, 0, 39, 0
1, 16215, Note_on_c, 0, 37, 37
1, 16238, Control_c, 0, 64, 127
1, 16701, Control_c, 0, 64, 0
1, 16725, Note_on_c, 0, 61, 0
1, 16725, Note_on_c, 0, 53, 0
1, 16725, Note_on_c, 0, 49, 0
1, 16728, Note_on_c, 0, 37, 0
1, 17234, Note_on_c, 0, 49, 49
1, 17234, Note_on_c, 0, 53, 49
1, 17234, Note_on_c, 0, 56, 57
1, 17237, Control_c, 0, 64, 127
1, 17237, Note_on_c, 0, 37, 57
1, 18238, Control_c, 0, 64, 0
1, 18297, Note_on_c, 0, 56, 0
1, 18297, Note_on_c, 0, 53, 0
1, 18297, Note_on_c, 0, 49, 0
1, 18300, Note_on_c, 0, 49, 47
1, 18300, Note_on_c, 0, 54, 54
1, 18300, Note_on_c, 0, 58, 54
1, 18303, Note_on_c, 0, 37, 0
1, 18303, Note_on_c, 0, 30, 45
1, 18663, Control_c, 0, 64, 127
1, 19395, Note_on_c, 0, 58, 0
1, 19395, Note_on_c, 0, 54, 0
1, 19395, Note_on_c, 0, 49, 0
1, 19398, Note_on_c, 0, 49, 47
1, 19398, Note_on_c, 0, 53, 47
1, 19398, Note_on_c, 0, 56, 54
1, 19401, Note_on_c, 0, 30, 0
1, 19401, Control_c, 0, 64, 0
1, 19401, Note_on_c, 0, 37, 47
1, 19573, Control_c, 0, 64, 127
1, 20704, Control_c, 0, 64, 0
1, 20824, Note_on_c, 0, 56, 0
1, 20824, Note_on_c, 0, 53, 0
1, 20824, Note_on_c, 0, 49, 0
1, 20827, Note_on_c, 0, 49, 47
1, 20827, Note_on_c, 0, 51, 47
1, 20827, Note_on_c, 0, 58, 54
1, 20830, Note_on_c, 0, 37, 0
1, 20830, Note_on_c, 0, 30, 45
1, 21318, Note_on_c, 0, 58, 0
1, 21318, Note_on_c, 0, 51, 0
1, 21318, Note_on_c, 0, 49, 0
1, 21321, Note_on_c, 0, 49, 49
1, 21321, Note_on_c, 0, 51, 49
1, 21321, Note_on_c, 0, 56, 57
1, 21324, Note_on_c, 0, 30, 0
1, 21324, Note_on_c, 0, 32, 50
1, 21426, Control_c, 0, 64, 127
1, 22381, Note_on_c, 0, 56, 0
1, 22381, Note_on_c, 0, 51, 0
1, 22381, Note_on_c, 0, 49, 0
1, 22384, Note_on_c, 0, 48, 48
1, 22384, Note_on_c, 0, 51, 48
1, 22384, Note_on_c, 0, 56, 56
1, 22387, Note_on_c, 0, 32, 0
1, 22387, Note_on_c, 0, 44, 50
1, 22440, Control_c, 0, 64, 0
1, 22523, Control_c, 0, 64, 127
1, 23269, Note_on_c, 0, 44, 0
1, 23269, Note_on_c, 0, 42, 46
1, 23396, Note_on_c, 0, 56, 0
1, 23396, Note_on_c, 0, 51, 0
1, 23396, Note_on_c, 0, 48, 0
1, 23399, Note_on_c, 0, 49, 49
1, 23399, Note_on_c, 0, 53, 49
1, 23399, Note_on_c, 0, 56, 57
1, 23402, Note_on_c, 0, 42, 0
1, 23402, Control_c, 0, 64, 0
1, 23402, Note_on_c, 0, 41, 53
1, 23477, Control_c, 0, 64, 127
1, 24032, Note_on_c, 0, 41, 0
1, 24032, Note_on_c, 0, 42, 46
1, 24256, Note_on_c, 0, 42, 0
1, 24256, Note_on_c, 0, 44, 51
1, 24285, Control_c, 0, 64, 0
1, 24336, Control_c, 0, 64, 127
1, 24625, Note_on_c, 0, 44, 0
1, 24625, Note_on_c, 0, 42, 47
1, 24748, Note_on_c, 0, 42, 0
1, 24748, Note_on_c, 0, 41, 50
1, 24787, Control_c, 0, 64, 0
1, 24846, Control_c, 0, 64, 127
1, 25154, Note_on_c, 0, 41, 0
1, 25154, Note_on_c, 0, 39, 50
1, 25305, Note_on_c, 0, 56, 0
1, 25305, Note_on_c, 0, 53, 0
1, 25305, Note_on_c, 0, 49, 0
1, 25308, Note_on_c, 0, 53, 55
1, 25308, Note_on_c, 0, 56, 55
1, 25308, Note_on_c, 0, 61, 64
1, 25311, Note_on_c, 0, 39, 0
1, 25311, Control_c, 0, 64, 0
1, 25311, Note_on_c, 0, 37, 49
1, 25314, Note_on_c, 0, 49, 56
1, 25798, Control_c, 0, 64, 127
1, 26292, Note_on_c, 0, 61, 0
1, 26292, Note_on_c, 0, 56, 0
1, 26292, Note_on_c, 0, 53, 0
1, 26295, Note_on_c, 0, 54, 57
1, 26295, Note_on_c, 0, 58, 57
1, 26295, Note_on_c, 0, 61, 66
1, 26298, Note_on_c, 0, 49, 0
1, 26298, Note_on_c, 0, 37, 0
1, 26298, Note_on_c, 0, 30, 50
1, 26301, Note_on_c, 0, 42, 58
1, 26359, Control_c, 0, 64, 0
1, 26950, Control_c, 0, 64, 127
1, 27474, Note_on_c, 0, 61, 0
1, 27474, Note_on_c, 0, 58, 0
1, 27474, Note_on_c, 0, 54, 0
1, 27477, Note_on_c, 0, 53, 44
1, 27477, Note_on_c, 0, 56, 44
1, 27477, Note_on_c, 0, 61, 51
1, 27480, Note_on_c, 0, 42, 0
1, 27480, Note_on_c, 0, 30, 0
1, 27480, Control_c, 0, 64, 0
1, 27483, Note_on_c, 0, 37, 35
1, 27483, Note_on_c, 0, 49, 40
1, 27645, Control_c, 0, 64, 127
1, 28784, Control_c, 0, 64, 0
1, 28917, Note_on_c, 0, 61, 0
1, 28917, Note_on_c, 0, 56, 0
1, 28917, Note_on_c, 0, 53, 0
1, 28920, Note_on_c, 0, 52, 47
1, 28920, Note_on_c, 0, 55, 47
1, 28920, Note_on_c, 0, 61, 54
1, 28923, Note_on_c, 0, 49, 0
1, 28923, Note_on_c, 0, 37, 0
1, 28923, Note_on_c, 0, 33, 40
1, 28926, Note_on_c, 0, 45, 46
1, 29449, Note_on_c, 0, 61, 0
1, 29449, Note_on_c, 0, 55, 0
1, 29449, Note_on_c, 0, 52, 0
1, 29452, Note_on_c, 0, 51, 49
1, 29452, Note_on_c, 0, 54, 49
1, 29452, Note_on_c, 0, 61, 57
1, 29455, Note_on_c, 0, 45, 0
1, 29455, Note_on_c, 0, 33, 0
1, 29455, Note_on_c, 0, 32, 41
1, 29458, Note_on_c, 0, 44, 47
1, 29863, Control_c, 0, 64, 127
1, 30512, Note_on_c, 0, 61, 0
1, 30512, Note_on_c, 0, 54, 0
1, 30512, Note_on_c, 0, 51, 0
1, 30515, Note_on_c, 0, 51, 47
1, 30515, Note_on_c, 0, 54, 47
1, 30515, Note_on_c, 0, 60, 53
1, 30518, Note_on_c, 0, 44, 0
1, 30518, Note_on_c, 0, 32, 0
1, 30518, Note_on_c, 0, 44, 44
1, 30633, Control_c, 0, 64, 0
1, 31182, Control_c, 0, 64, 127
1, 31610, Note_on_c, 0, 60, 0
1, 31610, Note_on_c, 0, 54, 0
1, 31610, Note_on_c, 0, 51, 0
1, 31613, Note_on_c, 0, 49, 47
1, 31613, Note_on_c, 0, 53, 47
1, 31613, Note_on_c, 0, 61, 53
1, 31616, Control_c, 0, 64, 0
1, 31690, Control_c, 0, 64, 127
1, 31979, Note_on_c, 0, 44, 0
1, 31979, Note_on_c, 0, 42, 38
1, 32105, Note_on_c, 0, 42, 0
1, 32105, Note_on_c, 0, 41, 41
1, 32164, Control_c, 0, 64, 0
1, 32209, Control_c, 0, 64, 127
1, 32506, Note_on_c, 0, 41, 0
1, 32506, Note_on_c, 0, 39, 37
1, 32591, Control_c, 0, 64, 0
1, 32651, Note_on_c, 0, 39, 0
1, 32651, Note_on_c, 0, 37, 37
1, 32674, Control_c, 0, 64, 127
1, 33161, Note_on_c, 0, 61, 0
1, 33161, Note_on_c, 0, 53, 0
1, 33161, Note_on_c, 0, 49, 0
1, 33164, Note_on_c, 0, 37, 0
1, 33169, Control_c, 0, 64, 0
1, 33670, Note_on_c, 0, 48, 49
1, 33670, Note_on_c, 0, 51, 49
1, 33670, Note_on_c, 0, 56, 57
1, 33673, Note_on_c, 0, 42, 50
1, 33673, Control_c, 0, 64, 127
1, 33673, Note_on_c, 0, 44, 50
1, 34674, Control_c, 0, 64, 0
1, 34734, Note_on_c, 0, 56, 0
1, 34734, Note_on_c, 0, 51, 0
1, 34734, Note_on_c, 0, 48, 0
1, 34737, Note_on_c, 0, 48, 47
1, 34737, Note_on_c, 0, 54, 54
1, 34737, Note_on_c, 0, 56, 54
1, 34740, Note_on_c, 0, 44, 0
1, 34740, Note_on_c, 0, 42, 0
1, 34740, Note_on_c, 0, 39, 45
1, 34743, Note_on_c, 0, 44, 45
1, 35069, Control_c, 0, 64, 127
1, 35640, Note_on_c, 0, 56, 0
1, 35640, Note_on_c, 0, 54, 0
1, 35640, Note_on_c, 0, 48, 0
1, 35643, Note_on_c, 0, 48, 47
1, 35643, Note_on_c, 0, 51, 54
1, 35643, Note_on_c, 0, 56, 54
1, 35646, Note_on_c, 0, 44, 0
1, 35646, Note_on_c, 0, 39, 0
1, 35646, Note_on_c, 0, 42, 45
1, 35649, Note_on_c, 0, 44, 45
1, 35791, Note_on_c, 0, 56, 0
1, 35791, Note_on_c, 0, 51, 0
1, 35791, Note_on_c, 0, 48, 0
1, 35794, Note_on_c, 0, 49, 49
1, 35794, Note_on_c, 0, 53, 49
1, 35794, Note_on_c, 0, 56, 57
1, 35797, Note_on_c, 0, 44, 0
1, 35797, Note_on_c, 0, 42, 0
1, 35797, Note_on_c, 0, 41, 43
1, 35800, Control_c, 0, 64, 0
1, 35800, Note_on_c, 0, 44, 49
1, 35980, Control_c, 0, 64, 127
1, 36564, Note_on_c, 0, 56, 0
1, 36564, Note_on_c, 0, 53, 0
1, 36564, Note_on_c, 0, 49, 0
1, 36567, Note_on_c, 0, 53, 55
1, 36567, Note_on_c, 0, 56, 55
1, 36567, Note_on_c, 0, 61, 63
1, 36570, Note_on_c, 0, 44, 0
1, 36570, Note_on_c, 0, 41, 0
1, 36570, Note_on_c, 0, 37, 49
1, 36573, Note_on_c, 0, 44, 56
1, 36808, Note_on_c, 0, 61, 0
1, 36808, Note_on_c, 0, 56, 0
1, 36808, Note_on_c, 0, 53, 0
1, 36811, Note_on_c, 0, 56, 51
1, 36811, Note_on_c, 0, 54, 51
1, 36811, Note_on_c, 0, 60, 59
1, 36814, Note_on_c, 0, 44, 0
1, 36814, Note_on_c, 0, 37, 0
1, 36814, Note_on_c, 0, 39, 47
1, 36817, Note_on_c, 0, 44, 54
1, 36839, Control_c, 0, 64, 0
1, 36950, Control_c, 0, 64, 127
1, 37343, Note_on_c, 0, 60, 0
1, 37343, Note_on_c, 0, 54, 0
1, 37343, Note_on_c, 0, 56, 0
1, 37346, Note_on_c, 0, 53, 41
1, 37346, Note_on_c, 0, 56, 41
1, 37346, Note_on_c, 0, 61, 47
1, 37349, Note_on_c, 0, 44, 0
1, 37349, Note_on_c, 0, 39, 0
1, 37349, Note_on_c, 0, 37, 38
1, 37352, Note_on_c, 0, 44, 44
1, 37358, Control_c, 0, 64, 0
1, 37462, Control_c, 0, 64, 127
1, 37719, Control_c, 0, 64, 0
1, 37856, Note_on_c, 0, 61, 0
1, 37856, Note_on_c, 0, 56, 0
1, 37856, Note_on_c, 0, 53, 0
1, 37859, Note_on_c, 0, 48, 49
1, 37859, Note_on_c, 0, 51, 49
1, 37859, Note_on_c, 0, 56, 57
1, 37862, Note_on_c, 0, 44, 0
1, 37862, Note_on_c, 0, 37, 0
1, 37862, Note_on_c, 0, 42, 50
1, 37865, Control_c, 0, 64, 127
1, 37865, Note_on_c, 0, 44, 50
1, 38859, Control_c, 0, 64, 0
1, 38919, Note_on_c, 0, 56, 0
1, 38919, Note_on_c, 0, 51, 0
1, 38919, Note_on_c, 0, 48, 0
1, 38922, Note_on_c, 0, 48, 47
1, 38922, Note_on_c, 0, 54, 54
1, 38922, Note_on_c, 0, 56, 54
1, 38925, Note_on_c, 0, 44, 0
1, 38925, Note_on_c, 0, 42, 0
1, 38925, Note_on_c, 0, 39, 45
1, 38928, Note_on_c, 0, 44, 45
1, 39255, Control_c, 0, 64, 127
1, 39825, Note_on_c, 0, 56, 0
1, 39825, Note_on_c, 0, 54, 0
1, 39825, Note_on_c, 0, 48, 0
1, 39828, Note_on_c, 0, 48, 47
1, 39828, Note_on_c, 0, 51, 54
1, 39828, Note_on_c, 0, 56, 54
1, 39831, Note_on_c, 0, 44, 0
1, 39831, Note_on_c, 0, 39, 0
1, 39831, Note_on_c, 0, 42, 45
1, 39834, Note_on_c, 0, 44, 45
1, 39976, Note_on_c, 0, 56, 0
1, 39976, Note_on_c, 0, 51, 0
1, 39976, Note_on_c, 0, 48, 0
1, 39979, Note_on_c, 0, 49, 49
1, 39979, Note_on_c, 0, 53, 49
1, 39979, Note_on_c, 0, 56, 57
1, 39982, Note_on_c, 0, 44, 0
1, 39982, Note_on_c, 0, 42, 0
1, 39982, Note_on_c, 0, 41, 43
1, 39985, Control_c, 0, 64, 0
1, 39985, Note_on_c, 0, 44, 49
1, 40165, Control_c, 0, 64, 127
1, 40793, Note_on_c, 0, 56, 0
1, 40793, Note_on_c, 0, 53, 0
1, 40793, Note_on_c, 0, 49, 0
1, 40796, Note_on_c, 0, 53, 55
1, 40796, Note_on_c, 0, 56, 55
1, 40796, Note_on_c, 0, 65, 65
1, 40799, Note_on_c, 0, 44, 0
1, 40799, Note_on_c, 0, 41, 0
1, 40799, Note_on_c, 0, 37, 49
1, 40802, Note_on_c, 0, 44, 56
1, 41057, Note_on_c, 0, 65, 0
1, 41057, Note_on_c, 0, 56, 0
1, 41057, Note_on_c, 0, 53, 0
1, 41060, Note_on_c, 0, 56, 55
1, 41060, Note_on_c, 0, 54, 55
1, 41060, Note_on_c, 0, 65, 68
1, 41063, Note_on_c, 0, 44, 0
1, 41063, Note_on_c, 0, 37, 0
1, 41063, Note_on_c, 0, 36, 47
1, 41066, Note_on_c, 0, 44, 54
1, 41086, Control_c, 0, 64, 0
1, 41187, Control_c, 0, 64, 127
1, 41301, Note_on_c, 0, 65, 0
1, 41301, Note_on_c, 0, 63, 61
1, 41562, Note_on_c, 0, 63, 0
1, 41562, Note_on_c, 0, 54, 0
1, 41562, Note_on_c, 0, 56, 0
1, 41565, Note_on_c, 0, 53, 41
1, 41565, Note_on_c, 0, 56, 41
1, 41565, Note_on_c, 0, 61, 47
1, 41568, Note_on_c, 0, 44, 0
1, 41568, Note_on_c, 0, 36, 0
1, 41568, Note_on_c, 0, 37, 38
1, 41571, Note_on_c, 0, 44, 44
1, 41578, Control_c, 0, 64, 0
1, 41690, Control_c, 0, 64, 127
1, 41964, Control_c, 0, 64, 0
1, 42111, Note_on_c, 0, 61, 0
1, 42111, Note_on_c, 0, 56, 0
1, 42111, Note_on_c, 0, 53, 0
1, 42114, Note_on_c, 0, 48, 56
1, 42114, Note_on_c, 0, 51, 56
1, 42114, Note_on_c, 0, 56, 66
1, 42117, Note_on_c, 0, 44, 0
1, 42117, Note_on_c, 0, 37, 0
1, 42117, Note_on_c, 0, 42, 58
1, 42120, Control_c, 0, 64, 127
1, 42120, Note_on_c, 0, 44, 58
1, 43114, Control_c, 0, 64, 0
1, 43174, Note_on_c, 0, 56, 0
1, 43174, Note_on_c, 0, 51, 0
1, 43174, Note_on_c, 0, 48, 0
1, 43177, Note_on_c, 0, 48, 62
1, 43177, Note_on_c, 0, 54, 72
1, 43177, Note_on_c, 0, 56, 72
1, 43180, Note_on_c, 0, 44, 0
1, 43180, Note_on_c, 0, 42, 0
1, 43180, Note_on_c, 0, 39, 59
1, 43183, Note_on_c, 0, 44, 59
1, 43540, Control_c, 0, 64, 127
1, 44148, Note_on_c, 0, 56, 0
1, 44148, Note_on_c, 0, 54, 0
1, 44148, Note_on_c, 0, 48, 0
1, 44151, Note_on_c, 0, 48, 67
1, 44151, Note_on_c, 0, 51, 78
1, 44151, Note_on_c, 0, 56, 78
1, 44154, Note_on_c, 0, 44, 0
1, 44154, Note_on_c, 0, 39, 0
1, 44154, Note_on_c, 0, 42, 65
1, 44157, Note_on_c, 0, 44, 65
1, 44299, Note_on_c, 0, 56, 0
1, 44299, Note_on_c, 0, 51, 0
1, 44299, Note_on_c, 0, 48, 0
1, 44302, Note_on_c, 0, 56, 80
1, 44302, Note_on_c, 0, 61, 80
1, 44302, Note_on_c, 0, 68, 97
1, 44305, Note_on_c, 0, 44, 0
1, 44305, Note_on_c, 0, 42, 0
1, 44305, Note_on_c, 0, 41, 83
1, 44308, Control_c, 0, 64, 0
1, 44308, Note_on_c, 0, 53, 83
1, 44488, Control_c, 0, 64, 127
1, 45089, Note_on_c, 0, 68, 0
1, 45089, Note_on_c, 0, 61, 0
1, 45089, Note_on_c, 0, 56, 0
1, 45092, Note_on_c, 0, 61, 70
1, 45092, Note_on_c, 0, 65, 70
1, 45092, Note_on_c, 0, 68, 82
1, 45095, Note_on_c, 0, 53, 0
1, 45095, Note_on_c, 0, 41, 0
1, 45095, Note_on_c, 0, 37, 58
1, 45098, Note_on_c, 0, 49, 63
1, 45353, Note_on_c, 0, 68, 0
1, 45353, Note_on_c, 0, 65, 0
1, 45353, Note_on_c, 0, 61, 0
1, 45356, Note_on_c, 0, 63, 71
1, 45356, Note_on_c, 0, 60, 71
1, 45356, Note_on_c, 0, 68, 89
1, 45359, Note_on_c, 0, 49, 0
1, 45359, Note_on_c, 0, 37, 0
1, 45359, Note_on_c, 0, 39, 62
1, 45362, Note_on_c, 0, 51, 72
1, 45381, Control_c, 0, 64, 0
1, 45482, Control_c, 0, 64, 127
1, 45594, Note_on_c, 0, 68, 0
1, 45594, Note_on_c, 0, 66, 76
1, 45849, Note_on_c, 0, 66, 0
1, 45849, Note_on_c, 0, 60, 0
1, 45849, Note_on_c, 0, 63, 0
1, 45852, Note_on_c, 0, 56, 54
1, 45852, Note_on_c, 0, 61, 54
1, 45852, Note_on_c, 0, 65, 65
1, 45855, Note_on_c, 0, 51, 0
1, 45855, Note_on_c, 0, 39, 0
1, 45855, Note_on_c, 0, 41, 46
1, 45858, Note_on_c, 0, 53, 52
1, 45864, Control_c, 0, 64, 0
1, 45969, Control_c, 0, 64, 127
1, 46225, Control_c, 0, 64, 0
1, 46362, Note_on_c, 0, 65, 0
1, 46362, Note_on_c, 0, 61, 0
1, 46362, Note_on_c, 0, 56, 0
1, 46365, Note_on_c, 0, 54, 49
1, 46365, Note_on_c, 0, 58, 49
1, 46365, Note_on_c, 0, 63, 57
1, 46368, Note_on_c, 0, 53, 0
1, 46368, Note_on_c, 0, 41, 0
1, 46368, Note_on_c, 0, 42, 47
1, 46779, Control_c, 0, 64, 127
1, 47432, Note_on_c, 0, 63, 0
1, 47432, Note_on_c, 0, 58, 0
1, 47432, Note_on_c, 0, 54, 0
1, 47435, Note_on_c, 0, 48, 47
1, 47435, Note_on_c, 0, 51, 47
1, 47435, Note_on_c, 0, 56, 53
1, 47438, Note_on_c, 0, 42, 0
1, 47438, Note_on_c, 0, 44, 44
1, 47553, Control_c, 0, 64, 0
1, 48102, Control_c, 0, 64, 127
1, 48530, Note_on_c, 0, 56, 0
1, 48530, Note_on_c, 0, 51, 0
1, 48530, Note_on_c, 0, 48, 0
1, 48533, Note_on_c, 0, 49, 47
1, 48533, Note_on_c, 0, 53, 47
1, 48533, Note_on_c, 0, 61, 53
1, 48536, Control_c, 0, 64, 0
1, 48610, Control_c, 0, 64, 127
1, 48899, Note_on_c, 0, 44, 0
1, 48899, Note_on_c, 0, 42, 38
1, 49025, Note_on_c, 0, 42, 0
1, 49025, Note_on_c, 0, 41, 40
1, 49085, Control_c, 0, 64, 0
1, 49129, Control_c, 0, 64, 127
1, 49427, Note_on_c, 0, 41, 0
1, 49427, Note_on_c, 0, 39, 37
1, 49511, Control_c, 0, 64, 0
1, 49571, Note_on_c, 0, 39, 0
1, 49571, Note_on_c, 0, 37, 36
1, 49595, Control_c, 0, 64, 127
1, 49879, Control_c, 0, 64, 0
1, 50081, Note_on_c, 0, 61, 0
1, 50081, Note_on_c, 0, 53, 0
1, 50081, Note_on_c, 0, 49, 0
1, 50084, Note_on_c, 0, 37, 0
1, 50591, Note_on_c, 0, 48, 49
1, 50591, Note_on_c, 0, 51, 49
1, 50591, Note_on_c, 0, 56, 57
1, 50594, Note_on_c, 0, 42, 50
1, 50594, Control_c, 0, 64, 127
1, 50594, Note_on_c, 0, 44, 50
1, 51594, Control_c, 0, 64, 0
1, 51654, Note_on_c, 0, 56, 0
1, 51654, Note_on_c, 0, 51, 0
1, 51654, Note_on_c, 0, 48, 0
1, 51657, Note_on_c, 0, 48, 47
1, 51657, Note_on_c, 0, 54, 54
1, 51657, Note_on_c, 0, 56, 54
1, 51660, Note_on_c, 0, 44, 0
1, 51660, Note_on_c, 0, 42, 0
1, 51660, Note_on_c, 0, 39, 45
1, 51663, Note_on_c, 0, 44, 45
1, 51990, Control_c, 0, 64, 127
1, 52560, Note_on_c, 0, 56, 0
1, 52560, Note_on_c, 0, 54, 0
1, 52560, Note_on_c, 0, 48, 0
1, 52563, Note_on_c, 0, 48, 47
1, 52563, Note_on_c, 0, 51, 54
1, 52563, Note_on_c, 0, 56, 54
1, 52566, Note_on_c, 0, 44, 0
1, 52566, Note_on_c, 0, 39, 0
1, 52566, Note_on_c, 0, 42, 45
1, 52569, Note_on_c, 0, 44, 45
1, 52711, Note_on_c, 0, 56, 0
1, 52711, Note_on_c, 0, 51, 0
1, 52711, Note_on_c, 0, 48, 0
1, 52714, Note_on_c, 0, 49, 49
1, 52714, Note_on_c, 0, 53, 49
1, 52714, Note_on_c, 0, 56, 57
1, 52717, Note_on_c, 0, 44, 0
1, 52717, Note_on_c, 0, 42, 0
1, 52717, Note_on_c, 0, 41, 43
1, 52720, Control_c, 0, 64, 0
1, 52720, Note_on_c, 0, 44, 49
1, 52905, Control_c, 0, 64, 127
1, 53504, Note_on_c, 0, 56, 0
1, 53504, Note_on_c, 0, 53, 0
1, 53504, Note_on_c, 0, 49, 0
1, 53507, Note_on_c, 0, 53, 55
1, 53507, Note_on_c, 0, 56, 55
1, 53507, Note_on_c, 0, 61, 63
1, 53510, Note_on_c, 0, 44, 0
1, 53510, Note_on_c, 0, 41, 0
1, 53510, Note_on_c, 0, 37, 49
1, 53513, Note_on_c, 0, 44, 56
1, 53753, Note_on_c, 0, 61, 0
1, 53753, Note_on_c, 0, 56, 0
1, 53753, Note_on_c, 0, 53, 0
1, 53756, Note_on_c, 0, 56, 51
1, 53756, Note_on_c, 0, 54, 51
1, 53756, Note_on_c, 0, 60, 59
1, 53759, Note_on_c, 0, 44, 0
1, 53759, Note_on_c, 0, 37, 0
1, 53759, Note_on_c, 0, 39, 47
1, 53762, Note_on_c, 0, 44, 54
1, 53785, Control_c, 0, 64, 0
1, 53896, Control_c, 0, 64, 127
1, 54288, Note_on_c, 0, 60, 0
1, 54288, Note_on_c, 0, 54, 0
1, 54288, Note_on_c, 0, 56, 0
1, 54291, Note_on_c, 0, 53, 41
1, 54291, Note_on_c, 0, 56, 41
1, 54291, Note_on_c, 0, 61, 47
1, 54294, Note_on_c, 0, 44, 0
1, 54294, Note_on_c, 0, 39, 0
1, 54294, Note_on_c, 0, 37, 38
1, 54297, Note_on_c, 0, 44, 44
1, 54303, Control_c, 0, 64, 0
1, 54408, Control_c, 0, 64, 127
1, 54665, Control_c, 0, 64, 0
1, 54802, Note_on_c, 0, 61, 0
1, 54802, Note_on_c, 0, 56, 0
1, 54802, Note_on_c, 0, 53, 0
1, 54805, Note_on_c, 0, 48, 49
1, 54805, Note_on_c, 0, 51, 49
1, 54805, Note_on_c, 0, 56, 57
1, 54808, Note_on_c, 0, 44, 0
1, 54808, Note_on_c, 0, 37, 0
1, 54808, Note_on_c, 0, 42, 50
1, 54811, Control_c, 0, 64, 127
1, 54811, Note_on_c, 0, 44, 50
1, 55805, Control_c, 0, 64, 0
1, 55865, Note_on_c, 0, 56, 0
1, 55865, Note_on_c, 0, 51, 0
1, 55865, Note_on_c, 0, 48, 0
1, 55868, Note_on_c, 0, 48, 47
1, 55868, Note_on_c, 0, 54, 54
1, 55868, Note_on_c, 0, 56, 54
1, 55871, Note_on_c, 0, 44, 0
1, 55871, Note_on_c, 0, 42, 0
1, 55871, Note_on_c, 0, 39, 45
1, 55874, Note_on_c, 0, 44, 45
1, 56201, Control_c, 0, 64, 127
1, 56771, Note_on_c, 0, 56, 0
1, 56771, Note_on_c, 0, 54, 0
1, 56771, Note_on_c, 0, 48, 0
1, 56774, Note_on_c, 0, 48, 47
1, 56774, Note_on_c, 0, 51, 54
1, 56774, Note_on_c, 0, 56, 54
1, 56777, Note_on_c, 0, 44, 0
1, 56777, Note_on_c, 0, 39, 0
1, 56777, Note_on_c, 0, 42, 45
1, 56780, Note_on_c, 0, 44, 45
1, 56922, Note_on_c, 0, 56, 0
1, 56922, Note_on_c, 0, 51, 0
1, 56922, Note_on_c, 0, 48, 0
1, 56925, Note_on_c, 0, 49, 49
1, 56925, Note_on_c, 0, 53, 49
1, 56925, Note_on_c, 0, 56, 57
1, 56928, Note_on_c, 0, 44, 0
1, 56928, Note_on_c, 0, 42, 0
1, 56928, Note_on_c, 0, 41, 43
1, 56931, Control_c, 0, 64, 0
1, 56931, Note_on_c, 0, 44, 49
1, 57111, Control_c, 0, 64, 127
1, 57739, Note_on_c, 0, 56, 0
1, 57739, Note_on_c, 0, 53, 0
1, 57739, Note_on_c, 0, 49, 0
1, 57742, Note_on_c, 0, 53, 55
1, 57742, Note_on_c, 0, 56, 55
1, 57742, Note_on_c, 0, 65, 65
1, 57745, Note_on_c, 0, 44, 0
1, 57745, Note_on_c, 0, 41, 0
1, 57745, Note_on_c, 0, 37, 49
1, 57748, Note_on_c, 0, 44, 56
1, 58010, Note_on_c, 0, 65, 0
1, 58010, Note_on_c, 0, 56, 0
1, 58010, Note_on_c, 0, 53, 0
1, 58013, Note_on_c, 0, 56, 55
1, 58013, Note_on_c, 0, 54, 55
1, 58013, Note_on_c, 0, 65, 68
1, 58016, Note_on_c, 0, 44, 0
1, 58016, Note_on_c, 0, 37, 0
1, 58016, Note_on_c, 0, 36, 47
1, 58019, Note_on_c, 0, 44, 54
1, 58038, Control_c, 0, 64, 0
1, 58139, Control_c, 0, 64, 127
1, 58253, Note_on_c, 0, 65, 0
1, 58253, Note_on_c, 0, 63, 61
1, 58514, Note_on_c, 0, 63, 0
1, 58514, Note_on_c, 0, 54, 0
1, 58514, Note_on_c, 0, 56, 0
1, 58517, Note_on_c, 0, 53, 41
1, 58517, Note_on_c, 0, 56, 41
1, 58517, Note_on_c, 0, 61, 47
1, 58520, Note_on_c, 0, 44, 0
1, 58520, Note_on_c, 0, 36, 0
1, 58520, Note_on_c, 0, 37, 38
1, 58523, Note_on_c, 0, 44, 44
1, 58530, Control_c, 0, 64, 0
1, 58642, Control_c, 0, 64, 127
1, 58917, Control_c, 0, 64, 0
1, 59063, Note_on_c, 0, 61, 0
1, 59063, Note_on_c, 0, 56, 0
1, 59063, Note_on_c, 0, 53, 0
1, 59066, Note_on_c, 0, 48, 56
1, 59066, Note_on_c, 0, 51, 56
1, 59066, Note_on_c, 0, 56, 66
1, 59069, Note_on_c, 0, 44, 0
1, 59069, Note_on_c, 0, 37, 0
1, 59069, Note_on_c, 0, 42, 58
1, 59072, Control_c, 0, 64, 127
1, 59072, Note_on_c, 0, 44, 58
1, 60066, Control_c, 0, 64, 0
1, 60126, Note_on_c, 0, 56, 0
1, 60126, Note_on_c, 0, 51, 0
1, 60126, Note_on_c, 0, 48, 0
1, 60129, Note_on_c, 0, 48, 62
1, 60129, Note_on_c, 0, 54, 72
1, 60129, Note_on_c, 0, 56, 72
1, 60132, Note_on_c, 0, 44, 0
1, 60132, Note_on_c, 0, 42, 0
1, 60132, Note_on_c, 0, 39, 59
1, 60135, Note_on_c, 0, 44, 59
1, 60492, Control_c, 0, 64, 127
1, 61103, Note_on_c, 0, 56, 0
1, 61103, Note_on_c, 0, 54, 0
1, 61103, Note_on_c, 0, 48, 0
1, 61106, Note_on_c, 0, 48, 67
1, 61106, Note_on_c, 0, 51, 78
1, 61106, Note_on_c, 0, 56, 78
1, 61109, Note_on_c, 0, 44, 0
1, 61109, Note_on_c, 0, 39, 0
1, 61109, Note_on_c, 0, 42, 65
1, 61112, Note_on_c, 0, 44, 65
1, 61257, Note_on_c, 0, 56, 0
1, 61257, Note_on_c, 0, 51, 0
1, 61257, Note_on_c, 0, 48, 0
1, 61260, Note_on_c, 0, 56, 80
1, 61260, Note_on_c, 0, 61, 80
1, 61260, Note_on_c, 0, 68, 97
1, 61263, Note_on_c, 0, 44, 0
1, 61263, Note_on_c, 0, 42, 0
1, 61263, Note_on_c, 0, 41, 83
1, 61266, Control_c, 0, 64, 0
1, 61266, Note_on_c, 0, 53, 83
1, 61461, Control_c, 0, 64, 127
1, 62086, Note_on_c, 0, 68, 0
1, 62086, Note_on_c, 0, 61, 0
1, 62086, Note_on_c, 0, 56, 0
1, 62089, Note_on_c, 0, 61, 71
1, 62089, Note_on_c, 0, 65, 71
1, 62089, Note_on_c, 0, 68, 83
1, 62092, Note_on_c, 0, 53, 0
1, 62092, Note_on_c, 0, 41, 0
1, 62092, Note_on_c, 0, 37, 59
1, 62095, Note_on_c, 0, 49, 65
1, 62351, Note_on_c, 0, 68, 0
1, 62351, Note_on_c, 0, 65, 0
1, 62351, Note_on_c, 0, 61, 0
1, 62354, Note_on_c, 0, 63, 71
1, 62354, Note_on_c, 0, 60, 71
1, 62354, Note_on_c, 0, 68, 89
1, 62357, Note_on_c, 0, 49, 0
1, 62357, Note_on_c, 0, 37, 0
1, 62357, Note_on_c, 0, 39, 62
1, 62360, Note_on_c, 0, 51, 72
1, 62379, Control_c, 0, 64, 0
1, 62479, Control_c, 0, 64, 127
1, 62591, Note_on_c, 0, 68, 0
1, 62591, Note_on_c, 0, 66, 76
1, 62846, Note_on_c, 0, 66, 0
1, 62846, Note_on_c, 0, 60, 0
1, 62846, Note_on_c, 0, 63, 0
1, 62849, Note_on_c, 0, 56, 54
1, 62849, Note_on_c, 0, 61, 54
1, 62849, Note_on_c, 0, 65, 65
1, 62852, Note_on_c, 0, 51, 0
1, 62852, Note_on_c, 0, 39, 0
1, 62852, Note_on_c, 0, 41, 46
1, 62855, Note_on_c, 0, 53, 52
1, 62861, Control_c, 0, 64, 0
1, 62966, Control_c, 0, 64, 127
1, 63223, Control_c, 0, 64, 0
1, 63359, Note_on_c, 0, 65, 0
1, 63359, Note_on_c, 0, 61, 0
1, 63359, Note_on_c, 0, 56, 0
1, 63362, Note_on_c, 0, 54, 49
1, 63362, Note_on_c, 0, 58, 49
1, 63362, Note_on_c, 0, 63, 57
1, 63365, Note_on_c, 0, 53, 0
1, 63365, Note_on_c, 0, 41, 0
1, 63365, Note_on_c, 0, 42, 47
1, 63776, Control_c, 0, 64, 127
1, 64430, Note_on_c, 0, 63, 0
1, 64430, Note_on_c, 0, 58, 0
1, 64430, Note_on_c, 0, 54, 0
1, 64433, Note_on_c, 0, 48, 47
1, 64433, Note_on_c, 0, 51, 47
1, 64433, Note_on_c, 0, 56, 53
1, 64436, Note_on_c, 0, 42, 0
1, 64436, Note_on_c, 0, 44, 44
1, 64551, Control_c, 0, 64, 0
1, 65100, Control_c, 0, 64, 127
1, 65528, Note_on_c, 0, 56, 0
1, 65528, Note_on_c, 0, 51, 0
1, 65528, Note_on_c, 0, 48, 0
1, 65531, Note_on_c, 0, 49, 47
1, 65531, Note_on_c, 0, 53, 47
1, 65531, Note_on_c, 0, 61, 53
1, 65534, Control_c, 0, 64, 0
1, 65608, Control_c, 0, 64, 127
1, 65897, Note_on_c, 0, 44, 0
1, 65897, Note_on_c, 0, 42, 38
1, 66023, Note_on_c, 0, 42, 0
1, 66023, Note_on_c, 0, 41, 40
1, 66082, Control_c, 0, 64, 0
1, 66127, Control_c, 0, 64, 127
1, 66424, Note_on_c, 0, 41, 0
1, 66424, Note_on_c, 0, 39, 38
1, 66508, Control_c, 0, 64, 0
1, 66569, Note_on_c, 0, 39, 0
1, 66569, Note_on_c, 0, 37, 36
1, 66592, Control_c, 0, 64, 127
1, 66877, Control_c, 0, 64, 0
1, 67078, Note_on_c, 0, 61, 0
1, 67078, Note_on_c, 0, 53, 0
1, 67078, Note_on_c, 0, 49, 0
1, 67081, Note_on_c, 0, 37, 0
1, 67588, Note_on_c, 0, 49, 49
1, 67588, Note_on_c, 0, 53, 49
1, 67588, Note_on_c, 0, 56, 57
1, 67591, Control_c, 0, 64, 127
1, 68075, Note_on_c, 0, 56, 0
1, 68075, Note_on_c, 0, 53, 0
1, 68075, Note_on_c, 0, 49, 0
1, 68078, Note_on_c, 0, 37, 50
1, 68603, Note_on_c, 0, 49, 47
1, 68603, Note_on_c, 0, 54, 47
1, 68603, Note_on_c, 0, 58, 54
1, 68722, Control_c, 0, 64, 0
1, 69009, Control_c, 0, 64, 127
1, 69095, Note_on_c, 0, 58, 0
1, 69095, Note_on_c, 0, 54, 0
1, 69095, Note_on_c, 0, 49, 0
1, 69098, Note_on_c, 0, 37, 0
1, 69098, Note_on_c, 0, 30, 41
1, 69605, Note_on_c, 0, 49, 49
1, 69605, Note_on_c, 0, 53, 49
1, 69605, Note_on_c, 0, 56, 57
1, 69608, Control_c, 0, 64, 0
1, 69778, Control_c, 0, 64, 127
1, 70075, Note_on_c, 0, 56, 0
1, 70075, Note_on_c, 0, 53, 0
1, 70075, Note_on_c, 0, 49, 0
1, 70078, Note_on_c, 0, 30, 0
1, 70078, Note_on_c, 0, 32, 49
1, 70556, Note_on_c, 0, 49, 47
1, 70556, Note_on_c, 0, 51, 47
1, 70556, Note_on_c, 0, 58, 54
1, 70763, Control_c, 0, 64, 0
1, 70923, Control_c, 0, 64, 127
1, 71038, Note_on_c, 0, 58, 0
1, 71038, Note_on_c, 0, 51, 0
1, 71038, Note_on_c, 0, 49, 0
1, 71041, Note_on_c, 0, 32, 0
1, 71041, Note_on_c, 0, 31, 45
1, 71535, Note_on_c, 0, 49, 49
1, 71535, Note_on_c, 0, 51, 49
1, 71535, Note_on_c, 0, 56, 57
1, 71627, Control_c, 0, 64, 0
1, 71740, Control_c, 0, 64, 127
1, 72011, Note_on_c, 0, 56, 0
1, 72011, Note_on_c, 0, 51, 0
1, 72011, Note_on_c, 0, 49, 0
1, 72014, Note_on_c, 0, 31, 0
1, 72014, Note_on_c, 0, 32, 50
1, 72509, Note_on_c, 0, 48, 48
1, 72509, Note_on_c, 0, 51, 48
1, 72509, Note_on_c, 0, 56, 56
1, 72565, Control_c, 0, 64, 0
1, 72643, Control_c, 0, 64, 127
1, 72990, Note_on_c, 0, 56, 0
1, 72990, Note_on_c, 0, 51, 0
1, 72990, Note_on_c, 0, 48, 0
1, 72993, Note_on_c, 0, 32, 0
1, 72993, Note_on_c, 0, 42, 48
1, 73453, Note_on_c, 0, 54, 48
1, 73453, Control_c, 0, 64, 0
1, 73536, Control_c, 0, 64, 127
1, 73670, Note_on_c, 0, 54, 0
1, 73670, Note_on_c, 0, 41, 41
1, 73779, Note_on_c, 0, 42, 0
1, 73889, Note_on_c, 0, 53, 47
1, 74112, Note_on_c, 0, 53, 0
1, 74112, Note_on_c, 0, 41, 0
1, 74112, Note_on_c, 0, 39, 39
1, 74338, Note_on_c, 0, 51, 46
1, 74364, Control_c, 0, 64, 0
1, 74412, Control_c, 0, 64, 127
1, 74567, Note_on_c, 0, 51, 0
1, 74567, Note_on_c, 0, 39, 0
1, 74567, Note_on_c, 0, 37, 38
1, 74799, Note_on_c, 0, 49, 45
1, 74834, Control_c, 0, 64, 0
1, 74889, Control_c, 0, 64, 127
1, 75034, Note_on_c, 0, 49, 0
1, 75034, Note_on_c, 0, 37, 0
1, 75034, Note_on_c, 0, 36, 36
1, 75270, Note_on_c, 0, 53, 50
1, 75270, Note_on_c, 0, 56, 50
1, 75270, Note_on_c, 0, 61, 59
1, 75273, Control_c, 0, 64, 0
1, 75543, Control_c, 0, 64, 127
1, 75735, Note_on_c, 0, 61, 0
1, 75735, Note_on_c, 0, 56, 0
1, 75735, Note_on_c, 0, 53, 0
1, 75738, Note_on_c, 0, 36, 0
1, 75738, Note_on_c, 0, 37, 52
1, 76233, Note_on_c, 0, 54, 48
1, 76233, Note_on_c, 0, 58, 56
1, 76233, Note_on_c, 0, 61, 56
1, 76487, Control_c, 0, 64, 0
1, 76714, Note_on_c, 0, 61, 0
1, 76714, Note_on_c, 0, 58, 0
1, 76714, Note_on_c, 0, 54, 0
1, 76717, Note_on_c, 0, 37, 0
1, 76717, Control_c, 0, 64, 127
1, 76717, Note_on_c, 0, 42, 42
1, 77224, Note_on_c, 0, 53, 50
1, 77224, Note_on_c, 0, 56, 50
1, 77224, Note_on_c, 0, 61, 59
1, 77227, Control_c, 0, 64, 0
1, 77396, Control_c, 0, 64, 127
1, 77694, Note_on_c, 0, 61, 0
1, 77694, Note_on_c, 0, 56, 0
1, 77694, Note_on_c, 0, 53, 0
1, 77697, Note_on_c, 0, 42, 0
1, 77697, Note_on_c, 0, 44, 50
1, 78175, Note_on_c, 0, 52, 48
1, 78175, Note_on_c, 0, 55, 48
1, 78175, Note_on_c, 0, 61, 56
1, 78381, Control_c, 0, 64, 0
1, 78542, Control_c, 0, 64, 127
1, 78656, Note_on_c, 0, 61, 0
1, 78656, Note_on_c, 0, 55, 0
1, 78656, Note_on_c, 0, 52, 0
1, 78659, Note_on_c, 0, 44, 0
1, 78659, Note_on_c, 0, 45, 46
1, 79154, Note_on_c, 0, 51, 49
1, 79154, Note_on_c, 0, 54, 49
1, 79154, Note_on_c, 0, 61, 57
1, 79245, Control_c, 0, 64, 0
1, 79358, Control_c, 0, 64, 127
1, 79630, Note_on_c, 0, 61, 0
1, 79630, Note_on_c, 0, 54, 0
1, 79630, Note_on_c, 0, 51, 0
1, 79633, Note_on_c, 0, 45, 0
1, 79633, Note_on_c, 0, 44, 50
1, 80128, Note_on_c, 0, 51, 48
1, 80128, Note_on_c, 0, 54, 48
1, 80128, Note_on_c, 0, 60, 56
1, 80184, Control_c, 0, 64, 0
1, 80262, Control_c, 0, 64, 127
1, 80609, Note_on_c, 0, 60, 0
1, 80609, Note_on_c, 0, 54, 0
1, 80609, Note_on_c, 0, 51, 0
1, 80612, Note_on_c, 0, 44, 0
1, 80612, Note_on_c, 0, 32, 48
1, 81071, Note_on_c, 0, 49, 45
1, 81071, Note_on_c, 0, 53, 45
1, 81071, Note_on_c, 0, 61, 52
1, 81074, Control_c, 0, 64, 0
1, 81154, Control_c, 0, 64, 127
1, 81288, Note_on_c, 0, 61, 0
1, 81288, Note_on_c, 0, 53, 0
1, 81288, Note_on_c, 0, 49, 0
1, 81291, Note_on_c, 0, 37, 44
1, 81397, Note_on_c, 0, 32, 0
1, 81508, Note_on_c, 0, 56, 49
1, 81730, Note_on_c, 0, 56, 0
1, 81730, Note_on_c, 0, 37, 0
1, 81730, Note_on_c, 0, 44, 40
1, 81956, Note_on_c, 0, 53, 52
1, 81983, Control_c, 0, 64, 0
1, 82030, Control_c, 0, 64, 127
1, 82185, Note_on_c, 0, 53, 0
1, 82185, Note_on_c, 0, 44, 0
1, 82185, Note_on_c, 0, 41, 44
1, 82418, Note_on_c, 0, 51, 49
1, 82453, Control_c, 0, 64, 0
1, 82508, Control_c, 0, 64, 127
1, 82654, Note_on_c, 0, 51, 0
1, 82654, Note_on_c, 0, 41, 0
1, 82654, Note_on_c, 0, 39, 41
1, 82892, Note_on_c, 0, 49, 49
1, 82892, Note_on_c, 0, 53, 49
1, 82892, Note_on_c, 0, 56, 57
1, 82895, Control_c, 0, 64, 0
1, 83031, Control_c, 0, 64, 127
1, 83364, Note_on_c, 0, 56, 0
1, 83364, Note_on_c, 0, 53, 0
1, 83364, Note_on_c, 0, 49, 0
1, 83367, Note_on_c, 0, 39, 0
1, 83367, Note_on_c, 0, 37, 50
1, 83853, Note_on_c, 0, 49, 47
1, 83853, Note_on_c, 0, 54, 47
1, 83853, Note_on_c, 0, 58, 54
1, 83990, Control_c, 0, 64, 0
1, 84162, Control_c, 0, 64, 127
1, 84316, Note_on_c, 0, 58, 0
1, 84316, Note_on_c, 0, 54, 0
1, 84316, Note_on_c, 0, 49, 0
1, 84319, Note_on_c, 0, 37, 0
1, 84319, Note_on_c, 0, 30, 41
1, 84804, Note_on_c, 0, 49, 49
1, 84804, Note_on_c, 0, 53, 49
1, 84804, Note_on_c, 0, 56, 57
1, 84807, Control_c, 0, 64, 0
1, 84972, Control_c, 0, 64, 127
1, 85263, Note_on_c, 0, 56, 0
1, 85263, Note_on_c, 0, 53, 0
1, 85263, Note_on_c, 0, 49, 0
1, 85266, Note_on_c, 0, 30, 0
1, 85266, Note_on_c, 0, 32, 49
1, 85736, Note_on_c, 0, 49, 47
1, 85736, Note_on_c, 0, 51, 47
1, 85736, Note_on_c, 0, 58, 54
1, 85939, Control_c, 0, 64, 0
1, 86096, Control_c, 0, 64, 127
1, 86209, Note_on_c, 0, 58, 0
1, 86209, Note_on_c, 0, 51, 0
1, 86209, Note_on_c, 0, 49, 0
1, 86212, Note_on_c, 0, 32, 0
1, 86212, Note_on_c, 0, 31, 45
1, 86707, Note_on_c, 0, 49, 49
1, 86707, Note_on_c, 0, 51, 49
1, 86707, Note_on_c, 0, 56, 57
1, 86798, Control_c, 0, 64, 0
1, 86911, Control_c, 0, 64, 127
1, 87182, Note_on_c, 0, 56, 0
1, 87182, Note_on_c, 0, 51, 0
1, 87182, Note_on_c, 0, 49, 0
1, 87185, Note_on_c, 0, 31, 0
1, 87185, Note_on_c, 0, 32, 50
1, 87671, Note_on_c, 0, 48, 48
1, 87671, Note_on_c, 0, 51, 48
1, 87671, Note_on_c, 0, 56, 56
1, 87726, Control_c, 0, 64, 0
1, 87803, Control_c, 0, 64, 127
1, 88144, Note_on_c, 0, 56, 0
1, 88144, Note_on_c, 0, 51, 0
1, 88144, Note_on_c, 0, 48, 0
1, 88147, Note_on_c, 0, 32, 0
1, 88147, Note_on_c, 0, 42, 48
1, 88606, Note_on_c, 0, 54, 49
1, 88606, Control_c, 0, 64, 0
1, 88688, Control_c, 0, 64, 127
1, 88820, Note_on_c, 0, 54, 0
1, 88820, Note_on_c, 0, 41, 41
1, 88928, Note_on_c, 0, 42, 0
1, 89036, Note_on_c, 0, 53, 48
1, 89254, Note_on_c, 0, 53, 0
1, 89254, Note_on_c, 0, 41, 0
1, 89254, Note_on_c, 0, 39, 40
1, 89474, Note_on_c, 0, 51, 48
1, 89500, Control_c, 0, 64, 0
1, 89547, Control_c, 0, 64, 127
1, 89700, Note_on_c, 0, 51, 0
1, 89700, Note_on_c, 0, 39, 0
1, 89700, Note_on_c, 0, 37, 39
1, 89928, Note_on_c, 0, 49, 47
1, 89964, Control_c, 0, 64, 0
1, 90019, Control_c, 0, 64, 127
1, 90164, Note_on_c, 0, 49, 0
1, 90164, Note_on_c, 0, 37, 0
1, 90164, Note_on_c, 0, 36, 38
1, 90399, Note_on_c, 0, 53, 50
1, 90399, Note_on_c, 0, 56, 50
1, 90399, Note_on_c, 0, 61, 59
1, 90402, Control_c, 0, 64, 0
1, 90672, Control_c, 0, 64, 127
1, 90864, Note_on_c, 0, 61, 0
1, 90864, Note_on_c, 0, 56, 0
1, 90864, Note_on_c, 0, 53, 0
1, 90867, Note_on_c, 0, 36, 0
1, 90867, Note_on_c, 0, 37, 52
1, 91347, Note_on_c, 0, 54, 48
1, 91347, Note_on_c, 0, 58, 56
1, 91347, Note_on_c, 0, 61, 56
1, 91595, Control_c, 0, 64, 0
1, 91815, Note_on_c, 0, 61, 0
1, 91815, Note_on_c, 0, 58, 0
1, 91815, Note_on_c, 0, 54, 0
1, 91818, Note_on_c, 0, 37, 0
1, 91818, Control_c, 0, 64, 127
1, 91818, Note_on_c, 0, 42, 42
1, 92304, Note_on_c, 0, 53, 50
1, 92304, Note_on_c, 0, 56, 50
1, 92304, Note_on_c, 0, 61, 59
1, 92307, Control_c, 0, 64, 0
1, 92472, Control_c, 0, 64, 127
1, 92762, Note_on_c, 0, 61, 0
1, 92762, Note_on_c, 0, 56, 0
1, 92762, Note_on_c, 0, 53, 0
1, 92765, Note_on_c, 0, 42, 0
1, 92765, Note_on_c, 0, 44, 50
1, 93235, Note_on_c, 0, 52, 48
1, 93235, Note_on_c, 0, 55, 48
1, 93235, Note_on_c, 0, 61, 56
1, 93438, Control_c, 0, 64, 0
1, 93596, Control_c, 0, 64, 127
1, 93708, Note_on_c, 0, 61, 0
1, 93708, Note_on_c, 0, 55, 0
1, 93708, Note_on_c, 0, 52, 0
1, 93711, Note_on_c, 0, 44, 0
1, 93711, Note_on_c, 0, 45, 46
1, 94206, Note_on_c, 0, 51, 49
1, 94206, Note_on_c, 0, 54, 49
1, 94206, Note_on_c, 0, 61, 57
1, 94296, Control_c, 0, 64, 0
1, 94407, Control_c, 0, 64, 127
1, 94674, Note_on_c, 0, 61, 0
1, 94674, Note_on_c, 0, 54, 0
1, 94674, Note_on_c, 0, 51, 0
1, 94677, Note_on_c, 0, 45, 0
1, 94677, Note_on_c, 0, 44, 50
1, 95172, Note_on_c, 0, 51, 48
1, 95172, Note_on_c, 0, 54, 48
1, 95172, Note_on_c, 0, 60, 56
1, 95228, Control_c, 0, 64, 0
1, 95306, Control_c, 0, 64, 127
1, 95653, Note_on_c, 0, 60, 0
1, 95653, Note_on_c, 0, 54, 0
1, 95653, Note_on_c, 0, 51, 0
1, 95656, Note_on_c, 0, 44, 0
1, 95656, Note_on_c, 0, 32, 48
1, 96115, Note_on_c, 0, 49, 45
1, 96115, Note_on_c, 0, 53, 45
1, 96115, Note_on_c, 0, 61, 52
1, 96118, Control_c, 0, 64, 0
1, 96198, Control_c, 0, 64, 127
1, 96332, Note_on_c, 0, 61, 0
1, 96332, Note_on_c, 0, 53, 0
1, 96332, Note_on_c, 0, 49, 0
1, 96335, Note_on_c, 0, 37, 44
1, 96442, Note_on_c, 0, 32, 0
1, 96552, Note_on_c, 0, 56, 49
1, 96775, Note_on_c, 0, 56, 0
1, 96775, Note_on_c, 0, 37, 0
1, 96775, Note_on_c, 0, 44, 40
1, 97001, Note_on_c, 0, 53, 52
1, 97027, Control_c, 0, 64, 0
1, 97075, Control_c, 0, 64, 127
1, 97230, Note_on_c, 0, 53, 0
1, 97230, Note_on_c, 0, 44, 0
1, 97230, Note_on_c, 0, 41, 44
1, 97462, Note_on_c, 0, 49, 49
1, 97497, Control_c, 0, 64, 0
1, 97552, Control_c, 0, 64, 127
1, 97697, Note_on_c, 0, 49, 0
1, 97697, Note_on_c, 0, 41, 0
1, 97697, Note_on_c, 0, 37, 41
1, 97932, Note_on_c, 0, 48, 49
1, 97932, Note_on_c, 0, 51, 49
1, 97932, Note_on_c, 0, 56, 57
1, 97935, Note_on_c, 0, 37, 0
1, 98019, Control_c, 0, 64, 0
1, 98126, Control_c, 0, 64, 127
1, 98383, Note_on_c, 0, 56, 0
1, 98383, Note_on_c, 0, 51, 0
1, 98383, Note_on_c, 0, 48, 0
1, 98386, Note_on_c, 0, 42, 50
1, 98859, Note_on_c, 0, 48, 48
1, 98859, Note_on_c, 0, 51, 48
1, 98859, Note_on_c, 0, 56, 56
1, 98912, Control_c, 0, 64, 0
1, 98986, Control_c, 0, 64, 127
1, 99314, Note_on_c, 0, 56, 0
1, 99314, Note_on_c, 0, 51, 0
1, 99314, Note_on_c, 0, 48, 0
1, 99317, Note_on_c, 0, 42, 0
1, 99317, Note_on_c, 0, 66, 67
1, 99763, Note_on_c, 0, 49, 52
1, 99763, Note_on_c, 0, 53, 52
1, 99763, Note_on_c, 0, 56, 52
1, 99766, Control_c, 0, 64, 0
1, 99846, Control_c, 0, 64, 127
1, 99980, Note_on_c, 0, 66, 0
1, 99980, Note_on_c, 0, 65, 48
1, 100199, Note_on_c, 0, 56, 0
1, 100199, Note_on_c, 0, 53, 0
1, 100199, Note_on_c, 0, 49, 0
1, 100202, Note_on_c, 0, 53, 55
1, 100202, Note_on_c, 0, 65, 0
1, 100417, Note_on_c, 0, 53, 0
1, 100417, Note_on_c, 0, 49, 48
1, 100636, Note_on_c, 0, 54, 62
1, 100636, Note_on_c, 0, 49, 0
1, 100661, Control_c, 0, 64, 0
1, 100707, Control_c, 0, 64, 127
1, 100854, Note_on_c, 0, 54, 0
1, 100854, Note_on_c, 0, 51, 55
1, 101072, Note_on_c, 0, 56, 64
1, 101072, Note_on_c, 0, 51, 0
1, 101105, Control_c, 0, 64, 0
1, 101156, Control_c, 0, 64, 127
1, 101291, Note_on_c, 0, 56, 0
1, 101291, Note_on_c, 0, 53, 55
1, 101509, Note_on_c, 0, 48, 60
1, 101509, Note_on_c, 0, 51, 60
1, 101509, Note_on_c, 0, 56, 71
1, 101512, Note_on_c, 0, 53, 0
1, 101596, Control_c, 0, 64, 0
1, 101703, Control_c, 0, 64, 127
1, 101960, Note_on_c, 0, 56, 0
1, 101960, Note_on_c, 0, 51, 0
1, 101960, Note_on_c, 0, 48, 0
1, 101963, Note_on_c, 0, 42, 69
1, 102436, Note_on_c, 0, 51, 59
1, 102436, Note_on_c, 0, 56, 59
1, 102436, Note_on_c, 0, 60, 70
1, 102489, Control_c, 0, 64, 0
1, 102563, Control_c, 0, 64, 127
1, 102891, Note_on_c, 0, 60, 0
1, 102891, Note_on_c, 0, 56, 0
1, 102891, Note_on_c, 0, 51, 0
1, 102894, Note_on_c, 0, 42, 0
1, 102894, Note_on_c, 0, 68, 73
1, 102894, Note_on_c, 0, 66, 62
1, 103340, Note_on_c, 0, 53, 70
1, 103340, Note_on_c, 0, 56, 70
1, 103340, Note_on_c, 0, 61, 70
1, 103343, Control_c, 0, 64, 0
1, 103423, Control_c, 0, 64, 127
1, 103556, Note_on_c, 0, 66, 0
1, 103556, Note_on_c, 0, 68, 0
1, 103556, Note_on_c, 0, 65, 70
1, 103773, Note_on_c, 0, 61, 0
1, 103773, Note_on_c, 0, 56, 0
1, 103773, Note_on_c, 0, 53, 0
1, 103776, Note_on_c, 0, 56, 77
1, 103776, Note_on_c, 0, 65, 0
1, 103989, Note_on_c, 0, 56, 0
1, 103989, Note_on_c, 0, 53, 65
1, 103989, Note_on_c, 0, 49, 55
1, 104205, Note_on_c, 0, 60, 83
1, 104205, Note_on_c, 0, 49, 0
1, 104205, Note_on_c, 0, 53, 0
1, 104230, Control_c, 0, 64, 0
1, 104275, Control_c, 0, 64, 127
1, 104421, Note_on_c, 0, 60, 0
1, 104421, Note_on_c, 0, 54, 73
1, 104421, Note_on_c, 0, 51, 62
1, 104637, Note_on_c, 0, 61, 85
1, 104637, Note_on_c, 0, 51, 0
1, 104637, Note_on_c, 0, 54, 0
1, 104670, Control_c, 0, 64, 0
1, 104720, Control_c, 0, 64, 127
1, 104854, Note_on_c, 0, 61, 0
1, 104854, Note_on_c, 0, 56, 72
1, 104854, Note_on_c, 0, 53, 61
1, 105090, Note_on_c, 0, 53, 0
1, 105090, Note_on_c, 0, 56, 0
1, 105094, Note_on_c, 0, 48, 87
1, 105094, Note_on_c, 0, 51, 87
1, 105094, Note_on_c, 0, 56, 101
1, 105181, Control_c, 0, 64, 0
1, 105288, Control_c, 0, 64, 127
1, 105545, Note_on_c, 0, 56, 0
1, 105545, Note_on_c, 0, 51, 0
1, 105545, Note_on_c, 0, 48, 0
1, 105548, Note_on_c, 0, 30, 71
1, 105548, Note_on_c, 0, 42, 83
1, 106021, Note_on_c, 0, 54, 67
1, 106021, Note_on_c, 0, 60, 67
1, 106021, Note_on_c, 0, 63, 94
1, 106074, Control_c, 0, 64, 0
1, 106148, Control_c, 0, 64, 127
1, 106476, Note_on_c, 0, 63, 0
1, 106476, Note_on_c, 0, 60, 0
1, 106476, Note_on_c, 0, 54, 0
1, 106479, Note_on_c, 0, 42, 0
1, 106479, Note_on_c, 0, 30, 0
1, 106479, Note_on_c, 0, 75, 95
1, 106482, Note_on_c, 0, 72, 68
1, 106925, Note_on_c, 0, 53, 84
1, 106925, Note_on_c, 0, 61, 84
1, 106925, Note_on_c, 0, 65, 99
1, 106928, Control_c, 0, 64, 0
1, 107008, Control_c, 0, 64, 127
1, 107141, Note_on_c, 0, 72, 0
1, 107141, Note_on_c, 0, 75, 0
1, 107141, Note_on_c, 0, 73, 71
1, 107144, Note_on_c, 0, 77, 82
1, 107358, Note_on_c, 0, 65, 0
1, 107358, Note_on_c, 0, 61, 0
1, 107358, Note_on_c, 0, 53, 0
1, 107361, Note_on_c, 0, 65, 83
1, 107361, Note_on_c, 0, 53, 71
1, 107361, Note_on_c, 0, 77, 0
1, 107364, Note_on_c, 0, 73, 0
1, 107574, Note_on_c, 0, 53, 0
1, 107574, Note_on_c, 0, 65, 0
1, 107574, Note_on_c, 0, 49, 76
1, 107577, Note_on_c, 0, 37, 65
1, 107790, Note_on_c, 0, 66, 88
1, 107790, Note_on_c, 0, 54, 76
1, 107790, Note_on_c, 0, 37, 0
1, 107793, Note_on_c, 0, 49, 0
1, 107815, Control_c, 0, 64, 0
1, 107860, Control_c, 0, 64, 127
1, 108006, Note_on_c, 0, 54, 0
1, 108006, Note_on_c, 0, 66, 0
1, 108006, Note_on_c, 0, 51, 80
1, 108009, Note_on_c, 0, 39, 68
1, 108222, Note_on_c, 0, 68, 85
1, 108222, Note_on_c, 0, 56, 75
1, 108222, Note_on_c, 0, 39, 0
1, 108225, Note_on_c, 0, 51, 0
1, 108255, Control_c, 0, 64, 0
1, 108305, Control_c, 0, 64, 127
1, 108439, Note_on_c, 0, 56, 0
1, 108439, Note_on_c, 0, 68, 0
1, 108439, Note_on_c, 0, 53, 76
1, 108442, Note_on_c, 0, 41, 55
1, 108690, Note_on_c, 0, 58, 68
1, 108690, Note_on_c, 0, 70, 68
1, 108779, Control_c, 0, 64, 0
1, 108888, Control_c, 0, 64, 127
1, 109148, Note_on_c, 0, 70, 0
1, 109148, Note_on_c, 0, 58, 0
1, 109148, Note_on_c, 0, 41, 0
1, 109151, Note_on_c, 0, 53, 0
1, 109151, Note_on_c, 0, 42, 52
1, 109623, Note_on_c, 0, 48, 48
1, 109623, Note_on_c, 0, 51, 48
1, 109623, Note_on_c, 0, 56, 56
1, 109677, Control_c, 0, 64, 0
1, 109752, Control_c, 0, 64, 127
1, 110084, Note_on_c, 0, 56, 0
1, 110084, Note_on_c, 0, 51, 0
1, 110084, Note_on_c, 0, 48, 0
1, 110087, Note_on_c, 0, 42, 0
1, 110087, Note_on_c, 0, 44, 48
1, 110524, Note_on_c, 0, 54, 50
1, 110524, Control_c, 0, 64, 0
1, 110607, Control_c, 0, 64, 127
1, 110741, Note_on_c, 0, 54, 0
1, 110741, Note_on_c, 0, 42, 41
1, 110850, Note_on_c, 0, 44, 0
1, 110961, Note_on_c, 0, 53, 49
1, 111183, Note_on_c, 0, 53, 0
1, 111183, Note_on_c, 0, 42, 0
1, 111183, Note_on_c, 0, 41, 40
1, 111409, Note_on_c, 0, 51, 48
1, 111436, Control_c, 0, 64, 0
1, 111483, Control_c, 0, 64, 127
1, 111638, Note_on_c, 0, 51, 0
1, 111638, Note_on_c, 0, 41, 0
1, 111638, Note_on_c, 0, 39, 38
1, 111871, Note_on_c, 0, 49, 47
1, 111906, Control_c, 0, 64, 0
1, 111961, Control_c, 0, 64, 127
1, 112106, Note_on_c, 0, 49, 0
1, 112106, Note_on_c, 0, 39, 0
1, 112106, Note_on_c, 0, 37, 37
1, 112341, Note_on_c, 0, 48, 49
1, 112341, Note_on_c, 0, 51, 49
1, 112341, Note_on_c, 0, 56, 57
1, 112344, Note_on_c, 0, 37, 0
1, 112428, Control_c, 0, 64, 0
1, 112535, Control_c, 0, 64, 127
1, 112792, Note_on_c, 0, 56, 0
1, 112792, Note_on_c, 0, 51, 0
1, 112792, Note_on_c, 0, 48, 0
1, 112795, Note_on_c, 0, 42, 50
1, 113267, Note_on_c, 0, 48, 48
1, 113267, Note_on_c, 0, 51, 48
1, 113267, Note_on_c, 0, 56, 56
1, 113321, Control_c, 0, 64, 0
1, 113395, Control_c, 0, 64, 127
1, 113723, Note_on_c, 0, 56, 0
1, 113723, Note_on_c, 0, 51, 0
1, 113723, Note_on_c, 0, 48, 0
1, 113726, Note_on_c, 0, 42, 0
1, 113726, Note_on_c, 0, 66, 67
1, 114172, Note_on_c, 0, 49, 52
1, 114172, Note_on_c, 0, 53, 52
1, 114172, Note_on_c, 0, 56, 52
1, 114175, Control_c, 0, 64, 0
1, 114255, Control_c, 0, 64, 127
1, 114389, Note_on_c, 0, 66, 0
1, 114389, Note_on_c, 0, 65, 48
1, 114607, Note_on_c, 0, 56, 0
1, 114607, Note_on_c, 0, 53, 0
1, 114607, Note_on_c, 0, 49, 0
1, 114610, Note_on_c, 0, 53, 55
1, 114610, Note_on_c, 0, 65, 0
1, 114826, Note_on_c, 0, 53, 0
1, 114826, Note_on_c, 0, 49, 48
1, 115044, Note_on_c, 0, 54, 62
1, 115044, Note_on_c, 0, 49, 0
1, 115070, Control_c, 0, 64, 0
1, 115115, Control_c, 0, 64, 127
1, 115260, Note_on_c, 0, 54, 0
1, 115260, Note_on_c, 0, 51, 55
1, 115476, Note_on_c, 0, 56, 64
1, 115476, Note_on_c, 0, 51, 0
1, 115509, Control_c, 0, 64, 0
1, 115559, Control_c, 0, 64, 127
1, 115692, Note_on_c, 0, 56, 0
1, 115692, Note_on_c, 0, 53, 55
1, 115908, Note_on_c, 0, 48, 60
1, 115908, Note_on_c, 0, 51, 60
1, 115908, Note_on_c, 0, 56, 71
1, 115911, Note_on_c, 0, 53, 0
1, 115995, Control_c, 0, 64, 0
1, 116102, Control_c, 0, 64, 127
1, 116359, Note_on_c, 0, 56, 0
1, 116359, Note_on_c, 0, 51, 0
1, 116359, Note_on_c, 0, 48, 0
1, 116362, Note_on_c, 0, 42, 69
1, 116835, Note_on_c, 0, 51, 59
1, 116835, Note_on_c, 0, 56, 59
1, 116835, Note_on_c, 0, 60, 70
1, 116888, Control_c, 0, 64, 0
1, 116962, Control_c, 0, 64, 127
1, 117290, Note_on_c, 0, 60, 0
1, 117290, Note_on_c, 0, 56, 0
1, 117290, Note_on_c, 0, 51, 0
1, 117293, Note_on_c, 0, 42, 0
1, 117293, Note_on_c, 0, 68, 73
1, 117293, Note_on_c, 0, 66, 62
1, 117739, Note_on_c, 0, 53, 70
1, 117739, Note_on_c, 0, 56, 70
1, 117739, Note_on_c, 0, 61, 70
1, 117742, Control_c, 0, 64, 0
1, 117822, Control_c, 0, 64, 127
1, 117956, Note_on_c, 0, 66, 0
1, 117956, Note_on_c, 0, 68, 0
1, 117956, Note_on_c, 0, 65, 70
1, 118172, Note_on_c, 0, 61, 0
1, 118172, Note_on_c, 0, 56, 0
1, 118172, Note_on_c, 0, 53, 0
1, 118175, Note_on_c, 0, 56, 77
1, 118175, Note_on_c, 0, 65, 0
1, 118388, Note_on_c, 0, 56, 0
1, 118388, Note_on_c, 0, 53, 65
1, 118388, Note_on_c, 0, 49, 55
1, 118604, Note_on_c, 0, 60, 83
1, 118604, Note_on_c, 0, 49, 0
1, 118604, Note_on_c, 0, 53, 0
1, 118629, Control_c, 0, 64, 0
1, 118673, Control_c, 0, 64, 127
1, 118816, Note_on_c, 0, 60, 0
1, 118816, Note_on_c, 0, 54, 73
1, 118816, Note_on_c, 0, 51, 62
1, 119028, Note_on_c, 0, 61, 85
1, 119028, Note_on_c, 0, 51, 0
1, 119028, Note_on_c, 0, 54, 0
1, 119060, Control_c, 0, 64, 0
1, 119109, Control_c, 0, 64, 127
1, 119240, Note_on_c, 0, 61, 0
1, 119240, Note_on_c, 0, 56, 72
1, 119240, Note_on_c, 0, 53, 61
1, 119483, Note_on_c, 0, 53, 0
1, 119483, Note_on_c, 0, 56, 0
1, 119487, Note_on_c, 0, 48, 87
1, 119487, Note_on_c, 0, 51, 87
1, 119487, Note_on_c, 0, 56, 101
1, 119573, Control_c, 0, 64, 0
1, 119680, Control_c, 0, 64, 127
1, 119937, Note_on_c, 0, 56, 0
1, 119937, Note_on_c, 0, 51, 0
1, 119937, Note_on_c, 0, 48, 0
1, 119940, Note_on_c, 0, 30, 71
1, 119940, Note_on_c, 0, 42, 83
1, 120413, Note_on_c, 0, 54, 67
1, 120413, Note_on_c, 0, 60, 67
1, 120413, Note_on_c, 0, 63, 94
1, 120466, Control_c, 0, 64, 0
1, 120540, Control_c, 0, 64, 127
1, 120869, Note_on_c, 0, 63, 0
1, 120869, Note_on_c, 0, 60, 0
1, 120869, Note_on_c, 0, 54, 0
1, 120872, Note_on_c, 0, 42, 0
1, 120872, Note_on_c, 0, 30, 0
1, 120872, Note_on_c, 0, 75, 95
1, 120875, Note_on_c, 0, 72, 68
1, 121318, Note_on_c, 0, 53, 84
1, 121318, Note_on_c, 0, 61, 84
1, 121318, Note_on_c, 0, 65, 99
1, 121321, Control_c, 0, 64, 0
1, 121401, Control_c, 0, 64, 127
1, 121534, Note_on_c, 0, 72, 0
1, 121534, Note_on_c, 0, 75, 0
1, 121534, Note_on_c, 0, 73, 71
1, 121537, Note_on_c, 0, 77, 82
1, 121750, Note_on_c, 0, 65, 0
1, 121750, Note_on_c, 0, 61, 0
1, 121750, Note_on_c, 0, 53, 0
1, 121753, Note_on_c, 0, 65, 83
1, 121753, Note_on_c, 0, 53, 71
1, 121753, Note_on_c, 0, 77, 0
1, 121756, Note_on_c, 0, 73, 0
1, 121966, Note_on_c, 0, 53, 0
1, 121966, Note_on_c, 0, 65, 0
1, 121966, Note_on_c, 0, 49, 76
1, 121969, Note_on_c, 0, 37, 65
1, 122183, Note_on_c, 0, 66, 88
1, 122183, Note_on_c, 0, 54, 76
1, 122183, Note_on_c, 0, 37, 0
1, 122186, Note_on_c, 0, 49, 0
1, 122207, Control_c, 0, 64, 0
1, 122251, Control_c, 0, 64, 127
1, 122394, Note_on_c, 0, 54, 0
1, 122394, Note_on_c, 0, 66, 0
1, 122394, Note_on_c, 0, 51, 80
1, 122397, Note_on_c, 0, 39, 68
1, 122606, Note_on_c, 0, 68, 85
1, 122606, Note_on_c, 0, 56, 75
1, 122606, Note_on_c, 0, 39, 0
1, 122609, Note_on_c, 0, 51, 0
1, 122638, Control_c, 0, 64, 0
1, 122688, Control_c, 0, 64, 127
1, 122818, Note_on_c, 0, 56, 0
1, 122818, Note_on_c, 0, 68, 0
1, 122818, Note_on_c, 0, 53, 76
1, 122821, Note_on_c, 0, 41, 55
1, 123071, Note_on_c, 0, 58, 68
1, 123071, Note_on_c, 0, 70, 68
1, 123160, Control_c, 0, 64, 0
1, 123268, Control_c, 0, 64, 127
1, 123528, Note_on_c, 0, 70, 0
1, 123528, Note_on_c, 0, 58, 0
1, 123528, Note_on_c, 0, 41, 0
1, 123531, Note_on_c, 0, 53, 0
1, 123531, Note_on_c, 0, 42, 52
1, 124004, Note_on_c, 0, 48, 48
1, 124004, Note_on_c, 0, 51, 48
1, 124004, Note_on_c, 0, 56, 56
1, 124057, Control_c, 0, 64, 0
1, 124132, Control_c, 0, 64, 127
1, 124464, Note_on_c, 0, 56, 0
1, 124464, Note_on_c, 0, 51, 0
1, 124464, Note_on_c, 0, 48, 0
1, 124467, Note_on_c, 0, 42, 0
1, 124467, Note_on_c, 0, 44, 48
1, 124905, Note_on_c, 0, 53, 52
1, 124905, Control_c, 0, 64, 0
1, 124987, Control_c, 0, 64, 127
1, 125121, Note_on_c, 0, 53, 0
1, 125121, Note_on_c, 0, 41, 40
1, 125231, Note_on_c, 0, 44, 0
1, 125341, Note_on_c, 0, 51, 49
1, 125564, Note_on_c, 0, 51, 0
1, 125564, Note_on_c, 0, 41, 0
1, 125564, Note_on_c, 0, 39, 37
1, 125790, Note_on_c, 0, 49, 47
1, 125816, Control_c, 0, 64, 0
1, 125864, Control_c, 0, 64, 127
1, 126019, Note_on_c, 0, 49, 0
1, 126251, Note_on_c, 0, 39, 0
1, 126251, Note_on_c, 0, 37, 36
1, 126286, Control_c, 0, 64, 0
1, 126341, Control_c, 0, 64, 127
1, 126625, Control_c, 0, 64, 0
1, 126721, Note_on_c, 0, 68, 57
1, 126721, Note_on_c, 0, 37, 0
1, 126721, Control_c, 0, 64, 127
1, 126724, Note_on_c, 0, 49, 61
1, 126931, Note_on_c, 0, 68, 0
1, 126931, Note_on_c, 0, 65, 50
1, 127150, Note_on_c, 0, 65, 0
1, 127150, Note_on_c, 0, 61, 53
1, 127362, Note_on_c, 0, 61, 0
1, 127362, Note_on_c, 0, 68, 49
1, 127574, Note_on_c, 0, 68, 0
1, 127574, Note_on_c, 0, 61, 54
1, 127574, Note_on_c, 0, 49, 0
1, 127577, Note_on_c, 0, 42, 48
1, 127672, Control_c, 0, 64, 0
1, 127785, Note_on_c, 0, 61, 0
1, 127785, Note_on_c, 0, 70, 50
1, 127785, Control_c, 0, 64, 127
1, 128004, Note_on_c, 0, 70, 0
1, 128004, Note_on_c, 0, 66, 50
1, 128222, Note_on_c, 0, 66, 0
1, 128222, Note_on_c, 0, 61, 48
1, 128441, Note_on_c, 0, 61, 0
1, 128441, Note_on_c, 0, 68, 57
1, 128441, Note_on_c, 0, 42, 0
1, 128444, Control_c, 0, 64, 0
1, 128444, Note_on_c, 0, 49, 52
1, 128575, Control_c, 0, 64, 127
1, 128653, Note_on_c, 0, 68, 0
1, 128653, Note_on_c, 0, 65, 53
1, 128871, Note_on_c, 0, 65, 0
1, 128871, Note_on_c, 0, 61, 53
1, 129083, Note_on_c, 0, 61, 0
1, 129083, Note_on_c, 0, 68, 54
1, 129299, Note_on_c, 0, 68, 0
1, 129299, Note_on_c, 0, 61, 52
1, 129509, Note_on_c, 0, 61, 0
1, 129509, Note_on_c, 0, 68, 49
1, 129723, Note_on_c, 0, 68, 0
1, 129723, Note_on_c, 0, 61, 54
1, 129723, Note_on_c, 0, 63, 54
1, 129726, Note_on_c, 0, 49, 0
1, 129726, Note_on_c, 0, 42, 48
1, 129780, Control_c, 0, 64, 0
1, 129869, Control_c, 0, 64, 127
1, 129937, Note_on_c, 0, 63, 0
1, 129937, Note_on_c, 0, 61, 0
1, 129937, Note_on_c, 0, 70, 50
1, 130163, Note_on_c, 0, 70, 0
1, 130163, Note_on_c, 0, 68, 57
1, 130163, Note_on_c, 0, 42, 0
1, 130166, Control_c, 0, 64, 0
1, 130166, Note_on_c, 0, 44, 54
1, 130252, Control_c, 0, 64, 127
1, 130381, Note_on_c, 0, 68, 0
1, 130381, Note_on_c, 0, 63, 53
1, 130597, Note_on_c, 0, 63, 0
1, 130597, Note_on_c, 0, 61, 50
1, 130813, Note_on_c, 0, 61, 0
1, 130813, Note_on_c, 0, 68, 50
1, 131030, Note_on_c, 0, 68, 0
1, 131030, Note_on_c, 0, 60, 56
1, 131030, Note_on_c, 0, 44, 0
1, 131033, Note_on_c, 0, 56, 54
1, 131080, Control_c, 0, 64, 0
1, 131153, Control_c, 0, 64, 127
1, 131254, Note_on_c, 0, 60, 0
1, 131254, Note_on_c, 0, 68, 50
1, 131468, Note_on_c, 0, 68, 0
1, 131468, Note_on_c, 0, 63, 53
1, 131682, Note_on_c, 0, 63, 0
1, 131682, Note_on_c, 0, 60, 53
1, 131896, Note_on_c, 0, 60, 0
1, 131896, Note_on_c, 0, 68, 57
1, 131896, Control_c, 0, 64, 0
1, 131979, Control_c, 0, 64, 127
1, 132114, Note_on_c, 0, 68, 0
1, 132114, Note_on_c, 0, 65, 54
1, 132324, Note_on_c, 0, 65, 0
1, 132324, Note_on_c, 0, 61, 53
1, 132324, Note_on_c, 0, 56, 0
1, 132327, Note_on_c, 0, 54, 49
1, 132534, Note_on_c, 0, 61, 0
1, 132534, Note_on_c, 0, 68, 53
1, 132534, Note_on_c, 0, 54, 0
1, 132537, Note_on_c, 0, 53, 49
1, 132752, Note_on_c, 0, 68, 0
1, 132752, Note_on_c, 0, 65, 57
1, 132752, Note_on_c, 0, 53, 0
1, 132755, Note_on_c, 0, 51, 51
1, 132777, Control_c, 0, 64, 0
1, 132821, Control_c, 0, 64, 127
1, 132964, Note_on_c, 0, 65, 0
1, 132964, Note_on_c, 0, 73, 54
1, 133174, Note_on_c, 0, 73, 0
1, 133174, Note_on_c, 0, 68, 51
1, 133174, Note_on_c, 0, 51, 0
1, 133177, Note_on_c, 0, 49, 48
1, 133207, Control_c, 0, 64, 0
1, 133258, Control_c, 0, 64, 127
1, 133392, Note_on_c, 0, 68, 0
1, 133392, Note_on_c, 0, 65, 48
1, 133617, Note_on_c, 0, 65, 0
1, 133617, Note_on_c, 0, 73, 57
1, 133617, Note_on_c, 0, 49, 0
1, 133620, Control_c, 0, 64, 0
1, 133620, Note_on_c, 0, 61, 61
1, 133690, Control_c, 0, 64, 127
1, 133827, Note_on_c, 0, 73, 0
1, 133827, Note_on_c, 0, 68, 53
1, 134045, Note_on_c, 0, 68, 0
1, 134045, Note_on_c, 0, 65, 53
1, 134255, Note_on_c, 0, 65, 0
1, 134255, Note_on_c, 0, 73, 49
1, 134473, Note_on_c, 0, 73, 0
1, 134473, Note_on_c, 0, 66, 74
1, 134473, Note_on_c, 0, 61, 0
1, 134476, Note_on_c, 0, 54, 68
1, 134563, Control_c, 0, 64, 0
1, 134679, Control_c, 0, 64, 127
1, 134692, Note_on_c, 0, 66, 0
1, 134692, Note_on_c, 0, 73, 53
1, 134910, Note_on_c, 0, 73, 0
1, 134910, Note_on_c, 0, 70, 57
1, 135129, Note_on_c, 0, 70, 0
1, 135129, Note_on_c, 0, 66, 48
1, 135347, Note_on_c, 0, 66, 0
1, 135347, Note_on_c, 0, 73, 57
1, 135347, Note_on_c, 0, 54, 0
1, 135350, Control_c, 0, 64, 0
1, 135350, Note_on_c, 0, 61, 52
1, 135503, Control_c, 0, 64, 127
1, 135559, Note_on_c, 0, 73, 0
1, 135559, Note_on_c, 0, 68, 53
1, 135775, Note_on_c, 0, 68, 0
1, 135775, Note_on_c, 0, 65, 53
1, 135992, Note_on_c, 0, 65, 0
1, 135992, Note_on_c, 0, 73, 54
1, 136208, Note_on_c, 0, 73, 0
1, 136208, Note_on_c, 0, 65, 52
1, 136433, Note_on_c, 0, 65, 0
1, 136433, Note_on_c, 0, 73, 49
1, 136628, Control_c, 0, 64, 0
1, 136647, Note_on_c, 0, 73, 0
1, 136647, Note_on_c, 0, 64, 54
1, 136647, Note_on_c, 0, 67, 54
1, 136650, Note_on_c, 0, 61, 0
1, 136650, Note_on_c, 0, 57, 48
1, 136708, Control_c, 0, 64, 127
1, 136861, Note_on_c, 0, 67, 0
1, 136861, Note_on_c, 0, 64, 0
1, 136861, Note_on_c, 0, 73, 50
1, 137087, Note_on_c, 0, 73, 0
1, 137087, Note_on_c, 0, 63, 57
1, 137087, Note_on_c, 0, 57, 0
1, 137090, Note_on_c, 0, 56, 54
1, 137099, Control_c, 0, 64, 0
1, 137176, Control_c, 0, 64, 127
1, 137305, Note_on_c, 0, 63, 0
1, 137305, Note_on_c, 0, 73, 53
1, 137521, Note_on_c, 0, 73, 0
1, 137521, Note_on_c, 0, 66, 53
1, 137737, Note_on_c, 0, 66, 0
1, 137737, Note_on_c, 0, 63, 49
1, 137954, Note_on_c, 0, 63, 0
1, 137954, Note_on_c, 0, 72, 56
1, 137954, Note_on_c, 0, 56, 0
1, 137957, Note_on_c, 0, 44, 54
1, 138004, Control_c, 0, 64, 0
1, 138077, Control_c, 0, 64, 127
1, 138177, Note_on_c, 0, 72, 0
1, 138177, Note_on_c, 0, 66, 53
1, 138392, Note_on_c, 0, 66, 0
1, 138392, Note_on_c, 0, 63, 53
1, 138606, Note_on_c, 0, 63, 0
1, 138606, Note_on_c, 0, 72, 49
1, 138820, Note_on_c, 0, 72, 0
1, 138820, Note_on_c, 0, 73, 57
1, 138820, Control_c, 0, 64, 0
1, 138903, Control_c, 0, 64, 127
1, 139038, Note_on_c, 0, 73, 0
1, 139038, Note_on_c, 0, 68, 54
1, 139248, Note_on_c, 0, 68, 0
1, 139248, Note_on_c, 0, 65, 53
1, 139248, Note_on_c, 0, 44, 0
1, 139251, Note_on_c, 0, 37, 46
1, 139458, Note_on_c, 0, 65, 0
1, 139458, Note_on_c, 0, 73, 53
1, 139458, Note_on_c, 0, 37, 0
1, 139461, Note_on_c, 0, 41, 46
1, 139670, Note_on_c, 0, 73, 0
1, 139670, Note_on_c, 0, 68, 57
1, 139670, Note_on_c, 0, 41, 0
1, 139673, Note_on_c, 0, 44, 48
1, 139696, Control_c, 0, 64, 0
1, 139741, Control_c, 0, 64, 127
1, 139886, Note_on_c, 0, 68, 0
1, 139886, Note_on_c, 0, 65, 50
1, 139886, Note_on_c, 0, 44, 0
1, 139889, Note_on_c, 0, 49, 44
1, 140107, Note_on_c, 0, 65, 0
1, 140107, Note_on_c, 0, 61, 51
1, 140107, Note_on_c, 0, 49, 0
1, 140110, Note_on_c, 0, 53, 45
1, 140140, Control_c, 0, 64, 0
1, 140193, Control_c, 0, 64, 127
1, 140333, Note_on_c, 0, 61, 0
1, 140333, Note_on_c, 0, 68, 48
1, 140333, Note_on_c, 0, 53, 0
1, 140336, Note_on_c, 0, 51, 40
1, 140567, Note_on_c, 0, 68, 0
1, 140567, Note_on_c, 0, 68, 57
1, 140567, Note_on_c, 0, 51, 0
1, 140570, Control_c, 0, 64, 0
1, 140570, Note_on_c, 0, 49, 61
1, 140640, Control_c, 0, 64, 127
1, 140777, Note_on_c, 0, 68, 0
1, 140777, Note_on_c, 0, 65, 50
1, 140995, Note_on_c, 0, 65, 0
1, 140995, Note_on_c, 0, 61, 53
1, 141207, Note_on_c, 0, 61, 0
1, 141207, Note_on_c, 0, 68, 49
1, 141419, Note_on_c, 0, 68, 0
1, 141419, Note_on_c, 0, 61, 54
1, 141419, Note_on_c, 0, 49, 0
1, 141422, Note_on_c, 0, 42, 48
1, 141518, Control_c, 0, 64, 0
1, 141631, Note_on_c, 0, 61, 0
1, 141631, Note_on_c, 0, 70, 50
1, 141631, Control_c, 0, 64, 127
1, 141849, Note_on_c, 0, 70, 0
1, 141849, Note_on_c, 0, 66, 50
1, 142068, Note_on_c, 0, 66, 0
1, 142068, Note_on_c, 0, 61, 48
1, 142286, Note_on_c, 0, 61, 0
1, 142286, Note_on_c, 0, 68, 57
1, 142286, Note_on_c, 0, 42, 0
1, 142289, Control_c, 0, 64, 0
1, 142289, Note_on_c, 0, 49, 52
1, 142442, Control_c, 0, 64, 127
1, 142498, Note_on_c, 0, 68, 0
1, 142498, Note_on_c, 0, 65, 53
1, 142717, Note_on_c, 0, 65, 0
1, 142717, Note_on_c, 0, 61, 53
1, 142928, Note_on_c, 0, 61, 0
1, 142928, Note_on_c, 0, 68, 54
1, 143145, Note_on_c, 0, 68, 0
1, 143145, Note_on_c, 0, 61, 52
1, 143349, Note_on_c, 0, 61, 0
1, 143349, Note_on_c, 0, 68, 49
1, 143561, Note_on_c, 0, 68, 0
1, 143561, Note_on_c, 0, 61, 54
1, 143561, Note_on_c, 0, 63, 54
1, 143564, Note_on_c, 0, 49, 0
1, 143564, Note_on_c, 0, 42, 48
1, 143639, Control_c, 0, 64, 0
1, 143716, Control_c, 0, 64, 127
1, 143773, Note_on_c, 0, 63, 0
1, 143773, Note_on_c, 0, 61, 0
1, 143773, Note_on_c, 0, 70, 50
1, 143998, Note_on_c, 0, 70, 0
1, 143998, Note_on_c, 0, 68, 57
1, 143998, Note_on_c, 0, 42, 0
1, 144001, Control_c, 0, 64, 0
1, 144001, Note_on_c, 0, 44, 54
1, 144084, Control_c, 0, 64, 127
1, 144208, Note_on_c, 0, 68, 0
1, 144208, Note_on_c, 0, 63, 53
1, 144424, Note_on_c, 0, 63, 0
1, 144424, Note_on_c, 0, 61, 50
1, 144640, Note_on_c, 0, 61, 0
1, 144640, Note_on_c, 0, 68, 50
1, 144856, Note_on_c, 0, 68, 0
1, 144856, Note_on_c, 0, 60, 56
1, 144856, Note_on_c, 0, 44, 0
1, 144859, Note_on_c, 0, 56, 54
1, 144905, Control_c, 0, 64, 0
1, 144977, Control_c, 0, 64, 127
1, 145078, Note_on_c, 0, 60, 0
1, 145078, Note_on_c, 0, 68, 50
1, 145292, Note_on_c, 0, 68, 0
1, 145292, Note_on_c, 0, 63, 53
1, 145506, Note_on_c, 0, 63, 0
1, 145506, Note_on_c, 0, 60, 53
1, 145720, Note_on_c, 0, 60, 0
1, 145720, Note_on_c, 0, 68, 57
1, 145720, Control_c, 0, 64, 0
1, 145804, Control_c, 0, 64, 127
1, 145938, Note_on_c, 0, 68, 0
1, 145938, Note_on_c, 0, 65, 54
1, 146148, Note_on_c, 0, 65, 0
1, 146148, Note_on_c, 0, 61, 53
1, 146148, Note_on_c, 0, 56, 0
1, 146151, Note_on_c, 0, 54, 49
1, 146351, Note_on_c, 0, 61, 0
1, 146351, Note_on_c, 0, 68, 53
1, 146351, Note_on_c, 0, 54, 0
1, 146354, Note_on_c, 0, 53, 49
1, 146569, Note_on_c, 0, 68, 0
1, 146569, Note_on_c, 0, 65, 57
1, 146569, Note_on_c, 0, 53, 0
1, 146572, Note_on_c, 0, 51, 51
1, 146594, Control_c, 0, 64, 0
1, 146638, Control_c, 0, 64, 127
1, 146781, Note_on_c, 0, 65, 0
1, 146781, Note_on_c, 0, 73, 54
1, 146991, Note_on_c, 0, 73, 0
1, 146991, Note_on_c, 0, 68, 51
1, 146991, Note_on_c, 0, 51, 0
1, 146994, Note_on_c, 0, 49, 48
1, 147024, Control_c, 0, 64, 0
1, 147075, Control_c, 0, 64, 127
1, 147209, Note_on_c, 0, 68, 0
1, 147209, Note_on_c, 0, 65, 48
1, 147434, Note_on_c, 0, 65, 0
1, 147434, Note_on_c, 0, 73, 57
1, 147434, Note_on_c, 0, 49, 0
1, 147437, Control_c, 0, 64, 0
1, 147437, Note_on_c, 0, 61, 61
1, 147507, Control_c, 0, 64, 127
1, 147644, Note_on_c, 0, 73, 0
1, 147644, Note_on_c, 0, 68, 53
1, 147862, Note_on_c, 0, 68, 0
1, 147862, Note_on_c, 0, 65, 53
1, 148072, Note_on_c, 0, 65, 0
1, 148072, Note_on_c, 0, 73, 49
1, 148290, Note_on_c, 0, 73, 0
1, 148290, Note_on_c, 0, 66, 69
1, 148290, Note_on_c, 0, 61, 0
1, 148293, Note_on_c, 0, 54, 68
1, 148379, Control_c, 0, 64, 0
1, 148496, Control_c, 0, 64, 127
1, 148509, Note_on_c, 0, 66, 0
1, 148509, Note_on_c, 0, 73, 53
1, 148727, Note_on_c, 0, 73, 0
1, 148727, Note_on_c, 0, 70, 57
1, 148946, Note_on_c, 0, 70, 0
1, 148946, Note_on_c, 0, 66, 48
1, 149164, Note_on_c, 0, 66, 0
1, 149164, Note_on_c, 0, 73, 57
1, 149164, Note_on_c, 0, 54, 0
1, 149167, Control_c, 0, 64, 0
1, 149167, Note_on_c, 0, 61, 52
1, 149319, Control_c, 0, 64, 127
1, 149376, Note_on_c, 0, 73, 0
1, 149376, Note_on_c, 0, 68, 53
1, 149592, Note_on_c, 0, 68, 0
1, 149592, Note_on_c, 0, 65, 53
1, 149808, Note_on_c, 0, 65, 0
1, 149808, Note_on_c, 0, 73, 54
1, 150025, Note_on_c, 0, 73, 0
1, 150025, Note_on_c, 0, 65, 52
1, 150250, Note_on_c, 0, 65, 0
1, 150250, Note_on_c, 0, 73, 49
1, 150464, Note_on_c, 0, 73, 0
1, 150464, Note_on_c, 0, 64, 54
1, 150464, Note_on_c, 0, 67, 54
1, 150467, Note_on_c, 0, 61, 0
1, 150467, Control_c, 0, 64, 0
1, 150467, Note_on_c, 0, 57, 48
1, 150522, Control_c, 0, 64, 127
1, 150670, Note_on_c, 0, 67, 0
1, 150670, Note_on_c, 0, 64, 0
1, 150670, Note_on_c, 0, 73, 50
1, 150895, Note_on_c, 0, 73, 0
1, 150895, Note_on_c, 0, 63, 57
1, 150895, Note_on_c, 0, 57, 0
1, 150898, Control_c, 0, 64, 0
1, 150898, Note_on_c, 0, 56, 54
1, 150981, Control_c, 0, 64, 127
1, 151105, Note_on_c, 0, 63, 0
1, 151105, Note_on_c, 0, 73, 53
1, 151321, Note_on_c, 0, 73, 0
1, 151321, Note_on_c, 0, 66, 53
1, 151537, Note_on_c, 0, 66, 0
1, 151537, Note_on_c, 0, 63, 49
1, 151753, Note_on_c, 0, 63, 0
1, 151753, Note_on_c, 0, 72, 56
1, 151753, Note_on_c, 0, 56, 0
1, 151756, Note_on_c, 0, 44, 54
1, 151804, Control_c, 0, 64, 0
1, 151877, Control_c, 0, 64, 127
1, 151977, Note_on_c, 0, 72, 0
1, 151977, Note_on_c, 0, 66, 53
1, 152191, Note_on_c, 0, 66, 0
1, 152191, Note_on_c, 0, 63, 53
1, 152405, Note_on_c, 0, 63, 0
1, 152405, Note_on_c, 0, 72, 49
1, 152619, Note_on_c, 0, 72, 0
1, 152619, Note_on_c, 0, 73, 57
1, 152619, Control_c, 0, 64, 0
1, 152703, Control_c, 0, 64, 127
1, 152838, Note_on_c, 0, 73, 0
1, 152838, Note_on_c, 0, 68, 54
1, 153048, Note_on_c, 0, 68, 0
1, 153048, Note_on_c, 0, 65, 53
1, 153048, Note_on_c, 0, 44, 0
1, 153051, Note_on_c, 0, 49, 46
1, 153257, Note_on_c, 0, 65, 0
1, 153257, Note_on_c, 0, 73, 53
1, 153257, Note_on_c, 0, 49, 0
1, 153260, Note_on_c, 0, 53, 46
1, 153469, Note_on_c, 0, 73, 0
1, 153469, Note_on_c, 0, 68, 57
1, 153469, Note_on_c, 0, 53, 0
1, 153472, Note_on_c, 0, 53, 48
1, 153495, Control_c, 0, 64, 0
1, 153540, Control_c, 0, 64, 127
1, 153686, Note_on_c, 0, 68, 0
1, 153686, Note_on_c, 0, 65, 50
1, 153686, Note_on_c, 0, 53, 0
1, 153689, Note_on_c, 0, 49, 44
1, 153906, Note_on_c, 0, 65, 0
1, 153906, Note_on_c, 0, 61, 51
1, 153906, Note_on_c, 0, 49, 0
1, 153909, Note_on_c, 0, 53, 45
1, 153940, Control_c, 0, 64, 0
1, 153992, Control_c, 0, 64, 127
1, 154133, Note_on_c, 0, 61, 0
1, 154133, Note_on_c, 0, 68, 48
1, 154133, Note_on_c, 0, 53, 0
1, 154136, Note_on_c, 0, 56, 40
1, 154366, Note_on_c, 0, 68, 0
1, 154366, Note_on_c, 0, 68, 57
1, 154366, Note_on_c, 0, 56, 0
1, 154369, Control_c, 0, 64, 0
1, 154369, Note_on_c, 0, 56, 61
1, 154369, Note_on_c, 0, 54, 61
1, 154452, Control_c, 0, 64, 127
1, 154576, Note_on_c, 0, 68, 0
1, 154576, Note_on_c, 0, 63, 50
1, 154795, Note_on_c, 0, 63, 0
1, 154795, Note_on_c, 0, 60, 53
1, 155007, Note_on_c, 0, 60, 0
1, 155007, Note_on_c, 0, 68, 49
1, 155219, Note_on_c, 0, 68, 0
1, 155219, Note_on_c, 0, 60, 54
1, 155219, Note_on_c, 0, 54, 0
1, 155222, Note_on_c, 0, 51, 48
1, 155317, Control_c, 0, 64, 0
1, 155430, Note_on_c, 0, 60, 0
1, 155430, Note_on_c, 0, 68, 50
1, 155430, Control_c, 0, 64, 127
1, 155649, Note_on_c, 0, 68, 0
1, 155649, Note_on_c, 0, 66, 50
1, 155867, Note_on_c, 0, 66, 0
1, 155867, Note_on_c, 0, 60, 48
1, 156086, Note_on_c, 0, 60, 0
1, 156086, Note_on_c, 0, 61, 59
1, 156086, Note_on_c, 0, 51, 0
1, 156089, Note_on_c, 0, 56, 0
1, 156089, Note_on_c, 0, 53, 48
1, 156089, Control_c, 0, 64, 0
1, 156092, Note_on_c, 0, 56, 56
1, 156241, Control_c, 0, 64, 127
1, 156298, Note_on_c, 0, 61, 0
1, 156298, Note_on_c, 0, 65, 59
1, 156516, Note_on_c, 0, 65, 0
1, 156516, Note_on_c, 0, 68, 63
1, 156516, Note_on_c, 0, 56, 0
1, 156519, Note_on_c, 0, 53, 0
1, 156519, Note_on_c, 0, 51, 51
1, 156519, Note_on_c, 0, 56, 59
1, 156728, Note_on_c, 0, 68, 0
1, 156728, Note_on_c, 0, 73, 67
1, 156728, Note_on_c, 0, 56, 0
1, 156731, Note_on_c, 0, 51, 0
1, 156731, Note_on_c, 0, 53, 55
1, 156731, Note_on_c, 0, 56, 64
1, 156940, Control_c, 0, 64, 0
1, 156951, Note_on_c, 0, 73, 0
1, 156951, Note_on_c, 0, 72, 72
1, 156951, Note_on_c, 0, 56, 0
1, 156954, Note_on_c, 0, 53, 0
1, 156954, Note_on_c, 0, 51, 59
1, 156954, Note_on_c, 0, 56, 69
1, 157007, Control_c, 0, 64, 127
1, 157161, Note_on_c, 0, 72, 0
1, 157161, Note_on_c, 0, 66, 59
1, 157341, Control_c, 0, 64, 0
1, 157375, Note_on_c, 0, 66, 0
1, 157375, Note_on_c, 0, 73, 65
1, 157375, Note_on_c, 0, 56, 0
1, 157378, Note_on_c, 0, 51, 0
1, 157378, Note_on_c, 0, 49, 52
1, 157378, Note_on_c, 0, 56, 60
1, 157420, Control_c, 0, 64, 127
1, 157589, Note_on_c, 0, 73, 0
1, 157589, Note_on_c, 0, 65, 53
1, 157814, Note_on_c, 0, 65, 0
1, 157814, Note_on_c, 0, 68, 57
1, 157814, Note_on_c, 0, 56, 0
1, 157817, Note_on_c, 0, 49, 0
1, 157817, Control_c, 0, 64, 0
1, 157817, Note_on_c, 0, 56, 61
1, 157820, Note_on_c, 0, 54, 61
1, 157926, Control_c, 0, 64, 127
1, 158024, Note_on_c, 0, 68, 0
1, 158024, Note_on_c, 0, 63, 50
1, 158243, Note_on_c, 0, 63, 0
1, 158243, Note_on_c, 0, 60, 53
1, 158455, Note_on_c, 0, 60, 0
1, 158455, Note_on_c, 0, 68, 49
1, 158666, Note_on_c, 0, 68, 0
1, 158666, Note_on_c, 0, 60, 54
1, 158666, Note_on_c, 0, 54, 0
1, 158669, Note_on_c, 0, 51, 48
1, 158765, Control_c, 0, 64, 0
1, 158878, Note_on_c, 0, 60, 0
1, 158878, Note_on_c, 0, 68, 50
1, 158878, Control_c, 0, 64, 127
1, 159097, Note_on_c, 0, 68, 0
1, 159097, Note_on_c, 0, 66, 50
1, 159315, Note_on_c, 0, 66, 0
1, 159315, Note_on_c, 0, 60, 48
1, 159534, Note_on_c, 0, 60, 0
1, 159534, Note_on_c, 0, 61, 59
1, 159534, Note_on_c, 0, 51, 0
1, 159537, Note_on_c, 0, 56, 0
1, 159537, Note_on_c, 0, 53, 48
1, 159537, Control_c, 0, 64, 0
1, 159540, Note_on_c, 0, 56, 56
1, 159689, Control_c, 0, 64, 127
1, 159746, Note_on_c, 0, 61, 0
1, 159746, Note_on_c, 0, 65, 59
1, 159964, Note_on_c, 0, 65, 0
1, 159964, Note_on_c, 0, 68, 63
1, 159964, Note_on_c, 0, 56, 0
1, 159967, Note_on_c, 0, 53, 0
1, 159967, Note_on_c, 0, 51, 51
1, 159967, Note_on_c, 0, 56, 59
1, 160176, Note_on_c, 0, 68, 0
1, 160176, Note_on_c, 0, 77, 65
1, 160176, Note_on_c, 0, 56, 0
1, 160179, Note_on_c, 0, 51, 0
1, 160179, Note_on_c, 0, 49, 55
1, 160179, Note_on_c, 0, 56, 64
1, 160390, Control_c, 0, 64, 0
1, 160401, Note_on_c, 0, 77, 0
1, 160401, Note_on_c, 0, 75, 72
1, 160401, Note_on_c, 0, 56, 0
1, 160404, Note_on_c, 0, 49, 0
1, 160404, Note_on_c, 0, 48, 59
1, 160404, Note_on_c, 0, 56, 69
1, 160457, Control_c, 0, 64, 127
1, 160611, Note_on_c, 0, 75, 0
1, 160611, Note_on_c, 0, 66, 59
1, 160791, Control_c, 0, 64, 0
1, 160825, Note_on_c, 0, 66, 0
1, 160825, Note_on_c, 0, 73, 65
1, 160825, Note_on_c, 0, 56, 0
1, 160828, Note_on_c, 0, 48, 0
1, 160828, Note_on_c, 0, 49, 52
1, 160828, Note_on_c, 0, 56, 60
1, 160870, Control_c, 0, 64, 127
1, 161039, Note_on_c, 0, 73, 0
1, 161039, Note_on_c, 0, 65, 53
1, 161265, Note_on_c, 0, 65, 0
1, 161265, Note_on_c, 0, 68, 68
1, 161265, Note_on_c, 0, 56, 0
1, 161268, Note_on_c, 0, 49, 0
1, 161268, Control_c, 0, 64, 0
1, 161268, Note_on_c, 0, 56, 68
1, 161271, Note_on_c, 0, 54, 68
1, 161363, Control_c, 0, 64, 127
1, 161474, Note_on_c, 0, 68, 0
1, 161474, Note_on_c, 0, 63, 60
1, 161693, Note_on_c, 0, 63, 0
1, 161693, Note_on_c, 0, 60, 68
1, 161905, Note_on_c, 0, 60, 0
1, 161905, Note_on_c, 0, 68, 63
1, 162117, Note_on_c, 0, 68, 0
1, 162117, Note_on_c, 0, 60, 77
1, 162117, Note_on_c, 0, 54, 0
1, 162120, Note_on_c, 0, 51, 72
1, 162216, Control_c, 0, 64, 0
1, 162329, Note_on_c, 0, 60, 0
1, 162329, Note_on_c, 0, 68, 72
1, 162329, Control_c, 0, 64, 127
1, 162547, Note_on_c, 0, 68, 0
1, 162547, Note_on_c, 0, 66, 77
1, 162766, Note_on_c, 0, 66, 0
1, 162766, Note_on_c, 0, 60, 73
1, 162984, Note_on_c, 0, 60, 0
1, 162984, Note_on_c, 0, 51, 0
1, 162984, Note_on_c, 0, 56, 0
1, 162987, Note_on_c, 0, 53, 69
1, 162987, Note_on_c, 0, 56, 69
1, 162987, Control_c, 0, 64, 0
1, 162990, Note_on_c, 0, 61, 83
1, 163139, Control_c, 0, 64, 127
1, 163196, Note_on_c, 0, 80, 83
1, 163414, Note_on_c, 0, 80, 0
1, 163414, Note_on_c, 0, 68, 84
1, 163414, Note_on_c, 0, 61, 0
1, 163417, Note_on_c, 0, 56, 0
1, 163417, Note_on_c, 0, 53, 0
1, 163417, Note_on_c, 0, 54, 65
1, 163420, Note_on_c, 0, 51, 65
1, 163420, Note_on_c, 0, 61, 75
1, 163626, Note_on_c, 0, 68, 0
1, 163626, Note_on_c, 0, 80, 75
1, 163626, Note_on_c, 0, 61, 0
1, 163629, Note_on_c, 0, 51, 0
1, 163629, Note_on_c, 0, 54, 0
1, 163629, Note_on_c, 0, 49, 59
1, 163632, Note_on_c, 0, 53, 59
1, 163632, Note_on_c, 0, 61, 69
1, 163843, Control_c, 0, 64, 0
1, 163854, Note_on_c, 0, 80, 0
1, 163854, Note_on_c, 0, 78, 80
1, 163854, Note_on_c, 0, 61, 0
1, 163857, Note_on_c, 0, 53, 0
1, 163857, Note_on_c, 0, 49, 0
1, 163857, Note_on_c, 0, 54, 66
1, 163860, Note_on_c, 0, 51, 66
1, 163860, Note_on_c, 0, 60, 76
1, 163910, Control_c, 0, 64, 127
1, 164064, Note_on_c, 0, 78, 0
1, 164064, Note_on_c, 0, 68, 68
1, 164244, Control_c, 0, 64, 0
1, 164278, Note_on_c, 0, 68, 0
1, 164278, Note_on_c, 0, 77, 73
1, 164278, Note_on_c, 0, 60, 0
1, 164281, Note_on_c, 0, 51, 0
1, 164281, Note_on_c, 0, 54, 0
1, 164281, Note_on_c, 0, 56, 50
1, 164284, Note_on_c, 0, 53, 50
1, 164284, Note_on_c, 0, 61, 68
1, 164323, Control_c, 0, 64, 127
1, 164492, Note_on_c, 0, 77, 0
1, 164492, Note_on_c, 0, 68, 58
1, 164717, Note_on_c, 0, 68, 0
1, 164717, Note_on_c, 0, 75, 57
1, 164717, Note_on_c, 0, 61, 0
1, 164720, Note_on_c, 0, 53, 0
1, 164720, Note_on_c, 0, 56, 0
1, 164720, Control_c, 0, 64, 0
1, 164723, Note_on_c, 0, 54, 44
1, 164723, Note_on_c, 0, 58, 44
1, 164723, Note_on_c, 0, 63, 50
1, 164807, Control_c, 0, 64, 127
1, 164936, Note_on_c, 0, 75, 0
1, 164936, Note_on_c, 0, 70, 53
1, 165152, Note_on_c, 0, 70, 0
1, 165152, Note_on_c, 0, 66, 53
1, 165368, Note_on_c, 0, 66, 0
1, 165368, Note_on_c, 0, 75, 49
1, 165584, Note_on_c, 0, 75, 0
1, 165584, Note_on_c, 0, 68, 56
1, 165584, Note_on_c, 0, 63, 0
1, 165587, Note_on_c, 0, 58, 0
1, 165587, Note_on_c, 0, 54, 0
1, 165587, Note_on_c, 0, 56, 44
1, 165590, Note_on_c, 0, 60, 50
1, 165635, Control_c, 0, 64, 0
1, 165708, Control_c, 0, 64, 127
1, 165808, Note_on_c, 0, 68, 0
1, 165808, Note_on_c, 0, 66, 53
1, 166022, Note_on_c, 0, 66, 0
1, 166022, Note_on_c, 0, 63, 53
1, 166236, Note_on_c, 0, 63, 0
1, 166236, Note_on_c, 0, 68, 49
1, 166450, Note_on_c, 0, 68, 0
1, 166450, Note_on_c, 0, 65, 57
1, 166450, Note_on_c, 0, 60, 0
1, 166453, Note_on_c, 0, 56, 0
1, 166453, Note_on_c, 0, 56, 44
1, 166453, Note_on_c, 0, 61, 50
1, 166456, Control_c, 0, 64, 0
1, 166534, Control_c, 0, 64, 127
1, 166669, Note_on_c, 0, 65, 0
1, 166669, Note_on_c, 0, 73, 54
1, 166879, Note_on_c, 0, 73, 0
1, 166879, Note_on_c, 0, 68, 53
1, 166879, Note_on_c, 0, 61, 0
1, 166882, Note_on_c, 0, 56, 0
1, 166882, Note_on_c, 0, 49, 46
1, 167089, Note_on_c, 0, 68, 0
1, 167089, Note_on_c, 0, 65, 53
1, 167089, Note_on_c, 0, 49, 0
1, 167092, Note_on_c, 0, 51, 46
1, 167307, Note_on_c, 0, 65, 0
1, 167307, Note_on_c, 0, 61, 57
1, 167307, Note_on_c, 0, 51, 0
1, 167310, Note_on_c, 0, 53, 48
1, 167333, Control_c, 0, 64, 0
1, 167378, Control_c, 0, 64, 127
1, 167523, Note_on_c, 0, 61, 0
1, 167523, Note_on_c, 0, 53, 0
1, 167523, Note_on_c, 0, 49, 38
1, 167526, Note_on_c, 0, 56, 44
1, 167744, Note_on_c, 0, 56, 0
1, 167744, Note_on_c, 0, 49, 0
1, 167744, Note_on_c, 0, 51, 39
1, 167747, Note_on_c, 0, 56, 45
1, 167777, Control_c, 0, 64, 0
1, 167830, Control_c, 0, 64, 127
1, 167971, Note_on_c, 0, 56, 0
1, 167971, Note_on_c, 0, 51, 0
1, 167971, Note_on_c, 0, 53, 35
1, 167974, Note_on_c, 0, 56, 40
1, 168204, Note_on_c, 0, 68, 57
1, 168204, Note_on_c, 0, 56, 0
1, 168204, Note_on_c, 0, 53, 0
1, 168207, Control_c, 0, 64, 0
1, 168207, Note_on_c, 0, 56, 61
1, 168207, Note_on_c, 0, 54, 61
1, 168278, Control_c, 0, 64, 127
1, 168414, Note_on_c, 0, 68, 0
1, 168414, Note_on_c, 0, 63, 50
1, 168632, Note_on_c, 0, 63, 0
1, 168632, Note_on_c, 0, 60, 53
1, 168844, Note_on_c, 0, 60, 0
1, 168844, Note_on_c, 0, 68, 49
1, 169056, Note_on_c, 0, 68, 0
1, 169056, Note_on_c, 0, 60, 54
1, 169056, Note_on_c, 0, 54, 0
1, 169059, Note_on_c, 0, 51, 48
1, 169155, Control_c, 0, 64, 0
1, 169268, Note_on_c, 0, 60, 0
1, 169268, Note_on_c, 0, 68, 50
1, 169268, Control_c, 0, 64, 127
1, 169487, Note_on_c, 0, 68, 0
1, 169487, Note_on_c, 0, 66, 50
1, 169705, Note_on_c, 0, 66, 0
1, 169705, Note_on_c, 0, 60, 48
1, 169923, Note_on_c, 0, 60, 0
1, 169923, Note_on_c, 0, 61, 59
1, 169923, Note_on_c, 0, 51, 0
1, 169926, Note_on_c, 0, 56, 0
1, 169926, Note_on_c, 0, 53, 48
1, 169926, Control_c, 0, 64, 0
1, 169929, Note_on_c, 0, 56, 56
1, 170079, Control_c, 0, 64, 127
1, 170135, Note_on_c, 0, 61, 0
1, 170135, Note_on_c, 0, 65, 59
1, 170338, Note_on_c, 0, 65, 0
1, 170338, Note_on_c, 0, 68, 63
1, 170338, Note_on_c, 0, 56, 0
1, 170341, Note_on_c, 0, 53, 0
1, 170341, Note_on_c, 0, 51, 51
1, 170341, Note_on_c, 0, 56, 59
1, 170556, Note_on_c, 0, 68, 0
1, 170556, Note_on_c, 0, 73, 67
1, 170556, Note_on_c, 0, 56, 0
1, 170559, Note_on_c, 0, 51, 0
1, 170559, Note_on_c, 0, 53, 55
1, 170559, Note_on_c, 0, 56, 64
1, 170768, Control_c, 0, 64, 0
1, 170779, Note_on_c, 0, 73, 0
1, 170779, Note_on_c, 0, 72, 72
1, 170779, Note_on_c, 0, 56, 0
1, 170782, Note_on_c, 0, 53, 0
1, 170782, Note_on_c, 0, 51, 59
1, 170782, Note_on_c, 0, 56, 69
1, 170834, Control_c, 0, 64, 127
1, 170985, Note_on_c, 0, 72, 0
1, 170985, Note_on_c, 0, 66, 59
1, 171165, Control_c, 0, 64, 0
1, 171199, Note_on_c, 0, 66, 0
1, 171199, Note_on_c, 0, 73, 65
1, 171199, Note_on_c, 0, 56, 0
1, 171202, Note_on_c, 0, 51, 0
1, 171202, Note_on_c, 0, 49, 52
1, 171202, Note_on_c, 0, 56, 60
1, 171244, Control_c, 0, 64, 127
1, 171413, Note_on_c, 0, 73, 0
1, 171413, Note_on_c, 0, 65, 53
1, 171638, Note_on_c, 0, 65, 0
1, 171638, Note_on_c, 0, 68, 57
1, 171638, Note_on_c, 0, 56, 0
1, 171641, Note_on_c, 0, 49, 0
1, 171641, Control_c, 0, 64, 0
1, 171641, Note_on_c, 0, 56, 61
1, 171644, Note_on_c, 0, 54, 61
1, 171750, Control_c, 0, 64, 127
1, 171848, Note_on_c, 0, 68, 0
1, 171848, Note_on_c, 0, 63, 50
1, 172067, Note_on_c, 0, 63, 0
1, 172067, Note_on_c, 0, 60, 53
1, 172273, Note_on_c, 0, 60, 0
1, 172273, Note_on_c, 0, 68, 49
1, 172485, Note_on_c, 0, 68, 0
1, 172485, Note_on_c, 0, 60, 54
1, 172485, Note_on_c, 0, 54, 0
1, 172488, Note_on_c, 0, 51, 48
1, 172584, Control_c, 0, 64, 0
1, 172697, Note_on_c, 0, 60, 0
1, 172697, Note_on_c, 0, 68, 50
1, 172697, Control_c, 0, 64, 127
1, 172915, Note_on_c, 0, 68, 0
1, 172915, Note_on_c, 0, 66, 50
1, 173133, Note_on_c, 0, 66, 0
1, 173133, Note_on_c, 0, 60, 48
1, 173352, Note_on_c, 0, 60, 0
1, 173352, Note_on_c, 0, 61, 59
1, 173352, Note_on_c, 0, 51, 0
1, 173355, Note_on_c, 0, 56, 0
1, 173355, Note_on_c, 0, 53, 48
1, 173355, Control_c, 0, 64, 0
1, 173358, Note_on_c, 0, 56, 56
1, 173507, Control_c, 0, 64, 127
1, 173564, Note_on_c, 0, 61, 0
1, 173564, Note_on_c, 0, 65, 59
1, 173766, Note_on_c, 0, 65, 0
1, 173766, Note_on_c, 0, 68, 63
1, 173766, Note_on_c, 0, 56, 0
1, 173769, Note_on_c, 0, 53, 0
1, 173769, Note_on_c, 0, 51, 51
1, 173769, Note_on_c, 0, 56, 59
1, 173978, Note_on_c, 0, 68, 0
1, 173978, Note_on_c, 0, 77, 64
1, 173978, Note_on_c, 0, 56, 0
1, 173981, Note_on_c, 0, 51, 0
1, 173981, Note_on_c, 0, 49, 55
1, 173981, Note_on_c, 0, 56, 64
1, 174192, Control_c, 0, 64, 0
1, 174203, Note_on_c, 0, 77, 0
1, 174203, Note_on_c, 0, 75, 72
1, 174203, Note_on_c, 0, 56, 0
1, 174206, Note_on_c, 0, 49, 0
1, 174206, Note_on_c, 0, 48, 59
1, 174206, Note_on_c, 0, 56, 69
1, 174259, Control_c, 0, 64, 127
1, 174413, Note_on_c, 0, 75, 0
1, 174413, Note_on_c, 0, 66, 59
1, 174594, Control_c, 0, 64, 0
1, 174627, Note_on_c, 0, 66, 0
1, 174627, Note_on_c, 0, 73, 65
1, 174627, Note_on_c, 0, 56, 0
1, 174630, Note_on_c, 0, 48, 0
1, 174630, Note_on_c, 0, 49, 52
1, 174630, Note_on_c, 0, 56, 60
1, 174672, Control_c, 0, 64, 127
1, 174841, Note_on_c, 0, 73, 0
1, 174841, Note_on_c, 0, 65, 53
1, 175067, Note_on_c, 0, 65, 0
1, 175067, Note_on_c, 0, 68, 68
1, 175067, Note_on_c, 0, 56, 0
1, 175070, Note_on_c, 0, 49, 0
1, 175070, Control_c, 0, 64, 0
1, 175070, Note_on_c, 0, 56, 68
1, 175073, Note_on_c, 0, 54, 68
1, 175140, Control_c, 0, 64, 127
1, 175277, Note_on_c, 0, 68, 0
1, 175277, Note_on_c, 0, 63, 60
1, 175495, Note_on_c, 0, 63, 0
1, 175495, Note_on_c, 0, 60, 68
1, 175707, Note_on_c, 0, 60, 0
1, 175707, Note_on_c, 0, 68, 63
1, 175919, Note_on_c, 0, 68, 0
1, 175919, Note_on_c, 0, 60, 77
1, 175919, Note_on_c, 0, 54, 0
1, 175922, Note_on_c, 0, 51, 72
1, 176018, Control_c, 0, 64, 0
1, 176131, Note_on_c, 0, 60, 0
1, 176131, Note_on_c, 0, 68, 72
1, 176131, Control_c, 0, 64, 127
1, 176349, Note_on_c, 0, 68, 0
1, 176349, Note_on_c, 0, 66, 77
1, 176568, Note_on_c, 0, 66, 0
1, 176568, Note_on_c, 0, 60, 74
1, 176776, Note_on_c, 0, 60, 0
1, 176776, Note_on_c, 0, 51, 0
1, 176776, Note_on_c, 0, 56, 0
1, 176779, Note_on_c, 0, 53, 69
1, 176779, Note_on_c, 0, 56, 69
1, 176779, Control_c, 0, 64, 0
1, 176782, Note_on_c, 0, 61, 83
1, 176924, Control_c, 0, 64, 127
1, 176978, Note_on_c, 0, 80, 84
1, 177197, Note_on_c, 0, 80, 0
1, 177197, Note_on_c, 0, 68, 84
1, 177197, Note_on_c, 0, 61, 0
1, 177200, Note_on_c, 0, 56, 0
1, 177200, Note_on_c, 0, 53, 0
1, 177200, Note_on_c, 0, 54, 65
1, 177203, Note_on_c, 0, 51, 65
1, 177203, Note_on_c, 0, 61, 75
1, 177405, Note_on_c, 0, 68, 0
1, 177405, Note_on_c, 0, 80, 76
1, 177405, Note_on_c, 0, 61, 0
1, 177408, Note_on_c, 0, 51, 0
1, 177408, Note_on_c, 0, 54, 0
1, 177408, Note_on_c, 0, 49, 59
1, 177411, Note_on_c, 0, 53, 59
1, 177411, Note_on_c, 0, 61, 69
1, 177621, Control_c, 0, 64, 0
1, 177632, Note_on_c, 0, 80, 0
1, 177632, Note_on_c, 0, 78, 83
1, 177632, Note_on_c, 0, 61, 0
1, 177635, Note_on_c, 0, 53, 0
1, 177635, Note_on_c, 0, 49, 0
1, 177635, Note_on_c, 0, 54, 66
1, 177638, Note_on_c, 0, 51, 66
1, 177638, Note_on_c, 0, 60, 76
1, 177688, Control_c, 0, 64, 127
1, 177842, Note_on_c, 0, 78, 0
1, 177842, Note_on_c, 0, 68, 68
1, 178022, Control_c, 0, 64, 0
1, 178056, Note_on_c, 0, 68, 0
1, 178056, Note_on_c, 0, 77, 73
1, 178056, Note_on_c, 0, 60, 0
1, 178059, Note_on_c, 0, 51, 0
1, 178059, Note_on_c, 0, 54, 0
1, 178059, Note_on_c, 0, 56, 50
1, 178062, Note_on_c, 0, 53, 50
1, 178062, Note_on_c, 0, 61, 68
1, 178101, Control_c, 0, 64, 127
1, 178270, Note_on_c, 0, 77, 0
1, 178270, Note_on_c, 0, 68, 58
1, 178496, Note_on_c, 0, 68, 0
1, 178496, Note_on_c, 0, 75, 57
1, 178496, Note_on_c, 0, 61, 0
1, 178499, Note_on_c, 0, 53, 0
1, 178499, Note_on_c, 0, 56, 0
1, 178499, Control_c, 0, 64, 0
1, 178502, Note_on_c, 0, 54, 44
1, 178502, Note_on_c, 0, 58, 44
1, 178502, Note_on_c, 0, 63, 50
1, 178585, Control_c, 0, 64, 127
1, 178714, Note_on_c, 0, 75, 0
1, 178714, Note_on_c, 0, 70, 53
1, 178930, Note_on_c, 0, 70, 0
1, 178930, Note_on_c, 0, 66, 53
1, 179146, Note_on_c, 0, 66, 0
1, 179146, Note_on_c, 0, 75, 49
1, 179363, Note_on_c, 0, 75, 0
1, 179363, Note_on_c, 0, 68, 56
1, 179363, Note_on_c, 0, 63, 0
1, 179366, Note_on_c, 0, 58, 0
1, 179366, Note_on_c, 0, 54, 0
1, 179366, Note_on_c, 0, 56, 44
1, 179369, Note_on_c, 0, 60, 50
1, 179413, Control_c, 0, 64, 0
1, 179486, Control_c, 0, 64, 127
1, 179587, Note_on_c, 0, 68, 0
1, 179587, Note_on_c, 0, 66, 53
1, 179801, Note_on_c, 0, 66, 0
1, 179801, Note_on_c, 0, 63, 53
1, 180015, Note_on_c, 0, 63, 0
1, 180015, Note_on_c, 0, 68, 49
1, 180229, Note_on_c, 0, 68, 0
1, 180229, Note_on_c, 0, 65, 57
1, 180229, Note_on_c, 0, 60, 0
1, 180232, Note_on_c, 0, 56, 0
1, 180232, Note_on_c, 0, 56, 44
1, 180232, Note_on_c, 0, 61, 50
1, 180235, Control_c, 0, 64, 0
1, 180312, Control_c, 0, 64, 127
1, 180447, Note_on_c, 0, 65, 0
1, 180447, Note_on_c, 0, 73, 54
1, 180657, Note_on_c, 0, 73, 0
1, 180657, Note_on_c, 0, 68, 53
1, 180657, Note_on_c, 0, 61, 0
1, 180660, Note_on_c, 0, 56, 0
1, 180660, Note_on_c, 0, 49, 46
1, 180867, Note_on_c, 0, 68, 0
1, 180867, Note_on_c, 0, 65, 53
1, 181085, Note_on_c, 0, 65, 0
1, 181085, Note_on_c, 0, 61, 57
1, 181085, Note_on_c, 0, 49, 0
1, 181111, Control_c, 0, 64, 0
1, 181156, Control_c, 0, 64, 127
1, 181194, Note_on_c, 0, 68, 50
1, 181302, Note_on_c, 0, 61, 0
1, 181302, Note_on_c, 0, 68, 0
1, 181302, Note_on_c, 0, 65, 47
1, 181411, Note_on_c, 0, 65, 0
1, 181411, Note_on_c, 0, 68, 47
1, 181522, Note_on_c, 0, 68, 0
1, 181522, Note_on_c, 0, 64, 50
1, 181556, Control_c, 0, 64, 0
1, 181608, Control_c, 0, 64, 127
1, 181635, Note_on_c, 0, 64, 0
1, 181635, Note_on_c, 0, 68, 47
1, 181749, Note_on_c, 0, 68, 0
1, 181749, Note_on_c, 0, 65, 47
1, 181865, Note_on_c, 0, 65, 0
1, 181865, Note_on_c, 0, 68, 47
1, 181982, Note_on_c, 0, 68, 0
1, 181982, Control_c, 0, 64, 0
1, 181982, Note_on_c, 0, 61, 50
1, 182048, Control_c, 0, 64, 127
1, 182095, Note_on_c, 0, 61, 0
1, 182095, Note_on_c, 0, 68, 46
1, 182208, Note_on_c, 0, 68, 0
1, 182208, Note_on_c, 0, 65, 46
1, 182318, Note_on_c, 0, 65, 0
1, 182318, Note_on_c, 0, 68, 46
1, 182428, Note_on_c, 0, 80, 82
1, 182428, Note_on_c, 0, 68, 0
1, 182428, Note_on_c, 0, 73, 50
1, 182539, Note_on_c, 0, 73, 0
1, 182539, Note_on_c, 0, 68, 46
1, 182649, Note_on_c, 0, 68, 0
1, 182649, Note_on_c, 0, 65, 46
1, 182759, Note_on_c, 0, 65, 0
1, 182759, Note_on_c, 0, 68, 46
1, 182870, Note_on_c, 0, 68, 0
1, 182870, Note_on_c, 0, 61, 50
1, 182908, Control_c, 0, 64, 0
1, 182973, Control_c, 0, 64, 127
1, 182980, Note_on_c, 0, 61, 0
1, 182980, Note_on_c, 0, 70, 45
1, 183090, Note_on_c, 0, 70, 0
1, 183090, Note_on_c, 0, 66, 47
1, 183208, Note_on_c, 0, 66, 0
1, 183208, Note_on_c, 0, 70, 47
1, 183326, Note_on_c, 0, 80, 0
1, 183326, Note_on_c, 0, 82, 84
1, 183326, Note_on_c, 0, 70, 0
1, 183329, Note_on_c, 0, 73, 50
1, 183436, Note_on_c, 0, 73, 0
1, 183436, Note_on_c, 0, 70, 47
1, 183546, Note_on_c, 0, 70, 0
1, 183546, Note_on_c, 0, 66, 47
1, 183657, Note_on_c, 0, 66, 0
1, 183657, Note_on_c, 0, 70, 47
1, 183767, Note_on_c, 0, 70, 0
1, 183767, Control_c, 0, 64, 0
1, 183767, Note_on_c, 0, 61, 50
1, 183844, Control_c, 0, 64, 127
1, 183877, Note_on_c, 0, 61, 0
1, 183877, Note_on_c, 0, 68, 47
1, 183988, Note_on_c, 0, 68, 0
1, 183988, Note_on_c, 0, 65, 47
1, 184098, Note_on_c, 0, 65, 0
1, 184098, Note_on_c, 0, 68, 47
1, 184208, Note_on_c, 0, 82, 0
1, 184208, Note_on_c, 0, 80, 82
1, 184208, Note_on_c, 0, 68, 0
1, 184211, Note_on_c, 0, 73, 50
1, 184319, Note_on_c, 0, 73, 0
1, 184319, Note_on_c, 0, 68, 47
1, 184429, Note_on_c, 0, 68, 0
1, 184429, Note_on_c, 0, 65, 47
1, 184539, Note_on_c, 0, 65, 0
1, 184539, Note_on_c, 0, 68, 47
1, 184650, Note_on_c, 0, 68, 0
1, 184650, Note_on_c, 0, 61, 50
1, 184662, Control_c, 0, 64, 0
1, 184721, Control_c, 0, 64, 127
1, 184760, Note_on_c, 0, 61, 0
1, 184760, Note_on_c, 0, 68, 47
1, 184870, Note_on_c, 0, 68, 0
1, 184870, Note_on_c, 0, 65, 47
1, 184981, Note_on_c, 0, 65, 0
1, 184981, Note_on_c, 0, 68, 47
1, 185091, Note_on_c, 0, 80, 0
1, 185091, Note_on_c, 0, 73, 75
1, 185091, Note_on_c, 0, 75, 75
1, 185094, Note_on_c, 0, 82, 87
1, 185094, Note_on_c, 0, 68, 0
1, 185094, Note_on_c, 0, 54, 62
1, 185116, Control_c, 0, 64, 0
1, 185185, Control_c, 0, 64, 127
1, 185198, Note_on_c, 0, 54, 0
1, 185198, Note_on_c, 0, 66, 56
1, 185305, Note_on_c, 0, 66, 0
1, 185305, Note_on_c, 0, 63, 56
1, 185412, Note_on_c, 0, 63, 0
1, 185412, Note_on_c, 0, 66, 56
1, 185519, Note_on_c, 0, 82, 0
1, 185519, Note_on_c, 0, 75, 0
1, 185519, Note_on_c, 0, 73, 0
1, 185522, Note_on_c, 0, 73, 78
1, 185522, Note_on_c, 0, 75, 78
1, 185522, Note_on_c, 0, 80, 90
1, 185525, Note_on_c, 0, 66, 0
1, 185525, Note_on_c, 0, 56, 67
1, 185532, Control_c, 0, 64, 0
1, 185576, Control_c, 0, 64, 127
1, 185626, Note_on_c, 0, 56, 0
1, 185626, Note_on_c, 0, 66, 56
1, 185733, Note_on_c, 0, 66, 0
1, 185733, Note_on_c, 0, 63, 56
1, 185840, Note_on_c, 0, 63, 0
1, 185840, Note_on_c, 0, 66, 56
1, 185947, Note_on_c, 0, 80, 0
1, 185947, Note_on_c, 0, 75, 0
1, 185947, Note_on_c, 0, 73, 0
1, 185950, Note_on_c, 0, 73, 75
1, 185950, Note_on_c, 0, 75, 75
1, 185950, Note_on_c, 0, 80, 87
1, 185953, Note_on_c, 0, 66, 0
1, 185953, Note_on_c, 0, 56, 67
1, 186054, Note_on_c, 0, 56, 0
1, 186054, Note_on_c, 0, 66, 56
1, 186161, Note_on_c, 0, 66, 0
1, 186161, Note_on_c, 0, 63, 56
1, 186268, Note_on_c, 0, 63, 0
1, 186268, Note_on_c, 0, 66, 56
1, 186375, Note_on_c, 0, 80, 0
1, 186375, Note_on_c, 0, 75, 0
1, 186375, Note_on_c, 0, 73, 0
1, 186378, Note_on_c, 0, 72, 79
1, 186378, Note_on_c, 0, 75, 79
1, 186378, Note_on_c, 0, 80, 91
1, 186381, Note_on_c, 0, 66, 0
1, 186381, Note_on_c, 0, 56, 69
1, 186420, Control_c, 0, 64, 0
1, 186483, Note_on_c, 0, 56, 0
1, 186483, Note_on_c, 0, 66, 56
1, 186508, Control_c, 0, 64, 127
1, 186591, Note_on_c, 0, 66, 0
1, 186591, Note_on_c, 0, 63, 56
1, 186699, Note_on_c, 0, 63, 0
1, 186699, Note_on_c, 0, 66, 56
1, 186807, Note_on_c, 0, 80, 0
1, 186807, Note_on_c, 0, 75, 0
1, 186807, Note_on_c, 0, 72, 0
1, 186810, Note_on_c, 0, 72, 75
1, 186810, Note_on_c, 0, 75, 75
1, 186810, Note_on_c, 0, 80, 86
1, 186813, Note_on_c, 0, 66, 0
1, 186813, Note_on_c, 0, 56, 68
1, 186915, Note_on_c, 0, 56, 0
1, 186915, Note_on_c, 0, 66, 56
1, 187023, Note_on_c, 0, 66, 0
1, 187023, Note_on_c, 0, 63, 56
1, 187131, Note_on_c, 0, 63, 0
1, 187131, Note_on_c, 0, 66, 56
1, 187239, Note_on_c, 0, 80, 0
1, 187239, Note_on_c, 0, 75, 0
1, 187239, Note_on_c, 0, 72, 0
1, 187242, Note_on_c, 0, 73, 78
1, 187242, Note_on_c, 0, 77, 78
1, 187242, Note_on_c, 0, 80, 90
1, 187245, Note_on_c, 0, 66, 0
1, 187245, Note_on_c, 0, 61, 56
1, 187291, Control_c, 0, 64, 0
1, 187311, Control_c, 0, 64, 127
1, 187350, Note_on_c, 0, 61, 0
1, 187350, Note_on_c, 0, 63, 57
1, 187462, Note_on_c, 0, 63, 0
1, 187462, Note_on_c, 0, 65, 58
1, 187572, Note_on_c, 0, 65, 0
1, 187572, Note_on_c, 0, 66, 59
1, 187682, Note_on_c, 0, 80, 0
1, 187682, Note_on_c, 0, 77, 0
1, 187682, Note_on_c, 0, 73, 0
1, 187685, Note_on_c, 0, 66, 0
1, 187685, Note_on_c, 0, 68, 62
1, 187702, Control_c, 0, 64, 0
1, 187746, Control_c, 0, 64, 127
1, 187792, Note_on_c, 0, 68, 0
1, 187792, Note_on_c, 0, 70, 59
1, 187901, Note_on_c, 0, 70, 0
1, 187901, Note_on_c, 0, 68, 61
1, 188009, Note_on_c, 0, 68, 0
1, 188009, Note_on_c, 0, 66, 60
1, 188117, Note_on_c, 0, 66, 0
1, 188117, Note_on_c, 0, 65, 55
1, 188129, Control_c, 0, 64, 0
1, 188174, Control_c, 0, 64, 127
1, 188224, Note_on_c, 0, 65, 0
1, 188224, Note_on_c, 0, 66, 57
1, 188332, Note_on_c, 0, 66, 0
1, 188332, Note_on_c, 0, 68, 58
1, 188441, Note_on_c, 0, 68, 0
1, 188441, Note_on_c, 0, 70, 59
1, 188551, Note_on_c, 0, 70, 0
1, 188551, Note_on_c, 0, 72, 64
1, 188564, Control_c, 0, 64, 0
1, 188603, Control_c, 0, 64, 127
1, 188663, Note_on_c, 0, 72, 0
1, 188663, Note_on_c, 0, 73, 56
1, 188777, Note_on_c, 0, 73, 0
1, 188777, Note_on_c, 0, 68, 60
1, 188891, Note_on_c, 0, 68, 0
1, 188891, Note_on_c, 0, 66, 56
1, 189008, Note_on_c, 0, 66, 0
1, 189008, Control_c, 0, 64, 0
1, 189008, Note_on_c, 0, 65, 50
1, 189074, Control_c, 0, 64, 127
1, 189121, Note_on_c, 0, 65, 0
1, 189121, Note_on_c, 0, 73, 46
1, 189234, Note_on_c, 0, 73, 0
1, 189234, Note_on_c, 0, 68, 46
1, 189344, Note_on_c, 0, 68, 0
1, 189344, Note_on_c, 0, 73, 46
1, 189454, Note_on_c, 0, 85, 82
1, 189454, Note_on_c, 0, 80, 70
1, 189454, Note_on_c, 0, 73, 0
1, 189457, Note_on_c, 0, 77, 50
1, 189565, Note_on_c, 0, 77, 0
1, 189565, Note_on_c, 0, 73, 46
1, 189675, Note_on_c, 0, 73, 0
1, 189675, Note_on_c, 0, 68, 46
1, 189785, Note_on_c, 0, 68, 0
1, 189785, Note_on_c, 0, 73, 46
1, 189896, Note_on_c, 0, 73, 0
1, 189896, Note_on_c, 0, 66, 50
1, 189934, Control_c, 0, 64, 0
1, 189999, Control_c, 0, 64, 127
1, 190006, Note_on_c, 0, 66, 0
1, 190006, Note_on_c, 0, 73, 45
1, 190116, Note_on_c, 0, 73, 0
1, 190116, Note_on_c, 0, 70, 47
1, 190234, Note_on_c, 0, 70, 0
1, 190234, Note_on_c, 0, 73, 47
1, 190351, Note_on_c, 0, 80, 0
1, 190351, Note_on_c, 0, 85, 0
1, 190351, Note_on_c, 0, 85, 83
1, 190354, Note_on_c, 0, 82, 71
1, 190354, Note_on_c, 0, 73, 0
1, 190354, Note_on_c, 0, 78, 50
1, 190462, Note_on_c, 0, 78, 0
1, 190462, Note_on_c, 0, 73, 47
1, 190572, Note_on_c, 0, 73, 0
1, 190572, Note_on_c, 0, 70, 47
1, 190682, Note_on_c, 0, 70, 0
1, 190682, Note_on_c, 0, 73, 47
1, 190793, Note_on_c, 0, 73, 0
1, 190793, Control_c, 0, 64, 0
1, 190793, Note_on_c, 0, 65, 50
1, 190870, Control_c, 0, 64, 127
1, 190903, Note_on_c, 0, 65, 0
1, 190903, Note_on_c, 0, 73, 47
1, 191013, Note_on_c, 0, 73, 0
1, 191013, Note_on_c, 0, 68, 47
1, 191124, Note_on_c, 0, 68, 0
1, 191124, Note_on_c, 0, 73, 47
1, 191234, Note_on_c, 0, 82, 0
1, 191234, Note_on_c, 0, 85, 0
1, 191234, Note_on_c, 0, 85, 84
1, 191237, Note_on_c, 0, 80, 73
1, 191237, Note_on_c, 0, 73, 0
1, 191237, Note_on_c, 0, 77, 50
1, 191344, Note_on_c, 0, 77, 0
1, 191344, Note_on_c, 0, 73, 47
1, 191455, Note_on_c, 0, 73, 0
1, 191455, Note_on_c, 0, 68, 47
1, 191565, Note_on_c, 0, 68, 0
1, 191565, Note_on_c, 0, 73, 47
1, 191675, Note_on_c, 0, 73, 0
1, 191675, Note_on_c, 0, 65, 50
1, 191688, Control_c, 0, 64, 0
1, 191747, Control_c, 0, 64, 127
1, 191786, Note_on_c, 0, 65, 0
1, 191786, Note_on_c, 0, 73, 47
1, 191896, Note_on_c, 0, 73, 0
1, 191896, Note_on_c, 0, 68, 47
1, 192006, Note_on_c, 0, 68, 0
1, 192006, Note_on_c, 0, 73, 47
1, 192117, Note_on_c, 0, 80, 0
1, 192117, Note_on_c, 0, 85, 0
1, 192117, Note_on_c, 0, 73, 75
1, 192120, Note_on_c, 0, 79, 75
1, 192120, Note_on_c, 0, 85, 87
1, 192120, Note_on_c, 0, 73, 0
1, 192123, Note_on_c, 0, 64, 62
1, 192142, Control_c, 0, 64, 0
1, 192212, Control_c, 0, 64, 127
1, 192225, Note_on_c, 0, 64, 0
1, 192225, Note_on_c, 0, 70, 56
1, 192333, Note_on_c, 0, 70, 0
1, 192333, Note_on_c, 0, 67, 56
1, 192441, Note_on_c, 0, 67, 0
1, 192441, Note_on_c, 0, 70, 56
1, 192549, Note_on_c, 0, 85, 0
1, 192549, Note_on_c, 0, 79, 0
1, 192549, Note_on_c, 0, 73, 0
1, 192552, Note_on_c, 0, 73, 78
1, 192552, Note_on_c, 0, 78, 78
1, 192552, Note_on_c, 0, 85, 90
1, 192555, Note_on_c, 0, 70, 0
1, 192555, Note_on_c, 0, 63, 67
1, 192562, Control_c, 0, 64, 0
1, 192606, Control_c, 0, 64, 127
1, 192655, Note_on_c, 0, 63, 0
1, 192655, Note_on_c, 0, 69, 56
1, 192761, Note_on_c, 0, 69, 0
1, 192761, Note_on_c, 0, 66, 56
1, 192867, Note_on_c, 0, 66, 0
1, 192867, Note_on_c, 0, 69, 56
1, 192973, Note_on_c, 0, 85, 0
1, 192973, Note_on_c, 0, 78, 0
1, 192973, Note_on_c, 0, 73, 0
1, 192976, Note_on_c, 0, 73, 75
1, 192976, Note_on_c, 0, 78, 75
1, 192976, Note_on_c, 0, 85, 87
1, 192979, Note_on_c, 0, 69, 0
1, 192979, Note_on_c, 0, 63, 67
1, 193081, Note_on_c, 0, 63, 0
1, 193081, Note_on_c, 0, 69, 56
1, 193189, Note_on_c, 0, 69, 0
1, 193189, Note_on_c, 0, 66, 56
1, 193297, Note_on_c, 0, 66, 0
1, 193297, Note_on_c, 0, 69, 56
1, 193405, Note_on_c, 0, 85, 0
1, 193405, Note_on_c, 0, 78, 0
1, 193405, Note_on_c, 0, 73, 0
1, 193408, Note_on_c, 0, 72, 79
1, 193408, Note_on_c, 0, 78, 79
1, 193408, Note_on_c, 0, 84, 91
1, 193411, Note_on_c, 0, 69, 0
1, 193411, Note_on_c, 0, 63, 69
1, 193451, Control_c, 0, 64, 0
1, 193515, Note_on_c, 0, 63, 0
1, 193515, Note_on_c, 0, 68, 56
1, 193540, Control_c, 0, 64, 127
1, 193624, Note_on_c, 0, 68, 0
1, 193624, Note_on_c, 0, 66, 56
1, 193733, Note_on_c, 0, 66, 0
1, 193733, Note_on_c, 0, 68, 56
1, 193842, Note_on_c, 0, 84, 0
1, 193842, Note_on_c, 0, 78, 0
1, 193842, Note_on_c, 0, 72, 0
1, 193845, Note_on_c, 0, 72, 75
1, 193845, Note_on_c, 0, 78, 75
1, 193845, Note_on_c, 0, 84, 86
1, 193848, Note_on_c, 0, 68, 0
1, 193848, Note_on_c, 0, 63, 68
1, 193952, Note_on_c, 0, 63, 0
1, 193952, Note_on_c, 0, 68, 56
1, 194061, Note_on_c, 0, 68, 0
1, 194061, Note_on_c, 0, 66, 56
1, 194170, Note_on_c, 0, 66, 0
1, 194170, Note_on_c, 0, 68, 56
1, 194279, Note_on_c, 0, 84, 0
1, 194279, Note_on_c, 0, 78, 0
1, 194279, Note_on_c, 0, 72, 0
1, 194282, Note_on_c, 0, 85, 76
1, 194282, Note_on_c, 0, 68, 0
1, 194282, Note_on_c, 0, 61, 78
1, 194285, Note_on_c, 0, 65, 78
1, 194285, Note_on_c, 0, 68, 90
1, 194351, Control_c, 0, 64, 0
1, 194390, Note_on_c, 0, 85, 0
1, 194390, Note_on_c, 0, 87, 67
1, 194397, Control_c, 0, 64, 127
1, 194501, Note_on_c, 0, 87, 0
1, 194501, Note_on_c, 0, 89, 69
1, 194613, Note_on_c, 0, 89, 0
1, 194613, Note_on_c, 0, 84, 70
1, 194723, Note_on_c, 0, 84, 0
1, 194723, Note_on_c, 0, 85, 76
1, 194723, Note_on_c, 0, 68, 0
1, 194726, Note_on_c, 0, 65, 0
1, 194726, Note_on_c, 0, 61, 0
1, 194834, Note_on_c, 0, 85, 0
1, 194834, Note_on_c, 0, 80, 66
1, 194943, Note_on_c, 0, 80, 0
1, 194943, Note_on_c, 0, 82, 68
1, 195052, Note_on_c, 0, 82, 0
1, 195052, Note_on_c, 0, 78, 67
1, 195161, Note_on_c, 0, 78, 0
1, 195161, Note_on_c, 0, 77, 61
1, 195174, Control_c, 0, 64, 0
1, 195231, Control_c, 0, 64, 127
1, 195269, Note_on_c, 0, 77, 0
1, 195269, Note_on_c, 0, 80, 64
1, 195379, Note_on_c, 0, 80, 0
1, 195379, Note_on_c, 0, 78, 65
1, 195488, Note_on_c, 0, 78, 0
1, 195488, Note_on_c, 0, 75, 66
1, 195599, Note_on_c, 0, 75, 0
1, 195599, Note_on_c, 0, 73, 73
1, 195711, Note_on_c, 0, 73, 0
1, 195711, Note_on_c, 0, 77, 63
1, 195823, Note_on_c, 0, 77, 0
1, 195823, Note_on_c, 0, 75, 67
1, 195937, Note_on_c, 0, 75, 0
1, 195937, Note_on_c, 0, 72, 63
1, 196051, Note_on_c, 0, 72, 0
1, 196051, Note_on_c, 0, 73, 62
1, 196051, Control_c, 0, 64, 0
1, 196110, Control_c, 0, 64, 127
1, 196164, Note_on_c, 0, 73, 0
1, 196164, Note_on_c, 0, 75, 56
1, 196277, Note_on_c, 0, 75, 0
1, 196277, Note_on_c, 0, 73, 56
1, 196387, Note_on_c, 0, 73, 0
1, 196387, Note_on_c, 0, 72, 56
1, 196497, Note_on_c, 0, 72, 0
1, 196497, Note_on_c, 0, 73, 62
1, 196497, Note_on_c, 0, 61, 62
1, 196500, Note_on_c, 0, 68, 72
1, 196500, Note_on_c, 0, 65, 62
1, 196514, Control_c, 0, 64, 0
1, 196554, Control_c, 0, 64, 127
1, 196608, Note_on_c, 0, 73, 0
1, 196608, Note_on_c, 0, 80, 56
1, 196718, Note_on_c, 0, 80, 0
1, 196718, Note_on_c, 0, 79, 56
1, 196828, Note_on_c, 0, 79, 0
1, 196828, Note_on_c, 0, 80, 56
1, 196939, Note_on_c, 0, 80, 0
1, 196939, Note_on_c, 0, 73, 62
1, 197049, Note_on_c, 0, 73, 0
1, 197049, Note_on_c, 0, 75, 55
1, 197159, Note_on_c, 0, 75, 0
1, 197159, Note_on_c, 0, 73, 58
1, 197277, Note_on_c, 0, 73, 0
1, 197277, Note_on_c, 0, 72, 58
1, 197395, Note_on_c, 0, 72, 0
1, 197395, Note_on_c, 0, 73, 62
1, 197395, Note_on_c, 0, 65, 0
1, 197398, Note_on_c, 0, 68, 0
1, 197398, Note_on_c, 0, 61, 0
1, 197398, Note_on_c, 0, 61, 63
1, 197401, Note_on_c, 0, 70, 73
1, 197401, Note_on_c, 0, 66, 63
1, 197415, Control_c, 0, 64, 0
1, 197452, Control_c, 0, 64, 127
1, 197505, Note_on_c, 0, 73, 0
1, 197505, Note_on_c, 0, 82, 58
1, 197615, Note_on_c, 0, 82, 0
1, 197615, Note_on_c, 0, 81, 58
1, 197726, Note_on_c, 0, 81, 0
1, 197726, Note_on_c, 0, 82, 58
1, 197836, Note_on_c, 0, 82, 0
1, 197836, Note_on_c, 0, 73, 62
1, 197946, Note_on_c, 0, 73, 0
1, 197946, Note_on_c, 0, 75, 58
1, 198057, Note_on_c, 0, 75, 0
1, 198057, Note_on_c, 0, 73, 58
1, 198167, Note_on_c, 0, 73, 0
1, 198167, Note_on_c, 0, 72, 58
1, 198272, Control_c, 0, 64, 0
1, 198277, Note_on_c, 0, 72, 0
1, 198277, Note_on_c, 0, 73, 62
1, 198277, Note_on_c, 0, 66, 0
1, 198280, Note_on_c, 0, 70, 0
1, 198280, Note_on_c, 0, 61, 0
1, 198280, Note_on_c, 0, 61, 64
1, 198283, Note_on_c, 0, 68, 73
1, 198283, Note_on_c, 0, 65, 64
1, 198303, Control_c, 0, 64, 127
1, 198388, Note_on_c, 0, 73, 0
1, 198388, Note_on_c, 0, 80, 58
1, 198498, Note_on_c, 0, 80, 0
1, 198498, Note_on_c, 0, 79, 58
1, 198608, Note_on_c, 0, 79, 0
1, 198608, Note_on_c, 0, 80, 58
1, 198719, Note_on_c, 0, 80, 0
1, 198719, Note_on_c, 0, 73, 62
1, 198829, Note_on_c, 0, 73, 0
1, 198829, Note_on_c, 0, 80, 58
1, 198939, Note_on_c, 0, 80, 0
1, 198939, Note_on_c, 0, 79, 58
1, 199050, Note_on_c, 0, 79, 0
1, 199050, Note_on_c, 0, 80, 58
1, 199160, Note_on_c, 0, 80, 0
1, 199160, Note_on_c, 0, 73, 83
1, 199160, Note_on_c, 0, 65, 0
1, 199163, Note_on_c, 0, 68, 0
1, 199163, Note_on_c, 0, 61, 0
1, 199163, Control_c, 0, 64, 0
1, 199166, Note_on_c, 0, 63, 68
1, 199166, Note_on_c, 0, 54, 68
1, 199166, Note_on_c, 0, 61, 68
1, 199169, Note_on_c, 0, 66, 81
1, 199211, Control_c, 0, 64, 127
1, 199266, Note_on_c, 0, 73, 0
1, 199266, Note_on_c, 0, 82, 73
1, 199372, Note_on_c, 0, 82, 0
1, 199372, Note_on_c, 0, 81, 73
1, 199478, Note_on_c, 0, 81, 0
1, 199478, Note_on_c, 0, 82, 73
1, 199584, Note_on_c, 0, 82, 0
1, 199584, Note_on_c, 0, 73, 90
1, 199584, Note_on_c, 0, 66, 0
1, 199587, Note_on_c, 0, 63, 0
1, 199587, Note_on_c, 0, 54, 0
1, 199587, Note_on_c, 0, 61, 0
1, 199590, Control_c, 0, 64, 0
1, 199590, Note_on_c, 0, 61, 72
1, 199590, Note_on_c, 0, 56, 72
1, 199593, Note_on_c, 0, 63, 72
1, 199593, Note_on_c, 0, 66, 85
1, 199636, Control_c, 0, 64, 127
1, 199692, Note_on_c, 0, 73, 0
1, 199692, Note_on_c, 0, 80, 76
1, 199800, Note_on_c, 0, 80, 0
1, 199800, Note_on_c, 0, 79, 77
1, 199908, Note_on_c, 0, 79, 0
1, 199908, Note_on_c, 0, 80, 77
1, 200016, Note_on_c, 0, 80, 0
1, 200016, Note_on_c, 0, 73, 90
1, 200016, Note_on_c, 0, 66, 0
1, 200019, Note_on_c, 0, 61, 0
1, 200019, Note_on_c, 0, 56, 0
1, 200019, Note_on_c, 0, 63, 0
1, 200022, Note_on_c, 0, 61, 68
1, 200022, Note_on_c, 0, 56, 68
1, 200022, Note_on_c, 0, 63, 68
1, 200025, Note_on_c, 0, 66, 81
1, 200124, Note_on_c, 0, 73, 0
1, 200124, Note_on_c, 0, 80, 76
1, 200232, Note_on_c, 0, 80, 0
1, 200232, Note_on_c, 0, 79, 76
1, 200340, Note_on_c, 0, 79, 0
1, 200340, Note_on_c, 0, 80, 76
1, 200448, Note_on_c, 0, 80, 0
1, 200448, Note_on_c, 0, 72, 93
1, 200448, Note_on_c, 0, 66, 0
1, 200451, Note_on_c, 0, 61, 0
1, 200451, Note_on_c, 0, 56, 0
1, 200451, Note_on_c, 0, 63, 0
1, 200454, Note_on_c, 0, 60, 65
1, 200454, Note_on_c, 0, 56, 64
1, 200454, Note_on_c, 0, 63, 70
1, 200457, Note_on_c, 0, 66, 83
1, 200464, Control_c, 0, 64, 0
1, 200509, Control_c, 0, 64, 127
1, 200556, Note_on_c, 0, 72, 0
1, 200556, Note_on_c, 0, 80, 77
1, 200664, Note_on_c, 0, 80, 0
1, 200664, Note_on_c, 0, 79, 77
1, 200772, Note_on_c, 0, 79, 0
1, 200772, Note_on_c, 0, 80, 77
1, 200880, Note_on_c, 0, 80, 0
1, 200880, Note_on_c, 0, 72, 91
1, 200880, Note_on_c, 0, 66, 0
1, 200883, Note_on_c, 0, 60, 0
1, 200883, Note_on_c, 0, 56, 0
1, 200883, Note_on_c, 0, 63, 0
1, 200886, Note_on_c, 0, 60, 63
1, 200886, Note_on_c, 0, 56, 62
1, 200886, Note_on_c, 0, 63, 67
1, 200889, Note_on_c, 0, 66, 77
1, 200988, Note_on_c, 0, 72, 0
1, 200988, Note_on_c, 0, 80, 73
1, 201096, Note_on_c, 0, 80, 0
1, 201096, Note_on_c, 0, 79, 73
1, 201204, Note_on_c, 0, 79, 0
1, 201204, Note_on_c, 0, 80, 73
1, 201312, Note_on_c, 0, 80, 0
1, 201312, Note_on_c, 0, 80, 63
1, 201312, Note_on_c, 0, 66, 0
1, 201315, Note_on_c, 0, 60, 0
1, 201315, Note_on_c, 0, 56, 0
1, 201315, Note_on_c, 0, 63, 0
1, 201318, Note_on_c, 0, 61, 75
1, 201318, Note_on_c, 0, 65, 86
1, 201383, Control_c, 0, 64, 0
1, 201422, Note_on_c, 0, 80, 0
1, 201422, Note_on_c, 0, 78, 64
1, 201430, Control_c, 0, 64, 127
1, 201534, Note_on_c, 0, 78, 0
1, 201534, Note_on_c, 0, 77, 65
1, 201645, Note_on_c, 0, 77, 0
1, 201645, Note_on_c, 0, 75, 66
1, 201755, Note_on_c, 0, 75, 0
1, 201755, Note_on_c, 0, 73, 70
1, 201755, Note_on_c, 0, 65, 0
1, 201758, Note_on_c, 0, 61, 0
1, 201866, Note_on_c, 0, 73, 0
1, 201866, Note_on_c, 0, 75, 66
1, 201975, Note_on_c, 0, 75, 0
1, 201975, Note_on_c, 0, 77, 68
1, 202085, Note_on_c, 0, 77, 0
1, 202085, Note_on_c, 0, 78, 67
1, 202193, Note_on_c, 0, 78, 0
1, 202193, Note_on_c, 0, 80, 61
1, 202206, Control_c, 0, 64, 0
1, 202264, Control_c, 0, 64, 127
1, 202302, Note_on_c, 0, 80, 0
1, 202302, Note_on_c, 0, 78, 64
1, 202411, Note_on_c, 0, 78, 0
1, 202411, Note_on_c, 0, 77, 65
1, 202521, Note_on_c, 0, 77, 0
1, 202521, Note_on_c, 0, 78, 66
1, 202631, Note_on_c, 0, 78, 0
1, 202631, Note_on_c, 0, 80, 73
1, 202743, Note_on_c, 0, 80, 0
1, 202743, Note_on_c, 0, 82, 63
1, 202856, Note_on_c, 0, 82, 0
1, 202856, Note_on_c, 0, 84, 67
1, 202969, Note_on_c, 0, 84, 0
1, 202969, Note_on_c, 0, 85, 63
1, 203084, Note_on_c, 0, 85, 0
1, 203084, Note_on_c, 0, 77, 62
1, 203084, Control_c, 0, 64, 0
1, 203142, Control_c, 0, 64, 127
1, 203196, Note_on_c, 0, 77, 0
1, 203196, Note_on_c, 0, 78, 56
1, 203309, Note_on_c, 0, 78, 0
1, 203309, Note_on_c, 0, 77, 56
1, 203419, Note_on_c, 0, 77, 0
1, 203419, Note_on_c, 0, 76, 56
1, 203530, Note_on_c, 0, 76, 0
1, 203530, Note_on_c, 0, 77, 62
1, 203530, Note_on_c, 0, 73, 72
1, 203533, Note_on_c, 0, 68, 62
1, 203546, Control_c, 0, 64, 0
1, 203587, Control_c, 0, 64, 127
1, 203640, Note_on_c, 0, 77, 0
1, 203640, Note_on_c, 0, 85, 56
1, 203750, Note_on_c, 0, 85, 0
1, 203750, Note_on_c, 0, 84, 56
1, 203861, Note_on_c, 0, 84, 0
1, 203861, Note_on_c, 0, 85, 56
1, 203971, Note_on_c, 0, 85, 0
1, 203971, Note_on_c, 0, 78, 62
1, 204081, Note_on_c, 0, 78, 0
1, 204081, Note_on_c, 0, 80, 55
1, 204192, Note_on_c, 0, 80, 0
1, 204192, Note_on_c, 0, 78, 58
1, 204309, Note_on_c, 0, 78, 0
1, 204309, Note_on_c, 0, 77, 58
1, 204427, Note_on_c, 0, 77, 0
1, 204427, Note_on_c, 0, 78, 62
1, 204427, Note_on_c, 0, 68, 0
1, 204430, Note_on_c, 0, 73, 0
1, 204430, Note_on_c, 0, 73, 73
1, 204430, Note_on_c, 0, 70, 63
1, 204447, Control_c, 0, 64, 0
1, 204484, Control_c, 0, 64, 127
1, 204537, Note_on_c, 0, 78, 0
1, 204537, Note_on_c, 0, 85, 58
1, 204648, Note_on_c, 0, 85, 0
1, 204648, Note_on_c, 0, 84, 58
1, 204758, Note_on_c, 0, 84, 0
1, 204758, Note_on_c, 0, 85, 58
1, 204868, Note_on_c, 0, 85, 0
1, 204868, Note_on_c, 0, 77, 62
1, 204979, Note_on_c, 0, 77, 0
1, 204979, Note_on_c, 0, 78, 58
1, 205089, Note_on_c, 0, 78, 0
1, 205089, Note_on_c, 0, 77, 58
1, 205199, Note_on_c, 0, 77, 0
1, 205199, Note_on_c, 0, 76, 58
1, 205304, Control_c, 0, 64, 0
1, 205310, Note_on_c, 0, 76, 0
1, 205310, Note_on_c, 0, 77, 62
1, 205310, Note_on_c, 0, 70, 0
1, 205313, Note_on_c, 0, 73, 0
1, 205313, Note_on_c, 0, 73, 73
1, 205313, Note_on_c, 0, 68, 64
1, 205335, Control_c, 0, 64, 127
1, 205420, Note_on_c, 0, 77, 0
1, 205420, Note_on_c, 0, 85, 58
1, 205530, Note_on_c, 0, 85, 0
1, 205530, Note_on_c, 0, 84, 58
1, 205641, Note_on_c, 0, 84, 0
1, 205641, Note_on_c, 0, 85, 58
1, 205751, Note_on_c, 0, 85, 0
1, 205751, Note_on_c, 0, 77, 62
1, 205861, Note_on_c, 0, 77, 0
1, 205861, Note_on_c, 0, 85, 58
1, 205972, Note_on_c, 0, 85, 0
1, 205972, Note_on_c, 0, 84, 58
1, 206082, Note_on_c, 0, 84, 0
1, 206082, Note_on_c, 0, 85, 58
1, 206192, Note_on_c, 0, 85, 0
1, 206192, Note_on_c, 0, 79, 83
1, 206192, Note_on_c, 0, 76, 70
1, 206195, Note_on_c, 0, 68, 0
1, 206195, Note_on_c, 0, 73, 0
1, 206195, Control_c, 0, 64, 0
1, 206198, Note_on_c, 0, 69, 81
1, 206244, Control_c, 0, 64, 127
1, 206299, Note_on_c, 0, 76, 0
1, 206299, Note_on_c, 0, 79, 0
1, 206299, Note_on_c, 0, 85, 73
1, 206406, Note_on_c, 0, 85, 0
1, 206406, Note_on_c, 0, 84, 73
1, 206513, Note_on_c, 0, 84, 0
1, 206513, Note_on_c, 0, 85, 73
1, 206620, Note_on_c, 0, 85, 0
1, 206620, Note_on_c, 0, 78, 90
1, 206620, Note_on_c, 0, 75, 76
1, 206623, Note_on_c, 0, 69, 0
1, 206623, Control_c, 0, 64, 0
1, 206623, Note_on_c, 0, 68, 85
1, 206673, Control_c, 0, 64, 127
1, 206730, Note_on_c, 0, 75, 0
1, 206730, Note_on_c, 0, 78, 0
1, 206730, Note_on_c, 0, 85, 76
1, 206839, Note_on_c, 0, 85, 0
1, 206839, Note_on_c, 0, 84, 76
1, 206948, Note_on_c, 0, 84, 0
1, 206948, Note_on_c, 0, 85, 76
1, 207057, Note_on_c, 0, 85, 0
1, 207057, Note_on_c, 0, 78, 90
1, 207057, Note_on_c, 0, 75, 76
1, 207060, Note_on_c, 0, 68, 0
1, 207060, Note_on_c, 0, 68, 81
1, 207166, Note_on_c, 0, 75, 0
1, 207166, Note_on_c, 0, 78, 0
1, 207166, Note_on_c, 0, 85, 77
1, 207276, Note_on_c, 0, 85, 0
1, 207276, Note_on_c, 0, 84, 77
1, 207385, Note_on_c, 0, 84, 0
1, 207385, Note_on_c, 0, 85, 77
1, 207494, Note_on_c, 0, 85, 0
1, 207494, Note_on_c, 0, 78, 93
1, 207494, Note_on_c, 0, 75, 78
1, 207497, Note_on_c, 0, 68, 0
1, 207497, Note_on_c, 0, 56, 86
1, 207511, Control_c, 0, 64, 0
1, 207556, Control_c, 0, 64, 127
1, 207603, Note_on_c, 0, 75, 0
1, 207603, Note_on_c, 0, 78, 0
1, 207603, Note_on_c, 0, 84, 77
1, 207713, Note_on_c, 0, 84, 0
1, 207713, Note_on_c, 0, 83, 77
1, 207822, Note_on_c, 0, 83, 0
1, 207822, Note_on_c, 0, 84, 77
1, 207931, Note_on_c, 0, 84, 0
1, 207931, Note_on_c, 0, 78, 91
1, 207931, Note_on_c, 0, 75, 78
1, 207934, Note_on_c, 0, 56, 0
1, 207934, Note_on_c, 0, 56, 80
1, 208042, Note_on_c, 0, 75, 0
1, 208042, Note_on_c, 0, 78, 0
1, 208042, Note_on_c, 0, 84, 77
1, 208154, Note_on_c, 0, 84, 0
1, 208154, Note_on_c, 0, 83, 77
1, 208265, Note_on_c, 0, 83, 0
1, 208265, Note_on_c, 0, 84, 77
1, 208377, Note_on_c, 0, 84, 0
1, 208377, Note_on_c, 0, 73, 84
1, 208377, Note_on_c, 0, 77, 84
1, 208380, Note_on_c, 0, 85, 97
1, 208380, Note_on_c, 0, 56, 0
1, 208380, Note_on_c, 0, 56, 64
1, 208429, Control_c, 0, 64, 0
1, 208449, Control_c, 0, 64, 127
1, 208488, Note_on_c, 0, 56, 0
1, 208488, Note_on_c, 0, 58, 65
1, 208600, Note_on_c, 0, 58, 0
1, 208600, Note_on_c, 0, 60, 67
1, 208710, Note_on_c, 0, 60, 0
1, 208710, Note_on_c, 0, 61, 68
1, 208821, Note_on_c, 0, 85, 0
1, 208821, Note_on_c, 0, 77, 0
1, 208821, Note_on_c, 0, 73, 0
1, 208824, Note_on_c, 0, 61, 0
1, 208824, Note_on_c, 0, 60, 69
1, 208841, Control_c, 0, 64, 0
1, 208884, Control_c, 0, 64, 127
1, 208930, Note_on_c, 0, 60, 0
1, 208930, Note_on_c, 0, 61, 63
1, 209039, Note_on_c, 0, 61, 0
1, 209039, Note_on_c, 0, 63, 66
1, 209147, Note_on_c, 0, 63, 0
1, 209147, Note_on_c, 0, 65, 63
1, 209255, Note_on_c, 0, 65, 0
1, 209255, Note_on_c, 0, 63, 58
1, 209267, Control_c, 0, 64, 0
1, 209312, Control_c, 0, 64, 127
1, 209362, Note_on_c, 0, 63, 0
1, 209362, Note_on_c, 0, 65, 59
1, 209470, Note_on_c, 0, 65, 0
1, 209470, Note_on_c, 0, 66, 60
1, 209579, Note_on_c, 0, 66, 0
1, 209579, Note_on_c, 0, 68, 61
1, 209690, Note_on_c, 0, 68, 0
1, 209690, Note_on_c, 0, 70, 64
1, 209703, Control_c, 0, 64, 0
1, 209742, Control_c, 0, 64, 127
1, 209801, Note_on_c, 0, 70, 0
1, 209801, Note_on_c, 0, 72, 56
1, 209915, Note_on_c, 0, 72, 0
1, 209915, Note_on_c, 0, 73, 60
1, 210030, Note_on_c, 0, 73, 0
1, 210030, Note_on_c, 0, 68, 56
1, 210146, Note_on_c, 0, 68, 0
1, 210146, Control_c, 0, 64, 0
1, 210146, Note_on_c, 0, 66, 50
1, 210212, Control_c, 0, 64, 127
1, 210259, Note_on_c, 0, 66, 0
1, 210259, Note_on_c, 0, 75, 46
1, 210372, Note_on_c, 0, 75, 0
1, 210372, Note_on_c, 0, 72, 46
1, 210482, Note_on_c, 0, 72, 0
1, 210482, Note_on_c, 0, 75, 46
1, 210592, Note_on_c, 0, 80, 79
1, 210592, Note_on_c, 0, 75, 0
1, 210592, Note_on_c, 0, 71, 50
1, 210703, Note_on_c, 0, 71, 0
1, 210703, Note_on_c, 0, 75, 46
1, 210813, Note_on_c, 0, 75, 0
1, 210813, Note_on_c, 0, 72, 46
1, 210923, Note_on_c, 0, 72, 0
1, 210923, Note_on_c, 0, 75, 46
1, 211034, Note_on_c, 0, 75, 0
1, 211034, Note_on_c, 0, 78, 67
1, 211070, Control_c, 0, 64, 0
1, 211104, Control_c, 0, 64, 127
1, 211139, Note_on_c, 0, 78, 0
1, 211139, Note_on_c, 0, 75, 45
1, 211243, Note_on_c, 0, 75, 0
1, 211243, Note_on_c, 0, 72, 47
1, 211348, Note_on_c, 0, 72, 0
1, 211348, Note_on_c, 0, 75, 47
1, 211453, Note_on_c, 0, 80, 0
1, 211453, Note_on_c, 0, 80, 69
1, 211453, Note_on_c, 0, 75, 0
1, 211456, Note_on_c, 0, 66, 50
1, 211564, Note_on_c, 0, 66, 0
1, 211564, Note_on_c, 0, 75, 47
1, 211674, Note_on_c, 0, 75, 0
1, 211674, Note_on_c, 0, 72, 47
1, 211784, Note_on_c, 0, 72, 0
1, 211784, Note_on_c, 0, 75, 47
1, 211895, Note_on_c, 0, 80, 0
1, 211895, Note_on_c, 0, 80, 69
1, 211895, Note_on_c, 0, 75, 0
1, 211898, Control_c, 0, 64, 0
1, 211898, Note_on_c, 0, 65, 50
1, 211970, Control_c, 0, 64, 127
1, 212002, Note_on_c, 0, 65, 0
1, 212002, Note_on_c, 0, 73, 47
1, 212109, Note_on_c, 0, 73, 0
1, 212109, Note_on_c, 0, 68, 47
1, 212216, Note_on_c, 0, 68, 0
1, 212216, Note_on_c, 0, 73, 47
1, 212323, Note_on_c, 0, 80, 0
1, 212323, Note_on_c, 0, 80, 65
1, 212323, Note_on_c, 0, 73, 0
1, 212326, Note_on_c, 0, 65, 50
1, 212433, Note_on_c, 0, 65, 0
1, 212433, Note_on_c, 0, 73, 47
1, 212543, Note_on_c, 0, 73, 0
1, 212543, Note_on_c, 0, 68, 47
1, 212654, Note_on_c, 0, 68, 0
1, 212654, Note_on_c, 0, 73, 47
1, 212764, Note_on_c, 0, 80, 0
1, 212764, Note_on_c, 0, 80, 69
1, 212764, Note_on_c, 0, 73, 0
1, 212767, Note_on_c, 0, 63, 50
1, 212777, Control_c, 0, 64, 0
1, 212834, Control_c, 0, 64, 127
1, 212871, Note_on_c, 0, 63, 0
1, 212871, Note_on_c, 0, 72, 47
1, 212978, Note_on_c, 0, 72, 0
1, 212978, Note_on_c, 0, 66, 47
1, 213085, Note_on_c, 0, 66, 0
1, 213085, Note_on_c, 0, 72, 47
1, 213192, Note_on_c, 0, 80, 0
1, 213192, Note_on_c, 0, 80, 66
1, 213192, Note_on_c, 0, 72, 0
1, 213195, Note_on_c, 0, 61, 50
1, 213218, Control_c, 0, 64, 0
1, 213290, Control_c, 0, 64, 127
1, 213303, Note_on_c, 0, 61, 0
1, 213303, Note_on_c, 0, 73, 48
1, 213413, Note_on_c, 0, 73, 0
1, 213413, Note_on_c, 0, 65, 48
1, 213523, Note_on_c, 0, 65, 0
1, 213523, Note_on_c, 0, 73, 48
1, 213634, Note_on_c, 0, 80, 0
1, 213634, Note_on_c, 0, 73, 0
1, 213634, Control_c, 0, 64, 0
1, 213637, Note_on_c, 0, 66, 50
1, 213694, Control_c, 0, 64, 127
1, 213738, Note_on_c, 0, 66, 0
1, 213738, Note_on_c, 0, 75, 46
1, 213841, Note_on_c, 0, 75, 0
1, 213841, Note_on_c, 0, 72, 46
1, 213952, Note_on_c, 0, 72, 0
1, 213952, Note_on_c, 0, 75, 46
1, 214062, Note_on_c, 0, 80, 79
1, 214062, Note_on_c, 0, 75, 0
1, 214062, Note_on_c, 0, 71, 50
1, 214172, Note_on_c, 0, 71, 0
1, 214172, Note_on_c, 0, 75, 46
1, 214283, Note_on_c, 0, 75, 0
1, 214283, Note_on_c, 0, 72, 46
1, 214393, Note_on_c, 0, 72, 0
1, 214393, Note_on_c, 0, 75, 46
1, 214503, Note_on_c, 0, 75, 0
1, 214503, Note_on_c, 0, 78, 68
1, 214514, Control_c, 0, 64, 0
1, 214558, Control_c, 0, 64, 127
1, 214608, Note_on_c, 0, 78, 0
1, 214608, Note_on_c, 0, 75, 45
1, 214713, Note_on_c, 0, 75, 0
1, 214713, Note_on_c, 0, 72, 47
1, 214818, Note_on_c, 0, 72, 0
1, 214818, Note_on_c, 0, 75, 47
1, 214923, Note_on_c, 0, 80, 0
1, 214923, Note_on_c, 0, 80, 67
1, 214923, Note_on_c, 0, 75, 0
1, 214926, Note_on_c, 0, 66, 50
1, 215034, Note_on_c, 0, 66, 0
1, 215034, Note_on_c, 0, 75, 47
1, 215144, Note_on_c, 0, 75, 0
1, 215144, Note_on_c, 0, 72, 47
1, 215254, Note_on_c, 0, 72, 0
1, 215254, Note_on_c, 0, 75, 47
1, 215365, Note_on_c, 0, 80, 0
1, 215365, Note_on_c, 0, 80, 70
1, 215365, Note_on_c, 0, 75, 0
1, 215368, Control_c, 0, 64, 0
1, 215368, Note_on_c, 0, 65, 50
1, 215439, Control_c, 0, 64, 127
1, 215472, Note_on_c, 0, 65, 0
1, 215472, Note_on_c, 0, 77, 47
1, 215579, Note_on_c, 0, 77, 0
1, 215579, Note_on_c, 0, 73, 47
1, 215686, Note_on_c, 0, 73, 0
1, 215686, Note_on_c, 0, 77, 47
1, 215793, Note_on_c, 0, 80, 0
1, 215793, Note_on_c, 0, 80, 66
1, 215793, Note_on_c, 0, 77, 0
1, 215796, Note_on_c, 0, 68, 50
1, 215903, Note_on_c, 0, 68, 0
1, 215903, Note_on_c, 0, 77, 47
1, 216013, Note_on_c, 0, 77, 0
1, 216013, Note_on_c, 0, 73, 47
1, 216124, Note_on_c, 0, 73, 0
1, 216124, Note_on_c, 0, 77, 47
1, 216234, Note_on_c, 0, 80, 0
1, 216234, Note_on_c, 0, 80, 69
1, 216234, Note_on_c, 0, 77, 0
1, 216237, Note_on_c, 0, 66, 50
1, 216246, Control_c, 0, 64, 0
1, 216304, Control_c, 0, 64, 127
1, 216341, Note_on_c, 0, 66, 0
1, 216341, Note_on_c, 0, 75, 47
1, 216448, Note_on_c, 0, 75, 0
1, 216448, Note_on_c, 0, 72, 47
1, 216555, Note_on_c, 0, 72, 0
1, 216555, Note_on_c, 0, 75, 47
1, 216662, Note_on_c, 0, 80, 0
1, 216662, Note_on_c, 0, 80, 66
1, 216662, Note_on_c, 0, 75, 0
1, 216665, Note_on_c, 0, 65, 50
1, 216688, Control_c, 0, 64, 0
1, 216760, Control_c, 0, 64, 127
1, 216772, Note_on_c, 0, 65, 0
1, 216772, Note_on_c, 0, 73, 48
1, 216883, Note_on_c, 0, 73, 0
1, 216883, Note_on_c, 0, 68, 48
1, 216993, Note_on_c, 0, 68, 0
1, 216993, Note_on_c, 0, 73, 48
1, 217103, Note_on_c, 0, 80, 0
1, 217103, Note_on_c, 0, 73, 0
1, 217103, Control_c, 0, 64, 0
1, 217106, Note_on_c, 0, 72, 58
1, 217166, Control_c, 0, 64, 127
1, 217212, Note_on_c, 0, 72, 0
1, 217212, Note_on_c, 0, 78, 57
1, 217320, Note_on_c, 0, 78, 0
1, 217320, Note_on_c, 0, 75, 57
1, 217428, Note_on_c, 0, 75, 0
1, 217428, Note_on_c, 0, 78, 57
1, 217536, Note_on_c, 0, 84, 77
1, 217536, Note_on_c, 0, 78, 0
1, 217536, Note_on_c, 0, 80, 63
1, 217644, Note_on_c, 0, 80, 0
1, 217644, Note_on_c, 0, 78, 58
1, 217752, Note_on_c, 0, 78, 0
1, 217752, Note_on_c, 0, 75, 58
1, 217860, Note_on_c, 0, 75, 0
1, 217860, Note_on_c, 0, 78, 58
1, 217968, Note_on_c, 0, 84, 0
1, 217968, Note_on_c, 0, 83, 82
1, 217968, Note_on_c, 0, 78, 0
1, 217971, Note_on_c, 0, 80, 65
1, 217979, Control_c, 0, 64, 0
1, 218022, Control_c, 0, 64, 127
1, 218073, Note_on_c, 0, 80, 0
1, 218073, Note_on_c, 0, 78, 58
1, 218178, Note_on_c, 0, 78, 0
1, 218178, Note_on_c, 0, 75, 60
1, 218283, Note_on_c, 0, 75, 0
1, 218283, Note_on_c, 0, 78, 60
1, 218388, Note_on_c, 0, 83, 0
1, 218388, Note_on_c, 0, 84, 80
1, 218388, Note_on_c, 0, 78, 0
1, 218391, Note_on_c, 0, 80, 66
1, 218497, Note_on_c, 0, 80, 0
1, 218497, Note_on_c, 0, 78, 62
1, 218606, Note_on_c, 0, 78, 0
1, 218606, Note_on_c, 0, 75, 62
1, 218715, Note_on_c, 0, 75, 0
1, 218715, Note_on_c, 0, 78, 63
1, 218824, Note_on_c, 0, 84, 0
1, 218824, Note_on_c, 0, 85, 87
1, 218824, Note_on_c, 0, 78, 0
1, 218827, Control_c, 0, 64, 0
1, 218827, Note_on_c, 0, 77, 67
1, 218885, Control_c, 0, 64, 127
1, 218928, Note_on_c, 0, 77, 0
1, 218928, Note_on_c, 0, 80, 62
1, 219032, Note_on_c, 0, 80, 0
1, 219032, Note_on_c, 0, 77, 63
1, 219140, Note_on_c, 0, 77, 0
1, 219140, Note_on_c, 0, 80, 63
1, 219248, Note_on_c, 0, 85, 0
1, 219248, Note_on_c, 0, 89, 85
1, 219248, Note_on_c, 0, 80, 0
1, 219251, Note_on_c, 0, 85, 70
1, 219356, Note_on_c, 0, 85, 0
1, 219356, Note_on_c, 0, 80, 63
1, 219464, Note_on_c, 0, 80, 0
1, 219464, Note_on_c, 0, 85, 65
1, 219572, Note_on_c, 0, 85, 0
1, 219572, Note_on_c, 0, 80, 65
1, 219680, Note_on_c, 0, 89, 0
1, 219680, Note_on_c, 0, 87, 96
1, 219680, Note_on_c, 0, 80, 0
1, 219683, Note_on_c, 0, 84, 71
1, 219690, Control_c, 0, 64, 0
1, 219734, Control_c, 0, 64, 127
1, 219785, Note_on_c, 0, 84, 0
1, 219785, Note_on_c, 0, 78, 63
1, 219890, Note_on_c, 0, 78, 0
1, 219890, Note_on_c, 0, 84, 67
1, 219995, Note_on_c, 0, 84, 0
1, 219995, Note_on_c, 0, 78, 67
1, 220100, Note_on_c, 0, 87, 0
1, 220100, Note_on_c, 0, 85, 92
1, 220100, Note_on_c, 0, 78, 0
1, 220103, Note_on_c, 0, 77, 77
1, 220210, Note_on_c, 0, 77, 0
1, 220210, Note_on_c, 0, 80, 72
1, 220320, Note_on_c, 0, 80, 0
1, 220320, Note_on_c, 0, 77, 72
1, 220431, Note_on_c, 0, 77, 0
1, 220431, Note_on_c, 0, 80, 72
1, 220541, Note_on_c, 0, 85, 0
1, 220541, Note_on_c, 0, 90, 104
1, 220541, Note_on_c, 0, 80, 0
1, 220544, Control_c, 0, 64, 0
1, 220544, Note_on_c, 0, 82, 91
1, 220618, Control_c, 0, 64, 127
1, 220651, Note_on_c, 0, 82, 0
1, 220651, Note_on_c, 0, 78, 79
1, 220762, Note_on_c, 0, 78, 0
1, 220762, Note_on_c, 0, 82, 84
1, 220872, Note_on_c, 0, 82, 0
1, 220872, Note_on_c, 0, 80, 71
1, 220982, Note_on_c, 0, 80, 0
1, 220982, Note_on_c, 0, 78, 78
1, 221093, Note_on_c, 0, 78, 0
1, 221093, Note_on_c, 0, 77, 70
1, 221203, Note_on_c, 0, 77, 0
1, 221203, Note_on_c, 0, 75, 73
1, 221313, Note_on_c, 0, 75, 0
1, 221313, Note_on_c, 0, 73, 71
1, 221424, Note_on_c, 0, 90, 0
1, 221424, Note_on_c, 0, 75, 79
1, 221424, Note_on_c, 0, 78, 79
1, 221427, Note_on_c, 0, 80, 91
1, 221427, Note_on_c, 0, 73, 0
1, 221427, Note_on_c, 0, 72, 70
1, 221457, Control_c, 0, 64, 0
1, 221521, Control_c, 0, 64, 127
1, 221534, Note_on_c, 0, 72, 0
1, 221534, Note_on_c, 0, 70, 69
1, 221644, Note_on_c, 0, 70, 0
1, 221644, Note_on_c, 0, 68, 67
1, 221755, Note_on_c, 0, 68, 0
1, 221755, Note_on_c, 0, 66, 66
1, 221865, Note_on_c, 0, 66, 0
1, 221865, Note_on_c, 0, 65, 65
1, 221975, Note_on_c, 0, 65, 0
1, 221975, Note_on_c, 0, 63, 62
1, 222086, Note_on_c, 0, 63, 0
1, 222086, Note_on_c, 0, 61, 61
1, 222196, Note_on_c, 0, 61, 0
1, 222196, Note_on_c, 0, 60, 59
1, 222306, Note_on_c, 0, 80, 0
1, 222306, Note_on_c, 0, 78, 0
1, 222306, Note_on_c, 0, 75, 0
1, 222309, Note_on_c, 0, 77, 60
1, 222309, Note_on_c, 0, 80, 60
1, 222309, Note_on_c, 0, 60, 0
1, 222312, Control_c, 0, 64, 0
1, 222312, Note_on_c, 0, 61, 65
1, 222384, Control_c, 0, 64, 127
1, 222418, Note_on_c, 0, 80, 0
1, 222418, Note_on_c, 0, 77, 0
1, 222418, Note_on_c, 0, 82, 55
1, 222529, Note_on_c, 0, 82, 0
1, 222529, Note_on_c, 0, 80, 55
1, 222640, Note_on_c, 0, 80, 0
1, 222640, Note_on_c, 0, 78, 54
1, 222750, Note_on_c, 0, 78, 0
1, 222750, Note_on_c, 0, 77, 51
1, 222750, Note_on_c, 0, 61, 0
1, 222859, Note_on_c, 0, 77, 0
1, 222859, Note_on_c, 0, 78, 55
1, 222968, Note_on_c, 0, 78, 0
1, 222968, Note_on_c, 0, 80, 57
1, 223077, Note_on_c, 0, 80, 0
1, 223077, Note_on_c, 0, 82, 60
1, 223184, Note_on_c, 0, 82, 0
1, 223184, Note_on_c, 0, 84, 62
1, 223254, Control_c, 0, 64, 0
1, 223266, Control_c, 0, 64, 127
1, 223291, Note_on_c, 0, 84, 0
1, 223291, Note_on_c, 0, 85, 60
1, 223399, Note_on_c, 0, 85, 0
1, 223399, Note_on_c, 0, 80, 58
1, 223508, Note_on_c, 0, 80, 0
1, 223508, Note_on_c, 0, 78, 59
1, 223619, Note_on_c, 0, 78, 0
1, 223619, Note_on_c, 0, 77, 60
1, 223731, Note_on_c, 0, 77, 0
1, 223731, Note_on_c, 0, 80, 55
1, 223844, Note_on_c, 0, 80, 0
1, 223844, Note_on_c, 0, 77, 56
1, 223959, Note_on_c, 0, 77, 0
1, 223959, Note_on_c, 0, 73, 56
1, 224076, Note_on_c, 0, 73, 0
1, 224076, Note_on_c, 0, 72, 65
1, 224076, Control_c, 0, 64, 0
1, 224149, Control_c, 0, 64, 127
1, 224188, Note_on_c, 0, 72, 0
1, 224188, Note_on_c, 0, 80, 52
1, 224301, Note_on_c, 0, 80, 0
1, 224301, Note_on_c, 0, 82, 52
1, 224407, Note_on_c, 0, 82, 0
1, 224407, Note_on_c, 0, 80, 52
1, 224513, Note_on_c, 0, 80, 0
1, 224513, Note_on_c, 0, 84, 61
1, 224513, Note_on_c, 0, 54, 76
1, 224620, Note_on_c, 0, 84, 0
1, 224620, Note_on_c, 0, 80, 52
1, 224727, Note_on_c, 0, 80, 0
1, 224727, Note_on_c, 0, 82, 52
1, 224834, Note_on_c, 0, 82, 0
1, 224834, Note_on_c, 0, 80, 52
1, 224941, Note_on_c, 0, 80, 0
1, 224941, Note_on_c, 0, 87, 65
1, 225006, Control_c, 0, 64, 0
1, 225053, Note_on_c, 0, 87, 0
1, 225053, Note_on_c, 0, 80, 51
1, 225053, Control_c, 0, 64, 127
1, 225166, Note_on_c, 0, 80, 0
1, 225166, Note_on_c, 0, 82, 54
1, 225274, Note_on_c, 0, 82, 0
1, 225274, Note_on_c, 0, 80, 54
1, 225382, Note_on_c, 0, 80, 0
1, 225382, Note_on_c, 0, 84, 58
1, 225382, Note_on_c, 0, 54, 0
1, 225385, Note_on_c, 0, 66, 65
1, 225385, Note_on_c, 0, 68, 65
1, 225385, Note_on_c, 0, 75, 76
1, 225490, Note_on_c, 0, 84, 0
1, 225490, Note_on_c, 0, 80, 54
1, 225598, Note_on_c, 0, 80, 0
1, 225598, Note_on_c, 0, 82, 54
1, 225706, Note_on_c, 0, 82, 0
1, 225706, Note_on_c, 0, 80, 54
1, 225814, Note_on_c, 0, 80, 0
1, 225814, Note_on_c, 0, 85, 63
1, 225821, Control_c, 0, 64, 0
1, 225863, Control_c, 0, 64, 127
1, 225921, Note_on_c, 0, 85, 0
1, 225921, Note_on_c, 0, 80, 54
1, 226028, Note_on_c, 0, 80, 0
1, 226028, Note_on_c, 0, 82, 54
1, 226132, Note_on_c, 0, 82, 0
1, 226132, Note_on_c, 0, 80, 54
1, 226237, Note_on_c, 0, 80, 0
1, 226237, Note_on_c, 0, 85, 65
1, 226237, Note_on_c, 0, 75, 0
1, 226240, Note_on_c, 0, 68, 0
1, 226240, Note_on_c, 0, 66, 0
1, 226240, Note_on_c, 0, 65, 59
1, 226243, Note_on_c, 0, 68, 59
1, 226243, Note_on_c, 0, 73, 68
1, 226250, Control_c, 0, 64, 0
1, 226306, Control_c, 0, 64, 127
1, 226343, Note_on_c, 0, 85, 0
1, 226343, Note_on_c, 0, 80, 54
1, 226449, Note_on_c, 0, 80, 0
1, 226449, Note_on_c, 0, 82, 54
1, 226555, Note_on_c, 0, 82, 0
1, 226555, Note_on_c, 0, 80, 54
1, 226661, Note_on_c, 0, 80, 0
1, 226661, Note_on_c, 0, 78, 58
1, 226661, Note_on_c, 0, 73, 0
1, 226664, Note_on_c, 0, 68, 0
1, 226664, Note_on_c, 0, 65, 0
1, 226664, Note_on_c, 0, 63, 56
1, 226667, Note_on_c, 0, 68, 56
1, 226667, Note_on_c, 0, 72, 66
1, 226680, Control_c, 0, 64, 0
1, 226766, Note_on_c, 0, 78, 0
1, 226766, Note_on_c, 0, 80, 54
1, 226871, Note_on_c, 0, 80, 0
1, 226871, Note_on_c, 0, 82, 54
1, 226871, Note_on_c, 0, 72, 0
1, 226874, Note_on_c, 0, 68, 0
1, 226874, Note_on_c, 0, 63, 0
1, 226976, Note_on_c, 0, 82, 0
1, 226976, Note_on_c, 0, 80, 54
1, 227081, Note_on_c, 0, 80, 0
1, 227081, Note_on_c, 0, 77, 58
1, 227081, Note_on_c, 0, 61, 52
1, 227084, Note_on_c, 0, 68, 52
1, 227084, Note_on_c, 0, 73, 60
1, 227191, Note_on_c, 0, 77, 0
1, 227191, Note_on_c, 0, 80, 55
1, 227302, Note_on_c, 0, 80, 0
1, 227302, Note_on_c, 0, 82, 55
1, 227302, Note_on_c, 0, 73, 0
1, 227305, Note_on_c, 0, 68, 0
1, 227305, Note_on_c, 0, 61, 0
1, 227412, Note_on_c, 0, 82, 0
1, 227412, Note_on_c, 0, 80, 55
1, 227522, Note_on_c, 0, 80, 0
1, 227522, Note_on_c, 0, 72, 65
1, 227596, Control_c, 0, 64, 127
1, 227635, Note_on_c, 0, 72, 0
1, 227635, Note_on_c, 0, 80, 52
1, 227748, Note_on_c, 0, 80, 0
1, 227748, Note_on_c, 0, 82, 52
1, 227854, Note_on_c, 0, 82, 0
1, 227854, Note_on_c, 0, 80, 52
1, 227960, Note_on_c, 0, 80, 0
1, 227960, Note_on_c, 0, 84, 61
1, 227960, Note_on_c, 0, 54, 76
1, 228068, Note_on_c, 0, 84, 0
1, 228068, Note_on_c, 0, 80, 52
1, 228176, Note_on_c, 0, 80, 0
1, 228176, Note_on_c, 0, 82, 52
1, 228284, Note_on_c, 0, 82, 0
1, 228284, Note_on_c, 0, 80, 52
1, 228392, Note_on_c, 0, 80, 0
1, 228392, Note_on_c, 0, 87, 65
1, 228456, Control_c, 0, 64, 0
1, 228487, Control_c, 0, 64, 127
1, 228502, Note_on_c, 0, 87, 0
1, 228502, Note_on_c, 0, 80, 51
1, 228612, Note_on_c, 0, 80, 0
1, 228612, Note_on_c, 0, 82, 54
1, 228719, Note_on_c, 0, 82, 0
1, 228719, Note_on_c, 0, 80, 54
1, 228826, Note_on_c, 0, 80, 0
1, 228826, Note_on_c, 0, 82, 58
1, 228826, Note_on_c, 0, 54, 0
1, 228829, Note_on_c, 0, 72, 65
1, 228829, Note_on_c, 0, 75, 65
1, 228829, Note_on_c, 0, 78, 76
1, 228933, Note_on_c, 0, 82, 0
1, 228933, Note_on_c, 0, 80, 54
1, 229040, Note_on_c, 0, 80, 0
1, 229040, Note_on_c, 0, 82, 54
1, 229147, Note_on_c, 0, 82, 0
1, 229147, Note_on_c, 0, 80, 54
1, 229254, Note_on_c, 0, 80, 0
1, 229254, Note_on_c, 0, 82, 63
1, 229261, Control_c, 0, 64, 0
1, 229304, Control_c, 0, 64, 127
1, 229361, Note_on_c, 0, 82, 0
1, 229361, Note_on_c, 0, 80, 54
1, 229468, Note_on_c, 0, 80, 0
1, 229468, Note_on_c, 0, 82, 54
1, 229572, Note_on_c, 0, 82, 0
1, 229572, Note_on_c, 0, 80, 54
1, 229677, Note_on_c, 0, 80, 0
1, 229677, Note_on_c, 0, 85, 65
1, 229677, Note_on_c, 0, 78, 0
1, 229680, Note_on_c, 0, 75, 0
1, 229680, Note_on_c, 0, 72, 0
1, 229680, Note_on_c, 0, 68, 52
1, 229683, Note_on_c, 0, 73, 52
1, 229683, Note_on_c, 0, 77, 71
1, 229690, Control_c, 0, 64, 0
1, 229746, Control_c, 0, 64, 127
1, 229782, Note_on_c, 0, 85, 0
1, 229782, Note_on_c, 0, 80, 54
1, 229887, Note_on_c, 0, 80, 0
1, 229887, Note_on_c, 0, 82, 54
1, 229887, Note_on_c, 0, 77, 0
1, 229890, Note_on_c, 0, 73, 0
1, 229890, Note_on_c, 0, 68, 0
1, 229992, Note_on_c, 0, 82, 0
1, 229992, Note_on_c, 0, 80, 54
1, 230097, Note_on_c, 0, 80, 0
1, 230097, Note_on_c, 0, 87, 69
1, 230097, Control_c, 0, 64, 0
1, 230100, Note_on_c, 0, 66, 58
1, 230100, Note_on_c, 0, 72, 58
1, 230100, Note_on_c, 0, 75, 68
1, 230202, Note_on_c, 0, 87, 0
1, 230202, Note_on_c, 0, 80, 57
1, 230307, Note_on_c, 0, 80, 0
1, 230307, Note_on_c, 0, 82, 57
1, 230307, Note_on_c, 0, 75, 0
1, 230310, Note_on_c, 0, 72, 0
1, 230310, Note_on_c, 0, 66, 0
1, 230412, Note_on_c, 0, 82, 0
1, 230412, Note_on_c, 0, 80, 54
1, 230517, Note_on_c, 0, 80, 0
1, 230517, Note_on_c, 0, 89, 67
1, 230517, Note_on_c, 0, 65, 55
1, 230520, Note_on_c, 0, 68, 55
1, 230520, Note_on_c, 0, 73, 63
1, 230627, Note_on_c, 0, 89, 0
1, 230627, Note_on_c, 0, 80, 57
1, 230738, Note_on_c, 0, 80, 0
1, 230738, Note_on_c, 0, 82, 57
1, 230738, Note_on_c, 0, 73, 0
1, 230741, Note_on_c, 0, 68, 0
1, 230741, Note_on_c, 0, 65, 0
1, 230848, Note_on_c, 0, 82, 0
1, 230848, Note_on_c, 0, 80, 58
1, 230958, Note_on_c, 0, 80, 0
1, 230958, Note_on_c, 0, 87, 81
1, 231032, Control_c, 0, 64, 127
1, 231071, Note_on_c, 0, 87, 0
1, 231071, Note_on_c, 0, 84, 68
1, 231184, Note_on_c, 0, 84, 0
1, 231184, Note_on_c, 0, 85, 68
1, 231290, Note_on_c, 0, 85, 0
1, 231290, Note_on_c, 0, 84, 68
1, 231396, Note_on_c, 0, 84, 0
1, 231396, Note_on_c, 0, 87, 82
1, 231396, Note_on_c, 0, 66, 84
1, 231399, Note_on_c, 0, 72, 84
1, 231399, Note_on_c, 0, 75, 84
1, 231506, Note_on_c, 0, 87, 0
1, 231506, Note_on_c, 0, 84, 68
1, 231616, Note_on_c, 0, 84, 0
1, 231616, Note_on_c, 0, 85, 69
1, 231727, Note_on_c, 0, 85, 0
1, 231727, Note_on_c, 0, 84, 71
1, 231837, Note_on_c, 0, 84, 0
1, 231837, Note_on_c, 0, 92, 85
1, 231904, Control_c, 0, 64, 0
1, 231952, Note_on_c, 0, 92, 0
1, 231952, Note_on_c, 0, 84, 67
1, 231952, Control_c, 0, 64, 127
1, 232067, Note_on_c, 0, 84, 0
1, 232067, Note_on_c, 0, 85, 71
1, 232176, Note_on_c, 0, 85, 0
1, 232176, Note_on_c, 0, 84, 71
1, 232286, Note_on_c, 0, 84, 0
1, 232286, Note_on_c, 0, 92, 88
1, 232286, Note_on_c, 0, 75, 0
1, 232289, Note_on_c, 0, 72, 0
1, 232289, Note_on_c, 0, 66, 0
1, 232289, Note_on_c, 0, 75, 78
1, 232292, Note_on_c, 0, 78, 78
1, 232292, Note_on_c, 0, 80, 91
1, 232396, Note_on_c, 0, 92, 0
1, 232396, Note_on_c, 0, 84, 78
1, 232506, Note_on_c, 0, 84, 0
1, 232506, Note_on_c, 0, 85, 79
1, 232617, Note_on_c, 0, 85, 0
1, 232617, Note_on_c, 0, 84, 80
1, 232727, Note_on_c, 0, 84, 0
1, 232727, Note_on_c, 0, 92, 92
1, 232735, Control_c, 0, 64, 0
1, 232781, Control_c, 0, 64, 127
1, 232842, Note_on_c, 0, 92, 0
1, 232842, Note_on_c, 0, 84, 82
1, 232957, Note_on_c, 0, 84, 0
1, 232957, Note_on_c, 0, 85, 83
1, 233062, Note_on_c, 0, 85, 0
1, 233062, Note_on_c, 0, 84, 84
1, 233167, Note_on_c, 0, 84, 0
1, 233167, Note_on_c, 0, 92, 100
1, 233167, Note_on_c, 0, 80, 0
1, 233170, Note_on_c, 0, 78, 0
1, 233170, Note_on_c, 0, 75, 0
1, 233170, Note_on_c, 0, 73, 62
1, 233173, Note_on_c, 0, 77, 62
1, 233173, Note_on_c, 0, 80, 85
1, 233180, Control_c, 0, 64, 0
1, 233239, Control_c, 0, 64, 127
1, 233277, Note_on_c, 0, 92, 0
1, 233277, Note_on_c, 0, 85, 88
1, 233388, Note_on_c, 0, 85, 0
1, 233388, Note_on_c, 0, 87, 88
1, 233388, Note_on_c, 0, 80, 0
1, 233391, Note_on_c, 0, 77, 0
1, 233391, Note_on_c, 0, 73, 0
1, 233498, Note_on_c, 0, 87, 0
1, 233498, Note_on_c, 0, 85, 90
1, 233608, Note_on_c, 0, 85, 0
1, 233608, Note_on_c, 0, 92, 107
1, 233608, Note_on_c, 0, 72, 71
1, 233611, Note_on_c, 0, 66, 71
1, 233611, Note_on_c, 0, 75, 71
1, 233611, Note_on_c, 0, 78, 84
1, 233703, Control_c, 0, 64, 0
1, 233715, Note_on_c, 0, 92, 0
1, 233715, Note_on_c, 0, 87, 91
1, 233728, Control_c, 0, 64, 127
1, 233822, Note_on_c, 0, 87, 0
1, 233822, Note_on_c, 0, 89, 92
1, 233822, Note_on_c, 0, 78, 0
1, 233825, Note_on_c, 0, 72, 0
1, 233825, Note_on_c, 0, 66, 0
1, 233825, Note_on_c, 0, 75, 0
1, 233929, Note_on_c, 0, 89, 0
1, 233929, Note_on_c, 0, 87, 94
1, 234036, Note_on_c, 0, 87, 0
1, 234036, Note_on_c, 0, 92, 109
1, 234036, Note_on_c, 0, 68, 70
1, 234039, Control_c, 0, 64, 0
1, 234039, Note_on_c, 0, 65, 70
1, 234039, Note_on_c, 0, 73, 70
1, 234042, Note_on_c, 0, 77, 82
1, 234088, Control_c, 0, 64, 127
1, 234147, Note_on_c, 0, 92, 0
1, 234147, Note_on_c, 0, 89, 94
1, 234259, Note_on_c, 0, 89, 0
1, 234259, Note_on_c, 0, 90, 95
1, 234259, Note_on_c, 0, 77, 0
1, 234262, Note_on_c, 0, 68, 0
1, 234262, Note_on_c, 0, 65, 0
1, 234262, Note_on_c, 0, 73, 0
1, 234372, Note_on_c, 0, 90, 0
1, 234372, Note_on_c, 0, 89, 98
1, 234486, Note_on_c, 0, 89, 0
1, 234486, Note_on_c, 0, 94, 115
1, 234486, Control_c, 0, 64, 0
1, 234517, Control_c, 0, 64, 127
1, 234595, Note_on_c, 0, 94, 0
1, 234595, Note_on_c, 0, 90, 102
1, 234726, Note_on_c, 0, 90, 0
1, 234726, Note_on_c, 0, 94, 107
1, 234841, Note_on_c, 0, 94, 0
1, 234841, Note_on_c, 0, 92, 96
1, 234952, Note_on_c, 0, 92, 0
1, 234952, Note_on_c, 0, 90, 107
1, 234952, Note_on_c, 0, 63, 78
1, 234955, Note_on_c, 0, 66, 78
1, 234955, Note_on_c, 0, 70, 78
1, 234955, Note_on_c, 0, 73, 91
1, 234966, Control_c, 0, 64, 0
1, 235014, Control_c, 0, 64, 127
1, 235067, Note_on_c, 0, 90, 0
1, 235067, Note_on_c, 0, 89, 93
1, 235182, Note_on_c, 0, 89, 0
1, 235182, Note_on_c, 0, 87, 100
1, 235182, Note_on_c, 0, 73, 0
1, 235185, Note_on_c, 0, 63, 0
1, 235185, Note_on_c, 0, 66, 0
1, 235185, Note_on_c, 0, 70, 0
1, 235297, Note_on_c, 0, 87, 0
1, 235297, Note_on_c, 0, 85, 88
1, 235412, Note_on_c, 0, 85, 0
1, 235412, Note_on_c, 0, 84, 96
1, 235453, Control_c, 0, 64, 0
1, 235493, Control_c, 0, 64, 127
1, 235528, Note_on_c, 0, 84, 0
1, 235528, Note_on_c, 0, 82, 89
1, 235643, Note_on_c, 0, 82, 0
1, 235643, Note_on_c, 0, 80, 92
1, 235758, Note_on_c, 0, 80, 0
1, 235758, Note_on_c, 0, 78, 85
1, 235873, Note_on_c, 0, 78, 0
1, 235873, Note_on_c, 0, 77, 89
1, 235873, Note_on_c, 0, 56, 79
1, 235876, Note_on_c, 0, 60, 79
1, 235876, Note_on_c, 0, 63, 79
1, 235876, Note_on_c, 0, 66, 92
1, 235880, Control_c, 0, 64, 0
1, 235927, Control_c, 0, 64, 127
1, 235988, Note_on_c, 0, 77, 0
1, 235988, Note_on_c, 0, 75, 82
1, 236103, Note_on_c, 0, 75, 0
1, 236103, Note_on_c, 0, 73, 85
1, 236103, Note_on_c, 0, 66, 0
1, 236106, Note_on_c, 0, 56, 0
1, 236106, Note_on_c, 0, 60, 0
1, 236106, Note_on_c, 0, 63, 0
1, 236218, Note_on_c, 0, 73, 0
1, 236218, Note_on_c, 0, 72, 79
1, 236333, Note_on_c, 0, 72, 0
1, 236333, Note_on_c, 0, 73, 82
1, 236333, Control_c, 0, 64, 0
1, 236410, Control_c, 0, 64, 127
1, 236451, Note_on_c, 0, 73, 0
1, 236451, Note_on_c, 0, 70, 80
1, 236568, Note_on_c, 0, 70, 0
1, 236568, Note_on_c, 0, 68, 79
1, 236686, Note_on_c, 0, 68, 0
1, 236686, Note_on_c, 0, 66, 77
1, 236804, Note_on_c, 0, 66, 0
1, 236804, Note_on_c, 0, 65, 74
1, 236923, Note_on_c, 0, 65, 0
1, 236923, Note_on_c, 0, 63, 73
1, 237041, Note_on_c, 0, 63, 0
1, 237041, Note_on_c, 0, 61, 71
1, 237160, Note_on_c, 0, 61, 0
1, 237160, Note_on_c, 0, 60, 70
1, 237280, Note_on_c, 0, 60, 0
1, 237280, Note_on_c, 0, 58, 64
1, 237302, Control_c, 0, 64, 0
1, 237358, Control_c, 0, 64, 127
1, 237400, Note_on_c, 0, 58, 0
1, 237400, Note_on_c, 0, 56, 63
1, 237525, Note_on_c, 0, 56, 0
1, 237525, Note_on_c, 0, 54, 61
1, 237656, Note_on_c, 0, 54, 0
1, 237656, Note_on_c, 0, 53, 60
1, 237791, Note_on_c, 0, 53, 0
1, 237791, Note_on_c, 0, 51, 58
1, 237936, Note_on_c, 0, 51, 0
1, 237936, Note_on_c, 0, 49, 57
1, 238089, Note_on_c, 0, 49, 0
1, 238089, Note_on_c, 0, 44, 55
1, 238253, Note_on_c, 0, 44, 0
1, 238253, Note_on_c, 0, 41, 54
1, 238455, Note_on_c, 0, 49, 49
1, 238455, Note_on_c, 0, 53, 49
1, 238455, Note_on_c, 0, 56, 57
1, 238458, Note_on_c, 0, 41, 0
1, 238458, Control_c, 0, 64, 0
1, 238458, Note_on_c, 0, 37, 57
1, 238763, Control_c, 0, 64, 127
1, 239505, Control_c, 0, 64, 0
1, 239567, Note_on_c, 0, 56, 0
1, 239567, Note_on_c, 0, 53, 0
1, 239567, Note_on_c, 0, 49, 0
1, 239570, Note_on_c, 0, 49, 47
1, 239570, Note_on_c, 0, 54, 54
1, 239570, Note_on_c, 0, 58, 54
1, 239573, Note_on_c, 0, 37, 0
1, 239573, Note_on_c, 0, 30, 45
1, 239969, Control_c, 0, 64, 127
1, 240773, Note_on_c, 0, 58, 0
1, 240773, Note_on_c, 0, 54, 0
1, 240773, Note_on_c, 0, 49, 0
1, 240776, Note_on_c, 0, 49, 47
1, 240776, Note_on_c, 0, 53, 47
1, 240776, Note_on_c, 0, 56, 54
1, 240779, Note_on_c, 0, 30, 0
1, 240779, Control_c, 0, 64, 0
1, 240779, Note_on_c, 0, 37, 47
1, 240956, Control_c, 0, 64, 127
1, 242136, Control_c, 0, 64, 0
1, 242267, Note_on_c, 0, 56, 0
1, 242267, Note_on_c, 0, 53, 0
1, 242267, Note_on_c, 0, 49, 0
1, 242270, Note_on_c, 0, 61, 47
1, 242270, Note_on_c, 0, 63, 47
1, 242270, Note_on_c, 0, 70, 54
1, 242273, Note_on_c, 0, 37, 0
1, 242273, Note_on_c, 0, 54, 45
1, 242783, Note_on_c, 0, 70, 0
1, 242783, Note_on_c, 0, 63, 0
1, 242783, Note_on_c, 0, 61, 0
1, 242786, Note_on_c, 0, 61, 49
1, 242786, Note_on_c, 0, 63, 49
1, 242786, Note_on_c, 0, 68, 57
1, 242789, Note_on_c, 0, 54, 0
1, 242789, Note_on_c, 0, 56, 50
1, 242891, Control_c, 0, 64, 127
1, 243846, Note_on_c, 0, 68, 0
1, 243846, Note_on_c, 0, 63, 0
1, 243846, Note_on_c, 0, 61, 0
1, 243849, Note_on_c, 0, 60, 48
1, 243849, Note_on_c, 0, 63, 48
1, 243849, Note_on_c, 0, 68, 56
1, 243903, Control_c, 0, 64, 0
1, 243983, Control_c, 0, 64, 127
1, 244092, Note_on_c, 0, 56, 0
1, 244092, Note_on_c, 0, 54, 48
1, 244338, Note_on_c, 0, 54, 0
1, 244338, Note_on_c, 0, 53, 48
1, 244584, Note_on_c, 0, 53, 0
1, 244584, Note_on_c, 0, 51, 48
1, 244830, Note_on_c, 0, 68, 0
1, 244830, Note_on_c, 0, 63, 0
1, 244830, Note_on_c, 0, 60, 0
1, 244833, Note_on_c, 0, 61, 49
1, 244833, Note_on_c, 0, 65, 49
1, 244833, Note_on_c, 0, 68, 57
1, 244836, Note_on_c, 0, 51, 0
1, 244836, Note_on_c, 0, 49, 50
1, 244836, Control_c, 0, 64, 0
1, 244923, Control_c, 0, 64, 127
1, 245073, Note_on_c, 0, 49, 0
1, 245073, Note_on_c, 0, 46, 47
1, 245316, Note_on_c, 0, 68, 0
1, 245316, Note_on_c, 0, 65, 0
1, 245316, Note_on_c, 0, 61, 0
1, 245319, Note_on_c, 0, 46, 0
1, 245319, Note_on_c, 0, 44, 47
1, 245560, Note_on_c, 0, 44, 0
1, 245560, Note_on_c, 0, 42, 47
1, 245803, Note_on_c, 0, 42, 0
1, 245803, Note_on_c, 0, 41, 50
1, 245832, Control_c, 0, 64, 0
1, 245884, Control_c, 0, 64, 127
1, 246054, Note_on_c, 0, 41, 0
1, 246054, Note_on_c, 0, 44, 48
1, 246313, Note_on_c, 0, 44, 0
1, 246313, Note_on_c, 0, 42, 48
1, 246353, Control_c, 0, 64, 0
1, 246415, Control_c, 0, 64, 127
1, 246583, Note_on_c, 0, 42, 0
1, 246583, Note_on_c, 0, 39, 48
1, 246877, Note_on_c, 0, 53, 55
1, 246877, Note_on_c, 0, 56, 55
1, 246877, Note_on_c, 0, 61, 64
1, 246880, Note_on_c, 0, 39, 0
1, 246880, Control_c, 0, 64, 0
1, 246880, Note_on_c, 0, 37, 49
1, 246883, Note_on_c, 0, 49, 56
1, 247440, Control_c, 0, 64, 127
1, 248003, Note_on_c, 0, 61, 0
1, 248003, Note_on_c, 0, 56, 0
1, 248003, Note_on_c, 0, 53, 0
1, 248006, Note_on_c, 0, 54, 57
1, 248006, Note_on_c, 0, 58, 57
1, 248006, Note_on_c, 0, 61, 66
1, 248009, Note_on_c, 0, 49, 0
1, 248009, Note_on_c, 0, 37, 0
1, 248009, Note_on_c, 0, 30, 50
1, 248012, Note_on_c, 0, 42, 58
1, 248074, Control_c, 0, 64, 0
1, 248704, Control_c, 0, 64, 127
1, 249263, Note_on_c, 0, 61, 0
1, 249263, Note_on_c, 0, 58, 0
1, 249263, Note_on_c, 0, 54, 0
1, 249266, Note_on_c, 0, 53, 46
1, 249266, Note_on_c, 0, 56, 46
1, 249266, Note_on_c, 0, 61, 54
1, 249269, Note_on_c, 0, 42, 0
1, 249269, Note_on_c, 0, 30, 0
1, 249269, Control_c, 0, 64, 0
1, 249272, Note_on_c, 0, 37, 37
1, 249272, Note_on_c, 0, 49, 42
1, 249456, Control_c, 0, 64, 127
1, 250693, Control_c, 0, 64, 0
1, 250826, Note_on_c, 0, 61, 0
1, 250826, Note_on_c, 0, 56, 0
1, 250826, Note_on_c, 0, 53, 0
1, 250829, Note_on_c, 0, 64, 47
1, 250829, Note_on_c, 0, 67, 47
1, 250829, Note_on_c, 0, 73, 54
1, 250832, Note_on_c, 0, 49, 0
1, 250832, Note_on_c, 0, 37, 0
1, 250832, Note_on_c, 0, 57, 46
1, 251357, Note_on_c, 0, 73, 0
1, 251357, Note_on_c, 0, 67, 0
1, 251357, Note_on_c, 0, 64, 0
1, 251360, Note_on_c, 0, 63, 49
1, 251360, Note_on_c, 0, 66, 49
1, 251360, Note_on_c, 0, 73, 57
1, 251363, Note_on_c, 0, 57, 0
1, 251363, Note_on_c, 0, 56, 47
1, 251772, Control_c, 0, 64, 127
1, 252421, Note_on_c, 0, 73, 0
1, 252421, Note_on_c, 0, 66, 0
1, 252421, Note_on_c, 0, 63, 0
1, 252424, Note_on_c, 0, 63, 47
1, 252424, Note_on_c, 0, 66, 47
1, 252424, Note_on_c, 0, 72, 53
1, 252534, Control_c, 0, 64, 0
1, 252678, Note_on_c, 0, 56, 0
1, 252678, Note_on_c, 0, 54, 47
1, 252936, Note_on_c, 0, 54, 0
1, 252936, Note_on_c, 0, 51, 47
1, 253050, Control_c, 0, 64, 127
1, 253194, Note_on_c, 0, 51, 0
1, 253194, Note_on_c, 0, 48, 47
1, 253452, Note_on_c, 0, 72, 0
1, 253452, Note_on_c, 0, 66, 0
1, 253452, Note_on_c, 0, 63, 0
1, 253455, Note_on_c, 0, 61, 47
1, 253455, Note_on_c, 0, 65, 47
1, 253455, Note_on_c, 0, 73, 53
1, 253458, Note_on_c, 0, 48, 0
1, 253458, Note_on_c, 0, 44, 50
1, 253458, Control_c, 0, 64, 0
1, 253537, Control_c, 0, 64, 127
1, 253713, Note_on_c, 0, 44, 0
1, 253713, Note_on_c, 0, 41, 47
1, 253974, Note_on_c, 0, 73, 0
1, 253974, Note_on_c, 0, 65, 0
1, 253974, Note_on_c, 0, 61, 0
1, 253977, Note_on_c, 0, 41, 0
1, 253977, Note_on_c, 0, 39, 47
1, 254035, Control_c, 0, 64, 0
1, 254081, Control_c, 0, 64, 127
1, 254235, Note_on_c, 0, 39, 0
1, 254235, Note_on_c, 0, 37, 47
1, 254442, Control_c, 0, 64, 0
1, 254496, Note_on_c, 0, 37, 0
1, 254496, Note_on_c, 0, 36, 50
1, 254520, Control_c, 0, 64, 127
1, 254753, Note_on_c, 0, 36, 0
1, 254753, Note_on_c, 0, 37, 47
1, 254808, Control_c, 0, 64, 0
1, 255022, Note_on_c, 0, 37, 0
1, 255022, Note_on_c, 0, 41, 47
1, 255308, Note_on_c, 0, 41, 0
1, 255308, Note_on_c, 0, 37, 47
1, 255614, Note_on_c, 0, 48, 49
1, 255614, Note_on_c, 0, 51, 49
1, 255614, Note_on_c, 0, 56, 57
1, 255617, Note_on_c, 0, 37, 0
1, 255617, Note_on_c, 0, 42, 50
1, 255617, Control_c, 0, 64, 127
1, 255620, Note_on_c, 0, 44, 50
1, 256678, Control_c, 0, 64, 0
1, 256741, Note_on_c, 0, 56, 0
1, 256741, Note_on_c, 0, 51, 0
1, 256741, Note_on_c, 0, 48, 0
1, 256744, Note_on_c, 0, 48, 47
1, 256744, Note_on_c, 0, 54, 54
1, 256744, Note_on_c, 0, 56, 54
1, 256747, Note_on_c, 0, 44, 0
1, 256747, Note_on_c, 0, 42, 0
1, 256747, Note_on_c, 0, 39, 45
1, 256750, Note_on_c, 0, 44, 45
1, 257098, Control_c, 0, 64, 127
1, 257695, Note_on_c, 0, 56, 0
1, 257695, Note_on_c, 0, 54, 0
1, 257695, Note_on_c, 0, 48, 0
1, 257698, Note_on_c, 0, 48, 47
1, 257698, Note_on_c, 0, 51, 54
1, 257698, Note_on_c, 0, 56, 54
1, 257701, Note_on_c, 0, 44, 0
1, 257701, Note_on_c, 0, 39, 0
1, 257701, Note_on_c, 0, 42, 45
1, 257704, Note_on_c, 0, 44, 45
1, 257845, Note_on_c, 0, 56, 0
1, 257845, Note_on_c, 0, 51, 0
1, 257845, Note_on_c, 0, 48, 0
1, 257848, Note_on_c, 0, 49, 49
1, 257848, Note_on_c, 0, 53, 49
1, 257848, Note_on_c, 0, 56, 57
1, 257851, Note_on_c, 0, 44, 0
1, 257851, Note_on_c, 0, 42, 0
1, 257851, Note_on_c, 0, 41, 43
1, 257854, Control_c, 0, 64, 0
1, 257854, Note_on_c, 0, 44, 49
1, 258058, Control_c, 0, 64, 127
1, 258713, Note_on_c, 0, 56, 0
1, 258713, Note_on_c, 0, 53, 0
1, 258713, Note_on_c, 0, 49, 0
1, 258716, Note_on_c, 0, 65, 55
1, 258716, Note_on_c, 0, 68, 55
1, 258716, Note_on_c, 0, 73, 63
1, 258719, Note_on_c, 0, 44, 0
1, 258719, Note_on_c, 0, 41, 0
1, 258719, Note_on_c, 0, 61, 56
1, 258991, Note_on_c, 0, 73, 0
1, 258991, Note_on_c, 0, 68, 0
1, 258991, Note_on_c, 0, 65, 0
1, 258994, Note_on_c, 0, 68, 51
1, 258994, Note_on_c, 0, 66, 51
1, 258994, Note_on_c, 0, 72, 59
1, 258997, Note_on_c, 0, 61, 0
1, 258997, Note_on_c, 0, 63, 54
1, 259026, Control_c, 0, 64, 0
1, 259148, Control_c, 0, 64, 127
1, 259578, Note_on_c, 0, 72, 0
1, 259578, Note_on_c, 0, 66, 0
1, 259578, Note_on_c, 0, 68, 0
1, 259581, Note_on_c, 0, 65, 41
1, 259581, Note_on_c, 0, 68, 41
1, 259581, Note_on_c, 0, 73, 47
1, 259584, Note_on_c, 0, 63, 0
1, 259584, Note_on_c, 0, 61, 44
1, 259594, Control_c, 0, 64, 0
1, 259707, Control_c, 0, 64, 127
1, 259986, Control_c, 0, 64, 0
1, 260134, Note_on_c, 0, 73, 0
1, 260134, Note_on_c, 0, 68, 0
1, 260134, Note_on_c, 0, 65, 0
1, 260137, Note_on_c, 0, 48, 49
1, 260137, Note_on_c, 0, 51, 49
1, 260137, Note_on_c, 0, 56, 57
1, 260140, Note_on_c, 0, 61, 0
1, 260140, Note_on_c, 0, 42, 50
1, 260140, Control_c, 0, 64, 127
1, 260143, Note_on_c, 0, 44, 50
1, 261211, Control_c, 0, 64, 0
1, 261276, Note_on_c, 0, 56, 0
1, 261276, Note_on_c, 0, 51, 0
1, 261276, Note_on_c, 0, 48, 0
1, 261279, Note_on_c, 0, 48, 47
1, 261279, Note_on_c, 0, 54, 54
1, 261279, Note_on_c, 0, 56, 54
1, 261282, Note_on_c, 0, 44, 0
1, 261282, Note_on_c, 0, 42, 0
1, 261282, Note_on_c, 0, 39, 45
1, 261285, Note_on_c, 0, 44, 45
1, 261642, Control_c, 0, 64, 127
1, 262250, Note_on_c, 0, 56, 0
1, 262250, Note_on_c, 0, 54, 0
1, 262250, Note_on_c, 0, 48, 0
1, 262253, Note_on_c, 0, 48, 47
1, 262253, Note_on_c, 0, 51, 54
1, 262253, Note_on_c, 0, 56, 54
1, 262256, Note_on_c, 0, 44, 0
1, 262256, Note_on_c, 0, 39, 0
1, 262256, Note_on_c, 0, 42, 45
1, 262259, Note_on_c, 0, 44, 45
1, 262400, Note_on_c, 0, 56, 0
1, 262400, Note_on_c, 0, 51, 0
1, 262400, Note_on_c, 0, 48, 0
1, 262403, Note_on_c, 0, 49, 49
1, 262403, Note_on_c, 0, 53, 49
1, 262403, Note_on_c, 0, 56, 57
1, 262406, Note_on_c, 0, 44, 0
1, 262406, Note_on_c, 0, 42, 0
1, 262406, Note_on_c, 0, 41, 43
1, 262409, Control_c, 0, 64, 0
1, 262409, Note_on_c, 0, 44, 49
1, 262604, Control_c, 0, 64, 127
1, 263258, Note_on_c, 0, 56, 0
1, 263258, Note_on_c, 0, 53, 0
1, 263258, Note_on_c, 0, 49, 0
1, 263261, Note_on_c, 0, 65, 55
1, 263261, Note_on_c, 0, 68, 55
1, 263261, Note_on_c, 0, 77, 65
1, 263264, Note_on_c, 0, 44, 0
1, 263264, Note_on_c, 0, 41, 0
1, 263264, Note_on_c, 0, 61, 56
1, 263529, Note_on_c, 0, 77, 0
1, 263529, Note_on_c, 0, 68, 0
1, 263529, Note_on_c, 0, 65, 0
1, 263532, Note_on_c, 0, 68, 55
1, 263532, Note_on_c, 0, 66, 55
1, 263532, Note_on_c, 0, 77, 68
1, 263535, Note_on_c, 0, 61, 0
1, 263535, Note_on_c, 0, 60, 54
1, 263558, Control_c, 0, 64, 0
1, 263663, Control_c, 0, 64, 127
1, 263781, Note_on_c, 0, 77, 0
1, 263781, Note_on_c, 0, 75, 61
1, 264048, Note_on_c, 0, 75, 0
1, 264048, Note_on_c, 0, 66, 0
1, 264048, Note_on_c, 0, 68, 0
1, 264051, Note_on_c, 0, 65, 41
1, 264051, Note_on_c, 0, 68, 41
1, 264051, Note_on_c, 0, 73, 47
1, 264054, Note_on_c, 0, 60, 0
1, 264054, Note_on_c, 0, 61, 44
1, 264065, Control_c, 0, 64, 0
1, 264182, Control_c, 0, 64, 127
1, 264467, Control_c, 0, 64, 0
1, 264619, Note_on_c, 0, 73, 0
1, 264619, Note_on_c, 0, 68, 0
1, 264619, Note_on_c, 0, 65, 0
1, 264622, Note_on_c, 0, 48, 63
1, 264622, Note_on_c, 0, 51, 63
1, 264622, Note_on_c, 0, 56, 76
1, 264625, Note_on_c, 0, 61, 0
1, 264625, Note_on_c, 0, 42, 66
1, 264625, Control_c, 0, 64, 127
1, 264628, Note_on_c, 0, 44, 66
1, 265655, Control_c, 0, 64, 0
1, 265717, Note_on_c, 0, 56, 0
1, 265717, Note_on_c, 0, 51, 0
1, 265717, Note_on_c, 0, 48, 0
1, 265720, Note_on_c, 0, 48, 71
1, 265720, Note_on_c, 0, 54, 82
1, 265720, Note_on_c, 0, 56, 82
1, 265723, Note_on_c, 0, 44, 0
1, 265723, Note_on_c, 0, 42, 0
1, 265723, Note_on_c, 0, 39, 67
1, 265726, Note_on_c, 0, 44, 67
1, 266108, Control_c, 0, 64, 127
1, 266747, Note_on_c, 0, 56, 0
1, 266747, Note_on_c, 0, 54, 0
1, 266747, Note_on_c, 0, 48, 0
1, 266750, Note_on_c, 0, 48, 75
1, 266750, Note_on_c, 0, 51, 87
1, 266750, Note_on_c, 0, 56, 87
1, 266753, Note_on_c, 0, 44, 0
1, 266753, Note_on_c, 0, 39, 0
1, 266753, Note_on_c, 0, 42, 72
1, 266756, Note_on_c, 0, 44, 72
1, 266898, Note_on_c, 0, 56, 0
1, 266898, Note_on_c, 0, 51, 0
1, 266898, Note_on_c, 0, 48, 0
1, 266901, Note_on_c, 0, 68, 90
1, 266901, Note_on_c, 0, 73, 90
1, 266901, Note_on_c, 0, 80, 108
1, 266904, Note_on_c, 0, 44, 0
1, 266904, Note_on_c, 0, 42, 0
1, 266904, Control_c, 0, 64, 0
1, 266907, Note_on_c, 0, 65, 92
1, 267099, Control_c, 0, 64, 127
1, 267722, Note_on_c, 0, 80, 0
1, 267722, Note_on_c, 0, 73, 0
1, 267722, Note_on_c, 0, 68, 0
1, 267725, Note_on_c, 0, 73, 80
1, 267725, Note_on_c, 0, 77, 80
1, 267725, Note_on_c, 0, 80, 93
1, 267728, Note_on_c, 0, 65, 0
1, 267728, Note_on_c, 0, 61, 66
1, 267728, Note_on_c, 0, 65, 73
1, 267986, Note_on_c, 0, 80, 0
1, 267986, Note_on_c, 0, 77, 0
1, 267986, Note_on_c, 0, 73, 0
1, 267989, Note_on_c, 0, 75, 80
1, 267989, Note_on_c, 0, 72, 80
1, 267989, Note_on_c, 0, 80, 97
1, 267992, Note_on_c, 0, 65, 0
1, 267992, Note_on_c, 0, 61, 0
1, 267992, Note_on_c, 0, 63, 69
1, 267995, Note_on_c, 0, 66, 81
1, 268016, Control_c, 0, 64, 0
1, 268122, Control_c, 0, 64, 127
1, 268241, Note_on_c, 0, 80, 0
1, 268241, Note_on_c, 0, 78, 78
1, 268496, Note_on_c, 0, 78, 0
1, 268496, Note_on_c, 0, 72, 0
1, 268496, Note_on_c, 0, 75, 0
1, 268499, Note_on_c, 0, 73, 67
1, 268499, Note_on_c, 0, 77, 81
1, 268499, Note_on_c, 0, 66, 0
1, 268502, Note_on_c, 0, 63, 0
1, 268502, Note_on_c, 0, 65, 57
1, 268502, Note_on_c, 0, 68, 63
1, 268511, Control_c, 0, 64, 0
1, 268615, Control_c, 0, 64, 127
1, 268752, Note_on_c, 0, 68, 0
1, 268752, Note_on_c, 0, 65, 0
1, 268752, Note_on_c, 0, 61, 47
1, 268755, Note_on_c, 0, 65, 60
1, 269034, Note_on_c, 0, 77, 0
1, 269034, Note_on_c, 0, 73, 0
1, 269034, Note_on_c, 0, 66, 49
1, 269037, Note_on_c, 0, 70, 49
1, 269037, Note_on_c, 0, 75, 57
1, 269037, Note_on_c, 0, 65, 0
1, 269040, Note_on_c, 0, 61, 0
1, 269040, Note_on_c, 0, 54, 47
1, 269040, Control_c, 0, 64, 0
1, 269043, Note_on_c, 0, 58, 47
1, 269467, Control_c, 0, 64, 127
1, 270146, Note_on_c, 0, 75, 0
1, 270146, Note_on_c, 0, 70, 0
1, 270146, Note_on_c, 0, 66, 0
1, 270149, Note_on_c, 0, 63, 47
1, 270149, Note_on_c, 0, 68, 53
1, 270149, Note_on_c, 0, 58, 0
1, 270152, Note_on_c, 0, 54, 0
1, 270152, Note_on_c, 0, 60, 44
1, 270152, Note_on_c, 0, 56, 44
1, 270277, Control_c, 0, 64, 0
1, 270872, Control_c, 0, 64, 127
1, 271335, Note_on_c, 0, 68, 0
1, 271335, Note_on_c, 0, 63, 0
1, 271335, Note_on_c, 0, 56, 0
1, 271338, Note_on_c, 0, 60, 0
1, 271338, Control_c, 0, 64, 0
1, 271338, Note_on_c, 0, 46, 37
1, 271416, Control_c, 0, 64, 127
1, 271478, Note_on_c, 0, 49, 38
1, 271620, Note_on_c, 0, 52, 40
1, 271763, Note_on_c, 0, 55, 41
1, 271906, Note_on_c, 0, 58, 44
1, 272049, Note_on_c, 0, 61, 40
1, 272191, Note_on_c, 0, 64, 42
1, 272334, Note_on_c, 0, 67, 44
1, 272477, Note_on_c, 0, 73, 46
1, 274156, Note_on_c, 0, 73, 0
1, 274156, Note_on_c, 0, 61, 0
1, 274156, Note_on_c, 0, 64, 0
1, 274159, Note_on_c, 0, 67, 0
1, 274159, Note_on_c, 0, 58, 0
1, 274159, Note_on_c, 0, 52, 0
1, 274162, Note_on_c, 0, 46, 0
1, 274162, Note_on_c, 0, 49, 0
1, 274162, Note_on_c, 0, 55, 0
1, 274165, Control_c, 0, 64, 0
1, 274165, Note_on_c, 0, 58, 84
1, 274205, Control_c, 0, 64, 127
1, 274243, Note_on_c, 0, 61, 89
1, 274331, Note_on_c, 0, 64, 92
1, 274419, Note_on_c, 0, 67, 96
1, 274506, Note_on_c, 0, 85, 112
1, 274506, Note_on_c, 0, 79, 96
1, 274506, Note_on_c, 0, 76, 96
1, 274509, Note_on_c, 0, 73, 96
1, 274509, Note_on_c, 0, 70, 100
1, 277436, Control_c, 0, 64, 0
1, 277717, Note_on_c, 0, 73, 0
1, 277717, Note_on_c, 0, 85, 0
1, 277717, Note_on_c, 0, 79, 0
1, 277720, Note_on_c, 0, 76, 0
1, 277720, Note_on_c, 0, 70, 0
1, 277720, Note_on_c, 0, 64, 0
1, 277723, Note_on_c, 0, 58, 0
1, 277723, Note_on_c, 0, 61, 0
1, 277723, Note_on_c, 0, 67, 0
1, 279221, End_track
0, 0, End_of_file
