0, 0, Header, 0, 1, 384
1, 0, Start_track
1, 0, Tempo, 512820
1, 0, Title_t, ""
1, 0, Program_c, 0, 1
1, 0, Control_c, 0, 64, 0
1, 3, Control_c, 0, 64, 0
1, 249, Control_c, 0, 64, 0
1, 249, Control_c, 0, 64, 0
1, 748, Note_on_c, 0, 64, 56
1, 898, Note_on_c, 0, 66, 62
1, 910, Note_off_c, 0, 64, 0
1, 1048, Control_c, 0, 64, 0
1, 1048, Control_c, 0, 64, 0
1, 1048, Note_on_c, 0, 68, 66
1, 1051, Note_on_c, 0, 64, 46
1, 1051, Note_on_c, 0, 40, 33
1, 1051, Note_on_c, 0, 52, 43
1, 1060, Note_off_c, 0, 66, 0
1, 1189, Control_c, 0, 64, 127
1, 1198, Note_off_c, 0, 64, 0
1, 1198, Note_on_c, 0, 59, 42
1, 1322, Note_off_c, 0, 59, 0
1, 1322, Note_on_c, 0, 64, 38
1, 1322, Note_off_c, 0, 40, 0
1, 1325, Note_off_c, 0, 52, 0
1, 1447, Note_off_c, 0, 64, 0
1, 1447, Note_on_c, 0, 59, 34
1, 1572, Note_off_c, 0, 68, 0
1, 1572, Note_off_c, 0, 59, 0
1, 1572, Note_on_c, 0, 68, 45
1, 1575, Note_on_c, 0, 71, 69
1, 1712, Note_off_c, 0, 68, 0
1, 1712, Note_on_c, 0, 59, 46
1, 1853, Note_off_c, 0, 59, 0
1, 1853, Note_on_c, 0, 66, 34
1, 1853, Note_on_c, 0, 69, 65
1, 1863, Note_off_c, 0, 71, 0
1, 1891, Control_c, 0, 64, 0
1, 1978, Note_off_c, 0, 66, 0
1, 1978, Note_on_c, 0, 59, 38
1, 2020, Control_c, 0, 64, 127
1, 2102, Control_c, 0, 64, 0
1, 2102, Control_c, 0, 64, 0
1, 2102, Note_off_c, 0, 59, 0
1, 2105, Note_on_c, 0, 68, 66
1, 2105, Note_on_c, 0, 64, 46
1, 2105, Note_on_c, 0, 35, 47
1, 2108, Note_on_c, 0, 47, 33
1, 2115, Note_off_c, 0, 69, 0
1, 2115, Control_c, 0, 64, 127
1, 2193, Control_c, 0, 64, 0
1, 2263, Note_off_c, 0, 64, 0
1, 2263, Note_on_c, 0, 59, 42
1, 2284, Control_c, 0, 64, 127
1, 2423, Note_off_c, 0, 59, 0
1, 2423, Note_on_c, 0, 63, 38
1, 2423, Note_on_c, 0, 66, 60
1, 2426, Note_off_c, 0, 35, 0
1, 2426, Note_off_c, 0, 47, 0
1, 2434, Note_off_c, 0, 68, 0
1, 2482, Control_c, 0, 64, 0
1, 2555, Note_off_c, 0, 63, 0
1, 2555, Note_on_c, 0, 59, 34
1, 2569, Control_c, 0, 64, 127
1, 2688, Note_off_c, 0, 59, 0
1, 2688, Note_on_c, 0, 63, 34
1, 2688, Note_off_c, 0, 66, 0
1, 2691, Note_on_c, 0, 66, 60
1, 2820, Note_off_c, 0, 63, 0
1, 2820, Note_on_c, 0, 59, 38
1, 2952, Note_off_c, 0, 59, 0
1, 2952, Note_on_c, 0, 64, 42
1, 2952, Note_on_c, 0, 68, 62
1, 2962, Note_off_c, 0, 66, 0
1, 2990, Control_c, 0, 64, 0
1, 3077, Note_off_c, 0, 64, 0
1, 3077, Note_on_c, 0, 59, 40
1, 3096, Control_c, 0, 64, 127
1, 3201, Control_c, 0, 64, 0
1, 3201, Control_c, 0, 64, 127
1, 3201, Note_off_c, 0, 59, 0
1, 3204, Note_on_c, 0, 69, 66
1, 3204, Note_on_c, 0, 64, 38
1, 3204, Note_on_c, 0, 37, 31
1, 3207, Note_on_c, 0, 49, 41
1, 3212, Note_off_c, 0, 68, 0
1, 3254, Control_c, 0, 64, 0
1, 3320, Control_c, 0, 64, 127
1, 3342, Note_off_c, 0, 64, 0
1, 3342, Note_on_c, 0, 59, 40
1, 3482, Note_off_c, 0, 59, 0
1, 3482, Note_on_c, 0, 64, 42
1, 3482, Note_on_c, 0, 73, 69
1, 3493, Note_off_c, 0, 69, 0
1, 3493, Note_off_c, 0, 37, 0
1, 3493, Note_off_c, 0, 49, 0
1, 3623, Note_off_c, 0, 64, 0
1, 3623, Note_on_c, 0, 59, 43
1, 3730, Control_c, 0, 64, 0
1, 3763, Note_off_c, 0, 59, 0
1, 3763, Note_on_c, 0, 66, 46
1, 3763, Note_on_c, 0, 71, 66
1, 3766, Note_on_c, 0, 39, 34
1, 3766, Note_on_c, 0, 51, 45
1, 3773, Note_off_c, 0, 73, 0
1, 3832, Control_c, 0, 64, 127
1, 3895, Note_off_c, 0, 66, 0
1, 3895, Note_on_c, 0, 59, 42
1, 4027, Note_off_c, 0, 59, 0
1, 4027, Note_on_c, 0, 63, 38
1, 4027, Note_on_c, 0, 66, 60
1, 4030, Note_on_c, 0, 35, 31
1, 4030, Note_on_c, 0, 47, 41
1, 4037, Note_off_c, 0, 71, 0
1, 4037, Note_off_c, 0, 39, 0
1, 4037, Note_off_c, 0, 51, 0
1, 4089, Control_c, 0, 64, 0
1, 4152, Note_off_c, 0, 63, 0
1, 4152, Note_on_c, 0, 59, 34
1, 4192, Control_c, 0, 64, 127
1, 4313, Control_c, 0, 64, 0
1, 4313, Control_c, 0, 64, 127
1, 4313, Note_off_c, 0, 59, 0
1, 4316, Note_on_c, 0, 59, 30
1, 4316, Note_on_c, 0, 64, 30
1, 4316, Note_on_c, 0, 68, 50
1, 4319, Note_on_c, 0, 40, 25
1, 4319, Note_on_c, 0, 52, 32
1, 4325, Note_off_c, 0, 66, 0
1, 4325, Note_off_c, 0, 35, 0
1, 4325, Note_off_c, 0, 47, 0
1, 4419, Control_c, 0, 64, 0
1, 4473, Note_on_c, 0, 56, 46
1, 4483, Note_off_c, 0, 40, 0
1, 4483, Note_off_c, 0, 52, 0
1, 4598, Note_on_c, 0, 59, 51
1, 4608, Note_off_c, 0, 56, 0
1, 4723, Note_on_c, 0, 57, 49
1, 4732, Note_off_c, 0, 59, 0
1, 4847, Note_off_c, 0, 59, 0
1, 4847, Note_off_c, 0, 64, 0
1, 4847, Note_off_c, 0, 68, 0
1, 4850, Note_on_c, 0, 56, 47
1, 4857, Note_off_c, 0, 57, 0
1, 4972, Note_on_c, 0, 57, 46
1, 4982, Note_off_c, 0, 56, 0
1, 5097, Note_on_c, 0, 76, 58
1, 5097, Note_on_c, 0, 56, 43
1, 5108, Note_off_c, 0, 57, 0
1, 5237, Note_on_c, 0, 78, 62
1, 5237, Note_on_c, 0, 54, 41
1, 5249, Note_off_c, 0, 76, 0
1, 5249, Note_off_c, 0, 56, 0
1, 5387, Control_c, 0, 64, 0
1, 5387, Control_c, 0, 64, 0
1, 5387, Control_c, 0, 64, 0
1, 5390, Note_on_c, 0, 68, 43
1, 5390, Note_on_c, 0, 80, 67
1, 5390, Note_on_c, 0, 52, 49
1, 5400, Note_off_c, 0, 78, 0
1, 5400, Note_off_c, 0, 54, 0
1, 5538, Control_c, 0, 64, 127
1, 5548, Note_on_c, 0, 59, 42
1, 5558, Note_off_c, 0, 52, 0
1, 5680, Note_on_c, 0, 47, 42
1, 5690, Note_off_c, 0, 59, 0
1, 5805, Note_on_c, 0, 59, 43
1, 5814, Note_off_c, 0, 47, 0
1, 5929, Note_off_c, 0, 68, 0
1, 5929, Note_off_c, 0, 80, 0
1, 5929, Note_on_c, 0, 71, 48
1, 5932, Note_on_c, 0, 83, 68
1, 5932, Note_on_c, 0, 52, 43
1, 5940, Note_off_c, 0, 59, 0
1, 6070, Note_on_c, 0, 59, 43
1, 6081, Note_off_c, 0, 52, 0
1, 6210, Note_off_c, 0, 71, 0
1, 6210, Note_off_c, 0, 83, 0
1, 6210, Note_on_c, 0, 69, 47
1, 6213, Note_on_c, 0, 81, 70
1, 6213, Note_on_c, 0, 47, 43
1, 6221, Note_off_c, 0, 59, 0
1, 6250, Control_c, 0, 64, 0
1, 6342, Note_on_c, 0, 59, 45
1, 6353, Note_off_c, 0, 47, 0
1, 6387, Control_c, 0, 64, 127
1, 6474, Control_c, 0, 64, 0
1, 6474, Control_c, 0, 64, 0
1, 6474, Control_c, 0, 64, 0
1, 6477, Note_off_c, 0, 69, 0
1, 6477, Note_off_c, 0, 81, 0
1, 6477, Note_on_c, 0, 68, 48
1, 6480, Note_on_c, 0, 80, 71
1, 6480, Note_on_c, 0, 51, 51
1, 6486, Note_off_c, 0, 59, 0
1, 6489, Control_c, 0, 64, 127
1, 6559, Control_c, 0, 64, 0
1, 6624, Note_on_c, 0, 59, 45
1, 6644, Control_c, 0, 64, 127
1, 6774, Note_off_c, 0, 68, 0
1, 6774, Note_off_c, 0, 80, 0
1, 6774, Note_on_c, 0, 66, 41
1, 6777, Note_on_c, 0, 78, 65
1, 6777, Note_on_c, 0, 47, 45
1, 6784, Note_off_c, 0, 59, 0
1, 6833, Control_c, 0, 64, 0
1, 6906, Note_on_c, 0, 59, 45
1, 6916, Note_off_c, 0, 47, 0
1, 6920, Control_c, 0, 64, 127
1, 7038, Note_off_c, 0, 66, 0
1, 7038, Note_off_c, 0, 78, 0
1, 7038, Note_on_c, 0, 66, 41
1, 7041, Note_on_c, 0, 78, 65
1, 7041, Note_off_c, 0, 51, 0
1, 7041, Note_on_c, 0, 51, 52
1, 7048, Note_off_c, 0, 59, 0
1, 7163, Note_on_c, 0, 59, 45
1, 7288, Note_off_c, 0, 66, 0
1, 7288, Note_off_c, 0, 78, 0
1, 7288, Note_on_c, 0, 68, 43
1, 7291, Note_on_c, 0, 80, 67
1, 7291, Note_off_c, 0, 51, 0
1, 7291, Note_on_c, 0, 53, 52
1, 7298, Note_off_c, 0, 59, 0
1, 7328, Control_c, 0, 64, 0
1, 7420, Note_on_c, 0, 59, 46
1, 7440, Control_c, 0, 64, 127
1, 7552, Control_c, 0, 64, 0
1, 7552, Control_c, 0, 64, 127
1, 7552, Control_c, 0, 64, 0
1, 7555, Note_off_c, 0, 68, 0
1, 7555, Note_off_c, 0, 80, 0
1, 7555, Note_off_c, 0, 53, 0
1, 7558, Note_on_c, 0, 69, 50
1, 7558, Note_on_c, 0, 81, 74
1, 7558, Note_on_c, 0, 54, 53
1, 7563, Note_off_c, 0, 59, 0
1, 7605, Control_c, 0, 64, 0
1, 7671, Control_c, 0, 64, 127
1, 7693, Note_on_c, 0, 59, 46
1, 7704, Note_off_c, 0, 54, 0
1, 7833, Note_off_c, 0, 69, 0
1, 7833, Note_off_c, 0, 81, 0
1, 7833, Note_on_c, 0, 73, 53
1, 7836, Note_on_c, 0, 85, 79
1, 7836, Note_on_c, 0, 57, 53
1, 7843, Note_off_c, 0, 59, 0
1, 7965, Note_on_c, 0, 59, 47
1, 7975, Note_off_c, 0, 57, 0
1, 8066, Control_c, 0, 64, 0
1, 8097, Note_off_c, 0, 73, 0
1, 8097, Note_off_c, 0, 85, 0
1, 8097, Note_on_c, 0, 71, 50
1, 8100, Note_on_c, 0, 83, 76
1, 8100, Note_on_c, 0, 56, 55
1, 8108, Note_off_c, 0, 59, 0
1, 8166, Control_c, 0, 64, 127
1, 8229, Note_on_c, 0, 59, 47
1, 8240, Note_off_c, 0, 56, 0
1, 8258, Note_off_c, 0, 71, 0
1, 8258, Note_off_c, 0, 83, 0
1, 8277, Control_c, 0, 64, 0
1, 8362, Note_on_c, 0, 75, 46
1, 8362, Note_on_c, 0, 87, 67
1, 8362, Note_on_c, 0, 47, 37
1, 8365, Note_on_c, 0, 54, 45
1, 8373, Note_off_c, 0, 59, 0
1, 8435, Control_c, 0, 64, 0
1, 8439, Note_off_c, 0, 75, 0
1, 8439, Note_off_c, 0, 87, 0
1, 8478, Control_c, 0, 64, 0
1, 8511, Note_on_c, 0, 57, 38
1, 8523, Note_off_c, 0, 47, 0
1, 8523, Note_off_c, 0, 54, 0
1, 8661, Control_c, 0, 64, 0
1, 8661, Control_c, 0, 64, 0
1, 8661, Note_on_c, 0, 76, 47
1, 8664, Note_on_c, 0, 88, 70
1, 8664, Note_on_c, 0, 52, 33
1, 8664, Note_on_c, 0, 56, 42
1, 8673, Note_off_c, 0, 57, 0
1, 8811, Note_on_c, 0, 59, 42
1, 8821, Note_off_c, 0, 52, 0
1, 8936, Note_off_c, 0, 56, 0
1, 8936, Note_on_c, 0, 56, 42
1, 8945, Note_off_c, 0, 59, 0
1, 9060, Note_on_c, 0, 52, 42
1, 9070, Note_off_c, 0, 56, 0
1, 9185, Note_off_c, 0, 76, 0
1, 9185, Note_off_c, 0, 88, 0
1, 9185, Note_on_c, 0, 51, 47
1, 9195, Note_off_c, 0, 52, 0
1, 9273, Control_c, 0, 64, 127
1, 9310, Note_on_c, 0, 59, 42
1, 9435, Note_on_c, 0, 71, 71
1, 9435, Note_off_c, 0, 51, 0
1, 9435, Note_on_c, 0, 54, 42
1, 9446, Note_off_c, 0, 59, 0
1, 9575, Note_on_c, 0, 51, 42
1, 9586, Note_off_c, 0, 54, 0
1, 9716, Control_c, 0, 64, 0
1, 9716, Control_c, 0, 64, 127
1, 9716, Note_on_c, 0, 70, 75
1, 9719, Note_on_c, 0, 49, 55
1, 9727, Note_off_c, 0, 71, 0
1, 9727, Note_off_c, 0, 51, 0
1, 9772, Control_c, 0, 64, 0
1, 9865, Note_on_c, 0, 58, 42
1, 9905, Control_c, 0, 64, 127
1, 9990, Note_off_c, 0, 49, 0
1, 9990, Note_on_c, 0, 54, 42
1, 10000, Note_off_c, 0, 58, 0
1, 10115, Note_on_c, 0, 49, 42
1, 10125, Note_off_c, 0, 54, 0
1, 10240, Note_on_c, 0, 76, 79
1, 10240, Note_on_c, 0, 42, 55
1, 10246, Control_c, 0, 64, 0
1, 10250, Note_off_c, 0, 70, 0
1, 10250, Note_off_c, 0, 49, 0
1, 10365, Note_on_c, 0, 58, 42
1, 10375, Control_c, 0, 64, 127
1, 10489, Note_off_c, 0, 42, 0
1, 10489, Note_on_c, 0, 54, 42
1, 10499, Note_off_c, 0, 58, 0
1, 10614, Note_on_c, 0, 49, 42
1, 10624, Note_off_c, 0, 54, 0
1, 10739, Control_c, 0, 64, 0
1, 10739, Control_c, 0, 64, 127
1, 10739, Note_on_c, 0, 75, 75
1, 10742, Note_on_c, 0, 47, 53
1, 10749, Note_off_c, 0, 76, 0
1, 10749, Note_off_c, 0, 49, 0
1, 10797, Control_c, 0, 64, 0
1, 10864, Note_on_c, 0, 59, 42
1, 10880, Control_c, 0, 64, 127
1, 10989, Note_off_c, 0, 47, 0
1, 10989, Note_on_c, 0, 54, 42
1, 10998, Note_off_c, 0, 59, 0
1, 11113, Note_on_c, 0, 51, 42
1, 11123, Note_off_c, 0, 54, 0
1, 11238, Note_on_c, 0, 47, 47
1, 11248, Note_off_c, 0, 51, 0
1, 11363, Note_on_c, 0, 59, 42
1, 11488, Note_on_c, 0, 69, 60
1, 11488, Note_off_c, 0, 47, 0
1, 11488, Note_on_c, 0, 49, 39
1, 11499, Note_off_c, 0, 75, 0
1, 11499, Note_off_c, 0, 59, 0
1, 11517, Control_c, 0, 64, 0
1, 11628, Note_on_c, 0, 57, 34
1, 11636, Control_c, 0, 64, 127
1, 11769, Control_c, 0, 64, 0
1, 11769, Control_c, 0, 64, 127
1, 11769, Note_off_c, 0, 49, 0
1, 11772, Note_on_c, 0, 68, 62
1, 11772, Note_on_c, 0, 47, 40
1, 11780, Note_off_c, 0, 69, 0
1, 11780, Note_off_c, 0, 57, 0
1, 11839, Control_c, 0, 64, 0
1, 11918, Note_on_c, 0, 56, 34
1, 11982, Control_c, 0, 64, 127
1, 12043, Note_off_c, 0, 47, 0
1, 12043, Note_on_c, 0, 52, 34
1, 12053, Note_off_c, 0, 56, 0
1, 12168, Note_on_c, 0, 47, 34
1, 12178, Note_off_c, 0, 52, 0
1, 12293, Note_on_c, 0, 74, 67
1, 12293, Note_on_c, 0, 40, 46
1, 12302, Note_off_c, 0, 68, 0
1, 12302, Note_off_c, 0, 47, 0
1, 12310, Control_c, 0, 64, 0
1, 12416, Control_c, 0, 64, 127
1, 12416, Note_on_c, 0, 56, 36
1, 12542, Note_off_c, 0, 40, 0
1, 12542, Note_on_c, 0, 52, 36
1, 12552, Note_off_c, 0, 56, 0
1, 12667, Note_on_c, 0, 47, 36
1, 12677, Note_off_c, 0, 52, 0
1, 12792, Control_c, 0, 64, 0
1, 12792, Control_c, 0, 64, 127
1, 12792, Note_on_c, 0, 73, 64
1, 12795, Note_on_c, 0, 45, 42
1, 12803, Note_off_c, 0, 74, 0
1, 12803, Note_off_c, 0, 47, 0
1, 12871, Control_c, 0, 64, 0
1, 12932, Note_on_c, 0, 57, 36
1, 12996, Control_c, 0, 64, 127
1, 13057, Note_off_c, 0, 45, 0
1, 13057, Note_on_c, 0, 52, 36
1, 13067, Note_off_c, 0, 57, 0
1, 13182, Note_on_c, 0, 49, 36
1, 13192, Note_off_c, 0, 52, 0
1, 13301, Control_c, 0, 64, 0
1, 13307, Note_on_c, 0, 45, 41
1, 13316, Note_off_c, 0, 49, 0
1, 13432, Note_off_c, 0, 45, 0
1, 13432, Note_on_c, 0, 52, 31
1, 13453, Control_c, 0, 64, 127
1, 13556, Note_off_c, 0, 73, 0
1, 13556, Note_on_c, 0, 73, 68
1, 13556, Note_off_c, 0, 52, 0
1, 13559, Note_on_c, 0, 45, 31
1, 13697, Note_off_c, 0, 45, 0
1, 13697, Note_on_c, 0, 52, 32
1, 13837, Control_c, 0, 64, 0
1, 13837, Control_c, 0, 64, 127
1, 13837, Note_off_c, 0, 52, 0
1, 13840, Note_on_c, 0, 72, 68
1, 13840, Note_on_c, 0, 45, 52
1, 13850, Note_off_c, 0, 73, 0
1, 13882, Control_c, 0, 64, 0
1, 13988, Control_c, 0, 64, 127
1, 13998, Note_on_c, 0, 52, 37
1, 14158, Note_on_c, 0, 73, 60
1, 14158, Note_off_c, 0, 45, 0
1, 14158, Note_on_c, 0, 45, 37
1, 14168, Note_off_c, 0, 72, 0
1, 14192, Control_c, 0, 64, 0
1, 14290, Note_off_c, 0, 52, 0
1, 14290, Note_on_c, 0, 52, 37
1, 14290, Control_c, 0, 64, 127
1, 14404, Control_c, 0, 64, 0
1, 14422, Note_on_c, 0, 61, 40
1, 14422, Note_on_c, 0, 64, 40
1, 14422, Note_on_c, 0, 69, 66
1, 14425, Note_off_c, 0, 45, 0
1, 14425, Note_on_c, 0, 45, 53
1, 14433, Note_off_c, 0, 73, 0
1, 14535, Control_c, 0, 64, 127
1, 14563, Note_off_c, 0, 52, 0
1, 14563, Note_on_c, 0, 52, 38
1, 14703, Note_off_c, 0, 64, 0
1, 14703, Note_on_c, 0, 59, 40
1, 14703, Note_on_c, 0, 64, 40
1, 14706, Note_on_c, 0, 68, 68
1, 14706, Note_off_c, 0, 45, 0
1, 14706, Note_on_c, 0, 47, 61
1, 14715, Note_off_c, 0, 61, 0
1, 14715, Note_off_c, 0, 69, 0
1, 14834, Control_c, 0, 64, 0
1, 14853, Note_off_c, 0, 52, 0
1, 14853, Note_on_c, 0, 52, 38
1, 14910, Control_c, 0, 64, 127
1, 15003, Control_c, 0, 64, 0
1, 15003, Control_c, 0, 64, 127
1, 15003, Note_off_c, 0, 59, 0
1, 15006, Note_off_c, 0, 64, 0
1, 15006, Note_off_c, 0, 68, 0
1, 15006, Note_off_c, 0, 47, 0
1, 15009, Note_off_c, 0, 52, 0
1, 15009, Note_on_c, 0, 58, 45
1, 15009, Note_on_c, 0, 64, 40
1, 15012, Note_on_c, 0, 68, 61
1, 15012, Note_on_c, 0, 49, 65
1, 15059, Control_c, 0, 64, 0
1, 15163, Note_on_c, 0, 52, 39
1, 15172, Control_c, 0, 64, 127
1, 15324, Note_off_c, 0, 68, 0
1, 15324, Note_on_c, 0, 66, 58
1, 15324, Note_off_c, 0, 49, 0
1, 15327, Note_on_c, 0, 49, 39
1, 15382, Control_c, 0, 64, 0
1, 15432, Control_c, 0, 64, 127
1, 15456, Note_off_c, 0, 52, 0
1, 15456, Note_on_c, 0, 52, 40
1, 15588, Note_off_c, 0, 58, 0
1, 15588, Note_off_c, 0, 64, 0
1, 15588, Note_on_c, 0, 57, 40
1, 15591, Note_on_c, 0, 64, 40
1, 15591, Note_off_c, 0, 49, 0
1, 15591, Note_on_c, 0, 48, 57
1, 15605, Control_c, 0, 64, 0
1, 15699, Control_c, 0, 64, 127
1, 15713, Note_off_c, 0, 52, 0
1, 15713, Note_on_c, 0, 52, 41
1, 15837, Note_off_c, 0, 66, 0
1, 15837, Note_on_c, 0, 66, 62
1, 15837, Note_off_c, 0, 48, 0
1, 15840, Note_on_c, 0, 48, 42
1, 15987, Note_off_c, 0, 52, 0
1, 15987, Note_on_c, 0, 52, 43
1, 16148, Control_c, 0, 64, 0
1, 16148, Control_c, 0, 64, 127
1, 16148, Note_off_c, 0, 57, 0
1, 16151, Note_off_c, 0, 64, 0
1, 16151, Note_off_c, 0, 66, 0
1, 16151, Note_off_c, 0, 48, 0
1, 16154, Note_off_c, 0, 52, 0
1, 16154, Note_on_c, 0, 57, 40
1, 16154, Note_on_c, 0, 63, 33
1, 16157, Note_on_c, 0, 66, 69
1, 16157, Note_on_c, 0, 47, 41
1, 16232, Control_c, 0, 64, 0
1, 16297, Note_on_c, 0, 54, 30
1, 16345, Control_c, 0, 64, 127
1, 16447, Note_off_c, 0, 63, 0
1, 16447, Note_on_c, 0, 63, 33
1, 16447, Note_on_c, 0, 71, 65
1, 16450, Note_off_c, 0, 47, 0
1, 16450, Note_on_c, 0, 47, 36
1, 16457, Note_off_c, 0, 57, 0
1, 16457, Note_off_c, 0, 66, 0
1, 16572, Note_off_c, 0, 54, 0
1, 16572, Note_on_c, 0, 54, 29
1, 16572, Note_on_c, 0, 57, 34
1, 16691, Control_c, 0, 64, 0
1, 16697, Note_on_c, 0, 70, 59
1, 16697, Note_off_c, 0, 47, 0
1, 16697, Note_on_c, 0, 47, 32
1, 16707, Note_off_c, 0, 71, 0
1, 16808, Control_c, 0, 64, 127
1, 16822, Note_off_c, 0, 54, 0
1, 16822, Note_off_c, 0, 57, 0
1, 16822, Note_on_c, 0, 54, 27
1, 16825, Note_on_c, 0, 57, 31
1, 16946, Note_off_c, 0, 63, 0
1, 16946, Note_on_c, 0, 63, 29
1, 16946, Note_on_c, 0, 71, 51
1, 16949, Note_off_c, 0, 47, 0
1, 16949, Note_on_c, 0, 47, 30
1, 16957, Note_off_c, 0, 70, 0
1, 17056, Control_c, 0, 64, 0
1, 17087, Note_off_c, 0, 54, 0
1, 17087, Note_off_c, 0, 57, 0
1, 17087, Note_on_c, 0, 54, 23
1, 17090, Note_on_c, 0, 57, 28
1, 17117, Note_off_c, 0, 63, 0
1, 17117, Note_off_c, 0, 71, 0
1, 17227, Control_c, 0, 64, 0
1, 17227, Control_c, 0, 64, 0
1, 17227, Control_c, 0, 64, 0
1, 17230, Note_off_c, 0, 47, 0
1, 17230, Note_off_c, 0, 54, 0
1, 17230, Note_off_c, 0, 57, 0
1, 17233, Note_on_c, 0, 64, 55
1, 17233, Note_on_c, 0, 52, 36
1, 17233, Note_on_c, 0, 56, 42
1, 17368, Note_on_c, 0, 59, 36
1, 17492, Note_off_c, 0, 52, 0
1, 17492, Note_off_c, 0, 56, 0
1, 17492, Note_off_c, 0, 59, 0
1, 17495, Note_on_c, 0, 56, 36
1, 17617, Note_on_c, 0, 52, 36
1, 17742, Note_off_c, 0, 64, 0
1, 17742, Note_off_c, 0, 52, 0
1, 17742, Note_off_c, 0, 56, 0
1, 17745, Note_on_c, 0, 51, 42
1, 17830, Control_c, 0, 64, 127
1, 17867, Note_on_c, 0, 59, 36
1, 17992, Note_on_c, 0, 71, 48
1, 17992, Note_on_c, 0, 83, 66
1, 17992, Note_off_c, 0, 51, 0
1, 17995, Note_off_c, 0, 59, 0
1, 17995, Note_on_c, 0, 54, 36
1, 18132, Note_off_c, 0, 54, 0
1, 18132, Note_on_c, 0, 51, 36
1, 18272, Control_c, 0, 64, 0
1, 18272, Control_c, 0, 64, 127
1, 18272, Control_c, 0, 64, 0
1, 18275, Note_off_c, 0, 71, 0
1, 18275, Note_off_c, 0, 83, 0
1, 18275, Note_off_c, 0, 51, 0
1, 18278, Note_on_c, 0, 70, 52
1, 18278, Note_on_c, 0, 82, 70
1, 18278, Note_on_c, 0, 49, 49
1, 18329, Control_c, 0, 64, 0
1, 18422, Note_on_c, 0, 58, 37
1, 18462, Control_c, 0, 64, 127
1, 18547, Note_off_c, 0, 49, 0
1, 18547, Note_off_c, 0, 58, 0
1, 18547, Note_on_c, 0, 54, 37
1, 18672, Note_off_c, 0, 54, 0
1, 18672, Note_on_c, 0, 49, 37
1, 18797, Note_off_c, 0, 70, 0
1, 18797, Note_off_c, 0, 82, 0
1, 18797, Note_on_c, 0, 76, 57
1, 18800, Note_on_c, 0, 88, 75
1, 18800, Note_off_c, 0, 49, 0
1, 18800, Note_on_c, 0, 42, 49
1, 18800, Control_c, 0, 64, 0
1, 18921, Note_on_c, 0, 58, 37
1, 18932, Control_c, 0, 64, 127
1, 19046, Note_off_c, 0, 42, 0
1, 19046, Note_off_c, 0, 58, 0
1, 19046, Note_on_c, 0, 54, 37
1, 19171, Note_off_c, 0, 54, 0
1, 19171, Note_on_c, 0, 49, 37
1, 19296, Control_c, 0, 64, 0
1, 19296, Control_c, 0, 64, 127
1, 19296, Control_c, 0, 64, 0
1, 19299, Note_off_c, 0, 76, 0
1, 19299, Note_off_c, 0, 88, 0
1, 19299, Note_off_c, 0, 49, 0
1, 19302, Note_on_c, 0, 75, 52
1, 19302, Note_on_c, 0, 87, 70
1, 19302, Note_on_c, 0, 47, 56
1, 19354, Control_c, 0, 64, 0
1, 19421, Note_on_c, 0, 59, 42
1, 19437, Control_c, 0, 64, 127
1, 19545, Note_off_c, 0, 47, 0
1, 19545, Note_off_c, 0, 59, 0
1, 19545, Note_on_c, 0, 54, 42
1, 19670, Note_off_c, 0, 54, 0
1, 19670, Note_on_c, 0, 51, 42
1, 19795, Note_off_c, 0, 51, 0
1, 19795, Note_on_c, 0, 47, 49
1, 19920, Note_on_c, 0, 59, 42
1, 20045, Note_off_c, 0, 75, 0
1, 20045, Note_off_c, 0, 87, 0
1, 20045, Note_on_c, 0, 69, 49
1, 20048, Note_on_c, 0, 81, 67
1, 20048, Note_off_c, 0, 47, 0
1, 20048, Note_off_c, 0, 59, 0
1, 20051, Note_on_c, 0, 49, 49
1, 20074, Control_c, 0, 64, 0
1, 20185, Note_on_c, 0, 57, 42
1, 20193, Control_c, 0, 64, 127
1, 20325, Control_c, 0, 64, 0
1, 20325, Control_c, 0, 64, 127
1, 20325, Control_c, 0, 64, 0
1, 20328, Note_off_c, 0, 69, 0
1, 20328, Note_off_c, 0, 81, 0
1, 20328, Note_off_c, 0, 49, 0
1, 20331, Note_off_c, 0, 57, 0
1, 20331, Note_on_c, 0, 68, 52
1, 20331, Note_on_c, 0, 80, 70
1, 20334, Note_on_c, 0, 47, 56
1, 20396, Control_c, 0, 64, 0
1, 20475, Note_on_c, 0, 56, 42
1, 20538, Control_c, 0, 64, 127
1, 20600, Note_off_c, 0, 47, 0
1, 20600, Note_off_c, 0, 56, 0
1, 20600, Note_on_c, 0, 52, 42
1, 20725, Note_off_c, 0, 52, 0
1, 20725, Note_on_c, 0, 47, 42
1, 20850, Note_off_c, 0, 68, 0
1, 20850, Note_off_c, 0, 80, 0
1, 20850, Note_on_c, 0, 74, 42
1, 20853, Note_on_c, 0, 86, 70
1, 20853, Note_off_c, 0, 47, 0
1, 20853, Note_on_c, 0, 40, 56
1, 20867, Control_c, 0, 64, 0
1, 20973, Control_c, 0, 64, 127
1, 20973, Note_on_c, 0, 56, 42
1, 21099, Note_off_c, 0, 40, 0
1, 21099, Note_off_c, 0, 56, 0
1, 21099, Note_on_c, 0, 52, 42
1, 21224, Note_off_c, 0, 52, 0
1, 21224, Note_on_c, 0, 47, 42
1, 21349, Control_c, 0, 64, 0
1, 21349, Control_c, 0, 64, 127
1, 21349, Control_c, 0, 64, 0
1, 21352, Note_off_c, 0, 74, 0
1, 21352, Note_off_c, 0, 86, 0
1, 21352, Note_off_c, 0, 47, 0
1, 21355, Note_on_c, 0, 73, 38
1, 21355, Note_on_c, 0, 85, 66
1, 21355, Note_on_c, 0, 45, 56
1, 21419, Control_c, 0, 64, 0
1, 21474, Note_on_c, 0, 57, 42
1, 21537, Control_c, 0, 64, 127
1, 21598, Note_off_c, 0, 45, 0
1, 21598, Note_off_c, 0, 57, 0
1, 21598, Note_on_c, 0, 52, 42
1, 21723, Note_off_c, 0, 52, 0
1, 21723, Note_on_c, 0, 49, 42
1, 21842, Control_c, 0, 64, 0
1, 21848, Note_off_c, 0, 49, 0
1, 21848, Note_on_c, 0, 45, 42
1, 21973, Note_on_c, 0, 52, 42
1, 21995, Control_c, 0, 64, 127
1, 22098, Note_off_c, 0, 73, 0
1, 22098, Note_off_c, 0, 85, 0
1, 22098, Note_on_c, 0, 73, 49
1, 22101, Note_on_c, 0, 85, 67
1, 22101, Note_off_c, 0, 45, 0
1, 22101, Note_off_c, 0, 52, 0
1, 22104, Note_on_c, 0, 45, 60
1, 22238, Note_on_c, 0, 52, 42
1, 22378, Control_c, 0, 64, 0
1, 22378, Control_c, 0, 64, 127
1, 22378, Control_c, 0, 64, 0
1, 22381, Note_off_c, 0, 73, 0
1, 22381, Note_off_c, 0, 85, 0
1, 22381, Note_off_c, 0, 45, 0
1, 22384, Note_off_c, 0, 52, 0
1, 22384, Note_on_c, 0, 72, 52
1, 22384, Note_on_c, 0, 84, 70
1, 22387, Note_on_c, 0, 44, 60
1, 22423, Control_c, 0, 64, 0
1, 22529, Control_c, 0, 64, 127
1, 22539, Note_on_c, 0, 52, 42
1, 22699, Note_off_c, 0, 72, 0
1, 22699, Note_off_c, 0, 84, 0
1, 22699, Note_on_c, 0, 73, 49
1, 22702, Note_on_c, 0, 85, 67
1, 22702, Note_off_c, 0, 44, 0
1, 22702, Note_off_c, 0, 52, 0
1, 22705, Note_on_c, 0, 45, 42
1, 22733, Control_c, 0, 64, 0
1, 22831, Note_on_c, 0, 52, 42
1, 22831, Control_c, 0, 64, 127
1, 22945, Control_c, 0, 64, 0
1, 22963, Note_off_c, 0, 73, 0
1, 22963, Note_off_c, 0, 85, 0
1, 22963, Note_on_c, 0, 69, 52
1, 22966, Note_on_c, 0, 81, 70
1, 22966, Note_off_c, 0, 45, 0
1, 22966, Note_off_c, 0, 52, 0
1, 22969, Note_on_c, 0, 45, 49
1, 22969, Note_on_c, 0, 49, 42
1, 23076, Control_c, 0, 64, 127
1, 23104, Note_off_c, 0, 49, 0
1, 23104, Note_on_c, 0, 52, 42
1, 23244, Note_off_c, 0, 69, 0
1, 23244, Note_off_c, 0, 81, 0
1, 23244, Note_on_c, 0, 68, 56
1, 23247, Note_on_c, 0, 80, 74
1, 23247, Note_off_c, 0, 45, 0
1, 23247, Note_off_c, 0, 52, 0
1, 23250, Note_on_c, 0, 47, 48
1, 23250, Note_on_c, 0, 52, 42
1, 23367, Control_c, 0, 64, 0
1, 23385, Note_on_c, 0, 56, 42
1, 23438, Control_c, 0, 64, 127
1, 23525, Control_c, 0, 64, 0
1, 23525, Control_c, 0, 64, 127
1, 23525, Control_c, 0, 64, 0
1, 23528, Note_off_c, 0, 68, 0
1, 23528, Note_off_c, 0, 80, 0
1, 23528, Note_off_c, 0, 47, 0
1, 23531, Note_off_c, 0, 52, 0
1, 23531, Note_off_c, 0, 56, 0
1, 23531, Note_on_c, 0, 68, 58
1, 23534, Note_on_c, 0, 80, 76
1, 23534, Note_on_c, 0, 49, 61
1, 23534, Note_on_c, 0, 52, 46
1, 23582, Control_c, 0, 64, 0
1, 23686, Note_off_c, 0, 52, 0
1, 23686, Note_on_c, 0, 58, 45
1, 23694, Control_c, 0, 64, 127
1, 23846, Note_off_c, 0, 68, 0
1, 23846, Note_off_c, 0, 80, 0
1, 23846, Note_on_c, 0, 66, 46
1, 23849, Note_on_c, 0, 78, 64
1, 23849, Note_off_c, 0, 49, 0
1, 23849, Note_off_c, 0, 58, 0
1, 23852, Note_on_c, 0, 49, 43
1, 23852, Note_on_c, 0, 52, 43
1, 23905, Control_c, 0, 64, 0
1, 23955, Control_c, 0, 64, 127
1, 23978, Note_off_c, 0, 52, 0
1, 23978, Note_on_c, 0, 58, 42
1, 24110, Note_off_c, 0, 49, 0
1, 24110, Note_off_c, 0, 58, 0
1, 24110, Note_on_c, 0, 48, 51
1, 24113, Note_on_c, 0, 52, 42
1, 24129, Control_c, 0, 64, 0
1, 24228, Control_c, 0, 64, 127
1, 24242, Note_off_c, 0, 52, 0
1, 24242, Note_on_c, 0, 57, 41
1, 24375, Note_off_c, 0, 66, 0
1, 24375, Note_off_c, 0, 78, 0
1, 24375, Note_on_c, 0, 66, 50
1, 24378, Note_on_c, 0, 78, 68
1, 24378, Note_off_c, 0, 48, 0
1, 24378, Note_off_c, 0, 57, 0
1, 24381, Note_on_c, 0, 48, 40
1, 24381, Note_on_c, 0, 52, 40
1, 24524, Note_off_c, 0, 52, 0
1, 24524, Note_on_c, 0, 57, 39
1, 24674, Control_c, 0, 64, 0
1, 24674, Control_c, 0, 64, 127
1, 24674, Control_c, 0, 64, 0
1, 24677, Note_off_c, 0, 66, 0
1, 24677, Note_off_c, 0, 78, 0
1, 24677, Note_off_c, 0, 48, 0
1, 24680, Note_off_c, 0, 57, 0
1, 24680, Note_on_c, 0, 66, 48
1, 24680, Note_on_c, 0, 78, 65
1, 24683, Note_on_c, 0, 47, 53
1, 24683, Note_on_c, 0, 51, 42
1, 24759, Control_c, 0, 64, 0
1, 24824, Note_on_c, 0, 57, 42
1, 24871, Control_c, 0, 64, 127
1, 24974, Note_off_c, 0, 66, 0
1, 24974, Note_off_c, 0, 78, 0
1, 24974, Note_on_c, 0, 71, 47
1, 24977, Note_on_c, 0, 83, 62
1, 24977, Note_off_c, 0, 47, 0
1, 24977, Note_off_c, 0, 51, 0
1, 24980, Note_off_c, 0, 57, 0
1, 24980, Note_on_c, 0, 47, 41
1, 24980, Note_on_c, 0, 51, 41
1, 25083, Control_c, 0, 64, 127
1, 25106, Note_off_c, 0, 47, 0
1, 25106, Note_off_c, 0, 51, 0
1, 25106, Note_on_c, 0, 57, 40
1, 25238, Note_off_c, 0, 71, 0
1, 25238, Note_off_c, 0, 83, 0
1, 25238, Note_on_c, 0, 70, 46
1, 25241, Note_on_c, 0, 82, 61
1, 25241, Note_off_c, 0, 57, 0
1, 25241, Note_on_c, 0, 47, 39
1, 25244, Note_on_c, 0, 51, 39
1, 25370, Note_off_c, 0, 47, 0
1, 25370, Note_off_c, 0, 51, 0
1, 25370, Note_on_c, 0, 57, 39
1, 25502, Note_off_c, 0, 70, 0
1, 25502, Note_off_c, 0, 82, 0
1, 25502, Note_on_c, 0, 71, 45
1, 25505, Note_on_c, 0, 83, 59
1, 25505, Note_off_c, 0, 57, 0
1, 25505, Note_on_c, 0, 47, 38
1, 25508, Note_on_c, 0, 51, 38
1, 25611, Control_c, 0, 64, 0
1, 25643, Note_off_c, 0, 47, 0
1, 25643, Note_off_c, 0, 51, 0
1, 25643, Note_on_c, 0, 57, 37
1, 25783, Control_c, 0, 64, 0
1, 25783, Control_c, 0, 64, 0
1, 25783, Note_off_c, 0, 71, 0
1, 25786, Note_off_c, 0, 83, 0
1, 25786, Note_off_c, 0, 57, 0
1, 25786, Note_on_c, 0, 64, 43
1, 25789, Note_on_c, 0, 76, 58
1, 25789, Note_on_c, 0, 52, 37
1, 25789, Note_on_c, 0, 56, 42
1, 25896, Note_off_c, 0, 52, 0
1, 25896, Note_off_c, 0, 56, 0
1, 25923, Note_on_c, 0, 52, 41
1, 26024, Note_off_c, 0, 52, 0
1, 26048, Note_on_c, 0, 51, 40
1, 26149, Note_off_c, 0, 51, 0
1, 26173, Note_on_c, 0, 49, 39
1, 26273, Note_off_c, 0, 49, 0
1, 26298, Note_off_c, 0, 64, 0
1, 26298, Note_off_c, 0, 76, 0
1, 26298, Note_on_c, 0, 47, 37
1, 26398, Note_off_c, 0, 47, 0
1, 26423, Note_on_c, 0, 45, 36
1, 26523, Note_off_c, 0, 45, 0
1, 26547, Note_on_c, 0, 64, 53
1, 26547, Note_on_c, 0, 44, 34
1, 26660, Note_off_c, 0, 44, 0
1, 26688, Note_on_c, 0, 66, 58
1, 26688, Note_on_c, 0, 42, 33
1, 26699, Note_off_c, 0, 64, 0
1, 26801, Note_off_c, 0, 42, 0
1, 26828, Control_c, 0, 64, 0
1, 26828, Control_c, 0, 64, 0
1, 26828, Control_c, 0, 64, 0
1, 26831, Control_c, 0, 64, 0
1, 26831, Note_on_c, 0, 68, 66
1, 26831, Note_on_c, 0, 64, 46
1, 26834, Note_on_c, 0, 40, 33
1, 26839, Note_off_c, 0, 66, 0
1, 26960, Control_c, 0, 64, 127
1, 26969, Note_off_c, 0, 64, 0
1, 26969, Note_on_c, 0, 59, 42
1, 27093, Note_off_c, 0, 59, 0
1, 27093, Note_on_c, 0, 64, 38
1, 27093, Note_off_c, 0, 40, 0
1, 27218, Note_off_c, 0, 64, 0
1, 27218, Note_on_c, 0, 59, 34
1, 27343, Note_off_c, 0, 68, 0
1, 27343, Note_off_c, 0, 59, 0
1, 27343, Note_on_c, 0, 68, 45
1, 27346, Note_on_c, 0, 71, 69
1, 27483, Note_off_c, 0, 68, 0
1, 27483, Note_on_c, 0, 59, 46
1, 27624, Note_off_c, 0, 59, 0
1, 27624, Note_on_c, 0, 66, 34
1, 27624, Note_on_c, 0, 69, 65
1, 27634, Note_off_c, 0, 71, 0
1, 27662, Control_c, 0, 64, 0
1, 27749, Note_off_c, 0, 66, 0
1, 27749, Note_on_c, 0, 59, 38
1, 27791, Control_c, 0, 64, 127
1, 27873, Control_c, 0, 64, 0
1, 27873, Control_c, 0, 64, 0
1, 27873, Control_c, 0, 64, 0
1, 27876, Control_c, 0, 64, 0
1, 27876, Note_off_c, 0, 59, 0
1, 27876, Note_on_c, 0, 68, 66
1, 27879, Note_on_c, 0, 64, 46
1, 27879, Note_on_c, 0, 35, 43
1, 27886, Note_off_c, 0, 69, 0
1, 27886, Control_c, 0, 64, 127
1, 27964, Control_c, 0, 64, 0
1, 28034, Note_off_c, 0, 64, 0
1, 28034, Note_on_c, 0, 59, 42
1, 28055, Control_c, 0, 64, 127
1, 28194, Note_off_c, 0, 59, 0
1, 28194, Note_on_c, 0, 63, 38
1, 28194, Note_on_c, 0, 66, 60
1, 28197, Note_off_c, 0, 35, 0
1, 28205, Note_off_c, 0, 68, 0
1, 28253, Control_c, 0, 64, 0
1, 28326, Note_off_c, 0, 63, 0
1, 28326, Note_on_c, 0, 59, 34
1, 28340, Control_c, 0, 64, 127
1, 28459, Note_off_c, 0, 59, 0
1, 28459, Note_on_c, 0, 63, 34
1, 28459, Note_off_c, 0, 66, 0
1, 28462, Note_on_c, 0, 66, 60
1, 28583, Note_off_c, 0, 63, 0
1, 28583, Note_on_c, 0, 59, 38
1, 28708, Note_off_c, 0, 59, 0
1, 28708, Note_on_c, 0, 64, 42
1, 28708, Note_on_c, 0, 68, 62
1, 28718, Note_off_c, 0, 66, 0
1, 28746, Control_c, 0, 64, 0
1, 28833, Note_off_c, 0, 64, 0
1, 28833, Note_on_c, 0, 59, 40
1, 28852, Control_c, 0, 64, 127
1, 28958, Control_c, 0, 64, 0
1, 28958, Control_c, 0, 64, 0
1, 28958, Control_c, 0, 64, 127
1, 28961, Control_c, 0, 64, 0
1, 28961, Note_off_c, 0, 59, 0
1, 28961, Note_on_c, 0, 69, 66
1, 28964, Note_on_c, 0, 64, 38
1, 28964, Note_on_c, 0, 37, 42
1, 28969, Note_off_c, 0, 68, 0
1, 29010, Control_c, 0, 64, 0
1, 29077, Control_c, 0, 64, 127
1, 29098, Note_off_c, 0, 64, 0
1, 29098, Note_on_c, 0, 59, 40
1, 29239, Note_off_c, 0, 59, 0
1, 29239, Note_on_c, 0, 64, 42
1, 29239, Note_on_c, 0, 73, 69
1, 29250, Note_off_c, 0, 69, 0
1, 29250, Note_off_c, 0, 37, 0
1, 29379, Note_off_c, 0, 64, 0
1, 29379, Note_on_c, 0, 59, 43
1, 29486, Control_c, 0, 64, 0
1, 29519, Note_off_c, 0, 59, 0
1, 29519, Note_on_c, 0, 66, 46
1, 29519, Note_on_c, 0, 71, 66
1, 29522, Note_on_c, 0, 39, 46
1, 29530, Note_off_c, 0, 73, 0
1, 29588, Control_c, 0, 64, 127
1, 29652, Note_off_c, 0, 66, 0
1, 29652, Note_on_c, 0, 59, 42
1, 29784, Note_off_c, 0, 59, 0
1, 29784, Note_on_c, 0, 63, 38
1, 29784, Note_on_c, 0, 66, 60
1, 29787, Note_on_c, 0, 35, 42
1, 29793, Note_off_c, 0, 71, 0
1, 29793, Note_off_c, 0, 39, 0
1, 29845, Control_c, 0, 64, 0
1, 29908, Note_off_c, 0, 63, 0
1, 29908, Note_on_c, 0, 59, 34
1, 29948, Control_c, 0, 64, 127
1, 30069, Control_c, 0, 64, 0
1, 30069, Control_c, 0, 64, 0
1, 30069, Control_c, 0, 64, 127
1, 30072, Control_c, 0, 64, 0
1, 30072, Note_off_c, 0, 59, 0
1, 30072, Note_on_c, 0, 59, 32
1, 30075, Note_on_c, 0, 64, 32
1, 30075, Note_on_c, 0, 68, 52
1, 30075, Note_on_c, 0, 40, 42
1, 30081, Note_off_c, 0, 66, 0
1, 30081, Note_off_c, 0, 35, 0
1, 30175, Control_c, 0, 64, 0
1, 30326, Control_c, 0, 64, 127
1, 30390, Note_off_c, 0, 59, 0
1, 30390, Note_off_c, 0, 64, 0
1, 30390, Note_off_c, 0, 68, 0
1, 30393, Note_on_c, 0, 64, 51
1, 30400, Note_off_c, 0, 40, 0
1, 30522, Note_on_c, 0, 59, 49
1, 30532, Note_off_c, 0, 64, 0
1, 30588, Note_on_c, 0, 78, 48
1, 30648, Control_c, 0, 64, 0
1, 30654, Note_off_c, 0, 78, 0
1, 30654, Note_on_c, 0, 76, 58
1, 30654, Note_on_c, 0, 64, 47
1, 30665, Note_off_c, 0, 59, 0
1, 30795, Note_on_c, 0, 75, 58
1, 30795, Note_on_c, 0, 59, 46
1, 30804, Note_off_c, 0, 76, 0
1, 30804, Note_off_c, 0, 64, 0
1, 30828, Control_c, 0, 64, 127
1, 30919, Note_on_c, 0, 76, 58
1, 30919, Note_on_c, 0, 64, 43
1, 30929, Note_off_c, 0, 75, 0
1, 30929, Note_off_c, 0, 59, 0
1, 31044, Note_on_c, 0, 78, 62
1, 31044, Note_on_c, 0, 59, 41
1, 31054, Note_off_c, 0, 76, 0
1, 31054, Note_off_c, 0, 64, 0
1, 31107, Note_on_c, 0, 81, 48
1, 31122, Control_c, 0, 64, 0
1, 31169, Control_c, 0, 64, 0
1, 31169, Control_c, 0, 64, 0
1, 31169, Control_c, 0, 64, 0
1, 31172, Control_c, 0, 64, 0
1, 31172, Control_c, 0, 64, 0
1, 31172, Note_off_c, 0, 81, 0
1, 31175, Note_on_c, 0, 80, 60
1, 31175, Note_on_c, 0, 64, 49
1, 31179, Note_off_c, 0, 78, 0
1, 31179, Note_off_c, 0, 59, 0
1, 31286, Control_c, 0, 64, 127
1, 31294, Note_on_c, 0, 78, 64
1, 31294, Note_on_c, 0, 59, 42
1, 31303, Note_off_c, 0, 80, 0
1, 31303, Note_off_c, 0, 64, 0
1, 31419, Note_on_c, 0, 80, 67
1, 31419, Note_on_c, 0, 64, 42
1, 31428, Note_off_c, 0, 78, 0
1, 31428, Note_off_c, 0, 59, 0
1, 31543, Note_on_c, 0, 81, 70
1, 31543, Note_on_c, 0, 59, 43
1, 31557, Note_off_c, 0, 80, 0
1, 31557, Note_off_c, 0, 64, 0
1, 31692, Control_c, 0, 64, 0
1, 31716, Note_on_c, 0, 71, 51
1, 31716, Note_on_c, 0, 83, 75
1, 31716, Note_on_c, 0, 68, 49
1, 31727, Note_off_c, 0, 81, 0
1, 31727, Note_off_c, 0, 59, 0
1, 31857, Note_on_c, 0, 59, 43
1, 31867, Note_off_c, 0, 68, 0
1, 31867, Control_c, 0, 64, 127
1, 31997, Note_on_c, 0, 69, 52
1, 31997, Note_on_c, 0, 81, 70
1, 31997, Note_on_c, 0, 66, 49
1, 32007, Note_off_c, 0, 71, 0
1, 32007, Note_off_c, 0, 83, 0
1, 32007, Note_off_c, 0, 59, 0
1, 32037, Control_c, 0, 64, 0
1, 32129, Note_on_c, 0, 59, 45
1, 32139, Note_off_c, 0, 66, 0
1, 32174, Control_c, 0, 64, 127
1, 32261, Control_c, 0, 64, 0
1, 32261, Control_c, 0, 64, 0
1, 32261, Control_c, 0, 64, 0
1, 32264, Control_c, 0, 64, 0
1, 32264, Control_c, 0, 64, 0
1, 32264, Note_on_c, 0, 68, 56
1, 32267, Note_on_c, 0, 80, 74
1, 32267, Note_on_c, 0, 64, 51
1, 32275, Note_off_c, 0, 69, 0
1, 32275, Note_off_c, 0, 81, 0
1, 32275, Note_off_c, 0, 59, 0
1, 32275, Control_c, 0, 64, 127
1, 32359, Control_c, 0, 64, 0
1, 32434, Note_on_c, 0, 59, 45
1, 32444, Note_off_c, 0, 64, 0
1, 32450, Control_c, 0, 64, 127
1, 32559, Note_on_c, 0, 66, 48
1, 32559, Note_on_c, 0, 78, 66
1, 32559, Note_on_c, 0, 63, 50
1, 32569, Note_off_c, 0, 68, 0
1, 32569, Note_off_c, 0, 80, 0
1, 32569, Note_off_c, 0, 59, 0
1, 32618, Control_c, 0, 64, 0
1, 32691, Note_on_c, 0, 59, 45
1, 32701, Note_off_c, 0, 63, 0
1, 32704, Control_c, 0, 64, 127
1, 32816, Note_off_c, 0, 66, 0
1, 32816, Note_off_c, 0, 78, 0
1, 32816, Note_on_c, 0, 66, 52
1, 32819, Note_on_c, 0, 78, 70
1, 32819, Note_on_c, 0, 63, 52
1, 32825, Note_off_c, 0, 59, 0
1, 32941, Note_on_c, 0, 59, 45
1, 32950, Note_off_c, 0, 63, 0
1, 33065, Note_on_c, 0, 68, 55
1, 33065, Note_on_c, 0, 80, 73
1, 33065, Note_on_c, 0, 65, 52
1, 33075, Note_off_c, 0, 66, 0
1, 33075, Note_off_c, 0, 78, 0
1, 33075, Note_off_c, 0, 59, 0
1, 33103, Control_c, 0, 64, 0
1, 33190, Note_on_c, 0, 59, 46
1, 33200, Note_off_c, 0, 65, 0
1, 33209, Control_c, 0, 64, 127
1, 33315, Control_c, 0, 64, 0
1, 33315, Control_c, 0, 64, 0
1, 33315, Control_c, 0, 64, 127
1, 33318, Control_c, 0, 64, 0
1, 33318, Control_c, 0, 64, 0
1, 33318, Note_on_c, 0, 69, 61
1, 33321, Note_on_c, 0, 81, 79
1, 33321, Note_on_c, 0, 66, 58
1, 33325, Note_off_c, 0, 68, 0
1, 33325, Note_off_c, 0, 80, 0
1, 33325, Note_off_c, 0, 59, 0
1, 33364, Control_c, 0, 64, 0
1, 33427, Control_c, 0, 64, 127
1, 33447, Note_on_c, 0, 59, 46
1, 33457, Note_off_c, 0, 66, 0
1, 33579, Note_on_c, 0, 73, 65
1, 33579, Note_on_c, 0, 85, 86
1, 33579, Note_on_c, 0, 69, 61
1, 33590, Note_off_c, 0, 69, 0
1, 33590, Note_off_c, 0, 81, 0
1, 33590, Note_off_c, 0, 59, 0
1, 33711, Note_on_c, 0, 59, 47
1, 33722, Note_off_c, 0, 69, 0
1, 33813, Control_c, 0, 64, 0
1, 33843, Note_on_c, 0, 71, 65
1, 33843, Note_on_c, 0, 83, 86
1, 33843, Note_on_c, 0, 68, 64
1, 33854, Note_off_c, 0, 73, 0
1, 33854, Note_off_c, 0, 85, 0
1, 33854, Note_off_c, 0, 59, 0
1, 33884, Control_c, 0, 64, 0
1, 33976, Note_on_c, 0, 59, 47
1, 33986, Note_off_c, 0, 68, 0
1, 34005, Note_off_c, 0, 71, 0
1, 34005, Note_off_c, 0, 83, 0
1, 34108, Note_on_c, 0, 75, 69
1, 34108, Note_on_c, 0, 81, 69
1, 34108, Note_on_c, 0, 87, 94
1, 34111, Note_on_c, 0, 66, 67
1, 34119, Note_off_c, 0, 59, 0
1, 34181, Note_off_c, 0, 75, 0
1, 34181, Note_off_c, 0, 81, 0
1, 34181, Note_off_c, 0, 87, 0
1, 34248, Note_on_c, 0, 59, 48
1, 34259, Note_off_c, 0, 66, 0
1, 34389, Control_c, 0, 64, 0
1, 34389, Control_c, 0, 64, 0
1, 34389, Control_c, 0, 64, 0
1, 34392, Note_on_c, 0, 76, 80
1, 34392, Note_on_c, 0, 80, 80
1, 34392, Note_on_c, 0, 88, 98
1, 34395, Note_on_c, 0, 64, 70
1, 34398, Note_off_c, 0, 59, 0
1, 34494, Control_c, 0, 64, 127
1, 34513, Note_off_c, 0, 64, 0
1, 34513, Note_on_c, 0, 59, 67
1, 34638, Note_off_c, 0, 59, 0
1, 34638, Note_on_c, 0, 56, 65
1, 34763, Note_off_c, 0, 56, 0
1, 34763, Note_on_c, 0, 59, 61
1, 34888, Note_off_c, 0, 76, 0
1, 34888, Note_off_c, 0, 80, 0
1, 34888, Note_off_c, 0, 88, 0
1, 34891, Note_off_c, 0, 59, 0
1, 34891, Note_on_c, 0, 52, 69
1, 34917, Control_c, 0, 64, 0
1, 34953, Note_off_c, 0, 52, 0
1, 35137, Note_on_c, 0, 64, 69
1, 35137, Note_on_c, 0, 68, 85
1, 35210, Note_off_c, 0, 64, 0
1, 35210, Note_off_c, 0, 68, 0
1, 35418, Control_c, 0, 64, 0
1, 35418, Control_c, 0, 64, 0
1, 35418, Note_on_c, 0, 64, 78
1, 35421, Note_on_c, 0, 68, 94
1, 35421, Note_on_c, 0, 61, 70
1, 35524, Control_c, 0, 64, 127
1, 35543, Note_off_c, 0, 61, 0
1, 35543, Note_on_c, 0, 56, 69
1, 35668, Note_off_c, 0, 56, 0
1, 35668, Note_on_c, 0, 52, 67
1, 35793, Note_off_c, 0, 52, 0
1, 35793, Note_on_c, 0, 56, 66
1, 35917, Note_off_c, 0, 56, 0
1, 35917, Note_on_c, 0, 49, 75
1, 35947, Control_c, 0, 64, 0
1, 35982, Note_off_c, 0, 49, 0
1, 36021, Note_off_c, 0, 64, 0
1, 36021, Note_off_c, 0, 68, 0
1, 36167, Note_on_c, 0, 64, 46
1, 36167, Note_on_c, 0, 68, 46
1, 36167, Note_on_c, 0, 76, 66
1, 36170, Note_on_c, 0, 61, 52
1, 36240, Note_off_c, 0, 64, 0
1, 36240, Note_off_c, 0, 68, 0
1, 36240, Note_off_c, 0, 76, 0
1, 36243, Note_off_c, 0, 61, 0
1, 36448, Control_c, 0, 64, 0
1, 36448, Control_c, 0, 64, 0
1, 36448, Control_c, 0, 64, 0
1, 36451, Note_on_c, 0, 63, 51
1, 36451, Note_on_c, 0, 66, 51
1, 36451, Note_on_c, 0, 68, 51
1, 36454, Note_on_c, 0, 75, 74
1, 36454, Note_on_c, 0, 60, 47
1, 36554, Control_c, 0, 64, 127
1, 36573, Note_off_c, 0, 60, 0
1, 36573, Note_on_c, 0, 56, 43
1, 36697, Note_off_c, 0, 56, 0
1, 36697, Note_on_c, 0, 51, 41
1, 36822, Note_off_c, 0, 51, 0
1, 36822, Note_on_c, 0, 56, 38
1, 36947, Note_off_c, 0, 56, 0
1, 36947, Note_on_c, 0, 48, 46
1, 36976, Control_c, 0, 64, 0
1, 37012, Note_off_c, 0, 48, 0
1, 37050, Note_off_c, 0, 63, 0
1, 37050, Note_off_c, 0, 66, 0
1, 37050, Note_off_c, 0, 68, 0
1, 37053, Note_off_c, 0, 75, 0
1, 37197, Note_on_c, 0, 63, 75
1, 37197, Note_on_c, 0, 66, 75
1, 37197, Note_on_c, 0, 68, 88
1, 37200, Note_on_c, 0, 60, 80
1, 37270, Note_off_c, 0, 63, 0
1, 37270, Note_off_c, 0, 66, 0
1, 37270, Note_off_c, 0, 68, 0
1, 37273, Note_off_c, 0, 60, 0
1, 37477, Control_c, 0, 64, 0
1, 37477, Control_c, 0, 64, 0
1, 37477, Control_c, 0, 64, 0
1, 37480, Note_on_c, 0, 63, 80
1, 37480, Note_on_c, 0, 66, 80
1, 37480, Note_on_c, 0, 68, 97
1, 37483, Note_on_c, 0, 56, 76
1, 37583, Control_c, 0, 64, 127
1, 37602, Note_off_c, 0, 56, 0
1, 37602, Note_on_c, 0, 51, 73
1, 37727, Note_off_c, 0, 51, 0
1, 37727, Note_on_c, 0, 48, 70
1, 37852, Note_off_c, 0, 48, 0
1, 37852, Note_on_c, 0, 51, 67
1, 37977, Note_off_c, 0, 51, 0
1, 37977, Note_on_c, 0, 44, 75
1, 38006, Control_c, 0, 64, 0
1, 38041, Note_off_c, 0, 44, 0
1, 38080, Note_off_c, 0, 63, 0
1, 38080, Note_off_c, 0, 66, 0
1, 38080, Note_off_c, 0, 68, 0
1, 38226, Note_on_c, 0, 63, 48
1, 38226, Note_on_c, 0, 66, 48
1, 38226, Note_on_c, 0, 68, 48
1, 38229, Note_on_c, 0, 75, 66
1, 38229, Note_on_c, 0, 60, 40
1, 38299, Note_off_c, 0, 63, 0
1, 38299, Note_off_c, 0, 66, 0
1, 38299, Note_off_c, 0, 68, 0
1, 38302, Note_off_c, 0, 75, 0
1, 38302, Note_off_c, 0, 60, 0
1, 38507, Control_c, 0, 64, 0
1, 38507, Control_c, 0, 64, 0
1, 38507, Control_c, 0, 64, 0
1, 38510, Note_on_c, 0, 64, 53
1, 38510, Note_on_c, 0, 68, 53
1, 38510, Note_on_c, 0, 76, 74
1, 38513, Note_on_c, 0, 61, 47
1, 38613, Control_c, 0, 64, 127
1, 38632, Note_off_c, 0, 61, 0
1, 38632, Note_on_c, 0, 56, 43
1, 38757, Note_off_c, 0, 56, 0
1, 38757, Note_on_c, 0, 52, 41
1, 38881, Note_off_c, 0, 52, 0
1, 38881, Note_on_c, 0, 56, 38
1, 39006, Note_off_c, 0, 56, 0
1, 39006, Note_on_c, 0, 49, 46
1, 39035, Control_c, 0, 64, 0
1, 39071, Note_off_c, 0, 49, 0
1, 39110, Note_off_c, 0, 64, 0
1, 39110, Note_off_c, 0, 68, 0
1, 39110, Note_off_c, 0, 76, 0
1, 39256, Note_on_c, 0, 64, 69
1, 39256, Note_on_c, 0, 68, 85
1, 39256, Note_on_c, 0, 61, 80
1, 39329, Note_off_c, 0, 64, 0
1, 39329, Note_off_c, 0, 68, 0
1, 39329, Note_off_c, 0, 61, 0
1, 39537, Control_c, 0, 64, 0
1, 39537, Control_c, 0, 64, 0
1, 39537, Control_c, 0, 64, 0
1, 39540, Note_on_c, 0, 64, 80
1, 39540, Note_on_c, 0, 68, 96
1, 39540, Note_on_c, 0, 59, 76
1, 39642, Control_c, 0, 64, 127
1, 39661, Note_off_c, 0, 59, 0
1, 39661, Note_on_c, 0, 56, 73
1, 39786, Note_off_c, 0, 56, 0
1, 39786, Note_on_c, 0, 52, 70
1, 39911, Note_off_c, 0, 52, 0
1, 39911, Note_on_c, 0, 56, 67
1, 40036, Note_off_c, 0, 56, 0
1, 40036, Note_on_c, 0, 47, 75
1, 40065, Control_c, 0, 64, 0
1, 40101, Note_off_c, 0, 47, 0
1, 40139, Note_off_c, 0, 64, 0
1, 40139, Note_off_c, 0, 68, 0
1, 40285, Note_on_c, 0, 64, 48
1, 40285, Note_on_c, 0, 68, 48
1, 40285, Note_on_c, 0, 76, 71
1, 40288, Note_on_c, 0, 59, 40
1, 40358, Note_off_c, 0, 64, 0
1, 40358, Note_off_c, 0, 68, 0
1, 40358, Note_off_c, 0, 76, 0
1, 40361, Note_off_c, 0, 59, 0
1, 40566, Control_c, 0, 64, 0
1, 40566, Control_c, 0, 64, 0
1, 40566, Control_c, 0, 64, 0
1, 40569, Note_on_c, 0, 64, 53
1, 40569, Note_on_c, 0, 66, 53
1, 40569, Note_on_c, 0, 76, 74
1, 40572, Note_on_c, 0, 58, 47
1, 40672, Control_c, 0, 64, 127
1, 40691, Note_off_c, 0, 58, 0
1, 40691, Note_on_c, 0, 54, 43
1, 40816, Note_off_c, 0, 54, 0
1, 40816, Note_on_c, 0, 49, 41
1, 40941, Note_off_c, 0, 49, 0
1, 40941, Note_on_c, 0, 54, 38
1, 41065, Note_off_c, 0, 54, 0
1, 41065, Note_on_c, 0, 46, 46
1, 41095, Control_c, 0, 64, 0
1, 41130, Note_off_c, 0, 46, 0
1, 41169, Note_off_c, 0, 64, 0
1, 41169, Note_off_c, 0, 66, 0
1, 41169, Note_off_c, 0, 76, 0
1, 41315, Note_on_c, 0, 61, 71
1, 41315, Note_on_c, 0, 64, 89
1, 41315, Note_on_c, 0, 46, 80
1, 41388, Note_off_c, 0, 61, 0
1, 41388, Note_off_c, 0, 64, 0
1, 41388, Note_off_c, 0, 46, 0
1, 41596, Control_c, 0, 64, 0
1, 41596, Control_c, 0, 64, 0
1, 41596, Control_c, 0, 64, 0
1, 41599, Note_on_c, 0, 59, 77
1, 41599, Note_on_c, 0, 64, 95
1, 41599, Note_on_c, 0, 44, 80
1, 41702, Control_c, 0, 64, 127
1, 41721, Note_off_c, 0, 44, 0
1, 41721, Note_on_c, 0, 40, 78
1, 41845, Note_off_c, 0, 40, 0
1, 41845, Note_on_c, 0, 35, 75
1, 41970, Note_off_c, 0, 35, 0
1, 41970, Note_on_c, 0, 40, 73
1, 42095, Note_off_c, 0, 40, 0
1, 42095, Note_on_c, 0, 32, 80
1, 42128, Control_c, 0, 64, 0
1, 42168, Note_off_c, 0, 32, 0
1, 42211, Note_off_c, 0, 59, 0
1, 42211, Note_off_c, 0, 64, 0
1, 42376, Note_on_c, 0, 64, 76
1, 42376, Note_on_c, 0, 71, 76
1, 42376, Note_on_c, 0, 76, 94
1, 42379, Note_on_c, 0, 32, 80
1, 42379, Note_on_c, 0, 44, 67
1, 42454, Note_off_c, 0, 64, 0
1, 42454, Note_off_c, 0, 71, 0
1, 42454, Note_off_c, 0, 76, 0
1, 42457, Note_off_c, 0, 32, 0
1, 42457, Note_off_c, 0, 44, 0
1, 42675, Control_c, 0, 64, 0
1, 42675, Control_c, 0, 64, 0
1, 42675, Note_on_c, 0, 64, 86
1, 42678, Note_on_c, 0, 70, 86
1, 42678, Note_on_c, 0, 73, 86
1, 42678, Note_on_c, 0, 76, 104
1, 42681, Note_on_c, 0, 30, 80
1, 42681, Note_on_c, 0, 42, 67
1, 42759, Note_off_c, 0, 30, 0
1, 42759, Note_off_c, 0, 42, 0
1, 42811, Control_c, 0, 64, 127
1, 42856, Control_c, 0, 64, 127
1, 42996, Note_off_c, 0, 64, 0
1, 42996, Note_off_c, 0, 70, 0
1, 42996, Note_off_c, 0, 73, 0
1, 42999, Note_off_c, 0, 76, 0
1, 42999, Note_on_c, 0, 66, 58
1, 43128, Note_off_c, 0, 66, 0
1, 43128, Note_on_c, 0, 68, 55
1, 43260, Note_off_c, 0, 68, 0
1, 43260, Note_on_c, 0, 66, 51
1, 43266, Control_c, 0, 64, 0
1, 43301, Control_c, 0, 64, 0
1, 43385, Note_off_c, 0, 66, 0
1, 43385, Note_on_c, 0, 68, 49
1, 43431, Control_c, 0, 64, 127
1, 43510, Note_off_c, 0, 68, 0
1, 43510, Note_on_c, 0, 66, 46
1, 43635, Note_off_c, 0, 66, 0
1, 43635, Note_on_c, 0, 68, 42
1, 43775, Control_c, 0, 64, 0
1, 43775, Control_c, 0, 64, 127
1, 43775, Note_off_c, 0, 68, 0
1, 43778, Note_on_c, 0, 76, 52
1, 43778, Note_on_c, 0, 85, 75
1, 43778, Note_on_c, 0, 66, 38
1, 43781, Note_on_c, 0, 58, 46
1, 43781, Note_on_c, 0, 61, 38
1, 43855, Control_c, 0, 64, 0
1, 43916, Note_off_c, 0, 66, 0
1, 43916, Note_on_c, 0, 68, 38
1, 43932, Control_c, 0, 64, 127
1, 44040, Note_off_c, 0, 68, 0
1, 44040, Note_on_c, 0, 66, 38
1, 44165, Note_off_c, 0, 66, 0
1, 44165, Note_on_c, 0, 68, 38
1, 44290, Note_off_c, 0, 68, 0
1, 44290, Note_on_c, 0, 66, 38
1, 44415, Note_off_c, 0, 66, 0
1, 44415, Note_on_c, 0, 68, 38
1, 44540, Note_off_c, 0, 76, 0
1, 44540, Note_off_c, 0, 85, 0
1, 44540, Note_on_c, 0, 75, 48
1, 44543, Note_on_c, 0, 83, 66
1, 44543, Note_off_c, 0, 58, 0
1, 44543, Note_off_c, 0, 61, 0
1, 44546, Note_on_c, 0, 59, 46
1, 44546, Note_on_c, 0, 63, 38
1, 44546, Note_off_c, 0, 68, 0
1, 44549, Note_on_c, 0, 66, 38
1, 44549, Control_c, 0, 64, 0
1, 44649, Control_c, 0, 64, 127
1, 44680, Note_off_c, 0, 66, 0
1, 44680, Note_on_c, 0, 68, 38
1, 44820, Control_c, 0, 64, 0
1, 44820, Control_c, 0, 64, 127
1, 44820, Note_off_c, 0, 75, 0
1, 44823, Note_off_c, 0, 83, 0
1, 44823, Note_off_c, 0, 59, 0
1, 44823, Note_off_c, 0, 63, 0
1, 44826, Note_off_c, 0, 68, 0
1, 44826, Note_on_c, 0, 75, 52
1, 44826, Note_on_c, 0, 83, 70
1, 44829, Note_on_c, 0, 66, 38
1, 44829, Note_on_c, 0, 59, 46
1, 44829, Note_on_c, 0, 63, 38
1, 44919, Control_c, 0, 64, 0
1, 44970, Note_off_c, 0, 66, 0
1, 44970, Note_on_c, 0, 68, 38
1, 45046, Control_c, 0, 64, 127
1, 45120, Note_off_c, 0, 75, 0
1, 45120, Note_off_c, 0, 83, 0
1, 45120, Note_on_c, 0, 73, 42
1, 45123, Note_on_c, 0, 82, 60
1, 45123, Note_off_c, 0, 59, 0
1, 45123, Note_off_c, 0, 63, 0
1, 45126, Note_on_c, 0, 61, 46
1, 45126, Note_on_c, 0, 64, 38
1, 45126, Note_off_c, 0, 68, 0
1, 45129, Note_on_c, 0, 66, 38
1, 45176, Control_c, 0, 64, 0
1, 45245, Note_off_c, 0, 66, 0
1, 45245, Note_on_c, 0, 68, 38
1, 45270, Control_c, 0, 64, 127
1, 45370, Note_off_c, 0, 73, 0
1, 45370, Note_off_c, 0, 82, 0
1, 45370, Note_on_c, 0, 73, 47
1, 45373, Note_on_c, 0, 82, 65
1, 45373, Note_off_c, 0, 61, 0
1, 45373, Note_off_c, 0, 64, 0
1, 45376, Note_on_c, 0, 61, 46
1, 45376, Note_on_c, 0, 64, 38
1, 45376, Note_off_c, 0, 68, 0
1, 45379, Note_on_c, 0, 66, 38
1, 45387, Control_c, 0, 64, 0
1, 45446, Control_c, 0, 64, 127
1, 45494, Note_off_c, 0, 66, 0
1, 45494, Note_on_c, 0, 68, 38
1, 45619, Note_off_c, 0, 73, 0
1, 45619, Note_off_c, 0, 82, 0
1, 45619, Note_on_c, 0, 75, 51
1, 45622, Note_on_c, 0, 83, 69
1, 45622, Note_off_c, 0, 61, 0
1, 45622, Note_off_c, 0, 64, 0
1, 45625, Note_on_c, 0, 59, 46
1, 45625, Note_on_c, 0, 63, 38
1, 45625, Note_off_c, 0, 68, 0
1, 45628, Note_on_c, 0, 66, 38
1, 45628, Control_c, 0, 64, 0
1, 45747, Control_c, 0, 64, 127
1, 45751, Note_off_c, 0, 66, 0
1, 45751, Note_on_c, 0, 68, 38
1, 45883, Control_c, 0, 64, 0
1, 45883, Control_c, 0, 64, 127
1, 45883, Control_c, 0, 64, 0
1, 45886, Note_off_c, 0, 75, 0
1, 45886, Note_off_c, 0, 83, 0
1, 45886, Note_off_c, 0, 59, 0
1, 45889, Note_off_c, 0, 63, 0
1, 45889, Note_off_c, 0, 68, 0
1, 45889, Note_on_c, 0, 76, 56
1, 45892, Note_on_c, 0, 85, 78
1, 45892, Note_on_c, 0, 66, 38
1, 45892, Note_on_c, 0, 58, 46
1, 45895, Note_on_c, 0, 61, 38
1, 45968, Control_c, 0, 64, 0
1, 46033, Note_off_c, 0, 66, 0
1, 46033, Note_on_c, 0, 68, 38
1, 46049, Control_c, 0, 64, 127
1, 46158, Note_off_c, 0, 68, 0
1, 46158, Note_on_c, 0, 66, 38
1, 46283, Note_off_c, 0, 66, 0
1, 46283, Note_on_c, 0, 68, 38
1, 46408, Note_off_c, 0, 68, 0
1, 46408, Note_on_c, 0, 66, 38
1, 46532, Note_off_c, 0, 66, 0
1, 46532, Note_on_c, 0, 68, 38
1, 46657, Note_off_c, 0, 76, 0
1, 46657, Note_off_c, 0, 85, 0
1, 46657, Note_on_c, 0, 75, 52
1, 46660, Note_on_c, 0, 83, 70
1, 46660, Note_off_c, 0, 58, 0
1, 46660, Note_off_c, 0, 61, 0
1, 46663, Note_on_c, 0, 59, 46
1, 46663, Note_on_c, 0, 63, 38
1, 46663, Note_off_c, 0, 68, 0
1, 46666, Note_on_c, 0, 66, 38
1, 46666, Control_c, 0, 64, 0
1, 46766, Control_c, 0, 64, 127
1, 46798, Note_off_c, 0, 66, 0
1, 46798, Note_on_c, 0, 68, 38
1, 46938, Control_c, 0, 64, 0
1, 46938, Control_c, 0, 64, 127
1, 46938, Control_c, 0, 64, 0
1, 46941, Note_off_c, 0, 75, 0
1, 46941, Note_off_c, 0, 83, 0
1, 46941, Note_off_c, 0, 59, 0
1, 46944, Note_off_c, 0, 63, 0
1, 46944, Note_off_c, 0, 68, 0
1, 46944, Note_on_c, 0, 73, 52
1, 46947, Note_on_c, 0, 82, 70
1, 46947, Note_on_c, 0, 66, 38
1, 46947, Note_on_c, 0, 61, 46
1, 46950, Note_on_c, 0, 64, 38
1, 47037, Control_c, 0, 64, 0
1, 47088, Note_off_c, 0, 66, 0
1, 47088, Note_on_c, 0, 68, 38
1, 47164, Control_c, 0, 64, 127
1, 47238, Note_off_c, 0, 73, 0
1, 47238, Note_off_c, 0, 82, 0
1, 47238, Note_on_c, 0, 76, 57
1, 47241, Note_on_c, 0, 85, 77
1, 47241, Note_off_c, 0, 61, 0
1, 47241, Note_off_c, 0, 64, 0
1, 47244, Note_on_c, 0, 58, 46
1, 47244, Note_on_c, 0, 61, 38
1, 47244, Note_off_c, 0, 68, 0
1, 47247, Note_on_c, 0, 66, 38
1, 47293, Control_c, 0, 64, 0
1, 47362, Note_off_c, 0, 66, 0
1, 47362, Note_on_c, 0, 68, 38
1, 47387, Control_c, 0, 64, 127
1, 47487, Note_off_c, 0, 76, 0
1, 47487, Note_off_c, 0, 85, 0
1, 47487, Note_on_c, 0, 75, 56
1, 47490, Note_on_c, 0, 83, 75
1, 47490, Note_off_c, 0, 58, 0
1, 47490, Note_off_c, 0, 61, 0
1, 47493, Note_on_c, 0, 59, 46
1, 47493, Note_on_c, 0, 63, 38
1, 47493, Note_off_c, 0, 68, 0
1, 47496, Note_on_c, 0, 66, 38
1, 47505, Control_c, 0, 64, 0
1, 47564, Control_c, 0, 64, 127
1, 47612, Note_off_c, 0, 66, 0
1, 47612, Note_on_c, 0, 68, 38
1, 47737, Note_off_c, 0, 75, 0
1, 47737, Note_off_c, 0, 83, 0
1, 47737, Note_on_c, 0, 73, 55
1, 47740, Note_on_c, 0, 82, 74
1, 47740, Note_off_c, 0, 59, 0
1, 47740, Note_off_c, 0, 63, 0
1, 47743, Note_on_c, 0, 61, 46
1, 47743, Note_on_c, 0, 64, 38
1, 47743, Note_off_c, 0, 68, 0
1, 47746, Note_on_c, 0, 66, 38
1, 47746, Control_c, 0, 64, 0
1, 47857, Control_c, 0, 64, 127
1, 47862, Note_off_c, 0, 66, 0
1, 47862, Note_on_c, 0, 68, 38
1, 47986, Control_c, 0, 64, 0
1, 47986, Control_c, 0, 64, 127
1, 47986, Control_c, 0, 64, 0
1, 47989, Control_c, 0, 64, 0
1, 47989, Note_off_c, 0, 73, 0
1, 47989, Note_off_c, 0, 82, 0
1, 47992, Note_off_c, 0, 61, 0
1, 47992, Note_off_c, 0, 64, 0
1, 47992, Note_off_c, 0, 68, 0
1, 47995, Note_on_c, 0, 78, 52
1, 47995, Note_on_c, 0, 83, 75
1, 47995, Note_on_c, 0, 63, 46
1, 47998, Note_on_c, 0, 66, 38
1, 48074, Control_c, 0, 64, 0
1, 48119, Note_off_c, 0, 66, 0
1, 48119, Note_on_c, 0, 71, 38
1, 48186, Control_c, 0, 64, 127
1, 48251, Note_off_c, 0, 78, 0
1, 48251, Note_off_c, 0, 83, 0
1, 48251, Note_on_c, 0, 82, 70
1, 48254, Note_off_c, 0, 63, 0
1, 48254, Note_off_c, 0, 71, 0
1, 48254, Note_on_c, 0, 66, 46
1, 48306, Control_c, 0, 64, 0
1, 48375, Note_on_c, 0, 71, 38
1, 48400, Control_c, 0, 64, 127
1, 48500, Note_off_c, 0, 82, 0
1, 48500, Note_on_c, 0, 80, 70
1, 48500, Note_off_c, 0, 66, 0
1, 48503, Note_off_c, 0, 71, 0
1, 48503, Note_on_c, 0, 64, 46
1, 48518, Control_c, 0, 64, 0
1, 48577, Control_c, 0, 64, 127
1, 48625, Note_on_c, 0, 71, 38
1, 48750, Note_off_c, 0, 80, 0
1, 48750, Note_on_c, 0, 78, 70
1, 48750, Note_off_c, 0, 64, 0
1, 48753, Note_off_c, 0, 71, 0
1, 48753, Note_on_c, 0, 63, 38
1, 48753, Control_c, 0, 64, 0
1, 48870, Control_c, 0, 64, 127
1, 48875, Note_on_c, 0, 71, 38
1, 48999, Control_c, 0, 64, 0
1, 48999, Control_c, 0, 64, 127
1, 48999, Control_c, 0, 64, 0
1, 49002, Control_c, 0, 64, 0
1, 49002, Note_off_c, 0, 78, 0
1, 49002, Note_off_c, 0, 63, 0
1, 49005, Note_off_c, 0, 71, 0
1, 49005, Note_on_c, 0, 80, 67
1, 49005, Note_on_c, 0, 64, 39
1, 49082, Control_c, 0, 64, 0
1, 49124, Note_on_c, 0, 71, 31
1, 49188, Control_c, 0, 64, 127
1, 49249, Note_off_c, 0, 80, 0
1, 49249, Note_on_c, 0, 78, 62
1, 49249, Note_off_c, 0, 64, 0
1, 49252, Note_off_c, 0, 71, 0
1, 49252, Note_on_c, 0, 66, 39
1, 49305, Control_c, 0, 64, 0
1, 49374, Note_on_c, 0, 71, 31
1, 49399, Control_c, 0, 64, 127
1, 49499, Note_off_c, 0, 78, 0
1, 49499, Note_on_c, 0, 76, 62
1, 49499, Note_off_c, 0, 66, 0
1, 49502, Note_off_c, 0, 71, 0
1, 49502, Note_on_c, 0, 68, 39
1, 49516, Control_c, 0, 64, 0
1, 49575, Control_c, 0, 64, 127
1, 49623, Note_on_c, 0, 71, 31
1, 49748, Note_off_c, 0, 76, 0
1, 49748, Note_on_c, 0, 75, 62
1, 49748, Note_off_c, 0, 68, 0
1, 49751, Note_off_c, 0, 71, 0
1, 49751, Note_on_c, 0, 65, 39
1, 49751, Control_c, 0, 64, 0
1, 49869, Control_c, 0, 64, 127
1, 49873, Note_on_c, 0, 71, 31
1, 49998, Control_c, 0, 64, 0
1, 49998, Control_c, 0, 64, 127
1, 49998, Note_off_c, 0, 75, 0
1, 50001, Note_off_c, 0, 65, 0
1, 50001, Note_off_c, 0, 71, 0
1, 50001, Note_on_c, 0, 75, 62
1, 50004, Note_on_c, 0, 66, 42
1, 50054, Control_c, 0, 64, 0
1, 50125, Control_c, 0, 64, 127
1, 50148, Note_on_c, 0, 68, 42
1, 50272, Note_off_c, 0, 68, 0
1, 50272, Note_on_c, 0, 70, 42
1, 50397, Note_off_c, 0, 70, 0
1, 50397, Note_on_c, 0, 71, 42
1, 50469, Control_c, 0, 64, 0
1, 50522, Note_off_c, 0, 71, 0
1, 50522, Note_on_c, 0, 70, 42
1, 50662, Note_off_c, 0, 70, 0
1, 50662, Note_on_c, 0, 71, 41
1, 50787, Note_off_c, 0, 75, 0
1, 50787, Note_on_c, 0, 76, 55
1, 50787, Note_off_c, 0, 71, 0
1, 50790, Note_on_c, 0, 73, 39
1, 50919, Note_off_c, 0, 76, 0
1, 50919, Note_on_c, 0, 78, 51
1, 50919, Note_off_c, 0, 73, 0
1, 50922, Note_on_c, 0, 75, 38
1, 51060, Control_c, 0, 64, 0
1, 51060, Control_c, 0, 64, 0
1, 51060, Note_off_c, 0, 78, 0
1, 51063, Note_off_c, 0, 66, 0
1, 51063, Note_off_c, 0, 75, 0
1, 51063, Note_on_c, 0, 73, 48
1, 51066, Note_on_c, 0, 66, 21
1, 51066, Note_on_c, 0, 70, 28
1, 51231, Note_off_c, 0, 73, 0
1, 51231, Note_off_c, 0, 66, 0
1, 51231, Note_off_c, 0, 70, 0
1, 51341, Note_on_c, 0, 78, 48
1, 51341, Note_on_c, 0, 68, 37
1, 51420, Control_c, 0, 64, 127
1, 51465, Note_off_c, 0, 78, 0
1, 51465, Note_on_c, 0, 80, 49
1, 51465, Note_off_c, 0, 68, 0
1, 51468, Note_on_c, 0, 66, 39
1, 51590, Note_off_c, 0, 80, 0
1, 51590, Note_on_c, 0, 78, 50
1, 51590, Note_off_c, 0, 66, 0
1, 51593, Note_on_c, 0, 68, 40
1, 51715, Note_off_c, 0, 78, 0
1, 51715, Note_on_c, 0, 80, 51
1, 51715, Note_off_c, 0, 68, 0
1, 51718, Note_on_c, 0, 66, 42
1, 51840, Note_off_c, 0, 80, 0
1, 51840, Note_on_c, 0, 78, 52
1, 51840, Note_off_c, 0, 66, 0
1, 51843, Note_on_c, 0, 68, 43
1, 51965, Note_off_c, 0, 78, 0
1, 51965, Note_on_c, 0, 80, 53
1, 51965, Note_off_c, 0, 68, 0
1, 51968, Note_on_c, 0, 66, 46
1, 52089, Control_c, 0, 64, 0
1, 52089, Control_c, 0, 64, 0
1, 52089, Control_c, 0, 64, 127
1, 52092, Control_c, 0, 64, 0
1, 52092, Note_off_c, 0, 80, 0
1, 52092, Note_off_c, 0, 66, 0
1, 52095, Note_on_c, 0, 78, 42
1, 52095, Note_on_c, 0, 85, 62
1, 52095, Note_on_c, 0, 88, 84
1, 52098, Note_on_c, 0, 68, 38
1, 52098, Note_on_c, 0, 58, 46
1, 52098, Note_on_c, 0, 61, 38
1, 52160, Control_c, 0, 64, 0
1, 52214, Note_off_c, 0, 78, 0
1, 52214, Note_on_c, 0, 80, 42
1, 52214, Note_off_c, 0, 68, 0
1, 52217, Note_on_c, 0, 66, 38
1, 52230, Control_c, 0, 64, 127
1, 52339, Note_off_c, 0, 80, 0
1, 52339, Note_on_c, 0, 78, 42
1, 52339, Note_off_c, 0, 66, 0
1, 52342, Note_on_c, 0, 68, 38
1, 52464, Note_off_c, 0, 78, 0
1, 52464, Note_on_c, 0, 80, 42
1, 52464, Note_off_c, 0, 68, 0
1, 52467, Note_on_c, 0, 66, 38
1, 52589, Note_off_c, 0, 80, 0
1, 52589, Note_on_c, 0, 78, 42
1, 52589, Note_off_c, 0, 66, 0
1, 52592, Note_on_c, 0, 68, 38
1, 52713, Note_off_c, 0, 78, 0
1, 52713, Note_on_c, 0, 80, 42
1, 52713, Note_off_c, 0, 68, 0
1, 52716, Note_on_c, 0, 66, 38
1, 52838, Note_off_c, 0, 85, 0
1, 52838, Note_off_c, 0, 88, 0
1, 52838, Note_on_c, 0, 83, 57
1, 52841, Note_on_c, 0, 87, 75
1, 52841, Note_off_c, 0, 80, 0
1, 52841, Note_on_c, 0, 78, 37
1, 52844, Note_off_c, 0, 58, 0
1, 52844, Note_off_c, 0, 61, 0
1, 52844, Note_on_c, 0, 59, 46
1, 52847, Note_on_c, 0, 63, 38
1, 52847, Note_off_c, 0, 66, 0
1, 52847, Note_on_c, 0, 68, 38
1, 52850, Control_c, 0, 64, 0
1, 52947, Control_c, 0, 64, 127
1, 52979, Note_off_c, 0, 78, 0
1, 52979, Note_on_c, 0, 80, 42
1, 52979, Note_off_c, 0, 68, 0
1, 52982, Note_on_c, 0, 66, 38
1, 53119, Control_c, 0, 64, 0
1, 53119, Control_c, 0, 64, 0
1, 53119, Control_c, 0, 64, 127
1, 53122, Control_c, 0, 64, 0
1, 53122, Note_off_c, 0, 83, 0
1, 53122, Note_off_c, 0, 87, 0
1, 53125, Note_off_c, 0, 80, 0
1, 53125, Note_off_c, 0, 59, 0
1, 53125, Note_off_c, 0, 63, 0
1, 53128, Note_off_c, 0, 66, 0
1, 53128, Note_on_c, 0, 78, 42
1, 53128, Note_on_c, 0, 83, 62
1, 53131, Note_on_c, 0, 87, 80
1, 53131, Note_on_c, 0, 68, 38
1, 53131, Note_on_c, 0, 59, 46
1, 53134, Note_on_c, 0, 63, 38
1, 53218, Control_c, 0, 64, 0
1, 53269, Note_off_c, 0, 78, 0
1, 53269, Note_on_c, 0, 80, 42
1, 53269, Note_off_c, 0, 68, 0
1, 53272, Note_on_c, 0, 66, 38
1, 53345, Control_c, 0, 64, 127
1, 53418, Note_off_c, 0, 83, 0
1, 53418, Note_off_c, 0, 87, 0
1, 53418, Note_on_c, 0, 82, 57
1, 53421, Note_on_c, 0, 85, 75
1, 53421, Note_off_c, 0, 80, 0
1, 53421, Note_on_c, 0, 78, 37
1, 53424, Note_off_c, 0, 59, 0
1, 53424, Note_off_c, 0, 63, 0
1, 53424, Note_on_c, 0, 61, 47
1, 53427, Note_on_c, 0, 64, 39
1, 53427, Note_off_c, 0, 66, 0
1, 53427, Note_on_c, 0, 68, 39
1, 53474, Control_c, 0, 64, 0
1, 53543, Note_off_c, 0, 78, 0
1, 53543, Note_on_c, 0, 80, 43
1, 53543, Note_off_c, 0, 68, 0
1, 53546, Note_on_c, 0, 66, 39
1, 53568, Control_c, 0, 64, 127
1, 53668, Note_off_c, 0, 82, 0
1, 53668, Note_off_c, 0, 85, 0
1, 53668, Note_on_c, 0, 82, 61
1, 53671, Note_on_c, 0, 85, 80
1, 53671, Note_off_c, 0, 80, 0
1, 53671, Note_on_c, 0, 78, 41
1, 53674, Note_off_c, 0, 61, 0
1, 53674, Note_off_c, 0, 64, 0
1, 53674, Note_on_c, 0, 61, 48
1, 53677, Note_on_c, 0, 64, 39
1, 53677, Note_off_c, 0, 66, 0
1, 53677, Note_on_c, 0, 68, 39
1, 53686, Control_c, 0, 64, 0
1, 53745, Control_c, 0, 64, 127
1, 53793, Note_off_c, 0, 78, 0
1, 53793, Note_on_c, 0, 80, 45
1, 53793, Note_off_c, 0, 68, 0
1, 53796, Note_on_c, 0, 66, 40
1, 53918, Note_off_c, 0, 82, 0
1, 53918, Note_off_c, 0, 85, 0
1, 53918, Note_on_c, 0, 83, 66
1, 53921, Note_on_c, 0, 87, 85
1, 53921, Note_off_c, 0, 80, 0
1, 53921, Note_on_c, 0, 78, 45
1, 53924, Note_off_c, 0, 61, 0
1, 53924, Note_off_c, 0, 64, 0
1, 53924, Note_on_c, 0, 59, 49
1, 53927, Note_on_c, 0, 63, 40
1, 53927, Note_off_c, 0, 66, 0
1, 53927, Note_on_c, 0, 68, 40
1, 53930, Control_c, 0, 64, 0
1, 54045, Control_c, 0, 64, 127
1, 54050, Note_off_c, 0, 78, 0
1, 54050, Note_on_c, 0, 80, 45
1, 54050, Note_off_c, 0, 68, 0
1, 54053, Note_on_c, 0, 66, 40
1, 54182, Control_c, 0, 64, 0
1, 54182, Control_c, 0, 64, 0
1, 54182, Control_c, 0, 64, 127
1, 54185, Control_c, 0, 64, 0
1, 54185, Control_c, 0, 64, 0
1, 54185, Note_off_c, 0, 83, 0
1, 54188, Note_off_c, 0, 87, 0
1, 54188, Note_off_c, 0, 80, 0
1, 54188, Note_off_c, 0, 59, 0
1, 54191, Note_off_c, 0, 63, 0
1, 54191, Note_off_c, 0, 66, 0
1, 54191, Note_on_c, 0, 78, 46
1, 54194, Note_on_c, 0, 85, 68
1, 54194, Note_on_c, 0, 88, 92
1, 54194, Note_on_c, 0, 68, 41
1, 54197, Note_on_c, 0, 58, 49
1, 54197, Note_on_c, 0, 61, 41
1, 54267, Control_c, 0, 64, 0
1, 54332, Note_off_c, 0, 78, 0
1, 54332, Note_on_c, 0, 80, 42
1, 54332, Note_off_c, 0, 68, 0
1, 54335, Note_on_c, 0, 66, 38
1, 54348, Control_c, 0, 64, 127
1, 54457, Note_off_c, 0, 80, 0
1, 54457, Note_on_c, 0, 78, 42
1, 54457, Note_off_c, 0, 66, 0
1, 54460, Note_on_c, 0, 68, 38
1, 54581, Note_off_c, 0, 78, 0
1, 54581, Note_on_c, 0, 80, 42
1, 54581, Note_off_c, 0, 68, 0
1, 54584, Note_on_c, 0, 66, 38
1, 54706, Note_off_c, 0, 80, 0
1, 54706, Note_on_c, 0, 78, 42
1, 54706, Note_off_c, 0, 66, 0
1, 54709, Note_on_c, 0, 68, 38
1, 54831, Note_off_c, 0, 78, 0
1, 54831, Note_on_c, 0, 80, 42
1, 54831, Note_off_c, 0, 68, 0
1, 54834, Note_on_c, 0, 66, 38
1, 54956, Note_off_c, 0, 85, 0
1, 54956, Note_off_c, 0, 88, 0
1, 54956, Note_on_c, 0, 83, 62
1, 54959, Note_on_c, 0, 87, 80
1, 54959, Note_off_c, 0, 80, 0
1, 54959, Note_on_c, 0, 78, 42
1, 54962, Note_off_c, 0, 58, 0
1, 54962, Note_off_c, 0, 61, 0
1, 54962, Note_on_c, 0, 59, 46
1, 54965, Note_on_c, 0, 63, 38
1, 54965, Note_off_c, 0, 66, 0
1, 54965, Note_on_c, 0, 68, 38
1, 54968, Control_c, 0, 64, 0
1, 55065, Control_c, 0, 64, 127
1, 55096, Note_off_c, 0, 78, 0
1, 55096, Note_on_c, 0, 80, 42
1, 55096, Note_off_c, 0, 68, 0
1, 55099, Note_on_c, 0, 66, 38
1, 55237, Control_c, 0, 64, 0
1, 55237, Control_c, 0, 64, 0
1, 55237, Control_c, 0, 64, 127
1, 55240, Control_c, 0, 64, 0
1, 55240, Control_c, 0, 64, 0
1, 55240, Note_off_c, 0, 83, 0
1, 55243, Note_off_c, 0, 87, 0
1, 55243, Note_off_c, 0, 80, 0
1, 55243, Note_off_c, 0, 59, 0
1, 55246, Note_off_c, 0, 63, 0
1, 55246, Note_off_c, 0, 66, 0
1, 55246, Note_on_c, 0, 82, 57
1, 55249, Note_on_c, 0, 85, 77
1, 55249, Note_on_c, 0, 61, 48
1, 55249, Note_on_c, 0, 64, 38
1, 55335, Control_c, 0, 64, 0
1, 55386, Note_on_c, 0, 78, 38
1, 55386, Note_on_c, 0, 66, 29
1, 55462, Control_c, 0, 64, 127
1, 55536, Note_off_c, 0, 82, 0
1, 55536, Note_off_c, 0, 85, 0
1, 55536, Note_on_c, 0, 88, 64
1, 55539, Note_on_c, 0, 92, 86
1, 55539, Note_off_c, 0, 61, 0
1, 55539, Note_off_c, 0, 64, 0
1, 55542, Note_on_c, 0, 54, 49
1, 55542, Note_on_c, 0, 58, 39
1, 55592, Control_c, 0, 64, 0
1, 55661, Note_off_c, 0, 78, 0
1, 55661, Note_on_c, 0, 78, 38
1, 55661, Note_off_c, 0, 66, 0
1, 55664, Note_on_c, 0, 66, 30
1, 55686, Control_c, 0, 64, 127
1, 55786, Note_off_c, 0, 88, 0
1, 55786, Note_off_c, 0, 92, 0
1, 55786, Note_on_c, 0, 87, 62
1, 55789, Note_on_c, 0, 90, 85
1, 55789, Note_off_c, 0, 54, 0
1, 55789, Note_off_c, 0, 58, 0
1, 55792, Note_on_c, 0, 56, 50
1, 55792, Note_on_c, 0, 59, 39
1, 55803, Control_c, 0, 64, 0
1, 55862, Control_c, 0, 64, 127
1, 55910, Note_off_c, 0, 78, 0
1, 55910, Note_on_c, 0, 78, 39
1, 55910, Note_off_c, 0, 66, 0
1, 55913, Note_on_c, 0, 66, 30
1, 56035, Note_off_c, 0, 87, 0
1, 56035, Note_off_c, 0, 90, 0
1, 56035, Note_on_c, 0, 85, 62
1, 56038, Note_on_c, 0, 88, 85
1, 56038, Note_off_c, 0, 56, 0
1, 56038, Note_off_c, 0, 59, 0
1, 56041, Note_on_c, 0, 58, 51
1, 56041, Note_on_c, 0, 61, 40
1, 56041, Control_c, 0, 64, 0
1, 56156, Control_c, 0, 64, 127
1, 56160, Note_off_c, 0, 78, 0
1, 56160, Note_on_c, 0, 78, 39
1, 56160, Note_off_c, 0, 66, 0
1, 56163, Note_on_c, 0, 66, 31
1, 56285, Control_c, 0, 64, 0
1, 56285, Control_c, 0, 64, 127
1, 56285, Control_c, 0, 64, 0
1, 56288, Control_c, 0, 64, 0
1, 56288, Control_c, 0, 64, 0
1, 56288, Note_off_c, 0, 78, 0
1, 56291, Note_off_c, 0, 85, 0
1, 56291, Note_off_c, 0, 88, 0
1, 56291, Note_off_c, 0, 66, 0
1, 56294, Note_off_c, 0, 58, 0
1, 56294, Note_off_c, 0, 61, 0
1, 56294, Note_on_c, 0, 83, 59
1, 56297, Note_on_c, 0, 87, 83
1, 56297, Note_on_c, 0, 59, 57
1, 56297, Note_on_c, 0, 63, 45
1, 56384, Control_c, 0, 64, 0
1, 56435, Note_on_c, 0, 78, 29
1, 56435, Note_on_c, 0, 66, 31
1, 56511, Control_c, 0, 64, 127
1, 56584, Note_off_c, 0, 83, 0
1, 56584, Note_off_c, 0, 87, 0
1, 56584, Note_on_c, 0, 87, 60
1, 56587, Note_on_c, 0, 90, 83
1, 56587, Note_off_c, 0, 59, 0
1, 56587, Note_off_c, 0, 63, 0
1, 56590, Note_on_c, 0, 56, 51
1, 56590, Note_on_c, 0, 59, 40
1, 56643, Control_c, 0, 64, 0
1, 56716, Note_off_c, 0, 78, 0
1, 56716, Note_on_c, 0, 78, 37
1, 56716, Note_off_c, 0, 66, 0
1, 56719, Note_on_c, 0, 66, 30
1, 56743, Control_c, 0, 64, 127
1, 56849, Note_off_c, 0, 87, 0
1, 56849, Note_off_c, 0, 90, 0
1, 56849, Note_on_c, 0, 85, 59
1, 56852, Note_on_c, 0, 88, 79
1, 56852, Note_off_c, 0, 56, 0
1, 56852, Note_off_c, 0, 59, 0
1, 56855, Note_on_c, 0, 58, 50
1, 56855, Note_on_c, 0, 61, 40
1, 56866, Control_c, 0, 64, 0
1, 56925, Control_c, 0, 64, 127
1, 56973, Note_off_c, 0, 78, 0
1, 56973, Note_on_c, 0, 78, 36
1, 56973, Note_off_c, 0, 66, 0
1, 56976, Note_on_c, 0, 66, 30
1, 57098, Note_off_c, 0, 85, 0
1, 57098, Note_off_c, 0, 88, 0
1, 57098, Note_on_c, 0, 83, 57
1, 57101, Note_on_c, 0, 87, 77
1, 57101, Note_off_c, 0, 58, 0
1, 57101, Note_off_c, 0, 61, 0
1, 57104, Note_on_c, 0, 59, 50
1, 57104, Note_on_c, 0, 63, 39
1, 57104, Control_c, 0, 64, 0
1, 57219, Control_c, 0, 64, 127
1, 57223, Note_off_c, 0, 78, 0
1, 57223, Note_on_c, 0, 78, 36
1, 57223, Note_off_c, 0, 66, 0
1, 57226, Note_on_c, 0, 66, 30
1, 57348, Control_c, 0, 64, 0
1, 57348, Control_c, 0, 64, 127
1, 57348, Control_c, 0, 64, 0
1, 57351, Control_c, 0, 64, 0
1, 57351, Control_c, 0, 64, 0
1, 57351, Note_off_c, 0, 78, 0
1, 57354, Note_off_c, 0, 83, 0
1, 57354, Note_off_c, 0, 87, 0
1, 57354, Note_off_c, 0, 66, 0
1, 57357, Note_off_c, 0, 59, 0
1, 57357, Note_off_c, 0, 63, 0
1, 57357, Note_on_c, 0, 82, 53
1, 57360, Note_on_c, 0, 85, 73
1, 57360, Note_on_c, 0, 61, 49
1, 57360, Note_on_c, 0, 64, 39
1, 57435, Control_c, 0, 64, 0
1, 57480, Note_on_c, 0, 78, 34
1, 57480, Note_on_c, 0, 66, 29
1, 57547, Control_c, 0, 64, 127
1, 57612, Note_off_c, 0, 82, 0
1, 57612, Note_off_c, 0, 85, 0
1, 57612, Note_on_c, 0, 85, 58
1, 57615, Note_on_c, 0, 88, 78
1, 57615, Note_off_c, 0, 61, 0
1, 57615, Note_off_c, 0, 64, 0
1, 57618, Note_on_c, 0, 58, 49
1, 57618, Note_on_c, 0, 61, 39
1, 57668, Control_c, 0, 64, 0
1, 57737, Note_off_c, 0, 78, 0
1, 57737, Note_on_c, 0, 78, 34
1, 57737, Note_off_c, 0, 66, 0
1, 57740, Note_on_c, 0, 66, 29
1, 57762, Control_c, 0, 64, 127
1, 57862, Note_off_c, 0, 85, 0
1, 57862, Note_off_c, 0, 88, 0
1, 57862, Note_on_c, 0, 83, 56
1, 57865, Note_on_c, 0, 87, 75
1, 57865, Note_off_c, 0, 58, 0
1, 57865, Note_off_c, 0, 61, 0
1, 57868, Note_on_c, 0, 59, 48
1, 57868, Note_on_c, 0, 63, 38
1, 57879, Control_c, 0, 64, 0
1, 57938, Control_c, 0, 64, 127
1, 57987, Note_off_c, 0, 78, 0
1, 57987, Note_on_c, 0, 78, 34
1, 57987, Note_off_c, 0, 66, 0
1, 57990, Note_on_c, 0, 66, 29
1, 58111, Note_off_c, 0, 83, 0
1, 58111, Note_off_c, 0, 87, 0
1, 58111, Note_on_c, 0, 82, 53
1, 58114, Note_on_c, 0, 85, 73
1, 58114, Note_off_c, 0, 59, 0
1, 58114, Note_off_c, 0, 63, 0
1, 58117, Note_on_c, 0, 61, 47
1, 58117, Note_on_c, 0, 64, 37
1, 58117, Control_c, 0, 64, 0
1, 58232, Control_c, 0, 64, 127
1, 58236, Note_off_c, 0, 78, 0
1, 58236, Note_on_c, 0, 78, 33
1, 58236, Note_off_c, 0, 66, 0
1, 58239, Note_on_c, 0, 66, 28
1, 58361, Control_c, 0, 64, 0
1, 58361, Control_c, 0, 64, 127
1, 58361, Control_c, 0, 64, 0
1, 58364, Control_c, 0, 64, 0
1, 58364, Control_c, 0, 64, 0
1, 58364, Note_off_c, 0, 78, 0
1, 58367, Note_off_c, 0, 82, 0
1, 58367, Note_off_c, 0, 85, 0
1, 58367, Note_off_c, 0, 66, 0
1, 58370, Note_off_c, 0, 61, 0
1, 58370, Note_off_c, 0, 64, 0
1, 58370, Note_on_c, 0, 83, 71
1, 58373, Note_on_c, 0, 63, 47
1, 58460, Control_c, 0, 64, 0
1, 58511, Note_on_c, 0, 78, 39
1, 58511, Note_on_c, 0, 66, 28
1, 58587, Control_c, 0, 64, 127
1, 58660, Note_off_c, 0, 83, 0
1, 58660, Note_on_c, 0, 81, 67
1, 58660, Note_off_c, 0, 63, 0
1, 58663, Note_on_c, 0, 63, 46
1, 58719, Control_c, 0, 64, 0
1, 58793, Note_off_c, 0, 78, 0
1, 58793, Note_on_c, 0, 72, 38
1, 58793, Note_off_c, 0, 66, 0
1, 58796, Note_on_c, 0, 66, 28
1, 58819, Control_c, 0, 64, 127
1, 58925, Note_off_c, 0, 81, 0
1, 58925, Note_on_c, 0, 80, 65
1, 58925, Note_off_c, 0, 63, 0
1, 58928, Note_on_c, 0, 63, 46
1, 58944, Control_c, 0, 64, 0
1, 59011, Control_c, 0, 64, 127
1, 59065, Note_off_c, 0, 72, 0
1, 59065, Note_on_c, 0, 72, 38
1, 59065, Note_off_c, 0, 66, 0
1, 59068, Note_on_c, 0, 66, 28
1, 59215, Note_off_c, 0, 80, 0
1, 59215, Note_on_c, 0, 80, 64
1, 59215, Note_off_c, 0, 63, 0
1, 59218, Note_on_c, 0, 63, 45
1, 59218, Control_c, 0, 64, 0
1, 59370, Control_c, 0, 64, 127
1, 59375, Note_off_c, 0, 72, 0
1, 59375, Note_on_c, 0, 72, 37
1, 59375, Note_off_c, 0, 66, 0
1, 59378, Note_on_c, 0, 66, 27
1, 59563, Control_c, 0, 64, 0
1, 59563, Control_c, 0, 64, 127
1, 59563, Note_off_c, 0, 72, 0
1, 59566, Note_off_c, 0, 80, 0
1, 59566, Note_off_c, 0, 66, 0
1, 59566, Note_off_c, 0, 63, 0
1, 59569, Note_on_c, 0, 72, 38
1, 59569, Note_on_c, 0, 80, 52
1, 59569, Note_on_c, 0, 63, 48
1, 59572, Note_on_c, 0, 66, 38
1, 59633, Control_c, 0, 64, 0
1, 59750, Note_off_c, 0, 72, 0
1, 59750, Note_off_c, 0, 80, 0
1, 59750, Note_on_c, 0, 68, 49
1, 59848, Control_c, 0, 64, 127
1, 59875, Note_on_c, 0, 70, 52
1, 59875, Note_off_c, 0, 63, 0
1, 59875, Note_off_c, 0, 66, 0
1, 59884, Note_off_c, 0, 68, 0
1, 59966, Control_c, 0, 64, 0
1, 59999, Note_on_c, 0, 72, 57
1, 60009, Note_off_c, 0, 70, 0
1, 60062, Note_on_c, 0, 75, 48
1, 60118, Control_c, 0, 64, 0
1, 60124, Note_off_c, 0, 75, 0
1, 60124, Note_on_c, 0, 73, 58
1, 60134, Note_off_c, 0, 72, 0
1, 60247, Control_c, 0, 64, 127
1, 60247, Note_on_c, 0, 72, 60
1, 60247, Note_on_c, 0, 56, 42
1, 60259, Note_off_c, 0, 73, 0
1, 60342, Control_c, 0, 64, 0
1, 60374, Note_on_c, 0, 73, 61
1, 60374, Note_on_c, 0, 58, 45
1, 60383, Note_off_c, 0, 72, 0
1, 60383, Note_off_c, 0, 56, 0
1, 60435, Control_c, 0, 64, 127
1, 60499, Note_on_c, 0, 75, 64
1, 60499, Note_on_c, 0, 60, 46
1, 60508, Note_off_c, 0, 73, 0
1, 60508, Note_off_c, 0, 58, 0
1, 60518, Control_c, 0, 64, 0
1, 60623, Control_c, 0, 64, 0
1, 60623, Control_c, 0, 64, 127
1, 60623, Control_c, 0, 64, 0
1, 60626, Note_on_c, 0, 76, 65
1, 60626, Note_on_c, 0, 61, 49
1, 60634, Note_off_c, 0, 75, 0
1, 60634, Note_off_c, 0, 60, 0
1, 60676, Control_c, 0, 64, 0
1, 60764, Note_on_c, 0, 72, 53
1, 60764, Note_on_c, 0, 56, 53
1, 60773, Note_off_c, 0, 76, 0
1, 60773, Note_off_c, 0, 61, 0
1, 60862, Control_c, 0, 64, 127
1, 60889, Note_on_c, 0, 73, 56
1, 60889, Note_on_c, 0, 58, 55
1, 60898, Note_off_c, 0, 72, 0
1, 60898, Note_off_c, 0, 56, 0
1, 60980, Control_c, 0, 64, 0
1, 61013, Note_on_c, 0, 75, 58
1, 61013, Note_on_c, 0, 60, 56
1, 61023, Note_off_c, 0, 73, 0
1, 61023, Note_off_c, 0, 58, 0
1, 61076, Note_on_c, 0, 78, 50
1, 61076, Note_on_c, 0, 63, 48
1, 61132, Control_c, 0, 64, 0
1, 61138, Note_off_c, 0, 78, 0
1, 61138, Note_on_c, 0, 76, 60
1, 61138, Note_off_c, 0, 63, 0
1, 61141, Note_on_c, 0, 61, 58
1, 61148, Note_off_c, 0, 75, 0
1, 61148, Note_off_c, 0, 60, 0
1, 61261, Control_c, 0, 64, 127
1, 61261, Note_on_c, 0, 75, 64
1, 61261, Note_on_c, 0, 60, 60
1, 61273, Note_off_c, 0, 76, 0
1, 61273, Note_off_c, 0, 61, 0
1, 61356, Control_c, 0, 64, 0
1, 61388, Note_on_c, 0, 76, 66
1, 61388, Note_on_c, 0, 61, 61
1, 61397, Note_off_c, 0, 75, 0
1, 61397, Note_off_c, 0, 60, 0
1, 61449, Control_c, 0, 64, 127
1, 61513, Note_on_c, 0, 78, 68
1, 61513, Note_on_c, 0, 63, 62
1, 61522, Note_off_c, 0, 76, 0
1, 61522, Note_off_c, 0, 61, 0
1, 61532, Control_c, 0, 64, 0
1, 61637, Control_c, 0, 64, 0
1, 61637, Control_c, 0, 64, 127
1, 61637, Control_c, 0, 64, 0
1, 61640, Note_on_c, 0, 80, 70
1, 61640, Note_on_c, 0, 64, 64
1, 61649, Note_off_c, 0, 78, 0
1, 61649, Note_off_c, 0, 63, 0
1, 61693, Control_c, 0, 64, 0
1, 61787, Note_on_c, 0, 78, 68
1, 61787, Note_on_c, 0, 63, 61
1, 61797, Note_off_c, 0, 80, 0
1, 61797, Note_off_c, 0, 64, 0
1, 61886, Control_c, 0, 64, 127
1, 61912, Note_on_c, 0, 76, 67
1, 61912, Note_on_c, 0, 64, 59
1, 61922, Note_off_c, 0, 78, 0
1, 61922, Note_off_c, 0, 63, 0
1, 62003, Control_c, 0, 64, 0
1, 62037, Note_on_c, 0, 75, 65
1, 62037, Note_on_c, 0, 66, 57
1, 62046, Note_off_c, 0, 76, 0
1, 62046, Note_off_c, 0, 64, 0
1, 62156, Control_c, 0, 64, 0
1, 62161, Note_on_c, 0, 76, 61
1, 62161, Note_on_c, 0, 68, 55
1, 62173, Note_off_c, 0, 75, 0
1, 62173, Note_off_c, 0, 66, 0
1, 62309, Control_c, 0, 64, 127
1, 62309, Note_on_c, 0, 75, 64
1, 62309, Note_on_c, 0, 66, 52
1, 62322, Note_off_c, 0, 76, 0
1, 62322, Note_off_c, 0, 68, 0
1, 62409, Control_c, 0, 64, 0
1, 62443, Note_on_c, 0, 73, 68
1, 62443, Note_on_c, 0, 64, 50
1, 62454, Note_off_c, 0, 75, 0
1, 62454, Note_off_c, 0, 66, 0
1, 62508, Control_c, 0, 64, 127
1, 62576, Note_on_c, 0, 80, 70
1, 62576, Note_on_c, 0, 65, 48
1, 62586, Note_off_c, 0, 73, 0
1, 62586, Note_off_c, 0, 64, 0
1, 62596, Control_c, 0, 64, 0
1, 62708, Control_c, 0, 64, 0
1, 62708, Control_c, 0, 64, 127
1, 62708, Control_c, 0, 64, 0
1, 62711, Note_on_c, 0, 75, 68
1, 62711, Note_on_c, 0, 66, 48
1, 62719, Note_off_c, 0, 80, 0
1, 62719, Note_off_c, 0, 65, 0
1, 62760, Control_c, 0, 64, 0
1, 62848, Note_on_c, 0, 73, 66
1, 62853, Control_c, 0, 64, 127
1, 62858, Note_off_c, 0, 75, 0
1, 62980, Note_on_c, 0, 71, 65
1, 62991, Note_off_c, 0, 73, 0
1, 62991, Note_off_c, 0, 66, 0
1, 63112, Note_on_c, 0, 78, 62
1, 63124, Note_off_c, 0, 71, 0
1, 63255, Control_c, 0, 64, 0
1, 63262, Note_on_c, 0, 73, 65
1, 63262, Note_on_c, 0, 54, 40
1, 63273, Note_off_c, 0, 78, 0
1, 63401, Control_c, 0, 64, 127
1, 63401, Note_on_c, 0, 71, 62
1, 63414, Note_off_c, 0, 73, 0
1, 63471, Control_c, 0, 64, 127
1, 63552, Note_on_c, 0, 70, 59
1, 63565, Note_off_c, 0, 71, 0
1, 63565, Note_off_c, 0, 54, 0
1, 63713, Note_on_c, 0, 78, 57
1, 63729, Note_off_c, 0, 70, 0
1, 63917, Control_c, 0, 64, 0
1, 63917, Control_c, 0, 64, 127
1, 63917, Note_off_c, 0, 78, 0
1, 63920, Note_on_c, 0, 66, 42
1, 63920, Note_on_c, 0, 75, 42
1, 63920, Note_on_c, 0, 78, 69
1, 63923, Note_on_c, 0, 47, 33
1, 64052, Control_c, 0, 64, 0
1, 64189, Note_on_c, 0, 54, 33
1, 64223, Control_c, 0, 64, 127
1, 64356, Note_off_c, 0, 47, 0
1, 64356, Note_off_c, 0, 54, 0
1, 64356, Note_on_c, 0, 51, 37
1, 64522, Note_off_c, 0, 51, 0
1, 64522, Note_on_c, 0, 47, 37
1, 64679, Note_off_c, 0, 47, 0
1, 64679, Note_on_c, 0, 59, 37
1, 64837, Note_off_c, 0, 59, 0
1, 64837, Note_on_c, 0, 54, 38
1, 64995, Control_c, 0, 64, 0
1, 64995, Control_c, 0, 64, 127
1, 64995, Control_c, 0, 64, 0
1, 64998, Note_off_c, 0, 54, 0
1, 64998, Note_on_c, 0, 64, 48
1, 64998, Note_on_c, 0, 73, 48
1, 65001, Note_on_c, 0, 76, 70
1, 65001, Note_on_c, 0, 49, 48
1, 65007, Note_off_c, 0, 66, 0
1, 65007, Note_off_c, 0, 75, 0
1, 65007, Note_off_c, 0, 78, 0
1, 65094, Control_c, 0, 64, 0
1, 65194, Note_on_c, 0, 58, 38
1, 65226, Control_c, 0, 64, 127
1, 65352, Note_off_c, 0, 49, 0
1, 65352, Note_off_c, 0, 58, 0
1, 65352, Note_on_c, 0, 54, 38
1, 65510, Note_on_c, 0, 63, 45
1, 65510, Note_on_c, 0, 71, 45
1, 65510, Note_on_c, 0, 75, 67
1, 65513, Note_off_c, 0, 54, 0
1, 65513, Note_on_c, 0, 51, 46
1, 65513, Control_c, 0, 64, 0
1, 65519, Note_off_c, 0, 64, 0
1, 65519, Note_off_c, 0, 73, 0
1, 65519, Note_off_c, 0, 76, 0
1, 65627, Control_c, 0, 64, 127
1, 65667, Note_on_c, 0, 59, 39
1, 65825, Note_off_c, 0, 51, 0
1, 65825, Note_off_c, 0, 59, 0
1, 65825, Note_on_c, 0, 54, 39
1, 65983, Control_c, 0, 64, 0
1, 65983, Control_c, 0, 64, 127
1, 65983, Control_c, 0, 64, 0
1, 65986, Control_c, 0, 64, 0
1, 65986, Note_off_c, 0, 54, 0
1, 65986, Note_on_c, 0, 68, 48
1, 65989, Note_on_c, 0, 73, 65
1, 65989, Note_on_c, 0, 52, 50
1, 65992, Note_off_c, 0, 63, 0
1, 65992, Note_off_c, 0, 71, 0
1, 65992, Note_off_c, 0, 75, 0
1, 66061, Control_c, 0, 64, 0
1, 66140, Note_on_c, 0, 61, 40
1, 66172, Control_c, 0, 64, 127
1, 66298, Note_off_c, 0, 52, 0
1, 66298, Note_off_c, 0, 61, 0
1, 66298, Note_on_c, 0, 56, 40
1, 66456, Note_off_c, 0, 68, 0
1, 66456, Note_on_c, 0, 68, 45
1, 66456, Note_on_c, 0, 71, 67
1, 66459, Note_off_c, 0, 56, 0
1, 66459, Note_on_c, 0, 53, 51
1, 66459, Control_c, 0, 64, 0
1, 66465, Note_off_c, 0, 73, 0
1, 66572, Control_c, 0, 64, 127
1, 66613, Note_on_c, 0, 62, 41
1, 66771, Note_off_c, 0, 53, 0
1, 66771, Note_off_c, 0, 62, 0
1, 66771, Note_on_c, 0, 56, 41
1, 66958, Control_c, 0, 64, 0
1, 66958, Control_c, 0, 64, 127
1, 66958, Control_c, 0, 64, 0
1, 66961, Control_c, 0, 64, 0
1, 66961, Note_off_c, 0, 68, 0
1, 66961, Note_off_c, 0, 56, 0
1, 66964, Note_on_c, 0, 66, 55
1, 66964, Note_on_c, 0, 54, 51
1, 67040, Control_c, 0, 64, 0
1, 67124, Note_on_c, 0, 63, 42
1, 67156, Control_c, 0, 64, 127
1, 67282, Note_off_c, 0, 54, 0
1, 67282, Note_off_c, 0, 63, 0
1, 67282, Note_on_c, 0, 59, 42
1, 67440, Note_off_c, 0, 66, 0
1, 67440, Note_on_c, 0, 66, 47
1, 67440, Note_on_c, 0, 70, 62
1, 67443, Note_off_c, 0, 59, 0
1, 67443, Note_on_c, 0, 52, 52
1, 67446, Control_c, 0, 64, 0
1, 67451, Note_off_c, 0, 71, 0
1, 67579, Control_c, 0, 64, 127
1, 67627, Note_on_c, 0, 61, 43
1, 67721, Note_on_c, 0, 78, 67
1, 67731, Note_off_c, 0, 70, 0
1, 67809, Note_off_c, 0, 52, 0
1, 67809, Note_off_c, 0, 61, 0
1, 67809, Note_on_c, 0, 58, 43
1, 68039, Control_c, 0, 64, 0
1, 68039, Control_c, 0, 64, 127
1, 68039, Control_c, 0, 64, 0
1, 68042, Note_off_c, 0, 66, 0
1, 68042, Note_off_c, 0, 78, 0
1, 68042, Note_off_c, 0, 58, 0
1, 68045, Note_on_c, 0, 66, 53
1, 68045, Note_on_c, 0, 69, 53
1, 68045, Note_on_c, 0, 78, 70
1, 68048, Note_on_c, 0, 51, 46
1, 68153, Control_c, 0, 64, 0
1, 68212, Note_on_c, 0, 59, 42
1, 68287, Control_c, 0, 64, 127
1, 68337, Note_off_c, 0, 51, 0
1, 68337, Note_off_c, 0, 59, 0
1, 68337, Note_on_c, 0, 54, 42
1, 68461, Note_off_c, 0, 54, 0
1, 68461, Note_on_c, 0, 51, 42
1, 68586, Note_off_c, 0, 51, 0
1, 68586, Note_on_c, 0, 47, 47
1, 68704, Note_on_c, 0, 54, 42
1, 68823, Note_off_c, 0, 47, 0
1, 68823, Note_off_c, 0, 54, 0
1, 68823, Note_on_c, 0, 51, 42
1, 68941, Note_off_c, 0, 51, 0
1, 68941, Note_on_c, 0, 47, 42
1, 69059, Control_c, 0, 64, 0
1, 69059, Control_c, 0, 64, 127
1, 69059, Control_c, 0, 64, 0
1, 69062, Control_c, 0, 64, 0
1, 69062, Note_off_c, 0, 66, 0
1, 69062, Note_off_c, 0, 69, 0
1, 69065, Note_off_c, 0, 78, 0
1, 69065, Note_off_c, 0, 47, 0
1, 69065, Note_on_c, 0, 64, 53
1, 69068, Note_on_c, 0, 69, 53
1, 69068, Note_on_c, 0, 76, 78
1, 69068, Note_on_c, 0, 49, 48
1, 69158, Control_c, 0, 64, 0
1, 69209, Note_on_c, 0, 57, 42
1, 69280, Control_c, 0, 64, 127
1, 69327, Note_off_c, 0, 49, 0
1, 69327, Note_off_c, 0, 57, 0
1, 69327, Note_on_c, 0, 52, 42
1, 69445, Note_off_c, 0, 52, 0
1, 69445, Note_on_c, 0, 49, 42
1, 69564, Note_off_c, 0, 64, 0
1, 69564, Note_off_c, 0, 69, 0
1, 69564, Note_off_c, 0, 76, 0
1, 69567, Note_on_c, 0, 63, 53
1, 69567, Note_on_c, 0, 66, 53
1, 69567, Note_on_c, 0, 69, 53
1, 69570, Note_on_c, 0, 75, 73
1, 69570, Note_off_c, 0, 49, 0
1, 69570, Note_on_c, 0, 51, 49
1, 69573, Control_c, 0, 64, 0
1, 69680, Control_c, 0, 64, 127
1, 69680, Note_on_c, 0, 59, 42
1, 69800, Note_off_c, 0, 51, 0
1, 69800, Note_off_c, 0, 59, 0
1, 69800, Note_on_c, 0, 54, 42
1, 69918, Note_off_c, 0, 54, 0
1, 69918, Note_on_c, 0, 51, 42
1, 70037, Control_c, 0, 64, 0
1, 70037, Control_c, 0, 64, 127
1, 70037, Control_c, 0, 64, 0
1, 70040, Control_c, 0, 64, 0
1, 70040, Control_c, 0, 64, 0
1, 70040, Note_off_c, 0, 63, 0
1, 70043, Note_off_c, 0, 66, 0
1, 70043, Note_off_c, 0, 69, 0
1, 70043, Note_off_c, 0, 75, 0
1, 70046, Note_off_c, 0, 51, 0
1, 70046, Note_on_c, 0, 69, 53
1, 70046, Note_on_c, 0, 73, 78
1, 70049, Note_on_c, 0, 52, 50
1, 70124, Control_c, 0, 64, 0
1, 70169, Note_on_c, 0, 61, 43
1, 70236, Control_c, 0, 64, 127
1, 70281, Note_off_c, 0, 52, 0
1, 70281, Note_off_c, 0, 61, 0
1, 70281, Note_on_c, 0, 57, 43
1, 70393, Note_off_c, 0, 57, 0
1, 70393, Note_on_c, 0, 52, 45
1, 70506, Note_off_c, 0, 69, 0
1, 70506, Note_on_c, 0, 63, 53
1, 70506, Note_on_c, 0, 69, 53
1, 70509, Note_on_c, 0, 71, 83
1, 70509, Note_off_c, 0, 52, 0
1, 70509, Note_on_c, 0, 54, 55
1, 70509, Control_c, 0, 64, 0
1, 70514, Note_off_c, 0, 73, 0
1, 70617, Control_c, 0, 64, 127
1, 70617, Note_on_c, 0, 59, 45
1, 70730, Note_off_c, 0, 54, 0
1, 70730, Note_off_c, 0, 59, 0
1, 70730, Note_on_c, 0, 57, 46
1, 70843, Note_off_c, 0, 57, 0
1, 70843, Note_on_c, 0, 54, 47
1, 70955, Control_c, 0, 64, 0
1, 70955, Control_c, 0, 64, 127
1, 70955, Note_off_c, 0, 54, 0
1, 70958, Note_on_c, 0, 54, 57
1, 71067, Note_on_c, 0, 59, 48
1, 71180, Note_off_c, 0, 54, 0
1, 71180, Note_off_c, 0, 59, 0
1, 71180, Note_on_c, 0, 57, 48
1, 71292, Note_off_c, 0, 57, 0
1, 71292, Note_on_c, 0, 54, 48
1, 71404, Note_off_c, 0, 63, 0
1, 71404, Note_off_c, 0, 69, 0
1, 71404, Note_off_c, 0, 71, 0
1, 71407, Note_on_c, 0, 63, 46
1, 71407, Note_on_c, 0, 66, 46
1, 71407, Note_on_c, 0, 69, 78
1, 71410, Note_off_c, 0, 54, 0
1, 71410, Note_on_c, 0, 48, 61
1, 71410, Control_c, 0, 64, 0
1, 71528, Control_c, 0, 64, 127
1, 71528, Note_on_c, 0, 57, 50
1, 71629, Control_c, 0, 64, 127
1, 71654, Note_off_c, 0, 48, 0
1, 71654, Note_off_c, 0, 57, 0
1, 71654, Note_on_c, 0, 54, 50
1, 71779, Note_off_c, 0, 54, 0
1, 71779, Note_on_c, 0, 51, 51
1, 71903, Control_c, 0, 64, 127
1, 71903, Control_c, 0, 64, 0
1, 71903, Note_off_c, 0, 63, 0
1, 71906, Note_off_c, 0, 66, 0
1, 71906, Note_off_c, 0, 69, 0
1, 71906, Note_off_c, 0, 51, 0
1, 71909, Note_on_c, 0, 69, 77
1, 71909, Note_on_c, 0, 48, 66
1, 71917, Control_c, 0, 64, 127
1, 72053, Note_off_c, 0, 69, 0
1, 72053, Note_on_c, 0, 75, 84
1, 72053, Note_on_c, 0, 57, 51
1, 72185, Note_off_c, 0, 75, 0
1, 72185, Note_on_c, 0, 78, 79
1, 72185, Note_off_c, 0, 48, 0
1, 72188, Note_off_c, 0, 57, 0
1, 72188, Note_on_c, 0, 54, 51
1, 72310, Note_off_c, 0, 78, 0
1, 72310, Note_on_c, 0, 75, 76
1, 72310, Note_off_c, 0, 54, 0
1, 72313, Note_on_c, 0, 51, 50
1, 72435, Note_off_c, 0, 75, 0
1, 72435, Note_on_c, 0, 81, 73
1, 72435, Note_off_c, 0, 51, 0
1, 72438, Note_on_c, 0, 48, 49
1, 72560, Note_off_c, 0, 81, 0
1, 72560, Note_on_c, 0, 87, 69
1, 72560, Note_off_c, 0, 48, 0
1, 72563, Note_on_c, 0, 57, 48
1, 72684, Note_off_c, 0, 87, 0
1, 72684, Note_on_c, 0, 90, 70
1, 72684, Note_off_c, 0, 57, 0
1, 72687, Note_on_c, 0, 54, 47
1, 72825, Note_off_c, 0, 90, 0
1, 72825, Note_on_c, 0, 87, 61
1, 72825, Note_off_c, 0, 54, 0
1, 72828, Note_on_c, 0, 51, 46
1, 72975, Control_c, 0, 64, 0
1, 72975, Control_c, 0, 64, 127
1, 72975, Note_off_c, 0, 87, 0
1, 72978, Note_off_c, 0, 51, 0
1, 72978, Note_on_c, 0, 93, 75
1, 72978, Note_on_c, 0, 47, 57
1, 73081, Control_c, 0, 64, 0
1, 73135, Note_on_c, 0, 57, 46
1, 73202, Control_c, 0, 64, 127
1, 73267, Note_off_c, 0, 47, 0
1, 73267, Note_off_c, 0, 57, 0
1, 73267, Note_on_c, 0, 54, 45
1, 73399, Note_off_c, 0, 54, 0
1, 73399, Note_on_c, 0, 51, 43
1, 73532, Note_off_c, 0, 93, 0
1, 73532, Note_off_c, 0, 51, 0
1, 73532, Note_on_c, 0, 47, 41
1, 73562, Control_c, 0, 64, 0
1, 73664, Note_on_c, 0, 63, 52
1, 73664, Note_on_c, 0, 57, 40
1, 73804, Note_off_c, 0, 63, 0
1, 73804, Note_on_c, 0, 64, 55
1, 73804, Note_off_c, 0, 57, 0
1, 73807, Note_on_c, 0, 56, 39
1, 73954, Note_off_c, 0, 64, 0
1, 73954, Note_on_c, 0, 66, 57
1, 73954, Note_off_c, 0, 47, 0
1, 73957, Note_off_c, 0, 56, 0
1, 73957, Note_on_c, 0, 54, 38
1, 74114, Control_c, 0, 64, 0
1, 74114, Control_c, 0, 64, 0
1, 74114, Note_off_c, 0, 66, 0
1, 74117, Note_off_c, 0, 54, 0
1, 74117, Note_on_c, 0, 68, 61
1, 74117, Note_on_c, 0, 64, 41
1, 74120, Note_on_c, 0, 40, 33
1, 74120, Note_on_c, 0, 52, 33
1, 74265, Control_c, 0, 64, 127
1, 74275, Note_off_c, 0, 64, 0
1, 74275, Note_on_c, 0, 59, 38
1, 74400, Note_off_c, 0, 59, 0
1, 74400, Note_on_c, 0, 64, 33
1, 74400, Note_off_c, 0, 40, 0
1, 74403, Note_off_c, 0, 52, 0
1, 74524, Note_off_c, 0, 64, 0
1, 74524, Note_on_c, 0, 59, 30
1, 74649, Note_off_c, 0, 68, 0
1, 74649, Note_off_c, 0, 59, 0
1, 74649, Note_on_c, 0, 68, 40
1, 74652, Note_on_c, 0, 71, 65
1, 74790, Note_off_c, 0, 68, 0
1, 74790, Note_on_c, 0, 59, 41
1, 74930, Note_off_c, 0, 59, 0
1, 74930, Note_on_c, 0, 66, 30
1, 74930, Note_on_c, 0, 69, 60
1, 74940, Note_off_c, 0, 71, 0
1, 74968, Control_c, 0, 64, 0
1, 75055, Note_off_c, 0, 66, 0
1, 75055, Note_on_c, 0, 59, 33
1, 75097, Control_c, 0, 64, 127
1, 75180, Control_c, 0, 64, 0
1, 75180, Control_c, 0, 64, 0
1, 75180, Note_off_c, 0, 59, 0
1, 75183, Note_on_c, 0, 68, 61
1, 75183, Note_on_c, 0, 64, 41
1, 75183, Note_on_c, 0, 35, 37
1, 75186, Note_on_c, 0, 47, 33
1, 75192, Note_off_c, 0, 69, 0
1, 75195, Control_c, 0, 64, 127
1, 75270, Control_c, 0, 64, 0
1, 75340, Note_off_c, 0, 64, 0
1, 75340, Note_on_c, 0, 59, 38
1, 75361, Control_c, 0, 64, 127
1, 75500, Note_off_c, 0, 59, 0
1, 75500, Note_on_c, 0, 63, 38
1, 75500, Note_on_c, 0, 66, 60
1, 75503, Note_off_c, 0, 35, 0
1, 75503, Note_off_c, 0, 47, 0
1, 75511, Note_off_c, 0, 68, 0
1, 75559, Control_c, 0, 64, 0
1, 75633, Note_off_c, 0, 63, 0
1, 75633, Note_on_c, 0, 59, 34
1, 75647, Control_c, 0, 64, 127
1, 75765, Note_off_c, 0, 59, 0
1, 75765, Note_on_c, 0, 63, 34
1, 75765, Note_off_c, 0, 66, 0
1, 75768, Note_on_c, 0, 66, 60
1, 75897, Note_off_c, 0, 63, 0
1, 75897, Note_on_c, 0, 59, 38
1, 76029, Note_off_c, 0, 59, 0
1, 76029, Note_on_c, 0, 64, 42
1, 76029, Note_on_c, 0, 68, 62
1, 76039, Note_off_c, 0, 66, 0
1, 76067, Control_c, 0, 64, 0
1, 76154, Note_off_c, 0, 64, 0
1, 76154, Note_on_c, 0, 59, 40
1, 76173, Control_c, 0, 64, 127
1, 76279, Control_c, 0, 64, 0
1, 76279, Control_c, 0, 64, 127
1, 76279, Note_off_c, 0, 59, 0
1, 76282, Note_on_c, 0, 69, 66
1, 76282, Note_on_c, 0, 64, 38
1, 76282, Note_on_c, 0, 37, 31
1, 76285, Note_on_c, 0, 49, 31
1, 76290, Note_off_c, 0, 68, 0
1, 76331, Control_c, 0, 64, 0
1, 76398, Control_c, 0, 64, 127
1, 76419, Note_off_c, 0, 64, 0
1, 76419, Note_on_c, 0, 59, 40
1, 76559, Note_off_c, 0, 59, 0
1, 76559, Note_on_c, 0, 64, 42
1, 76559, Note_on_c, 0, 73, 69
1, 76570, Note_off_c, 0, 69, 0
1, 76570, Note_off_c, 0, 37, 0
1, 76570, Note_off_c, 0, 49, 0
1, 76700, Note_off_c, 0, 64, 0
1, 76700, Note_on_c, 0, 59, 43
1, 76807, Control_c, 0, 64, 0
1, 76840, Note_off_c, 0, 59, 0
1, 76840, Note_on_c, 0, 66, 46
1, 76840, Note_on_c, 0, 71, 66
1, 76843, Note_on_c, 0, 39, 34
1, 76843, Note_on_c, 0, 51, 34
1, 76851, Note_off_c, 0, 73, 0
1, 76909, Control_c, 0, 64, 127
1, 76972, Note_off_c, 0, 66, 0
1, 76972, Note_on_c, 0, 59, 42
1, 77104, Note_off_c, 0, 59, 0
1, 77104, Note_on_c, 0, 63, 38
1, 77104, Note_on_c, 0, 66, 60
1, 77107, Note_on_c, 0, 35, 31
1, 77107, Note_on_c, 0, 47, 31
1, 77114, Note_off_c, 0, 71, 0
1, 77114, Note_off_c, 0, 39, 0
1, 77114, Note_off_c, 0, 51, 0
1, 77166, Control_c, 0, 64, 0
1, 77229, Note_off_c, 0, 63, 0
1, 77229, Note_on_c, 0, 59, 34
1, 77269, Control_c, 0, 64, 127
1, 77390, Control_c, 0, 64, 0
1, 77390, Control_c, 0, 64, 127
1, 77390, Note_off_c, 0, 59, 0
1, 77393, Note_on_c, 0, 59, 30
1, 77393, Note_on_c, 0, 64, 30
1, 77393, Note_on_c, 0, 68, 50
1, 77396, Note_on_c, 0, 40, 25
1, 77396, Note_on_c, 0, 52, 32
1, 77402, Note_off_c, 0, 66, 0
1, 77402, Note_off_c, 0, 35, 0
1, 77402, Note_off_c, 0, 47, 0
1, 77496, Control_c, 0, 64, 0
1, 77550, Note_on_c, 0, 56, 46
1, 77560, Note_off_c, 0, 40, 0
1, 77560, Note_off_c, 0, 52, 0
1, 77675, Note_on_c, 0, 59, 51
1, 77685, Note_off_c, 0, 56, 0
1, 77800, Note_on_c, 0, 57, 49
1, 77810, Note_off_c, 0, 59, 0
1, 77925, Note_off_c, 0, 59, 0
1, 77925, Note_off_c, 0, 64, 0
1, 77925, Note_off_c, 0, 68, 0
1, 77928, Note_on_c, 0, 56, 47
1, 77934, Note_off_c, 0, 57, 0
1, 78049, Note_on_c, 0, 57, 46
1, 78059, Note_off_c, 0, 56, 0
1, 78174, Note_on_c, 0, 76, 58
1, 78174, Note_on_c, 0, 56, 43
1, 78185, Note_off_c, 0, 57, 0
1, 78315, Note_on_c, 0, 78, 62
1, 78315, Note_on_c, 0, 54, 41
1, 78326, Note_off_c, 0, 76, 0
1, 78326, Note_off_c, 0, 56, 0
1, 78464, Control_c, 0, 64, 0
1, 78464, Control_c, 0, 64, 0
1, 78464, Control_c, 0, 64, 0
1, 78467, Note_on_c, 0, 68, 43
1, 78467, Note_on_c, 0, 80, 67
1, 78467, Note_on_c, 0, 52, 49
1, 78477, Note_off_c, 0, 78, 0
1, 78477, Note_off_c, 0, 54, 0
1, 78615, Control_c, 0, 64, 127
1, 78625, Note_on_c, 0, 59, 42
1, 78635, Note_off_c, 0, 52, 0
1, 78757, Note_on_c, 0, 47, 42
1, 78767, Note_off_c, 0, 59, 0
1, 78882, Note_on_c, 0, 59, 43
1, 78892, Note_off_c, 0, 47, 0
1, 79007, Note_off_c, 0, 68, 0
1, 79007, Note_off_c, 0, 80, 0
1, 79007, Note_on_c, 0, 71, 48
1, 79010, Note_on_c, 0, 83, 68
1, 79010, Note_on_c, 0, 52, 43
1, 79018, Note_off_c, 0, 59, 0
1, 79147, Note_on_c, 0, 59, 43
1, 79158, Note_off_c, 0, 52, 0
1, 79287, Note_off_c, 0, 71, 0
1, 79287, Note_off_c, 0, 83, 0
1, 79287, Note_on_c, 0, 69, 47
1, 79290, Note_on_c, 0, 81, 70
1, 79290, Note_on_c, 0, 47, 43
1, 79298, Note_off_c, 0, 59, 0
1, 79328, Control_c, 0, 64, 0
1, 79420, Note_on_c, 0, 59, 45
1, 79430, Note_off_c, 0, 47, 0
1, 79464, Control_c, 0, 64, 127
1, 79552, Control_c, 0, 64, 0
1, 79552, Control_c, 0, 64, 0
1, 79552, Control_c, 0, 64, 0
1, 79555, Note_off_c, 0, 69, 0
1, 79555, Note_off_c, 0, 81, 0
1, 79555, Note_on_c, 0, 68, 48
1, 79558, Note_on_c, 0, 80, 71
1, 79558, Note_on_c, 0, 51, 51
1, 79563, Note_off_c, 0, 59, 0
1, 79566, Control_c, 0, 64, 127
1, 79636, Control_c, 0, 64, 0
1, 79701, Note_on_c, 0, 59, 45
1, 79721, Control_c, 0, 64, 127
1, 79851, Note_off_c, 0, 68, 0
1, 79851, Note_off_c, 0, 80, 0
1, 79851, Note_on_c, 0, 66, 41
1, 79854, Note_on_c, 0, 78, 65
1, 79854, Note_on_c, 0, 47, 45
1, 79861, Note_off_c, 0, 59, 0
1, 79910, Control_c, 0, 64, 0
1, 79983, Note_on_c, 0, 59, 45
1, 79994, Note_off_c, 0, 47, 0
1, 79997, Control_c, 0, 64, 127
1, 80115, Note_off_c, 0, 66, 0
1, 80115, Note_off_c, 0, 78, 0
1, 80115, Note_on_c, 0, 66, 41
1, 80118, Note_on_c, 0, 78, 65
1, 80118, Note_off_c, 0, 51, 0
1, 80118, Note_on_c, 0, 51, 52
1, 80125, Note_off_c, 0, 59, 0
1, 80240, Note_on_c, 0, 59, 45
1, 80365, Note_off_c, 0, 66, 0
1, 80365, Note_off_c, 0, 78, 0
1, 80365, Note_on_c, 0, 68, 43
1, 80368, Note_on_c, 0, 80, 67
1, 80368, Note_off_c, 0, 51, 0
1, 80368, Note_on_c, 0, 53, 52
1, 80375, Note_off_c, 0, 59, 0
1, 80405, Control_c, 0, 64, 0
1, 80497, Note_on_c, 0, 59, 46
1, 80517, Control_c, 0, 64, 127
1, 80629, Control_c, 0, 64, 0
1, 80629, Control_c, 0, 64, 127
1, 80629, Control_c, 0, 64, 0
1, 80632, Note_off_c, 0, 68, 0
1, 80632, Note_off_c, 0, 80, 0
1, 80632, Note_off_c, 0, 53, 0
1, 80635, Note_on_c, 0, 69, 50
1, 80635, Note_on_c, 0, 81, 74
1, 80635, Note_on_c, 0, 54, 53
1, 80640, Note_off_c, 0, 59, 0
1, 80682, Control_c, 0, 64, 0
1, 80748, Control_c, 0, 64, 127
1, 80770, Note_on_c, 0, 59, 46
1, 80781, Note_off_c, 0, 54, 0
1, 80910, Note_off_c, 0, 69, 0
1, 80910, Note_off_c, 0, 81, 0
1, 80910, Note_on_c, 0, 73, 53
1, 80913, Note_on_c, 0, 85, 79
1, 80913, Note_on_c, 0, 57, 53
1, 80920, Note_off_c, 0, 59, 0
1, 81042, Note_on_c, 0, 59, 47
1, 81053, Note_off_c, 0, 57, 0
1, 81143, Control_c, 0, 64, 0
1, 81174, Note_off_c, 0, 73, 0
1, 81174, Note_off_c, 0, 85, 0
1, 81174, Note_on_c, 0, 71, 50
1, 81177, Note_on_c, 0, 83, 76
1, 81177, Note_on_c, 0, 56, 55
1, 81185, Note_off_c, 0, 59, 0
1, 81243, Control_c, 0, 64, 127
1, 81307, Note_on_c, 0, 59, 47
1, 81317, Note_off_c, 0, 56, 0
1, 81335, Note_off_c, 0, 71, 0
1, 81335, Note_off_c, 0, 83, 0
1, 81355, Control_c, 0, 64, 0
1, 81439, Note_on_c, 0, 75, 46
1, 81439, Note_on_c, 0, 87, 67
1, 81439, Note_on_c, 0, 47, 37
1, 81442, Note_on_c, 0, 54, 45
1, 81450, Note_off_c, 0, 59, 0
1, 81512, Control_c, 0, 64, 0
1, 81516, Note_off_c, 0, 75, 0
1, 81516, Note_off_c, 0, 87, 0
1, 81555, Control_c, 0, 64, 0
1, 81588, Note_on_c, 0, 57, 38
1, 81600, Note_off_c, 0, 47, 0
1, 81600, Note_off_c, 0, 54, 0
1, 81738, Control_c, 0, 64, 0
1, 81738, Control_c, 0, 64, 0
1, 81738, Note_on_c, 0, 76, 47
1, 81741, Note_on_c, 0, 88, 70
1, 81741, Note_on_c, 0, 52, 33
1, 81741, Note_on_c, 0, 56, 42
1, 81750, Note_off_c, 0, 57, 0
1, 81888, Note_on_c, 0, 59, 42
1, 81898, Note_off_c, 0, 52, 0
1, 82013, Note_off_c, 0, 56, 0
1, 82013, Note_on_c, 0, 56, 42
1, 82023, Note_off_c, 0, 59, 0
1, 82138, Note_on_c, 0, 52, 42
1, 82147, Note_off_c, 0, 56, 0
1, 82262, Note_off_c, 0, 76, 0
1, 82262, Note_off_c, 0, 88, 0
1, 82262, Note_on_c, 0, 51, 47
1, 82272, Note_off_c, 0, 52, 0
1, 82351, Control_c, 0, 64, 127
1, 82387, Note_on_c, 0, 59, 42
1, 82512, Note_on_c, 0, 71, 71
1, 82512, Note_off_c, 0, 51, 0
1, 82512, Note_on_c, 0, 54, 42
1, 82523, Note_off_c, 0, 59, 0
1, 82652, Note_on_c, 0, 51, 42
1, 82663, Note_off_c, 0, 54, 0
1, 82793, Control_c, 0, 64, 0
1, 82793, Control_c, 0, 64, 127
1, 82793, Note_on_c, 0, 70, 75
1, 82796, Note_on_c, 0, 49, 55
1, 82804, Note_off_c, 0, 71, 0
1, 82804, Note_off_c, 0, 51, 0
1, 82849, Control_c, 0, 64, 0
1, 82943, Note_on_c, 0, 58, 42
1, 82982, Control_c, 0, 64, 127
1, 83067, Note_off_c, 0, 49, 0
1, 83067, Note_on_c, 0, 54, 42
1, 83077, Note_off_c, 0, 58, 0
1, 83192, Note_on_c, 0, 49, 42
1, 83202, Note_off_c, 0, 54, 0
1, 83317, Note_on_c, 0, 76, 79
1, 83317, Note_on_c, 0, 42, 55
1, 83323, Control_c, 0, 64, 0
1, 83327, Note_off_c, 0, 70, 0
1, 83327, Note_off_c, 0, 49, 0
1, 83442, Note_on_c, 0, 58, 42
1, 83452, Control_c, 0, 64, 127
1, 83567, Note_off_c, 0, 42, 0
1, 83567, Note_on_c, 0, 54, 42
1, 83576, Note_off_c, 0, 58, 0
1, 83691, Note_on_c, 0, 49, 42
1, 83701, Note_off_c, 0, 54, 0
1, 83816, Control_c, 0, 64, 0
1, 83816, Control_c, 0, 64, 127
1, 83816, Note_on_c, 0, 75, 75
1, 83819, Note_on_c, 0, 47, 53
1, 83826, Note_off_c, 0, 76, 0
1, 83826, Note_off_c, 0, 49, 0
1, 83875, Control_c, 0, 64, 0
1, 83941, Note_on_c, 0, 59, 42
1, 83957, Control_c, 0, 64, 127
1, 84066, Note_off_c, 0, 47, 0
1, 84066, Note_on_c, 0, 54, 42
1, 84075, Note_off_c, 0, 59, 0
1, 84191, Note_on_c, 0, 51, 42
1, 84200, Note_off_c, 0, 54, 0
1, 84315, Note_on_c, 0, 47, 47
1, 84325, Note_off_c, 0, 51, 0
1, 84440, Note_on_c, 0, 59, 42
1, 84565, Note_on_c, 0, 69, 60
1, 84565, Note_off_c, 0, 47, 0
1, 84565, Note_on_c, 0, 49, 39
1, 84576, Note_off_c, 0, 75, 0
1, 84576, Note_off_c, 0, 59, 0
1, 84595, Control_c, 0, 64, 0
1, 84705, Note_on_c, 0, 57, 34
1, 84714, Control_c, 0, 64, 127
1, 84846, Control_c, 0, 64, 0
1, 84846, Control_c, 0, 64, 127
1, 84846, Note_off_c, 0, 49, 0
1, 84849, Note_on_c, 0, 68, 62
1, 84849, Note_on_c, 0, 47, 40
1, 84857, Note_off_c, 0, 69, 0
1, 84857, Note_off_c, 0, 57, 0
1, 84916, Control_c, 0, 64, 0
1, 84995, Note_on_c, 0, 56, 34
1, 85059, Control_c, 0, 64, 127
1, 85120, Note_off_c, 0, 47, 0
1, 85120, Note_on_c, 0, 52, 34
1, 85130, Note_off_c, 0, 56, 0
1, 85245, Note_on_c, 0, 47, 34
1, 85255, Note_off_c, 0, 52, 0
1, 85370, Note_on_c, 0, 74, 67
1, 85370, Note_on_c, 0, 40, 46
1, 85380, Note_off_c, 0, 68, 0
1, 85380, Note_off_c, 0, 47, 0
1, 85387, Control_c, 0, 64, 0
1, 85493, Control_c, 0, 64, 127
1, 85493, Note_on_c, 0, 56, 36
1, 85619, Note_off_c, 0, 40, 0
1, 85619, Note_on_c, 0, 52, 36
1, 85629, Note_off_c, 0, 56, 0
1, 85744, Note_on_c, 0, 47, 36
1, 85754, Note_off_c, 0, 52, 0
1, 85869, Control_c, 0, 64, 0
1, 85869, Control_c, 0, 64, 127
1, 85869, Note_on_c, 0, 73, 64
1, 85872, Note_on_c, 0, 45, 42
1, 85880, Note_off_c, 0, 74, 0
1, 85880, Note_off_c, 0, 47, 0
1, 85949, Control_c, 0, 64, 0
1, 86009, Note_on_c, 0, 57, 36
1, 86073, Control_c, 0, 64, 127
1, 86134, Note_off_c, 0, 45, 0
1, 86134, Note_on_c, 0, 52, 36
1, 86144, Note_off_c, 0, 57, 0
1, 86259, Note_on_c, 0, 49, 36
1, 86269, Note_off_c, 0, 52, 0
1, 86378, Control_c, 0, 64, 0
1, 86384, Note_on_c, 0, 45, 41
1, 86394, Note_off_c, 0, 49, 0
1, 86509, Note_off_c, 0, 45, 0
1, 86509, Note_on_c, 0, 52, 31
1, 86531, Control_c, 0, 64, 127
1, 86633, Note_off_c, 0, 73, 0
1, 86633, Note_on_c, 0, 73, 68
1, 86633, Note_off_c, 0, 52, 0
1, 86636, Note_on_c, 0, 45, 31
1, 86774, Note_off_c, 0, 45, 0
1, 86774, Note_on_c, 0, 52, 32
1, 86914, Control_c, 0, 64, 0
1, 86914, Control_c, 0, 64, 127
1, 86914, Note_off_c, 0, 52, 0
1, 86917, Note_on_c, 0, 72, 68
1, 86917, Note_on_c, 0, 45, 52
1, 86927, Note_off_c, 0, 73, 0
1, 86959, Control_c, 0, 64, 0
1, 87065, Control_c, 0, 64, 127
1, 87075, Note_on_c, 0, 52, 37
1, 87235, Note_on_c, 0, 73, 60
1, 87235, Note_off_c, 0, 45, 0
1, 87235, Note_on_c, 0, 45, 37
1, 87246, Note_off_c, 0, 72, 0
1, 87269, Control_c, 0, 64, 0
1, 87367, Note_off_c, 0, 52, 0
1, 87367, Note_on_c, 0, 52, 37
1, 87367, Control_c, 0, 64, 127
1, 87481, Control_c, 0, 64, 0
1, 87499, Note_on_c, 0, 61, 40
1, 87499, Note_on_c, 0, 64, 40
1, 87499, Note_on_c, 0, 69, 66
1, 87502, Note_off_c, 0, 45, 0
1, 87502, Note_on_c, 0, 45, 53
1, 87510, Note_off_c, 0, 73, 0
1, 87612, Control_c, 0, 64, 127
1, 87640, Note_off_c, 0, 52, 0
1, 87640, Note_on_c, 0, 52, 38
1, 87780, Note_off_c, 0, 64, 0
1, 87780, Note_on_c, 0, 59, 40
1, 87780, Note_on_c, 0, 64, 40
1, 87783, Note_on_c, 0, 68, 68
1, 87783, Note_off_c, 0, 45, 0
1, 87783, Note_on_c, 0, 47, 61
1, 87792, Note_off_c, 0, 61, 0
1, 87792, Note_off_c, 0, 69, 0
1, 87911, Control_c, 0, 64, 0
1, 87930, Note_off_c, 0, 52, 0
1, 87930, Note_on_c, 0, 52, 38
1, 87987, Control_c, 0, 64, 127
1, 88080, Control_c, 0, 64, 0
1, 88080, Control_c, 0, 64, 127
1, 88080, Note_off_c, 0, 59, 0
1, 88083, Note_off_c, 0, 64, 0
1, 88083, Note_off_c, 0, 68, 0
1, 88083, Note_off_c, 0, 47, 0
1, 88086, Note_off_c, 0, 52, 0
1, 88086, Note_on_c, 0, 58, 45
1, 88086, Note_on_c, 0, 64, 40
1, 88089, Note_on_c, 0, 68, 61
1, 88089, Note_on_c, 0, 49, 65
1, 88136, Control_c, 0, 64, 0
1, 88240, Note_on_c, 0, 52, 39
1, 88249, Control_c, 0, 64, 127
1, 88401, Note_off_c, 0, 68, 0
1, 88401, Note_on_c, 0, 66, 58
1, 88401, Note_off_c, 0, 49, 0
1, 88404, Note_on_c, 0, 49, 39
1, 88460, Control_c, 0, 64, 0
1, 88510, Control_c, 0, 64, 127
1, 88533, Note_off_c, 0, 52, 0
1, 88533, Note_on_c, 0, 52, 40
1, 88665, Note_off_c, 0, 58, 0
1, 88665, Note_off_c, 0, 64, 0
1, 88665, Note_on_c, 0, 57, 40
1, 88668, Note_on_c, 0, 64, 40
1, 88668, Note_off_c, 0, 49, 0
1, 88668, Note_on_c, 0, 48, 57
1, 88683, Control_c, 0, 64, 0
1, 88777, Control_c, 0, 64, 127
1, 88790, Note_off_c, 0, 52, 0
1, 88790, Note_on_c, 0, 52, 41
1, 88915, Note_off_c, 0, 66, 0
1, 88915, Note_on_c, 0, 66, 62
1, 88915, Note_off_c, 0, 48, 0
1, 88918, Note_on_c, 0, 48, 42
1, 89064, Note_off_c, 0, 52, 0
1, 89064, Note_on_c, 0, 52, 43
1, 89225, Control_c, 0, 64, 0
1, 89225, Control_c, 0, 64, 127
1, 89225, Note_off_c, 0, 57, 0
1, 89228, Note_off_c, 0, 64, 0
1, 89228, Note_off_c, 0, 66, 0
1, 89228, Note_off_c, 0, 48, 0
1, 89231, Note_off_c, 0, 52, 0
1, 89231, Note_on_c, 0, 57, 40
1, 89231, Note_on_c, 0, 63, 33
1, 89234, Note_on_c, 0, 66, 69
1, 89234, Note_on_c, 0, 47, 41
1, 89310, Control_c, 0, 64, 0
1, 89375, Note_on_c, 0, 54, 30
1, 89422, Control_c, 0, 64, 127
1, 89524, Note_off_c, 0, 63, 0
1, 89524, Note_on_c, 0, 63, 33
1, 89524, Note_on_c, 0, 71, 65
1, 89527, Note_off_c, 0, 47, 0
1, 89527, Note_on_c, 0, 47, 36
1, 89534, Note_off_c, 0, 57, 0
1, 89534, Note_off_c, 0, 66, 0
1, 89649, Note_off_c, 0, 54, 0
1, 89649, Note_on_c, 0, 54, 29
1, 89649, Note_on_c, 0, 57, 34
1, 89768, Control_c, 0, 64, 0
1, 89774, Note_on_c, 0, 70, 59
1, 89774, Note_off_c, 0, 47, 0
1, 89774, Note_on_c, 0, 47, 32
1, 89784, Note_off_c, 0, 71, 0
1, 89886, Control_c, 0, 64, 127
1, 89899, Note_off_c, 0, 54, 0
1, 89899, Note_off_c, 0, 57, 0
1, 89899, Note_on_c, 0, 54, 27
1, 89902, Note_on_c, 0, 57, 31
1, 90024, Note_off_c, 0, 63, 0
1, 90024, Note_on_c, 0, 63, 29
1, 90024, Note_on_c, 0, 71, 51
1, 90027, Note_off_c, 0, 47, 0
1, 90027, Note_on_c, 0, 47, 30
1, 90035, Note_off_c, 0, 70, 0
1, 90133, Control_c, 0, 64, 0
1, 90164, Note_off_c, 0, 54, 0
1, 90164, Note_off_c, 0, 57, 0
1, 90164, Note_on_c, 0, 54, 23
1, 90167, Note_on_c, 0, 57, 28
1, 90195, Note_off_c, 0, 63, 0
1, 90195, Note_off_c, 0, 71, 0
1, 90304, Control_c, 0, 64, 0
1, 90304, Control_c, 0, 64, 0
1, 90304, Control_c, 0, 64, 0
1, 90307, Note_off_c, 0, 47, 0
1, 90307, Note_off_c, 0, 54, 0
1, 90307, Note_off_c, 0, 57, 0
1, 90310, Note_on_c, 0, 64, 55
1, 90310, Note_on_c, 0, 52, 36
1, 90310, Note_on_c, 0, 56, 42
1, 90445, Note_on_c, 0, 59, 36
1, 90570, Note_off_c, 0, 52, 0
1, 90570, Note_off_c, 0, 56, 0
1, 90570, Note_off_c, 0, 59, 0
1, 90573, Note_on_c, 0, 56, 36
1, 90694, Note_on_c, 0, 52, 36
1, 90819, Note_off_c, 0, 64, 0
1, 90819, Note_off_c, 0, 52, 0
1, 90819, Note_off_c, 0, 56, 0
1, 90822, Note_on_c, 0, 51, 42
1, 90907, Control_c, 0, 64, 127
1, 90944, Note_on_c, 0, 59, 36
1, 91069, Note_on_c, 0, 71, 48
1, 91069, Note_on_c, 0, 83, 66
1, 91069, Note_off_c, 0, 51, 0
1, 91072, Note_off_c, 0, 59, 0
1, 91072, Note_on_c, 0, 54, 36
1, 91209, Note_off_c, 0, 54, 0
1, 91209, Note_on_c, 0, 51, 36
1, 91350, Control_c, 0, 64, 0
1, 91350, Control_c, 0, 64, 127
1, 91350, Control_c, 0, 64, 0
1, 91353, Note_off_c, 0, 71, 0
1, 91353, Note_off_c, 0, 83, 0
1, 91353, Note_off_c, 0, 51, 0
1, 91356, Note_on_c, 0, 70, 52
1, 91356, Note_on_c, 0, 82, 70
1, 91356, Note_on_c, 0, 49, 49
1, 91406, Control_c, 0, 64, 0
1, 91499, Note_on_c, 0, 58, 37
1, 91539, Control_c, 0, 64, 127
1, 91624, Note_off_c, 0, 49, 0
1, 91624, Note_off_c, 0, 58, 0
1, 91624, Note_on_c, 0, 54, 37
1, 91749, Note_off_c, 0, 54, 0
1, 91749, Note_on_c, 0, 49, 37
1, 91874, Note_off_c, 0, 70, 0
1, 91874, Note_off_c, 0, 82, 0
1, 91874, Note_on_c, 0, 76, 57
1, 91877, Note_on_c, 0, 88, 75
1, 91877, Note_off_c, 0, 49, 0
1, 91877, Note_on_c, 0, 42, 49
1, 91880, Control_c, 0, 64, 0
1, 91998, Note_on_c, 0, 58, 37
1, 92009, Control_c, 0, 64, 127
1, 92123, Note_off_c, 0, 42, 0
1, 92123, Note_off_c, 0, 58, 0
1, 92123, Note_on_c, 0, 54, 37
1, 92248, Note_off_c, 0, 54, 0
1, 92248, Note_on_c, 0, 49, 37
1, 92373, Control_c, 0, 64, 0
1, 92373, Control_c, 0, 64, 127
1, 92373, Control_c, 0, 64, 0
1, 92376, Note_off_c, 0, 76, 0
1, 92376, Note_off_c, 0, 88, 0
1, 92376, Note_off_c, 0, 49, 0
1, 92379, Note_on_c, 0, 75, 52
1, 92379, Note_on_c, 0, 87, 70
1, 92379, Note_on_c, 0, 47, 56
1, 92431, Control_c, 0, 64, 0
1, 92498, Note_on_c, 0, 59, 42
1, 92514, Control_c, 0, 64, 127
1, 92622, Note_off_c, 0, 47, 0
1, 92622, Note_off_c, 0, 59, 0
1, 92622, Note_on_c, 0, 54, 42
1, 92747, Note_off_c, 0, 54, 0
1, 92747, Note_on_c, 0, 51, 42
1, 92872, Note_off_c, 0, 51, 0
1, 92872, Note_on_c, 0, 47, 49
1, 92997, Note_on_c, 0, 59, 42
1, 93122, Note_off_c, 0, 75, 0
1, 93122, Note_off_c, 0, 87, 0
1, 93122, Note_on_c, 0, 69, 49
1, 93125, Note_on_c, 0, 81, 67
1, 93125, Note_off_c, 0, 47, 0
1, 93125, Note_off_c, 0, 59, 0
1, 93128, Note_on_c, 0, 49, 49
1, 93151, Control_c, 0, 64, 0
1, 93262, Note_on_c, 0, 57, 42
1, 93270, Control_c, 0, 64, 127
1, 93402, Control_c, 0, 64, 0
1, 93402, Control_c, 0, 64, 127
1, 93402, Control_c, 0, 64, 0
1, 93405, Note_off_c, 0, 69, 0
1, 93405, Note_off_c, 0, 81, 0
1, 93405, Note_off_c, 0, 49, 0
1, 93408, Note_off_c, 0, 57, 0
1, 93408, Note_on_c, 0, 68, 52
1, 93408, Note_on_c, 0, 80, 70
1, 93411, Note_on_c, 0, 47, 56
1, 93473, Control_c, 0, 64, 0
1, 93552, Note_on_c, 0, 56, 42
1, 93616, Control_c, 0, 64, 127
1, 93677, Note_off_c, 0, 47, 0
1, 93677, Note_off_c, 0, 56, 0
1, 93677, Note_on_c, 0, 52, 42
1, 93802, Note_off_c, 0, 52, 0
1, 93802, Note_on_c, 0, 47, 42
1, 93927, Note_off_c, 0, 68, 0
1, 93927, Note_off_c, 0, 80, 0
1, 93927, Note_on_c, 0, 74, 42
1, 93930, Note_on_c, 0, 86, 70
1, 93930, Note_off_c, 0, 47, 0
1, 93930, Note_on_c, 0, 40, 56
1, 93944, Control_c, 0, 64, 0
1, 94050, Control_c, 0, 64, 127
1, 94050, Note_on_c, 0, 56, 42
1, 94176, Note_off_c, 0, 40, 0
1, 94176, Note_off_c, 0, 56, 0
1, 94176, Note_on_c, 0, 52, 42
1, 94301, Note_off_c, 0, 52, 0
1, 94301, Note_on_c, 0, 47, 42
1, 94426, Control_c, 0, 64, 0
1, 94426, Control_c, 0, 64, 127
1, 94426, Control_c, 0, 64, 0
1, 94429, Note_off_c, 0, 74, 0
1, 94429, Note_off_c, 0, 86, 0
1, 94429, Note_off_c, 0, 47, 0
1, 94432, Note_on_c, 0, 73, 38
1, 94432, Note_on_c, 0, 85, 66
1, 94432, Note_on_c, 0, 45, 56
1, 94497, Control_c, 0, 64, 0
1, 94551, Note_on_c, 0, 57, 42
1, 94614, Control_c, 0, 64, 127
1, 94675, Note_off_c, 0, 45, 0
1, 94675, Note_off_c, 0, 57, 0
1, 94675, Note_on_c, 0, 52, 42
1, 94800, Note_off_c, 0, 52, 0
1, 94800, Note_on_c, 0, 49, 42
1, 94919, Control_c, 0, 64, 0
1, 94925, Note_off_c, 0, 49, 0
1, 94925, Note_on_c, 0, 45, 42
1, 95050, Note_on_c, 0, 52, 42
1, 95072, Control_c, 0, 64, 127
1, 95175, Note_off_c, 0, 73, 0
1, 95175, Note_off_c, 0, 85, 0
1, 95175, Note_on_c, 0, 73, 49
1, 95178, Note_on_c, 0, 85, 67
1, 95178, Note_off_c, 0, 45, 0
1, 95178, Note_off_c, 0, 52, 0
1, 95181, Note_on_c, 0, 45, 60
1, 95315, Note_on_c, 0, 52, 42
1, 95455, Control_c, 0, 64, 0
1, 95455, Control_c, 0, 64, 127
1, 95455, Control_c, 0, 64, 0
1, 95458, Note_off_c, 0, 73, 0
1, 95458, Note_off_c, 0, 85, 0
1, 95458, Note_off_c, 0, 45, 0
1, 95461, Note_off_c, 0, 52, 0
1, 95461, Note_on_c, 0, 72, 52
1, 95461, Note_on_c, 0, 84, 70
1, 95464, Note_on_c, 0, 44, 60
1, 95501, Control_c, 0, 64, 0
1, 95607, Control_c, 0, 64, 127
1, 95616, Note_on_c, 0, 52, 42
1, 95776, Note_off_c, 0, 72, 0
1, 95776, Note_off_c, 0, 84, 0
1, 95776, Note_on_c, 0, 73, 49
1, 95779, Note_on_c, 0, 85, 67
1, 95779, Note_off_c, 0, 44, 0
1, 95779, Note_off_c, 0, 52, 0
1, 95782, Note_on_c, 0, 45, 42
1, 95810, Control_c, 0, 64, 0
1, 95909, Note_on_c, 0, 52, 42
1, 95909, Control_c, 0, 64, 127
1, 96022, Control_c, 0, 64, 0
1, 96041, Note_off_c, 0, 73, 0
1, 96041, Note_off_c, 0, 85, 0
1, 96041, Note_on_c, 0, 69, 52
1, 96044, Note_on_c, 0, 81, 70
1, 96044, Note_off_c, 0, 45, 0
1, 96044, Note_off_c, 0, 52, 0
1, 96047, Note_on_c, 0, 45, 49
1, 96047, Note_on_c, 0, 49, 42
1, 96153, Control_c, 0, 64, 127
1, 96181, Note_off_c, 0, 49, 0
1, 96181, Note_on_c, 0, 52, 42
1, 96321, Note_off_c, 0, 69, 0
1, 96321, Note_off_c, 0, 81, 0
1, 96321, Note_on_c, 0, 68, 56
1, 96324, Note_on_c, 0, 80, 74
1, 96324, Note_off_c, 0, 45, 0
1, 96324, Note_off_c, 0, 52, 0
1, 96327, Note_on_c, 0, 47, 48
1, 96327, Note_on_c, 0, 52, 42
1, 96444, Control_c, 0, 64, 0
1, 96462, Note_on_c, 0, 56, 42
1, 96516, Control_c, 0, 64, 127
1, 96602, Control_c, 0, 64, 0
1, 96602, Control_c, 0, 64, 127
1, 96602, Control_c, 0, 64, 0
1, 96605, Note_off_c, 0, 68, 0
1, 96605, Note_off_c, 0, 80, 0
1, 96605, Note_off_c, 0, 47, 0
1, 96608, Note_off_c, 0, 52, 0
1, 96608, Note_off_c, 0, 56, 0
1, 96608, Note_on_c, 0, 68, 58
1, 96611, Note_on_c, 0, 80, 76
1, 96611, Note_on_c, 0, 49, 61
1, 96611, Note_on_c, 0, 52, 46
1, 96659, Control_c, 0, 64, 0
1, 96763, Note_off_c, 0, 52, 0
1, 96763, Note_on_c, 0, 58, 45
1, 96771, Control_c, 0, 64, 127
1, 96923, Note_off_c, 0, 68, 0
1, 96923, Note_off_c, 0, 80, 0
1, 96923, Note_on_c, 0, 66, 46
1, 96926, Note_on_c, 0, 78, 64
1, 96926, Note_off_c, 0, 49, 0
1, 96926, Note_off_c, 0, 58, 0
1, 96929, Note_on_c, 0, 49, 43
1, 96929, Note_on_c, 0, 52, 43
1, 96982, Control_c, 0, 64, 0
1, 97032, Control_c, 0, 64, 127
1, 97055, Note_off_c, 0, 52, 0
1, 97055, Note_on_c, 0, 58, 42
1, 97187, Note_off_c, 0, 49, 0
1, 97187, Note_off_c, 0, 58, 0
1, 97187, Note_on_c, 0, 48, 51
1, 97190, Note_on_c, 0, 52, 42
1, 97206, Control_c, 0, 64, 0
1, 97306, Control_c, 0, 64, 127
1, 97320, Note_off_c, 0, 52, 0
1, 97320, Note_on_c, 0, 57, 41
1, 97452, Note_off_c, 0, 66, 0
1, 97452, Note_off_c, 0, 78, 0
1, 97452, Note_on_c, 0, 66, 50
1, 97455, Note_on_c, 0, 78, 68
1, 97455, Note_off_c, 0, 48, 0
1, 97455, Note_off_c, 0, 57, 0
1, 97458, Note_on_c, 0, 48, 40
1, 97458, Note_on_c, 0, 52, 40
1, 97601, Note_off_c, 0, 52, 0
1, 97601, Note_on_c, 0, 57, 39
1, 97751, Control_c, 0, 64, 0
1, 97751, Control_c, 0, 64, 127
1, 97751, Control_c, 0, 64, 0
1, 97754, Note_off_c, 0, 66, 0
1, 97754, Note_off_c, 0, 78, 0
1, 97754, Note_off_c, 0, 48, 0
1, 97757, Note_off_c, 0, 57, 0
1, 97757, Note_on_c, 0, 66, 48
1, 97757, Note_on_c, 0, 78, 65
1, 97760, Note_on_c, 0, 47, 53
1, 97760, Note_on_c, 0, 51, 42
1, 97836, Control_c, 0, 64, 0
1, 97901, Note_on_c, 0, 57, 42
1, 97948, Control_c, 0, 64, 127
1, 98051, Note_off_c, 0, 66, 0
1, 98051, Note_off_c, 0, 78, 0
1, 98051, Note_on_c, 0, 71, 47
1, 98054, Note_on_c, 0, 83, 62
1, 98054, Note_off_c, 0, 47, 0
1, 98054, Note_off_c, 0, 51, 0
1, 98057, Note_off_c, 0, 57, 0
1, 98057, Note_on_c, 0, 47, 41
1, 98057, Note_on_c, 0, 51, 41
1, 98160, Control_c, 0, 64, 127
1, 98183, Note_off_c, 0, 47, 0
1, 98183, Note_off_c, 0, 51, 0
1, 98183, Note_on_c, 0, 57, 40
1, 98315, Note_off_c, 0, 71, 0
1, 98315, Note_off_c, 0, 83, 0
1, 98315, Note_on_c, 0, 70, 46
1, 98318, Note_on_c, 0, 82, 61
1, 98318, Note_off_c, 0, 57, 0
1, 98318, Note_on_c, 0, 47, 39
1, 98321, Note_on_c, 0, 51, 39
1, 98447, Note_off_c, 0, 47, 0
1, 98447, Note_off_c, 0, 51, 0
1, 98447, Note_on_c, 0, 57, 39
1, 98579, Note_off_c, 0, 70, 0
1, 98579, Note_off_c, 0, 82, 0
1, 98579, Note_on_c, 0, 71, 45
1, 98582, Note_on_c, 0, 83, 59
1, 98582, Note_off_c, 0, 57, 0
1, 98582, Note_on_c, 0, 47, 38
1, 98585, Note_on_c, 0, 51, 38
1, 98688, Control_c, 0, 64, 0
1, 98720, Note_off_c, 0, 47, 0
1, 98720, Note_off_c, 0, 51, 0
1, 98720, Note_on_c, 0, 57, 37
1, 98860, Control_c, 0, 64, 0
1, 98860, Control_c, 0, 64, 0
1, 98860, Note_off_c, 0, 71, 0
1, 98863, Note_off_c, 0, 83, 0
1, 98863, Note_off_c, 0, 57, 0
1, 98863, Note_on_c, 0, 64, 43
1, 98866, Note_on_c, 0, 76, 58
1, 98866, Note_on_c, 0, 52, 37
1, 98866, Note_on_c, 0, 56, 42
1, 98973, Note_off_c, 0, 52, 0
1, 98973, Note_off_c, 0, 56, 0
1, 99001, Note_on_c, 0, 52, 41
1, 99101, Note_off_c, 0, 52, 0
1, 99125, Note_on_c, 0, 51, 40
1, 99226, Note_off_c, 0, 51, 0
1, 99250, Note_on_c, 0, 49, 39
1, 99351, Note_off_c, 0, 49, 0
1, 99375, Note_off_c, 0, 64, 0
1, 99375, Note_off_c, 0, 76, 0
1, 99375, Note_on_c, 0, 47, 37
1, 99475, Note_off_c, 0, 47, 0
1, 99500, Note_on_c, 0, 45, 36
1, 99600, Note_off_c, 0, 45, 0
1, 99625, Note_on_c, 0, 64, 53
1, 99625, Note_on_c, 0, 44, 34
1, 99738, Note_off_c, 0, 44, 0
1, 99765, Note_on_c, 0, 66, 58
1, 99765, Note_on_c, 0, 42, 33
1, 99776, Note_off_c, 0, 64, 0
1, 99878, Note_off_c, 0, 42, 0
1, 99905, Control_c, 0, 64, 0
1, 99905, Control_c, 0, 64, 0
1, 99905, Control_c, 0, 64, 0
1, 99908, Control_c, 0, 64, 0
1, 99908, Note_on_c, 0, 68, 66
1, 99908, Note_on_c, 0, 64, 46
1, 99911, Note_on_c, 0, 40, 33
1, 99916, Note_off_c, 0, 66, 0
1, 100038, Control_c, 0, 64, 127
1, 100046, Note_off_c, 0, 64, 0
1, 100046, Note_on_c, 0, 59, 42
1, 100171, Note_off_c, 0, 59, 0
1, 100171, Note_on_c, 0, 64, 38
1, 100171, Note_off_c, 0, 40, 0
1, 100295, Note_off_c, 0, 64, 0
1, 100295, Note_on_c, 0, 59, 34
1, 100420, Note_off_c, 0, 68, 0
1, 100420, Note_off_c, 0, 59, 0
1, 100420, Note_on_c, 0, 68, 45
1, 100423, Note_on_c, 0, 71, 69
1, 100561, Note_off_c, 0, 68, 0
1, 100561, Note_on_c, 0, 59, 46
1, 100701, Note_off_c, 0, 59, 0
1, 100701, Note_on_c, 0, 66, 34
1, 100701, Note_on_c, 0, 69, 65
1, 100711, Note_off_c, 0, 71, 0
1, 100739, Control_c, 0, 64, 0
1, 100826, Note_off_c, 0, 66, 0
1, 100826, Note_on_c, 0, 59, 38
1, 100868, Control_c, 0, 64, 127
1, 100951, Control_c, 0, 64, 0
1, 100951, Control_c, 0, 64, 0
1, 100951, Control_c, 0, 64, 0
1, 100954, Control_c, 0, 64, 0
1, 100954, Note_off_c, 0, 59, 0
1, 100954, Note_on_c, 0, 68, 66
1, 100957, Note_on_c, 0, 64, 46
1, 100957, Note_on_c, 0, 35, 43
1, 100963, Note_off_c, 0, 69, 0
1, 100966, Control_c, 0, 64, 127
1, 101041, Control_c, 0, 64, 0
1, 101111, Note_off_c, 0, 64, 0
1, 101111, Note_on_c, 0, 59, 42
1, 101132, Control_c, 0, 64, 127
1, 101271, Note_off_c, 0, 59, 0
1, 101271, Note_on_c, 0, 63, 38
1, 101271, Note_on_c, 0, 66, 60
1, 101274, Note_off_c, 0, 35, 0
1, 101282, Note_off_c, 0, 68, 0
1, 101330, Control_c, 0, 64, 0
1, 101404, Note_off_c, 0, 63, 0
1, 101404, Note_on_c, 0, 59, 34
1, 101418, Control_c, 0, 64, 127
1, 101536, Note_off_c, 0, 59, 0
1, 101536, Note_on_c, 0, 63, 34
1, 101536, Note_off_c, 0, 66, 0
1, 101539, Note_on_c, 0, 66, 60
1, 101661, Note_off_c, 0, 63, 0
1, 101661, Note_on_c, 0, 59, 38
1, 101785, Note_off_c, 0, 59, 0
1, 101785, Note_on_c, 0, 64, 42
1, 101785, Note_on_c, 0, 68, 62
1, 101795, Note_off_c, 0, 66, 0
1, 101823, Control_c, 0, 64, 0
1, 101910, Note_off_c, 0, 64, 0
1, 101910, Note_on_c, 0, 59, 40
1, 101929, Control_c, 0, 64, 127
1, 102035, Control_c, 0, 64, 0
1, 102035, Control_c, 0, 64, 0
1, 102035, Control_c, 0, 64, 127
1, 102038, Control_c, 0, 64, 0
1, 102038, Note_off_c, 0, 59, 0
1, 102038, Note_on_c, 0, 69, 66
1, 102041, Note_on_c, 0, 64, 38
1, 102041, Note_on_c, 0, 37, 42
1, 102046, Note_off_c, 0, 68, 0
1, 102088, Control_c, 0, 64, 0
1, 102154, Control_c, 0, 64, 127
1, 102175, Note_off_c, 0, 64, 0
1, 102175, Note_on_c, 0, 59, 40
1, 102316, Note_off_c, 0, 59, 0
1, 102316, Note_on_c, 0, 64, 42
1, 102316, Note_on_c, 0, 73, 69
1, 102327, Note_off_c, 0, 69, 0
1, 102327, Note_off_c, 0, 37, 0
1, 102456, Note_off_c, 0, 64, 0
1, 102456, Note_on_c, 0, 59, 43
1, 102564, Control_c, 0, 64, 0
1, 102597, Note_off_c, 0, 59, 0
1, 102597, Note_on_c, 0, 66, 46
1, 102597, Note_on_c, 0, 71, 66
1, 102600, Note_on_c, 0, 39, 46
1, 102607, Note_off_c, 0, 73, 0
1, 102665, Control_c, 0, 64, 127
1, 102729, Note_off_c, 0, 66, 0
1, 102729, Note_on_c, 0, 59, 42
1, 102861, Note_off_c, 0, 59, 0
1, 102861, Note_on_c, 0, 63, 38
1, 102861, Note_on_c, 0, 66, 60
1, 102864, Note_on_c, 0, 35, 42
1, 102871, Note_off_c, 0, 71, 0
1, 102871, Note_off_c, 0, 39, 0
1, 102922, Control_c, 0, 64, 0
1, 102986, Note_off_c, 0, 63, 0
1, 102986, Note_on_c, 0, 59, 34
1, 103025, Control_c, 0, 64, 127
1, 103146, Control_c, 0, 64, 0
1, 103146, Control_c, 0, 64, 0
1, 103146, Control_c, 0, 64, 127
1, 103149, Control_c, 0, 64, 0
1, 103149, Note_off_c, 0, 59, 0
1, 103149, Note_on_c, 0, 59, 32
1, 103152, Note_on_c, 0, 64, 32
1, 103152, Note_on_c, 0, 68, 52
1, 103152, Note_on_c, 0, 40, 42
1, 103159, Note_off_c, 0, 66, 0
1, 103159, Note_off_c, 0, 35, 0
1, 103252, Control_c, 0, 64, 0
1, 103403, Control_c, 0, 64, 127
1, 103467, Note_off_c, 0, 59, 0
1, 103467, Note_off_c, 0, 64, 0
1, 103467, Note_off_c, 0, 68, 0
1, 103470, Note_on_c, 0, 64, 51
1, 103477, Note_off_c, 0, 40, 0
1, 103599, Note_on_c, 0, 59, 49
1, 103609, Note_off_c, 0, 64, 0
1, 103665, Note_on_c, 0, 78, 48
1, 103725, Control_c, 0, 64, 0
1, 103731, Note_off_c, 0, 78, 0
1, 103731, Note_on_c, 0, 76, 58
1, 103731, Note_on_c, 0, 64, 47
1, 103742, Note_off_c, 0, 59, 0
1, 103872, Note_on_c, 0, 75, 58
1, 103872, Note_on_c, 0, 59, 46
1, 103881, Note_off_c, 0, 76, 0
1, 103881, Note_off_c, 0, 64, 0
1, 103905, Control_c, 0, 64, 127
1, 103996, Note_on_c, 0, 76, 58
1, 103996, Note_on_c, 0, 64, 43
1, 104006, Note_off_c, 0, 75, 0
1, 104006, Note_off_c, 0, 59, 0
1, 104121, Note_on_c, 0, 78, 62
1, 104121, Note_on_c, 0, 59, 41
1, 104131, Note_off_c, 0, 76, 0
1, 104131, Note_off_c, 0, 64, 0
1, 104184, Note_on_c, 0, 81, 48
1, 104199, Control_c, 0, 64, 0
1, 104246, Control_c, 0, 64, 0
1, 104246, Control_c, 0, 64, 0
1, 104246, Control_c, 0, 64, 0
1, 104249, Control_c, 0, 64, 0
1, 104249, Control_c, 0, 64, 0
1, 104249, Note_off_c, 0, 81, 0
1, 104252, Note_on_c, 0, 80, 60
1, 104252, Note_on_c, 0, 64, 49
1, 104256, Note_off_c, 0, 78, 0
1, 104256, Note_off_c, 0, 59, 0
1, 104364, Control_c, 0, 64, 127
1, 104371, Note_on_c, 0, 78, 64
1, 104371, Note_on_c, 0, 59, 42
1, 104381, Note_off_c, 0, 80, 0
1, 104381, Note_off_c, 0, 64, 0
1, 104496, Note_on_c, 0, 80, 67
1, 104496, Note_on_c, 0, 64, 42
1, 104505, Note_off_c, 0, 78, 0
1, 104505, Note_off_c, 0, 59, 0
1, 104620, Note_on_c, 0, 81, 70
1, 104620, Note_on_c, 0, 59, 43
1, 104634, Note_off_c, 0, 80, 0
1, 104634, Note_off_c, 0, 64, 0
1, 104769, Control_c, 0, 64, 0
1, 104793, Note_on_c, 0, 71, 51
1, 104793, Note_on_c, 0, 83, 75
1, 104793, Note_on_c, 0, 68, 49
1, 104804, Note_off_c, 0, 81, 0
1, 104804, Note_off_c, 0, 59, 0
1, 104934, Note_on_c, 0, 59, 43
1, 104945, Note_off_c, 0, 68, 0
1, 104945, Control_c, 0, 64, 127
1, 105074, Note_on_c, 0, 69, 52
1, 105074, Note_on_c, 0, 81, 70
1, 105074, Note_on_c, 0, 66, 49
1, 105084, Note_off_c, 0, 71, 0
1, 105084, Note_off_c, 0, 83, 0
1, 105084, Note_off_c, 0, 59, 0
1, 105114, Control_c, 0, 64, 0
1, 105206, Note_on_c, 0, 59, 45
1, 105217, Note_off_c, 0, 66, 0
1, 105251, Control_c, 0, 64, 127
1, 105338, Control_c, 0, 64, 0
1, 105338, Control_c, 0, 64, 0
1, 105338, Control_c, 0, 64, 0
1, 105341, Control_c, 0, 64, 0
1, 105341, Control_c, 0, 64, 0
1, 105341, Note_on_c, 0, 68, 56
1, 105344, Note_on_c, 0, 80, 74
1, 105344, Note_on_c, 0, 64, 51
1, 105352, Note_off_c, 0, 69, 0
1, 105352, Note_off_c, 0, 81, 0
1, 105352, Note_off_c, 0, 59, 0
1, 105355, Control_c, 0, 64, 127
1, 105436, Control_c, 0, 64, 0
1, 105511, Note_on_c, 0, 59, 45
1, 105521, Note_off_c, 0, 64, 0
1, 105527, Control_c, 0, 64, 127
1, 105636, Note_on_c, 0, 66, 48
1, 105636, Note_on_c, 0, 78, 66
1, 105636, Note_on_c, 0, 63, 50
1, 105646, Note_off_c, 0, 68, 0
1, 105646, Note_off_c, 0, 80, 0
1, 105646, Note_off_c, 0, 59, 0
1, 105695, Control_c, 0, 64, 0
1, 105768, Note_on_c, 0, 59, 45
1, 105778, Note_off_c, 0, 63, 0
1, 105781, Control_c, 0, 64, 127
1, 105893, Note_off_c, 0, 66, 0
1, 105893, Note_off_c, 0, 78, 0
1, 105893, Note_on_c, 0, 66, 52
1, 105896, Note_on_c, 0, 78, 70
1, 105896, Note_on_c, 0, 63, 52
1, 105903, Note_off_c, 0, 59, 0
1, 106018, Note_on_c, 0, 59, 45
1, 106027, Note_off_c, 0, 63, 0
1, 106142, Note_on_c, 0, 68, 55
1, 106142, Note_on_c, 0, 80, 73
1, 106142, Note_on_c, 0, 65, 52
1, 106152, Note_off_c, 0, 66, 0
1, 106152, Note_off_c, 0, 78, 0
1, 106152, Note_off_c, 0, 59, 0
1, 106181, Control_c, 0, 64, 0
1, 106267, Note_on_c, 0, 59, 46
1, 106277, Note_off_c, 0, 65, 0
1, 106286, Control_c, 0, 64, 127
1, 106392, Control_c, 0, 64, 0
1, 106392, Control_c, 0, 64, 0
1, 106392, Control_c, 0, 64, 127
1, 106395, Control_c, 0, 64, 0
1, 106395, Control_c, 0, 64, 0
1, 106395, Note_on_c, 0, 69, 61
1, 106398, Note_on_c, 0, 81, 79
1, 106398, Note_on_c, 0, 66, 58
1, 106402, Note_off_c, 0, 68, 0
1, 106402, Note_off_c, 0, 80, 0
1, 106402, Note_off_c, 0, 59, 0
1, 106442, Control_c, 0, 64, 0
1, 106504, Control_c, 0, 64, 127
1, 106524, Note_on_c, 0, 59, 46
1, 106535, Note_off_c, 0, 66, 0
1, 106656, Note_on_c, 0, 73, 65
1, 106656, Note_on_c, 0, 85, 86
1, 106656, Note_on_c, 0, 69, 61
1, 106667, Note_off_c, 0, 69, 0
1, 106667, Note_off_c, 0, 81, 0
1, 106667, Note_off_c, 0, 59, 0
1, 106789, Note_on_c, 0, 59, 47
1, 106799, Note_off_c, 0, 69, 0
1, 106890, Control_c, 0, 64, 0
1, 106921, Note_on_c, 0, 71, 65
1, 106921, Note_on_c, 0, 83, 86
1, 106921, Note_on_c, 0, 68, 64
1, 106931, Note_off_c, 0, 73, 0
1, 106931, Note_off_c, 0, 85, 0
1, 106931, Note_off_c, 0, 59, 0
1, 106961, Control_c, 0, 64, 0
1, 107053, Note_on_c, 0, 59, 47
1, 107063, Note_off_c, 0, 68, 0
1, 107082, Note_off_c, 0, 71, 0
1, 107082, Note_off_c, 0, 83, 0
1, 107185, Note_on_c, 0, 75, 69
1, 107185, Note_on_c, 0, 81, 69
1, 107185, Note_on_c, 0, 87, 94
1, 107188, Note_on_c, 0, 66, 67
1, 107196, Note_off_c, 0, 59, 0
1, 107258, Note_off_c, 0, 75, 0
1, 107258, Note_off_c, 0, 81, 0
1, 107258, Note_off_c, 0, 87, 0
1, 107325, Note_on_c, 0, 59, 48
1, 107336, Note_off_c, 0, 66, 0
1, 107466, Control_c, 0, 64, 0
1, 107466, Control_c, 0, 64, 0
1, 107466, Note_on_c, 0, 76, 80
1, 107469, Note_on_c, 0, 80, 80
1, 107469, Note_on_c, 0, 88, 80
1, 107469, Note_on_c, 0, 64, 58
1, 107477, Note_off_c, 0, 59, 0
1, 107606, Note_off_c, 0, 64, 0
1, 107606, Note_on_c, 0, 59, 56
1, 107622, Control_c, 0, 64, 127
1, 107731, Note_off_c, 0, 59, 0
1, 107731, Note_on_c, 0, 56, 55
1, 107856, Note_off_c, 0, 56, 0
1, 107856, Note_on_c, 0, 59, 52
1, 107981, Note_off_c, 0, 76, 0
1, 107981, Note_off_c, 0, 80, 0
1, 107981, Note_off_c, 0, 88, 0
1, 107984, Note_off_c, 0, 59, 0
1, 107984, Note_on_c, 0, 52, 51
1, 107984, Control_c, 0, 64, 0
1, 108105, Note_off_c, 0, 52, 0
1, 108105, Note_on_c, 0, 59, 49
1, 108139, Control_c, 0, 64, 127
1, 108230, Note_on_c, 0, 64, 46
1, 108230, Note_on_c, 0, 68, 61
1, 108230, Note_off_c, 0, 59, 0
1, 108233, Note_on_c, 0, 47, 47
1, 108355, Note_off_c, 0, 47, 0
1, 108355, Note_on_c, 0, 59, 36
1, 108480, Control_c, 0, 64, 0
1, 108480, Control_c, 0, 64, 127
1, 108480, Control_c, 0, 64, 0
1, 108483, Control_c, 0, 64, 0
1, 108483, Control_c, 0, 64, 0
1, 108483, Note_off_c, 0, 59, 0
1, 108486, Note_on_c, 0, 63, 47
1, 108486, Note_on_c, 0, 69, 67
1, 108486, Note_on_c, 0, 54, 41
1, 108491, Note_off_c, 0, 64, 0
1, 108491, Note_off_c, 0, 68, 0
1, 108532, Control_c, 0, 64, 0
1, 108599, Control_c, 0, 64, 127
1, 108620, Note_on_c, 0, 59, 32
1, 108761, Note_on_c, 0, 73, 65
1, 108761, Note_off_c, 0, 54, 0
1, 108761, Note_off_c, 0, 59, 0
1, 108764, Note_on_c, 0, 57, 32
1, 108770, Note_off_c, 0, 69, 0
1, 108885, Note_on_c, 0, 59, 32
1, 108981, Control_c, 0, 64, 0
1, 109010, Note_on_c, 0, 64, 50
1, 109010, Note_on_c, 0, 71, 67
1, 109010, Note_off_c, 0, 57, 0
1, 109013, Note_off_c, 0, 59, 0
1, 109013, Note_on_c, 0, 56, 41
1, 109020, Note_off_c, 0, 63, 0
1, 109020, Note_off_c, 0, 73, 0
1, 109051, Control_c, 0, 64, 0
1, 109142, Note_on_c, 0, 59, 32
1, 109171, Note_off_c, 0, 64, 0
1, 109171, Note_off_c, 0, 71, 0
1, 109274, Note_on_c, 0, 69, 51
1, 109274, Note_on_c, 0, 75, 68
1, 109274, Note_off_c, 0, 56, 0
1, 109277, Note_off_c, 0, 59, 0
1, 109277, Note_on_c, 0, 54, 41
1, 109347, Note_off_c, 0, 69, 0
1, 109347, Note_off_c, 0, 75, 0
1, 109415, Note_off_c, 0, 54, 0
1, 109415, Note_on_c, 0, 59, 32
1, 109555, Control_c, 0, 64, 0
1, 109555, Control_c, 0, 64, 0
1, 109555, Note_off_c, 0, 59, 0
1, 109558, Note_on_c, 0, 68, 52
1, 109558, Note_on_c, 0, 76, 70
1, 109558, Note_on_c, 0, 52, 41
1, 109705, Note_on_c, 0, 59, 32
1, 109855, Note_on_c, 0, 67, 58
1, 109855, Note_off_c, 0, 59, 0
1, 109855, Note_on_c, 0, 64, 32
1, 109864, Note_off_c, 0, 68, 0
1, 109946, Control_c, 0, 64, 127
1, 109980, Note_off_c, 0, 64, 0
1, 109980, Note_on_c, 0, 59, 32
1, 110104, Note_off_c, 0, 52, 0
1, 110104, Note_off_c, 0, 59, 0
1, 110104, Note_on_c, 0, 64, 32
1, 110229, Note_off_c, 0, 64, 0
1, 110229, Note_on_c, 0, 59, 32
1, 110354, Note_off_c, 0, 67, 0
1, 110354, Note_off_c, 0, 76, 0
1, 110354, Note_on_c, 0, 79, 70
1, 110357, Note_off_c, 0, 59, 0
1, 110357, Note_on_c, 0, 64, 51
1, 110479, Note_on_c, 0, 59, 42
1, 110604, Control_c, 0, 64, 0
1, 110604, Control_c, 0, 64, 127
1, 110604, Control_c, 0, 64, 0
1, 110607, Control_c, 0, 64, 0
1, 110607, Control_c, 0, 64, 0
1, 110607, Control_c, 0, 64, 0
1, 110610, Note_off_c, 0, 59, 0
1, 110610, Note_off_c, 0, 64, 0
1, 110610, Note_on_c, 0, 81, 76
1, 110613, Note_on_c, 0, 66, 51
1, 110613, Note_off_c, 0, 79, 0
1, 110650, Control_c, 0, 64, 0
1, 110709, Control_c, 0, 64, 127
1, 110728, Note_on_c, 0, 59, 43
1, 110853, Note_on_c, 0, 84, 83
1, 110853, Note_off_c, 0, 59, 0
1, 110853, Note_off_c, 0, 66, 0
1, 110856, Note_on_c, 0, 69, 53
1, 110863, Note_off_c, 0, 81, 0
1, 110978, Note_on_c, 0, 59, 46
1, 111073, Control_c, 0, 64, 0
1, 111103, Note_on_c, 0, 83, 87
1, 111103, Note_off_c, 0, 59, 0
1, 111103, Note_off_c, 0, 69, 0
1, 111106, Note_on_c, 0, 67, 56
1, 111113, Note_off_c, 0, 84, 0
1, 111144, Control_c, 0, 64, 0
1, 111235, Note_on_c, 0, 59, 47
1, 111264, Note_off_c, 0, 83, 0
1, 111367, Note_on_c, 0, 75, 69
1, 111367, Note_on_c, 0, 81, 69
1, 111367, Note_on_c, 0, 87, 94
1, 111370, Note_off_c, 0, 59, 0
1, 111370, Note_off_c, 0, 67, 0
1, 111370, Note_on_c, 0, 66, 58
1, 111440, Note_off_c, 0, 75, 0
1, 111440, Note_off_c, 0, 81, 0
1, 111440, Note_off_c, 0, 87, 0
1, 111507, Note_on_c, 0, 59, 49
1, 111648, Control_c, 0, 64, 0
1, 111648, Control_c, 0, 64, 0
1, 111648, Control_c, 0, 64, 0
1, 111651, Note_off_c, 0, 59, 0
1, 111651, Note_off_c, 0, 66, 0
1, 111651, Note_on_c, 0, 76, 76
1, 111654, Note_on_c, 0, 79, 76
1, 111654, Note_on_c, 0, 88, 94
1, 111654, Note_on_c, 0, 64, 58
1, 111788, Note_off_c, 0, 64, 0
1, 111788, Note_on_c, 0, 59, 56
1, 111804, Control_c, 0, 64, 127
1, 111913, Note_off_c, 0, 59, 0
1, 111913, Note_on_c, 0, 55, 55
1, 112038, Note_off_c, 0, 55, 0
1, 112038, Note_on_c, 0, 59, 52
1, 112163, Note_off_c, 0, 76, 0
1, 112163, Note_off_c, 0, 79, 0
1, 112163, Note_off_c, 0, 88, 0
1, 112166, Note_off_c, 0, 59, 0
1, 112166, Note_on_c, 0, 52, 51
1, 112166, Control_c, 0, 64, 0
1, 112287, Note_off_c, 0, 52, 0
1, 112287, Note_on_c, 0, 59, 49
1, 112321, Control_c, 0, 64, 127
1, 112412, Note_on_c, 0, 67, 65
1, 112412, Note_off_c, 0, 59, 0
1, 112412, Note_on_c, 0, 47, 57
1, 112537, Note_off_c, 0, 47, 0
1, 112537, Note_on_c, 0, 59, 46
1, 112662, Control_c, 0, 64, 0
1, 112662, Control_c, 0, 64, 127
1, 112662, Control_c, 0, 64, 0
1, 112665, Control_c, 0, 64, 0
1, 112665, Control_c, 0, 64, 0
1, 112665, Control_c, 0, 64, 0
1, 112668, Note_off_c, 0, 67, 0
1, 112668, Note_off_c, 0, 59, 0
1, 112668, Note_on_c, 0, 69, 64
1, 112671, Note_on_c, 0, 54, 51
1, 112714, Control_c, 0, 64, 0
1, 112781, Control_c, 0, 64, 127
1, 112802, Note_on_c, 0, 59, 42
1, 112943, Note_off_c, 0, 69, 0
1, 112943, Note_on_c, 0, 72, 67
1, 112943, Note_off_c, 0, 54, 0
1, 112946, Note_off_c, 0, 59, 0
1, 112946, Note_on_c, 0, 57, 42
1, 113067, Note_on_c, 0, 59, 42
1, 113163, Control_c, 0, 64, 0
1, 113192, Note_on_c, 0, 71, 70
1, 113192, Note_off_c, 0, 57, 0
1, 113192, Note_off_c, 0, 59, 0
1, 113195, Note_on_c, 0, 55, 51
1, 113202, Note_off_c, 0, 72, 0
1, 113231, Control_c, 0, 64, 0
1, 113317, Note_on_c, 0, 59, 42
1, 113344, Note_off_c, 0, 71, 0
1, 113442, Note_on_c, 0, 69, 56
1, 113442, Note_on_c, 0, 75, 73
1, 113442, Note_off_c, 0, 55, 0
1, 113445, Note_off_c, 0, 59, 0
1, 113445, Note_on_c, 0, 54, 51
1, 113507, Note_off_c, 0, 69, 0
1, 113507, Note_off_c, 0, 75, 0
1, 113567, Note_off_c, 0, 54, 0
1, 113567, Note_on_c, 0, 59, 42
1, 113691, Control_c, 0, 64, 0
1, 113691, Control_c, 0, 64, 127
1, 113691, Note_off_c, 0, 59, 0
1, 113694, Note_on_c, 0, 67, 60
1, 113694, Note_on_c, 0, 76, 76
1, 113694, Note_on_c, 0, 52, 48
1, 113779, Control_c, 0, 64, 0
1, 113824, Note_off_c, 0, 52, 0
1, 113824, Note_on_c, 0, 64, 49
1, 113865, Control_c, 0, 64, 127
1, 113956, Note_off_c, 0, 67, 0
1, 113956, Note_off_c, 0, 76, 0
1, 113956, Note_on_c, 0, 76, 61
1, 113959, Note_on_c, 0, 79, 77
1, 113959, Note_off_c, 0, 64, 0
1, 113959, Note_on_c, 0, 50, 51
1, 114080, Note_off_c, 0, 50, 0
1, 114080, Note_on_c, 0, 62, 52
1, 114199, Control_c, 0, 64, 0
1, 114205, Note_off_c, 0, 76, 0
1, 114205, Note_off_c, 0, 79, 0
1, 114205, Note_on_c, 0, 76, 64
1, 114208, Note_on_c, 0, 84, 79
1, 114208, Note_off_c, 0, 62, 0
1, 114208, Note_on_c, 0, 48, 55
1, 114324, Note_off_c, 0, 48, 0
1, 114324, Note_on_c, 0, 60, 56
1, 114344, Control_c, 0, 64, 127
1, 114442, Note_off_c, 0, 76, 0
1, 114442, Note_off_c, 0, 84, 0
1, 114442, Note_on_c, 0, 76, 65
1, 114445, Note_on_c, 0, 84, 80
1, 114445, Note_off_c, 0, 60, 0
1, 114445, Note_on_c, 0, 47, 58
1, 114560, Note_off_c, 0, 47, 0
1, 114560, Note_on_c, 0, 59, 59
1, 114678, Control_c, 0, 64, 0
1, 114678, Control_c, 0, 64, 127
1, 114678, Control_c, 0, 64, 0
1, 114681, Note_off_c, 0, 76, 0
1, 114681, Note_off_c, 0, 84, 0
1, 114681, Note_off_c, 0, 59, 0
1, 114684, Note_on_c, 0, 76, 66
1, 114684, Note_on_c, 0, 84, 81
1, 114684, Note_on_c, 0, 45, 61
1, 114765, Control_c, 0, 64, 0
1, 114810, Note_off_c, 0, 45, 0
1, 114810, Note_on_c, 0, 57, 62
1, 114852, Control_c, 0, 64, 127
1, 114942, Note_off_c, 0, 76, 0
1, 114942, Note_off_c, 0, 84, 0
1, 114942, Note_on_c, 0, 81, 69
1, 114945, Note_on_c, 0, 84, 85
1, 114945, Note_off_c, 0, 57, 0
1, 114945, Note_on_c, 0, 43, 65
1, 115067, Note_off_c, 0, 43, 0
1, 115067, Note_on_c, 0, 55, 66
1, 115186, Control_c, 0, 64, 0
1, 115192, Note_off_c, 0, 81, 0
1, 115192, Note_off_c, 0, 84, 0
1, 115192, Note_on_c, 0, 86, 73
1, 115195, Note_on_c, 0, 89, 88
1, 115195, Note_off_c, 0, 55, 0
1, 115195, Note_on_c, 0, 41, 68
1, 115310, Note_off_c, 0, 41, 0
1, 115310, Note_on_c, 0, 53, 69
1, 115331, Control_c, 0, 64, 127
1, 115429, Note_off_c, 0, 86, 0
1, 115429, Note_off_c, 0, 89, 0
1, 115429, Note_on_c, 0, 86, 75
1, 115432, Note_on_c, 0, 89, 93
1, 115432, Note_off_c, 0, 53, 0
1, 115432, Note_on_c, 0, 40, 73
1, 115547, Note_off_c, 0, 40, 0
1, 115547, Note_on_c, 0, 52, 73
1, 115665, Control_c, 0, 64, 0
1, 115665, Control_c, 0, 64, 127
1, 115665, Control_c, 0, 64, 0
1, 115668, Note_off_c, 0, 86, 0
1, 115668, Note_off_c, 0, 89, 0
1, 115668, Note_off_c, 0, 52, 0
1, 115671, Note_on_c, 0, 86, 78
1, 115671, Note_on_c, 0, 89, 95
1, 115671, Note_on_c, 0, 38, 77
1, 115752, Control_c, 0, 64, 0
1, 115797, Note_off_c, 0, 38, 0
1, 115797, Note_on_c, 0, 50, 76
1, 115839, Control_c, 0, 64, 127
1, 115929, Note_off_c, 0, 86, 0
1, 115929, Note_off_c, 0, 89, 0
1, 115929, Note_on_c, 0, 86, 80
1, 115932, Note_on_c, 0, 89, 98
1, 115932, Note_off_c, 0, 50, 0
1, 115932, Note_on_c, 0, 36, 83
1, 116054, Note_off_c, 0, 36, 0
1, 116054, Note_on_c, 0, 48, 79
1, 116173, Control_c, 0, 64, 0
1, 116179, Note_off_c, 0, 86, 0
1, 116179, Note_off_c, 0, 89, 0
1, 116179, Note_on_c, 0, 86, 85
1, 116182, Note_on_c, 0, 89, 103
1, 116182, Note_off_c, 0, 48, 0
1, 116182, Note_on_c, 0, 35, 89
1, 116304, Note_off_c, 0, 35, 0
1, 116304, Note_on_c, 0, 47, 83
1, 116326, Control_c, 0, 64, 127
1, 116429, Note_off_c, 0, 86, 0
1, 116429, Note_off_c, 0, 89, 0
1, 116429, Note_on_c, 0, 86, 88
1, 116432, Note_on_c, 0, 89, 106
1, 116432, Note_off_c, 0, 47, 0
1, 116432, Note_on_c, 0, 33, 95
1, 116561, Note_off_c, 0, 33, 0
1, 116561, Note_on_c, 0, 45, 86
1, 116710, Control_c, 0, 64, 0
1, 116710, Control_c, 0, 64, 127
1, 116710, Control_c, 0, 64, 0
1, 116713, Note_off_c, 0, 86, 0
1, 116713, Note_off_c, 0, 89, 0
1, 116713, Note_off_c, 0, 45, 0
1, 116716, Note_on_c, 0, 86, 90
1, 116716, Note_on_c, 0, 89, 110
1, 116716, Note_on_c, 0, 31, 95
1, 116824, Control_c, 0, 64, 0
1, 116883, Note_off_c, 0, 31, 0
1, 116883, Note_on_c, 0, 43, 93
1, 116925, Control_c, 0, 64, 127
1, 117015, Note_off_c, 0, 43, 0
1, 117015, Note_on_c, 0, 35, 90
1, 117140, Note_off_c, 0, 35, 0
1, 117140, Note_on_c, 0, 47, 88
1, 117259, Control_c, 0, 64, 0
1, 117265, Note_off_c, 0, 47, 0
1, 117265, Note_on_c, 0, 38, 86
1, 117390, Note_off_c, 0, 38, 0
1, 117390, Note_on_c, 0, 50, 84
1, 117412, Control_c, 0, 64, 127
1, 117515, Note_off_c, 0, 50, 0
1, 117515, Note_on_c, 0, 42, 83
1, 117639, Note_off_c, 0, 42, 0
1, 117639, Note_on_c, 0, 54, 80
1, 117764, Control_c, 0, 64, 0
1, 117764, Control_c, 0, 64, 127
1, 117764, Control_c, 0, 64, 0
1, 117767, Note_off_c, 0, 54, 0
1, 117767, Note_on_c, 0, 43, 78
1, 117847, Control_c, 0, 64, 0
1, 117889, Note_off_c, 0, 43, 0
1, 117889, Note_on_c, 0, 55, 76
1, 117928, Control_c, 0, 64, 127
1, 118014, Note_off_c, 0, 55, 0
1, 118014, Note_on_c, 0, 47, 74
1, 118139, Note_off_c, 0, 47, 0
1, 118139, Note_on_c, 0, 59, 71
1, 118257, Control_c, 0, 64, 0
1, 118263, Note_off_c, 0, 59, 0
1, 118263, Note_on_c, 0, 50, 69
1, 118388, Note_off_c, 0, 50, 0
1, 118388, Note_on_c, 0, 62, 67
1, 118410, Control_c, 0, 64, 127
1, 118513, Note_off_c, 0, 62, 0
1, 118513, Note_on_c, 0, 54, 65
1, 118638, Note_off_c, 0, 54, 0
1, 118638, Note_on_c, 0, 66, 62
1, 118763, Control_c, 0, 64, 0
1, 118763, Control_c, 0, 64, 127
1, 118763, Control_c, 0, 64, 0
1, 118766, Note_off_c, 0, 66, 0
1, 118766, Note_on_c, 0, 55, 60
1, 118861, Control_c, 0, 64, 0
1, 118912, Note_off_c, 0, 55, 0
1, 118912, Note_on_c, 0, 67, 58
1, 118954, Control_c, 0, 64, 127
1, 119044, Note_off_c, 0, 86, 0
1, 119044, Note_off_c, 0, 89, 0
1, 119044, Note_on_c, 0, 86, 67
1, 119047, Note_on_c, 0, 89, 80
1, 119047, Note_off_c, 0, 67, 0
1, 119047, Note_on_c, 0, 57, 57
1, 119169, Note_off_c, 0, 57, 0
1, 119169, Note_on_c, 0, 69, 55
1, 119288, Control_c, 0, 64, 0
1, 119294, Note_off_c, 0, 69, 0
1, 119294, Note_on_c, 0, 59, 52
1, 119419, Note_off_c, 0, 59, 0
1, 119419, Note_on_c, 0, 71, 50
1, 119441, Control_c, 0, 64, 127
1, 119544, Note_off_c, 0, 86, 0
1, 119544, Note_off_c, 0, 89, 0
1, 119544, Note_on_c, 0, 84, 57
1, 119547, Note_on_c, 0, 88, 70
1, 119547, Note_off_c, 0, 71, 0
1, 119547, Note_on_c, 0, 60, 48
1, 119676, Note_off_c, 0, 60, 0
1, 119676, Note_on_c, 0, 72, 46
1, 119808, Control_c, 0, 64, 0
1, 119808, Control_c, 0, 64, 127
1, 119808, Control_c, 0, 64, 0
1, 119811, Note_off_c, 0, 84, 0
1, 119811, Note_off_c, 0, 88, 0
1, 119811, Note_off_c, 0, 72, 0
1, 119814, Note_on_c, 0, 86, 73
1, 119814, Note_on_c, 0, 65, 46
1, 119901, Control_c, 0, 64, 0
1, 119948, Note_off_c, 0, 65, 0
1, 119948, Note_on_c, 0, 72, 43
1, 119993, Control_c, 0, 64, 127
1, 120089, Note_off_c, 0, 86, 0
1, 120089, Note_on_c, 0, 74, 51
1, 120089, Note_on_c, 0, 81, 65
1, 120092, Note_off_c, 0, 72, 0
1, 120092, Note_on_c, 0, 66, 42
1, 120221, Note_off_c, 0, 66, 0
1, 120221, Note_on_c, 0, 72, 40
1, 120347, Control_c, 0, 64, 0
1, 120353, Note_off_c, 0, 74, 0
1, 120353, Note_off_c, 0, 81, 0
1, 120353, Note_on_c, 0, 76, 49
1, 120356, Note_on_c, 0, 79, 66
1, 120356, Note_off_c, 0, 72, 0
1, 120356, Note_on_c, 0, 67, 39
1, 120493, Note_off_c, 0, 67, 0
1, 120493, Note_on_c, 0, 72, 28
1, 120520, Control_c, 0, 64, 127
1, 120627, Control_c, 0, 64, 0
1, 120643, Note_off_c, 0, 76, 0
1, 120643, Note_off_c, 0, 79, 0
1, 120643, Note_on_c, 0, 71, 38
1, 120646, Note_on_c, 0, 74, 38
1, 120646, Note_on_c, 0, 79, 59
1, 120646, Note_off_c, 0, 72, 0
1, 120649, Note_on_c, 0, 55, 29
1, 120803, Control_c, 0, 64, 127
1, 120830, Note_off_c, 0, 71, 0
1, 120830, Note_off_c, 0, 74, 0
1, 120830, Note_off_c, 0, 79, 0
1, 120833, Note_on_c, 0, 67, 31
1, 121035, Control_c, 0, 64, 0
1, 121035, Control_c, 0, 64, 0
1, 121035, Control_c, 0, 64, 127
1, 121038, Control_c, 0, 64, 0
1, 121038, Note_off_c, 0, 67, 0
1, 121038, Note_off_c, 0, 55, 0
1, 121041, Note_on_c, 0, 67, 40
1, 121041, Note_on_c, 0, 76, 40
1, 121041, Note_on_c, 0, 79, 69
1, 121044, Note_on_c, 0, 48, 29
1, 121169, Control_c, 0, 64, 0
1, 121307, Note_on_c, 0, 55, 31
1, 121340, Control_c, 0, 64, 127
1, 121473, Note_off_c, 0, 48, 0
1, 121473, Note_off_c, 0, 55, 0
1, 121473, Note_on_c, 0, 52, 30
1, 121640, Note_off_c, 0, 52, 0
1, 121640, Note_on_c, 0, 48, 37
1, 121797, Note_on_c, 0, 60, 29
1, 121955, Note_off_c, 0, 48, 0
1, 121955, Note_off_c, 0, 60, 0
1, 121955, Note_on_c, 0, 55, 29
1, 122113, Control_c, 0, 64, 0
1, 122113, Control_c, 0, 64, 0
1, 122113, Control_c, 0, 64, 127
1, 122116, Control_c, 0, 64, 0
1, 122116, Control_c, 0, 64, 0
1, 122116, Note_off_c, 0, 55, 0
1, 122119, Note_on_c, 0, 65, 42
1, 122119, Note_on_c, 0, 74, 42
1, 122119, Note_on_c, 0, 77, 69
1, 122122, Note_on_c, 0, 50, 48
1, 122122, Note_off_c, 0, 67, 0
1, 122122, Note_off_c, 0, 76, 0
1, 122122, Note_off_c, 0, 79, 0
1, 122211, Control_c, 0, 64, 0
1, 122312, Note_on_c, 0, 59, 28
1, 122344, Control_c, 0, 64, 127
1, 122470, Note_off_c, 0, 50, 0
1, 122470, Note_off_c, 0, 59, 0
1, 122470, Note_on_c, 0, 55, 27
1, 122627, Note_on_c, 0, 67, 42
1, 122627, Note_on_c, 0, 72, 42
1, 122627, Note_on_c, 0, 76, 69
1, 122630, Note_off_c, 0, 55, 0
1, 122630, Note_on_c, 0, 52, 49
1, 122633, Control_c, 0, 64, 0
1, 122637, Note_off_c, 0, 65, 0
1, 122637, Note_off_c, 0, 74, 0
1, 122637, Note_off_c, 0, 77, 0
1, 122744, Control_c, 0, 64, 127
1, 122785, Note_on_c, 0, 60, 39
1, 122943, Note_off_c, 0, 52, 0
1, 122943, Note_off_c, 0, 60, 0
1, 122943, Note_on_c, 0, 55, 39
1, 123100, Control_c, 0, 64, 0
1, 123100, Control_c, 0, 64, 0
1, 123100, Control_c, 0, 64, 127
1, 123103, Control_c, 0, 64, 0
1, 123103, Control_c, 0, 64, 0
1, 123103, Control_c, 0, 64, 0
1, 123106, Note_off_c, 0, 55, 0
1, 123106, Note_on_c, 0, 69, 48
1, 123106, Note_on_c, 0, 74, 70
1, 123109, Note_on_c, 0, 53, 50
1, 123109, Note_off_c, 0, 67, 0
1, 123109, Note_off_c, 0, 72, 0
1, 123109, Note_off_c, 0, 76, 0
1, 123178, Control_c, 0, 64, 0
1, 123258, Note_on_c, 0, 62, 41
1, 123290, Control_c, 0, 64, 127
1, 123416, Note_off_c, 0, 53, 0
1, 123416, Note_off_c, 0, 62, 0
1, 123416, Note_on_c, 0, 57, 41
1, 123573, Note_off_c, 0, 69, 0
1, 123573, Note_on_c, 0, 69, 55
1, 123573, Note_on_c, 0, 72, 73
1, 123576, Note_off_c, 0, 57, 0
1, 123576, Note_on_c, 0, 54, 53
1, 123579, Control_c, 0, 64, 0
1, 123583, Note_off_c, 0, 74, 0
1, 123690, Control_c, 0, 64, 127
1, 123731, Note_on_c, 0, 63, 43
1, 123889, Note_off_c, 0, 54, 0
1, 123889, Note_off_c, 0, 63, 0
1, 123889, Note_on_c, 0, 60, 45
1, 124076, Control_c, 0, 64, 0
1, 124076, Control_c, 0, 64, 0
1, 124076, Control_c, 0, 64, 127
1, 124079, Control_c, 0, 64, 0
1, 124079, Control_c, 0, 64, 0
1, 124079, Control_c, 0, 64, 0
1, 124082, Note_off_c, 0, 69, 0
1, 124082, Note_off_c, 0, 60, 0
1, 124082, Note_on_c, 0, 67, 60
1, 124085, Note_on_c, 0, 55, 56
1, 124158, Control_c, 0, 64, 0
1, 124242, Note_on_c, 0, 64, 47
1, 124274, Control_c, 0, 64, 127
1, 124400, Note_off_c, 0, 55, 0
1, 124400, Note_off_c, 0, 64, 0
1, 124400, Note_on_c, 0, 60, 48
1, 124557, Note_off_c, 0, 67, 0
1, 124557, Note_on_c, 0, 67, 61
1, 124557, Note_on_c, 0, 71, 77
1, 124560, Note_off_c, 0, 60, 0
1, 124560, Note_on_c, 0, 55, 59
1, 124564, Control_c, 0, 64, 0
1, 124568, Note_off_c, 0, 72, 0
1, 124696, Control_c, 0, 64, 127
1, 124744, Note_on_c, 0, 65, 50
1, 124838, Note_on_c, 0, 79, 86
1, 124849, Note_off_c, 0, 71, 0
1, 124926, Note_off_c, 0, 55, 0
1, 124926, Note_off_c, 0, 65, 0
1, 124926, Note_on_c, 0, 59, 40
1, 124929, Note_on_c, 0, 62, 50
1, 125176, Control_c, 0, 64, 0
1, 125176, Control_c, 0, 64, 0
1, 125176, Control_c, 0, 64, 127
1, 125179, Control_c, 0, 64, 0
1, 125179, Control_c, 0, 64, 0
1, 125179, Note_off_c, 0, 67, 0
1, 125182, Note_off_c, 0, 79, 0
1, 125182, Note_off_c, 0, 59, 0
1, 125182, Note_off_c, 0, 62, 0
1, 125185, Note_on_c, 0, 67, 47
1, 125185, Note_on_c, 0, 75, 47
1, 125185, Note_on_c, 0, 79, 77
1, 125188, Note_on_c, 0, 48, 37
1, 125188, Note_on_c, 0, 60, 37
1, 125299, Control_c, 0, 64, 0
1, 125363, Note_off_c, 0, 60, 0
1, 125363, Note_on_c, 0, 55, 42
1, 125438, Control_c, 0, 64, 127
1, 125488, Note_off_c, 0, 48, 0
1, 125488, Note_off_c, 0, 55, 0
1, 125488, Note_on_c, 0, 51, 42
1, 125613, Note_off_c, 0, 51, 0
1, 125613, Note_on_c, 0, 55, 42
1, 125737, Note_off_c, 0, 55, 0
1, 125737, Note_on_c, 0, 48, 47
1, 125856, Note_off_c, 0, 48, 0
1, 125856, Note_on_c, 0, 60, 42
1, 125974, Note_off_c, 0, 60, 0
1, 125974, Note_on_c, 0, 55, 42
1, 126092, Note_off_c, 0, 55, 0
1, 126092, Note_on_c, 0, 48, 42
1, 126210, Control_c, 0, 64, 0
1, 126210, Control_c, 0, 64, 0
1, 126210, Control_c, 0, 64, 127
1, 126213, Control_c, 0, 64, 0
1, 126213, Control_c, 0, 64, 0
1, 126213, Control_c, 0, 64, 0
1, 126216, Note_off_c, 0, 67, 0
1, 126216, Note_off_c, 0, 75, 0
1, 126216, Note_off_c, 0, 79, 0
1, 126219, Note_off_c, 0, 48, 0
1, 126219, Note_on_c, 0, 65, 53
1, 126219, Note_on_c, 0, 74, 53
1, 126222, Note_on_c, 0, 77, 75
1, 126222, Note_on_c, 0, 50, 48
1, 126309, Control_c, 0, 64, 0
1, 126360, Note_on_c, 0, 59, 42
1, 126431, Control_c, 0, 64, 127
1, 126478, Note_off_c, 0, 50, 0
1, 126478, Note_off_c, 0, 59, 0
1, 126478, Note_on_c, 0, 55, 42
1, 126597, Note_off_c, 0, 55, 0
1, 126597, Note_on_c, 0, 50, 42
1, 126715, Note_off_c, 0, 65, 0
1, 126715, Note_off_c, 0, 74, 0
1, 126715, Note_off_c, 0, 77, 0
1, 126718, Note_on_c, 0, 63, 53
1, 126718, Note_on_c, 0, 67, 53
1, 126718, Note_on_c, 0, 75, 75
1, 126721, Note_off_c, 0, 50, 0
1, 126721, Note_on_c, 0, 51, 49
1, 126721, Control_c, 0, 64, 0
1, 126832, Control_c, 0, 64, 127
1, 126832, Note_on_c, 0, 60, 42
1, 126951, Note_off_c, 0, 51, 0
1, 126951, Note_off_c, 0, 60, 0
1, 126951, Note_on_c, 0, 55, 42
1, 127070, Note_off_c, 0, 55, 0
1, 127070, Note_on_c, 0, 51, 42
1, 127188, Control_c, 0, 64, 0
1, 127188, Control_c, 0, 64, 0
1, 127188, Control_c, 0, 64, 127
1, 127191, Control_c, 0, 64, 0
1, 127191, Control_c, 0, 64, 0
1, 127191, Control_c, 0, 64, 0
1, 127194, Control_c, 0, 64, 0
1, 127194, Note_off_c, 0, 63, 0
1, 127194, Note_off_c, 0, 67, 0
1, 127197, Note_off_c, 0, 75, 0
1, 127197, Note_off_c, 0, 51, 0
1, 127197, Note_on_c, 0, 68, 53
1, 127200, Note_on_c, 0, 74, 78
1, 127200, Note_on_c, 0, 53, 50
1, 127275, Control_c, 0, 64, 0
1, 127320, Note_on_c, 0, 62, 43
1, 127387, Control_c, 0, 64, 127
1, 127432, Note_off_c, 0, 53, 0
1, 127432, Note_off_c, 0, 62, 0
1, 127432, Note_on_c, 0, 56, 45
1, 127545, Note_off_c, 0, 56, 0
1, 127545, Note_on_c, 0, 53, 46
1, 127657, Note_off_c, 0, 68, 0
1, 127657, Note_off_c, 0, 74, 0
1, 127657, Note_on_c, 0, 69, 59
1, 127660, Note_on_c, 0, 72, 79
1, 127660, Note_off_c, 0, 53, 0
1, 127660, Note_on_c, 0, 54, 57
1, 127660, Control_c, 0, 64, 0
1, 127768, Control_c, 0, 64, 127
1, 127768, Note_on_c, 0, 63, 47
1, 127881, Note_off_c, 0, 54, 0
1, 127881, Note_off_c, 0, 63, 0
1, 127881, Note_on_c, 0, 60, 49
1, 127994, Note_off_c, 0, 60, 0
1, 127994, Note_on_c, 0, 54, 50
1, 128106, Control_c, 0, 64, 0
1, 128106, Control_c, 0, 64, 0
1, 128106, Control_c, 0, 64, 127
1, 128109, Control_c, 0, 64, 0
1, 128109, Note_off_c, 0, 69, 0
1, 128109, Note_off_c, 0, 54, 0
1, 128112, Note_on_c, 0, 67, 59
1, 128112, Note_on_c, 0, 55, 62
1, 128159, Control_c, 0, 64, 0
1, 128218, Note_on_c, 0, 63, 52
1, 128222, Control_c, 0, 64, 127
1, 128331, Note_off_c, 0, 55, 0
1, 128331, Note_off_c, 0, 63, 0
1, 128331, Note_on_c, 0, 60, 53
1, 128443, Note_off_c, 0, 60, 0
1, 128443, Note_on_c, 0, 55, 53
1, 128555, Note_off_c, 0, 67, 0
1, 128555, Note_off_c, 0, 72, 0
1, 128555, Note_on_c, 0, 66, 60
1, 128558, Note_on_c, 0, 72, 78
1, 128558, Note_off_c, 0, 55, 0
1, 128558, Note_on_c, 0, 56, 70
1, 128562, Control_c, 0, 64, 0
1, 128703, Control_c, 0, 64, 127
1, 128703, Note_on_c, 0, 63, 57
1, 128844, Control_c, 0, 64, 127
1, 128878, Note_off_c, 0, 66, 0
1, 128878, Note_off_c, 0, 72, 0
1, 128878, Note_on_c, 0, 80, 87
1, 128881, Note_off_c, 0, 56, 0
1, 128881, Note_off_c, 0, 63, 0
1, 128881, Note_on_c, 0, 60, 58
1, 129051, Note_off_c, 0, 60, 0
1, 129051, Note_on_c, 0, 63, 60
1, 129255, Control_c, 0, 64, 0
1, 129255, Control_c, 0, 64, 0
1, 129255, Control_c, 0, 64, 0
1, 129258, Control_c, 0, 64, 127
1, 129258, Control_c, 0, 64, 0
1, 129258, Control_c, 0, 64, 0
1, 129261, Note_off_c, 0, 80, 0
1, 129261, Note_off_c, 0, 63, 0
1, 129261, Note_on_c, 0, 68, 42
1, 129264, Note_on_c, 0, 76, 42
1, 129264, Note_on_c, 0, 80, 70
1, 129264, Note_on_c, 0, 49, 38
1, 129267, Note_on_c, 0, 61, 38
1, 129390, Control_c, 0, 64, 0
1, 129527, Note_off_c, 0, 61, 0
1, 129527, Note_on_c, 0, 56, 31
1, 129561, Control_c, 0, 64, 127
1, 129694, Note_off_c, 0, 49, 0
1, 129694, Note_off_c, 0, 56, 0
1, 129694, Note_on_c, 0, 52, 33
1, 129860, Note_off_c, 0, 52, 0
1, 129860, Note_on_c, 0, 49, 34
1, 130017, Note_off_c, 0, 49, 0
1, 130017, Note_on_c, 0, 61, 36
1, 130175, Note_off_c, 0, 61, 0
1, 130175, Note_on_c, 0, 56, 38
1, 130333, Control_c, 0, 64, 0
1, 130333, Control_c, 0, 64, 0
1, 130333, Control_c, 0, 64, 0
1, 130336, Control_c, 0, 64, 127
1, 130336, Control_c, 0, 64, 0
1, 130336, Control_c, 0, 64, 0
1, 130339, Control_c, 0, 64, 0
1, 130339, Note_off_c, 0, 56, 0
1, 130339, Note_on_c, 0, 66, 48
1, 130342, Note_on_c, 0, 75, 48
1, 130342, Note_on_c, 0, 78, 70
1, 130342, Note_on_c, 0, 51, 48
1, 130345, Note_off_c, 0, 68, 0
1, 130345, Note_off_c, 0, 76, 0
1, 130345, Note_off_c, 0, 80, 0
1, 130432, Control_c, 0, 64, 0
1, 130532, Note_on_c, 0, 60, 38
1, 130564, Control_c, 0, 64, 127
1, 130690, Note_off_c, 0, 51, 0
1, 130690, Note_off_c, 0, 60, 0
1, 130690, Note_on_c, 0, 56, 38
1, 130848, Note_on_c, 0, 68, 48
1, 130848, Note_on_c, 0, 73, 48
1, 130848, Note_on_c, 0, 76, 70
1, 130851, Note_off_c, 0, 56, 0
1, 130851, Note_on_c, 0, 52, 49
1, 130851, Control_c, 0, 64, 0
1, 130857, Note_off_c, 0, 66, 0
1, 130857, Note_off_c, 0, 75, 0
1, 130857, Note_off_c, 0, 78, 0
1, 130965, Control_c, 0, 64, 127
1, 131005, Note_on_c, 0, 61, 39
1, 131163, Note_off_c, 0, 52, 0
1, 131163, Note_off_c, 0, 61, 0
1, 131163, Note_on_c, 0, 56, 39
1, 131321, Control_c, 0, 64, 0
1, 131321, Control_c, 0, 64, 0
1, 131321, Control_c, 0, 64, 0
1, 131324, Control_c, 0, 64, 127
1, 131324, Control_c, 0, 64, 0
1, 131324, Control_c, 0, 64, 0
1, 131327, Control_c, 0, 64, 0
1, 131327, Control_c, 0, 64, 0
1, 131327, Note_off_c, 0, 56, 0
1, 131330, Note_on_c, 0, 69, 48
1, 131330, Note_on_c, 0, 75, 70
1, 131330, Note_on_c, 0, 54, 50
1, 131333, Note_off_c, 0, 68, 0
1, 131333, Note_off_c, 0, 73, 0
1, 131333, Note_off_c, 0, 76, 0
1, 131399, Control_c, 0, 64, 0
1, 131478, Note_on_c, 0, 63, 41
1, 131510, Control_c, 0, 64, 127
1, 131636, Note_off_c, 0, 54, 0
1, 131636, Note_off_c, 0, 63, 0
1, 131636, Note_on_c, 0, 57, 41
1, 131794, Note_off_c, 0, 69, 0
1, 131794, Note_on_c, 0, 70, 55
1, 131794, Note_on_c, 0, 73, 73
1, 131797, Note_off_c, 0, 57, 0
1, 131797, Note_on_c, 0, 55, 53
1, 131797, Control_c, 0, 64, 0
1, 131803, Note_off_c, 0, 75, 0
1, 131911, Control_c, 0, 64, 127
1, 131951, Note_on_c, 0, 64, 43
1, 132109, Note_off_c, 0, 55, 0
1, 132109, Note_off_c, 0, 64, 0
1, 132109, Note_on_c, 0, 61, 45
1, 132296, Control_c, 0, 64, 0
1, 132296, Control_c, 0, 64, 0
1, 132296, Control_c, 0, 64, 0
1, 132299, Control_c, 0, 64, 127
1, 132299, Control_c, 0, 64, 0
1, 132299, Control_c, 0, 64, 0
1, 132302, Control_c, 0, 64, 0
1, 132302, Control_c, 0, 64, 0
1, 132302, Note_off_c, 0, 70, 0
1, 132305, Note_off_c, 0, 61, 0
1, 132305, Note_on_c, 0, 68, 60
1, 132305, Note_on_c, 0, 56, 56
1, 132379, Control_c, 0, 64, 0
1, 132462, Note_on_c, 0, 64, 47
1, 132494, Control_c, 0, 64, 127
1, 132620, Note_off_c, 0, 56, 0
1, 132620, Note_off_c, 0, 64, 0
1, 132620, Note_on_c, 0, 61, 48
1, 132778, Note_off_c, 0, 68, 0
1, 132778, Note_on_c, 0, 68, 58
1, 132778, Note_on_c, 0, 72, 74
1, 132781, Note_off_c, 0, 61, 0
1, 132781, Note_on_c, 0, 56, 59
1, 132784, Control_c, 0, 64, 0
1, 132789, Note_off_c, 0, 73, 0
1, 132917, Control_c, 0, 64, 127
1, 132917, Note_on_c, 0, 63, 53
1, 133059, Note_on_c, 0, 80, 86
1, 133059, Note_off_c, 0, 56, 0
1, 133059, Note_off_c, 0, 63, 0
1, 133062, Note_on_c, 0, 60, 53
1, 133070, Note_off_c, 0, 72, 0
1, 133208, Note_off_c, 0, 60, 0
1, 133208, Note_on_c, 0, 63, 53
1, 133381, Control_c, 0, 64, 0
1, 133381, Control_c, 0, 64, 0
1, 133381, Control_c, 0, 64, 0
1, 133384, Control_c, 0, 64, 127
1, 133384, Control_c, 0, 64, 0
1, 133384, Control_c, 0, 64, 0
1, 133387, Control_c, 0, 64, 0
1, 133387, Note_off_c, 0, 68, 0
1, 133387, Note_off_c, 0, 80, 0
1, 133390, Note_off_c, 0, 63, 0
1, 133390, Note_on_c, 0, 68, 41
1, 133390, Note_on_c, 0, 77, 41
1, 133393, Note_on_c, 0, 80, 74
1, 133393, Note_on_c, 0, 49, 37
1, 133393, Note_on_c, 0, 61, 37
1, 133495, Control_c, 0, 64, 0
1, 133554, Note_off_c, 0, 61, 0
1, 133554, Note_on_c, 0, 56, 42
1, 133629, Control_c, 0, 64, 127
1, 133679, Note_off_c, 0, 49, 0
1, 133679, Note_off_c, 0, 56, 0
1, 133679, Note_on_c, 0, 53, 42
1, 133804, Note_off_c, 0, 53, 0
1, 133804, Note_on_c, 0, 56, 42
1, 133928, Note_off_c, 0, 56, 0
1, 133928, Note_on_c, 0, 49, 47
1, 134047, Note_off_c, 0, 49, 0
1, 134047, Note_on_c, 0, 61, 42
1, 134165, Note_off_c, 0, 61, 0
1, 134165, Note_on_c, 0, 56, 42
1, 134283, Note_off_c, 0, 56, 0
1, 134283, Note_on_c, 0, 49, 42
1, 134401, Control_c, 0, 64, 0
1, 134401, Control_c, 0, 64, 0
1, 134401, Control_c, 0, 64, 0
1, 134404, Control_c, 0, 64, 127
1, 134404, Control_c, 0, 64, 0
1, 134404, Control_c, 0, 64, 0
1, 134407, Control_c, 0, 64, 0
1, 134407, Control_c, 0, 64, 0
1, 134407, Note_off_c, 0, 68, 0
1, 134410, Note_off_c, 0, 77, 0
1, 134410, Note_off_c, 0, 80, 0
1, 134410, Note_off_c, 0, 49, 0
1, 134413, Note_on_c, 0, 66, 49
1, 134413, Note_on_c, 0, 75, 49
1, 134413, Note_on_c, 0, 78, 74
1, 134416, Note_on_c, 0, 51, 48
1, 134500, Control_c, 0, 64, 0
1, 134551, Note_on_c, 0, 60, 42
1, 134622, Control_c, 0, 64, 127
1, 134669, Note_off_c, 0, 51, 0
1, 134669, Note_off_c, 0, 60, 0
1, 134669, Note_on_c, 0, 54, 42
1, 134787, Note_off_c, 0, 54, 0
1, 134787, Note_on_c, 0, 51, 42
1, 134906, Note_off_c, 0, 66, 0
1, 134906, Note_off_c, 0, 75, 0
1, 134906, Note_off_c, 0, 78, 0
1, 134909, Note_on_c, 0, 65, 42
1, 134909, Note_on_c, 0, 68, 42
1, 134909, Note_on_c, 0, 73, 42
1, 134912, Note_on_c, 0, 77, 74
1, 134912, Note_off_c, 0, 51, 0
1, 134912, Note_on_c, 0, 53, 49
1, 134915, Control_c, 0, 64, 0
1, 135023, Control_c, 0, 64, 127
1, 135023, Note_on_c, 0, 61, 42
1, 135142, Note_off_c, 0, 53, 0
1, 135142, Note_off_c, 0, 61, 0
1, 135142, Note_on_c, 0, 56, 42
1, 135260, Note_off_c, 0, 56, 0
1, 135260, Note_on_c, 0, 53, 42
1, 135379, Control_c, 0, 64, 0
1, 135379, Control_c, 0, 64, 0
1, 135379, Control_c, 0, 64, 0
1, 135382, Control_c, 0, 64, 127
1, 135382, Control_c, 0, 64, 0
1, 135382, Control_c, 0, 64, 0
1, 135385, Control_c, 0, 64, 0
1, 135385, Control_c, 0, 64, 0
1, 135385, Control_c, 0, 64, 0
1, 135388, Note_off_c, 0, 65, 0
1, 135388, Note_off_c, 0, 68, 0
1, 135388, Note_off_c, 0, 73, 0
1, 135391, Note_off_c, 0, 77, 0
1, 135391, Note_off_c, 0, 53, 0
1, 135391, Note_on_c, 0, 69, 53
1, 135394, Note_on_c, 0, 75, 78
1, 135394, Note_on_c, 0, 54, 50
1, 135466, Control_c, 0, 64, 0
1, 135511, Note_on_c, 0, 61, 43
1, 135578, Control_c, 0, 64, 127
1, 135623, Note_off_c, 0, 54, 0
1, 135623, Note_off_c, 0, 61, 0
1, 135623, Note_on_c, 0, 57, 45
1, 135735, Note_off_c, 0, 57, 0
1, 135735, Note_on_c, 0, 54, 46
1, 135848, Note_off_c, 0, 69, 0
1, 135848, Note_off_c, 0, 75, 0
1, 135848, Note_on_c, 0, 69, 59
1, 135851, Note_on_c, 0, 73, 77
1, 135851, Note_off_c, 0, 54, 0
1, 135851, Note_on_c, 0, 54, 57
1, 135851, Control_c, 0, 64, 0
1, 135959, Control_c, 0, 64, 127
1, 135959, Note_on_c, 0, 61, 47
1, 136072, Note_off_c, 0, 54, 0
1, 136072, Note_off_c, 0, 61, 0
1, 136072, Note_on_c, 0, 57, 49
1, 136185, Note_off_c, 0, 57, 0
1, 136185, Note_on_c, 0, 54, 50
1, 136297, Control_c, 0, 64, 0
1, 136297, Control_c, 0, 64, 0
1, 136297, Control_c, 0, 64, 0
1, 136300, Control_c, 0, 64, 127
1, 136300, Control_c, 0, 64, 0
1, 136300, Control_c, 0, 64, 0
1, 136303, Note_off_c, 0, 73, 0
1, 136303, Note_off_c, 0, 54, 0
1, 136303, Note_on_c, 0, 72, 77
1, 136306, Note_on_c, 0, 54, 62
1, 136350, Control_c, 0, 64, 0
1, 136409, Note_off_c, 0, 54, 0
1, 136409, Note_on_c, 0, 61, 52
1, 136413, Control_c, 0, 64, 127
1, 136522, Note_off_c, 0, 61, 0
1, 136522, Note_on_c, 0, 57, 53
1, 136634, Note_off_c, 0, 57, 0
1, 136634, Note_on_c, 0, 54, 53
1, 136746, Note_off_c, 0, 69, 0
1, 136746, Note_off_c, 0, 72, 0
1, 136746, Note_on_c, 0, 69, 60
1, 136749, Note_on_c, 0, 73, 78
1, 136749, Note_off_c, 0, 54, 0
1, 136749, Note_on_c, 0, 52, 70
1, 136753, Control_c, 0, 64, 0
1, 136894, Control_c, 0, 64, 127
1, 136894, Note_off_c, 0, 52, 0
1, 136894, Note_on_c, 0, 61, 57
1, 137016, Control_c, 0, 64, 127
1, 137046, Note_off_c, 0, 69, 0
1, 137046, Note_off_c, 0, 73, 0
1, 137046, Note_on_c, 0, 78, 77
1, 137049, Note_on_c, 0, 81, 87
1, 137049, Note_off_c, 0, 61, 0
1, 137049, Note_on_c, 0, 57, 58
1, 137206, Note_off_c, 0, 57, 0
1, 137206, Note_on_c, 0, 52, 60
1, 137367, Control_c, 0, 64, 0
1, 137367, Control_c, 0, 64, 0
1, 137367, Note_off_c, 0, 78, 0
1, 137370, Note_off_c, 0, 81, 0
1, 137370, Note_off_c, 0, 52, 0
1, 137370, Note_on_c, 0, 69, 74
1, 137373, Note_on_c, 0, 78, 74
1, 137373, Note_on_c, 0, 81, 95
1, 137373, Note_on_c, 0, 51, 58
1, 137376, Note_on_c, 0, 59, 66
1, 137648, Note_off_c, 0, 51, 0
1, 137648, Note_off_c, 0, 59, 0
1, 137648, Note_on_c, 0, 57, 80
1, 137714, Control_c, 0, 64, 0
1, 137797, Note_on_c, 0, 60, 65
1, 137929, Note_off_c, 0, 57, 0
1, 137929, Note_on_c, 0, 59, 69
1, 137939, Note_off_c, 0, 60, 0
1, 138013, Control_c, 0, 64, 127
1, 138048, Note_on_c, 0, 58, 66
1, 138057, Note_off_c, 0, 59, 0
1, 138166, Note_on_c, 0, 59, 64
1, 138175, Note_off_c, 0, 58, 0
1, 138284, Note_on_c, 0, 54, 60
1, 138293, Note_off_c, 0, 59, 0
1, 138313, Control_c, 0, 64, 0
1, 138402, Control_c, 0, 64, 0
1, 138402, Control_c, 0, 64, 0
1, 138402, Note_on_c, 0, 51, 59
1, 138412, Note_off_c, 0, 54, 0
1, 138521, Note_on_c, 0, 49, 60
1, 138530, Note_off_c, 0, 51, 0
1, 138639, Note_on_c, 0, 51, 62
1, 138648, Note_off_c, 0, 49, 0
1, 138757, Note_on_c, 0, 47, 64
1, 138766, Note_off_c, 0, 51, 0
1, 138875, Note_on_c, 0, 51, 65
1, 138885, Note_off_c, 0, 47, 0
1, 138940, Note_off_c, 0, 51, 0
1, 139125, Note_on_c, 0, 54, 65
1, 139190, Note_off_c, 0, 54, 0
1, 139374, Control_c, 0, 64, 0
1, 139374, Control_c, 0, 64, 0
1, 139374, Control_c, 0, 64, 0
1, 139377, Note_off_c, 0, 69, 0
1, 139377, Note_off_c, 0, 78, 0
1, 139377, Note_off_c, 0, 81, 0
1, 139380, Note_on_c, 0, 75, 80
1, 139380, Note_on_c, 0, 78, 80
1, 139380, Note_on_c, 0, 81, 80
1, 139383, Note_on_c, 0, 87, 102
1, 139624, Note_on_c, 0, 57, 80
1, 139691, Control_c, 0, 64, 0
1, 139774, Note_on_c, 0, 60, 58
1, 139906, Note_off_c, 0, 57, 0
1, 139906, Note_on_c, 0, 59, 62
1, 139915, Note_off_c, 0, 60, 0
1, 139990, Control_c, 0, 64, 127
1, 140024, Note_on_c, 0, 58, 59
1, 140033, Note_off_c, 0, 59, 0
1, 140142, Note_on_c, 0, 59, 57
1, 140152, Note_off_c, 0, 58, 0
1, 140261, Note_on_c, 0, 54, 53
1, 140270, Note_off_c, 0, 59, 0
1, 140290, Control_c, 0, 64, 0
1, 140379, Control_c, 0, 64, 0
1, 140379, Control_c, 0, 64, 0
1, 140379, Note_on_c, 0, 51, 52
1, 140388, Note_off_c, 0, 54, 0
1, 140497, Note_on_c, 0, 49, 53
1, 140506, Note_off_c, 0, 51, 0
1, 140615, Note_on_c, 0, 51, 56
1, 140625, Note_off_c, 0, 49, 0
1, 140734, Note_on_c, 0, 47, 57
1, 140743, Note_off_c, 0, 51, 0
1, 140852, Note_on_c, 0, 51, 58
1, 140862, Note_off_c, 0, 47, 0
1, 140917, Note_off_c, 0, 51, 0
1, 141101, Note_on_c, 0, 54, 58
1, 141166, Note_off_c, 0, 54, 0
1, 141351, Control_c, 0, 64, 0
1, 141351, Control_c, 0, 64, 0
1, 141351, Control_c, 0, 64, 0
1, 141354, Control_c, 0, 64, 0
1, 141354, Note_off_c, 0, 75, 0
1, 141354, Note_off_c, 0, 78, 0
1, 141357, Note_off_c, 0, 81, 0
1, 141357, Note_off_c, 0, 87, 0
1, 141357, Note_on_c, 0, 78, 80
1, 141360, Note_on_c, 0, 81, 80
1, 141360, Note_on_c, 0, 87, 80
1, 141360, Note_on_c, 0, 90, 102
1, 141601, Note_on_c, 0, 57, 80
1, 141667, Control_c, 0, 64, 0
1, 141750, Note_on_c, 0, 60, 58
1, 141883, Note_off_c, 0, 57, 0
1, 141883, Note_on_c, 0, 59, 62
1, 141892, Note_off_c, 0, 60, 0
1, 141966, Control_c, 0, 64, 127
1, 142001, Note_on_c, 0, 58, 59
1, 142010, Note_off_c, 0, 59, 0
1, 142119, Note_on_c, 0, 59, 57
1, 142128, Note_off_c, 0, 58, 0
1, 142237, Note_on_c, 0, 54, 53
1, 142246, Note_off_c, 0, 59, 0
1, 142266, Control_c, 0, 64, 0
1, 142355, Control_c, 0, 64, 0
1, 142355, Control_c, 0, 64, 0
1, 142355, Note_on_c, 0, 51, 52
1, 142365, Note_off_c, 0, 54, 0
1, 142474, Note_on_c, 0, 49, 53
1, 142483, Note_off_c, 0, 51, 0
1, 142592, Note_on_c, 0, 51, 56
1, 142601, Note_off_c, 0, 49, 0
1, 142710, Note_on_c, 0, 47, 57
1, 142719, Note_off_c, 0, 51, 0
1, 142828, Note_on_c, 0, 51, 57
1, 142838, Note_off_c, 0, 47, 0
1, 142953, Note_on_c, 0, 49, 56
1, 142963, Note_off_c, 0, 51, 0
1, 143078, Note_on_c, 0, 51, 53
1, 143088, Note_off_c, 0, 49, 0
1, 143203, Note_on_c, 0, 54, 52
1, 143213, Note_off_c, 0, 51, 0
1, 143328, Control_c, 0, 64, 0
1, 143328, Control_c, 0, 64, 0
1, 143328, Note_off_c, 0, 78, 0
1, 143331, Note_off_c, 0, 81, 0
1, 143331, Note_off_c, 0, 87, 0
1, 143331, Note_off_c, 0, 90, 0
1, 143334, Note_on_c, 0, 78, 76
1, 143334, Note_on_c, 0, 57, 67
1, 143338, Note_off_c, 0, 54, 0
1, 143437, Note_off_c, 0, 78, 0
1, 143437, Note_off_c, 0, 57, 0
1, 143592, Note_on_c, 0, 69, 59
1, 143592, Note_on_c, 0, 51, 51
1, 143611, Control_c, 0, 64, 127
1, 143710, Note_on_c, 0, 72, 62
1, 143719, Note_off_c, 0, 69, 0
1, 143823, Control_c, 0, 64, 0
1, 143828, Note_on_c, 0, 71, 65
1, 143828, Note_on_c, 0, 54, 48
1, 143838, Note_off_c, 0, 72, 0
1, 143838, Note_off_c, 0, 51, 0
1, 143878, Control_c, 0, 64, 127
1, 143947, Note_on_c, 0, 70, 62
1, 143956, Note_off_c, 0, 71, 0
1, 144065, Note_on_c, 0, 71, 61
1, 144065, Note_on_c, 0, 59, 46
1, 144074, Note_off_c, 0, 70, 0
1, 144074, Note_off_c, 0, 54, 0
1, 144079, Control_c, 0, 64, 0
1, 144168, Control_c, 0, 64, 127
1, 144183, Note_on_c, 0, 68, 59
1, 144192, Note_off_c, 0, 71, 0
1, 144279, Control_c, 0, 64, 0
1, 144301, Control_c, 0, 64, 0
1, 144301, Control_c, 0, 64, 0
1, 144301, Control_c, 0, 64, 0
1, 144304, Note_on_c, 0, 78, 65
1, 144304, Note_on_c, 0, 57, 67
1, 144312, Note_off_c, 0, 68, 0
1, 144312, Note_off_c, 0, 59, 0
1, 144411, Note_off_c, 0, 78, 0
1, 144411, Note_off_c, 0, 57, 0
1, 144566, Note_on_c, 0, 69, 59
1, 144566, Note_on_c, 0, 51, 51
1, 144585, Control_c, 0, 64, 127
1, 144684, Note_on_c, 0, 72, 62
1, 144693, Note_off_c, 0, 69, 0
1, 144796, Control_c, 0, 64, 0
1, 144802, Note_on_c, 0, 71, 65
1, 144802, Note_on_c, 0, 54, 48
1, 144811, Note_off_c, 0, 72, 0
1, 144811, Note_off_c, 0, 51, 0
1, 144852, Control_c, 0, 64, 127
1, 144920, Note_on_c, 0, 70, 62
1, 144929, Note_off_c, 0, 71, 0
1, 145038, Note_on_c, 0, 71, 61
1, 145038, Note_on_c, 0, 59, 46
1, 145048, Note_off_c, 0, 70, 0
1, 145048, Note_off_c, 0, 54, 0
1, 145052, Control_c, 0, 64, 0
1, 145141, Control_c, 0, 64, 127
1, 145157, Note_on_c, 0, 68, 59
1, 145166, Note_off_c, 0, 71, 0
1, 145253, Control_c, 0, 64, 0
1, 145275, Control_c, 0, 64, 0
1, 145275, Control_c, 0, 64, 0
1, 145275, Control_c, 0, 64, 0
1, 145278, Note_on_c, 0, 78, 74
1, 145278, Note_on_c, 0, 57, 67
1, 145285, Note_off_c, 0, 68, 0
1, 145285, Note_off_c, 0, 59, 0
1, 145384, Note_off_c, 0, 78, 0
1, 145384, Note_off_c, 0, 57, 0
1, 145539, Note_on_c, 0, 69, 59
1, 145539, Note_on_c, 0, 51, 51
1, 145561, Control_c, 0, 64, 127
1, 145671, Note_on_c, 0, 72, 62
1, 145682, Note_off_c, 0, 69, 0
1, 145797, Control_c, 0, 64, 0
1, 145804, Note_on_c, 0, 71, 65
1, 145804, Note_on_c, 0, 54, 48
1, 145816, Note_off_c, 0, 72, 0
1, 145816, Note_off_c, 0, 51, 0
1, 145871, Control_c, 0, 64, 127
1, 145964, Note_on_c, 0, 70, 62
1, 145974, Note_off_c, 0, 71, 0
1, 146096, Note_on_c, 0, 71, 61
1, 146096, Note_on_c, 0, 59, 46
1, 146106, Note_off_c, 0, 70, 0
1, 146106, Note_off_c, 0, 54, 0
1, 146111, Control_c, 0, 64, 0
1, 146205, Control_c, 0, 64, 127
1, 146221, Note_on_c, 0, 69, 59
1, 146231, Note_off_c, 0, 71, 0
1, 146322, Control_c, 0, 64, 0
1, 146346, Control_c, 0, 64, 0
1, 146346, Control_c, 0, 64, 0
1, 146346, Note_on_c, 0, 68, 62
1, 146355, Note_off_c, 0, 69, 0
1, 146471, Note_on_c, 0, 66, 61
1, 146471, Note_on_c, 0, 57, 51
1, 146480, Note_off_c, 0, 68, 0
1, 146480, Note_off_c, 0, 59, 0
1, 146595, Note_on_c, 0, 68, 60
1, 146595, Note_on_c, 0, 59, 50
1, 146605, Note_off_c, 0, 66, 0
1, 146605, Note_off_c, 0, 57, 0
1, 146720, Note_on_c, 0, 66, 59
1, 146720, Note_on_c, 0, 57, 49
1, 146730, Note_off_c, 0, 68, 0
1, 146730, Note_off_c, 0, 59, 0
1, 146845, Note_on_c, 0, 64, 58
1, 146845, Note_on_c, 0, 56, 48
1, 146855, Note_off_c, 0, 66, 0
1, 146855, Note_off_c, 0, 57, 0
1, 146977, Note_on_c, 0, 63, 59
1, 146977, Note_on_c, 0, 57, 49
1, 146988, Note_off_c, 0, 64, 0
1, 146988, Note_off_c, 0, 56, 0
1, 147117, Note_on_c, 0, 64, 61
1, 147117, Note_on_c, 0, 56, 51
1, 147129, Note_off_c, 0, 63, 0
1, 147129, Note_off_c, 0, 57, 0
1, 147267, Note_on_c, 0, 66, 62
1, 147267, Note_on_c, 0, 54, 52
1, 147279, Note_off_c, 0, 64, 0
1, 147279, Note_off_c, 0, 56, 0
1, 147417, Control_c, 0, 64, 0
1, 147417, Control_c, 0, 64, 0
1, 147417, Note_on_c, 0, 68, 66
1, 147420, Note_on_c, 0, 64, 46
1, 147420, Note_on_c, 0, 40, 33
1, 147420, Note_on_c, 0, 52, 43
1, 147429, Note_off_c, 0, 66, 0
1, 147429, Note_off_c, 0, 54, 0
1, 147558, Control_c, 0, 64, 127
1, 147567, Note_off_c, 0, 64, 0
1, 147567, Note_on_c, 0, 59, 42
1, 147692, Note_off_c, 0, 59, 0
1, 147692, Note_on_c, 0, 64, 38
1, 147692, Note_off_c, 0, 40, 0
1, 147695, Note_off_c, 0, 52, 0
1, 147816, Note_off_c, 0, 64, 0
1, 147816, Note_on_c, 0, 59, 34
1, 147941, Note_off_c, 0, 68, 0
1, 147941, Note_off_c, 0, 59, 0
1, 147941, Note_on_c, 0, 68, 45
1, 147944, Note_on_c, 0, 71, 69
1, 148082, Note_off_c, 0, 68, 0
1, 148082, Note_on_c, 0, 59, 46
1, 148222, Note_off_c, 0, 59, 0
1, 148222, Note_on_c, 0, 66, 34
1, 148222, Note_on_c, 0, 69, 65
1, 148232, Note_off_c, 0, 71, 0
1, 148260, Control_c, 0, 64, 0
1, 148347, Note_off_c, 0, 66, 0
1, 148347, Note_on_c, 0, 59, 38
1, 148389, Control_c, 0, 64, 127
1, 148472, Control_c, 0, 64, 0
1, 148472, Control_c, 0, 64, 0
1, 148472, Note_off_c, 0, 59, 0
1, 148475, Note_on_c, 0, 68, 66
1, 148475, Note_on_c, 0, 64, 46
1, 148475, Note_on_c, 0, 35, 47
1, 148478, Note_on_c, 0, 47, 33
1, 148484, Note_off_c, 0, 69, 0
1, 148487, Control_c, 0, 64, 127
1, 148562, Control_c, 0, 64, 0
1, 148632, Note_off_c, 0, 64, 0
1, 148632, Note_on_c, 0, 59, 42
1, 148653, Control_c, 0, 64, 127
1, 148792, Note_off_c, 0, 59, 0
1, 148792, Note_on_c, 0, 63, 38
1, 148792, Note_on_c, 0, 66, 60
1, 148795, Note_off_c, 0, 35, 0
1, 148795, Note_off_c, 0, 47, 0
1, 148803, Note_off_c, 0, 68, 0
1, 148851, Control_c, 0, 64, 0
1, 148925, Note_off_c, 0, 63, 0
1, 148925, Note_on_c, 0, 59, 34
1, 148939, Control_c, 0, 64, 127
1, 149057, Note_off_c, 0, 59, 0
1, 149057, Note_on_c, 0, 63, 34
1, 149057, Note_off_c, 0, 66, 0
1, 149060, Note_on_c, 0, 66, 60
1, 149189, Note_off_c, 0, 63, 0
1, 149189, Note_on_c, 0, 59, 38
1, 149321, Note_off_c, 0, 59, 0
1, 149321, Note_on_c, 0, 64, 42
1, 149321, Note_on_c, 0, 68, 62
1, 149331, Note_off_c, 0, 66, 0
1, 149359, Control_c, 0, 64, 0
1, 149446, Note_off_c, 0, 64, 0
1, 149446, Note_on_c, 0, 59, 40
1, 149465, Control_c, 0, 64, 127
1, 149571, Control_c, 0, 64, 0
1, 149571, Control_c, 0, 64, 127
1, 149571, Note_off_c, 0, 59, 0
1, 149574, Note_on_c, 0, 69, 66
1, 149574, Note_on_c, 0, 64, 38
1, 149574, Note_on_c, 0, 37, 31
1, 149577, Note_on_c, 0, 49, 41
1, 149582, Note_off_c, 0, 68, 0
1, 149623, Control_c, 0, 64, 0
1, 149690, Control_c, 0, 64, 127
1, 149711, Note_off_c, 0, 64, 0
1, 149711, Note_on_c, 0, 59, 40
1, 149851, Note_off_c, 0, 59, 0
1, 149851, Note_on_c, 0, 64, 42
1, 149851, Note_on_c, 0, 73, 69
1, 149862, Note_off_c, 0, 69, 0
1, 149862, Note_off_c, 0, 37, 0
1, 149862, Note_off_c, 0, 49, 0
1, 149992, Note_off_c, 0, 64, 0
1, 149992, Note_on_c, 0, 59, 43
1, 150099, Control_c, 0, 64, 0
1, 150132, Note_off_c, 0, 59, 0
1, 150132, Note_on_c, 0, 66, 46
1, 150132, Note_on_c, 0, 71, 66
1, 150135, Note_on_c, 0, 39, 34
1, 150135, Note_on_c, 0, 51, 45
1, 150143, Note_off_c, 0, 73, 0
1, 150201, Control_c, 0, 64, 127
1, 150264, Note_off_c, 0, 66, 0
1, 150264, Note_on_c, 0, 59, 42
1, 150396, Note_off_c, 0, 59, 0
1, 150396, Note_on_c, 0, 63, 38
1, 150396, Note_on_c, 0, 66, 60
1, 150399, Note_on_c, 0, 35, 31
1, 150399, Note_on_c, 0, 47, 41
1, 150406, Note_off_c, 0, 71, 0
1, 150406, Note_off_c, 0, 39, 0
1, 150406, Note_off_c, 0, 51, 0
1, 150458, Control_c, 0, 64, 0
1, 150521, Note_off_c, 0, 63, 0
1, 150521, Note_on_c, 0, 59, 34
1, 150561, Control_c, 0, 64, 127
1, 150682, Control_c, 0, 64, 0
1, 150682, Control_c, 0, 64, 127
1, 150682, Note_off_c, 0, 59, 0
1, 150685, Note_on_c, 0, 59, 30
1, 150685, Note_on_c, 0, 64, 30
1, 150685, Note_on_c, 0, 68, 50
1, 150688, Note_on_c, 0, 40, 25
1, 150688, Note_on_c, 0, 52, 32
1, 150694, Note_off_c, 0, 66, 0
1, 150694, Note_off_c, 0, 35, 0
1, 150694, Note_off_c, 0, 47, 0
1, 150788, Control_c, 0, 64, 0
1, 150842, Note_on_c, 0, 56, 46
1, 150852, Note_off_c, 0, 40, 0
1, 150852, Note_off_c, 0, 52, 0
1, 150967, Note_on_c, 0, 59, 51
1, 150977, Note_off_c, 0, 56, 0
1, 151092, Note_on_c, 0, 57, 49
1, 151102, Note_off_c, 0, 59, 0
1, 151217, Note_off_c, 0, 59, 0
1, 151217, Note_off_c, 0, 64, 0
1, 151217, Note_off_c, 0, 68, 0
1, 151220, Note_on_c, 0, 56, 47
1, 151226, Note_off_c, 0, 57, 0
1, 151341, Note_on_c, 0, 57, 46
1, 151351, Note_off_c, 0, 56, 0
1, 151466, Note_on_c, 0, 76, 58
1, 151466, Note_on_c, 0, 56, 43
1, 151477, Note_off_c, 0, 57, 0
1, 151607, Note_on_c, 0, 78, 62
1, 151607, Note_on_c, 0, 54, 41
1, 151618, Note_off_c, 0, 76, 0
1, 151618, Note_off_c, 0, 56, 0
1, 151756, Control_c, 0, 64, 0
1, 151756, Control_c, 0, 64, 0
1, 151756, Control_c, 0, 64, 0
1, 151759, Note_on_c, 0, 68, 43
1, 151759, Note_on_c, 0, 80, 67
1, 151759, Note_on_c, 0, 52, 49
1, 151769, Note_off_c, 0, 78, 0
1, 151769, Note_off_c, 0, 54, 0
1, 151907, Control_c, 0, 64, 127
1, 151917, Note_on_c, 0, 59, 42
1, 151927, Note_off_c, 0, 52, 0
1, 152049, Note_on_c, 0, 47, 42
1, 152059, Note_off_c, 0, 59, 0
1, 152174, Note_on_c, 0, 59, 43
1, 152184, Note_off_c, 0, 47, 0
1, 152299, Note_off_c, 0, 68, 0
1, 152299, Note_off_c, 0, 80, 0
1, 152299, Note_on_c, 0, 71, 48
1, 152302, Note_on_c, 0, 83, 68
1, 152302, Note_on_c, 0, 52, 43
1, 152310, Note_off_c, 0, 59, 0
1, 152439, Note_on_c, 0, 59, 43
1, 152450, Note_off_c, 0, 52, 0
1, 152579, Note_off_c, 0, 71, 0
1, 152579, Note_off_c, 0, 83, 0
1, 152579, Note_on_c, 0, 69, 47
1, 152582, Note_on_c, 0, 81, 70
1, 152582, Note_on_c, 0, 47, 43
1, 152590, Note_off_c, 0, 59, 0
1, 152620, Control_c, 0, 64, 0
1, 152711, Note_on_c, 0, 59, 45
1, 152722, Note_off_c, 0, 47, 0
1, 152756, Control_c, 0, 64, 127
1, 152844, Control_c, 0, 64, 0
1, 152844, Control_c, 0, 64, 0
1, 152844, Control_c, 0, 64, 0
1, 152847, Note_off_c, 0, 69, 0
1, 152847, Note_off_c, 0, 81, 0
1, 152847, Note_on_c, 0, 68, 48
1, 152850, Note_on_c, 0, 80, 71
1, 152850, Note_on_c, 0, 51, 51
1, 152855, Note_off_c, 0, 59, 0
1, 152858, Control_c, 0, 64, 127
1, 152928, Control_c, 0, 64, 0
1, 152993, Note_on_c, 0, 59, 45
1, 153013, Control_c, 0, 64, 127
1, 153143, Note_off_c, 0, 68, 0
1, 153143, Note_off_c, 0, 80, 0
1, 153143, Note_on_c, 0, 66, 41
1, 153146, Note_on_c, 0, 78, 65
1, 153146, Note_on_c, 0, 47, 45
1, 153153, Note_off_c, 0, 59, 0
1, 153202, Control_c, 0, 64, 0
1, 153275, Note_on_c, 0, 59, 45
1, 153286, Note_off_c, 0, 47, 0
1, 153289, Control_c, 0, 64, 127
1, 153407, Note_off_c, 0, 66, 0
1, 153407, Note_off_c, 0, 78, 0
1, 153407, Note_on_c, 0, 66, 41
1, 153410, Note_on_c, 0, 78, 65
1, 153410, Note_off_c, 0, 51, 0
1, 153410, Note_on_c, 0, 51, 52
1, 153417, Note_off_c, 0, 59, 0
1, 153532, Note_on_c, 0, 59, 45
1, 153657, Note_off_c, 0, 66, 0
1, 153657, Note_off_c, 0, 78, 0
1, 153657, Note_on_c, 0, 68, 43
1, 153660, Note_on_c, 0, 80, 67
1, 153660, Note_off_c, 0, 51, 0
1, 153660, Note_on_c, 0, 53, 52
1, 153667, Note_off_c, 0, 59, 0
1, 153697, Control_c, 0, 64, 0
1, 153789, Note_on_c, 0, 59, 46
1, 153809, Control_c, 0, 64, 127
1, 153921, Control_c, 0, 64, 0
1, 153921, Control_c, 0, 64, 127
1, 153921, Control_c, 0, 64, 0
1, 153924, Note_off_c, 0, 68, 0
1, 153924, Note_off_c, 0, 80, 0
1, 153924, Note_off_c, 0, 53, 0
1, 153927, Note_on_c, 0, 69, 50
1, 153927, Note_on_c, 0, 81, 74
1, 153927, Note_on_c, 0, 54, 53
1, 153932, Note_off_c, 0, 59, 0
1, 153974, Control_c, 0, 64, 0
1, 154040, Control_c, 0, 64, 127
1, 154062, Note_on_c, 0, 59, 46
1, 154073, Note_off_c, 0, 54, 0
1, 154202, Note_off_c, 0, 69, 0
1, 154202, Note_off_c, 0, 81, 0
1, 154202, Note_on_c, 0, 73, 53
1, 154205, Note_on_c, 0, 85, 79
1, 154205, Note_on_c, 0, 57, 53
1, 154212, Note_off_c, 0, 59, 0
1, 154334, Note_on_c, 0, 59, 47
1, 154345, Note_off_c, 0, 57, 0
1, 154435, Control_c, 0, 64, 0
1, 154466, Note_off_c, 0, 73, 0
1, 154466, Note_off_c, 0, 85, 0
1, 154466, Note_on_c, 0, 71, 50
1, 154469, Note_on_c, 0, 83, 76
1, 154469, Note_on_c, 0, 56, 55
1, 154477, Note_off_c, 0, 59, 0
1, 154535, Control_c, 0, 64, 127
1, 154599, Note_on_c, 0, 59, 47
1, 154609, Note_off_c, 0, 56, 0
1, 154627, Note_off_c, 0, 71, 0
1, 154627, Note_off_c, 0, 83, 0
1, 154647, Control_c, 0, 64, 0
1, 154731, Note_on_c, 0, 75, 46
1, 154731, Note_on_c, 0, 87, 67
1, 154731, Note_on_c, 0, 47, 37
1, 154734, Note_on_c, 0, 54, 45
1, 154742, Note_off_c, 0, 59, 0
1, 154804, Control_c, 0, 64, 0
1, 154808, Note_off_c, 0, 75, 0
1, 154808, Note_off_c, 0, 87, 0
1, 154847, Control_c, 0, 64, 0
1, 154880, Note_on_c, 0, 57, 38
1, 154892, Note_off_c, 0, 47, 0
1, 154892, Note_off_c, 0, 54, 0
1, 155030, Control_c, 0, 64, 0
1, 155030, Control_c, 0, 64, 0
1, 155030, Note_on_c, 0, 76, 47
1, 155033, Note_on_c, 0, 88, 70
1, 155033, Note_on_c, 0, 52, 33
1, 155033, Note_on_c, 0, 56, 42
1, 155042, Note_off_c, 0, 57, 0
1, 155180, Note_on_c, 0, 59, 42
1, 155190, Note_off_c, 0, 52, 0
1, 155305, Note_off_c, 0, 56, 0
1, 155305, Note_on_c, 0, 56, 42
1, 155315, Note_off_c, 0, 59, 0
1, 155430, Note_on_c, 0, 52, 42
1, 155439, Note_off_c, 0, 56, 0
1, 155554, Note_off_c, 0, 76, 0
1, 155554, Note_off_c, 0, 88, 0
1, 155554, Note_on_c, 0, 51, 47
1, 155564, Note_off_c, 0, 52, 0
1, 155643, Control_c, 0, 64, 127
1, 155679, Note_on_c, 0, 59, 42
1, 155804, Note_on_c, 0, 71, 71
1, 155804, Note_off_c, 0, 51, 0
1, 155804, Note_on_c, 0, 54, 42
1, 155815, Note_off_c, 0, 59, 0
1, 155944, Note_on_c, 0, 51, 42
1, 155955, Note_off_c, 0, 54, 0
1, 156085, Control_c, 0, 64, 0
1, 156085, Control_c, 0, 64, 127
1, 156085, Note_on_c, 0, 70, 75
1, 156088, Note_on_c, 0, 49, 55
1, 156096, Note_off_c, 0, 71, 0
1, 156096, Note_off_c, 0, 51, 0
1, 156141, Control_c, 0, 64, 0
1, 156235, Note_on_c, 0, 58, 42
1, 156274, Control_c, 0, 64, 127
1, 156359, Note_off_c, 0, 49, 0
1, 156359, Note_on_c, 0, 54, 42
1, 156369, Note_off_c, 0, 58, 0
1, 156484, Note_on_c, 0, 49, 42
1, 156494, Note_off_c, 0, 54, 0
1, 156609, Note_on_c, 0, 76, 79
1, 156609, Note_on_c, 0, 42, 55
1, 156615, Control_c, 0, 64, 0
1, 156619, Note_off_c, 0, 70, 0
1, 156619, Note_off_c, 0, 49, 0
1, 156734, Note_on_c, 0, 58, 42
1, 156744, Control_c, 0, 64, 127
1, 156859, Note_off_c, 0, 42, 0
1, 156859, Note_on_c, 0, 54, 42
1, 156868, Note_off_c, 0, 58, 0
1, 156983, Note_on_c, 0, 49, 42
1, 156993, Note_off_c, 0, 54, 0
1, 157108, Control_c, 0, 64, 0
1, 157108, Control_c, 0, 64, 127
1, 157108, Note_on_c, 0, 75, 75
1, 157111, Note_on_c, 0, 47, 53
1, 157118, Note_off_c, 0, 76, 0
1, 157118, Note_off_c, 0, 49, 0
1, 157167, Control_c, 0, 64, 0
1, 157233, Note_on_c, 0, 59, 42
1, 157249, Control_c, 0, 64, 127
1, 157358, Note_off_c, 0, 47, 0
1, 157358, Note_on_c, 0, 54, 42
1, 157367, Note_off_c, 0, 59, 0
1, 157483, Note_on_c, 0, 51, 42
1, 157492, Note_off_c, 0, 54, 0
1, 157607, Note_on_c, 0, 47, 47
1, 157617, Note_off_c, 0, 51, 0
1, 157732, Note_on_c, 0, 59, 42
1, 157857, Note_on_c, 0, 69, 60
1, 157857, Note_off_c, 0, 47, 0
1, 157857, Note_on_c, 0, 49, 39
1, 157868, Note_off_c, 0, 75, 0
1, 157868, Note_off_c, 0, 59, 0
1, 157887, Control_c, 0, 64, 0
1, 157997, Note_on_c, 0, 57, 34
1, 158006, Control_c, 0, 64, 127
1, 158138, Control_c, 0, 64, 0
1, 158138, Control_c, 0, 64, 127
1, 158138, Note_off_c, 0, 49, 0
1, 158141, Note_on_c, 0, 68, 62
1, 158141, Note_on_c, 0, 47, 40
1, 158149, Note_off_c, 0, 69, 0
1, 158149, Note_off_c, 0, 57, 0
1, 158208, Control_c, 0, 64, 0
1, 158287, Note_on_c, 0, 56, 34
1, 158351, Control_c, 0, 64, 127
1, 158412, Note_off_c, 0, 47, 0
1, 158412, Note_on_c, 0, 52, 34
1, 158422, Note_off_c, 0, 56, 0
1, 158537, Note_on_c, 0, 47, 34
1, 158547, Note_off_c, 0, 52, 0
1, 158662, Note_on_c, 0, 74, 67
1, 158662, Note_on_c, 0, 40, 46
1, 158672, Note_off_c, 0, 68, 0
1, 158672, Note_off_c, 0, 47, 0
1, 158679, Control_c, 0, 64, 0
1, 158785, Control_c, 0, 64, 127
1, 158785, Note_on_c, 0, 56, 36
1, 158911, Note_off_c, 0, 40, 0
1, 158911, Note_on_c, 0, 52, 36
1, 158921, Note_off_c, 0, 56, 0
1, 159036, Note_on_c, 0, 47, 36
1, 159046, Note_off_c, 0, 52, 0
1, 159161, Control_c, 0, 64, 0
1, 159161, Control_c, 0, 64, 127
1, 159161, Note_on_c, 0, 73, 64
1, 159164, Note_on_c, 0, 45, 42
1, 159172, Note_off_c, 0, 74, 0
1, 159172, Note_off_c, 0, 47, 0
1, 159241, Control_c, 0, 64, 0
1, 159301, Note_on_c, 0, 57, 36
1, 159365, Control_c, 0, 64, 127
1, 159426, Note_off_c, 0, 45, 0
1, 159426, Note_on_c, 0, 52, 36
1, 159436, Note_off_c, 0, 57, 0
1, 159551, Note_on_c, 0, 49, 36
1, 159561, Note_off_c, 0, 52, 0
1, 159670, Control_c, 0, 64, 0
1, 159676, Note_on_c, 0, 45, 41
1, 159686, Note_off_c, 0, 49, 0
1, 159801, Note_off_c, 0, 45, 0
1, 159801, Note_on_c, 0, 52, 31
1, 159823, Control_c, 0, 64, 127
1, 159925, Note_off_c, 0, 73, 0
1, 159925, Note_on_c, 0, 73, 68
1, 159925, Note_off_c, 0, 52, 0
1, 159928, Note_on_c, 0, 45, 31
1, 160066, Note_off_c, 0, 45, 0
1, 160066, Note_on_c, 0, 52, 32
1, 160206, Control_c, 0, 64, 0
1, 160206, Control_c, 0, 64, 127
1, 160206, Note_off_c, 0, 52, 0
1, 160209, Note_on_c, 0, 72, 68
1, 160209, Note_on_c, 0, 45, 52
1, 160219, Note_off_c, 0, 73, 0
1, 160251, Control_c, 0, 64, 0
1, 160357, Control_c, 0, 64, 127
1, 160367, Note_on_c, 0, 52, 37
1, 160527, Note_on_c, 0, 73, 60
1, 160527, Note_off_c, 0, 45, 0
1, 160527, Note_on_c, 0, 45, 37
1, 160538, Note_off_c, 0, 72, 0
1, 160561, Control_c, 0, 64, 0
1, 160659, Note_off_c, 0, 52, 0
1, 160659, Note_on_c, 0, 52, 37
1, 160659, Control_c, 0, 64, 127
1, 160773, Control_c, 0, 64, 0
1, 160791, Note_on_c, 0, 61, 40
1, 160791, Note_on_c, 0, 64, 40
1, 160791, Note_on_c, 0, 69, 66
1, 160794, Note_off_c, 0, 45, 0
1, 160794, Note_on_c, 0, 45, 53
1, 160802, Note_off_c, 0, 73, 0
1, 160904, Control_c, 0, 64, 127
1, 160932, Note_off_c, 0, 52, 0
1, 160932, Note_on_c, 0, 52, 38
1, 161072, Note_off_c, 0, 64, 0
1, 161072, Note_on_c, 0, 59, 40
1, 161072, Note_on_c, 0, 64, 40
1, 161075, Note_on_c, 0, 68, 68
1, 161075, Note_off_c, 0, 45, 0
1, 161075, Note_on_c, 0, 47, 61
1, 161084, Note_off_c, 0, 61, 0
1, 161084, Note_off_c, 0, 69, 0
1, 161203, Control_c, 0, 64, 0
1, 161222, Note_off_c, 0, 52, 0
1, 161222, Note_on_c, 0, 52, 38
1, 161279, Control_c, 0, 64, 127
1, 161372, Control_c, 0, 64, 0
1, 161372, Control_c, 0, 64, 127
1, 161372, Note_off_c, 0, 59, 0
1, 161375, Note_off_c, 0, 64, 0
1, 161375, Note_off_c, 0, 68, 0
1, 161375, Note_off_c, 0, 47, 0
1, 161378, Note_off_c, 0, 52, 0
1, 161378, Note_on_c, 0, 58, 45
1, 161378, Note_on_c, 0, 64, 40
1, 161381, Note_on_c, 0, 68, 61
1, 161381, Note_on_c, 0, 49, 65
1, 161428, Control_c, 0, 64, 0
1, 161532, Note_on_c, 0, 52, 39
1, 161541, Control_c, 0, 64, 127
1, 161693, Note_off_c, 0, 68, 0
1, 161693, Note_on_c, 0, 66, 58
1, 161693, Note_off_c, 0, 49, 0
1, 161696, Note_on_c, 0, 49, 39
1, 161752, Control_c, 0, 64, 0
1, 161802, Control_c, 0, 64, 127
1, 161825, Note_off_c, 0, 52, 0
1, 161825, Note_on_c, 0, 52, 40
1, 161957, Note_off_c, 0, 58, 0
1, 161957, Note_off_c, 0, 64, 0
1, 161957, Note_on_c, 0, 57, 40
1, 161960, Note_on_c, 0, 64, 40
1, 161960, Note_off_c, 0, 49, 0
1, 161960, Note_on_c, 0, 48, 57
1, 161975, Control_c, 0, 64, 0
1, 162069, Control_c, 0, 64, 127
1, 162082, Note_off_c, 0, 52, 0
1, 162082, Note_on_c, 0, 52, 41
1, 162207, Note_off_c, 0, 66, 0
1, 162207, Note_on_c, 0, 66, 62
1, 162207, Note_off_c, 0, 48, 0
1, 162210, Note_on_c, 0, 48, 42
1, 162356, Note_off_c, 0, 52, 0
1, 162356, Note_on_c, 0, 52, 43
1, 162517, Control_c, 0, 64, 0
1, 162517, Control_c, 0, 64, 127
1, 162517, Note_off_c, 0, 57, 0
1, 162520, Note_off_c, 0, 64, 0
1, 162520, Note_off_c, 0, 66, 0
1, 162520, Note_off_c, 0, 48, 0
1, 162523, Note_off_c, 0, 52, 0
1, 162523, Note_on_c, 0, 57, 40
1, 162523, Note_on_c, 0, 63, 33
1, 162526, Note_on_c, 0, 66, 69
1, 162526, Note_on_c, 0, 47, 41
1, 162602, Control_c, 0, 64, 0
1, 162667, Note_on_c, 0, 54, 30
1, 162714, Control_c, 0, 64, 127
1, 162816, Note_off_c, 0, 63, 0
1, 162816, Note_on_c, 0, 63, 33
1, 162816, Note_on_c, 0, 71, 65
1, 162819, Note_off_c, 0, 47, 0
1, 162819, Note_on_c, 0, 47, 36
1, 162826, Note_off_c, 0, 57, 0
1, 162826, Note_off_c, 0, 66, 0
1, 162941, Note_off_c, 0, 54, 0
1, 162941, Note_on_c, 0, 54, 29
1, 162941, Note_on_c, 0, 57, 34
1, 163060, Control_c, 0, 64, 0
1, 163066, Note_on_c, 0, 70, 59
1, 163066, Note_off_c, 0, 47, 0
1, 163066, Note_on_c, 0, 47, 32
1, 163076, Note_off_c, 0, 71, 0
1, 163178, Control_c, 0, 64, 127
1, 163191, Note_off_c, 0, 54, 0
1, 163191, Note_off_c, 0, 57, 0
1, 163191, Note_on_c, 0, 54, 27
1, 163194, Note_on_c, 0, 57, 31
1, 163316, Note_off_c, 0, 63, 0
1, 163316, Note_on_c, 0, 63, 29
1, 163316, Note_on_c, 0, 71, 51
1, 163319, Note_off_c, 0, 47, 0
1, 163319, Note_on_c, 0, 47, 30
1, 163327, Note_off_c, 0, 70, 0
1, 163425, Control_c, 0, 64, 0
1, 163456, Note_off_c, 0, 54, 0
1, 163456, Note_off_c, 0, 57, 0
1, 163456, Note_on_c, 0, 54, 23
1, 163459, Note_on_c, 0, 57, 28
1, 163487, Note_off_c, 0, 63, 0
1, 163487, Note_off_c, 0, 71, 0
1, 163596, Control_c, 0, 64, 0
1, 163596, Control_c, 0, 64, 0
1, 163596, Control_c, 0, 64, 0
1, 163599, Note_off_c, 0, 47, 0
1, 163599, Note_off_c, 0, 54, 0
1, 163599, Note_off_c, 0, 57, 0
1, 163602, Note_on_c, 0, 64, 55
1, 163602, Note_on_c, 0, 52, 36
1, 163602, Note_on_c, 0, 56, 42
1, 163737, Note_on_c, 0, 59, 36
1, 163862, Note_off_c, 0, 52, 0
1, 163862, Note_off_c, 0, 56, 0
1, 163862, Note_off_c, 0, 59, 0
1, 163865, Note_on_c, 0, 56, 36
1, 163986, Note_on_c, 0, 52, 36
1, 164111, Note_off_c, 0, 64, 0
1, 164111, Note_off_c, 0, 52, 0
1, 164111, Note_off_c, 0, 56, 0
1, 164114, Note_on_c, 0, 51, 42
1, 164199, Control_c, 0, 64, 127
1, 164236, Note_on_c, 0, 59, 36
1, 164361, Note_on_c, 0, 71, 48
1, 164361, Note_on_c, 0, 83, 66
1, 164361, Note_off_c, 0, 51, 0
1, 164364, Note_off_c, 0, 59, 0
1, 164364, Note_on_c, 0, 54, 36
1, 164501, Note_off_c, 0, 54, 0
1, 164501, Note_on_c, 0, 51, 36
1, 164642, Control_c, 0, 64, 0
1, 164642, Control_c, 0, 64, 127
1, 164642, Control_c, 0, 64, 0
1, 164645, Note_off_c, 0, 71, 0
1, 164645, Note_off_c, 0, 83, 0
1, 164645, Note_off_c, 0, 51, 0
1, 164648, Note_on_c, 0, 70, 52
1, 164648, Note_on_c, 0, 82, 70
1, 164648, Note_on_c, 0, 49, 49
1, 164698, Control_c, 0, 64, 0
1, 164791, Note_on_c, 0, 58, 37
1, 164831, Control_c, 0, 64, 127
1, 164916, Note_off_c, 0, 49, 0
1, 164916, Note_off_c, 0, 58, 0
1, 164916, Note_on_c, 0, 54, 37
1, 165041, Note_off_c, 0, 54, 0
1, 165041, Note_on_c, 0, 49, 37
1, 165166, Note_off_c, 0, 70, 0
1, 165166, Note_off_c, 0, 82, 0
1, 165166, Note_on_c, 0, 76, 57
1, 165169, Note_on_c, 0, 88, 75
1, 165169, Note_off_c, 0, 49, 0
1, 165169, Note_on_c, 0, 42, 49
1, 165172, Control_c, 0, 64, 0
1, 165290, Note_on_c, 0, 58, 37
1, 165301, Control_c, 0, 64, 127
1, 165415, Note_off_c, 0, 42, 0
1, 165415, Note_off_c, 0, 58, 0
1, 165415, Note_on_c, 0, 54, 37
1, 165540, Note_off_c, 0, 54, 0
1, 165540, Note_on_c, 0, 49, 37
1, 165665, Control_c, 0, 64, 0
1, 165665, Control_c, 0, 64, 127
1, 165665, Control_c, 0, 64, 0
1, 165668, Note_off_c, 0, 76, 0
1, 165668, Note_off_c, 0, 88, 0
1, 165668, Note_off_c, 0, 49, 0
1, 165671, Note_on_c, 0, 75, 52
1, 165671, Note_on_c, 0, 87, 70
1, 165671, Note_on_c, 0, 47, 56
1, 165723, Control_c, 0, 64, 0
1, 165790, Note_on_c, 0, 59, 42
1, 165806, Control_c, 0, 64, 127
1, 165914, Note_off_c, 0, 47, 0
1, 165914, Note_off_c, 0, 59, 0
1, 165914, Note_on_c, 0, 54, 42
1, 166039, Note_off_c, 0, 54, 0
1, 166039, Note_on_c, 0, 51, 42
1, 166164, Note_off_c, 0, 51, 0
1, 166164, Note_on_c, 0, 47, 49
1, 166289, Note_on_c, 0, 59, 42
1, 166414, Note_off_c, 0, 75, 0
1, 166414, Note_off_c, 0, 87, 0
1, 166414, Note_on_c, 0, 69, 49
1, 166417, Note_on_c, 0, 81, 67
1, 166417, Note_off_c, 0, 47, 0
1, 166417, Note_off_c, 0, 59, 0
1, 166420, Note_on_c, 0, 49, 49
1, 166443, Control_c, 0, 64, 0
1, 166554, Note_on_c, 0, 57, 42
1, 166562, Control_c, 0, 64, 127
1, 166694, Control_c, 0, 64, 0
1, 166694, Control_c, 0, 64, 127
1, 166694, Control_c, 0, 64, 0
1, 166697, Note_off_c, 0, 69, 0
1, 166697, Note_off_c, 0, 81, 0
1, 166697, Note_off_c, 0, 49, 0
1, 166700, Note_off_c, 0, 57, 0
1, 166700, Note_on_c, 0, 68, 52
1, 166700, Note_on_c, 0, 80, 70
1, 166703, Note_on_c, 0, 47, 56
1, 166765, Control_c, 0, 64, 0
1, 166844, Note_on_c, 0, 56, 42
1, 166908, Control_c, 0, 64, 127
1, 166969, Note_off_c, 0, 47, 0
1, 166969, Note_off_c, 0, 56, 0
1, 166969, Note_on_c, 0, 52, 42
1, 167094, Note_off_c, 0, 52, 0
1, 167094, Note_on_c, 0, 47, 42
1, 167219, Note_off_c, 0, 68, 0
1, 167219, Note_off_c, 0, 80, 0
1, 167219, Note_on_c, 0, 74, 42
1, 167222, Note_on_c, 0, 86, 70
1, 167222, Note_off_c, 0, 47, 0
1, 167222, Note_on_c, 0, 40, 56
1, 167236, Control_c, 0, 64, 0
1, 167342, Control_c, 0, 64, 127
1, 167342, Note_on_c, 0, 56, 42
1, 167468, Note_off_c, 0, 40, 0
1, 167468, Note_off_c, 0, 56, 0
1, 167468, Note_on_c, 0, 52, 42
1, 167593, Note_off_c, 0, 52, 0
1, 167593, Note_on_c, 0, 47, 42
1, 167718, Control_c, 0, 64, 0
1, 167718, Control_c, 0, 64, 127
1, 167718, Control_c, 0, 64, 0
1, 167721, Note_off_c, 0, 74, 0
1, 167721, Note_off_c, 0, 86, 0
1, 167721, Note_off_c, 0, 47, 0
1, 167724, Note_on_c, 0, 73, 38
1, 167724, Note_on_c, 0, 85, 66
1, 167724, Note_on_c, 0, 45, 56
1, 167789, Control_c, 0, 64, 0
1, 167843, Note_on_c, 0, 57, 42
1, 167906, Control_c, 0, 64, 127
1, 167967, Note_off_c, 0, 45, 0
1, 167967, Note_off_c, 0, 57, 0
1, 167967, Note_on_c, 0, 52, 42
1, 168092, Note_off_c, 0, 52, 0
1, 168092, Note_on_c, 0, 49, 42
1, 168211, Control_c, 0, 64, 0
1, 168217, Note_off_c, 0, 49, 0
1, 168217, Note_on_c, 0, 45, 42
1, 168342, Note_on_c, 0, 52, 42
1, 168364, Control_c, 0, 64, 127
1, 168467, Note_off_c, 0, 73, 0
1, 168467, Note_off_c, 0, 85, 0
1, 168467, Note_on_c, 0, 73, 49
1, 168470, Note_on_c, 0, 85, 67
1, 168470, Note_off_c, 0, 45, 0
1, 168470, Note_off_c, 0, 52, 0
1, 168473, Note_on_c, 0, 45, 60
1, 168607, Note_on_c, 0, 52, 42
1, 168747, Control_c, 0, 64, 0
1, 168747, Control_c, 0, 64, 127
1, 168747, Control_c, 0, 64, 0
1, 168750, Note_off_c, 0, 73, 0
1, 168750, Note_off_c, 0, 85, 0
1, 168750, Note_off_c, 0, 45, 0
1, 168753, Note_off_c, 0, 52, 0
1, 168753, Note_on_c, 0, 72, 52
1, 168753, Note_on_c, 0, 84, 70
1, 168756, Note_on_c, 0, 44, 60
1, 168793, Control_c, 0, 64, 0
1, 168899, Control_c, 0, 64, 127
1, 168908, Note_on_c, 0, 52, 42
1, 169068, Note_off_c, 0, 72, 0
1, 169068, Note_off_c, 0, 84, 0
1, 169068, Note_on_c, 0, 73, 49
1, 169071, Note_on_c, 0, 85, 67
1, 169071, Note_off_c, 0, 44, 0
1, 169071, Note_off_c, 0, 52, 0
1, 169074, Note_on_c, 0, 45, 42
1, 169102, Control_c, 0, 64, 0
1, 169201, Note_on_c, 0, 52, 42
1, 169201, Control_c, 0, 64, 127
1, 169314, Control_c, 0, 64, 0
1, 169333, Note_off_c, 0, 73, 0
1, 169333, Note_off_c, 0, 85, 0
1, 169333, Note_on_c, 0, 69, 52
1, 169336, Note_on_c, 0, 81, 70
1, 169336, Note_off_c, 0, 45, 0
1, 169336, Note_off_c, 0, 52, 0
1, 169339, Note_on_c, 0, 45, 49
1, 169339, Note_on_c, 0, 49, 42
1, 169445, Control_c, 0, 64, 127
1, 169473, Note_off_c, 0, 49, 0
1, 169473, Note_on_c, 0, 52, 42
1, 169613, Note_off_c, 0, 69, 0
1, 169613, Note_off_c, 0, 81, 0
1, 169613, Note_on_c, 0, 68, 56
1, 169616, Note_on_c, 0, 80, 74
1, 169616, Note_off_c, 0, 45, 0
1, 169616, Note_off_c, 0, 52, 0
1, 169619, Note_on_c, 0, 47, 48
1, 169619, Note_on_c, 0, 52, 42
1, 169736, Control_c, 0, 64, 0
1, 169754, Note_on_c, 0, 56, 42
1, 169808, Control_c, 0, 64, 127
1, 169894, Control_c, 0, 64, 0
1, 169894, Control_c, 0, 64, 127
1, 169894, Control_c, 0, 64, 0
1, 169897, Note_off_c, 0, 68, 0
1, 169897, Note_off_c, 0, 80, 0
1, 169897, Note_off_c, 0, 47, 0
1, 169900, Note_off_c, 0, 52, 0
1, 169900, Note_off_c, 0, 56, 0
1, 169900, Note_on_c, 0, 68, 58
1, 169903, Note_on_c, 0, 80, 76
1, 169903, Note_on_c, 0, 49, 61
1, 169903, Note_on_c, 0, 52, 46
1, 169951, Control_c, 0, 64, 0
1, 170055, Note_off_c, 0, 52, 0
1, 170055, Note_on_c, 0, 58, 45
1, 170063, Control_c, 0, 64, 127
1, 170215, Note_off_c, 0, 68, 0
1, 170215, Note_off_c, 0, 80, 0
1, 170215, Note_on_c, 0, 66, 46
1, 170218, Note_on_c, 0, 78, 64
1, 170218, Note_off_c, 0, 49, 0
1, 170218, Note_off_c, 0, 58, 0
1, 170221, Note_on_c, 0, 49, 43
1, 170221, Note_on_c, 0, 52, 43
1, 170274, Control_c, 0, 64, 0
1, 170324, Control_c, 0, 64, 127
1, 170347, Note_off_c, 0, 52, 0
1, 170347, Note_on_c, 0, 58, 42
1, 170479, Note_off_c, 0, 49, 0
1, 170479, Note_off_c, 0, 58, 0
1, 170479, Note_on_c, 0, 48, 51
1, 170482, Note_on_c, 0, 52, 42
1, 170498, Control_c, 0, 64, 0
1, 170598, Control_c, 0, 64, 127
1, 170612, Note_off_c, 0, 52, 0
1, 170612, Note_on_c, 0, 57, 41
1, 170744, Note_off_c, 0, 66, 0
1, 170744, Note_off_c, 0, 78, 0
1, 170744, Note_on_c, 0, 66, 50
1, 170747, Note_on_c, 0, 78, 68
1, 170747, Note_off_c, 0, 48, 0
1, 170747, Note_off_c, 0, 57, 0
1, 170750, Note_on_c, 0, 48, 40
1, 170750, Note_on_c, 0, 52, 40
1, 170893, Note_off_c, 0, 52, 0
1, 170893, Note_on_c, 0, 57, 39
1, 171043, Control_c, 0, 64, 0
1, 171043, Control_c, 0, 64, 127
1, 171043, Control_c, 0, 64, 0
1, 171046, Note_off_c, 0, 66, 0
1, 171046, Note_off_c, 0, 78, 0
1, 171046, Note_off_c, 0, 48, 0
1, 171049, Note_off_c, 0, 57, 0
1, 171049, Note_on_c, 0, 66, 48
1, 171049, Note_on_c, 0, 78, 65
1, 171052, Note_on_c, 0, 47, 53
1, 171052, Note_on_c, 0, 51, 42
1, 171128, Control_c, 0, 64, 0
1, 171193, Note_on_c, 0, 57, 42
1, 171240, Control_c, 0, 64, 127
1, 171343, Note_off_c, 0, 66, 0
1, 171343, Note_off_c, 0, 78, 0
1, 171343, Note_on_c, 0, 71, 47
1, 171346, Note_on_c, 0, 83, 62
1, 171346, Note_off_c, 0, 47, 0
1, 171346, Note_off_c, 0, 51, 0
1, 171349, Note_off_c, 0, 57, 0
1, 171349, Note_on_c, 0, 47, 41
1, 171349, Note_on_c, 0, 51, 41
1, 171452, Control_c, 0, 64, 127
1, 171475, Note_off_c, 0, 47, 0
1, 171475, Note_off_c, 0, 51, 0
1, 171475, Note_on_c, 0, 57, 40
1, 171607, Note_off_c, 0, 71, 0
1, 171607, Note_off_c, 0, 83, 0
1, 171607, Note_on_c, 0, 70, 46
1, 171610, Note_on_c, 0, 82, 61
1, 171610, Note_off_c, 0, 57, 0
1, 171610, Note_on_c, 0, 47, 39
1, 171613, Note_on_c, 0, 51, 39
1, 171739, Note_off_c, 0, 47, 0
1, 171739, Note_off_c, 0, 51, 0
1, 171739, Note_on_c, 0, 57, 39
1, 171871, Note_off_c, 0, 70, 0
1, 171871, Note_off_c, 0, 82, 0
1, 171871, Note_on_c, 0, 71, 45
1, 171874, Note_on_c, 0, 83, 59
1, 171874, Note_off_c, 0, 57, 0
1, 171874, Note_on_c, 0, 47, 38
1, 171877, Note_on_c, 0, 51, 38
1, 171980, Control_c, 0, 64, 0
1, 172012, Note_off_c, 0, 47, 0
1, 172012, Note_off_c, 0, 51, 0
1, 172012, Note_on_c, 0, 57, 37
1, 172152, Control_c, 0, 64, 0
1, 172152, Control_c, 0, 64, 0
1, 172152, Note_off_c, 0, 71, 0
1, 172155, Note_off_c, 0, 83, 0
1, 172155, Note_off_c, 0, 57, 0
1, 172155, Note_on_c, 0, 64, 43
1, 172158, Note_on_c, 0, 76, 58
1, 172158, Note_on_c, 0, 52, 37
1, 172158, Note_on_c, 0, 56, 42
1, 172265, Note_off_c, 0, 52, 0
1, 172265, Note_off_c, 0, 56, 0
1, 172293, Note_on_c, 0, 52, 41
1, 172393, Note_off_c, 0, 52, 0
1, 172417, Note_on_c, 0, 51, 40
1, 172518, Note_off_c, 0, 51, 0
1, 172542, Note_on_c, 0, 49, 39
1, 172643, Note_off_c, 0, 49, 0
1, 172667, Note_off_c, 0, 64, 0
1, 172667, Note_off_c, 0, 76, 0
1, 172667, Note_on_c, 0, 47, 37
1, 172767, Note_off_c, 0, 47, 0
1, 172792, Note_on_c, 0, 45, 36
1, 172892, Note_off_c, 0, 45, 0
1, 172917, Note_on_c, 0, 64, 53
1, 172917, Note_on_c, 0, 44, 34
1, 173030, Note_off_c, 0, 44, 0
1, 173057, Note_on_c, 0, 66, 58
1, 173057, Note_on_c, 0, 42, 33
1, 173068, Note_off_c, 0, 64, 0
1, 173170, Note_off_c, 0, 42, 0
1, 173197, Control_c, 0, 64, 0
1, 173197, Control_c, 0, 64, 0
1, 173197, Control_c, 0, 64, 0
1, 173200, Control_c, 0, 64, 0
1, 173200, Note_on_c, 0, 68, 66
1, 173200, Note_on_c, 0, 64, 46
1, 173203, Note_on_c, 0, 40, 33
1, 173208, Note_off_c, 0, 66, 0
1, 173330, Control_c, 0, 64, 127
1, 173338, Note_off_c, 0, 64, 0
1, 173338, Note_on_c, 0, 59, 42
1, 173463, Note_off_c, 0, 59, 0
1, 173463, Note_on_c, 0, 64, 38
1, 173463, Note_off_c, 0, 40, 0
1, 173587, Note_off_c, 0, 64, 0
1, 173587, Note_on_c, 0, 59, 34
1, 173712, Note_off_c, 0, 68, 0
1, 173712, Note_off_c, 0, 59, 0
1, 173712, Note_on_c, 0, 68, 45
1, 173715, Note_on_c, 0, 71, 69
1, 173853, Note_off_c, 0, 68, 0
1, 173853, Note_on_c, 0, 59, 46
1, 173993, Note_off_c, 0, 59, 0
1, 173993, Note_on_c, 0, 66, 34
1, 173993, Note_on_c, 0, 69, 65
1, 174003, Note_off_c, 0, 71, 0
1, 174031, Control_c, 0, 64, 0
1, 174118, Note_off_c, 0, 66, 0
1, 174118, Note_on_c, 0, 59, 38
1, 174160, Control_c, 0, 64, 127
1, 174243, Control_c, 0, 64, 0
1, 174243, Control_c, 0, 64, 0
1, 174243, Control_c, 0, 64, 0
1, 174246, Control_c, 0, 64, 0
1, 174246, Note_off_c, 0, 59, 0
1, 174246, Note_on_c, 0, 68, 66
1, 174249, Note_on_c, 0, 64, 46
1, 174249, Note_on_c, 0, 35, 43
1, 174255, Note_off_c, 0, 69, 0
1, 174258, Control_c, 0, 64, 127
1, 174333, Control_c, 0, 64, 0
1, 174403, Note_off_c, 0, 64, 0
1, 174403, Note_on_c, 0, 59, 42
1, 174424, Control_c, 0, 64, 127
1, 174563, Note_off_c, 0, 59, 0
1, 174563, Note_on_c, 0, 63, 38
1, 174563, Note_on_c, 0, 66, 60
1, 174566, Note_off_c, 0, 35, 0
1, 174574, Note_off_c, 0, 68, 0
1, 174622, Control_c, 0, 64, 0
1, 174696, Note_off_c, 0, 63, 0
1, 174696, Note_on_c, 0, 59, 34
1, 174710, Control_c, 0, 64, 127
1, 174828, Note_off_c, 0, 59, 0
1, 174828, Note_on_c, 0, 63, 34
1, 174828, Note_off_c, 0, 66, 0
1, 174831, Note_on_c, 0, 66, 60
1, 174953, Note_off_c, 0, 63, 0
1, 174953, Note_on_c, 0, 59, 38
1, 175077, Note_off_c, 0, 59, 0
1, 175077, Note_on_c, 0, 64, 42
1, 175077, Note_on_c, 0, 68, 62
1, 175087, Note_off_c, 0, 66, 0
1, 175115, Control_c, 0, 64, 0
1, 175202, Note_off_c, 0, 64, 0
1, 175202, Note_on_c, 0, 59, 40
1, 175221, Control_c, 0, 64, 127
1, 175327, Control_c, 0, 64, 0
1, 175327, Control_c, 0, 64, 0
1, 175327, Control_c, 0, 64, 127
1, 175330, Control_c, 0, 64, 0
1, 175330, Note_off_c, 0, 59, 0
1, 175330, Note_on_c, 0, 69, 66
1, 175333, Note_on_c, 0, 64, 38
1, 175333, Note_on_c, 0, 37, 42
1, 175338, Note_off_c, 0, 68, 0
1, 175380, Control_c, 0, 64, 0
1, 175446, Control_c, 0, 64, 127
1, 175467, Note_off_c, 0, 64, 0
1, 175467, Note_on_c, 0, 59, 40
1, 175608, Note_off_c, 0, 59, 0
1, 175608, Note_on_c, 0, 64, 42
1, 175608, Note_on_c, 0, 73, 69
1, 175619, Note_off_c, 0, 69, 0
1, 175619, Note_off_c, 0, 37, 0
1, 175748, Note_off_c, 0, 64, 0
1, 175748, Note_on_c, 0, 59, 43
1, 175856, Control_c, 0, 64, 0
1, 175889, Note_off_c, 0, 59, 0
1, 175889, Note_on_c, 0, 66, 46
1, 175889, Note_on_c, 0, 71, 66
1, 175892, Note_on_c, 0, 39, 46
1, 175899, Note_off_c, 0, 73, 0
1, 175957, Control_c, 0, 64, 127
1, 176021, Note_off_c, 0, 66, 0
1, 176021, Note_on_c, 0, 59, 42
1, 176153, Note_off_c, 0, 59, 0
1, 176153, Note_on_c, 0, 63, 38
1, 176153, Note_on_c, 0, 66, 60
1, 176156, Note_on_c, 0, 35, 42
1, 176163, Note_off_c, 0, 71, 0
1, 176163, Note_off_c, 0, 39, 0
1, 176214, Control_c, 0, 64, 0
1, 176278, Note_off_c, 0, 63, 0
1, 176278, Note_on_c, 0, 59, 34
1, 176317, Control_c, 0, 64, 127
1, 176438, Control_c, 0, 64, 0
1, 176438, Control_c, 0, 64, 0
1, 176438, Control_c, 0, 64, 127
1, 176441, Control_c, 0, 64, 0
1, 176441, Note_off_c, 0, 59, 0
1, 176441, Note_on_c, 0, 59, 32
1, 176444, Note_on_c, 0, 64, 32
1, 176444, Note_on_c, 0, 68, 52
1, 176444, Note_on_c, 0, 40, 42
1, 176451, Note_off_c, 0, 66, 0
1, 176451, Note_off_c, 0, 35, 0
1, 176544, Control_c, 0, 64, 0
1, 176695, Control_c, 0, 64, 127
1, 176759, Note_off_c, 0, 59, 0
1, 176759, Note_off_c, 0, 64, 0
1, 176759, Note_off_c, 0, 68, 0
1, 176762, Note_on_c, 0, 64, 51
1, 176769, Note_off_c, 0, 40, 0
1, 176891, Note_on_c, 0, 59, 49
1, 176901, Note_off_c, 0, 64, 0
1, 176957, Note_on_c, 0, 78, 48
1, 177017, Control_c, 0, 64, 0
1, 177023, Note_off_c, 0, 78, 0
1, 177023, Note_on_c, 0, 76, 58
1, 177023, Note_on_c, 0, 64, 47
1, 177034, Note_off_c, 0, 59, 0
1, 177164, Note_on_c, 0, 75, 58
1, 177164, Note_on_c, 0, 59, 46
1, 177173, Note_off_c, 0, 76, 0
1, 177173, Note_off_c, 0, 64, 0
1, 177197, Control_c, 0, 64, 127
1, 177288, Note_on_c, 0, 76, 58
1, 177288, Note_on_c, 0, 64, 43
1, 177298, Note_off_c, 0, 75, 0
1, 177298, Note_off_c, 0, 59, 0
1, 177413, Note_on_c, 0, 78, 62
1, 177413, Note_on_c, 0, 59, 41
1, 177423, Note_off_c, 0, 76, 0
1, 177423, Note_off_c, 0, 64, 0
1, 177476, Note_on_c, 0, 81, 48
1, 177491, Control_c, 0, 64, 0
1, 177538, Control_c, 0, 64, 0
1, 177538, Control_c, 0, 64, 0
1, 177538, Control_c, 0, 64, 0
1, 177541, Control_c, 0, 64, 0
1, 177541, Control_c, 0, 64, 0
1, 177541, Note_off_c, 0, 81, 0
1, 177544, Note_on_c, 0, 80, 60
1, 177544, Note_on_c, 0, 64, 49
1, 177548, Note_off_c, 0, 78, 0
1, 177548, Note_off_c, 0, 59, 0
1, 177656, Control_c, 0, 64, 127
1, 177663, Note_on_c, 0, 78, 64
1, 177663, Note_on_c, 0, 59, 42
1, 177673, Note_off_c, 0, 80, 0
1, 177673, Note_off_c, 0, 64, 0
1, 177788, Note_on_c, 0, 80, 67
1, 177788, Note_on_c, 0, 64, 42
1, 177797, Note_off_c, 0, 78, 0
1, 177797, Note_off_c, 0, 59, 0
1, 177912, Note_on_c, 0, 81, 70
1, 177912, Note_on_c, 0, 59, 43
1, 177926, Note_off_c, 0, 80, 0
1, 177926, Note_off_c, 0, 64, 0
1, 178061, Control_c, 0, 64, 0
1, 178085, Note_on_c, 0, 71, 51
1, 178085, Note_on_c, 0, 83, 75
1, 178085, Note_on_c, 0, 68, 49
1, 178096, Note_off_c, 0, 81, 0
1, 178096, Note_off_c, 0, 59, 0
1, 178226, Note_on_c, 0, 59, 43
1, 178237, Note_off_c, 0, 68, 0
1, 178237, Control_c, 0, 64, 127
1, 178366, Note_on_c, 0, 69, 52
1, 178366, Note_on_c, 0, 81, 70
1, 178366, Note_on_c, 0, 66, 49
1, 178376, Note_off_c, 0, 71, 0
1, 178376, Note_off_c, 0, 83, 0
1, 178376, Note_off_c, 0, 59, 0
1, 178406, Control_c, 0, 64, 0
1, 178498, Note_on_c, 0, 59, 45
1, 178509, Note_off_c, 0, 66, 0
1, 178543, Control_c, 0, 64, 127
1, 178630, Control_c, 0, 64, 0
1, 178630, Control_c, 0, 64, 0
1, 178630, Control_c, 0, 64, 0
1, 178633, Control_c, 0, 64, 0
1, 178633, Control_c, 0, 64, 0
1, 178633, Note_on_c, 0, 68, 56
1, 178636, Note_on_c, 0, 80, 74
1, 178636, Note_on_c, 0, 64, 51
1, 178644, Note_off_c, 0, 69, 0
1, 178644, Note_off_c, 0, 81, 0
1, 178644, Note_off_c, 0, 59, 0
1, 178647, Control_c, 0, 64, 127
1, 178728, Control_c, 0, 64, 0
1, 178803, Note_on_c, 0, 59, 45
1, 178813, Note_off_c, 0, 64, 0
1, 178819, Control_c, 0, 64, 127
1, 178928, Note_on_c, 0, 66, 48
1, 178928, Note_on_c, 0, 78, 66
1, 178928, Note_on_c, 0, 63, 50
1, 178938, Note_off_c, 0, 68, 0
1, 178938, Note_off_c, 0, 80, 0
1, 178938, Note_off_c, 0, 59, 0
1, 178987, Control_c, 0, 64, 0
1, 179060, Note_on_c, 0, 59, 45
1, 179070, Note_off_c, 0, 63, 0
1, 179073, Control_c, 0, 64, 127
1, 179185, Note_off_c, 0, 66, 0
1, 179185, Note_off_c, 0, 78, 0
1, 179185, Note_on_c, 0, 66, 52
1, 179188, Note_on_c, 0, 78, 70
1, 179188, Note_on_c, 0, 63, 52
1, 179195, Note_off_c, 0, 59, 0
1, 179310, Note_on_c, 0, 59, 45
1, 179319, Note_off_c, 0, 63, 0
1, 179434, Note_on_c, 0, 68, 55
1, 179434, Note_on_c, 0, 80, 73
1, 179434, Note_on_c, 0, 65, 52
1, 179444, Note_off_c, 0, 66, 0
1, 179444, Note_off_c, 0, 78, 0
1, 179444, Note_off_c, 0, 59, 0
1, 179473, Control_c, 0, 64, 0
1, 179559, Note_on_c, 0, 59, 46
1, 179569, Note_off_c, 0, 65, 0
1, 179578, Control_c, 0, 64, 127
1, 179684, Control_c, 0, 64, 0
1, 179684, Control_c, 0, 64, 0
1, 179684, Control_c, 0, 64, 127
1, 179687, Control_c, 0, 64, 0
1, 179687, Control_c, 0, 64, 0
1, 179687, Note_on_c, 0, 69, 61
1, 179690, Note_on_c, 0, 81, 79
1, 179690, Note_on_c, 0, 66, 58
1, 179694, Note_off_c, 0, 68, 0
1, 179694, Note_off_c, 0, 80, 0
1, 179694, Note_off_c, 0, 59, 0
1, 179734, Control_c, 0, 64, 0
1, 179796, Control_c, 0, 64, 127
1, 179816, Note_on_c, 0, 59, 46
1, 179827, Note_off_c, 0, 66, 0
1, 179948, Note_on_c, 0, 73, 65
1, 179948, Note_on_c, 0, 85, 86
1, 179948, Note_on_c, 0, 69, 61
1, 179959, Note_off_c, 0, 69, 0
1, 179959, Note_off_c, 0, 81, 0
1, 179959, Note_off_c, 0, 59, 0
1, 180081, Note_on_c, 0, 59, 47
1, 180091, Note_off_c, 0, 69, 0
1, 180182, Control_c, 0, 64, 0
1, 180213, Note_on_c, 0, 71, 65
1, 180213, Note_on_c, 0, 83, 86
1, 180213, Note_on_c, 0, 68, 64
1, 180223, Note_off_c, 0, 73, 0
1, 180223, Note_off_c, 0, 85, 0
1, 180223, Note_off_c, 0, 59, 0
1, 180253, Control_c, 0, 64, 0
1, 180345, Note_on_c, 0, 59, 47
1, 180355, Note_off_c, 0, 68, 0
1, 180374, Note_off_c, 0, 71, 0
1, 180374, Note_off_c, 0, 83, 0
1, 180477, Note_on_c, 0, 75, 69
1, 180477, Note_on_c, 0, 81, 69
1, 180477, Note_on_c, 0, 87, 94
1, 180480, Note_on_c, 0, 66, 67
1, 180488, Note_off_c, 0, 59, 0
1, 180550, Note_off_c, 0, 75, 0
1, 180550, Note_off_c, 0, 81, 0
1, 180550, Note_off_c, 0, 87, 0
1, 180617, Note_on_c, 0, 59, 48
1, 180628, Note_off_c, 0, 66, 0
1, 180758, Control_c, 0, 64, 0
1, 180758, Control_c, 0, 64, 0
1, 180758, Control_c, 0, 64, 0
1, 180761, Control_c, 0, 64, 0
1, 180761, Control_c, 0, 64, 0
1, 180761, Note_on_c, 0, 76, 80
1, 180764, Note_on_c, 0, 80, 80
1, 180764, Note_on_c, 0, 88, 98
1, 180764, Note_on_c, 0, 64, 70
1, 180767, Note_off_c, 0, 59, 0
1, 180864, Control_c, 0, 64, 127
1, 180883, Note_off_c, 0, 64, 0
1, 180883, Note_on_c, 0, 59, 67
1, 181007, Note_off_c, 0, 59, 0
1, 181007, Note_on_c, 0, 56, 65
1, 181132, Note_off_c, 0, 56, 0
1, 181132, Note_on_c, 0, 59, 61
1, 181257, Note_off_c, 0, 76, 0
1, 181257, Note_off_c, 0, 80, 0
1, 181257, Note_off_c, 0, 88, 0
1, 181260, Note_off_c, 0, 59, 0
1, 181260, Note_on_c, 0, 52, 74
1, 181286, Control_c, 0, 64, 0
1, 181322, Note_off_c, 0, 52, 0
1, 181507, Note_on_c, 0, 64, 69
1, 181507, Note_on_c, 0, 68, 85
1, 181579, Note_off_c, 0, 64, 0
1, 181579, Note_off_c, 0, 68, 0
1, 181787, Control_c, 0, 64, 0
1, 181787, Control_c, 0, 64, 0
1, 181787, Control_c, 0, 64, 0
1, 181790, Control_c, 0, 64, 0
1, 181790, Note_on_c, 0, 64, 78
1, 181790, Note_on_c, 0, 68, 94
1, 181793, Note_on_c, 0, 61, 70
1, 181893, Control_c, 0, 64, 127
1, 181912, Note_off_c, 0, 61, 0
1, 181912, Note_on_c, 0, 56, 69
1, 182037, Note_off_c, 0, 56, 0
1, 182037, Note_on_c, 0, 52, 67
1, 182162, Note_off_c, 0, 52, 0
1, 182162, Note_on_c, 0, 56, 66
1, 182287, Note_off_c, 0, 56, 0
1, 182287, Note_on_c, 0, 49, 69
1, 182316, Control_c, 0, 64, 0
1, 182351, Note_off_c, 0, 49, 0
1, 182390, Note_off_c, 0, 64, 0
1, 182390, Note_off_c, 0, 68, 0
1, 182536, Note_on_c, 0, 64, 46
1, 182536, Note_on_c, 0, 68, 46
1, 182536, Note_on_c, 0, 76, 66
1, 182539, Note_on_c, 0, 61, 52
1, 182609, Note_off_c, 0, 64, 0
1, 182609, Note_off_c, 0, 68, 0
1, 182609, Note_off_c, 0, 76, 0
1, 182612, Note_off_c, 0, 61, 0
1, 182817, Control_c, 0, 64, 0
1, 182817, Control_c, 0, 64, 0
1, 182817, Control_c, 0, 64, 0
1, 182820, Control_c, 0, 64, 0
1, 182820, Control_c, 0, 64, 0
1, 182820, Note_on_c, 0, 63, 51
1, 182823, Note_on_c, 0, 66, 51
1, 182823, Note_on_c, 0, 68, 51
1, 182823, Note_on_c, 0, 75, 74
1, 182826, Note_on_c, 0, 60, 47
1, 182923, Control_c, 0, 64, 127
1, 182942, Note_off_c, 0, 60, 0
1, 182942, Note_on_c, 0, 56, 43
1, 183067, Note_off_c, 0, 56, 0
1, 183067, Note_on_c, 0, 51, 41
1, 183191, Note_off_c, 0, 51, 0
1, 183191, Note_on_c, 0, 56, 38
1, 183316, Note_off_c, 0, 56, 0
1, 183316, Note_on_c, 0, 48, 50
1, 183345, Control_c, 0, 64, 0
1, 183381, Note_off_c, 0, 48, 0
1, 183419, Note_off_c, 0, 63, 0
1, 183419, Note_off_c, 0, 66, 0
1, 183419, Note_off_c, 0, 68, 0
1, 183422, Note_off_c, 0, 75, 0
1, 183566, Note_on_c, 0, 63, 80
1, 183566, Note_on_c, 0, 66, 80
1, 183566, Note_on_c, 0, 68, 88
1, 183569, Note_on_c, 0, 60, 80
1, 183639, Note_off_c, 0, 63, 0
1, 183639, Note_off_c, 0, 66, 0
1, 183639, Note_off_c, 0, 68, 0
1, 183642, Note_off_c, 0, 60, 0
1, 183847, Control_c, 0, 64, 0
1, 183847, Control_c, 0, 64, 0
1, 183847, Control_c, 0, 64, 0
1, 183850, Control_c, 0, 64, 0
1, 183850, Control_c, 0, 64, 0
1, 183850, Note_on_c, 0, 62, 80
1, 183853, Note_on_c, 0, 64, 80
1, 183853, Note_on_c, 0, 68, 97
1, 183853, Note_on_c, 0, 59, 76
1, 183952, Control_c, 0, 64, 127
1, 183971, Note_off_c, 0, 59, 0
1, 183971, Note_on_c, 0, 56, 73
1, 184096, Note_off_c, 0, 56, 0
1, 184096, Note_on_c, 0, 52, 70
1, 184221, Note_off_c, 0, 52, 0
1, 184221, Note_on_c, 0, 56, 67
1, 184346, Note_off_c, 0, 56, 0
1, 184346, Note_on_c, 0, 47, 79
1, 184375, Control_c, 0, 64, 0
1, 184411, Note_off_c, 0, 47, 0
1, 184449, Note_off_c, 0, 62, 0
1, 184449, Note_off_c, 0, 64, 0
1, 184449, Note_off_c, 0, 68, 0
1, 184595, Note_on_c, 0, 62, 48
1, 184595, Note_on_c, 0, 64, 48
1, 184595, Note_on_c, 0, 74, 66
1, 184598, Note_on_c, 0, 59, 40
1, 184668, Note_off_c, 0, 62, 0
1, 184668, Note_off_c, 0, 64, 0
1, 184668, Note_off_c, 0, 74, 0
1, 184671, Note_off_c, 0, 59, 0
1, 184876, Control_c, 0, 64, 0
1, 184876, Control_c, 0, 64, 0
1, 184876, Control_c, 0, 64, 0
1, 184879, Control_c, 0, 64, 0
1, 184879, Control_c, 0, 64, 0
1, 184879, Note_on_c, 0, 61, 50
1, 184882, Note_on_c, 0, 64, 50
1, 184882, Note_on_c, 0, 73, 70
1, 184882, Note_on_c, 0, 57, 47
1, 184982, Control_c, 0, 64, 127
1, 185001, Note_off_c, 0, 57, 0
1, 185001, Note_on_c, 0, 52, 43
1, 185126, Note_off_c, 0, 52, 0
1, 185126, Note_on_c, 0, 49, 41
1, 185251, Note_off_c, 0, 49, 0
1, 185251, Note_on_c, 0, 52, 38
1, 185375, Note_off_c, 0, 52, 0
1, 185375, Note_on_c, 0, 45, 50
1, 185405, Control_c, 0, 64, 0
1, 185440, Note_off_c, 0, 45, 0
1, 185479, Note_off_c, 0, 61, 0
1, 185479, Note_off_c, 0, 64, 0
1, 185479, Note_off_c, 0, 73, 0
1, 185625, Note_on_c, 0, 61, 78
1, 185625, Note_on_c, 0, 57, 76
1, 185698, Note_off_c, 0, 61, 0
1, 185698, Note_off_c, 0, 57, 0
1, 185906, Control_c, 0, 64, 0
1, 185906, Control_c, 0, 64, 0
1, 185906, Control_c, 0, 64, 0
1, 185909, Control_c, 0, 64, 0
1, 185909, Control_c, 0, 64, 0
1, 185909, Note_on_c, 0, 59, 80
1, 185912, Note_on_c, 0, 61, 96
1, 185912, Note_on_c, 0, 56, 76
1, 186012, Control_c, 0, 64, 127
1, 186031, Note_off_c, 0, 56, 0
1, 186031, Note_on_c, 0, 53, 73
1, 186155, Note_off_c, 0, 53, 0
1, 186155, Note_on_c, 0, 49, 70
1, 186280, Note_off_c, 0, 49, 0
1, 186280, Note_on_c, 0, 53, 67
1, 186405, Note_off_c, 0, 53, 0
1, 186405, Note_on_c, 0, 44, 79
1, 186434, Control_c, 0, 64, 0
1, 186470, Note_off_c, 0, 44, 0
1, 186508, Note_off_c, 0, 59, 0
1, 186508, Note_off_c, 0, 61, 0
1, 186655, Note_on_c, 0, 59, 37
1, 186655, Note_on_c, 0, 61, 37
1, 186655, Note_on_c, 0, 71, 60
1, 186658, Note_on_c, 0, 56, 40
1, 186727, Note_off_c, 0, 59, 0
1, 186727, Note_off_c, 0, 61, 0
1, 186727, Note_off_c, 0, 71, 0
1, 186730, Note_off_c, 0, 56, 0
1, 186935, Control_c, 0, 64, 0
1, 186935, Control_c, 0, 64, 0
1, 186935, Control_c, 0, 64, 0
1, 186938, Control_c, 0, 64, 0
1, 186938, Control_c, 0, 64, 0
1, 186938, Note_on_c, 0, 57, 45
1, 186941, Note_on_c, 0, 61, 45
1, 186941, Note_on_c, 0, 69, 65
1, 186941, Note_on_c, 0, 54, 47
1, 187041, Control_c, 0, 64, 127
1, 187060, Note_off_c, 0, 54, 0
1, 187060, Note_on_c, 0, 49, 43
1, 187185, Note_off_c, 0, 49, 0
1, 187185, Note_on_c, 0, 45, 41
1, 187310, Note_off_c, 0, 45, 0
1, 187310, Note_on_c, 0, 49, 38
1, 187435, Note_off_c, 0, 49, 0
1, 187435, Note_on_c, 0, 42, 50
1, 187464, Control_c, 0, 64, 0
1, 187499, Note_off_c, 0, 42, 0
1, 187538, Note_off_c, 0, 57, 0
1, 187538, Note_off_c, 0, 61, 0
1, 187538, Note_off_c, 0, 69, 0
1, 187684, Note_on_c, 0, 73, 71
1, 187684, Note_on_c, 0, 78, 89
1, 187684, Note_on_c, 0, 81, 71
1, 187687, Note_on_c, 0, 66, 80
1, 187757, Note_off_c, 0, 73, 0
1, 187757, Note_off_c, 0, 78, 0
1, 187757, Note_off_c, 0, 81, 0
1, 187760, Note_off_c, 0, 66, 0
1, 187965, Control_c, 0, 64, 0
1, 187965, Control_c, 0, 64, 0
1, 187965, Control_c, 0, 64, 0
1, 187968, Control_c, 0, 64, 0
1, 187968, Control_c, 0, 64, 0
1, 187968, Note_on_c, 0, 71, 76
1, 187971, Note_on_c, 0, 78, 76
1, 187971, Note_on_c, 0, 81, 95
1, 187971, Note_on_c, 0, 63, 80
1, 188071, Control_c, 0, 64, 127
1, 188090, Note_off_c, 0, 63, 0
1, 188090, Note_on_c, 0, 59, 78
1, 188215, Note_off_c, 0, 59, 0
1, 188215, Note_on_c, 0, 54, 75
1, 188339, Note_off_c, 0, 54, 0
1, 188339, Note_on_c, 0, 59, 73
1, 188464, Note_off_c, 0, 59, 0
1, 188464, Note_on_c, 0, 51, 85
1, 188493, Control_c, 0, 64, 0
1, 188529, Note_off_c, 0, 51, 0
1, 188567, Note_off_c, 0, 71, 0
1, 188567, Note_off_c, 0, 78, 0
1, 188567, Note_off_c, 0, 81, 0
1, 188714, Note_on_c, 0, 66, 76
1, 188714, Note_on_c, 0, 69, 94
1, 188714, Note_on_c, 0, 51, 80
1, 188787, Note_off_c, 0, 66, 0
1, 188787, Note_off_c, 0, 69, 0
1, 188787, Note_off_c, 0, 51, 0
1, 188995, Control_c, 0, 64, 0
1, 188995, Control_c, 0, 64, 0
1, 188995, Control_c, 0, 64, 0
1, 188998, Control_c, 0, 64, 0
1, 188998, Note_on_c, 0, 64, 86
1, 188998, Note_on_c, 0, 69, 104
1, 189001, Note_on_c, 0, 48, 80
1, 189100, Control_c, 0, 64, 127
1, 189119, Note_off_c, 0, 48, 0
1, 189119, Note_on_c, 0, 45, 78
1, 189135, Control_c, 0, 64, 127
1, 189244, Note_off_c, 0, 45, 0
1, 189244, Note_on_c, 0, 40, 75
1, 189369, Note_off_c, 0, 40, 0
1, 189369, Note_on_c, 0, 45, 73
1, 189394, Control_c, 0, 64, 0
1, 189494, Note_off_c, 0, 45, 0
1, 189494, Note_on_c, 0, 36, 88
1, 189559, Note_off_c, 0, 36, 0
1, 189617, Control_c, 0, 64, 0
1, 189743, Note_off_c, 0, 64, 0
1, 189743, Note_off_c, 0, 69, 0
1, 189743, Note_on_c, 0, 69, 75
1, 189746, Note_on_c, 0, 76, 75
1, 189746, Note_on_c, 0, 81, 93
1, 189746, Note_on_c, 0, 48, 80
1, 189749, Note_on_c, 0, 60, 90
1, 189821, Note_off_c, 0, 69, 0
1, 189821, Note_off_c, 0, 76, 0
1, 189821, Note_off_c, 0, 81, 0
1, 189824, Note_off_c, 0, 48, 0
1, 189824, Note_off_c, 0, 60, 0
1, 190043, Control_c, 0, 64, 0
1, 190043, Control_c, 0, 64, 0
1, 190043, Control_c, 0, 64, 0
1, 190046, Control_c, 0, 64, 0
1, 190046, Control_c, 0, 64, 0
1, 190046, Control_c, 0, 64, 0
1, 190049, Note_on_c, 0, 69, 86
1, 190049, Note_on_c, 0, 75, 86
1, 190049, Note_on_c, 0, 78, 86
1, 190052, Note_on_c, 0, 81, 104
1, 190052, Note_on_c, 0, 47, 80
1, 190052, Note_on_c, 0, 59, 90
1, 190126, Note_off_c, 0, 47, 0
1, 190126, Note_off_c, 0, 59, 0
1, 190179, Control_c, 0, 64, 127
1, 190179, Control_c, 0, 64, 127
1, 190224, Control_c, 0, 64, 127
1, 190224, Control_c, 0, 64, 127
1, 190364, Note_off_c, 0, 69, 0
1, 190364, Note_off_c, 0, 75, 0
1, 190364, Note_off_c, 0, 78, 0
1, 190367, Note_off_c, 0, 81, 0
1, 190367, Note_on_c, 0, 71, 58
1, 190496, Note_off_c, 0, 71, 0
1, 190496, Note_on_c, 0, 73, 55
1, 190628, Note_off_c, 0, 73, 0
1, 190628, Note_on_c, 0, 71, 51
1, 190634, Control_c, 0, 64, 0
1, 190634, Control_c, 0, 64, 0
1, 190669, Control_c, 0, 64, 0
1, 190669, Control_c, 0, 64, 0
1, 190753, Note_off_c, 0, 71, 0
1, 190753, Note_on_c, 0, 73, 49
1, 190798, Control_c, 0, 64, 127
1, 190798, Control_c, 0, 64, 127
1, 190878, Note_off_c, 0, 73, 0
1, 190878, Note_on_c, 0, 71, 46
1, 191002, Note_off_c, 0, 71, 0
1, 191002, Note_on_c, 0, 73, 42
1, 191143, Control_c, 0, 64, 0
1, 191143, Control_c, 0, 64, 0
1, 191143, Control_c, 0, 64, 0
1, 191146, Control_c, 0, 64, 127
1, 191146, Control_c, 0, 64, 127
1, 191146, Control_c, 0, 64, 0
1, 191149, Note_off_c, 0, 73, 0
1, 191149, Note_on_c, 0, 81, 52
1, 191149, Note_on_c, 0, 90, 75
1, 191152, Note_on_c, 0, 71, 38
1, 191152, Note_on_c, 0, 63, 46
1, 191152, Note_on_c, 0, 66, 38
1, 191222, Control_c, 0, 64, 0
1, 191222, Control_c, 0, 64, 0
1, 191283, Note_off_c, 0, 71, 0
1, 191283, Note_on_c, 0, 73, 38
1, 191299, Control_c, 0, 64, 127
1, 191299, Control_c, 0, 64, 127
1, 191408, Note_off_c, 0, 73, 0
1, 191408, Note_on_c, 0, 71, 38
1, 191533, Note_off_c, 0, 71, 0
1, 191533, Note_on_c, 0, 73, 38
1, 191658, Note_off_c, 0, 73, 0
1, 191658, Note_on_c, 0, 71, 38
1, 191782, Note_off_c, 0, 71, 0
1, 191782, Note_on_c, 0, 73, 38
1, 191907, Note_off_c, 0, 81, 0
1, 191907, Note_off_c, 0, 90, 0
1, 191907, Note_on_c, 0, 80, 48
1, 191910, Note_on_c, 0, 88, 66
1, 191910, Note_off_c, 0, 63, 0
1, 191910, Note_off_c, 0, 66, 0
1, 191913, Note_on_c, 0, 64, 46
1, 191913, Note_on_c, 0, 68, 38
1, 191913, Note_off_c, 0, 73, 0
1, 191916, Note_on_c, 0, 71, 38
1, 191916, Control_c, 0, 64, 0
1, 191916, Control_c, 0, 64, 0
1, 192016, Control_c, 0, 64, 127
1, 192016, Control_c, 0, 64, 127
1, 192048, Note_off_c, 0, 71, 0
1, 192048, Note_on_c, 0, 73, 38
1, 192188, Control_c, 0, 64, 0
1, 192188, Control_c, 0, 64, 0
1, 192188, Control_c, 0, 64, 0
1, 192191, Control_c, 0, 64, 0
1, 192191, Control_c, 0, 64, 127
1, 192191, Control_c, 0, 64, 127
1, 192194, Control_c, 0, 64, 127
1, 192194, Control_c, 0, 64, 0
1, 192194, Control_c, 0, 64, 0
1, 192197, Note_off_c, 0, 80, 0
1, 192197, Note_off_c, 0, 88, 0
1, 192197, Note_off_c, 0, 64, 0
1, 192200, Note_off_c, 0, 68, 0
1, 192200, Note_off_c, 0, 73, 0
1, 192200, Note_on_c, 0, 80, 52
1, 192203, Note_on_c, 0, 88, 70
1, 192203, Note_on_c, 0, 71, 38
1, 192203, Note_on_c, 0, 64, 46
1, 192206, Note_on_c, 0, 68, 38
1, 192273, Control_c, 0, 64, 0
1, 192287, Control_c, 0, 64, 0
1, 192287, Control_c, 0, 64, 0
1, 192338, Note_off_c, 0, 71, 0
1, 192338, Note_on_c, 0, 73, 38
1, 192357, Control_c, 0, 64, 127
1, 192414, Control_c, 0, 64, 127
1, 192414, Control_c, 0, 64, 127
1, 192488, Note_off_c, 0, 80, 0
1, 192488, Note_off_c, 0, 88, 0
1, 192488, Note_on_c, 0, 78, 42
1, 192491, Note_on_c, 0, 87, 60
1, 192491, Note_off_c, 0, 64, 0
1, 192491, Note_off_c, 0, 68, 0
1, 192494, Note_on_c, 0, 66, 46
1, 192494, Note_on_c, 0, 69, 38
1, 192494, Note_off_c, 0, 73, 0
1, 192497, Note_on_c, 0, 71, 38
1, 192543, Control_c, 0, 64, 0
1, 192543, Control_c, 0, 64, 0
1, 192612, Note_off_c, 0, 71, 0
1, 192612, Note_on_c, 0, 73, 38
1, 192637, Control_c, 0, 64, 127
1, 192637, Control_c, 0, 64, 127
1, 192737, Note_off_c, 0, 78, 0
1, 192737, Note_off_c, 0, 87, 0
1, 192737, Note_on_c, 0, 78, 47
1, 192740, Note_on_c, 0, 87, 65
1, 192740, Note_off_c, 0, 66, 0
1, 192740, Note_off_c, 0, 69, 0
1, 192743, Note_on_c, 0, 66, 46
1, 192743, Note_on_c, 0, 69, 38
1, 192743, Note_off_c, 0, 73, 0
1, 192746, Note_on_c, 0, 71, 38
1, 192755, Control_c, 0, 64, 0
1, 192755, Control_c, 0, 64, 0
1, 192814, Control_c, 0, 64, 127
1, 192814, Control_c, 0, 64, 127
1, 192862, Note_off_c, 0, 71, 0
1, 192862, Note_on_c, 0, 73, 38
1, 192987, Note_off_c, 0, 78, 0
1, 192987, Note_off_c, 0, 87, 0
1, 192987, Note_on_c, 0, 80, 51
1, 192990, Note_on_c, 0, 88, 69
1, 192990, Note_off_c, 0, 66, 0
1, 192990, Note_off_c, 0, 69, 0
1, 192993, Note_on_c, 0, 64, 46
1, 192993, Note_on_c, 0, 68, 38
1, 192993, Note_off_c, 0, 73, 0
1, 192996, Note_on_c, 0, 71, 38
1, 192996, Control_c, 0, 64, 0
1, 192996, Control_c, 0, 64, 0
1, 192999, Control_c, 0, 64, 0
1, 193089, Control_c, 0, 64, 127
1, 193114, Control_c, 0, 64, 127
1, 193114, Control_c, 0, 64, 127
1, 193119, Note_off_c, 0, 71, 0
1, 193119, Note_on_c, 0, 73, 38
1, 193251, Control_c, 0, 64, 0
1, 193251, Control_c, 0, 64, 0
1, 193251, Control_c, 0, 64, 0
1, 193254, Control_c, 0, 64, 0
1, 193254, Control_c, 0, 64, 127
1, 193254, Control_c, 0, 64, 0
1, 193257, Control_c, 0, 64, 127
1, 193257, Control_c, 0, 64, 0
1, 193257, Control_c, 0, 64, 127
1, 193260, Control_c, 0, 64, 0
1, 193260, Control_c, 0, 64, 0
1, 193260, Note_off_c, 0, 80, 0
1, 193263, Note_off_c, 0, 88, 0
1, 193263, Note_off_c, 0, 64, 0
1, 193263, Note_off_c, 0, 68, 0
1, 193266, Note_off_c, 0, 73, 0
1, 193266, Note_on_c, 0, 81, 56
1, 193266, Note_on_c, 0, 90, 78
1, 193269, Note_on_c, 0, 71, 38
1, 193269, Note_on_c, 0, 63, 46
1, 193269, Note_on_c, 0, 66, 38
1, 193336, Control_c, 0, 64, 0
1, 193336, Control_c, 0, 64, 0
1, 193350, Control_c, 0, 64, 0
1, 193401, Note_off_c, 0, 71, 0
1, 193401, Note_on_c, 0, 73, 38
1, 193417, Control_c, 0, 64, 127
1, 193417, Control_c, 0, 64, 127
1, 193464, Control_c, 0, 64, 127
1, 193526, Note_off_c, 0, 73, 0
1, 193526, Note_on_c, 0, 71, 38
1, 193581, Control_c, 0, 64, 0
1, 193650, Note_off_c, 0, 71, 0
1, 193650, Note_on_c, 0, 73, 38
1, 193675, Control_c, 0, 64, 127
1, 193775, Note_off_c, 0, 73, 0
1, 193775, Note_on_c, 0, 71, 38
1, 193793, Control_c, 0, 64, 0
1, 193852, Control_c, 0, 64, 127
1, 193900, Note_off_c, 0, 71, 0
1, 193900, Note_on_c, 0, 73, 38
1, 194025, Note_off_c, 0, 81, 0
1, 194025, Note_off_c, 0, 90, 0
1, 194025, Note_on_c, 0, 80, 52
1, 194028, Note_on_c, 0, 88, 70
1, 194028, Note_off_c, 0, 63, 0
1, 194028, Note_off_c, 0, 66, 0
1, 194031, Note_on_c, 0, 64, 46
1, 194031, Note_on_c, 0, 68, 38
1, 194031, Note_off_c, 0, 73, 0
1, 194034, Note_on_c, 0, 71, 38
1, 194034, Control_c, 0, 64, 0
1, 194034, Control_c, 0, 64, 0
1, 194037, Control_c, 0, 64, 0
1, 194134, Control_c, 0, 64, 127
1, 194134, Control_c, 0, 64, 127
1, 194160, Control_c, 0, 64, 127
1, 194165, Note_off_c, 0, 71, 0
1, 194165, Note_on_c, 0, 73, 38
1, 194306, Control_c, 0, 64, 0
1, 194306, Control_c, 0, 64, 0
1, 194306, Control_c, 0, 64, 0
1, 194309, Control_c, 0, 64, 0
1, 194309, Control_c, 0, 64, 127
1, 194309, Control_c, 0, 64, 0
1, 194312, Control_c, 0, 64, 127
1, 194312, Control_c, 0, 64, 0
1, 194312, Control_c, 0, 64, 127
1, 194315, Control_c, 0, 64, 0
1, 194315, Control_c, 0, 64, 0
1, 194315, Control_c, 0, 64, 0
1, 194318, Note_off_c, 0, 80, 0
1, 194318, Note_off_c, 0, 88, 0
1, 194318, Note_off_c, 0, 64, 0
1, 194321, Note_off_c, 0, 68, 0
1, 194321, Note_off_c, 0, 73, 0
1, 194321, Note_on_c, 0, 78, 52
1, 194324, Note_on_c, 0, 87, 70
1, 194324, Note_on_c, 0, 71, 38
1, 194324, Note_on_c, 0, 66, 46
1, 194327, Note_on_c, 0, 69, 38
1, 194404, Control_c, 0, 64, 0
1, 194404, Control_c, 0, 64, 0
1, 194404, Control_c, 0, 64, 0
1, 194455, Note_off_c, 0, 71, 0
1, 194455, Note_on_c, 0, 73, 38
1, 194531, Control_c, 0, 64, 127
1, 194531, Control_c, 0, 64, 127
1, 194531, Control_c, 0, 64, 127
1, 194605, Note_off_c, 0, 78, 0
1, 194605, Note_off_c, 0, 87, 0
1, 194605, Note_on_c, 0, 81, 57
1, 194608, Note_on_c, 0, 90, 77
1, 194608, Note_off_c, 0, 66, 0
1, 194608, Note_off_c, 0, 69, 0
1, 194611, Note_on_c, 0, 63, 46
1, 194611, Note_on_c, 0, 66, 38
1, 194611, Note_off_c, 0, 73, 0
1, 194614, Note_on_c, 0, 71, 38
1, 194661, Control_c, 0, 64, 0
1, 194661, Control_c, 0, 64, 0
1, 194661, Control_c, 0, 64, 0
1, 194730, Note_off_c, 0, 71, 0
1, 194730, Note_on_c, 0, 73, 38
1, 194755, Control_c, 0, 64, 127
1, 194755, Control_c, 0, 64, 127
1, 194755, Control_c, 0, 64, 127
1, 194855, Note_off_c, 0, 81, 0
1, 194855, Note_off_c, 0, 90, 0
1, 194855, Note_on_c, 0, 80, 56
1, 194858, Note_on_c, 0, 88, 75
1, 194858, Note_off_c, 0, 63, 0
1, 194858, Note_off_c, 0, 66, 0
1, 194861, Note_on_c, 0, 64, 46
1, 194861, Note_on_c, 0, 68, 38
1, 194861, Note_off_c, 0, 73, 0
1, 194864, Note_on_c, 0, 71, 38
1, 194872, Control_c, 0, 64, 0
1, 194872, Control_c, 0, 64, 0
1, 194872, Control_c, 0, 64, 0
1, 194931, Control_c, 0, 64, 127
1, 194931, Control_c, 0, 64, 127
1, 194931, Control_c, 0, 64, 127
1, 194980, Note_off_c, 0, 71, 0
1, 194980, Note_on_c, 0, 73, 38
1, 195104, Note_off_c, 0, 80, 0
1, 195104, Note_off_c, 0, 88, 0
1, 195104, Note_on_c, 0, 75, 55
1, 195107, Note_on_c, 0, 78, 55
1, 195107, Note_on_c, 0, 87, 74
1, 195107, Note_off_c, 0, 64, 0
1, 195110, Note_off_c, 0, 68, 0
1, 195110, Note_on_c, 0, 66, 46
1, 195110, Note_on_c, 0, 69, 38
1, 195113, Note_off_c, 0, 73, 0
1, 195113, Note_on_c, 0, 71, 38
1, 195113, Control_c, 0, 64, 0
1, 195116, Control_c, 0, 64, 0
1, 195116, Control_c, 0, 64, 0
1, 195225, Control_c, 0, 64, 127
1, 195225, Control_c, 0, 64, 127
1, 195225, Control_c, 0, 64, 127
1, 195229, Note_off_c, 0, 71, 0
1, 195229, Note_on_c, 0, 73, 38
1, 195354, Control_c, 0, 64, 0
1, 195354, Control_c, 0, 64, 0
1, 195354, Control_c, 0, 64, 0
1, 195357, Control_c, 0, 64, 0
1, 195357, Control_c, 0, 64, 127
1, 195357, Control_c, 0, 64, 0
1, 195360, Control_c, 0, 64, 0
1, 195360, Control_c, 0, 64, 127
1, 195360, Control_c, 0, 64, 0
1, 195363, Control_c, 0, 64, 0
1, 195363, Control_c, 0, 64, 127
1, 195363, Control_c, 0, 64, 0
1, 195366, Control_c, 0, 64, 0
1, 195366, Control_c, 0, 64, 0
1, 195366, Note_off_c, 0, 75, 0
1, 195369, Note_off_c, 0, 78, 0
1, 195369, Note_off_c, 0, 87, 0
1, 195369, Note_off_c, 0, 66, 0
1, 195372, Note_off_c, 0, 69, 0
1, 195372, Note_off_c, 0, 73, 0
1, 195372, Note_on_c, 0, 76, 52
1, 195375, Note_on_c, 0, 88, 75
1, 195375, Note_on_c, 0, 68, 46
1, 195375, Note_on_c, 0, 71, 38
1, 195453, Control_c, 0, 64, 0
1, 195453, Control_c, 0, 64, 0
1, 195453, Control_c, 0, 64, 0
1, 195504, Note_off_c, 0, 71, 0
1, 195504, Note_on_c, 0, 76, 38
1, 195580, Control_c, 0, 64, 127
1, 195580, Control_c, 0, 64, 127
1, 195580, Control_c, 0, 64, 127
1, 195653, Note_off_c, 0, 76, 0
1, 195653, Note_off_c, 0, 88, 0
1, 195653, Note_on_c, 0, 87, 70
1, 195656, Note_off_c, 0, 68, 0
1, 195656, Note_off_c, 0, 76, 0
1, 195656, Note_on_c, 0, 71, 46
1, 195709, Control_c, 0, 64, 0
1, 195709, Control_c, 0, 64, 0
1, 195709, Control_c, 0, 64, 0
1, 195778, Note_on_c, 0, 76, 38
1, 195803, Control_c, 0, 64, 127
1, 195803, Control_c, 0, 64, 127
1, 195803, Control_c, 0, 64, 127
1, 195903, Note_off_c, 0, 87, 0
1, 195903, Note_on_c, 0, 85, 70
1, 195903, Note_off_c, 0, 71, 0
1, 195906, Note_off_c, 0, 76, 0
1, 195906, Note_on_c, 0, 69, 46
1, 195921, Control_c, 0, 64, 0
1, 195921, Control_c, 0, 64, 0
1, 195921, Control_c, 0, 64, 0
1, 195980, Control_c, 0, 64, 127
1, 195980, Control_c, 0, 64, 127
1, 195980, Control_c, 0, 64, 127
1, 196028, Note_on_c, 0, 76, 38
1, 196153, Note_off_c, 0, 85, 0
1, 196153, Note_on_c, 0, 83, 70
1, 196153, Note_off_c, 0, 69, 0
1, 196156, Note_off_c, 0, 76, 0
1, 196156, Note_on_c, 0, 68, 38
1, 196156, Control_c, 0, 64, 0
1, 196159, Control_c, 0, 64, 0
1, 196159, Control_c, 0, 64, 0
1, 196273, Control_c, 0, 64, 127
1, 196273, Control_c, 0, 64, 127
1, 196273, Control_c, 0, 64, 127
1, 196277, Note_on_c, 0, 76, 38
1, 196402, Control_c, 0, 64, 0
1, 196402, Control_c, 0, 64, 0
1, 196402, Control_c, 0, 64, 0
1, 196405, Control_c, 0, 64, 0
1, 196405, Control_c, 0, 64, 127
1, 196405, Control_c, 0, 64, 0
1, 196408, Control_c, 0, 64, 0
1, 196408, Control_c, 0, 64, 127
1, 196408, Control_c, 0, 64, 0
1, 196411, Control_c, 0, 64, 0
1, 196411, Control_c, 0, 64, 127
1, 196411, Control_c, 0, 64, 0
1, 196414, Note_off_c, 0, 83, 0
1, 196414, Note_off_c, 0, 68, 0
1, 196414, Note_off_c, 0, 76, 0
1, 196417, Note_on_c, 0, 85, 75
1, 196417, Note_on_c, 0, 69, 46
1, 196458, Control_c, 0, 64, 0
1, 196501, Control_c, 0, 64, 0
1, 196501, Control_c, 0, 64, 0
1, 196529, Control_c, 0, 64, 127
1, 196552, Note_on_c, 0, 76, 38
1, 196628, Control_c, 0, 64, 127
1, 196628, Control_c, 0, 64, 127
1, 196702, Note_off_c, 0, 85, 0
1, 196702, Note_on_c, 0, 83, 70
1, 196702, Note_off_c, 0, 69, 0
1, 196705, Note_off_c, 0, 76, 0
1, 196705, Note_on_c, 0, 71, 46
1, 196757, Control_c, 0, 64, 0
1, 196757, Control_c, 0, 64, 0
1, 196827, Note_on_c, 0, 76, 38
1, 196851, Control_c, 0, 64, 127
1, 196851, Control_c, 0, 64, 127
1, 196899, Control_c, 0, 64, 0
1, 196951, Note_off_c, 0, 83, 0
1, 196951, Note_on_c, 0, 81, 70
1, 196951, Note_off_c, 0, 71, 0
1, 196954, Note_off_c, 0, 76, 0
1, 196954, Note_on_c, 0, 73, 46
1, 196969, Control_c, 0, 64, 0
1, 196969, Control_c, 0, 64, 0
1, 197028, Control_c, 0, 64, 127
1, 197028, Control_c, 0, 64, 127
1, 197076, Note_on_c, 0, 76, 38
1, 197201, Note_off_c, 0, 81, 0
1, 197201, Note_on_c, 0, 80, 70
1, 197201, Note_off_c, 0, 73, 0
1, 197204, Note_off_c, 0, 76, 0
1, 197204, Note_on_c, 0, 70, 46
1, 197204, Control_c, 0, 64, 0
1, 197207, Control_c, 0, 64, 0
1, 197328, Control_c, 0, 64, 127
1, 197328, Control_c, 0, 64, 127
1, 197333, Note_on_c, 0, 76, 38
1, 197465, Control_c, 0, 64, 0
1, 197465, Control_c, 0, 64, 0
1, 197465, Control_c, 0, 64, 0
1, 197468, Control_c, 0, 64, 0
1, 197468, Control_c, 0, 64, 127
1, 197468, Control_c, 0, 64, 127
1, 197471, Control_c, 0, 64, 0
1, 197471, Control_c, 0, 64, 0
1, 197471, Note_off_c, 0, 80, 0
1, 197474, Note_off_c, 0, 70, 0
1, 197474, Note_off_c, 0, 76, 0
1, 197474, Note_on_c, 0, 80, 70
1, 197477, Note_on_c, 0, 71, 42
1, 197521, Control_c, 0, 64, 0
1, 197521, Control_c, 0, 64, 0
1, 197592, Control_c, 0, 64, 127
1, 197592, Control_c, 0, 64, 127
1, 197615, Note_on_c, 0, 73, 42
1, 197740, Note_off_c, 0, 73, 0
1, 197740, Note_on_c, 0, 75, 42
1, 197819, Control_c, 0, 64, 127
1, 197865, Note_off_c, 0, 75, 0
1, 197865, Note_on_c, 0, 76, 42
1, 197937, Control_c, 0, 64, 0
1, 197937, Control_c, 0, 64, 0
1, 197989, Note_off_c, 0, 76, 0
1, 197989, Note_on_c, 0, 75, 42
1, 198130, Note_off_c, 0, 75, 0
1, 198130, Note_on_c, 0, 76, 41
1, 198255, Note_off_c, 0, 80, 0
1, 198255, Note_on_c, 0, 81, 64
1, 198255, Note_off_c, 0, 76, 0
1, 198258, Note_on_c, 0, 78, 39
1, 198387, Note_off_c, 0, 81, 0
1, 198387, Note_on_c, 0, 83, 60
1, 198387, Note_off_c, 0, 78, 0
1, 198390, Note_on_c, 0, 80, 38
1, 198536, Control_c, 0, 64, 0
1, 198536, Control_c, 0, 64, 0
1, 198536, Control_c, 0, 64, 0
1, 198539, Control_c, 0, 64, 0
1, 198539, Control_c, 0, 64, 0
1, 198539, Control_c, 0, 64, 0
1, 198542, Control_c, 0, 64, 0
1, 198542, Control_c, 0, 64, 127
1, 198542, Control_c, 0, 64, 0
1, 198545, Control_c, 0, 64, 0
1, 198545, Note_off_c, 0, 83, 0
1, 198545, Note_off_c, 0, 71, 0
1, 198548, Note_off_c, 0, 80, 0
1, 198548, Note_on_c, 0, 78, 57
1, 198548, Note_on_c, 0, 71, 27
1, 198551, Note_on_c, 0, 75, 33
1, 198621, Control_c, 0, 64, 0
1, 198706, Control_c, 0, 64, 127
1, 198719, Note_off_c, 0, 78, 0
1, 198719, Note_off_c, 0, 71, 0
1, 198719, Note_off_c, 0, 75, 0
1, 198836, Note_on_c, 0, 71, 48
1, 198836, Note_on_c, 0, 61, 37
1, 198915, Control_c, 0, 64, 127
1, 198915, Control_c, 0, 64, 127
1, 198961, Note_off_c, 0, 71, 0
1, 198961, Note_on_c, 0, 73, 49
1, 198961, Note_off_c, 0, 61, 0
1, 198964, Note_on_c, 0, 59, 39
1, 199086, Note_off_c, 0, 73, 0
1, 199086, Note_on_c, 0, 71, 50
1, 199086, Note_off_c, 0, 59, 0
1, 199089, Note_on_c, 0, 61, 40
1, 199210, Note_off_c, 0, 71, 0
1, 199210, Note_on_c, 0, 73, 51
1, 199210, Note_off_c, 0, 61, 0
1, 199213, Note_on_c, 0, 59, 42
1, 199335, Note_off_c, 0, 73, 0
1, 199335, Note_on_c, 0, 71, 52
1, 199335, Note_off_c, 0, 59, 0
1, 199338, Note_on_c, 0, 61, 43
1, 199338, Control_c, 0, 64, 0
1, 199444, Control_c, 0, 64, 127
1, 199476, Note_off_c, 0, 71, 0
1, 199476, Note_on_c, 0, 73, 53
1, 199476, Note_off_c, 0, 61, 0
1, 199479, Note_on_c, 0, 59, 46
1, 199616, Control_c, 0, 64, 0
1, 199616, Control_c, 0, 64, 0
1, 199616, Control_c, 0, 64, 0
1, 199619, Control_c, 0, 64, 0
1, 199619, Control_c, 0, 64, 0
1, 199619, Control_c, 0, 64, 0
1, 199622, Control_c, 0, 64, 0
1, 199622, Control_c, 0, 64, 127
1, 199622, Control_c, 0, 64, 0
1, 199625, Control_c, 0, 64, 127
1, 199625, Control_c, 0, 64, 0
1, 199625, Control_c, 0, 64, 127
1, 199628, Control_c, 0, 64, 0
1, 199628, Control_c, 0, 64, 0
1, 199628, Note_off_c, 0, 73, 0
1, 199631, Note_off_c, 0, 59, 0
1, 199631, Note_on_c, 0, 71, 42
1, 199631, Note_on_c, 0, 78, 62
1, 199634, Note_on_c, 0, 81, 84
1, 199634, Note_on_c, 0, 61, 38
1, 199634, Note_on_c, 0, 51, 46
1, 199637, Note_on_c, 0, 54, 38
1, 199701, Control_c, 0, 64, 0
1, 199701, Control_c, 0, 64, 0
1, 199715, Control_c, 0, 64, 0
1, 199766, Note_off_c, 0, 71, 0
1, 199766, Note_on_c, 0, 73, 42
1, 199766, Note_off_c, 0, 61, 0
1, 199769, Note_on_c, 0, 59, 38
1, 199782, Control_c, 0, 64, 127
1, 199782, Control_c, 0, 64, 127
1, 199829, Control_c, 0, 64, 127
1, 199891, Note_off_c, 0, 73, 0
1, 199891, Note_on_c, 0, 71, 42
1, 199891, Note_off_c, 0, 59, 0
1, 199894, Note_on_c, 0, 61, 38
1, 199946, Control_c, 0, 64, 0
1, 200015, Note_off_c, 0, 71, 0
1, 200015, Note_on_c, 0, 73, 42
1, 200015, Note_off_c, 0, 61, 0
1, 200018, Note_on_c, 0, 59, 38
1, 200040, Control_c, 0, 64, 127
1, 200140, Note_off_c, 0, 73, 0
1, 200140, Note_on_c, 0, 71, 42
1, 200140, Note_off_c, 0, 59, 0
1, 200143, Note_on_c, 0, 61, 38
1, 200158, Control_c, 0, 64, 0
1, 200217, Control_c, 0, 64, 127
1, 200265, Note_off_c, 0, 71, 0
1, 200265, Note_on_c, 0, 73, 42
1, 200265, Note_off_c, 0, 61, 0
1, 200268, Note_on_c, 0, 59, 38
1, 200390, Note_off_c, 0, 78, 0
1, 200390, Note_off_c, 0, 81, 0
1, 200390, Note_on_c, 0, 76, 57
1, 200393, Note_on_c, 0, 80, 75
1, 200393, Note_off_c, 0, 73, 0
1, 200393, Note_on_c, 0, 71, 37
1, 200396, Note_off_c, 0, 51, 0
1, 200396, Note_off_c, 0, 54, 0
1, 200396, Note_on_c, 0, 52, 46
1, 200399, Note_on_c, 0, 56, 38
1, 200399, Note_off_c, 0, 59, 0
1, 200399, Note_on_c, 0, 61, 38
1, 200402, Control_c, 0, 64, 0
1, 200402, Control_c, 0, 64, 0
1, 200402, Control_c, 0, 64, 0
1, 200499, Control_c, 0, 64, 127
1, 200499, Control_c, 0, 64, 127
1, 200525, Control_c, 0, 64, 127
1, 200530, Note_off_c, 0, 71, 0
1, 200530, Note_on_c, 0, 73, 42
1, 200530, Note_off_c, 0, 61, 0
1, 200533, Note_on_c, 0, 59, 38
1, 200671, Control_c, 0, 64, 0
1, 200671, Control_c, 0, 64, 0
1, 200671, Control_c, 0, 64, 0
1, 200674, Control_c, 0, 64, 0
1, 200674, Control_c, 0, 64, 0
1, 200674, Control_c, 0, 64, 0
1, 200677, Control_c, 0, 64, 0
1, 200677, Control_c, 0, 64, 127
1, 200677, Control_c, 0, 64, 0
1, 200680, Control_c, 0, 64, 127
1, 200680, Control_c, 0, 64, 0
1, 200680, Control_c, 0, 64, 127
1, 200683, Control_c, 0, 64, 0
1, 200683, Control_c, 0, 64, 0
1, 200683, Control_c, 0, 64, 0
1, 200686, Note_off_c, 0, 76, 0
1, 200686, Note_off_c, 0, 80, 0
1, 200686, Note_off_c, 0, 73, 0
1, 200689, Note_off_c, 0, 52, 0
1, 200689, Note_off_c, 0, 56, 0
1, 200689, Note_off_c, 0, 59, 0
1, 200692, Note_on_c, 0, 71, 42
1, 200692, Note_on_c, 0, 76, 62
1, 200692, Note_on_c, 0, 80, 76
1, 200695, Note_on_c, 0, 61, 38
1, 200695, Note_on_c, 0, 52, 46
1, 200695, Note_on_c, 0, 56, 38
1, 200755, Control_c, 0, 64, 0
1, 200769, Control_c, 0, 64, 0
1, 200769, Control_c, 0, 64, 0
1, 200820, Note_off_c, 0, 71, 0
1, 200820, Note_on_c, 0, 73, 42
1, 200820, Note_off_c, 0, 61, 0
1, 200823, Note_on_c, 0, 59, 38
1, 200840, Control_c, 0, 64, 127
1, 200896, Control_c, 0, 64, 127
1, 200896, Control_c, 0, 64, 127
1, 200970, Note_off_c, 0, 76, 0
1, 200970, Note_off_c, 0, 80, 0
1, 200970, Note_on_c, 0, 75, 57
1, 200973, Note_on_c, 0, 78, 75
1, 200973, Note_off_c, 0, 73, 0
1, 200973, Note_on_c, 0, 71, 37
1, 200976, Note_off_c, 0, 52, 0
1, 200976, Note_off_c, 0, 56, 0
1, 200976, Note_on_c, 0, 54, 47
1, 200979, Note_on_c, 0, 57, 39
1, 200979, Note_off_c, 0, 59, 0
1, 200979, Note_on_c, 0, 61, 39
1, 201026, Control_c, 0, 64, 0
1, 201026, Control_c, 0, 64, 0
1, 201095, Note_off_c, 0, 71, 0
1, 201095, Note_on_c, 0, 73, 43
1, 201095, Note_off_c, 0, 61, 0
1, 201098, Note_on_c, 0, 59, 39
1, 201120, Control_c, 0, 64, 127
1, 201120, Control_c, 0, 64, 127
1, 201220, Note_off_c, 0, 75, 0
1, 201220, Note_off_c, 0, 78, 0
1, 201220, Note_on_c, 0, 75, 61
1, 201223, Note_on_c, 0, 78, 75
1, 201223, Note_off_c, 0, 73, 0
1, 201223, Note_on_c, 0, 71, 41
1, 201226, Note_off_c, 0, 54, 0
1, 201226, Note_off_c, 0, 57, 0
1, 201226, Note_on_c, 0, 54, 48
1, 201229, Note_on_c, 0, 57, 39
1, 201229, Note_off_c, 0, 59, 0
1, 201229, Note_on_c, 0, 61, 39
1, 201237, Control_c, 0, 64, 0
1, 201237, Control_c, 0, 64, 0
1, 201296, Control_c, 0, 64, 127
1, 201296, Control_c, 0, 64, 127
1, 201344, Note_off_c, 0, 71, 0
1, 201344, Note_on_c, 0, 73, 45
1, 201344, Note_off_c, 0, 61, 0
1, 201347, Note_on_c, 0, 59, 40
1, 201469, Note_off_c, 0, 75, 0
1, 201469, Note_off_c, 0, 78, 0
1, 201469, Note_on_c, 0, 76, 66
1, 201472, Note_on_c, 0, 80, 85
1, 201472, Note_off_c, 0, 73, 0
1, 201472, Note_on_c, 0, 71, 45
1, 201475, Note_off_c, 0, 54, 0
1, 201475, Note_off_c, 0, 57, 0
1, 201475, Note_on_c, 0, 52, 49
1, 201478, Note_on_c, 0, 56, 40
1, 201478, Note_off_c, 0, 59, 0
1, 201478, Note_on_c, 0, 61, 40
1, 201481, Control_c, 0, 64, 0
1, 201481, Control_c, 0, 64, 0
1, 201481, Control_c, 0, 64, 0
1, 201572, Control_c, 0, 64, 127
1, 201597, Control_c, 0, 64, 127
1, 201597, Control_c, 0, 64, 127
1, 201601, Note_off_c, 0, 71, 0
1, 201601, Note_on_c, 0, 73, 45
1, 201601, Note_off_c, 0, 61, 0
1, 201604, Note_on_c, 0, 59, 40
1, 201734, Control_c, 0, 64, 0
1, 201734, Control_c, 0, 64, 0
1, 201734, Control_c, 0, 64, 0
1, 201737, Control_c, 0, 64, 0
1, 201737, Control_c, 0, 64, 0
1, 201737, Control_c, 0, 64, 0
1, 201740, Control_c, 0, 64, 0
1, 201740, Control_c, 0, 64, 127
1, 201740, Control_c, 0, 64, 0
1, 201743, Control_c, 0, 64, 0
1, 201743, Control_c, 0, 64, 127
1, 201743, Control_c, 0, 64, 0
1, 201746, Control_c, 0, 64, 0
1, 201746, Control_c, 0, 64, 127
1, 201746, Control_c, 0, 64, 0
1, 201749, Control_c, 0, 64, 0
1, 201749, Control_c, 0, 64, 0
1, 201749, Note_off_c, 0, 76, 0
1, 201752, Note_off_c, 0, 80, 0
1, 201752, Note_off_c, 0, 73, 0
1, 201752, Note_off_c, 0, 52, 0
1, 201755, Note_off_c, 0, 56, 0
1, 201755, Note_off_c, 0, 59, 0
1, 201755, Note_on_c, 0, 71, 46
1, 201758, Note_on_c, 0, 78, 68
1, 201758, Note_on_c, 0, 81, 86
1, 201758, Note_on_c, 0, 61, 41
1, 201761, Note_on_c, 0, 51, 49
1, 201761, Note_on_c, 0, 54, 41
1, 201818, Control_c, 0, 64, 0
1, 201818, Control_c, 0, 64, 0
1, 201832, Control_c, 0, 64, 0
1, 201883, Note_off_c, 0, 71, 0
1, 201883, Note_on_c, 0, 73, 42
1, 201883, Note_off_c, 0, 61, 0
1, 201886, Note_on_c, 0, 59, 38
1, 201899, Control_c, 0, 64, 127
1, 201899, Control_c, 0, 64, 127
1, 201947, Control_c, 0, 64, 127
1, 202008, Note_off_c, 0, 73, 0
1, 202008, Note_on_c, 0, 71, 42
1, 202008, Note_off_c, 0, 59, 0
1, 202011, Note_on_c, 0, 61, 38
1, 202064, Control_c, 0, 64, 0
1, 202133, Note_off_c, 0, 71, 0
1, 202133, Note_on_c, 0, 73, 42
1, 202133, Note_off_c, 0, 61, 0
1, 202136, Note_on_c, 0, 59, 38
1, 202158, Control_c, 0, 64, 127
1, 202258, Note_off_c, 0, 73, 0
1, 202258, Note_on_c, 0, 71, 42
1, 202258, Note_off_c, 0, 59, 0
1, 202261, Note_on_c, 0, 61, 38
1, 202275, Control_c, 0, 64, 0
1, 202334, Control_c, 0, 64, 127
1, 202383, Note_off_c, 0, 71, 0
1, 202383, Note_on_c, 0, 73, 42
1, 202383, Note_off_c, 0, 61, 0
1, 202386, Note_on_c, 0, 59, 38
1, 202507, Note_off_c, 0, 78, 0
1, 202507, Note_off_c, 0, 81, 0
1, 202507, Note_on_c, 0, 76, 62
1, 202510, Note_on_c, 0, 80, 76
1, 202510, Note_off_c, 0, 73, 0
1, 202510, Note_on_c, 0, 71, 42
1, 202513, Note_off_c, 0, 51, 0
1, 202513, Note_off_c, 0, 54, 0
1, 202513, Note_on_c, 0, 52, 46
1, 202516, Note_on_c, 0, 56, 38
1, 202516, Note_off_c, 0, 59, 0
1, 202516, Note_on_c, 0, 61, 38
1, 202519, Control_c, 0, 64, 0
1, 202519, Control_c, 0, 64, 0
1, 202519, Control_c, 0, 64, 0
1, 202616, Control_c, 0, 64, 127
1, 202616, Control_c, 0, 64, 127
1, 202643, Control_c, 0, 64, 127
1, 202648, Note_off_c, 0, 71, 0
1, 202648, Note_on_c, 0, 73, 42
1, 202648, Note_off_c, 0, 61, 0
1, 202651, Note_on_c, 0, 59, 38
1, 202788, Control_c, 0, 64, 0
1, 202788, Control_c, 0, 64, 0
1, 202788, Control_c, 0, 64, 0
1, 202791, Control_c, 0, 64, 0
1, 202791, Control_c, 0, 64, 0
1, 202791, Control_c, 0, 64, 0
1, 202794, Control_c, 0, 64, 127
1, 202794, Control_c, 0, 64, 0
1, 202794, Control_c, 0, 64, 0
1, 202797, Control_c, 0, 64, 127
1, 202797, Control_c, 0, 64, 0
1, 202797, Control_c, 0, 64, 0
1, 202800, Control_c, 0, 64, 127
1, 202800, Control_c, 0, 64, 0
1, 202800, Control_c, 0, 64, 0
1, 202803, Control_c, 0, 64, 0
1, 202803, Control_c, 0, 64, 0
1, 202803, Note_off_c, 0, 76, 0
1, 202806, Note_off_c, 0, 80, 0
1, 202806, Note_off_c, 0, 73, 0
1, 202806, Note_off_c, 0, 52, 0
1, 202809, Note_off_c, 0, 56, 0
1, 202809, Note_off_c, 0, 59, 0
1, 202809, Note_on_c, 0, 75, 57
1, 202812, Note_on_c, 0, 78, 77
1, 202812, Note_on_c, 0, 54, 48
1, 202812, Note_on_c, 0, 57, 38
1, 202887, Control_c, 0, 64, 0
1, 202887, Control_c, 0, 64, 0
1, 202887, Control_c, 0, 64, 0
1, 202938, Note_on_c, 0, 71, 38
1, 202938, Note_on_c, 0, 59, 29
1, 203014, Control_c, 0, 64, 127
1, 203014, Control_c, 0, 64, 127
1, 203014, Control_c, 0, 64, 127
1, 203088, Note_off_c, 0, 75, 0
1, 203088, Note_off_c, 0, 78, 0
1, 203088, Note_on_c, 0, 81, 64
1, 203091, Note_on_c, 0, 85, 86
1, 203091, Note_off_c, 0, 54, 0
1, 203091, Note_off_c, 0, 57, 0
1, 203094, Note_on_c, 0, 47, 49
1, 203094, Note_on_c, 0, 51, 39
1, 203143, Control_c, 0, 64, 0
1, 203143, Control_c, 0, 64, 0
1, 203143, Control_c, 0, 64, 0
1, 203212, Note_off_c, 0, 71, 0
1, 203212, Note_on_c, 0, 71, 38
1, 203212, Note_off_c, 0, 59, 0
1, 203215, Note_on_c, 0, 59, 30
1, 203237, Control_c, 0, 64, 127
1, 203237, Control_c, 0, 64, 127
1, 203237, Control_c, 0, 64, 127
1, 203337, Note_off_c, 0, 81, 0
1, 203337, Note_off_c, 0, 85, 0
1, 203337, Note_on_c, 0, 80, 62
1, 203340, Note_on_c, 0, 83, 85
1, 203340, Note_off_c, 0, 47, 0
1, 203340, Note_off_c, 0, 51, 0
1, 203343, Note_on_c, 0, 49, 50
1, 203343, Note_on_c, 0, 52, 39
1, 203355, Control_c, 0, 64, 0
1, 203355, Control_c, 0, 64, 0
1, 203355, Control_c, 0, 64, 0
1, 203414, Control_c, 0, 64, 127
1, 203414, Control_c, 0, 64, 127
1, 203414, Control_c, 0, 64, 127
1, 203462, Note_off_c, 0, 71, 0
1, 203462, Note_on_c, 0, 71, 39
1, 203462, Note_off_c, 0, 59, 0
1, 203465, Note_on_c, 0, 59, 30
1, 203587, Note_off_c, 0, 80, 0
1, 203587, Note_off_c, 0, 83, 0
1, 203587, Note_on_c, 0, 78, 62
1, 203590, Note_on_c, 0, 81, 85
1, 203590, Note_off_c, 0, 49, 0
1, 203590, Note_off_c, 0, 52, 0
1, 203593, Note_on_c, 0, 51, 51
1, 203593, Note_on_c, 0, 54, 40
1, 203593, Control_c, 0, 64, 0
1, 203596, Control_c, 0, 64, 0
1, 203596, Control_c, 0, 64, 0
1, 203707, Control_c, 0, 64, 127
1, 203707, Control_c, 0, 64, 127
1, 203707, Control_c, 0, 64, 127
1, 203712, Note_off_c, 0, 71, 0
1, 203712, Note_on_c, 0, 71, 39
1, 203712, Note_off_c, 0, 59, 0
1, 203715, Note_on_c, 0, 59, 31
1, 203836, Control_c, 0, 64, 0
1, 203836, Control_c, 0, 64, 0
1, 203836, Control_c, 0, 64, 0
1, 203839, Control_c, 0, 64, 0
1, 203839, Control_c, 0, 64, 127
1, 203839, Control_c, 0, 64, 0
1, 203842, Control_c, 0, 64, 0
1, 203842, Control_c, 0, 64, 0
1, 203842, Control_c, 0, 64, 127
1, 203845, Control_c, 0, 64, 0
1, 203845, Control_c, 0, 64, 0
1, 203845, Control_c, 0, 64, 0
1, 203848, Control_c, 0, 64, 127
1, 203848, Control_c, 0, 64, 0
1, 203848, Control_c, 0, 64, 0
1, 203851, Control_c, 0, 64, 0
1, 203851, Control_c, 0, 64, 0
1, 203851, Note_off_c, 0, 71, 0
1, 203854, Note_off_c, 0, 78, 0
1, 203854, Note_off_c, 0, 81, 0
1, 203854, Note_off_c, 0, 59, 0
1, 203857, Note_off_c, 0, 51, 0
1, 203857, Note_off_c, 0, 54, 0
1, 203857, Note_on_c, 0, 76, 59
1, 203860, Note_on_c, 0, 80, 83
1, 203860, Note_on_c, 0, 52, 57
1, 203860, Note_on_c, 0, 56, 45
1, 203935, Control_c, 0, 64, 0
1, 203935, Control_c, 0, 64, 0
1, 203935, Control_c, 0, 64, 0
1, 203986, Note_on_c, 0, 71, 29
1, 203986, Note_on_c, 0, 59, 31
1, 204062, Control_c, 0, 64, 127
1, 204062, Control_c, 0, 64, 127
1, 204062, Control_c, 0, 64, 127
1, 204136, Note_off_c, 0, 76, 0
1, 204136, Note_off_c, 0, 80, 0
1, 204136, Note_on_c, 0, 80, 60
1, 204139, Note_on_c, 0, 83, 83
1, 204139, Note_off_c, 0, 52, 0
1, 204139, Note_off_c, 0, 56, 0
1, 204142, Note_on_c, 0, 49, 51
1, 204142, Note_on_c, 0, 52, 40
1, 204195, Control_c, 0, 64, 0
1, 204195, Control_c, 0, 64, 0
1, 204195, Control_c, 0, 64, 0
1, 204268, Note_off_c, 0, 71, 0
1, 204268, Note_on_c, 0, 71, 37
1, 204268, Note_off_c, 0, 59, 0
1, 204271, Note_on_c, 0, 59, 30
1, 204294, Control_c, 0, 64, 127
1, 204294, Control_c, 0, 64, 127
1, 204294, Control_c, 0, 64, 127
1, 204400, Note_off_c, 0, 80, 0
1, 204400, Note_off_c, 0, 83, 0
1, 204400, Note_on_c, 0, 78, 59
1, 204403, Note_on_c, 0, 81, 79
1, 204403, Note_off_c, 0, 49, 0
1, 204403, Note_off_c, 0, 52, 0
1, 204406, Note_on_c, 0, 51, 50
1, 204406, Note_on_c, 0, 54, 40
1, 204418, Control_c, 0, 64, 0
1, 204418, Control_c, 0, 64, 0
1, 204418, Control_c, 0, 64, 0
1, 204477, Control_c, 0, 64, 127
1, 204477, Control_c, 0, 64, 127
1, 204477, Control_c, 0, 64, 127
1, 204525, Note_off_c, 0, 71, 0
1, 204525, Note_on_c, 0, 71, 36
1, 204525, Note_off_c, 0, 59, 0
1, 204528, Note_on_c, 0, 59, 30
1, 204650, Note_off_c, 0, 78, 0
1, 204650, Note_off_c, 0, 81, 0
1, 204650, Note_on_c, 0, 76, 57
1, 204653, Note_on_c, 0, 80, 77
1, 204653, Note_off_c, 0, 51, 0
1, 204653, Note_off_c, 0, 54, 0
1, 204656, Note_on_c, 0, 52, 50
1, 204656, Note_on_c, 0, 56, 39
1, 204656, Control_c, 0, 64, 0
1, 204659, Control_c, 0, 64, 0
1, 204659, Control_c, 0, 64, 0
1, 204770, Control_c, 0, 64, 127
1, 204770, Control_c, 0, 64, 127
1, 204770, Control_c, 0, 64, 127
1, 204775, Note_off_c, 0, 71, 0
1, 204775, Note_on_c, 0, 71, 36
1, 204775, Note_off_c, 0, 59, 0
1, 204778, Note_on_c, 0, 59, 30
1, 204899, Control_c, 0, 64, 0
1, 204899, Control_c, 0, 64, 0
1, 204899, Control_c, 0, 64, 0
1, 204902, Control_c, 0, 64, 0
1, 204902, Control_c, 0, 64, 127
1, 204902, Control_c, 0, 64, 0
1, 204905, Control_c, 0, 64, 0
1, 204905, Control_c, 0, 64, 0
1, 204905, Control_c, 0, 64, 127
1, 204908, Control_c, 0, 64, 0
1, 204908, Control_c, 0, 64, 0
1, 204908, Control_c, 0, 64, 0
1, 204911, Control_c, 0, 64, 127
1, 204911, Control_c, 0, 64, 0
1, 204911, Control_c, 0, 64, 0
1, 204914, Control_c, 0, 64, 0
1, 204914, Control_c, 0, 64, 0
1, 204914, Note_off_c, 0, 71, 0
1, 204917, Note_off_c, 0, 76, 0
1, 204917, Note_off_c, 0, 80, 0
1, 204917, Note_off_c, 0, 59, 0
1, 204920, Note_off_c, 0, 52, 0
1, 204920, Note_off_c, 0, 56, 0
1, 204920, Note_on_c, 0, 75, 53
1, 204923, Note_on_c, 0, 78, 73
1, 204923, Note_on_c, 0, 54, 49
1, 204923, Note_on_c, 0, 57, 39
1, 204987, Control_c, 0, 64, 0
1, 204987, Control_c, 0, 64, 0
1, 204987, Control_c, 0, 64, 0
1, 205032, Note_on_c, 0, 71, 34
1, 205032, Note_on_c, 0, 59, 29
1, 205099, Control_c, 0, 64, 127
1, 205099, Control_c, 0, 64, 127
1, 205099, Control_c, 0, 64, 127
1, 205164, Note_off_c, 0, 75, 0
1, 205164, Note_off_c, 0, 78, 0
1, 205164, Note_on_c, 0, 78, 58
1, 205167, Note_on_c, 0, 81, 78
1, 205167, Note_off_c, 0, 54, 0
1, 205167, Note_off_c, 0, 57, 0
1, 205170, Note_on_c, 0, 51, 49
1, 205170, Note_on_c, 0, 54, 39
1, 205219, Control_c, 0, 64, 0
1, 205219, Control_c, 0, 64, 0
1, 205219, Control_c, 0, 64, 0
1, 205289, Note_off_c, 0, 71, 0
1, 205289, Note_on_c, 0, 71, 34
1, 205289, Note_off_c, 0, 59, 0
1, 205292, Note_on_c, 0, 59, 29
1, 205313, Control_c, 0, 64, 127
1, 205313, Control_c, 0, 64, 127
1, 205313, Control_c, 0, 64, 127
1, 205413, Note_off_c, 0, 78, 0
1, 205413, Note_off_c, 0, 81, 0
1, 205413, Note_on_c, 0, 76, 56
1, 205416, Note_on_c, 0, 80, 75
1, 205416, Note_off_c, 0, 51, 0
1, 205416, Note_off_c, 0, 54, 0
1, 205419, Note_on_c, 0, 52, 48
1, 205419, Note_on_c, 0, 56, 38
1, 205433, Control_c, 0, 64, 0
1, 205433, Control_c, 0, 64, 0
1, 205433, Control_c, 0, 64, 0
1, 205499, Control_c, 0, 64, 127
1, 205499, Control_c, 0, 64, 127
1, 205499, Control_c, 0, 64, 127
1, 205554, Note_off_c, 0, 71, 0
1, 205554, Note_on_c, 0, 71, 34
1, 205554, Note_off_c, 0, 59, 0
1, 205557, Note_on_c, 0, 59, 29
1, 205694, Note_off_c, 0, 76, 0
1, 205694, Note_off_c, 0, 80, 0
1, 205694, Note_on_c, 0, 75, 53
1, 205697, Note_on_c, 0, 78, 73
1, 205697, Note_off_c, 0, 52, 0
1, 205697, Note_off_c, 0, 56, 0
1, 205700, Note_on_c, 0, 54, 47
1, 205700, Note_on_c, 0, 57, 37
1, 205700, Control_c, 0, 64, 0
1, 205703, Control_c, 0, 64, 0
1, 205703, Control_c, 0, 64, 0
1, 205839, Control_c, 0, 64, 127
1, 205839, Control_c, 0, 64, 127
1, 205839, Control_c, 0, 64, 127
1, 205844, Note_off_c, 0, 71, 0
1, 205844, Note_on_c, 0, 71, 33
1, 205844, Note_off_c, 0, 59, 0
1, 205847, Note_on_c, 0, 59, 28
1, 206004, Control_c, 0, 64, 0
1, 206004, Control_c, 0, 64, 0
1, 206004, Control_c, 0, 64, 0
1, 206007, Control_c, 0, 64, 0
1, 206007, Control_c, 0, 64, 127
1, 206007, Control_c, 0, 64, 0
1, 206010, Control_c, 0, 64, 0
1, 206010, Control_c, 0, 64, 0
1, 206010, Control_c, 0, 64, 127
1, 206013, Control_c, 0, 64, 0
1, 206013, Control_c, 0, 64, 0
1, 206013, Control_c, 0, 64, 0
1, 206016, Control_c, 0, 64, 127
1, 206016, Control_c, 0, 64, 0
1, 206016, Note_off_c, 0, 71, 0
1, 206019, Note_off_c, 0, 75, 0
1, 206019, Note_off_c, 0, 78, 0
1, 206019, Note_off_c, 0, 59, 0
1, 206022, Note_off_c, 0, 54, 0
1, 206022, Note_off_c, 0, 57, 0
1, 206022, Note_on_c, 0, 76, 71
1, 206025, Note_on_c, 0, 56, 47
1, 206061, Control_c, 0, 64, 0
1, 206103, Control_c, 0, 64, 0
1, 206103, Control_c, 0, 64, 0
1, 206154, Note_on_c, 0, 71, 39
1, 206154, Note_on_c, 0, 59, 28
1, 206230, Control_c, 0, 64, 127
1, 206230, Control_c, 0, 64, 127
1, 206272, Control_c, 0, 64, 127
1, 206304, Note_off_c, 0, 76, 0
1, 206304, Note_on_c, 0, 74, 67
1, 206304, Note_off_c, 0, 56, 0
1, 206307, Note_on_c, 0, 56, 46
1, 206363, Control_c, 0, 64, 0
1, 206363, Control_c, 0, 64, 0
1, 206400, Control_c, 0, 64, 0
1, 206436, Note_off_c, 0, 71, 0
1, 206436, Note_on_c, 0, 65, 38
1, 206436, Note_off_c, 0, 59, 0
1, 206439, Note_on_c, 0, 59, 28
1, 206462, Control_c, 0, 64, 127
1, 206462, Control_c, 0, 64, 127
1, 206562, Control_c, 0, 64, 0
1, 206568, Note_off_c, 0, 74, 0
1, 206568, Note_on_c, 0, 73, 65
1, 206568, Note_off_c, 0, 56, 0
1, 206571, Note_on_c, 0, 56, 46
1, 206588, Control_c, 0, 64, 0
1, 206588, Control_c, 0, 64, 0
1, 206654, Control_c, 0, 64, 127
1, 206654, Control_c, 0, 64, 127
1, 206707, Control_c, 0, 64, 127
1, 206707, Note_off_c, 0, 65, 0
1, 206707, Note_on_c, 0, 65, 38
1, 206707, Note_off_c, 0, 59, 0
1, 206707, Note_on_c, 0, 59, 28
1, 206820, Control_c, 0, 64, 0
1, 206858, Note_off_c, 0, 73, 0
1, 206858, Note_on_c, 0, 73, 64
1, 206858, Note_off_c, 0, 56, 0
1, 206861, Note_on_c, 0, 56, 45
1, 206861, Control_c, 0, 64, 0
1, 206861, Control_c, 0, 64, 0
1, 206937, Control_c, 0, 64, 127
1, 207013, Control_c, 0, 64, 127
1, 207013, Control_c, 0, 64, 127
1, 207019, Note_off_c, 0, 65, 0
1, 207019, Note_on_c, 0, 65, 37
1, 207019, Note_off_c, 0, 59, 0
1, 207022, Note_on_c, 0, 59, 27
1, 207050, Control_c, 0, 64, 0
1, 207223, Control_c, 0, 64, 0
1, 207223, Control_c, 0, 64, 0
1, 207223, Control_c, 0, 64, 0
1, 207226, Control_c, 0, 64, 0
1, 207226, Control_c, 0, 64, 127
1, 207226, Control_c, 0, 64, 127
1, 207229, Control_c, 0, 64, 127
1, 207229, Control_c, 0, 64, 0
1, 207229, Control_c, 0, 64, 0
1, 207232, Note_off_c, 0, 65, 0
1, 207232, Note_off_c, 0, 73, 0
1, 207232, Note_off_c, 0, 59, 0
1, 207235, Note_off_c, 0, 56, 0
1, 207235, Note_on_c, 0, 65, 38
1, 207235, Note_on_c, 0, 73, 52
1, 207238, Note_on_c, 0, 56, 38
1, 207238, Note_on_c, 0, 59, 28
1, 207300, Control_c, 0, 64, 0
1, 207300, Control_c, 0, 64, 0
1, 207300, Control_c, 0, 64, 0
1, 207411, Note_off_c, 0, 65, 0
1, 207411, Note_off_c, 0, 73, 0
1, 207427, Note_on_c, 0, 73, 49
1, 207526, Control_c, 0, 64, 127
1, 207526, Control_c, 0, 64, 127
1, 207526, Control_c, 0, 64, 127
1, 207552, Note_on_c, 0, 75, 52
1, 207552, Note_off_c, 0, 56, 0
1, 207552, Note_off_c, 0, 59, 0
1, 207562, Note_off_c, 0, 73, 0
1, 207643, Control_c, 0, 64, 0
1, 207643, Control_c, 0, 64, 0
1, 207643, Control_c, 0, 64, 0
1, 207677, Note_on_c, 0, 77, 57
1, 207687, Note_off_c, 0, 75, 0
1, 207739, Note_on_c, 0, 80, 48
1, 207796, Control_c, 0, 64, 0
1, 207796, Control_c, 0, 64, 0
1, 207796, Control_c, 0, 64, 0
1, 207802, Note_off_c, 0, 80, 0
1, 207802, Note_on_c, 0, 78, 58
1, 207811, Note_off_c, 0, 77, 0
1, 207925, Control_c, 0, 64, 127
1, 207925, Control_c, 0, 64, 127
1, 207925, Control_c, 0, 64, 127
1, 207925, Note_on_c, 0, 77, 60
1, 207925, Note_on_c, 0, 61, 42
1, 207936, Note_off_c, 0, 78, 0
1, 208019, Control_c, 0, 64, 0
1, 208019, Control_c, 0, 64, 0
1, 208019, Control_c, 0, 64, 0
1, 208051, Note_on_c, 0, 78, 61
1, 208051, Note_on_c, 0, 63, 45
1, 208061, Note_off_c, 0, 77, 0
1, 208061, Note_off_c, 0, 61, 0
1, 208113, Control_c, 0, 64, 127
1, 208113, Control_c, 0, 64, 127
1, 208113, Control_c, 0, 64, 127
1, 208176, Note_on_c, 0, 80, 64
1, 208176, Note_on_c, 0, 65, 46
1, 208186, Note_off_c, 0, 78, 0
1, 208186, Note_off_c, 0, 63, 0
1, 208195, Control_c, 0, 64, 0
1, 208195, Control_c, 0, 64, 0
1, 208195, Control_c, 0, 64, 0
1, 208301, Control_c, 0, 64, 0
1, 208301, Control_c, 0, 64, 0
1, 208301, Control_c, 0, 64, 0
1, 208304, Control_c, 0, 64, 0
1, 208304, Control_c, 0, 64, 127
1, 208304, Control_c, 0, 64, 0
1, 208307, Control_c, 0, 64, 127
1, 208307, Control_c, 0, 64, 0
1, 208307, Control_c, 0, 64, 127
1, 208310, Control_c, 0, 64, 0
1, 208310, Control_c, 0, 64, 0
1, 208310, Note_on_c, 0, 81, 65
1, 208313, Note_on_c, 0, 66, 49
1, 208313, Note_off_c, 0, 80, 0
1, 208313, Note_off_c, 0, 65, 0
1, 208353, Control_c, 0, 64, 0
1, 208353, Control_c, 0, 64, 0
1, 208353, Control_c, 0, 64, 0
1, 208441, Note_on_c, 0, 77, 53
1, 208441, Note_on_c, 0, 61, 53
1, 208451, Note_off_c, 0, 81, 0
1, 208451, Note_off_c, 0, 66, 0
1, 208540, Control_c, 0, 64, 127
1, 208540, Control_c, 0, 64, 127
1, 208540, Control_c, 0, 64, 127
1, 208566, Note_on_c, 0, 78, 56
1, 208566, Note_on_c, 0, 63, 55
1, 208576, Note_off_c, 0, 77, 0
1, 208576, Note_off_c, 0, 61, 0
1, 208657, Control_c, 0, 64, 0
1, 208657, Control_c, 0, 64, 0
1, 208657, Control_c, 0, 64, 0
1, 208691, Note_on_c, 0, 80, 58
1, 208691, Note_on_c, 0, 65, 56
1, 208701, Note_off_c, 0, 78, 0
1, 208701, Note_off_c, 0, 63, 0
1, 208753, Note_on_c, 0, 83, 50
1, 208753, Note_on_c, 0, 68, 48
1, 208810, Control_c, 0, 64, 0
1, 208810, Control_c, 0, 64, 0
1, 208810, Control_c, 0, 64, 0
1, 208816, Note_off_c, 0, 83, 0
1, 208816, Note_on_c, 0, 81, 60
1, 208816, Note_off_c, 0, 68, 0
1, 208819, Note_on_c, 0, 66, 58
1, 208825, Note_off_c, 0, 80, 0
1, 208825, Note_off_c, 0, 65, 0
1, 208939, Control_c, 0, 64, 127
1, 208939, Control_c, 0, 64, 127
1, 208939, Control_c, 0, 64, 127
1, 208939, Note_on_c, 0, 80, 64
1, 208939, Note_on_c, 0, 65, 60
1, 208950, Note_off_c, 0, 81, 0
1, 208950, Note_off_c, 0, 66, 0
1, 209033, Control_c, 0, 64, 0
1, 209033, Control_c, 0, 64, 0
1, 209033, Control_c, 0, 64, 0
1, 209065, Note_on_c, 0, 81, 66
1, 209065, Note_on_c, 0, 66, 61
1, 209075, Note_off_c, 0, 80, 0
1, 209075, Note_off_c, 0, 65, 0
1, 209127, Control_c, 0, 64, 127
1, 209127, Control_c, 0, 64, 127
1, 209127, Control_c, 0, 64, 127
1, 209190, Note_on_c, 0, 83, 68
1, 209190, Note_on_c, 0, 68, 62
1, 209200, Note_off_c, 0, 81, 0
1, 209200, Note_off_c, 0, 66, 0
1, 209209, Control_c, 0, 64, 0
1, 209209, Control_c, 0, 64, 0
1, 209209, Control_c, 0, 64, 0
1, 209315, Control_c, 0, 64, 0
1, 209315, Control_c, 0, 64, 0
1, 209315, Control_c, 0, 64, 0
1, 209318, Control_c, 0, 64, 0
1, 209318, Control_c, 0, 64, 127
1, 209318, Control_c, 0, 64, 0
1, 209321, Control_c, 0, 64, 127
1, 209321, Control_c, 0, 64, 0
1, 209321, Control_c, 0, 64, 127
1, 209324, Control_c, 0, 64, 0
1, 209324, Control_c, 0, 64, 0
1, 209324, Note_on_c, 0, 85, 70
1, 209327, Note_on_c, 0, 69, 64
1, 209327, Note_off_c, 0, 83, 0
1, 209327, Note_off_c, 0, 68, 0
1, 209367, Control_c, 0, 64, 0
1, 209367, Control_c, 0, 64, 0
1, 209367, Control_c, 0, 64, 0
1, 209455, Note_on_c, 0, 83, 68
1, 209455, Note_on_c, 0, 68, 61
1, 209460, Control_c, 0, 64, 127
1, 209466, Note_off_c, 0, 85, 0
1, 209466, Note_off_c, 0, 69, 0
1, 209559, Control_c, 0, 64, 127
1, 209559, Control_c, 0, 64, 127
1, 209587, Note_on_c, 0, 81, 67
1, 209587, Note_on_c, 0, 69, 59
1, 209598, Note_off_c, 0, 83, 0
1, 209598, Note_off_c, 0, 68, 0
1, 209684, Control_c, 0, 64, 0
1, 209684, Control_c, 0, 64, 0
1, 209719, Note_on_c, 0, 80, 65
1, 209719, Note_on_c, 0, 71, 57
1, 209730, Note_off_c, 0, 81, 0
1, 209730, Note_off_c, 0, 69, 0
1, 209845, Control_c, 0, 64, 0
1, 209845, Control_c, 0, 64, 0
1, 209845, Control_c, 0, 64, 0
1, 209852, Note_on_c, 0, 81, 70
1, 209852, Note_on_c, 0, 73, 60
1, 209862, Note_off_c, 0, 80, 0
1, 209862, Note_off_c, 0, 71, 0
1, 209982, Control_c, 0, 64, 127
1, 209982, Control_c, 0, 64, 127
1, 209982, Control_c, 0, 64, 127
1, 209982, Note_on_c, 0, 80, 68
1, 209982, Note_on_c, 0, 71, 58
1, 209994, Note_off_c, 0, 81, 0
1, 209994, Note_off_c, 0, 73, 0
1, 210044, Control_c, 0, 64, 127
1, 210082, Control_c, 0, 64, 0
1, 210082, Control_c, 0, 64, 0
1, 210116, Note_on_c, 0, 78, 67
1, 210116, Note_on_c, 0, 69, 56
1, 210127, Note_off_c, 0, 80, 0
1, 210127, Note_off_c, 0, 71, 0
1, 210185, Control_c, 0, 64, 127
1, 210185, Control_c, 0, 64, 127
1, 210256, Note_on_c, 0, 85, 65
1, 210256, Note_on_c, 0, 70, 53
1, 210268, Note_off_c, 0, 78, 0
1, 210268, Note_off_c, 0, 69, 0
1, 210279, Control_c, 0, 64, 0
1, 210279, Control_c, 0, 64, 0
1, 210406, Control_c, 0, 64, 0
1, 210406, Control_c, 0, 64, 0
1, 210406, Control_c, 0, 64, 0
1, 210409, Control_c, 0, 64, 0
1, 210409, Control_c, 0, 64, 127
1, 210409, Control_c, 0, 64, 0
1, 210412, Control_c, 0, 64, 127
1, 210412, Control_c, 0, 64, 0
1, 210412, Control_c, 0, 64, 127
1, 210415, Control_c, 0, 64, 0
1, 210415, Note_on_c, 0, 80, 68
1, 210415, Note_on_c, 0, 71, 53
1, 210419, Note_off_c, 0, 85, 0
1, 210419, Note_off_c, 0, 70, 0
1, 210466, Control_c, 0, 64, 0
1, 210466, Control_c, 0, 64, 0
1, 210512, Control_c, 0, 64, 0
1, 210567, Note_on_c, 0, 78, 66
1, 210571, Control_c, 0, 64, 127
1, 210571, Control_c, 0, 64, 127
1, 210578, Note_off_c, 0, 80, 0
1, 210651, Control_c, 0, 64, 127
1, 210707, Note_on_c, 0, 76, 65
1, 210707, Note_off_c, 0, 71, 0
1, 210718, Note_off_c, 0, 78, 0
1, 210847, Note_on_c, 0, 83, 62
1, 210860, Note_off_c, 0, 76, 0
1, 211000, Control_c, 0, 64, 0
1, 211000, Control_c, 0, 64, 0
1, 211008, Note_on_c, 0, 78, 65
1, 211008, Note_on_c, 0, 59, 46
1, 211019, Note_off_c, 0, 83, 0
1, 211156, Control_c, 0, 64, 127
1, 211156, Control_c, 0, 64, 127
1, 211156, Note_on_c, 0, 76, 62
1, 211169, Note_off_c, 0, 78, 0
1, 211222, Control_c, 0, 64, 127
1, 211222, Control_c, 0, 64, 127
1, 211298, Note_on_c, 0, 75, 59
1, 211298, Note_off_c, 0, 59, 0
1, 211310, Note_off_c, 0, 76, 0
1, 211458, Note_on_c, 0, 83, 57
1, 211476, Note_off_c, 0, 75, 0
1, 211683, Control_c, 0, 64, 0
1, 211683, Control_c, 0, 64, 0
1, 211683, Control_c, 0, 64, 0
1, 211686, Control_c, 0, 64, 0
1, 211686, Control_c, 0, 64, 127
1, 211686, Control_c, 0, 64, 127
1, 211689, Control_c, 0, 64, 127
1, 211689, Control_c, 0, 64, 0
1, 211689, Control_c, 0, 64, 0
1, 211692, Note_off_c, 0, 83, 0
1, 211692, Note_on_c, 0, 71, 55
1, 211692, Note_on_c, 0, 80, 55
1, 211695, Note_on_c, 0, 83, 70
1, 211695, Note_on_c, 0, 52, 29
1, 211831, Control_c, 0, 64, 0
1, 211831, Control_c, 0, 64, 0
1, 211831, Control_c, 0, 64, 0
1, 211982, Note_on_c, 0, 59, 33
1, 212016, Control_c, 0, 64, 127
1, 212016, Control_c, 0, 64, 127
1, 212016, Control_c, 0, 64, 127
1, 212149, Note_off_c, 0, 52, 0
1, 212149, Note_off_c, 0, 59, 0
1, 212149, Note_on_c, 0, 56, 31
1, 212315, Note_off_c, 0, 56, 0
1, 212315, Note_on_c, 0, 52, 37
1, 212321, Control_c, 0, 64, 0
1, 212432, Control_c, 0, 64, 127
1, 212473, Note_off_c, 0, 52, 0
1, 212473, Note_on_c, 0, 64, 29
1, 212631, Note_off_c, 0, 64, 0
1, 212631, Note_on_c, 0, 59, 27
1, 212788, Control_c, 0, 64, 0
1, 212788, Control_c, 0, 64, 0
1, 212788, Control_c, 0, 64, 0
1, 212791, Control_c, 0, 64, 0
1, 212791, Control_c, 0, 64, 127
1, 212791, Control_c, 0, 64, 0
1, 212794, Control_c, 0, 64, 127
1, 212794, Control_c, 0, 64, 0
1, 212794, Control_c, 0, 64, 127
1, 212797, Control_c, 0, 64, 0
1, 212797, Control_c, 0, 64, 0
1, 212797, Control_c, 0, 64, 0
1, 212800, Note_off_c, 0, 59, 0
1, 212800, Note_on_c, 0, 69, 49
1, 212800, Note_on_c, 0, 78, 49
1, 212803, Note_on_c, 0, 81, 70
1, 212803, Note_on_c, 0, 54, 42
1, 212803, Note_off_c, 0, 71, 0
1, 212806, Note_off_c, 0, 80, 0
1, 212806, Note_off_c, 0, 83, 0
1, 212887, Control_c, 0, 64, 0
1, 212887, Control_c, 0, 64, 0
1, 212887, Control_c, 0, 64, 0
1, 212988, Note_on_c, 0, 63, 33
1, 213020, Control_c, 0, 64, 127
1, 213020, Control_c, 0, 64, 127
1, 213020, Control_c, 0, 64, 127
1, 213146, Note_off_c, 0, 54, 0
1, 213146, Note_off_c, 0, 63, 0
1, 213146, Note_on_c, 0, 59, 34
1, 213303, Note_on_c, 0, 68, 49
1, 213303, Note_on_c, 0, 76, 49
1, 213303, Note_on_c, 0, 80, 70
1, 213306, Note_off_c, 0, 59, 0
1, 213306, Note_on_c, 0, 56, 45
1, 213309, Control_c, 0, 64, 0
1, 213309, Control_c, 0, 64, 0
1, 213309, Control_c, 0, 64, 0
1, 213312, Note_off_c, 0, 69, 0
1, 213312, Note_off_c, 0, 78, 0
1, 213312, Note_off_c, 0, 81, 0
1, 213420, Control_c, 0, 64, 127
1, 213420, Control_c, 0, 64, 127
1, 213420, Control_c, 0, 64, 127
1, 213461, Note_on_c, 0, 64, 36
1, 213619, Note_off_c, 0, 56, 0
1, 213619, Note_off_c, 0, 64, 0
1, 213619, Note_on_c, 0, 59, 37
1, 213776, Control_c, 0, 64, 0
1, 213776, Control_c, 0, 64, 0
1, 213776, Control_c, 0, 64, 0
1, 213779, Control_c, 0, 64, 0
1, 213779, Control_c, 0, 64, 127
1, 213779, Control_c, 0, 64, 0
1, 213782, Control_c, 0, 64, 0
1, 213782, Control_c, 0, 64, 127
1, 213782, Control_c, 0, 64, 0
1, 213785, Control_c, 0, 64, 0
1, 213785, Control_c, 0, 64, 127
1, 213785, Control_c, 0, 64, 0
1, 213788, Control_c, 0, 64, 0
1, 213788, Control_c, 0, 64, 0
1, 213788, Note_off_c, 0, 59, 0
1, 213791, Note_on_c, 0, 73, 55
1, 213791, Note_on_c, 0, 78, 70
1, 213791, Note_on_c, 0, 57, 47
1, 213794, Note_off_c, 0, 68, 0
1, 213794, Note_off_c, 0, 76, 0
1, 213794, Note_off_c, 0, 80, 0
1, 213858, Control_c, 0, 64, 0
1, 213858, Control_c, 0, 64, 0
1, 213858, Control_c, 0, 64, 0
1, 213942, Note_on_c, 0, 66, 38
1, 213974, Control_c, 0, 64, 127
1, 213974, Control_c, 0, 64, 127
1, 213974, Control_c, 0, 64, 127
1, 214100, Note_off_c, 0, 57, 0
1, 214100, Note_off_c, 0, 66, 0
1, 214100, Note_on_c, 0, 61, 39
1, 214258, Note_off_c, 0, 73, 0
1, 214258, Note_on_c, 0, 73, 55
1, 214258, Note_on_c, 0, 76, 70
1, 214261, Note_off_c, 0, 61, 0
1, 214261, Note_on_c, 0, 58, 49
1, 214261, Control_c, 0, 64, 0
1, 214261, Control_c, 0, 64, 0
1, 214261, Control_c, 0, 64, 0
1, 214267, Note_off_c, 0, 78, 0
1, 214375, Control_c, 0, 64, 127
1, 214375, Control_c, 0, 64, 127
1, 214375, Control_c, 0, 64, 127
1, 214415, Note_on_c, 0, 67, 40
1, 214573, Note_off_c, 0, 58, 0
1, 214573, Note_off_c, 0, 67, 0
1, 214573, Note_on_c, 0, 61, 41
1, 214731, Control_c, 0, 64, 0
1, 214731, Control_c, 0, 64, 0
1, 214731, Control_c, 0, 64, 0
1, 214734, Control_c, 0, 64, 0
1, 214734, Control_c, 0, 64, 127
1, 214734, Control_c, 0, 64, 0
1, 214737, Control_c, 0, 64, 0
1, 214737, Control_c, 0, 64, 127
1, 214737, Control_c, 0, 64, 0
1, 214740, Control_c, 0, 64, 0
1, 214740, Control_c, 0, 64, 127
1, 214740, Control_c, 0, 64, 0
1, 214743, Control_c, 0, 64, 0
1, 214743, Note_off_c, 0, 73, 0
1, 214743, Note_off_c, 0, 61, 0
1, 214746, Note_on_c, 0, 71, 55
1, 214746, Note_on_c, 0, 59, 51
1, 214837, Control_c, 0, 64, 0
1, 214837, Control_c, 0, 64, 0
1, 214837, Control_c, 0, 64, 0
1, 214944, Note_on_c, 0, 68, 42
1, 214976, Control_c, 0, 64, 127
1, 214976, Control_c, 0, 64, 127
1, 214976, Control_c, 0, 64, 127
1, 215102, Note_off_c, 0, 59, 0
1, 215102, Note_off_c, 0, 68, 0
1, 215102, Note_on_c, 0, 64, 42
1, 215260, Note_off_c, 0, 71, 0
1, 215260, Note_on_c, 0, 71, 55
1, 215260, Note_on_c, 0, 75, 70
1, 215263, Note_off_c, 0, 64, 0
1, 215263, Note_on_c, 0, 57, 52
1, 215266, Control_c, 0, 64, 0
1, 215266, Control_c, 0, 64, 0
1, 215271, Note_off_c, 0, 76, 0
1, 215399, Control_c, 0, 64, 127
1, 215399, Control_c, 0, 64, 127
1, 215447, Note_on_c, 0, 66, 43
1, 215541, Note_on_c, 0, 83, 75
1, 215551, Note_off_c, 0, 75, 0
1, 215629, Note_off_c, 0, 57, 0
1, 215629, Note_off_c, 0, 66, 0
1, 215629, Note_on_c, 0, 63, 43
1, 215805, Control_c, 0, 64, 0
1, 215805, Control_c, 0, 64, 0
1, 215805, Control_c, 0, 64, 0
1, 215808, Control_c, 0, 64, 0
1, 215808, Control_c, 0, 64, 127
1, 215808, Control_c, 0, 64, 0
1, 215811, Control_c, 0, 64, 127
1, 215811, Control_c, 0, 64, 0
1, 215811, Control_c, 0, 64, 127
1, 215814, Control_c, 0, 64, 0
1, 215814, Control_c, 0, 64, 0
1, 215814, Control_c, 0, 64, 0
1, 215817, Note_off_c, 0, 71, 0
1, 215817, Note_off_c, 0, 83, 0
1, 215817, Note_off_c, 0, 63, 0
1, 215820, Note_on_c, 0, 71, 53
1, 215820, Note_on_c, 0, 74, 53
1, 215820, Note_on_c, 0, 83, 78
1, 215823, Note_on_c, 0, 56, 46
1, 215904, Control_c, 0, 64, 0
1, 215904, Control_c, 0, 64, 0
1, 215904, Control_c, 0, 64, 0
1, 215955, Note_on_c, 0, 64, 42
1, 216030, Control_c, 0, 64, 127
1, 216030, Control_c, 0, 64, 127
1, 216030, Control_c, 0, 64, 127
1, 216079, Note_off_c, 0, 56, 0
1, 216079, Note_off_c, 0, 64, 0
1, 216079, Note_on_c, 0, 59, 42
1, 216204, Note_off_c, 0, 59, 0
1, 216204, Note_on_c, 0, 56, 42
1, 216329, Note_off_c, 0, 56, 0
1, 216329, Note_on_c, 0, 52, 47
1, 216335, Control_c, 0, 64, 0
1, 216446, Control_c, 0, 64, 127
1, 216446, Note_on_c, 0, 59, 42
1, 216565, Note_off_c, 0, 52, 0
1, 216565, Note_off_c, 0, 59, 0
1, 216565, Note_on_c, 0, 56, 42
1, 216684, Note_off_c, 0, 56, 0
1, 216684, Note_on_c, 0, 52, 42
1, 216802, Control_c, 0, 64, 0
1, 216802, Control_c, 0, 64, 0
1, 216802, Control_c, 0, 64, 127
1, 216805, Control_c, 0, 64, 0
1, 216805, Control_c, 0, 64, 0
1, 216805, Control_c, 0, 64, 0
1, 216808, Control_c, 0, 64, 0
1, 216808, Note_off_c, 0, 71, 0
1, 216808, Note_off_c, 0, 74, 0
1, 216811, Note_off_c, 0, 83, 0
1, 216811, Note_off_c, 0, 52, 0
1, 216811, Note_on_c, 0, 69, 51
1, 216814, Note_on_c, 0, 74, 51
1, 216814, Note_on_c, 0, 81, 83
1, 216814, Note_on_c, 0, 54, 50
1, 216889, Control_c, 0, 64, 0
1, 216934, Note_on_c, 0, 62, 43
1, 217002, Control_c, 0, 64, 127
1, 217046, Note_off_c, 0, 54, 0
1, 217046, Note_off_c, 0, 62, 0
1, 217046, Note_on_c, 0, 57, 43
1, 217159, Note_off_c, 0, 57, 0
1, 217159, Note_on_c, 0, 54, 45
1, 217271, Note_off_c, 0, 69, 0
1, 217271, Note_off_c, 0, 74, 0
1, 217271, Note_off_c, 0, 81, 0
1, 217274, Note_on_c, 0, 68, 52
1, 217274, Note_on_c, 0, 71, 52
1, 217274, Note_on_c, 0, 74, 52
1, 217277, Note_on_c, 0, 80, 80
1, 217277, Note_off_c, 0, 54, 0
1, 217277, Note_on_c, 0, 56, 55
1, 217280, Control_c, 0, 64, 0
1, 217382, Control_c, 0, 64, 127
1, 217382, Note_on_c, 0, 64, 45
1, 217496, Note_off_c, 0, 56, 0
1, 217496, Note_off_c, 0, 64, 0
1, 217496, Note_on_c, 0, 59, 46
1, 217608, Note_off_c, 0, 59, 0
1, 217608, Note_on_c, 0, 56, 47
1, 217720, Control_c, 0, 64, 0
1, 217720, Control_c, 0, 64, 127
1, 217720, Note_off_c, 0, 68, 0
1, 217723, Note_off_c, 0, 71, 0
1, 217723, Note_off_c, 0, 74, 0
1, 217723, Note_off_c, 0, 80, 0
1, 217726, Note_off_c, 0, 56, 0
1, 217726, Note_on_c, 0, 74, 67
1, 217726, Note_on_c, 0, 78, 85
1, 217729, Note_on_c, 0, 57, 53
1, 217770, Control_c, 0, 64, 0
1, 217833, Note_on_c, 0, 66, 47
1, 217888, Control_c, 0, 64, 127
1, 217945, Note_off_c, 0, 57, 0
1, 217945, Note_off_c, 0, 66, 0
1, 217945, Note_on_c, 0, 62, 47
1, 218057, Note_off_c, 0, 62, 0
1, 218057, Note_on_c, 0, 57, 48
1, 218170, Note_off_c, 0, 74, 0
1, 218170, Note_off_c, 0, 78, 0
1, 218170, Note_on_c, 0, 74, 69
1, 218173, Note_on_c, 0, 76, 87
1, 218173, Note_off_c, 0, 57, 0
1, 218173, Note_on_c, 0, 59, 57
1, 218173, Control_c, 0, 64, 0
1, 218273, Control_c, 0, 64, 127
1, 218282, Note_on_c, 0, 68, 50
1, 218394, Note_off_c, 0, 74, 0
1, 218394, Note_off_c, 0, 76, 0
1, 218394, Note_off_c, 0, 59, 0
1, 218397, Note_off_c, 0, 68, 0
1, 218397, Note_on_c, 0, 62, 50
1, 218507, Note_off_c, 0, 62, 0
1, 218507, Note_on_c, 0, 59, 51
1, 218619, Control_c, 0, 64, 0
1, 218619, Control_c, 0, 64, 0
1, 218619, Control_c, 0, 64, 0
1, 218622, Note_off_c, 0, 59, 0
1, 218622, Note_on_c, 0, 71, 70
1, 218622, Note_on_c, 0, 74, 70
1, 218625, Note_on_c, 0, 76, 89
1, 218625, Note_on_c, 0, 56, 60
1, 218629, Control_c, 0, 64, 127
1, 218629, Control_c, 0, 64, 127
1, 218650, Control_c, 0, 64, 127
1, 218650, Control_c, 0, 64, 127
1, 218731, Note_on_c, 0, 62, 53
1, 218844, Note_off_c, 0, 56, 0
1, 218844, Note_off_c, 0, 62, 0
1, 218844, Note_on_c, 0, 59, 53
1, 218956, Note_off_c, 0, 59, 0
1, 218956, Note_on_c, 0, 56, 55
1, 219068, Note_off_c, 0, 71, 0
1, 219068, Note_off_c, 0, 74, 0
1, 219068, Note_off_c, 0, 76, 0
1, 219071, Note_on_c, 0, 74, 73
1, 219071, Note_on_c, 0, 86, 93
1, 219071, Note_off_c, 0, 56, 0
1, 219074, Note_on_c, 0, 53, 64
1, 219074, Control_c, 0, 64, 0
1, 219074, Control_c, 0, 64, 0
1, 219190, Control_c, 0, 64, 127
1, 219190, Control_c, 0, 64, 127
1, 219200, Note_on_c, 0, 62, 57
1, 219332, Note_off_c, 0, 53, 0
1, 219332, Note_off_c, 0, 62, 0
1, 219332, Note_on_c, 0, 59, 57
1, 219465, Note_off_c, 0, 59, 0
1, 219465, Note_on_c, 0, 56, 58
1, 219597, Control_c, 0, 64, 127
1, 219597, Control_c, 0, 64, 0
1, 219597, Control_c, 0, 64, 127
1, 219600, Note_off_c, 0, 74, 0
1, 219600, Note_off_c, 0, 86, 0
1, 219600, Note_off_c, 0, 56, 0
1, 219603, Note_on_c, 0, 74, 79
1, 219603, Note_on_c, 0, 86, 99
1, 219603, Note_on_c, 0, 53, 67
1, 219757, Note_on_c, 0, 62, 60
1, 219882, Note_off_c, 0, 53, 0
1, 219882, Note_off_c, 0, 62, 0
1, 219882, Note_on_c, 0, 59, 60
1, 220000, Note_off_c, 0, 59, 0
1, 220000, Note_on_c, 0, 56, 61
1, 220118, Note_off_c, 0, 56, 0
1, 220118, Note_on_c, 0, 53, 62
1, 220237, Note_off_c, 0, 53, 0
1, 220237, Note_on_c, 0, 62, 64
1, 220355, Note_off_c, 0, 62, 0
1, 220355, Note_on_c, 0, 59, 64
1, 220473, Note_off_c, 0, 59, 0
1, 220473, Note_on_c, 0, 56, 65
1, 220591, Control_c, 0, 64, 0
1, 220591, Control_c, 0, 64, 127
1, 220591, Note_off_c, 0, 74, 0
1, 220594, Note_off_c, 0, 86, 0
1, 220594, Note_off_c, 0, 56, 0
1, 220594, Note_on_c, 0, 77, 85
1, 220597, Note_on_c, 0, 89, 103
1, 220597, Note_on_c, 0, 50, 73
1, 220697, Control_c, 0, 64, 0
1, 220741, Note_on_c, 0, 59, 66
1, 220789, Control_c, 0, 64, 127
1, 220859, Note_off_c, 0, 50, 0
1, 220859, Note_off_c, 0, 59, 0
1, 220859, Note_on_c, 0, 56, 66
1, 220978, Note_off_c, 0, 56, 0
1, 220978, Note_on_c, 0, 53, 67
1, 221096, Note_off_c, 0, 53, 0
1, 221096, Note_on_c, 0, 50, 76
1, 221214, Note_off_c, 0, 50, 0
1, 221214, Note_on_c, 0, 59, 68
1, 221332, Note_off_c, 0, 59, 0
1, 221332, Note_on_c, 0, 56, 69
1, 221451, Note_off_c, 0, 56, 0
1, 221451, Note_on_c, 0, 53, 70
1, 221569, Control_c, 0, 64, 0
1, 221569, Control_c, 0, 64, 127
1, 221569, Note_off_c, 0, 53, 0
1, 221572, Note_on_c, 0, 47, 78
1, 221706, Control_c, 0, 64, 0
1, 221742, Note_off_c, 0, 77, 0
1, 221742, Note_off_c, 0, 89, 0
1, 221742, Note_on_c, 0, 65, 80
1, 221745, Note_on_c, 0, 56, 68
1, 221842, Control_c, 0, 64, 127
1, 221891, Note_off_c, 0, 65, 0
1, 221891, Note_on_c, 0, 71, 87
1, 221891, Note_off_c, 0, 47, 0
1, 221894, Note_off_c, 0, 56, 0
1, 221894, Note_on_c, 0, 53, 66
1, 222032, Note_off_c, 0, 71, 0
1, 222032, Note_on_c, 0, 74, 83
1, 222032, Note_off_c, 0, 53, 0
1, 222035, Note_on_c, 0, 50, 62
1, 222164, Note_off_c, 0, 74, 0
1, 222164, Note_on_c, 0, 77, 77
1, 222164, Note_off_c, 0, 50, 0
1, 222167, Note_on_c, 0, 47, 66
1, 222314, Note_off_c, 0, 77, 0
1, 222314, Note_on_c, 0, 83, 80
1, 222314, Note_off_c, 0, 47, 0
1, 222317, Note_on_c, 0, 56, 58
1, 222474, Note_off_c, 0, 83, 0
1, 222474, Note_on_c, 0, 86, 76
1, 222474, Note_off_c, 0, 56, 0
1, 222477, Note_on_c, 0, 53, 55
1, 222647, Note_off_c, 0, 86, 0
1, 222647, Note_on_c, 0, 83, 70
1, 222647, Note_off_c, 0, 53, 0
1, 222650, Note_on_c, 0, 50, 51
1, 222834, Control_c, 0, 64, 0
1, 222834, Control_c, 0, 64, 127
1, 222834, Note_off_c, 0, 83, 0
1, 222837, Note_off_c, 0, 50, 0
1, 222837, Note_on_c, 0, 89, 73
1, 222837, Note_on_c, 0, 47, 55
1, 222933, Control_c, 0, 64, 0
1, 223021, Note_off_c, 0, 47, 0
1, 223021, Note_on_c, 0, 55, 42
1, 223075, Control_c, 0, 64, 127
1, 223153, Note_off_c, 0, 55, 0
1, 223153, Note_on_c, 0, 53, 41
1, 223286, Note_off_c, 0, 53, 0
1, 223286, Note_on_c, 0, 50, 40
1, 223418, Note_off_c, 0, 89, 0
1, 223418, Note_off_c, 0, 50, 0
1, 223418, Note_on_c, 0, 47, 39
1, 223550, Note_off_c, 0, 47, 0
1, 223550, Note_on_c, 0, 55, 39
1, 223660, Control_c, 0, 64, 0
1, 223682, Note_on_c, 0, 76, 65
1, 223682, Note_off_c, 0, 55, 0
1, 223682, Note_on_c, 0, 47, 38
1, 223742, Control_c, 0, 64, 127
1, 223832, Note_off_c, 0, 47, 0
1, 223832, Note_on_c, 0, 55, 37
1, 224019, Control_c, 0, 64, 0
1, 224019, Control_c, 0, 64, 127
1, 224019, Note_off_c, 0, 55, 0
1, 224022, Note_on_c, 0, 77, 68
1, 224022, Note_on_c, 0, 47, 37
1, 224022, Note_on_c, 0, 55, 37
1, 224032, Note_off_c, 0, 76, 0
1, 224100, Control_c, 0, 64, 0
1, 224296, Control_c, 0, 64, 127
1, 224365, Note_on_c, 0, 80, 65
1, 224376, Note_off_c, 0, 77, 0
1, 224414, Control_c, 0, 64, 0
1, 224507, Control_c, 0, 64, 127
1, 224645, Note_on_c, 0, 79, 60
1, 224645, Note_off_c, 0, 47, 0
1, 224645, Note_off_c, 0, 55, 0
1, 224652, Control_c, 0, 64, 0
1, 224657, Note_off_c, 0, 80, 0
1, 224821, Control_c, 0, 64, 127
1, 224945, Note_on_c, 0, 74, 58
1, 224945, Note_on_c, 0, 67, 37
1, 224956, Note_off_c, 0, 79, 0
1, 224961, Control_c, 0, 64, 0
1, 225107, Control_c, 0, 64, 127
1, 225226, Control_c, 0, 64, 0
1, 225226, Control_c, 0, 64, 127
1, 225226, Control_c, 0, 64, 0
1, 225229, Note_off_c, 0, 67, 0
1, 225229, Note_on_c, 0, 76, 60
1, 225229, Note_on_c, 0, 67, 37
1, 225238, Note_off_c, 0, 74, 0
1, 225301, Control_c, 0, 64, 0
1, 225483, Control_c, 0, 64, 127
1, 225547, Note_on_c, 0, 77, 59
1, 225547, Note_on_c, 0, 68, 37
1, 225558, Note_off_c, 0, 76, 0
1, 225558, Note_off_c, 0, 67, 0
1, 225599, Control_c, 0, 64, 0
1, 225698, Control_c, 0, 64, 127
1, 225846, Note_on_c, 0, 76, 59
1, 225846, Note_on_c, 0, 67, 37
1, 225853, Control_c, 0, 64, 0
1, 225857, Note_off_c, 0, 77, 0
1, 225857, Note_off_c, 0, 68, 0
1, 226011, Control_c, 0, 64, 127
1, 226127, Note_on_c, 0, 71, 58
1, 226127, Note_on_c, 0, 55, 27
1, 226127, Note_on_c, 0, 62, 37
1, 226138, Note_off_c, 0, 76, 0
1, 226138, Note_off_c, 0, 67, 0
1, 226143, Control_c, 0, 64, 0
1, 226289, Control_c, 0, 64, 127
1, 226408, Control_c, 0, 64, 0
1, 226408, Control_c, 0, 64, 127
1, 226408, Control_c, 0, 64, 0
1, 226411, Note_off_c, 0, 55, 0
1, 226411, Note_on_c, 0, 64, 38
1, 226411, Note_on_c, 0, 72, 58
1, 226414, Note_on_c, 0, 55, 46
1, 226420, Note_off_c, 0, 71, 0
1, 226420, Note_off_c, 0, 62, 0
1, 226483, Control_c, 0, 64, 0
1, 226665, Control_c, 0, 64, 127
1, 226729, Note_on_c, 0, 58, 46
1, 226739, Note_off_c, 0, 55, 0
1, 226775, Control_c, 0, 64, 0
1, 226862, Control_c, 0, 64, 127
1, 226993, Note_on_c, 0, 73, 58
1, 226993, Note_on_c, 0, 57, 46
1, 226999, Control_c, 0, 64, 0
1, 227003, Note_off_c, 0, 72, 0
1, 227003, Note_off_c, 0, 58, 0
1, 227148, Control_c, 0, 64, 127
1, 227257, Note_on_c, 0, 52, 36
1, 227257, Note_on_c, 0, 55, 46
1, 227268, Note_off_c, 0, 57, 0
1, 227273, Control_c, 0, 64, 0
1, 227409, Control_c, 0, 64, 127
1, 227521, Control_c, 0, 64, 0
1, 227521, Control_c, 0, 64, 127
1, 227521, Control_c, 0, 64, 0
1, 227524, Note_on_c, 0, 62, 48
1, 227524, Note_on_c, 0, 74, 58
1, 227524, Note_on_c, 0, 53, 41
1, 227527, Note_on_c, 0, 57, 51
1, 227532, Note_off_c, 0, 64, 0
1, 227532, Note_off_c, 0, 73, 0
1, 227532, Note_off_c, 0, 52, 0
1, 227535, Note_off_c, 0, 55, 0
1, 227587, Control_c, 0, 64, 0
1, 227746, Control_c, 0, 64, 127
1, 227802, Note_on_c, 0, 55, 43
1, 227802, Note_on_c, 0, 58, 53
1, 227813, Note_off_c, 0, 53, 0
1, 227813, Note_off_c, 0, 57, 0
1, 227852, Control_c, 0, 64, 0
1, 227944, Control_c, 0, 64, 127
1, 228083, Note_on_c, 0, 81, 71
1, 228083, Note_on_c, 0, 53, 40
1, 228083, Note_on_c, 0, 57, 50
1, 228090, Control_c, 0, 64, 0
1, 228095, Note_off_c, 0, 62, 0
1, 228095, Note_off_c, 0, 74, 0
1, 228095, Note_off_c, 0, 55, 0
1, 228098, Note_off_c, 0, 58, 0
1, 228259, Control_c, 0, 64, 127
1, 228383, Note_on_c, 0, 49, 36
1, 228383, Note_on_c, 0, 52, 46
1, 228394, Note_off_c, 0, 53, 0
1, 228394, Note_off_c, 0, 57, 0
1, 228400, Control_c, 0, 64, 0
1, 228555, Control_c, 0, 64, 127
1, 228682, Control_c, 0, 64, 0
1, 228682, Control_c, 0, 64, 127
1, 228682, Control_c, 0, 64, 0
1, 228685, Note_off_c, 0, 49, 0
1, 228685, Note_on_c, 0, 50, 36
1, 228685, Note_on_c, 0, 53, 46
1, 228695, Note_off_c, 0, 52, 0
1, 228757, Control_c, 0, 64, 0
1, 228939, Control_c, 0, 64, 127
1, 229003, Note_on_c, 0, 82, 68
1, 229003, Note_on_c, 0, 62, 34
1, 229003, Note_on_c, 0, 65, 49
1, 229015, Note_off_c, 0, 81, 0
1, 229015, Note_off_c, 0, 50, 0
1, 229015, Note_off_c, 0, 53, 0
1, 229056, Control_c, 0, 64, 0
1, 229155, Control_c, 0, 64, 127
1, 229303, Note_on_c, 0, 81, 64
1, 229309, Control_c, 0, 64, 0
1, 229314, Note_off_c, 0, 82, 0
1, 229468, Control_c, 0, 64, 127
1, 229583, Note_on_c, 0, 77, 59
1, 229583, Note_on_c, 0, 60, 37
1, 229583, Note_on_c, 0, 63, 51
1, 229594, Note_off_c, 0, 81, 0
1, 229594, Note_off_c, 0, 62, 0
1, 229594, Note_off_c, 0, 65, 0
1, 229600, Control_c, 0, 64, 0
1, 229745, Control_c, 0, 64, 127
1, 229864, Control_c, 0, 64, 0
1, 229864, Control_c, 0, 64, 127
1, 229864, Control_c, 0, 64, 0
1, 229867, Note_on_c, 0, 82, 65
1, 229877, Note_off_c, 0, 77, 0
1, 229939, Control_c, 0, 64, 0
1, 230121, Control_c, 0, 64, 127
1, 230185, Note_on_c, 0, 77, 62
1, 230185, Note_on_c, 0, 58, 29
1, 230185, Note_on_c, 0, 61, 43
1, 230196, Note_off_c, 0, 82, 0
1, 230196, Note_off_c, 0, 60, 0
1, 230196, Note_off_c, 0, 63, 0
1, 230234, Control_c, 0, 64, 0
1, 230327, Control_c, 0, 64, 127
1, 230367, Control_c, 0, 64, 127
1, 230466, Note_off_c, 0, 77, 0
1, 230466, Note_on_c, 0, 77, 61
1, 230730, Note_on_c, 0, 73, 59
1, 230730, Note_on_c, 0, 56, 30
1, 230730, Note_on_c, 0, 59, 46
1, 230741, Note_off_c, 0, 77, 0
1, 230741, Note_off_c, 0, 58, 0
1, 230741, Note_off_c, 0, 61, 0
1, 230747, Control_c, 0, 64, 0
1, 230892, Control_c, 0, 64, 127
1, 231011, Control_c, 0, 64, 127
1, 231011, Control_c, 0, 64, 0
1, 231011, Control_c, 0, 64, 0
1, 231014, Control_c, 0, 64, 127
1, 231014, Control_c, 0, 64, 0
1, 231014, Note_on_c, 0, 78, 65
1, 231023, Note_off_c, 0, 73, 0
1, 231086, Control_c, 0, 64, 0
1, 231086, Control_c, 0, 64, 0
1, 231207, Control_c, 0, 64, 127
1, 231207, Control_c, 0, 64, 127
1, 231332, Note_off_c, 0, 78, 0
1, 231332, Note_on_c, 0, 73, 61
1, 231332, Note_on_c, 0, 54, 27
1, 231335, Note_on_c, 0, 58, 37
1, 231343, Note_off_c, 0, 56, 0
1, 231343, Note_off_c, 0, 59, 0
1, 231368, Control_c, 0, 64, 0
1, 231368, Control_c, 0, 64, 0
1, 231434, Control_c, 0, 64, 127
1, 231434, Control_c, 0, 64, 127
1, 231613, Note_off_c, 0, 73, 0
1, 231613, Note_on_c, 0, 73, 57
1, 231877, Note_off_c, 0, 73, 0
1, 231877, Note_on_c, 0, 70, 53
1, 231877, Note_off_c, 0, 54, 0
1, 231880, Note_off_c, 0, 58, 0
1, 231880, Note_on_c, 0, 54, 27
1, 231880, Note_on_c, 0, 58, 37
1, 232141, Control_c, 0, 64, 127
1, 232141, Control_c, 0, 64, 127
1, 232141, Note_off_c, 0, 70, 0
1, 232144, Note_on_c, 0, 82, 69
1, 232405, Note_off_c, 0, 82, 0
1, 232405, Note_on_c, 0, 78, 66
1, 232405, Note_off_c, 0, 54, 0
1, 232408, Note_off_c, 0, 58, 0
1, 232408, Note_on_c, 0, 54, 31
1, 232408, Note_on_c, 0, 58, 41
1, 232670, Note_off_c, 0, 78, 0
1, 232670, Note_on_c, 0, 78, 62
1, 232934, Note_off_c, 0, 78, 0
1, 232934, Note_on_c, 0, 73, 59
1, 232934, Note_off_c, 0, 54, 0
1, 232937, Note_off_c, 0, 58, 0
1, 232937, Note_on_c, 0, 54, 38
1, 232937, Note_on_c, 0, 58, 48
1, 233198, Control_c, 0, 64, 0
1, 233198, Control_c, 0, 64, 127
1, 233198, Control_c, 0, 64, 0
1, 233201, Note_off_c, 0, 73, 0
1, 233201, Note_on_c, 0, 85, 77
1, 233274, Control_c, 0, 64, 0
1, 233455, Control_c, 0, 64, 127
1, 233519, Note_off_c, 0, 85, 0
1, 233519, Note_on_c, 0, 81, 70
1, 233519, Note_off_c, 0, 54, 0
1, 233522, Note_off_c, 0, 58, 0
1, 233522, Note_on_c, 0, 54, 42
1, 233522, Note_on_c, 0, 57, 42
1, 233525, Note_on_c, 0, 61, 62
1, 233566, Control_c, 0, 64, 0
1, 233653, Control_c, 0, 64, 127
1, 233784, Note_off_c, 0, 81, 0
1, 233784, Note_on_c, 0, 81, 75
1, 233790, Control_c, 0, 64, 0
1, 233939, Control_c, 0, 64, 127
1, 234048, Note_off_c, 0, 81, 0
1, 234048, Note_on_c, 0, 78, 74
1, 234048, Note_off_c, 0, 54, 0
1, 234051, Note_off_c, 0, 57, 0
1, 234051, Note_off_c, 0, 61, 0
1, 234051, Note_on_c, 0, 52, 57
1, 234054, Note_on_c, 0, 54, 49
1, 234054, Note_on_c, 0, 57, 49
1, 234054, Note_on_c, 0, 60, 67
1, 234063, Control_c, 0, 64, 0
1, 234200, Control_c, 0, 64, 127
1, 234312, Control_c, 0, 64, 0
1, 234312, Control_c, 0, 64, 127
1, 234312, Control_c, 0, 64, 0
1, 234315, Note_off_c, 0, 78, 0
1, 234315, Note_on_c, 0, 84, 87
1, 234382, Control_c, 0, 64, 0
1, 234552, Control_c, 0, 64, 127
1, 234612, Note_off_c, 0, 84, 0
1, 234612, Note_on_c, 0, 78, 77
1, 234612, Note_off_c, 0, 52, 0
1, 234615, Note_off_c, 0, 54, 0
1, 234615, Note_off_c, 0, 57, 0
1, 234615, Note_off_c, 0, 60, 0
1, 234618, Note_on_c, 0, 51, 60
1, 234618, Note_on_c, 0, 54, 52
1, 234618, Note_on_c, 0, 57, 52
1, 234621, Note_on_c, 0, 59, 70
1, 234661, Control_c, 0, 64, 0
1, 234754, Control_c, 0, 64, 127
1, 234892, Note_off_c, 0, 78, 0
1, 234892, Note_on_c, 0, 83, 83
1, 234892, Note_off_c, 0, 51, 0
1, 234895, Note_off_c, 0, 54, 0
1, 234895, Note_off_c, 0, 57, 0
1, 234895, Note_off_c, 0, 59, 0
1, 234898, Note_on_c, 0, 51, 56
1, 234898, Control_c, 0, 64, 0
1, 235042, Note_off_c, 0, 51, 0
1, 235042, Note_on_c, 0, 59, 58
1, 235069, Control_c, 0, 64, 127
1, 235192, Note_off_c, 0, 83, 0
1, 235192, Note_on_c, 0, 78, 66
1, 235192, Note_off_c, 0, 59, 0
1, 235195, Note_on_c, 0, 51, 59
1, 235207, Control_c, 0, 64, 0
1, 235299, Control_c, 0, 64, 0
1, 235317, Note_off_c, 0, 78, 0
1, 235317, Note_off_c, 0, 51, 0
1, 235317, Note_on_c, 0, 52, 60
1, 235442, Control_c, 0, 64, 0
1, 235442, Note_off_c, 0, 52, 0
1, 235442, Note_on_c, 0, 54, 61
1, 235559, Control_c, 0, 64, 127
1, 235566, Note_off_c, 0, 54, 0
1, 235566, Note_on_c, 0, 59, 62
1, 235691, Note_off_c, 0, 59, 0
1, 235691, Note_on_c, 0, 54, 64
1, 235816, Note_off_c, 0, 54, 0
1, 235816, Note_on_c, 0, 56, 65
1, 235888, Control_c, 0, 64, 0
1, 235941, Note_on_c, 0, 75, 65
1, 235941, Note_off_c, 0, 56, 0
1, 235941, Note_on_c, 0, 57, 67
1, 236017, Control_c, 0, 64, 127
1, 236066, Note_off_c, 0, 75, 0
1, 236066, Note_on_c, 0, 83, 68
1, 236066, Note_off_c, 0, 57, 0
1, 236069, Note_on_c, 0, 59, 65
1, 236190, Note_off_c, 0, 83, 0
1, 236190, Note_on_c, 0, 75, 70
1, 236190, Note_off_c, 0, 59, 0
1, 236193, Note_on_c, 0, 57, 61
1, 236315, Note_off_c, 0, 75, 0
1, 236315, Note_on_c, 0, 76, 74
1, 236315, Note_off_c, 0, 57, 0
1, 236318, Note_on_c, 0, 56, 59
1, 236358, Control_c, 0, 64, 0
1, 236440, Control_c, 0, 64, 0
1, 236440, Control_c, 0, 64, 0
1, 236440, Note_off_c, 0, 76, 0
1, 236443, Note_off_c, 0, 56, 0
1, 236443, Note_on_c, 0, 78, 76
1, 236443, Note_on_c, 0, 54, 56
1, 236557, Control_c, 0, 64, 127
1, 236565, Note_off_c, 0, 78, 0
1, 236565, Note_on_c, 0, 83, 79
1, 236565, Note_off_c, 0, 54, 0
1, 236568, Note_on_c, 0, 59, 53
1, 236690, Note_off_c, 0, 83, 0
1, 236690, Note_on_c, 0, 78, 81
1, 236690, Note_off_c, 0, 59, 0
1, 236693, Note_on_c, 0, 54, 51
1, 236814, Note_off_c, 0, 78, 0
1, 236814, Note_on_c, 0, 80, 83
1, 236814, Note_off_c, 0, 54, 0
1, 236817, Note_on_c, 0, 52, 48
1, 236886, Control_c, 0, 64, 0
1, 236939, Note_off_c, 0, 80, 0
1, 236939, Note_on_c, 0, 81, 83
1, 236939, Note_off_c, 0, 52, 0
1, 236942, Note_on_c, 0, 51, 46
1, 237025, Control_c, 0, 64, 127
1, 237080, Note_off_c, 0, 81, 0
1, 237080, Note_on_c, 0, 83, 83
1, 237080, Note_off_c, 0, 51, 0
1, 237083, Note_on_c, 0, 59, 48
1, 237198, Note_off_c, 0, 83, 0
1, 237198, Note_on_c, 0, 81, 81
1, 237198, Note_off_c, 0, 59, 0
1, 237201, Note_on_c, 0, 51, 51
1, 237316, Note_off_c, 0, 81, 0
1, 237316, Note_on_c, 0, 80, 78
1, 237316, Note_off_c, 0, 51, 0
1, 237319, Note_on_c, 0, 52, 53
1, 237356, Control_c, 0, 64, 0
1, 237434, Control_c, 0, 64, 0
1, 237434, Control_c, 0, 64, 0
1, 237434, Note_off_c, 0, 80, 0
1, 237437, Note_off_c, 0, 52, 0
1, 237437, Note_on_c, 0, 78, 76
1, 237437, Note_on_c, 0, 54, 57
1, 237546, Control_c, 0, 64, 127
1, 237552, Note_on_c, 0, 83, 71
1, 237552, Note_on_c, 0, 59, 59
1, 237562, Note_off_c, 0, 78, 0
1, 237562, Note_off_c, 0, 54, 0
1, 237671, Note_on_c, 0, 78, 68
1, 237671, Note_on_c, 0, 54, 60
1, 237680, Note_off_c, 0, 83, 0
1, 237680, Note_off_c, 0, 59, 0
1, 237789, Note_on_c, 0, 76, 65
1, 237789, Note_on_c, 0, 56, 62
1, 237798, Note_off_c, 0, 78, 0
1, 237798, Note_off_c, 0, 54, 0
1, 237857, Control_c, 0, 64, 0
1, 237907, Note_on_c, 0, 75, 62
1, 237907, Note_on_c, 0, 57, 64
1, 237918, Note_off_c, 0, 76, 0
1, 237918, Note_off_c, 0, 56, 0
1, 237993, Control_c, 0, 64, 127
1, 238048, Note_on_c, 0, 83, 65
1, 238048, Note_on_c, 0, 59, 61
1, 238057, Note_off_c, 0, 75, 0
1, 238057, Note_off_c, 0, 57, 0
1, 238166, Note_on_c, 0, 75, 66
1, 238166, Note_on_c, 0, 57, 57
1, 238175, Note_off_c, 0, 83, 0
1, 238175, Note_off_c, 0, 59, 0
1, 238284, Note_on_c, 0, 76, 68
1, 238284, Note_on_c, 0, 56, 55
1, 238293, Note_off_c, 0, 75, 0
1, 238293, Note_off_c, 0, 57, 0
1, 238324, Control_c, 0, 64, 0
1, 238402, Control_c, 0, 64, 0
1, 238402, Control_c, 0, 64, 0
1, 238402, Note_on_c, 0, 78, 69
1, 238405, Note_on_c, 0, 54, 51
1, 238411, Note_off_c, 0, 76, 0
1, 238411, Note_off_c, 0, 56, 0
1, 238514, Control_c, 0, 64, 127
1, 238520, Note_on_c, 0, 83, 71
1, 238520, Note_on_c, 0, 59, 49
1, 238530, Note_off_c, 0, 78, 0
1, 238530, Note_off_c, 0, 54, 0
1, 238639, Note_on_c, 0, 78, 73
1, 238639, Note_on_c, 0, 54, 46
1, 238648, Note_off_c, 0, 83, 0
1, 238648, Note_off_c, 0, 59, 0
1, 238757, Note_on_c, 0, 80, 73
1, 238757, Note_on_c, 0, 52, 42
1, 238766, Note_off_c, 0, 78, 0
1, 238766, Note_off_c, 0, 54, 0
1, 238825, Control_c, 0, 64, 0
1, 238875, Note_on_c, 0, 81, 71
1, 238875, Note_on_c, 0, 51, 40
1, 238884, Note_off_c, 0, 80, 0
1, 238884, Note_off_c, 0, 52, 0
1, 238948, Control_c, 0, 64, 127
1, 238993, Note_on_c, 0, 83, 70
1, 238993, Note_on_c, 0, 59, 40
1, 239003, Note_off_c, 0, 81, 0
1, 239003, Note_off_c, 0, 51, 0
1, 239112, Note_on_c, 0, 81, 68
1, 239112, Note_on_c, 0, 51, 42
1, 239121, Note_off_c, 0, 83, 0
1, 239121, Note_off_c, 0, 59, 0
1, 239230, Note_on_c, 0, 80, 65
1, 239230, Note_on_c, 0, 52, 43
1, 239239, Note_off_c, 0, 81, 0
1, 239239, Note_off_c, 0, 51, 0
1, 239270, Control_c, 0, 64, 0
1, 239348, Control_c, 0, 64, 0
1, 239348, Control_c, 0, 64, 0
1, 239348, Note_on_c, 0, 78, 62
1, 239351, Note_on_c, 0, 54, 46
1, 239357, Note_off_c, 0, 80, 0
1, 239357, Note_off_c, 0, 52, 0
1, 239459, Control_c, 0, 64, 127
1, 239466, Note_on_c, 0, 83, 59
1, 239466, Note_on_c, 0, 59, 48
1, 239476, Note_off_c, 0, 78, 0
1, 239476, Note_off_c, 0, 54, 0
1, 239585, Note_on_c, 0, 78, 56
1, 239585, Note_on_c, 0, 54, 49
1, 239594, Note_off_c, 0, 83, 0
1, 239594, Note_off_c, 0, 59, 0
1, 239703, Note_on_c, 0, 76, 53
1, 239703, Note_on_c, 0, 56, 50
1, 239712, Note_off_c, 0, 78, 0
1, 239712, Note_off_c, 0, 54, 0
1, 239771, Control_c, 0, 64, 0
1, 239821, Note_on_c, 0, 75, 51
1, 239821, Note_on_c, 0, 57, 52
1, 239830, Note_off_c, 0, 76, 0
1, 239830, Note_off_c, 0, 56, 0
1, 239894, Control_c, 0, 64, 127
1, 239939, Note_on_c, 0, 83, 52
1, 239939, Note_on_c, 0, 59, 50
1, 239948, Note_off_c, 0, 75, 0
1, 239948, Note_off_c, 0, 57, 0
1, 240057, Note_on_c, 0, 75, 53
1, 240057, Note_on_c, 0, 57, 47
1, 240067, Note_off_c, 0, 83, 0
1, 240067, Note_off_c, 0, 59, 0
1, 240176, Note_on_c, 0, 76, 55
1, 240176, Note_on_c, 0, 56, 45
1, 240185, Note_off_c, 0, 75, 0
1, 240185, Note_off_c, 0, 57, 0
1, 240216, Control_c, 0, 64, 0
1, 240294, Control_c, 0, 64, 0
1, 240294, Control_c, 0, 64, 0
1, 240294, Note_on_c, 0, 78, 56
1, 240297, Note_on_c, 0, 54, 41
1, 240303, Note_off_c, 0, 76, 0
1, 240303, Note_off_c, 0, 56, 0
1, 240405, Control_c, 0, 64, 127
1, 240412, Note_on_c, 0, 83, 58
1, 240412, Note_on_c, 0, 59, 40
1, 240421, Note_off_c, 0, 78, 0
1, 240421, Note_off_c, 0, 54, 0
1, 240530, Note_on_c, 0, 78, 60
1, 240530, Note_on_c, 0, 54, 39
1, 240540, Note_off_c, 0, 83, 0
1, 240540, Note_off_c, 0, 59, 0
1, 240649, Note_on_c, 0, 80, 60
1, 240649, Note_on_c, 0, 52, 37
1, 240658, Note_off_c, 0, 78, 0
1, 240658, Note_off_c, 0, 54, 0
1, 240717, Control_c, 0, 64, 0
1, 240767, Note_on_c, 0, 81, 60
1, 240767, Note_on_c, 0, 51, 34
1, 240777, Note_off_c, 0, 80, 0
1, 240777, Note_off_c, 0, 52, 0
1, 240848, Control_c, 0, 64, 127
1, 240899, Note_on_c, 0, 83, 60
1, 240899, Note_on_c, 0, 59, 37
1, 240908, Note_off_c, 0, 81, 0
1, 240908, Note_off_c, 0, 51, 0
1, 241017, Note_on_c, 0, 81, 60
1, 241017, Note_on_c, 0, 51, 37
1, 241026, Note_off_c, 0, 83, 0
1, 241026, Note_off_c, 0, 59, 0
1, 241135, Note_on_c, 0, 80, 60
1, 241135, Note_on_c, 0, 52, 39
1, 241145, Note_off_c, 0, 81, 0
1, 241145, Note_off_c, 0, 51, 0
1, 241176, Control_c, 0, 64, 0
1, 241254, Control_c, 0, 64, 0
1, 241254, Control_c, 0, 64, 0
1, 241254, Note_on_c, 0, 78, 60
1, 241257, Note_on_c, 0, 54, 39
1, 241263, Note_off_c, 0, 80, 0
1, 241263, Note_off_c, 0, 52, 0
1, 241365, Control_c, 0, 64, 127
1, 241372, Note_on_c, 0, 83, 58
1, 241372, Note_on_c, 0, 59, 41
1, 241381, Note_off_c, 0, 78, 0
1, 241381, Note_off_c, 0, 54, 0
1, 241490, Note_on_c, 0, 78, 57
1, 241490, Note_on_c, 0, 54, 42
1, 241499, Note_off_c, 0, 83, 0
1, 241499, Note_off_c, 0, 59, 0
1, 241608, Note_on_c, 0, 76, 57
1, 241608, Note_on_c, 0, 56, 43
1, 241618, Note_off_c, 0, 78, 0
1, 241618, Note_off_c, 0, 54, 0
1, 241677, Control_c, 0, 64, 0
1, 241727, Note_on_c, 0, 75, 55
1, 241727, Note_on_c, 0, 57, 45
1, 241737, Note_off_c, 0, 76, 0
1, 241737, Note_off_c, 0, 56, 0
1, 241808, Control_c, 0, 64, 127
1, 241859, Note_on_c, 0, 76, 55
1, 241859, Note_on_c, 0, 56, 46
1, 241868, Note_off_c, 0, 75, 0
1, 241868, Note_off_c, 0, 57, 0
1, 241977, Note_on_c, 0, 75, 53
1, 241977, Note_on_c, 0, 57, 47
1, 241986, Note_off_c, 0, 76, 0
1, 241986, Note_off_c, 0, 56, 0
1, 242095, Note_on_c, 0, 73, 52
1, 242095, Note_on_c, 0, 58, 48
1, 242104, Note_off_c, 0, 75, 0
1, 242104, Note_off_c, 0, 57, 0
1, 242135, Control_c, 0, 64, 0
1, 242213, Control_c, 0, 64, 0
1, 242213, Control_c, 0, 64, 0
1, 242213, Note_on_c, 0, 71, 62
1, 242216, Note_on_c, 0, 59, 49
1, 242223, Note_off_c, 0, 73, 0
1, 242223, Note_off_c, 0, 58, 0
1, 242331, Control_c, 0, 64, 127
1, 242338, Note_on_c, 0, 73, 53
1, 242338, Note_on_c, 0, 58, 48
1, 242348, Note_off_c, 0, 71, 0
1, 242348, Note_off_c, 0, 59, 0
1, 242463, Note_on_c, 0, 63, 56
1, 242463, Note_on_c, 0, 57, 46
1, 242473, Note_off_c, 0, 73, 0
1, 242473, Note_off_c, 0, 58, 0
1, 242595, Note_on_c, 0, 64, 57
1, 242595, Note_on_c, 0, 56, 45
1, 242606, Note_off_c, 0, 63, 0
1, 242606, Note_off_c, 0, 57, 0
1, 242672, Control_c, 0, 64, 0
1, 242727, Note_on_c, 0, 66, 59
1, 242727, Note_on_c, 0, 54, 41
1, 242740, Note_off_c, 0, 64, 0
1, 242740, Note_off_c, 0, 56, 0
1, 242765, Control_c, 0, 64, 0
1, 242888, Note_on_c, 0, 69, 55
1, 242888, Note_on_c, 0, 47, 31
1, 242888, Note_on_c, 0, 51, 46
1, 242900, Note_off_c, 0, 66, 0
1, 242900, Note_off_c, 0, 54, 0
1, 243038, Note_on_c, 0, 68, 50
1, 243038, Note_on_c, 0, 49, 30
1, 243038, Note_on_c, 0, 52, 52
1, 243049, Note_off_c, 0, 69, 0
1, 243049, Note_off_c, 0, 47, 0
1, 243049, Note_off_c, 0, 51, 0
1, 243187, Note_on_c, 0, 66, 46
1, 243187, Note_on_c, 0, 51, 28
1, 243187, Note_on_c, 0, 54, 58
1, 243200, Note_off_c, 0, 68, 0
1, 243200, Note_off_c, 0, 49, 0
1, 243200, Note_off_c, 0, 52, 0
1, 243348, Control_c, 0, 64, 0
1, 243348, Control_c, 0, 64, 0
1, 243348, Note_on_c, 0, 68, 42
1, 243351, Note_on_c, 0, 52, 46
1, 243351, Note_on_c, 0, 56, 59
1, 243360, Note_off_c, 0, 66, 0
1, 243360, Note_off_c, 0, 51, 0
1, 243360, Note_off_c, 0, 54, 0
1, 243503, Control_c, 0, 64, 127
1, 243508, Note_off_c, 0, 68, 0
1, 243508, Note_on_c, 0, 71, 42
1, 243633, Note_off_c, 0, 71, 0
1, 243633, Note_on_c, 0, 59, 42
1, 243758, Note_off_c, 0, 59, 0
1, 243758, Note_on_c, 0, 71, 42
1, 243877, Control_c, 0, 64, 0
1, 243883, Note_off_c, 0, 71, 0
1, 243883, Note_on_c, 0, 68, 42
1, 243883, Note_off_c, 0, 56, 0
1, 243886, Note_on_c, 0, 59, 62
1, 243987, Control_c, 0, 64, 127
1, 244023, Note_on_c, 0, 71, 42
1, 244163, Note_off_c, 0, 68, 0
1, 244163, Note_off_c, 0, 71, 0
1, 244163, Note_on_c, 0, 66, 42
1, 244166, Note_off_c, 0, 59, 0
1, 244166, Note_on_c, 0, 57, 59
1, 244195, Control_c, 0, 64, 0
1, 244296, Note_on_c, 0, 71, 42
1, 244312, Control_c, 0, 64, 127
1, 244428, Control_c, 0, 64, 0
1, 244428, Control_c, 0, 64, 127
1, 244428, Note_off_c, 0, 66, 0
1, 244431, Note_off_c, 0, 71, 0
1, 244431, Note_off_c, 0, 52, 0
1, 244431, Note_off_c, 0, 57, 0
1, 244434, Note_on_c, 0, 64, 42
1, 244434, Note_on_c, 0, 47, 45
1, 244434, Note_on_c, 0, 56, 62
1, 244503, Control_c, 0, 64, 0
1, 244588, Note_on_c, 0, 71, 42
1, 244639, Control_c, 0, 64, 127
1, 244749, Note_off_c, 0, 64, 0
1, 244749, Note_on_c, 0, 63, 42
1, 244749, Note_off_c, 0, 56, 0
1, 244752, Note_on_c, 0, 54, 59
1, 244795, Control_c, 0, 64, 0
1, 244881, Note_off_c, 0, 71, 0
1, 244881, Note_on_c, 0, 71, 42
1, 244895, Control_c, 0, 64, 127
1, 245013, Note_off_c, 0, 63, 0
1, 245013, Note_on_c, 0, 63, 42
1, 245013, Note_off_c, 0, 54, 0
1, 245016, Note_on_c, 0, 54, 59
1, 245138, Note_off_c, 0, 71, 0
1, 245138, Note_on_c, 0, 71, 42
1, 245263, Note_off_c, 0, 63, 0
1, 245263, Note_on_c, 0, 65, 42
1, 245263, Note_off_c, 0, 54, 0
1, 245266, Note_on_c, 0, 56, 62
1, 245266, Control_c, 0, 64, 0
1, 245395, Note_off_c, 0, 71, 0
1, 245395, Note_on_c, 0, 71, 42
1, 245415, Control_c, 0, 64, 127
1, 245527, Control_c, 0, 64, 0
1, 245527, Control_c, 0, 64, 127
1, 245527, Note_off_c, 0, 65, 0
1, 245530, Note_off_c, 0, 47, 0
1, 245530, Note_off_c, 0, 56, 0
1, 245530, Note_on_c, 0, 66, 42
1, 245533, Note_on_c, 0, 47, 45
1, 245533, Note_on_c, 0, 57, 67
1, 245579, Control_c, 0, 64, 0
1, 245667, Note_off_c, 0, 66, 0
1, 245667, Note_off_c, 0, 71, 0
1, 245667, Note_on_c, 0, 71, 43
1, 245672, Control_c, 0, 64, 127
1, 245808, Note_off_c, 0, 71, 0
1, 245808, Note_on_c, 0, 69, 46
1, 245808, Note_off_c, 0, 57, 0
1, 245811, Note_on_c, 0, 61, 70
1, 245832, Control_c, 0, 64, 0
1, 245957, Note_on_c, 0, 71, 47
1, 245957, Control_c, 0, 64, 127
1, 246100, Control_c, 0, 64, 0
1, 246107, Note_off_c, 0, 69, 0
1, 246107, Note_off_c, 0, 71, 0
1, 246107, Note_on_c, 0, 68, 49
1, 246110, Note_off_c, 0, 47, 0
1, 246110, Note_off_c, 0, 61, 0
1, 246110, Note_on_c, 0, 47, 45
1, 246113, Note_on_c, 0, 59, 66
1, 246239, Note_on_c, 0, 71, 50
1, 246250, Control_c, 0, 64, 127
1, 246371, Note_off_c, 0, 68, 0
1, 246371, Note_off_c, 0, 71, 0
1, 246371, Note_on_c, 0, 71, 52
1, 246374, Note_off_c, 0, 47, 0
1, 246374, Note_off_c, 0, 59, 0
1, 246374, Note_on_c, 0, 45, 45
1, 246377, Note_on_c, 0, 54, 62
1, 246424, Control_c, 0, 64, 0
1, 246504, Note_on_c, 0, 75, 53
1, 246583, Control_c, 0, 64, 127
1, 246653, Control_c, 0, 64, 0
1, 246653, Control_c, 0, 64, 127
1, 246653, Control_c, 0, 64, 0
1, 246656, Note_off_c, 0, 71, 0
1, 246656, Note_off_c, 0, 45, 0
1, 246656, Note_off_c, 0, 54, 0
1, 246659, Note_on_c, 0, 71, 51
1, 246659, Note_on_c, 0, 44, 32
1, 246659, Note_on_c, 0, 56, 50
1, 246709, Control_c, 0, 64, 0
1, 246803, Note_off_c, 0, 71, 0
1, 246803, Note_off_c, 0, 75, 0
1, 246803, Note_on_c, 0, 76, 52
1, 246808, Control_c, 0, 64, 127
1, 246935, Note_on_c, 0, 71, 53
1, 246957, Control_c, 0, 64, 0
1, 247067, Note_off_c, 0, 71, 0
1, 247067, Note_off_c, 0, 76, 0
1, 247067, Note_on_c, 0, 78, 57
1, 247070, Note_off_c, 0, 44, 0
1, 247070, Note_off_c, 0, 56, 0
1, 247070, Control_c, 0, 64, 127
1, 247193, Control_c, 0, 64, 0
1, 247199, Note_on_c, 0, 71, 57
1, 247340, Note_off_c, 0, 71, 0
1, 247340, Note_off_c, 0, 78, 0
1, 247340, Note_on_c, 0, 79, 64
1, 247351, Control_c, 0, 64, 127
1, 247480, Note_on_c, 0, 71, 59
1, 247536, Control_c, 0, 64, 0
1, 247621, Note_off_c, 0, 71, 0
1, 247621, Note_off_c, 0, 79, 0
1, 247621, Note_on_c, 0, 80, 69
1, 247695, Control_c, 0, 64, 127
1, 247761, Control_c, 0, 64, 0
1, 247761, Control_c, 0, 64, 0
1, 247761, Control_c, 0, 64, 0
1, 247764, Note_off_c, 0, 80, 0
1, 247764, Note_on_c, 0, 80, 74
1, 247764, Note_on_c, 0, 71, 53
1, 247767, Note_on_c, 0, 52, 42
1, 247942, Control_c, 0, 64, 127
1, 247948, Note_off_c, 0, 71, 0
1, 247948, Note_on_c, 0, 76, 53
1, 247948, Note_on_c, 0, 64, 42
1, 248073, Note_off_c, 0, 76, 0
1, 248073, Note_on_c, 0, 71, 53
1, 248073, Note_off_c, 0, 52, 0
1, 248076, Note_on_c, 0, 52, 42
1, 248198, Note_off_c, 0, 71, 0
1, 248198, Note_on_c, 0, 76, 53
1, 248198, Note_off_c, 0, 64, 0
1, 248201, Note_on_c, 0, 64, 42
1, 248317, Control_c, 0, 64, 0
1, 248323, Note_off_c, 0, 80, 0
1, 248323, Note_off_c, 0, 76, 0
1, 248323, Note_on_c, 0, 76, 53
1, 248326, Note_on_c, 0, 83, 74
1, 248326, Note_off_c, 0, 52, 0
1, 248326, Note_on_c, 0, 49, 42
1, 248427, Control_c, 0, 64, 127
1, 248463, Note_off_c, 0, 76, 0
1, 248463, Note_on_c, 0, 69, 53
1, 248463, Note_off_c, 0, 64, 0
1, 248466, Note_on_c, 0, 61, 42
1, 248603, Note_off_c, 0, 69, 0
1, 248603, Note_on_c, 0, 73, 53
1, 248603, Note_off_c, 0, 83, 0
1, 248606, Note_on_c, 0, 81, 74
1, 248606, Note_off_c, 0, 49, 0
1, 248606, Note_on_c, 0, 45, 42
1, 248634, Control_c, 0, 64, 0
1, 248728, Note_off_c, 0, 73, 0
1, 248728, Note_on_c, 0, 76, 53
1, 248728, Note_off_c, 0, 61, 0
1, 248731, Note_on_c, 0, 57, 42
1, 248743, Control_c, 0, 64, 127
1, 248853, Control_c, 0, 64, 0
1, 248853, Control_c, 0, 64, 127
1, 248853, Control_c, 0, 64, 0
1, 248856, Note_off_c, 0, 76, 0
1, 248856, Note_off_c, 0, 81, 0
1, 248856, Note_off_c, 0, 45, 0
1, 248859, Note_off_c, 0, 57, 0
1, 248859, Note_on_c, 0, 80, 74
1, 248859, Note_on_c, 0, 76, 53
1, 248862, Note_on_c, 0, 47, 42
1, 248915, Control_c, 0, 64, 0
1, 248985, Note_off_c, 0, 76, 0
1, 248985, Note_on_c, 0, 71, 53
1, 248985, Note_on_c, 0, 59, 42
1, 249027, Control_c, 0, 64, 127
1, 249117, Note_off_c, 0, 80, 0
1, 249117, Note_off_c, 0, 71, 0
1, 249117, Note_on_c, 0, 75, 49
1, 249120, Note_on_c, 0, 78, 69
1, 249120, Note_off_c, 0, 47, 0
1, 249120, Note_on_c, 0, 47, 42
1, 249161, Control_c, 0, 64, 0
1, 249242, Note_off_c, 0, 75, 0
1, 249242, Note_on_c, 0, 71, 49
1, 249242, Note_off_c, 0, 59, 0
1, 249245, Note_on_c, 0, 59, 42
1, 249255, Control_c, 0, 64, 127
1, 249367, Note_off_c, 0, 71, 0
1, 249367, Note_on_c, 0, 75, 49
1, 249367, Note_off_c, 0, 78, 0
1, 249370, Note_on_c, 0, 78, 69
1, 249370, Note_off_c, 0, 47, 0
1, 249370, Note_on_c, 0, 57, 42
1, 249492, Note_off_c, 0, 75, 0
1, 249492, Note_on_c, 0, 71, 53
1, 249492, Note_off_c, 0, 59, 0
1, 249495, Note_on_c, 0, 69, 42
1, 249617, Note_off_c, 0, 71, 0
1, 249617, Note_on_c, 0, 76, 53
1, 249617, Note_off_c, 0, 78, 0
1, 249620, Note_on_c, 0, 80, 74
1, 249620, Note_off_c, 0, 57, 0
1, 249620, Note_on_c, 0, 56, 42
1, 249623, Control_c, 0, 64, 0
1, 249741, Note_off_c, 0, 76, 0
1, 249741, Note_on_c, 0, 71, 53
1, 249741, Note_off_c, 0, 69, 0
1, 249744, Note_on_c, 0, 68, 42
1, 249760, Control_c, 0, 64, 127
1, 249866, Control_c, 0, 64, 0
1, 249866, Control_c, 0, 64, 127
1, 249866, Control_c, 0, 64, 0
1, 249869, Note_off_c, 0, 71, 0
1, 249869, Note_off_c, 0, 80, 0
1, 249869, Note_off_c, 0, 56, 0
1, 249872, Note_off_c, 0, 68, 0
1, 249872, Note_on_c, 0, 81, 74
1, 249872, Note_on_c, 0, 78, 53
1, 249875, Note_on_c, 0, 54, 42
1, 249919, Control_c, 0, 64, 0
1, 250007, Note_off_c, 0, 78, 0
1, 250007, Note_on_c, 0, 71, 53
1, 250007, Note_on_c, 0, 66, 42
1, 250012, Control_c, 0, 64, 127
1, 250147, Note_off_c, 0, 81, 0
1, 250147, Note_off_c, 0, 71, 0
1, 250147, Note_on_c, 0, 80, 57
1, 250150, Note_on_c, 0, 85, 77
1, 250150, Note_off_c, 0, 54, 0
1, 250150, Note_on_c, 0, 52, 42
1, 250169, Control_c, 0, 64, 0
1, 250279, Note_off_c, 0, 80, 0
1, 250279, Note_on_c, 0, 71, 57
1, 250279, Note_off_c, 0, 66, 0
1, 250282, Note_on_c, 0, 64, 42
1, 250282, Control_c, 0, 64, 127
1, 250405, Control_c, 0, 64, 0
1, 250411, Note_off_c, 0, 71, 0
1, 250411, Note_on_c, 0, 78, 57
1, 250411, Note_off_c, 0, 85, 0
1, 250414, Note_on_c, 0, 83, 77
1, 250414, Note_off_c, 0, 52, 0
1, 250414, Note_on_c, 0, 51, 42
1, 250505, Control_c, 0, 64, 0
1, 250543, Note_off_c, 0, 78, 0
1, 250543, Note_on_c, 0, 71, 53
1, 250543, Note_off_c, 0, 64, 0
1, 250546, Note_on_c, 0, 63, 42
1, 250572, Note_off_c, 0, 83, 0
1, 250624, Note_off_c, 0, 71, 0
1, 250676, Note_on_c, 0, 78, 40
1, 250676, Note_on_c, 0, 81, 40
1, 250676, Note_on_c, 0, 87, 67
1, 250679, Note_off_c, 0, 51, 0
1, 250679, Note_on_c, 0, 47, 42
1, 250744, Note_off_c, 0, 78, 0
1, 250744, Note_off_c, 0, 81, 0
1, 250744, Note_off_c, 0, 87, 0
1, 250808, Note_off_c, 0, 63, 0
1, 250808, Note_on_c, 0, 59, 42
1, 250940, Control_c, 0, 64, 0
1, 250940, Control_c, 0, 64, 127
1, 250940, Control_c, 0, 64, 0
1, 250943, Control_c, 0, 64, 0
1, 250943, Note_off_c, 0, 47, 0
1, 250943, Note_off_c, 0, 59, 0
1, 250946, Note_on_c, 0, 76, 46
1, 250946, Note_on_c, 0, 80, 46
1, 250946, Note_on_c, 0, 88, 58
1, 250949, Note_on_c, 0, 52, 42
1, 250949, Note_on_c, 0, 64, 42
1, 251000, Control_c, 0, 64, 0
1, 251100, Note_off_c, 0, 76, 0
1, 251100, Note_off_c, 0, 80, 0
1, 251100, Note_off_c, 0, 88, 0
1, 251103, Note_on_c, 0, 76, 46
1, 251103, Control_c, 0, 64, 127
1, 251225, Note_off_c, 0, 76, 0
1, 251225, Note_on_c, 0, 71, 46
1, 251246, Control_c, 0, 64, 0
1, 251350, Note_off_c, 0, 71, 0
1, 251350, Note_on_c, 0, 68, 46
1, 251350, Control_c, 0, 64, 127
1, 251469, Control_c, 0, 64, 0
1, 251475, Note_off_c, 0, 68, 0
1, 251475, Note_on_c, 0, 71, 46
1, 251475, Note_off_c, 0, 52, 0
1, 251478, Note_off_c, 0, 64, 0
1, 251599, Note_off_c, 0, 71, 0
1, 251599, Note_on_c, 0, 68, 46
1, 251610, Control_c, 0, 64, 127
1, 251724, Note_off_c, 0, 68, 0
1, 251724, Note_on_c, 0, 66, 46
1, 251724, Note_on_c, 0, 51, 40
1, 251727, Note_on_c, 0, 59, 65
1, 251780, Control_c, 0, 64, 0
1, 251865, Note_off_c, 0, 66, 0
1, 251865, Note_on_c, 0, 75, 46
1, 251939, Control_c, 0, 64, 127
1, 252005, Control_c, 0, 64, 0
1, 252005, Control_c, 0, 64, 127
1, 252005, Note_off_c, 0, 75, 0
1, 252008, Note_on_c, 0, 66, 39
1, 252008, Note_on_c, 0, 49, 42
1, 252008, Note_on_c, 0, 58, 68
1, 252017, Note_off_c, 0, 51, 0
1, 252017, Note_off_c, 0, 59, 0
1, 252104, Control_c, 0, 64, 0
1, 252155, Note_off_c, 0, 66, 0
1, 252155, Note_on_c, 0, 76, 46
1, 252206, Control_c, 0, 64, 127
1, 252280, Note_off_c, 0, 76, 0
1, 252280, Note_on_c, 0, 73, 46
1, 252404, Note_off_c, 0, 73, 0
1, 252404, Note_on_c, 0, 66, 39
1, 252529, Note_off_c, 0, 66, 0
1, 252529, Note_on_c, 0, 66, 39
1, 252529, Note_off_c, 0, 58, 0
1, 252532, Note_on_c, 0, 58, 42
1, 252532, Note_on_c, 0, 64, 70
1, 252535, Control_c, 0, 64, 0
1, 252539, Note_off_c, 0, 49, 0
1, 252617, Control_c, 0, 64, 127
1, 252654, Note_off_c, 0, 66, 0
1, 252654, Note_on_c, 0, 78, 46
1, 252779, Note_off_c, 0, 78, 0
1, 252779, Note_on_c, 0, 73, 46
1, 252904, Note_off_c, 0, 73, 0
1, 252904, Note_on_c, 0, 66, 39
1, 253028, Control_c, 0, 64, 0
1, 253028, Control_c, 0, 64, 127
1, 253028, Note_off_c, 0, 66, 0
1, 253031, Note_on_c, 0, 66, 39
1, 253031, Note_on_c, 0, 59, 42
1, 253031, Note_on_c, 0, 63, 65
1, 253039, Note_off_c, 0, 58, 0
1, 253039, Note_off_c, 0, 64, 0
1, 253081, Control_c, 0, 64, 0
1, 253169, Note_off_c, 0, 66, 0
1, 253169, Note_on_c, 0, 75, 46
1, 253185, Control_c, 0, 64, 127
1, 253294, Note_off_c, 0, 75, 0
1, 253294, Note_on_c, 0, 71, 46
1, 253418, Note_off_c, 0, 71, 0
1, 253418, Note_on_c, 0, 66, 46
1, 253526, Control_c, 0, 64, 0
1, 253543, Note_off_c, 0, 66, 0
1, 253543, Note_on_c, 0, 63, 46
1, 253543, Note_off_c, 0, 59, 0
1, 253546, Note_on_c, 0, 47, 38
1, 253546, Note_on_c, 0, 59, 64
1, 253554, Note_off_c, 0, 63, 0
1, 253637, Control_c, 0, 64, 127
1, 253675, Note_off_c, 0, 63, 0
1, 253675, Note_on_c, 0, 71, 46
1, 253808, Note_off_c, 0, 71, 0
1, 253808, Note_on_c, 0, 64, 46
1, 253808, Note_on_c, 0, 49, 38
1, 253811, Note_on_c, 0, 57, 66
1, 253818, Note_off_c, 0, 47, 0
1, 253818, Note_off_c, 0, 59, 0
1, 253863, Control_c, 0, 64, 0
1, 253943, Control_c, 0, 64, 127
1, 253948, Note_off_c, 0, 64, 0
1, 253948, Note_on_c, 0, 69, 46
1, 254088, Control_c, 0, 64, 0
1, 254088, Control_c, 0, 64, 127
1, 254088, Control_c, 0, 64, 0
1, 254091, Note_off_c, 0, 69, 0
1, 254091, Note_on_c, 0, 64, 39
1, 254091, Note_on_c, 0, 50, 38
1, 254094, Note_on_c, 0, 56, 66
1, 254100, Note_off_c, 0, 49, 0
1, 254100, Note_off_c, 0, 57, 0
1, 254187, Control_c, 0, 64, 0
1, 254238, Note_off_c, 0, 64, 0
1, 254238, Note_on_c, 0, 71, 46
1, 254289, Control_c, 0, 64, 127
1, 254363, Note_off_c, 0, 71, 0
1, 254363, Note_on_c, 0, 68, 46
1, 254488, Note_off_c, 0, 68, 0
1, 254488, Note_on_c, 0, 64, 39
1, 254612, Note_off_c, 0, 64, 0
1, 254612, Note_on_c, 0, 64, 39
1, 254612, Note_off_c, 0, 56, 0
1, 254615, Note_on_c, 0, 56, 38
1, 254615, Note_on_c, 0, 62, 68
1, 254619, Control_c, 0, 64, 0
1, 254624, Note_off_c, 0, 50, 0
1, 254718, Control_c, 0, 64, 127
1, 254762, Note_off_c, 0, 64, 0
1, 254762, Note_on_c, 0, 76, 46
1, 254894, Note_off_c, 0, 76, 0
1, 254894, Note_on_c, 0, 71, 46
1, 255027, Note_off_c, 0, 71, 0
1, 255027, Note_on_c, 0, 64, 39
1, 255159, Control_c, 0, 64, 0
1, 255159, Control_c, 0, 64, 0
1, 255159, Note_off_c, 0, 64, 0
1, 255162, Note_on_c, 0, 64, 39
1, 255162, Note_on_c, 0, 57, 42
1, 255162, Note_on_c, 0, 61, 65
1, 255170, Note_off_c, 0, 56, 0
1, 255170, Note_off_c, 0, 62, 0
1, 255173, Control_c, 0, 64, 127
1, 255243, Control_c, 0, 64, 0
1, 255308, Note_off_c, 0, 64, 0
1, 255308, Note_on_c, 0, 76, 46
1, 255360, Control_c, 0, 64, 127
1, 255433, Note_off_c, 0, 76, 0
1, 255433, Note_on_c, 0, 73, 46
1, 255558, Note_off_c, 0, 73, 0
1, 255558, Note_on_c, 0, 69, 46
1, 255683, Note_off_c, 0, 69, 0
1, 255683, Note_on_c, 0, 64, 39
1, 255808, Note_off_c, 0, 64, 0
1, 255808, Note_on_c, 0, 76, 46
1, 255932, Note_off_c, 0, 76, 0
1, 255932, Note_on_c, 0, 64, 39
1, 255932, Note_off_c, 0, 57, 0
1, 255935, Note_off_c, 0, 61, 0
1, 255935, Note_on_c, 0, 57, 46
1, 255935, Note_on_c, 0, 61, 67
1, 256073, Note_off_c, 0, 64, 0
1, 256073, Note_on_c, 0, 76, 46
1, 256213, Control_c, 0, 64, 0
1, 256213, Control_c, 0, 64, 127
1, 256213, Note_off_c, 0, 76, 0
1, 256216, Note_on_c, 0, 64, 39
1, 256216, Note_on_c, 0, 56, 46
1, 256216, Note_on_c, 0, 60, 67
1, 256225, Note_off_c, 0, 57, 0
1, 256225, Note_off_c, 0, 61, 0
1, 256283, Control_c, 0, 64, 0
1, 256363, Note_off_c, 0, 64, 0
1, 256363, Note_on_c, 0, 76, 47
1, 256424, Control_c, 0, 64, 127
1, 256513, Note_off_c, 0, 76, 0
1, 256513, Note_on_c, 0, 64, 40
1, 256513, Note_on_c, 0, 57, 41
1, 256516, Note_on_c, 0, 61, 62
1, 256523, Note_off_c, 0, 56, 0
1, 256523, Note_off_c, 0, 60, 0
1, 256584, Control_c, 0, 64, 0
1, 256645, Note_off_c, 0, 64, 0
1, 256645, Note_on_c, 0, 76, 48
1, 256684, Control_c, 0, 64, 127
1, 256777, Note_off_c, 0, 76, 0
1, 256777, Note_on_c, 0, 64, 41
1, 256777, Note_off_c, 0, 57, 0
1, 256780, Note_on_c, 0, 49, 41
1, 256780, Note_on_c, 0, 57, 62
1, 256787, Note_off_c, 0, 61, 0
1, 256820, Control_c, 0, 64, 0
1, 256908, Control_c, 0, 64, 127
1, 256908, Note_off_c, 0, 64, 0
1, 256908, Note_on_c, 0, 76, 49
1, 257041, Note_off_c, 0, 76, 0
1, 257041, Note_on_c, 0, 64, 42
1, 257041, Note_on_c, 0, 47, 45
1, 257044, Note_on_c, 0, 56, 66
1, 257052, Note_off_c, 0, 49, 0
1, 257052, Note_off_c, 0, 57, 0
1, 257097, Control_c, 0, 64, 0
1, 257182, Note_off_c, 0, 64, 0
1, 257182, Note_on_c, 0, 76, 50
1, 257216, Control_c, 0, 64, 127
1, 257322, Control_c, 0, 64, 0
1, 257322, Control_c, 0, 64, 127
1, 257322, Control_c, 0, 64, 0
1, 257325, Note_off_c, 0, 76, 0
1, 257325, Note_off_c, 0, 47, 0
1, 257325, Note_off_c, 0, 56, 0
1, 257328, Note_on_c, 0, 64, 43
1, 257328, Note_on_c, 0, 47, 49
1, 257328, Note_on_c, 0, 56, 66
1, 257397, Control_c, 0, 64, 0
1, 257483, Note_off_c, 0, 64, 0
1, 257483, Note_on_c, 0, 76, 51
1, 257548, Control_c, 0, 64, 127
1, 257643, Note_off_c, 0, 76, 0
1, 257643, Note_on_c, 0, 64, 45
1, 257643, Note_on_c, 0, 46, 37
1, 257646, Note_on_c, 0, 54, 58
1, 257653, Note_off_c, 0, 47, 0
1, 257653, Note_off_c, 0, 56, 0
1, 257711, Control_c, 0, 64, 0
1, 257768, Note_off_c, 0, 64, 0
1, 257768, Note_on_c, 0, 76, 52
1, 257781, Control_c, 0, 64, 127
1, 257893, Note_off_c, 0, 76, 0
1, 257893, Note_on_c, 0, 64, 46
1, 258017, Note_off_c, 0, 64, 0
1, 258017, Note_on_c, 0, 76, 53
1, 258142, Note_off_c, 0, 76, 0
1, 258142, Note_on_c, 0, 64, 39
1, 258142, Note_off_c, 0, 46, 0
1, 258145, Note_off_c, 0, 54, 0
1, 258145, Note_on_c, 0, 46, 45
1, 258145, Note_on_c, 0, 54, 66
1, 258195, Control_c, 0, 64, 0
1, 258274, Note_off_c, 0, 64, 0
1, 258274, Note_on_c, 0, 76, 46
1, 258307, Control_c, 0, 64, 127
1, 258407, Control_c, 0, 64, 0
1, 258407, Control_c, 0, 64, 0
1, 258407, Note_off_c, 0, 76, 0
1, 258410, Note_off_c, 0, 54, 0
1, 258410, Note_on_c, 0, 63, 46
1, 258410, Note_on_c, 0, 47, 43
1, 258413, Note_on_c, 0, 54, 65
1, 258417, Note_off_c, 0, 46, 0
1, 258547, Note_off_c, 0, 63, 0
1, 258547, Note_on_c, 0, 75, 46
1, 258687, Note_off_c, 0, 75, 0
1, 258687, Note_on_c, 0, 71, 46
1, 258687, Note_on_c, 0, 59, 65
1, 258697, Note_off_c, 0, 54, 0
1, 258812, Note_off_c, 0, 71, 0
1, 258812, Note_on_c, 0, 66, 46
1, 258937, Note_off_c, 0, 66, 0
1, 258937, Note_on_c, 0, 66, 46
1, 258937, Note_on_c, 0, 58, 59
1, 258947, Note_off_c, 0, 59, 0
1, 259069, Note_off_c, 0, 66, 0
1, 259069, Note_on_c, 0, 78, 49
1, 259201, Note_off_c, 0, 78, 0
1, 259201, Note_on_c, 0, 75, 46
1, 259201, Note_on_c, 0, 59, 55
1, 259212, Note_off_c, 0, 58, 0
1, 259333, Note_off_c, 0, 75, 0
1, 259333, Note_on_c, 0, 69, 46
1, 259474, Control_c, 0, 64, 0
1, 259474, Control_c, 0, 64, 0
1, 259474, Control_c, 0, 64, 0
1, 259477, Note_off_c, 0, 69, 0
1, 259477, Note_off_c, 0, 47, 0
1, 259477, Note_off_c, 0, 59, 0
1, 259480, Note_on_c, 0, 68, 55
1, 259480, Note_on_c, 0, 52, 36
1, 259614, Note_on_c, 0, 59, 36
1, 259739, Note_off_c, 0, 52, 0
1, 259739, Note_off_c, 0, 59, 0
1, 259739, Note_on_c, 0, 56, 36
1, 259864, Note_on_c, 0, 52, 36
1, 259989, Note_off_c, 0, 68, 0
1, 259989, Note_off_c, 0, 52, 0
1, 259989, Note_off_c, 0, 56, 0
1, 259992, Note_on_c, 0, 51, 42
1, 260077, Control_c, 0, 64, 127
1, 260113, Note_on_c, 0, 59, 36
1, 260238, Note_on_c, 0, 71, 48
1, 260238, Note_on_c, 0, 83, 66
1, 260238, Note_off_c, 0, 51, 0
1, 260241, Note_off_c, 0, 59, 0
1, 260241, Note_on_c, 0, 54, 36
1, 260379, Note_off_c, 0, 54, 0
1, 260379, Note_on_c, 0, 51, 36
1, 260519, Control_c, 0, 64, 0
1, 260519, Control_c, 0, 64, 127
1, 260519, Control_c, 0, 64, 0
1, 260522, Note_off_c, 0, 71, 0
1, 260522, Note_off_c, 0, 83, 0
1, 260522, Note_off_c, 0, 51, 0
1, 260525, Note_on_c, 0, 70, 52
1, 260525, Note_on_c, 0, 82, 70
1, 260525, Note_on_c, 0, 49, 49
1, 260575, Control_c, 0, 64, 0
1, 260669, Note_on_c, 0, 58, 37
1, 260708, Control_c, 0, 64, 127
1, 260793, Note_off_c, 0, 49, 0
1, 260793, Note_off_c, 0, 58, 0
1, 260793, Note_on_c, 0, 54, 37
1, 260918, Note_off_c, 0, 54, 0
1, 260918, Note_on_c, 0, 49, 37
1, 261043, Note_off_c, 0, 70, 0
1, 261043, Note_off_c, 0, 82, 0
1, 261043, Note_on_c, 0, 76, 57
1, 261046, Note_on_c, 0, 88, 75
1, 261046, Note_off_c, 0, 49, 0
1, 261046, Note_on_c, 0, 42, 49
1, 261049, Control_c, 0, 64, 0
1, 261168, Note_on_c, 0, 58, 37
1, 261178, Control_c, 0, 64, 127
1, 261293, Note_off_c, 0, 42, 0
1, 261293, Note_off_c, 0, 58, 0
1, 261293, Note_on_c, 0, 54, 37
1, 261417, Note_off_c, 0, 54, 0
1, 261417, Note_on_c, 0, 49, 37
1, 261542, Control_c, 0, 64, 0
1, 261542, Control_c, 0, 64, 127
1, 261542, Control_c, 0, 64, 0
1, 261545, Note_off_c, 0, 76, 0
1, 261545, Note_off_c, 0, 88, 0
1, 261545, Note_off_c, 0, 49, 0
1, 261548, Note_on_c, 0, 75, 52
1, 261548, Note_on_c, 0, 87, 70
1, 261548, Note_on_c, 0, 47, 56
1, 261601, Control_c, 0, 64, 0
1, 261667, Note_on_c, 0, 59, 42
1, 261683, Control_c, 0, 64, 127
1, 261792, Note_off_c, 0, 47, 0
1, 261792, Note_off_c, 0, 59, 0
1, 261792, Note_on_c, 0, 54, 42
1, 261917, Note_off_c, 0, 54, 0
1, 261917, Note_on_c, 0, 51, 42
1, 262041, Note_off_c, 0, 51, 0
1, 262041, Note_on_c, 0, 47, 49
1, 262166, Note_on_c, 0, 59, 42
1, 262291, Note_off_c, 0, 75, 0
1, 262291, Note_off_c, 0, 87, 0
1, 262291, Note_on_c, 0, 69, 49
1, 262294, Note_on_c, 0, 81, 67
1, 262294, Note_off_c, 0, 47, 0
1, 262294, Note_off_c, 0, 59, 0
1, 262297, Note_on_c, 0, 49, 49
1, 262321, Control_c, 0, 64, 0
1, 262431, Note_on_c, 0, 57, 42
1, 262440, Control_c, 0, 64, 127
1, 262572, Control_c, 0, 64, 0
1, 262572, Control_c, 0, 64, 127
1, 262572, Control_c, 0, 64, 0
1, 262575, Note_off_c, 0, 69, 0
1, 262575, Note_off_c, 0, 81, 0
1, 262575, Note_off_c, 0, 49, 0
1, 262578, Note_off_c, 0, 57, 0
1, 262578, Note_on_c, 0, 68, 52
1, 262578, Note_on_c, 0, 80, 70
1, 262581, Note_on_c, 0, 47, 56
1, 262642, Control_c, 0, 64, 0
1, 262722, Note_on_c, 0, 56, 42
1, 262785, Control_c, 0, 64, 127
1, 262846, Note_off_c, 0, 47, 0
1, 262846, Note_off_c, 0, 56, 0
1, 262846, Note_on_c, 0, 52, 42
1, 262971, Note_off_c, 0, 52, 0
1, 262971, Note_on_c, 0, 47, 42
1, 263096, Note_off_c, 0, 68, 0
1, 263096, Note_off_c, 0, 80, 0
1, 263096, Note_on_c, 0, 74, 52
1, 263099, Note_on_c, 0, 86, 70
1, 263099, Note_off_c, 0, 47, 0
1, 263099, Note_on_c, 0, 40, 56
1, 263114, Control_c, 0, 64, 0
1, 263219, Control_c, 0, 64, 127
1, 263219, Note_on_c, 0, 56, 42
1, 263346, Note_off_c, 0, 40, 0
1, 263346, Note_off_c, 0, 56, 0
1, 263346, Note_on_c, 0, 52, 42
1, 263470, Note_off_c, 0, 52, 0
1, 263470, Note_on_c, 0, 47, 42
1, 263595, Control_c, 0, 64, 0
1, 263595, Control_c, 0, 64, 127
1, 263595, Control_c, 0, 64, 0
1, 263598, Note_off_c, 0, 74, 0
1, 263598, Note_off_c, 0, 86, 0
1, 263598, Note_off_c, 0, 47, 0
1, 263601, Note_on_c, 0, 73, 48
1, 263601, Note_on_c, 0, 85, 66
1, 263601, Note_on_c, 0, 45, 56
1, 263666, Control_c, 0, 64, 0
1, 263720, Note_on_c, 0, 57, 42
1, 263783, Control_c, 0, 64, 127
1, 263845, Note_off_c, 0, 45, 0
1, 263845, Note_off_c, 0, 57, 0
1, 263845, Note_on_c, 0, 52, 42
1, 263970, Note_off_c, 0, 52, 0
1, 263970, Note_on_c, 0, 49, 42
1, 264089, Control_c, 0, 64, 0
1, 264094, Note_off_c, 0, 49, 0
1, 264094, Note_on_c, 0, 45, 42
1, 264219, Note_on_c, 0, 52, 42
1, 264241, Control_c, 0, 64, 127
1, 264344, Note_off_c, 0, 73, 0
1, 264344, Note_off_c, 0, 85, 0
1, 264344, Note_on_c, 0, 73, 49
1, 264347, Note_on_c, 0, 85, 67
1, 264347, Note_off_c, 0, 45, 0
1, 264347, Note_off_c, 0, 52, 0
1, 264350, Note_on_c, 0, 45, 60
1, 264484, Note_on_c, 0, 52, 42
1, 264625, Control_c, 0, 64, 0
1, 264625, Control_c, 0, 64, 127
1, 264625, Control_c, 0, 64, 0
1, 264628, Note_off_c, 0, 73, 0
1, 264628, Note_off_c, 0, 85, 0
1, 264628, Note_off_c, 0, 45, 0
1, 264631, Note_off_c, 0, 52, 0
1, 264631, Note_on_c, 0, 72, 52
1, 264631, Note_on_c, 0, 84, 70
1, 264634, Note_on_c, 0, 44, 60
1, 264670, Control_c, 0, 64, 0
1, 264776, Control_c, 0, 64, 127
1, 264785, Note_on_c, 0, 52, 42
1, 264946, Note_off_c, 0, 72, 0
1, 264946, Note_off_c, 0, 84, 0
1, 264946, Note_on_c, 0, 73, 49
1, 264949, Note_on_c, 0, 85, 67
1, 264949, Note_off_c, 0, 44, 0
1, 264949, Note_off_c, 0, 52, 0
1, 264952, Note_on_c, 0, 45, 42
1, 264980, Control_c, 0, 64, 0
1, 265078, Note_on_c, 0, 52, 42
1, 265078, Control_c, 0, 64, 127
1, 265191, Control_c, 0, 64, 0
1, 265210, Note_off_c, 0, 73, 0
1, 265210, Note_off_c, 0, 85, 0
1, 265210, Note_on_c, 0, 69, 52
1, 265213, Note_on_c, 0, 81, 70
1, 265213, Note_off_c, 0, 45, 0
1, 265213, Note_off_c, 0, 52, 0
1, 265216, Note_on_c, 0, 45, 49
1, 265216, Note_on_c, 0, 49, 42
1, 265322, Control_c, 0, 64, 127
1, 265350, Note_off_c, 0, 49, 0
1, 265350, Note_on_c, 0, 52, 42
1, 265491, Note_off_c, 0, 69, 0
1, 265491, Note_off_c, 0, 81, 0
1, 265491, Note_on_c, 0, 68, 56
1, 265494, Note_on_c, 0, 80, 74
1, 265494, Note_off_c, 0, 45, 0
1, 265494, Note_off_c, 0, 52, 0
1, 265497, Note_on_c, 0, 47, 48
1, 265497, Note_on_c, 0, 52, 42
1, 265621, Control_c, 0, 64, 0
1, 265641, Note_on_c, 0, 56, 42
1, 265698, Control_c, 0, 64, 127
1, 265790, Control_c, 0, 64, 0
1, 265790, Control_c, 0, 64, 127
1, 265790, Control_c, 0, 64, 0
1, 265793, Note_off_c, 0, 68, 0
1, 265793, Note_off_c, 0, 80, 0
1, 265793, Note_off_c, 0, 47, 0
1, 265796, Note_off_c, 0, 52, 0
1, 265796, Note_off_c, 0, 56, 0
1, 265796, Note_on_c, 0, 68, 55
1, 265799, Note_on_c, 0, 80, 73
1, 265799, Note_on_c, 0, 49, 61
1, 265799, Note_on_c, 0, 52, 46
1, 265847, Control_c, 0, 64, 0
1, 265951, Note_off_c, 0, 52, 0
1, 265951, Note_on_c, 0, 58, 45
1, 265960, Control_c, 0, 64, 127
1, 266111, Note_off_c, 0, 68, 0
1, 266111, Note_off_c, 0, 80, 0
1, 266111, Note_on_c, 0, 66, 46
1, 266114, Note_on_c, 0, 78, 64
1, 266114, Note_off_c, 0, 49, 0
1, 266114, Note_off_c, 0, 58, 0
1, 266117, Note_on_c, 0, 49, 43
1, 266117, Note_on_c, 0, 52, 43
1, 266170, Control_c, 0, 64, 0
1, 266220, Control_c, 0, 64, 127
1, 266243, Note_off_c, 0, 52, 0
1, 266243, Note_on_c, 0, 58, 42
1, 266376, Note_off_c, 0, 49, 0
1, 266376, Note_off_c, 0, 58, 0
1, 266376, Note_on_c, 0, 48, 51
1, 266379, Note_on_c, 0, 52, 42
1, 266394, Control_c, 0, 64, 0
1, 266494, Control_c, 0, 64, 127
1, 266508, Note_off_c, 0, 52, 0
1, 266508, Note_on_c, 0, 57, 41
1, 266640, Note_off_c, 0, 66, 0
1, 266640, Note_off_c, 0, 78, 0
1, 266640, Note_on_c, 0, 66, 50
1, 266643, Note_on_c, 0, 78, 68
1, 266643, Note_off_c, 0, 48, 0
1, 266643, Note_off_c, 0, 57, 0
1, 266646, Note_on_c, 0, 48, 40
1, 266646, Note_on_c, 0, 52, 40
1, 266790, Note_off_c, 0, 52, 0
1, 266790, Note_on_c, 0, 57, 39
1, 266939, Control_c, 0, 64, 0
1, 266939, Control_c, 0, 64, 127
1, 266939, Control_c, 0, 64, 0
1, 266942, Note_off_c, 0, 66, 0
1, 266942, Note_off_c, 0, 78, 0
1, 266942, Note_off_c, 0, 48, 0
1, 266945, Note_off_c, 0, 57, 0
1, 266945, Note_on_c, 0, 66, 48
1, 266945, Note_on_c, 0, 78, 65
1, 266948, Note_on_c, 0, 47, 46
1, 267024, Control_c, 0, 64, 0
1, 267089, Note_on_c, 0, 51, 41
1, 267089, Note_on_c, 0, 54, 41
1, 267089, Note_on_c, 0, 57, 41
1, 267136, Control_c, 0, 64, 127
1, 267239, Note_off_c, 0, 66, 0
1, 267239, Note_off_c, 0, 78, 0
1, 267239, Note_on_c, 0, 71, 47
1, 267242, Note_on_c, 0, 83, 62
1, 267242, Note_off_c, 0, 47, 0
1, 267242, Note_off_c, 0, 51, 0
1, 267245, Note_off_c, 0, 54, 0
1, 267245, Note_off_c, 0, 57, 0
1, 267245, Note_on_c, 0, 47, 41
1, 267348, Control_c, 0, 64, 127
1, 267371, Note_off_c, 0, 47, 0
1, 267371, Note_on_c, 0, 51, 41
1, 267371, Note_on_c, 0, 54, 41
1, 267374, Note_on_c, 0, 57, 41
1, 267503, Note_off_c, 0, 71, 0
1, 267503, Note_off_c, 0, 83, 0
1, 267503, Note_on_c, 0, 70, 46
1, 267506, Note_on_c, 0, 82, 61
1, 267506, Note_off_c, 0, 51, 0
1, 267506, Note_off_c, 0, 54, 0
1, 267509, Note_off_c, 0, 57, 0
1, 267509, Note_on_c, 0, 47, 41
1, 267635, Note_off_c, 0, 47, 0
1, 267635, Note_on_c, 0, 51, 41
1, 267635, Note_on_c, 0, 54, 41
1, 267638, Note_on_c, 0, 57, 41
1, 267767, Note_off_c, 0, 70, 0
1, 267767, Note_off_c, 0, 82, 0
1, 267767, Note_on_c, 0, 71, 45
1, 267770, Note_on_c, 0, 83, 59
1, 267770, Note_off_c, 0, 51, 0
1, 267770, Note_off_c, 0, 54, 0
1, 267773, Note_off_c, 0, 57, 0
1, 267773, Note_on_c, 0, 47, 41
1, 267877, Control_c, 0, 64, 0
1, 267908, Note_off_c, 0, 47, 0
1, 267908, Note_on_c, 0, 51, 41
1, 267908, Note_on_c, 0, 54, 41
1, 267911, Note_on_c, 0, 57, 41
1, 268048, Control_c, 0, 64, 127
1, 268048, Control_c, 0, 64, 0
1, 268048, Note_off_c, 0, 71, 0
1, 268051, Note_off_c, 0, 83, 0
1, 268051, Note_off_c, 0, 51, 0
1, 268051, Note_off_c, 0, 54, 0
1, 268054, Note_off_c, 0, 57, 0
1, 268054, Note_on_c, 0, 64, 43
1, 268054, Note_on_c, 0, 76, 59
1, 268057, Note_on_c, 0, 47, 41
1, 268133, Control_c, 0, 64, 0
1, 268198, Note_on_c, 0, 52, 41
1, 268198, Note_on_c, 0, 56, 41
1, 268245, Control_c, 0, 64, 127
1, 268348, Note_off_c, 0, 64, 0
1, 268348, Note_off_c, 0, 76, 0
1, 268348, Note_on_c, 0, 71, 43
1, 268351, Note_on_c, 0, 83, 64
1, 268351, Note_off_c, 0, 47, 0
1, 268351, Note_off_c, 0, 52, 0
1, 268354, Note_off_c, 0, 56, 0
1, 268354, Note_on_c, 0, 47, 41
1, 268457, Control_c, 0, 64, 127
1, 268480, Note_off_c, 0, 47, 0
1, 268480, Note_on_c, 0, 52, 41
1, 268480, Note_on_c, 0, 56, 41
1, 268612, Note_off_c, 0, 71, 0
1, 268612, Note_off_c, 0, 83, 0
1, 268612, Note_on_c, 0, 70, 43
1, 268615, Note_on_c, 0, 82, 64
1, 268615, Note_off_c, 0, 52, 0
1, 268615, Note_off_c, 0, 56, 0
1, 268618, Note_on_c, 0, 47, 41
1, 268744, Note_off_c, 0, 47, 0
1, 268744, Note_on_c, 0, 52, 41
1, 268744, Note_on_c, 0, 56, 41
1, 268876, Note_off_c, 0, 70, 0
1, 268876, Note_off_c, 0, 82, 0
1, 268876, Note_on_c, 0, 71, 38
1, 268879, Note_on_c, 0, 83, 58
1, 268879, Note_off_c, 0, 52, 0
1, 268879, Note_off_c, 0, 56, 0
1, 268882, Note_on_c, 0, 47, 41
1, 268979, Control_c, 0, 64, 0
1, 269008, Note_off_c, 0, 47, 0
1, 269008, Note_on_c, 0, 52, 41
1, 269008, Note_on_c, 0, 56, 41
1, 269141, Control_c, 0, 64, 127
1, 269141, Control_c, 0, 64, 0
1, 269141, Note_off_c, 0, 71, 0
1, 269144, Note_off_c, 0, 83, 0
1, 269144, Note_off_c, 0, 52, 0
1, 269144, Note_off_c, 0, 56, 0
1, 269147, Note_on_c, 0, 47, 41
1, 269147, Note_on_c, 0, 54, 41
1, 269225, Control_c, 0, 64, 0
1, 269290, Note_on_c, 0, 75, 51
1, 269335, Control_c, 0, 64, 127
1, 269431, Note_on_c, 0, 83, 57
1, 269431, Note_on_c, 0, 59, 58
1, 269442, Note_off_c, 0, 75, 0
1, 269554, Control_c, 0, 64, 127
1, 269581, Note_on_c, 0, 81, 55
1, 269590, Note_off_c, 0, 83, 0
1, 269705, Note_on_c, 0, 78, 51
1, 269705, Note_on_c, 0, 58, 57
1, 269715, Note_off_c, 0, 81, 0
1, 269715, Note_off_c, 0, 59, 0
1, 269830, Note_on_c, 0, 75, 49
1, 269840, Note_off_c, 0, 78, 0
1, 269955, Note_on_c, 0, 71, 46
1, 269955, Note_on_c, 0, 59, 51
1, 269965, Note_off_c, 0, 75, 0
1, 269965, Note_off_c, 0, 58, 0
1, 270052, Control_c, 0, 64, 0
1, 270080, Note_on_c, 0, 69, 43
1, 270089, Note_off_c, 0, 71, 0
1, 270205, Control_c, 0, 64, 127
1, 270205, Control_c, 0, 64, 0
1, 270205, Note_off_c, 0, 69, 0
1, 270208, Note_off_c, 0, 47, 0
1, 270208, Note_off_c, 0, 54, 0
1, 270208, Note_off_c, 0, 59, 0
1, 270211, Note_on_c, 0, 47, 41
1, 270211, Note_on_c, 0, 52, 41
1, 270289, Control_c, 0, 64, 0
1, 270354, Note_on_c, 0, 68, 51
1, 270399, Control_c, 0, 64, 127
1, 270495, Note_on_c, 0, 83, 60
1, 270495, Note_on_c, 0, 59, 58
1, 270507, Note_off_c, 0, 68, 0
1, 270627, Control_c, 0, 64, 127
1, 270655, Note_on_c, 0, 80, 58
1, 270665, Note_off_c, 0, 83, 0
1, 270780, Note_on_c, 0, 76, 57
1, 270780, Note_on_c, 0, 58, 58
1, 270790, Note_off_c, 0, 80, 0
1, 270790, Note_off_c, 0, 59, 0
1, 270905, Note_on_c, 0, 71, 55
1, 270914, Note_off_c, 0, 76, 0
1, 271030, Note_on_c, 0, 69, 53
1, 271030, Note_on_c, 0, 59, 51
1, 271039, Note_off_c, 0, 71, 0
1, 271039, Note_off_c, 0, 58, 0
1, 271127, Control_c, 0, 64, 0
1, 271154, Note_on_c, 0, 68, 51
1, 271164, Note_off_c, 0, 69, 0
1, 271279, Control_c, 0, 64, 127
1, 271279, Control_c, 0, 64, 0
1, 271279, Note_off_c, 0, 68, 0
1, 271282, Note_off_c, 0, 47, 0
1, 271282, Note_off_c, 0, 52, 0
1, 271282, Note_off_c, 0, 59, 0
1, 271285, Note_on_c, 0, 66, 48
1, 271285, Note_on_c, 0, 78, 65
1, 271285, Note_on_c, 0, 47, 46
1, 271364, Control_c, 0, 64, 0
1, 271429, Note_on_c, 0, 51, 41
1, 271429, Note_on_c, 0, 54, 41
1, 271429, Note_on_c, 0, 57, 41
1, 271476, Control_c, 0, 64, 127
1, 271579, Note_off_c, 0, 66, 0
1, 271579, Note_off_c, 0, 78, 0
1, 271579, Note_on_c, 0, 71, 47
1, 271582, Note_on_c, 0, 83, 62
1, 271582, Note_off_c, 0, 47, 0
1, 271582, Note_off_c, 0, 51, 0
1, 271585, Note_off_c, 0, 54, 0
1, 271585, Note_off_c, 0, 57, 0
1, 271585, Note_on_c, 0, 47, 42
1, 271688, Control_c, 0, 64, 127
1, 271711, Note_off_c, 0, 47, 0
1, 271711, Note_on_c, 0, 51, 43
1, 271711, Note_on_c, 0, 54, 43
1, 271714, Note_on_c, 0, 57, 43
1, 271843, Note_off_c, 0, 71, 0
1, 271843, Note_off_c, 0, 83, 0
1, 271843, Note_on_c, 0, 70, 46
1, 271846, Note_on_c, 0, 82, 61
1, 271846, Note_off_c, 0, 51, 0
1, 271846, Note_off_c, 0, 54, 0
1, 271849, Note_off_c, 0, 57, 0
1, 271849, Note_on_c, 0, 47, 45
1, 271975, Note_off_c, 0, 47, 0
1, 271975, Note_on_c, 0, 51, 46
1, 271975, Note_on_c, 0, 54, 46
1, 271978, Note_on_c, 0, 57, 46
1, 272107, Note_off_c, 0, 70, 0
1, 272107, Note_off_c, 0, 82, 0
1, 272107, Note_on_c, 0, 71, 45
1, 272110, Note_on_c, 0, 83, 59
1, 272110, Note_off_c, 0, 51, 0
1, 272110, Note_off_c, 0, 54, 0
1, 272113, Note_off_c, 0, 57, 0
1, 272113, Note_on_c, 0, 47, 47
1, 272216, Control_c, 0, 64, 0
1, 272248, Note_off_c, 0, 47, 0
1, 272248, Note_on_c, 0, 51, 48
1, 272248, Note_on_c, 0, 54, 48
1, 272251, Note_on_c, 0, 57, 48
1, 272388, Control_c, 0, 64, 127
1, 272388, Control_c, 0, 64, 0
1, 272388, Note_off_c, 0, 71, 0
1, 272391, Note_off_c, 0, 83, 0
1, 272391, Note_off_c, 0, 51, 0
1, 272391, Note_off_c, 0, 54, 0
1, 272394, Note_off_c, 0, 57, 0
1, 272394, Note_on_c, 0, 65, 50
1, 272394, Note_on_c, 0, 77, 66
1, 272397, Note_on_c, 0, 47, 48
1, 272473, Control_c, 0, 64, 0
1, 272538, Note_on_c, 0, 50, 48
1, 272538, Note_on_c, 0, 53, 48
1, 272538, Note_on_c, 0, 56, 48
1, 272585, Control_c, 0, 64, 127
1, 272688, Note_off_c, 0, 65, 0
1, 272688, Note_off_c, 0, 77, 0
1, 272688, Note_on_c, 0, 74, 56
1, 272691, Note_on_c, 0, 86, 77
1, 272691, Note_off_c, 0, 47, 0
1, 272691, Note_off_c, 0, 50, 0
1, 272694, Note_off_c, 0, 53, 0
1, 272694, Note_off_c, 0, 56, 0
1, 272694, Note_on_c, 0, 47, 48
1, 272796, Control_c, 0, 64, 127
1, 272820, Note_off_c, 0, 47, 0
1, 272820, Note_on_c, 0, 50, 48
1, 272820, Note_on_c, 0, 53, 48
1, 272823, Note_on_c, 0, 56, 48
1, 272952, Note_off_c, 0, 74, 0
1, 272952, Note_off_c, 0, 86, 0
1, 272952, Note_on_c, 0, 73, 57
1, 272955, Note_on_c, 0, 85, 78
1, 272955, Note_off_c, 0, 50, 0
1, 272955, Note_off_c, 0, 53, 0
1, 272958, Note_off_c, 0, 56, 0
1, 272958, Note_on_c, 0, 47, 48
1, 273084, Note_off_c, 0, 47, 0
1, 273084, Note_on_c, 0, 50, 48
1, 273084, Note_on_c, 0, 53, 48
1, 273087, Note_on_c, 0, 56, 48
1, 273216, Note_off_c, 0, 73, 0
1, 273216, Note_off_c, 0, 85, 0
1, 273216, Note_on_c, 0, 74, 52
1, 273219, Note_on_c, 0, 86, 74
1, 273219, Note_off_c, 0, 50, 0
1, 273219, Note_off_c, 0, 53, 0
1, 273222, Note_off_c, 0, 56, 0
1, 273222, Note_on_c, 0, 47, 48
1, 273319, Control_c, 0, 64, 0
1, 273348, Note_off_c, 0, 47, 0
1, 273348, Note_on_c, 0, 50, 48
1, 273348, Note_on_c, 0, 53, 48
1, 273351, Note_on_c, 0, 56, 48
1, 273480, Control_c, 0, 64, 127
1, 273480, Control_c, 0, 64, 0
1, 273480, Note_off_c, 0, 74, 0
1, 273483, Note_off_c, 0, 86, 0
1, 273483, Note_off_c, 0, 50, 0
1, 273483, Note_off_c, 0, 53, 0
1, 273486, Note_off_c, 0, 56, 0
1, 273486, Note_on_c, 0, 85, 76
1, 273486, Note_on_c, 0, 45, 49
1, 273586, Control_c, 0, 64, 0
1, 273668, Note_on_c, 0, 49, 45
1, 273668, Note_on_c, 0, 54, 45
1, 273727, Control_c, 0, 64, 127
1, 273855, Note_off_c, 0, 85, 0
1, 273855, Note_on_c, 0, 78, 70
1, 273855, Note_off_c, 0, 45, 0
1, 273858, Note_off_c, 0, 49, 0
1, 273858, Note_off_c, 0, 54, 0
1, 273858, Note_on_c, 0, 45, 43
1, 273971, Control_c, 0, 64, 127
1, 273995, Note_off_c, 0, 45, 0
1, 273995, Note_on_c, 0, 49, 43
1, 273995, Note_on_c, 0, 54, 43
1, 274136, Note_off_c, 0, 78, 0
1, 274136, Note_on_c, 0, 81, 73
1, 274136, Note_off_c, 0, 49, 0
1, 274139, Note_off_c, 0, 54, 0
1, 274139, Note_on_c, 0, 45, 42
1, 274268, Note_on_c, 0, 49, 42
1, 274268, Note_on_c, 0, 54, 42
1, 274400, Note_off_c, 0, 81, 0
1, 274400, Note_on_c, 0, 73, 68
1, 274400, Note_off_c, 0, 45, 0
1, 274403, Note_off_c, 0, 49, 0
1, 274403, Note_off_c, 0, 54, 0
1, 274403, Note_on_c, 0, 45, 42
1, 274503, Control_c, 0, 64, 0
1, 274532, Note_off_c, 0, 45, 0
1, 274532, Note_on_c, 0, 49, 41
1, 274532, Note_on_c, 0, 54, 41
1, 274664, Control_c, 0, 64, 127
1, 274664, Control_c, 0, 64, 0
1, 274664, Note_off_c, 0, 73, 0
1, 274667, Note_off_c, 0, 49, 0
1, 274667, Note_off_c, 0, 54, 0
1, 274667, Note_on_c, 0, 78, 65
1, 274670, Note_on_c, 0, 46, 41
1, 274749, Control_c, 0, 64, 0
1, 274814, Note_on_c, 0, 49, 41
1, 274814, Note_on_c, 0, 52, 41
1, 274814, Note_on_c, 0, 54, 41
1, 274861, Control_c, 0, 64, 127
1, 274964, Note_off_c, 0, 78, 0
1, 274964, Note_on_c, 0, 73, 64
1, 274964, Note_off_c, 0, 46, 0
1, 274967, Note_off_c, 0, 49, 0
1, 274967, Note_off_c, 0, 52, 0
1, 274967, Note_off_c, 0, 54, 0
1, 274970, Note_on_c, 0, 46, 41
1, 275073, Control_c, 0, 64, 127
1, 275096, Note_on_c, 0, 49, 41
1, 275096, Note_on_c, 0, 52, 41
1, 275096, Note_on_c, 0, 54, 41
1, 275228, Note_off_c, 0, 73, 0
1, 275228, Note_on_c, 0, 76, 62
1, 275228, Note_off_c, 0, 46, 0
1, 275231, Note_off_c, 0, 49, 0
1, 275231, Note_off_c, 0, 52, 0
1, 275231, Note_off_c, 0, 54, 0
1, 275234, Note_on_c, 0, 46, 41
1, 275360, Note_on_c, 0, 49, 41
1, 275360, Note_on_c, 0, 52, 41
1, 275360, Note_on_c, 0, 54, 41
1, 275492, Note_off_c, 0, 76, 0
1, 275492, Note_on_c, 0, 66, 56
1, 275492, Note_off_c, 0, 46, 0
1, 275495, Note_off_c, 0, 49, 0
1, 275495, Note_off_c, 0, 52, 0
1, 275495, Note_off_c, 0, 54, 0
1, 275498, Note_on_c, 0, 46, 41
1, 275595, Control_c, 0, 64, 0
1, 275624, Note_on_c, 0, 49, 41
1, 275624, Note_on_c, 0, 52, 41
1, 275624, Note_on_c, 0, 54, 41
1, 275757, Control_c, 0, 64, 127
1, 275757, Control_c, 0, 64, 0
1, 275757, Note_off_c, 0, 66, 0
1, 275760, Note_off_c, 0, 46, 0
1, 275760, Note_off_c, 0, 49, 0
1, 275760, Note_off_c, 0, 52, 0
1, 275763, Note_off_c, 0, 54, 0
1, 275763, Note_on_c, 0, 71, 64
1, 275763, Note_on_c, 0, 47, 46
1, 275831, Control_c, 0, 64, 0
1, 275889, Note_on_c, 0, 52, 33
1, 275889, Note_on_c, 0, 56, 41
1, 275930, Control_c, 0, 64, 127
1, 276021, Note_off_c, 0, 71, 0
1, 276021, Note_on_c, 0, 68, 58
1, 276021, Note_off_c, 0, 47, 0
1, 276024, Note_off_c, 0, 52, 0
1, 276024, Note_off_c, 0, 56, 0
1, 276024, Note_on_c, 0, 47, 33
1, 276130, Control_c, 0, 64, 127
1, 276153, Note_off_c, 0, 47, 0
1, 276153, Note_on_c, 0, 52, 33
1, 276153, Note_on_c, 0, 56, 41
1, 276285, Note_off_c, 0, 68, 0
1, 276285, Note_on_c, 0, 71, 56
1, 276285, Note_off_c, 0, 52, 0
1, 276288, Note_off_c, 0, 56, 0
1, 276288, Note_on_c, 0, 47, 33
1, 276417, Note_off_c, 0, 47, 0
1, 276417, Note_on_c, 0, 52, 33
1, 276417, Note_on_c, 0, 56, 41
1, 276549, Note_off_c, 0, 71, 0
1, 276549, Note_on_c, 0, 64, 55
1, 276549, Note_off_c, 0, 52, 0
1, 276552, Note_off_c, 0, 56, 0
1, 276552, Note_on_c, 0, 47, 33
1, 276652, Control_c, 0, 64, 0
1, 276682, Note_off_c, 0, 47, 0
1, 276682, Note_on_c, 0, 52, 33
1, 276682, Note_on_c, 0, 56, 41
1, 276814, Control_c, 0, 64, 127
1, 276814, Control_c, 0, 64, 0
1, 276814, Note_off_c, 0, 64, 0
1, 276817, Note_off_c, 0, 52, 0
1, 276817, Note_off_c, 0, 56, 0
1, 276817, Note_on_c, 0, 63, 56
1, 276820, Note_on_c, 0, 47, 41
1, 276893, Control_c, 0, 64, 0
1, 276954, Note_on_c, 0, 54, 41
1, 276998, Control_c, 0, 64, 127
1, 277094, Note_off_c, 0, 63, 0
1, 277094, Note_on_c, 0, 71, 52
1, 277094, Note_off_c, 0, 47, 0
1, 277097, Note_off_c, 0, 54, 0
1, 277097, Note_on_c, 0, 47, 38
1, 277210, Control_c, 0, 64, 127
1, 277235, Note_off_c, 0, 47, 0
1, 277235, Note_on_c, 0, 51, 37
1, 277375, Note_off_c, 0, 71, 0
1, 277375, Note_on_c, 0, 63, 39
1, 277375, Note_on_c, 0, 66, 59
1, 277378, Note_off_c, 0, 51, 0
1, 277378, Note_on_c, 0, 47, 37
1, 277525, Note_off_c, 0, 47, 0
1, 277525, Note_on_c, 0, 59, 36
1, 277675, Note_off_c, 0, 63, 0
1, 277675, Note_off_c, 0, 66, 0
1, 277675, Note_on_c, 0, 63, 33
1, 277678, Note_on_c, 0, 71, 53
1, 277678, Note_off_c, 0, 59, 0
1, 277678, Note_on_c, 0, 47, 36
1, 277791, Control_c, 0, 64, 0
1, 277825, Note_off_c, 0, 47, 0
1, 277825, Note_on_c, 0, 59, 34
1, 277974, Note_off_c, 0, 63, 0
1, 277974, Note_off_c, 0, 71, 0
1, 277974, Note_off_c, 0, 59, 0
1, 277977, Note_on_c, 0, 59, 50
1, 278124, Note_on_c, 0, 62, 50
1, 278153, Control_c, 0, 64, 127
1, 278256, Note_off_c, 0, 62, 0
1, 278256, Note_on_c, 0, 68, 52
1, 278388, Note_off_c, 0, 68, 0
1, 278388, Note_on_c, 0, 65, 46
1, 278439, Control_c, 0, 64, 0
1, 278520, Note_off_c, 0, 65, 0
1, 278520, Note_on_c, 0, 57, 56
1, 278530, Note_off_c, 0, 59, 0
1, 278645, Note_on_c, 0, 61, 57
1, 278679, Control_c, 0, 64, 127
1, 278770, Note_off_c, 0, 61, 0
1, 278770, Note_on_c, 0, 69, 59
1, 278895, Note_off_c, 0, 69, 0
1, 278895, Note_on_c, 0, 66, 52
1, 278914, Control_c, 0, 64, 0
1, 279020, Note_off_c, 0, 66, 0
1, 279020, Note_on_c, 0, 56, 45
1, 279020, Note_on_c, 0, 59, 58
1, 279029, Note_off_c, 0, 57, 0
1, 279144, Note_on_c, 0, 71, 64
1, 279172, Control_c, 0, 64, 127
1, 279269, Note_off_c, 0, 71, 0
1, 279269, Note_on_c, 0, 83, 67
1, 279394, Note_off_c, 0, 83, 0
1, 279394, Note_on_c, 0, 80, 60
1, 279442, Control_c, 0, 64, 0
1, 279519, Note_off_c, 0, 80, 0
1, 279519, Note_on_c, 0, 54, 50
1, 279519, Note_on_c, 0, 57, 64
1, 279529, Note_off_c, 0, 56, 0
1, 279529, Note_off_c, 0, 59, 0
1, 279644, Note_on_c, 0, 73, 74
1, 279677, Control_c, 0, 64, 127
1, 279768, Note_off_c, 0, 73, 0
1, 279768, Note_on_c, 0, 85, 77
1, 279893, Note_off_c, 0, 85, 0
1, 279893, Note_on_c, 0, 81, 71
1, 279912, Control_c, 0, 64, 0
1, 280018, Note_off_c, 0, 81, 0
1, 280018, Note_on_c, 0, 53, 57
1, 280018, Note_on_c, 0, 56, 70
1, 280030, Note_off_c, 0, 54, 0
1, 280030, Note_off_c, 0, 57, 0
1, 280168, Note_on_c, 0, 74, 85
1, 280197, Control_c, 0, 64, 127
1, 280300, Note_off_c, 0, 74, 0
1, 280300, Note_on_c, 0, 86, 88
1, 280300, Note_off_c, 0, 53, 0
1, 280303, Note_off_c, 0, 56, 0
1, 280432, Note_off_c, 0, 86, 0
1, 280432, Note_on_c, 0, 83, 81
1, 280483, Control_c, 0, 64, 0
1, 280564, Note_off_c, 0, 83, 0
1, 280564, Note_on_c, 0, 53, 62
1, 280564, Note_on_c, 0, 56, 76
1, 280714, Note_on_c, 0, 73, 80
1, 280754, Control_c, 0, 64, 127
1, 280864, Note_off_c, 0, 73, 0
1, 280864, Note_on_c, 0, 85, 85
1, 280864, Note_off_c, 0, 53, 0
1, 280867, Note_off_c, 0, 56, 0
1, 281037, Note_off_c, 0, 85, 0
1, 281037, Note_on_c, 0, 83, 78
1, 281068, Control_c, 0, 64, 0
1, 281241, Note_off_c, 0, 83, 0
1, 282034, Note_on_c, 0, 61, 58
1, 282183, Note_on_c, 0, 63, 62
1, 282195, Note_off_c, 0, 61, 0
1, 282333, Note_on_c, 0, 58, 49
1, 282333, Note_on_c, 0, 64, 65
1, 282347, Note_off_c, 0, 63, 0
1, 282544, Control_c, 0, 64, 127
1, 282679, Note_on_c, 0, 67, 62
1, 282691, Note_off_c, 0, 64, 0
1, 282992, Control_c, 0, 64, 0
1, 283000, Note_on_c, 0, 66, 60
1, 283011, Note_off_c, 0, 67, 0
1, 283280, Note_on_c, 0, 61, 58
1, 283291, Note_off_c, 0, 66, 0
1, 283561, Control_c, 0, 64, 0
1, 283561, Note_on_c, 0, 78, 64
1, 283561, Note_on_c, 0, 59, 38
1, 283564, Note_on_c, 0, 63, 55
1, 283575, Note_off_c, 0, 58, 0
1, 283575, Note_off_c, 0, 61, 0
1, 283854, Control_c, 0, 64, 127
1, 283907, Note_on_c, 0, 85, 74
1, 283919, Note_off_c, 0, 78, 0
1, 284199, Control_c, 0, 64, 0
1, 284206, Note_on_c, 0, 83, 67
1, 284218, Note_off_c, 0, 85, 0
1, 284506, Note_on_c, 0, 78, 65
1, 284518, Note_off_c, 0, 83, 0
1, 284805, Note_on_c, 0, 81, 68
1, 284817, Note_off_c, 0, 78, 0
1, 284960, Control_c, 0, 64, 127
1, 285003, Control_c, 0, 64, 127
1, 285105, Note_on_c, 0, 66, 61
1, 285116, Note_off_c, 0, 63, 0
1, 285386, Note_on_c, 0, 64, 59
1, 285392, Control_c, 0, 64, 0
1, 285397, Note_off_c, 0, 66, 0
1, 285419, Control_c, 0, 64, 0
1, 285667, Note_on_c, 0, 61, 58
1, 285679, Note_off_c, 0, 64, 0
1, 285987, Note_on_c, 0, 64, 62
1, 286000, Note_off_c, 0, 61, 0
1, 286308, Note_off_c, 0, 81, 0
1, 286308, Note_on_c, 0, 81, 68
1, 286608, Note_off_c, 0, 81, 0
1, 286608, Note_on_c, 0, 80, 67
1, 286889, Note_off_c, 0, 80, 0
1, 286889, Note_on_c, 0, 76, 65
1, 287234, Note_off_c, 0, 76, 0
1, 287234, Note_on_c, 0, 80, 70
1, 287580, Note_off_c, 0, 64, 0
1, 287580, Note_on_c, 0, 64, 58
1, 287879, Note_off_c, 0, 59, 0
1, 287879, Note_on_c, 0, 63, 58
1, 287890, Note_off_c, 0, 64, 0
1, 288160, Note_on_c, 0, 59, 58
1, 288171, Note_off_c, 0, 63, 0
1, 288441, Control_c, 0, 64, 127
1, 288441, Note_on_c, 0, 63, 46
1, 288455, Note_off_c, 0, 59, 0
1, 288522, Control_c, 0, 64, 0
1, 288685, Control_c, 0, 64, 127
1, 288787, Note_off_c, 0, 80, 0
1, 288787, Note_on_c, 0, 76, 48
1, 288787, Note_on_c, 0, 80, 65
1, 288790, Note_on_c, 0, 58, 37
1, 288798, Note_off_c, 0, 63, 0
1, 288868, Control_c, 0, 64, 0
1, 288980, Control_c, 0, 64, 127
1, 289086, Note_on_c, 0, 75, 50
1, 289086, Note_on_c, 0, 78, 67
1, 289086, Note_on_c, 0, 59, 41
1, 289099, Note_off_c, 0, 76, 0
1, 289099, Note_off_c, 0, 80, 0
1, 289099, Note_off_c, 0, 58, 0
1, 289139, Control_c, 0, 64, 0
1, 289245, Control_c, 0, 64, 127
1, 289407, Note_off_c, 0, 75, 0
1, 289407, Note_on_c, 0, 71, 49
1, 289407, Note_on_c, 0, 75, 66
1, 289410, Note_on_c, 0, 63, 37
1, 289418, Note_off_c, 0, 78, 0
1, 289418, Note_off_c, 0, 59, 0
1, 289463, Control_c, 0, 64, 0
1, 289582, Control_c, 0, 64, 127
1, 289688, Control_c, 0, 64, 127
1, 289688, Note_off_c, 0, 75, 0
1, 289688, Note_on_c, 0, 75, 49
1, 289691, Note_on_c, 0, 78, 66
1, 289691, Note_on_c, 0, 59, 37
1, 289700, Note_off_c, 0, 71, 0
1, 289700, Note_off_c, 0, 63, 0
1, 289758, Control_c, 0, 64, 0
1, 289899, Control_c, 0, 64, 127
1, 289987, Note_off_c, 0, 78, 0
1, 289987, Note_on_c, 0, 72, 48
1, 289987, Note_on_c, 0, 78, 65
1, 289990, Note_on_c, 0, 56, 32
1, 289998, Note_off_c, 0, 75, 0
1, 289998, Note_off_c, 0, 59, 0
1, 290064, Control_c, 0, 64, 0
1, 290169, Control_c, 0, 64, 127
1, 290268, Note_on_c, 0, 73, 50
1, 290268, Note_on_c, 0, 76, 67
1, 290268, Note_on_c, 0, 47, 40
1, 290271, Note_on_c, 0, 57, 34
1, 290281, Note_off_c, 0, 72, 0
1, 290281, Note_off_c, 0, 78, 0
1, 290281, Note_off_c, 0, 56, 0
1, 290321, Control_c, 0, 64, 0
1, 290427, Control_c, 0, 64, 127
1, 290589, Note_off_c, 0, 73, 0
1, 290589, Note_on_c, 0, 69, 43
1, 290589, Note_on_c, 0, 73, 60
1, 290592, Note_on_c, 0, 61, 34
1, 290600, Note_off_c, 0, 76, 0
1, 290600, Note_off_c, 0, 57, 0
1, 290645, Control_c, 0, 64, 0
1, 290764, Control_c, 0, 64, 127
1, 290870, Control_c, 0, 64, 127
1, 290870, Note_off_c, 0, 73, 0
1, 290870, Note_on_c, 0, 73, 47
1, 290873, Note_on_c, 0, 76, 64
1, 290873, Note_on_c, 0, 57, 34
1, 290882, Note_off_c, 0, 69, 0
1, 290882, Note_off_c, 0, 61, 0
1, 290945, Control_c, 0, 64, 0
1, 291096, Control_c, 0, 64, 127
1, 291191, Note_off_c, 0, 76, 0
1, 291191, Note_on_c, 0, 70, 45
1, 291191, Note_on_c, 0, 76, 61
1, 291194, Note_on_c, 0, 55, 34
1, 291202, Note_off_c, 0, 73, 0
1, 291202, Note_off_c, 0, 57, 0
1, 291267, Control_c, 0, 64, 0
1, 291372, Control_c, 0, 64, 127
1, 291472, Note_on_c, 0, 71, 50
1, 291472, Note_on_c, 0, 75, 67
1, 291472, Note_off_c, 0, 47, 0
1, 291475, Note_on_c, 0, 47, 40
1, 291475, Note_on_c, 0, 56, 34
1, 291483, Note_off_c, 0, 70, 0
1, 291483, Note_off_c, 0, 76, 0
1, 291483, Note_off_c, 0, 55, 0
1, 291521, Control_c, 0, 64, 0
1, 291620, Control_c, 0, 64, 127
1, 291771, Note_off_c, 0, 71, 0
1, 291771, Note_on_c, 0, 68, 42
1, 291771, Note_on_c, 0, 71, 59
1, 291774, Note_off_c, 0, 56, 0
1, 291774, Note_on_c, 0, 59, 34
1, 291782, Note_off_c, 0, 75, 0
1, 291827, Control_c, 0, 64, 0
1, 291946, Control_c, 0, 64, 127
1, 292052, Control_c, 0, 64, 127
1, 292052, Note_off_c, 0, 71, 0
1, 292052, Note_off_c, 0, 59, 0
1, 292055, Note_on_c, 0, 71, 49
1, 292055, Note_on_c, 0, 74, 66
1, 292055, Note_on_c, 0, 56, 34
1, 292064, Note_off_c, 0, 68, 0
1, 292127, Control_c, 0, 64, 0
1, 292278, Control_c, 0, 64, 127
1, 292373, Note_off_c, 0, 74, 0
1, 292373, Note_on_c, 0, 68, 43
1, 292373, Note_on_c, 0, 74, 60
1, 292376, Note_on_c, 0, 53, 23
1, 292385, Note_off_c, 0, 71, 0
1, 292385, Note_off_c, 0, 56, 0
1, 292460, Control_c, 0, 64, 0
1, 292580, Control_c, 0, 64, 127
1, 292694, Note_on_c, 0, 69, 50
1, 292694, Note_on_c, 0, 73, 67
1, 292694, Note_off_c, 0, 47, 0
1, 292697, Note_on_c, 0, 47, 40
1, 292697, Note_on_c, 0, 54, 34
1, 292707, Note_off_c, 0, 68, 0
1, 292707, Note_off_c, 0, 74, 0
1, 292707, Note_off_c, 0, 53, 0
1, 292750, Control_c, 0, 64, 0
1, 292865, Control_c, 0, 64, 127
1, 293039, Note_on_c, 0, 63, 48
1, 293039, Note_on_c, 0, 72, 65
1, 293039, Note_off_c, 0, 47, 0
1, 293042, Note_on_c, 0, 47, 31
1, 293042, Note_on_c, 0, 57, 34
1, 293054, Note_off_c, 0, 69, 0
1, 293054, Note_off_c, 0, 73, 0
1, 293054, Note_off_c, 0, 54, 0
1, 293114, Control_c, 0, 64, 0
1, 293273, Control_c, 0, 64, 127
1, 293414, Control_c, 0, 64, 127
1, 293414, Note_on_c, 0, 64, 52
1, 293414, Note_on_c, 0, 71, 68
1, 293417, Note_on_c, 0, 56, 34
1, 293428, Note_off_c, 0, 63, 0
1, 293428, Note_off_c, 0, 72, 0
1, 293428, Note_off_c, 0, 57, 0
1, 293502, Control_c, 0, 64, 0
1, 293678, Control_c, 0, 64, 127
1, 293788, Note_off_c, 0, 71, 0
1, 293788, Note_on_c, 0, 61, 48
1, 293788, Note_on_c, 0, 71, 64
1, 293791, Note_off_c, 0, 47, 0
1, 293791, Note_on_c, 0, 52, 27
1, 293791, Note_on_c, 0, 47, 43
1, 293801, Note_off_c, 0, 64, 0
1, 293801, Note_off_c, 0, 56, 0
1, 293875, Control_c, 0, 64, 0
1, 293996, Control_c, 0, 64, 127
1, 294109, Note_on_c, 0, 63, 40
1, 294109, Note_on_c, 0, 69, 57
1, 294109, Note_on_c, 0, 54, 34
1, 294125, Note_off_c, 0, 61, 0
1, 294125, Note_off_c, 0, 71, 0
1, 294125, Note_off_c, 0, 52, 0
1, 294176, Control_c, 0, 64, 0
1, 294311, Control_c, 0, 64, 127
1, 294311, Note_on_c, 0, 66, 56
1, 294311, Note_on_c, 0, 57, 37
1, 294326, Note_off_c, 0, 63, 0
1, 294326, Note_off_c, 0, 69, 0
1, 294326, Note_off_c, 0, 54, 0
1, 294474, Note_on_c, 0, 64, 55
1, 294474, Note_off_c, 0, 47, 0
1, 294474, Note_on_c, 0, 47, 43
1, 294477, Note_on_c, 0, 56, 36
1, 294486, Note_off_c, 0, 66, 0
1, 294486, Note_off_c, 0, 57, 0
1, 294538, Control_c, 0, 64, 0
1, 294634, Note_on_c, 0, 66, 53
1, 294634, Note_on_c, 0, 54, 32
1, 294647, Note_off_c, 0, 64, 0
1, 294647, Note_off_c, 0, 56, 0
1, 294674, Control_c, 0, 64, 127
1, 294795, Control_c, 0, 64, 0
1, 294795, Control_c, 0, 64, 0
1, 294795, Control_c, 0, 64, 0
1, 294798, Control_c, 0, 64, 0
1, 294798, Note_off_c, 0, 47, 0
1, 294798, Note_on_c, 0, 68, 57
1, 294801, Note_on_c, 0, 64, 37
1, 294801, Note_on_c, 0, 40, 23
1, 294801, Note_on_c, 0, 52, 33
1, 294806, Note_off_c, 0, 66, 0
1, 294806, Note_off_c, 0, 54, 0
1, 294936, Control_c, 0, 64, 127
1, 294944, Note_off_c, 0, 64, 0
1, 294944, Note_on_c, 0, 59, 37
1, 295085, Note_off_c, 0, 59, 0
1, 295085, Note_on_c, 0, 64, 36
1, 295085, Note_off_c, 0, 40, 0
1, 295088, Note_off_c, 0, 52, 0
1, 295225, Note_off_c, 0, 64, 0
1, 295225, Note_on_c, 0, 59, 36
1, 295366, Note_off_c, 0, 68, 0
1, 295366, Note_off_c, 0, 59, 0
1, 295366, Note_on_c, 0, 68, 46
1, 295369, Note_on_c, 0, 71, 69
1, 295506, Note_off_c, 0, 68, 0
1, 295506, Note_on_c, 0, 59, 42
1, 295646, Note_off_c, 0, 59, 0
1, 295646, Note_on_c, 0, 66, 37
1, 295646, Note_on_c, 0, 69, 64
1, 295657, Note_off_c, 0, 71, 0
1, 295689, Control_c, 0, 64, 0
1, 295787, Note_off_c, 0, 66, 0
1, 295787, Note_on_c, 0, 59, 38
1, 295835, Control_c, 0, 64, 127
1, 295927, Control_c, 0, 64, 0
1, 295927, Control_c, 0, 64, 0
1, 295927, Control_c, 0, 64, 0
1, 295930, Control_c, 0, 64, 0
1, 295930, Note_off_c, 0, 59, 0
1, 295930, Note_on_c, 0, 68, 66
1, 295933, Note_on_c, 0, 64, 39
1, 295933, Note_on_c, 0, 35, 31
1, 295933, Note_on_c, 0, 47, 31
1, 295940, Note_off_c, 0, 69, 0
1, 295940, Control_c, 0, 64, 127
1, 296018, Control_c, 0, 64, 0
1, 296088, Note_off_c, 0, 64, 0
1, 296088, Note_on_c, 0, 59, 39
1, 296108, Control_c, 0, 64, 127
1, 296248, Note_off_c, 0, 59, 0
1, 296248, Note_on_c, 0, 63, 39
1, 296248, Note_on_c, 0, 66, 60
1, 296251, Note_off_c, 0, 35, 0
1, 296251, Note_off_c, 0, 47, 0
1, 296259, Note_off_c, 0, 68, 0
1, 296311, Control_c, 0, 64, 0
1, 296389, Note_off_c, 0, 63, 0
1, 296389, Note_on_c, 0, 59, 39
1, 296403, Control_c, 0, 64, 127
1, 296529, Note_off_c, 0, 59, 0
1, 296529, Note_on_c, 0, 63, 38
1, 296529, Note_off_c, 0, 66, 0
1, 296532, Note_on_c, 0, 66, 60
1, 296669, Note_off_c, 0, 63, 0
1, 296669, Note_on_c, 0, 59, 39
1, 296810, Note_off_c, 0, 59, 0
1, 296810, Note_on_c, 0, 64, 41
1, 296810, Note_on_c, 0, 68, 62
1, 296821, Note_off_c, 0, 66, 0
1, 296853, Control_c, 0, 64, 0
1, 296950, Note_off_c, 0, 64, 0
1, 296950, Note_on_c, 0, 59, 42
1, 296972, Control_c, 0, 64, 127
1, 297091, Control_c, 0, 64, 0
1, 297091, Control_c, 0, 64, 0
1, 297091, Control_c, 0, 64, 127
1, 297094, Control_c, 0, 64, 0
1, 297094, Note_off_c, 0, 59, 0
1, 297094, Note_on_c, 0, 69, 66
1, 297097, Note_on_c, 0, 64, 46
1, 297097, Note_on_c, 0, 37, 31
1, 297097, Note_on_c, 0, 49, 31
1, 297102, Note_off_c, 0, 68, 0
1, 297147, Control_c, 0, 64, 0
1, 297217, Control_c, 0, 64, 127
1, 297240, Note_off_c, 0, 64, 0
1, 297240, Note_on_c, 0, 59, 46
1, 297390, Note_off_c, 0, 59, 0
1, 297390, Note_on_c, 0, 64, 46
1, 297390, Note_on_c, 0, 73, 69
1, 297393, Note_off_c, 0, 37, 0
1, 297393, Note_off_c, 0, 49, 0
1, 297402, Note_off_c, 0, 69, 0
1, 297540, Note_off_c, 0, 64, 0
1, 297540, Note_on_c, 0, 59, 46
1, 297654, Control_c, 0, 64, 0
1, 297690, Note_off_c, 0, 59, 0
1, 297690, Note_on_c, 0, 66, 46
1, 297690, Note_on_c, 0, 71, 66
1, 297693, Note_on_c, 0, 39, 31
1, 297693, Note_on_c, 0, 51, 31
1, 297701, Note_off_c, 0, 73, 0
1, 297763, Control_c, 0, 64, 127
1, 297830, Note_off_c, 0, 66, 0
1, 297830, Note_on_c, 0, 59, 46
1, 297970, Note_off_c, 0, 59, 0
1, 297970, Note_on_c, 0, 63, 46
1, 297970, Note_on_c, 0, 66, 60
1, 297973, Note_off_c, 0, 39, 0
1, 297973, Note_off_c, 0, 51, 0
1, 297973, Note_on_c, 0, 35, 31
1, 297976, Note_on_c, 0, 47, 31
1, 297982, Note_off_c, 0, 71, 0
1, 298044, Control_c, 0, 64, 0
1, 298120, Note_off_c, 0, 63, 0
1, 298120, Note_on_c, 0, 59, 46
1, 298157, Control_c, 0, 64, 127
1, 298270, Control_c, 0, 64, 0
1, 298270, Control_c, 0, 64, 127
1, 298270, Note_off_c, 0, 59, 0
1, 298273, Note_off_c, 0, 35, 0
1, 298273, Note_off_c, 0, 47, 0
1, 298273, Note_on_c, 0, 59, 29
1, 298276, Note_on_c, 0, 64, 29
1, 298276, Note_on_c, 0, 68, 49
1, 298276, Note_on_c, 0, 52, 24
1, 298279, Note_on_c, 0, 56, 32
1, 298282, Note_off_c, 0, 66, 0
1, 298376, Control_c, 0, 64, 0
1, 298430, Note_on_c, 0, 47, 21
1, 298441, Note_off_c, 0, 56, 0
1, 298567, Control_c, 0, 64, 127
1, 298571, Note_off_c, 0, 52, 0
1, 298571, Note_on_c, 0, 52, 30
1, 298571, Note_on_c, 0, 56, 30
1, 298582, Note_off_c, 0, 47, 0
1, 298711, Note_on_c, 0, 47, 31
1, 298722, Note_off_c, 0, 52, 0
1, 298722, Note_off_c, 0, 56, 0
1, 298852, Note_off_c, 0, 59, 0
1, 298852, Note_off_c, 0, 64, 0
1, 298852, Note_off_c, 0, 68, 0
1, 298855, Note_on_c, 0, 52, 32
1, 298855, Note_on_c, 0, 56, 32
1, 298863, Note_off_c, 0, 47, 0
1, 298992, Note_on_c, 0, 47, 32
1, 299003, Note_off_c, 0, 52, 0
1, 299003, Note_off_c, 0, 56, 0
1, 299132, Note_on_c, 0, 68, 42
1, 299132, Note_on_c, 0, 80, 66
1, 299132, Note_on_c, 0, 53, 31
1, 299135, Note_on_c, 0, 56, 39
1, 299144, Note_off_c, 0, 47, 0
1, 299150, Control_c, 0, 64, 0
1, 299282, Note_on_c, 0, 47, 28
1, 299295, Note_off_c, 0, 56, 0
1, 299307, Control_c, 0, 64, 127
1, 299443, Control_c, 0, 64, 127
1, 299443, Control_c, 0, 64, 0
1, 299443, Note_off_c, 0, 53, 0
1, 299446, Note_on_c, 0, 69, 51
1, 299446, Note_on_c, 0, 81, 65
1, 299446, Note_on_c, 0, 54, 20
1, 299449, Note_on_c, 0, 57, 36
1, 299457, Note_off_c, 0, 68, 0
1, 299457, Note_off_c, 0, 80, 0
1, 299457, Note_off_c, 0, 47, 0
1, 299513, Control_c, 0, 64, 0
1, 299601, Control_c, 0, 64, 127
1, 299630, Note_on_c, 0, 47, 24
1, 299817, Note_on_c, 0, 73, 49
1, 299817, Note_on_c, 0, 85, 62
1, 299817, Note_off_c, 0, 47, 0
1, 299820, Note_off_c, 0, 54, 0
1, 299820, Note_off_c, 0, 57, 0
1, 299820, Note_on_c, 0, 57, 29
1, 299823, Note_on_c, 0, 61, 45
1, 299829, Note_off_c, 0, 69, 0
1, 299829, Note_off_c, 0, 81, 0
1, 299977, Note_on_c, 0, 47, 27
1, 300100, Control_c, 0, 64, 0
1, 300138, Note_on_c, 0, 71, 48
1, 300138, Note_on_c, 0, 83, 61
1, 300138, Note_off_c, 0, 47, 0
1, 300141, Note_off_c, 0, 57, 0
1, 300141, Note_off_c, 0, 61, 0
1, 300141, Note_on_c, 0, 56, 25
1, 300144, Note_on_c, 0, 59, 41
1, 300150, Note_off_c, 0, 73, 0
1, 300150, Note_off_c, 0, 85, 0
1, 300221, Control_c, 0, 64, 127
1, 300298, Note_on_c, 0, 47, 23
1, 300459, Note_on_c, 0, 75, 46
1, 300459, Note_on_c, 0, 87, 59
1, 300459, Note_off_c, 0, 47, 0
1, 300462, Note_off_c, 0, 56, 0
1, 300462, Note_off_c, 0, 59, 0
1, 300462, Note_on_c, 0, 54, 21
1, 300465, Note_on_c, 0, 57, 37
1, 300472, Note_off_c, 0, 71, 0
1, 300472, Note_off_c, 0, 83, 0
1, 300544, Control_c, 0, 64, 0
1, 300632, Note_on_c, 0, 47, 19
1, 300682, Control_c, 0, 64, 127
1, 300836, Control_c, 0, 64, 127
1, 300836, Note_off_c, 0, 47, 0
1, 300836, Note_off_c, 0, 54, 0
1, 300839, Note_off_c, 0, 57, 0
1, 300839, Note_on_c, 0, 76, 40
1, 300839, Note_on_c, 0, 88, 53
1, 300842, Note_on_c, 0, 52, 18
1, 300842, Note_on_c, 0, 56, 28
1, 300852, Note_off_c, 0, 75, 0
1, 300852, Note_off_c, 0, 87, 0
1, 300990, Control_c, 0, 64, 0
1, 301244, Note_on_c, 0, 42, 50
1, 301259, Note_off_c, 0, 52, 0
1, 301259, Note_off_c, 0, 56, 0
1, 301619, Note_off_c, 0, 76, 0
1, 301619, Note_off_c, 0, 88, 0
1, 301619, Note_on_c, 0, 40, 52
1, 301633, Note_off_c, 0, 42, 0
1, 301993, Note_on_c, 0, 49, 48
1, 302009, Note_off_c, 0, 40, 0
1, 302401, Note_on_c, 0, 47, 41
1, 302417, Note_off_c, 0, 49, 0
1, 302632, Control_c, 0, 64, 127
1, 302810, Note_on_c, 0, 57, 42
1, 303176, Control_c, 0, 64, 0
1, 303184, Note_on_c, 0, 56, 46
1, 303199, Note_off_c, 0, 57, 0
1, 303369, Control_c, 0, 64, 127
1, 303559, Note_on_c, 0, 64, 30
1, 303559, Note_on_c, 0, 68, 48
1, 303559, Note_on_c, 0, 49, 34
1, 303576, Note_off_c, 0, 56, 0
1, 303576, Note_off_c, 0, 47, 0
1, 303669, Control_c, 0, 64, 0
1, 303783, Note_on_c, 0, 47, 34
1, 303801, Note_off_c, 0, 49, 0
1, 304008, Control_c, 0, 64, 127
1, 304008, Note_off_c, 0, 64, 0
1, 304008, Note_on_c, 0, 64, 33
1, 304011, Note_on_c, 0, 66, 51
1, 304011, Note_on_c, 0, 46, 37
1, 304024, Note_off_c, 0, 68, 0
1, 304024, Note_off_c, 0, 47, 0
1, 304104, Control_c, 0, 64, 0
1, 304162, Control_c, 0, 64, 0
1, 304335, Control_c, 0, 64, 127
1, 304416, Note_on_c, 0, 73, 38
1, 304416, Note_on_c, 0, 76, 38
1, 304416, Note_on_c, 0, 78, 64
1, 304432, Note_off_c, 0, 64, 0
1, 304432, Note_off_c, 0, 66, 0
1, 304825, Note_off_c, 0, 73, 0
1, 304825, Note_off_c, 0, 76, 0
1, 304825, Note_on_c, 0, 73, 41
1, 304828, Note_on_c, 0, 76, 67
1, 304828, Note_on_c, 0, 58, 25
1, 304828, Note_on_c, 0, 64, 25
1, 304831, Note_on_c, 0, 66, 36
1, 304842, Note_off_c, 0, 78, 0
1, 304842, Note_off_c, 0, 46, 0
1, 304856, Control_c, 0, 64, 0
1, 305068, Control_c, 0, 64, 127
1, 305274, Note_on_c, 0, 85, 69
1, 305294, Note_off_c, 0, 76, 0
1, 305773, Control_c, 0, 64, 127
1, 305773, Note_off_c, 0, 73, 0
1, 305773, Note_off_c, 0, 85, 0
1, 305776, Note_off_c, 0, 64, 0
1, 305776, Note_on_c, 0, 85, 59
1, 305776, Note_on_c, 0, 59, 27
1, 305779, Note_on_c, 0, 64, 27
1, 305779, Note_on_c, 0, 68, 37
1, 305791, Note_off_c, 0, 58, 0
1, 305791, Note_off_c, 0, 66, 0
1, 305901, Control_c, 0, 64, 0
1, 305998, Note_on_c, 0, 83, 55
1, 306013, Note_off_c, 0, 85, 0
1, 306185, Note_on_c, 0, 80, 56
1, 306185, Note_off_c, 0, 59, 0
1, 306185, Note_off_c, 0, 64, 0
1, 306188, Note_off_c, 0, 68, 0
1, 306200, Note_off_c, 0, 83, 0
1, 306372, Note_on_c, 0, 76, 57
1, 306387, Note_off_c, 0, 80, 0
1, 306560, Note_on_c, 0, 75, 58
1, 306560, Note_on_c, 0, 59, 29
1, 306560, Note_on_c, 0, 66, 36
1, 306573, Note_off_c, 0, 76, 0
1, 306666, Control_c, 0, 64, 127
1, 306732, Note_on_c, 0, 73, 56
1, 306746, Note_off_c, 0, 75, 0
1, 306877, Control_c, 0, 64, 0
1, 306905, Note_on_c, 0, 71, 51
1, 306905, Note_off_c, 0, 59, 0
1, 306905, Note_off_c, 0, 66, 0
1, 306919, Note_off_c, 0, 73, 0
1, 307078, Note_on_c, 0, 69, 48
1, 307091, Note_off_c, 0, 71, 0
1, 307251, Note_on_c, 0, 68, 49
1, 307251, Note_on_c, 0, 61, 32
1, 307251, Note_on_c, 0, 64, 40
1, 307263, Note_off_c, 0, 69, 0
1, 307372, Control_c, 0, 64, 127
1, 307411, Note_on_c, 0, 66, 49
1, 307424, Note_off_c, 0, 68, 0
1, 307572, Note_off_c, 0, 61, 0
1, 307572, Note_off_c, 0, 64, 0
1, 307572, Note_on_c, 0, 64, 49
1, 307584, Note_off_c, 0, 66, 0
1, 307598, Control_c, 0, 64, 0
1, 307732, Note_on_c, 0, 76, 51
1, 307732, Note_off_c, 0, 64, 0
1, 307893, Note_on_c, 0, 75, 53
1, 307893, Note_on_c, 0, 57, 38
1, 307893, Note_on_c, 0, 61, 46
1, 307904, Note_off_c, 0, 76, 0
1, 308042, Note_on_c, 0, 73, 58
1, 308054, Note_off_c, 0, 75, 0
1, 308192, Note_on_c, 0, 85, 62
1, 308192, Note_off_c, 0, 57, 0
1, 308192, Note_off_c, 0, 61, 0
1, 308204, Note_off_c, 0, 73, 0
1, 308323, Control_c, 0, 64, 127
1, 308342, Note_on_c, 0, 83, 66
1, 308354, Note_off_c, 0, 85, 0
1, 308492, Control_c, 0, 64, 127
1, 308492, Note_off_c, 0, 83, 0
1, 308492, Note_on_c, 0, 83, 68
1, 308495, Note_on_c, 0, 54, 42
1, 308495, Note_on_c, 0, 57, 51
1, 308611, Control_c, 0, 64, 0
1, 308632, Note_on_c, 0, 81, 73
1, 308643, Note_off_c, 0, 83, 0
1, 308772, Note_on_c, 0, 93, 76
1, 308772, Note_off_c, 0, 54, 0
1, 308772, Note_off_c, 0, 57, 0
1, 308783, Note_off_c, 0, 81, 0
1, 308850, Control_c, 0, 64, 0
1, 308906, Control_c, 0, 64, 127
1, 308913, Note_on_c, 0, 92, 76
1, 308924, Note_off_c, 0, 93, 0
1, 309053, Note_off_c, 0, 92, 0
1, 309053, Note_on_c, 0, 92, 76
1, 309053, Note_on_c, 0, 51, 47
1, 309056, Note_on_c, 0, 54, 57
1, 309116, Control_c, 0, 64, 0
1, 309185, Note_on_c, 0, 90, 73
1, 309196, Note_off_c, 0, 92, 0
1, 309318, Note_on_c, 0, 93, 76
1, 309318, Note_off_c, 0, 51, 0
1, 309318, Note_off_c, 0, 54, 0
1, 309328, Note_off_c, 0, 90, 0
1, 309450, Note_on_c, 0, 90, 69
1, 309460, Note_off_c, 0, 93, 0
1, 309582, Note_on_c, 0, 88, 70
1, 309582, Note_on_c, 0, 59, 42
1, 309582, Note_on_c, 0, 63, 52
1, 309594, Note_off_c, 0, 90, 0
1, 309742, Note_on_c, 0, 87, 67
1, 309753, Note_off_c, 0, 88, 0
1, 309883, Note_on_c, 0, 90, 71
1, 309883, Note_off_c, 0, 59, 0
1, 309883, Note_off_c, 0, 63, 0
1, 309894, Note_off_c, 0, 87, 0
1, 310010, Control_c, 0, 64, 127
1, 310023, Note_on_c, 0, 81, 66
1, 310035, Note_off_c, 0, 90, 0
1, 310173, Note_off_c, 0, 81, 0
1, 310173, Note_on_c, 0, 81, 67
1, 310173, Note_on_c, 0, 61, 32
1, 310176, Note_on_c, 0, 64, 42
1, 310251, Control_c, 0, 64, 0
1, 310313, Note_on_c, 0, 80, 67
1, 310324, Note_off_c, 0, 81, 0
1, 310454, Note_on_c, 0, 88, 67
1, 310454, Note_off_c, 0, 61, 0
1, 310454, Note_off_c, 0, 64, 0
1, 310457, Note_on_c, 0, 61, 29
1, 310457, Note_on_c, 0, 64, 39
1, 310466, Note_off_c, 0, 80, 0
1, 310614, Note_on_c, 0, 80, 61
1, 310625, Note_off_c, 0, 88, 0
1, 310754, Note_off_c, 0, 61, 0
1, 310754, Note_off_c, 0, 64, 0
1, 310754, Note_on_c, 0, 78, 56
1, 310757, Note_on_c, 0, 57, 34
1, 310766, Note_off_c, 0, 80, 0
1, 310904, Note_on_c, 0, 85, 51
1, 310916, Note_off_c, 0, 78, 0
1, 311054, Note_on_c, 0, 83, 48
1, 311054, Note_on_c, 0, 59, 25
1, 311067, Note_off_c, 0, 85, 0
1, 311067, Note_off_c, 0, 57, 0
1, 311214, Note_on_c, 0, 75, 43
1, 311228, Note_off_c, 0, 83, 0
1, 311387, Note_on_c, 0, 76, 40
1, 311387, Note_on_c, 0, 52, 17
1, 311405, Note_off_c, 0, 75, 0
1, 311405, Note_off_c, 0, 59, 0
1, 311837, Note_off_c, 0, 76, 0
1, 311854, Note_off_c, 0, 52, 0
1, 313352, End_track
0, 0, End_of_file
