0, 0, Header, 1, 5, 480
1, 0, Start_track
1, 0, Title_t, "untitled"
1, 0, Time_signature, 3, 2, 24, 8
1, 0, Key_signature, 0, "major"
1, 0, Tempo, 600000
1, 0, Sequencer_specific, 13, 5, 15, 28, 50, 48, 48, 56, 46, 48, 49, 46, 48, 49
1, 0, Sequencer_specific, 10, 5, 15, 18, 0, 0, 127, 127, 0, 127, 1
1, 0, Marker_t, "Untitled"
1, 0, Marker_t, "Beethoven"
1, 1440, Tempo, 301508
1, 1440, Marker_t, "Piano Sonata No.15"
1, 2760, Tempo, 304569
1, 2880, Tempo, 301508
1, 2880, Marker_t, "hisaomri@bekkoame.or.jp"
1, 4320, Marker_t, "Jan. 1998"
1, 5760, Marker_t, "Mail in English only "
1, 7200, Marker_t, "Thanks!"
1, 17160, Tempo, 304569
1, 17280, Tempo, 301508
1, 30120, Tempo, 306122
1, 30240, Tempo, 301508
1, 41520, Tempo, 304569
1, 41640, Tempo, 315789
1, 41760, Tempo, 301508
1, 51750, Tempo, 306122
1, 51840, Tempo, 301508
1, 56040, Tempo, 304569
1, 56655, Tempo, 315789
1, 57600, Tempo, 301508
1, 62880, Tempo, 304569
1, 63360, Tempo, 301508
1, 68640, Tempo, 304569
1, 69120, Tempo, 301508
1, 74760, Tempo, 304569
1, 74880, Tempo, 301508
1, 77640, Tempo, 304569
1, 77760, Tempo, 301508
1, 80520, Tempo, 304569
1, 80640, Tempo, 301508
1, 83400, Tempo, 304569
1, 83520, Tempo, 301508
1, 87480, Tempo, 304569
1, 87700, Tempo, 306122
1, 87840, Tempo, 304569
1, 90240, Tempo, 500000
1, 90735, Tempo, 301508
1, 100680, Tempo, 306122
1, 100800, Tempo, 301508
1, 101880, Tempo, 304569
1, 102000, Tempo, 312500
1, 102240, Tempo, 301508
1, 110055, Tempo, 304569
1, 110400, Tempo, 319149
1, 110895, Tempo, 301508
1, 118980, Tempo, 304569
1, 119040, Tempo, 301508
1, 130500, Tempo, 304569
1, 130560, Tempo, 301508
1, 136260, Tempo, 304569
1, 136320, Tempo, 301508
1, 147780, Tempo, 304569
1, 148230, Tempo, 306122
1, 149880, Tempo, 301508
1, 151020, Tempo, 304569
1, 151080, Tempo, 309278
1, 152750, Tempo, 301508
1, 153900, Tempo, 304569
1, 153960, Tempo, 309278
1, 154150, Tempo, 301508
1, 155400, Tempo, 304569
1, 155600, Tempo, 301508
1, 156360, Tempo, 304569
1, 156780, Tempo, 306122
1, 156840, Tempo, 324324
1, 156960, Tempo, 301508
1, 179460, Tempo, 304569
1, 179730, Tempo, 306122
1, 181560, Tempo, 301508
1, 182700, Tempo, 304569
1, 182760, Tempo, 309278
1, 184430, Tempo, 301508
1, 185580, Tempo, 304569
1, 185640, Tempo, 309278
1, 185830, Tempo, 301508
1, 187080, Tempo, 304569
1, 187280, Tempo, 301508
1, 188040, Tempo, 304569
1, 188460, Tempo, 306122
1, 188520, Tempo, 315789
1, 188640, Tempo, 301508
1, 191400, Tempo, 304569
1, 192840, Tempo, 306122
1, 194265, Tempo, 309278
1, 194880, Tempo, 500000
1, 195360, Tempo, 304569
1, 203880, Tempo, 306122
1, 204000, Tempo, 304569
1, 206400, Tempo, 306122
1, 206880, Tempo, 304569
1, 212520, Tempo, 306122
1, 212640, Tempo, 304569
1, 215400, Tempo, 306122
1, 215520, Tempo, 304569
1, 218280, Tempo, 306122
1, 218400, Tempo, 304569
1, 221160, Tempo, 306122
1, 221280, Tempo, 304569
1, 224040, Tempo, 306122
1, 224160, Tempo, 304569
1, 226920, Tempo, 306122
1, 227040, Tempo, 304569
1, 233160, Tempo, 304569
1, 233535, Tempo, 306122
1, 234000, Tempo, 402685
1, 234480, Tempo, 517241
1, 234720, Tempo, 304569
1, 234840, Tempo, 301508
1, 237495, Tempo, 306122
1, 237600, Tempo, 301508
1, 240120, Tempo, 304569
1, 240240, Tempo, 306122
1, 240495, Tempo, 301508
1, 254760, Tempo, 304569
1, 254880, Tempo, 301508
1, 263400, Tempo, 304569
1, 263520, Tempo, 301508
1, 269160, Tempo, 304569
1, 269280, Tempo, 301508
1, 274920, Tempo, 304569
1, 275040, Tempo, 301508
1, 280680, Tempo, 304569
1, 280800, Tempo, 301508
1, 286440, Tempo, 304569
1, 286560, Tempo, 301508
1, 289320, Tempo, 304569
1, 289440, Tempo, 301508
1, 292200, Tempo, 304569
1, 292320, Tempo, 301508
1, 295080, Tempo, 304569
1, 295200, Tempo, 301508
1, 297960, Tempo, 304569
1, 298080, Tempo, 301508
1, 299400, Tempo, 304569
1, 299520, Tempo, 301508
1, 300840, Tempo, 304569
1, 300960, Tempo, 301508
1, 302280, Tempo, 304569
1, 302400, Tempo, 301508
1, 303720, Tempo, 304569
1, 303840, Tempo, 301508
1, 305160, Tempo, 304569
1, 305280, Tempo, 301508
1, 306600, Tempo, 304569
1, 306720, Tempo, 301508
1, 308040, Tempo, 304569
1, 308160, Tempo, 301508
1, 309480, Tempo, 304569
1, 309600, Tempo, 301508
1, 310920, Tempo, 304569
1, 311040, Tempo, 301508
1, 312360, Tempo, 304569
1, 312480, Tempo, 301508
1, 313800, Tempo, 304569
1, 313920, Tempo, 301508
1, 315240, Tempo, 304569
1, 315360, Tempo, 301508
1, 316680, Tempo, 304569
1, 316800, Tempo, 301508
1, 318120, Tempo, 304569
1, 318240, Tempo, 301508
1, 319560, Tempo, 304569
1, 319680, Tempo, 301508
1, 321000, Tempo, 304569
1, 321120, Tempo, 301508
1, 322440, Tempo, 304569
1, 322560, Tempo, 301508
1, 323880, Tempo, 304569
1, 324000, Tempo, 301508
1, 325320, Tempo, 304569
1, 325440, Tempo, 301508
1, 326760, Tempo, 304569
1, 326880, Tempo, 301508
1, 328200, Tempo, 304569
1, 328320, Tempo, 301508
1, 329640, Tempo, 304569
1, 329760, Tempo, 301508
1, 331080, Tempo, 304569
1, 331200, Tempo, 301508
1, 332520, Tempo, 304569
1, 332640, Tempo, 301508
1, 333960, Tempo, 304569
1, 334080, Tempo, 301508
1, 335400, Tempo, 304569
1, 335520, Tempo, 301508
1, 336840, Tempo, 304569
1, 336960, Tempo, 301508
1, 338280, Tempo, 304569
1, 338400, Tempo, 301508
1, 339720, Tempo, 304569
1, 339840, Tempo, 301508
1, 341160, Tempo, 304569
1, 341280, Tempo, 301508
1, 342600, Tempo, 304569
1, 342720, Tempo, 301508
1, 344040, Tempo, 304569
1, 344160, Tempo, 301508
1, 345480, Tempo, 304569
1, 345600, Tempo, 301508
1, 346920, Tempo, 304569
1, 347040, Tempo, 301508
1, 348360, Tempo, 304569
1, 348480, Tempo, 301508
1, 349800, Tempo, 304569
1, 349920, Tempo, 301508
1, 351240, Tempo, 304569
1, 351360, Tempo, 301508
1, 352680, Tempo, 304569
1, 352800, Tempo, 301508
1, 354120, Tempo, 304569
1, 354240, Tempo, 301508
1, 355560, Tempo, 304569
1, 355680, Tempo, 301508
1, 357000, Tempo, 304569
1, 357120, Tempo, 301508
1, 358440, Tempo, 304569
1, 358560, Tempo, 301508
1, 359880, Tempo, 304569
1, 360000, Tempo, 301508
1, 361320, Tempo, 304569
1, 362760, Tempo, 306122
1, 364200, Tempo, 312500
1, 366705, Tempo, 344828
1, 369600, Tempo, 1333333
1, 371040, Tempo, 301508
1, 374760, Tempo, 304569
1, 375345, Tempo, 309278
1, 375840, Tempo, 315789
1, 377280, Tempo, 500000
1, 379680, Tempo, 315789
1, 383400, Tempo, 319149
1, 383985, Tempo, 324324
1, 384480, Tempo, 335196
1, 385920, Tempo, 500000
1, 388320, Tempo, 402685
1, 389025, Tempo, 413793
1, 389400, Tempo, 500000
1, 389760, Tempo, 540541
1, 393120, Tempo, 301508
1, 394440, Tempo, 304569
1, 394560, Tempo, 301508
1, 407400, Tempo, 304569
1, 407520, Tempo, 301508
1, 421800, Tempo, 304569
1, 421920, Tempo, 301508
1, 433200, Tempo, 304569
1, 433320, Tempo, 312500
1, 433440, Tempo, 301508
1, 443400, Tempo, 304569
1, 443520, Tempo, 301508
1, 449160, Tempo, 304569
1, 449280, Tempo, 301508
1, 454095, Tempo, 315789
1, 455040, Tempo, 301508
1, 460320, Tempo, 304569
1, 460800, Tempo, 301508
1, 466080, Tempo, 304569
1, 466560, Tempo, 301508
1, 472200, Tempo, 304569
1, 472320, Tempo, 301508
1, 475080, Tempo, 304569
1, 475200, Tempo, 301508
1, 477960, Tempo, 304569
1, 478080, Tempo, 301508
1, 480840, Tempo, 304569
1, 480960, Tempo, 301508
1, 483720, Tempo, 304569
1, 483840, Tempo, 301508
1, 488100, Tempo, 304569
1, 489600, Tempo, 500000
1, 491055, Tempo, 301508
1, 501120, Tempo, 304569
1, 501360, Tempo, 301508
1, 502200, Tempo, 306122
1, 502320, Tempo, 312500
1, 502560, Tempo, 301508
1, 510480, Tempo, 304569
1, 510960, Tempo, 324324
1, 511215, Tempo, 301508
1, 519300, Tempo, 304569
1, 519360, Tempo, 301508
1, 530820, Tempo, 304569
1, 530880, Tempo, 301508
1, 536580, Tempo, 304569
1, 536640, Tempo, 301508
1, 548100, Tempo, 304569
1, 548640, Tempo, 306122
1, 550200, Tempo, 301508
1, 551490, Tempo, 304569
1, 551520, Tempo, 309278
1, 553070, Tempo, 301508
1, 554220, Tempo, 304569
1, 554280, Tempo, 309278
1, 554470, Tempo, 301508
1, 555720, Tempo, 304569
1, 555920, Tempo, 301508
1, 556680, Tempo, 304569
1, 557100, Tempo, 306122
1, 557160, Tempo, 315789
1, 557280, Tempo, 301508
1, 579780, Tempo, 304569
1, 580320, Tempo, 306122
1, 581880, Tempo, 301508
1, 583020, Tempo, 304569
1, 583080, Tempo, 309278
1, 584750, Tempo, 301508
1, 585900, Tempo, 304569
1, 585960, Tempo, 309278
1, 586150, Tempo, 301508
1, 587400, Tempo, 304569
1, 587600, Tempo, 301508
1, 588360, Tempo, 304569
1, 588780, Tempo, 306122
1, 588840, Tempo, 315789
1, 588960, Tempo, 301508
1, 591720, Tempo, 304569
1, 593160, Tempo, 306122
1, 594450, Tempo, 309278
1, 595200, Tempo, 500000
1, 595680, Tempo, 304569
1, 604200, Tempo, 306122
1, 604320, Tempo, 304569
1, 606720, Tempo, 306122
1, 607200, Tempo, 304569
1, 612840, Tempo, 306122
1, 612960, Tempo, 304569
1, 615720, Tempo, 306122
1, 615840, Tempo, 304569
1, 618600, Tempo, 306122
1, 618720, Tempo, 304569
1, 621480, Tempo, 306122
1, 621600, Tempo, 304569
1, 624360, Tempo, 306122
1, 624480, Tempo, 304569
1, 627240, Tempo, 306122
1, 627360, Tempo, 304569
1, 632040, Tempo, 304569
1, 632400, Tempo, 327869
1, 632985, Tempo, 500000
1, 633360, Tempo, 1071429
1, 633600, Tempo, 306122
1, 633840, Tempo, 301508
1, 647880, Tempo, 304569
1, 648120, Tempo, 301508
1, 650760, Tempo, 304569
1, 651000, Tempo, 301508
1, 653640, Tempo, 304569
1, 653880, Tempo, 301508
1, 656520, Tempo, 304569
1, 656760, Tempo, 301508
1, 657840, Tempo, 304569
1, 659400, Tempo, 306122
1, 660840, Tempo, 309278
1, 662280, Tempo, 312500
1, 662400, Tempo, 315789
1, 663720, Tempo, 319149
1, 664785, Tempo, 331492
1, 665760, Tempo, 1578947
1, 666720, Time_signature, 2, 2, 24, 8
1, 666720, Marker_t, "Andante"
1, 667680, Tempo, 1666667
1, 670447, Tempo, 1818182
1, 670560, Tempo, 1666667
1, 671347, Tempo, 1764706
1, 671400, Tempo, 1935484
1, 671520, Tempo, 1666667
1, 673164, Tempo, 1714286
1, 673200, Tempo, 1666667
1, 674280, Tempo, 1764706
1, 674662, Tempo, 1666667
1, 675180, Tempo, 1764706
1, 675240, Tempo, 2068966
1, 675360, Tempo, 1666667
1, 678127, Tempo, 1818182
1, 678240, Tempo, 1666667
1, 679027, Tempo, 1764706
1, 679080, Tempo, 1935484
1, 679200, Tempo, 1666667
1, 680844, Tempo, 1714286
1, 680880, Tempo, 1666667
1, 681960, Tempo, 1764706
1, 682342, Tempo, 1666667
1, 682860, Tempo, 1764706
1, 682920, Tempo, 2068966
1, 683040, Tempo, 1666667
1, 685920, Tempo, 1666667
1, 686880, Tempo, 1666667
1, 688740, Tempo, 1714286
1, 688800, Tempo, 1666667
1, 690240, Tempo, 1818182
1, 690600, Tempo, 1935484
1, 690720, Tempo, 1666667
1, 694280, Tempo, 1714286
1, 694314, Tempo, 1666667
1, 695000, Tempo, 1714286
1, 695060, Tempo, 1666667
1, 695274, Tempo, 1764706
1, 695460, Tempo, 1935484
1, 695520, Tempo, 1818182
1, 695880, Tempo, 1935484
1, 696000, Tempo, 1818182
1, 696360, Tempo, 2068966
1, 696480, Tempo, 1666667
1, 699360, Tempo, 1666667
1, 700320, Tempo, 1666667
1, 702180, Tempo, 1714286
1, 702240, Tempo, 1666667
1, 703680, Tempo, 1818182
1, 704040, Tempo, 1935484
1, 704160, Tempo, 1666667
1, 707720, Tempo, 1714286
1, 707754, Tempo, 1666667
1, 708440, Tempo, 1714286
1, 708500, Tempo, 1666667
1, 708714, Tempo, 1764706
1, 708900, Tempo, 1935484
1, 709320, Tempo, 2068966
1, 709680, Tempo, 2068966
1, 709800, Tempo, 1500000
1, 709920, Tempo, 1428571
1, 710840, Tempo, 1500000
1, 710880, Tempo, 1428571
1, 711800, Tempo, 1500000
1, 711840, Tempo, 1428571
1, 712760, Tempo, 1500000
1, 712800, Tempo, 1428571
1, 713280, Tempo, 1500000
1, 713320, Tempo, 1428571
1, 713692, Tempo, 1500000
1, 713760, Tempo, 1428571
1, 714680, Tempo, 1500000
1, 714720, Tempo, 1428571
1, 715640, Tempo, 1500000
1, 715680, Tempo, 1428571
1, 717160, Tempo, 1500000
1, 717200, Tempo, 1428571
1, 717525, Tempo, 1666667
1, 717600, Tempo, 1428571
1, 718520, Tempo, 1500000
1, 718560, Tempo, 1428571
1, 719480, Tempo, 1500000
1, 719520, Tempo, 1428571
1, 720440, Tempo, 1500000
1, 720480, Tempo, 1428571
1, 720960, Tempo, 1500000
1, 721000, Tempo, 1428571
1, 721372, Tempo, 1500000
1, 721440, Tempo, 1428571
1, 722360, Tempo, 1500000
1, 722400, Tempo, 1428571
1, 723320, Tempo, 1500000
1, 723360, Tempo, 1428571
1, 724840, Tempo, 1500000
1, 724880, Tempo, 1428571
1, 725205, Tempo, 1666667
1, 725280, Tempo, 1428571
1, 726200, Tempo, 1500000
1, 726240, Tempo, 1428571
1, 728120, Tempo, 1500000
1, 728160, Tempo, 1428571
1, 729060, Tempo, 1500000
1, 729180, Tempo, 1428571
1, 730040, Tempo, 1500000
1, 730080, Tempo, 1428571
1, 731000, Tempo, 1500000
1, 731040, Tempo, 1428571
1, 732420, Tempo, 1500000
1, 732480, Tempo, 1666667
1, 732560, Tempo, 1500000
1, 732816, Tempo, 1578947
1, 732870, Tempo, 1818182
1, 732960, Tempo, 1428571
1, 733880, Tempo, 1500000
1, 733920, Tempo, 1428571
1, 735800, Tempo, 1500000
1, 735840, Tempo, 1428571
1, 736740, Tempo, 1500000
1, 736860, Tempo, 1428571
1, 737720, Tempo, 1500000
1, 737760, Tempo, 1428571
1, 738680, Tempo, 1500000
1, 738720, Tempo, 1428571
1, 740100, Tempo, 1500000
1, 740160, Tempo, 2727273
1, 740407, Tempo, 1764706
1, 740640, Tempo, 1666667
1, 743460, Tempo, 1764706
1, 743520, Tempo, 1666667
1, 744300, Tempo, 1764706
1, 744360, Tempo, 1935484
1, 744480, Tempo, 1666667
1, 746120, Tempo, 1714286
1, 746160, Tempo, 1666667
1, 747300, Tempo, 1764706
1, 747360, Tempo, 1666667
1, 747560, Tempo, 1714286
1, 747620, Tempo, 1666667
1, 748140, Tempo, 1764706
1, 748200, Tempo, 1935484
1, 748320, Tempo, 1666667
1, 752040, Tempo, 1764706
1, 752100, Tempo, 1818182
1, 752205, Tempo, 1666667
1, 754280, Tempo, 1714286
1, 754310, Tempo, 1666667
1, 754980, Tempo, 1764706
1, 755040, Tempo, 1666667
1, 755120, Tempo, 1714286
1, 755150, Tempo, 1666667
1, 755820, Tempo, 1764706
1, 755880, Tempo, 2068966
1, 756000, Tempo, 1666667
1, 761760, Tempo, 1764706
1, 763200, Tempo, 1818182
1, 763560, Tempo, 1935484
1, 763680, Tempo, 1666667
1, 767240, Tempo, 1714286
1, 767272, Tempo, 1666667
1, 767960, Tempo, 1714286
1, 767992, Tempo, 1666667
1, 768290, Tempo, 1764706
1, 768420, Tempo, 1935484
1, 768840, Tempo, 1935484
1, 769200, Tempo, 2068966
1, 769320, Tempo, 2500000
1, 769440, Tempo, 1666667
1, 772260, Tempo, 1764706
1, 772320, Tempo, 1666667
1, 775880, Tempo, 1714286
1, 775940, Tempo, 1666667
1, 776940, Tempo, 1714286
1, 777000, Tempo, 1764706
1, 777067, Tempo, 2068966
1, 777180, Tempo, 1666667
1, 780480, Tempo, 1714286
1, 780517, Tempo, 1666667
1, 780920, Tempo, 1714286
1, 780960, Tempo, 1666667
1, 782400, Tempo, 1714286
1, 782460, Tempo, 1666667
1, 782640, Tempo, 1714286
1, 782700, Tempo, 1764706
1, 782760, Tempo, 2068966
1, 782840, Tempo, 2727273
1, 782880, Tempo, 1666667
1, 784520, Tempo, 1714286
1, 784560, Tempo, 1666667
1, 785700, Tempo, 1764706
1, 786240, Tempo, 2400000
1, 786720, Tempo, 1764706
1, 787430, Tempo, 1818182
1, 788160, Tempo, 2727273
1, 788640, Tempo, 1935484
1, 789540, Tempo, 2068966
1, 789600, Tempo, 1875000
1, 790500, Tempo, 1935484
1, 790560, Tempo, 1764706
1, 793260, Tempo, 1818182
1, 793320, Tempo, 2068966
1, 793440, Tempo, 1935484
1, 794340, Tempo, 2068966
1, 794400, Tempo, 1818182
1, 795300, Tempo, 1935484
1, 795360, Tempo, 1818182
1, 795780, Tempo, 1935484
1, 795840, Tempo, 1818182
1, 796260, Tempo, 1935484
1, 796320, Tempo, 1818182
1, 796740, Tempo, 1935484
1, 796800, Tempo, 1818182
1, 797220, Tempo, 2068966
1, 797280, Tempo, 2727273
1, 797520, Tempo, 1000000
1, 797760, Tempo, 1666667
1, 797940, Tempo, 1363636
1, 798010, Tempo, 2727273
1, 798180, Tempo, 2727273
1, 800160, Time_signature, 3, 3, 12, 8
1, 800160, Tempo, 600000
1, 800160, Marker_t, "Scherzo"
1, 800880, Tempo, 359281
1, 803520, Tempo, 368098
1, 803760, Tempo, 359281
1, 806400, Tempo, 368098
1, 806640, Tempo, 359281
1, 809280, Tempo, 368098
1, 809520, Tempo, 359281
1, 812160, Tempo, 363636
1, 812400, Tempo, 359281
1, 815040, Tempo, 368098
1, 815280, Tempo, 359281
1, 817920, Tempo, 363636
1, 818160, Tempo, 359281
1, 820800, Tempo, 368098
1, 821040, Tempo, 359281
1, 823680, Tempo, 363636
1, 823920, Tempo, 359281
1, 826680, Tempo, 363636
1, 826800, Tempo, 359281
1, 829560, Tempo, 363636
1, 829680, Tempo, 359281
1, 832440, Tempo, 363636
1, 832560, Tempo, 359281
1, 833160, Tempo, 363636
1, 833680, Tempo, 372671
1, 833990, Tempo, 535714
1, 834720, Tempo, 1935484
1, 835440, Tempo, 359281
1, 838080, Tempo, 368098
1, 838320, Tempo, 359281
1, 840960, Tempo, 363636
1, 841200, Tempo, 359281
1, 843840, Tempo, 368098
1, 844080, Tempo, 359281
1, 846840, Tempo, 363636
1, 846960, Tempo, 359281
1, 849600, Tempo, 600000
1, 849840, Tempo, 1111111
1, 850080, Tempo, 705882
1, 850560, Tempo, 384615
1, 853320, Tempo, 363636
1, 853440, Tempo, 359281
1, 856200, Tempo, 379747
1, 856320, Tempo, 384615
1, 859080, Tempo, 363636
1, 859200, Tempo, 359281
1, 861720, Tempo, 363636
1, 861840, Tempo, 368098
1, 861960, Tempo, 402685
1, 862080, Tempo, 359281
1, 864840, Tempo, 363636
1, 864960, Tempo, 359281
1, 867720, Tempo, 379747
1, 867840, Tempo, 359281
1, 870600, Tempo, 363636
1, 870720, Tempo, 359281
1, 872115, Tempo, 361446
1, 872160, Tempo, 363636
1, 872280, Tempo, 368098
1, 872400, Tempo, 372671
1, 872520, Tempo, 389610
1, 872640, Tempo, 447761
1, 872760, Tempo, 550459
1, 872880, Tempo, 588235
1, 873007, Tempo, 582524
1, 873120, Tempo, 659341
1, 873240, Tempo, 789474
1, 873600, Tempo, 1428571
1, 874320, Tempo, 359281
1, 876960, Tempo, 368098
1, 877200, Tempo, 359281
1, 879840, Tempo, 368098
1, 880080, Tempo, 359281
1, 882720, Tempo, 368098
1, 882960, Tempo, 359281
1, 885600, Tempo, 363636
1, 885840, Tempo, 359281
1, 888480, Tempo, 368098
1, 888720, Tempo, 359281
1, 891360, Tempo, 363636
1, 891600, Tempo, 359281
1, 894240, Tempo, 368098
1, 894480, Tempo, 359281
1, 897120, Tempo, 363636
1, 897360, Tempo, 359281
1, 900120, Tempo, 363636
1, 900240, Tempo, 359281
1, 903000, Tempo, 363636
1, 903120, Tempo, 359281
1, 905880, Tempo, 363636
1, 906000, Tempo, 359281
1, 906600, Tempo, 363636
1, 907120, Tempo, 372671
1, 907430, Tempo, 517241
1, 908160, Tempo, 1935484
1, 908880, Tempo, 359281
1, 911520, Tempo, 368098
1, 911760, Tempo, 359281
1, 914400, Tempo, 363636
1, 914640, Tempo, 359281
1, 917280, Tempo, 368098
1, 917520, Tempo, 359281
1, 920280, Tempo, 363636
1, 920400, Tempo, 359281
1, 923040, Tempo, 750000
1, 923280, Tempo, 1132075
1, 923520, Tempo, 600000
1, 924720, Time_signature, 6, 3, 12, 8
1, 924720, Tempo, 722892
1, 924720, Marker_t, "Rondo"
1, 925680, Tempo, 480000
1, 931560, Tempo, 487805
1, 931680, Tempo, 480000
1, 937320, Tempo, 487805
1, 937440, Tempo, 480000
1, 943080, Tempo, 487805
1, 943200, Tempo, 480000
1, 948840, Tempo, 487805
1, 948960, Tempo, 472441
1, 954840, Tempo, 480000
1, 954960, Tempo, 465116
1, 964800, Tempo, 480000
1, 964965, Tempo, 508475
1, 965040, Tempo, 2727273
1, 965760, Tempo, 500000
1, 966240, Tempo, 480000
1, 969000, Tempo, 487805
1, 969120, Tempo, 480000
1, 971760, Tempo, 487805
1, 971880, Tempo, 480000
1, 976200, Tempo, 487805
1, 976320, Tempo, 480000
1, 981825, Tempo, 487805
1, 984930, Tempo, 495868
1, 985080, Tempo, 500000
1, 985200, Tempo, 400000
1, 987960, Tempo, 408163
1, 988080, Tempo, 400000
1, 990840, Tempo, 408163
1, 990960, Tempo, 400000
1, 993840, Tempo, 419580
1, 995280, Tempo, 487805
1, 995760, Tempo, 2727273
1, 996240, Tempo, 480000
1, 1002120, Tempo, 487805
1, 1002240, Tempo, 480000
1, 1007880, Tempo, 487805
1, 1008000, Tempo, 480000
1, 1013640, Tempo, 487805
1, 1013760, Tempo, 480000
1, 1019535, Tempo, 487805
1, 1019760, Tempo, 480000
1, 1025160, Tempo, 487805
1, 1025520, Tempo, 480000
1, 1035480, Tempo, 487805
1, 1035600, Tempo, 480000
1, 1041240, Tempo, 487805
1, 1041360, Tempo, 480000
1, 1047000, Tempo, 487805
1, 1047120, Tempo, 480000
1, 1058520, Tempo, 487805
1, 1058640, Tempo, 480000
1, 1066920, Tempo, 487805
1, 1067040, Tempo, 560748
1, 1067280, Tempo, 400000
1, 1070040, Tempo, 408163
1, 1070160, Tempo, 400000
1, 1072920, Tempo, 408163
1, 1073040, Tempo, 400000
1, 1075920, Tempo, 394737
1, 1078800, Tempo, 389610
1, 1081680, Tempo, 384615
1, 1084200, Tempo, 389610
1, 1084320, Tempo, 408163
1, 1084440, Tempo, 550459
1, 1085040, Tempo, 2500000
1, 1086000, Tempo, 240000
1, 1090080, Tempo, 480000
1, 1095720, Tempo, 487805
1, 1095840, Tempo, 480000
1, 1101480, Tempo, 487805
1, 1101600, Tempo, 480000
1, 1107240, Tempo, 487805
1, 1107360, Tempo, 480000
1, 1113000, Tempo, 487805
1, 1113120, Tempo, 465116
1, 1119000, Tempo, 472441
1, 1119120, Tempo, 465116
1, 1133280, Tempo, 480000
1, 1133445, Tempo, 508475
1, 1133520, Tempo, 2727273
1, 1134240, Tempo, 500000
1, 1134720, Tempo, 480000
1, 1140240, Tempo, 487805
1, 1140360, Tempo, 480000
1, 1150320, Tempo, 487805
1, 1153425, Tempo, 495868
1, 1153575, Tempo, 500000
1, 1153695, Tempo, 400000
1, 1156455, Tempo, 408163
1, 1156575, Tempo, 400000
1, 1159335, Tempo, 408163
1, 1159455, Tempo, 400000
1, 1162200, Tempo, 402685
1, 1162335, Tempo, 419580
1, 1163775, Tempo, 487805
1, 1164255, Tempo, 2727273
1, 1164720, Tempo, 487805
1, 1165200, Tempo, 483871
1, 1170960, Tempo, 480000
1, 1173840, Tempo, 476190
1, 1175280, Tempo, 472441
1, 1176720, Tempo, 468750
1, 1178130, Tempo, 465116
1, 1179600, Tempo, 461538
1, 1181040, Tempo, 458015
1, 1182480, Tempo, 454545
1, 1183920, Tempo, 451128
1, 1185360, Tempo, 447761
1, 1186800, Tempo, 444444
1, 1187505, Tempo, 441176
1, 1188240, Tempo, 437956
1, 1188930, Tempo, 434783
1, 1189680, Tempo, 431655
1, 1191045, Tempo, 434783
1, 1191120, Tempo, 428571
1, 1193520, Tempo, 434783
1, 1196400, Tempo, 447761
1, 1198080, Tempo, 500000
1, 1199760, Tempo, 789474
1, 1200720, Tempo, 355030
1, 1200720, Marker_t, "quasi Presto "
1, 1201200, Tempo, 352941
1, 1206840, Tempo, 355030
1, 1206960, Tempo, 352941
1, 1212600, Tempo, 355030
1, 1212720, Tempo, 352941
1, 1215480, Tempo, 355030
1, 1215600, Tempo, 352941
1, 1218360, Tempo, 355030
1, 1218480, Tempo, 352941
1, 1219800, Tempo, 355030
1, 1219920, Tempo, 352941
1, 1221120, Tempo, 355030
1, 1221240, Tempo, 384615
1, 1221450, Tempo, 352941
1, 1224060, Tempo, 355030
1, 1224120, Tempo, 363636
1, 1224240, Tempo, 389610
1, 1224945, Tempo, 487805
1, 1225680, Tempo, 500000
1, 1225680, End_track
2, 0, Start_track
2, 0, Title_t, "Beethoven"
2, 0, Control_c, 0, 0, 0
2, 0, Control_c, 0, 7, 115
2, 0, Control_c, 0, 10, 83
2, 0, Control_c, 0, 91, 91
2, 0, Control_c, 0, 93, 28
2, 0, Sequencer_specific, 5, 5, 15, 9, 64, 72
2, 0, Sequencer_specific, 15, 5, 15, 6, 71, 101, 110, 101, 114, 97, 108, 32, 77, 73, 68, 73
2, 0, Pitch_bend_c, 0, 8192
2, 0, Control_c, 0, 1, 0
2, 0, Control_c, 0, 64, 0
2, 1, Control_c, 0, 32, 0
2, 1, Program_c, 0, 0
2, 2880, Note_on_c, 0, 69, 65
2, 4320, Note_on_c, 0, 69, 0
2, 4320, Note_on_c, 0, 69, 67
2, 4800, Note_on_c, 0, 69, 0
2, 4800, Note_on_c, 0, 67, 68
2, 6720, Note_on_c, 0, 67, 0
2, 6720, Note_on_c, 0, 66, 71
2, 6960, Note_on_c, 0, 66, 0
2, 6960, Note_on_c, 0, 64, 72
2, 7200, Note_on_c, 0, 64, 0
2, 7200, Note_on_c, 0, 62, 72
2, 8160, Note_on_c, 0, 62, 0
2, 8160, Note_on_c, 0, 61, 74
2, 8640, Note_on_c, 0, 61, 0
2, 8640, Note_on_c, 0, 59, 75
2, 9600, Note_on_c, 0, 59, 0
2, 9600, Note_on_c, 0, 57, 76
2, 10080, Note_on_c, 0, 57, 0
2, 10080, Note_on_c, 0, 57, 77
2, 11520, Note_on_c, 0, 57, 0
2, 11520, Note_on_c, 0, 62, 80
2, 12960, Note_on_c, 0, 62, 0
2, 12960, Note_on_c, 0, 64, 81
2, 13920, Note_on_c, 0, 64, 0
2, 13920, Note_on_c, 0, 66, 73
2, 14160, Note_on_c, 0, 66, 0
2, 14160, Note_on_c, 0, 67, 71
2, 14400, Note_on_c, 0, 67, 0
2, 14400, Note_on_c, 0, 66, 67
2, 14760, Note_on_c, 0, 66, 0
2, 17280, Note_on_c, 0, 81, 61
2, 18720, Note_on_c, 0, 81, 0
2, 18720, Note_on_c, 0, 81, 63
2, 19200, Note_on_c, 0, 81, 0
2, 19200, Note_on_c, 0, 79, 63
2, 21120, Note_on_c, 0, 79, 0
2, 21120, Note_on_c, 0, 78, 66
2, 21360, Note_on_c, 0, 78, 0
2, 21360, Note_on_c, 0, 76, 66
2, 21600, Note_on_c, 0, 76, 0
2, 21600, Note_on_c, 0, 74, 66
2, 22560, Note_on_c, 0, 74, 0
2, 22560, Note_on_c, 0, 73, 68
2, 23040, Note_on_c, 0, 73, 0
2, 23040, Note_on_c, 0, 71, 68
2, 24000, Note_on_c, 0, 71, 0
2, 24000, Note_on_c, 0, 69, 70
2, 24480, Note_on_c, 0, 69, 0
2, 24480, Note_on_c, 0, 69, 70
2, 25920, Note_on_c, 0, 69, 0
2, 25920, Note_on_c, 0, 74, 72
2, 27360, Note_on_c, 0, 74, 0
2, 27360, Note_on_c, 0, 76, 73
2, 28320, Note_on_c, 0, 76, 0
2, 28320, Note_on_c, 0, 78, 67
2, 28560, Note_on_c, 0, 78, 0
2, 28560, Note_on_c, 0, 79, 65
2, 28800, Note_on_c, 0, 79, 0
2, 28800, Note_on_c, 0, 78, 64
2, 29160, Note_on_c, 0, 78, 0
2, 30240, Note_on_c, 0, 62, 67
2, 32160, Note_on_c, 0, 62, 0
2, 32160, Note_on_c, 0, 64, 77
2, 32640, Note_on_c, 0, 64, 0
2, 32640, Note_on_c, 0, 66, 79
2, 33120, Note_on_c, 0, 66, 0
2, 33120, Note_on_c, 0, 69, 81
2, 33600, Note_on_c, 0, 69, 0
2, 33600, Note_on_c, 0, 67, 91
2, 35520, Note_on_c, 0, 67, 0
2, 35520, Note_on_c, 0, 66, 86
2, 36480, Note_on_c, 0, 66, 0
2, 36480, Note_on_c, 0, 64, 84
2, 36960, Note_on_c, 0, 64, 0
2, 36960, Note_on_c, 0, 62, 89
2, 37920, Note_on_c, 0, 62, 0
2, 37920, Note_on_c, 0, 61, 82
2, 38400, Note_on_c, 0, 61, 0
2, 38400, Note_on_c, 0, 57, 87
2, 39120, Note_on_c, 0, 57, 0
2, 39120, Note_on_c, 0, 62, 78
2, 39360, Note_on_c, 0, 62, 0
2, 39360, Note_on_c, 0, 66, 78
2, 39600, Note_on_c, 0, 66, 0
2, 39600, Note_on_c, 0, 69, 78
2, 39840, Note_on_c, 0, 69, 0
2, 39840, Note_on_c, 0, 74, 78
2, 40080, Note_on_c, 0, 74, 0
2, 40080, Note_on_c, 0, 78, 78
2, 40320, Note_on_c, 0, 78, 0
2, 40320, Note_on_c, 0, 81, 78
2, 40560, Note_on_c, 0, 81, 0
2, 40560, Note_on_c, 0, 78, 78
2, 40800, Note_on_c, 0, 78, 0
2, 40800, Note_on_c, 0, 74, 77
2, 40960, Note_on_c, 0, 74, 0
2, 40960, Note_on_c, 0, 69, 77
2, 41120, Note_on_c, 0, 69, 0
2, 41120, Note_on_c, 0, 66, 77
2, 41280, Note_on_c, 0, 66, 0
2, 41280, Note_on_c, 0, 69, 77
2, 41440, Note_on_c, 0, 69, 0
2, 41440, Note_on_c, 0, 67, 77
2, 41600, Note_on_c, 0, 67, 0
2, 41600, Note_on_c, 0, 64, 77
2, 41760, Note_on_c, 0, 64, 0
2, 41760, Note_on_c, 0, 74, 77
2, 43680, Note_on_c, 0, 74, 0
2, 43680, Note_on_c, 0, 76, 88
2, 44160, Note_on_c, 0, 76, 0
2, 44160, Note_on_c, 0, 78, 90
2, 44640, Note_on_c, 0, 78, 0
2, 44640, Note_on_c, 0, 81, 93
2, 45120, Note_on_c, 0, 81, 0
2, 45120, Note_on_c, 0, 79, 100
2, 47040, Note_on_c, 0, 79, 0
2, 47040, Note_on_c, 0, 78, 97
2, 48000, Note_on_c, 0, 78, 0
2, 48000, Note_on_c, 0, 76, 95
2, 48480, Note_on_c, 0, 76, 0
2, 48480, Note_on_c, 0, 74, 101
2, 49440, Note_on_c, 0, 74, 0
2, 49440, Note_on_c, 0, 73, 93
2, 49920, Note_on_c, 0, 73, 0
2, 49920, Note_on_c, 0, 69, 98
2, 50640, Note_on_c, 0, 69, 0
2, 50640, Note_on_c, 0, 62, 91
2, 50880, Note_on_c, 0, 62, 0
2, 50880, Note_on_c, 0, 66, 91
2, 51120, Note_on_c, 0, 66, 0
2, 51120, Note_on_c, 0, 69, 90
2, 51360, Note_on_c, 0, 69, 0
2, 51360, Note_on_c, 0, 74, 90
2, 51600, Note_on_c, 0, 74, 0
2, 51600, Note_on_c, 0, 78, 89
2, 51840, Note_on_c, 0, 78, 0
2, 51840, Note_on_c, 0, 81, 89
2, 52320, Note_on_c, 0, 81, 0
2, 52320, Note_on_c, 0, 79, 92
2, 52800, Note_on_c, 0, 79, 0
2, 52800, Note_on_c, 0, 78, 93
2, 53760, Note_on_c, 0, 78, 0
2, 53760, Note_on_c, 0, 76, 94
2, 54240, Note_on_c, 0, 76, 0
2, 54240, Note_on_c, 0, 74, 100
2, 55200, Note_on_c, 0, 74, 0
2, 55200, Note_on_c, 0, 73, 96
2, 55680, Note_on_c, 0, 73, 0
2, 55680, Note_on_c, 0, 76, 101
2, 56160, Note_on_c, 0, 76, 0
2, 56160, Note_on_c, 0, 74, 95
2, 56520, Note_on_c, 0, 74, 0
2, 57600, Note_on_c, 0, 71, 99
2, 59040, Note_on_c, 0, 71, 0
2, 59040, Note_on_c, 0, 69, 89
2, 60960, Note_on_c, 0, 69, 0
2, 60960, Note_on_c, 0, 68, 81
2, 61200, Note_on_c, 0, 68, 0
2, 61200, Note_on_c, 0, 71, 80
2, 61440, Note_on_c, 0, 71, 0
2, 61440, Note_on_c, 0, 74, 79
2, 62400, Note_on_c, 0, 74, 0
2, 62400, Note_on_c, 0, 73, 75
2, 62880, Note_on_c, 0, 73, 0
2, 63360, Note_on_c, 0, 78, 91
2, 64800, Note_on_c, 0, 78, 0
2, 64800, Note_on_c, 0, 76, 81
2, 66720, Note_on_c, 0, 76, 0
2, 66720, Note_on_c, 0, 75, 73
2, 66960, Note_on_c, 0, 75, 0
2, 66960, Note_on_c, 0, 78, 72
2, 67200, Note_on_c, 0, 78, 0
2, 67200, Note_on_c, 0, 81, 71
2, 68160, Note_on_c, 0, 81, 0
2, 68160, Note_on_c, 0, 80, 67
2, 68640, Note_on_c, 0, 80, 0
2, 69360, Note_on_c, 0, 71, 78
2, 69600, Note_on_c, 0, 71, 0
2, 69600, Note_on_c, 0, 70, 78
2, 69840, Note_on_c, 0, 70, 0
2, 69840, Note_on_c, 0, 71, 77
2, 70080, Note_on_c, 0, 71, 0
2, 70080, Note_on_c, 0, 73, 77
2, 70320, Note_on_c, 0, 73, 0
2, 70320, Note_on_c, 0, 71, 77
2, 70560, Note_on_c, 0, 71, 0
2, 70560, Note_on_c, 0, 69, 76
2, 72000, Note_on_c, 0, 69, 0
2, 72000, Note_on_c, 0, 68, 73
2, 72240, Note_on_c, 0, 68, 0
2, 72240, Note_on_c, 0, 69, 73
2, 72480, Note_on_c, 0, 69, 0
2, 72480, Note_on_c, 0, 71, 73
2, 72720, Note_on_c, 0, 71, 0
2, 72720, Note_on_c, 0, 73, 72
2, 72960, Note_on_c, 0, 73, 0
2, 72960, Note_on_c, 0, 74, 72
2, 73200, Note_on_c, 0, 74, 0
2, 73200, Note_on_c, 0, 76, 71
2, 73440, Note_on_c, 0, 76, 0
2, 73440, Note_on_c, 0, 74, 71
2, 73680, Note_on_c, 0, 74, 0
2, 73680, Note_on_c, 0, 73, 70
2, 73920, Note_on_c, 0, 73, 0
2, 73920, Note_on_c, 0, 71, 70
2, 74160, Note_on_c, 0, 71, 0
2, 74160, Note_on_c, 0, 69, 70
2, 74400, Note_on_c, 0, 69, 0
2, 74400, Note_on_c, 0, 68, 69
2, 74640, Note_on_c, 0, 68, 0
2, 74640, Note_on_c, 0, 69, 69
2, 74880, Note_on_c, 0, 69, 0
2, 75120, Note_on_c, 0, 78, 70
2, 75360, Note_on_c, 0, 78, 0
2, 75360, Note_on_c, 0, 77, 70
2, 75600, Note_on_c, 0, 77, 0
2, 75600, Note_on_c, 0, 78, 70
2, 75840, Note_on_c, 0, 78, 0
2, 75840, Note_on_c, 0, 80, 69
2, 76080, Note_on_c, 0, 80, 0
2, 76080, Note_on_c, 0, 78, 69
2, 76320, Note_on_c, 0, 78, 0
2, 76320, Note_on_c, 0, 76, 68
2, 77760, Note_on_c, 0, 76, 0
2, 77760, Note_on_c, 0, 75, 73
2, 78000, Note_on_c, 0, 75, 0
2, 78000, Note_on_c, 0, 76, 66
2, 78240, Note_on_c, 0, 76, 0
2, 78240, Note_on_c, 0, 78, 65
2, 78480, Note_on_c, 0, 78, 0
2, 78480, Note_on_c, 0, 80, 65
2, 78720, Note_on_c, 0, 80, 0
2, 78720, Note_on_c, 0, 81, 65
2, 78960, Note_on_c, 0, 81, 0
2, 78960, Note_on_c, 0, 83, 64
2, 79200, Note_on_c, 0, 83, 0
2, 79200, Note_on_c, 0, 81, 64
2, 79440, Note_on_c, 0, 81, 0
2, 79440, Note_on_c, 0, 80, 64
2, 79680, Note_on_c, 0, 80, 0
2, 79680, Note_on_c, 0, 78, 64
2, 79920, Note_on_c, 0, 78, 0
2, 79920, Note_on_c, 0, 76, 63
2, 80160, Note_on_c, 0, 76, 0
2, 80160, Note_on_c, 0, 75, 62
2, 80400, Note_on_c, 0, 75, 0
2, 80400, Note_on_c, 0, 76, 61
2, 80640, Note_on_c, 0, 76, 0
2, 80640, Note_on_c, 0, 75, 71
2, 80880, Note_on_c, 0, 75, 0
2, 80880, Note_on_c, 0, 76, 64
2, 81120, Note_on_c, 0, 76, 0
2, 81120, Note_on_c, 0, 78, 64
2, 81360, Note_on_c, 0, 78, 0
2, 81360, Note_on_c, 0, 80, 63
2, 81600, Note_on_c, 0, 80, 0
2, 81600, Note_on_c, 0, 81, 63
2, 81840, Note_on_c, 0, 81, 0
2, 81840, Note_on_c, 0, 83, 62
2, 82080, Note_on_c, 0, 83, 0
2, 82080, Note_on_c, 0, 81, 62
2, 82320, Note_on_c, 0, 81, 0
2, 82320, Note_on_c, 0, 80, 62
2, 82560, Note_on_c, 0, 80, 0
2, 82560, Note_on_c, 0, 78, 61
2, 82800, Note_on_c, 0, 78, 0
2, 82800, Note_on_c, 0, 76, 61
2, 83040, Note_on_c, 0, 76, 0
2, 83040, Note_on_c, 0, 75, 60
2, 83280, Note_on_c, 0, 75, 0
2, 83280, Note_on_c, 0, 76, 60
2, 83520, Note_on_c, 0, 76, 0
2, 83520, Note_on_c, 0, 75, 59
2, 83760, Note_on_c, 0, 75, 0
2, 83760, Note_on_c, 0, 76, 59
2, 84000, Note_on_c, 0, 76, 0
2, 84000, Note_on_c, 0, 78, 58
2, 84240, Note_on_c, 0, 78, 0
2, 84240, Note_on_c, 0, 80, 58
2, 84480, Note_on_c, 0, 80, 0
2, 84480, Note_on_c, 0, 81, 57
2, 84720, Note_on_c, 0, 81, 0
2, 84720, Note_on_c, 0, 83, 57
2, 84960, Note_on_c, 0, 83, 0
2, 84960, Note_on_c, 0, 81, 56
2, 85200, Note_on_c, 0, 81, 0
2, 85200, Note_on_c, 0, 80, 56
2, 85440, Note_on_c, 0, 80, 0
2, 85440, Note_on_c, 0, 78, 56
2, 85680, Note_on_c, 0, 78, 0
2, 85680, Note_on_c, 0, 76, 55
2, 85920, Note_on_c, 0, 76, 0
2, 85920, Note_on_c, 0, 75, 55
2, 86160, Note_on_c, 0, 75, 0
2, 86160, Note_on_c, 0, 73, 54
2, 86400, Note_on_c, 0, 73, 0
2, 86400, Note_on_c, 0, 71, 54
2, 86640, Note_on_c, 0, 71, 0
2, 86640, Note_on_c, 0, 69, 53
2, 86880, Note_on_c, 0, 69, 0
2, 86880, Note_on_c, 0, 68, 53
2, 87120, Note_on_c, 0, 68, 0
2, 87120, Note_on_c, 0, 66, 52
2, 87360, Note_on_c, 0, 66, 0
2, 87360, Note_on_c, 0, 64, 52
2, 87600, Note_on_c, 0, 64, 0
2, 87600, Note_on_c, 0, 63, 51
2, 87840, Note_on_c, 0, 63, 0
2, 87840, Note_on_c, 0, 64, 51
2, 90720, Note_on_c, 0, 64, 0
2, 90720, Note_on_c, 0, 65, 51
2, 92160, Note_on_c, 0, 65, 0
2, 92160, Note_on_c, 0, 66, 53
2, 93600, Note_on_c, 0, 66, 0
2, 93600, Note_on_c, 0, 68, 54
2, 95040, Note_on_c, 0, 68, 0
2, 95040, Note_on_c, 0, 69, 56
2, 96480, Note_on_c, 0, 69, 0
2, 96480, Note_on_c, 0, 70, 58
2, 97920, Note_on_c, 0, 70, 0
2, 97920, Note_on_c, 0, 71, 61
2, 98280, Note_on_c, 0, 71, 0
2, 98400, Note_on_c, 0, 73, 63
2, 98760, Note_on_c, 0, 73, 0
2, 98880, Note_on_c, 0, 74, 64
2, 99240, Note_on_c, 0, 74, 0
2, 99360, Note_on_c, 0, 69, 66
2, 100320, Note_on_c, 0, 69, 0
2, 100320, Note_on_c, 0, 68, 60
2, 100800, Note_on_c, 0, 68, 0
2, 100800, Note_on_c, 0, 69, 58
2, 100980, Note_on_c, 0, 69, 0
2, 101040, Note_on_c, 0, 73, 62
2, 101280, Note_on_c, 0, 73, 0
2, 101280, Note_on_c, 0, 71, 60
2, 101520, Note_on_c, 0, 71, 0
2, 101520, Note_on_c, 0, 69, 58
2, 101760, Note_on_c, 0, 69, 0
2, 101760, Note_on_c, 0, 68, 56
2, 102000, Note_on_c, 0, 68, 0
2, 102000, Note_on_c, 0, 66, 54
2, 102240, Note_on_c, 0, 66, 0
2, 102240, Note_on_c, 0, 65, 57
2, 103680, Note_on_c, 0, 65, 0
2, 103680, Note_on_c, 0, 66, 60
2, 105120, Note_on_c, 0, 66, 0
2, 105120, Note_on_c, 0, 68, 63
2, 106560, Note_on_c, 0, 68, 0
2, 106560, Note_on_c, 0, 69, 66
2, 108000, Note_on_c, 0, 69, 0
2, 108000, Note_on_c, 0, 71, 69
2, 109440, Note_on_c, 0, 71, 0
2, 109440, Note_on_c, 0, 72, 72
2, 110880, Note_on_c, 0, 72, 0
2, 110880, Note_on_c, 0, 73, 58
2, 113280, Note_on_c, 0, 73, 0
2, 113280, Note_on_c, 0, 72, 55
2, 113760, Note_on_c, 0, 72, 0
2, 113760, Note_on_c, 0, 73, 55
2, 114720, Note_on_c, 0, 73, 0
2, 114720, Note_on_c, 0, 72, 57
2, 115200, Note_on_c, 0, 72, 0
2, 115200, Note_on_c, 0, 73, 57
2, 116160, Note_on_c, 0, 73, 0
2, 116160, Note_on_c, 0, 72, 59
2, 116640, Note_on_c, 0, 72, 0
2, 116640, Note_on_c, 0, 73, 60
2, 119040, Note_on_c, 0, 73, 0
2, 119040, Note_on_c, 0, 73, 63
2, 119520, Note_on_c, 0, 73, 0
2, 119520, Note_on_c, 0, 74, 64
2, 120480, Note_on_c, 0, 74, 0
2, 120480, Note_on_c, 0, 73, 65
2, 120960, Note_on_c, 0, 73, 0
2, 120960, Note_on_c, 0, 74, 66
2, 121920, Note_on_c, 0, 74, 0
2, 121920, Note_on_c, 0, 73, 67
2, 122400, Note_on_c, 0, 73, 0
2, 122400, Note_on_c, 0, 74, 68
2, 125280, Note_on_c, 0, 74, 0
2, 125280, Note_on_c, 0, 74, 72
2, 126240, Note_on_c, 0, 74, 0
2, 126240, Note_on_c, 0, 73, 74
2, 126720, Note_on_c, 0, 73, 0
2, 126720, Note_on_c, 0, 74, 74
2, 127680, Note_on_c, 0, 74, 0
2, 127680, Note_on_c, 0, 73, 76
2, 128160, Note_on_c, 0, 73, 0
2, 128160, Note_on_c, 0, 74, 76
2, 130560, Note_on_c, 0, 74, 0
2, 130560, Note_on_c, 0, 74, 80
2, 131040, Note_on_c, 0, 74, 0
2, 131040, Note_on_c, 0, 73, 82
2, 132000, Note_on_c, 0, 73, 0
2, 132000, Note_on_c, 0, 74, 81
2, 132480, Note_on_c, 0, 74, 0
2, 132480, Note_on_c, 0, 73, 80
2, 133440, Note_on_c, 0, 73, 0
2, 133440, Note_on_c, 0, 71, 79
2, 133920, Note_on_c, 0, 71, 0
2, 133920, Note_on_c, 0, 69, 78
2, 136320, Note_on_c, 0, 69, 0
2, 136320, Note_on_c, 0, 71, 74
2, 136800, Note_on_c, 0, 71, 0
2, 136800, Note_on_c, 0, 69, 74
2, 137760, Note_on_c, 0, 69, 0
2, 137760, Note_on_c, 0, 71, 72
2, 138240, Note_on_c, 0, 71, 0
2, 138240, Note_on_c, 0, 69, 71
2, 139200, Note_on_c, 0, 69, 0
2, 139200, Note_on_c, 0, 67, 70
2, 139680, Note_on_c, 0, 67, 0
2, 139680, Note_on_c, 0, 66, 69
2, 142080, Note_on_c, 0, 66, 0
2, 142080, Note_on_c, 0, 67, 74
2, 142560, Note_on_c, 0, 67, 0
2, 142560, Note_on_c, 0, 66, 74
2, 143520, Note_on_c, 0, 66, 0
2, 143520, Note_on_c, 0, 67, 82
2, 144000, Note_on_c, 0, 67, 0
2, 144000, Note_on_c, 0, 66, 81
2, 144960, Note_on_c, 0, 66, 0
2, 144960, Note_on_c, 0, 68, 90
2, 145440, Note_on_c, 0, 68, 0
2, 145440, Note_on_c, 0, 69, 85
2, 146400, Note_on_c, 0, 69, 0
2, 146400, Note_on_c, 0, 71, 95
2, 146880, Note_on_c, 0, 71, 0
2, 146880, Note_on_c, 0, 73, 91
2, 147840, Note_on_c, 0, 73, 0
2, 147840, Note_on_c, 0, 74, 104
2, 148320, Note_on_c, 0, 74, 0
2, 148320, Note_on_c, 0, 76, 103
2, 149760, Note_on_c, 0, 76, 0
2, 149760, Note_on_c, 0, 76, 94
2, 149920, Note_on_c, 0, 76, 0
2, 149920, Note_on_c, 0, 75, 95
2, 150080, Note_on_c, 0, 75, 0
2, 150080, Note_on_c, 0, 78, 97
2, 150240, Note_on_c, 0, 78, 0
2, 150240, Note_on_c, 0, 76, 98
2, 150400, Note_on_c, 0, 76, 0
2, 150400, Note_on_c, 0, 74, 100
2, 150560, Note_on_c, 0, 74, 0
2, 150560, Note_on_c, 0, 73, 101
2, 150720, Note_on_c, 0, 73, 0
2, 150720, Note_on_c, 0, 71, 103
2, 150800, Note_on_c, 0, 71, 0
2, 150800, Note_on_c, 0, 69, 103
2, 150880, Note_on_c, 0, 69, 0
2, 150880, Note_on_c, 0, 68, 104
2, 150960, Note_on_c, 0, 68, 0
2, 150960, Note_on_c, 0, 66, 105
2, 151080, Note_on_c, 0, 66, 0
2, 151080, Note_on_c, 0, 64, 106
2, 151200, Note_on_c, 0, 64, 0
2, 151200, Note_on_c, 0, 81, 114
2, 152640, Note_on_c, 0, 81, 0
2, 152640, Note_on_c, 0, 81, 106
2, 152800, Note_on_c, 0, 81, 0
2, 152800, Note_on_c, 0, 80, 105
2, 152960, Note_on_c, 0, 80, 0
2, 152960, Note_on_c, 0, 83, 104
2, 153120, Note_on_c, 0, 83, 0
2, 153120, Note_on_c, 0, 81, 103
2, 153280, Note_on_c, 0, 81, 0
2, 153280, Note_on_c, 0, 80, 101
2, 153440, Note_on_c, 0, 80, 0
2, 153440, Note_on_c, 0, 78, 100
2, 153600, Note_on_c, 0, 78, 0
2, 153600, Note_on_c, 0, 76, 99
2, 153680, Note_on_c, 0, 76, 0
2, 153680, Note_on_c, 0, 75, 99
2, 153760, Note_on_c, 0, 75, 0
2, 153760, Note_on_c, 0, 73, 98
2, 153840, Note_on_c, 0, 73, 0
2, 153840, Note_on_c, 0, 71, 98
2, 153960, Note_on_c, 0, 71, 0
2, 153960, Note_on_c, 0, 69, 97
2, 154080, Note_on_c, 0, 69, 0
2, 154080, Note_on_c, 0, 81, 102
2, 154240, Note_on_c, 0, 81, 0
2, 154240, Note_on_c, 0, 80, 101
2, 154400, Note_on_c, 0, 80, 0
2, 154400, Note_on_c, 0, 83, 99
2, 154560, Note_on_c, 0, 83, 0
2, 154560, Note_on_c, 0, 81, 97
2, 154720, Note_on_c, 0, 81, 0
2, 154720, Note_on_c, 0, 80, 96
2, 154880, Note_on_c, 0, 80, 0
2, 154880, Note_on_c, 0, 78, 94
2, 155040, Note_on_c, 0, 78, 0
2, 155040, Note_on_c, 0, 76, 93
2, 155120, Note_on_c, 0, 76, 0
2, 155120, Note_on_c, 0, 74, 92
2, 155200, Note_on_c, 0, 74, 0
2, 155200, Note_on_c, 0, 73, 91
2, 155280, Note_on_c, 0, 73, 0
2, 155280, Note_on_c, 0, 71, 90
2, 155400, Note_on_c, 0, 71, 0
2, 155400, Note_on_c, 0, 69, 89
2, 155520, Note_on_c, 0, 69, 0
2, 155520, Note_on_c, 0, 76, 98
2, 155680, Note_on_c, 0, 76, 0
2, 155680, Note_on_c, 0, 75, 95
2, 155840, Note_on_c, 0, 75, 0
2, 155840, Note_on_c, 0, 78, 93
2, 156000, Note_on_c, 0, 78, 0
2, 156000, Note_on_c, 0, 76, 90
2, 156160, Note_on_c, 0, 76, 0
2, 156160, Note_on_c, 0, 74, 88
2, 156320, Note_on_c, 0, 74, 0
2, 156320, Note_on_c, 0, 73, 85
2, 156480, Note_on_c, 0, 73, 0
2, 156480, Note_on_c, 0, 71, 83
2, 156560, Note_on_c, 0, 71, 0
2, 156560, Note_on_c, 0, 69, 82
2, 156640, Note_on_c, 0, 69, 0
2, 156640, Note_on_c, 0, 68, 80
2, 156720, Note_on_c, 0, 68, 0
2, 156720, Note_on_c, 0, 66, 79
2, 156840, Note_on_c, 0, 66, 0
2, 156840, Note_on_c, 0, 64, 77
2, 156960, Note_on_c, 0, 64, 0
2, 156960, Note_on_c, 0, 76, 75
2, 159360, Note_on_c, 0, 76, 0
2, 159360, Note_on_c, 0, 75, 79
2, 159840, Note_on_c, 0, 75, 0
2, 159840, Note_on_c, 0, 76, 79
2, 160800, Note_on_c, 0, 76, 0
2, 160800, Note_on_c, 0, 78, 78
2, 161280, Note_on_c, 0, 78, 0
2, 161280, Note_on_c, 0, 76, 78
2, 162240, Note_on_c, 0, 76, 0
2, 162240, Note_on_c, 0, 74, 78
2, 162720, Note_on_c, 0, 74, 0
2, 162720, Note_on_c, 0, 73, 77
2, 165120, Note_on_c, 0, 73, 0
2, 165120, Note_on_c, 0, 72, 76
2, 165600, Note_on_c, 0, 72, 0
2, 165600, Note_on_c, 0, 73, 76
2, 166560, Note_on_c, 0, 73, 0
2, 166560, Note_on_c, 0, 74, 75
2, 167040, Note_on_c, 0, 74, 0
2, 167040, Note_on_c, 0, 73, 75
2, 168000, Note_on_c, 0, 73, 0
2, 168000, Note_on_c, 0, 71, 74
2, 168480, Note_on_c, 0, 71, 0
2, 168480, Note_on_c, 0, 69, 74
2, 170880, Note_on_c, 0, 69, 0
2, 170880, Note_on_c, 0, 68, 75
2, 171360, Note_on_c, 0, 68, 0
2, 171360, Note_on_c, 0, 69, 78
2, 172320, Note_on_c, 0, 69, 0
2, 172320, Note_on_c, 0, 68, 82
2, 172800, Note_on_c, 0, 68, 0
2, 172800, Note_on_c, 0, 69, 84
2, 173760, Note_on_c, 0, 69, 0
2, 173760, Note_on_c, 0, 70, 89
2, 174240, Note_on_c, 0, 70, 0
2, 174240, Note_on_c, 0, 71, 91
2, 175200, Note_on_c, 0, 71, 0
2, 175200, Note_on_c, 0, 73, 95
2, 175680, Note_on_c, 0, 73, 0
2, 175680, Note_on_c, 0, 74, 98
2, 176640, Note_on_c, 0, 74, 0
2, 176640, Note_on_c, 0, 75, 110
2, 177120, Note_on_c, 0, 75, 0
2, 177120, Note_on_c, 0, 76, 100
2, 178080, Note_on_c, 0, 76, 0
2, 178080, Note_on_c, 0, 78, 113
2, 178560, Note_on_c, 0, 78, 0
2, 178560, Note_on_c, 0, 79, 104
2, 179520, Note_on_c, 0, 79, 0
2, 179520, Note_on_c, 0, 80, 116
2, 180000, Note_on_c, 0, 80, 0
2, 180000, Note_on_c, 0, 81, 117
2, 181440, Note_on_c, 0, 81, 0
2, 181440, Note_on_c, 0, 81, 103
2, 181600, Note_on_c, 0, 81, 0
2, 181600, Note_on_c, 0, 80, 104
2, 181760, Note_on_c, 0, 80, 0
2, 181760, Note_on_c, 0, 83, 105
2, 181920, Note_on_c, 0, 83, 0
2, 181920, Note_on_c, 0, 81, 106
2, 182080, Note_on_c, 0, 81, 0
2, 182080, Note_on_c, 0, 80, 107
2, 182240, Note_on_c, 0, 80, 0
2, 182240, Note_on_c, 0, 78, 108
2, 182400, Note_on_c, 0, 78, 0
2, 182400, Note_on_c, 0, 76, 108
2, 182480, Note_on_c, 0, 76, 0
2, 182480, Note_on_c, 0, 74, 109
2, 182560, Note_on_c, 0, 74, 0
2, 182560, Note_on_c, 0, 73, 109
2, 182640, Note_on_c, 0, 73, 0
2, 182640, Note_on_c, 0, 71, 110
2, 182760, Note_on_c, 0, 71, 0
2, 182760, Note_on_c, 0, 69, 110
2, 182880, Note_on_c, 0, 69, 0
2, 182880, Note_on_c, 0, 81, 123
2, 184320, Note_on_c, 0, 81, 0
2, 184320, Note_on_c, 0, 81, 113
2, 184480, Note_on_c, 0, 81, 0
2, 184480, Note_on_c, 0, 80, 112
2, 184640, Note_on_c, 0, 80, 0
2, 184640, Note_on_c, 0, 83, 111
2, 184800, Note_on_c, 0, 83, 0
2, 184800, Note_on_c, 0, 81, 111
2, 184960, Note_on_c, 0, 81, 0
2, 184960, Note_on_c, 0, 80, 110
2, 185120, Note_on_c, 0, 80, 0
2, 185120, Note_on_c, 0, 78, 109
2, 185280, Note_on_c, 0, 78, 0
2, 185280, Note_on_c, 0, 76, 108
2, 185360, Note_on_c, 0, 76, 0
2, 185360, Note_on_c, 0, 75, 108
2, 185440, Note_on_c, 0, 75, 0
2, 185440, Note_on_c, 0, 73, 108
2, 185520, Note_on_c, 0, 73, 0
2, 185520, Note_on_c, 0, 71, 107
2, 185640, Note_on_c, 0, 71, 0
2, 185640, Note_on_c, 0, 69, 107
2, 185760, Note_on_c, 0, 69, 0
2, 185760, Note_on_c, 0, 81, 116
2, 185920, Note_on_c, 0, 81, 0
2, 185920, Note_on_c, 0, 80, 112
2, 186080, Note_on_c, 0, 80, 0
2, 186080, Note_on_c, 0, 83, 111
2, 186240, Note_on_c, 0, 83, 0
2, 186240, Note_on_c, 0, 81, 111
2, 186400, Note_on_c, 0, 81, 0
2, 186400, Note_on_c, 0, 80, 110
2, 186560, Note_on_c, 0, 80, 0
2, 186560, Note_on_c, 0, 78, 109
2, 186720, Note_on_c, 0, 78, 0
2, 186720, Note_on_c, 0, 76, 108
2, 186800, Note_on_c, 0, 76, 0
2, 186800, Note_on_c, 0, 74, 108
2, 186880, Note_on_c, 0, 74, 0
2, 186880, Note_on_c, 0, 73, 108
2, 186960, Note_on_c, 0, 73, 0
2, 186960, Note_on_c, 0, 71, 107
2, 187080, Note_on_c, 0, 71, 0
2, 187080, Note_on_c, 0, 69, 107
2, 187200, Note_on_c, 0, 69, 0
2, 187200, Note_on_c, 0, 81, 118
2, 187360, Note_on_c, 0, 81, 0
2, 187360, Note_on_c, 0, 80, 114
2, 187520, Note_on_c, 0, 80, 0
2, 187520, Note_on_c, 0, 83, 113
2, 187680, Note_on_c, 0, 83, 0
2, 187680, Note_on_c, 0, 81, 112
2, 187840, Note_on_c, 0, 81, 0
2, 187840, Note_on_c, 0, 80, 111
2, 188000, Note_on_c, 0, 80, 0
2, 188000, Note_on_c, 0, 78, 110
2, 188160, Note_on_c, 0, 78, 0
2, 188160, Note_on_c, 0, 76, 109
2, 188240, Note_on_c, 0, 76, 0
2, 188240, Note_on_c, 0, 74, 109
2, 188320, Note_on_c, 0, 74, 0
2, 188320, Note_on_c, 0, 73, 108
2, 188400, Note_on_c, 0, 73, 0
2, 188400, Note_on_c, 0, 71, 108
2, 188520, Note_on_c, 0, 71, 0
2, 188520, Note_on_c, 0, 69, 107
2, 188640, Note_on_c, 0, 69, 0
2, 188640, Note_on_c, 0, 76, 122
2, 192000, Note_on_c, 0, 76, 0
2, 192000, Note_on_c, 0, 74, 82
2, 192480, Note_on_c, 0, 74, 0
2, 192480, Note_on_c, 0, 73, 78
2, 192960, Note_on_c, 0, 73, 0
2, 192960, Note_on_c, 0, 73, 75
2, 193920, Note_on_c, 0, 73, 0
2, 193920, Note_on_c, 0, 71, 68
2, 194400, Note_on_c, 0, 71, 0
2, 194400, Note_on_c, 0, 69, 62
2, 194760, Note_on_c, 0, 69, 0
2, 195360, Note_on_c, 0, 76, 59
2, 196800, Note_on_c, 0, 76, 0
2, 196800, Note_on_c, 0, 64, 61
2, 198240, Note_on_c, 0, 64, 0
2, 198240, Note_on_c, 0, 69, 62
2, 199200, Note_on_c, 0, 69, 0
2, 199200, Note_on_c, 0, 68, 59
2, 199680, Note_on_c, 0, 68, 0
2, 199680, Note_on_c, 0, 74, 64
2, 200640, Note_on_c, 0, 74, 0
2, 200640, Note_on_c, 0, 73, 65
2, 201120, Note_on_c, 0, 73, 0
2, 201120, Note_on_c, 0, 81, 61
2, 202560, Note_on_c, 0, 81, 0
2, 202560, Note_on_c, 0, 69, 67
2, 204000, Note_on_c, 0, 69, 0
2, 204000, Note_on_c, 0, 78, 72
2, 204960, Note_on_c, 0, 78, 0
2, 204960, Note_on_c, 0, 76, 69
2, 205200, Note_on_c, 0, 76, 0
2, 205440, Note_on_c, 0, 74, 68
2, 205680, Note_on_c, 0, 74, 0
2, 205920, Note_on_c, 0, 73, 67
2, 206400, Note_on_c, 0, 73, 0
2, 206400, Note_on_c, 0, 69, 65
2, 206880, Note_on_c, 0, 69, 0
2, 206880, Note_on_c, 0, 76, 61
2, 208320, Note_on_c, 0, 76, 0
2, 208320, Note_on_c, 0, 64, 63
2, 209760, Note_on_c, 0, 64, 0
2, 209760, Note_on_c, 0, 69, 65
2, 210720, Note_on_c, 0, 69, 0
2, 210720, Note_on_c, 0, 68, 62
2, 211200, Note_on_c, 0, 68, 0
2, 211200, Note_on_c, 0, 74, 67
2, 212160, Note_on_c, 0, 74, 0
2, 212160, Note_on_c, 0, 73, 65
2, 212640, Note_on_c, 0, 73, 0
2, 212640, Note_on_c, 0, 81, 69
2, 214080, Note_on_c, 0, 81, 0
2, 214080, Note_on_c, 0, 69, 71
2, 215520, Note_on_c, 0, 69, 0
2, 215520, Note_on_c, 0, 78, 84
2, 216480, Note_on_c, 0, 78, 0
2, 216480, Note_on_c, 0, 76, 81
2, 216720, Note_on_c, 0, 76, 0
2, 216960, Note_on_c, 0, 74, 79
2, 217200, Note_on_c, 0, 74, 0
2, 217440, Note_on_c, 0, 73, 77
2, 217920, Note_on_c, 0, 73, 0
2, 217920, Note_on_c, 0, 69, 75
2, 218400, Note_on_c, 0, 69, 0
2, 218400, Note_on_c, 0, 81, 77
2, 219840, Note_on_c, 0, 81, 0
2, 219840, Note_on_c, 0, 69, 79
2, 221280, Note_on_c, 0, 69, 0
2, 221280, Note_on_c, 0, 78, 92
2, 222240, Note_on_c, 0, 78, 0
2, 222240, Note_on_c, 0, 76, 89
2, 222480, Note_on_c, 0, 76, 0
2, 222720, Note_on_c, 0, 74, 88
2, 222960, Note_on_c, 0, 74, 0
2, 223200, Note_on_c, 0, 73, 87
2, 223680, Note_on_c, 0, 73, 0
2, 223680, Note_on_c, 0, 69, 85
2, 224160, Note_on_c, 0, 69, 0
2, 224160, Note_on_c, 0, 78, 102
2, 224880, Note_on_c, 0, 78, 0
2, 225120, Note_on_c, 0, 76, 93
2, 225360, Note_on_c, 0, 76, 0
2, 225600, Note_on_c, 0, 74, 91
2, 225840, Note_on_c, 0, 74, 0
2, 226080, Note_on_c, 0, 73, 89
2, 226560, Note_on_c, 0, 73, 0
2, 226560, Note_on_c, 0, 69, 82
2, 227040, Note_on_c, 0, 69, 0
2, 227040, Note_on_c, 0, 66, 99
2, 227989, Note_on_c, 0, 66, 0
2, 228000, Note_on_c, 0, 64, 90
2, 228240, Note_on_c, 0, 64, 0
2, 228480, Note_on_c, 0, 62, 86
2, 229200, Note_on_c, 0, 62, 0
2, 229440, Note_on_c, 0, 61, 73
2, 229680, Note_on_c, 0, 61, 0
2, 229920, Note_on_c, 0, 59, 72
2, 230160, Note_on_c, 0, 59, 0
2, 230400, Note_on_c, 0, 57, 70
2, 230640, Note_on_c, 0, 57, 0
2, 230880, Note_on_c, 0, 55, 68
2, 231120, Note_on_c, 0, 55, 0
2, 231360, Note_on_c, 0, 54, 66
2, 231600, Note_on_c, 0, 54, 0
2, 231840, Note_on_c, 0, 52, 64
2, 232080, Note_on_c, 0, 52, 0
2, 232320, Note_on_c, 0, 50, 62
2, 232560, Note_on_c, 0, 50, 0
2, 232800, Note_on_c, 0, 49, 59
2, 233040, Note_on_c, 0, 49, 0
2, 233280, Note_on_c, 0, 47, 56
2, 233520, Note_on_c, 0, 47, 0
2, 233760, Note_on_c, 0, 45, 54
2, 234000, Note_on_c, 0, 45, 0
2, 234240, Note_on_c, 0, 43, 51
2, 234480, Note_on_c, 0, 43, 0
2, 237600, Note_on_c, 0, 62, 67
2, 240480, Note_on_c, 0, 62, 0
2, 240480, Note_on_c, 0, 62, 56
2, 240960, Note_on_c, 0, 62, 0
2, 241920, Note_on_c, 0, 74, 61
2, 243360, Note_on_c, 0, 74, 0
2, 243360, Note_on_c, 0, 74, 63
2, 243840, Note_on_c, 0, 74, 0
2, 243840, Note_on_c, 0, 72, 64
2, 245760, Note_on_c, 0, 72, 0
2, 245760, Note_on_c, 0, 71, 66
2, 246000, Note_on_c, 0, 71, 0
2, 246000, Note_on_c, 0, 69, 67
2, 246240, Note_on_c, 0, 69, 0
2, 246240, Note_on_c, 0, 67, 67
2, 247200, Note_on_c, 0, 67, 0
2, 247200, Note_on_c, 0, 66, 68
2, 247680, Note_on_c, 0, 66, 0
2, 247680, Note_on_c, 0, 64, 69
2, 248640, Note_on_c, 0, 64, 0
2, 248640, Note_on_c, 0, 62, 71
2, 249120, Note_on_c, 0, 62, 0
2, 249120, Note_on_c, 0, 62, 71
2, 250560, Note_on_c, 0, 62, 0
2, 250560, Note_on_c, 0, 67, 73
2, 252000, Note_on_c, 0, 67, 0
2, 252000, Note_on_c, 0, 69, 75
2, 252960, Note_on_c, 0, 69, 0
2, 252960, Note_on_c, 0, 71, 67
2, 253200, Note_on_c, 0, 71, 0
2, 253200, Note_on_c, 0, 72, 65
2, 253440, Note_on_c, 0, 72, 0
2, 253440, Note_on_c, 0, 71, 62
2, 253800, Note_on_c, 0, 71, 0
2, 256560, Note_on_c, 0, 86, 68
2, 256800, Note_on_c, 0, 86, 0
2, 256800, Note_on_c, 0, 85, 69
2, 257040, Note_on_c, 0, 85, 0
2, 257040, Note_on_c, 0, 86, 71
2, 257280, Note_on_c, 0, 86, 0
2, 257280, Note_on_c, 0, 85, 72
2, 257520, Note_on_c, 0, 85, 0
2, 257520, Note_on_c, 0, 86, 73
2, 257760, Note_on_c, 0, 86, 0
2, 257760, Note_on_c, 0, 86, 75
2, 258240, Note_on_c, 0, 86, 0
2, 258240, Note_on_c, 0, 84, 82
2, 260160, Note_on_c, 0, 84, 0
2, 260160, Note_on_c, 0, 82, 72
2, 260400, Note_on_c, 0, 82, 0
2, 260400, Note_on_c, 0, 81, 71
2, 260640, Note_on_c, 0, 81, 0
2, 260640, Note_on_c, 0, 79, 70
2, 261600, Note_on_c, 0, 79, 0
2, 261600, Note_on_c, 0, 78, 67
2, 262080, Note_on_c, 0, 78, 0
2, 262080, Note_on_c, 0, 75, 65
2, 262080, Note_on_c, 0, 72, 65
2, 263040, Note_on_c, 0, 75, 0
2, 263040, Note_on_c, 0, 74, 62
2, 263520, Note_on_c, 0, 74, 0
2, 263520, Note_on_c, 0, 72, 0
2, 263520, Note_on_c, 0, 74, 71
2, 263520, Note_on_c, 0, 70, 71
2, 264960, Note_on_c, 0, 70, 0
2, 264960, Note_on_c, 0, 74, 0
2, 264960, Note_on_c, 0, 79, 75
2, 266400, Note_on_c, 0, 79, 0
2, 266400, Note_on_c, 0, 81, 80
2, 267360, Note_on_c, 0, 81, 0
2, 267360, Note_on_c, 0, 82, 82
2, 267600, Note_on_c, 0, 82, 0
2, 267600, Note_on_c, 0, 84, 79
2, 267840, Note_on_c, 0, 84, 0
2, 267840, Note_on_c, 0, 82, 76
2, 268200, Note_on_c, 0, 82, 0
2, 269280, Note_on_c, 0, 81, 77
2, 270720, Note_on_c, 0, 81, 0
2, 270720, Note_on_c, 0, 74, 82
2, 272160, Note_on_c, 0, 74, 0
2, 272160, Note_on_c, 0, 76, 86
2, 273120, Note_on_c, 0, 76, 0
2, 273120, Note_on_c, 0, 77, 80
2, 273360, Note_on_c, 0, 77, 0
2, 273360, Note_on_c, 0, 79, 76
2, 273600, Note_on_c, 0, 79, 0
2, 273600, Note_on_c, 0, 77, 72
2, 273960, Note_on_c, 0, 77, 0
2, 275280, Note_on_c, 0, 85, 79
2, 275520, Note_on_c, 0, 85, 0
2, 275520, Note_on_c, 0, 86, 79
2, 275760, Note_on_c, 0, 86, 0
2, 275760, Note_on_c, 0, 85, 80
2, 276000, Note_on_c, 0, 85, 0
2, 276000, Note_on_c, 0, 87, 80
2, 276240, Note_on_c, 0, 87, 0
2, 276240, Note_on_c, 0, 86, 80
2, 276480, Note_on_c, 0, 86, 0
2, 276480, Note_on_c, 0, 84, 81
2, 276720, Note_on_c, 0, 84, 0
2, 276720, Note_on_c, 0, 82, 81
2, 276960, Note_on_c, 0, 82, 0
2, 276960, Note_on_c, 0, 81, 82
2, 277200, Note_on_c, 0, 81, 0
2, 277200, Note_on_c, 0, 79, 82
2, 277440, Note_on_c, 0, 79, 0
2, 277440, Note_on_c, 0, 78, 83
2, 277680, Note_on_c, 0, 78, 0
2, 277680, Note_on_c, 0, 75, 83
2, 277920, Note_on_c, 0, 75, 0
2, 277920, Note_on_c, 0, 74, 83
2, 278160, Note_on_c, 0, 74, 0
2, 278160, Note_on_c, 0, 72, 84
2, 278400, Note_on_c, 0, 72, 0
2, 278400, Note_on_c, 0, 70, 84
2, 278640, Note_on_c, 0, 70, 0
2, 278640, Note_on_c, 0, 69, 85
2, 278880, Note_on_c, 0, 69, 0
2, 278880, Note_on_c, 0, 67, 85
2, 279120, Note_on_c, 0, 67, 0
2, 279120, Note_on_c, 0, 66, 86
2, 279360, Note_on_c, 0, 66, 0
2, 279360, Note_on_c, 0, 67, 86
2, 279600, Note_on_c, 0, 67, 0
2, 279600, Note_on_c, 0, 66, 86
2, 279840, Note_on_c, 0, 66, 0
2, 279840, Note_on_c, 0, 67, 87
2, 280080, Note_on_c, 0, 67, 0
2, 280080, Note_on_c, 0, 65, 87
2, 280320, Note_on_c, 0, 65, 0
2, 280320, Note_on_c, 0, 63, 88
2, 280560, Note_on_c, 0, 63, 0
2, 280560, Note_on_c, 0, 62, 88
2, 280800, Note_on_c, 0, 62, 0
2, 280800, Note_on_c, 0, 61, 89
2, 281040, Note_on_c, 0, 61, 0
2, 281040, Note_on_c, 0, 80, 89
2, 281280, Note_on_c, 0, 80, 0
2, 281280, Note_on_c, 0, 81, 89
2, 281520, Note_on_c, 0, 81, 0
2, 281520, Note_on_c, 0, 80, 90
2, 281760, Note_on_c, 0, 80, 0
2, 281760, Note_on_c, 0, 82, 90
2, 282000, Note_on_c, 0, 82, 0
2, 282000, Note_on_c, 0, 81, 91
2, 282240, Note_on_c, 0, 81, 0
2, 282240, Note_on_c, 0, 79, 91
2, 282480, Note_on_c, 0, 79, 0
2, 282480, Note_on_c, 0, 77, 91
2, 282720, Note_on_c, 0, 77, 0
2, 282720, Note_on_c, 0, 76, 92
2, 282960, Note_on_c, 0, 76, 0
2, 282960, Note_on_c, 0, 74, 92
2, 283200, Note_on_c, 0, 74, 0
2, 283200, Note_on_c, 0, 73, 93
2, 283440, Note_on_c, 0, 73, 0
2, 283440, Note_on_c, 0, 70, 93
2, 283680, Note_on_c, 0, 70, 0
2, 283680, Note_on_c, 0, 69, 94
2, 283920, Note_on_c, 0, 69, 0
2, 283920, Note_on_c, 0, 67, 94
2, 284160, Note_on_c, 0, 67, 0
2, 284160, Note_on_c, 0, 65, 94
2, 284400, Note_on_c, 0, 65, 0
2, 284400, Note_on_c, 0, 64, 95
2, 284640, Note_on_c, 0, 64, 0
2, 284640, Note_on_c, 0, 62, 95
2, 284880, Note_on_c, 0, 62, 0
2, 284880, Note_on_c, 0, 61, 96
2, 285120, Note_on_c, 0, 61, 0
2, 285120, Note_on_c, 0, 62, 96
2, 285360, Note_on_c, 0, 62, 0
2, 285360, Note_on_c, 0, 65, 97
2, 285600, Note_on_c, 0, 65, 0
2, 285600, Note_on_c, 0, 69, 97
2, 285840, Note_on_c, 0, 69, 0
2, 285840, Note_on_c, 0, 74, 97
2, 286080, Note_on_c, 0, 74, 0
2, 286080, Note_on_c, 0, 77, 98
2, 286320, Note_on_c, 0, 77, 0
2, 286320, Note_on_c, 0, 74, 98
2, 286560, Note_on_c, 0, 74, 0
2, 286560, Note_on_c, 0, 76, 104
2, 287520, Note_on_c, 0, 76, 0
2, 287520, Note_on_c, 0, 77, 100
2, 287760, Note_on_c, 0, 77, 0
2, 287760, Note_on_c, 0, 79, 96
2, 288000, Note_on_c, 0, 79, 0
2, 288000, Note_on_c, 0, 77, 89
2, 288360, Note_on_c, 0, 77, 0
2, 289440, Note_on_c, 0, 81, 92
2, 289680, Note_on_c, 0, 81, 0
2, 289680, Note_on_c, 0, 79, 91
2, 289920, Note_on_c, 0, 79, 0
2, 289920, Note_on_c, 0, 77, 90
2, 290160, Note_on_c, 0, 77, 0
2, 290160, Note_on_c, 0, 76, 90
2, 290400, Note_on_c, 0, 76, 0
2, 290400, Note_on_c, 0, 74, 89
2, 290640, Note_on_c, 0, 74, 0
2, 290640, Note_on_c, 0, 73, 88
2, 290880, Note_on_c, 0, 73, 0
2, 290880, Note_on_c, 0, 74, 87
2, 291120, Note_on_c, 0, 74, 0
2, 291120, Note_on_c, 0, 73, 86
2, 291360, Note_on_c, 0, 73, 0
2, 291360, Note_on_c, 0, 74, 85
2, 291600, Note_on_c, 0, 74, 0
2, 291600, Note_on_c, 0, 72, 85
2, 291840, Note_on_c, 0, 72, 0
2, 291840, Note_on_c, 0, 71, 84
2, 292080, Note_on_c, 0, 71, 0
2, 292080, Note_on_c, 0, 69, 83
2, 292320, Note_on_c, 0, 69, 0
2, 292320, Note_on_c, 0, 71, 92
2, 293280, Note_on_c, 0, 71, 0
2, 293280, Note_on_c, 0, 72, 84
2, 293520, Note_on_c, 0, 72, 0
2, 293520, Note_on_c, 0, 74, 80
2, 293760, Note_on_c, 0, 74, 0
2, 293760, Note_on_c, 0, 72, 76
2, 294120, Note_on_c, 0, 72, 0
2, 295200, Note_on_c, 0, 88, 72
2, 295440, Note_on_c, 0, 88, 0
2, 295440, Note_on_c, 0, 86, 71
2, 295680, Note_on_c, 0, 86, 0
2, 295680, Note_on_c, 0, 84, 71
2, 295920, Note_on_c, 0, 84, 0
2, 295920, Note_on_c, 0, 83, 70
2, 296160, Note_on_c, 0, 83, 0
2, 296160, Note_on_c, 0, 81, 69
2, 296400, Note_on_c, 0, 81, 0
2, 296400, Note_on_c, 0, 80, 68
2, 296640, Note_on_c, 0, 80, 0
2, 296640, Note_on_c, 0, 81, 67
2, 296880, Note_on_c, 0, 81, 0
2, 296880, Note_on_c, 0, 76, 67
2, 297120, Note_on_c, 0, 76, 0
2, 297120, Note_on_c, 0, 74, 66
2, 297360, Note_on_c, 0, 74, 0
2, 297360, Note_on_c, 0, 72, 65
2, 297600, Note_on_c, 0, 72, 0
2, 297600, Note_on_c, 0, 71, 64
2, 297840, Note_on_c, 0, 71, 0
2, 297840, Note_on_c, 0, 69, 63
2, 298080, Note_on_c, 0, 69, 0
2, 298080, Note_on_c, 0, 71, 74
2, 299040, Note_on_c, 0, 71, 0
2, 299040, Note_on_c, 0, 72, 70
2, 299280, Note_on_c, 0, 72, 0
2, 299280, Note_on_c, 0, 74, 68
2, 299520, Note_on_c, 0, 74, 0
2, 299520, Note_on_c, 0, 72, 66
2, 300480, Note_on_c, 0, 72, 0
2, 300480, Note_on_c, 0, 74, 70
2, 300720, Note_on_c, 0, 74, 0
2, 300720, Note_on_c, 0, 76, 70
2, 300960, Note_on_c, 0, 76, 0
2, 300960, Note_on_c, 0, 75, 80
2, 301920, Note_on_c, 0, 75, 0
2, 301920, Note_on_c, 0, 76, 74
2, 302160, Note_on_c, 0, 76, 0
2, 302160, Note_on_c, 0, 78, 73
2, 302400, Note_on_c, 0, 78, 0
2, 302400, Note_on_c, 0, 76, 82
2, 303360, Note_on_c, 0, 76, 0
2, 303360, Note_on_c, 0, 78, 75
2, 303600, Note_on_c, 0, 78, 0
2, 303600, Note_on_c, 0, 79, 73
2, 303840, Note_on_c, 0, 79, 0
2, 303840, Note_on_c, 0, 78, 85
2, 304800, Note_on_c, 0, 78, 0
2, 304800, Note_on_c, 0, 79, 77
2, 305040, Note_on_c, 0, 79, 0
2, 305040, Note_on_c, 0, 81, 75
2, 305280, Note_on_c, 0, 81, 0
2, 305280, Note_on_c, 0, 79, 89
2, 306240, Note_on_c, 0, 79, 0
2, 306240, Note_on_c, 0, 81, 81
2, 306480, Note_on_c, 0, 81, 0
2, 306480, Note_on_c, 0, 83, 79
2, 306720, Note_on_c, 0, 83, 0
2, 306720, Note_on_c, 0, 82, 90
2, 307680, Note_on_c, 0, 82, 0
2, 307680, Note_on_c, 0, 83, 85
2, 307920, Note_on_c, 0, 83, 0
2, 307920, Note_on_c, 0, 85, 83
2, 308160, Note_on_c, 0, 85, 0
2, 308160, Note_on_c, 0, 83, 91
2, 309120, Note_on_c, 0, 83, 0
2, 309120, Note_on_c, 0, 85, 85
2, 309360, Note_on_c, 0, 85, 0
2, 309360, Note_on_c, 0, 86, 83
2, 309600, Note_on_c, 0, 86, 0
2, 309600, Note_on_c, 0, 84, 94
2, 310560, Note_on_c, 0, 84, 0
2, 310560, Note_on_c, 0, 86, 88
2, 310800, Note_on_c, 0, 86, 0
2, 310800, Note_on_c, 0, 88, 87
2, 311040, Note_on_c, 0, 88, 0
2, 311040, Note_on_c, 0, 86, 94
2, 312000, Note_on_c, 0, 86, 0
2, 312000, Note_on_c, 0, 85, 87
2, 312240, Note_on_c, 0, 85, 0
2, 312240, Note_on_c, 0, 83, 86
2, 312480, Note_on_c, 0, 83, 0
2, 312480, Note_on_c, 0, 86, 96
2, 313440, Note_on_c, 0, 86, 0
2, 313440, Note_on_c, 0, 85, 89
2, 313680, Note_on_c, 0, 85, 0
2, 313680, Note_on_c, 0, 83, 88
2, 313920, Note_on_c, 0, 83, 0
2, 313920, Note_on_c, 0, 86, 98
2, 314880, Note_on_c, 0, 86, 0
2, 314880, Note_on_c, 0, 85, 89
2, 315120, Note_on_c, 0, 85, 0
2, 315120, Note_on_c, 0, 83, 88
2, 315360, Note_on_c, 0, 83, 0
2, 315360, Note_on_c, 0, 82, 86
2, 315840, Note_on_c, 0, 82, 0
2, 315840, Note_on_c, 0, 78, 96
2, 316800, Note_on_c, 0, 78, 0
2, 317280, Note_on_c, 0, 78, 98
2, 318240, Note_on_c, 0, 78, 0
2, 318720, Note_on_c, 0, 78, 100
2, 319680, Note_on_c, 0, 78, 0
2, 320160, Note_on_c, 0, 78, 100
2, 321120, Note_on_c, 0, 78, 0
2, 321600, Note_on_c, 0, 82, 104
2, 322080, Note_on_c, 0, 82, 0
2, 322080, Note_on_c, 0, 83, 100
2, 322320, Note_on_c, 0, 83, 0
2, 322320, Note_on_c, 0, 85, 98
2, 322560, Note_on_c, 0, 85, 0
2, 323040, Note_on_c, 0, 83, 106
2, 323520, Note_on_c, 0, 83, 0
2, 323520, Note_on_c, 0, 85, 102
2, 323760, Note_on_c, 0, 85, 0
2, 323760, Note_on_c, 0, 86, 100
2, 324000, Note_on_c, 0, 86, 0
2, 324480, Note_on_c, 0, 85, 108
2, 324960, Note_on_c, 0, 85, 0
2, 324960, Note_on_c, 0, 86, 105
2, 325200, Note_on_c, 0, 86, 0
2, 325200, Note_on_c, 0, 88, 103
2, 325440, Note_on_c, 0, 88, 0
2, 325920, Note_on_c, 0, 83, 112
2, 326400, Note_on_c, 0, 83, 0
2, 326400, Note_on_c, 0, 85, 107
2, 326640, Note_on_c, 0, 85, 0
2, 326640, Note_on_c, 0, 86, 104
2, 326880, Note_on_c, 0, 86, 0
2, 327360, Note_on_c, 0, 82, 80
2, 327840, Note_on_c, 0, 82, 0
2, 327840, Note_on_c, 0, 83, 76
2, 328080, Note_on_c, 0, 83, 0
2, 328080, Note_on_c, 0, 85, 73
2, 328320, Note_on_c, 0, 85, 0
2, 328800, Note_on_c, 0, 66, 80
2, 329280, Note_on_c, 0, 66, 0
2, 329280, Note_on_c, 0, 68, 75
2, 329520, Note_on_c, 0, 68, 0
2, 329520, Note_on_c, 0, 70, 72
2, 329760, Note_on_c, 0, 70, 0
2, 330240, Note_on_c, 0, 70, 78
2, 330720, Note_on_c, 0, 70, 0
2, 330720, Note_on_c, 0, 71, 74
2, 330960, Note_on_c, 0, 71, 0
2, 330960, Note_on_c, 0, 73, 72
2, 331200, Note_on_c, 0, 73, 0
2, 331680, Note_on_c, 0, 78, 74
2, 332160, Note_on_c, 0, 78, 0
2, 332160, Note_on_c, 0, 78, 71
2, 332400, Note_on_c, 0, 78, 0
2, 332400, Note_on_c, 0, 80, 70
2, 332640, Note_on_c, 0, 80, 0
2, 333120, Note_on_c, 0, 82, 72
2, 333600, Note_on_c, 0, 82, 0
2, 333600, Note_on_c, 0, 83, 69
2, 333840, Note_on_c, 0, 83, 0
2, 333840, Note_on_c, 0, 85, 68
2, 334080, Note_on_c, 0, 85, 0
2, 334560, Note_on_c, 0, 85, 72
2, 335040, Note_on_c, 0, 85, 0
2, 335040, Note_on_c, 0, 83, 68
2, 335280, Note_on_c, 0, 83, 0
2, 335280, Note_on_c, 0, 82, 66
2, 335520, Note_on_c, 0, 82, 0
2, 336000, Note_on_c, 0, 82, 70
2, 336480, Note_on_c, 0, 82, 0
2, 336480, Note_on_c, 0, 80, 67
2, 336720, Note_on_c, 0, 80, 0
2, 336720, Note_on_c, 0, 78, 66
2, 336960, Note_on_c, 0, 78, 0
2, 337440, Note_on_c, 0, 78, 68
2, 337920, Note_on_c, 0, 78, 0
2, 337920, Note_on_c, 0, 78, 64
2, 338160, Note_on_c, 0, 78, 0
2, 338160, Note_on_c, 0, 80, 62
2, 338400, Note_on_c, 0, 80, 0
2, 338880, Note_on_c, 0, 82, 67
2, 339360, Note_on_c, 0, 82, 0
2, 339360, Note_on_c, 0, 83, 63
2, 339600, Note_on_c, 0, 83, 0
2, 339600, Note_on_c, 0, 85, 61
2, 339840, Note_on_c, 0, 85, 0
2, 340320, Note_on_c, 0, 85, 68
2, 340800, Note_on_c, 0, 85, 0
2, 340800, Note_on_c, 0, 83, 62
2, 341040, Note_on_c, 0, 83, 0
2, 341040, Note_on_c, 0, 82, 60
2, 341280, Note_on_c, 0, 82, 0
2, 341760, Note_on_c, 0, 82, 64
2, 342240, Note_on_c, 0, 82, 0
2, 342240, Note_on_c, 0, 80, 61
2, 342480, Note_on_c, 0, 80, 0
2, 342480, Note_on_c, 0, 78, 59
2, 342720, Note_on_c, 0, 78, 0
2, 343200, Note_on_c, 0, 78, 64
2, 343680, Note_on_c, 0, 78, 0
2, 343680, Note_on_c, 0, 78, 59
2, 343920, Note_on_c, 0, 78, 0
2, 343920, Note_on_c, 0, 80, 57
2, 344160, Note_on_c, 0, 80, 0
2, 344640, Note_on_c, 0, 82, 63
2, 345120, Note_on_c, 0, 82, 0
2, 345120, Note_on_c, 0, 83, 57
2, 345360, Note_on_c, 0, 83, 0
2, 345360, Note_on_c, 0, 85, 54
2, 346080, Note_on_c, 0, 85, 0
2, 346080, Note_on_c, 0, 85, 60
2, 347520, Note_on_c, 0, 85, 0
2, 347520, Note_on_c, 0, 82, 58
2, 348960, Note_on_c, 0, 82, 0
2, 348960, Note_on_c, 0, 78, 57
2, 350400, Note_on_c, 0, 78, 0
2, 350400, Note_on_c, 0, 73, 55
2, 351840, Note_on_c, 0, 73, 0
2, 351840, Note_on_c, 0, 70, 54
2, 353280, Note_on_c, 0, 70, 0
2, 353280, Note_on_c, 0, 66, 52
2, 354720, Note_on_c, 0, 66, 0
2, 354720, Note_on_c, 0, 61, 51
2, 356160, Note_on_c, 0, 61, 0
2, 356160, Note_on_c, 0, 58, 50
2, 357600, Note_on_c, 0, 58, 0
2, 357600, Note_on_c, 0, 54, 55
2, 359040, Note_on_c, 0, 54, 0
2, 359040, Note_on_c, 0, 54, 61
2, 360480, Note_on_c, 0, 54, 0
2, 360480, Note_on_c, 0, 54, 72
2, 363840, Note_on_c, 0, 54, 0
2, 363840, Note_on_c, 0, 54, 58
2, 366720, Note_on_c, 0, 54, 0
2, 366720, Control_c, 0, 64, 127
2, 366720, Note_on_c, 0, 54, 46
2, 369600, Note_on_c, 0, 54, 0
2, 370560, Control_c, 0, 64, 0
2, 371040, Note_on_c, 0, 78, 73
2, 372480, Note_on_c, 0, 78, 0
2, 372480, Note_on_c, 0, 66, 71
2, 373920, Note_on_c, 0, 66, 0
2, 373920, Note_on_c, 0, 71, 69
2, 374880, Note_on_c, 0, 71, 0
2, 374880, Note_on_c, 0, 70, 68
2, 375120, Note_on_c, 0, 70, 0
2, 375120, Note_on_c, 0, 73, 68
2, 375360, Note_on_c, 0, 73, 0
2, 375360, Note_on_c, 0, 76, 67
2, 376320, Note_on_c, 0, 76, 0
2, 376320, Note_on_c, 0, 75, 63
2, 376800, Note_on_c, 0, 75, 0
2, 379680, Note_on_c, 0, 78, 62
2, 381120, Note_on_c, 0, 78, 0
2, 381120, Note_on_c, 0, 66, 60
2, 382560, Note_on_c, 0, 66, 0
2, 382560, Note_on_c, 0, 71, 58
2, 383520, Note_on_c, 0, 71, 0
2, 383520, Note_on_c, 0, 70, 56
2, 383760, Note_on_c, 0, 70, 0
2, 383760, Note_on_c, 0, 73, 56
2, 384000, Note_on_c, 0, 73, 0
2, 384000, Note_on_c, 0, 76, 56
2, 384960, Note_on_c, 0, 76, 0
2, 384960, Note_on_c, 0, 74, 51
2, 385440, Note_on_c, 0, 74, 0
2, 388320, Note_on_c, 0, 74, 50
2, 389280, Note_on_c, 0, 74, 0
2, 389280, Note_on_c, 0, 73, 48
2, 389520, Note_on_c, 0, 73, 0
2, 389520, Note_on_c, 0, 76, 48
2, 389760, Note_on_c, 0, 76, 0
2, 389760, Control_c, 0, 64, 127
2, 389760, Note_on_c, 0, 79, 48
2, 391680, Note_on_c, 0, 79, 0
2, 392640, Control_c, 0, 64, 0
2, 394560, Note_on_c, 0, 69, 59
2, 396000, Note_on_c, 0, 69, 0
2, 396000, Note_on_c, 0, 69, 61
2, 396480, Note_on_c, 0, 69, 0
2, 396480, Note_on_c, 0, 67, 61
2, 398400, Note_on_c, 0, 67, 0
2, 398400, Note_on_c, 0, 66, 64
2, 398640, Note_on_c, 0, 66, 0
2, 398640, Note_on_c, 0, 64, 65
2, 398880, Note_on_c, 0, 64, 0
2, 398880, Note_on_c, 0, 62, 65
2, 399840, Note_on_c, 0, 62, 0
2, 399840, Note_on_c, 0, 61, 66
2, 400320, Note_on_c, 0, 61, 0
2, 400320, Note_on_c, 0, 59, 67
2, 401280, Note_on_c, 0, 59, 0
2, 401280, Note_on_c, 0, 57, 68
2, 401760, Note_on_c, 0, 57, 0
2, 401760, Note_on_c, 0, 57, 69
2, 403200, Note_on_c, 0, 57, 0
2, 403200, Note_on_c, 0, 62, 71
2, 404640, Note_on_c, 0, 62, 0
2, 404640, Note_on_c, 0, 64, 75
2, 405600, Note_on_c, 0, 64, 0
2, 405600, Note_on_c, 0, 66, 70
2, 405840, Note_on_c, 0, 66, 0
2, 405840, Note_on_c, 0, 67, 66
2, 406080, Note_on_c, 0, 67, 0
2, 406080, Note_on_c, 0, 66, 62
2, 406440, Note_on_c, 0, 66, 0
2, 409200, Note_on_c, 0, 81, 63
2, 409440, Note_on_c, 0, 81, 0
2, 409440, Note_on_c, 0, 80, 63
2, 409680, Note_on_c, 0, 80, 0
2, 409680, Note_on_c, 0, 81, 63
2, 409920, Note_on_c, 0, 81, 0
2, 409920, Note_on_c, 0, 80, 63
2, 410160, Note_on_c, 0, 80, 0
2, 410160, Note_on_c, 0, 81, 63
2, 410400, Note_on_c, 0, 81, 0
2, 410400, Note_on_c, 0, 81, 65
2, 410880, Note_on_c, 0, 81, 0
2, 410880, Note_on_c, 0, 79, 66
2, 412800, Note_on_c, 0, 79, 0
2, 412800, Note_on_c, 0, 78, 69
2, 413040, Note_on_c, 0, 78, 0
2, 413040, Note_on_c, 0, 76, 69
2, 413280, Note_on_c, 0, 76, 0
2, 413280, Note_on_c, 0, 74, 69
2, 414240, Note_on_c, 0, 74, 0
2, 414240, Note_on_c, 0, 73, 71
2, 414720, Note_on_c, 0, 73, 0
2, 414720, Note_on_c, 0, 71, 72
2, 415680, Note_on_c, 0, 71, 0
2, 415680, Note_on_c, 0, 69, 73
2, 416160, Note_on_c, 0, 69, 0
2, 416160, Note_on_c, 0, 69, 74
2, 417600, Note_on_c, 0, 69, 0
2, 417600, Note_on_c, 0, 74, 76
2, 419040, Note_on_c, 0, 74, 0
2, 419040, Note_on_c, 0, 76, 79
2, 420000, Note_on_c, 0, 76, 0
2, 420000, Note_on_c, 0, 78, 72
2, 420240, Note_on_c, 0, 78, 0
2, 420240, Note_on_c, 0, 79, 69
2, 420480, Note_on_c, 0, 79, 0
2, 420480, Note_on_c, 0, 78, 65
2, 420840, Note_on_c, 0, 78, 0
2, 421920, Note_on_c, 0, 62, 69
2, 423840, Note_on_c, 0, 62, 0
2, 423840, Note_on_c, 0, 64, 75
2, 424320, Note_on_c, 0, 64, 0
2, 424320, Note_on_c, 0, 66, 79
2, 424800, Note_on_c, 0, 66, 0
2, 424800, Note_on_c, 0, 69, 83
2, 425280, Note_on_c, 0, 69, 0
2, 425280, Note_on_c, 0, 67, 93
2, 427200, Note_on_c, 0, 67, 0
2, 427200, Note_on_c, 0, 66, 82
2, 428160, Note_on_c, 0, 66, 0
2, 428160, Note_on_c, 0, 64, 80
2, 428640, Note_on_c, 0, 64, 0
2, 428640, Note_on_c, 0, 62, 89
2, 429600, Note_on_c, 0, 62, 0
2, 429600, Note_on_c, 0, 61, 78
2, 430080, Note_on_c, 0, 61, 0
2, 430080, Note_on_c, 0, 57, 87
2, 430800, Note_on_c, 0, 57, 0
2, 430800, Note_on_c, 0, 62, 81
2, 431040, Note_on_c, 0, 62, 0
2, 431040, Note_on_c, 0, 66, 80
2, 431280, Note_on_c, 0, 66, 0
2, 431280, Note_on_c, 0, 69, 79
2, 431520, Note_on_c, 0, 69, 0
2, 431520, Note_on_c, 0, 74, 77
2, 431760, Note_on_c, 0, 74, 0
2, 431760, Note_on_c, 0, 78, 76
2, 432000, Note_on_c, 0, 78, 0
2, 432000, Note_on_c, 0, 81, 74
2, 432240, Note_on_c, 0, 81, 0
2, 432240, Note_on_c, 0, 78, 73
2, 432480, Note_on_c, 0, 78, 0
2, 432480, Note_on_c, 0, 74, 71
2, 432640, Note_on_c, 0, 74, 0
2, 432640, Note_on_c, 0, 69, 70
2, 432800, Note_on_c, 0, 69, 0
2, 432800, Note_on_c, 0, 66, 69
2, 432960, Note_on_c, 0, 66, 0
2, 432960, Note_on_c, 0, 69, 69
2, 433120, Note_on_c, 0, 69, 0
2, 433120, Note_on_c, 0, 67, 68
2, 433280, Note_on_c, 0, 67, 0
2, 433280, Note_on_c, 0, 64, 67
2, 433440, Note_on_c, 0, 64, 0
2, 433920, Note_on_c, 0, 74, 77
2, 435360, Note_on_c, 0, 74, 0
2, 435360, Note_on_c, 0, 76, 84
2, 435840, Note_on_c, 0, 76, 0
2, 435840, Note_on_c, 0, 78, 87
2, 436320, Note_on_c, 0, 78, 0
2, 436320, Note_on_c, 0, 81, 89
2, 436800, Note_on_c, 0, 81, 0
2, 436800, Note_on_c, 0, 79, 98
2, 438720, Note_on_c, 0, 79, 0
2, 438720, Note_on_c, 0, 78, 93
2, 439680, Note_on_c, 0, 78, 0
2, 439680, Note_on_c, 0, 76, 91
2, 440160, Note_on_c, 0, 76, 0
2, 440160, Note_on_c, 0, 74, 97
2, 441120, Note_on_c, 0, 74, 0
2, 441120, Note_on_c, 0, 73, 87
2, 441600, Note_on_c, 0, 73, 0
2, 441600, Note_on_c, 0, 69, 91
2, 442320, Note_on_c, 0, 69, 0
2, 442320, Note_on_c, 0, 74, 94
2, 442560, Note_on_c, 0, 74, 0
2, 442560, Note_on_c, 0, 78, 95
2, 442800, Note_on_c, 0, 78, 0
2, 442800, Note_on_c, 0, 74, 96
2, 443040, Note_on_c, 0, 74, 0
2, 443040, Note_on_c, 0, 81, 97
2, 443280, Note_on_c, 0, 78, 98
2, 443287, Note_on_c, 0, 81, 0
2, 443520, Note_on_c, 0, 78, 0
2, 443520, Note_on_c, 0, 86, 98
2, 443760, Note_on_c, 0, 86, 0
2, 443760, Note_on_c, 0, 85, 97
2, 444000, Note_on_c, 0, 83, 96
2, 444007, Note_on_c, 0, 85, 0
2, 444240, Note_on_c, 0, 81, 95
2, 444247, Note_on_c, 0, 83, 0
2, 444480, Note_on_c, 0, 79, 95
2, 444487, Note_on_c, 0, 81, 0
2, 444720, Note_on_c, 0, 79, 0
2, 444720, Note_on_c, 0, 78, 94
2, 445432, Note_on_c, 0, 78, 0
2, 445440, Note_on_c, 0, 76, 91
2, 445920, Note_on_c, 0, 76, 0
2, 445920, Note_on_c, 0, 74, 100
2, 446880, Note_on_c, 0, 74, 0
2, 446880, Note_on_c, 0, 73, 95
2, 447360, Note_on_c, 0, 73, 0
2, 447360, Note_on_c, 0, 69, 106
2, 448000, Note_on_c, 0, 74, 92
2, 448080, Note_on_c, 0, 69, 0
2, 448160, Note_on_c, 0, 74, 0
2, 448160, Note_on_c, 0, 73, 93
2, 448320, Note_on_c, 0, 73, 0
2, 448320, Note_on_c, 0, 74, 94
2, 448480, Note_on_c, 0, 74, 0
2, 448480, Note_on_c, 0, 76, 95
2, 448640, Note_on_c, 0, 76, 0
2, 448640, Note_on_c, 0, 78, 96
2, 448800, Note_on_c, 0, 78, 0
2, 448800, Note_on_c, 0, 79, 97
2, 448920, Note_on_c, 0, 79, 0
2, 448920, Note_on_c, 0, 81, 97
2, 449040, Note_on_c, 0, 81, 0
2, 449040, Note_on_c, 0, 83, 98
2, 449160, Note_on_c, 0, 83, 0
2, 449160, Note_on_c, 0, 85, 99
2, 449280, Note_on_c, 0, 85, 0
2, 449280, Control_c, 0, 64, 0
2, 449280, Note_on_c, 0, 86, 100
2, 449440, Note_on_c, 0, 86, 0
2, 449440, Note_on_c, 0, 85, 100
2, 449600, Note_on_c, 0, 85, 0
2, 449600, Note_on_c, 0, 88, 99
2, 449760, Note_on_c, 0, 88, 0
2, 449760, Note_on_c, 0, 86, 98
2, 449920, Note_on_c, 0, 86, 0
2, 449920, Note_on_c, 0, 85, 96
2, 450080, Note_on_c, 0, 85, 0
2, 450080, Note_on_c, 0, 83, 95
2, 450240, Note_on_c, 0, 83, 0
2, 450240, Note_on_c, 0, 81, 94
2, 450400, Note_on_c, 0, 81, 0
2, 450400, Note_on_c, 0, 79, 93
2, 450560, Note_on_c, 0, 79, 0
2, 450560, Note_on_c, 0, 78, 92
2, 451200, Note_on_c, 0, 78, 0
2, 451200, Note_on_c, 0, 76, 87
2, 451680, Note_on_c, 0, 76, 0
2, 451680, Note_on_c, 0, 74, 100
2, 452640, Note_on_c, 0, 74, 0
2, 452640, Note_on_c, 0, 73, 95
2, 453120, Note_on_c, 0, 73, 0
2, 453120, Note_on_c, 0, 76, 106
2, 453600, Note_on_c, 0, 76, 0
2, 453600, Note_on_c, 0, 74, 95
2, 453960, Note_on_c, 0, 74, 0
2, 455040, Note_on_c, 0, 71, 90
2, 456480, Note_on_c, 0, 71, 0
2, 456480, Note_on_c, 0, 69, 79
2, 457920, Note_on_c, 0, 69, 0
2, 457920, Note_on_c, 0, 69, 74
2, 458400, Note_on_c, 0, 69, 0
2, 458400, Note_on_c, 0, 68, 72
2, 458640, Note_on_c, 0, 68, 0
2, 458640, Note_on_c, 0, 71, 71
2, 458880, Note_on_c, 0, 71, 0
2, 458880, Note_on_c, 0, 74, 70
2, 459840, Note_on_c, 0, 74, 0
2, 459840, Note_on_c, 0, 73, 67
2, 460320, Note_on_c, 0, 73, 0
2, 460800, Note_on_c, 0, 76, 85
2, 462240, Note_on_c, 0, 76, 0
2, 462240, Note_on_c, 0, 74, 74
2, 464160, Note_on_c, 0, 74, 0
2, 464160, Note_on_c, 0, 73, 66
2, 464400, Note_on_c, 0, 73, 0
2, 464400, Note_on_c, 0, 76, 65
2, 464640, Note_on_c, 0, 76, 0
2, 464640, Note_on_c, 0, 79, 64
2, 465600, Note_on_c, 0, 79, 0
2, 465600, Note_on_c, 0, 78, 60
2, 466080, Note_on_c, 0, 78, 0
2, 466800, Note_on_c, 0, 71, 80
2, 467040, Note_on_c, 0, 71, 0
2, 467040, Note_on_c, 0, 70, 80
2, 467280, Note_on_c, 0, 70, 0
2, 467280, Note_on_c, 0, 71, 79
2, 467520, Note_on_c, 0, 71, 0
2, 467520, Note_on_c, 0, 73, 79
2, 467760, Note_on_c, 0, 73, 0
2, 467760, Note_on_c, 0, 71, 79
2, 468000, Note_on_c, 0, 71, 0
2, 468000, Note_on_c, 0, 69, 78
2, 469440, Note_on_c, 0, 69, 0
2, 469440, Note_on_c, 0, 68, 76
2, 469680, Note_on_c, 0, 68, 0
2, 469680, Note_on_c, 0, 69, 76
2, 469920, Note_on_c, 0, 69, 0
2, 469920, Note_on_c, 0, 71, 76
2, 470160, Note_on_c, 0, 71, 0
2, 470160, Note_on_c, 0, 73, 75
2, 470400, Note_on_c, 0, 73, 0
2, 470400, Note_on_c, 0, 74, 75
2, 470640, Note_on_c, 0, 74, 0
2, 470640, Note_on_c, 0, 76, 75
2, 470880, Note_on_c, 0, 76, 0
2, 470880, Note_on_c, 0, 74, 74
2, 471120, Note_on_c, 0, 74, 0
2, 471120, Note_on_c, 0, 73, 74
2, 471360, Note_on_c, 0, 73, 0
2, 471360, Note_on_c, 0, 71, 74
2, 471600, Note_on_c, 0, 71, 0
2, 471600, Note_on_c, 0, 69, 73
2, 471840, Note_on_c, 0, 69, 0
2, 471840, Note_on_c, 0, 68, 73
2, 472080, Note_on_c, 0, 68, 0
2, 472080, Note_on_c, 0, 69, 73
2, 472320, Note_on_c, 0, 69, 0
2, 472560, Note_on_c, 0, 76, 72
2, 472800, Note_on_c, 0, 76, 0
2, 472800, Note_on_c, 0, 75, 72
2, 473040, Note_on_c, 0, 75, 0
2, 473040, Note_on_c, 0, 76, 71
2, 473280, Note_on_c, 0, 76, 0
2, 473280, Note_on_c, 0, 78, 71
2, 473520, Note_on_c, 0, 78, 0
2, 473520, Note_on_c, 0, 76, 71
2, 473760, Note_on_c, 0, 76, 0
2, 473760, Note_on_c, 0, 74, 71
2, 475200, Note_on_c, 0, 74, 0
2, 475200, Note_on_c, 0, 73, 69
2, 475440, Note_on_c, 0, 73, 0
2, 475440, Note_on_c, 0, 74, 68
2, 475680, Note_on_c, 0, 74, 0
2, 475680, Note_on_c, 0, 76, 68
2, 475920, Note_on_c, 0, 76, 0
2, 475920, Note_on_c, 0, 78, 68
2, 476160, Note_on_c, 0, 78, 0
2, 476160, Note_on_c, 0, 79, 67
2, 476400, Note_on_c, 0, 79, 0
2, 476400, Note_on_c, 0, 81, 67
2, 476640, Note_on_c, 0, 81, 0
2, 476640, Note_on_c, 0, 79, 67
2, 476880, Note_on_c, 0, 79, 0
2, 476880, Note_on_c, 0, 78, 66
2, 477120, Note_on_c, 0, 78, 0
2, 477120, Note_on_c, 0, 76, 66
2, 477360, Note_on_c, 0, 76, 0
2, 477360, Note_on_c, 0, 74, 66
2, 477600, Note_on_c, 0, 74, 0
2, 477600, Note_on_c, 0, 73, 65
2, 477840, Note_on_c, 0, 73, 0
2, 477840, Note_on_c, 0, 74, 65
2, 478080, Note_on_c, 0, 74, 0
2, 478080, Note_on_c, 0, 80, 74
2, 478320, Note_on_c, 0, 80, 0
2, 478320, Note_on_c, 0, 81, 64
2, 478560, Note_on_c, 0, 81, 0
2, 478560, Note_on_c, 0, 83, 64
2, 478800, Note_on_c, 0, 83, 0
2, 478800, Note_on_c, 0, 85, 64
2, 479040, Note_on_c, 0, 85, 0
2, 479040, Note_on_c, 0, 86, 63
2, 479280, Note_on_c, 0, 86, 0
2, 479280, Note_on_c, 0, 88, 63
2, 479520, Note_on_c, 0, 88, 0
2, 479520, Note_on_c, 0, 86, 63
2, 479760, Note_on_c, 0, 86, 0
2, 479760, Note_on_c, 0, 85, 62
2, 480000, Note_on_c, 0, 85, 0
2, 480000, Note_on_c, 0, 83, 62
2, 480240, Note_on_c, 0, 83, 0
2, 480240, Note_on_c, 0, 81, 62
2, 480480, Note_on_c, 0, 81, 0
2, 480480, Note_on_c, 0, 80, 61
2, 480720, Note_on_c, 0, 80, 0
2, 480720, Note_on_c, 0, 81, 61
2, 480960, Note_on_c, 0, 81, 0
2, 480960, Control_c, 0, 64, 0
2, 480960, Note_on_c, 0, 80, 74
2, 481200, Note_on_c, 0, 80, 0
2, 481200, Note_on_c, 0, 81, 64
2, 481440, Note_on_c, 0, 81, 0
2, 481440, Note_on_c, 0, 83, 64
2, 481680, Note_on_c, 0, 83, 0
2, 481680, Note_on_c, 0, 85, 64
2, 481920, Note_on_c, 0, 85, 0
2, 481920, Note_on_c, 0, 86, 63
2, 482160, Note_on_c, 0, 86, 0
2, 482160, Note_on_c, 0, 88, 63
2, 482400, Note_on_c, 0, 88, 0
2, 482400, Note_on_c, 0, 86, 63
2, 482640, Note_on_c, 0, 86, 0
2, 482640, Note_on_c, 0, 85, 62
2, 482880, Note_on_c, 0, 85, 0
2, 482880, Note_on_c, 0, 83, 62
2, 483120, Note_on_c, 0, 83, 0
2, 483120, Note_on_c, 0, 81, 62
2, 483360, Note_on_c, 0, 81, 0
2, 483360, Note_on_c, 0, 80, 61
2, 483600, Note_on_c, 0, 80, 0
2, 483600, Note_on_c, 0, 81, 61
2, 483840, Note_on_c, 0, 81, 0
2, 483840, Note_on_c, 0, 80, 69
2, 484080, Note_on_c, 0, 80, 0
2, 484080, Note_on_c, 0, 81, 60
2, 484320, Note_on_c, 0, 81, 0
2, 484320, Note_on_c, 0, 83, 60
2, 484560, Note_on_c, 0, 83, 0
2, 484560, Note_on_c, 0, 85, 60
2, 484800, Note_on_c, 0, 85, 0
2, 484800, Note_on_c, 0, 86, 59
2, 485040, Note_on_c, 0, 86, 0
2, 485040, Note_on_c, 0, 88, 59
2, 485280, Note_on_c, 0, 88, 0
2, 485280, Note_on_c, 0, 86, 59
2, 485520, Note_on_c, 0, 86, 0
2, 485520, Note_on_c, 0, 85, 59
2, 485760, Note_on_c, 0, 85, 0
2, 485760, Note_on_c, 0, 83, 58
2, 486000, Note_on_c, 0, 83, 0
2, 486000, Note_on_c, 0, 81, 58
2, 486240, Note_on_c, 0, 81, 0
2, 486240, Note_on_c, 0, 80, 58
2, 486480, Note_on_c, 0, 80, 0
2, 486480, Note_on_c, 0, 78, 57
2, 486720, Note_on_c, 0, 78, 0
2, 486720, Note_on_c, 0, 76, 57
2, 486960, Note_on_c, 0, 76, 0
2, 486960, Note_on_c, 0, 74, 57
2, 487200, Note_on_c, 0, 74, 0
2, 487200, Note_on_c, 0, 73, 56
2, 487440, Note_on_c, 0, 73, 0
2, 487440, Note_on_c, 0, 71, 56
2, 487680, Note_on_c, 0, 71, 0
2, 487680, Note_on_c, 0, 69, 56
2, 487920, Note_on_c, 0, 69, 0
2, 487920, Note_on_c, 0, 68, 55
2, 488160, Note_on_c, 0, 68, 0
2, 488160, Note_on_c, 0, 69, 55
2, 491040, Note_on_c, 0, 69, 0
2, 491040, Note_on_c, 0, 70, 51
2, 492480, Note_on_c, 0, 70, 0
2, 492480, Note_on_c, 0, 71, 53
2, 493920, Note_on_c, 0, 71, 0
2, 493920, Note_on_c, 0, 73, 54
2, 495360, Note_on_c, 0, 73, 0
2, 495360, Note_on_c, 0, 74, 56
2, 496800, Note_on_c, 0, 74, 0
2, 496800, Note_on_c, 0, 75, 58
2, 498240, Note_on_c, 0, 75, 0
2, 498240, Note_on_c, 0, 76, 60
2, 498600, Note_on_c, 0, 76, 0
2, 498720, Note_on_c, 0, 78, 60
2, 499080, Note_on_c, 0, 78, 0
2, 499200, Note_on_c, 0, 79, 61
2, 499560, Note_on_c, 0, 79, 0
2, 499680, Note_on_c, 0, 74, 62
2, 500640, Note_on_c, 0, 74, 0
2, 500640, Note_on_c, 0, 73, 58
2, 501120, Note_on_c, 0, 73, 0
2, 501120, Note_on_c, 0, 74, 58
2, 501300, Note_on_c, 0, 74, 0
2, 501360, Note_on_c, 0, 78, 64
2, 501600, Note_on_c, 0, 78, 0
2, 501600, Note_on_c, 0, 76, 63
2, 501840, Note_on_c, 0, 76, 0
2, 501840, Note_on_c, 0, 74, 61
2, 502080, Note_on_c, 0, 74, 0
2, 502080, Note_on_c, 0, 73, 59
2, 502320, Note_on_c, 0, 73, 0
2, 502320, Note_on_c, 0, 71, 58
2, 502560, Note_on_c, 0, 71, 0
2, 502560, Note_on_c, 0, 70, 56
2, 504000, Note_on_c, 0, 70, 0
2, 504000, Note_on_c, 0, 71, 59
2, 505440, Note_on_c, 0, 71, 0
2, 505440, Note_on_c, 0, 73, 62
2, 506880, Note_on_c, 0, 73, 0
2, 506880, Note_on_c, 0, 74, 64
2, 508320, Note_on_c, 0, 74, 0
2, 508320, Note_on_c, 0, 76, 67
2, 509760, Note_on_c, 0, 76, 0
2, 509760, Note_on_c, 0, 77, 69
2, 511200, Note_on_c, 0, 77, 0
2, 511200, Note_on_c, 0, 78, 58
2, 513600, Note_on_c, 0, 78, 0
2, 513600, Note_on_c, 0, 77, 55
2, 514080, Note_on_c, 0, 77, 0
2, 514080, Note_on_c, 0, 78, 55
2, 515040, Note_on_c, 0, 78, 0
2, 515040, Note_on_c, 0, 77, 57
2, 515520, Note_on_c, 0, 77, 0
2, 515520, Note_on_c, 0, 78, 57
2, 516480, Note_on_c, 0, 78, 0
2, 516480, Note_on_c, 0, 77, 59
2, 516960, Note_on_c, 0, 77, 0
2, 516960, Note_on_c, 0, 78, 60
2, 519360, Note_on_c, 0, 78, 0
2, 519360, Note_on_c, 0, 78, 63
2, 519840, Note_on_c, 0, 78, 0
2, 519840, Note_on_c, 0, 79, 64
2, 520800, Note_on_c, 0, 79, 0
2, 520800, Note_on_c, 0, 78, 65
2, 521280, Note_on_c, 0, 78, 0
2, 521280, Note_on_c, 0, 79, 66
2, 522240, Note_on_c, 0, 79, 0
2, 522240, Note_on_c, 0, 78, 67
2, 522720, Note_on_c, 0, 78, 0
2, 522720, Note_on_c, 0, 79, 68
2, 525600, Note_on_c, 0, 79, 0
2, 525600, Note_on_c, 0, 79, 72
2, 526560, Note_on_c, 0, 79, 0
2, 526560, Note_on_c, 0, 78, 74
2, 527040, Note_on_c, 0, 78, 0
2, 527040, Note_on_c, 0, 79, 74
2, 528000, Note_on_c, 0, 79, 0
2, 528000, Note_on_c, 0, 78, 76
2, 528480, Note_on_c, 0, 78, 0
2, 528480, Note_on_c, 0, 79, 76
2, 530880, Note_on_c, 0, 79, 0
2, 530880, Note_on_c, 0, 79, 80
2, 531360, Note_on_c, 0, 79, 0
2, 531360, Note_on_c, 0, 78, 82
2, 532320, Note_on_c, 0, 78, 0
2, 532320, Note_on_c, 0, 79, 81
2, 532800, Note_on_c, 0, 79, 0
2, 532800, Note_on_c, 0, 78, 80
2, 533760, Note_on_c, 0, 78, 0
2, 533760, Note_on_c, 0, 76, 79
2, 534240, Note_on_c, 0, 76, 0
2, 534240, Note_on_c, 0, 74, 78
2, 536640, Note_on_c, 0, 74, 0
2, 536640, Note_on_c, 0, 76, 74
2, 537120, Note_on_c, 0, 76, 0
2, 537120, Note_on_c, 0, 74, 74
2, 538080, Note_on_c, 0, 74, 0
2, 538080, Note_on_c, 0, 76, 72
2, 538560, Note_on_c, 0, 76, 0
2, 538560, Note_on_c, 0, 74, 71
2, 539520, Note_on_c, 0, 74, 0
2, 539520, Note_on_c, 0, 72, 70
2, 540000, Note_on_c, 0, 72, 0
2, 540000, Note_on_c, 0, 71, 69
2, 542400, Note_on_c, 0, 71, 0
2, 542400, Note_on_c, 0, 72, 72
2, 542880, Note_on_c, 0, 72, 0
2, 542880, Note_on_c, 0, 71, 74
2, 543840, Note_on_c, 0, 71, 0
2, 543840, Note_on_c, 0, 72, 79
2, 544320, Note_on_c, 0, 72, 0
2, 544320, Note_on_c, 0, 71, 81
2, 545280, Note_on_c, 0, 71, 0
2, 545280, Note_on_c, 0, 73, 90
2, 545760, Note_on_c, 0, 73, 0
2, 545760, Note_on_c, 0, 74, 85
2, 546720, Note_on_c, 0, 74, 0
2, 546720, Note_on_c, 0, 76, 95
2, 547200, Note_on_c, 0, 76, 0
2, 547200, Note_on_c, 0, 78, 91
2, 548160, Note_on_c, 0, 78, 0
2, 548160, Note_on_c, 0, 79, 104
2, 548640, Note_on_c, 0, 79, 0
2, 548640, Note_on_c, 0, 81, 106
2, 550080, Note_on_c, 0, 81, 0
2, 550080, Note_on_c, 0, 81, 94
2, 550240, Note_on_c, 0, 81, 0
2, 550240, Note_on_c, 0, 80, 95
2, 550400, Note_on_c, 0, 80, 0
2, 550400, Note_on_c, 0, 83, 96
2, 550560, Note_on_c, 0, 83, 0
2, 550560, Note_on_c, 0, 81, 97
2, 550720, Note_on_c, 0, 81, 0
2, 550720, Note_on_c, 0, 79, 98
2, 550880, Note_on_c, 0, 79, 0
2, 550880, Note_on_c, 0, 78, 99
2, 551040, Note_on_c, 0, 78, 0
2, 551040, Note_on_c, 0, 76, 100
2, 551120, Note_on_c, 0, 76, 0
2, 551120, Note_on_c, 0, 74, 101
2, 551200, Note_on_c, 0, 74, 0
2, 551200, Note_on_c, 0, 73, 101
2, 551280, Note_on_c, 0, 73, 0
2, 551280, Note_on_c, 0, 71, 102
2, 551400, Note_on_c, 0, 71, 0
2, 551400, Note_on_c, 0, 69, 102
2, 551520, Note_on_c, 0, 69, 0
2, 551520, Note_on_c, 0, 86, 117
2, 552960, Note_on_c, 0, 86, 0
2, 552960, Note_on_c, 0, 86, 108
2, 553120, Note_on_c, 0, 86, 0
2, 553120, Note_on_c, 0, 85, 107
2, 553280, Note_on_c, 0, 85, 0
2, 553280, Note_on_c, 0, 88, 106
2, 553440, Note_on_c, 0, 88, 0
2, 553440, Note_on_c, 0, 86, 105
2, 553600, Note_on_c, 0, 86, 0
2, 553600, Note_on_c, 0, 85, 104
2, 553760, Note_on_c, 0, 85, 0
2, 553760, Note_on_c, 0, 83, 103
2, 553920, Note_on_c, 0, 83, 0
2, 553920, Note_on_c, 0, 81, 101
2, 554000, Note_on_c, 0, 81, 0
2, 554000, Note_on_c, 0, 80, 101
2, 554080, Note_on_c, 0, 80, 0
2, 554080, Note_on_c, 0, 78, 100
2, 554160, Note_on_c, 0, 78, 0
2, 554160, Note_on_c, 0, 76, 100
2, 554280, Note_on_c, 0, 76, 0
2, 554280, Note_on_c, 0, 74, 99
2, 554400, Note_on_c, 0, 74, 0
2, 554400, Note_on_c, 0, 86, 106
2, 554560, Note_on_c, 0, 86, 0
2, 554560, Note_on_c, 0, 85, 104
2, 554720, Note_on_c, 0, 85, 0
2, 554720, Note_on_c, 0, 88, 102
2, 554880, Note_on_c, 0, 88, 0
2, 554880, Note_on_c, 0, 86, 100
2, 555040, Note_on_c, 0, 86, 0
2, 555040, Note_on_c, 0, 85, 98
2, 555200, Note_on_c, 0, 85, 0
2, 555200, Note_on_c, 0, 83, 96
2, 555360, Note_on_c, 0, 83, 0
2, 555360, Note_on_c, 0, 81, 94
2, 555440, Note_on_c, 0, 81, 0
2, 555440, Note_on_c, 0, 79, 93
2, 555520, Note_on_c, 0, 79, 0
2, 555520, Note_on_c, 0, 78, 92
2, 555600, Note_on_c, 0, 78, 0
2, 555600, Note_on_c, 0, 76, 91
2, 555720, Note_on_c, 0, 76, 0
2, 555720, Note_on_c, 0, 74, 91
2, 555840, Note_on_c, 0, 74, 0
2, 555840, Note_on_c, 0, 81, 97
2, 556000, Note_on_c, 0, 81, 0
2, 556000, Note_on_c, 0, 80, 96
2, 556160, Note_on_c, 0, 80, 0
2, 556160, Note_on_c, 0, 83, 94
2, 556320, Note_on_c, 0, 83, 0
2, 556320, Note_on_c, 0, 81, 92
2, 556480, Note_on_c, 0, 81, 0
2, 556480, Note_on_c, 0, 79, 90
2, 556640, Note_on_c, 0, 79, 0
2, 556640, Note_on_c, 0, 78, 88
2, 556800, Note_on_c, 0, 78, 0
2, 556800, Note_on_c, 0, 76, 86
2, 556880, Note_on_c, 0, 76, 0
2, 556880, Note_on_c, 0, 74, 85
2, 556960, Note_on_c, 0, 74, 0
2, 556960, Note_on_c, 0, 73, 84
2, 557040, Note_on_c, 0, 73, 0
2, 557040, Note_on_c, 0, 71, 83
2, 557160, Note_on_c, 0, 71, 0
2, 557160, Note_on_c, 0, 69, 81
2, 557280, Note_on_c, 0, 69, 0
2, 557280, Note_on_c, 0, 81, 80
2, 559680, Note_on_c, 0, 81, 0
2, 559680, Note_on_c, 0, 80, 79
2, 560160, Note_on_c, 0, 80, 0
2, 560160, Note_on_c, 0, 81, 79
2, 561120, Note_on_c, 0, 81, 0
2, 561120, Note_on_c, 0, 83, 78
2, 561600, Note_on_c, 0, 83, 0
2, 561600, Note_on_c, 0, 81, 78
2, 562560, Note_on_c, 0, 81, 0
2, 562560, Note_on_c, 0, 79, 78
2, 563040, Note_on_c, 0, 79, 0
2, 563040, Note_on_c, 0, 78, 77
2, 565440, Note_on_c, 0, 78, 0
2, 565440, Note_on_c, 0, 77, 76
2, 565920, Note_on_c, 0, 77, 0
2, 565920, Note_on_c, 0, 78, 76
2, 566880, Note_on_c, 0, 78, 0
2, 566880, Note_on_c, 0, 79, 75
2, 567360, Note_on_c, 0, 79, 0
2, 567360, Note_on_c, 0, 78, 75
2, 568320, Note_on_c, 0, 78, 0
2, 568320, Note_on_c, 0, 76, 74
2, 568800, Note_on_c, 0, 76, 0
2, 568800, Note_on_c, 0, 74, 74
2, 571200, Note_on_c, 0, 74, 0
2, 571200, Note_on_c, 0, 73, 75
2, 571680, Note_on_c, 0, 73, 0
2, 571680, Note_on_c, 0, 74, 78
2, 572640, Note_on_c, 0, 74, 0
2, 572640, Note_on_c, 0, 73, 82
2, 573120, Note_on_c, 0, 73, 0
2, 573120, Note_on_c, 0, 74, 84
2, 574080, Note_on_c, 0, 74, 0
2, 574080, Note_on_c, 0, 75, 89
2, 574560, Note_on_c, 0, 75, 0
2, 574560, Note_on_c, 0, 76, 91
2, 575520, Note_on_c, 0, 76, 0
2, 575520, Note_on_c, 0, 78, 95
2, 576000, Note_on_c, 0, 78, 0
2, 576000, Note_on_c, 0, 79, 98
2, 576960, Note_on_c, 0, 79, 0
2, 576960, Note_on_c, 0, 80, 110
2, 577440, Note_on_c, 0, 80, 0
2, 577440, Note_on_c, 0, 81, 100
2, 578400, Note_on_c, 0, 81, 0
2, 578400, Note_on_c, 0, 83, 113
2, 578880, Note_on_c, 0, 83, 0
2, 578880, Note_on_c, 0, 84, 104
2, 579840, Note_on_c, 0, 84, 0
2, 579840, Note_on_c, 0, 85, 113
2, 580320, Note_on_c, 0, 85, 0
2, 580320, Note_on_c, 0, 86, 113
2, 581760, Note_on_c, 0, 86, 0
2, 581760, Note_on_c, 0, 86, 105
2, 581920, Note_on_c, 0, 86, 0
2, 581920, Note_on_c, 0, 85, 106
2, 582080, Note_on_c, 0, 85, 0
2, 582080, Note_on_c, 0, 88, 107
2, 582240, Note_on_c, 0, 88, 0
2, 582240, Note_on_c, 0, 86, 108
2, 582400, Note_on_c, 0, 86, 0
2, 582400, Note_on_c, 0, 85, 109
2, 582560, Note_on_c, 0, 85, 0
2, 582560, Note_on_c, 0, 83, 110
2, 582720, Note_on_c, 0, 83, 0
2, 582720, Note_on_c, 0, 81, 110
2, 582800, Note_on_c, 0, 81, 0
2, 582800, Note_on_c, 0, 79, 111
2, 582880, Note_on_c, 0, 79, 0
2, 582880, Note_on_c, 0, 78, 111
2, 582960, Note_on_c, 0, 78, 0
2, 582960, Note_on_c, 0, 76, 112
2, 583080, Note_on_c, 0, 76, 0
2, 583080, Note_on_c, 0, 74, 112
2, 583200, Note_on_c, 0, 74, 0
2, 583200, Note_on_c, 0, 86, 121
2, 584640, Note_on_c, 0, 86, 0
2, 584640, Note_on_c, 0, 86, 111
2, 584800, Note_on_c, 0, 86, 0
2, 584800, Note_on_c, 0, 85, 111
2, 584960, Note_on_c, 0, 85, 0
2, 584960, Note_on_c, 0, 88, 110
2, 585120, Note_on_c, 0, 88, 0
2, 585120, Note_on_c, 0, 86, 109
2, 585280, Note_on_c, 0, 86, 0
2, 585280, Note_on_c, 0, 85, 108
2, 585440, Note_on_c, 0, 85, 0
2, 585440, Note_on_c, 0, 83, 107
2, 585600, Note_on_c, 0, 83, 0
2, 585600, Note_on_c, 0, 81, 107
2, 585680, Note_on_c, 0, 81, 0
2, 585680, Note_on_c, 0, 80, 106
2, 585760, Note_on_c, 0, 80, 0
2, 585760, Note_on_c, 0, 78, 106
2, 585840, Note_on_c, 0, 78, 0
2, 585840, Note_on_c, 0, 76, 105
2, 585960, Note_on_c, 0, 76, 0
2, 585960, Note_on_c, 0, 74, 105
2, 586080, Note_on_c, 0, 74, 0
2, 586080, Note_on_c, 0, 86, 111
2, 586240, Note_on_c, 0, 86, 0
2, 586240, Note_on_c, 0, 85, 111
2, 586400, Note_on_c, 0, 85, 0
2, 586400, Note_on_c, 0, 88, 110
2, 586560, Note_on_c, 0, 88, 0
2, 586560, Note_on_c, 0, 86, 109
2, 586720, Note_on_c, 0, 86, 0
2, 586720, Note_on_c, 0, 85, 108
2, 586880, Note_on_c, 0, 85, 0
2, 586880, Note_on_c, 0, 83, 107
2, 587040, Note_on_c, 0, 83, 0
2, 587040, Note_on_c, 0, 81, 106
2, 587120, Note_on_c, 0, 81, 0
2, 587120, Note_on_c, 0, 79, 105
2, 587200, Note_on_c, 0, 79, 0
2, 587200, Note_on_c, 0, 78, 104
2, 587280, Note_on_c, 0, 78, 0
2, 587280, Note_on_c, 0, 76, 104
2, 587400, Note_on_c, 0, 76, 0
2, 587400, Note_on_c, 0, 74, 103
2, 587520, Note_on_c, 0, 74, 0
2, 587520, Note_on_c, 0, 86, 109
2, 587680, Note_on_c, 0, 86, 0
2, 587680, Note_on_c, 0, 85, 107
2, 587840, Note_on_c, 0, 85, 0
2, 587840, Note_on_c, 0, 88, 106
2, 588000, Note_on_c, 0, 88, 0
2, 588000, Note_on_c, 0, 86, 105
2, 588160, Note_on_c, 0, 86, 0
2, 588160, Note_on_c, 0, 85, 103
2, 588320, Note_on_c, 0, 85, 0
2, 588320, Note_on_c, 0, 83, 102
2, 588480, Note_on_c, 0, 83, 0
2, 588480, Note_on_c, 0, 81, 101
2, 588560, Note_on_c, 0, 81, 0
2, 588560, Note_on_c, 0, 79, 100
2, 588640, Note_on_c, 0, 79, 0
2, 588640, Note_on_c, 0, 78, 99
2, 588720, Note_on_c, 0, 78, 0
2, 588720, Note_on_c, 0, 76, 99
2, 588840, Note_on_c, 0, 76, 0
2, 588840, Note_on_c, 0, 74, 98
2, 588960, Note_on_c, 0, 74, 0
2, 588960, Note_on_c, 0, 81, 97
2, 592320, Note_on_c, 0, 81, 0
2, 592320, Note_on_c, 0, 79, 82
2, 592800, Note_on_c, 0, 79, 0
2, 592800, Note_on_c, 0, 78, 78
2, 593280, Note_on_c, 0, 78, 0
2, 593280, Note_on_c, 0, 78, 75
2, 594240, Note_on_c, 0, 78, 0
2, 594240, Note_on_c, 0, 76, 68
2, 594720, Note_on_c, 0, 76, 0
2, 594720, Note_on_c, 0, 74, 62
2, 595080, Note_on_c, 0, 74, 0
2, 595680, Note_on_c, 0, 81, 59
2, 597120, Note_on_c, 0, 81, 0
2, 597120, Note_on_c, 0, 69, 61
2, 598560, Note_on_c, 0, 69, 0
2, 598560, Note_on_c, 0, 74, 62
2, 599520, Note_on_c, 0, 74, 0
2, 599520, Note_on_c, 0, 73, 59
2, 600000, Note_on_c, 0, 73, 0
2, 600000, Note_on_c, 0, 79, 64
2, 600960, Note_on_c, 0, 79, 0
2, 600960, Note_on_c, 0, 78, 65
2, 601440, Note_on_c, 0, 78, 0
2, 601440, Note_on_c, 0, 86, 61
2, 602880, Note_on_c, 0, 86, 0
2, 602880, Note_on_c, 0, 74, 67
2, 604320, Note_on_c, 0, 74, 0
2, 604320, Note_on_c, 0, 83, 72
2, 605280, Note_on_c, 0, 83, 0
2, 605280, Note_on_c, 0, 81, 69
2, 605520, Note_on_c, 0, 81, 0
2, 605760, Note_on_c, 0, 79, 68
2, 606000, Note_on_c, 0, 79, 0
2, 606240, Note_on_c, 0, 78, 67
2, 606720, Note_on_c, 0, 78, 0
2, 606720, Note_on_c, 0, 74, 65
2, 607200, Note_on_c, 0, 74, 0
2, 607200, Note_on_c, 0, 81, 61
2, 608640, Note_on_c, 0, 81, 0
2, 608640, Note_on_c, 0, 69, 63
2, 610080, Note_on_c, 0, 69, 0
2, 610080, Note_on_c, 0, 74, 65
2, 611040, Note_on_c, 0, 74, 0
2, 611040, Note_on_c, 0, 73, 62
2, 611520, Note_on_c, 0, 73, 0
2, 611520, Note_on_c, 0, 79, 67
2, 612480, Note_on_c, 0, 79, 0
2, 612480, Note_on_c, 0, 78, 65
2, 612960, Note_on_c, 0, 78, 0
2, 612960, Note_on_c, 0, 86, 69
2, 614400, Note_on_c, 0, 86, 0
2, 614400, Note_on_c, 0, 74, 71
2, 615840, Note_on_c, 0, 74, 0
2, 615840, Note_on_c, 0, 83, 83
2, 616800, Note_on_c, 0, 83, 0
2, 616800, Note_on_c, 0, 81, 77
2, 617040, Note_on_c, 0, 81, 0
2, 617280, Note_on_c, 0, 79, 76
2, 617520, Note_on_c, 0, 79, 0
2, 617760, Note_on_c, 0, 78, 74
2, 618240, Note_on_c, 0, 78, 0
2, 618240, Note_on_c, 0, 74, 73
2, 618720, Note_on_c, 0, 74, 0
2, 618720, Note_on_c, 0, 86, 77
2, 620160, Note_on_c, 0, 86, 0
2, 620160, Note_on_c, 0, 74, 79
2, 621600, Note_on_c, 0, 74, 0
2, 621600, Note_on_c, 0, 83, 94
2, 622560, Note_on_c, 0, 83, 0
2, 622560, Note_on_c, 0, 81, 90
2, 622800, Note_on_c, 0, 81, 0
2, 623040, Note_on_c, 0, 79, 88
2, 623280, Note_on_c, 0, 79, 0
2, 623520, Note_on_c, 0, 78, 85
2, 624000, Note_on_c, 0, 78, 0
2, 624000, Note_on_c, 0, 74, 83
2, 624480, Note_on_c, 0, 74, 0
2, 624480, Note_on_c, 0, 83, 102
2, 625200, Note_on_c, 0, 83, 0
2, 625440, Note_on_c, 0, 81, 92
2, 625680, Note_on_c, 0, 81, 0
2, 625920, Note_on_c, 0, 79, 90
2, 626160, Note_on_c, 0, 79, 0
2, 626400, Note_on_c, 0, 78, 88
2, 626880, Note_on_c, 0, 78, 0
2, 626880, Note_on_c, 0, 74, 86
2, 627360, Note_on_c, 0, 74, 0
2, 627360, Note_on_c, 0, 71, 98
2, 628309, Note_on_c, 0, 71, 0
2, 628320, Note_on_c, 0, 69, 88
2, 628560, Note_on_c, 0, 69, 0
2, 628800, Note_on_c, 0, 67, 84
2, 629040, Note_on_c, 0, 67, 0
2, 629280, Note_on_c, 0, 66, 79
2, 629520, Note_on_c, 0, 66, 0
2, 629760, Note_on_c, 0, 64, 74
2, 630000, Note_on_c, 0, 64, 0
2, 630240, Note_on_c, 0, 62, 70
2, 630480, Note_on_c, 0, 62, 0
2, 630720, Note_on_c, 0, 60, 68
2, 630960, Note_on_c, 0, 60, 0
2, 631200, Note_on_c, 0, 59, 66
2, 631440, Note_on_c, 0, 59, 0
2, 631680, Note_on_c, 0, 58, 64
2, 631920, Note_on_c, 0, 58, 0
2, 632160, Note_on_c, 0, 57, 62
2, 632400, Note_on_c, 0, 57, 0
2, 632640, Note_on_c, 0, 56, 60
2, 632880, Note_on_c, 0, 56, 0
2, 633120, Note_on_c, 0, 55, 58
2, 633360, Note_on_c, 0, 55, 0
2, 633600, Note_on_c, 0, 54, 56
2, 634080, Note_on_c, 0, 54, 0
2, 635040, Note_on_c, 0, 69, 59
2, 636480, Note_on_c, 0, 69, 0
2, 636480, Note_on_c, 0, 69, 61
2, 636960, Note_on_c, 0, 69, 0
2, 636960, Note_on_c, 0, 67, 61
2, 638880, Note_on_c, 0, 67, 0
2, 638880, Note_on_c, 0, 66, 64
2, 639120, Note_on_c, 0, 66, 0
2, 639120, Note_on_c, 0, 64, 65
2, 639360, Note_on_c, 0, 64, 0
2, 639360, Note_on_c, 0, 62, 65
2, 640320, Note_on_c, 0, 62, 0
2, 640320, Note_on_c, 0, 61, 66
2, 640800, Note_on_c, 0, 61, 0
2, 640800, Note_on_c, 0, 59, 67
2, 641760, Note_on_c, 0, 59, 0
2, 641760, Note_on_c, 0, 57, 68
2, 642240, Note_on_c, 0, 57, 0
2, 642240, Note_on_c, 0, 57, 69
2, 643680, Note_on_c, 0, 57, 0
2, 643680, Note_on_c, 0, 62, 71
2, 645120, Note_on_c, 0, 62, 0
2, 645120, Note_on_c, 0, 64, 75
2, 646080, Note_on_c, 0, 64, 0
2, 646080, Note_on_c, 0, 66, 69
2, 646320, Note_on_c, 0, 66, 0
2, 646320, Note_on_c, 0, 67, 66
2, 646560, Note_on_c, 0, 67, 0
2, 646560, Note_on_c, 0, 66, 62
2, 646920, Note_on_c, 0, 66, 0
2, 647520, Note_on_c, 0, 69, 81
2, 647880, Note_on_c, 0, 69, 0
2, 648000, Note_on_c, 0, 64, 72
2, 648960, Note_on_c, 0, 64, 0
2, 648960, Note_on_c, 0, 66, 65
2, 649200, Note_on_c, 0, 66, 0
2, 649200, Note_on_c, 0, 67, 62
2, 649440, Note_on_c, 0, 67, 0
2, 649440, Note_on_c, 0, 66, 60
2, 649800, Note_on_c, 0, 66, 0
2, 650400, Note_on_c, 0, 74, 87
2, 650760, Note_on_c, 0, 74, 0
2, 650880, Note_on_c, 0, 64, 77
2, 651840, Note_on_c, 0, 64, 0
2, 651840, Note_on_c, 0, 66, 71
2, 652080, Note_on_c, 0, 66, 0
2, 652080, Note_on_c, 0, 67, 68
2, 652320, Note_on_c, 0, 67, 0
2, 652320, Note_on_c, 0, 66, 64
2, 652680, Note_on_c, 0, 66, 0
2, 653280, Note_on_c, 0, 78, 94
2, 653640, Note_on_c, 0, 78, 0
2, 653760, Note_on_c, 0, 64, 83
2, 654720, Note_on_c, 0, 64, 0
2, 654720, Note_on_c, 0, 66, 77
2, 654960, Note_on_c, 0, 66, 0
2, 654960, Note_on_c, 0, 67, 76
2, 655200, Note_on_c, 0, 67, 0
2, 655200, Note_on_c, 0, 66, 72
2, 655560, Note_on_c, 0, 66, 0
2, 656160, Note_on_c, 0, 81, 100
2, 656520, Note_on_c, 0, 81, 0
2, 656640, Note_on_c, 0, 64, 89
2, 657600, Note_on_c, 0, 64, 0
2, 657600, Note_on_c, 0, 66, 83
2, 657840, Note_on_c, 0, 66, 0
2, 657840, Note_on_c, 0, 67, 82
2, 658080, Note_on_c, 0, 67, 0
2, 658080, Note_on_c, 0, 66, 80
2, 658440, Note_on_c, 0, 66, 0
2, 659040, Note_on_c, 0, 86, 103
2, 659400, Note_on_c, 0, 86, 0
2, 660480, Note_on_c, 0, 86, 88
2, 660840, Note_on_c, 0, 86, 0
2, 661920, Note_on_c, 0, 86, 79
2, 662280, Note_on_c, 0, 86, 0
2, 662400, Note_on_c, 0, 86, 74
2, 662760, Note_on_c, 0, 86, 0
2, 663840, Note_on_c, 0, 73, 68
2, 664200, Note_on_c, 0, 73, 0
2, 665280, Note_on_c, 0, 74, 60
2, 665640, Note_on_c, 0, 74, 0
2, 666720, Control_c, 0, 10, 73
2, 666720, Control_c, 0, 91, 91
2, 666720, Control_c, 0, 93, 28
2, 666720, Control_c, 0, 64, 0
2, 666720, Control_c, 0, 1, 0
2, 666720, Pitch_bend_c, 0, 8192
2, 666720, Control_c, 0, 7, 127
2, 666720, Control_c, 0, 0, 0
2, 666720, Control_c, 0, 32, 0
2, 666720, Program_c, 0, 0
2, 667680, Note_on_c, 0, 62, 61
2, 668160, Note_on_c, 0, 62, 0
2, 668160, Note_on_c, 0, 69, 65
2, 668640, Note_on_c, 0, 69, 0
2, 668640, Note_on_c, 0, 67, 72
2, 668880, Note_on_c, 0, 67, 0
2, 668880, Note_on_c, 0, 65, 68
2, 669060, Note_on_c, 0, 65, 0
2, 669060, Note_on_c, 0, 64, 64
2, 669120, Note_on_c, 0, 64, 0
2, 669120, Note_on_c, 0, 62, 64
2, 669247, Note_on_c, 0, 62, 0
2, 669360, Note_on_c, 0, 74, 65
2, 669600, Note_on_c, 0, 74, 0
2, 669600, Note_on_c, 0, 74, 68
2, 669840, Note_on_c, 0, 74, 0
2, 669840, Note_on_c, 0, 74, 71
2, 670080, Note_on_c, 0, 74, 0
2, 670080, Note_on_c, 0, 74, 74
2, 670320, Note_on_c, 0, 74, 0
2, 670320, Note_on_c, 0, 74, 78
2, 670560, Note_on_c, 0, 74, 0
2, 670560, Note_on_c, 0, 74, 73
2, 671040, Note_on_c, 0, 74, 0
2, 671040, Note_on_c, 0, 73, 64
2, 671280, Note_on_c, 0, 73, 0
2, 671520, Note_on_c, 0, 65, 62
2, 672000, Note_on_c, 0, 65, 0
2, 672000, Note_on_c, 0, 72, 65
2, 672480, Note_on_c, 0, 72, 0
2, 672480, Note_on_c, 0, 70, 74
2, 672720, Note_on_c, 0, 70, 0
2, 672720, Note_on_c, 0, 69, 71
2, 672900, Note_on_c, 0, 69, 0
2, 672900, Note_on_c, 0, 68, 68
2, 672960, Note_on_c, 0, 68, 0
2, 672960, Note_on_c, 0, 69, 67
2, 673087, Note_on_c, 0, 69, 0
2, 673200, Note_on_c, 0, 71, 69
2, 673440, Note_on_c, 0, 71, 0
2, 673440, Note_on_c, 0, 72, 75
2, 673920, Note_on_c, 0, 72, 0
2, 673920, Note_on_c, 0, 68, 78
2, 674400, Note_on_c, 0, 68, 0
2, 674400, Note_on_c, 0, 69, 73
2, 674580, Note_on_c, 0, 69, 0
2, 674640, Note_on_c, 0, 58, 59
2, 674880, Note_on_c, 0, 58, 0
2, 674880, Note_on_c, 0, 57, 62
2, 675120, Note_on_c, 0, 61, 65
2, 675127, Note_on_c, 0, 57, 0
2, 675360, Control_c, 0, 64, 0
2, 675360, Note_on_c, 0, 62, 61
2, 675367, Note_on_c, 0, 61, 0
2, 675840, Note_on_c, 0, 62, 0
2, 675840, Note_on_c, 0, 69, 65
2, 676320, Note_on_c, 0, 69, 0
2, 676320, Note_on_c, 0, 67, 72
2, 676560, Note_on_c, 0, 67, 0
2, 676560, Note_on_c, 0, 65, 68
2, 676740, Note_on_c, 0, 65, 0
2, 676740, Note_on_c, 0, 64, 64
2, 676800, Note_on_c, 0, 64, 0
2, 676800, Note_on_c, 0, 62, 64
2, 676927, Note_on_c, 0, 62, 0
2, 677040, Note_on_c, 0, 74, 65
2, 677280, Note_on_c, 0, 74, 0
2, 677280, Note_on_c, 0, 74, 68
2, 677520, Note_on_c, 0, 74, 0
2, 677520, Note_on_c, 0, 74, 71
2, 677760, Note_on_c, 0, 74, 0
2, 677760, Note_on_c, 0, 74, 74
2, 678000, Note_on_c, 0, 74, 0
2, 678000, Note_on_c, 0, 74, 78
2, 678240, Note_on_c, 0, 74, 0
2, 678240, Note_on_c, 0, 74, 73
2, 678720, Note_on_c, 0, 74, 0
2, 678720, Note_on_c, 0, 73, 64
2, 678960, Note_on_c, 0, 73, 0
2, 679200, Note_on_c, 0, 65, 62
2, 679680, Note_on_c, 0, 65, 0
2, 679680, Note_on_c, 0, 72, 65
2, 680160, Note_on_c, 0, 72, 0
2, 680160, Note_on_c, 0, 70, 74
2, 680400, Note_on_c, 0, 70, 0
2, 680400, Note_on_c, 0, 69, 71
2, 680580, Note_on_c, 0, 69, 0
2, 680580, Note_on_c, 0, 68, 68
2, 680640, Note_on_c, 0, 68, 0
2, 680640, Note_on_c, 0, 69, 67
2, 680760, Note_on_c, 0, 69, 0
2, 680880, Note_on_c, 0, 71, 69
2, 681120, Note_on_c, 0, 71, 0
2, 681120, Note_on_c, 0, 72, 75
2, 681600, Note_on_c, 0, 72, 0
2, 681600, Note_on_c, 0, 68, 78
2, 682080, Note_on_c, 0, 68, 0
2, 682080, Note_on_c, 0, 69, 73
2, 682260, Note_on_c, 0, 69, 0
2, 682320, Note_on_c, 0, 58, 59
2, 682560, Note_on_c, 0, 58, 0
2, 682560, Note_on_c, 0, 57, 62
2, 682800, Note_on_c, 0, 56, 65
2, 682807, Note_on_c, 0, 57, 0
2, 683040, Note_on_c, 0, 76, 63
2, 683047, Note_on_c, 0, 56, 0
2, 683520, Note_on_c, 0, 76, 0
2, 683520, Note_on_c, 0, 79, 66
2, 683940, Note_on_c, 0, 77, 62
2, 683947, Note_on_c, 0, 79, 0
2, 684000, Note_on_c, 0, 77, 0
2, 684000, Note_on_c, 0, 77, 62
2, 684240, Note_on_c, 0, 77, 0
2, 684240, Note_on_c, 0, 76, 74
2, 684720, Note_on_c, 0, 76, 0
2, 684720, Note_on_c, 0, 77, 67
2, 684900, Note_on_c, 0, 77, 0
2, 684900, Note_on_c, 0, 74, 64
2, 684960, Note_on_c, 0, 74, 0
2, 684960, Note_on_c, 0, 73, 63
2, 685560, Note_on_c, 0, 73, 0
2, 685560, Note_on_c, 0, 76, 68
2, 685680, Note_on_c, 0, 76, 0
2, 685680, Note_on_c, 0, 79, 71
2, 685860, Note_on_c, 0, 79, 0
2, 685860, Note_on_c, 0, 77, 76
2, 685920, Note_on_c, 0, 77, 0
2, 685920, Note_on_c, 0, 77, 73
2, 686160, Note_on_c, 0, 77, 0
2, 686160, Note_on_c, 0, 76, 80
2, 686640, Note_on_c, 0, 76, 0
2, 686640, Note_on_c, 0, 77, 76
2, 686820, Note_on_c, 0, 77, 0
2, 686820, Note_on_c, 0, 74, 74
2, 686880, Note_on_c, 0, 74, 0
2, 686880, Note_on_c, 0, 73, 73
2, 687060, Note_on_c, 0, 73, 0
2, 687120, Note_on_c, 0, 76, 87
2, 687600, Note_on_c, 0, 76, 0
2, 687600, Note_on_c, 0, 77, 81
2, 687780, Note_on_c, 0, 77, 0
2, 687780, Note_on_c, 0, 74, 78
2, 687840, Note_on_c, 0, 74, 0
2, 687840, Note_on_c, 0, 73, 77
2, 688020, Note_on_c, 0, 73, 0
2, 688020, Note_on_c, 0, 76, 83
2, 688080, Note_on_c, 0, 76, 0
2, 688080, Note_on_c, 0, 77, 90
2, 688260, Note_on_c, 0, 77, 0
2, 688260, Note_on_c, 0, 74, 83
2, 688320, Note_on_c, 0, 74, 0
2, 688320, Note_on_c, 0, 73, 81
2, 688500, Note_on_c, 0, 73, 0
2, 688500, Note_on_c, 0, 76, 89
2, 688560, Note_on_c, 0, 76, 0
2, 688560, Note_on_c, 0, 77, 94
2, 688740, Note_on_c, 0, 77, 0
2, 688740, Note_on_c, 0, 74, 86
2, 688800, Note_on_c, 0, 74, 0
2, 688800, Note_on_c, 0, 73, 83
2, 689280, Note_on_c, 0, 73, 0
2, 689280, Note_on_c, 0, 76, 62
2, 689760, Note_on_c, 0, 76, 0
2, 689760, Note_on_c, 0, 79, 62
2, 690480, Note_on_c, 0, 73, 60
2, 690495, Note_on_c, 0, 79, 0
2, 690720, Note_on_c, 0, 73, 0
2, 690720, Note_on_c, 0, 74, 63
2, 691200, Note_on_c, 0, 74, 0
2, 691200, Note_on_c, 0, 81, 69
2, 691680, Note_on_c, 0, 81, 0
2, 691680, Note_on_c, 0, 79, 75
2, 691920, Note_on_c, 0, 79, 0
2, 691920, Note_on_c, 0, 77, 73
2, 692100, Note_on_c, 0, 77, 0
2, 692100, Note_on_c, 0, 76, 69
2, 692160, Note_on_c, 0, 76, 0
2, 692160, Note_on_c, 0, 74, 68
2, 692280, Note_on_c, 0, 74, 0
2, 692400, Note_on_c, 0, 79, 84
2, 692640, Note_on_c, 0, 79, 0
2, 692640, Note_on_c, 0, 77, 79
2, 692880, Note_on_c, 0, 77, 0
2, 692880, Note_on_c, 0, 76, 74
2, 693060, Note_on_c, 0, 76, 0
2, 693060, Note_on_c, 0, 74, 70
2, 693120, Note_on_c, 0, 74, 0
2, 693120, Note_on_c, 0, 72, 69
2, 693240, Note_on_c, 0, 72, 0
2, 693360, Note_on_c, 0, 81, 90
2, 693600, Note_on_c, 0, 81, 0
2, 693600, Note_on_c, 0, 79, 87
2, 693840, Note_on_c, 0, 79, 0
2, 693840, Note_on_c, 0, 77, 83
2, 694020, Note_on_c, 0, 77, 0
2, 694020, Note_on_c, 0, 76, 81
2, 694080, Note_on_c, 0, 76, 0
2, 694080, Note_on_c, 0, 74, 80
2, 694207, Note_on_c, 0, 74, 0
2, 694320, Note_on_c, 0, 86, 98
2, 694500, Note_on_c, 0, 84, 96
2, 694507, Note_on_c, 0, 86, 0
2, 694560, Note_on_c, 0, 84, 0
2, 694560, Note_on_c, 0, 84, 93
2, 694680, Note_on_c, 0, 84, 0
2, 694680, Note_on_c, 0, 82, 92
2, 694800, Note_on_c, 0, 82, 0
2, 694800, Note_on_c, 0, 81, 92
2, 694920, Note_on_c, 0, 80, 93
2, 694927, Note_on_c, 0, 81, 0
2, 695040, Note_on_c, 0, 80, 0
2, 695040, Note_on_c, 0, 80, 89
2, 695160, Note_on_c, 0, 80, 0
2, 695160, Note_on_c, 0, 81, 87
2, 695400, Note_on_c, 0, 61, 62
2, 695407, Note_on_c, 0, 81, 0
2, 695520, Note_on_c, 0, 61, 0
2, 695520, Note_on_c, 0, 64, 68
2, 696000, Note_on_c, 0, 64, 0
2, 696000, Note_on_c, 0, 62, 56
2, 696240, Note_on_c, 0, 62, 0
2, 696480, Control_c, 0, 64, 0
2, 696480, Note_on_c, 0, 76, 63
2, 696960, Note_on_c, 0, 76, 0
2, 696960, Note_on_c, 0, 79, 66
2, 697380, Note_on_c, 0, 77, 62
2, 697387, Note_on_c, 0, 79, 0
2, 697440, Note_on_c, 0, 77, 0
2, 697440, Note_on_c, 0, 77, 62
2, 697680, Note_on_c, 0, 77, 0
2, 697680, Note_on_c, 0, 76, 74
2, 698160, Note_on_c, 0, 76, 0
2, 698160, Note_on_c, 0, 77, 67
2, 698340, Note_on_c, 0, 77, 0
2, 698340, Note_on_c, 0, 74, 64
2, 698400, Note_on_c, 0, 74, 0
2, 698400, Note_on_c, 0, 73, 63
2, 699000, Note_on_c, 0, 73, 0
2, 699000, Note_on_c, 0, 76, 68
2, 699120, Note_on_c, 0, 76, 0
2, 699120, Note_on_c, 0, 79, 71
2, 699300, Note_on_c, 0, 79, 0
2, 699300, Note_on_c, 0, 77, 76
2, 699360, Note_on_c, 0, 77, 0
2, 699360, Note_on_c, 0, 77, 73
2, 699600, Note_on_c, 0, 77, 0
2, 699600, Note_on_c, 0, 76, 80
2, 700080, Note_on_c, 0, 76, 0
2, 700080, Note_on_c, 0, 77, 76
2, 700260, Note_on_c, 0, 77, 0
2, 700260, Note_on_c, 0, 74, 74
2, 700320, Note_on_c, 0, 74, 0
2, 700320, Note_on_c, 0, 73, 73
2, 700500, Note_on_c, 0, 73, 0
2, 700560, Note_on_c, 0, 76, 87
2, 701040, Note_on_c, 0, 76, 0
2, 701040, Note_on_c, 0, 77, 81
2, 701220, Note_on_c, 0, 77, 0
2, 701220, Note_on_c, 0, 74, 78
2, 701280, Note_on_c, 0, 74, 0
2, 701280, Note_on_c, 0, 73, 77
2, 701460, Note_on_c, 0, 73, 0
2, 701460, Note_on_c, 0, 76, 83
2, 701520, Note_on_c, 0, 76, 0
2, 701520, Note_on_c, 0, 77, 90
2, 701700, Note_on_c, 0, 77, 0
2, 701700, Note_on_c, 0, 74, 83
2, 701760, Note_on_c, 0, 74, 0
2, 701760, Note_on_c, 0, 73, 81
2, 701940, Note_on_c, 0, 73, 0
2, 701940, Note_on_c, 0, 76, 89
2, 702000, Note_on_c, 0, 76, 0
2, 702000, Note_on_c, 0, 77, 94
2, 702180, Note_on_c, 0, 77, 0
2, 702180, Note_on_c, 0, 74, 86
2, 702240, Note_on_c, 0, 74, 0
2, 702240, Note_on_c, 0, 73, 83
2, 702720, Note_on_c, 0, 73, 0
2, 702720, Note_on_c, 0, 76, 62
2, 703200, Note_on_c, 0, 76, 0
2, 703200, Note_on_c, 0, 79, 62
2, 703920, Note_on_c, 0, 73, 60
2, 703935, Note_on_c, 0, 79, 0
2, 704160, Note_on_c, 0, 73, 0
2, 704160, Note_on_c, 0, 74, 63
2, 704640, Note_on_c, 0, 74, 0
2, 704640, Note_on_c, 0, 81, 69
2, 705120, Note_on_c, 0, 81, 0
2, 705120, Note_on_c, 0, 79, 75
2, 705360, Note_on_c, 0, 79, 0
2, 705360, Note_on_c, 0, 77, 73
2, 705540, Note_on_c, 0, 77, 0
2, 705540, Note_on_c, 0, 76, 69
2, 705600, Note_on_c, 0, 76, 0
2, 705600, Note_on_c, 0, 74, 68
2, 705727, Note_on_c, 0, 74, 0
2, 705840, Note_on_c, 0, 79, 84
2, 706080, Note_on_c, 0, 79, 0
2, 706080, Note_on_c, 0, 77, 79
2, 706320, Note_on_c, 0, 77, 0
2, 706320, Note_on_c, 0, 76, 74
2, 706500, Note_on_c, 0, 76, 0
2, 706500, Note_on_c, 0, 74, 70
2, 706560, Note_on_c, 0, 74, 0
2, 706560, Note_on_c, 0, 72, 69
2, 706680, Note_on_c, 0, 72, 0
2, 706800, Note_on_c, 0, 81, 90
2, 707040, Note_on_c, 0, 81, 0
2, 707040, Note_on_c, 0, 79, 87
2, 707280, Note_on_c, 0, 79, 0
2, 707280, Note_on_c, 0, 77, 83
2, 707460, Note_on_c, 0, 77, 0
2, 707460, Note_on_c, 0, 76, 81
2, 707520, Note_on_c, 0, 76, 0
2, 707520, Note_on_c, 0, 74, 80
2, 707640, Note_on_c, 0, 74, 0
2, 707760, Note_on_c, 0, 86, 98
2, 707940, Note_on_c, 0, 84, 96
2, 707947, Note_on_c, 0, 86, 0
2, 708000, Note_on_c, 0, 84, 0
2, 708000, Note_on_c, 0, 84, 93
2, 708120, Note_on_c, 0, 84, 0
2, 708120, Note_on_c, 0, 82, 92
2, 708240, Note_on_c, 0, 82, 0
2, 708240, Note_on_c, 0, 81, 92
2, 708360, Note_on_c, 0, 80, 93
2, 708367, Note_on_c, 0, 81, 0
2, 708480, Note_on_c, 0, 80, 0
2, 708480, Note_on_c, 0, 80, 89
2, 708600, Note_on_c, 0, 80, 0
2, 708600, Note_on_c, 0, 81, 87
2, 708840, Note_on_c, 0, 61, 62
2, 708847, Note_on_c, 0, 81, 0
2, 708960, Note_on_c, 0, 61, 0
2, 708960, Note_on_c, 0, 64, 68
2, 709440, Note_on_c, 0, 64, 0
2, 709440, Note_on_c, 0, 62, 56
2, 709680, Note_on_c, 0, 62, 0
2, 709800, Note_on_c, 0, 57, 87
2, 709890, Note_on_c, 0, 57, 0
2, 709920, Note_on_c, 0, 66, 92
2, 710037, Note_on_c, 0, 66, 0
2, 710100, Note_on_c, 0, 66, 87
2, 710139, Note_on_c, 0, 66, 0
2, 710160, Note_on_c, 0, 66, 86
2, 710316, Note_on_c, 0, 66, 0
2, 710340, Note_on_c, 0, 80, 88
2, 710400, Note_on_c, 0, 80, 0
2, 710400, Note_on_c, 0, 81, 92
2, 710452, Note_on_c, 0, 81, 0
2, 710480, Note_on_c, 0, 78, 91
2, 710532, Note_on_c, 0, 78, 0
2, 710560, Note_on_c, 0, 74, 89
2, 710612, Note_on_c, 0, 74, 0
2, 710640, Note_on_c, 0, 69, 88
2, 710692, Note_on_c, 0, 69, 0
2, 710720, Note_on_c, 0, 67, 86
2, 710772, Note_on_c, 0, 67, 0
2, 710800, Note_on_c, 0, 66, 85
2, 710852, Note_on_c, 0, 66, 0
2, 710880, Note_on_c, 0, 64, 88
2, 710997, Note_on_c, 0, 64, 0
2, 711060, Note_on_c, 0, 64, 84
2, 711099, Note_on_c, 0, 64, 0
2, 711120, Note_on_c, 0, 64, 82
2, 711276, Note_on_c, 0, 64, 0
2, 711300, Note_on_c, 0, 82, 84
2, 711360, Note_on_c, 0, 82, 0
2, 711360, Note_on_c, 0, 83, 88
2, 711412, Note_on_c, 0, 83, 0
2, 711440, Note_on_c, 0, 79, 86
2, 711492, Note_on_c, 0, 79, 0
2, 711520, Note_on_c, 0, 76, 84
2, 711572, Note_on_c, 0, 76, 0
2, 711600, Note_on_c, 0, 71, 83
2, 711652, Note_on_c, 0, 71, 0
2, 711680, Note_on_c, 0, 67, 81
2, 711732, Note_on_c, 0, 67, 0
2, 711760, Note_on_c, 0, 64, 79
2, 711812, Note_on_c, 0, 64, 0
2, 711840, Note_on_c, 0, 61, 82
2, 711957, Note_on_c, 0, 61, 0
2, 712020, Note_on_c, 0, 61, 77
2, 712059, Note_on_c, 0, 61, 0
2, 712080, Note_on_c, 0, 61, 76
2, 712236, Note_on_c, 0, 61, 0
2, 712260, Note_on_c, 0, 78, 79
2, 712320, Note_on_c, 0, 78, 0
2, 712320, Note_on_c, 0, 79, 84
2, 712372, Note_on_c, 0, 79, 0
2, 712400, Note_on_c, 0, 76, 84
2, 712452, Note_on_c, 0, 76, 0
2, 712480, Note_on_c, 0, 73, 83
2, 712532, Note_on_c, 0, 73, 0
2, 712560, Note_on_c, 0, 67, 82
2, 712612, Note_on_c, 0, 67, 0
2, 712640, Note_on_c, 0, 64, 81
2, 712692, Note_on_c, 0, 64, 0
2, 712720, Note_on_c, 0, 61, 80
2, 712772, Note_on_c, 0, 61, 0
2, 712800, Note_on_c, 0, 62, 80
2, 712852, Note_on_c, 0, 62, 0
2, 712880, Note_on_c, 0, 57, 79
2, 712932, Note_on_c, 0, 57, 0
2, 712960, Note_on_c, 0, 66, 78
2, 713012, Note_on_c, 0, 66, 0
2, 713040, Note_on_c, 0, 64, 77
2, 713040, Note_on_c, 0, 61, 77
2, 713092, Note_on_c, 0, 61, 0
2, 713092, Note_on_c, 0, 64, 0
2, 713120, Note_on_c, 0, 57, 76
2, 713172, Note_on_c, 0, 57, 0
2, 713200, Note_on_c, 0, 67, 76
2, 713252, Note_on_c, 0, 67, 0
2, 713280, Note_on_c, 0, 62, 75
2, 713280, Note_on_c, 0, 66, 75
2, 713332, Note_on_c, 0, 66, 0
2, 713332, Note_on_c, 0, 62, 0
2, 713360, Note_on_c, 0, 74, 78
2, 713412, Note_on_c, 0, 74, 0
2, 713440, Note_on_c, 0, 73, 76
2, 713492, Note_on_c, 0, 73, 0
2, 713520, Note_on_c, 0, 71, 75
2, 713572, Note_on_c, 0, 71, 0
2, 713600, Note_on_c, 0, 69, 73
2, 713652, Note_on_c, 0, 69, 0
2, 713680, Note_on_c, 0, 67, 71
2, 713732, Note_on_c, 0, 67, 0
2, 713760, Note_on_c, 0, 66, 82
2, 713877, Note_on_c, 0, 66, 0
2, 713940, Note_on_c, 0, 66, 77
2, 713979, Note_on_c, 0, 66, 0
2, 714000, Note_on_c, 0, 66, 76
2, 714156, Note_on_c, 0, 66, 0
2, 714180, Note_on_c, 0, 80, 79
2, 714240, Note_on_c, 0, 80, 0
2, 714240, Note_on_c, 0, 81, 85
2, 714292, Note_on_c, 0, 81, 0
2, 714320, Note_on_c, 0, 78, 83
2, 714372, Note_on_c, 0, 78, 0
2, 714400, Note_on_c, 0, 74, 81
2, 714452, Note_on_c, 0, 74, 0
2, 714480, Note_on_c, 0, 69, 79
2, 714532, Note_on_c, 0, 69, 0
2, 714560, Note_on_c, 0, 67, 77
2, 714612, Note_on_c, 0, 67, 0
2, 714640, Note_on_c, 0, 66, 75
2, 714692, Note_on_c, 0, 66, 0
2, 714720, Note_on_c, 0, 64, 98
2, 714837, Note_on_c, 0, 64, 0
2, 714900, Note_on_c, 0, 64, 95
2, 714939, Note_on_c, 0, 64, 0
2, 714960, Note_on_c, 0, 64, 94
2, 715116, Note_on_c, 0, 64, 0
2, 715140, Note_on_c, 0, 85, 88
2, 715170, Note_on_c, 0, 85, 0
2, 715200, Note_on_c, 0, 86, 94
2, 715252, Note_on_c, 0, 86, 0
2, 715280, Note_on_c, 0, 83, 91
2, 715332, Note_on_c, 0, 83, 0
2, 715360, Note_on_c, 0, 80, 88
2, 715412, Note_on_c, 0, 80, 0
2, 715440, Note_on_c, 0, 76, 86
2, 715492, Note_on_c, 0, 76, 0
2, 715520, Note_on_c, 0, 74, 83
2, 715572, Note_on_c, 0, 74, 0
2, 715600, Note_on_c, 0, 71, 81
2, 715652, Note_on_c, 0, 71, 0
2, 715680, Note_on_c, 0, 73, 78
2, 715732, Note_on_c, 0, 73, 0
2, 715760, Note_on_c, 0, 81, 84
2, 715840, Note_on_c, 0, 81, 0
2, 715840, Note_on_c, 0, 80, 82
2, 715920, Note_on_c, 0, 80, 0
2, 715920, Note_on_c, 0, 81, 80
2, 715972, Note_on_c, 0, 81, 0
2, 716000, Note_on_c, 0, 76, 77
2, 716052, Note_on_c, 0, 76, 0
2, 716080, Note_on_c, 0, 73, 75
2, 716132, Note_on_c, 0, 73, 0
2, 716160, Note_on_c, 0, 71, 73
2, 716212, Note_on_c, 0, 71, 0
2, 716240, Note_on_c, 0, 76, 78
2, 716320, Note_on_c, 0, 76, 0
2, 716320, Note_on_c, 0, 75, 76
2, 716400, Note_on_c, 0, 75, 0
2, 716400, Note_on_c, 0, 76, 74
2, 716452, Note_on_c, 0, 76, 0
2, 716480, Note_on_c, 0, 74, 72
2, 716532, Note_on_c, 0, 74, 0
2, 716560, Note_on_c, 0, 71, 70
2, 716612, Note_on_c, 0, 71, 0
2, 716640, Note_on_c, 0, 69, 67
2, 716692, Note_on_c, 0, 69, 0
2, 716720, Note_on_c, 0, 64, 67
2, 716772, Note_on_c, 0, 64, 0
2, 716800, Note_on_c, 0, 73, 67
2, 716852, Note_on_c, 0, 73, 0
2, 716880, Note_on_c, 0, 69, 66
2, 716932, Note_on_c, 0, 69, 0
2, 716960, Note_on_c, 0, 64, 65
2, 717012, Note_on_c, 0, 64, 0
2, 717040, Note_on_c, 0, 73, 65
2, 717092, Note_on_c, 0, 73, 0
2, 717120, Note_on_c, 0, 69, 64
2, 717200, Note_on_c, 0, 76, 68
2, 717240, Note_on_c, 0, 69, 0
2, 717280, Note_on_c, 0, 76, 0
2, 717280, Note_on_c, 0, 73, 66
2, 717360, Note_on_c, 0, 73, 0
2, 717360, Note_on_c, 0, 69, 63
2, 717412, Note_on_c, 0, 69, 0
2, 717440, Note_on_c, 0, 71, 61
2, 717492, Note_on_c, 0, 71, 0
2, 717520, Note_on_c, 0, 67, 59
2, 717572, Note_on_c, 0, 67, 0
2, 717600, Control_c, 0, 64, 0
2, 717600, Note_on_c, 0, 66, 92
2, 717717, Note_on_c, 0, 66, 0
2, 717780, Note_on_c, 0, 66, 87
2, 717819, Note_on_c, 0, 66, 0
2, 717840, Note_on_c, 0, 66, 86
2, 717996, Note_on_c, 0, 66, 0
2, 718020, Note_on_c, 0, 80, 88
2, 718080, Note_on_c, 0, 80, 0
2, 718080, Note_on_c, 0, 81, 92
2, 718132, Note_on_c, 0, 81, 0
2, 718160, Note_on_c, 0, 78, 91
2, 718212, Note_on_c, 0, 78, 0
2, 718240, Note_on_c, 0, 74, 89
2, 718292, Note_on_c, 0, 74, 0
2, 718320, Note_on_c, 0, 69, 88
2, 718372, Note_on_c, 0, 69, 0
2, 718400, Note_on_c, 0, 67, 86
2, 718452, Note_on_c, 0, 67, 0
2, 718480, Note_on_c, 0, 66, 85
2, 718532, Note_on_c, 0, 66, 0
2, 718560, Note_on_c, 0, 64, 88
2, 718677, Note_on_c, 0, 64, 0
2, 718740, Note_on_c, 0, 64, 84
2, 718779, Note_on_c, 0, 64, 0
2, 718800, Note_on_c, 0, 64, 82
2, 718956, Note_on_c, 0, 64, 0
2, 718980, Note_on_c, 0, 82, 84
2, 719040, Note_on_c, 0, 82, 0
2, 719040, Note_on_c, 0, 83, 88
2, 719092, Note_on_c, 0, 83, 0
2, 719120, Note_on_c, 0, 79, 86
2, 719172, Note_on_c, 0, 79, 0
2, 719200, Note_on_c, 0, 76, 84
2, 719252, Note_on_c, 0, 76, 0
2, 719280, Note_on_c, 0, 71, 83
2, 719332, Note_on_c, 0, 71, 0
2, 719360, Note_on_c, 0, 67, 81
2, 719412, Note_on_c, 0, 67, 0
2, 719440, Note_on_c, 0, 64, 79
2, 719492, Note_on_c, 0, 64, 0
2, 719520, Note_on_c, 0, 61, 82
2, 719637, Note_on_c, 0, 61, 0
2, 719700, Note_on_c, 0, 61, 77
2, 719739, Note_on_c, 0, 61, 0
2, 719760, Note_on_c, 0, 61, 76
2, 719916, Note_on_c, 0, 61, 0
2, 719940, Note_on_c, 0, 78, 79
2, 720000, Note_on_c, 0, 78, 0
2, 720000, Note_on_c, 0, 79, 84
2, 720052, Note_on_c, 0, 79, 0
2, 720080, Note_on_c, 0, 76, 84
2, 720132, Note_on_c, 0, 76, 0
2, 720160, Note_on_c, 0, 73, 83
2, 720212, Note_on_c, 0, 73, 0
2, 720240, Note_on_c, 0, 67, 82
2, 720292, Note_on_c, 0, 67, 0
2, 720320, Note_on_c, 0, 64, 81
2, 720372, Note_on_c, 0, 64, 0
2, 720400, Note_on_c, 0, 61, 80
2, 720452, Note_on_c, 0, 61, 0
2, 720480, Note_on_c, 0, 62, 80
2, 720532, Note_on_c, 0, 62, 0
2, 720560, Note_on_c, 0, 57, 79
2, 720612, Note_on_c, 0, 57, 0
2, 720640, Note_on_c, 0, 66, 78
2, 720692, Note_on_c, 0, 66, 0
2, 720720, Note_on_c, 0, 61, 77
2, 720720, Note_on_c, 0, 64, 77
2, 720772, Note_on_c, 0, 64, 0
2, 720772, Note_on_c, 0, 61, 0
2, 720800, Note_on_c, 0, 57, 76
2, 720852, Note_on_c, 0, 57, 0
2, 720880, Note_on_c, 0, 67, 76
2, 720932, Note_on_c, 0, 67, 0
2, 720960, Note_on_c, 0, 66, 75
2, 720960, Note_on_c, 0, 62, 75
2, 721012, Note_on_c, 0, 62, 0
2, 721012, Note_on_c, 0, 66, 0
2, 721040, Note_on_c, 0, 74, 78
2, 721092, Note_on_c, 0, 74, 0
2, 721120, Note_on_c, 0, 73, 76
2, 721172, Note_on_c, 0, 73, 0
2, 721200, Note_on_c, 0, 71, 75
2, 721252, Note_on_c, 0, 71, 0
2, 721280, Note_on_c, 0, 69, 73
2, 721332, Note_on_c, 0, 69, 0
2, 721360, Note_on_c, 0, 67, 71
2, 721412, Note_on_c, 0, 67, 0
2, 721440, Note_on_c, 0, 66, 82
2, 721557, Note_on_c, 0, 66, 0
2, 721620, Note_on_c, 0, 66, 77
2, 721659, Note_on_c, 0, 66, 0
2, 721680, Note_on_c, 0, 66, 76
2, 721836, Note_on_c, 0, 66, 0
2, 721860, Note_on_c, 0, 80, 79
2, 721920, Note_on_c, 0, 80, 0
2, 721920, Note_on_c, 0, 81, 85
2, 721972, Note_on_c, 0, 81, 0
2, 722000, Note_on_c, 0, 78, 83
2, 722052, Note_on_c, 0, 78, 0
2, 722080, Note_on_c, 0, 74, 81
2, 722132, Note_on_c, 0, 74, 0
2, 722160, Note_on_c, 0, 69, 79
2, 722212, Note_on_c, 0, 69, 0
2, 722240, Note_on_c, 0, 67, 77
2, 722292, Note_on_c, 0, 67, 0
2, 722320, Note_on_c, 0, 66, 75
2, 722372, Note_on_c, 0, 66, 0
2, 722400, Note_on_c, 0, 64, 98
2, 722517, Note_on_c, 0, 64, 0
2, 722580, Note_on_c, 0, 64, 95
2, 722619, Note_on_c, 0, 64, 0
2, 722640, Note_on_c, 0, 64, 94
2, 722796, Note_on_c, 0, 64, 0
2, 722820, Note_on_c, 0, 85, 88
2, 722850, Note_on_c, 0, 85, 0
2, 722880, Note_on_c, 0, 86, 94
2, 722932, Note_on_c, 0, 86, 0
2, 722960, Note_on_c, 0, 83, 91
2, 723012, Note_on_c, 0, 83, 0
2, 723040, Note_on_c, 0, 80, 88
2, 723092, Note_on_c, 0, 80, 0
2, 723120, Note_on_c, 0, 76, 86
2, 723172, Note_on_c, 0, 76, 0
2, 723200, Note_on_c, 0, 74, 83
2, 723252, Note_on_c, 0, 74, 0
2, 723280, Note_on_c, 0, 71, 81
2, 723332, Note_on_c, 0, 71, 0
2, 723360, Note_on_c, 0, 73, 78
2, 723412, Note_on_c, 0, 73, 0
2, 723440, Note_on_c, 0, 81, 84
2, 723520, Note_on_c, 0, 81, 0
2, 723520, Note_on_c, 0, 80, 82
2, 723600, Note_on_c, 0, 80, 0
2, 723600, Note_on_c, 0, 81, 80
2, 723652, Note_on_c, 0, 81, 0
2, 723680, Note_on_c, 0, 76, 77
2, 723732, Note_on_c, 0, 76, 0
2, 723760, Note_on_c, 0, 73, 75
2, 723812, Note_on_c, 0, 73, 0
2, 723840, Note_on_c, 0, 71, 73
2, 723892, Note_on_c, 0, 71, 0
2, 723920, Note_on_c, 0, 76, 78
2, 724000, Note_on_c, 0, 76, 0
2, 724000, Note_on_c, 0, 75, 76
2, 724080, Note_on_c, 0, 75, 0
2, 724080, Note_on_c, 0, 76, 74
2, 724132, Note_on_c, 0, 76, 0
2, 724160, Note_on_c, 0, 74, 72
2, 724212, Note_on_c, 0, 74, 0
2, 724240, Note_on_c, 0, 71, 70
2, 724292, Note_on_c, 0, 71, 0
2, 724320, Note_on_c, 0, 69, 67
2, 724372, Note_on_c, 0, 69, 0
2, 724400, Note_on_c, 0, 64, 67
2, 724452, Note_on_c, 0, 64, 0
2, 724480, Note_on_c, 0, 73, 67
2, 724532, Note_on_c, 0, 73, 0
2, 724560, Note_on_c, 0, 69, 66
2, 724612, Note_on_c, 0, 69, 0
2, 724640, Note_on_c, 0, 64, 65
2, 724692, Note_on_c, 0, 64, 0
2, 724720, Note_on_c, 0, 73, 65
2, 724772, Note_on_c, 0, 73, 0
2, 724800, Note_on_c, 0, 69, 64
2, 724880, Note_on_c, 0, 64, 68
2, 724920, Note_on_c, 0, 69, 0
2, 724960, Note_on_c, 0, 64, 0
2, 724960, Note_on_c, 0, 61, 66
2, 725040, Note_on_c, 0, 61, 0
2, 725040, Note_on_c, 0, 57, 63
2, 725092, Note_on_c, 0, 57, 0
2, 725120, Note_on_c, 0, 59, 61
2, 725172, Note_on_c, 0, 59, 0
2, 725200, Note_on_c, 0, 55, 59
2, 725252, Note_on_c, 0, 55, 0
2, 725280, Note_on_c, 0, 62, 98
2, 725397, Note_on_c, 0, 62, 0
2, 725460, Note_on_c, 0, 62, 94
2, 725499, Note_on_c, 0, 62, 0
2, 725520, Note_on_c, 0, 62, 93
2, 725676, Note_on_c, 0, 62, 0
2, 725700, Note_on_c, 0, 83, 75
2, 725759, Note_on_c, 0, 83, 0
2, 725760, Note_on_c, 0, 84, 79
2, 725812, Note_on_c, 0, 84, 0
2, 725840, Note_on_c, 0, 81, 77
2, 725892, Note_on_c, 0, 81, 0
2, 725920, Note_on_c, 0, 78, 76
2, 725972, Note_on_c, 0, 78, 0
2, 726000, Note_on_c, 0, 74, 75
2, 726052, Note_on_c, 0, 74, 0
2, 726080, Note_on_c, 0, 72, 74
2, 726132, Note_on_c, 0, 72, 0
2, 726160, Note_on_c, 0, 69, 73
2, 726212, Note_on_c, 0, 69, 0
2, 726240, Note_on_c, 0, 62, 94
2, 726357, Note_on_c, 0, 62, 0
2, 726420, Note_on_c, 0, 62, 90
2, 726459, Note_on_c, 0, 62, 0
2, 726480, Note_on_c, 0, 62, 89
2, 726636, Note_on_c, 0, 62, 0
2, 726660, Note_on_c, 0, 85, 62
2, 726720, Note_on_c, 0, 85, 0
2, 726720, Note_on_c, 0, 86, 66
2, 726800, Note_on_c, 0, 86, 0
2, 726800, Note_on_c, 0, 83, 66
2, 726880, Note_on_c, 0, 83, 0
2, 726880, Note_on_c, 0, 79, 65
2, 726960, Note_on_c, 0, 79, 0
2, 726960, Note_on_c, 0, 86, 64
2, 727040, Note_on_c, 0, 86, 0
2, 727040, Note_on_c, 0, 84, 63
2, 727120, Note_on_c, 0, 84, 0
2, 727120, Note_on_c, 0, 81, 62
2, 727200, Note_on_c, 0, 81, 0
2, 727200, Note_on_c, 0, 84, 64
2, 727280, Note_on_c, 0, 84, 0
2, 727280, Note_on_c, 0, 83, 65
2, 727360, Note_on_c, 0, 83, 0
2, 727360, Note_on_c, 0, 79, 66
2, 727440, Note_on_c, 0, 79, 0
2, 727440, Note_on_c, 0, 83, 67
2, 727520, Note_on_c, 0, 83, 0
2, 727520, Note_on_c, 0, 81, 68
2, 727600, Note_on_c, 0, 81, 0
2, 727600, Note_on_c, 0, 78, 69
2, 727680, Note_on_c, 0, 78, 0
2, 727680, Note_on_c, 0, 81, 70
2, 727760, Note_on_c, 0, 81, 0
2, 727760, Note_on_c, 0, 79, 71
2, 727840, Note_on_c, 0, 79, 0
2, 727840, Note_on_c, 0, 76, 72
2, 727920, Note_on_c, 0, 76, 0
2, 727920, Note_on_c, 0, 79, 73
2, 728000, Note_on_c, 0, 79, 0
2, 728000, Note_on_c, 0, 78, 74
2, 728080, Note_on_c, 0, 78, 0
2, 728080, Note_on_c, 0, 75, 75
2, 728160, Note_on_c, 0, 75, 0
2, 728160, Note_on_c, 0, 78, 76
2, 728240, Note_on_c, 0, 78, 0
2, 728240, Note_on_c, 0, 76, 73
2, 728320, Note_on_c, 0, 76, 0
2, 728320, Note_on_c, 0, 71, 72
2, 728400, Note_on_c, 0, 71, 0
2, 728400, Note_on_c, 0, 76, 71
2, 728480, Note_on_c, 0, 76, 0
2, 728480, Note_on_c, 0, 74, 70
2, 728560, Note_on_c, 0, 74, 0
2, 728560, Note_on_c, 0, 71, 68
2, 728640, Note_on_c, 0, 71, 0
2, 728640, Note_on_c, 0, 74, 67
2, 728720, Note_on_c, 0, 74, 0
2, 728720, Note_on_c, 0, 73, 66
2, 728772, Note_on_c, 0, 73, 0
2, 728800, Note_on_c, 0, 71, 65
2, 728852, Note_on_c, 0, 71, 0
2, 728880, Note_on_c, 0, 69, 64
2, 728932, Note_on_c, 0, 69, 0
2, 728960, Note_on_c, 0, 71, 62
2, 729012, Note_on_c, 0, 71, 0
2, 729040, Note_on_c, 0, 67, 61
2, 729092, Note_on_c, 0, 67, 0
2, 729120, Note_on_c, 0, 66, 84
2, 729237, Note_on_c, 0, 66, 0
2, 729300, Note_on_c, 0, 66, 81
2, 729339, Note_on_c, 0, 66, 0
2, 729360, Note_on_c, 0, 66, 80
2, 729516, Note_on_c, 0, 66, 0
2, 729540, Note_on_c, 0, 80, 79
2, 729600, Note_on_c, 0, 80, 0
2, 729600, Note_on_c, 0, 81, 84
2, 729652, Note_on_c, 0, 81, 0
2, 729680, Note_on_c, 0, 78, 83
2, 729732, Note_on_c, 0, 78, 0
2, 729760, Note_on_c, 0, 74, 82
2, 729812, Note_on_c, 0, 74, 0
2, 729840, Note_on_c, 0, 69, 81
2, 729892, Note_on_c, 0, 69, 0
2, 729920, Note_on_c, 0, 67, 79
2, 729972, Note_on_c, 0, 67, 0
2, 730000, Note_on_c, 0, 66, 78
2, 730052, Note_on_c, 0, 66, 0
2, 730080, Note_on_c, 0, 64, 77
2, 730197, Note_on_c, 0, 64, 0
2, 730260, Note_on_c, 0, 64, 74
2, 730299, Note_on_c, 0, 64, 0
2, 730320, Note_on_c, 0, 64, 74
2, 730476, Note_on_c, 0, 64, 0
2, 730500, Note_on_c, 0, 85, 73
2, 730560, Note_on_c, 0, 85, 0
2, 730560, Note_on_c, 0, 86, 80
2, 730612, Note_on_c, 0, 86, 0
2, 730640, Note_on_c, 0, 83, 79
2, 730692, Note_on_c, 0, 83, 0
2, 730720, Note_on_c, 0, 81, 77
2, 730772, Note_on_c, 0, 81, 0
2, 730800, Note_on_c, 0, 79, 76
2, 730852, Note_on_c, 0, 79, 0
2, 730880, Note_on_c, 0, 78, 74
2, 730932, Note_on_c, 0, 78, 0
2, 730960, Note_on_c, 0, 76, 73
2, 731012, Note_on_c, 0, 76, 0
2, 731040, Note_on_c, 0, 74, 71
2, 731092, Note_on_c, 0, 74, 0
2, 731120, Note_on_c, 0, 81, 74
2, 731200, Note_on_c, 0, 81, 0
2, 731200, Note_on_c, 0, 80, 72
2, 731280, Note_on_c, 0, 80, 0
2, 731280, Note_on_c, 0, 81, 70
2, 731332, Note_on_c, 0, 81, 0
2, 731360, Note_on_c, 0, 78, 69
2, 731412, Note_on_c, 0, 78, 0
2, 731440, Note_on_c, 0, 74, 67
2, 731492, Note_on_c, 0, 74, 0
2, 731520, Note_on_c, 0, 73, 65
2, 731572, Note_on_c, 0, 73, 0
2, 731600, Note_on_c, 0, 79, 72
2, 731680, Note_on_c, 0, 79, 0
2, 731680, Note_on_c, 0, 78, 70
2, 731760, Note_on_c, 0, 78, 0
2, 731760, Note_on_c, 0, 79, 67
2, 731812, Note_on_c, 0, 79, 0
2, 731840, Note_on_c, 0, 76, 65
2, 731892, Note_on_c, 0, 76, 0
2, 731920, Note_on_c, 0, 73, 63
2, 731972, Note_on_c, 0, 73, 0
2, 732000, Note_on_c, 0, 74, 61
2, 732052, Note_on_c, 0, 74, 0
2, 732080, Note_on_c, 0, 69, 62
2, 732132, Note_on_c, 0, 69, 0
2, 732160, Note_on_c, 0, 78, 61
2, 732212, Note_on_c, 0, 78, 0
2, 732240, Note_on_c, 0, 74, 61
2, 732292, Note_on_c, 0, 74, 0
2, 732320, Note_on_c, 0, 69, 60
2, 732372, Note_on_c, 0, 69, 0
2, 732400, Note_on_c, 0, 78, 58
2, 732452, Note_on_c, 0, 78, 0
2, 732480, Note_on_c, 0, 74, 56
2, 732562, Note_on_c, 0, 74, 0
2, 732960, Note_on_c, 0, 62, 98
2, 733077, Note_on_c, 0, 62, 0
2, 733140, Note_on_c, 0, 62, 94
2, 733179, Note_on_c, 0, 62, 0
2, 733200, Note_on_c, 0, 62, 93
2, 733356, Note_on_c, 0, 62, 0
2, 733380, Note_on_c, 0, 83, 75
2, 733439, Note_on_c, 0, 83, 0
2, 733440, Note_on_c, 0, 84, 79
2, 733492, Note_on_c, 0, 84, 0
2, 733520, Note_on_c, 0, 81, 77
2, 733572, Note_on_c, 0, 81, 0
2, 733600, Note_on_c, 0, 78, 76
2, 733652, Note_on_c, 0, 78, 0
2, 733680, Note_on_c, 0, 74, 75
2, 733732, Note_on_c, 0, 74, 0
2, 733760, Note_on_c, 0, 72, 74
2, 733812, Note_on_c, 0, 72, 0
2, 733840, Note_on_c, 0, 69, 73
2, 733892, Note_on_c, 0, 69, 0
2, 733920, Note_on_c, 0, 62, 94
2, 734037, Note_on_c, 0, 62, 0
2, 734100, Note_on_c, 0, 62, 90
2, 734139, Note_on_c, 0, 62, 0
2, 734160, Note_on_c, 0, 62, 89
2, 734316, Note_on_c, 0, 62, 0
2, 734340, Note_on_c, 0, 85, 62
2, 734400, Note_on_c, 0, 85, 0
2, 734400, Note_on_c, 0, 86, 66
2, 734480, Note_on_c, 0, 86, 0
2, 734480, Note_on_c, 0, 83, 66
2, 734560, Note_on_c, 0, 83, 0
2, 734560, Note_on_c, 0, 79, 65
2, 734640, Note_on_c, 0, 79, 0
2, 734640, Note_on_c, 0, 86, 64
2, 734720, Note_on_c, 0, 86, 0
2, 734720, Note_on_c, 0, 84, 63
2, 734800, Note_on_c, 0, 84, 0
2, 734800, Note_on_c, 0, 81, 62
2, 734880, Note_on_c, 0, 81, 0
2, 734880, Note_on_c, 0, 84, 64
2, 734960, Note_on_c, 0, 84, 0
2, 734960, Note_on_c, 0, 83, 65
2, 735040, Note_on_c, 0, 83, 0
2, 735040, Note_on_c, 0, 79, 66
2, 735120, Note_on_c, 0, 79, 0
2, 735120, Note_on_c, 0, 83, 67
2, 735200, Note_on_c, 0, 83, 0
2, 735200, Note_on_c, 0, 81, 68
2, 735280, Note_on_c, 0, 81, 0
2, 735280, Note_on_c, 0, 78, 69
2, 735360, Note_on_c, 0, 78, 0
2, 735360, Note_on_c, 0, 81, 70
2, 735440, Note_on_c, 0, 81, 0
2, 735440, Note_on_c, 0, 79, 71
2, 735520, Note_on_c, 0, 79, 0
2, 735520, Note_on_c, 0, 76, 72
2, 735600, Note_on_c, 0, 76, 0
2, 735600, Note_on_c, 0, 79, 73
2, 735680, Note_on_c, 0, 79, 0
2, 735680, Note_on_c, 0, 78, 74
2, 735760, Note_on_c, 0, 78, 0
2, 735760, Note_on_c, 0, 75, 75
2, 735840, Note_on_c, 0, 75, 0
2, 735840, Note_on_c, 0, 78, 76
2, 735920, Note_on_c, 0, 78, 0
2, 735920, Note_on_c, 0, 76, 73
2, 736000, Note_on_c, 0, 76, 0
2, 736000, Note_on_c, 0, 71, 72
2, 736080, Note_on_c, 0, 71, 0
2, 736080, Note_on_c, 0, 76, 71
2, 736160, Note_on_c, 0, 76, 0
2, 736160, Note_on_c, 0, 74, 70
2, 736240, Note_on_c, 0, 74, 0
2, 736240, Note_on_c, 0, 71, 68
2, 736320, Note_on_c, 0, 71, 0
2, 736320, Note_on_c, 0, 74, 67
2, 736400, Note_on_c, 0, 74, 0
2, 736400, Note_on_c, 0, 73, 66
2, 736452, Note_on_c, 0, 73, 0
2, 736480, Note_on_c, 0, 71, 65
2, 736532, Note_on_c, 0, 71, 0
2, 736560, Note_on_c, 0, 69, 64
2, 736612, Note_on_c, 0, 69, 0
2, 736640, Note_on_c, 0, 71, 62
2, 736692, Note_on_c, 0, 71, 0
2, 736720, Note_on_c, 0, 67, 61
2, 736772, Note_on_c, 0, 67, 0
2, 736800, Note_on_c, 0, 66, 84
2, 736917, Note_on_c, 0, 66, 0
2, 736980, Note_on_c, 0, 66, 81
2, 737019, Note_on_c, 0, 66, 0
2, 737040, Note_on_c, 0, 66, 80
2, 737196, Note_on_c, 0, 66, 0
2, 737220, Note_on_c, 0, 80, 79
2, 737280, Note_on_c, 0, 80, 0
2, 737280, Note_on_c, 0, 81, 84
2, 737332, Note_on_c, 0, 81, 0
2, 737360, Note_on_c, 0, 78, 83
2, 737412, Note_on_c, 0, 78, 0
2, 737440, Note_on_c, 0, 74, 82
2, 737492, Note_on_c, 0, 74, 0
2, 737520, Note_on_c, 0, 69, 81
2, 737572, Note_on_c, 0, 69, 0
2, 737600, Note_on_c, 0, 67, 79
2, 737652, Note_on_c, 0, 67, 0
2, 737680, Note_on_c, 0, 66, 78
2, 737732, Note_on_c, 0, 66, 0
2, 737760, Note_on_c, 0, 64, 77
2, 737877, Note_on_c, 0, 64, 0
2, 737940, Note_on_c, 0, 64, 74
2, 737979, Note_on_c, 0, 64, 0
2, 738000, Note_on_c, 0, 64, 74
2, 738156, Note_on_c, 0, 64, 0
2, 738180, Note_on_c, 0, 85, 73
2, 738240, Note_on_c, 0, 85, 0
2, 738240, Note_on_c, 0, 86, 80
2, 738292, Note_on_c, 0, 86, 0
2, 738320, Note_on_c, 0, 83, 79
2, 738372, Note_on_c, 0, 83, 0
2, 738400, Note_on_c, 0, 81, 77
2, 738452, Note_on_c, 0, 81, 0
2, 738480, Note_on_c, 0, 79, 76
2, 738532, Note_on_c, 0, 79, 0
2, 738560, Note_on_c, 0, 78, 74
2, 738612, Note_on_c, 0, 78, 0
2, 738640, Note_on_c, 0, 76, 73
2, 738692, Note_on_c, 0, 76, 0
2, 738720, Note_on_c, 0, 74, 71
2, 738772, Note_on_c, 0, 74, 0
2, 738800, Note_on_c, 0, 81, 74
2, 738880, Note_on_c, 0, 81, 0
2, 738880, Note_on_c, 0, 80, 72
2, 738960, Note_on_c, 0, 80, 0
2, 738960, Note_on_c, 0, 81, 70
2, 739012, Note_on_c, 0, 81, 0
2, 739040, Note_on_c, 0, 78, 69
2, 739092, Note_on_c, 0, 78, 0
2, 739120, Note_on_c, 0, 74, 67
2, 739172, Note_on_c, 0, 74, 0
2, 739200, Note_on_c, 0, 73, 65
2, 739252, Note_on_c, 0, 73, 0
2, 739280, Note_on_c, 0, 79, 72
2, 739360, Note_on_c, 0, 79, 0
2, 739360, Note_on_c, 0, 78, 70
2, 739440, Note_on_c, 0, 78, 0
2, 739440, Note_on_c, 0, 79, 67
2, 739492, Note_on_c, 0, 79, 0
2, 739520, Note_on_c, 0, 76, 65
2, 739572, Note_on_c, 0, 76, 0
2, 739600, Note_on_c, 0, 73, 63
2, 739652, Note_on_c, 0, 73, 0
2, 739680, Note_on_c, 0, 74, 61
2, 739732, Note_on_c, 0, 74, 0
2, 739760, Note_on_c, 0, 69, 62
2, 739812, Note_on_c, 0, 69, 0
2, 739840, Note_on_c, 0, 78, 61
2, 739892, Note_on_c, 0, 78, 0
2, 739920, Note_on_c, 0, 74, 61
2, 739972, Note_on_c, 0, 74, 0
2, 740000, Note_on_c, 0, 69, 60
2, 740052, Note_on_c, 0, 69, 0
2, 740080, Note_on_c, 0, 78, 58
2, 740132, Note_on_c, 0, 78, 0
2, 740160, Note_on_c, 0, 74, 56
2, 740238, Note_on_c, 0, 74, 0
2, 740400, Note_on_c, 0, 57, 61
2, 740640, Note_on_c, 0, 57, 0
2, 740640, Note_on_c, 0, 62, 61
2, 741120, Note_on_c, 0, 62, 0
2, 741120, Note_on_c, 0, 69, 65
2, 741600, Note_on_c, 0, 69, 0
2, 741600, Note_on_c, 0, 67, 72
2, 741840, Note_on_c, 0, 67, 0
2, 741840, Note_on_c, 0, 65, 68
2, 742020, Note_on_c, 0, 65, 0
2, 742020, Note_on_c, 0, 64, 64
2, 742080, Note_on_c, 0, 64, 0
2, 742080, Note_on_c, 0, 62, 64
2, 742207, Note_on_c, 0, 62, 0
2, 742320, Note_on_c, 0, 74, 67
2, 742560, Note_on_c, 0, 74, 0
2, 742560, Note_on_c, 0, 74, 70
2, 742800, Note_on_c, 0, 74, 0
2, 742800, Note_on_c, 0, 74, 73
2, 743040, Note_on_c, 0, 74, 0
2, 743040, Note_on_c, 0, 74, 76
2, 743280, Note_on_c, 0, 74, 0
2, 743280, Note_on_c, 0, 74, 78
2, 743520, Note_on_c, 0, 74, 0
2, 743520, Note_on_c, 0, 74, 73
2, 744000, Note_on_c, 0, 74, 0
2, 744000, Note_on_c, 0, 73, 60
2, 744240, Note_on_c, 0, 73, 0
2, 744480, Note_on_c, 0, 65, 62
2, 744960, Note_on_c, 0, 65, 0
2, 744960, Note_on_c, 0, 72, 65
2, 745440, Note_on_c, 0, 72, 0
2, 745440, Note_on_c, 0, 70, 70
2, 745680, Note_on_c, 0, 70, 0
2, 745680, Note_on_c, 0, 69, 67
2, 745860, Note_on_c, 0, 69, 0
2, 745860, Note_on_c, 0, 68, 64
2, 745920, Note_on_c, 0, 68, 0
2, 745920, Note_on_c, 0, 69, 63
2, 746040, Note_on_c, 0, 69, 0
2, 746160, Note_on_c, 0, 71, 61
2, 746400, Note_on_c, 0, 71, 0
2, 746400, Note_on_c, 0, 72, 65
2, 746880, Note_on_c, 0, 72, 0
2, 746880, Note_on_c, 0, 68, 72
2, 747360, Note_on_c, 0, 68, 0
2, 747360, Note_on_c, 0, 69, 68
2, 747540, Note_on_c, 0, 69, 0
2, 748080, Note_on_c, 0, 61, 63
2, 748320, Note_on_c, 0, 61, 0
2, 748320, Note_on_c, 0, 62, 61
2, 748380, Note_on_c, 0, 62, 0
2, 748380, Note_on_c, 0, 65, 61
2, 748440, Note_on_c, 0, 65, 0
2, 748440, Note_on_c, 0, 69, 61
2, 748500, Note_on_c, 0, 69, 0
2, 748500, Note_on_c, 0, 73, 61
2, 748560, Note_on_c, 0, 73, 0
2, 748560, Note_on_c, 0, 74, 62
2, 748620, Note_on_c, 0, 74, 0
2, 748620, Note_on_c, 0, 76, 62
2, 748680, Note_on_c, 0, 76, 0
2, 748680, Note_on_c, 0, 77, 62
2, 748740, Note_on_c, 0, 77, 0
2, 748740, Note_on_c, 0, 79, 62
2, 748800, Note_on_c, 0, 79, 0
2, 748800, Note_on_c, 0, 80, 63
2, 748860, Note_on_c, 0, 80, 0
2, 748860, Note_on_c, 0, 81, 63
2, 748920, Note_on_c, 0, 81, 0
2, 748920, Note_on_c, 0, 80, 63
2, 748980, Note_on_c, 0, 80, 0
2, 748980, Note_on_c, 0, 81, 63
2, 749040, Note_on_c, 0, 81, 0
2, 749040, Note_on_c, 0, 80, 64
2, 749100, Note_on_c, 0, 80, 0
2, 749100, Note_on_c, 0, 81, 64
2, 749160, Note_on_c, 0, 81, 0
2, 749160, Note_on_c, 0, 82, 64
2, 749220, Note_on_c, 0, 82, 0
2, 749220, Note_on_c, 0, 81, 64
2, 749280, Note_on_c, 0, 81, 0
2, 749280, Note_on_c, 0, 79, 64
2, 749340, Note_on_c, 0, 79, 0
2, 749340, Note_on_c, 0, 77, 65
2, 749400, Note_on_c, 0, 77, 0
2, 749400, Note_on_c, 0, 76, 65
2, 749460, Note_on_c, 0, 76, 0
2, 749460, Note_on_c, 0, 74, 65
2, 749520, Note_on_c, 0, 74, 0
2, 749520, Note_on_c, 0, 73, 65
2, 749580, Note_on_c, 0, 73, 0
2, 749580, Note_on_c, 0, 74, 66
2, 749640, Note_on_c, 0, 74, 0
2, 749640, Note_on_c, 0, 73, 66
2, 749700, Note_on_c, 0, 73, 0
2, 749700, Note_on_c, 0, 74, 66
2, 749760, Note_on_c, 0, 74, 0
2, 749760, Note_on_c, 0, 73, 66
2, 749820, Note_on_c, 0, 73, 0
2, 749820, Note_on_c, 0, 74, 67
2, 749880, Note_on_c, 0, 74, 0
2, 749880, Note_on_c, 0, 76, 67
2, 749940, Note_on_c, 0, 76, 0
2, 749940, Note_on_c, 0, 74, 67
2, 750000, Note_on_c, 0, 74, 0
2, 750000, Note_on_c, 0, 69, 67
2, 750060, Note_on_c, 0, 74, 68
2, 750120, Note_on_c, 0, 74, 0
2, 750120, Note_on_c, 0, 76, 68
2, 750180, Note_on_c, 0, 76, 0
2, 750180, Note_on_c, 0, 74, 68
2, 750240, Note_on_c, 0, 74, 0
2, 750240, Note_on_c, 0, 69, 0
2, 750240, Note_on_c, 0, 67, 68
2, 750300, Note_on_c, 0, 74, 68
2, 750360, Note_on_c, 0, 74, 0
2, 750360, Note_on_c, 0, 76, 69
2, 750420, Note_on_c, 0, 76, 0
2, 750420, Note_on_c, 0, 74, 70
2, 750480, Note_on_c, 0, 74, 0
2, 750480, Note_on_c, 0, 67, 0
2, 750480, Note_on_c, 0, 69, 71
2, 750540, Note_on_c, 0, 74, 72
2, 750600, Note_on_c, 0, 74, 0
2, 750600, Note_on_c, 0, 76, 73
2, 750660, Note_on_c, 0, 76, 0
2, 750660, Note_on_c, 0, 74, 74
2, 750720, Note_on_c, 0, 74, 0
2, 750720, Note_on_c, 0, 69, 0
2, 750720, Note_on_c, 0, 70, 75
2, 750780, Note_on_c, 0, 74, 76
2, 750840, Note_on_c, 0, 74, 0
2, 750840, Note_on_c, 0, 76, 77
2, 750900, Note_on_c, 0, 76, 0
2, 750900, Note_on_c, 0, 74, 78
2, 750960, Note_on_c, 0, 74, 0
2, 750960, Note_on_c, 0, 70, 0
2, 750960, Note_on_c, 0, 71, 79
2, 751020, Note_on_c, 0, 74, 80
2, 751080, Note_on_c, 0, 74, 0
2, 751080, Note_on_c, 0, 76, 81
2, 751140, Note_on_c, 0, 76, 0
2, 751140, Note_on_c, 0, 74, 82
2, 751200, Note_on_c, 0, 74, 0
2, 751200, Note_on_c, 0, 71, 0
2, 751200, Note_on_c, 0, 69, 80
2, 751260, Note_on_c, 0, 73, 79
2, 751320, Note_on_c, 0, 73, 0
2, 751320, Note_on_c, 0, 74, 78
2, 751380, Note_on_c, 0, 74, 0
2, 751380, Note_on_c, 0, 73, 77
2, 751440, Note_on_c, 0, 73, 0
2, 751440, Note_on_c, 0, 69, 0
2, 751440, Note_on_c, 0, 74, 76
2, 751500, Note_on_c, 0, 74, 0
2, 751500, Note_on_c, 0, 77, 75
2, 751560, Note_on_c, 0, 77, 0
2, 751560, Note_on_c, 0, 76, 74
2, 751620, Note_on_c, 0, 76, 0
2, 751620, Note_on_c, 0, 74, 73
2, 751680, Note_on_c, 0, 74, 0
2, 751680, Note_on_c, 0, 73, 72
2, 751740, Note_on_c, 0, 73, 0
2, 751740, Note_on_c, 0, 72, 70
2, 751800, Note_on_c, 0, 72, 0
2, 751800, Note_on_c, 0, 74, 69
2, 751860, Note_on_c, 0, 74, 0
2, 751860, Note_on_c, 0, 72, 68
2, 751920, Note_on_c, 0, 72, 0
2, 751920, Note_on_c, 0, 71, 67
2, 751980, Note_on_c, 0, 71, 0
2, 751980, Note_on_c, 0, 72, 66
2, 752040, Note_on_c, 0, 72, 0
2, 752040, Note_on_c, 0, 74, 65
2, 752100, Note_on_c, 0, 74, 0
2, 752100, Note_on_c, 0, 76, 64
2, 752160, Note_on_c, 0, 76, 0
2, 752160, Note_on_c, 0, 77, 63
2, 752220, Note_on_c, 0, 77, 0
2, 752220, Note_on_c, 0, 65, 59
2, 752280, Note_on_c, 0, 65, 0
2, 752280, Note_on_c, 0, 69, 59
2, 752340, Note_on_c, 0, 69, 0
2, 752340, Note_on_c, 0, 72, 60
2, 752400, Note_on_c, 0, 72, 0
2, 752400, Note_on_c, 0, 77, 60
2, 752460, Note_on_c, 0, 77, 0
2, 752460, Note_on_c, 0, 79, 60
2, 752520, Note_on_c, 0, 79, 0
2, 752520, Note_on_c, 0, 81, 61
2, 752580, Note_on_c, 0, 81, 0
2, 752580, Note_on_c, 0, 82, 61
2, 752640, Note_on_c, 0, 82, 0
2, 752640, Note_on_c, 0, 83, 62
2, 752700, Note_on_c, 0, 83, 0
2, 752700, Note_on_c, 0, 84, 62
2, 752760, Note_on_c, 0, 84, 0
2, 752760, Note_on_c, 0, 83, 63
2, 752820, Note_on_c, 0, 83, 0
2, 752820, Note_on_c, 0, 84, 63
2, 752880, Note_on_c, 0, 84, 0
2, 752880, Note_on_c, 0, 83, 64
2, 752940, Note_on_c, 0, 83, 0
2, 752940, Note_on_c, 0, 84, 64
2, 753000, Note_on_c, 0, 84, 0
2, 753000, Note_on_c, 0, 86, 64
2, 753060, Note_on_c, 0, 86, 0
2, 753060, Note_on_c, 0, 84, 65
2, 753120, Note_on_c, 0, 84, 0
2, 753120, Note_on_c, 0, 82, 65
2, 753180, Note_on_c, 0, 82, 0
2, 753180, Note_on_c, 0, 81, 66
2, 753240, Note_on_c, 0, 81, 0
2, 753240, Note_on_c, 0, 80, 66
2, 753300, Note_on_c, 0, 80, 0
2, 753300, Note_on_c, 0, 81, 67
2, 753360, Note_on_c, 0, 81, 0
2, 753360, Note_on_c, 0, 80, 67
2, 753420, Note_on_c, 0, 80, 0
2, 753420, Note_on_c, 0, 81, 68
2, 753480, Note_on_c, 0, 81, 0
2, 753480, Note_on_c, 0, 82, 68
2, 753540, Note_on_c, 0, 82, 0
2, 753540, Note_on_c, 0, 81, 68
2, 753600, Note_on_c, 0, 81, 0
2, 753600, Note_on_c, 0, 69, 69
2, 753660, Note_on_c, 0, 81, 69
2, 753720, Note_on_c, 0, 81, 0
2, 753720, Note_on_c, 0, 69, 0
2, 753720, Note_on_c, 0, 80, 70
2, 753780, Note_on_c, 0, 80, 0
2, 753780, Note_on_c, 0, 81, 70
2, 753840, Note_on_c, 0, 81, 0
2, 753840, Note_on_c, 0, 71, 71
2, 753900, Note_on_c, 0, 83, 71
2, 753960, Note_on_c, 0, 83, 0
2, 753960, Note_on_c, 0, 71, 0
2, 753960, Note_on_c, 0, 81, 72
2, 754020, Note_on_c, 0, 81, 0
2, 754020, Note_on_c, 0, 83, 72
2, 754080, Note_on_c, 0, 83, 0
2, 754080, Note_on_c, 0, 72, 73
2, 754140, Note_on_c, 0, 84, 74
2, 754200, Note_on_c, 0, 84, 0
2, 754200, Note_on_c, 0, 83, 75
2, 754207, Note_on_c, 0, 72, 0
2, 754260, Note_on_c, 0, 83, 0
2, 754260, Note_on_c, 0, 84, 76
2, 754320, Note_on_c, 0, 84, 0
2, 754320, Note_on_c, 0, 88, 77
2, 754380, Note_on_c, 0, 88, 0
2, 754380, Note_on_c, 0, 84, 78
2, 754440, Note_on_c, 0, 84, 0
2, 754440, Note_on_c, 0, 83, 79
2, 754500, Note_on_c, 0, 83, 0
2, 754500, Note_on_c, 0, 81, 80
2, 754560, Note_on_c, 0, 81, 0
2, 754560, Note_on_c, 0, 80, 81
2, 754620, Note_on_c, 0, 80, 0
2, 754620, Note_on_c, 0, 77, 82
2, 754680, Note_on_c, 0, 77, 0
2, 754680, Note_on_c, 0, 76, 82
2, 754740, Note_on_c, 0, 76, 0
2, 754740, Note_on_c, 0, 74, 83
2, 754800, Note_on_c, 0, 74, 0
2, 754800, Note_on_c, 0, 72, 84
2, 754860, Note_on_c, 0, 72, 0
2, 754860, Note_on_c, 0, 71, 85
2, 754920, Note_on_c, 0, 71, 0
2, 754920, Note_on_c, 0, 69, 85
2, 754980, Note_on_c, 0, 69, 0
2, 754980, Note_on_c, 0, 68, 85
2, 755040, Note_on_c, 0, 68, 0
2, 755040, Note_on_c, 0, 69, 86
2, 755100, Note_on_c, 0, 69, 0
2, 755160, Note_on_c, 0, 57, 67
2, 755280, Note_on_c, 0, 57, 0
2, 755400, Note_on_c, 0, 58, 73
2, 755520, Note_on_c, 0, 58, 0
2, 755640, Note_on_c, 0, 57, 78
2, 755760, Note_on_c, 0, 57, 0
2, 755880, Note_on_c, 0, 56, 84
2, 756000, Note_on_c, 0, 56, 0
2, 756000, Note_on_c, 0, 76, 63
2, 756480, Note_on_c, 0, 76, 0
2, 756480, Note_on_c, 0, 79, 66
2, 756900, Note_on_c, 0, 77, 62
2, 756907, Note_on_c, 0, 79, 0
2, 756960, Note_on_c, 0, 77, 0
2, 756960, Note_on_c, 0, 77, 62
2, 757200, Note_on_c, 0, 77, 0
2, 757200, Note_on_c, 0, 76, 74
2, 757680, Note_on_c, 0, 76, 0
2, 757680, Note_on_c, 0, 77, 67
2, 757860, Note_on_c, 0, 77, 0
2, 757860, Note_on_c, 0, 74, 64
2, 757920, Note_on_c, 0, 74, 0
2, 757920, Note_on_c, 0, 73, 63
2, 758520, Note_on_c, 0, 73, 0
2, 758520, Note_on_c, 0, 76, 68
2, 758640, Note_on_c, 0, 76, 0
2, 758640, Note_on_c, 0, 79, 71
2, 758820, Note_on_c, 0, 79, 0
2, 758820, Note_on_c, 0, 77, 76
2, 758880, Note_on_c, 0, 77, 0
2, 758880, Note_on_c, 0, 77, 73
2, 759120, Note_on_c, 0, 77, 0
2, 759120, Note_on_c, 0, 76, 80
2, 759600, Note_on_c, 0, 76, 0
2, 759600, Note_on_c, 0, 77, 76
2, 759780, Note_on_c, 0, 77, 0
2, 759780, Note_on_c, 0, 74, 74
2, 759840, Note_on_c, 0, 74, 0
2, 759840, Note_on_c, 0, 73, 73
2, 760020, Note_on_c, 0, 73, 0
2, 760080, Note_on_c, 0, 76, 88
2, 760560, Note_on_c, 0, 76, 0
2, 760560, Note_on_c, 0, 77, 81
2, 760740, Note_on_c, 0, 77, 0
2, 760740, Note_on_c, 0, 74, 78
2, 760800, Note_on_c, 0, 74, 0
2, 760800, Note_on_c, 0, 73, 77
2, 760980, Note_on_c, 0, 73, 0
2, 760980, Note_on_c, 0, 76, 77
2, 761040, Note_on_c, 0, 76, 0
2, 761040, Note_on_c, 0, 77, 90
2, 761220, Note_on_c, 0, 77, 0
2, 761220, Note_on_c, 0, 74, 83
2, 761280, Note_on_c, 0, 74, 0
2, 761280, Note_on_c, 0, 73, 81
2, 761460, Note_on_c, 0, 73, 0
2, 761460, Note_on_c, 0, 76, 79
2, 761520, Note_on_c, 0, 76, 0
2, 761520, Note_on_c, 0, 77, 92
2, 761700, Note_on_c, 0, 77, 0
2, 761700, Note_on_c, 0, 74, 86
2, 761760, Note_on_c, 0, 74, 0
2, 761760, Note_on_c, 0, 73, 84
2, 762240, Note_on_c, 0, 73, 0
2, 762240, Note_on_c, 0, 76, 62
2, 762720, Note_on_c, 0, 76, 0
2, 762720, Note_on_c, 0, 79, 62
2, 763440, Note_on_c, 0, 73, 60
2, 763455, Note_on_c, 0, 79, 0
2, 763680, Note_on_c, 0, 73, 0
2, 763680, Note_on_c, 0, 74, 63
2, 764160, Note_on_c, 0, 74, 0
2, 764160, Note_on_c, 0, 81, 69
2, 764640, Note_on_c, 0, 81, 0
2, 764640, Note_on_c, 0, 79, 75
2, 764880, Note_on_c, 0, 79, 0
2, 764880, Note_on_c, 0, 77, 73
2, 765060, Note_on_c, 0, 77, 0
2, 765060, Note_on_c, 0, 76, 69
2, 765120, Note_on_c, 0, 76, 0
2, 765120, Note_on_c, 0, 74, 68
2, 765240, Note_on_c, 0, 74, 0
2, 765360, Note_on_c, 0, 79, 84
2, 765600, Note_on_c, 0, 79, 0
2, 765600, Note_on_c, 0, 77, 79
2, 765840, Note_on_c, 0, 77, 0
2, 765840, Note_on_c, 0, 76, 74
2, 766020, Note_on_c, 0, 76, 0
2, 766020, Note_on_c, 0, 74, 70
2, 766080, Note_on_c, 0, 74, 0
2, 766080, Note_on_c, 0, 72, 69
2, 766207, Note_on_c, 0, 72, 0
2, 766320, Note_on_c, 0, 81, 90
2, 766560, Note_on_c, 0, 81, 0
2, 766560, Note_on_c, 0, 79, 87
2, 766800, Note_on_c, 0, 79, 0
2, 766800, Note_on_c, 0, 77, 83
2, 766980, Note_on_c, 0, 77, 0
2, 766980, Note_on_c, 0, 76, 81
2, 767040, Note_on_c, 0, 76, 0
2, 767040, Note_on_c, 0, 74, 80
2, 767167, Note_on_c, 0, 74, 0
2, 767280, Note_on_c, 0, 86, 92
2, 767460, Note_on_c, 0, 84, 96
2, 767467, Note_on_c, 0, 86, 0
2, 767520, Note_on_c, 0, 84, 0
2, 767520, Note_on_c, 0, 84, 98
2, 767640, Note_on_c, 0, 84, 0
2, 767640, Note_on_c, 0, 82, 92
2, 767760, Note_on_c, 0, 82, 0
2, 767760, Note_on_c, 0, 81, 92
2, 767880, Note_on_c, 0, 80, 93
2, 767887, Note_on_c, 0, 81, 0
2, 768000, Note_on_c, 0, 80, 0
2, 768000, Note_on_c, 0, 80, 89
2, 768120, Note_on_c, 0, 80, 0
2, 768120, Note_on_c, 0, 81, 87
2, 768360, Note_on_c, 0, 61, 62
2, 768367, Note_on_c, 0, 81, 0
2, 768480, Note_on_c, 0, 61, 0
2, 768480, Note_on_c, 0, 64, 68
2, 768960, Note_on_c, 0, 64, 0
2, 768960, Note_on_c, 0, 62, 58
2, 769200, Note_on_c, 0, 62, 0
2, 769440, Note_on_c, 0, 76, 63
2, 769920, Note_on_c, 0, 76, 0
2, 769920, Note_on_c, 0, 79, 72
2, 770340, Note_on_c, 0, 77, 66
2, 770347, Note_on_c, 0, 79, 0
2, 770400, Note_on_c, 0, 77, 0
2, 770400, Note_on_c, 0, 77, 63
2, 770640, Note_on_c, 0, 77, 0
2, 770640, Note_on_c, 0, 76, 73
2, 770925, Note_on_c, 0, 76, 0
2, 770940, Note_on_c, 0, 76, 65
2, 771000, Note_on_c, 0, 76, 0
2, 771000, Note_on_c, 0, 77, 66
2, 771060, Note_on_c, 0, 77, 0
2, 771060, Note_on_c, 0, 76, 67
2, 771120, Note_on_c, 0, 76, 0
2, 771120, Note_on_c, 0, 79, 68
2, 771180, Note_on_c, 0, 79, 0
2, 771180, Note_on_c, 0, 77, 69
2, 771240, Note_on_c, 0, 77, 0
2, 771240, Note_on_c, 0, 76, 70
2, 771300, Note_on_c, 0, 76, 0
2, 771300, Note_on_c, 0, 74, 71
2, 771360, Note_on_c, 0, 74, 0
2, 771360, Note_on_c, 0, 73, 71
2, 771420, Note_on_c, 0, 73, 0
2, 771420, Note_on_c, 0, 75, 73
2, 771480, Note_on_c, 0, 75, 0
2, 771480, Note_on_c, 0, 76, 74
2, 771540, Note_on_c, 0, 76, 0
2, 771540, Note_on_c, 0, 75, 75
2, 771600, Note_on_c, 0, 75, 0
2, 771600, Note_on_c, 0, 76, 76
2, 771660, Note_on_c, 0, 76, 0
2, 771660, Note_on_c, 0, 78, 77
2, 771720, Note_on_c, 0, 78, 0
2, 771720, Note_on_c, 0, 79, 79
2, 771780, Note_on_c, 0, 79, 0
2, 771780, Note_on_c, 0, 78, 80
2, 771840, Note_on_c, 0, 78, 0
2, 771840, Note_on_c, 0, 79, 81
2, 771900, Note_on_c, 0, 79, 0
2, 771900, Note_on_c, 0, 81, 82
2, 771960, Note_on_c, 0, 81, 0
2, 771960, Note_on_c, 0, 82, 83
2, 772020, Note_on_c, 0, 82, 0
2, 772020, Note_on_c, 0, 81, 84
2, 772080, Note_on_c, 0, 81, 0
2, 772080, Note_on_c, 0, 82, 86
2, 772140, Note_on_c, 0, 82, 0
2, 772140, Note_on_c, 0, 81, 84
2, 772200, Note_on_c, 0, 81, 0
2, 772200, Note_on_c, 0, 79, 81
2, 772260, Note_on_c, 0, 79, 0
2, 772260, Note_on_c, 0, 77, 77
2, 772320, Note_on_c, 0, 77, 0
2, 772320, Note_on_c, 0, 77, 73
2, 772380, Note_on_c, 0, 77, 0
2, 772380, Note_on_c, 0, 76, 73
2, 772440, Note_on_c, 0, 76, 0
2, 772440, Note_on_c, 0, 75, 73
2, 772500, Note_on_c, 0, 75, 0
2, 772500, Note_on_c, 0, 76, 75
2, 772560, Note_on_c, 0, 76, 0
2, 772560, Note_on_c, 0, 75, 80
2, 772620, Note_on_c, 0, 75, 0
2, 772620, Note_on_c, 0, 76, 74
2, 772680, Note_on_c, 0, 76, 0
2, 772680, Note_on_c, 0, 75, 74
2, 772740, Note_on_c, 0, 75, 0
2, 772740, Note_on_c, 0, 76, 75
2, 772800, Note_on_c, 0, 76, 0
2, 772800, Note_on_c, 0, 75, 75
2, 772860, Note_on_c, 0, 75, 0
2, 772860, Note_on_c, 0, 76, 75
2, 772920, Note_on_c, 0, 76, 0
2, 772920, Note_on_c, 0, 77, 76
2, 772980, Note_on_c, 0, 77, 0
2, 772980, Note_on_c, 0, 76, 76
2, 773040, Note_on_c, 0, 76, 0
2, 773040, Note_on_c, 0, 79, 83
2, 773100, Note_on_c, 0, 79, 0
2, 773100, Note_on_c, 0, 77, 76
2, 773160, Note_on_c, 0, 77, 0
2, 773160, Note_on_c, 0, 76, 77
2, 773220, Note_on_c, 0, 76, 0
2, 773220, Note_on_c, 0, 74, 77
2, 773280, Note_on_c, 0, 74, 0
2, 773280, Note_on_c, 0, 73, 77
2, 773340, Note_on_c, 0, 73, 0
2, 773340, Note_on_c, 0, 76, 78
2, 773400, Note_on_c, 0, 76, 0
2, 773400, Note_on_c, 0, 75, 78
2, 773460, Note_on_c, 0, 75, 0
2, 773460, Note_on_c, 0, 76, 78
2, 773520, Note_on_c, 0, 76, 0
2, 773520, Note_on_c, 0, 75, 88
2, 773580, Note_on_c, 0, 75, 0
2, 773580, Note_on_c, 0, 76, 79
2, 773640, Note_on_c, 0, 76, 0
2, 773640, Note_on_c, 0, 75, 79
2, 773700, Note_on_c, 0, 75, 0
2, 773700, Note_on_c, 0, 76, 79
2, 773760, Note_on_c, 0, 76, 0
2, 773760, Note_on_c, 0, 75, 80
2, 773820, Note_on_c, 0, 75, 0
2, 773820, Note_on_c, 0, 76, 80
2, 773880, Note_on_c, 0, 76, 0
2, 773880, Note_on_c, 0, 77, 80
2, 773940, Note_on_c, 0, 77, 0
2, 773940, Note_on_c, 0, 76, 80
2, 774000, Note_on_c, 0, 76, 0
2, 774000, Note_on_c, 0, 79, 86
2, 774060, Note_on_c, 0, 79, 0
2, 774060, Note_on_c, 0, 77, 80
2, 774120, Note_on_c, 0, 77, 0
2, 774120, Note_on_c, 0, 76, 81
2, 774180, Note_on_c, 0, 76, 0
2, 774180, Note_on_c, 0, 74, 82
2, 774240, Note_on_c, 0, 74, 0
2, 774240, Note_on_c, 0, 73, 82
2, 774300, Note_on_c, 0, 73, 0
2, 774300, Note_on_c, 0, 76, 82
2, 774360, Note_on_c, 0, 76, 0
2, 774360, Note_on_c, 0, 77, 82
2, 774420, Note_on_c, 0, 77, 0
2, 774420, Note_on_c, 0, 76, 83
2, 774480, Note_on_c, 0, 76, 0
2, 774480, Note_on_c, 0, 79, 90
2, 774540, Note_on_c, 0, 79, 0
2, 774540, Note_on_c, 0, 77, 83
2, 774600, Note_on_c, 0, 77, 0
2, 774600, Note_on_c, 0, 76, 84
2, 774660, Note_on_c, 0, 76, 0
2, 774660, Note_on_c, 0, 74, 84
2, 774720, Note_on_c, 0, 74, 0
2, 774720, Note_on_c, 0, 73, 84
2, 774780, Note_on_c, 0, 73, 0
2, 774780, Note_on_c, 0, 76, 84
2, 774840, Note_on_c, 0, 76, 0
2, 774840, Note_on_c, 0, 77, 85
2, 774900, Note_on_c, 0, 77, 0
2, 774900, Note_on_c, 0, 76, 85
2, 774960, Note_on_c, 0, 76, 0
2, 774960, Note_on_c, 0, 79, 93
2, 775020, Note_on_c, 0, 79, 0
2, 775020, Note_on_c, 0, 77, 86
2, 775080, Note_on_c, 0, 77, 0
2, 775080, Note_on_c, 0, 76, 86
2, 775140, Note_on_c, 0, 76, 0
2, 775140, Note_on_c, 0, 74, 86
2, 775200, Note_on_c, 0, 74, 0
2, 775200, Note_on_c, 0, 73, 85
2, 775260, Note_on_c, 0, 73, 0
2, 775260, Note_on_c, 0, 75, 86
2, 775320, Note_on_c, 0, 75, 0
2, 775320, Note_on_c, 0, 76, 87
2, 775380, Note_on_c, 0, 76, 0
2, 775380, Note_on_c, 0, 75, 88
2, 775440, Note_on_c, 0, 75, 0
2, 775440, Note_on_c, 0, 76, 89
2, 775500, Note_on_c, 0, 76, 0
2, 775500, Note_on_c, 0, 78, 90
2, 775560, Note_on_c, 0, 78, 0
2, 775560, Note_on_c, 0, 79, 90
2, 775620, Note_on_c, 0, 79, 0
2, 775620, Note_on_c, 0, 78, 91
2, 775680, Note_on_c, 0, 78, 0
2, 775680, Note_on_c, 0, 79, 92
2, 775740, Note_on_c, 0, 79, 0
2, 775740, Note_on_c, 0, 81, 93
2, 775800, Note_on_c, 0, 81, 0
2, 775800, Note_on_c, 0, 82, 94
2, 775860, Note_on_c, 0, 82, 0
2, 775860, Note_on_c, 0, 81, 96
2, 775920, Note_on_c, 0, 81, 0
2, 775920, Note_on_c, 0, 84, 96
2, 775980, Note_on_c, 0, 84, 0
2, 775980, Note_on_c, 0, 82, 96
2, 776040, Note_on_c, 0, 82, 0
2, 776040, Note_on_c, 0, 81, 95
2, 776100, Note_on_c, 0, 81, 0
2, 776100, Note_on_c, 0, 79, 94
2, 776160, Note_on_c, 0, 79, 0
2, 776160, Note_on_c, 0, 77, 93
2, 776220, Note_on_c, 0, 77, 0
2, 776220, Note_on_c, 0, 76, 92
2, 776280, Note_on_c, 0, 76, 0
2, 776280, Note_on_c, 0, 74, 91
2, 776340, Note_on_c, 0, 74, 0
2, 776340, Note_on_c, 0, 73, 89
2, 776400, Note_on_c, 0, 73, 0
2, 776400, Note_on_c, 0, 70, 88
2, 776460, Note_on_c, 0, 70, 0
2, 776460, Note_on_c, 0, 69, 87
2, 776520, Note_on_c, 0, 69, 0
2, 776520, Note_on_c, 0, 67, 86
2, 776580, Note_on_c, 0, 67, 0
2, 776580, Note_on_c, 0, 65, 85
2, 776640, Note_on_c, 0, 65, 0
2, 776640, Note_on_c, 0, 64, 84
2, 776700, Note_on_c, 0, 64, 0
2, 776700, Note_on_c, 0, 62, 83
2, 776760, Note_on_c, 0, 62, 0
2, 776760, Note_on_c, 0, 61, 82
2, 776820, Note_on_c, 0, 61, 0
2, 776820, Note_on_c, 0, 58, 80
2, 776880, Note_on_c, 0, 58, 0
2, 776880, Note_on_c, 0, 57, 79
2, 776940, Note_on_c, 0, 57, 0
2, 776940, Note_on_c, 0, 55, 78
2, 777000, Note_on_c, 0, 55, 0
2, 777000, Note_on_c, 0, 53, 77
2, 777060, Note_on_c, 0, 53, 0
2, 777060, Note_on_c, 0, 52, 76
2, 777120, Note_on_c, 0, 52, 0
2, 777120, Note_on_c, 0, 50, 75
2, 777180, Note_on_c, 0, 62, 79
2, 777240, Note_on_c, 0, 62, 0
2, 777240, Note_on_c, 0, 50, 0
2, 777240, Note_on_c, 0, 65, 79
2, 777300, Note_on_c, 0, 65, 0
2, 777300, Note_on_c, 0, 69, 79
2, 777360, Note_on_c, 0, 69, 0
2, 777360, Note_on_c, 0, 74, 80
2, 777420, Note_on_c, 0, 74, 0
2, 777420, Note_on_c, 0, 76, 80
2, 777480, Note_on_c, 0, 76, 0
2, 777480, Note_on_c, 0, 77, 80
2, 777540, Note_on_c, 0, 77, 0
2, 777540, Note_on_c, 0, 79, 81
2, 777600, Note_on_c, 0, 79, 0
2, 777600, Note_on_c, 0, 80, 81
2, 777660, Note_on_c, 0, 80, 0
2, 777660, Note_on_c, 0, 81, 81
2, 777720, Note_on_c, 0, 81, 0
2, 777720, Note_on_c, 0, 80, 81
2, 777780, Note_on_c, 0, 80, 0
2, 777780, Note_on_c, 0, 81, 82
2, 777840, Note_on_c, 0, 81, 0
2, 777840, Note_on_c, 0, 80, 82
2, 777900, Note_on_c, 0, 80, 0
2, 777900, Note_on_c, 0, 81, 92
2, 777960, Note_on_c, 0, 81, 0
2, 777960, Note_on_c, 0, 82, 83
2, 778020, Note_on_c, 0, 82, 0
2, 778020, Note_on_c, 0, 81, 83
2, 778080, Note_on_c, 0, 81, 0
2, 778080, Note_on_c, 0, 79, 83
2, 778140, Note_on_c, 0, 79, 0
2, 778140, Note_on_c, 0, 77, 83
2, 778200, Note_on_c, 0, 77, 0
2, 778200, Note_on_c, 0, 81, 84
2, 778260, Note_on_c, 0, 81, 0
2, 778260, Note_on_c, 0, 79, 84
2, 778320, Note_on_c, 0, 79, 0
2, 778320, Note_on_c, 0, 77, 84
2, 778380, Note_on_c, 0, 77, 0
2, 778380, Note_on_c, 0, 79, 85
2, 778440, Note_on_c, 0, 79, 0
2, 778440, Note_on_c, 0, 76, 85
2, 778500, Note_on_c, 0, 76, 0
2, 778500, Note_on_c, 0, 77, 85
2, 778560, Note_on_c, 0, 77, 0
2, 778560, Note_on_c, 0, 74, 86
2, 778620, Note_on_c, 0, 74, 0
2, 778620, Note_on_c, 0, 76, 86
2, 778680, Note_on_c, 0, 76, 0
2, 778680, Note_on_c, 0, 77, 86
2, 778740, Note_on_c, 0, 77, 0
2, 778740, Note_on_c, 0, 78, 86
2, 778800, Note_on_c, 0, 78, 0
2, 778800, Note_on_c, 0, 79, 95
2, 778860, Note_on_c, 0, 79, 0
2, 778860, Note_on_c, 0, 78, 87
2, 778920, Note_on_c, 0, 78, 0
2, 778920, Note_on_c, 0, 81, 87
2, 778980, Note_on_c, 0, 81, 0
2, 778980, Note_on_c, 0, 79, 88
2, 779040, Note_on_c, 0, 79, 0
2, 779040, Note_on_c, 0, 77, 88
2, 779100, Note_on_c, 0, 77, 0
2, 779100, Note_on_c, 0, 76, 88
2, 779160, Note_on_c, 0, 76, 0
2, 779160, Note_on_c, 0, 79, 88
2, 779220, Note_on_c, 0, 79, 0
2, 779220, Note_on_c, 0, 77, 89
2, 779280, Note_on_c, 0, 77, 0
2, 779280, Note_on_c, 0, 76, 89
2, 779340, Note_on_c, 0, 76, 0
2, 779340, Note_on_c, 0, 77, 89
2, 779400, Note_on_c, 0, 77, 0
2, 779400, Note_on_c, 0, 74, 90
2, 779460, Note_on_c, 0, 74, 0
2, 779460, Note_on_c, 0, 76, 90
2, 779520, Note_on_c, 0, 76, 0
2, 779520, Note_on_c, 0, 72, 90
2, 779580, Note_on_c, 0, 72, 0
2, 779580, Note_on_c, 0, 76, 90
2, 779640, Note_on_c, 0, 76, 0
2, 779640, Note_on_c, 0, 77, 91
2, 779700, Note_on_c, 0, 77, 0
2, 779700, Note_on_c, 0, 79, 91
2, 779760, Note_on_c, 0, 79, 0
2, 779760, Note_on_c, 0, 81, 91
2, 779820, Note_on_c, 0, 81, 0
2, 779820, Note_on_c, 0, 80, 92
2, 779880, Note_on_c, 0, 80, 0
2, 779880, Note_on_c, 0, 82, 92
2, 779940, Note_on_c, 0, 82, 0
2, 779940, Note_on_c, 0, 81, 92
2, 780000, Note_on_c, 0, 81, 0
2, 780000, Note_on_c, 0, 79, 92
2, 780060, Note_on_c, 0, 79, 0
2, 780060, Note_on_c, 0, 77, 93
2, 780120, Note_on_c, 0, 77, 0
2, 780120, Note_on_c, 0, 81, 93
2, 780180, Note_on_c, 0, 81, 0
2, 780180, Note_on_c, 0, 79, 93
2, 780240, Note_on_c, 0, 79, 0
2, 780240, Note_on_c, 0, 77, 94
2, 780300, Note_on_c, 0, 77, 0
2, 780300, Note_on_c, 0, 79, 94
2, 780360, Note_on_c, 0, 79, 0
2, 780360, Note_on_c, 0, 76, 94
2, 780420, Note_on_c, 0, 76, 0
2, 780420, Note_on_c, 0, 77, 95
2, 780480, Note_on_c, 0, 77, 0
2, 780480, Note_on_c, 0, 74, 95
2, 780540, Note_on_c, 0, 74, 0
2, 780540, Note_on_c, 0, 86, 95
2, 780600, Note_on_c, 0, 86, 0
2, 780600, Note_on_c, 0, 85, 95
2, 780660, Note_on_c, 0, 85, 0
2, 780660, Note_on_c, 0, 86, 96
2, 780720, Note_on_c, 0, 86, 0
2, 780720, Note_on_c, 0, 85, 96
2, 780780, Note_on_c, 0, 85, 0
2, 780780, Note_on_c, 0, 86, 96
2, 780840, Note_on_c, 0, 86, 0
2, 780840, Note_on_c, 0, 88, 97
2, 780900, Note_on_c, 0, 88, 0
2, 780900, Note_on_c, 0, 86, 97
2, 780960, Note_on_c, 0, 86, 0
2, 780960, Note_on_c, 0, 84, 97
2, 781020, Note_on_c, 0, 84, 0
2, 781020, Note_on_c, 0, 82, 97
2, 781080, Note_on_c, 0, 82, 0
2, 781080, Note_on_c, 0, 81, 98
2, 781140, Note_on_c, 0, 81, 0
2, 781140, Note_on_c, 0, 79, 98
2, 781200, Note_on_c, 0, 79, 0
2, 781200, Note_on_c, 0, 77, 98
2, 781260, Note_on_c, 0, 77, 0
2, 781260, Note_on_c, 0, 76, 99
2, 781320, Note_on_c, 0, 76, 0
2, 781320, Note_on_c, 0, 77, 99
2, 781380, Note_on_c, 0, 77, 0
2, 781380, Note_on_c, 0, 79, 99
2, 781440, Note_on_c, 0, 79, 0
2, 781440, Note_on_c, 0, 80, 99
2, 781500, Note_on_c, 0, 80, 0
2, 781500, Note_on_c, 0, 81, 100
2, 781539, Note_on_c, 0, 81, 0
2, 781560, Note_on_c, 0, 74, 100
2, 781599, Note_on_c, 0, 74, 0
2, 781620, Note_on_c, 0, 74, 100
2, 781659, Note_on_c, 0, 74, 0
2, 781680, Note_on_c, 0, 80, 101
2, 781740, Note_on_c, 0, 80, 0
2, 781740, Note_on_c, 0, 81, 101
2, 781779, Note_on_c, 0, 81, 0
2, 781800, Note_on_c, 0, 73, 101
2, 781839, Note_on_c, 0, 73, 0
2, 781860, Note_on_c, 0, 73, 101
2, 781899, Note_on_c, 0, 73, 0
2, 781920, Note_on_c, 0, 80, 103
2, 781980, Note_on_c, 0, 80, 0
2, 781980, Note_on_c, 0, 81, 104
2, 782040, Note_on_c, 0, 81, 0
2, 782040, Note_on_c, 0, 73, 105
2, 782100, Note_on_c, 0, 73, 0
2, 782100, Note_on_c, 0, 81, 106
2, 782160, Note_on_c, 0, 81, 0
2, 782160, Note_on_c, 0, 80, 106
2, 782220, Note_on_c, 0, 80, 0
2, 782220, Note_on_c, 0, 81, 107
2, 782280, Note_on_c, 0, 81, 0
2, 782280, Note_on_c, 0, 73, 108
2, 782340, Note_on_c, 0, 73, 0
2, 782340, Note_on_c, 0, 81, 109
2, 782400, Note_on_c, 0, 81, 0
2, 782400, Note_on_c, 0, 74, 110
2, 782448, Note_on_c, 0, 74, 0
2, 782460, Note_on_c, 0, 70, 112
2, 782520, Note_on_c, 0, 70, 0
2, 782520, Note_on_c, 0, 69, 106
2, 782580, Note_on_c, 0, 69, 0
2, 782580, Note_on_c, 0, 68, 99
2, 782640, Note_on_c, 0, 68, 0
2, 782640, Note_on_c, 0, 69, 92
2, 782700, Note_on_c, 0, 69, 0
2, 782700, Note_on_c, 0, 67, 84
2, 782760, Note_on_c, 0, 67, 0
2, 782760, Note_on_c, 0, 65, 77
2, 782820, Note_on_c, 0, 65, 0
2, 782820, Note_on_c, 0, 64, 70
2, 782880, Note_on_c, 0, 64, 0
2, 782880, Note_on_c, 0, 62, 63
2, 783360, Note_on_c, 0, 62, 0
2, 783360, Note_on_c, 0, 69, 64
2, 783840, Note_on_c, 0, 69, 0
2, 783840, Note_on_c, 0, 67, 64
2, 784080, Note_on_c, 0, 67, 0
2, 784080, Note_on_c, 0, 65, 61
2, 784260, Note_on_c, 0, 65, 0
2, 784260, Note_on_c, 0, 64, 58
2, 784320, Note_on_c, 0, 64, 0
2, 784320, Note_on_c, 0, 62, 58
2, 784447, Note_on_c, 0, 62, 0
2, 784560, Note_on_c, 0, 62, 59
2, 784752, Note_on_c, 0, 62, 0
2, 784800, Note_on_c, 0, 64, 59
2, 784992, Note_on_c, 0, 64, 0
2, 785040, Note_on_c, 0, 64, 63
2, 785232, Note_on_c, 0, 64, 0
2, 785280, Note_on_c, 0, 64, 67
2, 785472, Note_on_c, 0, 64, 0
2, 785520, Note_on_c, 0, 64, 71
2, 785712, Note_on_c, 0, 64, 0
2, 785760, Note_on_c, 0, 64, 64
2, 786607, Note_on_c, 0, 64, 0
2, 786720, Note_on_c, 0, 64, 65
2, 786912, Note_on_c, 0, 64, 0
2, 786960, Note_on_c, 0, 64, 70
2, 787152, Note_on_c, 0, 64, 0
2, 787200, Note_on_c, 0, 64, 75
2, 787392, Note_on_c, 0, 64, 0
2, 787440, Note_on_c, 0, 64, 79
2, 787632, Note_on_c, 0, 64, 0
2, 787680, Note_on_c, 0, 64, 72
2, 788520, Note_on_c, 0, 64, 0
2, 788640, Note_on_c, 0, 64, 64
2, 788757, Note_on_c, 0, 64, 0
2, 788820, Note_on_c, 0, 64, 60
2, 788859, Note_on_c, 0, 64, 0
2, 788880, Note_on_c, 0, 64, 58
2, 789000, Note_on_c, 0, 64, 0
2, 789120, Note_on_c, 0, 73, 60
2, 789172, Note_on_c, 0, 73, 0
2, 789200, Note_on_c, 0, 82, 64
2, 789280, Note_on_c, 0, 82, 0
2, 789280, Note_on_c, 0, 81, 62
2, 789360, Note_on_c, 0, 81, 0
2, 789360, Note_on_c, 0, 82, 60
2, 789412, Note_on_c, 0, 82, 0
2, 789440, Note_on_c, 0, 79, 58
2, 789492, Note_on_c, 0, 79, 0
2, 789520, Note_on_c, 0, 76, 56
2, 789572, Note_on_c, 0, 76, 0
2, 789600, Note_on_c, 0, 65, 74
2, 789717, Note_on_c, 0, 65, 0
2, 789780, Note_on_c, 0, 65, 71
2, 789819, Note_on_c, 0, 65, 0
2, 789840, Note_on_c, 0, 65, 70
2, 789960, Note_on_c, 0, 65, 0
2, 790080, Note_on_c, 0, 77, 74
2, 790132, Note_on_c, 0, 77, 0
2, 790160, Note_on_c, 0, 86, 80
2, 790240, Note_on_c, 0, 86, 0
2, 790240, Note_on_c, 0, 85, 78
2, 790320, Note_on_c, 0, 85, 0
2, 790320, Note_on_c, 0, 86, 76
2, 790372, Note_on_c, 0, 86, 0
2, 790400, Note_on_c, 0, 81, 73
2, 790452, Note_on_c, 0, 81, 0
2, 790480, Note_on_c, 0, 77, 71
2, 790532, Note_on_c, 0, 77, 0
2, 790560, Note_on_c, 0, 67, 92
2, 790677, Note_on_c, 0, 67, 0
2, 790740, Note_on_c, 0, 67, 88
2, 790779, Note_on_c, 0, 67, 0
2, 790800, Note_on_c, 0, 67, 87
2, 790920, Note_on_c, 0, 67, 0
2, 791040, Note_on_c, 0, 79, 90
2, 791092, Note_on_c, 0, 79, 0
2, 791120, Note_on_c, 0, 88, 96
2, 791200, Note_on_c, 0, 88, 0
2, 791200, Note_on_c, 0, 87, 93
2, 791280, Note_on_c, 0, 87, 0
2, 791280, Note_on_c, 0, 88, 90
2, 791332, Note_on_c, 0, 88, 0
2, 791360, Note_on_c, 0, 85, 87
2, 791412, Note_on_c, 0, 85, 0
2, 791440, Note_on_c, 0, 82, 84
2, 791492, Note_on_c, 0, 82, 0
2, 791520, Note_on_c, 0, 79, 81
2, 791572, Note_on_c, 0, 79, 0
2, 791600, Note_on_c, 0, 88, 86
2, 791680, Note_on_c, 0, 88, 0
2, 791680, Note_on_c, 0, 87, 84
2, 791760, Note_on_c, 0, 87, 0
2, 791760, Note_on_c, 0, 88, 82
2, 791812, Note_on_c, 0, 88, 0
2, 791840, Note_on_c, 0, 85, 79
2, 791892, Note_on_c, 0, 85, 0
2, 791920, Note_on_c, 0, 82, 77
2, 791972, Note_on_c, 0, 82, 0
2, 792000, Note_on_c, 0, 79, 75
2, 792052, Note_on_c, 0, 79, 0
2, 792080, Note_on_c, 0, 85, 74
2, 792160, Note_on_c, 0, 85, 0
2, 792160, Note_on_c, 0, 84, 73
2, 792240, Note_on_c, 0, 84, 0
2, 792240, Note_on_c, 0, 85, 72
2, 792292, Note_on_c, 0, 85, 0
2, 792320, Note_on_c, 0, 82, 71
2, 792372, Note_on_c, 0, 82, 0
2, 792400, Note_on_c, 0, 79, 69
2, 792452, Note_on_c, 0, 79, 0
2, 792480, Note_on_c, 0, 76, 71
2, 792532, Note_on_c, 0, 76, 0
2, 792560, Note_on_c, 0, 73, 73
2, 792612, Note_on_c, 0, 73, 0
2, 792640, Note_on_c, 0, 70, 75
2, 792692, Note_on_c, 0, 70, 0
2, 792720, Note_on_c, 0, 67, 77
2, 792772, Note_on_c, 0, 67, 0
2, 792800, Note_on_c, 0, 64, 79
2, 792852, Note_on_c, 0, 64, 0
2, 792880, Note_on_c, 0, 61, 81
2, 792932, Note_on_c, 0, 61, 0
2, 792960, Note_on_c, 0, 58, 85
2, 793038, Note_on_c, 0, 58, 0
2, 793080, Note_on_c, 0, 55, 90
2, 793158, Note_on_c, 0, 55, 0
2, 793200, Note_on_c, 0, 52, 95
2, 793278, Note_on_c, 0, 52, 0
2, 793320, Note_on_c, 0, 49, 101
2, 793398, Note_on_c, 0, 49, 0
2, 793440, Note_on_c, 0, 46, 113
2, 794400, Note_on_c, 0, 46, 0
2, 794400, Note_on_c, 0, 45, 79
2, 794880, Note_on_c, 0, 45, 0
2, 794880, Note_on_c, 0, 55, 70
2, 795365, Note_on_c, 0, 55, 0
2, 795600, Note_on_c, 0, 53, 66
2, 795720, Note_on_c, 0, 53, 0
2, 795720, Note_on_c, 0, 62, 62
2, 795820, Note_on_c, 0, 62, 0
2, 796080, Note_on_c, 0, 62, 64
2, 796200, Note_on_c, 0, 62, 0
2, 796200, Note_on_c, 0, 70, 59
2, 796300, Note_on_c, 0, 70, 0
2, 796560, Note_on_c, 0, 65, 60
2, 796680, Note_on_c, 0, 65, 0
2, 796680, Note_on_c, 0, 69, 56
2, 796780, Note_on_c, 0, 69, 0
2, 797040, Note_on_c, 0, 79, 55
2, 797160, Note_on_c, 0, 79, 0
2, 797160, Note_on_c, 0, 85, 54
2, 797265, Note_on_c, 0, 85, 0
2, 797280, Note_on_c, 0, 85, 53
2, 797520, Note_on_c, 0, 86, 51
2, 797525, Note_on_c, 0, 85, 0
2, 797600, Note_on_c, 0, 86, 0
2, 797600, Note_on_c, 0, 85, 50
2, 797680, Note_on_c, 0, 85, 0
2, 797680, Note_on_c, 0, 83, 50
2, 797760, Note_on_c, 0, 83, 0
2, 797760, Note_on_c, 0, 85, 49
2, 797940, Note_on_c, 0, 85, 0
2, 797940, Note_on_c, 0, 88, 51
2, 798055, Note_on_c, 0, 88, 0
2, 798060, Note_on_c, 0, 88, 58
2, 798300, Note_on_c, 0, 88, 0
2, 798300, Note_on_c, 0, 86, 45
2, 798470, Note_on_c, 0, 86, 0
2, 798480, Note_on_c, 0, 86, 45
2, 799440, Note_on_c, 0, 86, 0
2, 800160, Control_c, 0, 10, 73
2, 800160, Control_c, 0, 91, 91
2, 800160, Control_c, 0, 93, 28
2, 800160, Control_c, 0, 64, 0
2, 800160, Control_c, 0, 1, 0
2, 800160, Pitch_bend_c, 0, 8192
2, 800160, Control_c, 0, 7, 127
2, 800160, Control_c, 0, 0, 0
2, 800160, Control_c, 0, 32, 0
2, 800160, Program_c, 0, 0
2, 800880, Control_c, 0, 64, 127
2, 800880, Note_on_c, 0, 78, 68
2, 802320, Note_on_c, 0, 78, 0
2, 803760, Control_c, 0, 64, 0
2, 803760, Note_on_c, 0, 69, 58
2, 803880, Note_on_c, 0, 69, 0
2, 803880, Note_on_c, 0, 66, 58
2, 803958, Note_on_c, 0, 66, 0
2, 804000, Note_on_c, 0, 62, 58
2, 804120, Note_on_c, 0, 62, 0
2, 804480, Note_on_c, 0, 71, 57
2, 804600, Note_on_c, 0, 71, 0
2, 804600, Note_on_c, 0, 67, 57
2, 804678, Note_on_c, 0, 67, 0
2, 804720, Note_on_c, 0, 64, 57
2, 804840, Note_on_c, 0, 64, 0
2, 805200, Note_on_c, 0, 67, 56
2, 805320, Note_on_c, 0, 67, 0
2, 805320, Note_on_c, 0, 64, 56
2, 805398, Note_on_c, 0, 64, 0
2, 805440, Note_on_c, 0, 61, 56
2, 805560, Note_on_c, 0, 61, 0
2, 805920, Note_on_c, 0, 62, 55
2, 806100, Note_on_c, 0, 62, 0
2, 806160, Note_on_c, 0, 62, 53
2, 806280, Note_on_c, 0, 62, 0
2, 806640, Control_c, 0, 64, 127
2, 806640, Note_on_c, 0, 81, 84
2, 808080, Note_on_c, 0, 81, 0
2, 809520, Control_c, 0, 64, 0
2, 809520, Note_on_c, 0, 76, 75
2, 809640, Note_on_c, 0, 76, 0
2, 809640, Note_on_c, 0, 73, 75
2, 809718, Note_on_c, 0, 73, 0
2, 809760, Note_on_c, 0, 69, 75
2, 809880, Note_on_c, 0, 69, 0
2, 810240, Note_on_c, 0, 78, 74
2, 810360, Note_on_c, 0, 78, 0
2, 810360, Note_on_c, 0, 74, 74
2, 810438, Note_on_c, 0, 74, 0
2, 810480, Note_on_c, 0, 71, 73
2, 810600, Note_on_c, 0, 71, 0
2, 810960, Note_on_c, 0, 74, 73
2, 811080, Note_on_c, 0, 74, 0
2, 811080, Note_on_c, 0, 71, 72
2, 811158, Note_on_c, 0, 71, 0
2, 811200, Note_on_c, 0, 68, 72
2, 811320, Note_on_c, 0, 68, 0
2, 811680, Note_on_c, 0, 69, 71
2, 811860, Note_on_c, 0, 69, 0
2, 811920, Note_on_c, 0, 69, 70
2, 812040, Note_on_c, 0, 69, 0
2, 812400, Control_c, 0, 64, 127
2, 812400, Note_on_c, 0, 78, 102
2, 812400, Note_on_c, 0, 74, 102
2, 813120, Note_on_c, 0, 74, 0
2, 813120, Note_on_c, 0, 78, 0
2, 815280, Control_c, 0, 64, 0
2, 815280, Note_on_c, 0, 69, 90
2, 815400, Note_on_c, 0, 69, 0
2, 815400, Note_on_c, 0, 66, 90
2, 815478, Note_on_c, 0, 66, 0
2, 815520, Note_on_c, 0, 62, 90
2, 815640, Note_on_c, 0, 62, 0
2, 816000, Note_on_c, 0, 71, 89
2, 816120, Note_on_c, 0, 71, 0
2, 816120, Note_on_c, 0, 67, 88
2, 816198, Note_on_c, 0, 67, 0
2, 816240, Note_on_c, 0, 64, 88
2, 816360, Note_on_c, 0, 64, 0
2, 816720, Note_on_c, 0, 67, 87
2, 816840, Note_on_c, 0, 67, 0
2, 816840, Note_on_c, 0, 64, 87
2, 816918, Note_on_c, 0, 64, 0
2, 816960, Note_on_c, 0, 61, 86
2, 817080, Note_on_c, 0, 61, 0
2, 817440, Note_on_c, 0, 62, 85
2, 817440, Note_on_c, 0, 54, 85
2, 817620, Note_on_c, 0, 54, 0
2, 817620, Note_on_c, 0, 62, 0
2, 817680, Note_on_c, 0, 62, 81
2, 817680, Note_on_c, 0, 54, 81
2, 817800, Note_on_c, 0, 54, 0
2, 817800, Note_on_c, 0, 62, 0
2, 818160, Control_c, 0, 64, 127
2, 818160, Note_on_c, 0, 81, 116
2, 819600, Note_on_c, 0, 81, 0
2, 821040, Control_c, 0, 64, 0
2, 821040, Note_on_c, 0, 76, 92
2, 821160, Note_on_c, 0, 76, 0
2, 821160, Note_on_c, 0, 73, 92
2, 821238, Note_on_c, 0, 73, 0
2, 821280, Note_on_c, 0, 69, 92
2, 821400, Note_on_c, 0, 69, 0
2, 821760, Note_on_c, 0, 78, 90
2, 821880, Note_on_c, 0, 78, 0
2, 821880, Note_on_c, 0, 74, 90
2, 821958, Note_on_c, 0, 74, 0
2, 822000, Note_on_c, 0, 71, 89
2, 822120, Note_on_c, 0, 71, 0
2, 822480, Note_on_c, 0, 74, 88
2, 822600, Note_on_c, 0, 74, 0
2, 822600, Note_on_c, 0, 71, 88
2, 822678, Note_on_c, 0, 71, 0
2, 822720, Note_on_c, 0, 68, 87
2, 822840, Note_on_c, 0, 68, 0
2, 823200, Note_on_c, 0, 69, 86
2, 823380, Note_on_c, 0, 69, 0
2, 823440, Note_on_c, 0, 69, 81
2, 823560, Note_on_c, 0, 69, 0
2, 824160, Note_on_c, 0, 74, 50
2, 824160, Note_on_c, 0, 69, 50
2, 824160, Note_on_c, 0, 72, 50
2, 824280, Note_on_c, 0, 72, 0
2, 824280, Note_on_c, 0, 69, 0
2, 824280, Note_on_c, 0, 74, 0
2, 824400, Note_on_c, 0, 74, 51
2, 824400, Note_on_c, 0, 69, 51
2, 824400, Note_on_c, 0, 72, 51
2, 824520, Note_on_c, 0, 72, 0
2, 824520, Note_on_c, 0, 69, 0
2, 824520, Note_on_c, 0, 74, 0
2, 824880, Note_on_c, 0, 74, 53
2, 824880, Note_on_c, 0, 69, 53
2, 824880, Note_on_c, 0, 72, 53
2, 825000, Note_on_c, 0, 72, 0
2, 825000, Note_on_c, 0, 69, 0
2, 825000, Note_on_c, 0, 74, 0
2, 825120, Note_on_c, 0, 74, 54
2, 825120, Note_on_c, 0, 69, 54
2, 825120, Note_on_c, 0, 72, 54
2, 825240, Note_on_c, 0, 72, 0
2, 825240, Note_on_c, 0, 69, 0
2, 825240, Note_on_c, 0, 74, 0
2, 825600, Note_on_c, 0, 70, 56
2, 825600, Note_on_c, 0, 74, 56
2, 825720, Note_on_c, 0, 74, 0
2, 825720, Note_on_c, 0, 70, 0
2, 825840, Note_on_c, 0, 70, 57
2, 825840, Note_on_c, 0, 74, 57
2, 825960, Note_on_c, 0, 74, 0
2, 825960, Note_on_c, 0, 70, 0
2, 826320, Note_on_c, 0, 71, 58
2, 826320, Note_on_c, 0, 74, 58
2, 826440, Note_on_c, 0, 74, 0
2, 826440, Note_on_c, 0, 71, 0
2, 826560, Note_on_c, 0, 71, 59
2, 826560, Note_on_c, 0, 74, 59
2, 826680, Note_on_c, 0, 74, 0
2, 826680, Note_on_c, 0, 71, 0
2, 827040, Note_on_c, 0, 76, 61
2, 827040, Note_on_c, 0, 71, 61
2, 827040, Note_on_c, 0, 74, 61
2, 827160, Note_on_c, 0, 74, 0
2, 827160, Note_on_c, 0, 71, 0
2, 827160, Note_on_c, 0, 76, 0
2, 827280, Note_on_c, 0, 71, 62
2, 827280, Note_on_c, 0, 76, 62
2, 827280, Note_on_c, 0, 74, 62
2, 827400, Note_on_c, 0, 74, 0
2, 827400, Note_on_c, 0, 76, 0
2, 827400, Note_on_c, 0, 71, 0
2, 827760, Note_on_c, 0, 76, 64
2, 827760, Note_on_c, 0, 71, 64
2, 827760, Note_on_c, 0, 74, 64
2, 827880, Note_on_c, 0, 74, 0
2, 827880, Note_on_c, 0, 71, 0
2, 827880, Note_on_c, 0, 76, 0
2, 828000, Note_on_c, 0, 74, 65
2, 828000, Note_on_c, 0, 76, 65
2, 828000, Note_on_c, 0, 71, 65
2, 828120, Note_on_c, 0, 71, 0
2, 828120, Note_on_c, 0, 76, 0
2, 828120, Note_on_c, 0, 74, 0
2, 828480, Note_on_c, 0, 72, 67
2, 828480, Note_on_c, 0, 76, 67
2, 828600, Note_on_c, 0, 76, 0
2, 828600, Note_on_c, 0, 72, 0
2, 828720, Note_on_c, 0, 72, 67
2, 828720, Note_on_c, 0, 76, 67
2, 828840, Note_on_c, 0, 76, 0
2, 828840, Note_on_c, 0, 72, 0
2, 829200, Note_on_c, 0, 73, 69
2, 829200, Note_on_c, 0, 76, 69
2, 829320, Note_on_c, 0, 76, 0
2, 829320, Note_on_c, 0, 73, 0
2, 829440, Note_on_c, 0, 73, 70
2, 829440, Note_on_c, 0, 76, 70
2, 829560, Note_on_c, 0, 76, 0
2, 829560, Note_on_c, 0, 73, 0
2, 829920, Note_on_c, 0, 73, 72
2, 829920, Note_on_c, 0, 76, 72
2, 829920, Note_on_c, 0, 78, 72
2, 830040, Note_on_c, 0, 78, 0
2, 830040, Note_on_c, 0, 76, 0
2, 830040, Note_on_c, 0, 73, 0
2, 830160, Note_on_c, 0, 76, 73
2, 830160, Note_on_c, 0, 78, 73
2, 830160, Note_on_c, 0, 73, 73
2, 830280, Note_on_c, 0, 73, 0
2, 830280, Note_on_c, 0, 78, 0
2, 830280, Note_on_c, 0, 76, 0
2, 830640, Note_on_c, 0, 73, 75
2, 830640, Note_on_c, 0, 78, 75
2, 830640, Note_on_c, 0, 76, 75
2, 830760, Note_on_c, 0, 76, 0
2, 830760, Note_on_c, 0, 78, 0
2, 830760, Note_on_c, 0, 73, 0
2, 830880, Note_on_c, 0, 78, 76
2, 830880, Note_on_c, 0, 73, 76
2, 830880, Note_on_c, 0, 76, 76
2, 831000, Note_on_c, 0, 76, 0
2, 831000, Note_on_c, 0, 73, 0
2, 831000, Note_on_c, 0, 78, 0
2, 831360, Note_on_c, 0, 73, 77
2, 831360, Note_on_c, 0, 78, 77
2, 831480, Note_on_c, 0, 78, 0
2, 831480, Note_on_c, 0, 73, 0
2, 831600, Note_on_c, 0, 78, 78
2, 831600, Note_on_c, 0, 73, 78
2, 831720, Note_on_c, 0, 73, 0
2, 831720, Note_on_c, 0, 78, 0
2, 832080, Note_on_c, 0, 78, 80
2, 832080, Note_on_c, 0, 74, 80
2, 832200, Note_on_c, 0, 74, 0
2, 832200, Note_on_c, 0, 78, 0
2, 832320, Note_on_c, 0, 78, 81
2, 832320, Note_on_c, 0, 74, 81
2, 832440, Note_on_c, 0, 74, 0
2, 832440, Note_on_c, 0, 78, 0
2, 832800, Note_on_c, 0, 79, 83
2, 832800, Note_on_c, 0, 74, 83
2, 832920, Note_on_c, 0, 74, 0
2, 832920, Note_on_c, 0, 79, 0
2, 833040, Note_on_c, 0, 79, 84
2, 833040, Note_on_c, 0, 74, 84
2, 833160, Note_on_c, 0, 74, 0
2, 833160, Note_on_c, 0, 79, 0
2, 833520, Note_on_c, 0, 75, 80
2, 833520, Note_on_c, 0, 79, 80
2, 833640, Note_on_c, 0, 79, 0
2, 833640, Note_on_c, 0, 75, 0
2, 833760, Note_on_c, 0, 75, 77
2, 833760, Note_on_c, 0, 79, 77
2, 833880, Note_on_c, 0, 79, 0
2, 833880, Note_on_c, 0, 75, 0
2, 834240, Note_on_c, 0, 69, 72
2, 834240, Note_on_c, 0, 76, 72
2, 834240, Note_on_c, 0, 79, 72
2, 835320, Note_on_c, 0, 79, 0
2, 835320, Note_on_c, 0, 76, 0
2, 835320, Note_on_c, 0, 69, 0
2, 835440, Control_c, 0, 64, 127
2, 835440, Note_on_c, 0, 74, 74
2, 835440, Note_on_c, 0, 78, 74
2, 836160, Note_on_c, 0, 78, 0
2, 836160, Note_on_c, 0, 74, 0
2, 838320, Control_c, 0, 64, 0
2, 838320, Note_on_c, 0, 69, 61
2, 838440, Note_on_c, 0, 69, 0
2, 838440, Note_on_c, 0, 66, 61
2, 838518, Note_on_c, 0, 66, 0
2, 838560, Note_on_c, 0, 62, 60
2, 838680, Note_on_c, 0, 62, 0
2, 839040, Note_on_c, 0, 71, 59
2, 839160, Note_on_c, 0, 71, 0
2, 839160, Note_on_c, 0, 67, 59
2, 839238, Note_on_c, 0, 67, 0
2, 839280, Note_on_c, 0, 64, 58
2, 839400, Note_on_c, 0, 64, 0
2, 839760, Note_on_c, 0, 67, 57
2, 839880, Note_on_c, 0, 67, 0
2, 839880, Note_on_c, 0, 64, 57
2, 839958, Note_on_c, 0, 64, 0
2, 840000, Note_on_c, 0, 61, 57
2, 840120, Note_on_c, 0, 61, 0
2, 840480, Note_on_c, 0, 54, 55
2, 840480, Note_on_c, 0, 62, 55
2, 840600, Note_on_c, 0, 62, 0
2, 840600, Note_on_c, 0, 54, 0
2, 840720, Note_on_c, 0, 54, 51
2, 840720, Note_on_c, 0, 62, 51
2, 840840, Note_on_c, 0, 62, 0
2, 840840, Note_on_c, 0, 54, 0
2, 841200, Control_c, 0, 64, 127
2, 841200, Note_on_c, 0, 78, 122
2, 841200, Note_on_c, 0, 86, 122
2, 841200, Note_on_c, 0, 81, 122
2, 841920, Note_on_c, 0, 81, 0
2, 841920, Note_on_c, 0, 86, 0
2, 841920, Note_on_c, 0, 78, 0
2, 844080, Control_c, 0, 64, 0
2, 844080, Note_on_c, 0, 81, 79
2, 844200, Note_on_c, 0, 81, 0
2, 844200, Note_on_c, 0, 78, 78
2, 844278, Note_on_c, 0, 78, 0
2, 844320, Note_on_c, 0, 74, 77
2, 844440, Note_on_c, 0, 74, 0
2, 844800, Note_on_c, 0, 83, 75
2, 844920, Note_on_c, 0, 83, 0
2, 844920, Note_on_c, 0, 79, 74
2, 844998, Note_on_c, 0, 79, 0
2, 845040, Note_on_c, 0, 76, 73
2, 845160, Note_on_c, 0, 76, 0
2, 845520, Note_on_c, 0, 81, 71
2, 845640, Note_on_c, 0, 81, 0
2, 845640, Note_on_c, 0, 76, 70
2, 845718, Note_on_c, 0, 76, 0
2, 845760, Note_on_c, 0, 73, 69
2, 845880, Note_on_c, 0, 73, 0
2, 846240, Note_on_c, 0, 74, 76
2, 846360, Note_on_c, 0, 74, 0
2, 846360, Note_on_c, 0, 69, 77
2, 846438, Note_on_c, 0, 69, 0
2, 846480, Note_on_c, 0, 66, 78
2, 846600, Note_on_c, 0, 66, 0
2, 846960, Note_on_c, 0, 69, 82
2, 847080, Note_on_c, 0, 69, 0
2, 847080, Note_on_c, 0, 64, 83
2, 847158, Note_on_c, 0, 64, 0
2, 847200, Note_on_c, 0, 61, 84
2, 847320, Note_on_c, 0, 61, 0
2, 847680, Note_on_c, 0, 62, 88
2, 847800, Note_on_c, 0, 62, 0
2, 847800, Note_on_c, 0, 57, 89
2, 847878, Note_on_c, 0, 57, 0
2, 847920, Note_on_c, 0, 54, 90
2, 848040, Note_on_c, 0, 54, 0
2, 848400, Note_on_c, 0, 57, 94
2, 848520, Note_on_c, 0, 57, 0
2, 848520, Note_on_c, 0, 52, 95
2, 848598, Note_on_c, 0, 52, 0
2, 848640, Note_on_c, 0, 49, 96
2, 848760, Note_on_c, 0, 49, 0
2, 849120, Note_on_c, 0, 50, 100
2, 849240, Note_on_c, 0, 50, 0
2, 849360, Note_on_c, 0, 50, 102
2, 849480, Note_on_c, 0, 50, 0
2, 849840, Note_on_c, 0, 74, 106
2, 849840, Note_on_c, 0, 86, 106
2, 849960, Note_on_c, 0, 86, 0
2, 849960, Note_on_c, 0, 74, 0
2, 850560, Control_c, 0, 64, 0
2, 850560, Note_on_c, 0, 78, 63
2, 851280, Note_on_c, 0, 78, 0
2, 851280, Note_on_c, 0, 76, 68
2, 851320, Note_on_c, 0, 74, 69
2, 851340, Note_on_c, 0, 76, 0
2, 851640, Note_on_c, 0, 74, 0
2, 851640, Note_on_c, 0, 73, 71
2, 851718, Note_on_c, 0, 73, 0
2, 851760, Note_on_c, 0, 71, 72
2, 851916, Note_on_c, 0, 71, 0
2, 852000, Note_on_c, 0, 71, 74
2, 852156, Note_on_c, 0, 71, 0
2, 852240, Note_on_c, 0, 71, 72
2, 852396, Note_on_c, 0, 71, 0
2, 852480, Note_on_c, 0, 70, 69
2, 852636, Note_on_c, 0, 70, 0
2, 852720, Note_on_c, 0, 71, 67
2, 853440, Note_on_c, 0, 71, 0
2, 853440, Note_on_c, 0, 78, 60
2, 854160, Note_on_c, 0, 78, 0
2, 854160, Note_on_c, 0, 76, 65
2, 854200, Note_on_c, 0, 74, 65
2, 854220, Note_on_c, 0, 76, 0
2, 854520, Note_on_c, 0, 73, 67
2, 854530, Note_on_c, 0, 74, 0
2, 854598, Note_on_c, 0, 73, 0
2, 854640, Note_on_c, 0, 71, 68
2, 854796, Note_on_c, 0, 71, 0
2, 854880, Note_on_c, 0, 71, 71
2, 855036, Note_on_c, 0, 71, 0
2, 855120, Note_on_c, 0, 71, 68
2, 855276, Note_on_c, 0, 71, 0
2, 855360, Note_on_c, 0, 73, 66
2, 855516, Note_on_c, 0, 73, 0
2, 855600, Note_on_c, 0, 74, 64
2, 856320, Note_on_c, 0, 74, 0
2, 856320, Control_c, 0, 64, 0
2, 856320, Note_on_c, 0, 78, 63
2, 857040, Note_on_c, 0, 78, 0
2, 857040, Note_on_c, 0, 76, 68
2, 857080, Note_on_c, 0, 74, 69
2, 857100, Note_on_c, 0, 76, 0
2, 857400, Note_on_c, 0, 74, 0
2, 857400, Note_on_c, 0, 73, 71
2, 857478, Note_on_c, 0, 73, 0
2, 857520, Note_on_c, 0, 71, 72
2, 857676, Note_on_c, 0, 71, 0
2, 857760, Note_on_c, 0, 71, 74
2, 857916, Note_on_c, 0, 71, 0
2, 858000, Note_on_c, 0, 71, 72
2, 858156, Note_on_c, 0, 71, 0
2, 858240, Note_on_c, 0, 70, 69
2, 858396, Note_on_c, 0, 70, 0
2, 858480, Note_on_c, 0, 71, 67
2, 859200, Note_on_c, 0, 71, 0
2, 859200, Note_on_c, 0, 78, 60
2, 859920, Note_on_c, 0, 78, 0
2, 859920, Note_on_c, 0, 76, 65
2, 859960, Note_on_c, 0, 74, 65
2, 859980, Note_on_c, 0, 76, 0
2, 860280, Note_on_c, 0, 73, 67
2, 860290, Note_on_c, 0, 74, 0
2, 860358, Note_on_c, 0, 73, 0
2, 860400, Note_on_c, 0, 71, 68
2, 860556, Note_on_c, 0, 71, 0
2, 860640, Note_on_c, 0, 71, 71
2, 860796, Note_on_c, 0, 71, 0
2, 860880, Note_on_c, 0, 71, 68
2, 861036, Note_on_c, 0, 71, 0
2, 861120, Note_on_c, 0, 73, 66
2, 861276, Note_on_c, 0, 73, 0
2, 861360, Note_on_c, 0, 74, 64
2, 862080, Note_on_c, 0, 74, 0
2, 862080, Note_on_c, 0, 78, 57
2, 862800, Note_on_c, 0, 78, 0
2, 862800, Note_on_c, 0, 76, 63
2, 862840, Note_on_c, 0, 74, 63
2, 862860, Note_on_c, 0, 76, 0
2, 863160, Note_on_c, 0, 73, 66
2, 863165, Note_on_c, 0, 74, 0
2, 863238, Note_on_c, 0, 73, 0
2, 863280, Note_on_c, 0, 71, 67
2, 863436, Note_on_c, 0, 71, 0
2, 863520, Note_on_c, 0, 71, 70
2, 863676, Note_on_c, 0, 71, 0
2, 863760, Note_on_c, 0, 71, 69
2, 863916, Note_on_c, 0, 71, 0
2, 864000, Note_on_c, 0, 73, 67
2, 864156, Note_on_c, 0, 73, 0
2, 864240, Note_on_c, 0, 74, 66
2, 864960, Note_on_c, 0, 74, 0
2, 864960, Note_on_c, 0, 78, 61
2, 865680, Note_on_c, 0, 78, 0
2, 865680, Note_on_c, 0, 76, 64
2, 865720, Note_on_c, 0, 74, 64
2, 865740, Note_on_c, 0, 76, 0
2, 866040, Note_on_c, 0, 74, 0
2, 866040, Note_on_c, 0, 73, 66
2, 866118, Note_on_c, 0, 73, 0
2, 866160, Note_on_c, 0, 71, 67
2, 866316, Note_on_c, 0, 71, 0
2, 866400, Note_on_c, 0, 71, 68
2, 866556, Note_on_c, 0, 71, 0
2, 866640, Note_on_c, 0, 71, 68
2, 866796, Note_on_c, 0, 71, 0
2, 866880, Note_on_c, 0, 70, 67
2, 867036, Note_on_c, 0, 70, 0
2, 867120, Note_on_c, 0, 71, 66
2, 867840, Note_on_c, 0, 71, 0
2, 867840, Note_on_c, 0, 78, 67
2, 868560, Note_on_c, 0, 78, 0
2, 868560, Note_on_c, 0, 76, 74
2, 868600, Note_on_c, 0, 74, 74
2, 868620, Note_on_c, 0, 76, 0
2, 868920, Note_on_c, 0, 73, 77
2, 868925, Note_on_c, 0, 74, 0
2, 868998, Note_on_c, 0, 73, 0
2, 869040, Note_on_c, 0, 71, 78
2, 869196, Note_on_c, 0, 71, 0
2, 869280, Note_on_c, 0, 71, 81
2, 869436, Note_on_c, 0, 71, 0
2, 869520, Note_on_c, 0, 71, 83
2, 869676, Note_on_c, 0, 71, 0
2, 869760, Note_on_c, 0, 73, 85
2, 869916, Note_on_c, 0, 73, 0
2, 870000, Note_on_c, 0, 74, 88
2, 870720, Note_on_c, 0, 74, 0
2, 870720, Note_on_c, 0, 78, 96
2, 871440, Note_on_c, 0, 78, 0
2, 871440, Note_on_c, 0, 76, 87
2, 871480, Note_on_c, 0, 74, 87
2, 871500, Note_on_c, 0, 76, 0
2, 871800, Note_on_c, 0, 73, 83
2, 871815, Note_on_c, 0, 74, 0
2, 871878, Note_on_c, 0, 73, 0
2, 871920, Note_on_c, 0, 71, 81
2, 872076, Note_on_c, 0, 71, 0
2, 872160, Note_on_c, 0, 71, 78
2, 872316, Note_on_c, 0, 71, 0
2, 872400, Note_on_c, 0, 71, 75
2, 872556, Note_on_c, 0, 71, 0
2, 872640, Note_on_c, 0, 70, 72
2, 872796, Note_on_c, 0, 70, 0
2, 872880, Note_on_c, 0, 71, 69
2, 873600, Note_on_c, 0, 71, 0
2, 874320, Control_c, 0, 64, 127
2, 874320, Note_on_c, 0, 78, 68
2, 875760, Note_on_c, 0, 78, 0
2, 877200, Control_c, 0, 64, 0
2, 877200, Note_on_c, 0, 69, 58
2, 877320, Note_on_c, 0, 69, 0
2, 877320, Note_on_c, 0, 66, 58
2, 877398, Note_on_c, 0, 66, 0
2, 877440, Note_on_c, 0, 62, 58
2, 877560, Note_on_c, 0, 62, 0
2, 877920, Note_on_c, 0, 71, 57
2, 878040, Note_on_c, 0, 71, 0
2, 878040, Note_on_c, 0, 67, 57
2, 878118, Note_on_c, 0, 67, 0
2, 878160, Note_on_c, 0, 64, 57
2, 878280, Note_on_c, 0, 64, 0
2, 878640, Note_on_c, 0, 67, 56
2, 878760, Note_on_c, 0, 67, 0
2, 878760, Note_on_c, 0, 64, 56
2, 878838, Note_on_c, 0, 64, 0
2, 878880, Note_on_c, 0, 61, 56
2, 879000, Note_on_c, 0, 61, 0
2, 879360, Note_on_c, 0, 62, 55
2, 879540, Note_on_c, 0, 62, 0
2, 879600, Note_on_c, 0, 62, 53
2, 879720, Note_on_c, 0, 62, 0
2, 880080, Control_c, 0, 64, 127
2, 880080, Note_on_c, 0, 81, 84
2, 881520, Note_on_c, 0, 81, 0
2, 882960, Control_c, 0, 64, 0
2, 882960, Note_on_c, 0, 76, 75
2, 883080, Note_on_c, 0, 76, 0
2, 883080, Note_on_c, 0, 73, 75
2, 883158, Note_on_c, 0, 73, 0
2, 883200, Note_on_c, 0, 69, 75
2, 883320, Note_on_c, 0, 69, 0
2, 883680, Note_on_c, 0, 78, 74
2, 883800, Note_on_c, 0, 78, 0
2, 883800, Note_on_c, 0, 74, 74
2, 883878, Note_on_c, 0, 74, 0
2, 883920, Note_on_c, 0, 71, 73
2, 884040, Note_on_c, 0, 71, 0
2, 884400, Note_on_c, 0, 74, 73
2, 884520, Note_on_c, 0, 74, 0
2, 884520, Note_on_c, 0, 71, 72
2, 884598, Note_on_c, 0, 71, 0
2, 884640, Note_on_c, 0, 68, 72
2, 884760, Note_on_c, 0, 68, 0
2, 885120, Note_on_c, 0, 69, 71
2, 885300, Note_on_c, 0, 69, 0
2, 885360, Note_on_c, 0, 69, 70
2, 885480, Note_on_c, 0, 69, 0
2, 885840, Control_c, 0, 64, 127
2, 885840, Note_on_c, 0, 74, 102
2, 885840, Note_on_c, 0, 78, 102
2, 886560, Note_on_c, 0, 78, 0
2, 886560, Note_on_c, 0, 74, 0
2, 888720, Control_c, 0, 64, 0
2, 888720, Note_on_c, 0, 69, 90
2, 888840, Note_on_c, 0, 69, 0
2, 888840, Note_on_c, 0, 66, 90
2, 888918, Note_on_c, 0, 66, 0
2, 888960, Note_on_c, 0, 62, 90
2, 889080, Note_on_c, 0, 62, 0
2, 889440, Note_on_c, 0, 71, 89
2, 889560, Note_on_c, 0, 71, 0
2, 889560, Note_on_c, 0, 67, 88
2, 889638, Note_on_c, 0, 67, 0
2, 889680, Note_on_c, 0, 64, 88
2, 889800, Note_on_c, 0, 64, 0
2, 890160, Note_on_c, 0, 67, 87
2, 890280, Note_on_c, 0, 67, 0
2, 890280, Note_on_c, 0, 64, 87
2, 890358, Note_on_c, 0, 64, 0
2, 890400, Note_on_c, 0, 61, 86
2, 890520, Note_on_c, 0, 61, 0
2, 890880, Note_on_c, 0, 54, 85
2, 890880, Note_on_c, 0, 62, 85
2, 891060, Note_on_c, 0, 62, 0
2, 891060, Note_on_c, 0, 54, 0
2, 891120, Note_on_c, 0, 54, 81
2, 891120, Note_on_c, 0, 62, 81
2, 891240, Note_on_c, 0, 62, 0
2, 891240, Note_on_c, 0, 54, 0
2, 891600, Control_c, 0, 64, 127
2, 891600, Note_on_c, 0, 81, 116
2, 893040, Note_on_c, 0, 81, 0
2, 894480, Control_c, 0, 64, 0
2, 894480, Note_on_c, 0, 76, 92
2, 894600, Note_on_c, 0, 76, 0
2, 894600, Note_on_c, 0, 73, 92
2, 894678, Note_on_c, 0, 73, 0
2, 894720, Note_on_c, 0, 69, 92
2, 894840, Note_on_c, 0, 69, 0
2, 895200, Note_on_c, 0, 78, 90
2, 895320, Note_on_c, 0, 78, 0
2, 895320, Note_on_c, 0, 74, 90
2, 895398, Note_on_c, 0, 74, 0
2, 895440, Note_on_c, 0, 71, 89
2, 895560, Note_on_c, 0, 71, 0
2, 895920, Note_on_c, 0, 74, 88
2, 896040, Note_on_c, 0, 74, 0
2, 896040, Note_on_c, 0, 71, 88
2, 896118, Note_on_c, 0, 71, 0
2, 896160, Note_on_c, 0, 68, 87
2, 896280, Note_on_c, 0, 68, 0
2, 896640, Note_on_c, 0, 69, 86
2, 896820, Note_on_c, 0, 69, 0
2, 896880, Note_on_c, 0, 69, 81
2, 897000, Note_on_c, 0, 69, 0
2, 897600, Note_on_c, 0, 72, 50
2, 897600, Note_on_c, 0, 69, 50
2, 897600, Note_on_c, 0, 74, 50
2, 897720, Note_on_c, 0, 74, 0
2, 897720, Note_on_c, 0, 69, 0
2, 897720, Note_on_c, 0, 72, 0
2, 897840, Note_on_c, 0, 72, 51
2, 897840, Note_on_c, 0, 69, 51
2, 897840, Note_on_c, 0, 74, 51
2, 897960, Note_on_c, 0, 74, 0
2, 897960, Note_on_c, 0, 69, 0
2, 897960, Note_on_c, 0, 72, 0
2, 898320, Note_on_c, 0, 72, 53
2, 898320, Note_on_c, 0, 69, 53
2, 898320, Note_on_c, 0, 74, 53
2, 898440, Note_on_c, 0, 74, 0
2, 898440, Note_on_c, 0, 69, 0
2, 898440, Note_on_c, 0, 72, 0
2, 898560, Note_on_c, 0, 72, 54
2, 898560, Note_on_c, 0, 69, 54
2, 898560, Note_on_c, 0, 74, 54
2, 898680, Note_on_c, 0, 74, 0
2, 898680, Note_on_c, 0, 69, 0
2, 898680, Note_on_c, 0, 72, 0
2, 899040, Note_on_c, 0, 74, 56
2, 899040, Note_on_c, 0, 70, 56
2, 899160, Note_on_c, 0, 70, 0
2, 899160, Note_on_c, 0, 74, 0
2, 899280, Note_on_c, 0, 74, 57
2, 899280, Note_on_c, 0, 70, 57
2, 899400, Note_on_c, 0, 70, 0
2, 899400, Note_on_c, 0, 74, 0
2, 899760, Note_on_c, 0, 74, 58
2, 899760, Note_on_c, 0, 71, 58
2, 899880, Note_on_c, 0, 71, 0
2, 899880, Note_on_c, 0, 74, 0
2, 900000, Note_on_c, 0, 74, 59
2, 900000, Note_on_c, 0, 71, 59
2, 900120, Note_on_c, 0, 71, 0
2, 900120, Note_on_c, 0, 74, 0
2, 900480, Note_on_c, 0, 74, 61
2, 900480, Note_on_c, 0, 71, 61
2, 900480, Note_on_c, 0, 76, 61
2, 900600, Note_on_c, 0, 76, 0
2, 900600, Note_on_c, 0, 71, 0
2, 900600, Note_on_c, 0, 74, 0
2, 900720, Note_on_c, 0, 74, 62
2, 900720, Note_on_c, 0, 76, 62
2, 900720, Note_on_c, 0, 71, 62
2, 900840, Note_on_c, 0, 71, 0
2, 900840, Note_on_c, 0, 76, 0
2, 900840, Note_on_c, 0, 74, 0
2, 901200, Note_on_c, 0, 74, 64
2, 901200, Note_on_c, 0, 71, 64
2, 901200, Note_on_c, 0, 76, 64
2, 901320, Note_on_c, 0, 76, 0
2, 901320, Note_on_c, 0, 71, 0
2, 901320, Note_on_c, 0, 74, 0
2, 901440, Note_on_c, 0, 71, 65
2, 901440, Note_on_c, 0, 76, 65
2, 901440, Note_on_c, 0, 74, 65
2, 901560, Note_on_c, 0, 74, 0
2, 901560, Note_on_c, 0, 76, 0
2, 901560, Note_on_c, 0, 71, 0
2, 901920, Note_on_c, 0, 76, 67
2, 901920, Note_on_c, 0, 72, 67
2, 902040, Note_on_c, 0, 72, 0
2, 902040, Note_on_c, 0, 76, 0
2, 902160, Note_on_c, 0, 76, 67
2, 902160, Note_on_c, 0, 72, 67
2, 902280, Note_on_c, 0, 72, 0
2, 902280, Note_on_c, 0, 76, 0
2, 902640, Note_on_c, 0, 76, 69
2, 902640, Note_on_c, 0, 73, 69
2, 902760, Note_on_c, 0, 73, 0
2, 902760, Note_on_c, 0, 76, 0
2, 902880, Note_on_c, 0, 76, 70
2, 902880, Note_on_c, 0, 73, 70
2, 903000, Note_on_c, 0, 73, 0
2, 903000, Note_on_c, 0, 76, 0
2, 903360, Note_on_c, 0, 78, 72
2, 903360, Note_on_c, 0, 76, 72
2, 903360, Note_on_c, 0, 73, 72
2, 903480, Note_on_c, 0, 73, 0
2, 903480, Note_on_c, 0, 76, 0
2, 903480, Note_on_c, 0, 78, 0
2, 903600, Note_on_c, 0, 73, 73
2, 903600, Note_on_c, 0, 78, 73
2, 903600, Note_on_c, 0, 76, 73
2, 903720, Note_on_c, 0, 76, 0
2, 903720, Note_on_c, 0, 78, 0
2, 903720, Note_on_c, 0, 73, 0
2, 904080, Note_on_c, 0, 76, 75
2, 904080, Note_on_c, 0, 78, 75
2, 904080, Note_on_c, 0, 73, 75
2, 904200, Note_on_c, 0, 73, 0
2, 904200, Note_on_c, 0, 78, 0
2, 904200, Note_on_c, 0, 76, 0
2, 904320, Note_on_c, 0, 76, 76
2, 904320, Note_on_c, 0, 73, 76
2, 904320, Note_on_c, 0, 78, 76
2, 904440, Note_on_c, 0, 78, 0
2, 904440, Note_on_c, 0, 73, 0
2, 904440, Note_on_c, 0, 76, 0
2, 904800, Note_on_c, 0, 78, 77
2, 904800, Note_on_c, 0, 73, 77
2, 904920, Note_on_c, 0, 73, 0
2, 904920, Note_on_c, 0, 78, 0
2, 905040, Note_on_c, 0, 73, 78
2, 905040, Note_on_c, 0, 78, 78
2, 905160, Note_on_c, 0, 78, 0
2, 905160, Note_on_c, 0, 73, 0
2, 905520, Note_on_c, 0, 74, 80
2, 905520, Note_on_c, 0, 78, 80
2, 905640, Note_on_c, 0, 78, 0
2, 905640, Note_on_c, 0, 74, 0
2, 905760, Note_on_c, 0, 74, 81
2, 905760, Note_on_c, 0, 78, 81
2, 905880, Note_on_c, 0, 78, 0
2, 905880, Note_on_c, 0, 74, 0
2, 906240, Note_on_c, 0, 74, 83
2, 906240, Note_on_c, 0, 79, 83
2, 906360, Note_on_c, 0, 79, 0
2, 906360, Note_on_c, 0, 74, 0
2, 906480, Note_on_c, 0, 74, 84
2, 906480, Note_on_c, 0, 79, 84
2, 906600, Note_on_c, 0, 79, 0
2, 906600, Note_on_c, 0, 74, 0
2, 906960, Note_on_c, 0, 79, 80
2, 906960, Note_on_c, 0, 75, 80
2, 907080, Note_on_c, 0, 75, 0
2, 907080, Note_on_c, 0, 79, 0
2, 907200, Note_on_c, 0, 79, 77
2, 907200, Note_on_c, 0, 75, 77
2, 907320, Note_on_c, 0, 75, 0
2, 907320, Note_on_c, 0, 79, 0
2, 907680, Note_on_c, 0, 79, 72
2, 907680, Note_on_c, 0, 76, 72
2, 907680, Note_on_c, 0, 69, 72
2, 908760, Note_on_c, 0, 69, 0
2, 908760, Note_on_c, 0, 76, 0
2, 908760, Note_on_c, 0, 79, 0
2, 908880, Control_c, 0, 64, 127
2, 908880, Note_on_c, 0, 78, 74
2, 908880, Note_on_c, 0, 74, 74
2, 909600, Note_on_c, 0, 74, 0
2, 909600, Note_on_c, 0, 78, 0
2, 911760, Control_c, 0, 64, 0
2, 911760, Note_on_c, 0, 69, 61
2, 911880, Note_on_c, 0, 69, 0
2, 911880, Note_on_c, 0, 66, 61
2, 911958, Note_on_c, 0, 66, 0
2, 912000, Note_on_c, 0, 62, 60
2, 912120, Note_on_c, 0, 62, 0
2, 912480, Note_on_c, 0, 71, 59
2, 912600, Note_on_c, 0, 71, 0
2, 912600, Note_on_c, 0, 67, 59
2, 912678, Note_on_c, 0, 67, 0
2, 912720, Note_on_c, 0, 64, 58
2, 912840, Note_on_c, 0, 64, 0
2, 913200, Note_on_c, 0, 67, 57
2, 913320, Note_on_c, 0, 67, 0
2, 913320, Note_on_c, 0, 64, 57
2, 913398, Note_on_c, 0, 64, 0
2, 913440, Note_on_c, 0, 61, 57
2, 913560, Note_on_c, 0, 61, 0
2, 913920, Note_on_c, 0, 62, 55
2, 913920, Note_on_c, 0, 54, 55
2, 914040, Note_on_c, 0, 54, 0
2, 914040, Note_on_c, 0, 62, 0
2, 914160, Note_on_c, 0, 62, 51
2, 914160, Note_on_c, 0, 54, 51
2, 914280, Note_on_c, 0, 54, 0
2, 914280, Note_on_c, 0, 62, 0
2, 914640, Control_c, 0, 64, 127
2, 914640, Note_on_c, 0, 81, 122
2, 914640, Note_on_c, 0, 86, 122
2, 914640, Note_on_c, 0, 78, 122
2, 915360, Note_on_c, 0, 78, 0
2, 915360, Note_on_c, 0, 86, 0
2, 915360, Note_on_c, 0, 81, 0
2, 917520, Control_c, 0, 64, 0
2, 917520, Note_on_c, 0, 81, 79
2, 917640, Note_on_c, 0, 81, 0
2, 917640, Note_on_c, 0, 78, 78
2, 917718, Note_on_c, 0, 78, 0
2, 917760, Note_on_c, 0, 74, 77
2, 917880, Note_on_c, 0, 74, 0
2, 918240, Note_on_c, 0, 83, 75
2, 918360, Note_on_c, 0, 83, 0
2, 918360, Note_on_c, 0, 79, 74
2, 918438, Note_on_c, 0, 79, 0
2, 918480, Note_on_c, 0, 76, 73
2, 918600, Note_on_c, 0, 76, 0
2, 918960, Note_on_c, 0, 81, 71
2, 919080, Note_on_c, 0, 81, 0
2, 919080, Note_on_c, 0, 76, 70
2, 919158, Note_on_c, 0, 76, 0
2, 919200, Note_on_c, 0, 73, 69
2, 919320, Note_on_c, 0, 73, 0
2, 919680, Note_on_c, 0, 74, 76
2, 919800, Note_on_c, 0, 74, 0
2, 919800, Note_on_c, 0, 69, 77
2, 919878, Note_on_c, 0, 69, 0
2, 919920, Note_on_c, 0, 66, 78
2, 920040, Note_on_c, 0, 66, 0
2, 920400, Note_on_c, 0, 69, 82
2, 920520, Note_on_c, 0, 69, 0
2, 920520, Note_on_c, 0, 64, 83
2, 920598, Note_on_c, 0, 64, 0
2, 920640, Note_on_c, 0, 61, 84
2, 920760, Note_on_c, 0, 61, 0
2, 921120, Note_on_c, 0, 62, 88
2, 921240, Note_on_c, 0, 62, 0
2, 921240, Note_on_c, 0, 57, 89
2, 921318, Note_on_c, 0, 57, 0
2, 921360, Note_on_c, 0, 54, 90
2, 921480, Note_on_c, 0, 54, 0
2, 921840, Note_on_c, 0, 57, 94
2, 921960, Note_on_c, 0, 57, 0
2, 921960, Note_on_c, 0, 52, 95
2, 922038, Note_on_c, 0, 52, 0
2, 922080, Note_on_c, 0, 49, 96
2, 922200, Note_on_c, 0, 49, 0
2, 922560, Note_on_c, 0, 50, 100
2, 922680, Note_on_c, 0, 50, 0
2, 922800, Note_on_c, 0, 50, 102
2, 922920, Note_on_c, 0, 50, 0
2, 923280, Note_on_c, 0, 86, 106
2, 923280, Note_on_c, 0, 74, 106
2, 923400, Note_on_c, 0, 74, 0
2, 923400, Note_on_c, 0, 86, 0
2, 924720, Control_c, 0, 10, 73
2, 924720, Control_c, 0, 91, 91
2, 924720, Control_c, 0, 93, 28
2, 924720, Control_c, 0, 64, 0
2, 924720, Control_c, 0, 1, 0
2, 924720, Pitch_bend_c, 0, 8192
2, 924720, Control_c, 0, 7, 127
2, 924720, Control_c, 0, 0, 0
2, 924720, Control_c, 0, 32, 0
2, 924720, Program_c, 0, 0
2, 928800, Note_on_c, 0, 81, 66
2, 929280, Note_on_c, 0, 81, 0
2, 929280, Note_on_c, 0, 79, 64
2, 929520, Note_on_c, 0, 79, 0
2, 929520, Note_on_c, 0, 78, 63
2, 929760, Note_on_c, 0, 78, 0
2, 929760, Note_on_c, 0, 76, 61
2, 930000, Note_on_c, 0, 76, 0
2, 930000, Note_on_c, 0, 78, 60
2, 930240, Note_on_c, 0, 78, 0
2, 930240, Note_on_c, 0, 74, 59
2, 930480, Note_on_c, 0, 74, 0
2, 930480, Note_on_c, 0, 71, 58
2, 930720, Note_on_c, 0, 71, 0
2, 930720, Note_on_c, 0, 76, 57
2, 930876, Note_on_c, 0, 76, 0
2, 930960, Note_on_c, 0, 73, 55
2, 931116, Note_on_c, 0, 73, 0
2, 931200, Note_on_c, 0, 74, 54
2, 931356, Note_on_c, 0, 74, 0
2, 934560, Note_on_c, 0, 81, 60
2, 935040, Note_on_c, 0, 81, 0
2, 935040, Note_on_c, 0, 79, 58
2, 935280, Note_on_c, 0, 79, 0
2, 935280, Note_on_c, 0, 78, 57
2, 935520, Note_on_c, 0, 78, 0
2, 935520, Note_on_c, 0, 76, 55
2, 935760, Note_on_c, 0, 76, 0
2, 935760, Note_on_c, 0, 78, 54
2, 936000, Note_on_c, 0, 78, 0
2, 936000, Note_on_c, 0, 74, 53
2, 936240, Note_on_c, 0, 74, 0
2, 936240, Note_on_c, 0, 71, 52
2, 936480, Note_on_c, 0, 71, 0
2, 936480, Note_on_c, 0, 76, 50
2, 936636, Note_on_c, 0, 76, 0
2, 936720, Note_on_c, 0, 73, 49
2, 936876, Note_on_c, 0, 73, 0
2, 936960, Note_on_c, 0, 74, 48
2, 937116, Note_on_c, 0, 74, 0
2, 937440, Note_on_c, 0, 74, 55
2, 938160, Note_on_c, 0, 74, 0
2, 938160, Note_on_c, 0, 73, 58
2, 938400, Note_on_c, 0, 73, 0
2, 938400, Note_on_c, 0, 81, 59
2, 938556, Note_on_c, 0, 81, 0
2, 938880, Note_on_c, 0, 73, 61
2, 939120, Note_on_c, 0, 73, 0
2, 939120, Note_on_c, 0, 76, 61
2, 939600, Note_on_c, 0, 76, 0
2, 939600, Note_on_c, 0, 74, 63
2, 939840, Note_on_c, 0, 74, 0
2, 939840, Note_on_c, 0, 81, 64
2, 939996, Note_on_c, 0, 81, 0
2, 940320, Note_on_c, 0, 74, 66
2, 941040, Note_on_c, 0, 74, 0
2, 941040, Note_on_c, 0, 73, 64
2, 941280, Note_on_c, 0, 73, 0
2, 941280, Note_on_c, 0, 81, 61
2, 941436, Note_on_c, 0, 81, 0
2, 941760, Note_on_c, 0, 73, 60
2, 942000, Note_on_c, 0, 73, 0
2, 942000, Note_on_c, 0, 74, 57
2, 942240, Note_on_c, 0, 74, 0
2, 943200, Note_on_c, 0, 74, 49
2, 943800, Note_on_c, 0, 74, 0
2, 943800, Note_on_c, 0, 73, 52
2, 943920, Note_on_c, 0, 73, 0
2, 943920, Note_on_c, 0, 72, 52
2, 944040, Note_on_c, 0, 72, 0
2, 944040, Note_on_c, 0, 73, 53
2, 944160, Note_on_c, 0, 73, 0
2, 944160, Note_on_c, 0, 79, 54
2, 944316, Note_on_c, 0, 79, 0
2, 944640, Note_on_c, 0, 73, 56
2, 944880, Note_on_c, 0, 73, 0
2, 944880, Note_on_c, 0, 76, 57
2, 945240, Note_on_c, 0, 76, 0
2, 945240, Note_on_c, 0, 74, 59
2, 945360, Note_on_c, 0, 74, 0
2, 945360, Note_on_c, 0, 73, 60
2, 945480, Note_on_c, 0, 73, 0
2, 945480, Note_on_c, 0, 74, 60
2, 945600, Note_on_c, 0, 74, 0
2, 945600, Note_on_c, 0, 81, 61
2, 945756, Note_on_c, 0, 81, 0
2, 946080, Note_on_c, 0, 74, 63
2, 946680, Note_on_c, 0, 74, 0
2, 946680, Note_on_c, 0, 73, 59
2, 946800, Note_on_c, 0, 73, 0
2, 946800, Note_on_c, 0, 72, 59
2, 946920, Note_on_c, 0, 72, 0
2, 946920, Note_on_c, 0, 73, 58
2, 947040, Note_on_c, 0, 73, 0
2, 947040, Note_on_c, 0, 79, 57
2, 947196, Note_on_c, 0, 79, 0
2, 947520, Note_on_c, 0, 73, 55
2, 947760, Note_on_c, 0, 73, 0
2, 947760, Note_on_c, 0, 74, 54
2, 948000, Note_on_c, 0, 74, 0
2, 948960, Note_on_c, 0, 62, 56
2, 949080, Note_on_c, 0, 62, 0
2, 949080, Note_on_c, 0, 57, 53
2, 949200, Note_on_c, 0, 57, 0
2, 949200, Control_c, 0, 64, 0
2, 949260, Control_c, 0, 64, 127
2, 949440, Note_on_c, 0, 54, 50
2, 949560, Note_on_c, 0, 54, 0
2, 949560, Note_on_c, 0, 57, 50
2, 949680, Note_on_c, 0, 57, 0
2, 949680, Note_on_c, 0, 62, 51
2, 949800, Note_on_c, 0, 62, 0
2, 949800, Note_on_c, 0, 66, 52
2, 949920, Note_on_c, 0, 66, 0
2, 949920, Control_c, 0, 64, 0
2, 949980, Control_c, 0, 64, 127
2, 950160, Note_on_c, 0, 64, 54
2, 950280, Note_on_c, 0, 64, 0
2, 950280, Note_on_c, 0, 69, 54
2, 950400, Note_on_c, 0, 69, 0
2, 950400, Note_on_c, 0, 73, 55
2, 950520, Note_on_c, 0, 73, 0
2, 950520, Note_on_c, 0, 76, 55
2, 950640, Note_on_c, 0, 76, 0
2, 950640, Control_c, 0, 64, 0
2, 950700, Control_c, 0, 64, 127
2, 950880, Note_on_c, 0, 62, 57
2, 951000, Note_on_c, 0, 62, 0
2, 951000, Note_on_c, 0, 66, 58
2, 951120, Note_on_c, 0, 66, 0
2, 951120, Note_on_c, 0, 71, 59
2, 951240, Note_on_c, 0, 71, 0
2, 951240, Note_on_c, 0, 74, 59
2, 951360, Note_on_c, 0, 74, 0
2, 951360, Control_c, 0, 64, 0
2, 951420, Control_c, 0, 64, 127
2, 951600, Note_on_c, 0, 73, 61
2, 951720, Note_on_c, 0, 73, 0
2, 951720, Note_on_c, 0, 78, 62
2, 951840, Note_on_c, 0, 78, 0
2, 951840, Note_on_c, 0, 81, 63
2, 951960, Note_on_c, 0, 81, 0
2, 951960, Note_on_c, 0, 85, 63
2, 952080, Note_on_c, 0, 85, 0
2, 952080, Control_c, 0, 64, 0
2, 952140, Control_c, 0, 64, 127
2, 952320, Note_on_c, 0, 59, 65
2, 952440, Note_on_c, 0, 59, 0
2, 952440, Note_on_c, 0, 62, 66
2, 952560, Note_on_c, 0, 62, 0
2, 952560, Note_on_c, 0, 67, 67
2, 952680, Note_on_c, 0, 67, 0
2, 952680, Note_on_c, 0, 71, 67
2, 952800, Note_on_c, 0, 71, 0
2, 952800, Control_c, 0, 64, 0
2, 952860, Control_c, 0, 64, 127
2, 953040, Note_on_c, 0, 69, 69
2, 953160, Note_on_c, 0, 69, 0
2, 953160, Note_on_c, 0, 74, 70
2, 953280, Note_on_c, 0, 74, 0
2, 953280, Note_on_c, 0, 78, 71
2, 953400, Note_on_c, 0, 78, 0
2, 953400, Note_on_c, 0, 81, 71
2, 953520, Note_on_c, 0, 81, 0
2, 953520, Control_c, 0, 64, 0
2, 953520, Note_on_c, 0, 79, 72
2, 953580, Control_c, 0, 64, 127
2, 953640, Note_on_c, 0, 79, 0
2, 953760, Note_on_c, 0, 79, 72
2, 953880, Note_on_c, 0, 79, 0
2, 954000, Control_c, 0, 64, 0
2, 954000, Note_on_c, 0, 78, 69
2, 954060, Control_c, 0, 64, 127
2, 954120, Note_on_c, 0, 78, 0
2, 954240, Note_on_c, 0, 76, 66
2, 954360, Note_on_c, 0, 76, 0
2, 954360, Note_on_c, 0, 74, 65
2, 954480, Note_on_c, 0, 74, 0
2, 954480, Control_c, 0, 64, 0
2, 954480, Note_on_c, 0, 73, 64
2, 954600, Note_on_c, 0, 73, 0
2, 954600, Note_on_c, 0, 71, 62
2, 954720, Note_on_c, 0, 71, 0
2, 954720, Note_on_c, 0, 69, 61
2, 954840, Note_on_c, 0, 69, 0
2, 954840, Note_on_c, 0, 67, 60
2, 954960, Note_on_c, 0, 67, 0
2, 954960, Control_c, 0, 64, 0
2, 955020, Control_c, 0, 64, 127
2, 955200, Note_on_c, 0, 54, 57
2, 955320, Note_on_c, 0, 54, 0
2, 955320, Note_on_c, 0, 57, 58
2, 955440, Note_on_c, 0, 57, 0
2, 955440, Note_on_c, 0, 62, 58
2, 955560, Note_on_c, 0, 62, 0
2, 955560, Note_on_c, 0, 66, 59
2, 955680, Note_on_c, 0, 66, 0
2, 955680, Control_c, 0, 64, 0
2, 955740, Control_c, 0, 64, 127
2, 955920, Note_on_c, 0, 64, 61
2, 956040, Note_on_c, 0, 64, 0
2, 956040, Note_on_c, 0, 69, 61
2, 956160, Note_on_c, 0, 69, 0
2, 956160, Note_on_c, 0, 73, 62
2, 956280, Note_on_c, 0, 73, 0
2, 956280, Note_on_c, 0, 76, 62
2, 956400, Note_on_c, 0, 76, 0
2, 956400, Control_c, 0, 64, 0
2, 956460, Control_c, 0, 64, 127
2, 956640, Note_on_c, 0, 62, 64
2, 956760, Note_on_c, 0, 62, 0
2, 956760, Note_on_c, 0, 66, 64
2, 956880, Note_on_c, 0, 66, 0
2, 956880, Note_on_c, 0, 71, 65
2, 957000, Note_on_c, 0, 71, 0
2, 957000, Note_on_c, 0, 74, 65
2, 957120, Note_on_c, 0, 74, 0
2, 957120, Control_c, 0, 64, 0
2, 957180, Control_c, 0, 64, 127
2, 957360, Note_on_c, 0, 73, 67
2, 957480, Note_on_c, 0, 73, 0
2, 957480, Note_on_c, 0, 78, 68
2, 957600, Note_on_c, 0, 78, 0
2, 957600, Note_on_c, 0, 81, 68
2, 957720, Note_on_c, 0, 81, 0
2, 957720, Note_on_c, 0, 85, 69
2, 957840, Note_on_c, 0, 85, 0
2, 957840, Control_c, 0, 64, 0
2, 957900, Control_c, 0, 64, 127
2, 958080, Note_on_c, 0, 59, 70
2, 958200, Note_on_c, 0, 59, 0
2, 958200, Note_on_c, 0, 64, 71
2, 958320, Note_on_c, 0, 64, 0
2, 958320, Note_on_c, 0, 68, 71
2, 958440, Note_on_c, 0, 68, 0
2, 958440, Note_on_c, 0, 71, 72
2, 958560, Note_on_c, 0, 71, 0
2, 958560, Control_c, 0, 64, 0
2, 958620, Control_c, 0, 64, 127
2, 958800, Note_on_c, 0, 69, 74
2, 958920, Note_on_c, 0, 69, 0
2, 958920, Note_on_c, 0, 75, 74
2, 959040, Note_on_c, 0, 75, 0
2, 959040, Note_on_c, 0, 78, 75
2, 959160, Note_on_c, 0, 78, 0
2, 959160, Note_on_c, 0, 81, 75
2, 959280, Note_on_c, 0, 81, 0
2, 959280, Control_c, 0, 64, 0
2, 959340, Control_c, 0, 64, 127
2, 959520, Note_on_c, 0, 56, 77
2, 959640, Note_on_c, 0, 56, 0
2, 959640, Note_on_c, 0, 59, 77
2, 959760, Note_on_c, 0, 59, 0
2, 959760, Note_on_c, 0, 64, 78
2, 959880, Note_on_c, 0, 64, 0
2, 959880, Note_on_c, 0, 68, 78
2, 960000, Note_on_c, 0, 68, 0
2, 960000, Control_c, 0, 64, 0
2, 960060, Control_c, 0, 64, 127
2, 960240, Note_on_c, 0, 73, 80
2, 960360, Note_on_c, 0, 73, 0
2, 960360, Note_on_c, 0, 76, 81
2, 960480, Note_on_c, 0, 76, 0
2, 960480, Note_on_c, 0, 81, 81
2, 960600, Note_on_c, 0, 81, 0
2, 960600, Note_on_c, 0, 85, 82
2, 960720, Note_on_c, 0, 85, 0
2, 960720, Control_c, 0, 64, 0
2, 960780, Control_c, 0, 64, 127
2, 960960, Note_on_c, 0, 59, 83
2, 961080, Note_on_c, 0, 59, 0
2, 961080, Note_on_c, 0, 64, 84
2, 961200, Note_on_c, 0, 64, 0
2, 961200, Note_on_c, 0, 68, 84
2, 961320, Note_on_c, 0, 68, 0
2, 961320, Note_on_c, 0, 71, 85
2, 961440, Note_on_c, 0, 71, 0
2, 961440, Control_c, 0, 64, 0
2, 961500, Control_c, 0, 64, 127
2, 961680, Note_on_c, 0, 69, 87
2, 961800, Note_on_c, 0, 69, 0
2, 961800, Note_on_c, 0, 75, 87
2, 961920, Note_on_c, 0, 75, 0
2, 961920, Note_on_c, 0, 78, 88
2, 962040, Note_on_c, 0, 78, 0
2, 962040, Note_on_c, 0, 81, 88
2, 962160, Note_on_c, 0, 81, 0
2, 962160, Control_c, 0, 64, 0
2, 962220, Control_c, 0, 64, 127
2, 962400, Note_on_c, 0, 68, 92
2, 962520, Note_on_c, 0, 68, 0
2, 962520, Note_on_c, 0, 71, 92
2, 962640, Note_on_c, 0, 71, 0
2, 962640, Note_on_c, 0, 76, 93
2, 962760, Note_on_c, 0, 76, 0
2, 962760, Note_on_c, 0, 80, 94
2, 962880, Note_on_c, 0, 80, 0
2, 963120, Note_on_c, 0, 64, 95
2, 963240, Note_on_c, 0, 64, 0
2, 963240, Note_on_c, 0, 68, 96
2, 963360, Note_on_c, 0, 68, 0
2, 963360, Note_on_c, 0, 71, 96
2, 963480, Note_on_c, 0, 71, 0
2, 963480, Note_on_c, 0, 76, 97
2, 963600, Note_on_c, 0, 76, 0
2, 963840, Note_on_c, 0, 59, 99
2, 963960, Note_on_c, 0, 59, 0
2, 963960, Note_on_c, 0, 64, 99
2, 964080, Note_on_c, 0, 64, 0
2, 964080, Note_on_c, 0, 68, 100
2, 964200, Note_on_c, 0, 68, 0
2, 964200, Note_on_c, 0, 71, 101
2, 964320, Note_on_c, 0, 71, 0
2, 964560, Note_on_c, 0, 56, 102
2, 964680, Note_on_c, 0, 56, 0
2, 964680, Note_on_c, 0, 59, 103
2, 964800, Note_on_c, 0, 59, 0
2, 964800, Note_on_c, 0, 64, 103
2, 964920, Note_on_c, 0, 64, 0
2, 964920, Note_on_c, 0, 68, 104
2, 965040, Note_on_c, 0, 68, 0
2, 965760, Control_c, 0, 64, 0
2, 966240, Note_on_c, 0, 85, 71
2, 966480, Note_on_c, 0, 85, 0
2, 966480, Note_on_c, 0, 81, 76
2, 966960, Note_on_c, 0, 81, 0
2, 966960, Note_on_c, 0, 88, 75
2, 967200, Note_on_c, 0, 88, 0
2, 967200, Note_on_c, 0, 85, 74
2, 967680, Note_on_c, 0, 85, 0
2, 967680, Note_on_c, 0, 81, 73
2, 967920, Note_on_c, 0, 81, 0
2, 967920, Note_on_c, 0, 76, 73
2, 968400, Note_on_c, 0, 76, 0
2, 968400, Note_on_c, 0, 85, 71
2, 968640, Note_on_c, 0, 85, 0
2, 968640, Note_on_c, 0, 81, 71
2, 969120, Note_on_c, 0, 81, 0
2, 969120, Note_on_c, 0, 76, 69
2, 970560, Note_on_c, 0, 76, 0
2, 970560, Note_on_c, 0, 76, 65
2, 971760, Note_on_c, 0, 76, 0
2, 971880, Note_on_c, 0, 85, 65
2, 972000, Note_on_c, 0, 85, 0
2, 972000, Note_on_c, 0, 83, 67
2, 972120, Note_on_c, 0, 83, 0
2, 972120, Note_on_c, 0, 85, 68
2, 972240, Note_on_c, 0, 85, 0
2, 972240, Note_on_c, 0, 81, 70
2, 972360, Note_on_c, 0, 81, 0
2, 972600, Note_on_c, 0, 88, 63
2, 972720, Note_on_c, 0, 88, 0
2, 972720, Note_on_c, 0, 87, 65
2, 972840, Note_on_c, 0, 87, 0
2, 972840, Note_on_c, 0, 88, 66
2, 972960, Note_on_c, 0, 88, 0
2, 972960, Note_on_c, 0, 85, 68
2, 973080, Note_on_c, 0, 85, 0
2, 973440, Note_on_c, 0, 81, 62
2, 973560, Note_on_c, 0, 81, 0
2, 973680, Note_on_c, 0, 76, 65
2, 973800, Note_on_c, 0, 76, 0
2, 974160, Note_on_c, 0, 85, 61
2, 974280, Note_on_c, 0, 85, 0
2, 974400, Note_on_c, 0, 81, 65
2, 974520, Note_on_c, 0, 81, 0
2, 974880, Note_on_c, 0, 76, 64
2, 976087, Note_on_c, 0, 76, 0
2, 976320, Note_on_c, 0, 81, 68
2, 976560, Note_on_c, 0, 81, 0
2, 976560, Note_on_c, 0, 80, 67
2, 977040, Note_on_c, 0, 80, 0
2, 977040, Note_on_c, 0, 83, 64
2, 977280, Note_on_c, 0, 83, 0
2, 977280, Note_on_c, 0, 81, 62
2, 977520, Note_on_c, 0, 81, 0
2, 977760, Note_on_c, 0, 76, 74
2, 978960, Note_on_c, 0, 76, 0
2, 979200, Note_on_c, 0, 81, 82
2, 979440, Note_on_c, 0, 81, 0
2, 979440, Note_on_c, 0, 80, 81
2, 979920, Note_on_c, 0, 80, 0
2, 979920, Note_on_c, 0, 83, 78
2, 980160, Note_on_c, 0, 83, 0
2, 980160, Note_on_c, 0, 81, 76
2, 980400, Note_on_c, 0, 81, 0
2, 980640, Note_on_c, 0, 76, 92
2, 980880, Note_on_c, 0, 76, 0
2, 980880, Note_on_c, 0, 80, 91
2, 981360, Note_on_c, 0, 80, 0
2, 981360, Note_on_c, 0, 83, 89
2, 981600, Note_on_c, 0, 83, 0
2, 981600, Note_on_c, 0, 81, 88
2, 981840, Note_on_c, 0, 81, 0
2, 982080, Note_on_c, 0, 82, 97
2, 982320, Note_on_c, 0, 82, 0
2, 982320, Note_on_c, 0, 83, 94
2, 983760, Note_on_c, 0, 83, 0
2, 983760, Note_on_c, 0, 80, 95
2, 983840, Note_on_c, 0, 80, 0
2, 983840, Note_on_c, 0, 81, 95
2, 983920, Note_on_c, 0, 81, 0
2, 983920, Note_on_c, 0, 80, 96
2, 984000, Note_on_c, 0, 80, 0
2, 984000, Note_on_c, 0, 81, 96
2, 984080, Note_on_c, 0, 81, 0
2, 984080, Note_on_c, 0, 80, 96
2, 984160, Note_on_c, 0, 80, 0
2, 984160, Note_on_c, 0, 81, 97
2, 984240, Note_on_c, 0, 81, 0
2, 984240, Note_on_c, 0, 80, 97
2, 984320, Note_on_c, 0, 80, 0
2, 984320, Note_on_c, 0, 81, 97
2, 984400, Note_on_c, 0, 81, 0
2, 984400, Note_on_c, 0, 80, 97
2, 984480, Note_on_c, 0, 80, 0
2, 984480, Note_on_c, 0, 81, 98
2, 984560, Note_on_c, 0, 81, 0
2, 984560, Note_on_c, 0, 80, 98
2, 984640, Note_on_c, 0, 80, 0
2, 984640, Note_on_c, 0, 81, 98
2, 984720, Note_on_c, 0, 81, 0
2, 984720, Note_on_c, 0, 80, 98
2, 984800, Note_on_c, 0, 80, 0
2, 984800, Note_on_c, 0, 81, 99
2, 984880, Note_on_c, 0, 81, 0
2, 984880, Note_on_c, 0, 80, 99
2, 984960, Note_on_c, 0, 80, 0
2, 984960, Note_on_c, 0, 78, 99
2, 985080, Note_on_c, 0, 78, 0
2, 985080, Note_on_c, 0, 80, 100
2, 985200, Note_on_c, 0, 80, 0
2, 985200, Control_c, 0, 64, 127
2, 985200, Note_on_c, 0, 69, 107
2, 985320, Note_on_c, 0, 73, 98
2, 985411, Note_on_c, 0, 69, 0
2, 985440, Note_on_c, 0, 73, 0
2, 985440, Note_on_c, 0, 76, 98
2, 985560, Note_on_c, 0, 76, 0
2, 985560, Note_on_c, 0, 81, 98
2, 985680, Note_on_c, 0, 81, 0
2, 985680, Control_c, 0, 64, 0
2, 985680, Note_on_c, 0, 69, 97
2, 985800, Note_on_c, 0, 81, 97
2, 985891, Note_on_c, 0, 69, 0
2, 985920, Note_on_c, 0, 81, 0
2, 985920, Note_on_c, 0, 68, 97
2, 986040, Note_on_c, 0, 80, 96
2, 986131, Note_on_c, 0, 68, 0
2, 986160, Note_on_c, 0, 80, 0
2, 986160, Note_on_c, 0, 66, 96
2, 986280, Note_on_c, 0, 78, 96
2, 986371, Note_on_c, 0, 66, 0
2, 986400, Note_on_c, 0, 78, 0
2, 986400, Note_on_c, 0, 64, 95
2, 986520, Note_on_c, 0, 76, 95
2, 986611, Note_on_c, 0, 64, 0
2, 986640, Note_on_c, 0, 76, 0
2, 986640, Note_on_c, 0, 66, 95
2, 986760, Note_on_c, 0, 78, 94
2, 986851, Note_on_c, 0, 66, 0
2, 986880, Note_on_c, 0, 78, 0
2, 986880, Note_on_c, 0, 64, 94
2, 987000, Note_on_c, 0, 76, 93
2, 987091, Note_on_c, 0, 64, 0
2, 987120, Note_on_c, 0, 76, 0
2, 987120, Note_on_c, 0, 62, 93
2, 987240, Note_on_c, 0, 74, 93
2, 987331, Note_on_c, 0, 62, 0
2, 987360, Note_on_c, 0, 74, 0
2, 987360, Note_on_c, 0, 61, 92
2, 987480, Note_on_c, 0, 73, 92
2, 987571, Note_on_c, 0, 61, 0
2, 987600, Note_on_c, 0, 73, 0
2, 987600, Note_on_c, 0, 62, 92
2, 987720, Note_on_c, 0, 74, 91
2, 987811, Note_on_c, 0, 62, 0
2, 987840, Note_on_c, 0, 74, 0
2, 987840, Note_on_c, 0, 64, 91
2, 987960, Note_on_c, 0, 76, 91
2, 988051, Note_on_c, 0, 64, 0
2, 988080, Note_on_c, 0, 76, 0
2, 988080, Control_c, 0, 64, 127
2, 988080, Note_on_c, 0, 69, 111
2, 988200, Note_on_c, 0, 73, 102
2, 988291, Note_on_c, 0, 69, 0
2, 988320, Note_on_c, 0, 73, 0
2, 988320, Note_on_c, 0, 76, 102
2, 988440, Note_on_c, 0, 76, 0
2, 988440, Note_on_c, 0, 81, 102
2, 988560, Note_on_c, 0, 81, 0
2, 988560, Control_c, 0, 64, 0
2, 988560, Note_on_c, 0, 69, 101
2, 988680, Note_on_c, 0, 81, 101
2, 988771, Note_on_c, 0, 69, 0
2, 988800, Note_on_c, 0, 81, 0
2, 988800, Note_on_c, 0, 68, 101
2, 988920, Note_on_c, 0, 80, 100
2, 989011, Note_on_c, 0, 68, 0
2, 989040, Note_on_c, 0, 80, 0
2, 989040, Note_on_c, 0, 66, 100
2, 989160, Note_on_c, 0, 78, 100
2, 989251, Note_on_c, 0, 66, 0
2, 989280, Note_on_c, 0, 78, 0
2, 989280, Note_on_c, 0, 64, 99
2, 989400, Note_on_c, 0, 76, 99
2, 989491, Note_on_c, 0, 64, 0
2, 989520, Note_on_c, 0, 76, 0
2, 989520, Note_on_c, 0, 66, 99
2, 989640, Note_on_c, 0, 78, 98
2, 989731, Note_on_c, 0, 66, 0
2, 989760, Note_on_c, 0, 78, 0
2, 989760, Note_on_c, 0, 64, 98
2, 989880, Note_on_c, 0, 76, 97
2, 989971, Note_on_c, 0, 64, 0
2, 990000, Note_on_c, 0, 76, 0
2, 990000, Note_on_c, 0, 62, 97
2, 990120, Note_on_c, 0, 74, 97
2, 990211, Note_on_c, 0, 62, 0
2, 990240, Note_on_c, 0, 74, 0
2, 990240, Note_on_c, 0, 61, 96
2, 990360, Note_on_c, 0, 73, 96
2, 990451, Note_on_c, 0, 61, 0
2, 990480, Note_on_c, 0, 73, 0
2, 990480, Note_on_c, 0, 62, 96
2, 990600, Note_on_c, 0, 74, 95
2, 990691, Note_on_c, 0, 62, 0
2, 990720, Note_on_c, 0, 74, 0
2, 990720, Note_on_c, 0, 64, 95
2, 990840, Note_on_c, 0, 76, 95
2, 990931, Note_on_c, 0, 64, 0
2, 990960, Note_on_c, 0, 76, 0
2, 990960, Control_c, 0, 64, 127
2, 990960, Note_on_c, 0, 69, 111
2, 991080, Note_on_c, 0, 73, 104
2, 991171, Note_on_c, 0, 69, 0
2, 991200, Note_on_c, 0, 73, 0
2, 991200, Note_on_c, 0, 76, 103
2, 991320, Note_on_c, 0, 76, 0
2, 991320, Note_on_c, 0, 81, 103
2, 991440, Note_on_c, 0, 81, 0
2, 991440, Control_c, 0, 64, 0
2, 991440, Note_on_c, 0, 69, 102
2, 991560, Note_on_c, 0, 81, 101
2, 991651, Note_on_c, 0, 69, 0
2, 991680, Note_on_c, 0, 81, 0
2, 991680, Note_on_c, 0, 67, 101
2, 991800, Note_on_c, 0, 79, 100
2, 991891, Note_on_c, 0, 67, 0
2, 991920, Note_on_c, 0, 79, 0
2, 991920, Note_on_c, 0, 66, 99
2, 992040, Note_on_c, 0, 78, 99
2, 992131, Note_on_c, 0, 66, 0
2, 992160, Note_on_c, 0, 78, 0
2, 992160, Note_on_c, 0, 64, 98
2, 992280, Note_on_c, 0, 76, 97
2, 992371, Note_on_c, 0, 64, 0
2, 992400, Note_on_c, 0, 76, 0
2, 992400, Note_on_c, 0, 62, 97
2, 992520, Note_on_c, 0, 74, 96
2, 992611, Note_on_c, 0, 62, 0
2, 992640, Note_on_c, 0, 74, 0
2, 992640, Note_on_c, 0, 61, 96
2, 992760, Note_on_c, 0, 73, 95
2, 992851, Note_on_c, 0, 61, 0
2, 992880, Note_on_c, 0, 73, 0
2, 992880, Note_on_c, 0, 59, 94
2, 993000, Note_on_c, 0, 71, 94
2, 993104, Note_on_c, 0, 59, 0
2, 993120, Note_on_c, 0, 71, 0
2, 993120, Note_on_c, 0, 57, 93
2, 993240, Note_on_c, 0, 69, 92
2, 993344, Note_on_c, 0, 57, 0
2, 993360, Note_on_c, 0, 69, 0
2, 993360, Note_on_c, 0, 55, 92
2, 993480, Note_on_c, 0, 67, 91
2, 993584, Note_on_c, 0, 55, 0
2, 993600, Note_on_c, 0, 67, 0
2, 993600, Note_on_c, 0, 54, 90
2, 993720, Note_on_c, 0, 66, 90
2, 993824, Note_on_c, 0, 54, 0
2, 993840, Note_on_c, 0, 66, 0
2, 993840, Note_on_c, 0, 67, 89
2, 993840, Note_on_c, 0, 55, 89
2, 994320, Note_on_c, 0, 55, 0
2, 994320, Note_on_c, 0, 67, 0
2, 995280, Note_on_c, 0, 56, 78
2, 995280, Note_on_c, 0, 68, 78
2, 995760, Note_on_c, 0, 68, 0
2, 995760, Note_on_c, 0, 56, 0
2, 999360, Note_on_c, 0, 81, 66
2, 999840, Note_on_c, 0, 81, 0
2, 999840, Note_on_c, 0, 79, 64
2, 1000080, Note_on_c, 0, 79, 0
2, 1000080, Note_on_c, 0, 78, 63
2, 1000320, Note_on_c, 0, 78, 0
2, 1000320, Note_on_c, 0, 76, 61
2, 1000560, Note_on_c, 0, 76, 0
2, 1000560, Note_on_c, 0, 78, 60
2, 1000800, Note_on_c, 0, 78, 0
2, 1000800, Note_on_c, 0, 74, 59
2, 1001040, Note_on_c, 0, 74, 0
2, 1001040, Note_on_c, 0, 71, 58
2, 1001280, Note_on_c, 0, 71, 0
2, 1001280, Note_on_c, 0, 76, 57
2, 1001436, Note_on_c, 0, 76, 0
2, 1001520, Note_on_c, 0, 73, 55
2, 1001676, Note_on_c, 0, 73, 0
2, 1001760, Note_on_c, 0, 74, 54
2, 1001916, Note_on_c, 0, 74, 0
2, 1002840, Note_on_c, 0, 74, 49
2, 1002960, Note_on_c, 0, 74, 0
2, 1002960, Note_on_c, 0, 78, 50
2, 1003080, Note_on_c, 0, 78, 0
2, 1003080, Note_on_c, 0, 66, 51
2, 1003200, Note_on_c, 0, 66, 0
2, 1003200, Note_on_c, 0, 69, 54
2, 1003680, Note_on_c, 0, 69, 0
2, 1003680, Note_on_c, 0, 67, 52
2, 1003920, Note_on_c, 0, 67, 0
2, 1004280, Note_on_c, 0, 87, 58
2, 1004400, Note_on_c, 0, 87, 0
2, 1004400, Note_on_c, 0, 88, 58
2, 1004520, Note_on_c, 0, 88, 0
2, 1004520, Note_on_c, 0, 76, 59
2, 1004640, Note_on_c, 0, 76, 0
2, 1004640, Note_on_c, 0, 79, 60
2, 1005120, Note_on_c, 0, 79, 0
2, 1005120, Note_on_c, 0, 78, 61
2, 1005360, Note_on_c, 0, 78, 0
2, 1005360, Note_on_c, 0, 81, 65
2, 1005600, Note_on_c, 0, 81, 0
2, 1005600, Note_on_c, 0, 79, 64
2, 1005840, Note_on_c, 0, 79, 0
2, 1005840, Note_on_c, 0, 78, 63
2, 1006080, Note_on_c, 0, 78, 0
2, 1006080, Note_on_c, 0, 76, 61
2, 1006320, Note_on_c, 0, 76, 0
2, 1006320, Note_on_c, 0, 78, 60
2, 1006560, Note_on_c, 0, 78, 0
2, 1006560, Note_on_c, 0, 74, 59
2, 1006800, Note_on_c, 0, 74, 0
2, 1006800, Note_on_c, 0, 71, 58
2, 1007040, Note_on_c, 0, 71, 0
2, 1007040, Note_on_c, 0, 76, 57
2, 1007196, Note_on_c, 0, 76, 0
2, 1007280, Note_on_c, 0, 73, 55
2, 1007436, Note_on_c, 0, 73, 0
2, 1007520, Note_on_c, 0, 74, 54
2, 1007676, Note_on_c, 0, 74, 0
2, 1008000, Note_on_c, 0, 74, 62
2, 1008720, Note_on_c, 0, 74, 0
2, 1008720, Note_on_c, 0, 73, 64
2, 1008960, Note_on_c, 0, 73, 0
2, 1008960, Note_on_c, 0, 81, 65
2, 1009116, Note_on_c, 0, 81, 0
2, 1009440, Note_on_c, 0, 73, 66
2, 1009680, Note_on_c, 0, 73, 0
2, 1009680, Note_on_c, 0, 76, 67
2, 1010160, Note_on_c, 0, 76, 0
2, 1010160, Note_on_c, 0, 74, 69
2, 1010400, Note_on_c, 0, 74, 0
2, 1010400, Note_on_c, 0, 81, 70
2, 1010556, Note_on_c, 0, 81, 0
2, 1010880, Note_on_c, 0, 74, 70
2, 1011600, Note_on_c, 0, 74, 0
2, 1011600, Note_on_c, 0, 73, 68
2, 1011840, Note_on_c, 0, 73, 0
2, 1011840, Note_on_c, 0, 81, 67
2, 1011996, Note_on_c, 0, 81, 0
2, 1012320, Note_on_c, 0, 73, 65
2, 1012560, Note_on_c, 0, 73, 0
2, 1012560, Note_on_c, 0, 74, 64
2, 1012800, Note_on_c, 0, 74, 0
2, 1013760, Note_on_c, 0, 74, 59
2, 1014360, Note_on_c, 0, 74, 0
2, 1014360, Note_on_c, 0, 73, 58
2, 1014480, Note_on_c, 0, 73, 0
2, 1014480, Note_on_c, 0, 72, 60
2, 1014600, Note_on_c, 0, 72, 0
2, 1014600, Note_on_c, 0, 73, 62
2, 1014720, Note_on_c, 0, 73, 0
2, 1014720, Note_on_c, 0, 79, 63
2, 1014876, Note_on_c, 0, 79, 0
2, 1015200, Note_on_c, 0, 73, 64
2, 1015440, Note_on_c, 0, 73, 0
2, 1015440, Note_on_c, 0, 76, 65
2, 1015800, Note_on_c, 0, 76, 0
2, 1015800, Note_on_c, 0, 74, 63
2, 1015920, Note_on_c, 0, 74, 0
2, 1015920, Note_on_c, 0, 73, 65
2, 1016040, Note_on_c, 0, 73, 0
2, 1016040, Note_on_c, 0, 74, 67
2, 1016160, Note_on_c, 0, 74, 0
2, 1016160, Note_on_c, 0, 81, 69
2, 1016316, Note_on_c, 0, 81, 0
2, 1016640, Note_on_c, 0, 74, 69
2, 1017240, Note_on_c, 0, 74, 0
2, 1017240, Note_on_c, 0, 73, 62
2, 1017360, Note_on_c, 0, 73, 0
2, 1017360, Note_on_c, 0, 72, 63
2, 1017480, Note_on_c, 0, 72, 0
2, 1017480, Note_on_c, 0, 73, 64
2, 1017600, Note_on_c, 0, 73, 0
2, 1017600, Note_on_c, 0, 79, 66
2, 1017756, Note_on_c, 0, 79, 0
2, 1018080, Note_on_c, 0, 73, 63
2, 1018320, Note_on_c, 0, 73, 0
2, 1018320, Note_on_c, 0, 74, 63
2, 1018560, Note_on_c, 0, 74, 0
2, 1018800, Note_on_c, 0, 74, 61
2, 1019040, Note_on_c, 0, 74, 0
2, 1019040, Note_on_c, 0, 69, 60
2, 1019520, Note_on_c, 0, 69, 0
2, 1019520, Note_on_c, 0, 66, 57
2, 1019760, Note_on_c, 0, 66, 0
2, 1019760, Note_on_c, 0, 62, 58
2, 1020240, Note_on_c, 0, 62, 0
2, 1020240, Note_on_c, 0, 74, 59
2, 1020480, Note_on_c, 0, 74, 0
2, 1020480, Note_on_c, 0, 62, 60
2, 1020960, Note_on_c, 0, 62, 0
2, 1020960, Note_on_c, 0, 73, 62
2, 1021200, Note_on_c, 0, 73, 0
2, 1021200, Note_on_c, 0, 62, 63
2, 1021680, Note_on_c, 0, 62, 0
2, 1021680, Note_on_c, 0, 72, 65
2, 1021920, Note_on_c, 0, 72, 0
2, 1021920, Note_on_c, 0, 62, 65
2, 1022400, Note_on_c, 0, 62, 0
2, 1022400, Note_on_c, 0, 71, 67
2, 1022640, Note_on_c, 0, 71, 0
2, 1022640, Note_on_c, 0, 64, 68
2, 1023120, Note_on_c, 0, 64, 0
2, 1023120, Note_on_c, 0, 69, 66
2, 1023360, Note_on_c, 0, 69, 0
2, 1023360, Note_on_c, 0, 64, 64
2, 1023840, Note_on_c, 0, 64, 0
2, 1023840, Note_on_c, 0, 67, 62
2, 1024080, Note_on_c, 0, 67, 0
2, 1024080, Note_on_c, 0, 62, 60
2, 1024560, Note_on_c, 0, 62, 0
2, 1024560, Note_on_c, 0, 66, 58
2, 1024800, Note_on_c, 0, 66, 0
2, 1024800, Note_on_c, 0, 62, 57
2, 1025040, Note_on_c, 0, 62, 0
2, 1025040, Note_on_c, 0, 74, 60
2, 1025280, Note_on_c, 0, 74, 0
2, 1025280, Note_on_c, 0, 74, 63
2, 1025520, Note_on_c, 0, 74, 0
2, 1025520, Note_on_c, 0, 74, 61
2, 1026000, Note_on_c, 0, 74, 0
2, 1026000, Note_on_c, 0, 86, 62
2, 1026240, Note_on_c, 0, 86, 0
2, 1026240, Note_on_c, 0, 74, 62
2, 1026720, Note_on_c, 0, 74, 0
2, 1026720, Note_on_c, 0, 85, 63
2, 1026960, Note_on_c, 0, 85, 0
2, 1026960, Note_on_c, 0, 74, 64
2, 1027440, Note_on_c, 0, 74, 0
2, 1027440, Note_on_c, 0, 84, 65
2, 1027680, Note_on_c, 0, 84, 0
2, 1027680, Note_on_c, 0, 74, 65
2, 1028160, Note_on_c, 0, 74, 0
2, 1028160, Note_on_c, 0, 83, 66
2, 1028400, Note_on_c, 0, 83, 0
2, 1028400, Note_on_c, 0, 76, 70
2, 1028880, Note_on_c, 0, 76, 0
2, 1028880, Note_on_c, 0, 81, 68
2, 1029120, Note_on_c, 0, 81, 0
2, 1029120, Note_on_c, 0, 72, 67
2, 1029600, Note_on_c, 0, 72, 0
2, 1029600, Note_on_c, 0, 78, 64
2, 1029840, Note_on_c, 0, 78, 0
2, 1029840, Note_on_c, 0, 71, 63
2, 1030320, Note_on_c, 0, 71, 0
2, 1030320, Note_on_c, 0, 79, 66
2, 1030560, Note_on_c, 0, 79, 0
2, 1030560, Note_on_c, 0, 77, 67
2, 1031040, Note_on_c, 0, 77, 0
2, 1031040, Note_on_c, 0, 86, 70
2, 1031280, Note_on_c, 0, 86, 0
2, 1031280, Note_on_c, 0, 76, 74
2, 1031760, Note_on_c, 0, 76, 0
2, 1031760, Note_on_c, 0, 84, 73
2, 1032000, Note_on_c, 0, 84, 0
2, 1032000, Note_on_c, 0, 72, 72
2, 1032480, Note_on_c, 0, 72, 0
2, 1032480, Note_on_c, 0, 81, 70
2, 1032720, Note_on_c, 0, 81, 0
2, 1032720, Note_on_c, 0, 71, 71
2, 1033200, Note_on_c, 0, 71, 0
2, 1033200, Note_on_c, 0, 79, 73
2, 1033440, Note_on_c, 0, 79, 0
2, 1033440, Note_on_c, 0, 77, 74
2, 1033920, Note_on_c, 0, 77, 0
2, 1033920, Note_on_c, 0, 86, 76
2, 1034160, Note_on_c, 0, 86, 0
2, 1034160, Note_on_c, 0, 76, 79
2, 1034640, Note_on_c, 0, 76, 0
2, 1034640, Note_on_c, 0, 84, 74
2, 1034880, Note_on_c, 0, 84, 0
2, 1034880, Note_on_c, 0, 72, 71
2, 1035360, Note_on_c, 0, 72, 0
2, 1035360, Note_on_c, 0, 81, 66
2, 1035600, Note_on_c, 0, 81, 0
2, 1035600, Note_on_c, 0, 79, 51
2, 1036560, Note_on_c, 0, 79, 0
2, 1036560, Note_on_c, 0, 78, 55
2, 1036800, Note_on_c, 0, 78, 0
2, 1036800, Note_on_c, 0, 80, 56
2, 1037040, Note_on_c, 0, 80, 0
2, 1037040, Note_on_c, 0, 81, 57
2, 1038000, Note_on_c, 0, 81, 0
2, 1038000, Note_on_c, 0, 80, 60
2, 1038240, Note_on_c, 0, 80, 0
2, 1038240, Note_on_c, 0, 82, 61
2, 1038480, Note_on_c, 0, 82, 0
2, 1038480, Note_on_c, 0, 83, 62
2, 1039440, Note_on_c, 0, 83, 0
2, 1039440, Note_on_c, 0, 84, 66
2, 1039680, Note_on_c, 0, 84, 0
2, 1039680, Note_on_c, 0, 83, 67
2, 1040160, Note_on_c, 0, 83, 0
2, 1040160, Note_on_c, 0, 81, 68
2, 1040400, Note_on_c, 0, 81, 0
2, 1040400, Note_on_c, 0, 80, 66
2, 1040880, Note_on_c, 0, 80, 0
2, 1040880, Note_on_c, 0, 81, 62
2, 1041120, Note_on_c, 0, 81, 0
2, 1041120, Note_on_c, 0, 79, 61
2, 1041360, Note_on_c, 0, 79, 0
2, 1041360, Note_on_c, 0, 78, 59
2, 1041600, Note_on_c, 0, 78, 0
2, 1041600, Note_on_c, 0, 79, 60
2, 1041840, Note_on_c, 0, 79, 0
2, 1041840, Note_on_c, 0, 81, 61
2, 1042080, Note_on_c, 0, 81, 0
2, 1042080, Note_on_c, 0, 83, 62
2, 1043040, Note_on_c, 0, 83, 0
2, 1043040, Note_on_c, 0, 81, 67
2, 1043280, Note_on_c, 0, 81, 0
2, 1043280, Note_on_c, 0, 83, 68
2, 1043520, Note_on_c, 0, 83, 0
2, 1043520, Note_on_c, 0, 85, 69
2, 1044480, Note_on_c, 0, 83, 73
2, 1044487, Note_on_c, 0, 85, 0
2, 1044720, Note_on_c, 0, 83, 0
2, 1044720, Note_on_c, 0, 85, 74
2, 1044960, Note_on_c, 0, 85, 0
2, 1044960, Note_on_c, 0, 86, 76
2, 1045440, Note_on_c, 0, 86, 0
2, 1045440, Note_on_c, 0, 86, 78
2, 1045920, Note_on_c, 0, 86, 0
2, 1045920, Note_on_c, 0, 84, 78
2, 1046640, Note_on_c, 0, 84, 0
2, 1046640, Note_on_c, 0, 86, 73
2, 1046880, Note_on_c, 0, 86, 0
2, 1046880, Note_on_c, 0, 81, 71
2, 1047120, Note_on_c, 0, 81, 0
2, 1047120, Note_on_c, 0, 83, 71
2, 1047360, Note_on_c, 0, 83, 0
2, 1048080, Note_on_c, 0, 74, 75
2, 1048320, Note_on_c, 0, 74, 0
2, 1048320, Note_on_c, 0, 71, 76
2, 1048560, Note_on_c, 0, 71, 0
2, 1048560, Note_on_c, 0, 72, 77
2, 1049520, Note_on_c, 0, 72, 0
2, 1049520, Note_on_c, 0, 76, 82
2, 1049760, Note_on_c, 0, 76, 0
2, 1049760, Note_on_c, 0, 73, 83
2, 1050000, Note_on_c, 0, 73, 0
2, 1050000, Note_on_c, 0, 74, 84
2, 1050960, Note_on_c, 0, 74, 0
2, 1050960, Note_on_c, 0, 77, 88
2, 1051200, Note_on_c, 0, 77, 0
2, 1051200, Note_on_c, 0, 75, 89
2, 1051440, Note_on_c, 0, 75, 0
2, 1051440, Note_on_c, 0, 76, 90
2, 1051680, Note_on_c, 0, 76, 0
2, 1051680, Note_on_c, 0, 72, 88
2, 1051920, Note_on_c, 0, 72, 0
2, 1051920, Note_on_c, 0, 71, 87
2, 1052160, Note_on_c, 0, 71, 0
2, 1052160, Note_on_c, 0, 69, 85
2, 1052400, Note_on_c, 0, 69, 0
2, 1052400, Note_on_c, 0, 74, 83
2, 1052640, Note_on_c, 0, 74, 0
2, 1052640, Note_on_c, 0, 72, 81
2, 1052880, Note_on_c, 0, 72, 0
2, 1052880, Note_on_c, 0, 79, 81
2, 1053840, Note_on_c, 0, 79, 0
2, 1053840, Note_on_c, 0, 78, 85
2, 1054080, Note_on_c, 0, 78, 0
2, 1054080, Note_on_c, 0, 79, 86
2, 1054320, Note_on_c, 0, 79, 0
2, 1054320, Note_on_c, 0, 81, 87
2, 1055280, Note_on_c, 0, 81, 0
2, 1055280, Note_on_c, 0, 79, 91
2, 1055520, Note_on_c, 0, 79, 0
2, 1055520, Note_on_c, 0, 81, 92
2, 1055760, Note_on_c, 0, 81, 0
2, 1055760, Note_on_c, 0, 83, 93
2, 1056720, Note_on_c, 0, 83, 0
2, 1056720, Note_on_c, 0, 87, 96
2, 1056960, Note_on_c, 0, 87, 0
2, 1056960, Note_on_c, 0, 82, 97
2, 1057440, Note_on_c, 0, 82, 0
2, 1057440, Note_on_c, 0, 81, 99
2, 1057680, Note_on_c, 0, 81, 0
2, 1057680, Note_on_c, 0, 80, 97
2, 1058160, Note_on_c, 0, 80, 0
2, 1058160, Note_on_c, 0, 81, 94
2, 1058400, Note_on_c, 0, 81, 0
2, 1058400, Note_on_c, 0, 79, 92
2, 1058640, Note_on_c, 0, 79, 0
2, 1058640, Control_c, 0, 64, 0
2, 1058640, Note_on_c, 0, 77, 93
2, 1058700, Control_c, 0, 64, 127
2, 1058880, Note_on_c, 0, 77, 0
2, 1059600, Note_on_c, 0, 77, 95
2, 1059840, Note_on_c, 0, 77, 0
2, 1059840, Note_on_c, 0, 74, 96
2, 1060080, Note_on_c, 0, 74, 0
2, 1060080, Control_c, 0, 64, 0
2, 1060080, Note_on_c, 0, 73, 96
2, 1060140, Control_c, 0, 64, 127
2, 1060320, Note_on_c, 0, 73, 0
2, 1061040, Note_on_c, 0, 79, 99
2, 1061280, Note_on_c, 0, 79, 0
2, 1061280, Note_on_c, 0, 76, 99
2, 1061520, Note_on_c, 0, 76, 0
2, 1061520, Control_c, 0, 64, 0
2, 1061520, Note_on_c, 0, 74, 100
2, 1061580, Control_c, 0, 64, 127
2, 1061760, Note_on_c, 0, 74, 0
2, 1062480, Note_on_c, 0, 81, 102
2, 1062720, Note_on_c, 0, 81, 0
2, 1062720, Note_on_c, 0, 77, 103
2, 1062960, Note_on_c, 0, 77, 0
2, 1062960, Control_c, 0, 64, 0
2, 1062960, Note_on_c, 0, 75, 103
2, 1063020, Control_c, 0, 64, 127
2, 1063200, Note_on_c, 0, 75, 0
2, 1063920, Note_on_c, 0, 82, 106
2, 1064160, Note_on_c, 0, 82, 0
2, 1064160, Note_on_c, 0, 79, 106
2, 1064400, Note_on_c, 0, 79, 0
2, 1064400, Control_c, 0, 64, 0
2, 1064400, Note_on_c, 0, 78, 107
2, 1064460, Control_c, 0, 64, 127
2, 1064640, Note_on_c, 0, 78, 0
2, 1065360, Note_on_c, 0, 84, 109
2, 1065600, Note_on_c, 0, 84, 0
2, 1065600, Note_on_c, 0, 81, 110
2, 1065840, Note_on_c, 0, 81, 0
2, 1065840, Control_c, 0, 64, 0
2, 1065840, Note_on_c, 0, 79, 112
2, 1065900, Control_c, 0, 64, 127
2, 1066080, Note_on_c, 0, 79, 0
2, 1066080, Note_on_c, 0, 86, 110
2, 1066320, Note_on_c, 0, 86, 0
2, 1066320, Note_on_c, 0, 79, 109
2, 1066500, Control_c, 0, 64, 0
2, 1066550, Control_c, 0, 64, 127
2, 1066560, Note_on_c, 0, 79, 0
2, 1066560, Note_on_c, 0, 80, 107
2, 1066800, Note_on_c, 0, 80, 0
2, 1066800, Note_on_c, 0, 86, 105
2, 1067040, Note_on_c, 0, 86, 0
2, 1067040, Note_on_c, 0, 80, 103
2, 1067280, Note_on_c, 0, 80, 0
2, 1067280, Control_c, 0, 64, 0
2, 1067280, Note_on_c, 0, 73, 106
2, 1067340, Control_c, 0, 64, 127
2, 1067400, Note_on_c, 0, 73, 0
2, 1067400, Note_on_c, 0, 76, 106
2, 1067520, Note_on_c, 0, 76, 0
2, 1067520, Note_on_c, 0, 81, 106
2, 1067640, Note_on_c, 0, 81, 0
2, 1067640, Note_on_c, 0, 85, 106
2, 1067760, Note_on_c, 0, 85, 0
2, 1067760, Control_c, 0, 64, 0
2, 1067760, Note_on_c, 0, 69, 106
2, 1067880, Note_on_c, 0, 81, 106
2, 1068000, Note_on_c, 0, 81, 0
2, 1068000, Note_on_c, 0, 69, 0
2, 1068000, Note_on_c, 0, 71, 105
2, 1068120, Note_on_c, 0, 83, 105
2, 1068240, Note_on_c, 0, 83, 0
2, 1068240, Note_on_c, 0, 71, 0
2, 1068240, Note_on_c, 0, 73, 105
2, 1068360, Note_on_c, 0, 85, 105
2, 1068475, Note_on_c, 0, 73, 0
2, 1068480, Note_on_c, 0, 85, 0
2, 1068480, Note_on_c, 0, 74, 105
2, 1068600, Note_on_c, 0, 86, 105
2, 1068720, Note_on_c, 0, 86, 0
2, 1068720, Note_on_c, 0, 74, 0
2, 1068720, Note_on_c, 0, 76, 104
2, 1068840, Note_on_c, 0, 88, 104
2, 1068955, Note_on_c, 0, 76, 0
2, 1068960, Note_on_c, 0, 88, 0
2, 1068960, Note_on_c, 0, 74, 104
2, 1069080, Note_on_c, 0, 86, 104
2, 1069195, Note_on_c, 0, 74, 0
2, 1069200, Note_on_c, 0, 86, 0
2, 1069200, Note_on_c, 0, 73, 104
2, 1069320, Note_on_c, 0, 85, 104
2, 1069440, Note_on_c, 0, 85, 0
2, 1069440, Note_on_c, 0, 73, 0
2, 1069440, Note_on_c, 0, 77, 103
2, 1069560, Note_on_c, 0, 89, 103
2, 1069680, Note_on_c, 0, 89, 0
2, 1069680, Note_on_c, 0, 76, 103
2, 1069685, Note_on_c, 0, 77, 0
2, 1069800, Note_on_c, 0, 88, 103
2, 1069920, Note_on_c, 0, 88, 0
2, 1069920, Note_on_c, 0, 76, 0
2, 1069920, Note_on_c, 0, 74, 103
2, 1070040, Note_on_c, 0, 86, 103
2, 1070155, Note_on_c, 0, 74, 0
2, 1070160, Note_on_c, 0, 86, 0
2, 1070160, Control_c, 0, 64, 0
2, 1070160, Note_on_c, 0, 76, 110
2, 1070220, Control_c, 0, 64, 127
2, 1070280, Note_on_c, 0, 76, 0
2, 1070280, Note_on_c, 0, 81, 110
2, 1070400, Note_on_c, 0, 81, 0
2, 1070400, Note_on_c, 0, 85, 110
2, 1070520, Note_on_c, 0, 85, 0
2, 1070520, Note_on_c, 0, 88, 109
2, 1070640, Note_on_c, 0, 88, 0
2, 1070640, Control_c, 0, 64, 0
2, 1070640, Note_on_c, 0, 69, 109
2, 1070760, Note_on_c, 0, 81, 109
2, 1070880, Note_on_c, 0, 81, 0
2, 1070880, Note_on_c, 0, 71, 108
2, 1070885, Note_on_c, 0, 69, 0
2, 1071000, Note_on_c, 0, 83, 108
2, 1071120, Note_on_c, 0, 83, 0
2, 1071120, Note_on_c, 0, 71, 0
2, 1071120, Note_on_c, 0, 73, 108
2, 1071240, Note_on_c, 0, 85, 107
2, 1071355, Note_on_c, 0, 73, 0
2, 1071360, Note_on_c, 0, 85, 0
2, 1071360, Note_on_c, 0, 74, 107
2, 1071480, Note_on_c, 0, 86, 107
2, 1071600, Note_on_c, 0, 86, 0
2, 1071600, Note_on_c, 0, 74, 0
2, 1071600, Note_on_c, 0, 76, 106
2, 1071720, Note_on_c, 0, 88, 106
2, 1071840, Note_on_c, 0, 88, 0
2, 1071840, Note_on_c, 0, 76, 0
2, 1071840, Note_on_c, 0, 74, 106
2, 1071960, Note_on_c, 0, 86, 105
2, 1072070, Note_on_c, 0, 74, 0
2, 1072080, Note_on_c, 0, 86, 0
2, 1072080, Note_on_c, 0, 73, 105
2, 1072200, Note_on_c, 0, 85, 105
2, 1072320, Note_on_c, 0, 85, 0
2, 1072320, Note_on_c, 0, 73, 0
2, 1072320, Note_on_c, 0, 77, 104
2, 1072440, Note_on_c, 0, 89, 104
2, 1072560, Note_on_c, 0, 89, 0
2, 1072560, Note_on_c, 0, 77, 0
2, 1072560, Note_on_c, 0, 76, 104
2, 1072680, Note_on_c, 0, 88, 103
2, 1072800, Note_on_c, 0, 88, 0
2, 1072800, Note_on_c, 0, 76, 0
2, 1072800, Note_on_c, 0, 74, 103
2, 1072920, Note_on_c, 0, 86, 103
2, 1073035, Note_on_c, 0, 74, 0
2, 1073040, Note_on_c, 0, 86, 0
2, 1073040, Control_c, 0, 64, 0
2, 1073040, Note_on_c, 0, 76, 116
2, 1073100, Control_c, 0, 64, 127
2, 1073160, Note_on_c, 0, 76, 0
2, 1073160, Note_on_c, 0, 81, 116
2, 1073280, Note_on_c, 0, 81, 0
2, 1073280, Note_on_c, 0, 85, 116
2, 1073400, Note_on_c, 0, 85, 0
2, 1073400, Note_on_c, 0, 88, 115
2, 1073520, Note_on_c, 0, 88, 0
2, 1073520, Control_c, 0, 64, 0
2, 1073520, Note_on_c, 0, 69, 115
2, 1073640, Note_on_c, 0, 81, 115
2, 1073760, Note_on_c, 0, 81, 0
2, 1073760, Note_on_c, 0, 71, 114
2, 1073765, Note_on_c, 0, 69, 0
2, 1073880, Note_on_c, 0, 83, 114
2, 1074000, Note_on_c, 0, 83, 0
2, 1074000, Note_on_c, 0, 71, 0
2, 1074000, Note_on_c, 0, 73, 114
2, 1074120, Note_on_c, 0, 85, 113
2, 1074240, Note_on_c, 0, 85, 0
2, 1074240, Note_on_c, 0, 73, 0
2, 1074240, Note_on_c, 0, 74, 113
2, 1074360, Note_on_c, 0, 86, 113
2, 1074480, Note_on_c, 0, 86, 0
2, 1074480, Note_on_c, 0, 76, 113
2, 1074485, Note_on_c, 0, 74, 0
2, 1074600, Note_on_c, 0, 88, 112
2, 1074720, Note_on_c, 0, 88, 0
2, 1074720, Note_on_c, 0, 76, 0
2, 1074720, Note_on_c, 0, 74, 112
2, 1074840, Note_on_c, 0, 86, 112
2, 1074960, Note_on_c, 0, 86, 0
2, 1074960, Note_on_c, 0, 74, 0
2, 1074960, Note_on_c, 0, 73, 111
2, 1075080, Note_on_c, 0, 85, 111
2, 1075195, Note_on_c, 0, 73, 0
2, 1075200, Note_on_c, 0, 85, 0
2, 1075200, Note_on_c, 0, 77, 111
2, 1075320, Note_on_c, 0, 89, 111
2, 1075440, Note_on_c, 0, 89, 0
2, 1075440, Note_on_c, 0, 77, 0
2, 1075440, Note_on_c, 0, 76, 111
2, 1075560, Note_on_c, 0, 88, 112
2, 1075680, Note_on_c, 0, 88, 0
2, 1075680, Note_on_c, 0, 76, 0
2, 1075680, Note_on_c, 0, 74, 112
2, 1075800, Note_on_c, 0, 86, 112
2, 1075920, Note_on_c, 0, 86, 0
2, 1075920, Note_on_c, 0, 74, 0
2, 1075920, Note_on_c, 0, 76, 113
2, 1076040, Note_on_c, 0, 88, 113
2, 1076160, Note_on_c, 0, 88, 0
2, 1076160, Note_on_c, 0, 76, 0
2, 1076160, Note_on_c, 0, 74, 113
2, 1076280, Note_on_c, 0, 86, 113
2, 1076400, Note_on_c, 0, 86, 0
2, 1076400, Note_on_c, 0, 74, 0
2, 1076400, Note_on_c, 0, 73, 114
2, 1076520, Note_on_c, 0, 85, 114
2, 1076640, Note_on_c, 0, 85, 0
2, 1076640, Note_on_c, 0, 77, 114
2, 1076645, Note_on_c, 0, 73, 0
2, 1076760, Note_on_c, 0, 89, 115
2, 1076880, Note_on_c, 0, 89, 0
2, 1076880, Note_on_c, 0, 76, 115
2, 1076890, Note_on_c, 0, 77, 0
2, 1077000, Note_on_c, 0, 88, 115
2, 1077120, Note_on_c, 0, 88, 0
2, 1077120, Note_on_c, 0, 74, 116
2, 1077125, Note_on_c, 0, 76, 0
2, 1077240, Note_on_c, 0, 86, 116
2, 1077360, Note_on_c, 0, 86, 0
2, 1077360, Note_on_c, 0, 74, 0
2, 1077360, Note_on_c, 0, 76, 116
2, 1077480, Note_on_c, 0, 88, 117
2, 1077595, Note_on_c, 0, 76, 0
2, 1077600, Note_on_c, 0, 88, 0
2, 1077600, Note_on_c, 0, 74, 117
2, 1077720, Note_on_c, 0, 86, 117
2, 1077835, Note_on_c, 0, 74, 0
2, 1077840, Note_on_c, 0, 86, 0
2, 1077840, Note_on_c, 0, 73, 117
2, 1077960, Note_on_c, 0, 85, 118
2, 1078080, Note_on_c, 0, 85, 0
2, 1078080, Note_on_c, 0, 73, 0
2, 1078080, Note_on_c, 0, 77, 118
2, 1078200, Note_on_c, 0, 89, 118
2, 1078320, Note_on_c, 0, 89, 0
2, 1078320, Note_on_c, 0, 77, 0
2, 1078320, Note_on_c, 0, 76, 119
2, 1078440, Note_on_c, 0, 88, 119
2, 1078560, Note_on_c, 0, 88, 0
2, 1078560, Note_on_c, 0, 76, 0
2, 1078560, Note_on_c, 0, 74, 119
2, 1078680, Note_on_c, 0, 86, 120
2, 1078800, Note_on_c, 0, 86, 0
2, 1078800, Note_on_c, 0, 74, 0
2, 1078800, Note_on_c, 0, 85, 120
2, 1078920, Note_on_c, 0, 85, 0
2, 1078920, Note_on_c, 0, 88, 120
2, 1079040, Note_on_c, 0, 88, 0
2, 1079040, Note_on_c, 0, 86, 120
2, 1079160, Note_on_c, 0, 86, 0
2, 1079160, Note_on_c, 0, 85, 121
2, 1079280, Note_on_c, 0, 85, 0
2, 1079280, Note_on_c, 0, 83, 121
2, 1079400, Note_on_c, 0, 83, 0
2, 1079400, Note_on_c, 0, 81, 121
2, 1079520, Note_on_c, 0, 81, 0
2, 1079520, Note_on_c, 0, 80, 122
2, 1079640, Note_on_c, 0, 80, 0
2, 1079640, Note_on_c, 0, 78, 122
2, 1079760, Note_on_c, 0, 78, 0
2, 1079760, Note_on_c, 0, 76, 122
2, 1079880, Note_on_c, 0, 76, 0
2, 1079880, Note_on_c, 0, 74, 123
2, 1080000, Note_on_c, 0, 74, 0
2, 1080000, Note_on_c, 0, 73, 123
2, 1080120, Note_on_c, 0, 73, 0
2, 1080120, Note_on_c, 0, 71, 123
2, 1080240, Note_on_c, 0, 71, 0
2, 1080240, Note_on_c, 0, 69, 124
2, 1080360, Note_on_c, 0, 69, 0
2, 1080360, Note_on_c, 0, 76, 124
2, 1080480, Note_on_c, 0, 76, 0
2, 1080480, Note_on_c, 0, 74, 124
2, 1080600, Note_on_c, 0, 74, 0
2, 1080600, Note_on_c, 0, 73, 124
2, 1080720, Note_on_c, 0, 73, 0
2, 1080720, Note_on_c, 0, 71, 125
2, 1080840, Note_on_c, 0, 71, 0
2, 1080840, Note_on_c, 0, 69, 125
2, 1080960, Note_on_c, 0, 69, 0
2, 1080960, Note_on_c, 0, 68, 125
2, 1081080, Note_on_c, 0, 68, 0
2, 1081080, Note_on_c, 0, 66, 126
2, 1081200, Note_on_c, 0, 66, 0
2, 1081200, Note_on_c, 0, 64, 126
2, 1081320, Note_on_c, 0, 64, 0
2, 1081320, Note_on_c, 0, 62, 126
2, 1081440, Note_on_c, 0, 62, 0
2, 1081440, Note_on_c, 0, 61, 127
2, 1081560, Note_on_c, 0, 61, 0
2, 1081560, Note_on_c, 0, 59, 127
2, 1081680, Note_on_c, 0, 59, 0
2, 1083360, Note_on_c, 0, 61, 110
2, 1083516, Note_on_c, 0, 61, 0
2, 1083600, Note_on_c, 0, 64, 110
2, 1083756, Note_on_c, 0, 64, 0
2, 1083840, Note_on_c, 0, 57, 110
2, 1083840, Note_on_c, 0, 69, 110
2, 1083996, Note_on_c, 0, 69, 0
2, 1083996, Note_on_c, 0, 57, 0
2, 1084080, Note_on_c, 0, 61, 110
2, 1084080, Note_on_c, 0, 73, 110
2, 1084236, Note_on_c, 0, 73, 0
2, 1084236, Note_on_c, 0, 61, 0
2, 1084320, Note_on_c, 0, 64, 110
2, 1084320, Note_on_c, 0, 76, 110
2, 1084476, Note_on_c, 0, 76, 0
2, 1084476, Note_on_c, 0, 64, 0
2, 1084560, Note_on_c, 0, 69, 110
2, 1084560, Note_on_c, 0, 81, 110
2, 1086480, Note_on_c, 0, 81, 0
2, 1086480, Note_on_c, 0, 69, 0
2, 1090800, Control_c, 0, 64, 0
2, 1092960, Note_on_c, 0, 81, 66
2, 1093440, Note_on_c, 0, 81, 0
2, 1093440, Note_on_c, 0, 79, 64
2, 1093680, Note_on_c, 0, 79, 0
2, 1093680, Note_on_c, 0, 78, 63
2, 1093920, Note_on_c, 0, 78, 0
2, 1093920, Note_on_c, 0, 76, 61
2, 1094160, Note_on_c, 0, 76, 0
2, 1094160, Note_on_c, 0, 78, 60
2, 1094400, Note_on_c, 0, 78, 0
2, 1094400, Note_on_c, 0, 74, 59
2, 1094640, Note_on_c, 0, 74, 0
2, 1094640, Note_on_c, 0, 71, 58
2, 1094880, Note_on_c, 0, 71, 0
2, 1094880, Note_on_c, 0, 76, 57
2, 1095036, Note_on_c, 0, 76, 0
2, 1095120, Note_on_c, 0, 73, 55
2, 1095276, Note_on_c, 0, 73, 0
2, 1095360, Note_on_c, 0, 74, 54
2, 1095516, Note_on_c, 0, 74, 0
2, 1096200, Note_on_c, 0, 74, 46
2, 1096320, Note_on_c, 0, 74, 0
2, 1096320, Note_on_c, 0, 78, 47
2, 1096440, Note_on_c, 0, 78, 0
2, 1096440, Note_on_c, 0, 74, 48
2, 1096560, Note_on_c, 0, 74, 0
2, 1096560, Note_on_c, 0, 69, 49
2, 1096680, Note_on_c, 0, 69, 0
2, 1096680, Note_on_c, 0, 66, 49
2, 1096800, Note_on_c, 0, 66, 0
2, 1096800, Note_on_c, 0, 69, 52
2, 1097280, Note_on_c, 0, 69, 0
2, 1097280, Note_on_c, 0, 67, 51
2, 1097520, Note_on_c, 0, 67, 0
2, 1097640, Note_on_c, 0, 87, 52
2, 1097760, Note_on_c, 0, 87, 0
2, 1097760, Note_on_c, 0, 88, 53
2, 1097880, Note_on_c, 0, 88, 0
2, 1097880, Note_on_c, 0, 85, 54
2, 1098000, Note_on_c, 0, 85, 0
2, 1098000, Note_on_c, 0, 79, 55
2, 1098120, Note_on_c, 0, 79, 0
2, 1098120, Note_on_c, 0, 76, 57
2, 1098240, Note_on_c, 0, 76, 0
2, 1098240, Note_on_c, 0, 79, 58
2, 1098720, Note_on_c, 0, 79, 0
2, 1098720, Note_on_c, 0, 78, 59
2, 1098960, Note_on_c, 0, 78, 0
2, 1098960, Note_on_c, 0, 81, 60
2, 1099200, Note_on_c, 0, 81, 0
2, 1099200, Note_on_c, 0, 79, 60
2, 1099440, Note_on_c, 0, 79, 0
2, 1099440, Note_on_c, 0, 78, 60
2, 1099680, Note_on_c, 0, 78, 0
2, 1099680, Note_on_c, 0, 76, 59
2, 1099920, Note_on_c, 0, 76, 0
2, 1099920, Note_on_c, 0, 78, 59
2, 1100160, Note_on_c, 0, 78, 0
2, 1100160, Note_on_c, 0, 74, 58
2, 1100400, Note_on_c, 0, 74, 0
2, 1100400, Note_on_c, 0, 71, 58
2, 1100640, Note_on_c, 0, 71, 0
2, 1100640, Note_on_c, 0, 76, 58
2, 1100796, Note_on_c, 0, 76, 0
2, 1100880, Note_on_c, 0, 73, 57
2, 1101036, Note_on_c, 0, 73, 0
2, 1101120, Note_on_c, 0, 74, 57
2, 1101276, Note_on_c, 0, 74, 0
2, 1101600, Note_on_c, 0, 74, 62
2, 1102320, Note_on_c, 0, 74, 0
2, 1102320, Note_on_c, 0, 73, 64
2, 1102560, Note_on_c, 0, 73, 0
2, 1102560, Note_on_c, 0, 81, 65
2, 1102716, Note_on_c, 0, 81, 0
2, 1103040, Note_on_c, 0, 73, 66
2, 1103280, Note_on_c, 0, 73, 0
2, 1103280, Note_on_c, 0, 76, 67
2, 1103760, Note_on_c, 0, 76, 0
2, 1103760, Note_on_c, 0, 74, 69
2, 1104000, Note_on_c, 0, 74, 0
2, 1104000, Note_on_c, 0, 81, 70
2, 1104156, Note_on_c, 0, 81, 0
2, 1104480, Note_on_c, 0, 74, 70
2, 1105200, Note_on_c, 0, 74, 0
2, 1105200, Note_on_c, 0, 73, 68
2, 1105440, Note_on_c, 0, 73, 0
2, 1105440, Note_on_c, 0, 81, 67
2, 1105596, Note_on_c, 0, 81, 0
2, 1105920, Note_on_c, 0, 73, 65
2, 1106160, Note_on_c, 0, 73, 0
2, 1106160, Note_on_c, 0, 74, 64
2, 1106400, Note_on_c, 0, 74, 0
2, 1107360, Note_on_c, 0, 74, 59
2, 1107960, Note_on_c, 0, 74, 0
2, 1107960, Note_on_c, 0, 73, 54
2, 1108080, Note_on_c, 0, 73, 0
2, 1108080, Note_on_c, 0, 72, 55
2, 1108200, Note_on_c, 0, 72, 0
2, 1108200, Note_on_c, 0, 73, 56
2, 1108320, Note_on_c, 0, 73, 0
2, 1108320, Note_on_c, 0, 79, 60
2, 1108476, Note_on_c, 0, 79, 0
2, 1108800, Note_on_c, 0, 73, 57
2, 1109040, Note_on_c, 0, 73, 0
2, 1109040, Note_on_c, 0, 76, 63
2, 1109400, Note_on_c, 0, 76, 0
2, 1109400, Note_on_c, 0, 74, 64
2, 1109520, Note_on_c, 0, 74, 0
2, 1109520, Note_on_c, 0, 73, 66
2, 1109640, Note_on_c, 0, 73, 0
2, 1109640, Note_on_c, 0, 74, 68
2, 1109760, Note_on_c, 0, 74, 0
2, 1109760, Note_on_c, 0, 81, 69
2, 1109916, Note_on_c, 0, 81, 0
2, 1110240, Note_on_c, 0, 74, 69
2, 1110840, Note_on_c, 0, 74, 0
2, 1110840, Note_on_c, 0, 73, 61
2, 1110960, Note_on_c, 0, 73, 0
2, 1110960, Note_on_c, 0, 72, 62
2, 1111080, Note_on_c, 0, 72, 0
2, 1111080, Note_on_c, 0, 73, 63
2, 1111200, Note_on_c, 0, 73, 0
2, 1111200, Note_on_c, 0, 79, 64
2, 1111356, Note_on_c, 0, 79, 0
2, 1111680, Note_on_c, 0, 73, 61
2, 1111920, Note_on_c, 0, 73, 0
2, 1111920, Note_on_c, 0, 74, 60
2, 1112160, Note_on_c, 0, 74, 0
2, 1113120, Note_on_c, 0, 62, 57
2, 1113240, Note_on_c, 0, 62, 0
2, 1113240, Note_on_c, 0, 57, 57
2, 1113360, Note_on_c, 0, 57, 0
2, 1113360, Control_c, 0, 64, 0
2, 1113420, Control_c, 0, 64, 127
2, 1113600, Note_on_c, 0, 54, 58
2, 1113720, Note_on_c, 0, 54, 0
2, 1113720, Note_on_c, 0, 57, 59
2, 1113840, Note_on_c, 0, 57, 0
2, 1113840, Note_on_c, 0, 62, 59
2, 1113960, Note_on_c, 0, 62, 0
2, 1113960, Note_on_c, 0, 66, 59
2, 1114080, Note_on_c, 0, 66, 0
2, 1114080, Control_c, 0, 64, 0
2, 1114140, Control_c, 0, 64, 127
2, 1114320, Note_on_c, 0, 64, 60
2, 1114440, Note_on_c, 0, 64, 0
2, 1114440, Note_on_c, 0, 69, 61
2, 1114560, Note_on_c, 0, 69, 0
2, 1114560, Note_on_c, 0, 73, 61
2, 1114680, Note_on_c, 0, 73, 0
2, 1114680, Note_on_c, 0, 76, 61
2, 1114800, Note_on_c, 0, 76, 0
2, 1114800, Control_c, 0, 64, 0
2, 1114860, Control_c, 0, 64, 127
2, 1115040, Note_on_c, 0, 62, 62
2, 1115160, Note_on_c, 0, 62, 0
2, 1115160, Note_on_c, 0, 66, 63
2, 1115280, Note_on_c, 0, 66, 0
2, 1115280, Note_on_c, 0, 71, 63
2, 1115400, Note_on_c, 0, 71, 0
2, 1115400, Note_on_c, 0, 74, 63
2, 1115520, Note_on_c, 0, 74, 0
2, 1115520, Control_c, 0, 64, 0
2, 1115580, Control_c, 0, 64, 127
2, 1115760, Note_on_c, 0, 73, 64
2, 1115880, Note_on_c, 0, 73, 0
2, 1115880, Note_on_c, 0, 78, 65
2, 1116000, Note_on_c, 0, 78, 0
2, 1116000, Note_on_c, 0, 81, 65
2, 1116120, Note_on_c, 0, 81, 0
2, 1116120, Note_on_c, 0, 85, 65
2, 1116240, Note_on_c, 0, 85, 0
2, 1116240, Control_c, 0, 64, 0
2, 1116300, Control_c, 0, 64, 127
2, 1116480, Note_on_c, 0, 59, 66
2, 1116600, Note_on_c, 0, 59, 0
2, 1116600, Note_on_c, 0, 62, 67
2, 1116720, Note_on_c, 0, 62, 0
2, 1116720, Note_on_c, 0, 67, 67
2, 1116840, Note_on_c, 0, 67, 0
2, 1116840, Note_on_c, 0, 71, 67
2, 1116960, Note_on_c, 0, 71, 0
2, 1116960, Control_c, 0, 64, 0
2, 1117020, Control_c, 0, 64, 127
2, 1117200, Note_on_c, 0, 69, 68
2, 1117320, Note_on_c, 0, 69, 0
2, 1117320, Note_on_c, 0, 74, 69
2, 1117440, Note_on_c, 0, 74, 0
2, 1117440, Note_on_c, 0, 78, 69
2, 1117560, Note_on_c, 0, 78, 0
2, 1117560, Note_on_c, 0, 81, 69
2, 1117680, Note_on_c, 0, 81, 0
2, 1117680, Control_c, 0, 64, 0
2, 1117680, Note_on_c, 0, 79, 72
2, 1117740, Control_c, 0, 64, 127
2, 1117800, Note_on_c, 0, 79, 0
2, 1117920, Note_on_c, 0, 79, 70
2, 1118040, Note_on_c, 0, 79, 0
2, 1118160, Control_c, 0, 64, 0
2, 1118160, Note_on_c, 0, 78, 67
2, 1118220, Control_c, 0, 64, 127
2, 1118280, Note_on_c, 0, 78, 0
2, 1118400, Note_on_c, 0, 76, 63
2, 1118520, Note_on_c, 0, 76, 0
2, 1118520, Note_on_c, 0, 74, 62
2, 1118640, Note_on_c, 0, 74, 0
2, 1118640, Control_c, 0, 64, 0
2, 1118640, Note_on_c, 0, 73, 60
2, 1118760, Note_on_c, 0, 73, 0
2, 1118760, Note_on_c, 0, 71, 58
2, 1118880, Note_on_c, 0, 71, 0
2, 1118880, Note_on_c, 0, 69, 57
2, 1119000, Note_on_c, 0, 69, 0
2, 1119000, Note_on_c, 0, 67, 55
2, 1119120, Note_on_c, 0, 67, 0
2, 1119120, Control_c, 0, 64, 0
2, 1119180, Control_c, 0, 64, 127
2, 1119360, Note_on_c, 0, 54, 56
2, 1119480, Note_on_c, 0, 54, 0
2, 1119480, Note_on_c, 0, 57, 56
2, 1119600, Note_on_c, 0, 57, 0
2, 1119600, Note_on_c, 0, 62, 56
2, 1119720, Note_on_c, 0, 62, 0
2, 1119720, Note_on_c, 0, 66, 57
2, 1119840, Note_on_c, 0, 66, 0
2, 1119840, Control_c, 0, 64, 0
2, 1119900, Control_c, 0, 64, 127
2, 1120080, Note_on_c, 0, 64, 58
2, 1120200, Note_on_c, 0, 64, 0
2, 1120200, Note_on_c, 0, 69, 58
2, 1120320, Note_on_c, 0, 69, 0
2, 1120320, Note_on_c, 0, 73, 59
2, 1120440, Note_on_c, 0, 73, 0
2, 1120440, Note_on_c, 0, 76, 59
2, 1120560, Note_on_c, 0, 76, 0
2, 1120560, Control_c, 0, 64, 0
2, 1120620, Control_c, 0, 64, 127
2, 1120800, Note_on_c, 0, 62, 61
2, 1120920, Note_on_c, 0, 62, 0
2, 1120920, Note_on_c, 0, 66, 61
2, 1121040, Note_on_c, 0, 66, 0
2, 1121040, Note_on_c, 0, 71, 61
2, 1121160, Note_on_c, 0, 71, 0
2, 1121160, Note_on_c, 0, 74, 62
2, 1121280, Note_on_c, 0, 74, 0
2, 1121280, Control_c, 0, 64, 0
2, 1121340, Control_c, 0, 64, 127
2, 1121520, Note_on_c, 0, 73, 63
2, 1121640, Note_on_c, 0, 73, 0
2, 1121640, Note_on_c, 0, 78, 64
2, 1121760, Note_on_c, 0, 78, 0
2, 1121760, Note_on_c, 0, 81, 64
2, 1121880, Note_on_c, 0, 81, 0
2, 1121880, Note_on_c, 0, 85, 64
2, 1122000, Note_on_c, 0, 85, 0
2, 1122000, Control_c, 0, 64, 0
2, 1122060, Control_c, 0, 64, 127
2, 1122240, Note_on_c, 0, 59, 66
2, 1122340, Note_on_c, 0, 59, 0
2, 1122360, Note_on_c, 0, 62, 66
2, 1122460, Note_on_c, 0, 62, 0
2, 1122480, Note_on_c, 0, 67, 66
2, 1122580, Note_on_c, 0, 67, 0
2, 1122600, Note_on_c, 0, 71, 67
2, 1122700, Note_on_c, 0, 71, 0
2, 1122720, Control_c, 0, 64, 0
2, 1122780, Control_c, 0, 64, 127
2, 1122960, Note_on_c, 0, 75, 68
2, 1123060, Note_on_c, 0, 75, 0
2, 1123080, Note_on_c, 0, 81, 69
2, 1123180, Note_on_c, 0, 81, 0
2, 1123200, Note_on_c, 0, 83, 69
2, 1123300, Note_on_c, 0, 83, 0
2, 1123320, Note_on_c, 0, 87, 69
2, 1123420, Note_on_c, 0, 87, 0
2, 1123440, Control_c, 0, 64, 0
2, 1123500, Control_c, 0, 64, 127
2, 1123680, Note_on_c, 0, 64, 71
2, 1123780, Note_on_c, 0, 64, 0
2, 1123800, Note_on_c, 0, 67, 71
2, 1123900, Note_on_c, 0, 67, 0
2, 1123920, Note_on_c, 0, 71, 72
2, 1124020, Note_on_c, 0, 71, 0
2, 1124040, Note_on_c, 0, 76, 72
2, 1124140, Note_on_c, 0, 76, 0
2, 1124160, Control_c, 0, 64, 0
2, 1124220, Control_c, 0, 64, 127
2, 1124400, Note_on_c, 0, 74, 73
2, 1124500, Note_on_c, 0, 74, 0
2, 1124520, Note_on_c, 0, 76, 74
2, 1124620, Note_on_c, 0, 76, 0
2, 1124640, Note_on_c, 0, 83, 74
2, 1124740, Note_on_c, 0, 83, 0
2, 1124760, Note_on_c, 0, 86, 74
2, 1124860, Note_on_c, 0, 86, 0
2, 1124880, Control_c, 0, 64, 0
2, 1124940, Control_c, 0, 64, 127
2, 1125120, Note_on_c, 0, 61, 76
2, 1125220, Note_on_c, 0, 61, 0
2, 1125240, Note_on_c, 0, 64, 76
2, 1125340, Note_on_c, 0, 64, 0
2, 1125360, Note_on_c, 0, 69, 77
2, 1125460, Note_on_c, 0, 69, 0
2, 1125480, Note_on_c, 0, 73, 77
2, 1125580, Note_on_c, 0, 73, 0
2, 1125600, Control_c, 0, 64, 0
2, 1125660, Control_c, 0, 64, 127
2, 1125840, Note_on_c, 0, 73, 78
2, 1125940, Note_on_c, 0, 73, 0
2, 1125960, Note_on_c, 0, 76, 79
2, 1126060, Note_on_c, 0, 76, 0
2, 1126080, Note_on_c, 0, 79, 79
2, 1126180, Note_on_c, 0, 79, 0
2, 1126200, Note_on_c, 0, 85, 80
2, 1126300, Note_on_c, 0, 85, 0
2, 1126320, Control_c, 0, 64, 0
2, 1126380, Control_c, 0, 64, 127
2, 1126560, Note_on_c, 0, 62, 81
2, 1126660, Note_on_c, 0, 62, 0
2, 1126680, Note_on_c, 0, 66, 81
2, 1126780, Note_on_c, 0, 66, 0
2, 1126800, Note_on_c, 0, 69, 82
2, 1126900, Note_on_c, 0, 69, 0
2, 1126920, Note_on_c, 0, 74, 82
2, 1127020, Note_on_c, 0, 74, 0
2, 1127040, Control_c, 0, 64, 0
2, 1127100, Control_c, 0, 64, 127
2, 1127280, Note_on_c, 0, 74, 83
2, 1127380, Note_on_c, 0, 74, 0
2, 1127400, Note_on_c, 0, 80, 84
2, 1127500, Note_on_c, 0, 80, 0
2, 1127520, Note_on_c, 0, 83, 84
2, 1127620, Note_on_c, 0, 83, 0
2, 1127640, Note_on_c, 0, 86, 85
2, 1127740, Note_on_c, 0, 86, 0
2, 1127760, Control_c, 0, 64, 0
2, 1127820, Control_c, 0, 64, 127
2, 1128000, Note_on_c, 0, 45, 86
2, 1128100, Note_on_c, 0, 45, 0
2, 1128120, Note_on_c, 0, 49, 86
2, 1128220, Note_on_c, 0, 49, 0
2, 1128240, Note_on_c, 0, 52, 87
2, 1128340, Note_on_c, 0, 52, 0
2, 1128360, Note_on_c, 0, 57, 87
2, 1128460, Note_on_c, 0, 57, 0
2, 1128480, Control_c, 0, 64, 0
2, 1128540, Control_c, 0, 64, 127
2, 1128720, Note_on_c, 0, 61, 88
2, 1128820, Note_on_c, 0, 61, 0
2, 1128840, Note_on_c, 0, 64, 89
2, 1128940, Note_on_c, 0, 64, 0
2, 1128960, Note_on_c, 0, 67, 89
2, 1129060, Note_on_c, 0, 67, 0
2, 1129080, Note_on_c, 0, 73, 90
2, 1129180, Note_on_c, 0, 73, 0
2, 1129200, Control_c, 0, 64, 0
2, 1129260, Control_c, 0, 64, 127
2, 1129440, Note_on_c, 0, 50, 91
2, 1129540, Note_on_c, 0, 50, 0
2, 1129560, Note_on_c, 0, 54, 91
2, 1129660, Note_on_c, 0, 54, 0
2, 1129680, Note_on_c, 0, 57, 92
2, 1129780, Note_on_c, 0, 57, 0
2, 1129800, Note_on_c, 0, 62, 92
2, 1129900, Note_on_c, 0, 62, 0
2, 1129920, Control_c, 0, 64, 0
2, 1129980, Control_c, 0, 64, 127
2, 1130160, Note_on_c, 0, 62, 93
2, 1130260, Note_on_c, 0, 62, 0
2, 1130280, Note_on_c, 0, 68, 94
2, 1130380, Note_on_c, 0, 68, 0
2, 1130400, Note_on_c, 0, 71, 94
2, 1130500, Note_on_c, 0, 71, 0
2, 1130520, Note_on_c, 0, 74, 95
2, 1130620, Note_on_c, 0, 74, 0
2, 1130640, Control_c, 0, 64, 0
2, 1130700, Control_c, 0, 64, 127
2, 1130880, Note_on_c, 0, 61, 96
2, 1130980, Note_on_c, 0, 61, 0
2, 1131000, Note_on_c, 0, 64, 96
2, 1131100, Note_on_c, 0, 64, 0
2, 1131120, Note_on_c, 0, 69, 97
2, 1131220, Note_on_c, 0, 69, 0
2, 1131240, Note_on_c, 0, 73, 97
2, 1131340, Note_on_c, 0, 73, 0
2, 1131600, Note_on_c, 0, 57, 100
2, 1131700, Note_on_c, 0, 57, 0
2, 1131720, Note_on_c, 0, 61, 101
2, 1131820, Note_on_c, 0, 61, 0
2, 1131840, Note_on_c, 0, 64, 101
2, 1131940, Note_on_c, 0, 64, 0
2, 1131960, Note_on_c, 0, 69, 102
2, 1132060, Note_on_c, 0, 69, 0
2, 1132320, Note_on_c, 0, 52, 104
2, 1132420, Note_on_c, 0, 52, 0
2, 1132440, Note_on_c, 0, 57, 105
2, 1132540, Note_on_c, 0, 57, 0
2, 1132560, Note_on_c, 0, 61, 106
2, 1132660, Note_on_c, 0, 61, 0
2, 1132680, Note_on_c, 0, 64, 106
2, 1132780, Note_on_c, 0, 64, 0
2, 1133040, Note_on_c, 0, 49, 109
2, 1133140, Note_on_c, 0, 49, 0
2, 1133160, Note_on_c, 0, 52, 109
2, 1133260, Note_on_c, 0, 52, 0
2, 1133280, Note_on_c, 0, 57, 110
2, 1133380, Note_on_c, 0, 57, 0
2, 1133400, Note_on_c, 0, 61, 111
2, 1133500, Note_on_c, 0, 61, 0
2, 1134240, Control_c, 0, 64, 0
2, 1134720, Note_on_c, 0, 78, 75
2, 1134960, Note_on_c, 0, 78, 0
2, 1134960, Note_on_c, 0, 74, 74
2, 1135440, Note_on_c, 0, 74, 0
2, 1135440, Note_on_c, 0, 81, 73
2, 1135680, Note_on_c, 0, 81, 0
2, 1135680, Note_on_c, 0, 78, 73
2, 1136160, Note_on_c, 0, 78, 0
2, 1136160, Note_on_c, 0, 74, 72
2, 1136400, Note_on_c, 0, 74, 0
2, 1136400, Note_on_c, 0, 69, 72
2, 1136880, Note_on_c, 0, 69, 0
2, 1136880, Note_on_c, 0, 78, 71
2, 1137120, Note_on_c, 0, 78, 0
2, 1137120, Note_on_c, 0, 74, 71
2, 1137600, Note_on_c, 0, 74, 0
2, 1137600, Note_on_c, 0, 69, 72
2, 1139040, Note_on_c, 0, 69, 0
2, 1139040, Note_on_c, 0, 69, 68
2, 1140240, Note_on_c, 0, 69, 0
2, 1140360, Note_on_c, 0, 78, 66
2, 1140480, Note_on_c, 0, 78, 0
2, 1140480, Note_on_c, 0, 76, 65
2, 1140600, Note_on_c, 0, 76, 0
2, 1140600, Note_on_c, 0, 78, 65
2, 1140720, Note_on_c, 0, 78, 0
2, 1140720, Note_on_c, 0, 74, 65
2, 1140840, Note_on_c, 0, 74, 0
2, 1141080, Note_on_c, 0, 81, 64
2, 1141200, Note_on_c, 0, 81, 0
2, 1141200, Note_on_c, 0, 80, 64
2, 1141320, Note_on_c, 0, 80, 0
2, 1141320, Note_on_c, 0, 81, 64
2, 1141440, Note_on_c, 0, 81, 0
2, 1141440, Note_on_c, 0, 78, 64
2, 1141560, Note_on_c, 0, 78, 0
2, 1141920, Note_on_c, 0, 74, 63
2, 1142040, Note_on_c, 0, 74, 0
2, 1142160, Note_on_c, 0, 69, 63
2, 1142280, Note_on_c, 0, 69, 0
2, 1142640, Note_on_c, 0, 78, 62
2, 1142760, Note_on_c, 0, 78, 0
2, 1142880, Note_on_c, 0, 74, 62
2, 1143000, Note_on_c, 0, 74, 0
2, 1143360, Note_on_c, 0, 69, 64
2, 1144567, Note_on_c, 0, 69, 0
2, 1144800, Note_on_c, 0, 74, 62
2, 1145040, Note_on_c, 0, 74, 0
2, 1145040, Note_on_c, 0, 73, 60
2, 1145520, Note_on_c, 0, 73, 0
2, 1145520, Note_on_c, 0, 76, 55
2, 1145760, Note_on_c, 0, 76, 0
2, 1145760, Note_on_c, 0, 74, 53
2, 1146000, Note_on_c, 0, 74, 0
2, 1146240, Note_on_c, 0, 69, 64
2, 1147440, Note_on_c, 0, 69, 0
2, 1147680, Note_on_c, 0, 74, 74
2, 1147920, Note_on_c, 0, 74, 0
2, 1147920, Note_on_c, 0, 73, 73
2, 1148400, Note_on_c, 0, 73, 0
2, 1148400, Note_on_c, 0, 76, 71
2, 1148640, Note_on_c, 0, 76, 0
2, 1148640, Note_on_c, 0, 74, 69
2, 1148880, Note_on_c, 0, 74, 0
2, 1149120, Note_on_c, 0, 86, 82
2, 1149360, Note_on_c, 0, 86, 0
2, 1149360, Note_on_c, 0, 85, 81
2, 1149840, Note_on_c, 0, 85, 0
2, 1149840, Note_on_c, 0, 88, 78
2, 1150080, Note_on_c, 0, 88, 0
2, 1150080, Note_on_c, 0, 86, 77
2, 1150320, Note_on_c, 0, 86, 0
2, 1150560, Note_on_c, 0, 87, 88
2, 1150800, Note_on_c, 0, 87, 0
2, 1150800, Control_c, 0, 64, 0
2, 1150800, Note_on_c, 0, 88, 87
2, 1152240, Note_on_c, 0, 88, 0
2, 1152240, Note_on_c, 0, 85, 96
2, 1152320, Note_on_c, 0, 86, 96
2, 1152371, Note_on_c, 0, 85, 0
2, 1152400, Note_on_c, 0, 85, 97
2, 1152451, Note_on_c, 0, 86, 0
2, 1152480, Note_on_c, 0, 86, 97
2, 1152531, Note_on_c, 0, 85, 0
2, 1152560, Note_on_c, 0, 85, 98
2, 1152611, Note_on_c, 0, 86, 0
2, 1152640, Note_on_c, 0, 86, 98
2, 1152691, Note_on_c, 0, 85, 0
2, 1152720, Note_on_c, 0, 85, 99
2, 1152771, Note_on_c, 0, 86, 0
2, 1152800, Note_on_c, 0, 86, 99
2, 1152851, Note_on_c, 0, 85, 0
2, 1152880, Note_on_c, 0, 85, 100
2, 1152931, Note_on_c, 0, 86, 0
2, 1152960, Note_on_c, 0, 86, 100
2, 1153011, Note_on_c, 0, 85, 0
2, 1153040, Note_on_c, 0, 85, 101
2, 1153091, Note_on_c, 0, 86, 0
2, 1153120, Note_on_c, 0, 86, 101
2, 1153171, Note_on_c, 0, 85, 0
2, 1153200, Note_on_c, 0, 85, 102
2, 1153251, Note_on_c, 0, 86, 0
2, 1153280, Note_on_c, 0, 86, 102
2, 1153331, Note_on_c, 0, 85, 0
2, 1153360, Note_on_c, 0, 85, 103
2, 1153411, Note_on_c, 0, 86, 0
2, 1153440, Note_on_c, 0, 83, 103
2, 1153491, Note_on_c, 0, 85, 0
2, 1153560, Note_on_c, 0, 85, 104
2, 1153632, Note_on_c, 0, 83, 0
2, 1153680, Note_on_c, 0, 85, 0
2, 1153680, Control_c, 0, 64, 127
2, 1153680, Note_on_c, 0, 74, 112
2, 1153800, Note_on_c, 0, 78, 108
2, 1153920, Note_on_c, 0, 78, 0
2, 1153920, Note_on_c, 0, 74, 0
2, 1153920, Note_on_c, 0, 81, 108
2, 1154040, Note_on_c, 0, 81, 0
2, 1154040, Note_on_c, 0, 86, 107
2, 1154160, Note_on_c, 0, 86, 0
2, 1154160, Control_c, 0, 64, 0
2, 1154160, Note_on_c, 0, 74, 107
2, 1154280, Note_on_c, 0, 86, 106
2, 1154400, Note_on_c, 0, 86, 0
2, 1154400, Note_on_c, 0, 74, 0
2, 1154400, Note_on_c, 0, 73, 106
2, 1154520, Note_on_c, 0, 85, 105
2, 1154640, Note_on_c, 0, 85, 0
2, 1154640, Note_on_c, 0, 73, 0
2, 1154640, Note_on_c, 0, 71, 105
2, 1154760, Note_on_c, 0, 83, 105
2, 1154880, Note_on_c, 0, 83, 0
2, 1154880, Note_on_c, 0, 71, 0
2, 1154880, Note_on_c, 0, 69, 104
2, 1155000, Note_on_c, 0, 81, 104
2, 1155120, Note_on_c, 0, 81, 0
2, 1155120, Note_on_c, 0, 69, 0
2, 1155120, Note_on_c, 0, 71, 103
2, 1155240, Note_on_c, 0, 83, 103
2, 1155360, Note_on_c, 0, 83, 0
2, 1155360, Note_on_c, 0, 71, 0
2, 1155360, Note_on_c, 0, 69, 103
2, 1155480, Note_on_c, 0, 81, 102
2, 1155600, Note_on_c, 0, 81, 0
2, 1155600, Note_on_c, 0, 69, 0
2, 1155600, Note_on_c, 0, 67, 102
2, 1155720, Note_on_c, 0, 79, 101
2, 1155840, Note_on_c, 0, 79, 0
2, 1155840, Note_on_c, 0, 67, 0
2, 1155840, Note_on_c, 0, 66, 101
2, 1155960, Note_on_c, 0, 78, 100
2, 1156080, Note_on_c, 0, 78, 0
2, 1156080, Note_on_c, 0, 66, 0
2, 1156080, Note_on_c, 0, 67, 100
2, 1156200, Note_on_c, 0, 79, 100
2, 1156320, Note_on_c, 0, 79, 0
2, 1156320, Note_on_c, 0, 67, 0
2, 1156320, Note_on_c, 0, 69, 99
2, 1156440, Note_on_c, 0, 81, 99
2, 1156560, Note_on_c, 0, 81, 0
2, 1156560, Note_on_c, 0, 69, 0
2, 1156560, Control_c, 0, 64, 127
2, 1156560, Note_on_c, 0, 74, 115
2, 1156680, Note_on_c, 0, 78, 110
2, 1156800, Note_on_c, 0, 78, 0
2, 1156800, Note_on_c, 0, 74, 0
2, 1156800, Note_on_c, 0, 81, 110
2, 1156920, Note_on_c, 0, 81, 0
2, 1156920, Note_on_c, 0, 86, 109
2, 1157040, Note_on_c, 0, 86, 0
2, 1157040, Control_c, 0, 64, 0
2, 1157040, Note_on_c, 0, 74, 109
2, 1157160, Note_on_c, 0, 86, 109
2, 1157280, Note_on_c, 0, 86, 0
2, 1157280, Note_on_c, 0, 74, 0
2, 1157280, Note_on_c, 0, 73, 108
2, 1157400, Note_on_c, 0, 85, 108
2, 1157520, Note_on_c, 0, 85, 0
2, 1157520, Note_on_c, 0, 73, 0
2, 1157520, Note_on_c, 0, 71, 108
2, 1157640, Note_on_c, 0, 83, 107
2, 1157760, Note_on_c, 0, 83, 0
2, 1157760, Note_on_c, 0, 71, 0
2, 1157760, Note_on_c, 0, 69, 107
2, 1157880, Note_on_c, 0, 81, 107
2, 1158000, Note_on_c, 0, 81, 0
2, 1158000, Note_on_c, 0, 69, 0
2, 1158000, Note_on_c, 0, 71, 106
2, 1158120, Note_on_c, 0, 83, 106
2, 1158240, Note_on_c, 0, 83, 0
2, 1158240, Note_on_c, 0, 71, 0
2, 1158240, Note_on_c, 0, 69, 106
2, 1158360, Note_on_c, 0, 81, 105
2, 1158480, Note_on_c, 0, 81, 0
2, 1158480, Note_on_c, 0, 69, 0
2, 1158480, Note_on_c, 0, 67, 105
2, 1158600, Note_on_c, 0, 79, 104
2, 1158720, Note_on_c, 0, 79, 0
2, 1158720, Note_on_c, 0, 67, 0
2, 1158720, Note_on_c, 0, 66, 104
2, 1158840, Note_on_c, 0, 78, 104
2, 1158960, Note_on_c, 0, 78, 0
2, 1158960, Note_on_c, 0, 66, 0
2, 1158960, Note_on_c, 0, 67, 103
2, 1159080, Note_on_c, 0, 79, 103
2, 1159200, Note_on_c, 0, 79, 0
2, 1159200, Note_on_c, 0, 67, 0
2, 1159200, Note_on_c, 0, 69, 103
2, 1159320, Note_on_c, 0, 81, 105
2, 1159440, Note_on_c, 0, 81, 0
2, 1159440, Note_on_c, 0, 69, 0
2, 1159440, Control_c, 0, 64, 127
2, 1159440, Note_on_c, 0, 74, 122
2, 1159560, Note_on_c, 0, 78, 116
2, 1159680, Note_on_c, 0, 78, 0
2, 1159680, Note_on_c, 0, 74, 0
2, 1159680, Note_on_c, 0, 81, 116
2, 1159800, Note_on_c, 0, 81, 0
2, 1159800, Note_on_c, 0, 86, 115
2, 1159920, Note_on_c, 0, 86, 0
2, 1159920, Control_c, 0, 64, 0
2, 1159920, Note_on_c, 0, 74, 115
2, 1160040, Note_on_c, 0, 86, 114
2, 1160160, Note_on_c, 0, 86, 0
2, 1160160, Note_on_c, 0, 74, 0
2, 1160160, Note_on_c, 0, 72, 114
2, 1160280, Note_on_c, 0, 84, 113
2, 1160400, Note_on_c, 0, 84, 0
2, 1160400, Note_on_c, 0, 72, 0
2, 1160400, Note_on_c, 0, 71, 113
2, 1160520, Note_on_c, 0, 83, 113
2, 1160640, Note_on_c, 0, 83, 0
2, 1160640, Note_on_c, 0, 71, 0
2, 1160640, Note_on_c, 0, 69, 112
2, 1160760, Note_on_c, 0, 81, 112
2, 1160880, Note_on_c, 0, 81, 0
2, 1160880, Note_on_c, 0, 69, 0
2, 1160880, Note_on_c, 0, 67, 111
2, 1161000, Note_on_c, 0, 79, 111
2, 1161120, Note_on_c, 0, 79, 0
2, 1161120, Note_on_c, 0, 67, 0
2, 1161120, Note_on_c, 0, 66, 110
2, 1161240, Note_on_c, 0, 78, 110
2, 1161360, Note_on_c, 0, 78, 0
2, 1161360, Note_on_c, 0, 66, 0
2, 1161360, Note_on_c, 0, 64, 110
2, 1161480, Note_on_c, 0, 76, 109
2, 1161576, Note_on_c, 0, 64, 0
2, 1161600, Note_on_c, 0, 76, 0
2, 1161600, Note_on_c, 0, 62, 109
2, 1161720, Note_on_c, 0, 74, 108
2, 1161816, Note_on_c, 0, 62, 0
2, 1161840, Note_on_c, 0, 74, 0
2, 1161840, Note_on_c, 0, 60, 108
2, 1161960, Note_on_c, 0, 72, 108
2, 1162056, Note_on_c, 0, 60, 0
2, 1162080, Note_on_c, 0, 72, 0
2, 1162080, Note_on_c, 0, 59, 107
2, 1162200, Note_on_c, 0, 71, 107
2, 1162296, Note_on_c, 0, 59, 0
2, 1162320, Note_on_c, 0, 71, 0
2, 1162320, Note_on_c, 0, 60, 114
2, 1162320, Note_on_c, 0, 72, 114
2, 1162800, Note_on_c, 0, 72, 0
2, 1162800, Note_on_c, 0, 60, 0
2, 1163760, Note_on_c, 0, 73, 116
2, 1163760, Note_on_c, 0, 61, 116
2, 1164240, Note_on_c, 0, 61, 0
2, 1164240, Note_on_c, 0, 73, 0
2, 1165440, Note_on_c, 0, 74, 45
2, 1165680, Note_on_c, 0, 74, 0
2, 1166160, Note_on_c, 0, 72, 47
2, 1166400, Note_on_c, 0, 72, 0
2, 1166880, Note_on_c, 0, 72, 48
2, 1167120, Note_on_c, 0, 72, 0
2, 1167600, Note_on_c, 0, 71, 50
2, 1167840, Note_on_c, 0, 71, 0
2, 1168320, Note_on_c, 0, 83, 52
2, 1168560, Note_on_c, 0, 83, 0
2, 1169040, Note_on_c, 0, 81, 54
2, 1169280, Note_on_c, 0, 81, 0
2, 1169760, Note_on_c, 0, 81, 56
2, 1170000, Note_on_c, 0, 81, 0
2, 1170480, Note_on_c, 0, 79, 58
2, 1170720, Note_on_c, 0, 79, 0
2, 1171200, Note_on_c, 0, 74, 59
2, 1171440, Note_on_c, 0, 74, 0
2, 1171920, Note_on_c, 0, 72, 61
2, 1172160, Note_on_c, 0, 72, 0
2, 1172640, Note_on_c, 0, 72, 63
2, 1172880, Note_on_c, 0, 72, 0
2, 1173360, Note_on_c, 0, 71, 65
2, 1173600, Note_on_c, 0, 71, 0
2, 1174080, Note_on_c, 0, 71, 67
2, 1174320, Note_on_c, 0, 71, 0
2, 1174800, Note_on_c, 0, 69, 68
2, 1175040, Note_on_c, 0, 69, 0
2, 1175520, Note_on_c, 0, 68, 70
2, 1175760, Note_on_c, 0, 68, 0
2, 1176240, Note_on_c, 0, 68, 72
2, 1176480, Note_on_c, 0, 68, 0
2, 1176720, Note_on_c, 0, 69, 69
2, 1177200, Note_on_c, 0, 69, 0
2, 1177200, Note_on_c, 0, 69, 61
2, 1177440, Note_on_c, 0, 69, 0
2, 1177440, Note_on_c, 0, 66, 62
2, 1177920, Note_on_c, 0, 66, 0
2, 1177920, Note_on_c, 0, 71, 63
2, 1178160, Note_on_c, 0, 71, 0
2, 1178160, Note_on_c, 0, 67, 64
2, 1178640, Note_on_c, 0, 67, 0
2, 1178640, Note_on_c, 0, 73, 66
2, 1178880, Note_on_c, 0, 73, 0
2, 1178880, Note_on_c, 0, 69, 67
2, 1179360, Note_on_c, 0, 69, 0
2, 1179360, Note_on_c, 0, 74, 68
2, 1179600, Note_on_c, 0, 74, 0
2, 1179600, Note_on_c, 0, 71, 69
2, 1180080, Note_on_c, 0, 71, 0
2, 1180080, Note_on_c, 0, 76, 71
2, 1180320, Note_on_c, 0, 76, 0
2, 1180320, Note_on_c, 0, 73, 71
2, 1180800, Note_on_c, 0, 73, 0
2, 1180800, Note_on_c, 0, 78, 73
2, 1181040, Note_on_c, 0, 78, 0
2, 1181040, Note_on_c, 0, 74, 74
2, 1181520, Note_on_c, 0, 74, 0
2, 1181520, Note_on_c, 0, 79, 75
2, 1181760, Note_on_c, 0, 79, 0
2, 1181760, Note_on_c, 0, 76, 76
2, 1182240, Note_on_c, 0, 76, 0
2, 1182240, Note_on_c, 0, 81, 78
2, 1182480, Note_on_c, 0, 81, 0
2, 1182480, Note_on_c, 0, 78, 79
2, 1182960, Note_on_c, 0, 78, 0
2, 1182960, Note_on_c, 0, 79, 80
2, 1183200, Note_on_c, 0, 79, 0
2, 1183200, Note_on_c, 0, 76, 81
2, 1183680, Note_on_c, 0, 76, 0
2, 1183680, Note_on_c, 0, 81, 83
2, 1183920, Note_on_c, 0, 81, 0
2, 1183920, Note_on_c, 0, 78, 83
2, 1184400, Note_on_c, 0, 78, 0
2, 1184400, Note_on_c, 0, 79, 85
2, 1184640, Note_on_c, 0, 79, 0
2, 1184640, Note_on_c, 0, 76, 86
2, 1185120, Note_on_c, 0, 76, 0
2, 1185120, Note_on_c, 0, 81, 87
2, 1185360, Note_on_c, 0, 81, 0
2, 1185360, Note_on_c, 0, 78, 88
2, 1185600, Note_on_c, 0, 78, 0
2, 1185600, Note_on_c, 0, 79, 89
2, 1185756, Note_on_c, 0, 79, 0
2, 1185840, Note_on_c, 0, 76, 90
2, 1186080, Note_on_c, 0, 76, 0
2, 1186080, Note_on_c, 0, 78, 91
2, 1186236, Note_on_c, 0, 78, 0
2, 1186320, Note_on_c, 0, 74, 91
2, 1186560, Note_on_c, 0, 74, 0
2, 1186560, Note_on_c, 0, 76, 92
2, 1186716, Note_on_c, 0, 76, 0
2, 1186800, Note_on_c, 0, 73, 93
2, 1187040, Note_on_c, 0, 73, 0
2, 1187040, Note_on_c, 0, 74, 94
2, 1187196, Note_on_c, 0, 74, 0
2, 1187280, Note_on_c, 0, 71, 95
2, 1187520, Note_on_c, 0, 71, 0
2, 1187520, Note_on_c, 0, 73, 95
2, 1187676, Note_on_c, 0, 73, 0
2, 1187760, Note_on_c, 0, 69, 96
2, 1188000, Note_on_c, 0, 69, 0
2, 1188000, Note_on_c, 0, 71, 97
2, 1188156, Note_on_c, 0, 71, 0
2, 1188240, Note_on_c, 0, 67, 98
2, 1188480, Note_on_c, 0, 67, 0
2, 1188480, Note_on_c, 0, 69, 98
2, 1188636, Note_on_c, 0, 69, 0
2, 1188720, Note_on_c, 0, 66, 99
2, 1188960, Note_on_c, 0, 66, 0
2, 1188960, Note_on_c, 0, 67, 100
2, 1189116, Note_on_c, 0, 67, 0
2, 1189200, Note_on_c, 0, 64, 101
2, 1189440, Note_on_c, 0, 64, 0
2, 1189440, Note_on_c, 0, 66, 102
2, 1189596, Note_on_c, 0, 66, 0
2, 1189680, Note_on_c, 0, 62, 102
2, 1189920, Note_on_c, 0, 62, 0
2, 1189920, Note_on_c, 0, 64, 103
2, 1190076, Note_on_c, 0, 64, 0
2, 1190160, Note_on_c, 0, 61, 104
2, 1190400, Note_on_c, 0, 61, 0
2, 1190400, Note_on_c, 0, 62, 105
2, 1190556, Note_on_c, 0, 62, 0
2, 1190640, Note_on_c, 0, 59, 106
2, 1190880, Note_on_c, 0, 59, 0
2, 1190880, Note_on_c, 0, 61, 108
2, 1191036, Note_on_c, 0, 61, 0
2, 1191120, Control_c, 0, 64, 0
2, 1191120, Control_c, 0, 64, 0
2, 1191180, Control_c, 0, 64, 127
2, 1191180, Control_c, 0, 64, 127
2, 1191480, Note_on_c, 0, 66, 103
2, 1191600, Note_on_c, 0, 66, 0
2, 1191600, Note_on_c, 0, 69, 102
2, 1191720, Note_on_c, 0, 69, 0
2, 1191720, Note_on_c, 0, 73, 101
2, 1191840, Note_on_c, 0, 73, 0
2, 1191840, Note_on_c, 0, 76, 100
2, 1191960, Note_on_c, 0, 76, 0
2, 1192200, Note_on_c, 0, 78, 97
2, 1192320, Note_on_c, 0, 78, 0
2, 1192320, Note_on_c, 0, 81, 96
2, 1192440, Note_on_c, 0, 81, 0
2, 1192440, Note_on_c, 0, 85, 95
2, 1192560, Note_on_c, 0, 85, 0
2, 1192560, Note_on_c, 0, 88, 95
2, 1192680, Note_on_c, 0, 88, 0
2, 1194000, Control_c, 0, 64, 0
2, 1194000, Control_c, 0, 64, 0
2, 1194060, Control_c, 0, 64, 127
2, 1194060, Control_c, 0, 64, 127
2, 1194360, Note_on_c, 0, 57, 65
2, 1194480, Note_on_c, 0, 57, 0
2, 1194480, Note_on_c, 0, 61, 65
2, 1194600, Note_on_c, 0, 61, 0
2, 1194600, Note_on_c, 0, 64, 64
2, 1194720, Note_on_c, 0, 64, 0
2, 1194720, Note_on_c, 0, 67, 63
2, 1194840, Note_on_c, 0, 67, 0
2, 1195080, Note_on_c, 0, 69, 60
2, 1195200, Note_on_c, 0, 69, 0
2, 1195200, Note_on_c, 0, 73, 59
2, 1195320, Note_on_c, 0, 73, 0
2, 1195320, Note_on_c, 0, 76, 59
2, 1195440, Note_on_c, 0, 76, 0
2, 1195440, Note_on_c, 0, 79, 58
2, 1195560, Note_on_c, 0, 79, 0
2, 1196880, Control_c, 0, 64, 0
2, 1196880, Control_c, 0, 64, 0
2, 1196940, Control_c, 0, 64, 127
2, 1196940, Control_c, 0, 64, 127
2, 1197240, Note_on_c, 0, 69, 50
2, 1197360, Note_on_c, 0, 69, 0
2, 1197360, Note_on_c, 0, 73, 49
2, 1197480, Note_on_c, 0, 73, 0
2, 1197480, Note_on_c, 0, 76, 49
2, 1197600, Note_on_c, 0, 76, 0
2, 1197600, Note_on_c, 0, 79, 48
2, 1197720, Note_on_c, 0, 79, 0
2, 1198320, Control_c, 0, 64, 0
2, 1198320, Control_c, 0, 64, 0
2, 1198380, Control_c, 0, 64, 127
2, 1198380, Control_c, 0, 64, 127
2, 1198680, Note_on_c, 0, 69, 43
2, 1198800, Note_on_c, 0, 69, 0
2, 1198800, Note_on_c, 0, 73, 42
2, 1198920, Note_on_c, 0, 73, 0
2, 1198920, Note_on_c, 0, 76, 42
2, 1199040, Note_on_c, 0, 76, 0
2, 1199040, Note_on_c, 0, 79, 41
2, 1199520, Note_on_c, 0, 79, 0
2, 1200720, Control_c, 0, 64, 0
2, 1200720, Control_c, 0, 64, 0
2, 1200960, Note_on_c, 0, 79, 48
2, 1201080, Note_on_c, 0, 79, 0
2, 1201080, Note_on_c, 0, 78, 48
2, 1201200, Note_on_c, 0, 78, 0
2, 1201200, Note_on_c, 0, 77, 48
2, 1201320, Note_on_c, 0, 77, 0
2, 1201320, Note_on_c, 0, 78, 49
2, 1201440, Note_on_c, 0, 78, 0
2, 1201440, Note_on_c, 0, 79, 49
2, 1201560, Note_on_c, 0, 79, 0
2, 1201560, Note_on_c, 0, 78, 49
2, 1201680, Note_on_c, 0, 78, 0
2, 1201680, Note_on_c, 0, 86, 50
2, 1201800, Note_on_c, 0, 86, 0
2, 1201800, Note_on_c, 0, 78, 50
2, 1201920, Note_on_c, 0, 78, 0
2, 1201920, Note_on_c, 0, 81, 50
2, 1202040, Note_on_c, 0, 81, 0
2, 1202040, Note_on_c, 0, 79, 51
2, 1202160, Note_on_c, 0, 79, 0
2, 1202160, Note_on_c, 0, 78, 51
2, 1202280, Note_on_c, 0, 78, 0
2, 1202280, Note_on_c, 0, 79, 51
2, 1202400, Note_on_c, 0, 79, 0
2, 1202400, Note_on_c, 0, 86, 52
2, 1202520, Note_on_c, 0, 86, 0
2, 1202520, Note_on_c, 0, 79, 52
2, 1202640, Note_on_c, 0, 79, 0
2, 1202640, Note_on_c, 0, 81, 52
2, 1202760, Note_on_c, 0, 81, 0
2, 1202760, Note_on_c, 0, 79, 53
2, 1202880, Note_on_c, 0, 79, 0
2, 1202880, Note_on_c, 0, 78, 53
2, 1203000, Note_on_c, 0, 78, 0
2, 1203000, Note_on_c, 0, 79, 53
2, 1203120, Note_on_c, 0, 79, 0
2, 1203120, Note_on_c, 0, 88, 54
2, 1203240, Note_on_c, 0, 88, 0
2, 1203240, Note_on_c, 0, 79, 54
2, 1203360, Note_on_c, 0, 79, 0
2, 1203360, Note_on_c, 0, 79, 54
2, 1203480, Note_on_c, 0, 79, 0
2, 1203480, Note_on_c, 0, 78, 55
2, 1203600, Note_on_c, 0, 78, 0
2, 1203600, Note_on_c, 0, 77, 55
2, 1203720, Note_on_c, 0, 77, 0
2, 1203720, Note_on_c, 0, 78, 56
2, 1203840, Note_on_c, 0, 78, 0
2, 1203840, Note_on_c, 0, 86, 56
2, 1203960, Note_on_c, 0, 86, 0
2, 1203960, Note_on_c, 0, 78, 56
2, 1204080, Note_on_c, 0, 78, 0
2, 1204080, Note_on_c, 0, 76, 57
2, 1204200, Note_on_c, 0, 76, 0
2, 1204200, Note_on_c, 0, 74, 57
2, 1204320, Note_on_c, 0, 74, 0
2, 1204320, Note_on_c, 0, 73, 57
2, 1204440, Note_on_c, 0, 73, 0
2, 1204440, Note_on_c, 0, 74, 58
2, 1204560, Note_on_c, 0, 74, 0
2, 1204560, Note_on_c, 0, 86, 58
2, 1204680, Note_on_c, 0, 86, 0
2, 1204680, Note_on_c, 0, 74, 58
2, 1204800, Note_on_c, 0, 74, 0
2, 1204800, Note_on_c, 0, 73, 59
2, 1204920, Note_on_c, 0, 73, 0
2, 1204920, Note_on_c, 0, 71, 59
2, 1205040, Note_on_c, 0, 71, 0
2, 1205040, Note_on_c, 0, 70, 59
2, 1205160, Note_on_c, 0, 70, 0
2, 1205160, Note_on_c, 0, 71, 60
2, 1205280, Note_on_c, 0, 71, 0
2, 1205280, Note_on_c, 0, 83, 60
2, 1205400, Note_on_c, 0, 83, 0
2, 1205400, Note_on_c, 0, 71, 60
2, 1205520, Note_on_c, 0, 71, 0
2, 1205520, Note_on_c, 0, 69, 61
2, 1205640, Note_on_c, 0, 69, 0
2, 1205640, Note_on_c, 0, 67, 61
2, 1205760, Note_on_c, 0, 67, 0
2, 1205760, Note_on_c, 0, 66, 61
2, 1205880, Note_on_c, 0, 66, 0
2, 1205880, Note_on_c, 0, 67, 62
2, 1206000, Note_on_c, 0, 67, 0
2, 1206000, Note_on_c, 0, 79, 62
2, 1206120, Note_on_c, 0, 79, 0
2, 1206120, Note_on_c, 0, 67, 62
2, 1206240, Note_on_c, 0, 67, 0
2, 1206240, Note_on_c, 0, 66, 63
2, 1206360, Note_on_c, 0, 66, 0
2, 1206360, Note_on_c, 0, 69, 63
2, 1206480, Note_on_c, 0, 69, 0
2, 1206480, Note_on_c, 0, 74, 64
2, 1206600, Note_on_c, 0, 74, 0
2, 1206600, Note_on_c, 0, 78, 64
2, 1206720, Note_on_c, 0, 78, 0
2, 1206720, Note_on_c, 0, 81, 64
2, 1206840, Note_on_c, 0, 81, 0
2, 1206840, Note_on_c, 0, 79, 65
2, 1206960, Note_on_c, 0, 79, 0
2, 1206960, Note_on_c, 0, 79, 65
2, 1207080, Note_on_c, 0, 79, 0
2, 1207080, Note_on_c, 0, 78, 65
2, 1207200, Note_on_c, 0, 78, 0
2, 1207200, Note_on_c, 0, 77, 66
2, 1207320, Note_on_c, 0, 77, 0
2, 1207320, Note_on_c, 0, 78, 66
2, 1207440, Note_on_c, 0, 78, 0
2, 1207440, Note_on_c, 0, 86, 66
2, 1207560, Note_on_c, 0, 86, 0
2, 1207560, Note_on_c, 0, 78, 67
2, 1207680, Note_on_c, 0, 78, 0
2, 1207680, Note_on_c, 0, 81, 67
2, 1207800, Note_on_c, 0, 81, 0
2, 1207800, Note_on_c, 0, 79, 67
2, 1207920, Note_on_c, 0, 79, 0
2, 1207920, Note_on_c, 0, 78, 68
2, 1208040, Note_on_c, 0, 78, 0
2, 1208040, Note_on_c, 0, 79, 68
2, 1208160, Note_on_c, 0, 79, 0
2, 1208160, Note_on_c, 0, 86, 68
2, 1208280, Note_on_c, 0, 86, 0
2, 1208280, Note_on_c, 0, 79, 69
2, 1208400, Note_on_c, 0, 79, 0
2, 1208400, Note_on_c, 0, 81, 69
2, 1208520, Note_on_c, 0, 81, 0
2, 1208520, Note_on_c, 0, 79, 69
2, 1208640, Note_on_c, 0, 79, 0
2, 1208640, Note_on_c, 0, 78, 70
2, 1208760, Note_on_c, 0, 78, 0
2, 1208760, Note_on_c, 0, 79, 70
2, 1208880, Note_on_c, 0, 79, 0
2, 1208880, Note_on_c, 0, 88, 70
2, 1209000, Note_on_c, 0, 88, 0
2, 1209000, Note_on_c, 0, 79, 71
2, 1209120, Note_on_c, 0, 79, 0
2, 1209120, Note_on_c, 0, 79, 71
2, 1209240, Note_on_c, 0, 79, 0
2, 1209240, Note_on_c, 0, 78, 71
2, 1209360, Note_on_c, 0, 78, 0
2, 1209360, Note_on_c, 0, 77, 72
2, 1209480, Note_on_c, 0, 77, 0
2, 1209480, Note_on_c, 0, 78, 72
2, 1209600, Note_on_c, 0, 78, 0
2, 1209600, Note_on_c, 0, 86, 73
2, 1209720, Note_on_c, 0, 86, 0
2, 1209720, Note_on_c, 0, 77, 73
2, 1209840, Note_on_c, 0, 77, 0
2, 1209840, Note_on_c, 0, 76, 73
2, 1209960, Note_on_c, 0, 76, 0
2, 1209960, Note_on_c, 0, 74, 74
2, 1210080, Note_on_c, 0, 74, 0
2, 1210080, Note_on_c, 0, 73, 74
2, 1210200, Note_on_c, 0, 73, 0
2, 1210200, Note_on_c, 0, 74, 74
2, 1210320, Note_on_c, 0, 74, 0
2, 1210320, Note_on_c, 0, 86, 75
2, 1210440, Note_on_c, 0, 86, 0
2, 1210440, Note_on_c, 0, 74, 75
2, 1210560, Note_on_c, 0, 74, 0
2, 1210560, Note_on_c, 0, 73, 75
2, 1210680, Note_on_c, 0, 73, 0
2, 1210680, Note_on_c, 0, 71, 76
2, 1210800, Note_on_c, 0, 71, 0
2, 1210800, Note_on_c, 0, 70, 76
2, 1210920, Note_on_c, 0, 70, 0
2, 1210920, Note_on_c, 0, 71, 76
2, 1211040, Note_on_c, 0, 71, 0
2, 1211040, Note_on_c, 0, 83, 77
2, 1211160, Note_on_c, 0, 83, 0
2, 1211160, Note_on_c, 0, 71, 77
2, 1211280, Note_on_c, 0, 71, 0
2, 1211280, Note_on_c, 0, 69, 77
2, 1211400, Note_on_c, 0, 69, 0
2, 1211400, Note_on_c, 0, 67, 78
2, 1211520, Note_on_c, 0, 67, 0
2, 1211520, Note_on_c, 0, 66, 78
2, 1211640, Note_on_c, 0, 66, 0
2, 1211640, Note_on_c, 0, 67, 78
2, 1211760, Note_on_c, 0, 67, 0
2, 1211760, Note_on_c, 0, 79, 79
2, 1211880, Note_on_c, 0, 79, 0
2, 1211880, Note_on_c, 0, 67, 79
2, 1212000, Note_on_c, 0, 67, 0
2, 1212000, Note_on_c, 0, 66, 79
2, 1212120, Note_on_c, 0, 66, 0
2, 1212120, Note_on_c, 0, 69, 80
2, 1212240, Note_on_c, 0, 69, 0
2, 1212240, Note_on_c, 0, 74, 80
2, 1212360, Note_on_c, 0, 74, 0
2, 1212360, Note_on_c, 0, 78, 81
2, 1212480, Note_on_c, 0, 78, 0
2, 1212480, Note_on_c, 0, 81, 81
2, 1212600, Note_on_c, 0, 81, 0
2, 1212600, Note_on_c, 0, 78, 81
2, 1212720, Note_on_c, 0, 78, 0
2, 1212720, Note_on_c, 0, 76, 82
2, 1212840, Note_on_c, 0, 76, 0
2, 1212840, Note_on_c, 0, 74, 82
2, 1212960, Note_on_c, 0, 74, 0
2, 1212960, Note_on_c, 0, 73, 82
2, 1213080, Note_on_c, 0, 73, 0
2, 1213080, Note_on_c, 0, 74, 83
2, 1213200, Note_on_c, 0, 74, 0
2, 1213200, Note_on_c, 0, 86, 83
2, 1213320, Note_on_c, 0, 86, 0
2, 1213320, Note_on_c, 0, 74, 83
2, 1213440, Note_on_c, 0, 74, 0
2, 1213440, Note_on_c, 0, 73, 84
2, 1213560, Note_on_c, 0, 73, 0
2, 1213560, Note_on_c, 0, 71, 84
2, 1213680, Note_on_c, 0, 71, 0
2, 1213680, Note_on_c, 0, 70, 84
2, 1213800, Note_on_c, 0, 70, 0
2, 1213800, Note_on_c, 0, 71, 85
2, 1213920, Note_on_c, 0, 71, 0
2, 1213920, Note_on_c, 0, 83, 85
2, 1214040, Note_on_c, 0, 83, 0
2, 1214040, Note_on_c, 0, 71, 85
2, 1214160, Note_on_c, 0, 71, 0
2, 1214160, Note_on_c, 0, 69, 86
2, 1214280, Note_on_c, 0, 69, 0
2, 1214280, Note_on_c, 0, 67, 86
2, 1214400, Note_on_c, 0, 67, 0
2, 1214400, Note_on_c, 0, 66, 86
2, 1214520, Note_on_c, 0, 66, 0
2, 1214520, Note_on_c, 0, 67, 87
2, 1214640, Note_on_c, 0, 67, 0
2, 1214640, Note_on_c, 0, 79, 87
2, 1214760, Note_on_c, 0, 79, 0
2, 1214760, Note_on_c, 0, 67, 87
2, 1214880, Note_on_c, 0, 67, 0
2, 1214880, Note_on_c, 0, 66, 88
2, 1215000, Note_on_c, 0, 66, 0
2, 1215000, Note_on_c, 0, 69, 88
2, 1215120, Note_on_c, 0, 69, 0
2, 1215120, Note_on_c, 0, 74, 88
2, 1215240, Note_on_c, 0, 74, 0
2, 1215240, Note_on_c, 0, 78, 89
2, 1215360, Note_on_c, 0, 78, 0
2, 1215360, Note_on_c, 0, 81, 89
2, 1215480, Note_on_c, 0, 81, 0
2, 1215480, Note_on_c, 0, 78, 90
2, 1215600, Note_on_c, 0, 78, 0
2, 1215600, Note_on_c, 0, 76, 90
2, 1215720, Note_on_c, 0, 76, 0
2, 1215720, Note_on_c, 0, 74, 90
2, 1215840, Note_on_c, 0, 74, 0
2, 1215840, Note_on_c, 0, 73, 91
2, 1215960, Note_on_c, 0, 73, 0
2, 1215960, Note_on_c, 0, 74, 91
2, 1216080, Note_on_c, 0, 74, 0
2, 1216080, Note_on_c, 0, 86, 91
2, 1216200, Note_on_c, 0, 86, 0
2, 1216200, Note_on_c, 0, 74, 92
2, 1216320, Note_on_c, 0, 74, 0
2, 1216320, Note_on_c, 0, 73, 92
2, 1216440, Note_on_c, 0, 73, 0
2, 1216440, Note_on_c, 0, 71, 92
2, 1216560, Note_on_c, 0, 71, 0
2, 1216560, Note_on_c, 0, 70, 93
2, 1216680, Note_on_c, 0, 70, 0
2, 1216680, Note_on_c, 0, 71, 93
2, 1216800, Note_on_c, 0, 71, 0
2, 1216800, Note_on_c, 0, 83, 93
2, 1216920, Note_on_c, 0, 83, 0
2, 1216920, Note_on_c, 0, 71, 94
2, 1217040, Note_on_c, 0, 71, 0
2, 1217040, Note_on_c, 0, 69, 94
2, 1217160, Note_on_c, 0, 69, 0
2, 1217160, Note_on_c, 0, 67, 94
2, 1217280, Note_on_c, 0, 67, 0
2, 1217280, Note_on_c, 0, 66, 95
2, 1217400, Note_on_c, 0, 66, 0
2, 1217400, Note_on_c, 0, 67, 95
2, 1217520, Note_on_c, 0, 67, 0
2, 1217520, Note_on_c, 0, 79, 95
2, 1217640, Note_on_c, 0, 79, 0
2, 1217640, Note_on_c, 0, 67, 96
2, 1217760, Note_on_c, 0, 67, 0
2, 1217760, Note_on_c, 0, 66, 96
2, 1217880, Note_on_c, 0, 66, 0
2, 1217880, Note_on_c, 0, 69, 96
2, 1218000, Note_on_c, 0, 69, 0
2, 1218000, Note_on_c, 0, 74, 97
2, 1218120, Note_on_c, 0, 74, 0
2, 1218120, Note_on_c, 0, 78, 97
2, 1218240, Note_on_c, 0, 78, 0
2, 1218240, Note_on_c, 0, 81, 98
2, 1218360, Note_on_c, 0, 81, 0
2, 1218360, Note_on_c, 0, 66, 98
2, 1218480, Note_on_c, 0, 66, 0
2, 1218480, Note_on_c, 0, 69, 98
2, 1218600, Note_on_c, 0, 69, 0
2, 1218600, Note_on_c, 0, 67, 99
2, 1218720, Note_on_c, 0, 67, 0
2, 1218720, Note_on_c, 0, 66, 99
2, 1218840, Note_on_c, 0, 66, 0
2, 1218840, Note_on_c, 0, 67, 99
2, 1218960, Note_on_c, 0, 67, 0
2, 1218960, Note_on_c, 0, 79, 100
2, 1219080, Note_on_c, 0, 79, 0
2, 1219080, Note_on_c, 0, 67, 100
2, 1219200, Note_on_c, 0, 67, 0
2, 1219200, Note_on_c, 0, 66, 100
2, 1219320, Note_on_c, 0, 66, 0
2, 1219320, Note_on_c, 0, 69, 101
2, 1219440, Note_on_c, 0, 69, 0
2, 1219440, Note_on_c, 0, 74, 101
2, 1219560, Note_on_c, 0, 74, 0
2, 1219560, Note_on_c, 0, 78, 101
2, 1219680, Note_on_c, 0, 78, 0
2, 1219680, Note_on_c, 0, 81, 102
2, 1219800, Note_on_c, 0, 81, 0
2, 1219800, Note_on_c, 0, 66, 102
2, 1219920, Note_on_c, 0, 66, 0
2, 1219920, Note_on_c, 0, 69, 102
2, 1220040, Note_on_c, 0, 69, 0
2, 1220040, Note_on_c, 0, 67, 103
2, 1220160, Note_on_c, 0, 67, 0
2, 1220160, Note_on_c, 0, 73, 103
2, 1220280, Note_on_c, 0, 73, 0
2, 1220280, Note_on_c, 0, 67, 103
2, 1220400, Note_on_c, 0, 67, 0
2, 1220400, Note_on_c, 0, 76, 104
2, 1220520, Note_on_c, 0, 76, 0
2, 1220520, Note_on_c, 0, 73, 104
2, 1220640, Note_on_c, 0, 73, 0
2, 1220640, Note_on_c, 0, 79, 104
2, 1220760, Note_on_c, 0, 79, 0
2, 1220760, Note_on_c, 0, 76, 105
2, 1220880, Note_on_c, 0, 76, 0
2, 1220880, Note_on_c, 0, 85, 105
2, 1221000, Note_on_c, 0, 85, 0
2, 1221000, Note_on_c, 0, 79, 105
2, 1221120, Note_on_c, 0, 79, 0
2, 1221120, Note_on_c, 0, 88, 106
2, 1221240, Note_on_c, 0, 88, 0
2, 1221240, Note_on_c, 0, 85, 106
2, 1221360, Note_on_c, 0, 85, 0
2, 1221360, Note_on_c, 0, 86, 107
2, 1221480, Note_on_c, 0, 86, 0
2, 1221480, Note_on_c, 0, 81, 107
2, 1221600, Note_on_c, 0, 81, 0
2, 1221600, Note_on_c, 0, 78, 107
2, 1221720, Note_on_c, 0, 78, 0
2, 1221720, Note_on_c, 0, 86, 109
2, 1221840, Note_on_c, 0, 86, 0
2, 1221840, Note_on_c, 0, 81, 109
2, 1221960, Note_on_c, 0, 81, 0
2, 1221960, Note_on_c, 0, 78, 110
2, 1222080, Note_on_c, 0, 78, 0
2, 1222080, Note_on_c, 0, 74, 110
2, 1222200, Note_on_c, 0, 74, 0
2, 1222200, Note_on_c, 0, 81, 111
2, 1222320, Note_on_c, 0, 81, 0
2, 1222320, Note_on_c, 0, 78, 111
2, 1222440, Note_on_c, 0, 78, 0
2, 1222440, Note_on_c, 0, 74, 112
2, 1222560, Note_on_c, 0, 74, 0
2, 1222560, Note_on_c, 0, 69, 112
2, 1222680, Note_on_c, 0, 69, 0
2, 1222680, Note_on_c, 0, 78, 113
2, 1222800, Note_on_c, 0, 78, 0
2, 1222800, Note_on_c, 0, 74, 113
2, 1222920, Note_on_c, 0, 74, 0
2, 1222920, Note_on_c, 0, 69, 114
2, 1223040, Note_on_c, 0, 69, 0
2, 1223040, Note_on_c, 0, 66, 114
2, 1223160, Note_on_c, 0, 66, 0
2, 1223160, Note_on_c, 0, 74, 115
2, 1223280, Note_on_c, 0, 74, 0
2, 1223280, Note_on_c, 0, 69, 115
2, 1223400, Note_on_c, 0, 69, 0
2, 1223400, Note_on_c, 0, 66, 116
2, 1223520, Note_on_c, 0, 66, 0
2, 1223520, Note_on_c, 0, 62, 116
2, 1223640, Note_on_c, 0, 62, 0
2, 1223640, Note_on_c, 0, 69, 117
2, 1223760, Note_on_c, 0, 69, 0
2, 1223760, Note_on_c, 0, 66, 117
2, 1223880, Note_on_c, 0, 66, 0
2, 1223880, Note_on_c, 0, 62, 118
2, 1224000, Note_on_c, 0, 62, 0
2, 1224000, Note_on_c, 0, 57, 118
2, 1224120, Note_on_c, 0, 57, 0
2, 1224120, Note_on_c, 0, 54, 119
2, 1224240, Note_on_c, 0, 54, 0
2, 1224240, Note_on_c, 0, 50, 119
2, 1224720, Note_on_c, 0, 50, 0
2, 1224960, Note_on_c, 0, 67, 121
2, 1224960, Note_on_c, 0, 73, 121
2, 1224960, Note_on_c, 0, 79, 121
2, 1225440, Note_on_c, 0, 79, 0
2, 1225440, Note_on_c, 0, 73, 0
2, 1225440, Note_on_c, 0, 67, 0
2, 1225680, Note_on_c, 0, 74, 125
2, 1225680, Note_on_c, 0, 78, 125
2, 1225680, Note_on_c, 0, 66, 125
2, 1226160, Note_on_c, 0, 66, 0
2, 1226160, Note_on_c, 0, 78, 0
2, 1226160, Note_on_c, 0, 74, 0
2, 1226160, End_track
3, 0, Start_track
3, 0, Title_t, "Piano Sonata No-15"
3, 0, Program_c, 0, 0
3, 0, Control_c, 0, 7, 115
3, 0, Control_c, 0, 10, 73
3, 0, Control_c, 0, 91, 91
3, 0, Control_c, 0, 93, 28
3, 0, Sequencer_specific, 5, 5, 15, 9, 0, 64
3, 0, Sequencer_specific, 15, 5, 15, 6, 71, 101, 110, 101, 114, 97, 108, 32, 77, 73, 68, 73
3, 0, Program_c, 0, 0
3, 0, Control_c, 0, 64, 0
3, 0, Control_c, 0, 1, 0
3, 0, Pitch_bend_c, 0, 8192
3, 2880, Note_on_c, 0, 60, 65
3, 2880, Note_on_c, 0, 66, 65
3, 4320, Note_on_c, 0, 66, 0
3, 4320, Note_on_c, 0, 60, 0
3, 4320, Note_on_c, 0, 59, 67
3, 4320, Note_on_c, 0, 62, 67
3, 6720, Note_on_c, 0, 62, 0
3, 6720, Note_on_c, 0, 59, 0
3, 6720, Note_on_c, 0, 55, 71
3, 6720, Note_on_c, 0, 59, 71
3, 7200, Note_on_c, 0, 59, 0
3, 7200, Note_on_c, 0, 55, 0
3, 7200, Note_on_c, 0, 55, 72
3, 8640, Note_on_c, 0, 55, 0
3, 8640, Note_on_c, 0, 55, 75
3, 10080, Note_on_c, 0, 55, 0
3, 10080, Note_on_c, 0, 54, 77
3, 11520, Note_on_c, 0, 54, 0
3, 11520, Note_on_c, 0, 57, 80
3, 12960, Note_on_c, 0, 57, 0
3, 12960, Note_on_c, 0, 61, 81
3, 13920, Note_on_c, 0, 61, 0
3, 13920, Note_on_c, 0, 62, 73
3, 14160, Note_on_c, 0, 62, 0
3, 14160, Note_on_c, 0, 64, 71
3, 14400, Note_on_c, 0, 64, 0
3, 14400, Note_on_c, 0, 62, 67
3, 14760, Note_on_c, 0, 62, 0
3, 17280, Note_on_c, 0, 72, 61
3, 18720, Note_on_c, 0, 72, 0
3, 18720, Note_on_c, 0, 71, 63
3, 20160, Note_on_c, 0, 71, 0
3, 20160, Note_on_c, 0, 67, 64
3, 21600, Note_on_c, 0, 67, 0
3, 21600, Note_on_c, 0, 67, 66
3, 23040, Note_on_c, 0, 67, 0
3, 23040, Note_on_c, 0, 67, 68
3, 24480, Note_on_c, 0, 67, 0
3, 24480, Note_on_c, 0, 66, 70
3, 25920, Note_on_c, 0, 66, 0
3, 25920, Note_on_c, 0, 69, 72
3, 27360, Note_on_c, 0, 69, 0
3, 27360, Note_on_c, 0, 73, 73
3, 28320, Note_on_c, 0, 73, 0
3, 28320, Note_on_c, 0, 74, 67
3, 28560, Note_on_c, 0, 74, 0
3, 28560, Note_on_c, 0, 76, 65
3, 28800, Note_on_c, 0, 76, 0
3, 28800, Note_on_c, 0, 74, 64
3, 29160, Note_on_c, 0, 74, 0
3, 30240, Note_on_c, 0, 57, 67
3, 32160, Note_on_c, 0, 57, 0
3, 32160, Note_on_c, 0, 59, 77
3, 32640, Note_on_c, 0, 59, 0
3, 32640, Note_on_c, 0, 60, 79
3, 33120, Note_on_c, 0, 60, 0
3, 33120, Note_on_c, 0, 62, 81
3, 35520, Note_on_c, 0, 62, 0
3, 35520, Note_on_c, 0, 60, 86
3, 36000, Note_on_c, 0, 60, 0
3, 36000, Note_on_c, 0, 59, 85
3, 37440, Note_on_c, 0, 59, 0
3, 41760, Note_on_c, 0, 62, 77
3, 43680, Note_on_c, 0, 62, 0
3, 43680, Note_on_c, 0, 64, 88
3, 44160, Note_on_c, 0, 64, 0
3, 44160, Note_on_c, 0, 66, 90
3, 44640, Note_on_c, 0, 66, 0
3, 44640, Note_on_c, 0, 69, 93
3, 45120, Note_on_c, 0, 69, 0
3, 45120, Note_on_c, 0, 67, 100
3, 47040, Note_on_c, 0, 67, 0
3, 47040, Note_on_c, 0, 66, 97
3, 48000, Note_on_c, 0, 66, 0
3, 48000, Note_on_c, 0, 64, 95
3, 48480, Note_on_c, 0, 64, 0
3, 48480, Note_on_c, 0, 62, 101
3, 49440, Note_on_c, 0, 62, 0
3, 49440, Note_on_c, 0, 61, 93
3, 49920, Note_on_c, 0, 61, 0
3, 49920, Note_on_c, 0, 57, 98
3, 50640, Note_on_c, 0, 57, 0
3, 51840, Note_on_c, 0, 69, 89
3, 52320, Note_on_c, 0, 69, 0
3, 52320, Note_on_c, 0, 67, 92
3, 52800, Note_on_c, 0, 67, 0
3, 52800, Note_on_c, 0, 66, 93
3, 53760, Note_on_c, 0, 66, 0
3, 53760, Note_on_c, 0, 64, 94
3, 54240, Note_on_c, 0, 64, 0
3, 54240, Note_on_c, 0, 62, 100
3, 55200, Note_on_c, 0, 62, 0
3, 55200, Note_on_c, 0, 61, 96
3, 55680, Note_on_c, 0, 61, 0
3, 55680, Note_on_c, 0, 64, 101
3, 56160, Note_on_c, 0, 64, 0
3, 56160, Note_on_c, 0, 62, 95
3, 56520, Note_on_c, 0, 62, 0
3, 57600, Note_on_c, 0, 66, 99
3, 59040, Note_on_c, 0, 66, 0
3, 59040, Note_on_c, 0, 64, 89
3, 60480, Note_on_c, 0, 64, 0
3, 60480, Note_on_c, 0, 62, 83
3, 60960, Note_on_c, 0, 62, 0
3, 63360, Note_on_c, 0, 73, 91
3, 64800, Note_on_c, 0, 73, 0
3, 64800, Note_on_c, 0, 71, 81
3, 66240, Note_on_c, 0, 71, 0
3, 66240, Note_on_c, 0, 69, 75
3, 66720, Note_on_c, 0, 69, 0
3, 69120, Note_on_c, 0, 66, 88
3, 70560, Note_on_c, 0, 66, 0
3, 70560, Note_on_c, 0, 66, 76
3, 70800, Note_on_c, 0, 66, 0
3, 70800, Note_on_c, 0, 64, 76
3, 71040, Note_on_c, 0, 64, 0
3, 71040, Note_on_c, 0, 63, 75
3, 71280, Note_on_c, 0, 63, 0
3, 71280, Note_on_c, 0, 64, 75
3, 71520, Note_on_c, 0, 64, 0
3, 71520, Note_on_c, 0, 66, 74
3, 71760, Note_on_c, 0, 66, 0
3, 71760, Note_on_c, 0, 64, 74
3, 72000, Note_on_c, 0, 64, 0
3, 72000, Note_on_c, 0, 62, 73
3, 72480, Note_on_c, 0, 62, 0
3, 74880, Note_on_c, 0, 73, 79
3, 76320, Note_on_c, 0, 73, 0
3, 76320, Note_on_c, 0, 73, 68
3, 76560, Note_on_c, 0, 73, 0
3, 76560, Note_on_c, 0, 71, 68
3, 76800, Note_on_c, 0, 71, 0
3, 76800, Note_on_c, 0, 70, 68
3, 77040, Note_on_c, 0, 70, 0
3, 77040, Note_on_c, 0, 71, 67
3, 77280, Note_on_c, 0, 71, 0
3, 77280, Note_on_c, 0, 73, 67
3, 77520, Note_on_c, 0, 73, 0
3, 77520, Note_on_c, 0, 71, 67
3, 77760, Note_on_c, 0, 71, 0
3, 77760, Note_on_c, 0, 69, 73
3, 78240, Note_on_c, 0, 69, 0
3, 90720, Note_on_c, 0, 59, 51
3, 90720, Note_on_c, 0, 56, 51
3, 92160, Note_on_c, 0, 56, 0
3, 92160, Note_on_c, 0, 59, 0
3, 92160, Note_on_c, 0, 57, 53
3, 92160, Note_on_c, 0, 61, 53
3, 93600, Note_on_c, 0, 61, 0
3, 93600, Note_on_c, 0, 57, 0
3, 93600, Note_on_c, 0, 59, 54
3, 93600, Note_on_c, 0, 65, 54
3, 95040, Note_on_c, 0, 65, 0
3, 95040, Note_on_c, 0, 59, 0
3, 95040, Note_on_c, 0, 61, 56
3, 95040, Note_on_c, 0, 66, 56
3, 96480, Note_on_c, 0, 66, 0
3, 96480, Note_on_c, 0, 61, 0
3, 96480, Note_on_c, 0, 61, 58
3, 96480, Note_on_c, 0, 64, 58
3, 96480, Note_on_c, 0, 67, 58
3, 97920, Note_on_c, 0, 67, 0
3, 97920, Note_on_c, 0, 64, 0
3, 97920, Note_on_c, 0, 61, 0
3, 97920, Note_on_c, 0, 62, 61
3, 97920, Note_on_c, 0, 66, 61
3, 99360, Note_on_c, 0, 66, 0
3, 99360, Note_on_c, 0, 62, 0
3, 99360, Note_on_c, 0, 64, 66
3, 99360, Note_on_c, 0, 61, 66
3, 100320, Note_on_c, 0, 61, 0
3, 100320, Note_on_c, 0, 64, 0
3, 100320, Note_on_c, 0, 62, 60
3, 100320, Note_on_c, 0, 59, 60
3, 100800, Note_on_c, 0, 59, 0
3, 100800, Note_on_c, 0, 62, 0
3, 100800, Note_on_c, 0, 61, 58
3, 100980, Note_on_c, 0, 61, 0
3, 102240, Note_on_c, 0, 53, 57
3, 103680, Note_on_c, 0, 53, 0
3, 103680, Note_on_c, 0, 54, 60
3, 105120, Note_on_c, 0, 54, 0
3, 105120, Note_on_c, 0, 65, 63
3, 105120, Note_on_c, 0, 53, 63
3, 105120, Note_on_c, 0, 56, 63
3, 106560, Note_on_c, 0, 56, 0
3, 106560, Note_on_c, 0, 53, 0
3, 106560, Note_on_c, 0, 65, 0
3, 106560, Note_on_c, 0, 66, 66
3, 106560, Note_on_c, 0, 54, 66
3, 106560, Note_on_c, 0, 57, 66
3, 108000, Note_on_c, 0, 57, 0
3, 108000, Note_on_c, 0, 54, 0
3, 108000, Note_on_c, 0, 66, 0
3, 108000, Note_on_c, 0, 66, 69
3, 108000, Note_on_c, 0, 54, 69
3, 108000, Note_on_c, 0, 59, 69
3, 109440, Note_on_c, 0, 59, 0
3, 109440, Note_on_c, 0, 54, 0
3, 109440, Note_on_c, 0, 66, 0
3, 109440, Note_on_c, 0, 66, 72
3, 109440, Note_on_c, 0, 54, 72
3, 109440, Note_on_c, 0, 60, 72
3, 110880, Note_on_c, 0, 60, 0
3, 110880, Note_on_c, 0, 54, 0
3, 110880, Note_on_c, 0, 66, 0
3, 188640, Note_on_c, 0, 73, 122
3, 192000, Note_on_c, 0, 73, 0
3, 192000, Note_on_c, 0, 71, 82
3, 192480, Note_on_c, 0, 71, 0
3, 192480, Note_on_c, 0, 69, 78
3, 192960, Note_on_c, 0, 69, 0
3, 192960, Note_on_c, 0, 69, 75
3, 193920, Note_on_c, 0, 69, 0
3, 193920, Note_on_c, 0, 68, 68
3, 194400, Note_on_c, 0, 68, 0
3, 206880, Note_on_c, 0, 64, 61
3, 208320, Note_on_c, 0, 64, 0
3, 208320, Note_on_c, 0, 52, 63
3, 209760, Note_on_c, 0, 52, 0
3, 209760, Note_on_c, 0, 57, 65
3, 210720, Note_on_c, 0, 57, 0
3, 210720, Note_on_c, 0, 56, 62
3, 211200, Note_on_c, 0, 56, 0
3, 211200, Note_on_c, 0, 62, 67
3, 212160, Note_on_c, 0, 62, 0
3, 212160, Note_on_c, 0, 61, 65
3, 212640, Note_on_c, 0, 61, 0
3, 212640, Note_on_c, 0, 69, 69
3, 214080, Note_on_c, 0, 69, 0
3, 214080, Note_on_c, 0, 57, 71
3, 215520, Note_on_c, 0, 57, 0
3, 215520, Note_on_c, 0, 66, 84
3, 216480, Note_on_c, 0, 66, 0
3, 216480, Note_on_c, 0, 64, 81
3, 216720, Note_on_c, 0, 64, 0
3, 216960, Note_on_c, 0, 62, 79
3, 217200, Note_on_c, 0, 62, 0
3, 217440, Note_on_c, 0, 61, 77
3, 217920, Note_on_c, 0, 61, 0
3, 218400, Note_on_c, 0, 69, 77
3, 219840, Note_on_c, 0, 69, 0
3, 219840, Note_on_c, 0, 57, 79
3, 219840, Note_on_c, 0, 69, 79
3, 221280, Note_on_c, 0, 69, 0
3, 221280, Note_on_c, 0, 57, 0
3, 221280, Note_on_c, 0, 66, 92
3, 222240, Note_on_c, 0, 66, 0
3, 222240, Note_on_c, 0, 64, 89
3, 222480, Note_on_c, 0, 64, 0
3, 222720, Note_on_c, 0, 62, 88
3, 222960, Note_on_c, 0, 62, 0
3, 223200, Note_on_c, 0, 61, 87
3, 223680, Note_on_c, 0, 61, 0
3, 224160, Note_on_c, 0, 66, 102
3, 224880, Note_on_c, 0, 66, 0
3, 225120, Note_on_c, 0, 64, 93
3, 225360, Note_on_c, 0, 64, 0
3, 225600, Note_on_c, 0, 62, 91
3, 225840, Note_on_c, 0, 62, 0
3, 226080, Note_on_c, 0, 61, 89
3, 226560, Note_on_c, 0, 61, 0
3, 237600, Note_on_c, 0, 50, 69
3, 237600, Note_on_c, 0, 57, 69
3, 237600, Note_on_c, 0, 60, 69
3, 240480, Note_on_c, 0, 60, 0
3, 240480, Note_on_c, 0, 57, 0
3, 240480, Note_on_c, 0, 50, 0
3, 240480, Note_on_c, 0, 59, 56
3, 240480, Note_on_c, 0, 55, 56
3, 240480, Note_on_c, 0, 50, 56
3, 240960, Note_on_c, 0, 50, 0
3, 240960, Note_on_c, 0, 55, 0
3, 240960, Note_on_c, 0, 59, 0
3, 241920, Note_on_c, 0, 65, 61
3, 243360, Note_on_c, 0, 65, 0
3, 243360, Note_on_c, 0, 64, 63
3, 244800, Note_on_c, 0, 64, 0
3, 244800, Note_on_c, 0, 60, 65
3, 246240, Note_on_c, 0, 60, 0
3, 246240, Note_on_c, 0, 60, 67
3, 247680, Note_on_c, 0, 60, 0
3, 247680, Note_on_c, 0, 60, 69
3, 249120, Note_on_c, 0, 60, 0
3, 249120, Note_on_c, 0, 59, 71
3, 250560, Note_on_c, 0, 59, 0
3, 250560, Note_on_c, 0, 62, 73
3, 252000, Note_on_c, 0, 62, 0
3, 252000, Note_on_c, 0, 66, 75
3, 252960, Note_on_c, 0, 66, 0
3, 252960, Note_on_c, 0, 67, 67
3, 253200, Note_on_c, 0, 67, 0
3, 253200, Note_on_c, 0, 69, 65
3, 253440, Note_on_c, 0, 69, 0
3, 253440, Note_on_c, 0, 67, 62
3, 253800, Note_on_c, 0, 67, 0
3, 255120, Note_on_c, 0, 77, 60
3, 255360, Note_on_c, 0, 77, 0
3, 255360, Note_on_c, 0, 76, 61
3, 255600, Note_on_c, 0, 76, 0
3, 255600, Note_on_c, 0, 77, 62
3, 255840, Note_on_c, 0, 77, 0
3, 255840, Note_on_c, 0, 76, 64
3, 256080, Note_on_c, 0, 76, 0
3, 256080, Note_on_c, 0, 77, 65
3, 256320, Note_on_c, 0, 77, 0
3, 256320, Note_on_c, 0, 77, 66
3, 257760, Note_on_c, 0, 77, 0
3, 257760, Note_on_c, 0, 75, 75
3, 259200, Note_on_c, 0, 75, 0
3, 259200, Note_on_c, 0, 72, 84
3, 260640, Note_on_c, 0, 72, 0
3, 260640, Note_on_c, 0, 72, 70
3, 262080, Note_on_c, 0, 72, 0
3, 266400, Note_on_c, 0, 78, 80
3, 267360, Note_on_c, 0, 78, 0
3, 267360, Note_on_c, 0, 79, 81
3, 267600, Note_on_c, 0, 79, 0
3, 267600, Note_on_c, 0, 81, 79
3, 267840, Note_on_c, 0, 81, 0
3, 267840, Note_on_c, 0, 79, 75
3, 268200, Note_on_c, 0, 79, 0
3, 269280, Note_on_c, 0, 69, 77
3, 270720, Note_on_c, 0, 69, 0
3, 272160, Note_on_c, 0, 73, 86
3, 273120, Note_on_c, 0, 73, 0
3, 273120, Note_on_c, 0, 74, 82
3, 273360, Note_on_c, 0, 74, 0
3, 273360, Note_on_c, 0, 76, 78
3, 273600, Note_on_c, 0, 76, 0
3, 273600, Note_on_c, 0, 74, 74
3, 273960, Note_on_c, 0, 74, 0
3, 286560, Note_on_c, 0, 73, 104
3, 287520, Note_on_c, 0, 73, 0
3, 287520, Note_on_c, 0, 74, 99
3, 287760, Note_on_c, 0, 74, 0
3, 287760, Note_on_c, 0, 76, 98
3, 288000, Note_on_c, 0, 76, 0
3, 288000, Note_on_c, 0, 74, 97
3, 288360, Note_on_c, 0, 74, 0
3, 292320, Note_on_c, 0, 68, 92
3, 293280, Note_on_c, 0, 68, 0
3, 293280, Note_on_c, 0, 69, 84
3, 293520, Note_on_c, 0, 69, 0
3, 293520, Note_on_c, 0, 71, 82
3, 293760, Note_on_c, 0, 71, 0
3, 293760, Note_on_c, 0, 69, 80
3, 294120, Note_on_c, 0, 69, 0
3, 298080, Note_on_c, 0, 68, 74
3, 299040, Note_on_c, 0, 68, 0
3, 299040, Note_on_c, 0, 69, 70
3, 299280, Note_on_c, 0, 69, 0
3, 299280, Note_on_c, 0, 71, 68
3, 299520, Note_on_c, 0, 71, 0
3, 299520, Note_on_c, 0, 69, 66
3, 300960, Note_on_c, 0, 69, 0
3, 300960, Note_on_c, 0, 69, 80
3, 302400, Note_on_c, 0, 69, 0
3, 302400, Note_on_c, 0, 71, 82
3, 303840, Note_on_c, 0, 71, 0
3, 303840, Note_on_c, 0, 71, 85
3, 305280, Note_on_c, 0, 71, 0
3, 305280, Note_on_c, 0, 71, 89
3, 306720, Note_on_c, 0, 71, 0
3, 306720, Note_on_c, 0, 76, 90
3, 308160, Note_on_c, 0, 76, 0
3, 308160, Note_on_c, 0, 78, 91
3, 309600, Note_on_c, 0, 78, 0
3, 309600, Note_on_c, 0, 78, 94
3, 311040, Note_on_c, 0, 78, 0
3, 311040, Note_on_c, 0, 78, 94
3, 312480, Note_on_c, 0, 78, 0
3, 312480, Note_on_c, 0, 77, 96
3, 313920, Note_on_c, 0, 77, 0
3, 313920, Note_on_c, 0, 77, 98
3, 315360, Note_on_c, 0, 77, 0
3, 315840, Note_on_c, 0, 70, 96
3, 316320, Note_on_c, 0, 70, 0
3, 316320, Note_on_c, 0, 71, 91
3, 316560, Note_on_c, 0, 71, 0
3, 316560, Note_on_c, 0, 73, 89
3, 316800, Note_on_c, 0, 73, 0
3, 317280, Note_on_c, 0, 71, 98
3, 317760, Note_on_c, 0, 71, 0
3, 317760, Note_on_c, 0, 73, 94
3, 318000, Note_on_c, 0, 73, 0
3, 318000, Note_on_c, 0, 74, 91
3, 318240, Note_on_c, 0, 74, 0
3, 318720, Note_on_c, 0, 73, 100
3, 319200, Note_on_c, 0, 73, 0
3, 319200, Note_on_c, 0, 74, 96
3, 319440, Note_on_c, 0, 74, 0
3, 319440, Note_on_c, 0, 76, 94
3, 319680, Note_on_c, 0, 76, 0
3, 320160, Note_on_c, 0, 71, 100
3, 320640, Note_on_c, 0, 71, 0
3, 320640, Note_on_c, 0, 73, 96
3, 320880, Note_on_c, 0, 73, 0
3, 320880, Note_on_c, 0, 74, 94
3, 321120, Note_on_c, 0, 74, 0
3, 321600, Note_on_c, 0, 78, 104
3, 322560, Note_on_c, 0, 78, 0
3, 323040, Note_on_c, 0, 78, 106
3, 324000, Note_on_c, 0, 78, 0
3, 324480, Note_on_c, 0, 78, 108
3, 325440, Note_on_c, 0, 78, 0
3, 325920, Note_on_c, 0, 78, 112
3, 326880, Note_on_c, 0, 78, 0
3, 327360, Note_on_c, 0, 78, 80
3, 328320, Note_on_c, 0, 78, 0
3, 346080, Note_on_c, 0, 73, 60
3, 346080, Note_on_c, 0, 78, 60
3, 346080, Note_on_c, 0, 82, 60
3, 347520, Note_on_c, 0, 82, 0
3, 347520, Note_on_c, 0, 78, 0
3, 347520, Note_on_c, 0, 73, 0
3, 347520, Note_on_c, 0, 70, 58
3, 347520, Note_on_c, 0, 73, 58
3, 347520, Note_on_c, 0, 78, 58
3, 348960, Note_on_c, 0, 78, 0
3, 348960, Note_on_c, 0, 73, 0
3, 348960, Note_on_c, 0, 70, 0
3, 348960, Note_on_c, 0, 66, 57
3, 348960, Note_on_c, 0, 70, 57
3, 348960, Note_on_c, 0, 73, 57
3, 350400, Note_on_c, 0, 73, 0
3, 350400, Note_on_c, 0, 70, 0
3, 350400, Note_on_c, 0, 66, 0
3, 350400, Note_on_c, 0, 61, 55
3, 350400, Note_on_c, 0, 66, 55
3, 350400, Note_on_c, 0, 70, 55
3, 351840, Note_on_c, 0, 70, 0
3, 351840, Note_on_c, 0, 66, 0
3, 351840, Note_on_c, 0, 61, 0
3, 351840, Note_on_c, 0, 58, 54
3, 351840, Note_on_c, 0, 66, 54
3, 351840, Note_on_c, 0, 61, 54
3, 353280, Note_on_c, 0, 61, 0
3, 353280, Note_on_c, 0, 66, 0
3, 353280, Note_on_c, 0, 58, 0
3, 353280, Note_on_c, 0, 61, 52
3, 353280, Note_on_c, 0, 54, 52
3, 353280, Note_on_c, 0, 58, 52
3, 354720, Note_on_c, 0, 58, 0
3, 354720, Note_on_c, 0, 54, 0
3, 354720, Note_on_c, 0, 61, 0
3, 354720, Note_on_c, 0, 49, 51
3, 354720, Note_on_c, 0, 54, 51
3, 354720, Note_on_c, 0, 58, 51
3, 356160, Note_on_c, 0, 58, 0
3, 356160, Note_on_c, 0, 54, 0
3, 356160, Note_on_c, 0, 49, 0
3, 356160, Note_on_c, 0, 54, 50
3, 356160, Note_on_c, 0, 49, 50
3, 356160, Note_on_c, 0, 46, 50
3, 357600, Note_on_c, 0, 46, 0
3, 357600, Note_on_c, 0, 49, 0
3, 357600, Note_on_c, 0, 54, 0
3, 357600, Note_on_c, 0, 46, 55
3, 357600, Note_on_c, 0, 49, 55
3, 357600, Note_on_c, 0, 42, 55
3, 359040, Note_on_c, 0, 42, 0
3, 359040, Note_on_c, 0, 49, 0
3, 359040, Note_on_c, 0, 46, 0
3, 359040, Note_on_c, 0, 42, 61
3, 359040, Note_on_c, 0, 46, 61
3, 359040, Note_on_c, 0, 49, 61
3, 360480, Note_on_c, 0, 49, 0
3, 360480, Note_on_c, 0, 46, 0
3, 360480, Note_on_c, 0, 42, 0
3, 360480, Note_on_c, 0, 42, 72
3, 360480, Note_on_c, 0, 46, 72
3, 360480, Note_on_c, 0, 49, 72
3, 363840, Note_on_c, 0, 49, 0
3, 363840, Note_on_c, 0, 46, 0
3, 363840, Note_on_c, 0, 42, 0
3, 363840, Note_on_c, 0, 42, 58
3, 363840, Note_on_c, 0, 46, 58
3, 363840, Note_on_c, 0, 49, 58
3, 366720, Note_on_c, 0, 49, 0
3, 366720, Note_on_c, 0, 46, 0
3, 366720, Note_on_c, 0, 42, 0
3, 366720, Note_on_c, 0, 42, 46
3, 366720, Note_on_c, 0, 46, 46
3, 366720, Note_on_c, 0, 49, 46
3, 369600, Note_on_c, 0, 49, 0
3, 369600, Note_on_c, 0, 46, 0
3, 369600, Note_on_c, 0, 42, 0
3, 394560, Note_on_c, 0, 60, 59
3, 394560, Note_on_c, 0, 66, 59
3, 396000, Note_on_c, 0, 66, 0
3, 396000, Note_on_c, 0, 60, 0
3, 396000, Note_on_c, 0, 62, 61
3, 396000, Note_on_c, 0, 59, 61
3, 398400, Note_on_c, 0, 59, 0
3, 398400, Note_on_c, 0, 62, 0
3, 398400, Note_on_c, 0, 59, 64
3, 398400, Note_on_c, 0, 55, 64
3, 398880, Note_on_c, 0, 55, 0
3, 398880, Note_on_c, 0, 59, 0
3, 398880, Note_on_c, 0, 55, 65
3, 400320, Note_on_c, 0, 55, 0
3, 400320, Note_on_c, 0, 55, 67
3, 401760, Note_on_c, 0, 55, 0
3, 401760, Note_on_c, 0, 54, 69
3, 403200, Note_on_c, 0, 54, 0
3, 403200, Note_on_c, 0, 57, 71
3, 404640, Note_on_c, 0, 57, 0
3, 404640, Note_on_c, 0, 61, 75
3, 405600, Note_on_c, 0, 61, 0
3, 405600, Note_on_c, 0, 62, 69
3, 405840, Note_on_c, 0, 62, 0
3, 405840, Note_on_c, 0, 64, 67
3, 406080, Note_on_c, 0, 64, 0
3, 406080, Note_on_c, 0, 62, 66
3, 406440, Note_on_c, 0, 62, 0
3, 407760, Note_on_c, 0, 72, 63
3, 408000, Note_on_c, 0, 72, 0
3, 408000, Note_on_c, 0, 71, 63
3, 408240, Note_on_c, 0, 71, 0
3, 408240, Note_on_c, 0, 72, 63
3, 408480, Note_on_c, 0, 72, 0
3, 408480, Note_on_c, 0, 71, 63
3, 408720, Note_on_c, 0, 71, 0
3, 408720, Note_on_c, 0, 72, 63
3, 408960, Note_on_c, 0, 72, 0
3, 408960, Note_on_c, 0, 72, 63
3, 410400, Note_on_c, 0, 72, 0
3, 410400, Note_on_c, 0, 71, 65
3, 411840, Note_on_c, 0, 71, 0
3, 411840, Note_on_c, 0, 67, 67
3, 413280, Note_on_c, 0, 67, 0
3, 413280, Note_on_c, 0, 67, 69
3, 414720, Note_on_c, 0, 67, 0
3, 414720, Note_on_c, 0, 67, 72
3, 416160, Note_on_c, 0, 67, 0
3, 416160, Note_on_c, 0, 66, 74
3, 417600, Note_on_c, 0, 66, 0
3, 417600, Note_on_c, 0, 69, 76
3, 419040, Note_on_c, 0, 69, 0
3, 419040, Note_on_c, 0, 73, 79
3, 420000, Note_on_c, 0, 73, 0
3, 420000, Note_on_c, 0, 74, 72
3, 420240, Note_on_c, 0, 74, 0
3, 420240, Note_on_c, 0, 76, 69
3, 420480, Note_on_c, 0, 76, 0
3, 420480, Note_on_c, 0, 74, 65
3, 420840, Note_on_c, 0, 74, 0
3, 421920, Note_on_c, 0, 57, 69
3, 423840, Note_on_c, 0, 57, 0
3, 423840, Note_on_c, 0, 59, 75
3, 424320, Note_on_c, 0, 59, 0
3, 424320, Note_on_c, 0, 60, 79
3, 424800, Note_on_c, 0, 60, 0
3, 424800, Note_on_c, 0, 62, 83
3, 427200, Note_on_c, 0, 62, 0
3, 427200, Note_on_c, 0, 60, 82
3, 427680, Note_on_c, 0, 60, 0
3, 427680, Note_on_c, 0, 59, 81
3, 429120, Note_on_c, 0, 59, 0
3, 433440, Note_on_c, 0, 62, 77
3, 435360, Note_on_c, 0, 62, 0
3, 435360, Note_on_c, 0, 64, 84
3, 435840, Note_on_c, 0, 64, 0
3, 435840, Note_on_c, 0, 66, 87
3, 436320, Note_on_c, 0, 66, 0
3, 436320, Note_on_c, 0, 69, 89
3, 436800, Note_on_c, 0, 69, 0
3, 436800, Note_on_c, 0, 67, 98
3, 438720, Note_on_c, 0, 67, 0
3, 438720, Note_on_c, 0, 66, 93
3, 439680, Note_on_c, 0, 66, 0
3, 439680, Note_on_c, 0, 64, 91
3, 440160, Note_on_c, 0, 64, 0
3, 440160, Note_on_c, 0, 62, 97
3, 441120, Note_on_c, 0, 62, 0
3, 441120, Note_on_c, 0, 61, 87
3, 441600, Note_on_c, 0, 61, 0
3, 441600, Note_on_c, 0, 57, 91
3, 442320, Note_on_c, 0, 57, 0
3, 445440, Note_on_c, 0, 64, 91
3, 445920, Note_on_c, 0, 64, 0
3, 445920, Note_on_c, 0, 62, 100
3, 446880, Note_on_c, 0, 62, 0
3, 446880, Note_on_c, 0, 61, 95
3, 447360, Note_on_c, 0, 61, 0
3, 447360, Note_on_c, 0, 57, 106
3, 448080, Note_on_c, 0, 57, 0
3, 451200, Note_on_c, 0, 64, 87
3, 451680, Note_on_c, 0, 64, 0
3, 451680, Note_on_c, 0, 62, 100
3, 452640, Note_on_c, 0, 62, 0
3, 452640, Note_on_c, 0, 61, 95
3, 453120, Note_on_c, 0, 61, 0
3, 453120, Note_on_c, 0, 64, 106
3, 453600, Note_on_c, 0, 64, 0
3, 453600, Note_on_c, 0, 62, 94
3, 453960, Note_on_c, 0, 62, 0
3, 455040, Note_on_c, 0, 66, 90
3, 456480, Note_on_c, 0, 66, 0
3, 456480, Note_on_c, 0, 64, 79
3, 457920, Note_on_c, 0, 64, 0
3, 457920, Note_on_c, 0, 62, 74
3, 458400, Note_on_c, 0, 62, 0
3, 460800, Note_on_c, 0, 71, 85
3, 462240, Note_on_c, 0, 71, 0
3, 462240, Note_on_c, 0, 69, 74
3, 463680, Note_on_c, 0, 69, 0
3, 463680, Note_on_c, 0, 67, 68
3, 464160, Note_on_c, 0, 67, 0
3, 466560, Note_on_c, 0, 66, 88
3, 468000, Note_on_c, 0, 66, 0
3, 468000, Note_on_c, 0, 66, 78
3, 468240, Note_on_c, 0, 66, 0
3, 468240, Note_on_c, 0, 64, 78
3, 468480, Note_on_c, 0, 64, 0
3, 468480, Note_on_c, 0, 63, 78
3, 468720, Note_on_c, 0, 63, 0
3, 468720, Note_on_c, 0, 64, 77
3, 468960, Note_on_c, 0, 64, 0
3, 468960, Note_on_c, 0, 66, 77
3, 469200, Note_on_c, 0, 66, 0
3, 469200, Note_on_c, 0, 64, 77
3, 469440, Note_on_c, 0, 64, 0
3, 469440, Note_on_c, 0, 62, 76
3, 469920, Note_on_c, 0, 62, 0
3, 472320, Note_on_c, 0, 71, 82
3, 473760, Note_on_c, 0, 71, 0
3, 473760, Note_on_c, 0, 71, 71
3, 474000, Note_on_c, 0, 71, 0
3, 474000, Note_on_c, 0, 69, 70
3, 474240, Note_on_c, 0, 69, 0
3, 474240, Note_on_c, 0, 68, 70
3, 474480, Note_on_c, 0, 68, 0
3, 474480, Note_on_c, 0, 69, 70
3, 474720, Note_on_c, 0, 69, 0
3, 474720, Note_on_c, 0, 71, 69
3, 474960, Note_on_c, 0, 71, 0
3, 474960, Note_on_c, 0, 69, 69
3, 475200, Note_on_c, 0, 69, 0
3, 475200, Note_on_c, 0, 67, 69
3, 475680, Note_on_c, 0, 67, 0
3, 491040, Note_on_c, 0, 61, 51
3, 491040, Note_on_c, 0, 64, 51
3, 492480, Note_on_c, 0, 64, 0
3, 492480, Note_on_c, 0, 61, 0
3, 492480, Note_on_c, 0, 66, 53
3, 492480, Note_on_c, 0, 62, 53
3, 493920, Note_on_c, 0, 62, 0
3, 493920, Note_on_c, 0, 66, 0
3, 493920, Note_on_c, 0, 70, 54
3, 493920, Note_on_c, 0, 64, 54
3, 495360, Note_on_c, 0, 64, 0
3, 495360, Note_on_c, 0, 70, 0
3, 495360, Note_on_c, 0, 71, 56
3, 495360, Note_on_c, 0, 66, 56
3, 496800, Note_on_c, 0, 66, 0
3, 496800, Note_on_c, 0, 71, 0
3, 496800, Note_on_c, 0, 72, 58
3, 496800, Note_on_c, 0, 69, 58
3, 496800, Note_on_c, 0, 66, 58
3, 498240, Note_on_c, 0, 66, 0
3, 498240, Note_on_c, 0, 69, 0
3, 498240, Note_on_c, 0, 72, 0
3, 498240, Note_on_c, 0, 71, 60
3, 498240, Note_on_c, 0, 67, 60
3, 499680, Note_on_c, 0, 67, 0
3, 499680, Note_on_c, 0, 71, 0
3, 499680, Note_on_c, 0, 66, 62
3, 499680, Note_on_c, 0, 69, 62
3, 500640, Note_on_c, 0, 69, 0
3, 500640, Note_on_c, 0, 66, 0
3, 500640, Note_on_c, 0, 64, 58
3, 500640, Note_on_c, 0, 67, 58
3, 501120, Note_on_c, 0, 67, 0
3, 501120, Note_on_c, 0, 64, 0
3, 501120, Note_on_c, 0, 66, 58
3, 501300, Note_on_c, 0, 66, 0
3, 502560, Note_on_c, 0, 58, 56
3, 504000, Note_on_c, 0, 58, 0
3, 504000, Note_on_c, 0, 59, 59
3, 505440, Note_on_c, 0, 59, 0
3, 505440, Note_on_c, 0, 61, 62
3, 505440, Note_on_c, 0, 58, 62
3, 505440, Note_on_c, 0, 70, 62
3, 506880, Note_on_c, 0, 70, 0
3, 506880, Note_on_c, 0, 58, 0
3, 506880, Note_on_c, 0, 61, 0
3, 506880, Note_on_c, 0, 71, 64
3, 506880, Note_on_c, 0, 62, 64
3, 506880, Note_on_c, 0, 59, 64
3, 508320, Note_on_c, 0, 59, 0
3, 508320, Note_on_c, 0, 62, 0
3, 508320, Note_on_c, 0, 71, 0
3, 508320, Note_on_c, 0, 64, 67
3, 508320, Note_on_c, 0, 71, 67
3, 508320, Note_on_c, 0, 59, 67
3, 509760, Note_on_c, 0, 59, 0
3, 509760, Note_on_c, 0, 71, 0
3, 509760, Note_on_c, 0, 64, 0
3, 509760, Note_on_c, 0, 65, 69
3, 509760, Note_on_c, 0, 71, 69
3, 509760, Note_on_c, 0, 59, 69
3, 511200, Note_on_c, 0, 59, 0
3, 511200, Note_on_c, 0, 71, 0
3, 511200, Note_on_c, 0, 65, 0
3, 588960, Note_on_c, 0, 78, 118
3, 592320, Note_on_c, 0, 78, 0
3, 592320, Note_on_c, 0, 76, 82
3, 592800, Note_on_c, 0, 76, 0
3, 592800, Note_on_c, 0, 74, 78
3, 593280, Note_on_c, 0, 74, 0
3, 593280, Note_on_c, 0, 74, 75
3, 594240, Note_on_c, 0, 74, 0
3, 594240, Note_on_c, 0, 73, 68
3, 594720, Note_on_c, 0, 73, 0
3, 607200, Note_on_c, 0, 69, 61
3, 608640, Note_on_c, 0, 69, 0
3, 608640, Note_on_c, 0, 57, 63
3, 610080, Note_on_c, 0, 57, 0
3, 610080, Note_on_c, 0, 62, 65
3, 611040, Note_on_c, 0, 62, 0
3, 611040, Note_on_c, 0, 61, 62
3, 611520, Note_on_c, 0, 61, 0
3, 611520, Note_on_c, 0, 67, 67
3, 612480, Note_on_c, 0, 67, 0
3, 612480, Note_on_c, 0, 66, 65
3, 612960, Note_on_c, 0, 66, 0
3, 612960, Note_on_c, 0, 74, 69
3, 614400, Note_on_c, 0, 74, 0
3, 614400, Note_on_c, 0, 62, 71
3, 615840, Note_on_c, 0, 62, 0
3, 615840, Note_on_c, 0, 71, 83
3, 616800, Note_on_c, 0, 71, 0
3, 616800, Note_on_c, 0, 69, 77
3, 617040, Note_on_c, 0, 69, 0
3, 617280, Note_on_c, 0, 67, 76
3, 617520, Note_on_c, 0, 67, 0
3, 617760, Note_on_c, 0, 66, 74
3, 618240, Note_on_c, 0, 66, 0
3, 618720, Note_on_c, 0, 74, 77
3, 620160, Note_on_c, 0, 74, 0
3, 620160, Note_on_c, 0, 62, 79
3, 621600, Note_on_c, 0, 62, 0
3, 621600, Note_on_c, 0, 71, 94
3, 622560, Note_on_c, 0, 71, 0
3, 622560, Note_on_c, 0, 69, 90
3, 622800, Note_on_c, 0, 69, 0
3, 623040, Note_on_c, 0, 67, 88
3, 623280, Note_on_c, 0, 67, 0
3, 623520, Note_on_c, 0, 66, 85
3, 624000, Note_on_c, 0, 66, 0
3, 624480, Note_on_c, 0, 71, 102
3, 625200, Note_on_c, 0, 71, 0
3, 625440, Note_on_c, 0, 69, 92
3, 625680, Note_on_c, 0, 69, 0
3, 625920, Note_on_c, 0, 67, 90
3, 626160, Note_on_c, 0, 67, 0
3, 626400, Note_on_c, 0, 66, 88
3, 626880, Note_on_c, 0, 66, 0
3, 635040, Note_on_c, 0, 60, 59
3, 635040, Note_on_c, 0, 66, 59
3, 636480, Note_on_c, 0, 66, 0
3, 636480, Note_on_c, 0, 60, 0
3, 636480, Note_on_c, 0, 62, 61
3, 636480, Note_on_c, 0, 59, 61
3, 638880, Note_on_c, 0, 59, 0
3, 638880, Note_on_c, 0, 62, 0
3, 638880, Note_on_c, 0, 59, 64
3, 638880, Note_on_c, 0, 55, 64
3, 639360, Note_on_c, 0, 55, 0
3, 639360, Note_on_c, 0, 59, 0
3, 639360, Note_on_c, 0, 55, 65
3, 640800, Note_on_c, 0, 55, 0
3, 640800, Note_on_c, 0, 55, 67
3, 642240, Note_on_c, 0, 55, 0
3, 642240, Note_on_c, 0, 54, 69
3, 643680, Note_on_c, 0, 54, 0
3, 643680, Note_on_c, 0, 57, 71
3, 645120, Note_on_c, 0, 57, 0
3, 645120, Note_on_c, 0, 61, 75
3, 646080, Note_on_c, 0, 61, 0
3, 646080, Note_on_c, 0, 62, 69
3, 646320, Note_on_c, 0, 62, 0
3, 646320, Note_on_c, 0, 64, 67
3, 646560, Note_on_c, 0, 64, 0
3, 646560, Note_on_c, 0, 62, 66
3, 646920, Note_on_c, 0, 62, 0
3, 648000, Note_on_c, 0, 61, 72
3, 648960, Note_on_c, 0, 61, 0
3, 648960, Note_on_c, 0, 62, 66
3, 649200, Note_on_c, 0, 62, 0
3, 649200, Note_on_c, 0, 64, 65
3, 649440, Note_on_c, 0, 64, 0
3, 649440, Note_on_c, 0, 62, 64
3, 649800, Note_on_c, 0, 62, 0
3, 650880, Note_on_c, 0, 61, 77
3, 651840, Note_on_c, 0, 61, 0
3, 651840, Note_on_c, 0, 62, 71
3, 652080, Note_on_c, 0, 62, 0
3, 652080, Note_on_c, 0, 64, 69
3, 652320, Note_on_c, 0, 64, 0
3, 652320, Note_on_c, 0, 62, 68
3, 652680, Note_on_c, 0, 62, 0
3, 653760, Note_on_c, 0, 61, 83
3, 654720, Note_on_c, 0, 61, 0
3, 654720, Note_on_c, 0, 62, 77
3, 654960, Note_on_c, 0, 62, 0
3, 654960, Note_on_c, 0, 64, 76
3, 655200, Note_on_c, 0, 64, 0
3, 655200, Note_on_c, 0, 62, 74
3, 655560, Note_on_c, 0, 62, 0
3, 656640, Note_on_c, 0, 61, 89
3, 657600, Note_on_c, 0, 61, 0
3, 657600, Note_on_c, 0, 62, 83
3, 657840, Note_on_c, 0, 62, 0
3, 657840, Note_on_c, 0, 64, 82
3, 658080, Note_on_c, 0, 64, 0
3, 658080, Note_on_c, 0, 62, 80
3, 658440, Note_on_c, 0, 62, 0
3, 659040, Note_on_c, 0, 78, 103
3, 659400, Note_on_c, 0, 78, 0
3, 660480, Note_on_c, 0, 78, 88
3, 660840, Note_on_c, 0, 78, 0
3, 661920, Note_on_c, 0, 78, 79
3, 662280, Note_on_c, 0, 78, 0
3, 662400, Note_on_c, 0, 78, 74
3, 662760, Note_on_c, 0, 78, 0
3, 663840, Note_on_c, 0, 67, 68
3, 664200, Note_on_c, 0, 67, 0
3, 665280, Note_on_c, 0, 66, 60
3, 665640, Note_on_c, 0, 66, 0
3, 666720, Control_c, 0, 10, 64
3, 666720, Control_c, 0, 91, 101
3, 666720, Control_c, 0, 93, 41
3, 666720, Control_c, 0, 64, 0
3, 666720, Control_c, 0, 1, 0
3, 666720, Pitch_bend_c, 0, 8192
3, 666720, Control_c, 0, 7, 122
3, 667680, Note_on_c, 0, 57, 61
3, 667680, Note_on_c, 0, 53, 61
3, 668160, Note_on_c, 0, 53, 0
3, 668160, Note_on_c, 0, 57, 0
3, 668160, Note_on_c, 0, 57, 65
3, 668160, Note_on_c, 0, 64, 65
3, 668640, Note_on_c, 0, 64, 0
3, 668640, Note_on_c, 0, 57, 0
3, 668640, Note_on_c, 0, 57, 72
3, 668640, Note_on_c, 0, 62, 72
3, 669120, Note_on_c, 0, 62, 0
3, 669120, Note_on_c, 0, 57, 0
3, 669120, Note_on_c, 0, 62, 64
3, 669240, Note_on_c, 0, 62, 0
3, 669360, Note_on_c, 0, 62, 65
3, 669360, Note_on_c, 0, 69, 65
3, 669600, Note_on_c, 0, 69, 0
3, 669600, Note_on_c, 0, 62, 0
3, 669600, Note_on_c, 0, 64, 68
3, 669600, Note_on_c, 0, 67, 68
3, 669840, Note_on_c, 0, 67, 0
3, 669840, Note_on_c, 0, 64, 0
3, 669840, Note_on_c, 0, 69, 71
3, 669840, Note_on_c, 0, 65, 71
3, 670080, Note_on_c, 0, 65, 0
3, 670080, Note_on_c, 0, 69, 0
3, 670080, Note_on_c, 0, 70, 74
3, 670080, Note_on_c, 0, 64, 74
3, 670320, Note_on_c, 0, 64, 0
3, 670320, Note_on_c, 0, 70, 0
3, 670320, Note_on_c, 0, 71, 78
3, 670320, Note_on_c, 0, 65, 78
3, 670560, Note_on_c, 0, 65, 0
3, 670560, Note_on_c, 0, 71, 0
3, 670560, Note_on_c, 0, 65, 73
3, 670560, Note_on_c, 0, 69, 73
3, 671040, Note_on_c, 0, 69, 0
3, 671040, Note_on_c, 0, 65, 0
3, 671040, Note_on_c, 0, 64, 64
3, 671040, Note_on_c, 0, 69, 64
3, 671280, Note_on_c, 0, 69, 0
3, 671280, Note_on_c, 0, 64, 0
3, 671520, Note_on_c, 0, 60, 62
3, 671520, Note_on_c, 0, 57, 62
3, 672000, Note_on_c, 0, 57, 0
3, 672000, Note_on_c, 0, 60, 0
3, 672000, Note_on_c, 0, 60, 65
3, 672000, Note_on_c, 0, 67, 65
3, 672480, Note_on_c, 0, 67, 0
3, 672480, Note_on_c, 0, 60, 0
3, 672480, Note_on_c, 0, 65, 74
3, 672480, Note_on_c, 0, 60, 74
3, 673080, Note_on_c, 0, 60, 0
3, 673087, Note_on_c, 0, 65, 0
3, 673200, Note_on_c, 0, 65, 69
3, 673200, Note_on_c, 0, 69, 69
3, 673440, Note_on_c, 0, 69, 0
3, 673440, Note_on_c, 0, 65, 0
3, 673440, Note_on_c, 0, 64, 75
3, 673440, Note_on_c, 0, 69, 75
3, 673920, Note_on_c, 0, 69, 0
3, 673920, Note_on_c, 0, 64, 0
3, 673920, Note_on_c, 0, 62, 78
3, 673920, Note_on_c, 0, 64, 78
3, 674400, Note_on_c, 0, 64, 0
3, 674400, Note_on_c, 0, 62, 0
3, 674400, Note_on_c, 0, 60, 73
3, 674400, Note_on_c, 0, 64, 73
3, 674580, Note_on_c, 0, 64, 0
3, 674580, Note_on_c, 0, 60, 0
3, 675360, Control_c, 0, 64, 0
3, 675360, Note_on_c, 0, 53, 61
3, 675360, Note_on_c, 0, 57, 61
3, 675840, Note_on_c, 0, 57, 0
3, 675840, Note_on_c, 0, 53, 0
3, 675840, Note_on_c, 0, 64, 65
3, 675840, Note_on_c, 0, 57, 65
3, 676320, Note_on_c, 0, 57, 0
3, 676320, Note_on_c, 0, 64, 0
3, 676320, Note_on_c, 0, 62, 72
3, 676320, Note_on_c, 0, 57, 72
3, 676800, Note_on_c, 0, 57, 0
3, 676800, Note_on_c, 0, 62, 0
3, 676800, Note_on_c, 0, 62, 64
3, 676920, Note_on_c, 0, 62, 0
3, 677040, Note_on_c, 0, 69, 65
3, 677040, Note_on_c, 0, 62, 65
3, 677280, Note_on_c, 0, 62, 0
3, 677280, Note_on_c, 0, 69, 0
3, 677280, Note_on_c, 0, 67, 68
3, 677280, Note_on_c, 0, 64, 68
3, 677520, Note_on_c, 0, 64, 0
3, 677520, Note_on_c, 0, 67, 0
3, 677520, Note_on_c, 0, 65, 71
3, 677520, Note_on_c, 0, 69, 71
3, 677760, Note_on_c, 0, 69, 0
3, 677760, Note_on_c, 0, 65, 0
3, 677760, Note_on_c, 0, 64, 74
3, 677760, Note_on_c, 0, 70, 74
3, 678000, Note_on_c, 0, 70, 0
3, 678000, Note_on_c, 0, 64, 0
3, 678000, Note_on_c, 0, 65, 78
3, 678000, Note_on_c, 0, 71, 78
3, 678240, Note_on_c, 0, 71, 0
3, 678240, Note_on_c, 0, 65, 0
3, 678240, Note_on_c, 0, 69, 73
3, 678240, Note_on_c, 0, 65, 73
3, 678720, Note_on_c, 0, 65, 0
3, 678720, Note_on_c, 0, 69, 0
3, 678720, Note_on_c, 0, 69, 64
3, 678720, Note_on_c, 0, 64, 64
3, 678960, Note_on_c, 0, 64, 0
3, 678960, Note_on_c, 0, 69, 0
3, 679200, Note_on_c, 0, 57, 62
3, 679200, Note_on_c, 0, 60, 62
3, 679680, Note_on_c, 0, 60, 0
3, 679680, Note_on_c, 0, 57, 0
3, 679680, Note_on_c, 0, 67, 65
3, 679680, Note_on_c, 0, 60, 65
3, 680160, Note_on_c, 0, 60, 0
3, 680160, Note_on_c, 0, 67, 0
3, 680160, Note_on_c, 0, 65, 74
3, 680160, Note_on_c, 0, 60, 74
3, 680760, Note_on_c, 0, 60, 0
3, 680767, Note_on_c, 0, 65, 0
3, 680880, Note_on_c, 0, 69, 69
3, 680880, Note_on_c, 0, 65, 69
3, 681120, Note_on_c, 0, 65, 0
3, 681120, Note_on_c, 0, 69, 0
3, 681120, Note_on_c, 0, 69, 75
3, 681120, Note_on_c, 0, 64, 75
3, 681600, Note_on_c, 0, 64, 0
3, 681600, Note_on_c, 0, 69, 0
3, 681600, Note_on_c, 0, 64, 78
3, 681600, Note_on_c, 0, 62, 78
3, 682080, Note_on_c, 0, 62, 0
3, 682080, Note_on_c, 0, 64, 0
3, 682080, Note_on_c, 0, 64, 73
3, 682080, Note_on_c, 0, 60, 73
3, 682260, Note_on_c, 0, 60, 0
3, 682260, Note_on_c, 0, 64, 0
3, 683040, Note_on_c, 0, 73, 63
3, 683520, Note_on_c, 0, 73, 0
3, 683520, Note_on_c, 0, 76, 66
3, 683940, Note_on_c, 0, 76, 0
3, 683940, Note_on_c, 0, 74, 62
3, 684000, Note_on_c, 0, 74, 0
3, 684000, Note_on_c, 0, 74, 62
3, 684240, Note_on_c, 0, 74, 0
3, 684240, Note_on_c, 0, 67, 74
3, 684240, Note_on_c, 0, 73, 74
3, 684240, Note_on_c, 0, 70, 74
3, 684720, Note_on_c, 0, 70, 0
3, 684720, Note_on_c, 0, 73, 0
3, 684720, Note_on_c, 0, 67, 0
3, 684720, Note_on_c, 0, 68, 67
3, 684720, Note_on_c, 0, 71, 67
3, 684960, Note_on_c, 0, 71, 0
3, 684960, Note_on_c, 0, 68, 0
3, 684960, Note_on_c, 0, 69, 63
3, 685560, Note_on_c, 0, 69, 0
3, 685560, Note_on_c, 0, 73, 68
3, 685680, Note_on_c, 0, 73, 0
3, 685680, Note_on_c, 0, 76, 71
3, 685860, Note_on_c, 0, 76, 0
3, 685860, Note_on_c, 0, 74, 76
3, 685920, Note_on_c, 0, 74, 0
3, 685920, Note_on_c, 0, 74, 73
3, 686160, Note_on_c, 0, 74, 0
3, 686160, Note_on_c, 0, 67, 80
3, 686160, Note_on_c, 0, 73, 80
3, 686160, Note_on_c, 0, 70, 80
3, 686640, Note_on_c, 0, 70, 0
3, 686640, Note_on_c, 0, 73, 0
3, 686640, Note_on_c, 0, 67, 0
3, 686640, Note_on_c, 0, 68, 76
3, 686640, Note_on_c, 0, 71, 76
3, 686880, Note_on_c, 0, 71, 0
3, 686880, Note_on_c, 0, 68, 0
3, 686880, Note_on_c, 0, 64, 73
3, 686880, Note_on_c, 0, 69, 73
3, 687060, Note_on_c, 0, 69, 0
3, 687060, Note_on_c, 0, 64, 0
3, 687120, Note_on_c, 0, 67, 87
3, 687120, Note_on_c, 0, 70, 87
3, 687120, Note_on_c, 0, 73, 87
3, 687600, Note_on_c, 0, 73, 0
3, 687600, Note_on_c, 0, 70, 0
3, 687600, Note_on_c, 0, 67, 0
3, 687600, Note_on_c, 0, 68, 81
3, 687600, Note_on_c, 0, 71, 81
3, 687840, Note_on_c, 0, 71, 0
3, 687840, Note_on_c, 0, 68, 0
3, 687840, Note_on_c, 0, 64, 77
3, 687840, Note_on_c, 0, 69, 77
3, 688020, Note_on_c, 0, 69, 0
3, 688020, Note_on_c, 0, 64, 0
3, 688080, Note_on_c, 0, 68, 90
3, 688080, Note_on_c, 0, 71, 90
3, 688320, Note_on_c, 0, 71, 0
3, 688320, Note_on_c, 0, 68, 0
3, 688320, Note_on_c, 0, 64, 81
3, 688320, Note_on_c, 0, 69, 81
3, 688512, Note_on_c, 0, 69, 0
3, 688512, Note_on_c, 0, 64, 0
3, 688560, Note_on_c, 0, 68, 94
3, 688560, Note_on_c, 0, 71, 94
3, 688800, Note_on_c, 0, 71, 0
3, 688800, Note_on_c, 0, 68, 0
3, 688800, Note_on_c, 0, 64, 83
3, 688800, Note_on_c, 0, 69, 83
3, 689260, Note_on_c, 0, 64, 0
3, 689280, Note_on_c, 0, 69, 0
3, 690480, Note_on_c, 0, 61, 60
3, 690720, Note_on_c, 0, 61, 0
3, 690720, Note_on_c, 0, 62, 63
3, 691200, Note_on_c, 0, 62, 0
3, 691200, Note_on_c, 0, 69, 69
3, 691680, Note_on_c, 0, 69, 0
3, 691680, Note_on_c, 0, 67, 75
3, 691920, Note_on_c, 0, 67, 0
3, 691920, Note_on_c, 0, 65, 73
3, 692100, Note_on_c, 0, 65, 0
3, 692100, Note_on_c, 0, 64, 69
3, 692160, Note_on_c, 0, 64, 0
3, 692160, Note_on_c, 0, 62, 68
3, 692287, Note_on_c, 0, 62, 0
3, 692400, Note_on_c, 0, 67, 84
3, 692640, Note_on_c, 0, 67, 0
3, 692640, Note_on_c, 0, 65, 79
3, 692880, Note_on_c, 0, 65, 0
3, 692880, Note_on_c, 0, 64, 74
3, 693060, Note_on_c, 0, 64, 0
3, 693060, Note_on_c, 0, 62, 70
3, 693120, Note_on_c, 0, 62, 0
3, 693120, Note_on_c, 0, 60, 69
3, 693247, Note_on_c, 0, 60, 0
3, 693360, Note_on_c, 0, 69, 90
3, 693600, Note_on_c, 0, 69, 0
3, 693600, Note_on_c, 0, 67, 87
3, 693840, Note_on_c, 0, 67, 0
3, 693840, Note_on_c, 0, 65, 83
3, 694020, Note_on_c, 0, 65, 0
3, 694020, Note_on_c, 0, 64, 81
3, 694080, Note_on_c, 0, 64, 0
3, 694080, Note_on_c, 0, 62, 80
3, 694200, Note_on_c, 0, 62, 0
3, 694320, Note_on_c, 0, 74, 98
3, 694500, Note_on_c, 0, 74, 0
3, 694500, Note_on_c, 0, 72, 96
3, 694560, Note_on_c, 0, 72, 0
3, 694560, Note_on_c, 0, 72, 93
3, 694680, Note_on_c, 0, 72, 0
3, 694680, Note_on_c, 0, 70, 93
3, 694800, Note_on_c, 0, 70, 0
3, 694800, Note_on_c, 0, 69, 92
3, 694920, Note_on_c, 0, 68, 92
3, 694927, Note_on_c, 0, 69, 0
3, 695040, Note_on_c, 0, 68, 0
3, 695040, Note_on_c, 0, 68, 89
3, 695160, Note_on_c, 0, 68, 0
3, 695160, Note_on_c, 0, 69, 87
3, 695400, Note_on_c, 0, 69, 0
3, 695400, Note_on_c, 0, 55, 62
3, 695520, Note_on_c, 0, 55, 0
3, 695520, Note_on_c, 0, 61, 68
3, 695520, Note_on_c, 0, 55, 68
3, 696000, Note_on_c, 0, 55, 0
3, 696000, Note_on_c, 0, 61, 0
3, 696000, Note_on_c, 0, 53, 56
3, 696000, Note_on_c, 0, 57, 56
3, 696240, Note_on_c, 0, 57, 0
3, 696240, Note_on_c, 0, 53, 0
3, 696480, Control_c, 0, 64, 0
3, 696480, Note_on_c, 0, 73, 63
3, 696960, Note_on_c, 0, 73, 0
3, 696960, Note_on_c, 0, 76, 66
3, 697380, Note_on_c, 0, 76, 0
3, 697380, Note_on_c, 0, 74, 62
3, 697440, Note_on_c, 0, 74, 0
3, 697440, Note_on_c, 0, 74, 62
3, 697680, Note_on_c, 0, 74, 0
3, 697680, Note_on_c, 0, 70, 74
3, 697680, Note_on_c, 0, 73, 74
3, 697680, Note_on_c, 0, 67, 74
3, 698160, Note_on_c, 0, 67, 0
3, 698160, Note_on_c, 0, 73, 0
3, 698160, Note_on_c, 0, 70, 0
3, 698160, Note_on_c, 0, 71, 67
3, 698160, Note_on_c, 0, 68, 67
3, 698400, Note_on_c, 0, 68, 0
3, 698400, Note_on_c, 0, 71, 0
3, 698400, Note_on_c, 0, 69, 63
3, 699000, Note_on_c, 0, 69, 0
3, 699000, Note_on_c, 0, 73, 68
3, 699120, Note_on_c, 0, 73, 0
3, 699120, Note_on_c, 0, 76, 71
3, 699300, Note_on_c, 0, 76, 0
3, 699300, Note_on_c, 0, 74, 76
3, 699360, Note_on_c, 0, 74, 0
3, 699360, Note_on_c, 0, 74, 73
3, 699600, Note_on_c, 0, 74, 0
3, 699600, Note_on_c, 0, 70, 80
3, 699600, Note_on_c, 0, 73, 80
3, 699600, Note_on_c, 0, 67, 80
3, 700080, Note_on_c, 0, 67, 0
3, 700080, Note_on_c, 0, 73, 0
3, 700080, Note_on_c, 0, 70, 0
3, 700080, Note_on_c, 0, 71, 76
3, 700080, Note_on_c, 0, 68, 76
3, 700320, Note_on_c, 0, 68, 0
3, 700320, Note_on_c, 0, 71, 0
3, 700320, Note_on_c, 0, 69, 73
3, 700320, Note_on_c, 0, 64, 73
3, 700500, Note_on_c, 0, 64, 0
3, 700500, Note_on_c, 0, 69, 0
3, 700560, Note_on_c, 0, 73, 87
3, 700560, Note_on_c, 0, 70, 87
3, 700560, Note_on_c, 0, 67, 87
3, 701040, Note_on_c, 0, 67, 0
3, 701040, Note_on_c, 0, 70, 0
3, 701040, Note_on_c, 0, 73, 0
3, 701040, Note_on_c, 0, 71, 81
3, 701040, Note_on_c, 0, 68, 81
3, 701280, Note_on_c, 0, 68, 0
3, 701280, Note_on_c, 0, 71, 0
3, 701280, Note_on_c, 0, 69, 77
3, 701280, Note_on_c, 0, 64, 77
3, 701460, Note_on_c, 0, 64, 0
3, 701460, Note_on_c, 0, 69, 0
3, 701520, Note_on_c, 0, 71, 90
3, 701520, Note_on_c, 0, 68, 90
3, 701760, Note_on_c, 0, 68, 0
3, 701760, Note_on_c, 0, 71, 0
3, 701760, Note_on_c, 0, 69, 81
3, 701760, Note_on_c, 0, 64, 81
3, 701952, Note_on_c, 0, 64, 0
3, 701952, Note_on_c, 0, 69, 0
3, 702000, Note_on_c, 0, 71, 94
3, 702000, Note_on_c, 0, 68, 94
3, 702240, Note_on_c, 0, 68, 0
3, 702240, Note_on_c, 0, 71, 0
3, 702240, Note_on_c, 0, 69, 83
3, 702240, Note_on_c, 0, 64, 83
3, 702700, Note_on_c, 0, 64, 0
3, 702720, Note_on_c, 0, 69, 0
3, 703920, Note_on_c, 0, 61, 60
3, 704160, Note_on_c, 0, 61, 0
3, 704160, Note_on_c, 0, 62, 63
3, 704640, Note_on_c, 0, 62, 0
3, 704640, Note_on_c, 0, 69, 69
3, 705120, Note_on_c, 0, 69, 0
3, 705120, Note_on_c, 0, 67, 75
3, 705360, Note_on_c, 0, 67, 0
3, 705360, Note_on_c, 0, 65, 73
3, 705540, Note_on_c, 0, 65, 0
3, 705540, Note_on_c, 0, 64, 69
3, 705600, Note_on_c, 0, 64, 0
3, 705600, Note_on_c, 0, 62, 68
3, 705720, Note_on_c, 0, 62, 0
3, 705840, Note_on_c, 0, 67, 84
3, 706080, Note_on_c, 0, 67, 0
3, 706080, Note_on_c, 0, 65, 79
3, 706320, Note_on_c, 0, 65, 0
3, 706320, Note_on_c, 0, 64, 74
3, 706500, Note_on_c, 0, 64, 0
3, 706500, Note_on_c, 0, 62, 70
3, 706560, Note_on_c, 0, 62, 0
3, 706560, Note_on_c, 0, 60, 69
3, 706680, Note_on_c, 0, 60, 0
3, 706800, Note_on_c, 0, 69, 90
3, 707040, Note_on_c, 0, 69, 0
3, 707040, Note_on_c, 0, 67, 87
3, 707280, Note_on_c, 0, 67, 0
3, 707280, Note_on_c, 0, 65, 83
3, 707460, Note_on_c, 0, 65, 0
3, 707460, Note_on_c, 0, 64, 81
3, 707520, Note_on_c, 0, 64, 0
3, 707520, Note_on_c, 0, 62, 80
3, 707647, Note_on_c, 0, 62, 0
3, 707760, Note_on_c, 0, 74, 98
3, 707940, Note_on_c, 0, 74, 0
3, 707940, Note_on_c, 0, 72, 96
3, 708000, Note_on_c, 0, 72, 0
3, 708000, Note_on_c, 0, 72, 93
3, 708120, Note_on_c, 0, 72, 0
3, 708120, Note_on_c, 0, 70, 93
3, 708240, Note_on_c, 0, 70, 0
3, 708240, Note_on_c, 0, 69, 92
3, 708360, Note_on_c, 0, 68, 92
3, 708367, Note_on_c, 0, 69, 0
3, 708480, Note_on_c, 0, 68, 0
3, 708480, Note_on_c, 0, 68, 89
3, 708600, Note_on_c, 0, 68, 0
3, 708600, Note_on_c, 0, 69, 87
3, 708840, Note_on_c, 0, 69, 0
3, 708840, Note_on_c, 0, 55, 62
3, 708960, Note_on_c, 0, 55, 0
3, 708960, Note_on_c, 0, 55, 68
3, 708960, Note_on_c, 0, 61, 68
3, 709440, Note_on_c, 0, 61, 0
3, 709440, Note_on_c, 0, 55, 0
3, 709440, Note_on_c, 0, 57, 56
3, 709440, Note_on_c, 0, 53, 56
3, 709680, Note_on_c, 0, 53, 0
3, 709680, Note_on_c, 0, 57, 0
3, 717600, Control_c, 0, 64, 0
3, 740640, Note_on_c, 0, 53, 61
3, 740640, Note_on_c, 0, 57, 61
3, 741120, Note_on_c, 0, 57, 0
3, 741120, Note_on_c, 0, 53, 0
3, 741120, Note_on_c, 0, 64, 65
3, 741120, Note_on_c, 0, 57, 65
3, 741600, Note_on_c, 0, 57, 0
3, 741600, Note_on_c, 0, 64, 0
3, 741600, Note_on_c, 0, 57, 72
3, 741600, Note_on_c, 0, 62, 72
3, 741840, Note_on_c, 0, 62, 0
3, 741840, Note_on_c, 0, 57, 0
3, 742320, Note_on_c, 0, 69, 67
3, 742320, Note_on_c, 0, 62, 67
3, 742560, Note_on_c, 0, 62, 0
3, 742560, Note_on_c, 0, 69, 0
3, 742560, Note_on_c, 0, 64, 70
3, 742560, Note_on_c, 0, 67, 70
3, 742800, Note_on_c, 0, 67, 0
3, 742800, Note_on_c, 0, 64, 0
3, 742800, Note_on_c, 0, 69, 73
3, 742800, Note_on_c, 0, 65, 73
3, 743040, Note_on_c, 0, 65, 0
3, 743040, Note_on_c, 0, 69, 0
3, 743040, Note_on_c, 0, 70, 76
3, 743040, Note_on_c, 0, 64, 76
3, 743280, Note_on_c, 0, 64, 0
3, 743280, Note_on_c, 0, 70, 0
3, 743280, Note_on_c, 0, 71, 78
3, 743280, Note_on_c, 0, 65, 78
3, 743520, Note_on_c, 0, 65, 0
3, 743520, Note_on_c, 0, 71, 0
3, 743520, Note_on_c, 0, 65, 73
3, 743520, Note_on_c, 0, 69, 73
3, 744000, Note_on_c, 0, 69, 0
3, 744000, Note_on_c, 0, 65, 0
3, 744000, Note_on_c, 0, 64, 60
3, 744000, Note_on_c, 0, 69, 60
3, 744240, Note_on_c, 0, 69, 0
3, 744240, Note_on_c, 0, 64, 0
3, 744480, Note_on_c, 0, 60, 62
3, 744480, Note_on_c, 0, 57, 62
3, 744960, Note_on_c, 0, 57, 0
3, 744960, Note_on_c, 0, 60, 0
3, 744960, Note_on_c, 0, 67, 65
3, 744960, Note_on_c, 0, 60, 65
3, 745440, Note_on_c, 0, 60, 0
3, 745440, Note_on_c, 0, 67, 0
3, 745440, Note_on_c, 0, 65, 70
3, 745440, Note_on_c, 0, 60, 70
3, 746047, Note_on_c, 0, 60, 0
3, 746047, Note_on_c, 0, 65, 0
3, 746160, Note_on_c, 0, 69, 61
3, 746160, Note_on_c, 0, 65, 61
3, 746400, Note_on_c, 0, 65, 0
3, 746400, Note_on_c, 0, 69, 0
3, 746400, Note_on_c, 0, 69, 65
3, 746400, Note_on_c, 0, 64, 65
3, 746880, Note_on_c, 0, 64, 0
3, 746880, Note_on_c, 0, 69, 0
3, 746880, Note_on_c, 0, 62, 72
3, 746880, Note_on_c, 0, 64, 72
3, 747360, Note_on_c, 0, 64, 0
3, 747360, Note_on_c, 0, 62, 0
3, 747360, Note_on_c, 0, 60, 68
3, 747360, Note_on_c, 0, 64, 68
3, 747540, Note_on_c, 0, 64, 0
3, 747540, Note_on_c, 0, 60, 0
3, 747600, Note_on_c, 0, 58, 58
3, 747840, Note_on_c, 0, 58, 0
3, 747840, Note_on_c, 0, 57, 61
3, 748080, Note_on_c, 0, 57, 0
3, 750000, Note_on_c, 0, 65, 67
3, 750240, Note_on_c, 0, 65, 0
3, 750240, Note_on_c, 0, 64, 68
3, 750480, Note_on_c, 0, 64, 0
3, 750480, Note_on_c, 0, 65, 71
3, 750720, Note_on_c, 0, 65, 0
3, 750720, Note_on_c, 0, 64, 75
3, 750960, Note_on_c, 0, 64, 0
3, 750960, Note_on_c, 0, 65, 79
3, 751200, Note_on_c, 0, 65, 0
3, 751200, Note_on_c, 0, 65, 80
3, 751680, Note_on_c, 0, 65, 0
3, 751680, Note_on_c, 0, 64, 68
3, 751920, Note_on_c, 0, 64, 0
3, 756000, Note_on_c, 0, 73, 63
3, 756480, Note_on_c, 0, 73, 0
3, 756480, Note_on_c, 0, 76, 66
3, 756900, Note_on_c, 0, 76, 0
3, 756900, Note_on_c, 0, 74, 62
3, 756960, Note_on_c, 0, 74, 0
3, 756960, Note_on_c, 0, 74, 62
3, 757200, Note_on_c, 0, 74, 0
3, 757200, Note_on_c, 0, 73, 74
3, 757200, Note_on_c, 0, 70, 74
3, 757200, Note_on_c, 0, 67, 74
3, 757680, Note_on_c, 0, 67, 0
3, 757680, Note_on_c, 0, 70, 0
3, 757680, Note_on_c, 0, 73, 0
3, 757680, Note_on_c, 0, 71, 67
3, 757680, Note_on_c, 0, 68, 67
3, 757920, Note_on_c, 0, 68, 0
3, 757920, Note_on_c, 0, 71, 0
3, 757920, Note_on_c, 0, 69, 63
3, 758520, Note_on_c, 0, 69, 0
3, 758520, Note_on_c, 0, 73, 68
3, 758640, Note_on_c, 0, 73, 0
3, 758640, Note_on_c, 0, 76, 71
3, 758820, Note_on_c, 0, 76, 0
3, 758820, Note_on_c, 0, 74, 76
3, 758880, Note_on_c, 0, 74, 0
3, 758880, Note_on_c, 0, 74, 73
3, 759120, Note_on_c, 0, 74, 0
3, 759120, Note_on_c, 0, 64, 80
3, 759120, Note_on_c, 0, 70, 80
3, 759120, Note_on_c, 0, 73, 80
3, 759120, Note_on_c, 0, 67, 80
3, 759600, Note_on_c, 0, 67, 0
3, 759600, Note_on_c, 0, 64, 0
3, 759600, Note_on_c, 0, 70, 0
3, 759600, Note_on_c, 0, 73, 0
3, 759600, Note_on_c, 0, 71, 76
3, 759600, Note_on_c, 0, 68, 76
3, 759840, Note_on_c, 0, 68, 0
3, 759840, Note_on_c, 0, 71, 0
3, 759840, Note_on_c, 0, 69, 73
3, 759840, Note_on_c, 0, 64, 73
3, 760020, Note_on_c, 0, 64, 0
3, 760020, Note_on_c, 0, 69, 0
3, 760080, Note_on_c, 0, 73, 88
3, 760080, Note_on_c, 0, 70, 88
3, 760080, Note_on_c, 0, 67, 88
3, 760560, Note_on_c, 0, 67, 0
3, 760560, Note_on_c, 0, 70, 0
3, 760560, Note_on_c, 0, 73, 0
3, 760560, Note_on_c, 0, 71, 81
3, 760560, Note_on_c, 0, 68, 81
3, 760800, Note_on_c, 0, 68, 0
3, 760800, Note_on_c, 0, 71, 0
3, 760800, Note_on_c, 0, 69, 77
3, 760800, Note_on_c, 0, 64, 77
3, 760968, Note_on_c, 0, 69, 0
3, 760980, Note_on_c, 0, 64, 0
3, 761040, Note_on_c, 0, 71, 90
3, 761040, Note_on_c, 0, 68, 90
3, 761280, Note_on_c, 0, 68, 0
3, 761280, Note_on_c, 0, 71, 0
3, 761280, Note_on_c, 0, 69, 81
3, 761280, Note_on_c, 0, 64, 81
3, 761460, Note_on_c, 0, 64, 0
3, 761460, Note_on_c, 0, 69, 0
3, 761520, Note_on_c, 0, 71, 92
3, 761520, Note_on_c, 0, 68, 92
3, 761760, Note_on_c, 0, 68, 0
3, 761760, Note_on_c, 0, 71, 0
3, 761760, Note_on_c, 0, 69, 84
3, 761760, Note_on_c, 0, 64, 84
3, 762240, Note_on_c, 0, 64, 0
3, 762240, Note_on_c, 0, 69, 0
3, 763440, Note_on_c, 0, 61, 60
3, 763680, Note_on_c, 0, 61, 0
3, 763680, Note_on_c, 0, 62, 63
3, 764160, Note_on_c, 0, 62, 0
3, 764160, Note_on_c, 0, 69, 69
3, 764640, Note_on_c, 0, 69, 0
3, 764640, Note_on_c, 0, 67, 75
3, 764880, Note_on_c, 0, 67, 0
3, 764880, Note_on_c, 0, 65, 73
3, 765060, Note_on_c, 0, 65, 0
3, 765060, Note_on_c, 0, 64, 69
3, 765120, Note_on_c, 0, 64, 0
3, 765120, Note_on_c, 0, 62, 68
3, 765247, Note_on_c, 0, 62, 0
3, 765360, Note_on_c, 0, 67, 84
3, 765600, Note_on_c, 0, 67, 0
3, 765600, Note_on_c, 0, 65, 79
3, 765840, Note_on_c, 0, 65, 0
3, 765840, Note_on_c, 0, 64, 74
3, 766020, Note_on_c, 0, 64, 0
3, 766020, Note_on_c, 0, 62, 70
3, 766080, Note_on_c, 0, 62, 0
3, 766080, Note_on_c, 0, 60, 69
3, 766200, Note_on_c, 0, 60, 0
3, 766320, Note_on_c, 0, 69, 90
3, 766560, Note_on_c, 0, 69, 0
3, 766560, Note_on_c, 0, 67, 87
3, 766800, Note_on_c, 0, 67, 0
3, 766800, Note_on_c, 0, 65, 83
3, 766980, Note_on_c, 0, 65, 0
3, 766980, Note_on_c, 0, 64, 81
3, 767040, Note_on_c, 0, 64, 0
3, 767040, Note_on_c, 0, 62, 80
3, 767167, Note_on_c, 0, 62, 0
3, 767280, Note_on_c, 0, 74, 92
3, 767460, Note_on_c, 0, 74, 0
3, 767460, Note_on_c, 0, 72, 96
3, 767520, Note_on_c, 0, 72, 0
3, 767520, Note_on_c, 0, 72, 98
3, 767640, Note_on_c, 0, 72, 0
3, 767640, Note_on_c, 0, 70, 93
3, 767760, Note_on_c, 0, 70, 0
3, 767760, Note_on_c, 0, 69, 92
3, 767880, Note_on_c, 0, 68, 92
3, 767887, Note_on_c, 0, 69, 0
3, 768000, Note_on_c, 0, 68, 0
3, 768000, Note_on_c, 0, 68, 89
3, 768120, Note_on_c, 0, 68, 0
3, 768120, Note_on_c, 0, 69, 87
3, 768360, Note_on_c, 0, 69, 0
3, 768360, Note_on_c, 0, 55, 62
3, 768480, Note_on_c, 0, 55, 0
3, 768480, Note_on_c, 0, 55, 68
3, 768480, Note_on_c, 0, 61, 68
3, 768960, Note_on_c, 0, 61, 0
3, 768960, Note_on_c, 0, 55, 0
3, 768960, Note_on_c, 0, 57, 58
3, 768960, Note_on_c, 0, 53, 58
3, 769200, Note_on_c, 0, 53, 0
3, 769200, Note_on_c, 0, 57, 0
3, 769440, Note_on_c, 0, 73, 63
3, 769920, Note_on_c, 0, 73, 0
3, 769920, Note_on_c, 0, 76, 72
3, 770340, Note_on_c, 0, 76, 0
3, 770340, Note_on_c, 0, 74, 66
3, 770400, Note_on_c, 0, 74, 0
3, 770400, Note_on_c, 0, 74, 63
3, 770640, Note_on_c, 0, 74, 0
3, 770640, Note_on_c, 0, 67, 73
3, 770640, Note_on_c, 0, 73, 73
3, 770640, Note_on_c, 0, 70, 73
3, 771120, Note_on_c, 0, 70, 0
3, 771120, Note_on_c, 0, 73, 0
3, 771120, Note_on_c, 0, 67, 0
3, 771120, Note_on_c, 0, 68, 68
3, 771120, Note_on_c, 0, 71, 68
3, 771360, Note_on_c, 0, 71, 0
3, 771360, Note_on_c, 0, 68, 0
3, 771360, Note_on_c, 0, 69, 71
3, 771607, Note_on_c, 0, 69, 0
3, 772320, Note_on_c, 0, 67, 73
3, 772320, Note_on_c, 0, 70, 73
3, 772560, Note_on_c, 0, 70, 0
3, 772560, Note_on_c, 0, 67, 0
3, 772560, Note_on_c, 0, 67, 80
3, 772560, Note_on_c, 0, 70, 80
3, 773040, Note_on_c, 0, 70, 0
3, 773040, Note_on_c, 0, 67, 0
3, 773040, Note_on_c, 0, 68, 83
3, 773040, Note_on_c, 0, 71, 83
3, 773280, Note_on_c, 0, 71, 0
3, 773280, Note_on_c, 0, 68, 0
3, 773280, Note_on_c, 0, 64, 77
3, 773280, Note_on_c, 0, 69, 77
3, 773460, Note_on_c, 0, 69, 0
3, 773470, Note_on_c, 0, 64, 0
3, 773520, Note_on_c, 0, 67, 88
3, 773520, Note_on_c, 0, 70, 88
3, 773995, Note_on_c, 0, 67, 0
3, 774000, Note_on_c, 0, 70, 0
3, 774000, Note_on_c, 0, 68, 86
3, 774000, Note_on_c, 0, 71, 86
3, 774240, Note_on_c, 0, 71, 0
3, 774240, Note_on_c, 0, 68, 0
3, 774240, Note_on_c, 0, 64, 82
3, 774240, Note_on_c, 0, 69, 82
3, 774420, Note_on_c, 0, 69, 0
3, 774425, Note_on_c, 0, 64, 0
3, 774480, Note_on_c, 0, 68, 90
3, 774480, Note_on_c, 0, 71, 90
3, 774720, Note_on_c, 0, 71, 0
3, 774720, Note_on_c, 0, 68, 0
3, 774720, Note_on_c, 0, 64, 84
3, 774720, Note_on_c, 0, 69, 84
3, 774910, Note_on_c, 0, 69, 0
3, 774915, Note_on_c, 0, 64, 0
3, 774960, Note_on_c, 0, 68, 93
3, 774960, Note_on_c, 0, 71, 93
3, 775200, Note_on_c, 0, 71, 0
3, 775200, Note_on_c, 0, 68, 0
3, 775200, Note_on_c, 0, 64, 85
3, 775200, Note_on_c, 0, 69, 85
3, 775440, Note_on_c, 0, 69, 0
3, 775440, Note_on_c, 0, 64, 0
3, 782880, Note_on_c, 0, 57, 63
3, 783360, Note_on_c, 0, 57, 0
3, 783360, Note_on_c, 0, 57, 64
3, 783840, Note_on_c, 0, 57, 0
3, 783840, Note_on_c, 0, 57, 64
3, 784447, Note_on_c, 0, 57, 0
3, 784560, Note_on_c, 0, 57, 59
3, 784752, Note_on_c, 0, 57, 0
3, 784800, Note_on_c, 0, 58, 59
3, 784800, Note_on_c, 0, 62, 59
3, 784992, Note_on_c, 0, 62, 0
3, 784992, Note_on_c, 0, 58, 0
3, 785040, Note_on_c, 0, 57, 63
3, 785040, Note_on_c, 0, 62, 63
3, 785232, Note_on_c, 0, 62, 0
3, 785232, Note_on_c, 0, 57, 0
3, 785280, Note_on_c, 0, 55, 67
3, 785280, Note_on_c, 0, 62, 67
3, 785472, Note_on_c, 0, 62, 0
3, 785472, Note_on_c, 0, 55, 0
3, 785520, Note_on_c, 0, 57, 71
3, 785520, Note_on_c, 0, 62, 71
3, 785712, Note_on_c, 0, 62, 0
3, 785712, Note_on_c, 0, 57, 0
3, 785760, Note_on_c, 0, 62, 64
3, 785760, Note_on_c, 0, 58, 64
3, 786600, Note_on_c, 0, 62, 0
3, 786607, Note_on_c, 0, 58, 0
3, 786720, Note_on_c, 0, 59, 65
3, 786720, Note_on_c, 0, 62, 65
3, 786912, Note_on_c, 0, 62, 0
3, 786912, Note_on_c, 0, 59, 0
3, 786960, Note_on_c, 0, 57, 70
3, 786960, Note_on_c, 0, 62, 70
3, 787152, Note_on_c, 0, 62, 0
3, 787152, Note_on_c, 0, 57, 0
3, 787200, Note_on_c, 0, 56, 75
3, 787200, Note_on_c, 0, 62, 75
3, 787392, Note_on_c, 0, 62, 0
3, 787392, Note_on_c, 0, 56, 0
3, 787440, Note_on_c, 0, 57, 79
3, 787440, Note_on_c, 0, 62, 79
3, 787632, Note_on_c, 0, 62, 0
3, 787632, Note_on_c, 0, 57, 0
3, 787680, Note_on_c, 0, 59, 72
3, 787680, Note_on_c, 0, 62, 72
3, 788520, Note_on_c, 0, 62, 0
3, 788527, Note_on_c, 0, 59, 0
3, 788640, Note_on_c, 0, 61, 64
3, 788640, Note_on_c, 0, 57, 64
3, 788757, Note_on_c, 0, 57, 0
3, 788757, Note_on_c, 0, 61, 0
3, 788820, Note_on_c, 0, 61, 60
3, 788820, Note_on_c, 0, 57, 60
3, 788859, Note_on_c, 0, 57, 0
3, 788859, Note_on_c, 0, 61, 0
3, 788880, Note_on_c, 0, 57, 58
3, 788880, Note_on_c, 0, 61, 58
3, 789000, Note_on_c, 0, 61, 0
3, 789000, Note_on_c, 0, 57, 0
3, 789600, Note_on_c, 0, 62, 74
3, 789600, Note_on_c, 0, 57, 74
3, 789717, Note_on_c, 0, 57, 0
3, 789717, Note_on_c, 0, 62, 0
3, 789780, Note_on_c, 0, 62, 71
3, 789780, Note_on_c, 0, 57, 71
3, 789819, Note_on_c, 0, 57, 0
3, 789819, Note_on_c, 0, 62, 0
3, 789840, Note_on_c, 0, 57, 70
3, 789840, Note_on_c, 0, 62, 70
3, 789955, Note_on_c, 0, 62, 0
3, 789955, Note_on_c, 0, 57, 0
3, 790560, Note_on_c, 0, 58, 92
3, 790560, Note_on_c, 0, 64, 92
3, 790560, Note_on_c, 0, 61, 92
3, 790677, Note_on_c, 0, 61, 0
3, 790677, Note_on_c, 0, 64, 0
3, 790677, Note_on_c, 0, 58, 0
3, 790740, Note_on_c, 0, 64, 88
3, 790740, Note_on_c, 0, 61, 88
3, 790740, Note_on_c, 0, 58, 88
3, 790779, Note_on_c, 0, 58, 0
3, 790779, Note_on_c, 0, 61, 0
3, 790779, Note_on_c, 0, 64, 0
3, 790800, Note_on_c, 0, 58, 87
3, 790800, Note_on_c, 0, 61, 87
3, 790800, Note_on_c, 0, 64, 87
3, 790915, Note_on_c, 0, 64, 0
3, 790915, Note_on_c, 0, 61, 0
3, 790915, Note_on_c, 0, 58, 0
3, 797280, Note_on_c, 0, 79, 53
3, 798480, Note_on_c, 0, 79, 0
3, 798480, Note_on_c, 0, 77, 45
3, 799440, Note_on_c, 0, 77, 0
3, 800880, Control_c, 0, 64, 127
3, 801600, Note_on_c, 0, 66, 66
3, 802320, Note_on_c, 0, 66, 0
3, 803760, Control_c, 0, 64, 0
3, 806640, Control_c, 0, 64, 127
3, 807360, Note_on_c, 0, 69, 82
3, 808080, Note_on_c, 0, 69, 0
3, 809520, Control_c, 0, 64, 0
3, 812400, Control_c, 0, 64, 127
3, 813120, Note_on_c, 0, 66, 99
3, 813120, Note_on_c, 0, 62, 99
3, 813840, Note_on_c, 0, 62, 0
3, 813840, Note_on_c, 0, 66, 0
3, 815280, Control_c, 0, 64, 0
3, 818160, Control_c, 0, 64, 127
3, 818880, Note_on_c, 0, 69, 113
3, 819600, Note_on_c, 0, 69, 0
3, 821040, Control_c, 0, 64, 0
3, 835440, Control_c, 0, 64, 127
3, 836160, Note_on_c, 0, 62, 70
3, 836160, Note_on_c, 0, 66, 70
3, 836880, Note_on_c, 0, 66, 0
3, 836880, Note_on_c, 0, 62, 0
3, 838320, Control_c, 0, 64, 0
3, 841200, Control_c, 0, 64, 127
3, 841920, Note_on_c, 0, 62, 118
3, 841920, Note_on_c, 0, 69, 118
3, 841920, Note_on_c, 0, 74, 118
3, 841920, Note_on_c, 0, 66, 118
3, 842640, Note_on_c, 0, 66, 0
3, 842640, Note_on_c, 0, 62, 0
3, 842640, Note_on_c, 0, 69, 0
3, 842640, Note_on_c, 0, 74, 0
3, 844080, Control_c, 0, 64, 0
3, 850560, Control_c, 0, 64, 0
3, 874320, Control_c, 0, 64, 127
3, 875040, Note_on_c, 0, 66, 66
3, 875760, Note_on_c, 0, 66, 0
3, 877200, Control_c, 0, 64, 0
3, 880080, Control_c, 0, 64, 127
3, 880800, Note_on_c, 0, 69, 82
3, 881520, Note_on_c, 0, 69, 0
3, 882960, Control_c, 0, 64, 0
3, 885840, Control_c, 0, 64, 127
3, 886560, Note_on_c, 0, 62, 99
3, 886560, Note_on_c, 0, 66, 99
3, 887280, Note_on_c, 0, 66, 0
3, 887280, Note_on_c, 0, 62, 0
3, 888720, Control_c, 0, 64, 0
3, 891600, Control_c, 0, 64, 127
3, 892320, Note_on_c, 0, 69, 113
3, 893040, Note_on_c, 0, 69, 0
3, 894480, Control_c, 0, 64, 0
3, 908880, Control_c, 0, 64, 127
3, 909600, Note_on_c, 0, 66, 70
3, 909600, Note_on_c, 0, 62, 70
3, 910320, Note_on_c, 0, 62, 0
3, 910320, Note_on_c, 0, 66, 0
3, 911760, Control_c, 0, 64, 0
3, 914640, Control_c, 0, 64, 127
3, 915360, Note_on_c, 0, 66, 118
3, 915360, Note_on_c, 0, 74, 118
3, 915360, Note_on_c, 0, 69, 118
3, 915360, Note_on_c, 0, 62, 118
3, 916080, Note_on_c, 0, 62, 0
3, 916080, Note_on_c, 0, 66, 0
3, 916080, Note_on_c, 0, 74, 0
3, 916080, Note_on_c, 0, 69, 0
3, 917520, Control_c, 0, 64, 0
3, 924720, Control_c, 0, 7, 122
3, 924720, Pitch_bend_c, 0, 8192
3, 924720, Control_c, 0, 1, 0
3, 924720, Control_c, 0, 64, 0
3, 924720, Control_c, 0, 93, 28
3, 924720, Control_c, 0, 91, 91
3, 924720, Control_c, 0, 10, 64
3, 929040, Note_on_c, 0, 69, 65
3, 929760, Note_on_c, 0, 69, 0
3, 929760, Note_on_c, 0, 71, 61
3, 930480, Note_on_c, 0, 71, 0
3, 930480, Note_on_c, 0, 67, 58
3, 930888, Note_on_c, 0, 67, 0
3, 930960, Note_on_c, 0, 67, 55
3, 931116, Note_on_c, 0, 67, 0
3, 931200, Note_on_c, 0, 66, 54
3, 931356, Note_on_c, 0, 66, 0
3, 934800, Note_on_c, 0, 69, 59
3, 935520, Note_on_c, 0, 69, 0
3, 935520, Note_on_c, 0, 71, 55
3, 936240, Note_on_c, 0, 71, 0
3, 936240, Note_on_c, 0, 67, 52
3, 936648, Note_on_c, 0, 67, 0
3, 936720, Note_on_c, 0, 67, 49
3, 936876, Note_on_c, 0, 67, 0
3, 936960, Note_on_c, 0, 66, 48
3, 937116, Note_on_c, 0, 66, 0
3, 937440, Note_on_c, 0, 66, 55
3, 937680, Note_on_c, 0, 66, 0
3, 937680, Note_on_c, 0, 67, 56
3, 938556, Note_on_c, 0, 67, 0
3, 938880, Note_on_c, 0, 67, 61
3, 939120, Note_on_c, 0, 67, 0
3, 939120, Note_on_c, 0, 66, 61
3, 939996, Note_on_c, 0, 66, 0
3, 940320, Note_on_c, 0, 66, 66
3, 940560, Note_on_c, 0, 66, 0
3, 940560, Note_on_c, 0, 67, 67
3, 941436, Note_on_c, 0, 67, 0
3, 941760, Note_on_c, 0, 67, 60
3, 942000, Note_on_c, 0, 67, 0
3, 942000, Note_on_c, 0, 66, 57
3, 942240, Note_on_c, 0, 66, 0
3, 943200, Note_on_c, 0, 66, 49
3, 943440, Note_on_c, 0, 66, 0
3, 943440, Note_on_c, 0, 67, 50
3, 944316, Note_on_c, 0, 67, 0
3, 944640, Note_on_c, 0, 67, 56
3, 944880, Note_on_c, 0, 67, 0
3, 944880, Note_on_c, 0, 66, 57
3, 945756, Note_on_c, 0, 66, 0
3, 946080, Note_on_c, 0, 66, 63
3, 946320, Note_on_c, 0, 66, 0
3, 946320, Note_on_c, 0, 67, 61
3, 947196, Note_on_c, 0, 67, 0
3, 947520, Note_on_c, 0, 67, 55
3, 947760, Note_on_c, 0, 67, 0
3, 947760, Note_on_c, 0, 66, 54
3, 948000, Note_on_c, 0, 66, 0
3, 953520, Note_on_c, 0, 73, 72
3, 953640, Note_on_c, 0, 73, 0
3, 953640, Note_on_c, 0, 69, 73
3, 953760, Note_on_c, 0, 69, 0
3, 953760, Note_on_c, 0, 73, 72
3, 953880, Note_on_c, 0, 73, 0
3, 953880, Note_on_c, 0, 69, 70
3, 954000, Note_on_c, 0, 69, 0
3, 954000, Note_on_c, 0, 74, 69
3, 954120, Note_on_c, 0, 74, 0
3, 954120, Note_on_c, 0, 69, 68
3, 954240, Note_on_c, 0, 69, 0
3, 954240, Note_on_c, 0, 73, 66
3, 954360, Note_on_c, 0, 73, 0
3, 967680, Note_on_c, 0, 73, 73
3, 967920, Note_on_c, 0, 73, 0
3, 967920, Note_on_c, 0, 69, 73
3, 968400, Note_on_c, 0, 69, 0
3, 968400, Note_on_c, 0, 76, 71
3, 968640, Note_on_c, 0, 76, 0
3, 968640, Note_on_c, 0, 73, 71
3, 969120, Note_on_c, 0, 73, 0
3, 969120, Note_on_c, 0, 69, 69
3, 969360, Note_on_c, 0, 69, 0
3, 969360, Note_on_c, 0, 73, 69
3, 969840, Note_on_c, 0, 73, 0
3, 969840, Note_on_c, 0, 69, 67
3, 970080, Note_on_c, 0, 69, 0
3, 970080, Note_on_c, 0, 64, 67
3, 970560, Note_on_c, 0, 64, 0
3, 970560, Note_on_c, 0, 73, 65
3, 970560, Note_on_c, 0, 69, 65
3, 970800, Note_on_c, 0, 69, 0
3, 970800, Note_on_c, 0, 73, 0
3, 970800, Note_on_c, 0, 71, 65
3, 970800, Note_on_c, 0, 68, 65
3, 971280, Note_on_c, 0, 68, 0
3, 971280, Note_on_c, 0, 71, 0
3, 971280, Note_on_c, 0, 74, 62
3, 971280, Note_on_c, 0, 71, 62
3, 971520, Note_on_c, 0, 71, 0
3, 971520, Note_on_c, 0, 74, 0
3, 971520, Note_on_c, 0, 73, 60
3, 971520, Note_on_c, 0, 69, 60
3, 971760, Note_on_c, 0, 69, 0
3, 971760, Note_on_c, 0, 73, 0
3, 973320, Note_on_c, 0, 73, 61
3, 973440, Note_on_c, 0, 73, 0
3, 973440, Note_on_c, 0, 72, 62
3, 973560, Note_on_c, 0, 72, 0
3, 973560, Note_on_c, 0, 73, 63
3, 973680, Note_on_c, 0, 73, 0
3, 973680, Note_on_c, 0, 69, 65
3, 973800, Note_on_c, 0, 69, 0
3, 974040, Note_on_c, 0, 76, 60
3, 974160, Note_on_c, 0, 76, 0
3, 974160, Note_on_c, 0, 75, 61
3, 974280, Note_on_c, 0, 75, 0
3, 974280, Note_on_c, 0, 76, 63
3, 974400, Note_on_c, 0, 76, 0
3, 974400, Note_on_c, 0, 73, 65
3, 974520, Note_on_c, 0, 73, 0
3, 974880, Note_on_c, 0, 69, 64
3, 975000, Note_on_c, 0, 69, 0
3, 975120, Note_on_c, 0, 73, 63
3, 975600, Note_on_c, 0, 73, 0
3, 975600, Note_on_c, 0, 69, 59
3, 975840, Note_on_c, 0, 69, 0
3, 975840, Note_on_c, 0, 64, 57
3, 976080, Note_on_c, 0, 64, 0
3, 976320, Note_on_c, 0, 73, 68
3, 976320, Note_on_c, 0, 76, 68
3, 976560, Note_on_c, 0, 76, 0
3, 976560, Note_on_c, 0, 73, 0
3, 976560, Note_on_c, 0, 71, 67
3, 976560, Note_on_c, 0, 76, 67
3, 977040, Note_on_c, 0, 76, 0
3, 977040, Note_on_c, 0, 71, 0
3, 977040, Note_on_c, 0, 74, 64
3, 977040, Note_on_c, 0, 76, 64
3, 977280, Note_on_c, 0, 76, 0
3, 977280, Note_on_c, 0, 74, 0
3, 977280, Note_on_c, 0, 73, 62
3, 977280, Note_on_c, 0, 76, 62
3, 977520, Note_on_c, 0, 76, 0
3, 977520, Note_on_c, 0, 73, 0
3, 977760, Note_on_c, 0, 73, 74
3, 977760, Note_on_c, 0, 69, 74
3, 978000, Note_on_c, 0, 69, 0
3, 978000, Note_on_c, 0, 73, 0
3, 978000, Note_on_c, 0, 71, 73
3, 978000, Note_on_c, 0, 68, 73
3, 978480, Note_on_c, 0, 68, 0
3, 978480, Note_on_c, 0, 71, 0
3, 978480, Note_on_c, 0, 71, 69
3, 978480, Note_on_c, 0, 74, 69
3, 978720, Note_on_c, 0, 74, 0
3, 978720, Note_on_c, 0, 71, 0
3, 978720, Note_on_c, 0, 73, 68
3, 978720, Note_on_c, 0, 69, 68
3, 978960, Note_on_c, 0, 69, 0
3, 978960, Note_on_c, 0, 73, 0
3, 979200, Note_on_c, 0, 73, 82
3, 979200, Note_on_c, 0, 76, 82
3, 979440, Note_on_c, 0, 76, 0
3, 979440, Note_on_c, 0, 73, 0
3, 979440, Note_on_c, 0, 71, 81
3, 979440, Note_on_c, 0, 76, 81
3, 979920, Note_on_c, 0, 76, 0
3, 979920, Note_on_c, 0, 71, 0
3, 979920, Note_on_c, 0, 74, 78
3, 979920, Note_on_c, 0, 76, 78
3, 980160, Note_on_c, 0, 76, 0
3, 980160, Note_on_c, 0, 74, 0
3, 980160, Note_on_c, 0, 73, 76
3, 980160, Note_on_c, 0, 76, 76
3, 980400, Note_on_c, 0, 76, 0
3, 980400, Note_on_c, 0, 73, 0
3, 980640, Note_on_c, 0, 73, 92
3, 980640, Note_on_c, 0, 69, 92
3, 980880, Note_on_c, 0, 69, 0
3, 980880, Note_on_c, 0, 73, 0
3, 980880, Note_on_c, 0, 71, 91
3, 980880, Note_on_c, 0, 76, 91
3, 981360, Note_on_c, 0, 76, 0
3, 981360, Note_on_c, 0, 71, 0
3, 981360, Note_on_c, 0, 74, 89
3, 981360, Note_on_c, 0, 76, 89
3, 981600, Note_on_c, 0, 76, 0
3, 981600, Note_on_c, 0, 74, 0
3, 981600, Note_on_c, 0, 73, 88
3, 981600, Note_on_c, 0, 76, 88
3, 981840, Note_on_c, 0, 76, 0
3, 981840, Note_on_c, 0, 73, 0
3, 982080, Note_on_c, 0, 73, 97
3, 982080, Note_on_c, 0, 76, 97
3, 982320, Note_on_c, 0, 76, 0
3, 982320, Note_on_c, 0, 73, 0
3, 982320, Note_on_c, 0, 74, 94
3, 982320, Note_on_c, 0, 78, 94
3, 983760, Note_on_c, 0, 78, 0
3, 983760, Note_on_c, 0, 74, 0
3, 983760, Note_on_c, 0, 74, 95
3, 985200, Note_on_c, 0, 74, 0
3, 999600, Note_on_c, 0, 69, 65
3, 1000320, Note_on_c, 0, 69, 0
3, 1000320, Note_on_c, 0, 71, 61
3, 1001040, Note_on_c, 0, 71, 0
3, 1001040, Note_on_c, 0, 67, 58
3, 1001520, Note_on_c, 0, 67, 0
3, 1001520, Note_on_c, 0, 67, 55
3, 1001676, Note_on_c, 0, 67, 0
3, 1001760, Note_on_c, 0, 66, 54
3, 1001916, Note_on_c, 0, 66, 0
3, 1005360, Note_on_c, 0, 69, 65
3, 1006080, Note_on_c, 0, 69, 0
3, 1006080, Note_on_c, 0, 71, 61
3, 1006800, Note_on_c, 0, 71, 0
3, 1006800, Note_on_c, 0, 67, 58
3, 1007280, Note_on_c, 0, 67, 0
3, 1007280, Note_on_c, 0, 67, 55
3, 1007436, Note_on_c, 0, 67, 0
3, 1007520, Note_on_c, 0, 66, 54
3, 1007676, Note_on_c, 0, 66, 0
3, 1008000, Note_on_c, 0, 66, 62
3, 1008240, Note_on_c, 0, 66, 0
3, 1008240, Note_on_c, 0, 67, 62
3, 1009116, Note_on_c, 0, 67, 0
3, 1009440, Note_on_c, 0, 67, 66
3, 1009680, Note_on_c, 0, 67, 0
3, 1009680, Note_on_c, 0, 66, 67
3, 1010556, Note_on_c, 0, 66, 0
3, 1010880, Note_on_c, 0, 66, 70
3, 1011120, Note_on_c, 0, 66, 0
3, 1011120, Note_on_c, 0, 67, 69
3, 1011996, Note_on_c, 0, 67, 0
3, 1012320, Note_on_c, 0, 67, 65
3, 1012560, Note_on_c, 0, 67, 0
3, 1012560, Note_on_c, 0, 66, 64
3, 1012800, Note_on_c, 0, 66, 0
3, 1013760, Note_on_c, 0, 66, 59
3, 1014000, Note_on_c, 0, 66, 0
3, 1014000, Note_on_c, 0, 67, 60
3, 1014876, Note_on_c, 0, 67, 0
3, 1015200, Note_on_c, 0, 67, 64
3, 1015440, Note_on_c, 0, 67, 0
3, 1015440, Note_on_c, 0, 66, 65
3, 1016316, Note_on_c, 0, 66, 0
3, 1016640, Note_on_c, 0, 66, 69
3, 1016880, Note_on_c, 0, 66, 0
3, 1016880, Note_on_c, 0, 67, 68
3, 1017756, Note_on_c, 0, 67, 0
3, 1018080, Note_on_c, 0, 67, 63
3, 1018320, Note_on_c, 0, 67, 0
3, 1018320, Note_on_c, 0, 66, 63
3, 1018560, Note_on_c, 0, 66, 0
3, 1035600, Note_on_c, 0, 71, 51
3, 1035840, Note_on_c, 0, 71, 0
3, 1035840, Note_on_c, 0, 72, 52
3, 1036080, Note_on_c, 0, 72, 0
3, 1036080, Note_on_c, 0, 74, 53
3, 1036320, Note_on_c, 0, 74, 0
3, 1036320, Note_on_c, 0, 76, 54
3, 1037280, Note_on_c, 0, 76, 0
3, 1037280, Note_on_c, 0, 74, 57
3, 1037520, Note_on_c, 0, 74, 0
3, 1037520, Note_on_c, 0, 76, 58
3, 1037760, Note_on_c, 0, 76, 0
3, 1037760, Note_on_c, 0, 78, 59
3, 1038720, Note_on_c, 0, 78, 0
3, 1038720, Note_on_c, 0, 76, 63
3, 1038960, Note_on_c, 0, 76, 0
3, 1038960, Note_on_c, 0, 78, 64
3, 1039200, Note_on_c, 0, 78, 0
3, 1039200, Note_on_c, 0, 79, 65
3, 1039680, Note_on_c, 0, 79, 0
3, 1039680, Note_on_c, 0, 78, 67
3, 1039920, Note_on_c, 0, 78, 0
3, 1039920, Note_on_c, 0, 76, 70
3, 1040400, Note_on_c, 0, 76, 0
3, 1040400, Note_on_c, 0, 74, 66
3, 1040640, Note_on_c, 0, 74, 0
3, 1040640, Note_on_c, 0, 76, 64
3, 1041120, Note_on_c, 0, 76, 0
3, 1041120, Note_on_c, 0, 76, 61
3, 1041360, Note_on_c, 0, 76, 0
3, 1041360, Note_on_c, 0, 74, 59
3, 1042320, Note_on_c, 0, 74, 0
3, 1042320, Note_on_c, 0, 73, 63
3, 1042560, Note_on_c, 0, 73, 0
3, 1042560, Note_on_c, 0, 75, 64
3, 1042800, Note_on_c, 0, 75, 0
3, 1042800, Note_on_c, 0, 76, 65
3, 1043760, Note_on_c, 0, 76, 0
3, 1043760, Note_on_c, 0, 75, 70
3, 1044000, Note_on_c, 0, 75, 0
3, 1044000, Note_on_c, 0, 77, 71
3, 1044240, Note_on_c, 0, 77, 0
3, 1044240, Note_on_c, 0, 78, 72
3, 1045200, Note_on_c, 0, 78, 0
3, 1045200, Note_on_c, 0, 77, 77
3, 1045680, Note_on_c, 0, 77, 0
3, 1045680, Note_on_c, 0, 76, 80
3, 1046160, Note_on_c, 0, 76, 0
3, 1046160, Note_on_c, 0, 75, 76
3, 1046400, Note_on_c, 0, 75, 0
3, 1046400, Note_on_c, 0, 74, 75
3, 1046640, Note_on_c, 0, 74, 0
3, 1046640, Note_on_c, 0, 78, 73
3, 1046880, Note_on_c, 0, 78, 0
3, 1046880, Note_on_c, 0, 78, 71
3, 1047120, Note_on_c, 0, 78, 0
3, 1047120, Note_on_c, 0, 71, 71
3, 1047120, Note_on_c, 0, 79, 71
3, 1047360, Note_on_c, 0, 79, 0
3, 1047360, Note_on_c, 0, 71, 0
3, 1047360, Note_on_c, 0, 65, 72
3, 1047600, Note_on_c, 0, 65, 0
3, 1047600, Note_on_c, 0, 63, 73
3, 1047840, Note_on_c, 0, 63, 0
3, 1047840, Note_on_c, 0, 64, 74
3, 1048800, Note_on_c, 0, 64, 0
3, 1048800, Note_on_c, 0, 67, 78
3, 1049040, Note_on_c, 0, 67, 0
3, 1049040, Note_on_c, 0, 65, 80
3, 1049280, Note_on_c, 0, 65, 0
3, 1049280, Note_on_c, 0, 66, 81
3, 1050240, Note_on_c, 0, 66, 0
3, 1050240, Note_on_c, 0, 69, 85
3, 1050480, Note_on_c, 0, 69, 0
3, 1050480, Note_on_c, 0, 66, 86
3, 1050720, Note_on_c, 0, 66, 0
3, 1050720, Note_on_c, 0, 67, 87
3, 1051680, Note_on_c, 0, 67, 0
3, 1051680, Note_on_c, 0, 69, 88
3, 1051920, Note_on_c, 0, 69, 0
3, 1051920, Note_on_c, 0, 67, 87
3, 1052160, Note_on_c, 0, 67, 0
3, 1052160, Note_on_c, 0, 66, 85
3, 1052400, Note_on_c, 0, 66, 0
3, 1052400, Note_on_c, 0, 67, 83
3, 1052640, Note_on_c, 0, 67, 0
3, 1052640, Note_on_c, 0, 69, 81
3, 1052880, Note_on_c, 0, 69, 0
3, 1052880, Note_on_c, 0, 67, 81
3, 1052880, Note_on_c, 0, 70, 81
3, 1053840, Note_on_c, 0, 70, 0
3, 1053840, Note_on_c, 0, 67, 0
3, 1053840, Note_on_c, 0, 66, 85
3, 1053840, Note_on_c, 0, 69, 85
3, 1054080, Note_on_c, 0, 69, 0
3, 1054080, Note_on_c, 0, 66, 0
3, 1054080, Note_on_c, 0, 67, 86
3, 1054080, Note_on_c, 0, 71, 86
3, 1054320, Note_on_c, 0, 71, 0
3, 1054320, Note_on_c, 0, 67, 0
3, 1054320, Note_on_c, 0, 69, 87
3, 1054320, Note_on_c, 0, 72, 87
3, 1055280, Note_on_c, 0, 72, 0
3, 1055280, Note_on_c, 0, 69, 0
3, 1055280, Note_on_c, 0, 67, 91
3, 1055280, Note_on_c, 0, 71, 91
3, 1055520, Note_on_c, 0, 71, 0
3, 1055520, Note_on_c, 0, 67, 0
3, 1055520, Note_on_c, 0, 69, 92
3, 1055520, Note_on_c, 0, 72, 92
3, 1055760, Note_on_c, 0, 72, 0
3, 1055760, Note_on_c, 0, 69, 0
3, 1055760, Note_on_c, 0, 71, 93
3, 1055760, Note_on_c, 0, 74, 93
3, 1056720, Note_on_c, 0, 74, 0
3, 1056720, Note_on_c, 0, 71, 0
3, 1056720, Note_on_c, 0, 72, 96
3, 1056720, Note_on_c, 0, 75, 96
3, 1056960, Note_on_c, 0, 75, 0
3, 1056960, Note_on_c, 0, 72, 0
3, 1056960, Note_on_c, 0, 70, 97
3, 1056960, Note_on_c, 0, 74, 97
3, 1057200, Note_on_c, 0, 74, 0
3, 1057200, Note_on_c, 0, 70, 0
3, 1057200, Note_on_c, 0, 69, 100
3, 1057200, Note_on_c, 0, 73, 100
3, 1057680, Note_on_c, 0, 73, 0
3, 1057680, Note_on_c, 0, 69, 0
3, 1057680, Note_on_c, 0, 71, 97
3, 1057680, Note_on_c, 0, 74, 97
3, 1057920, Note_on_c, 0, 74, 0
3, 1057920, Note_on_c, 0, 71, 0
3, 1057920, Note_on_c, 0, 69, 95
3, 1057920, Note_on_c, 0, 73, 95
3, 1058400, Note_on_c, 0, 73, 0
3, 1058400, Note_on_c, 0, 69, 0
3, 1058400, Note_on_c, 0, 76, 92
3, 1058400, Note_on_c, 0, 73, 92
3, 1058640, Note_on_c, 0, 73, 0
3, 1058640, Note_on_c, 0, 76, 0
3, 1058640, Control_c, 0, 64, 0
3, 1058640, Note_on_c, 0, 74, 93
3, 1058640, Note_on_c, 0, 69, 93
3, 1058700, Control_c, 0, 64, 127
3, 1058880, Note_on_c, 0, 69, 0
3, 1058880, Note_on_c, 0, 74, 0
3, 1058880, Note_on_c, 0, 53, 93
3, 1059120, Note_on_c, 0, 53, 0
3, 1059120, Note_on_c, 0, 57, 94
3, 1059360, Note_on_c, 0, 57, 0
3, 1059360, Note_on_c, 0, 62, 94
3, 1059600, Note_on_c, 0, 62, 0
3, 1060080, Control_c, 0, 64, 0
3, 1060140, Control_c, 0, 64, 127
3, 1060320, Note_on_c, 0, 61, 97
3, 1060560, Note_on_c, 0, 61, 0
3, 1060560, Note_on_c, 0, 64, 97
3, 1060800, Note_on_c, 0, 64, 0
3, 1060800, Note_on_c, 0, 67, 98
3, 1061040, Note_on_c, 0, 67, 0
3, 1061520, Control_c, 0, 64, 0
3, 1061580, Control_c, 0, 64, 127
3, 1061760, Note_on_c, 0, 62, 100
3, 1062000, Note_on_c, 0, 62, 0
3, 1062000, Note_on_c, 0, 65, 101
3, 1062240, Note_on_c, 0, 65, 0
3, 1062240, Note_on_c, 0, 69, 102
3, 1062480, Note_on_c, 0, 69, 0
3, 1062960, Control_c, 0, 64, 0
3, 1063020, Control_c, 0, 64, 127
3, 1063200, Note_on_c, 0, 63, 104
3, 1063440, Note_on_c, 0, 63, 0
3, 1063440, Note_on_c, 0, 67, 105
3, 1063680, Note_on_c, 0, 67, 0
3, 1063680, Note_on_c, 0, 70, 105
3, 1063920, Note_on_c, 0, 70, 0
3, 1064400, Control_c, 0, 64, 0
3, 1064460, Control_c, 0, 64, 127
3, 1064640, Note_on_c, 0, 66, 108
3, 1064880, Note_on_c, 0, 66, 0
3, 1064880, Note_on_c, 0, 69, 108
3, 1065120, Note_on_c, 0, 69, 0
3, 1065120, Note_on_c, 0, 72, 109
3, 1065360, Note_on_c, 0, 72, 0
3, 1065840, Control_c, 0, 64, 0
3, 1093200, Note_on_c, 0, 69, 65
3, 1093920, Note_on_c, 0, 69, 0
3, 1093920, Note_on_c, 0, 71, 61
3, 1094640, Note_on_c, 0, 71, 0
3, 1094640, Note_on_c, 0, 67, 58
3, 1095120, Note_on_c, 0, 67, 0
3, 1095120, Note_on_c, 0, 67, 55
3, 1095276, Note_on_c, 0, 67, 0
3, 1095360, Note_on_c, 0, 66, 54
3, 1095516, Note_on_c, 0, 66, 0
3, 1098960, Note_on_c, 0, 69, 60
3, 1099680, Note_on_c, 0, 69, 0
3, 1099680, Note_on_c, 0, 71, 59
3, 1100400, Note_on_c, 0, 71, 0
3, 1100400, Note_on_c, 0, 67, 58
3, 1100880, Note_on_c, 0, 67, 0
3, 1100880, Note_on_c, 0, 67, 57
3, 1101036, Note_on_c, 0, 67, 0
3, 1101120, Note_on_c, 0, 66, 57
3, 1101276, Note_on_c, 0, 66, 0
3, 1101600, Note_on_c, 0, 66, 62
3, 1101840, Note_on_c, 0, 66, 0
3, 1101840, Note_on_c, 0, 67, 62
3, 1102716, Note_on_c, 0, 67, 0
3, 1103040, Note_on_c, 0, 67, 66
3, 1103280, Note_on_c, 0, 67, 0
3, 1103280, Note_on_c, 0, 66, 67
3, 1104156, Note_on_c, 0, 66, 0
3, 1104480, Note_on_c, 0, 66, 70
3, 1104720, Note_on_c, 0, 66, 0
3, 1104720, Note_on_c, 0, 67, 69
3, 1105596, Note_on_c, 0, 67, 0
3, 1105920, Note_on_c, 0, 67, 65
3, 1106160, Note_on_c, 0, 67, 0
3, 1106160, Note_on_c, 0, 66, 64
3, 1106400, Note_on_c, 0, 66, 0
3, 1107360, Note_on_c, 0, 66, 59
3, 1107600, Note_on_c, 0, 66, 0
3, 1107600, Note_on_c, 0, 67, 60
3, 1108476, Note_on_c, 0, 67, 0
3, 1108800, Note_on_c, 0, 67, 65
3, 1109040, Note_on_c, 0, 67, 0
3, 1109040, Note_on_c, 0, 66, 67
3, 1109916, Note_on_c, 0, 66, 0
3, 1110240, Note_on_c, 0, 66, 69
3, 1110480, Note_on_c, 0, 66, 0
3, 1110480, Note_on_c, 0, 67, 68
3, 1111356, Note_on_c, 0, 67, 0
3, 1111680, Note_on_c, 0, 67, 61
3, 1111920, Note_on_c, 0, 67, 0
3, 1111920, Note_on_c, 0, 66, 60
3, 1112160, Note_on_c, 0, 66, 0
3, 1117680, Control_c, 0, 64, 0
3, 1117680, Note_on_c, 0, 73, 72
3, 1117740, Control_c, 0, 64, 127
3, 1117800, Note_on_c, 0, 73, 0
3, 1117800, Note_on_c, 0, 69, 71
3, 1117920, Note_on_c, 0, 69, 0
3, 1117920, Note_on_c, 0, 73, 70
3, 1118040, Note_on_c, 0, 73, 0
3, 1118040, Note_on_c, 0, 69, 68
3, 1118160, Note_on_c, 0, 69, 0
3, 1118160, Control_c, 0, 64, 0
3, 1118160, Note_on_c, 0, 74, 67
3, 1118220, Control_c, 0, 64, 127
3, 1118280, Note_on_c, 0, 74, 0
3, 1118280, Note_on_c, 0, 69, 65
3, 1118400, Note_on_c, 0, 69, 0
3, 1118400, Note_on_c, 0, 73, 63
3, 1118520, Note_on_c, 0, 73, 0
3, 1118640, Control_c, 0, 64, 0
3, 1136160, Note_on_c, 0, 66, 72
3, 1136400, Note_on_c, 0, 66, 0
3, 1136400, Note_on_c, 0, 62, 72
3, 1136880, Note_on_c, 0, 62, 0
3, 1136880, Note_on_c, 0, 69, 71
3, 1137120, Note_on_c, 0, 69, 0
3, 1137120, Note_on_c, 0, 66, 71
3, 1137600, Note_on_c, 0, 66, 0
3, 1137600, Note_on_c, 0, 62, 72
3, 1137840, Note_on_c, 0, 62, 0
3, 1137840, Note_on_c, 0, 66, 70
3, 1138320, Note_on_c, 0, 66, 0
3, 1138320, Note_on_c, 0, 62, 67
3, 1138560, Note_on_c, 0, 62, 0
3, 1138560, Note_on_c, 0, 57, 66
3, 1139040, Note_on_c, 0, 57, 0
3, 1139040, Note_on_c, 0, 62, 68
3, 1139040, Note_on_c, 0, 66, 68
3, 1139280, Note_on_c, 0, 66, 0
3, 1139280, Note_on_c, 0, 62, 0
3, 1139280, Note_on_c, 0, 61, 66
3, 1139280, Note_on_c, 0, 64, 66
3, 1139760, Note_on_c, 0, 64, 0
3, 1139760, Note_on_c, 0, 61, 0
3, 1139760, Note_on_c, 0, 64, 61
3, 1139760, Note_on_c, 0, 67, 61
3, 1140000, Note_on_c, 0, 67, 0
3, 1140000, Note_on_c, 0, 64, 0
3, 1140000, Note_on_c, 0, 62, 59
3, 1140000, Note_on_c, 0, 66, 59
3, 1140240, Note_on_c, 0, 66, 0
3, 1140240, Note_on_c, 0, 62, 0
3, 1141800, Note_on_c, 0, 66, 63
3, 1141920, Note_on_c, 0, 66, 0
3, 1141920, Note_on_c, 0, 65, 63
3, 1142040, Note_on_c, 0, 65, 0
3, 1142040, Note_on_c, 0, 66, 63
3, 1142160, Note_on_c, 0, 66, 0
3, 1142160, Note_on_c, 0, 62, 63
3, 1142280, Note_on_c, 0, 62, 0
3, 1142520, Note_on_c, 0, 69, 62
3, 1142640, Note_on_c, 0, 69, 0
3, 1142640, Note_on_c, 0, 68, 62
3, 1142760, Note_on_c, 0, 68, 0
3, 1142760, Note_on_c, 0, 69, 62
3, 1142880, Note_on_c, 0, 69, 0
3, 1142880, Note_on_c, 0, 66, 62
3, 1143000, Note_on_c, 0, 66, 0
3, 1143360, Note_on_c, 0, 62, 64
3, 1143480, Note_on_c, 0, 62, 0
3, 1143600, Note_on_c, 0, 66, 62
3, 1144080, Note_on_c, 0, 66, 0
3, 1144080, Note_on_c, 0, 62, 59
3, 1144320, Note_on_c, 0, 62, 0
3, 1144320, Note_on_c, 0, 57, 58
3, 1144560, Note_on_c, 0, 57, 0
3, 1144800, Note_on_c, 0, 66, 62
3, 1144800, Note_on_c, 0, 69, 62
3, 1145040, Note_on_c, 0, 69, 0
3, 1145040, Note_on_c, 0, 66, 0
3, 1145040, Note_on_c, 0, 69, 60
3, 1145040, Note_on_c, 0, 64, 60
3, 1145520, Note_on_c, 0, 64, 0
3, 1145520, Note_on_c, 0, 69, 0
3, 1145520, Note_on_c, 0, 67, 55
3, 1145520, Note_on_c, 0, 69, 55
3, 1145760, Note_on_c, 0, 69, 0
3, 1145760, Note_on_c, 0, 67, 0
3, 1145760, Note_on_c, 0, 66, 53
3, 1145760, Note_on_c, 0, 69, 53
3, 1146000, Note_on_c, 0, 69, 0
3, 1146000, Note_on_c, 0, 66, 0
3, 1146240, Note_on_c, 0, 62, 64
3, 1146240, Note_on_c, 0, 66, 64
3, 1146480, Note_on_c, 0, 66, 0
3, 1146480, Note_on_c, 0, 62, 0
3, 1146480, Note_on_c, 0, 61, 63
3, 1146480, Note_on_c, 0, 64, 63
3, 1146960, Note_on_c, 0, 64, 0
3, 1146960, Note_on_c, 0, 61, 0
3, 1146960, Note_on_c, 0, 67, 62
3, 1146960, Note_on_c, 0, 64, 62
3, 1147200, Note_on_c, 0, 64, 0
3, 1147200, Note_on_c, 0, 67, 0
3, 1147200, Note_on_c, 0, 62, 61
3, 1147200, Note_on_c, 0, 66, 61
3, 1147440, Note_on_c, 0, 66, 0
3, 1147440, Note_on_c, 0, 62, 0
3, 1147680, Note_on_c, 0, 66, 74
3, 1147680, Note_on_c, 0, 69, 74
3, 1147920, Note_on_c, 0, 69, 0
3, 1147920, Note_on_c, 0, 66, 0
3, 1147920, Note_on_c, 0, 64, 73
3, 1147920, Note_on_c, 0, 69, 73
3, 1148400, Note_on_c, 0, 69, 0
3, 1148400, Note_on_c, 0, 64, 0
3, 1148400, Note_on_c, 0, 67, 71
3, 1148400, Note_on_c, 0, 69, 71
3, 1148640, Note_on_c, 0, 69, 0
3, 1148640, Note_on_c, 0, 67, 0
3, 1148640, Note_on_c, 0, 66, 69
3, 1148640, Note_on_c, 0, 69, 69
3, 1148880, Note_on_c, 0, 69, 0
3, 1148880, Note_on_c, 0, 66, 0
3, 1149120, Note_on_c, 0, 81, 82
3, 1149120, Note_on_c, 0, 78, 82
3, 1149360, Note_on_c, 0, 78, 0
3, 1149360, Note_on_c, 0, 81, 0
3, 1149360, Note_on_c, 0, 81, 81
3, 1149360, Note_on_c, 0, 76, 81
3, 1149840, Note_on_c, 0, 76, 0
3, 1149840, Note_on_c, 0, 81, 0
3, 1149840, Note_on_c, 0, 79, 78
3, 1149840, Note_on_c, 0, 81, 78
3, 1150080, Note_on_c, 0, 81, 0
3, 1150080, Note_on_c, 0, 79, 0
3, 1150080, Note_on_c, 0, 78, 77
3, 1150080, Note_on_c, 0, 81, 77
3, 1150320, Note_on_c, 0, 81, 0
3, 1150320, Note_on_c, 0, 78, 0
3, 1150560, Note_on_c, 0, 81, 88
3, 1150560, Note_on_c, 0, 78, 88
3, 1150800, Note_on_c, 0, 78, 0
3, 1150800, Note_on_c, 0, 81, 0
3, 1150800, Note_on_c, 0, 83, 87
3, 1150800, Note_on_c, 0, 79, 87
3, 1152240, Note_on_c, 0, 79, 0
3, 1152240, Note_on_c, 0, 83, 0
3, 1152240, Note_on_c, 0, 79, 96
3, 1153680, Note_on_c, 0, 79, 0
3, 1165440, Note_on_c, 0, 71, 45
3, 1165680, Note_on_c, 0, 71, 0
3, 1166160, Note_on_c, 0, 71, 47
3, 1166160, Note_on_c, 0, 72, 47
3, 1166400, Note_on_c, 0, 72, 0
3, 1166400, Note_on_c, 0, 71, 0
3, 1166880, Note_on_c, 0, 69, 48
3, 1167120, Note_on_c, 0, 69, 0
3, 1167600, Note_on_c, 0, 67, 50
3, 1167840, Note_on_c, 0, 67, 0
3, 1168320, Note_on_c, 0, 79, 52
3, 1168560, Note_on_c, 0, 79, 0
3, 1169040, Note_on_c, 0, 79, 54
3, 1169280, Note_on_c, 0, 79, 0
3, 1169760, Note_on_c, 0, 78, 56
3, 1170000, Note_on_c, 0, 78, 0
3, 1171200, Note_on_c, 0, 71, 59
3, 1171440, Note_on_c, 0, 71, 0
3, 1171920, Note_on_c, 0, 71, 61
3, 1172160, Note_on_c, 0, 71, 0
3, 1172640, Note_on_c, 0, 69, 63
3, 1172880, Note_on_c, 0, 69, 0
3, 1173360, Note_on_c, 0, 67, 65
3, 1173600, Note_on_c, 0, 67, 0
3, 1174080, Note_on_c, 0, 62, 67
3, 1174080, Note_on_c, 0, 65, 67
3, 1174320, Note_on_c, 0, 65, 0
3, 1174320, Note_on_c, 0, 62, 0
3, 1174800, Note_on_c, 0, 62, 68
3, 1174800, Note_on_c, 0, 66, 68
3, 1175040, Note_on_c, 0, 66, 0
3, 1175040, Note_on_c, 0, 62, 0
3, 1175520, Note_on_c, 0, 65, 70
3, 1175520, Note_on_c, 0, 62, 70
3, 1175760, Note_on_c, 0, 62, 0
3, 1175760, Note_on_c, 0, 65, 0
3, 1176240, Note_on_c, 0, 62, 72
3, 1176480, Note_on_c, 0, 62, 0
3, 1176720, Note_on_c, 0, 61, 69
3, 1177200, Note_on_c, 0, 61, 0
3, 1177200, Note_on_c, 0, 61, 61
3, 1177440, Note_on_c, 0, 61, 0
3, 1177440, Note_on_c, 0, 62, 62
3, 1177920, Note_on_c, 0, 62, 0
3, 1177920, Note_on_c, 0, 63, 63
3, 1178160, Note_on_c, 0, 63, 0
3, 1178160, Note_on_c, 0, 64, 64
3, 1178640, Note_on_c, 0, 64, 0
3, 1178640, Note_on_c, 0, 65, 66
3, 1178880, Note_on_c, 0, 65, 0
3, 1178880, Note_on_c, 0, 66, 67
3, 1179360, Note_on_c, 0, 66, 0
3, 1179360, Note_on_c, 0, 66, 68
3, 1179600, Note_on_c, 0, 66, 0
3, 1179600, Note_on_c, 0, 67, 69
3, 1180080, Note_on_c, 0, 67, 0
3, 1180080, Note_on_c, 0, 68, 71
3, 1180320, Note_on_c, 0, 68, 0
3, 1180320, Note_on_c, 0, 69, 71
3, 1180800, Note_on_c, 0, 69, 0
3, 1180800, Note_on_c, 0, 70, 73
3, 1181040, Note_on_c, 0, 70, 0
3, 1181040, Note_on_c, 0, 71, 74
3, 1181520, Note_on_c, 0, 71, 0
3, 1181520, Note_on_c, 0, 71, 75
3, 1181760, Note_on_c, 0, 71, 0
3, 1181760, Note_on_c, 0, 72, 76
3, 1182240, Note_on_c, 0, 72, 0
3, 1182240, Note_on_c, 0, 73, 78
3, 1182480, Note_on_c, 0, 73, 0
3, 1182480, Note_on_c, 0, 74, 79
3, 1182960, Note_on_c, 0, 74, 0
3, 1182960, Note_on_c, 0, 71, 80
3, 1183200, Note_on_c, 0, 71, 0
3, 1183200, Note_on_c, 0, 72, 81
3, 1183680, Note_on_c, 0, 72, 0
3, 1183680, Note_on_c, 0, 73, 83
3, 1183920, Note_on_c, 0, 73, 0
3, 1183920, Note_on_c, 0, 74, 83
3, 1184400, Note_on_c, 0, 74, 0
3, 1184400, Note_on_c, 0, 71, 85
3, 1184640, Note_on_c, 0, 71, 0
3, 1184640, Note_on_c, 0, 72, 86
3, 1185120, Note_on_c, 0, 72, 0
3, 1185120, Note_on_c, 0, 73, 87
3, 1185360, Note_on_c, 0, 73, 0
3, 1185360, Note_on_c, 0, 74, 88
3, 1185600, Note_on_c, 0, 74, 0
3, 1185600, Note_on_c, 0, 71, 89
3, 1185756, Note_on_c, 0, 71, 0
3, 1185840, Note_on_c, 0, 73, 90
3, 1186080, Note_on_c, 0, 73, 0
3, 1186080, Note_on_c, 0, 69, 91
3, 1186236, Note_on_c, 0, 69, 0
3, 1186320, Note_on_c, 0, 71, 91
3, 1186560, Note_on_c, 0, 71, 0
3, 1186560, Note_on_c, 0, 67, 92
3, 1186716, Note_on_c, 0, 67, 0
3, 1186800, Note_on_c, 0, 69, 93
3, 1187040, Note_on_c, 0, 69, 0
3, 1187040, Note_on_c, 0, 66, 94
3, 1187196, Note_on_c, 0, 66, 0
3, 1187280, Note_on_c, 0, 67, 95
3, 1187520, Note_on_c, 0, 67, 0
3, 1187520, Note_on_c, 0, 64, 95
3, 1187676, Note_on_c, 0, 64, 0
3, 1187760, Note_on_c, 0, 66, 96
3, 1188000, Note_on_c, 0, 66, 0
3, 1188000, Note_on_c, 0, 62, 97
3, 1188156, Note_on_c, 0, 62, 0
3, 1188240, Note_on_c, 0, 64, 98
3, 1188480, Note_on_c, 0, 64, 0
3, 1188480, Note_on_c, 0, 61, 98
3, 1188636, Note_on_c, 0, 61, 0
3, 1188720, Note_on_c, 0, 62, 99
3, 1188960, Note_on_c, 0, 62, 0
3, 1188960, Note_on_c, 0, 59, 100
3, 1189116, Note_on_c, 0, 59, 0
3, 1189200, Note_on_c, 0, 61, 101
3, 1189440, Note_on_c, 0, 61, 0
3, 1189440, Note_on_c, 0, 57, 102
3, 1189596, Note_on_c, 0, 57, 0
3, 1189680, Note_on_c, 0, 59, 102
3, 1189920, Note_on_c, 0, 59, 0
3, 1189920, Note_on_c, 0, 55, 103
3, 1190076, Note_on_c, 0, 55, 0
3, 1190160, Note_on_c, 0, 57, 104
3, 1190400, Note_on_c, 0, 57, 0
3, 1190400, Note_on_c, 0, 54, 105
3, 1190556, Note_on_c, 0, 54, 0
3, 1190640, Note_on_c, 0, 55, 106
3, 1190880, Note_on_c, 0, 55, 0
3, 1190880, Note_on_c, 0, 52, 108
3, 1191036, Note_on_c, 0, 52, 0
3, 1191036, End_track
4, 0, Start_track
4, 0, Title_t, "Piano"
4, 0, Program_c, 0, 0
4, 0, Control_c, 0, 7, 115
4, 0, Control_c, 0, 10, 54
4, 0, Control_c, 0, 91, 91
4, 0, Control_c, 0, 93, 28
4, 0, Sequencer_specific, 5, 5, 15, 9, 0, 64
4, 0, Sequencer_specific, 15, 5, 15, 6, 71, 101, 110, 101, 114, 97, 108, 32, 77, 73, 68, 73
4, 0, Program_c, 0, 0
4, 0, Control_c, 0, 64, 0
4, 0, Control_c, 0, 1, 0
4, 0, Pitch_bend_c, 0, 8192
4, 1440, Control_c, 0, 64, 0
4, 1440, Note_on_c, 0, 38, 49
4, 1920, Note_on_c, 0, 38, 0
4, 1920, Note_on_c, 0, 38, 50
4, 2400, Note_on_c, 0, 38, 0
4, 2400, Note_on_c, 0, 38, 50
4, 2880, Note_on_c, 0, 38, 0
4, 2880, Note_on_c, 0, 38, 51
4, 3360, Note_on_c, 0, 38, 0
4, 3360, Note_on_c, 0, 38, 52
4, 3840, Note_on_c, 0, 38, 0
4, 3840, Note_on_c, 0, 38, 53
4, 4320, Note_on_c, 0, 38, 0
4, 4320, Note_on_c, 0, 38, 54
4, 4800, Note_on_c, 0, 38, 0
4, 4800, Note_on_c, 0, 38, 55
4, 5280, Note_on_c, 0, 38, 0
4, 5280, Note_on_c, 0, 38, 55
4, 5760, Note_on_c, 0, 38, 0
4, 5760, Note_on_c, 0, 38, 56
4, 6240, Note_on_c, 0, 38, 0
4, 6240, Note_on_c, 0, 38, 57
4, 6720, Note_on_c, 0, 38, 0
4, 6720, Note_on_c, 0, 38, 58
4, 7200, Note_on_c, 0, 38, 0
4, 7200, Note_on_c, 0, 38, 59
4, 7680, Note_on_c, 0, 38, 0
4, 7680, Note_on_c, 0, 38, 60
4, 8160, Note_on_c, 0, 38, 0
4, 8160, Note_on_c, 0, 38, 61
4, 8640, Note_on_c, 0, 38, 0
4, 8640, Note_on_c, 0, 38, 61
4, 9120, Note_on_c, 0, 38, 0
4, 9120, Note_on_c, 0, 38, 62
4, 9600, Note_on_c, 0, 38, 0
4, 9600, Note_on_c, 0, 38, 63
4, 10080, Note_on_c, 0, 38, 0
4, 10080, Note_on_c, 0, 38, 64
4, 10560, Note_on_c, 0, 38, 0
4, 10560, Note_on_c, 0, 38, 65
4, 11040, Note_on_c, 0, 38, 0
4, 11040, Note_on_c, 0, 38, 66
4, 11520, Note_on_c, 0, 38, 0
4, 11520, Note_on_c, 0, 38, 66
4, 12000, Note_on_c, 0, 38, 0
4, 12000, Note_on_c, 0, 38, 67
4, 12480, Note_on_c, 0, 38, 0
4, 12480, Note_on_c, 0, 38, 68
4, 12960, Note_on_c, 0, 38, 0
4, 12960, Note_on_c, 0, 38, 65
4, 13440, Note_on_c, 0, 38, 0
4, 13440, Note_on_c, 0, 38, 63
4, 13920, Note_on_c, 0, 38, 0
4, 13920, Note_on_c, 0, 38, 61
4, 14400, Note_on_c, 0, 38, 0
4, 14400, Note_on_c, 0, 38, 59
4, 14760, Control_c, 0, 64, 0
4, 14880, Control_c, 0, 64, 0
4, 14880, Note_on_c, 0, 50, 57
4, 14895, Note_on_c, 0, 38, 0
4, 15360, Note_on_c, 0, 50, 0
4, 15360, Note_on_c, 0, 50, 55
4, 15840, Note_on_c, 0, 50, 0
4, 15840, Note_on_c, 0, 50, 53
4, 16320, Note_on_c, 0, 50, 0
4, 16320, Note_on_c, 0, 50, 51
4, 16800, Note_on_c, 0, 50, 0
4, 16800, Note_on_c, 0, 50, 52
4, 17280, Note_on_c, 0, 50, 0
4, 17280, Note_on_c, 0, 50, 52
4, 17760, Note_on_c, 0, 50, 0
4, 17760, Note_on_c, 0, 50, 53
4, 18240, Note_on_c, 0, 50, 0
4, 18240, Note_on_c, 0, 50, 53
4, 18720, Note_on_c, 0, 50, 0
4, 18720, Note_on_c, 0, 50, 54
4, 19200, Note_on_c, 0, 50, 0
4, 19200, Note_on_c, 0, 50, 55
4, 19680, Note_on_c, 0, 50, 0
4, 19680, Note_on_c, 0, 50, 55
4, 20160, Note_on_c, 0, 50, 0
4, 20160, Note_on_c, 0, 50, 56
4, 20640, Note_on_c, 0, 50, 0
4, 20640, Note_on_c, 0, 50, 56
4, 21120, Note_on_c, 0, 50, 0
4, 21120, Note_on_c, 0, 50, 57
4, 21600, Note_on_c, 0, 50, 0
4, 21600, Note_on_c, 0, 50, 57
4, 22080, Note_on_c, 0, 50, 0
4, 22080, Note_on_c, 0, 50, 58
4, 22560, Note_on_c, 0, 50, 0
4, 22560, Note_on_c, 0, 50, 59
4, 23040, Note_on_c, 0, 50, 0
4, 23040, Note_on_c, 0, 50, 59
4, 23520, Note_on_c, 0, 50, 0
4, 23520, Note_on_c, 0, 50, 60
4, 24000, Note_on_c, 0, 50, 0
4, 24000, Note_on_c, 0, 50, 60
4, 24480, Note_on_c, 0, 50, 0
4, 24480, Note_on_c, 0, 50, 61
4, 24960, Note_on_c, 0, 50, 0
4, 24960, Note_on_c, 0, 50, 62
4, 25440, Note_on_c, 0, 50, 0
4, 25440, Note_on_c, 0, 50, 62
4, 25920, Note_on_c, 0, 50, 0
4, 25920, Note_on_c, 0, 50, 63
4, 26400, Note_on_c, 0, 50, 0
4, 26400, Note_on_c, 0, 50, 63
4, 26880, Note_on_c, 0, 50, 0
4, 26880, Note_on_c, 0, 50, 64
4, 27360, Note_on_c, 0, 50, 0
4, 27360, Note_on_c, 0, 50, 64
4, 27840, Note_on_c, 0, 50, 0
4, 27840, Note_on_c, 0, 50, 63
4, 28320, Note_on_c, 0, 50, 0
4, 28320, Note_on_c, 0, 50, 61
4, 28800, Note_on_c, 0, 50, 0
4, 28800, Note_on_c, 0, 50, 60
4, 29280, Note_on_c, 0, 50, 0
4, 29280, Note_on_c, 0, 50, 57
4, 29760, Note_on_c, 0, 50, 0
4, 29760, Note_on_c, 0, 50, 59
4, 30240, Note_on_c, 0, 50, 0
4, 30240, Note_on_c, 0, 50, 60
4, 30720, Note_on_c, 0, 50, 0
4, 30720, Note_on_c, 0, 50, 62
4, 31200, Note_on_c, 0, 50, 0
4, 31200, Note_on_c, 0, 50, 63
4, 31680, Note_on_c, 0, 50, 0
4, 31680, Note_on_c, 0, 50, 65
4, 32160, Note_on_c, 0, 50, 0
4, 32160, Note_on_c, 0, 50, 66
4, 32640, Note_on_c, 0, 50, 0
4, 32640, Note_on_c, 0, 50, 68
4, 33120, Note_on_c, 0, 50, 0
4, 33120, Note_on_c, 0, 50, 69
4, 33600, Note_on_c, 0, 50, 0
4, 33600, Note_on_c, 0, 50, 74
4, 34080, Note_on_c, 0, 50, 0
4, 34080, Note_on_c, 0, 50, 74
4, 34560, Note_on_c, 0, 50, 0
4, 34560, Note_on_c, 0, 50, 73
4, 35040, Note_on_c, 0, 50, 0
4, 35040, Note_on_c, 0, 50, 73
4, 35520, Note_on_c, 0, 50, 0
4, 35520, Note_on_c, 0, 50, 72
4, 36000, Note_on_c, 0, 50, 0
4, 36000, Note_on_c, 0, 50, 72
4, 36480, Note_on_c, 0, 50, 0
4, 36480, Note_on_c, 0, 50, 71
4, 36960, Note_on_c, 0, 50, 0
4, 36960, Note_on_c, 0, 52, 78
4, 37440, Note_on_c, 0, 52, 0
4, 37440, Note_on_c, 0, 52, 70
4, 37920, Note_on_c, 0, 52, 0
4, 37920, Note_on_c, 0, 52, 69
4, 38400, Note_on_c, 0, 52, 0
4, 38400, Note_on_c, 0, 55, 78
4, 38880, Note_on_c, 0, 55, 0
4, 38880, Note_on_c, 0, 54, 68
4, 39360, Note_on_c, 0, 54, 0
4, 39360, Note_on_c, 0, 50, 67
4, 39840, Note_on_c, 0, 50, 0
4, 39840, Note_on_c, 0, 50, 67
4, 40320, Note_on_c, 0, 50, 0
4, 40320, Note_on_c, 0, 50, 66
4, 40800, Note_on_c, 0, 50, 0
4, 40800, Note_on_c, 0, 50, 66
4, 41280, Note_on_c, 0, 50, 0
4, 41280, Note_on_c, 0, 50, 65
4, 41760, Note_on_c, 0, 50, 0
4, 41760, Note_on_c, 0, 50, 65
4, 42240, Note_on_c, 0, 50, 0
4, 42240, Note_on_c, 0, 50, 66
4, 42720, Note_on_c, 0, 50, 0
4, 42720, Note_on_c, 0, 50, 68
4, 43200, Note_on_c, 0, 50, 0
4, 43200, Note_on_c, 0, 50, 69
4, 43680, Note_on_c, 0, 50, 0
4, 43680, Note_on_c, 0, 50, 70
4, 44160, Note_on_c, 0, 50, 0
4, 44160, Note_on_c, 0, 50, 72
4, 44640, Note_on_c, 0, 50, 0
4, 44640, Note_on_c, 0, 50, 73
4, 45120, Note_on_c, 0, 50, 0
4, 45120, Note_on_c, 0, 50, 75
4, 45600, Note_on_c, 0, 50, 0
4, 45600, Note_on_c, 0, 50, 76
4, 46080, Note_on_c, 0, 50, 0
4, 46080, Note_on_c, 0, 50, 77
4, 46560, Note_on_c, 0, 50, 0
4, 46560, Note_on_c, 0, 50, 77
4, 47040, Note_on_c, 0, 50, 0
4, 47040, Note_on_c, 0, 50, 77
4, 47520, Note_on_c, 0, 50, 0
4, 47520, Note_on_c, 0, 50, 76
4, 48000, Note_on_c, 0, 50, 0
4, 48000, Note_on_c, 0, 50, 76
4, 48480, Note_on_c, 0, 50, 0
4, 48480, Note_on_c, 0, 52, 83
4, 48960, Note_on_c, 0, 52, 0
4, 48960, Note_on_c, 0, 52, 76
4, 49440, Note_on_c, 0, 52, 0
4, 49440, Note_on_c, 0, 52, 75
4, 49920, Note_on_c, 0, 52, 0
4, 49920, Note_on_c, 0, 55, 83
4, 50400, Note_on_c, 0, 55, 0
4, 50400, Note_on_c, 0, 54, 75
4, 50880, Note_on_c, 0, 54, 0
4, 50880, Note_on_c, 0, 50, 74
4, 51360, Note_on_c, 0, 50, 0
4, 51360, Note_on_c, 0, 50, 75
4, 51840, Note_on_c, 0, 50, 0
4, 51840, Note_on_c, 0, 50, 77
4, 52320, Note_on_c, 0, 50, 0
4, 52320, Note_on_c, 0, 50, 79
4, 52800, Note_on_c, 0, 50, 0
4, 52800, Note_on_c, 0, 50, 81
4, 53280, Note_on_c, 0, 50, 0
4, 53280, Note_on_c, 0, 50, 82
4, 53760, Note_on_c, 0, 50, 0
4, 53760, Note_on_c, 0, 50, 84
4, 54240, Note_on_c, 0, 50, 0
4, 54240, Note_on_c, 0, 52, 93
4, 54720, Note_on_c, 0, 52, 0
4, 54720, Note_on_c, 0, 52, 87
4, 55200, Note_on_c, 0, 52, 0
4, 55200, Note_on_c, 0, 52, 89
4, 55680, Note_on_c, 0, 52, 0
4, 55680, Note_on_c, 0, 55, 95
4, 56160, Note_on_c, 0, 55, 0
4, 56160, Note_on_c, 0, 54, 88
4, 56520, Note_on_c, 0, 54, 0
4, 57600, Note_on_c, 0, 57, 96
4, 60480, Note_on_c, 0, 57, 0
4, 60480, Note_on_c, 0, 52, 80
4, 62400, Note_on_c, 0, 52, 0
4, 63360, Note_on_c, 0, 64, 88
4, 66240, Note_on_c, 0, 64, 0
4, 66240, Note_on_c, 0, 59, 68
4, 68160, Note_on_c, 0, 59, 0
4, 69120, Note_on_c, 0, 57, 84
4, 72000, Note_on_c, 0, 57, 0
4, 72000, Note_on_c, 0, 52, 68
4, 73920, Note_on_c, 0, 52, 0
4, 74880, Note_on_c, 0, 64, 82
4, 77760, Note_on_c, 0, 64, 0
4, 77760, Note_on_c, 0, 57, 74
4, 77760, Note_on_c, 0, 59, 74
4, 79200, Note_on_c, 0, 57, 0
4, 79200, Note_on_c, 0, 56, 61
4, 79680, Note_on_c, 0, 56, 0
4, 79680, Note_on_c, 0, 59, 0
4, 80640, Note_on_c, 0, 45, 67
4, 80640, Note_on_c, 0, 47, 67
4, 82080, Note_on_c, 0, 47, 0
4, 82080, Note_on_c, 0, 45, 0
4, 82080, Note_on_c, 0, 47, 57
4, 82080, Note_on_c, 0, 44, 57
4, 82560, Note_on_c, 0, 44, 0
4, 82560, Note_on_c, 0, 47, 0
4, 83520, Note_on_c, 0, 59, 59
4, 83520, Note_on_c, 0, 57, 59
4, 84960, Note_on_c, 0, 57, 0
4, 84960, Note_on_c, 0, 59, 0
4, 84960, Note_on_c, 0, 59, 46
4, 84960, Note_on_c, 0, 56, 46
4, 85440, Note_on_c, 0, 56, 0
4, 85440, Note_on_c, 0, 59, 0
4, 110880, Note_on_c, 0, 53, 53
4, 110880, Note_on_c, 0, 73, 53
4, 110880, Note_on_c, 0, 65, 53
4, 111120, Note_on_c, 0, 73, 0
4, 111120, Note_on_c, 0, 68, 47
4, 111120, Note_on_c, 0, 56, 47
4, 111360, Note_on_c, 0, 56, 0
4, 111360, Note_on_c, 0, 53, 0
4, 111360, Note_on_c, 0, 65, 0
4, 111360, Note_on_c, 0, 68, 0
4, 111360, Note_on_c, 0, 65, 47
4, 111360, Note_on_c, 0, 53, 47
4, 111600, Note_on_c, 0, 68, 47
4, 111600, Note_on_c, 0, 56, 47
4, 111840, Note_on_c, 0, 56, 0
4, 111840, Note_on_c, 0, 65, 0
4, 111840, Note_on_c, 0, 53, 0
4, 111840, Note_on_c, 0, 68, 0
4, 111840, Note_on_c, 0, 53, 47
4, 111840, Note_on_c, 0, 65, 47
4, 112080, Note_on_c, 0, 68, 47
4, 112080, Note_on_c, 0, 56, 47
4, 112320, Note_on_c, 0, 56, 0
4, 112320, Note_on_c, 0, 53, 0
4, 112320, Note_on_c, 0, 65, 0
4, 112320, Note_on_c, 0, 68, 0
4, 112320, Note_on_c, 0, 65, 47
4, 112320, Note_on_c, 0, 53, 47
4, 112560, Note_on_c, 0, 68, 48
4, 112560, Note_on_c, 0, 56, 48
4, 112800, Note_on_c, 0, 56, 0
4, 112800, Note_on_c, 0, 65, 0
4, 112800, Note_on_c, 0, 53, 0
4, 112800, Note_on_c, 0, 68, 0
4, 112800, Note_on_c, 0, 53, 48
4, 112800, Note_on_c, 0, 65, 48
4, 113040, Note_on_c, 0, 56, 48
4, 113040, Note_on_c, 0, 68, 48
4, 113280, Note_on_c, 0, 68, 0
4, 113280, Note_on_c, 0, 53, 0
4, 113280, Note_on_c, 0, 65, 0
4, 113280, Note_on_c, 0, 56, 0
4, 113280, Note_on_c, 0, 54, 48
4, 113280, Note_on_c, 0, 66, 48
4, 113520, Note_on_c, 0, 56, 48
4, 113520, Note_on_c, 0, 68, 48
4, 113760, Note_on_c, 0, 68, 0
4, 113760, Note_on_c, 0, 54, 0
4, 113760, Note_on_c, 0, 66, 0
4, 113760, Note_on_c, 0, 56, 0
4, 113760, Note_on_c, 0, 53, 48
4, 113760, Note_on_c, 0, 65, 48
4, 114000, Note_on_c, 0, 68, 49
4, 114000, Note_on_c, 0, 56, 49
4, 114240, Note_on_c, 0, 56, 0
4, 114240, Note_on_c, 0, 53, 0
4, 114240, Note_on_c, 0, 65, 0
4, 114240, Note_on_c, 0, 68, 0
4, 114240, Note_on_c, 0, 53, 49
4, 114240, Note_on_c, 0, 65, 49
4, 114480, Note_on_c, 0, 56, 49
4, 114480, Note_on_c, 0, 68, 49
4, 114720, Note_on_c, 0, 68, 0
4, 114720, Note_on_c, 0, 53, 0
4, 114720, Note_on_c, 0, 65, 0
4, 114720, Note_on_c, 0, 56, 0
4, 114720, Note_on_c, 0, 66, 49
4, 114720, Note_on_c, 0, 54, 49
4, 114960, Note_on_c, 0, 56, 49
4, 114960, Note_on_c, 0, 68, 49
4, 115200, Note_on_c, 0, 68, 0
4, 115200, Note_on_c, 0, 66, 0
4, 115200, Note_on_c, 0, 54, 0
4, 115200, Note_on_c, 0, 56, 0
4, 115200, Note_on_c, 0, 53, 49
4, 115200, Note_on_c, 0, 65, 49
4, 115440, Note_on_c, 0, 56, 50
4, 115440, Note_on_c, 0, 68, 50
4, 115680, Note_on_c, 0, 68, 0
4, 115680, Note_on_c, 0, 53, 0
4, 115680, Note_on_c, 0, 65, 0
4, 115680, Note_on_c, 0, 56, 0
4, 115680, Note_on_c, 0, 53, 50
4, 115680, Note_on_c, 0, 65, 50
4, 115920, Note_on_c, 0, 68, 50
4, 115920, Note_on_c, 0, 56, 50
4, 116160, Note_on_c, 0, 56, 0
4, 116160, Note_on_c, 0, 53, 0
4, 116160, Note_on_c, 0, 65, 0
4, 116160, Note_on_c, 0, 68, 0
4, 116160, Note_on_c, 0, 54, 50
4, 116160, Note_on_c, 0, 66, 50
4, 116400, Note_on_c, 0, 68, 50
4, 116400, Note_on_c, 0, 56, 50
4, 116640, Note_on_c, 0, 56, 0
4, 116640, Note_on_c, 0, 54, 0
4, 116640, Note_on_c, 0, 66, 0
4, 116640, Note_on_c, 0, 68, 0
4, 116640, Note_on_c, 0, 53, 50
4, 116640, Note_on_c, 0, 65, 50
4, 116880, Note_on_c, 0, 68, 51
4, 116880, Note_on_c, 0, 56, 51
4, 117120, Note_on_c, 0, 56, 0
4, 117120, Note_on_c, 0, 53, 0
4, 117120, Note_on_c, 0, 65, 0
4, 117120, Note_on_c, 0, 68, 0
4, 117120, Note_on_c, 0, 53, 51
4, 117120, Note_on_c, 0, 65, 51
4, 117360, Note_on_c, 0, 56, 51
4, 117360, Note_on_c, 0, 68, 51
4, 117600, Note_on_c, 0, 68, 0
4, 117600, Note_on_c, 0, 53, 0
4, 117600, Note_on_c, 0, 65, 0
4, 117600, Note_on_c, 0, 56, 0
4, 117600, Note_on_c, 0, 53, 51
4, 117600, Note_on_c, 0, 65, 51
4, 117840, Note_on_c, 0, 68, 51
4, 117840, Note_on_c, 0, 56, 51
4, 118080, Note_on_c, 0, 56, 0
4, 118080, Note_on_c, 0, 53, 0
4, 118080, Note_on_c, 0, 65, 0
4, 118080, Note_on_c, 0, 68, 0
4, 118080, Note_on_c, 0, 53, 51
4, 118080, Note_on_c, 0, 65, 51
4, 118320, Note_on_c, 0, 68, 52
4, 118320, Note_on_c, 0, 56, 52
4, 118560, Note_on_c, 0, 56, 0
4, 118560, Note_on_c, 0, 53, 0
4, 118560, Note_on_c, 0, 65, 0
4, 118560, Note_on_c, 0, 68, 0
4, 118560, Note_on_c, 0, 65, 52
4, 118560, Note_on_c, 0, 53, 52
4, 118800, Note_on_c, 0, 56, 52
4, 118800, Note_on_c, 0, 68, 52
4, 119040, Note_on_c, 0, 68, 0
4, 119040, Note_on_c, 0, 65, 0
4, 119040, Note_on_c, 0, 53, 0
4, 119040, Note_on_c, 0, 56, 0
4, 119040, Note_on_c, 0, 65, 52
4, 119040, Note_on_c, 0, 53, 52
4, 119280, Note_on_c, 0, 68, 52
4, 119280, Note_on_c, 0, 56, 52
4, 119520, Note_on_c, 0, 56, 0
4, 119520, Note_on_c, 0, 65, 0
4, 119520, Note_on_c, 0, 53, 0
4, 119520, Note_on_c, 0, 68, 0
4, 119520, Note_on_c, 0, 53, 52
4, 119520, Note_on_c, 0, 65, 52
4, 119760, Note_on_c, 0, 56, 53
4, 119760, Note_on_c, 0, 68, 53
4, 120000, Note_on_c, 0, 68, 0
4, 120000, Note_on_c, 0, 53, 0
4, 120000, Note_on_c, 0, 65, 0
4, 120000, Note_on_c, 0, 56, 0
4, 120000, Note_on_c, 0, 65, 53
4, 120000, Note_on_c, 0, 53, 53
4, 120240, Note_on_c, 0, 68, 53
4, 120240, Note_on_c, 0, 56, 53
4, 120480, Note_on_c, 0, 56, 0
4, 120480, Note_on_c, 0, 65, 0
4, 120480, Note_on_c, 0, 53, 0
4, 120480, Note_on_c, 0, 68, 0
4, 120480, Note_on_c, 0, 53, 53
4, 120480, Note_on_c, 0, 65, 53
4, 120720, Note_on_c, 0, 56, 53
4, 120720, Note_on_c, 0, 68, 53
4, 120960, Note_on_c, 0, 68, 0
4, 120960, Note_on_c, 0, 53, 0
4, 120960, Note_on_c, 0, 65, 0
4, 120960, Note_on_c, 0, 56, 0
4, 120960, Note_on_c, 0, 65, 54
4, 120960, Note_on_c, 0, 53, 54
4, 121200, Note_on_c, 0, 68, 54
4, 121200, Note_on_c, 0, 56, 54
4, 121440, Note_on_c, 0, 56, 0
4, 121440, Note_on_c, 0, 65, 0
4, 121440, Note_on_c, 0, 53, 0
4, 121440, Note_on_c, 0, 68, 0
4, 121440, Note_on_c, 0, 53, 54
4, 121440, Note_on_c, 0, 65, 54
4, 121680, Note_on_c, 0, 68, 54
4, 121680, Note_on_c, 0, 56, 54
4, 121920, Note_on_c, 0, 56, 0
4, 121920, Note_on_c, 0, 53, 0
4, 121920, Note_on_c, 0, 65, 0
4, 121920, Note_on_c, 0, 68, 0
4, 121920, Note_on_c, 0, 53, 54
4, 121920, Note_on_c, 0, 65, 54
4, 122160, Note_on_c, 0, 56, 54
4, 122160, Note_on_c, 0, 68, 54
4, 122400, Note_on_c, 0, 68, 0
4, 122400, Note_on_c, 0, 53, 0
4, 122400, Note_on_c, 0, 65, 0
4, 122400, Note_on_c, 0, 56, 0
4, 122400, Note_on_c, 0, 65, 55
4, 122400, Note_on_c, 0, 53, 55
4, 122640, Note_on_c, 0, 68, 55
4, 122640, Note_on_c, 0, 56, 55
4, 122880, Note_on_c, 0, 56, 0
4, 122880, Note_on_c, 0, 65, 0
4, 122880, Note_on_c, 0, 53, 0
4, 122880, Note_on_c, 0, 68, 0
4, 122880, Note_on_c, 0, 53, 55
4, 122880, Note_on_c, 0, 65, 55
4, 123120, Note_on_c, 0, 68, 55
4, 123120, Note_on_c, 0, 56, 55
4, 123360, Note_on_c, 0, 56, 0
4, 123360, Note_on_c, 0, 53, 0
4, 123360, Note_on_c, 0, 65, 0
4, 123360, Note_on_c, 0, 68, 0
4, 123360, Note_on_c, 0, 65, 55
4, 123360, Note_on_c, 0, 53, 55
4, 123600, Note_on_c, 0, 56, 55
4, 123600, Note_on_c, 0, 68, 55
4, 123840, Note_on_c, 0, 68, 0
4, 123840, Note_on_c, 0, 65, 0
4, 123840, Note_on_c, 0, 53, 0
4, 123840, Note_on_c, 0, 56, 0
4, 123840, Note_on_c, 0, 53, 56
4, 123840, Note_on_c, 0, 65, 56
4, 124080, Note_on_c, 0, 68, 56
4, 124080, Note_on_c, 0, 56, 56
4, 124320, Note_on_c, 0, 56, 0
4, 124320, Note_on_c, 0, 53, 0
4, 124320, Note_on_c, 0, 65, 0
4, 124320, Note_on_c, 0, 68, 0
4, 124320, Note_on_c, 0, 53, 56
4, 124320, Note_on_c, 0, 65, 56
4, 124560, Note_on_c, 0, 68, 56
4, 124560, Note_on_c, 0, 56, 56
4, 124800, Note_on_c, 0, 56, 0
4, 124800, Note_on_c, 0, 53, 0
4, 124800, Note_on_c, 0, 65, 0
4, 124800, Note_on_c, 0, 68, 0
4, 124800, Note_on_c, 0, 65, 56
4, 124800, Note_on_c, 0, 53, 56
4, 125040, Note_on_c, 0, 68, 56
4, 125040, Note_on_c, 0, 56, 56
4, 125280, Note_on_c, 0, 56, 0
4, 125280, Note_on_c, 0, 65, 0
4, 125280, Note_on_c, 0, 53, 0
4, 125280, Note_on_c, 0, 68, 0
4, 125280, Note_on_c, 0, 52, 57
4, 125280, Note_on_c, 0, 64, 57
4, 125520, Note_on_c, 0, 68, 57
4, 125520, Note_on_c, 0, 56, 57
4, 125760, Note_on_c, 0, 56, 0
4, 125760, Note_on_c, 0, 52, 0
4, 125760, Note_on_c, 0, 64, 0
4, 125760, Note_on_c, 0, 68, 0
4, 125760, Note_on_c, 0, 64, 57
4, 125760, Note_on_c, 0, 52, 57
4, 126000, Note_on_c, 0, 56, 57
4, 126000, Note_on_c, 0, 68, 57
4, 126240, Note_on_c, 0, 68, 0
4, 126240, Note_on_c, 0, 64, 0
4, 126240, Note_on_c, 0, 52, 0
4, 126240, Note_on_c, 0, 56, 0
4, 126240, Note_on_c, 0, 64, 57
4, 126240, Note_on_c, 0, 52, 57
4, 126480, Note_on_c, 0, 56, 57
4, 126480, Note_on_c, 0, 68, 57
4, 126720, Note_on_c, 0, 68, 0
4, 126720, Note_on_c, 0, 64, 0
4, 126720, Note_on_c, 0, 52, 0
4, 126720, Note_on_c, 0, 56, 0
4, 126720, Note_on_c, 0, 52, 58
4, 126720, Note_on_c, 0, 64, 58
4, 126960, Note_on_c, 0, 68, 58
4, 126960, Note_on_c, 0, 56, 58
4, 127200, Note_on_c, 0, 56, 0
4, 127200, Note_on_c, 0, 52, 0
4, 127200, Note_on_c, 0, 64, 0
4, 127200, Note_on_c, 0, 68, 0
4, 127200, Note_on_c, 0, 52, 58
4, 127200, Note_on_c, 0, 64, 58
4, 127440, Note_on_c, 0, 56, 58
4, 127440, Note_on_c, 0, 68, 58
4, 127680, Note_on_c, 0, 68, 0
4, 127680, Note_on_c, 0, 52, 0
4, 127680, Note_on_c, 0, 64, 0
4, 127680, Note_on_c, 0, 56, 0
4, 127680, Note_on_c, 0, 52, 58
4, 127680, Note_on_c, 0, 64, 58
4, 127920, Note_on_c, 0, 56, 58
4, 127920, Note_on_c, 0, 68, 58
4, 128160, Note_on_c, 0, 68, 0
4, 128160, Note_on_c, 0, 52, 0
4, 128160, Note_on_c, 0, 64, 0
4, 128160, Note_on_c, 0, 56, 0
4, 128160, Note_on_c, 0, 64, 59
4, 128160, Note_on_c, 0, 52, 59
4, 128400, Note_on_c, 0, 68, 59
4, 128400, Note_on_c, 0, 56, 59
4, 128640, Note_on_c, 0, 56, 0
4, 128640, Note_on_c, 0, 64, 0
4, 128640, Note_on_c, 0, 52, 0
4, 128640, Note_on_c, 0, 68, 0
4, 128640, Note_on_c, 0, 64, 59
4, 128640, Note_on_c, 0, 52, 59
4, 128880, Note_on_c, 0, 68, 59
4, 128880, Note_on_c, 0, 56, 59
4, 129120, Note_on_c, 0, 56, 0
4, 129120, Note_on_c, 0, 64, 0
4, 129120, Note_on_c, 0, 52, 0
4, 129120, Note_on_c, 0, 68, 0
4, 129120, Note_on_c, 0, 64, 59
4, 129120, Note_on_c, 0, 52, 59
4, 129360, Note_on_c, 0, 68, 59
4, 129360, Note_on_c, 0, 56, 59
4, 129600, Note_on_c, 0, 56, 0
4, 129600, Note_on_c, 0, 64, 0
4, 129600, Note_on_c, 0, 52, 0
4, 129600, Note_on_c, 0, 68, 0
4, 129600, Note_on_c, 0, 64, 60
4, 129600, Note_on_c, 0, 52, 60
4, 129840, Note_on_c, 0, 68, 60
4, 129840, Note_on_c, 0, 56, 60
4, 130080, Note_on_c, 0, 56, 0
4, 130080, Note_on_c, 0, 64, 0
4, 130080, Note_on_c, 0, 52, 0
4, 130080, Note_on_c, 0, 68, 0
4, 130080, Note_on_c, 0, 64, 60
4, 130080, Note_on_c, 0, 52, 60
4, 130320, Note_on_c, 0, 68, 58
4, 130320, Note_on_c, 0, 56, 58
4, 130560, Note_on_c, 0, 56, 0
4, 130560, Note_on_c, 0, 64, 0
4, 130560, Note_on_c, 0, 52, 0
4, 130560, Note_on_c, 0, 68, 0
4, 130560, Note_on_c, 0, 62, 58
4, 130560, Note_on_c, 0, 52, 58
4, 130800, Note_on_c, 0, 68, 58
4, 130800, Note_on_c, 0, 56, 58
4, 131040, Note_on_c, 0, 56, 0
4, 131040, Note_on_c, 0, 62, 0
4, 131040, Note_on_c, 0, 52, 0
4, 131040, Note_on_c, 0, 68, 0
4, 131040, Note_on_c, 0, 61, 58
4, 131040, Note_on_c, 0, 57, 58
4, 131280, Note_on_c, 0, 64, 58
4, 131280, Note_on_c, 0, 52, 58
4, 131520, Note_on_c, 0, 52, 0
4, 131520, Note_on_c, 0, 61, 0
4, 131520, Note_on_c, 0, 57, 0
4, 131520, Note_on_c, 0, 64, 0
4, 131520, Note_on_c, 0, 61, 58
4, 131520, Note_on_c, 0, 57, 58
4, 131760, Note_on_c, 0, 52, 58
4, 131760, Note_on_c, 0, 64, 58
4, 132000, Note_on_c, 0, 64, 0
4, 132000, Note_on_c, 0, 61, 0
4, 132000, Note_on_c, 0, 57, 0
4, 132000, Note_on_c, 0, 52, 0
4, 132000, Note_on_c, 0, 62, 57
4, 132000, Note_on_c, 0, 59, 57
4, 132240, Note_on_c, 0, 52, 57
4, 132240, Note_on_c, 0, 64, 57
4, 132480, Note_on_c, 0, 64, 0
4, 132480, Note_on_c, 0, 62, 0
4, 132480, Note_on_c, 0, 59, 0
4, 132480, Note_on_c, 0, 52, 0
4, 132480, Note_on_c, 0, 61, 57
4, 132480, Note_on_c, 0, 57, 57
4, 132720, Note_on_c, 0, 64, 57
4, 132720, Note_on_c, 0, 52, 57
4, 132960, Note_on_c, 0, 52, 0
4, 132960, Note_on_c, 0, 61, 0
4, 132960, Note_on_c, 0, 57, 0
4, 132960, Note_on_c, 0, 64, 0
4, 132960, Note_on_c, 0, 61, 57
4, 132960, Note_on_c, 0, 57, 57
4, 133200, Note_on_c, 0, 52, 57
4, 133200, Note_on_c, 0, 64, 57
4, 133440, Note_on_c, 0, 64, 0
4, 133440, Note_on_c, 0, 61, 0
4, 133440, Note_on_c, 0, 57, 0
4, 133440, Note_on_c, 0, 52, 0
4, 133440, Note_on_c, 0, 56, 57
4, 133440, Note_on_c, 0, 59, 57
4, 133680, Note_on_c, 0, 49, 56
4, 133680, Note_on_c, 0, 65, 56
4, 133920, Note_on_c, 0, 65, 0
4, 133920, Note_on_c, 0, 56, 0
4, 133920, Note_on_c, 0, 59, 0
4, 133920, Note_on_c, 0, 49, 0
4, 133920, Note_on_c, 0, 57, 56
4, 133920, Note_on_c, 0, 54, 56
4, 134160, Note_on_c, 0, 49, 56
4, 134160, Note_on_c, 0, 61, 56
4, 134400, Note_on_c, 0, 61, 0
4, 134400, Note_on_c, 0, 57, 0
4, 134400, Note_on_c, 0, 54, 0
4, 134400, Note_on_c, 0, 49, 0
4, 134400, Note_on_c, 0, 57, 56
4, 134400, Note_on_c, 0, 54, 56
4, 134640, Note_on_c, 0, 49, 56
4, 134640, Note_on_c, 0, 61, 56
4, 134880, Note_on_c, 0, 61, 0
4, 134880, Note_on_c, 0, 57, 0
4, 134880, Note_on_c, 0, 54, 0
4, 134880, Note_on_c, 0, 49, 0
4, 134880, Note_on_c, 0, 54, 56
4, 134880, Note_on_c, 0, 57, 56
4, 135120, Note_on_c, 0, 49, 56
4, 135120, Note_on_c, 0, 61, 56
4, 135360, Note_on_c, 0, 61, 0
4, 135360, Note_on_c, 0, 54, 0
4, 135360, Note_on_c, 0, 57, 0
4, 135360, Note_on_c, 0, 49, 0
4, 135360, Note_on_c, 0, 54, 56
4, 135360, Note_on_c, 0, 57, 56
4, 135600, Note_on_c, 0, 49, 55
4, 135600, Note_on_c, 0, 61, 55
4, 135840, Note_on_c, 0, 61, 0
4, 135840, Note_on_c, 0, 54, 0
4, 135840, Note_on_c, 0, 57, 0
4, 135840, Note_on_c, 0, 49, 0
4, 135840, Note_on_c, 0, 54, 55
4, 135840, Note_on_c, 0, 57, 55
4, 136080, Note_on_c, 0, 49, 55
4, 136080, Note_on_c, 0, 61, 55
4, 136320, Note_on_c, 0, 61, 0
4, 136320, Note_on_c, 0, 54, 0
4, 136320, Note_on_c, 0, 57, 0
4, 136320, Note_on_c, 0, 49, 0
4, 136320, Note_on_c, 0, 59, 55
4, 136320, Note_on_c, 0, 56, 55
4, 136560, Note_on_c, 0, 61, 55
4, 136560, Note_on_c, 0, 49, 55
4, 136800, Note_on_c, 0, 49, 0
4, 136800, Note_on_c, 0, 59, 0
4, 136800, Note_on_c, 0, 56, 0
4, 136800, Note_on_c, 0, 61, 0
4, 136800, Note_on_c, 0, 57, 55
4, 136800, Note_on_c, 0, 54, 55
4, 137040, Note_on_c, 0, 49, 55
4, 137040, Note_on_c, 0, 61, 55
4, 137280, Note_on_c, 0, 61, 0
4, 137280, Note_on_c, 0, 57, 0
4, 137280, Note_on_c, 0, 54, 0
4, 137280, Note_on_c, 0, 49, 0
4, 137280, Note_on_c, 0, 57, 54
4, 137280, Note_on_c, 0, 54, 54
4, 137520, Note_on_c, 0, 49, 54
4, 137520, Note_on_c, 0, 61, 54
4, 137760, Note_on_c, 0, 61, 0
4, 137760, Note_on_c, 0, 57, 0
4, 137760, Note_on_c, 0, 54, 0
4, 137760, Note_on_c, 0, 49, 0
4, 137760, Note_on_c, 0, 59, 54
4, 137760, Note_on_c, 0, 56, 54
4, 138000, Note_on_c, 0, 49, 54
4, 138000, Note_on_c, 0, 61, 54
4, 138240, Note_on_c, 0, 61, 0
4, 138240, Note_on_c, 0, 59, 0
4, 138240, Note_on_c, 0, 56, 0
4, 138240, Note_on_c, 0, 49, 0
4, 138240, Note_on_c, 0, 57, 54
4, 138240, Note_on_c, 0, 54, 54
4, 138480, Note_on_c, 0, 49, 54
4, 138480, Note_on_c, 0, 61, 54
4, 138720, Note_on_c, 0, 61, 0
4, 138720, Note_on_c, 0, 57, 0
4, 138720, Note_on_c, 0, 54, 0
4, 138720, Note_on_c, 0, 49, 0
4, 138720, Note_on_c, 0, 54, 54
4, 138720, Note_on_c, 0, 57, 54
4, 138960, Note_on_c, 0, 61, 53
4, 138960, Note_on_c, 0, 49, 53
4, 139200, Note_on_c, 0, 49, 0
4, 139200, Note_on_c, 0, 54, 0
4, 139200, Note_on_c, 0, 57, 0
4, 139200, Note_on_c, 0, 61, 0
4, 139200, Note_on_c, 0, 55, 53
4, 139200, Note_on_c, 0, 52, 53
4, 139440, Note_on_c, 0, 61, 53
4, 139440, Note_on_c, 0, 45, 53
4, 139680, Note_on_c, 0, 45, 0
4, 139680, Note_on_c, 0, 55, 0
4, 139680, Note_on_c, 0, 52, 0
4, 139680, Note_on_c, 0, 61, 0
4, 139680, Note_on_c, 0, 54, 53
4, 139680, Note_on_c, 0, 50, 53
4, 139920, Note_on_c, 0, 45, 54
4, 139920, Note_on_c, 0, 57, 54
4, 140160, Note_on_c, 0, 57, 0
4, 140160, Note_on_c, 0, 54, 0
4, 140160, Note_on_c, 0, 50, 0
4, 140160, Note_on_c, 0, 45, 0
4, 140160, Note_on_c, 0, 54, 55
4, 140160, Note_on_c, 0, 50, 55
4, 140400, Note_on_c, 0, 57, 56
4, 140400, Note_on_c, 0, 45, 56
4, 140640, Note_on_c, 0, 45, 0
4, 140640, Note_on_c, 0, 54, 0
4, 140640, Note_on_c, 0, 50, 0
4, 140640, Note_on_c, 0, 57, 0
4, 140640, Note_on_c, 0, 54, 57
4, 140640, Note_on_c, 0, 50, 57
4, 140880, Note_on_c, 0, 57, 58
4, 140880, Note_on_c, 0, 45, 58
4, 141120, Note_on_c, 0, 45, 0
4, 141120, Note_on_c, 0, 54, 0
4, 141120, Note_on_c, 0, 50, 0
4, 141120, Note_on_c, 0, 57, 0
4, 141120, Note_on_c, 0, 54, 59
4, 141120, Note_on_c, 0, 50, 59
4, 141360, Note_on_c, 0, 45, 60
4, 141360, Note_on_c, 0, 57, 60
4, 141600, Note_on_c, 0, 57, 0
4, 141600, Note_on_c, 0, 54, 0
4, 141600, Note_on_c, 0, 50, 0
4, 141600, Note_on_c, 0, 45, 0
4, 141600, Note_on_c, 0, 54, 61
4, 141600, Note_on_c, 0, 50, 61
4, 141840, Note_on_c, 0, 45, 62
4, 141840, Note_on_c, 0, 57, 62
4, 142080, Note_on_c, 0, 57, 0
4, 142080, Note_on_c, 0, 54, 0
4, 142080, Note_on_c, 0, 50, 0
4, 142080, Note_on_c, 0, 45, 0
4, 142080, Note_on_c, 0, 55, 63
4, 142080, Note_on_c, 0, 52, 63
4, 142320, Note_on_c, 0, 57, 64
4, 142320, Note_on_c, 0, 45, 64
4, 142560, Note_on_c, 0, 45, 0
4, 142560, Note_on_c, 0, 55, 0
4, 142560, Note_on_c, 0, 52, 0
4, 142560, Note_on_c, 0, 57, 0
4, 142560, Note_on_c, 0, 54, 65
4, 142560, Note_on_c, 0, 50, 65
4, 142800, Note_on_c, 0, 45, 66
4, 142800, Note_on_c, 0, 57, 66
4, 143040, Note_on_c, 0, 57, 0
4, 143040, Note_on_c, 0, 54, 0
4, 143040, Note_on_c, 0, 50, 0
4, 143040, Note_on_c, 0, 45, 0
4, 143040, Note_on_c, 0, 54, 67
4, 143040, Note_on_c, 0, 50, 67
4, 143280, Note_on_c, 0, 57, 68
4, 143280, Note_on_c, 0, 45, 68
4, 143520, Note_on_c, 0, 45, 0
4, 143520, Note_on_c, 0, 54, 0
4, 143520, Note_on_c, 0, 50, 0
4, 143520, Note_on_c, 0, 57, 0
4, 143520, Note_on_c, 0, 55, 69
4, 143520, Note_on_c, 0, 52, 69
4, 143760, Note_on_c, 0, 45, 70
4, 143760, Note_on_c, 0, 57, 70
4, 144000, Note_on_c, 0, 57, 0
4, 144000, Note_on_c, 0, 55, 0
4, 144000, Note_on_c, 0, 52, 0
4, 144000, Note_on_c, 0, 45, 0
4, 144000, Note_on_c, 0, 54, 71
4, 144000, Note_on_c, 0, 50, 71
4, 144240, Note_on_c, 0, 57, 72
4, 144240, Note_on_c, 0, 45, 72
4, 144480, Note_on_c, 0, 45, 0
4, 144480, Note_on_c, 0, 54, 0
4, 144480, Note_on_c, 0, 50, 0
4, 144480, Note_on_c, 0, 57, 0
4, 144480, Note_on_c, 0, 54, 74
4, 144480, Note_on_c, 0, 50, 74
4, 144720, Note_on_c, 0, 57, 73
4, 144720, Note_on_c, 0, 45, 73
4, 144960, Note_on_c, 0, 45, 0
4, 144960, Note_on_c, 0, 54, 0
4, 144960, Note_on_c, 0, 50, 0
4, 144960, Note_on_c, 0, 57, 0
4, 144960, Note_on_c, 0, 56, 83
4, 144960, Note_on_c, 0, 47, 83
4, 145200, Note_on_c, 0, 62, 75
4, 145200, Note_on_c, 0, 40, 75
4, 145440, Note_on_c, 0, 40, 0
4, 145440, Note_on_c, 0, 56, 0
4, 145440, Note_on_c, 0, 47, 0
4, 145440, Note_on_c, 0, 62, 0
4, 145440, Note_on_c, 0, 57, 76
4, 145440, Note_on_c, 0, 49, 76
4, 145680, Note_on_c, 0, 40, 76
4, 145680, Note_on_c, 0, 64, 76
4, 145920, Note_on_c, 0, 64, 0
4, 145920, Note_on_c, 0, 57, 0
4, 145920, Note_on_c, 0, 49, 0
4, 145920, Note_on_c, 0, 40, 0
4, 145920, Note_on_c, 0, 49, 77
4, 145920, Note_on_c, 0, 57, 77
4, 146160, Note_on_c, 0, 40, 78
4, 146160, Note_on_c, 0, 64, 78
4, 146400, Note_on_c, 0, 64, 0
4, 146400, Note_on_c, 0, 49, 0
4, 146400, Note_on_c, 0, 57, 0
4, 146400, Note_on_c, 0, 40, 0
4, 146400, Note_on_c, 0, 44, 87
4, 146400, Note_on_c, 0, 59, 87
4, 146640, Note_on_c, 0, 40, 80
4, 146640, Note_on_c, 0, 64, 80
4, 146880, Note_on_c, 0, 64, 0
4, 146880, Note_on_c, 0, 44, 0
4, 146880, Note_on_c, 0, 59, 0
4, 146880, Note_on_c, 0, 40, 0
4, 146880, Note_on_c, 0, 61, 81
4, 146880, Note_on_c, 0, 45, 81
4, 147120, Note_on_c, 0, 40, 82
4, 147120, Note_on_c, 0, 64, 82
4, 147360, Note_on_c, 0, 64, 0
4, 147360, Note_on_c, 0, 61, 0
4, 147360, Note_on_c, 0, 45, 0
4, 147360, Note_on_c, 0, 40, 0
4, 147360, Note_on_c, 0, 45, 83
4, 147360, Note_on_c, 0, 61, 83
4, 147600, Note_on_c, 0, 64, 83
4, 147600, Note_on_c, 0, 40, 83
4, 147840, Note_on_c, 0, 40, 0
4, 147840, Note_on_c, 0, 45, 0
4, 147840, Note_on_c, 0, 61, 0
4, 147840, Note_on_c, 0, 64, 0
4, 147840, Note_on_c, 0, 42, 93
4, 147840, Note_on_c, 0, 62, 93
4, 148080, Note_on_c, 0, 38, 87
4, 148080, Note_on_c, 0, 69, 87
4, 148320, Note_on_c, 0, 69, 0
4, 148320, Note_on_c, 0, 42, 0
4, 148320, Note_on_c, 0, 62, 0
4, 148320, Note_on_c, 0, 38, 0
4, 148320, Note_on_c, 0, 64, 92
4, 148320, Note_on_c, 0, 69, 92
4, 148320, Note_on_c, 0, 49, 92
4, 148320, Note_on_c, 0, 45, 92
4, 149760, Note_on_c, 0, 45, 0
4, 149760, Note_on_c, 0, 64, 0
4, 149760, Note_on_c, 0, 69, 0
4, 149760, Note_on_c, 0, 49, 0
4, 151200, Note_on_c, 0, 63, 112
4, 151200, Note_on_c, 0, 57, 112
4, 152640, Note_on_c, 0, 57, 0
4, 152640, Note_on_c, 0, 63, 0
4, 154080, Note_on_c, 0, 64, 104
4, 154080, Note_on_c, 0, 57, 104
4, 154080, Note_on_c, 0, 61, 104
4, 154560, Note_on_c, 0, 61, 0
4, 154560, Note_on_c, 0, 57, 0
4, 154560, Note_on_c, 0, 64, 0
4, 155520, Note_on_c, 0, 62, 94
4, 155520, Note_on_c, 0, 56, 94
4, 155520, Note_on_c, 0, 59, 94
4, 156000, Note_on_c, 0, 59, 0
4, 156000, Note_on_c, 0, 56, 0
4, 156000, Note_on_c, 0, 62, 0
4, 156960, Note_on_c, 0, 64, 85
4, 156960, Note_on_c, 0, 61, 85
4, 157200, Note_on_c, 0, 57, 70
4, 157200, Note_on_c, 0, 69, 70
4, 157440, Note_on_c, 0, 69, 0
4, 157440, Note_on_c, 0, 64, 0
4, 157440, Note_on_c, 0, 61, 0
4, 157440, Note_on_c, 0, 57, 0
4, 157440, Note_on_c, 0, 64, 70
4, 157440, Note_on_c, 0, 61, 70
4, 157680, Note_on_c, 0, 57, 69
4, 157680, Note_on_c, 0, 69, 69
4, 157920, Note_on_c, 0, 69, 0
4, 157920, Note_on_c, 0, 64, 0
4, 157920, Note_on_c, 0, 61, 0
4, 157920, Note_on_c, 0, 57, 0
4, 157920, Note_on_c, 0, 61, 69
4, 157920, Note_on_c, 0, 64, 69
4, 158160, Note_on_c, 0, 57, 69
4, 158160, Note_on_c, 0, 69, 69
4, 158400, Note_on_c, 0, 69, 0
4, 158400, Note_on_c, 0, 61, 0
4, 158400, Note_on_c, 0, 64, 0
4, 158400, Note_on_c, 0, 57, 0
4, 158400, Note_on_c, 0, 61, 69
4, 158400, Note_on_c, 0, 64, 69
4, 158640, Note_on_c, 0, 57, 68
4, 158640, Note_on_c, 0, 69, 68
4, 158880, Note_on_c, 0, 69, 0
4, 158880, Note_on_c, 0, 61, 0
4, 158880, Note_on_c, 0, 64, 0
4, 158880, Note_on_c, 0, 57, 0
4, 158880, Note_on_c, 0, 61, 68
4, 158880, Note_on_c, 0, 64, 68
4, 159120, Note_on_c, 0, 57, 68
4, 159120, Note_on_c, 0, 69, 68
4, 159360, Note_on_c, 0, 69, 0
4, 159360, Note_on_c, 0, 61, 0
4, 159360, Note_on_c, 0, 64, 0
4, 159360, Note_on_c, 0, 57, 0
4, 159360, Note_on_c, 0, 63, 68
4, 159360, Note_on_c, 0, 60, 68
4, 159600, Note_on_c, 0, 57, 67
4, 159600, Note_on_c, 0, 69, 67
4, 159840, Note_on_c, 0, 69, 0
4, 159840, Note_on_c, 0, 63, 0
4, 159840, Note_on_c, 0, 60, 0
4, 159840, Note_on_c, 0, 57, 0
4, 159840, Note_on_c, 0, 61, 67
4, 159840, Note_on_c, 0, 64, 67
4, 160080, Note_on_c, 0, 57, 67
4, 160080, Note_on_c, 0, 69, 67
4, 160320, Note_on_c, 0, 69, 0
4, 160320, Note_on_c, 0, 61, 0
4, 160320, Note_on_c, 0, 64, 0
4, 160320, Note_on_c, 0, 57, 0
4, 160320, Note_on_c, 0, 61, 67
4, 160320, Note_on_c, 0, 64, 67
4, 160560, Note_on_c, 0, 57, 66
4, 160560, Note_on_c, 0, 69, 66
4, 160800, Note_on_c, 0, 69, 0
4, 160800, Note_on_c, 0, 61, 0
4, 160800, Note_on_c, 0, 64, 0
4, 160800, Note_on_c, 0, 57, 0
4, 160800, Note_on_c, 0, 66, 66
4, 160800, Note_on_c, 0, 62, 66
4, 161040, Note_on_c, 0, 57, 66
4, 161040, Note_on_c, 0, 69, 66
4, 161280, Note_on_c, 0, 69, 0
4, 161280, Note_on_c, 0, 66, 0
4, 161280, Note_on_c, 0, 62, 0
4, 161280, Note_on_c, 0, 57, 0
4, 161280, Note_on_c, 0, 61, 66
4, 161280, Note_on_c, 0, 64, 66
4, 161520, Note_on_c, 0, 57, 66
4, 161520, Note_on_c, 0, 69, 66
4, 161760, Note_on_c, 0, 69, 0
4, 161760, Note_on_c, 0, 61, 0
4, 161760, Note_on_c, 0, 64, 0
4, 161760, Note_on_c, 0, 57, 0
4, 161760, Note_on_c, 0, 61, 65
4, 161760, Note_on_c, 0, 64, 65
4, 162000, Note_on_c, 0, 57, 65
4, 162000, Note_on_c, 0, 69, 65
4, 162240, Note_on_c, 0, 69, 0
4, 162240, Note_on_c, 0, 61, 0
4, 162240, Note_on_c, 0, 64, 0
4, 162240, Note_on_c, 0, 57, 0
4, 162240, Note_on_c, 0, 59, 65
4, 162240, Note_on_c, 0, 62, 65
4, 162480, Note_on_c, 0, 68, 65
4, 162480, Note_on_c, 0, 52, 65
4, 162720, Note_on_c, 0, 52, 0
4, 162720, Note_on_c, 0, 59, 0
4, 162720, Note_on_c, 0, 62, 0
4, 162720, Note_on_c, 0, 68, 0
4, 162720, Note_on_c, 0, 61, 64
4, 162720, Note_on_c, 0, 57, 64
4, 162960, Note_on_c, 0, 49, 64
4, 162960, Note_on_c, 0, 64, 64
4, 163200, Note_on_c, 0, 64, 0
4, 163200, Note_on_c, 0, 61, 0
4, 163200, Note_on_c, 0, 57, 0
4, 163200, Note_on_c, 0, 49, 0
4, 163200, Note_on_c, 0, 61, 64
4, 163200, Note_on_c, 0, 57, 64
4, 163440, Note_on_c, 0, 49, 64
4, 163440, Note_on_c, 0, 64, 64
4, 163680, Note_on_c, 0, 64, 0
4, 163680, Note_on_c, 0, 61, 0
4, 163680, Note_on_c, 0, 57, 0
4, 163680, Note_on_c, 0, 49, 0
4, 163680, Note_on_c, 0, 61, 63
4, 163680, Note_on_c, 0, 57, 63
4, 163920, Note_on_c, 0, 49, 63
4, 163920, Note_on_c, 0, 64, 63
4, 164160, Note_on_c, 0, 64, 0
4, 164160, Note_on_c, 0, 61, 0
4, 164160, Note_on_c, 0, 57, 0
4, 164160, Note_on_c, 0, 49, 0
4, 164160, Note_on_c, 0, 61, 63
4, 164160, Note_on_c, 0, 57, 63
4, 164400, Note_on_c, 0, 49, 63
4, 164400, Note_on_c, 0, 64, 63
4, 164640, Note_on_c, 0, 64, 0
4, 164640, Note_on_c, 0, 61, 0
4, 164640, Note_on_c, 0, 57, 0
4, 164640, Note_on_c, 0, 49, 0
4, 164640, Note_on_c, 0, 61, 62
4, 164640, Note_on_c, 0, 57, 62
4, 164880, Note_on_c, 0, 49, 62
4, 164880, Note_on_c, 0, 64, 62
4, 165120, Note_on_c, 0, 64, 0
4, 165120, Note_on_c, 0, 61, 0
4, 165120, Note_on_c, 0, 57, 0
4, 165120, Note_on_c, 0, 49, 0
4, 165120, Note_on_c, 0, 56, 62
4, 165120, Note_on_c, 0, 60, 62
4, 165360, Note_on_c, 0, 64, 62
4, 165360, Note_on_c, 0, 52, 62
4, 165600, Note_on_c, 0, 52, 0
4, 165600, Note_on_c, 0, 56, 0
4, 165600, Note_on_c, 0, 60, 0
4, 165600, Note_on_c, 0, 64, 0
4, 165600, Note_on_c, 0, 61, 61
4, 165600, Note_on_c, 0, 57, 61
4, 165840, Note_on_c, 0, 52, 61
4, 165840, Note_on_c, 0, 64, 61
4, 166080, Note_on_c, 0, 64, 0
4, 166080, Note_on_c, 0, 61, 0
4, 166080, Note_on_c, 0, 57, 0
4, 166080, Note_on_c, 0, 52, 0
4, 166080, Note_on_c, 0, 61, 61
4, 166080, Note_on_c, 0, 57, 61
4, 166320, Note_on_c, 0, 64, 61
4, 166320, Note_on_c, 0, 52, 61
4, 166560, Note_on_c, 0, 52, 0
4, 166560, Note_on_c, 0, 61, 0
4, 166560, Note_on_c, 0, 57, 0
4, 166560, Note_on_c, 0, 64, 0
4, 166560, Note_on_c, 0, 61, 60
4, 166560, Note_on_c, 0, 57, 60
4, 166800, Note_on_c, 0, 52, 60
4, 166800, Note_on_c, 0, 64, 60
4, 167040, Note_on_c, 0, 64, 0
4, 167040, Note_on_c, 0, 61, 0
4, 167040, Note_on_c, 0, 57, 0
4, 167040, Note_on_c, 0, 52, 0
4, 167040, Note_on_c, 0, 61, 60
4, 167040, Note_on_c, 0, 57, 60
4, 167280, Note_on_c, 0, 64, 60
4, 167280, Note_on_c, 0, 52, 60
4, 167520, Note_on_c, 0, 52, 0
4, 167520, Note_on_c, 0, 61, 0
4, 167520, Note_on_c, 0, 57, 0
4, 167520, Note_on_c, 0, 64, 0
4, 167520, Note_on_c, 0, 57, 59
4, 167520, Note_on_c, 0, 61, 59
4, 167760, Note_on_c, 0, 52, 59
4, 167760, Note_on_c, 0, 64, 59
4, 168000, Note_on_c, 0, 64, 0
4, 168000, Note_on_c, 0, 57, 0
4, 168000, Note_on_c, 0, 61, 0
4, 168000, Note_on_c, 0, 52, 0
4, 168000, Note_on_c, 0, 56, 59
4, 168000, Note_on_c, 0, 59, 59
4, 168240, Note_on_c, 0, 65, 59
4, 168240, Note_on_c, 0, 49, 59
4, 168480, Note_on_c, 0, 49, 0
4, 168480, Note_on_c, 0, 56, 0
4, 168480, Note_on_c, 0, 59, 0
4, 168480, Note_on_c, 0, 65, 0
4, 168480, Note_on_c, 0, 54, 58
4, 168480, Note_on_c, 0, 57, 58
4, 168720, Note_on_c, 0, 49, 58
4, 168720, Note_on_c, 0, 61, 58
4, 168960, Note_on_c, 0, 61, 0
4, 168960, Note_on_c, 0, 54, 0
4, 168960, Note_on_c, 0, 57, 0
4, 168960, Note_on_c, 0, 49, 0
4, 168960, Note_on_c, 0, 54, 58
4, 168960, Note_on_c, 0, 57, 58
4, 169200, Note_on_c, 0, 49, 58
4, 169200, Note_on_c, 0, 61, 58
4, 169440, Note_on_c, 0, 61, 0
4, 169440, Note_on_c, 0, 54, 0
4, 169440, Note_on_c, 0, 57, 0
4, 169440, Note_on_c, 0, 49, 0
4, 169440, Note_on_c, 0, 54, 57
4, 169440, Note_on_c, 0, 57, 57
4, 169680, Note_on_c, 0, 49, 57
4, 169680, Note_on_c, 0, 61, 57
4, 169920, Note_on_c, 0, 61, 0
4, 169920, Note_on_c, 0, 54, 0
4, 169920, Note_on_c, 0, 57, 0
4, 169920, Note_on_c, 0, 49, 0
4, 169920, Note_on_c, 0, 54, 57
4, 169920, Note_on_c, 0, 57, 57
4, 170160, Note_on_c, 0, 49, 57
4, 170160, Note_on_c, 0, 61, 57
4, 170400, Note_on_c, 0, 61, 0
4, 170400, Note_on_c, 0, 54, 0
4, 170400, Note_on_c, 0, 57, 0
4, 170400, Note_on_c, 0, 49, 0
4, 170400, Note_on_c, 0, 54, 57
4, 170400, Note_on_c, 0, 57, 57
4, 170640, Note_on_c, 0, 49, 57
4, 170640, Note_on_c, 0, 61, 57
4, 170880, Note_on_c, 0, 61, 0
4, 170880, Note_on_c, 0, 54, 0
4, 170880, Note_on_c, 0, 57, 0
4, 170880, Note_on_c, 0, 49, 0
4, 170880, Note_on_c, 0, 56, 59
4, 170880, Note_on_c, 0, 53, 59
4, 171120, Note_on_c, 0, 49, 59
4, 171120, Note_on_c, 0, 61, 59
4, 171360, Note_on_c, 0, 61, 0
4, 171360, Note_on_c, 0, 56, 0
4, 171360, Note_on_c, 0, 53, 0
4, 171360, Note_on_c, 0, 49, 0
4, 171360, Note_on_c, 0, 54, 60
4, 171360, Note_on_c, 0, 57, 60
4, 171600, Note_on_c, 0, 49, 61
4, 171600, Note_on_c, 0, 61, 61
4, 171840, Note_on_c, 0, 61, 0
4, 171840, Note_on_c, 0, 54, 0
4, 171840, Note_on_c, 0, 57, 0
4, 171840, Note_on_c, 0, 49, 0
4, 171840, Note_on_c, 0, 54, 62
4, 171840, Note_on_c, 0, 57, 62
4, 172080, Note_on_c, 0, 49, 62
4, 172080, Note_on_c, 0, 61, 62
4, 172320, Note_on_c, 0, 61, 0
4, 172320, Note_on_c, 0, 54, 0
4, 172320, Note_on_c, 0, 57, 0
4, 172320, Note_on_c, 0, 49, 0
4, 172320, Note_on_c, 0, 56, 63
4, 172320, Note_on_c, 0, 53, 63
4, 172560, Note_on_c, 0, 49, 64
4, 172560, Note_on_c, 0, 61, 64
4, 172800, Note_on_c, 0, 61, 0
4, 172800, Note_on_c, 0, 56, 0
4, 172800, Note_on_c, 0, 53, 0
4, 172800, Note_on_c, 0, 49, 0
4, 172800, Note_on_c, 0, 57, 65
4, 172800, Note_on_c, 0, 54, 65
4, 173040, Note_on_c, 0, 49, 66
4, 173040, Note_on_c, 0, 61, 66
4, 173280, Note_on_c, 0, 61, 0
4, 173280, Note_on_c, 0, 57, 0
4, 173280, Note_on_c, 0, 54, 0
4, 173280, Note_on_c, 0, 49, 0
4, 173280, Note_on_c, 0, 54, 66
4, 173280, Note_on_c, 0, 57, 66
4, 173520, Note_on_c, 0, 49, 67
4, 173520, Note_on_c, 0, 61, 67
4, 173760, Note_on_c, 0, 61, 0
4, 173760, Note_on_c, 0, 54, 0
4, 173760, Note_on_c, 0, 57, 0
4, 173760, Note_on_c, 0, 49, 0
4, 173760, Note_on_c, 0, 52, 68
4, 173760, Note_on_c, 0, 58, 68
4, 174000, Note_on_c, 0, 66, 69
4, 174000, Note_on_c, 0, 49, 69
4, 174240, Note_on_c, 0, 49, 0
4, 174240, Note_on_c, 0, 52, 0
4, 174240, Note_on_c, 0, 58, 0
4, 174240, Note_on_c, 0, 66, 0
4, 174240, Note_on_c, 0, 59, 70
4, 174240, Note_on_c, 0, 50, 70
4, 174480, Note_on_c, 0, 66, 70
4, 174480, Note_on_c, 0, 42, 70
4, 174720, Note_on_c, 0, 42, 0
4, 174720, Note_on_c, 0, 59, 0
4, 174720, Note_on_c, 0, 50, 0
4, 174720, Note_on_c, 0, 66, 0
4, 174720, Note_on_c, 0, 59, 71
4, 174720, Note_on_c, 0, 50, 71
4, 174960, Note_on_c, 0, 42, 72
4, 174960, Note_on_c, 0, 66, 72
4, 175200, Note_on_c, 0, 66, 0
4, 175200, Note_on_c, 0, 59, 0
4, 175200, Note_on_c, 0, 50, 0
4, 175200, Note_on_c, 0, 42, 0
4, 175200, Note_on_c, 0, 61, 73
4, 175200, Note_on_c, 0, 46, 73
4, 175440, Note_on_c, 0, 66, 73
4, 175440, Note_on_c, 0, 42, 73
4, 175680, Note_on_c, 0, 42, 0
4, 175680, Note_on_c, 0, 61, 0
4, 175680, Note_on_c, 0, 46, 0
4, 175680, Note_on_c, 0, 66, 0
4, 175680, Note_on_c, 0, 47, 74
4, 175680, Note_on_c, 0, 62, 74
4, 175920, Note_on_c, 0, 42, 75
4, 175920, Note_on_c, 0, 66, 75
4, 176160, Note_on_c, 0, 66, 0
4, 176160, Note_on_c, 0, 47, 0
4, 176160, Note_on_c, 0, 62, 0
4, 176160, Note_on_c, 0, 42, 0
4, 176160, Note_on_c, 0, 62, 76
4, 176160, Note_on_c, 0, 47, 76
4, 176400, Note_on_c, 0, 66, 77
4, 176400, Note_on_c, 0, 42, 77
4, 176640, Note_on_c, 0, 42, 0
4, 176640, Note_on_c, 0, 62, 0
4, 176640, Note_on_c, 0, 47, 0
4, 176640, Note_on_c, 0, 66, 0
4, 176640, Note_on_c, 0, 63, 77
4, 176640, Note_on_c, 0, 45, 77
4, 176880, Note_on_c, 0, 42, 78
4, 176880, Note_on_c, 0, 71, 78
4, 177120, Note_on_c, 0, 71, 0
4, 177120, Note_on_c, 0, 63, 0
4, 177120, Note_on_c, 0, 45, 0
4, 177120, Note_on_c, 0, 42, 0
4, 177120, Note_on_c, 0, 44, 79
4, 177120, Note_on_c, 0, 64, 79
4, 177360, Note_on_c, 0, 40, 80
4, 177360, Note_on_c, 0, 71, 80
4, 177600, Note_on_c, 0, 71, 0
4, 177600, Note_on_c, 0, 44, 0
4, 177600, Note_on_c, 0, 64, 0
4, 177600, Note_on_c, 0, 40, 0
4, 177600, Note_on_c, 0, 44, 81
4, 177600, Note_on_c, 0, 64, 81
4, 177840, Note_on_c, 0, 40, 81
4, 177840, Note_on_c, 0, 71, 81
4, 178080, Note_on_c, 0, 71, 0
4, 178080, Note_on_c, 0, 44, 0
4, 178080, Note_on_c, 0, 64, 0
4, 178080, Note_on_c, 0, 40, 0
4, 178080, Note_on_c, 0, 66, 82
4, 178080, Note_on_c, 0, 51, 82
4, 178320, Note_on_c, 0, 71, 83
4, 178320, Note_on_c, 0, 47, 83
4, 178560, Note_on_c, 0, 47, 0
4, 178560, Note_on_c, 0, 66, 0
4, 178560, Note_on_c, 0, 51, 0
4, 178560, Note_on_c, 0, 71, 0
4, 178560, Note_on_c, 0, 52, 84
4, 178560, Note_on_c, 0, 67, 84
4, 178800, Note_on_c, 0, 47, 84
4, 178800, Note_on_c, 0, 71, 84
4, 179040, Note_on_c, 0, 71, 0
4, 179040, Note_on_c, 0, 52, 0
4, 179040, Note_on_c, 0, 67, 0
4, 179040, Note_on_c, 0, 47, 0
4, 179040, Note_on_c, 0, 52, 85
4, 179040, Note_on_c, 0, 67, 85
4, 179280, Note_on_c, 0, 71, 86
4, 179280, Note_on_c, 0, 50, 86
4, 179520, Note_on_c, 0, 50, 0
4, 179520, Note_on_c, 0, 52, 0
4, 179520, Note_on_c, 0, 67, 0
4, 179520, Note_on_c, 0, 71, 0
4, 179520, Note_on_c, 0, 68, 87
4, 179520, Note_on_c, 0, 50, 87
4, 179760, Note_on_c, 0, 76, 88
4, 179760, Note_on_c, 0, 47, 88
4, 180000, Note_on_c, 0, 47, 0
4, 180000, Note_on_c, 0, 68, 0
4, 180000, Note_on_c, 0, 50, 0
4, 180000, Note_on_c, 0, 76, 0
4, 180000, Note_on_c, 0, 49, 99
4, 180000, Note_on_c, 0, 76, 99
4, 180000, Note_on_c, 0, 69, 99
4, 180000, Note_on_c, 0, 45, 99
4, 181440, Note_on_c, 0, 45, 0
4, 181440, Note_on_c, 0, 49, 0
4, 181440, Note_on_c, 0, 76, 0
4, 181440, Note_on_c, 0, 69, 0
4, 182880, Note_on_c, 0, 59, 118
4, 182880, Note_on_c, 0, 63, 118
4, 182880, Note_on_c, 0, 57, 118
4, 184320, Note_on_c, 0, 57, 0
4, 184320, Note_on_c, 0, 63, 0
4, 184320, Note_on_c, 0, 59, 0
4, 185760, Note_on_c, 0, 64, 106
4, 185760, Note_on_c, 0, 61, 106
4, 185760, Note_on_c, 0, 57, 106
4, 186240, Note_on_c, 0, 57, 0
4, 186240, Note_on_c, 0, 61, 0
4, 186240, Note_on_c, 0, 64, 0
4, 188640, Note_on_c, 0, 40, 127
4, 188800, Note_on_c, 0, 40, 0
4, 188800, Note_on_c, 0, 42, 126
4, 188960, Note_on_c, 0, 42, 0
4, 188960, Note_on_c, 0, 44, 119
4, 189120, Note_on_c, 0, 44, 0
4, 189120, Note_on_c, 0, 45, 116
4, 189280, Note_on_c, 0, 45, 0
4, 189280, Note_on_c, 0, 47, 113
4, 189440, Note_on_c, 0, 47, 0
4, 189440, Note_on_c, 0, 49, 110
4, 189600, Note_on_c, 0, 49, 0
4, 189600, Note_on_c, 0, 50, 107
4, 189760, Note_on_c, 0, 50, 0
4, 189760, Note_on_c, 0, 52, 104
4, 189920, Note_on_c, 0, 52, 0
4, 189920, Note_on_c, 0, 54, 101
4, 190080, Note_on_c, 0, 54, 0
4, 190080, Note_on_c, 0, 56, 98
4, 190240, Note_on_c, 0, 56, 0
4, 190240, Note_on_c, 0, 57, 97
4, 190400, Note_on_c, 0, 57, 0
4, 190400, Note_on_c, 0, 59, 95
4, 190560, Note_on_c, 0, 59, 0
4, 190560, Note_on_c, 0, 60, 94
4, 190800, Note_on_c, 0, 60, 0
4, 190800, Note_on_c, 0, 61, 92
4, 191040, Note_on_c, 0, 61, 0
4, 191040, Note_on_c, 0, 62, 90
4, 191280, Note_on_c, 0, 62, 0
4, 191280, Note_on_c, 0, 63, 88
4, 191520, Note_on_c, 0, 63, 0
4, 191520, Note_on_c, 0, 64, 77
4, 193920, Note_on_c, 0, 64, 0
4, 193920, Note_on_c, 0, 62, 70
4, 194400, Note_on_c, 0, 62, 0
4, 194400, Note_on_c, 0, 61, 66
4, 194880, Note_on_c, 0, 61, 0
4, 195840, Note_on_c, 0, 52, 55
4, 195840, Note_on_c, 0, 49, 55
4, 196080, Note_on_c, 0, 49, 0
4, 196080, Note_on_c, 0, 52, 0
4, 196320, Note_on_c, 0, 52, 56
4, 196320, Note_on_c, 0, 49, 56
4, 196560, Note_on_c, 0, 49, 0
4, 196560, Note_on_c, 0, 52, 0
4, 197280, Note_on_c, 0, 57, 57
4, 197280, Note_on_c, 0, 52, 57
4, 197520, Note_on_c, 0, 52, 0
4, 197520, Note_on_c, 0, 57, 0
4, 197760, Note_on_c, 0, 52, 58
4, 197760, Note_on_c, 0, 57, 58
4, 198000, Note_on_c, 0, 57, 0
4, 198000, Note_on_c, 0, 52, 0
4, 198720, Note_on_c, 0, 59, 59
4, 198960, Note_on_c, 0, 59, 0
4, 199200, Note_on_c, 0, 59, 59
4, 199440, Note_on_c, 0, 59, 0
4, 200160, Note_on_c, 0, 61, 61
4, 200400, Note_on_c, 0, 61, 0
4, 200640, Note_on_c, 0, 61, 61
4, 200880, Note_on_c, 0, 61, 0
4, 201600, Note_on_c, 0, 67, 63
4, 201840, Note_on_c, 0, 67, 0
4, 202080, Note_on_c, 0, 67, 63
4, 202320, Note_on_c, 0, 67, 0
4, 203040, Note_on_c, 0, 66, 66
4, 203280, Note_on_c, 0, 66, 0
4, 203520, Note_on_c, 0, 66, 65
4, 203760, Note_on_c, 0, 66, 0
4, 204480, Note_on_c, 0, 68, 62
4, 204720, Note_on_c, 0, 68, 0
4, 204960, Note_on_c, 0, 68, 61
4, 205200, Note_on_c, 0, 68, 0
4, 205920, Note_on_c, 0, 69, 58
4, 206160, Note_on_c, 0, 69, 0
4, 207360, Note_on_c, 0, 40, 60
4, 207600, Note_on_c, 0, 40, 0
4, 207840, Note_on_c, 0, 40, 60
4, 208080, Note_on_c, 0, 40, 0
4, 208800, Note_on_c, 0, 40, 61
4, 209040, Note_on_c, 0, 40, 0
4, 209280, Note_on_c, 0, 40, 62
4, 209520, Note_on_c, 0, 40, 0
4, 210240, Note_on_c, 0, 47, 63
4, 210480, Note_on_c, 0, 47, 0
4, 210720, Note_on_c, 0, 47, 63
4, 210960, Note_on_c, 0, 47, 0
4, 211680, Note_on_c, 0, 49, 65
4, 211920, Note_on_c, 0, 49, 0
4, 212160, Note_on_c, 0, 49, 65
4, 212400, Note_on_c, 0, 49, 0
4, 213120, Note_on_c, 0, 55, 66
4, 213360, Note_on_c, 0, 55, 0
4, 213600, Note_on_c, 0, 55, 67
4, 213840, Note_on_c, 0, 55, 0
4, 214560, Note_on_c, 0, 54, 68
4, 214800, Note_on_c, 0, 54, 0
4, 215040, Note_on_c, 0, 54, 68
4, 215280, Note_on_c, 0, 54, 0
4, 216000, Note_on_c, 0, 56, 69
4, 216240, Note_on_c, 0, 56, 0
4, 216480, Note_on_c, 0, 56, 70
4, 216720, Note_on_c, 0, 56, 0
4, 217440, Note_on_c, 0, 57, 71
4, 217680, Note_on_c, 0, 57, 0
4, 217920, Note_on_c, 0, 57, 72
4, 218160, Note_on_c, 0, 57, 0
4, 218880, Note_on_c, 0, 55, 73
4, 219120, Note_on_c, 0, 55, 0
4, 219360, Note_on_c, 0, 55, 73
4, 219600, Note_on_c, 0, 55, 0
4, 220320, Note_on_c, 0, 54, 74
4, 220560, Note_on_c, 0, 54, 0
4, 220800, Note_on_c, 0, 54, 75
4, 221040, Note_on_c, 0, 54, 0
4, 221760, Note_on_c, 0, 56, 76
4, 222000, Note_on_c, 0, 56, 0
4, 222240, Note_on_c, 0, 56, 77
4, 222480, Note_on_c, 0, 56, 0
4, 223200, Note_on_c, 0, 57, 78
4, 223440, Note_on_c, 0, 57, 0
4, 223680, Note_on_c, 0, 57, 78
4, 223920, Note_on_c, 0, 57, 0
4, 224640, Note_on_c, 0, 56, 82
4, 224880, Note_on_c, 0, 56, 0
4, 225120, Note_on_c, 0, 56, 78
4, 225360, Note_on_c, 0, 56, 0
4, 226080, Note_on_c, 0, 57, 76
4, 226320, Note_on_c, 0, 57, 0
4, 226560, Note_on_c, 0, 57, 75
4, 226800, Note_on_c, 0, 57, 0
4, 227520, Note_on_c, 0, 44, 73
4, 227760, Note_on_c, 0, 44, 0
4, 228000, Note_on_c, 0, 44, 72
4, 228240, Note_on_c, 0, 44, 0
4, 228960, Note_on_c, 0, 45, 71
4, 229200, Note_on_c, 0, 45, 0
4, 234720, Note_on_c, 0, 30, 50
4, 234720, Note_on_c, 0, 42, 50
4, 235200, Note_on_c, 0, 42, 0
4, 235200, Note_on_c, 0, 30, 0
4, 235200, Note_on_c, 0, 30, 51
4, 235200, Note_on_c, 0, 42, 51
4, 235680, Note_on_c, 0, 42, 0
4, 235680, Note_on_c, 0, 30, 0
4, 235680, Note_on_c, 0, 30, 53
4, 235680, Note_on_c, 0, 42, 53
4, 236160, Note_on_c, 0, 42, 0
4, 236160, Note_on_c, 0, 30, 0
4, 236160, Note_on_c, 0, 30, 55
4, 236160, Note_on_c, 0, 42, 55
4, 236640, Note_on_c, 0, 42, 0
4, 236640, Note_on_c, 0, 30, 0
4, 236640, Note_on_c, 0, 30, 57
4, 236640, Note_on_c, 0, 42, 57
4, 237120, Note_on_c, 0, 42, 0
4, 237120, Note_on_c, 0, 30, 0
4, 237120, Note_on_c, 0, 30, 58
4, 237120, Note_on_c, 0, 42, 58
4, 237600, Note_on_c, 0, 42, 0
4, 237600, Note_on_c, 0, 30, 0
4, 237600, Note_on_c, 0, 30, 60
4, 237600, Note_on_c, 0, 42, 60
4, 238080, Note_on_c, 0, 42, 0
4, 238080, Note_on_c, 0, 30, 0
4, 238080, Note_on_c, 0, 30, 60
4, 238080, Note_on_c, 0, 42, 60
4, 238560, Note_on_c, 0, 42, 0
4, 238560, Note_on_c, 0, 30, 0
4, 238560, Note_on_c, 0, 42, 59
4, 238560, Note_on_c, 0, 30, 59
4, 239040, Note_on_c, 0, 30, 0
4, 239040, Note_on_c, 0, 42, 0
4, 239040, Note_on_c, 0, 30, 58
4, 239040, Note_on_c, 0, 42, 58
4, 239520, Note_on_c, 0, 42, 0
4, 239520, Note_on_c, 0, 30, 0
4, 239520, Note_on_c, 0, 42, 57
4, 239520, Note_on_c, 0, 30, 57
4, 240000, Note_on_c, 0, 30, 0
4, 240000, Note_on_c, 0, 42, 0
4, 240000, Note_on_c, 0, 30, 55
4, 240000, Note_on_c, 0, 42, 55
4, 240480, Note_on_c, 0, 42, 0
4, 240480, Note_on_c, 0, 30, 0
4, 240480, Note_on_c, 0, 31, 54
4, 240480, Note_on_c, 0, 43, 54
4, 240960, Note_on_c, 0, 43, 0
4, 240960, Note_on_c, 0, 31, 0
4, 240960, Note_on_c, 0, 43, 53
4, 241440, Note_on_c, 0, 43, 0
4, 241440, Note_on_c, 0, 43, 51
4, 241920, Note_on_c, 0, 43, 0
4, 241920, Note_on_c, 0, 43, 52
4, 242400, Note_on_c, 0, 43, 0
4, 242400, Note_on_c, 0, 43, 53
4, 242880, Note_on_c, 0, 43, 0
4, 242880, Note_on_c, 0, 43, 53
4, 243360, Note_on_c, 0, 43, 0
4, 243360, Note_on_c, 0, 43, 54
4, 243840, Note_on_c, 0, 43, 0
4, 243840, Note_on_c, 0, 43, 55
4, 244320, Note_on_c, 0, 43, 0
4, 244320, Note_on_c, 0, 43, 56
4, 244800, Note_on_c, 0, 43, 0
4, 244800, Note_on_c, 0, 43, 57
4, 245280, Note_on_c, 0, 43, 0
4, 245280, Note_on_c, 0, 43, 58
4, 245760, Note_on_c, 0, 43, 0
4, 245760, Note_on_c, 0, 43, 58
4, 246240, Note_on_c, 0, 43, 0
4, 246240, Note_on_c, 0, 43, 59
4, 246720, Note_on_c, 0, 43, 0
4, 246720, Note_on_c, 0, 43, 60
4, 247200, Note_on_c, 0, 43, 0
4, 247200, Note_on_c, 0, 43, 61
4, 247680, Note_on_c, 0, 43, 0
4, 247680, Note_on_c, 0, 43, 62
4, 248160, Note_on_c, 0, 43, 0
4, 248160, Note_on_c, 0, 43, 63
4, 248640, Note_on_c, 0, 43, 0
4, 248640, Note_on_c, 0, 43, 64
4, 249120, Note_on_c, 0, 43, 0
4, 249120, Note_on_c, 0, 43, 64
4, 249600, Note_on_c, 0, 43, 0
4, 249600, Note_on_c, 0, 43, 65
4, 250080, Note_on_c, 0, 43, 0
4, 250080, Note_on_c, 0, 43, 66
4, 250560, Note_on_c, 0, 43, 0
4, 250560, Note_on_c, 0, 43, 67
4, 251040, Note_on_c, 0, 43, 0
4, 251040, Note_on_c, 0, 43, 68
4, 251520, Note_on_c, 0, 43, 0
4, 251520, Note_on_c, 0, 43, 69
4, 252000, Note_on_c, 0, 43, 0
4, 252000, Note_on_c, 0, 43, 69
4, 252480, Note_on_c, 0, 43, 0
4, 252480, Note_on_c, 0, 43, 70
4, 252960, Note_on_c, 0, 43, 0
4, 252960, Note_on_c, 0, 43, 67
4, 253440, Note_on_c, 0, 43, 0
4, 253440, Note_on_c, 0, 43, 63
4, 253920, Note_on_c, 0, 43, 0
4, 253920, Note_on_c, 0, 55, 60
4, 254400, Note_on_c, 0, 55, 0
4, 254400, Note_on_c, 0, 55, 60
4, 254880, Note_on_c, 0, 55, 0
4, 254880, Note_on_c, 0, 55, 59
4, 255360, Note_on_c, 0, 55, 0
4, 255360, Note_on_c, 0, 55, 61
4, 255840, Note_on_c, 0, 55, 0
4, 255840, Note_on_c, 0, 55, 63
4, 256320, Note_on_c, 0, 55, 0
4, 256320, Note_on_c, 0, 55, 65
4, 256800, Note_on_c, 0, 55, 0
4, 256800, Note_on_c, 0, 55, 67
4, 257280, Note_on_c, 0, 55, 0
4, 257280, Note_on_c, 0, 55, 70
4, 257760, Note_on_c, 0, 55, 0
4, 257760, Note_on_c, 0, 55, 72
4, 258240, Note_on_c, 0, 55, 0
4, 258240, Note_on_c, 0, 55, 71
4, 258720, Note_on_c, 0, 55, 0
4, 258720, Note_on_c, 0, 55, 69
4, 259200, Note_on_c, 0, 55, 0
4, 259200, Note_on_c, 0, 55, 68
4, 259680, Note_on_c, 0, 55, 0
4, 259680, Note_on_c, 0, 55, 66
4, 260160, Note_on_c, 0, 55, 0
4, 260160, Note_on_c, 0, 55, 65
4, 260640, Note_on_c, 0, 55, 0
4, 260640, Note_on_c, 0, 55, 63
4, 261120, Note_on_c, 0, 55, 0
4, 261120, Note_on_c, 0, 55, 62
4, 261600, Note_on_c, 0, 55, 0
4, 261600, Note_on_c, 0, 55, 60
4, 262080, Note_on_c, 0, 55, 0
4, 262080, Note_on_c, 0, 55, 59
4, 262560, Note_on_c, 0, 55, 0
4, 262560, Note_on_c, 0, 55, 58
4, 263040, Note_on_c, 0, 55, 0
4, 263040, Note_on_c, 0, 55, 56
4, 263520, Note_on_c, 0, 55, 0
4, 263520, Note_on_c, 0, 55, 55
4, 263760, Note_on_c, 0, 55, 0
4, 311280, Note_on_c, 0, 50, 88
4, 311520, Note_on_c, 0, 50, 0
4, 311760, Note_on_c, 0, 50, 89
4, 312000, Note_on_c, 0, 50, 0
4, 312240, Note_on_c, 0, 50, 89
4, 312480, Note_on_c, 0, 50, 0
4, 312720, Note_on_c, 0, 47, 90
4, 312960, Note_on_c, 0, 47, 0
4, 313200, Note_on_c, 0, 47, 91
4, 313440, Note_on_c, 0, 47, 0
4, 313680, Note_on_c, 0, 47, 92
4, 313920, Note_on_c, 0, 47, 0
4, 314160, Note_on_c, 0, 47, 93
4, 314400, Note_on_c, 0, 47, 0
4, 314640, Note_on_c, 0, 47, 94
4, 314880, Note_on_c, 0, 47, 0
4, 315120, Note_on_c, 0, 47, 94
4, 315360, Note_on_c, 0, 47, 0
4, 371520, Note_on_c, 0, 51, 66
4, 371520, Note_on_c, 0, 54, 66
4, 371760, Note_on_c, 0, 54, 0
4, 371760, Note_on_c, 0, 51, 0
4, 372000, Note_on_c, 0, 51, 65
4, 372000, Note_on_c, 0, 54, 65
4, 372240, Note_on_c, 0, 54, 0
4, 372240, Note_on_c, 0, 51, 0
4, 372960, Note_on_c, 0, 54, 64
4, 372960, Note_on_c, 0, 59, 64
4, 373200, Note_on_c, 0, 59, 0
4, 373200, Note_on_c, 0, 54, 0
4, 373440, Note_on_c, 0, 54, 63
4, 373440, Note_on_c, 0, 59, 63
4, 373680, Note_on_c, 0, 59, 0
4, 373680, Note_on_c, 0, 54, 0
4, 374400, Note_on_c, 0, 61, 62
4, 374640, Note_on_c, 0, 61, 0
4, 374880, Note_on_c, 0, 61, 61
4, 375120, Note_on_c, 0, 61, 0
4, 375840, Note_on_c, 0, 63, 60
4, 376080, Note_on_c, 0, 63, 0
4, 380160, Note_on_c, 0, 54, 55
4, 380400, Note_on_c, 0, 54, 0
4, 380640, Note_on_c, 0, 54, 54
4, 380880, Note_on_c, 0, 54, 0
4, 381600, Note_on_c, 0, 54, 53
4, 381600, Note_on_c, 0, 59, 53
4, 381840, Note_on_c, 0, 59, 0
4, 381840, Note_on_c, 0, 54, 0
4, 382080, Note_on_c, 0, 54, 52
4, 382080, Note_on_c, 0, 59, 52
4, 382320, Note_on_c, 0, 59, 0
4, 382320, Note_on_c, 0, 54, 0
4, 383040, Note_on_c, 0, 61, 51
4, 383280, Note_on_c, 0, 61, 0
4, 383520, Note_on_c, 0, 61, 51
4, 383760, Note_on_c, 0, 61, 0
4, 384480, Note_on_c, 0, 62, 49
4, 384720, Note_on_c, 0, 62, 0
4, 388800, Control_c, 0, 64, 127
4, 388800, Note_on_c, 0, 64, 44
4, 388800, Note_on_c, 0, 67, 44
4, 391680, Note_on_c, 0, 67, 0
4, 391680, Note_on_c, 0, 64, 0
4, 392640, Control_c, 0, 64, 0
4, 393120, Control_c, 0, 64, 0
4, 393120, Note_on_c, 0, 38, 49
4, 393600, Note_on_c, 0, 38, 0
4, 393600, Note_on_c, 0, 38, 49
4, 394080, Note_on_c, 0, 38, 0
4, 394080, Note_on_c, 0, 38, 49
4, 394560, Note_on_c, 0, 38, 0
4, 394560, Note_on_c, 0, 38, 50
4, 395040, Note_on_c, 0, 38, 0
4, 395040, Note_on_c, 0, 38, 50
4, 395520, Note_on_c, 0, 38, 0
4, 395520, Note_on_c, 0, 38, 51
4, 396000, Note_on_c, 0, 38, 0
4, 396000, Note_on_c, 0, 38, 51
4, 396480, Note_on_c, 0, 38, 0
4, 396480, Note_on_c, 0, 38, 52
4, 396960, Note_on_c, 0, 38, 0
4, 396960, Note_on_c, 0, 38, 52
4, 397440, Note_on_c, 0, 38, 0
4, 397440, Note_on_c, 0, 38, 53
4, 397920, Note_on_c, 0, 38, 0
4, 397920, Note_on_c, 0, 38, 53
4, 398400, Note_on_c, 0, 38, 0
4, 398400, Note_on_c, 0, 38, 54
4, 398880, Note_on_c, 0, 38, 0
4, 398880, Note_on_c, 0, 38, 54
4, 399360, Note_on_c, 0, 38, 0
4, 399360, Note_on_c, 0, 38, 54
4, 399840, Note_on_c, 0, 38, 0
4, 399840, Note_on_c, 0, 38, 55
4, 400320, Note_on_c, 0, 38, 0
4, 400320, Note_on_c, 0, 38, 55
4, 400800, Note_on_c, 0, 38, 0
4, 400800, Note_on_c, 0, 38, 56
4, 401280, Note_on_c, 0, 38, 0
4, 401280, Note_on_c, 0, 38, 56
4, 401760, Note_on_c, 0, 38, 0
4, 401760, Note_on_c, 0, 38, 57
4, 402240, Note_on_c, 0, 38, 0
4, 402240, Note_on_c, 0, 38, 57
4, 402720, Note_on_c, 0, 38, 0
4, 402720, Note_on_c, 0, 38, 58
4, 403200, Note_on_c, 0, 38, 0
4, 403200, Note_on_c, 0, 38, 58
4, 403680, Note_on_c, 0, 38, 0
4, 403680, Note_on_c, 0, 38, 59
4, 404160, Note_on_c, 0, 38, 0
4, 404160, Note_on_c, 0, 38, 59
4, 404640, Note_on_c, 0, 38, 0
4, 404640, Note_on_c, 0, 38, 59
4, 405120, Note_on_c, 0, 38, 0
4, 405120, Note_on_c, 0, 38, 60
4, 405600, Note_on_c, 0, 38, 0
4, 405600, Note_on_c, 0, 38, 58
4, 406080, Note_on_c, 0, 38, 0
4, 406080, Note_on_c, 0, 38, 57
4, 406440, Note_on_c, 0, 38, 0
4, 406440, Control_c, 0, 64, 0
4, 406560, Control_c, 0, 64, 0
4, 406560, Note_on_c, 0, 50, 56
4, 407040, Note_on_c, 0, 50, 0
4, 407040, Note_on_c, 0, 50, 55
4, 407520, Note_on_c, 0, 50, 0
4, 407520, Note_on_c, 0, 50, 54
4, 408000, Note_on_c, 0, 50, 0
4, 408000, Note_on_c, 0, 50, 53
4, 408480, Note_on_c, 0, 50, 0
4, 408480, Note_on_c, 0, 50, 54
4, 408960, Note_on_c, 0, 50, 0
4, 408960, Note_on_c, 0, 50, 55
4, 409440, Note_on_c, 0, 50, 0
4, 409440, Note_on_c, 0, 50, 55
4, 409920, Note_on_c, 0, 50, 0
4, 409920, Note_on_c, 0, 50, 56
4, 410400, Note_on_c, 0, 50, 0
4, 410400, Note_on_c, 0, 50, 57
4, 410880, Note_on_c, 0, 50, 0
4, 410880, Note_on_c, 0, 50, 58
4, 411360, Note_on_c, 0, 50, 0
4, 411360, Note_on_c, 0, 50, 59
4, 411840, Note_on_c, 0, 50, 0
4, 411840, Note_on_c, 0, 50, 59
4, 412320, Note_on_c, 0, 50, 0
4, 412320, Note_on_c, 0, 50, 60
4, 412800, Note_on_c, 0, 50, 0
4, 412800, Note_on_c, 0, 50, 61
4, 413280, Note_on_c, 0, 50, 0
4, 413280, Note_on_c, 0, 50, 62
4, 413760, Note_on_c, 0, 50, 0
4, 413760, Note_on_c, 0, 50, 62
4, 414240, Note_on_c, 0, 50, 0
4, 414240, Note_on_c, 0, 50, 63
4, 414720, Note_on_c, 0, 50, 0
4, 414720, Note_on_c, 0, 50, 64
4, 415200, Note_on_c, 0, 50, 0
4, 415200, Note_on_c, 0, 50, 65
4, 415680, Note_on_c, 0, 50, 0
4, 415680, Note_on_c, 0, 50, 66
4, 416160, Note_on_c, 0, 50, 0
4, 416160, Note_on_c, 0, 50, 66
4, 416640, Note_on_c, 0, 50, 0
4, 416640, Note_on_c, 0, 50, 67
4, 417120, Note_on_c, 0, 50, 0
4, 417120, Note_on_c, 0, 50, 68
4, 417600, Note_on_c, 0, 50, 0
4, 417600, Note_on_c, 0, 50, 69
4, 418080, Note_on_c, 0, 50, 0
4, 418080, Note_on_c, 0, 50, 69
4, 418560, Note_on_c, 0, 50, 0
4, 418560, Note_on_c, 0, 50, 70
4, 419040, Note_on_c, 0, 50, 0
4, 419040, Note_on_c, 0, 50, 70
4, 419520, Note_on_c, 0, 50, 0
4, 419520, Note_on_c, 0, 50, 69
4, 420000, Note_on_c, 0, 50, 0
4, 420000, Note_on_c, 0, 50, 68
4, 420480, Note_on_c, 0, 50, 0
4, 420480, Note_on_c, 0, 50, 66
4, 420960, Note_on_c, 0, 50, 0
4, 420960, Note_on_c, 0, 50, 65
4, 421440, Note_on_c, 0, 50, 0
4, 421440, Note_on_c, 0, 50, 64
4, 421920, Note_on_c, 0, 50, 0
4, 421920, Note_on_c, 0, 50, 63
4, 422400, Note_on_c, 0, 50, 0
4, 422400, Note_on_c, 0, 50, 64
4, 422880, Note_on_c, 0, 50, 0
4, 422880, Note_on_c, 0, 50, 66
4, 423360, Note_on_c, 0, 50, 0
4, 423360, Note_on_c, 0, 50, 67
4, 423840, Note_on_c, 0, 50, 0
4, 423840, Note_on_c, 0, 50, 69
4, 424320, Note_on_c, 0, 50, 0
4, 424320, Note_on_c, 0, 50, 71
4, 424800, Note_on_c, 0, 50, 0
4, 424800, Note_on_c, 0, 50, 72
4, 425280, Note_on_c, 0, 50, 0
4, 425280, Note_on_c, 0, 50, 74
4, 425760, Note_on_c, 0, 50, 0
4, 425760, Note_on_c, 0, 50, 76
4, 426240, Note_on_c, 0, 50, 0
4, 426240, Note_on_c, 0, 50, 76
4, 426720, Note_on_c, 0, 50, 0
4, 426720, Note_on_c, 0, 50, 75
4, 427200, Note_on_c, 0, 50, 0
4, 427200, Note_on_c, 0, 50, 74
4, 427680, Note_on_c, 0, 50, 0
4, 427680, Note_on_c, 0, 50, 74
4, 428160, Note_on_c, 0, 50, 0
4, 428160, Note_on_c, 0, 50, 73
4, 428640, Note_on_c, 0, 50, 0
4, 428640, Note_on_c, 0, 52, 85
4, 429120, Note_on_c, 0, 52, 0
4, 429120, Note_on_c, 0, 52, 74
4, 429600, Note_on_c, 0, 52, 0
4, 429600, Note_on_c, 0, 52, 73
4, 430080, Note_on_c, 0, 52, 0
4, 430080, Note_on_c, 0, 55, 78
4, 430560, Note_on_c, 0, 55, 0
4, 430560, Note_on_c, 0, 54, 71
4, 431040, Note_on_c, 0, 54, 0
4, 431040, Note_on_c, 0, 50, 70
4, 431520, Note_on_c, 0, 50, 0
4, 431520, Note_on_c, 0, 50, 69
4, 432000, Note_on_c, 0, 50, 0
4, 432000, Note_on_c, 0, 50, 69
4, 432480, Note_on_c, 0, 50, 0
4, 432480, Note_on_c, 0, 50, 68
4, 432960, Note_on_c, 0, 50, 0
4, 432960, Note_on_c, 0, 50, 67
4, 433440, Note_on_c, 0, 50, 0
4, 433440, Note_on_c, 0, 50, 68
4, 433920, Note_on_c, 0, 50, 0
4, 433920, Note_on_c, 0, 50, 69
4, 434400, Note_on_c, 0, 50, 0
4, 434400, Note_on_c, 0, 50, 70
4, 434880, Note_on_c, 0, 50, 0
4, 434880, Note_on_c, 0, 50, 71
4, 435360, Note_on_c, 0, 50, 0
4, 435360, Note_on_c, 0, 50, 72
4, 435840, Note_on_c, 0, 50, 0
4, 435840, Note_on_c, 0, 50, 73
4, 436320, Note_on_c, 0, 50, 0
4, 436320, Note_on_c, 0, 50, 74
4, 436800, Note_on_c, 0, 50, 0
4, 436800, Note_on_c, 0, 50, 75
4, 437280, Note_on_c, 0, 50, 0
4, 437280, Note_on_c, 0, 50, 76
4, 437760, Note_on_c, 0, 50, 0
4, 437760, Note_on_c, 0, 50, 76
4, 438240, Note_on_c, 0, 50, 0
4, 438240, Note_on_c, 0, 50, 77
4, 438720, Note_on_c, 0, 50, 0
4, 438720, Note_on_c, 0, 50, 78
4, 439200, Note_on_c, 0, 50, 0
4, 439200, Note_on_c, 0, 50, 79
4, 439680, Note_on_c, 0, 50, 0
4, 439680, Note_on_c, 0, 50, 80
4, 440160, Note_on_c, 0, 50, 0
4, 440160, Note_on_c, 0, 52, 87
4, 440640, Note_on_c, 0, 52, 0
4, 440640, Note_on_c, 0, 52, 81
4, 441120, Note_on_c, 0, 52, 0
4, 441120, Note_on_c, 0, 52, 81
4, 441600, Note_on_c, 0, 52, 0
4, 441600, Note_on_c, 0, 55, 88
4, 442080, Note_on_c, 0, 55, 0
4, 442080, Note_on_c, 0, 54, 81
4, 442560, Note_on_c, 0, 54, 0
4, 442560, Note_on_c, 0, 50, 81
4, 443040, Note_on_c, 0, 50, 0
4, 443040, Note_on_c, 0, 50, 81
4, 443520, Note_on_c, 0, 50, 0
4, 443520, Note_on_c, 0, 50, 81
4, 444000, Note_on_c, 0, 50, 0
4, 444000, Note_on_c, 0, 50, 83
4, 444480, Note_on_c, 0, 50, 0
4, 444480, Note_on_c, 0, 50, 85
4, 444960, Note_on_c, 0, 50, 0
4, 444960, Note_on_c, 0, 50, 86
4, 445440, Note_on_c, 0, 50, 0
4, 445440, Note_on_c, 0, 50, 88
4, 445920, Note_on_c, 0, 50, 0
4, 445920, Note_on_c, 0, 52, 90
4, 446400, Note_on_c, 0, 52, 0
4, 446400, Note_on_c, 0, 52, 100
4, 446880, Note_on_c, 0, 52, 0
4, 446880, Note_on_c, 0, 52, 93
4, 447360, Note_on_c, 0, 52, 0
4, 447360, Note_on_c, 0, 55, 103
4, 447840, Note_on_c, 0, 55, 0
4, 447840, Note_on_c, 0, 54, 81
4, 448320, Note_on_c, 0, 54, 0
4, 448320, Note_on_c, 0, 50, 81
4, 448800, Note_on_c, 0, 50, 0
4, 448800, Note_on_c, 0, 50, 81
4, 449280, Note_on_c, 0, 50, 0
4, 449280, Control_c, 0, 64, 0
4, 449280, Note_on_c, 0, 50, 81
4, 449760, Note_on_c, 0, 50, 0
4, 449760, Note_on_c, 0, 50, 83
4, 450240, Note_on_c, 0, 50, 0
4, 450240, Note_on_c, 0, 50, 85
4, 450720, Note_on_c, 0, 50, 0
4, 450720, Note_on_c, 0, 50, 86
4, 451200, Note_on_c, 0, 50, 0
4, 451200, Note_on_c, 0, 50, 88
4, 451680, Note_on_c, 0, 50, 0
4, 451680, Note_on_c, 0, 52, 90
4, 452160, Note_on_c, 0, 52, 0
4, 452160, Note_on_c, 0, 52, 100
4, 452640, Note_on_c, 0, 52, 0
4, 452640, Note_on_c, 0, 52, 93
4, 453120, Note_on_c, 0, 52, 0
4, 453120, Note_on_c, 0, 55, 103
4, 453600, Note_on_c, 0, 55, 0
4, 453600, Note_on_c, 0, 54, 96
4, 453960, Note_on_c, 0, 54, 0
4, 455040, Note_on_c, 0, 57, 90
4, 457920, Note_on_c, 0, 57, 0
4, 457920, Note_on_c, 0, 52, 72
4, 459840, Note_on_c, 0, 52, 0
4, 460800, Note_on_c, 0, 62, 81
4, 463680, Note_on_c, 0, 62, 0
4, 463680, Note_on_c, 0, 57, 68
4, 465600, Note_on_c, 0, 57, 0
4, 466560, Note_on_c, 0, 57, 85
4, 469440, Note_on_c, 0, 57, 0
4, 469440, Note_on_c, 0, 52, 74
4, 471360, Note_on_c, 0, 52, 0
4, 472320, Note_on_c, 0, 62, 77
4, 475200, Note_on_c, 0, 62, 0
4, 475200, Note_on_c, 0, 57, 66
4, 477120, Note_on_c, 0, 57, 0
4, 478080, Note_on_c, 0, 76, 67
4, 478080, Note_on_c, 0, 74, 67
4, 479520, Note_on_c, 0, 74, 0
4, 479520, Note_on_c, 0, 76, 0
4, 479520, Note_on_c, 0, 73, 60
4, 479520, Note_on_c, 0, 76, 60
4, 480000, Note_on_c, 0, 76, 0
4, 480000, Note_on_c, 0, 73, 0
4, 480960, Control_c, 0, 64, 0
4, 480960, Note_on_c, 0, 62, 67
4, 480960, Note_on_c, 0, 64, 67
4, 482400, Note_on_c, 0, 64, 0
4, 482400, Note_on_c, 0, 62, 0
4, 482400, Note_on_c, 0, 64, 60
4, 482400, Note_on_c, 0, 61, 60
4, 482880, Note_on_c, 0, 61, 0
4, 482880, Note_on_c, 0, 64, 0
4, 483840, Note_on_c, 0, 50, 65
4, 483840, Note_on_c, 0, 52, 65
4, 485280, Note_on_c, 0, 52, 0
4, 485280, Note_on_c, 0, 50, 0
4, 485280, Note_on_c, 0, 49, 56
4, 485280, Note_on_c, 0, 52, 56
4, 485760, Note_on_c, 0, 52, 0
4, 485760, Note_on_c, 0, 49, 0
4, 511200, Note_on_c, 0, 70, 53
4, 511200, Note_on_c, 0, 58, 53
4, 511440, Note_on_c, 0, 61, 47
4, 511440, Note_on_c, 0, 73, 47
4, 511680, Note_on_c, 0, 73, 0
4, 511680, Note_on_c, 0, 70, 0
4, 511680, Note_on_c, 0, 58, 0
4, 511680, Note_on_c, 0, 61, 0
4, 511680, Note_on_c, 0, 58, 47
4, 511680, Note_on_c, 0, 70, 47
4, 511920, Note_on_c, 0, 61, 47
4, 511920, Note_on_c, 0, 73, 47
4, 512160, Note_on_c, 0, 73, 0
4, 512160, Note_on_c, 0, 58, 0
4, 512160, Note_on_c, 0, 70, 0
4, 512160, Note_on_c, 0, 61, 0
4, 512160, Note_on_c, 0, 70, 47
4, 512160, Note_on_c, 0, 58, 47
4, 512400, Note_on_c, 0, 61, 47
4, 512400, Note_on_c, 0, 73, 47
4, 512640, Note_on_c, 0, 73, 0
4, 512640, Note_on_c, 0, 70, 0
4, 512640, Note_on_c, 0, 58, 0
4, 512640, Note_on_c, 0, 61, 0
4, 512640, Note_on_c, 0, 58, 47
4, 512640, Note_on_c, 0, 70, 47
4, 512880, Note_on_c, 0, 61, 47
4, 512880, Note_on_c, 0, 73, 47
4, 513120, Note_on_c, 0, 73, 0
4, 513120, Note_on_c, 0, 58, 0
4, 513120, Note_on_c, 0, 70, 0
4, 513120, Note_on_c, 0, 61, 0
4, 513120, Note_on_c, 0, 70, 48
4, 513120, Note_on_c, 0, 58, 48
4, 513360, Note_on_c, 0, 73, 48
4, 513360, Note_on_c, 0, 61, 48
4, 513600, Note_on_c, 0, 61, 0
4, 513600, Note_on_c, 0, 70, 0
4, 513600, Note_on_c, 0, 58, 0
4, 513600, Note_on_c, 0, 73, 0
4, 513600, Note_on_c, 0, 71, 48
4, 513600, Note_on_c, 0, 59, 48
4, 513840, Note_on_c, 0, 73, 48
4, 513840, Note_on_c, 0, 61, 48
4, 514080, Note_on_c, 0, 61, 0
4, 514080, Note_on_c, 0, 71, 0
4, 514080, Note_on_c, 0, 59, 0
4, 514080, Note_on_c, 0, 73, 0
4, 514080, Note_on_c, 0, 70, 48
4, 514080, Note_on_c, 0, 58, 48
4, 514320, Note_on_c, 0, 61, 48
4, 514320, Note_on_c, 0, 73, 48
4, 514560, Note_on_c, 0, 73, 0
4, 514560, Note_on_c, 0, 70, 0
4, 514560, Note_on_c, 0, 58, 0
4, 514560, Note_on_c, 0, 61, 0
4, 514560, Note_on_c, 0, 70, 49
4, 514560, Note_on_c, 0, 58, 49
4, 514800, Note_on_c, 0, 73, 49
4, 514800, Note_on_c, 0, 61, 49
4, 515040, Note_on_c, 0, 61, 0
4, 515040, Note_on_c, 0, 70, 0
4, 515040, Note_on_c, 0, 58, 0
4, 515040, Note_on_c, 0, 73, 0
4, 515040, Note_on_c, 0, 59, 49
4, 515040, Note_on_c, 0, 71, 49
4, 515280, Note_on_c, 0, 73, 49
4, 515280, Note_on_c, 0, 61, 49
4, 515520, Note_on_c, 0, 61, 0
4, 515520, Note_on_c, 0, 59, 0
4, 515520, Note_on_c, 0, 71, 0
4, 515520, Note_on_c, 0, 73, 0
4, 515520, Note_on_c, 0, 70, 49
4, 515520, Note_on_c, 0, 58, 49
4, 515760, Note_on_c, 0, 73, 49
4, 515760, Note_on_c, 0, 61, 49
4, 516000, Note_on_c, 0, 61, 0
4, 516000, Note_on_c, 0, 70, 0
4, 516000, Note_on_c, 0, 58, 0
4, 516000, Note_on_c, 0, 73, 0
4, 516000, Note_on_c, 0, 70, 49
4, 516000, Note_on_c, 0, 58, 49
4, 516240, Note_on_c, 0, 61, 50
4, 516240, Note_on_c, 0, 73, 50
4, 516480, Note_on_c, 0, 73, 0
4, 516480, Note_on_c, 0, 70, 0
4, 516480, Note_on_c, 0, 58, 0
4, 516480, Note_on_c, 0, 61, 0
4, 516480, Note_on_c, 0, 71, 50
4, 516480, Note_on_c, 0, 59, 50
4, 516720, Note_on_c, 0, 61, 50
4, 516720, Note_on_c, 0, 73, 50
4, 516960, Note_on_c, 0, 73, 0
4, 516960, Note_on_c, 0, 71, 0
4, 516960, Note_on_c, 0, 59, 0
4, 516960, Note_on_c, 0, 61, 0
4, 516960, Note_on_c, 0, 70, 50
4, 516960, Note_on_c, 0, 58, 50
4, 517200, Note_on_c, 0, 61, 50
4, 517200, Note_on_c, 0, 73, 50
4, 517440, Note_on_c, 0, 73, 0
4, 517440, Note_on_c, 0, 70, 0
4, 517440, Note_on_c, 0, 58, 0
4, 517440, Note_on_c, 0, 61, 0
4, 517440, Note_on_c, 0, 70, 50
4, 517440, Note_on_c, 0, 58, 50
4, 517680, Note_on_c, 0, 73, 50
4, 517680, Note_on_c, 0, 61, 50
4, 517920, Note_on_c, 0, 61, 0
4, 517920, Note_on_c, 0, 70, 0
4, 517920, Note_on_c, 0, 58, 0
4, 517920, Note_on_c, 0, 73, 0
4, 517920, Note_on_c, 0, 70, 51
4, 517920, Note_on_c, 0, 58, 51
4, 518160, Note_on_c, 0, 61, 51
4, 518160, Note_on_c, 0, 73, 51
4, 518400, Note_on_c, 0, 73, 0
4, 518400, Note_on_c, 0, 70, 0
4, 518400, Note_on_c, 0, 58, 0
4, 518400, Note_on_c, 0, 61, 0
4, 518400, Note_on_c, 0, 70, 51
4, 518400, Note_on_c, 0, 58, 51
4, 518640, Note_on_c, 0, 61, 51
4, 518640, Note_on_c, 0, 73, 51
4, 518880, Note_on_c, 0, 73, 0
4, 518880, Note_on_c, 0, 70, 0
4, 518880, Note_on_c, 0, 58, 0
4, 518880, Note_on_c, 0, 61, 0
4, 518880, Note_on_c, 0, 58, 51
4, 518880, Note_on_c, 0, 70, 51
4, 519120, Note_on_c, 0, 73, 51
4, 519120, Note_on_c, 0, 61, 51
4, 519360, Note_on_c, 0, 61, 0
4, 519360, Note_on_c, 0, 58, 0
4, 519360, Note_on_c, 0, 70, 0
4, 519360, Note_on_c, 0, 73, 0
4, 519360, Note_on_c, 0, 58, 52
4, 519360, Note_on_c, 0, 70, 52
4, 519600, Note_on_c, 0, 61, 52
4, 519600, Note_on_c, 0, 73, 52
4, 519840, Note_on_c, 0, 73, 0
4, 519840, Note_on_c, 0, 58, 0
4, 519840, Note_on_c, 0, 70, 0
4, 519840, Note_on_c, 0, 61, 0
4, 519840, Note_on_c, 0, 70, 52
4, 519840, Note_on_c, 0, 58, 52
4, 520080, Note_on_c, 0, 73, 52
4, 520080, Note_on_c, 0, 61, 52
4, 520320, Note_on_c, 0, 61, 0
4, 520320, Note_on_c, 0, 70, 0
4, 520320, Note_on_c, 0, 58, 0
4, 520320, Note_on_c, 0, 73, 0
4, 520320, Note_on_c, 0, 58, 52
4, 520320, Note_on_c, 0, 70, 52
4, 520560, Note_on_c, 0, 61, 52
4, 520560, Note_on_c, 0, 73, 52
4, 520800, Note_on_c, 0, 73, 0
4, 520800, Note_on_c, 0, 58, 0
4, 520800, Note_on_c, 0, 70, 0
4, 520800, Note_on_c, 0, 61, 0
4, 520800, Note_on_c, 0, 70, 52
4, 520800, Note_on_c, 0, 58, 52
4, 521040, Note_on_c, 0, 73, 53
4, 521040, Note_on_c, 0, 61, 53
4, 521280, Note_on_c, 0, 61, 0
4, 521280, Note_on_c, 0, 70, 0
4, 521280, Note_on_c, 0, 58, 0
4, 521280, Note_on_c, 0, 73, 0
4, 521280, Note_on_c, 0, 58, 53
4, 521280, Note_on_c, 0, 70, 53
4, 521520, Note_on_c, 0, 61, 53
4, 521520, Note_on_c, 0, 73, 53
4, 521760, Note_on_c, 0, 73, 0
4, 521760, Note_on_c, 0, 58, 0
4, 521760, Note_on_c, 0, 70, 0
4, 521760, Note_on_c, 0, 61, 0
4, 521760, Note_on_c, 0, 70, 53
4, 521760, Note_on_c, 0, 58, 53
4, 522000, Note_on_c, 0, 61, 53
4, 522000, Note_on_c, 0, 73, 53
4, 522240, Note_on_c, 0, 73, 0
4, 522240, Note_on_c, 0, 70, 0
4, 522240, Note_on_c, 0, 58, 0
4, 522240, Note_on_c, 0, 61, 0
4, 522240, Note_on_c, 0, 70, 53
4, 522240, Note_on_c, 0, 58, 53
4, 522480, Note_on_c, 0, 73, 53
4, 522480, Note_on_c, 0, 61, 53
4, 522720, Note_on_c, 0, 61, 0
4, 522720, Note_on_c, 0, 70, 0
4, 522720, Note_on_c, 0, 58, 0
4, 522720, Note_on_c, 0, 73, 0
4, 522720, Note_on_c, 0, 58, 54
4, 522720, Note_on_c, 0, 70, 54
4, 522960, Note_on_c, 0, 61, 54
4, 522960, Note_on_c, 0, 73, 54
4, 523200, Note_on_c, 0, 73, 0
4, 523200, Note_on_c, 0, 58, 0
4, 523200, Note_on_c, 0, 70, 0
4, 523200, Note_on_c, 0, 61, 0
4, 523200, Note_on_c, 0, 70, 54
4, 523200, Note_on_c, 0, 58, 54
4, 523440, Note_on_c, 0, 61, 54
4, 523440, Note_on_c, 0, 73, 54
4, 523680, Note_on_c, 0, 73, 0
4, 523680, Note_on_c, 0, 70, 0
4, 523680, Note_on_c, 0, 58, 0
4, 523680, Note_on_c, 0, 61, 0
4, 523680, Note_on_c, 0, 58, 54
4, 523680, Note_on_c, 0, 70, 54
4, 523920, Note_on_c, 0, 73, 54
4, 523920, Note_on_c, 0, 61, 54
4, 524160, Note_on_c, 0, 61, 0
4, 524160, Note_on_c, 0, 58, 0
4, 524160, Note_on_c, 0, 70, 0
4, 524160, Note_on_c, 0, 73, 0
4, 524160, Note_on_c, 0, 70, 55
4, 524160, Note_on_c, 0, 58, 55
4, 524400, Note_on_c, 0, 61, 55
4, 524400, Note_on_c, 0, 73, 55
4, 524640, Note_on_c, 0, 73, 0
4, 524640, Note_on_c, 0, 70, 0
4, 524640, Note_on_c, 0, 58, 0
4, 524640, Note_on_c, 0, 61, 0
4, 524640, Note_on_c, 0, 70, 55
4, 524640, Note_on_c, 0, 58, 55
4, 524880, Note_on_c, 0, 61, 55
4, 524880, Note_on_c, 0, 73, 55
4, 525120, Note_on_c, 0, 73, 0
4, 525120, Note_on_c, 0, 70, 0
4, 525120, Note_on_c, 0, 58, 0
4, 525120, Note_on_c, 0, 61, 0
4, 525120, Note_on_c, 0, 58, 55
4, 525120, Note_on_c, 0, 70, 55
4, 525360, Note_on_c, 0, 61, 55
4, 525360, Note_on_c, 0, 73, 55
4, 525600, Note_on_c, 0, 73, 0
4, 525600, Note_on_c, 0, 58, 0
4, 525600, Note_on_c, 0, 70, 0
4, 525600, Note_on_c, 0, 61, 0
4, 525600, Note_on_c, 0, 69, 55
4, 525600, Note_on_c, 0, 57, 55
4, 525840, Note_on_c, 0, 61, 56
4, 525840, Note_on_c, 0, 73, 56
4, 526080, Note_on_c, 0, 73, 0
4, 526080, Note_on_c, 0, 69, 0
4, 526080, Note_on_c, 0, 57, 0
4, 526080, Note_on_c, 0, 61, 0
4, 526080, Note_on_c, 0, 57, 56
4, 526080, Note_on_c, 0, 69, 56
4, 526320, Note_on_c, 0, 73, 56
4, 526320, Note_on_c, 0, 61, 56
4, 526560, Note_on_c, 0, 61, 0
4, 526560, Note_on_c, 0, 57, 0
4, 526560, Note_on_c, 0, 69, 0
4, 526560, Note_on_c, 0, 73, 0
4, 526560, Note_on_c, 0, 57, 56
4, 526560, Note_on_c, 0, 69, 56
4, 526800, Note_on_c, 0, 73, 56
4, 526800, Note_on_c, 0, 61, 56
4, 527040, Note_on_c, 0, 61, 0
4, 527040, Note_on_c, 0, 57, 0
4, 527040, Note_on_c, 0, 69, 0
4, 527040, Note_on_c, 0, 73, 0
4, 527040, Note_on_c, 0, 69, 56
4, 527040, Note_on_c, 0, 57, 56
4, 527280, Note_on_c, 0, 61, 56
4, 527280, Note_on_c, 0, 73, 56
4, 527520, Note_on_c, 0, 73, 0
4, 527520, Note_on_c, 0, 69, 0
4, 527520, Note_on_c, 0, 57, 0
4, 527520, Note_on_c, 0, 61, 0
4, 527520, Note_on_c, 0, 69, 57
4, 527520, Note_on_c, 0, 57, 57
4, 527760, Note_on_c, 0, 73, 57
4, 527760, Note_on_c, 0, 61, 57
4, 528000, Note_on_c, 0, 61, 0
4, 528000, Note_on_c, 0, 69, 0
4, 528000, Note_on_c, 0, 57, 0
4, 528000, Note_on_c, 0, 73, 0
4, 528000, Note_on_c, 0, 69, 57
4, 528000, Note_on_c, 0, 57, 57
4, 528240, Note_on_c, 0, 73, 57
4, 528240, Note_on_c, 0, 61, 57
4, 528480, Note_on_c, 0, 61, 0
4, 528480, Note_on_c, 0, 69, 0
4, 528480, Note_on_c, 0, 57, 0
4, 528480, Note_on_c, 0, 73, 0
4, 528480, Note_on_c, 0, 57, 57
4, 528480, Note_on_c, 0, 69, 57
4, 528720, Note_on_c, 0, 61, 57
4, 528720, Note_on_c, 0, 73, 57
4, 528960, Note_on_c, 0, 73, 0
4, 528960, Note_on_c, 0, 57, 0
4, 528960, Note_on_c, 0, 69, 0
4, 528960, Note_on_c, 0, 61, 0
4, 528960, Note_on_c, 0, 57, 58
4, 528960, Note_on_c, 0, 69, 58
4, 529200, Note_on_c, 0, 61, 58
4, 529200, Note_on_c, 0, 73, 58
4, 529440, Note_on_c, 0, 73, 0
4, 529440, Note_on_c, 0, 57, 0
4, 529440, Note_on_c, 0, 69, 0
4, 529440, Note_on_c, 0, 61, 0
4, 529440, Note_on_c, 0, 57, 58
4, 529440, Note_on_c, 0, 69, 58
4, 529680, Note_on_c, 0, 61, 58
4, 529680, Note_on_c, 0, 73, 58
4, 529920, Note_on_c, 0, 73, 0
4, 529920, Note_on_c, 0, 57, 0
4, 529920, Note_on_c, 0, 69, 0
4, 529920, Note_on_c, 0, 61, 0
4, 529920, Note_on_c, 0, 57, 58
4, 529920, Note_on_c, 0, 69, 58
4, 530160, Note_on_c, 0, 61, 58
4, 530160, Note_on_c, 0, 73, 58
4, 530400, Note_on_c, 0, 73, 0
4, 530400, Note_on_c, 0, 57, 0
4, 530400, Note_on_c, 0, 69, 0
4, 530400, Note_on_c, 0, 61, 0
4, 530400, Note_on_c, 0, 57, 58
4, 530400, Note_on_c, 0, 69, 58
4, 530640, Note_on_c, 0, 61, 58
4, 530640, Note_on_c, 0, 73, 58
4, 530880, Note_on_c, 0, 73, 0
4, 530880, Note_on_c, 0, 57, 0
4, 530880, Note_on_c, 0, 69, 0
4, 530880, Note_on_c, 0, 61, 0
4, 530880, Note_on_c, 0, 57, 58
4, 530880, Note_on_c, 0, 67, 58
4, 531120, Note_on_c, 0, 61, 58
4, 531120, Note_on_c, 0, 73, 58
4, 531360, Note_on_c, 0, 73, 0
4, 531360, Note_on_c, 0, 57, 0
4, 531360, Note_on_c, 0, 67, 0
4, 531360, Note_on_c, 0, 61, 0
4, 531360, Note_on_c, 0, 62, 58
4, 531360, Note_on_c, 0, 66, 58
4, 531600, Note_on_c, 0, 57, 57
4, 531600, Note_on_c, 0, 69, 57
4, 531840, Note_on_c, 0, 69, 0
4, 531840, Note_on_c, 0, 62, 0
4, 531840, Note_on_c, 0, 66, 0
4, 531840, Note_on_c, 0, 57, 0
4, 531840, Note_on_c, 0, 62, 57
4, 531840, Note_on_c, 0, 66, 57
4, 532080, Note_on_c, 0, 69, 57
4, 532080, Note_on_c, 0, 57, 57
4, 532320, Note_on_c, 0, 57, 0
4, 532320, Note_on_c, 0, 62, 0
4, 532320, Note_on_c, 0, 66, 0
4, 532320, Note_on_c, 0, 69, 0
4, 532320, Note_on_c, 0, 64, 57
4, 532320, Note_on_c, 0, 67, 57
4, 532560, Note_on_c, 0, 69, 57
4, 532560, Note_on_c, 0, 57, 57
4, 532800, Note_on_c, 0, 57, 0
4, 532800, Note_on_c, 0, 64, 0
4, 532800, Note_on_c, 0, 67, 0
4, 532800, Note_on_c, 0, 69, 0
4, 532800, Note_on_c, 0, 62, 57
4, 532800, Note_on_c, 0, 66, 57
4, 533040, Note_on_c, 0, 57, 56
4, 533040, Note_on_c, 0, 69, 56
4, 533280, Note_on_c, 0, 69, 0
4, 533280, Note_on_c, 0, 62, 0
4, 533280, Note_on_c, 0, 66, 0
4, 533280, Note_on_c, 0, 57, 0
4, 533280, Note_on_c, 0, 62, 56
4, 533280, Note_on_c, 0, 66, 56
4, 533520, Note_on_c, 0, 69, 56
4, 533520, Note_on_c, 0, 57, 56
4, 533760, Note_on_c, 0, 57, 0
4, 533760, Note_on_c, 0, 62, 0
4, 533760, Note_on_c, 0, 66, 0
4, 533760, Note_on_c, 0, 69, 0
4, 533760, Note_on_c, 0, 64, 56
4, 533760, Note_on_c, 0, 61, 56
4, 534000, Note_on_c, 0, 70, 56
4, 534000, Note_on_c, 0, 54, 56
4, 534240, Note_on_c, 0, 54, 0
4, 534240, Note_on_c, 0, 64, 0
4, 534240, Note_on_c, 0, 61, 0
4, 534240, Note_on_c, 0, 70, 0
4, 534240, Note_on_c, 0, 59, 56
4, 534240, Note_on_c, 0, 62, 56
4, 534480, Note_on_c, 0, 66, 55
4, 534480, Note_on_c, 0, 54, 55
4, 534720, Note_on_c, 0, 54, 0
4, 534720, Note_on_c, 0, 59, 0
4, 534720, Note_on_c, 0, 62, 0
4, 534720, Note_on_c, 0, 66, 0
4, 534720, Note_on_c, 0, 59, 55
4, 534720, Note_on_c, 0, 62, 55
4, 534960, Note_on_c, 0, 66, 55
4, 534960, Note_on_c, 0, 54, 55
4, 535200, Note_on_c, 0, 54, 0
4, 535200, Note_on_c, 0, 59, 0
4, 535200, Note_on_c, 0, 62, 0
4, 535200, Note_on_c, 0, 66, 0
4, 535200, Note_on_c, 0, 62, 55
4, 535200, Note_on_c, 0, 59, 55
4, 535440, Note_on_c, 0, 66, 55
4, 535440, Note_on_c, 0, 54, 55
4, 535680, Note_on_c, 0, 54, 0
4, 535680, Note_on_c, 0, 62, 0
4, 535680, Note_on_c, 0, 59, 0
4, 535680, Note_on_c, 0, 66, 0
4, 535680, Note_on_c, 0, 62, 55
4, 535680, Note_on_c, 0, 59, 55
4, 535920, Note_on_c, 0, 66, 54
4, 535920, Note_on_c, 0, 54, 54
4, 536160, Note_on_c, 0, 54, 0
4, 536160, Note_on_c, 0, 62, 0
4, 536160, Note_on_c, 0, 59, 0
4, 536160, Note_on_c, 0, 66, 0
4, 536160, Note_on_c, 0, 62, 54
4, 536160, Note_on_c, 0, 59, 54
4, 536400, Note_on_c, 0, 66, 54
4, 536400, Note_on_c, 0, 54, 54
4, 536640, Note_on_c, 0, 54, 0
4, 536640, Note_on_c, 0, 62, 0
4, 536640, Note_on_c, 0, 59, 0
4, 536640, Note_on_c, 0, 66, 0
4, 536640, Note_on_c, 0, 61, 54
4, 536640, Note_on_c, 0, 64, 54
4, 536880, Note_on_c, 0, 54, 54
4, 536880, Note_on_c, 0, 66, 54
4, 537120, Note_on_c, 0, 66, 0
4, 537120, Note_on_c, 0, 61, 0
4, 537120, Note_on_c, 0, 64, 0
4, 537120, Note_on_c, 0, 54, 0
4, 537120, Note_on_c, 0, 59, 54
4, 537120, Note_on_c, 0, 62, 54
4, 537360, Note_on_c, 0, 66, 53
4, 537360, Note_on_c, 0, 54, 53
4, 537600, Note_on_c, 0, 54, 0
4, 537600, Note_on_c, 0, 59, 0
4, 537600, Note_on_c, 0, 62, 0
4, 537600, Note_on_c, 0, 66, 0
4, 537600, Note_on_c, 0, 59, 53
4, 537600, Note_on_c, 0, 62, 53
4, 537840, Note_on_c, 0, 66, 53
4, 537840, Note_on_c, 0, 54, 53
4, 538080, Note_on_c, 0, 54, 0
4, 538080, Note_on_c, 0, 59, 0
4, 538080, Note_on_c, 0, 62, 0
4, 538080, Note_on_c, 0, 66, 0
4, 538080, Note_on_c, 0, 61, 53
4, 538080, Note_on_c, 0, 64, 53
4, 538320, Note_on_c, 0, 66, 53
4, 538320, Note_on_c, 0, 54, 53
4, 538560, Note_on_c, 0, 54, 0
4, 538560, Note_on_c, 0, 61, 0
4, 538560, Note_on_c, 0, 64, 0
4, 538560, Note_on_c, 0, 66, 0
4, 538560, Note_on_c, 0, 59, 53
4, 538560, Note_on_c, 0, 62, 53
4, 538800, Note_on_c, 0, 66, 51
4, 538800, Note_on_c, 0, 54, 51
4, 539040, Note_on_c, 0, 54, 0
4, 539040, Note_on_c, 0, 59, 0
4, 539040, Note_on_c, 0, 62, 0
4, 539040, Note_on_c, 0, 66, 0
4, 539040, Note_on_c, 0, 62, 51
4, 539040, Note_on_c, 0, 59, 51
4, 539280, Note_on_c, 0, 54, 52
4, 539280, Note_on_c, 0, 66, 52
4, 539520, Note_on_c, 0, 66, 0
4, 539520, Note_on_c, 0, 62, 0
4, 539520, Note_on_c, 0, 59, 0
4, 539520, Note_on_c, 0, 54, 0
4, 539520, Note_on_c, 0, 57, 53
4, 539520, Note_on_c, 0, 60, 53
4, 539760, Note_on_c, 0, 50, 53
4, 539760, Note_on_c, 0, 66, 53
4, 540000, Note_on_c, 0, 66, 0
4, 540000, Note_on_c, 0, 57, 0
4, 540000, Note_on_c, 0, 60, 0
4, 540000, Note_on_c, 0, 50, 0
4, 540000, Note_on_c, 0, 55, 54
4, 540000, Note_on_c, 0, 59, 54
4, 540240, Note_on_c, 0, 62, 55
4, 540240, Note_on_c, 0, 50, 55
4, 540480, Note_on_c, 0, 50, 0
4, 540480, Note_on_c, 0, 55, 0
4, 540480, Note_on_c, 0, 59, 0
4, 540480, Note_on_c, 0, 62, 0
4, 540480, Note_on_c, 0, 55, 56
4, 540480, Note_on_c, 0, 59, 56
4, 540720, Note_on_c, 0, 50, 57
4, 540720, Note_on_c, 0, 62, 57
4, 540960, Note_on_c, 0, 62, 0
4, 540960, Note_on_c, 0, 55, 0
4, 540960, Note_on_c, 0, 59, 0
4, 540960, Note_on_c, 0, 50, 0
4, 540960, Note_on_c, 0, 55, 58
4, 540960, Note_on_c, 0, 59, 58
4, 541200, Note_on_c, 0, 50, 59
4, 541200, Note_on_c, 0, 62, 59
4, 541440, Note_on_c, 0, 62, 0
4, 541440, Note_on_c, 0, 55, 0
4, 541440, Note_on_c, 0, 59, 0
4, 541440, Note_on_c, 0, 50, 0
4, 541440, Note_on_c, 0, 55, 60
4, 541440, Note_on_c, 0, 59, 60
4, 541680, Note_on_c, 0, 62, 61
4, 541680, Note_on_c, 0, 50, 61
4, 541920, Note_on_c, 0, 50, 0
4, 541920, Note_on_c, 0, 55, 0
4, 541920, Note_on_c, 0, 59, 0
4, 541920, Note_on_c, 0, 62, 0
4, 541920, Note_on_c, 0, 55, 61
4, 541920, Note_on_c, 0, 59, 61
4, 542160, Note_on_c, 0, 62, 62
4, 542160, Note_on_c, 0, 50, 62
4, 542400, Note_on_c, 0, 50, 0
4, 542400, Note_on_c, 0, 55, 0
4, 542400, Note_on_c, 0, 59, 0
4, 542400, Note_on_c, 0, 62, 0
4, 542400, Note_on_c, 0, 57, 63
4, 542400, Note_on_c, 0, 60, 63
4, 542640, Note_on_c, 0, 50, 64
4, 542640, Note_on_c, 0, 62, 64
4, 542880, Note_on_c, 0, 62, 0
4, 542880, Note_on_c, 0, 57, 0
4, 542880, Note_on_c, 0, 60, 0
4, 542880, Note_on_c, 0, 50, 0
4, 542880, Note_on_c, 0, 55, 65
4, 542880, Note_on_c, 0, 59, 65
4, 543120, Note_on_c, 0, 62, 66
4, 543120, Note_on_c, 0, 50, 66
4, 543360, Note_on_c, 0, 50, 0
4, 543360, Note_on_c, 0, 55, 0
4, 543360, Note_on_c, 0, 59, 0
4, 543360, Note_on_c, 0, 62, 0
4, 543360, Note_on_c, 0, 55, 67
4, 543360, Note_on_c, 0, 59, 67
4, 543600, Note_on_c, 0, 50, 68
4, 543600, Note_on_c, 0, 62, 68
4, 543840, Note_on_c, 0, 62, 0
4, 543840, Note_on_c, 0, 55, 0
4, 543840, Note_on_c, 0, 59, 0
4, 543840, Note_on_c, 0, 50, 0
4, 543840, Note_on_c, 0, 57, 68
4, 543840, Note_on_c, 0, 60, 68
4, 544080, Note_on_c, 0, 62, 69
4, 544080, Note_on_c, 0, 50, 69
4, 544320, Note_on_c, 0, 50, 0
4, 544320, Note_on_c, 0, 57, 0
4, 544320, Note_on_c, 0, 60, 0
4, 544320, Note_on_c, 0, 62, 0
4, 544320, Note_on_c, 0, 55, 70
4, 544320, Note_on_c, 0, 59, 70
4, 544560, Note_on_c, 0, 50, 71
4, 544560, Note_on_c, 0, 62, 71
4, 544800, Note_on_c, 0, 62, 0
4, 544800, Note_on_c, 0, 55, 0
4, 544800, Note_on_c, 0, 59, 0
4, 544800, Note_on_c, 0, 50, 0
4, 544800, Note_on_c, 0, 55, 72
4, 544800, Note_on_c, 0, 59, 72
4, 545040, Note_on_c, 0, 50, 73
4, 545040, Note_on_c, 0, 62, 73
4, 545280, Note_on_c, 0, 62, 0
4, 545280, Note_on_c, 0, 55, 0
4, 545280, Note_on_c, 0, 59, 0
4, 545280, Note_on_c, 0, 50, 0
4, 545280, Note_on_c, 0, 52, 83
4, 545280, Note_on_c, 0, 61, 83
4, 545520, Note_on_c, 0, 45, 75
4, 545520, Note_on_c, 0, 67, 75
4, 545760, Note_on_c, 0, 67, 0
4, 545760, Note_on_c, 0, 52, 0
4, 545760, Note_on_c, 0, 61, 0
4, 545760, Note_on_c, 0, 45, 0
4, 545760, Note_on_c, 0, 54, 76
4, 545760, Note_on_c, 0, 62, 76
4, 546000, Note_on_c, 0, 69, 76
4, 546000, Note_on_c, 0, 45, 76
4, 546240, Note_on_c, 0, 45, 0
4, 546240, Note_on_c, 0, 54, 0
4, 546240, Note_on_c, 0, 62, 0
4, 546240, Note_on_c, 0, 69, 0
4, 546240, Note_on_c, 0, 62, 77
4, 546240, Note_on_c, 0, 54, 77
4, 546480, Note_on_c, 0, 69, 78
4, 546480, Note_on_c, 0, 45, 78
4, 546720, Note_on_c, 0, 45, 0
4, 546720, Note_on_c, 0, 62, 0
4, 546720, Note_on_c, 0, 54, 0
4, 546720, Note_on_c, 0, 69, 0
4, 546720, Note_on_c, 0, 64, 87
4, 546720, Note_on_c, 0, 49, 87
4, 546960, Note_on_c, 0, 69, 80
4, 546960, Note_on_c, 0, 45, 80
4, 547200, Note_on_c, 0, 45, 0
4, 547200, Note_on_c, 0, 64, 0
4, 547200, Note_on_c, 0, 49, 0
4, 547200, Note_on_c, 0, 69, 0
4, 547200, Note_on_c, 0, 50, 81
4, 547200, Note_on_c, 0, 66, 81
4, 547440, Note_on_c, 0, 69, 82
4, 547440, Note_on_c, 0, 45, 82
4, 547680, Note_on_c, 0, 45, 0
4, 547680, Note_on_c, 0, 50, 0
4, 547680, Note_on_c, 0, 66, 0
4, 547680, Note_on_c, 0, 69, 0
4, 547680, Note_on_c, 0, 66, 83
4, 547680, Note_on_c, 0, 50, 83
4, 547920, Note_on_c, 0, 45, 83
4, 547920, Note_on_c, 0, 69, 83
4, 548160, Note_on_c, 0, 69, 0
4, 548160, Note_on_c, 0, 66, 0
4, 548160, Note_on_c, 0, 50, 0
4, 548160, Note_on_c, 0, 45, 0
4, 548160, Note_on_c, 0, 67, 84
4, 548160, Note_on_c, 0, 47, 84
4, 548400, Note_on_c, 0, 38, 91
4, 548400, Note_on_c, 0, 74, 91
4, 548640, Note_on_c, 0, 74, 0
4, 548640, Note_on_c, 0, 67, 0
4, 548640, Note_on_c, 0, 47, 0
4, 548640, Note_on_c, 0, 38, 0
4, 548640, Note_on_c, 0, 42, 99
4, 548640, Note_on_c, 0, 38, 99
4, 548640, Note_on_c, 0, 74, 86
4, 548640, Note_on_c, 0, 69, 86
4, 550080, Note_on_c, 0, 69, 0
4, 550080, Note_on_c, 0, 42, 0
4, 550080, Note_on_c, 0, 38, 0
4, 550080, Note_on_c, 0, 74, 0
4, 551520, Note_on_c, 0, 56, 112
4, 551520, Note_on_c, 0, 50, 112
4, 552960, Note_on_c, 0, 50, 0
4, 552960, Note_on_c, 0, 56, 0
4, 554400, Note_on_c, 0, 62, 101
4, 554400, Note_on_c, 0, 50, 101
4, 554400, Note_on_c, 0, 54, 101
4, 554880, Note_on_c, 0, 54, 0
4, 554880, Note_on_c, 0, 50, 0
4, 554880, Note_on_c, 0, 62, 0
4, 555840, Note_on_c, 0, 55, 95
4, 555840, Note_on_c, 0, 49, 95
4, 555840, Note_on_c, 0, 52, 95
4, 556320, Note_on_c, 0, 52, 0
4, 556320, Note_on_c, 0, 49, 0
4, 556320, Note_on_c, 0, 55, 0
4, 557280, Note_on_c, 0, 66, 68
4, 557280, Note_on_c, 0, 69, 68
4, 557520, Note_on_c, 0, 74, 68
4, 557520, Note_on_c, 0, 62, 68
4, 557760, Note_on_c, 0, 62, 0
4, 557760, Note_on_c, 0, 66, 0
4, 557760, Note_on_c, 0, 69, 0
4, 557760, Note_on_c, 0, 74, 0
4, 557760, Note_on_c, 0, 66, 68
4, 557760, Note_on_c, 0, 69, 68
4, 558000, Note_on_c, 0, 74, 68
4, 558000, Note_on_c, 0, 62, 68
4, 558240, Note_on_c, 0, 62, 0
4, 558240, Note_on_c, 0, 66, 0
4, 558240, Note_on_c, 0, 69, 0
4, 558240, Note_on_c, 0, 74, 0
4, 558240, Note_on_c, 0, 69, 68
4, 558240, Note_on_c, 0, 66, 68
4, 558480, Note_on_c, 0, 74, 67
4, 558480, Note_on_c, 0, 62, 67
4, 558720, Note_on_c, 0, 62, 0
4, 558720, Note_on_c, 0, 69, 0
4, 558720, Note_on_c, 0, 66, 0
4, 558720, Note_on_c, 0, 74, 0
4, 558720, Note_on_c, 0, 69, 67
4, 558720, Note_on_c, 0, 66, 67
4, 558960, Note_on_c, 0, 74, 67
4, 558960, Note_on_c, 0, 62, 67
4, 559200, Note_on_c, 0, 62, 0
4, 559200, Note_on_c, 0, 69, 0
4, 559200, Note_on_c, 0, 66, 0
4, 559200, Note_on_c, 0, 74, 0
4, 559200, Note_on_c, 0, 69, 67
4, 559200, Note_on_c, 0, 66, 67
4, 559440, Note_on_c, 0, 74, 67
4, 559440, Note_on_c, 0, 62, 67
4, 559680, Note_on_c, 0, 62, 0
4, 559680, Note_on_c, 0, 69, 0
4, 559680, Note_on_c, 0, 66, 0
4, 559680, Note_on_c, 0, 74, 0
4, 559680, Note_on_c, 0, 65, 66
4, 559680, Note_on_c, 0, 68, 66
4, 559920, Note_on_c, 0, 74, 66
4, 559920, Note_on_c, 0, 62, 66
4, 560160, Note_on_c, 0, 62, 0
4, 560160, Note_on_c, 0, 65, 0
4, 560160, Note_on_c, 0, 68, 0
4, 560160, Note_on_c, 0, 74, 0
4, 560160, Note_on_c, 0, 69, 66
4, 560160, Note_on_c, 0, 66, 66
4, 560400, Note_on_c, 0, 74, 66
4, 560400, Note_on_c, 0, 62, 66
4, 560640, Note_on_c, 0, 62, 0
4, 560640, Note_on_c, 0, 69, 0
4, 560640, Note_on_c, 0, 66, 0
4, 560640, Note_on_c, 0, 74, 0
4, 560640, Note_on_c, 0, 69, 66
4, 560640, Note_on_c, 0, 66, 66
4, 560880, Note_on_c, 0, 74, 65
4, 560880, Note_on_c, 0, 62, 65
4, 561120, Note_on_c, 0, 62, 0
4, 561120, Note_on_c, 0, 69, 0
4, 561120, Note_on_c, 0, 66, 0
4, 561120, Note_on_c, 0, 74, 0
4, 561120, Note_on_c, 0, 67, 65
4, 561120, Note_on_c, 0, 71, 65
4, 561360, Note_on_c, 0, 74, 65
4, 561360, Note_on_c, 0, 62, 65
4, 561600, Note_on_c, 0, 62, 0
4, 561600, Note_on_c, 0, 67, 0
4, 561600, Note_on_c, 0, 71, 0
4, 561600, Note_on_c, 0, 74, 0
4, 561600, Note_on_c, 0, 69, 65
4, 561600, Note_on_c, 0, 66, 65
4, 561840, Note_on_c, 0, 74, 65
4, 561840, Note_on_c, 0, 62, 65
4, 562080, Note_on_c, 0, 62, 0
4, 562080, Note_on_c, 0, 69, 0
4, 562080, Note_on_c, 0, 66, 0
4, 562080, Note_on_c, 0, 74, 0
4, 562080, Note_on_c, 0, 69, 64
4, 562080, Note_on_c, 0, 66, 64
4, 562320, Note_on_c, 0, 74, 64
4, 562320, Note_on_c, 0, 62, 64
4, 562560, Note_on_c, 0, 62, 0
4, 562560, Note_on_c, 0, 69, 0
4, 562560, Note_on_c, 0, 66, 0
4, 562560, Note_on_c, 0, 74, 0
4, 562560, Note_on_c, 0, 67, 64
4, 562560, Note_on_c, 0, 64, 64
4, 562800, Note_on_c, 0, 57, 64
4, 562800, Note_on_c, 0, 73, 64
4, 563040, Note_on_c, 0, 73, 0
4, 563040, Note_on_c, 0, 67, 0
4, 563040, Note_on_c, 0, 64, 0
4, 563040, Note_on_c, 0, 57, 0
4, 563040, Note_on_c, 0, 62, 64
4, 563040, Note_on_c, 0, 66, 64
4, 563280, Note_on_c, 0, 69, 63
4, 563280, Note_on_c, 0, 54, 63
4, 563520, Note_on_c, 0, 54, 0
4, 563520, Note_on_c, 0, 62, 0
4, 563520, Note_on_c, 0, 66, 0
4, 563520, Note_on_c, 0, 69, 0
4, 563520, Note_on_c, 0, 62, 63
4, 563520, Note_on_c, 0, 66, 63
4, 563760, Note_on_c, 0, 69, 63
4, 563760, Note_on_c, 0, 54, 63
4, 564000, Note_on_c, 0, 54, 0
4, 564000, Note_on_c, 0, 62, 0
4, 564000, Note_on_c, 0, 66, 0
4, 564000, Note_on_c, 0, 69, 0
4, 564000, Note_on_c, 0, 62, 63
4, 564000, Note_on_c, 0, 66, 63
4, 564240, Note_on_c, 0, 54, 63
4, 564240, Note_on_c, 0, 69, 63
4, 564480, Note_on_c, 0, 69, 0
4, 564480, Note_on_c, 0, 62, 0
4, 564480, Note_on_c, 0, 66, 0
4, 564480, Note_on_c, 0, 54, 0
4, 564480, Note_on_c, 0, 62, 62
4, 564480, Note_on_c, 0, 66, 62
4, 564720, Note_on_c, 0, 69, 62
4, 564720, Note_on_c, 0, 54, 62
4, 564960, Note_on_c, 0, 54, 0
4, 564960, Note_on_c, 0, 62, 0
4, 564960, Note_on_c, 0, 66, 0
4, 564960, Note_on_c, 0, 69, 0
4, 564960, Note_on_c, 0, 62, 62
4, 564960, Note_on_c, 0, 66, 62
4, 565200, Note_on_c, 0, 69, 62
4, 565200, Note_on_c, 0, 54, 62
4, 565440, Note_on_c, 0, 54, 0
4, 565440, Note_on_c, 0, 62, 0
4, 565440, Note_on_c, 0, 66, 0
4, 565440, Note_on_c, 0, 69, 0
4, 565440, Note_on_c, 0, 65, 62
4, 565440, Note_on_c, 0, 61, 62
4, 565680, Note_on_c, 0, 57, 61
4, 565680, Note_on_c, 0, 69, 61
4, 565920, Note_on_c, 0, 69, 0
4, 565920, Note_on_c, 0, 65, 0
4, 565920, Note_on_c, 0, 61, 0
4, 565920, Note_on_c, 0, 57, 0
4, 565920, Note_on_c, 0, 62, 61
4, 565920, Note_on_c, 0, 66, 61
4, 566160, Note_on_c, 0, 69, 61
4, 566160, Note_on_c, 0, 57, 61
4, 566400, Note_on_c, 0, 57, 0
4, 566400, Note_on_c, 0, 62, 0
4, 566400, Note_on_c, 0, 66, 0
4, 566400, Note_on_c, 0, 69, 0
4, 566400, Note_on_c, 0, 62, 61
4, 566400, Note_on_c, 0, 66, 61
4, 566640, Note_on_c, 0, 57, 61
4, 566640, Note_on_c, 0, 69, 61
4, 566880, Note_on_c, 0, 69, 0
4, 566880, Note_on_c, 0, 62, 0
4, 566880, Note_on_c, 0, 66, 0
4, 566880, Note_on_c, 0, 57, 0
4, 566880, Note_on_c, 0, 62, 60
4, 566880, Note_on_c, 0, 66, 60
4, 567120, Note_on_c, 0, 69, 60
4, 567120, Note_on_c, 0, 57, 60
4, 567360, Note_on_c, 0, 57, 0
4, 567360, Note_on_c, 0, 62, 0
4, 567360, Note_on_c, 0, 66, 0
4, 567360, Note_on_c, 0, 69, 0
4, 567360, Note_on_c, 0, 62, 60
4, 567360, Note_on_c, 0, 66, 60
4, 567600, Note_on_c, 0, 57, 60
4, 567600, Note_on_c, 0, 69, 60
4, 567840, Note_on_c, 0, 69, 0
4, 567840, Note_on_c, 0, 62, 0
4, 567840, Note_on_c, 0, 66, 0
4, 567840, Note_on_c, 0, 57, 0
4, 567840, Note_on_c, 0, 66, 60
4, 567840, Note_on_c, 0, 62, 60
4, 568080, Note_on_c, 0, 69, 59
4, 568080, Note_on_c, 0, 57, 59
4, 568320, Note_on_c, 0, 57, 0
4, 568320, Note_on_c, 0, 66, 0
4, 568320, Note_on_c, 0, 62, 0
4, 568320, Note_on_c, 0, 69, 0
4, 568320, Note_on_c, 0, 64, 59
4, 568320, Note_on_c, 0, 61, 59
4, 568560, Note_on_c, 0, 54, 59
4, 568560, Note_on_c, 0, 70, 59
4, 568800, Note_on_c, 0, 70, 0
4, 568800, Note_on_c, 0, 64, 0
4, 568800, Note_on_c, 0, 61, 0
4, 568800, Note_on_c, 0, 54, 0
4, 568800, Note_on_c, 0, 62, 59
4, 568800, Note_on_c, 0, 59, 59
4, 569040, Note_on_c, 0, 66, 59
4, 569040, Note_on_c, 0, 54, 59
4, 569280, Note_on_c, 0, 54, 0
4, 569280, Note_on_c, 0, 62, 0
4, 569280, Note_on_c, 0, 59, 0
4, 569280, Note_on_c, 0, 66, 0
4, 569280, Note_on_c, 0, 62, 59
4, 569280, Note_on_c, 0, 59, 59
4, 569520, Note_on_c, 0, 66, 58
4, 569520, Note_on_c, 0, 54, 58
4, 569760, Note_on_c, 0, 54, 0
4, 569760, Note_on_c, 0, 62, 0
4, 569760, Note_on_c, 0, 59, 0
4, 569760, Note_on_c, 0, 66, 0
4, 569760, Note_on_c, 0, 62, 58
4, 569760, Note_on_c, 0, 59, 58
4, 570000, Note_on_c, 0, 66, 58
4, 570000, Note_on_c, 0, 54, 58
4, 570240, Note_on_c, 0, 54, 0
4, 570240, Note_on_c, 0, 62, 0
4, 570240, Note_on_c, 0, 59, 0
4, 570240, Note_on_c, 0, 66, 0
4, 570240, Note_on_c, 0, 62, 58
4, 570240, Note_on_c, 0, 59, 58
4, 570480, Note_on_c, 0, 66, 58
4, 570480, Note_on_c, 0, 54, 58
4, 570720, Note_on_c, 0, 54, 0
4, 570720, Note_on_c, 0, 62, 0
4, 570720, Note_on_c, 0, 59, 0
4, 570720, Note_on_c, 0, 66, 0
4, 570720, Note_on_c, 0, 62, 57
4, 570720, Note_on_c, 0, 59, 57
4, 570960, Note_on_c, 0, 66, 57
4, 570960, Note_on_c, 0, 54, 57
4, 571200, Note_on_c, 0, 54, 0
4, 571200, Note_on_c, 0, 62, 0
4, 571200, Note_on_c, 0, 59, 0
4, 571200, Note_on_c, 0, 66, 0
4, 571200, Note_on_c, 0, 58, 59
4, 571200, Note_on_c, 0, 61, 59
4, 571440, Note_on_c, 0, 66, 59
4, 571440, Note_on_c, 0, 54, 59
4, 571680, Note_on_c, 0, 54, 0
4, 571680, Note_on_c, 0, 58, 0
4, 571680, Note_on_c, 0, 61, 0
4, 571680, Note_on_c, 0, 66, 0
4, 571680, Note_on_c, 0, 62, 60
4, 571680, Note_on_c, 0, 59, 60
4, 571920, Note_on_c, 0, 66, 61
4, 571920, Note_on_c, 0, 54, 61
4, 572160, Note_on_c, 0, 54, 0
4, 572160, Note_on_c, 0, 62, 0
4, 572160, Note_on_c, 0, 59, 0
4, 572160, Note_on_c, 0, 66, 0
4, 572160, Note_on_c, 0, 62, 62
4, 572160, Note_on_c, 0, 59, 62
4, 572400, Note_on_c, 0, 66, 62
4, 572400, Note_on_c, 0, 54, 62
4, 572640, Note_on_c, 0, 54, 0
4, 572640, Note_on_c, 0, 62, 0
4, 572640, Note_on_c, 0, 59, 0
4, 572640, Note_on_c, 0, 66, 0
4, 572640, Note_on_c, 0, 58, 63
4, 572640, Note_on_c, 0, 61, 63
4, 572880, Note_on_c, 0, 66, 64
4, 572880, Note_on_c, 0, 54, 64
4, 573120, Note_on_c, 0, 54, 0
4, 573120, Note_on_c, 0, 58, 0
4, 573120, Note_on_c, 0, 61, 0
4, 573120, Note_on_c, 0, 66, 0
4, 573120, Note_on_c, 0, 59, 65
4, 573120, Note_on_c, 0, 62, 65
4, 573360, Note_on_c, 0, 66, 66
4, 573360, Note_on_c, 0, 54, 66
4, 573600, Note_on_c, 0, 54, 0
4, 573600, Note_on_c, 0, 59, 0
4, 573600, Note_on_c, 0, 62, 0
4, 573600, Note_on_c, 0, 66, 0
4, 573600, Note_on_c, 0, 62, 66
4, 573600, Note_on_c, 0, 59, 66
4, 573840, Note_on_c, 0, 66, 67
4, 573840, Note_on_c, 0, 54, 67
4, 574080, Note_on_c, 0, 54, 0
4, 574080, Note_on_c, 0, 62, 0
4, 574080, Note_on_c, 0, 59, 0
4, 574080, Note_on_c, 0, 66, 0
4, 574080, Note_on_c, 0, 63, 68
4, 574080, Note_on_c, 0, 57, 68
4, 574320, Note_on_c, 0, 54, 69
4, 574320, Note_on_c, 0, 71, 69
4, 574560, Note_on_c, 0, 71, 0
4, 574560, Note_on_c, 0, 63, 0
4, 574560, Note_on_c, 0, 57, 0
4, 574560, Note_on_c, 0, 54, 0
4, 574560, Note_on_c, 0, 55, 70
4, 574560, Note_on_c, 0, 64, 70
4, 574800, Note_on_c, 0, 47, 70
4, 574800, Note_on_c, 0, 71, 70
4, 575040, Note_on_c, 0, 71, 0
4, 575040, Note_on_c, 0, 55, 0
4, 575040, Note_on_c, 0, 64, 0
4, 575040, Note_on_c, 0, 47, 0
4, 575040, Note_on_c, 0, 55, 71
4, 575040, Note_on_c, 0, 64, 71
4, 575280, Note_on_c, 0, 71, 72
4, 575280, Note_on_c, 0, 47, 72
4, 575520, Note_on_c, 0, 47, 0
4, 575520, Note_on_c, 0, 55, 0
4, 575520, Note_on_c, 0, 64, 0
4, 575520, Note_on_c, 0, 71, 0
4, 575520, Note_on_c, 0, 51, 73
4, 575520, Note_on_c, 0, 66, 73
4, 575760, Note_on_c, 0, 47, 73
4, 575760, Note_on_c, 0, 71, 73
4, 576000, Note_on_c, 0, 71, 0
4, 576000, Note_on_c, 0, 51, 0
4, 576000, Note_on_c, 0, 66, 0
4, 576000, Note_on_c, 0, 47, 0
4, 576000, Note_on_c, 0, 67, 74
4, 576000, Note_on_c, 0, 52, 74
4, 576240, Note_on_c, 0, 71, 75
4, 576240, Note_on_c, 0, 47, 75
4, 576480, Note_on_c, 0, 47, 0
4, 576480, Note_on_c, 0, 67, 0
4, 576480, Note_on_c, 0, 52, 0
4, 576480, Note_on_c, 0, 71, 0
4, 576480, Note_on_c, 0, 52, 76
4, 576480, Note_on_c, 0, 67, 76
4, 576720, Note_on_c, 0, 47, 77
4, 576720, Note_on_c, 0, 71, 77
4, 576960, Note_on_c, 0, 71, 0
4, 576960, Note_on_c, 0, 52, 0
4, 576960, Note_on_c, 0, 67, 0
4, 576960, Note_on_c, 0, 47, 0
4, 576960, Note_on_c, 0, 50, 77
4, 576960, Note_on_c, 0, 68, 77
4, 577200, Note_on_c, 0, 76, 78
4, 577200, Note_on_c, 0, 47, 78
4, 577440, Note_on_c, 0, 47, 0
4, 577440, Note_on_c, 0, 50, 0
4, 577440, Note_on_c, 0, 68, 0
4, 577440, Note_on_c, 0, 76, 0
4, 577440, Note_on_c, 0, 69, 79
4, 577440, Note_on_c, 0, 49, 79
4, 577680, Note_on_c, 0, 76, 80
4, 577680, Note_on_c, 0, 45, 80
4, 577920, Note_on_c, 0, 45, 0
4, 577920, Note_on_c, 0, 69, 0
4, 577920, Note_on_c, 0, 49, 0
4, 577920, Note_on_c, 0, 76, 0
4, 577920, Note_on_c, 0, 69, 81
4, 577920, Note_on_c, 0, 49, 81
4, 578160, Note_on_c, 0, 76, 81
4, 578160, Note_on_c, 0, 45, 81
4, 578400, Note_on_c, 0, 45, 0
4, 578400, Note_on_c, 0, 69, 0
4, 578400, Note_on_c, 0, 49, 0
4, 578400, Note_on_c, 0, 76, 0
4, 578400, Note_on_c, 0, 56, 82
4, 578400, Note_on_c, 0, 71, 82
4, 578640, Note_on_c, 0, 52, 83
4, 578640, Note_on_c, 0, 76, 83
4, 578880, Note_on_c, 0, 76, 0
4, 578880, Note_on_c, 0, 56, 0
4, 578880, Note_on_c, 0, 71, 0
4, 578880, Note_on_c, 0, 52, 0
4, 578880, Note_on_c, 0, 72, 84
4, 578880, Note_on_c, 0, 57, 84
4, 579120, Note_on_c, 0, 76, 84
4, 579120, Note_on_c, 0, 52, 84
4, 579360, Note_on_c, 0, 52, 0
4, 579360, Note_on_c, 0, 72, 0
4, 579360, Note_on_c, 0, 57, 0
4, 579360, Note_on_c, 0, 76, 0
4, 579360, Note_on_c, 0, 72, 85
4, 579360, Note_on_c, 0, 57, 85
4, 579600, Note_on_c, 0, 55, 86
4, 579600, Note_on_c, 0, 76, 86
4, 579840, Note_on_c, 0, 76, 0
4, 579840, Note_on_c, 0, 72, 0
4, 579840, Note_on_c, 0, 57, 0
4, 579840, Note_on_c, 0, 55, 0
4, 579840, Note_on_c, 0, 55, 87
4, 579840, Note_on_c, 0, 73, 87
4, 580080, Note_on_c, 0, 52, 88
4, 580080, Note_on_c, 0, 81, 88
4, 580320, Note_on_c, 0, 81, 0
4, 580320, Note_on_c, 0, 55, 0
4, 580320, Note_on_c, 0, 73, 0
4, 580320, Note_on_c, 0, 52, 0
4, 580320, Note_on_c, 0, 42, 120
4, 580320, Note_on_c, 0, 38, 120
4, 580320, Note_on_c, 0, 50, 88
4, 580320, Note_on_c, 0, 74, 88
4, 580320, Note_on_c, 0, 81, 88
4, 580320, Note_on_c, 0, 54, 88
4, 581760, Note_on_c, 0, 54, 0
4, 581760, Note_on_c, 0, 38, 0
4, 581760, Note_on_c, 0, 50, 0
4, 581760, Note_on_c, 0, 42, 0
4, 581760, Note_on_c, 0, 81, 0
4, 581760, Note_on_c, 0, 74, 0
4, 583200, Note_on_c, 0, 62, 120
4, 583200, Note_on_c, 0, 68, 120
4, 583200, Note_on_c, 0, 64, 120
4, 584640, Note_on_c, 0, 64, 0
4, 584640, Note_on_c, 0, 68, 0
4, 584640, Note_on_c, 0, 62, 0
4, 586080, Note_on_c, 0, 62, 112
4, 586080, Note_on_c, 0, 66, 112
4, 586080, Note_on_c, 0, 69, 112
4, 587520, Note_on_c, 0, 69, 0
4, 587520, Note_on_c, 0, 66, 0
4, 587520, Note_on_c, 0, 62, 0
4, 588960, Note_on_c, 0, 45, 127
4, 589120, Note_on_c, 0, 45, 0
4, 589120, Note_on_c, 0, 47, 122
4, 589280, Note_on_c, 0, 47, 0
4, 589280, Note_on_c, 0, 49, 119
4, 589440, Note_on_c, 0, 49, 0
4, 589440, Note_on_c, 0, 50, 116
4, 589600, Note_on_c, 0, 50, 0
4, 589600, Note_on_c, 0, 52, 113
4, 589760, Note_on_c, 0, 52, 0
4, 589760, Note_on_c, 0, 54, 110
4, 589920, Note_on_c, 0, 54, 0
4, 589920, Note_on_c, 0, 55, 107
4, 590080, Note_on_c, 0, 55, 0
4, 590080, Note_on_c, 0, 57, 104
4, 590240, Note_on_c, 0, 57, 0
4, 590240, Note_on_c, 0, 59, 101
4, 590400, Note_on_c, 0, 59, 0
4, 590400, Note_on_c, 0, 61, 98
4, 590560, Note_on_c, 0, 61, 0
4, 590560, Note_on_c, 0, 62, 97
4, 590720, Note_on_c, 0, 62, 0
4, 590720, Note_on_c, 0, 64, 95
4, 590880, Note_on_c, 0, 64, 0
4, 590880, Note_on_c, 0, 65, 94
4, 591120, Note_on_c, 0, 65, 0
4, 591120, Note_on_c, 0, 66, 92
4, 591360, Note_on_c, 0, 66, 0
4, 591360, Note_on_c, 0, 67, 90
4, 591600, Note_on_c, 0, 67, 0
4, 591600, Note_on_c, 0, 68, 88
4, 591840, Note_on_c, 0, 68, 0
4, 591840, Note_on_c, 0, 69, 86
4, 594240, Note_on_c, 0, 69, 0
4, 594240, Note_on_c, 0, 67, 70
4, 594720, Note_on_c, 0, 67, 0
4, 594720, Note_on_c, 0, 66, 66
4, 595080, Note_on_c, 0, 66, 0
4, 596160, Note_on_c, 0, 54, 55
4, 596160, Note_on_c, 0, 57, 55
4, 596400, Note_on_c, 0, 57, 0
4, 596400, Note_on_c, 0, 54, 0
4, 596640, Note_on_c, 0, 54, 56
4, 596640, Note_on_c, 0, 57, 56
4, 596880, Note_on_c, 0, 57, 0
4, 596880, Note_on_c, 0, 54, 0
4, 597600, Note_on_c, 0, 57, 57
4, 597600, Note_on_c, 0, 62, 57
4, 597840, Note_on_c, 0, 62, 0
4, 597840, Note_on_c, 0, 57, 0
4, 598080, Note_on_c, 0, 62, 58
4, 598080, Note_on_c, 0, 57, 58
4, 598320, Note_on_c, 0, 57, 0
4, 598320, Note_on_c, 0, 62, 0
4, 599040, Note_on_c, 0, 64, 59
4, 599280, Note_on_c, 0, 64, 0
4, 599520, Note_on_c, 0, 64, 59
4, 599760, Note_on_c, 0, 64, 0
4, 600480, Note_on_c, 0, 66, 61
4, 600720, Note_on_c, 0, 66, 0
4, 600960, Note_on_c, 0, 66, 61
4, 601200, Note_on_c, 0, 66, 0
4, 601920, Note_on_c, 0, 72, 63
4, 602160, Note_on_c, 0, 72, 0
4, 602400, Note_on_c, 0, 72, 63
4, 602640, Note_on_c, 0, 72, 0
4, 603360, Note_on_c, 0, 71, 64
4, 603600, Note_on_c, 0, 71, 0
4, 603840, Note_on_c, 0, 71, 65
4, 604080, Note_on_c, 0, 71, 0
4, 604800, Note_on_c, 0, 73, 66
4, 605040, Note_on_c, 0, 73, 0
4, 605280, Note_on_c, 0, 73, 64
4, 605520, Note_on_c, 0, 73, 0
4, 606240, Note_on_c, 0, 74, 61
4, 606480, Note_on_c, 0, 74, 0
4, 607680, Note_on_c, 0, 45, 60
4, 607920, Note_on_c, 0, 45, 0
4, 608160, Note_on_c, 0, 45, 60
4, 608400, Note_on_c, 0, 45, 0
4, 609120, Note_on_c, 0, 50, 61
4, 609360, Note_on_c, 0, 50, 0
4, 609600, Note_on_c, 0, 50, 62
4, 609840, Note_on_c, 0, 50, 0
4, 610560, Note_on_c, 0, 52, 63
4, 610800, Note_on_c, 0, 52, 0
4, 611040, Note_on_c, 0, 52, 63
4, 611280, Note_on_c, 0, 52, 0
4, 612000, Note_on_c, 0, 54, 65
4, 612240, Note_on_c, 0, 54, 0
4, 612480, Note_on_c, 0, 54, 65
4, 612720, Note_on_c, 0, 54, 0
4, 613440, Note_on_c, 0, 60, 66
4, 613680, Note_on_c, 0, 60, 0
4, 613920, Note_on_c, 0, 60, 67
4, 614160, Note_on_c, 0, 60, 0
4, 614880, Note_on_c, 0, 59, 68
4, 615120, Note_on_c, 0, 59, 0
4, 615360, Note_on_c, 0, 59, 68
4, 615600, Note_on_c, 0, 59, 0
4, 616320, Note_on_c, 0, 61, 69
4, 616560, Note_on_c, 0, 61, 0
4, 616800, Note_on_c, 0, 61, 70
4, 617040, Note_on_c, 0, 61, 0
4, 617760, Note_on_c, 0, 62, 71
4, 618000, Note_on_c, 0, 62, 0
4, 618240, Note_on_c, 0, 62, 72
4, 618480, Note_on_c, 0, 62, 0
4, 619200, Note_on_c, 0, 60, 73
4, 619440, Note_on_c, 0, 60, 0
4, 619680, Note_on_c, 0, 60, 73
4, 619920, Note_on_c, 0, 60, 0
4, 620640, Note_on_c, 0, 59, 74
4, 620880, Note_on_c, 0, 59, 0
4, 621120, Note_on_c, 0, 59, 75
4, 621360, Note_on_c, 0, 59, 0
4, 622080, Note_on_c, 0, 61, 76
4, 622320, Note_on_c, 0, 61, 0
4, 622560, Note_on_c, 0, 61, 77
4, 622800, Note_on_c, 0, 61, 0
4, 623520, Note_on_c, 0, 62, 78
4, 623760, Note_on_c, 0, 62, 0
4, 624000, Note_on_c, 0, 62, 78
4, 624240, Note_on_c, 0, 62, 0
4, 624960, Control_c, 0, 64, 0
4, 624960, Note_on_c, 0, 61, 82
4, 625200, Note_on_c, 0, 61, 0
4, 625440, Note_on_c, 0, 61, 78
4, 625680, Note_on_c, 0, 61, 0
4, 626400, Note_on_c, 0, 62, 76
4, 626640, Note_on_c, 0, 62, 0
4, 626880, Note_on_c, 0, 62, 75
4, 627120, Note_on_c, 0, 62, 0
4, 627840, Note_on_c, 0, 49, 73
4, 627840, Note_on_c, 0, 52, 73
4, 627840, Note_on_c, 0, 57, 73
4, 628080, Note_on_c, 0, 57, 0
4, 628080, Note_on_c, 0, 52, 0
4, 628080, Note_on_c, 0, 49, 0
4, 628320, Note_on_c, 0, 49, 72
4, 628320, Note_on_c, 0, 57, 73
4, 628320, Note_on_c, 0, 52, 73
4, 628560, Note_on_c, 0, 52, 0
4, 628560, Note_on_c, 0, 57, 0
4, 628560, Note_on_c, 0, 49, 0
4, 633600, Note_on_c, 0, 38, 45
4, 634080, Note_on_c, 0, 38, 0
4, 634080, Note_on_c, 0, 38, 46
4, 634560, Note_on_c, 0, 38, 0
4, 634560, Note_on_c, 0, 38, 46
4, 635040, Note_on_c, 0, 38, 0
4, 635040, Note_on_c, 0, 38, 47
4, 635520, Note_on_c, 0, 38, 0
4, 635520, Note_on_c, 0, 38, 48
4, 636000, Note_on_c, 0, 38, 0
4, 636000, Note_on_c, 0, 38, 48
4, 636480, Note_on_c, 0, 38, 0
4, 636480, Note_on_c, 0, 38, 49
4, 636960, Note_on_c, 0, 38, 0
4, 636960, Note_on_c, 0, 38, 49
4, 637440, Note_on_c, 0, 38, 0
4, 637440, Note_on_c, 0, 38, 50
4, 637920, Note_on_c, 0, 38, 0
4, 637920, Note_on_c, 0, 38, 51
4, 638280, Control_c, 0, 64, 0
4, 638400, Note_on_c, 0, 38, 0
4, 638400, Control_c, 0, 64, 0
4, 638400, Note_on_c, 0, 38, 51
4, 638880, Note_on_c, 0, 38, 0
4, 638880, Note_on_c, 0, 38, 52
4, 639360, Note_on_c, 0, 38, 0
4, 639360, Note_on_c, 0, 38, 52
4, 639840, Note_on_c, 0, 38, 0
4, 639840, Note_on_c, 0, 38, 53
4, 640320, Note_on_c, 0, 38, 0
4, 640320, Note_on_c, 0, 38, 54
4, 640800, Note_on_c, 0, 38, 0
4, 640800, Note_on_c, 0, 38, 54
4, 641280, Note_on_c, 0, 38, 0
4, 641280, Note_on_c, 0, 38, 55
4, 641760, Note_on_c, 0, 38, 0
4, 641760, Note_on_c, 0, 38, 55
4, 642240, Note_on_c, 0, 38, 0
4, 642240, Note_on_c, 0, 38, 56
4, 642720, Note_on_c, 0, 38, 0
4, 642720, Note_on_c, 0, 38, 57
4, 643200, Note_on_c, 0, 38, 0
4, 643200, Note_on_c, 0, 38, 57
4, 643680, Note_on_c, 0, 38, 0
4, 643680, Note_on_c, 0, 38, 58
4, 644160, Note_on_c, 0, 38, 0
4, 644160, Note_on_c, 0, 38, 58
4, 644640, Note_on_c, 0, 38, 0
4, 644640, Note_on_c, 0, 38, 59
4, 645120, Note_on_c, 0, 38, 0
4, 645120, Note_on_c, 0, 38, 60
4, 645600, Note_on_c, 0, 38, 0
4, 645600, Note_on_c, 0, 38, 59
4, 646080, Note_on_c, 0, 38, 0
4, 646080, Note_on_c, 0, 38, 57
4, 646560, Note_on_c, 0, 38, 0
4, 646560, Note_on_c, 0, 38, 55
4, 647040, Note_on_c, 0, 38, 0
4, 647040, Note_on_c, 0, 38, 53
4, 647520, Note_on_c, 0, 38, 0
4, 647520, Note_on_c, 0, 38, 51
4, 648000, Note_on_c, 0, 38, 0
4, 648000, Note_on_c, 0, 38, 49
4, 648480, Note_on_c, 0, 38, 0
4, 648480, Note_on_c, 0, 38, 50
4, 648960, Note_on_c, 0, 38, 0
4, 648960, Note_on_c, 0, 38, 51
4, 649440, Note_on_c, 0, 38, 0
4, 649440, Note_on_c, 0, 38, 52
4, 649920, Note_on_c, 0, 38, 0
4, 649920, Note_on_c, 0, 38, 53
4, 650400, Note_on_c, 0, 38, 0
4, 650400, Note_on_c, 0, 38, 55
4, 650880, Note_on_c, 0, 38, 0
4, 650880, Note_on_c, 0, 38, 56
4, 651360, Note_on_c, 0, 38, 0
4, 651360, Note_on_c, 0, 38, 57
4, 651840, Note_on_c, 0, 38, 0
4, 651840, Note_on_c, 0, 38, 58
4, 652320, Note_on_c, 0, 38, 0
4, 652320, Note_on_c, 0, 38, 59
4, 652800, Note_on_c, 0, 38, 0
4, 652800, Note_on_c, 0, 38, 60
4, 653280, Note_on_c, 0, 38, 0
4, 653280, Note_on_c, 0, 38, 62
4, 653760, Note_on_c, 0, 38, 0
4, 653760, Note_on_c, 0, 38, 63
4, 654240, Note_on_c, 0, 38, 0
4, 654240, Note_on_c, 0, 38, 64
4, 654720, Note_on_c, 0, 38, 0
4, 654720, Note_on_c, 0, 38, 65
4, 655200, Note_on_c, 0, 38, 0
4, 655200, Note_on_c, 0, 38, 66
4, 655680, Note_on_c, 0, 38, 0
4, 655680, Note_on_c, 0, 38, 68
4, 656160, Note_on_c, 0, 38, 0
4, 656160, Note_on_c, 0, 38, 69
4, 656640, Note_on_c, 0, 38, 0
4, 656640, Note_on_c, 0, 38, 70
4, 657120, Note_on_c, 0, 38, 0
4, 657120, Note_on_c, 0, 38, 71
4, 657600, Note_on_c, 0, 38, 0
4, 657600, Note_on_c, 0, 38, 72
4, 658080, Note_on_c, 0, 38, 0
4, 658080, Note_on_c, 0, 38, 73
4, 658560, Note_on_c, 0, 38, 0
4, 658560, Note_on_c, 0, 38, 75
4, 659040, Note_on_c, 0, 38, 0
4, 659040, Note_on_c, 0, 38, 74
4, 659520, Note_on_c, 0, 38, 0
4, 659520, Note_on_c, 0, 38, 71
4, 660000, Note_on_c, 0, 38, 0
4, 660000, Note_on_c, 0, 38, 68
4, 660480, Note_on_c, 0, 38, 0
4, 660480, Note_on_c, 0, 38, 65
4, 660960, Note_on_c, 0, 38, 0
4, 660960, Note_on_c, 0, 38, 62
4, 661440, Note_on_c, 0, 38, 0
4, 661440, Note_on_c, 0, 38, 59
4, 661920, Note_on_c, 0, 38, 0
4, 661920, Note_on_c, 0, 38, 56
4, 662400, Note_on_c, 0, 38, 0
4, 666720, Control_c, 0, 10, 64
4, 666720, Control_c, 0, 91, 101
4, 666720, Control_c, 0, 93, 41
4, 666720, Control_c, 0, 64, 0
4, 666720, Control_c, 0, 1, 0
4, 666720, Pitch_bend_c, 0, 8192
4, 666720, Control_c, 0, 7, 117
4, 667800, Note_on_c, 0, 50, 62
4, 667848, Note_on_c, 0, 50, 0
4, 667920, Note_on_c, 0, 45, 63
4, 667968, Note_on_c, 0, 45, 0
4, 668040, Note_on_c, 0, 50, 64
4, 668088, Note_on_c, 0, 50, 0
4, 668280, Note_on_c, 0, 49, 66
4, 668328, Note_on_c, 0, 49, 0
4, 668400, Note_on_c, 0, 45, 68
4, 668448, Note_on_c, 0, 45, 0
4, 668520, Note_on_c, 0, 49, 69
4, 668568, Note_on_c, 0, 49, 0
4, 668760, Note_on_c, 0, 50, 69
4, 668808, Note_on_c, 0, 50, 0
4, 668880, Note_on_c, 0, 45, 67
4, 668928, Note_on_c, 0, 45, 0
4, 669000, Note_on_c, 0, 50, 65
4, 669048, Note_on_c, 0, 50, 0
4, 669240, Note_on_c, 0, 50, 64
4, 669288, Note_on_c, 0, 50, 0
4, 669480, Note_on_c, 0, 53, 66
4, 669528, Note_on_c, 0, 53, 0
4, 669720, Note_on_c, 0, 58, 68
4, 669768, Note_on_c, 0, 58, 0
4, 669960, Note_on_c, 0, 57, 71
4, 670008, Note_on_c, 0, 57, 0
4, 670200, Note_on_c, 0, 55, 73
4, 670248, Note_on_c, 0, 55, 0
4, 670440, Note_on_c, 0, 56, 75
4, 670488, Note_on_c, 0, 56, 0
4, 670680, Note_on_c, 0, 57, 69
4, 670728, Note_on_c, 0, 57, 0
4, 670800, Note_on_c, 0, 56, 68
4, 670848, Note_on_c, 0, 56, 0
4, 670920, Note_on_c, 0, 57, 66
4, 670968, Note_on_c, 0, 57, 0
4, 671160, Note_on_c, 0, 57, 63
4, 671208, Note_on_c, 0, 57, 0
4, 671400, Note_on_c, 0, 55, 61
4, 671448, Note_on_c, 0, 55, 0
4, 671640, Note_on_c, 0, 53, 64
4, 671688, Note_on_c, 0, 53, 0
4, 671760, Note_on_c, 0, 48, 65
4, 671808, Note_on_c, 0, 48, 0
4, 671880, Note_on_c, 0, 53, 66
4, 671928, Note_on_c, 0, 53, 0
4, 672120, Note_on_c, 0, 52, 69
4, 672168, Note_on_c, 0, 52, 0
4, 672240, Note_on_c, 0, 48, 70
4, 672288, Note_on_c, 0, 48, 0
4, 672360, Note_on_c, 0, 52, 71
4, 672408, Note_on_c, 0, 52, 0
4, 672600, Note_on_c, 0, 53, 72
4, 672648, Note_on_c, 0, 53, 0
4, 672720, Note_on_c, 0, 48, 71
4, 672768, Note_on_c, 0, 48, 0
4, 672840, Note_on_c, 0, 53, 70
4, 672888, Note_on_c, 0, 53, 0
4, 673080, Note_on_c, 0, 53, 68
4, 673128, Note_on_c, 0, 53, 0
4, 673320, Note_on_c, 0, 50, 70
4, 673368, Note_on_c, 0, 50, 0
4, 673560, Note_on_c, 0, 52, 73
4, 673608, Note_on_c, 0, 52, 0
4, 673680, Note_on_c, 0, 45, 75
4, 673728, Note_on_c, 0, 45, 0
4, 673800, Note_on_c, 0, 52, 76
4, 673848, Note_on_c, 0, 52, 0
4, 674040, Note_on_c, 0, 52, 79
4, 674088, Note_on_c, 0, 52, 0
4, 674160, Note_on_c, 0, 47, 80
4, 674208, Note_on_c, 0, 47, 0
4, 674280, Note_on_c, 0, 52, 82
4, 674328, Note_on_c, 0, 52, 0
4, 674520, Note_on_c, 0, 45, 62
4, 674640, Note_on_c, 0, 45, 0
4, 674760, Note_on_c, 0, 46, 64
4, 674880, Note_on_c, 0, 46, 0
4, 675000, Note_on_c, 0, 45, 67
4, 675120, Note_on_c, 0, 45, 0
4, 675240, Note_on_c, 0, 49, 70
4, 675360, Note_on_c, 0, 49, 0
4, 675360, Control_c, 0, 64, 0
4, 675480, Note_on_c, 0, 50, 62
4, 675528, Note_on_c, 0, 50, 0
4, 675600, Note_on_c, 0, 45, 63
4, 675648, Note_on_c, 0, 45, 0
4, 675720, Note_on_c, 0, 50, 64
4, 675768, Note_on_c, 0, 50, 0
4, 675960, Note_on_c, 0, 49, 66
4, 676008, Note_on_c, 0, 49, 0
4, 676080, Note_on_c, 0, 45, 68
4, 676128, Note_on_c, 0, 45, 0
4, 676200, Note_on_c, 0, 49, 69
4, 676248, Note_on_c, 0, 49, 0
4, 676440, Note_on_c, 0, 50, 69
4, 676488, Note_on_c, 0, 50, 0
4, 676560, Note_on_c, 0, 45, 67
4, 676608, Note_on_c, 0, 45, 0
4, 676680, Note_on_c, 0, 50, 65
4, 676728, Note_on_c, 0, 50, 0
4, 676920, Note_on_c, 0, 50, 64
4, 676968, Note_on_c, 0, 50, 0
4, 677160, Note_on_c, 0, 53, 66
4, 677208, Note_on_c, 0, 53, 0
4, 677400, Note_on_c, 0, 58, 68
4, 677448, Note_on_c, 0, 58, 0
4, 677640, Note_on_c, 0, 57, 71
4, 677688, Note_on_c, 0, 57, 0
4, 677880, Note_on_c, 0, 55, 73
4, 677928, Note_on_c, 0, 55, 0
4, 678120, Note_on_c, 0, 56, 75
4, 678168, Note_on_c, 0, 56, 0
4, 678360, Note_on_c, 0, 57, 69
4, 678408, Note_on_c, 0, 57, 0
4, 678480, Note_on_c, 0, 56, 68
4, 678528, Note_on_c, 0, 56, 0
4, 678600, Note_on_c, 0, 57, 66
4, 678648, Note_on_c, 0, 57, 0
4, 678840, Note_on_c, 0, 57, 63
4, 678888, Note_on_c, 0, 57, 0
4, 679080, Note_on_c, 0, 55, 61
4, 679128, Note_on_c, 0, 55, 0
4, 679320, Note_on_c, 0, 53, 64
4, 679368, Note_on_c, 0, 53, 0
4, 679440, Note_on_c, 0, 48, 65
4, 679488, Note_on_c, 0, 48, 0
4, 679560, Note_on_c, 0, 53, 66
4, 679608, Note_on_c, 0, 53, 0
4, 679800, Note_on_c, 0, 52, 69
4, 679848, Note_on_c, 0, 52, 0
4, 679920, Note_on_c, 0, 48, 70
4, 679968, Note_on_c, 0, 48, 0
4, 680040, Note_on_c, 0, 52, 71
4, 680088, Note_on_c, 0, 52, 0
4, 680280, Note_on_c, 0, 53, 72
4, 680328, Note_on_c, 0, 53, 0
4, 680400, Note_on_c, 0, 48, 71
4, 680448, Note_on_c, 0, 48, 0
4, 680520, Note_on_c, 0, 53, 70
4, 680568, Note_on_c, 0, 53, 0
4, 680760, Note_on_c, 0, 53, 68
4, 680808, Note_on_c, 0, 53, 0
4, 681000, Note_on_c, 0, 50, 70
4, 681048, Note_on_c, 0, 50, 0
4, 681240, Note_on_c, 0, 52, 73
4, 681288, Note_on_c, 0, 52, 0
4, 681360, Note_on_c, 0, 45, 75
4, 681408, Note_on_c, 0, 45, 0
4, 681480, Note_on_c, 0, 52, 76
4, 681528, Note_on_c, 0, 52, 0
4, 681720, Note_on_c, 0, 52, 79
4, 681768, Note_on_c, 0, 52, 0
4, 681840, Note_on_c, 0, 47, 80
4, 681888, Note_on_c, 0, 47, 0
4, 681960, Note_on_c, 0, 52, 82
4, 682008, Note_on_c, 0, 52, 0
4, 682200, Note_on_c, 0, 45, 62
4, 682320, Note_on_c, 0, 45, 0
4, 682440, Note_on_c, 0, 46, 64
4, 682560, Note_on_c, 0, 46, 0
4, 682680, Note_on_c, 0, 45, 67
4, 682800, Note_on_c, 0, 45, 0
4, 682920, Note_on_c, 0, 44, 70
4, 683040, Note_on_c, 0, 44, 0
4, 683040, Note_on_c, 0, 45, 59
4, 683160, Note_on_c, 0, 57, 61
4, 683280, Note_on_c, 0, 57, 0
4, 683280, Note_on_c, 0, 57, 63
4, 683400, Note_on_c, 0, 57, 0
4, 683400, Note_on_c, 0, 57, 65
4, 683520, Note_on_c, 0, 57, 0
4, 683520, Note_on_c, 0, 57, 68
4, 683640, Note_on_c, 0, 57, 0
4, 683640, Note_on_c, 0, 57, 66
4, 683760, Note_on_c, 0, 57, 0
4, 683760, Note_on_c, 0, 57, 65
4, 683880, Note_on_c, 0, 57, 0
4, 683880, Note_on_c, 0, 57, 63
4, 684000, Note_on_c, 0, 57, 0
4, 684000, Note_on_c, 0, 57, 61
4, 684120, Note_on_c, 0, 57, 0
4, 684120, Note_on_c, 0, 57, 66
4, 684240, Note_on_c, 0, 57, 0
4, 684240, Note_on_c, 0, 57, 72
4, 684360, Note_on_c, 0, 57, 0
4, 684360, Note_on_c, 0, 57, 71
4, 684480, Note_on_c, 0, 57, 0
4, 684480, Note_on_c, 0, 57, 69
4, 684600, Note_on_c, 0, 57, 0
4, 684600, Note_on_c, 0, 57, 68
4, 684720, Note_on_c, 0, 57, 0
4, 684720, Note_on_c, 0, 57, 66
4, 684840, Note_on_c, 0, 57, 0
4, 684840, Note_on_c, 0, 57, 65
4, 684960, Note_on_c, 0, 57, 0
4, 684960, Note_on_c, 0, 45, 0
4, 684960, Note_on_c, 0, 57, 65
4, 685080, Note_on_c, 0, 57, 0
4, 685080, Note_on_c, 0, 57, 66
4, 685200, Note_on_c, 0, 57, 0
4, 685200, Note_on_c, 0, 57, 68
4, 685320, Note_on_c, 0, 57, 0
4, 685320, Note_on_c, 0, 57, 70
4, 685440, Note_on_c, 0, 57, 0
4, 685440, Note_on_c, 0, 57, 71
4, 685560, Note_on_c, 0, 57, 0
4, 685560, Note_on_c, 0, 57, 73
4, 685680, Note_on_c, 0, 57, 0
4, 685680, Note_on_c, 0, 57, 75
4, 685800, Note_on_c, 0, 57, 0
4, 685800, Note_on_c, 0, 57, 76
4, 685920, Note_on_c, 0, 57, 0
4, 685920, Note_on_c, 0, 57, 78
4, 686040, Note_on_c, 0, 57, 0
4, 686040, Note_on_c, 0, 57, 73
4, 686160, Note_on_c, 0, 57, 0
4, 686160, Note_on_c, 0, 57, 78
4, 686280, Note_on_c, 0, 57, 0
4, 686280, Note_on_c, 0, 57, 77
4, 686400, Note_on_c, 0, 57, 0
4, 686400, Note_on_c, 0, 57, 75
4, 686520, Note_on_c, 0, 57, 0
4, 686520, Note_on_c, 0, 57, 74
4, 686640, Note_on_c, 0, 57, 0
4, 686640, Note_on_c, 0, 57, 72
4, 686760, Note_on_c, 0, 57, 0
4, 686760, Note_on_c, 0, 57, 71
4, 686880, Note_on_c, 0, 57, 0
4, 686880, Note_on_c, 0, 57, 70
4, 687000, Note_on_c, 0, 57, 0
4, 687000, Note_on_c, 0, 57, 73
4, 687120, Note_on_c, 0, 57, 0
4, 687120, Note_on_c, 0, 57, 82
4, 687240, Note_on_c, 0, 57, 0
4, 687240, Note_on_c, 0, 57, 80
4, 687360, Note_on_c, 0, 57, 0
4, 687360, Note_on_c, 0, 57, 78
4, 687480, Note_on_c, 0, 57, 0
4, 687480, Note_on_c, 0, 57, 77
4, 687600, Note_on_c, 0, 57, 0
4, 687600, Note_on_c, 0, 57, 75
4, 687720, Note_on_c, 0, 57, 0
4, 687720, Note_on_c, 0, 57, 78
4, 687840, Note_on_c, 0, 57, 0
4, 687840, Note_on_c, 0, 57, 77
4, 687960, Note_on_c, 0, 57, 0
4, 687960, Note_on_c, 0, 57, 80
4, 688080, Note_on_c, 0, 57, 0
4, 688080, Note_on_c, 0, 57, 88
4, 688200, Note_on_c, 0, 57, 0
4, 688200, Note_on_c, 0, 57, 87
4, 688320, Note_on_c, 0, 57, 0
4, 688320, Note_on_c, 0, 57, 85
4, 688440, Note_on_c, 0, 57, 0
4, 688440, Note_on_c, 0, 57, 83
4, 688560, Note_on_c, 0, 57, 0
4, 688560, Note_on_c, 0, 57, 93
4, 688680, Note_on_c, 0, 57, 0
4, 688680, Note_on_c, 0, 57, 90
4, 688800, Note_on_c, 0, 57, 0
4, 688800, Note_on_c, 0, 57, 87
4, 689280, Note_on_c, 0, 57, 0
4, 690840, Note_on_c, 0, 50, 60
4, 690888, Note_on_c, 0, 50, 0
4, 690960, Note_on_c, 0, 45, 61
4, 691008, Note_on_c, 0, 45, 0
4, 691080, Note_on_c, 0, 50, 62
4, 691128, Note_on_c, 0, 50, 0
4, 691320, Note_on_c, 0, 49, 65
4, 691368, Note_on_c, 0, 49, 0
4, 691440, Note_on_c, 0, 45, 66
4, 691488, Note_on_c, 0, 45, 0
4, 691560, Note_on_c, 0, 49, 67
4, 691608, Note_on_c, 0, 49, 0
4, 691800, Note_on_c, 0, 50, 66
4, 691848, Note_on_c, 0, 50, 0
4, 691920, Note_on_c, 0, 45, 64
4, 691968, Note_on_c, 0, 45, 0
4, 692040, Note_on_c, 0, 50, 63
4, 692088, Note_on_c, 0, 50, 0
4, 692280, Note_on_c, 0, 50, 59
4, 692328, Note_on_c, 0, 50, 0
4, 692520, Note_on_c, 0, 47, 71
4, 692568, Note_on_c, 0, 47, 0
4, 692760, Note_on_c, 0, 48, 68
4, 692808, Note_on_c, 0, 48, 0
4, 692880, Note_on_c, 0, 43, 67
4, 692928, Note_on_c, 0, 43, 0
4, 693000, Note_on_c, 0, 48, 66
4, 693048, Note_on_c, 0, 48, 0
4, 693240, Note_on_c, 0, 48, 64
4, 693288, Note_on_c, 0, 48, 0
4, 693480, Note_on_c, 0, 49, 75
4, 693528, Note_on_c, 0, 49, 0
4, 693720, Note_on_c, 0, 50, 73
4, 693768, Note_on_c, 0, 50, 0
4, 693840, Note_on_c, 0, 45, 72
4, 693888, Note_on_c, 0, 45, 0
4, 693960, Note_on_c, 0, 50, 71
4, 694008, Note_on_c, 0, 50, 0
4, 694200, Note_on_c, 0, 50, 69
4, 694248, Note_on_c, 0, 50, 0
4, 694440, Note_on_c, 0, 54, 85
4, 694488, Note_on_c, 0, 54, 0
4, 694680, Note_on_c, 0, 55, 82
4, 694728, Note_on_c, 0, 55, 0
4, 694920, Note_on_c, 0, 58, 79
4, 694968, Note_on_c, 0, 58, 0
4, 695160, Note_on_c, 0, 57, 76
4, 695208, Note_on_c, 0, 57, 0
4, 695400, Note_on_c, 0, 45, 73
4, 695448, Note_on_c, 0, 45, 0
4, 695640, Note_on_c, 0, 50, 66
4, 695688, Note_on_c, 0, 50, 0
4, 695760, Note_on_c, 0, 45, 63
4, 695812, Note_on_c, 0, 45, 0
4, 695880, Note_on_c, 0, 50, 60
4, 695928, Note_on_c, 0, 50, 0
4, 696120, Note_on_c, 0, 57, 57
4, 696168, Note_on_c, 0, 57, 0
4, 696240, Note_on_c, 0, 53, 57
4, 696288, Note_on_c, 0, 53, 0
4, 696360, Note_on_c, 0, 50, 57
4, 696408, Note_on_c, 0, 50, 0
4, 696480, Control_c, 0, 64, 0
4, 696480, Note_on_c, 0, 45, 59
4, 696600, Note_on_c, 0, 57, 61
4, 696720, Note_on_c, 0, 57, 0
4, 696720, Note_on_c, 0, 57, 63
4, 696840, Note_on_c, 0, 57, 0
4, 696840, Note_on_c, 0, 57, 65
4, 696960, Note_on_c, 0, 57, 0
4, 696960, Note_on_c, 0, 57, 68
4, 697080, Note_on_c, 0, 57, 0
4, 697080, Note_on_c, 0, 57, 66
4, 697200, Note_on_c, 0, 57, 0
4, 697200, Note_on_c, 0, 57, 65
4, 697320, Note_on_c, 0, 57, 0
4, 697320, Note_on_c, 0, 57, 63
4, 697440, Note_on_c, 0, 57, 0
4, 697440, Note_on_c, 0, 57, 61
4, 697560, Note_on_c, 0, 57, 0
4, 697560, Note_on_c, 0, 57, 66
4, 697680, Note_on_c, 0, 57, 0
4, 697680, Note_on_c, 0, 57, 72
4, 697800, Note_on_c, 0, 57, 0
4, 697800, Note_on_c, 0, 57, 71
4, 697920, Note_on_c, 0, 57, 0
4, 697920, Note_on_c, 0, 57, 69
4, 698040, Note_on_c, 0, 57, 0
4, 698040, Note_on_c, 0, 57, 68
4, 698160, Note_on_c, 0, 57, 0
4, 698160, Note_on_c, 0, 57, 66
4, 698280, Note_on_c, 0, 57, 0
4, 698280, Note_on_c, 0, 57, 65
4, 698400, Note_on_c, 0, 57, 0
4, 698400, Note_on_c, 0, 45, 0
4, 698400, Note_on_c, 0, 57, 65
4, 698520, Note_on_c, 0, 57, 0
4, 698520, Note_on_c, 0, 57, 66
4, 698640, Note_on_c, 0, 57, 0
4, 698640, Note_on_c, 0, 57, 68
4, 698760, Note_on_c, 0, 57, 0
4, 698760, Note_on_c, 0, 57, 70
4, 698880, Note_on_c, 0, 57, 0
4, 698880, Note_on_c, 0, 57, 71
4, 699000, Note_on_c, 0, 57, 0
4, 699000, Note_on_c, 0, 57, 73
4, 699120, Note_on_c, 0, 57, 0
4, 699120, Note_on_c, 0, 57, 75
4, 699240, Note_on_c, 0, 57, 0
4, 699240, Note_on_c, 0, 57, 76
4, 699360, Note_on_c, 0, 57, 0
4, 699360, Note_on_c, 0, 57, 78
4, 699480, Note_on_c, 0, 57, 0
4, 699480, Note_on_c, 0, 57, 73
4, 699600, Note_on_c, 0, 57, 0
4, 699600, Note_on_c, 0, 57, 78
4, 699720, Note_on_c, 0, 57, 0
4, 699720, Note_on_c, 0, 57, 77
4, 699840, Note_on_c, 0, 57, 0
4, 699840, Note_on_c, 0, 57, 75
4, 699960, Note_on_c, 0, 57, 0
4, 699960, Note_on_c, 0, 57, 74
4, 700080, Note_on_c, 0, 57, 0
4, 700080, Note_on_c, 0, 57, 72
4, 700200, Note_on_c, 0, 57, 0
4, 700200, Note_on_c, 0, 57, 71
4, 700320, Note_on_c, 0, 57, 0
4, 700320, Note_on_c, 0, 57, 70
4, 700440, Note_on_c, 0, 57, 0
4, 700440, Note_on_c, 0, 57, 73
4, 700560, Note_on_c, 0, 57, 0
4, 700560, Note_on_c, 0, 57, 82
4, 700680, Note_on_c, 0, 57, 0
4, 700680, Note_on_c, 0, 57, 80
4, 700800, Note_on_c, 0, 57, 0
4, 700800, Note_on_c, 0, 57, 78
4, 700920, Note_on_c, 0, 57, 0
4, 700920, Note_on_c, 0, 57, 77
4, 701040, Note_on_c, 0, 57, 0
4, 701040, Note_on_c, 0, 57, 75
4, 701160, Note_on_c, 0, 57, 0
4, 701160, Note_on_c, 0, 57, 78
4, 701280, Note_on_c, 0, 57, 0
4, 701280, Note_on_c, 0, 57, 77
4, 701400, Note_on_c, 0, 57, 0
4, 701400, Note_on_c, 0, 57, 80
4, 701520, Note_on_c, 0, 57, 0
4, 701520, Note_on_c, 0, 57, 88
4, 701640, Note_on_c, 0, 57, 0
4, 701640, Note_on_c, 0, 57, 87
4, 701760, Note_on_c, 0, 57, 0
4, 701760, Note_on_c, 0, 57, 85
4, 701880, Note_on_c, 0, 57, 0
4, 701880, Note_on_c, 0, 57, 83
4, 702000, Note_on_c, 0, 57, 0
4, 702000, Note_on_c, 0, 57, 93
4, 702120, Note_on_c, 0, 57, 0
4, 702120, Note_on_c, 0, 57, 90
4, 702240, Note_on_c, 0, 57, 0
4, 702240, Note_on_c, 0, 57, 87
4, 702720, Note_on_c, 0, 57, 0
4, 704280, Note_on_c, 0, 50, 60
4, 704328, Note_on_c, 0, 50, 0
4, 704400, Note_on_c, 0, 45, 61
4, 704448, Note_on_c, 0, 45, 0
4, 704520, Note_on_c, 0, 50, 62
4, 704568, Note_on_c, 0, 50, 0
4, 704760, Note_on_c, 0, 49, 65
4, 704808, Note_on_c, 0, 49, 0
4, 704880, Note_on_c, 0, 45, 66
4, 704928, Note_on_c, 0, 45, 0
4, 705000, Note_on_c, 0, 49, 67
4, 705048, Note_on_c, 0, 49, 0
4, 705240, Note_on_c, 0, 50, 66
4, 705288, Note_on_c, 0, 50, 0
4, 705360, Note_on_c, 0, 45, 64
4, 705408, Note_on_c, 0, 45, 0
4, 705480, Note_on_c, 0, 50, 63
4, 705528, Note_on_c, 0, 50, 0
4, 705720, Note_on_c, 0, 50, 59
4, 705768, Note_on_c, 0, 50, 0
4, 705960, Note_on_c, 0, 47, 71
4, 706008, Note_on_c, 0, 47, 0
4, 706200, Note_on_c, 0, 48, 68
4, 706248, Note_on_c, 0, 48, 0
4, 706320, Note_on_c, 0, 43, 67
4, 706368, Note_on_c, 0, 43, 0
4, 706440, Note_on_c, 0, 48, 66
4, 706488, Note_on_c, 0, 48, 0
4, 706680, Note_on_c, 0, 48, 64
4, 706728, Note_on_c, 0, 48, 0
4, 706920, Note_on_c, 0, 49, 75
4, 706968, Note_on_c, 0, 49, 0
4, 707160, Note_on_c, 0, 50, 73
4, 707208, Note_on_c, 0, 50, 0
4, 707280, Note_on_c, 0, 45, 72
4, 707328, Note_on_c, 0, 45, 0
4, 707400, Note_on_c, 0, 50, 71
4, 707448, Note_on_c, 0, 50, 0
4, 707640, Note_on_c, 0, 50, 69
4, 707688, Note_on_c, 0, 50, 0
4, 707880, Note_on_c, 0, 54, 85
4, 707928, Note_on_c, 0, 54, 0
4, 708120, Note_on_c, 0, 55, 82
4, 708168, Note_on_c, 0, 55, 0
4, 708360, Note_on_c, 0, 58, 79
4, 708408, Note_on_c, 0, 58, 0
4, 708600, Note_on_c, 0, 57, 76
4, 708648, Note_on_c, 0, 57, 0
4, 708840, Note_on_c, 0, 45, 73
4, 708888, Note_on_c, 0, 45, 0
4, 709080, Note_on_c, 0, 50, 66
4, 709128, Note_on_c, 0, 50, 0
4, 709200, Note_on_c, 0, 45, 63
4, 709252, Note_on_c, 0, 45, 0
4, 709320, Note_on_c, 0, 50, 60
4, 709368, Note_on_c, 0, 50, 0
4, 709920, Note_on_c, 0, 62, 88
4, 709920, Note_on_c, 0, 57, 88
4, 710037, Note_on_c, 0, 57, 0
4, 710037, Note_on_c, 0, 62, 0
4, 710100, Note_on_c, 0, 62, 84
4, 710100, Note_on_c, 0, 57, 84
4, 710139, Note_on_c, 0, 57, 0
4, 710139, Note_on_c, 0, 62, 0
4, 710160, Note_on_c, 0, 62, 82
4, 710160, Note_on_c, 0, 57, 82
4, 710316, Note_on_c, 0, 57, 0
4, 710316, Note_on_c, 0, 62, 0
4, 710880, Note_on_c, 0, 59, 84
4, 710880, Note_on_c, 0, 55, 84
4, 710880, Note_on_c, 0, 62, 84
4, 710997, Note_on_c, 0, 62, 0
4, 710997, Note_on_c, 0, 55, 0
4, 710997, Note_on_c, 0, 59, 0
4, 711060, Note_on_c, 0, 59, 81
4, 711060, Note_on_c, 0, 55, 81
4, 711060, Note_on_c, 0, 62, 81
4, 711099, Note_on_c, 0, 62, 0
4, 711099, Note_on_c, 0, 55, 0
4, 711099, Note_on_c, 0, 59, 0
4, 711120, Note_on_c, 0, 59, 80
4, 711120, Note_on_c, 0, 55, 80
4, 711120, Note_on_c, 0, 62, 80
4, 711276, Note_on_c, 0, 62, 0
4, 711276, Note_on_c, 0, 55, 0
4, 711276, Note_on_c, 0, 59, 0
4, 711840, Note_on_c, 0, 52, 82
4, 711840, Note_on_c, 0, 55, 82
4, 711957, Note_on_c, 0, 55, 0
4, 711957, Note_on_c, 0, 52, 0
4, 712020, Note_on_c, 0, 55, 78
4, 712020, Note_on_c, 0, 52, 78
4, 712059, Note_on_c, 0, 52, 0
4, 712059, Note_on_c, 0, 55, 0
4, 712080, Note_on_c, 0, 52, 76
4, 712080, Note_on_c, 0, 55, 76
4, 712236, Note_on_c, 0, 55, 0
4, 712236, Note_on_c, 0, 52, 0
4, 712800, Note_on_c, 0, 50, 75
4, 712956, Note_on_c, 0, 50, 0
4, 713040, Note_on_c, 0, 45, 74
4, 713196, Note_on_c, 0, 45, 0
4, 713280, Note_on_c, 0, 50, 72
4, 713436, Note_on_c, 0, 50, 0
4, 713760, Note_on_c, 0, 62, 82
4, 713760, Note_on_c, 0, 57, 82
4, 713877, Note_on_c, 0, 57, 0
4, 713877, Note_on_c, 0, 62, 0
4, 713940, Note_on_c, 0, 62, 79
4, 713940, Note_on_c, 0, 57, 79
4, 713979, Note_on_c, 0, 57, 0
4, 713979, Note_on_c, 0, 62, 0
4, 714000, Note_on_c, 0, 62, 78
4, 714000, Note_on_c, 0, 57, 78
4, 714156, Note_on_c, 0, 57, 0
4, 714156, Note_on_c, 0, 62, 0
4, 714720, Note_on_c, 0, 62, 96
4, 714720, Note_on_c, 0, 59, 96
4, 714720, Note_on_c, 0, 52, 96
4, 714837, Note_on_c, 0, 52, 0
4, 714837, Note_on_c, 0, 59, 0
4, 714837, Note_on_c, 0, 62, 0
4, 714900, Note_on_c, 0, 62, 94
4, 714900, Note_on_c, 0, 59, 94
4, 714900, Note_on_c, 0, 52, 94
4, 714939, Note_on_c, 0, 52, 0
4, 714939, Note_on_c, 0, 59, 0
4, 714939, Note_on_c, 0, 62, 0
4, 714960, Note_on_c, 0, 59, 93
4, 714960, Note_on_c, 0, 52, 93
4, 714960, Note_on_c, 0, 62, 93
4, 715116, Note_on_c, 0, 52, 0
4, 715116, Note_on_c, 0, 59, 0
4, 715117, Note_on_c, 0, 62, 0
4, 715680, Note_on_c, 0, 64, 73
4, 715836, Note_on_c, 0, 64, 0
4, 716160, Note_on_c, 0, 62, 69
4, 716316, Note_on_c, 0, 62, 0
4, 716640, Note_on_c, 0, 61, 64
4, 716796, Note_on_c, 0, 61, 0
4, 716880, Note_on_c, 0, 61, 62
4, 717036, Note_on_c, 0, 61, 0
4, 717120, Note_on_c, 0, 61, 60
4, 717276, Note_on_c, 0, 61, 0
4, 717600, Control_c, 0, 64, 0
4, 717600, Note_on_c, 0, 57, 88
4, 717600, Note_on_c, 0, 62, 88
4, 717717, Note_on_c, 0, 62, 0
4, 717717, Note_on_c, 0, 57, 0
4, 717780, Note_on_c, 0, 57, 84
4, 717780, Note_on_c, 0, 62, 84
4, 717819, Note_on_c, 0, 62, 0
4, 717819, Note_on_c, 0, 57, 0
4, 717840, Note_on_c, 0, 57, 82
4, 717840, Note_on_c, 0, 62, 82
4, 717996, Note_on_c, 0, 62, 0
4, 717996, Note_on_c, 0, 57, 0
4, 718560, Note_on_c, 0, 62, 84
4, 718560, Note_on_c, 0, 55, 84
4, 718560, Note_on_c, 0, 59, 84
4, 718677, Note_on_c, 0, 59, 0
4, 718677, Note_on_c, 0, 55, 0
4, 718677, Note_on_c, 0, 62, 0
4, 718740, Note_on_c, 0, 62, 81
4, 718740, Note_on_c, 0, 55, 81
4, 718740, Note_on_c, 0, 59, 81
4, 718779, Note_on_c, 0, 59, 0
4, 718779, Note_on_c, 0, 55, 0
4, 718779, Note_on_c, 0, 62, 0
4, 718800, Note_on_c, 0, 62, 80
4, 718800, Note_on_c, 0, 55, 80
4, 718800, Note_on_c, 0, 59, 80
4, 718956, Note_on_c, 0, 59, 0
4, 718956, Note_on_c, 0, 55, 0
4, 718956, Note_on_c, 0, 62, 0
4, 719520, Note_on_c, 0, 55, 82
4, 719520, Note_on_c, 0, 52, 82
4, 719637, Note_on_c, 0, 52, 0
4, 719637, Note_on_c, 0, 55, 0
4, 719700, Note_on_c, 0, 52, 78
4, 719700, Note_on_c, 0, 55, 78
4, 719739, Note_on_c, 0, 55, 0
4, 719739, Note_on_c, 0, 52, 0
4, 719760, Note_on_c, 0, 55, 76
4, 719760, Note_on_c, 0, 52, 76
4, 719916, Note_on_c, 0, 52, 0
4, 719916, Note_on_c, 0, 55, 0
4, 720480, Note_on_c, 0, 50, 75
4, 720636, Note_on_c, 0, 50, 0
4, 720720, Note_on_c, 0, 45, 74
4, 720876, Note_on_c, 0, 45, 0
4, 720960, Note_on_c, 0, 50, 72
4, 721116, Note_on_c, 0, 50, 0
4, 721440, Note_on_c, 0, 57, 82
4, 721440, Note_on_c, 0, 62, 82
4, 721557, Note_on_c, 0, 62, 0
4, 721557, Note_on_c, 0, 57, 0
4, 721620, Note_on_c, 0, 57, 79
4, 721620, Note_on_c, 0, 62, 79
4, 721659, Note_on_c, 0, 62, 0
4, 721659, Note_on_c, 0, 57, 0
4, 721680, Note_on_c, 0, 57, 78
4, 721680, Note_on_c, 0, 62, 78
4, 721836, Note_on_c, 0, 62, 0
4, 721836, Note_on_c, 0, 57, 0
4, 722400, Note_on_c, 0, 52, 96
4, 722400, Note_on_c, 0, 59, 96
4, 722400, Note_on_c, 0, 62, 96
4, 722517, Note_on_c, 0, 62, 0
4, 722517, Note_on_c, 0, 59, 0
4, 722517, Note_on_c, 0, 52, 0
4, 722580, Note_on_c, 0, 52, 94
4, 722580, Note_on_c, 0, 59, 94
4, 722580, Note_on_c, 0, 62, 94
4, 722619, Note_on_c, 0, 62, 0
4, 722619, Note_on_c, 0, 59, 0
4, 722619, Note_on_c, 0, 52, 0
4, 722640, Note_on_c, 0, 62, 93
4, 722640, Note_on_c, 0, 52, 93
4, 722640, Note_on_c, 0, 59, 93
4, 722796, Note_on_c, 0, 59, 0
4, 722796, Note_on_c, 0, 52, 0
4, 722797, Note_on_c, 0, 62, 0
4, 723360, Note_on_c, 0, 64, 73
4, 723516, Note_on_c, 0, 64, 0
4, 723840, Note_on_c, 0, 62, 69
4, 723996, Note_on_c, 0, 62, 0
4, 724320, Note_on_c, 0, 61, 64
4, 724476, Note_on_c, 0, 61, 0
4, 724560, Note_on_c, 0, 61, 62
4, 724716, Note_on_c, 0, 61, 0
4, 724800, Note_on_c, 0, 61, 60
4, 724956, Note_on_c, 0, 61, 0
4, 725280, Note_on_c, 0, 54, 98
4, 725280, Note_on_c, 0, 50, 98
4, 725280, Note_on_c, 0, 57, 98
4, 725280, Note_on_c, 0, 60, 98
4, 725397, Note_on_c, 0, 60, 0
4, 725397, Note_on_c, 0, 54, 0
4, 725397, Note_on_c, 0, 50, 0
4, 725397, Note_on_c, 0, 57, 0
4, 725460, Note_on_c, 0, 57, 94
4, 725460, Note_on_c, 0, 60, 94
4, 725460, Note_on_c, 0, 54, 94
4, 725460, Note_on_c, 0, 50, 94
4, 725499, Note_on_c, 0, 50, 0
4, 725499, Note_on_c, 0, 57, 0
4, 725499, Note_on_c, 0, 60, 0
4, 725499, Note_on_c, 0, 54, 0
4, 725520, Note_on_c, 0, 57, 93
4, 725520, Note_on_c, 0, 54, 93
4, 725520, Note_on_c, 0, 50, 93
4, 725520, Note_on_c, 0, 60, 93
4, 725662, Note_on_c, 0, 60, 0
4, 725676, Note_on_c, 0, 57, 0
4, 725676, Note_on_c, 0, 54, 0
4, 725676, Note_on_c, 0, 50, 0
4, 726240, Note_on_c, 0, 50, 94
4, 726240, Note_on_c, 0, 55, 94
4, 726240, Note_on_c, 0, 59, 94
4, 726357, Note_on_c, 0, 59, 0
4, 726357, Note_on_c, 0, 55, 0
4, 726357, Note_on_c, 0, 50, 0
4, 726420, Note_on_c, 0, 59, 91
4, 726420, Note_on_c, 0, 50, 91
4, 726420, Note_on_c, 0, 55, 91
4, 726459, Note_on_c, 0, 55, 0
4, 726459, Note_on_c, 0, 50, 0
4, 726459, Note_on_c, 0, 59, 0
4, 726480, Note_on_c, 0, 59, 90
4, 726480, Note_on_c, 0, 50, 90
4, 726480, Note_on_c, 0, 55, 90
4, 726636, Note_on_c, 0, 55, 0
4, 726636, Note_on_c, 0, 50, 0
4, 726636, Note_on_c, 0, 59, 0
4, 729120, Note_on_c, 0, 62, 80
4, 729120, Note_on_c, 0, 57, 80
4, 729237, Note_on_c, 0, 57, 0
4, 729237, Note_on_c, 0, 62, 0
4, 729300, Note_on_c, 0, 62, 77
4, 729300, Note_on_c, 0, 57, 77
4, 729339, Note_on_c, 0, 57, 0
4, 729339, Note_on_c, 0, 62, 0
4, 729360, Note_on_c, 0, 62, 76
4, 729360, Note_on_c, 0, 57, 76
4, 729516, Note_on_c, 0, 57, 0
4, 729516, Note_on_c, 0, 62, 0
4, 730080, Note_on_c, 0, 59, 71
4, 730080, Note_on_c, 0, 62, 71
4, 730080, Note_on_c, 0, 55, 71
4, 730197, Note_on_c, 0, 55, 0
4, 730197, Note_on_c, 0, 62, 0
4, 730197, Note_on_c, 0, 59, 0
4, 730260, Note_on_c, 0, 55, 70
4, 730260, Note_on_c, 0, 62, 70
4, 730260, Note_on_c, 0, 59, 70
4, 730299, Note_on_c, 0, 59, 0
4, 730299, Note_on_c, 0, 62, 0
4, 730299, Note_on_c, 0, 55, 0
4, 730320, Note_on_c, 0, 62, 69
4, 730320, Note_on_c, 0, 59, 69
4, 730320, Note_on_c, 0, 55, 69
4, 730476, Note_on_c, 0, 55, 0
4, 730476, Note_on_c, 0, 59, 0
4, 730476, Note_on_c, 0, 62, 0
4, 731040, Note_on_c, 0, 66, 65
4, 731040, Note_on_c, 0, 62, 65
4, 731196, Note_on_c, 0, 62, 0
4, 731196, Note_on_c, 0, 66, 0
4, 731520, Note_on_c, 0, 64, 63
4, 731520, Note_on_c, 0, 67, 63
4, 731676, Note_on_c, 0, 67, 0
4, 731676, Note_on_c, 0, 64, 0
4, 732000, Note_on_c, 0, 66, 60
4, 732156, Note_on_c, 0, 66, 0
4, 732240, Note_on_c, 0, 66, 59
4, 732396, Note_on_c, 0, 66, 0
4, 732480, Note_on_c, 0, 66, 57
4, 732555, Note_on_c, 0, 66, 0
4, 732960, Note_on_c, 0, 60, 98
4, 732960, Note_on_c, 0, 57, 98
4, 732960, Note_on_c, 0, 50, 98
4, 732960, Note_on_c, 0, 54, 98
4, 733077, Note_on_c, 0, 54, 0
4, 733077, Note_on_c, 0, 60, 0
4, 733077, Note_on_c, 0, 57, 0
4, 733077, Note_on_c, 0, 50, 0
4, 733140, Note_on_c, 0, 50, 94
4, 733140, Note_on_c, 0, 54, 94
4, 733140, Note_on_c, 0, 60, 94
4, 733140, Note_on_c, 0, 57, 94
4, 733179, Note_on_c, 0, 57, 0
4, 733179, Note_on_c, 0, 50, 0
4, 733179, Note_on_c, 0, 54, 0
4, 733179, Note_on_c, 0, 60, 0
4, 733200, Note_on_c, 0, 60, 93
4, 733200, Note_on_c, 0, 50, 93
4, 733200, Note_on_c, 0, 54, 93
4, 733200, Note_on_c, 0, 57, 93
4, 733342, Note_on_c, 0, 60, 0
4, 733356, Note_on_c, 0, 50, 0
4, 733356, Note_on_c, 0, 54, 0
4, 733356, Note_on_c, 0, 57, 0
4, 733920, Note_on_c, 0, 59, 94
4, 733920, Note_on_c, 0, 55, 94
4, 733920, Note_on_c, 0, 50, 94
4, 734037, Note_on_c, 0, 50, 0
4, 734037, Note_on_c, 0, 55, 0
4, 734037, Note_on_c, 0, 59, 0
4, 734100, Note_on_c, 0, 55, 91
4, 734100, Note_on_c, 0, 50, 91
4, 734100, Note_on_c, 0, 59, 91
4, 734139, Note_on_c, 0, 59, 0
4, 734139, Note_on_c, 0, 50, 0
4, 734139, Note_on_c, 0, 55, 0
4, 734160, Note_on_c, 0, 55, 90
4, 734160, Note_on_c, 0, 50, 90
4, 734160, Note_on_c, 0, 59, 90
4, 734316, Note_on_c, 0, 59, 0
4, 734316, Note_on_c, 0, 50, 0
4, 734316, Note_on_c, 0, 55, 0
4, 736800, Note_on_c, 0, 57, 80
4, 736800, Note_on_c, 0, 62, 80
4, 736917, Note_on_c, 0, 62, 0
4, 736917, Note_on_c, 0, 57, 0
4, 736980, Note_on_c, 0, 57, 77
4, 736980, Note_on_c, 0, 62, 77
4, 737019, Note_on_c, 0, 62, 0
4, 737019, Note_on_c, 0, 57, 0
4, 737040, Note_on_c, 0, 57, 76
4, 737040, Note_on_c, 0, 62, 76
4, 737196, Note_on_c, 0, 62, 0
4, 737196, Note_on_c, 0, 57, 0
4, 737760, Note_on_c, 0, 55, 71
4, 737760, Note_on_c, 0, 62, 71
4, 737760, Note_on_c, 0, 59, 71
4, 737877, Note_on_c, 0, 59, 0
4, 737877, Note_on_c, 0, 62, 0
4, 737877, Note_on_c, 0, 55, 0
4, 737940, Note_on_c, 0, 59, 70
4, 737940, Note_on_c, 0, 62, 70
4, 737940, Note_on_c, 0, 55, 70
4, 737979, Note_on_c, 0, 55, 0
4, 737979, Note_on_c, 0, 62, 0
4, 737979, Note_on_c, 0, 59, 0
4, 738000, Note_on_c, 0, 55, 69
4, 738000, Note_on_c, 0, 59, 69
4, 738000, Note_on_c, 0, 62, 69
4, 738156, Note_on_c, 0, 62, 0
4, 738156, Note_on_c, 0, 59, 0
4, 738156, Note_on_c, 0, 55, 0
4, 738720, Note_on_c, 0, 62, 65
4, 738720, Note_on_c, 0, 66, 65
4, 738876, Note_on_c, 0, 66, 0
4, 738876, Note_on_c, 0, 62, 0
4, 739200, Note_on_c, 0, 67, 63
4, 739200, Note_on_c, 0, 64, 63
4, 739356, Note_on_c, 0, 64, 0
4, 739356, Note_on_c, 0, 67, 0
4, 739680, Note_on_c, 0, 66, 60
4, 739836, Note_on_c, 0, 66, 0
4, 739920, Note_on_c, 0, 66, 59
4, 740076, Note_on_c, 0, 66, 0
4, 740160, Note_on_c, 0, 66, 57
4, 740238, Note_on_c, 0, 66, 0
4, 740760, Note_on_c, 0, 50, 62
4, 740808, Note_on_c, 0, 50, 0
4, 740880, Note_on_c, 0, 45, 63
4, 740928, Note_on_c, 0, 45, 0
4, 741000, Note_on_c, 0, 50, 64
4, 741048, Note_on_c, 0, 50, 0
4, 741240, Note_on_c, 0, 49, 66
4, 741288, Note_on_c, 0, 49, 0
4, 741360, Note_on_c, 0, 45, 68
4, 741408, Note_on_c, 0, 45, 0
4, 741480, Note_on_c, 0, 49, 69
4, 741528, Note_on_c, 0, 49, 0
4, 741720, Note_on_c, 0, 50, 68
4, 741768, Note_on_c, 0, 50, 0
4, 741840, Note_on_c, 0, 45, 67
4, 741888, Note_on_c, 0, 45, 0
4, 741960, Note_on_c, 0, 50, 65
4, 742008, Note_on_c, 0, 50, 0
4, 742200, Note_on_c, 0, 50, 64
4, 742248, Note_on_c, 0, 50, 0
4, 742440, Note_on_c, 0, 53, 66
4, 742488, Note_on_c, 0, 53, 0
4, 742680, Note_on_c, 0, 58, 68
4, 742728, Note_on_c, 0, 58, 0
4, 742920, Note_on_c, 0, 57, 71
4, 742968, Note_on_c, 0, 57, 0
4, 743160, Note_on_c, 0, 55, 73
4, 743208, Note_on_c, 0, 55, 0
4, 743400, Note_on_c, 0, 56, 75
4, 743448, Note_on_c, 0, 56, 0
4, 743640, Note_on_c, 0, 57, 69
4, 743688, Note_on_c, 0, 57, 0
4, 743760, Note_on_c, 0, 56, 68
4, 743808, Note_on_c, 0, 56, 0
4, 743880, Note_on_c, 0, 57, 66
4, 743928, Note_on_c, 0, 57, 0
4, 744120, Note_on_c, 0, 57, 63
4, 744168, Note_on_c, 0, 57, 0
4, 744360, Note_on_c, 0, 55, 61
4, 744408, Note_on_c, 0, 55, 0
4, 744600, Note_on_c, 0, 53, 64
4, 744648, Note_on_c, 0, 53, 0
4, 744720, Note_on_c, 0, 48, 66
4, 744768, Note_on_c, 0, 48, 0
4, 744840, Note_on_c, 0, 53, 68
4, 744888, Note_on_c, 0, 53, 0
4, 745080, Note_on_c, 0, 52, 71
4, 745128, Note_on_c, 0, 52, 0
4, 745200, Note_on_c, 0, 48, 73
4, 745248, Note_on_c, 0, 48, 0
4, 745320, Note_on_c, 0, 52, 74
4, 745368, Note_on_c, 0, 52, 0
4, 745560, Note_on_c, 0, 53, 73
4, 745608, Note_on_c, 0, 53, 0
4, 745680, Note_on_c, 0, 48, 69
4, 745728, Note_on_c, 0, 48, 0
4, 745800, Note_on_c, 0, 53, 66
4, 745848, Note_on_c, 0, 53, 0
4, 746040, Note_on_c, 0, 53, 67
4, 746088, Note_on_c, 0, 53, 0
4, 746280, Note_on_c, 0, 50, 74
4, 746328, Note_on_c, 0, 50, 0
4, 746520, Note_on_c, 0, 52, 64
4, 746568, Note_on_c, 0, 52, 0
4, 746640, Note_on_c, 0, 45, 66
4, 746688, Note_on_c, 0, 45, 0
4, 746760, Note_on_c, 0, 52, 68
4, 746808, Note_on_c, 0, 52, 0
4, 747000, Note_on_c, 0, 52, 72
4, 747048, Note_on_c, 0, 52, 0
4, 747120, Note_on_c, 0, 47, 74
4, 747168, Note_on_c, 0, 47, 0
4, 747240, Note_on_c, 0, 52, 75
4, 747288, Note_on_c, 0, 52, 0
4, 747480, Note_on_c, 0, 45, 59
4, 747600, Note_on_c, 0, 45, 0
4, 747720, Note_on_c, 0, 46, 63
4, 747840, Note_on_c, 0, 46, 0
4, 747960, Note_on_c, 0, 45, 66
4, 748080, Note_on_c, 0, 45, 0
4, 748200, Note_on_c, 0, 49, 70
4, 748320, Note_on_c, 0, 49, 0
4, 748440, Note_on_c, 0, 50, 57
4, 748488, Note_on_c, 0, 50, 0
4, 748560, Note_on_c, 0, 45, 58
4, 748608, Note_on_c, 0, 45, 0
4, 748680, Note_on_c, 0, 50, 58
4, 748728, Note_on_c, 0, 50, 0
4, 748920, Note_on_c, 0, 49, 60
4, 748968, Note_on_c, 0, 49, 0
4, 749040, Note_on_c, 0, 45, 60
4, 749088, Note_on_c, 0, 45, 0
4, 749160, Note_on_c, 0, 49, 61
4, 749208, Note_on_c, 0, 49, 0
4, 749400, Note_on_c, 0, 50, 62
4, 749448, Note_on_c, 0, 50, 0
4, 749520, Note_on_c, 0, 45, 63
4, 749568, Note_on_c, 0, 45, 0
4, 749640, Note_on_c, 0, 50, 63
4, 749688, Note_on_c, 0, 50, 0
4, 749880, Note_on_c, 0, 50, 64
4, 749928, Note_on_c, 0, 50, 0
4, 750120, Note_on_c, 0, 53, 66
4, 750168, Note_on_c, 0, 53, 0
4, 750360, Note_on_c, 0, 58, 66
4, 750408, Note_on_c, 0, 58, 0
4, 750600, Note_on_c, 0, 57, 69
4, 750648, Note_on_c, 0, 57, 0
4, 750840, Note_on_c, 0, 55, 73
4, 750888, Note_on_c, 0, 55, 0
4, 751080, Note_on_c, 0, 56, 75
4, 751128, Note_on_c, 0, 56, 0
4, 751320, Note_on_c, 0, 57, 69
4, 751368, Note_on_c, 0, 57, 0
4, 751440, Note_on_c, 0, 50, 67
4, 751488, Note_on_c, 0, 50, 0
4, 751560, Note_on_c, 0, 57, 66
4, 751608, Note_on_c, 0, 57, 0
4, 751800, Note_on_c, 0, 57, 63
4, 751848, Note_on_c, 0, 57, 0
4, 752040, Note_on_c, 0, 55, 60
4, 752088, Note_on_c, 0, 55, 0
4, 752280, Note_on_c, 0, 53, 58
4, 752400, Note_on_c, 0, 53, 0
4, 752400, Note_on_c, 0, 48, 59
4, 752520, Note_on_c, 0, 48, 0
4, 752520, Note_on_c, 0, 53, 60
4, 752640, Note_on_c, 0, 53, 0
4, 752760, Note_on_c, 0, 52, 62
4, 752880, Note_on_c, 0, 52, 0
4, 752880, Note_on_c, 0, 48, 63
4, 753000, Note_on_c, 0, 48, 0
4, 753000, Note_on_c, 0, 52, 64
4, 753120, Note_on_c, 0, 52, 0
4, 753240, Note_on_c, 0, 53, 65
4, 753360, Note_on_c, 0, 53, 0
4, 753360, Note_on_c, 0, 48, 66
4, 753480, Note_on_c, 0, 48, 0
4, 753480, Note_on_c, 0, 53, 67
4, 753600, Note_on_c, 0, 53, 0
4, 753720, Note_on_c, 0, 53, 69
4, 753840, Note_on_c, 0, 53, 0
4, 753960, Note_on_c, 0, 50, 71
4, 754080, Note_on_c, 0, 50, 0
4, 754200, Note_on_c, 0, 52, 73
4, 754320, Note_on_c, 0, 52, 0
4, 754320, Note_on_c, 0, 45, 75
4, 754440, Note_on_c, 0, 45, 0
4, 754440, Note_on_c, 0, 52, 76
4, 754560, Note_on_c, 0, 52, 0
4, 754680, Note_on_c, 0, 52, 80
4, 754800, Note_on_c, 0, 52, 0
4, 754800, Note_on_c, 0, 47, 82
4, 754920, Note_on_c, 0, 47, 0
4, 754920, Note_on_c, 0, 52, 82
4, 755040, Note_on_c, 0, 52, 0
4, 755160, Note_on_c, 0, 45, 65
4, 755280, Note_on_c, 0, 45, 0
4, 755400, Note_on_c, 0, 46, 71
4, 755520, Note_on_c, 0, 46, 0
4, 755640, Note_on_c, 0, 45, 76
4, 755760, Note_on_c, 0, 45, 0
4, 755880, Note_on_c, 0, 44, 82
4, 756000, Note_on_c, 0, 44, 0
4, 756000, Note_on_c, 0, 45, 59
4, 756120, Note_on_c, 0, 57, 61
4, 756240, Note_on_c, 0, 57, 0
4, 756240, Note_on_c, 0, 57, 63
4, 756360, Note_on_c, 0, 57, 0
4, 756360, Note_on_c, 0, 57, 65
4, 756480, Note_on_c, 0, 57, 0
4, 756480, Note_on_c, 0, 57, 68
4, 756600, Note_on_c, 0, 57, 0
4, 756600, Note_on_c, 0, 57, 66
4, 756720, Note_on_c, 0, 57, 0
4, 756720, Note_on_c, 0, 57, 65
4, 756840, Note_on_c, 0, 57, 0
4, 756840, Note_on_c, 0, 57, 63
4, 756960, Note_on_c, 0, 57, 0
4, 756960, Note_on_c, 0, 57, 61
4, 757080, Note_on_c, 0, 57, 0
4, 757080, Note_on_c, 0, 57, 66
4, 757200, Note_on_c, 0, 57, 0
4, 757200, Note_on_c, 0, 57, 72
4, 757320, Note_on_c, 0, 57, 0
4, 757320, Note_on_c, 0, 57, 71
4, 757434, Note_on_c, 0, 45, 0
4, 757440, Note_on_c, 0, 57, 0
4, 757440, Note_on_c, 0, 57, 69
4, 757560, Note_on_c, 0, 57, 0
4, 757560, Note_on_c, 0, 57, 68
4, 757680, Note_on_c, 0, 57, 0
4, 757680, Note_on_c, 0, 57, 66
4, 757800, Note_on_c, 0, 57, 0
4, 757800, Note_on_c, 0, 57, 65
4, 757920, Note_on_c, 0, 57, 0
4, 757920, Note_on_c, 0, 57, 63
4, 758040, Note_on_c, 0, 57, 0
4, 758040, Note_on_c, 0, 57, 65
4, 758160, Note_on_c, 0, 57, 0
4, 758160, Note_on_c, 0, 57, 67
4, 758280, Note_on_c, 0, 57, 0
4, 758280, Note_on_c, 0, 57, 68
4, 758400, Note_on_c, 0, 57, 0
4, 758400, Note_on_c, 0, 57, 70
4, 758520, Note_on_c, 0, 57, 0
4, 758520, Note_on_c, 0, 57, 71
4, 758640, Note_on_c, 0, 57, 0
4, 758640, Note_on_c, 0, 57, 73
4, 758760, Note_on_c, 0, 57, 0
4, 758760, Note_on_c, 0, 57, 74
4, 758880, Note_on_c, 0, 57, 0
4, 758880, Note_on_c, 0, 57, 76
4, 759000, Note_on_c, 0, 57, 0
4, 759000, Note_on_c, 0, 57, 71
4, 759120, Note_on_c, 0, 57, 0
4, 759120, Note_on_c, 0, 57, 78
4, 759240, Note_on_c, 0, 57, 0
4, 759240, Note_on_c, 0, 57, 77
4, 759360, Note_on_c, 0, 57, 0
4, 759360, Note_on_c, 0, 57, 75
4, 759480, Note_on_c, 0, 57, 0
4, 759480, Note_on_c, 0, 57, 74
4, 759600, Note_on_c, 0, 57, 0
4, 759600, Note_on_c, 0, 57, 72
4, 759720, Note_on_c, 0, 57, 0
4, 759720, Note_on_c, 0, 57, 71
4, 759840, Note_on_c, 0, 57, 0
4, 759840, Note_on_c, 0, 57, 70
4, 759960, Note_on_c, 0, 57, 0
4, 759960, Note_on_c, 0, 57, 73
4, 760080, Note_on_c, 0, 57, 0
4, 760080, Note_on_c, 0, 57, 80
4, 760200, Note_on_c, 0, 57, 0
4, 760200, Note_on_c, 0, 57, 79
4, 760320, Note_on_c, 0, 57, 0
4, 760320, Note_on_c, 0, 57, 78
4, 760440, Note_on_c, 0, 57, 0
4, 760440, Note_on_c, 0, 57, 77
4, 760560, Note_on_c, 0, 57, 0
4, 760560, Note_on_c, 0, 57, 75
4, 760680, Note_on_c, 0, 57, 0
4, 760680, Note_on_c, 0, 57, 74
4, 760800, Note_on_c, 0, 57, 0
4, 760800, Note_on_c, 0, 57, 73
4, 760920, Note_on_c, 0, 57, 0
4, 760920, Note_on_c, 0, 57, 80
4, 761040, Note_on_c, 0, 57, 0
4, 761040, Note_on_c, 0, 57, 88
4, 761160, Note_on_c, 0, 57, 0
4, 761160, Note_on_c, 0, 57, 84
4, 761280, Note_on_c, 0, 57, 0
4, 761280, Note_on_c, 0, 57, 77
4, 761400, Note_on_c, 0, 57, 0
4, 761400, Note_on_c, 0, 57, 81
4, 761520, Note_on_c, 0, 57, 0
4, 761520, Note_on_c, 0, 57, 87
4, 761640, Note_on_c, 0, 57, 0
4, 761640, Note_on_c, 0, 57, 83
4, 761760, Note_on_c, 0, 57, 0
4, 761760, Note_on_c, 0, 57, 79
4, 762240, Note_on_c, 0, 57, 0
4, 763800, Note_on_c, 0, 50, 60
4, 763848, Note_on_c, 0, 50, 0
4, 763920, Note_on_c, 0, 45, 61
4, 763968, Note_on_c, 0, 45, 0
4, 764040, Note_on_c, 0, 50, 62
4, 764088, Note_on_c, 0, 50, 0
4, 764280, Note_on_c, 0, 49, 65
4, 764328, Note_on_c, 0, 49, 0
4, 764400, Note_on_c, 0, 45, 66
4, 764448, Note_on_c, 0, 45, 0
4, 764520, Note_on_c, 0, 49, 67
4, 764568, Note_on_c, 0, 49, 0
4, 764760, Note_on_c, 0, 50, 66
4, 764808, Note_on_c, 0, 50, 0
4, 764880, Note_on_c, 0, 45, 64
4, 764928, Note_on_c, 0, 45, 0
4, 765000, Note_on_c, 0, 50, 63
4, 765048, Note_on_c, 0, 50, 0
4, 765240, Note_on_c, 0, 50, 59
4, 765288, Note_on_c, 0, 50, 0
4, 765480, Note_on_c, 0, 47, 71
4, 765528, Note_on_c, 0, 47, 0
4, 765720, Note_on_c, 0, 48, 68
4, 765768, Note_on_c, 0, 48, 0
4, 765840, Note_on_c, 0, 43, 67
4, 765888, Note_on_c, 0, 43, 0
4, 765960, Note_on_c, 0, 48, 66
4, 766008, Note_on_c, 0, 48, 0
4, 766200, Note_on_c, 0, 48, 64
4, 766248, Note_on_c, 0, 48, 0
4, 766440, Note_on_c, 0, 49, 79
4, 766488, Note_on_c, 0, 49, 0
4, 766680, Note_on_c, 0, 50, 76
4, 766728, Note_on_c, 0, 50, 0
4, 766800, Note_on_c, 0, 45, 75
4, 766848, Note_on_c, 0, 45, 0
4, 766920, Note_on_c, 0, 50, 74
4, 766968, Note_on_c, 0, 50, 0
4, 767160, Note_on_c, 0, 50, 71
4, 767208, Note_on_c, 0, 50, 0
4, 767400, Note_on_c, 0, 54, 85
4, 767448, Note_on_c, 0, 54, 0
4, 767640, Note_on_c, 0, 55, 82
4, 767688, Note_on_c, 0, 55, 0
4, 767880, Note_on_c, 0, 58, 79
4, 767928, Note_on_c, 0, 58, 0
4, 768120, Note_on_c, 0, 57, 76
4, 768168, Note_on_c, 0, 57, 0
4, 768360, Note_on_c, 0, 45, 73
4, 768408, Note_on_c, 0, 45, 0
4, 768600, Note_on_c, 0, 50, 66
4, 768648, Note_on_c, 0, 50, 0
4, 768720, Note_on_c, 0, 45, 63
4, 768768, Note_on_c, 0, 45, 0
4, 768840, Note_on_c, 0, 50, 60
4, 768888, Note_on_c, 0, 50, 0
4, 769080, Note_on_c, 0, 57, 57
4, 769128, Note_on_c, 0, 57, 0
4, 769200, Note_on_c, 0, 53, 57
4, 769248, Note_on_c, 0, 53, 0
4, 769320, Note_on_c, 0, 50, 57
4, 769368, Note_on_c, 0, 50, 0
4, 769440, Note_on_c, 0, 45, 59
4, 769560, Note_on_c, 0, 57, 61
4, 769680, Note_on_c, 0, 57, 0
4, 769680, Note_on_c, 0, 57, 63
4, 769800, Note_on_c, 0, 57, 0
4, 769800, Note_on_c, 0, 57, 65
4, 769920, Note_on_c, 0, 57, 0
4, 769920, Note_on_c, 0, 57, 68
4, 770040, Note_on_c, 0, 57, 0
4, 770040, Note_on_c, 0, 57, 66
4, 770160, Note_on_c, 0, 57, 0
4, 770160, Note_on_c, 0, 57, 65
4, 770280, Note_on_c, 0, 57, 0
4, 770280, Note_on_c, 0, 57, 63
4, 770400, Note_on_c, 0, 57, 0
4, 770400, Note_on_c, 0, 57, 61
4, 770520, Note_on_c, 0, 57, 0
4, 770520, Note_on_c, 0, 57, 66
4, 770640, Note_on_c, 0, 57, 0
4, 770640, Note_on_c, 0, 57, 72
4, 770760, Note_on_c, 0, 57, 0
4, 770760, Note_on_c, 0, 57, 71
4, 770880, Note_on_c, 0, 57, 0
4, 770880, Note_on_c, 0, 57, 69
4, 771000, Note_on_c, 0, 57, 0
4, 771000, Note_on_c, 0, 45, 0
4, 771000, Note_on_c, 0, 57, 68
4, 771120, Note_on_c, 0, 57, 0
4, 771120, Note_on_c, 0, 57, 66
4, 771240, Note_on_c, 0, 57, 0
4, 771240, Note_on_c, 0, 57, 65
4, 771360, Note_on_c, 0, 57, 0
4, 771360, Note_on_c, 0, 57, 65
4, 771420, Note_on_c, 0, 57, 0
4, 771420, Note_on_c, 0, 60, 66
4, 771480, Note_on_c, 0, 60, 0
4, 771480, Note_on_c, 0, 61, 67
4, 771540, Note_on_c, 0, 61, 0
4, 771540, Note_on_c, 0, 60, 69
4, 771600, Note_on_c, 0, 60, 0
4, 771600, Note_on_c, 0, 61, 70
4, 771660, Note_on_c, 0, 61, 0
4, 771660, Note_on_c, 0, 63, 71
4, 771720, Note_on_c, 0, 63, 0
4, 771720, Note_on_c, 0, 64, 72
4, 771780, Note_on_c, 0, 64, 0
4, 771780, Note_on_c, 0, 63, 73
4, 771840, Note_on_c, 0, 63, 0
4, 771840, Note_on_c, 0, 64, 74
4, 771900, Note_on_c, 0, 64, 0
4, 771900, Note_on_c, 0, 66, 75
4, 771960, Note_on_c, 0, 66, 0
4, 771960, Note_on_c, 0, 67, 76
4, 772020, Note_on_c, 0, 67, 0
4, 772020, Note_on_c, 0, 66, 77
4, 772080, Note_on_c, 0, 66, 0
4, 772080, Note_on_c, 0, 67, 79
4, 772140, Note_on_c, 0, 67, 0
4, 772140, Note_on_c, 0, 65, 76
4, 772200, Note_on_c, 0, 65, 0
4, 772200, Note_on_c, 0, 64, 74
4, 772260, Note_on_c, 0, 64, 0
4, 772260, Note_on_c, 0, 62, 72
4, 772320, Note_on_c, 0, 62, 0
4, 772320, Note_on_c, 0, 57, 70
4, 772440, Note_on_c, 0, 57, 0
4, 772440, Note_on_c, 0, 57, 69
4, 772560, Note_on_c, 0, 57, 0
4, 772560, Note_on_c, 0, 57, 72
4, 772680, Note_on_c, 0, 57, 0
4, 772680, Note_on_c, 0, 57, 75
4, 772800, Note_on_c, 0, 57, 0
4, 772800, Note_on_c, 0, 57, 75
4, 772920, Note_on_c, 0, 57, 0
4, 772920, Note_on_c, 0, 57, 74
4, 773040, Note_on_c, 0, 57, 0
4, 773040, Note_on_c, 0, 57, 72
4, 773160, Note_on_c, 0, 57, 0
4, 773160, Note_on_c, 0, 57, 71
4, 773280, Note_on_c, 0, 57, 0
4, 773280, Note_on_c, 0, 57, 70
4, 773400, Note_on_c, 0, 57, 0
4, 773400, Note_on_c, 0, 57, 73
4, 773520, Note_on_c, 0, 57, 0
4, 773520, Note_on_c, 0, 57, 80
4, 773640, Note_on_c, 0, 57, 0
4, 773640, Note_on_c, 0, 57, 79
4, 773760, Note_on_c, 0, 57, 0
4, 773760, Note_on_c, 0, 57, 78
4, 773880, Note_on_c, 0, 57, 0
4, 773880, Note_on_c, 0, 57, 77
4, 774000, Note_on_c, 0, 57, 0
4, 774000, Note_on_c, 0, 57, 75
4, 774120, Note_on_c, 0, 57, 0
4, 774120, Note_on_c, 0, 57, 74
4, 774240, Note_on_c, 0, 57, 0
4, 774240, Note_on_c, 0, 57, 73
4, 774360, Note_on_c, 0, 57, 0
4, 774360, Note_on_c, 0, 57, 80
4, 774480, Note_on_c, 0, 57, 0
4, 774480, Note_on_c, 0, 57, 88
4, 774600, Note_on_c, 0, 57, 0
4, 774600, Note_on_c, 0, 57, 84
4, 774720, Note_on_c, 0, 57, 0
4, 774720, Note_on_c, 0, 57, 77
4, 774840, Note_on_c, 0, 57, 0
4, 774840, Note_on_c, 0, 57, 81
4, 774960, Note_on_c, 0, 57, 0
4, 774960, Note_on_c, 0, 57, 87
4, 775080, Note_on_c, 0, 57, 0
4, 775080, Note_on_c, 0, 57, 83
4, 775200, Note_on_c, 0, 57, 0
4, 775200, Note_on_c, 0, 57, 79
4, 775440, Note_on_c, 0, 57, 0
4, 777240, Note_on_c, 0, 50, 73
4, 777360, Note_on_c, 0, 45, 74
4, 777384, Note_on_c, 0, 50, 0
4, 777480, Note_on_c, 0, 50, 74
4, 777600, Note_on_c, 0, 50, 0
4, 777612, Note_on_c, 0, 45, 0
4, 777720, Note_on_c, 0, 49, 75
4, 777840, Note_on_c, 0, 45, 75
4, 777876, Note_on_c, 0, 49, 0
4, 777960, Note_on_c, 0, 49, 76
4, 778080, Note_on_c, 0, 49, 0
4, 778092, Note_on_c, 0, 45, 0
4, 778200, Note_on_c, 0, 50, 77
4, 778320, Note_on_c, 0, 45, 77
4, 778404, Note_on_c, 0, 50, 0
4, 778440, Note_on_c, 0, 50, 78
4, 778560, Note_on_c, 0, 50, 0
4, 778572, Note_on_c, 0, 45, 0
4, 778680, Note_on_c, 0, 50, 79
4, 778800, Note_on_c, 0, 50, 0
4, 778920, Note_on_c, 0, 47, 79
4, 779040, Note_on_c, 0, 47, 0
4, 779160, Note_on_c, 0, 48, 80
4, 779280, Note_on_c, 0, 48, 0
4, 779280, Note_on_c, 0, 43, 81
4, 779400, Note_on_c, 0, 48, 81
4, 779508, Note_on_c, 0, 43, 0
4, 779520, Note_on_c, 0, 48, 0
4, 779640, Note_on_c, 0, 48, 82
4, 779760, Note_on_c, 0, 48, 0
4, 779880, Note_on_c, 0, 49, 83
4, 780000, Note_on_c, 0, 49, 0
4, 780120, Note_on_c, 0, 50, 84
4, 780240, Note_on_c, 0, 50, 0
4, 780240, Note_on_c, 0, 45, 85
4, 780360, Note_on_c, 0, 50, 85
4, 780456, Note_on_c, 0, 45, 0
4, 780480, Note_on_c, 0, 50, 0
4, 780600, Note_on_c, 0, 50, 87
4, 780720, Note_on_c, 0, 50, 0
4, 780840, Note_on_c, 0, 53, 88
4, 780960, Note_on_c, 0, 53, 0
4, 781080, Note_on_c, 0, 55, 89
4, 781200, Note_on_c, 0, 55, 0
4, 781320, Note_on_c, 0, 58, 90
4, 781440, Note_on_c, 0, 58, 0
4, 781560, Note_on_c, 0, 53, 92
4, 781560, Note_on_c, 0, 57, 92
4, 781680, Note_on_c, 0, 57, 0
4, 781680, Note_on_c, 0, 53, 0
4, 781800, Note_on_c, 0, 55, 93
4, 781800, Note_on_c, 0, 52, 93
4, 781920, Note_on_c, 0, 52, 0
4, 781920, Note_on_c, 0, 55, 0
4, 782040, Note_on_c, 0, 64, 97
4, 782040, Note_on_c, 0, 55, 97
4, 782160, Note_on_c, 0, 55, 0
4, 782160, Note_on_c, 0, 64, 0
4, 782280, Note_on_c, 0, 64, 100
4, 782280, Note_on_c, 0, 55, 100
4, 782400, Note_on_c, 0, 55, 0
4, 782400, Note_on_c, 0, 64, 0
4, 782400, Note_on_c, 0, 53, 102
4, 782400, Note_on_c, 0, 62, 102
4, 782460, Note_on_c, 0, 62, 0
4, 782460, Note_on_c, 0, 53, 0
4, 782880, Note_on_c, 0, 53, 66
4, 783360, Note_on_c, 0, 53, 0
4, 783360, Note_on_c, 0, 52, 63
4, 783840, Note_on_c, 0, 52, 0
4, 783840, Note_on_c, 0, 53, 66
4, 784440, Note_on_c, 0, 53, 0
4, 784560, Note_on_c, 0, 50, 59
4, 784752, Note_on_c, 0, 50, 0
4, 784800, Note_on_c, 0, 50, 61
4, 784992, Note_on_c, 0, 50, 0
4, 785040, Note_on_c, 0, 50, 65
4, 785232, Note_on_c, 0, 50, 0
4, 785280, Note_on_c, 0, 50, 68
4, 785472, Note_on_c, 0, 50, 0
4, 785520, Note_on_c, 0, 50, 72
4, 785712, Note_on_c, 0, 50, 0
4, 785760, Note_on_c, 0, 50, 63
4, 786607, Note_on_c, 0, 50, 0
4, 786720, Note_on_c, 0, 50, 66
4, 786912, Note_on_c, 0, 50, 0
4, 786960, Note_on_c, 0, 50, 71
4, 787152, Note_on_c, 0, 50, 0
4, 787200, Note_on_c, 0, 50, 76
4, 787392, Note_on_c, 0, 50, 0
4, 787440, Note_on_c, 0, 50, 81
4, 787632, Note_on_c, 0, 50, 0
4, 787680, Note_on_c, 0, 50, 72
4, 788527, Note_on_c, 0, 50, 0
4, 788640, Note_on_c, 0, 45, 59
4, 788757, Note_on_c, 0, 45, 0
4, 788820, Note_on_c, 0, 45, 57
4, 788859, Note_on_c, 0, 45, 0
4, 788880, Note_on_c, 0, 45, 56
4, 789000, Note_on_c, 0, 45, 0
4, 789600, Note_on_c, 0, 50, 74
4, 789600, Note_on_c, 0, 53, 74
4, 789717, Note_on_c, 0, 53, 0
4, 789717, Note_on_c, 0, 50, 0
4, 789780, Note_on_c, 0, 50, 72
4, 789780, Note_on_c, 0, 53, 72
4, 789819, Note_on_c, 0, 53, 0
4, 789819, Note_on_c, 0, 50, 0
4, 789840, Note_on_c, 0, 50, 71
4, 789840, Note_on_c, 0, 53, 71
4, 789960, Note_on_c, 0, 53, 0
4, 789965, Note_on_c, 0, 50, 0
4, 790560, Note_on_c, 0, 55, 91
4, 790560, Note_on_c, 0, 52, 91
4, 790560, Note_on_c, 0, 49, 91
4, 790677, Note_on_c, 0, 49, 0
4, 790677, Note_on_c, 0, 52, 0
4, 790677, Note_on_c, 0, 55, 0
4, 790740, Note_on_c, 0, 52, 88
4, 790740, Note_on_c, 0, 49, 88
4, 790740, Note_on_c, 0, 55, 88
4, 790779, Note_on_c, 0, 55, 0
4, 790779, Note_on_c, 0, 49, 0
4, 790779, Note_on_c, 0, 52, 0
4, 790800, Note_on_c, 0, 49, 86
4, 790800, Note_on_c, 0, 52, 86
4, 790800, Note_on_c, 0, 55, 86
4, 790920, Note_on_c, 0, 55, 0
4, 790920, Note_on_c, 0, 52, 0
4, 790925, Note_on_c, 0, 49, 0
4, 797280, Note_on_c, 0, 45, 56
4, 798470, Note_on_c, 0, 45, 0
4, 798480, Note_on_c, 0, 45, 51
4, 799440, Note_on_c, 0, 45, 0
4, 800160, Control_c, 0, 10, 64
4, 800160, Control_c, 0, 91, 91
4, 800160, Control_c, 0, 93, 28
4, 800160, Control_c, 0, 64, 0
4, 800160, Control_c, 0, 1, 0
4, 800160, Pitch_bend_c, 0, 8192
4, 800880, Control_c, 0, 64, 127
4, 802320, Note_on_c, 0, 54, 63
4, 803760, Note_on_c, 0, 54, 0
4, 803760, Control_c, 0, 64, 0
4, 806640, Control_c, 0, 64, 127
4, 808080, Note_on_c, 0, 57, 79
4, 809520, Note_on_c, 0, 57, 0
4, 809520, Control_c, 0, 64, 0
4, 812400, Control_c, 0, 64, 127
4, 813840, Note_on_c, 0, 50, 96
4, 813840, Note_on_c, 0, 54, 96
4, 814560, Note_on_c, 0, 54, 0
4, 814560, Note_on_c, 0, 50, 0
4, 815280, Control_c, 0, 64, 0
4, 818160, Control_c, 0, 64, 127
4, 819600, Note_on_c, 0, 57, 109
4, 821040, Note_on_c, 0, 57, 0
4, 821040, Control_c, 0, 64, 0
4, 835440, Control_c, 0, 64, 127
4, 836880, Note_on_c, 0, 54, 67
4, 836880, Note_on_c, 0, 50, 67
4, 837600, Note_on_c, 0, 50, 0
4, 837600, Note_on_c, 0, 54, 0
4, 838320, Control_c, 0, 64, 0
4, 841200, Control_c, 0, 64, 127
4, 841920, Note_on_c, 0, 54, 118
4, 841920, Note_on_c, 0, 57, 118
4, 842640, Note_on_c, 0, 57, 0
4, 842640, Note_on_c, 0, 54, 0
4, 842640, Note_on_c, 0, 42, 113
4, 842640, Note_on_c, 0, 45, 113
4, 842640, Note_on_c, 0, 50, 113
4, 843360, Note_on_c, 0, 50, 0
4, 843360, Note_on_c, 0, 45, 0
4, 843360, Note_on_c, 0, 42, 0
4, 844080, Control_c, 0, 64, 0
4, 850560, Control_c, 0, 64, 0
4, 850680, Note_on_c, 0, 54, 62
4, 850800, Note_on_c, 0, 54, 0
4, 850920, Note_on_c, 0, 56, 65
4, 851040, Note_on_c, 0, 56, 0
4, 851160, Note_on_c, 0, 58, 67
4, 851280, Note_on_c, 0, 58, 0
4, 851400, Note_on_c, 0, 59, 69
4, 851520, Note_on_c, 0, 59, 0
4, 851640, Note_on_c, 0, 61, 72
4, 851760, Note_on_c, 0, 61, 0
4, 851880, Note_on_c, 0, 62, 74
4, 852000, Note_on_c, 0, 62, 0
4, 852120, Note_on_c, 0, 64, 75
4, 852240, Note_on_c, 0, 64, 0
4, 852360, Note_on_c, 0, 61, 72
4, 852480, Note_on_c, 0, 61, 0
4, 852600, Note_on_c, 0, 66, 70
4, 852720, Note_on_c, 0, 66, 0
4, 852840, Note_on_c, 0, 62, 67
4, 852960, Note_on_c, 0, 62, 0
4, 853080, Note_on_c, 0, 61, 65
4, 853200, Note_on_c, 0, 61, 0
4, 853320, Note_on_c, 0, 59, 62
4, 853440, Note_on_c, 0, 59, 0
4, 853560, Note_on_c, 0, 58, 61
4, 853680, Note_on_c, 0, 58, 0
4, 853800, Note_on_c, 0, 59, 62
4, 853920, Note_on_c, 0, 59, 0
4, 854040, Note_on_c, 0, 61, 64
4, 854160, Note_on_c, 0, 61, 0
4, 854280, Note_on_c, 0, 62, 65
4, 854400, Note_on_c, 0, 62, 0
4, 854520, Note_on_c, 0, 64, 67
4, 854640, Note_on_c, 0, 64, 0
4, 854760, Note_on_c, 0, 66, 69
4, 854880, Note_on_c, 0, 66, 0
4, 855000, Note_on_c, 0, 67, 70
4, 855120, Note_on_c, 0, 67, 0
4, 855240, Note_on_c, 0, 64, 68
4, 855360, Note_on_c, 0, 64, 0
4, 855480, Note_on_c, 0, 69, 67
4, 855600, Note_on_c, 0, 69, 0
4, 855720, Note_on_c, 0, 66, 66
4, 855840, Note_on_c, 0, 66, 0
4, 855960, Note_on_c, 0, 64, 64
4, 856080, Note_on_c, 0, 64, 0
4, 856200, Note_on_c, 0, 62, 63
4, 856320, Note_on_c, 0, 62, 0
4, 856320, Control_c, 0, 64, 0
4, 856440, Note_on_c, 0, 54, 62
4, 856560, Note_on_c, 0, 54, 0
4, 856680, Note_on_c, 0, 56, 65
4, 856800, Note_on_c, 0, 56, 0
4, 856920, Note_on_c, 0, 58, 67
4, 857040, Note_on_c, 0, 58, 0
4, 857160, Note_on_c, 0, 59, 69
4, 857280, Note_on_c, 0, 59, 0
4, 857400, Note_on_c, 0, 61, 72
4, 857520, Note_on_c, 0, 61, 0
4, 857640, Note_on_c, 0, 62, 74
4, 857760, Note_on_c, 0, 62, 0
4, 857880, Note_on_c, 0, 64, 75
4, 858000, Note_on_c, 0, 64, 0
4, 858120, Note_on_c, 0, 61, 72
4, 858240, Note_on_c, 0, 61, 0
4, 858360, Note_on_c, 0, 66, 70
4, 858480, Note_on_c, 0, 66, 0
4, 858600, Note_on_c, 0, 62, 67
4, 858720, Note_on_c, 0, 62, 0
4, 858840, Note_on_c, 0, 61, 65
4, 858960, Note_on_c, 0, 61, 0
4, 859080, Note_on_c, 0, 59, 62
4, 859200, Note_on_c, 0, 59, 0
4, 859320, Note_on_c, 0, 58, 61
4, 859440, Note_on_c, 0, 58, 0
4, 859560, Note_on_c, 0, 59, 62
4, 859680, Note_on_c, 0, 59, 0
4, 859800, Note_on_c, 0, 61, 64
4, 859920, Note_on_c, 0, 61, 0
4, 860040, Note_on_c, 0, 62, 65
4, 860160, Note_on_c, 0, 62, 0
4, 860280, Note_on_c, 0, 64, 67
4, 860400, Note_on_c, 0, 64, 0
4, 860520, Note_on_c, 0, 66, 69
4, 860640, Note_on_c, 0, 66, 0
4, 860760, Note_on_c, 0, 67, 70
4, 860880, Note_on_c, 0, 67, 0
4, 861000, Note_on_c, 0, 64, 68
4, 861120, Note_on_c, 0, 64, 0
4, 861240, Note_on_c, 0, 69, 67
4, 861360, Note_on_c, 0, 69, 0
4, 861480, Note_on_c, 0, 66, 66
4, 861600, Note_on_c, 0, 66, 0
4, 861720, Note_on_c, 0, 64, 64
4, 861840, Note_on_c, 0, 64, 0
4, 861960, Note_on_c, 0, 62, 63
4, 862080, Note_on_c, 0, 62, 0
4, 862200, Note_on_c, 0, 62, 61
4, 862320, Note_on_c, 0, 62, 0
4, 862320, Note_on_c, 0, 54, 62
4, 862440, Note_on_c, 0, 62, 63
4, 862560, Note_on_c, 0, 62, 0
4, 862560, Note_on_c, 0, 57, 64
4, 862680, Note_on_c, 0, 62, 64
4, 862790, Note_on_c, 0, 54, 0
4, 862800, Note_on_c, 0, 62, 0
4, 862800, Note_on_c, 0, 57, 0
4, 862920, Note_on_c, 0, 62, 66
4, 863040, Note_on_c, 0, 62, 0
4, 863040, Note_on_c, 0, 55, 66
4, 863160, Note_on_c, 0, 62, 67
4, 863280, Note_on_c, 0, 62, 0
4, 863280, Note_on_c, 0, 59, 68
4, 863400, Note_on_c, 0, 62, 68
4, 863510, Note_on_c, 0, 59, 0
4, 863520, Note_on_c, 0, 62, 0
4, 863520, Note_on_c, 0, 55, 0
4, 863640, Note_on_c, 0, 62, 70
4, 863760, Note_on_c, 0, 62, 0
4, 863760, Note_on_c, 0, 55, 69
4, 863880, Note_on_c, 0, 62, 68
4, 864000, Note_on_c, 0, 62, 0
4, 864000, Note_on_c, 0, 58, 68
4, 864120, Note_on_c, 0, 62, 67
4, 864230, Note_on_c, 0, 58, 0
4, 864230, Note_on_c, 0, 55, 0
4, 864240, Note_on_c, 0, 62, 0
4, 864360, Note_on_c, 0, 62, 66
4, 864480, Note_on_c, 0, 62, 0
4, 864480, Note_on_c, 0, 54, 65
4, 864600, Note_on_c, 0, 62, 65
4, 864720, Note_on_c, 0, 62, 0
4, 864720, Note_on_c, 0, 57, 64
4, 864840, Note_on_c, 0, 62, 64
4, 864950, Note_on_c, 0, 57, 0
4, 864950, Note_on_c, 0, 54, 0
4, 864960, Note_on_c, 0, 62, 0
4, 865080, Note_on_c, 0, 58, 63
4, 865200, Note_on_c, 0, 58, 0
4, 865200, Note_on_c, 0, 52, 64
4, 865320, Note_on_c, 0, 58, 65
4, 865440, Note_on_c, 0, 58, 0
4, 865440, Note_on_c, 0, 54, 65
4, 865560, Note_on_c, 0, 58, 66
4, 865680, Note_on_c, 0, 58, 0
4, 865680, Note_on_c, 0, 54, 0
4, 865680, Note_on_c, 0, 52, 0
4, 865800, Note_on_c, 0, 59, 67
4, 865920, Note_on_c, 0, 59, 0
4, 866040, Note_on_c, 0, 50, 68
4, 866160, Note_on_c, 0, 50, 0
4, 866280, Note_on_c, 0, 52, 69
4, 866400, Note_on_c, 0, 52, 0
4, 866520, Note_on_c, 0, 54, 69
4, 866640, Note_on_c, 0, 54, 0
4, 866760, Note_on_c, 0, 52, 68
4, 866880, Note_on_c, 0, 52, 0
4, 867000, Note_on_c, 0, 54, 66
4, 867120, Note_on_c, 0, 54, 0
4, 867480, Note_on_c, 0, 59, 63
4, 867600, Note_on_c, 0, 59, 0
4, 867720, Note_on_c, 0, 61, 64
4, 867840, Note_on_c, 0, 61, 0
4, 867960, Note_on_c, 0, 62, 66
4, 868080, Note_on_c, 0, 62, 0
4, 868200, Note_on_c, 0, 64, 68
4, 868320, Note_on_c, 0, 64, 0
4, 868440, Note_on_c, 0, 66, 70
4, 868560, Note_on_c, 0, 66, 0
4, 868680, Note_on_c, 0, 67, 72
4, 868800, Note_on_c, 0, 67, 0
4, 868800, Note_on_c, 0, 62, 73
4, 868920, Note_on_c, 0, 67, 74
4, 869040, Note_on_c, 0, 67, 0
4, 869160, Note_on_c, 0, 67, 76
4, 869260, Note_on_c, 0, 62, 0
4, 869280, Note_on_c, 0, 67, 0
4, 869400, Note_on_c, 0, 65, 79
4, 869520, Note_on_c, 0, 65, 0
4, 869520, Note_on_c, 0, 62, 80
4, 869640, Note_on_c, 0, 65, 81
4, 869760, Note_on_c, 0, 65, 0
4, 869880, Note_on_c, 0, 65, 83
4, 869990, Note_on_c, 0, 62, 0
4, 870000, Note_on_c, 0, 65, 0
4, 870120, Note_on_c, 0, 66, 85
4, 870240, Note_on_c, 0, 66, 0
4, 870240, Note_on_c, 0, 62, 86
4, 870360, Note_on_c, 0, 66, 87
4, 870480, Note_on_c, 0, 66, 0
4, 870600, Note_on_c, 0, 66, 89
4, 870720, Note_on_c, 0, 66, 0
4, 870720, Note_on_c, 0, 62, 0
4, 870720, Note_on_c, 0, 61, 94
4, 870840, Note_on_c, 0, 66, 93
4, 870960, Note_on_c, 0, 66, 0
4, 870960, Note_on_c, 0, 62, 92
4, 870970, Note_on_c, 0, 61, 0
4, 871080, Note_on_c, 0, 66, 91
4, 871200, Note_on_c, 0, 66, 0
4, 871200, Note_on_c, 0, 64, 89
4, 871210, Note_on_c, 0, 62, 0
4, 871320, Note_on_c, 0, 66, 88
4, 871440, Note_on_c, 0, 66, 0
4, 871440, Note_on_c, 0, 62, 87
4, 871450, Note_on_c, 0, 64, 0
4, 871560, Note_on_c, 0, 66, 86
4, 871680, Note_on_c, 0, 66, 0
4, 871680, Note_on_c, 0, 62, 0
4, 871800, Note_on_c, 0, 62, 83
4, 871920, Note_on_c, 0, 62, 0
4, 872040, Note_on_c, 0, 64, 81
4, 872160, Note_on_c, 0, 64, 0
4, 872280, Note_on_c, 0, 66, 78
4, 872400, Note_on_c, 0, 66, 0
4, 872520, Note_on_c, 0, 64, 76
4, 872640, Note_on_c, 0, 64, 0
4, 872760, Note_on_c, 0, 66, 74
4, 872880, Note_on_c, 0, 66, 0
4, 873000, Note_on_c, 0, 59, 71
4, 873120, Note_on_c, 0, 59, 0
4, 873120, Note_on_c, 0, 54, 70
4, 873240, Note_on_c, 0, 54, 0
4, 873240, Note_on_c, 0, 50, 69
4, 873360, Note_on_c, 0, 50, 0
4, 873360, Note_on_c, 0, 47, 68
4, 873600, Note_on_c, 0, 47, 0
4, 874320, Control_c, 0, 64, 127
4, 875760, Note_on_c, 0, 54, 63
4, 877200, Note_on_c, 0, 54, 0
4, 877200, Control_c, 0, 64, 0
4, 880080, Control_c, 0, 64, 127
4, 881520, Note_on_c, 0, 57, 79
4, 882960, Note_on_c, 0, 57, 0
4, 882960, Control_c, 0, 64, 0
4, 885840, Control_c, 0, 64, 127
4, 887280, Note_on_c, 0, 54, 96
4, 887280, Note_on_c, 0, 50, 96
4, 888000, Note_on_c, 0, 50, 0
4, 888000, Note_on_c, 0, 54, 0
4, 888720, Control_c, 0, 64, 0
4, 891600, Control_c, 0, 64, 127
4, 893040, Note_on_c, 0, 57, 109
4, 894480, Note_on_c, 0, 57, 0
4, 894480, Control_c, 0, 64, 0
4, 908880, Control_c, 0, 64, 127
4, 910320, Note_on_c, 0, 50, 67
4, 910320, Note_on_c, 0, 54, 67
4, 911040, Note_on_c, 0, 54, 0
4, 911040, Note_on_c, 0, 50, 0
4, 911760, Control_c, 0, 64, 0
4, 914640, Control_c, 0, 64, 127
4, 915360, Note_on_c, 0, 57, 118
4, 915360, Note_on_c, 0, 54, 118
4, 916080, Note_on_c, 0, 54, 0
4, 916080, Note_on_c, 0, 57, 0
4, 916080, Note_on_c, 0, 50, 113
4, 916080, Note_on_c, 0, 45, 113
4, 916080, Note_on_c, 0, 42, 113
4, 916800, Note_on_c, 0, 42, 0
4, 916800, Note_on_c, 0, 45, 0
4, 916800, Note_on_c, 0, 50, 0
4, 917520, Control_c, 0, 64, 0
4, 917520, End_track
5, 0, Start_track
5, 0, Title_t, "Piano"
5, 0, Program_c, 0, 0
5, 0, Control_c, 0, 7, 115
5, 0, Control_c, 0, 10, 45
5, 0, Control_c, 0, 91, 91
5, 0, Control_c, 0, 93, 28
5, 0, Sequencer_specific, 5, 5, 15, 9, 0, 64
5, 0, Sequencer_specific, 15, 5, 15, 6, 71, 101, 110, 101, 114, 97, 108, 32, 77, 73, 68, 73
5, 0, Program_c, 0, 0
5, 0, Pitch_bend_c, 0, 8192
5, 0, Control_c, 0, 1, 0
5, 0, Control_c, 0, 64, 0
5, 7200, Note_on_c, 0, 52, 63
5, 8640, Note_on_c, 0, 52, 0
5, 8640, Note_on_c, 0, 50, 66
5, 10080, Note_on_c, 0, 50, 0
5, 10080, Note_on_c, 0, 50, 68
5, 11520, Note_on_c, 0, 50, 0
5, 11520, Note_on_c, 0, 42, 71
5, 12960, Note_on_c, 0, 42, 0
5, 12960, Note_on_c, 0, 45, 73
5, 14400, Note_on_c, 0, 45, 0
5, 14400, Note_on_c, 0, 50, 69
5, 14988, Note_on_c, 0, 50, 0
5, 15840, Note_on_c, 0, 62, 62
5, 17280, Note_on_c, 0, 62, 0
5, 17280, Note_on_c, 0, 54, 59
5, 18720, Note_on_c, 0, 54, 0
5, 18720, Note_on_c, 0, 55, 61
5, 20160, Note_on_c, 0, 55, 0
5, 20160, Note_on_c, 0, 59, 63
5, 21600, Note_on_c, 0, 59, 0
5, 21600, Note_on_c, 0, 64, 65
5, 23040, Note_on_c, 0, 64, 0
5, 23040, Note_on_c, 0, 61, 67
5, 24480, Note_on_c, 0, 61, 0
5, 24480, Note_on_c, 0, 62, 70
5, 25920, Note_on_c, 0, 62, 0
5, 25920, Note_on_c, 0, 54, 72
5, 27360, Note_on_c, 0, 54, 0
5, 27360, Note_on_c, 0, 57, 74
5, 28800, Note_on_c, 0, 57, 0
5, 28800, Note_on_c, 0, 62, 65
5, 29160, Note_on_c, 0, 62, 0
5, 30240, Note_on_c, 0, 42, 71
5, 32160, Note_on_c, 0, 42, 0
5, 32160, Note_on_c, 0, 43, 77
5, 32640, Note_on_c, 0, 43, 0
5, 32640, Note_on_c, 0, 45, 79
5, 33120, Note_on_c, 0, 45, 0
5, 33120, Note_on_c, 0, 47, 84
5, 35520, Note_on_c, 0, 47, 0
5, 35520, Note_on_c, 0, 45, 83
5, 36000, Note_on_c, 0, 45, 0
5, 36000, Note_on_c, 0, 43, 79
5, 36960, Note_on_c, 0, 43, 0
5, 36960, Note_on_c, 0, 44, 84
5, 37440, Note_on_c, 0, 44, 0
5, 37440, Note_on_c, 0, 45, 76
5, 38400, Note_on_c, 0, 45, 0
5, 38400, Note_on_c, 0, 45, 81
5, 38880, Note_on_c, 0, 45, 0
5, 38880, Note_on_c, 0, 50, 74
5, 39360, Note_on_c, 0, 50, 0
5, 41760, Note_on_c, 0, 42, 76
5, 43680, Note_on_c, 0, 42, 0
5, 43680, Note_on_c, 0, 43, 85
5, 44160, Note_on_c, 0, 43, 0
5, 44160, Note_on_c, 0, 45, 87
5, 44640, Note_on_c, 0, 45, 0
5, 44640, Note_on_c, 0, 47, 92
5, 47040, Note_on_c, 0, 47, 0
5, 47040, Note_on_c, 0, 45, 91
5, 47520, Note_on_c, 0, 45, 0
5, 47520, Note_on_c, 0, 43, 89
5, 48480, Note_on_c, 0, 43, 0
5, 48480, Note_on_c, 0, 44, 93
5, 48960, Note_on_c, 0, 44, 0
5, 48960, Note_on_c, 0, 45, 88
5, 49920, Note_on_c, 0, 45, 0
5, 49920, Note_on_c, 0, 45, 91
5, 50400, Note_on_c, 0, 45, 0
5, 50400, Note_on_c, 0, 50, 86
5, 50880, Note_on_c, 0, 50, 0
5, 52800, Note_on_c, 0, 42, 93
5, 53280, Note_on_c, 0, 42, 0
5, 53280, Note_on_c, 0, 43, 91
5, 54240, Note_on_c, 0, 43, 0
5, 54240, Note_on_c, 0, 44, 97
5, 54720, Note_on_c, 0, 44, 0
5, 54720, Note_on_c, 0, 45, 92
5, 55680, Note_on_c, 0, 45, 0
5, 55680, Note_on_c, 0, 45, 100
5, 56160, Note_on_c, 0, 45, 0
5, 56160, Note_on_c, 0, 50, 94
5, 56520, Note_on_c, 0, 50, 0
5, 57600, Note_on_c, 0, 50, 96
5, 59040, Note_on_c, 0, 50, 0
5, 59040, Note_on_c, 0, 49, 86
5, 60480, Note_on_c, 0, 49, 0
5, 60480, Note_on_c, 0, 47, 80
5, 61920, Note_on_c, 0, 47, 0
5, 61920, Note_on_c, 0, 45, 74
5, 62400, Note_on_c, 0, 45, 0
5, 63360, Note_on_c, 0, 57, 88
5, 64800, Note_on_c, 0, 57, 0
5, 64800, Note_on_c, 0, 56, 72
5, 66240, Note_on_c, 0, 56, 0
5, 66240, Note_on_c, 0, 54, 68
5, 67680, Note_on_c, 0, 54, 0
5, 67680, Note_on_c, 0, 52, 63
5, 68160, Note_on_c, 0, 52, 0
5, 69120, Note_on_c, 0, 50, 84
5, 70560, Note_on_c, 0, 50, 0
5, 70560, Note_on_c, 0, 49, 72
5, 72000, Note_on_c, 0, 49, 0
5, 72000, Note_on_c, 0, 47, 68
5, 73440, Note_on_c, 0, 47, 0
5, 73440, Note_on_c, 0, 45, 63
5, 73920, Note_on_c, 0, 45, 0
5, 74880, Note_on_c, 0, 57, 82
5, 76320, Note_on_c, 0, 57, 0
5, 76320, Note_on_c, 0, 56, 69
5, 77760, Note_on_c, 0, 56, 0
5, 77760, Note_on_c, 0, 54, 74
5, 79200, Note_on_c, 0, 54, 0
5, 79200, Note_on_c, 0, 52, 61
5, 79680, Note_on_c, 0, 52, 0
5, 80640, Note_on_c, 0, 42, 67
5, 82080, Note_on_c, 0, 42, 0
5, 82080, Note_on_c, 0, 40, 57
5, 82560, Note_on_c, 0, 40, 0
5, 83520, Note_on_c, 0, 54, 59
5, 84960, Note_on_c, 0, 54, 0
5, 84960, Note_on_c, 0, 52, 46
5, 85440, Note_on_c, 0, 52, 0
5, 91200, Note_on_c, 0, 49, 53
5, 91440, Note_on_c, 0, 49, 0
5, 91680, Note_on_c, 0, 49, 53
5, 91920, Note_on_c, 0, 49, 0
5, 92640, Note_on_c, 0, 42, 54
5, 92880, Note_on_c, 0, 42, 0
5, 93120, Note_on_c, 0, 42, 55
5, 93360, Note_on_c, 0, 42, 0
5, 94080, Note_on_c, 0, 37, 56
5, 94320, Note_on_c, 0, 37, 0
5, 94560, Note_on_c, 0, 37, 57
5, 94800, Note_on_c, 0, 37, 0
5, 95520, Note_on_c, 0, 30, 58
5, 95760, Note_on_c, 0, 30, 0
5, 96000, Note_on_c, 0, 30, 59
5, 96240, Note_on_c, 0, 30, 0
5, 96960, Note_on_c, 0, 54, 60
5, 97200, Note_on_c, 0, 54, 0
5, 97440, Note_on_c, 0, 54, 61
5, 97680, Note_on_c, 0, 54, 0
5, 98400, Note_on_c, 0, 42, 62
5, 98640, Note_on_c, 0, 42, 0
5, 98880, Note_on_c, 0, 42, 62
5, 99120, Note_on_c, 0, 42, 0
5, 99840, Note_on_c, 0, 52, 64
5, 100080, Note_on_c, 0, 52, 0
5, 100320, Note_on_c, 0, 40, 59
5, 100560, Note_on_c, 0, 40, 0
5, 100800, Note_on_c, 0, 45, 56
5, 100980, Note_on_c, 0, 45, 0
5, 101040, Note_on_c, 0, 61, 64
5, 101280, Note_on_c, 0, 61, 0
5, 101280, Note_on_c, 0, 59, 62
5, 101520, Note_on_c, 0, 59, 0
5, 101520, Note_on_c, 0, 57, 60
5, 101760, Note_on_c, 0, 57, 0
5, 101760, Note_on_c, 0, 56, 58
5, 102000, Note_on_c, 0, 56, 0
5, 102000, Note_on_c, 0, 54, 55
5, 102240, Note_on_c, 0, 54, 0
5, 102720, Note_on_c, 0, 49, 59
5, 102960, Note_on_c, 0, 49, 0
5, 103200, Note_on_c, 0, 49, 60
5, 103440, Note_on_c, 0, 49, 0
5, 104160, Note_on_c, 0, 49, 62
5, 104400, Note_on_c, 0, 49, 0
5, 104640, Note_on_c, 0, 49, 62
5, 104880, Note_on_c, 0, 49, 0
5, 105600, Note_on_c, 0, 49, 64
5, 105840, Note_on_c, 0, 49, 0
5, 106080, Note_on_c, 0, 49, 65
5, 106320, Note_on_c, 0, 49, 0
5, 107040, Note_on_c, 0, 49, 67
5, 107280, Note_on_c, 0, 49, 0
5, 107520, Note_on_c, 0, 49, 67
5, 107760, Note_on_c, 0, 49, 0
5, 108480, Note_on_c, 0, 50, 69
5, 108720, Note_on_c, 0, 50, 0
5, 108960, Note_on_c, 0, 50, 70
5, 109200, Note_on_c, 0, 50, 0
5, 109920, Note_on_c, 0, 50, 72
5, 110160, Note_on_c, 0, 50, 0
5, 110400, Note_on_c, 0, 50, 72
5, 110640, Note_on_c, 0, 50, 0
5, 110880, Note_on_c, 0, 49, 58
5, 113280, Note_on_c, 0, 49, 0
5, 113280, Note_on_c, 0, 50, 55
5, 113760, Note_on_c, 0, 50, 0
5, 113760, Note_on_c, 0, 49, 55
5, 114720, Note_on_c, 0, 49, 0
5, 114720, Note_on_c, 0, 50, 57
5, 115200, Note_on_c, 0, 50, 0
5, 115200, Note_on_c, 0, 49, 57
5, 116160, Note_on_c, 0, 49, 0
5, 116160, Note_on_c, 0, 50, 59
5, 116640, Note_on_c, 0, 50, 0
5, 116640, Note_on_c, 0, 49, 60
5, 119040, Note_on_c, 0, 49, 0
5, 119040, Note_on_c, 0, 46, 63
5, 119520, Note_on_c, 0, 46, 0
5, 119520, Note_on_c, 0, 47, 64
5, 120480, Note_on_c, 0, 47, 0
5, 120480, Note_on_c, 0, 46, 65
5, 120960, Note_on_c, 0, 46, 0
5, 120960, Note_on_c, 0, 47, 66
5, 121920, Note_on_c, 0, 47, 0
5, 121920, Note_on_c, 0, 46, 67
5, 122400, Note_on_c, 0, 46, 0
5, 122400, Note_on_c, 0, 47, 68
5, 125280, Note_on_c, 0, 47, 0
5, 125280, Note_on_c, 0, 47, 72
5, 126240, Note_on_c, 0, 47, 0
5, 126240, Note_on_c, 0, 46, 74
5, 126720, Note_on_c, 0, 46, 0
5, 126720, Note_on_c, 0, 47, 74
5, 127680, Note_on_c, 0, 47, 0
5, 127680, Note_on_c, 0, 46, 76
5, 128160, Note_on_c, 0, 46, 0
5, 128160, Note_on_c, 0, 47, 76
5, 130560, Note_on_c, 0, 47, 0
5, 130560, Note_on_c, 0, 47, 80
5, 131040, Note_on_c, 0, 47, 0
5, 131040, Note_on_c, 0, 45, 82
5, 132000, Note_on_c, 0, 45, 0
5, 132000, Note_on_c, 0, 47, 81
5, 132480, Note_on_c, 0, 47, 0
5, 132480, Note_on_c, 0, 45, 80
5, 133440, Note_on_c, 0, 45, 0
5, 133440, Note_on_c, 0, 44, 79
5, 133920, Note_on_c, 0, 44, 0
5, 133920, Note_on_c, 0, 42, 78
5, 136320, Note_on_c, 0, 42, 0
5, 136320, Note_on_c, 0, 44, 74
5, 136800, Note_on_c, 0, 44, 0
5, 136800, Note_on_c, 0, 42, 74
5, 137760, Note_on_c, 0, 42, 0
5, 137760, Note_on_c, 0, 44, 72
5, 138240, Note_on_c, 0, 44, 0
5, 138240, Note_on_c, 0, 42, 71
5, 139200, Note_on_c, 0, 42, 0
5, 139200, Note_on_c, 0, 40, 70
5, 139680, Note_on_c, 0, 40, 0
5, 139680, Note_on_c, 0, 38, 69
5, 142080, Note_on_c, 0, 38, 0
5, 142080, Note_on_c, 0, 40, 75
5, 142560, Note_on_c, 0, 40, 0
5, 142560, Note_on_c, 0, 38, 74
5, 143520, Note_on_c, 0, 38, 0
5, 143520, Note_on_c, 0, 40, 82
5, 144000, Note_on_c, 0, 40, 0
5, 144000, Note_on_c, 0, 38, 81
5, 144960, Note_on_c, 0, 38, 0
5, 144960, Note_on_c, 0, 35, 90
5, 145440, Note_on_c, 0, 35, 0
5, 145440, Note_on_c, 0, 37, 85
5, 146400, Note_on_c, 0, 37, 0
5, 146400, Note_on_c, 0, 32, 95
5, 146880, Note_on_c, 0, 32, 0
5, 146880, Note_on_c, 0, 33, 91
5, 147840, Note_on_c, 0, 33, 0
5, 147840, Note_on_c, 0, 30, 104
5, 148320, Note_on_c, 0, 30, 0
5, 148320, Note_on_c, 0, 37, 105
5, 149760, Note_on_c, 0, 37, 0
5, 151200, Note_on_c, 0, 54, 112
5, 152640, Note_on_c, 0, 54, 0
5, 154080, Note_on_c, 0, 52, 104
5, 154560, Note_on_c, 0, 52, 0
5, 155520, Note_on_c, 0, 52, 94
5, 156000, Note_on_c, 0, 52, 0
5, 156960, Note_on_c, 0, 49, 85
5, 159360, Note_on_c, 0, 49, 0
5, 159360, Note_on_c, 0, 48, 79
5, 159840, Note_on_c, 0, 48, 0
5, 159840, Note_on_c, 0, 49, 79
5, 160800, Note_on_c, 0, 49, 0
5, 160800, Note_on_c, 0, 50, 78
5, 161280, Note_on_c, 0, 50, 0
5, 161280, Note_on_c, 0, 49, 78
5, 162240, Note_on_c, 0, 49, 0
5, 162240, Note_on_c, 0, 47, 78
5, 162720, Note_on_c, 0, 47, 0
5, 162720, Note_on_c, 0, 45, 77
5, 165120, Note_on_c, 0, 45, 0
5, 165120, Note_on_c, 0, 44, 76
5, 165600, Note_on_c, 0, 44, 0
5, 165600, Note_on_c, 0, 45, 76
5, 166560, Note_on_c, 0, 45, 0
5, 166560, Note_on_c, 0, 47, 75
5, 167040, Note_on_c, 0, 47, 0
5, 167040, Note_on_c, 0, 45, 75
5, 168000, Note_on_c, 0, 45, 0
5, 168000, Note_on_c, 0, 44, 74
5, 168480, Note_on_c, 0, 44, 0
5, 168480, Note_on_c, 0, 42, 74
5, 170880, Note_on_c, 0, 42, 0
5, 170880, Note_on_c, 0, 41, 75
5, 171360, Note_on_c, 0, 41, 0
5, 171360, Note_on_c, 0, 42, 78
5, 172320, Note_on_c, 0, 42, 0
5, 172320, Note_on_c, 0, 41, 82
5, 172800, Note_on_c, 0, 41, 0
5, 172800, Note_on_c, 0, 42, 84
5, 173760, Note_on_c, 0, 42, 0
5, 173760, Note_on_c, 0, 40, 89
5, 174240, Note_on_c, 0, 40, 0
5, 174240, Note_on_c, 0, 38, 91
5, 175200, Note_on_c, 0, 38, 0
5, 175200, Note_on_c, 0, 34, 95
5, 175680, Note_on_c, 0, 34, 0
5, 175680, Note_on_c, 0, 35, 98
5, 176640, Note_on_c, 0, 35, 0
5, 176640, Note_on_c, 0, 33, 110
5, 177120, Note_on_c, 0, 33, 0
5, 177120, Note_on_c, 0, 32, 100
5, 178080, Note_on_c, 0, 32, 0
5, 178080, Note_on_c, 0, 39, 113
5, 178560, Note_on_c, 0, 39, 0
5, 178560, Note_on_c, 0, 40, 104
5, 179520, Note_on_c, 0, 40, 0
5, 179520, Note_on_c, 0, 38, 118
5, 180000, Note_on_c, 0, 38, 0
5, 180000, Note_on_c, 0, 37, 116
5, 181440, Note_on_c, 0, 37, 0
5, 182880, Note_on_c, 0, 54, 118
5, 184320, Note_on_c, 0, 54, 0
5, 185760, Note_on_c, 0, 52, 110
5, 186240, Note_on_c, 0, 52, 0
5, 192960, Note_on_c, 0, 52, 77
5, 194400, Note_on_c, 0, 52, 0
5, 194400, Note_on_c, 0, 57, 66
5, 194760, Note_on_c, 0, 57, 0
5, 195840, Note_on_c, 0, 45, 55
5, 196080, Note_on_c, 0, 45, 0
5, 196320, Note_on_c, 0, 45, 56
5, 196560, Note_on_c, 0, 45, 0
5, 197280, Note_on_c, 0, 49, 57
5, 197520, Note_on_c, 0, 49, 0
5, 197760, Note_on_c, 0, 49, 58
5, 198000, Note_on_c, 0, 49, 0
5, 198720, Note_on_c, 0, 52, 59
5, 198960, Note_on_c, 0, 52, 0
5, 199200, Note_on_c, 0, 52, 59
5, 199440, Note_on_c, 0, 52, 0
5, 200160, Note_on_c, 0, 57, 61
5, 200400, Note_on_c, 0, 57, 0
5, 200640, Note_on_c, 0, 57, 61
5, 200880, Note_on_c, 0, 57, 0
5, 201600, Note_on_c, 0, 61, 63
5, 201840, Note_on_c, 0, 61, 0
5, 202080, Note_on_c, 0, 61, 63
5, 202320, Note_on_c, 0, 61, 0
5, 203040, Note_on_c, 0, 62, 66
5, 203280, Note_on_c, 0, 62, 0
5, 203520, Note_on_c, 0, 62, 65
5, 203760, Note_on_c, 0, 62, 0
5, 204480, Note_on_c, 0, 64, 62
5, 204720, Note_on_c, 0, 64, 0
5, 204960, Note_on_c, 0, 64, 61
5, 205200, Note_on_c, 0, 64, 0
5, 205920, Note_on_c, 0, 57, 58
5, 206160, Note_on_c, 0, 57, 0
5, 207360, Note_on_c, 0, 33, 60
5, 207600, Note_on_c, 0, 33, 0
5, 207840, Note_on_c, 0, 33, 60
5, 208080, Note_on_c, 0, 33, 0
5, 208800, Note_on_c, 0, 33, 61
5, 209040, Note_on_c, 0, 33, 0
5, 209280, Note_on_c, 0, 33, 62
5, 209520, Note_on_c, 0, 33, 0
5, 210240, Note_on_c, 0, 40, 63
5, 210480, Note_on_c, 0, 40, 0
5, 210720, Note_on_c, 0, 40, 63
5, 210960, Note_on_c, 0, 40, 0
5, 211680, Note_on_c, 0, 45, 65
5, 211920, Note_on_c, 0, 45, 0
5, 212160, Note_on_c, 0, 45, 65
5, 212400, Note_on_c, 0, 45, 0
5, 213120, Note_on_c, 0, 49, 66
5, 213360, Note_on_c, 0, 49, 0
5, 213600, Note_on_c, 0, 49, 67
5, 213840, Note_on_c, 0, 49, 0
5, 214560, Note_on_c, 0, 50, 68
5, 214800, Note_on_c, 0, 50, 0
5, 215040, Note_on_c, 0, 50, 68
5, 215280, Note_on_c, 0, 50, 0
5, 216000, Note_on_c, 0, 52, 69
5, 216240, Note_on_c, 0, 52, 0
5, 216480, Note_on_c, 0, 52, 70
5, 216720, Note_on_c, 0, 52, 0
5, 217440, Note_on_c, 0, 45, 71
5, 217680, Note_on_c, 0, 45, 0
5, 217920, Note_on_c, 0, 45, 72
5, 218160, Note_on_c, 0, 45, 0
5, 218880, Note_on_c, 0, 49, 73
5, 219120, Note_on_c, 0, 49, 0
5, 219360, Note_on_c, 0, 49, 73
5, 219600, Note_on_c, 0, 49, 0
5, 220320, Note_on_c, 0, 50, 74
5, 220560, Note_on_c, 0, 50, 0
5, 220800, Note_on_c, 0, 50, 75
5, 221040, Note_on_c, 0, 50, 0
5, 221760, Note_on_c, 0, 52, 76
5, 222000, Note_on_c, 0, 52, 0
5, 222240, Note_on_c, 0, 52, 77
5, 222480, Note_on_c, 0, 52, 0
5, 223200, Note_on_c, 0, 45, 78
5, 223440, Note_on_c, 0, 45, 0
5, 223680, Note_on_c, 0, 45, 78
5, 223920, Note_on_c, 0, 45, 0
5, 224640, Note_on_c, 0, 52, 82
5, 224880, Note_on_c, 0, 52, 0
5, 225120, Note_on_c, 0, 52, 78
5, 225360, Note_on_c, 0, 52, 0
5, 226080, Note_on_c, 0, 45, 76
5, 226320, Note_on_c, 0, 45, 0
5, 226560, Note_on_c, 0, 45, 75
5, 226800, Note_on_c, 0, 45, 0
5, 227520, Note_on_c, 0, 40, 73
5, 227760, Note_on_c, 0, 40, 0
5, 228000, Note_on_c, 0, 40, 72
5, 228240, Note_on_c, 0, 40, 0
5, 228960, Note_on_c, 0, 33, 71
5, 229200, Note_on_c, 0, 33, 0
5, 241920, Note_on_c, 0, 47, 65
5, 243360, Note_on_c, 0, 47, 0
5, 243360, Note_on_c, 0, 48, 66
5, 244800, Note_on_c, 0, 48, 0
5, 244800, Note_on_c, 0, 52, 68
5, 246240, Note_on_c, 0, 52, 0
5, 246240, Note_on_c, 0, 57, 69
5, 247680, Note_on_c, 0, 57, 0
5, 247680, Note_on_c, 0, 54, 70
5, 249120, Note_on_c, 0, 54, 0
5, 249120, Note_on_c, 0, 55, 72
5, 250560, Note_on_c, 0, 55, 0
5, 250560, Note_on_c, 0, 47, 73
5, 252000, Note_on_c, 0, 47, 0
5, 252000, Note_on_c, 0, 50, 73
5, 253440, Note_on_c, 0, 50, 0
5, 253440, Note_on_c, 0, 55, 66
5, 253920, Note_on_c, 0, 55, 0
5, 254880, Note_on_c, 0, 67, 65
5, 256320, Note_on_c, 0, 67, 0
5, 256320, Note_on_c, 0, 59, 70
5, 257760, Note_on_c, 0, 59, 0
5, 257760, Note_on_c, 0, 60, 67
5, 259200, Note_on_c, 0, 60, 0
5, 259200, Note_on_c, 0, 63, 63
5, 260640, Note_on_c, 0, 63, 0
5, 260640, Note_on_c, 0, 69, 59
5, 262080, Note_on_c, 0, 69, 0
5, 262080, Note_on_c, 0, 66, 55
5, 263520, Note_on_c, 0, 66, 0
5, 263520, Note_on_c, 0, 67, 59
5, 263760, Note_on_c, 0, 67, 0
5, 263760, Note_on_c, 0, 61, 60
5, 264000, Note_on_c, 0, 61, 0
5, 264000, Note_on_c, 0, 62, 60
5, 264240, Note_on_c, 0, 62, 0
5, 264240, Note_on_c, 0, 61, 60
5, 264480, Note_on_c, 0, 61, 0
5, 264480, Note_on_c, 0, 63, 61
5, 264720, Note_on_c, 0, 63, 0
5, 264720, Note_on_c, 0, 62, 61
5, 264960, Note_on_c, 0, 62, 0
5, 264960, Note_on_c, 0, 60, 62
5, 265200, Note_on_c, 0, 60, 0
5, 265200, Note_on_c, 0, 58, 62
5, 265440, Note_on_c, 0, 58, 0
5, 265440, Note_on_c, 0, 57, 63
5, 265680, Note_on_c, 0, 57, 0
5, 265680, Note_on_c, 0, 55, 63
5, 265920, Note_on_c, 0, 55, 0
5, 265920, Note_on_c, 0, 54, 63
5, 266160, Note_on_c, 0, 54, 0
5, 266160, Note_on_c, 0, 51, 64
5, 266400, Note_on_c, 0, 51, 0
5, 266400, Note_on_c, 0, 50, 64
5, 266640, Note_on_c, 0, 50, 0
5, 266640, Note_on_c, 0, 48, 65
5, 266880, Note_on_c, 0, 48, 0
5, 266880, Note_on_c, 0, 46, 65
5, 267120, Note_on_c, 0, 46, 0
5, 267120, Note_on_c, 0, 45, 66
5, 267360, Note_on_c, 0, 45, 0
5, 267360, Note_on_c, 0, 43, 66
5, 267600, Note_on_c, 0, 43, 0
5, 267600, Note_on_c, 0, 42, 66
5, 267840, Note_on_c, 0, 42, 0
5, 267840, Note_on_c, 0, 43, 67
5, 268080, Note_on_c, 0, 43, 0
5, 268080, Note_on_c, 0, 42, 67
5, 268320, Note_on_c, 0, 42, 0
5, 268320, Note_on_c, 0, 43, 68
5, 268560, Note_on_c, 0, 43, 0
5, 268560, Note_on_c, 0, 41, 68
5, 268800, Note_on_c, 0, 41, 0
5, 268800, Note_on_c, 0, 39, 69
5, 269040, Note_on_c, 0, 39, 0
5, 269040, Note_on_c, 0, 38, 69
5, 269280, Note_on_c, 0, 38, 0
5, 269280, Note_on_c, 0, 37, 69
5, 269520, Note_on_c, 0, 37, 0
5, 269520, Note_on_c, 0, 56, 70
5, 269760, Note_on_c, 0, 56, 0
5, 269760, Note_on_c, 0, 57, 70
5, 270000, Note_on_c, 0, 57, 0
5, 270000, Note_on_c, 0, 56, 71
5, 270240, Note_on_c, 0, 56, 0
5, 270240, Note_on_c, 0, 58, 71
5, 270480, Note_on_c, 0, 58, 0
5, 270480, Note_on_c, 0, 57, 72
5, 270720, Note_on_c, 0, 57, 0
5, 270720, Note_on_c, 0, 55, 72
5, 270960, Note_on_c, 0, 55, 0
5, 270960, Note_on_c, 0, 53, 72
5, 271200, Note_on_c, 0, 53, 0
5, 271200, Note_on_c, 0, 52, 73
5, 271440, Note_on_c, 0, 52, 0
5, 271440, Note_on_c, 0, 50, 73
5, 271680, Note_on_c, 0, 50, 0
5, 271680, Note_on_c, 0, 49, 74
5, 271920, Note_on_c, 0, 49, 0
5, 271920, Note_on_c, 0, 46, 74
5, 272160, Note_on_c, 0, 46, 0
5, 272160, Note_on_c, 0, 45, 75
5, 272400, Note_on_c, 0, 45, 0
5, 272400, Note_on_c, 0, 43, 75
5, 272640, Note_on_c, 0, 43, 0
5, 272640, Note_on_c, 0, 41, 76
5, 272880, Note_on_c, 0, 41, 0
5, 272880, Note_on_c, 0, 40, 76
5, 273120, Note_on_c, 0, 40, 0
5, 273120, Note_on_c, 0, 38, 76
5, 273360, Note_on_c, 0, 38, 0
5, 273360, Note_on_c, 0, 37, 77
5, 273600, Note_on_c, 0, 37, 0
5, 273600, Note_on_c, 0, 38, 77
5, 273840, Note_on_c, 0, 38, 0
5, 273840, Note_on_c, 0, 49, 78
5, 274080, Note_on_c, 0, 49, 0
5, 274080, Note_on_c, 0, 50, 78
5, 274320, Note_on_c, 0, 50, 0
5, 274320, Note_on_c, 0, 49, 79
5, 274560, Note_on_c, 0, 49, 0
5, 274560, Note_on_c, 0, 50, 79
5, 274800, Note_on_c, 0, 50, 0
5, 274800, Note_on_c, 0, 49, 79
5, 275040, Note_on_c, 0, 49, 0
5, 275040, Note_on_c, 0, 50, 85
5, 276480, Note_on_c, 0, 50, 0
5, 276480, Note_on_c, 0, 55, 88
5, 277920, Note_on_c, 0, 55, 0
5, 277920, Note_on_c, 0, 57, 94
5, 277920, Note_on_c, 0, 54, 94
5, 278880, Note_on_c, 0, 54, 0
5, 278880, Note_on_c, 0, 57, 0
5, 278880, Note_on_c, 0, 55, 87
5, 278880, Note_on_c, 0, 58, 87
5, 279120, Note_on_c, 0, 58, 0
5, 279120, Note_on_c, 0, 55, 0
5, 279120, Note_on_c, 0, 60, 84
5, 279120, Note_on_c, 0, 57, 84
5, 279360, Note_on_c, 0, 57, 0
5, 279360, Note_on_c, 0, 60, 0
5, 279360, Note_on_c, 0, 55, 80
5, 279360, Note_on_c, 0, 58, 80
5, 279720, Note_on_c, 0, 58, 0
5, 279720, Note_on_c, 0, 55, 0
5, 280800, Note_on_c, 0, 33, 93
5, 280800, Note_on_c, 0, 45, 93
5, 282240, Note_on_c, 0, 45, 0
5, 282240, Note_on_c, 0, 33, 0
5, 282240, Note_on_c, 0, 50, 97
5, 282240, Note_on_c, 0, 38, 97
5, 283680, Note_on_c, 0, 38, 0
5, 283680, Note_on_c, 0, 50, 0
5, 283680, Note_on_c, 0, 52, 101
5, 283680, Note_on_c, 0, 49, 101
5, 284640, Note_on_c, 0, 49, 0
5, 284640, Note_on_c, 0, 52, 0
5, 284640, Note_on_c, 0, 53, 98
5, 284640, Note_on_c, 0, 50, 98
5, 284880, Note_on_c, 0, 50, 0
5, 284880, Note_on_c, 0, 53, 0
5, 284880, Note_on_c, 0, 55, 94
5, 284880, Note_on_c, 0, 52, 94
5, 285120, Note_on_c, 0, 52, 0
5, 285120, Note_on_c, 0, 55, 0
5, 285120, Note_on_c, 0, 53, 90
5, 285120, Note_on_c, 0, 50, 90
5, 285480, Note_on_c, 0, 50, 0
5, 285480, Note_on_c, 0, 53, 0
5, 286560, Note_on_c, 0, 57, 104
5, 286800, Note_on_c, 0, 57, 0
5, 286800, Note_on_c, 0, 55, 103
5, 287040, Note_on_c, 0, 55, 0
5, 287040, Note_on_c, 0, 53, 102
5, 287280, Note_on_c, 0, 53, 0
5, 287280, Note_on_c, 0, 52, 101
5, 287520, Note_on_c, 0, 52, 0
5, 287520, Note_on_c, 0, 50, 100
5, 287760, Note_on_c, 0, 50, 0
5, 287760, Note_on_c, 0, 49, 99
5, 288000, Note_on_c, 0, 49, 0
5, 288000, Note_on_c, 0, 50, 98
5, 288240, Note_on_c, 0, 50, 0
5, 288240, Note_on_c, 0, 53, 97
5, 288480, Note_on_c, 0, 53, 0
5, 288480, Note_on_c, 0, 57, 96
5, 288720, Note_on_c, 0, 57, 0
5, 288720, Note_on_c, 0, 62, 95
5, 288960, Note_on_c, 0, 62, 0
5, 288960, Note_on_c, 0, 65, 95
5, 289200, Note_on_c, 0, 65, 0
5, 289200, Note_on_c, 0, 62, 94
5, 289440, Note_on_c, 0, 62, 0
5, 289440, Note_on_c, 0, 64, 98
5, 289440, Note_on_c, 0, 61, 98
5, 290400, Note_on_c, 0, 61, 0
5, 290400, Note_on_c, 0, 64, 0
5, 290400, Note_on_c, 0, 65, 93
5, 290400, Note_on_c, 0, 62, 93
5, 290640, Note_on_c, 0, 62, 0
5, 290640, Note_on_c, 0, 65, 0
5, 290640, Note_on_c, 0, 67, 90
5, 290640, Note_on_c, 0, 64, 90
5, 290880, Note_on_c, 0, 64, 0
5, 290880, Note_on_c, 0, 67, 0
5, 290880, Note_on_c, 0, 65, 86
5, 290880, Note_on_c, 0, 62, 86
5, 291240, Note_on_c, 0, 62, 0
5, 291240, Note_on_c, 0, 65, 0
5, 292080, Note_on_c, 0, 63, 82
5, 292320, Note_on_c, 0, 63, 0
5, 292320, Note_on_c, 0, 64, 81
5, 292560, Note_on_c, 0, 64, 0
5, 292560, Note_on_c, 0, 62, 80
5, 292800, Note_on_c, 0, 62, 0
5, 292800, Note_on_c, 0, 60, 79
5, 293040, Note_on_c, 0, 60, 0
5, 293040, Note_on_c, 0, 59, 78
5, 293280, Note_on_c, 0, 59, 0
5, 293280, Note_on_c, 0, 57, 77
5, 293520, Note_on_c, 0, 57, 0
5, 293520, Note_on_c, 0, 56, 76
5, 293760, Note_on_c, 0, 56, 0
5, 293760, Note_on_c, 0, 57, 75
5, 294000, Note_on_c, 0, 57, 0
5, 294000, Note_on_c, 0, 60, 74
5, 294240, Note_on_c, 0, 60, 0
5, 294240, Note_on_c, 0, 64, 73
5, 294480, Note_on_c, 0, 64, 0
5, 294480, Note_on_c, 0, 69, 72
5, 294720, Note_on_c, 0, 69, 0
5, 294720, Note_on_c, 0, 72, 71
5, 294960, Note_on_c, 0, 72, 0
5, 294960, Note_on_c, 0, 69, 70
5, 295200, Note_on_c, 0, 69, 0
5, 295200, Note_on_c, 0, 71, 76
5, 295200, Note_on_c, 0, 68, 76
5, 296160, Note_on_c, 0, 68, 0
5, 296160, Note_on_c, 0, 71, 0
5, 296160, Note_on_c, 0, 72, 71
5, 296160, Note_on_c, 0, 69, 71
5, 296400, Note_on_c, 0, 69, 0
5, 296400, Note_on_c, 0, 72, 0
5, 296400, Note_on_c, 0, 74, 68
5, 296400, Note_on_c, 0, 71, 68
5, 296640, Note_on_c, 0, 71, 0
5, 296640, Note_on_c, 0, 74, 0
5, 296640, Note_on_c, 0, 72, 65
5, 296640, Note_on_c, 0, 69, 65
5, 297000, Note_on_c, 0, 69, 0
5, 297000, Note_on_c, 0, 72, 0
5, 298080, Note_on_c, 0, 64, 65
5, 298320, Note_on_c, 0, 64, 0
5, 298320, Note_on_c, 0, 62, 65
5, 298560, Note_on_c, 0, 62, 0
5, 298560, Note_on_c, 0, 60, 66
5, 298800, Note_on_c, 0, 60, 0
5, 298800, Note_on_c, 0, 59, 66
5, 299040, Note_on_c, 0, 59, 0
5, 299040, Note_on_c, 0, 57, 67
5, 299280, Note_on_c, 0, 57, 0
5, 299280, Note_on_c, 0, 56, 67
5, 299520, Note_on_c, 0, 56, 0
5, 299520, Note_on_c, 0, 57, 67
5, 299760, Note_on_c, 0, 57, 0
5, 299760, Note_on_c, 0, 56, 68
5, 300000, Note_on_c, 0, 56, 0
5, 300000, Note_on_c, 0, 57, 68
5, 300240, Note_on_c, 0, 57, 0
5, 300240, Note_on_c, 0, 59, 69
5, 300480, Note_on_c, 0, 59, 0
5, 300480, Note_on_c, 0, 60, 69
5, 300720, Note_on_c, 0, 60, 0
5, 300720, Note_on_c, 0, 57, 70
5, 300960, Note_on_c, 0, 57, 0
5, 300960, Note_on_c, 0, 54, 70
5, 301200, Note_on_c, 0, 54, 0
5, 301200, Note_on_c, 0, 60, 70
5, 301440, Note_on_c, 0, 60, 0
5, 301440, Note_on_c, 0, 59, 71
5, 301680, Note_on_c, 0, 59, 0
5, 301680, Note_on_c, 0, 57, 71
5, 301920, Note_on_c, 0, 57, 0
5, 301920, Note_on_c, 0, 55, 72
5, 302160, Note_on_c, 0, 55, 0
5, 302160, Note_on_c, 0, 54, 72
5, 302400, Note_on_c, 0, 54, 0
5, 302400, Note_on_c, 0, 55, 72
5, 302640, Note_on_c, 0, 55, 0
5, 302640, Note_on_c, 0, 59, 73
5, 302880, Note_on_c, 0, 59, 0
5, 302880, Note_on_c, 0, 57, 73
5, 303120, Note_on_c, 0, 57, 0
5, 303120, Note_on_c, 0, 55, 74
5, 303360, Note_on_c, 0, 55, 0
5, 303360, Note_on_c, 0, 54, 74
5, 303600, Note_on_c, 0, 54, 0
5, 303600, Note_on_c, 0, 52, 75
5, 303840, Note_on_c, 0, 52, 0
5, 303840, Note_on_c, 0, 51, 75
5, 304080, Note_on_c, 0, 51, 0
5, 304080, Note_on_c, 0, 54, 75
5, 304320, Note_on_c, 0, 54, 0
5, 304320, Note_on_c, 0, 52, 76
5, 304560, Note_on_c, 0, 52, 0
5, 304560, Note_on_c, 0, 51, 76
5, 304800, Note_on_c, 0, 51, 0
5, 304800, Note_on_c, 0, 49, 77
5, 305040, Note_on_c, 0, 49, 0
5, 305040, Note_on_c, 0, 47, 77
5, 305280, Note_on_c, 0, 47, 0
5, 305280, Note_on_c, 0, 52, 77
5, 305520, Note_on_c, 0, 52, 0
5, 305520, Note_on_c, 0, 51, 78
5, 305760, Note_on_c, 0, 51, 0
5, 305760, Note_on_c, 0, 52, 78
5, 306000, Note_on_c, 0, 52, 0
5, 306000, Note_on_c, 0, 54, 79
5, 306240, Note_on_c, 0, 54, 0
5, 306240, Note_on_c, 0, 55, 79
5, 306480, Note_on_c, 0, 55, 0
5, 306480, Note_on_c, 0, 52, 79
5, 306720, Note_on_c, 0, 52, 0
5, 306720, Note_on_c, 0, 49, 80
5, 306960, Note_on_c, 0, 49, 0
5, 306960, Note_on_c, 0, 55, 80
5, 307200, Note_on_c, 0, 55, 0
5, 307200, Note_on_c, 0, 54, 81
5, 307440, Note_on_c, 0, 54, 0
5, 307440, Note_on_c, 0, 52, 81
5, 307680, Note_on_c, 0, 52, 0
5, 307680, Note_on_c, 0, 50, 82
5, 307920, Note_on_c, 0, 50, 0
5, 307920, Note_on_c, 0, 49, 82
5, 308160, Note_on_c, 0, 49, 0
5, 308160, Note_on_c, 0, 50, 82
5, 308400, Note_on_c, 0, 50, 0
5, 308400, Note_on_c, 0, 54, 83
5, 308640, Note_on_c, 0, 54, 0
5, 308640, Note_on_c, 0, 52, 83
5, 308880, Note_on_c, 0, 52, 0
5, 308880, Note_on_c, 0, 50, 84
5, 309120, Note_on_c, 0, 50, 0
5, 309120, Note_on_c, 0, 49, 84
5, 309360, Note_on_c, 0, 49, 0
5, 309360, Note_on_c, 0, 47, 84
5, 309600, Note_on_c, 0, 47, 0
5, 309600, Note_on_c, 0, 46, 85
5, 309840, Note_on_c, 0, 46, 0
5, 309840, Note_on_c, 0, 49, 85
5, 310080, Note_on_c, 0, 49, 0
5, 310080, Note_on_c, 0, 47, 86
5, 310320, Note_on_c, 0, 47, 0
5, 310320, Note_on_c, 0, 46, 86
5, 310560, Note_on_c, 0, 46, 0
5, 310560, Note_on_c, 0, 44, 87
5, 310800, Note_on_c, 0, 44, 0
5, 310800, Note_on_c, 0, 42, 87
5, 311040, Note_on_c, 0, 42, 0
5, 311040, Note_on_c, 0, 47, 87
5, 311520, Note_on_c, 0, 47, 0
5, 311520, Note_on_c, 0, 47, 88
5, 312000, Note_on_c, 0, 47, 0
5, 312000, Note_on_c, 0, 47, 89
5, 312480, Note_on_c, 0, 47, 0
5, 312480, Note_on_c, 0, 43, 90
5, 312960, Note_on_c, 0, 43, 0
5, 312960, Note_on_c, 0, 43, 91
5, 313440, Note_on_c, 0, 43, 0
5, 313440, Note_on_c, 0, 43, 92
5, 313920, Note_on_c, 0, 43, 0
5, 313920, Note_on_c, 0, 43, 92
5, 314400, Note_on_c, 0, 43, 0
5, 314400, Note_on_c, 0, 43, 93
5, 314880, Note_on_c, 0, 43, 0
5, 314880, Note_on_c, 0, 43, 94
5, 315360, Note_on_c, 0, 43, 0
5, 315360, Note_on_c, 0, 49, 98
5, 315360, Note_on_c, 0, 42, 98
5, 316320, Note_on_c, 0, 49, 0
5, 316320, Note_on_c, 0, 47, 91
5, 316560, Note_on_c, 0, 47, 0
5, 316560, Note_on_c, 0, 46, 89
5, 316800, Note_on_c, 0, 46, 0
5, 316800, Note_on_c, 0, 42, 0
5, 316800, Note_on_c, 0, 50, 100
5, 316800, Note_on_c, 0, 42, 100
5, 317760, Note_on_c, 0, 50, 0
5, 317760, Note_on_c, 0, 49, 93
5, 318000, Note_on_c, 0, 49, 0
5, 318000, Note_on_c, 0, 47, 91
5, 318240, Note_on_c, 0, 47, 0
5, 318240, Note_on_c, 0, 42, 0
5, 318240, Note_on_c, 0, 52, 102
5, 318240, Note_on_c, 0, 42, 102
5, 319200, Note_on_c, 0, 52, 0
5, 319200, Note_on_c, 0, 50, 97
5, 319440, Note_on_c, 0, 50, 0
5, 319440, Note_on_c, 0, 49, 96
5, 319680, Note_on_c, 0, 49, 0
5, 319680, Note_on_c, 0, 42, 0
5, 319680, Note_on_c, 0, 50, 104
5, 319680, Note_on_c, 0, 42, 104
5, 320640, Note_on_c, 0, 50, 0
5, 320640, Note_on_c, 0, 49, 97
5, 320880, Note_on_c, 0, 49, 0
5, 320880, Note_on_c, 0, 47, 96
5, 321120, Note_on_c, 0, 47, 0
5, 321120, Note_on_c, 0, 42, 0
5, 321120, Note_on_c, 0, 49, 106
5, 321120, Note_on_c, 0, 42, 106
5, 322080, Note_on_c, 0, 49, 0
5, 322080, Note_on_c, 0, 47, 100
5, 322320, Note_on_c, 0, 47, 0
5, 322320, Note_on_c, 0, 46, 99
5, 322560, Note_on_c, 0, 46, 0
5, 322560, Note_on_c, 0, 42, 0
5, 322560, Note_on_c, 0, 50, 106
5, 322560, Note_on_c, 0, 42, 106
5, 323520, Note_on_c, 0, 50, 0
5, 323520, Note_on_c, 0, 49, 102
5, 323760, Note_on_c, 0, 49, 0
5, 323760, Note_on_c, 0, 47, 101
5, 324000, Note_on_c, 0, 47, 0
5, 324000, Note_on_c, 0, 42, 0
5, 324000, Note_on_c, 0, 52, 110
5, 324000, Note_on_c, 0, 42, 110
5, 324960, Note_on_c, 0, 52, 0
5, 324960, Note_on_c, 0, 50, 104
5, 325200, Note_on_c, 0, 50, 0
5, 325200, Note_on_c, 0, 49, 103
5, 325440, Note_on_c, 0, 49, 0
5, 325440, Note_on_c, 0, 42, 0
5, 325440, Note_on_c, 0, 50, 114
5, 325440, Note_on_c, 0, 42, 114
5, 326400, Note_on_c, 0, 50, 0
5, 326400, Note_on_c, 0, 49, 103
5, 326640, Note_on_c, 0, 49, 0
5, 326640, Note_on_c, 0, 47, 101
5, 326880, Note_on_c, 0, 47, 0
5, 326880, Note_on_c, 0, 42, 0
5, 326880, Note_on_c, 0, 49, 78
5, 326880, Note_on_c, 0, 42, 78
5, 327840, Note_on_c, 0, 49, 0
5, 327840, Note_on_c, 0, 47, 72
5, 328080, Note_on_c, 0, 47, 0
5, 328080, Note_on_c, 0, 46, 71
5, 328320, Note_on_c, 0, 46, 0
5, 328320, Note_on_c, 0, 42, 0
5, 328320, Note_on_c, 0, 37, 76
5, 328320, Note_on_c, 0, 46, 76
5, 329280, Note_on_c, 0, 46, 0
5, 329280, Note_on_c, 0, 44, 69
5, 329520, Note_on_c, 0, 44, 0
5, 329520, Note_on_c, 0, 42, 68
5, 329760, Note_on_c, 0, 42, 0
5, 329760, Note_on_c, 0, 37, 0
5, 329760, Note_on_c, 0, 37, 74
5, 329760, Note_on_c, 0, 42, 74
5, 330720, Note_on_c, 0, 37, 0
5, 330720, Note_on_c, 0, 35, 69
5, 330960, Note_on_c, 0, 35, 0
5, 330960, Note_on_c, 0, 34, 67
5, 331200, Note_on_c, 0, 34, 0
5, 331200, Note_on_c, 0, 42, 0
5, 331200, Note_on_c, 0, 34, 73
5, 331200, Note_on_c, 0, 42, 73
5, 332160, Note_on_c, 0, 34, 0
5, 332160, Note_on_c, 0, 32, 68
5, 332400, Note_on_c, 0, 32, 0
5, 332400, Note_on_c, 0, 30, 67
5, 332640, Note_on_c, 0, 30, 0
5, 332640, Note_on_c, 0, 42, 0
5, 332640, Note_on_c, 0, 30, 72
5, 332640, Note_on_c, 0, 42, 72
5, 333600, Note_on_c, 0, 30, 0
5, 333600, Note_on_c, 0, 32, 66
5, 333840, Note_on_c, 0, 32, 0
5, 333840, Note_on_c, 0, 34, 65
5, 334080, Note_on_c, 0, 34, 0
5, 334080, Note_on_c, 0, 42, 0
5, 334080, Note_on_c, 0, 34, 70
5, 334080, Note_on_c, 0, 42, 70
5, 335040, Note_on_c, 0, 34, 0
5, 335040, Note_on_c, 0, 35, 64
5, 335280, Note_on_c, 0, 35, 0
5, 335280, Note_on_c, 0, 37, 63
5, 335520, Note_on_c, 0, 37, 0
5, 335520, Note_on_c, 0, 42, 0
5, 335520, Note_on_c, 0, 42, 70
5, 335520, Note_on_c, 0, 37, 70
5, 336480, Note_on_c, 0, 37, 0
5, 336480, Note_on_c, 0, 35, 65
5, 336720, Note_on_c, 0, 35, 0
5, 336720, Note_on_c, 0, 34, 63
5, 336960, Note_on_c, 0, 34, 0
5, 336960, Note_on_c, 0, 42, 0
5, 336960, Note_on_c, 0, 42, 70
5, 336960, Note_on_c, 0, 34, 70
5, 337920, Note_on_c, 0, 34, 0
5, 337920, Note_on_c, 0, 32, 64
5, 338160, Note_on_c, 0, 32, 0
5, 338160, Note_on_c, 0, 30, 63
5, 338400, Note_on_c, 0, 30, 0
5, 338400, Note_on_c, 0, 42, 0
5, 338400, Note_on_c, 0, 42, 68
5, 338400, Note_on_c, 0, 30, 68
5, 339360, Note_on_c, 0, 30, 0
5, 339360, Note_on_c, 0, 32, 62
5, 339600, Note_on_c, 0, 32, 0
5, 339600, Note_on_c, 0, 34, 61
5, 339840, Note_on_c, 0, 34, 0
5, 339840, Note_on_c, 0, 42, 0
5, 339840, Note_on_c, 0, 42, 66
5, 339840, Note_on_c, 0, 34, 66
5, 340800, Note_on_c, 0, 34, 0
5, 340800, Note_on_c, 0, 35, 59
5, 341040, Note_on_c, 0, 35, 0
5, 341040, Note_on_c, 0, 37, 57
5, 341280, Note_on_c, 0, 37, 0
5, 341280, Note_on_c, 0, 42, 0
5, 341280, Note_on_c, 0, 42, 64
5, 341280, Note_on_c, 0, 37, 64
5, 342240, Note_on_c, 0, 37, 0
5, 342240, Note_on_c, 0, 35, 58
5, 342480, Note_on_c, 0, 35, 0
5, 342480, Note_on_c, 0, 34, 57
5, 342720, Note_on_c, 0, 34, 0
5, 342720, Note_on_c, 0, 42, 0
5, 342720, Note_on_c, 0, 42, 64
5, 342720, Note_on_c, 0, 34, 64
5, 343680, Note_on_c, 0, 34, 0
5, 343680, Note_on_c, 0, 32, 57
5, 343920, Note_on_c, 0, 32, 0
5, 343920, Note_on_c, 0, 30, 55
5, 344160, Note_on_c, 0, 30, 0
5, 344160, Note_on_c, 0, 42, 0
5, 344160, Note_on_c, 0, 30, 62
5, 345120, Note_on_c, 0, 30, 0
5, 345120, Note_on_c, 0, 42, 61
5, 345600, Note_on_c, 0, 42, 0
5, 345600, Note_on_c, 0, 30, 61
5, 346560, Note_on_c, 0, 30, 0
5, 346560, Note_on_c, 0, 42, 60
5, 347040, Note_on_c, 0, 42, 0
5, 347040, Note_on_c, 0, 30, 59
5, 348000, Note_on_c, 0, 30, 0
5, 348000, Note_on_c, 0, 42, 58
5, 348480, Note_on_c, 0, 42, 0
5, 348480, Note_on_c, 0, 30, 58
5, 349440, Note_on_c, 0, 30, 0
5, 349440, Note_on_c, 0, 42, 57
5, 349920, Note_on_c, 0, 42, 0
5, 349920, Note_on_c, 0, 30, 57
5, 350880, Note_on_c, 0, 30, 0
5, 350880, Note_on_c, 0, 42, 56
5, 351360, Note_on_c, 0, 42, 0
5, 351360, Note_on_c, 0, 30, 56
5, 352320, Note_on_c, 0, 30, 0
5, 352320, Note_on_c, 0, 42, 55
5, 352800, Note_on_c, 0, 42, 0
5, 352800, Note_on_c, 0, 30, 54
5, 353760, Note_on_c, 0, 30, 0
5, 353760, Note_on_c, 0, 42, 54
5, 354240, Note_on_c, 0, 42, 0
5, 354240, Note_on_c, 0, 30, 53
5, 355200, Note_on_c, 0, 30, 0
5, 355200, Note_on_c, 0, 42, 52
5, 355680, Note_on_c, 0, 42, 0
5, 355680, Note_on_c, 0, 30, 51
5, 356640, Note_on_c, 0, 30, 0
5, 356640, Note_on_c, 0, 42, 54
5, 357120, Note_on_c, 0, 42, 0
5, 357120, Note_on_c, 0, 41, 56
5, 358080, Note_on_c, 0, 41, 0
5, 358080, Note_on_c, 0, 42, 60
5, 358560, Note_on_c, 0, 42, 0
5, 358560, Note_on_c, 0, 37, 62
5, 359520, Note_on_c, 0, 37, 0
5, 359520, Note_on_c, 0, 42, 66
5, 360000, Note_on_c, 0, 42, 0
5, 360000, Note_on_c, 0, 29, 68
5, 360960, Note_on_c, 0, 29, 0
5, 360960, Note_on_c, 0, 42, 72
5, 361440, Note_on_c, 0, 30, 75
5, 362880, Note_on_c, 0, 42, 0
5, 363840, Note_on_c, 0, 30, 0
5, 363840, Note_on_c, 0, 42, 59
5, 364320, Note_on_c, 0, 30, 56
5, 365760, Note_on_c, 0, 42, 0
5, 366720, Note_on_c, 0, 30, 0
5, 366720, Control_c, 0, 64, 127
5, 366720, Note_on_c, 0, 42, 50
5, 367200, Note_on_c, 0, 30, 48
5, 368640, Note_on_c, 0, 42, 0
5, 369600, Note_on_c, 0, 30, 0
5, 370560, Control_c, 0, 64, 0
5, 371520, Note_on_c, 0, 47, 66
5, 371760, Note_on_c, 0, 47, 0
5, 372000, Note_on_c, 0, 47, 65
5, 372240, Note_on_c, 0, 47, 0
5, 372960, Note_on_c, 0, 51, 64
5, 373200, Note_on_c, 0, 51, 0
5, 373440, Note_on_c, 0, 51, 63
5, 373680, Note_on_c, 0, 51, 0
5, 374400, Note_on_c, 0, 54, 62
5, 374640, Note_on_c, 0, 54, 0
5, 374880, Note_on_c, 0, 54, 61
5, 375120, Note_on_c, 0, 54, 0
5, 375840, Note_on_c, 0, 59, 60
5, 376080, Note_on_c, 0, 59, 0
5, 380160, Note_on_c, 0, 47, 55
5, 380400, Note_on_c, 0, 47, 0
5, 380640, Note_on_c, 0, 47, 54
5, 380880, Note_on_c, 0, 47, 0
5, 381600, Note_on_c, 0, 50, 53
5, 381840, Note_on_c, 0, 50, 0
5, 382080, Note_on_c, 0, 50, 52
5, 382320, Note_on_c, 0, 50, 0
5, 383040, Note_on_c, 0, 54, 51
5, 383280, Note_on_c, 0, 54, 0
5, 383520, Note_on_c, 0, 54, 51
5, 383760, Note_on_c, 0, 54, 0
5, 384480, Note_on_c, 0, 59, 49
5, 384720, Note_on_c, 0, 59, 0
5, 388800, Control_c, 0, 64, 127
5, 388800, Note_on_c, 0, 57, 44
5, 391680, Note_on_c, 0, 57, 0
5, 392640, Control_c, 0, 64, 0
5, 398880, Note_on_c, 0, 52, 55
5, 400320, Note_on_c, 0, 52, 0
5, 400320, Note_on_c, 0, 49, 58
5, 401760, Note_on_c, 0, 49, 0
5, 401760, Note_on_c, 0, 50, 60
5, 403200, Note_on_c, 0, 50, 0
5, 403200, Note_on_c, 0, 42, 62
5, 404640, Note_on_c, 0, 42, 0
5, 404640, Note_on_c, 0, 45, 66
5, 406080, Note_on_c, 0, 45, 0
5, 406080, Note_on_c, 0, 50, 61
5, 406668, Note_on_c, 0, 50, 0
5, 407520, Note_on_c, 0, 62, 65
5, 408960, Note_on_c, 0, 62, 0
5, 408960, Note_on_c, 0, 54, 58
5, 410400, Note_on_c, 0, 54, 0
5, 410400, Note_on_c, 0, 55, 60
5, 411840, Note_on_c, 0, 55, 0
5, 411840, Note_on_c, 0, 59, 63
5, 413280, Note_on_c, 0, 59, 0
5, 413280, Note_on_c, 0, 64, 66
5, 414720, Note_on_c, 0, 64, 0
5, 414720, Note_on_c, 0, 61, 68
5, 416160, Note_on_c, 0, 61, 0
5, 416160, Note_on_c, 0, 62, 71
5, 417600, Note_on_c, 0, 62, 0
5, 417600, Note_on_c, 0, 54, 73
5, 419040, Note_on_c, 0, 54, 0
5, 419040, Note_on_c, 0, 57, 76
5, 420480, Note_on_c, 0, 57, 0
5, 420480, Note_on_c, 0, 62, 70
5, 420840, Note_on_c, 0, 62, 0
5, 421920, Note_on_c, 0, 42, 67
5, 423840, Note_on_c, 0, 42, 0
5, 423840, Note_on_c, 0, 43, 74
5, 424320, Note_on_c, 0, 43, 0
5, 424320, Note_on_c, 0, 45, 75
5, 424800, Note_on_c, 0, 45, 0
5, 424800, Note_on_c, 0, 47, 77
5, 427200, Note_on_c, 0, 47, 0
5, 427200, Note_on_c, 0, 45, 77
5, 427680, Note_on_c, 0, 45, 0
5, 427680, Note_on_c, 0, 43, 76
5, 428640, Note_on_c, 0, 43, 0
5, 428640, Note_on_c, 0, 44, 85
5, 429120, Note_on_c, 0, 44, 0
5, 429120, Note_on_c, 0, 45, 74
5, 430080, Note_on_c, 0, 45, 0
5, 430080, Note_on_c, 0, 45, 78
5, 430560, Note_on_c, 0, 45, 0
5, 430560, Note_on_c, 0, 50, 71
5, 431040, Note_on_c, 0, 50, 0
5, 433440, Note_on_c, 0, 42, 70
5, 435360, Note_on_c, 0, 42, 0
5, 435360, Note_on_c, 0, 43, 76
5, 435840, Note_on_c, 0, 43, 0
5, 435840, Note_on_c, 0, 45, 78
5, 436320, Note_on_c, 0, 45, 0
5, 436320, Note_on_c, 0, 47, 80
5, 438720, Note_on_c, 0, 47, 0
5, 438720, Note_on_c, 0, 45, 81
5, 439200, Note_on_c, 0, 45, 0
5, 439200, Note_on_c, 0, 43, 81
5, 440160, Note_on_c, 0, 43, 0
5, 440160, Note_on_c, 0, 44, 87
5, 440640, Note_on_c, 0, 44, 0
5, 440640, Note_on_c, 0, 45, 81
5, 441600, Note_on_c, 0, 45, 0
5, 441600, Note_on_c, 0, 45, 91
5, 442080, Note_on_c, 0, 45, 0
5, 442080, Note_on_c, 0, 50, 81
5, 442560, Note_on_c, 0, 50, 0
5, 444480, Note_on_c, 0, 42, 85
5, 444960, Note_on_c, 0, 42, 0
5, 444960, Note_on_c, 0, 43, 86
5, 445920, Note_on_c, 0, 43, 0
5, 445920, Note_on_c, 0, 44, 90
5, 446400, Note_on_c, 0, 44, 0
5, 446400, Note_on_c, 0, 45, 100
5, 447360, Note_on_c, 0, 45, 0
5, 447360, Note_on_c, 0, 45, 103
5, 447840, Note_on_c, 0, 45, 0
5, 447840, Note_on_c, 0, 50, 81
5, 448320, Note_on_c, 0, 50, 0
5, 449280, Control_c, 0, 64, 0
5, 450240, Note_on_c, 0, 42, 85
5, 450720, Note_on_c, 0, 42, 0
5, 450720, Note_on_c, 0, 43, 86
5, 451680, Note_on_c, 0, 43, 0
5, 451680, Note_on_c, 0, 44, 90
5, 452160, Note_on_c, 0, 44, 0
5, 452160, Note_on_c, 0, 45, 100
5, 453120, Note_on_c, 0, 45, 0
5, 453120, Note_on_c, 0, 45, 103
5, 453600, Note_on_c, 0, 45, 0
5, 453600, Note_on_c, 0, 50, 96
5, 453960, Note_on_c, 0, 50, 0
5, 455040, Note_on_c, 0, 50, 90
5, 456480, Note_on_c, 0, 50, 0
5, 456480, Note_on_c, 0, 49, 77
5, 457920, Note_on_c, 0, 49, 0
5, 457920, Note_on_c, 0, 47, 72
5, 459360, Note_on_c, 0, 47, 0
5, 459360, Note_on_c, 0, 45, 68
5, 459840, Note_on_c, 0, 45, 0
5, 460800, Note_on_c, 0, 55, 81
5, 462240, Note_on_c, 0, 55, 0
5, 462240, Note_on_c, 0, 54, 72
5, 463680, Note_on_c, 0, 54, 0
5, 463680, Note_on_c, 0, 52, 68
5, 465120, Note_on_c, 0, 52, 0
5, 465120, Note_on_c, 0, 50, 63
5, 465600, Note_on_c, 0, 50, 0
5, 466560, Note_on_c, 0, 50, 85
5, 468000, Note_on_c, 0, 50, 0
5, 468000, Note_on_c, 0, 49, 76
5, 469440, Note_on_c, 0, 49, 0
5, 469440, Note_on_c, 0, 47, 74
5, 470880, Note_on_c, 0, 47, 0
5, 470880, Note_on_c, 0, 45, 72
5, 471360, Note_on_c, 0, 45, 0
5, 472320, Note_on_c, 0, 55, 77
5, 473760, Note_on_c, 0, 55, 0
5, 473760, Note_on_c, 0, 54, 68
5, 475200, Note_on_c, 0, 54, 0
5, 475200, Note_on_c, 0, 52, 66
5, 476640, Note_on_c, 0, 52, 0
5, 476640, Note_on_c, 0, 50, 64
5, 477120, Note_on_c, 0, 50, 0
5, 478080, Note_on_c, 0, 71, 67
5, 479520, Note_on_c, 0, 71, 0
5, 479520, Note_on_c, 0, 69, 60
5, 480000, Note_on_c, 0, 69, 0
5, 480960, Control_c, 0, 64, 0
5, 480960, Note_on_c, 0, 59, 67
5, 482400, Note_on_c, 0, 59, 0
5, 482400, Note_on_c, 0, 57, 60
5, 482880, Note_on_c, 0, 57, 0
5, 483840, Note_on_c, 0, 47, 65
5, 485280, Note_on_c, 0, 47, 0
5, 485280, Note_on_c, 0, 45, 56
5, 485760, Note_on_c, 0, 45, 0
5, 491520, Note_on_c, 0, 54, 49
5, 491760, Note_on_c, 0, 54, 0
5, 492000, Note_on_c, 0, 54, 50
5, 492240, Note_on_c, 0, 54, 0
5, 492960, Note_on_c, 0, 47, 51
5, 493200, Note_on_c, 0, 47, 0
5, 493440, Note_on_c, 0, 47, 51
5, 493680, Note_on_c, 0, 47, 0
5, 494400, Note_on_c, 0, 42, 52
5, 494640, Note_on_c, 0, 42, 0
5, 494880, Note_on_c, 0, 42, 53
5, 495120, Note_on_c, 0, 42, 0
5, 495840, Note_on_c, 0, 35, 54
5, 496080, Note_on_c, 0, 35, 0
5, 496320, Note_on_c, 0, 35, 54
5, 496560, Note_on_c, 0, 35, 0
5, 497280, Note_on_c, 0, 59, 55
5, 497520, Note_on_c, 0, 59, 0
5, 497760, Note_on_c, 0, 59, 56
5, 498000, Note_on_c, 0, 59, 0
5, 498720, Note_on_c, 0, 47, 57
5, 498960, Note_on_c, 0, 47, 0
5, 499200, Note_on_c, 0, 47, 57
5, 499440, Note_on_c, 0, 47, 0
5, 500160, Note_on_c, 0, 57, 58
5, 500400, Note_on_c, 0, 57, 0
5, 500640, Note_on_c, 0, 45, 56
5, 500880, Note_on_c, 0, 45, 0
5, 501120, Note_on_c, 0, 50, 56
5, 501300, Note_on_c, 0, 50, 0
5, 501360, Note_on_c, 0, 66, 62
5, 501600, Note_on_c, 0, 66, 0
5, 501600, Note_on_c, 0, 64, 60
5, 501840, Note_on_c, 0, 64, 0
5, 501840, Note_on_c, 0, 62, 58
5, 502080, Note_on_c, 0, 62, 0
5, 502080, Note_on_c, 0, 61, 55
5, 502320, Note_on_c, 0, 61, 0
5, 502320, Note_on_c, 0, 59, 53
5, 502560, Note_on_c, 0, 59, 0
5, 503040, Note_on_c, 0, 54, 55
5, 503280, Note_on_c, 0, 54, 0
5, 503520, Note_on_c, 0, 54, 56
5, 503760, Note_on_c, 0, 54, 0
5, 504480, Note_on_c, 0, 54, 58
5, 504720, Note_on_c, 0, 54, 0
5, 504960, Note_on_c, 0, 54, 58
5, 505200, Note_on_c, 0, 54, 0
5, 505920, Note_on_c, 0, 54, 60
5, 506160, Note_on_c, 0, 54, 0
5, 506400, Note_on_c, 0, 54, 61
5, 506640, Note_on_c, 0, 54, 0
5, 507360, Note_on_c, 0, 54, 62
5, 507600, Note_on_c, 0, 54, 0
5, 507840, Note_on_c, 0, 54, 63
5, 508080, Note_on_c, 0, 54, 0
5, 508800, Note_on_c, 0, 55, 65
5, 509040, Note_on_c, 0, 55, 0
5, 509280, Note_on_c, 0, 55, 65
5, 509520, Note_on_c, 0, 55, 0
5, 510240, Note_on_c, 0, 55, 67
5, 510480, Note_on_c, 0, 55, 0
5, 510720, Note_on_c, 0, 55, 68
5, 510960, Note_on_c, 0, 55, 0
5, 511200, Note_on_c, 0, 54, 58
5, 513600, Note_on_c, 0, 54, 0
5, 513600, Note_on_c, 0, 55, 55
5, 514080, Note_on_c, 0, 55, 0
5, 514080, Note_on_c, 0, 54, 55
5, 515040, Note_on_c, 0, 54, 0
5, 515040, Note_on_c, 0, 55, 57
5, 515520, Note_on_c, 0, 55, 0
5, 515520, Note_on_c, 0, 54, 57
5, 516480, Note_on_c, 0, 54, 0
5, 516480, Note_on_c, 0, 55, 59
5, 516960, Note_on_c, 0, 55, 0
5, 516960, Note_on_c, 0, 54, 60
5, 519360, Note_on_c, 0, 54, 0
5, 519360, Note_on_c, 0, 51, 63
5, 519840, Note_on_c, 0, 51, 0
5, 519840, Note_on_c, 0, 52, 64
5, 520800, Note_on_c, 0, 52, 0
5, 520800, Note_on_c, 0, 51, 65
5, 521280, Note_on_c, 0, 51, 0
5, 521280, Note_on_c, 0, 52, 66
5, 522240, Note_on_c, 0, 52, 0
5, 522240, Note_on_c, 0, 51, 67
5, 522720, Note_on_c, 0, 51, 0
5, 522720, Note_on_c, 0, 52, 68
5, 525600, Note_on_c, 0, 52, 0
5, 525600, Note_on_c, 0, 52, 72
5, 526560, Note_on_c, 0, 52, 0
5, 526560, Note_on_c, 0, 51, 74
5, 527040, Note_on_c, 0, 51, 0
5, 527040, Note_on_c, 0, 52, 74
5, 528000, Note_on_c, 0, 52, 0
5, 528000, Note_on_c, 0, 51, 76
5, 528480, Note_on_c, 0, 51, 0
5, 528480, Note_on_c, 0, 52, 76
5, 530880, Note_on_c, 0, 52, 0
5, 530880, Note_on_c, 0, 52, 80
5, 531360, Note_on_c, 0, 52, 0
5, 531360, Note_on_c, 0, 50, 82
5, 532320, Note_on_c, 0, 50, 0
5, 532320, Note_on_c, 0, 52, 81
5, 532800, Note_on_c, 0, 52, 0
5, 532800, Note_on_c, 0, 50, 80
5, 533760, Note_on_c, 0, 50, 0
5, 533760, Note_on_c, 0, 49, 79
5, 534240, Note_on_c, 0, 49, 0
5, 534240, Note_on_c, 0, 47, 78
5, 536640, Note_on_c, 0, 47, 0
5, 536640, Note_on_c, 0, 49, 74
5, 537120, Note_on_c, 0, 49, 0
5, 537120, Note_on_c, 0, 47, 74
5, 538080, Note_on_c, 0, 47, 0
5, 538080, Note_on_c, 0, 49, 72
5, 538560, Note_on_c, 0, 49, 0
5, 538560, Note_on_c, 0, 47, 71
5, 539520, Note_on_c, 0, 47, 0
5, 539520, Note_on_c, 0, 45, 70
5, 540000, Note_on_c, 0, 45, 0
5, 540000, Note_on_c, 0, 43, 69
5, 542400, Note_on_c, 0, 43, 0
5, 542400, Note_on_c, 0, 45, 72
5, 542880, Note_on_c, 0, 45, 0
5, 542880, Note_on_c, 0, 43, 74
5, 543840, Note_on_c, 0, 43, 0
5, 543840, Note_on_c, 0, 45, 79
5, 544320, Note_on_c, 0, 45, 0
5, 544320, Note_on_c, 0, 43, 81
5, 545280, Note_on_c, 0, 43, 0
5, 545280, Note_on_c, 0, 40, 90
5, 545760, Note_on_c, 0, 40, 0
5, 545760, Note_on_c, 0, 42, 85
5, 546720, Note_on_c, 0, 42, 0
5, 546720, Note_on_c, 0, 37, 95
5, 547200, Note_on_c, 0, 37, 0
5, 547200, Note_on_c, 0, 38, 91
5, 548160, Note_on_c, 0, 38, 0
5, 548160, Note_on_c, 0, 35, 104
5, 548640, Note_on_c, 0, 35, 0
5, 548640, Note_on_c, 0, 30, 99
5, 550080, Note_on_c, 0, 30, 0
5, 551520, Note_on_c, 0, 47, 112
5, 552960, Note_on_c, 0, 47, 0
5, 554400, Note_on_c, 0, 45, 101
5, 554880, Note_on_c, 0, 45, 0
5, 555840, Note_on_c, 0, 45, 95
5, 556320, Note_on_c, 0, 45, 0
5, 557280, Note_on_c, 0, 54, 89
5, 559680, Note_on_c, 0, 54, 0
5, 559680, Note_on_c, 0, 53, 79
5, 560160, Note_on_c, 0, 53, 0
5, 560160, Note_on_c, 0, 54, 79
5, 561120, Note_on_c, 0, 54, 0
5, 561120, Note_on_c, 0, 55, 78
5, 561600, Note_on_c, 0, 55, 0
5, 561600, Note_on_c, 0, 54, 78
5, 562560, Note_on_c, 0, 54, 0
5, 562560, Note_on_c, 0, 52, 78
5, 563040, Note_on_c, 0, 52, 0
5, 563040, Note_on_c, 0, 50, 77
5, 565440, Note_on_c, 0, 50, 0
5, 565440, Note_on_c, 0, 49, 76
5, 565920, Note_on_c, 0, 49, 0
5, 565920, Note_on_c, 0, 50, 76
5, 566880, Note_on_c, 0, 50, 0
5, 566880, Note_on_c, 0, 52, 75
5, 567360, Note_on_c, 0, 52, 0
5, 567360, Note_on_c, 0, 50, 75
5, 568320, Note_on_c, 0, 50, 0
5, 568320, Note_on_c, 0, 49, 74
5, 568800, Note_on_c, 0, 49, 0
5, 568800, Note_on_c, 0, 47, 74
5, 571200, Note_on_c, 0, 47, 0
5, 571200, Note_on_c, 0, 46, 75
5, 571680, Note_on_c, 0, 46, 0
5, 571680, Note_on_c, 0, 47, 78
5, 572640, Note_on_c, 0, 47, 0
5, 572640, Note_on_c, 0, 46, 82
5, 573120, Note_on_c, 0, 46, 0
5, 573120, Note_on_c, 0, 47, 84
5, 574080, Note_on_c, 0, 47, 0
5, 574080, Note_on_c, 0, 45, 89
5, 574560, Note_on_c, 0, 45, 0
5, 574560, Note_on_c, 0, 43, 91
5, 575520, Note_on_c, 0, 43, 0
5, 575520, Note_on_c, 0, 39, 95
5, 576000, Note_on_c, 0, 39, 0
5, 576000, Note_on_c, 0, 40, 98
5, 576960, Note_on_c, 0, 40, 0
5, 576960, Note_on_c, 0, 38, 110
5, 577440, Note_on_c, 0, 38, 0
5, 577440, Note_on_c, 0, 37, 100
5, 578400, Note_on_c, 0, 37, 0
5, 578400, Note_on_c, 0, 32, 113
5, 578880, Note_on_c, 0, 32, 0
5, 578880, Note_on_c, 0, 33, 104
5, 579840, Note_on_c, 0, 33, 0
5, 579840, Note_on_c, 0, 31, 118
5, 580320, Note_on_c, 0, 31, 0
5, 580320, Note_on_c, 0, 30, 120
5, 581760, Note_on_c, 0, 30, 0
5, 583200, Note_on_c, 0, 59, 117
5, 584640, Note_on_c, 0, 59, 0
5, 586080, Note_on_c, 0, 57, 107
5, 587520, Note_on_c, 0, 57, 0
5, 593280, Note_on_c, 0, 57, 77
5, 594720, Note_on_c, 0, 57, 0
5, 594720, Note_on_c, 0, 62, 66
5, 595080, Note_on_c, 0, 62, 0
5, 596160, Note_on_c, 0, 50, 55
5, 596400, Note_on_c, 0, 50, 0
5, 596640, Note_on_c, 0, 50, 56
5, 596880, Note_on_c, 0, 50, 0
5, 597600, Note_on_c, 0, 54, 57
5, 597840, Note_on_c, 0, 54, 0
5, 598080, Note_on_c, 0, 54, 58
5, 598320, Note_on_c, 0, 54, 0
5, 599040, Note_on_c, 0, 57, 59
5, 599280, Note_on_c, 0, 57, 0
5, 599520, Note_on_c, 0, 57, 59
5, 599760, Note_on_c, 0, 57, 0
5, 600480, Note_on_c, 0, 62, 61
5, 600720, Note_on_c, 0, 62, 0
5, 600960, Note_on_c, 0, 62, 61
5, 601200, Note_on_c, 0, 62, 0
5, 601920, Note_on_c, 0, 66, 63
5, 602160, Note_on_c, 0, 66, 0
5, 602400, Note_on_c, 0, 66, 63
5, 602640, Note_on_c, 0, 66, 0
5, 603360, Note_on_c, 0, 67, 64
5, 603600, Note_on_c, 0, 67, 0
5, 603840, Note_on_c, 0, 67, 65
5, 604080, Note_on_c, 0, 67, 0
5, 604800, Note_on_c, 0, 69, 66
5, 605040, Note_on_c, 0, 69, 0
5, 605280, Note_on_c, 0, 69, 64
5, 605520, Note_on_c, 0, 69, 0
5, 606240, Note_on_c, 0, 62, 61
5, 606480, Note_on_c, 0, 62, 0
5, 607680, Note_on_c, 0, 38, 60
5, 607920, Note_on_c, 0, 38, 0
5, 608160, Note_on_c, 0, 38, 60
5, 608400, Note_on_c, 0, 38, 0
5, 609120, Note_on_c, 0, 42, 61
5, 609360, Note_on_c, 0, 42, 0
5, 609600, Note_on_c, 0, 42, 62
5, 609840, Note_on_c, 0, 42, 0
5, 610560, Note_on_c, 0, 45, 63
5, 610800, Note_on_c, 0, 45, 0
5, 611040, Note_on_c, 0, 45, 63
5, 611280, Note_on_c, 0, 45, 0
5, 612000, Note_on_c, 0, 50, 65
5, 612240, Note_on_c, 0, 50, 0
5, 612480, Note_on_c, 0, 50, 65
5, 612720, Note_on_c, 0, 50, 0
5, 613440, Note_on_c, 0, 54, 66
5, 613680, Note_on_c, 0, 54, 0
5, 613920, Note_on_c, 0, 54, 67
5, 614160, Note_on_c, 0, 54, 0
5, 614880, Note_on_c, 0, 55, 68
5, 615120, Note_on_c, 0, 55, 0
5, 615360, Note_on_c, 0, 55, 68
5, 615600, Note_on_c, 0, 55, 0
5, 616320, Note_on_c, 0, 57, 69
5, 616560, Note_on_c, 0, 57, 0
5, 616800, Note_on_c, 0, 57, 70
5, 617040, Note_on_c, 0, 57, 0
5, 617760, Note_on_c, 0, 50, 71
5, 618000, Note_on_c, 0, 50, 0
5, 618240, Note_on_c, 0, 50, 72
5, 618480, Note_on_c, 0, 50, 0
5, 619200, Note_on_c, 0, 54, 73
5, 619440, Note_on_c, 0, 54, 0
5, 619680, Note_on_c, 0, 54, 73
5, 619920, Note_on_c, 0, 54, 0
5, 620640, Note_on_c, 0, 55, 74
5, 620880, Note_on_c, 0, 55, 0
5, 621120, Note_on_c, 0, 55, 75
5, 621360, Note_on_c, 0, 55, 0
5, 622080, Note_on_c, 0, 57, 76
5, 622320, Note_on_c, 0, 57, 0
5, 622560, Note_on_c, 0, 57, 77
5, 622800, Note_on_c, 0, 57, 0
5, 623520, Note_on_c, 0, 50, 78
5, 623760, Note_on_c, 0, 50, 0
5, 624000, Note_on_c, 0, 50, 78
5, 624240, Note_on_c, 0, 50, 0
5, 624960, Note_on_c, 0, 57, 82
5, 625200, Note_on_c, 0, 57, 0
5, 625440, Note_on_c, 0, 57, 78
5, 625680, Note_on_c, 0, 57, 0
5, 626400, Note_on_c, 0, 50, 76
5, 626640, Note_on_c, 0, 50, 0
5, 626880, Note_on_c, 0, 50, 75
5, 627120, Note_on_c, 0, 50, 0
5, 627840, Note_on_c, 0, 45, 73
5, 628080, Note_on_c, 0, 45, 0
5, 628320, Note_on_c, 0, 45, 72
5, 628560, Note_on_c, 0, 45, 0
5, 633600, Note_on_c, 0, 50, 49
5, 635040, Note_on_c, 0, 50, 0
5, 635040, Note_on_c, 0, 42, 49
5, 636480, Note_on_c, 0, 42, 0
5, 636480, Note_on_c, 0, 43, 49
5, 637920, Note_on_c, 0, 43, 0
5, 637920, Note_on_c, 0, 47, 49
5, 639360, Note_on_c, 0, 47, 0
5, 639360, Note_on_c, 0, 52, 55
5, 640800, Note_on_c, 0, 52, 0
5, 640800, Note_on_c, 0, 49, 58
5, 642240, Note_on_c, 0, 49, 0
5, 642240, Note_on_c, 0, 50, 60
5, 643680, Note_on_c, 0, 50, 0
5, 643680, Note_on_c, 0, 42, 62
5, 645120, Note_on_c, 0, 42, 0
5, 645120, Note_on_c, 0, 45, 66
5, 646560, Note_on_c, 0, 45, 0
5, 646560, Note_on_c, 0, 50, 61
5, 647148, Note_on_c, 0, 50, 0
5, 648000, Note_on_c, 0, 45, 66
5, 649440, Note_on_c, 0, 45, 0
5, 649440, Note_on_c, 0, 50, 61
5, 650028, Note_on_c, 0, 50, 0
5, 650880, Note_on_c, 0, 45, 74
5, 652320, Note_on_c, 0, 45, 0
5, 652320, Note_on_c, 0, 50, 70
5, 652908, Note_on_c, 0, 50, 0
5, 653760, Note_on_c, 0, 45, 82
5, 655200, Note_on_c, 0, 45, 0
5, 655200, Note_on_c, 0, 50, 77
5, 655788, Note_on_c, 0, 50, 0
5, 656640, Note_on_c, 0, 45, 89
5, 658080, Note_on_c, 0, 45, 0
5, 658080, Note_on_c, 0, 50, 84
5, 659520, Note_on_c, 0, 50, 0
5, 659520, Note_on_c, 0, 45, 77
5, 660960, Note_on_c, 0, 45, 0
5, 660960, Note_on_c, 0, 42, 71
5, 662400, Note_on_c, 0, 42, 0
5, 662400, Note_on_c, 0, 38, 65
5, 662760, Note_on_c, 0, 38, 0
5, 663840, Note_on_c, 0, 57, 59
5, 663840, Note_on_c, 0, 64, 59
5, 664200, Note_on_c, 0, 64, 0
5, 664200, Note_on_c, 0, 57, 0
5, 665280, Note_on_c, 0, 50, 53
5, 665280, Note_on_c, 0, 62, 53
5, 665640, Note_on_c, 0, 62, 0
5, 665640, Note_on_c, 0, 50, 0
5, 666720, Control_c, 0, 7, 122
5, 666720, Pitch_bend_c, 0, 8192
5, 666720, Control_c, 0, 1, 0
5, 666720, Control_c, 0, 64, 0
5, 666720, Control_c, 0, 93, 41
5, 666720, Control_c, 0, 91, 101
5, 666720, Control_c, 0, 10, 55
5, 667680, Note_on_c, 0, 38, 61
5, 668040, Note_on_c, 0, 38, 0
5, 668160, Note_on_c, 0, 37, 65
5, 668520, Note_on_c, 0, 37, 0
5, 668640, Note_on_c, 0, 38, 70
5, 669052, Note_on_c, 0, 38, 0
5, 669120, Note_on_c, 0, 38, 64
5, 669240, Note_on_c, 0, 38, 0
5, 669360, Note_on_c, 0, 41, 65
5, 669552, Note_on_c, 0, 41, 0
5, 669600, Note_on_c, 0, 46, 67
5, 669792, Note_on_c, 0, 46, 0
5, 669840, Note_on_c, 0, 45, 69
5, 670032, Note_on_c, 0, 45, 0
5, 670080, Note_on_c, 0, 43, 72
5, 670272, Note_on_c, 0, 43, 0
5, 670320, Note_on_c, 0, 44, 74
5, 670512, Note_on_c, 0, 44, 0
5, 670560, Note_on_c, 0, 45, 72
5, 670920, Note_on_c, 0, 45, 0
5, 671040, Note_on_c, 0, 45, 64
5, 671232, Note_on_c, 0, 45, 0
5, 671280, Note_on_c, 0, 43, 62
5, 671472, Note_on_c, 0, 43, 0
5, 671520, Note_on_c, 0, 41, 63
5, 671880, Note_on_c, 0, 41, 0
5, 672000, Note_on_c, 0, 40, 68
5, 672360, Note_on_c, 0, 40, 0
5, 672480, Note_on_c, 0, 41, 72
5, 672840, Note_on_c, 0, 41, 0
5, 672960, Note_on_c, 0, 41, 69
5, 673080, Note_on_c, 0, 41, 0
5, 673200, Note_on_c, 0, 38, 69
5, 673392, Note_on_c, 0, 38, 0
5, 673440, Note_on_c, 0, 40, 72
5, 673800, Note_on_c, 0, 40, 0
5, 673920, Note_on_c, 0, 40, 77
5, 674280, Note_on_c, 0, 40, 0
5, 674400, Note_on_c, 0, 33, 72
5, 674640, Note_on_c, 0, 33, 0
5, 674640, Note_on_c, 0, 34, 62
5, 674880, Note_on_c, 0, 34, 0
5, 674880, Note_on_c, 0, 33, 65
5, 675120, Note_on_c, 0, 33, 0
5, 675120, Note_on_c, 0, 37, 69
5, 675360, Note_on_c, 0, 37, 0
5, 675360, Control_c, 0, 64, 0
5, 675360, Note_on_c, 0, 38, 61
5, 675720, Note_on_c, 0, 38, 0
5, 675840, Note_on_c, 0, 37, 65
5, 676200, Note_on_c, 0, 37, 0
5, 676320, Note_on_c, 0, 38, 70
5, 676732, Note_on_c, 0, 38, 0
5, 676800, Note_on_c, 0, 38, 64
5, 676927, Note_on_c, 0, 38, 0
5, 677040, Note_on_c, 0, 41, 65
5, 677232, Note_on_c, 0, 41, 0
5, 677280, Note_on_c, 0, 46, 67
5, 677472, Note_on_c, 0, 46, 0
5, 677520, Note_on_c, 0, 45, 69
5, 677712, Note_on_c, 0, 45, 0
5, 677760, Note_on_c, 0, 43, 72
5, 677952, Note_on_c, 0, 43, 0
5, 678000, Note_on_c, 0, 44, 74
5, 678192, Note_on_c, 0, 44, 0
5, 678240, Note_on_c, 0, 45, 72
5, 678600, Note_on_c, 0, 45, 0
5, 678720, Note_on_c, 0, 45, 64
5, 678912, Note_on_c, 0, 45, 0
5, 678960, Note_on_c, 0, 43, 62
5, 679152, Note_on_c, 0, 43, 0
5, 679200, Note_on_c, 0, 41, 63
5, 679560, Note_on_c, 0, 41, 0
5, 679680, Note_on_c, 0, 40, 68
5, 680040, Note_on_c, 0, 40, 0
5, 680160, Note_on_c, 0, 41, 72
5, 680520, Note_on_c, 0, 41, 0
5, 680640, Note_on_c, 0, 41, 69
5, 680767, Note_on_c, 0, 41, 0
5, 680880, Note_on_c, 0, 38, 69
5, 681072, Note_on_c, 0, 38, 0
5, 681120, Note_on_c, 0, 40, 72
5, 681480, Note_on_c, 0, 40, 0
5, 681600, Note_on_c, 0, 40, 77
5, 681960, Note_on_c, 0, 40, 0
5, 682080, Note_on_c, 0, 33, 72
5, 682320, Note_on_c, 0, 33, 0
5, 682320, Note_on_c, 0, 34, 62
5, 682560, Note_on_c, 0, 34, 0
5, 682560, Note_on_c, 0, 33, 65
5, 682800, Note_on_c, 0, 33, 0
5, 682800, Note_on_c, 0, 32, 69
5, 683040, Note_on_c, 0, 32, 0
5, 683040, Note_on_c, 0, 33, 59
5, 683520, Note_on_c, 0, 33, 0
5, 690720, Note_on_c, 0, 38, 59
5, 691080, Note_on_c, 0, 38, 0
5, 691200, Note_on_c, 0, 37, 63
5, 691560, Note_on_c, 0, 37, 0
5, 691680, Note_on_c, 0, 38, 68
5, 692040, Note_on_c, 0, 38, 0
5, 692160, Note_on_c, 0, 38, 61
5, 692287, Note_on_c, 0, 38, 0
5, 692400, Note_on_c, 0, 35, 72
5, 692592, Note_on_c, 0, 35, 0
5, 692640, Note_on_c, 0, 36, 70
5, 693000, Note_on_c, 0, 36, 0
5, 693120, Note_on_c, 0, 36, 65
5, 693247, Note_on_c, 0, 36, 0
5, 693360, Note_on_c, 0, 37, 76
5, 693552, Note_on_c, 0, 37, 0
5, 693600, Note_on_c, 0, 38, 74
5, 693960, Note_on_c, 0, 38, 0
5, 694080, Note_on_c, 0, 38, 70
5, 694207, Note_on_c, 0, 38, 0
5, 694320, Note_on_c, 0, 42, 86
5, 694512, Note_on_c, 0, 42, 0
5, 694560, Note_on_c, 0, 43, 84
5, 694752, Note_on_c, 0, 43, 0
5, 694800, Note_on_c, 0, 46, 81
5, 694992, Note_on_c, 0, 46, 0
5, 695040, Note_on_c, 0, 45, 78
5, 695232, Note_on_c, 0, 45, 0
5, 695280, Note_on_c, 0, 33, 75
5, 695472, Note_on_c, 0, 33, 0
5, 695520, Note_on_c, 0, 38, 69
5, 695712, Note_on_c, 0, 38, 0
5, 696000, Note_on_c, 0, 38, 57
5, 696192, Note_on_c, 0, 38, 0
5, 696480, Control_c, 0, 64, 0
5, 696480, Note_on_c, 0, 33, 59
5, 696960, Note_on_c, 0, 33, 0
5, 704160, Note_on_c, 0, 38, 59
5, 704520, Note_on_c, 0, 38, 0
5, 704640, Note_on_c, 0, 37, 63
5, 705000, Note_on_c, 0, 37, 0
5, 705120, Note_on_c, 0, 38, 68
5, 705480, Note_on_c, 0, 38, 0
5, 705600, Note_on_c, 0, 38, 61
5, 705720, Note_on_c, 0, 38, 0
5, 705840, Note_on_c, 0, 35, 72
5, 706032, Note_on_c, 0, 35, 0
5, 706080, Note_on_c, 0, 36, 70
5, 706440, Note_on_c, 0, 36, 0
5, 706560, Note_on_c, 0, 36, 65
5, 706687, Note_on_c, 0, 36, 0
5, 706800, Note_on_c, 0, 37, 76
5, 706992, Note_on_c, 0, 37, 0
5, 707040, Note_on_c, 0, 38, 74
5, 707400, Note_on_c, 0, 38, 0
5, 707520, Note_on_c, 0, 38, 70
5, 707640, Note_on_c, 0, 38, 0
5, 707760, Note_on_c, 0, 42, 86
5, 707952, Note_on_c, 0, 42, 0
5, 708000, Note_on_c, 0, 43, 84
5, 708192, Note_on_c, 0, 43, 0
5, 708240, Note_on_c, 0, 46, 81
5, 708432, Note_on_c, 0, 46, 0
5, 708480, Note_on_c, 0, 45, 78
5, 708672, Note_on_c, 0, 45, 0
5, 708720, Note_on_c, 0, 33, 75
5, 708912, Note_on_c, 0, 33, 0
5, 708960, Note_on_c, 0, 38, 69
5, 709152, Note_on_c, 0, 38, 0
5, 709440, Note_on_c, 0, 38, 57
5, 709632, Note_on_c, 0, 38, 0
5, 709920, Note_on_c, 0, 50, 88
5, 710037, Note_on_c, 0, 50, 0
5, 710100, Note_on_c, 0, 50, 84
5, 710139, Note_on_c, 0, 50, 0
5, 710160, Note_on_c, 0, 50, 82
5, 710316, Note_on_c, 0, 50, 0
5, 710880, Note_on_c, 0, 43, 84
5, 710997, Note_on_c, 0, 43, 0
5, 711060, Note_on_c, 0, 43, 81
5, 711099, Note_on_c, 0, 43, 0
5, 711120, Note_on_c, 0, 43, 80
5, 711276, Note_on_c, 0, 43, 0
5, 711840, Note_on_c, 0, 45, 82
5, 711957, Note_on_c, 0, 45, 0
5, 712020, Note_on_c, 0, 45, 78
5, 712059, Note_on_c, 0, 45, 0
5, 712080, Note_on_c, 0, 45, 76
5, 712236, Note_on_c, 0, 45, 0
5, 712800, Note_on_c, 0, 38, 75
5, 712956, Note_on_c, 0, 38, 0
5, 713040, Note_on_c, 0, 33, 74
5, 713196, Note_on_c, 0, 33, 0
5, 713280, Note_on_c, 0, 38, 72
5, 713436, Note_on_c, 0, 38, 0
5, 713760, Note_on_c, 0, 50, 82
5, 713877, Note_on_c, 0, 50, 0
5, 713940, Note_on_c, 0, 50, 79
5, 713979, Note_on_c, 0, 50, 0
5, 714000, Note_on_c, 0, 50, 78
5, 714156, Note_on_c, 0, 50, 0
5, 714720, Note_on_c, 0, 44, 96
5, 714837, Note_on_c, 0, 44, 0
5, 714900, Note_on_c, 0, 44, 94
5, 714939, Note_on_c, 0, 44, 0
5, 714960, Note_on_c, 0, 44, 93
5, 715116, Note_on_c, 0, 44, 0
5, 715680, Note_on_c, 0, 57, 73
5, 715836, Note_on_c, 0, 57, 0
5, 716160, Note_on_c, 0, 52, 69
5, 716316, Note_on_c, 0, 52, 0
5, 716640, Note_on_c, 0, 57, 64
5, 716796, Note_on_c, 0, 57, 0
5, 716880, Note_on_c, 0, 57, 62
5, 717036, Note_on_c, 0, 57, 0
5, 717120, Note_on_c, 0, 57, 60
5, 717276, Note_on_c, 0, 57, 0
5, 717600, Control_c, 0, 64, 0
5, 717600, Note_on_c, 0, 50, 88
5, 717717, Note_on_c, 0, 50, 0
5, 717780, Note_on_c, 0, 50, 84
5, 717819, Note_on_c, 0, 50, 0
5, 717840, Note_on_c, 0, 50, 82
5, 717996, Note_on_c, 0, 50, 0
5, 718560, Note_on_c, 0, 43, 84
5, 718677, Note_on_c, 0, 43, 0
5, 718740, Note_on_c, 0, 43, 81
5, 718779, Note_on_c, 0, 43, 0
5, 718800, Note_on_c, 0, 43, 80
5, 718956, Note_on_c, 0, 43, 0
5, 719520, Note_on_c, 0, 45, 82
5, 719637, Note_on_c, 0, 45, 0
5, 719700, Note_on_c, 0, 45, 78
5, 719739, Note_on_c, 0, 45, 0
5, 719760, Note_on_c, 0, 45, 76
5, 719916, Note_on_c, 0, 45, 0
5, 720480, Note_on_c, 0, 38, 75
5, 720636, Note_on_c, 0, 38, 0
5, 720720, Note_on_c, 0, 33, 74
5, 720876, Note_on_c, 0, 33, 0
5, 720960, Note_on_c, 0, 38, 72
5, 721116, Note_on_c, 0, 38, 0
5, 721440, Note_on_c, 0, 50, 82
5, 721557, Note_on_c, 0, 50, 0
5, 721620, Note_on_c, 0, 50, 79
5, 721659, Note_on_c, 0, 50, 0
5, 721680, Note_on_c, 0, 50, 78
5, 721836, Note_on_c, 0, 50, 0
5, 722400, Note_on_c, 0, 44, 96
5, 722517, Note_on_c, 0, 44, 0
5, 722580, Note_on_c, 0, 44, 94
5, 722619, Note_on_c, 0, 44, 0
5, 722640, Note_on_c, 0, 44, 93
5, 722796, Note_on_c, 0, 44, 0
5, 723360, Note_on_c, 0, 57, 73
5, 723516, Note_on_c, 0, 57, 0
5, 723840, Note_on_c, 0, 52, 69
5, 723996, Note_on_c, 0, 52, 0
5, 724320, Note_on_c, 0, 57, 64
5, 724476, Note_on_c, 0, 57, 0
5, 724560, Note_on_c, 0, 57, 62
5, 724716, Note_on_c, 0, 57, 0
5, 724800, Note_on_c, 0, 57, 60
5, 724956, Note_on_c, 0, 57, 0
5, 725280, Note_on_c, 0, 42, 98
5, 725397, Note_on_c, 0, 42, 0
5, 725460, Note_on_c, 0, 42, 94
5, 725499, Note_on_c, 0, 42, 0
5, 725520, Note_on_c, 0, 42, 93
5, 725676, Note_on_c, 0, 42, 0
5, 726240, Note_on_c, 0, 43, 94
5, 726357, Note_on_c, 0, 43, 0
5, 726420, Note_on_c, 0, 43, 91
5, 726459, Note_on_c, 0, 43, 0
5, 726480, Note_on_c, 0, 43, 90
5, 726636, Note_on_c, 0, 43, 0
5, 726960, Note_on_c, 0, 66, 62
5, 727200, Note_on_c, 0, 66, 0
5, 727200, Note_on_c, 0, 67, 64
5, 727440, Note_on_c, 0, 67, 0
5, 727440, Note_on_c, 0, 63, 67
5, 727680, Note_on_c, 0, 63, 0
5, 727680, Note_on_c, 0, 64, 69
5, 727920, Note_on_c, 0, 64, 0
5, 727920, Note_on_c, 0, 66, 71
5, 728160, Note_on_c, 0, 66, 0
5, 728160, Note_on_c, 0, 67, 76
5, 728400, Note_on_c, 0, 67, 0
5, 728400, Note_on_c, 0, 68, 71
5, 728640, Note_on_c, 0, 68, 0
5, 728640, Note_on_c, 0, 69, 66
5, 728880, Note_on_c, 0, 69, 0
5, 729120, Note_on_c, 0, 50, 80
5, 729237, Note_on_c, 0, 50, 0
5, 729300, Note_on_c, 0, 50, 77
5, 729339, Note_on_c, 0, 50, 0
5, 729360, Note_on_c, 0, 50, 76
5, 729516, Note_on_c, 0, 50, 0
5, 730080, Note_on_c, 0, 43, 71
5, 730197, Note_on_c, 0, 43, 0
5, 730260, Note_on_c, 0, 43, 70
5, 730299, Note_on_c, 0, 43, 0
5, 730320, Note_on_c, 0, 43, 69
5, 730476, Note_on_c, 0, 43, 0
5, 731040, Note_on_c, 0, 57, 65
5, 731196, Note_on_c, 0, 57, 0
5, 731520, Note_on_c, 0, 57, 63
5, 731676, Note_on_c, 0, 57, 0
5, 732000, Note_on_c, 0, 62, 60
5, 732156, Note_on_c, 0, 62, 0
5, 732240, Note_on_c, 0, 62, 59
5, 732396, Note_on_c, 0, 62, 0
5, 732480, Note_on_c, 0, 62, 57
5, 732560, Note_on_c, 0, 50, 57
5, 732562, Note_on_c, 0, 62, 0
5, 732637, Note_on_c, 0, 50, 0
5, 732640, Note_on_c, 0, 48, 57
5, 732705, Note_on_c, 0, 48, 0
5, 732720, Note_on_c, 0, 47, 57
5, 732787, Note_on_c, 0, 47, 0
5, 732800, Note_on_c, 0, 45, 59
5, 732870, Note_on_c, 0, 45, 0
5, 732880, Note_on_c, 0, 43, 62
5, 732952, Note_on_c, 0, 43, 0
5, 732960, Note_on_c, 0, 42, 98
5, 733077, Note_on_c, 0, 42, 0
5, 733140, Note_on_c, 0, 42, 94
5, 733179, Note_on_c, 0, 42, 0
5, 733200, Note_on_c, 0, 42, 93
5, 733356, Note_on_c, 0, 42, 0
5, 733920, Note_on_c, 0, 43, 94
5, 734037, Note_on_c, 0, 43, 0
5, 734100, Note_on_c, 0, 43, 91
5, 734139, Note_on_c, 0, 43, 0
5, 734160, Note_on_c, 0, 43, 90
5, 734316, Note_on_c, 0, 43, 0
5, 734640, Note_on_c, 0, 66, 62
5, 734880, Note_on_c, 0, 66, 0
5, 734880, Note_on_c, 0, 67, 64
5, 735120, Note_on_c, 0, 67, 0
5, 735120, Note_on_c, 0, 63, 67
5, 735360, Note_on_c, 0, 63, 0
5, 735360, Note_on_c, 0, 64, 69
5, 735600, Note_on_c, 0, 64, 0
5, 735600, Note_on_c, 0, 66, 71
5, 735840, Note_on_c, 0, 66, 0
5, 735840, Note_on_c, 0, 67, 76
5, 736080, Note_on_c, 0, 67, 0
5, 736080, Note_on_c, 0, 68, 71
5, 736320, Note_on_c, 0, 68, 0
5, 736320, Note_on_c, 0, 69, 66
5, 736560, Note_on_c, 0, 69, 0
5, 736800, Note_on_c, 0, 50, 80
5, 736917, Note_on_c, 0, 50, 0
5, 736980, Note_on_c, 0, 50, 77
5, 737019, Note_on_c, 0, 50, 0
5, 737040, Note_on_c, 0, 50, 76
5, 737196, Note_on_c, 0, 50, 0
5, 737760, Note_on_c, 0, 43, 71
5, 737877, Note_on_c, 0, 43, 0
5, 737940, Note_on_c, 0, 43, 70
5, 737979, Note_on_c, 0, 43, 0
5, 738000, Note_on_c, 0, 43, 69
5, 738156, Note_on_c, 0, 43, 0
5, 738720, Note_on_c, 0, 57, 65
5, 738876, Note_on_c, 0, 57, 0
5, 739200, Note_on_c, 0, 57, 63
5, 739356, Note_on_c, 0, 57, 0
5, 739680, Note_on_c, 0, 62, 60
5, 739836, Note_on_c, 0, 62, 0
5, 739920, Note_on_c, 0, 62, 59
5, 740076, Note_on_c, 0, 62, 0
5, 740160, Note_on_c, 0, 62, 57
5, 740238, Note_on_c, 0, 62, 0
5, 740640, Note_on_c, 0, 38, 61
5, 740994, Note_on_c, 0, 38, 0
5, 741120, Note_on_c, 0, 37, 65
5, 741474, Note_on_c, 0, 37, 0
5, 741600, Note_on_c, 0, 38, 70
5, 741954, Note_on_c, 0, 38, 0
5, 742080, Note_on_c, 0, 38, 63
5, 742308, Note_on_c, 0, 38, 0
5, 742320, Note_on_c, 0, 41, 65
5, 742434, Note_on_c, 0, 41, 0
5, 742560, Note_on_c, 0, 46, 67
5, 742674, Note_on_c, 0, 46, 0
5, 742800, Note_on_c, 0, 45, 69
5, 742914, Note_on_c, 0, 45, 0
5, 743040, Note_on_c, 0, 43, 72
5, 743154, Note_on_c, 0, 43, 0
5, 743280, Note_on_c, 0, 44, 74
5, 743394, Note_on_c, 0, 44, 0
5, 743520, Note_on_c, 0, 45, 72
5, 743880, Note_on_c, 0, 45, 0
5, 744000, Note_on_c, 0, 45, 64
5, 744114, Note_on_c, 0, 45, 0
5, 744240, Note_on_c, 0, 43, 62
5, 744354, Note_on_c, 0, 43, 0
5, 744480, Note_on_c, 0, 41, 63
5, 744834, Note_on_c, 0, 41, 0
5, 744960, Note_on_c, 0, 40, 69
5, 745314, Note_on_c, 0, 40, 0
5, 745440, Note_on_c, 0, 41, 76
5, 745794, Note_on_c, 0, 41, 0
5, 745920, Note_on_c, 0, 41, 64
5, 746047, Note_on_c, 0, 41, 0
5, 746160, Note_on_c, 0, 38, 71
5, 746274, Note_on_c, 0, 38, 0
5, 746400, Note_on_c, 0, 40, 69
5, 746730, Note_on_c, 0, 40, 0
5, 746880, Note_on_c, 0, 40, 70
5, 747210, Note_on_c, 0, 40, 0
5, 747360, Note_on_c, 0, 33, 69
5, 747600, Note_on_c, 0, 33, 0
5, 747600, Note_on_c, 0, 34, 61
5, 747840, Note_on_c, 0, 34, 0
5, 747840, Note_on_c, 0, 33, 65
5, 748080, Note_on_c, 0, 33, 0
5, 748080, Note_on_c, 0, 37, 68
5, 748320, Note_on_c, 0, 37, 0
5, 748320, Note_on_c, 0, 38, 57
5, 748680, Note_on_c, 0, 38, 0
5, 748800, Note_on_c, 0, 37, 59
5, 749160, Note_on_c, 0, 37, 0
5, 749280, Note_on_c, 0, 38, 61
5, 749640, Note_on_c, 0, 38, 0
5, 749760, Note_on_c, 0, 38, 64
5, 749874, Note_on_c, 0, 38, 0
5, 750000, Note_on_c, 0, 41, 65
5, 750114, Note_on_c, 0, 41, 0
5, 750240, Note_on_c, 0, 46, 65
5, 750354, Note_on_c, 0, 46, 0
5, 750480, Note_on_c, 0, 45, 68
5, 750594, Note_on_c, 0, 45, 0
5, 750720, Note_on_c, 0, 43, 71
5, 750834, Note_on_c, 0, 43, 0
5, 750960, Note_on_c, 0, 44, 74
5, 751074, Note_on_c, 0, 44, 0
5, 751200, Note_on_c, 0, 45, 70
5, 751572, Note_on_c, 0, 45, 0
5, 751680, Note_on_c, 0, 45, 65
5, 751788, Note_on_c, 0, 45, 0
5, 751920, Note_on_c, 0, 43, 62
5, 752028, Note_on_c, 0, 43, 0
5, 752160, Note_on_c, 0, 41, 59
5, 752622, Note_on_c, 0, 41, 0
5, 752640, Note_on_c, 0, 40, 61
5, 753102, Note_on_c, 0, 40, 0
5, 753120, Note_on_c, 0, 41, 64
5, 753582, Note_on_c, 0, 41, 0
5, 753600, Note_on_c, 0, 41, 68
5, 753834, Note_on_c, 0, 41, 0
5, 753840, Note_on_c, 0, 38, 70
5, 754074, Note_on_c, 0, 38, 0
5, 754080, Note_on_c, 0, 40, 71
5, 754554, Note_on_c, 0, 40, 0
5, 754560, Note_on_c, 0, 40, 78
5, 755034, Note_on_c, 0, 40, 0
5, 755040, Note_on_c, 0, 33, 83
5, 755274, Note_on_c, 0, 33, 0
5, 755280, Note_on_c, 0, 34, 68
5, 755514, Note_on_c, 0, 34, 0
5, 755520, Note_on_c, 0, 33, 73
5, 755754, Note_on_c, 0, 33, 0
5, 755760, Note_on_c, 0, 32, 79
5, 755994, Note_on_c, 0, 32, 0
5, 756000, Note_on_c, 0, 33, 59
5, 757434, Note_on_c, 0, 33, 0
5, 763680, Note_on_c, 0, 38, 59
5, 764040, Note_on_c, 0, 38, 0
5, 764160, Note_on_c, 0, 37, 63
5, 764520, Note_on_c, 0, 37, 0
5, 764640, Note_on_c, 0, 38, 68
5, 765000, Note_on_c, 0, 38, 0
5, 765120, Note_on_c, 0, 38, 61
5, 765247, Note_on_c, 0, 38, 0
5, 765360, Note_on_c, 0, 35, 72
5, 765486, Note_on_c, 0, 35, 0
5, 765600, Note_on_c, 0, 36, 70
5, 765978, Note_on_c, 0, 36, 0
5, 766080, Note_on_c, 0, 36, 65
5, 766200, Note_on_c, 0, 36, 0
5, 766320, Note_on_c, 0, 37, 80
5, 766434, Note_on_c, 0, 37, 0
5, 766560, Note_on_c, 0, 38, 78
5, 766932, Note_on_c, 0, 38, 0
5, 767040, Note_on_c, 0, 38, 72
5, 767160, Note_on_c, 0, 38, 0
5, 767280, Note_on_c, 0, 42, 88
5, 767406, Note_on_c, 0, 42, 0
5, 767520, Note_on_c, 0, 43, 84
5, 767646, Note_on_c, 0, 43, 0
5, 767760, Note_on_c, 0, 46, 81
5, 767886, Note_on_c, 0, 46, 0
5, 768000, Note_on_c, 0, 45, 78
5, 768126, Note_on_c, 0, 45, 0
5, 768240, Note_on_c, 0, 33, 75
5, 768378, Note_on_c, 0, 33, 0
5, 768480, Note_on_c, 0, 38, 69
5, 768618, Note_on_c, 0, 38, 0
5, 768960, Note_on_c, 0, 38, 57
5, 769098, Note_on_c, 0, 38, 0
5, 769440, Note_on_c, 0, 33, 59
5, 771000, Note_on_c, 0, 33, 0
5, 777120, Note_on_c, 0, 38, 73
5, 777588, Note_on_c, 0, 38, 0
5, 777600, Note_on_c, 0, 37, 75
5, 778068, Note_on_c, 0, 37, 0
5, 778080, Note_on_c, 0, 38, 76
5, 778548, Note_on_c, 0, 38, 0
5, 778560, Note_on_c, 0, 38, 78
5, 778794, Note_on_c, 0, 38, 0
5, 778800, Note_on_c, 0, 35, 89
5, 779034, Note_on_c, 0, 35, 0
5, 779040, Note_on_c, 0, 36, 80
5, 779508, Note_on_c, 0, 36, 0
5, 779520, Note_on_c, 0, 36, 82
5, 779754, Note_on_c, 0, 36, 0
5, 779760, Note_on_c, 0, 37, 93
5, 779994, Note_on_c, 0, 37, 0
5, 780000, Note_on_c, 0, 38, 83
5, 780468, Note_on_c, 0, 38, 0
5, 780480, Note_on_c, 0, 38, 86
5, 780714, Note_on_c, 0, 38, 0
5, 780720, Note_on_c, 0, 41, 87
5, 780954, Note_on_c, 0, 41, 0
5, 780960, Note_on_c, 0, 43, 88
5, 781194, Note_on_c, 0, 43, 0
5, 781200, Note_on_c, 0, 46, 90
5, 781434, Note_on_c, 0, 46, 0
5, 781440, Note_on_c, 0, 45, 91
5, 781674, Note_on_c, 0, 45, 0
5, 781680, Note_on_c, 0, 45, 92
5, 781914, Note_on_c, 0, 45, 0
5, 781920, Note_on_c, 0, 50, 95
5, 782154, Note_on_c, 0, 50, 0
5, 782160, Note_on_c, 0, 50, 98
5, 782388, Note_on_c, 0, 50, 0
5, 782400, Note_on_c, 0, 50, 102
5, 782460, Note_on_c, 0, 50, 0
5, 782460, Note_on_c, 0, 58, 104
5, 782520, Note_on_c, 0, 58, 0
5, 782520, Note_on_c, 0, 57, 99
5, 782580, Note_on_c, 0, 57, 0
5, 782580, Note_on_c, 0, 56, 94
5, 782640, Note_on_c, 0, 56, 0
5, 782640, Note_on_c, 0, 57, 88
5, 782700, Note_on_c, 0, 57, 0
5, 782700, Note_on_c, 0, 55, 83
5, 782760, Note_on_c, 0, 55, 0
5, 782760, Note_on_c, 0, 53, 77
5, 782820, Note_on_c, 0, 53, 0
5, 782820, Note_on_c, 0, 52, 72
5, 782880, Note_on_c, 0, 52, 0
5, 782880, Note_on_c, 0, 50, 66
5, 783360, Note_on_c, 0, 50, 0
5, 783360, Note_on_c, 0, 49, 63
5, 783840, Note_on_c, 0, 49, 0
5, 783840, Note_on_c, 0, 50, 66
5, 784440, Note_on_c, 0, 50, 0
5, 784560, Note_on_c, 0, 41, 59
5, 784752, Note_on_c, 0, 41, 0
5, 784800, Note_on_c, 0, 43, 61
5, 784992, Note_on_c, 0, 43, 0
5, 785040, Note_on_c, 0, 45, 65
5, 785232, Note_on_c, 0, 45, 0
5, 785280, Note_on_c, 0, 46, 68
5, 785472, Note_on_c, 0, 46, 0
5, 785520, Note_on_c, 0, 45, 72
5, 785712, Note_on_c, 0, 45, 0
5, 785760, Note_on_c, 0, 43, 63
5, 786607, Note_on_c, 0, 43, 0
5, 786720, Note_on_c, 0, 44, 66
5, 786912, Note_on_c, 0, 44, 0
5, 786960, Note_on_c, 0, 45, 71
5, 787152, Note_on_c, 0, 45, 0
5, 787200, Note_on_c, 0, 47, 76
5, 787392, Note_on_c, 0, 47, 0
5, 787440, Note_on_c, 0, 45, 81
5, 787632, Note_on_c, 0, 45, 0
5, 787680, Note_on_c, 0, 44, 72
5, 788520, Note_on_c, 0, 44, 0
5, 788640, Note_on_c, 0, 33, 59
5, 788757, Note_on_c, 0, 33, 0
5, 788820, Note_on_c, 0, 33, 57
5, 788859, Note_on_c, 0, 33, 0
5, 788880, Note_on_c, 0, 33, 56
5, 789005, Note_on_c, 0, 33, 0
5, 789600, Note_on_c, 0, 45, 74
5, 789717, Note_on_c, 0, 45, 0
5, 789780, Note_on_c, 0, 45, 72
5, 789819, Note_on_c, 0, 45, 0
5, 789840, Note_on_c, 0, 45, 71
5, 789960, Note_on_c, 0, 45, 0
5, 790560, Note_on_c, 0, 45, 91
5, 790677, Note_on_c, 0, 45, 0
5, 790740, Note_on_c, 0, 45, 88
5, 790779, Note_on_c, 0, 45, 0
5, 790800, Note_on_c, 0, 45, 86
5, 790915, Note_on_c, 0, 45, 0
5, 793680, Note_on_c, 0, 43, 94
5, 794220, Note_on_c, 0, 43, 0
5, 794220, Note_on_c, 0, 41, 78
5, 794280, Note_on_c, 0, 41, 0
5, 794280, Note_on_c, 0, 39, 77
5, 794340, Note_on_c, 0, 39, 0
5, 794340, Note_on_c, 0, 38, 75
5, 794400, Note_on_c, 0, 38, 0
5, 794400, Note_on_c, 0, 37, 75
5, 795360, Note_on_c, 0, 37, 0
5, 795360, Note_on_c, 0, 38, 66
5, 795840, Note_on_c, 0, 38, 0
5, 795840, Note_on_c, 0, 31, 64
5, 796320, Note_on_c, 0, 31, 0
5, 796320, Note_on_c, 0, 33, 61
5, 796800, Note_on_c, 0, 45, 59
5, 797280, Note_on_c, 0, 45, 0
5, 797280, Note_on_c, 0, 33, 0
5, 797280, Note_on_c, 0, 38, 56
5, 798480, Note_on_c, 0, 38, 0
5, 798480, Note_on_c, 0, 38, 51
5, 799440, Note_on_c, 0, 38, 0
5, 800160, Control_c, 0, 7, 122
5, 800160, Pitch_bend_c, 0, 8192
5, 800160, Control_c, 0, 1, 0
5, 800160, Control_c, 0, 64, 0
5, 800160, Control_c, 0, 93, 28
5, 800160, Control_c, 0, 91, 91
5, 800160, Control_c, 0, 10, 55
5, 800880, Control_c, 0, 64, 127
5, 803040, Note_on_c, 0, 42, 60
5, 803760, Note_on_c, 0, 42, 0
5, 803760, Control_c, 0, 64, 0
5, 803760, Note_on_c, 0, 54, 60
5, 803760, Note_on_c, 0, 50, 60
5, 803880, Note_on_c, 0, 50, 0
5, 803880, Note_on_c, 0, 54, 0
5, 804000, Note_on_c, 0, 54, 59
5, 804000, Note_on_c, 0, 50, 59
5, 804120, Note_on_c, 0, 50, 0
5, 804120, Note_on_c, 0, 54, 0
5, 804480, Note_on_c, 0, 52, 58
5, 804480, Note_on_c, 0, 47, 58
5, 804480, Note_on_c, 0, 43, 58
5, 804600, Note_on_c, 0, 43, 0
5, 804600, Note_on_c, 0, 47, 0
5, 804600, Note_on_c, 0, 52, 0
5, 804720, Note_on_c, 0, 47, 57
5, 804720, Note_on_c, 0, 52, 57
5, 804720, Note_on_c, 0, 43, 57
5, 804840, Note_on_c, 0, 43, 0
5, 804840, Note_on_c, 0, 52, 0
5, 804840, Note_on_c, 0, 47, 0
5, 805200, Note_on_c, 0, 45, 56
5, 805200, Note_on_c, 0, 55, 56
5, 805200, Note_on_c, 0, 52, 56
5, 805320, Note_on_c, 0, 52, 0
5, 805320, Note_on_c, 0, 55, 0
5, 805320, Note_on_c, 0, 45, 0
5, 805440, Note_on_c, 0, 45, 56
5, 805440, Note_on_c, 0, 52, 56
5, 805440, Note_on_c, 0, 55, 56
5, 805560, Note_on_c, 0, 55, 0
5, 805560, Note_on_c, 0, 52, 0
5, 805560, Note_on_c, 0, 45, 0
5, 805920, Note_on_c, 0, 50, 54
5, 805920, Note_on_c, 0, 54, 54
5, 806100, Note_on_c, 0, 54, 0
5, 806100, Note_on_c, 0, 50, 0
5, 806160, Note_on_c, 0, 54, 49
5, 806160, Note_on_c, 0, 50, 49
5, 806280, Note_on_c, 0, 50, 0
5, 806280, Note_on_c, 0, 54, 0
5, 806640, Control_c, 0, 64, 127
5, 808800, Note_on_c, 0, 45, 77
5, 809520, Note_on_c, 0, 45, 0
5, 809520, Control_c, 0, 64, 0
5, 809520, Note_on_c, 0, 49, 76
5, 809520, Note_on_c, 0, 57, 76
5, 809520, Note_on_c, 0, 52, 76
5, 809640, Note_on_c, 0, 52, 0
5, 809640, Note_on_c, 0, 57, 0
5, 809640, Note_on_c, 0, 49, 0
5, 809760, Note_on_c, 0, 52, 75
5, 809760, Note_on_c, 0, 57, 75
5, 809760, Note_on_c, 0, 49, 75
5, 809880, Note_on_c, 0, 49, 0
5, 809880, Note_on_c, 0, 57, 0
5, 809880, Note_on_c, 0, 52, 0
5, 810240, Note_on_c, 0, 54, 74
5, 810240, Note_on_c, 0, 50, 74
5, 810240, Note_on_c, 0, 59, 74
5, 810360, Note_on_c, 0, 59, 0
5, 810360, Note_on_c, 0, 50, 0
5, 810360, Note_on_c, 0, 54, 0
5, 810480, Note_on_c, 0, 54, 74
5, 810480, Note_on_c, 0, 50, 74
5, 810480, Note_on_c, 0, 59, 74
5, 810600, Note_on_c, 0, 59, 0
5, 810600, Note_on_c, 0, 50, 0
5, 810600, Note_on_c, 0, 54, 0
5, 810960, Note_on_c, 0, 52, 72
5, 810960, Note_on_c, 0, 62, 72
5, 810960, Note_on_c, 0, 59, 72
5, 811080, Note_on_c, 0, 59, 0
5, 811080, Note_on_c, 0, 62, 0
5, 811080, Note_on_c, 0, 52, 0
5, 811200, Note_on_c, 0, 52, 72
5, 811200, Note_on_c, 0, 62, 72
5, 811200, Note_on_c, 0, 59, 72
5, 811320, Note_on_c, 0, 59, 0
5, 811320, Note_on_c, 0, 62, 0
5, 811320, Note_on_c, 0, 52, 0
5, 811680, Note_on_c, 0, 57, 71
5, 811680, Note_on_c, 0, 61, 71
5, 811860, Note_on_c, 0, 61, 0
5, 811860, Note_on_c, 0, 57, 0
5, 811920, Note_on_c, 0, 57, 66
5, 811920, Note_on_c, 0, 61, 66
5, 812040, Note_on_c, 0, 61, 0
5, 812040, Note_on_c, 0, 57, 0
5, 812400, Control_c, 0, 64, 127
5, 814560, Note_on_c, 0, 42, 92
5, 814560, Note_on_c, 0, 38, 92
5, 815280, Note_on_c, 0, 38, 0
5, 815280, Note_on_c, 0, 42, 0
5, 815280, Control_c, 0, 64, 0
5, 815280, Note_on_c, 0, 54, 92
5, 815280, Note_on_c, 0, 50, 92
5, 815400, Note_on_c, 0, 50, 0
5, 815400, Note_on_c, 0, 54, 0
5, 815520, Note_on_c, 0, 50, 92
5, 815520, Note_on_c, 0, 54, 92
5, 815640, Note_on_c, 0, 54, 0
5, 815640, Note_on_c, 0, 50, 0
5, 816000, Note_on_c, 0, 43, 91
5, 816000, Note_on_c, 0, 52, 91
5, 816120, Note_on_c, 0, 52, 0
5, 816120, Note_on_c, 0, 43, 0
5, 816240, Note_on_c, 0, 43, 90
5, 816240, Note_on_c, 0, 52, 90
5, 816360, Note_on_c, 0, 52, 0
5, 816360, Note_on_c, 0, 43, 0
5, 816720, Note_on_c, 0, 52, 89
5, 816720, Note_on_c, 0, 45, 89
5, 816840, Note_on_c, 0, 45, 0
5, 816840, Note_on_c, 0, 52, 0
5, 816960, Note_on_c, 0, 45, 89
5, 816960, Note_on_c, 0, 52, 89
5, 817080, Note_on_c, 0, 52, 0
5, 817080, Note_on_c, 0, 45, 0
5, 817440, Note_on_c, 0, 38, 88
5, 817440, Note_on_c, 0, 50, 88
5, 817620, Note_on_c, 0, 50, 0
5, 817620, Note_on_c, 0, 38, 0
5, 817680, Note_on_c, 0, 38, 83
5, 817680, Note_on_c, 0, 50, 83
5, 817800, Note_on_c, 0, 50, 0
5, 817800, Note_on_c, 0, 38, 0
5, 818160, Control_c, 0, 64, 127
5, 820320, Note_on_c, 0, 45, 105
5, 821040, Note_on_c, 0, 45, 0
5, 821040, Control_c, 0, 64, 0
5, 821040, Note_on_c, 0, 52, 86
5, 821040, Note_on_c, 0, 57, 86
5, 821040, Note_on_c, 0, 49, 86
5, 821040, Note_on_c, 0, 64, 86
5, 821160, Note_on_c, 0, 64, 0
5, 821160, Note_on_c, 0, 52, 0
5, 821160, Note_on_c, 0, 57, 0
5, 821160, Note_on_c, 0, 49, 0
5, 821280, Note_on_c, 0, 49, 86
5, 821280, Note_on_c, 0, 57, 86
5, 821280, Note_on_c, 0, 52, 86
5, 821280, Note_on_c, 0, 64, 86
5, 821400, Note_on_c, 0, 64, 0
5, 821400, Note_on_c, 0, 49, 0
5, 821400, Note_on_c, 0, 57, 0
5, 821400, Note_on_c, 0, 52, 0
5, 821760, Note_on_c, 0, 59, 85
5, 821760, Note_on_c, 0, 50, 85
5, 821760, Note_on_c, 0, 54, 85
5, 821760, Note_on_c, 0, 66, 85
5, 821880, Note_on_c, 0, 66, 0
5, 821880, Note_on_c, 0, 59, 0
5, 821880, Note_on_c, 0, 50, 0
5, 821880, Note_on_c, 0, 54, 0
5, 822000, Note_on_c, 0, 59, 84
5, 822000, Note_on_c, 0, 50, 84
5, 822000, Note_on_c, 0, 54, 84
5, 822000, Note_on_c, 0, 66, 84
5, 822120, Note_on_c, 0, 66, 0
5, 822120, Note_on_c, 0, 59, 0
5, 822120, Note_on_c, 0, 50, 0
5, 822120, Note_on_c, 0, 54, 0
5, 822480, Note_on_c, 0, 59, 83
5, 822480, Note_on_c, 0, 52, 83
5, 822480, Note_on_c, 0, 62, 83
5, 822600, Note_on_c, 0, 62, 0
5, 822600, Note_on_c, 0, 52, 0
5, 822600, Note_on_c, 0, 59, 0
5, 822720, Note_on_c, 0, 59, 82
5, 822720, Note_on_c, 0, 62, 82
5, 822720, Note_on_c, 0, 52, 82
5, 822840, Note_on_c, 0, 52, 0
5, 822840, Note_on_c, 0, 62, 0
5, 822840, Note_on_c, 0, 59, 0
5, 823200, Note_on_c, 0, 61, 81
5, 823200, Note_on_c, 0, 57, 81
5, 823200, Note_on_c, 0, 45, 81
5, 823380, Note_on_c, 0, 45, 0
5, 823380, Note_on_c, 0, 57, 0
5, 823380, Note_on_c, 0, 61, 0
5, 823440, Note_on_c, 0, 61, 75
5, 823440, Note_on_c, 0, 57, 75
5, 823440, Note_on_c, 0, 45, 75
5, 823560, Note_on_c, 0, 45, 0
5, 823560, Note_on_c, 0, 57, 0
5, 823560, Note_on_c, 0, 61, 0
5, 823920, Note_on_c, 0, 66, 68
5, 824640, Note_on_c, 0, 66, 0
5, 824640, Note_on_c, 0, 54, 64
5, 825360, Note_on_c, 0, 54, 0
5, 825360, Note_on_c, 0, 42, 66
5, 826080, Note_on_c, 0, 42, 0
5, 826080, Note_on_c, 0, 43, 68
5, 826800, Note_on_c, 0, 43, 0
5, 826800, Note_on_c, 0, 68, 75
5, 827520, Note_on_c, 0, 68, 0
5, 827520, Note_on_c, 0, 56, 71
5, 828240, Note_on_c, 0, 56, 0
5, 828240, Note_on_c, 0, 44, 72
5, 828960, Note_on_c, 0, 44, 0
5, 828960, Note_on_c, 0, 45, 74
5, 829680, Note_on_c, 0, 45, 0
5, 829680, Note_on_c, 0, 70, 83
5, 830400, Note_on_c, 0, 70, 0
5, 830400, Note_on_c, 0, 58, 77
5, 831120, Note_on_c, 0, 58, 0
5, 831120, Note_on_c, 0, 46, 79
5, 831840, Note_on_c, 0, 46, 0
5, 831840, Note_on_c, 0, 47, 80
5, 832560, Note_on_c, 0, 47, 0
5, 832560, Note_on_c, 0, 59, 82
5, 833280, Note_on_c, 0, 59, 0
5, 833280, Note_on_c, 0, 60, 84
5, 834000, Note_on_c, 0, 60, 0
5, 834000, Note_on_c, 0, 61, 79
5, 835440, Note_on_c, 0, 61, 0
5, 835440, Control_c, 0, 64, 127
5, 837600, Note_on_c, 0, 42, 63
5, 837600, Note_on_c, 0, 38, 63
5, 838320, Note_on_c, 0, 38, 0
5, 838320, Note_on_c, 0, 42, 0
5, 838320, Control_c, 0, 64, 0
5, 838320, Note_on_c, 0, 50, 60
5, 838320, Note_on_c, 0, 54, 60
5, 838440, Note_on_c, 0, 54, 0
5, 838440, Note_on_c, 0, 50, 0
5, 838560, Note_on_c, 0, 54, 59
5, 838560, Note_on_c, 0, 50, 59
5, 838680, Note_on_c, 0, 50, 0
5, 838680, Note_on_c, 0, 54, 0
5, 839040, Note_on_c, 0, 52, 58
5, 839040, Note_on_c, 0, 43, 58
5, 839160, Note_on_c, 0, 43, 0
5, 839160, Note_on_c, 0, 52, 0
5, 839280, Note_on_c, 0, 52, 58
5, 839280, Note_on_c, 0, 43, 58
5, 839400, Note_on_c, 0, 43, 0
5, 839400, Note_on_c, 0, 52, 0
5, 839760, Note_on_c, 0, 45, 57
5, 839760, Note_on_c, 0, 52, 57
5, 839880, Note_on_c, 0, 52, 0
5, 839880, Note_on_c, 0, 45, 0
5, 840000, Note_on_c, 0, 52, 56
5, 840000, Note_on_c, 0, 45, 56
5, 840120, Note_on_c, 0, 45, 0
5, 840120, Note_on_c, 0, 52, 0
5, 840480, Note_on_c, 0, 50, 55
5, 840480, Note_on_c, 0, 38, 55
5, 840600, Note_on_c, 0, 38, 0
5, 840600, Note_on_c, 0, 50, 0
5, 840720, Note_on_c, 0, 50, 54
5, 840720, Note_on_c, 0, 38, 54
5, 840840, Note_on_c, 0, 38, 0
5, 840840, Note_on_c, 0, 50, 0
5, 841200, Control_c, 0, 64, 127
5, 843360, Note_on_c, 0, 30, 109
5, 843360, Note_on_c, 0, 33, 109
5, 843360, Note_on_c, 0, 38, 109
5, 844080, Note_on_c, 0, 38, 0
5, 844080, Note_on_c, 0, 33, 0
5, 844080, Note_on_c, 0, 30, 0
5, 844080, Control_c, 0, 64, 0
5, 844080, Note_on_c, 0, 54, 73
5, 844080, Note_on_c, 0, 63, 73
5, 844080, Note_on_c, 0, 57, 73
5, 844080, Note_on_c, 0, 60, 73
5, 844200, Note_on_c, 0, 60, 0
5, 844200, Note_on_c, 0, 54, 0
5, 844200, Note_on_c, 0, 63, 0
5, 844200, Note_on_c, 0, 57, 0
5, 844320, Note_on_c, 0, 63, 72
5, 844320, Note_on_c, 0, 57, 72
5, 844320, Note_on_c, 0, 60, 72
5, 844320, Note_on_c, 0, 54, 72
5, 844440, Note_on_c, 0, 54, 0
5, 844440, Note_on_c, 0, 63, 0
5, 844440, Note_on_c, 0, 57, 0
5, 844440, Note_on_c, 0, 60, 0
5, 844800, Note_on_c, 0, 64, 70
5, 844800, Note_on_c, 0, 59, 70
5, 844800, Note_on_c, 0, 55, 70
5, 844920, Note_on_c, 0, 55, 0
5, 844920, Note_on_c, 0, 59, 0
5, 844920, Note_on_c, 0, 64, 0
5, 845040, Note_on_c, 0, 64, 70
5, 845040, Note_on_c, 0, 59, 70
5, 845040, Note_on_c, 0, 55, 70
5, 845160, Note_on_c, 0, 55, 0
5, 845160, Note_on_c, 0, 59, 0
5, 845160, Note_on_c, 0, 64, 0
5, 845520, Note_on_c, 0, 57, 68
5, 845520, Note_on_c, 0, 64, 68
5, 845520, Note_on_c, 0, 67, 68
5, 845640, Note_on_c, 0, 67, 0
5, 845640, Note_on_c, 0, 64, 0
5, 845640, Note_on_c, 0, 57, 0
5, 845760, Note_on_c, 0, 57, 67
5, 845760, Note_on_c, 0, 64, 67
5, 845760, Note_on_c, 0, 67, 67
5, 845880, Note_on_c, 0, 67, 0
5, 845880, Note_on_c, 0, 64, 0
5, 845880, Note_on_c, 0, 57, 0
5, 846240, Note_on_c, 0, 66, 69
5, 846240, Note_on_c, 0, 62, 69
5, 846360, Note_on_c, 0, 62, 0
5, 846360, Note_on_c, 0, 66, 0
5, 846480, Note_on_c, 0, 62, 72
5, 846600, Note_on_c, 0, 62, 0
5, 846960, Note_on_c, 0, 45, 77
5, 846960, Note_on_c, 0, 52, 77
5, 846960, Note_on_c, 0, 55, 77
5, 847080, Note_on_c, 0, 55, 0
5, 847080, Note_on_c, 0, 52, 0
5, 847080, Note_on_c, 0, 45, 0
5, 847200, Note_on_c, 0, 45, 79
5, 847200, Note_on_c, 0, 52, 79
5, 847200, Note_on_c, 0, 55, 79
5, 847320, Note_on_c, 0, 55, 0
5, 847320, Note_on_c, 0, 52, 0
5, 847320, Note_on_c, 0, 45, 0
5, 847680, Note_on_c, 0, 54, 84
5, 847680, Note_on_c, 0, 50, 84
5, 847800, Note_on_c, 0, 50, 0
5, 847800, Note_on_c, 0, 54, 0
5, 847920, Note_on_c, 0, 50, 87
5, 848040, Note_on_c, 0, 50, 0
5, 848400, Note_on_c, 0, 31, 92
5, 848400, Note_on_c, 0, 43, 92
5, 848520, Note_on_c, 0, 43, 0
5, 848520, Note_on_c, 0, 31, 0
5, 848640, Note_on_c, 0, 31, 94
5, 848640, Note_on_c, 0, 43, 94
5, 848760, Note_on_c, 0, 43, 0
5, 848760, Note_on_c, 0, 31, 0
5, 849120, Note_on_c, 0, 38, 99
5, 849120, Note_on_c, 0, 42, 99
5, 849240, Note_on_c, 0, 42, 0
5, 849240, Note_on_c, 0, 38, 0
5, 849360, Note_on_c, 0, 38, 102
5, 849360, Note_on_c, 0, 42, 102
5, 849480, Note_on_c, 0, 42, 0
5, 849480, Note_on_c, 0, 38, 0
5, 849840, Note_on_c, 0, 38, 107
5, 849840, Note_on_c, 0, 50, 107
5, 849960, Note_on_c, 0, 50, 0
5, 849960, Note_on_c, 0, 38, 0
5, 850560, Control_c, 0, 64, 0
5, 850560, Note_on_c, 0, 42, 61
5, 850790, Note_on_c, 0, 42, 0
5, 850800, Note_on_c, 0, 44, 63
5, 851030, Note_on_c, 0, 44, 0
5, 851040, Note_on_c, 0, 46, 66
5, 851270, Note_on_c, 0, 46, 0
5, 851280, Note_on_c, 0, 47, 68
5, 851510, Note_on_c, 0, 47, 0
5, 851520, Note_on_c, 0, 49, 71
5, 851750, Note_on_c, 0, 49, 0
5, 851760, Note_on_c, 0, 50, 73
5, 851990, Note_on_c, 0, 50, 0
5, 852000, Note_on_c, 0, 52, 76
5, 852230, Note_on_c, 0, 52, 0
5, 852240, Note_on_c, 0, 49, 73
5, 852470, Note_on_c, 0, 49, 0
5, 852480, Note_on_c, 0, 54, 71
5, 852710, Note_on_c, 0, 54, 0
5, 852720, Note_on_c, 0, 50, 69
5, 852950, Note_on_c, 0, 50, 0
5, 852960, Note_on_c, 0, 49, 66
5, 853190, Note_on_c, 0, 49, 0
5, 853200, Note_on_c, 0, 47, 64
5, 853430, Note_on_c, 0, 47, 0
5, 853440, Note_on_c, 0, 46, 61
5, 853670, Note_on_c, 0, 46, 0
5, 853680, Note_on_c, 0, 47, 61
5, 853910, Note_on_c, 0, 47, 0
5, 853920, Note_on_c, 0, 49, 63
5, 854150, Note_on_c, 0, 49, 0
5, 854160, Note_on_c, 0, 50, 65
5, 854390, Note_on_c, 0, 50, 0
5, 854400, Note_on_c, 0, 52, 66
5, 854630, Note_on_c, 0, 52, 0
5, 854640, Note_on_c, 0, 54, 68
5, 854870, Note_on_c, 0, 54, 0
5, 854880, Note_on_c, 0, 55, 70
5, 855110, Note_on_c, 0, 55, 0
5, 855120, Note_on_c, 0, 52, 69
5, 855350, Note_on_c, 0, 52, 0
5, 855360, Note_on_c, 0, 57, 68
5, 855600, Note_on_c, 0, 57, 0
5, 855600, Note_on_c, 0, 54, 66
5, 855830, Note_on_c, 0, 54, 0
5, 855840, Note_on_c, 0, 52, 65
5, 856070, Note_on_c, 0, 52, 0
5, 856080, Note_on_c, 0, 50, 64
5, 856310, Note_on_c, 0, 50, 0
5, 856320, Control_c, 0, 64, 0
5, 856320, Note_on_c, 0, 42, 61
5, 856550, Note_on_c, 0, 42, 0
5, 856560, Note_on_c, 0, 44, 63
5, 856790, Note_on_c, 0, 44, 0
5, 856800, Note_on_c, 0, 46, 66
5, 857030, Note_on_c, 0, 46, 0
5, 857040, Note_on_c, 0, 47, 68
5, 857270, Note_on_c, 0, 47, 0
5, 857280, Note_on_c, 0, 49, 71
5, 857510, Note_on_c, 0, 49, 0
5, 857520, Note_on_c, 0, 50, 73
5, 857750, Note_on_c, 0, 50, 0
5, 857760, Note_on_c, 0, 52, 76
5, 857990, Note_on_c, 0, 52, 0
5, 858000, Note_on_c, 0, 49, 73
5, 858230, Note_on_c, 0, 49, 0
5, 858240, Note_on_c, 0, 54, 71
5, 858470, Note_on_c, 0, 54, 0
5, 858480, Note_on_c, 0, 50, 69
5, 858710, Note_on_c, 0, 50, 0
5, 858720, Note_on_c, 0, 49, 66
5, 858950, Note_on_c, 0, 49, 0
5, 858960, Note_on_c, 0, 47, 64
5, 859190, Note_on_c, 0, 47, 0
5, 859200, Note_on_c, 0, 46, 61
5, 859430, Note_on_c, 0, 46, 0
5, 859440, Note_on_c, 0, 47, 61
5, 859670, Note_on_c, 0, 47, 0
5, 859680, Note_on_c, 0, 49, 63
5, 859910, Note_on_c, 0, 49, 0
5, 859920, Note_on_c, 0, 50, 65
5, 860150, Note_on_c, 0, 50, 0
5, 860160, Note_on_c, 0, 52, 66
5, 860390, Note_on_c, 0, 52, 0
5, 860400, Note_on_c, 0, 54, 68
5, 860630, Note_on_c, 0, 54, 0
5, 860640, Note_on_c, 0, 55, 70
5, 860870, Note_on_c, 0, 55, 0
5, 860880, Note_on_c, 0, 52, 69
5, 861110, Note_on_c, 0, 52, 0
5, 861120, Note_on_c, 0, 57, 68
5, 861360, Note_on_c, 0, 57, 0
5, 861360, Note_on_c, 0, 54, 66
5, 861590, Note_on_c, 0, 54, 0
5, 861600, Note_on_c, 0, 52, 65
5, 861830, Note_on_c, 0, 52, 0
5, 861840, Note_on_c, 0, 50, 64
5, 862070, Note_on_c, 0, 50, 0
5, 862080, Note_on_c, 0, 50, 61
5, 862780, Note_on_c, 0, 50, 0
5, 862800, Note_on_c, 0, 50, 65
5, 863500, Note_on_c, 0, 50, 0
5, 863520, Note_on_c, 0, 50, 70
5, 864220, Note_on_c, 0, 50, 0
5, 864240, Note_on_c, 0, 50, 67
5, 864940, Note_on_c, 0, 50, 0
5, 864960, Note_on_c, 0, 49, 63
5, 865670, Note_on_c, 0, 49, 0
5, 865680, Note_on_c, 0, 47, 66
5, 865920, Note_on_c, 0, 47, 0
5, 865920, Note_on_c, 0, 38, 68
5, 866150, Note_on_c, 0, 38, 0
5, 866160, Note_on_c, 0, 40, 69
5, 866390, Note_on_c, 0, 40, 0
5, 866400, Note_on_c, 0, 42, 70
5, 866630, Note_on_c, 0, 42, 0
5, 866640, Note_on_c, 0, 40, 69
5, 866870, Note_on_c, 0, 40, 0
5, 866880, Note_on_c, 0, 42, 67
5, 867110, Note_on_c, 0, 42, 0
5, 867120, Note_on_c, 0, 35, 65
5, 867240, Note_on_c, 0, 47, 65
5, 867350, Note_on_c, 0, 35, 0
5, 867360, Note_on_c, 0, 47, 0
5, 867360, Note_on_c, 0, 47, 64
5, 867600, Note_on_c, 0, 47, 0
5, 867600, Note_on_c, 0, 49, 64
5, 867830, Note_on_c, 0, 49, 0
5, 867840, Note_on_c, 0, 50, 66
5, 868070, Note_on_c, 0, 50, 0
5, 868080, Note_on_c, 0, 52, 69
5, 868310, Note_on_c, 0, 52, 0
5, 868320, Note_on_c, 0, 54, 71
5, 868550, Note_on_c, 0, 54, 0
5, 868560, Note_on_c, 0, 55, 73
5, 869020, Note_on_c, 0, 55, 0
5, 869040, Note_on_c, 0, 55, 78
5, 869270, Note_on_c, 0, 55, 0
5, 869280, Note_on_c, 0, 56, 80
5, 869750, Note_on_c, 0, 56, 0
5, 869760, Note_on_c, 0, 56, 85
5, 869990, Note_on_c, 0, 56, 0
5, 870000, Note_on_c, 0, 57, 87
5, 870470, Note_on_c, 0, 57, 0
5, 870480, Note_on_c, 0, 57, 92
5, 870710, Note_on_c, 0, 57, 0
5, 870720, Note_on_c, 0, 58, 94
5, 870960, Note_on_c, 0, 59, 92
5, 870970, Note_on_c, 0, 58, 0
5, 871200, Note_on_c, 0, 61, 89
5, 871210, Note_on_c, 0, 59, 0
5, 871430, Note_on_c, 0, 61, 0
5, 871440, Note_on_c, 0, 59, 87
5, 871680, Note_on_c, 0, 50, 85
5, 871690, Note_on_c, 0, 59, 0
5, 871910, Note_on_c, 0, 50, 0
5, 871920, Note_on_c, 0, 52, 82
5, 872150, Note_on_c, 0, 52, 0
5, 872160, Note_on_c, 0, 54, 80
5, 872390, Note_on_c, 0, 54, 0
5, 872400, Note_on_c, 0, 52, 77
5, 872630, Note_on_c, 0, 52, 0
5, 872640, Note_on_c, 0, 54, 75
5, 872870, Note_on_c, 0, 54, 0
5, 872880, Note_on_c, 0, 47, 72
5, 873110, Note_on_c, 0, 47, 0
5, 874320, Control_c, 0, 64, 127
5, 876480, Note_on_c, 0, 42, 60
5, 877200, Note_on_c, 0, 42, 0
5, 877200, Control_c, 0, 64, 0
5, 877200, Note_on_c, 0, 50, 60
5, 877200, Note_on_c, 0, 54, 60
5, 877320, Note_on_c, 0, 54, 0
5, 877320, Note_on_c, 0, 50, 0
5, 877440, Note_on_c, 0, 50, 59
5, 877440, Note_on_c, 0, 54, 59
5, 877560, Note_on_c, 0, 54, 0
5, 877560, Note_on_c, 0, 50, 0
5, 877920, Note_on_c, 0, 43, 58
5, 877920, Note_on_c, 0, 47, 58
5, 877920, Note_on_c, 0, 52, 58
5, 878040, Note_on_c, 0, 52, 0
5, 878040, Note_on_c, 0, 47, 0
5, 878040, Note_on_c, 0, 43, 0
5, 878160, Note_on_c, 0, 43, 57
5, 878160, Note_on_c, 0, 52, 57
5, 878160, Note_on_c, 0, 47, 57
5, 878280, Note_on_c, 0, 47, 0
5, 878280, Note_on_c, 0, 52, 0
5, 878280, Note_on_c, 0, 43, 0
5, 878640, Note_on_c, 0, 52, 56
5, 878640, Note_on_c, 0, 55, 56
5, 878640, Note_on_c, 0, 45, 56
5, 878760, Note_on_c, 0, 45, 0
5, 878760, Note_on_c, 0, 55, 0
5, 878760, Note_on_c, 0, 52, 0
5, 878880, Note_on_c, 0, 55, 56
5, 878880, Note_on_c, 0, 52, 56
5, 878880, Note_on_c, 0, 45, 56
5, 879000, Note_on_c, 0, 45, 0
5, 879000, Note_on_c, 0, 52, 0
5, 879000, Note_on_c, 0, 55, 0
5, 879360, Note_on_c, 0, 54, 54
5, 879360, Note_on_c, 0, 50, 54
5, 879540, Note_on_c, 0, 50, 0
5, 879540, Note_on_c, 0, 54, 0
5, 879600, Note_on_c, 0, 50, 49
5, 879600, Note_on_c, 0, 54, 49
5, 879720, Note_on_c, 0, 54, 0
5, 879720, Note_on_c, 0, 50, 0
5, 880080, Control_c, 0, 64, 127
5, 882240, Note_on_c, 0, 45, 77
5, 882960, Note_on_c, 0, 45, 0
5, 882960, Control_c, 0, 64, 0
5, 882960, Note_on_c, 0, 52, 76
5, 882960, Note_on_c, 0, 57, 76
5, 882960, Note_on_c, 0, 49, 76
5, 883080, Note_on_c, 0, 49, 0
5, 883080, Note_on_c, 0, 57, 0
5, 883080, Note_on_c, 0, 52, 0
5, 883200, Note_on_c, 0, 49, 75
5, 883200, Note_on_c, 0, 57, 75
5, 883200, Note_on_c, 0, 52, 75
5, 883320, Note_on_c, 0, 52, 0
5, 883320, Note_on_c, 0, 57, 0
5, 883320, Note_on_c, 0, 49, 0
5, 883680, Note_on_c, 0, 59, 74
5, 883680, Note_on_c, 0, 50, 74
5, 883680, Note_on_c, 0, 54, 74
5, 883800, Note_on_c, 0, 54, 0
5, 883800, Note_on_c, 0, 50, 0
5, 883800, Note_on_c, 0, 59, 0
5, 883920, Note_on_c, 0, 59, 74
5, 883920, Note_on_c, 0, 50, 74
5, 883920, Note_on_c, 0, 54, 74
5, 884040, Note_on_c, 0, 54, 0
5, 884040, Note_on_c, 0, 50, 0
5, 884040, Note_on_c, 0, 59, 0
5, 884400, Note_on_c, 0, 59, 72
5, 884400, Note_on_c, 0, 62, 72
5, 884400, Note_on_c, 0, 52, 72
5, 884520, Note_on_c, 0, 52, 0
5, 884520, Note_on_c, 0, 62, 0
5, 884520, Note_on_c, 0, 59, 0
5, 884640, Note_on_c, 0, 59, 72
5, 884640, Note_on_c, 0, 62, 72
5, 884640, Note_on_c, 0, 52, 72
5, 884760, Note_on_c, 0, 52, 0
5, 884760, Note_on_c, 0, 62, 0
5, 884760, Note_on_c, 0, 59, 0
5, 885120, Note_on_c, 0, 61, 71
5, 885120, Note_on_c, 0, 57, 71
5, 885300, Note_on_c, 0, 57, 0
5, 885300, Note_on_c, 0, 61, 0
5, 885360, Note_on_c, 0, 61, 66
5, 885360, Note_on_c, 0, 57, 66
5, 885480, Note_on_c, 0, 57, 0
5, 885480, Note_on_c, 0, 61, 0
5, 885840, Control_c, 0, 64, 127
5, 888000, Note_on_c, 0, 38, 92
5, 888000, Note_on_c, 0, 42, 92
5, 888720, Note_on_c, 0, 42, 0
5, 888720, Note_on_c, 0, 38, 0
5, 888720, Control_c, 0, 64, 0
5, 888720, Note_on_c, 0, 50, 92
5, 888720, Note_on_c, 0, 54, 92
5, 888840, Note_on_c, 0, 54, 0
5, 888840, Note_on_c, 0, 50, 0
5, 888960, Note_on_c, 0, 54, 92
5, 888960, Note_on_c, 0, 50, 92
5, 889080, Note_on_c, 0, 50, 0
5, 889080, Note_on_c, 0, 54, 0
5, 889440, Note_on_c, 0, 52, 91
5, 889440, Note_on_c, 0, 43, 91
5, 889560, Note_on_c, 0, 43, 0
5, 889560, Note_on_c, 0, 52, 0
5, 889680, Note_on_c, 0, 52, 90
5, 889680, Note_on_c, 0, 43, 90
5, 889800, Note_on_c, 0, 43, 0
5, 889800, Note_on_c, 0, 52, 0
5, 890160, Note_on_c, 0, 45, 89
5, 890160, Note_on_c, 0, 52, 89
5, 890280, Note_on_c, 0, 52, 0
5, 890280, Note_on_c, 0, 45, 0
5, 890400, Note_on_c, 0, 52, 89
5, 890400, Note_on_c, 0, 45, 89
5, 890520, Note_on_c, 0, 45, 0
5, 890520, Note_on_c, 0, 52, 0
5, 890880, Note_on_c, 0, 50, 88
5, 890880, Note_on_c, 0, 38, 88
5, 891060, Note_on_c, 0, 38, 0
5, 891060, Note_on_c, 0, 50, 0
5, 891120, Note_on_c, 0, 50, 83
5, 891120, Note_on_c, 0, 38, 83
5, 891240, Note_on_c, 0, 38, 0
5, 891240, Note_on_c, 0, 50, 0
5, 891600, Control_c, 0, 64, 127
5, 893760, Note_on_c, 0, 45, 105
5, 894480, Note_on_c, 0, 45, 0
5, 894480, Control_c, 0, 64, 0
5, 894480, Note_on_c, 0, 64, 86
5, 894480, Note_on_c, 0, 49, 86
5, 894480, Note_on_c, 0, 57, 86
5, 894480, Note_on_c, 0, 52, 86
5, 894600, Note_on_c, 0, 52, 0
5, 894600, Note_on_c, 0, 64, 0
5, 894600, Note_on_c, 0, 49, 0
5, 894600, Note_on_c, 0, 57, 0
5, 894720, Note_on_c, 0, 64, 86
5, 894720, Note_on_c, 0, 52, 86
5, 894720, Note_on_c, 0, 57, 86
5, 894720, Note_on_c, 0, 49, 86
5, 894840, Note_on_c, 0, 49, 0
5, 894840, Note_on_c, 0, 64, 0
5, 894840, Note_on_c, 0, 52, 0
5, 894840, Note_on_c, 0, 57, 0
5, 895200, Note_on_c, 0, 66, 85
5, 895200, Note_on_c, 0, 54, 85
5, 895200, Note_on_c, 0, 50, 85
5, 895200, Note_on_c, 0, 59, 85
5, 895320, Note_on_c, 0, 59, 0
5, 895320, Note_on_c, 0, 66, 0
5, 895320, Note_on_c, 0, 54, 0
5, 895320, Note_on_c, 0, 50, 0
5, 895440, Note_on_c, 0, 66, 84
5, 895440, Note_on_c, 0, 54, 84
5, 895440, Note_on_c, 0, 50, 84
5, 895440, Note_on_c, 0, 59, 84
5, 895560, Note_on_c, 0, 59, 0
5, 895560, Note_on_c, 0, 66, 0
5, 895560, Note_on_c, 0, 54, 0
5, 895560, Note_on_c, 0, 50, 0
5, 895920, Note_on_c, 0, 62, 83
5, 895920, Note_on_c, 0, 52, 83
5, 895920, Note_on_c, 0, 59, 83
5, 896040, Note_on_c, 0, 59, 0
5, 896040, Note_on_c, 0, 52, 0
5, 896040, Note_on_c, 0, 62, 0
5, 896160, Note_on_c, 0, 52, 82
5, 896160, Note_on_c, 0, 62, 82
5, 896160, Note_on_c, 0, 59, 82
5, 896280, Note_on_c, 0, 59, 0
5, 896280, Note_on_c, 0, 62, 0
5, 896280, Note_on_c, 0, 52, 0
5, 896640, Note_on_c, 0, 45, 81
5, 896640, Note_on_c, 0, 57, 81
5, 896640, Note_on_c, 0, 61, 81
5, 896820, Note_on_c, 0, 61, 0
5, 896820, Note_on_c, 0, 57, 0
5, 896820, Note_on_c, 0, 45, 0
5, 896880, Note_on_c, 0, 45, 75
5, 896880, Note_on_c, 0, 57, 75
5, 896880, Note_on_c, 0, 61, 75
5, 897000, Note_on_c, 0, 61, 0
5, 897000, Note_on_c, 0, 57, 0
5, 897000, Note_on_c, 0, 45, 0
5, 897360, Note_on_c, 0, 66, 71
5, 898080, Note_on_c, 0, 66, 0
5, 898080, Note_on_c, 0, 54, 64
5, 898800, Note_on_c, 0, 54, 0
5, 898800, Note_on_c, 0, 42, 66
5, 899520, Note_on_c, 0, 42, 0
5, 899520, Note_on_c, 0, 43, 68
5, 900240, Note_on_c, 0, 43, 0
5, 900240, Note_on_c, 0, 68, 77
5, 900960, Note_on_c, 0, 68, 0
5, 900960, Note_on_c, 0, 56, 71
5, 901680, Note_on_c, 0, 56, 0
5, 901680, Note_on_c, 0, 44, 72
5, 902400, Note_on_c, 0, 44, 0
5, 902400, Note_on_c, 0, 45, 74
5, 903120, Note_on_c, 0, 45, 0
5, 903120, Note_on_c, 0, 70, 83
5, 903840, Note_on_c, 0, 70, 0
5, 903840, Note_on_c, 0, 58, 77
5, 904560, Note_on_c, 0, 58, 0
5, 904560, Note_on_c, 0, 46, 79
5, 905280, Note_on_c, 0, 46, 0
5, 905280, Note_on_c, 0, 47, 80
5, 906000, Note_on_c, 0, 47, 0
5, 906000, Note_on_c, 0, 59, 82
5, 906720, Note_on_c, 0, 59, 0
5, 906720, Note_on_c, 0, 60, 84
5, 907440, Note_on_c, 0, 60, 0
5, 907440, Note_on_c, 0, 61, 79
5, 908880, Note_on_c, 0, 61, 0
5, 908880, Control_c, 0, 64, 127
5, 911040, Note_on_c, 0, 38, 63
5, 911040, Note_on_c, 0, 42, 63
5, 911760, Note_on_c, 0, 42, 0
5, 911760, Note_on_c, 0, 38, 0
5, 911760, Control_c, 0, 64, 0
5, 911760, Note_on_c, 0, 54, 60
5, 911760, Note_on_c, 0, 50, 60
5, 911880, Note_on_c, 0, 50, 0
5, 911880, Note_on_c, 0, 54, 0
5, 912000, Note_on_c, 0, 50, 59
5, 912000, Note_on_c, 0, 54, 59
5, 912120, Note_on_c, 0, 54, 0
5, 912120, Note_on_c, 0, 50, 0
5, 912480, Note_on_c, 0, 43, 58
5, 912480, Note_on_c, 0, 52, 58
5, 912600, Note_on_c, 0, 52, 0
5, 912600, Note_on_c, 0, 43, 0
5, 912720, Note_on_c, 0, 43, 58
5, 912720, Note_on_c, 0, 52, 58
5, 912840, Note_on_c, 0, 52, 0
5, 912840, Note_on_c, 0, 43, 0
5, 913200, Note_on_c, 0, 52, 57
5, 913200, Note_on_c, 0, 45, 57
5, 913320, Note_on_c, 0, 45, 0
5, 913320, Note_on_c, 0, 52, 0
5, 913440, Note_on_c, 0, 45, 56
5, 913440, Note_on_c, 0, 52, 56
5, 913560, Note_on_c, 0, 52, 0
5, 913560, Note_on_c, 0, 45, 0
5, 913920, Note_on_c, 0, 38, 55
5, 913920, Note_on_c, 0, 50, 55
5, 914040, Note_on_c, 0, 50, 0
5, 914040, Note_on_c, 0, 38, 0
5, 914160, Note_on_c, 0, 38, 54
5, 914160, Note_on_c, 0, 50, 54
5, 914280, Note_on_c, 0, 50, 0
5, 914280, Note_on_c, 0, 38, 0
5, 914640, Control_c, 0, 64, 127
5, 916800, Note_on_c, 0, 38, 109
5, 916800, Note_on_c, 0, 33, 109
5, 916800, Note_on_c, 0, 30, 109
5, 917520, Note_on_c, 0, 30, 0
5, 917520, Note_on_c, 0, 33, 0
5, 917520, Note_on_c, 0, 38, 0
5, 917520, Control_c, 0, 64, 0
5, 917520, Note_on_c, 0, 60, 73
5, 917520, Note_on_c, 0, 57, 73
5, 917520, Note_on_c, 0, 63, 73
5, 917520, Note_on_c, 0, 54, 73
5, 917640, Note_on_c, 0, 54, 0
5, 917640, Note_on_c, 0, 60, 0
5, 917640, Note_on_c, 0, 57, 0
5, 917640, Note_on_c, 0, 63, 0
5, 917760, Note_on_c, 0, 54, 72
5, 917760, Note_on_c, 0, 60, 72
5, 917760, Note_on_c, 0, 57, 72
5, 917760, Note_on_c, 0, 63, 72
5, 917880, Note_on_c, 0, 63, 0
5, 917880, Note_on_c, 0, 54, 0
5, 917880, Note_on_c, 0, 60, 0
5, 917880, Note_on_c, 0, 57, 0
5, 918240, Note_on_c, 0, 55, 70
5, 918240, Note_on_c, 0, 59, 70
5, 918240, Note_on_c, 0, 64, 70
5, 918360, Note_on_c, 0, 64, 0
5, 918360, Note_on_c, 0, 59, 0
5, 918360, Note_on_c, 0, 55, 0
5, 918480, Note_on_c, 0, 55, 70
5, 918480, Note_on_c, 0, 59, 70
5, 918480, Note_on_c, 0, 64, 70
5, 918600, Note_on_c, 0, 64, 0
5, 918600, Note_on_c, 0, 59, 0
5, 918600, Note_on_c, 0, 55, 0
5, 918960, Note_on_c, 0, 67, 68
5, 918960, Note_on_c, 0, 64, 68
5, 918960, Note_on_c, 0, 57, 68
5, 919080, Note_on_c, 0, 57, 0
5, 919080, Note_on_c, 0, 64, 0
5, 919080, Note_on_c, 0, 67, 0
5, 919200, Note_on_c, 0, 67, 67
5, 919200, Note_on_c, 0, 64, 67
5, 919200, Note_on_c, 0, 57, 67
5, 919320, Note_on_c, 0, 57, 0
5, 919320, Note_on_c, 0, 64, 0
5, 919320, Note_on_c, 0, 67, 0
5, 919680, Note_on_c, 0, 62, 69
5, 919680, Note_on_c, 0, 66, 69
5, 919800, Note_on_c, 0, 66, 0
5, 919800, Note_on_c, 0, 62, 0
5, 919920, Note_on_c, 0, 62, 72
5, 920040, Note_on_c, 0, 62, 0
5, 920400, Note_on_c, 0, 55, 77
5, 920400, Note_on_c, 0, 52, 77
5, 920400, Note_on_c, 0, 45, 77
5, 920520, Note_on_c, 0, 45, 0
5, 920520, Note_on_c, 0, 52, 0
5, 920520, Note_on_c, 0, 55, 0
5, 920640, Note_on_c, 0, 55, 79
5, 920640, Note_on_c, 0, 52, 79
5, 920640, Note_on_c, 0, 45, 79
5, 920760, Note_on_c, 0, 45, 0
5, 920760, Note_on_c, 0, 52, 0
5, 920760, Note_on_c, 0, 55, 0
5, 921120, Note_on_c, 0, 50, 84
5, 921120, Note_on_c, 0, 54, 84
5, 921240, Note_on_c, 0, 54, 0
5, 921240, Note_on_c, 0, 50, 0
5, 921360, Note_on_c, 0, 50, 87
5, 921480, Note_on_c, 0, 50, 0
5, 921840, Note_on_c, 0, 43, 92
5, 921840, Note_on_c, 0, 31, 92
5, 921960, Note_on_c, 0, 31, 0
5, 921960, Note_on_c, 0, 43, 0
5, 922080, Note_on_c, 0, 43, 94
5, 922080, Note_on_c, 0, 31, 94
5, 922200, Note_on_c, 0, 31, 0
5, 922200, Note_on_c, 0, 43, 0
5, 922560, Note_on_c, 0, 42, 99
5, 922560, Note_on_c, 0, 38, 99
5, 922680, Note_on_c, 0, 38, 0
5, 922680, Note_on_c, 0, 42, 0
5, 922800, Note_on_c, 0, 42, 102
5, 922800, Note_on_c, 0, 38, 102
5, 922920, Note_on_c, 0, 38, 0
5, 922920, Note_on_c, 0, 42, 0
5, 923280, Note_on_c, 0, 50, 107
5, 923280, Note_on_c, 0, 38, 107
5, 923400, Note_on_c, 0, 38, 0
5, 923400, Note_on_c, 0, 50, 0
5, 924720, Control_c, 0, 7, 122
5, 924720, Pitch_bend_c, 0, 8192
5, 924720, Control_c, 0, 1, 0
5, 924720, Control_c, 0, 64, 0
5, 924720, Control_c, 0, 93, 28
5, 924720, Control_c, 0, 91, 91
5, 924720, Control_c, 0, 10, 55
5, 925920, Note_on_c, 0, 45, 51
5, 926160, Note_on_c, 0, 45, 0
5, 926160, Note_on_c, 0, 38, 51
5, 926640, Note_on_c, 0, 45, 53
5, 926838, Note_on_c, 0, 38, 0
5, 926880, Note_on_c, 0, 45, 0
5, 926880, Note_on_c, 0, 38, 54
5, 927360, Note_on_c, 0, 47, 55
5, 927558, Note_on_c, 0, 38, 0
5, 927600, Note_on_c, 0, 47, 0
5, 927600, Note_on_c, 0, 38, 56
5, 928080, Note_on_c, 0, 49, 57
5, 928278, Note_on_c, 0, 38, 0
5, 928320, Note_on_c, 0, 49, 0
5, 928320, Note_on_c, 0, 38, 58
5, 928800, Note_on_c, 0, 50, 60
5, 928998, Note_on_c, 0, 38, 0
5, 929040, Note_on_c, 0, 50, 0
5, 929040, Note_on_c, 0, 38, 60
5, 929520, Note_on_c, 0, 42, 57
5, 929718, Note_on_c, 0, 38, 0
5, 929760, Note_on_c, 0, 42, 0
5, 929760, Note_on_c, 0, 38, 56
5, 930240, Note_on_c, 0, 43, 55
5, 930438, Note_on_c, 0, 38, 0
5, 930480, Note_on_c, 0, 43, 0
5, 930480, Note_on_c, 0, 38, 54
5, 930960, Note_on_c, 0, 45, 52
5, 931158, Note_on_c, 0, 38, 0
5, 931200, Note_on_c, 0, 45, 0
5, 931200, Note_on_c, 0, 38, 52
5, 931680, Note_on_c, 0, 45, 49
5, 931878, Note_on_c, 0, 38, 0
5, 931920, Note_on_c, 0, 45, 0
5, 931920, Note_on_c, 0, 38, 49
5, 932400, Note_on_c, 0, 45, 50
5, 932598, Note_on_c, 0, 38, 0
5, 932640, Note_on_c, 0, 45, 0
5, 932640, Note_on_c, 0, 38, 49
5, 933120, Note_on_c, 0, 47, 50
5, 933318, Note_on_c, 0, 38, 0
5, 933360, Note_on_c, 0, 47, 0
5, 933360, Note_on_c, 0, 38, 51
5, 933840, Note_on_c, 0, 49, 53
5, 934038, Note_on_c, 0, 38, 0
5, 934080, Note_on_c, 0, 49, 0
5, 934080, Note_on_c, 0, 38, 54
5, 934560, Note_on_c, 0, 50, 55
5, 934758, Note_on_c, 0, 38, 0
5, 934800, Note_on_c, 0, 50, 0
5, 934800, Note_on_c, 0, 38, 56
5, 935280, Note_on_c, 0, 42, 55
5, 935478, Note_on_c, 0, 38, 0
5, 935520, Note_on_c, 0, 42, 0
5, 935520, Note_on_c, 0, 38, 54
5, 936000, Note_on_c, 0, 43, 53
5, 936198, Note_on_c, 0, 38, 0
5, 936240, Note_on_c, 0, 43, 0
5, 936240, Note_on_c, 0, 38, 53
5, 936720, Note_on_c, 0, 45, 52
5, 936918, Note_on_c, 0, 38, 0
5, 936960, Note_on_c, 0, 45, 0
5, 936960, Note_on_c, 0, 38, 51
5, 937440, Note_on_c, 0, 50, 53
5, 937638, Note_on_c, 0, 38, 0
5, 937680, Note_on_c, 0, 50, 0
5, 937680, Note_on_c, 0, 38, 54
5, 938160, Note_on_c, 0, 52, 55
5, 938358, Note_on_c, 0, 38, 0
5, 938400, Note_on_c, 0, 52, 0
5, 938400, Note_on_c, 0, 38, 56
5, 938880, Note_on_c, 0, 45, 57
5, 939078, Note_on_c, 0, 38, 0
5, 939120, Note_on_c, 0, 45, 0
5, 939120, Note_on_c, 0, 38, 58
5, 939600, Note_on_c, 0, 50, 59
5, 939798, Note_on_c, 0, 38, 0
5, 939840, Note_on_c, 0, 50, 0
5, 939840, Note_on_c, 0, 38, 60
5, 940320, Note_on_c, 0, 45, 62
5, 940518, Note_on_c, 0, 38, 0
5, 940560, Note_on_c, 0, 45, 0
5, 940560, Note_on_c, 0, 38, 62
5, 941040, Note_on_c, 0, 52, 60
5, 941238, Note_on_c, 0, 38, 0
5, 941280, Note_on_c, 0, 52, 0
5, 941280, Note_on_c, 0, 38, 58
5, 941760, Note_on_c, 0, 45, 55
5, 941980, Note_on_c, 0, 38, 0
5, 942000, Note_on_c, 0, 45, 0
5, 942000, Note_on_c, 0, 38, 54
5, 942480, Note_on_c, 0, 50, 51
5, 942700, Note_on_c, 0, 38, 0
5, 942720, Note_on_c, 0, 50, 0
5, 942720, Note_on_c, 0, 38, 47
5, 943200, Note_on_c, 0, 45, 49
5, 943420, Note_on_c, 0, 38, 0
5, 943440, Note_on_c, 0, 45, 0
5, 943440, Note_on_c, 0, 38, 50
5, 943920, Note_on_c, 0, 52, 52
5, 944140, Note_on_c, 0, 38, 0
5, 944160, Note_on_c, 0, 52, 0
5, 944160, Note_on_c, 0, 38, 53
5, 944640, Note_on_c, 0, 45, 55
5, 944860, Note_on_c, 0, 38, 0
5, 944880, Note_on_c, 0, 45, 0
5, 944880, Note_on_c, 0, 38, 56
5, 945360, Note_on_c, 0, 50, 58
5, 945580, Note_on_c, 0, 38, 0
5, 945600, Note_on_c, 0, 50, 0
5, 945600, Note_on_c, 0, 45, 59
5, 946080, Note_on_c, 0, 45, 0
5, 946080, Note_on_c, 0, 42, 61
5, 946320, Note_on_c, 0, 42, 0
5, 946320, Note_on_c, 0, 38, 62
5, 946800, Note_on_c, 0, 52, 61
5, 947020, Note_on_c, 0, 38, 0
5, 947040, Note_on_c, 0, 52, 0
5, 947040, Note_on_c, 0, 38, 60
5, 947520, Note_on_c, 0, 45, 59
5, 947740, Note_on_c, 0, 38, 0
5, 947760, Note_on_c, 0, 45, 0
5, 947760, Note_on_c, 0, 38, 58
5, 948240, Note_on_c, 0, 50, 57
5, 948460, Note_on_c, 0, 38, 0
5, 948480, Note_on_c, 0, 50, 0
5, 948480, Note_on_c, 0, 45, 56
5, 948960, Note_on_c, 0, 45, 0
5, 948960, Note_on_c, 0, 42, 53
5, 949200, Note_on_c, 0, 42, 0
5, 949200, Control_c, 0, 64, 0
5, 949200, Note_on_c, 0, 38, 51
5, 949260, Control_c, 0, 64, 127
5, 949320, Note_on_c, 0, 38, 0
5, 949320, Note_on_c, 0, 42, 51
5, 949440, Note_on_c, 0, 42, 0
5, 949440, Note_on_c, 0, 45, 52
5, 949560, Note_on_c, 0, 45, 0
5, 949560, Note_on_c, 0, 50, 52
5, 949680, Note_on_c, 0, 50, 0
5, 949920, Control_c, 0, 64, 0
5, 949920, Note_on_c, 0, 49, 54
5, 949980, Control_c, 0, 64, 127
5, 950040, Note_on_c, 0, 49, 0
5, 950040, Note_on_c, 0, 52, 54
5, 950160, Note_on_c, 0, 52, 0
5, 950160, Note_on_c, 0, 57, 55
5, 950280, Note_on_c, 0, 57, 0
5, 950280, Note_on_c, 0, 61, 55
5, 950400, Note_on_c, 0, 61, 0
5, 950640, Control_c, 0, 64, 0
5, 950640, Note_on_c, 0, 47, 57
5, 950700, Control_c, 0, 64, 127
5, 950760, Note_on_c, 0, 47, 0
5, 950760, Note_on_c, 0, 50, 57
5, 950880, Note_on_c, 0, 50, 0
5, 950880, Note_on_c, 0, 54, 58
5, 951000, Note_on_c, 0, 54, 0
5, 951000, Note_on_c, 0, 59, 58
5, 951120, Note_on_c, 0, 59, 0
5, 951360, Control_c, 0, 64, 0
5, 951360, Note_on_c, 0, 57, 60
5, 951420, Control_c, 0, 64, 127
5, 951480, Note_on_c, 0, 57, 0
5, 951480, Note_on_c, 0, 61, 60
5, 951600, Note_on_c, 0, 61, 0
5, 951600, Note_on_c, 0, 66, 61
5, 951720, Note_on_c, 0, 66, 0
5, 951720, Note_on_c, 0, 69, 61
5, 951840, Note_on_c, 0, 69, 0
5, 952080, Control_c, 0, 64, 0
5, 952080, Note_on_c, 0, 43, 63
5, 952140, Control_c, 0, 64, 127
5, 952200, Note_on_c, 0, 43, 0
5, 952200, Note_on_c, 0, 47, 63
5, 952320, Note_on_c, 0, 47, 0
5, 952320, Note_on_c, 0, 50, 64
5, 952440, Note_on_c, 0, 50, 0
5, 952440, Note_on_c, 0, 55, 64
5, 952560, Note_on_c, 0, 55, 0
5, 952800, Control_c, 0, 64, 0
5, 952800, Note_on_c, 0, 54, 66
5, 952860, Control_c, 0, 64, 127
5, 952920, Note_on_c, 0, 54, 0
5, 952920, Note_on_c, 0, 57, 66
5, 953040, Note_on_c, 0, 57, 0
5, 953040, Note_on_c, 0, 62, 67
5, 953160, Note_on_c, 0, 62, 0
5, 953160, Note_on_c, 0, 66, 67
5, 953280, Note_on_c, 0, 66, 0
5, 953520, Control_c, 0, 64, 0
5, 953520, Note_on_c, 0, 64, 72
5, 953520, Note_on_c, 0, 52, 72
5, 953580, Control_c, 0, 64, 127
5, 953640, Note_on_c, 0, 52, 0
5, 953640, Note_on_c, 0, 64, 0
5, 953760, Note_on_c, 0, 52, 69
5, 953760, Note_on_c, 0, 64, 69
5, 953880, Note_on_c, 0, 64, 0
5, 953880, Note_on_c, 0, 52, 0
5, 954000, Control_c, 0, 64, 0
5, 954000, Note_on_c, 0, 50, 66
5, 954000, Note_on_c, 0, 62, 66
5, 954060, Control_c, 0, 64, 127
5, 954120, Note_on_c, 0, 62, 0
5, 954120, Note_on_c, 0, 50, 0
5, 954240, Control_c, 0, 64, 0
5, 954240, Note_on_c, 0, 57, 63
5, 954240, Note_on_c, 0, 45, 63
5, 954720, Note_on_c, 0, 45, 0
5, 954720, Note_on_c, 0, 57, 0
5, 954960, Control_c, 0, 64, 0
5, 954960, Note_on_c, 0, 38, 61
5, 955020, Control_c, 0, 64, 127
5, 955080, Note_on_c, 0, 38, 0
5, 955080, Note_on_c, 0, 42, 61
5, 955200, Note_on_c, 0, 42, 0
5, 955200, Note_on_c, 0, 45, 62
5, 955320, Note_on_c, 0, 45, 0
5, 955320, Note_on_c, 0, 50, 62
5, 955440, Note_on_c, 0, 50, 0
5, 955680, Control_c, 0, 64, 0
5, 955680, Note_on_c, 0, 49, 64
5, 955740, Control_c, 0, 64, 127
5, 955800, Note_on_c, 0, 49, 0
5, 955800, Note_on_c, 0, 52, 64
5, 955920, Note_on_c, 0, 52, 0
5, 955920, Note_on_c, 0, 57, 65
5, 956040, Note_on_c, 0, 57, 0
5, 956040, Note_on_c, 0, 61, 65
5, 956160, Note_on_c, 0, 61, 0
5, 956400, Control_c, 0, 64, 0
5, 956400, Note_on_c, 0, 47, 67
5, 956460, Control_c, 0, 64, 127
5, 956520, Note_on_c, 0, 47, 0
5, 956520, Note_on_c, 0, 50, 67
5, 956640, Note_on_c, 0, 50, 0
5, 956640, Note_on_c, 0, 54, 68
5, 956760, Note_on_c, 0, 54, 0
5, 956760, Note_on_c, 0, 59, 68
5, 956880, Note_on_c, 0, 59, 0
5, 957120, Control_c, 0, 64, 0
5, 957120, Note_on_c, 0, 57, 69
5, 957180, Control_c, 0, 64, 127
5, 957240, Note_on_c, 0, 57, 0
5, 957240, Note_on_c, 0, 61, 70
5, 957360, Note_on_c, 0, 61, 0
5, 957360, Note_on_c, 0, 66, 70
5, 957480, Note_on_c, 0, 66, 0
5, 957480, Note_on_c, 0, 69, 71
5, 957600, Note_on_c, 0, 69, 0
5, 957840, Control_c, 0, 64, 0
5, 957840, Note_on_c, 0, 44, 72
5, 957900, Control_c, 0, 64, 127
5, 957960, Note_on_c, 0, 44, 0
5, 957960, Note_on_c, 0, 47, 73
5, 958080, Note_on_c, 0, 47, 0
5, 958080, Note_on_c, 0, 52, 73
5, 958200, Note_on_c, 0, 52, 0
5, 958200, Note_on_c, 0, 56, 74
5, 958320, Note_on_c, 0, 56, 0
5, 958560, Control_c, 0, 64, 0
5, 958560, Note_on_c, 0, 54, 75
5, 958620, Control_c, 0, 64, 127
5, 958680, Note_on_c, 0, 54, 0
5, 958680, Note_on_c, 0, 57, 76
5, 958800, Note_on_c, 0, 57, 0
5, 958800, Note_on_c, 0, 63, 76
5, 958920, Note_on_c, 0, 63, 0
5, 958920, Note_on_c, 0, 66, 77
5, 959040, Note_on_c, 0, 66, 0
5, 959280, Control_c, 0, 64, 0
5, 959280, Note_on_c, 0, 40, 78
5, 959340, Control_c, 0, 64, 127
5, 959400, Note_on_c, 0, 40, 0
5, 959400, Note_on_c, 0, 44, 79
5, 959520, Note_on_c, 0, 44, 0
5, 959520, Note_on_c, 0, 47, 79
5, 959640, Note_on_c, 0, 47, 0
5, 959640, Note_on_c, 0, 52, 79
5, 959760, Note_on_c, 0, 52, 0
5, 960000, Control_c, 0, 64, 0
5, 960000, Note_on_c, 0, 57, 81
5, 960060, Control_c, 0, 64, 127
5, 960120, Note_on_c, 0, 57, 0
5, 960120, Note_on_c, 0, 61, 81
5, 960240, Note_on_c, 0, 61, 0
5, 960240, Note_on_c, 0, 64, 82
5, 960360, Note_on_c, 0, 64, 0
5, 960360, Note_on_c, 0, 69, 82
5, 960480, Note_on_c, 0, 69, 0
5, 960720, Control_c, 0, 64, 0
5, 960720, Note_on_c, 0, 44, 84
5, 960780, Control_c, 0, 64, 127
5, 960840, Note_on_c, 0, 44, 0
5, 960840, Note_on_c, 0, 47, 84
5, 960960, Note_on_c, 0, 47, 0
5, 960960, Note_on_c, 0, 52, 85
5, 961080, Note_on_c, 0, 52, 0
5, 961080, Note_on_c, 0, 56, 85
5, 961200, Note_on_c, 0, 56, 0
5, 961440, Control_c, 0, 64, 0
5, 961440, Note_on_c, 0, 54, 87
5, 961500, Control_c, 0, 64, 127
5, 961560, Note_on_c, 0, 54, 0
5, 961560, Note_on_c, 0, 57, 87
5, 961680, Note_on_c, 0, 57, 0
5, 961680, Note_on_c, 0, 63, 88
5, 961800, Note_on_c, 0, 63, 0
5, 961800, Note_on_c, 0, 66, 88
5, 961920, Note_on_c, 0, 66, 0
5, 962160, Control_c, 0, 64, 0
5, 962160, Note_on_c, 0, 40, 90
5, 962220, Control_c, 0, 64, 127
5, 962280, Note_on_c, 0, 40, 0
5, 962280, Note_on_c, 0, 44, 91
5, 962400, Note_on_c, 0, 44, 0
5, 962400, Note_on_c, 0, 47, 91
5, 962520, Note_on_c, 0, 47, 0
5, 962520, Note_on_c, 0, 52, 92
5, 962640, Note_on_c, 0, 52, 0
5, 962880, Note_on_c, 0, 40, 94
5, 963000, Note_on_c, 0, 40, 0
5, 963000, Note_on_c, 0, 44, 95
5, 963120, Note_on_c, 0, 44, 0
5, 963120, Note_on_c, 0, 47, 96
5, 963240, Note_on_c, 0, 47, 0
5, 963240, Note_on_c, 0, 52, 96
5, 963360, Note_on_c, 0, 52, 0
5, 963600, Note_on_c, 0, 40, 99
5, 963720, Note_on_c, 0, 40, 0
5, 963720, Note_on_c, 0, 44, 99
5, 963840, Note_on_c, 0, 44, 0
5, 963840, Note_on_c, 0, 47, 100
5, 963960, Note_on_c, 0, 47, 0
5, 963960, Note_on_c, 0, 52, 101
5, 964080, Note_on_c, 0, 52, 0
5, 964320, Note_on_c, 0, 40, 103
5, 964440, Note_on_c, 0, 40, 0
5, 964440, Note_on_c, 0, 44, 104
5, 964560, Note_on_c, 0, 44, 0
5, 964560, Note_on_c, 0, 47, 104
5, 964680, Note_on_c, 0, 47, 0
5, 964680, Note_on_c, 0, 52, 105
5, 964800, Note_on_c, 0, 52, 0
5, 965040, Note_on_c, 0, 40, 116
5, 965520, Note_on_c, 0, 40, 0
5, 965760, Control_c, 0, 64, 0
5, 969120, Note_on_c, 0, 61, 73
5, 969360, Note_on_c, 0, 61, 0
5, 969360, Note_on_c, 0, 57, 73
5, 969840, Note_on_c, 0, 57, 0
5, 969840, Note_on_c, 0, 64, 72
5, 970080, Note_on_c, 0, 64, 0
5, 970080, Note_on_c, 0, 61, 72
5, 970560, Note_on_c, 0, 61, 0
5, 970560, Note_on_c, 0, 57, 71
5, 970800, Note_on_c, 0, 57, 0
5, 970800, Note_on_c, 0, 64, 72
5, 971280, Note_on_c, 0, 64, 0
5, 971280, Note_on_c, 0, 52, 69
5, 971520, Note_on_c, 0, 52, 0
5, 971520, Note_on_c, 0, 57, 67
5, 971760, Note_on_c, 0, 57, 0
5, 974760, Note_on_c, 0, 61, 59
5, 974880, Note_on_c, 0, 61, 0
5, 974880, Note_on_c, 0, 60, 61
5, 975000, Note_on_c, 0, 60, 0
5, 975000, Note_on_c, 0, 61, 64
5, 975120, Note_on_c, 0, 61, 0
5, 975120, Note_on_c, 0, 57, 66
5, 975240, Note_on_c, 0, 57, 0
5, 975480, Note_on_c, 0, 64, 60
5, 975600, Note_on_c, 0, 64, 0
5, 975600, Note_on_c, 0, 63, 61
5, 975720, Note_on_c, 0, 63, 0
5, 975720, Note_on_c, 0, 64, 62
5, 975840, Note_on_c, 0, 64, 0
5, 975840, Note_on_c, 0, 61, 63
5, 976080, Note_on_c, 0, 61, 0
5, 976320, Note_on_c, 0, 49, 66
5, 976560, Note_on_c, 0, 49, 0
5, 976560, Note_on_c, 0, 52, 68
5, 977040, Note_on_c, 0, 52, 0
5, 977040, Note_on_c, 0, 40, 64
5, 977280, Note_on_c, 0, 40, 0
5, 977280, Note_on_c, 0, 45, 62
5, 977520, Note_on_c, 0, 45, 0
5, 977760, Note_on_c, 0, 57, 78
5, 978000, Note_on_c, 0, 57, 0
5, 978000, Note_on_c, 0, 64, 76
5, 978480, Note_on_c, 0, 64, 0
5, 978480, Note_on_c, 0, 52, 72
5, 978720, Note_on_c, 0, 52, 0
5, 978720, Note_on_c, 0, 57, 71
5, 978960, Note_on_c, 0, 57, 0
5, 979200, Note_on_c, 0, 49, 84
5, 979440, Note_on_c, 0, 49, 0
5, 979440, Note_on_c, 0, 52, 83
5, 979920, Note_on_c, 0, 52, 0
5, 979920, Note_on_c, 0, 40, 80
5, 980160, Note_on_c, 0, 40, 0
5, 980160, Note_on_c, 0, 45, 79
5, 980400, Note_on_c, 0, 45, 0
5, 980640, Note_on_c, 0, 61, 90
5, 980880, Note_on_c, 0, 61, 0
5, 980880, Note_on_c, 0, 52, 88
5, 981360, Note_on_c, 0, 52, 0
5, 981360, Note_on_c, 0, 40, 85
5, 981600, Note_on_c, 0, 40, 0
5, 981600, Note_on_c, 0, 45, 84
5, 981840, Note_on_c, 0, 45, 0
5, 982080, Note_on_c, 0, 42, 97
5, 982080, Note_on_c, 0, 54, 97
5, 982320, Note_on_c, 0, 54, 0
5, 982320, Note_on_c, 0, 42, 0
5, 982320, Note_on_c, 0, 38, 93
5, 982320, Note_on_c, 0, 50, 93
5, 983760, Note_on_c, 0, 50, 0
5, 983760, Note_on_c, 0, 38, 0
5, 983760, Note_on_c, 0, 40, 94
5, 983760, Note_on_c, 0, 52, 94
5, 985200, Note_on_c, 0, 52, 0
5, 985200, Note_on_c, 0, 40, 0
5, 985200, Note_on_c, 0, 45, 96
5, 985200, Note_on_c, 0, 33, 96
5, 985920, Note_on_c, 0, 44, 90
5, 986160, Note_on_c, 0, 44, 0
5, 986160, Note_on_c, 0, 42, 90
5, 986400, Note_on_c, 0, 42, 0
5, 986400, Note_on_c, 0, 40, 89
5, 986640, Note_on_c, 0, 40, 0
5, 986640, Note_on_c, 0, 33, 0
5, 986640, Note_on_c, 0, 42, 88
5, 986880, Note_on_c, 0, 42, 0
5, 986880, Note_on_c, 0, 40, 87
5, 987120, Note_on_c, 0, 40, 0
5, 987120, Note_on_c, 0, 38, 87
5, 987360, Note_on_c, 0, 38, 0
5, 987360, Note_on_c, 0, 37, 86
5, 987600, Note_on_c, 0, 37, 0
5, 987600, Note_on_c, 0, 38, 85
5, 987840, Note_on_c, 0, 38, 0
5, 987840, Note_on_c, 0, 40, 85
5, 988080, Note_on_c, 0, 40, 0
5, 988080, Note_on_c, 0, 45, 0
5, 988080, Note_on_c, 0, 45, 103
5, 988080, Note_on_c, 0, 33, 103
5, 988800, Note_on_c, 0, 44, 98
5, 989040, Note_on_c, 0, 44, 0
5, 989040, Note_on_c, 0, 42, 97
5, 989280, Note_on_c, 0, 42, 0
5, 989280, Note_on_c, 0, 40, 97
5, 989520, Note_on_c, 0, 40, 0
5, 989520, Note_on_c, 0, 33, 0
5, 989520, Note_on_c, 0, 42, 96
5, 989760, Note_on_c, 0, 42, 0
5, 989760, Note_on_c, 0, 40, 95
5, 990000, Note_on_c, 0, 40, 0
5, 990000, Note_on_c, 0, 38, 94
5, 990240, Note_on_c, 0, 38, 0
5, 990240, Note_on_c, 0, 37, 93
5, 990480, Note_on_c, 0, 37, 0
5, 990480, Note_on_c, 0, 38, 92
5, 990720, Note_on_c, 0, 38, 0
5, 990720, Note_on_c, 0, 40, 91
5, 990960, Note_on_c, 0, 40, 0
5, 990960, Note_on_c, 0, 45, 0
5, 990960, Note_on_c, 0, 33, 107
5, 990960, Note_on_c, 0, 45, 107
5, 991680, Note_on_c, 0, 43, 101
5, 991920, Note_on_c, 0, 43, 0
5, 991920, Note_on_c, 0, 42, 101
5, 992160, Note_on_c, 0, 42, 0
5, 992160, Note_on_c, 0, 40, 100
5, 992400, Note_on_c, 0, 40, 0
5, 992400, Note_on_c, 0, 33, 0
5, 992400, Note_on_c, 0, 38, 99
5, 992640, Note_on_c, 0, 38, 0
5, 992640, Note_on_c, 0, 37, 98
5, 992880, Note_on_c, 0, 37, 0
5, 992880, Note_on_c, 0, 35, 97
5, 993105, Note_on_c, 0, 45, 0
5, 993120, Note_on_c, 0, 35, 0
5, 993120, Note_on_c, 0, 33, 96
5, 993120, Note_on_c, 0, 45, 96
5, 993360, Note_on_c, 0, 45, 0
5, 993360, Note_on_c, 0, 33, 0
5, 993360, Note_on_c, 0, 31, 95
5, 993360, Note_on_c, 0, 43, 95
5, 993600, Note_on_c, 0, 43, 0
5, 993600, Note_on_c, 0, 31, 0
5, 993600, Note_on_c, 0, 30, 94
5, 993600, Note_on_c, 0, 42, 94
5, 993840, Note_on_c, 0, 42, 0
5, 993840, Note_on_c, 0, 30, 0
5, 993840, Note_on_c, 0, 31, 93
5, 993840, Note_on_c, 0, 43, 93
5, 994320, Note_on_c, 0, 43, 0
5, 994320, Note_on_c, 0, 31, 0
5, 995280, Note_on_c, 0, 44, 79
5, 995280, Note_on_c, 0, 32, 79
5, 995760, Note_on_c, 0, 32, 0
5, 995760, Note_on_c, 0, 44, 0
5, 996480, Note_on_c, 0, 45, 51
5, 996720, Note_on_c, 0, 45, 0
5, 996720, Note_on_c, 0, 38, 52
5, 997200, Note_on_c, 0, 45, 53
5, 997440, Note_on_c, 0, 45, 0
5, 997440, Note_on_c, 0, 38, 0
5, 997440, Note_on_c, 0, 38, 54
5, 997920, Note_on_c, 0, 47, 55
5, 998118, Note_on_c, 0, 38, 0
5, 998160, Note_on_c, 0, 47, 0
5, 998160, Note_on_c, 0, 38, 56
5, 998640, Note_on_c, 0, 49, 57
5, 998838, Note_on_c, 0, 38, 0
5, 998880, Note_on_c, 0, 49, 0
5, 998880, Note_on_c, 0, 38, 58
5, 999360, Note_on_c, 0, 50, 59
5, 999558, Note_on_c, 0, 38, 0
5, 999600, Note_on_c, 0, 50, 0
5, 999600, Note_on_c, 0, 38, 60
5, 1000080, Note_on_c, 0, 42, 57
5, 1000278, Note_on_c, 0, 38, 0
5, 1000320, Note_on_c, 0, 42, 0
5, 1000320, Note_on_c, 0, 38, 56
5, 1000800, Note_on_c, 0, 43, 55
5, 1000998, Note_on_c, 0, 38, 0
5, 1001040, Note_on_c, 0, 43, 0
5, 1001040, Note_on_c, 0, 38, 54
5, 1001520, Note_on_c, 0, 45, 52
5, 1001718, Note_on_c, 0, 38, 0
5, 1001760, Note_on_c, 0, 45, 0
5, 1001760, Note_on_c, 0, 38, 52
5, 1002240, Note_on_c, 0, 45, 50
5, 1002438, Note_on_c, 0, 38, 0
5, 1002480, Note_on_c, 0, 45, 0
5, 1002480, Note_on_c, 0, 38, 49
5, 1002960, Note_on_c, 0, 45, 51
5, 1003158, Note_on_c, 0, 38, 0
5, 1003200, Note_on_c, 0, 45, 0
5, 1003200, Note_on_c, 0, 38, 51
5, 1003680, Note_on_c, 0, 47, 53
5, 1003878, Note_on_c, 0, 38, 0
5, 1003920, Note_on_c, 0, 47, 0
5, 1003920, Note_on_c, 0, 38, 54
5, 1004400, Note_on_c, 0, 49, 56
5, 1004598, Note_on_c, 0, 38, 0
5, 1004640, Note_on_c, 0, 49, 0
5, 1004640, Note_on_c, 0, 38, 57
5, 1005120, Note_on_c, 0, 50, 59
5, 1005318, Note_on_c, 0, 38, 0
5, 1005360, Note_on_c, 0, 50, 0
5, 1005360, Note_on_c, 0, 38, 60
5, 1005840, Note_on_c, 0, 42, 59
5, 1006038, Note_on_c, 0, 38, 0
5, 1006080, Note_on_c, 0, 42, 0
5, 1006080, Note_on_c, 0, 38, 59
5, 1006560, Note_on_c, 0, 43, 58
5, 1006758, Note_on_c, 0, 38, 0
5, 1006800, Note_on_c, 0, 43, 0
5, 1006800, Note_on_c, 0, 38, 57
5, 1007280, Note_on_c, 0, 45, 56
5, 1007478, Note_on_c, 0, 38, 0
5, 1007520, Note_on_c, 0, 45, 0
5, 1007520, Note_on_c, 0, 38, 56
5, 1008000, Note_on_c, 0, 50, 55
5, 1008198, Note_on_c, 0, 38, 0
5, 1008240, Note_on_c, 0, 50, 0
5, 1008240, Note_on_c, 0, 38, 56
5, 1008720, Note_on_c, 0, 52, 58
5, 1008918, Note_on_c, 0, 38, 0
5, 1008960, Note_on_c, 0, 52, 0
5, 1008960, Note_on_c, 0, 38, 59
5, 1009440, Note_on_c, 0, 45, 61
5, 1009638, Note_on_c, 0, 38, 0
5, 1009680, Note_on_c, 0, 45, 0
5, 1009680, Note_on_c, 0, 38, 62
5, 1010160, Note_on_c, 0, 50, 64
5, 1010358, Note_on_c, 0, 38, 0
5, 1010400, Note_on_c, 0, 50, 0
5, 1010400, Note_on_c, 0, 38, 65
5, 1010880, Note_on_c, 0, 45, 67
5, 1011078, Note_on_c, 0, 38, 0
5, 1011120, Note_on_c, 0, 45, 0
5, 1011120, Note_on_c, 0, 38, 70
5, 1011600, Note_on_c, 0, 52, 67
5, 1011798, Note_on_c, 0, 38, 0
5, 1011840, Note_on_c, 0, 52, 0
5, 1011840, Note_on_c, 0, 38, 66
5, 1012320, Note_on_c, 0, 45, 64
5, 1012540, Note_on_c, 0, 38, 0
5, 1012560, Note_on_c, 0, 45, 0
5, 1012560, Note_on_c, 0, 38, 62
5, 1013040, Note_on_c, 0, 50, 60
5, 1013260, Note_on_c, 0, 38, 0
5, 1013280, Note_on_c, 0, 50, 0
5, 1013280, Note_on_c, 0, 38, 59
5, 1013760, Note_on_c, 0, 45, 60
5, 1013980, Note_on_c, 0, 38, 0
5, 1014000, Note_on_c, 0, 45, 0
5, 1014000, Note_on_c, 0, 38, 60
5, 1014480, Note_on_c, 0, 52, 61
5, 1014700, Note_on_c, 0, 38, 0
5, 1014720, Note_on_c, 0, 52, 0
5, 1014720, Note_on_c, 0, 38, 62
5, 1015200, Note_on_c, 0, 45, 62
5, 1015420, Note_on_c, 0, 38, 0
5, 1015440, Note_on_c, 0, 45, 0
5, 1015440, Note_on_c, 0, 38, 63
5, 1015920, Note_on_c, 0, 50, 64
5, 1016140, Note_on_c, 0, 38, 0
5, 1016160, Note_on_c, 0, 50, 0
5, 1016160, Note_on_c, 0, 45, 64
5, 1016640, Note_on_c, 0, 45, 0
5, 1016640, Note_on_c, 0, 42, 65
5, 1016880, Note_on_c, 0, 42, 0
5, 1016880, Note_on_c, 0, 38, 65
5, 1017360, Note_on_c, 0, 52, 62
5, 1017580, Note_on_c, 0, 38, 0
5, 1017600, Note_on_c, 0, 52, 0
5, 1017600, Note_on_c, 0, 38, 60
5, 1018080, Note_on_c, 0, 45, 57
5, 1018300, Note_on_c, 0, 38, 0
5, 1018320, Note_on_c, 0, 45, 0
5, 1018320, Note_on_c, 0, 38, 55
5, 1019020, Note_on_c, 0, 38, 0
5, 1019760, Note_on_c, 0, 38, 53
5, 1019916, Note_on_c, 0, 38, 0
5, 1020000, Note_on_c, 0, 54, 54
5, 1020156, Note_on_c, 0, 54, 0
5, 1020480, Note_on_c, 0, 40, 55
5, 1020636, Note_on_c, 0, 40, 0
5, 1020720, Note_on_c, 0, 55, 56
5, 1020876, Note_on_c, 0, 55, 0
5, 1021200, Note_on_c, 0, 42, 58
5, 1021356, Note_on_c, 0, 42, 0
5, 1021440, Note_on_c, 0, 57, 59
5, 1021596, Note_on_c, 0, 57, 0
5, 1021920, Note_on_c, 0, 43, 61
5, 1022076, Note_on_c, 0, 43, 0
5, 1022160, Note_on_c, 0, 59, 61
5, 1022316, Note_on_c, 0, 59, 0
5, 1022640, Note_on_c, 0, 48, 64
5, 1022796, Note_on_c, 0, 48, 0
5, 1022880, Note_on_c, 0, 60, 63
5, 1023036, Note_on_c, 0, 60, 0
5, 1023360, Note_on_c, 0, 49, 59
5, 1023516, Note_on_c, 0, 49, 0
5, 1023600, Note_on_c, 0, 58, 58
5, 1023756, Note_on_c, 0, 58, 0
5, 1024080, Note_on_c, 0, 50, 54
5, 1024236, Note_on_c, 0, 50, 0
5, 1024320, Note_on_c, 0, 57, 52
5, 1024476, Note_on_c, 0, 57, 0
5, 1025520, Note_on_c, 0, 50, 59
5, 1025676, Note_on_c, 0, 50, 0
5, 1025760, Note_on_c, 0, 66, 60
5, 1025916, Note_on_c, 0, 66, 0
5, 1026240, Note_on_c, 0, 52, 62
5, 1026396, Note_on_c, 0, 52, 0
5, 1026480, Note_on_c, 0, 67, 63
5, 1026636, Note_on_c, 0, 67, 0
5, 1026960, Note_on_c, 0, 54, 64
5, 1027116, Note_on_c, 0, 54, 0
5, 1027200, Note_on_c, 0, 69, 65
5, 1027356, Note_on_c, 0, 69, 0
5, 1027680, Note_on_c, 0, 55, 67
5, 1027836, Note_on_c, 0, 55, 0
5, 1027920, Note_on_c, 0, 71, 68
5, 1028076, Note_on_c, 0, 71, 0
5, 1028400, Note_on_c, 0, 48, 70
5, 1028556, Note_on_c, 0, 48, 0
5, 1028640, Note_on_c, 0, 72, 70
5, 1028796, Note_on_c, 0, 72, 0
5, 1029120, Note_on_c, 0, 50, 68
5, 1029276, Note_on_c, 0, 50, 0
5, 1029360, Note_on_c, 0, 69, 67
5, 1029516, Note_on_c, 0, 69, 0
5, 1029840, Note_on_c, 0, 55, 65
5, 1029996, Note_on_c, 0, 55, 0
5, 1030080, Note_on_c, 0, 67, 67
5, 1030236, Note_on_c, 0, 67, 0
5, 1030560, Note_on_c, 0, 55, 71
5, 1030716, Note_on_c, 0, 55, 0
5, 1030800, Note_on_c, 0, 71, 73
5, 1030956, Note_on_c, 0, 71, 0
5, 1031280, Note_on_c, 0, 48, 79
5, 1031436, Note_on_c, 0, 48, 0
5, 1031520, Note_on_c, 0, 72, 76
5, 1031676, Note_on_c, 0, 72, 0
5, 1032000, Note_on_c, 0, 50, 74
5, 1032156, Note_on_c, 0, 50, 0
5, 1032240, Note_on_c, 0, 66, 73
5, 1032396, Note_on_c, 0, 66, 0
5, 1032720, Note_on_c, 0, 55, 77
5, 1032876, Note_on_c, 0, 55, 0
5, 1032960, Note_on_c, 0, 67, 78
5, 1033116, Note_on_c, 0, 67, 0
5, 1033440, Note_on_c, 0, 55, 81
5, 1033596, Note_on_c, 0, 55, 0
5, 1033680, Note_on_c, 0, 71, 83
5, 1033836, Note_on_c, 0, 71, 0
5, 1034160, Note_on_c, 0, 48, 86
5, 1034316, Note_on_c, 0, 48, 0
5, 1034400, Note_on_c, 0, 72, 82
5, 1034556, Note_on_c, 0, 72, 0
5, 1034880, Note_on_c, 0, 50, 74
5, 1035036, Note_on_c, 0, 50, 0
5, 1035120, Note_on_c, 0, 66, 70
5, 1035276, Note_on_c, 0, 66, 0
5, 1035600, Note_on_c, 0, 67, 53
5, 1035840, Note_on_c, 0, 67, 0
5, 1035840, Note_on_c, 0, 69, 54
5, 1036080, Note_on_c, 0, 69, 0
5, 1036080, Note_on_c, 0, 71, 55
5, 1036320, Note_on_c, 0, 71, 0
5, 1036320, Note_on_c, 0, 72, 55
5, 1037280, Note_on_c, 0, 72, 0
5, 1037280, Note_on_c, 0, 71, 59
5, 1037520, Note_on_c, 0, 71, 0
5, 1037520, Note_on_c, 0, 73, 60
5, 1037760, Note_on_c, 0, 73, 0
5, 1037760, Note_on_c, 0, 74, 61
5, 1038720, Note_on_c, 0, 74, 0
5, 1038720, Note_on_c, 0, 73, 64
5, 1038960, Note_on_c, 0, 73, 0
5, 1038960, Note_on_c, 0, 75, 65
5, 1039200, Note_on_c, 0, 75, 0
5, 1039200, Note_on_c, 0, 76, 66
5, 1039680, Note_on_c, 0, 76, 0
5, 1039680, Note_on_c, 0, 74, 68
5, 1039920, Note_on_c, 0, 74, 0
5, 1039920, Note_on_c, 0, 72, 70
5, 1040400, Note_on_c, 0, 72, 0
5, 1040400, Note_on_c, 0, 71, 66
5, 1040640, Note_on_c, 0, 71, 0
5, 1040640, Note_on_c, 0, 72, 64
5, 1041120, Note_on_c, 0, 72, 0
5, 1041120, Note_on_c, 0, 73, 60
5, 1041360, Note_on_c, 0, 73, 0
5, 1041360, Note_on_c, 0, 62, 61
5, 1041600, Note_on_c, 0, 62, 0
5, 1041600, Note_on_c, 0, 64, 62
5, 1041840, Note_on_c, 0, 64, 0
5, 1041840, Note_on_c, 0, 66, 63
5, 1042080, Note_on_c, 0, 66, 0
5, 1042080, Note_on_c, 0, 67, 64
5, 1043040, Note_on_c, 0, 67, 0
5, 1043040, Note_on_c, 0, 66, 68
5, 1043280, Note_on_c, 0, 66, 0
5, 1043280, Note_on_c, 0, 68, 69
5, 1043520, Note_on_c, 0, 68, 0
5, 1043520, Note_on_c, 0, 69, 70
5, 1044480, Note_on_c, 0, 69, 0
5, 1044480, Note_on_c, 0, 68, 74
5, 1044720, Note_on_c, 0, 68, 0
5, 1044720, Note_on_c, 0, 70, 75
5, 1044960, Note_on_c, 0, 70, 0
5, 1044960, Note_on_c, 0, 71, 76
5, 1045440, Note_on_c, 0, 71, 0
5, 1045440, Note_on_c, 0, 69, 78
5, 1045680, Note_on_c, 0, 69, 0
5, 1045680, Note_on_c, 0, 68, 80
5, 1045920, Note_on_c, 0, 68, 0
5, 1045920, Note_on_c, 0, 69, 78
5, 1046160, Note_on_c, 0, 69, 0
5, 1046160, Note_on_c, 0, 67, 76
5, 1046400, Note_on_c, 0, 67, 0
5, 1046400, Note_on_c, 0, 66, 74
5, 1046640, Note_on_c, 0, 66, 0
5, 1046640, Note_on_c, 0, 62, 73
5, 1046880, Note_on_c, 0, 62, 0
5, 1046880, Note_on_c, 0, 72, 71
5, 1047120, Note_on_c, 0, 72, 0
5, 1047120, Note_on_c, 0, 55, 71
5, 1048080, Note_on_c, 0, 55, 0
5, 1048080, Note_on_c, 0, 54, 73
5, 1048320, Note_on_c, 0, 54, 0
5, 1048320, Note_on_c, 0, 56, 74
5, 1048560, Note_on_c, 0, 56, 0
5, 1048560, Note_on_c, 0, 57, 75
5, 1049520, Note_on_c, 0, 57, 0
5, 1049520, Note_on_c, 0, 56, 78
5, 1049760, Note_on_c, 0, 56, 0
5, 1049760, Note_on_c, 0, 58, 79
5, 1050000, Note_on_c, 0, 58, 0
5, 1050000, Note_on_c, 0, 59, 79
5, 1050960, Note_on_c, 0, 59, 0
5, 1050960, Note_on_c, 0, 57, 82
5, 1051200, Note_on_c, 0, 57, 0
5, 1051200, Note_on_c, 0, 59, 83
5, 1051440, Note_on_c, 0, 59, 0
5, 1051440, Note_on_c, 0, 60, 86
5, 1051680, Note_on_c, 0, 60, 0
5, 1051680, Note_on_c, 0, 59, 85
5, 1051920, Note_on_c, 0, 59, 0
5, 1051920, Note_on_c, 0, 60, 82
5, 1052160, Note_on_c, 0, 60, 0
5, 1052160, Note_on_c, 0, 62, 79
5, 1052400, Note_on_c, 0, 62, 0
5, 1052400, Note_on_c, 0, 64, 76
5, 1052640, Note_on_c, 0, 64, 0
5, 1052640, Note_on_c, 0, 66, 75
5, 1052880, Note_on_c, 0, 66, 0
5, 1052880, Note_on_c, 0, 55, 79
5, 1052880, Note_on_c, 0, 58, 79
5, 1053120, Note_on_c, 0, 58, 0
5, 1053120, Note_on_c, 0, 57, 80
5, 1053120, Note_on_c, 0, 60, 80
5, 1053360, Note_on_c, 0, 60, 0
5, 1053360, Note_on_c, 0, 57, 0
5, 1053360, Note_on_c, 0, 58, 81
5, 1053360, Note_on_c, 0, 62, 81
5, 1053600, Note_on_c, 0, 62, 0
5, 1053600, Note_on_c, 0, 58, 0
5, 1053600, Note_on_c, 0, 63, 82
5, 1053600, Note_on_c, 0, 60, 82
5, 1054560, Note_on_c, 0, 60, 0
5, 1054560, Note_on_c, 0, 63, 0
5, 1054560, Note_on_c, 0, 59, 86
5, 1054560, Note_on_c, 0, 62, 86
5, 1054800, Note_on_c, 0, 62, 0
5, 1054800, Note_on_c, 0, 59, 0
5, 1054800, Note_on_c, 0, 60, 87
5, 1054800, Note_on_c, 0, 63, 87
5, 1055040, Note_on_c, 0, 63, 0
5, 1055040, Note_on_c, 0, 60, 0
5, 1055040, Note_on_c, 0, 62, 88
5, 1055040, Note_on_c, 0, 65, 88
5, 1055760, Note_on_c, 0, 55, 0
5, 1055760, Note_on_c, 0, 55, 90
5, 1056000, Note_on_c, 0, 65, 0
5, 1056000, Note_on_c, 0, 62, 0
5, 1056000, Note_on_c, 0, 63, 91
5, 1056000, Note_on_c, 0, 60, 91
5, 1056240, Note_on_c, 0, 60, 0
5, 1056240, Note_on_c, 0, 63, 0
5, 1056240, Note_on_c, 0, 62, 92
5, 1056240, Note_on_c, 0, 65, 92
5, 1056480, Note_on_c, 0, 65, 0
5, 1056480, Note_on_c, 0, 62, 0
5, 1056480, Note_on_c, 0, 63, 93
5, 1056480, Note_on_c, 0, 67, 93
5, 1056960, Note_on_c, 0, 67, 0
5, 1056960, Note_on_c, 0, 63, 0
5, 1056960, Note_on_c, 0, 62, 95
5, 1056960, Note_on_c, 0, 65, 95
5, 1057200, Note_on_c, 0, 65, 0
5, 1057200, Note_on_c, 0, 62, 0
5, 1057200, Note_on_c, 0, 55, 0
5, 1057200, Note_on_c, 0, 57, 98
5, 1057200, Note_on_c, 0, 61, 98
5, 1057200, Note_on_c, 0, 64, 98
5, 1057680, Note_on_c, 0, 64, 0
5, 1057680, Note_on_c, 0, 61, 0
5, 1057680, Note_on_c, 0, 62, 96
5, 1057680, Note_on_c, 0, 65, 96
5, 1057920, Note_on_c, 0, 65, 0
5, 1057920, Note_on_c, 0, 62, 0
5, 1057920, Note_on_c, 0, 57, 0
5, 1057920, Note_on_c, 0, 61, 95
5, 1057920, Note_on_c, 0, 57, 95
5, 1057920, Note_on_c, 0, 64, 95
5, 1058400, Note_on_c, 0, 64, 0
5, 1058400, Note_on_c, 0, 57, 0
5, 1058400, Note_on_c, 0, 61, 0
5, 1058400, Note_on_c, 0, 33, 92
5, 1058400, Note_on_c, 0, 45, 92
5, 1058580, Note_on_c, 0, 45, 0
5, 1058580, Note_on_c, 0, 33, 0
5, 1058640, Note_on_c, 0, 38, 91
5, 1058640, Note_on_c, 0, 50, 91
5, 1059600, Note_on_c, 0, 50, 0
5, 1059600, Note_on_c, 0, 38, 0
5, 1059600, Note_on_c, 0, 37, 93
5, 1059600, Note_on_c, 0, 49, 93
5, 1059840, Note_on_c, 0, 49, 0
5, 1059840, Note_on_c, 0, 37, 0
5, 1059840, Note_on_c, 0, 38, 94
5, 1059840, Note_on_c, 0, 50, 94
5, 1060080, Note_on_c, 0, 50, 0
5, 1060080, Note_on_c, 0, 38, 0
5, 1060080, Note_on_c, 0, 40, 95
5, 1060080, Note_on_c, 0, 52, 95
5, 1061040, Note_on_c, 0, 52, 0
5, 1061040, Note_on_c, 0, 40, 0
5, 1061040, Note_on_c, 0, 39, 97
5, 1061040, Note_on_c, 0, 51, 97
5, 1061280, Note_on_c, 0, 51, 0
5, 1061280, Note_on_c, 0, 39, 0
5, 1061280, Note_on_c, 0, 40, 97
5, 1061280, Note_on_c, 0, 52, 97
5, 1061520, Note_on_c, 0, 52, 0
5, 1061520, Note_on_c, 0, 40, 0
5, 1061520, Note_on_c, 0, 41, 98
5, 1061520, Note_on_c, 0, 53, 98
5, 1062480, Note_on_c, 0, 53, 0
5, 1062480, Note_on_c, 0, 41, 0
5, 1062480, Note_on_c, 0, 40, 100
5, 1062480, Note_on_c, 0, 52, 100
5, 1062720, Note_on_c, 0, 52, 0
5, 1062720, Note_on_c, 0, 40, 0
5, 1062720, Note_on_c, 0, 41, 100
5, 1062720, Note_on_c, 0, 53, 100
5, 1062960, Note_on_c, 0, 53, 0
5, 1062960, Note_on_c, 0, 41, 0
5, 1062960, Note_on_c, 0, 43, 101
5, 1062960, Note_on_c, 0, 55, 101
5, 1063920, Note_on_c, 0, 55, 0
5, 1063920, Note_on_c, 0, 43, 0
5, 1063920, Note_on_c, 0, 42, 103
5, 1063920, Note_on_c, 0, 54, 103
5, 1064160, Note_on_c, 0, 54, 0
5, 1064160, Note_on_c, 0, 42, 0
5, 1064160, Note_on_c, 0, 55, 104
5, 1064160, Note_on_c, 0, 43, 104
5, 1064400, Note_on_c, 0, 43, 0
5, 1064400, Note_on_c, 0, 55, 0
5, 1064400, Note_on_c, 0, 45, 104
5, 1064400, Note_on_c, 0, 57, 104
5, 1065360, Note_on_c, 0, 57, 0
5, 1065360, Note_on_c, 0, 45, 0
5, 1065360, Note_on_c, 0, 44, 106
5, 1065360, Note_on_c, 0, 56, 106
5, 1065600, Note_on_c, 0, 56, 0
5, 1065600, Note_on_c, 0, 44, 0
5, 1065600, Note_on_c, 0, 45, 107
5, 1065600, Note_on_c, 0, 57, 107
5, 1065840, Note_on_c, 0, 57, 0
5, 1065840, Note_on_c, 0, 45, 0
5, 1065840, Note_on_c, 0, 58, 112
5, 1065840, Note_on_c, 0, 46, 112
5, 1066080, Note_on_c, 0, 46, 0
5, 1066080, Note_on_c, 0, 58, 0
5, 1066080, Note_on_c, 0, 57, 111
5, 1066080, Note_on_c, 0, 45, 111
5, 1066320, Note_on_c, 0, 45, 0
5, 1066320, Note_on_c, 0, 57, 0
5, 1066320, Note_on_c, 0, 58, 109
5, 1066320, Note_on_c, 0, 46, 109
5, 1066560, Note_on_c, 0, 46, 0
5, 1066560, Note_on_c, 0, 58, 0
5, 1066560, Note_on_c, 0, 47, 107
5, 1066560, Note_on_c, 0, 59, 107
5, 1066800, Note_on_c, 0, 59, 0
5, 1066800, Note_on_c, 0, 47, 0
5, 1066800, Note_on_c, 0, 46, 105
5, 1066800, Note_on_c, 0, 58, 105
5, 1067040, Note_on_c, 0, 58, 0
5, 1067040, Note_on_c, 0, 46, 0
5, 1067040, Note_on_c, 0, 59, 104
5, 1067040, Note_on_c, 0, 47, 104
5, 1067280, Note_on_c, 0, 47, 0
5, 1067280, Note_on_c, 0, 59, 0
5, 1067280, Note_on_c, 0, 45, 106
5, 1067280, Note_on_c, 0, 57, 106
5, 1068000, Note_on_c, 0, 47, 104
5, 1068240, Note_on_c, 0, 47, 0
5, 1068240, Note_on_c, 0, 49, 104
5, 1068480, Note_on_c, 0, 49, 0
5, 1068480, Note_on_c, 0, 50, 103
5, 1068720, Note_on_c, 0, 50, 0
5, 1068720, Note_on_c, 0, 52, 102
5, 1068960, Note_on_c, 0, 52, 0
5, 1068960, Note_on_c, 0, 50, 102
5, 1069200, Note_on_c, 0, 50, 0
5, 1069200, Note_on_c, 0, 49, 101
5, 1069440, Note_on_c, 0, 49, 0
5, 1069440, Note_on_c, 0, 53, 100
5, 1069680, Note_on_c, 0, 53, 0
5, 1069680, Note_on_c, 0, 52, 100
5, 1069920, Note_on_c, 0, 52, 0
5, 1069920, Note_on_c, 0, 50, 99
5, 1070160, Note_on_c, 0, 50, 0
5, 1070160, Note_on_c, 0, 57, 0
5, 1070160, Note_on_c, 0, 45, 0
5, 1070160, Note_on_c, 0, 45, 110
5, 1070160, Note_on_c, 0, 57, 110
5, 1070880, Note_on_c, 0, 47, 108
5, 1071120, Note_on_c, 0, 47, 0
5, 1071120, Note_on_c, 0, 49, 108
5, 1071360, Note_on_c, 0, 49, 0
5, 1071360, Note_on_c, 0, 50, 107
5, 1071600, Note_on_c, 0, 50, 0
5, 1071600, Note_on_c, 0, 52, 106
5, 1071840, Note_on_c, 0, 52, 0
5, 1071840, Note_on_c, 0, 50, 106
5, 1072080, Note_on_c, 0, 50, 0
5, 1072080, Note_on_c, 0, 49, 105
5, 1072320, Note_on_c, 0, 49, 0
5, 1072320, Note_on_c, 0, 53, 104
5, 1072560, Note_on_c, 0, 53, 0
5, 1072560, Note_on_c, 0, 52, 104
5, 1072800, Note_on_c, 0, 52, 0
5, 1072800, Note_on_c, 0, 50, 103
5, 1073040, Note_on_c, 0, 50, 0
5, 1073040, Note_on_c, 0, 57, 0
5, 1073040, Note_on_c, 0, 45, 0
5, 1073040, Note_on_c, 0, 33, 116
5, 1073040, Note_on_c, 0, 45, 116
5, 1073760, Note_on_c, 0, 35, 114
5, 1074000, Note_on_c, 0, 35, 0
5, 1074000, Note_on_c, 0, 37, 113
5, 1074240, Note_on_c, 0, 37, 0
5, 1074240, Note_on_c, 0, 38, 112
5, 1074480, Note_on_c, 0, 38, 0
5, 1074480, Note_on_c, 0, 40, 112
5, 1074720, Note_on_c, 0, 40, 0
5, 1074720, Note_on_c, 0, 38, 111
5, 1074960, Note_on_c, 0, 38, 0
5, 1074960, Note_on_c, 0, 37, 110
5, 1075200, Note_on_c, 0, 37, 0
5, 1075200, Note_on_c, 0, 41, 109
5, 1075440, Note_on_c, 0, 41, 0
5, 1075440, Note_on_c, 0, 40, 109
5, 1075680, Note_on_c, 0, 40, 0
5, 1075680, Note_on_c, 0, 38, 108
5, 1075920, Note_on_c, 0, 38, 0
5, 1075920, Note_on_c, 0, 45, 0
5, 1075920, Note_on_c, 0, 33, 0
5, 1075920, Note_on_c, 0, 33, 109
5, 1075920, Note_on_c, 0, 45, 109
5, 1075920, Note_on_c, 0, 40, 109
5, 1076160, Note_on_c, 0, 40, 0
5, 1076160, Note_on_c, 0, 38, 110
5, 1076400, Note_on_c, 0, 38, 0
5, 1076400, Note_on_c, 0, 37, 111
5, 1076640, Note_on_c, 0, 37, 0
5, 1076640, Note_on_c, 0, 41, 112
5, 1076880, Note_on_c, 0, 41, 0
5, 1076880, Note_on_c, 0, 40, 113
5, 1077120, Note_on_c, 0, 40, 0
5, 1077120, Note_on_c, 0, 38, 113
5, 1077360, Note_on_c, 0, 38, 0
5, 1077360, Note_on_c, 0, 40, 114
5, 1077600, Note_on_c, 0, 40, 0
5, 1077600, Note_on_c, 0, 38, 115
5, 1077840, Note_on_c, 0, 38, 0
5, 1077840, Note_on_c, 0, 37, 116
5, 1078080, Note_on_c, 0, 37, 0
5, 1078080, Note_on_c, 0, 41, 117
5, 1078320, Note_on_c, 0, 41, 0
5, 1078320, Note_on_c, 0, 40, 118
5, 1078560, Note_on_c, 0, 40, 0
5, 1078560, Note_on_c, 0, 38, 119
5, 1078800, Note_on_c, 0, 38, 0
5, 1078800, Note_on_c, 0, 45, 0
5, 1078800, Note_on_c, 0, 33, 0
5, 1078800, Note_on_c, 0, 33, 123
5, 1078800, Note_on_c, 0, 45, 123
5, 1081680, Note_on_c, 0, 57, 124
5, 1081800, Note_on_c, 0, 57, 0
5, 1081800, Note_on_c, 0, 64, 125
5, 1081920, Note_on_c, 0, 64, 0
5, 1081920, Note_on_c, 0, 62, 125
5, 1082040, Note_on_c, 0, 62, 0
5, 1082040, Note_on_c, 0, 61, 125
5, 1082160, Note_on_c, 0, 61, 0
5, 1082160, Note_on_c, 0, 59, 125
5, 1082280, Note_on_c, 0, 59, 0
5, 1082280, Note_on_c, 0, 57, 126
5, 1082400, Note_on_c, 0, 57, 0
5, 1082400, Note_on_c, 0, 56, 126
5, 1082520, Note_on_c, 0, 56, 0
5, 1082520, Note_on_c, 0, 54, 126
5, 1082640, Note_on_c, 0, 54, 0
5, 1082640, Note_on_c, 0, 52, 126
5, 1082760, Note_on_c, 0, 52, 0
5, 1082760, Note_on_c, 0, 50, 127
5, 1082880, Note_on_c, 0, 50, 0
5, 1082880, Note_on_c, 0, 49, 127
5, 1083000, Note_on_c, 0, 49, 0
5, 1083000, Note_on_c, 0, 47, 127
5, 1083120, Note_on_c, 0, 47, 0
5, 1083120, Note_on_c, 0, 45, 0
5, 1083120, Note_on_c, 0, 33, 0
5, 1083120, Note_on_c, 0, 45, 127
5, 1083240, Note_on_c, 0, 45, 0
5, 1083240, Note_on_c, 0, 52, 127
5, 1083360, Note_on_c, 0, 52, 0
5, 1083360, Note_on_c, 0, 50, 127
5, 1083480, Note_on_c, 0, 50, 0
5, 1083480, Note_on_c, 0, 49, 127
5, 1083600, Note_on_c, 0, 49, 0
5, 1083600, Note_on_c, 0, 47, 127
5, 1083720, Note_on_c, 0, 47, 0
5, 1083720, Note_on_c, 0, 45, 127
5, 1083840, Note_on_c, 0, 45, 0
5, 1083840, Note_on_c, 0, 44, 127
5, 1083960, Note_on_c, 0, 44, 0
5, 1083960, Note_on_c, 0, 42, 127
5, 1084080, Note_on_c, 0, 42, 0
5, 1084080, Note_on_c, 0, 40, 127
5, 1084200, Note_on_c, 0, 40, 0
5, 1084200, Note_on_c, 0, 38, 127
5, 1084320, Note_on_c, 0, 38, 0
5, 1084320, Note_on_c, 0, 37, 127
5, 1084440, Note_on_c, 0, 37, 0
5, 1084440, Note_on_c, 0, 35, 127
5, 1084560, Note_on_c, 0, 35, 0
5, 1084560, Note_on_c, 0, 33, 127
5, 1086480, Note_on_c, 0, 33, 0
5, 1090080, Note_on_c, 0, 45, 52
5, 1090320, Note_on_c, 0, 45, 0
5, 1090320, Note_on_c, 0, 38, 53
5, 1090800, Control_c, 0, 64, 0
5, 1090800, Note_on_c, 0, 45, 52
5, 1091040, Note_on_c, 0, 45, 0
5, 1091040, Note_on_c, 0, 38, 0
5, 1091040, Note_on_c, 0, 38, 53
5, 1091520, Note_on_c, 0, 47, 54
5, 1091760, Note_on_c, 0, 47, 0
5, 1091760, Note_on_c, 0, 38, 0
5, 1091760, Note_on_c, 0, 38, 54
5, 1092240, Note_on_c, 0, 49, 55
5, 1092438, Note_on_c, 0, 38, 0
5, 1092480, Note_on_c, 0, 49, 0
5, 1092480, Note_on_c, 0, 38, 55
5, 1092960, Note_on_c, 0, 50, 56
5, 1093158, Note_on_c, 0, 38, 0
5, 1093200, Note_on_c, 0, 50, 0
5, 1093200, Note_on_c, 0, 38, 58
5, 1093680, Note_on_c, 0, 42, 57
5, 1093878, Note_on_c, 0, 38, 0
5, 1093920, Note_on_c, 0, 42, 0
5, 1093920, Note_on_c, 0, 38, 56
5, 1094400, Note_on_c, 0, 43, 55
5, 1094598, Note_on_c, 0, 38, 0
5, 1094640, Note_on_c, 0, 43, 0
5, 1094640, Note_on_c, 0, 38, 54
5, 1095120, Note_on_c, 0, 45, 52
5, 1095318, Note_on_c, 0, 38, 0
5, 1095360, Note_on_c, 0, 45, 0
5, 1095360, Note_on_c, 0, 38, 52
5, 1095840, Note_on_c, 0, 45, 50
5, 1096038, Note_on_c, 0, 38, 0
5, 1096080, Note_on_c, 0, 45, 0
5, 1096080, Note_on_c, 0, 38, 49
5, 1096560, Note_on_c, 0, 45, 50
5, 1096758, Note_on_c, 0, 38, 0
5, 1096800, Note_on_c, 0, 45, 0
5, 1096800, Note_on_c, 0, 38, 50
5, 1097280, Note_on_c, 0, 47, 52
5, 1097478, Note_on_c, 0, 38, 0
5, 1097520, Note_on_c, 0, 47, 0
5, 1097520, Note_on_c, 0, 38, 52
5, 1098000, Note_on_c, 0, 49, 53
5, 1098198, Note_on_c, 0, 38, 0
5, 1098240, Note_on_c, 0, 49, 0
5, 1098240, Note_on_c, 0, 38, 54
5, 1098720, Note_on_c, 0, 50, 55
5, 1098918, Note_on_c, 0, 38, 0
5, 1098960, Note_on_c, 0, 50, 0
5, 1098960, Note_on_c, 0, 38, 56
5, 1099440, Note_on_c, 0, 42, 57
5, 1099638, Note_on_c, 0, 38, 0
5, 1099680, Note_on_c, 0, 42, 0
5, 1099680, Note_on_c, 0, 38, 57
5, 1100160, Note_on_c, 0, 43, 57
5, 1100358, Note_on_c, 0, 38, 0
5, 1100400, Note_on_c, 0, 43, 0
5, 1100400, Note_on_c, 0, 38, 57
5, 1100880, Note_on_c, 0, 45, 57
5, 1101078, Note_on_c, 0, 38, 0
5, 1101120, Note_on_c, 0, 45, 0
5, 1101120, Note_on_c, 0, 38, 57
5, 1101600, Note_on_c, 0, 50, 57
5, 1101798, Note_on_c, 0, 38, 0
5, 1101840, Note_on_c, 0, 50, 0
5, 1101840, Note_on_c, 0, 38, 57
5, 1102320, Note_on_c, 0, 52, 59
5, 1102518, Note_on_c, 0, 38, 0
5, 1102560, Note_on_c, 0, 52, 0
5, 1102560, Note_on_c, 0, 38, 60
5, 1103040, Note_on_c, 0, 45, 61
5, 1103238, Note_on_c, 0, 38, 0
5, 1103280, Note_on_c, 0, 45, 0
5, 1103280, Note_on_c, 0, 38, 62
5, 1103760, Note_on_c, 0, 50, 64
5, 1103958, Note_on_c, 0, 38, 0
5, 1104000, Note_on_c, 0, 50, 0
5, 1104000, Note_on_c, 0, 38, 65
5, 1104480, Note_on_c, 0, 45, 66
5, 1104678, Note_on_c, 0, 38, 0
5, 1104720, Note_on_c, 0, 45, 0
5, 1104720, Note_on_c, 0, 38, 68
5, 1105200, Note_on_c, 0, 52, 66
5, 1105398, Note_on_c, 0, 38, 0
5, 1105440, Note_on_c, 0, 52, 0
5, 1105440, Note_on_c, 0, 38, 66
5, 1105920, Note_on_c, 0, 45, 64
5, 1106140, Note_on_c, 0, 38, 0
5, 1106160, Note_on_c, 0, 45, 0
5, 1106160, Note_on_c, 0, 38, 63
5, 1106640, Note_on_c, 0, 50, 61
5, 1106860, Note_on_c, 0, 38, 0
5, 1106880, Note_on_c, 0, 50, 0
5, 1106880, Note_on_c, 0, 38, 61
5, 1107360, Note_on_c, 0, 45, 61
5, 1107580, Note_on_c, 0, 38, 0
5, 1107600, Note_on_c, 0, 45, 0
5, 1107600, Note_on_c, 0, 38, 61
5, 1108080, Note_on_c, 0, 52, 63
5, 1108300, Note_on_c, 0, 38, 0
5, 1108320, Note_on_c, 0, 52, 0
5, 1108320, Note_on_c, 0, 38, 63
5, 1108800, Note_on_c, 0, 45, 64
5, 1109020, Note_on_c, 0, 38, 0
5, 1109040, Note_on_c, 0, 45, 0
5, 1109040, Note_on_c, 0, 38, 65
5, 1109520, Note_on_c, 0, 50, 66
5, 1109740, Note_on_c, 0, 38, 0
5, 1109760, Note_on_c, 0, 50, 0
5, 1109760, Note_on_c, 0, 45, 66
5, 1110240, Note_on_c, 0, 45, 0
5, 1110240, Note_on_c, 0, 42, 67
5, 1110480, Note_on_c, 0, 42, 0
5, 1110480, Note_on_c, 0, 38, 68
5, 1110960, Note_on_c, 0, 52, 66
5, 1111180, Note_on_c, 0, 38, 0
5, 1111200, Note_on_c, 0, 52, 0
5, 1111200, Note_on_c, 0, 38, 64
5, 1111680, Note_on_c, 0, 45, 62
5, 1111900, Note_on_c, 0, 38, 0
5, 1111920, Note_on_c, 0, 45, 0
5, 1111920, Note_on_c, 0, 38, 60
5, 1112400, Note_on_c, 0, 50, 58
5, 1112620, Note_on_c, 0, 38, 0
5, 1112640, Note_on_c, 0, 50, 0
5, 1112640, Note_on_c, 0, 45, 57
5, 1113120, Note_on_c, 0, 45, 0
5, 1113120, Note_on_c, 0, 42, 53
5, 1113360, Note_on_c, 0, 42, 0
5, 1113360, Control_c, 0, 64, 0
5, 1113360, Note_on_c, 0, 38, 54
5, 1113420, Control_c, 0, 64, 127
5, 1113480, Note_on_c, 0, 38, 0
5, 1113480, Note_on_c, 0, 42, 54
5, 1113600, Note_on_c, 0, 42, 0
5, 1113600, Note_on_c, 0, 45, 55
5, 1113720, Note_on_c, 0, 45, 0
5, 1113720, Note_on_c, 0, 50, 55
5, 1113840, Note_on_c, 0, 50, 0
5, 1114080, Control_c, 0, 64, 0
5, 1114080, Note_on_c, 0, 49, 56
5, 1114140, Control_c, 0, 64, 127
5, 1114200, Note_on_c, 0, 49, 0
5, 1114200, Note_on_c, 0, 52, 57
5, 1114320, Note_on_c, 0, 52, 0
5, 1114320, Note_on_c, 0, 57, 57
5, 1114440, Note_on_c, 0, 57, 0
5, 1114440, Note_on_c, 0, 61, 57
5, 1114560, Note_on_c, 0, 61, 0
5, 1114800, Control_c, 0, 64, 0
5, 1114800, Note_on_c, 0, 47, 59
5, 1114860, Control_c, 0, 64, 127
5, 1114920, Note_on_c, 0, 47, 0
5, 1114920, Note_on_c, 0, 50, 59
5, 1115040, Note_on_c, 0, 50, 0
5, 1115040, Note_on_c, 0, 54, 59
5, 1115160, Note_on_c, 0, 54, 0
5, 1115160, Note_on_c, 0, 59, 60
5, 1115280, Note_on_c, 0, 59, 0
5, 1115520, Control_c, 0, 64, 0
5, 1115520, Note_on_c, 0, 57, 61
5, 1115580, Control_c, 0, 64, 127
5, 1115640, Note_on_c, 0, 57, 0
5, 1115640, Note_on_c, 0, 61, 61
5, 1115760, Note_on_c, 0, 61, 0
5, 1115760, Note_on_c, 0, 66, 62
5, 1115880, Note_on_c, 0, 66, 0
5, 1115880, Note_on_c, 0, 69, 62
5, 1116000, Note_on_c, 0, 69, 0
5, 1116240, Control_c, 0, 64, 0
5, 1116240, Note_on_c, 0, 43, 63
5, 1116300, Control_c, 0, 64, 127
5, 1116360, Note_on_c, 0, 43, 0
5, 1116360, Note_on_c, 0, 47, 63
5, 1116480, Note_on_c, 0, 47, 0
5, 1116480, Note_on_c, 0, 50, 64
5, 1116600, Note_on_c, 0, 50, 0
5, 1116600, Note_on_c, 0, 55, 64
5, 1116720, Note_on_c, 0, 55, 0
5, 1116960, Control_c, 0, 64, 0
5, 1116960, Note_on_c, 0, 54, 65
5, 1117020, Control_c, 0, 64, 127
5, 1117080, Note_on_c, 0, 54, 0
5, 1117080, Note_on_c, 0, 57, 66
5, 1117200, Note_on_c, 0, 57, 0
5, 1117200, Note_on_c, 0, 62, 66
5, 1117320, Note_on_c, 0, 62, 0
5, 1117320, Note_on_c, 0, 66, 67
5, 1117440, Note_on_c, 0, 66, 0
5, 1117680, Control_c, 0, 64, 0
5, 1117680, Note_on_c, 0, 52, 70
5, 1117680, Note_on_c, 0, 64, 70
5, 1117740, Control_c, 0, 64, 127
5, 1117800, Note_on_c, 0, 64, 0
5, 1117800, Note_on_c, 0, 52, 0
5, 1117920, Note_on_c, 0, 64, 68
5, 1117920, Note_on_c, 0, 52, 68
5, 1118040, Note_on_c, 0, 52, 0
5, 1118040, Note_on_c, 0, 64, 0
5, 1118160, Control_c, 0, 64, 0
5, 1118160, Note_on_c, 0, 62, 65
5, 1118160, Note_on_c, 0, 50, 65
5, 1118220, Control_c, 0, 64, 127
5, 1118280, Note_on_c, 0, 50, 0
5, 1118280, Note_on_c, 0, 62, 0
5, 1118400, Control_c, 0, 64, 0
5, 1118400, Note_on_c, 0, 45, 63
5, 1118400, Note_on_c, 0, 57, 63
5, 1118880, Note_on_c, 0, 57, 0
5, 1118880, Note_on_c, 0, 45, 0
5, 1119120, Control_c, 0, 64, 0
5, 1119120, Note_on_c, 0, 38, 58
5, 1119180, Control_c, 0, 64, 127
5, 1119240, Note_on_c, 0, 38, 0
5, 1119240, Note_on_c, 0, 42, 58
5, 1119360, Note_on_c, 0, 42, 0
5, 1119360, Note_on_c, 0, 45, 59
5, 1119480, Note_on_c, 0, 45, 0
5, 1119480, Note_on_c, 0, 50, 59
5, 1119600, Note_on_c, 0, 50, 0
5, 1119840, Control_c, 0, 64, 0
5, 1119840, Note_on_c, 0, 49, 60
5, 1119900, Control_c, 0, 64, 127
5, 1119960, Note_on_c, 0, 49, 0
5, 1119960, Note_on_c, 0, 52, 61
5, 1120080, Note_on_c, 0, 52, 0
5, 1120080, Note_on_c, 0, 57, 61
5, 1120200, Note_on_c, 0, 57, 0
5, 1120200, Note_on_c, 0, 61, 61
5, 1120320, Note_on_c, 0, 61, 0
5, 1120560, Control_c, 0, 64, 0
5, 1120560, Note_on_c, 0, 47, 62
5, 1120620, Control_c, 0, 64, 127
5, 1120680, Note_on_c, 0, 47, 0
5, 1120680, Note_on_c, 0, 50, 63
5, 1120800, Note_on_c, 0, 50, 0
5, 1120800, Note_on_c, 0, 54, 63
5, 1120920, Note_on_c, 0, 54, 0
5, 1120920, Note_on_c, 0, 59, 64
5, 1121040, Note_on_c, 0, 59, 0
5, 1121280, Control_c, 0, 64, 0
5, 1121280, Note_on_c, 0, 57, 65
5, 1121340, Control_c, 0, 64, 127
5, 1121400, Note_on_c, 0, 57, 0
5, 1121400, Note_on_c, 0, 61, 65
5, 1121520, Note_on_c, 0, 61, 0
5, 1121520, Note_on_c, 0, 66, 66
5, 1121640, Note_on_c, 0, 66, 0
5, 1121640, Note_on_c, 0, 69, 66
5, 1121760, Note_on_c, 0, 69, 0
5, 1122000, Control_c, 0, 64, 0
5, 1122000, Control_c, 0, 64, 0
5, 1122000, Note_on_c, 0, 43, 67
5, 1122060, Control_c, 0, 64, 127
5, 1122060, Control_c, 0, 64, 127
5, 1122120, Note_on_c, 0, 43, 0
5, 1122120, Note_on_c, 0, 47, 68
5, 1122240, Note_on_c, 0, 47, 0
5, 1122240, Note_on_c, 0, 50, 68
5, 1122360, Note_on_c, 0, 50, 0
5, 1122360, Note_on_c, 0, 55, 68
5, 1122480, Note_on_c, 0, 55, 0
5, 1122720, Control_c, 0, 64, 0
5, 1122720, Control_c, 0, 64, 0
5, 1122720, Note_on_c, 0, 54, 70
5, 1122780, Control_c, 0, 64, 127
5, 1122780, Control_c, 0, 64, 127
5, 1122840, Note_on_c, 0, 54, 0
5, 1122840, Note_on_c, 0, 57, 70
5, 1122960, Note_on_c, 0, 57, 0
5, 1122960, Note_on_c, 0, 63, 70
5, 1123080, Note_on_c, 0, 63, 0
5, 1123080, Note_on_c, 0, 66, 71
5, 1123200, Note_on_c, 0, 66, 0
5, 1123440, Control_c, 0, 64, 0
5, 1123440, Control_c, 0, 64, 0
5, 1123440, Note_on_c, 0, 43, 72
5, 1123500, Control_c, 0, 64, 127
5, 1123500, Control_c, 0, 64, 127
5, 1123560, Note_on_c, 0, 43, 0
5, 1123560, Note_on_c, 0, 47, 72
5, 1123680, Note_on_c, 0, 47, 0
5, 1123680, Note_on_c, 0, 52, 73
5, 1123800, Note_on_c, 0, 52, 0
5, 1123800, Note_on_c, 0, 55, 73
5, 1123920, Note_on_c, 0, 55, 0
5, 1124160, Control_c, 0, 64, 0
5, 1124160, Control_c, 0, 64, 0
5, 1124160, Note_on_c, 0, 56, 74
5, 1124220, Control_c, 0, 64, 127
5, 1124220, Control_c, 0, 64, 127
5, 1124280, Note_on_c, 0, 56, 0
5, 1124280, Note_on_c, 0, 59, 75
5, 1124400, Note_on_c, 0, 59, 0
5, 1124400, Note_on_c, 0, 64, 75
5, 1124520, Note_on_c, 0, 64, 0
5, 1124520, Note_on_c, 0, 68, 76
5, 1124640, Note_on_c, 0, 68, 0
5, 1124880, Control_c, 0, 64, 0
5, 1124880, Control_c, 0, 64, 0
5, 1124880, Note_on_c, 0, 45, 77
5, 1124940, Control_c, 0, 64, 127
5, 1124940, Control_c, 0, 64, 127
5, 1125000, Note_on_c, 0, 45, 0
5, 1125000, Note_on_c, 0, 49, 77
5, 1125120, Note_on_c, 0, 49, 0
5, 1125120, Note_on_c, 0, 52, 78
5, 1125240, Note_on_c, 0, 52, 0
5, 1125240, Note_on_c, 0, 57, 78
5, 1125360, Note_on_c, 0, 57, 0
5, 1125600, Control_c, 0, 64, 0
5, 1125600, Control_c, 0, 64, 0
5, 1125600, Note_on_c, 0, 57, 79
5, 1125660, Control_c, 0, 64, 127
5, 1125660, Control_c, 0, 64, 127
5, 1125720, Note_on_c, 0, 57, 0
5, 1125720, Note_on_c, 0, 61, 80
5, 1125840, Note_on_c, 0, 61, 0
5, 1125840, Note_on_c, 0, 64, 80
5, 1125960, Note_on_c, 0, 64, 0
5, 1125960, Note_on_c, 0, 69, 80
5, 1126080, Note_on_c, 0, 69, 0
5, 1126320, Control_c, 0, 64, 0
5, 1126320, Control_c, 0, 64, 0
5, 1126320, Note_on_c, 0, 45, 82
5, 1126380, Control_c, 0, 64, 127
5, 1126380, Control_c, 0, 64, 127
5, 1126440, Note_on_c, 0, 45, 0
5, 1126440, Note_on_c, 0, 50, 82
5, 1126560, Note_on_c, 0, 50, 0
5, 1126560, Note_on_c, 0, 54, 82
5, 1126680, Note_on_c, 0, 54, 0
5, 1126680, Note_on_c, 0, 57, 83
5, 1126800, Note_on_c, 0, 57, 0
5, 1127040, Control_c, 0, 64, 0
5, 1127040, Control_c, 0, 64, 0
5, 1127040, Note_on_c, 0, 57, 84
5, 1127100, Control_c, 0, 64, 127
5, 1127100, Control_c, 0, 64, 127
5, 1127160, Note_on_c, 0, 57, 0
5, 1127160, Note_on_c, 0, 62, 84
5, 1127280, Note_on_c, 0, 62, 0
5, 1127280, Note_on_c, 0, 65, 85
5, 1127400, Note_on_c, 0, 65, 0
5, 1127400, Note_on_c, 0, 69, 85
5, 1127520, Note_on_c, 0, 69, 0
5, 1127760, Control_c, 0, 64, 0
5, 1127760, Control_c, 0, 64, 0
5, 1127760, Note_on_c, 0, 33, 86
5, 1127820, Control_c, 0, 64, 127
5, 1127820, Control_c, 0, 64, 127
5, 1127880, Note_on_c, 0, 33, 0
5, 1127880, Note_on_c, 0, 37, 87
5, 1128000, Note_on_c, 0, 37, 0
5, 1128000, Note_on_c, 0, 40, 87
5, 1128120, Note_on_c, 0, 40, 0
5, 1128120, Note_on_c, 0, 45, 88
5, 1128240, Note_on_c, 0, 45, 0
5, 1128480, Note_on_c, 0, 45, 89
5, 1128600, Note_on_c, 0, 45, 0
5, 1128600, Note_on_c, 0, 49, 89
5, 1128720, Note_on_c, 0, 49, 0
5, 1128720, Note_on_c, 0, 52, 90
5, 1128840, Note_on_c, 0, 52, 0
5, 1128840, Note_on_c, 0, 57, 90
5, 1128960, Note_on_c, 0, 57, 0
5, 1129200, Note_on_c, 0, 33, 91
5, 1129320, Note_on_c, 0, 33, 0
5, 1129320, Note_on_c, 0, 38, 92
5, 1129440, Note_on_c, 0, 38, 0
5, 1129440, Note_on_c, 0, 42, 92
5, 1129560, Note_on_c, 0, 42, 0
5, 1129560, Note_on_c, 0, 45, 92
5, 1129680, Note_on_c, 0, 45, 0
5, 1129920, Note_on_c, 0, 45, 93
5, 1130040, Note_on_c, 0, 45, 0
5, 1130040, Note_on_c, 0, 50, 94
5, 1130160, Note_on_c, 0, 50, 0
5, 1130160, Note_on_c, 0, 53, 94
5, 1130280, Note_on_c, 0, 53, 0
5, 1130280, Note_on_c, 0, 57, 95
5, 1130400, Note_on_c, 0, 57, 0
5, 1130640, Note_on_c, 0, 33, 96
5, 1130760, Note_on_c, 0, 33, 0
5, 1130760, Note_on_c, 0, 37, 96
5, 1130880, Note_on_c, 0, 37, 0
5, 1130880, Note_on_c, 0, 40, 97
5, 1131000, Note_on_c, 0, 40, 0
5, 1131000, Note_on_c, 0, 45, 97
5, 1131120, Note_on_c, 0, 45, 0
5, 1131360, Note_on_c, 0, 33, 98
5, 1131480, Note_on_c, 0, 33, 0
5, 1131480, Note_on_c, 0, 37, 99
5, 1131600, Note_on_c, 0, 37, 0
5, 1131600, Note_on_c, 0, 40, 100
5, 1131720, Note_on_c, 0, 40, 0
5, 1131720, Note_on_c, 0, 45, 101
5, 1131840, Note_on_c, 0, 45, 0
5, 1132080, Note_on_c, 0, 33, 104
5, 1132200, Note_on_c, 0, 33, 0
5, 1132200, Note_on_c, 0, 37, 105
5, 1132320, Note_on_c, 0, 37, 0
5, 1132320, Note_on_c, 0, 40, 106
5, 1132440, Note_on_c, 0, 40, 0
5, 1132440, Note_on_c, 0, 45, 107
5, 1132560, Note_on_c, 0, 45, 0
5, 1132800, Note_on_c, 0, 33, 110
5, 1132920, Note_on_c, 0, 33, 0
5, 1132920, Note_on_c, 0, 37, 111
5, 1133040, Note_on_c, 0, 37, 0
5, 1133040, Note_on_c, 0, 40, 112
5, 1133160, Note_on_c, 0, 40, 0
5, 1133160, Note_on_c, 0, 45, 113
5, 1133280, Note_on_c, 0, 45, 0
5, 1133520, Note_on_c, 0, 33, 123
5, 1134000, Note_on_c, 0, 33, 0
5, 1134240, Control_c, 0, 64, 0
5, 1134240, Control_c, 0, 64, 0
5, 1137600, Note_on_c, 0, 54, 74
5, 1137840, Note_on_c, 0, 54, 0
5, 1137840, Note_on_c, 0, 50, 73
5, 1138320, Note_on_c, 0, 50, 0
5, 1138320, Note_on_c, 0, 57, 70
5, 1138560, Note_on_c, 0, 57, 0
5, 1138560, Note_on_c, 0, 54, 68
5, 1139040, Note_on_c, 0, 54, 0
5, 1139040, Note_on_c, 0, 50, 72
5, 1139280, Note_on_c, 0, 50, 0
5, 1139280, Note_on_c, 0, 57, 70
5, 1139760, Note_on_c, 0, 57, 0
5, 1139760, Note_on_c, 0, 45, 67
5, 1140000, Note_on_c, 0, 45, 0
5, 1140000, Note_on_c, 0, 50, 66
5, 1140240, Note_on_c, 0, 50, 0
5, 1143240, Note_on_c, 0, 54, 64
5, 1143360, Note_on_c, 0, 54, 0
5, 1143360, Note_on_c, 0, 53, 64
5, 1143480, Note_on_c, 0, 53, 0
5, 1143480, Note_on_c, 0, 54, 64
5, 1143600, Note_on_c, 0, 54, 0
5, 1143600, Note_on_c, 0, 50, 64
5, 1143720, Note_on_c, 0, 50, 0
5, 1143960, Note_on_c, 0, 57, 63
5, 1144080, Note_on_c, 0, 57, 0
5, 1144080, Note_on_c, 0, 56, 63
5, 1144200, Note_on_c, 0, 56, 0
5, 1144200, Note_on_c, 0, 57, 62
5, 1144320, Note_on_c, 0, 57, 0
5, 1144320, Note_on_c, 0, 54, 62
5, 1144560, Note_on_c, 0, 54, 0
5, 1144800, Note_on_c, 0, 42, 64
5, 1145040, Note_on_c, 0, 42, 0
5, 1145040, Note_on_c, 0, 45, 62
5, 1145520, Note_on_c, 0, 45, 0
5, 1145520, Note_on_c, 0, 33, 59
5, 1145760, Note_on_c, 0, 33, 0
5, 1145760, Note_on_c, 0, 38, 58
5, 1146000, Note_on_c, 0, 38, 0
5, 1146240, Note_on_c, 0, 50, 66
5, 1146480, Note_on_c, 0, 50, 0
5, 1146480, Note_on_c, 0, 57, 65
5, 1146960, Note_on_c, 0, 57, 0
5, 1146960, Note_on_c, 0, 45, 63
5, 1147200, Note_on_c, 0, 45, 0
5, 1147200, Note_on_c, 0, 50, 62
5, 1147440, Note_on_c, 0, 50, 0
5, 1147680, Note_on_c, 0, 42, 72
5, 1147920, Note_on_c, 0, 42, 0
5, 1147920, Note_on_c, 0, 45, 71
5, 1148400, Note_on_c, 0, 45, 0
5, 1148400, Note_on_c, 0, 33, 69
5, 1148640, Note_on_c, 0, 33, 0
5, 1148640, Note_on_c, 0, 38, 67
5, 1148880, Note_on_c, 0, 38, 0
5, 1149120, Note_on_c, 0, 38, 80
5, 1149360, Note_on_c, 0, 38, 0
5, 1149360, Note_on_c, 0, 45, 79
5, 1149840, Note_on_c, 0, 45, 0
5, 1149840, Note_on_c, 0, 33, 77
5, 1150080, Note_on_c, 0, 33, 0
5, 1150080, Note_on_c, 0, 38, 76
5, 1150320, Note_on_c, 0, 38, 0
5, 1150560, Note_on_c, 0, 35, 84
5, 1150560, Note_on_c, 0, 47, 84
5, 1150800, Note_on_c, 0, 47, 0
5, 1150800, Note_on_c, 0, 35, 0
5, 1150800, Control_c, 0, 64, 0
5, 1150800, Note_on_c, 0, 43, 81
5, 1150800, Note_on_c, 0, 31, 81
5, 1152240, Note_on_c, 0, 31, 0
5, 1152240, Note_on_c, 0, 43, 0
5, 1152240, Note_on_c, 0, 45, 108
5, 1152240, Note_on_c, 0, 33, 108
5, 1153680, Note_on_c, 0, 33, 0
5, 1153680, Note_on_c, 0, 45, 0
5, 1153680, Note_on_c, 0, 38, 115
5, 1153680, Note_on_c, 0, 50, 115
5, 1154400, Note_on_c, 0, 49, 106
5, 1154640, Note_on_c, 0, 49, 0
5, 1154640, Note_on_c, 0, 47, 106
5, 1154880, Note_on_c, 0, 47, 0
5, 1154880, Note_on_c, 0, 45, 105
5, 1155120, Note_on_c, 0, 45, 0
5, 1155120, Note_on_c, 0, 38, 0
5, 1155120, Note_on_c, 0, 47, 104
5, 1155360, Note_on_c, 0, 47, 0
5, 1155360, Note_on_c, 0, 45, 104
5, 1155600, Note_on_c, 0, 45, 0
5, 1155600, Note_on_c, 0, 43, 103
5, 1155840, Note_on_c, 0, 43, 0
5, 1155840, Note_on_c, 0, 42, 102
5, 1156080, Note_on_c, 0, 42, 0
5, 1156080, Note_on_c, 0, 43, 102
5, 1156320, Note_on_c, 0, 43, 0
5, 1156320, Note_on_c, 0, 45, 101
5, 1156560, Note_on_c, 0, 45, 0
5, 1156560, Note_on_c, 0, 50, 0
5, 1156560, Note_on_c, 0, 38, 123
5, 1156560, Note_on_c, 0, 50, 123
5, 1157280, Note_on_c, 0, 49, 117
5, 1157520, Note_on_c, 0, 49, 0
5, 1157520, Note_on_c, 0, 47, 116
5, 1157760, Note_on_c, 0, 47, 0
5, 1157760, Note_on_c, 0, 45, 115
5, 1158000, Note_on_c, 0, 45, 0
5, 1158000, Note_on_c, 0, 38, 0
5, 1158000, Note_on_c, 0, 47, 114
5, 1158240, Note_on_c, 0, 47, 0
5, 1158240, Note_on_c, 0, 45, 113
5, 1158480, Note_on_c, 0, 45, 0
5, 1158480, Note_on_c, 0, 43, 111
5, 1158720, Note_on_c, 0, 43, 0
5, 1158720, Note_on_c, 0, 42, 110
5, 1158960, Note_on_c, 0, 42, 0
5, 1158960, Note_on_c, 0, 43, 109
5, 1159200, Note_on_c, 0, 43, 0
5, 1159200, Note_on_c, 0, 45, 108
5, 1159440, Note_on_c, 0, 45, 0
5, 1159440, Note_on_c, 0, 50, 0
5, 1159440, Note_on_c, 0, 50, 121
5, 1159440, Note_on_c, 0, 38, 121
5, 1160160, Note_on_c, 0, 48, 118
5, 1160400, Note_on_c, 0, 48, 0
5, 1160400, Note_on_c, 0, 47, 117
5, 1160640, Note_on_c, 0, 47, 0
5, 1160640, Note_on_c, 0, 45, 116
5, 1160880, Note_on_c, 0, 45, 0
5, 1160880, Note_on_c, 0, 38, 0
5, 1160880, Note_on_c, 0, 43, 115
5, 1161120, Note_on_c, 0, 43, 0
5, 1161120, Note_on_c, 0, 42, 114
5, 1161360, Note_on_c, 0, 42, 0
5, 1161360, Note_on_c, 0, 40, 114
5, 1161585, Note_on_c, 0, 50, 0
5, 1161600, Note_on_c, 0, 40, 0
5, 1161600, Note_on_c, 0, 50, 113
5, 1161600, Note_on_c, 0, 38, 113
5, 1161840, Note_on_c, 0, 38, 0
5, 1161840, Note_on_c, 0, 50, 0
5, 1161840, Note_on_c, 0, 48, 112
5, 1161840, Note_on_c, 0, 36, 112
5, 1162080, Note_on_c, 0, 36, 0
5, 1162080, Note_on_c, 0, 48, 0
5, 1162080, Note_on_c, 0, 47, 111
5, 1162080, Note_on_c, 0, 35, 111
5, 1162320, Note_on_c, 0, 35, 0
5, 1162320, Note_on_c, 0, 47, 0
5, 1162320, Note_on_c, 0, 48, 113
5, 1162320, Note_on_c, 0, 36, 113
5, 1162800, Note_on_c, 0, 36, 0
5, 1162800, Note_on_c, 0, 48, 0
5, 1163760, Note_on_c, 0, 37, 116
5, 1163760, Note_on_c, 0, 49, 116
5, 1164240, Note_on_c, 0, 49, 0
5, 1164240, Note_on_c, 0, 37, 0
5, 1164960, Note_on_c, 0, 50, 47
5, 1165200, Note_on_c, 0, 50, 0
5, 1165200, Note_on_c, 0, 43, 47
5, 1165680, Note_on_c, 0, 50, 48
5, 1165920, Note_on_c, 0, 50, 0
5, 1165920, Note_on_c, 0, 43, 0
5, 1165920, Note_on_c, 0, 43, 49
5, 1166400, Note_on_c, 0, 52, 50
5, 1166640, Note_on_c, 0, 52, 0
5, 1166640, Note_on_c, 0, 43, 0
5, 1166640, Note_on_c, 0, 43, 50
5, 1167120, Note_on_c, 0, 54, 51
5, 1167360, Note_on_c, 0, 54, 0
5, 1167360, Note_on_c, 0, 43, 0
5, 1167360, Note_on_c, 0, 43, 52
5, 1167840, Note_on_c, 0, 55, 53
5, 1168080, Note_on_c, 0, 55, 0
5, 1168080, Note_on_c, 0, 43, 0
5, 1168080, Note_on_c, 0, 43, 53
5, 1168560, Note_on_c, 0, 47, 54
5, 1168800, Note_on_c, 0, 47, 0
5, 1168800, Note_on_c, 0, 43, 0
5, 1168800, Note_on_c, 0, 43, 55
5, 1169280, Note_on_c, 0, 48, 56
5, 1169520, Note_on_c, 0, 48, 0
5, 1169520, Note_on_c, 0, 43, 0
5, 1169520, Note_on_c, 0, 43, 56
5, 1170000, Note_on_c, 0, 50, 57
5, 1170240, Note_on_c, 0, 50, 0
5, 1170240, Note_on_c, 0, 43, 0
5, 1170240, Note_on_c, 0, 43, 57
5, 1170720, Note_on_c, 0, 55, 58
5, 1170960, Note_on_c, 0, 55, 0
5, 1170960, Note_on_c, 0, 43, 0
5, 1170960, Note_on_c, 0, 43, 59
5, 1171440, Note_on_c, 0, 50, 60
5, 1171680, Note_on_c, 0, 50, 0
5, 1171680, Note_on_c, 0, 43, 0
5, 1171680, Note_on_c, 0, 43, 60
5, 1172160, Note_on_c, 0, 52, 61
5, 1172400, Note_on_c, 0, 52, 0
5, 1172400, Note_on_c, 0, 43, 0
5, 1172400, Note_on_c, 0, 43, 62
5, 1172880, Note_on_c, 0, 54, 63
5, 1173120, Note_on_c, 0, 54, 0
5, 1173120, Note_on_c, 0, 43, 0
5, 1173120, Note_on_c, 0, 43, 63
5, 1173600, Note_on_c, 0, 55, 64
5, 1173840, Note_on_c, 0, 55, 0
5, 1173840, Note_on_c, 0, 43, 0
5, 1173840, Note_on_c, 0, 44, 65
5, 1174320, Note_on_c, 0, 56, 66
5, 1174560, Note_on_c, 0, 56, 0
5, 1174560, Note_on_c, 0, 44, 0
5, 1174560, Note_on_c, 0, 45, 66
5, 1175040, Note_on_c, 0, 57, 67
5, 1175280, Note_on_c, 0, 57, 0
5, 1175280, Note_on_c, 0, 45, 0
5, 1175280, Note_on_c, 0, 46, 68
5, 1175760, Note_on_c, 0, 58, 69
5, 1176000, Note_on_c, 0, 58, 0
5, 1176000, Note_on_c, 0, 46, 0
5, 1176000, Note_on_c, 0, 47, 69
5, 1176480, Note_on_c, 0, 59, 70
5, 1176720, Note_on_c, 0, 59, 0
5, 1176720, Note_on_c, 0, 47, 0
5, 1176720, Note_on_c, 0, 45, 65
5, 1177200, Note_on_c, 0, 57, 59
5, 1177440, Note_on_c, 0, 57, 0
5, 1177440, Note_on_c, 0, 45, 0
5, 1177440, Note_on_c, 0, 45, 60
5, 1177920, Note_on_c, 0, 57, 61
5, 1178160, Note_on_c, 0, 57, 0
5, 1178160, Note_on_c, 0, 45, 0
5, 1178160, Note_on_c, 0, 45, 62
5, 1178640, Note_on_c, 0, 57, 64
5, 1178880, Note_on_c, 0, 57, 0
5, 1178880, Note_on_c, 0, 45, 0
5, 1178880, Note_on_c, 0, 45, 65
5, 1179360, Note_on_c, 0, 57, 66
5, 1179600, Note_on_c, 0, 57, 0
5, 1179600, Note_on_c, 0, 45, 0
5, 1179600, Note_on_c, 0, 45, 67
5, 1180080, Note_on_c, 0, 57, 69
5, 1180320, Note_on_c, 0, 57, 0
5, 1180320, Note_on_c, 0, 45, 0
5, 1180320, Note_on_c, 0, 45, 70
5, 1180800, Note_on_c, 0, 57, 72
5, 1181040, Note_on_c, 0, 57, 0
5, 1181040, Note_on_c, 0, 45, 0
5, 1181040, Note_on_c, 0, 45, 72
5, 1181520, Note_on_c, 0, 57, 74
5, 1181760, Note_on_c, 0, 57, 0
5, 1181760, Note_on_c, 0, 45, 0
5, 1181760, Note_on_c, 0, 45, 75
5, 1182240, Note_on_c, 0, 57, 77
5, 1182480, Note_on_c, 0, 57, 0
5, 1182480, Note_on_c, 0, 45, 0
5, 1182480, Note_on_c, 0, 45, 77
5, 1182960, Note_on_c, 0, 57, 79
5, 1183200, Note_on_c, 0, 57, 0
5, 1183200, Note_on_c, 0, 45, 0
5, 1183200, Note_on_c, 0, 45, 80
5, 1183680, Note_on_c, 0, 57, 82
5, 1183920, Note_on_c, 0, 57, 0
5, 1183920, Note_on_c, 0, 45, 0
5, 1183920, Note_on_c, 0, 45, 83
5, 1184400, Note_on_c, 0, 57, 84
5, 1184640, Note_on_c, 0, 57, 0
5, 1184640, Note_on_c, 0, 45, 0
5, 1184640, Note_on_c, 0, 45, 85
5, 1185120, Note_on_c, 0, 57, 87
5, 1185360, Note_on_c, 0, 57, 0
5, 1185360, Note_on_c, 0, 45, 0
5, 1185360, Note_on_c, 0, 45, 88
5, 1185600, Note_on_c, 0, 45, 0
5, 1185600, Note_on_c, 0, 57, 88
5, 1185840, Note_on_c, 0, 57, 0
5, 1185840, Note_on_c, 0, 45, 89
5, 1186080, Note_on_c, 0, 45, 0
5, 1186080, Note_on_c, 0, 57, 90
5, 1186320, Note_on_c, 0, 57, 0
5, 1186320, Note_on_c, 0, 45, 91
5, 1186560, Note_on_c, 0, 45, 0
5, 1186560, Note_on_c, 0, 57, 92
5, 1186800, Note_on_c, 0, 57, 0
5, 1186800, Note_on_c, 0, 33, 93
5, 1187040, Note_on_c, 0, 33, 0
5, 1187040, Note_on_c, 0, 45, 94
5, 1187280, Note_on_c, 0, 45, 0
5, 1187280, Note_on_c, 0, 33, 94
5, 1187520, Note_on_c, 0, 33, 0
5, 1187520, Note_on_c, 0, 45, 95
5, 1187760, Note_on_c, 0, 45, 0
5, 1187760, Note_on_c, 0, 33, 96
5, 1188000, Note_on_c, 0, 33, 0
5, 1188000, Note_on_c, 0, 45, 97
5, 1188240, Note_on_c, 0, 45, 0
5, 1188240, Note_on_c, 0, 33, 98
5, 1188480, Note_on_c, 0, 33, 0
5, 1188480, Note_on_c, 0, 45, 99
5, 1188720, Note_on_c, 0, 45, 0
5, 1188720, Note_on_c, 0, 33, 100
5, 1188960, Note_on_c, 0, 33, 0
5, 1188960, Note_on_c, 0, 45, 100
5, 1189200, Note_on_c, 0, 45, 0
5, 1189200, Note_on_c, 0, 33, 101
5, 1189440, Note_on_c, 0, 33, 0
5, 1189440, Note_on_c, 0, 45, 102
5, 1189680, Note_on_c, 0, 45, 0
5, 1189680, Note_on_c, 0, 33, 103
5, 1189920, Note_on_c, 0, 33, 0
5, 1189920, Note_on_c, 0, 45, 104
5, 1190160, Note_on_c, 0, 45, 0
5, 1190160, Note_on_c, 0, 33, 105
5, 1190400, Note_on_c, 0, 33, 0
5, 1190400, Note_on_c, 0, 45, 105
5, 1190640, Note_on_c, 0, 45, 0
5, 1190640, Note_on_c, 0, 33, 106
5, 1190880, Note_on_c, 0, 33, 0
5, 1190880, Note_on_c, 0, 45, 107
5, 1191120, Note_on_c, 0, 45, 0
5, 1191120, Control_c, 0, 64, 0
5, 1191120, Note_on_c, 0, 33, 110
5, 1191180, Control_c, 0, 64, 127
5, 1191240, Note_on_c, 0, 33, 0
5, 1191240, Note_on_c, 0, 37, 108
5, 1191360, Note_on_c, 0, 37, 0
5, 1191360, Note_on_c, 0, 40, 107
5, 1191480, Note_on_c, 0, 40, 0
5, 1191480, Note_on_c, 0, 43, 105
5, 1191600, Note_on_c, 0, 43, 0
5, 1191840, Note_on_c, 0, 45, 101
5, 1191960, Note_on_c, 0, 45, 0
5, 1191960, Note_on_c, 0, 49, 99
5, 1192080, Note_on_c, 0, 49, 0
5, 1192080, Note_on_c, 0, 52, 98
5, 1192200, Note_on_c, 0, 52, 0
5, 1192200, Note_on_c, 0, 55, 96
5, 1192320, Note_on_c, 0, 55, 0
5, 1194000, Control_c, 0, 64, 0
5, 1194000, Note_on_c, 0, 45, 65
5, 1194060, Control_c, 0, 64, 127
5, 1194120, Note_on_c, 0, 45, 0
5, 1194120, Note_on_c, 0, 49, 64
5, 1194240, Note_on_c, 0, 49, 0
5, 1194240, Note_on_c, 0, 52, 63
5, 1194360, Note_on_c, 0, 52, 0
5, 1194360, Note_on_c, 0, 55, 63
5, 1194480, Note_on_c, 0, 55, 0
5, 1194720, Note_on_c, 0, 57, 61
5, 1194840, Note_on_c, 0, 57, 0
5, 1194840, Note_on_c, 0, 61, 60
5, 1194960, Note_on_c, 0, 61, 0
5, 1194960, Note_on_c, 0, 64, 60
5, 1195080, Note_on_c, 0, 64, 0
5, 1195080, Note_on_c, 0, 67, 59
5, 1195200, Note_on_c, 0, 67, 0
5, 1196880, Control_c, 0, 64, 0
5, 1196880, Note_on_c, 0, 57, 48
5, 1196940, Control_c, 0, 64, 127
5, 1197000, Note_on_c, 0, 57, 0
5, 1197000, Note_on_c, 0, 61, 48
5, 1197120, Note_on_c, 0, 61, 0
5, 1197120, Note_on_c, 0, 64, 47
5, 1197240, Note_on_c, 0, 64, 0
5, 1197240, Note_on_c, 0, 67, 46
5, 1197360, Note_on_c, 0, 67, 0
5, 1198320, Control_c, 0, 64, 0
5, 1198320, Note_on_c, 0, 57, 42
5, 1198380, Control_c, 0, 64, 127
5, 1198440, Note_on_c, 0, 57, 0
5, 1198440, Note_on_c, 0, 61, 41
5, 1198560, Note_on_c, 0, 61, 0
5, 1198560, Note_on_c, 0, 64, 40
5, 1198680, Note_on_c, 0, 64, 0
5, 1198680, Note_on_c, 0, 67, 40
5, 1198800, Note_on_c, 0, 67, 0
5, 1200720, Control_c, 0, 64, 0
5, 1200960, Note_on_c, 0, 45, 47
5, 1200960, Note_on_c, 0, 57, 47
5, 1201116, Note_on_c, 0, 57, 0
5, 1201116, Note_on_c, 0, 45, 0
5, 1201200, Note_on_c, 0, 38, 48
5, 1201200, Note_on_c, 0, 50, 48
5, 1201440, Note_on_c, 0, 50, 0
5, 1201440, Note_on_c, 0, 38, 0
5, 1201680, Note_on_c, 0, 57, 50
5, 1201680, Note_on_c, 0, 45, 50
5, 1201836, Note_on_c, 0, 45, 0
5, 1201836, Note_on_c, 0, 57, 0
5, 1201920, Note_on_c, 0, 38, 50
5, 1201920, Note_on_c, 0, 50, 50
5, 1202160, Note_on_c, 0, 50, 0
5, 1202160, Note_on_c, 0, 38, 0
5, 1202400, Note_on_c, 0, 47, 52
5, 1202400, Note_on_c, 0, 59, 52
5, 1202556, Note_on_c, 0, 59, 0
5, 1202556, Note_on_c, 0, 47, 0
5, 1202640, Note_on_c, 0, 38, 53
5, 1202640, Note_on_c, 0, 50, 53
5, 1202880, Note_on_c, 0, 50, 0
5, 1202880, Note_on_c, 0, 38, 0
5, 1203120, Note_on_c, 0, 61, 54
5, 1203120, Note_on_c, 0, 49, 54
5, 1203276, Note_on_c, 0, 49, 0
5, 1203276, Note_on_c, 0, 61, 0
5, 1203360, Note_on_c, 0, 50, 55
5, 1203360, Note_on_c, 0, 38, 55
5, 1203600, Note_on_c, 0, 38, 0
5, 1203600, Note_on_c, 0, 50, 0
5, 1203840, Note_on_c, 0, 50, 57
5, 1203840, Note_on_c, 0, 62, 57
5, 1203996, Note_on_c, 0, 62, 0
5, 1203996, Note_on_c, 0, 50, 0
5, 1204080, Note_on_c, 0, 38, 58
5, 1204080, Note_on_c, 0, 50, 58
5, 1204320, Note_on_c, 0, 50, 0
5, 1204320, Note_on_c, 0, 38, 0
5, 1204560, Note_on_c, 0, 42, 59
5, 1204560, Note_on_c, 0, 54, 59
5, 1204716, Note_on_c, 0, 54, 0
5, 1204716, Note_on_c, 0, 42, 0
5, 1204800, Note_on_c, 0, 38, 60
5, 1204800, Note_on_c, 0, 50, 60
5, 1205040, Note_on_c, 0, 50, 0
5, 1205040, Note_on_c, 0, 38, 0
5, 1205280, Note_on_c, 0, 43, 62
5, 1205280, Note_on_c, 0, 55, 62
5, 1205436, Note_on_c, 0, 55, 0
5, 1205436, Note_on_c, 0, 43, 0
5, 1205520, Note_on_c, 0, 38, 63
5, 1205520, Note_on_c, 0, 50, 63
5, 1205760, Note_on_c, 0, 50, 0
5, 1205760, Note_on_c, 0, 38, 0
5, 1206000, Note_on_c, 0, 45, 64
5, 1206000, Note_on_c, 0, 57, 64
5, 1206156, Note_on_c, 0, 57, 0
5, 1206156, Note_on_c, 0, 45, 0
5, 1206240, Note_on_c, 0, 38, 65
5, 1206240, Note_on_c, 0, 50, 65
5, 1206480, Note_on_c, 0, 50, 0
5, 1206480, Note_on_c, 0, 38, 0
5, 1206720, Note_on_c, 0, 50, 67
5, 1206720, Note_on_c, 0, 62, 67
5, 1206876, Note_on_c, 0, 62, 0
5, 1206876, Note_on_c, 0, 50, 0
5, 1206960, Note_on_c, 0, 38, 67
5, 1206960, Note_on_c, 0, 50, 67
5, 1207200, Note_on_c, 0, 50, 0
5, 1207200, Note_on_c, 0, 38, 0
5, 1207440, Note_on_c, 0, 45, 69
5, 1207440, Note_on_c, 0, 57, 69
5, 1207596, Note_on_c, 0, 57, 0
5, 1207596, Note_on_c, 0, 45, 0
5, 1207680, Note_on_c, 0, 38, 70
5, 1207680, Note_on_c, 0, 50, 70
5, 1207920, Note_on_c, 0, 50, 0
5, 1207920, Note_on_c, 0, 38, 0
5, 1208160, Note_on_c, 0, 50, 71
5, 1208160, Note_on_c, 0, 62, 71
5, 1208316, Note_on_c, 0, 62, 0
5, 1208316, Note_on_c, 0, 50, 0
5, 1208400, Note_on_c, 0, 38, 72
5, 1208400, Note_on_c, 0, 50, 72
5, 1208640, Note_on_c, 0, 50, 0
5, 1208640, Note_on_c, 0, 38, 0
5, 1208880, Note_on_c, 0, 49, 74
5, 1208880, Note_on_c, 0, 61, 74
5, 1209036, Note_on_c, 0, 61, 0
5, 1209036, Note_on_c, 0, 49, 0
5, 1209120, Note_on_c, 0, 38, 75
5, 1209120, Note_on_c, 0, 50, 75
5, 1209360, Note_on_c, 0, 50, 0
5, 1209360, Note_on_c, 0, 38, 0
5, 1209600, Note_on_c, 0, 50, 76
5, 1209600, Note_on_c, 0, 62, 76
5, 1209756, Note_on_c, 0, 62, 0
5, 1209756, Note_on_c, 0, 50, 0
5, 1209840, Note_on_c, 0, 38, 77
5, 1209840, Note_on_c, 0, 50, 77
5, 1210080, Note_on_c, 0, 50, 0
5, 1210080, Note_on_c, 0, 38, 0
5, 1210320, Note_on_c, 0, 42, 79
5, 1210320, Note_on_c, 0, 54, 79
5, 1210476, Note_on_c, 0, 54, 0
5, 1210476, Note_on_c, 0, 42, 0
5, 1210560, Note_on_c, 0, 38, 80
5, 1210560, Note_on_c, 0, 50, 80
5, 1210800, Note_on_c, 0, 50, 0
5, 1210800, Note_on_c, 0, 38, 0
5, 1211040, Note_on_c, 0, 43, 81
5, 1211040, Note_on_c, 0, 55, 81
5, 1211196, Note_on_c, 0, 55, 0
5, 1211196, Note_on_c, 0, 43, 0
5, 1211280, Note_on_c, 0, 38, 82
5, 1211280, Note_on_c, 0, 50, 82
5, 1211520, Note_on_c, 0, 50, 0
5, 1211520, Note_on_c, 0, 38, 0
5, 1211760, Note_on_c, 0, 45, 84
5, 1211760, Note_on_c, 0, 57, 84
5, 1211916, Note_on_c, 0, 57, 0
5, 1211916, Note_on_c, 0, 45, 0
5, 1212000, Note_on_c, 0, 38, 84
5, 1212000, Note_on_c, 0, 50, 84
5, 1212240, Note_on_c, 0, 50, 0
5, 1212240, Note_on_c, 0, 38, 0
5, 1212480, Note_on_c, 0, 50, 86
5, 1212480, Note_on_c, 0, 62, 86
5, 1212636, Note_on_c, 0, 62, 0
5, 1212636, Note_on_c, 0, 50, 0
5, 1212720, Note_on_c, 0, 38, 87
5, 1212720, Note_on_c, 0, 50, 87
5, 1212960, Note_on_c, 0, 50, 0
5, 1212960, Note_on_c, 0, 38, 0
5, 1213200, Note_on_c, 0, 54, 88
5, 1213200, Note_on_c, 0, 42, 88
5, 1213356, Note_on_c, 0, 42, 0
5, 1213356, Note_on_c, 0, 54, 0
5, 1213440, Note_on_c, 0, 38, 89
5, 1213440, Note_on_c, 0, 50, 89
5, 1213680, Note_on_c, 0, 50, 0
5, 1213680, Note_on_c, 0, 38, 0
5, 1213920, Note_on_c, 0, 55, 91
5, 1213920, Note_on_c, 0, 43, 91
5, 1214076, Note_on_c, 0, 43, 0
5, 1214076, Note_on_c, 0, 55, 0
5, 1214160, Note_on_c, 0, 38, 92
5, 1214160, Note_on_c, 0, 50, 92
5, 1214400, Note_on_c, 0, 50, 0
5, 1214400, Note_on_c, 0, 38, 0
5, 1214640, Note_on_c, 0, 57, 93
5, 1214640, Note_on_c, 0, 45, 93
5, 1214796, Note_on_c, 0, 45, 0
5, 1214796, Note_on_c, 0, 57, 0
5, 1214880, Note_on_c, 0, 38, 94
5, 1214880, Note_on_c, 0, 50, 94
5, 1215120, Note_on_c, 0, 50, 0
5, 1215120, Note_on_c, 0, 38, 0
5, 1215360, Note_on_c, 0, 62, 96
5, 1215360, Note_on_c, 0, 50, 96
5, 1215516, Note_on_c, 0, 50, 0
5, 1215516, Note_on_c, 0, 62, 0
5, 1215600, Note_on_c, 0, 38, 97
5, 1215600, Note_on_c, 0, 50, 97
5, 1215840, Note_on_c, 0, 50, 0
5, 1215840, Note_on_c, 0, 38, 0
5, 1216080, Note_on_c, 0, 54, 98
5, 1216080, Note_on_c, 0, 42, 98
5, 1216236, Note_on_c, 0, 42, 0
5, 1216236, Note_on_c, 0, 54, 0
5, 1216320, Note_on_c, 0, 38, 99
5, 1216320, Note_on_c, 0, 50, 99
5, 1216560, Note_on_c, 0, 50, 0
5, 1216560, Note_on_c, 0, 38, 0
5, 1216800, Note_on_c, 0, 55, 101
5, 1216800, Note_on_c, 0, 43, 101
5, 1216956, Note_on_c, 0, 43, 0
5, 1216956, Note_on_c, 0, 55, 0
5, 1217040, Note_on_c, 0, 38, 101
5, 1217040, Note_on_c, 0, 50, 101
5, 1217280, Note_on_c, 0, 50, 0
5, 1217280, Note_on_c, 0, 38, 0
5, 1217520, Note_on_c, 0, 57, 103
5, 1217520, Note_on_c, 0, 45, 103
5, 1217676, Note_on_c, 0, 45, 0
5, 1217676, Note_on_c, 0, 57, 0
5, 1217760, Note_on_c, 0, 38, 104
5, 1217760, Note_on_c, 0, 50, 104
5, 1218000, Note_on_c, 0, 50, 0
5, 1218000, Note_on_c, 0, 38, 0
5, 1218240, Note_on_c, 0, 62, 105
5, 1218240, Note_on_c, 0, 50, 105
5, 1218396, Note_on_c, 0, 50, 0
5, 1218396, Note_on_c, 0, 62, 0
5, 1218480, Note_on_c, 0, 38, 106
5, 1218480, Note_on_c, 0, 50, 106
5, 1218720, Note_on_c, 0, 50, 0
5, 1218720, Note_on_c, 0, 38, 0
5, 1218960, Note_on_c, 0, 54, 108
5, 1218960, Note_on_c, 0, 42, 108
5, 1219116, Note_on_c, 0, 42, 0
5, 1219116, Note_on_c, 0, 54, 0
5, 1219200, Note_on_c, 0, 38, 109
5, 1219200, Note_on_c, 0, 50, 109
5, 1219440, Note_on_c, 0, 50, 0
5, 1219440, Note_on_c, 0, 38, 0
5, 1219680, Note_on_c, 0, 55, 110
5, 1219680, Note_on_c, 0, 43, 110
5, 1219836, Note_on_c, 0, 43, 0
5, 1219836, Note_on_c, 0, 55, 0
5, 1219920, Note_on_c, 0, 38, 111
5, 1219920, Note_on_c, 0, 50, 111
5, 1220160, Note_on_c, 0, 50, 0
5, 1220160, Note_on_c, 0, 38, 0
5, 1220400, Note_on_c, 0, 57, 113
5, 1220400, Note_on_c, 0, 45, 113
5, 1220556, Note_on_c, 0, 45, 0
5, 1220556, Note_on_c, 0, 57, 0
5, 1220640, Note_on_c, 0, 38, 114
5, 1220640, Note_on_c, 0, 50, 114
5, 1220880, Note_on_c, 0, 50, 0
5, 1220880, Note_on_c, 0, 38, 0
5, 1221120, Note_on_c, 0, 62, 115
5, 1221120, Note_on_c, 0, 50, 115
5, 1221276, Note_on_c, 0, 50, 0
5, 1221276, Note_on_c, 0, 62, 0
5, 1221360, Note_on_c, 0, 38, 116
5, 1221360, Note_on_c, 0, 50, 116
5, 1221600, Note_on_c, 0, 50, 0
5, 1221600, Note_on_c, 0, 38, 0
5, 1222080, Note_on_c, 0, 62, 110
5, 1222200, Note_on_c, 0, 62, 0
5, 1222200, Note_on_c, 0, 69, 110
5, 1222320, Note_on_c, 0, 69, 0
5, 1222320, Note_on_c, 0, 66, 111
5, 1222440, Note_on_c, 0, 66, 0
5, 1222440, Note_on_c, 0, 62, 112
5, 1222560, Note_on_c, 0, 62, 0
5, 1222560, Note_on_c, 0, 57, 112
5, 1222680, Note_on_c, 0, 57, 0
5, 1222680, Note_on_c, 0, 66, 113
5, 1222800, Note_on_c, 0, 66, 0
5, 1222800, Note_on_c, 0, 62, 113
5, 1222920, Note_on_c, 0, 62, 0
5, 1222920, Note_on_c, 0, 57, 114
5, 1223040, Note_on_c, 0, 57, 0
5, 1223040, Note_on_c, 0, 54, 115
5, 1223160, Note_on_c, 0, 54, 0
5, 1223160, Note_on_c, 0, 62, 115
5, 1223280, Note_on_c, 0, 62, 0
5, 1223280, Note_on_c, 0, 57, 116
5, 1223400, Note_on_c, 0, 57, 0
5, 1223400, Note_on_c, 0, 54, 117
5, 1223520, Note_on_c, 0, 54, 0
5, 1223520, Note_on_c, 0, 50, 117
5, 1223640, Note_on_c, 0, 50, 0
5, 1223640, Note_on_c, 0, 57, 118
5, 1223760, Note_on_c, 0, 57, 0
5, 1223760, Note_on_c, 0, 54, 118
5, 1223880, Note_on_c, 0, 54, 0
5, 1223880, Note_on_c, 0, 50, 119
5, 1224000, Note_on_c, 0, 50, 0
5, 1224000, Note_on_c, 0, 45, 120
5, 1224120, Note_on_c, 0, 45, 0
5, 1224120, Note_on_c, 0, 42, 120
5, 1224240, Note_on_c, 0, 42, 0
5, 1224240, Note_on_c, 0, 38, 121
5, 1224480, Note_on_c, 0, 38, 0
5, 1224960, Note_on_c, 0, 57, 127
5, 1224960, Note_on_c, 0, 64, 127
5, 1225440, Note_on_c, 0, 64, 0
5, 1225440, Note_on_c, 0, 57, 0
5, 1225680, Note_on_c, 0, 62, 127
5, 1225680, Note_on_c, 0, 50, 127
5, 1226160, Note_on_c, 0, 50, 0
5, 1226160, Note_on_c, 0, 62, 0
5, 1226160, End_track
0, 0, End_of_file
