0, 0, Header, 1, 5, 480
1, 0, Start_track
1, 0, Title_t, "Untitled"
1, 0, Time_signature, 3, 2, 24, 8
1, 0, Key_signature, 0, "major"
1, 0, Tempo, 600000
1, 0, Marker_t, "Beethoven"
1, 960, Tempo, 337079
1, 1215, Tempo, 372671
1, 1440, Tempo, 337079
1, 1440, Marker_t, "Piano Sonata No.27"
1, 2770, Tempo, 340909
1, 2880, Tempo, 344828
1, 2880, Marker_t, "hisamori@bekkoame.or.jp"
1, 3840, Tempo, 340909
1, 4270, Tempo, 344828
1, 4320, Tempo, 340909
1, 4320, Marker_t, "Mail in English only"
1, 5700, Tempo, 344828
1, 5760, Marker_t, "Mar. 1998"
1, 6720, Tempo, 337079
1, 6975, Tempo, 372671
1, 7200, Tempo, 337079
1, 7200, Marker_t, "Thanks!"
1, 8540, Tempo, 340909
1, 8640, Tempo, 344828
1, 9600, Tempo, 340909
1, 10030, Tempo, 344828
1, 10080, Tempo, 340909
1, 11460, Tempo, 344828
1, 11520, Tempo, 379747
1, 12480, Tempo, 355030
1, 13095, Tempo, 346821
1, 15720, Tempo, 348837
1, 15930, Tempo, 346821
1, 18500, Tempo, 348837
1, 19920, Tempo, 352941
1, 20865, Tempo, 355030
1, 21360, Tempo, 359281
1, 21600, Tempo, 363636
1, 22095, Tempo, 394737
1, 22560, Tempo, 526316
1, 23040, Tempo, 845070
1, 25440, Tempo, 340909
1, 27240, Tempo, 352941
1, 27360, Tempo, 340909
1, 28320, Tempo, 355030
1, 28800, Tempo, 340909
1, 30240, Tempo, 344828
1, 30720, Tempo, 348837
1, 31200, Tempo, 340909
1, 31560, Tempo, 344828
1, 31680, Tempo, 340909
1, 33000, Tempo, 352941
1, 33120, Tempo, 344828
1, 34080, Tempo, 355030
1, 34560, Tempo, 355030
1, 35290, Tempo, 359281
1, 35520, Tempo, 377358
1, 35760, Tempo, 384615
1, 36000, Tempo, 500000
1, 37440, Tempo, 428571
1, 38400, Tempo, 340909
1, 38820, Tempo, 344828
1, 38880, Tempo, 340909
1, 40260, Tempo, 344828
1, 40320, Tempo, 340909
1, 41700, Tempo, 344828
1, 41760, Tempo, 340909
1, 43140, Tempo, 344828
1, 43200, Tempo, 340909
1, 44160, Tempo, 348837
1, 44400, Tempo, 352941
1, 44640, Tempo, 340909
1, 47400, Tempo, 344828
1, 48480, Tempo, 348837
1, 48960, Tempo, 355030
1, 49905, Tempo, 348837
1, 50160, Tempo, 355030
1, 50400, Tempo, 340909
1, 53160, Tempo, 344828
1, 54240, Tempo, 348837
1, 54720, Tempo, 352941
1, 55650, Tempo, 348837
1, 55920, Tempo, 355030
1, 56160, Tempo, 344828
1, 58390, Tempo, 348837
1, 58800, Tempo, 359281
1, 59040, Tempo, 359281
1, 60000, Tempo, 344828
1, 60420, Tempo, 348837
1, 60480, Tempo, 344828
1, 61860, Tempo, 348837
1, 61920, Tempo, 344828
1, 63300, Tempo, 348837
1, 63360, Tempo, 344828
1, 64680, Tempo, 352941
1, 64800, Tempo, 348837
1, 66200, Tempo, 352941
1, 67200, Tempo, 363636
1, 67680, Tempo, 340909
1, 76080, Tempo, 348837
1, 76320, Tempo, 344828
1, 76470, Tempo, 340909
1, 78910, Tempo, 344828
1, 79200, Tempo, 348837
1, 79470, Tempo, 340909
1, 80990, Tempo, 344828
1, 81150, Tempo, 346821
1, 81383, Tempo, 352941
1, 81615, Tempo, 379747
1, 81908, Tempo, 408163
1, 82080, Tempo, 340909
1, 90495, Tempo, 344828
1, 90720, Tempo, 340909
1, 97800, Tempo, 344828
1, 99120, Tempo, 363636
1, 99360, Tempo, 340909
1, 100200, Tempo, 344828
1, 100800, Tempo, 348837
1, 102180, Tempo, 352941
1, 102240, Tempo, 344828
1, 103620, Tempo, 348837
1, 104880, Tempo, 355030
1, 105120, Tempo, 340909
1, 105960, Tempo, 344828
1, 106500, Tempo, 348837
1, 107940, Tempo, 352941
1, 108000, Tempo, 344828
1, 109215, Tempo, 348837
1, 110880, Tempo, 352941
1, 113760, Tempo, 355030
1, 116610, Tempo, 359281
1, 118080, Tempo, 363636
1, 119520, Tempo, 428571
1, 120480, Tempo, 500000
1, 120960, Tempo, 363636
1, 122400, Tempo, 372671
1, 123840, Tempo, 379747
1, 124800, Tempo, 344828
1, 130920, Tempo, 348837
1, 131040, Tempo, 340909
1, 135300, Tempo, 344828
1, 135360, Tempo, 340909
1, 136740, Tempo, 344828
1, 136800, Tempo, 340909
1, 138180, Tempo, 344828
1, 138240, Tempo, 340909
1, 139620, Tempo, 344828
1, 139680, Tempo, 340909
1, 141060, Tempo, 344828
1, 141120, Tempo, 340909
1, 142500, Tempo, 344828
1, 142560, Tempo, 340909
1, 143940, Tempo, 344828
1, 144000, Tempo, 340909
1, 152640, Tempo, 340909
1, 158280, Tempo, 355030
1, 158400, Tempo, 344828
1, 158760, Tempo, 348837
1, 158880, Tempo, 434783
1, 159840, Tempo, 571429
1, 160800, Tempo, 352941
1, 161520, Tempo, 344828
1, 164040, Tempo, 348837
1, 164280, Tempo, 344828
1, 166920, Tempo, 348837
1, 167040, Tempo, 340909
1, 172680, Tempo, 344828
1, 172800, Tempo, 340909
1, 192900, Tempo, 344828
1, 192960, Tempo, 340909
1, 193380, Tempo, 344828
1, 193440, Tempo, 348837
1, 193860, Tempo, 352941
1, 194280, Tempo, 355030
1, 194400, Tempo, 344828
1, 195720, Tempo, 348837
1, 195840, Tempo, 348837
1, 197640, Tempo, 352941
1, 198610, Tempo, 355030
1, 209400, Tempo, 355030
1, 209520, Tempo, 359281
1, 209760, Tempo, 344828
1, 210020, Tempo, 379747
1, 210240, Tempo, 337079
1, 211575, Tempo, 340909
1, 211680, Tempo, 344828
1, 212640, Tempo, 340909
1, 213060, Tempo, 344828
1, 213120, Tempo, 340909
1, 214500, Tempo, 344828
1, 215040, Tempo, 348837
1, 215520, Tempo, 337079
1, 215760, Tempo, 372671
1, 216000, Tempo, 337079
1, 217320, Tempo, 340909
1, 217440, Tempo, 344828
1, 218400, Tempo, 340909
1, 218820, Tempo, 344828
1, 218880, Tempo, 340909
1, 220230, Tempo, 344828
1, 220320, Tempo, 379747
1, 221265, Tempo, 355030
1, 221880, Tempo, 346821
1, 224520, Tempo, 348837
1, 224895, Tempo, 346821
1, 227400, Tempo, 348837
1, 228720, Tempo, 352941
1, 229710, Tempo, 355030
1, 230160, Tempo, 359281
1, 230400, Tempo, 363636
1, 230880, Tempo, 394737
1, 231345, Tempo, 526316
1, 231840, Tempo, 845070
1, 234240, Tempo, 340909
1, 236040, Tempo, 344828
1, 236160, Tempo, 340909
1, 237150, Tempo, 352941
1, 237600, Tempo, 340909
1, 239040, Tempo, 344828
1, 239510, Tempo, 348837
1, 240000, Tempo, 340909
1, 240360, Tempo, 344828
1, 240480, Tempo, 340909
1, 241800, Tempo, 352941
1, 241920, Tempo, 344828
1, 242880, Tempo, 355030
1, 243360, Tempo, 355030
1, 244090, Tempo, 359281
1, 244320, Tempo, 377358
1, 244560, Tempo, 384615
1, 244800, Tempo, 500000
1, 246240, Tempo, 428571
1, 247200, Tempo, 340909
1, 247620, Tempo, 344828
1, 247680, Tempo, 340909
1, 249060, Tempo, 344828
1, 249120, Tempo, 340909
1, 250500, Tempo, 344828
1, 250560, Tempo, 340909
1, 251940, Tempo, 344828
1, 252000, Tempo, 340909
1, 252960, Tempo, 348837
1, 253200, Tempo, 355030
1, 253440, Tempo, 340909
1, 256200, Tempo, 344828
1, 257535, Tempo, 348837
1, 257760, Tempo, 355030
1, 258705, Tempo, 348837
1, 258960, Tempo, 355030
1, 259200, Tempo, 340909
1, 261960, Tempo, 344828
1, 263265, Tempo, 348837
1, 263520, Tempo, 352941
1, 264450, Tempo, 348837
1, 264720, Tempo, 355030
1, 264960, Tempo, 344828
1, 267255, Tempo, 348837
1, 267780, Tempo, 348837
1, 267840, Tempo, 355030
1, 268785, Tempo, 344828
1, 269220, Tempo, 348837
1, 269280, Tempo, 344828
1, 270660, Tempo, 348837
1, 270720, Tempo, 344828
1, 272100, Tempo, 348837
1, 272160, Tempo, 344828
1, 273480, Tempo, 348837
1, 275000, Tempo, 352941
1, 276000, Tempo, 355030
1, 276480, Tempo, 340909
1, 283680, Tempo, 340909
1, 285020, Tempo, 344828
1, 285280, Tempo, 340909
1, 287840, Tempo, 344828
1, 288000, Tempo, 348837
1, 288270, Tempo, 340909
1, 289770, Tempo, 344828
1, 289935, Tempo, 346821
1, 290168, Tempo, 352941
1, 290400, Tempo, 379747
1, 290693, Tempo, 408163
1, 290933, Tempo, 340909
1, 299295, Tempo, 344828
1, 299640, Tempo, 340909
1, 305160, Tempo, 344828
1, 306480, Tempo, 348837
1, 306720, Tempo, 340909
1, 307560, Tempo, 344828
1, 307920, Tempo, 359281
1, 308385, Tempo, 344828
1, 309540, Tempo, 348837
1, 311040, Tempo, 352941
1, 312240, Tempo, 355030
1, 312480, Tempo, 340909
1, 313320, Tempo, 344828
1, 315300, Tempo, 348837
1, 316740, Tempo, 352941
1, 316800, Tempo, 344828
1, 318120, Tempo, 348837
1, 319680, Tempo, 352941
1, 322560, Tempo, 355030
1, 326400, Tempo, 348837
1, 328320, Tempo, 352941
1, 331200, Tempo, 355030
1, 334080, Tempo, 359281
1, 336960, Tempo, 359281
1, 338880, Tempo, 389610
1, 339360, Tempo, 340909
1, 339600, Tempo, 344828
1, 339840, Tempo, 340909
1, 341145, Tempo, 344828
1, 341280, Tempo, 372671
1, 342210, Tempo, 377358
1, 342720, Tempo, 352941
1, 343890, Tempo, 355030
1, 344160, Tempo, 384615
1, 345120, Tempo, 394737
1, 345600, Tempo, 394737
1, 346320, Tempo, 402685
1, 346560, Tempo, 550459
1, 347040, Tempo, 540541
1, 349440, Tempo, 340909
1, 351240, Tempo, 359281
1, 351360, Tempo, 340909
1, 352320, Tempo, 348837
1, 352800, Tempo, 340909
1, 354240, Tempo, 344828
1, 354960, Tempo, 348837
1, 355200, Tempo, 340909
1, 355560, Tempo, 344828
1, 355680, Tempo, 340909
1, 356865, Tempo, 359281
1, 357120, Tempo, 348837
1, 358065, Tempo, 402685
1, 358560, Tempo, 389610
1, 359295, Tempo, 394737
1, 359490, Tempo, 402685
1, 359760, Tempo, 465116
1, 360000, Tempo, 500000
1, 360690, Tempo, 1578947
1, 361440, Time_signature, 2, 2, 24, 8
1, 361440, Marker_t, "<2>"
1, 362160, Tempo, 750000
1, 362340, Tempo, 769231
1, 362400, Tempo, 750000
1, 366180, Tempo, 769231
1, 366240, Tempo, 750000
1, 368100, Tempo, 759494
1, 369000, Tempo, 769231
1, 369200, Tempo, 750000
1, 371032, Tempo, 769231
1, 371040, Tempo, 750000
1, 372945, Tempo, 769231
1, 372960, Tempo, 750000
1, 375780, Tempo, 759494
1, 376740, Tempo, 789474
1, 376860, Tempo, 750000
1, 378712, Tempo, 769231
1, 378720, Tempo, 750000
1, 380625, Tempo, 769231
1, 380640, Tempo, 750000
1, 383460, Tempo, 759494
1, 384420, Tempo, 789474
1, 384550, Tempo, 750000
1, 385380, Tempo, 769231
1, 385440, Tempo, 750000
1, 388740, Tempo, 750000
1, 391150, Tempo, 759494
1, 392100, Tempo, 789474
1, 392220, Tempo, 750000
1, 393060, Tempo, 769231
1, 393120, Tempo, 750000
1, 394980, Tempo, 769231
1, 395040, Tempo, 750000
1, 396900, Tempo, 769231
1, 396960, Tempo, 750000
1, 398820, Tempo, 769231
1, 398880, Tempo, 750000
1, 399780, Tempo, 769231
1, 399840, Tempo, 789474
1, 399980, Tempo, 750000
1, 400740, Tempo, 845070
1, 400800, Tempo, 750000
1, 402660, Tempo, 769231
1, 402720, Tempo, 750000
1, 406500, Tempo, 759494
1, 407460, Tempo, 769231
1, 407520, Tempo, 789474
1, 407647, Tempo, 750000
1, 408380, Tempo, 810811
1, 408480, Tempo, 750000
1, 410340, Tempo, 769231
1, 410400, Tempo, 750000
1, 415027, Tempo, 769231
1, 415080, Tempo, 789474
1, 415290, Tempo, 750000
1, 418020, Tempo, 759494
1, 418800, Tempo, 769231
1, 418880, Tempo, 869565
1, 419040, Tempo, 750000
1, 422820, Tempo, 789474
1, 422880, Tempo, 750000
1, 426180, Tempo, 769231
1, 426240, Tempo, 750000
1, 426660, Tempo, 769231
1, 427680, Tempo, 789474
1, 428160, Tempo, 821918
1, 428280, Tempo, 769231
1, 428400, Tempo, 789474
1, 428520, Tempo, 1000000
1, 428640, Tempo, 769231
1, 428700, Tempo, 750000
1, 432420, Tempo, 769231
1, 432480, Tempo, 750000
1, 434340, Tempo, 759494
1, 435240, Tempo, 769231
1, 435430, Tempo, 750000
1, 437265, Tempo, 769231
1, 437280, Tempo, 750000
1, 439185, Tempo, 769231
1, 439200, Tempo, 750000
1, 442020, Tempo, 759494
1, 442970, Tempo, 789474
1, 443080, Tempo, 750000
1, 444952, Tempo, 769231
1, 444960, Tempo, 750000
1, 446865, Tempo, 769231
1, 446880, Tempo, 750000
1, 449700, Tempo, 759494
1, 450660, Tempo, 769231
1, 451500, Tempo, 789474
1, 451580, Tempo, 845070
1, 451680, Tempo, 750000
1, 454980, Tempo, 750000
1, 457380, Tempo, 759494
1, 458340, Tempo, 789474
1, 458480, Tempo, 750000
1, 459300, Tempo, 769231
1, 462180, Tempo, 769231
1, 462290, Tempo, 750000
1, 466920, Tempo, 789474
1, 467040, Tempo, 769231
1, 467160, Tempo, 750000
1, 469860, Tempo, 769231
1, 470617, Tempo, 789474
1, 470750, Tempo, 1000000
1, 470820, Tempo, 1034483
1, 470880, Tempo, 769231
1, 470940, Tempo, 750000
1, 474607, Tempo, 789474
1, 474720, Tempo, 769231
1, 474780, Tempo, 750000
1, 478440, Tempo, 789474
1, 478560, Tempo, 769231
1, 478620, Tempo, 750000
1, 482340, Tempo, 769231
1, 482422, Tempo, 750000
1, 486120, Tempo, 769231
1, 486292, Tempo, 750000
1, 488100, Tempo, 789474
1, 488220, Tempo, 750000
1, 490020, Tempo, 789474
1, 490130, Tempo, 750000
1, 491940, Tempo, 789474
1, 492060, Tempo, 750000
1, 492900, Tempo, 769231
1, 493020, Tempo, 750000
1, 493860, Tempo, 769231
1, 493980, Tempo, 750000
1, 494820, Tempo, 759494
1, 495640, Tempo, 789474
1, 495720, Tempo, 1034483
1, 495892, Tempo, 750000
1, 499620, Tempo, 769231
1, 499680, Tempo, 750000
1, 501540, Tempo, 759494
1, 502500, Tempo, 789474
1, 502610, Tempo, 750000
1, 504465, Tempo, 769231
1, 504480, Tempo, 750000
1, 506392, Tempo, 769231
1, 506400, Tempo, 750000
1, 509235, Tempo, 759494
1, 510180, Tempo, 789474
1, 510270, Tempo, 750000
1, 512152, Tempo, 769231
1, 512160, Tempo, 750000
1, 514072, Tempo, 769231
1, 514080, Tempo, 750000
1, 516900, Tempo, 759494
1, 517860, Tempo, 769231
1, 518700, Tempo, 789474
1, 518767, Tempo, 821918
1, 518880, Tempo, 750000
1, 524580, Tempo, 759494
1, 525540, Tempo, 789474
1, 525670, Tempo, 750000
1, 526500, Tempo, 769231
1, 526560, Tempo, 750000
1, 528420, Tempo, 769231
1, 528480, Tempo, 750000
1, 530340, Tempo, 769231
1, 530400, Tempo, 750000
1, 532260, Tempo, 769231
1, 532320, Tempo, 750000
1, 533220, Tempo, 769231
1, 533280, Tempo, 750000
1, 534000, Tempo, 769231
1, 535132, Tempo, 821918
1, 535200, Tempo, 750000
1, 537060, Tempo, 769231
1, 537120, Tempo, 750000
1, 540900, Tempo, 759494
1, 541860, Tempo, 769231
1, 542820, Tempo, 789474
1, 542880, Tempo, 750000
1, 544740, Tempo, 769231
1, 544800, Tempo, 750000
1, 548580, Tempo, 759494
1, 549315, Tempo, 769231
1, 549480, Tempo, 789474
1, 549727, Tempo, 750000
1, 552420, Tempo, 759494
1, 553200, Tempo, 789474
1, 553320, Tempo, 845070
1, 553440, Tempo, 750000
1, 557160, Tempo, 789474
1, 557340, Tempo, 750000
1, 560580, Tempo, 769231
1, 560640, Tempo, 750000
1, 561000, Tempo, 789474
1, 561120, Tempo, 750000
1, 563940, Tempo, 769231
1, 564860, Tempo, 789474
1, 564960, Tempo, 769231
1, 565860, Tempo, 789474
1, 565920, Tempo, 769231
1, 566820, Tempo, 789474
1, 566880, Tempo, 769231
1, 567780, Tempo, 789474
1, 567840, Tempo, 769231
1, 568680, Tempo, 789474
1, 568800, Tempo, 769231
1, 574020, Tempo, 789474
1, 574080, Tempo, 750000
1, 581662, Tempo, 769231
1, 581760, Tempo, 810811
1, 581880, Tempo, 789474
1, 582000, Tempo, 845070
1, 582130, Tempo, 1276596
1, 582240, Tempo, 769231
1, 582300, Tempo, 750000
1, 585960, Tempo, 769231
1, 586080, Tempo, 750000
1, 587940, Tempo, 759494
1, 588900, Tempo, 789474
1, 588960, Tempo, 750000
1, 590820, Tempo, 789474
1, 590880, Tempo, 769231
1, 592740, Tempo, 789474
1, 592800, Tempo, 769231
1, 596580, Tempo, 769231
1, 596690, Tempo, 750000
1, 598537, Tempo, 769231
1, 598560, Tempo, 750000
1, 600472, Tempo, 769231
1, 600480, Tempo, 750000
1, 603300, Tempo, 759494
1, 604260, Tempo, 789474
1, 604320, Tempo, 759494
1, 605220, Tempo, 789474
1, 605280, Tempo, 750000
1, 606240, Tempo, 750000
1, 607140, Tempo, 759494
1, 607200, Tempo, 750000
1, 609060, Tempo, 759494
1, 611940, Tempo, 769231
1, 612660, Tempo, 789474
1, 612780, Tempo, 810811
1, 612870, Tempo, 952381
1, 612960, Tempo, 750000
1, 615720, Tempo, 769231
1, 615840, Tempo, 952381
1, 616320, Tempo, 750000
1, 616740, Tempo, 789474
1, 616800, Tempo, 769231
1, 617700, Tempo, 769231
1, 617760, Tempo, 750000
1, 618660, Tempo, 789474
1, 618720, Tempo, 769231
1, 619620, Tempo, 769231
1, 619680, Tempo, 750000
1, 620580, Tempo, 789474
1, 620640, Tempo, 769231
1, 621540, Tempo, 769231
1, 621600, Tempo, 750000
1, 623460, Tempo, 759494
1, 623520, Tempo, 750000
1, 624420, Tempo, 759494
1, 624480, Tempo, 750000
1, 625380, Tempo, 759494
1, 626220, Tempo, 789474
1, 626280, Tempo, 821918
1, 626400, Tempo, 769231
1, 626460, Tempo, 750000
1, 632040, Tempo, 769231
1, 632520, Tempo, 789474
1, 633000, Tempo, 869565
1, 633240, Tempo, 895522
1, 633960, Tempo, 923077
1, 634200, Tempo, 923077
1, 634320, Tempo, 923077
1, 634790, Tempo, 952381
1, 634930, Tempo, 1132075
1, 635040, Tempo, 1071429
1, 635280, Tempo, 1071429
1, 635530, Tempo, 1132075
1, 635760, Tempo, 1224490
1, 636000, Tempo, 1071429
1, 637320, Tempo, 1034483
1, 637680, Tempo, 967742
1, 637920, Tempo, 923077
1, 638400, Tempo, 869565
1, 638640, Tempo, 845070
1, 638880, Tempo, 810811
1, 639120, Tempo, 789474
1, 639296, Tempo, 1000000
1, 639360, Tempo, 769231
1, 639780, Tempo, 789474
1, 639840, Tempo, 789474
1, 639960, Tempo, 810811
1, 640080, Tempo, 895522
1, 640200, Tempo, 1071429
1, 640200, End_track
2, 0, Start_track
2, 0, Title_t, "Beethoven"
2, 0, Control_c, 0, 0, 0
2, 0, Control_c, 0, 7, 115
2, 0, Control_c, 0, 10, 83
2, 0, Control_c, 0, 91, 91
2, 0, Control_c, 0, 93, 28
2, 0, Pitch_bend_c, 0, 8192
2, 0, Control_c, 0, 1, 0
2, 0, Control_c, 0, 64, 0
2, 1, Control_c, 0, 32, 0
2, 1, Program_c, 0, 0
2, 960, Control_c, 0, 64, 0
2, 960, Note_on_c, 0, 67, 86
2, 1200, Note_on_c, 0, 67, 0
2, 1440, Note_on_c, 0, 67, 98
2, 2160, Note_on_c, 0, 67, 0
2, 2160, Note_on_c, 0, 66, 89
2, 2400, Note_on_c, 0, 66, 0
2, 2400, Note_on_c, 0, 64, 86
2, 2640, Note_on_c, 0, 64, 0
2, 2880, Note_on_c, 0, 69, 81
2, 3240, Note_on_c, 0, 69, 0
2, 3840, Note_on_c, 0, 69, 61
2, 4320, Note_on_c, 0, 69, 0
2, 4320, Note_on_c, 0, 69, 67
2, 5040, Note_on_c, 0, 69, 0
2, 5040, Note_on_c, 0, 67, 59
2, 5280, Note_on_c, 0, 67, 0
2, 5280, Note_on_c, 0, 69, 57
2, 5640, Note_on_c, 0, 69, 0
2, 5760, Note_on_c, 0, 71, 52
2, 6120, Note_on_c, 0, 71, 0
2, 6720, Note_on_c, 0, 71, 82
2, 6960, Note_on_c, 0, 71, 0
2, 7200, Note_on_c, 0, 71, 94
2, 7920, Note_on_c, 0, 71, 0
2, 7920, Note_on_c, 0, 69, 85
2, 8160, Note_on_c, 0, 69, 0
2, 8160, Note_on_c, 0, 67, 83
2, 8400, Note_on_c, 0, 67, 0
2, 8640, Note_on_c, 0, 73, 79
2, 9000, Note_on_c, 0, 73, 0
2, 9600, Note_on_c, 0, 73, 55
2, 10080, Note_on_c, 0, 73, 0
2, 10080, Note_on_c, 0, 73, 60
2, 10800, Note_on_c, 0, 73, 0
2, 10800, Note_on_c, 0, 71, 52
2, 11040, Note_on_c, 0, 71, 0
2, 11040, Note_on_c, 0, 73, 51
2, 11400, Note_on_c, 0, 73, 0
2, 11520, Note_on_c, 0, 74, 47
2, 11880, Note_on_c, 0, 74, 0
2, 12480, Note_on_c, 0, 74, 50
2, 13440, Note_on_c, 0, 74, 0
2, 13440, Note_on_c, 0, 79, 53
2, 13920, Note_on_c, 0, 79, 0
2, 13920, Note_on_c, 0, 76, 55
2, 14400, Note_on_c, 0, 76, 0
2, 14400, Note_on_c, 0, 74, 57
2, 14880, Note_on_c, 0, 74, 0
2, 14880, Note_on_c, 0, 72, 59
2, 15360, Note_on_c, 0, 72, 0
2, 15360, Note_on_c, 0, 72, 60
2, 16320, Note_on_c, 0, 72, 0
2, 16320, Note_on_c, 0, 81, 64
2, 16800, Note_on_c, 0, 81, 0
2, 16800, Note_on_c, 0, 72, 66
2, 17760, Note_on_c, 0, 72, 0
2, 17760, Note_on_c, 0, 71, 66
2, 18240, Note_on_c, 0, 71, 0
2, 18240, Note_on_c, 0, 71, 64
2, 19200, Note_on_c, 0, 71, 0
2, 19200, Note_on_c, 0, 67, 61
2, 19680, Note_on_c, 0, 67, 0
2, 19680, Note_on_c, 0, 67, 60
2, 20640, Note_on_c, 0, 67, 0
2, 20640, Note_on_c, 0, 64, 57
2, 21120, Note_on_c, 0, 64, 0
2, 21120, Note_on_c, 0, 64, 55
2, 23040, Note_on_c, 0, 64, 0
2, 23040, Note_on_c, 0, 59, 49
2, 24960, Note_on_c, 0, 59, 0
2, 25440, Note_on_c, 0, 88, 65
2, 26640, Note_on_c, 0, 88, 0
2, 26640, Note_on_c, 0, 87, 60
2, 26880, Note_on_c, 0, 87, 0
2, 26880, Note_on_c, 0, 88, 59
2, 27120, Note_on_c, 0, 88, 0
2, 27360, Note_on_c, 0, 66, 54
2, 28320, Note_on_c, 0, 66, 0
2, 28320, Note_on_c, 0, 66, 60
2, 28800, Note_on_c, 0, 66, 0
2, 28800, Note_on_c, 0, 66, 63
2, 29520, Note_on_c, 0, 66, 0
2, 29520, Note_on_c, 0, 67, 67
2, 29760, Note_on_c, 0, 67, 0
2, 29760, Note_on_c, 0, 69, 68
2, 30000, Note_on_c, 0, 69, 0
2, 30000, Note_on_c, 0, 67, 70
2, 30240, Note_on_c, 0, 67, 0
2, 30240, Note_on_c, 0, 66, 71
2, 30720, Note_on_c, 0, 66, 0
2, 30720, Note_on_c, 0, 64, 64
2, 31200, Note_on_c, 0, 64, 0
2, 31200, Note_on_c, 0, 88, 74
2, 32362, Note_on_c, 0, 88, 0
2, 32400, Note_on_c, 0, 87, 67
2, 32640, Note_on_c, 0, 87, 0
2, 32640, Note_on_c, 0, 88, 70
2, 32880, Note_on_c, 0, 88, 0
2, 33120, Note_on_c, 0, 66, 77
2, 34080, Note_on_c, 0, 66, 0
2, 34080, Note_on_c, 0, 66, 67
2, 34560, Note_on_c, 0, 66, 0
2, 34560, Note_on_c, 0, 66, 70
2, 35280, Note_on_c, 0, 66, 0
2, 35280, Note_on_c, 0, 69, 65
2, 35520, Note_on_c, 0, 69, 0
2, 35520, Note_on_c, 0, 67, 63
2, 35760, Note_on_c, 0, 67, 0
2, 35760, Note_on_c, 0, 66, 61
2, 36000, Note_on_c, 0, 66, 0
2, 36000, Note_on_c, 0, 64, 59
2, 36480, Note_on_c, 0, 64, 0
2, 38400, Note_on_c, 0, 71, 43
2, 38640, Note_on_c, 0, 71, 0
2, 38880, Note_on_c, 0, 71, 46
2, 39840, Note_on_c, 0, 71, 0
2, 39840, Note_on_c, 0, 76, 51
2, 40080, Note_on_c, 0, 76, 0
2, 40320, Note_on_c, 0, 76, 54
2, 41280, Note_on_c, 0, 76, 0
2, 41280, Note_on_c, 0, 83, 59
2, 41520, Note_on_c, 0, 83, 0
2, 41760, Note_on_c, 0, 83, 62
2, 42720, Note_on_c, 0, 83, 0
2, 42720, Note_on_c, 0, 88, 68
2, 42960, Note_on_c, 0, 88, 0
2, 43200, Note_on_c, 0, 88, 74
2, 44160, Note_on_c, 0, 88, 0
2, 44160, Note_on_c, 0, 89, 81
2, 44400, Note_on_c, 0, 89, 0
2, 44640, Note_on_c, 0, 89, 89
2, 45360, Note_on_c, 0, 89, 0
2, 45360, Note_on_c, 0, 88, 86
2, 45480, Note_on_c, 0, 88, 0
2, 45480, Note_on_c, 0, 86, 85
2, 45600, Note_on_c, 0, 86, 0
2, 45600, Note_on_c, 0, 84, 85
2, 45720, Note_on_c, 0, 84, 0
2, 45720, Note_on_c, 0, 83, 84
2, 45840, Note_on_c, 0, 83, 0
2, 45840, Note_on_c, 0, 81, 84
2, 45960, Note_on_c, 0, 81, 0
2, 45960, Note_on_c, 0, 79, 83
2, 46080, Note_on_c, 0, 79, 0
2, 46080, Note_on_c, 0, 77, 83
2, 46200, Note_on_c, 0, 77, 0
2, 46200, Note_on_c, 0, 76, 82
2, 46320, Note_on_c, 0, 76, 0
2, 46320, Note_on_c, 0, 74, 82
2, 46440, Note_on_c, 0, 74, 0
2, 46440, Note_on_c, 0, 72, 81
2, 46560, Note_on_c, 0, 72, 0
2, 46560, Note_on_c, 0, 71, 81
2, 46640, Note_on_c, 0, 71, 0
2, 46640, Note_on_c, 0, 69, 80
2, 46720, Note_on_c, 0, 69, 0
2, 46720, Note_on_c, 0, 67, 80
2, 46800, Note_on_c, 0, 67, 0
2, 46800, Note_on_c, 0, 65, 80
2, 46880, Note_on_c, 0, 65, 0
2, 46880, Note_on_c, 0, 64, 79
2, 46960, Note_on_c, 0, 64, 0
2, 46960, Note_on_c, 0, 62, 79
2, 47040, Note_on_c, 0, 62, 0
2, 47040, Note_on_c, 0, 60, 79
2, 47120, Note_on_c, 0, 60, 0
2, 47120, Note_on_c, 0, 59, 78
2, 47200, Note_on_c, 0, 59, 0
2, 47200, Note_on_c, 0, 57, 78
2, 47280, Note_on_c, 0, 57, 0
2, 47280, Note_on_c, 0, 55, 77
2, 47400, Note_on_c, 0, 55, 0
2, 47400, Note_on_c, 0, 54, 77
2, 47520, Note_on_c, 0, 54, 0
2, 47520, Note_on_c, 0, 55, 76
2, 47760, Note_on_c, 0, 55, 0
2, 48480, Note_on_c, 0, 65, 72
2, 48720, Note_on_c, 0, 65, 0
2, 48960, Note_on_c, 0, 64, 70
2, 49200, Note_on_c, 0, 64, 0
2, 49920, Note_on_c, 0, 86, 78
2, 50160, Note_on_c, 0, 86, 0
2, 50400, Note_on_c, 0, 86, 88
2, 51120, Note_on_c, 0, 86, 0
2, 51120, Note_on_c, 0, 84, 84
2, 51240, Note_on_c, 0, 84, 0
2, 51240, Note_on_c, 0, 83, 84
2, 51360, Note_on_c, 0, 83, 0
2, 51360, Note_on_c, 0, 81, 83
2, 51480, Note_on_c, 0, 81, 0
2, 51480, Note_on_c, 0, 80, 83
2, 51600, Note_on_c, 0, 80, 0
2, 51600, Note_on_c, 0, 78, 82
2, 51720, Note_on_c, 0, 78, 0
2, 51720, Note_on_c, 0, 76, 82
2, 51840, Note_on_c, 0, 76, 0
2, 51840, Note_on_c, 0, 74, 81
2, 51960, Note_on_c, 0, 74, 0
2, 51960, Note_on_c, 0, 72, 80
2, 52080, Note_on_c, 0, 72, 0
2, 52080, Note_on_c, 0, 71, 80
2, 52200, Note_on_c, 0, 71, 0
2, 52200, Note_on_c, 0, 69, 79
2, 52320, Note_on_c, 0, 69, 0
2, 52320, Note_on_c, 0, 68, 79
2, 52400, Note_on_c, 0, 68, 0
2, 52400, Note_on_c, 0, 66, 78
2, 52480, Note_on_c, 0, 66, 0
2, 52480, Note_on_c, 0, 64, 78
2, 52560, Note_on_c, 0, 64, 0
2, 52560, Note_on_c, 0, 62, 77
2, 52640, Note_on_c, 0, 62, 0
2, 52640, Note_on_c, 0, 60, 77
2, 52720, Note_on_c, 0, 60, 0
2, 52720, Note_on_c, 0, 59, 77
2, 52800, Note_on_c, 0, 59, 0
2, 52800, Note_on_c, 0, 57, 76
2, 52880, Note_on_c, 0, 57, 0
2, 52880, Note_on_c, 0, 56, 76
2, 52960, Note_on_c, 0, 56, 0
2, 52960, Note_on_c, 0, 54, 75
2, 53040, Note_on_c, 0, 54, 0
2, 53040, Note_on_c, 0, 52, 75
2, 53160, Note_on_c, 0, 52, 0
2, 53160, Note_on_c, 0, 51, 74
2, 53280, Note_on_c, 0, 51, 0
2, 53280, Note_on_c, 0, 52, 74
2, 53555, Note_on_c, 0, 52, 0
2, 54240, Note_on_c, 0, 62, 69
2, 54480, Note_on_c, 0, 62, 0
2, 54720, Note_on_c, 0, 60, 66
2, 54960, Note_on_c, 0, 60, 0
2, 55680, Note_on_c, 0, 82, 62
2, 56040, Note_on_c, 0, 82, 0
2, 56160, Note_on_c, 0, 82, 71
2, 56880, Note_on_c, 0, 82, 0
2, 56880, Note_on_c, 0, 81, 69
2, 57000, Note_on_c, 0, 81, 0
2, 57000, Note_on_c, 0, 79, 68
2, 57120, Note_on_c, 0, 79, 0
2, 57120, Note_on_c, 0, 77, 68
2, 57240, Note_on_c, 0, 77, 0
2, 57240, Note_on_c, 0, 75, 67
2, 57360, Note_on_c, 0, 75, 0
2, 57360, Note_on_c, 0, 74, 67
2, 57480, Note_on_c, 0, 74, 0
2, 57480, Note_on_c, 0, 72, 66
2, 57600, Note_on_c, 0, 72, 0
2, 57600, Note_on_c, 0, 70, 66
2, 57720, Note_on_c, 0, 70, 0
2, 57720, Note_on_c, 0, 69, 65
2, 57840, Note_on_c, 0, 69, 0
2, 57840, Note_on_c, 0, 67, 65
2, 57960, Note_on_c, 0, 67, 0
2, 57960, Note_on_c, 0, 65, 64
2, 58080, Note_on_c, 0, 65, 0
2, 58080, Note_on_c, 0, 63, 64
2, 58240, Note_on_c, 0, 63, 0
2, 58240, Note_on_c, 0, 62, 63
2, 58400, Note_on_c, 0, 62, 0
2, 58400, Note_on_c, 0, 60, 63
2, 58560, Note_on_c, 0, 60, 0
2, 58560, Note_on_c, 0, 58, 62
2, 58920, Note_on_c, 0, 58, 0
2, 59040, Note_on_c, 0, 58, 60
2, 61440, Note_on_c, 0, 58, 0
2, 61440, Note_on_c, 0, 67, 58
2, 61680, Note_on_c, 0, 67, 0
2, 61920, Note_on_c, 0, 67, 60
2, 62880, Note_on_c, 0, 67, 0
2, 62880, Note_on_c, 0, 73, 64
2, 63240, Note_on_c, 0, 73, 0
2, 63360, Note_on_c, 0, 73, 66
2, 64320, Note_on_c, 0, 73, 0
2, 64320, Note_on_c, 0, 79, 70
2, 64560, Note_on_c, 0, 79, 0
2, 64800, Note_on_c, 0, 79, 72
2, 65760, Note_on_c, 0, 79, 0
2, 65760, Note_on_c, 0, 78, 76
2, 66240, Note_on_c, 0, 78, 0
2, 66240, Note_on_c, 0, 77, 78
2, 67200, Note_on_c, 0, 77, 0
2, 67200, Note_on_c, 0, 78, 82
2, 67680, Note_on_c, 0, 78, 0
2, 67680, Note_on_c, 0, 78, 84
2, 69120, Note_on_c, 0, 78, 0
2, 69120, Note_on_c, 0, 83, 90
2, 70560, Note_on_c, 0, 83, 0
2, 70560, Note_on_c, 0, 71, 92
2, 70752, Note_on_c, 0, 71, 0
2, 71040, Note_on_c, 0, 72, 93
2, 71232, Note_on_c, 0, 72, 0
2, 72000, Note_on_c, 0, 72, 95
2, 72192, Note_on_c, 0, 72, 0
2, 72480, Note_on_c, 0, 75, 96
2, 72672, Note_on_c, 0, 75, 0
2, 73440, Note_on_c, 0, 75, 98
2, 73632, Note_on_c, 0, 75, 0
2, 73920, Note_on_c, 0, 76, 99
2, 74112, Note_on_c, 0, 76, 0
2, 74880, Note_on_c, 0, 76, 100
2, 75072, Note_on_c, 0, 76, 0
2, 75360, Note_on_c, 0, 77, 101
2, 75552, Note_on_c, 0, 77, 0
2, 76320, Note_on_c, 0, 76, 66
2, 76560, Note_on_c, 0, 76, 0
2, 76560, Control_c, 0, 64, 0
2, 76560, Note_on_c, 0, 77, 60
2, 76620, Control_c, 0, 64, 127
2, 76800, Note_on_c, 0, 77, 0
2, 76800, Note_on_c, 0, 77, 62
2, 77040, Note_on_c, 0, 77, 0
2, 77040, Note_on_c, 0, 77, 65
2, 77280, Note_on_c, 0, 77, 0
2, 77280, Note_on_c, 0, 77, 68
2, 77520, Note_on_c, 0, 77, 0
2, 77520, Note_on_c, 0, 77, 70
2, 77760, Note_on_c, 0, 77, 0
2, 77760, Note_on_c, 0, 77, 73
2, 78000, Note_on_c, 0, 77, 0
2, 78000, Note_on_c, 0, 77, 76
2, 78240, Note_on_c, 0, 77, 0
2, 78240, Note_on_c, 0, 77, 78
2, 78480, Note_on_c, 0, 77, 0
2, 78480, Note_on_c, 0, 77, 81
2, 78720, Note_on_c, 0, 77, 0
2, 78720, Note_on_c, 0, 77, 84
2, 78960, Note_on_c, 0, 77, 0
2, 78960, Note_on_c, 0, 77, 86
2, 79200, Note_on_c, 0, 77, 0
2, 79200, Note_on_c, 0, 90, 89
2, 79440, Note_on_c, 0, 90, 0
2, 79440, Control_c, 0, 64, 0
2, 79440, Note_on_c, 0, 91, 92
2, 79500, Control_c, 0, 64, 127
2, 79680, Note_on_c, 0, 91, 0
2, 79680, Note_on_c, 0, 91, 94
2, 79920, Note_on_c, 0, 91, 0
2, 79920, Note_on_c, 0, 91, 97
2, 80160, Note_on_c, 0, 91, 0
2, 80160, Note_on_c, 0, 91, 100
2, 80400, Note_on_c, 0, 91, 0
2, 80400, Note_on_c, 0, 91, 102
2, 80640, Note_on_c, 0, 91, 0
2, 80640, Note_on_c, 0, 91, 105
2, 80880, Note_on_c, 0, 91, 0
2, 80880, Note_on_c, 0, 91, 108
2, 81120, Note_on_c, 0, 91, 0
2, 81120, Note_on_c, 0, 91, 108
2, 81360, Note_on_c, 0, 91, 0
2, 81360, Note_on_c, 0, 91, 104
2, 81600, Note_on_c, 0, 91, 0
2, 81600, Note_on_c, 0, 91, 100
2, 81840, Note_on_c, 0, 91, 0
2, 81840, Note_on_c, 0, 91, 96
2, 82080, Note_on_c, 0, 91, 0
2, 82080, Control_c, 0, 64, 0
2, 82080, Note_on_c, 0, 91, 92
2, 82140, Control_c, 0, 64, 127
2, 82560, Note_on_c, 0, 91, 0
2, 82560, Note_on_c, 0, 90, 85
2, 84000, Note_on_c, 0, 90, 0
2, 84000, Note_on_c, 0, 83, 83
2, 85440, Note_on_c, 0, 83, 0
2, 85440, Note_on_c, 0, 78, 81
2, 86880, Note_on_c, 0, 78, 0
2, 86880, Note_on_c, 0, 71, 79
2, 88320, Note_on_c, 0, 71, 0
2, 88320, Note_on_c, 0, 67, 77
2, 88800, Note_on_c, 0, 67, 0
2, 88800, Note_on_c, 0, 66, 76
2, 89280, Note_on_c, 0, 66, 0
2, 89280, Note_on_c, 0, 66, 75
2, 90240, Note_on_c, 0, 66, 0
2, 90240, Note_on_c, 0, 70, 74
2, 90720, Note_on_c, 0, 70, 0
2, 90720, Control_c, 0, 64, 0
2, 90780, Control_c, 0, 64, 127
2, 90960, Note_on_c, 0, 79, 81
2, 91200, Note_on_c, 0, 79, 0
2, 91200, Note_on_c, 0, 91, 85
2, 91920, Note_on_c, 0, 91, 0
2, 91920, Note_on_c, 0, 90, 83
2, 92160, Note_on_c, 0, 90, 0
2, 92160, Control_c, 0, 64, 0
2, 92220, Control_c, 0, 64, 127
2, 92400, Note_on_c, 0, 90, 81
2, 92640, Note_on_c, 0, 90, 0
2, 92640, Note_on_c, 0, 85, 80
2, 93360, Note_on_c, 0, 85, 0
2, 93360, Note_on_c, 0, 83, 77
2, 93600, Note_on_c, 0, 83, 0
2, 93600, Control_c, 0, 64, 0
2, 93660, Control_c, 0, 64, 127
2, 93840, Note_on_c, 0, 83, 75
2, 94080, Note_on_c, 0, 83, 0
2, 94080, Note_on_c, 0, 79, 75
2, 94800, Note_on_c, 0, 79, 0
2, 94800, Note_on_c, 0, 78, 72
2, 95040, Note_on_c, 0, 78, 0
2, 95040, Control_c, 0, 64, 0
2, 95100, Control_c, 0, 64, 127
2, 95280, Note_on_c, 0, 78, 70
2, 95520, Note_on_c, 0, 78, 0
2, 95520, Note_on_c, 0, 73, 69
2, 96240, Note_on_c, 0, 73, 0
2, 96240, Note_on_c, 0, 71, 66
2, 96480, Note_on_c, 0, 71, 0
2, 96480, Control_c, 0, 64, 0
2, 96480, Note_on_c, 0, 71, 66
2, 96540, Control_c, 0, 64, 127
2, 96960, Note_on_c, 0, 71, 0
2, 96960, Note_on_c, 0, 67, 64
2, 97440, Note_on_c, 0, 67, 0
2, 97440, Note_on_c, 0, 66, 62
2, 97920, Note_on_c, 0, 66, 0
2, 97920, Control_c, 0, 64, 0
2, 97920, Note_on_c, 0, 66, 63
2, 97980, Control_c, 0, 64, 127
2, 98160, Note_on_c, 0, 66, 0
2, 98160, Note_on_c, 0, 62, 67
2, 98400, Note_on_c, 0, 62, 0
2, 98400, Note_on_c, 0, 59, 71
2, 98640, Note_on_c, 0, 59, 0
2, 98640, Note_on_c, 0, 55, 74
2, 98880, Note_on_c, 0, 55, 0
2, 98880, Note_on_c, 0, 54, 80
2, 99120, Note_on_c, 0, 54, 0
2, 99120, Note_on_c, 0, 58, 86
2, 99360, Note_on_c, 0, 58, 0
2, 99360, Control_c, 0, 64, 0
2, 99360, Note_on_c, 0, 59, 92
2, 99840, Note_on_c, 0, 59, 0
2, 100800, Note_on_c, 0, 59, 94
2, 102240, Note_on_c, 0, 59, 0
2, 102240, Note_on_c, 0, 60, 78
2, 103200, Note_on_c, 0, 60, 0
2, 103200, Note_on_c, 0, 67, 75
2, 104640, Note_on_c, 0, 67, 0
2, 104640, Note_on_c, 0, 66, 70
2, 105120, Note_on_c, 0, 66, 0
2, 105120, Note_on_c, 0, 66, 69
2, 105600, Note_on_c, 0, 66, 0
2, 106560, Note_on_c, 0, 59, 91
2, 108000, Note_on_c, 0, 59, 0
2, 108000, Note_on_c, 0, 60, 69
2, 108960, Note_on_c, 0, 60, 0
2, 108960, Note_on_c, 0, 67, 71
2, 110400, Note_on_c, 0, 67, 0
2, 110400, Note_on_c, 0, 66, 63
2, 110880, Note_on_c, 0, 66, 0
2, 111840, Note_on_c, 0, 67, 65
2, 113280, Note_on_c, 0, 67, 0
2, 113280, Note_on_c, 0, 66, 57
2, 113760, Note_on_c, 0, 66, 0
2, 114720, Note_on_c, 0, 67, 59
2, 116160, Note_on_c, 0, 67, 0
2, 116160, Note_on_c, 0, 70, 51
2, 116640, Note_on_c, 0, 70, 0
2, 116640, Note_on_c, 0, 71, 51
2, 117120, Note_on_c, 0, 71, 0
2, 118080, Note_on_c, 0, 71, 48
2, 118560, Note_on_c, 0, 71, 0
2, 119520, Note_on_c, 0, 71, 45
2, 120000, Note_on_c, 0, 71, 0
2, 124800, Note_on_c, 0, 81, 53
2, 125160, Note_on_c, 0, 81, 0
2, 125280, Note_on_c, 0, 81, 54
2, 126000, Note_on_c, 0, 81, 0
2, 126000, Note_on_c, 0, 79, 54
2, 126156, Note_on_c, 0, 79, 0
2, 126240, Note_on_c, 0, 78, 55
2, 126396, Note_on_c, 0, 78, 0
2, 126720, Note_on_c, 0, 83, 55
2, 127200, Note_on_c, 0, 83, 0
2, 127680, Note_on_c, 0, 83, 57
2, 128040, Note_on_c, 0, 83, 0
2, 128160, Note_on_c, 0, 83, 57
2, 128880, Note_on_c, 0, 83, 0
2, 128880, Note_on_c, 0, 81, 58
2, 129036, Note_on_c, 0, 81, 0
2, 129120, Note_on_c, 0, 83, 58
2, 129276, Note_on_c, 0, 83, 0
2, 129600, Note_on_c, 0, 84, 58
2, 130080, Note_on_c, 0, 84, 0
2, 130560, Note_on_c, 0, 84, 66
2, 130920, Note_on_c, 0, 84, 0
2, 131040, Note_on_c, 0, 84, 75
2, 131760, Note_on_c, 0, 84, 0
2, 131760, Note_on_c, 0, 83, 72
2, 131916, Note_on_c, 0, 83, 0
2, 132000, Note_on_c, 0, 81, 74
2, 132156, Note_on_c, 0, 81, 0
2, 132480, Note_on_c, 0, 86, 77
2, 132960, Note_on_c, 0, 86, 0
2, 133440, Note_on_c, 0, 86, 84
2, 133800, Note_on_c, 0, 86, 0
2, 133920, Note_on_c, 0, 86, 87
2, 134640, Note_on_c, 0, 86, 0
2, 134640, Note_on_c, 0, 84, 92
2, 134796, Note_on_c, 0, 84, 0
2, 134880, Note_on_c, 0, 86, 93
2, 135036, Note_on_c, 0, 86, 0
2, 135360, Note_on_c, 0, 87, 101
2, 136080, Note_on_c, 0, 87, 0
2, 136080, Note_on_c, 0, 86, 97
2, 136236, Note_on_c, 0, 86, 0
2, 136320, Note_on_c, 0, 87, 95
2, 136476, Note_on_c, 0, 87, 0
2, 136800, Note_on_c, 0, 63, 101
2, 137520, Note_on_c, 0, 63, 0
2, 137520, Note_on_c, 0, 62, 94
2, 137676, Note_on_c, 0, 62, 0
2, 137760, Note_on_c, 0, 63, 92
2, 137916, Note_on_c, 0, 63, 0
2, 138240, Note_on_c, 0, 66, 98
2, 138960, Note_on_c, 0, 66, 0
2, 138960, Note_on_c, 0, 65, 91
2, 139116, Note_on_c, 0, 65, 0
2, 139200, Note_on_c, 0, 66, 89
2, 139356, Note_on_c, 0, 66, 0
2, 139680, Note_on_c, 0, 78, 94
2, 140400, Note_on_c, 0, 78, 0
2, 140400, Note_on_c, 0, 77, 88
2, 140556, Note_on_c, 0, 77, 0
2, 140640, Note_on_c, 0, 78, 86
2, 140796, Note_on_c, 0, 78, 0
2, 141120, Note_on_c, 0, 84, 91
2, 141840, Note_on_c, 0, 84, 0
2, 141840, Note_on_c, 0, 83, 83
2, 141996, Note_on_c, 0, 83, 0
2, 142080, Note_on_c, 0, 84, 81
2, 142236, Note_on_c, 0, 84, 0
2, 142560, Note_on_c, 0, 57, 85
2, 143280, Note_on_c, 0, 57, 0
2, 143280, Note_on_c, 0, 56, 77
2, 143436, Note_on_c, 0, 56, 0
2, 143520, Note_on_c, 0, 57, 75
2, 143676, Note_on_c, 0, 57, 0
2, 144000, Note_on_c, 0, 90, 83
2, 144720, Note_on_c, 0, 90, 0
2, 144720, Note_on_c, 0, 89, 77
2, 144876, Note_on_c, 0, 89, 0
2, 144960, Note_on_c, 0, 90, 74
2, 145116, Note_on_c, 0, 90, 0
2, 145440, Note_on_c, 0, 72, 73
2, 146160, Note_on_c, 0, 72, 0
2, 146160, Note_on_c, 0, 71, 71
2, 146316, Note_on_c, 0, 71, 0
2, 146400, Note_on_c, 0, 72, 71
2, 146556, Note_on_c, 0, 72, 0
2, 146880, Note_on_c, 0, 71, 69
2, 147600, Note_on_c, 0, 71, 0
2, 147600, Note_on_c, 0, 77, 68
2, 147756, Note_on_c, 0, 77, 0
2, 147840, Note_on_c, 0, 76, 67
2, 148200, Note_on_c, 0, 76, 0
2, 148320, Note_on_c, 0, 75, 66
2, 148680, Note_on_c, 0, 75, 0
2, 149040, Note_on_c, 0, 75, 64
2, 149196, Note_on_c, 0, 75, 0
2, 149280, Note_on_c, 0, 74, 63
2, 149640, Note_on_c, 0, 74, 0
2, 149760, Note_on_c, 0, 73, 62
2, 150120, Note_on_c, 0, 73, 0
2, 150480, Note_on_c, 0, 72, 60
2, 150636, Note_on_c, 0, 72, 0
2, 150720, Note_on_c, 0, 71, 60
2, 151080, Note_on_c, 0, 71, 0
2, 151200, Note_on_c, 0, 70, 56
2, 151356, Note_on_c, 0, 70, 0
2, 151680, Note_on_c, 0, 69, 57
2, 151836, Note_on_c, 0, 69, 0
2, 152160, Note_on_c, 0, 68, 58
2, 152316, Note_on_c, 0, 68, 0
2, 152640, Note_on_c, 0, 67, 60
2, 152796, Note_on_c, 0, 67, 0
2, 153120, Note_on_c, 0, 66, 61
2, 153276, Note_on_c, 0, 66, 0
2, 153600, Note_on_c, 0, 65, 63
2, 153756, Note_on_c, 0, 65, 0
2, 154080, Note_on_c, 0, 64, 65
2, 154236, Note_on_c, 0, 64, 0
2, 154560, Note_on_c, 0, 63, 66
2, 154716, Note_on_c, 0, 63, 0
2, 155040, Note_on_c, 0, 62, 68
2, 155196, Note_on_c, 0, 62, 0
2, 155520, Note_on_c, 0, 61, 69
2, 155676, Note_on_c, 0, 61, 0
2, 156000, Note_on_c, 0, 60, 71
2, 156156, Note_on_c, 0, 60, 0
2, 156480, Note_on_c, 0, 59, 72
2, 156636, Note_on_c, 0, 59, 0
2, 156960, Note_on_c, 0, 58, 72
2, 157116, Note_on_c, 0, 58, 0
2, 157440, Note_on_c, 0, 57, 62
2, 157596, Note_on_c, 0, 57, 0
2, 157920, Note_on_c, 0, 56, 54
2, 158076, Note_on_c, 0, 56, 0
2, 158400, Note_on_c, 0, 56, 52
2, 158640, Note_on_c, 0, 56, 0
2, 158640, Note_on_c, 0, 55, 56
2, 158880, Note_on_c, 0, 55, 0
2, 158880, Note_on_c, 0, 67, 60
2, 160800, Note_on_c, 0, 67, 0
2, 160800, Note_on_c, 0, 67, 50
2, 161760, Note_on_c, 0, 67, 0
2, 161760, Note_on_c, 0, 72, 51
2, 162240, Note_on_c, 0, 72, 0
2, 162240, Note_on_c, 0, 69, 52
2, 162720, Note_on_c, 0, 69, 0
2, 162720, Note_on_c, 0, 67, 54
2, 163200, Note_on_c, 0, 67, 0
2, 163200, Note_on_c, 0, 65, 55
2, 163680, Note_on_c, 0, 65, 0
2, 163680, Note_on_c, 0, 65, 56
2, 164640, Note_on_c, 0, 65, 0
2, 164640, Note_on_c, 0, 74, 61
2, 165120, Note_on_c, 0, 74, 0
2, 165120, Note_on_c, 0, 65, 59
2, 166080, Note_on_c, 0, 65, 0
2, 166080, Note_on_c, 0, 64, 54
2, 166560, Note_on_c, 0, 64, 0
2, 166560, Control_c, 0, 64, 0
2, 166560, Note_on_c, 0, 64, 42
2, 166620, Control_c, 0, 64, 127
2, 166680, Note_on_c, 0, 64, 0
2, 166680, Note_on_c, 0, 67, 42
2, 166800, Note_on_c, 0, 67, 0
2, 166800, Note_on_c, 0, 72, 42
2, 166920, Note_on_c, 0, 72, 0
2, 166920, Note_on_c, 0, 76, 42
2, 167040, Note_on_c, 0, 76, 0
2, 167040, Control_c, 0, 64, 0
2, 167040, Note_on_c, 0, 77, 43
2, 167100, Control_c, 0, 64, 127
2, 167160, Note_on_c, 0, 77, 0
2, 167160, Note_on_c, 0, 72, 43
2, 167280, Note_on_c, 0, 72, 0
2, 167280, Note_on_c, 0, 69, 43
2, 167400, Note_on_c, 0, 69, 0
2, 167400, Note_on_c, 0, 65, 43
2, 167520, Note_on_c, 0, 65, 0
2, 167520, Control_c, 0, 64, 0
2, 167520, Note_on_c, 0, 69, 43
2, 167580, Control_c, 0, 64, 127
2, 167640, Note_on_c, 0, 69, 0
2, 167640, Note_on_c, 0, 72, 44
2, 167760, Note_on_c, 0, 72, 0
2, 167760, Note_on_c, 0, 77, 44
2, 167880, Note_on_c, 0, 77, 0
2, 167880, Note_on_c, 0, 81, 44
2, 168000, Note_on_c, 0, 81, 0
2, 168000, Control_c, 0, 64, 0
2, 168000, Note_on_c, 0, 81, 44
2, 168060, Control_c, 0, 64, 127
2, 168120, Note_on_c, 0, 81, 0
2, 168120, Note_on_c, 0, 74, 44
2, 168240, Note_on_c, 0, 74, 0
2, 168240, Note_on_c, 0, 81, 44
2, 168360, Note_on_c, 0, 81, 0
2, 168360, Note_on_c, 0, 86, 45
2, 168480, Note_on_c, 0, 86, 0
2, 168480, Control_c, 0, 64, 0
2, 168480, Note_on_c, 0, 81, 45
2, 168540, Control_c, 0, 64, 127
2, 168600, Note_on_c, 0, 81, 0
2, 168600, Note_on_c, 0, 74, 45
2, 168720, Note_on_c, 0, 74, 0
2, 168720, Note_on_c, 0, 81, 45
2, 168840, Note_on_c, 0, 81, 0
2, 168840, Note_on_c, 0, 82, 45
2, 168960, Note_on_c, 0, 82, 0
2, 168960, Control_c, 0, 64, 0
2, 168960, Note_on_c, 0, 79, 46
2, 169020, Control_c, 0, 64, 127
2, 169080, Note_on_c, 0, 79, 0
2, 169080, Note_on_c, 0, 74, 46
2, 169200, Note_on_c, 0, 74, 0
2, 169200, Note_on_c, 0, 79, 46
2, 169320, Note_on_c, 0, 79, 0
2, 169320, Note_on_c, 0, 82, 46
2, 169440, Note_on_c, 0, 82, 0
2, 169440, Control_c, 0, 64, 0
2, 169440, Note_on_c, 0, 79, 46
2, 169500, Control_c, 0, 64, 127
2, 169560, Note_on_c, 0, 79, 0
2, 169560, Note_on_c, 0, 73, 46
2, 169680, Note_on_c, 0, 73, 0
2, 169680, Note_on_c, 0, 79, 47
2, 169800, Note_on_c, 0, 79, 0
2, 169800, Note_on_c, 0, 82, 47
2, 169920, Note_on_c, 0, 82, 0
2, 169920, Control_c, 0, 64, 0
2, 169920, Note_on_c, 0, 79, 47
2, 169980, Control_c, 0, 64, 127
2, 170040, Note_on_c, 0, 79, 0
2, 170040, Note_on_c, 0, 72, 47
2, 170160, Note_on_c, 0, 72, 0
2, 170160, Note_on_c, 0, 79, 47
2, 170280, Note_on_c, 0, 79, 0
2, 170280, Note_on_c, 0, 82, 47
2, 170400, Note_on_c, 0, 82, 0
2, 170400, Control_c, 0, 64, 0
2, 170400, Note_on_c, 0, 76, 48
2, 170460, Control_c, 0, 64, 127
2, 170520, Note_on_c, 0, 76, 0
2, 170520, Note_on_c, 0, 72, 48
2, 170640, Note_on_c, 0, 72, 0
2, 170640, Note_on_c, 0, 76, 48
2, 170760, Note_on_c, 0, 76, 0
2, 170760, Note_on_c, 0, 79, 48
2, 170880, Note_on_c, 0, 79, 0
2, 170880, Control_c, 0, 64, 0
2, 170880, Note_on_c, 0, 79, 48
2, 170940, Control_c, 0, 64, 127
2, 171000, Note_on_c, 0, 79, 0
2, 171000, Note_on_c, 0, 76, 49
2, 171120, Note_on_c, 0, 76, 0
2, 171120, Note_on_c, 0, 79, 49
2, 171240, Note_on_c, 0, 79, 0
2, 171240, Note_on_c, 0, 84, 49
2, 171360, Note_on_c, 0, 84, 0
2, 171360, Control_c, 0, 64, 0
2, 171360, Note_on_c, 0, 79, 49
2, 171420, Control_c, 0, 64, 127
2, 171480, Note_on_c, 0, 79, 0
2, 171480, Note_on_c, 0, 76, 49
2, 171600, Note_on_c, 0, 76, 0
2, 171600, Note_on_c, 0, 79, 49
2, 171720, Note_on_c, 0, 79, 0
2, 171720, Note_on_c, 0, 84, 50
2, 171840, Note_on_c, 0, 84, 0
2, 171840, Control_c, 0, 64, 0
2, 171840, Note_on_c, 0, 81, 50
2, 171900, Control_c, 0, 64, 127
2, 171960, Note_on_c, 0, 81, 0
2, 171960, Note_on_c, 0, 77, 50
2, 172080, Note_on_c, 0, 77, 0
2, 172080, Note_on_c, 0, 81, 50
2, 172200, Note_on_c, 0, 81, 0
2, 172200, Note_on_c, 0, 84, 50
2, 172320, Note_on_c, 0, 84, 0
2, 172320, Control_c, 0, 64, 0
2, 172320, Note_on_c, 0, 81, 51
2, 172380, Control_c, 0, 64, 127
2, 172440, Note_on_c, 0, 81, 0
2, 172440, Note_on_c, 0, 77, 51
2, 172560, Note_on_c, 0, 77, 0
2, 172560, Note_on_c, 0, 81, 51
2, 172680, Note_on_c, 0, 81, 0
2, 172680, Note_on_c, 0, 84, 51
2, 172800, Note_on_c, 0, 84, 0
2, 172800, Control_c, 0, 64, 0
2, 172800, Note_on_c, 0, 81, 51
2, 172860, Control_c, 0, 64, 127
2, 172920, Note_on_c, 0, 81, 0
2, 172920, Note_on_c, 0, 77, 51
2, 173040, Note_on_c, 0, 77, 0
2, 173040, Note_on_c, 0, 81, 52
2, 173160, Note_on_c, 0, 81, 0
2, 173160, Note_on_c, 0, 86, 52
2, 173280, Note_on_c, 0, 86, 0
2, 173280, Control_c, 0, 64, 0
2, 173280, Note_on_c, 0, 81, 52
2, 173340, Control_c, 0, 64, 127
2, 173400, Note_on_c, 0, 81, 0
2, 173400, Note_on_c, 0, 77, 52
2, 173520, Note_on_c, 0, 77, 0
2, 173520, Note_on_c, 0, 81, 52
2, 173640, Note_on_c, 0, 81, 0
2, 173640, Note_on_c, 0, 86, 52
2, 173760, Note_on_c, 0, 86, 0
2, 173760, Control_c, 0, 64, 0
2, 173760, Note_on_c, 0, 82, 53
2, 173820, Control_c, 0, 64, 127
2, 173880, Note_on_c, 0, 82, 0
2, 173880, Note_on_c, 0, 77, 53
2, 174000, Note_on_c, 0, 77, 0
2, 174000, Note_on_c, 0, 82, 53
2, 174120, Note_on_c, 0, 82, 0
2, 174120, Note_on_c, 0, 86, 53
2, 174240, Note_on_c, 0, 86, 0
2, 174240, Control_c, 0, 64, 0
2, 174240, Note_on_c, 0, 83, 53
2, 174300, Control_c, 0, 64, 127
2, 174360, Note_on_c, 0, 83, 0
2, 174360, Note_on_c, 0, 77, 54
2, 174480, Note_on_c, 0, 77, 0
2, 174480, Note_on_c, 0, 83, 54
2, 174600, Note_on_c, 0, 83, 0
2, 174600, Note_on_c, 0, 86, 54
2, 174720, Note_on_c, 0, 86, 0
2, 174720, Control_c, 0, 64, 0
2, 174720, Note_on_c, 0, 83, 54
2, 174780, Control_c, 0, 64, 127
2, 174840, Note_on_c, 0, 83, 0
2, 174840, Note_on_c, 0, 76, 54
2, 174960, Note_on_c, 0, 76, 0
2, 174960, Note_on_c, 0, 83, 54
2, 175080, Note_on_c, 0, 83, 0
2, 175080, Note_on_c, 0, 86, 55
2, 175200, Note_on_c, 0, 86, 0
2, 175200, Control_c, 0, 64, 0
2, 175200, Note_on_c, 0, 83, 55
2, 175260, Control_c, 0, 64, 127
2, 175320, Note_on_c, 0, 83, 0
2, 175320, Note_on_c, 0, 76, 55
2, 175440, Note_on_c, 0, 76, 0
2, 175440, Note_on_c, 0, 83, 55
2, 175560, Note_on_c, 0, 83, 0
2, 175560, Note_on_c, 0, 86, 55
2, 175680, Note_on_c, 0, 86, 0
2, 175680, Control_c, 0, 64, 0
2, 175680, Note_on_c, 0, 83, 56
2, 175740, Control_c, 0, 64, 127
2, 175800, Note_on_c, 0, 83, 0
2, 175800, Note_on_c, 0, 76, 56
2, 175920, Note_on_c, 0, 76, 0
2, 175920, Note_on_c, 0, 83, 56
2, 176040, Note_on_c, 0, 83, 0
2, 176040, Note_on_c, 0, 86, 56
2, 176160, Note_on_c, 0, 86, 0
2, 176160, Control_c, 0, 64, 0
2, 176160, Note_on_c, 0, 83, 56
2, 176220, Control_c, 0, 64, 127
2, 176280, Note_on_c, 0, 83, 0
2, 176280, Note_on_c, 0, 76, 56
2, 176400, Note_on_c, 0, 76, 0
2, 176400, Note_on_c, 0, 83, 57
2, 176520, Note_on_c, 0, 83, 0
2, 176520, Note_on_c, 0, 86, 57
2, 176640, Note_on_c, 0, 86, 0
2, 176640, Control_c, 0, 64, 0
2, 176640, Note_on_c, 0, 83, 57
2, 176700, Control_c, 0, 64, 127
2, 176760, Note_on_c, 0, 83, 0
2, 176760, Note_on_c, 0, 76, 57
2, 176880, Note_on_c, 0, 76, 0
2, 176880, Note_on_c, 0, 83, 57
2, 177000, Note_on_c, 0, 83, 0
2, 177000, Note_on_c, 0, 84, 57
2, 177120, Note_on_c, 0, 84, 0
2, 177120, Control_c, 0, 64, 0
2, 177120, Note_on_c, 0, 81, 58
2, 177180, Control_c, 0, 64, 127
2, 177240, Note_on_c, 0, 81, 0
2, 177240, Note_on_c, 0, 76, 58
2, 177360, Note_on_c, 0, 76, 0
2, 177360, Note_on_c, 0, 81, 58
2, 177480, Note_on_c, 0, 81, 0
2, 177480, Note_on_c, 0, 84, 58
2, 177600, Note_on_c, 0, 84, 0
2, 177600, Control_c, 0, 64, 0
2, 177600, Note_on_c, 0, 81, 58
2, 177660, Control_c, 0, 64, 127
2, 177720, Note_on_c, 0, 81, 0
2, 177720, Note_on_c, 0, 76, 59
2, 177840, Note_on_c, 0, 76, 0
2, 177840, Note_on_c, 0, 81, 59
2, 177960, Note_on_c, 0, 81, 0
2, 177960, Note_on_c, 0, 84, 59
2, 178080, Note_on_c, 0, 84, 0
2, 178080, Control_c, 0, 64, 0
2, 178080, Note_on_c, 0, 81, 59
2, 178140, Control_c, 0, 64, 127
2, 178200, Note_on_c, 0, 81, 0
2, 178200, Note_on_c, 0, 74, 59
2, 178320, Note_on_c, 0, 74, 0
2, 178320, Note_on_c, 0, 81, 59
2, 178440, Note_on_c, 0, 81, 0
2, 178440, Note_on_c, 0, 83, 60
2, 178560, Note_on_c, 0, 83, 0
2, 178560, Control_c, 0, 64, 0
2, 178560, Note_on_c, 0, 80, 60
2, 178620, Control_c, 0, 64, 127
2, 178680, Note_on_c, 0, 80, 0
2, 178680, Note_on_c, 0, 74, 60
2, 178800, Note_on_c, 0, 74, 0
2, 178800, Note_on_c, 0, 80, 60
2, 178920, Note_on_c, 0, 80, 0
2, 178920, Note_on_c, 0, 83, 60
2, 179040, Note_on_c, 0, 83, 0
2, 179040, Control_c, 0, 64, 0
2, 179040, Note_on_c, 0, 80, 61
2, 179100, Control_c, 0, 64, 127
2, 179160, Note_on_c, 0, 80, 0
2, 179160, Note_on_c, 0, 74, 61
2, 179280, Note_on_c, 0, 74, 0
2, 179280, Note_on_c, 0, 80, 61
2, 179400, Note_on_c, 0, 80, 0
2, 179400, Note_on_c, 0, 83, 61
2, 179520, Note_on_c, 0, 83, 0
2, 179520, Control_c, 0, 64, 0
2, 179520, Note_on_c, 0, 80, 61
2, 179580, Control_c, 0, 64, 127
2, 179640, Note_on_c, 0, 80, 0
2, 179640, Note_on_c, 0, 72, 61
2, 179760, Note_on_c, 0, 72, 0
2, 179760, Note_on_c, 0, 80, 62
2, 179880, Note_on_c, 0, 80, 0
2, 179880, Note_on_c, 0, 83, 62
2, 180000, Note_on_c, 0, 83, 0
2, 180000, Control_c, 0, 64, 0
2, 180000, Note_on_c, 0, 80, 62
2, 180060, Control_c, 0, 64, 127
2, 180120, Note_on_c, 0, 80, 0
2, 180120, Note_on_c, 0, 81, 62
2, 180240, Note_on_c, 0, 81, 0
2, 180240, Note_on_c, 0, 72, 62
2, 180360, Note_on_c, 0, 72, 0
2, 180360, Note_on_c, 0, 81, 62
2, 180480, Note_on_c, 0, 81, 0
2, 180480, Control_c, 0, 64, 0
2, 180480, Note_on_c, 0, 80, 63
2, 180540, Control_c, 0, 64, 127
2, 180600, Note_on_c, 0, 80, 0
2, 180600, Note_on_c, 0, 81, 63
2, 180720, Note_on_c, 0, 81, 0
2, 180720, Note_on_c, 0, 72, 63
2, 180840, Note_on_c, 0, 72, 0
2, 180840, Note_on_c, 0, 81, 63
2, 180960, Note_on_c, 0, 81, 0
2, 180960, Control_c, 0, 64, 0
2, 180960, Note_on_c, 0, 81, 63
2, 181020, Control_c, 0, 64, 127
2, 181080, Note_on_c, 0, 81, 0
2, 181080, Note_on_c, 0, 71, 64
2, 181200, Note_on_c, 0, 71, 0
2, 181200, Note_on_c, 0, 81, 64
2, 181320, Note_on_c, 0, 81, 0
2, 181320, Note_on_c, 0, 83, 64
2, 181440, Note_on_c, 0, 83, 0
2, 181440, Control_c, 0, 64, 0
2, 181440, Note_on_c, 0, 81, 64
2, 181500, Control_c, 0, 64, 127
2, 181560, Note_on_c, 0, 81, 0
2, 181560, Note_on_c, 0, 71, 64
2, 181680, Note_on_c, 0, 71, 0
2, 181680, Note_on_c, 0, 81, 64
2, 181800, Note_on_c, 0, 81, 0
2, 181800, Note_on_c, 0, 83, 65
2, 181920, Note_on_c, 0, 83, 0
2, 181920, Control_c, 0, 64, 0
2, 181920, Note_on_c, 0, 81, 65
2, 181980, Control_c, 0, 64, 127
2, 182040, Note_on_c, 0, 81, 0
2, 182040, Note_on_c, 0, 71, 65
2, 182160, Note_on_c, 0, 71, 0
2, 182160, Note_on_c, 0, 81, 65
2, 182280, Note_on_c, 0, 81, 0
2, 182280, Note_on_c, 0, 83, 65
2, 182400, Note_on_c, 0, 83, 0
2, 182400, Control_c, 0, 64, 0
2, 182400, Note_on_c, 0, 81, 66
2, 182460, Control_c, 0, 64, 127
2, 182520, Note_on_c, 0, 81, 0
2, 182520, Note_on_c, 0, 71, 66
2, 182640, Note_on_c, 0, 71, 0
2, 182640, Note_on_c, 0, 81, 66
2, 182760, Note_on_c, 0, 81, 0
2, 182760, Note_on_c, 0, 83, 66
2, 182880, Note_on_c, 0, 83, 0
2, 182880, Control_c, 0, 64, 0
2, 182880, Note_on_c, 0, 81, 66
2, 182940, Control_c, 0, 64, 127
2, 183000, Note_on_c, 0, 81, 0
2, 183000, Note_on_c, 0, 71, 66
2, 183120, Note_on_c, 0, 71, 0
2, 183120, Note_on_c, 0, 81, 67
2, 183240, Note_on_c, 0, 81, 0
2, 183240, Note_on_c, 0, 83, 67
2, 183360, Note_on_c, 0, 83, 0
2, 183360, Control_c, 0, 64, 0
2, 183360, Note_on_c, 0, 81, 67
2, 183420, Control_c, 0, 64, 127
2, 183480, Note_on_c, 0, 81, 0
2, 183480, Note_on_c, 0, 71, 67
2, 183600, Note_on_c, 0, 71, 0
2, 183600, Note_on_c, 0, 81, 67
2, 183720, Note_on_c, 0, 81, 0
2, 183720, Note_on_c, 0, 83, 67
2, 183840, Note_on_c, 0, 83, 0
2, 183840, Control_c, 0, 64, 0
2, 183840, Note_on_c, 0, 81, 68
2, 183900, Control_c, 0, 64, 127
2, 183960, Note_on_c, 0, 81, 0
2, 183960, Note_on_c, 0, 71, 68
2, 184080, Note_on_c, 0, 71, 0
2, 184080, Note_on_c, 0, 81, 68
2, 184200, Note_on_c, 0, 81, 0
2, 184200, Note_on_c, 0, 83, 68
2, 184320, Note_on_c, 0, 83, 0
2, 184320, Control_c, 0, 64, 0
2, 184320, Note_on_c, 0, 81, 68
2, 184380, Control_c, 0, 64, 127
2, 184440, Note_on_c, 0, 81, 0
2, 184440, Note_on_c, 0, 71, 69
2, 184560, Note_on_c, 0, 71, 0
2, 184560, Note_on_c, 0, 81, 69
2, 184680, Note_on_c, 0, 81, 0
2, 184680, Note_on_c, 0, 83, 69
2, 184800, Note_on_c, 0, 83, 0
2, 184800, Control_c, 0, 64, 0
2, 184800, Note_on_c, 0, 81, 69
2, 184860, Control_c, 0, 64, 127
2, 184920, Note_on_c, 0, 81, 0
2, 184920, Note_on_c, 0, 71, 69
2, 185040, Note_on_c, 0, 71, 0
2, 185040, Note_on_c, 0, 81, 69
2, 185160, Note_on_c, 0, 81, 0
2, 185160, Note_on_c, 0, 83, 70
2, 185280, Note_on_c, 0, 83, 0
2, 185280, Control_c, 0, 64, 0
2, 185280, Note_on_c, 0, 81, 70
2, 185340, Control_c, 0, 64, 127
2, 185400, Note_on_c, 0, 81, 0
2, 185400, Note_on_c, 0, 71, 70
2, 185520, Note_on_c, 0, 71, 0
2, 185520, Note_on_c, 0, 81, 70
2, 185640, Note_on_c, 0, 81, 0
2, 185640, Note_on_c, 0, 83, 70
2, 185760, Note_on_c, 0, 83, 0
2, 185760, Control_c, 0, 64, 0
2, 185760, Note_on_c, 0, 79, 71
2, 185820, Control_c, 0, 64, 127
2, 185880, Note_on_c, 0, 79, 0
2, 185880, Note_on_c, 0, 71, 71
2, 186000, Note_on_c, 0, 71, 0
2, 186000, Note_on_c, 0, 79, 71
2, 186120, Note_on_c, 0, 79, 0
2, 186120, Note_on_c, 0, 83, 71
2, 186240, Note_on_c, 0, 83, 0
2, 186240, Control_c, 0, 64, 0
2, 186240, Note_on_c, 0, 79, 71
2, 186300, Control_c, 0, 64, 127
2, 186360, Note_on_c, 0, 79, 0
2, 186360, Note_on_c, 0, 71, 71
2, 186480, Note_on_c, 0, 71, 0
2, 186480, Note_on_c, 0, 79, 72
2, 186600, Note_on_c, 0, 79, 0
2, 186600, Note_on_c, 0, 83, 72
2, 186720, Note_on_c, 0, 83, 0
2, 186720, Control_c, 0, 64, 0
2, 186720, Note_on_c, 0, 83, 72
2, 186780, Control_c, 0, 64, 127
2, 186840, Note_on_c, 0, 83, 0
2, 186840, Note_on_c, 0, 76, 72
2, 186960, Note_on_c, 0, 76, 0
2, 186960, Note_on_c, 0, 83, 72
2, 187080, Note_on_c, 0, 83, 0
2, 187080, Note_on_c, 0, 88, 72
2, 187200, Note_on_c, 0, 88, 0
2, 187200, Control_c, 0, 64, 0
2, 187200, Note_on_c, 0, 84, 73
2, 187260, Control_c, 0, 64, 127
2, 187320, Note_on_c, 0, 84, 0
2, 187320, Note_on_c, 0, 76, 73
2, 187440, Note_on_c, 0, 76, 0
2, 187440, Note_on_c, 0, 84, 73
2, 187560, Note_on_c, 0, 84, 0
2, 187560, Note_on_c, 0, 88, 73
2, 187680, Note_on_c, 0, 88, 0
2, 187680, Control_c, 0, 64, 0
2, 187680, Note_on_c, 0, 84, 73
2, 187740, Control_c, 0, 64, 127
2, 187800, Note_on_c, 0, 84, 0
2, 187800, Note_on_c, 0, 76, 74
2, 187920, Note_on_c, 0, 76, 0
2, 187920, Note_on_c, 0, 84, 74
2, 188040, Note_on_c, 0, 84, 0
2, 188040, Note_on_c, 0, 88, 74
2, 188160, Note_on_c, 0, 88, 0
2, 188160, Control_c, 0, 64, 0
2, 188160, Note_on_c, 0, 84, 74
2, 188220, Control_c, 0, 64, 127
2, 188280, Note_on_c, 0, 84, 0
2, 188280, Note_on_c, 0, 76, 74
2, 188400, Note_on_c, 0, 76, 0
2, 188400, Note_on_c, 0, 84, 74
2, 188520, Note_on_c, 0, 84, 0
2, 188520, Note_on_c, 0, 88, 75
2, 188640, Note_on_c, 0, 88, 0
2, 188640, Control_c, 0, 64, 0
2, 188640, Note_on_c, 0, 85, 75
2, 188700, Control_c, 0, 64, 127
2, 188760, Note_on_c, 0, 85, 0
2, 188760, Note_on_c, 0, 79, 75
2, 188880, Note_on_c, 0, 79, 0
2, 188880, Note_on_c, 0, 85, 75
2, 189000, Note_on_c, 0, 85, 0
2, 189000, Note_on_c, 0, 88, 75
2, 189120, Note_on_c, 0, 88, 0
2, 189120, Control_c, 0, 64, 0
2, 189120, Note_on_c, 0, 85, 76
2, 189180, Control_c, 0, 64, 127
2, 189240, Note_on_c, 0, 85, 0
2, 189240, Note_on_c, 0, 79, 76
2, 189360, Note_on_c, 0, 79, 0
2, 189360, Note_on_c, 0, 85, 76
2, 189480, Note_on_c, 0, 85, 0
2, 189480, Note_on_c, 0, 88, 76
2, 189600, Note_on_c, 0, 88, 0
2, 189600, Control_c, 0, 64, 0
2, 189600, Note_on_c, 0, 85, 76
2, 189660, Control_c, 0, 64, 127
2, 189720, Note_on_c, 0, 85, 0
2, 189720, Note_on_c, 0, 79, 76
2, 189840, Note_on_c, 0, 79, 0
2, 189840, Note_on_c, 0, 85, 77
2, 189960, Note_on_c, 0, 85, 0
2, 189960, Note_on_c, 0, 88, 77
2, 190080, Note_on_c, 0, 88, 0
2, 190080, Control_c, 0, 64, 0
2, 190080, Note_on_c, 0, 83, 77
2, 190140, Control_c, 0, 64, 127
2, 190200, Note_on_c, 0, 83, 0
2, 190200, Note_on_c, 0, 79, 77
2, 190320, Note_on_c, 0, 79, 0
2, 190320, Note_on_c, 0, 83, 78
2, 190440, Note_on_c, 0, 83, 0
2, 190440, Note_on_c, 0, 88, 79
2, 190560, Note_on_c, 0, 88, 0
2, 190560, Control_c, 0, 64, 0
2, 190560, Note_on_c, 0, 91, 80
2, 190620, Control_c, 0, 64, 127
2, 190680, Note_on_c, 0, 91, 0
2, 190680, Note_on_c, 0, 90, 81
2, 190800, Note_on_c, 0, 90, 0
2, 190800, Note_on_c, 0, 88, 82
2, 190920, Note_on_c, 0, 88, 0
2, 190920, Note_on_c, 0, 87, 83
2, 191040, Note_on_c, 0, 87, 0
2, 191040, Control_c, 0, 64, 0
2, 191040, Note_on_c, 0, 91, 84
2, 191100, Control_c, 0, 64, 127
2, 191160, Note_on_c, 0, 91, 0
2, 191160, Note_on_c, 0, 90, 84
2, 191280, Note_on_c, 0, 90, 0
2, 191280, Note_on_c, 0, 91, 85
2, 191400, Note_on_c, 0, 91, 0
2, 191400, Note_on_c, 0, 93, 86
2, 191520, Note_on_c, 0, 93, 0
2, 191520, Control_c, 0, 64, 0
2, 191520, Note_on_c, 0, 95, 88
2, 191580, Control_c, 0, 64, 127
2, 191640, Note_on_c, 0, 95, 0
2, 191640, Note_on_c, 0, 93, 89
2, 191760, Note_on_c, 0, 93, 0
2, 191760, Note_on_c, 0, 91, 90
2, 191880, Note_on_c, 0, 91, 0
2, 191880, Note_on_c, 0, 90, 92
2, 192000, Note_on_c, 0, 90, 0
2, 192000, Control_c, 0, 64, 0
2, 192000, Note_on_c, 0, 95, 93
2, 192060, Control_c, 0, 64, 127
2, 192120, Note_on_c, 0, 95, 0
2, 192120, Note_on_c, 0, 93, 94
2, 192240, Note_on_c, 0, 93, 0
2, 192240, Note_on_c, 0, 91, 95
2, 192360, Note_on_c, 0, 91, 0
2, 192360, Note_on_c, 0, 90, 97
2, 192480, Note_on_c, 0, 90, 0
2, 192480, Control_c, 0, 64, 0
2, 192480, Note_on_c, 0, 95, 98
2, 192540, Control_c, 0, 64, 127
2, 192600, Note_on_c, 0, 95, 0
2, 192600, Note_on_c, 0, 93, 99
2, 192720, Note_on_c, 0, 93, 0
2, 192720, Note_on_c, 0, 91, 100
2, 192840, Note_on_c, 0, 91, 0
2, 192840, Note_on_c, 0, 90, 102
2, 192960, Note_on_c, 0, 90, 0
2, 192960, Control_c, 0, 64, 0
2, 192960, Note_on_c, 0, 95, 109
2, 193020, Control_c, 0, 64, 127
2, 193080, Note_on_c, 0, 95, 0
2, 193080, Note_on_c, 0, 93, 107
2, 193200, Note_on_c, 0, 93, 0
2, 193200, Note_on_c, 0, 91, 105
2, 193320, Note_on_c, 0, 91, 0
2, 193320, Note_on_c, 0, 90, 104
2, 193440, Note_on_c, 0, 90, 0
2, 193440, Control_c, 0, 64, 0
2, 193440, Note_on_c, 0, 91, 102
2, 193680, Note_on_c, 0, 91, 0
2, 194400, Note_on_c, 0, 91, 84
2, 194640, Note_on_c, 0, 91, 0
2, 194640, Note_on_c, 0, 90, 83
2, 194880, Note_on_c, 0, 90, 0
2, 194880, Note_on_c, 0, 88, 82
2, 195120, Note_on_c, 0, 88, 0
2, 195120, Note_on_c, 0, 87, 82
2, 195360, Note_on_c, 0, 87, 0
2, 195360, Note_on_c, 0, 88, 81
2, 195840, Note_on_c, 0, 88, 0
2, 195840, Note_on_c, 0, 91, 79
2, 196320, Note_on_c, 0, 91, 0
2, 196320, Note_on_c, 0, 90, 77
2, 196800, Note_on_c, 0, 90, 0
2, 196800, Note_on_c, 0, 88, 75
2, 197280, Note_on_c, 0, 88, 0
2, 197280, Note_on_c, 0, 87, 73
2, 197760, Note_on_c, 0, 87, 0
2, 197760, Note_on_c, 0, 88, 71
2, 198240, Note_on_c, 0, 88, 0
2, 198720, Note_on_c, 0, 91, 68
2, 199680, Note_on_c, 0, 91, 0
2, 199680, Note_on_c, 0, 90, 64
2, 200640, Note_on_c, 0, 90, 0
2, 200640, Note_on_c, 0, 88, 60
2, 201120, Note_on_c, 0, 88, 0
2, 201600, Note_on_c, 0, 67, 57
2, 202560, Note_on_c, 0, 67, 0
2, 202560, Note_on_c, 0, 66, 53
2, 202800, Note_on_c, 0, 66, 0
2, 202800, Note_on_c, 0, 64, 52
2, 203040, Note_on_c, 0, 64, 0
2, 203040, Note_on_c, 0, 64, 51
2, 203520, Note_on_c, 0, 64, 0
2, 204960, Note_on_c, 0, 67, 43
2, 205440, Note_on_c, 0, 67, 0
2, 205440, Note_on_c, 0, 66, 42
2, 205680, Note_on_c, 0, 66, 0
2, 205680, Note_on_c, 0, 64, 41
2, 205920, Note_on_c, 0, 64, 0
2, 205920, Note_on_c, 0, 64, 42
2, 206160, Note_on_c, 0, 64, 0
2, 206640, Note_on_c, 0, 67, 49
2, 206880, Note_on_c, 0, 67, 0
2, 206880, Note_on_c, 0, 66, 52
2, 207120, Note_on_c, 0, 66, 0
2, 207120, Note_on_c, 0, 64, 54
2, 207360, Note_on_c, 0, 64, 0
2, 207600, Note_on_c, 0, 91, 59
2, 207840, Note_on_c, 0, 91, 0
2, 207840, Note_on_c, 0, 90, 62
2, 208080, Note_on_c, 0, 90, 0
2, 208080, Note_on_c, 0, 88, 64
2, 208320, Note_on_c, 0, 88, 0
2, 208560, Note_on_c, 0, 67, 69
2, 208800, Note_on_c, 0, 67, 0
2, 208800, Note_on_c, 0, 66, 72
2, 209040, Note_on_c, 0, 66, 0
2, 209040, Note_on_c, 0, 64, 74
2, 209280, Note_on_c, 0, 64, 0
2, 209760, Control_c, 0, 64, 0
2, 209760, Note_on_c, 0, 67, 86
2, 210000, Note_on_c, 0, 67, 0
2, 210240, Note_on_c, 0, 67, 97
2, 210960, Note_on_c, 0, 67, 0
2, 210960, Note_on_c, 0, 66, 89
2, 211200, Note_on_c, 0, 66, 0
2, 211200, Note_on_c, 0, 64, 86
2, 211440, Note_on_c, 0, 64, 0
2, 211680, Note_on_c, 0, 69, 81
2, 212040, Note_on_c, 0, 69, 0
2, 212640, Note_on_c, 0, 69, 61
2, 213120, Note_on_c, 0, 69, 0
2, 213120, Note_on_c, 0, 69, 67
2, 213840, Note_on_c, 0, 69, 0
2, 213840, Note_on_c, 0, 67, 60
2, 214080, Note_on_c, 0, 67, 0
2, 214080, Note_on_c, 0, 69, 58
2, 214440, Note_on_c, 0, 69, 0
2, 214560, Note_on_c, 0, 71, 53
2, 214920, Note_on_c, 0, 71, 0
2, 215520, Note_on_c, 0, 71, 85
2, 215760, Note_on_c, 0, 71, 0
2, 216000, Note_on_c, 0, 71, 91
2, 216720, Note_on_c, 0, 71, 0
2, 216720, Note_on_c, 0, 69, 85
2, 216960, Note_on_c, 0, 69, 0
2, 216960, Note_on_c, 0, 67, 83
2, 217200, Note_on_c, 0, 67, 0
2, 217440, Note_on_c, 0, 73, 79
2, 217800, Note_on_c, 0, 73, 0
2, 218400, Note_on_c, 0, 73, 55
2, 218880, Note_on_c, 0, 73, 0
2, 218880, Note_on_c, 0, 73, 60
2, 219600, Note_on_c, 0, 73, 0
2, 219600, Note_on_c, 0, 71, 52
2, 219840, Note_on_c, 0, 71, 0
2, 219840, Note_on_c, 0, 73, 50
2, 220200, Note_on_c, 0, 73, 0
2, 220320, Note_on_c, 0, 74, 46
2, 220680, Note_on_c, 0, 74, 0
2, 221280, Note_on_c, 0, 74, 50
2, 222240, Note_on_c, 0, 74, 0
2, 222240, Note_on_c, 0, 79, 53
2, 222720, Note_on_c, 0, 79, 0
2, 222720, Note_on_c, 0, 76, 55
2, 223200, Note_on_c, 0, 76, 0
2, 223200, Note_on_c, 0, 74, 57
2, 223680, Note_on_c, 0, 74, 0
2, 223680, Note_on_c, 0, 72, 59
2, 224160, Note_on_c, 0, 72, 0
2, 224160, Note_on_c, 0, 72, 60
2, 225120, Note_on_c, 0, 72, 0
2, 225120, Note_on_c, 0, 81, 64
2, 225600, Note_on_c, 0, 81, 0
2, 225600, Note_on_c, 0, 72, 66
2, 226560, Note_on_c, 0, 72, 0
2, 226560, Note_on_c, 0, 71, 66
2, 227040, Note_on_c, 0, 71, 0
2, 227040, Note_on_c, 0, 71, 64
2, 228000, Note_on_c, 0, 71, 0
2, 228000, Note_on_c, 0, 67, 61
2, 228480, Note_on_c, 0, 67, 0
2, 228480, Note_on_c, 0, 67, 60
2, 229440, Note_on_c, 0, 67, 0
2, 229440, Note_on_c, 0, 64, 57
2, 229920, Note_on_c, 0, 64, 0
2, 229920, Note_on_c, 0, 64, 55
2, 231840, Note_on_c, 0, 64, 0
2, 231840, Note_on_c, 0, 59, 49
2, 233760, Note_on_c, 0, 59, 0
2, 234240, Note_on_c, 0, 88, 65
2, 235440, Note_on_c, 0, 88, 0
2, 235440, Note_on_c, 0, 87, 57
2, 235680, Note_on_c, 0, 87, 0
2, 235680, Note_on_c, 0, 88, 55
2, 235920, Note_on_c, 0, 88, 0
2, 236160, Note_on_c, 0, 66, 54
2, 237120, Note_on_c, 0, 66, 0
2, 237120, Note_on_c, 0, 66, 59
2, 237600, Note_on_c, 0, 66, 0
2, 237600, Note_on_c, 0, 66, 61
2, 238320, Note_on_c, 0, 66, 0
2, 238320, Note_on_c, 0, 67, 65
2, 238560, Note_on_c, 0, 67, 0
2, 238560, Note_on_c, 0, 69, 66
2, 238800, Note_on_c, 0, 69, 0
2, 238800, Note_on_c, 0, 67, 68
2, 239040, Note_on_c, 0, 67, 0
2, 239040, Note_on_c, 0, 66, 69
2, 239520, Note_on_c, 0, 66, 0
2, 239520, Note_on_c, 0, 64, 62
2, 240000, Note_on_c, 0, 64, 0
2, 240000, Note_on_c, 0, 88, 74
2, 241162, Note_on_c, 0, 88, 0
2, 241200, Note_on_c, 0, 87, 64
2, 241440, Note_on_c, 0, 87, 0
2, 241440, Note_on_c, 0, 88, 68
2, 241680, Note_on_c, 0, 88, 0
2, 241920, Note_on_c, 0, 66, 76
2, 242880, Note_on_c, 0, 66, 0
2, 242880, Note_on_c, 0, 66, 66
2, 243360, Note_on_c, 0, 66, 0
2, 243360, Note_on_c, 0, 66, 74
2, 244080, Note_on_c, 0, 66, 0
2, 244080, Note_on_c, 0, 69, 68
2, 244320, Note_on_c, 0, 69, 0
2, 244320, Note_on_c, 0, 67, 65
2, 244560, Note_on_c, 0, 67, 0
2, 244560, Note_on_c, 0, 66, 62
2, 244800, Note_on_c, 0, 66, 0
2, 244800, Note_on_c, 0, 64, 59
2, 245280, Note_on_c, 0, 64, 0
2, 247200, Note_on_c, 0, 67, 43
2, 247440, Note_on_c, 0, 67, 0
2, 247680, Note_on_c, 0, 67, 46
2, 248640, Note_on_c, 0, 67, 0
2, 248640, Note_on_c, 0, 72, 51
2, 248880, Note_on_c, 0, 72, 0
2, 249120, Note_on_c, 0, 72, 54
2, 250080, Note_on_c, 0, 72, 0
2, 250080, Note_on_c, 0, 79, 59
2, 250320, Note_on_c, 0, 79, 0
2, 250560, Note_on_c, 0, 79, 62
2, 251520, Note_on_c, 0, 79, 0
2, 251520, Note_on_c, 0, 84, 68
2, 251760, Note_on_c, 0, 84, 0
2, 252000, Note_on_c, 0, 84, 71
2, 252960, Note_on_c, 0, 84, 0
2, 252960, Note_on_c, 0, 89, 83
2, 253200, Note_on_c, 0, 89, 0
2, 253440, Note_on_c, 0, 89, 97
2, 254160, Note_on_c, 0, 89, 0
2, 254160, Note_on_c, 0, 88, 92
2, 254280, Note_on_c, 0, 88, 0
2, 254280, Note_on_c, 0, 86, 91
2, 254400, Note_on_c, 0, 86, 0
2, 254400, Note_on_c, 0, 84, 90
2, 254520, Note_on_c, 0, 84, 0
2, 254520, Note_on_c, 0, 83, 89
2, 254640, Note_on_c, 0, 83, 0
2, 254640, Note_on_c, 0, 81, 88
2, 254760, Note_on_c, 0, 81, 0
2, 254760, Note_on_c, 0, 79, 87
2, 254880, Note_on_c, 0, 79, 0
2, 254880, Note_on_c, 0, 77, 87
2, 255000, Note_on_c, 0, 77, 0
2, 255000, Note_on_c, 0, 76, 86
2, 255120, Note_on_c, 0, 76, 0
2, 255120, Note_on_c, 0, 74, 85
2, 255240, Note_on_c, 0, 74, 0
2, 255240, Note_on_c, 0, 72, 84
2, 255360, Note_on_c, 0, 72, 0
2, 255360, Note_on_c, 0, 71, 83
2, 255440, Note_on_c, 0, 71, 0
2, 255440, Note_on_c, 0, 69, 83
2, 255520, Note_on_c, 0, 69, 0
2, 255520, Note_on_c, 0, 67, 82
2, 255600, Note_on_c, 0, 67, 0
2, 255600, Note_on_c, 0, 65, 82
2, 255680, Note_on_c, 0, 65, 0
2, 255680, Note_on_c, 0, 64, 81
2, 255760, Note_on_c, 0, 64, 0
2, 255760, Note_on_c, 0, 62, 81
2, 255840, Note_on_c, 0, 62, 0
2, 255840, Note_on_c, 0, 60, 80
2, 255920, Note_on_c, 0, 60, 0
2, 255920, Note_on_c, 0, 59, 79
2, 256000, Note_on_c, 0, 59, 0
2, 256000, Note_on_c, 0, 57, 79
2, 256080, Note_on_c, 0, 57, 0
2, 256080, Note_on_c, 0, 55, 78
2, 256200, Note_on_c, 0, 55, 0
2, 256200, Note_on_c, 0, 54, 77
2, 256320, Note_on_c, 0, 54, 0
2, 256320, Note_on_c, 0, 55, 77
2, 256560, Note_on_c, 0, 55, 0
2, 257280, Note_on_c, 0, 65, 72
2, 257520, Note_on_c, 0, 65, 0
2, 257760, Note_on_c, 0, 64, 70
2, 258000, Note_on_c, 0, 64, 0
2, 258720, Note_on_c, 0, 86, 78
2, 258960, Note_on_c, 0, 86, 0
2, 259200, Note_on_c, 0, 86, 89
2, 259920, Note_on_c, 0, 86, 0
2, 259920, Note_on_c, 0, 84, 86
2, 260040, Note_on_c, 0, 84, 0
2, 260040, Note_on_c, 0, 83, 85
2, 260160, Note_on_c, 0, 83, 0
2, 260160, Note_on_c, 0, 81, 84
2, 260280, Note_on_c, 0, 81, 0
2, 260280, Note_on_c, 0, 80, 84
2, 260400, Note_on_c, 0, 80, 0
2, 260400, Note_on_c, 0, 78, 83
2, 260520, Note_on_c, 0, 78, 0
2, 260520, Note_on_c, 0, 76, 83
2, 260640, Note_on_c, 0, 76, 0
2, 260640, Note_on_c, 0, 74, 82
2, 260760, Note_on_c, 0, 74, 0
2, 260760, Note_on_c, 0, 72, 81
2, 260880, Note_on_c, 0, 72, 0
2, 260880, Note_on_c, 0, 71, 81
2, 261000, Note_on_c, 0, 71, 0
2, 261000, Note_on_c, 0, 69, 80
2, 261120, Note_on_c, 0, 69, 0
2, 261120, Note_on_c, 0, 68, 80
2, 261200, Note_on_c, 0, 68, 0
2, 261200, Note_on_c, 0, 66, 79
2, 261280, Note_on_c, 0, 66, 0
2, 261280, Note_on_c, 0, 64, 79
2, 261360, Note_on_c, 0, 64, 0
2, 261360, Note_on_c, 0, 62, 79
2, 261440, Note_on_c, 0, 62, 0
2, 261440, Note_on_c, 0, 60, 78
2, 261520, Note_on_c, 0, 60, 0
2, 261520, Note_on_c, 0, 59, 78
2, 261600, Note_on_c, 0, 59, 0
2, 261600, Note_on_c, 0, 57, 77
2, 261680, Note_on_c, 0, 57, 0
2, 261680, Note_on_c, 0, 56, 77
2, 261760, Note_on_c, 0, 56, 0
2, 261760, Note_on_c, 0, 54, 77
2, 261840, Note_on_c, 0, 54, 0
2, 261840, Note_on_c, 0, 52, 76
2, 261960, Note_on_c, 0, 52, 0
2, 261960, Note_on_c, 0, 51, 76
2, 262080, Note_on_c, 0, 51, 0
2, 262080, Note_on_c, 0, 52, 75
2, 262440, Note_on_c, 0, 52, 0
2, 263040, Note_on_c, 0, 62, 69
2, 263280, Note_on_c, 0, 62, 0
2, 263520, Note_on_c, 0, 60, 66
2, 263760, Note_on_c, 0, 60, 0
2, 264480, Note_on_c, 0, 84, 62
2, 264840, Note_on_c, 0, 84, 0
2, 264960, Note_on_c, 0, 84, 74
2, 265680, Note_on_c, 0, 84, 0
2, 265680, Note_on_c, 0, 82, 70
2, 265800, Note_on_c, 0, 82, 0
2, 265800, Note_on_c, 0, 81, 69
2, 265920, Note_on_c, 0, 81, 0
2, 265920, Note_on_c, 0, 79, 68
2, 266040, Note_on_c, 0, 79, 0
2, 266040, Note_on_c, 0, 77, 68
2, 266160, Note_on_c, 0, 77, 0
2, 266160, Note_on_c, 0, 76, 67
2, 266280, Note_on_c, 0, 76, 0
2, 266280, Note_on_c, 0, 74, 66
2, 266400, Note_on_c, 0, 74, 0
2, 266400, Note_on_c, 0, 72, 65
2, 266520, Note_on_c, 0, 72, 0
2, 266520, Note_on_c, 0, 70, 65
2, 266640, Note_on_c, 0, 70, 0
2, 266640, Note_on_c, 0, 69, 64
2, 266760, Note_on_c, 0, 69, 0
2, 266760, Note_on_c, 0, 67, 63
2, 266880, Note_on_c, 0, 67, 0
2, 266880, Note_on_c, 0, 65, 62
2, 267000, Note_on_c, 0, 64, 62
2, 267007, Note_on_c, 0, 65, 0
2, 267120, Note_on_c, 0, 62, 61
2, 267127, Note_on_c, 0, 64, 0
2, 267200, Note_on_c, 0, 60, 60
2, 267247, Note_on_c, 0, 62, 0
2, 267280, Note_on_c, 0, 58, 60
2, 267320, Note_on_c, 0, 60, 0
2, 267360, Note_on_c, 0, 57, 59
2, 267382, Note_on_c, 0, 58, 0
2, 267600, Note_on_c, 0, 57, 0
2, 267840, Control_c, 0, 64, 0
2, 267840, Note_on_c, 0, 57, 60
2, 268800, Note_on_c, 0, 57, 0
2, 268800, Note_on_c, 0, 63, 58
2, 269040, Note_on_c, 0, 63, 0
2, 269280, Note_on_c, 0, 63, 60
2, 270240, Note_on_c, 0, 63, 0
2, 270240, Note_on_c, 0, 69, 62
2, 270480, Note_on_c, 0, 69, 0
2, 270720, Note_on_c, 0, 69, 63
2, 271680, Note_on_c, 0, 69, 0
2, 271680, Note_on_c, 0, 75, 66
2, 271920, Note_on_c, 0, 75, 0
2, 272160, Note_on_c, 0, 75, 69
2, 273120, Note_on_c, 0, 75, 0
2, 273120, Note_on_c, 0, 84, 76
2, 273360, Note_on_c, 0, 84, 0
2, 273600, Control_c, 0, 64, 0
2, 273600, Note_on_c, 0, 85, 78
2, 274560, Note_on_c, 0, 85, 0
2, 274560, Note_on_c, 0, 83, 81
2, 275040, Note_on_c, 0, 83, 0
2, 275040, Control_c, 0, 64, 0
2, 275040, Note_on_c, 0, 82, 82
2, 276000, Note_on_c, 0, 82, 0
2, 276000, Note_on_c, 0, 83, 86
2, 276480, Note_on_c, 0, 83, 0
2, 276480, Note_on_c, 0, 83, 87
2, 277920, Note_on_c, 0, 83, 0
2, 277920, Note_on_c, 0, 88, 89
2, 279360, Note_on_c, 0, 88, 0
2, 279360, Note_on_c, 0, 76, 92
2, 279552, Note_on_c, 0, 76, 0
2, 279840, Note_on_c, 0, 77, 93
2, 280032, Note_on_c, 0, 77, 0
2, 280800, Note_on_c, 0, 77, 94
2, 280992, Note_on_c, 0, 77, 0
2, 281280, Note_on_c, 0, 80, 95
2, 281472, Note_on_c, 0, 80, 0
2, 282240, Note_on_c, 0, 80, 97
2, 282432, Note_on_c, 0, 80, 0
2, 282720, Note_on_c, 0, 81, 98
2, 282912, Note_on_c, 0, 81, 0
2, 283680, Note_on_c, 0, 81, 100
2, 283872, Note_on_c, 0, 81, 0
2, 284160, Note_on_c, 0, 82, 101
2, 284352, Note_on_c, 0, 82, 0
2, 285120, Note_on_c, 0, 81, 70
2, 285360, Note_on_c, 0, 81, 0
2, 285360, Control_c, 0, 64, 127
2, 285360, Note_on_c, 0, 82, 65
2, 285600, Note_on_c, 0, 82, 0
2, 285600, Note_on_c, 0, 82, 67
2, 285840, Note_on_c, 0, 82, 0
2, 285840, Note_on_c, 0, 82, 69
2, 286080, Note_on_c, 0, 82, 0
2, 286080, Note_on_c, 0, 82, 72
2, 286320, Note_on_c, 0, 82, 0
2, 286320, Note_on_c, 0, 82, 74
2, 286560, Note_on_c, 0, 82, 0
2, 286560, Note_on_c, 0, 82, 76
2, 286800, Note_on_c, 0, 82, 0
2, 286800, Note_on_c, 0, 82, 78
2, 287040, Note_on_c, 0, 82, 0
2, 287040, Note_on_c, 0, 82, 81
2, 287280, Note_on_c, 0, 82, 0
2, 287280, Note_on_c, 0, 82, 83
2, 287520, Note_on_c, 0, 82, 0
2, 287520, Note_on_c, 0, 82, 85
2, 287760, Note_on_c, 0, 82, 0
2, 287760, Note_on_c, 0, 82, 87
2, 288000, Note_on_c, 0, 82, 0
2, 288000, Control_c, 0, 64, 0
2, 288000, Note_on_c, 0, 95, 90
2, 288120, Control_c, 0, 64, 127
2, 288240, Note_on_c, 0, 95, 0
2, 288240, Note_on_c, 0, 96, 92
2, 288480, Note_on_c, 0, 96, 0
2, 288480, Note_on_c, 0, 96, 94
2, 288720, Note_on_c, 0, 96, 0
2, 288720, Note_on_c, 0, 96, 97
2, 288960, Note_on_c, 0, 96, 0
2, 288960, Note_on_c, 0, 96, 99
2, 289200, Note_on_c, 0, 96, 0
2, 289200, Note_on_c, 0, 96, 101
2, 289440, Note_on_c, 0, 96, 0
2, 289440, Note_on_c, 0, 96, 103
2, 289680, Note_on_c, 0, 96, 0
2, 289680, Note_on_c, 0, 96, 106
2, 289920, Note_on_c, 0, 96, 0
2, 289920, Note_on_c, 0, 96, 106
2, 290160, Note_on_c, 0, 96, 0
2, 290160, Note_on_c, 0, 96, 102
2, 290400, Note_on_c, 0, 96, 0
2, 290400, Note_on_c, 0, 96, 99
2, 290640, Note_on_c, 0, 96, 0
2, 290640, Note_on_c, 0, 96, 96
2, 290880, Note_on_c, 0, 96, 0
2, 290880, Note_on_c, 0, 96, 93
2, 291360, Note_on_c, 0, 96, 0
2, 291360, Control_c, 0, 64, 0
2, 291360, Note_on_c, 0, 95, 87
2, 291420, Control_c, 0, 64, 127
2, 292800, Note_on_c, 0, 95, 0
2, 292800, Note_on_c, 0, 88, 84
2, 294240, Note_on_c, 0, 88, 0
2, 294240, Note_on_c, 0, 83, 81
2, 295680, Note_on_c, 0, 83, 0
2, 295680, Note_on_c, 0, 76, 79
2, 297120, Note_on_c, 0, 76, 0
2, 297120, Note_on_c, 0, 72, 76
2, 297600, Note_on_c, 0, 72, 0
2, 297600, Note_on_c, 0, 71, 75
2, 298080, Note_on_c, 0, 71, 0
2, 298080, Note_on_c, 0, 71, 74
2, 299040, Note_on_c, 0, 71, 0
2, 299040, Note_on_c, 0, 75, 72
2, 299520, Note_on_c, 0, 75, 0
2, 299520, Control_c, 0, 64, 0
2, 299520, Note_on_c, 0, 76, 70
2, 299760, Note_on_c, 0, 76, 0
2, 299760, Control_c, 0, 64, 0
2, 299760, Note_on_c, 0, 72, 81
2, 299820, Control_c, 0, 64, 127
2, 300000, Note_on_c, 0, 72, 0
2, 300000, Note_on_c, 0, 84, 85
2, 300720, Note_on_c, 0, 84, 0
2, 300720, Note_on_c, 0, 83, 82
2, 300960, Note_on_c, 0, 83, 0
2, 300960, Control_c, 0, 64, 0
2, 301020, Control_c, 0, 64, 127
2, 301200, Note_on_c, 0, 83, 81
2, 301440, Note_on_c, 0, 83, 0
2, 301440, Note_on_c, 0, 78, 80
2, 302160, Note_on_c, 0, 78, 0
2, 302160, Note_on_c, 0, 76, 77
2, 302400, Note_on_c, 0, 76, 0
2, 302400, Control_c, 0, 64, 0
2, 302460, Control_c, 0, 64, 127
2, 302640, Note_on_c, 0, 76, 75
2, 302880, Note_on_c, 0, 76, 0
2, 302880, Note_on_c, 0, 72, 74
2, 303600, Note_on_c, 0, 72, 0
2, 303600, Note_on_c, 0, 71, 71
2, 303840, Note_on_c, 0, 71, 0
2, 303840, Control_c, 0, 64, 0
2, 303900, Control_c, 0, 64, 127
2, 304080, Note_on_c, 0, 71, 69
2, 304320, Note_on_c, 0, 71, 0
2, 304320, Note_on_c, 0, 66, 68
2, 305040, Note_on_c, 0, 66, 0
2, 305040, Note_on_c, 0, 64, 65
2, 305280, Note_on_c, 0, 64, 0
2, 305280, Control_c, 0, 64, 0
2, 305280, Note_on_c, 0, 64, 64
2, 305340, Control_c, 0, 64, 127
2, 305760, Note_on_c, 0, 64, 0
2, 305760, Note_on_c, 0, 60, 62
2, 306240, Note_on_c, 0, 60, 0
2, 306240, Note_on_c, 0, 59, 60
2, 306720, Note_on_c, 0, 59, 0
2, 306720, Control_c, 0, 64, 0
2, 306720, Note_on_c, 0, 59, 58
2, 306780, Control_c, 0, 64, 127
2, 306960, Note_on_c, 0, 59, 0
2, 306960, Note_on_c, 0, 55, 57
2, 307200, Note_on_c, 0, 55, 0
2, 307200, Note_on_c, 0, 52, 60
2, 307440, Note_on_c, 0, 52, 0
2, 307440, Note_on_c, 0, 48, 63
2, 307680, Note_on_c, 0, 48, 0
2, 307680, Note_on_c, 0, 47, 67
2, 307920, Note_on_c, 0, 47, 0
2, 307920, Note_on_c, 0, 51, 70
2, 308160, Note_on_c, 0, 51, 0
2, 308160, Control_c, 0, 64, 0
2, 308160, Note_on_c, 0, 52, 74
2, 308640, Note_on_c, 0, 52, 0
2, 309600, Note_on_c, 0, 64, 94
2, 311040, Note_on_c, 0, 64, 0
2, 311040, Note_on_c, 0, 65, 78
2, 312000, Note_on_c, 0, 65, 0
2, 312000, Note_on_c, 0, 72, 75
2, 313440, Note_on_c, 0, 72, 0
2, 313440, Note_on_c, 0, 71, 70
2, 313920, Note_on_c, 0, 71, 0
2, 313920, Note_on_c, 0, 71, 69
2, 314400, Note_on_c, 0, 71, 0
2, 315360, Note_on_c, 0, 52, 91
2, 316800, Note_on_c, 0, 52, 0
2, 316800, Note_on_c, 0, 53, 69
2, 317760, Note_on_c, 0, 53, 0
2, 317760, Note_on_c, 0, 60, 71
2, 319200, Note_on_c, 0, 60, 0
2, 319200, Note_on_c, 0, 59, 63
2, 319680, Note_on_c, 0, 59, 0
2, 320640, Note_on_c, 0, 60, 65
2, 322080, Note_on_c, 0, 60, 0
2, 322080, Note_on_c, 0, 59, 57
2, 322560, Note_on_c, 0, 59, 0
2, 323520, Note_on_c, 0, 60, 59
2, 324960, Note_on_c, 0, 60, 0
2, 324960, Note_on_c, 0, 63, 51
2, 325440, Note_on_c, 0, 63, 0
2, 325440, Note_on_c, 0, 64, 51
2, 325920, Note_on_c, 0, 64, 0
2, 326400, Note_on_c, 0, 72, 67
2, 327840, Note_on_c, 0, 72, 0
2, 327840, Note_on_c, 0, 71, 64
2, 328320, Note_on_c, 0, 71, 0
2, 329280, Note_on_c, 0, 72, 60
2, 330720, Note_on_c, 0, 72, 0
2, 330720, Note_on_c, 0, 71, 57
2, 331200, Note_on_c, 0, 71, 0
2, 332160, Note_on_c, 0, 72, 53
2, 333600, Note_on_c, 0, 72, 0
2, 333600, Note_on_c, 0, 75, 49
2, 334080, Note_on_c, 0, 75, 0
2, 334080, Note_on_c, 0, 76, 48
2, 334560, Note_on_c, 0, 76, 0
2, 335040, Note_on_c, 0, 84, 56
2, 336480, Note_on_c, 0, 84, 0
2, 336480, Note_on_c, 0, 83, 44
2, 336960, Note_on_c, 0, 83, 0
2, 339360, Control_c, 0, 64, 0
2, 339360, Note_on_c, 0, 78, 71
2, 339840, Note_on_c, 0, 78, 0
2, 339840, Note_on_c, 0, 79, 80
2, 340560, Note_on_c, 0, 79, 0
2, 340560, Note_on_c, 0, 78, 72
2, 340800, Note_on_c, 0, 78, 0
2, 340800, Note_on_c, 0, 76, 69
2, 341280, Note_on_c, 0, 76, 0
2, 341280, Note_on_c, 0, 81, 65
2, 341640, Note_on_c, 0, 81, 0
2, 342240, Note_on_c, 0, 81, 58
2, 342720, Note_on_c, 0, 81, 0
2, 342720, Note_on_c, 0, 81, 67
2, 343440, Note_on_c, 0, 81, 0
2, 343440, Note_on_c, 0, 79, 58
2, 343680, Note_on_c, 0, 79, 0
2, 343680, Note_on_c, 0, 81, 55
2, 344040, Note_on_c, 0, 81, 0
2, 344160, Note_on_c, 0, 83, 50
2, 344520, Note_on_c, 0, 83, 0
2, 345120, Note_on_c, 0, 83, 59
2, 345600, Note_on_c, 0, 83, 0
2, 345600, Note_on_c, 0, 83, 71
2, 346320, Note_on_c, 0, 83, 0
2, 346320, Note_on_c, 0, 81, 64
2, 346560, Note_on_c, 0, 81, 0
2, 346560, Note_on_c, 0, 79, 61
2, 347040, Note_on_c, 0, 79, 0
2, 347040, Note_on_c, 0, 85, 55
2, 347760, Note_on_c, 0, 85, 0
2, 349440, Control_c, 0, 64, 0
2, 349440, Note_on_c, 0, 88, 65
2, 350640, Note_on_c, 0, 88, 0
2, 350640, Note_on_c, 0, 87, 54
2, 350880, Note_on_c, 0, 87, 0
2, 350880, Note_on_c, 0, 88, 52
2, 351120, Note_on_c, 0, 88, 0
2, 351360, Note_on_c, 0, 66, 53
2, 352320, Note_on_c, 0, 66, 0
2, 352320, Note_on_c, 0, 66, 60
2, 352800, Note_on_c, 0, 66, 0
2, 352800, Note_on_c, 0, 66, 67
2, 353520, Note_on_c, 0, 66, 0
2, 353520, Note_on_c, 0, 67, 62
2, 353760, Note_on_c, 0, 67, 0
2, 353760, Note_on_c, 0, 69, 60
2, 354000, Note_on_c, 0, 69, 0
2, 354000, Note_on_c, 0, 67, 58
2, 354240, Note_on_c, 0, 67, 0
2, 354240, Note_on_c, 0, 66, 57
2, 354720, Note_on_c, 0, 66, 0
2, 354720, Note_on_c, 0, 64, 53
2, 355200, Note_on_c, 0, 64, 0
2, 355200, Note_on_c, 0, 88, 74
2, 356362, Note_on_c, 0, 88, 0
2, 356400, Note_on_c, 0, 87, 67
2, 356640, Note_on_c, 0, 87, 0
2, 356640, Note_on_c, 0, 88, 65
2, 356880, Note_on_c, 0, 88, 0
2, 357120, Note_on_c, 0, 66, 71
2, 358080, Note_on_c, 0, 66, 0
2, 358080, Note_on_c, 0, 66, 65
2, 358560, Note_on_c, 0, 66, 0
2, 358560, Note_on_c, 0, 66, 63
2, 359280, Note_on_c, 0, 66, 0
2, 359280, Note_on_c, 0, 69, 59
2, 359520, Note_on_c, 0, 69, 0
2, 359520, Note_on_c, 0, 67, 56
2, 359760, Note_on_c, 0, 67, 0
2, 359760, Note_on_c, 0, 66, 52
2, 360000, Note_on_c, 0, 66, 0
2, 360000, Note_on_c, 0, 64, 48
2, 360480, Note_on_c, 0, 64, 0
2, 361440, Control_c, 0, 10, 73
2, 361440, Control_c, 0, 91, 91
2, 361440, Control_c, 0, 93, 28
2, 361440, Control_c, 0, 64, 0
2, 361440, Control_c, 0, 1, 0
2, 361440, Pitch_bend_c, 0, 8192
2, 361440, Control_c, 0, 7, 127
2, 361440, Control_c, 0, 0, 0
2, 361440, Control_c, 0, 32, 0
2, 361440, Program_c, 0, 0
2, 362160, Note_on_c, 0, 64, 55
2, 362280, Note_on_c, 0, 64, 0
2, 362280, Note_on_c, 0, 66, 58
2, 362400, Note_on_c, 0, 66, 0
2, 362400, Note_on_c, 0, 68, 61
2, 362880, Note_on_c, 0, 68, 0
2, 362880, Note_on_c, 0, 71, 60
2, 363120, Note_on_c, 0, 71, 0
2, 363120, Note_on_c, 0, 69, 59
2, 363360, Note_on_c, 0, 69, 0
2, 363360, Note_on_c, 0, 68, 58
2, 363600, Note_on_c, 0, 68, 0
2, 363600, Note_on_c, 0, 66, 58
2, 363792, Note_on_c, 0, 66, 0
2, 363840, Note_on_c, 0, 66, 57
2, 364032, Note_on_c, 0, 66, 0
2, 364080, Note_on_c, 0, 68, 56
2, 364272, Note_on_c, 0, 68, 0
2, 364320, Note_on_c, 0, 69, 55
2, 364560, Note_on_c, 0, 69, 0
2, 364560, Note_on_c, 0, 73, 54
2, 364800, Note_on_c, 0, 73, 0
2, 364800, Note_on_c, 0, 71, 54
2, 365040, Note_on_c, 0, 71, 0
2, 365040, Note_on_c, 0, 66, 53
2, 365280, Note_on_c, 0, 66, 0
2, 365280, Note_on_c, 0, 68, 51
2, 365760, Note_on_c, 0, 68, 0
2, 366000, Note_on_c, 0, 76, 57
2, 366120, Note_on_c, 0, 76, 0
2, 366120, Note_on_c, 0, 78, 58
2, 366240, Note_on_c, 0, 78, 0
2, 366240, Note_on_c, 0, 80, 61
2, 366720, Note_on_c, 0, 80, 0
2, 366720, Note_on_c, 0, 83, 60
2, 366960, Note_on_c, 0, 83, 0
2, 366960, Note_on_c, 0, 81, 59
2, 367200, Note_on_c, 0, 81, 0
2, 367200, Note_on_c, 0, 80, 59
2, 367440, Note_on_c, 0, 80, 0
2, 367440, Note_on_c, 0, 78, 60
2, 367632, Note_on_c, 0, 78, 0
2, 367680, Note_on_c, 0, 78, 62
2, 367872, Note_on_c, 0, 78, 0
2, 367920, Note_on_c, 0, 80, 64
2, 368112, Note_on_c, 0, 80, 0
2, 368160, Note_on_c, 0, 81, 65
2, 368400, Note_on_c, 0, 81, 0
2, 368400, Note_on_c, 0, 85, 67
2, 368640, Note_on_c, 0, 85, 0
2, 368640, Note_on_c, 0, 83, 68
2, 368832, Note_on_c, 0, 83, 0
2, 368880, Note_on_c, 0, 87, 70
2, 369072, Note_on_c, 0, 87, 0
2, 369120, Note_on_c, 0, 88, 65
2, 369480, Note_on_c, 0, 88, 0
2, 369840, Note_on_c, 0, 71, 63
2, 370080, Note_on_c, 0, 71, 0
2, 370080, Note_on_c, 0, 70, 65
2, 370560, Note_on_c, 0, 70, 0
2, 370560, Note_on_c, 0, 76, 69
2, 371040, Note_on_c, 0, 76, 0
2, 371040, Note_on_c, 0, 75, 67
2, 371760, Note_on_c, 0, 75, 0
2, 371760, Note_on_c, 0, 69, 64
2, 372000, Note_on_c, 0, 69, 0
2, 372000, Note_on_c, 0, 68, 65
2, 372480, Note_on_c, 0, 68, 0
2, 372480, Note_on_c, 0, 74, 69
2, 372960, Note_on_c, 0, 74, 0
2, 372960, Note_on_c, 0, 73, 66
2, 373680, Note_on_c, 0, 73, 0
2, 373680, Note_on_c, 0, 73, 62
2, 373920, Note_on_c, 0, 73, 0
2, 373920, Note_on_c, 0, 72, 64
2, 374160, Note_on_c, 0, 72, 0
2, 374160, Note_on_c, 0, 73, 66
2, 374352, Note_on_c, 0, 73, 0
2, 374400, Note_on_c, 0, 69, 67
2, 374592, Note_on_c, 0, 69, 0
2, 374640, Note_on_c, 0, 68, 69
2, 374832, Note_on_c, 0, 68, 0
2, 374880, Note_on_c, 0, 68, 71
2, 375120, Note_on_c, 0, 68, 0
2, 375120, Note_on_c, 0, 66, 73
2, 375600, Note_on_c, 0, 66, 0
2, 375600, Note_on_c, 0, 66, 75
2, 375840, Note_on_c, 0, 66, 0
2, 375840, Note_on_c, 0, 66, 75
2, 376061, Note_on_c, 0, 66, 0
2, 376080, Note_on_c, 0, 71, 69
2, 376320, Note_on_c, 0, 71, 0
2, 376320, Note_on_c, 0, 70, 66
2, 376560, Note_on_c, 0, 70, 0
2, 376560, Note_on_c, 0, 71, 64
2, 376800, Note_on_c, 0, 71, 0
2, 376800, Note_on_c, 0, 64, 61
2, 377280, Note_on_c, 0, 64, 0
2, 377520, Note_on_c, 0, 83, 62
2, 377760, Note_on_c, 0, 83, 0
2, 377760, Note_on_c, 0, 82, 64
2, 378240, Note_on_c, 0, 82, 0
2, 378240, Note_on_c, 0, 88, 68
2, 378720, Note_on_c, 0, 88, 0
2, 378720, Note_on_c, 0, 87, 67
2, 379440, Note_on_c, 0, 87, 0
2, 379440, Note_on_c, 0, 81, 63
2, 379680, Note_on_c, 0, 81, 0
2, 379680, Note_on_c, 0, 80, 64
2, 380160, Note_on_c, 0, 80, 0
2, 380160, Note_on_c, 0, 86, 68
2, 380640, Note_on_c, 0, 86, 0
2, 380640, Note_on_c, 0, 85, 68
2, 381360, Note_on_c, 0, 85, 0
2, 381360, Note_on_c, 0, 85, 63
2, 381600, Note_on_c, 0, 85, 0
2, 381600, Note_on_c, 0, 84, 65
2, 381840, Note_on_c, 0, 84, 0
2, 381840, Note_on_c, 0, 85, 67
2, 382032, Note_on_c, 0, 85, 0
2, 382080, Note_on_c, 0, 81, 69
2, 382272, Note_on_c, 0, 81, 0
2, 382320, Note_on_c, 0, 80, 71
2, 382512, Note_on_c, 0, 80, 0
2, 382560, Note_on_c, 0, 80, 73
2, 382800, Note_on_c, 0, 80, 0
2, 382800, Note_on_c, 0, 78, 75
2, 383280, Note_on_c, 0, 78, 0
2, 383280, Note_on_c, 0, 78, 77
2, 383520, Note_on_c, 0, 78, 0
2, 383520, Note_on_c, 0, 78, 73
2, 383760, Note_on_c, 0, 78, 0
2, 383760, Note_on_c, 0, 83, 69
2, 384000, Note_on_c, 0, 83, 0
2, 384000, Note_on_c, 0, 82, 65
2, 384240, Note_on_c, 0, 82, 0
2, 384240, Note_on_c, 0, 83, 62
2, 384480, Note_on_c, 0, 83, 0
2, 384480, Note_on_c, 0, 76, 58
2, 384960, Note_on_c, 0, 76, 0
2, 385200, Note_on_c, 0, 64, 53
2, 385320, Note_on_c, 0, 64, 0
2, 385320, Note_on_c, 0, 66, 56
2, 385440, Note_on_c, 0, 66, 0
2, 385440, Note_on_c, 0, 68, 61
2, 385920, Note_on_c, 0, 68, 0
2, 385920, Note_on_c, 0, 71, 60
2, 386160, Note_on_c, 0, 71, 0
2, 386160, Note_on_c, 0, 69, 59
2, 386400, Note_on_c, 0, 69, 0
2, 386400, Note_on_c, 0, 68, 58
2, 386640, Note_on_c, 0, 68, 0
2, 386640, Note_on_c, 0, 66, 57
2, 386832, Note_on_c, 0, 66, 0
2, 386880, Note_on_c, 0, 66, 57
2, 387072, Note_on_c, 0, 66, 0
2, 387120, Note_on_c, 0, 68, 56
2, 387312, Note_on_c, 0, 68, 0
2, 387360, Note_on_c, 0, 69, 55
2, 387600, Note_on_c, 0, 69, 0
2, 387600, Note_on_c, 0, 73, 54
2, 387840, Note_on_c, 0, 73, 0
2, 387840, Note_on_c, 0, 71, 53
2, 388080, Note_on_c, 0, 71, 0
2, 388080, Note_on_c, 0, 66, 53
2, 388320, Note_on_c, 0, 66, 0
2, 388320, Note_on_c, 0, 68, 52
2, 388760, Note_on_c, 0, 78, 53
2, 388800, Note_on_c, 0, 78, 0
2, 388800, Note_on_c, 0, 68, 0
2, 388800, Note_on_c, 0, 76, 54
2, 388920, Note_on_c, 0, 76, 0
2, 388920, Note_on_c, 0, 75, 55
2, 389040, Note_on_c, 0, 75, 0
2, 389040, Note_on_c, 0, 76, 56
2, 389160, Note_on_c, 0, 76, 0
2, 389160, Note_on_c, 0, 78, 57
2, 389240, Note_on_c, 0, 81, 58
2, 389280, Note_on_c, 0, 81, 0
2, 389280, Note_on_c, 0, 78, 0
2, 389280, Note_on_c, 0, 80, 59
2, 389400, Note_on_c, 0, 80, 0
2, 389400, Note_on_c, 0, 78, 60
2, 389520, Note_on_c, 0, 78, 0
2, 389520, Note_on_c, 0, 80, 61
2, 389640, Note_on_c, 0, 80, 0
2, 389640, Note_on_c, 0, 81, 63
2, 389760, Note_on_c, 0, 81, 0
2, 389760, Note_on_c, 0, 83, 64
2, 390000, Note_on_c, 0, 83, 0
2, 390000, Note_on_c, 0, 81, 62
2, 390240, Note_on_c, 0, 81, 0
2, 390240, Note_on_c, 0, 80, 66
2, 390480, Note_on_c, 0, 80, 0
2, 390480, Note_on_c, 0, 78, 69
2, 390672, Note_on_c, 0, 78, 0
2, 390720, Note_on_c, 0, 78, 72
2, 390912, Note_on_c, 0, 78, 0
2, 390960, Note_on_c, 0, 80, 75
2, 391152, Note_on_c, 0, 80, 0
2, 391200, Note_on_c, 0, 81, 78
2, 391440, Note_on_c, 0, 81, 0
2, 391440, Note_on_c, 0, 85, 81
2, 391680, Note_on_c, 0, 85, 0
2, 391680, Note_on_c, 0, 83, 84
2, 391872, Note_on_c, 0, 83, 0
2, 391920, Note_on_c, 0, 87, 87
2, 392112, Note_on_c, 0, 87, 0
2, 392160, Note_on_c, 0, 88, 84
2, 392520, Note_on_c, 0, 88, 0
2, 392880, Note_on_c, 0, 68, 88
2, 393036, Note_on_c, 0, 68, 0
2, 393120, Note_on_c, 0, 68, 96
2, 393480, Note_on_c, 0, 68, 0
2, 393840, Note_on_c, 0, 76, 71
2, 393996, Note_on_c, 0, 76, 0
2, 394080, Note_on_c, 0, 75, 76
2, 394440, Note_on_c, 0, 75, 0
2, 394800, Note_on_c, 0, 68, 89
2, 394956, Note_on_c, 0, 68, 0
2, 395040, Note_on_c, 0, 68, 95
2, 395400, Note_on_c, 0, 68, 0
2, 395760, Note_on_c, 0, 75, 68
2, 395916, Note_on_c, 0, 75, 0
2, 396000, Note_on_c, 0, 76, 72
2, 396360, Note_on_c, 0, 76, 0
2, 396720, Note_on_c, 0, 68, 86
2, 396876, Note_on_c, 0, 68, 0
2, 396960, Note_on_c, 0, 68, 90
2, 397320, Note_on_c, 0, 68, 0
2, 397680, Note_on_c, 0, 76, 66
2, 397836, Note_on_c, 0, 76, 0
2, 397920, Note_on_c, 0, 76, 68
2, 398280, Note_on_c, 0, 76, 0
2, 398640, Note_on_c, 0, 64, 87
2, 398796, Note_on_c, 0, 64, 0
2, 398880, Note_on_c, 0, 64, 92
2, 399240, Note_on_c, 0, 64, 0
2, 399600, Note_on_c, 0, 76, 83
2, 399756, Note_on_c, 0, 76, 0
2, 399840, Note_on_c, 0, 76, 80
2, 400080, Note_on_c, 0, 76, 0
2, 400800, Note_on_c, 0, 85, 62
2, 401520, Note_on_c, 0, 85, 0
2, 401520, Note_on_c, 0, 83, 67
2, 401676, Note_on_c, 0, 83, 0
2, 401760, Note_on_c, 0, 83, 70
2, 402000, Note_on_c, 0, 83, 0
2, 402000, Note_on_c, 0, 82, 69
2, 402156, Note_on_c, 0, 82, 0
2, 402240, Note_on_c, 0, 82, 67
2, 402480, Note_on_c, 0, 82, 0
2, 402480, Note_on_c, 0, 83, 66
2, 402636, Note_on_c, 0, 83, 0
2, 402720, Note_on_c, 0, 85, 64
2, 403440, Note_on_c, 0, 85, 0
2, 403440, Note_on_c, 0, 83, 64
2, 403680, Note_on_c, 0, 83, 0
2, 403680, Note_on_c, 0, 82, 66
2, 403920, Note_on_c, 0, 82, 0
2, 403920, Note_on_c, 0, 85, 67
2, 404160, Note_on_c, 0, 85, 0
2, 404160, Note_on_c, 0, 83, 69
2, 404400, Note_on_c, 0, 83, 0
2, 404400, Note_on_c, 0, 82, 70
2, 404640, Note_on_c, 0, 82, 0
2, 404640, Note_on_c, 0, 83, 71
2, 404880, Note_on_c, 0, 83, 0
2, 404880, Note_on_c, 0, 82, 70
2, 405120, Note_on_c, 0, 82, 0
2, 405120, Note_on_c, 0, 80, 69
2, 405360, Note_on_c, 0, 80, 0
2, 405360, Note_on_c, 0, 78, 68
2, 405600, Note_on_c, 0, 78, 0
2, 405600, Note_on_c, 0, 80, 67
2, 405840, Note_on_c, 0, 80, 0
2, 405840, Note_on_c, 0, 78, 66
2, 406080, Note_on_c, 0, 78, 0
2, 406080, Note_on_c, 0, 76, 65
2, 406320, Note_on_c, 0, 76, 0
2, 406320, Note_on_c, 0, 75, 64
2, 406560, Note_on_c, 0, 75, 0
2, 406560, Note_on_c, 0, 75, 62
2, 407280, Note_on_c, 0, 75, 0
2, 407280, Note_on_c, 0, 76, 59
2, 407400, Note_on_c, 0, 76, 0
2, 407400, Note_on_c, 0, 78, 59
2, 407520, Note_on_c, 0, 78, 0
2, 407520, Note_on_c, 0, 73, 58
2, 407760, Note_on_c, 0, 73, 0
2, 408480, Note_on_c, 0, 88, 55
2, 409200, Note_on_c, 0, 88, 0
2, 409200, Note_on_c, 0, 87, 59
2, 409356, Note_on_c, 0, 87, 0
2, 409440, Note_on_c, 0, 87, 61
2, 409680, Note_on_c, 0, 87, 0
2, 409680, Note_on_c, 0, 85, 58
2, 409836, Note_on_c, 0, 85, 0
2, 409920, Note_on_c, 0, 85, 58
2, 410160, Note_on_c, 0, 85, 0
2, 410160, Note_on_c, 0, 87, 57
2, 410316, Note_on_c, 0, 87, 0
2, 410400, Note_on_c, 0, 88, 56
2, 411120, Note_on_c, 0, 88, 0
2, 411120, Note_on_c, 0, 87, 56
2, 411276, Note_on_c, 0, 87, 0
2, 411360, Note_on_c, 0, 85, 58
2, 411600, Note_on_c, 0, 85, 0
2, 411600, Note_on_c, 0, 92, 59
2, 411840, Note_on_c, 0, 92, 0
2, 411840, Note_on_c, 0, 90, 61
2, 412080, Note_on_c, 0, 90, 0
2, 412080, Note_on_c, 0, 88, 63
2, 412320, Note_on_c, 0, 88, 0
2, 412320, Note_on_c, 0, 87, 65
2, 412560, Note_on_c, 0, 87, 0
2, 412560, Note_on_c, 0, 90, 64
2, 412800, Note_on_c, 0, 90, 0
2, 412800, Note_on_c, 0, 88, 63
2, 413040, Note_on_c, 0, 88, 0
2, 413040, Note_on_c, 0, 87, 61
2, 413280, Note_on_c, 0, 87, 0
2, 413280, Note_on_c, 0, 85, 60
2, 413520, Note_on_c, 0, 85, 0
2, 413520, Note_on_c, 0, 88, 59
2, 413760, Note_on_c, 0, 88, 0
2, 413760, Note_on_c, 0, 87, 57
2, 414000, Note_on_c, 0, 87, 0
2, 414000, Note_on_c, 0, 85, 56
2, 414240, Note_on_c, 0, 85, 0
2, 414240, Note_on_c, 0, 83, 54
2, 414480, Note_on_c, 0, 83, 0
2, 414480, Note_on_c, 0, 81, 53
2, 414720, Note_on_c, 0, 81, 0
2, 414720, Note_on_c, 0, 80, 52
2, 414960, Note_on_c, 0, 80, 0
2, 414960, Note_on_c, 0, 80, 50
2, 415200, Note_on_c, 0, 80, 0
2, 415200, Note_on_c, 0, 80, 48
2, 415320, Note_on_c, 0, 80, 0
2, 415320, Note_on_c, 0, 68, 50
2, 415440, Note_on_c, 0, 68, 0
2, 415440, Note_on_c, 0, 70, 50
2, 415560, Note_on_c, 0, 70, 0
2, 415560, Note_on_c, 0, 72, 51
2, 415640, Note_on_c, 0, 75, 51
2, 415665, Note_on_c, 0, 72, 0
2, 415680, Note_on_c, 0, 75, 0
2, 415680, Note_on_c, 0, 73, 51
2, 415800, Note_on_c, 0, 73, 0
2, 415800, Note_on_c, 0, 72, 51
2, 415920, Note_on_c, 0, 72, 0
2, 415920, Note_on_c, 0, 73, 52
2, 416040, Note_on_c, 0, 73, 0
2, 416040, Note_on_c, 0, 75, 52
2, 416160, Note_on_c, 0, 75, 0
2, 416160, Note_on_c, 0, 76, 53
2, 416280, Note_on_c, 0, 76, 0
2, 416280, Note_on_c, 0, 72, 53
2, 416400, Note_on_c, 0, 72, 0
2, 416400, Note_on_c, 0, 73, 54
2, 416520, Note_on_c, 0, 73, 0
2, 416520, Note_on_c, 0, 75, 54
2, 416600, Note_on_c, 0, 78, 54
2, 416617, Note_on_c, 0, 75, 0
2, 416640, Note_on_c, 0, 78, 0
2, 416640, Note_on_c, 0, 76, 54
2, 416760, Note_on_c, 0, 76, 0
2, 416760, Note_on_c, 0, 75, 55
2, 416880, Note_on_c, 0, 75, 0
2, 416880, Note_on_c, 0, 76, 55
2, 417000, Note_on_c, 0, 76, 0
2, 417000, Note_on_c, 0, 78, 56
2, 417120, Note_on_c, 0, 78, 0
2, 417120, Note_on_c, 0, 80, 56
2, 417240, Note_on_c, 0, 80, 0
2, 417240, Note_on_c, 0, 78, 57
2, 417360, Note_on_c, 0, 78, 0
2, 417360, Note_on_c, 0, 76, 57
2, 417480, Note_on_c, 0, 76, 0
2, 417480, Note_on_c, 0, 75, 58
2, 417600, Note_on_c, 0, 75, 0
2, 417600, Note_on_c, 0, 76, 59
2, 417720, Note_on_c, 0, 76, 0
2, 417720, Note_on_c, 0, 75, 59
2, 417840, Note_on_c, 0, 75, 0
2, 417840, Note_on_c, 0, 73, 60
2, 417960, Note_on_c, 0, 73, 0
2, 417960, Note_on_c, 0, 80, 61
2, 418080, Note_on_c, 0, 80, 0
2, 418080, Note_on_c, 0, 75, 61
2, 418200, Note_on_c, 0, 75, 0
2, 418200, Note_on_c, 0, 73, 58
2, 418320, Note_on_c, 0, 73, 0
2, 418320, Note_on_c, 0, 71, 57
2, 418440, Note_on_c, 0, 71, 0
2, 418440, Note_on_c, 0, 78, 57
2, 418560, Note_on_c, 0, 78, 0
2, 418560, Note_on_c, 0, 73, 56
2, 418680, Note_on_c, 0, 73, 0
2, 418680, Note_on_c, 0, 71, 55
2, 418800, Note_on_c, 0, 71, 0
2, 418800, Note_on_c, 0, 70, 54
2, 418920, Note_on_c, 0, 70, 0
2, 418920, Note_on_c, 0, 78, 56
2, 419040, Note_on_c, 0, 78, 0
2, 419040, Note_on_c, 0, 78, 56
2, 420000, Note_on_c, 0, 78, 0
2, 420000, Note_on_c, 0, 76, 61
2, 420480, Note_on_c, 0, 76, 0
2, 420480, Note_on_c, 0, 75, 63
2, 420960, Note_on_c, 0, 75, 0
2, 420960, Note_on_c, 0, 73, 65
2, 421440, Note_on_c, 0, 73, 0
2, 421440, Note_on_c, 0, 71, 68
2, 422400, Note_on_c, 0, 71, 0
2, 422400, Note_on_c, 0, 70, 73
2, 422640, Note_on_c, 0, 78, 74
2, 422880, Note_on_c, 0, 78, 0
2, 422880, Note_on_c, 0, 70, 0
2, 422880, Note_on_c, 0, 78, 77
2, 423840, Note_on_c, 0, 78, 0
2, 423840, Note_on_c, 0, 76, 80
2, 424320, Note_on_c, 0, 76, 0
2, 424320, Note_on_c, 0, 75, 82
2, 424800, Note_on_c, 0, 75, 0
2, 424800, Note_on_c, 0, 73, 85
2, 425280, Note_on_c, 0, 73, 0
2, 425280, Note_on_c, 0, 71, 87
2, 426240, Note_on_c, 0, 71, 0
2, 426240, Note_on_c, 0, 69, 92
2, 426720, Note_on_c, 0, 69, 0
2, 426720, Control_c, 0, 64, 127
2, 426720, Note_on_c, 0, 69, 91
2, 426840, Note_on_c, 0, 69, 0
2, 426840, Note_on_c, 0, 75, 88
2, 426960, Note_on_c, 0, 75, 0
2, 426960, Note_on_c, 0, 78, 86
2, 427080, Note_on_c, 0, 78, 0
2, 427080, Note_on_c, 0, 75, 84
2, 427200, Note_on_c, 0, 75, 0
2, 427200, Note_on_c, 0, 81, 82
2, 427320, Note_on_c, 0, 81, 0
2, 427320, Note_on_c, 0, 87, 80
2, 427440, Note_on_c, 0, 87, 0
2, 427440, Note_on_c, 0, 90, 78
2, 427560, Note_on_c, 0, 90, 0
2, 427560, Note_on_c, 0, 87, 76
2, 427680, Note_on_c, 0, 87, 0
2, 427680, Note_on_c, 0, 93, 74
2, 428160, Note_on_c, 0, 93, 0
2, 428160, Control_c, 0, 64, 0
2, 428280, Note_on_c, 0, 63, 58
2, 428400, Note_on_c, 0, 63, 0
2, 428400, Note_on_c, 0, 64, 59
2, 428520, Note_on_c, 0, 64, 0
2, 428520, Note_on_c, 0, 66, 60
2, 428640, Note_on_c, 0, 66, 0
2, 428640, Note_on_c, 0, 68, 61
2, 429120, Note_on_c, 0, 68, 0
2, 429120, Note_on_c, 0, 71, 62
2, 429360, Note_on_c, 0, 71, 0
2, 429360, Note_on_c, 0, 69, 62
2, 429600, Note_on_c, 0, 69, 0
2, 429600, Note_on_c, 0, 68, 61
2, 429840, Note_on_c, 0, 68, 0
2, 429840, Note_on_c, 0, 66, 60
2, 430032, Note_on_c, 0, 66, 0
2, 430080, Note_on_c, 0, 66, 60
2, 430272, Note_on_c, 0, 66, 0
2, 430320, Note_on_c, 0, 68, 59
2, 430512, Note_on_c, 0, 68, 0
2, 430560, Note_on_c, 0, 69, 59
2, 430800, Note_on_c, 0, 69, 0
2, 430800, Note_on_c, 0, 73, 58
2, 431040, Note_on_c, 0, 73, 0
2, 431040, Note_on_c, 0, 71, 57
2, 431280, Note_on_c, 0, 71, 0
2, 431280, Note_on_c, 0, 66, 57
2, 431520, Note_on_c, 0, 66, 0
2, 431520, Note_on_c, 0, 68, 56
2, 432000, Note_on_c, 0, 68, 0
2, 432240, Note_on_c, 0, 76, 57
2, 432360, Note_on_c, 0, 76, 0
2, 432360, Note_on_c, 0, 78, 58
2, 432480, Note_on_c, 0, 78, 0
2, 432480, Note_on_c, 0, 80, 61
2, 432960, Note_on_c, 0, 80, 0
2, 432960, Note_on_c, 0, 83, 60
2, 433200, Note_on_c, 0, 83, 0
2, 433200, Note_on_c, 0, 81, 60
2, 433440, Note_on_c, 0, 81, 0
2, 433440, Note_on_c, 0, 80, 62
2, 433680, Note_on_c, 0, 80, 0
2, 433680, Note_on_c, 0, 78, 63
2, 433872, Note_on_c, 0, 78, 0
2, 433920, Note_on_c, 0, 78, 65
2, 434112, Note_on_c, 0, 78, 0
2, 434160, Note_on_c, 0, 80, 67
2, 434352, Note_on_c, 0, 80, 0
2, 434400, Note_on_c, 0, 81, 68
2, 434640, Note_on_c, 0, 81, 0
2, 434640, Note_on_c, 0, 85, 70
2, 434880, Note_on_c, 0, 85, 0
2, 434880, Note_on_c, 0, 83, 71
2, 435072, Note_on_c, 0, 83, 0
2, 435120, Note_on_c, 0, 87, 71
2, 435312, Note_on_c, 0, 87, 0
2, 435360, Note_on_c, 0, 88, 64
2, 435720, Note_on_c, 0, 88, 0
2, 436080, Note_on_c, 0, 71, 62
2, 436320, Note_on_c, 0, 71, 0
2, 436320, Note_on_c, 0, 70, 64
2, 436800, Note_on_c, 0, 70, 0
2, 436800, Note_on_c, 0, 76, 71
2, 437280, Note_on_c, 0, 76, 0
2, 437280, Note_on_c, 0, 75, 70
2, 438000, Note_on_c, 0, 75, 0
2, 438000, Note_on_c, 0, 69, 62
2, 438240, Note_on_c, 0, 69, 0
2, 438240, Note_on_c, 0, 68, 65
2, 438720, Note_on_c, 0, 68, 0
2, 438720, Note_on_c, 0, 74, 69
2, 439200, Note_on_c, 0, 74, 0
2, 439200, Note_on_c, 0, 73, 64
2, 439920, Note_on_c, 0, 73, 0
2, 439920, Note_on_c, 0, 73, 62
2, 440160, Note_on_c, 0, 73, 0
2, 440160, Note_on_c, 0, 72, 63
2, 440400, Note_on_c, 0, 72, 0
2, 440400, Note_on_c, 0, 73, 64
2, 440592, Note_on_c, 0, 73, 0
2, 440640, Note_on_c, 0, 69, 65
2, 440832, Note_on_c, 0, 69, 0
2, 440880, Note_on_c, 0, 68, 66
2, 441072, Note_on_c, 0, 68, 0
2, 441120, Note_on_c, 0, 68, 67
2, 441360, Note_on_c, 0, 68, 0
2, 441360, Note_on_c, 0, 66, 68
2, 441840, Note_on_c, 0, 66, 0
2, 441840, Note_on_c, 0, 66, 71
2, 442080, Note_on_c, 0, 66, 0
2, 442080, Note_on_c, 0, 66, 71
2, 442301, Note_on_c, 0, 66, 0
2, 442320, Note_on_c, 0, 71, 70
2, 442560, Note_on_c, 0, 71, 0
2, 442560, Note_on_c, 0, 70, 68
2, 442800, Note_on_c, 0, 70, 0
2, 442800, Note_on_c, 0, 71, 65
2, 443040, Note_on_c, 0, 71, 0
2, 443040, Note_on_c, 0, 64, 62
2, 443520, Note_on_c, 0, 64, 0
2, 443760, Note_on_c, 0, 83, 60
2, 444000, Note_on_c, 0, 83, 0
2, 444000, Note_on_c, 0, 82, 63
2, 444480, Note_on_c, 0, 82, 0
2, 444480, Note_on_c, 0, 88, 69
2, 444960, Note_on_c, 0, 88, 0
2, 444960, Note_on_c, 0, 87, 66
2, 445680, Note_on_c, 0, 87, 0
2, 445680, Note_on_c, 0, 81, 61
2, 445920, Note_on_c, 0, 81, 0
2, 445920, Note_on_c, 0, 80, 63
2, 446400, Note_on_c, 0, 80, 0
2, 446400, Note_on_c, 0, 86, 67
2, 446880, Note_on_c, 0, 86, 0
2, 446880, Note_on_c, 0, 85, 65
2, 447600, Note_on_c, 0, 85, 0
2, 447600, Note_on_c, 0, 85, 60
2, 447840, Note_on_c, 0, 85, 0
2, 447840, Note_on_c, 0, 84, 61
2, 448080, Note_on_c, 0, 84, 0
2, 448080, Note_on_c, 0, 85, 63
2, 448272, Note_on_c, 0, 85, 0
2, 448320, Note_on_c, 0, 81, 65
2, 448512, Note_on_c, 0, 81, 0
2, 448560, Note_on_c, 0, 80, 68
2, 448752, Note_on_c, 0, 80, 0
2, 448800, Note_on_c, 0, 80, 70
2, 449040, Note_on_c, 0, 80, 0
2, 449040, Note_on_c, 0, 78, 72
2, 449520, Note_on_c, 0, 78, 0
2, 449520, Note_on_c, 0, 78, 77
2, 449760, Note_on_c, 0, 78, 0
2, 449760, Note_on_c, 0, 78, 71
2, 450000, Note_on_c, 0, 78, 0
2, 450000, Note_on_c, 0, 83, 68
2, 450240, Note_on_c, 0, 83, 0
2, 450240, Note_on_c, 0, 82, 65
2, 450480, Note_on_c, 0, 82, 0
2, 450480, Note_on_c, 0, 83, 61
2, 450720, Note_on_c, 0, 83, 0
2, 450720, Note_on_c, 0, 76, 58
2, 451200, Note_on_c, 0, 76, 0
2, 451440, Note_on_c, 0, 64, 53
2, 451560, Note_on_c, 0, 64, 0
2, 451560, Note_on_c, 0, 66, 56
2, 451680, Note_on_c, 0, 66, 0
2, 451680, Note_on_c, 0, 68, 61
2, 452160, Note_on_c, 0, 68, 0
2, 452160, Note_on_c, 0, 71, 60
2, 452400, Note_on_c, 0, 71, 0
2, 452400, Note_on_c, 0, 69, 59
2, 452640, Note_on_c, 0, 69, 0
2, 452640, Note_on_c, 0, 68, 58
2, 452880, Note_on_c, 0, 68, 0
2, 452880, Note_on_c, 0, 66, 58
2, 453072, Note_on_c, 0, 66, 0
2, 453120, Note_on_c, 0, 66, 57
2, 453312, Note_on_c, 0, 66, 0
2, 453360, Note_on_c, 0, 68, 56
2, 453552, Note_on_c, 0, 68, 0
2, 453600, Note_on_c, 0, 69, 55
2, 453840, Note_on_c, 0, 69, 0
2, 453840, Note_on_c, 0, 73, 54
2, 454080, Note_on_c, 0, 73, 0
2, 454080, Note_on_c, 0, 71, 54
2, 454320, Note_on_c, 0, 71, 0
2, 454320, Note_on_c, 0, 66, 53
2, 454560, Note_on_c, 0, 66, 0
2, 454560, Note_on_c, 0, 68, 52
2, 455000, Note_on_c, 0, 78, 55
2, 455015, Note_on_c, 0, 68, 0
2, 455040, Note_on_c, 0, 78, 0
2, 455040, Note_on_c, 0, 76, 55
2, 455160, Note_on_c, 0, 76, 0
2, 455160, Note_on_c, 0, 75, 56
2, 455280, Note_on_c, 0, 75, 0
2, 455280, Note_on_c, 0, 76, 57
2, 455400, Note_on_c, 0, 76, 0
2, 455400, Note_on_c, 0, 78, 59
2, 455480, Note_on_c, 0, 81, 59
2, 455490, Note_on_c, 0, 78, 0
2, 455520, Note_on_c, 0, 81, 0
2, 455520, Note_on_c, 0, 80, 60
2, 455640, Note_on_c, 0, 80, 0
2, 455640, Note_on_c, 0, 78, 61
2, 455760, Note_on_c, 0, 78, 0
2, 455760, Note_on_c, 0, 80, 62
2, 455880, Note_on_c, 0, 80, 0
2, 455880, Note_on_c, 0, 81, 63
2, 456000, Note_on_c, 0, 81, 0
2, 456000, Note_on_c, 0, 83, 64
2, 456240, Note_on_c, 0, 83, 0
2, 456240, Note_on_c, 0, 81, 62
2, 456480, Note_on_c, 0, 81, 0
2, 456480, Note_on_c, 0, 80, 63
2, 456720, Note_on_c, 0, 80, 0
2, 456720, Note_on_c, 0, 78, 66
2, 456912, Note_on_c, 0, 78, 0
2, 456960, Note_on_c, 0, 78, 68
2, 457152, Note_on_c, 0, 78, 0
2, 457200, Note_on_c, 0, 80, 71
2, 457392, Note_on_c, 0, 80, 0
2, 457440, Note_on_c, 0, 81, 74
2, 457680, Note_on_c, 0, 81, 0
2, 457680, Note_on_c, 0, 85, 77
2, 457920, Note_on_c, 0, 85, 0
2, 457920, Note_on_c, 0, 83, 80
2, 458112, Note_on_c, 0, 83, 0
2, 458160, Note_on_c, 0, 87, 82
2, 458352, Note_on_c, 0, 87, 0
2, 458400, Note_on_c, 0, 88, 81
2, 458760, Note_on_c, 0, 88, 0
2, 459120, Note_on_c, 0, 68, 58
2, 459360, Note_on_c, 0, 68, 0
2, 459360, Note_on_c, 0, 69, 61
2, 459600, Note_on_c, 0, 69, 0
2, 459600, Note_on_c, 0, 73, 63
2, 459840, Note_on_c, 0, 73, 0
2, 459840, Note_on_c, 0, 71, 65
2, 460032, Note_on_c, 0, 71, 0
2, 460080, Note_on_c, 0, 75, 67
2, 460272, Note_on_c, 0, 75, 0
2, 460320, Note_on_c, 0, 76, 69
2, 461040, Note_on_c, 0, 76, 0
2, 461040, Note_on_c, 0, 79, 74
2, 461280, Note_on_c, 0, 79, 0
2, 461280, Note_on_c, 0, 81, 77
2, 461520, Note_on_c, 0, 81, 0
2, 461520, Note_on_c, 0, 84, 80
2, 461760, Note_on_c, 0, 84, 0
2, 461760, Note_on_c, 0, 83, 84
2, 461952, Note_on_c, 0, 83, 0
2, 462000, Note_on_c, 0, 87, 87
2, 462192, Note_on_c, 0, 87, 0
2, 462240, Note_on_c, 0, 88, 84
2, 462600, Note_on_c, 0, 88, 0
2, 462960, Note_on_c, 0, 67, 66
2, 463200, Note_on_c, 0, 67, 0
2, 463200, Note_on_c, 0, 69, 68
2, 463440, Note_on_c, 0, 69, 0
2, 463440, Note_on_c, 0, 72, 71
2, 463680, Note_on_c, 0, 72, 0
2, 463680, Note_on_c, 0, 71, 73
2, 463836, Note_on_c, 0, 71, 0
2, 463920, Note_on_c, 0, 75, 75
2, 464076, Note_on_c, 0, 75, 0
2, 464160, Note_on_c, 0, 76, 78
2, 464316, Note_on_c, 0, 76, 0
2, 464400, Note_on_c, 0, 79, 80
2, 464556, Note_on_c, 0, 79, 0
2, 464640, Note_on_c, 0, 84, 82
2, 464796, Note_on_c, 0, 84, 0
2, 464880, Note_on_c, 0, 84, 84
2, 465036, Note_on_c, 0, 84, 0
2, 465120, Note_on_c, 0, 84, 87
2, 465276, Note_on_c, 0, 84, 0
2, 465360, Note_on_c, 0, 84, 89
2, 465516, Note_on_c, 0, 84, 0
2, 465600, Note_on_c, 0, 89, 91
2, 465756, Note_on_c, 0, 89, 0
2, 465840, Note_on_c, 0, 89, 93
2, 465996, Note_on_c, 0, 89, 0
2, 466080, Note_on_c, 0, 89, 96
2, 466236, Note_on_c, 0, 89, 0
2, 466320, Note_on_c, 0, 89, 98
2, 466476, Note_on_c, 0, 89, 0
2, 466560, Note_on_c, 0, 89, 100
2, 466716, Note_on_c, 0, 89, 0
2, 466800, Note_on_c, 0, 89, 103
2, 466956, Note_on_c, 0, 89, 0
2, 467040, Note_on_c, 0, 89, 103
2, 469140, Note_on_c, 0, 89, 0
2, 469200, Note_on_c, 0, 89, 73
2, 469680, Note_on_c, 0, 89, 0
2, 469680, Note_on_c, 0, 88, 65
2, 469836, Note_on_c, 0, 88, 0
2, 469920, Note_on_c, 0, 86, 61
2, 470076, Note_on_c, 0, 86, 0
2, 470160, Note_on_c, 0, 81, 57
2, 470316, Note_on_c, 0, 81, 0
2, 470400, Note_on_c, 0, 79, 53
2, 470556, Note_on_c, 0, 79, 0
2, 470640, Note_on_c, 0, 79, 49
2, 470796, Note_on_c, 0, 79, 0
2, 470880, Note_on_c, 0, 79, 50
2, 471840, Note_on_c, 0, 79, 0
2, 471840, Note_on_c, 0, 77, 53
2, 472320, Note_on_c, 0, 77, 0
2, 472320, Note_on_c, 0, 76, 55
2, 472800, Note_on_c, 0, 76, 0
2, 472800, Note_on_c, 0, 74, 56
2, 473280, Note_on_c, 0, 74, 0
2, 473280, Note_on_c, 0, 72, 58
2, 474240, Note_on_c, 0, 72, 0
2, 474240, Note_on_c, 0, 71, 61
2, 474480, Note_on_c, 0, 79, 62
2, 474720, Note_on_c, 0, 79, 0
2, 474720, Note_on_c, 0, 71, 0
2, 474720, Note_on_c, 0, 79, 63
2, 475680, Note_on_c, 0, 79, 0
2, 475680, Note_on_c, 0, 77, 66
2, 476160, Note_on_c, 0, 77, 0
2, 476160, Note_on_c, 0, 75, 68
2, 476640, Note_on_c, 0, 75, 0
2, 476640, Note_on_c, 0, 74, 69
2, 477120, Note_on_c, 0, 74, 0
2, 477120, Note_on_c, 0, 72, 71
2, 478080, Note_on_c, 0, 72, 0
2, 478080, Note_on_c, 0, 72, 75
2, 478320, Note_on_c, 0, 80, 75
2, 478560, Note_on_c, 0, 80, 0
2, 478560, Note_on_c, 0, 80, 76
2, 478567, Note_on_c, 0, 72, 0
2, 479520, Note_on_c, 0, 80, 0
2, 479520, Note_on_c, 0, 78, 79
2, 480000, Note_on_c, 0, 78, 0
2, 480000, Note_on_c, 0, 76, 80
2, 480480, Note_on_c, 0, 76, 0
2, 480480, Note_on_c, 0, 75, 81
2, 480960, Note_on_c, 0, 75, 0
2, 480960, Note_on_c, 0, 73, 83
2, 481920, Note_on_c, 0, 73, 0
2, 481920, Note_on_c, 0, 72, 85
2, 482160, Note_on_c, 0, 80, 86
2, 482400, Note_on_c, 0, 80, 0
2, 482400, Note_on_c, 0, 72, 0
2, 482400, Note_on_c, 0, 80, 87
2, 482400, Note_on_c, 0, 77, 87
2, 483360, Note_on_c, 0, 77, 0
2, 483360, Note_on_c, 0, 80, 0
2, 483360, Note_on_c, 0, 78, 89
2, 483840, Note_on_c, 0, 78, 0
2, 483840, Note_on_c, 0, 77, 90
2, 484320, Note_on_c, 0, 77, 0
2, 484320, Note_on_c, 0, 75, 92
2, 484800, Note_on_c, 0, 75, 0
2, 484800, Note_on_c, 0, 73, 93
2, 485280, Note_on_c, 0, 73, 0
2, 485280, Note_on_c, 0, 72, 95
2, 485760, Note_on_c, 0, 72, 0
2, 485760, Note_on_c, 0, 73, 97
2, 486000, Note_on_c, 0, 81, 98
2, 486240, Note_on_c, 0, 81, 0
2, 486240, Note_on_c, 0, 73, 0
2, 486240, Note_on_c, 0, 81, 97
2, 488160, Note_on_c, 0, 81, 0
2, 488160, Note_on_c, 0, 87, 87
2, 490080, Note_on_c, 0, 87, 0
2, 490080, Note_on_c, 0, 90, 77
2, 492000, Note_on_c, 0, 90, 0
2, 492000, Note_on_c, 0, 78, 66
2, 492240, Note_on_c, 0, 69, 67
2, 492360, Note_on_c, 0, 69, 0
2, 492360, Note_on_c, 0, 72, 66
2, 492480, Note_on_c, 0, 72, 0
2, 492480, Note_on_c, 0, 71, 65
2, 492600, Note_on_c, 0, 71, 0
2, 492600, Note_on_c, 0, 70, 63
2, 492720, Note_on_c, 0, 70, 0
2, 492720, Note_on_c, 0, 71, 62
2, 492727, Note_on_c, 0, 78, 0
2, 492840, Note_on_c, 0, 71, 0
2, 492840, Note_on_c, 0, 68, 60
2, 492960, Note_on_c, 0, 68, 0
2, 492960, Note_on_c, 0, 78, 72
2, 493200, Note_on_c, 0, 69, 66
2, 493320, Note_on_c, 0, 69, 0
2, 493320, Note_on_c, 0, 72, 65
2, 493440, Note_on_c, 0, 72, 0
2, 493440, Note_on_c, 0, 71, 63
2, 493560, Note_on_c, 0, 71, 0
2, 493560, Note_on_c, 0, 70, 62
2, 493680, Note_on_c, 0, 70, 0
2, 493680, Note_on_c, 0, 71, 61
2, 493687, Note_on_c, 0, 78, 0
2, 493800, Note_on_c, 0, 71, 0
2, 493800, Note_on_c, 0, 68, 60
2, 493920, Note_on_c, 0, 68, 0
2, 493920, Note_on_c, 0, 78, 70
2, 494160, Note_on_c, 0, 69, 63
2, 494280, Note_on_c, 0, 69, 0
2, 494280, Note_on_c, 0, 72, 62
2, 494400, Note_on_c, 0, 72, 0
2, 494400, Note_on_c, 0, 71, 61
2, 494520, Note_on_c, 0, 71, 0
2, 494520, Note_on_c, 0, 70, 60
2, 494640, Note_on_c, 0, 70, 0
2, 494640, Note_on_c, 0, 78, 0
2, 494640, Note_on_c, 0, 71, 59
2, 494760, Note_on_c, 0, 71, 0
2, 494760, Note_on_c, 0, 68, 58
2, 494880, Note_on_c, 0, 68, 0
2, 494880, Note_on_c, 0, 68, 57
2, 495000, Note_on_c, 0, 68, 0
2, 495000, Note_on_c, 0, 66, 56
2, 495120, Note_on_c, 0, 66, 0
2, 495120, Note_on_c, 0, 68, 56
2, 495240, Note_on_c, 0, 68, 0
2, 495240, Note_on_c, 0, 66, 55
2, 495360, Note_on_c, 0, 66, 0
2, 495360, Note_on_c, 0, 64, 54
2, 495480, Note_on_c, 0, 64, 0
2, 495480, Note_on_c, 0, 63, 56
2, 495600, Note_on_c, 0, 63, 0
2, 495600, Note_on_c, 0, 64, 58
2, 495720, Note_on_c, 0, 64, 0
2, 495720, Note_on_c, 0, 66, 59
2, 495840, Note_on_c, 0, 66, 0
2, 495840, Note_on_c, 0, 68, 63
2, 496320, Note_on_c, 0, 68, 0
2, 496320, Note_on_c, 0, 71, 61
2, 496560, Note_on_c, 0, 71, 0
2, 496560, Note_on_c, 0, 69, 60
2, 496800, Note_on_c, 0, 69, 0
2, 496800, Note_on_c, 0, 68, 60
2, 497040, Note_on_c, 0, 68, 0
2, 497040, Note_on_c, 0, 66, 59
2, 497235, Note_on_c, 0, 66, 0
2, 497280, Note_on_c, 0, 66, 58
2, 497472, Note_on_c, 0, 66, 0
2, 497520, Note_on_c, 0, 68, 57
2, 497712, Note_on_c, 0, 68, 0
2, 497760, Note_on_c, 0, 69, 56
2, 498000, Note_on_c, 0, 69, 0
2, 498000, Note_on_c, 0, 73, 55
2, 498240, Note_on_c, 0, 73, 0
2, 498240, Note_on_c, 0, 71, 54
2, 498480, Note_on_c, 0, 71, 0
2, 498480, Note_on_c, 0, 66, 53
2, 498720, Note_on_c, 0, 66, 0
2, 498720, Note_on_c, 0, 68, 52
2, 499200, Note_on_c, 0, 68, 0
2, 499440, Note_on_c, 0, 76, 57
2, 499560, Note_on_c, 0, 76, 0
2, 499560, Note_on_c, 0, 78, 58
2, 499680, Note_on_c, 0, 78, 0
2, 499680, Note_on_c, 0, 80, 63
2, 500160, Note_on_c, 0, 80, 0
2, 500160, Note_on_c, 0, 83, 61
2, 500400, Note_on_c, 0, 83, 0
2, 500400, Note_on_c, 0, 81, 60
2, 500640, Note_on_c, 0, 81, 0
2, 500640, Note_on_c, 0, 80, 61
2, 500880, Note_on_c, 0, 80, 0
2, 500880, Note_on_c, 0, 78, 62
2, 501072, Note_on_c, 0, 78, 0
2, 501120, Note_on_c, 0, 78, 63
2, 501312, Note_on_c, 0, 78, 0
2, 501360, Note_on_c, 0, 80, 65
2, 501552, Note_on_c, 0, 80, 0
2, 501600, Note_on_c, 0, 81, 66
2, 501840, Note_on_c, 0, 81, 0
2, 501840, Note_on_c, 0, 85, 67
2, 502080, Note_on_c, 0, 85, 0
2, 502080, Note_on_c, 0, 83, 69
2, 502272, Note_on_c, 0, 83, 0
2, 502320, Note_on_c, 0, 87, 69
2, 502512, Note_on_c, 0, 87, 0
2, 502560, Note_on_c, 0, 88, 62
2, 502920, Note_on_c, 0, 88, 0
2, 503280, Note_on_c, 0, 71, 63
2, 503520, Note_on_c, 0, 71, 0
2, 503520, Note_on_c, 0, 70, 65
2, 504000, Note_on_c, 0, 70, 0
2, 504000, Note_on_c, 0, 76, 69
2, 504480, Note_on_c, 0, 76, 0
2, 504480, Note_on_c, 0, 75, 68
2, 505200, Note_on_c, 0, 75, 0
2, 505200, Note_on_c, 0, 69, 62
2, 505440, Note_on_c, 0, 69, 0
2, 505440, Note_on_c, 0, 68, 64
2, 505920, Note_on_c, 0, 68, 0
2, 505920, Note_on_c, 0, 74, 68
2, 506400, Note_on_c, 0, 74, 0
2, 506400, Note_on_c, 0, 73, 68
2, 507120, Note_on_c, 0, 73, 0
2, 507120, Note_on_c, 0, 73, 59
2, 507360, Note_on_c, 0, 73, 0
2, 507360, Note_on_c, 0, 72, 61
2, 507600, Note_on_c, 0, 72, 0
2, 507600, Note_on_c, 0, 73, 63
2, 507792, Note_on_c, 0, 73, 0
2, 507840, Note_on_c, 0, 69, 65
2, 508032, Note_on_c, 0, 69, 0
2, 508080, Note_on_c, 0, 68, 67
2, 508272, Note_on_c, 0, 68, 0
2, 508320, Note_on_c, 0, 68, 69
2, 508560, Note_on_c, 0, 68, 0
2, 508560, Note_on_c, 0, 66, 71
2, 509040, Note_on_c, 0, 66, 0
2, 509040, Note_on_c, 0, 66, 75
2, 509280, Note_on_c, 0, 66, 0
2, 509280, Note_on_c, 0, 66, 75
2, 509501, Note_on_c, 0, 66, 0
2, 509520, Note_on_c, 0, 71, 68
2, 509760, Note_on_c, 0, 71, 0
2, 509760, Note_on_c, 0, 70, 65
2, 510000, Note_on_c, 0, 70, 0
2, 510000, Note_on_c, 0, 71, 62
2, 510240, Note_on_c, 0, 71, 0
2, 510240, Note_on_c, 0, 64, 59
2, 510720, Note_on_c, 0, 64, 0
2, 510960, Note_on_c, 0, 83, 60
2, 511200, Note_on_c, 0, 83, 0
2, 511200, Note_on_c, 0, 82, 63
2, 511680, Note_on_c, 0, 82, 0
2, 511680, Note_on_c, 0, 88, 69
2, 512160, Note_on_c, 0, 88, 0
2, 512160, Note_on_c, 0, 87, 68
2, 512880, Note_on_c, 0, 87, 0
2, 512880, Note_on_c, 0, 81, 62
2, 513120, Note_on_c, 0, 81, 0
2, 513120, Note_on_c, 0, 80, 64
2, 513600, Note_on_c, 0, 80, 0
2, 513600, Note_on_c, 0, 86, 68
2, 514080, Note_on_c, 0, 86, 0
2, 514080, Note_on_c, 0, 85, 65
2, 514800, Note_on_c, 0, 85, 0
2, 514800, Note_on_c, 0, 85, 60
2, 515040, Note_on_c, 0, 85, 0
2, 515040, Note_on_c, 0, 84, 61
2, 515280, Note_on_c, 0, 84, 0
2, 515280, Note_on_c, 0, 85, 63
2, 515472, Note_on_c, 0, 85, 0
2, 515520, Note_on_c, 0, 81, 65
2, 515712, Note_on_c, 0, 81, 0
2, 515760, Note_on_c, 0, 80, 67
2, 515952, Note_on_c, 0, 80, 0
2, 516000, Note_on_c, 0, 80, 69
2, 516240, Note_on_c, 0, 80, 0
2, 516240, Note_on_c, 0, 78, 71
2, 516720, Note_on_c, 0, 78, 0
2, 516720, Note_on_c, 0, 78, 77
2, 516960, Note_on_c, 0, 78, 0
2, 516960, Note_on_c, 0, 78, 71
2, 517200, Note_on_c, 0, 78, 0
2, 517200, Note_on_c, 0, 83, 67
2, 517440, Note_on_c, 0, 83, 0
2, 517440, Note_on_c, 0, 82, 62
2, 517680, Note_on_c, 0, 82, 0
2, 517680, Note_on_c, 0, 83, 58
2, 517920, Note_on_c, 0, 83, 0
2, 517920, Note_on_c, 0, 76, 54
2, 518400, Note_on_c, 0, 76, 0
2, 518640, Note_on_c, 0, 64, 53
2, 518760, Note_on_c, 0, 64, 0
2, 518760, Note_on_c, 0, 66, 56
2, 518880, Note_on_c, 0, 66, 0
2, 518880, Note_on_c, 0, 68, 59
2, 519360, Note_on_c, 0, 68, 0
2, 519360, Note_on_c, 0, 71, 58
2, 519600, Note_on_c, 0, 71, 0
2, 519600, Note_on_c, 0, 69, 57
2, 519840, Note_on_c, 0, 69, 0
2, 519840, Note_on_c, 0, 68, 56
2, 520080, Note_on_c, 0, 68, 0
2, 520080, Note_on_c, 0, 66, 56
2, 520282, Note_on_c, 0, 66, 0
2, 520320, Note_on_c, 0, 66, 55
2, 520512, Note_on_c, 0, 66, 0
2, 520560, Note_on_c, 0, 68, 54
2, 520752, Note_on_c, 0, 68, 0
2, 520800, Note_on_c, 0, 69, 53
2, 521040, Note_on_c, 0, 69, 0
2, 521040, Note_on_c, 0, 73, 53
2, 521280, Note_on_c, 0, 73, 0
2, 521280, Note_on_c, 0, 71, 52
2, 521520, Note_on_c, 0, 71, 0
2, 521520, Note_on_c, 0, 66, 51
2, 521760, Note_on_c, 0, 66, 0
2, 521760, Note_on_c, 0, 68, 50
2, 522200, Note_on_c, 0, 78, 50
2, 522217, Note_on_c, 0, 68, 0
2, 522240, Note_on_c, 0, 78, 0
2, 522240, Note_on_c, 0, 76, 51
2, 522360, Note_on_c, 0, 76, 0
2, 522360, Note_on_c, 0, 75, 52
2, 522480, Note_on_c, 0, 75, 0
2, 522480, Note_on_c, 0, 76, 54
2, 522600, Note_on_c, 0, 76, 0
2, 522600, Note_on_c, 0, 78, 56
2, 522680, Note_on_c, 0, 81, 57
2, 522697, Note_on_c, 0, 78, 0
2, 522720, Note_on_c, 0, 81, 0
2, 522720, Note_on_c, 0, 80, 57
2, 522840, Note_on_c, 0, 80, 0
2, 522840, Note_on_c, 0, 78, 59
2, 522960, Note_on_c, 0, 78, 0
2, 522960, Note_on_c, 0, 80, 61
2, 523080, Note_on_c, 0, 80, 0
2, 523080, Note_on_c, 0, 81, 62
2, 523200, Note_on_c, 0, 81, 0
2, 523200, Note_on_c, 0, 83, 64
2, 523440, Note_on_c, 0, 83, 0
2, 523440, Note_on_c, 0, 81, 62
2, 523680, Note_on_c, 0, 81, 0
2, 523680, Note_on_c, 0, 80, 66
2, 523920, Note_on_c, 0, 80, 0
2, 523920, Note_on_c, 0, 78, 69
2, 524112, Note_on_c, 0, 78, 0
2, 524160, Note_on_c, 0, 78, 73
2, 524352, Note_on_c, 0, 78, 0
2, 524400, Note_on_c, 0, 80, 76
2, 524592, Note_on_c, 0, 80, 0
2, 524640, Note_on_c, 0, 81, 79
2, 524880, Note_on_c, 0, 81, 0
2, 524880, Note_on_c, 0, 85, 82
2, 525120, Note_on_c, 0, 85, 0
2, 525120, Note_on_c, 0, 83, 85
2, 525312, Note_on_c, 0, 83, 0
2, 525360, Note_on_c, 0, 87, 88
2, 525552, Note_on_c, 0, 87, 0
2, 525600, Note_on_c, 0, 88, 86
2, 525960, Note_on_c, 0, 88, 0
2, 526320, Note_on_c, 0, 68, 91
2, 526476, Note_on_c, 0, 68, 0
2, 526560, Note_on_c, 0, 68, 96
2, 526920, Note_on_c, 0, 68, 0
2, 527280, Note_on_c, 0, 76, 71
2, 527436, Note_on_c, 0, 76, 0
2, 527520, Note_on_c, 0, 75, 76
2, 527880, Note_on_c, 0, 75, 0
2, 528240, Note_on_c, 0, 68, 91
2, 528396, Note_on_c, 0, 68, 0
2, 528480, Note_on_c, 0, 68, 96
2, 528840, Note_on_c, 0, 68, 0
2, 529200, Note_on_c, 0, 74, 66
2, 529356, Note_on_c, 0, 74, 0
2, 529440, Note_on_c, 0, 73, 72
2, 529800, Note_on_c, 0, 73, 0
2, 530160, Note_on_c, 0, 61, 86
2, 530316, Note_on_c, 0, 61, 0
2, 530400, Note_on_c, 0, 61, 90
2, 530760, Note_on_c, 0, 61, 0
2, 531120, Note_on_c, 0, 71, 63
2, 531276, Note_on_c, 0, 71, 0
2, 531360, Note_on_c, 0, 69, 68
2, 531720, Note_on_c, 0, 69, 0
2, 532080, Note_on_c, 0, 81, 87
2, 532236, Note_on_c, 0, 81, 0
2, 532320, Note_on_c, 0, 81, 92
2, 532680, Note_on_c, 0, 81, 0
2, 533040, Note_on_c, 0, 69, 80
2, 533196, Note_on_c, 0, 69, 0
2, 533280, Note_on_c, 0, 69, 86
2, 533640, Note_on_c, 0, 69, 0
2, 534000, Note_on_c, 0, 81, 78
2, 534156, Note_on_c, 0, 81, 0
2, 534240, Note_on_c, 0, 81, 82
2, 534480, Note_on_c, 0, 81, 0
2, 535200, Note_on_c, 0, 90, 62
2, 535920, Note_on_c, 0, 90, 0
2, 535920, Note_on_c, 0, 88, 67
2, 536076, Note_on_c, 0, 88, 0
2, 536160, Note_on_c, 0, 88, 71
2, 536400, Note_on_c, 0, 88, 0
2, 536400, Note_on_c, 0, 87, 69
2, 536556, Note_on_c, 0, 87, 0
2, 536640, Note_on_c, 0, 87, 67
2, 536880, Note_on_c, 0, 87, 0
2, 536880, Note_on_c, 0, 88, 65
2, 537036, Note_on_c, 0, 88, 0
2, 537120, Note_on_c, 0, 90, 64
2, 537840, Note_on_c, 0, 90, 0
2, 537840, Note_on_c, 0, 88, 63
2, 538080, Note_on_c, 0, 88, 0
2, 538080, Note_on_c, 0, 87, 65
2, 538320, Note_on_c, 0, 87, 0
2, 538320, Note_on_c, 0, 90, 67
2, 538560, Note_on_c, 0, 90, 0
2, 538560, Note_on_c, 0, 88, 69
2, 538800, Note_on_c, 0, 88, 0
2, 538800, Note_on_c, 0, 87, 71
2, 539040, Note_on_c, 0, 87, 0
2, 539040, Note_on_c, 0, 88, 75
2, 539280, Note_on_c, 0, 88, 0
2, 539280, Note_on_c, 0, 87, 73
2, 539520, Note_on_c, 0, 87, 0
2, 539520, Note_on_c, 0, 85, 71
2, 539760, Note_on_c, 0, 85, 0
2, 539760, Note_on_c, 0, 83, 69
2, 540000, Note_on_c, 0, 83, 0
2, 540000, Note_on_c, 0, 85, 67
2, 540240, Note_on_c, 0, 85, 0
2, 540240, Note_on_c, 0, 83, 66
2, 540480, Note_on_c, 0, 83, 0
2, 540480, Note_on_c, 0, 81, 64
2, 540720, Note_on_c, 0, 81, 0
2, 540720, Note_on_c, 0, 80, 62
2, 540960, Note_on_c, 0, 80, 0
2, 540960, Note_on_c, 0, 80, 63
2, 541680, Note_on_c, 0, 80, 0
2, 541680, Note_on_c, 0, 81, 56
2, 541800, Note_on_c, 0, 81, 0
2, 541800, Note_on_c, 0, 83, 55
2, 541920, Note_on_c, 0, 83, 0
2, 541920, Note_on_c, 0, 78, 54
2, 542160, Note_on_c, 0, 78, 0
2, 542880, Note_on_c, 0, 81, 54
2, 543600, Note_on_c, 0, 81, 0
2, 543600, Note_on_c, 0, 80, 55
2, 543756, Note_on_c, 0, 80, 0
2, 543840, Note_on_c, 0, 80, 56
2, 544080, Note_on_c, 0, 80, 0
2, 544080, Note_on_c, 0, 78, 57
2, 544236, Note_on_c, 0, 78, 0
2, 544320, Note_on_c, 0, 78, 55
2, 544560, Note_on_c, 0, 78, 0
2, 544560, Note_on_c, 0, 80, 52
2, 544716, Note_on_c, 0, 80, 0
2, 544800, Note_on_c, 0, 81, 55
2, 545520, Note_on_c, 0, 81, 0
2, 545520, Note_on_c, 0, 80, 57
2, 545676, Note_on_c, 0, 80, 0
2, 545760, Note_on_c, 0, 78, 59
2, 546000, Note_on_c, 0, 78, 0
2, 546000, Note_on_c, 0, 85, 61
2, 546240, Note_on_c, 0, 85, 0
2, 546240, Note_on_c, 0, 83, 60
2, 546480, Note_on_c, 0, 83, 0
2, 546480, Note_on_c, 0, 81, 60
2, 546720, Note_on_c, 0, 81, 0
2, 546720, Note_on_c, 0, 80, 59
2, 546960, Note_on_c, 0, 80, 0
2, 546960, Note_on_c, 0, 83, 58
2, 547200, Note_on_c, 0, 83, 0
2, 547200, Note_on_c, 0, 81, 57
2, 547440, Note_on_c, 0, 81, 0
2, 547440, Note_on_c, 0, 80, 56
2, 547680, Note_on_c, 0, 80, 0
2, 547680, Note_on_c, 0, 78, 55
2, 547920, Note_on_c, 0, 78, 0
2, 547920, Note_on_c, 0, 81, 54
2, 548160, Note_on_c, 0, 81, 0
2, 548160, Note_on_c, 0, 80, 53
2, 548400, Note_on_c, 0, 80, 0
2, 548400, Note_on_c, 0, 78, 52
2, 548640, Note_on_c, 0, 78, 0
2, 548640, Note_on_c, 0, 76, 52
2, 548880, Note_on_c, 0, 76, 0
2, 548880, Note_on_c, 0, 74, 51
2, 549120, Note_on_c, 0, 74, 0
2, 549120, Note_on_c, 0, 73, 50
2, 549360, Note_on_c, 0, 73, 0
2, 549360, Note_on_c, 0, 73, 49
2, 549600, Note_on_c, 0, 73, 0
2, 549600, Note_on_c, 0, 73, 48
2, 549720, Note_on_c, 0, 73, 0
2, 549720, Note_on_c, 0, 73, 49
2, 549840, Note_on_c, 0, 73, 0
2, 549840, Note_on_c, 0, 75, 49
2, 549960, Note_on_c, 0, 75, 0
2, 549960, Note_on_c, 0, 77, 50
2, 550040, Note_on_c, 0, 80, 50
2, 550065, Note_on_c, 0, 77, 0
2, 550080, Note_on_c, 0, 80, 0
2, 550080, Note_on_c, 0, 78, 51
2, 550200, Note_on_c, 0, 78, 0
2, 550200, Note_on_c, 0, 77, 51
2, 550320, Note_on_c, 0, 77, 0
2, 550320, Note_on_c, 0, 78, 52
2, 550440, Note_on_c, 0, 78, 0
2, 550440, Note_on_c, 0, 80, 52
2, 550560, Note_on_c, 0, 80, 0
2, 550560, Note_on_c, 0, 81, 53
2, 550680, Note_on_c, 0, 81, 0
2, 550680, Note_on_c, 0, 77, 54
2, 550800, Note_on_c, 0, 77, 0
2, 550800, Note_on_c, 0, 78, 54
2, 550920, Note_on_c, 0, 78, 0
2, 550920, Note_on_c, 0, 80, 55
2, 551000, Note_on_c, 0, 83, 55
2, 551017, Note_on_c, 0, 80, 0
2, 551040, Note_on_c, 0, 83, 0
2, 551040, Note_on_c, 0, 81, 55
2, 551160, Note_on_c, 0, 81, 0
2, 551160, Note_on_c, 0, 80, 56
2, 551280, Note_on_c, 0, 80, 0
2, 551280, Note_on_c, 0, 81, 57
2, 551400, Note_on_c, 0, 81, 0
2, 551400, Note_on_c, 0, 83, 56
2, 551520, Note_on_c, 0, 83, 0
2, 551520, Note_on_c, 0, 85, 57
2, 551640, Note_on_c, 0, 85, 0
2, 551640, Note_on_c, 0, 83, 58
2, 551760, Note_on_c, 0, 83, 0
2, 551760, Note_on_c, 0, 81, 59
2, 551880, Note_on_c, 0, 81, 0
2, 551880, Note_on_c, 0, 80, 61
2, 552000, Note_on_c, 0, 80, 0
2, 552000, Note_on_c, 0, 81, 62
2, 552120, Note_on_c, 0, 81, 0
2, 552120, Note_on_c, 0, 80, 63
2, 552240, Note_on_c, 0, 80, 0
2, 552240, Note_on_c, 0, 78, 64
2, 552360, Note_on_c, 0, 78, 0
2, 552360, Note_on_c, 0, 85, 66
2, 552480, Note_on_c, 0, 85, 0
2, 552480, Note_on_c, 0, 80, 67
2, 552600, Note_on_c, 0, 80, 0
2, 552600, Note_on_c, 0, 78, 65
2, 552720, Note_on_c, 0, 78, 0
2, 552720, Note_on_c, 0, 76, 64
2, 552840, Note_on_c, 0, 76, 0
2, 552840, Note_on_c, 0, 83, 63
2, 552960, Note_on_c, 0, 83, 0
2, 552960, Note_on_c, 0, 78, 62
2, 553080, Note_on_c, 0, 78, 0
2, 553080, Note_on_c, 0, 76, 61
2, 553200, Note_on_c, 0, 76, 0
2, 553200, Note_on_c, 0, 75, 60
2, 553320, Note_on_c, 0, 75, 0
2, 553320, Note_on_c, 0, 83, 59
2, 553440, Note_on_c, 0, 83, 0
2, 553440, Note_on_c, 0, 83, 64
2, 554400, Note_on_c, 0, 83, 0
2, 554400, Note_on_c, 0, 81, 67
2, 554880, Note_on_c, 0, 81, 0
2, 554880, Note_on_c, 0, 80, 69
2, 555360, Note_on_c, 0, 80, 0
2, 555360, Note_on_c, 0, 78, 71
2, 555840, Note_on_c, 0, 78, 0
2, 555840, Note_on_c, 0, 76, 73
2, 556800, Note_on_c, 0, 76, 0
2, 557040, Note_on_c, 0, 83, 77
2, 557280, Note_on_c, 0, 83, 0
2, 557280, Note_on_c, 0, 83, 78
2, 558240, Note_on_c, 0, 83, 0
2, 558240, Note_on_c, 0, 81, 82
2, 558720, Note_on_c, 0, 81, 0
2, 558720, Note_on_c, 0, 80, 84
2, 559200, Note_on_c, 0, 80, 0
2, 559200, Note_on_c, 0, 78, 85
2, 559680, Note_on_c, 0, 78, 0
2, 559680, Note_on_c, 0, 76, 87
2, 560160, Note_on_c, 0, 76, 0
2, 560160, Control_c, 0, 64, 0
2, 560160, Note_on_c, 0, 76, 89
2, 560640, Note_on_c, 0, 76, 0
2, 560640, Note_on_c, 0, 86, 91
2, 561120, Note_on_c, 0, 86, 0
2, 561120, Note_on_c, 0, 86, 93
2, 563040, Control_c, 0, 64, 127
2, 563160, Note_on_c, 0, 65, 87
2, 563167, Note_on_c, 0, 86, 0
2, 563280, Note_on_c, 0, 65, 0
2, 563280, Note_on_c, 0, 71, 82
2, 563400, Note_on_c, 0, 71, 0
2, 563400, Note_on_c, 0, 74, 80
2, 563520, Note_on_c, 0, 74, 0
2, 563520, Note_on_c, 0, 77, 77
2, 563640, Note_on_c, 0, 77, 0
2, 563640, Note_on_c, 0, 83, 75
2, 563760, Note_on_c, 0, 83, 0
2, 563760, Note_on_c, 0, 86, 73
2, 563880, Note_on_c, 0, 86, 0
2, 563880, Note_on_c, 0, 83, 70
2, 564000, Note_on_c, 0, 83, 0
2, 564000, Note_on_c, 0, 89, 68
2, 564480, Note_on_c, 0, 89, 0
2, 564480, Control_c, 0, 64, 0
2, 564720, Note_on_c, 0, 76, 61
2, 564960, Note_on_c, 0, 76, 0
2, 564960, Note_on_c, 0, 77, 64
2, 565200, Note_on_c, 0, 77, 0
2, 565200, Note_on_c, 0, 80, 67
2, 565440, Note_on_c, 0, 80, 0
2, 565440, Note_on_c, 0, 79, 64
2, 565680, Note_on_c, 0, 79, 0
2, 565680, Note_on_c, 0, 74, 63
2, 565920, Note_on_c, 0, 74, 0
2, 565920, Note_on_c, 0, 76, 62
2, 566160, Note_on_c, 0, 76, 0
2, 566160, Note_on_c, 0, 77, 65
2, 566400, Note_on_c, 0, 77, 0
2, 566400, Note_on_c, 0, 76, 64
2, 566640, Note_on_c, 0, 76, 0
2, 566640, Note_on_c, 0, 71, 62
2, 566880, Note_on_c, 0, 71, 0
2, 566880, Note_on_c, 0, 72, 60
2, 567360, Note_on_c, 0, 72, 0
2, 567360, Note_on_c, 0, 73, 56
2, 567840, Note_on_c, 0, 73, 0
2, 567840, Note_on_c, 0, 74, 54
2, 568320, Note_on_c, 0, 74, 0
2, 568320, Note_on_c, 0, 81, 61
2, 569040, Note_on_c, 0, 81, 0
2, 569040, Note_on_c, 0, 82, 59
2, 569280, Note_on_c, 0, 82, 0
2, 569280, Note_on_c, 0, 81, 58
2, 569520, Note_on_c, 0, 81, 0
2, 569520, Note_on_c, 0, 77, 57
2, 569760, Note_on_c, 0, 77, 0
2, 569760, Note_on_c, 0, 82, 57
2, 570000, Note_on_c, 0, 82, 0
2, 570000, Note_on_c, 0, 77, 56
2, 570240, Note_on_c, 0, 77, 0
2, 570240, Note_on_c, 0, 77, 55
2, 570480, Note_on_c, 0, 77, 0
2, 570480, Note_on_c, 0, 73, 54
2, 570720, Note_on_c, 0, 73, 0
2, 570720, Note_on_c, 0, 78, 53
2, 570960, Note_on_c, 0, 78, 0
2, 570960, Note_on_c, 0, 73, 53
2, 571200, Note_on_c, 0, 73, 0
2, 571200, Note_on_c, 0, 73, 52
2, 571440, Note_on_c, 0, 73, 0
2, 571440, Note_on_c, 0, 70, 51
2, 571680, Note_on_c, 0, 70, 0
2, 571680, Note_on_c, 0, 82, 50
2, 571920, Note_on_c, 0, 82, 0
2, 571920, Note_on_c, 0, 78, 50
2, 572160, Note_on_c, 0, 78, 0
2, 572160, Note_on_c, 0, 78, 49
2, 572400, Note_on_c, 0, 78, 0
2, 572400, Note_on_c, 0, 73, 48
2, 572640, Note_on_c, 0, 73, 0
2, 572640, Note_on_c, 0, 85, 50
2, 572880, Note_on_c, 0, 85, 0
2, 572880, Note_on_c, 0, 81, 56
2, 573120, Note_on_c, 0, 81, 0
2, 573120, Note_on_c, 0, 81, 62
2, 573360, Note_on_c, 0, 81, 0
2, 573360, Note_on_c, 0, 78, 67
2, 573600, Note_on_c, 0, 78, 0
2, 573600, Note_on_c, 0, 84, 73
2, 573840, Note_on_c, 0, 84, 0
2, 573840, Note_on_c, 0, 78, 78
2, 574080, Note_on_c, 0, 78, 0
2, 574080, Note_on_c, 0, 83, 85
2, 574320, Note_on_c, 0, 83, 0
2, 574320, Note_on_c, 0, 78, 84
2, 574440, Note_on_c, 0, 78, 0
2, 575040, Note_on_c, 0, 75, 85
2, 575160, Note_on_c, 0, 75, 0
2, 575160, Note_on_c, 0, 83, 79
2, 575280, Note_on_c, 0, 75, 78
2, 575400, Note_on_c, 0, 75, 0
2, 575400, Note_on_c, 0, 76, 78
2, 575520, Note_on_c, 0, 76, 0
2, 575520, Note_on_c, 0, 78, 82
2, 575640, Note_on_c, 0, 78, 0
2, 575640, Note_on_c, 0, 83, 0
2, 575640, Note_on_c, 0, 83, 76
2, 575760, Note_on_c, 0, 78, 75
2, 575880, Note_on_c, 0, 78, 0
2, 575880, Note_on_c, 0, 80, 75
2, 576000, Note_on_c, 0, 80, 0
2, 576000, Note_on_c, 0, 81, 81
2, 576120, Note_on_c, 0, 81, 0
2, 576120, Note_on_c, 0, 83, 0
2, 576120, Note_on_c, 0, 83, 73
2, 576240, Note_on_c, 0, 81, 73
2, 576360, Note_on_c, 0, 81, 0
2, 576360, Note_on_c, 0, 80, 72
2, 576480, Note_on_c, 0, 80, 0
2, 576480, Note_on_c, 0, 78, 76
2, 576600, Note_on_c, 0, 78, 0
2, 576600, Note_on_c, 0, 83, 0
2, 576600, Note_on_c, 0, 83, 71
2, 576720, Note_on_c, 0, 78, 70
2, 576840, Note_on_c, 0, 78, 0
2, 576840, Note_on_c, 0, 76, 69
2, 576960, Note_on_c, 0, 76, 0
2, 576960, Note_on_c, 0, 75, 69
2, 577080, Note_on_c, 0, 75, 0
2, 577080, Note_on_c, 0, 83, 0
2, 577080, Note_on_c, 0, 83, 68
2, 577200, Note_on_c, 0, 75, 67
2, 577320, Note_on_c, 0, 75, 0
2, 577320, Note_on_c, 0, 76, 66
2, 577440, Note_on_c, 0, 76, 0
2, 577440, Note_on_c, 0, 78, 66
2, 577560, Note_on_c, 0, 78, 0
2, 577560, Note_on_c, 0, 83, 0
2, 577560, Note_on_c, 0, 83, 65
2, 577680, Note_on_c, 0, 78, 64
2, 577800, Note_on_c, 0, 78, 0
2, 577800, Note_on_c, 0, 80, 64
2, 577920, Note_on_c, 0, 80, 0
2, 577920, Note_on_c, 0, 81, 63
2, 578040, Note_on_c, 0, 81, 0
2, 578040, Note_on_c, 0, 83, 0
2, 578040, Note_on_c, 0, 83, 62
2, 578160, Note_on_c, 0, 81, 62
2, 578280, Note_on_c, 0, 81, 0
2, 578280, Note_on_c, 0, 80, 61
2, 578400, Note_on_c, 0, 80, 0
2, 578400, Note_on_c, 0, 78, 60
2, 578520, Note_on_c, 0, 78, 0
2, 578520, Note_on_c, 0, 83, 0
2, 578520, Note_on_c, 0, 83, 60
2, 578640, Note_on_c, 0, 78, 59
2, 578760, Note_on_c, 0, 78, 0
2, 578760, Note_on_c, 0, 76, 58
2, 578880, Note_on_c, 0, 76, 0
2, 578880, Note_on_c, 0, 75, 57
2, 579000, Note_on_c, 0, 75, 0
2, 579000, Note_on_c, 0, 83, 0
2, 579000, Note_on_c, 0, 83, 57
2, 579120, Note_on_c, 0, 75, 56
2, 579240, Note_on_c, 0, 75, 0
2, 579240, Note_on_c, 0, 76, 55
2, 579360, Note_on_c, 0, 76, 0
2, 579360, Note_on_c, 0, 78, 55
2, 579480, Note_on_c, 0, 78, 0
2, 579480, Note_on_c, 0, 83, 0
2, 579480, Note_on_c, 0, 83, 54
2, 579600, Note_on_c, 0, 78, 53
2, 579720, Note_on_c, 0, 78, 0
2, 579720, Note_on_c, 0, 80, 53
2, 579840, Note_on_c, 0, 80, 0
2, 579840, Note_on_c, 0, 81, 52
2, 579960, Note_on_c, 0, 81, 0
2, 579960, Note_on_c, 0, 83, 0
2, 579960, Note_on_c, 0, 83, 51
2, 580080, Note_on_c, 0, 81, 51
2, 580200, Note_on_c, 0, 81, 0
2, 580200, Note_on_c, 0, 80, 50
2, 580320, Note_on_c, 0, 80, 0
2, 580320, Note_on_c, 0, 78, 49
2, 580440, Note_on_c, 0, 78, 0
2, 580440, Note_on_c, 0, 83, 0
2, 580440, Note_on_c, 0, 83, 49
2, 580560, Note_on_c, 0, 78, 48
2, 580680, Note_on_c, 0, 78, 0
2, 580680, Note_on_c, 0, 76, 47
2, 580800, Note_on_c, 0, 76, 0
2, 580800, Note_on_c, 0, 75, 46
2, 580920, Note_on_c, 0, 75, 0
2, 580920, Note_on_c, 0, 83, 0
2, 580920, Note_on_c, 0, 76, 46
2, 581040, Note_on_c, 0, 76, 0
2, 581040, Note_on_c, 0, 75, 45
2, 581160, Note_on_c, 0, 75, 0
2, 581160, Note_on_c, 0, 73, 44
2, 581280, Note_on_c, 0, 73, 0
2, 581280, Note_on_c, 0, 71, 44
2, 581400, Note_on_c, 0, 71, 0
2, 581400, Note_on_c, 0, 73, 42
2, 581520, Note_on_c, 0, 73, 0
2, 581520, Note_on_c, 0, 63, 42
2, 581640, Note_on_c, 0, 63, 0
2, 581640, Note_on_c, 0, 64, 42
2, 581760, Note_on_c, 0, 64, 0
2, 581760, Note_on_c, 0, 66, 42
2, 581880, Note_on_c, 0, 66, 0
2, 581880, Note_on_c, 0, 69, 42
2, 582000, Note_on_c, 0, 69, 0
2, 582000, Note_on_c, 0, 68, 42
2, 582120, Note_on_c, 0, 68, 0
2, 582120, Note_on_c, 0, 66, 43
2, 582240, Note_on_c, 0, 66, 0
2, 582240, Note_on_c, 0, 68, 46
2, 582480, Note_on_c, 0, 68, 0
2, 582480, Note_on_c, 0, 59, 47
2, 582696, Note_on_c, 0, 59, 0
2, 582720, Note_on_c, 0, 68, 49
2, 582936, Note_on_c, 0, 68, 0
2, 582960, Note_on_c, 0, 66, 50
2, 583176, Note_on_c, 0, 66, 0
2, 583200, Note_on_c, 0, 64, 52
2, 583416, Note_on_c, 0, 64, 0
2, 583440, Note_on_c, 0, 63, 53
2, 583632, Note_on_c, 0, 63, 0
2, 583680, Note_on_c, 0, 63, 54
2, 583872, Note_on_c, 0, 63, 0
2, 583920, Note_on_c, 0, 65, 56
2, 584112, Note_on_c, 0, 65, 0
2, 584160, Note_on_c, 0, 66, 57
2, 584376, Note_on_c, 0, 66, 0
2, 584400, Note_on_c, 0, 69, 56
2, 584616, Note_on_c, 0, 69, 0
2, 584640, Note_on_c, 0, 68, 55
2, 584856, Note_on_c, 0, 68, 0
2, 584880, Note_on_c, 0, 71, 53
2, 585108, Note_on_c, 0, 71, 0
2, 585120, Note_on_c, 0, 71, 54
2, 585240, Note_on_c, 0, 76, 54
2, 585336, Note_on_c, 0, 71, 0
2, 585360, Note_on_c, 0, 76, 0
2, 585480, Note_on_c, 0, 78, 55
2, 585600, Note_on_c, 0, 78, 0
2, 585720, Note_on_c, 0, 79, 56
2, 585840, Note_on_c, 0, 79, 0
2, 585960, Note_on_c, 0, 80, 57
2, 586080, Note_on_c, 0, 80, 0
2, 586080, Note_on_c, 0, 80, 57
2, 586560, Note_on_c, 0, 80, 0
2, 586560, Note_on_c, 0, 83, 59
2, 586800, Note_on_c, 0, 83, 0
2, 586800, Note_on_c, 0, 81, 59
2, 587040, Note_on_c, 0, 81, 0
2, 587040, Note_on_c, 0, 80, 60
2, 587280, Note_on_c, 0, 80, 0
2, 587280, Note_on_c, 0, 78, 61
2, 587472, Note_on_c, 0, 78, 0
2, 587520, Note_on_c, 0, 78, 62
2, 587712, Note_on_c, 0, 78, 0
2, 587760, Note_on_c, 0, 80, 63
2, 587952, Note_on_c, 0, 80, 0
2, 588000, Note_on_c, 0, 81, 65
2, 588240, Note_on_c, 0, 81, 0
2, 588240, Note_on_c, 0, 85, 71
2, 588480, Note_on_c, 0, 85, 0
2, 588480, Note_on_c, 0, 83, 77
2, 588672, Note_on_c, 0, 83, 0
2, 588720, Note_on_c, 0, 87, 72
2, 588912, Note_on_c, 0, 87, 0
2, 588960, Control_c, 0, 64, 0
2, 588960, Note_on_c, 0, 88, 59
2, 589020, Control_c, 0, 64, 127
2, 589080, Note_on_c, 0, 88, 0
2, 589080, Note_on_c, 0, 76, 58
2, 589200, Note_on_c, 0, 76, 0
2, 589200, Note_on_c, 0, 71, 57
2, 589320, Note_on_c, 0, 71, 0
2, 589320, Note_on_c, 0, 68, 56
2, 589440, Note_on_c, 0, 68, 0
2, 589440, Note_on_c, 0, 71, 56
2, 589560, Note_on_c, 0, 71, 0
2, 589560, Note_on_c, 0, 68, 55
2, 589680, Note_on_c, 0, 68, 0
2, 589680, Control_c, 0, 64, 0
2, 589680, Note_on_c, 0, 66, 54
2, 589740, Control_c, 0, 64, 127
2, 589800, Note_on_c, 0, 66, 0
2, 589800, Note_on_c, 0, 75, 56
2, 589920, Note_on_c, 0, 75, 0
2, 589920, Control_c, 0, 64, 0
2, 589920, Note_on_c, 0, 66, 57
2, 589980, Control_c, 0, 64, 127
2, 590040, Note_on_c, 0, 66, 0
2, 590040, Note_on_c, 0, 76, 58
2, 590160, Note_on_c, 0, 76, 0
2, 590160, Note_on_c, 0, 73, 59
2, 590280, Note_on_c, 0, 73, 0
2, 590280, Note_on_c, 0, 66, 60
2, 590400, Note_on_c, 0, 66, 0
2, 590400, Control_c, 0, 64, 0
2, 590400, Note_on_c, 0, 66, 61
2, 590460, Control_c, 0, 64, 127
2, 590520, Note_on_c, 0, 66, 0
2, 590520, Note_on_c, 0, 78, 62
2, 590640, Note_on_c, 0, 78, 0
2, 590640, Note_on_c, 0, 73, 63
2, 590760, Note_on_c, 0, 73, 0
2, 590760, Note_on_c, 0, 66, 62
2, 590880, Note_on_c, 0, 66, 0
2, 590880, Control_c, 0, 64, 0
2, 590880, Note_on_c, 0, 66, 61
2, 590940, Control_c, 0, 64, 127
2, 591000, Note_on_c, 0, 66, 0
2, 591000, Note_on_c, 0, 75, 59
2, 591120, Note_on_c, 0, 75, 0
2, 591120, Note_on_c, 0, 71, 58
2, 591240, Note_on_c, 0, 71, 0
2, 591240, Note_on_c, 0, 66, 57
2, 591360, Note_on_c, 0, 66, 0
2, 591360, Control_c, 0, 64, 0
2, 591360, Note_on_c, 0, 63, 56
2, 591420, Control_c, 0, 64, 127
2, 591480, Note_on_c, 0, 63, 0
2, 591480, Note_on_c, 0, 71, 56
2, 591600, Note_on_c, 0, 71, 0
2, 591600, Control_c, 0, 64, 0
2, 591600, Note_on_c, 0, 64, 57
2, 591660, Control_c, 0, 64, 127
2, 591720, Note_on_c, 0, 64, 0
2, 591720, Note_on_c, 0, 69, 58
2, 591840, Note_on_c, 0, 69, 0
2, 591840, Control_c, 0, 64, 0
2, 591840, Note_on_c, 0, 64, 59
2, 591900, Control_c, 0, 64, 127
2, 591960, Note_on_c, 0, 71, 59
2, 592080, Note_on_c, 0, 71, 0
2, 592080, Note_on_c, 0, 68, 60
2, 592188, Note_on_c, 0, 64, 0
2, 592200, Note_on_c, 0, 68, 0
2, 592200, Note_on_c, 0, 64, 61
2, 592320, Note_on_c, 0, 64, 0
2, 592320, Note_on_c, 0, 64, 62
2, 592440, Note_on_c, 0, 76, 62
2, 592560, Note_on_c, 0, 76, 0
2, 592560, Note_on_c, 0, 71, 65
2, 592668, Note_on_c, 0, 64, 0
2, 592680, Note_on_c, 0, 71, 0
2, 592680, Note_on_c, 0, 64, 63
2, 592800, Note_on_c, 0, 64, 0
2, 592800, Control_c, 0, 64, 0
2, 592800, Note_on_c, 0, 64, 62
2, 592860, Control_c, 0, 64, 127
2, 592920, Note_on_c, 0, 76, 60
2, 593040, Note_on_c, 0, 76, 0
2, 593040, Note_on_c, 0, 73, 59
2, 593160, Note_on_c, 0, 73, 0
2, 593160, Note_on_c, 0, 69, 58
2, 593268, Note_on_c, 0, 64, 0
2, 593280, Note_on_c, 0, 69, 0
2, 593280, Control_c, 0, 64, 0
2, 593280, Note_on_c, 0, 64, 58
2, 593340, Control_c, 0, 64, 127
2, 593400, Note_on_c, 0, 76, 58
2, 593496, Note_on_c, 0, 64, 0
2, 593520, Note_on_c, 0, 76, 0
2, 593520, Note_on_c, 0, 64, 59
2, 593640, Note_on_c, 0, 76, 59
2, 593736, Note_on_c, 0, 64, 0
2, 593760, Note_on_c, 0, 76, 0
2, 593760, Note_on_c, 0, 64, 60
2, 593880, Note_on_c, 0, 76, 60
2, 593976, Note_on_c, 0, 64, 0
2, 594000, Note_on_c, 0, 76, 0
2, 594000, Note_on_c, 0, 64, 61
2, 594120, Note_on_c, 0, 76, 62
2, 594216, Note_on_c, 0, 64, 0
2, 594240, Note_on_c, 0, 76, 0
2, 594240, Note_on_c, 0, 64, 62
2, 594360, Note_on_c, 0, 76, 63
2, 594456, Note_on_c, 0, 64, 0
2, 594480, Note_on_c, 0, 76, 0
2, 594480, Note_on_c, 0, 64, 63
2, 594600, Note_on_c, 0, 76, 64
2, 594696, Note_on_c, 0, 64, 0
2, 594720, Note_on_c, 0, 76, 0
2, 594720, Note_on_c, 0, 64, 64
2, 594840, Note_on_c, 0, 76, 65
2, 594936, Note_on_c, 0, 64, 0
2, 594960, Note_on_c, 0, 76, 0
2, 594960, Note_on_c, 0, 64, 66
2, 595080, Note_on_c, 0, 76, 66
2, 595176, Note_on_c, 0, 64, 0
2, 595200, Note_on_c, 0, 76, 0
2, 595200, Note_on_c, 0, 64, 67
2, 595320, Note_on_c, 0, 76, 67
2, 595416, Note_on_c, 0, 64, 0
2, 595440, Note_on_c, 0, 76, 0
2, 595440, Note_on_c, 0, 64, 68
2, 595560, Note_on_c, 0, 76, 69
2, 595656, Note_on_c, 0, 64, 0
2, 595680, Note_on_c, 0, 76, 0
2, 595680, Control_c, 0, 64, 0
2, 595680, Note_on_c, 0, 63, 69
2, 595740, Control_c, 0, 64, 127
2, 595800, Note_on_c, 0, 75, 70
2, 595920, Note_on_c, 0, 75, 0
2, 595920, Note_on_c, 0, 71, 70
2, 596040, Note_on_c, 0, 71, 0
2, 596040, Note_on_c, 0, 66, 71
2, 596052, Note_on_c, 0, 63, 0
2, 596160, Note_on_c, 0, 66, 0
2, 596160, Note_on_c, 0, 66, 71
2, 596280, Note_on_c, 0, 78, 69
2, 596400, Note_on_c, 0, 78, 0
2, 596400, Note_on_c, 0, 75, 68
2, 596520, Note_on_c, 0, 75, 0
2, 596520, Note_on_c, 0, 66, 0
2, 596520, Note_on_c, 0, 69, 66
2, 596640, Note_on_c, 0, 69, 0
2, 596640, Control_c, 0, 64, 0
2, 596640, Note_on_c, 0, 68, 65
2, 597120, Note_on_c, 0, 68, 0
2, 597360, Note_on_c, 0, 83, 68
2, 597600, Note_on_c, 0, 83, 0
2, 597600, Note_on_c, 0, 82, 69
2, 598080, Note_on_c, 0, 82, 0
2, 598080, Note_on_c, 0, 88, 71
2, 598560, Note_on_c, 0, 88, 0
2, 598560, Note_on_c, 0, 87, 68
2, 599280, Note_on_c, 0, 87, 0
2, 599280, Note_on_c, 0, 81, 67
2, 599520, Note_on_c, 0, 81, 0
2, 599520, Note_on_c, 0, 80, 68
2, 600000, Note_on_c, 0, 80, 0
2, 600000, Note_on_c, 0, 86, 72
2, 600480, Note_on_c, 0, 86, 0
2, 600480, Note_on_c, 0, 85, 69
2, 601200, Note_on_c, 0, 85, 0
2, 601200, Note_on_c, 0, 85, 70
2, 601440, Note_on_c, 0, 85, 0
2, 601440, Note_on_c, 0, 84, 71
2, 601680, Note_on_c, 0, 84, 0
2, 601680, Note_on_c, 0, 85, 73
2, 601872, Note_on_c, 0, 85, 0
2, 601920, Note_on_c, 0, 81, 74
2, 602112, Note_on_c, 0, 81, 0
2, 602160, Note_on_c, 0, 80, 75
2, 602352, Note_on_c, 0, 80, 0
2, 602400, Note_on_c, 0, 80, 77
2, 602640, Note_on_c, 0, 80, 0
2, 602640, Note_on_c, 0, 78, 78
2, 603120, Note_on_c, 0, 78, 0
2, 603120, Note_on_c, 0, 78, 81
2, 603360, Note_on_c, 0, 78, 0
2, 603360, Note_on_c, 0, 78, 81
2, 603600, Note_on_c, 0, 78, 0
2, 603600, Note_on_c, 0, 83, 78
2, 603840, Note_on_c, 0, 83, 0
2, 603840, Note_on_c, 0, 82, 77
2, 604080, Note_on_c, 0, 82, 0
2, 604080, Note_on_c, 0, 83, 77
2, 604320, Note_on_c, 0, 83, 0
2, 604320, Note_on_c, 0, 76, 76
2, 604560, Note_on_c, 0, 76, 0
2, 604560, Note_on_c, 0, 83, 75
2, 604800, Note_on_c, 0, 83, 0
2, 604800, Note_on_c, 0, 82, 74
2, 605040, Note_on_c, 0, 82, 0
2, 605040, Note_on_c, 0, 83, 73
2, 605280, Note_on_c, 0, 83, 0
2, 605400, Note_on_c, 0, 75, 72
2, 605520, Note_on_c, 0, 75, 0
2, 605520, Note_on_c, 0, 83, 72
2, 605640, Note_on_c, 0, 83, 0
2, 605640, Note_on_c, 0, 81, 71
2, 605760, Note_on_c, 0, 81, 0
2, 605760, Note_on_c, 0, 78, 71
2, 605880, Note_on_c, 0, 78, 0
2, 605880, Note_on_c, 0, 75, 70
2, 606000, Note_on_c, 0, 75, 0
2, 606000, Note_on_c, 0, 71, 70
2, 606120, Note_on_c, 0, 71, 0
2, 606120, Note_on_c, 0, 69, 70
2, 606240, Note_on_c, 0, 69, 0
2, 606360, Note_on_c, 0, 68, 69
2, 606480, Note_on_c, 0, 68, 0
2, 606480, Note_on_c, 0, 83, 68
2, 606600, Note_on_c, 0, 83, 0
2, 606600, Note_on_c, 0, 80, 68
2, 606720, Note_on_c, 0, 80, 0
2, 606720, Note_on_c, 0, 76, 67
2, 606840, Note_on_c, 0, 76, 0
2, 606840, Note_on_c, 0, 71, 67
2, 606960, Note_on_c, 0, 71, 0
2, 606960, Note_on_c, 0, 69, 67
2, 607080, Note_on_c, 0, 69, 0
2, 607080, Note_on_c, 0, 68, 66
2, 607200, Note_on_c, 0, 68, 0
2, 607200, Note_on_c, 0, 78, 70
2, 607440, Note_on_c, 0, 78, 0
2, 607440, Note_on_c, 0, 83, 72
2, 607680, Note_on_c, 0, 83, 0
2, 607680, Note_on_c, 0, 82, 75
2, 607920, Note_on_c, 0, 82, 0
2, 607920, Note_on_c, 0, 83, 77
2, 608160, Note_on_c, 0, 83, 0
2, 608160, Note_on_c, 0, 77, 80
2, 608400, Note_on_c, 0, 77, 0
2, 608400, Note_on_c, 0, 86, 83
2, 608640, Note_on_c, 0, 86, 0
2, 608640, Note_on_c, 0, 85, 85
2, 608880, Note_on_c, 0, 85, 0
2, 608880, Note_on_c, 0, 86, 88
2, 609120, Note_on_c, 0, 86, 0
2, 609120, Note_on_c, 0, 85, 91
2, 609360, Note_on_c, 0, 85, 0
2, 609360, Note_on_c, 0, 78, 89
2, 609600, Note_on_c, 0, 78, 0
2, 609600, Note_on_c, 0, 81, 87
2, 609840, Note_on_c, 0, 81, 0
2, 609840, Note_on_c, 0, 73, 85
2, 610080, Note_on_c, 0, 73, 0
2, 610080, Note_on_c, 0, 78, 83
2, 610320, Note_on_c, 0, 78, 0
2, 610320, Note_on_c, 0, 73, 81
2, 610560, Note_on_c, 0, 73, 0
2, 610560, Note_on_c, 0, 76, 79
2, 610800, Note_on_c, 0, 76, 0
2, 610800, Note_on_c, 0, 66, 77
2, 611040, Note_on_c, 0, 66, 0
2, 611040, Note_on_c, 0, 71, 75
2, 611280, Note_on_c, 0, 71, 0
2, 611280, Note_on_c, 0, 68, 73
2, 611520, Note_on_c, 0, 68, 0
2, 611520, Note_on_c, 0, 71, 71
2, 611760, Note_on_c, 0, 71, 0
2, 611760, Note_on_c, 0, 64, 69
2, 612000, Note_on_c, 0, 64, 0
2, 612000, Note_on_c, 0, 63, 67
2, 612240, Note_on_c, 0, 63, 0
2, 612240, Note_on_c, 0, 71, 65
2, 612480, Note_on_c, 0, 71, 0
2, 612480, Note_on_c, 0, 66, 63
2, 612720, Note_on_c, 0, 66, 0
2, 612720, Note_on_c, 0, 71, 61
2, 612960, Note_on_c, 0, 71, 0
2, 612960, Control_c, 0, 64, 0
2, 613020, Control_c, 0, 64, 127
2, 613080, Note_on_c, 0, 62, 56
2, 613200, Note_on_c, 0, 62, 0
2, 613200, Note_on_c, 0, 68, 57
2, 613320, Note_on_c, 0, 68, 0
2, 613320, Note_on_c, 0, 65, 59
2, 613440, Note_on_c, 0, 65, 0
2, 613440, Control_c, 0, 64, 0
2, 613500, Control_c, 0, 64, 127
2, 613560, Note_on_c, 0, 61, 61
2, 613680, Note_on_c, 0, 61, 0
2, 613680, Note_on_c, 0, 69, 63
2, 613800, Note_on_c, 0, 69, 0
2, 613800, Note_on_c, 0, 66, 64
2, 613920, Note_on_c, 0, 66, 0
2, 613920, Control_c, 0, 64, 0
2, 613980, Control_c, 0, 64, 127
2, 614040, Note_on_c, 0, 71, 67
2, 614160, Note_on_c, 0, 71, 0
2, 614160, Note_on_c, 0, 83, 68
2, 614280, Note_on_c, 0, 83, 0
2, 614280, Note_on_c, 0, 80, 70
2, 614400, Note_on_c, 0, 80, 0
2, 614400, Control_c, 0, 64, 0
2, 614460, Control_c, 0, 64, 127
2, 614520, Note_on_c, 0, 73, 73
2, 614640, Note_on_c, 0, 73, 0
2, 614640, Note_on_c, 0, 85, 74
2, 614760, Note_on_c, 0, 85, 0
2, 614760, Note_on_c, 0, 81, 75
2, 614880, Note_on_c, 0, 81, 0
2, 614880, Control_c, 0, 64, 0
2, 614940, Control_c, 0, 64, 127
2, 615000, Note_on_c, 0, 74, 78
2, 615120, Note_on_c, 0, 74, 0
2, 615120, Note_on_c, 0, 86, 79
2, 615240, Note_on_c, 0, 86, 0
2, 615240, Note_on_c, 0, 83, 81
2, 615360, Note_on_c, 0, 83, 0
2, 615360, Control_c, 0, 64, 0
2, 615420, Control_c, 0, 64, 127
2, 615480, Note_on_c, 0, 73, 84
2, 615600, Note_on_c, 0, 73, 0
2, 615600, Note_on_c, 0, 85, 85
2, 615720, Note_on_c, 0, 85, 0
2, 615720, Note_on_c, 0, 83, 86
2, 615840, Note_on_c, 0, 83, 0
2, 615960, Control_c, 0, 64, 0
2, 617760, Note_on_c, 0, 78, 63
2, 618000, Note_on_c, 0, 78, 0
2, 618000, Note_on_c, 0, 85, 67
2, 618240, Note_on_c, 0, 85, 0
2, 618240, Note_on_c, 0, 83, 65
2, 618480, Note_on_c, 0, 83, 0
2, 618480, Note_on_c, 0, 78, 63
2, 618720, Note_on_c, 0, 78, 0
2, 618720, Note_on_c, 0, 81, 62
2, 619920, Note_on_c, 0, 81, 0
2, 619920, Note_on_c, 0, 81, 65
2, 620160, Note_on_c, 0, 81, 0
2, 620160, Note_on_c, 0, 80, 63
2, 620400, Note_on_c, 0, 80, 0
2, 620400, Note_on_c, 0, 76, 61
2, 620640, Note_on_c, 0, 76, 0
2, 620640, Note_on_c, 0, 80, 59
2, 621840, Note_on_c, 0, 80, 0
2, 621840, Note_on_c, 0, 80, 58
2, 622080, Note_on_c, 0, 80, 0
2, 622080, Note_on_c, 0, 78, 58
2, 622320, Note_on_c, 0, 78, 0
2, 622320, Note_on_c, 0, 75, 57
2, 622560, Note_on_c, 0, 75, 0
2, 622560, Note_on_c, 0, 78, 57
2, 622752, Note_on_c, 0, 78, 0
2, 622800, Note_on_c, 0, 78, 57
2, 623040, Note_on_c, 0, 78, 0
2, 623040, Note_on_c, 0, 76, 56
2, 623280, Note_on_c, 0, 76, 0
2, 623280, Note_on_c, 0, 73, 56
2, 623520, Note_on_c, 0, 73, 0
2, 623520, Note_on_c, 0, 76, 55
2, 623712, Note_on_c, 0, 76, 0
2, 623760, Note_on_c, 0, 76, 55
2, 624000, Note_on_c, 0, 76, 0
2, 624000, Note_on_c, 0, 75, 54
2, 624240, Note_on_c, 0, 75, 0
2, 624240, Note_on_c, 0, 71, 54
2, 624480, Note_on_c, 0, 71, 0
2, 624480, Note_on_c, 0, 74, 53
2, 624672, Note_on_c, 0, 74, 0
2, 624720, Note_on_c, 0, 74, 53
2, 624960, Note_on_c, 0, 74, 0
2, 624960, Note_on_c, 0, 73, 53
2, 625200, Note_on_c, 0, 73, 0
2, 625200, Note_on_c, 0, 72, 52
2, 625440, Note_on_c, 0, 72, 0
2, 625440, Note_on_c, 0, 71, 53
2, 625632, Note_on_c, 0, 71, 0
2, 625680, Note_on_c, 0, 71, 57
2, 625920, Note_on_c, 0, 71, 0
2, 625920, Note_on_c, 0, 69, 62
2, 626040, Note_on_c, 0, 69, 0
2, 626040, Note_on_c, 0, 66, 64
2, 626160, Note_on_c, 0, 66, 0
2, 626160, Note_on_c, 0, 64, 66
2, 626280, Note_on_c, 0, 64, 0
2, 626280, Note_on_c, 0, 66, 69
2, 626400, Note_on_c, 0, 66, 0
2, 626400, Note_on_c, 0, 68, 63
2, 626880, Note_on_c, 0, 68, 0
2, 626880, Note_on_c, 0, 71, 62
2, 627120, Note_on_c, 0, 71, 0
2, 627120, Note_on_c, 0, 69, 61
2, 627360, Note_on_c, 0, 69, 0
2, 627360, Note_on_c, 0, 68, 60
2, 627600, Note_on_c, 0, 68, 0
2, 627600, Note_on_c, 0, 66, 59
2, 627792, Note_on_c, 0, 66, 0
2, 627840, Note_on_c, 0, 66, 58
2, 628032, Note_on_c, 0, 66, 0
2, 628080, Note_on_c, 0, 68, 57
2, 628272, Note_on_c, 0, 68, 0
2, 628320, Note_on_c, 0, 69, 56
2, 628560, Note_on_c, 0, 69, 0
2, 628560, Note_on_c, 0, 73, 55
2, 628800, Note_on_c, 0, 73, 0
2, 628800, Note_on_c, 0, 71, 55
2, 629040, Note_on_c, 0, 71, 0
2, 629040, Note_on_c, 0, 66, 54
2, 629280, Note_on_c, 0, 66, 0
2, 629280, Note_on_c, 0, 68, 53
2, 629760, Note_on_c, 0, 68, 0
2, 630000, Note_on_c, 0, 68, 55
2, 630192, Note_on_c, 0, 68, 0
2, 630240, Note_on_c, 0, 69, 57
2, 630480, Note_on_c, 0, 69, 0
2, 630480, Note_on_c, 0, 73, 57
2, 630720, Note_on_c, 0, 73, 0
2, 630720, Note_on_c, 0, 71, 56
2, 630960, Note_on_c, 0, 71, 0
2, 630960, Note_on_c, 0, 66, 55
2, 631200, Note_on_c, 0, 66, 0
2, 631200, Note_on_c, 0, 68, 54
2, 631680, Note_on_c, 0, 68, 0
2, 631920, Note_on_c, 0, 80, 51
2, 632160, Note_on_c, 0, 80, 0
2, 632160, Note_on_c, 0, 81, 57
2, 632400, Note_on_c, 0, 81, 0
2, 632400, Note_on_c, 0, 85, 56
2, 632640, Note_on_c, 0, 85, 0
2, 632640, Note_on_c, 0, 83, 54
2, 632880, Note_on_c, 0, 83, 0
2, 632880, Note_on_c, 0, 87, 53
2, 633120, Note_on_c, 0, 87, 0
2, 633120, Note_on_c, 0, 88, 52
2, 633600, Note_on_c, 0, 88, 0
2, 634320, Note_on_c, 0, 57, 54
2, 634560, Note_on_c, 0, 57, 0
2, 634800, Note_on_c, 0, 68, 51
2, 635040, Note_on_c, 0, 68, 0
2, 635280, Note_on_c, 0, 78, 51
2, 635520, Note_on_c, 0, 78, 0
2, 635520, Note_on_c, 0, 76, 53
2, 635760, Note_on_c, 0, 76, 0
2, 635760, Note_on_c, 0, 85, 55
2, 636000, Note_on_c, 0, 85, 0
2, 636000, Note_on_c, 0, 85, 55
2, 636120, Note_on_c, 0, 85, 0
2, 636120, Note_on_c, 0, 83, 56
2, 636240, Note_on_c, 0, 83, 0
2, 636240, Note_on_c, 0, 80, 57
2, 636360, Note_on_c, 0, 80, 0
2, 636360, Note_on_c, 0, 76, 58
2, 636480, Note_on_c, 0, 76, 0
2, 636480, Note_on_c, 0, 75, 59
2, 636600, Note_on_c, 0, 75, 0
2, 636600, Note_on_c, 0, 73, 60
2, 636720, Note_on_c, 0, 73, 0
2, 636720, Note_on_c, 0, 71, 61
2, 636840, Note_on_c, 0, 71, 0
2, 636840, Note_on_c, 0, 69, 62
2, 636960, Note_on_c, 0, 69, 0
2, 636960, Note_on_c, 0, 68, 64
2, 637080, Note_on_c, 0, 68, 0
2, 637080, Note_on_c, 0, 66, 65
2, 637200, Note_on_c, 0, 66, 0
2, 637200, Note_on_c, 0, 64, 66
2, 637320, Note_on_c, 0, 64, 0
2, 637320, Note_on_c, 0, 76, 68
2, 637440, Note_on_c, 0, 76, 0
2, 637440, Note_on_c, 0, 75, 69
2, 637560, Note_on_c, 0, 75, 0
2, 637560, Note_on_c, 0, 73, 71
2, 637680, Note_on_c, 0, 73, 0
2, 637680, Note_on_c, 0, 85, 72
2, 637800, Note_on_c, 0, 85, 0
2, 637800, Note_on_c, 0, 83, 74
2, 637920, Note_on_c, 0, 83, 0
2, 637920, Note_on_c, 0, 83, 76
2, 638040, Note_on_c, 0, 83, 0
2, 638040, Note_on_c, 0, 82, 78
2, 638160, Note_on_c, 0, 82, 0
2, 638160, Note_on_c, 0, 93, 80
2, 638280, Note_on_c, 0, 93, 0
2, 638280, Note_on_c, 0, 92, 82
2, 638400, Note_on_c, 0, 92, 0
2, 638400, Note_on_c, 0, 92, 84
2, 638520, Note_on_c, 0, 92, 0
2, 638520, Note_on_c, 0, 90, 86
2, 638640, Note_on_c, 0, 90, 0
2, 638640, Note_on_c, 0, 93, 88
2, 638760, Note_on_c, 0, 93, 0
2, 638760, Note_on_c, 0, 90, 90
2, 638880, Note_on_c, 0, 90, 0
2, 638880, Note_on_c, 0, 88, 92
2, 639000, Note_on_c, 0, 88, 0
2, 639000, Note_on_c, 0, 87, 94
2, 639120, Note_on_c, 0, 87, 0
2, 639120, Note_on_c, 0, 90, 97
2, 639240, Note_on_c, 0, 90, 0
2, 639240, Note_on_c, 0, 81, 94
2, 639360, Note_on_c, 0, 81, 0
2, 639360, Note_on_c, 0, 81, 77
2, 639480, Note_on_c, 0, 81, 0
2, 639480, Note_on_c, 0, 80, 74
2, 639600, Note_on_c, 0, 80, 0
2, 639600, Note_on_c, 0, 88, 72
2, 639720, Note_on_c, 0, 88, 0
2, 639720, Note_on_c, 0, 80, 70
2, 639840, Note_on_c, 0, 80, 0
2, 639840, Note_on_c, 0, 78, 68
2, 639960, Note_on_c, 0, 78, 0
2, 639960, Note_on_c, 0, 85, 65
2, 640080, Note_on_c, 0, 85, 0
2, 640080, Note_on_c, 0, 83, 63
2, 640200, Note_on_c, 0, 83, 0
2, 640200, Note_on_c, 0, 75, 61
2, 640320, Note_on_c, 0, 75, 0
2, 640320, Note_on_c, 0, 76, 59
2, 640560, Note_on_c, 0, 76, 0
2, 640560, End_track
3, 0, Start_track
3, 0, Title_t, "Piano Sonata No-27"
3, 0, Control_c, 0, 0, 0
3, 0, Control_c, 0, 7, 115
3, 0, Control_c, 0, 10, 73
3, 0, Control_c, 0, 91, 91
3, 0, Control_c, 0, 93, 28
3, 0, Control_c, 0, 64, 0
3, 0, Control_c, 0, 1, 0
3, 0, Pitch_bend_c, 0, 8192
3, 1, Control_c, 0, 32, 0
3, 1, Program_c, 0, 0
3, 960, Note_on_c, 0, 55, 86
3, 960, Note_on_c, 0, 59, 86
3, 960, Note_on_c, 0, 64, 86
3, 1200, Note_on_c, 0, 64, 0
3, 1200, Note_on_c, 0, 59, 0
3, 1200, Note_on_c, 0, 55, 0
3, 1440, Note_on_c, 0, 59, 98
3, 1440, Note_on_c, 0, 64, 98
3, 1440, Note_on_c, 0, 55, 98
3, 2400, Note_on_c, 0, 55, 0
3, 2400, Note_on_c, 0, 64, 0
3, 2400, Note_on_c, 0, 59, 0
3, 2400, Note_on_c, 0, 55, 86
3, 2640, Note_on_c, 0, 55, 0
3, 2880, Note_on_c, 0, 66, 81
3, 2880, Note_on_c, 0, 57, 81
3, 3240, Note_on_c, 0, 57, 0
3, 3240, Note_on_c, 0, 66, 0
3, 3840, Note_on_c, 0, 66, 61
3, 4320, Note_on_c, 0, 66, 0
3, 4320, Note_on_c, 0, 66, 67
3, 5040, Note_on_c, 0, 66, 0
3, 5280, Note_on_c, 0, 66, 57
3, 5640, Note_on_c, 0, 66, 0
3, 5760, Note_on_c, 0, 67, 52
3, 6120, Note_on_c, 0, 67, 0
3, 6720, Note_on_c, 0, 67, 82
3, 6720, Note_on_c, 0, 62, 82
3, 6720, Note_on_c, 0, 59, 82
3, 6960, Note_on_c, 0, 59, 0
3, 6960, Note_on_c, 0, 62, 0
3, 6960, Note_on_c, 0, 67, 0
3, 7200, Note_on_c, 0, 67, 94
3, 7200, Note_on_c, 0, 62, 94
3, 7200, Note_on_c, 0, 59, 94
3, 8160, Note_on_c, 0, 59, 0
3, 8160, Note_on_c, 0, 62, 0
3, 8160, Note_on_c, 0, 67, 0
3, 8160, Note_on_c, 0, 59, 83
3, 8400, Note_on_c, 0, 59, 0
3, 8640, Note_on_c, 0, 70, 79
3, 8640, Note_on_c, 0, 61, 79
3, 9000, Note_on_c, 0, 61, 0
3, 9000, Note_on_c, 0, 70, 0
3, 9600, Note_on_c, 0, 70, 55
3, 10080, Note_on_c, 0, 70, 0
3, 10080, Note_on_c, 0, 70, 60
3, 10800, Note_on_c, 0, 70, 0
3, 11040, Note_on_c, 0, 70, 51
3, 11400, Note_on_c, 0, 70, 0
3, 11520, Note_on_c, 0, 71, 47
3, 11880, Note_on_c, 0, 71, 0
3, 25440, Note_on_c, 0, 76, 65
3, 26640, Note_on_c, 0, 76, 0
3, 26640, Note_on_c, 0, 75, 60
3, 26880, Note_on_c, 0, 75, 0
3, 26880, Note_on_c, 0, 76, 59
3, 27120, Note_on_c, 0, 76, 0
3, 27360, Note_on_c, 0, 64, 54
3, 27360, Note_on_c, 0, 60, 54
3, 28320, Note_on_c, 0, 60, 0
3, 28320, Note_on_c, 0, 64, 0
3, 28320, Note_on_c, 0, 64, 60
3, 28320, Note_on_c, 0, 61, 60
3, 28800, Note_on_c, 0, 61, 0
3, 28800, Note_on_c, 0, 64, 0
3, 28800, Note_on_c, 0, 57, 63
3, 28800, Note_on_c, 0, 63, 63
3, 30240, Note_on_c, 0, 63, 0
3, 30240, Note_on_c, 0, 57, 0
3, 31200, Note_on_c, 0, 76, 74
3, 32362, Note_on_c, 0, 76, 0
3, 32400, Note_on_c, 0, 75, 65
3, 32640, Note_on_c, 0, 75, 0
3, 32640, Note_on_c, 0, 76, 68
3, 32880, Note_on_c, 0, 76, 0
3, 33120, Note_on_c, 0, 64, 76
3, 33120, Note_on_c, 0, 60, 76
3, 34080, Note_on_c, 0, 60, 0
3, 34080, Note_on_c, 0, 64, 0
3, 34080, Note_on_c, 0, 64, 66
3, 34080, Note_on_c, 0, 61, 66
3, 34560, Note_on_c, 0, 61, 0
3, 34560, Note_on_c, 0, 64, 0
3, 34560, Note_on_c, 0, 57, 69
3, 34560, Note_on_c, 0, 63, 69
3, 36000, Note_on_c, 0, 63, 0
3, 36000, Note_on_c, 0, 57, 0
3, 36000, Note_on_c, 0, 55, 61
3, 36480, Note_on_c, 0, 55, 0
3, 38400, Note_on_c, 0, 59, 43
3, 38640, Note_on_c, 0, 59, 0
3, 38880, Note_on_c, 0, 59, 46
3, 39840, Note_on_c, 0, 59, 0
3, 39840, Note_on_c, 0, 64, 51
3, 40080, Note_on_c, 0, 64, 0
3, 40320, Note_on_c, 0, 64, 54
3, 41280, Note_on_c, 0, 64, 0
3, 41280, Note_on_c, 0, 71, 59
3, 41520, Note_on_c, 0, 71, 0
3, 41760, Note_on_c, 0, 71, 62
3, 42720, Note_on_c, 0, 71, 0
3, 42720, Note_on_c, 0, 76, 68
3, 42960, Note_on_c, 0, 76, 0
3, 43200, Note_on_c, 0, 76, 71
3, 44160, Note_on_c, 0, 76, 0
3, 44160, Note_on_c, 0, 86, 81
3, 44160, Note_on_c, 0, 83, 81
3, 44160, Note_on_c, 0, 77, 81
3, 44400, Note_on_c, 0, 77, 0
3, 44400, Note_on_c, 0, 83, 0
3, 44400, Note_on_c, 0, 86, 0
3, 44640, Control_c, 0, 64, 127
3, 44640, Note_on_c, 0, 86, 89
3, 44640, Note_on_c, 0, 83, 89
3, 44640, Note_on_c, 0, 77, 89
3, 45360, Note_on_c, 0, 77, 0
3, 45360, Note_on_c, 0, 83, 0
3, 45360, Note_on_c, 0, 86, 0
3, 47760, Control_c, 0, 64, 0
3, 48480, Note_on_c, 0, 62, 72
3, 48480, Note_on_c, 0, 55, 72
3, 48720, Note_on_c, 0, 55, 0
3, 48720, Note_on_c, 0, 62, 0
3, 48960, Note_on_c, 0, 60, 70
3, 48960, Note_on_c, 0, 55, 70
3, 49200, Note_on_c, 0, 55, 0
3, 49200, Note_on_c, 0, 60, 0
3, 49920, Control_c, 0, 64, 127
3, 49920, Note_on_c, 0, 83, 78
3, 49920, Note_on_c, 0, 80, 78
3, 49920, Note_on_c, 0, 74, 78
3, 50160, Note_on_c, 0, 74, 0
3, 50160, Note_on_c, 0, 80, 0
3, 50160, Note_on_c, 0, 83, 0
3, 50400, Note_on_c, 0, 80, 92
3, 50400, Note_on_c, 0, 83, 92
3, 50400, Note_on_c, 0, 74, 92
3, 51120, Note_on_c, 0, 74, 0
3, 51120, Note_on_c, 0, 80, 0
3, 51360, Note_on_c, 0, 83, 0
3, 53520, Control_c, 0, 64, 0
3, 54240, Note_on_c, 0, 59, 69
3, 54240, Note_on_c, 0, 52, 69
3, 54480, Note_on_c, 0, 52, 0
3, 54480, Note_on_c, 0, 59, 0
3, 54720, Note_on_c, 0, 52, 66
3, 54720, Note_on_c, 0, 57, 66
3, 54960, Note_on_c, 0, 57, 0
3, 54960, Note_on_c, 0, 52, 0
3, 62880, Note_on_c, 0, 67, 64
3, 63120, Note_on_c, 0, 67, 0
3, 63360, Note_on_c, 0, 67, 66
3, 64320, Note_on_c, 0, 67, 0
3, 64320, Note_on_c, 0, 67, 71
3, 64320, Note_on_c, 0, 73, 70
3, 64320, Note_on_c, 0, 76, 70
3, 64560, Note_on_c, 0, 76, 0
3, 64560, Note_on_c, 0, 73, 0
3, 64560, Note_on_c, 0, 67, 0
3, 64800, Note_on_c, 0, 67, 73
3, 64800, Note_on_c, 0, 73, 72
3, 64800, Note_on_c, 0, 76, 72
3, 65760, Note_on_c, 0, 67, 0
3, 65760, Note_on_c, 0, 66, 76
3, 66240, Note_on_c, 0, 66, 0
3, 66240, Note_on_c, 0, 65, 79
3, 67200, Note_on_c, 0, 65, 0
3, 67200, Note_on_c, 0, 76, 0
3, 67200, Note_on_c, 0, 73, 0
3, 67200, Note_on_c, 0, 66, 81
3, 67200, Note_on_c, 0, 73, 82
3, 67200, Note_on_c, 0, 76, 82
3, 67680, Note_on_c, 0, 76, 0
3, 67680, Note_on_c, 0, 73, 0
3, 67680, Note_on_c, 0, 66, 0
3, 67680, Note_on_c, 0, 74, 84
3, 67680, Note_on_c, 0, 71, 84
3, 69120, Note_on_c, 0, 71, 0
3, 69120, Note_on_c, 0, 74, 0
3, 69120, Note_on_c, 0, 71, 90
3, 69120, Note_on_c, 0, 78, 90
3, 70560, Note_on_c, 0, 78, 0
3, 70560, Note_on_c, 0, 71, 0
3, 70560, Note_on_c, 0, 66, 92
3, 70752, Note_on_c, 0, 66, 0
3, 71040, Note_on_c, 0, 60, 93
3, 71232, Note_on_c, 0, 60, 0
3, 72000, Note_on_c, 0, 67, 95
3, 72192, Note_on_c, 0, 67, 0
3, 72480, Note_on_c, 0, 63, 96
3, 72672, Note_on_c, 0, 63, 0
3, 73440, Note_on_c, 0, 69, 98
3, 73632, Note_on_c, 0, 69, 0
3, 73920, Note_on_c, 0, 64, 99
3, 74112, Note_on_c, 0, 64, 0
3, 74880, Note_on_c, 0, 71, 100
3, 75072, Note_on_c, 0, 71, 0
3, 75360, Note_on_c, 0, 65, 101
3, 75552, Note_on_c, 0, 65, 0
3, 76320, Note_on_c, 0, 71, 66
3, 76320, Note_on_c, 0, 68, 66
3, 76560, Note_on_c, 0, 68, 0
3, 76560, Note_on_c, 0, 71, 0
3, 76560, Note_on_c, 0, 68, 60
3, 76560, Note_on_c, 0, 71, 60
3, 76800, Note_on_c, 0, 71, 0
3, 76800, Note_on_c, 0, 68, 0
3, 76800, Note_on_c, 0, 68, 62
3, 76800, Note_on_c, 0, 71, 62
3, 77040, Note_on_c, 0, 71, 0
3, 77040, Note_on_c, 0, 68, 0
3, 77040, Note_on_c, 0, 68, 65
3, 77040, Note_on_c, 0, 71, 65
3, 77280, Note_on_c, 0, 71, 0
3, 77280, Note_on_c, 0, 68, 0
3, 77280, Note_on_c, 0, 71, 68
3, 77280, Note_on_c, 0, 68, 68
3, 77520, Note_on_c, 0, 68, 0
3, 77520, Note_on_c, 0, 71, 0
3, 77520, Note_on_c, 0, 71, 70
3, 77520, Note_on_c, 0, 68, 70
3, 77760, Note_on_c, 0, 68, 0
3, 77760, Note_on_c, 0, 71, 0
3, 77760, Note_on_c, 0, 68, 73
3, 77760, Note_on_c, 0, 71, 73
3, 78000, Note_on_c, 0, 71, 0
3, 78000, Note_on_c, 0, 68, 0
3, 78000, Note_on_c, 0, 68, 76
3, 78000, Note_on_c, 0, 71, 76
3, 78240, Note_on_c, 0, 71, 0
3, 78240, Note_on_c, 0, 68, 0
3, 78240, Note_on_c, 0, 68, 78
3, 78240, Note_on_c, 0, 71, 78
3, 78480, Note_on_c, 0, 71, 0
3, 78480, Note_on_c, 0, 68, 0
3, 78480, Note_on_c, 0, 71, 81
3, 78480, Note_on_c, 0, 68, 81
3, 78720, Note_on_c, 0, 68, 0
3, 78720, Note_on_c, 0, 71, 0
3, 78720, Note_on_c, 0, 68, 84
3, 78720, Note_on_c, 0, 71, 84
3, 78960, Note_on_c, 0, 71, 0
3, 78960, Note_on_c, 0, 68, 0
3, 78960, Note_on_c, 0, 68, 86
3, 78960, Note_on_c, 0, 71, 86
3, 79200, Note_on_c, 0, 71, 0
3, 79200, Note_on_c, 0, 68, 0
3, 79200, Note_on_c, 0, 78, 89
3, 79200, Note_on_c, 0, 82, 89
3, 79200, Note_on_c, 0, 85, 89
3, 79200, Note_on_c, 0, 88, 89
3, 79440, Note_on_c, 0, 88, 0
3, 79440, Note_on_c, 0, 78, 0
3, 79440, Note_on_c, 0, 82, 0
3, 79440, Note_on_c, 0, 85, 0
3, 79440, Note_on_c, 0, 82, 92
3, 79440, Note_on_c, 0, 79, 92
3, 79440, Note_on_c, 0, 85, 92
3, 79440, Note_on_c, 0, 88, 92
3, 79680, Note_on_c, 0, 88, 0
3, 79680, Note_on_c, 0, 82, 0
3, 79680, Note_on_c, 0, 79, 0
3, 79680, Note_on_c, 0, 85, 0
3, 79680, Note_on_c, 0, 82, 94
3, 79680, Note_on_c, 0, 79, 94
3, 79680, Note_on_c, 0, 85, 94
3, 79680, Note_on_c, 0, 88, 94
3, 79920, Note_on_c, 0, 88, 0
3, 79920, Note_on_c, 0, 82, 0
3, 79920, Note_on_c, 0, 79, 0
3, 79920, Note_on_c, 0, 85, 0
3, 79920, Note_on_c, 0, 82, 97
3, 79920, Note_on_c, 0, 79, 97
3, 79920, Note_on_c, 0, 85, 97
3, 79920, Note_on_c, 0, 88, 97
3, 80160, Note_on_c, 0, 88, 0
3, 80160, Note_on_c, 0, 82, 0
3, 80160, Note_on_c, 0, 79, 0
3, 80160, Note_on_c, 0, 85, 0
3, 80160, Note_on_c, 0, 82, 100
3, 80160, Note_on_c, 0, 85, 100
3, 80160, Note_on_c, 0, 79, 100
3, 80160, Note_on_c, 0, 88, 100
3, 80400, Note_on_c, 0, 88, 0
3, 80400, Note_on_c, 0, 82, 0
3, 80400, Note_on_c, 0, 85, 0
3, 80400, Note_on_c, 0, 79, 0
3, 80400, Note_on_c, 0, 88, 102
3, 80400, Note_on_c, 0, 82, 102
3, 80400, Note_on_c, 0, 85, 102
3, 80400, Note_on_c, 0, 79, 102
3, 80640, Note_on_c, 0, 79, 0
3, 80640, Note_on_c, 0, 88, 0
3, 80640, Note_on_c, 0, 82, 0
3, 80640, Note_on_c, 0, 85, 0
3, 80640, Note_on_c, 0, 82, 105
3, 80640, Note_on_c, 0, 79, 105
3, 80640, Note_on_c, 0, 85, 105
3, 80640, Note_on_c, 0, 88, 105
3, 80880, Note_on_c, 0, 88, 0
3, 80880, Note_on_c, 0, 82, 0
3, 80880, Note_on_c, 0, 79, 0
3, 80880, Note_on_c, 0, 85, 0
3, 80880, Note_on_c, 0, 82, 108
3, 80880, Note_on_c, 0, 79, 108
3, 80880, Note_on_c, 0, 85, 108
3, 80880, Note_on_c, 0, 88, 108
3, 81120, Note_on_c, 0, 88, 0
3, 81120, Note_on_c, 0, 82, 0
3, 81120, Note_on_c, 0, 79, 0
3, 81120, Note_on_c, 0, 85, 0
3, 81120, Note_on_c, 0, 88, 106
3, 81120, Note_on_c, 0, 79, 106
3, 81120, Note_on_c, 0, 82, 106
3, 81120, Note_on_c, 0, 85, 106
3, 81360, Note_on_c, 0, 85, 0
3, 81360, Note_on_c, 0, 88, 0
3, 81360, Note_on_c, 0, 79, 0
3, 81360, Note_on_c, 0, 82, 0
3, 81360, Note_on_c, 0, 79, 103
3, 81360, Note_on_c, 0, 82, 103
3, 81360, Note_on_c, 0, 88, 103
3, 81360, Note_on_c, 0, 85, 103
3, 81600, Note_on_c, 0, 85, 0
3, 81600, Note_on_c, 0, 79, 0
3, 81600, Note_on_c, 0, 82, 0
3, 81600, Note_on_c, 0, 88, 0
3, 81600, Note_on_c, 0, 82, 101
3, 81600, Note_on_c, 0, 85, 101
3, 81600, Note_on_c, 0, 88, 101
3, 81600, Note_on_c, 0, 79, 101
3, 81840, Note_on_c, 0, 79, 0
3, 81840, Note_on_c, 0, 82, 0
3, 81840, Note_on_c, 0, 85, 0
3, 81840, Note_on_c, 0, 88, 0
3, 81840, Note_on_c, 0, 82, 98
3, 81840, Note_on_c, 0, 85, 98
3, 81840, Note_on_c, 0, 88, 98
3, 81840, Note_on_c, 0, 79, 98
3, 82080, Note_on_c, 0, 79, 0
3, 82080, Note_on_c, 0, 82, 0
3, 82080, Note_on_c, 0, 85, 0
3, 82080, Note_on_c, 0, 88, 0
3, 82080, Note_on_c, 0, 79, 92
3, 82560, Note_on_c, 0, 79, 0
3, 82560, Note_on_c, 0, 78, 85
3, 84000, Note_on_c, 0, 78, 0
3, 84000, Note_on_c, 0, 71, 83
3, 85440, Note_on_c, 0, 71, 0
3, 85440, Note_on_c, 0, 66, 81
3, 86880, Note_on_c, 0, 66, 0
3, 86880, Note_on_c, 0, 59, 79
3, 88320, Note_on_c, 0, 59, 0
3, 100800, Note_on_c, 0, 55, 94
3, 102240, Note_on_c, 0, 55, 0
3, 102240, Note_on_c, 0, 55, 78
3, 103680, Note_on_c, 0, 55, 0
3, 103680, Note_on_c, 0, 61, 73
3, 103680, Note_on_c, 0, 64, 73
3, 103680, Note_on_c, 0, 58, 73
3, 105120, Note_on_c, 0, 58, 0
3, 105120, Note_on_c, 0, 64, 0
3, 105120, Note_on_c, 0, 61, 0
3, 105120, Note_on_c, 0, 62, 69
3, 105120, Note_on_c, 0, 59, 69
3, 105600, Note_on_c, 0, 59, 0
3, 105600, Note_on_c, 0, 62, 0
3, 106560, Note_on_c, 0, 55, 91
3, 108000, Note_on_c, 0, 55, 0
3, 108000, Note_on_c, 0, 55, 69
3, 109440, Note_on_c, 0, 55, 0
3, 109440, Note_on_c, 0, 58, 68
3, 109440, Note_on_c, 0, 64, 68
3, 109440, Note_on_c, 0, 61, 68
3, 110880, Note_on_c, 0, 61, 0
3, 110880, Note_on_c, 0, 64, 0
3, 110880, Note_on_c, 0, 58, 0
3, 112320, Note_on_c, 0, 59, 62
3, 112320, Note_on_c, 0, 62, 62
3, 113760, Note_on_c, 0, 62, 0
3, 113760, Note_on_c, 0, 59, 0
3, 115200, Note_on_c, 0, 64, 56
3, 115200, Note_on_c, 0, 61, 56
3, 116640, Note_on_c, 0, 61, 0
3, 116640, Note_on_c, 0, 64, 0
3, 116640, Note_on_c, 0, 62, 51
3, 116640, Note_on_c, 0, 59, 51
3, 117120, Note_on_c, 0, 59, 0
3, 117120, Note_on_c, 0, 62, 0
3, 118080, Note_on_c, 0, 62, 48
3, 118080, Note_on_c, 0, 59, 48
3, 118560, Note_on_c, 0, 59, 0
3, 118560, Note_on_c, 0, 62, 0
3, 119520, Note_on_c, 0, 62, 45
3, 119520, Note_on_c, 0, 59, 45
3, 120000, Note_on_c, 0, 59, 0
3, 120000, Note_on_c, 0, 62, 0
3, 120960, Note_on_c, 0, 71, 48
3, 122400, Note_on_c, 0, 71, 0
3, 122400, Note_on_c, 0, 71, 50
3, 123840, Note_on_c, 0, 71, 0
3, 123840, Note_on_c, 0, 71, 52
3, 124800, Note_on_c, 0, 71, 0
3, 124800, Note_on_c, 0, 71, 53
3, 125040, Note_on_c, 0, 71, 0
3, 125040, Note_on_c, 0, 71, 53
3, 125280, Note_on_c, 0, 71, 0
3, 125280, Note_on_c, 0, 71, 54
3, 125520, Note_on_c, 0, 71, 0
3, 125520, Note_on_c, 0, 71, 54
3, 125760, Note_on_c, 0, 71, 0
3, 125760, Note_on_c, 0, 71, 54
3, 126000, Note_on_c, 0, 71, 0
3, 126000, Note_on_c, 0, 71, 54
3, 126240, Note_on_c, 0, 71, 0
3, 126240, Note_on_c, 0, 71, 55
3, 126480, Note_on_c, 0, 71, 0
3, 126480, Note_on_c, 0, 71, 55
3, 126720, Note_on_c, 0, 71, 0
3, 126720, Note_on_c, 0, 79, 55
3, 126720, Note_on_c, 0, 71, 55
3, 126960, Note_on_c, 0, 71, 0
3, 126960, Note_on_c, 0, 71, 56
3, 127200, Note_on_c, 0, 71, 0
3, 127200, Note_on_c, 0, 79, 0
3, 127200, Note_on_c, 0, 71, 56
3, 127440, Note_on_c, 0, 71, 0
3, 127440, Note_on_c, 0, 71, 56
3, 127680, Note_on_c, 0, 71, 0
3, 127680, Note_on_c, 0, 79, 57
3, 127680, Note_on_c, 0, 71, 57
3, 127920, Note_on_c, 0, 71, 0
3, 127920, Note_on_c, 0, 71, 57
3, 128040, Note_on_c, 0, 79, 0
3, 128160, Note_on_c, 0, 71, 0
3, 128160, Note_on_c, 0, 80, 57
3, 128160, Note_on_c, 0, 71, 57
3, 128400, Note_on_c, 0, 71, 0
3, 128400, Note_on_c, 0, 71, 58
3, 128640, Note_on_c, 0, 71, 0
3, 128640, Note_on_c, 0, 71, 58
3, 128880, Note_on_c, 0, 71, 0
3, 128880, Note_on_c, 0, 80, 0
3, 128880, Note_on_c, 0, 78, 58
3, 128880, Note_on_c, 0, 71, 58
3, 129036, Note_on_c, 0, 78, 0
3, 129120, Note_on_c, 0, 71, 0
3, 129120, Note_on_c, 0, 80, 58
3, 129120, Note_on_c, 0, 71, 58
3, 129276, Note_on_c, 0, 80, 0
3, 129360, Note_on_c, 0, 71, 0
3, 129360, Note_on_c, 0, 71, 59
3, 129600, Note_on_c, 0, 71, 0
3, 129600, Note_on_c, 0, 81, 58
3, 129600, Note_on_c, 0, 72, 58
3, 129840, Note_on_c, 0, 64, 59
3, 130080, Note_on_c, 0, 64, 0
3, 130080, Note_on_c, 0, 72, 0
3, 130080, Note_on_c, 0, 81, 0
3, 130080, Note_on_c, 0, 64, 60
3, 130320, Note_on_c, 0, 64, 0
3, 130320, Note_on_c, 0, 64, 61
3, 130560, Note_on_c, 0, 64, 0
3, 130560, Note_on_c, 0, 72, 66
3, 130560, Note_on_c, 0, 64, 63
3, 130800, Note_on_c, 0, 64, 0
3, 130800, Note_on_c, 0, 64, 64
3, 130920, Note_on_c, 0, 72, 0
3, 131040, Note_on_c, 0, 64, 0
3, 131040, Note_on_c, 0, 72, 75
3, 131040, Note_on_c, 0, 64, 65
3, 131280, Note_on_c, 0, 64, 0
3, 131280, Note_on_c, 0, 64, 66
3, 131520, Note_on_c, 0, 64, 0
3, 131520, Note_on_c, 0, 64, 67
3, 131760, Note_on_c, 0, 64, 0
3, 131760, Note_on_c, 0, 72, 0
3, 131760, Note_on_c, 0, 71, 72
3, 131760, Note_on_c, 0, 64, 68
3, 131916, Note_on_c, 0, 71, 0
3, 132000, Note_on_c, 0, 64, 0
3, 132000, Note_on_c, 0, 69, 74
3, 132000, Note_on_c, 0, 64, 70
3, 132156, Note_on_c, 0, 69, 0
3, 132240, Note_on_c, 0, 64, 0
3, 132240, Note_on_c, 0, 64, 71
3, 132480, Note_on_c, 0, 64, 0
3, 132480, Note_on_c, 0, 74, 77
3, 132480, Note_on_c, 0, 65, 72
3, 132720, Note_on_c, 0, 65, 0
3, 132720, Note_on_c, 0, 65, 73
3, 132960, Note_on_c, 0, 65, 0
3, 132960, Note_on_c, 0, 74, 0
3, 132960, Note_on_c, 0, 65, 74
3, 133200, Note_on_c, 0, 65, 0
3, 133200, Note_on_c, 0, 65, 75
3, 133440, Note_on_c, 0, 65, 0
3, 133440, Note_on_c, 0, 74, 84
3, 133440, Note_on_c, 0, 65, 77
3, 133680, Note_on_c, 0, 65, 0
3, 133680, Note_on_c, 0, 65, 78
3, 133800, Note_on_c, 0, 74, 0
3, 133920, Note_on_c, 0, 65, 0
3, 133920, Note_on_c, 0, 74, 87
3, 133920, Note_on_c, 0, 65, 79
3, 134160, Note_on_c, 0, 65, 0
3, 134160, Note_on_c, 0, 65, 80
3, 134400, Note_on_c, 0, 65, 0
3, 134400, Note_on_c, 0, 65, 81
3, 134640, Note_on_c, 0, 65, 0
3, 134640, Note_on_c, 0, 74, 0
3, 134640, Note_on_c, 0, 72, 92
3, 134640, Note_on_c, 0, 65, 82
3, 134796, Note_on_c, 0, 72, 0
3, 134880, Note_on_c, 0, 65, 0
3, 134880, Note_on_c, 0, 74, 93
3, 134880, Note_on_c, 0, 65, 84
3, 135036, Note_on_c, 0, 74, 0
3, 135120, Note_on_c, 0, 65, 0
3, 135120, Note_on_c, 0, 65, 85
3, 135360, Note_on_c, 0, 65, 0
3, 135360, Note_on_c, 0, 75, 101
3, 136080, Note_on_c, 0, 75, 0
3, 136080, Note_on_c, 0, 74, 97
3, 136236, Note_on_c, 0, 74, 0
3, 136320, Note_on_c, 0, 75, 95
3, 136476, Note_on_c, 0, 75, 0
3, 138240, Note_on_c, 0, 63, 98
3, 138960, Note_on_c, 0, 63, 0
3, 138960, Note_on_c, 0, 62, 91
3, 139116, Note_on_c, 0, 62, 0
3, 139200, Note_on_c, 0, 63, 89
3, 139356, Note_on_c, 0, 63, 0
3, 139680, Note_on_c, 0, 75, 94
3, 140400, Note_on_c, 0, 75, 0
3, 140400, Note_on_c, 0, 74, 88
3, 140556, Note_on_c, 0, 74, 0
3, 140640, Note_on_c, 0, 75, 86
3, 140796, Note_on_c, 0, 75, 0
3, 141120, Note_on_c, 0, 72, 91
3, 141840, Note_on_c, 0, 72, 0
3, 141840, Note_on_c, 0, 71, 83
3, 141996, Note_on_c, 0, 71, 0
3, 142080, Note_on_c, 0, 72, 81
3, 142236, Note_on_c, 0, 72, 0
3, 144000, Note_on_c, 0, 78, 83
3, 144720, Note_on_c, 0, 78, 0
3, 144720, Note_on_c, 0, 77, 77
3, 144876, Note_on_c, 0, 77, 0
3, 144960, Note_on_c, 0, 78, 74
3, 145116, Note_on_c, 0, 78, 0
3, 145440, Note_on_c, 0, 69, 73
3, 145440, Note_on_c, 0, 66, 73
3, 146160, Note_on_c, 0, 66, 0
3, 146160, Note_on_c, 0, 69, 0
3, 146160, Note_on_c, 0, 69, 71
3, 146160, Note_on_c, 0, 66, 71
3, 146316, Note_on_c, 0, 66, 0
3, 146316, Note_on_c, 0, 69, 0
3, 146400, Note_on_c, 0, 69, 71
3, 146400, Note_on_c, 0, 66, 71
3, 146556, Note_on_c, 0, 66, 0
3, 146556, Note_on_c, 0, 69, 0
3, 146880, Note_on_c, 0, 68, 69
3, 146880, Note_on_c, 0, 65, 69
3, 147600, Note_on_c, 0, 65, 0
3, 147600, Note_on_c, 0, 68, 0
3, 147600, Note_on_c, 0, 71, 68
3, 147600, Note_on_c, 0, 68, 68
3, 147756, Note_on_c, 0, 68, 0
3, 147756, Note_on_c, 0, 71, 0
3, 147840, Note_on_c, 0, 72, 67
3, 147840, Note_on_c, 0, 67, 67
3, 148200, Note_on_c, 0, 67, 0
3, 148200, Note_on_c, 0, 72, 0
3, 148320, Note_on_c, 0, 69, 66
3, 148320, Note_on_c, 0, 66, 66
3, 148680, Note_on_c, 0, 66, 0
3, 148680, Note_on_c, 0, 69, 0
3, 149040, Note_on_c, 0, 69, 64
3, 149040, Note_on_c, 0, 66, 64
3, 149196, Note_on_c, 0, 66, 0
3, 149196, Note_on_c, 0, 69, 0
3, 149280, Note_on_c, 0, 71, 63
3, 149280, Note_on_c, 0, 65, 63
3, 149640, Note_on_c, 0, 65, 0
3, 149640, Note_on_c, 0, 71, 0
3, 149760, Note_on_c, 0, 67, 62
3, 149760, Note_on_c, 0, 64, 62
3, 150120, Note_on_c, 0, 64, 0
3, 150120, Note_on_c, 0, 67, 0
3, 150480, Note_on_c, 0, 67, 60
3, 150480, Note_on_c, 0, 63, 60
3, 150636, Note_on_c, 0, 63, 0
3, 150636, Note_on_c, 0, 67, 0
3, 150720, Note_on_c, 0, 67, 60
3, 150720, Note_on_c, 0, 62, 60
3, 151080, Note_on_c, 0, 62, 0
3, 151080, Note_on_c, 0, 67, 0
3, 151200, Note_on_c, 0, 64, 56
3, 151200, Note_on_c, 0, 61, 56
3, 151356, Note_on_c, 0, 61, 0
3, 151356, Note_on_c, 0, 64, 0
3, 151680, Note_on_c, 0, 64, 57
3, 151680, Note_on_c, 0, 60, 57
3, 151836, Note_on_c, 0, 60, 0
3, 151836, Note_on_c, 0, 64, 0
3, 152160, Note_on_c, 0, 63, 58
3, 152160, Note_on_c, 0, 60, 58
3, 152316, Note_on_c, 0, 60, 0
3, 152316, Note_on_c, 0, 63, 0
3, 210240, Note_on_c, 0, 64, 97
3, 210240, Note_on_c, 0, 55, 97
3, 210240, Note_on_c, 0, 59, 97
3, 211200, Note_on_c, 0, 59, 0
3, 211200, Note_on_c, 0, 55, 0
3, 211200, Note_on_c, 0, 64, 0
3, 211200, Note_on_c, 0, 55, 86
3, 211440, Note_on_c, 0, 55, 0
3, 211680, Note_on_c, 0, 66, 81
3, 211680, Note_on_c, 0, 57, 81
3, 212040, Note_on_c, 0, 57, 0
3, 212040, Note_on_c, 0, 66, 0
3, 212640, Note_on_c, 0, 66, 61
3, 213120, Note_on_c, 0, 66, 0
3, 213120, Note_on_c, 0, 66, 67
3, 213840, Note_on_c, 0, 66, 0
3, 214080, Note_on_c, 0, 66, 58
3, 214440, Note_on_c, 0, 66, 0
3, 214560, Note_on_c, 0, 67, 53
3, 214920, Note_on_c, 0, 67, 0
3, 215520, Note_on_c, 0, 67, 85
3, 215520, Note_on_c, 0, 59, 85
3, 215520, Note_on_c, 0, 62, 85
3, 215760, Note_on_c, 0, 62, 0
3, 215760, Note_on_c, 0, 59, 0
3, 215760, Note_on_c, 0, 67, 0
3, 216000, Note_on_c, 0, 67, 91
3, 216000, Note_on_c, 0, 59, 91
3, 216000, Note_on_c, 0, 62, 91
3, 216960, Note_on_c, 0, 62, 0
3, 216960, Note_on_c, 0, 59, 0
3, 216960, Note_on_c, 0, 67, 0
3, 216960, Note_on_c, 0, 59, 83
3, 217200, Note_on_c, 0, 59, 0
3, 217440, Note_on_c, 0, 70, 79
3, 217440, Note_on_c, 0, 61, 79
3, 217800, Note_on_c, 0, 61, 0
3, 217800, Note_on_c, 0, 70, 0
3, 218400, Note_on_c, 0, 70, 55
3, 218880, Note_on_c, 0, 70, 0
3, 218880, Note_on_c, 0, 70, 60
3, 219600, Note_on_c, 0, 70, 0
3, 219840, Note_on_c, 0, 70, 50
3, 220200, Note_on_c, 0, 70, 0
3, 220320, Note_on_c, 0, 71, 46
3, 220680, Note_on_c, 0, 71, 0
3, 234240, Note_on_c, 0, 76, 65
3, 235440, Note_on_c, 0, 76, 0
3, 235440, Note_on_c, 0, 75, 57
3, 235680, Note_on_c, 0, 75, 0
3, 235680, Note_on_c, 0, 76, 55
3, 235920, Note_on_c, 0, 76, 0
3, 236160, Note_on_c, 0, 64, 54
3, 236160, Note_on_c, 0, 60, 54
3, 237120, Note_on_c, 0, 60, 0
3, 237120, Note_on_c, 0, 64, 0
3, 237120, Note_on_c, 0, 64, 59
3, 237120, Note_on_c, 0, 61, 59
3, 237600, Note_on_c, 0, 61, 0
3, 237600, Note_on_c, 0, 64, 0
3, 237600, Note_on_c, 0, 63, 61
3, 237600, Note_on_c, 0, 57, 61
3, 239040, Note_on_c, 0, 57, 0
3, 239040, Note_on_c, 0, 63, 0
3, 240000, Note_on_c, 0, 76, 74
3, 241162, Note_on_c, 0, 76, 0
3, 241200, Note_on_c, 0, 75, 64
3, 241440, Note_on_c, 0, 75, 0
3, 241440, Note_on_c, 0, 76, 69
3, 241680, Note_on_c, 0, 76, 0
3, 241920, Note_on_c, 0, 64, 79
3, 241920, Note_on_c, 0, 60, 79
3, 242880, Note_on_c, 0, 60, 0
3, 242880, Note_on_c, 0, 64, 0
3, 242880, Note_on_c, 0, 64, 65
3, 242880, Note_on_c, 0, 61, 65
3, 243360, Note_on_c, 0, 61, 0
3, 243360, Note_on_c, 0, 64, 0
3, 243360, Note_on_c, 0, 63, 70
3, 243360, Note_on_c, 0, 57, 70
3, 244800, Note_on_c, 0, 57, 0
3, 244800, Note_on_c, 0, 63, 0
3, 244800, Note_on_c, 0, 55, 59
3, 245280, Note_on_c, 0, 55, 0
3, 247200, Note_on_c, 0, 55, 43
3, 247440, Note_on_c, 0, 55, 0
3, 247680, Note_on_c, 0, 55, 46
3, 248640, Note_on_c, 0, 55, 0
3, 248640, Note_on_c, 0, 60, 51
3, 248880, Note_on_c, 0, 60, 0
3, 249120, Note_on_c, 0, 60, 54
3, 250080, Note_on_c, 0, 60, 0
3, 250080, Note_on_c, 0, 67, 59
3, 250320, Note_on_c, 0, 67, 0
3, 250560, Note_on_c, 0, 67, 62
3, 251520, Note_on_c, 0, 67, 0
3, 251520, Note_on_c, 0, 72, 68
3, 251760, Note_on_c, 0, 72, 0
3, 252000, Note_on_c, 0, 72, 71
3, 252960, Note_on_c, 0, 72, 0
3, 252960, Note_on_c, 0, 86, 81
3, 252960, Note_on_c, 0, 77, 81
3, 253200, Note_on_c, 0, 77, 0
3, 253200, Note_on_c, 0, 86, 0
3, 253440, Control_c, 0, 64, 127
3, 253440, Control_c, 0, 64, 127
3, 253440, Note_on_c, 0, 86, 94
3, 253440, Note_on_c, 0, 77, 94
3, 254160, Note_on_c, 0, 77, 0
3, 254160, Note_on_c, 0, 86, 0
3, 256560, Control_c, 0, 64, 0
3, 256560, Control_c, 0, 64, 0
3, 257280, Note_on_c, 0, 55, 72
3, 257280, Note_on_c, 0, 62, 72
3, 257520, Note_on_c, 0, 62, 0
3, 257520, Note_on_c, 0, 55, 0
3, 257760, Note_on_c, 0, 60, 70
3, 257760, Note_on_c, 0, 55, 70
3, 258000, Note_on_c, 0, 55, 0
3, 258000, Note_on_c, 0, 60, 0
3, 258720, Note_on_c, 0, 80, 78
3, 258720, Note_on_c, 0, 74, 78
3, 258720, Note_on_c, 0, 83, 78
3, 258960, Note_on_c, 0, 83, 0
3, 258960, Note_on_c, 0, 74, 0
3, 258960, Note_on_c, 0, 80, 0
3, 259200, Control_c, 0, 64, 127
3, 259200, Control_c, 0, 64, 127
3, 259200, Note_on_c, 0, 80, 88
3, 259200, Note_on_c, 0, 74, 88
3, 259200, Note_on_c, 0, 83, 88
3, 259920, Note_on_c, 0, 74, 0
3, 259920, Note_on_c, 0, 80, 0
3, 260160, Note_on_c, 0, 83, 0
3, 262320, Control_c, 0, 64, 0
3, 262320, Control_c, 0, 64, 0
3, 263040, Note_on_c, 0, 59, 69
3, 263040, Note_on_c, 0, 52, 69
3, 263280, Note_on_c, 0, 52, 0
3, 263280, Note_on_c, 0, 59, 0
3, 263520, Note_on_c, 0, 57, 66
3, 263520, Note_on_c, 0, 52, 66
3, 263760, Note_on_c, 0, 52, 0
3, 263760, Note_on_c, 0, 57, 0
3, 268800, Note_on_c, 0, 57, 58
3, 269040, Note_on_c, 0, 57, 0
3, 269280, Note_on_c, 0, 57, 60
3, 270240, Note_on_c, 0, 57, 0
3, 270240, Note_on_c, 0, 63, 62
3, 270480, Note_on_c, 0, 63, 0
3, 270720, Note_on_c, 0, 63, 63
3, 271680, Note_on_c, 0, 63, 0
3, 271680, Note_on_c, 0, 69, 66
3, 271680, Note_on_c, 0, 63, 66
3, 271681, Note_on_c, 0, 69, 0
3, 271920, Note_on_c, 0, 63, 0
3, 272160, Note_on_c, 0, 69, 69
3, 272160, Note_on_c, 0, 63, 69
3, 273120, Note_on_c, 0, 63, 0
3, 273120, Note_on_c, 0, 69, 0
3, 273120, Note_on_c, 0, 81, 76
3, 273120, Note_on_c, 0, 75, 76
3, 273120, Note_on_c, 0, 72, 76
3, 273360, Note_on_c, 0, 72, 0
3, 273360, Note_on_c, 0, 75, 0
3, 273360, Note_on_c, 0, 81, 0
3, 273600, Note_on_c, 0, 81, 78
3, 273600, Note_on_c, 0, 75, 78
3, 273600, Note_on_c, 0, 73, 78
3, 274560, Note_on_c, 0, 73, 0
3, 274560, Note_on_c, 0, 75, 0
3, 274560, Note_on_c, 0, 81, 0
3, 274560, Note_on_c, 0, 81, 81
3, 274560, Note_on_c, 0, 75, 81
3, 274560, Note_on_c, 0, 71, 81
3, 275040, Note_on_c, 0, 71, 0
3, 275040, Note_on_c, 0, 75, 0
3, 275040, Note_on_c, 0, 81, 0
3, 275040, Note_on_c, 0, 75, 82
3, 275040, Note_on_c, 0, 70, 82
3, 276000, Note_on_c, 0, 70, 0
3, 276000, Note_on_c, 0, 75, 0
3, 276000, Note_on_c, 0, 81, 86
3, 276000, Note_on_c, 0, 71, 86
3, 276000, Note_on_c, 0, 75, 86
3, 276480, Note_on_c, 0, 75, 0
3, 276480, Note_on_c, 0, 71, 0
3, 276480, Note_on_c, 0, 81, 0
3, 276480, Note_on_c, 0, 76, 87
3, 276480, Note_on_c, 0, 71, 87
3, 277920, Note_on_c, 0, 71, 0
3, 277920, Note_on_c, 0, 76, 0
3, 277920, Note_on_c, 0, 76, 89
3, 279360, Note_on_c, 0, 76, 0
3, 279360, Note_on_c, 0, 71, 92
3, 279360, Note_on_c, 0, 74, 92
3, 279552, Note_on_c, 0, 74, 0
3, 279552, Note_on_c, 0, 71, 0
3, 279840, Note_on_c, 0, 65, 93
3, 279840, Note_on_c, 0, 72, 93
3, 280032, Note_on_c, 0, 72, 0
3, 280032, Note_on_c, 0, 65, 0
3, 280800, Note_on_c, 0, 76, 94
3, 280800, Note_on_c, 0, 72, 94
3, 280992, Note_on_c, 0, 72, 0
3, 280992, Note_on_c, 0, 76, 0
3, 281280, Note_on_c, 0, 68, 95
3, 281280, Note_on_c, 0, 74, 95
3, 281472, Note_on_c, 0, 74, 0
3, 281472, Note_on_c, 0, 68, 0
3, 282240, Note_on_c, 0, 76, 97
3, 282240, Note_on_c, 0, 74, 97
3, 282240, Note_on_c, 0, 68, 97
3, 282432, Note_on_c, 0, 68, 0
3, 282432, Note_on_c, 0, 74, 0
3, 282432, Note_on_c, 0, 76, 0
3, 282720, Note_on_c, 0, 76, 98
3, 282720, Note_on_c, 0, 69, 98
3, 282912, Note_on_c, 0, 69, 0
3, 282912, Note_on_c, 0, 76, 0
3, 283680, Note_on_c, 0, 76, 100
3, 283680, Note_on_c, 0, 69, 100
3, 283872, Note_on_c, 0, 69, 0
3, 283872, Note_on_c, 0, 76, 0
3, 284160, Note_on_c, 0, 79, 101
3, 284160, Note_on_c, 0, 76, 101
3, 284160, Note_on_c, 0, 70, 101
3, 284352, Note_on_c, 0, 70, 0
3, 284352, Note_on_c, 0, 76, 0
3, 284352, Note_on_c, 0, 79, 0
3, 285120, Note_on_c, 0, 76, 70
3, 285120, Note_on_c, 0, 73, 70
3, 285360, Note_on_c, 0, 73, 0
3, 285360, Note_on_c, 0, 76, 0
3, 285360, Control_c, 0, 64, 127
3, 285360, Note_on_c, 0, 76, 65
3, 285360, Note_on_c, 0, 73, 65
3, 285600, Note_on_c, 0, 73, 0
3, 285600, Note_on_c, 0, 76, 0
3, 285600, Note_on_c, 0, 76, 67
3, 285600, Note_on_c, 0, 73, 67
3, 285840, Note_on_c, 0, 73, 0
3, 285840, Note_on_c, 0, 76, 0
3, 285840, Note_on_c, 0, 76, 69
3, 285840, Note_on_c, 0, 73, 69
3, 286080, Note_on_c, 0, 73, 0
3, 286080, Note_on_c, 0, 76, 0
3, 286080, Note_on_c, 0, 76, 72
3, 286080, Note_on_c, 0, 73, 72
3, 286320, Note_on_c, 0, 73, 0
3, 286320, Note_on_c, 0, 76, 0
3, 286320, Note_on_c, 0, 76, 74
3, 286320, Note_on_c, 0, 73, 74
3, 286560, Note_on_c, 0, 73, 0
3, 286560, Note_on_c, 0, 76, 0
3, 286560, Note_on_c, 0, 76, 76
3, 286560, Note_on_c, 0, 73, 76
3, 286800, Note_on_c, 0, 73, 0
3, 286800, Note_on_c, 0, 76, 0
3, 286800, Note_on_c, 0, 76, 78
3, 286800, Note_on_c, 0, 73, 78
3, 287040, Note_on_c, 0, 73, 0
3, 287040, Note_on_c, 0, 76, 0
3, 287040, Note_on_c, 0, 76, 81
3, 287040, Note_on_c, 0, 73, 81
3, 287280, Note_on_c, 0, 73, 0
3, 287280, Note_on_c, 0, 76, 0
3, 287280, Note_on_c, 0, 76, 83
3, 287280, Note_on_c, 0, 73, 83
3, 287520, Note_on_c, 0, 73, 0
3, 287520, Note_on_c, 0, 76, 0
3, 287520, Note_on_c, 0, 76, 85
3, 287520, Note_on_c, 0, 73, 85
3, 287760, Note_on_c, 0, 73, 0
3, 287760, Note_on_c, 0, 76, 0
3, 287760, Note_on_c, 0, 76, 87
3, 287760, Note_on_c, 0, 73, 87
3, 288000, Note_on_c, 0, 73, 0
3, 288000, Note_on_c, 0, 76, 0
3, 288000, Control_c, 0, 64, 0
3, 288000, Note_on_c, 0, 83, 90
3, 288120, Control_c, 0, 64, 127
3, 288240, Note_on_c, 0, 83, 0
3, 288240, Note_on_c, 0, 84, 92
3, 288480, Note_on_c, 0, 84, 0
3, 288480, Note_on_c, 0, 84, 94
3, 288720, Note_on_c, 0, 84, 0
3, 288720, Note_on_c, 0, 84, 97
3, 288960, Note_on_c, 0, 84, 0
3, 288960, Note_on_c, 0, 84, 99
3, 289200, Note_on_c, 0, 84, 0
3, 289200, Note_on_c, 0, 84, 101
3, 289440, Note_on_c, 0, 84, 0
3, 289440, Note_on_c, 0, 84, 103
3, 289680, Note_on_c, 0, 84, 0
3, 289680, Note_on_c, 0, 84, 106
3, 289920, Note_on_c, 0, 84, 0
3, 289920, Note_on_c, 0, 84, 106
3, 290160, Note_on_c, 0, 84, 0
3, 290160, Note_on_c, 0, 84, 102
3, 290400, Note_on_c, 0, 84, 0
3, 290400, Note_on_c, 0, 84, 99
3, 290640, Note_on_c, 0, 84, 0
3, 290640, Note_on_c, 0, 84, 96
3, 290880, Note_on_c, 0, 84, 0
3, 290880, Note_on_c, 0, 84, 93
3, 291360, Note_on_c, 0, 84, 0
3, 291360, Control_c, 0, 64, 0
3, 291360, Note_on_c, 0, 83, 87
3, 292800, Note_on_c, 0, 83, 0
3, 292800, Note_on_c, 0, 76, 84
3, 294240, Note_on_c, 0, 76, 0
3, 294240, Note_on_c, 0, 71, 81
3, 295680, Note_on_c, 0, 71, 0
3, 295680, Note_on_c, 0, 64, 79
3, 297120, Note_on_c, 0, 64, 0
3, 299760, Control_c, 0, 64, 0
3, 309600, Note_on_c, 0, 60, 94
3, 311040, Note_on_c, 0, 60, 0
3, 311040, Note_on_c, 0, 60, 78
3, 312480, Note_on_c, 0, 60, 0
3, 312480, Note_on_c, 0, 69, 73
3, 312480, Note_on_c, 0, 66, 73
3, 312480, Note_on_c, 0, 63, 73
3, 313920, Note_on_c, 0, 63, 0
3, 313920, Note_on_c, 0, 66, 0
3, 313920, Note_on_c, 0, 69, 0
3, 313920, Note_on_c, 0, 64, 69
3, 313920, Note_on_c, 0, 67, 69
3, 314400, Note_on_c, 0, 67, 0
3, 314400, Note_on_c, 0, 64, 0
3, 315360, Note_on_c, 0, 48, 91
3, 316800, Note_on_c, 0, 48, 0
3, 316800, Note_on_c, 0, 48, 69
3, 318240, Note_on_c, 0, 48, 0
3, 318240, Note_on_c, 0, 54, 68
3, 318240, Note_on_c, 0, 57, 68
3, 318240, Note_on_c, 0, 51, 68
3, 319680, Note_on_c, 0, 51, 0
3, 319680, Note_on_c, 0, 57, 0
3, 319680, Note_on_c, 0, 54, 0
3, 321120, Note_on_c, 0, 55, 62
3, 321120, Note_on_c, 0, 52, 62
3, 322560, Note_on_c, 0, 52, 0
3, 322560, Note_on_c, 0, 55, 0
3, 324000, Note_on_c, 0, 54, 56
3, 324000, Note_on_c, 0, 57, 56
3, 325440, Note_on_c, 0, 57, 0
3, 325440, Note_on_c, 0, 54, 0
3, 325440, Note_on_c, 0, 52, 51
3, 325440, Note_on_c, 0, 55, 51
3, 325920, Note_on_c, 0, 55, 0
3, 325920, Note_on_c, 0, 52, 0
3, 326880, Note_on_c, 0, 63, 66
3, 326880, Note_on_c, 0, 69, 66
3, 326880, Note_on_c, 0, 66, 66
3, 328320, Note_on_c, 0, 66, 0
3, 328320, Note_on_c, 0, 69, 0
3, 328320, Note_on_c, 0, 63, 0
3, 329760, Note_on_c, 0, 64, 59
3, 329760, Note_on_c, 0, 67, 59
3, 331200, Note_on_c, 0, 67, 0
3, 331200, Note_on_c, 0, 64, 0
3, 332640, Note_on_c, 0, 69, 52
3, 332640, Note_on_c, 0, 66, 52
3, 334080, Note_on_c, 0, 66, 0
3, 334080, Note_on_c, 0, 69, 0
3, 334080, Note_on_c, 0, 67, 48
3, 334080, Note_on_c, 0, 64, 48
3, 334560, Note_on_c, 0, 64, 0
3, 334560, Note_on_c, 0, 67, 0
3, 339360, Note_on_c, 0, 74, 71
3, 339840, Note_on_c, 0, 74, 0
3, 339840, Note_on_c, 0, 76, 80
3, 340558, Note_on_c, 0, 76, 0
3, 340560, Note_on_c, 0, 75, 72
3, 340800, Note_on_c, 0, 75, 0
3, 341280, Note_on_c, 0, 78, 65
3, 341640, Note_on_c, 0, 78, 0
3, 342240, Note_on_c, 0, 78, 58
3, 342720, Note_on_c, 0, 78, 0
3, 342720, Note_on_c, 0, 78, 67
3, 343440, Note_on_c, 0, 78, 0
3, 343680, Note_on_c, 0, 78, 55
3, 344040, Note_on_c, 0, 78, 0
3, 344160, Note_on_c, 0, 79, 50
3, 344520, Note_on_c, 0, 79, 0
3, 345600, Note_on_c, 0, 79, 71
3, 345600, Note_on_c, 0, 71, 71
3, 345600, Note_on_c, 0, 74, 71
3, 346560, Note_on_c, 0, 74, 0
3, 346560, Note_on_c, 0, 71, 0
3, 346560, Note_on_c, 0, 79, 0
3, 346560, Note_on_c, 0, 74, 61
3, 347040, Note_on_c, 0, 74, 0
3, 347040, Note_on_c, 0, 82, 55
3, 347760, Note_on_c, 0, 82, 0
3, 349440, Note_on_c, 0, 76, 65
3, 350640, Note_on_c, 0, 76, 0
3, 350640, Note_on_c, 0, 75, 54
3, 350880, Note_on_c, 0, 75, 0
3, 350880, Note_on_c, 0, 76, 52
3, 351120, Note_on_c, 0, 76, 0
3, 351360, Note_on_c, 0, 64, 53
3, 351360, Note_on_c, 0, 60, 53
3, 352320, Note_on_c, 0, 60, 0
3, 352320, Note_on_c, 0, 64, 0
3, 352320, Note_on_c, 0, 64, 60
3, 352320, Note_on_c, 0, 61, 60
3, 352800, Note_on_c, 0, 61, 0
3, 352800, Note_on_c, 0, 64, 0
3, 352800, Note_on_c, 0, 63, 67
3, 352800, Note_on_c, 0, 57, 67
3, 354240, Note_on_c, 0, 57, 0
3, 354240, Note_on_c, 0, 63, 0
3, 355200, Note_on_c, 0, 76, 74
3, 356362, Note_on_c, 0, 76, 0
3, 356400, Note_on_c, 0, 75, 67
3, 356640, Note_on_c, 0, 75, 0
3, 356640, Note_on_c, 0, 76, 65
3, 356880, Note_on_c, 0, 76, 0
3, 357120, Note_on_c, 0, 64, 69
3, 357120, Note_on_c, 0, 60, 69
3, 358080, Note_on_c, 0, 60, 0
3, 358080, Note_on_c, 0, 64, 0
3, 358080, Note_on_c, 0, 64, 65
3, 358080, Note_on_c, 0, 61, 65
3, 358560, Note_on_c, 0, 61, 0
3, 358560, Note_on_c, 0, 64, 0
3, 358560, Note_on_c, 0, 63, 63
3, 358560, Note_on_c, 0, 57, 63
3, 360000, Note_on_c, 0, 57, 0
3, 360000, Note_on_c, 0, 63, 0
3, 360000, Note_on_c, 0, 55, 48
3, 360480, Note_on_c, 0, 55, 0
3, 361440, Control_c, 0, 7, 117
3, 361440, Pitch_bend_c, 0, 8192
3, 361440, Control_c, 0, 1, 0
3, 361440, Control_c, 0, 64, 0
3, 361440, Control_c, 0, 93, 28
3, 361440, Control_c, 0, 91, 91
3, 361440, Control_c, 0, 10, 64
3, 361440, Control_c, 0, 0, 0
3, 361440, Control_c, 0, 32, 0
3, 361440, Program_c, 0, 0
3, 362400, Note_on_c, 0, 64, 61
3, 362640, Note_on_c, 0, 64, 0
3, 362640, Note_on_c, 0, 64, 61
3, 362880, Note_on_c, 0, 64, 0
3, 362880, Note_on_c, 0, 68, 60
3, 363120, Note_on_c, 0, 68, 0
3, 363120, Note_on_c, 0, 66, 59
3, 363360, Note_on_c, 0, 66, 0
3, 363360, Note_on_c, 0, 64, 59
3, 363600, Note_on_c, 0, 64, 0
3, 363600, Note_on_c, 0, 63, 58
3, 363792, Note_on_c, 0, 63, 0
3, 363840, Note_on_c, 0, 63, 58
3, 364032, Note_on_c, 0, 63, 0
3, 364080, Note_on_c, 0, 64, 57
3, 364272, Note_on_c, 0, 64, 0
3, 364320, Note_on_c, 0, 64, 56
3, 364560, Note_on_c, 0, 64, 0
3, 364560, Note_on_c, 0, 64, 56
3, 364800, Note_on_c, 0, 64, 0
3, 364800, Note_on_c, 0, 66, 55
3, 365040, Note_on_c, 0, 66, 0
3, 365040, Note_on_c, 0, 63, 54
3, 365280, Note_on_c, 0, 63, 0
3, 365280, Note_on_c, 0, 64, 54
3, 365760, Note_on_c, 0, 64, 0
3, 366240, Note_on_c, 0, 68, 61
3, 366720, Note_on_c, 0, 68, 0
3, 366720, Note_on_c, 0, 71, 60
3, 366960, Note_on_c, 0, 71, 0
3, 366960, Note_on_c, 0, 69, 59
3, 367200, Note_on_c, 0, 69, 0
3, 367200, Note_on_c, 0, 68, 59
3, 367440, Note_on_c, 0, 68, 0
3, 367440, Note_on_c, 0, 66, 58
3, 367632, Note_on_c, 0, 66, 0
3, 367680, Note_on_c, 0, 66, 57
3, 367872, Note_on_c, 0, 66, 0
3, 367920, Note_on_c, 0, 68, 56
3, 368112, Note_on_c, 0, 68, 0
3, 368160, Note_on_c, 0, 69, 58
3, 368400, Note_on_c, 0, 69, 0
3, 368400, Note_on_c, 0, 73, 62
3, 368640, Note_on_c, 0, 73, 0
3, 368640, Note_on_c, 0, 71, 65
3, 368832, Note_on_c, 0, 71, 0
3, 368880, Note_on_c, 0, 75, 69
3, 369072, Note_on_c, 0, 75, 0
3, 369120, Note_on_c, 0, 76, 62
3, 369480, Note_on_c, 0, 76, 0
3, 374400, Note_on_c, 0, 61, 63
3, 374400, Note_on_c, 0, 64, 63
3, 374592, Note_on_c, 0, 64, 0
3, 374592, Note_on_c, 0, 61, 0
3, 374640, Note_on_c, 0, 59, 66
3, 374640, Note_on_c, 0, 64, 66
3, 374832, Note_on_c, 0, 64, 0
3, 374832, Note_on_c, 0, 59, 0
3, 374880, Note_on_c, 0, 58, 68
3, 374880, Note_on_c, 0, 64, 68
3, 375360, Note_on_c, 0, 64, 0
3, 375360, Note_on_c, 0, 58, 0
3, 375360, Note_on_c, 0, 57, 73
3, 375360, Note_on_c, 0, 64, 73
3, 375840, Note_on_c, 0, 64, 0
3, 375840, Note_on_c, 0, 57, 0
3, 375840, Note_on_c, 0, 63, 70
3, 375840, Note_on_c, 0, 57, 70
3, 376080, Note_on_c, 0, 57, 0
3, 376080, Note_on_c, 0, 63, 0
3, 376080, Note_on_c, 0, 63, 66
3, 376560, Note_on_c, 0, 63, 0
3, 376560, Note_on_c, 0, 63, 58
3, 376800, Note_on_c, 0, 63, 0
3, 377520, Note_on_c, 0, 71, 59
3, 377760, Note_on_c, 0, 71, 0
3, 377760, Note_on_c, 0, 70, 61
3, 378240, Note_on_c, 0, 70, 0
3, 378240, Note_on_c, 0, 76, 65
3, 378720, Note_on_c, 0, 76, 0
3, 378720, Note_on_c, 0, 75, 71
3, 379440, Note_on_c, 0, 75, 0
3, 379440, Note_on_c, 0, 69, 58
3, 379680, Note_on_c, 0, 69, 0
3, 379680, Note_on_c, 0, 68, 56
3, 380160, Note_on_c, 0, 68, 0
3, 380160, Note_on_c, 0, 74, 60
3, 380640, Note_on_c, 0, 74, 0
3, 380640, Note_on_c, 0, 73, 65
3, 381360, Note_on_c, 0, 73, 0
3, 381360, Note_on_c, 0, 73, 60
3, 381600, Note_on_c, 0, 73, 0
3, 381600, Note_on_c, 0, 72, 58
3, 381840, Note_on_c, 0, 72, 0
3, 381840, Note_on_c, 0, 73, 61
3, 382032, Note_on_c, 0, 73, 0
3, 382080, Note_on_c, 0, 69, 64
3, 382272, Note_on_c, 0, 69, 0
3, 382320, Note_on_c, 0, 68, 66
3, 382512, Note_on_c, 0, 68, 0
3, 382560, Note_on_c, 0, 68, 69
3, 382800, Note_on_c, 0, 68, 0
3, 382800, Note_on_c, 0, 66, 72
3, 383280, Note_on_c, 0, 66, 0
3, 383280, Note_on_c, 0, 66, 77
3, 383520, Note_on_c, 0, 66, 0
3, 383520, Note_on_c, 0, 66, 71
3, 383760, Note_on_c, 0, 66, 0
3, 383760, Note_on_c, 0, 71, 67
3, 384000, Note_on_c, 0, 71, 0
3, 384000, Note_on_c, 0, 70, 62
3, 384240, Note_on_c, 0, 70, 0
3, 384240, Note_on_c, 0, 71, 58
3, 384480, Note_on_c, 0, 71, 0
3, 384480, Note_on_c, 0, 64, 54
3, 384960, Note_on_c, 0, 64, 0
3, 385440, Note_on_c, 0, 64, 61
3, 385680, Note_on_c, 0, 64, 0
3, 385680, Note_on_c, 0, 64, 61
3, 385920, Note_on_c, 0, 64, 0
3, 385920, Note_on_c, 0, 68, 60
3, 386160, Note_on_c, 0, 68, 0
3, 386160, Note_on_c, 0, 66, 59
3, 386400, Note_on_c, 0, 66, 0
3, 386400, Note_on_c, 0, 64, 58
3, 386640, Note_on_c, 0, 64, 0
3, 386640, Note_on_c, 0, 63, 57
3, 386832, Note_on_c, 0, 63, 0
3, 386880, Note_on_c, 0, 63, 57
3, 387072, Note_on_c, 0, 63, 0
3, 387120, Note_on_c, 0, 64, 56
3, 387312, Note_on_c, 0, 64, 0
3, 387360, Note_on_c, 0, 64, 55
3, 387600, Note_on_c, 0, 64, 0
3, 387600, Note_on_c, 0, 64, 54
3, 387840, Note_on_c, 0, 64, 0
3, 387840, Note_on_c, 0, 66, 53
3, 388080, Note_on_c, 0, 66, 0
3, 388080, Note_on_c, 0, 63, 53
3, 388320, Note_on_c, 0, 63, 0
3, 388320, Note_on_c, 0, 64, 52
3, 388800, Note_on_c, 0, 64, 0
3, 389760, Note_on_c, 0, 71, 64
3, 390000, Note_on_c, 0, 71, 0
3, 390000, Note_on_c, 0, 69, 62
3, 390240, Note_on_c, 0, 69, 0
3, 390240, Note_on_c, 0, 68, 66
3, 390480, Note_on_c, 0, 68, 0
3, 390480, Note_on_c, 0, 66, 69
3, 390672, Note_on_c, 0, 66, 0
3, 390720, Note_on_c, 0, 66, 72
3, 390912, Note_on_c, 0, 66, 0
3, 390960, Note_on_c, 0, 68, 75
3, 391152, Note_on_c, 0, 68, 0
3, 391200, Note_on_c, 0, 69, 78
3, 391440, Note_on_c, 0, 69, 0
3, 391440, Note_on_c, 0, 73, 81
3, 391680, Note_on_c, 0, 73, 0
3, 391680, Note_on_c, 0, 71, 84
3, 391872, Note_on_c, 0, 71, 0
3, 391920, Note_on_c, 0, 75, 87
3, 391920, Note_on_c, 0, 81, 87
3, 392112, Note_on_c, 0, 81, 0
3, 392112, Note_on_c, 0, 75, 0
3, 392160, Note_on_c, 0, 76, 84
3, 392160, Note_on_c, 0, 80, 84
3, 392520, Note_on_c, 0, 80, 0
3, 392520, Note_on_c, 0, 76, 0
3, 392880, Note_on_c, 0, 64, 88
3, 393036, Note_on_c, 0, 64, 0
3, 393120, Note_on_c, 0, 64, 96
3, 393480, Note_on_c, 0, 64, 0
3, 393840, Note_on_c, 0, 64, 71
3, 393840, Note_on_c, 0, 68, 71
3, 393996, Note_on_c, 0, 68, 0
3, 393996, Note_on_c, 0, 64, 0
3, 394080, Note_on_c, 0, 66, 76
3, 394080, Note_on_c, 0, 63, 76
3, 394080, Note_on_c, 0, 68, 76
3, 394440, Note_on_c, 0, 68, 0
3, 394440, Note_on_c, 0, 63, 0
3, 394440, Note_on_c, 0, 66, 0
3, 394800, Note_on_c, 0, 63, 89
3, 394800, Note_on_c, 0, 66, 89
3, 394956, Note_on_c, 0, 66, 0
3, 394956, Note_on_c, 0, 63, 0
3, 395040, Note_on_c, 0, 63, 95
3, 395040, Note_on_c, 0, 66, 95
3, 395400, Note_on_c, 0, 66, 0
3, 395400, Note_on_c, 0, 63, 0
3, 395760, Note_on_c, 0, 63, 68
3, 395760, Note_on_c, 0, 66, 68
3, 395760, Note_on_c, 0, 68, 68
3, 395916, Note_on_c, 0, 68, 0
3, 395916, Note_on_c, 0, 66, 0
3, 395916, Note_on_c, 0, 63, 0
3, 396000, Note_on_c, 0, 64, 72
3, 396000, Note_on_c, 0, 68, 72
3, 396360, Note_on_c, 0, 68, 0
3, 396360, Note_on_c, 0, 64, 0
3, 396720, Note_on_c, 0, 64, 86
3, 396876, Note_on_c, 0, 64, 0
3, 396960, Note_on_c, 0, 64, 90
3, 397320, Note_on_c, 0, 64, 0
3, 397680, Note_on_c, 0, 64, 66
3, 397680, Note_on_c, 0, 68, 66
3, 397836, Note_on_c, 0, 68, 0
3, 397836, Note_on_c, 0, 64, 0
3, 397920, Note_on_c, 0, 64, 68
3, 397920, Note_on_c, 0, 66, 68
3, 398280, Note_on_c, 0, 66, 0
3, 398280, Note_on_c, 0, 64, 0
3, 398640, Note_on_c, 0, 61, 87
3, 398796, Note_on_c, 0, 61, 0
3, 398880, Note_on_c, 0, 59, 92
3, 399240, Note_on_c, 0, 59, 0
3, 399600, Note_on_c, 0, 71, 83
3, 399600, Note_on_c, 0, 64, 83
3, 399756, Note_on_c, 0, 64, 0
3, 399756, Note_on_c, 0, 71, 0
3, 399840, Note_on_c, 0, 64, 80
3, 399840, Note_on_c, 0, 73, 80
3, 399840, Note_on_c, 0, 70, 80
3, 400080, Note_on_c, 0, 70, 0
3, 400080, Note_on_c, 0, 73, 0
3, 400080, Note_on_c, 0, 64, 0
3, 400800, Note_on_c, 0, 76, 62
3, 401520, Note_on_c, 0, 76, 0
3, 401520, Note_on_c, 0, 75, 67
3, 401676, Note_on_c, 0, 75, 0
3, 401760, Note_on_c, 0, 75, 70
3, 402000, Note_on_c, 0, 75, 0
3, 402000, Note_on_c, 0, 73, 69
3, 402156, Note_on_c, 0, 73, 0
3, 402240, Note_on_c, 0, 73, 67
3, 402480, Note_on_c, 0, 73, 0
3, 402480, Note_on_c, 0, 75, 66
3, 402636, Note_on_c, 0, 75, 0
3, 402720, Note_on_c, 0, 76, 64
3, 403440, Note_on_c, 0, 76, 0
3, 403440, Note_on_c, 0, 75, 64
3, 403680, Note_on_c, 0, 75, 0
3, 403680, Note_on_c, 0, 73, 66
3, 403920, Note_on_c, 0, 73, 0
3, 403920, Note_on_c, 0, 76, 67
3, 404160, Note_on_c, 0, 76, 0
3, 404160, Note_on_c, 0, 75, 69
3, 404400, Note_on_c, 0, 75, 0
3, 404400, Note_on_c, 0, 73, 70
3, 404640, Note_on_c, 0, 73, 0
3, 404640, Note_on_c, 0, 78, 71
3, 404880, Note_on_c, 0, 78, 0
3, 406680, Note_on_c, 0, 68, 57
3, 406800, Note_on_c, 0, 68, 0
3, 406800, Note_on_c, 0, 70, 57
3, 406920, Note_on_c, 0, 70, 0
3, 406920, Note_on_c, 0, 71, 56
3, 407040, Note_on_c, 0, 71, 0
3, 407040, Note_on_c, 0, 70, 56
3, 407160, Note_on_c, 0, 70, 0
3, 407160, Note_on_c, 0, 71, 56
3, 407280, Note_on_c, 0, 71, 0
3, 407280, Note_on_c, 0, 73, 55
3, 407400, Note_on_c, 0, 73, 0
3, 407400, Note_on_c, 0, 75, 55
3, 407520, Note_on_c, 0, 75, 0
3, 407520, Note_on_c, 0, 70, 55
3, 407760, Note_on_c, 0, 70, 0
3, 408480, Note_on_c, 0, 85, 55
3, 409200, Note_on_c, 0, 85, 0
3, 409200, Note_on_c, 0, 83, 59
3, 409356, Note_on_c, 0, 83, 0
3, 409440, Note_on_c, 0, 83, 61
3, 409680, Note_on_c, 0, 83, 0
3, 409680, Note_on_c, 0, 82, 58
3, 409836, Note_on_c, 0, 82, 0
3, 409920, Note_on_c, 0, 82, 58
3, 410160, Note_on_c, 0, 82, 0
3, 410160, Note_on_c, 0, 83, 57
3, 410316, Note_on_c, 0, 83, 0
3, 410400, Note_on_c, 0, 85, 56
3, 411120, Note_on_c, 0, 85, 0
3, 411120, Note_on_c, 0, 83, 56
3, 411276, Note_on_c, 0, 83, 0
3, 411360, Note_on_c, 0, 82, 58
3, 411600, Note_on_c, 0, 82, 0
3, 411600, Note_on_c, 0, 88, 59
3, 411840, Note_on_c, 0, 88, 0
3, 411840, Note_on_c, 0, 87, 61
3, 412080, Note_on_c, 0, 87, 0
3, 412080, Note_on_c, 0, 85, 63
3, 412320, Note_on_c, 0, 85, 0
3, 412320, Note_on_c, 0, 83, 65
3, 412560, Note_on_c, 0, 83, 0
3, 412560, Note_on_c, 0, 87, 64
3, 412800, Note_on_c, 0, 87, 0
3, 412800, Note_on_c, 0, 85, 63
3, 413040, Note_on_c, 0, 85, 0
3, 413040, Note_on_c, 0, 83, 61
3, 413280, Note_on_c, 0, 83, 0
3, 413280, Note_on_c, 0, 82, 60
3, 413520, Note_on_c, 0, 82, 0
3, 413520, Note_on_c, 0, 85, 59
3, 413760, Note_on_c, 0, 85, 0
3, 413760, Note_on_c, 0, 83, 57
3, 414000, Note_on_c, 0, 83, 0
3, 414000, Note_on_c, 0, 82, 56
3, 414240, Note_on_c, 0, 82, 0
3, 419040, Note_on_c, 0, 66, 56
3, 419040, Note_on_c, 0, 75, 56
3, 420000, Note_on_c, 0, 75, 0
3, 420000, Note_on_c, 0, 66, 0
3, 420000, Note_on_c, 0, 64, 61
3, 420000, Note_on_c, 0, 73, 61
3, 420480, Note_on_c, 0, 73, 0
3, 420480, Note_on_c, 0, 64, 0
3, 420480, Note_on_c, 0, 63, 63
3, 420480, Note_on_c, 0, 71, 63
3, 420960, Note_on_c, 0, 71, 0
3, 420960, Note_on_c, 0, 63, 0
3, 420960, Note_on_c, 0, 68, 65
3, 421440, Note_on_c, 0, 68, 0
3, 421440, Note_on_c, 0, 68, 68
3, 421920, Note_on_c, 0, 68, 0
3, 421920, Note_on_c, 0, 66, 70
3, 422400, Note_on_c, 0, 66, 0
3, 422400, Note_on_c, 0, 66, 73
3, 422880, Note_on_c, 0, 66, 0
3, 422880, Note_on_c, 0, 66, 77
3, 422880, Note_on_c, 0, 69, 77
3, 423840, Note_on_c, 0, 69, 0
3, 423840, Note_on_c, 0, 66, 0
3, 423840, Note_on_c, 0, 64, 80
3, 423840, Note_on_c, 0, 69, 80
3, 424320, Note_on_c, 0, 69, 0
3, 424320, Note_on_c, 0, 64, 0
3, 424320, Note_on_c, 0, 63, 82
3, 424320, Note_on_c, 0, 66, 82
3, 424320, Note_on_c, 0, 69, 82
3, 424800, Note_on_c, 0, 69, 0
3, 424800, Note_on_c, 0, 66, 0
3, 424800, Note_on_c, 0, 63, 0
3, 424800, Note_on_c, 0, 69, 85
3, 425280, Note_on_c, 0, 69, 0
3, 425280, Note_on_c, 0, 63, 87
3, 425280, Note_on_c, 0, 69, 87
3, 426240, Note_on_c, 0, 69, 0
3, 426240, Note_on_c, 0, 63, 0
3, 426240, Note_on_c, 0, 63, 92
3, 426240, Note_on_c, 0, 66, 92
3, 426720, Note_on_c, 0, 66, 0
3, 426720, Note_on_c, 0, 63, 0
3, 428640, Note_on_c, 0, 64, 61
3, 428880, Note_on_c, 0, 64, 0
3, 428880, Note_on_c, 0, 64, 63
3, 429120, Note_on_c, 0, 64, 0
3, 429120, Note_on_c, 0, 68, 62
3, 429360, Note_on_c, 0, 68, 0
3, 429360, Note_on_c, 0, 66, 62
3, 429600, Note_on_c, 0, 66, 0
3, 429600, Note_on_c, 0, 64, 61
3, 429840, Note_on_c, 0, 64, 0
3, 429840, Note_on_c, 0, 63, 60
3, 430032, Note_on_c, 0, 63, 0
3, 430080, Note_on_c, 0, 63, 60
3, 430272, Note_on_c, 0, 63, 0
3, 430320, Note_on_c, 0, 64, 59
3, 430512, Note_on_c, 0, 64, 0
3, 430560, Note_on_c, 0, 64, 59
3, 430800, Note_on_c, 0, 64, 0
3, 430800, Note_on_c, 0, 64, 58
3, 431040, Note_on_c, 0, 64, 0
3, 431040, Note_on_c, 0, 66, 57
3, 431280, Note_on_c, 0, 66, 0
3, 431280, Note_on_c, 0, 63, 57
3, 431520, Note_on_c, 0, 63, 0
3, 431520, Note_on_c, 0, 64, 56
3, 432000, Note_on_c, 0, 64, 0
3, 432480, Note_on_c, 0, 68, 61
3, 432960, Note_on_c, 0, 68, 0
3, 432960, Note_on_c, 0, 71, 60
3, 433200, Note_on_c, 0, 71, 0
3, 433200, Note_on_c, 0, 69, 60
3, 433440, Note_on_c, 0, 69, 0
3, 433440, Note_on_c, 0, 68, 62
3, 433680, Note_on_c, 0, 68, 0
3, 433680, Note_on_c, 0, 66, 63
3, 433872, Note_on_c, 0, 66, 0
3, 433920, Note_on_c, 0, 66, 65
3, 434112, Note_on_c, 0, 66, 0
3, 434160, Note_on_c, 0, 68, 67
3, 434352, Note_on_c, 0, 68, 0
3, 434400, Note_on_c, 0, 69, 68
3, 434640, Note_on_c, 0, 69, 0
3, 434640, Note_on_c, 0, 73, 70
3, 434880, Note_on_c, 0, 73, 0
3, 434880, Note_on_c, 0, 71, 71
3, 435072, Note_on_c, 0, 71, 0
3, 435120, Note_on_c, 0, 75, 71
3, 435312, Note_on_c, 0, 75, 0
3, 435360, Note_on_c, 0, 76, 64
3, 435720, Note_on_c, 0, 76, 0
3, 440640, Note_on_c, 0, 61, 65
3, 440640, Note_on_c, 0, 64, 65
3, 440832, Note_on_c, 0, 64, 0
3, 440832, Note_on_c, 0, 61, 0
3, 440880, Note_on_c, 0, 59, 66
3, 440880, Note_on_c, 0, 64, 66
3, 441072, Note_on_c, 0, 64, 0
3, 441072, Note_on_c, 0, 59, 0
3, 441120, Note_on_c, 0, 58, 67
3, 441120, Note_on_c, 0, 64, 67
3, 441600, Note_on_c, 0, 64, 0
3, 441600, Note_on_c, 0, 58, 0
3, 441600, Note_on_c, 0, 57, 70
3, 441600, Note_on_c, 0, 64, 70
3, 442080, Note_on_c, 0, 64, 0
3, 442080, Note_on_c, 0, 57, 0
3, 442080, Note_on_c, 0, 57, 73
3, 442080, Note_on_c, 0, 63, 73
3, 442320, Note_on_c, 0, 63, 0
3, 442320, Note_on_c, 0, 57, 0
3, 442320, Note_on_c, 0, 63, 70
3, 442800, Note_on_c, 0, 63, 0
3, 442800, Note_on_c, 0, 63, 65
3, 443040, Note_on_c, 0, 63, 0
3, 443760, Note_on_c, 0, 71, 60
3, 444000, Note_on_c, 0, 71, 0
3, 444000, Note_on_c, 0, 70, 63
3, 444480, Note_on_c, 0, 70, 0
3, 444480, Note_on_c, 0, 76, 69
3, 444960, Note_on_c, 0, 76, 0
3, 444960, Note_on_c, 0, 75, 66
3, 445680, Note_on_c, 0, 75, 0
3, 445680, Note_on_c, 0, 69, 61
3, 445920, Note_on_c, 0, 69, 0
3, 445920, Note_on_c, 0, 68, 63
3, 446400, Note_on_c, 0, 68, 0
3, 446400, Note_on_c, 0, 74, 67
3, 446880, Note_on_c, 0, 74, 0
3, 446880, Note_on_c, 0, 73, 65
3, 447600, Note_on_c, 0, 73, 0
3, 447600, Note_on_c, 0, 73, 60
3, 447840, Note_on_c, 0, 73, 0
3, 447840, Note_on_c, 0, 72, 61
3, 448080, Note_on_c, 0, 72, 0
3, 448080, Note_on_c, 0, 73, 63
3, 448272, Note_on_c, 0, 73, 0
3, 448320, Note_on_c, 0, 69, 65
3, 448512, Note_on_c, 0, 69, 0
3, 448560, Note_on_c, 0, 68, 68
3, 448752, Note_on_c, 0, 68, 0
3, 448800, Note_on_c, 0, 68, 70
3, 449040, Note_on_c, 0, 68, 0
3, 449040, Note_on_c, 0, 66, 72
3, 449520, Note_on_c, 0, 66, 0
3, 449520, Note_on_c, 0, 66, 77
3, 449760, Note_on_c, 0, 66, 0
3, 449760, Note_on_c, 0, 66, 71
3, 450000, Note_on_c, 0, 66, 0
3, 450000, Note_on_c, 0, 71, 68
3, 450240, Note_on_c, 0, 71, 0
3, 450240, Note_on_c, 0, 70, 65
3, 450480, Note_on_c, 0, 70, 0
3, 450480, Note_on_c, 0, 71, 61
3, 450720, Note_on_c, 0, 71, 0
3, 450720, Note_on_c, 0, 64, 58
3, 451200, Note_on_c, 0, 64, 0
3, 451680, Note_on_c, 0, 64, 61
3, 451920, Note_on_c, 0, 64, 0
3, 451920, Note_on_c, 0, 64, 61
3, 452160, Note_on_c, 0, 64, 0
3, 452160, Note_on_c, 0, 68, 60
3, 452400, Note_on_c, 0, 68, 0
3, 452400, Note_on_c, 0, 66, 59
3, 452640, Note_on_c, 0, 66, 0
3, 452640, Note_on_c, 0, 64, 58
3, 452880, Note_on_c, 0, 64, 0
3, 452880, Note_on_c, 0, 63, 58
3, 453072, Note_on_c, 0, 63, 0
3, 453120, Note_on_c, 0, 63, 57
3, 453312, Note_on_c, 0, 63, 0
3, 453360, Note_on_c, 0, 64, 56
3, 453552, Note_on_c, 0, 64, 0
3, 453600, Note_on_c, 0, 64, 55
3, 453840, Note_on_c, 0, 64, 0
3, 453840, Note_on_c, 0, 64, 54
3, 454080, Note_on_c, 0, 64, 0
3, 454080, Note_on_c, 0, 66, 54
3, 454320, Note_on_c, 0, 66, 0
3, 454320, Note_on_c, 0, 63, 53
3, 454560, Note_on_c, 0, 63, 0
3, 454560, Note_on_c, 0, 64, 52
3, 455020, Note_on_c, 0, 64, 0
3, 456000, Note_on_c, 0, 71, 64
3, 456240, Note_on_c, 0, 71, 0
3, 456240, Note_on_c, 0, 69, 62
3, 456480, Note_on_c, 0, 69, 0
3, 456480, Note_on_c, 0, 68, 63
3, 456720, Note_on_c, 0, 68, 0
3, 456720, Note_on_c, 0, 66, 66
3, 456912, Note_on_c, 0, 66, 0
3, 456960, Note_on_c, 0, 66, 68
3, 457152, Note_on_c, 0, 66, 0
3, 457200, Note_on_c, 0, 68, 71
3, 457392, Note_on_c, 0, 68, 0
3, 457440, Note_on_c, 0, 69, 74
3, 457680, Note_on_c, 0, 69, 0
3, 457680, Note_on_c, 0, 73, 77
3, 457920, Note_on_c, 0, 73, 0
3, 457920, Note_on_c, 0, 71, 80
3, 458112, Note_on_c, 0, 71, 0
3, 458160, Note_on_c, 0, 75, 82
3, 458160, Note_on_c, 0, 81, 82
3, 458352, Note_on_c, 0, 81, 0
3, 458352, Note_on_c, 0, 75, 0
3, 458400, Note_on_c, 0, 76, 81
3, 458400, Note_on_c, 0, 80, 81
3, 458760, Note_on_c, 0, 80, 0
3, 458760, Note_on_c, 0, 76, 0
3, 459120, Note_on_c, 0, 64, 58
3, 459360, Note_on_c, 0, 64, 0
3, 459360, Note_on_c, 0, 63, 61
3, 459840, Note_on_c, 0, 63, 0
3, 459840, Note_on_c, 0, 64, 65
3, 460032, Note_on_c, 0, 64, 0
3, 460080, Note_on_c, 0, 69, 67
3, 460272, Note_on_c, 0, 69, 0
3, 460320, Note_on_c, 0, 68, 69
3, 460560, Note_on_c, 0, 68, 0
3, 460560, Note_on_c, 0, 67, 80
3, 461040, Note_on_c, 0, 67, 0
3, 462000, Note_on_c, 0, 81, 87
3, 462000, Note_on_c, 0, 75, 87
3, 462192, Note_on_c, 0, 75, 0
3, 462192, Note_on_c, 0, 81, 0
3, 462240, Note_on_c, 0, 79, 84
3, 462240, Note_on_c, 0, 76, 84
3, 462600, Note_on_c, 0, 76, 0
3, 462600, Note_on_c, 0, 79, 0
3, 463920, Note_on_c, 0, 69, 75
3, 464076, Note_on_c, 0, 69, 0
3, 464160, Note_on_c, 0, 67, 78
3, 464316, Note_on_c, 0, 67, 0
3, 464400, Note_on_c, 0, 76, 80
3, 464556, Note_on_c, 0, 76, 0
3, 464640, Note_on_c, 0, 76, 82
3, 464796, Note_on_c, 0, 76, 0
3, 464880, Note_on_c, 0, 76, 84
3, 465036, Note_on_c, 0, 76, 0
3, 465120, Note_on_c, 0, 76, 87
3, 465276, Note_on_c, 0, 76, 0
3, 465360, Note_on_c, 0, 81, 89
3, 465516, Note_on_c, 0, 81, 0
3, 465600, Note_on_c, 0, 86, 91
3, 465756, Note_on_c, 0, 86, 0
3, 465840, Note_on_c, 0, 86, 93
3, 465996, Note_on_c, 0, 86, 0
3, 466080, Note_on_c, 0, 86, 96
3, 466236, Note_on_c, 0, 86, 0
3, 466320, Note_on_c, 0, 86, 98
3, 466476, Note_on_c, 0, 86, 0
3, 466560, Note_on_c, 0, 86, 100
3, 466716, Note_on_c, 0, 86, 0
3, 466800, Note_on_c, 0, 86, 103
3, 466956, Note_on_c, 0, 86, 0
3, 467040, Note_on_c, 0, 86, 103
3, 469140, Note_on_c, 0, 86, 0
3, 469200, Note_on_c, 0, 86, 73
3, 469680, Note_on_c, 0, 86, 0
3, 469680, Note_on_c, 0, 84, 65
3, 469836, Note_on_c, 0, 84, 0
3, 470160, Note_on_c, 0, 74, 57
3, 470316, Note_on_c, 0, 74, 0
3, 470400, Note_on_c, 0, 76, 53
3, 470556, Note_on_c, 0, 76, 0
3, 470640, Note_on_c, 0, 71, 49
3, 470640, Note_on_c, 0, 74, 49
3, 470760, Note_on_c, 0, 67, 47
3, 470782, Note_on_c, 0, 71, 0
3, 470790, Note_on_c, 0, 74, 0
3, 470880, Note_on_c, 0, 67, 0
3, 470880, Note_on_c, 0, 76, 50
3, 470880, Note_on_c, 0, 67, 50
3, 471840, Note_on_c, 0, 67, 0
3, 471840, Note_on_c, 0, 76, 0
3, 471840, Note_on_c, 0, 65, 53
3, 471840, Note_on_c, 0, 74, 53
3, 472320, Note_on_c, 0, 74, 0
3, 472320, Note_on_c, 0, 65, 0
3, 472320, Note_on_c, 0, 67, 55
3, 472320, Note_on_c, 0, 72, 55
3, 472800, Note_on_c, 0, 72, 0
3, 472800, Note_on_c, 0, 67, 0
3, 472800, Note_on_c, 0, 69, 56
3, 473280, Note_on_c, 0, 69, 0
3, 473280, Note_on_c, 0, 69, 58
3, 473760, Note_on_c, 0, 69, 0
3, 473760, Note_on_c, 0, 67, 60
3, 474240, Note_on_c, 0, 67, 0
3, 474240, Note_on_c, 0, 67, 61
3, 474720, Note_on_c, 0, 67, 0
3, 474720, Note_on_c, 0, 67, 63
3, 474720, Note_on_c, 0, 75, 63
3, 475680, Note_on_c, 0, 75, 0
3, 475680, Note_on_c, 0, 67, 0
3, 475680, Note_on_c, 0, 65, 66
3, 475680, Note_on_c, 0, 74, 66
3, 476160, Note_on_c, 0, 74, 0
3, 476160, Note_on_c, 0, 65, 0
3, 476160, Note_on_c, 0, 63, 68
3, 476160, Note_on_c, 0, 67, 68
3, 476160, Note_on_c, 0, 72, 68
3, 476640, Note_on_c, 0, 72, 0
3, 476640, Note_on_c, 0, 67, 0
3, 476640, Note_on_c, 0, 63, 0
3, 476640, Note_on_c, 0, 68, 69
3, 477120, Note_on_c, 0, 68, 0
3, 477120, Note_on_c, 0, 69, 71
3, 477600, Note_on_c, 0, 69, 0
3, 477600, Note_on_c, 0, 67, 73
3, 478080, Note_on_c, 0, 67, 0
3, 478080, Note_on_c, 0, 66, 75
3, 478560, Note_on_c, 0, 66, 0
3, 478560, Note_on_c, 0, 68, 76
3, 478560, Note_on_c, 0, 76, 76
3, 479520, Note_on_c, 0, 76, 0
3, 479520, Note_on_c, 0, 68, 0
3, 479520, Note_on_c, 0, 66, 79
3, 479520, Note_on_c, 0, 75, 79
3, 480000, Note_on_c, 0, 75, 0
3, 480000, Note_on_c, 0, 66, 0
3, 480000, Note_on_c, 0, 68, 80
3, 480000, Note_on_c, 0, 73, 80
3, 480480, Note_on_c, 0, 73, 0
3, 480480, Note_on_c, 0, 68, 0
3, 480480, Note_on_c, 0, 69, 81
3, 480960, Note_on_c, 0, 69, 0
3, 480960, Note_on_c, 0, 70, 83
3, 481440, Note_on_c, 0, 70, 0
3, 481440, Note_on_c, 0, 68, 84
3, 481920, Note_on_c, 0, 68, 0
3, 481920, Note_on_c, 0, 68, 85
3, 482400, Note_on_c, 0, 68, 0
3, 482400, Note_on_c, 0, 68, 87
3, 483360, Note_on_c, 0, 68, 0
3, 483360, Note_on_c, 0, 66, 89
3, 483360, Note_on_c, 0, 75, 89
3, 483840, Note_on_c, 0, 75, 0
3, 483840, Note_on_c, 0, 66, 0
3, 483840, Note_on_c, 0, 65, 90
3, 483840, Note_on_c, 0, 68, 90
3, 483840, Note_on_c, 0, 73, 90
3, 484320, Note_on_c, 0, 73, 0
3, 484320, Note_on_c, 0, 68, 0
3, 484320, Note_on_c, 0, 65, 0
3, 484320, Note_on_c, 0, 69, 92
3, 484800, Note_on_c, 0, 69, 0
3, 484800, Note_on_c, 0, 69, 93
3, 485760, Note_on_c, 0, 69, 0
3, 485760, Note_on_c, 0, 69, 97
3, 486000, Note_on_c, 0, 78, 98
3, 486232, Note_on_c, 0, 69, 0
3, 486240, Note_on_c, 0, 78, 0
3, 486240, Note_on_c, 0, 69, 97
3, 486240, Note_on_c, 0, 78, 97
3, 488160, Note_on_c, 0, 78, 0
3, 488160, Note_on_c, 0, 69, 0
3, 488160, Note_on_c, 0, 78, 87
3, 488160, Note_on_c, 0, 75, 87
3, 488160, Note_on_c, 0, 81, 87
3, 490080, Note_on_c, 0, 81, 0
3, 490080, Note_on_c, 0, 75, 0
3, 490080, Note_on_c, 0, 78, 0
3, 490080, Note_on_c, 0, 78, 77
3, 490080, Note_on_c, 0, 81, 77
3, 490080, Note_on_c, 0, 87, 77
3, 492000, Note_on_c, 0, 87, 0
3, 492000, Note_on_c, 0, 81, 0
3, 492000, Note_on_c, 0, 78, 0
3, 495840, Note_on_c, 0, 64, 63
3, 496080, Note_on_c, 0, 64, 0
3, 496080, Note_on_c, 0, 64, 62
3, 496320, Note_on_c, 0, 64, 0
3, 496320, Note_on_c, 0, 68, 61
3, 496560, Note_on_c, 0, 68, 0
3, 496560, Note_on_c, 0, 66, 60
3, 496800, Note_on_c, 0, 66, 0
3, 496800, Note_on_c, 0, 64, 60
3, 497040, Note_on_c, 0, 64, 0
3, 497040, Note_on_c, 0, 63, 59
3, 497242, Note_on_c, 0, 63, 0
3, 497280, Note_on_c, 0, 63, 58
3, 497472, Note_on_c, 0, 63, 0
3, 497520, Note_on_c, 0, 64, 57
3, 497712, Note_on_c, 0, 64, 0
3, 497760, Note_on_c, 0, 64, 56
3, 498000, Note_on_c, 0, 64, 0
3, 498000, Note_on_c, 0, 64, 55
3, 498240, Note_on_c, 0, 64, 0
3, 498240, Note_on_c, 0, 66, 54
3, 498480, Note_on_c, 0, 66, 0
3, 498480, Note_on_c, 0, 63, 53
3, 498720, Note_on_c, 0, 63, 0
3, 498720, Note_on_c, 0, 64, 52
3, 499200, Note_on_c, 0, 64, 0
3, 499680, Note_on_c, 0, 68, 63
3, 500160, Note_on_c, 0, 68, 0
3, 500160, Note_on_c, 0, 71, 61
3, 500400, Note_on_c, 0, 71, 0
3, 500400, Note_on_c, 0, 69, 60
3, 500640, Note_on_c, 0, 69, 0
3, 500640, Note_on_c, 0, 68, 61
3, 500880, Note_on_c, 0, 68, 0
3, 500880, Note_on_c, 0, 66, 62
3, 501072, Note_on_c, 0, 66, 0
3, 501120, Note_on_c, 0, 66, 63
3, 501312, Note_on_c, 0, 66, 0
3, 501360, Note_on_c, 0, 68, 65
3, 501552, Note_on_c, 0, 68, 0
3, 501600, Note_on_c, 0, 69, 66
3, 501840, Note_on_c, 0, 69, 0
3, 501840, Note_on_c, 0, 73, 67
3, 502080, Note_on_c, 0, 73, 0
3, 502080, Note_on_c, 0, 71, 69
3, 502272, Note_on_c, 0, 71, 0
3, 502320, Note_on_c, 0, 75, 69
3, 502512, Note_on_c, 0, 75, 0
3, 502560, Note_on_c, 0, 76, 62
3, 502920, Note_on_c, 0, 76, 0
3, 507840, Note_on_c, 0, 61, 65
3, 507840, Note_on_c, 0, 64, 65
3, 508032, Note_on_c, 0, 64, 0
3, 508032, Note_on_c, 0, 61, 0
3, 508080, Note_on_c, 0, 59, 67
3, 508080, Note_on_c, 0, 64, 67
3, 508272, Note_on_c, 0, 64, 0
3, 508272, Note_on_c, 0, 59, 0
3, 508320, Note_on_c, 0, 58, 69
3, 508320, Note_on_c, 0, 64, 69
3, 508800, Note_on_c, 0, 64, 0
3, 508800, Note_on_c, 0, 58, 0
3, 508800, Note_on_c, 0, 57, 73
3, 508800, Note_on_c, 0, 64, 73
3, 509280, Note_on_c, 0, 64, 0
3, 509280, Note_on_c, 0, 57, 0
3, 509280, Note_on_c, 0, 57, 71
3, 509280, Note_on_c, 0, 63, 71
3, 509520, Note_on_c, 0, 63, 0
3, 509520, Note_on_c, 0, 57, 0
3, 509520, Note_on_c, 0, 63, 68
3, 510000, Note_on_c, 0, 63, 0
3, 510000, Note_on_c, 0, 63, 62
3, 510240, Note_on_c, 0, 63, 0
3, 510960, Note_on_c, 0, 71, 60
3, 511200, Note_on_c, 0, 71, 0
3, 511200, Note_on_c, 0, 70, 63
3, 511680, Note_on_c, 0, 70, 0
3, 511680, Note_on_c, 0, 76, 69
3, 512160, Note_on_c, 0, 76, 0
3, 512160, Note_on_c, 0, 75, 68
3, 512880, Note_on_c, 0, 75, 0
3, 512880, Note_on_c, 0, 69, 62
3, 513120, Note_on_c, 0, 69, 0
3, 513120, Note_on_c, 0, 68, 64
3, 513600, Note_on_c, 0, 68, 0
3, 513600, Note_on_c, 0, 74, 68
3, 514080, Note_on_c, 0, 74, 0
3, 514080, Note_on_c, 0, 73, 65
3, 514800, Note_on_c, 0, 73, 0
3, 514800, Note_on_c, 0, 73, 60
3, 515040, Note_on_c, 0, 73, 0
3, 515040, Note_on_c, 0, 72, 61
3, 515280, Note_on_c, 0, 72, 0
3, 515280, Note_on_c, 0, 73, 63
3, 515472, Note_on_c, 0, 73, 0
3, 515520, Note_on_c, 0, 69, 65
3, 515712, Note_on_c, 0, 69, 0
3, 515760, Note_on_c, 0, 68, 67
3, 515952, Note_on_c, 0, 68, 0
3, 516000, Note_on_c, 0, 68, 69
3, 516240, Note_on_c, 0, 68, 0
3, 516240, Note_on_c, 0, 66, 71
3, 516720, Note_on_c, 0, 66, 0
3, 516720, Note_on_c, 0, 66, 77
3, 516960, Note_on_c, 0, 66, 0
3, 516960, Note_on_c, 0, 66, 71
3, 517200, Note_on_c, 0, 66, 0
3, 517200, Note_on_c, 0, 71, 67
3, 517440, Note_on_c, 0, 71, 0
3, 517440, Note_on_c, 0, 70, 62
3, 517680, Note_on_c, 0, 70, 0
3, 517680, Note_on_c, 0, 71, 58
3, 517920, Note_on_c, 0, 71, 0
3, 517920, Note_on_c, 0, 64, 54
3, 518400, Note_on_c, 0, 64, 0
3, 518880, Note_on_c, 0, 64, 59
3, 519120, Note_on_c, 0, 64, 0
3, 519120, Note_on_c, 0, 64, 59
3, 519360, Note_on_c, 0, 64, 0
3, 519360, Note_on_c, 0, 68, 58
3, 519600, Note_on_c, 0, 68, 0
3, 519600, Note_on_c, 0, 66, 57
3, 519840, Note_on_c, 0, 66, 0
3, 519840, Note_on_c, 0, 64, 56
3, 520080, Note_on_c, 0, 64, 0
3, 520080, Note_on_c, 0, 63, 56
3, 520282, Note_on_c, 0, 63, 0
3, 520320, Note_on_c, 0, 63, 55
3, 520512, Note_on_c, 0, 63, 0
3, 520560, Note_on_c, 0, 64, 54
3, 520752, Note_on_c, 0, 64, 0
3, 520800, Note_on_c, 0, 64, 53
3, 521040, Note_on_c, 0, 64, 0
3, 521040, Note_on_c, 0, 64, 53
3, 521280, Note_on_c, 0, 64, 0
3, 521280, Note_on_c, 0, 66, 52
3, 521520, Note_on_c, 0, 66, 0
3, 521520, Note_on_c, 0, 63, 51
3, 521760, Note_on_c, 0, 63, 0
3, 521760, Note_on_c, 0, 64, 50
3, 522210, Note_on_c, 0, 64, 0
3, 523200, Note_on_c, 0, 71, 64
3, 523440, Note_on_c, 0, 71, 0
3, 523440, Note_on_c, 0, 69, 62
3, 523680, Note_on_c, 0, 69, 0
3, 523680, Note_on_c, 0, 68, 66
3, 523920, Note_on_c, 0, 68, 0
3, 523920, Note_on_c, 0, 66, 69
3, 524112, Note_on_c, 0, 66, 0
3, 524160, Note_on_c, 0, 66, 73
3, 524352, Note_on_c, 0, 66, 0
3, 524400, Note_on_c, 0, 68, 76
3, 524592, Note_on_c, 0, 68, 0
3, 524640, Note_on_c, 0, 69, 79
3, 524880, Note_on_c, 0, 69, 0
3, 524880, Note_on_c, 0, 73, 82
3, 525120, Note_on_c, 0, 73, 0
3, 525120, Note_on_c, 0, 71, 85
3, 525312, Note_on_c, 0, 71, 0
3, 525360, Note_on_c, 0, 75, 88
3, 525360, Note_on_c, 0, 81, 88
3, 525552, Note_on_c, 0, 81, 0
3, 525552, Note_on_c, 0, 75, 0
3, 525600, Note_on_c, 0, 76, 86
3, 525600, Note_on_c, 0, 80, 86
3, 525960, Note_on_c, 0, 80, 0
3, 525960, Note_on_c, 0, 76, 0
3, 526320, Note_on_c, 0, 64, 91
3, 526476, Note_on_c, 0, 64, 0
3, 526560, Note_on_c, 0, 64, 96
3, 526920, Note_on_c, 0, 64, 0
3, 527280, Note_on_c, 0, 64, 71
3, 527280, Note_on_c, 0, 68, 71
3, 527436, Note_on_c, 0, 68, 0
3, 527436, Note_on_c, 0, 64, 0
3, 527520, Note_on_c, 0, 63, 76
3, 527520, Note_on_c, 0, 66, 76
3, 527520, Note_on_c, 0, 68, 76
3, 527880, Note_on_c, 0, 68, 0
3, 527880, Note_on_c, 0, 66, 0
3, 527880, Note_on_c, 0, 63, 0
3, 528240, Note_on_c, 0, 63, 91
3, 528396, Note_on_c, 0, 63, 0
3, 528480, Note_on_c, 0, 64, 96
3, 528480, Note_on_c, 0, 62, 96
3, 528840, Note_on_c, 0, 62, 0
3, 528840, Note_on_c, 0, 64, 0
3, 529200, Note_on_c, 0, 66, 66
3, 529200, Note_on_c, 0, 62, 66
3, 529200, Note_on_c, 0, 68, 66
3, 529356, Note_on_c, 0, 68, 0
3, 529356, Note_on_c, 0, 62, 0
3, 529356, Note_on_c, 0, 66, 0
3, 529440, Note_on_c, 0, 61, 72
3, 529440, Note_on_c, 0, 64, 72
3, 529800, Note_on_c, 0, 64, 0
3, 529800, Note_on_c, 0, 61, 0
3, 530400, Note_on_c, 0, 59, 90
3, 530760, Note_on_c, 0, 59, 0
3, 531120, Note_on_c, 0, 61, 63
3, 531120, Note_on_c, 0, 59, 63
3, 531276, Note_on_c, 0, 59, 0
3, 531276, Note_on_c, 0, 61, 0
3, 531360, Note_on_c, 0, 61, 68
3, 531360, Note_on_c, 0, 57, 68
3, 531720, Note_on_c, 0, 57, 0
3, 531720, Note_on_c, 0, 61, 0
3, 532080, Note_on_c, 0, 73, 87
3, 532080, Note_on_c, 0, 78, 87
3, 532236, Note_on_c, 0, 78, 0
3, 532236, Note_on_c, 0, 73, 0
3, 532320, Note_on_c, 0, 71, 92
3, 532320, Note_on_c, 0, 78, 92
3, 532680, Note_on_c, 0, 78, 0
3, 532680, Note_on_c, 0, 71, 0
3, 533040, Note_on_c, 0, 66, 80
3, 533196, Note_on_c, 0, 66, 0
3, 533280, Note_on_c, 0, 64, 86
3, 533640, Note_on_c, 0, 64, 0
3, 534000, Note_on_c, 0, 69, 78
3, 534000, Note_on_c, 0, 76, 78
3, 534156, Note_on_c, 0, 76, 0
3, 534156, Note_on_c, 0, 69, 0
3, 534240, Note_on_c, 0, 75, 82
3, 534240, Note_on_c, 0, 78, 82
3, 534240, Note_on_c, 0, 69, 82
3, 534480, Note_on_c, 0, 69, 0
3, 534480, Note_on_c, 0, 78, 0
3, 534480, Note_on_c, 0, 75, 0
3, 535200, Note_on_c, 0, 81, 62
3, 535920, Note_on_c, 0, 81, 0
3, 535920, Note_on_c, 0, 80, 67
3, 536076, Note_on_c, 0, 80, 0
3, 536160, Note_on_c, 0, 80, 71
3, 536400, Note_on_c, 0, 80, 0
3, 536400, Note_on_c, 0, 78, 69
3, 536556, Note_on_c, 0, 78, 0
3, 536640, Note_on_c, 0, 78, 67
3, 536880, Note_on_c, 0, 78, 0
3, 536880, Note_on_c, 0, 80, 65
3, 537036, Note_on_c, 0, 80, 0
3, 537120, Note_on_c, 0, 81, 64
3, 537840, Note_on_c, 0, 81, 0
3, 537840, Note_on_c, 0, 80, 63
3, 538080, Note_on_c, 0, 80, 0
3, 538080, Note_on_c, 0, 78, 65
3, 538320, Note_on_c, 0, 78, 0
3, 538320, Note_on_c, 0, 81, 67
3, 538560, Note_on_c, 0, 81, 0
3, 538560, Note_on_c, 0, 80, 69
3, 538800, Note_on_c, 0, 80, 0
3, 538800, Note_on_c, 0, 78, 71
3, 539040, Note_on_c, 0, 78, 0
3, 539040, Note_on_c, 0, 83, 75
3, 539280, Note_on_c, 0, 83, 0
3, 541080, Note_on_c, 0, 73, 57
3, 541200, Note_on_c, 0, 73, 0
3, 541200, Note_on_c, 0, 75, 57
3, 541320, Note_on_c, 0, 75, 0
3, 541320, Note_on_c, 0, 76, 56
3, 541440, Note_on_c, 0, 76, 0
3, 541440, Note_on_c, 0, 75, 56
3, 541560, Note_on_c, 0, 75, 0
3, 541560, Note_on_c, 0, 76, 56
3, 541680, Note_on_c, 0, 76, 0
3, 541680, Note_on_c, 0, 78, 55
3, 541800, Note_on_c, 0, 78, 0
3, 541800, Note_on_c, 0, 80, 55
3, 541920, Note_on_c, 0, 80, 0
3, 541920, Note_on_c, 0, 75, 55
3, 542160, Note_on_c, 0, 75, 0
3, 542880, Note_on_c, 0, 76, 54
3, 543600, Note_on_c, 0, 76, 0
3, 543600, Note_on_c, 0, 76, 55
3, 543756, Note_on_c, 0, 76, 0
3, 543840, Note_on_c, 0, 76, 56
3, 544080, Note_on_c, 0, 76, 0
3, 544080, Note_on_c, 0, 75, 57
3, 544236, Note_on_c, 0, 75, 0
3, 544320, Note_on_c, 0, 75, 55
3, 544560, Note_on_c, 0, 75, 0
3, 544560, Note_on_c, 0, 76, 52
3, 544716, Note_on_c, 0, 76, 0
3, 544800, Note_on_c, 0, 76, 55
3, 545520, Note_on_c, 0, 76, 0
3, 545520, Note_on_c, 0, 76, 57
3, 545676, Note_on_c, 0, 76, 0
3, 545760, Note_on_c, 0, 75, 59
3, 546000, Note_on_c, 0, 75, 0
3, 546000, Note_on_c, 0, 81, 61
3, 546240, Note_on_c, 0, 81, 0
3, 546240, Note_on_c, 0, 80, 60
3, 546480, Note_on_c, 0, 80, 0
3, 546480, Note_on_c, 0, 78, 60
3, 546720, Note_on_c, 0, 78, 0
3, 546720, Note_on_c, 0, 76, 59
3, 546960, Note_on_c, 0, 76, 0
3, 546960, Note_on_c, 0, 80, 58
3, 547200, Note_on_c, 0, 80, 0
3, 547200, Note_on_c, 0, 78, 57
3, 547440, Note_on_c, 0, 78, 0
3, 547440, Note_on_c, 0, 76, 56
3, 547680, Note_on_c, 0, 76, 0
3, 547680, Note_on_c, 0, 75, 55
3, 547920, Note_on_c, 0, 75, 0
3, 547920, Note_on_c, 0, 78, 54
3, 548160, Note_on_c, 0, 78, 0
3, 548160, Note_on_c, 0, 76, 53
3, 548400, Note_on_c, 0, 76, 0
3, 548400, Note_on_c, 0, 75, 52
3, 548640, Note_on_c, 0, 75, 0
3, 553440, Note_on_c, 0, 71, 64
3, 553440, Note_on_c, 0, 80, 64
3, 554400, Note_on_c, 0, 80, 0
3, 554400, Note_on_c, 0, 71, 0
3, 554400, Note_on_c, 0, 69, 67
3, 554400, Note_on_c, 0, 78, 67
3, 554880, Note_on_c, 0, 78, 0
3, 554880, Note_on_c, 0, 69, 0
3, 554880, Note_on_c, 0, 68, 69
3, 554880, Note_on_c, 0, 76, 69
3, 555360, Note_on_c, 0, 76, 0
3, 555360, Note_on_c, 0, 68, 0
3, 555360, Note_on_c, 0, 73, 71
3, 555840, Note_on_c, 0, 73, 0
3, 555840, Note_on_c, 0, 73, 73
3, 556320, Note_on_c, 0, 73, 0
3, 556320, Note_on_c, 0, 71, 75
3, 556800, Note_on_c, 0, 71, 0
3, 556800, Note_on_c, 0, 75, 76
3, 556800, Note_on_c, 0, 71, 76
3, 557280, Note_on_c, 0, 71, 0
3, 557280, Note_on_c, 0, 74, 78
3, 557280, Note_on_c, 0, 71, 78
3, 557287, Note_on_c, 0, 75, 0
3, 558240, Note_on_c, 0, 71, 0
3, 558240, Note_on_c, 0, 74, 0
3, 558240, Note_on_c, 0, 74, 82
3, 558240, Note_on_c, 0, 69, 82
3, 558720, Note_on_c, 0, 69, 0
3, 558720, Note_on_c, 0, 74, 0
3, 558720, Note_on_c, 0, 71, 84
3, 558720, Note_on_c, 0, 74, 84
3, 558720, Note_on_c, 0, 68, 84
3, 559200, Note_on_c, 0, 68, 0
3, 559200, Note_on_c, 0, 74, 0
3, 559200, Note_on_c, 0, 71, 0
3, 559200, Note_on_c, 0, 74, 85
3, 559680, Note_on_c, 0, 74, 0
3, 559680, Note_on_c, 0, 74, 87
3, 560160, Note_on_c, 0, 74, 0
3, 560160, Note_on_c, 0, 74, 89
3, 560160, Note_on_c, 0, 71, 89
3, 560640, Note_on_c, 0, 71, 0
3, 560640, Note_on_c, 0, 74, 0
3, 560640, Note_on_c, 0, 74, 91
3, 561120, Note_on_c, 0, 74, 0
3, 561120, Note_on_c, 0, 74, 93
3, 563160, Note_on_c, 0, 74, 0
3, 566880, Note_on_c, 0, 64, 60
3, 567840, Note_on_c, 0, 64, 0
3, 567840, Note_on_c, 0, 62, 54
3, 568320, Note_on_c, 0, 62, 0
3, 582360, Note_on_c, 0, 71, 47
3, 582480, Note_on_c, 0, 71, 0
3, 582600, Note_on_c, 0, 71, 48
3, 582720, Note_on_c, 0, 71, 0
3, 582840, Note_on_c, 0, 71, 50
3, 582960, Note_on_c, 0, 71, 0
3, 583080, Note_on_c, 0, 71, 51
3, 583200, Note_on_c, 0, 71, 0
3, 583320, Note_on_c, 0, 71, 52
3, 583440, Note_on_c, 0, 71, 0
3, 583560, Note_on_c, 0, 71, 54
3, 583680, Note_on_c, 0, 71, 0
3, 583800, Note_on_c, 0, 71, 55
3, 583920, Note_on_c, 0, 71, 0
3, 584040, Note_on_c, 0, 71, 57
3, 584160, Note_on_c, 0, 71, 0
3, 584280, Note_on_c, 0, 71, 57
3, 584400, Note_on_c, 0, 71, 0
3, 584520, Note_on_c, 0, 71, 55
3, 584640, Note_on_c, 0, 71, 0
3, 584760, Note_on_c, 0, 71, 54
3, 584880, Note_on_c, 0, 71, 0
3, 585000, Note_on_c, 0, 75, 53
3, 585120, Note_on_c, 0, 75, 0
3, 585360, Note_on_c, 0, 71, 55
3, 585576, Note_on_c, 0, 71, 0
3, 585600, Note_on_c, 0, 71, 55
3, 585816, Note_on_c, 0, 71, 0
3, 585840, Note_on_c, 0, 71, 56
3, 586056, Note_on_c, 0, 71, 0
3, 586080, Note_on_c, 0, 71, 57
3, 586200, Note_on_c, 0, 76, 57
3, 586320, Note_on_c, 0, 76, 0
3, 586320, Note_on_c, 0, 71, 0
3, 586320, Note_on_c, 0, 71, 58
3, 586440, Note_on_c, 0, 76, 58
3, 586560, Note_on_c, 0, 76, 0
3, 586560, Note_on_c, 0, 71, 0
3, 586560, Note_on_c, 0, 76, 59
3, 586680, Note_on_c, 0, 69, 59
3, 586800, Note_on_c, 0, 76, 0
3, 586800, Note_on_c, 0, 73, 59
3, 586896, Note_on_c, 0, 69, 0
3, 586920, Note_on_c, 0, 76, 60
3, 587040, Note_on_c, 0, 76, 0
3, 587040, Note_on_c, 0, 73, 0
3, 587040, Note_on_c, 0, 76, 60
3, 587160, Note_on_c, 0, 71, 61
3, 587280, Note_on_c, 0, 71, 0
3, 587280, Note_on_c, 0, 76, 0
3, 587280, Note_on_c, 0, 75, 61
3, 587400, Note_on_c, 0, 71, 62
3, 587520, Note_on_c, 0, 71, 0
3, 587520, Note_on_c, 0, 75, 0
3, 587520, Note_on_c, 0, 75, 62
3, 587640, Note_on_c, 0, 71, 62
3, 587712, Note_on_c, 0, 75, 0
3, 587760, Note_on_c, 0, 71, 0
3, 587760, Note_on_c, 0, 76, 63
3, 587880, Note_on_c, 0, 71, 63
3, 587952, Note_on_c, 0, 76, 0
3, 588000, Note_on_c, 0, 71, 0
3, 588000, Note_on_c, 0, 78, 66
3, 588120, Note_on_c, 0, 71, 69
3, 588240, Note_on_c, 0, 71, 0
3, 588240, Note_on_c, 0, 78, 0
3, 588240, Note_on_c, 0, 80, 71
3, 588360, Note_on_c, 0, 71, 73
3, 588480, Note_on_c, 0, 71, 0
3, 588480, Note_on_c, 0, 80, 0
3, 588480, Note_on_c, 0, 78, 75
3, 588600, Note_on_c, 0, 71, 73
3, 588672, Note_on_c, 0, 78, 0
3, 588720, Note_on_c, 0, 71, 0
3, 588720, Note_on_c, 0, 75, 69
3, 588720, Note_on_c, 0, 81, 69
3, 588912, Note_on_c, 0, 81, 0
3, 588912, Note_on_c, 0, 75, 0
3, 588960, Note_on_c, 0, 76, 59
3, 588960, Note_on_c, 0, 80, 59
3, 589080, Note_on_c, 0, 80, 0
3, 589080, Note_on_c, 0, 76, 0
3, 597360, Note_on_c, 0, 71, 68
3, 597600, Note_on_c, 0, 71, 0
3, 597600, Note_on_c, 0, 70, 69
3, 598080, Note_on_c, 0, 70, 0
3, 598080, Note_on_c, 0, 76, 71
3, 598560, Note_on_c, 0, 76, 0
3, 598560, Note_on_c, 0, 75, 68
3, 599280, Note_on_c, 0, 75, 0
3, 599280, Note_on_c, 0, 69, 67
3, 599520, Note_on_c, 0, 69, 0
3, 599520, Note_on_c, 0, 68, 68
3, 600000, Note_on_c, 0, 68, 0
3, 600000, Note_on_c, 0, 74, 72
3, 600480, Note_on_c, 0, 74, 0
3, 600480, Note_on_c, 0, 73, 69
3, 601200, Note_on_c, 0, 73, 0
3, 601200, Note_on_c, 0, 73, 70
3, 601440, Note_on_c, 0, 73, 0
3, 601440, Note_on_c, 0, 72, 71
3, 601680, Note_on_c, 0, 72, 0
3, 601680, Note_on_c, 0, 73, 73
3, 601872, Note_on_c, 0, 73, 0
3, 601920, Note_on_c, 0, 69, 74
3, 602112, Note_on_c, 0, 69, 0
3, 602160, Note_on_c, 0, 68, 75
3, 602352, Note_on_c, 0, 68, 0
3, 602400, Note_on_c, 0, 68, 77
3, 602640, Note_on_c, 0, 68, 0
3, 602640, Note_on_c, 0, 66, 78
3, 603120, Note_on_c, 0, 66, 0
3, 603120, Note_on_c, 0, 66, 81
3, 603360, Note_on_c, 0, 66, 0
3, 603360, Note_on_c, 0, 66, 81
3, 603600, Note_on_c, 0, 66, 0
3, 603600, Note_on_c, 0, 71, 78
3, 603840, Note_on_c, 0, 71, 0
3, 603840, Note_on_c, 0, 70, 77
3, 604080, Note_on_c, 0, 70, 0
3, 604080, Note_on_c, 0, 71, 77
3, 604320, Note_on_c, 0, 71, 0
3, 604320, Note_on_c, 0, 64, 76
3, 604560, Note_on_c, 0, 64, 0
3, 604560, Note_on_c, 0, 71, 75
3, 604800, Note_on_c, 0, 71, 0
3, 604800, Note_on_c, 0, 70, 74
3, 605040, Note_on_c, 0, 70, 0
3, 605040, Note_on_c, 0, 71, 73
3, 605280, Note_on_c, 0, 71, 0
3, 607200, Note_on_c, 0, 66, 70
3, 607440, Note_on_c, 0, 66, 0
3, 607440, Note_on_c, 0, 71, 72
3, 607680, Note_on_c, 0, 71, 0
3, 607680, Note_on_c, 0, 70, 75
3, 607920, Note_on_c, 0, 70, 0
3, 607920, Note_on_c, 0, 71, 77
3, 608160, Note_on_c, 0, 71, 0
3, 608160, Note_on_c, 0, 65, 80
3, 608400, Note_on_c, 0, 65, 0
3, 608400, Note_on_c, 0, 74, 83
3, 608640, Note_on_c, 0, 74, 0
3, 608640, Note_on_c, 0, 73, 85
3, 608880, Note_on_c, 0, 73, 0
3, 608880, Note_on_c, 0, 74, 88
3, 609120, Note_on_c, 0, 74, 0
3, 612480, Note_on_c, 0, 63, 63
3, 612720, Note_on_c, 0, 63, 0
3, 612720, Note_on_c, 0, 63, 61
3, 612960, Note_on_c, 0, 63, 0
3, 621840, Note_on_c, 0, 76, 58
3, 622080, Note_on_c, 0, 76, 0
3, 622080, Note_on_c, 0, 75, 58
3, 622320, Note_on_c, 0, 75, 0
3, 622320, Note_on_c, 0, 71, 57
3, 622560, Note_on_c, 0, 71, 0
3, 622560, Note_on_c, 0, 75, 57
3, 622752, Note_on_c, 0, 75, 0
3, 622800, Note_on_c, 0, 72, 57
3, 623040, Note_on_c, 0, 72, 0
3, 623040, Note_on_c, 0, 73, 56
3, 623280, Note_on_c, 0, 73, 0
3, 623280, Note_on_c, 0, 70, 56
3, 623520, Note_on_c, 0, 70, 0
3, 623520, Note_on_c, 0, 73, 55
3, 623712, Note_on_c, 0, 73, 0
3, 623760, Note_on_c, 0, 70, 55
3, 624000, Note_on_c, 0, 70, 0
3, 624000, Note_on_c, 0, 71, 54
3, 624240, Note_on_c, 0, 71, 0
3, 624240, Note_on_c, 0, 68, 54
3, 624480, Note_on_c, 0, 68, 0
3, 624480, Note_on_c, 0, 71, 53
3, 624672, Note_on_c, 0, 71, 0
3, 624720, Note_on_c, 0, 68, 53
3, 624960, Note_on_c, 0, 68, 0
3, 624960, Note_on_c, 0, 69, 53
3, 625200, Note_on_c, 0, 69, 0
3, 625200, Note_on_c, 0, 63, 52
3, 625440, Note_on_c, 0, 63, 0
3, 625440, Note_on_c, 0, 64, 56
3, 625604, Note_on_c, 0, 64, 0
3, 625680, Note_on_c, 0, 61, 60
3, 625892, Note_on_c, 0, 61, 0
3, 625920, Note_on_c, 0, 63, 64
3, 626180, Note_on_c, 0, 63, 0
3, 626400, Note_on_c, 0, 64, 63
3, 626640, Note_on_c, 0, 64, 0
3, 626640, Note_on_c, 0, 64, 62
3, 626880, Note_on_c, 0, 64, 0
3, 626880, Note_on_c, 0, 68, 62
3, 627120, Note_on_c, 0, 68, 0
3, 627120, Note_on_c, 0, 66, 61
3, 627360, Note_on_c, 0, 66, 0
3, 627360, Note_on_c, 0, 64, 60
3, 627600, Note_on_c, 0, 64, 0
3, 627600, Note_on_c, 0, 63, 59
3, 627792, Note_on_c, 0, 63, 0
3, 627840, Note_on_c, 0, 63, 58
3, 628032, Note_on_c, 0, 63, 0
3, 628080, Note_on_c, 0, 64, 57
3, 628272, Note_on_c, 0, 64, 0
3, 628320, Note_on_c, 0, 64, 56
3, 628560, Note_on_c, 0, 64, 0
3, 628560, Note_on_c, 0, 64, 55
3, 628800, Note_on_c, 0, 64, 0
3, 628800, Note_on_c, 0, 66, 55
3, 629040, Note_on_c, 0, 66, 0
3, 629040, Note_on_c, 0, 63, 54
3, 629280, Note_on_c, 0, 63, 0
3, 629280, Note_on_c, 0, 64, 53
3, 629760, Note_on_c, 0, 64, 0
3, 630000, Note_on_c, 0, 64, 55
3, 630192, Note_on_c, 0, 64, 0
3, 630240, Note_on_c, 0, 64, 57
3, 630480, Note_on_c, 0, 64, 0
3, 630480, Note_on_c, 0, 64, 57
3, 630720, Note_on_c, 0, 64, 0
3, 630720, Note_on_c, 0, 66, 56
3, 630960, Note_on_c, 0, 66, 0
3, 630960, Note_on_c, 0, 63, 55
3, 631200, Note_on_c, 0, 63, 0
3, 631200, Note_on_c, 0, 64, 54
3, 631680, Note_on_c, 0, 64, 0
3, 631920, Note_on_c, 0, 68, 51
3, 632160, Note_on_c, 0, 68, 0
3, 632160, Note_on_c, 0, 69, 57
3, 632400, Note_on_c, 0, 69, 0
3, 632400, Note_on_c, 0, 73, 56
3, 632640, Note_on_c, 0, 73, 0
3, 632640, Note_on_c, 0, 71, 54
3, 632880, Note_on_c, 0, 71, 0
3, 632880, Note_on_c, 0, 75, 53
3, 633120, Note_on_c, 0, 75, 0
3, 633120, Note_on_c, 0, 76, 52
3, 633600, Note_on_c, 0, 76, 0
3, 634560, Note_on_c, 0, 56, 51
3, 634800, Note_on_c, 0, 56, 0
3, 634800, Note_on_c, 0, 64, 51
3, 635040, Note_on_c, 0, 64, 0
3, 635040, Note_on_c, 0, 64, 49
3, 635040, Note_on_c, 0, 66, 49
3, 635280, Note_on_c, 0, 66, 0
3, 635280, Note_on_c, 0, 64, 0
3, 635280, Note_on_c, 0, 76, 51
3, 635280, Note_on_c, 0, 73, 51
3, 635520, Note_on_c, 0, 73, 0
3, 635520, Note_on_c, 0, 76, 0
3, 635520, Note_on_c, 0, 73, 53
3, 635760, Note_on_c, 0, 73, 0
3, 635760, End_track
4, 0, Start_track
4, 0, Title_t, "Piano"
4, 0, Control_c, 0, 0, 0
4, 0, Control_c, 0, 7, 115
4, 0, Control_c, 0, 10, 54
4, 0, Control_c, 0, 91, 91
4, 0, Control_c, 0, 93, 28
4, 0, Pitch_bend_c, 0, 8192
4, 0, Control_c, 0, 1, 0
4, 0, Control_c, 0, 64, 0
4, 1, Control_c, 0, 32, 0
4, 1, Program_c, 0, 0
4, 4320, Note_on_c, 0, 62, 64
4, 5040, Note_on_c, 0, 62, 0
4, 5040, Note_on_c, 0, 62, 58
4, 5280, Note_on_c, 0, 62, 0
4, 5280, Note_on_c, 0, 60, 57
4, 5640, Note_on_c, 0, 60, 0
4, 5760, Note_on_c, 0, 59, 55
4, 6120, Note_on_c, 0, 59, 0
4, 10080, Note_on_c, 0, 66, 60
4, 10800, Note_on_c, 0, 66, 0
4, 10800, Note_on_c, 0, 66, 54
4, 11040, Note_on_c, 0, 66, 0
4, 11040, Note_on_c, 0, 64, 53
4, 11400, Note_on_c, 0, 64, 0
4, 11520, Note_on_c, 0, 62, 50
4, 11880, Note_on_c, 0, 62, 0
4, 12960, Note_on_c, 0, 67, 50
4, 12960, Note_on_c, 0, 62, 50
4, 13920, Note_on_c, 0, 62, 0
4, 13920, Note_on_c, 0, 64, 53
4, 15360, Note_on_c, 0, 64, 0
4, 15360, Note_on_c, 0, 67, 0
4, 15360, Note_on_c, 0, 66, 58
4, 16800, Note_on_c, 0, 66, 0
4, 22080, Note_on_c, 0, 55, 51
4, 22560, Note_on_c, 0, 55, 0
4, 22560, Note_on_c, 0, 52, 49
4, 23040, Note_on_c, 0, 52, 0
4, 23040, Note_on_c, 0, 51, 46
4, 24960, Note_on_c, 0, 51, 0
4, 25920, Note_on_c, 0, 52, 57
4, 25920, Note_on_c, 0, 59, 57
4, 27360, Note_on_c, 0, 59, 0
4, 28800, Note_on_c, 0, 52, 0
4, 30240, Note_on_c, 0, 55, 75
4, 31200, Note_on_c, 0, 55, 0
4, 31680, Note_on_c, 0, 52, 62
4, 31680, Note_on_c, 0, 59, 62
4, 33120, Note_on_c, 0, 59, 0
4, 33120, Note_on_c, 0, 52, 0
4, 34560, Note_on_c, 0, 47, 70
4, 36000, Note_on_c, 0, 47, 0
4, 36000, Note_on_c, 0, 52, 64
4, 36480, Note_on_c, 0, 52, 0
4, 38400, Note_on_c, 0, 47, 44
4, 38640, Note_on_c, 0, 47, 0
4, 38880, Note_on_c, 0, 47, 47
4, 39840, Note_on_c, 0, 47, 0
4, 39840, Note_on_c, 0, 52, 52
4, 40080, Note_on_c, 0, 52, 0
4, 40320, Note_on_c, 0, 52, 54
4, 41280, Note_on_c, 0, 52, 0
4, 41280, Note_on_c, 0, 59, 59
4, 41520, Note_on_c, 0, 59, 0
4, 41760, Note_on_c, 0, 59, 61
4, 42720, Note_on_c, 0, 59, 0
4, 42720, Note_on_c, 0, 64, 66
4, 42960, Note_on_c, 0, 64, 0
4, 43200, Note_on_c, 0, 64, 69
4, 44160, Note_on_c, 0, 64, 0
4, 44160, Note_on_c, 0, 65, 78
4, 44160, Note_on_c, 0, 62, 78
4, 44160, Note_on_c, 0, 59, 78
4, 44400, Note_on_c, 0, 59, 0
4, 44400, Note_on_c, 0, 62, 0
4, 44400, Note_on_c, 0, 65, 0
4, 44640, Control_c, 0, 64, 127
4, 44640, Note_on_c, 0, 65, 89
4, 44640, Note_on_c, 0, 62, 89
4, 44640, Note_on_c, 0, 59, 89
4, 45360, Note_on_c, 0, 59, 0
4, 45360, Note_on_c, 0, 62, 0
4, 45360, Note_on_c, 0, 65, 0
4, 47760, Control_c, 0, 64, 0
4, 48480, Note_on_c, 0, 47, 72
4, 48720, Note_on_c, 0, 47, 0
4, 48960, Note_on_c, 0, 48, 70
4, 49200, Note_on_c, 0, 48, 0
4, 49920, Note_on_c, 0, 62, 83
4, 49920, Note_on_c, 0, 59, 83
4, 49920, Note_on_c, 0, 56, 83
4, 50160, Note_on_c, 0, 56, 0
4, 50160, Note_on_c, 0, 59, 0
4, 50160, Note_on_c, 0, 62, 0
4, 50400, Control_c, 0, 64, 127
4, 50400, Note_on_c, 0, 62, 92
4, 50400, Note_on_c, 0, 59, 92
4, 50400, Note_on_c, 0, 56, 92
4, 51120, Note_on_c, 0, 56, 0
4, 51120, Note_on_c, 0, 59, 0
4, 51120, Note_on_c, 0, 62, 0
4, 53520, Control_c, 0, 64, 0
4, 54240, Note_on_c, 0, 44, 66
4, 54600, Note_on_c, 0, 44, 0
4, 54720, Note_on_c, 0, 45, 61
4, 54960, Note_on_c, 0, 45, 0
4, 61440, Note_on_c, 0, 64, 62
4, 61680, Note_on_c, 0, 64, 0
4, 61920, Note_on_c, 0, 64, 64
4, 62880, Note_on_c, 0, 64, 0
4, 62880, Note_on_c, 0, 64, 67
4, 63120, Note_on_c, 0, 64, 0
4, 63360, Note_on_c, 0, 64, 68
4, 64320, Note_on_c, 0, 64, 0
4, 64320, Note_on_c, 0, 61, 71
4, 64320, Note_on_c, 0, 64, 71
4, 64560, Note_on_c, 0, 64, 0
4, 64560, Note_on_c, 0, 61, 0
4, 64800, Note_on_c, 0, 64, 73
4, 64800, Note_on_c, 0, 61, 73
4, 67200, Note_on_c, 0, 61, 0
4, 67200, Note_on_c, 0, 64, 0
4, 67200, Note_on_c, 0, 64, 81
4, 67200, Note_on_c, 0, 61, 81
4, 67680, Note_on_c, 0, 61, 0
4, 67680, Note_on_c, 0, 64, 0
4, 67680, Note_on_c, 0, 45, 76
4, 67680, Note_on_c, 0, 42, 76
4, 67920, Note_on_c, 0, 42, 0
4, 67920, Note_on_c, 0, 45, 0
4, 67920, Note_on_c, 0, 42, 70
4, 67920, Note_on_c, 0, 45, 70
4, 68160, Note_on_c, 0, 45, 0
4, 68160, Note_on_c, 0, 42, 0
4, 68160, Note_on_c, 0, 42, 71
4, 68160, Note_on_c, 0, 45, 71
4, 68400, Note_on_c, 0, 45, 0
4, 68400, Note_on_c, 0, 42, 0
4, 68400, Note_on_c, 0, 42, 72
4, 68400, Note_on_c, 0, 45, 72
4, 68640, Note_on_c, 0, 45, 0
4, 68640, Note_on_c, 0, 42, 0
4, 68640, Note_on_c, 0, 42, 72
4, 68640, Note_on_c, 0, 45, 72
4, 68880, Note_on_c, 0, 45, 0
4, 68880, Note_on_c, 0, 42, 0
4, 68880, Note_on_c, 0, 42, 73
4, 68880, Note_on_c, 0, 45, 73
4, 69120, Note_on_c, 0, 45, 0
4, 69120, Note_on_c, 0, 42, 0
4, 69120, Note_on_c, 0, 54, 77
4, 69120, Note_on_c, 0, 59, 77
4, 69360, Note_on_c, 0, 59, 0
4, 69360, Note_on_c, 0, 54, 0
4, 69360, Note_on_c, 0, 54, 77
4, 69360, Note_on_c, 0, 59, 77
4, 69600, Note_on_c, 0, 59, 0
4, 69600, Note_on_c, 0, 54, 0
4, 69600, Note_on_c, 0, 54, 78
4, 69600, Note_on_c, 0, 59, 78
4, 69840, Note_on_c, 0, 59, 0
4, 69840, Note_on_c, 0, 54, 0
4, 69840, Note_on_c, 0, 54, 78
4, 69840, Note_on_c, 0, 59, 78
4, 70080, Note_on_c, 0, 59, 0
4, 70080, Note_on_c, 0, 54, 0
4, 70080, Note_on_c, 0, 54, 78
4, 70080, Note_on_c, 0, 59, 78
4, 70320, Note_on_c, 0, 59, 0
4, 70320, Note_on_c, 0, 54, 0
4, 70320, Note_on_c, 0, 54, 78
4, 70320, Note_on_c, 0, 59, 78
4, 70560, Note_on_c, 0, 59, 0
4, 70560, Note_on_c, 0, 54, 0
4, 70560, Note_on_c, 0, 54, 78
4, 70560, Note_on_c, 0, 57, 78
4, 70800, Note_on_c, 0, 57, 0
4, 70800, Note_on_c, 0, 54, 0
4, 70800, Note_on_c, 0, 54, 79
4, 70800, Note_on_c, 0, 57, 79
4, 71040, Note_on_c, 0, 57, 0
4, 71040, Note_on_c, 0, 54, 0
4, 71040, Note_on_c, 0, 55, 79
4, 71280, Note_on_c, 0, 55, 0
4, 71280, Note_on_c, 0, 55, 79
4, 71520, Note_on_c, 0, 55, 0
4, 71520, Note_on_c, 0, 55, 79
4, 71760, Note_on_c, 0, 55, 0
4, 71760, Note_on_c, 0, 55, 79
4, 72000, Note_on_c, 0, 55, 0
4, 72000, Note_on_c, 0, 55, 80
4, 72000, Note_on_c, 0, 59, 80
4, 72240, Note_on_c, 0, 59, 0
4, 72240, Note_on_c, 0, 55, 0
4, 72240, Note_on_c, 0, 55, 80
4, 72240, Note_on_c, 0, 59, 80
4, 72480, Note_on_c, 0, 59, 0
4, 72480, Note_on_c, 0, 55, 0
4, 72480, Note_on_c, 0, 57, 80
4, 72720, Note_on_c, 0, 57, 0
4, 72720, Note_on_c, 0, 57, 80
4, 72960, Note_on_c, 0, 57, 0
4, 72960, Note_on_c, 0, 57, 81
4, 73200, Note_on_c, 0, 57, 0
4, 73200, Note_on_c, 0, 57, 81
4, 73440, Note_on_c, 0, 57, 0
4, 73440, Note_on_c, 0, 57, 81
4, 73440, Note_on_c, 0, 60, 81
4, 73680, Note_on_c, 0, 60, 0
4, 73680, Note_on_c, 0, 57, 0
4, 73680, Note_on_c, 0, 57, 81
4, 73680, Note_on_c, 0, 60, 81
4, 73920, Note_on_c, 0, 60, 0
4, 73920, Note_on_c, 0, 57, 0
4, 73920, Note_on_c, 0, 59, 81
4, 74160, Note_on_c, 0, 59, 0
4, 74160, Note_on_c, 0, 59, 82
4, 74400, Note_on_c, 0, 59, 0
4, 74400, Note_on_c, 0, 59, 82
4, 74640, Note_on_c, 0, 59, 0
4, 74640, Note_on_c, 0, 59, 82
4, 74880, Note_on_c, 0, 59, 0
4, 74880, Note_on_c, 0, 59, 82
4, 75120, Note_on_c, 0, 59, 0
4, 75120, Note_on_c, 0, 62, 83
4, 75120, Note_on_c, 0, 59, 83
4, 75360, Note_on_c, 0, 59, 0
4, 75360, Note_on_c, 0, 62, 0
4, 75360, Note_on_c, 0, 61, 83
4, 75360, Note_on_c, 0, 59, 83
4, 75600, Note_on_c, 0, 59, 0
4, 75600, Note_on_c, 0, 61, 0
4, 75600, Note_on_c, 0, 61, 83
4, 75600, Note_on_c, 0, 59, 83
4, 75840, Note_on_c, 0, 59, 0
4, 75840, Note_on_c, 0, 61, 0
4, 75840, Note_on_c, 0, 61, 83
4, 75840, Note_on_c, 0, 59, 83
4, 76080, Note_on_c, 0, 59, 0
4, 76080, Note_on_c, 0, 61, 0
4, 76080, Note_on_c, 0, 61, 83
4, 76080, Note_on_c, 0, 59, 83
4, 76320, Note_on_c, 0, 59, 0
4, 76320, Note_on_c, 0, 61, 0
4, 76560, Control_c, 0, 64, 0
4, 76620, Control_c, 0, 64, 127
4, 79200, Note_on_c, 0, 58, 84
4, 79200, Note_on_c, 0, 64, 84
4, 79200, Note_on_c, 0, 61, 84
4, 79440, Note_on_c, 0, 61, 0
4, 79440, Note_on_c, 0, 64, 0
4, 79440, Note_on_c, 0, 58, 0
4, 79440, Control_c, 0, 64, 0
4, 79440, Note_on_c, 0, 58, 87
4, 79440, Note_on_c, 0, 61, 87
4, 79440, Note_on_c, 0, 64, 87
4, 79500, Control_c, 0, 64, 127
4, 79680, Note_on_c, 0, 64, 0
4, 79680, Note_on_c, 0, 61, 0
4, 79680, Note_on_c, 0, 58, 0
4, 79680, Note_on_c, 0, 58, 90
4, 79680, Note_on_c, 0, 61, 90
4, 79680, Note_on_c, 0, 64, 90
4, 79920, Note_on_c, 0, 64, 0
4, 79920, Note_on_c, 0, 61, 0
4, 79920, Note_on_c, 0, 58, 0
4, 79920, Note_on_c, 0, 58, 93
4, 79920, Note_on_c, 0, 61, 93
4, 79920, Note_on_c, 0, 64, 93
4, 80160, Note_on_c, 0, 64, 0
4, 80160, Note_on_c, 0, 61, 0
4, 80160, Note_on_c, 0, 58, 0
4, 80160, Note_on_c, 0, 58, 96
4, 80160, Note_on_c, 0, 61, 96
4, 80160, Note_on_c, 0, 64, 96
4, 80400, Note_on_c, 0, 64, 0
4, 80400, Note_on_c, 0, 61, 0
4, 80400, Note_on_c, 0, 58, 0
4, 80400, Note_on_c, 0, 58, 99
4, 80400, Note_on_c, 0, 61, 99
4, 80400, Note_on_c, 0, 64, 99
4, 80640, Note_on_c, 0, 64, 0
4, 80640, Note_on_c, 0, 61, 0
4, 80640, Note_on_c, 0, 58, 0
4, 80640, Note_on_c, 0, 58, 102
4, 80640, Note_on_c, 0, 61, 102
4, 80640, Note_on_c, 0, 64, 102
4, 80880, Note_on_c, 0, 64, 0
4, 80880, Note_on_c, 0, 61, 0
4, 80880, Note_on_c, 0, 58, 0
4, 80880, Note_on_c, 0, 58, 105
4, 80880, Note_on_c, 0, 61, 105
4, 80880, Note_on_c, 0, 64, 105
4, 81120, Note_on_c, 0, 64, 0
4, 81120, Note_on_c, 0, 61, 0
4, 81120, Note_on_c, 0, 58, 0
4, 81120, Note_on_c, 0, 58, 107
4, 81120, Note_on_c, 0, 61, 107
4, 81120, Note_on_c, 0, 64, 107
4, 81360, Note_on_c, 0, 64, 0
4, 81360, Note_on_c, 0, 61, 0
4, 81360, Note_on_c, 0, 58, 0
4, 81360, Note_on_c, 0, 58, 103
4, 81360, Note_on_c, 0, 61, 103
4, 81360, Note_on_c, 0, 64, 103
4, 81600, Note_on_c, 0, 64, 0
4, 81600, Note_on_c, 0, 61, 0
4, 81600, Note_on_c, 0, 58, 0
4, 81600, Note_on_c, 0, 58, 100
4, 81600, Note_on_c, 0, 61, 100
4, 81600, Note_on_c, 0, 64, 100
4, 81840, Note_on_c, 0, 64, 0
4, 81840, Note_on_c, 0, 61, 0
4, 81840, Note_on_c, 0, 58, 0
4, 81840, Note_on_c, 0, 58, 97
4, 81840, Note_on_c, 0, 61, 97
4, 81840, Note_on_c, 0, 64, 97
4, 82080, Note_on_c, 0, 64, 0
4, 82080, Note_on_c, 0, 61, 0
4, 82080, Note_on_c, 0, 58, 0
4, 82080, Control_c, 0, 64, 0
4, 82080, Control_c, 0, 64, 0
4, 82140, Control_c, 0, 64, 127
4, 82200, Note_on_c, 0, 62, 71
4, 82320, Note_on_c, 0, 62, 0
4, 82320, Note_on_c, 0, 54, 71
4, 82440, Note_on_c, 0, 54, 0
4, 82440, Note_on_c, 0, 62, 71
4, 82560, Note_on_c, 0, 62, 0
4, 82560, Control_c, 0, 64, 0
4, 82620, Control_c, 0, 64, 127
4, 82680, Note_on_c, 0, 64, 70
4, 82800, Note_on_c, 0, 64, 0
4, 82800, Note_on_c, 0, 54, 70
4, 82920, Note_on_c, 0, 54, 0
4, 82920, Note_on_c, 0, 64, 70
4, 83040, Note_on_c, 0, 64, 0
4, 83040, Control_c, 0, 64, 0
4, 83100, Control_c, 0, 64, 127
4, 83160, Note_on_c, 0, 66, 70
4, 83280, Note_on_c, 0, 66, 0
4, 83280, Note_on_c, 0, 54, 69
4, 83400, Note_on_c, 0, 54, 0
4, 83400, Note_on_c, 0, 66, 69
4, 83520, Note_on_c, 0, 66, 0
4, 83520, Control_c, 0, 64, 0
4, 83580, Control_c, 0, 64, 127
4, 83640, Note_on_c, 0, 62, 69
4, 83760, Note_on_c, 0, 62, 0
4, 83760, Note_on_c, 0, 54, 69
4, 83880, Note_on_c, 0, 54, 0
4, 83880, Note_on_c, 0, 62, 68
4, 84000, Note_on_c, 0, 62, 0
4, 84000, Control_c, 0, 64, 0
4, 84000, Control_c, 0, 64, 0
4, 84060, Control_c, 0, 64, 127
4, 84060, Control_c, 0, 64, 127
4, 84120, Note_on_c, 0, 64, 68
4, 84240, Note_on_c, 0, 64, 0
4, 84240, Note_on_c, 0, 54, 68
4, 84360, Note_on_c, 0, 54, 0
4, 84360, Note_on_c, 0, 64, 68
4, 84480, Note_on_c, 0, 64, 0
4, 84480, Control_c, 0, 64, 0
4, 84540, Control_c, 0, 64, 127
4, 84600, Note_on_c, 0, 66, 67
4, 84720, Note_on_c, 0, 66, 0
4, 84720, Note_on_c, 0, 54, 67
4, 84840, Note_on_c, 0, 54, 0
4, 84840, Note_on_c, 0, 66, 67
4, 84960, Note_on_c, 0, 66, 0
4, 84960, Control_c, 0, 64, 0
4, 84960, Control_c, 0, 64, 0
4, 85020, Control_c, 0, 64, 127
4, 85020, Control_c, 0, 64, 127
4, 85080, Note_on_c, 0, 62, 66
4, 85200, Note_on_c, 0, 62, 0
4, 85200, Note_on_c, 0, 54, 66
4, 85320, Note_on_c, 0, 54, 0
4, 85320, Note_on_c, 0, 62, 66
4, 85440, Note_on_c, 0, 62, 0
4, 85440, Control_c, 0, 64, 0
4, 85440, Control_c, 0, 64, 0
4, 85500, Control_c, 0, 64, 127
4, 85500, Control_c, 0, 64, 127
4, 85560, Note_on_c, 0, 64, 66
4, 85680, Note_on_c, 0, 64, 0
4, 85680, Note_on_c, 0, 54, 66
4, 85800, Note_on_c, 0, 54, 0
4, 85800, Note_on_c, 0, 64, 65
4, 85920, Note_on_c, 0, 64, 0
4, 85920, Control_c, 0, 64, 0
4, 85920, Control_c, 0, 64, 0
4, 85980, Control_c, 0, 64, 127
4, 85980, Control_c, 0, 64, 127
4, 86040, Note_on_c, 0, 66, 65
4, 86160, Note_on_c, 0, 66, 0
4, 86160, Note_on_c, 0, 54, 65
4, 86280, Note_on_c, 0, 54, 0
4, 86280, Note_on_c, 0, 66, 65
4, 86400, Note_on_c, 0, 66, 0
4, 86400, Control_c, 0, 64, 0
4, 86400, Control_c, 0, 64, 0
4, 86400, Control_c, 0, 64, 0
4, 86460, Control_c, 0, 64, 127
4, 86460, Control_c, 0, 64, 127
4, 86460, Control_c, 0, 64, 127
4, 86520, Note_on_c, 0, 62, 64
4, 86640, Note_on_c, 0, 62, 0
4, 86640, Note_on_c, 0, 54, 64
4, 86760, Note_on_c, 0, 54, 0
4, 86760, Note_on_c, 0, 62, 64
4, 86880, Note_on_c, 0, 62, 0
4, 86880, Control_c, 0, 64, 0
4, 86880, Control_c, 0, 64, 0
4, 86940, Control_c, 0, 64, 127
4, 86940, Control_c, 0, 64, 127
4, 87000, Note_on_c, 0, 64, 63
4, 87120, Note_on_c, 0, 64, 0
4, 87120, Note_on_c, 0, 54, 63
4, 87240, Note_on_c, 0, 54, 0
4, 87240, Note_on_c, 0, 64, 63
4, 87360, Note_on_c, 0, 64, 0
4, 87360, Control_c, 0, 64, 0
4, 87420, Control_c, 0, 64, 127
4, 87480, Note_on_c, 0, 66, 63
4, 87600, Note_on_c, 0, 66, 0
4, 87600, Note_on_c, 0, 54, 62
4, 87720, Note_on_c, 0, 54, 0
4, 87720, Note_on_c, 0, 66, 62
4, 87840, Note_on_c, 0, 66, 0
4, 87840, Control_c, 0, 64, 0
4, 87900, Control_c, 0, 64, 127
4, 87960, Note_on_c, 0, 62, 62
4, 88080, Note_on_c, 0, 62, 0
4, 88080, Note_on_c, 0, 59, 62
4, 88200, Note_on_c, 0, 59, 0
4, 88200, Note_on_c, 0, 62, 61
4, 88320, Note_on_c, 0, 62, 0
4, 88320, Control_c, 0, 64, 0
4, 88380, Control_c, 0, 64, 127
4, 88440, Note_on_c, 0, 62, 61
4, 88560, Note_on_c, 0, 62, 0
4, 88560, Note_on_c, 0, 59, 61
4, 88680, Note_on_c, 0, 59, 0
4, 88680, Note_on_c, 0, 62, 61
4, 88800, Note_on_c, 0, 62, 0
4, 88800, Control_c, 0, 64, 0
4, 88860, Control_c, 0, 64, 127
4, 88920, Note_on_c, 0, 62, 60
4, 89040, Note_on_c, 0, 62, 0
4, 89040, Note_on_c, 0, 59, 60
4, 89160, Note_on_c, 0, 59, 0
4, 89160, Note_on_c, 0, 62, 60
4, 89280, Note_on_c, 0, 62, 0
4, 89280, Control_c, 0, 64, 0
4, 89280, Control_c, 0, 64, 0
4, 89340, Control_c, 0, 64, 127
4, 89340, Control_c, 0, 64, 127
4, 89400, Note_on_c, 0, 62, 59
4, 89520, Note_on_c, 0, 62, 0
4, 89520, Note_on_c, 0, 59, 59
4, 89640, Note_on_c, 0, 59, 0
4, 89640, Note_on_c, 0, 62, 59
4, 89760, Note_on_c, 0, 62, 0
4, 89760, Control_c, 0, 64, 0
4, 89820, Control_c, 0, 64, 127
4, 89880, Note_on_c, 0, 62, 59
4, 90000, Note_on_c, 0, 62, 0
4, 90000, Note_on_c, 0, 59, 59
4, 90120, Note_on_c, 0, 59, 0
4, 90120, Note_on_c, 0, 62, 58
4, 90240, Note_on_c, 0, 62, 0
4, 90240, Control_c, 0, 64, 0
4, 90300, Control_c, 0, 64, 127
4, 90360, Note_on_c, 0, 64, 58
4, 90480, Note_on_c, 0, 64, 0
4, 90480, Note_on_c, 0, 61, 58
4, 90600, Note_on_c, 0, 61, 0
4, 90600, Note_on_c, 0, 64, 58
4, 90720, Note_on_c, 0, 64, 0
4, 90720, Control_c, 0, 64, 0
4, 90780, Control_c, 0, 64, 127
4, 90840, Note_on_c, 0, 62, 71
4, 90960, Note_on_c, 0, 62, 0
4, 90960, Note_on_c, 0, 54, 71
4, 91080, Note_on_c, 0, 54, 0
4, 91080, Note_on_c, 0, 62, 71
4, 91200, Note_on_c, 0, 62, 0
4, 91200, Control_c, 0, 64, 0
4, 91260, Control_c, 0, 64, 127
4, 91320, Note_on_c, 0, 64, 70
4, 91440, Note_on_c, 0, 64, 0
4, 91440, Note_on_c, 0, 54, 70
4, 91560, Note_on_c, 0, 54, 0
4, 91560, Note_on_c, 0, 64, 70
4, 91680, Note_on_c, 0, 64, 0
4, 91680, Control_c, 0, 64, 0
4, 91680, Control_c, 0, 64, 0
4, 91740, Control_c, 0, 64, 127
4, 91740, Control_c, 0, 64, 127
4, 91800, Note_on_c, 0, 66, 69
4, 91920, Note_on_c, 0, 66, 0
4, 91920, Note_on_c, 0, 54, 69
4, 92040, Note_on_c, 0, 54, 0
4, 92040, Note_on_c, 0, 66, 69
4, 92160, Note_on_c, 0, 66, 0
4, 92160, Control_c, 0, 64, 0
4, 92220, Control_c, 0, 64, 127
4, 92280, Note_on_c, 0, 62, 68
4, 92400, Note_on_c, 0, 62, 0
4, 92400, Note_on_c, 0, 54, 68
4, 92520, Note_on_c, 0, 54, 0
4, 92520, Note_on_c, 0, 62, 68
4, 92640, Note_on_c, 0, 62, 0
4, 92640, Control_c, 0, 64, 0
4, 92700, Control_c, 0, 64, 127
4, 92760, Note_on_c, 0, 64, 68
4, 92880, Note_on_c, 0, 64, 0
4, 92880, Note_on_c, 0, 54, 67
4, 93000, Note_on_c, 0, 54, 0
4, 93000, Note_on_c, 0, 64, 67
4, 93120, Note_on_c, 0, 64, 0
4, 93120, Control_c, 0, 64, 0
4, 93180, Control_c, 0, 64, 127
4, 93240, Note_on_c, 0, 66, 67
4, 93360, Note_on_c, 0, 66, 0
4, 93360, Note_on_c, 0, 54, 66
4, 93480, Note_on_c, 0, 54, 0
4, 93480, Note_on_c, 0, 66, 66
4, 93600, Note_on_c, 0, 66, 0
4, 93600, Control_c, 0, 64, 0
4, 93660, Control_c, 0, 64, 127
4, 93720, Note_on_c, 0, 62, 66
4, 93840, Note_on_c, 0, 62, 0
4, 93840, Note_on_c, 0, 54, 66
4, 93960, Note_on_c, 0, 54, 0
4, 93960, Note_on_c, 0, 62, 65
4, 94080, Note_on_c, 0, 62, 0
4, 94080, Control_c, 0, 64, 0
4, 94080, Control_c, 0, 64, 0
4, 94140, Control_c, 0, 64, 127
4, 94140, Control_c, 0, 64, 127
4, 94200, Note_on_c, 0, 64, 65
4, 94320, Note_on_c, 0, 64, 0
4, 94320, Note_on_c, 0, 54, 65
4, 94440, Note_on_c, 0, 54, 0
4, 94440, Note_on_c, 0, 64, 64
4, 94560, Note_on_c, 0, 64, 0
4, 94560, Control_c, 0, 64, 0
4, 94620, Control_c, 0, 64, 127
4, 94680, Note_on_c, 0, 66, 64
4, 94800, Note_on_c, 0, 66, 0
4, 94800, Note_on_c, 0, 54, 64
4, 94920, Note_on_c, 0, 54, 0
4, 94920, Note_on_c, 0, 66, 64
4, 95040, Note_on_c, 0, 66, 0
4, 95040, Control_c, 0, 64, 0
4, 95100, Control_c, 0, 64, 127
4, 95160, Note_on_c, 0, 62, 63
4, 95280, Note_on_c, 0, 62, 0
4, 95280, Note_on_c, 0, 54, 63
4, 95400, Note_on_c, 0, 54, 0
4, 95400, Note_on_c, 0, 62, 63
4, 95520, Note_on_c, 0, 62, 0
4, 95520, Control_c, 0, 64, 0
4, 95580, Control_c, 0, 64, 127
4, 95640, Note_on_c, 0, 64, 62
4, 95760, Note_on_c, 0, 64, 0
4, 95760, Note_on_c, 0, 54, 62
4, 95880, Note_on_c, 0, 54, 0
4, 95880, Note_on_c, 0, 64, 62
4, 96000, Note_on_c, 0, 64, 0
4, 96000, Control_c, 0, 64, 0
4, 96060, Control_c, 0, 64, 127
4, 96120, Note_on_c, 0, 66, 61
4, 96240, Note_on_c, 0, 66, 0
4, 96240, Note_on_c, 0, 54, 61
4, 96360, Note_on_c, 0, 54, 0
4, 96360, Note_on_c, 0, 66, 61
4, 96480, Note_on_c, 0, 66, 0
4, 96480, Control_c, 0, 64, 0
4, 96480, Control_c, 0, 64, 0
4, 96540, Control_c, 0, 64, 127
4, 96540, Control_c, 0, 64, 127
4, 96600, Note_on_c, 0, 62, 61
4, 96720, Note_on_c, 0, 62, 0
4, 96720, Note_on_c, 0, 59, 60
4, 96840, Note_on_c, 0, 59, 0
4, 96840, Note_on_c, 0, 62, 60
4, 96960, Note_on_c, 0, 62, 0
4, 96960, Control_c, 0, 64, 0
4, 97020, Control_c, 0, 64, 127
4, 97080, Note_on_c, 0, 62, 60
4, 97200, Note_on_c, 0, 62, 0
4, 97200, Note_on_c, 0, 59, 59
4, 97320, Note_on_c, 0, 59, 0
4, 97320, Note_on_c, 0, 62, 59
4, 97440, Note_on_c, 0, 62, 0
4, 97440, Control_c, 0, 64, 0
4, 97500, Control_c, 0, 64, 127
4, 97560, Note_on_c, 0, 62, 59
4, 97680, Note_on_c, 0, 62, 0
4, 97680, Note_on_c, 0, 59, 59
4, 97800, Note_on_c, 0, 59, 0
4, 97800, Note_on_c, 0, 62, 58
4, 97920, Note_on_c, 0, 62, 0
4, 97920, Control_c, 0, 64, 0
4, 124800, Note_on_c, 0, 69, 53
4, 125034, Note_on_c, 0, 69, 0
4, 125280, Note_on_c, 0, 69, 53
4, 125514, Note_on_c, 0, 69, 0
4, 126240, Note_on_c, 0, 69, 55
4, 126480, Note_on_c, 0, 69, 0
4, 126720, Note_on_c, 0, 67, 55
4, 126954, Note_on_c, 0, 67, 0
4, 127680, Note_on_c, 0, 67, 56
4, 127914, Note_on_c, 0, 67, 0
4, 128160, Note_on_c, 0, 65, 57
4, 128394, Note_on_c, 0, 65, 0
4, 129120, Note_on_c, 0, 65, 58
4, 129360, Note_on_c, 0, 65, 0
4, 129600, Note_on_c, 0, 64, 58
4, 129840, Note_on_c, 0, 64, 0
4, 131040, Note_on_c, 0, 60, 65
4, 131328, Note_on_c, 0, 60, 0
4, 132000, Note_on_c, 0, 60, 70
4, 132240, Note_on_c, 0, 60, 0
4, 132480, Note_on_c, 0, 59, 72
4, 132768, Note_on_c, 0, 59, 0
4, 133440, Note_on_c, 0, 59, 77
4, 133740, Note_on_c, 0, 59, 0
4, 133920, Note_on_c, 0, 58, 79
4, 134220, Note_on_c, 0, 58, 0
4, 134880, Note_on_c, 0, 58, 84
4, 135120, Note_on_c, 0, 58, 0
4, 135360, Note_on_c, 0, 58, 95
4, 135360, Note_on_c, 0, 61, 95
4, 135600, Note_on_c, 0, 61, 0
4, 135600, Note_on_c, 0, 58, 0
4, 135600, Note_on_c, 0, 58, 93
4, 135600, Note_on_c, 0, 61, 93
4, 135840, Note_on_c, 0, 61, 0
4, 135840, Note_on_c, 0, 58, 0
4, 135840, Note_on_c, 0, 58, 91
4, 135840, Note_on_c, 0, 61, 91
4, 136080, Note_on_c, 0, 61, 0
4, 136080, Note_on_c, 0, 58, 0
4, 136080, Note_on_c, 0, 58, 89
4, 136080, Note_on_c, 0, 61, 89
4, 136320, Note_on_c, 0, 61, 0
4, 136320, Note_on_c, 0, 58, 0
4, 136320, Note_on_c, 0, 58, 87
4, 136320, Note_on_c, 0, 61, 87
4, 136560, Note_on_c, 0, 61, 0
4, 136560, Note_on_c, 0, 58, 0
4, 136560, Note_on_c, 0, 58, 85
4, 136560, Note_on_c, 0, 61, 85
4, 136800, Note_on_c, 0, 61, 0
4, 136800, Note_on_c, 0, 58, 0
4, 136800, Note_on_c, 0, 58, 91
4, 137040, Note_on_c, 0, 58, 0
4, 137040, Note_on_c, 0, 58, 89
4, 137280, Note_on_c, 0, 58, 0
4, 137280, Note_on_c, 0, 58, 88
4, 137520, Note_on_c, 0, 58, 0
4, 137520, Note_on_c, 0, 58, 86
4, 137760, Note_on_c, 0, 58, 0
4, 137760, Note_on_c, 0, 58, 84
4, 138000, Note_on_c, 0, 58, 0
4, 138000, Note_on_c, 0, 58, 82
4, 138240, Note_on_c, 0, 58, 0
4, 138240, Note_on_c, 0, 54, 87
4, 138480, Note_on_c, 0, 54, 0
4, 138480, Note_on_c, 0, 54, 86
4, 138720, Note_on_c, 0, 54, 0
4, 138720, Note_on_c, 0, 54, 84
4, 138960, Note_on_c, 0, 54, 0
4, 138960, Note_on_c, 0, 54, 83
4, 139200, Note_on_c, 0, 54, 0
4, 139200, Note_on_c, 0, 54, 82
4, 139440, Note_on_c, 0, 54, 0
4, 139440, Note_on_c, 0, 54, 81
4, 139680, Note_on_c, 0, 54, 0
4, 139680, Note_on_c, 0, 51, 87
4, 139920, Note_on_c, 0, 51, 0
4, 139920, Note_on_c, 0, 51, 85
4, 140160, Note_on_c, 0, 51, 0
4, 140160, Note_on_c, 0, 51, 83
4, 140400, Note_on_c, 0, 51, 0
4, 140400, Note_on_c, 0, 51, 81
4, 140640, Note_on_c, 0, 51, 0
4, 140640, Note_on_c, 0, 51, 79
4, 140880, Note_on_c, 0, 51, 0
4, 140880, Note_on_c, 0, 51, 77
4, 141120, Note_on_c, 0, 51, 0
4, 141120, Note_on_c, 0, 48, 83
4, 141360, Note_on_c, 0, 48, 0
4, 141360, Note_on_c, 0, 48, 81
4, 141600, Note_on_c, 0, 48, 0
4, 141600, Note_on_c, 0, 48, 79
4, 141840, Note_on_c, 0, 48, 0
4, 141840, Note_on_c, 0, 48, 78
4, 142080, Note_on_c, 0, 48, 0
4, 142080, Note_on_c, 0, 48, 76
4, 142320, Note_on_c, 0, 48, 0
4, 142320, Note_on_c, 0, 48, 74
4, 142560, Note_on_c, 0, 48, 0
4, 142560, Note_on_c, 0, 45, 81
4, 142560, Note_on_c, 0, 48, 81
4, 142800, Note_on_c, 0, 48, 0
4, 142800, Note_on_c, 0, 45, 0
4, 142800, Note_on_c, 0, 45, 79
4, 142800, Note_on_c, 0, 48, 79
4, 143040, Note_on_c, 0, 48, 0
4, 143040, Note_on_c, 0, 45, 0
4, 143040, Note_on_c, 0, 45, 78
4, 143040, Note_on_c, 0, 48, 78
4, 143280, Note_on_c, 0, 48, 0
4, 143280, Note_on_c, 0, 45, 0
4, 143280, Note_on_c, 0, 45, 76
4, 143280, Note_on_c, 0, 48, 76
4, 143520, Note_on_c, 0, 48, 0
4, 143520, Note_on_c, 0, 45, 0
4, 143520, Note_on_c, 0, 45, 74
4, 143520, Note_on_c, 0, 48, 74
4, 143760, Note_on_c, 0, 48, 0
4, 143760, Note_on_c, 0, 45, 0
4, 143760, Note_on_c, 0, 45, 73
4, 143760, Note_on_c, 0, 48, 73
4, 144000, Note_on_c, 0, 48, 0
4, 144000, Note_on_c, 0, 45, 0
4, 144000, Note_on_c, 0, 42, 81
4, 144000, Note_on_c, 0, 45, 81
4, 144000, Note_on_c, 0, 48, 81
4, 144240, Note_on_c, 0, 48, 0
4, 144240, Note_on_c, 0, 45, 0
4, 144240, Note_on_c, 0, 42, 0
4, 144240, Note_on_c, 0, 42, 75
4, 144240, Note_on_c, 0, 45, 75
4, 144240, Note_on_c, 0, 48, 75
4, 144480, Note_on_c, 0, 48, 0
4, 144480, Note_on_c, 0, 45, 0
4, 144480, Note_on_c, 0, 42, 0
4, 144480, Note_on_c, 0, 42, 75
4, 144480, Note_on_c, 0, 45, 75
4, 144480, Note_on_c, 0, 48, 75
4, 144720, Note_on_c, 0, 48, 0
4, 144720, Note_on_c, 0, 45, 0
4, 144720, Note_on_c, 0, 42, 0
4, 144720, Note_on_c, 0, 42, 74
4, 144720, Note_on_c, 0, 45, 74
4, 144720, Note_on_c, 0, 48, 74
4, 144960, Note_on_c, 0, 48, 0
4, 144960, Note_on_c, 0, 45, 0
4, 144960, Note_on_c, 0, 42, 0
4, 144960, Note_on_c, 0, 42, 73
4, 144960, Note_on_c, 0, 45, 73
4, 144960, Note_on_c, 0, 48, 73
4, 145200, Note_on_c, 0, 48, 0
4, 145200, Note_on_c, 0, 45, 0
4, 145200, Note_on_c, 0, 42, 0
4, 145200, Note_on_c, 0, 42, 72
4, 145200, Note_on_c, 0, 45, 72
4, 145200, Note_on_c, 0, 48, 72
4, 145440, Note_on_c, 0, 48, 0
4, 145440, Note_on_c, 0, 45, 0
4, 145440, Note_on_c, 0, 42, 0
4, 145440, Note_on_c, 0, 42, 72
4, 145440, Note_on_c, 0, 45, 72
4, 145440, Note_on_c, 0, 48, 72
4, 145680, Note_on_c, 0, 48, 0
4, 145680, Note_on_c, 0, 45, 0
4, 145680, Note_on_c, 0, 42, 0
4, 145680, Note_on_c, 0, 42, 71
4, 145680, Note_on_c, 0, 45, 71
4, 145680, Note_on_c, 0, 48, 71
4, 145920, Note_on_c, 0, 48, 0
4, 145920, Note_on_c, 0, 45, 0
4, 145920, Note_on_c, 0, 42, 0
4, 145920, Note_on_c, 0, 42, 70
4, 145920, Note_on_c, 0, 45, 70
4, 145920, Note_on_c, 0, 48, 70
4, 146160, Note_on_c, 0, 48, 0
4, 146160, Note_on_c, 0, 45, 0
4, 146160, Note_on_c, 0, 42, 0
4, 146160, Note_on_c, 0, 42, 70
4, 146160, Note_on_c, 0, 45, 70
4, 146160, Note_on_c, 0, 48, 70
4, 146400, Note_on_c, 0, 48, 0
4, 146400, Note_on_c, 0, 45, 0
4, 146400, Note_on_c, 0, 42, 0
4, 146400, Note_on_c, 0, 42, 69
4, 146400, Note_on_c, 0, 45, 69
4, 146400, Note_on_c, 0, 48, 69
4, 146640, Note_on_c, 0, 48, 0
4, 146640, Note_on_c, 0, 45, 0
4, 146640, Note_on_c, 0, 42, 0
4, 146640, Note_on_c, 0, 42, 68
4, 146640, Note_on_c, 0, 45, 68
4, 146640, Note_on_c, 0, 48, 68
4, 146880, Note_on_c, 0, 48, 0
4, 146880, Note_on_c, 0, 45, 0
4, 146880, Note_on_c, 0, 42, 0
4, 213120, Note_on_c, 0, 62, 63
4, 213840, Note_on_c, 0, 62, 0
4, 213840, Note_on_c, 0, 62, 58
4, 214080, Note_on_c, 0, 62, 0
4, 214080, Note_on_c, 0, 60, 57
4, 214440, Note_on_c, 0, 60, 0
4, 214560, Note_on_c, 0, 59, 55
4, 214920, Note_on_c, 0, 59, 0
4, 218880, Note_on_c, 0, 66, 59
4, 219600, Note_on_c, 0, 66, 0
4, 219600, Note_on_c, 0, 66, 54
4, 219840, Note_on_c, 0, 66, 0
4, 219840, Note_on_c, 0, 64, 53
4, 220200, Note_on_c, 0, 64, 0
4, 220320, Note_on_c, 0, 62, 50
4, 220680, Note_on_c, 0, 62, 0
4, 221760, Note_on_c, 0, 62, 52
4, 221760, Note_on_c, 0, 67, 52
4, 222720, Note_on_c, 0, 62, 0
4, 222720, Note_on_c, 0, 64, 55
4, 224160, Note_on_c, 0, 64, 0
4, 224160, Note_on_c, 0, 67, 0
4, 224160, Note_on_c, 0, 66, 60
4, 225600, Note_on_c, 0, 66, 0
4, 230880, Note_on_c, 0, 55, 47
4, 231360, Note_on_c, 0, 55, 0
4, 231360, Note_on_c, 0, 52, 45
4, 231840, Note_on_c, 0, 52, 0
4, 231840, Note_on_c, 0, 51, 43
4, 233760, Note_on_c, 0, 51, 0
4, 234720, Note_on_c, 0, 59, 50
4, 234720, Note_on_c, 0, 52, 50
4, 236160, Note_on_c, 0, 59, 0
4, 237600, Note_on_c, 0, 52, 0
4, 239040, Note_on_c, 0, 55, 71
4, 240000, Note_on_c, 0, 55, 0
4, 240480, Note_on_c, 0, 59, 58
4, 240480, Note_on_c, 0, 52, 58
4, 241920, Note_on_c, 0, 52, 0
4, 241920, Note_on_c, 0, 59, 0
4, 243360, Note_on_c, 0, 47, 72
4, 244800, Note_on_c, 0, 47, 0
4, 244800, Note_on_c, 0, 52, 55
4, 245280, Note_on_c, 0, 52, 0
4, 247200, Note_on_c, 0, 43, 44
4, 247440, Note_on_c, 0, 43, 0
4, 247680, Note_on_c, 0, 43, 47
4, 248640, Note_on_c, 0, 43, 0
4, 248640, Note_on_c, 0, 48, 52
4, 248880, Note_on_c, 0, 48, 0
4, 249120, Note_on_c, 0, 48, 54
4, 250080, Note_on_c, 0, 48, 0
4, 250080, Note_on_c, 0, 55, 59
4, 250320, Note_on_c, 0, 55, 0
4, 250560, Note_on_c, 0, 55, 61
4, 251520, Note_on_c, 0, 55, 0
4, 251520, Note_on_c, 0, 60, 66
4, 251760, Note_on_c, 0, 60, 0
4, 252000, Note_on_c, 0, 60, 69
4, 252960, Note_on_c, 0, 60, 0
4, 252960, Note_on_c, 0, 62, 78
4, 252960, Note_on_c, 0, 65, 78
4, 252960, Note_on_c, 0, 67, 78
4, 253200, Note_on_c, 0, 67, 0
4, 253200, Note_on_c, 0, 65, 0
4, 253200, Note_on_c, 0, 62, 0
4, 253440, Control_c, 0, 64, 127
4, 253440, Control_c, 0, 64, 127
4, 253440, Note_on_c, 0, 62, 94
4, 253440, Note_on_c, 0, 65, 94
4, 253440, Note_on_c, 0, 67, 94
4, 254160, Note_on_c, 0, 67, 0
4, 254160, Note_on_c, 0, 65, 0
4, 254160, Note_on_c, 0, 62, 0
4, 256560, Control_c, 0, 64, 0
4, 256560, Control_c, 0, 64, 0
4, 258720, Note_on_c, 0, 56, 83
4, 258720, Note_on_c, 0, 59, 83
4, 258720, Note_on_c, 0, 52, 83
4, 258720, Note_on_c, 0, 62, 83
4, 258960, Note_on_c, 0, 62, 0
4, 258960, Note_on_c, 0, 56, 0
4, 258960, Note_on_c, 0, 59, 0
4, 258960, Note_on_c, 0, 52, 0
4, 259200, Control_c, 0, 64, 127
4, 259200, Control_c, 0, 64, 127
4, 259200, Note_on_c, 0, 56, 87
4, 259200, Note_on_c, 0, 59, 87
4, 259200, Note_on_c, 0, 52, 87
4, 259200, Note_on_c, 0, 62, 87
4, 259920, Note_on_c, 0, 62, 0
4, 259920, Note_on_c, 0, 56, 0
4, 259920, Note_on_c, 0, 59, 0
4, 259920, Note_on_c, 0, 52, 0
4, 262320, Control_c, 0, 64, 0
4, 262320, Control_c, 0, 64, 0
4, 264480, Note_on_c, 0, 57, 60
4, 264840, Note_on_c, 0, 57, 0
4, 264960, Note_on_c, 0, 57, 69
4, 267361, Note_on_c, 0, 57, 0
4, 270240, Note_on_c, 0, 57, 69
4, 270480, Note_on_c, 0, 57, 0
4, 270720, Note_on_c, 0, 57, 71
4, 271680, Note_on_c, 0, 57, 0
4, 271680, Note_on_c, 0, 57, 74
4, 271920, Note_on_c, 0, 57, 0
4, 272160, Note_on_c, 0, 57, 76
4, 273120, Note_on_c, 0, 57, 0
4, 273120, Note_on_c, 0, 57, 79
4, 273600, Note_on_c, 0, 57, 0
4, 273600, Note_on_c, 0, 57, 80
4, 276000, Note_on_c, 0, 57, 0
4, 276000, Note_on_c, 0, 57, 76
4, 276480, Note_on_c, 0, 57, 0
4, 276720, Note_on_c, 0, 59, 76
4, 276960, Note_on_c, 0, 59, 0
4, 276960, Note_on_c, 0, 59, 76
4, 277200, Note_on_c, 0, 59, 0
4, 277200, Note_on_c, 0, 59, 76
4, 277440, Note_on_c, 0, 59, 0
4, 277440, Note_on_c, 0, 59, 77
4, 277680, Note_on_c, 0, 59, 0
4, 277680, Note_on_c, 0, 59, 77
4, 277920, Note_on_c, 0, 59, 0
4, 277920, Note_on_c, 0, 59, 77
4, 278160, Note_on_c, 0, 59, 0
4, 278160, Note_on_c, 0, 59, 77
4, 278400, Note_on_c, 0, 59, 0
4, 278400, Note_on_c, 0, 59, 78
4, 278640, Note_on_c, 0, 59, 0
4, 278640, Note_on_c, 0, 59, 78
4, 278880, Note_on_c, 0, 59, 0
4, 278880, Note_on_c, 0, 59, 78
4, 279120, Note_on_c, 0, 59, 0
4, 279120, Note_on_c, 0, 59, 78
4, 279360, Note_on_c, 0, 59, 0
4, 279360, Note_on_c, 0, 62, 78
4, 279360, Note_on_c, 0, 59, 78
4, 279600, Note_on_c, 0, 59, 0
4, 279600, Note_on_c, 0, 62, 0
4, 279600, Note_on_c, 0, 62, 79
4, 279600, Note_on_c, 0, 59, 79
4, 279840, Note_on_c, 0, 59, 0
4, 279840, Note_on_c, 0, 62, 0
4, 279840, Note_on_c, 0, 60, 79
4, 280080, Note_on_c, 0, 60, 0
4, 280080, Note_on_c, 0, 60, 79
4, 280320, Note_on_c, 0, 60, 0
4, 280320, Note_on_c, 0, 60, 79
4, 280560, Note_on_c, 0, 60, 0
4, 280560, Note_on_c, 0, 60, 79
4, 280800, Note_on_c, 0, 60, 0
4, 280800, Note_on_c, 0, 64, 80
4, 280800, Note_on_c, 0, 60, 80
4, 281040, Note_on_c, 0, 60, 0
4, 281040, Note_on_c, 0, 64, 0
4, 281040, Note_on_c, 0, 64, 80
4, 281040, Note_on_c, 0, 60, 80
4, 281280, Note_on_c, 0, 60, 0
4, 281280, Note_on_c, 0, 64, 0
4, 281280, Note_on_c, 0, 62, 80
4, 281520, Note_on_c, 0, 62, 0
4, 281520, Note_on_c, 0, 62, 80
4, 281760, Note_on_c, 0, 62, 0
4, 281760, Note_on_c, 0, 62, 81
4, 282000, Note_on_c, 0, 62, 0
4, 282000, Note_on_c, 0, 62, 81
4, 282240, Note_on_c, 0, 62, 0
4, 282240, Note_on_c, 0, 65, 81
4, 282240, Note_on_c, 0, 62, 81
4, 282480, Note_on_c, 0, 62, 0
4, 282480, Note_on_c, 0, 65, 0
4, 282480, Note_on_c, 0, 65, 81
4, 282480, Note_on_c, 0, 62, 81
4, 282720, Note_on_c, 0, 62, 0
4, 282720, Note_on_c, 0, 65, 0
4, 282720, Note_on_c, 0, 64, 81
4, 282960, Note_on_c, 0, 64, 0
4, 282960, Note_on_c, 0, 64, 82
4, 283200, Note_on_c, 0, 64, 0
4, 283200, Note_on_c, 0, 64, 82
4, 283440, Note_on_c, 0, 64, 0
4, 283440, Note_on_c, 0, 64, 82
4, 283680, Note_on_c, 0, 64, 0
4, 283680, Note_on_c, 0, 64, 82
4, 283920, Note_on_c, 0, 64, 0
4, 283920, Note_on_c, 0, 64, 83
4, 284160, Note_on_c, 0, 64, 0
4, 284160, Note_on_c, 0, 64, 83
4, 284400, Note_on_c, 0, 64, 0
4, 284400, Note_on_c, 0, 64, 83
4, 284640, Note_on_c, 0, 64, 0
4, 284640, Note_on_c, 0, 64, 83
4, 284880, Note_on_c, 0, 64, 0
4, 284880, Note_on_c, 0, 64, 83
4, 285120, Note_on_c, 0, 64, 0
4, 285360, Control_c, 0, 64, 0
4, 285420, Control_c, 0, 64, 127
4, 288000, Note_on_c, 0, 66, 84
4, 288000, Note_on_c, 0, 69, 84
4, 288000, Note_on_c, 0, 63, 84
4, 288240, Note_on_c, 0, 63, 0
4, 288240, Note_on_c, 0, 69, 0
4, 288240, Note_on_c, 0, 66, 0
4, 288240, Control_c, 0, 64, 0
4, 288240, Note_on_c, 0, 69, 87
4, 288240, Note_on_c, 0, 66, 87
4, 288240, Note_on_c, 0, 63, 87
4, 288300, Control_c, 0, 64, 127
4, 288480, Note_on_c, 0, 63, 0
4, 288480, Note_on_c, 0, 66, 0
4, 288480, Note_on_c, 0, 69, 0
4, 288480, Note_on_c, 0, 69, 89
4, 288480, Note_on_c, 0, 66, 89
4, 288480, Note_on_c, 0, 63, 89
4, 288720, Note_on_c, 0, 63, 0
4, 288720, Note_on_c, 0, 66, 0
4, 288720, Note_on_c, 0, 69, 0
4, 288720, Note_on_c, 0, 69, 92
4, 288720, Note_on_c, 0, 66, 92
4, 288720, Note_on_c, 0, 63, 92
4, 288960, Note_on_c, 0, 63, 0
4, 288960, Note_on_c, 0, 66, 0
4, 288960, Note_on_c, 0, 69, 0
4, 288960, Note_on_c, 0, 69, 94
4, 288960, Note_on_c, 0, 66, 94
4, 288960, Note_on_c, 0, 63, 94
4, 289200, Note_on_c, 0, 63, 0
4, 289200, Note_on_c, 0, 66, 0
4, 289200, Note_on_c, 0, 69, 0
4, 289200, Note_on_c, 0, 69, 97
4, 289200, Note_on_c, 0, 66, 97
4, 289200, Note_on_c, 0, 63, 97
4, 289440, Note_on_c, 0, 63, 0
4, 289440, Note_on_c, 0, 66, 0
4, 289440, Note_on_c, 0, 69, 0
4, 289440, Note_on_c, 0, 69, 100
4, 289440, Note_on_c, 0, 66, 100
4, 289440, Note_on_c, 0, 63, 100
4, 289680, Note_on_c, 0, 63, 0
4, 289680, Note_on_c, 0, 66, 0
4, 289680, Note_on_c, 0, 69, 0
4, 289680, Note_on_c, 0, 69, 102
4, 289680, Note_on_c, 0, 66, 102
4, 289680, Note_on_c, 0, 63, 102
4, 289920, Note_on_c, 0, 63, 0
4, 289920, Note_on_c, 0, 66, 0
4, 289920, Note_on_c, 0, 69, 0
4, 289920, Note_on_c, 0, 69, 101
4, 289920, Note_on_c, 0, 66, 101
4, 289920, Note_on_c, 0, 63, 101
4, 290160, Note_on_c, 0, 63, 0
4, 290160, Note_on_c, 0, 66, 0
4, 290160, Note_on_c, 0, 69, 0
4, 290160, Note_on_c, 0, 69, 99
4, 290160, Note_on_c, 0, 66, 99
4, 290160, Note_on_c, 0, 63, 99
4, 290400, Note_on_c, 0, 63, 0
4, 290400, Note_on_c, 0, 66, 0
4, 290400, Note_on_c, 0, 69, 0
4, 290400, Note_on_c, 0, 69, 96
4, 290400, Note_on_c, 0, 66, 96
4, 290400, Note_on_c, 0, 63, 96
4, 290640, Note_on_c, 0, 63, 0
4, 290640, Note_on_c, 0, 66, 0
4, 290640, Note_on_c, 0, 69, 0
4, 290640, Note_on_c, 0, 69, 93
4, 290640, Note_on_c, 0, 66, 93
4, 290640, Note_on_c, 0, 63, 93
4, 290880, Note_on_c, 0, 63, 0
4, 290880, Note_on_c, 0, 66, 0
4, 290880, Note_on_c, 0, 69, 0
4, 290880, Control_c, 0, 64, 0
4, 290880, Control_c, 0, 64, 0
4, 290940, Control_c, 0, 64, 127
4, 291000, Note_on_c, 0, 67, 71
4, 291120, Note_on_c, 0, 67, 0
4, 291120, Note_on_c, 0, 59, 71
4, 291240, Note_on_c, 0, 59, 0
4, 291240, Note_on_c, 0, 67, 71
4, 291360, Note_on_c, 0, 67, 0
4, 291360, Control_c, 0, 64, 0
4, 291420, Control_c, 0, 64, 127
4, 291480, Note_on_c, 0, 69, 71
4, 291600, Note_on_c, 0, 69, 0
4, 291600, Note_on_c, 0, 59, 70
4, 291720, Note_on_c, 0, 59, 0
4, 291720, Note_on_c, 0, 69, 70
4, 291840, Note_on_c, 0, 69, 0
4, 291840, Control_c, 0, 64, 0
4, 291900, Control_c, 0, 64, 127
4, 291960, Note_on_c, 0, 71, 70
4, 292080, Note_on_c, 0, 71, 0
4, 292080, Note_on_c, 0, 59, 70
4, 292200, Note_on_c, 0, 59, 0
4, 292200, Note_on_c, 0, 71, 70
4, 292320, Note_on_c, 0, 71, 0
4, 292320, Control_c, 0, 64, 0
4, 292380, Control_c, 0, 64, 127
4, 292440, Note_on_c, 0, 67, 69
4, 292560, Note_on_c, 0, 67, 0
4, 292560, Note_on_c, 0, 59, 69
4, 292680, Note_on_c, 0, 59, 0
4, 292680, Note_on_c, 0, 67, 69
4, 292800, Note_on_c, 0, 67, 0
4, 292800, Control_c, 0, 64, 0
4, 292800, Control_c, 0, 64, 0
4, 292860, Control_c, 0, 64, 127
4, 292860, Control_c, 0, 64, 127
4, 292920, Note_on_c, 0, 69, 69
4, 293040, Note_on_c, 0, 69, 0
4, 293040, Note_on_c, 0, 59, 68
4, 293160, Note_on_c, 0, 59, 0
4, 293160, Note_on_c, 0, 69, 68
4, 293280, Note_on_c, 0, 69, 0
4, 293280, Control_c, 0, 64, 0
4, 293340, Control_c, 0, 64, 127
4, 293400, Note_on_c, 0, 71, 68
4, 293520, Note_on_c, 0, 71, 0
4, 293520, Note_on_c, 0, 59, 68
4, 293640, Note_on_c, 0, 59, 0
4, 293640, Note_on_c, 0, 71, 68
4, 293760, Note_on_c, 0, 71, 0
4, 293760, Control_c, 0, 64, 0
4, 293760, Control_c, 0, 64, 0
4, 293820, Control_c, 0, 64, 127
4, 293820, Control_c, 0, 64, 127
4, 293880, Note_on_c, 0, 67, 67
4, 294000, Note_on_c, 0, 67, 0
4, 294000, Note_on_c, 0, 59, 67
4, 294120, Note_on_c, 0, 59, 0
4, 294120, Note_on_c, 0, 67, 67
4, 294240, Note_on_c, 0, 67, 0
4, 294240, Control_c, 0, 64, 0
4, 294240, Control_c, 0, 64, 0
4, 294300, Control_c, 0, 64, 127
4, 294300, Control_c, 0, 64, 127
4, 294360, Note_on_c, 0, 69, 67
4, 294480, Note_on_c, 0, 69, 0
4, 294480, Note_on_c, 0, 59, 66
4, 294600, Note_on_c, 0, 59, 0
4, 294600, Note_on_c, 0, 69, 66
4, 294720, Note_on_c, 0, 69, 0
4, 294720, Control_c, 0, 64, 0
4, 294720, Control_c, 0, 64, 0
4, 294780, Control_c, 0, 64, 127
4, 294780, Control_c, 0, 64, 127
4, 294840, Note_on_c, 0, 71, 66
4, 294960, Note_on_c, 0, 71, 0
4, 294960, Note_on_c, 0, 59, 66
4, 295080, Note_on_c, 0, 59, 0
4, 295080, Note_on_c, 0, 71, 66
4, 295200, Note_on_c, 0, 71, 0
4, 295200, Control_c, 0, 64, 0
4, 295200, Control_c, 0, 64, 0
4, 295200, Control_c, 0, 64, 0
4, 295260, Control_c, 0, 64, 127
4, 295260, Control_c, 0, 64, 127
4, 295260, Control_c, 0, 64, 127
4, 295320, Note_on_c, 0, 67, 65
4, 295440, Note_on_c, 0, 67, 0
4, 295440, Note_on_c, 0, 59, 65
4, 295560, Note_on_c, 0, 59, 0
4, 295560, Note_on_c, 0, 67, 65
4, 295680, Note_on_c, 0, 67, 0
4, 295680, Control_c, 0, 64, 0
4, 295680, Control_c, 0, 64, 0
4, 295740, Control_c, 0, 64, 127
4, 295740, Control_c, 0, 64, 127
4, 295800, Note_on_c, 0, 69, 65
4, 295920, Note_on_c, 0, 69, 0
4, 295920, Note_on_c, 0, 59, 64
4, 296040, Note_on_c, 0, 59, 0
4, 296040, Note_on_c, 0, 69, 64
4, 296160, Note_on_c, 0, 69, 0
4, 296160, Control_c, 0, 64, 0
4, 296220, Control_c, 0, 64, 127
4, 296280, Note_on_c, 0, 71, 64
4, 296400, Note_on_c, 0, 71, 0
4, 296400, Note_on_c, 0, 59, 64
4, 296520, Note_on_c, 0, 59, 0
4, 296520, Note_on_c, 0, 71, 64
4, 296640, Note_on_c, 0, 71, 0
4, 296640, Control_c, 0, 64, 0
4, 296700, Control_c, 0, 64, 127
4, 296760, Note_on_c, 0, 67, 63
4, 296880, Note_on_c, 0, 67, 0
4, 296880, Note_on_c, 0, 64, 63
4, 297000, Note_on_c, 0, 64, 0
4, 297000, Note_on_c, 0, 67, 63
4, 297120, Note_on_c, 0, 67, 0
4, 297120, Control_c, 0, 64, 0
4, 297180, Control_c, 0, 64, 127
4, 297240, Note_on_c, 0, 67, 63
4, 297360, Note_on_c, 0, 67, 0
4, 297360, Note_on_c, 0, 64, 62
4, 297480, Note_on_c, 0, 64, 0
4, 297480, Note_on_c, 0, 67, 62
4, 297600, Note_on_c, 0, 67, 0
4, 297600, Control_c, 0, 64, 0
4, 297660, Control_c, 0, 64, 127
4, 297720, Note_on_c, 0, 67, 62
4, 297840, Note_on_c, 0, 67, 0
4, 297840, Note_on_c, 0, 64, 62
4, 297960, Note_on_c, 0, 64, 0
4, 297960, Note_on_c, 0, 67, 62
4, 298080, Note_on_c, 0, 67, 0
4, 298080, Control_c, 0, 64, 0
4, 298080, Control_c, 0, 64, 0
4, 298140, Control_c, 0, 64, 127
4, 298140, Control_c, 0, 64, 127
4, 298200, Note_on_c, 0, 67, 61
4, 298320, Note_on_c, 0, 67, 0
4, 298320, Note_on_c, 0, 64, 61
4, 298440, Note_on_c, 0, 64, 0
4, 298440, Note_on_c, 0, 67, 61
4, 298560, Note_on_c, 0, 67, 0
4, 298560, Control_c, 0, 64, 0
4, 298620, Control_c, 0, 64, 127
4, 298680, Note_on_c, 0, 67, 61
4, 298800, Note_on_c, 0, 67, 0
4, 298800, Note_on_c, 0, 64, 60
4, 298920, Note_on_c, 0, 64, 0
4, 298920, Note_on_c, 0, 67, 60
4, 299040, Note_on_c, 0, 67, 0
4, 299040, Control_c, 0, 64, 0
4, 299100, Control_c, 0, 64, 127
4, 299160, Note_on_c, 0, 69, 60
4, 299280, Note_on_c, 0, 69, 0
4, 299280, Note_on_c, 0, 66, 60
4, 299400, Note_on_c, 0, 66, 0
4, 299400, Note_on_c, 0, 69, 60
4, 299520, Note_on_c, 0, 69, 0
4, 299520, Control_c, 0, 64, 0
4, 299580, Control_c, 0, 64, 127
4, 299640, Note_on_c, 0, 55, 71
4, 299760, Note_on_c, 0, 55, 0
4, 299760, Note_on_c, 0, 47, 71
4, 299880, Note_on_c, 0, 47, 0
4, 299880, Note_on_c, 0, 55, 71
4, 300000, Note_on_c, 0, 55, 0
4, 300000, Control_c, 0, 64, 0
4, 300060, Control_c, 0, 64, 127
4, 300120, Note_on_c, 0, 57, 70
4, 300240, Note_on_c, 0, 57, 0
4, 300240, Note_on_c, 0, 47, 70
4, 300360, Note_on_c, 0, 47, 0
4, 300360, Note_on_c, 0, 57, 70
4, 300480, Note_on_c, 0, 57, 0
4, 300480, Control_c, 0, 64, 0
4, 300480, Control_c, 0, 64, 0
4, 300540, Control_c, 0, 64, 127
4, 300540, Control_c, 0, 64, 127
4, 300600, Note_on_c, 0, 59, 69
4, 300720, Note_on_c, 0, 59, 0
4, 300720, Note_on_c, 0, 47, 69
4, 300840, Note_on_c, 0, 47, 0
4, 300840, Note_on_c, 0, 59, 69
4, 300960, Note_on_c, 0, 59, 0
4, 300960, Control_c, 0, 64, 0
4, 301020, Control_c, 0, 64, 127
4, 301080, Note_on_c, 0, 55, 68
4, 301200, Note_on_c, 0, 55, 0
4, 301200, Note_on_c, 0, 47, 68
4, 301320, Note_on_c, 0, 47, 0
4, 301320, Note_on_c, 0, 55, 68
4, 301440, Note_on_c, 0, 55, 0
4, 301440, Control_c, 0, 64, 0
4, 301500, Control_c, 0, 64, 127
4, 301560, Note_on_c, 0, 57, 68
4, 301680, Note_on_c, 0, 57, 0
4, 301680, Note_on_c, 0, 47, 67
4, 301800, Note_on_c, 0, 47, 0
4, 301800, Note_on_c, 0, 57, 67
4, 301920, Note_on_c, 0, 57, 0
4, 301920, Control_c, 0, 64, 0
4, 301980, Control_c, 0, 64, 127
4, 302040, Note_on_c, 0, 59, 67
4, 302160, Note_on_c, 0, 59, 0
4, 302160, Note_on_c, 0, 47, 66
4, 302280, Note_on_c, 0, 47, 0
4, 302280, Note_on_c, 0, 59, 66
4, 302400, Note_on_c, 0, 59, 0
4, 302400, Control_c, 0, 64, 0
4, 302460, Control_c, 0, 64, 127
4, 302520, Note_on_c, 0, 55, 66
4, 302640, Note_on_c, 0, 55, 0
4, 302640, Note_on_c, 0, 47, 66
4, 302760, Note_on_c, 0, 47, 0
4, 302760, Note_on_c, 0, 55, 65
4, 302880, Note_on_c, 0, 55, 0
4, 302880, Control_c, 0, 64, 0
4, 302880, Control_c, 0, 64, 0
4, 302940, Control_c, 0, 64, 127
4, 302940, Control_c, 0, 64, 127
4, 303000, Note_on_c, 0, 57, 65
4, 303120, Note_on_c, 0, 57, 0
4, 303120, Note_on_c, 0, 47, 65
4, 303240, Note_on_c, 0, 47, 0
4, 303240, Note_on_c, 0, 57, 64
4, 303360, Note_on_c, 0, 57, 0
4, 303360, Control_c, 0, 64, 0
4, 303420, Control_c, 0, 64, 127
4, 303480, Note_on_c, 0, 59, 64
4, 303600, Note_on_c, 0, 59, 0
4, 303600, Note_on_c, 0, 47, 64
4, 303720, Note_on_c, 0, 47, 0
4, 303720, Note_on_c, 0, 59, 64
4, 303840, Note_on_c, 0, 59, 0
4, 303840, Control_c, 0, 64, 0
4, 303900, Control_c, 0, 64, 127
4, 303960, Note_on_c, 0, 55, 63
4, 304080, Note_on_c, 0, 55, 0
4, 304080, Note_on_c, 0, 47, 63
4, 304200, Note_on_c, 0, 47, 0
4, 304200, Note_on_c, 0, 55, 63
4, 304320, Note_on_c, 0, 55, 0
4, 304320, Control_c, 0, 64, 0
4, 304380, Control_c, 0, 64, 127
4, 304440, Note_on_c, 0, 57, 62
4, 304560, Note_on_c, 0, 57, 0
4, 304560, Note_on_c, 0, 47, 62
4, 304680, Note_on_c, 0, 47, 0
4, 304680, Note_on_c, 0, 57, 62
4, 304800, Note_on_c, 0, 57, 0
4, 304800, Control_c, 0, 64, 0
4, 304860, Control_c, 0, 64, 127
4, 304920, Note_on_c, 0, 59, 61
4, 305040, Note_on_c, 0, 59, 0
4, 305040, Note_on_c, 0, 47, 61
4, 305160, Note_on_c, 0, 47, 0
4, 305160, Note_on_c, 0, 59, 61
4, 305280, Note_on_c, 0, 59, 0
4, 305280, Control_c, 0, 64, 0
4, 305280, Control_c, 0, 64, 0
4, 305340, Control_c, 0, 64, 127
4, 305340, Control_c, 0, 64, 127
4, 305400, Note_on_c, 0, 55, 60
4, 305520, Note_on_c, 0, 55, 0
4, 305520, Note_on_c, 0, 52, 60
4, 305640, Note_on_c, 0, 52, 0
4, 305640, Note_on_c, 0, 55, 60
4, 305760, Note_on_c, 0, 55, 0
4, 305760, Control_c, 0, 64, 0
4, 305820, Control_c, 0, 64, 127
4, 305880, Note_on_c, 0, 55, 60
4, 306000, Note_on_c, 0, 55, 0
4, 306000, Note_on_c, 0, 52, 59
4, 306120, Note_on_c, 0, 52, 0
4, 306120, Note_on_c, 0, 55, 59
4, 306240, Note_on_c, 0, 55, 0
4, 306240, Control_c, 0, 64, 0
4, 306300, Control_c, 0, 64, 127
4, 306360, Note_on_c, 0, 55, 59
4, 306480, Note_on_c, 0, 55, 0
4, 306480, Note_on_c, 0, 52, 58
4, 306600, Note_on_c, 0, 52, 0
4, 306600, Note_on_c, 0, 55, 58
4, 306720, Note_on_c, 0, 55, 0
4, 306720, Control_c, 0, 64, 0
4, 335520, Note_on_c, 0, 75, 50
4, 335520, Note_on_c, 0, 78, 50
4, 335520, Note_on_c, 0, 81, 50
4, 336960, Note_on_c, 0, 81, 0
4, 336960, Note_on_c, 0, 78, 0
4, 336960, Note_on_c, 0, 75, 0
4, 339360, Note_on_c, 0, 69, 73
4, 339840, Note_on_c, 0, 69, 0
4, 339840, Note_on_c, 0, 67, 79
4, 340560, Note_on_c, 0, 67, 0
4, 340560, Note_on_c, 0, 69, 71
4, 340800, Note_on_c, 0, 69, 0
4, 341280, Note_on_c, 0, 66, 63
4, 341280, Note_on_c, 0, 69, 63
4, 341640, Note_on_c, 0, 69, 0
4, 341640, Note_on_c, 0, 66, 0
4, 342720, Note_on_c, 0, 74, 66
4, 343440, Note_on_c, 0, 74, 0
4, 343440, Note_on_c, 0, 74, 57
4, 343680, Note_on_c, 0, 74, 0
4, 343680, Note_on_c, 0, 72, 54
4, 344040, Note_on_c, 0, 72, 0
4, 344160, Note_on_c, 0, 71, 48
4, 344520, Note_on_c, 0, 71, 0
4, 349920, Note_on_c, 0, 59, 56
4, 349920, Note_on_c, 0, 52, 56
4, 351360, Note_on_c, 0, 59, 0
4, 352800, Note_on_c, 0, 52, 0
4, 354240, Note_on_c, 0, 55, 61
4, 355200, Note_on_c, 0, 55, 0
4, 355200, Note_on_c, 0, 47, 60
4, 355440, Note_on_c, 0, 47, 0
4, 355440, Note_on_c, 0, 45, 61
4, 355680, Note_on_c, 0, 45, 0
4, 355680, Note_on_c, 0, 43, 62
4, 356640, Note_on_c, 0, 43, 0
4, 356640, Note_on_c, 0, 44, 67
4, 357120, Note_on_c, 0, 44, 0
4, 357120, Note_on_c, 0, 45, 69
4, 358080, Note_on_c, 0, 45, 0
4, 358080, Note_on_c, 0, 46, 65
4, 358560, Note_on_c, 0, 46, 0
4, 358560, Note_on_c, 0, 47, 62
4, 360000, Note_on_c, 0, 47, 0
4, 361440, Control_c, 0, 7, 112
4, 361440, Pitch_bend_c, 0, 8192
4, 361440, Control_c, 0, 1, 0
4, 361440, Control_c, 0, 64, 0
4, 361440, Control_c, 0, 93, 28
4, 361440, Control_c, 0, 91, 91
4, 361440, Control_c, 0, 10, 64
4, 361440, Control_c, 0, 0, 0
4, 361440, Control_c, 0, 32, 0
4, 361440, Program_c, 0, 0
4, 362400, Control_c, 0, 64, 0
4, 362400, Note_on_c, 0, 52, 55
4, 362440, Control_c, 0, 64, 127
4, 362520, Note_on_c, 0, 59, 61
4, 362640, Note_on_c, 0, 59, 0
4, 362760, Note_on_c, 0, 59, 60
4, 362880, Note_on_c, 0, 59, 0
4, 362880, Note_on_c, 0, 52, 0
4, 362880, Control_c, 0, 64, 0
4, 362920, Control_c, 0, 64, 127
4, 363000, Note_on_c, 0, 59, 60
4, 363120, Note_on_c, 0, 59, 0
4, 363240, Note_on_c, 0, 59, 59
4, 363360, Note_on_c, 0, 59, 0
4, 363360, Control_c, 0, 64, 0
4, 363360, Note_on_c, 0, 47, 53
4, 363400, Control_c, 0, 64, 127
4, 363480, Note_on_c, 0, 59, 59
4, 363600, Note_on_c, 0, 59, 0
4, 363720, Note_on_c, 0, 59, 58
4, 363840, Note_on_c, 0, 59, 0
4, 363840, Note_on_c, 0, 47, 0
4, 363840, Control_c, 0, 64, 0
4, 363880, Control_c, 0, 64, 127
4, 363960, Note_on_c, 0, 59, 57
4, 364080, Note_on_c, 0, 59, 0
4, 364200, Note_on_c, 0, 59, 57
4, 364320, Note_on_c, 0, 59, 0
4, 364320, Control_c, 0, 64, 0
4, 364320, Note_on_c, 0, 49, 51
4, 364360, Control_c, 0, 64, 127
4, 364440, Note_on_c, 0, 59, 56
4, 364560, Note_on_c, 0, 59, 0
4, 364560, Note_on_c, 0, 49, 0
4, 364680, Note_on_c, 0, 59, 55
4, 364800, Note_on_c, 0, 59, 0
4, 364800, Control_c, 0, 64, 0
4, 364800, Note_on_c, 0, 51, 50
4, 364840, Control_c, 0, 64, 127
4, 364920, Note_on_c, 0, 59, 55
4, 364956, Note_on_c, 0, 51, 0
4, 365040, Note_on_c, 0, 59, 0
4, 365040, Note_on_c, 0, 47, 50
4, 365160, Note_on_c, 0, 59, 54
4, 365196, Note_on_c, 0, 47, 0
4, 365280, Note_on_c, 0, 59, 0
4, 365280, Control_c, 0, 64, 0
4, 365280, Note_on_c, 0, 59, 54
4, 365280, Note_on_c, 0, 52, 52
4, 365520, Note_on_c, 0, 52, 0
4, 365760, Note_on_c, 0, 59, 0
4, 366240, Control_c, 0, 64, 0
4, 366280, Control_c, 0, 64, 127
4, 366360, Note_on_c, 0, 59, 65
4, 366480, Note_on_c, 0, 59, 0
4, 366600, Note_on_c, 0, 59, 63
4, 366720, Note_on_c, 0, 59, 0
4, 366720, Control_c, 0, 64, 0
4, 366760, Control_c, 0, 64, 127
4, 366840, Note_on_c, 0, 59, 62
4, 366960, Note_on_c, 0, 59, 0
4, 367080, Note_on_c, 0, 59, 60
4, 367200, Note_on_c, 0, 59, 0
4, 367200, Control_c, 0, 64, 0
4, 367240, Control_c, 0, 64, 127
4, 367320, Note_on_c, 0, 59, 59
4, 367440, Note_on_c, 0, 59, 0
4, 367560, Note_on_c, 0, 59, 56
4, 367680, Note_on_c, 0, 59, 0
4, 367680, Control_c, 0, 64, 0
4, 367720, Control_c, 0, 64, 127
4, 367800, Note_on_c, 0, 59, 57
4, 367920, Note_on_c, 0, 59, 0
4, 368040, Note_on_c, 0, 59, 58
4, 368160, Note_on_c, 0, 59, 0
4, 368160, Control_c, 0, 64, 0
4, 368200, Control_c, 0, 64, 127
4, 368280, Note_on_c, 0, 59, 59
4, 368400, Note_on_c, 0, 59, 0
4, 368520, Note_on_c, 0, 59, 60
4, 368640, Note_on_c, 0, 59, 0
4, 368640, Control_c, 0, 64, 0
4, 368680, Control_c, 0, 64, 127
4, 368760, Note_on_c, 0, 59, 61
4, 368880, Note_on_c, 0, 59, 0
4, 368880, Note_on_c, 0, 54, 63
4, 369000, Note_on_c, 0, 57, 63
4, 369120, Note_on_c, 0, 57, 0
4, 369120, Note_on_c, 0, 54, 0
4, 369120, Control_c, 0, 64, 0
4, 369120, Note_on_c, 0, 56, 62
4, 369160, Control_c, 0, 64, 127
4, 369240, Note_on_c, 0, 56, 0
4, 369240, Note_on_c, 0, 59, 61
4, 369360, Note_on_c, 0, 59, 0
4, 369360, Note_on_c, 0, 56, 60
4, 369480, Note_on_c, 0, 56, 0
4, 369600, Control_c, 0, 64, 0
4, 369640, Control_c, 0, 64, 127
4, 369720, Note_on_c, 0, 59, 56
4, 369840, Note_on_c, 0, 59, 0
4, 369840, Note_on_c, 0, 54, 57
4, 369960, Note_on_c, 0, 54, 0
4, 370080, Control_c, 0, 64, 0
4, 370120, Control_c, 0, 64, 127
4, 370200, Note_on_c, 0, 58, 59
4, 370320, Note_on_c, 0, 58, 0
4, 370320, Note_on_c, 0, 54, 60
4, 370440, Note_on_c, 0, 54, 0
4, 370560, Control_c, 0, 64, 0
4, 370600, Control_c, 0, 64, 127
4, 370680, Note_on_c, 0, 58, 63
4, 370800, Note_on_c, 0, 58, 0
4, 370800, Note_on_c, 0, 54, 63
4, 370920, Note_on_c, 0, 54, 0
4, 370920, Note_on_c, 0, 49, 67
4, 371040, Note_on_c, 0, 49, 0
4, 371040, Control_c, 0, 64, 0
4, 371080, Control_c, 0, 64, 127
4, 371160, Note_on_c, 0, 59, 65
4, 371280, Note_on_c, 0, 59, 0
4, 371280, Note_on_c, 0, 54, 64
4, 371400, Note_on_c, 0, 54, 0
4, 371400, Note_on_c, 0, 51, 62
4, 371520, Note_on_c, 0, 51, 0
4, 371520, Control_c, 0, 64, 0
4, 371640, Note_on_c, 0, 59, 59
4, 371760, Note_on_c, 0, 59, 0
4, 371880, Note_on_c, 0, 57, 57
4, 372000, Note_on_c, 0, 57, 0
4, 372000, Control_c, 0, 64, 0
4, 372040, Control_c, 0, 64, 127
4, 372120, Note_on_c, 0, 56, 60
4, 372240, Note_on_c, 0, 56, 0
4, 372240, Note_on_c, 0, 52, 62
4, 372360, Note_on_c, 0, 52, 0
4, 372480, Control_c, 0, 64, 0
4, 372520, Control_c, 0, 64, 127
4, 372600, Note_on_c, 0, 56, 65
4, 372720, Note_on_c, 0, 56, 0
4, 372720, Note_on_c, 0, 52, 65
4, 372840, Note_on_c, 0, 52, 0
4, 372840, Note_on_c, 0, 47, 64
4, 372960, Note_on_c, 0, 47, 0
4, 372960, Control_c, 0, 64, 0
4, 373000, Control_c, 0, 64, 127
4, 373080, Note_on_c, 0, 57, 63
4, 373200, Note_on_c, 0, 57, 0
4, 373200, Note_on_c, 0, 52, 62
4, 373320, Note_on_c, 0, 52, 0
4, 373320, Note_on_c, 0, 49, 62
4, 373440, Note_on_c, 0, 49, 0
4, 373440, Control_c, 0, 64, 0
4, 373480, Control_c, 0, 64, 127
4, 373560, Note_on_c, 0, 52, 59
4, 373680, Note_on_c, 0, 52, 0
4, 373800, Note_on_c, 0, 52, 58
4, 373920, Note_on_c, 0, 52, 0
4, 373920, Control_c, 0, 64, 0
4, 373960, Control_c, 0, 64, 127
4, 374040, Note_on_c, 0, 52, 60
4, 374160, Note_on_c, 0, 52, 0
4, 374280, Note_on_c, 0, 52, 61
4, 374400, Note_on_c, 0, 52, 0
4, 374400, Control_c, 0, 64, 0
4, 374440, Control_c, 0, 64, 127
4, 374520, Note_on_c, 0, 52, 62
4, 374640, Note_on_c, 0, 52, 0
4, 374760, Note_on_c, 0, 52, 63
4, 374880, Note_on_c, 0, 52, 0
4, 374880, Control_c, 0, 64, 0
4, 374920, Control_c, 0, 64, 127
4, 375000, Note_on_c, 0, 52, 64
4, 375120, Note_on_c, 0, 52, 0
4, 375240, Note_on_c, 0, 52, 66
4, 375360, Note_on_c, 0, 52, 0
4, 375360, Control_c, 0, 64, 0
4, 375400, Control_c, 0, 64, 127
4, 375480, Note_on_c, 0, 52, 67
4, 375600, Note_on_c, 0, 52, 0
4, 375720, Note_on_c, 0, 52, 73
4, 375840, Note_on_c, 0, 52, 0
4, 375840, Control_c, 0, 64, 0
4, 375880, Control_c, 0, 64, 127
4, 375960, Note_on_c, 0, 54, 66
4, 376080, Note_on_c, 0, 54, 0
4, 376200, Note_on_c, 0, 57, 63
4, 376200, Note_on_c, 0, 54, 63
4, 376320, Note_on_c, 0, 54, 0
4, 376320, Note_on_c, 0, 57, 0
4, 376320, Control_c, 0, 64, 0
4, 376360, Control_c, 0, 64, 127
4, 376440, Note_on_c, 0, 57, 59
4, 376440, Note_on_c, 0, 54, 59
4, 376560, Note_on_c, 0, 54, 0
4, 376560, Note_on_c, 0, 57, 0
4, 376680, Note_on_c, 0, 57, 55
4, 376680, Note_on_c, 0, 54, 55
4, 376800, Note_on_c, 0, 54, 0
4, 376800, Note_on_c, 0, 57, 0
4, 376800, Control_c, 0, 64, 0
4, 376800, Note_on_c, 0, 56, 54
4, 376840, Control_c, 0, 64, 127
4, 376920, Note_on_c, 0, 56, 0
4, 376920, Note_on_c, 0, 59, 55
4, 377040, Note_on_c, 0, 59, 0
4, 377040, Note_on_c, 0, 56, 54
4, 377160, Note_on_c, 0, 56, 0
4, 377280, Control_c, 0, 64, 0
4, 377320, Control_c, 0, 64, 127
4, 377400, Note_on_c, 0, 59, 55
4, 377520, Note_on_c, 0, 59, 0
4, 377520, Note_on_c, 0, 54, 57
4, 377640, Note_on_c, 0, 54, 0
4, 377760, Control_c, 0, 64, 0
4, 377800, Control_c, 0, 64, 127
4, 377880, Note_on_c, 0, 58, 61
4, 378000, Note_on_c, 0, 58, 0
4, 378000, Note_on_c, 0, 54, 63
4, 378120, Note_on_c, 0, 54, 0
4, 378240, Control_c, 0, 64, 0
4, 378280, Control_c, 0, 64, 127
4, 378360, Note_on_c, 0, 58, 67
4, 378480, Note_on_c, 0, 58, 0
4, 378480, Note_on_c, 0, 54, 69
4, 378600, Note_on_c, 0, 54, 0
4, 378600, Note_on_c, 0, 49, 68
4, 378720, Note_on_c, 0, 49, 0
4, 378720, Control_c, 0, 64, 0
4, 378760, Control_c, 0, 64, 127
4, 378840, Note_on_c, 0, 59, 69
4, 378960, Note_on_c, 0, 59, 0
4, 378960, Note_on_c, 0, 54, 67
4, 379080, Note_on_c, 0, 54, 0
4, 379080, Note_on_c, 0, 51, 65
4, 379200, Note_on_c, 0, 51, 0
4, 379200, Control_c, 0, 64, 0
4, 379320, Note_on_c, 0, 59, 61
4, 379440, Note_on_c, 0, 59, 0
4, 379560, Note_on_c, 0, 57, 59
4, 379680, Note_on_c, 0, 57, 0
4, 379680, Control_c, 0, 64, 0
4, 379720, Control_c, 0, 64, 127
4, 379800, Note_on_c, 0, 56, 61
4, 379920, Note_on_c, 0, 56, 0
4, 379920, Note_on_c, 0, 52, 62
4, 380040, Note_on_c, 0, 52, 0
4, 380160, Control_c, 0, 64, 0
4, 380200, Control_c, 0, 64, 127
4, 380280, Note_on_c, 0, 56, 64
4, 380400, Note_on_c, 0, 56, 0
4, 380400, Note_on_c, 0, 52, 65
4, 380520, Note_on_c, 0, 52, 0
4, 380520, Note_on_c, 0, 47, 64
4, 380640, Note_on_c, 0, 47, 0
4, 380640, Control_c, 0, 64, 0
4, 380680, Control_c, 0, 64, 127
4, 380760, Note_on_c, 0, 57, 65
4, 380880, Note_on_c, 0, 57, 0
4, 380880, Note_on_c, 0, 52, 64
4, 381000, Note_on_c, 0, 52, 0
4, 381000, Note_on_c, 0, 49, 63
4, 381120, Note_on_c, 0, 49, 0
4, 381120, Control_c, 0, 64, 0
4, 381160, Control_c, 0, 64, 127
4, 381240, Note_on_c, 0, 52, 60
4, 381360, Note_on_c, 0, 52, 0
4, 381480, Note_on_c, 0, 52, 61
4, 381600, Note_on_c, 0, 52, 0
4, 381600, Control_c, 0, 64, 0
4, 381640, Control_c, 0, 64, 127
4, 381720, Note_on_c, 0, 52, 63
4, 381840, Note_on_c, 0, 52, 0
4, 381960, Note_on_c, 0, 52, 65
4, 382080, Note_on_c, 0, 52, 0
4, 382080, Control_c, 0, 64, 0
4, 382080, Note_on_c, 0, 49, 66
4, 382120, Control_c, 0, 64, 127
4, 382200, Note_on_c, 0, 52, 67
4, 382313, Note_on_c, 0, 49, 0
4, 382320, Note_on_c, 0, 52, 0
4, 382320, Note_on_c, 0, 52, 68
4, 382440, Note_on_c, 0, 56, 69
4, 382545, Note_on_c, 0, 52, 0
4, 382560, Note_on_c, 0, 56, 0
4, 382560, Control_c, 0, 64, 0
4, 382560, Note_on_c, 0, 52, 70
4, 382600, Control_c, 0, 64, 127
4, 382680, Note_on_c, 0, 58, 71
4, 382785, Note_on_c, 0, 52, 0
4, 382800, Note_on_c, 0, 58, 0
4, 382800, Note_on_c, 0, 52, 72
4, 382920, Note_on_c, 0, 58, 73
4, 383025, Note_on_c, 0, 52, 0
4, 383040, Note_on_c, 0, 58, 0
4, 383040, Control_c, 0, 64, 0
4, 383040, Note_on_c, 0, 52, 74
4, 383080, Control_c, 0, 64, 127
4, 383160, Note_on_c, 0, 57, 76
4, 383265, Note_on_c, 0, 52, 0
4, 383280, Note_on_c, 0, 57, 0
4, 383280, Note_on_c, 0, 52, 77
4, 383400, Note_on_c, 0, 57, 75
4, 383505, Note_on_c, 0, 52, 0
4, 383520, Note_on_c, 0, 57, 0
4, 383520, Control_c, 0, 64, 0
4, 383520, Note_on_c, 0, 51, 73
4, 383560, Control_c, 0, 64, 127
4, 383640, Note_on_c, 0, 57, 72
4, 383745, Note_on_c, 0, 51, 0
4, 383760, Note_on_c, 0, 57, 0
4, 383760, Note_on_c, 0, 51, 71
4, 383880, Note_on_c, 0, 57, 70
4, 383985, Note_on_c, 0, 51, 0
4, 384000, Note_on_c, 0, 57, 0
4, 384000, Control_c, 0, 64, 0
4, 384000, Note_on_c, 0, 51, 69
4, 384040, Control_c, 0, 64, 127
4, 384120, Note_on_c, 0, 57, 68
4, 384225, Note_on_c, 0, 51, 0
4, 384240, Note_on_c, 0, 57, 0
4, 384240, Note_on_c, 0, 51, 67
4, 384360, Note_on_c, 0, 57, 65
4, 384465, Note_on_c, 0, 51, 0
4, 384480, Note_on_c, 0, 57, 0
4, 384480, Control_c, 0, 64, 0
4, 384480, Note_on_c, 0, 56, 64
4, 384960, Note_on_c, 0, 56, 0
4, 385440, Control_c, 0, 64, 0
4, 385480, Control_c, 0, 64, 127
4, 385560, Note_on_c, 0, 59, 59
4, 385680, Note_on_c, 0, 59, 0
4, 385800, Note_on_c, 0, 59, 58
4, 385920, Note_on_c, 0, 59, 0
4, 385920, Control_c, 0, 64, 0
4, 385960, Control_c, 0, 64, 127
4, 386040, Note_on_c, 0, 59, 57
4, 386160, Note_on_c, 0, 59, 0
4, 386280, Note_on_c, 0, 59, 57
4, 386400, Note_on_c, 0, 59, 0
4, 386400, Control_c, 0, 64, 0
4, 386440, Control_c, 0, 64, 127
4, 386520, Note_on_c, 0, 59, 56
4, 386640, Note_on_c, 0, 59, 0
4, 386760, Note_on_c, 0, 59, 55
4, 386880, Note_on_c, 0, 59, 0
4, 386880, Control_c, 0, 64, 0
4, 386920, Control_c, 0, 64, 127
4, 387000, Note_on_c, 0, 59, 54
4, 387120, Note_on_c, 0, 59, 0
4, 387240, Note_on_c, 0, 59, 54
4, 387360, Note_on_c, 0, 59, 0
4, 387360, Control_c, 0, 64, 0
4, 387400, Control_c, 0, 64, 127
4, 387480, Note_on_c, 0, 59, 53
4, 387600, Note_on_c, 0, 59, 0
4, 387720, Note_on_c, 0, 59, 52
4, 387840, Note_on_c, 0, 59, 0
4, 387840, Control_c, 0, 64, 0
4, 387880, Control_c, 0, 64, 127
4, 387960, Note_on_c, 0, 59, 51
4, 388080, Note_on_c, 0, 59, 0
4, 388200, Note_on_c, 0, 59, 51
4, 388320, Note_on_c, 0, 59, 0
4, 388320, Control_c, 0, 64, 0
4, 388320, Note_on_c, 0, 59, 50
4, 388560, Note_on_c, 0, 59, 0
4, 388680, Note_on_c, 0, 59, 53
4, 388800, Note_on_c, 0, 59, 0
4, 388800, Control_c, 0, 64, 0
4, 388840, Control_c, 0, 64, 127
4, 388920, Note_on_c, 0, 59, 53
4, 389040, Note_on_c, 0, 59, 0
4, 389160, Note_on_c, 0, 59, 55
4, 389280, Note_on_c, 0, 59, 0
4, 389280, Control_c, 0, 64, 0
4, 389320, Control_c, 0, 64, 127
4, 389400, Note_on_c, 0, 59, 56
4, 389520, Note_on_c, 0, 59, 0
4, 389640, Note_on_c, 0, 59, 58
4, 389760, Note_on_c, 0, 59, 0
4, 389760, Control_c, 0, 64, 0
4, 389800, Control_c, 0, 64, 127
4, 389880, Note_on_c, 0, 59, 62
4, 390000, Note_on_c, 0, 59, 0
4, 390120, Note_on_c, 0, 59, 61
4, 390240, Note_on_c, 0, 59, 0
4, 390240, Control_c, 0, 64, 0
4, 390280, Control_c, 0, 64, 127
4, 390360, Note_on_c, 0, 59, 59
4, 390480, Note_on_c, 0, 59, 0
4, 390600, Note_on_c, 0, 59, 60
4, 390720, Note_on_c, 0, 59, 0
4, 390720, Control_c, 0, 64, 0
4, 390760, Control_c, 0, 64, 127
4, 390840, Note_on_c, 0, 59, 64
4, 390960, Note_on_c, 0, 59, 0
4, 391080, Note_on_c, 0, 59, 68
4, 391200, Note_on_c, 0, 59, 0
4, 391200, Control_c, 0, 64, 0
4, 391240, Control_c, 0, 64, 127
4, 391320, Note_on_c, 0, 59, 72
4, 391440, Note_on_c, 0, 59, 0
4, 391560, Note_on_c, 0, 59, 75
4, 391680, Note_on_c, 0, 59, 0
4, 391680, Control_c, 0, 64, 0
4, 391720, Control_c, 0, 64, 127
4, 391800, Note_on_c, 0, 59, 79
4, 391920, Note_on_c, 0, 59, 0
4, 392040, Note_on_c, 0, 59, 86
4, 392160, Note_on_c, 0, 59, 0
4, 392160, Control_c, 0, 64, 0
4, 400080, Note_on_c, 0, 66, 71
4, 400200, Note_on_c, 0, 66, 0
4, 400200, Note_on_c, 0, 68, 69
4, 400320, Note_on_c, 0, 68, 0
4, 400320, Note_on_c, 0, 66, 67
4, 400440, Note_on_c, 0, 66, 0
4, 400440, Note_on_c, 0, 68, 65
4, 400560, Note_on_c, 0, 68, 0
4, 400560, Note_on_c, 0, 66, 63
4, 400680, Note_on_c, 0, 66, 0
4, 400680, Note_on_c, 0, 68, 61
4, 400800, Note_on_c, 0, 68, 0
4, 400800, Note_on_c, 0, 66, 60
4, 400920, Note_on_c, 0, 66, 0
4, 400920, Note_on_c, 0, 68, 61
4, 401040, Note_on_c, 0, 68, 0
4, 401040, Note_on_c, 0, 66, 61
4, 401160, Note_on_c, 0, 66, 0
4, 401160, Note_on_c, 0, 68, 62
4, 401280, Note_on_c, 0, 68, 0
4, 401280, Note_on_c, 0, 66, 63
4, 401400, Note_on_c, 0, 66, 0
4, 401400, Note_on_c, 0, 68, 63
4, 401520, Note_on_c, 0, 68, 0
4, 401520, Note_on_c, 0, 66, 64
4, 401640, Note_on_c, 0, 66, 0
4, 401640, Note_on_c, 0, 68, 65
4, 401760, Note_on_c, 0, 68, 0
4, 401760, Note_on_c, 0, 66, 66
4, 401880, Note_on_c, 0, 66, 0
4, 401880, Note_on_c, 0, 68, 66
4, 402000, Note_on_c, 0, 68, 0
4, 402000, Note_on_c, 0, 66, 68
4, 402120, Note_on_c, 0, 66, 0
4, 402120, Note_on_c, 0, 68, 66
4, 402240, Note_on_c, 0, 68, 0
4, 402240, Note_on_c, 0, 66, 65
4, 402360, Note_on_c, 0, 66, 0
4, 402360, Note_on_c, 0, 68, 63
4, 402480, Note_on_c, 0, 68, 0
4, 402480, Note_on_c, 0, 66, 62
4, 402600, Note_on_c, 0, 66, 0
4, 402600, Note_on_c, 0, 68, 60
4, 402720, Note_on_c, 0, 68, 0
4, 402720, Note_on_c, 0, 66, 58
4, 402840, Note_on_c, 0, 66, 0
4, 402840, Note_on_c, 0, 68, 58
4, 402960, Note_on_c, 0, 68, 0
4, 402960, Note_on_c, 0, 66, 59
4, 403080, Note_on_c, 0, 66, 0
4, 403080, Note_on_c, 0, 68, 59
4, 403200, Note_on_c, 0, 68, 0
4, 403200, Note_on_c, 0, 66, 59
4, 403320, Note_on_c, 0, 66, 0
4, 403320, Note_on_c, 0, 68, 60
4, 403440, Note_on_c, 0, 68, 0
4, 403440, Note_on_c, 0, 66, 60
4, 403560, Note_on_c, 0, 66, 0
4, 403560, Note_on_c, 0, 68, 61
4, 403680, Note_on_c, 0, 68, 0
4, 403680, Note_on_c, 0, 66, 61
4, 403800, Note_on_c, 0, 66, 0
4, 403800, Note_on_c, 0, 68, 62
4, 403920, Note_on_c, 0, 68, 0
4, 403920, Note_on_c, 0, 66, 62
4, 404040, Note_on_c, 0, 66, 0
4, 404040, Note_on_c, 0, 68, 63
4, 404160, Note_on_c, 0, 68, 0
4, 404160, Note_on_c, 0, 66, 63
4, 404280, Note_on_c, 0, 66, 0
4, 404280, Note_on_c, 0, 68, 63
4, 404400, Note_on_c, 0, 68, 0
4, 404400, Note_on_c, 0, 66, 64
4, 404520, Note_on_c, 0, 66, 0
4, 404520, Note_on_c, 0, 68, 64
4, 404640, Note_on_c, 0, 68, 0
4, 404640, Control_c, 0, 64, 0
4, 404680, Control_c, 0, 64, 127
4, 404760, Note_on_c, 0, 71, 65
4, 404880, Note_on_c, 0, 71, 0
4, 405000, Note_on_c, 0, 71, 62
4, 405120, Note_on_c, 0, 71, 0
4, 405120, Control_c, 0, 64, 0
4, 405160, Control_c, 0, 64, 127
4, 405240, Note_on_c, 0, 71, 61
4, 405360, Note_on_c, 0, 71, 0
4, 405480, Note_on_c, 0, 71, 61
4, 405600, Note_on_c, 0, 71, 0
4, 405600, Control_c, 0, 64, 0
4, 405640, Control_c, 0, 64, 127
4, 405720, Note_on_c, 0, 71, 60
4, 405840, Note_on_c, 0, 71, 0
4, 405960, Note_on_c, 0, 71, 59
4, 406080, Note_on_c, 0, 71, 0
4, 406080, Control_c, 0, 64, 0
4, 406120, Control_c, 0, 64, 127
4, 406200, Note_on_c, 0, 71, 59
4, 406320, Note_on_c, 0, 71, 0
4, 406440, Note_on_c, 0, 71, 58
4, 406560, Note_on_c, 0, 71, 0
4, 406560, Control_c, 0, 64, 0
4, 407760, Note_on_c, 0, 78, 55
4, 407760, Note_on_c, 0, 68, 54
4, 407880, Note_on_c, 0, 68, 0
4, 407880, Note_on_c, 0, 78, 0
4, 407880, Note_on_c, 0, 80, 54
4, 407880, Note_on_c, 0, 66, 54
4, 408000, Note_on_c, 0, 66, 0
4, 408000, Note_on_c, 0, 80, 0
4, 408000, Note_on_c, 0, 78, 54
4, 408000, Note_on_c, 0, 68, 53
4, 408120, Note_on_c, 0, 68, 0
4, 408120, Note_on_c, 0, 78, 0
4, 408120, Note_on_c, 0, 80, 53
4, 408120, Note_on_c, 0, 66, 53
4, 408240, Note_on_c, 0, 66, 0
4, 408240, Note_on_c, 0, 80, 0
4, 408240, Note_on_c, 0, 78, 53
4, 408240, Note_on_c, 0, 68, 52
4, 408360, Note_on_c, 0, 68, 0
4, 408360, Note_on_c, 0, 78, 0
4, 408360, Note_on_c, 0, 80, 52
4, 408360, Note_on_c, 0, 66, 52
4, 408480, Note_on_c, 0, 66, 0
4, 408480, Note_on_c, 0, 80, 0
4, 408480, Note_on_c, 0, 78, 52
4, 408480, Note_on_c, 0, 68, 54
4, 408600, Note_on_c, 0, 68, 0
4, 408600, Note_on_c, 0, 78, 0
4, 408600, Note_on_c, 0, 80, 52
4, 408600, Note_on_c, 0, 66, 54
4, 408720, Note_on_c, 0, 66, 0
4, 408720, Note_on_c, 0, 80, 0
4, 408720, Note_on_c, 0, 78, 53
4, 408720, Note_on_c, 0, 68, 55
4, 408840, Note_on_c, 0, 68, 0
4, 408840, Note_on_c, 0, 78, 0
4, 408840, Note_on_c, 0, 80, 53
4, 408840, Note_on_c, 0, 66, 56
4, 408960, Note_on_c, 0, 66, 0
4, 408960, Note_on_c, 0, 80, 0
4, 408960, Note_on_c, 0, 78, 54
4, 408960, Note_on_c, 0, 68, 57
4, 409080, Note_on_c, 0, 68, 0
4, 409080, Note_on_c, 0, 78, 0
4, 409080, Note_on_c, 0, 80, 54
4, 409080, Note_on_c, 0, 66, 57
4, 409200, Note_on_c, 0, 66, 0
4, 409200, Note_on_c, 0, 80, 0
4, 409200, Note_on_c, 0, 78, 55
4, 409200, Note_on_c, 0, 68, 58
4, 409320, Note_on_c, 0, 68, 0
4, 409320, Note_on_c, 0, 78, 0
4, 409320, Note_on_c, 0, 80, 56
4, 409320, Note_on_c, 0, 66, 59
4, 409440, Note_on_c, 0, 66, 0
4, 409440, Note_on_c, 0, 80, 0
4, 409440, Note_on_c, 0, 78, 56
4, 409440, Note_on_c, 0, 68, 59
4, 409560, Note_on_c, 0, 68, 0
4, 409560, Note_on_c, 0, 78, 0
4, 409560, Note_on_c, 0, 80, 57
4, 409560, Note_on_c, 0, 66, 60
4, 409680, Note_on_c, 0, 66, 0
4, 409680, Note_on_c, 0, 80, 0
4, 409680, Note_on_c, 0, 78, 57
4, 409680, Note_on_c, 0, 68, 61
4, 409800, Note_on_c, 0, 68, 0
4, 409800, Note_on_c, 0, 78, 0
4, 409800, Note_on_c, 0, 80, 56
4, 409800, Note_on_c, 0, 66, 60
4, 409920, Note_on_c, 0, 66, 0
4, 409920, Note_on_c, 0, 80, 0
4, 409920, Note_on_c, 0, 78, 55
4, 409920, Note_on_c, 0, 68, 58
4, 410040, Note_on_c, 0, 68, 0
4, 410040, Note_on_c, 0, 78, 0
4, 410040, Note_on_c, 0, 80, 54
4, 410040, Note_on_c, 0, 66, 57
4, 410160, Note_on_c, 0, 66, 0
4, 410160, Note_on_c, 0, 80, 0
4, 410160, Note_on_c, 0, 78, 52
4, 410160, Note_on_c, 0, 68, 56
4, 410280, Note_on_c, 0, 68, 0
4, 410280, Note_on_c, 0, 78, 0
4, 410280, Note_on_c, 0, 80, 51
4, 410280, Note_on_c, 0, 66, 54
4, 410400, Note_on_c, 0, 66, 0
4, 410400, Note_on_c, 0, 80, 0
4, 410400, Note_on_c, 0, 78, 52
4, 410400, Note_on_c, 0, 68, 54
4, 410520, Note_on_c, 0, 68, 0
4, 410520, Note_on_c, 0, 78, 0
4, 410520, Note_on_c, 0, 80, 53
4, 410520, Note_on_c, 0, 66, 55
4, 410640, Note_on_c, 0, 66, 0
4, 410640, Note_on_c, 0, 80, 0
4, 410640, Note_on_c, 0, 78, 54
4, 410640, Note_on_c, 0, 68, 55
4, 410760, Note_on_c, 0, 68, 0
4, 410760, Note_on_c, 0, 78, 0
4, 410760, Note_on_c, 0, 80, 55
4, 410760, Note_on_c, 0, 66, 56
4, 410880, Note_on_c, 0, 66, 0
4, 410880, Note_on_c, 0, 80, 0
4, 410880, Note_on_c, 0, 78, 55
4, 410880, Note_on_c, 0, 68, 57
4, 411000, Note_on_c, 0, 68, 0
4, 411000, Note_on_c, 0, 78, 0
4, 411000, Note_on_c, 0, 80, 56
4, 411000, Note_on_c, 0, 66, 58
4, 411120, Note_on_c, 0, 66, 0
4, 411120, Note_on_c, 0, 80, 0
4, 411120, Note_on_c, 0, 78, 57
4, 411120, Note_on_c, 0, 68, 58
4, 411240, Note_on_c, 0, 68, 0
4, 411240, Note_on_c, 0, 78, 0
4, 411240, Note_on_c, 0, 80, 58
4, 411240, Note_on_c, 0, 66, 59
4, 411360, Note_on_c, 0, 66, 0
4, 411360, Note_on_c, 0, 80, 0
4, 411360, Control_c, 0, 64, 0
4, 411400, Control_c, 0, 64, 127
4, 411480, Note_on_c, 0, 78, 60
4, 411480, Note_on_c, 0, 66, 60
4, 411600, Note_on_c, 0, 66, 0
4, 411600, Note_on_c, 0, 78, 0
4, 411720, Note_on_c, 0, 78, 61
4, 411720, Note_on_c, 0, 66, 61
4, 411840, Note_on_c, 0, 66, 0
4, 411840, Note_on_c, 0, 78, 0
4, 411840, Control_c, 0, 64, 0
4, 411880, Control_c, 0, 64, 127
4, 411960, Note_on_c, 0, 78, 60
4, 411960, Note_on_c, 0, 66, 60
4, 412080, Note_on_c, 0, 66, 0
4, 412080, Note_on_c, 0, 78, 0
4, 412200, Note_on_c, 0, 78, 59
4, 412200, Note_on_c, 0, 66, 59
4, 412320, Note_on_c, 0, 66, 0
4, 412320, Note_on_c, 0, 78, 0
4, 412320, Control_c, 0, 64, 0
4, 412360, Control_c, 0, 64, 127
4, 412440, Note_on_c, 0, 78, 58
4, 412440, Note_on_c, 0, 66, 58
4, 412560, Note_on_c, 0, 66, 0
4, 412560, Note_on_c, 0, 78, 0
4, 412680, Note_on_c, 0, 78, 57
4, 412680, Note_on_c, 0, 66, 57
4, 412800, Note_on_c, 0, 66, 0
4, 412800, Note_on_c, 0, 78, 0
4, 412800, Control_c, 0, 64, 0
4, 412840, Control_c, 0, 64, 127
4, 412920, Note_on_c, 0, 78, 56
4, 412920, Note_on_c, 0, 66, 56
4, 413040, Note_on_c, 0, 66, 0
4, 413040, Note_on_c, 0, 78, 0
4, 413160, Note_on_c, 0, 78, 56
4, 413160, Note_on_c, 0, 66, 55
4, 413280, Note_on_c, 0, 66, 0
4, 413280, Note_on_c, 0, 78, 0
4, 413280, Control_c, 0, 64, 0
4, 413320, Control_c, 0, 64, 127
4, 413400, Note_on_c, 0, 78, 55
4, 413400, Note_on_c, 0, 66, 54
4, 413520, Note_on_c, 0, 66, 0
4, 413520, Note_on_c, 0, 78, 0
4, 413640, Note_on_c, 0, 78, 54
4, 413640, Note_on_c, 0, 66, 53
4, 413760, Note_on_c, 0, 66, 0
4, 413760, Note_on_c, 0, 78, 0
4, 413760, Control_c, 0, 64, 0
4, 413800, Control_c, 0, 64, 127
4, 413880, Note_on_c, 0, 78, 53
4, 413880, Note_on_c, 0, 66, 52
4, 414000, Note_on_c, 0, 66, 0
4, 414000, Note_on_c, 0, 78, 0
4, 414120, Note_on_c, 0, 78, 52
4, 414120, Note_on_c, 0, 66, 51
4, 414240, Note_on_c, 0, 66, 0
4, 414240, Note_on_c, 0, 78, 0
4, 414240, Control_c, 0, 64, 0
4, 414280, Control_c, 0, 64, 127
4, 414360, Note_on_c, 0, 78, 51
4, 414360, Note_on_c, 0, 66, 50
4, 414480, Note_on_c, 0, 66, 0
4, 414480, Note_on_c, 0, 78, 0
4, 414600, Note_on_c, 0, 72, 50
4, 414600, Note_on_c, 0, 66, 49
4, 414720, Note_on_c, 0, 66, 0
4, 414720, Note_on_c, 0, 72, 0
4, 414720, Control_c, 0, 64, 0
4, 414760, Control_c, 0, 64, 127
4, 414840, Note_on_c, 0, 72, 49
4, 414840, Note_on_c, 0, 66, 48
4, 414960, Note_on_c, 0, 66, 0
4, 414960, Note_on_c, 0, 72, 0
4, 415080, Note_on_c, 0, 72, 48
4, 415080, Note_on_c, 0, 66, 47
4, 415200, Note_on_c, 0, 66, 0
4, 415200, Note_on_c, 0, 72, 0
4, 415200, Control_c, 0, 64, 0
4, 415200, Note_on_c, 0, 72, 48
4, 415200, Note_on_c, 0, 66, 46
4, 415320, Note_on_c, 0, 72, 0
4, 415440, Note_on_c, 0, 66, 0
4, 419040, Control_c, 0, 64, 0
4, 419100, Control_c, 0, 64, 127
4, 419200, Note_on_c, 0, 54, 54
4, 419360, Note_on_c, 0, 54, 0
4, 419360, Note_on_c, 0, 51, 54
4, 419520, Note_on_c, 0, 51, 0
4, 419520, Control_c, 0, 64, 0
4, 419580, Control_c, 0, 64, 127
4, 419680, Note_on_c, 0, 59, 55
4, 419840, Note_on_c, 0, 59, 0
4, 419840, Note_on_c, 0, 54, 55
4, 420000, Note_on_c, 0, 54, 0
4, 420000, Control_c, 0, 64, 0
4, 420060, Control_c, 0, 64, 127
4, 420160, Note_on_c, 0, 58, 56
4, 420320, Note_on_c, 0, 58, 0
4, 420320, Note_on_c, 0, 54, 56
4, 420480, Note_on_c, 0, 54, 0
4, 420480, Control_c, 0, 64, 0
4, 420540, Control_c, 0, 64, 127
4, 420640, Note_on_c, 0, 59, 57
4, 420800, Note_on_c, 0, 59, 0
4, 420800, Note_on_c, 0, 54, 57
4, 420960, Note_on_c, 0, 54, 0
4, 420960, Control_c, 0, 64, 0
4, 421020, Control_c, 0, 64, 127
4, 421120, Note_on_c, 0, 61, 58
4, 421280, Note_on_c, 0, 61, 0
4, 421280, Note_on_c, 0, 56, 58
4, 421440, Note_on_c, 0, 56, 0
4, 421440, Control_c, 0, 64, 0
4, 421500, Control_c, 0, 64, 127
4, 421600, Note_on_c, 0, 62, 59
4, 421760, Note_on_c, 0, 62, 0
4, 421760, Note_on_c, 0, 56, 59
4, 421920, Note_on_c, 0, 56, 0
4, 421920, Control_c, 0, 64, 0
4, 421980, Control_c, 0, 64, 127
4, 422080, Note_on_c, 0, 63, 60
4, 422240, Note_on_c, 0, 63, 0
4, 422240, Note_on_c, 0, 59, 60
4, 422400, Note_on_c, 0, 59, 0
4, 422400, Control_c, 0, 64, 0
4, 422460, Control_c, 0, 64, 127
4, 422560, Note_on_c, 0, 61, 61
4, 422720, Note_on_c, 0, 61, 0
4, 422720, Note_on_c, 0, 58, 61
4, 422880, Note_on_c, 0, 58, 0
4, 422880, Control_c, 0, 64, 0
4, 422940, Control_c, 0, 64, 127
4, 423000, Note_on_c, 0, 59, 61
4, 423120, Note_on_c, 0, 59, 0
4, 423120, Note_on_c, 0, 54, 62
4, 423240, Note_on_c, 0, 54, 0
4, 423360, Control_c, 0, 64, 0
4, 423420, Control_c, 0, 64, 127
4, 423480, Note_on_c, 0, 54, 64
4, 423600, Note_on_c, 0, 54, 0
4, 423600, Note_on_c, 0, 51, 65
4, 423720, Note_on_c, 0, 51, 0
4, 423840, Control_c, 0, 64, 0
4, 423900, Control_c, 0, 64, 127
4, 423960, Note_on_c, 0, 57, 68
4, 424080, Note_on_c, 0, 57, 0
4, 424080, Note_on_c, 0, 52, 69
4, 424200, Note_on_c, 0, 52, 0
4, 424320, Control_c, 0, 64, 0
4, 424380, Control_c, 0, 64, 127
4, 424440, Note_on_c, 0, 59, 71
4, 424560, Note_on_c, 0, 59, 0
4, 424560, Note_on_c, 0, 54, 72
4, 424680, Note_on_c, 0, 54, 0
4, 424800, Control_c, 0, 64, 0
4, 424860, Control_c, 0, 64, 127
4, 424920, Note_on_c, 0, 61, 75
4, 425040, Note_on_c, 0, 61, 0
4, 425040, Note_on_c, 0, 57, 76
4, 425160, Note_on_c, 0, 57, 0
4, 425280, Control_c, 0, 64, 0
4, 425340, Control_c, 0, 64, 127
4, 425400, Note_on_c, 0, 59, 78
4, 425520, Note_on_c, 0, 59, 0
4, 425520, Note_on_c, 0, 57, 79
4, 425640, Note_on_c, 0, 57, 0
4, 425760, Control_c, 0, 64, 0
4, 425820, Control_c, 0, 64, 127
4, 425880, Note_on_c, 0, 59, 82
4, 426000, Note_on_c, 0, 59, 0
4, 426000, Note_on_c, 0, 57, 83
4, 426120, Note_on_c, 0, 57, 0
4, 426240, Control_c, 0, 64, 0
4, 426300, Control_c, 0, 64, 127
4, 426360, Note_on_c, 0, 57, 85
4, 426480, Note_on_c, 0, 57, 0
4, 426480, Note_on_c, 0, 54, 86
4, 426600, Note_on_c, 0, 54, 0
4, 426600, Note_on_c, 0, 51, 87
4, 426720, Note_on_c, 0, 51, 0
4, 426720, Control_c, 0, 64, 0
4, 426720, Control_c, 0, 64, 0
4, 426780, Control_c, 0, 64, 127
4, 426840, Note_on_c, 0, 57, 85
4, 426960, Note_on_c, 0, 57, 0
4, 426960, Note_on_c, 0, 54, 83
4, 427080, Note_on_c, 0, 54, 0
4, 427080, Note_on_c, 0, 51, 81
4, 427200, Note_on_c, 0, 51, 0
4, 427200, Control_c, 0, 64, 0
4, 427260, Control_c, 0, 64, 127
4, 427320, Note_on_c, 0, 57, 76
4, 427440, Note_on_c, 0, 57, 0
4, 427440, Note_on_c, 0, 54, 74
4, 427560, Note_on_c, 0, 54, 0
4, 427560, Note_on_c, 0, 51, 72
4, 427680, Note_on_c, 0, 51, 0
4, 427680, Control_c, 0, 64, 0
4, 427740, Control_c, 0, 64, 127
4, 427800, Note_on_c, 0, 57, 68
4, 427920, Note_on_c, 0, 57, 0
4, 427920, Note_on_c, 0, 54, 66
4, 428040, Note_on_c, 0, 54, 0
4, 428040, Note_on_c, 0, 51, 64
4, 428160, Note_on_c, 0, 51, 0
4, 428160, Control_c, 0, 64, 0
4, 428220, Control_c, 0, 64, 127
4, 428280, Note_on_c, 0, 57, 60
4, 428400, Note_on_c, 0, 57, 0
4, 428400, Note_on_c, 0, 54, 57
4, 428520, Note_on_c, 0, 54, 0
4, 428520, Note_on_c, 0, 51, 55
4, 428640, Note_on_c, 0, 51, 0
4, 428640, Control_c, 0, 64, 0
4, 428640, Note_on_c, 0, 52, 57
4, 428680, Control_c, 0, 64, 127
4, 428760, Note_on_c, 0, 59, 61
4, 428880, Note_on_c, 0, 59, 0
4, 429000, Note_on_c, 0, 59, 60
4, 429120, Note_on_c, 0, 59, 0
4, 429120, Note_on_c, 0, 52, 0
4, 429120, Control_c, 0, 64, 0
4, 429160, Control_c, 0, 64, 127
4, 429240, Note_on_c, 0, 59, 60
4, 429360, Note_on_c, 0, 59, 0
4, 429480, Note_on_c, 0, 59, 59
4, 429600, Note_on_c, 0, 59, 0
4, 429600, Control_c, 0, 64, 0
4, 429600, Note_on_c, 0, 47, 54
4, 429640, Control_c, 0, 64, 127
4, 429720, Note_on_c, 0, 59, 59
4, 429840, Note_on_c, 0, 59, 0
4, 429960, Note_on_c, 0, 59, 58
4, 430080, Note_on_c, 0, 59, 0
4, 430080, Note_on_c, 0, 47, 0
4, 430080, Control_c, 0, 64, 0
4, 430120, Control_c, 0, 64, 127
4, 430200, Note_on_c, 0, 59, 57
4, 430320, Note_on_c, 0, 59, 0
4, 430440, Note_on_c, 0, 59, 57
4, 430560, Note_on_c, 0, 59, 0
4, 430560, Control_c, 0, 64, 0
4, 430560, Note_on_c, 0, 49, 52
4, 430600, Control_c, 0, 64, 127
4, 430680, Note_on_c, 0, 59, 56
4, 430800, Note_on_c, 0, 59, 0
4, 430800, Note_on_c, 0, 49, 0
4, 430920, Note_on_c, 0, 59, 55
4, 431040, Note_on_c, 0, 59, 0
4, 431040, Control_c, 0, 64, 0
4, 431040, Note_on_c, 0, 51, 50
4, 431080, Control_c, 0, 64, 127
4, 431160, Note_on_c, 0, 59, 55
4, 431196, Note_on_c, 0, 51, 0
4, 431280, Note_on_c, 0, 59, 0
4, 431280, Note_on_c, 0, 47, 50
4, 431400, Note_on_c, 0, 59, 54
4, 431436, Note_on_c, 0, 47, 0
4, 431520, Note_on_c, 0, 59, 0
4, 431520, Control_c, 0, 64, 0
4, 431520, Note_on_c, 0, 59, 54
4, 431520, Note_on_c, 0, 52, 52
4, 431560, Control_c, 0, 64, 127
4, 431760, Note_on_c, 0, 52, 0
4, 432000, Note_on_c, 0, 59, 0
4, 432000, Control_c, 0, 64, 0
4, 432040, Control_c, 0, 64, 127
4, 432480, Control_c, 0, 64, 0
4, 432520, Control_c, 0, 64, 127
4, 432600, Note_on_c, 0, 59, 65
4, 432720, Note_on_c, 0, 59, 0
4, 432840, Note_on_c, 0, 59, 63
4, 432960, Note_on_c, 0, 59, 0
4, 432960, Control_c, 0, 64, 0
4, 433000, Control_c, 0, 64, 127
4, 433080, Note_on_c, 0, 59, 62
4, 433200, Note_on_c, 0, 59, 0
4, 433320, Note_on_c, 0, 59, 60
4, 433440, Note_on_c, 0, 59, 0
4, 433440, Control_c, 0, 64, 0
4, 433480, Control_c, 0, 64, 127
4, 433560, Note_on_c, 0, 59, 59
4, 433680, Note_on_c, 0, 59, 0
4, 433800, Note_on_c, 0, 59, 57
4, 433920, Note_on_c, 0, 59, 0
4, 433920, Control_c, 0, 64, 0
4, 433960, Control_c, 0, 64, 127
4, 434040, Note_on_c, 0, 59, 55
4, 434160, Note_on_c, 0, 59, 0
4, 434280, Note_on_c, 0, 59, 57
4, 434400, Note_on_c, 0, 59, 0
4, 434400, Control_c, 0, 64, 0
4, 434440, Control_c, 0, 64, 127
4, 434520, Note_on_c, 0, 59, 59
4, 434640, Note_on_c, 0, 59, 0
4, 434760, Note_on_c, 0, 59, 61
4, 434880, Note_on_c, 0, 59, 0
4, 434880, Control_c, 0, 64, 0
4, 434920, Control_c, 0, 64, 127
4, 435000, Note_on_c, 0, 59, 63
4, 435120, Note_on_c, 0, 59, 0
4, 435120, Note_on_c, 0, 54, 63
4, 435240, Note_on_c, 0, 57, 63
4, 435360, Note_on_c, 0, 57, 0
4, 435360, Note_on_c, 0, 54, 0
4, 435360, Control_c, 0, 64, 0
4, 435360, Note_on_c, 0, 56, 62
4, 435400, Control_c, 0, 64, 127
4, 435480, Note_on_c, 0, 56, 0
4, 435480, Note_on_c, 0, 59, 61
4, 435600, Note_on_c, 0, 59, 0
4, 435600, Note_on_c, 0, 56, 60
4, 435720, Note_on_c, 0, 56, 0
4, 435840, Control_c, 0, 64, 0
4, 435880, Control_c, 0, 64, 127
4, 435960, Note_on_c, 0, 59, 58
4, 436080, Note_on_c, 0, 59, 0
4, 436080, Note_on_c, 0, 54, 60
4, 436200, Note_on_c, 0, 54, 0
4, 436320, Control_c, 0, 64, 0
4, 436360, Control_c, 0, 64, 127
4, 436440, Note_on_c, 0, 58, 63
4, 436560, Note_on_c, 0, 58, 0
4, 436560, Note_on_c, 0, 54, 64
4, 436680, Note_on_c, 0, 54, 0
4, 436800, Control_c, 0, 64, 0
4, 436840, Control_c, 0, 64, 127
4, 436920, Note_on_c, 0, 58, 68
4, 437040, Note_on_c, 0, 58, 0
4, 437040, Note_on_c, 0, 54, 69
4, 437160, Note_on_c, 0, 54, 0
4, 437160, Note_on_c, 0, 49, 67
4, 437280, Note_on_c, 0, 49, 0
4, 437280, Control_c, 0, 64, 0
4, 437320, Control_c, 0, 64, 127
4, 437400, Note_on_c, 0, 59, 65
4, 437520, Note_on_c, 0, 59, 0
4, 437520, Note_on_c, 0, 54, 64
4, 437640, Note_on_c, 0, 54, 0
4, 437640, Note_on_c, 0, 51, 62
4, 437760, Note_on_c, 0, 51, 0
4, 437760, Control_c, 0, 64, 0
4, 437800, Control_c, 0, 64, 127
4, 437880, Note_on_c, 0, 59, 59
4, 438000, Note_on_c, 0, 59, 0
4, 438120, Note_on_c, 0, 57, 60
4, 438240, Note_on_c, 0, 57, 0
4, 438240, Control_c, 0, 64, 0
4, 438280, Control_c, 0, 64, 127
4, 438360, Note_on_c, 0, 56, 62
4, 438480, Note_on_c, 0, 56, 0
4, 438480, Note_on_c, 0, 52, 64
4, 438600, Note_on_c, 0, 52, 0
4, 438720, Control_c, 0, 64, 0
4, 438760, Control_c, 0, 64, 127
4, 438840, Note_on_c, 0, 56, 68
4, 438960, Note_on_c, 0, 56, 0
4, 438960, Note_on_c, 0, 52, 69
4, 439080, Note_on_c, 0, 52, 0
4, 439080, Note_on_c, 0, 47, 66
4, 439200, Note_on_c, 0, 47, 0
4, 439200, Control_c, 0, 64, 0
4, 439240, Control_c, 0, 64, 127
4, 439320, Note_on_c, 0, 57, 64
4, 439440, Note_on_c, 0, 57, 0
4, 439440, Note_on_c, 0, 52, 63
4, 439560, Note_on_c, 0, 52, 0
4, 439560, Note_on_c, 0, 49, 62
4, 439680, Note_on_c, 0, 49, 0
4, 439680, Control_c, 0, 64, 0
4, 439720, Control_c, 0, 64, 127
4, 439800, Note_on_c, 0, 52, 59
4, 439920, Note_on_c, 0, 52, 0
4, 440040, Note_on_c, 0, 52, 57
4, 440160, Note_on_c, 0, 52, 0
4, 440160, Control_c, 0, 64, 0
4, 440200, Control_c, 0, 64, 127
4, 440280, Note_on_c, 0, 52, 58
4, 440400, Note_on_c, 0, 52, 0
4, 440520, Note_on_c, 0, 52, 60
4, 440640, Note_on_c, 0, 52, 0
4, 440640, Control_c, 0, 64, 0
4, 440680, Control_c, 0, 64, 127
4, 440760, Note_on_c, 0, 52, 62
4, 440880, Note_on_c, 0, 52, 0
4, 441000, Note_on_c, 0, 52, 63
4, 441120, Note_on_c, 0, 52, 0
4, 441120, Control_c, 0, 64, 0
4, 441160, Control_c, 0, 64, 127
4, 441240, Note_on_c, 0, 52, 65
4, 441360, Note_on_c, 0, 52, 0
4, 441480, Note_on_c, 0, 52, 67
4, 441600, Note_on_c, 0, 52, 0
4, 441600, Control_c, 0, 64, 0
4, 441640, Control_c, 0, 64, 127
4, 441720, Note_on_c, 0, 52, 68
4, 441840, Note_on_c, 0, 52, 0
4, 441960, Note_on_c, 0, 52, 67
4, 442080, Note_on_c, 0, 52, 0
4, 442080, Control_c, 0, 64, 0
4, 442120, Control_c, 0, 64, 127
4, 442200, Note_on_c, 0, 54, 69
4, 442320, Note_on_c, 0, 54, 0
4, 442440, Note_on_c, 0, 54, 70
4, 442440, Note_on_c, 0, 57, 70
4, 442560, Note_on_c, 0, 57, 0
4, 442560, Note_on_c, 0, 54, 0
4, 442560, Control_c, 0, 64, 0
4, 442600, Control_c, 0, 64, 127
4, 442680, Note_on_c, 0, 54, 68
4, 442680, Note_on_c, 0, 57, 68
4, 442800, Note_on_c, 0, 57, 0
4, 442800, Note_on_c, 0, 54, 0
4, 442920, Note_on_c, 0, 54, 61
4, 442920, Note_on_c, 0, 57, 61
4, 443040, Note_on_c, 0, 57, 0
4, 443040, Note_on_c, 0, 54, 0
4, 443040, Control_c, 0, 64, 0
4, 443040, Note_on_c, 0, 56, 58
4, 443080, Control_c, 0, 64, 127
4, 443160, Note_on_c, 0, 56, 0
4, 443160, Note_on_c, 0, 59, 55
4, 443280, Note_on_c, 0, 59, 0
4, 443280, Note_on_c, 0, 56, 54
4, 443400, Note_on_c, 0, 56, 0
4, 443520, Control_c, 0, 64, 0
4, 443560, Control_c, 0, 64, 127
4, 443640, Note_on_c, 0, 59, 57
4, 443760, Note_on_c, 0, 59, 0
4, 443760, Note_on_c, 0, 54, 59
4, 443880, Note_on_c, 0, 54, 0
4, 444000, Control_c, 0, 64, 0
4, 444040, Control_c, 0, 64, 127
4, 444120, Note_on_c, 0, 58, 63
4, 444240, Note_on_c, 0, 58, 0
4, 444240, Note_on_c, 0, 54, 65
4, 444360, Note_on_c, 0, 54, 0
4, 444480, Control_c, 0, 64, 0
4, 444520, Control_c, 0, 64, 127
4, 444600, Note_on_c, 0, 58, 70
4, 444720, Note_on_c, 0, 58, 0
4, 444720, Note_on_c, 0, 54, 71
4, 444840, Note_on_c, 0, 54, 0
4, 444840, Note_on_c, 0, 49, 68
4, 444960, Note_on_c, 0, 49, 0
4, 444960, Control_c, 0, 64, 0
4, 445000, Control_c, 0, 64, 127
4, 445080, Note_on_c, 0, 59, 69
4, 445200, Note_on_c, 0, 59, 0
4, 445200, Note_on_c, 0, 54, 67
4, 445320, Note_on_c, 0, 54, 0
4, 445320, Note_on_c, 0, 51, 65
4, 445440, Note_on_c, 0, 51, 0
4, 445440, Control_c, 0, 64, 0
4, 445480, Control_c, 0, 64, 127
4, 445560, Note_on_c, 0, 59, 61
4, 445680, Note_on_c, 0, 59, 0
4, 445800, Note_on_c, 0, 57, 60
4, 445920, Note_on_c, 0, 57, 0
4, 445920, Control_c, 0, 64, 0
4, 445960, Control_c, 0, 64, 127
4, 446040, Note_on_c, 0, 56, 63
4, 446160, Note_on_c, 0, 56, 0
4, 446160, Note_on_c, 0, 52, 64
4, 446280, Note_on_c, 0, 52, 0
4, 446400, Control_c, 0, 64, 0
4, 446440, Control_c, 0, 64, 127
4, 446520, Note_on_c, 0, 56, 68
4, 446640, Note_on_c, 0, 56, 0
4, 446640, Note_on_c, 0, 52, 70
4, 446760, Note_on_c, 0, 52, 0
4, 446760, Note_on_c, 0, 47, 68
4, 446880, Note_on_c, 0, 47, 0
4, 446880, Control_c, 0, 64, 0
4, 446920, Control_c, 0, 64, 127
4, 447000, Note_on_c, 0, 57, 66
4, 447120, Note_on_c, 0, 57, 0
4, 447120, Note_on_c, 0, 52, 64
4, 447240, Note_on_c, 0, 52, 0
4, 447240, Note_on_c, 0, 49, 63
4, 447360, Note_on_c, 0, 49, 0
4, 447360, Control_c, 0, 64, 0
4, 447400, Control_c, 0, 64, 127
4, 447480, Note_on_c, 0, 52, 60
4, 447600, Note_on_c, 0, 52, 0
4, 447720, Note_on_c, 0, 52, 58
4, 447840, Note_on_c, 0, 52, 0
4, 447840, Control_c, 0, 64, 0
4, 447880, Control_c, 0, 64, 127
4, 447960, Note_on_c, 0, 52, 59
4, 448080, Note_on_c, 0, 52, 0
4, 448200, Note_on_c, 0, 52, 62
4, 448320, Note_on_c, 0, 52, 0
4, 448320, Control_c, 0, 64, 0
4, 448320, Note_on_c, 0, 49, 64
4, 448360, Control_c, 0, 64, 127
4, 448440, Note_on_c, 0, 52, 65
4, 448553, Note_on_c, 0, 49, 0
4, 448560, Note_on_c, 0, 52, 0
4, 448560, Note_on_c, 0, 52, 66
4, 448680, Note_on_c, 0, 56, 68
4, 448785, Note_on_c, 0, 52, 0
4, 448800, Note_on_c, 0, 56, 0
4, 448800, Control_c, 0, 64, 0
4, 448800, Note_on_c, 0, 52, 69
4, 448840, Control_c, 0, 64, 127
4, 448920, Note_on_c, 0, 58, 70
4, 449025, Note_on_c, 0, 52, 0
4, 449040, Note_on_c, 0, 58, 0
4, 449040, Note_on_c, 0, 52, 72
4, 449160, Note_on_c, 0, 58, 73
4, 449265, Note_on_c, 0, 52, 0
4, 449280, Note_on_c, 0, 58, 0
4, 449280, Control_c, 0, 64, 0
4, 449280, Note_on_c, 0, 52, 74
4, 449320, Control_c, 0, 64, 127
4, 449400, Note_on_c, 0, 57, 76
4, 449505, Note_on_c, 0, 52, 0
4, 449520, Note_on_c, 0, 57, 0
4, 449520, Note_on_c, 0, 52, 77
4, 449640, Note_on_c, 0, 57, 75
4, 449745, Note_on_c, 0, 52, 0
4, 449760, Note_on_c, 0, 57, 0
4, 449760, Control_c, 0, 64, 0
4, 449760, Note_on_c, 0, 51, 73
4, 449800, Control_c, 0, 64, 127
4, 449880, Note_on_c, 0, 57, 72
4, 449985, Note_on_c, 0, 51, 0
4, 450000, Note_on_c, 0, 57, 0
4, 450000, Note_on_c, 0, 51, 71
4, 450120, Note_on_c, 0, 57, 70
4, 450225, Note_on_c, 0, 51, 0
4, 450240, Note_on_c, 0, 57, 0
4, 450240, Control_c, 0, 64, 0
4, 450240, Note_on_c, 0, 51, 69
4, 450280, Control_c, 0, 64, 127
4, 450360, Note_on_c, 0, 57, 68
4, 450465, Note_on_c, 0, 51, 0
4, 450480, Note_on_c, 0, 57, 0
4, 450480, Note_on_c, 0, 51, 67
4, 450600, Note_on_c, 0, 57, 65
4, 450705, Note_on_c, 0, 51, 0
4, 450720, Note_on_c, 0, 57, 0
4, 450720, Control_c, 0, 64, 0
4, 450720, Note_on_c, 0, 56, 64
4, 450760, Control_c, 0, 64, 127
4, 451200, Note_on_c, 0, 56, 0
4, 451200, Control_c, 0, 64, 0
4, 451240, Control_c, 0, 64, 127
4, 451680, Control_c, 0, 64, 0
4, 451720, Control_c, 0, 64, 127
4, 451800, Note_on_c, 0, 59, 59
4, 451920, Note_on_c, 0, 59, 0
4, 452040, Note_on_c, 0, 59, 58
4, 452160, Note_on_c, 0, 59, 0
4, 452160, Control_c, 0, 64, 0
4, 452200, Control_c, 0, 64, 127
4, 452280, Note_on_c, 0, 59, 57
4, 452400, Note_on_c, 0, 59, 0
4, 452520, Note_on_c, 0, 59, 57
4, 452640, Note_on_c, 0, 59, 0
4, 452640, Control_c, 0, 64, 0
4, 452680, Control_c, 0, 64, 127
4, 452760, Note_on_c, 0, 59, 56
4, 452880, Note_on_c, 0, 59, 0
4, 453000, Note_on_c, 0, 59, 55
4, 453120, Note_on_c, 0, 59, 0
4, 453120, Control_c, 0, 64, 0
4, 453160, Control_c, 0, 64, 127
4, 453240, Note_on_c, 0, 59, 54
4, 453360, Note_on_c, 0, 59, 0
4, 453480, Note_on_c, 0, 59, 54
4, 453600, Note_on_c, 0, 59, 0
4, 453600, Control_c, 0, 64, 0
4, 453640, Control_c, 0, 64, 127
4, 453720, Note_on_c, 0, 59, 53
4, 453840, Note_on_c, 0, 59, 0
4, 453960, Note_on_c, 0, 59, 52
4, 454080, Note_on_c, 0, 59, 0
4, 454080, Control_c, 0, 64, 0
4, 454120, Control_c, 0, 64, 127
4, 454200, Note_on_c, 0, 59, 51
4, 454320, Note_on_c, 0, 59, 0
4, 454440, Note_on_c, 0, 59, 51
4, 454560, Note_on_c, 0, 59, 0
4, 454560, Control_c, 0, 64, 0
4, 454560, Note_on_c, 0, 59, 50
4, 454600, Control_c, 0, 64, 127
4, 454800, Note_on_c, 0, 59, 0
4, 454920, Note_on_c, 0, 59, 53
4, 455040, Note_on_c, 0, 59, 0
4, 455040, Control_c, 0, 64, 0
4, 455080, Control_c, 0, 64, 127
4, 455160, Note_on_c, 0, 59, 53
4, 455280, Note_on_c, 0, 59, 0
4, 455400, Note_on_c, 0, 59, 55
4, 455520, Note_on_c, 0, 59, 0
4, 455520, Control_c, 0, 64, 0
4, 455560, Control_c, 0, 64, 127
4, 455640, Note_on_c, 0, 59, 56
4, 455760, Note_on_c, 0, 59, 0
4, 455880, Note_on_c, 0, 59, 58
4, 456000, Note_on_c, 0, 59, 0
4, 456000, Control_c, 0, 64, 0
4, 456040, Control_c, 0, 64, 127
4, 456120, Note_on_c, 0, 59, 62
4, 456240, Note_on_c, 0, 59, 0
4, 456360, Note_on_c, 0, 59, 61
4, 456480, Note_on_c, 0, 59, 0
4, 456480, Control_c, 0, 64, 0
4, 456520, Control_c, 0, 64, 127
4, 456600, Note_on_c, 0, 59, 59
4, 456720, Note_on_c, 0, 59, 0
4, 456840, Note_on_c, 0, 59, 61
4, 456960, Note_on_c, 0, 59, 0
4, 456960, Control_c, 0, 64, 0
4, 457000, Control_c, 0, 64, 127
4, 457080, Note_on_c, 0, 59, 65
4, 457200, Note_on_c, 0, 59, 0
4, 457320, Note_on_c, 0, 59, 69
4, 457440, Note_on_c, 0, 59, 0
4, 457440, Control_c, 0, 64, 0
4, 457480, Control_c, 0, 64, 127
4, 457560, Note_on_c, 0, 59, 73
4, 457680, Note_on_c, 0, 59, 0
4, 457800, Note_on_c, 0, 59, 77
4, 457920, Note_on_c, 0, 59, 0
4, 457920, Control_c, 0, 64, 0
4, 457960, Control_c, 0, 64, 127
4, 458040, Note_on_c, 0, 59, 81
4, 458160, Note_on_c, 0, 59, 0
4, 458280, Note_on_c, 0, 59, 86
4, 458400, Note_on_c, 0, 59, 0
4, 458400, Control_c, 0, 64, 0
4, 458440, Control_c, 0, 64, 127
4, 458520, Note_on_c, 0, 59, 83
4, 458640, Note_on_c, 0, 59, 0
4, 458760, Note_on_c, 0, 59, 79
4, 458880, Note_on_c, 0, 59, 0
4, 458880, Control_c, 0, 64, 0
4, 458920, Control_c, 0, 64, 127
4, 459000, Note_on_c, 0, 59, 64
4, 459120, Note_on_c, 0, 59, 0
4, 459240, Note_on_c, 0, 59, 56
4, 459360, Note_on_c, 0, 59, 0
4, 459360, Control_c, 0, 64, 0
4, 459400, Control_c, 0, 64, 127
4, 459480, Note_on_c, 0, 59, 58
4, 459600, Note_on_c, 0, 59, 0
4, 459720, Note_on_c, 0, 59, 60
4, 459840, Note_on_c, 0, 59, 0
4, 459840, Control_c, 0, 64, 0
4, 459880, Control_c, 0, 64, 127
4, 459960, Note_on_c, 0, 59, 62
4, 460080, Note_on_c, 0, 59, 0
4, 460200, Note_on_c, 0, 59, 64
4, 460320, Note_on_c, 0, 59, 0
4, 460320, Control_c, 0, 64, 0
4, 460360, Control_c, 0, 64, 127
4, 460440, Note_on_c, 0, 59, 66
4, 460560, Note_on_c, 0, 59, 0
4, 460680, Note_on_c, 0, 59, 68
4, 460800, Note_on_c, 0, 59, 0
4, 460800, Control_c, 0, 64, 0
4, 460840, Control_c, 0, 64, 127
4, 460920, Note_on_c, 0, 59, 70
4, 461040, Note_on_c, 0, 59, 0
4, 461160, Note_on_c, 0, 59, 72
4, 461280, Note_on_c, 0, 59, 0
4, 461280, Control_c, 0, 64, 0
4, 461320, Control_c, 0, 64, 127
4, 461400, Note_on_c, 0, 59, 74
4, 461520, Note_on_c, 0, 59, 0
4, 461640, Note_on_c, 0, 59, 76
4, 461760, Note_on_c, 0, 59, 0
4, 461760, Control_c, 0, 64, 0
4, 461800, Control_c, 0, 64, 127
4, 461880, Note_on_c, 0, 59, 78
4, 462000, Note_on_c, 0, 59, 0
4, 462120, Note_on_c, 0, 59, 80
4, 462240, Note_on_c, 0, 59, 0
4, 462240, Control_c, 0, 64, 0
4, 462280, Control_c, 0, 64, 127
4, 462360, Note_on_c, 0, 59, 79
4, 462480, Note_on_c, 0, 59, 0
4, 462600, Note_on_c, 0, 59, 68
4, 462720, Note_on_c, 0, 59, 0
4, 462720, Control_c, 0, 64, 0
4, 462760, Control_c, 0, 64, 127
4, 462840, Note_on_c, 0, 59, 62
4, 462960, Note_on_c, 0, 59, 0
4, 463080, Note_on_c, 0, 59, 65
4, 463200, Note_on_c, 0, 59, 0
4, 463200, Control_c, 0, 64, 0
4, 463240, Control_c, 0, 64, 127
4, 463320, Note_on_c, 0, 59, 67
4, 463440, Note_on_c, 0, 59, 0
4, 463560, Note_on_c, 0, 59, 70
4, 463680, Note_on_c, 0, 59, 0
4, 463680, Control_c, 0, 64, 0
4, 463720, Control_c, 0, 64, 127
4, 463800, Note_on_c, 0, 59, 72
4, 463920, Note_on_c, 0, 59, 0
4, 464040, Note_on_c, 0, 59, 74
4, 464160, Note_on_c, 0, 59, 0
4, 464160, Control_c, 0, 64, 0
4, 464280, Note_on_c, 0, 64, 77
4, 464400, Note_on_c, 0, 64, 0
4, 464520, Note_on_c, 0, 62, 79
4, 464640, Note_on_c, 0, 62, 0
4, 464760, Note_on_c, 0, 60, 81
4, 464880, Note_on_c, 0, 60, 0
4, 465000, Note_on_c, 0, 59, 84
4, 465120, Note_on_c, 0, 59, 0
4, 465240, Note_on_c, 0, 57, 86
4, 465360, Note_on_c, 0, 57, 0
4, 465480, Note_on_c, 0, 55, 89
4, 465600, Note_on_c, 0, 55, 0
4, 465720, Note_on_c, 0, 53, 91
4, 465840, Note_on_c, 0, 53, 0
4, 465960, Note_on_c, 0, 52, 93
4, 466080, Note_on_c, 0, 52, 0
4, 466200, Note_on_c, 0, 50, 96
4, 466320, Note_on_c, 0, 50, 0
4, 466440, Note_on_c, 0, 48, 98
4, 466560, Note_on_c, 0, 48, 0
4, 466680, Note_on_c, 0, 47, 100
4, 466800, Note_on_c, 0, 47, 0
4, 466920, Note_on_c, 0, 45, 103
4, 467040, Note_on_c, 0, 45, 0
4, 467160, Note_on_c, 0, 43, 101
4, 467280, Note_on_c, 0, 43, 0
4, 467400, Note_on_c, 0, 47, 97
4, 467520, Note_on_c, 0, 47, 0
4, 467640, Note_on_c, 0, 50, 94
4, 467760, Note_on_c, 0, 50, 0
4, 467880, Note_on_c, 0, 54, 90
4, 468000, Note_on_c, 0, 54, 0
4, 468120, Note_on_c, 0, 55, 87
4, 468240, Note_on_c, 0, 55, 0
4, 468360, Note_on_c, 0, 59, 83
4, 468480, Note_on_c, 0, 59, 0
4, 468600, Note_on_c, 0, 62, 80
4, 468720, Note_on_c, 0, 62, 0
4, 468840, Note_on_c, 0, 66, 76
4, 468960, Note_on_c, 0, 66, 0
4, 469080, Note_on_c, 0, 67, 72
4, 469200, Note_on_c, 0, 67, 0
4, 469320, Note_on_c, 0, 69, 69
4, 469440, Note_on_c, 0, 69, 0
4, 469560, Note_on_c, 0, 71, 65
4, 469680, Note_on_c, 0, 71, 0
4, 469800, Note_on_c, 0, 72, 62
4, 469920, Note_on_c, 0, 72, 0
4, 469920, Control_c, 0, 64, 0
4, 469960, Control_c, 0, 64, 127
4, 470040, Note_on_c, 0, 72, 58
4, 470160, Note_on_c, 0, 72, 0
4, 470280, Note_on_c, 0, 72, 55
4, 470400, Note_on_c, 0, 72, 0
4, 470400, Control_c, 0, 64, 0
4, 470440, Control_c, 0, 64, 127
4, 470520, Note_on_c, 0, 72, 51
4, 470640, Note_on_c, 0, 72, 0
4, 470880, Control_c, 0, 64, 0
4, 470920, Control_c, 0, 64, 127
4, 471040, Note_on_c, 0, 55, 46
4, 471200, Note_on_c, 0, 52, 46
4, 471280, Note_on_c, 0, 55, 0
4, 471360, Control_c, 0, 64, 0
4, 471400, Control_c, 0, 64, 127
4, 471440, Note_on_c, 0, 52, 0
4, 471520, Note_on_c, 0, 60, 47
4, 471680, Note_on_c, 0, 55, 48
4, 471760, Note_on_c, 0, 60, 0
4, 471800, Note_on_c, 0, 55, 0
4, 471840, Control_c, 0, 64, 0
4, 471880, Control_c, 0, 64, 127
4, 472000, Note_on_c, 0, 59, 49
4, 472160, Note_on_c, 0, 55, 49
4, 472240, Note_on_c, 0, 59, 0
4, 472320, Control_c, 0, 64, 0
4, 472360, Control_c, 0, 64, 127
4, 472400, Note_on_c, 0, 55, 0
4, 472480, Note_on_c, 0, 60, 50
4, 472640, Note_on_c, 0, 55, 50
4, 472720, Note_on_c, 0, 60, 0
4, 472760, Note_on_c, 0, 55, 0
4, 472800, Control_c, 0, 64, 0
4, 472840, Control_c, 0, 64, 127
4, 472960, Note_on_c, 0, 62, 51
4, 473120, Note_on_c, 0, 57, 52
4, 473200, Note_on_c, 0, 62, 0
4, 473280, Control_c, 0, 64, 0
4, 473320, Control_c, 0, 64, 127
4, 473360, Note_on_c, 0, 57, 0
4, 473440, Note_on_c, 0, 63, 53
4, 473600, Note_on_c, 0, 60, 53
4, 473680, Note_on_c, 0, 63, 0
4, 473720, Note_on_c, 0, 60, 0
4, 473760, Control_c, 0, 64, 0
4, 473800, Control_c, 0, 64, 127
4, 473920, Note_on_c, 0, 64, 54
4, 474080, Note_on_c, 0, 60, 55
4, 474160, Note_on_c, 0, 64, 0
4, 474240, Control_c, 0, 64, 0
4, 474280, Control_c, 0, 64, 127
4, 474320, Note_on_c, 0, 60, 0
4, 474400, Note_on_c, 0, 65, 56
4, 474560, Note_on_c, 0, 59, 56
4, 474560, Note_on_c, 0, 62, 56
4, 474640, Note_on_c, 0, 65, 0
4, 474680, Note_on_c, 0, 62, 0
4, 474680, Note_on_c, 0, 59, 0
4, 474720, Control_c, 0, 64, 0
4, 474720, Note_on_c, 0, 60, 57
4, 474760, Control_c, 0, 64, 127
4, 474840, Note_on_c, 0, 60, 0
4, 474840, Note_on_c, 0, 55, 57
4, 474960, Note_on_c, 0, 55, 0
4, 474960, Note_on_c, 0, 51, 57
4, 475080, Note_on_c, 0, 51, 0
4, 475080, Note_on_c, 0, 55, 58
4, 475200, Note_on_c, 0, 55, 0
4, 475200, Control_c, 0, 64, 0
4, 475240, Control_c, 0, 64, 127
4, 475320, Note_on_c, 0, 60, 58
4, 475440, Note_on_c, 0, 60, 0
4, 475440, Note_on_c, 0, 55, 59
4, 475560, Note_on_c, 0, 55, 0
4, 475680, Control_c, 0, 64, 0
4, 475720, Control_c, 0, 64, 127
4, 475800, Note_on_c, 0, 59, 60
4, 475920, Note_on_c, 0, 59, 0
4, 475920, Note_on_c, 0, 55, 60
4, 476040, Note_on_c, 0, 55, 0
4, 476160, Control_c, 0, 64, 0
4, 476200, Control_c, 0, 64, 127
4, 476280, Note_on_c, 0, 60, 61
4, 476400, Note_on_c, 0, 60, 0
4, 476400, Note_on_c, 0, 55, 62
4, 476520, Note_on_c, 0, 55, 0
4, 476640, Control_c, 0, 64, 0
4, 476680, Control_c, 0, 64, 127
4, 476760, Note_on_c, 0, 62, 63
4, 476880, Note_on_c, 0, 62, 0
4, 476880, Note_on_c, 0, 56, 63
4, 477000, Note_on_c, 0, 56, 0
4, 477120, Control_c, 0, 64, 0
4, 477160, Control_c, 0, 64, 127
4, 477240, Note_on_c, 0, 63, 64
4, 477360, Note_on_c, 0, 63, 0
4, 477360, Note_on_c, 0, 60, 65
4, 477480, Note_on_c, 0, 60, 0
4, 477600, Control_c, 0, 64, 0
4, 477640, Control_c, 0, 64, 127
4, 477720, Note_on_c, 0, 63, 66
4, 477840, Note_on_c, 0, 63, 0
4, 477840, Note_on_c, 0, 60, 66
4, 477960, Note_on_c, 0, 60, 0
4, 478080, Control_c, 0, 64, 0
4, 478120, Control_c, 0, 64, 127
4, 478200, Note_on_c, 0, 63, 67
4, 478320, Note_on_c, 0, 63, 0
4, 478440, Note_on_c, 0, 63, 68
4, 478560, Note_on_c, 0, 63, 0
4, 478560, Control_c, 0, 64, 0
4, 478560, Note_on_c, 0, 61, 68
4, 478600, Control_c, 0, 64, 127
4, 478720, Note_on_c, 0, 56, 69
4, 478800, Note_on_c, 0, 61, 0
4, 478880, Note_on_c, 0, 52, 69
4, 478960, Note_on_c, 0, 56, 0
4, 479040, Control_c, 0, 64, 0
4, 479080, Control_c, 0, 64, 127
4, 479120, Note_on_c, 0, 52, 0
4, 479200, Note_on_c, 0, 61, 70
4, 479360, Note_on_c, 0, 56, 71
4, 479440, Note_on_c, 0, 61, 0
4, 479480, Note_on_c, 0, 56, 0
4, 479520, Control_c, 0, 64, 0
4, 479560, Control_c, 0, 64, 127
4, 479680, Note_on_c, 0, 60, 71
4, 479840, Note_on_c, 0, 56, 72
4, 479920, Note_on_c, 0, 60, 0
4, 480000, Control_c, 0, 64, 0
4, 480040, Control_c, 0, 64, 127
4, 480080, Note_on_c, 0, 56, 0
4, 480160, Note_on_c, 0, 61, 73
4, 480320, Note_on_c, 0, 56, 73
4, 480400, Note_on_c, 0, 61, 0
4, 480440, Note_on_c, 0, 56, 0
4, 480480, Control_c, 0, 64, 0
4, 480480, Control_c, 0, 64, 0
4, 480520, Control_c, 0, 64, 127
4, 480520, Control_c, 0, 64, 127
4, 480640, Note_on_c, 0, 63, 74
4, 480800, Note_on_c, 0, 57, 75
4, 480880, Note_on_c, 0, 63, 0
4, 480960, Control_c, 0, 64, 0
4, 480960, Control_c, 0, 64, 0
4, 481000, Control_c, 0, 64, 127
4, 481000, Control_c, 0, 64, 127
4, 481040, Note_on_c, 0, 57, 0
4, 481120, Note_on_c, 0, 64, 76
4, 481280, Note_on_c, 0, 61, 76
4, 481360, Note_on_c, 0, 64, 0
4, 481400, Note_on_c, 0, 61, 0
4, 481440, Control_c, 0, 64, 0
4, 481480, Control_c, 0, 64, 127
4, 481600, Note_on_c, 0, 64, 77
4, 481760, Note_on_c, 0, 61, 78
4, 481840, Note_on_c, 0, 64, 0
4, 481920, Control_c, 0, 64, 0
4, 481960, Control_c, 0, 64, 127
4, 482000, Note_on_c, 0, 61, 0
4, 482040, Note_on_c, 0, 63, 79
4, 482160, Note_on_c, 0, 63, 0
4, 482160, Note_on_c, 0, 60, 79
4, 482280, Note_on_c, 0, 60, 0
4, 482280, Note_on_c, 0, 63, 79
4, 482400, Note_on_c, 0, 63, 0
4, 482400, Control_c, 0, 64, 0
4, 482400, Note_on_c, 0, 61, 79
4, 482440, Control_c, 0, 64, 127
4, 482520, Note_on_c, 0, 61, 0
4, 482520, Note_on_c, 0, 56, 79
4, 482640, Note_on_c, 0, 56, 0
4, 482640, Note_on_c, 0, 53, 79
4, 482760, Note_on_c, 0, 53, 0
4, 482760, Note_on_c, 0, 56, 79
4, 482880, Note_on_c, 0, 56, 0
4, 482880, Control_c, 0, 64, 0
4, 482920, Control_c, 0, 64, 127
4, 483000, Note_on_c, 0, 61, 79
4, 483120, Note_on_c, 0, 61, 0
4, 483120, Note_on_c, 0, 56, 79
4, 483240, Note_on_c, 0, 56, 0
4, 483360, Control_c, 0, 64, 0
4, 483400, Control_c, 0, 64, 127
4, 483480, Note_on_c, 0, 60, 79
4, 483600, Note_on_c, 0, 60, 0
4, 483600, Note_on_c, 0, 56, 79
4, 483720, Note_on_c, 0, 56, 0
4, 483840, Control_c, 0, 64, 0
4, 483880, Control_c, 0, 64, 127
4, 483960, Note_on_c, 0, 61, 84
4, 484080, Note_on_c, 0, 61, 0
4, 484080, Note_on_c, 0, 56, 85
4, 484200, Note_on_c, 0, 56, 0
4, 484320, Control_c, 0, 64, 0
4, 484360, Control_c, 0, 64, 127
4, 484440, Note_on_c, 0, 61, 86
4, 484560, Note_on_c, 0, 61, 0
4, 484560, Note_on_c, 0, 57, 86
4, 484680, Note_on_c, 0, 57, 0
4, 484800, Control_c, 0, 64, 0
4, 484840, Control_c, 0, 64, 127
4, 484920, Note_on_c, 0, 61, 87
4, 485040, Note_on_c, 0, 61, 0
4, 485040, Note_on_c, 0, 57, 88
4, 485160, Note_on_c, 0, 57, 0
4, 485280, Control_c, 0, 64, 0
4, 485320, Control_c, 0, 64, 127
4, 485400, Note_on_c, 0, 61, 89
4, 485520, Note_on_c, 0, 61, 0
4, 485520, Note_on_c, 0, 57, 89
4, 485640, Note_on_c, 0, 57, 0
4, 485760, Control_c, 0, 64, 0
4, 485800, Control_c, 0, 64, 127
4, 485880, Note_on_c, 0, 61, 90
4, 486000, Note_on_c, 0, 61, 0
4, 486000, Note_on_c, 0, 57, 90
4, 486120, Note_on_c, 0, 57, 0
4, 486240, Control_c, 0, 64, 0
4, 486240, Note_on_c, 0, 59, 93
4, 486480, Note_on_c, 0, 59, 0
4, 495840, Control_c, 0, 64, 0
4, 495840, Note_on_c, 0, 52, 55
4, 495880, Control_c, 0, 64, 127
4, 495960, Note_on_c, 0, 59, 61
4, 496080, Note_on_c, 0, 59, 0
4, 496200, Note_on_c, 0, 59, 60
4, 496320, Note_on_c, 0, 59, 0
4, 496320, Note_on_c, 0, 52, 0
4, 496320, Control_c, 0, 64, 0
4, 496360, Control_c, 0, 64, 127
4, 496440, Note_on_c, 0, 59, 60
4, 496560, Note_on_c, 0, 59, 0
4, 496680, Note_on_c, 0, 59, 59
4, 496800, Note_on_c, 0, 59, 0
4, 496800, Control_c, 0, 64, 0
4, 496800, Note_on_c, 0, 47, 53
4, 496840, Control_c, 0, 64, 127
4, 496920, Note_on_c, 0, 59, 59
4, 497040, Note_on_c, 0, 59, 0
4, 497160, Note_on_c, 0, 59, 58
4, 497280, Note_on_c, 0, 59, 0
4, 497280, Note_on_c, 0, 47, 0
4, 497280, Control_c, 0, 64, 0
4, 497320, Control_c, 0, 64, 127
4, 497400, Note_on_c, 0, 59, 57
4, 497520, Note_on_c, 0, 59, 0
4, 497640, Note_on_c, 0, 59, 57
4, 497760, Note_on_c, 0, 59, 0
4, 497760, Control_c, 0, 64, 0
4, 497760, Note_on_c, 0, 49, 51
4, 497800, Control_c, 0, 64, 127
4, 497880, Note_on_c, 0, 59, 56
4, 498000, Note_on_c, 0, 59, 0
4, 498000, Note_on_c, 0, 49, 0
4, 498120, Note_on_c, 0, 59, 55
4, 498240, Note_on_c, 0, 59, 0
4, 498240, Control_c, 0, 64, 0
4, 498240, Note_on_c, 0, 51, 50
4, 498280, Control_c, 0, 64, 127
4, 498360, Note_on_c, 0, 59, 55
4, 498396, Note_on_c, 0, 51, 0
4, 498480, Note_on_c, 0, 59, 0
4, 498480, Note_on_c, 0, 47, 50
4, 498600, Note_on_c, 0, 59, 54
4, 498636, Note_on_c, 0, 47, 0
4, 498720, Note_on_c, 0, 59, 0
4, 498720, Control_c, 0, 64, 0
4, 498720, Note_on_c, 0, 59, 54
4, 498720, Note_on_c, 0, 52, 52
4, 498760, Control_c, 0, 64, 127
4, 498960, Note_on_c, 0, 52, 0
4, 499200, Note_on_c, 0, 59, 0
4, 499200, Control_c, 0, 64, 0
4, 499240, Control_c, 0, 64, 127
4, 499680, Control_c, 0, 64, 0
4, 499720, Control_c, 0, 64, 127
4, 499800, Note_on_c, 0, 59, 65
4, 499920, Note_on_c, 0, 59, 0
4, 500040, Note_on_c, 0, 59, 63
4, 500160, Note_on_c, 0, 59, 0
4, 500160, Control_c, 0, 64, 0
4, 500200, Control_c, 0, 64, 127
4, 500280, Note_on_c, 0, 59, 62
4, 500400, Note_on_c, 0, 59, 0
4, 500520, Note_on_c, 0, 59, 60
4, 500640, Note_on_c, 0, 59, 0
4, 500640, Control_c, 0, 64, 0
4, 500680, Control_c, 0, 64, 127
4, 500760, Note_on_c, 0, 59, 59
4, 500880, Note_on_c, 0, 59, 0
4, 501000, Note_on_c, 0, 59, 57
4, 501120, Note_on_c, 0, 59, 0
4, 501120, Control_c, 0, 64, 0
4, 501160, Control_c, 0, 64, 127
4, 501240, Note_on_c, 0, 59, 56
4, 501360, Note_on_c, 0, 59, 0
4, 501480, Note_on_c, 0, 59, 54
4, 501600, Note_on_c, 0, 59, 0
4, 501600, Control_c, 0, 64, 0
4, 501640, Control_c, 0, 64, 127
4, 501720, Note_on_c, 0, 59, 54
4, 501840, Note_on_c, 0, 59, 0
4, 501960, Note_on_c, 0, 59, 57
4, 502080, Note_on_c, 0, 59, 0
4, 502080, Control_c, 0, 64, 0
4, 502120, Control_c, 0, 64, 127
4, 502200, Note_on_c, 0, 59, 60
4, 502320, Note_on_c, 0, 59, 0
4, 502320, Note_on_c, 0, 54, 63
4, 502440, Note_on_c, 0, 57, 63
4, 502560, Note_on_c, 0, 57, 0
4, 502560, Note_on_c, 0, 54, 0
4, 502560, Control_c, 0, 64, 0
4, 502560, Note_on_c, 0, 56, 62
4, 502600, Control_c, 0, 64, 127
4, 502680, Note_on_c, 0, 56, 0
4, 502680, Note_on_c, 0, 59, 61
4, 502800, Note_on_c, 0, 59, 0
4, 502800, Note_on_c, 0, 56, 60
4, 502920, Note_on_c, 0, 56, 0
4, 503040, Control_c, 0, 64, 0
4, 503080, Control_c, 0, 64, 127
4, 503160, Note_on_c, 0, 59, 56
4, 503280, Note_on_c, 0, 59, 0
4, 503280, Note_on_c, 0, 54, 57
4, 503400, Note_on_c, 0, 54, 0
4, 503520, Control_c, 0, 64, 0
4, 503560, Control_c, 0, 64, 127
4, 503640, Note_on_c, 0, 58, 60
4, 503760, Note_on_c, 0, 58, 0
4, 503760, Note_on_c, 0, 54, 61
4, 503880, Note_on_c, 0, 54, 0
4, 504000, Control_c, 0, 64, 0
4, 504040, Control_c, 0, 64, 127
4, 504120, Note_on_c, 0, 58, 64
4, 504240, Note_on_c, 0, 58, 0
4, 504240, Note_on_c, 0, 54, 65
4, 504360, Note_on_c, 0, 54, 0
4, 504360, Note_on_c, 0, 49, 67
4, 504480, Note_on_c, 0, 49, 0
4, 504480, Control_c, 0, 64, 0
4, 504520, Control_c, 0, 64, 127
4, 504600, Note_on_c, 0, 59, 65
4, 504720, Note_on_c, 0, 59, 0
4, 504720, Note_on_c, 0, 54, 64
4, 504840, Note_on_c, 0, 54, 0
4, 504840, Note_on_c, 0, 51, 62
4, 504960, Note_on_c, 0, 51, 0
4, 504960, Control_c, 0, 64, 0
4, 505000, Control_c, 0, 64, 127
4, 505080, Note_on_c, 0, 59, 57
4, 505200, Note_on_c, 0, 59, 0
4, 505320, Note_on_c, 0, 57, 59
4, 505440, Note_on_c, 0, 57, 0
4, 505440, Control_c, 0, 64, 0
4, 505480, Control_c, 0, 64, 127
4, 505560, Note_on_c, 0, 56, 62
4, 505680, Note_on_c, 0, 56, 0
4, 505680, Note_on_c, 0, 52, 64
4, 505800, Note_on_c, 0, 52, 0
4, 505920, Control_c, 0, 64, 0
4, 505960, Control_c, 0, 64, 127
4, 506040, Note_on_c, 0, 56, 68
4, 506160, Note_on_c, 0, 56, 0
4, 506160, Note_on_c, 0, 52, 69
4, 506280, Note_on_c, 0, 52, 0
4, 506280, Note_on_c, 0, 47, 66
4, 506400, Note_on_c, 0, 47, 0
4, 506400, Control_c, 0, 64, 0
4, 506440, Control_c, 0, 64, 127
4, 506520, Note_on_c, 0, 57, 64
4, 506640, Note_on_c, 0, 57, 0
4, 506640, Note_on_c, 0, 52, 63
4, 506760, Note_on_c, 0, 52, 0
4, 506760, Note_on_c, 0, 49, 62
4, 506880, Note_on_c, 0, 49, 0
4, 506880, Control_c, 0, 64, 0
4, 506920, Control_c, 0, 64, 127
4, 507000, Note_on_c, 0, 52, 59
4, 507120, Note_on_c, 0, 52, 0
4, 507240, Note_on_c, 0, 52, 57
4, 507360, Note_on_c, 0, 52, 0
4, 507360, Control_c, 0, 64, 0
4, 507400, Control_c, 0, 64, 127
4, 507480, Note_on_c, 0, 52, 60
4, 507600, Note_on_c, 0, 52, 0
4, 507720, Note_on_c, 0, 52, 62
4, 507840, Note_on_c, 0, 52, 0
4, 507840, Control_c, 0, 64, 0
4, 507880, Control_c, 0, 64, 127
4, 507960, Note_on_c, 0, 52, 64
4, 508080, Note_on_c, 0, 52, 0
4, 508200, Note_on_c, 0, 52, 67
4, 508320, Note_on_c, 0, 52, 0
4, 508320, Control_c, 0, 64, 0
4, 508360, Control_c, 0, 64, 127
4, 508440, Note_on_c, 0, 52, 69
4, 508560, Note_on_c, 0, 52, 0
4, 508680, Note_on_c, 0, 52, 71
4, 508800, Note_on_c, 0, 52, 0
4, 508800, Control_c, 0, 64, 0
4, 508840, Control_c, 0, 64, 127
4, 508920, Note_on_c, 0, 52, 71
4, 509040, Note_on_c, 0, 52, 0
4, 509160, Note_on_c, 0, 52, 73
4, 509280, Note_on_c, 0, 52, 0
4, 509280, Control_c, 0, 64, 0
4, 509320, Control_c, 0, 64, 127
4, 509400, Note_on_c, 0, 54, 66
4, 509520, Note_on_c, 0, 54, 0
4, 509640, Note_on_c, 0, 54, 63
4, 509640, Note_on_c, 0, 57, 63
4, 509760, Note_on_c, 0, 57, 0
4, 509760, Note_on_c, 0, 54, 0
4, 509760, Control_c, 0, 64, 0
4, 509800, Control_c, 0, 64, 127
4, 509880, Note_on_c, 0, 54, 59
4, 509880, Note_on_c, 0, 57, 59
4, 510000, Note_on_c, 0, 57, 0
4, 510000, Note_on_c, 0, 54, 0
4, 510120, Note_on_c, 0, 54, 55
4, 510120, Note_on_c, 0, 57, 55
4, 510240, Note_on_c, 0, 57, 0
4, 510240, Note_on_c, 0, 54, 0
4, 510240, Control_c, 0, 64, 0
4, 510240, Note_on_c, 0, 56, 54
4, 510280, Control_c, 0, 64, 127
4, 510360, Note_on_c, 0, 56, 0
4, 510360, Note_on_c, 0, 59, 55
4, 510480, Note_on_c, 0, 59, 0
4, 510480, Note_on_c, 0, 56, 54
4, 510600, Note_on_c, 0, 56, 0
4, 510720, Control_c, 0, 64, 0
4, 510760, Control_c, 0, 64, 127
4, 510840, Note_on_c, 0, 59, 57
4, 510960, Note_on_c, 0, 59, 0
4, 510960, Note_on_c, 0, 54, 59
4, 511080, Note_on_c, 0, 54, 0
4, 511200, Control_c, 0, 64, 0
4, 511240, Control_c, 0, 64, 127
4, 511320, Note_on_c, 0, 58, 63
4, 511440, Note_on_c, 0, 58, 0
4, 511440, Note_on_c, 0, 54, 65
4, 511560, Note_on_c, 0, 54, 0
4, 511680, Control_c, 0, 64, 0
4, 511720, Control_c, 0, 64, 127
4, 511800, Note_on_c, 0, 58, 70
4, 511920, Note_on_c, 0, 58, 0
4, 511920, Note_on_c, 0, 54, 71
4, 512040, Note_on_c, 0, 54, 0
4, 512040, Note_on_c, 0, 49, 68
4, 512160, Note_on_c, 0, 49, 0
4, 512160, Control_c, 0, 64, 0
4, 512200, Control_c, 0, 64, 127
4, 512280, Note_on_c, 0, 59, 69
4, 512400, Note_on_c, 0, 59, 0
4, 512400, Note_on_c, 0, 54, 67
4, 512520, Note_on_c, 0, 54, 0
4, 512520, Note_on_c, 0, 51, 65
4, 512640, Note_on_c, 0, 51, 0
4, 512640, Control_c, 0, 64, 0
4, 512680, Control_c, 0, 64, 127
4, 512760, Note_on_c, 0, 59, 61
4, 512880, Note_on_c, 0, 59, 0
4, 513000, Note_on_c, 0, 57, 61
4, 513120, Note_on_c, 0, 57, 0
4, 513120, Control_c, 0, 64, 0
4, 513160, Control_c, 0, 64, 127
4, 513240, Note_on_c, 0, 56, 63
4, 513360, Note_on_c, 0, 56, 0
4, 513360, Note_on_c, 0, 52, 63
4, 513480, Note_on_c, 0, 52, 0
4, 513600, Control_c, 0, 64, 0
4, 513640, Control_c, 0, 64, 127
4, 513720, Note_on_c, 0, 56, 66
4, 513840, Note_on_c, 0, 56, 0
4, 513840, Note_on_c, 0, 52, 67
4, 513960, Note_on_c, 0, 52, 0
4, 513960, Note_on_c, 0, 47, 64
4, 514080, Note_on_c, 0, 47, 0
4, 514080, Control_c, 0, 64, 0
4, 514120, Control_c, 0, 64, 127
4, 514200, Note_on_c, 0, 57, 65
4, 514320, Note_on_c, 0, 57, 0
4, 514320, Note_on_c, 0, 52, 64
4, 514440, Note_on_c, 0, 52, 0
4, 514440, Note_on_c, 0, 49, 63
4, 514560, Note_on_c, 0, 49, 0
4, 514560, Control_c, 0, 64, 0
4, 514600, Control_c, 0, 64, 127
4, 514680, Note_on_c, 0, 52, 60
4, 514800, Note_on_c, 0, 52, 0
4, 514920, Note_on_c, 0, 52, 59
4, 515040, Note_on_c, 0, 52, 0
4, 515040, Control_c, 0, 64, 0
4, 515080, Control_c, 0, 64, 127
4, 515160, Note_on_c, 0, 52, 61
4, 515280, Note_on_c, 0, 52, 0
4, 515400, Note_on_c, 0, 52, 63
4, 515520, Note_on_c, 0, 52, 0
4, 515520, Control_c, 0, 64, 0
4, 515520, Note_on_c, 0, 49, 64
4, 515560, Control_c, 0, 64, 127
4, 515640, Note_on_c, 0, 52, 65
4, 515753, Note_on_c, 0, 49, 0
4, 515760, Note_on_c, 0, 52, 0
4, 515760, Note_on_c, 0, 52, 66
4, 515880, Note_on_c, 0, 56, 68
4, 515985, Note_on_c, 0, 52, 0
4, 516000, Note_on_c, 0, 56, 0
4, 516000, Control_c, 0, 64, 0
4, 516000, Note_on_c, 0, 52, 69
4, 516040, Control_c, 0, 64, 127
4, 516120, Note_on_c, 0, 58, 70
4, 516225, Note_on_c, 0, 52, 0
4, 516240, Note_on_c, 0, 58, 0
4, 516240, Note_on_c, 0, 52, 72
4, 516360, Note_on_c, 0, 58, 73
4, 516465, Note_on_c, 0, 52, 0
4, 516480, Note_on_c, 0, 58, 0
4, 516480, Control_c, 0, 64, 0
4, 516480, Note_on_c, 0, 52, 74
4, 516520, Control_c, 0, 64, 127
4, 516600, Note_on_c, 0, 57, 76
4, 516705, Note_on_c, 0, 52, 0
4, 516720, Note_on_c, 0, 57, 0
4, 516720, Note_on_c, 0, 52, 77
4, 516840, Note_on_c, 0, 57, 75
4, 516945, Note_on_c, 0, 52, 0
4, 516960, Note_on_c, 0, 57, 0
4, 516960, Control_c, 0, 64, 0
4, 516960, Note_on_c, 0, 51, 73
4, 517000, Control_c, 0, 64, 127
4, 517080, Note_on_c, 0, 57, 72
4, 517185, Note_on_c, 0, 51, 0
4, 517200, Note_on_c, 0, 57, 0
4, 517200, Note_on_c, 0, 51, 71
4, 517320, Note_on_c, 0, 57, 70
4, 517425, Note_on_c, 0, 51, 0
4, 517440, Note_on_c, 0, 57, 0
4, 517440, Control_c, 0, 64, 0
4, 517440, Note_on_c, 0, 51, 69
4, 517480, Control_c, 0, 64, 127
4, 517560, Note_on_c, 0, 57, 68
4, 517665, Note_on_c, 0, 51, 0
4, 517680, Note_on_c, 0, 57, 0
4, 517680, Note_on_c, 0, 51, 67
4, 517800, Note_on_c, 0, 57, 65
4, 517905, Note_on_c, 0, 51, 0
4, 517920, Note_on_c, 0, 57, 0
4, 517920, Control_c, 0, 64, 0
4, 517920, Note_on_c, 0, 56, 64
4, 517960, Control_c, 0, 64, 127
4, 518400, Note_on_c, 0, 56, 0
4, 518400, Control_c, 0, 64, 0
4, 518440, Control_c, 0, 64, 127
4, 518880, Control_c, 0, 64, 0
4, 518920, Control_c, 0, 64, 127
4, 519000, Note_on_c, 0, 59, 59
4, 519120, Note_on_c, 0, 59, 0
4, 519240, Note_on_c, 0, 59, 58
4, 519360, Note_on_c, 0, 59, 0
4, 519360, Control_c, 0, 64, 0
4, 519400, Control_c, 0, 64, 127
4, 519480, Note_on_c, 0, 59, 57
4, 519600, Note_on_c, 0, 59, 0
4, 519720, Note_on_c, 0, 59, 57
4, 519840, Note_on_c, 0, 59, 0
4, 519840, Control_c, 0, 64, 0
4, 519880, Control_c, 0, 64, 127
4, 519960, Note_on_c, 0, 59, 56
4, 520080, Note_on_c, 0, 59, 0
4, 520200, Note_on_c, 0, 59, 55
4, 520320, Note_on_c, 0, 59, 0
4, 520320, Control_c, 0, 64, 0
4, 520360, Control_c, 0, 64, 127
4, 520440, Note_on_c, 0, 59, 54
4, 520560, Note_on_c, 0, 59, 0
4, 520680, Note_on_c, 0, 59, 54
4, 520800, Note_on_c, 0, 59, 0
4, 520800, Control_c, 0, 64, 0
4, 520840, Control_c, 0, 64, 127
4, 520920, Note_on_c, 0, 59, 53
4, 521040, Note_on_c, 0, 59, 0
4, 521160, Note_on_c, 0, 59, 52
4, 521280, Note_on_c, 0, 59, 0
4, 521280, Control_c, 0, 64, 0
4, 521320, Control_c, 0, 64, 127
4, 521400, Note_on_c, 0, 59, 51
4, 521520, Note_on_c, 0, 59, 0
4, 521640, Note_on_c, 0, 59, 51
4, 521760, Note_on_c, 0, 59, 0
4, 521760, Control_c, 0, 64, 0
4, 521760, Note_on_c, 0, 59, 50
4, 521800, Control_c, 0, 64, 127
4, 522000, Note_on_c, 0, 59, 0
4, 522120, Note_on_c, 0, 59, 53
4, 522240, Note_on_c, 0, 59, 0
4, 522240, Control_c, 0, 64, 0
4, 522280, Control_c, 0, 64, 127
4, 522360, Note_on_c, 0, 59, 53
4, 522480, Note_on_c, 0, 59, 0
4, 522600, Note_on_c, 0, 59, 55
4, 522720, Note_on_c, 0, 59, 0
4, 522720, Control_c, 0, 64, 0
4, 522760, Control_c, 0, 64, 127
4, 522840, Note_on_c, 0, 59, 56
4, 522960, Note_on_c, 0, 59, 0
4, 523080, Note_on_c, 0, 59, 58
4, 523200, Note_on_c, 0, 59, 0
4, 523200, Control_c, 0, 64, 0
4, 523240, Control_c, 0, 64, 127
4, 523320, Note_on_c, 0, 59, 62
4, 523440, Note_on_c, 0, 59, 0
4, 523560, Note_on_c, 0, 59, 61
4, 523680, Note_on_c, 0, 59, 0
4, 523680, Control_c, 0, 64, 0
4, 523720, Control_c, 0, 64, 127
4, 523800, Note_on_c, 0, 59, 59
4, 523920, Note_on_c, 0, 59, 0
4, 524040, Note_on_c, 0, 59, 57
4, 524160, Note_on_c, 0, 59, 0
4, 524160, Control_c, 0, 64, 0
4, 524200, Control_c, 0, 64, 127
4, 524280, Note_on_c, 0, 59, 59
4, 524400, Note_on_c, 0, 59, 0
4, 524520, Note_on_c, 0, 59, 65
4, 524640, Note_on_c, 0, 59, 0
4, 524640, Control_c, 0, 64, 0
4, 524680, Control_c, 0, 64, 127
4, 524760, Note_on_c, 0, 59, 70
4, 524880, Note_on_c, 0, 59, 0
4, 525000, Note_on_c, 0, 59, 75
4, 525120, Note_on_c, 0, 59, 0
4, 525120, Control_c, 0, 64, 0
4, 525160, Control_c, 0, 64, 127
4, 525240, Note_on_c, 0, 59, 80
4, 525360, Note_on_c, 0, 59, 0
4, 525480, Note_on_c, 0, 59, 86
4, 525600, Note_on_c, 0, 59, 0
4, 525600, Control_c, 0, 64, 0
4, 534480, Note_on_c, 0, 71, 71
4, 534600, Note_on_c, 0, 71, 0
4, 534600, Note_on_c, 0, 73, 69
4, 534720, Note_on_c, 0, 73, 0
4, 534720, Note_on_c, 0, 71, 67
4, 534840, Note_on_c, 0, 71, 0
4, 534840, Note_on_c, 0, 73, 65
4, 534960, Note_on_c, 0, 73, 0
4, 534960, Note_on_c, 0, 71, 63
4, 535080, Note_on_c, 0, 71, 0
4, 535080, Note_on_c, 0, 73, 61
4, 535200, Note_on_c, 0, 73, 0
4, 535200, Note_on_c, 0, 71, 60
4, 535320, Note_on_c, 0, 71, 0
4, 535320, Note_on_c, 0, 73, 61
4, 535440, Note_on_c, 0, 73, 0
4, 535440, Note_on_c, 0, 71, 61
4, 535560, Note_on_c, 0, 71, 0
4, 535560, Note_on_c, 0, 73, 62
4, 535680, Note_on_c, 0, 73, 0
4, 535680, Note_on_c, 0, 71, 63
4, 535800, Note_on_c, 0, 71, 0
4, 535800, Note_on_c, 0, 73, 63
4, 535920, Note_on_c, 0, 73, 0
4, 535920, Note_on_c, 0, 71, 64
4, 536040, Note_on_c, 0, 71, 0
4, 536040, Note_on_c, 0, 73, 65
4, 536160, Note_on_c, 0, 73, 0
4, 536160, Note_on_c, 0, 71, 66
4, 536280, Note_on_c, 0, 71, 0
4, 536280, Note_on_c, 0, 73, 66
4, 536400, Note_on_c, 0, 73, 0
4, 536400, Note_on_c, 0, 71, 68
4, 536520, Note_on_c, 0, 71, 0
4, 536520, Note_on_c, 0, 73, 66
4, 536640, Note_on_c, 0, 73, 0
4, 536640, Note_on_c, 0, 71, 65
4, 536760, Note_on_c, 0, 71, 0
4, 536760, Note_on_c, 0, 73, 63
4, 536880, Note_on_c, 0, 73, 0
4, 536880, Note_on_c, 0, 71, 62
4, 537000, Note_on_c, 0, 71, 0
4, 537000, Note_on_c, 0, 73, 60
4, 537120, Note_on_c, 0, 73, 0
4, 537120, Note_on_c, 0, 71, 60
4, 537240, Note_on_c, 0, 71, 0
4, 537240, Note_on_c, 0, 73, 58
4, 537360, Note_on_c, 0, 73, 0
4, 537360, Note_on_c, 0, 71, 59
4, 537480, Note_on_c, 0, 71, 0
4, 537480, Note_on_c, 0, 73, 59
4, 537600, Note_on_c, 0, 73, 0
4, 537600, Note_on_c, 0, 71, 60
4, 537720, Note_on_c, 0, 71, 0
4, 537720, Note_on_c, 0, 73, 60
4, 537840, Note_on_c, 0, 73, 0
4, 537840, Note_on_c, 0, 71, 61
4, 537960, Note_on_c, 0, 71, 0
4, 537960, Note_on_c, 0, 73, 62
4, 538080, Note_on_c, 0, 73, 0
4, 538080, Note_on_c, 0, 71, 62
4, 538200, Note_on_c, 0, 71, 0
4, 538200, Note_on_c, 0, 73, 63
4, 538320, Note_on_c, 0, 73, 0
4, 538320, Note_on_c, 0, 71, 64
4, 538440, Note_on_c, 0, 71, 0
4, 538440, Note_on_c, 0, 73, 64
4, 538560, Note_on_c, 0, 73, 0
4, 538560, Note_on_c, 0, 71, 65
4, 538680, Note_on_c, 0, 71, 0
4, 538680, Note_on_c, 0, 73, 65
4, 538800, Note_on_c, 0, 73, 0
4, 538800, Note_on_c, 0, 71, 66
4, 538920, Note_on_c, 0, 71, 0
4, 538920, Note_on_c, 0, 73, 67
4, 539040, Note_on_c, 0, 73, 0
4, 539040, Control_c, 0, 64, 0
4, 539080, Control_c, 0, 64, 127
4, 539160, Note_on_c, 0, 76, 66
4, 539280, Note_on_c, 0, 76, 0
4, 539400, Note_on_c, 0, 76, 65
4, 539520, Note_on_c, 0, 76, 0
4, 539520, Control_c, 0, 64, 0
4, 539560, Control_c, 0, 64, 127
4, 539640, Note_on_c, 0, 76, 64
4, 539760, Note_on_c, 0, 76, 0
4, 539880, Note_on_c, 0, 76, 62
4, 540000, Note_on_c, 0, 76, 0
4, 540000, Control_c, 0, 64, 0
4, 540040, Control_c, 0, 64, 127
4, 540120, Note_on_c, 0, 76, 61
4, 540240, Note_on_c, 0, 76, 0
4, 540360, Note_on_c, 0, 76, 60
4, 540480, Note_on_c, 0, 76, 0
4, 540480, Control_c, 0, 64, 0
4, 540520, Control_c, 0, 64, 127
4, 540600, Note_on_c, 0, 76, 58
4, 540720, Note_on_c, 0, 76, 0
4, 540840, Note_on_c, 0, 76, 57
4, 540960, Note_on_c, 0, 76, 0
4, 540960, Control_c, 0, 64, 0
4, 542160, Note_on_c, 0, 61, 54
4, 542160, Note_on_c, 0, 71, 55
4, 542280, Note_on_c, 0, 71, 0
4, 542280, Note_on_c, 0, 61, 0
4, 542280, Note_on_c, 0, 59, 54
4, 542280, Note_on_c, 0, 73, 54
4, 542400, Note_on_c, 0, 73, 0
4, 542400, Note_on_c, 0, 59, 0
4, 542400, Note_on_c, 0, 61, 53
4, 542400, Note_on_c, 0, 71, 54
4, 542520, Note_on_c, 0, 71, 0
4, 542520, Note_on_c, 0, 61, 0
4, 542520, Note_on_c, 0, 59, 53
4, 542520, Note_on_c, 0, 73, 53
4, 542640, Note_on_c, 0, 73, 0
4, 542640, Note_on_c, 0, 59, 0
4, 542640, Note_on_c, 0, 61, 52
4, 542640, Note_on_c, 0, 71, 53
4, 542760, Note_on_c, 0, 71, 0
4, 542760, Note_on_c, 0, 61, 0
4, 542760, Note_on_c, 0, 59, 52
4, 542760, Note_on_c, 0, 73, 52
4, 542880, Note_on_c, 0, 73, 0
4, 542880, Note_on_c, 0, 59, 0
4, 542880, Note_on_c, 0, 61, 54
4, 542880, Note_on_c, 0, 71, 52
4, 543000, Note_on_c, 0, 71, 0
4, 543000, Note_on_c, 0, 61, 0
4, 543000, Note_on_c, 0, 59, 54
4, 543000, Note_on_c, 0, 73, 52
4, 543120, Note_on_c, 0, 73, 0
4, 543120, Note_on_c, 0, 59, 0
4, 543120, Note_on_c, 0, 61, 55
4, 543120, Note_on_c, 0, 71, 53
4, 543240, Note_on_c, 0, 71, 0
4, 543240, Note_on_c, 0, 61, 0
4, 543240, Note_on_c, 0, 59, 56
4, 543240, Note_on_c, 0, 73, 53
4, 543360, Note_on_c, 0, 73, 0
4, 543360, Note_on_c, 0, 59, 0
4, 543360, Note_on_c, 0, 61, 57
4, 543360, Note_on_c, 0, 71, 54
4, 543480, Note_on_c, 0, 71, 0
4, 543480, Note_on_c, 0, 61, 0
4, 543480, Note_on_c, 0, 59, 57
4, 543480, Note_on_c, 0, 73, 54
4, 543600, Note_on_c, 0, 73, 0
4, 543600, Note_on_c, 0, 59, 0
4, 543600, Note_on_c, 0, 61, 58
4, 543600, Note_on_c, 0, 71, 55
4, 543720, Note_on_c, 0, 71, 0
4, 543720, Note_on_c, 0, 61, 0
4, 543720, Note_on_c, 0, 59, 59
4, 543720, Note_on_c, 0, 73, 56
4, 543840, Note_on_c, 0, 73, 0
4, 543840, Note_on_c, 0, 59, 0
4, 543840, Note_on_c, 0, 61, 59
4, 543840, Note_on_c, 0, 71, 56
4, 543960, Note_on_c, 0, 71, 0
4, 543960, Note_on_c, 0, 61, 0
4, 543960, Note_on_c, 0, 59, 60
4, 543960, Note_on_c, 0, 73, 57
4, 544080, Note_on_c, 0, 73, 0
4, 544080, Note_on_c, 0, 59, 0
4, 544080, Note_on_c, 0, 61, 61
4, 544080, Note_on_c, 0, 71, 57
4, 544200, Note_on_c, 0, 71, 0
4, 544200, Note_on_c, 0, 61, 0
4, 544200, Note_on_c, 0, 59, 60
4, 544200, Note_on_c, 0, 73, 56
4, 544320, Note_on_c, 0, 73, 0
4, 544320, Note_on_c, 0, 59, 0
4, 544320, Note_on_c, 0, 61, 58
4, 544320, Note_on_c, 0, 71, 55
4, 544440, Note_on_c, 0, 71, 0
4, 544440, Note_on_c, 0, 61, 0
4, 544440, Note_on_c, 0, 59, 57
4, 544440, Note_on_c, 0, 73, 54
4, 544560, Note_on_c, 0, 73, 0
4, 544560, Note_on_c, 0, 59, 0
4, 544560, Note_on_c, 0, 61, 56
4, 544560, Note_on_c, 0, 71, 52
4, 544680, Note_on_c, 0, 71, 0
4, 544680, Note_on_c, 0, 61, 0
4, 544680, Note_on_c, 0, 59, 54
4, 544680, Note_on_c, 0, 73, 51
4, 544800, Note_on_c, 0, 73, 0
4, 544800, Note_on_c, 0, 59, 0
4, 544800, Note_on_c, 0, 61, 54
4, 544800, Note_on_c, 0, 71, 52
4, 544920, Note_on_c, 0, 71, 0
4, 544920, Note_on_c, 0, 61, 0
4, 544920, Note_on_c, 0, 59, 55
4, 544920, Note_on_c, 0, 73, 53
4, 545040, Note_on_c, 0, 73, 0
4, 545040, Note_on_c, 0, 59, 0
4, 545040, Note_on_c, 0, 61, 55
4, 545040, Note_on_c, 0, 71, 54
4, 545160, Note_on_c, 0, 71, 0
4, 545160, Note_on_c, 0, 61, 0
4, 545160, Note_on_c, 0, 59, 56
4, 545160, Note_on_c, 0, 73, 55
4, 545280, Note_on_c, 0, 73, 0
4, 545280, Note_on_c, 0, 59, 0
4, 545280, Note_on_c, 0, 61, 57
4, 545280, Note_on_c, 0, 71, 55
4, 545400, Note_on_c, 0, 71, 0
4, 545400, Note_on_c, 0, 61, 0
4, 545400, Note_on_c, 0, 59, 58
4, 545400, Note_on_c, 0, 73, 56
4, 545520, Note_on_c, 0, 73, 0
4, 545520, Note_on_c, 0, 59, 0
4, 545520, Note_on_c, 0, 61, 58
4, 545520, Note_on_c, 0, 71, 57
4, 545640, Note_on_c, 0, 71, 0
4, 545640, Note_on_c, 0, 61, 0
4, 545640, Note_on_c, 0, 59, 59
4, 545640, Note_on_c, 0, 73, 58
4, 545760, Note_on_c, 0, 73, 0
4, 545760, Note_on_c, 0, 59, 0
4, 545760, Control_c, 0, 64, 0
4, 545800, Control_c, 0, 64, 127
4, 545880, Note_on_c, 0, 59, 60
4, 545880, Note_on_c, 0, 71, 60
4, 546000, Note_on_c, 0, 71, 0
4, 546000, Note_on_c, 0, 59, 0
4, 546120, Note_on_c, 0, 59, 61
4, 546120, Note_on_c, 0, 71, 61
4, 546240, Note_on_c, 0, 71, 0
4, 546240, Note_on_c, 0, 59, 0
4, 546240, Control_c, 0, 64, 0
4, 546280, Control_c, 0, 64, 127
4, 546360, Note_on_c, 0, 59, 60
4, 546360, Note_on_c, 0, 71, 60
4, 546480, Note_on_c, 0, 71, 0
4, 546480, Note_on_c, 0, 59, 0
4, 546600, Note_on_c, 0, 59, 59
4, 546600, Note_on_c, 0, 71, 59
4, 546720, Note_on_c, 0, 71, 0
4, 546720, Note_on_c, 0, 59, 0
4, 546720, Control_c, 0, 64, 0
4, 546760, Control_c, 0, 64, 127
4, 546840, Note_on_c, 0, 59, 58
4, 546840, Note_on_c, 0, 71, 58
4, 546960, Note_on_c, 0, 71, 0
4, 546960, Note_on_c, 0, 59, 0
4, 547080, Note_on_c, 0, 59, 57
4, 547080, Note_on_c, 0, 71, 57
4, 547200, Note_on_c, 0, 71, 0
4, 547200, Note_on_c, 0, 59, 0
4, 547200, Control_c, 0, 64, 0
4, 547240, Control_c, 0, 64, 127
4, 547320, Note_on_c, 0, 59, 56
4, 547320, Note_on_c, 0, 71, 56
4, 547440, Note_on_c, 0, 71, 0
4, 547440, Note_on_c, 0, 59, 0
4, 547560, Note_on_c, 0, 59, 55
4, 547560, Note_on_c, 0, 71, 56
4, 547680, Note_on_c, 0, 71, 0
4, 547680, Note_on_c, 0, 59, 0
4, 547680, Control_c, 0, 64, 0
4, 547720, Control_c, 0, 64, 127
4, 547800, Note_on_c, 0, 59, 54
4, 547800, Note_on_c, 0, 71, 55
4, 547920, Note_on_c, 0, 71, 0
4, 547920, Note_on_c, 0, 59, 0
4, 548040, Note_on_c, 0, 59, 53
4, 548040, Note_on_c, 0, 71, 54
4, 548160, Note_on_c, 0, 71, 0
4, 548160, Note_on_c, 0, 59, 0
4, 548160, Control_c, 0, 64, 0
4, 548200, Control_c, 0, 64, 127
4, 548280, Note_on_c, 0, 59, 52
4, 548280, Note_on_c, 0, 71, 53
4, 548400, Note_on_c, 0, 71, 0
4, 548400, Note_on_c, 0, 59, 0
4, 548520, Note_on_c, 0, 59, 51
4, 548520, Note_on_c, 0, 71, 52
4, 548640, Note_on_c, 0, 71, 0
4, 548640, Note_on_c, 0, 59, 0
4, 548640, Control_c, 0, 64, 0
4, 548680, Control_c, 0, 64, 127
4, 548760, Note_on_c, 0, 59, 50
4, 548760, Note_on_c, 0, 71, 51
4, 548880, Note_on_c, 0, 71, 0
4, 548880, Note_on_c, 0, 59, 0
4, 549000, Note_on_c, 0, 59, 49
4, 549000, Note_on_c, 0, 65, 50
4, 549120, Note_on_c, 0, 65, 0
4, 549120, Note_on_c, 0, 59, 0
4, 549120, Control_c, 0, 64, 0
4, 549160, Control_c, 0, 64, 127
4, 549240, Note_on_c, 0, 59, 48
4, 549240, Note_on_c, 0, 65, 49
4, 549360, Note_on_c, 0, 65, 0
4, 549360, Note_on_c, 0, 59, 0
4, 549480, Note_on_c, 0, 59, 47
4, 549480, Note_on_c, 0, 65, 48
4, 549600, Note_on_c, 0, 65, 0
4, 549600, Note_on_c, 0, 59, 0
4, 549600, Control_c, 0, 64, 0
4, 549600, Note_on_c, 0, 59, 46
4, 549600, Note_on_c, 0, 65, 48
4, 549720, Note_on_c, 0, 65, 0
4, 549840, Note_on_c, 0, 59, 0
4, 553440, Control_c, 0, 64, 0
4, 553500, Control_c, 0, 64, 127
4, 553600, Note_on_c, 0, 59, 54
4, 553760, Note_on_c, 0, 59, 0
4, 553760, Note_on_c, 0, 56, 54
4, 553920, Note_on_c, 0, 56, 0
4, 553920, Control_c, 0, 64, 0
4, 553980, Control_c, 0, 64, 127
4, 554080, Note_on_c, 0, 64, 55
4, 554240, Note_on_c, 0, 64, 0
4, 554240, Note_on_c, 0, 59, 56
4, 554400, Note_on_c, 0, 59, 0
4, 554400, Control_c, 0, 64, 0
4, 554460, Control_c, 0, 64, 127
4, 554560, Note_on_c, 0, 63, 56
4, 554720, Note_on_c, 0, 63, 0
4, 554720, Note_on_c, 0, 59, 57
4, 554880, Note_on_c, 0, 59, 0
4, 554880, Control_c, 0, 64, 0
4, 554940, Control_c, 0, 64, 127
4, 555040, Note_on_c, 0, 64, 58
4, 555200, Note_on_c, 0, 64, 0
4, 555200, Note_on_c, 0, 59, 58
4, 555360, Note_on_c, 0, 59, 0
4, 555360, Control_c, 0, 64, 0
4, 555420, Control_c, 0, 64, 127
4, 555520, Note_on_c, 0, 66, 59
4, 555680, Note_on_c, 0, 66, 0
4, 555680, Note_on_c, 0, 61, 59
4, 555840, Note_on_c, 0, 61, 0
4, 555840, Control_c, 0, 64, 0
4, 555900, Control_c, 0, 64, 127
4, 556000, Note_on_c, 0, 67, 60
4, 556160, Note_on_c, 0, 67, 0
4, 556160, Note_on_c, 0, 61, 61
4, 556320, Note_on_c, 0, 61, 0
4, 556320, Control_c, 0, 64, 0
4, 556380, Control_c, 0, 64, 127
4, 556480, Note_on_c, 0, 68, 61
4, 556640, Note_on_c, 0, 68, 0
4, 556640, Note_on_c, 0, 64, 62
4, 556800, Note_on_c, 0, 64, 0
4, 556800, Control_c, 0, 64, 0
4, 556860, Control_c, 0, 64, 127
4, 556960, Note_on_c, 0, 66, 63
4, 557120, Note_on_c, 0, 66, 0
4, 557120, Note_on_c, 0, 63, 63
4, 557280, Note_on_c, 0, 63, 0
4, 557280, Control_c, 0, 64, 0
4, 557340, Control_c, 0, 64, 127
4, 557400, Note_on_c, 0, 64, 64
4, 557520, Note_on_c, 0, 64, 0
4, 557520, Note_on_c, 0, 59, 64
4, 557640, Note_on_c, 0, 59, 0
4, 557760, Control_c, 0, 64, 0
4, 557820, Control_c, 0, 64, 127
4, 557880, Note_on_c, 0, 59, 65
4, 558000, Note_on_c, 0, 59, 0
4, 558000, Note_on_c, 0, 56, 65
4, 558120, Note_on_c, 0, 56, 0
4, 558240, Control_c, 0, 64, 0
4, 558300, Control_c, 0, 64, 127
4, 558360, Note_on_c, 0, 62, 66
4, 558480, Note_on_c, 0, 62, 0
4, 558480, Note_on_c, 0, 57, 67
4, 558600, Note_on_c, 0, 57, 0
4, 558720, Control_c, 0, 64, 0
4, 558780, Control_c, 0, 64, 127
4, 558840, Note_on_c, 0, 64, 68
4, 558960, Note_on_c, 0, 64, 0
4, 558960, Note_on_c, 0, 59, 68
4, 559080, Note_on_c, 0, 59, 0
4, 559200, Control_c, 0, 64, 0
4, 559260, Control_c, 0, 64, 127
4, 559320, Note_on_c, 0, 66, 69
4, 559440, Note_on_c, 0, 66, 0
4, 559440, Note_on_c, 0, 62, 69
4, 559560, Note_on_c, 0, 62, 0
4, 559680, Control_c, 0, 64, 0
4, 559740, Control_c, 0, 64, 127
4, 559800, Note_on_c, 0, 64, 70
4, 559920, Note_on_c, 0, 64, 0
4, 559920, Note_on_c, 0, 62, 70
4, 560040, Note_on_c, 0, 62, 0
4, 560160, Control_c, 0, 64, 0
4, 560200, Control_c, 0, 64, 127
4, 560280, Note_on_c, 0, 62, 80
4, 560400, Note_on_c, 0, 62, 0
4, 560400, Note_on_c, 0, 59, 81
4, 560520, Note_on_c, 0, 59, 0
4, 560640, Control_c, 0, 64, 0
4, 560680, Control_c, 0, 64, 127
4, 560760, Note_on_c, 0, 62, 82
4, 560880, Note_on_c, 0, 62, 0
4, 560880, Note_on_c, 0, 59, 82
4, 561000, Note_on_c, 0, 59, 0
4, 561000, Note_on_c, 0, 56, 83
4, 561120, Note_on_c, 0, 56, 0
4, 561120, Control_c, 0, 64, 0
4, 561160, Control_c, 0, 64, 127
4, 561240, Note_on_c, 0, 62, 84
4, 561360, Note_on_c, 0, 62, 0
4, 561360, Note_on_c, 0, 59, 84
4, 561480, Note_on_c, 0, 59, 0
4, 561480, Note_on_c, 0, 56, 85
4, 561600, Note_on_c, 0, 56, 0
4, 561600, Control_c, 0, 64, 0
4, 561640, Control_c, 0, 64, 127
4, 561720, Note_on_c, 0, 62, 85
4, 561840, Note_on_c, 0, 62, 0
4, 561840, Note_on_c, 0, 59, 86
4, 561960, Note_on_c, 0, 59, 0
4, 561960, Note_on_c, 0, 56, 86
4, 562080, Note_on_c, 0, 56, 0
4, 562080, Control_c, 0, 64, 0
4, 562120, Control_c, 0, 64, 127
4, 562200, Note_on_c, 0, 59, 87
4, 562320, Note_on_c, 0, 59, 0
4, 562320, Note_on_c, 0, 56, 88
4, 562440, Note_on_c, 0, 56, 0
4, 562440, Note_on_c, 0, 53, 88
4, 562560, Note_on_c, 0, 53, 0
4, 562560, Control_c, 0, 64, 0
4, 562600, Control_c, 0, 64, 127
4, 562680, Note_on_c, 0, 59, 89
4, 562800, Note_on_c, 0, 59, 0
4, 562800, Note_on_c, 0, 56, 89
4, 562920, Note_on_c, 0, 56, 0
4, 562920, Note_on_c, 0, 53, 91
4, 563040, Note_on_c, 0, 53, 0
4, 563040, Control_c, 0, 64, 0
4, 563080, Control_c, 0, 64, 127
4, 563160, Note_on_c, 0, 56, 86
4, 563280, Note_on_c, 0, 56, 0
4, 563280, Note_on_c, 0, 53, 83
4, 563400, Note_on_c, 0, 53, 0
4, 563400, Note_on_c, 0, 50, 81
4, 563520, Note_on_c, 0, 50, 0
4, 563520, Control_c, 0, 64, 0
4, 563560, Control_c, 0, 64, 127
4, 563640, Note_on_c, 0, 56, 75
4, 563760, Note_on_c, 0, 56, 0
4, 563760, Note_on_c, 0, 53, 72
4, 563880, Note_on_c, 0, 53, 0
4, 563880, Note_on_c, 0, 50, 69
4, 564000, Note_on_c, 0, 50, 0
4, 564000, Control_c, 0, 64, 0
4, 564040, Control_c, 0, 64, 127
4, 564120, Note_on_c, 0, 55, 63
4, 564240, Note_on_c, 0, 55, 0
4, 564240, Note_on_c, 0, 53, 62
4, 564360, Note_on_c, 0, 53, 0
4, 564360, Note_on_c, 0, 50, 61
4, 564480, Note_on_c, 0, 50, 0
4, 564480, Control_c, 0, 64, 0
4, 564520, Control_c, 0, 64, 127
4, 564600, Note_on_c, 0, 55, 60
4, 564720, Note_on_c, 0, 55, 0
4, 564840, Note_on_c, 0, 55, 58
4, 564960, Note_on_c, 0, 55, 0
4, 564960, Control_c, 0, 64, 0
4, 564960, Note_on_c, 0, 55, 57
4, 565440, Note_on_c, 0, 55, 0
4, 582240, Note_on_c, 0, 52, 56
4, 582720, Note_on_c, 0, 52, 0
4, 583200, Note_on_c, 0, 47, 59
4, 583440, Note_on_c, 0, 47, 0
4, 584160, Note_on_c, 0, 47, 63
4, 584400, Note_on_c, 0, 47, 0
4, 584640, Note_on_c, 0, 47, 60
4, 584880, Note_on_c, 0, 47, 0
4, 584880, Note_on_c, 0, 45, 58
4, 585120, Note_on_c, 0, 45, 0
4, 585120, Note_on_c, 0, 44, 57
4, 585360, Note_on_c, 0, 44, 0
4, 586200, Note_on_c, 0, 64, 48
4, 586320, Note_on_c, 0, 64, 0
4, 586440, Note_on_c, 0, 64, 49
4, 586560, Note_on_c, 0, 64, 0
4, 586680, Note_on_c, 0, 61, 50
4, 586800, Note_on_c, 0, 61, 0
4, 586920, Note_on_c, 0, 57, 51
4, 587040, Note_on_c, 0, 57, 0
4, 587160, Note_on_c, 0, 59, 52
4, 587280, Note_on_c, 0, 59, 0
4, 587400, Note_on_c, 0, 59, 53
4, 587520, Note_on_c, 0, 59, 0
4, 587640, Note_on_c, 0, 69, 54
4, 587760, Note_on_c, 0, 69, 0
4, 587880, Note_on_c, 0, 68, 55
4, 588000, Note_on_c, 0, 68, 0
4, 588120, Note_on_c, 0, 66, 61
4, 588240, Note_on_c, 0, 66, 0
4, 588360, Note_on_c, 0, 64, 66
4, 588480, Note_on_c, 0, 64, 0
4, 588600, Note_on_c, 0, 63, 70
4, 588720, Note_on_c, 0, 63, 0
4, 588840, Note_on_c, 0, 59, 64
4, 588960, Note_on_c, 0, 59, 0
4, 588960, Note_on_c, 0, 64, 54
4, 589440, Note_on_c, 0, 64, 0
4, 589680, Note_on_c, 0, 51, 62
4, 589920, Note_on_c, 0, 51, 0
4, 589920, Note_on_c, 0, 49, 63
4, 590400, Note_on_c, 0, 49, 0
4, 590400, Note_on_c, 0, 58, 66
4, 590880, Note_on_c, 0, 58, 0
4, 590880, Note_on_c, 0, 59, 64
4, 591360, Note_on_c, 0, 59, 0
4, 591360, Note_on_c, 0, 47, 64
4, 591600, Note_on_c, 0, 47, 0
4, 591600, Note_on_c, 0, 49, 65
4, 591840, Note_on_c, 0, 49, 0
4, 591840, Note_on_c, 0, 50, 67
4, 592320, Note_on_c, 0, 50, 0
4, 592320, Note_on_c, 0, 56, 69
4, 592800, Note_on_c, 0, 56, 0
4, 592800, Note_on_c, 0, 57, 66
4, 593520, Note_on_c, 0, 57, 0
4, 593520, Note_on_c, 0, 57, 68
4, 593760, Note_on_c, 0, 57, 0
4, 593760, Note_on_c, 0, 56, 68
4, 594000, Note_on_c, 0, 56, 0
4, 594000, Note_on_c, 0, 57, 69
4, 594156, Note_on_c, 0, 57, 0
4, 594240, Note_on_c, 0, 49, 70
4, 594396, Note_on_c, 0, 49, 0
4, 594480, Note_on_c, 0, 47, 71
4, 594636, Note_on_c, 0, 47, 0
4, 594720, Note_on_c, 0, 47, 72
4, 594960, Note_on_c, 0, 47, 0
4, 594960, Note_on_c, 0, 46, 74
4, 595440, Note_on_c, 0, 46, 0
4, 595440, Note_on_c, 0, 46, 76
4, 595680, Note_on_c, 0, 46, 0
4, 595680, Note_on_c, 0, 47, 77
4, 596640, Note_on_c, 0, 47, 0
4, 596640, Control_c, 0, 64, 0
4, 596680, Control_c, 0, 64, 127
4, 596760, Note_on_c, 0, 59, 68
4, 596880, Note_on_c, 0, 59, 0
4, 596880, Note_on_c, 0, 56, 67
4, 597000, Note_on_c, 0, 56, 0
4, 597120, Control_c, 0, 64, 0
4, 597160, Control_c, 0, 64, 127
4, 597240, Note_on_c, 0, 59, 64
4, 597360, Note_on_c, 0, 59, 0
4, 597360, Note_on_c, 0, 54, 64
4, 597480, Note_on_c, 0, 54, 0
4, 597600, Control_c, 0, 64, 0
4, 597640, Control_c, 0, 64, 127
4, 597720, Note_on_c, 0, 58, 67
4, 597840, Note_on_c, 0, 58, 0
4, 597840, Note_on_c, 0, 54, 68
4, 597960, Note_on_c, 0, 54, 0
4, 598080, Control_c, 0, 64, 0
4, 598120, Control_c, 0, 64, 127
4, 598200, Note_on_c, 0, 58, 71
4, 598320, Note_on_c, 0, 58, 0
4, 598320, Note_on_c, 0, 54, 73
4, 598440, Note_on_c, 0, 54, 0
4, 598440, Note_on_c, 0, 49, 71
4, 598560, Note_on_c, 0, 49, 0
4, 598560, Control_c, 0, 64, 0
4, 598600, Control_c, 0, 64, 127
4, 598680, Note_on_c, 0, 59, 68
4, 598800, Note_on_c, 0, 59, 0
4, 598800, Note_on_c, 0, 54, 66
4, 598920, Note_on_c, 0, 54, 0
4, 598920, Note_on_c, 0, 51, 64
4, 599040, Note_on_c, 0, 51, 0
4, 599040, Control_c, 0, 64, 0
4, 599080, Control_c, 0, 64, 127
4, 599160, Note_on_c, 0, 59, 65
4, 599267, Note_on_c, 0, 59, 0
4, 599400, Note_on_c, 0, 57, 67
4, 599507, Note_on_c, 0, 57, 0
4, 599520, Control_c, 0, 64, 0
4, 599560, Control_c, 0, 64, 127
4, 599640, Note_on_c, 0, 56, 69
4, 599760, Note_on_c, 0, 56, 0
4, 599760, Note_on_c, 0, 52, 71
4, 599880, Note_on_c, 0, 52, 0
4, 600000, Control_c, 0, 64, 0
4, 600040, Control_c, 0, 64, 127
4, 600120, Note_on_c, 0, 56, 74
4, 600240, Note_on_c, 0, 56, 0
4, 600240, Note_on_c, 0, 52, 73
4, 600360, Note_on_c, 0, 52, 0
4, 600360, Note_on_c, 0, 47, 72
4, 600480, Note_on_c, 0, 47, 0
4, 600480, Control_c, 0, 64, 0
4, 600520, Control_c, 0, 64, 127
4, 600600, Note_on_c, 0, 57, 70
4, 600720, Note_on_c, 0, 57, 0
4, 600720, Note_on_c, 0, 52, 69
4, 600840, Note_on_c, 0, 52, 0
4, 600840, Note_on_c, 0, 49, 67
4, 600960, Note_on_c, 0, 49, 0
4, 600960, Control_c, 0, 64, 0
4, 601000, Control_c, 0, 64, 127
4, 601080, Note_on_c, 0, 52, 65
4, 601200, Note_on_c, 0, 52, 0
4, 601320, Note_on_c, 0, 52, 66
4, 601440, Note_on_c, 0, 52, 0
4, 601440, Control_c, 0, 64, 0
4, 601480, Control_c, 0, 64, 127
4, 601560, Note_on_c, 0, 52, 66
4, 601680, Note_on_c, 0, 52, 0
4, 601800, Note_on_c, 0, 52, 67
4, 601920, Note_on_c, 0, 52, 0
4, 601920, Control_c, 0, 64, 0
4, 601920, Note_on_c, 0, 49, 68
4, 601960, Control_c, 0, 64, 127
4, 602040, Note_on_c, 0, 52, 68
4, 602160, Note_on_c, 0, 52, 0
4, 602160, Note_on_c, 0, 49, 0
4, 602160, Note_on_c, 0, 52, 69
4, 602280, Note_on_c, 0, 56, 70
4, 602400, Note_on_c, 0, 56, 0
4, 602400, Note_on_c, 0, 52, 0
4, 602400, Control_c, 0, 64, 0
4, 602400, Note_on_c, 0, 52, 70
4, 602440, Control_c, 0, 64, 127
4, 602520, Note_on_c, 0, 58, 71
4, 602640, Note_on_c, 0, 58, 0
4, 602640, Note_on_c, 0, 52, 0
4, 602640, Note_on_c, 0, 52, 71
4, 602760, Note_on_c, 0, 58, 72
4, 602880, Note_on_c, 0, 58, 0
4, 602880, Note_on_c, 0, 52, 0
4, 602880, Control_c, 0, 64, 0
4, 602880, Note_on_c, 0, 52, 74
4, 602920, Control_c, 0, 64, 127
4, 603000, Note_on_c, 0, 57, 73
4, 603120, Note_on_c, 0, 57, 0
4, 603120, Note_on_c, 0, 52, 0
4, 603120, Note_on_c, 0, 52, 72
4, 603240, Note_on_c, 0, 57, 72
4, 603360, Note_on_c, 0, 57, 0
4, 603360, Note_on_c, 0, 52, 0
4, 603360, Control_c, 0, 64, 0
4, 603480, Note_on_c, 0, 51, 71
4, 603480, Note_on_c, 0, 54, 71
4, 603480, Note_on_c, 0, 57, 71
4, 603600, Note_on_c, 0, 57, 0
4, 603600, Note_on_c, 0, 54, 0
4, 603600, Note_on_c, 0, 51, 0
4, 603720, Note_on_c, 0, 51, 70
4, 603720, Note_on_c, 0, 54, 70
4, 603720, Note_on_c, 0, 57, 70
4, 603840, Note_on_c, 0, 57, 0
4, 603840, Note_on_c, 0, 54, 0
4, 603840, Note_on_c, 0, 51, 0
4, 603960, Note_on_c, 0, 51, 68
4, 603960, Note_on_c, 0, 54, 68
4, 603960, Note_on_c, 0, 57, 68
4, 604080, Note_on_c, 0, 57, 0
4, 604080, Note_on_c, 0, 54, 0
4, 604080, Note_on_c, 0, 51, 0
4, 604200, Note_on_c, 0, 51, 67
4, 604200, Note_on_c, 0, 57, 67
4, 604200, Note_on_c, 0, 54, 67
4, 604320, Note_on_c, 0, 54, 0
4, 604320, Note_on_c, 0, 57, 0
4, 604320, Note_on_c, 0, 51, 0
4, 604440, Note_on_c, 0, 56, 66
4, 604440, Note_on_c, 0, 52, 66
4, 604560, Note_on_c, 0, 52, 0
4, 604560, Note_on_c, 0, 56, 0
4, 604680, Note_on_c, 0, 56, 65
4, 604680, Note_on_c, 0, 52, 65
4, 604800, Note_on_c, 0, 52, 0
4, 604800, Note_on_c, 0, 56, 0
4, 604920, Note_on_c, 0, 56, 64
4, 604920, Note_on_c, 0, 52, 64
4, 605040, Note_on_c, 0, 52, 0
4, 605040, Note_on_c, 0, 56, 0
4, 605160, Note_on_c, 0, 56, 63
4, 605160, Note_on_c, 0, 52, 63
4, 605280, Note_on_c, 0, 52, 0
4, 605280, Note_on_c, 0, 56, 0
4, 605280, Note_on_c, 0, 54, 66
4, 605520, Note_on_c, 0, 59, 66
4, 605760, Note_on_c, 0, 59, 0
4, 605760, Note_on_c, 0, 58, 65
4, 606000, Note_on_c, 0, 58, 0
4, 606000, Note_on_c, 0, 59, 64
4, 606240, Note_on_c, 0, 59, 0
4, 606240, Note_on_c, 0, 54, 0
4, 606240, Note_on_c, 0, 52, 63
4, 606480, Note_on_c, 0, 59, 62
4, 606720, Note_on_c, 0, 59, 0
4, 606720, Note_on_c, 0, 58, 62
4, 606960, Note_on_c, 0, 58, 0
4, 606960, Note_on_c, 0, 59, 61
4, 607200, Note_on_c, 0, 59, 0
4, 607200, Note_on_c, 0, 52, 0
4, 607320, Note_on_c, 0, 57, 56
4, 607320, Note_on_c, 0, 54, 56
4, 607320, Note_on_c, 0, 51, 56
4, 607440, Note_on_c, 0, 51, 0
4, 607440, Note_on_c, 0, 54, 0
4, 607440, Note_on_c, 0, 57, 0
4, 607560, Note_on_c, 0, 57, 58
4, 607560, Note_on_c, 0, 54, 58
4, 607560, Note_on_c, 0, 51, 58
4, 607680, Note_on_c, 0, 51, 0
4, 607680, Note_on_c, 0, 54, 0
4, 607680, Note_on_c, 0, 57, 0
4, 607800, Note_on_c, 0, 57, 60
4, 607800, Note_on_c, 0, 54, 60
4, 607800, Note_on_c, 0, 51, 60
4, 607920, Note_on_c, 0, 51, 0
4, 607920, Note_on_c, 0, 54, 0
4, 607920, Note_on_c, 0, 57, 0
4, 608040, Note_on_c, 0, 54, 62
4, 608040, Note_on_c, 0, 57, 62
4, 608040, Note_on_c, 0, 51, 62
4, 608160, Note_on_c, 0, 51, 0
4, 608160, Note_on_c, 0, 57, 0
4, 608160, Note_on_c, 0, 54, 0
4, 608280, Note_on_c, 0, 53, 64
4, 608280, Note_on_c, 0, 56, 64
4, 608280, Note_on_c, 0, 50, 64
4, 608400, Note_on_c, 0, 50, 0
4, 608400, Note_on_c, 0, 56, 0
4, 608400, Note_on_c, 0, 53, 0
4, 608520, Note_on_c, 0, 53, 66
4, 608520, Note_on_c, 0, 50, 66
4, 608520, Note_on_c, 0, 56, 66
4, 608640, Note_on_c, 0, 56, 0
4, 608640, Note_on_c, 0, 50, 0
4, 608640, Note_on_c, 0, 53, 0
4, 608760, Note_on_c, 0, 53, 69
4, 608760, Note_on_c, 0, 50, 69
4, 608760, Note_on_c, 0, 56, 69
4, 608880, Note_on_c, 0, 56, 0
4, 608880, Note_on_c, 0, 50, 0
4, 608880, Note_on_c, 0, 53, 0
4, 609000, Note_on_c, 0, 50, 71
4, 609000, Note_on_c, 0, 53, 71
4, 609000, Note_on_c, 0, 56, 71
4, 609120, Note_on_c, 0, 56, 0
4, 609120, Note_on_c, 0, 53, 0
4, 609120, Note_on_c, 0, 50, 0
4, 609240, Note_on_c, 0, 54, 68
4, 609240, Note_on_c, 0, 49, 68
4, 609360, Note_on_c, 0, 49, 0
4, 609360, Note_on_c, 0, 54, 0
4, 609480, Note_on_c, 0, 54, 67
4, 609480, Note_on_c, 0, 49, 67
4, 609600, Note_on_c, 0, 49, 0
4, 609600, Note_on_c, 0, 54, 0
4, 609720, Note_on_c, 0, 54, 65
4, 609720, Note_on_c, 0, 49, 65
4, 609840, Note_on_c, 0, 49, 0
4, 609840, Note_on_c, 0, 54, 0
4, 609960, Note_on_c, 0, 54, 64
4, 609960, Note_on_c, 0, 49, 64
4, 610080, Note_on_c, 0, 49, 0
4, 610080, Note_on_c, 0, 54, 0
4, 610200, Note_on_c, 0, 52, 63
4, 610200, Note_on_c, 0, 54, 63
4, 610200, Note_on_c, 0, 49, 63
4, 610320, Note_on_c, 0, 49, 0
4, 610320, Note_on_c, 0, 54, 0
4, 610320, Note_on_c, 0, 52, 0
4, 610440, Note_on_c, 0, 52, 61
4, 610440, Note_on_c, 0, 54, 61
4, 610440, Note_on_c, 0, 49, 61
4, 610560, Note_on_c, 0, 49, 0
4, 610560, Note_on_c, 0, 54, 0
4, 610560, Note_on_c, 0, 52, 0
4, 610680, Note_on_c, 0, 52, 60
4, 610680, Note_on_c, 0, 54, 60
4, 610680, Note_on_c, 0, 49, 60
4, 610800, Note_on_c, 0, 49, 0
4, 610800, Note_on_c, 0, 54, 0
4, 610800, Note_on_c, 0, 52, 0
4, 610920, Note_on_c, 0, 52, 58
4, 610920, Note_on_c, 0, 54, 58
4, 610920, Note_on_c, 0, 49, 58
4, 611040, Note_on_c, 0, 49, 0
4, 611040, Note_on_c, 0, 54, 0
4, 611040, Note_on_c, 0, 52, 0
4, 611160, Note_on_c, 0, 52, 57
4, 611160, Note_on_c, 0, 56, 57
4, 611280, Note_on_c, 0, 56, 0
4, 611280, Note_on_c, 0, 52, 0
4, 611400, Note_on_c, 0, 56, 55
4, 611400, Note_on_c, 0, 52, 55
4, 611520, Note_on_c, 0, 52, 0
4, 611520, Note_on_c, 0, 56, 0
4, 611640, Note_on_c, 0, 56, 54
4, 611640, Note_on_c, 0, 52, 54
4, 611760, Note_on_c, 0, 52, 0
4, 611760, Note_on_c, 0, 56, 0
4, 611880, Note_on_c, 0, 56, 53
4, 611880, Note_on_c, 0, 52, 53
4, 612000, Note_on_c, 0, 52, 0
4, 612000, Note_on_c, 0, 56, 0
4, 612120, Note_on_c, 0, 54, 51
4, 612240, Note_on_c, 0, 54, 0
4, 612360, Note_on_c, 0, 51, 50
4, 612480, Note_on_c, 0, 51, 0
4, 612600, Note_on_c, 0, 59, 48
4, 612720, Note_on_c, 0, 59, 0
4, 612840, Note_on_c, 0, 59, 47
4, 612960, Note_on_c, 0, 59, 0
4, 626400, Control_c, 0, 64, 0
4, 626400, Note_on_c, 0, 52, 55
4, 626440, Control_c, 0, 64, 127
4, 626520, Note_on_c, 0, 59, 61
4, 626640, Note_on_c, 0, 59, 0
4, 626760, Note_on_c, 0, 59, 61
4, 626880, Note_on_c, 0, 59, 0
4, 626880, Note_on_c, 0, 52, 0
4, 626880, Control_c, 0, 64, 0
4, 626920, Control_c, 0, 64, 127
4, 627000, Note_on_c, 0, 59, 60
4, 627120, Note_on_c, 0, 59, 0
4, 627240, Note_on_c, 0, 59, 60
4, 627360, Note_on_c, 0, 59, 0
4, 627360, Control_c, 0, 64, 0
4, 627360, Note_on_c, 0, 47, 54
4, 627400, Control_c, 0, 64, 127
4, 627480, Note_on_c, 0, 59, 60
4, 627600, Note_on_c, 0, 59, 0
4, 627720, Note_on_c, 0, 59, 59
4, 627840, Note_on_c, 0, 59, 0
4, 627840, Note_on_c, 0, 47, 0
4, 627840, Control_c, 0, 64, 0
4, 627880, Control_c, 0, 64, 127
4, 627960, Note_on_c, 0, 59, 59
4, 628080, Note_on_c, 0, 59, 0
4, 628200, Note_on_c, 0, 59, 58
4, 628320, Note_on_c, 0, 59, 0
4, 628320, Control_c, 0, 64, 0
4, 628320, Note_on_c, 0, 49, 53
4, 628360, Control_c, 0, 64, 127
4, 628440, Note_on_c, 0, 59, 58
4, 628560, Note_on_c, 0, 59, 0
4, 628560, Note_on_c, 0, 49, 0
4, 628680, Note_on_c, 0, 59, 58
4, 628800, Note_on_c, 0, 59, 0
4, 628800, Control_c, 0, 64, 0
4, 628800, Note_on_c, 0, 51, 52
4, 628840, Control_c, 0, 64, 127
4, 628920, Note_on_c, 0, 59, 57
4, 629040, Note_on_c, 0, 59, 0
4, 629040, Note_on_c, 0, 51, 0
4, 629040, Note_on_c, 0, 47, 52
4, 629160, Note_on_c, 0, 59, 57
4, 629280, Note_on_c, 0, 47, 0
4, 629280, Control_c, 0, 64, 0
4, 629280, Note_on_c, 0, 52, 52
4, 629320, Control_c, 0, 64, 127
4, 629400, Note_on_c, 0, 59, 0
4, 629400, Note_on_c, 0, 59, 56
4, 629520, Note_on_c, 0, 59, 0
4, 629520, Note_on_c, 0, 64, 56
4, 629640, Note_on_c, 0, 64, 0
4, 629640, Note_on_c, 0, 59, 56
4, 629760, Note_on_c, 0, 59, 0
4, 629760, Note_on_c, 0, 52, 0
4, 629760, Control_c, 0, 64, 0
4, 629760, Note_on_c, 0, 64, 56
4, 629800, Control_c, 0, 64, 127
4, 629880, Note_on_c, 0, 64, 0
4, 629880, Note_on_c, 0, 59, 56
4, 630000, Note_on_c, 0, 59, 0
4, 630120, Note_on_c, 0, 59, 55
4, 630240, Note_on_c, 0, 59, 0
4, 630240, Control_c, 0, 64, 0
4, 630280, Control_c, 0, 64, 127
4, 630360, Note_on_c, 0, 59, 55
4, 630480, Note_on_c, 0, 59, 0
4, 630600, Note_on_c, 0, 59, 55
4, 630720, Note_on_c, 0, 59, 0
4, 630720, Control_c, 0, 64, 0
4, 630760, Control_c, 0, 64, 127
4, 630840, Note_on_c, 0, 59, 54
4, 630960, Note_on_c, 0, 59, 0
4, 631080, Note_on_c, 0, 59, 54
4, 631080, Note_on_c, 0, 57, 55
4, 631200, Note_on_c, 0, 59, 0
4, 631200, Control_c, 0, 64, 0
4, 631200, Note_on_c, 0, 59, 54
4, 631200, Note_on_c, 0, 56, 55
4, 631207, Note_on_c, 0, 57, 0
4, 631320, Note_on_c, 0, 47, 53
4, 631440, Note_on_c, 0, 47, 0
4, 631440, Note_on_c, 0, 56, 0
4, 631440, Note_on_c, 0, 59, 0
4, 631440, Note_on_c, 0, 56, 54
4, 631560, Note_on_c, 0, 47, 53
4, 631680, Note_on_c, 0, 47, 0
4, 631680, Note_on_c, 0, 56, 0
4, 631680, Control_c, 0, 64, 0
4, 631680, Note_on_c, 0, 56, 54
4, 631800, Note_on_c, 0, 47, 53
4, 631920, Note_on_c, 0, 47, 0
4, 631920, Note_on_c, 0, 56, 0
4, 631920, Note_on_c, 0, 56, 54
4, 632040, Note_on_c, 0, 47, 52
4, 632160, Note_on_c, 0, 47, 0
4, 632160, Note_on_c, 0, 56, 0
4, 632160, Control_c, 0, 64, 0
4, 632160, Note_on_c, 0, 57, 54
4, 632280, Note_on_c, 0, 57, 0
4, 632280, Note_on_c, 0, 47, 54
4, 632400, Note_on_c, 0, 47, 0
4, 632400, Note_on_c, 0, 61, 53
4, 632520, Note_on_c, 0, 47, 53
4, 632640, Note_on_c, 0, 47, 0
4, 632640, Note_on_c, 0, 61, 0
4, 632640, Note_on_c, 0, 59, 53
4, 632760, Note_on_c, 0, 47, 53
4, 632880, Note_on_c, 0, 47, 0
4, 632880, Note_on_c, 0, 59, 0
4, 632880, Note_on_c, 0, 57, 53
4, 633000, Note_on_c, 0, 47, 53
4, 633120, Note_on_c, 0, 47, 0
4, 633120, Note_on_c, 0, 57, 0
4, 633120, Note_on_c, 0, 56, 53
4, 633360, Note_on_c, 0, 56, 0
4, 635520, Note_on_c, 0, 66, 52
4, 635520, Note_on_c, 0, 64, 52
4, 636000, Note_on_c, 0, 64, 0
4, 636000, Note_on_c, 0, 66, 0
4, 636000, Note_on_c, 0, 64, 56
4, 636000, Note_on_c, 0, 68, 56
4, 636240, Note_on_c, 0, 68, 0
4, 636240, Note_on_c, 0, 64, 0
4, 636480, Note_on_c, 0, 66, 60
4, 636720, Note_on_c, 0, 66, 0
4, 636960, Note_on_c, 0, 64, 66
4, 637200, Note_on_c, 0, 64, 0
4, 637440, Note_on_c, 0, 61, 70
4, 637680, Note_on_c, 0, 61, 0
4, 637920, Note_on_c, 0, 57, 74
4, 638160, Note_on_c, 0, 57, 0
4, 638400, Note_on_c, 0, 54, 78
4, 638640, Note_on_c, 0, 54, 0
4, 638880, Note_on_c, 0, 63, 83
4, 639120, Note_on_c, 0, 63, 0
4, 639360, Note_on_c, 0, 64, 72
4, 639600, Note_on_c, 0, 64, 0
4, 639600, Note_on_c, 0, 64, 68
4, 639840, Note_on_c, 0, 64, 0
4, 639840, End_track
5, 0, Start_track
5, 0, Title_t, "Piano"
5, 0, Control_c, 0, 0, 0
5, 0, Control_c, 0, 7, 115
5, 0, Control_c, 0, 10, 45
5, 0, Control_c, 0, 91, 91
5, 0, Control_c, 0, 93, 28
5, 0, Control_c, 0, 64, 0
5, 0, Control_c, 0, 1, 0
5, 0, Pitch_bend_c, 0, 8192
5, 1, Control_c, 0, 32, 0
5, 1, Program_c, 0, 0
5, 960, Control_c, 0, 64, 0
5, 960, Note_on_c, 0, 52, 85
5, 960, Note_on_c, 0, 40, 85
5, 1200, Note_on_c, 0, 40, 0
5, 1200, Note_on_c, 0, 52, 0
5, 1440, Note_on_c, 0, 52, 95
5, 1440, Note_on_c, 0, 40, 95
5, 2400, Note_on_c, 0, 40, 0
5, 2400, Note_on_c, 0, 52, 0
5, 2400, Note_on_c, 0, 52, 87
5, 2400, Note_on_c, 0, 40, 87
5, 2640, Note_on_c, 0, 40, 0
5, 2640, Note_on_c, 0, 52, 0
5, 2880, Note_on_c, 0, 50, 82
5, 2880, Note_on_c, 0, 38, 82
5, 3240, Note_on_c, 0, 38, 0
5, 3240, Note_on_c, 0, 50, 0
5, 3840, Note_on_c, 0, 62, 59
5, 4320, Note_on_c, 0, 62, 0
5, 4320, Note_on_c, 0, 60, 64
5, 5040, Note_on_c, 0, 60, 0
5, 5040, Note_on_c, 0, 59, 58
5, 5280, Note_on_c, 0, 59, 0
5, 5280, Note_on_c, 0, 57, 57
5, 5640, Note_on_c, 0, 57, 0
5, 5760, Note_on_c, 0, 55, 55
5, 6120, Note_on_c, 0, 55, 0
5, 6720, Note_on_c, 0, 55, 81
5, 6720, Note_on_c, 0, 43, 81
5, 6960, Note_on_c, 0, 43, 0
5, 6960, Note_on_c, 0, 55, 0
5, 7200, Note_on_c, 0, 43, 92
5, 7200, Note_on_c, 0, 55, 92
5, 8160, Note_on_c, 0, 55, 0
5, 8160, Note_on_c, 0, 43, 0
5, 8160, Note_on_c, 0, 43, 82
5, 8160, Note_on_c, 0, 31, 82
5, 8400, Note_on_c, 0, 31, 0
5, 8400, Note_on_c, 0, 43, 0
5, 8640, Note_on_c, 0, 42, 78
5, 8640, Note_on_c, 0, 30, 78
5, 9000, Note_on_c, 0, 30, 0
5, 9000, Note_on_c, 0, 42, 0
5, 9600, Note_on_c, 0, 66, 55
5, 10080, Note_on_c, 0, 66, 0
5, 10080, Note_on_c, 0, 64, 60
5, 10800, Note_on_c, 0, 64, 0
5, 10800, Note_on_c, 0, 62, 54
5, 11040, Note_on_c, 0, 62, 0
5, 11040, Note_on_c, 0, 61, 53
5, 11400, Note_on_c, 0, 61, 0
5, 11520, Note_on_c, 0, 59, 50
5, 11880, Note_on_c, 0, 59, 0
5, 12960, Note_on_c, 0, 59, 50
5, 14400, Note_on_c, 0, 59, 0
5, 14400, Note_on_c, 0, 57, 55
5, 15360, Note_on_c, 0, 57, 0
5, 15360, Note_on_c, 0, 63, 58
5, 15840, Note_on_c, 0, 63, 0
5, 15840, Note_on_c, 0, 62, 60
5, 16800, Note_on_c, 0, 62, 0
5, 16800, Note_on_c, 0, 66, 63
5, 17280, Note_on_c, 0, 66, 0
5, 17280, Note_on_c, 0, 67, 64
5, 18240, Note_on_c, 0, 67, 0
5, 18240, Note_on_c, 0, 55, 63
5, 18720, Note_on_c, 0, 55, 0
5, 18720, Note_on_c, 0, 52, 61
5, 19680, Note_on_c, 0, 52, 0
5, 19680, Note_on_c, 0, 64, 57
5, 20160, Note_on_c, 0, 64, 0
5, 20160, Note_on_c, 0, 60, 55
5, 21120, Note_on_c, 0, 60, 0
5, 21120, Note_on_c, 0, 48, 51
5, 21600, Note_on_c, 0, 36, 49
5, 23040, Note_on_c, 0, 36, 0
5, 23040, Note_on_c, 0, 48, 0
5, 23040, Note_on_c, 0, 47, 43
5, 23040, Note_on_c, 0, 36, 43
5, 24960, Note_on_c, 0, 36, 0
5, 24960, Note_on_c, 0, 47, 0
5, 25920, Note_on_c, 0, 43, 57
5, 27360, Note_on_c, 0, 43, 0
5, 27360, Note_on_c, 0, 45, 58
5, 28296, Note_on_c, 0, 45, 0
5, 28320, Note_on_c, 0, 46, 62
5, 28800, Note_on_c, 0, 46, 0
5, 28800, Note_on_c, 0, 47, 64
5, 30240, Note_on_c, 0, 47, 0
5, 30240, Note_on_c, 0, 48, 75
5, 31200, Note_on_c, 0, 48, 0
5, 31200, Note_on_c, 0, 47, 65
5, 31440, Note_on_c, 0, 47, 0
5, 31440, Note_on_c, 0, 45, 64
5, 31680, Note_on_c, 0, 45, 0
5, 31680, Note_on_c, 0, 43, 62
5, 32640, Note_on_c, 0, 43, 0
5, 32640, Note_on_c, 0, 44, 69
5, 33120, Note_on_c, 0, 44, 0
5, 33120, Note_on_c, 0, 45, 76
5, 34080, Note_on_c, 0, 45, 0
5, 34080, Note_on_c, 0, 46, 65
5, 34560, Note_on_c, 0, 46, 0
5, 34560, Note_on_c, 0, 35, 68
5, 36000, Note_on_c, 0, 35, 0
5, 36000, Note_on_c, 0, 40, 64
5, 36480, Note_on_c, 0, 40, 0
5, 38400, Note_on_c, 0, 35, 44
5, 38640, Note_on_c, 0, 35, 0
5, 38880, Note_on_c, 0, 35, 47
5, 39840, Note_on_c, 0, 35, 0
5, 39840, Note_on_c, 0, 40, 52
5, 40080, Note_on_c, 0, 40, 0
5, 40320, Note_on_c, 0, 40, 54
5, 41280, Note_on_c, 0, 40, 0
5, 41280, Note_on_c, 0, 47, 59
5, 41520, Note_on_c, 0, 47, 0
5, 41760, Note_on_c, 0, 47, 61
5, 42720, Note_on_c, 0, 47, 0
5, 42720, Note_on_c, 0, 52, 66
5, 42960, Note_on_c, 0, 52, 0
5, 43200, Note_on_c, 0, 52, 69
5, 44160, Note_on_c, 0, 52, 0
5, 44160, Note_on_c, 0, 55, 78
5, 44400, Note_on_c, 0, 55, 0
5, 44640, Control_c, 0, 64, 127
5, 44640, Note_on_c, 0, 55, 89
5, 45360, Note_on_c, 0, 55, 0
5, 47760, Control_c, 0, 64, 0
5, 48480, Note_on_c, 0, 35, 72
5, 48720, Note_on_c, 0, 35, 0
5, 48960, Note_on_c, 0, 36, 70
5, 49200, Note_on_c, 0, 36, 0
5, 49920, Note_on_c, 0, 52, 83
5, 50160, Note_on_c, 0, 52, 0
5, 50400, Control_c, 0, 64, 127
5, 50400, Note_on_c, 0, 52, 92
5, 51120, Note_on_c, 0, 52, 0
5, 53520, Control_c, 0, 64, 0
5, 54240, Note_on_c, 0, 32, 66
5, 54480, Note_on_c, 0, 32, 0
5, 54720, Note_on_c, 0, 33, 61
5, 54960, Note_on_c, 0, 33, 0
5, 55680, Note_on_c, 0, 58, 60
5, 56040, Note_on_c, 0, 58, 0
5, 56160, Note_on_c, 0, 58, 66
5, 58080, Note_on_c, 0, 58, 0
5, 60000, Note_on_c, 0, 64, 58
5, 60240, Note_on_c, 0, 64, 0
5, 60480, Note_on_c, 0, 64, 59
5, 61440, Note_on_c, 0, 64, 0
5, 61440, Note_on_c, 0, 58, 62
5, 61680, Note_on_c, 0, 58, 0
5, 61920, Note_on_c, 0, 58, 64
5, 62880, Note_on_c, 0, 58, 0
5, 62880, Note_on_c, 0, 58, 67
5, 63120, Note_on_c, 0, 58, 0
5, 63360, Note_on_c, 0, 58, 68
5, 64320, Note_on_c, 0, 58, 0
5, 64320, Note_on_c, 0, 58, 71
5, 64560, Note_on_c, 0, 58, 0
5, 64800, Note_on_c, 0, 58, 73
5, 67200, Note_on_c, 0, 58, 0
5, 67200, Note_on_c, 0, 58, 81
5, 67680, Note_on_c, 0, 58, 0
5, 67680, Note_on_c, 0, 38, 76
5, 67920, Note_on_c, 0, 38, 0
5, 67920, Note_on_c, 0, 38, 70
5, 68160, Note_on_c, 0, 38, 0
5, 68160, Note_on_c, 0, 38, 68
5, 68400, Note_on_c, 0, 38, 0
5, 68400, Note_on_c, 0, 38, 69
5, 68640, Note_on_c, 0, 38, 0
5, 68640, Note_on_c, 0, 38, 69
5, 68880, Note_on_c, 0, 38, 0
5, 68880, Note_on_c, 0, 38, 70
5, 69120, Note_on_c, 0, 38, 0
5, 69120, Note_on_c, 0, 50, 70
5, 69360, Note_on_c, 0, 50, 0
5, 69360, Note_on_c, 0, 50, 71
5, 69600, Note_on_c, 0, 50, 0
5, 69600, Note_on_c, 0, 50, 71
5, 69840, Note_on_c, 0, 50, 0
5, 69840, Note_on_c, 0, 50, 72
5, 70080, Note_on_c, 0, 50, 0
5, 70080, Note_on_c, 0, 50, 72
5, 70320, Note_on_c, 0, 50, 0
5, 70320, Note_on_c, 0, 50, 73
5, 70560, Note_on_c, 0, 50, 0
5, 70560, Note_on_c, 0, 51, 73
5, 70800, Note_on_c, 0, 51, 0
5, 70800, Note_on_c, 0, 51, 74
5, 71040, Note_on_c, 0, 51, 0
5, 71040, Note_on_c, 0, 52, 74
5, 71280, Note_on_c, 0, 52, 0
5, 71280, Note_on_c, 0, 52, 75
5, 71520, Note_on_c, 0, 52, 0
5, 71520, Note_on_c, 0, 52, 75
5, 71760, Note_on_c, 0, 52, 0
5, 71760, Note_on_c, 0, 52, 76
5, 72000, Note_on_c, 0, 52, 0
5, 72000, Note_on_c, 0, 52, 76
5, 72240, Note_on_c, 0, 52, 0
5, 72240, Note_on_c, 0, 52, 77
5, 72480, Note_on_c, 0, 52, 0
5, 72480, Note_on_c, 0, 54, 77
5, 72720, Note_on_c, 0, 54, 0
5, 72720, Note_on_c, 0, 54, 78
5, 72960, Note_on_c, 0, 54, 0
5, 72960, Note_on_c, 0, 54, 79
5, 73200, Note_on_c, 0, 54, 0
5, 73200, Note_on_c, 0, 54, 79
5, 73440, Note_on_c, 0, 54, 0
5, 73440, Note_on_c, 0, 54, 80
5, 73680, Note_on_c, 0, 54, 0
5, 73680, Note_on_c, 0, 54, 80
5, 73920, Note_on_c, 0, 54, 0
5, 73920, Note_on_c, 0, 55, 81
5, 74160, Note_on_c, 0, 55, 0
5, 74160, Note_on_c, 0, 55, 81
5, 74400, Note_on_c, 0, 55, 0
5, 74400, Note_on_c, 0, 55, 82
5, 74640, Note_on_c, 0, 55, 0
5, 74640, Note_on_c, 0, 55, 82
5, 74880, Note_on_c, 0, 55, 0
5, 74880, Note_on_c, 0, 56, 83
5, 75120, Note_on_c, 0, 56, 0
5, 75120, Note_on_c, 0, 56, 83
5, 75360, Note_on_c, 0, 56, 0
5, 75360, Note_on_c, 0, 56, 84
5, 75600, Note_on_c, 0, 56, 0
5, 75600, Note_on_c, 0, 56, 84
5, 75840, Note_on_c, 0, 56, 0
5, 75840, Note_on_c, 0, 56, 85
5, 76080, Note_on_c, 0, 56, 0
5, 76080, Note_on_c, 0, 56, 85
5, 76320, Note_on_c, 0, 56, 0
5, 76320, Note_on_c, 0, 61, 66
5, 76560, Note_on_c, 0, 61, 0
5, 76560, Control_c, 0, 64, 0
5, 76560, Note_on_c, 0, 61, 59
5, 76620, Control_c, 0, 64, 127
5, 76800, Note_on_c, 0, 61, 0
5, 76800, Note_on_c, 0, 61, 61
5, 77040, Note_on_c, 0, 61, 0
5, 77040, Note_on_c, 0, 61, 64
5, 77280, Note_on_c, 0, 61, 0
5, 77280, Note_on_c, 0, 61, 66
5, 77520, Note_on_c, 0, 61, 0
5, 77520, Note_on_c, 0, 61, 69
5, 77760, Note_on_c, 0, 61, 0
5, 77760, Note_on_c, 0, 61, 71
5, 78000, Note_on_c, 0, 61, 0
5, 78000, Note_on_c, 0, 61, 74
5, 78240, Note_on_c, 0, 61, 0
5, 78240, Note_on_c, 0, 61, 76
5, 78480, Note_on_c, 0, 61, 0
5, 78480, Note_on_c, 0, 61, 79
5, 78720, Note_on_c, 0, 61, 0
5, 78720, Note_on_c, 0, 61, 81
5, 78960, Note_on_c, 0, 61, 0
5, 78960, Note_on_c, 0, 61, 84
5, 79200, Note_on_c, 0, 61, 0
5, 79200, Note_on_c, 0, 54, 86
5, 79440, Note_on_c, 0, 54, 0
5, 79440, Control_c, 0, 64, 0
5, 79440, Note_on_c, 0, 54, 89
5, 79500, Control_c, 0, 64, 127
5, 79680, Note_on_c, 0, 54, 0
5, 79680, Note_on_c, 0, 54, 91
5, 79920, Note_on_c, 0, 54, 0
5, 79920, Note_on_c, 0, 54, 94
5, 80160, Note_on_c, 0, 54, 0
5, 80160, Note_on_c, 0, 54, 96
5, 80400, Note_on_c, 0, 54, 0
5, 80400, Note_on_c, 0, 54, 99
5, 80640, Note_on_c, 0, 54, 0
5, 80640, Note_on_c, 0, 54, 101
5, 80880, Note_on_c, 0, 54, 0
5, 80880, Note_on_c, 0, 54, 104
5, 81120, Note_on_c, 0, 54, 0
5, 81120, Note_on_c, 0, 54, 107
5, 81360, Note_on_c, 0, 54, 0
5, 81360, Note_on_c, 0, 54, 103
5, 81600, Note_on_c, 0, 54, 0
5, 81600, Note_on_c, 0, 54, 100
5, 81840, Note_on_c, 0, 54, 0
5, 81840, Note_on_c, 0, 54, 97
5, 82080, Note_on_c, 0, 54, 0
5, 82080, Control_c, 0, 64, 0
5, 82080, Note_on_c, 0, 47, 77
5, 82536, Note_on_c, 0, 47, 0
5, 82560, Note_on_c, 0, 49, 77
5, 83016, Note_on_c, 0, 49, 0
5, 83040, Note_on_c, 0, 50, 76
5, 83496, Note_on_c, 0, 50, 0
5, 83520, Note_on_c, 0, 47, 75
5, 83976, Note_on_c, 0, 47, 0
5, 84000, Note_on_c, 0, 49, 75
5, 84456, Note_on_c, 0, 49, 0
5, 84480, Note_on_c, 0, 50, 74
5, 84936, Note_on_c, 0, 50, 0
5, 84960, Note_on_c, 0, 47, 73
5, 85416, Note_on_c, 0, 47, 0
5, 85440, Note_on_c, 0, 49, 73
5, 85896, Note_on_c, 0, 49, 0
5, 85920, Note_on_c, 0, 50, 72
5, 86376, Note_on_c, 0, 50, 0
5, 86400, Note_on_c, 0, 47, 71
5, 86856, Note_on_c, 0, 47, 0
5, 86880, Note_on_c, 0, 49, 71
5, 87336, Note_on_c, 0, 49, 0
5, 87360, Note_on_c, 0, 50, 70
5, 87816, Note_on_c, 0, 50, 0
5, 87840, Note_on_c, 0, 52, 69
5, 88296, Note_on_c, 0, 52, 0
5, 88320, Note_on_c, 0, 53, 69
5, 88748, Note_on_c, 0, 53, 0
5, 88800, Note_on_c, 0, 54, 68
5, 89228, Note_on_c, 0, 54, 0
5, 89280, Note_on_c, 0, 54, 67
5, 89708, Note_on_c, 0, 54, 0
5, 89760, Note_on_c, 0, 54, 67
5, 90188, Note_on_c, 0, 54, 0
5, 90240, Note_on_c, 0, 54, 66
5, 90668, Note_on_c, 0, 54, 0
5, 90720, Note_on_c, 0, 50, 81
5, 91176, Note_on_c, 0, 50, 0
5, 91200, Note_on_c, 0, 49, 80
5, 91656, Note_on_c, 0, 49, 0
5, 91680, Note_on_c, 0, 50, 79
5, 92136, Note_on_c, 0, 50, 0
5, 92160, Note_on_c, 0, 47, 78
5, 92616, Note_on_c, 0, 47, 0
5, 92640, Note_on_c, 0, 49, 77
5, 93096, Note_on_c, 0, 49, 0
5, 93120, Note_on_c, 0, 50, 76
5, 93576, Note_on_c, 0, 50, 0
5, 93600, Note_on_c, 0, 47, 75
5, 94056, Note_on_c, 0, 47, 0
5, 94080, Note_on_c, 0, 49, 75
5, 94536, Note_on_c, 0, 49, 0
5, 94560, Note_on_c, 0, 50, 74
5, 95016, Note_on_c, 0, 50, 0
5, 95040, Note_on_c, 0, 47, 73
5, 95496, Note_on_c, 0, 47, 0
5, 95520, Note_on_c, 0, 49, 72
5, 95976, Note_on_c, 0, 49, 0
5, 96000, Note_on_c, 0, 50, 71
5, 96456, Note_on_c, 0, 50, 0
5, 96480, Note_on_c, 0, 52, 70
5, 96936, Note_on_c, 0, 52, 0
5, 96960, Note_on_c, 0, 53, 69
5, 97388, Note_on_c, 0, 53, 0
5, 97440, Note_on_c, 0, 54, 68
5, 97868, Note_on_c, 0, 54, 0
5, 97920, Note_on_c, 0, 54, 67
5, 98880, Note_on_c, 0, 54, 0
5, 98880, Note_on_c, 0, 42, 67
5, 98880, Note_on_c, 0, 30, 67
5, 99360, Note_on_c, 0, 30, 0
5, 99360, Note_on_c, 0, 42, 0
5, 99360, Note_on_c, 0, 47, 87
5, 99360, Note_on_c, 0, 35, 87
5, 99516, Note_on_c, 0, 35, 0
5, 99516, Note_on_c, 0, 47, 0
5, 99600, Note_on_c, 0, 49, 91
5, 99600, Note_on_c, 0, 37, 91
5, 99756, Note_on_c, 0, 37, 0
5, 99756, Note_on_c, 0, 49, 0
5, 99840, Note_on_c, 0, 38, 96
5, 99840, Note_on_c, 0, 50, 96
5, 99996, Note_on_c, 0, 50, 0
5, 99996, Note_on_c, 0, 38, 0
5, 100080, Note_on_c, 0, 40, 101
5, 100080, Note_on_c, 0, 52, 101
5, 100236, Note_on_c, 0, 52, 0
5, 100236, Note_on_c, 0, 40, 0
5, 100320, Note_on_c, 0, 54, 110
5, 100320, Note_on_c, 0, 42, 110
5, 102240, Note_on_c, 0, 42, 0
5, 102240, Note_on_c, 0, 54, 0
5, 102240, Note_on_c, 0, 52, 77
5, 102240, Note_on_c, 0, 40, 77
5, 103680, Note_on_c, 0, 40, 0
5, 103680, Note_on_c, 0, 52, 0
5, 103680, Note_on_c, 0, 54, 70
5, 103680, Note_on_c, 0, 42, 70
5, 105120, Note_on_c, 0, 42, 0
5, 105120, Note_on_c, 0, 54, 0
5, 105120, Note_on_c, 0, 35, 85
5, 105120, Note_on_c, 0, 47, 85
5, 105276, Note_on_c, 0, 47, 0
5, 105276, Note_on_c, 0, 35, 0
5, 105360, Note_on_c, 0, 37, 89
5, 105360, Note_on_c, 0, 49, 89
5, 105516, Note_on_c, 0, 49, 0
5, 105516, Note_on_c, 0, 37, 0
5, 105600, Note_on_c, 0, 50, 93
5, 105600, Note_on_c, 0, 38, 93
5, 105756, Note_on_c, 0, 38, 0
5, 105756, Note_on_c, 0, 50, 0
5, 105840, Note_on_c, 0, 52, 97
5, 105840, Note_on_c, 0, 40, 97
5, 105996, Note_on_c, 0, 40, 0
5, 105996, Note_on_c, 0, 52, 0
5, 106080, Note_on_c, 0, 42, 106
5, 106080, Note_on_c, 0, 54, 106
5, 108000, Note_on_c, 0, 54, 0
5, 108000, Note_on_c, 0, 42, 0
5, 108000, Note_on_c, 0, 40, 66
5, 108000, Note_on_c, 0, 52, 66
5, 109440, Note_on_c, 0, 52, 0
5, 109440, Note_on_c, 0, 40, 0
5, 109440, Note_on_c, 0, 42, 62
5, 109440, Note_on_c, 0, 54, 62
5, 110880, Note_on_c, 0, 54, 0
5, 110880, Note_on_c, 0, 42, 0
5, 112320, Note_on_c, 0, 47, 56
5, 112320, Note_on_c, 0, 35, 56
5, 113760, Note_on_c, 0, 35, 0
5, 113760, Note_on_c, 0, 47, 0
5, 115200, Note_on_c, 0, 42, 49
5, 115200, Note_on_c, 0, 30, 49
5, 116640, Note_on_c, 0, 30, 0
5, 116640, Note_on_c, 0, 42, 0
5, 116640, Note_on_c, 0, 35, 46
5, 116640, Note_on_c, 0, 47, 46
5, 117120, Note_on_c, 0, 47, 0
5, 117120, Note_on_c, 0, 35, 0
5, 118080, Note_on_c, 0, 35, 43
5, 118080, Note_on_c, 0, 47, 43
5, 118560, Note_on_c, 0, 47, 0
5, 118560, Note_on_c, 0, 35, 0
5, 119520, Note_on_c, 0, 47, 40
5, 119520, Note_on_c, 0, 35, 40
5, 120000, Note_on_c, 0, 35, 0
5, 120000, Note_on_c, 0, 47, 0
5, 124800, Note_on_c, 0, 66, 53
5, 125034, Note_on_c, 0, 66, 0
5, 125280, Note_on_c, 0, 66, 53
5, 125514, Note_on_c, 0, 66, 0
5, 126240, Note_on_c, 0, 66, 55
5, 126480, Note_on_c, 0, 66, 0
5, 126720, Note_on_c, 0, 64, 55
5, 126954, Note_on_c, 0, 64, 0
5, 127680, Note_on_c, 0, 64, 56
5, 127914, Note_on_c, 0, 64, 0
5, 128160, Note_on_c, 0, 62, 57
5, 128394, Note_on_c, 0, 62, 0
5, 129120, Note_on_c, 0, 62, 58
5, 129360, Note_on_c, 0, 62, 0
5, 129600, Note_on_c, 0, 60, 58
5, 129840, Note_on_c, 0, 60, 0
5, 131040, Note_on_c, 0, 57, 65
5, 131328, Note_on_c, 0, 57, 0
5, 132000, Note_on_c, 0, 57, 70
5, 132240, Note_on_c, 0, 57, 0
5, 132480, Note_on_c, 0, 56, 72
5, 132768, Note_on_c, 0, 56, 0
5, 133440, Note_on_c, 0, 56, 77
5, 133740, Note_on_c, 0, 56, 0
5, 133920, Note_on_c, 0, 56, 79
5, 134220, Note_on_c, 0, 56, 0
5, 134880, Note_on_c, 0, 56, 84
5, 135120, Note_on_c, 0, 56, 0
5, 135360, Note_on_c, 0, 55, 95
5, 135600, Note_on_c, 0, 55, 0
5, 135600, Note_on_c, 0, 55, 93
5, 135840, Note_on_c, 0, 55, 0
5, 135840, Note_on_c, 0, 55, 91
5, 136080, Note_on_c, 0, 55, 0
5, 136080, Note_on_c, 0, 55, 89
5, 136320, Note_on_c, 0, 55, 0
5, 136320, Note_on_c, 0, 55, 87
5, 136560, Note_on_c, 0, 55, 0
5, 136560, Note_on_c, 0, 55, 85
5, 136800, Note_on_c, 0, 55, 0
5, 136800, Note_on_c, 0, 54, 91
5, 137040, Note_on_c, 0, 54, 0
5, 137040, Note_on_c, 0, 54, 89
5, 137280, Note_on_c, 0, 54, 0
5, 137280, Note_on_c, 0, 54, 88
5, 137520, Note_on_c, 0, 54, 0
5, 137520, Note_on_c, 0, 54, 86
5, 137760, Note_on_c, 0, 54, 0
5, 137760, Note_on_c, 0, 54, 84
5, 138000, Note_on_c, 0, 54, 0
5, 138000, Note_on_c, 0, 54, 82
5, 138240, Note_on_c, 0, 54, 0
5, 138240, Note_on_c, 0, 51, 87
5, 138480, Note_on_c, 0, 51, 0
5, 138480, Note_on_c, 0, 51, 86
5, 138720, Note_on_c, 0, 51, 0
5, 138720, Note_on_c, 0, 51, 84
5, 138960, Note_on_c, 0, 51, 0
5, 138960, Note_on_c, 0, 51, 83
5, 139200, Note_on_c, 0, 51, 0
5, 139200, Note_on_c, 0, 51, 82
5, 139440, Note_on_c, 0, 51, 0
5, 139440, Note_on_c, 0, 51, 81
5, 139680, Note_on_c, 0, 51, 0
5, 139680, Note_on_c, 0, 48, 87
5, 139920, Note_on_c, 0, 48, 0
5, 139920, Note_on_c, 0, 48, 85
5, 140160, Note_on_c, 0, 48, 0
5, 140160, Note_on_c, 0, 48, 83
5, 140400, Note_on_c, 0, 48, 0
5, 140400, Note_on_c, 0, 48, 81
5, 140640, Note_on_c, 0, 48, 0
5, 140640, Note_on_c, 0, 48, 79
5, 140880, Note_on_c, 0, 48, 0
5, 140880, Note_on_c, 0, 48, 77
5, 141120, Note_on_c, 0, 48, 0
5, 141120, Note_on_c, 0, 45, 83
5, 141360, Note_on_c, 0, 45, 0
5, 141360, Note_on_c, 0, 45, 81
5, 141600, Note_on_c, 0, 45, 0
5, 141600, Note_on_c, 0, 45, 79
5, 141840, Note_on_c, 0, 45, 0
5, 141840, Note_on_c, 0, 45, 78
5, 142080, Note_on_c, 0, 45, 0
5, 142080, Note_on_c, 0, 45, 76
5, 142320, Note_on_c, 0, 45, 0
5, 142320, Note_on_c, 0, 45, 74
5, 142560, Note_on_c, 0, 45, 0
5, 142560, Note_on_c, 0, 42, 81
5, 142800, Note_on_c, 0, 42, 0
5, 142800, Note_on_c, 0, 42, 79
5, 143040, Note_on_c, 0, 42, 0
5, 143040, Note_on_c, 0, 42, 78
5, 143280, Note_on_c, 0, 42, 0
5, 143280, Note_on_c, 0, 42, 76
5, 143520, Note_on_c, 0, 42, 0
5, 143520, Note_on_c, 0, 42, 74
5, 143760, Note_on_c, 0, 42, 0
5, 143760, Note_on_c, 0, 42, 73
5, 144000, Note_on_c, 0, 42, 0
5, 144000, Note_on_c, 0, 39, 81
5, 144240, Note_on_c, 0, 39, 0
5, 144240, Note_on_c, 0, 39, 75
5, 144480, Note_on_c, 0, 39, 0
5, 144480, Note_on_c, 0, 39, 75
5, 144720, Note_on_c, 0, 39, 0
5, 144720, Note_on_c, 0, 39, 74
5, 144960, Note_on_c, 0, 39, 0
5, 144960, Note_on_c, 0, 39, 73
5, 145200, Note_on_c, 0, 39, 0
5, 145200, Note_on_c, 0, 39, 72
5, 145440, Note_on_c, 0, 39, 0
5, 145440, Note_on_c, 0, 38, 72
5, 145680, Note_on_c, 0, 38, 0
5, 145680, Note_on_c, 0, 38, 71
5, 145920, Note_on_c, 0, 38, 0
5, 145920, Note_on_c, 0, 38, 70
5, 146160, Note_on_c, 0, 38, 0
5, 146160, Note_on_c, 0, 38, 70
5, 146400, Note_on_c, 0, 38, 0
5, 146400, Note_on_c, 0, 38, 69
5, 146640, Note_on_c, 0, 38, 0
5, 146640, Note_on_c, 0, 38, 68
5, 146880, Note_on_c, 0, 38, 0
5, 146880, Note_on_c, 0, 43, 67
5, 146880, Note_on_c, 0, 31, 67
5, 147120, Note_on_c, 0, 31, 0
5, 147120, Note_on_c, 0, 43, 0
5, 147120, Note_on_c, 0, 31, 67
5, 147120, Note_on_c, 0, 43, 67
5, 147360, Note_on_c, 0, 43, 0
5, 147360, Note_on_c, 0, 31, 0
5, 147360, Note_on_c, 0, 31, 66
5, 147360, Note_on_c, 0, 43, 66
5, 147600, Note_on_c, 0, 43, 0
5, 147600, Note_on_c, 0, 31, 0
5, 148560, Note_on_c, 0, 43, 62
5, 148560, Note_on_c, 0, 31, 62
5, 148800, Note_on_c, 0, 31, 0
5, 148800, Note_on_c, 0, 43, 0
5, 148800, Note_on_c, 0, 43, 62
5, 148800, Note_on_c, 0, 31, 62
5, 149040, Note_on_c, 0, 31, 0
5, 149040, Note_on_c, 0, 43, 0
5, 150000, Note_on_c, 0, 31, 58
5, 150000, Note_on_c, 0, 43, 58
5, 150240, Note_on_c, 0, 43, 0
5, 150240, Note_on_c, 0, 31, 0
5, 150240, Note_on_c, 0, 43, 57
5, 150240, Note_on_c, 0, 31, 57
5, 150480, Note_on_c, 0, 31, 0
5, 150480, Note_on_c, 0, 43, 0
5, 151440, Note_on_c, 0, 31, 51
5, 151440, Note_on_c, 0, 43, 51
5, 151596, Note_on_c, 0, 43, 0
5, 151596, Note_on_c, 0, 31, 0
5, 151920, Note_on_c, 0, 31, 53
5, 151920, Note_on_c, 0, 43, 53
5, 152076, Note_on_c, 0, 43, 0
5, 152076, Note_on_c, 0, 31, 0
5, 152400, Note_on_c, 0, 31, 55
5, 152400, Note_on_c, 0, 43, 55
5, 152556, Note_on_c, 0, 43, 0
5, 152556, Note_on_c, 0, 31, 0
5, 152880, Note_on_c, 0, 31, 57
5, 152880, Note_on_c, 0, 43, 57
5, 153036, Note_on_c, 0, 43, 0
5, 153036, Note_on_c, 0, 31, 0
5, 153360, Note_on_c, 0, 45, 59
5, 153360, Note_on_c, 0, 33, 59
5, 153516, Note_on_c, 0, 33, 0
5, 153516, Note_on_c, 0, 45, 0
5, 153840, Note_on_c, 0, 47, 61
5, 153840, Note_on_c, 0, 35, 61
5, 153996, Note_on_c, 0, 35, 0
5, 153996, Note_on_c, 0, 47, 0
5, 154320, Note_on_c, 0, 48, 63
5, 154320, Note_on_c, 0, 36, 63
5, 154476, Note_on_c, 0, 36, 0
5, 154476, Note_on_c, 0, 48, 0
5, 154800, Note_on_c, 0, 49, 64
5, 154800, Note_on_c, 0, 37, 64
5, 154956, Note_on_c, 0, 37, 0
5, 154956, Note_on_c, 0, 49, 0
5, 155280, Note_on_c, 0, 38, 66
5, 155280, Note_on_c, 0, 50, 66
5, 155436, Note_on_c, 0, 50, 0
5, 155436, Note_on_c, 0, 38, 0
5, 155760, Note_on_c, 0, 39, 68
5, 155760, Note_on_c, 0, 51, 68
5, 155916, Note_on_c, 0, 51, 0
5, 155916, Note_on_c, 0, 39, 0
5, 156240, Note_on_c, 0, 40, 70
5, 156240, Note_on_c, 0, 52, 70
5, 156396, Note_on_c, 0, 52, 0
5, 156396, Note_on_c, 0, 40, 0
5, 156720, Note_on_c, 0, 41, 72
5, 156720, Note_on_c, 0, 53, 72
5, 156876, Note_on_c, 0, 53, 0
5, 156876, Note_on_c, 0, 41, 0
5, 157200, Note_on_c, 0, 54, 70
5, 157200, Note_on_c, 0, 42, 70
5, 157356, Note_on_c, 0, 42, 0
5, 157356, Note_on_c, 0, 54, 0
5, 157680, Note_on_c, 0, 55, 63
5, 157680, Note_on_c, 0, 43, 63
5, 157836, Note_on_c, 0, 43, 0
5, 157836, Note_on_c, 0, 55, 0
5, 158160, Note_on_c, 0, 43, 57
5, 158160, Note_on_c, 0, 55, 57
5, 158316, Note_on_c, 0, 55, 0
5, 158316, Note_on_c, 0, 43, 0
5, 159840, Note_on_c, 0, 65, 48
5, 160800, Note_on_c, 0, 65, 0
5, 160800, Note_on_c, 0, 59, 51
5, 160800, Note_on_c, 0, 65, 51
5, 161280, Note_on_c, 0, 65, 0
5, 161280, Note_on_c, 0, 59, 0
5, 161280, Note_on_c, 0, 60, 52
5, 161280, Note_on_c, 0, 64, 52
5, 161760, Note_on_c, 0, 64, 0
5, 161760, Note_on_c, 0, 60, 0
5, 161760, Note_on_c, 0, 60, 53
5, 162240, Note_on_c, 0, 60, 0
5, 162240, Note_on_c, 0, 61, 54
5, 162720, Note_on_c, 0, 61, 0
5, 162720, Note_on_c, 0, 62, 56
5, 163200, Note_on_c, 0, 62, 0
5, 163200, Note_on_c, 0, 57, 57
5, 163680, Note_on_c, 0, 57, 0
5, 163680, Note_on_c, 0, 58, 58
5, 164160, Note_on_c, 0, 58, 0
5, 164160, Note_on_c, 0, 59, 60
5, 164640, Note_on_c, 0, 59, 0
5, 164640, Note_on_c, 0, 55, 59
5, 165120, Note_on_c, 0, 55, 0
5, 165120, Note_on_c, 0, 62, 58
5, 165600, Note_on_c, 0, 62, 0
5, 165600, Note_on_c, 0, 61, 58
5, 166080, Note_on_c, 0, 61, 0
5, 166080, Note_on_c, 0, 60, 57
5, 166560, Note_on_c, 0, 60, 0
5, 166560, Note_on_c, 0, 60, 56
5, 166560, Note_on_c, 0, 58, 56
5, 167040, Note_on_c, 0, 58, 0
5, 167040, Note_on_c, 0, 60, 0
5, 167040, Note_on_c, 0, 60, 56
5, 167040, Note_on_c, 0, 57, 56
5, 167520, Note_on_c, 0, 57, 0
5, 167520, Note_on_c, 0, 60, 0
5, 167520, Note_on_c, 0, 65, 56
5, 167520, Note_on_c, 0, 53, 56
5, 168000, Note_on_c, 0, 53, 0
5, 168000, Note_on_c, 0, 65, 0
5, 168000, Note_on_c, 0, 62, 57
5, 168000, Note_on_c, 0, 54, 57
5, 168480, Note_on_c, 0, 54, 0
5, 168480, Note_on_c, 0, 62, 0
5, 168480, Note_on_c, 0, 60, 57
5, 168480, Note_on_c, 0, 55, 57
5, 168960, Note_on_c, 0, 55, 0
5, 168960, Note_on_c, 0, 60, 0
5, 168960, Note_on_c, 0, 50, 58
5, 168960, Note_on_c, 0, 58, 58
5, 169440, Note_on_c, 0, 58, 0
5, 169440, Note_on_c, 0, 50, 0
5, 169440, Note_on_c, 0, 53, 59
5, 169440, Note_on_c, 0, 58, 59
5, 169920, Note_on_c, 0, 53, 0
5, 169920, Note_on_c, 0, 52, 60
5, 170400, Note_on_c, 0, 52, 0
5, 170400, Note_on_c, 0, 58, 0
5, 170400, Note_on_c, 0, 67, 60
5, 170880, Note_on_c, 0, 67, 0
5, 170880, Note_on_c, 0, 58, 61
5, 170880, Note_on_c, 0, 48, 61
5, 171360, Note_on_c, 0, 48, 0
5, 171360, Note_on_c, 0, 53, 62
5, 171840, Note_on_c, 0, 53, 0
5, 171840, Note_on_c, 0, 58, 0
5, 171840, Note_on_c, 0, 53, 63
5, 171840, Note_on_c, 0, 57, 63
5, 172320, Note_on_c, 0, 57, 0
5, 172320, Note_on_c, 0, 53, 0
5, 172320, Note_on_c, 0, 45, 64
5, 173280, Note_on_c, 0, 45, 0
5, 173280, Note_on_c, 0, 50, 65
5, 173760, Note_on_c, 0, 50, 0
5, 173760, Note_on_c, 0, 46, 66
5, 174240, Note_on_c, 0, 46, 0
5, 174240, Note_on_c, 0, 45, 67
5, 174720, Note_on_c, 0, 45, 0
5, 174720, Note_on_c, 0, 44, 67
5, 175200, Note_on_c, 0, 44, 0
5, 175200, Note_on_c, 0, 44, 68
5, 175680, Note_on_c, 0, 44, 0
5, 175680, Note_on_c, 0, 44, 69
5, 176160, Note_on_c, 0, 44, 0
5, 176160, Note_on_c, 0, 52, 84
5, 176640, Note_on_c, 0, 44, 71
5, 177120, Note_on_c, 0, 44, 0
5, 177120, Note_on_c, 0, 45, 72
5, 177600, Note_on_c, 0, 45, 0
5, 177600, Note_on_c, 0, 52, 0
5, 177600, Note_on_c, 0, 52, 90
5, 178080, Note_on_c, 0, 45, 74
5, 178560, Note_on_c, 0, 45, 0
5, 178560, Note_on_c, 0, 47, 75
5, 179040, Note_on_c, 0, 47, 0
5, 179040, Note_on_c, 0, 52, 0
5, 179040, Note_on_c, 0, 52, 92
5, 179520, Note_on_c, 0, 47, 77
5, 180000, Note_on_c, 0, 47, 0
5, 180000, Note_on_c, 0, 48, 78
5, 180480, Note_on_c, 0, 48, 0
5, 180480, Note_on_c, 0, 52, 0
5, 180480, Note_on_c, 0, 52, 94
5, 180960, Note_on_c, 0, 48, 80
5, 181440, Note_on_c, 0, 48, 0
5, 181440, Note_on_c, 0, 51, 81
5, 181920, Note_on_c, 0, 51, 0
5, 181920, Note_on_c, 0, 52, 0
5, 181920, Note_on_c, 0, 59, 95
5, 182400, Note_on_c, 0, 51, 82
5, 182880, Note_on_c, 0, 51, 0
5, 182880, Note_on_c, 0, 52, 83
5, 183360, Note_on_c, 0, 52, 0
5, 183360, Note_on_c, 0, 59, 0
5, 183360, Note_on_c, 0, 60, 99
5, 183840, Note_on_c, 0, 52, 85
5, 184320, Note_on_c, 0, 52, 0
5, 184320, Note_on_c, 0, 54, 86
5, 184800, Note_on_c, 0, 54, 0
5, 184800, Note_on_c, 0, 60, 0
5, 184800, Note_on_c, 0, 63, 101
5, 185280, Note_on_c, 0, 54, 88
5, 185760, Note_on_c, 0, 54, 0
5, 185760, Note_on_c, 0, 55, 89
5, 186240, Note_on_c, 0, 55, 0
5, 186240, Note_on_c, 0, 63, 0
5, 186240, Note_on_c, 0, 64, 105
5, 186720, Note_on_c, 0, 55, 91
5, 187200, Note_on_c, 0, 55, 0
5, 187200, Note_on_c, 0, 57, 92
5, 187680, Note_on_c, 0, 57, 0
5, 187680, Note_on_c, 0, 64, 0
5, 187680, Note_on_c, 0, 66, 107
5, 188160, Note_on_c, 0, 57, 93
5, 188640, Note_on_c, 0, 57, 0
5, 188640, Note_on_c, 0, 58, 94
5, 189120, Note_on_c, 0, 58, 0
5, 189120, Note_on_c, 0, 66, 0
5, 189120, Note_on_c, 0, 67, 110
5, 189600, Note_on_c, 0, 58, 96
5, 190080, Note_on_c, 0, 58, 0
5, 190080, Note_on_c, 0, 59, 116
5, 190560, Note_on_c, 0, 67, 0
5, 190560, Note_on_c, 0, 64, 100
5, 191040, Note_on_c, 0, 64, 0
5, 191040, Note_on_c, 0, 67, 103
5, 191520, Note_on_c, 0, 67, 0
5, 191520, Note_on_c, 0, 71, 105
5, 192000, Note_on_c, 0, 71, 0
5, 192000, Note_on_c, 0, 76, 107
5, 192480, Note_on_c, 0, 76, 0
5, 192480, Note_on_c, 0, 79, 110
5, 192960, Note_on_c, 0, 79, 0
5, 192960, Note_on_c, 0, 59, 0
5, 193440, Control_c, 0, 64, 0
5, 193440, Note_on_c, 0, 79, 106
5, 193500, Control_c, 0, 64, 127
5, 193560, Note_on_c, 0, 79, 0
5, 193560, Note_on_c, 0, 78, 103
5, 193680, Note_on_c, 0, 78, 0
5, 193680, Note_on_c, 0, 76, 101
5, 193800, Note_on_c, 0, 76, 0
5, 193800, Note_on_c, 0, 75, 99
5, 193920, Note_on_c, 0, 75, 0
5, 193920, Note_on_c, 0, 76, 96
5, 194160, Note_on_c, 0, 76, 0
5, 194160, Control_c, 0, 64, 0
5, 194880, Note_on_c, 0, 79, 87
5, 195120, Note_on_c, 0, 79, 0
5, 195120, Note_on_c, 0, 78, 86
5, 195360, Note_on_c, 0, 78, 0
5, 195360, Note_on_c, 0, 76, 85
5, 195600, Note_on_c, 0, 76, 0
5, 195600, Note_on_c, 0, 75, 84
5, 195840, Note_on_c, 0, 75, 0
5, 195840, Note_on_c, 0, 76, 84
5, 196320, Note_on_c, 0, 76, 0
5, 196800, Note_on_c, 0, 79, 80
5, 197280, Note_on_c, 0, 79, 0
5, 197280, Note_on_c, 0, 78, 79
5, 197760, Note_on_c, 0, 78, 0
5, 197760, Note_on_c, 0, 76, 77
5, 198240, Note_on_c, 0, 76, 0
5, 198240, Note_on_c, 0, 75, 75
5, 198720, Note_on_c, 0, 75, 0
5, 198720, Note_on_c, 0, 76, 74
5, 199200, Note_on_c, 0, 76, 0
5, 200160, Note_on_c, 0, 79, 69
5, 201120, Note_on_c, 0, 79, 0
5, 201120, Note_on_c, 0, 78, 66
5, 202080, Note_on_c, 0, 78, 0
5, 202080, Note_on_c, 0, 76, 62
5, 202560, Note_on_c, 0, 76, 0
5, 203040, Note_on_c, 0, 67, 59
5, 204000, Note_on_c, 0, 67, 0
5, 204000, Note_on_c, 0, 66, 56
5, 204240, Note_on_c, 0, 66, 0
5, 204240, Note_on_c, 0, 64, 55
5, 204480, Note_on_c, 0, 64, 0
5, 204480, Note_on_c, 0, 64, 54
5, 204960, Note_on_c, 0, 64, 0
5, 205440, Note_on_c, 0, 67, 51
5, 205920, Note_on_c, 0, 67, 0
5, 205920, Note_on_c, 0, 66, 49
5, 206160, Note_on_c, 0, 66, 0
5, 206160, Note_on_c, 0, 64, 48
5, 206400, Note_on_c, 0, 64, 0
5, 206400, Note_on_c, 0, 64, 48
5, 206880, Note_on_c, 0, 64, 0
5, 207120, Note_on_c, 0, 79, 50
5, 207360, Note_on_c, 0, 79, 0
5, 207360, Note_on_c, 0, 78, 53
5, 207600, Note_on_c, 0, 78, 0
5, 207600, Note_on_c, 0, 76, 55
5, 207840, Note_on_c, 0, 76, 0
5, 208080, Note_on_c, 0, 79, 61
5, 208320, Note_on_c, 0, 79, 0
5, 208320, Note_on_c, 0, 78, 64
5, 208560, Note_on_c, 0, 78, 0
5, 208560, Note_on_c, 0, 76, 67
5, 208800, Note_on_c, 0, 76, 0
5, 209040, Note_on_c, 0, 55, 72
5, 209280, Note_on_c, 0, 55, 0
5, 209280, Note_on_c, 0, 54, 75
5, 209520, Note_on_c, 0, 54, 0
5, 209520, Note_on_c, 0, 52, 78
5, 209760, Note_on_c, 0, 52, 0
5, 209760, Control_c, 0, 64, 0
5, 209760, Note_on_c, 0, 52, 85
5, 210240, Note_on_c, 0, 52, 0
5, 210240, Note_on_c, 0, 40, 95
5, 210240, Note_on_c, 0, 52, 95
5, 211200, Note_on_c, 0, 52, 0
5, 211200, Note_on_c, 0, 40, 0
5, 211200, Note_on_c, 0, 40, 86
5, 211200, Note_on_c, 0, 52, 86
5, 211440, Note_on_c, 0, 52, 0
5, 211440, Note_on_c, 0, 40, 0
5, 211680, Note_on_c, 0, 38, 82
5, 211680, Note_on_c, 0, 50, 82
5, 212040, Note_on_c, 0, 50, 0
5, 212040, Note_on_c, 0, 38, 0
5, 212640, Note_on_c, 0, 62, 59
5, 213120, Note_on_c, 0, 62, 0
5, 213120, Note_on_c, 0, 60, 63
5, 213840, Note_on_c, 0, 60, 0
5, 213840, Note_on_c, 0, 59, 58
5, 214080, Note_on_c, 0, 59, 0
5, 214080, Note_on_c, 0, 57, 57
5, 214440, Note_on_c, 0, 57, 0
5, 214560, Note_on_c, 0, 55, 55
5, 214920, Note_on_c, 0, 55, 0
5, 215520, Note_on_c, 0, 43, 82
5, 215520, Note_on_c, 0, 55, 82
5, 215760, Note_on_c, 0, 55, 0
5, 215760, Note_on_c, 0, 43, 0
5, 216000, Note_on_c, 0, 55, 91
5, 216000, Note_on_c, 0, 43, 91
5, 216960, Note_on_c, 0, 43, 0
5, 216960, Note_on_c, 0, 55, 0
5, 216960, Note_on_c, 0, 31, 85
5, 216960, Note_on_c, 0, 43, 85
5, 217200, Note_on_c, 0, 43, 0
5, 217200, Note_on_c, 0, 31, 0
5, 217440, Note_on_c, 0, 30, 80
5, 217440, Note_on_c, 0, 42, 80
5, 217800, Note_on_c, 0, 42, 0
5, 217800, Note_on_c, 0, 30, 0
5, 218400, Note_on_c, 0, 66, 55
5, 218880, Note_on_c, 0, 66, 0
5, 218880, Note_on_c, 0, 64, 59
5, 219600, Note_on_c, 0, 64, 0
5, 219600, Note_on_c, 0, 62, 54
5, 219840, Note_on_c, 0, 62, 0
5, 219840, Note_on_c, 0, 61, 53
5, 220200, Note_on_c, 0, 61, 0
5, 220320, Note_on_c, 0, 59, 50
5, 220680, Note_on_c, 0, 59, 0
5, 221760, Note_on_c, 0, 59, 52
5, 223200, Note_on_c, 0, 59, 0
5, 223200, Note_on_c, 0, 57, 57
5, 224160, Note_on_c, 0, 57, 0
5, 224160, Note_on_c, 0, 63, 60
5, 224640, Note_on_c, 0, 63, 0
5, 224640, Note_on_c, 0, 62, 62
5, 225600, Note_on_c, 0, 62, 0
5, 225600, Note_on_c, 0, 66, 65
5, 226080, Note_on_c, 0, 66, 0
5, 226080, Note_on_c, 0, 67, 67
5, 227040, Note_on_c, 0, 67, 0
5, 227040, Note_on_c, 0, 55, 63
5, 227520, Note_on_c, 0, 55, 0
5, 227520, Note_on_c, 0, 52, 61
5, 228480, Note_on_c, 0, 52, 0
5, 228480, Note_on_c, 0, 64, 57
5, 228960, Note_on_c, 0, 64, 0
5, 228960, Note_on_c, 0, 60, 55
5, 229920, Note_on_c, 0, 60, 0
5, 229920, Note_on_c, 0, 48, 51
5, 230400, Note_on_c, 0, 36, 49
5, 231840, Note_on_c, 0, 36, 0
5, 231840, Note_on_c, 0, 48, 0
5, 231840, Note_on_c, 0, 36, 43
5, 231840, Note_on_c, 0, 47, 43
5, 233760, Note_on_c, 0, 47, 0
5, 233760, Note_on_c, 0, 36, 0
5, 234720, Note_on_c, 0, 43, 50
5, 236160, Note_on_c, 0, 43, 0
5, 236160, Note_on_c, 0, 45, 52
5, 237096, Note_on_c, 0, 45, 0
5, 237120, Note_on_c, 0, 46, 58
5, 237600, Note_on_c, 0, 46, 0
5, 237600, Note_on_c, 0, 47, 61
5, 239040, Note_on_c, 0, 47, 0
5, 239040, Note_on_c, 0, 48, 71
5, 240000, Note_on_c, 0, 48, 0
5, 240000, Note_on_c, 0, 47, 63
5, 240240, Note_on_c, 0, 47, 0
5, 240240, Note_on_c, 0, 45, 60
5, 240480, Note_on_c, 0, 45, 0
5, 240480, Note_on_c, 0, 43, 58
5, 241440, Note_on_c, 0, 43, 0
5, 241440, Note_on_c, 0, 44, 67
5, 241920, Note_on_c, 0, 44, 0
5, 241920, Note_on_c, 0, 45, 74
5, 242880, Note_on_c, 0, 45, 0
5, 242880, Note_on_c, 0, 46, 64
5, 243360, Note_on_c, 0, 46, 0
5, 243360, Note_on_c, 0, 35, 68
5, 244800, Note_on_c, 0, 35, 0
5, 244800, Note_on_c, 0, 40, 55
5, 245280, Note_on_c, 0, 40, 0
5, 247200, Note_on_c, 0, 31, 44
5, 247440, Note_on_c, 0, 31, 0
5, 247680, Note_on_c, 0, 31, 47
5, 248640, Note_on_c, 0, 31, 0
5, 248640, Note_on_c, 0, 36, 52
5, 248880, Note_on_c, 0, 36, 0
5, 249120, Note_on_c, 0, 36, 54
5, 250080, Note_on_c, 0, 36, 0
5, 250080, Note_on_c, 0, 43, 59
5, 250320, Note_on_c, 0, 43, 0
5, 250560, Note_on_c, 0, 43, 61
5, 251520, Note_on_c, 0, 43, 0
5, 251520, Note_on_c, 0, 48, 66
5, 251760, Note_on_c, 0, 48, 0
5, 252000, Note_on_c, 0, 48, 69
5, 252960, Note_on_c, 0, 48, 0
5, 252960, Note_on_c, 0, 59, 78
5, 253200, Note_on_c, 0, 59, 0
5, 253440, Control_c, 0, 64, 127
5, 253440, Note_on_c, 0, 59, 94
5, 254160, Note_on_c, 0, 59, 0
5, 256560, Control_c, 0, 64, 0
5, 257280, Note_on_c, 0, 35, 72
5, 257280, Note_on_c, 0, 47, 72
5, 257520, Note_on_c, 0, 47, 0
5, 257520, Note_on_c, 0, 35, 0
5, 257760, Note_on_c, 0, 36, 70
5, 257760, Note_on_c, 0, 48, 70
5, 258000, Note_on_c, 0, 48, 0
5, 258000, Note_on_c, 0, 36, 0
5, 259200, Control_c, 0, 64, 127
5, 262320, Control_c, 0, 64, 0
5, 263040, Note_on_c, 0, 32, 66
5, 263040, Note_on_c, 0, 44, 66
5, 263280, Note_on_c, 0, 44, 0
5, 263280, Note_on_c, 0, 32, 0
5, 263520, Note_on_c, 0, 33, 61
5, 263520, Note_on_c, 0, 45, 61
5, 263760, Note_on_c, 0, 45, 0
5, 263760, Note_on_c, 0, 33, 0
5, 264480, Note_on_c, 0, 41, 60
5, 264480, Note_on_c, 0, 48, 60
5, 264720, Note_on_c, 0, 48, 0
5, 264720, Note_on_c, 0, 41, 0
5, 264960, Note_on_c, 0, 41, 69
5, 264960, Note_on_c, 0, 48, 69
5, 267360, Note_on_c, 0, 48, 0
5, 267360, Note_on_c, 0, 41, 0
5, 267360, Note_on_c, 0, 41, 60
5, 267360, Note_on_c, 0, 48, 60
5, 267600, Note_on_c, 0, 48, 0
5, 267600, Note_on_c, 0, 41, 0
5, 267840, Control_c, 0, 64, 0
5, 267840, Note_on_c, 0, 41, 61
5, 267840, Note_on_c, 0, 48, 61
5, 268800, Note_on_c, 0, 48, 0
5, 268800, Note_on_c, 0, 41, 0
5, 268800, Note_on_c, 0, 41, 64
5, 268800, Note_on_c, 0, 48, 64
5, 269040, Note_on_c, 0, 48, 0
5, 269040, Note_on_c, 0, 41, 0
5, 269280, Note_on_c, 0, 41, 66
5, 269280, Note_on_c, 0, 48, 66
5, 270240, Note_on_c, 0, 48, 0
5, 270240, Note_on_c, 0, 41, 0
5, 270240, Note_on_c, 0, 42, 69
5, 270240, Note_on_c, 0, 48, 69
5, 270480, Note_on_c, 0, 48, 0
5, 270480, Note_on_c, 0, 42, 0
5, 270720, Note_on_c, 0, 42, 71
5, 270720, Note_on_c, 0, 48, 71
5, 271680, Note_on_c, 0, 48, 0
5, 271680, Note_on_c, 0, 42, 0
5, 271680, Note_on_c, 0, 42, 74
5, 271680, Note_on_c, 0, 48, 74
5, 271920, Note_on_c, 0, 48, 0
5, 271920, Note_on_c, 0, 42, 0
5, 272160, Note_on_c, 0, 42, 76
5, 272160, Note_on_c, 0, 48, 76
5, 273120, Note_on_c, 0, 48, 0
5, 273120, Note_on_c, 0, 42, 0
5, 273120, Note_on_c, 0, 48, 79
5, 273120, Note_on_c, 0, 42, 79
5, 273360, Note_on_c, 0, 42, 0
5, 273360, Note_on_c, 0, 48, 0
5, 273600, Note_on_c, 0, 42, 80
5, 273600, Note_on_c, 0, 47, 80
5, 275040, Control_c, 0, 64, 0
5, 276000, Note_on_c, 0, 47, 0
5, 276000, Note_on_c, 0, 42, 0
5, 276000, Note_on_c, 0, 47, 76
5, 276000, Note_on_c, 0, 42, 76
5, 276480, Note_on_c, 0, 42, 0
5, 276480, Note_on_c, 0, 47, 0
5, 276480, Note_on_c, 0, 55, 76
5, 276480, Note_on_c, 0, 47, 76
5, 276480, Note_on_c, 0, 43, 76
5, 276720, Note_on_c, 0, 55, 0
5, 276720, Note_on_c, 0, 55, 76
5, 276960, Note_on_c, 0, 55, 0
5, 276960, Note_on_c, 0, 55, 76
5, 277200, Note_on_c, 0, 55, 0
5, 277200, Note_on_c, 0, 55, 76
5, 277440, Note_on_c, 0, 55, 0
5, 277440, Note_on_c, 0, 55, 77
5, 277680, Note_on_c, 0, 55, 0
5, 277680, Note_on_c, 0, 55, 77
5, 277920, Note_on_c, 0, 55, 0
5, 277920, Note_on_c, 0, 56, 77
5, 277974, Note_on_c, 0, 43, 0
5, 277974, Note_on_c, 0, 47, 0
5, 278160, Note_on_c, 0, 56, 0
5, 278160, Note_on_c, 0, 56, 77
5, 278400, Note_on_c, 0, 56, 0
5, 278400, Note_on_c, 0, 56, 78
5, 278640, Note_on_c, 0, 56, 0
5, 278640, Note_on_c, 0, 56, 78
5, 278880, Note_on_c, 0, 56, 0
5, 278880, Note_on_c, 0, 56, 78
5, 279120, Note_on_c, 0, 56, 0
5, 279120, Note_on_c, 0, 56, 78
5, 279360, Note_on_c, 0, 56, 0
5, 279360, Note_on_c, 0, 56, 78
5, 279600, Note_on_c, 0, 56, 0
5, 279600, Note_on_c, 0, 56, 79
5, 279840, Note_on_c, 0, 56, 0
5, 279840, Note_on_c, 0, 57, 79
5, 280080, Note_on_c, 0, 57, 0
5, 280080, Note_on_c, 0, 57, 79
5, 280320, Note_on_c, 0, 57, 0
5, 280320, Note_on_c, 0, 57, 79
5, 280560, Note_on_c, 0, 57, 0
5, 280560, Note_on_c, 0, 57, 79
5, 280800, Note_on_c, 0, 57, 0
5, 280800, Note_on_c, 0, 57, 80
5, 281040, Note_on_c, 0, 57, 0
5, 281040, Note_on_c, 0, 57, 80
5, 281280, Note_on_c, 0, 57, 0
5, 281280, Note_on_c, 0, 59, 80
5, 281520, Note_on_c, 0, 59, 0
5, 281520, Note_on_c, 0, 59, 80
5, 281760, Note_on_c, 0, 59, 0
5, 281760, Note_on_c, 0, 59, 81
5, 282000, Note_on_c, 0, 59, 0
5, 282000, Note_on_c, 0, 59, 81
5, 282240, Note_on_c, 0, 59, 0
5, 282240, Note_on_c, 0, 59, 81
5, 282480, Note_on_c, 0, 59, 0
5, 282480, Note_on_c, 0, 59, 81
5, 282720, Note_on_c, 0, 59, 0
5, 282720, Note_on_c, 0, 60, 81
5, 282960, Note_on_c, 0, 60, 0
5, 282960, Note_on_c, 0, 60, 82
5, 283200, Note_on_c, 0, 60, 0
5, 283200, Note_on_c, 0, 60, 82
5, 283440, Note_on_c, 0, 60, 0
5, 283440, Note_on_c, 0, 60, 82
5, 283680, Note_on_c, 0, 60, 0
5, 283680, Note_on_c, 0, 60, 82
5, 283920, Note_on_c, 0, 60, 0
5, 283920, Note_on_c, 0, 61, 83
5, 284160, Note_on_c, 0, 61, 0
5, 284160, Note_on_c, 0, 61, 83
5, 284400, Note_on_c, 0, 61, 0
5, 284400, Note_on_c, 0, 61, 83
5, 284640, Note_on_c, 0, 61, 0
5, 284640, Note_on_c, 0, 61, 83
5, 284880, Note_on_c, 0, 61, 0
5, 284880, Note_on_c, 0, 61, 83
5, 285120, Note_on_c, 0, 61, 0
5, 285120, Note_on_c, 0, 66, 72
5, 285360, Note_on_c, 0, 66, 0
5, 285360, Control_c, 0, 64, 0
5, 285360, Note_on_c, 0, 66, 63
5, 285420, Control_c, 0, 64, 127
5, 285600, Note_on_c, 0, 66, 0
5, 285600, Note_on_c, 0, 66, 65
5, 285840, Note_on_c, 0, 66, 0
5, 285840, Note_on_c, 0, 66, 67
5, 286080, Note_on_c, 0, 66, 0
5, 286080, Note_on_c, 0, 66, 69
5, 286320, Note_on_c, 0, 66, 0
5, 286320, Note_on_c, 0, 66, 72
5, 286560, Note_on_c, 0, 66, 0
5, 286560, Note_on_c, 0, 66, 74
5, 286800, Note_on_c, 0, 66, 0
5, 286800, Note_on_c, 0, 66, 76
5, 287040, Note_on_c, 0, 66, 0
5, 287040, Note_on_c, 0, 66, 78
5, 287280, Note_on_c, 0, 66, 0
5, 287280, Note_on_c, 0, 66, 80
5, 287520, Note_on_c, 0, 66, 0
5, 287520, Note_on_c, 0, 66, 83
5, 287760, Note_on_c, 0, 66, 0
5, 287760, Note_on_c, 0, 66, 85
5, 288000, Note_on_c, 0, 66, 0
5, 288000, Note_on_c, 0, 59, 87
5, 288240, Note_on_c, 0, 59, 0
5, 288240, Control_c, 0, 64, 0
5, 288240, Note_on_c, 0, 59, 89
5, 288300, Control_c, 0, 64, 127
5, 288480, Note_on_c, 0, 59, 0
5, 288480, Note_on_c, 0, 59, 91
5, 288720, Note_on_c, 0, 59, 0
5, 288720, Note_on_c, 0, 59, 94
5, 288960, Note_on_c, 0, 59, 0
5, 288960, Note_on_c, 0, 59, 96
5, 289200, Note_on_c, 0, 59, 0
5, 289200, Note_on_c, 0, 59, 98
5, 289440, Note_on_c, 0, 59, 0
5, 289440, Note_on_c, 0, 59, 100
5, 289680, Note_on_c, 0, 59, 0
5, 289680, Note_on_c, 0, 59, 102
5, 289920, Note_on_c, 0, 59, 0
5, 289920, Note_on_c, 0, 59, 101
5, 290160, Note_on_c, 0, 59, 0
5, 290160, Note_on_c, 0, 59, 99
5, 290400, Note_on_c, 0, 59, 0
5, 290400, Note_on_c, 0, 59, 96
5, 290640, Note_on_c, 0, 59, 0
5, 290640, Note_on_c, 0, 59, 93
5, 290880, Note_on_c, 0, 59, 0
5, 290880, Control_c, 0, 64, 0
5, 290880, Note_on_c, 0, 52, 80
5, 291336, Note_on_c, 0, 52, 0
5, 291360, Note_on_c, 0, 54, 79
5, 291816, Note_on_c, 0, 54, 0
5, 291840, Note_on_c, 0, 55, 78
5, 292296, Note_on_c, 0, 55, 0
5, 292320, Note_on_c, 0, 52, 77
5, 292776, Note_on_c, 0, 52, 0
5, 292800, Note_on_c, 0, 54, 77
5, 293256, Note_on_c, 0, 54, 0
5, 293280, Note_on_c, 0, 55, 76
5, 293736, Note_on_c, 0, 55, 0
5, 293760, Note_on_c, 0, 52, 75
5, 294216, Note_on_c, 0, 52, 0
5, 294240, Note_on_c, 0, 54, 75
5, 294696, Note_on_c, 0, 54, 0
5, 294720, Note_on_c, 0, 55, 74
5, 295176, Note_on_c, 0, 55, 0
5, 295200, Note_on_c, 0, 52, 73
5, 295656, Note_on_c, 0, 52, 0
5, 295680, Note_on_c, 0, 54, 73
5, 296136, Note_on_c, 0, 54, 0
5, 296160, Note_on_c, 0, 55, 72
5, 296616, Note_on_c, 0, 55, 0
5, 296640, Note_on_c, 0, 57, 71
5, 297096, Note_on_c, 0, 57, 0
5, 297120, Note_on_c, 0, 58, 71
5, 297548, Note_on_c, 0, 58, 0
5, 297600, Note_on_c, 0, 59, 70
5, 298028, Note_on_c, 0, 59, 0
5, 298080, Note_on_c, 0, 59, 69
5, 298508, Note_on_c, 0, 59, 0
5, 298560, Note_on_c, 0, 59, 69
5, 298988, Note_on_c, 0, 59, 0
5, 299040, Note_on_c, 0, 59, 68
5, 299468, Note_on_c, 0, 59, 0
5, 299520, Note_on_c, 0, 43, 81
5, 299976, Note_on_c, 0, 43, 0
5, 300000, Note_on_c, 0, 42, 81
5, 300456, Note_on_c, 0, 42, 0
5, 300480, Note_on_c, 0, 43, 80
5, 300936, Note_on_c, 0, 43, 0
5, 300960, Note_on_c, 0, 40, 79
5, 301416, Note_on_c, 0, 40, 0
5, 301440, Note_on_c, 0, 42, 78
5, 301896, Note_on_c, 0, 42, 0
5, 301920, Note_on_c, 0, 43, 77
5, 302376, Note_on_c, 0, 43, 0
5, 302400, Note_on_c, 0, 40, 76
5, 302856, Note_on_c, 0, 40, 0
5, 302880, Note_on_c, 0, 42, 76
5, 303336, Note_on_c, 0, 42, 0
5, 303360, Note_on_c, 0, 43, 75
5, 303816, Note_on_c, 0, 43, 0
5, 303840, Note_on_c, 0, 40, 74
5, 304296, Note_on_c, 0, 40, 0
5, 304320, Note_on_c, 0, 42, 73
5, 304776, Note_on_c, 0, 42, 0
5, 304800, Note_on_c, 0, 43, 72
5, 305256, Note_on_c, 0, 43, 0
5, 305280, Note_on_c, 0, 45, 72
5, 305736, Note_on_c, 0, 45, 0
5, 305760, Note_on_c, 0, 46, 71
5, 306188, Note_on_c, 0, 46, 0
5, 306240, Note_on_c, 0, 47, 70
5, 306668, Note_on_c, 0, 47, 0
5, 306720, Note_on_c, 0, 47, 69
5, 307680, Note_on_c, 0, 47, 0
5, 307680, Note_on_c, 0, 23, 67
5, 307680, Note_on_c, 0, 35, 67
5, 308160, Note_on_c, 0, 35, 0
5, 308160, Note_on_c, 0, 23, 0
5, 308160, Note_on_c, 0, 28, 88
5, 308160, Note_on_c, 0, 40, 88
5, 308316, Note_on_c, 0, 40, 0
5, 308316, Note_on_c, 0, 28, 0
5, 308400, Note_on_c, 0, 42, 91
5, 308400, Note_on_c, 0, 54, 91
5, 308556, Note_on_c, 0, 54, 0
5, 308556, Note_on_c, 0, 42, 0
5, 308640, Note_on_c, 0, 55, 95
5, 308640, Note_on_c, 0, 43, 95
5, 308796, Note_on_c, 0, 43, 0
5, 308796, Note_on_c, 0, 55, 0
5, 308880, Note_on_c, 0, 57, 98
5, 308880, Note_on_c, 0, 45, 98
5, 309036, Note_on_c, 0, 45, 0
5, 309036, Note_on_c, 0, 57, 0
5, 309120, Note_on_c, 0, 47, 108
5, 309120, Note_on_c, 0, 59, 108
5, 311040, Note_on_c, 0, 59, 0
5, 311040, Note_on_c, 0, 47, 0
5, 311040, Note_on_c, 0, 45, 77
5, 311040, Note_on_c, 0, 57, 77
5, 312480, Note_on_c, 0, 57, 0
5, 312480, Note_on_c, 0, 45, 0
5, 312480, Note_on_c, 0, 47, 70
5, 312480, Note_on_c, 0, 59, 70
5, 313920, Note_on_c, 0, 59, 0
5, 313920, Note_on_c, 0, 47, 0
5, 313920, Note_on_c, 0, 40, 85
5, 313920, Note_on_c, 0, 28, 85
5, 314076, Note_on_c, 0, 28, 0
5, 314076, Note_on_c, 0, 40, 0
5, 314160, Note_on_c, 0, 42, 89
5, 314160, Note_on_c, 0, 30, 89
5, 314316, Note_on_c, 0, 30, 0
5, 314316, Note_on_c, 0, 42, 0
5, 314400, Note_on_c, 0, 31, 93
5, 314400, Note_on_c, 0, 43, 93
5, 314556, Note_on_c, 0, 43, 0
5, 314556, Note_on_c, 0, 31, 0
5, 314640, Note_on_c, 0, 33, 95
5, 314640, Note_on_c, 0, 45, 95
5, 314796, Note_on_c, 0, 45, 0
5, 314796, Note_on_c, 0, 33, 0
5, 314880, Note_on_c, 0, 47, 104
5, 314880, Note_on_c, 0, 35, 104
5, 316800, Note_on_c, 0, 35, 0
5, 316800, Note_on_c, 0, 47, 0
5, 316800, Note_on_c, 0, 45, 66
5, 316800, Note_on_c, 0, 33, 66
5, 318240, Note_on_c, 0, 33, 0
5, 318240, Note_on_c, 0, 45, 0
5, 318240, Note_on_c, 0, 47, 62
5, 318240, Note_on_c, 0, 35, 62
5, 319680, Note_on_c, 0, 35, 0
5, 319680, Note_on_c, 0, 47, 0
5, 321120, Note_on_c, 0, 47, 56
5, 321120, Note_on_c, 0, 40, 56
5, 322560, Note_on_c, 0, 40, 0
5, 322560, Note_on_c, 0, 47, 0
5, 324000, Note_on_c, 0, 35, 49
5, 324000, Note_on_c, 0, 47, 49
5, 325440, Note_on_c, 0, 47, 0
5, 325440, Note_on_c, 0, 35, 0
5, 325440, Note_on_c, 0, 40, 46
5, 325920, Note_on_c, 0, 40, 0
5, 326880, Note_on_c, 0, 59, 62
5, 326880, Note_on_c, 0, 47, 62
5, 328320, Note_on_c, 0, 47, 0
5, 328320, Note_on_c, 0, 59, 0
5, 329760, Note_on_c, 0, 59, 56
5, 329760, Note_on_c, 0, 52, 56
5, 331200, Note_on_c, 0, 52, 0
5, 331200, Note_on_c, 0, 59, 0
5, 332640, Note_on_c, 0, 59, 49
5, 332640, Note_on_c, 0, 47, 49
5, 334080, Note_on_c, 0, 47, 0
5, 334080, Note_on_c, 0, 59, 0
5, 334080, Note_on_c, 0, 52, 46
5, 334560, Note_on_c, 0, 52, 0
5, 335520, Note_on_c, 0, 71, 50
5, 336960, Note_on_c, 0, 71, 0
5, 337920, Note_on_c, 0, 72, 66
5, 338880, Note_on_c, 0, 72, 0
5, 338880, Note_on_c, 0, 71, 61
5, 339360, Note_on_c, 0, 71, 0
5, 339360, Control_c, 0, 64, 0
5, 339360, Note_on_c, 0, 66, 73
5, 339840, Note_on_c, 0, 66, 0
5, 339840, Note_on_c, 0, 64, 79
5, 340560, Note_on_c, 0, 64, 0
5, 340560, Note_on_c, 0, 66, 71
5, 340800, Note_on_c, 0, 66, 0
5, 340800, Note_on_c, 0, 67, 68
5, 341280, Note_on_c, 0, 67, 0
5, 341280, Note_on_c, 0, 62, 63
5, 341640, Note_on_c, 0, 62, 0
5, 342240, Note_on_c, 0, 74, 54
5, 342720, Note_on_c, 0, 74, 0
5, 342720, Note_on_c, 0, 72, 66
5, 343440, Note_on_c, 0, 72, 0
5, 343440, Note_on_c, 0, 71, 57
5, 343680, Note_on_c, 0, 71, 0
5, 343680, Note_on_c, 0, 69, 54
5, 344040, Note_on_c, 0, 69, 0
5, 344160, Note_on_c, 0, 67, 48
5, 344520, Note_on_c, 0, 67, 0
5, 345120, Note_on_c, 0, 79, 55
5, 345600, Note_on_c, 0, 79, 0
5, 345600, Note_on_c, 0, 79, 69
5, 346320, Note_on_c, 0, 79, 0
5, 346320, Note_on_c, 0, 78, 61
5, 346560, Note_on_c, 0, 78, 0
5, 346560, Note_on_c, 0, 76, 58
5, 347040, Note_on_c, 0, 76, 0
5, 347040, Note_on_c, 0, 75, 53
5, 347760, Note_on_c, 0, 75, 0
5, 349440, Control_c, 0, 64, 0
5, 349920, Note_on_c, 0, 43, 56
5, 351360, Note_on_c, 0, 43, 0
5, 351360, Note_on_c, 0, 45, 60
5, 352296, Note_on_c, 0, 45, 0
5, 352320, Note_on_c, 0, 46, 64
5, 352800, Note_on_c, 0, 46, 0
5, 352800, Note_on_c, 0, 47, 67
5, 354240, Note_on_c, 0, 47, 0
5, 354240, Note_on_c, 0, 48, 61
5, 355200, Note_on_c, 0, 48, 0
5, 355200, Note_on_c, 0, 35, 60
5, 355440, Note_on_c, 0, 35, 0
5, 355440, Note_on_c, 0, 33, 61
5, 355680, Note_on_c, 0, 33, 0
5, 355680, Note_on_c, 0, 31, 62
5, 356640, Note_on_c, 0, 32, 66
5, 356652, Note_on_c, 0, 31, 0
5, 357120, Note_on_c, 0, 32, 0
5, 357120, Note_on_c, 0, 33, 68
5, 358080, Note_on_c, 0, 33, 0
5, 358080, Note_on_c, 0, 34, 65
5, 358560, Note_on_c, 0, 34, 0
5, 358560, Note_on_c, 0, 35, 62
5, 360000, Note_on_c, 0, 35, 0
5, 360000, Note_on_c, 0, 40, 55
5, 360480, Note_on_c, 0, 40, 0
5, 361440, Control_c, 0, 7, 122
5, 361440, Pitch_bend_c, 0, 8192
5, 361440, Control_c, 0, 1, 0
5, 361440, Control_c, 0, 64, 0
5, 361440, Control_c, 0, 93, 28
5, 361440, Control_c, 0, 91, 91
5, 361440, Control_c, 0, 10, 55
5, 361440, Control_c, 0, 0, 0
5, 361440, Control_c, 0, 32, 0
5, 361440, Program_c, 0, 0
5, 362400, Note_on_c, 0, 40, 55
5, 362880, Note_on_c, 0, 40, 0
5, 363360, Note_on_c, 0, 35, 53
5, 363840, Note_on_c, 0, 35, 0
5, 364320, Note_on_c, 0, 37, 51
5, 364560, Note_on_c, 0, 37, 0
5, 364800, Note_on_c, 0, 39, 50
5, 364956, Note_on_c, 0, 39, 0
5, 365040, Note_on_c, 0, 35, 50
5, 365196, Note_on_c, 0, 35, 0
5, 365280, Note_on_c, 0, 40, 52
5, 365400, Note_on_c, 0, 56, 52
5, 365520, Note_on_c, 0, 56, 0
5, 365520, Note_on_c, 0, 40, 0
5, 365520, Note_on_c, 0, 59, 54
5, 365640, Note_on_c, 0, 59, 0
5, 365640, Note_on_c, 0, 57, 56
5, 365760, Note_on_c, 0, 57, 0
5, 365760, Note_on_c, 0, 56, 57
5, 365880, Note_on_c, 0, 56, 0
5, 365880, Note_on_c, 0, 57, 59
5, 366000, Note_on_c, 0, 57, 0
5, 366000, Note_on_c, 0, 56, 61
5, 366120, Note_on_c, 0, 56, 0
5, 366120, Note_on_c, 0, 54, 62
5, 366240, Note_on_c, 0, 54, 0
5, 366240, Note_on_c, 0, 52, 65
5, 366480, Note_on_c, 0, 52, 0
5, 366480, Note_on_c, 0, 47, 64
5, 366720, Note_on_c, 0, 47, 0
5, 366720, Note_on_c, 0, 52, 62
5, 366960, Note_on_c, 0, 52, 0
5, 366960, Note_on_c, 0, 47, 61
5, 367200, Note_on_c, 0, 47, 0
5, 367200, Note_on_c, 0, 51, 60
5, 367440, Note_on_c, 0, 51, 0
5, 367440, Note_on_c, 0, 47, 58
5, 367632, Note_on_c, 0, 47, 0
5, 367680, Note_on_c, 0, 51, 57
5, 367872, Note_on_c, 0, 51, 0
5, 367920, Note_on_c, 0, 53, 55
5, 368112, Note_on_c, 0, 53, 0
5, 368160, Note_on_c, 0, 54, 54
5, 368400, Note_on_c, 0, 54, 0
5, 368400, Note_on_c, 0, 57, 56
5, 368640, Note_on_c, 0, 57, 0
5, 368640, Note_on_c, 0, 56, 59
5, 368880, Note_on_c, 0, 56, 0
5, 368880, Note_on_c, 0, 47, 63
5, 369120, Note_on_c, 0, 47, 0
5, 369120, Note_on_c, 0, 52, 62
5, 369480, Note_on_c, 0, 52, 0
5, 369480, Note_on_c, 0, 52, 59
5, 369600, Note_on_c, 0, 52, 0
5, 369600, Note_on_c, 0, 51, 59
5, 369960, Note_on_c, 0, 51, 0
5, 369960, Note_on_c, 0, 51, 62
5, 370080, Note_on_c, 0, 51, 0
5, 370080, Note_on_c, 0, 49, 63
5, 370440, Note_on_c, 0, 49, 0
5, 370440, Note_on_c, 0, 49, 66
5, 370560, Note_on_c, 0, 49, 0
5, 370560, Note_on_c, 0, 42, 67
5, 371040, Note_on_c, 0, 42, 0
5, 371040, Note_on_c, 0, 47, 64
5, 371520, Note_on_c, 0, 47, 0
5, 371520, Note_on_c, 0, 47, 61
5, 371760, Note_on_c, 0, 47, 0
5, 371760, Note_on_c, 0, 49, 60
5, 372000, Note_on_c, 0, 49, 0
5, 372000, Note_on_c, 0, 47, 62
5, 372360, Note_on_c, 0, 47, 0
5, 372360, Note_on_c, 0, 47, 65
5, 372480, Note_on_c, 0, 47, 0
5, 372480, Note_on_c, 0, 40, 67
5, 372960, Note_on_c, 0, 40, 0
5, 372960, Note_on_c, 0, 45, 64
5, 373440, Note_on_c, 0, 45, 0
5, 373440, Note_on_c, 0, 45, 60
5, 373680, Note_on_c, 0, 45, 0
5, 373680, Note_on_c, 0, 45, 58
5, 373920, Note_on_c, 0, 45, 0
5, 373920, Note_on_c, 0, 44, 59
5, 374160, Note_on_c, 0, 44, 0
5, 374160, Note_on_c, 0, 45, 60
5, 374400, Note_on_c, 0, 45, 0
5, 374400, Note_on_c, 0, 45, 62
5, 374640, Note_on_c, 0, 45, 0
5, 374640, Note_on_c, 0, 47, 64
5, 374880, Note_on_c, 0, 47, 0
5, 374880, Note_on_c, 0, 49, 65
5, 375120, Note_on_c, 0, 49, 0
5, 375120, Note_on_c, 0, 49, 67
5, 375360, Note_on_c, 0, 49, 0
5, 375360, Note_on_c, 0, 48, 70
5, 375600, Note_on_c, 0, 48, 0
5, 375600, Note_on_c, 0, 48, 72
5, 375840, Note_on_c, 0, 48, 0
5, 375840, Note_on_c, 0, 47, 71
5, 376080, Note_on_c, 0, 47, 0
5, 376080, Note_on_c, 0, 47, 67
5, 376320, Note_on_c, 0, 47, 0
5, 376320, Note_on_c, 0, 47, 63
5, 376560, Note_on_c, 0, 47, 0
5, 376560, Note_on_c, 0, 47, 59
5, 376800, Note_on_c, 0, 47, 0
5, 376800, Note_on_c, 0, 52, 56
5, 377160, Note_on_c, 0, 52, 0
5, 377160, Note_on_c, 0, 52, 58
5, 377280, Note_on_c, 0, 52, 0
5, 377280, Note_on_c, 0, 51, 59
5, 377640, Note_on_c, 0, 51, 0
5, 377640, Note_on_c, 0, 51, 61
5, 377760, Note_on_c, 0, 51, 0
5, 377760, Note_on_c, 0, 49, 62
5, 378120, Note_on_c, 0, 49, 0
5, 378120, Note_on_c, 0, 49, 65
5, 378240, Note_on_c, 0, 49, 0
5, 378240, Note_on_c, 0, 42, 67
5, 378720, Note_on_c, 0, 42, 0
5, 378720, Note_on_c, 0, 47, 64
5, 379200, Note_on_c, 0, 47, 0
5, 379200, Note_on_c, 0, 47, 63
5, 379440, Note_on_c, 0, 47, 0
5, 379440, Note_on_c, 0, 49, 59
5, 379680, Note_on_c, 0, 49, 0
5, 379680, Note_on_c, 0, 47, 61
5, 380040, Note_on_c, 0, 47, 0
5, 380040, Note_on_c, 0, 47, 65
5, 380160, Note_on_c, 0, 47, 0
5, 380160, Note_on_c, 0, 40, 66
5, 380640, Note_on_c, 0, 40, 0
5, 380640, Note_on_c, 0, 45, 64
5, 381120, Note_on_c, 0, 45, 0
5, 381120, Note_on_c, 0, 45, 61
5, 381360, Note_on_c, 0, 45, 0
5, 381360, Note_on_c, 0, 45, 59
5, 381600, Note_on_c, 0, 45, 0
5, 381600, Note_on_c, 0, 44, 61
5, 381840, Note_on_c, 0, 44, 0
5, 381840, Note_on_c, 0, 45, 63
5, 382032, Note_on_c, 0, 45, 0
5, 382080, Note_on_c, 0, 45, 65
5, 382272, Note_on_c, 0, 45, 0
5, 382320, Note_on_c, 0, 47, 67
5, 382512, Note_on_c, 0, 47, 0
5, 382560, Note_on_c, 0, 49, 69
5, 382800, Note_on_c, 0, 49, 0
5, 382800, Note_on_c, 0, 49, 71
5, 383040, Note_on_c, 0, 49, 0
5, 383040, Note_on_c, 0, 48, 72
5, 383280, Note_on_c, 0, 48, 0
5, 383280, Note_on_c, 0, 48, 77
5, 383520, Note_on_c, 0, 48, 0
5, 383520, Note_on_c, 0, 47, 73
5, 383760, Note_on_c, 0, 47, 0
5, 383760, Note_on_c, 0, 47, 71
5, 384000, Note_on_c, 0, 47, 0
5, 384000, Note_on_c, 0, 47, 69
5, 384240, Note_on_c, 0, 47, 0
5, 384240, Note_on_c, 0, 47, 67
5, 384480, Note_on_c, 0, 47, 0
5, 384480, Note_on_c, 0, 52, 64
5, 384600, Note_on_c, 0, 52, 0
5, 384600, Note_on_c, 0, 52, 63
5, 384720, Note_on_c, 0, 52, 0
5, 384720, Note_on_c, 0, 51, 62
5, 384840, Note_on_c, 0, 51, 0
5, 384840, Note_on_c, 0, 49, 61
5, 384960, Note_on_c, 0, 49, 0
5, 384960, Note_on_c, 0, 47, 60
5, 385080, Note_on_c, 0, 47, 0
5, 385080, Note_on_c, 0, 45, 59
5, 385200, Note_on_c, 0, 45, 0
5, 385200, Note_on_c, 0, 44, 58
5, 385320, Note_on_c, 0, 44, 0
5, 385320, Note_on_c, 0, 42, 57
5, 385440, Note_on_c, 0, 42, 0
5, 385440, Note_on_c, 0, 40, 57
5, 385920, Note_on_c, 0, 40, 0
5, 386400, Note_on_c, 0, 35, 55
5, 386880, Note_on_c, 0, 35, 0
5, 387360, Note_on_c, 0, 37, 52
5, 387600, Note_on_c, 0, 37, 0
5, 387840, Note_on_c, 0, 39, 51
5, 387996, Note_on_c, 0, 39, 0
5, 388080, Note_on_c, 0, 35, 50
5, 388236, Note_on_c, 0, 35, 0
5, 388320, Note_on_c, 0, 40, 50
5, 388560, Note_on_c, 0, 64, 52
5, 388800, Note_on_c, 0, 64, 0
5, 388800, Note_on_c, 0, 40, 0
5, 388800, Note_on_c, 0, 64, 54
5, 389040, Note_on_c, 0, 64, 0
5, 389040, Note_on_c, 0, 64, 56
5, 389280, Note_on_c, 0, 64, 0
5, 389280, Note_on_c, 0, 64, 58
5, 389520, Note_on_c, 0, 64, 0
5, 389520, Note_on_c, 0, 64, 60
5, 389760, Note_on_c, 0, 64, 0
5, 389760, Note_on_c, 0, 68, 63
5, 390000, Note_on_c, 0, 68, 0
5, 390000, Note_on_c, 0, 66, 62
5, 390240, Note_on_c, 0, 66, 0
5, 390240, Note_on_c, 0, 64, 60
5, 390480, Note_on_c, 0, 64, 0
5, 390480, Note_on_c, 0, 63, 63
5, 390636, Note_on_c, 0, 63, 0
5, 390720, Note_on_c, 0, 63, 68
5, 390876, Note_on_c, 0, 63, 0
5, 390960, Note_on_c, 0, 65, 72
5, 391116, Note_on_c, 0, 65, 0
5, 391200, Note_on_c, 0, 66, 77
5, 391440, Note_on_c, 0, 66, 0
5, 391440, Note_on_c, 0, 69, 82
5, 391680, Note_on_c, 0, 69, 0
5, 391680, Note_on_c, 0, 68, 87
5, 391920, Note_on_c, 0, 68, 0
5, 391920, Note_on_c, 0, 66, 91
5, 392160, Note_on_c, 0, 66, 0
5, 392160, Note_on_c, 0, 64, 93
5, 392280, Note_on_c, 0, 64, 0
5, 392280, Note_on_c, 0, 59, 88
5, 392400, Note_on_c, 0, 59, 0
5, 392400, Note_on_c, 0, 56, 85
5, 392520, Note_on_c, 0, 56, 0
5, 392520, Note_on_c, 0, 59, 83
5, 392640, Note_on_c, 0, 59, 0
5, 392640, Note_on_c, 0, 52, 79
5, 392760, Note_on_c, 0, 52, 0
5, 393120, Note_on_c, 0, 61, 97
5, 393240, Note_on_c, 0, 61, 0
5, 393240, Note_on_c, 0, 56, 92
5, 393360, Note_on_c, 0, 56, 0
5, 393360, Note_on_c, 0, 52, 88
5, 393480, Note_on_c, 0, 52, 0
5, 393480, Note_on_c, 0, 56, 85
5, 393600, Note_on_c, 0, 56, 0
5, 393600, Note_on_c, 0, 49, 80
5, 393720, Note_on_c, 0, 49, 0
5, 393840, Note_on_c, 0, 61, 77
5, 393960, Note_on_c, 0, 61, 0
5, 394080, Note_on_c, 0, 60, 81
5, 394200, Note_on_c, 0, 60, 0
5, 394200, Note_on_c, 0, 56, 72
5, 394320, Note_on_c, 0, 56, 0
5, 394320, Note_on_c, 0, 51, 71
5, 394440, Note_on_c, 0, 51, 0
5, 394440, Note_on_c, 0, 56, 69
5, 394560, Note_on_c, 0, 56, 0
5, 394560, Note_on_c, 0, 48, 67
5, 394680, Note_on_c, 0, 48, 0
5, 394800, Note_on_c, 0, 60, 94
5, 394920, Note_on_c, 0, 60, 0
5, 395040, Note_on_c, 0, 56, 98
5, 395160, Note_on_c, 0, 56, 0
5, 395160, Note_on_c, 0, 51, 92
5, 395280, Note_on_c, 0, 51, 0
5, 395280, Note_on_c, 0, 48, 88
5, 395400, Note_on_c, 0, 48, 0
5, 395400, Note_on_c, 0, 51, 84
5, 395520, Note_on_c, 0, 51, 0
5, 395520, Note_on_c, 0, 44, 80
5, 395640, Note_on_c, 0, 44, 0
5, 395760, Note_on_c, 0, 60, 72
5, 395880, Note_on_c, 0, 60, 0
5, 396000, Note_on_c, 0, 61, 77
5, 396120, Note_on_c, 0, 61, 0
5, 396120, Note_on_c, 0, 56, 71
5, 396240, Note_on_c, 0, 56, 0
5, 396240, Note_on_c, 0, 52, 68
5, 396360, Note_on_c, 0, 52, 0
5, 396360, Note_on_c, 0, 56, 66
5, 396480, Note_on_c, 0, 56, 0
5, 396480, Note_on_c, 0, 49, 63
5, 396600, Note_on_c, 0, 49, 0
5, 396720, Note_on_c, 0, 61, 90
5, 396840, Note_on_c, 0, 61, 0
5, 396960, Note_on_c, 0, 59, 95
5, 397080, Note_on_c, 0, 59, 0
5, 397080, Note_on_c, 0, 56, 89
5, 397200, Note_on_c, 0, 56, 0
5, 397200, Note_on_c, 0, 52, 87
5, 397320, Note_on_c, 0, 52, 0
5, 397320, Note_on_c, 0, 56, 83
5, 397440, Note_on_c, 0, 56, 0
5, 397440, Note_on_c, 0, 47, 79
5, 397560, Note_on_c, 0, 47, 0
5, 397680, Note_on_c, 0, 59, 69
5, 397800, Note_on_c, 0, 59, 0
5, 397920, Note_on_c, 0, 58, 73
5, 398040, Note_on_c, 0, 58, 0
5, 398040, Note_on_c, 0, 54, 67
5, 398160, Note_on_c, 0, 54, 0
5, 398160, Note_on_c, 0, 49, 65
5, 398280, Note_on_c, 0, 49, 0
5, 398280, Note_on_c, 0, 54, 62
5, 398400, Note_on_c, 0, 54, 0
5, 398400, Note_on_c, 0, 46, 59
5, 398520, Note_on_c, 0, 46, 0
5, 398640, Note_on_c, 0, 46, 86
5, 398760, Note_on_c, 0, 46, 0
5, 398880, Note_on_c, 0, 44, 94
5, 399000, Note_on_c, 0, 44, 0
5, 399000, Note_on_c, 0, 40, 90
5, 399120, Note_on_c, 0, 40, 0
5, 399120, Note_on_c, 0, 35, 88
5, 399240, Note_on_c, 0, 35, 0
5, 399240, Note_on_c, 0, 40, 86
5, 399360, Note_on_c, 0, 40, 0
5, 399360, Note_on_c, 0, 32, 84
5, 399480, Note_on_c, 0, 32, 0
5, 399600, Note_on_c, 0, 32, 82
5, 399600, Note_on_c, 0, 44, 82
5, 399720, Note_on_c, 0, 44, 0
5, 399720, Note_on_c, 0, 32, 0
5, 399840, Note_on_c, 0, 30, 77
5, 399840, Note_on_c, 0, 42, 77
5, 400080, Note_on_c, 0, 42, 0
5, 400080, Note_on_c, 0, 30, 0
5, 400800, Note_on_c, 0, 58, 60
5, 400800, Note_on_c, 0, 61, 60
5, 401520, Note_on_c, 0, 63, 64
5, 401520, Note_on_c, 0, 59, 64
5, 401540, Note_on_c, 0, 58, 0
5, 401584, Note_on_c, 0, 61, 0
5, 401760, Note_on_c, 0, 63, 0
5, 401760, Note_on_c, 0, 59, 0
5, 401760, Note_on_c, 0, 59, 66
5, 401760, Note_on_c, 0, 63, 66
5, 402000, Note_on_c, 0, 63, 0
5, 402000, Note_on_c, 0, 59, 0
5, 402000, Note_on_c, 0, 64, 68
5, 402000, Note_on_c, 0, 61, 68
5, 402240, Note_on_c, 0, 61, 0
5, 402240, Note_on_c, 0, 64, 0
5, 402240, Note_on_c, 0, 64, 65
5, 402240, Note_on_c, 0, 61, 65
5, 402480, Note_on_c, 0, 61, 0
5, 402480, Note_on_c, 0, 64, 0
5, 402480, Note_on_c, 0, 63, 62
5, 402480, Note_on_c, 0, 59, 62
5, 402720, Note_on_c, 0, 59, 0
5, 402720, Note_on_c, 0, 63, 0
5, 402720, Note_on_c, 0, 61, 60
5, 402720, Note_on_c, 0, 58, 60
5, 403440, Note_on_c, 0, 59, 62
5, 403440, Note_on_c, 0, 63, 62
5, 403460, Note_on_c, 0, 61, 0
5, 403482, Note_on_c, 0, 58, 0
5, 403680, Note_on_c, 0, 59, 0
5, 403680, Note_on_c, 0, 63, 0
5, 403680, Note_on_c, 0, 64, 63
5, 403680, Note_on_c, 0, 61, 63
5, 403920, Note_on_c, 0, 61, 0
5, 403920, Note_on_c, 0, 64, 0
5, 403920, Note_on_c, 0, 58, 64
5, 403920, Note_on_c, 0, 61, 64
5, 404160, Note_on_c, 0, 61, 0
5, 404160, Note_on_c, 0, 58, 0
5, 404160, Note_on_c, 0, 59, 65
5, 404160, Note_on_c, 0, 63, 65
5, 404400, Note_on_c, 0, 63, 0
5, 404400, Note_on_c, 0, 59, 0
5, 404400, Note_on_c, 0, 64, 66
5, 404400, Note_on_c, 0, 61, 66
5, 404640, Note_on_c, 0, 61, 0
5, 404640, Note_on_c, 0, 64, 0
5, 404640, Note_on_c, 0, 63, 69
5, 404640, Note_on_c, 0, 66, 69
5, 404880, Note_on_c, 0, 66, 0
5, 404880, Note_on_c, 0, 63, 0
5, 404880, Note_on_c, 0, 66, 67
5, 405120, Note_on_c, 0, 66, 0
5, 405120, Note_on_c, 0, 64, 66
5, 405360, Note_on_c, 0, 64, 0
5, 405360, Note_on_c, 0, 63, 65
5, 405600, Note_on_c, 0, 63, 0
5, 405600, Note_on_c, 0, 64, 63
5, 405840, Note_on_c, 0, 64, 0
5, 405840, Note_on_c, 0, 66, 62
5, 406080, Note_on_c, 0, 66, 0
5, 406080, Note_on_c, 0, 68, 61
5, 406320, Note_on_c, 0, 68, 0
5, 406320, Note_on_c, 0, 65, 60
5, 406560, Note_on_c, 0, 65, 0
5, 406560, Note_on_c, 0, 66, 58
5, 407520, Note_on_c, 0, 66, 0
5, 407520, Note_on_c, 0, 66, 55
5, 407760, Note_on_c, 0, 66, 0
5, 408480, Note_on_c, 0, 58, 54
5, 408480, Note_on_c, 0, 61, 54
5, 409200, Note_on_c, 0, 63, 58
5, 409200, Note_on_c, 0, 59, 58
5, 409242, Note_on_c, 0, 58, 0
5, 409264, Note_on_c, 0, 61, 0
5, 409440, Note_on_c, 0, 63, 0
5, 409440, Note_on_c, 0, 59, 0
5, 409440, Note_on_c, 0, 63, 59
5, 409440, Note_on_c, 0, 59, 59
5, 409680, Note_on_c, 0, 59, 0
5, 409680, Note_on_c, 0, 63, 0
5, 409680, Note_on_c, 0, 61, 61
5, 409680, Note_on_c, 0, 64, 61
5, 409920, Note_on_c, 0, 64, 0
5, 409920, Note_on_c, 0, 61, 0
5, 409920, Note_on_c, 0, 61, 58
5, 409920, Note_on_c, 0, 64, 58
5, 410160, Note_on_c, 0, 64, 0
5, 410160, Note_on_c, 0, 61, 0
5, 410160, Note_on_c, 0, 63, 56
5, 410160, Note_on_c, 0, 59, 56
5, 410400, Note_on_c, 0, 59, 0
5, 410400, Note_on_c, 0, 63, 0
5, 410400, Note_on_c, 0, 58, 54
5, 410400, Note_on_c, 0, 61, 54
5, 411120, Note_on_c, 0, 63, 58
5, 411120, Note_on_c, 0, 59, 58
5, 411140, Note_on_c, 0, 58, 0
5, 411184, Note_on_c, 0, 61, 0
5, 411360, Note_on_c, 0, 63, 0
5, 411360, Note_on_c, 0, 59, 0
5, 411360, Note_on_c, 0, 61, 60
5, 411360, Note_on_c, 0, 64, 60
5, 411600, Note_on_c, 0, 64, 0
5, 411600, Note_on_c, 0, 61, 0
5, 411600, Note_on_c, 0, 58, 61
5, 411600, Note_on_c, 0, 54, 61
5, 411840, Note_on_c, 0, 54, 0
5, 411840, Note_on_c, 0, 58, 0
5, 411840, Note_on_c, 0, 56, 60
5, 411840, Note_on_c, 0, 59, 60
5, 412080, Note_on_c, 0, 59, 0
5, 412080, Note_on_c, 0, 56, 0
5, 412080, Note_on_c, 0, 61, 59
5, 412080, Note_on_c, 0, 58, 59
5, 412320, Note_on_c, 0, 58, 0
5, 412320, Note_on_c, 0, 61, 0
5, 412320, Note_on_c, 0, 63, 58
5, 412320, Note_on_c, 0, 59, 58
5, 412560, Note_on_c, 0, 59, 0
5, 412560, Note_on_c, 0, 63, 0
5, 412560, Note_on_c, 0, 56, 57
5, 412560, Note_on_c, 0, 59, 57
5, 412800, Note_on_c, 0, 59, 0
5, 412800, Note_on_c, 0, 56, 0
5, 412800, Note_on_c, 0, 61, 56
5, 412800, Note_on_c, 0, 58, 56
5, 413040, Note_on_c, 0, 58, 0
5, 413040, Note_on_c, 0, 61, 0
5, 413040, Note_on_c, 0, 63, 55
5, 413040, Note_on_c, 0, 59, 55
5, 413280, Note_on_c, 0, 59, 0
5, 413280, Note_on_c, 0, 63, 0
5, 413280, Note_on_c, 0, 61, 54
5, 413280, Note_on_c, 0, 64, 54
5, 413520, Note_on_c, 0, 64, 0
5, 413520, Note_on_c, 0, 61, 0
5, 413520, Note_on_c, 0, 58, 53
5, 413520, Note_on_c, 0, 61, 53
5, 413760, Note_on_c, 0, 61, 0
5, 413760, Note_on_c, 0, 58, 0
5, 413760, Note_on_c, 0, 63, 52
5, 413760, Note_on_c, 0, 59, 52
5, 414000, Note_on_c, 0, 59, 0
5, 414000, Note_on_c, 0, 63, 0
5, 414000, Note_on_c, 0, 61, 51
5, 414000, Note_on_c, 0, 64, 51
5, 414240, Note_on_c, 0, 64, 0
5, 414240, Note_on_c, 0, 61, 0
5, 414240, Note_on_c, 0, 63, 50
5, 414480, Note_on_c, 0, 63, 0
5, 414480, Note_on_c, 0, 63, 49
5, 414720, Note_on_c, 0, 63, 0
5, 414720, Note_on_c, 0, 63, 48
5, 414960, Note_on_c, 0, 63, 0
5, 414960, Note_on_c, 0, 63, 47
5, 415200, Note_on_c, 0, 63, 0
5, 415200, Note_on_c, 0, 63, 46
5, 415440, Note_on_c, 0, 63, 0
5, 415800, Note_on_c, 0, 56, 48
5, 415920, Note_on_c, 0, 56, 0
5, 415920, Note_on_c, 0, 58, 49
5, 416040, Note_on_c, 0, 58, 0
5, 416040, Note_on_c, 0, 60, 49
5, 416160, Note_on_c, 0, 60, 0
5, 416160, Note_on_c, 0, 61, 50
5, 416280, Note_on_c, 0, 61, 0
5, 416280, Note_on_c, 0, 56, 50
5, 416400, Note_on_c, 0, 56, 0
5, 416400, Note_on_c, 0, 58, 51
5, 416520, Note_on_c, 0, 58, 0
5, 416520, Note_on_c, 0, 60, 51
5, 416600, Note_on_c, 0, 63, 52
5, 416640, Note_on_c, 0, 60, 0
5, 416640, Note_on_c, 0, 61, 52
5, 416660, Note_on_c, 0, 63, 0
5, 416760, Note_on_c, 0, 61, 0
5, 416760, Note_on_c, 0, 60, 53
5, 416880, Note_on_c, 0, 60, 0
5, 416880, Note_on_c, 0, 61, 53
5, 417000, Note_on_c, 0, 61, 0
5, 417000, Note_on_c, 0, 63, 54
5, 417120, Note_on_c, 0, 63, 0
5, 417120, Note_on_c, 0, 64, 56
5, 417240, Note_on_c, 0, 64, 0
5, 417240, Note_on_c, 0, 63, 57
5, 417360, Note_on_c, 0, 63, 0
5, 417360, Note_on_c, 0, 64, 58
5, 417480, Note_on_c, 0, 64, 0
5, 417480, Note_on_c, 0, 66, 58
5, 417600, Note_on_c, 0, 66, 0
5, 417600, Note_on_c, 0, 68, 59
5, 417720, Note_on_c, 0, 68, 0
5, 417720, Note_on_c, 0, 66, 60
5, 417840, Note_on_c, 0, 66, 0
5, 417840, Note_on_c, 0, 64, 61
5, 417960, Note_on_c, 0, 64, 0
5, 417960, Note_on_c, 0, 65, 62
5, 418080, Note_on_c, 0, 65, 0
5, 418080, Note_on_c, 0, 66, 63
5, 418320, Note_on_c, 0, 66, 0
5, 418560, Note_on_c, 0, 54, 56
5, 418800, Note_on_c, 0, 54, 0
5, 419040, Note_on_c, 0, 47, 54
5, 419520, Note_on_c, 0, 47, 0
5, 419520, Note_on_c, 0, 47, 55
5, 420000, Note_on_c, 0, 47, 0
5, 420000, Note_on_c, 0, 49, 57
5, 420480, Note_on_c, 0, 49, 0
5, 420480, Note_on_c, 0, 51, 58
5, 420960, Note_on_c, 0, 51, 0
5, 420960, Note_on_c, 0, 52, 59
5, 421440, Note_on_c, 0, 52, 0
5, 421440, Note_on_c, 0, 53, 60
5, 421920, Note_on_c, 0, 53, 0
5, 421920, Note_on_c, 0, 54, 61
5, 422400, Note_on_c, 0, 54, 0
5, 422400, Note_on_c, 0, 52, 62
5, 422880, Note_on_c, 0, 52, 0
5, 422880, Note_on_c, 0, 51, 63
5, 423240, Note_on_c, 0, 51, 0
5, 423240, Note_on_c, 0, 51, 63
5, 423360, Note_on_c, 0, 51, 0
5, 423360, Note_on_c, 0, 47, 63
5, 423720, Note_on_c, 0, 47, 0
5, 423720, Note_on_c, 0, 47, 66
5, 423840, Note_on_c, 0, 47, 0
5, 423840, Note_on_c, 0, 49, 67
5, 424200, Note_on_c, 0, 49, 0
5, 424200, Note_on_c, 0, 49, 70
5, 424320, Note_on_c, 0, 49, 0
5, 424320, Note_on_c, 0, 51, 70
5, 424680, Note_on_c, 0, 51, 0
5, 424680, Note_on_c, 0, 51, 73
5, 424800, Note_on_c, 0, 51, 0
5, 424800, Note_on_c, 0, 52, 74
5, 425160, Note_on_c, 0, 52, 0
5, 425160, Note_on_c, 0, 52, 77
5, 425280, Note_on_c, 0, 52, 0
5, 425280, Note_on_c, 0, 51, 77
5, 425640, Note_on_c, 0, 51, 0
5, 425640, Note_on_c, 0, 51, 80
5, 425760, Note_on_c, 0, 51, 0
5, 425760, Note_on_c, 0, 54, 81
5, 426120, Note_on_c, 0, 54, 0
5, 426120, Note_on_c, 0, 54, 84
5, 426240, Note_on_c, 0, 54, 0
5, 426240, Note_on_c, 0, 48, 88
5, 426720, Note_on_c, 0, 48, 0
5, 426720, Note_on_c, 0, 48, 87
5, 427200, Note_on_c, 0, 48, 0
5, 427200, Note_on_c, 0, 48, 79
5, 427680, Note_on_c, 0, 48, 0
5, 427680, Note_on_c, 0, 47, 70
5, 428160, Note_on_c, 0, 47, 0
5, 428160, Note_on_c, 0, 47, 62
5, 428640, Note_on_c, 0, 47, 0
5, 428640, Note_on_c, 0, 40, 57
5, 429120, Note_on_c, 0, 40, 0
5, 429600, Note_on_c, 0, 35, 54
5, 430080, Note_on_c, 0, 35, 0
5, 430560, Note_on_c, 0, 37, 52
5, 430800, Note_on_c, 0, 37, 0
5, 431040, Note_on_c, 0, 39, 50
5, 431196, Note_on_c, 0, 39, 0
5, 431280, Note_on_c, 0, 35, 50
5, 431436, Note_on_c, 0, 35, 0
5, 431520, Note_on_c, 0, 40, 52
5, 431640, Note_on_c, 0, 56, 52
5, 431760, Note_on_c, 0, 56, 0
5, 431760, Note_on_c, 0, 40, 0
5, 431760, Note_on_c, 0, 59, 53
5, 431880, Note_on_c, 0, 59, 0
5, 431880, Note_on_c, 0, 57, 55
5, 432000, Note_on_c, 0, 57, 0
5, 432000, Note_on_c, 0, 56, 57
5, 432120, Note_on_c, 0, 56, 0
5, 432120, Note_on_c, 0, 57, 59
5, 432240, Note_on_c, 0, 57, 0
5, 432240, Note_on_c, 0, 56, 60
5, 432360, Note_on_c, 0, 56, 0
5, 432360, Note_on_c, 0, 54, 62
5, 432480, Note_on_c, 0, 54, 0
5, 432480, Note_on_c, 0, 52, 65
5, 432720, Note_on_c, 0, 52, 0
5, 432720, Note_on_c, 0, 47, 64
5, 432960, Note_on_c, 0, 47, 0
5, 432960, Note_on_c, 0, 52, 62
5, 433200, Note_on_c, 0, 52, 0
5, 433200, Note_on_c, 0, 47, 61
5, 433440, Note_on_c, 0, 47, 0
5, 433440, Note_on_c, 0, 51, 60
5, 433680, Note_on_c, 0, 51, 0
5, 433680, Note_on_c, 0, 47, 58
5, 433872, Note_on_c, 0, 47, 0
5, 433920, Note_on_c, 0, 51, 57
5, 434112, Note_on_c, 0, 51, 0
5, 434160, Note_on_c, 0, 53, 55
5, 434352, Note_on_c, 0, 53, 0
5, 434400, Note_on_c, 0, 54, 57
5, 434640, Note_on_c, 0, 54, 0
5, 434640, Note_on_c, 0, 57, 59
5, 434880, Note_on_c, 0, 57, 0
5, 434880, Note_on_c, 0, 56, 61
5, 435120, Note_on_c, 0, 56, 0
5, 435120, Note_on_c, 0, 47, 63
5, 435360, Note_on_c, 0, 47, 0
5, 435360, Note_on_c, 0, 52, 62
5, 435720, Note_on_c, 0, 52, 0
5, 435720, Note_on_c, 0, 52, 60
5, 435840, Note_on_c, 0, 52, 0
5, 435840, Note_on_c, 0, 51, 61
5, 436200, Note_on_c, 0, 51, 0
5, 436200, Note_on_c, 0, 51, 64
5, 436320, Note_on_c, 0, 51, 0
5, 436320, Note_on_c, 0, 49, 64
5, 436680, Note_on_c, 0, 49, 0
5, 436680, Note_on_c, 0, 49, 67
5, 436800, Note_on_c, 0, 49, 0
5, 436800, Note_on_c, 0, 42, 70
5, 437280, Note_on_c, 0, 42, 0
5, 437280, Note_on_c, 0, 47, 65
5, 437760, Note_on_c, 0, 47, 0
5, 437760, Note_on_c, 0, 47, 60
5, 438000, Note_on_c, 0, 47, 0
5, 438000, Note_on_c, 0, 49, 61
5, 438240, Note_on_c, 0, 49, 0
5, 438240, Note_on_c, 0, 47, 63
5, 438600, Note_on_c, 0, 47, 0
5, 438600, Note_on_c, 0, 47, 67
5, 438720, Note_on_c, 0, 47, 0
5, 438720, Note_on_c, 0, 40, 68
5, 439200, Note_on_c, 0, 40, 0
5, 439200, Note_on_c, 0, 45, 65
5, 439680, Note_on_c, 0, 45, 0
5, 439680, Note_on_c, 0, 45, 60
5, 439920, Note_on_c, 0, 45, 0
5, 439920, Note_on_c, 0, 45, 58
5, 440160, Note_on_c, 0, 45, 0
5, 440160, Note_on_c, 0, 44, 58
5, 440400, Note_on_c, 0, 44, 0
5, 440400, Note_on_c, 0, 45, 59
5, 440640, Note_on_c, 0, 45, 0
5, 440640, Note_on_c, 0, 45, 61
5, 440880, Note_on_c, 0, 45, 0
5, 440880, Note_on_c, 0, 47, 62
5, 441120, Note_on_c, 0, 47, 0
5, 441120, Note_on_c, 0, 49, 64
5, 441360, Note_on_c, 0, 49, 0
5, 441360, Note_on_c, 0, 49, 65
5, 441600, Note_on_c, 0, 49, 0
5, 441600, Note_on_c, 0, 48, 67
5, 441840, Note_on_c, 0, 48, 0
5, 441840, Note_on_c, 0, 48, 68
5, 442080, Note_on_c, 0, 48, 0
5, 442080, Note_on_c, 0, 47, 71
5, 442320, Note_on_c, 0, 47, 0
5, 442320, Note_on_c, 0, 47, 67
5, 442560, Note_on_c, 0, 47, 0
5, 442560, Note_on_c, 0, 47, 63
5, 442800, Note_on_c, 0, 47, 0
5, 442800, Note_on_c, 0, 47, 59
5, 443040, Note_on_c, 0, 47, 0
5, 443040, Note_on_c, 0, 52, 59
5, 443400, Note_on_c, 0, 52, 0
5, 443400, Note_on_c, 0, 52, 61
5, 443520, Note_on_c, 0, 52, 0
5, 443520, Note_on_c, 0, 51, 62
5, 443880, Note_on_c, 0, 51, 0
5, 443880, Note_on_c, 0, 51, 65
5, 444000, Note_on_c, 0, 51, 0
5, 444000, Note_on_c, 0, 49, 66
5, 444360, Note_on_c, 0, 49, 0
5, 444360, Note_on_c, 0, 49, 69
5, 444480, Note_on_c, 0, 49, 0
5, 444480, Note_on_c, 0, 42, 71
5, 444960, Note_on_c, 0, 42, 0
5, 444960, Note_on_c, 0, 47, 68
5, 445440, Note_on_c, 0, 47, 0
5, 445440, Note_on_c, 0, 47, 63
5, 445680, Note_on_c, 0, 47, 0
5, 445680, Note_on_c, 0, 49, 62
5, 445920, Note_on_c, 0, 49, 0
5, 445920, Note_on_c, 0, 47, 64
5, 446280, Note_on_c, 0, 47, 0
5, 446280, Note_on_c, 0, 47, 69
5, 446400, Note_on_c, 0, 47, 0
5, 446400, Note_on_c, 0, 40, 70
5, 446880, Note_on_c, 0, 40, 0
5, 446880, Note_on_c, 0, 45, 67
5, 447360, Note_on_c, 0, 45, 0
5, 447360, Note_on_c, 0, 45, 61
5, 447600, Note_on_c, 0, 45, 0
5, 447600, Note_on_c, 0, 45, 58
5, 447840, Note_on_c, 0, 45, 0
5, 447840, Note_on_c, 0, 44, 60
5, 448080, Note_on_c, 0, 44, 0
5, 448080, Note_on_c, 0, 45, 63
5, 448320, Note_on_c, 0, 45, 0
5, 448320, Note_on_c, 0, 45, 66
5, 448560, Note_on_c, 0, 45, 0
5, 448560, Note_on_c, 0, 47, 68
5, 448800, Note_on_c, 0, 47, 0
5, 448800, Note_on_c, 0, 49, 71
5, 449040, Note_on_c, 0, 49, 0
5, 449040, Note_on_c, 0, 49, 72
5, 449280, Note_on_c, 0, 49, 0
5, 449280, Note_on_c, 0, 48, 74
5, 449520, Note_on_c, 0, 48, 0
5, 449520, Note_on_c, 0, 48, 77
5, 449760, Note_on_c, 0, 48, 0
5, 449760, Note_on_c, 0, 47, 73
5, 450000, Note_on_c, 0, 47, 0
5, 450000, Note_on_c, 0, 47, 71
5, 450240, Note_on_c, 0, 47, 0
5, 450240, Note_on_c, 0, 47, 69
5, 450480, Note_on_c, 0, 47, 0
5, 450480, Note_on_c, 0, 47, 67
5, 450720, Note_on_c, 0, 47, 0
5, 450720, Note_on_c, 0, 52, 64
5, 450840, Note_on_c, 0, 52, 0
5, 450840, Note_on_c, 0, 52, 63
5, 450960, Note_on_c, 0, 52, 0
5, 450960, Note_on_c, 0, 51, 62
5, 451080, Note_on_c, 0, 51, 0
5, 451080, Note_on_c, 0, 49, 61
5, 451200, Note_on_c, 0, 49, 0
5, 451200, Note_on_c, 0, 47, 60
5, 451320, Note_on_c, 0, 47, 0
5, 451320, Note_on_c, 0, 45, 59
5, 451440, Note_on_c, 0, 45, 0
5, 451440, Note_on_c, 0, 44, 58
5, 451560, Note_on_c, 0, 44, 0
5, 451560, Note_on_c, 0, 42, 57
5, 451680, Note_on_c, 0, 42, 0
5, 451680, Note_on_c, 0, 40, 57
5, 452160, Note_on_c, 0, 40, 0
5, 452640, Note_on_c, 0, 35, 55
5, 453120, Note_on_c, 0, 35, 0
5, 453600, Note_on_c, 0, 37, 52
5, 453840, Note_on_c, 0, 37, 0
5, 454080, Note_on_c, 0, 39, 51
5, 454236, Note_on_c, 0, 39, 0
5, 454320, Note_on_c, 0, 35, 50
5, 454476, Note_on_c, 0, 35, 0
5, 454560, Note_on_c, 0, 40, 50
5, 454800, Note_on_c, 0, 64, 50
5, 455040, Note_on_c, 0, 64, 0
5, 455040, Note_on_c, 0, 40, 0
5, 455040, Note_on_c, 0, 64, 52
5, 455280, Note_on_c, 0, 64, 0
5, 455280, Note_on_c, 0, 64, 54
5, 455520, Note_on_c, 0, 64, 0
5, 455520, Note_on_c, 0, 64, 56
5, 455760, Note_on_c, 0, 64, 0
5, 455760, Note_on_c, 0, 64, 57
5, 456000, Note_on_c, 0, 64, 0
5, 456000, Note_on_c, 0, 68, 63
5, 456240, Note_on_c, 0, 68, 0
5, 456240, Note_on_c, 0, 66, 62
5, 456480, Note_on_c, 0, 66, 0
5, 456480, Note_on_c, 0, 64, 60
5, 456720, Note_on_c, 0, 64, 0
5, 456720, Note_on_c, 0, 63, 61
5, 456912, Note_on_c, 0, 63, 0
5, 456960, Note_on_c, 0, 63, 65
5, 457152, Note_on_c, 0, 63, 0
5, 457200, Note_on_c, 0, 65, 69
5, 457392, Note_on_c, 0, 65, 0
5, 457440, Note_on_c, 0, 66, 74
5, 457680, Note_on_c, 0, 66, 0
5, 457680, Note_on_c, 0, 69, 78
5, 457920, Note_on_c, 0, 69, 0
5, 457920, Note_on_c, 0, 68, 82
5, 458160, Note_on_c, 0, 68, 0
5, 458160, Note_on_c, 0, 66, 89
5, 458400, Note_on_c, 0, 66, 0
5, 458400, Note_on_c, 0, 64, 88
5, 458640, Note_on_c, 0, 64, 0
5, 458640, Note_on_c, 0, 56, 78
5, 458880, Note_on_c, 0, 56, 0
5, 458880, Note_on_c, 0, 52, 72
5, 459120, Note_on_c, 0, 52, 0
5, 459120, Note_on_c, 0, 47, 56
5, 459360, Note_on_c, 0, 47, 0
5, 459360, Note_on_c, 0, 54, 61
5, 459600, Note_on_c, 0, 54, 0
5, 459600, Note_on_c, 0, 57, 63
5, 459840, Note_on_c, 0, 57, 0
5, 459840, Note_on_c, 0, 54, 64
5, 460080, Note_on_c, 0, 54, 0
5, 460080, Note_on_c, 0, 51, 66
5, 460320, Note_on_c, 0, 51, 0
5, 460320, Note_on_c, 0, 52, 68
5, 460560, Note_on_c, 0, 52, 0
5, 460560, Note_on_c, 0, 64, 70
5, 460800, Note_on_c, 0, 64, 0
5, 460800, Note_on_c, 0, 64, 72
5, 461040, Note_on_c, 0, 64, 0
5, 461040, Note_on_c, 0, 64, 74
5, 461280, Note_on_c, 0, 64, 0
5, 461280, Note_on_c, 0, 66, 75
5, 461520, Note_on_c, 0, 66, 0
5, 461520, Note_on_c, 0, 69, 77
5, 461760, Note_on_c, 0, 69, 0
5, 461760, Note_on_c, 0, 67, 79
5, 462000, Note_on_c, 0, 67, 0
5, 462000, Note_on_c, 0, 66, 81
5, 462240, Note_on_c, 0, 66, 0
5, 462240, Note_on_c, 0, 64, 81
5, 462480, Note_on_c, 0, 64, 0
5, 462480, Note_on_c, 0, 55, 77
5, 462720, Note_on_c, 0, 55, 0
5, 462720, Note_on_c, 0, 52, 72
5, 462960, Note_on_c, 0, 52, 0
5, 462960, Note_on_c, 0, 47, 68
5, 463200, Note_on_c, 0, 47, 0
5, 463200, Note_on_c, 0, 54, 66
5, 463440, Note_on_c, 0, 54, 0
5, 463440, Note_on_c, 0, 57, 68
5, 463680, Note_on_c, 0, 57, 0
5, 463680, Note_on_c, 0, 55, 71
5, 463920, Note_on_c, 0, 55, 0
5, 463920, Note_on_c, 0, 54, 73
5, 464160, Note_on_c, 0, 54, 0
5, 464160, Note_on_c, 0, 52, 76
5, 464400, Note_on_c, 0, 52, 0
5, 464400, Note_on_c, 0, 50, 78
5, 464640, Note_on_c, 0, 50, 0
5, 464640, Note_on_c, 0, 48, 80
5, 464880, Note_on_c, 0, 48, 0
5, 464880, Note_on_c, 0, 47, 83
5, 465120, Note_on_c, 0, 47, 0
5, 465120, Note_on_c, 0, 45, 85
5, 465360, Note_on_c, 0, 45, 0
5, 465360, Note_on_c, 0, 43, 87
5, 465600, Note_on_c, 0, 43, 0
5, 465600, Note_on_c, 0, 41, 90
5, 465840, Note_on_c, 0, 41, 0
5, 465840, Note_on_c, 0, 40, 92
5, 466080, Note_on_c, 0, 40, 0
5, 466080, Note_on_c, 0, 38, 94
5, 466320, Note_on_c, 0, 38, 0
5, 466320, Note_on_c, 0, 36, 97
5, 466560, Note_on_c, 0, 36, 0
5, 466560, Note_on_c, 0, 35, 99
5, 466800, Note_on_c, 0, 35, 0
5, 466800, Note_on_c, 0, 33, 102
5, 467040, Note_on_c, 0, 33, 0
5, 467040, Note_on_c, 0, 31, 103
5, 467280, Note_on_c, 0, 31, 0
5, 467280, Note_on_c, 0, 35, 99
5, 467520, Note_on_c, 0, 35, 0
5, 467520, Note_on_c, 0, 38, 96
5, 467760, Note_on_c, 0, 38, 0
5, 467760, Note_on_c, 0, 42, 92
5, 468000, Note_on_c, 0, 42, 0
5, 468000, Note_on_c, 0, 43, 89
5, 468240, Note_on_c, 0, 43, 0
5, 468240, Note_on_c, 0, 47, 85
5, 468480, Note_on_c, 0, 47, 0
5, 468480, Note_on_c, 0, 50, 81
5, 468720, Note_on_c, 0, 50, 0
5, 468720, Note_on_c, 0, 54, 78
5, 468960, Note_on_c, 0, 54, 0
5, 468960, Note_on_c, 0, 55, 75
5, 469200, Note_on_c, 0, 55, 0
5, 469200, Note_on_c, 0, 57, 71
5, 469440, Note_on_c, 0, 57, 0
5, 469440, Note_on_c, 0, 59, 68
5, 469680, Note_on_c, 0, 59, 0
5, 469680, Note_on_c, 0, 60, 65
5, 469920, Note_on_c, 0, 60, 0
5, 469920, Note_on_c, 0, 65, 61
5, 470160, Note_on_c, 0, 65, 0
5, 470160, Note_on_c, 0, 66, 58
5, 470400, Note_on_c, 0, 66, 0
5, 470400, Note_on_c, 0, 67, 54
5, 470640, Note_on_c, 0, 67, 0
5, 470640, Note_on_c, 0, 55, 51
5, 470880, Note_on_c, 0, 55, 0
5, 470880, Note_on_c, 0, 48, 50
5, 471360, Note_on_c, 0, 48, 0
5, 471360, Note_on_c, 0, 48, 51
5, 471840, Note_on_c, 0, 48, 0
5, 471840, Note_on_c, 0, 50, 53
5, 472320, Note_on_c, 0, 50, 0
5, 472320, Note_on_c, 0, 52, 54
5, 472800, Note_on_c, 0, 52, 0
5, 472800, Note_on_c, 0, 53, 56
5, 473280, Note_on_c, 0, 53, 0
5, 473280, Note_on_c, 0, 54, 57
5, 473760, Note_on_c, 0, 54, 0
5, 473760, Note_on_c, 0, 55, 59
5, 474720, Note_on_c, 0, 55, 0
5, 474720, Note_on_c, 0, 48, 62
5, 475200, Note_on_c, 0, 48, 0
5, 475200, Note_on_c, 0, 48, 63
5, 475560, Note_on_c, 0, 48, 0
5, 475560, Note_on_c, 0, 48, 64
5, 475680, Note_on_c, 0, 48, 0
5, 475680, Note_on_c, 0, 50, 64
5, 476040, Note_on_c, 0, 50, 0
5, 476040, Note_on_c, 0, 50, 65
5, 476160, Note_on_c, 0, 50, 0
5, 476160, Note_on_c, 0, 51, 66
5, 476520, Note_on_c, 0, 51, 0
5, 476520, Note_on_c, 0, 51, 67
5, 476640, Note_on_c, 0, 51, 0
5, 476640, Note_on_c, 0, 53, 67
5, 477000, Note_on_c, 0, 53, 0
5, 477000, Note_on_c, 0, 53, 68
5, 477120, Note_on_c, 0, 53, 0
5, 477120, Note_on_c, 0, 54, 69
5, 477480, Note_on_c, 0, 54, 0
5, 477480, Note_on_c, 0, 54, 69
5, 477600, Note_on_c, 0, 54, 0
5, 477600, Note_on_c, 0, 55, 70
5, 477960, Note_on_c, 0, 55, 0
5, 477960, Note_on_c, 0, 55, 71
5, 478080, Note_on_c, 0, 55, 0
5, 478080, Note_on_c, 0, 56, 72
5, 478320, Note_on_c, 0, 60, 67
5, 478560, Note_on_c, 0, 60, 0
5, 478560, Note_on_c, 0, 56, 0
5, 478560, Note_on_c, 0, 49, 74
5, 479040, Note_on_c, 0, 49, 0
5, 479040, Note_on_c, 0, 49, 76
5, 479520, Note_on_c, 0, 49, 0
5, 479520, Note_on_c, 0, 51, 77
5, 480000, Note_on_c, 0, 51, 0
5, 480000, Note_on_c, 0, 52, 78
5, 480480, Note_on_c, 0, 52, 0
5, 480480, Note_on_c, 0, 54, 79
5, 480960, Note_on_c, 0, 54, 0
5, 480960, Note_on_c, 0, 55, 81
5, 481440, Note_on_c, 0, 55, 0
5, 481440, Note_on_c, 0, 56, 82
5, 481920, Note_on_c, 0, 56, 0
5, 481920, Note_on_c, 0, 56, 83
5, 482400, Note_on_c, 0, 56, 0
5, 482400, Note_on_c, 0, 49, 85
5, 482880, Note_on_c, 0, 49, 0
5, 482880, Note_on_c, 0, 49, 86
5, 483240, Note_on_c, 0, 49, 0
5, 483240, Note_on_c, 0, 49, 87
5, 483360, Note_on_c, 0, 49, 0
5, 483360, Note_on_c, 0, 51, 87
5, 483720, Note_on_c, 0, 51, 0
5, 483720, Note_on_c, 0, 51, 88
5, 483840, Note_on_c, 0, 51, 0
5, 483840, Note_on_c, 0, 53, 89
5, 484200, Note_on_c, 0, 53, 0
5, 484200, Note_on_c, 0, 53, 90
5, 484320, Note_on_c, 0, 53, 0
5, 484320, Note_on_c, 0, 54, 90
5, 484680, Note_on_c, 0, 54, 0
5, 484680, Note_on_c, 0, 54, 91
5, 484800, Note_on_c, 0, 54, 0
5, 484800, Note_on_c, 0, 54, 91
5, 485160, Note_on_c, 0, 54, 0
5, 485160, Note_on_c, 0, 54, 92
5, 485280, Note_on_c, 0, 54, 0
5, 485280, Note_on_c, 0, 54, 92
5, 485640, Note_on_c, 0, 54, 0
5, 485640, Note_on_c, 0, 54, 93
5, 485760, Note_on_c, 0, 54, 0
5, 485760, Note_on_c, 0, 52, 94
5, 486120, Note_on_c, 0, 52, 0
5, 486120, Note_on_c, 0, 52, 95
5, 486240, Note_on_c, 0, 52, 0
5, 486240, Note_on_c, 0, 51, 95
5, 486480, Note_on_c, 0, 51, 0
5, 486480, Note_on_c, 0, 57, 94
5, 486600, Note_on_c, 0, 57, 0
5, 486600, Note_on_c, 0, 60, 93
5, 486720, Note_on_c, 0, 60, 0
5, 486720, Note_on_c, 0, 59, 92
5, 486840, Note_on_c, 0, 59, 0
5, 486840, Note_on_c, 0, 58, 91
5, 486960, Note_on_c, 0, 58, 0
5, 486960, Note_on_c, 0, 59, 90
5, 487080, Note_on_c, 0, 59, 0
5, 487080, Note_on_c, 0, 54, 88
5, 487200, Note_on_c, 0, 54, 0
5, 487200, Note_on_c, 0, 51, 87
5, 487320, Note_on_c, 0, 51, 0
5, 487320, Note_on_c, 0, 49, 86
5, 487440, Note_on_c, 0, 49, 0
5, 487440, Note_on_c, 0, 51, 85
5, 487560, Note_on_c, 0, 51, 0
5, 487560, Note_on_c, 0, 47, 85
5, 487680, Note_on_c, 0, 47, 0
5, 487680, Note_on_c, 0, 51, 83
5, 487800, Note_on_c, 0, 51, 0
5, 487920, Note_on_c, 0, 54, 79
5, 488040, Note_on_c, 0, 54, 0
5, 488400, Note_on_c, 0, 57, 82
5, 488520, Note_on_c, 0, 57, 0
5, 488520, Note_on_c, 0, 60, 82
5, 488640, Note_on_c, 0, 60, 0
5, 488640, Note_on_c, 0, 59, 81
5, 488760, Note_on_c, 0, 59, 0
5, 488760, Note_on_c, 0, 58, 80
5, 488880, Note_on_c, 0, 58, 0
5, 488880, Note_on_c, 0, 59, 80
5, 489000, Note_on_c, 0, 59, 0
5, 489000, Note_on_c, 0, 54, 79
5, 489120, Note_on_c, 0, 54, 0
5, 489120, Note_on_c, 0, 51, 78
5, 489240, Note_on_c, 0, 51, 0
5, 489240, Note_on_c, 0, 49, 77
5, 489360, Note_on_c, 0, 49, 0
5, 489360, Note_on_c, 0, 51, 77
5, 489480, Note_on_c, 0, 51, 0
5, 489480, Note_on_c, 0, 47, 76
5, 489600, Note_on_c, 0, 47, 0
5, 489600, Note_on_c, 0, 51, 75
5, 489720, Note_on_c, 0, 51, 0
5, 489840, Note_on_c, 0, 54, 72
5, 489960, Note_on_c, 0, 54, 0
5, 490320, Note_on_c, 0, 57, 71
5, 490440, Note_on_c, 0, 57, 0
5, 490440, Note_on_c, 0, 60, 70
5, 490560, Note_on_c, 0, 60, 0
5, 490560, Note_on_c, 0, 59, 70
5, 490680, Note_on_c, 0, 59, 0
5, 490680, Note_on_c, 0, 58, 69
5, 490800, Note_on_c, 0, 58, 0
5, 490800, Note_on_c, 0, 59, 68
5, 490920, Note_on_c, 0, 59, 0
5, 490920, Note_on_c, 0, 54, 67
5, 491040, Note_on_c, 0, 54, 0
5, 491040, Note_on_c, 0, 51, 67
5, 491160, Note_on_c, 0, 51, 0
5, 491160, Note_on_c, 0, 49, 66
5, 491280, Note_on_c, 0, 49, 0
5, 491280, Note_on_c, 0, 51, 65
5, 491400, Note_on_c, 0, 51, 0
5, 491400, Note_on_c, 0, 47, 65
5, 491520, Note_on_c, 0, 47, 0
5, 491520, Note_on_c, 0, 51, 64
5, 491640, Note_on_c, 0, 51, 0
5, 491640, Note_on_c, 0, 49, 63
5, 491760, Note_on_c, 0, 49, 0
5, 491760, Note_on_c, 0, 51, 62
5, 491880, Note_on_c, 0, 51, 0
5, 491880, Note_on_c, 0, 54, 62
5, 492000, Note_on_c, 0, 54, 0
5, 492000, Note_on_c, 0, 57, 72
5, 492240, Note_on_c, 0, 51, 71
5, 492480, Note_on_c, 0, 51, 0
5, 492480, Note_on_c, 0, 54, 69
5, 492720, Note_on_c, 0, 54, 0
5, 492720, Note_on_c, 0, 59, 67
5, 492742, Note_on_c, 0, 57, 0
5, 492960, Note_on_c, 0, 59, 0
5, 492960, Note_on_c, 0, 57, 72
5, 493200, Note_on_c, 0, 51, 64
5, 493440, Note_on_c, 0, 51, 0
5, 493440, Note_on_c, 0, 54, 62
5, 493680, Note_on_c, 0, 54, 0
5, 493680, Note_on_c, 0, 59, 60
5, 493702, Note_on_c, 0, 57, 0
5, 493920, Note_on_c, 0, 59, 0
5, 493920, Note_on_c, 0, 57, 72
5, 494160, Note_on_c, 0, 51, 64
5, 494400, Note_on_c, 0, 51, 0
5, 494400, Note_on_c, 0, 54, 62
5, 494640, Note_on_c, 0, 54, 0
5, 494640, Note_on_c, 0, 59, 61
5, 494662, Note_on_c, 0, 57, 0
5, 494880, Note_on_c, 0, 59, 0
5, 495000, Note_on_c, 0, 57, 56
5, 495120, Note_on_c, 0, 57, 0
5, 495120, Note_on_c, 0, 59, 54
5, 495240, Note_on_c, 0, 59, 0
5, 495240, Note_on_c, 0, 57, 53
5, 495360, Note_on_c, 0, 57, 0
5, 495360, Note_on_c, 0, 56, 52
5, 495480, Note_on_c, 0, 56, 0
5, 495480, Note_on_c, 0, 57, 53
5, 495600, Note_on_c, 0, 57, 0
5, 495600, Note_on_c, 0, 56, 55
5, 495720, Note_on_c, 0, 56, 0
5, 495720, Note_on_c, 0, 54, 57
5, 495840, Note_on_c, 0, 54, 0
5, 495840, Note_on_c, 0, 40, 55
5, 496320, Note_on_c, 0, 40, 0
5, 496800, Note_on_c, 0, 35, 53
5, 497280, Note_on_c, 0, 35, 0
5, 497760, Note_on_c, 0, 37, 51
5, 498000, Note_on_c, 0, 37, 0
5, 498240, Note_on_c, 0, 39, 50
5, 498396, Note_on_c, 0, 39, 0
5, 498480, Note_on_c, 0, 35, 50
5, 498636, Note_on_c, 0, 35, 0
5, 498720, Note_on_c, 0, 40, 52
5, 498840, Note_on_c, 0, 56, 52
5, 498960, Note_on_c, 0, 56, 0
5, 498960, Note_on_c, 0, 40, 0
5, 498960, Note_on_c, 0, 59, 53
5, 499080, Note_on_c, 0, 59, 0
5, 499080, Note_on_c, 0, 57, 55
5, 499200, Note_on_c, 0, 57, 0
5, 499200, Note_on_c, 0, 56, 56
5, 499320, Note_on_c, 0, 56, 0
5, 499320, Note_on_c, 0, 57, 58
5, 499440, Note_on_c, 0, 57, 0
5, 499440, Note_on_c, 0, 56, 59
5, 499560, Note_on_c, 0, 56, 0
5, 499560, Note_on_c, 0, 54, 61
5, 499680, Note_on_c, 0, 54, 0
5, 499680, Note_on_c, 0, 52, 65
5, 499920, Note_on_c, 0, 52, 0
5, 499920, Note_on_c, 0, 47, 64
5, 500160, Note_on_c, 0, 47, 0
5, 500160, Note_on_c, 0, 52, 62
5, 500400, Note_on_c, 0, 52, 0
5, 500400, Note_on_c, 0, 47, 61
5, 500640, Note_on_c, 0, 47, 0
5, 500640, Note_on_c, 0, 51, 60
5, 500880, Note_on_c, 0, 51, 0
5, 500880, Note_on_c, 0, 47, 58
5, 501072, Note_on_c, 0, 47, 0
5, 501120, Note_on_c, 0, 51, 57
5, 501312, Note_on_c, 0, 51, 0
5, 501360, Note_on_c, 0, 53, 57
5, 501552, Note_on_c, 0, 53, 0
5, 501600, Note_on_c, 0, 54, 59
5, 501840, Note_on_c, 0, 54, 0
5, 501840, Note_on_c, 0, 57, 61
5, 502080, Note_on_c, 0, 57, 0
5, 502080, Note_on_c, 0, 56, 63
5, 502320, Note_on_c, 0, 56, 0
5, 502320, Note_on_c, 0, 47, 65
5, 502560, Note_on_c, 0, 47, 0
5, 502560, Note_on_c, 0, 52, 62
5, 502920, Note_on_c, 0, 52, 0
5, 502920, Note_on_c, 0, 52, 56
5, 503040, Note_on_c, 0, 52, 0
5, 503040, Note_on_c, 0, 51, 57
5, 503400, Note_on_c, 0, 51, 0
5, 503400, Note_on_c, 0, 51, 61
5, 503520, Note_on_c, 0, 51, 0
5, 503520, Note_on_c, 0, 49, 62
5, 503880, Note_on_c, 0, 49, 0
5, 503880, Note_on_c, 0, 49, 66
5, 504000, Note_on_c, 0, 49, 0
5, 504000, Note_on_c, 0, 42, 66
5, 504480, Note_on_c, 0, 42, 0
5, 504480, Note_on_c, 0, 47, 66
5, 504960, Note_on_c, 0, 47, 0
5, 504960, Note_on_c, 0, 47, 60
5, 505200, Note_on_c, 0, 47, 0
5, 505200, Note_on_c, 0, 49, 61
5, 505440, Note_on_c, 0, 49, 0
5, 505440, Note_on_c, 0, 47, 63
5, 505800, Note_on_c, 0, 47, 0
5, 505800, Note_on_c, 0, 47, 66
5, 505920, Note_on_c, 0, 47, 0
5, 505920, Note_on_c, 0, 40, 67
5, 506400, Note_on_c, 0, 40, 0
5, 506400, Note_on_c, 0, 45, 65
5, 506880, Note_on_c, 0, 45, 0
5, 506880, Note_on_c, 0, 45, 60
5, 507120, Note_on_c, 0, 45, 0
5, 507120, Note_on_c, 0, 45, 58
5, 507360, Note_on_c, 0, 45, 0
5, 507360, Note_on_c, 0, 44, 58
5, 507600, Note_on_c, 0, 44, 0
5, 507600, Note_on_c, 0, 45, 61
5, 507840, Note_on_c, 0, 45, 0
5, 507840, Note_on_c, 0, 45, 63
5, 508080, Note_on_c, 0, 45, 0
5, 508080, Note_on_c, 0, 47, 65
5, 508320, Note_on_c, 0, 47, 0
5, 508320, Note_on_c, 0, 49, 68
5, 508560, Note_on_c, 0, 49, 0
5, 508560, Note_on_c, 0, 49, 70
5, 508800, Note_on_c, 0, 49, 0
5, 508800, Note_on_c, 0, 48, 72
5, 509040, Note_on_c, 0, 48, 0
5, 509040, Note_on_c, 0, 48, 73
5, 509280, Note_on_c, 0, 48, 0
5, 509280, Note_on_c, 0, 47, 70
5, 509520, Note_on_c, 0, 47, 0
5, 509520, Note_on_c, 0, 47, 66
5, 509760, Note_on_c, 0, 47, 0
5, 509760, Note_on_c, 0, 47, 63
5, 510000, Note_on_c, 0, 47, 0
5, 510000, Note_on_c, 0, 47, 59
5, 510240, Note_on_c, 0, 47, 0
5, 510240, Note_on_c, 0, 52, 56
5, 510600, Note_on_c, 0, 52, 0
5, 510600, Note_on_c, 0, 52, 58
5, 510720, Note_on_c, 0, 52, 0
5, 510720, Note_on_c, 0, 51, 59
5, 511080, Note_on_c, 0, 51, 0
5, 511080, Note_on_c, 0, 51, 63
5, 511200, Note_on_c, 0, 51, 0
5, 511200, Note_on_c, 0, 49, 64
5, 511560, Note_on_c, 0, 49, 0
5, 511560, Note_on_c, 0, 49, 67
5, 511680, Note_on_c, 0, 49, 0
5, 511680, Note_on_c, 0, 42, 69
5, 512160, Note_on_c, 0, 42, 0
5, 512160, Note_on_c, 0, 47, 69
5, 512640, Note_on_c, 0, 47, 0
5, 512640, Note_on_c, 0, 47, 63
5, 512880, Note_on_c, 0, 47, 0
5, 512880, Note_on_c, 0, 49, 61
5, 513120, Note_on_c, 0, 49, 0
5, 513120, Note_on_c, 0, 47, 64
5, 513480, Note_on_c, 0, 47, 0
5, 513480, Note_on_c, 0, 47, 68
5, 513600, Note_on_c, 0, 47, 0
5, 513600, Note_on_c, 0, 40, 70
5, 514080, Note_on_c, 0, 40, 0
5, 514080, Note_on_c, 0, 45, 67
5, 514560, Note_on_c, 0, 45, 0
5, 514560, Note_on_c, 0, 45, 61
5, 514800, Note_on_c, 0, 45, 0
5, 514800, Note_on_c, 0, 45, 59
5, 515040, Note_on_c, 0, 45, 0
5, 515040, Note_on_c, 0, 44, 61
5, 515280, Note_on_c, 0, 44, 0
5, 515280, Note_on_c, 0, 45, 63
5, 515520, Note_on_c, 0, 45, 0
5, 515520, Note_on_c, 0, 45, 65
5, 515760, Note_on_c, 0, 45, 0
5, 515760, Note_on_c, 0, 47, 67
5, 516000, Note_on_c, 0, 47, 0
5, 516000, Note_on_c, 0, 49, 69
5, 516240, Note_on_c, 0, 49, 0
5, 516240, Note_on_c, 0, 49, 70
5, 516480, Note_on_c, 0, 49, 0
5, 516480, Note_on_c, 0, 48, 72
5, 516720, Note_on_c, 0, 48, 0
5, 516720, Note_on_c, 0, 48, 77
5, 516960, Note_on_c, 0, 48, 0
5, 516960, Note_on_c, 0, 47, 73
5, 517200, Note_on_c, 0, 47, 0
5, 517200, Note_on_c, 0, 47, 71
5, 517440, Note_on_c, 0, 47, 0
5, 517440, Note_on_c, 0, 47, 69
5, 517680, Note_on_c, 0, 47, 0
5, 517680, Note_on_c, 0, 47, 67
5, 517920, Note_on_c, 0, 47, 0
5, 517920, Note_on_c, 0, 52, 64
5, 518040, Note_on_c, 0, 52, 0
5, 518040, Note_on_c, 0, 52, 63
5, 518160, Note_on_c, 0, 52, 0
5, 518160, Note_on_c, 0, 51, 62
5, 518280, Note_on_c, 0, 51, 0
5, 518280, Note_on_c, 0, 49, 61
5, 518400, Note_on_c, 0, 49, 0
5, 518400, Note_on_c, 0, 47, 60
5, 518520, Note_on_c, 0, 47, 0
5, 518520, Note_on_c, 0, 45, 59
5, 518640, Note_on_c, 0, 45, 0
5, 518640, Note_on_c, 0, 44, 58
5, 518760, Note_on_c, 0, 44, 0
5, 518760, Note_on_c, 0, 42, 57
5, 518880, Note_on_c, 0, 42, 0
5, 518880, Note_on_c, 0, 40, 57
5, 519360, Note_on_c, 0, 40, 0
5, 519840, Note_on_c, 0, 35, 55
5, 520320, Note_on_c, 0, 35, 0
5, 520800, Note_on_c, 0, 37, 52
5, 521040, Note_on_c, 0, 37, 0
5, 521280, Note_on_c, 0, 39, 51
5, 521436, Note_on_c, 0, 39, 0
5, 521520, Note_on_c, 0, 35, 50
5, 521676, Note_on_c, 0, 35, 0
5, 521760, Note_on_c, 0, 40, 50
5, 522000, Note_on_c, 0, 64, 50
5, 522217, Note_on_c, 0, 64, 0
5, 522217, Note_on_c, 0, 40, 0
5, 522240, Note_on_c, 0, 64, 52
5, 522480, Note_on_c, 0, 64, 0
5, 522480, Note_on_c, 0, 64, 54
5, 522720, Note_on_c, 0, 64, 0
5, 522720, Note_on_c, 0, 64, 56
5, 522960, Note_on_c, 0, 64, 0
5, 522960, Note_on_c, 0, 64, 57
5, 523200, Note_on_c, 0, 64, 0
5, 523200, Note_on_c, 0, 68, 63
5, 523440, Note_on_c, 0, 68, 0
5, 523440, Note_on_c, 0, 66, 62
5, 523680, Note_on_c, 0, 66, 0
5, 523680, Note_on_c, 0, 64, 60
5, 523920, Note_on_c, 0, 64, 0
5, 523920, Note_on_c, 0, 63, 66
5, 524160, Note_on_c, 0, 63, 0
5, 524160, Note_on_c, 0, 63, 70
5, 524400, Note_on_c, 0, 63, 0
5, 524400, Note_on_c, 0, 65, 75
5, 524640, Note_on_c, 0, 65, 0
5, 524640, Note_on_c, 0, 66, 79
5, 524880, Note_on_c, 0, 66, 0
5, 524880, Note_on_c, 0, 69, 83
5, 525120, Note_on_c, 0, 69, 0
5, 525120, Note_on_c, 0, 68, 87
5, 525360, Note_on_c, 0, 68, 0
5, 525360, Note_on_c, 0, 66, 92
5, 525600, Note_on_c, 0, 66, 0
5, 525600, Note_on_c, 0, 64, 94
5, 525720, Note_on_c, 0, 64, 0
5, 525720, Note_on_c, 0, 59, 92
5, 525840, Note_on_c, 0, 59, 0
5, 525840, Note_on_c, 0, 56, 90
5, 525960, Note_on_c, 0, 56, 0
5, 525960, Note_on_c, 0, 59, 88
5, 526080, Note_on_c, 0, 59, 0
5, 526080, Note_on_c, 0, 52, 85
5, 526200, Note_on_c, 0, 52, 0
5, 526560, Note_on_c, 0, 61, 97
5, 526680, Note_on_c, 0, 61, 0
5, 526680, Note_on_c, 0, 56, 94
5, 526800, Note_on_c, 0, 56, 0
5, 526800, Note_on_c, 0, 52, 92
5, 526920, Note_on_c, 0, 52, 0
5, 526920, Note_on_c, 0, 56, 90
5, 527040, Note_on_c, 0, 56, 0
5, 527040, Note_on_c, 0, 49, 87
5, 527160, Note_on_c, 0, 49, 0
5, 527280, Note_on_c, 0, 61, 75
5, 527400, Note_on_c, 0, 61, 0
5, 527520, Note_on_c, 0, 60, 78
5, 527640, Note_on_c, 0, 60, 0
5, 527640, Note_on_c, 0, 56, 77
5, 527760, Note_on_c, 0, 56, 0
5, 527760, Note_on_c, 0, 51, 76
5, 527880, Note_on_c, 0, 51, 0
5, 527880, Note_on_c, 0, 56, 75
5, 528000, Note_on_c, 0, 56, 0
5, 528000, Note_on_c, 0, 48, 74
5, 528120, Note_on_c, 0, 48, 0
5, 528240, Note_on_c, 0, 60, 94
5, 528360, Note_on_c, 0, 60, 0
5, 528480, Note_on_c, 0, 59, 96
5, 528600, Note_on_c, 0, 59, 0
5, 528600, Note_on_c, 0, 56, 94
5, 528720, Note_on_c, 0, 56, 0
5, 528720, Note_on_c, 0, 52, 92
5, 528840, Note_on_c, 0, 52, 0
5, 528840, Note_on_c, 0, 56, 89
5, 528960, Note_on_c, 0, 56, 0
5, 528960, Note_on_c, 0, 47, 85
5, 529080, Note_on_c, 0, 47, 0
5, 529200, Note_on_c, 0, 59, 71
5, 529320, Note_on_c, 0, 59, 0
5, 529440, Note_on_c, 0, 57, 75
5, 529560, Note_on_c, 0, 57, 0
5, 529560, Note_on_c, 0, 52, 74
5, 529680, Note_on_c, 0, 52, 0
5, 529680, Note_on_c, 0, 49, 73
5, 529800, Note_on_c, 0, 49, 0
5, 529800, Note_on_c, 0, 52, 72
5, 529920, Note_on_c, 0, 52, 0
5, 529920, Note_on_c, 0, 45, 71
5, 530040, Note_on_c, 0, 45, 0
5, 530160, Note_on_c, 0, 57, 90
5, 530280, Note_on_c, 0, 57, 0
5, 530400, Note_on_c, 0, 56, 95
5, 530520, Note_on_c, 0, 56, 0
5, 530520, Note_on_c, 0, 53, 93
5, 530640, Note_on_c, 0, 53, 0
5, 530640, Note_on_c, 0, 49, 91
5, 530760, Note_on_c, 0, 49, 0
5, 530760, Note_on_c, 0, 53, 87
5, 530880, Note_on_c, 0, 53, 0
5, 530880, Note_on_c, 0, 44, 82
5, 531000, Note_on_c, 0, 44, 0
5, 531120, Note_on_c, 0, 56, 67
5, 531240, Note_on_c, 0, 56, 0
5, 531360, Note_on_c, 0, 54, 72
5, 531480, Note_on_c, 0, 54, 0
5, 531480, Note_on_c, 0, 49, 70
5, 531600, Note_on_c, 0, 49, 0
5, 531600, Note_on_c, 0, 45, 69
5, 531720, Note_on_c, 0, 45, 0
5, 531720, Note_on_c, 0, 49, 69
5, 531840, Note_on_c, 0, 49, 0
5, 531840, Note_on_c, 0, 42, 68
5, 531960, Note_on_c, 0, 42, 0
5, 532080, Note_on_c, 0, 66, 86
5, 532200, Note_on_c, 0, 66, 0
5, 532320, Note_on_c, 0, 63, 95
5, 532440, Note_on_c, 0, 63, 0
5, 532440, Note_on_c, 0, 59, 92
5, 532560, Note_on_c, 0, 59, 0
5, 532560, Note_on_c, 0, 51, 90
5, 532680, Note_on_c, 0, 51, 0
5, 532680, Note_on_c, 0, 59, 87
5, 532800, Note_on_c, 0, 59, 0
5, 532800, Note_on_c, 0, 51, 85
5, 532920, Note_on_c, 0, 51, 0
5, 533040, Note_on_c, 0, 51, 80
5, 533160, Note_on_c, 0, 51, 0
5, 533280, Note_on_c, 0, 48, 94
5, 533400, Note_on_c, 0, 48, 0
5, 533400, Note_on_c, 0, 45, 92
5, 533520, Note_on_c, 0, 45, 0
5, 533520, Note_on_c, 0, 40, 90
5, 533640, Note_on_c, 0, 40, 0
5, 533640, Note_on_c, 0, 45, 88
5, 533760, Note_on_c, 0, 45, 0
5, 533760, Note_on_c, 0, 36, 86
5, 533880, Note_on_c, 0, 36, 0
5, 534000, Note_on_c, 0, 48, 82
5, 534000, Note_on_c, 0, 60, 82
5, 534120, Note_on_c, 0, 60, 0
5, 534120, Note_on_c, 0, 48, 0
5, 534240, Note_on_c, 0, 47, 77
5, 534240, Note_on_c, 0, 35, 77
5, 534480, Note_on_c, 0, 35, 0
5, 534480, Note_on_c, 0, 47, 0
5, 535200, Note_on_c, 0, 66, 60
5, 535200, Note_on_c, 0, 63, 60
5, 535920, Note_on_c, 0, 64, 64
5, 535920, Note_on_c, 0, 68, 64
5, 535940, Note_on_c, 0, 63, 0
5, 535984, Note_on_c, 0, 66, 0
5, 536160, Note_on_c, 0, 64, 0
5, 536160, Note_on_c, 0, 68, 0
5, 536160, Note_on_c, 0, 68, 66
5, 536160, Note_on_c, 0, 64, 66
5, 536400, Note_on_c, 0, 64, 0
5, 536400, Note_on_c, 0, 68, 0
5, 536400, Note_on_c, 0, 66, 68
5, 536400, Note_on_c, 0, 69, 68
5, 536640, Note_on_c, 0, 69, 0
5, 536640, Note_on_c, 0, 66, 0
5, 536640, Note_on_c, 0, 66, 65
5, 536640, Note_on_c, 0, 69, 65
5, 536880, Note_on_c, 0, 69, 0
5, 536880, Note_on_c, 0, 66, 0
5, 536880, Note_on_c, 0, 64, 62
5, 536880, Note_on_c, 0, 68, 62
5, 537120, Note_on_c, 0, 68, 0
5, 537120, Note_on_c, 0, 64, 0
5, 537120, Note_on_c, 0, 63, 60
5, 537120, Note_on_c, 0, 66, 60
5, 537838, Note_on_c, 0, 66, 0
5, 537838, Note_on_c, 0, 63, 0
5, 537840, Note_on_c, 0, 68, 60
5, 537840, Note_on_c, 0, 64, 60
5, 538080, Note_on_c, 0, 64, 0
5, 538080, Note_on_c, 0, 68, 0
5, 538080, Note_on_c, 0, 66, 62
5, 538080, Note_on_c, 0, 69, 62
5, 538320, Note_on_c, 0, 69, 0
5, 538320, Note_on_c, 0, 66, 0
5, 538320, Note_on_c, 0, 66, 64
5, 538320, Note_on_c, 0, 63, 64
5, 538560, Note_on_c, 0, 63, 0
5, 538560, Note_on_c, 0, 66, 0
5, 538560, Note_on_c, 0, 68, 65
5, 538560, Note_on_c, 0, 64, 65
5, 538800, Note_on_c, 0, 64, 0
5, 538800, Note_on_c, 0, 68, 0
5, 538800, Note_on_c, 0, 66, 67
5, 538800, Note_on_c, 0, 69, 67
5, 539040, Note_on_c, 0, 69, 0
5, 539040, Note_on_c, 0, 66, 0
5, 539040, Note_on_c, 0, 71, 71
5, 539040, Note_on_c, 0, 68, 71
5, 539280, Note_on_c, 0, 68, 0
5, 539280, Note_on_c, 0, 71, 0
5, 539280, Note_on_c, 0, 71, 69
5, 539520, Note_on_c, 0, 71, 0
5, 539520, Note_on_c, 0, 69, 68
5, 539760, Note_on_c, 0, 69, 0
5, 539760, Note_on_c, 0, 68, 66
5, 540000, Note_on_c, 0, 68, 0
5, 540000, Note_on_c, 0, 69, 65
5, 540240, Note_on_c, 0, 69, 0
5, 540240, Note_on_c, 0, 71, 63
5, 540480, Note_on_c, 0, 71, 0
5, 540480, Note_on_c, 0, 73, 61
5, 540720, Note_on_c, 0, 73, 0
5, 540720, Note_on_c, 0, 70, 60
5, 540960, Note_on_c, 0, 70, 0
5, 540960, Note_on_c, 0, 71, 58
5, 541920, Note_on_c, 0, 71, 0
5, 541920, Note_on_c, 0, 71, 55
5, 542160, Note_on_c, 0, 71, 0
5, 542880, Note_on_c, 0, 54, 54
5, 542880, Note_on_c, 0, 51, 54
5, 543600, Note_on_c, 0, 52, 58
5, 543600, Note_on_c, 0, 56, 58
5, 543620, Note_on_c, 0, 51, 0
5, 543620, Note_on_c, 0, 54, 0
5, 543840, Note_on_c, 0, 52, 0
5, 543840, Note_on_c, 0, 56, 0
5, 543840, Note_on_c, 0, 52, 59
5, 543840, Note_on_c, 0, 56, 59
5, 544080, Note_on_c, 0, 56, 0
5, 544080, Note_on_c, 0, 52, 0
5, 544080, Note_on_c, 0, 57, 61
5, 544080, Note_on_c, 0, 54, 61
5, 544320, Note_on_c, 0, 54, 0
5, 544320, Note_on_c, 0, 57, 0
5, 544320, Note_on_c, 0, 57, 58
5, 544320, Note_on_c, 0, 54, 58
5, 544560, Note_on_c, 0, 54, 0
5, 544560, Note_on_c, 0, 57, 0
5, 544560, Note_on_c, 0, 52, 56
5, 544560, Note_on_c, 0, 56, 56
5, 544800, Note_on_c, 0, 56, 0
5, 544800, Note_on_c, 0, 52, 0
5, 544800, Note_on_c, 0, 54, 54
5, 544800, Note_on_c, 0, 51, 54
5, 545520, Note_on_c, 0, 52, 58
5, 545520, Note_on_c, 0, 56, 58
5, 545540, Note_on_c, 0, 54, 0
5, 545562, Note_on_c, 0, 51, 0
5, 545760, Note_on_c, 0, 52, 0
5, 545760, Note_on_c, 0, 56, 0
5, 545760, Note_on_c, 0, 57, 60
5, 545760, Note_on_c, 0, 54, 60
5, 546000, Note_on_c, 0, 54, 0
5, 546000, Note_on_c, 0, 57, 0
5, 546000, Note_on_c, 0, 47, 61
5, 546000, Note_on_c, 0, 51, 61
5, 546240, Note_on_c, 0, 51, 0
5, 546240, Note_on_c, 0, 47, 0
5, 546240, Note_on_c, 0, 52, 60
5, 546240, Note_on_c, 0, 49, 60
5, 546480, Note_on_c, 0, 49, 0
5, 546480, Note_on_c, 0, 52, 0
5, 546480, Note_on_c, 0, 51, 59
5, 546480, Note_on_c, 0, 54, 59
5, 546720, Note_on_c, 0, 54, 0
5, 546720, Note_on_c, 0, 51, 0
5, 546720, Note_on_c, 0, 52, 58
5, 546720, Note_on_c, 0, 56, 58
5, 546960, Note_on_c, 0, 56, 0
5, 546960, Note_on_c, 0, 52, 0
5, 546960, Note_on_c, 0, 52, 57
5, 546960, Note_on_c, 0, 49, 57
5, 547200, Note_on_c, 0, 49, 0
5, 547200, Note_on_c, 0, 52, 0
5, 547200, Note_on_c, 0, 51, 56
5, 547200, Note_on_c, 0, 54, 56
5, 547440, Note_on_c, 0, 54, 0
5, 547440, Note_on_c, 0, 51, 0
5, 547440, Note_on_c, 0, 52, 55
5, 547440, Note_on_c, 0, 56, 55
5, 547680, Note_on_c, 0, 56, 0
5, 547680, Note_on_c, 0, 52, 0
5, 547680, Note_on_c, 0, 57, 54
5, 547680, Note_on_c, 0, 54, 54
5, 547920, Note_on_c, 0, 54, 0
5, 547920, Note_on_c, 0, 57, 0
5, 547920, Note_on_c, 0, 54, 53
5, 547920, Note_on_c, 0, 51, 53
5, 548160, Note_on_c, 0, 51, 0
5, 548160, Note_on_c, 0, 54, 0
5, 548160, Note_on_c, 0, 52, 52
5, 548160, Note_on_c, 0, 56, 52
5, 548400, Note_on_c, 0, 56, 0
5, 548400, Note_on_c, 0, 52, 0
5, 548400, Note_on_c, 0, 57, 51
5, 548400, Note_on_c, 0, 54, 51
5, 548640, Note_on_c, 0, 54, 0
5, 548640, Note_on_c, 0, 57, 0
5, 548640, Note_on_c, 0, 56, 50
5, 548880, Note_on_c, 0, 56, 0
5, 548880, Note_on_c, 0, 56, 49
5, 549120, Note_on_c, 0, 56, 0
5, 549120, Note_on_c, 0, 56, 48
5, 549360, Note_on_c, 0, 56, 0
5, 549360, Note_on_c, 0, 56, 47
5, 549600, Note_on_c, 0, 56, 0
5, 549600, Note_on_c, 0, 56, 46
5, 549840, Note_on_c, 0, 56, 0
5, 550200, Note_on_c, 0, 61, 51
5, 550320, Note_on_c, 0, 61, 0
5, 550320, Note_on_c, 0, 63, 52
5, 550440, Note_on_c, 0, 63, 0
5, 550440, Note_on_c, 0, 65, 53
5, 550560, Note_on_c, 0, 65, 0
5, 550560, Note_on_c, 0, 66, 53
5, 550680, Note_on_c, 0, 66, 0
5, 550680, Note_on_c, 0, 61, 54
5, 550800, Note_on_c, 0, 61, 0
5, 550800, Note_on_c, 0, 63, 55
5, 550920, Note_on_c, 0, 63, 0
5, 550920, Note_on_c, 0, 65, 56
5, 551000, Note_on_c, 0, 68, 56
5, 551040, Note_on_c, 0, 65, 0
5, 551040, Note_on_c, 0, 66, 57
5, 551060, Note_on_c, 0, 68, 0
5, 551160, Note_on_c, 0, 66, 0
5, 551160, Note_on_c, 0, 65, 57
5, 551280, Note_on_c, 0, 65, 0
5, 551280, Note_on_c, 0, 66, 58
5, 551400, Note_on_c, 0, 66, 0
5, 551400, Note_on_c, 0, 68, 59
5, 551520, Note_on_c, 0, 68, 0
5, 551520, Note_on_c, 0, 69, 60
5, 551640, Note_on_c, 0, 69, 0
5, 551640, Note_on_c, 0, 68, 61
5, 551760, Note_on_c, 0, 68, 0
5, 551760, Note_on_c, 0, 69, 61
5, 551880, Note_on_c, 0, 69, 0
5, 551880, Note_on_c, 0, 71, 62
5, 552000, Note_on_c, 0, 71, 0
5, 552000, Note_on_c, 0, 73, 63
5, 552120, Note_on_c, 0, 73, 0
5, 552120, Note_on_c, 0, 71, 64
5, 552240, Note_on_c, 0, 71, 0
5, 552240, Note_on_c, 0, 69, 65
5, 552360, Note_on_c, 0, 69, 0
5, 552360, Note_on_c, 0, 70, 65
5, 552480, Note_on_c, 0, 70, 0
5, 552480, Note_on_c, 0, 71, 66
5, 552720, Note_on_c, 0, 71, 0
5, 552960, Note_on_c, 0, 59, 61
5, 553200, Note_on_c, 0, 59, 0
5, 553440, Note_on_c, 0, 52, 61
5, 553920, Note_on_c, 0, 52, 0
5, 553920, Note_on_c, 0, 52, 62
5, 554400, Note_on_c, 0, 52, 0
5, 554400, Note_on_c, 0, 54, 64
5, 554880, Note_on_c, 0, 54, 0
5, 554880, Note_on_c, 0, 56, 65
5, 555360, Note_on_c, 0, 56, 0
5, 555360, Note_on_c, 0, 57, 67
5, 555840, Note_on_c, 0, 57, 0
5, 555840, Note_on_c, 0, 58, 68
5, 556320, Note_on_c, 0, 58, 0
5, 556320, Note_on_c, 0, 59, 70
5, 556800, Note_on_c, 0, 59, 0
5, 556800, Note_on_c, 0, 57, 71
5, 557280, Note_on_c, 0, 57, 0
5, 557280, Note_on_c, 0, 56, 73
5, 557640, Note_on_c, 0, 56, 0
5, 557640, Note_on_c, 0, 56, 74
5, 557760, Note_on_c, 0, 56, 0
5, 557760, Note_on_c, 0, 52, 74
5, 558120, Note_on_c, 0, 52, 0
5, 558120, Note_on_c, 0, 52, 76
5, 558240, Note_on_c, 0, 52, 0
5, 558240, Note_on_c, 0, 54, 76
5, 558600, Note_on_c, 0, 54, 0
5, 558600, Note_on_c, 0, 54, 77
5, 558720, Note_on_c, 0, 54, 0
5, 558720, Note_on_c, 0, 56, 77
5, 559080, Note_on_c, 0, 56, 0
5, 559080, Note_on_c, 0, 56, 79
5, 559200, Note_on_c, 0, 56, 0
5, 559200, Note_on_c, 0, 57, 79
5, 559560, Note_on_c, 0, 57, 0
5, 559560, Note_on_c, 0, 57, 80
5, 559680, Note_on_c, 0, 57, 0
5, 559680, Note_on_c, 0, 59, 80
5, 560040, Note_on_c, 0, 59, 0
5, 560040, Note_on_c, 0, 59, 82
5, 560160, Note_on_c, 0, 59, 0
5, 560160, Control_c, 0, 64, 0
5, 560160, Note_on_c, 0, 56, 82
5, 560520, Note_on_c, 0, 56, 0
5, 560520, Note_on_c, 0, 56, 82
5, 560640, Note_on_c, 0, 56, 0
5, 560640, Note_on_c, 0, 53, 82
5, 561120, Note_on_c, 0, 53, 0
5, 561120, Note_on_c, 0, 53, 83
5, 561600, Note_on_c, 0, 53, 0
5, 561600, Note_on_c, 0, 53, 84
5, 562080, Note_on_c, 0, 53, 0
5, 562080, Note_on_c, 0, 50, 85
5, 562560, Note_on_c, 0, 50, 0
5, 562560, Note_on_c, 0, 50, 86
5, 563040, Note_on_c, 0, 50, 0
5, 563040, Note_on_c, 0, 47, 87
5, 563520, Note_on_c, 0, 47, 0
5, 563520, Note_on_c, 0, 47, 79
5, 564000, Note_on_c, 0, 47, 0
5, 564000, Note_on_c, 0, 47, 70
5, 564480, Note_on_c, 0, 47, 0
5, 564480, Note_on_c, 0, 47, 61
5, 564720, Note_on_c, 0, 47, 0
5, 564720, Note_on_c, 0, 47, 59
5, 564960, Note_on_c, 0, 47, 0
5, 564960, Note_on_c, 0, 47, 57
5, 565440, Note_on_c, 0, 47, 0
5, 565680, Note_on_c, 0, 67, 59
5, 565920, Note_on_c, 0, 67, 0
5, 565920, Note_on_c, 0, 67, 58
5, 566160, Note_on_c, 0, 67, 0
5, 566160, Note_on_c, 0, 68, 58
5, 566400, Note_on_c, 0, 68, 0
5, 566400, Note_on_c, 0, 67, 57
5, 566640, Note_on_c, 0, 67, 0
5, 566640, Note_on_c, 0, 55, 56
5, 566640, Note_on_c, 0, 62, 56
5, 566880, Note_on_c, 0, 62, 0
5, 566880, Note_on_c, 0, 55, 0
5, 566880, Note_on_c, 0, 55, 55
5, 567120, Note_on_c, 0, 55, 0
5, 567120, Note_on_c, 0, 58, 54
5, 567360, Note_on_c, 0, 58, 0
5, 567360, Note_on_c, 0, 57, 53
5, 567600, Note_on_c, 0, 57, 0
5, 567600, Note_on_c, 0, 52, 52
5, 567600, Note_on_c, 0, 55, 52
5, 567840, Note_on_c, 0, 55, 0
5, 567840, Note_on_c, 0, 52, 0
5, 567840, Note_on_c, 0, 57, 51
5, 567840, Note_on_c, 0, 53, 51
5, 568080, Note_on_c, 0, 53, 0
5, 568080, Note_on_c, 0, 57, 0
5, 568080, Note_on_c, 0, 58, 51
5, 568080, Note_on_c, 0, 55, 51
5, 568320, Note_on_c, 0, 55, 0
5, 568320, Note_on_c, 0, 58, 0
5, 568320, Note_on_c, 0, 57, 50
5, 568320, Note_on_c, 0, 53, 50
5, 568560, Note_on_c, 0, 53, 0
5, 568560, Note_on_c, 0, 57, 0
5, 568560, Note_on_c, 0, 49, 49
5, 568560, Note_on_c, 0, 52, 49
5, 568800, Note_on_c, 0, 52, 0
5, 568800, Note_on_c, 0, 49, 0
5, 568800, Note_on_c, 0, 50, 48
5, 568800, Note_on_c, 0, 53, 48
5, 569040, Note_on_c, 0, 53, 0
5, 569040, Note_on_c, 0, 50, 0
5, 569040, Note_on_c, 0, 62, 57
5, 569040, Note_on_c, 0, 65, 57
5, 569520, Note_on_c, 0, 65, 0
5, 569520, Note_on_c, 0, 62, 0
5, 569520, Note_on_c, 0, 63, 56
5, 569520, Note_on_c, 0, 60, 56
5, 570000, Note_on_c, 0, 58, 54
5, 570000, Note_on_c, 0, 61, 54
5, 570007, Note_on_c, 0, 60, 0
5, 570015, Note_on_c, 0, 63, 0
5, 570480, Note_on_c, 0, 58, 0
5, 570480, Note_on_c, 0, 61, 0
5, 570480, Note_on_c, 0, 59, 53
5, 570480, Note_on_c, 0, 56, 53
5, 570960, Note_on_c, 0, 58, 51
5, 570960, Note_on_c, 0, 54, 51
5, 570975, Note_on_c, 0, 56, 0
5, 570975, Note_on_c, 0, 59, 0
5, 571440, Note_on_c, 0, 58, 0
5, 571440, Note_on_c, 0, 54, 0
5, 571440, Note_on_c, 0, 58, 50
5, 571440, Note_on_c, 0, 54, 50
5, 571912, Note_on_c, 0, 58, 0
5, 571920, Note_on_c, 0, 58, 48
5, 572400, Note_on_c, 0, 58, 0
5, 572400, Note_on_c, 0, 54, 0
5, 572400, Note_on_c, 0, 58, 47
5, 572400, Note_on_c, 0, 54, 47
5, 572872, Note_on_c, 0, 58, 0
5, 572880, Note_on_c, 0, 54, 0
5, 572880, Note_on_c, 0, 54, 57
5, 572880, Note_on_c, 0, 57, 57
5, 572880, Note_on_c, 0, 61, 57
5, 573360, Note_on_c, 0, 61, 0
5, 573360, Note_on_c, 0, 57, 0
5, 573360, Note_on_c, 0, 54, 0
5, 573360, Note_on_c, 0, 60, 70
5, 573360, Note_on_c, 0, 57, 70
5, 573360, Note_on_c, 0, 54, 70
5, 573360, Note_on_c, 0, 52, 70
5, 573832, Note_on_c, 0, 54, 0
5, 573840, Note_on_c, 0, 60, 0
5, 573840, Note_on_c, 0, 57, 0
5, 573840, Note_on_c, 0, 52, 0
5, 573840, Note_on_c, 0, 51, 83
5, 573840, Note_on_c, 0, 54, 83
5, 573840, Note_on_c, 0, 57, 83
5, 573840, Note_on_c, 0, 59, 83
5, 574080, Note_on_c, 0, 59, 0
5, 574080, Note_on_c, 0, 51, 0
5, 574080, Note_on_c, 0, 54, 0
5, 574080, Note_on_c, 0, 57, 0
5, 574080, Note_on_c, 0, 49, 85
5, 574200, Note_on_c, 0, 49, 0
5, 574200, Note_on_c, 0, 59, 85
5, 574320, Note_on_c, 0, 49, 84
5, 574440, Note_on_c, 0, 49, 0
5, 574440, Note_on_c, 0, 52, 83
5, 574560, Note_on_c, 0, 52, 0
5, 574560, Note_on_c, 0, 54, 83
5, 574680, Note_on_c, 0, 54, 0
5, 574680, Note_on_c, 0, 59, 0
5, 574680, Note_on_c, 0, 59, 82
5, 574800, Note_on_c, 0, 54, 81
5, 574920, Note_on_c, 0, 54, 0
5, 574920, Note_on_c, 0, 56, 81
5, 575040, Note_on_c, 0, 56, 0
5, 575040, Note_on_c, 0, 57, 85
5, 575160, Note_on_c, 0, 57, 0
5, 575160, Note_on_c, 0, 59, 0
5, 575160, Note_on_c, 0, 59, 79
5, 575280, Note_on_c, 0, 57, 79
5, 575400, Note_on_c, 0, 57, 0
5, 575400, Note_on_c, 0, 56, 78
5, 575520, Note_on_c, 0, 56, 0
5, 575520, Note_on_c, 0, 54, 83
5, 575640, Note_on_c, 0, 54, 0
5, 575640, Note_on_c, 0, 59, 0
5, 575640, Note_on_c, 0, 59, 77
5, 575760, Note_on_c, 0, 54, 76
5, 575880, Note_on_c, 0, 54, 0
5, 575880, Note_on_c, 0, 52, 76
5, 576000, Note_on_c, 0, 52, 0
5, 576000, Note_on_c, 0, 51, 80
5, 576120, Note_on_c, 0, 51, 0
5, 576120, Note_on_c, 0, 59, 0
5, 576120, Note_on_c, 0, 59, 74
5, 576240, Note_on_c, 0, 51, 74
5, 576360, Note_on_c, 0, 51, 0
5, 576360, Note_on_c, 0, 52, 73
5, 576480, Note_on_c, 0, 52, 0
5, 576480, Note_on_c, 0, 54, 78
5, 576600, Note_on_c, 0, 54, 0
5, 576600, Note_on_c, 0, 59, 0
5, 576600, Note_on_c, 0, 59, 72
5, 576720, Note_on_c, 0, 54, 71
5, 576840, Note_on_c, 0, 54, 0
5, 576840, Note_on_c, 0, 56, 71
5, 576960, Note_on_c, 0, 56, 0
5, 576960, Note_on_c, 0, 57, 70
5, 577080, Note_on_c, 0, 57, 0
5, 577080, Note_on_c, 0, 59, 0
5, 577080, Note_on_c, 0, 59, 69
5, 577200, Note_on_c, 0, 57, 69
5, 577320, Note_on_c, 0, 57, 0
5, 577320, Note_on_c, 0, 56, 68
5, 577440, Note_on_c, 0, 56, 0
5, 577440, Note_on_c, 0, 54, 69
5, 577560, Note_on_c, 0, 54, 0
5, 577560, Note_on_c, 0, 59, 0
5, 577560, Note_on_c, 0, 59, 69
5, 577680, Note_on_c, 0, 54, 68
5, 577800, Note_on_c, 0, 54, 0
5, 577800, Note_on_c, 0, 52, 68
5, 577920, Note_on_c, 0, 52, 0
5, 577920, Note_on_c, 0, 51, 67
5, 578040, Note_on_c, 0, 51, 0
5, 578040, Note_on_c, 0, 59, 0
5, 578040, Note_on_c, 0, 59, 67
5, 578160, Note_on_c, 0, 51, 66
5, 578280, Note_on_c, 0, 51, 0
5, 578280, Note_on_c, 0, 52, 65
5, 578400, Note_on_c, 0, 52, 0
5, 578400, Note_on_c, 0, 54, 65
5, 578520, Note_on_c, 0, 54, 0
5, 578520, Note_on_c, 0, 59, 0
5, 578520, Note_on_c, 0, 59, 64
5, 578640, Note_on_c, 0, 54, 64
5, 578760, Note_on_c, 0, 54, 0
5, 578760, Note_on_c, 0, 56, 63
5, 578880, Note_on_c, 0, 56, 0
5, 578880, Note_on_c, 0, 57, 63
5, 579000, Note_on_c, 0, 57, 0
5, 579000, Note_on_c, 0, 59, 0
5, 579000, Note_on_c, 0, 59, 62
5, 579120, Note_on_c, 0, 57, 61
5, 579240, Note_on_c, 0, 57, 0
5, 579240, Note_on_c, 0, 56, 61
5, 579360, Note_on_c, 0, 56, 0
5, 579360, Note_on_c, 0, 54, 60
5, 579480, Note_on_c, 0, 54, 0
5, 579480, Note_on_c, 0, 59, 0
5, 579480, Note_on_c, 0, 59, 60
5, 579600, Note_on_c, 0, 54, 59
5, 579720, Note_on_c, 0, 54, 0
5, 579720, Note_on_c, 0, 52, 59
5, 579840, Note_on_c, 0, 52, 0
5, 579840, Note_on_c, 0, 51, 58
5, 579960, Note_on_c, 0, 51, 0
5, 579960, Note_on_c, 0, 59, 0
5, 579960, Note_on_c, 0, 59, 57
5, 580080, Note_on_c, 0, 51, 57
5, 580200, Note_on_c, 0, 51, 0
5, 580200, Note_on_c, 0, 52, 56
5, 580320, Note_on_c, 0, 52, 0
5, 580320, Note_on_c, 0, 54, 56
5, 580440, Note_on_c, 0, 54, 0
5, 580440, Note_on_c, 0, 59, 0
5, 580440, Note_on_c, 0, 59, 55
5, 580560, Note_on_c, 0, 54, 55
5, 580680, Note_on_c, 0, 54, 0
5, 580680, Note_on_c, 0, 56, 54
5, 580800, Note_on_c, 0, 56, 0
5, 580800, Note_on_c, 0, 57, 53
5, 580920, Note_on_c, 0, 57, 0
5, 580920, Note_on_c, 0, 59, 0
5, 580920, Note_on_c, 0, 56, 53
5, 581040, Note_on_c, 0, 56, 0
5, 581040, Note_on_c, 0, 57, 52
5, 581160, Note_on_c, 0, 57, 0
5, 581160, Note_on_c, 0, 58, 52
5, 581280, Note_on_c, 0, 58, 0
5, 581280, Note_on_c, 0, 59, 51
5, 581400, Note_on_c, 0, 59, 0
5, 581400, Note_on_c, 0, 58, 51
5, 581520, Note_on_c, 0, 58, 0
5, 581520, Note_on_c, 0, 57, 50
5, 581640, Note_on_c, 0, 57, 0
5, 581640, Note_on_c, 0, 56, 49
5, 581760, Note_on_c, 0, 56, 0
5, 581760, Note_on_c, 0, 54, 49
5, 581880, Note_on_c, 0, 54, 0
5, 581880, Note_on_c, 0, 51, 48
5, 581880, Note_on_c, 0, 47, 48
5, 582000, Note_on_c, 0, 47, 0
5, 582000, Note_on_c, 0, 51, 0
5, 582000, Note_on_c, 0, 49, 48
5, 582000, Note_on_c, 0, 52, 48
5, 582120, Note_on_c, 0, 52, 0
5, 582120, Note_on_c, 0, 49, 0
5, 582120, Note_on_c, 0, 54, 47
5, 582120, Note_on_c, 0, 51, 47
5, 582240, Note_on_c, 0, 51, 0
5, 582240, Note_on_c, 0, 54, 0
5, 582240, Note_on_c, 0, 56, 56
5, 582720, Note_on_c, 0, 56, 0
5, 582720, Note_on_c, 0, 59, 58
5, 582960, Note_on_c, 0, 59, 0
5, 582960, Note_on_c, 0, 57, 59
5, 583200, Note_on_c, 0, 57, 0
5, 583200, Note_on_c, 0, 56, 59
5, 583440, Note_on_c, 0, 56, 0
5, 583440, Note_on_c, 0, 54, 60
5, 583632, Note_on_c, 0, 54, 0
5, 583680, Note_on_c, 0, 54, 61
5, 583872, Note_on_c, 0, 54, 0
5, 583920, Note_on_c, 0, 56, 62
5, 584112, Note_on_c, 0, 56, 0
5, 584160, Note_on_c, 0, 57, 63
5, 584400, Note_on_c, 0, 57, 0
5, 584400, Note_on_c, 0, 61, 62
5, 584640, Note_on_c, 0, 61, 0
5, 584640, Note_on_c, 0, 59, 60
5, 584880, Note_on_c, 0, 59, 0
5, 584880, Note_on_c, 0, 54, 58
5, 585120, Note_on_c, 0, 54, 0
5, 585120, Note_on_c, 0, 56, 57
5, 585360, Note_on_c, 0, 56, 0
5, 586080, Note_on_c, 0, 52, 48
5, 586320, Note_on_c, 0, 52, 0
5, 586320, Note_on_c, 0, 52, 49
5, 586560, Note_on_c, 0, 52, 0
5, 586560, Note_on_c, 0, 49, 50
5, 586800, Note_on_c, 0, 49, 0
5, 586800, Note_on_c, 0, 45, 51
5, 587040, Note_on_c, 0, 45, 0
5, 587040, Note_on_c, 0, 47, 52
5, 587280, Note_on_c, 0, 47, 0
5, 587280, Note_on_c, 0, 47, 53
5, 587520, Note_on_c, 0, 47, 0
5, 587520, Note_on_c, 0, 57, 53
5, 587760, Note_on_c, 0, 57, 0
5, 587760, Note_on_c, 0, 56, 54
5, 588000, Note_on_c, 0, 56, 0
5, 588000, Note_on_c, 0, 54, 56
5, 588240, Note_on_c, 0, 54, 0
5, 588240, Note_on_c, 0, 52, 63
5, 588480, Note_on_c, 0, 52, 0
5, 588480, Note_on_c, 0, 51, 71
5, 588720, Note_on_c, 0, 51, 0
5, 588720, Note_on_c, 0, 47, 66
5, 588960, Note_on_c, 0, 47, 0
5, 588960, Note_on_c, 0, 52, 54
5, 589440, Note_on_c, 0, 52, 0
5, 589680, Note_on_c, 0, 59, 62
5, 589920, Note_on_c, 0, 59, 0
5, 589920, Note_on_c, 0, 58, 63
5, 590400, Note_on_c, 0, 58, 0
5, 590400, Note_on_c, 0, 64, 66
5, 590880, Note_on_c, 0, 64, 0
5, 590880, Note_on_c, 0, 63, 63
5, 591360, Note_on_c, 0, 63, 0
5, 591360, Note_on_c, 0, 59, 64
5, 591600, Note_on_c, 0, 59, 0
5, 591600, Note_on_c, 0, 57, 65
5, 591840, Note_on_c, 0, 57, 0
5, 591840, Note_on_c, 0, 56, 67
5, 592320, Note_on_c, 0, 56, 0
5, 592320, Note_on_c, 0, 62, 69
5, 592800, Note_on_c, 0, 62, 0
5, 592800, Note_on_c, 0, 61, 66
5, 593520, Note_on_c, 0, 61, 0
5, 593520, Note_on_c, 0, 61, 68
5, 593760, Note_on_c, 0, 61, 0
5, 593760, Note_on_c, 0, 60, 68
5, 594000, Note_on_c, 0, 60, 0
5, 594000, Note_on_c, 0, 61, 69
5, 594156, Note_on_c, 0, 61, 0
5, 594240, Note_on_c, 0, 57, 70
5, 594396, Note_on_c, 0, 57, 0
5, 594480, Note_on_c, 0, 56, 71
5, 594636, Note_on_c, 0, 56, 0
5, 594720, Note_on_c, 0, 56, 72
5, 594960, Note_on_c, 0, 56, 0
5, 594960, Note_on_c, 0, 54, 74
5, 595440, Note_on_c, 0, 54, 0
5, 595440, Note_on_c, 0, 54, 76
5, 595680, Note_on_c, 0, 54, 0
5, 595680, Note_on_c, 0, 54, 77
5, 595920, Note_on_c, 0, 54, 0
5, 595920, Note_on_c, 0, 59, 75
5, 596160, Note_on_c, 0, 59, 0
5, 596160, Note_on_c, 0, 58, 73
5, 596400, Note_on_c, 0, 58, 0
5, 596400, Note_on_c, 0, 59, 71
5, 596640, Note_on_c, 0, 59, 0
5, 596640, Note_on_c, 0, 52, 69
5, 597000, Note_on_c, 0, 52, 0
5, 597000, Note_on_c, 0, 52, 66
5, 597120, Note_on_c, 0, 52, 0
5, 597120, Note_on_c, 0, 51, 65
5, 597480, Note_on_c, 0, 51, 0
5, 597480, Note_on_c, 0, 51, 63
5, 597600, Note_on_c, 0, 51, 0
5, 597600, Note_on_c, 0, 49, 65
5, 597960, Note_on_c, 0, 49, 0
5, 597960, Note_on_c, 0, 49, 67
5, 598080, Note_on_c, 0, 49, 0
5, 598080, Note_on_c, 0, 42, 69
5, 598560, Note_on_c, 0, 42, 0
5, 598560, Note_on_c, 0, 47, 70
5, 599040, Note_on_c, 0, 47, 0
5, 599040, Note_on_c, 0, 47, 64
5, 599267, Note_on_c, 0, 47, 0
5, 599280, Note_on_c, 0, 49, 66
5, 599507, Note_on_c, 0, 49, 0
5, 599520, Note_on_c, 0, 47, 68
5, 599880, Note_on_c, 0, 47, 0
5, 599880, Note_on_c, 0, 47, 72
5, 600000, Note_on_c, 0, 47, 0
5, 600000, Note_on_c, 0, 40, 73
5, 600480, Note_on_c, 0, 40, 0
5, 600480, Note_on_c, 0, 45, 71
5, 600960, Note_on_c, 0, 45, 0
5, 600960, Note_on_c, 0, 45, 64
5, 601200, Note_on_c, 0, 45, 0
5, 601200, Note_on_c, 0, 45, 66
5, 601440, Note_on_c, 0, 45, 0
5, 601440, Note_on_c, 0, 44, 67
5, 601680, Note_on_c, 0, 44, 0
5, 601680, Note_on_c, 0, 45, 69
5, 601920, Note_on_c, 0, 45, 0
5, 601920, Note_on_c, 0, 45, 71
5, 602160, Note_on_c, 0, 45, 0
5, 602160, Note_on_c, 0, 47, 72
5, 602400, Note_on_c, 0, 47, 0
5, 602400, Note_on_c, 0, 49, 74
5, 602640, Note_on_c, 0, 49, 0
5, 602640, Note_on_c, 0, 49, 75
5, 602880, Note_on_c, 0, 49, 0
5, 602880, Note_on_c, 0, 48, 77
5, 603120, Note_on_c, 0, 48, 0
5, 603120, Note_on_c, 0, 48, 74
5, 603360, Note_on_c, 0, 48, 0
5, 603360, Note_on_c, 0, 47, 73
5, 603600, Note_on_c, 0, 47, 0
5, 603600, Note_on_c, 0, 47, 72
5, 603840, Note_on_c, 0, 47, 0
5, 603840, Note_on_c, 0, 47, 71
5, 604080, Note_on_c, 0, 47, 0
5, 604080, Note_on_c, 0, 47, 70
5, 604320, Note_on_c, 0, 47, 0
5, 604320, Note_on_c, 0, 47, 70
5, 604560, Note_on_c, 0, 47, 0
5, 604560, Note_on_c, 0, 47, 69
5, 604800, Note_on_c, 0, 47, 0
5, 604800, Note_on_c, 0, 47, 68
5, 605040, Note_on_c, 0, 47, 0
5, 605040, Note_on_c, 0, 47, 67
5, 605280, Note_on_c, 0, 47, 0
5, 605280, Note_on_c, 0, 47, 66
5, 606240, Note_on_c, 0, 47, 0
5, 606240, Note_on_c, 0, 47, 63
5, 607200, Note_on_c, 0, 47, 0
5, 607200, Note_on_c, 0, 47, 56
5, 607440, Note_on_c, 0, 47, 0
5, 607440, Note_on_c, 0, 47, 59
5, 607680, Note_on_c, 0, 47, 0
5, 607680, Note_on_c, 0, 47, 61
5, 607920, Note_on_c, 0, 47, 0
5, 607920, Note_on_c, 0, 47, 63
5, 608160, Note_on_c, 0, 47, 0
5, 608160, Note_on_c, 0, 47, 65
5, 608400, Note_on_c, 0, 47, 0
5, 608400, Note_on_c, 0, 47, 67
5, 608640, Note_on_c, 0, 47, 0
5, 608640, Note_on_c, 0, 47, 70
5, 608880, Note_on_c, 0, 47, 0
5, 608880, Note_on_c, 0, 47, 72
5, 609120, Note_on_c, 0, 47, 0
5, 609120, Note_on_c, 0, 45, 75
5, 609360, Note_on_c, 0, 45, 0
5, 609360, Note_on_c, 0, 45, 73
5, 609600, Note_on_c, 0, 45, 0
5, 609600, Note_on_c, 0, 45, 72
5, 609840, Note_on_c, 0, 45, 0
5, 609840, Note_on_c, 0, 45, 70
5, 610080, Note_on_c, 0, 45, 0
5, 610080, Note_on_c, 0, 46, 68
5, 610320, Note_on_c, 0, 46, 0
5, 610320, Note_on_c, 0, 46, 67
5, 610560, Note_on_c, 0, 46, 0
5, 610560, Note_on_c, 0, 46, 65
5, 610800, Note_on_c, 0, 46, 0
5, 610800, Note_on_c, 0, 46, 64
5, 611040, Note_on_c, 0, 46, 0
5, 611040, Note_on_c, 0, 47, 62
5, 611280, Note_on_c, 0, 47, 0
5, 611280, Note_on_c, 0, 47, 60
5, 611520, Note_on_c, 0, 47, 0
5, 611520, Note_on_c, 0, 47, 59
5, 611760, Note_on_c, 0, 47, 0
5, 611760, Note_on_c, 0, 47, 57
5, 612000, Note_on_c, 0, 47, 0
5, 612000, Note_on_c, 0, 47, 55
5, 612240, Note_on_c, 0, 47, 0
5, 612240, Note_on_c, 0, 47, 54
5, 612480, Note_on_c, 0, 47, 0
5, 612480, Note_on_c, 0, 47, 52
5, 612720, Note_on_c, 0, 47, 0
5, 612720, Note_on_c, 0, 47, 51
5, 612960, Note_on_c, 0, 47, 0
5, 612960, Note_on_c, 0, 59, 49
5, 613440, Note_on_c, 0, 59, 0
5, 613440, Note_on_c, 0, 57, 55
5, 613920, Note_on_c, 0, 57, 0
5, 613920, Note_on_c, 0, 56, 63
5, 613920, Note_on_c, 0, 59, 63
5, 614400, Note_on_c, 0, 59, 0
5, 614400, Note_on_c, 0, 56, 0
5, 614400, Note_on_c, 0, 54, 71
5, 614400, Note_on_c, 0, 57, 71
5, 614880, Note_on_c, 0, 57, 0
5, 614880, Note_on_c, 0, 54, 0
5, 614880, Note_on_c, 0, 56, 79
5, 614880, Note_on_c, 0, 53, 79
5, 615120, Note_on_c, 0, 53, 0
5, 615120, Note_on_c, 0, 56, 0
5, 615360, Note_on_c, 0, 56, 93
5, 615360, Note_on_c, 0, 53, 93
5, 615600, Note_on_c, 0, 53, 0
5, 615600, Note_on_c, 0, 56, 0
5, 615960, Control_c, 0, 64, 0
5, 616560, Note_on_c, 0, 61, 64
5, 616680, Note_on_c, 0, 61, 0
5, 616680, Note_on_c, 0, 63, 66
5, 616800, Note_on_c, 0, 63, 0
5, 616800, Note_on_c, 0, 64, 68
5, 616800, Note_on_c, 0, 58, 68
5, 617040, Note_on_c, 0, 64, 0
5, 617040, Note_on_c, 0, 67, 71
5, 617280, Note_on_c, 0, 67, 0
5, 617280, Note_on_c, 0, 66, 69
5, 617520, Note_on_c, 0, 66, 0
5, 617520, Note_on_c, 0, 61, 67
5, 617760, Note_on_c, 0, 61, 0
5, 617760, Note_on_c, 0, 58, 0
5, 617760, Note_on_c, 0, 63, 64
5, 617760, Note_on_c, 0, 59, 64
5, 618720, Note_on_c, 0, 63, 0
5, 618960, Note_on_c, 0, 66, 65
5, 619200, Note_on_c, 0, 66, 0
5, 619200, Note_on_c, 0, 64, 63
5, 619440, Note_on_c, 0, 64, 0
5, 619440, Note_on_c, 0, 61, 61
5, 619680, Note_on_c, 0, 61, 0
5, 619680, Note_on_c, 0, 64, 59
5, 620860, Note_on_c, 0, 64, 0
5, 620880, Note_on_c, 0, 64, 61
5, 621120, Note_on_c, 0, 64, 0
5, 621120, Note_on_c, 0, 63, 60
5, 621135, Note_on_c, 0, 59, 0
5, 621360, Note_on_c, 0, 63, 0
5, 621360, Note_on_c, 0, 59, 60
5, 621600, Note_on_c, 0, 59, 0
5, 621600, Note_on_c, 0, 63, 59
5, 621840, Note_on_c, 0, 63, 0
5, 621840, Note_on_c, 0, 58, 59
5, 622080, Note_on_c, 0, 58, 0
5, 622080, Note_on_c, 0, 59, 58
5, 622320, Note_on_c, 0, 59, 0
5, 622320, Note_on_c, 0, 63, 58
5, 622560, Note_on_c, 0, 63, 0
5, 622560, Note_on_c, 0, 59, 57
5, 622800, Note_on_c, 0, 59, 0
5, 622800, Note_on_c, 0, 56, 57
5, 623040, Note_on_c, 0, 56, 0
5, 623040, Note_on_c, 0, 47, 56
5, 623040, Note_on_c, 0, 57, 56
5, 623280, Note_on_c, 0, 57, 0
5, 623280, Note_on_c, 0, 61, 56
5, 623520, Note_on_c, 0, 61, 0
5, 623520, Note_on_c, 0, 47, 0
5, 623520, Note_on_c, 0, 57, 56
5, 623760, Note_on_c, 0, 57, 0
5, 623760, Note_on_c, 0, 55, 55
5, 624000, Note_on_c, 0, 55, 0
5, 624000, Note_on_c, 0, 47, 55
5, 624000, Note_on_c, 0, 56, 55
5, 624240, Note_on_c, 0, 56, 0
5, 624240, Note_on_c, 0, 59, 54
5, 624480, Note_on_c, 0, 59, 0
5, 624480, Note_on_c, 0, 47, 0
5, 624480, Note_on_c, 0, 56, 54
5, 624720, Note_on_c, 0, 56, 0
5, 624720, Note_on_c, 0, 53, 53
5, 624960, Note_on_c, 0, 53, 0
5, 624960, Note_on_c, 0, 54, 53
5, 624960, Note_on_c, 0, 47, 53
5, 625200, Note_on_c, 0, 47, 0
5, 625200, Note_on_c, 0, 54, 0
5, 625200, Note_on_c, 0, 47, 52
5, 625200, Note_on_c, 0, 57, 52
5, 625440, Note_on_c, 0, 57, 0
5, 625440, Note_on_c, 0, 56, 54
5, 625680, Note_on_c, 0, 56, 0
5, 625680, Note_on_c, 0, 47, 0
5, 625680, Note_on_c, 0, 47, 58
5, 625680, Note_on_c, 0, 52, 58
5, 625920, Note_on_c, 0, 52, 0
5, 625920, Note_on_c, 0, 54, 62
5, 626040, Note_on_c, 0, 54, 0
5, 626040, Note_on_c, 0, 57, 63
5, 626160, Note_on_c, 0, 57, 0
5, 626160, Note_on_c, 0, 47, 0
5, 626160, Note_on_c, 0, 47, 65
5, 626160, Note_on_c, 0, 56, 65
5, 626280, Note_on_c, 0, 56, 0
5, 626280, Note_on_c, 0, 54, 67
5, 626400, Note_on_c, 0, 54, 0
5, 626400, Note_on_c, 0, 47, 0
5, 626400, Note_on_c, 0, 40, 60
5, 626880, Note_on_c, 0, 40, 0
5, 627360, Note_on_c, 0, 35, 54
5, 627840, Note_on_c, 0, 35, 0
5, 628320, Note_on_c, 0, 37, 53
5, 628560, Note_on_c, 0, 37, 0
5, 628800, Note_on_c, 0, 39, 52
5, 629040, Note_on_c, 0, 39, 0
5, 629040, Note_on_c, 0, 35, 52
5, 629280, Note_on_c, 0, 35, 0
5, 629280, Note_on_c, 0, 40, 52
5, 629760, Note_on_c, 0, 40, 0
5, 630000, Note_on_c, 0, 47, 54
5, 630240, Note_on_c, 0, 47, 0
5, 630240, Note_on_c, 0, 49, 58
5, 630720, Note_on_c, 0, 49, 0
5, 630720, Note_on_c, 0, 51, 55
5, 630960, Note_on_c, 0, 51, 0
5, 630960, Note_on_c, 0, 47, 55
5, 631200, Note_on_c, 0, 47, 0
5, 631200, Note_on_c, 0, 52, 55
5, 631440, Note_on_c, 0, 52, 0
5, 631440, Note_on_c, 0, 52, 54
5, 631680, Note_on_c, 0, 52, 0
5, 631680, Note_on_c, 0, 52, 54
5, 631920, Note_on_c, 0, 52, 0
5, 631920, Note_on_c, 0, 53, 54
5, 632160, Note_on_c, 0, 53, 0
5, 632160, Note_on_c, 0, 54, 54
5, 632400, Note_on_c, 0, 54, 0
5, 632400, Note_on_c, 0, 57, 53
5, 632640, Note_on_c, 0, 57, 0
5, 632640, Note_on_c, 0, 56, 53
5, 632880, Note_on_c, 0, 56, 0
5, 632880, Note_on_c, 0, 54, 53
5, 633120, Note_on_c, 0, 54, 0
5, 633120, Note_on_c, 0, 52, 53
5, 633360, Note_on_c, 0, 52, 0
5, 633360, Note_on_c, 0, 42, 57
5, 633600, Note_on_c, 0, 42, 0
5, 633600, Note_on_c, 0, 40, 54
5, 633840, Note_on_c, 0, 40, 0
5, 633840, Note_on_c, 0, 49, 52
5, 634080, Note_on_c, 0, 49, 0
5, 634080, Note_on_c, 0, 47, 50
5, 634800, Note_on_c, 0, 47, 0
5, 634800, Note_on_c, 0, 49, 52
5, 634920, Note_on_c, 0, 49, 0
5, 634920, Note_on_c, 0, 47, 52
5, 635040, Note_on_c, 0, 47, 0
5, 635040, Note_on_c, 0, 46, 50
5, 635520, Note_on_c, 0, 46, 0
5, 635520, Note_on_c, 0, 58, 52
5, 636000, Note_on_c, 0, 58, 0
5, 636000, Note_on_c, 0, 59, 56
5, 636240, Note_on_c, 0, 59, 0
5, 636480, Note_on_c, 0, 59, 60
5, 636720, Note_on_c, 0, 59, 0
5, 636960, Note_on_c, 0, 61, 64
5, 637200, Note_on_c, 0, 61, 0
5, 637440, Note_on_c, 0, 57, 68
5, 637680, Note_on_c, 0, 57, 0
5, 637920, Note_on_c, 0, 54, 73
5, 638160, Note_on_c, 0, 54, 0
5, 638400, Note_on_c, 0, 51, 77
5, 638640, Note_on_c, 0, 51, 0
5, 638880, Note_on_c, 0, 59, 82
5, 639120, Note_on_c, 0, 59, 0
5, 639360, Note_on_c, 0, 61, 73
5, 639600, Note_on_c, 0, 61, 0
5, 639600, Note_on_c, 0, 61, 70
5, 639840, Note_on_c, 0, 61, 0
5, 639840, Note_on_c, 0, 57, 67
5, 640080, Note_on_c, 0, 57, 0
5, 640080, Note_on_c, 0, 59, 64
5, 640320, Note_on_c, 0, 59, 0
5, 640320, Note_on_c, 0, 52, 61
5, 640560, Note_on_c, 0, 52, 0
5, 640560, End_track
0, 0, End_of_file
