0, 0, Header, 1, 5, 480
1, 0, Start_track
1, 0, Title_t, "Untitled"
1, 0, Time_signature, 3, 2, 24, 8
1, 0, Key_signature, 0, "major"
1, 0, Tempo, 500000
1, 0, Marker_t, "Beethoven"
1, 1440, Tempo, 952381
1, 1440, Marker_t, "7 Variation"
1, 2295, Tempo, 967742
1, 2630, Tempo, 1034483
1, 2880, Marker_t, "(God save the King) "
1, 3105, Tempo, 967742
1, 3580, Tempo, 1034483
1, 3870, Tempo, 1071429
1, 4320, Tempo, 1000000
1, 4320, Marker_t, "Bunji Hisamori"
1, 4575, Tempo, 952381
1, 5160, Tempo, 967742
1, 5640, Tempo, 1034483
1, 5760, Marker_t, "July 1998"
1, 6000, Tempo, 967742
1, 6480, Tempo, 1000000
1, 6990, Tempo, 1071429
1, 7200, Tempo, 1000000
1, 7335, Tempo, 967742
1, 8280, Tempo, 1000000
1, 9560, Tempo, 1500000
1, 9930, Tempo, 2727273
1, 10080, Tempo, 952381
1, 10935, Tempo, 967742
1, 11040, Tempo, 1000000
1, 11745, Tempo, 967742
1, 12220, Tempo, 1034483
1, 12510, Tempo, 1071429
1, 12960, Tempo, 1000000
1, 13215, Tempo, 952381
1, 13800, Tempo, 967742
1, 14280, Tempo, 1034483
1, 14640, Tempo, 967742
1, 15120, Tempo, 1000000
1, 15720, Tempo, 1111111
1, 15840, Tempo, 1000000
1, 15975, Tempo, 967742
1, 16920, Tempo, 1000000
1, 17780, Tempo, 1111111
1, 18000, Tempo, 967742
1, 18480, Tempo, 1000000
1, 18720, Tempo, 952381
1, 19935, Tempo, 967742
1, 20400, Tempo, 952381
1, 21000, Tempo, 1000000
1, 21110, Tempo, 1034483
1, 21810, Tempo, 952381
1, 22815, Tempo, 1000000
1, 23295, Tempo, 952381
1, 23760, Tempo, 1000000
1, 23980, Tempo, 1034483
1, 24480, Tempo, 967742
1, 25695, Tempo, 1034483
1, 26130, Tempo, 1000000
1, 26780, Tempo, 1111111
1, 27150, Tempo, 1132075
1, 27360, Tempo, 1111111
1, 28305, Tempo, 1176471
1, 28800, Tempo, 1132075
1, 29640, Tempo, 1176471
1, 29760, Tempo, 2727273
1, 30240, Tempo, 750000
1, 30240, Marker_t, "1 "
1, 31575, Tempo, 769231
1, 31680, Tempo, 750000
1, 32940, Tempo, 789474
1, 33120, Tempo, 750000
1, 34455, Tempo, 769231
1, 34560, Tempo, 750000
1, 35860, Tempo, 789474
1, 36000, Tempo, 750000
1, 37290, Tempo, 789474
1, 37440, Tempo, 750000
1, 38580, Tempo, 769231
1, 38805, Tempo, 810811
1, 38880, Tempo, 750000
1, 40215, Tempo, 769231
1, 40320, Tempo, 750000
1, 41580, Tempo, 769231
1, 41760, Tempo, 750000
1, 43095, Tempo, 769231
1, 43200, Tempo, 750000
1, 44500, Tempo, 789474
1, 44640, Tempo, 750000
1, 45930, Tempo, 810811
1, 46080, Tempo, 750000
1, 47480, Tempo, 810811
1, 47520, Tempo, 750000
1, 48840, Tempo, 769231
1, 49005, Tempo, 750000
1, 49860, Tempo, 769231
1, 50150, Tempo, 789474
1, 50400, Tempo, 750000
1, 51735, Tempo, 769231
1, 51900, Tempo, 750000
1, 52680, Tempo, 769231
1, 52920, Tempo, 789474
1, 53040, Tempo, 810811
1, 53355, Tempo, 750000
1, 54660, Tempo, 769231
1, 54720, Tempo, 769231
1, 55680, Tempo, 789474
1, 55845, Tempo, 810811
1, 56040, Tempo, 821918
1, 56235, Tempo, 810811
1, 57390, Tempo, 821918
1, 57600, Tempo, 845070
1, 58215, Tempo, 2727273
1, 58320, Tempo, 705882
1, 59040, Tempo, 689655
1, 59040, Marker_t, "2 "
1, 60420, Tempo, 705882
1, 60480, Tempo, 689655
1, 64740, Tempo, 705882
1, 64800, Tempo, 689655
1, 66180, Tempo, 722892
1, 66240, Tempo, 705882
1, 67620, Tempo, 722892
1, 67680, Tempo, 705882
1, 69060, Tempo, 722892
1, 69120, Tempo, 689655
1, 73380, Tempo, 705882
1, 73440, Tempo, 689655
1, 74820, Tempo, 722892
1, 74880, Tempo, 689655
1, 76260, Tempo, 705882
1, 76320, Tempo, 705882
1, 82020, Tempo, 705882
1, 82080, Tempo, 689655
1, 83460, Tempo, 705882
1, 83520, Tempo, 689655
1, 84855, Tempo, 705882
1, 84960, Tempo, 689655
1, 86340, Tempo, 705882
1, 87180, Tempo, 731707
1, 87290, Tempo, 845070
1, 87360, Tempo, 1176471
1, 87600, Tempo, 1666667
1, 87840, Tempo, 638298
1, 87840, Marker_t, "3"
1, 90660, Tempo, 674157
1, 90720, Tempo, 638298
1, 93555, Tempo, 652174
1, 94980, Tempo, 659341
1, 95460, Tempo, 750000
1, 96000, Tempo, 750000
1, 96240, Tempo, 769231
1, 96480, Tempo, 638298
1, 99300, Tempo, 674157
1, 99360, Tempo, 638298
1, 102195, Tempo, 652174
1, 103620, Tempo, 659341
1, 104100, Tempo, 750000
1, 104640, Tempo, 769231
1, 104880, Tempo, 845070
1, 105120, Tempo, 638298
1, 107940, Tempo, 652174
1, 108000, Tempo, 638298
1, 110820, Tempo, 652174
1, 110880, Tempo, 638298
1, 112260, Tempo, 652174
1, 112320, Tempo, 645161
1, 113655, Tempo, 659341
1, 113760, Tempo, 652174
1, 115020, Tempo, 659341
1, 115620, Tempo, 810811
1, 116130, Tempo, 1818182
1, 116640, Tempo, 582524
1, 116640, Marker_t, "4"
1, 116760, Tempo, 571429
1, 117150, Tempo, 588235
1, 117360, Tempo, 600000
1, 118080, Tempo, 582524
1, 118200, Tempo, 571429
1, 118575, Tempo, 588235
1, 118830, Tempo, 600000
1, 119640, Tempo, 571429
1, 120015, Tempo, 588235
1, 120255, Tempo, 600000
1, 120960, Tempo, 571429
1, 122340, Tempo, 582524
1, 122400, Tempo, 571429
1, 123780, Tempo, 582524
1, 123840, Tempo, 571429
1, 124800, Tempo, 582524
1, 124860, Tempo, 571429
1, 125220, Tempo, 582524
1, 125280, Tempo, 582524
1, 125400, Tempo, 571429
1, 125775, Tempo, 588235
1, 126015, Tempo, 600000
1, 126720, Tempo, 582524
1, 126840, Tempo, 571429
1, 127215, Tempo, 588235
1, 127410, Tempo, 600000
1, 128160, Tempo, 582524
1, 128280, Tempo, 571429
1, 128640, Tempo, 588235
1, 128880, Tempo, 600000
1, 129600, Tempo, 582524
1, 129720, Tempo, 571429
1, 130980, Tempo, 582524
1, 131040, Tempo, 571429
1, 132420, Tempo, 582524
1, 132480, Tempo, 571429
1, 133440, Tempo, 582524
1, 133500, Tempo, 571429
1, 133860, Tempo, 582524
1, 133920, Tempo, 582524
1, 134040, Tempo, 571429
1, 135930, Tempo, 582524
1, 136095, Tempo, 582524
1, 136740, Tempo, 588235
1, 136800, Tempo, 582524
1, 136920, Tempo, 571429
1, 138825, Tempo, 582524
1, 138960, Tempo, 625000
1, 139200, Tempo, 571429
1, 139620, Tempo, 600000
1, 139680, Tempo, 571429
1, 141060, Tempo, 582524
1, 141120, Tempo, 571429
1, 142200, Tempo, 582524
1, 142320, Tempo, 638298
1, 142560, Tempo, 582524
1, 143940, Tempo, 600000
1, 144105, Tempo, 588235
1, 144900, Tempo, 600000
1, 144960, Tempo, 2727273
1, 145440, Tempo, 625000
1, 146880, Tempo, 769231
1, 146880, Marker_t, "5"
1, 148260, Tempo, 789474
1, 148320, Tempo, 769231
1, 149700, Tempo, 789474
1, 149760, Tempo, 769231
1, 151080, Tempo, 779221
1, 152540, Tempo, 789474
1, 153980, Tempo, 810811
1, 154680, Tempo, 923077
1, 154762, Tempo, 769231
1, 155400, Tempo, 789474
1, 155520, Tempo, 769231
1, 156900, Tempo, 789474
1, 156960, Tempo, 769231
1, 158340, Tempo, 789474
1, 158400, Tempo, 769231
1, 159720, Tempo, 779221
1, 161180, Tempo, 789474
1, 162620, Tempo, 810811
1, 163320, Tempo, 923077
1, 163402, Tempo, 769231
1, 164040, Tempo, 789474
1, 164160, Tempo, 769231
1, 165540, Tempo, 789474
1, 165600, Tempo, 769231
1, 166980, Tempo, 821918
1, 167040, Tempo, 769231
1, 168420, Tempo, 789474
1, 168480, Tempo, 769231
1, 169845, Tempo, 810811
1, 169920, Tempo, 769231
1, 171300, Tempo, 810811
1, 171360, Tempo, 821918
1, 171680, Tempo, 923077
1, 171840, Tempo, 952381
1, 172000, Tempo, 923077
1, 172160, Tempo, 952381
1, 172320, Tempo, 967742
1, 172430, Tempo, 1000000
1, 172570, Tempo, 1071429
1, 172650, Tempo, 1500000
1, 172800, Tempo, 1034483
1, 173640, Tempo, 1132075
1, 173805, Tempo, 1034483
1, 174060, Tempo, 1071429
1, 174120, Tempo, 1333333
1, 174180, Tempo, 2727273
1, 174240, Tempo, 1666667
1, 174547, Tempo, 2727273
1, 174720, Tempo, 2727273
1, 175200, Tempo, 480000
1, 175200, Marker_t, "6"
1, 175680, Time_signature, 4, 2, 24, 8
1, 175680, Tempo, 487805
1, 175920, Tempo, 480000
1, 177600, Tempo, 487805
1, 177840, Tempo, 480000
1, 179520, Tempo, 487805
1, 179760, Tempo, 480000
1, 183360, Tempo, 480000
1, 186480, Tempo, 487805
1, 187200, Tempo, 487805
1, 187440, Tempo, 480000
1, 189120, Tempo, 487805
1, 189360, Tempo, 480000
1, 191040, Tempo, 487805
1, 191280, Tempo, 480000
1, 194880, Tempo, 480000
1, 197760, Tempo, 508475
1, 198240, Tempo, 480000
1, 198720, Tempo, 495868
1, 198960, Tempo, 480000
1, 201885, Tempo, 500000
1, 202080, Tempo, 480000
1, 202560, Tempo, 495868
1, 202800, Tempo, 480000
1, 205710, Tempo, 500000
1, 205920, Tempo, 480000
1, 208320, Tempo, 487805
1, 208560, Tempo, 480000
1, 210230, Tempo, 487805
1, 210240, Tempo, 480000
1, 212100, Tempo, 480000
1, 212340, Tempo, 500000
1, 212400, Tempo, 465116
1, 212640, Tempo, 461538
1, 213600, Tempo, 454545
1, 214020, Tempo, 465116
1, 214080, Tempo, 454545
1, 214080, Marker_t, "7"
1, 215960, Tempo, 461538
1, 216000, Tempo, 454545
1, 217880, Tempo, 461538
1, 217920, Tempo, 454545
1, 219800, Tempo, 461538
1, 219840, Tempo, 454545
1, 223620, Tempo, 461538
1, 223860, Tempo, 461538
1, 223920, Tempo, 454545
1, 225540, Tempo, 461538
1, 225600, Tempo, 454545
1, 229380, Tempo, 461538
1, 229440, Tempo, 454545
1, 229620, Tempo, 461538
1, 229680, Tempo, 454545
1, 233220, Tempo, 461538
1, 233280, Tempo, 454545
1, 233460, Tempo, 461538
1, 233520, Tempo, 454545
1, 235140, Tempo, 461538
1, 235200, Tempo, 454545
1, 235380, Tempo, 461538
1, 235440, Tempo, 454545
1, 237060, Tempo, 461538
1, 237120, Tempo, 454545
1, 238980, Tempo, 461538
1, 239220, Tempo, 472441
1, 239280, Tempo, 454545
1, 240900, Tempo, 461538
1, 240960, Tempo, 454545
1, 241140, Tempo, 461538
1, 241200, Tempo, 454545
1, 242760, Tempo, 461538
1, 244740, Tempo, 472441
1, 244800, Tempo, 454545
1, 244980, Tempo, 461538
1, 245040, Tempo, 454545
1, 246600, Tempo, 461538
1, 248580, Tempo, 465116
1, 248640, Tempo, 454545
1, 250520, Tempo, 461538
1, 250560, Tempo, 454545
1, 254340, Tempo, 461538
1, 254400, Tempo, 454545
1, 258080, Tempo, 472441
1, 258180, Tempo, 487805
1, 258240, Tempo, 465116
1, 261840, Tempo, 500000
1, 261960, Tempo, 722892
1, 262080, Time_signature, 3, 2, 24, 8
1, 262080, Tempo, 895522
1, 262080, Marker_t, "Adagio"
1, 264000, Tempo, 1500000
1, 264620, Tempo, 1666667
1, 264960, Tempo, 1500000
1, 265800, Tempo, 1578947
1, 266055, Tempo, 1764706
1, 266400, Tempo, 1500000
1, 267345, Tempo, 1578947
1, 267720, Tempo, 1666667
1, 267840, Tempo, 1500000
1, 268320, Tempo, 1666667
1, 268380, Tempo, 1578947
1, 268720, Tempo, 1666667
1, 268740, Tempo, 1764706
1, 268800, Tempo, 1500000
1, 269040, Tempo, 2500000
1, 269280, Tempo, 1578947
1, 269640, Tempo, 1666667
1, 270225, Tempo, 1818182
1, 270600, Tempo, 2068966
1, 270720, Tempo, 1818182
1, 271080, Tempo, 2222222
1, 271680, Tempo, 2727273
1, 272160, Tempo, 600000
1, 272160, Marker_t, "Allegro"
1, 275000, Tempo, 612245
1, 275040, Tempo, 600000
1, 279255, Tempo, 625000
1, 279360, Tempo, 600000
1, 280700, Tempo, 652174
1, 280800, Tempo, 600000
1, 282135, Tempo, 612245
1, 282240, Tempo, 600000
1, 283530, Tempo, 625000
1, 283680, Tempo, 600000
1, 285015, Tempo, 612245
1, 285120, Tempo, 600000
1, 286410, Tempo, 625000
1, 286560, Tempo, 600000
1, 290820, Tempo, 625000
1, 290880, Tempo, 600000
1, 292230, Tempo, 652174
1, 292320, Tempo, 600000
1, 293655, Tempo, 625000
1, 293760, Tempo, 600000
1, 295110, Tempo, 625000
1, 295200, Tempo, 600000
1, 296535, Tempo, 625000
1, 296640, Tempo, 600000
1, 297960, Tempo, 625000
1, 298080, Tempo, 600000
1, 299400, Tempo, 625000
1, 299520, Tempo, 600000
1, 300900, Tempo, 612245
1, 301800, Tempo, 625000
1, 302280, Tempo, 638298
1, 302340, Tempo, 689655
1, 302430, Tempo, 588235
1, 303780, Tempo, 588235
1, 303840, Tempo, 582524
1, 305160, Tempo, 612245
1, 305325, Tempo, 582524
1, 306660, Tempo, 588235
1, 306720, Tempo, 582524
1, 308100, Tempo, 600000
1, 308175, Tempo, 571429
1, 309315, Tempo, 600000
1, 309480, Tempo, 769231
1, 309600, Tempo, 769231
1, 310080, Tempo, 845070
1, 310080, End_track
2, 0, Start_track
2, 0, Title_t, "Beethoven"
2, 0, Control_c, 0, 0, 0
2, 0, Control_c, 0, 7, 115
2, 0, Control_c, 0, 10, 79
2, 0, Control_c, 0, 91, 100
2, 0, Control_c, 0, 93, 28
2, 0, Pitch_bend_c, 0, 8192
2, 0, Control_c, 0, 1, 0
2, 0, Control_c, 0, 64, 127
2, 1, Control_c, 0, 32, 0
2, 1, Program_c, 0, 0
2, 1440, Control_c, 0, 7, 127
2, 1440, Control_c, 0, 64, 0
2, 1440, Note_on_c, 0, 72, 67
2, 1920, Note_on_c, 0, 72, 0
2, 1920, Note_on_c, 0, 72, 70
2, 2400, Note_on_c, 0, 72, 0
2, 2400, Note_on_c, 0, 74, 75
2, 2880, Note_on_c, 0, 74, 0
2, 2880, Note_on_c, 0, 71, 81
2, 3600, Note_on_c, 0, 71, 0
2, 3600, Note_on_c, 0, 72, 70
2, 3840, Note_on_c, 0, 72, 0
2, 3840, Note_on_c, 0, 74, 67
2, 4260, Note_on_c, 0, 74, 0
2, 4320, Note_on_c, 0, 76, 71
2, 4800, Note_on_c, 0, 76, 0
2, 4800, Note_on_c, 0, 76, 75
2, 5280, Note_on_c, 0, 76, 0
2, 5280, Note_on_c, 0, 77, 76
2, 5760, Note_on_c, 0, 77, 0
2, 5760, Note_on_c, 0, 76, 81
2, 6480, Note_on_c, 0, 76, 0
2, 6480, Note_on_c, 0, 74, 74
2, 6720, Note_on_c, 0, 74, 0
2, 6720, Note_on_c, 0, 72, 71
2, 7147, Note_on_c, 0, 72, 0
2, 7200, Note_on_c, 0, 76, 77
2, 7440, Note_on_c, 0, 76, 0
2, 7440, Note_on_c, 0, 74, 75
2, 7680, Note_on_c, 0, 74, 0
2, 7680, Note_on_c, 0, 72, 73
2, 8160, Note_on_c, 0, 72, 0
2, 8160, Note_on_c, 0, 71, 70
2, 8640, Note_on_c, 0, 71, 0
2, 8640, Note_on_c, 0, 72, 66
2, 9215, Note_on_c, 0, 72, 0
2, 10080, Control_c, 0, 7, 117
2, 10080, Control_c, 0, 64, 0
2, 10080, Note_on_c, 0, 72, 67
2, 10560, Note_on_c, 0, 72, 0
2, 10560, Note_on_c, 0, 72, 70
2, 11040, Note_on_c, 0, 72, 0
2, 11040, Note_on_c, 0, 74, 75
2, 11520, Note_on_c, 0, 74, 0
2, 11520, Note_on_c, 0, 71, 81
2, 12240, Note_on_c, 0, 71, 0
2, 12240, Note_on_c, 0, 72, 70
2, 12480, Note_on_c, 0, 72, 0
2, 12480, Note_on_c, 0, 74, 68
2, 12900, Note_on_c, 0, 74, 0
2, 12960, Note_on_c, 0, 76, 71
2, 13440, Note_on_c, 0, 76, 0
2, 13440, Note_on_c, 0, 76, 75
2, 13920, Note_on_c, 0, 76, 0
2, 13920, Note_on_c, 0, 77, 76
2, 14400, Note_on_c, 0, 77, 0
2, 14400, Note_on_c, 0, 76, 81
2, 15120, Note_on_c, 0, 76, 0
2, 15120, Note_on_c, 0, 74, 74
2, 15360, Note_on_c, 0, 74, 0
2, 15360, Note_on_c, 0, 72, 70
2, 15787, Note_on_c, 0, 72, 0
2, 15840, Note_on_c, 0, 76, 77
2, 16080, Note_on_c, 0, 76, 0
2, 16080, Note_on_c, 0, 74, 75
2, 16320, Note_on_c, 0, 74, 0
2, 16320, Note_on_c, 0, 72, 73
2, 16800, Note_on_c, 0, 72, 0
2, 16800, Note_on_c, 0, 71, 69
2, 17280, Note_on_c, 0, 71, 0
2, 17280, Note_on_c, 0, 72, 67
2, 17855, Note_on_c, 0, 72, 0
2, 18000, Control_c, 0, 7, 127
2, 18000, Note_on_c, 0, 74, 79
2, 18240, Note_on_c, 0, 74, 0
2, 18240, Note_on_c, 0, 76, 82
2, 18480, Note_on_c, 0, 76, 0
2, 18480, Note_on_c, 0, 77, 85
2, 18720, Note_on_c, 0, 77, 0
2, 18720, Control_c, 0, 64, 0
2, 18720, Note_on_c, 0, 79, 90
2, 19200, Note_on_c, 0, 79, 0
2, 19200, Note_on_c, 0, 79, 91
2, 19680, Note_on_c, 0, 79, 0
2, 19680, Note_on_c, 0, 79, 94
2, 20160, Note_on_c, 0, 79, 0
2, 20160, Note_on_c, 0, 79, 97
2, 20880, Note_on_c, 0, 79, 0
2, 20880, Note_on_c, 0, 77, 88
2, 21120, Note_on_c, 0, 77, 0
2, 21120, Note_on_c, 0, 76, 84
2, 21540, Note_on_c, 0, 76, 0
2, 21600, Note_on_c, 0, 77, 82
2, 22080, Note_on_c, 0, 77, 0
2, 22080, Note_on_c, 0, 77, 85
2, 22560, Note_on_c, 0, 77, 0
2, 22560, Note_on_c, 0, 77, 88
2, 23040, Note_on_c, 0, 77, 0
2, 23040, Note_on_c, 0, 77, 94
2, 23760, Note_on_c, 0, 77, 0
2, 23760, Note_on_c, 0, 76, 86
2, 24000, Note_on_c, 0, 76, 0
2, 24000, Note_on_c, 0, 74, 80
2, 24427, Note_on_c, 0, 74, 0
2, 24480, Note_on_c, 0, 76, 82
2, 24960, Note_on_c, 0, 76, 0
2, 24960, Note_on_c, 0, 77, 86
2, 25200, Note_on_c, 0, 77, 0
2, 25200, Note_on_c, 0, 76, 87
2, 25440, Note_on_c, 0, 76, 0
2, 25440, Note_on_c, 0, 74, 89
2, 25680, Note_on_c, 0, 74, 0
2, 25680, Note_on_c, 0, 72, 91
2, 25920, Note_on_c, 0, 72, 0
2, 25920, Note_on_c, 0, 76, 93
2, 26640, Note_on_c, 0, 76, 0
2, 26640, Note_on_c, 0, 77, 99
2, 26880, Note_on_c, 0, 77, 0
2, 26880, Note_on_c, 0, 79, 101
2, 27300, Note_on_c, 0, 79, 0
2, 27360, Note_on_c, 0, 81, 107
2, 27520, Note_on_c, 0, 81, 0
2, 27520, Note_on_c, 0, 79, 103
2, 27680, Note_on_c, 0, 79, 0
2, 27680, Note_on_c, 0, 77, 98
2, 27840, Note_on_c, 0, 77, 0
2, 27840, Note_on_c, 0, 76, 93
2, 28320, Note_on_c, 0, 76, 0
2, 28320, Note_on_c, 0, 74, 90
2, 28800, Note_on_c, 0, 74, 0
2, 28800, Note_on_c, 0, 72, 88
2, 29280, Note_on_c, 0, 72, 0
2, 30240, Control_c, 0, 7, 127
2, 30240, Control_c, 0, 64, 0
2, 30240, Note_on_c, 0, 72, 66
2, 30480, Note_on_c, 0, 72, 0
2, 30480, Note_on_c, 0, 71, 68
2, 30720, Note_on_c, 0, 71, 0
2, 30720, Note_on_c, 0, 72, 71
2, 31200, Note_on_c, 0, 72, 0
2, 31200, Note_on_c, 0, 74, 75
2, 31680, Note_on_c, 0, 74, 0
2, 31680, Note_on_c, 0, 71, 79
2, 32400, Note_on_c, 0, 71, 0
2, 32400, Note_on_c, 0, 72, 73
2, 32640, Note_on_c, 0, 72, 0
2, 32640, Note_on_c, 0, 74, 70
2, 32880, Note_on_c, 0, 74, 0
2, 32880, Note_on_c, 0, 71, 68
2, 33120, Note_on_c, 0, 71, 0
2, 33120, Note_on_c, 0, 76, 68
2, 33360, Note_on_c, 0, 76, 0
2, 33360, Note_on_c, 0, 75, 71
2, 33600, Note_on_c, 0, 75, 0
2, 33600, Note_on_c, 0, 76, 74
2, 34080, Note_on_c, 0, 76, 0
2, 34080, Note_on_c, 0, 79, 86
2, 34320, Note_on_c, 0, 79, 0
2, 34320, Note_on_c, 0, 77, 83
2, 34800, Note_on_c, 0, 77, 0
2, 34800, Note_on_c, 0, 76, 77
2, 35280, Note_on_c, 0, 76, 0
2, 35280, Note_on_c, 0, 74, 70
2, 35520, Note_on_c, 0, 74, 0
2, 35520, Note_on_c, 0, 72, 66
2, 35760, Note_on_c, 0, 72, 0
2, 35760, Note_on_c, 0, 73, 71
2, 36000, Note_on_c, 0, 73, 0
2, 36000, Note_on_c, 0, 76, 79
2, 36240, Note_on_c, 0, 76, 0
2, 36240, Note_on_c, 0, 74, 69
2, 36360, Note_on_c, 0, 74, 0
2, 36480, Note_on_c, 0, 74, 74
2, 36720, Note_on_c, 0, 74, 0
2, 36720, Note_on_c, 0, 72, 62
2, 36840, Note_on_c, 0, 72, 0
2, 36960, Note_on_c, 0, 72, 68
2, 37200, Note_on_c, 0, 72, 0
2, 37200, Note_on_c, 0, 71, 58
2, 37320, Note_on_c, 0, 71, 0
2, 37440, Note_on_c, 0, 72, 60
2, 37680, Note_on_c, 0, 72, 0
2, 37680, Control_c, 0, 7, 117
2, 37680, Note_on_c, 0, 64, 56
2, 37920, Note_on_c, 0, 64, 0
2, 37920, Note_on_c, 0, 65, 59
2, 38160, Note_on_c, 0, 65, 0
2, 38160, Note_on_c, 0, 67, 61
2, 38400, Note_on_c, 0, 67, 0
2, 38400, Note_on_c, 0, 69, 64
2, 38640, Note_on_c, 0, 69, 0
2, 38640, Note_on_c, 0, 71, 66
2, 38880, Note_on_c, 0, 71, 0
2, 38880, Control_c, 0, 64, 0
2, 38880, Note_on_c, 0, 72, 69
2, 39120, Note_on_c, 0, 72, 0
2, 39120, Note_on_c, 0, 71, 68
2, 39360, Note_on_c, 0, 71, 0
2, 39360, Note_on_c, 0, 72, 71
2, 39840, Note_on_c, 0, 72, 0
2, 39840, Note_on_c, 0, 74, 75
2, 40320, Note_on_c, 0, 74, 0
2, 40320, Note_on_c, 0, 71, 79
2, 41040, Note_on_c, 0, 71, 0
2, 41040, Note_on_c, 0, 72, 73
2, 41280, Note_on_c, 0, 72, 0
2, 41280, Note_on_c, 0, 74, 70
2, 41520, Note_on_c, 0, 74, 0
2, 41520, Note_on_c, 0, 71, 68
2, 41760, Note_on_c, 0, 71, 0
2, 41760, Note_on_c, 0, 76, 68
2, 42000, Note_on_c, 0, 76, 0
2, 42000, Note_on_c, 0, 75, 71
2, 42240, Note_on_c, 0, 75, 0
2, 42240, Note_on_c, 0, 76, 74
2, 42720, Note_on_c, 0, 76, 0
2, 42720, Note_on_c, 0, 79, 86
2, 42960, Note_on_c, 0, 79, 0
2, 42960, Note_on_c, 0, 77, 83
2, 43440, Note_on_c, 0, 77, 0
2, 43440, Note_on_c, 0, 76, 77
2, 43920, Note_on_c, 0, 76, 0
2, 43920, Note_on_c, 0, 74, 70
2, 44160, Note_on_c, 0, 74, 0
2, 44160, Note_on_c, 0, 72, 66
2, 44400, Note_on_c, 0, 72, 0
2, 44400, Note_on_c, 0, 73, 71
2, 44640, Note_on_c, 0, 73, 0
2, 44640, Note_on_c, 0, 76, 79
2, 44880, Note_on_c, 0, 76, 0
2, 44880, Note_on_c, 0, 74, 69
2, 45000, Note_on_c, 0, 74, 0
2, 45120, Note_on_c, 0, 74, 74
2, 45360, Note_on_c, 0, 74, 0
2, 45360, Note_on_c, 0, 72, 62
2, 45480, Note_on_c, 0, 72, 0
2, 45600, Note_on_c, 0, 72, 68
2, 45840, Note_on_c, 0, 72, 0
2, 45840, Note_on_c, 0, 71, 58
2, 45960, Note_on_c, 0, 71, 0
2, 46080, Note_on_c, 0, 72, 60
2, 46320, Note_on_c, 0, 72, 0
2, 46320, Control_c, 0, 7, 127
2, 46320, Note_on_c, 0, 71, 63
2, 46560, Note_on_c, 0, 71, 0
2, 46560, Note_on_c, 0, 72, 67
2, 46800, Note_on_c, 0, 72, 0
2, 46800, Note_on_c, 0, 74, 71
2, 47040, Note_on_c, 0, 74, 0
2, 47040, Note_on_c, 0, 76, 75
2, 47280, Note_on_c, 0, 76, 0
2, 47280, Note_on_c, 0, 77, 79
2, 47520, Note_on_c, 0, 77, 0
2, 47520, Control_c, 0, 64, 0
2, 47520, Note_on_c, 0, 79, 86
2, 48000, Note_on_c, 0, 79, 0
2, 48000, Note_on_c, 0, 79, 89
2, 48480, Note_on_c, 0, 79, 0
2, 48480, Note_on_c, 0, 79, 92
2, 48960, Note_on_c, 0, 79, 0
2, 48960, Note_on_c, 0, 79, 99
2, 49680, Note_on_c, 0, 79, 0
2, 49680, Note_on_c, 0, 77, 88
2, 49920, Note_on_c, 0, 77, 0
2, 49920, Note_on_c, 0, 76, 85
2, 50400, Note_on_c, 0, 76, 0
2, 50400, Note_on_c, 0, 77, 84
2, 50880, Note_on_c, 0, 77, 0
2, 50880, Note_on_c, 0, 77, 86
2, 51360, Note_on_c, 0, 77, 0
2, 51360, Note_on_c, 0, 77, 89
2, 51840, Note_on_c, 0, 77, 0
2, 51840, Note_on_c, 0, 77, 96
2, 52560, Note_on_c, 0, 77, 0
2, 52560, Note_on_c, 0, 76, 88
2, 52800, Note_on_c, 0, 76, 0
2, 52800, Note_on_c, 0, 74, 85
2, 53280, Note_on_c, 0, 74, 0
2, 53280, Note_on_c, 0, 76, 84
2, 53760, Note_on_c, 0, 76, 0
2, 53760, Note_on_c, 0, 77, 86
2, 54000, Note_on_c, 0, 77, 0
2, 54000, Note_on_c, 0, 76, 87
2, 54240, Note_on_c, 0, 76, 0
2, 54240, Note_on_c, 0, 74, 88
2, 54480, Note_on_c, 0, 74, 0
2, 54480, Note_on_c, 0, 72, 90
2, 54720, Note_on_c, 0, 72, 0
2, 54960, Note_on_c, 0, 76, 96
2, 55440, Note_on_c, 0, 76, 0
2, 55440, Note_on_c, 0, 77, 104
2, 55680, Note_on_c, 0, 77, 0
2, 55680, Note_on_c, 0, 79, 107
2, 55920, Note_on_c, 0, 79, 0
2, 55920, Note_on_c, 0, 80, 111
2, 56160, Note_on_c, 0, 80, 0
2, 56160, Note_on_c, 0, 81, 115
2, 56400, Note_on_c, 0, 81, 0
2, 56400, Note_on_c, 0, 77, 110
2, 56880, Note_on_c, 0, 77, 0
2, 56880, Note_on_c, 0, 76, 106
2, 57360, Note_on_c, 0, 76, 0
2, 57360, Note_on_c, 0, 74, 102
2, 58080, Note_on_c, 0, 74, 0
2, 58080, Note_on_c, 0, 72, 88
2, 58320, Note_on_c, 0, 72, 0
2, 59640, Note_on_c, 0, 64, 68
2, 59760, Note_on_c, 0, 64, 0
2, 59760, Note_on_c, 0, 69, 69
2, 59880, Note_on_c, 0, 69, 0
2, 59880, Note_on_c, 0, 67, 70
2, 60000, Note_on_c, 0, 67, 0
2, 60000, Note_on_c, 0, 65, 71
2, 60120, Note_on_c, 0, 65, 0
2, 60120, Note_on_c, 0, 69, 72
2, 60240, Note_on_c, 0, 69, 0
2, 60240, Note_on_c, 0, 74, 72
2, 60360, Note_on_c, 0, 74, 0
2, 60360, Note_on_c, 0, 72, 73
2, 60480, Note_on_c, 0, 72, 0
2, 60480, Note_on_c, 0, 71, 78
2, 60600, Note_on_c, 0, 71, 0
2, 60600, Note_on_c, 0, 69, 74
2, 60720, Note_on_c, 0, 69, 0
2, 60720, Note_on_c, 0, 67, 73
2, 60840, Note_on_c, 0, 67, 0
2, 60840, Note_on_c, 0, 69, 70
2, 60960, Note_on_c, 0, 69, 0
2, 60960, Note_on_c, 0, 71, 72
2, 61080, Note_on_c, 0, 71, 0
2, 61080, Note_on_c, 0, 69, 73
2, 61200, Note_on_c, 0, 69, 0
2, 61200, Note_on_c, 0, 71, 75
2, 61320, Note_on_c, 0, 71, 0
2, 61320, Note_on_c, 0, 72, 77
2, 61440, Note_on_c, 0, 72, 0
2, 61440, Note_on_c, 0, 74, 78
2, 61560, Note_on_c, 0, 74, 0
2, 61560, Note_on_c, 0, 71, 80
2, 61680, Note_on_c, 0, 71, 0
2, 61680, Note_on_c, 0, 72, 81
2, 61800, Note_on_c, 0, 72, 0
2, 61800, Note_on_c, 0, 74, 83
2, 61920, Note_on_c, 0, 74, 0
2, 61920, Note_on_c, 0, 76, 88
2, 62040, Note_on_c, 0, 76, 0
2, 62040, Note_on_c, 0, 74, 81
2, 62160, Note_on_c, 0, 74, 0
2, 62160, Note_on_c, 0, 72, 82
2, 62280, Note_on_c, 0, 72, 0
2, 62280, Note_on_c, 0, 74, 83
2, 62400, Note_on_c, 0, 74, 0
2, 62400, Note_on_c, 0, 76, 83
2, 62520, Note_on_c, 0, 76, 0
2, 62520, Note_on_c, 0, 74, 84
2, 62640, Note_on_c, 0, 74, 0
2, 62640, Note_on_c, 0, 76, 85
2, 62760, Note_on_c, 0, 76, 0
2, 62760, Note_on_c, 0, 72, 85
2, 62880, Note_on_c, 0, 72, 0
2, 62880, Note_on_c, 0, 69, 93
2, 63000, Note_on_c, 0, 69, 0
2, 63000, Note_on_c, 0, 77, 86
2, 63120, Note_on_c, 0, 77, 0
2, 63120, Note_on_c, 0, 79, 89
2, 63240, Note_on_c, 0, 79, 0
2, 63240, Note_on_c, 0, 77, 92
2, 63360, Note_on_c, 0, 77, 0
2, 63360, Note_on_c, 0, 67, 98
2, 63480, Note_on_c, 0, 67, 0
2, 63480, Note_on_c, 0, 76, 90
2, 63600, Note_on_c, 0, 76, 0
2, 63600, Note_on_c, 0, 77, 90
2, 63720, Note_on_c, 0, 77, 0
2, 63720, Note_on_c, 0, 76, 91
2, 63840, Note_on_c, 0, 76, 0
2, 63840, Note_on_c, 0, 65, 100
2, 63960, Note_on_c, 0, 65, 0
2, 63960, Note_on_c, 0, 74, 92
2, 64080, Note_on_c, 0, 74, 0
2, 64080, Note_on_c, 0, 76, 93
2, 64200, Note_on_c, 0, 76, 0
2, 64200, Note_on_c, 0, 74, 94
2, 64320, Note_on_c, 0, 74, 0
2, 64320, Note_on_c, 0, 64, 104
2, 64440, Note_on_c, 0, 64, 0
2, 64440, Note_on_c, 0, 72, 96
2, 64560, Note_on_c, 0, 72, 0
2, 64560, Note_on_c, 0, 64, 99
2, 64680, Note_on_c, 0, 64, 0
2, 64680, Note_on_c, 0, 73, 102
2, 64800, Note_on_c, 0, 73, 0
2, 64800, Note_on_c, 0, 65, 112
2, 64920, Note_on_c, 0, 65, 0
2, 64920, Note_on_c, 0, 74, 105
2, 65040, Note_on_c, 0, 74, 0
2, 65040, Note_on_c, 0, 76, 105
2, 65160, Note_on_c, 0, 76, 0
2, 65160, Note_on_c, 0, 74, 105
2, 65280, Note_on_c, 0, 74, 0
2, 65280, Note_on_c, 0, 64, 114
2, 65400, Note_on_c, 0, 64, 0
2, 65400, Note_on_c, 0, 72, 106
2, 65520, Note_on_c, 0, 72, 0
2, 65520, Note_on_c, 0, 74, 107
2, 65640, Note_on_c, 0, 74, 0
2, 65640, Note_on_c, 0, 72, 107
2, 65760, Note_on_c, 0, 72, 0
2, 65760, Note_on_c, 0, 62, 114
2, 65880, Note_on_c, 0, 62, 0
2, 65880, Note_on_c, 0, 71, 108
2, 66000, Note_on_c, 0, 71, 0
2, 66000, Note_on_c, 0, 72, 108
2, 66120, Note_on_c, 0, 72, 0
2, 66120, Note_on_c, 0, 71, 109
2, 66240, Note_on_c, 0, 71, 0
2, 66240, Note_on_c, 0, 64, 114
2, 66360, Note_on_c, 0, 64, 0
2, 66360, Note_on_c, 0, 72, 100
2, 66480, Note_on_c, 0, 72, 0
2, 66480, Note_on_c, 0, 71, 95
2, 66600, Note_on_c, 0, 71, 0
2, 66600, Note_on_c, 0, 72, 91
2, 66720, Note_on_c, 0, 72, 0
2, 66840, Note_on_c, 0, 72, 87
2, 66960, Note_on_c, 0, 72, 0
2, 67080, Note_on_c, 0, 72, 83
2, 67200, Note_on_c, 0, 72, 0
2, 67320, Note_on_c, 0, 72, 80
2, 67440, Note_on_c, 0, 72, 0
2, 67560, Note_on_c, 0, 72, 76
2, 67680, Note_on_c, 0, 72, 0
2, 67680, Control_c, 0, 7, 117
2, 67680, Control_c, 0, 64, 0
2, 68280, Note_on_c, 0, 64, 68
2, 68400, Note_on_c, 0, 64, 0
2, 68400, Note_on_c, 0, 69, 69
2, 68520, Note_on_c, 0, 69, 0
2, 68520, Note_on_c, 0, 67, 70
2, 68640, Note_on_c, 0, 67, 0
2, 68640, Note_on_c, 0, 65, 71
2, 68760, Note_on_c, 0, 65, 0
2, 68760, Note_on_c, 0, 69, 72
2, 68880, Note_on_c, 0, 69, 0
2, 68880, Note_on_c, 0, 74, 72
2, 69000, Note_on_c, 0, 74, 0
2, 69000, Note_on_c, 0, 72, 73
2, 69120, Note_on_c, 0, 72, 0
2, 69120, Note_on_c, 0, 71, 78
2, 69240, Note_on_c, 0, 71, 0
2, 69240, Note_on_c, 0, 69, 74
2, 69360, Note_on_c, 0, 69, 0
2, 69360, Note_on_c, 0, 67, 73
2, 69480, Note_on_c, 0, 67, 0
2, 69480, Note_on_c, 0, 69, 70
2, 69600, Note_on_c, 0, 69, 0
2, 69600, Note_on_c, 0, 71, 72
2, 69720, Note_on_c, 0, 71, 0
2, 69720, Note_on_c, 0, 69, 73
2, 69840, Note_on_c, 0, 69, 0
2, 69840, Note_on_c, 0, 71, 75
2, 69960, Note_on_c, 0, 71, 0
2, 69960, Note_on_c, 0, 72, 77
2, 70080, Note_on_c, 0, 72, 0
2, 70080, Note_on_c, 0, 74, 78
2, 70200, Note_on_c, 0, 74, 0
2, 70200, Note_on_c, 0, 71, 80
2, 70320, Note_on_c, 0, 71, 0
2, 70320, Note_on_c, 0, 72, 81
2, 70440, Note_on_c, 0, 72, 0
2, 70440, Note_on_c, 0, 74, 83
2, 70560, Note_on_c, 0, 74, 0
2, 70560, Note_on_c, 0, 76, 88
2, 70680, Note_on_c, 0, 76, 0
2, 70680, Note_on_c, 0, 74, 81
2, 70800, Note_on_c, 0, 74, 0
2, 70800, Note_on_c, 0, 72, 82
2, 70920, Note_on_c, 0, 72, 0
2, 70920, Note_on_c, 0, 74, 83
2, 71040, Note_on_c, 0, 74, 0
2, 71040, Note_on_c, 0, 76, 83
2, 71160, Note_on_c, 0, 76, 0
2, 71160, Note_on_c, 0, 74, 84
2, 71280, Note_on_c, 0, 74, 0
2, 71280, Note_on_c, 0, 76, 85
2, 71400, Note_on_c, 0, 76, 0
2, 71400, Note_on_c, 0, 72, 85
2, 71520, Note_on_c, 0, 72, 0
2, 71520, Note_on_c, 0, 69, 93
2, 71640, Note_on_c, 0, 69, 0
2, 71640, Note_on_c, 0, 77, 86
2, 71760, Note_on_c, 0, 77, 0
2, 71760, Note_on_c, 0, 79, 89
2, 71880, Note_on_c, 0, 79, 0
2, 71880, Note_on_c, 0, 77, 92
2, 72000, Note_on_c, 0, 77, 0
2, 72000, Note_on_c, 0, 67, 98
2, 72120, Note_on_c, 0, 67, 0
2, 72120, Note_on_c, 0, 76, 90
2, 72240, Note_on_c, 0, 76, 0
2, 72240, Note_on_c, 0, 77, 90
2, 72360, Note_on_c, 0, 77, 0
2, 72360, Note_on_c, 0, 76, 91
2, 72480, Note_on_c, 0, 76, 0
2, 72480, Note_on_c, 0, 65, 100
2, 72600, Note_on_c, 0, 65, 0
2, 72600, Note_on_c, 0, 74, 92
2, 72720, Note_on_c, 0, 74, 0
2, 72720, Note_on_c, 0, 76, 93
2, 72840, Note_on_c, 0, 76, 0
2, 72840, Note_on_c, 0, 74, 94
2, 72960, Note_on_c, 0, 74, 0
2, 72960, Note_on_c, 0, 64, 104
2, 73080, Note_on_c, 0, 64, 0
2, 73080, Note_on_c, 0, 72, 96
2, 73200, Note_on_c, 0, 72, 0
2, 73200, Note_on_c, 0, 64, 99
2, 73320, Note_on_c, 0, 64, 0
2, 73320, Note_on_c, 0, 73, 102
2, 73440, Note_on_c, 0, 73, 0
2, 73440, Note_on_c, 0, 65, 112
2, 73560, Note_on_c, 0, 65, 0
2, 73560, Note_on_c, 0, 74, 105
2, 73680, Note_on_c, 0, 74, 0
2, 73680, Note_on_c, 0, 76, 105
2, 73800, Note_on_c, 0, 76, 0
2, 73800, Note_on_c, 0, 74, 105
2, 73920, Note_on_c, 0, 74, 0
2, 73920, Note_on_c, 0, 64, 114
2, 74040, Note_on_c, 0, 64, 0
2, 74040, Note_on_c, 0, 72, 106
2, 74160, Note_on_c, 0, 72, 0
2, 74160, Note_on_c, 0, 74, 107
2, 74280, Note_on_c, 0, 74, 0
2, 74280, Note_on_c, 0, 72, 107
2, 74400, Note_on_c, 0, 72, 0
2, 74400, Note_on_c, 0, 62, 114
2, 74520, Note_on_c, 0, 62, 0
2, 74520, Note_on_c, 0, 71, 108
2, 74640, Note_on_c, 0, 71, 0
2, 74640, Note_on_c, 0, 72, 108
2, 74760, Note_on_c, 0, 72, 0
2, 74760, Note_on_c, 0, 71, 109
2, 74880, Note_on_c, 0, 71, 0
2, 74880, Note_on_c, 0, 64, 114
2, 75000, Note_on_c, 0, 64, 0
2, 75000, Control_c, 0, 7, 127
2, 75000, Note_on_c, 0, 72, 100
2, 75120, Note_on_c, 0, 72, 0
2, 75120, Note_on_c, 0, 71, 95
2, 75240, Note_on_c, 0, 71, 0
2, 75240, Note_on_c, 0, 72, 91
2, 75360, Note_on_c, 0, 72, 0
2, 75360, Note_on_c, 0, 71, 87
2, 75480, Note_on_c, 0, 71, 0
2, 75480, Note_on_c, 0, 72, 82
2, 75600, Note_on_c, 0, 72, 0
2, 75600, Note_on_c, 0, 74, 78
2, 75720, Note_on_c, 0, 74, 0
2, 75840, Note_on_c, 0, 76, 82
2, 75960, Note_on_c, 0, 76, 0
2, 76080, Note_on_c, 0, 77, 86
2, 76200, Note_on_c, 0, 77, 0
2, 76320, Note_on_c, 0, 79, 100
2, 76416, Note_on_c, 0, 79, 0
2, 76560, Note_on_c, 0, 76, 90
2, 76656, Note_on_c, 0, 76, 0
2, 76800, Note_on_c, 0, 72, 94
2, 76896, Note_on_c, 0, 72, 0
2, 77040, Note_on_c, 0, 76, 98
2, 77136, Note_on_c, 0, 76, 0
2, 77280, Note_on_c, 0, 79, 110
2, 77376, Note_on_c, 0, 79, 0
2, 77520, Note_on_c, 0, 78, 103
2, 77616, Note_on_c, 0, 78, 0
2, 77760, Note_on_c, 0, 79, 107
2, 77856, Note_on_c, 0, 79, 0
2, 78000, Note_on_c, 0, 76, 98
2, 78096, Note_on_c, 0, 76, 0
2, 78240, Note_on_c, 0, 72, 96
2, 78336, Note_on_c, 0, 72, 0
2, 78480, Note_on_c, 0, 79, 93
2, 78576, Note_on_c, 0, 79, 0
2, 78720, Note_on_c, 0, 77, 91
2, 78816, Note_on_c, 0, 77, 0
2, 78960, Note_on_c, 0, 76, 88
2, 79056, Note_on_c, 0, 76, 0
2, 79200, Control_c, 0, 64, 0
2, 79200, Note_on_c, 0, 77, 98
2, 79296, Note_on_c, 0, 77, 0
2, 79440, Note_on_c, 0, 74, 86
2, 79536, Note_on_c, 0, 74, 0
2, 79680, Note_on_c, 0, 71, 92
2, 79776, Note_on_c, 0, 71, 0
2, 79920, Note_on_c, 0, 74, 98
2, 80016, Note_on_c, 0, 74, 0
2, 80160, Note_on_c, 0, 77, 109
2, 80256, Note_on_c, 0, 77, 0
2, 80400, Note_on_c, 0, 76, 97
2, 80496, Note_on_c, 0, 76, 0
2, 80640, Note_on_c, 0, 77, 102
2, 80736, Note_on_c, 0, 77, 0
2, 80880, Note_on_c, 0, 74, 90
2, 80976, Note_on_c, 0, 74, 0
2, 81120, Note_on_c, 0, 71, 87
2, 81216, Note_on_c, 0, 71, 0
2, 81360, Note_on_c, 0, 77, 84
2, 81456, Note_on_c, 0, 77, 0
2, 81600, Note_on_c, 0, 76, 81
2, 81696, Note_on_c, 0, 76, 0
2, 81840, Note_on_c, 0, 75, 77
2, 81936, Note_on_c, 0, 75, 0
2, 82080, Note_on_c, 0, 76, 74
2, 82200, Note_on_c, 0, 76, 0
2, 82200, Note_on_c, 0, 75, 75
2, 82320, Note_on_c, 0, 75, 0
2, 82320, Note_on_c, 0, 76, 76
2, 82440, Note_on_c, 0, 76, 0
2, 82440, Note_on_c, 0, 72, 77
2, 82560, Note_on_c, 0, 72, 0
2, 82560, Note_on_c, 0, 77, 79
2, 82680, Note_on_c, 0, 77, 0
2, 82680, Note_on_c, 0, 76, 80
2, 82800, Note_on_c, 0, 76, 0
2, 82800, Note_on_c, 0, 74, 81
2, 82920, Note_on_c, 0, 74, 0
2, 82920, Note_on_c, 0, 72, 82
2, 83040, Note_on_c, 0, 72, 0
2, 83040, Note_on_c, 0, 81, 84
2, 83160, Note_on_c, 0, 81, 0
2, 83160, Note_on_c, 0, 79, 85
2, 83280, Note_on_c, 0, 79, 0
2, 83280, Note_on_c, 0, 77, 86
2, 83400, Note_on_c, 0, 77, 0
2, 83400, Note_on_c, 0, 76, 87
2, 83520, Note_on_c, 0, 76, 0
2, 83520, Note_on_c, 0, 84, 93
2, 83640, Note_on_c, 0, 84, 0
2, 83640, Note_on_c, 0, 83, 88
2, 83760, Note_on_c, 0, 83, 0
2, 83760, Note_on_c, 0, 84, 89
2, 83880, Note_on_c, 0, 84, 0
2, 84000, Note_on_c, 0, 84, 90
2, 84120, Note_on_c, 0, 84, 0
2, 84240, Note_on_c, 0, 83, 91
2, 84360, Note_on_c, 0, 83, 0
2, 84480, Note_on_c, 0, 82, 93
2, 84600, Note_on_c, 0, 82, 0
2, 84720, Note_on_c, 0, 80, 94
2, 84840, Note_on_c, 0, 80, 0
2, 84960, Note_on_c, 0, 81, 100
2, 85080, Note_on_c, 0, 81, 0
2, 85080, Note_on_c, 0, 76, 96
2, 85200, Note_on_c, 0, 76, 0
2, 85200, Note_on_c, 0, 77, 97
2, 85320, Note_on_c, 0, 77, 0
2, 85320, Note_on_c, 0, 74, 97
2, 85440, Note_on_c, 0, 74, 0
2, 85440, Note_on_c, 0, 72, 98
2, 85560, Note_on_c, 0, 72, 0
2, 85560, Note_on_c, 0, 76, 99
2, 85680, Note_on_c, 0, 76, 0
2, 85680, Note_on_c, 0, 79, 99
2, 85800, Note_on_c, 0, 79, 0
2, 85800, Note_on_c, 0, 78, 100
2, 85920, Note_on_c, 0, 78, 0
2, 85920, Note_on_c, 0, 77, 101
2, 86040, Note_on_c, 0, 77, 0
2, 86040, Note_on_c, 0, 76, 101
2, 86160, Note_on_c, 0, 76, 0
2, 86160, Note_on_c, 0, 77, 102
2, 86280, Note_on_c, 0, 77, 0
2, 86280, Note_on_c, 0, 74, 103
2, 86400, Note_on_c, 0, 74, 0
2, 86400, Note_on_c, 0, 72, 97
2, 86880, Note_on_c, 0, 72, 0
2, 87840, Control_c, 0, 64, 0
2, 87840, Note_on_c, 0, 60, 70
2, 87960, Note_on_c, 0, 60, 0
2, 87960, Note_on_c, 0, 64, 71
2, 88080, Note_on_c, 0, 64, 0
2, 88080, Note_on_c, 0, 67, 72
2, 88200, Note_on_c, 0, 67, 0
2, 88200, Note_on_c, 0, 72, 73
2, 88320, Note_on_c, 0, 72, 0
2, 88320, Note_on_c, 0, 72, 74
2, 88476, Note_on_c, 0, 72, 0
2, 88560, Note_on_c, 0, 72, 76
2, 88716, Note_on_c, 0, 72, 0
2, 89040, Note_on_c, 0, 74, 80
2, 89196, Note_on_c, 0, 74, 0
2, 89460, Note_on_c, 0, 72, 82
2, 89520, Note_on_c, 0, 72, 0
2, 89520, Note_on_c, 0, 71, 81
2, 89640, Note_on_c, 0, 71, 0
2, 89640, Note_on_c, 0, 69, 80
2, 89760, Note_on_c, 0, 69, 0
2, 89760, Note_on_c, 0, 71, 79
2, 89916, Note_on_c, 0, 71, 0
2, 90000, Note_on_c, 0, 72, 77
2, 90156, Note_on_c, 0, 72, 0
2, 90240, Note_on_c, 0, 74, 75
2, 90720, Note_on_c, 0, 74, 0
2, 90720, Note_on_c, 0, 64, 71
2, 90840, Note_on_c, 0, 64, 0
2, 90840, Note_on_c, 0, 67, 73
2, 90960, Note_on_c, 0, 67, 0
2, 90960, Note_on_c, 0, 72, 74
2, 91080, Note_on_c, 0, 72, 0
2, 91080, Note_on_c, 0, 76, 76
2, 91200, Note_on_c, 0, 76, 0
2, 91320, Note_on_c, 0, 76, 79
2, 91440, Note_on_c, 0, 76, 0
2, 91440, Note_on_c, 0, 76, 80
2, 91560, Note_on_c, 0, 76, 0
2, 91560, Note_on_c, 0, 84, 82
2, 91680, Note_on_c, 0, 84, 0
2, 91800, Note_on_c, 0, 77, 85
2, 91920, Note_on_c, 0, 77, 0
2, 91920, Note_on_c, 0, 77, 86
2, 92040, Note_on_c, 0, 77, 0
2, 92040, Note_on_c, 0, 86, 89
2, 92160, Note_on_c, 0, 86, 0
2, 92280, Note_on_c, 0, 76, 92
2, 92400, Note_on_c, 0, 76, 0
2, 92400, Note_on_c, 0, 76, 91
2, 92520, Note_on_c, 0, 76, 0
2, 92520, Note_on_c, 0, 84, 89
2, 92640, Note_on_c, 0, 84, 0
2, 92760, Note_on_c, 0, 74, 86
2, 92880, Note_on_c, 0, 74, 0
2, 92880, Note_on_c, 0, 74, 84
2, 93000, Note_on_c, 0, 74, 0
2, 93000, Note_on_c, 0, 83, 83
2, 93120, Note_on_c, 0, 83, 0
2, 93240, Note_on_c, 0, 84, 79
2, 93360, Note_on_c, 0, 84, 0
2, 93480, Note_on_c, 0, 82, 76
2, 93600, Note_on_c, 0, 82, 0
2, 93720, Note_on_c, 0, 81, 81
2, 93840, Note_on_c, 0, 81, 0
2, 93960, Note_on_c, 0, 86, 91
2, 94080, Note_on_c, 0, 86, 0
2, 94200, Note_on_c, 0, 86, 101
2, 94320, Note_on_c, 0, 86, 0
2, 94440, Note_on_c, 0, 84, 91
2, 94560, Note_on_c, 0, 84, 0
2, 94680, Note_on_c, 0, 84, 84
2, 94800, Note_on_c, 0, 84, 0
2, 94920, Note_on_c, 0, 83, 77
2, 95040, Note_on_c, 0, 83, 0
2, 95280, Note_on_c, 0, 84, 81
2, 95436, Note_on_c, 0, 84, 0
2, 95520, Note_on_c, 0, 79, 100
2, 96000, Note_on_c, 0, 79, 0
2, 96000, Note_on_c, 0, 76, 70
2, 96240, Note_on_c, 0, 76, 0
2, 96480, Control_c, 0, 7, 117
2, 96480, Control_c, 0, 64, 0
2, 96480, Note_on_c, 0, 60, 70
2, 96600, Note_on_c, 0, 60, 0
2, 96600, Note_on_c, 0, 64, 71
2, 96720, Note_on_c, 0, 64, 0
2, 96720, Note_on_c, 0, 67, 72
2, 96840, Note_on_c, 0, 67, 0
2, 96840, Note_on_c, 0, 72, 73
2, 96960, Note_on_c, 0, 72, 0
2, 96960, Note_on_c, 0, 72, 74
2, 97116, Note_on_c, 0, 72, 0
2, 97200, Note_on_c, 0, 72, 76
2, 97356, Note_on_c, 0, 72, 0
2, 97680, Note_on_c, 0, 74, 80
2, 97836, Note_on_c, 0, 74, 0
2, 98100, Note_on_c, 0, 72, 82
2, 98160, Note_on_c, 0, 72, 0
2, 98160, Note_on_c, 0, 71, 81
2, 98280, Note_on_c, 0, 71, 0
2, 98280, Note_on_c, 0, 69, 80
2, 98400, Note_on_c, 0, 69, 0
2, 98400, Note_on_c, 0, 71, 79
2, 98556, Note_on_c, 0, 71, 0
2, 98640, Note_on_c, 0, 72, 77
2, 98796, Note_on_c, 0, 72, 0
2, 98880, Note_on_c, 0, 74, 75
2, 99360, Note_on_c, 0, 74, 0
2, 99360, Note_on_c, 0, 64, 71
2, 99480, Note_on_c, 0, 64, 0
2, 99480, Note_on_c, 0, 67, 73
2, 99600, Note_on_c, 0, 67, 0
2, 99600, Note_on_c, 0, 72, 74
2, 99720, Note_on_c, 0, 72, 0
2, 99720, Note_on_c, 0, 76, 76
2, 99840, Note_on_c, 0, 76, 0
2, 99960, Note_on_c, 0, 76, 79
2, 100080, Note_on_c, 0, 76, 0
2, 100080, Note_on_c, 0, 76, 80
2, 100200, Note_on_c, 0, 76, 0
2, 100200, Note_on_c, 0, 84, 82
2, 100320, Note_on_c, 0, 84, 0
2, 100440, Note_on_c, 0, 77, 85
2, 100560, Note_on_c, 0, 77, 0
2, 100560, Note_on_c, 0, 77, 86
2, 100680, Note_on_c, 0, 77, 0
2, 100680, Note_on_c, 0, 86, 89
2, 100800, Note_on_c, 0, 86, 0
2, 100920, Note_on_c, 0, 76, 92
2, 101040, Note_on_c, 0, 76, 0
2, 101040, Note_on_c, 0, 76, 91
2, 101160, Note_on_c, 0, 76, 0
2, 101160, Note_on_c, 0, 84, 89
2, 101280, Note_on_c, 0, 84, 0
2, 101400, Note_on_c, 0, 74, 86
2, 101520, Note_on_c, 0, 74, 0
2, 101520, Note_on_c, 0, 74, 84
2, 101640, Note_on_c, 0, 74, 0
2, 101640, Note_on_c, 0, 83, 83
2, 101760, Note_on_c, 0, 83, 0
2, 101880, Note_on_c, 0, 84, 79
2, 102000, Note_on_c, 0, 84, 0
2, 102120, Note_on_c, 0, 82, 76
2, 102240, Note_on_c, 0, 82, 0
2, 102360, Note_on_c, 0, 81, 81
2, 102480, Note_on_c, 0, 81, 0
2, 102600, Note_on_c, 0, 86, 91
2, 102720, Note_on_c, 0, 86, 0
2, 102840, Note_on_c, 0, 86, 101
2, 102960, Note_on_c, 0, 86, 0
2, 103080, Note_on_c, 0, 84, 91
2, 103200, Note_on_c, 0, 84, 0
2, 103320, Note_on_c, 0, 84, 84
2, 103440, Note_on_c, 0, 84, 0
2, 103560, Note_on_c, 0, 83, 77
2, 103680, Note_on_c, 0, 83, 0
2, 103920, Note_on_c, 0, 84, 81
2, 104076, Note_on_c, 0, 84, 0
2, 104160, Note_on_c, 0, 79, 100
2, 104640, Note_on_c, 0, 79, 0
2, 104640, Note_on_c, 0, 76, 70
2, 104880, Note_on_c, 0, 76, 0
2, 105120, Control_c, 0, 7, 127
2, 105120, Note_on_c, 0, 67, 77
2, 105240, Note_on_c, 0, 67, 0
2, 105240, Note_on_c, 0, 72, 78
2, 105360, Note_on_c, 0, 72, 0
2, 105360, Note_on_c, 0, 76, 79
2, 105480, Note_on_c, 0, 76, 0
2, 105480, Note_on_c, 0, 77, 80
2, 105600, Note_on_c, 0, 77, 0
2, 105600, Note_on_c, 0, 79, 81
2, 105756, Note_on_c, 0, 79, 0
2, 105840, Note_on_c, 0, 79, 83
2, 105996, Note_on_c, 0, 79, 0
2, 106320, Note_on_c, 0, 79, 92
2, 106476, Note_on_c, 0, 79, 0
2, 106680, Note_on_c, 0, 79, 91
2, 106740, Note_on_c, 0, 81, 90
2, 106800, Note_on_c, 0, 81, 0
2, 106800, Note_on_c, 0, 79, 0
2, 106800, Note_on_c, 0, 79, 88
2, 106920, Note_on_c, 0, 79, 0
2, 106920, Note_on_c, 0, 78, 88
2, 107040, Note_on_c, 0, 78, 0
2, 107040, Note_on_c, 0, 79, 87
2, 107160, Note_on_c, 0, 79, 0
2, 107160, Note_on_c, 0, 88, 85
2, 107280, Note_on_c, 0, 88, 0
2, 107280, Note_on_c, 0, 77, 84
2, 107400, Note_on_c, 0, 77, 0
2, 107400, Note_on_c, 0, 86, 83
2, 107520, Note_on_c, 0, 86, 0
2, 107520, Note_on_c, 0, 76, 82
2, 107640, Note_on_c, 0, 76, 0
2, 107640, Note_on_c, 0, 86, 80
2, 107760, Note_on_c, 0, 86, 0
2, 107760, Note_on_c, 0, 74, 79
2, 107880, Note_on_c, 0, 74, 0
2, 107880, Note_on_c, 0, 85, 78
2, 108000, Note_on_c, 0, 85, 0
2, 108000, Control_c, 0, 64, 0
2, 108000, Note_on_c, 0, 65, 76
2, 108120, Note_on_c, 0, 65, 0
2, 108120, Note_on_c, 0, 69, 77
2, 108240, Note_on_c, 0, 69, 0
2, 108240, Note_on_c, 0, 74, 78
2, 108360, Note_on_c, 0, 74, 0
2, 108360, Note_on_c, 0, 77, 79
2, 108480, Note_on_c, 0, 77, 0
2, 108480, Note_on_c, 0, 77, 81
2, 108636, Note_on_c, 0, 77, 0
2, 108720, Note_on_c, 0, 77, 83
2, 108876, Note_on_c, 0, 77, 0
2, 109200, Note_on_c, 0, 77, 91
2, 109356, Note_on_c, 0, 77, 0
2, 109560, Note_on_c, 0, 77, 92
2, 109620, Note_on_c, 0, 79, 91
2, 109680, Note_on_c, 0, 79, 0
2, 109680, Note_on_c, 0, 77, 0
2, 109680, Note_on_c, 0, 77, 90
2, 109800, Note_on_c, 0, 77, 0
2, 109800, Note_on_c, 0, 76, 88
2, 109920, Note_on_c, 0, 76, 0
2, 109920, Note_on_c, 0, 77, 87
2, 110040, Note_on_c, 0, 77, 0
2, 110040, Note_on_c, 0, 86, 85
2, 110160, Note_on_c, 0, 86, 0
2, 110160, Note_on_c, 0, 76, 84
2, 110280, Note_on_c, 0, 76, 0
2, 110280, Note_on_c, 0, 84, 83
2, 110400, Note_on_c, 0, 84, 0
2, 110400, Note_on_c, 0, 74, 81
2, 110520, Note_on_c, 0, 74, 0
2, 110520, Note_on_c, 0, 84, 80
2, 110640, Note_on_c, 0, 84, 0
2, 110640, Note_on_c, 0, 74, 79
2, 110760, Note_on_c, 0, 74, 0
2, 110760, Note_on_c, 0, 83, 77
2, 110880, Note_on_c, 0, 83, 0
2, 111000, Note_on_c, 0, 76, 75
2, 111120, Note_on_c, 0, 76, 0
2, 111120, Note_on_c, 0, 76, 76
2, 111240, Note_on_c, 0, 76, 0
2, 111240, Note_on_c, 0, 84, 78
2, 111360, Note_on_c, 0, 84, 0
2, 111360, Note_on_c, 0, 77, 79
2, 111480, Note_on_c, 0, 77, 0
2, 111480, Note_on_c, 0, 84, 80
2, 111600, Note_on_c, 0, 84, 0
2, 111600, Note_on_c, 0, 76, 82
2, 111720, Note_on_c, 0, 76, 0
2, 111720, Note_on_c, 0, 84, 83
2, 111840, Note_on_c, 0, 84, 0
2, 111840, Note_on_c, 0, 74, 84
2, 111960, Note_on_c, 0, 74, 0
2, 111960, Note_on_c, 0, 84, 86
2, 112080, Note_on_c, 0, 84, 0
2, 112080, Note_on_c, 0, 72, 87
2, 112200, Note_on_c, 0, 72, 0
2, 112200, Note_on_c, 0, 84, 88
2, 112320, Note_on_c, 0, 84, 0
2, 112440, Note_on_c, 0, 76, 91
2, 112560, Note_on_c, 0, 76, 0
2, 112560, Note_on_c, 0, 76, 92
2, 112680, Note_on_c, 0, 76, 0
2, 112800, Note_on_c, 0, 76, 96
2, 112920, Note_on_c, 0, 76, 0
2, 113040, Note_on_c, 0, 77, 100
2, 113160, Note_on_c, 0, 77, 0
2, 113280, Note_on_c, 0, 79, 104
2, 113400, Note_on_c, 0, 79, 0
2, 113520, Note_on_c, 0, 80, 108
2, 113640, Note_on_c, 0, 80, 0
2, 113880, Note_on_c, 0, 81, 110
2, 114000, Note_on_c, 0, 81, 0
2, 114120, Note_on_c, 0, 89, 110
2, 114240, Note_on_c, 0, 89, 0
2, 114360, Note_on_c, 0, 88, 107
2, 114480, Note_on_c, 0, 88, 0
2, 114600, Note_on_c, 0, 88, 103
2, 114720, Note_on_c, 0, 88, 0
2, 114840, Note_on_c, 0, 86, 99
2, 114960, Note_on_c, 0, 86, 0
2, 115080, Note_on_c, 0, 86, 96
2, 115200, Note_on_c, 0, 86, 0
2, 115440, Note_on_c, 0, 84, 91
2, 115596, Note_on_c, 0, 84, 0
2, 115680, Note_on_c, 0, 88, 110
2, 116160, Note_on_c, 0, 88, 0
2, 116160, Note_on_c, 0, 84, 86
2, 116316, Note_on_c, 0, 84, 0
2, 116640, Control_c, 0, 64, 0
2, 116880, Note_on_c, 0, 60, 84
2, 116976, Note_on_c, 0, 60, 0
2, 117000, Note_on_c, 0, 60, 85
2, 117096, Note_on_c, 0, 60, 0
2, 117120, Note_on_c, 0, 73, 85
2, 117216, Note_on_c, 0, 73, 0
2, 117360, Note_on_c, 0, 73, 86
2, 117456, Note_on_c, 0, 73, 0
2, 117600, Note_on_c, 0, 74, 87
2, 118080, Note_on_c, 0, 74, 0
2, 118320, Note_on_c, 0, 60, 89
2, 118416, Note_on_c, 0, 60, 0
2, 118440, Note_on_c, 0, 60, 90
2, 118536, Note_on_c, 0, 60, 0
2, 118560, Note_on_c, 0, 83, 90
2, 118656, Note_on_c, 0, 83, 0
2, 118800, Note_on_c, 0, 83, 91
2, 118896, Note_on_c, 0, 83, 0
2, 119040, Note_on_c, 0, 84, 92
2, 119520, Note_on_c, 0, 84, 0
2, 119760, Note_on_c, 0, 64, 94
2, 119856, Note_on_c, 0, 64, 0
2, 119880, Note_on_c, 0, 64, 95
2, 119976, Note_on_c, 0, 64, 0
2, 120000, Note_on_c, 0, 76, 95
2, 120096, Note_on_c, 0, 76, 0
2, 120240, Note_on_c, 0, 76, 96
2, 120336, Note_on_c, 0, 76, 0
2, 120480, Note_on_c, 0, 77, 97
2, 120960, Note_on_c, 0, 77, 0
2, 121200, Note_on_c, 0, 64, 98
2, 121296, Note_on_c, 0, 64, 0
2, 121320, Note_on_c, 0, 64, 97
2, 121416, Note_on_c, 0, 64, 0
2, 121680, Note_on_c, 0, 74, 93
2, 121776, Note_on_c, 0, 74, 0
2, 121800, Note_on_c, 0, 74, 92
2, 121896, Note_on_c, 0, 74, 0
2, 122160, Note_on_c, 0, 61, 89
2, 122256, Note_on_c, 0, 61, 0
2, 122280, Note_on_c, 0, 61, 88
2, 122376, Note_on_c, 0, 61, 0
2, 122640, Note_on_c, 0, 62, 86
2, 122736, Note_on_c, 0, 62, 0
2, 122760, Note_on_c, 0, 62, 87
2, 122856, Note_on_c, 0, 62, 0
2, 123120, Note_on_c, 0, 72, 91
2, 123216, Note_on_c, 0, 72, 0
2, 123240, Note_on_c, 0, 72, 93
2, 123336, Note_on_c, 0, 72, 0
2, 123600, Note_on_c, 0, 59, 97
2, 123696, Note_on_c, 0, 59, 0
2, 123720, Note_on_c, 0, 59, 98
2, 123816, Note_on_c, 0, 59, 0
2, 123960, Note_on_c, 0, 60, 99
2, 124080, Note_on_c, 0, 60, 0
2, 124080, Note_on_c, 0, 64, 96
2, 124200, Note_on_c, 0, 64, 0
2, 124200, Note_on_c, 0, 67, 94
2, 124320, Note_on_c, 0, 67, 0
2, 124320, Note_on_c, 0, 72, 91
2, 124440, Note_on_c, 0, 72, 0
2, 124440, Note_on_c, 0, 76, 89
2, 124560, Note_on_c, 0, 76, 0
2, 124560, Note_on_c, 0, 79, 87
2, 124680, Note_on_c, 0, 79, 0
2, 124680, Note_on_c, 0, 84, 84
2, 124800, Note_on_c, 0, 84, 0
2, 124800, Note_on_c, 0, 72, 82
2, 124956, Note_on_c, 0, 72, 0
2, 125280, Control_c, 0, 7, 117
2, 125280, Control_c, 0, 64, 0
2, 125520, Note_on_c, 0, 60, 84
2, 125616, Note_on_c, 0, 60, 0
2, 125640, Note_on_c, 0, 60, 85
2, 125736, Note_on_c, 0, 60, 0
2, 125760, Note_on_c, 0, 73, 85
2, 125856, Note_on_c, 0, 73, 0
2, 126000, Note_on_c, 0, 73, 86
2, 126096, Note_on_c, 0, 73, 0
2, 126240, Note_on_c, 0, 74, 87
2, 126720, Note_on_c, 0, 74, 0
2, 126960, Note_on_c, 0, 60, 89
2, 127056, Note_on_c, 0, 60, 0
2, 127080, Note_on_c, 0, 60, 90
2, 127176, Note_on_c, 0, 60, 0
2, 127200, Note_on_c, 0, 83, 90
2, 127296, Note_on_c, 0, 83, 0
2, 127440, Note_on_c, 0, 83, 91
2, 127536, Note_on_c, 0, 83, 0
2, 127680, Note_on_c, 0, 84, 92
2, 128160, Note_on_c, 0, 84, 0
2, 128400, Note_on_c, 0, 64, 94
2, 128496, Note_on_c, 0, 64, 0
2, 128520, Note_on_c, 0, 64, 95
2, 128616, Note_on_c, 0, 64, 0
2, 128640, Note_on_c, 0, 76, 95
2, 128736, Note_on_c, 0, 76, 0
2, 128880, Note_on_c, 0, 76, 96
2, 128976, Note_on_c, 0, 76, 0
2, 129120, Note_on_c, 0, 77, 97
2, 129600, Note_on_c, 0, 77, 0
2, 129840, Note_on_c, 0, 64, 98
2, 129936, Note_on_c, 0, 64, 0
2, 129960, Note_on_c, 0, 64, 97
2, 130056, Note_on_c, 0, 64, 0
2, 130320, Note_on_c, 0, 74, 93
2, 130416, Note_on_c, 0, 74, 0
2, 130440, Note_on_c, 0, 74, 92
2, 130536, Note_on_c, 0, 74, 0
2, 130800, Note_on_c, 0, 61, 89
2, 130896, Note_on_c, 0, 61, 0
2, 130920, Note_on_c, 0, 61, 88
2, 131016, Note_on_c, 0, 61, 0
2, 131280, Note_on_c, 0, 62, 86
2, 131376, Note_on_c, 0, 62, 0
2, 131400, Note_on_c, 0, 62, 87
2, 131496, Note_on_c, 0, 62, 0
2, 131760, Note_on_c, 0, 72, 91
2, 131856, Note_on_c, 0, 72, 0
2, 131880, Note_on_c, 0, 72, 93
2, 131976, Note_on_c, 0, 72, 0
2, 132240, Note_on_c, 0, 59, 97
2, 132336, Note_on_c, 0, 59, 0
2, 132360, Note_on_c, 0, 59, 98
2, 132456, Note_on_c, 0, 59, 0
2, 132600, Note_on_c, 0, 60, 99
2, 132720, Note_on_c, 0, 60, 0
2, 132720, Note_on_c, 0, 64, 96
2, 132840, Note_on_c, 0, 64, 0
2, 132840, Note_on_c, 0, 67, 94
2, 132960, Note_on_c, 0, 67, 0
2, 132960, Note_on_c, 0, 72, 91
2, 133080, Note_on_c, 0, 72, 0
2, 133080, Note_on_c, 0, 76, 89
2, 133200, Note_on_c, 0, 76, 0
2, 133200, Note_on_c, 0, 79, 87
2, 133320, Note_on_c, 0, 79, 0
2, 133320, Note_on_c, 0, 84, 84
2, 133440, Note_on_c, 0, 84, 0
2, 133440, Note_on_c, 0, 72, 82
2, 133596, Note_on_c, 0, 72, 0
2, 133920, Control_c, 0, 7, 127
2, 134160, Note_on_c, 0, 55, 69
2, 134256, Note_on_c, 0, 55, 0
2, 134280, Note_on_c, 0, 55, 72
2, 134376, Note_on_c, 0, 55, 0
2, 134640, Note_on_c, 0, 67, 80
2, 134736, Note_on_c, 0, 67, 0
2, 134760, Note_on_c, 0, 67, 83
2, 134856, Note_on_c, 0, 67, 0
2, 135120, Note_on_c, 0, 79, 92
2, 135216, Note_on_c, 0, 79, 0
2, 135240, Note_on_c, 0, 79, 95
2, 135336, Note_on_c, 0, 79, 0
2, 135600, Note_on_c, 0, 79, 103
2, 135696, Note_on_c, 0, 79, 0
2, 135720, Note_on_c, 0, 79, 106
2, 135816, Note_on_c, 0, 79, 0
2, 135840, Note_on_c, 0, 85, 110
2, 135936, Note_on_c, 0, 85, 0
2, 136080, Note_on_c, 0, 85, 112
2, 136176, Note_on_c, 0, 85, 0
2, 136320, Note_on_c, 0, 88, 115
2, 136800, Note_on_c, 0, 88, 0
2, 136800, Control_c, 0, 64, 0
2, 137040, Note_on_c, 0, 53, 74
2, 137136, Note_on_c, 0, 53, 0
2, 137160, Note_on_c, 0, 53, 77
2, 137256, Note_on_c, 0, 53, 0
2, 137520, Note_on_c, 0, 65, 85
2, 137616, Note_on_c, 0, 65, 0
2, 137640, Note_on_c, 0, 65, 88
2, 137736, Note_on_c, 0, 65, 0
2, 138000, Note_on_c, 0, 77, 96
2, 138096, Note_on_c, 0, 77, 0
2, 138120, Note_on_c, 0, 77, 99
2, 138216, Note_on_c, 0, 77, 0
2, 138480, Note_on_c, 0, 77, 107
2, 138576, Note_on_c, 0, 77, 0
2, 138600, Note_on_c, 0, 77, 110
2, 138696, Note_on_c, 0, 77, 0
2, 138720, Note_on_c, 0, 89, 116
2, 138816, Note_on_c, 0, 89, 0
2, 138960, Note_on_c, 0, 88, 119
2, 139056, Note_on_c, 0, 88, 0
2, 139200, Note_on_c, 0, 86, 123
2, 139680, Note_on_c, 0, 86, 0
2, 139920, Note_on_c, 0, 88, 109
2, 140016, Note_on_c, 0, 88, 0
2, 140040, Note_on_c, 0, 88, 110
2, 140136, Note_on_c, 0, 88, 0
2, 140400, Note_on_c, 0, 88, 112
2, 140496, Note_on_c, 0, 88, 0
2, 140520, Note_on_c, 0, 88, 113
2, 140616, Note_on_c, 0, 88, 0
2, 140880, Note_on_c, 0, 88, 115
2, 140976, Note_on_c, 0, 88, 0
2, 141000, Note_on_c, 0, 88, 116
2, 141096, Note_on_c, 0, 88, 0
2, 141240, Note_on_c, 0, 88, 117
2, 141360, Note_on_c, 0, 88, 0
2, 141360, Note_on_c, 0, 84, 118
2, 141480, Note_on_c, 0, 84, 0
2, 141480, Note_on_c, 0, 79, 119
2, 141600, Note_on_c, 0, 79, 0
2, 141600, Note_on_c, 0, 76, 120
2, 141720, Note_on_c, 0, 76, 0
2, 141720, Note_on_c, 0, 72, 120
2, 141840, Note_on_c, 0, 72, 0
2, 141840, Note_on_c, 0, 67, 121
2, 141960, Note_on_c, 0, 67, 0
2, 141960, Note_on_c, 0, 64, 122
2, 142080, Note_on_c, 0, 64, 0
2, 142080, Note_on_c, 0, 60, 123
2, 142236, Note_on_c, 0, 60, 0
2, 142320, Note_on_c, 0, 68, 127
2, 142452, Note_on_c, 0, 68, 0
2, 142800, Note_on_c, 0, 69, 116
2, 142896, Note_on_c, 0, 69, 0
2, 142920, Note_on_c, 0, 69, 113
2, 143016, Note_on_c, 0, 69, 0
2, 143280, Note_on_c, 0, 67, 105
2, 143376, Note_on_c, 0, 67, 0
2, 143400, Note_on_c, 0, 67, 103
2, 143496, Note_on_c, 0, 67, 0
2, 143760, Note_on_c, 0, 67, 95
2, 143856, Note_on_c, 0, 67, 0
2, 143880, Note_on_c, 0, 67, 92
2, 143976, Note_on_c, 0, 67, 0
2, 144120, Note_on_c, 0, 60, 86
2, 144240, Note_on_c, 0, 60, 0
2, 144240, Note_on_c, 0, 64, 84
2, 144360, Note_on_c, 0, 64, 0
2, 144360, Note_on_c, 0, 67, 81
2, 144480, Note_on_c, 0, 67, 0
2, 144480, Note_on_c, 0, 72, 78
2, 144600, Note_on_c, 0, 72, 0
2, 144600, Note_on_c, 0, 76, 76
2, 144720, Note_on_c, 0, 76, 0
2, 144720, Note_on_c, 0, 79, 73
2, 144840, Note_on_c, 0, 79, 0
2, 144840, Note_on_c, 0, 83, 70
2, 144960, Note_on_c, 0, 83, 0
2, 144960, Note_on_c, 0, 84, 68
2, 145038, Note_on_c, 0, 84, 0
2, 146880, Control_c, 0, 64, 0
2, 146880, Note_on_c, 0, 72, 65
2, 147520, Note_on_c, 0, 72, 0
2, 147520, Note_on_c, 0, 71, 64
2, 147680, Note_on_c, 0, 71, 0
2, 147680, Note_on_c, 0, 72, 63
2, 147840, Note_on_c, 0, 72, 0
2, 147840, Note_on_c, 0, 74, 62
2, 148000, Note_on_c, 0, 74, 0
2, 148000, Note_on_c, 0, 72, 60
2, 148160, Note_on_c, 0, 72, 0
2, 148160, Note_on_c, 0, 74, 59
2, 148320, Note_on_c, 0, 74, 0
2, 148320, Note_on_c, 0, 71, 59
2, 148960, Note_on_c, 0, 71, 0
2, 148960, Note_on_c, 0, 67, 60
2, 149120, Note_on_c, 0, 67, 0
2, 149120, Note_on_c, 0, 69, 65
2, 149280, Note_on_c, 0, 69, 0
2, 149280, Note_on_c, 0, 71, 69
2, 149440, Note_on_c, 0, 71, 0
2, 149440, Note_on_c, 0, 72, 74
2, 149600, Note_on_c, 0, 72, 0
2, 149600, Note_on_c, 0, 74, 78
2, 149760, Note_on_c, 0, 74, 0
2, 149760, Note_on_c, 0, 75, 78
2, 150400, Note_on_c, 0, 75, 0
2, 150400, Note_on_c, 0, 74, 69
2, 150560, Note_on_c, 0, 74, 0
2, 150560, Note_on_c, 0, 75, 67
2, 150720, Note_on_c, 0, 75, 0
2, 150720, Note_on_c, 0, 77, 66
2, 150880, Note_on_c, 0, 77, 0
2, 150880, Note_on_c, 0, 79, 64
2, 151040, Note_on_c, 0, 79, 0
2, 151040, Note_on_c, 0, 77, 62
2, 151200, Note_on_c, 0, 77, 0
2, 151200, Note_on_c, 0, 75, 67
2, 151360, Note_on_c, 0, 75, 0
2, 151360, Note_on_c, 0, 77, 65
2, 151520, Note_on_c, 0, 77, 0
2, 151520, Note_on_c, 0, 75, 63
2, 151680, Note_on_c, 0, 75, 0
2, 151680, Note_on_c, 0, 74, 61
2, 151840, Note_on_c, 0, 74, 0
2, 151840, Note_on_c, 0, 75, 59
2, 152000, Note_on_c, 0, 75, 0
2, 152000, Note_on_c, 0, 74, 58
2, 152160, Note_on_c, 0, 74, 0
2, 152160, Note_on_c, 0, 72, 56
2, 152320, Note_on_c, 0, 72, 0
2, 152320, Note_on_c, 0, 71, 54
2, 152480, Note_on_c, 0, 71, 0
2, 152480, Note_on_c, 0, 72, 52
2, 152640, Note_on_c, 0, 72, 0
2, 152640, Note_on_c, 0, 73, 57
2, 152800, Note_on_c, 0, 73, 0
2, 152800, Note_on_c, 0, 75, 56
2, 152960, Note_on_c, 0, 75, 0
2, 152960, Note_on_c, 0, 73, 54
2, 153120, Note_on_c, 0, 73, 0
2, 153120, Note_on_c, 0, 72, 53
2, 153280, Note_on_c, 0, 72, 0
2, 153280, Note_on_c, 0, 74, 52
2, 153440, Note_on_c, 0, 74, 0
2, 153440, Note_on_c, 0, 72, 50
2, 153547, Note_on_c, 0, 72, 0
2, 153560, Note_on_c, 0, 72, 49
2, 153600, Note_on_c, 0, 71, 49
2, 153620, Note_on_c, 0, 72, 0
2, 153760, Note_on_c, 0, 71, 0
2, 153760, Note_on_c, 0, 69, 48
2, 153920, Note_on_c, 0, 69, 0
2, 153920, Note_on_c, 0, 71, 46
2, 154080, Note_on_c, 0, 71, 0
2, 154080, Note_on_c, 0, 72, 45
2, 154680, Control_c, 0, 7, 117
2, 154720, Note_on_c, 0, 72, 0
2, 154720, Note_on_c, 0, 66, 53
2, 154880, Note_on_c, 0, 66, 0
2, 154880, Note_on_c, 0, 67, 57
2, 155040, Note_on_c, 0, 67, 0
2, 155040, Note_on_c, 0, 68, 60
2, 155200, Note_on_c, 0, 68, 0
2, 155200, Note_on_c, 0, 67, 63
2, 155360, Note_on_c, 0, 67, 0
2, 155360, Note_on_c, 0, 71, 67
2, 155520, Note_on_c, 0, 71, 0
2, 155520, Control_c, 0, 64, 0
2, 155520, Note_on_c, 0, 72, 65
2, 156160, Note_on_c, 0, 72, 0
2, 156160, Note_on_c, 0, 71, 64
2, 156320, Note_on_c, 0, 71, 0
2, 156320, Note_on_c, 0, 72, 63
2, 156480, Note_on_c, 0, 72, 0
2, 156480, Note_on_c, 0, 74, 62
2, 156640, Note_on_c, 0, 74, 0
2, 156640, Note_on_c, 0, 72, 60
2, 156800, Note_on_c, 0, 72, 0
2, 156800, Note_on_c, 0, 74, 59
2, 156960, Note_on_c, 0, 74, 0
2, 156960, Note_on_c, 0, 71, 59
2, 157600, Note_on_c, 0, 71, 0
2, 157600, Note_on_c, 0, 67, 60
2, 157760, Note_on_c, 0, 67, 0
2, 157760, Note_on_c, 0, 69, 65
2, 157920, Note_on_c, 0, 69, 0
2, 157920, Note_on_c, 0, 71, 69
2, 158080, Note_on_c, 0, 71, 0
2, 158080, Note_on_c, 0, 72, 74
2, 158240, Note_on_c, 0, 72, 0
2, 158240, Note_on_c, 0, 74, 78
2, 158400, Note_on_c, 0, 74, 0
2, 158400, Note_on_c, 0, 75, 78
2, 159040, Note_on_c, 0, 75, 0
2, 159040, Note_on_c, 0, 74, 69
2, 159200, Note_on_c, 0, 74, 0
2, 159200, Note_on_c, 0, 75, 67
2, 159360, Note_on_c, 0, 75, 0
2, 159360, Note_on_c, 0, 77, 66
2, 159520, Note_on_c, 0, 77, 0
2, 159520, Note_on_c, 0, 79, 64
2, 159680, Note_on_c, 0, 79, 0
2, 159680, Note_on_c, 0, 77, 62
2, 159840, Note_on_c, 0, 77, 0
2, 159840, Note_on_c, 0, 75, 67
2, 160000, Note_on_c, 0, 75, 0
2, 160000, Note_on_c, 0, 77, 65
2, 160160, Note_on_c, 0, 77, 0
2, 160160, Note_on_c, 0, 75, 63
2, 160320, Note_on_c, 0, 75, 0
2, 160320, Note_on_c, 0, 74, 61
2, 160480, Note_on_c, 0, 74, 0
2, 160480, Note_on_c, 0, 75, 59
2, 160640, Note_on_c, 0, 75, 0
2, 160640, Note_on_c, 0, 74, 58
2, 160800, Note_on_c, 0, 74, 0
2, 160800, Note_on_c, 0, 72, 56
2, 160960, Note_on_c, 0, 72, 0
2, 160960, Note_on_c, 0, 71, 54
2, 161120, Note_on_c, 0, 71, 0
2, 161120, Note_on_c, 0, 72, 52
2, 161280, Note_on_c, 0, 72, 0
2, 161280, Note_on_c, 0, 73, 57
2, 161440, Note_on_c, 0, 73, 0
2, 161440, Note_on_c, 0, 75, 56
2, 161600, Note_on_c, 0, 75, 0
2, 161600, Note_on_c, 0, 73, 54
2, 161760, Note_on_c, 0, 73, 0
2, 161760, Note_on_c, 0, 72, 53
2, 161920, Note_on_c, 0, 72, 0
2, 161920, Note_on_c, 0, 74, 52
2, 162080, Note_on_c, 0, 74, 0
2, 162080, Note_on_c, 0, 72, 50
2, 162187, Note_on_c, 0, 72, 0
2, 162200, Note_on_c, 0, 72, 49
2, 162240, Note_on_c, 0, 71, 49
2, 162260, Note_on_c, 0, 72, 0
2, 162400, Note_on_c, 0, 71, 0
2, 162400, Note_on_c, 0, 69, 48
2, 162560, Note_on_c, 0, 69, 0
2, 162560, Note_on_c, 0, 71, 46
2, 162720, Note_on_c, 0, 71, 0
2, 162720, Note_on_c, 0, 72, 45
2, 163200, Control_c, 0, 7, 127
2, 163360, Note_on_c, 0, 72, 0
2, 163360, Note_on_c, 0, 70, 64
2, 163520, Note_on_c, 0, 70, 0
2, 163520, Note_on_c, 0, 72, 67
2, 163680, Note_on_c, 0, 72, 0
2, 163680, Note_on_c, 0, 74, 71
2, 163840, Note_on_c, 0, 74, 0
2, 163840, Note_on_c, 0, 75, 74
2, 164000, Note_on_c, 0, 75, 0
2, 164000, Note_on_c, 0, 77, 77
2, 164160, Note_on_c, 0, 77, 0
2, 164160, Control_c, 0, 7, 127
2, 164160, Note_on_c, 0, 79, 82
2, 164800, Note_on_c, 0, 79, 0
2, 164800, Note_on_c, 0, 75, 76
2, 164960, Note_on_c, 0, 75, 0
2, 164960, Note_on_c, 0, 77, 77
2, 165120, Note_on_c, 0, 77, 0
2, 165120, Note_on_c, 0, 79, 78
2, 165280, Note_on_c, 0, 79, 0
2, 165280, Note_on_c, 0, 75, 79
2, 165440, Note_on_c, 0, 75, 0
2, 165440, Note_on_c, 0, 77, 80
2, 165600, Note_on_c, 0, 77, 0
2, 165600, Note_on_c, 0, 79, 86
2, 166240, Note_on_c, 0, 79, 0
2, 166240, Note_on_c, 0, 79, 76
2, 166400, Note_on_c, 0, 79, 0
2, 166400, Note_on_c, 0, 77, 74
2, 166515, Note_on_c, 0, 77, 0
2, 166520, Note_on_c, 0, 77, 73
2, 166560, Note_on_c, 0, 75, 72
2, 166582, Note_on_c, 0, 77, 0
2, 166720, Note_on_c, 0, 75, 0
2, 166720, Note_on_c, 0, 74, 71
2, 166880, Note_on_c, 0, 74, 0
2, 166880, Note_on_c, 0, 75, 69
2, 167040, Note_on_c, 0, 75, 0
2, 167040, Control_c, 0, 64, 0
2, 167040, Note_on_c, 0, 77, 76
2, 167680, Note_on_c, 0, 77, 0
2, 167680, Note_on_c, 0, 74, 68
2, 167840, Note_on_c, 0, 74, 0
2, 167840, Note_on_c, 0, 75, 69
2, 168000, Note_on_c, 0, 75, 0
2, 168000, Note_on_c, 0, 77, 71
2, 168160, Note_on_c, 0, 77, 0
2, 168160, Note_on_c, 0, 74, 73
2, 168320, Note_on_c, 0, 74, 0
2, 168320, Note_on_c, 0, 75, 75
2, 168480, Note_on_c, 0, 75, 0
2, 168480, Note_on_c, 0, 77, 82
2, 169120, Note_on_c, 0, 77, 0
2, 169120, Note_on_c, 0, 77, 72
2, 169280, Note_on_c, 0, 77, 0
2, 169280, Note_on_c, 0, 75, 70
2, 169390, Note_on_c, 0, 75, 0
2, 169400, Note_on_c, 0, 75, 69
2, 169440, Note_on_c, 0, 74, 68
2, 169465, Note_on_c, 0, 75, 0
2, 169600, Note_on_c, 0, 74, 0
2, 169600, Note_on_c, 0, 72, 66
2, 169760, Note_on_c, 0, 72, 0
2, 169760, Note_on_c, 0, 74, 65
2, 169920, Note_on_c, 0, 74, 0
2, 169920, Note_on_c, 0, 75, 66
2, 170560, Note_on_c, 0, 75, 0
2, 170560, Note_on_c, 0, 71, 74
2, 170720, Note_on_c, 0, 71, 0
2, 170720, Note_on_c, 0, 72, 77
2, 170880, Note_on_c, 0, 72, 0
2, 170880, Note_on_c, 0, 74, 80
2, 171040, Note_on_c, 0, 74, 0
2, 171040, Note_on_c, 0, 75, 83
2, 171200, Note_on_c, 0, 75, 0
2, 171200, Note_on_c, 0, 77, 86
2, 171360, Note_on_c, 0, 77, 0
2, 171360, Note_on_c, 0, 79, 89
2, 171800, Note_on_c, 0, 72, 96
2, 171810, Note_on_c, 0, 79, 0
2, 171840, Note_on_c, 0, 84, 99
2, 171865, Note_on_c, 0, 72, 0
2, 172480, Note_on_c, 0, 84, 0
2, 172480, Note_on_c, 0, 79, 85
2, 172640, Note_on_c, 0, 79, 0
2, 172640, Note_on_c, 0, 82, 81
2, 172800, Note_on_c, 0, 82, 0
2, 172800, Note_on_c, 0, 80, 77
2, 172960, Note_on_c, 0, 80, 0
2, 172960, Note_on_c, 0, 77, 76
2, 173120, Note_on_c, 0, 77, 0
2, 173120, Note_on_c, 0, 73, 74
2, 173280, Note_on_c, 0, 73, 0
2, 173280, Note_on_c, 0, 72, 72
2, 173760, Note_on_c, 0, 72, 0
2, 173760, Note_on_c, 0, 71, 67
2, 173800, Note_on_c, 0, 72, 66
2, 173805, Note_on_c, 0, 71, 0
2, 173840, Note_on_c, 0, 71, 66
2, 173842, Note_on_c, 0, 72, 0
2, 173880, Note_on_c, 0, 72, 65
2, 173883, Note_on_c, 0, 71, 0
2, 173920, Note_on_c, 0, 71, 65
2, 173921, Note_on_c, 0, 72, 0
2, 173960, Note_on_c, 0, 72, 64
2, 173962, Note_on_c, 0, 71, 0
2, 174000, Note_on_c, 0, 72, 0
2, 174000, Note_on_c, 0, 71, 64
2, 174040, Note_on_c, 0, 72, 63
2, 174048, Note_on_c, 0, 71, 0
2, 174080, Note_on_c, 0, 71, 63
2, 174086, Note_on_c, 0, 72, 0
2, 174120, Note_on_c, 0, 69, 62
2, 174127, Note_on_c, 0, 71, 0
2, 174180, Note_on_c, 0, 69, 0
2, 174180, Note_on_c, 0, 71, 62
2, 174240, Note_on_c, 0, 71, 0
2, 174240, Note_on_c, 0, 74, 66
2, 174720, Note_on_c, 0, 74, 0
2, 174720, Note_on_c, 0, 72, 58
2, 174960, Note_on_c, 0, 72, 0
2, 175200, Note_on_c, 0, 72, 69
2, 175434, Note_on_c, 0, 72, 0
2, 175560, Note_on_c, 0, 72, 71
2, 175638, Note_on_c, 0, 72, 0
2, 175680, Note_on_c, 0, 72, 79
2, 176400, Note_on_c, 0, 72, 0
2, 176400, Note_on_c, 0, 71, 64
2, 176640, Note_on_c, 0, 71, 0
2, 176640, Note_on_c, 0, 72, 62
2, 176874, Note_on_c, 0, 72, 0
2, 177000, Note_on_c, 0, 71, 67
2, 177078, Note_on_c, 0, 71, 0
2, 177120, Note_on_c, 0, 72, 69
2, 177354, Note_on_c, 0, 72, 0
2, 177480, Note_on_c, 0, 74, 74
2, 177558, Note_on_c, 0, 74, 0
2, 177600, Note_on_c, 0, 71, 78
2, 178320, Note_on_c, 0, 71, 0
2, 178320, Note_on_c, 0, 72, 66
2, 178560, Note_on_c, 0, 72, 0
2, 178560, Control_c, 0, 64, 0
2, 178560, Note_on_c, 0, 74, 66
2, 178794, Note_on_c, 0, 74, 0
2, 178920, Note_on_c, 0, 71, 69
2, 178998, Note_on_c, 0, 71, 0
2, 179040, Note_on_c, 0, 72, 70
2, 179274, Note_on_c, 0, 72, 0
2, 179400, Note_on_c, 0, 74, 77
2, 179478, Note_on_c, 0, 74, 0
2, 179520, Note_on_c, 0, 76, 81
2, 180240, Note_on_c, 0, 76, 0
2, 180240, Note_on_c, 0, 74, 68
2, 180480, Note_on_c, 0, 74, 0
2, 180480, Note_on_c, 0, 76, 70
2, 180714, Note_on_c, 0, 76, 0
2, 180840, Note_on_c, 0, 76, 73
2, 180918, Note_on_c, 0, 76, 0
2, 180960, Note_on_c, 0, 77, 74
2, 181194, Note_on_c, 0, 77, 0
2, 181320, Note_on_c, 0, 77, 76
2, 181398, Note_on_c, 0, 77, 0
2, 181440, Note_on_c, 0, 76, 78
2, 181674, Note_on_c, 0, 76, 0
2, 181800, Note_on_c, 0, 76, 82
2, 181878, Note_on_c, 0, 76, 0
2, 181920, Note_on_c, 0, 74, 83
2, 182154, Note_on_c, 0, 74, 0
2, 182280, Note_on_c, 0, 74, 88
2, 182358, Note_on_c, 0, 74, 0
2, 182400, Note_on_c, 0, 72, 89
2, 182634, Note_on_c, 0, 72, 0
2, 182760, Note_on_c, 0, 72, 93
2, 182838, Note_on_c, 0, 72, 0
2, 182880, Note_on_c, 0, 73, 94
2, 183114, Note_on_c, 0, 73, 0
2, 183240, Note_on_c, 0, 73, 99
2, 183318, Note_on_c, 0, 73, 0
2, 183360, Note_on_c, 0, 74, 107
2, 183720, Note_on_c, 0, 74, 0
2, 183840, Note_on_c, 0, 74, 95
2, 184074, Note_on_c, 0, 74, 0
2, 184200, Note_on_c, 0, 74, 90
2, 184278, Note_on_c, 0, 74, 0
2, 184320, Note_on_c, 0, 72, 88
2, 184554, Note_on_c, 0, 72, 0
2, 184680, Note_on_c, 0, 72, 83
2, 184758, Note_on_c, 0, 72, 0
2, 184800, Note_on_c, 0, 71, 81
2, 185034, Note_on_c, 0, 71, 0
2, 185160, Note_on_c, 0, 71, 75
2, 185238, Note_on_c, 0, 71, 0
2, 185280, Note_on_c, 0, 72, 73
2, 185640, Note_on_c, 0, 72, 0
2, 187200, Control_c, 0, 7, 117
2, 187200, Note_on_c, 0, 72, 79
2, 187920, Note_on_c, 0, 72, 0
2, 187920, Note_on_c, 0, 71, 64
2, 188160, Note_on_c, 0, 71, 0
2, 188160, Note_on_c, 0, 72, 62
2, 188394, Note_on_c, 0, 72, 0
2, 188520, Note_on_c, 0, 71, 67
2, 188598, Note_on_c, 0, 71, 0
2, 188640, Note_on_c, 0, 72, 69
2, 188874, Note_on_c, 0, 72, 0
2, 189000, Note_on_c, 0, 74, 74
2, 189078, Note_on_c, 0, 74, 0
2, 189120, Note_on_c, 0, 71, 78
2, 189840, Note_on_c, 0, 71, 0
2, 189840, Note_on_c, 0, 72, 66
2, 190080, Note_on_c, 0, 72, 0
2, 190080, Control_c, 0, 64, 0
2, 190080, Note_on_c, 0, 74, 66
2, 190314, Note_on_c, 0, 74, 0
2, 190440, Note_on_c, 0, 71, 69
2, 190518, Note_on_c, 0, 71, 0
2, 190560, Note_on_c, 0, 72, 70
2, 190794, Note_on_c, 0, 72, 0
2, 190920, Note_on_c, 0, 74, 77
2, 190998, Note_on_c, 0, 74, 0
2, 191040, Note_on_c, 0, 76, 81
2, 191760, Note_on_c, 0, 76, 0
2, 191760, Note_on_c, 0, 74, 68
2, 192000, Note_on_c, 0, 74, 0
2, 192000, Note_on_c, 0, 76, 70
2, 192234, Note_on_c, 0, 76, 0
2, 192360, Note_on_c, 0, 76, 73
2, 192438, Note_on_c, 0, 76, 0
2, 192480, Note_on_c, 0, 77, 74
2, 192714, Note_on_c, 0, 77, 0
2, 192840, Note_on_c, 0, 77, 76
2, 192918, Note_on_c, 0, 77, 0
2, 192960, Note_on_c, 0, 76, 78
2, 193194, Note_on_c, 0, 76, 0
2, 193320, Note_on_c, 0, 76, 82
2, 193398, Note_on_c, 0, 76, 0
2, 193440, Note_on_c, 0, 74, 83
2, 193674, Note_on_c, 0, 74, 0
2, 193800, Note_on_c, 0, 74, 88
2, 193878, Note_on_c, 0, 74, 0
2, 193920, Note_on_c, 0, 72, 89
2, 194154, Note_on_c, 0, 72, 0
2, 194280, Note_on_c, 0, 72, 93
2, 194358, Note_on_c, 0, 72, 0
2, 194400, Note_on_c, 0, 73, 94
2, 194634, Note_on_c, 0, 73, 0
2, 194760, Note_on_c, 0, 73, 99
2, 194838, Note_on_c, 0, 73, 0
2, 194880, Note_on_c, 0, 74, 107
2, 195240, Note_on_c, 0, 74, 0
2, 195360, Note_on_c, 0, 74, 95
2, 195594, Note_on_c, 0, 74, 0
2, 195720, Note_on_c, 0, 74, 90
2, 195798, Note_on_c, 0, 74, 0
2, 195840, Note_on_c, 0, 72, 88
2, 196074, Note_on_c, 0, 72, 0
2, 196200, Note_on_c, 0, 72, 83
2, 196278, Note_on_c, 0, 72, 0
2, 196320, Note_on_c, 0, 71, 81
2, 196554, Note_on_c, 0, 71, 0
2, 196680, Note_on_c, 0, 71, 75
2, 196758, Note_on_c, 0, 71, 0
2, 196800, Note_on_c, 0, 72, 73
2, 197160, Note_on_c, 0, 72, 0
2, 198240, Control_c, 0, 7, 127
2, 198240, Note_on_c, 0, 79, 90
2, 198474, Note_on_c, 0, 79, 0
2, 198600, Note_on_c, 0, 79, 89
2, 198678, Note_on_c, 0, 79, 0
2, 198720, Note_on_c, 0, 79, 96
2, 199342, Note_on_c, 0, 79, 0
2, 199440, Note_on_c, 0, 79, 81
2, 199596, Note_on_c, 0, 79, 0
2, 199680, Note_on_c, 0, 79, 79
2, 199914, Note_on_c, 0, 79, 0
2, 200040, Note_on_c, 0, 79, 76
2, 200118, Note_on_c, 0, 79, 0
2, 200160, Note_on_c, 0, 77, 75
2, 200394, Note_on_c, 0, 77, 0
2, 200520, Note_on_c, 0, 76, 72
2, 200598, Note_on_c, 0, 76, 0
2, 200640, Note_on_c, 0, 77, 71
2, 201000, Note_on_c, 0, 77, 0
2, 202080, Note_on_c, 0, 77, 78
2, 202314, Note_on_c, 0, 77, 0
2, 202440, Note_on_c, 0, 77, 84
2, 202518, Note_on_c, 0, 77, 0
2, 202560, Note_on_c, 0, 77, 92
2, 203175, Note_on_c, 0, 77, 0
2, 203280, Note_on_c, 0, 77, 82
2, 203436, Note_on_c, 0, 77, 0
2, 203520, Note_on_c, 0, 77, 80
2, 203754, Note_on_c, 0, 77, 0
2, 203880, Note_on_c, 0, 77, 77
2, 203958, Note_on_c, 0, 77, 0
2, 204000, Note_on_c, 0, 76, 76
2, 204234, Note_on_c, 0, 76, 0
2, 204360, Note_on_c, 0, 74, 74
2, 204438, Note_on_c, 0, 74, 0
2, 204480, Note_on_c, 0, 76, 72
2, 204840, Note_on_c, 0, 76, 0
2, 205920, Note_on_c, 0, 76, 63
2, 206154, Note_on_c, 0, 76, 0
2, 206280, Note_on_c, 0, 76, 66
2, 206358, Note_on_c, 0, 76, 0
2, 206400, Note_on_c, 0, 76, 67
2, 206760, Note_on_c, 0, 76, 0
2, 206880, Note_on_c, 0, 76, 71
2, 207114, Note_on_c, 0, 76, 0
2, 207240, Note_on_c, 0, 76, 74
2, 207318, Note_on_c, 0, 76, 0
2, 207360, Note_on_c, 0, 76, 75
2, 207720, Note_on_c, 0, 76, 0
2, 207840, Note_on_c, 0, 77, 79
2, 207960, Note_on_c, 0, 77, 0
2, 207960, Note_on_c, 0, 76, 81
2, 208080, Note_on_c, 0, 76, 0
2, 208080, Note_on_c, 0, 74, 83
2, 208200, Note_on_c, 0, 74, 0
2, 208200, Note_on_c, 0, 72, 85
2, 208320, Note_on_c, 0, 72, 0
2, 208320, Note_on_c, 0, 79, 87
2, 209040, Note_on_c, 0, 79, 0
2, 209040, Note_on_c, 0, 81, 94
2, 209280, Note_on_c, 0, 81, 0
2, 209280, Note_on_c, 0, 82, 96
2, 209514, Note_on_c, 0, 82, 0
2, 209640, Note_on_c, 0, 82, 101
2, 209718, Note_on_c, 0, 82, 0
2, 209760, Note_on_c, 0, 82, 102
2, 209994, Note_on_c, 0, 82, 0
2, 210120, Note_on_c, 0, 82, 107
2, 210198, Note_on_c, 0, 82, 0
2, 210240, Note_on_c, 0, 81, 110
2, 210960, Note_on_c, 0, 81, 0
2, 210960, Note_on_c, 0, 79, 97
2, 211080, Note_on_c, 0, 79, 0
2, 211080, Note_on_c, 0, 77, 95
2, 211200, Note_on_c, 0, 77, 0
2, 211200, Note_on_c, 0, 76, 93
2, 211434, Note_on_c, 0, 76, 0
2, 211560, Note_on_c, 0, 76, 87
2, 211638, Note_on_c, 0, 76, 0
2, 211680, Note_on_c, 0, 74, 85
2, 211914, Note_on_c, 0, 74, 0
2, 212040, Note_on_c, 0, 74, 79
2, 212118, Note_on_c, 0, 74, 0
2, 212160, Note_on_c, 0, 72, 77
2, 212316, Note_on_c, 0, 72, 0
2, 212400, Note_on_c, 0, 60, 55
2, 212520, Note_on_c, 0, 60, 0
2, 212520, Note_on_c, 0, 64, 56
2, 212640, Note_on_c, 0, 64, 0
2, 212640, Note_on_c, 0, 62, 57
2, 212760, Note_on_c, 0, 62, 0
2, 212760, Note_on_c, 0, 65, 58
2, 212880, Note_on_c, 0, 65, 0
2, 212880, Note_on_c, 0, 64, 59
2, 213000, Note_on_c, 0, 64, 0
2, 213000, Note_on_c, 0, 67, 61
2, 213120, Note_on_c, 0, 67, 0
2, 213120, Note_on_c, 0, 65, 62
2, 213240, Note_on_c, 0, 65, 0
2, 213240, Note_on_c, 0, 69, 63
2, 213360, Note_on_c, 0, 69, 0
2, 213360, Note_on_c, 0, 67, 64
2, 213480, Note_on_c, 0, 67, 0
2, 213480, Note_on_c, 0, 71, 65
2, 213600, Note_on_c, 0, 71, 0
2, 213600, Note_on_c, 0, 69, 67
2, 213720, Note_on_c, 0, 69, 0
2, 213720, Note_on_c, 0, 72, 68
2, 213840, Note_on_c, 0, 72, 0
2, 213840, Note_on_c, 0, 71, 69
2, 213960, Note_on_c, 0, 71, 0
2, 213960, Note_on_c, 0, 74, 70
2, 214080, Note_on_c, 0, 74, 0
2, 214080, Note_on_c, 0, 72, 83
2, 214536, Note_on_c, 0, 72, 0
2, 214560, Note_on_c, 0, 72, 71
2, 214680, Note_on_c, 0, 72, 0
2, 214800, Note_on_c, 0, 71, 73
2, 214920, Note_on_c, 0, 71, 0
2, 215040, Note_on_c, 0, 72, 74
2, 215160, Note_on_c, 0, 72, 0
2, 215280, Note_on_c, 0, 71, 76
2, 215400, Note_on_c, 0, 71, 0
2, 215520, Note_on_c, 0, 72, 78
2, 215640, Note_on_c, 0, 72, 0
2, 215760, Note_on_c, 0, 74, 79
2, 215880, Note_on_c, 0, 74, 0
2, 216000, Note_on_c, 0, 71, 86
2, 216456, Note_on_c, 0, 71, 0
2, 216480, Note_on_c, 0, 71, 78
2, 216600, Note_on_c, 0, 71, 0
2, 216720, Note_on_c, 0, 72, 76
2, 216840, Note_on_c, 0, 72, 0
2, 216960, Note_on_c, 0, 74, 74
2, 217080, Note_on_c, 0, 74, 0
2, 217200, Note_on_c, 0, 71, 73
2, 217320, Note_on_c, 0, 71, 0
2, 217440, Note_on_c, 0, 72, 71
2, 217560, Note_on_c, 0, 72, 0
2, 217680, Note_on_c, 0, 74, 69
2, 217800, Note_on_c, 0, 74, 0
2, 217920, Note_on_c, 0, 76, 82
2, 218358, Note_on_c, 0, 76, 0
2, 218400, Note_on_c, 0, 76, 73
2, 218520, Note_on_c, 0, 76, 0
2, 218640, Note_on_c, 0, 74, 75
2, 218760, Note_on_c, 0, 74, 0
2, 218880, Note_on_c, 0, 76, 77
2, 219000, Note_on_c, 0, 76, 0
2, 219120, Note_on_c, 0, 76, 79
2, 219240, Note_on_c, 0, 76, 0
2, 219360, Note_on_c, 0, 77, 82
2, 219480, Note_on_c, 0, 77, 0
2, 219600, Note_on_c, 0, 77, 84
2, 219720, Note_on_c, 0, 77, 0
2, 219840, Note_on_c, 0, 76, 90
2, 220278, Note_on_c, 0, 76, 0
2, 220320, Note_on_c, 0, 76, 85
2, 220440, Note_on_c, 0, 76, 0
2, 220560, Note_on_c, 0, 74, 83
2, 220680, Note_on_c, 0, 74, 0
2, 220800, Note_on_c, 0, 72, 82
2, 220920, Note_on_c, 0, 72, 0
2, 221040, Note_on_c, 0, 71, 81
2, 221160, Note_on_c, 0, 71, 0
2, 221280, Note_on_c, 0, 72, 80
2, 221400, Note_on_c, 0, 72, 0
2, 221520, Note_on_c, 0, 73, 78
2, 221640, Note_on_c, 0, 73, 0
2, 221760, Note_on_c, 0, 74, 77
2, 221880, Note_on_c, 0, 74, 0
2, 222000, Note_on_c, 0, 74, 76
2, 222120, Note_on_c, 0, 74, 0
2, 222240, Note_on_c, 0, 74, 74
2, 222360, Note_on_c, 0, 74, 0
2, 222480, Note_on_c, 0, 72, 73
2, 222600, Note_on_c, 0, 72, 0
2, 222720, Note_on_c, 0, 72, 72
2, 222840, Note_on_c, 0, 72, 0
2, 222960, Note_on_c, 0, 72, 70
2, 223080, Note_on_c, 0, 72, 0
2, 223200, Note_on_c, 0, 72, 69
2, 223320, Note_on_c, 0, 72, 0
2, 223440, Note_on_c, 0, 71, 68
2, 223560, Note_on_c, 0, 71, 0
2, 223680, Note_on_c, 0, 72, 67
2, 223836, Note_on_c, 0, 72, 0
2, 223920, Note_on_c, 0, 67, 68
2, 224040, Note_on_c, 0, 67, 0
2, 224040, Note_on_c, 0, 71, 69
2, 224160, Note_on_c, 0, 71, 0
2, 224160, Note_on_c, 0, 69, 71
2, 224280, Note_on_c, 0, 69, 0
2, 224280, Note_on_c, 0, 72, 72
2, 224400, Note_on_c, 0, 72, 0
2, 224400, Note_on_c, 0, 71, 74
2, 224520, Note_on_c, 0, 71, 0
2, 224520, Note_on_c, 0, 74, 75
2, 224640, Note_on_c, 0, 74, 0
2, 224640, Note_on_c, 0, 72, 77
2, 224760, Note_on_c, 0, 72, 0
2, 224760, Note_on_c, 0, 76, 78
2, 224880, Note_on_c, 0, 76, 0
2, 224880, Note_on_c, 0, 74, 79
2, 225000, Note_on_c, 0, 74, 0
2, 225000, Note_on_c, 0, 77, 81
2, 225120, Note_on_c, 0, 77, 0
2, 225120, Note_on_c, 0, 76, 82
2, 225240, Note_on_c, 0, 76, 0
2, 225240, Note_on_c, 0, 79, 84
2, 225360, Note_on_c, 0, 79, 0
2, 225360, Note_on_c, 0, 77, 85
2, 225480, Note_on_c, 0, 77, 0
2, 225480, Note_on_c, 0, 81, 87
2, 225600, Note_on_c, 0, 81, 0
2, 225600, Note_on_c, 0, 79, 99
2, 226020, Note_on_c, 0, 79, 0
2, 226080, Note_on_c, 0, 79, 91
2, 226200, Note_on_c, 0, 79, 0
2, 226320, Note_on_c, 0, 79, 90
2, 226440, Note_on_c, 0, 79, 0
2, 226560, Note_on_c, 0, 79, 88
2, 226680, Note_on_c, 0, 79, 0
2, 226800, Note_on_c, 0, 79, 87
2, 226920, Note_on_c, 0, 79, 0
2, 227040, Note_on_c, 0, 79, 86
2, 227160, Note_on_c, 0, 79, 0
2, 227280, Note_on_c, 0, 79, 86
2, 227400, Note_on_c, 0, 79, 0
2, 227520, Note_on_c, 0, 79, 86
2, 227760, Note_on_c, 0, 88, 95
2, 227820, Note_on_c, 0, 79, 0
2, 227916, Note_on_c, 0, 88, 0
2, 228000, Note_on_c, 0, 77, 92
2, 228240, Note_on_c, 0, 86, 89
2, 228300, Note_on_c, 0, 77, 0
2, 228396, Note_on_c, 0, 86, 0
2, 228480, Note_on_c, 0, 76, 86
2, 228720, Note_on_c, 0, 85, 83
2, 228780, Note_on_c, 0, 76, 0
2, 228876, Note_on_c, 0, 85, 0
2, 229200, Note_on_c, 0, 74, 83
2, 229320, Note_on_c, 0, 74, 0
2, 229320, Note_on_c, 0, 76, 87
2, 229440, Note_on_c, 0, 76, 0
2, 229440, Note_on_c, 0, 77, 100
2, 229878, Note_on_c, 0, 77, 0
2, 229920, Note_on_c, 0, 77, 88
2, 230040, Note_on_c, 0, 77, 0
2, 230160, Note_on_c, 0, 77, 86
2, 230280, Note_on_c, 0, 77, 0
2, 230400, Note_on_c, 0, 77, 85
2, 230520, Note_on_c, 0, 77, 0
2, 230640, Note_on_c, 0, 77, 83
2, 230760, Note_on_c, 0, 77, 0
2, 230880, Note_on_c, 0, 77, 81
2, 231000, Note_on_c, 0, 77, 0
2, 231120, Note_on_c, 0, 77, 80
2, 231240, Note_on_c, 0, 77, 0
2, 231360, Note_on_c, 0, 77, 80
2, 231600, Note_on_c, 0, 86, 90
2, 231660, Note_on_c, 0, 77, 0
2, 231756, Note_on_c, 0, 86, 0
2, 231840, Note_on_c, 0, 76, 88
2, 232080, Note_on_c, 0, 84, 85
2, 232140, Note_on_c, 0, 76, 0
2, 232236, Note_on_c, 0, 84, 0
2, 232320, Note_on_c, 0, 74, 82
2, 232560, Note_on_c, 0, 83, 80
2, 232620, Note_on_c, 0, 74, 0
2, 232716, Note_on_c, 0, 83, 0
2, 232920, Note_on_c, 0, 71, 73
2, 233040, Note_on_c, 0, 71, 0
2, 233040, Note_on_c, 0, 72, 76
2, 233160, Note_on_c, 0, 72, 0
2, 233160, Note_on_c, 0, 74, 80
2, 233280, Note_on_c, 0, 74, 0
2, 233280, Note_on_c, 0, 76, 100
2, 233754, Note_on_c, 0, 76, 0
2, 233760, Note_on_c, 0, 76, 77
2, 233880, Note_on_c, 0, 76, 0
2, 234000, Note_on_c, 0, 76, 78
2, 234120, Note_on_c, 0, 76, 0
2, 234240, Note_on_c, 0, 77, 79
2, 234360, Note_on_c, 0, 77, 0
2, 234480, Note_on_c, 0, 76, 80
2, 234600, Note_on_c, 0, 76, 0
2, 234720, Note_on_c, 0, 74, 81
2, 234840, Note_on_c, 0, 74, 0
2, 234960, Note_on_c, 0, 72, 82
2, 235080, Note_on_c, 0, 72, 0
2, 235200, Note_on_c, 0, 76, 102
2, 235638, Note_on_c, 0, 76, 0
2, 235680, Note_on_c, 0, 76, 86
2, 235800, Note_on_c, 0, 76, 0
2, 235920, Note_on_c, 0, 77, 87
2, 236040, Note_on_c, 0, 77, 0
2, 236160, Note_on_c, 0, 79, 88
2, 236280, Note_on_c, 0, 79, 0
2, 236400, Note_on_c, 0, 78, 88
2, 236520, Note_on_c, 0, 78, 0
2, 236640, Note_on_c, 0, 79, 91
2, 236760, Note_on_c, 0, 79, 0
2, 236880, Note_on_c, 0, 80, 93
2, 237000, Note_on_c, 0, 80, 0
2, 237120, Note_on_c, 0, 81, 98
2, 237360, Note_on_c, 0, 81, 0
2, 237600, Note_on_c, 0, 77, 100
2, 237840, Note_on_c, 0, 77, 0
2, 238080, Note_on_c, 0, 76, 103
2, 238320, Note_on_c, 0, 76, 0
2, 238560, Note_on_c, 0, 74, 105
2, 238800, Note_on_c, 0, 74, 0
2, 239040, Note_on_c, 0, 72, 107
2, 239196, Note_on_c, 0, 72, 0
2, 239280, Note_on_c, 0, 67, 99
2, 239400, Note_on_c, 0, 67, 0
2, 239400, Note_on_c, 0, 71, 98
2, 239520, Note_on_c, 0, 71, 0
2, 239520, Note_on_c, 0, 69, 96
2, 239640, Note_on_c, 0, 69, 0
2, 239640, Note_on_c, 0, 72, 95
2, 239760, Note_on_c, 0, 72, 0
2, 239760, Note_on_c, 0, 71, 94
2, 239880, Note_on_c, 0, 71, 0
2, 239880, Note_on_c, 0, 74, 93
2, 240000, Note_on_c, 0, 74, 0
2, 240000, Note_on_c, 0, 72, 92
2, 240120, Note_on_c, 0, 72, 0
2, 240120, Note_on_c, 0, 76, 90
2, 240240, Note_on_c, 0, 76, 0
2, 240240, Note_on_c, 0, 74, 89
2, 240360, Note_on_c, 0, 74, 0
2, 240360, Note_on_c, 0, 77, 88
2, 240480, Note_on_c, 0, 77, 0
2, 240480, Note_on_c, 0, 76, 87
2, 240600, Note_on_c, 0, 76, 0
2, 240600, Note_on_c, 0, 79, 86
2, 240720, Note_on_c, 0, 79, 0
2, 240720, Note_on_c, 0, 77, 85
2, 240840, Note_on_c, 0, 77, 0
2, 240840, Note_on_c, 0, 81, 83
2, 240960, Note_on_c, 0, 81, 0
2, 240960, Note_on_c, 0, 79, 92
2, 241116, Note_on_c, 0, 79, 0
2, 241200, Note_on_c, 0, 79, 112
2, 241680, Note_on_c, 0, 79, 0
2, 241680, Note_on_c, 0, 78, 104
2, 241920, Note_on_c, 0, 78, 0
2, 241920, Note_on_c, 0, 79, 101
2, 242160, Note_on_c, 0, 79, 0
2, 242160, Note_on_c, 0, 78, 98
2, 242400, Note_on_c, 0, 78, 0
2, 242400, Note_on_c, 0, 79, 95
2, 242640, Note_on_c, 0, 79, 0
2, 242640, Note_on_c, 0, 78, 95
2, 242880, Note_on_c, 0, 78, 0
2, 242880, Note_on_c, 0, 79, 92
2, 243120, Note_on_c, 0, 88, 98
2, 243192, Note_on_c, 0, 79, 0
2, 243240, Note_on_c, 0, 88, 0
2, 243360, Note_on_c, 0, 77, 96
2, 243600, Note_on_c, 0, 86, 93
2, 243672, Note_on_c, 0, 77, 0
2, 243720, Note_on_c, 0, 86, 0
2, 243840, Note_on_c, 0, 76, 90
2, 244080, Note_on_c, 0, 84, 88
2, 244152, Note_on_c, 0, 76, 0
2, 244200, Note_on_c, 0, 84, 0
2, 244560, Note_on_c, 0, 76, 96
2, 244800, Note_on_c, 0, 76, 0
2, 244800, Note_on_c, 0, 77, 89
2, 244956, Note_on_c, 0, 77, 0
2, 245040, Note_on_c, 0, 77, 110
2, 245520, Note_on_c, 0, 77, 0
2, 245520, Note_on_c, 0, 76, 98
2, 245760, Note_on_c, 0, 76, 0
2, 245760, Note_on_c, 0, 77, 96
2, 246000, Note_on_c, 0, 77, 0
2, 246000, Note_on_c, 0, 76, 93
2, 246240, Note_on_c, 0, 76, 0
2, 246240, Note_on_c, 0, 77, 91
2, 246480, Note_on_c, 0, 77, 0
2, 246480, Note_on_c, 0, 76, 89
2, 246720, Note_on_c, 0, 76, 0
2, 246720, Note_on_c, 0, 77, 86
2, 246960, Note_on_c, 0, 86, 94
2, 247050, Note_on_c, 0, 77, 0
2, 247080, Note_on_c, 0, 86, 0
2, 247200, Note_on_c, 0, 76, 91
2, 247440, Note_on_c, 0, 84, 89
2, 247530, Note_on_c, 0, 76, 0
2, 247560, Note_on_c, 0, 84, 0
2, 247680, Note_on_c, 0, 74, 86
2, 247920, Note_on_c, 0, 83, 83
2, 248010, Note_on_c, 0, 74, 0
2, 248040, Note_on_c, 0, 83, 0
2, 248280, Note_on_c, 0, 71, 68
2, 248400, Note_on_c, 0, 71, 0
2, 248400, Note_on_c, 0, 72, 73
2, 248520, Note_on_c, 0, 72, 0
2, 248520, Note_on_c, 0, 74, 78
2, 248640, Note_on_c, 0, 74, 0
2, 248640, Note_on_c, 0, 76, 94
2, 249078, Note_on_c, 0, 76, 0
2, 249120, Note_on_c, 0, 76, 73
2, 249216, Note_on_c, 0, 76, 0
2, 249360, Note_on_c, 0, 76, 74
2, 249456, Note_on_c, 0, 76, 0
2, 249600, Note_on_c, 0, 77, 76
2, 249696, Note_on_c, 0, 77, 0
2, 249840, Note_on_c, 0, 76, 77
2, 249936, Note_on_c, 0, 76, 0
2, 250080, Note_on_c, 0, 74, 79
2, 250176, Note_on_c, 0, 74, 0
2, 250320, Note_on_c, 0, 72, 79
2, 250416, Note_on_c, 0, 72, 0
2, 250560, Note_on_c, 0, 76, 95
2, 251016, Note_on_c, 0, 76, 0
2, 251040, Note_on_c, 0, 76, 84
2, 251136, Note_on_c, 0, 76, 0
2, 251280, Note_on_c, 0, 77, 86
2, 251376, Note_on_c, 0, 77, 0
2, 251520, Note_on_c, 0, 79, 87
2, 251616, Note_on_c, 0, 79, 0
2, 251760, Note_on_c, 0, 78, 89
2, 251856, Note_on_c, 0, 78, 0
2, 252000, Note_on_c, 0, 79, 90
2, 252096, Note_on_c, 0, 79, 0
2, 252240, Note_on_c, 0, 80, 91
2, 252336, Note_on_c, 0, 80, 0
2, 252480, Note_on_c, 0, 81, 99
2, 252576, Note_on_c, 0, 81, 0
2, 252720, Note_on_c, 0, 74, 93
2, 252816, Note_on_c, 0, 74, 0
2, 252960, Note_on_c, 0, 77, 96
2, 253056, Note_on_c, 0, 77, 0
2, 253200, Note_on_c, 0, 74, 89
2, 253296, Note_on_c, 0, 74, 0
2, 253440, Note_on_c, 0, 76, 92
2, 253536, Note_on_c, 0, 76, 0
2, 253680, Note_on_c, 0, 74, 86
2, 253776, Note_on_c, 0, 74, 0
2, 253920, Note_on_c, 0, 74, 89
2, 254016, Note_on_c, 0, 74, 0
2, 254160, Note_on_c, 0, 72, 82
2, 254256, Note_on_c, 0, 72, 0
2, 254400, Note_on_c, 0, 76, 96
2, 254838, Note_on_c, 0, 76, 0
2, 254880, Note_on_c, 0, 76, 82
2, 254976, Note_on_c, 0, 76, 0
2, 255120, Note_on_c, 0, 77, 84
2, 255216, Note_on_c, 0, 77, 0
2, 255360, Note_on_c, 0, 79, 86
2, 255456, Note_on_c, 0, 79, 0
2, 255600, Note_on_c, 0, 78, 88
2, 255696, Note_on_c, 0, 78, 0
2, 255840, Note_on_c, 0, 79, 90
2, 255936, Note_on_c, 0, 79, 0
2, 256080, Note_on_c, 0, 80, 92
2, 256176, Note_on_c, 0, 80, 0
2, 256320, Note_on_c, 0, 81, 94
2, 256416, Note_on_c, 0, 81, 0
2, 256560, Note_on_c, 0, 80, 97
2, 256656, Note_on_c, 0, 80, 0
2, 256800, Note_on_c, 0, 81, 99
2, 256896, Note_on_c, 0, 81, 0
2, 257040, Note_on_c, 0, 80, 102
2, 257136, Note_on_c, 0, 80, 0
2, 257280, Note_on_c, 0, 81, 105
2, 257376, Note_on_c, 0, 81, 0
2, 257520, Note_on_c, 0, 80, 107
2, 257616, Note_on_c, 0, 80, 0
2, 257760, Note_on_c, 0, 81, 110
2, 257856, Note_on_c, 0, 81, 0
2, 258000, Note_on_c, 0, 80, 113
2, 258096, Note_on_c, 0, 80, 0
2, 258240, Control_c, 0, 64, 127
2, 258240, Note_on_c, 0, 81, 113
2, 258618, Note_on_c, 0, 81, 0
2, 258720, Note_on_c, 0, 77, 100
2, 259098, Note_on_c, 0, 77, 0
2, 259200, Note_on_c, 0, 72, 101
2, 259578, Note_on_c, 0, 72, 0
2, 259680, Note_on_c, 0, 69, 102
2, 260058, Note_on_c, 0, 69, 0
2, 260160, Note_on_c, 0, 65, 103
2, 260538, Note_on_c, 0, 65, 0
2, 260640, Note_on_c, 0, 60, 104
2, 260994, Note_on_c, 0, 60, 0
2, 261120, Note_on_c, 0, 57, 105
2, 261510, Note_on_c, 0, 57, 0
2, 261600, Note_on_c, 0, 53, 106
2, 262038, Note_on_c, 0, 53, 0
2, 264000, Control_c, 0, 64, 0
2, 264000, Note_on_c, 0, 65, 85
2, 264480, Note_on_c, 0, 65, 0
2, 264480, Note_on_c, 0, 67, 92
2, 264960, Note_on_c, 0, 67, 0
2, 264960, Note_on_c, 0, 64, 97
2, 265800, Note_on_c, 0, 64, 0
2, 265800, Note_on_c, 0, 65, 89
2, 265920, Note_on_c, 0, 65, 0
2, 265920, Note_on_c, 0, 67, 86
2, 266400, Note_on_c, 0, 67, 0
2, 266400, Note_on_c, 0, 69, 85
2, 266880, Note_on_c, 0, 69, 0
2, 266880, Note_on_c, 0, 69, 88
2, 267600, Note_on_c, 0, 69, 0
2, 267600, Note_on_c, 0, 72, 92
2, 267720, Note_on_c, 0, 72, 0
2, 267720, Note_on_c, 0, 70, 95
2, 267840, Note_on_c, 0, 70, 0
2, 267840, Note_on_c, 0, 69, 99
2, 268320, Note_on_c, 0, 69, 0
2, 268320, Note_on_c, 0, 67, 87
2, 268360, Note_on_c, 0, 69, 86
2, 268374, Note_on_c, 0, 67, 0
2, 268400, Note_on_c, 0, 67, 85
2, 268414, Note_on_c, 0, 69, 0
2, 268440, Note_on_c, 0, 69, 84
2, 268454, Note_on_c, 0, 67, 0
2, 268480, Note_on_c, 0, 67, 83
2, 268494, Note_on_c, 0, 69, 0
2, 268520, Note_on_c, 0, 69, 82
2, 268534, Note_on_c, 0, 67, 0
2, 268560, Note_on_c, 0, 67, 81
2, 268574, Note_on_c, 0, 69, 0
2, 268600, Note_on_c, 0, 69, 80
2, 268614, Note_on_c, 0, 67, 0
2, 268640, Note_on_c, 0, 67, 79
2, 268654, Note_on_c, 0, 69, 0
2, 268680, Note_on_c, 0, 65, 78
2, 268694, Note_on_c, 0, 67, 0
2, 268734, Note_on_c, 0, 65, 0
2, 268740, Note_on_c, 0, 67, 76
2, 268800, Note_on_c, 0, 65, 75
2, 268803, Note_on_c, 0, 67, 0
2, 269280, Note_on_c, 0, 65, 0
2, 269280, Note_on_c, 0, 69, 87
2, 269640, Note_on_c, 0, 69, 0
2, 269640, Note_on_c, 0, 67, 84
2, 269760, Note_on_c, 0, 67, 0
2, 269760, Note_on_c, 0, 65, 83
2, 270480, Note_on_c, 0, 65, 0
2, 270480, Note_on_c, 0, 64, 79
2, 270720, Note_on_c, 0, 64, 0
2, 270720, Note_on_c, 0, 65, 78
2, 271080, Note_on_c, 0, 65, 0
2, 271080, Note_on_c, 0, 62, 72
2, 271200, Note_on_c, 0, 62, 0
2, 271200, Note_on_c, 0, 60, 71
2, 272040, Note_on_c, 0, 60, 0
2, 272040, Note_on_c, 0, 59, 65
2, 272160, Note_on_c, 0, 59, 0
2, 272400, Note_on_c, 0, 60, 63
2, 272645, Note_on_c, 0, 60, 0
2, 272880, Note_on_c, 0, 60, 69
2, 273120, Note_on_c, 0, 60, 0
2, 273360, Note_on_c, 0, 62, 74
2, 273605, Note_on_c, 0, 62, 0
2, 273840, Note_on_c, 0, 59, 79
2, 274075, Note_on_c, 0, 59, 0
2, 274240, Note_on_c, 0, 59, 75
2, 274330, Note_on_c, 0, 59, 0
2, 274480, Note_on_c, 0, 60, 73
2, 274570, Note_on_c, 0, 60, 0
2, 274720, Note_on_c, 0, 62, 71
2, 274810, Note_on_c, 0, 62, 0
2, 274960, Note_on_c, 0, 59, 69
2, 275050, Note_on_c, 0, 59, 0
2, 275280, Note_on_c, 0, 64, 66
2, 275515, Note_on_c, 0, 64, 0
2, 275760, Note_on_c, 0, 64, 73
2, 275995, Note_on_c, 0, 64, 0
2, 276240, Note_on_c, 0, 65, 80
2, 276480, Note_on_c, 0, 65, 0
2, 276640, Note_on_c, 0, 64, 82
2, 276727, Note_on_c, 0, 64, 0
2, 276880, Note_on_c, 0, 64, 81
2, 276960, Note_on_c, 0, 64, 0
2, 277120, Note_on_c, 0, 62, 79
2, 277200, Note_on_c, 0, 62, 0
2, 277360, Note_on_c, 0, 62, 77
2, 277440, Note_on_c, 0, 62, 0
2, 277600, Note_on_c, 0, 60, 76
2, 277680, Note_on_c, 0, 60, 0
2, 277840, Note_on_c, 0, 61, 74
2, 277920, Note_on_c, 0, 61, 0
2, 278080, Note_on_c, 0, 61, 72
2, 278160, Note_on_c, 0, 61, 0
2, 278320, Note_on_c, 0, 62, 71
2, 278400, Note_on_c, 0, 62, 0
2, 278560, Note_on_c, 0, 62, 69
2, 278640, Note_on_c, 0, 62, 0
2, 278800, Note_on_c, 0, 60, 67
2, 278880, Note_on_c, 0, 60, 0
2, 279040, Note_on_c, 0, 60, 66
2, 279120, Note_on_c, 0, 60, 0
2, 279280, Note_on_c, 0, 59, 64
2, 279360, Note_on_c, 0, 59, 0
2, 279480, Note_on_c, 0, 60, 60
2, 279600, Note_on_c, 0, 60, 0
2, 279600, Note_on_c, 0, 62, 62
2, 279720, Note_on_c, 0, 62, 0
2, 279720, Note_on_c, 0, 64, 64
2, 279840, Note_on_c, 0, 64, 0
2, 279840, Note_on_c, 0, 65, 66
2, 279960, Note_on_c, 0, 65, 0
2, 279960, Note_on_c, 0, 67, 68
2, 280080, Note_on_c, 0, 67, 0
2, 280080, Note_on_c, 0, 69, 69
2, 280200, Note_on_c, 0, 69, 0
2, 280200, Note_on_c, 0, 71, 71
2, 280320, Note_on_c, 0, 71, 0
2, 280320, Note_on_c, 0, 72, 73
2, 280440, Note_on_c, 0, 72, 0
2, 280440, Note_on_c, 0, 74, 75
2, 280560, Note_on_c, 0, 74, 0
2, 280560, Note_on_c, 0, 76, 77
2, 280680, Note_on_c, 0, 76, 0
2, 280680, Note_on_c, 0, 77, 79
2, 280800, Note_on_c, 0, 77, 0
2, 280800, Note_on_c, 0, 79, 80
2, 281280, Note_on_c, 0, 79, 0
2, 281280, Note_on_c, 0, 79, 85
2, 281760, Note_on_c, 0, 79, 0
2, 281760, Note_on_c, 0, 79, 90
2, 282240, Note_on_c, 0, 79, 0
2, 282240, Note_on_c, 0, 79, 95
2, 282960, Note_on_c, 0, 79, 0
2, 282960, Note_on_c, 0, 77, 84
2, 283200, Note_on_c, 0, 77, 0
2, 283200, Note_on_c, 0, 76, 81
2, 283440, Note_on_c, 0, 76, 0
2, 283440, Note_on_c, 0, 76, 79
2, 283680, Note_on_c, 0, 76, 0
2, 283680, Note_on_c, 0, 77, 82
2, 284160, Note_on_c, 0, 77, 0
2, 284160, Note_on_c, 0, 77, 85
2, 284640, Note_on_c, 0, 77, 0
2, 284640, Note_on_c, 0, 77, 89
2, 285120, Note_on_c, 0, 77, 0
2, 285120, Note_on_c, 0, 77, 95
2, 285840, Note_on_c, 0, 77, 0
2, 285840, Note_on_c, 0, 76, 83
2, 286080, Note_on_c, 0, 76, 0
2, 286080, Note_on_c, 0, 74, 81
2, 286320, Note_on_c, 0, 74, 0
2, 286320, Note_on_c, 0, 75, 79
2, 286560, Note_on_c, 0, 75, 0
2, 286800, Note_on_c, 0, 76, 71
2, 286880, Note_on_c, 0, 76, 0
2, 287200, Note_on_c, 0, 77, 75
2, 287280, Note_on_c, 0, 77, 0
2, 287440, Note_on_c, 0, 76, 78
2, 287520, Note_on_c, 0, 76, 0
2, 287680, Note_on_c, 0, 74, 81
2, 287760, Note_on_c, 0, 74, 0
2, 287920, Note_on_c, 0, 72, 83
2, 288000, Note_on_c, 0, 72, 0
2, 288240, Note_on_c, 0, 76, 87
2, 288320, Note_on_c, 0, 76, 0
2, 288640, Note_on_c, 0, 76, 91
2, 288720, Note_on_c, 0, 76, 0
2, 288880, Note_on_c, 0, 77, 94
2, 288960, Note_on_c, 0, 77, 0
2, 289120, Note_on_c, 0, 79, 96
2, 289200, Note_on_c, 0, 79, 0
2, 289360, Note_on_c, 0, 80, 99
2, 289440, Note_on_c, 0, 80, 0
2, 289600, Note_on_c, 0, 81, 100
2, 289680, Note_on_c, 0, 81, 0
2, 289840, Note_on_c, 0, 86, 98
2, 289920, Note_on_c, 0, 86, 0
2, 290080, Note_on_c, 0, 86, 96
2, 290160, Note_on_c, 0, 86, 0
2, 290320, Note_on_c, 0, 84, 94
2, 290400, Note_on_c, 0, 84, 0
2, 290560, Note_on_c, 0, 84, 92
2, 290640, Note_on_c, 0, 84, 0
2, 290800, Note_on_c, 0, 83, 90
2, 290880, Note_on_c, 0, 83, 0
2, 290880, Note_on_c, 0, 84, 89
2, 291120, Note_on_c, 0, 84, 0
2, 292440, Note_on_c, 0, 72, 84
2, 292560, Note_on_c, 0, 72, 0
2, 292560, Note_on_c, 0, 84, 85
2, 292638, Note_on_c, 0, 84, 0
2, 292680, Note_on_c, 0, 84, 86
2, 292758, Note_on_c, 0, 84, 0
2, 292920, Note_on_c, 0, 72, 88
2, 293040, Note_on_c, 0, 72, 0
2, 293040, Note_on_c, 0, 84, 89
2, 293118, Note_on_c, 0, 84, 0
2, 293160, Note_on_c, 0, 84, 90
2, 293238, Note_on_c, 0, 84, 0
2, 293400, Note_on_c, 0, 72, 93
2, 293520, Note_on_c, 0, 72, 0
2, 293520, Note_on_c, 0, 84, 94
2, 293598, Note_on_c, 0, 84, 0
2, 293640, Note_on_c, 0, 84, 95
2, 293718, Note_on_c, 0, 84, 0
2, 293760, Note_on_c, 0, 72, 103
2, 293880, Note_on_c, 0, 72, 0
2, 293880, Note_on_c, 0, 84, 101
2, 294000, Note_on_c, 0, 84, 0
2, 294000, Note_on_c, 0, 72, 100
2, 294120, Note_on_c, 0, 72, 0
2, 294120, Note_on_c, 0, 84, 98
2, 294240, Note_on_c, 0, 84, 0
2, 294240, Note_on_c, 0, 72, 97
2, 294360, Note_on_c, 0, 72, 0
2, 294360, Note_on_c, 0, 84, 95
2, 294480, Note_on_c, 0, 84, 0
2, 294480, Note_on_c, 0, 72, 93
2, 294600, Note_on_c, 0, 72, 0
2, 294600, Note_on_c, 0, 84, 92
2, 294720, Note_on_c, 0, 84, 0
2, 294720, Note_on_c, 0, 72, 90
2, 294840, Note_on_c, 0, 72, 0
2, 294840, Note_on_c, 0, 84, 88
2, 294960, Note_on_c, 0, 84, 0
2, 294960, Note_on_c, 0, 72, 87
2, 295080, Note_on_c, 0, 72, 0
2, 295080, Note_on_c, 0, 84, 85
2, 295200, Note_on_c, 0, 84, 0
2, 295320, Note_on_c, 0, 72, 84
2, 295440, Note_on_c, 0, 72, 0
2, 295440, Note_on_c, 0, 84, 85
2, 295518, Note_on_c, 0, 84, 0
2, 295560, Note_on_c, 0, 84, 86
2, 295638, Note_on_c, 0, 84, 0
2, 295800, Note_on_c, 0, 72, 88
2, 295920, Note_on_c, 0, 72, 0
2, 295920, Note_on_c, 0, 84, 89
2, 295998, Note_on_c, 0, 84, 0
2, 296040, Note_on_c, 0, 84, 90
2, 296118, Note_on_c, 0, 84, 0
2, 296280, Note_on_c, 0, 72, 92
2, 296400, Note_on_c, 0, 72, 0
2, 296400, Note_on_c, 0, 84, 93
2, 296478, Note_on_c, 0, 84, 0
2, 296520, Note_on_c, 0, 84, 94
2, 296598, Note_on_c, 0, 84, 0
2, 296640, Note_on_c, 0, 72, 105
2, 296760, Note_on_c, 0, 72, 0
2, 296760, Note_on_c, 0, 84, 103
2, 296880, Note_on_c, 0, 84, 0
2, 296880, Note_on_c, 0, 72, 101
2, 297000, Note_on_c, 0, 72, 0
2, 297000, Note_on_c, 0, 84, 99
2, 297120, Note_on_c, 0, 84, 0
2, 297120, Note_on_c, 0, 72, 97
2, 297240, Note_on_c, 0, 72, 0
2, 297240, Note_on_c, 0, 84, 95
2, 297360, Note_on_c, 0, 84, 0
2, 297360, Note_on_c, 0, 72, 93
2, 297480, Note_on_c, 0, 72, 0
2, 297480, Note_on_c, 0, 84, 91
2, 297600, Note_on_c, 0, 84, 0
2, 297600, Note_on_c, 0, 72, 89
2, 297720, Note_on_c, 0, 72, 0
2, 297720, Note_on_c, 0, 84, 87
2, 297840, Note_on_c, 0, 84, 0
2, 297840, Note_on_c, 0, 72, 84
2, 297960, Note_on_c, 0, 72, 0
2, 297960, Note_on_c, 0, 84, 82
2, 298080, Note_on_c, 0, 84, 0
2, 298160, Note_on_c, 0, 84, 80
2, 298240, Note_on_c, 0, 84, 0
2, 298240, Note_on_c, 0, 83, 81
2, 298320, Note_on_c, 0, 83, 0
2, 298320, Note_on_c, 0, 84, 82
2, 298400, Note_on_c, 0, 84, 0
2, 298400, Note_on_c, 0, 83, 83
2, 298480, Note_on_c, 0, 83, 0
2, 298480, Note_on_c, 0, 84, 84
2, 298560, Note_on_c, 0, 84, 0
2, 298640, Note_on_c, 0, 83, 85
2, 298720, Note_on_c, 0, 83, 0
2, 298720, Note_on_c, 0, 84, 86
2, 298800, Note_on_c, 0, 84, 0
2, 298880, Note_on_c, 0, 83, 87
2, 298960, Note_on_c, 0, 83, 0
2, 298960, Note_on_c, 0, 84, 88
2, 299040, Note_on_c, 0, 84, 0
2, 299120, Note_on_c, 0, 83, 90
2, 299200, Note_on_c, 0, 83, 0
2, 299200, Note_on_c, 0, 84, 90
2, 299280, Note_on_c, 0, 84, 0
2, 299360, Note_on_c, 0, 83, 92
2, 299440, Note_on_c, 0, 83, 0
2, 299440, Note_on_c, 0, 84, 93
2, 299520, Note_on_c, 0, 84, 0
2, 299600, Note_on_c, 0, 83, 94
2, 299680, Note_on_c, 0, 83, 0
2, 299680, Note_on_c, 0, 84, 95
2, 299760, Note_on_c, 0, 84, 0
2, 299760, Note_on_c, 0, 88, 96
2, 299840, Note_on_c, 0, 88, 0
2, 299840, Note_on_c, 0, 86, 96
2, 299920, Note_on_c, 0, 86, 0
2, 299920, Note_on_c, 0, 84, 97
2, 300000, Note_on_c, 0, 84, 0
2, 300000, Note_on_c, 0, 83, 98
2, 300080, Note_on_c, 0, 83, 0
2, 300080, Note_on_c, 0, 81, 99
2, 300160, Note_on_c, 0, 81, 0
2, 300160, Note_on_c, 0, 79, 99
2, 300240, Note_on_c, 0, 79, 0
2, 300240, Note_on_c, 0, 77, 100
2, 300320, Note_on_c, 0, 77, 0
2, 300320, Note_on_c, 0, 76, 101
2, 300400, Note_on_c, 0, 76, 0
2, 300400, Note_on_c, 0, 74, 102
2, 300480, Note_on_c, 0, 74, 0
2, 300480, Note_on_c, 0, 72, 102
2, 300560, Note_on_c, 0, 72, 0
2, 300560, Note_on_c, 0, 71, 103
2, 300640, Note_on_c, 0, 71, 0
2, 300640, Note_on_c, 0, 72, 104
2, 300720, Note_on_c, 0, 72, 0
2, 300720, Note_on_c, 0, 79, 105
2, 300800, Note_on_c, 0, 79, 0
2, 300800, Note_on_c, 0, 76, 105
2, 300880, Note_on_c, 0, 76, 0
2, 300880, Note_on_c, 0, 72, 106
2, 300960, Note_on_c, 0, 72, 0
2, 300960, Note_on_c, 0, 69, 109
2, 301040, Note_on_c, 0, 69, 0
2, 301040, Note_on_c, 0, 81, 108
2, 301120, Note_on_c, 0, 81, 0
2, 301120, Note_on_c, 0, 80, 107
2, 301200, Note_on_c, 0, 80, 0
2, 301200, Note_on_c, 0, 81, 106
2, 301280, Note_on_c, 0, 81, 0
2, 301280, Note_on_c, 0, 77, 106
2, 301360, Note_on_c, 0, 77, 0
2, 301360, Note_on_c, 0, 74, 105
2, 301440, Note_on_c, 0, 74, 0
2, 301520, Note_on_c, 0, 79, 103
2, 301600, Note_on_c, 0, 79, 0
2, 301600, Note_on_c, 0, 78, 102
2, 301680, Note_on_c, 0, 78, 0
2, 301680, Note_on_c, 0, 79, 101
2, 301760, Note_on_c, 0, 79, 0
2, 301760, Note_on_c, 0, 76, 100
2, 301840, Note_on_c, 0, 76, 0
2, 301840, Note_on_c, 0, 72, 99
2, 301920, Note_on_c, 0, 72, 0
2, 301920, Note_on_c, 0, 74, 99
2, 301960, Note_on_c, 0, 74, 0
2, 301960, Note_on_c, 0, 76, 98
2, 302000, Note_on_c, 0, 76, 0
2, 302000, Note_on_c, 0, 74, 98
2, 302040, Note_on_c, 0, 74, 0
2, 302040, Note_on_c, 0, 76, 97
2, 302080, Note_on_c, 0, 76, 0
2, 302080, Note_on_c, 0, 74, 97
2, 302120, Note_on_c, 0, 74, 0
2, 302120, Note_on_c, 0, 76, 96
2, 302160, Note_on_c, 0, 76, 0
2, 302160, Note_on_c, 0, 74, 96
2, 302200, Note_on_c, 0, 74, 0
2, 302200, Note_on_c, 0, 76, 96
2, 302240, Note_on_c, 0, 76, 0
2, 302240, Note_on_c, 0, 74, 95
2, 302280, Note_on_c, 0, 74, 0
2, 302280, Note_on_c, 0, 72, 95
2, 302340, Note_on_c, 0, 72, 0
2, 302340, Note_on_c, 0, 74, 94
2, 302400, Note_on_c, 0, 74, 0
2, 302480, Note_on_c, 0, 72, 96
2, 302560, Note_on_c, 0, 72, 0
2, 302560, Note_on_c, 0, 76, 96
2, 302640, Note_on_c, 0, 76, 0
2, 302720, Note_on_c, 0, 72, 97
2, 302800, Note_on_c, 0, 72, 0
2, 302800, Note_on_c, 0, 76, 97
2, 302880, Note_on_c, 0, 76, 0
2, 302960, Note_on_c, 0, 72, 98
2, 303040, Note_on_c, 0, 72, 0
2, 303040, Note_on_c, 0, 77, 98
2, 303120, Note_on_c, 0, 77, 0
2, 303200, Note_on_c, 0, 71, 99
2, 303280, Note_on_c, 0, 71, 0
2, 303280, Note_on_c, 0, 76, 99
2, 303360, Note_on_c, 0, 76, 0
2, 303440, Note_on_c, 0, 69, 100
2, 303520, Note_on_c, 0, 69, 0
2, 303520, Note_on_c, 0, 74, 100
2, 303600, Note_on_c, 0, 74, 0
2, 303680, Note_on_c, 0, 67, 101
2, 303760, Note_on_c, 0, 67, 0
2, 303760, Note_on_c, 0, 72, 101
2, 303840, Note_on_c, 0, 72, 0
2, 303920, Note_on_c, 0, 60, 102
2, 304000, Note_on_c, 0, 60, 0
2, 304000, Note_on_c, 0, 69, 102
2, 304080, Note_on_c, 0, 69, 0
2, 304160, Note_on_c, 0, 60, 103
2, 304240, Note_on_c, 0, 60, 0
2, 304240, Note_on_c, 0, 69, 103
2, 304320, Note_on_c, 0, 69, 0
2, 304400, Note_on_c, 0, 65, 104
2, 304480, Note_on_c, 0, 65, 0
2, 304480, Note_on_c, 0, 69, 104
2, 304560, Note_on_c, 0, 69, 0
2, 304640, Note_on_c, 0, 65, 105
2, 304720, Note_on_c, 0, 65, 0
2, 304720, Note_on_c, 0, 69, 105
2, 304800, Note_on_c, 0, 69, 0
2, 304880, Note_on_c, 0, 65, 106
2, 304960, Note_on_c, 0, 65, 0
2, 304960, Note_on_c, 0, 71, 106
2, 305040, Note_on_c, 0, 71, 0
2, 305120, Note_on_c, 0, 65, 107
2, 305200, Note_on_c, 0, 65, 0
2, 305200, Note_on_c, 0, 71, 107
2, 305280, Note_on_c, 0, 71, 0
2, 305360, Note_on_c, 0, 64, 116
2, 305440, Note_on_c, 0, 64, 0
2, 305440, Note_on_c, 0, 72, 116
2, 305520, Note_on_c, 0, 72, 0
2, 305600, Note_on_c, 0, 72, 116
2, 305680, Note_on_c, 0, 72, 0
2, 305680, Note_on_c, 0, 84, 116
2, 305760, Note_on_c, 0, 84, 0
2, 305840, Note_on_c, 0, 77, 117
2, 305920, Note_on_c, 0, 77, 0
2, 305920, Note_on_c, 0, 84, 117
2, 306000, Note_on_c, 0, 84, 0
2, 306080, Note_on_c, 0, 76, 118
2, 306160, Note_on_c, 0, 76, 0
2, 306160, Note_on_c, 0, 84, 118
2, 306240, Note_on_c, 0, 84, 0
2, 306320, Note_on_c, 0, 74, 118
2, 306400, Note_on_c, 0, 74, 0
2, 306400, Note_on_c, 0, 84, 119
2, 306480, Note_on_c, 0, 84, 0
2, 306560, Note_on_c, 0, 72, 119
2, 306640, Note_on_c, 0, 72, 0
2, 306640, Note_on_c, 0, 84, 119
2, 306720, Note_on_c, 0, 84, 0
2, 306800, Note_on_c, 0, 72, 120
2, 306880, Note_on_c, 0, 72, 0
2, 306880, Note_on_c, 0, 81, 120
2, 306960, Note_on_c, 0, 81, 0
2, 307040, Note_on_c, 0, 72, 120
2, 307120, Note_on_c, 0, 72, 0
2, 307120, Note_on_c, 0, 81, 121
2, 307200, Note_on_c, 0, 81, 0
2, 307280, Note_on_c, 0, 77, 121
2, 307360, Note_on_c, 0, 77, 0
2, 307360, Note_on_c, 0, 81, 121
2, 307440, Note_on_c, 0, 81, 0
2, 307520, Note_on_c, 0, 77, 122
2, 307600, Note_on_c, 0, 77, 0
2, 307600, Note_on_c, 0, 81, 122
2, 307680, Note_on_c, 0, 81, 0
2, 307760, Note_on_c, 0, 77, 122
2, 307840, Note_on_c, 0, 77, 0
2, 307840, Note_on_c, 0, 83, 123
2, 307920, Note_on_c, 0, 83, 0
2, 308000, Note_on_c, 0, 77, 123
2, 308080, Note_on_c, 0, 77, 0
2, 308080, Note_on_c, 0, 83, 123
2, 308160, Note_on_c, 0, 83, 0
2, 308240, Note_on_c, 0, 76, 125
2, 308320, Note_on_c, 0, 76, 0
2, 308320, Note_on_c, 0, 84, 125
2, 308400, Note_on_c, 0, 84, 0
2, 308480, Note_on_c, 0, 77, 125
2, 308560, Note_on_c, 0, 77, 0
2, 308560, Note_on_c, 0, 83, 125
2, 308640, Note_on_c, 0, 83, 0
2, 308720, Note_on_c, 0, 76, 125
2, 308800, Note_on_c, 0, 76, 0
2, 308800, Note_on_c, 0, 84, 125
2, 308880, Note_on_c, 0, 84, 0
2, 308960, Note_on_c, 0, 83, 125
2, 309040, Note_on_c, 0, 83, 0
2, 309040, Note_on_c, 0, 86, 125
2, 309120, Note_on_c, 0, 86, 0
2, 309200, Note_on_c, 0, 84, 125
2, 309280, Note_on_c, 0, 84, 0
2, 309280, Note_on_c, 0, 88, 125
2, 309360, Note_on_c, 0, 88, 0
2, 309440, Note_on_c, 0, 83, 125
2, 309520, Note_on_c, 0, 83, 0
2, 309520, Note_on_c, 0, 86, 125
2, 309600, Note_on_c, 0, 86, 0
2, 309600, Note_on_c, 0, 88, 127
2, 309834, Note_on_c, 0, 88, 0
2, 310080, Note_on_c, 0, 60, 127
2, 310314, Note_on_c, 0, 60, 0
2, 310314, End_track
3, 0, Start_track
3, 0, Title_t, "Piano Variation No-16"
3, 0, Control_c, 0, 0, 0
3, 0, Control_c, 0, 7, 115
3, 0, Control_c, 0, 10, 64
3, 0, Control_c, 0, 91, 100
3, 0, Control_c, 0, 93, 28
3, 0, Pitch_bend_c, 0, 8192
3, 0, Control_c, 0, 1, 0
3, 0, Control_c, 0, 64, 0
3, 1, Control_c, 0, 32, 0
3, 1, Program_c, 0, 0
3, 1440, Control_c, 0, 7, 117
3, 1440, Control_c, 0, 64, 0
3, 1440, Note_on_c, 0, 64, 68
3, 1920, Note_on_c, 0, 64, 0
3, 1920, Note_on_c, 0, 67, 71
3, 2400, Note_on_c, 0, 67, 0
3, 2400, Note_on_c, 0, 69, 74
3, 2880, Note_on_c, 0, 69, 0
3, 2880, Note_on_c, 0, 62, 77
3, 3600, Note_on_c, 0, 62, 0
3, 3600, Note_on_c, 0, 67, 67
3, 3840, Note_on_c, 0, 67, 0
3, 3840, Note_on_c, 0, 67, 63
3, 4267, Note_on_c, 0, 67, 0
3, 4320, Note_on_c, 0, 67, 68
3, 4320, Note_on_c, 0, 72, 68
3, 4800, Note_on_c, 0, 72, 0
3, 4800, Note_on_c, 0, 67, 0
3, 4800, Note_on_c, 0, 69, 72
3, 4800, Note_on_c, 0, 72, 72
3, 5280, Note_on_c, 0, 72, 0
3, 5280, Note_on_c, 0, 69, 0
3, 5280, Note_on_c, 0, 69, 75
3, 5280, Note_on_c, 0, 74, 75
3, 5760, Note_on_c, 0, 74, 0
3, 5760, Note_on_c, 0, 69, 0
3, 5760, Note_on_c, 0, 67, 78
3, 5760, Note_on_c, 0, 72, 78
3, 6240, Note_on_c, 0, 72, 0
3, 6240, Note_on_c, 0, 67, 0
3, 6240, Note_on_c, 0, 71, 68
3, 6720, Note_on_c, 0, 71, 0
3, 6720, Note_on_c, 0, 69, 65
3, 7140, Note_on_c, 0, 69, 0
3, 7200, Note_on_c, 0, 65, 75
3, 7200, Note_on_c, 0, 69, 75
3, 7680, Note_on_c, 0, 69, 0
3, 7680, Note_on_c, 0, 65, 0
3, 7680, Note_on_c, 0, 64, 72
3, 7680, Note_on_c, 0, 67, 72
3, 8160, Note_on_c, 0, 67, 0
3, 8160, Note_on_c, 0, 64, 0
3, 8160, Note_on_c, 0, 62, 69
3, 8160, Note_on_c, 0, 67, 69
3, 8640, Note_on_c, 0, 67, 0
3, 8640, Note_on_c, 0, 62, 0
3, 8640, Note_on_c, 0, 64, 67
3, 8640, Note_on_c, 0, 67, 67
3, 9215, Note_on_c, 0, 67, 0
3, 9215, Note_on_c, 0, 64, 0
3, 10080, Control_c, 0, 7, 107
3, 10080, Control_c, 0, 64, 0
3, 10080, Note_on_c, 0, 64, 68
3, 10560, Note_on_c, 0, 64, 0
3, 10560, Note_on_c, 0, 67, 71
3, 11040, Note_on_c, 0, 67, 0
3, 11040, Note_on_c, 0, 69, 74
3, 11520, Note_on_c, 0, 69, 0
3, 11520, Note_on_c, 0, 62, 77
3, 12240, Note_on_c, 0, 62, 0
3, 12240, Note_on_c, 0, 67, 67
3, 12480, Note_on_c, 0, 67, 0
3, 12480, Note_on_c, 0, 67, 63
3, 12907, Note_on_c, 0, 67, 0
3, 12960, Note_on_c, 0, 67, 68
3, 12960, Note_on_c, 0, 72, 68
3, 13440, Note_on_c, 0, 72, 0
3, 13440, Note_on_c, 0, 67, 0
3, 13440, Note_on_c, 0, 69, 72
3, 13440, Note_on_c, 0, 72, 72
3, 13920, Note_on_c, 0, 72, 0
3, 13920, Note_on_c, 0, 69, 0
3, 13920, Note_on_c, 0, 74, 75
3, 13920, Note_on_c, 0, 69, 75
3, 14400, Note_on_c, 0, 69, 0
3, 14400, Note_on_c, 0, 74, 0
3, 14400, Note_on_c, 0, 72, 78
3, 14400, Note_on_c, 0, 67, 78
3, 14880, Note_on_c, 0, 67, 0
3, 14880, Note_on_c, 0, 72, 0
3, 14880, Note_on_c, 0, 71, 68
3, 15360, Note_on_c, 0, 71, 0
3, 15360, Note_on_c, 0, 69, 65
3, 15780, Note_on_c, 0, 69, 0
3, 15840, Note_on_c, 0, 69, 76
3, 15840, Note_on_c, 0, 65, 76
3, 16320, Note_on_c, 0, 65, 0
3, 16320, Note_on_c, 0, 69, 0
3, 16320, Note_on_c, 0, 64, 72
3, 16320, Note_on_c, 0, 67, 72
3, 16800, Note_on_c, 0, 67, 0
3, 16800, Note_on_c, 0, 64, 0
3, 16800, Note_on_c, 0, 67, 68
3, 16800, Note_on_c, 0, 62, 68
3, 17280, Note_on_c, 0, 62, 0
3, 17280, Note_on_c, 0, 67, 0
3, 17280, Note_on_c, 0, 64, 64
3, 17280, Note_on_c, 0, 67, 64
3, 17855, Note_on_c, 0, 67, 0
3, 17855, Note_on_c, 0, 64, 0
3, 18000, Control_c, 0, 7, 117
3, 18720, Control_c, 0, 64, 0
3, 18720, Note_on_c, 0, 67, 84
3, 18720, Note_on_c, 0, 76, 84
3, 19200, Note_on_c, 0, 76, 0
3, 19200, Note_on_c, 0, 67, 0
3, 19200, Note_on_c, 0, 67, 87
3, 19200, Note_on_c, 0, 76, 87
3, 19680, Note_on_c, 0, 76, 0
3, 19680, Note_on_c, 0, 67, 0
3, 19680, Note_on_c, 0, 67, 90
3, 19680, Note_on_c, 0, 76, 90
3, 20160, Note_on_c, 0, 76, 0
3, 20160, Note_on_c, 0, 67, 0
3, 20160, Note_on_c, 0, 76, 96
3, 20160, Note_on_c, 0, 67, 96
3, 20880, Note_on_c, 0, 67, 0
3, 20880, Note_on_c, 0, 76, 0
3, 20880, Note_on_c, 0, 67, 87
3, 20880, Note_on_c, 0, 74, 87
3, 21120, Note_on_c, 0, 74, 0
3, 21120, Note_on_c, 0, 67, 0
3, 21120, Note_on_c, 0, 67, 84
3, 21120, Note_on_c, 0, 72, 84
3, 21540, Note_on_c, 0, 72, 0
3, 21555, Note_on_c, 0, 67, 0
3, 21600, Note_on_c, 0, 67, 82
3, 21600, Note_on_c, 0, 74, 82
3, 22080, Note_on_c, 0, 74, 0
3, 22080, Note_on_c, 0, 67, 0
3, 22080, Note_on_c, 0, 67, 85
3, 22080, Note_on_c, 0, 74, 85
3, 22560, Note_on_c, 0, 74, 0
3, 22560, Note_on_c, 0, 67, 0
3, 22560, Note_on_c, 0, 67, 87
3, 22560, Note_on_c, 0, 74, 87
3, 23040, Note_on_c, 0, 74, 0
3, 23040, Note_on_c, 0, 67, 0
3, 23040, Note_on_c, 0, 67, 91
3, 23040, Note_on_c, 0, 74, 91
3, 23760, Note_on_c, 0, 74, 0
3, 23760, Note_on_c, 0, 67, 0
3, 23760, Note_on_c, 0, 67, 85
3, 23760, Note_on_c, 0, 72, 85
3, 24000, Note_on_c, 0, 72, 0
3, 24000, Note_on_c, 0, 67, 0
3, 24000, Note_on_c, 0, 67, 83
3, 24000, Note_on_c, 0, 71, 83
3, 24420, Note_on_c, 0, 71, 0
3, 24420, Note_on_c, 0, 67, 0
3, 24480, Note_on_c, 0, 67, 84
3, 24480, Note_on_c, 0, 72, 84
3, 24960, Note_on_c, 0, 72, 0
3, 24960, Note_on_c, 0, 67, 0
3, 24960, Note_on_c, 0, 69, 85
3, 25200, Note_on_c, 0, 69, 0
3, 25200, Note_on_c, 0, 67, 87
3, 25440, Note_on_c, 0, 67, 0
3, 25440, Note_on_c, 0, 65, 90
3, 25680, Note_on_c, 0, 65, 0
3, 25680, Note_on_c, 0, 64, 92
3, 25920, Note_on_c, 0, 64, 0
3, 25920, Note_on_c, 0, 67, 94
3, 25920, Note_on_c, 0, 72, 94
3, 26640, Note_on_c, 0, 72, 0
3, 26640, Note_on_c, 0, 67, 0
3, 26640, Note_on_c, 0, 72, 100
3, 26640, Note_on_c, 0, 65, 100
3, 26880, Note_on_c, 0, 65, 0
3, 26880, Note_on_c, 0, 72, 0
3, 26880, Note_on_c, 0, 72, 103
3, 26880, Note_on_c, 0, 67, 103
3, 27307, Note_on_c, 0, 67, 0
3, 27315, Note_on_c, 0, 72, 0
3, 27840, Note_on_c, 0, 67, 101
3, 27840, Note_on_c, 0, 72, 101
3, 28320, Note_on_c, 0, 72, 0
3, 28320, Note_on_c, 0, 67, 0
3, 28320, Note_on_c, 0, 65, 92
3, 28320, Note_on_c, 0, 71, 92
3, 28800, Note_on_c, 0, 71, 0
3, 28800, Note_on_c, 0, 65, 0
3, 28800, Note_on_c, 0, 64, 88
3, 28800, Note_on_c, 0, 67, 88
3, 29280, Note_on_c, 0, 67, 0
3, 29280, Note_on_c, 0, 64, 0
3, 30240, Control_c, 0, 7, 117
3, 30720, Note_on_c, 0, 64, 68
3, 30960, Note_on_c, 0, 64, 0
3, 30960, Note_on_c, 0, 69, 70
3, 31200, Note_on_c, 0, 69, 0
3, 31200, Note_on_c, 0, 65, 72
3, 31440, Note_on_c, 0, 65, 0
3, 31440, Note_on_c, 0, 69, 74
3, 31680, Note_on_c, 0, 69, 0
3, 31680, Control_c, 0, 64, 0
3, 31680, Note_on_c, 0, 62, 76
3, 31920, Note_on_c, 0, 62, 0
3, 31920, Note_on_c, 0, 66, 73
3, 32160, Note_on_c, 0, 66, 0
3, 32160, Note_on_c, 0, 67, 69
3, 33120, Note_on_c, 0, 67, 0
3, 33840, Note_on_c, 0, 73, 76
3, 34080, Note_on_c, 0, 73, 0
3, 34080, Note_on_c, 0, 76, 79
3, 34320, Note_on_c, 0, 76, 0
3, 34320, Note_on_c, 0, 74, 77
3, 34800, Note_on_c, 0, 74, 0
3, 34800, Note_on_c, 0, 72, 73
3, 35280, Note_on_c, 0, 72, 0
3, 35280, Note_on_c, 0, 71, 69
3, 35520, Note_on_c, 0, 71, 0
3, 35520, Note_on_c, 0, 67, 67
3, 35760, Note_on_c, 0, 67, 0
3, 35760, Note_on_c, 0, 67, 66
3, 35760, Note_on_c, 0, 70, 66
3, 36000, Note_on_c, 0, 70, 0
3, 36000, Note_on_c, 0, 67, 0
3, 38880, Control_c, 0, 7, 107
3, 39360, Note_on_c, 0, 64, 68
3, 39600, Note_on_c, 0, 64, 0
3, 39600, Note_on_c, 0, 69, 70
3, 39840, Note_on_c, 0, 69, 0
3, 39840, Note_on_c, 0, 65, 72
3, 40080, Note_on_c, 0, 65, 0
3, 40080, Note_on_c, 0, 69, 74
3, 40320, Note_on_c, 0, 69, 0
3, 40320, Control_c, 0, 64, 0
3, 40320, Note_on_c, 0, 62, 76
3, 40560, Note_on_c, 0, 62, 0
3, 40560, Note_on_c, 0, 66, 73
3, 40800, Note_on_c, 0, 66, 0
3, 40800, Note_on_c, 0, 67, 69
3, 41760, Note_on_c, 0, 67, 0
3, 42480, Note_on_c, 0, 73, 76
3, 42720, Note_on_c, 0, 73, 0
3, 42720, Note_on_c, 0, 76, 79
3, 42960, Note_on_c, 0, 76, 0
3, 42960, Note_on_c, 0, 74, 77
3, 43440, Note_on_c, 0, 74, 0
3, 43440, Note_on_c, 0, 72, 73
3, 43920, Note_on_c, 0, 72, 0
3, 43920, Note_on_c, 0, 71, 69
3, 44160, Note_on_c, 0, 71, 0
3, 44160, Note_on_c, 0, 67, 67
3, 44400, Note_on_c, 0, 67, 0
3, 44400, Note_on_c, 0, 70, 66
3, 44400, Note_on_c, 0, 67, 66
3, 44640, Note_on_c, 0, 67, 0
3, 44640, Note_on_c, 0, 70, 0
3, 46080, Control_c, 0, 7, 117
3, 47520, Control_c, 0, 64, 0
3, 47760, Note_on_c, 0, 78, 83
3, 48000, Note_on_c, 0, 78, 0
3, 48240, Note_on_c, 0, 77, 88
3, 48480, Note_on_c, 0, 77, 0
3, 48480, Note_on_c, 0, 76, 90
3, 48720, Note_on_c, 0, 76, 0
3, 48720, Note_on_c, 0, 74, 92
3, 48960, Note_on_c, 0, 74, 0
3, 48960, Note_on_c, 0, 73, 95
3, 49200, Note_on_c, 0, 73, 0
3, 49200, Note_on_c, 0, 70, 93
3, 49440, Note_on_c, 0, 70, 0
3, 49440, Note_on_c, 0, 69, 91
3, 49680, Note_on_c, 0, 69, 0
3, 49680, Note_on_c, 0, 74, 89
3, 50160, Note_on_c, 0, 74, 0
3, 50160, Note_on_c, 0, 73, 85
3, 50400, Note_on_c, 0, 73, 0
3, 50640, Note_on_c, 0, 76, 83
3, 50880, Note_on_c, 0, 76, 0
3, 51120, Note_on_c, 0, 76, 86
3, 51360, Note_on_c, 0, 76, 0
3, 51360, Note_on_c, 0, 74, 87
3, 51600, Note_on_c, 0, 74, 0
3, 51600, Note_on_c, 0, 72, 89
3, 51840, Note_on_c, 0, 72, 0
3, 51840, Note_on_c, 0, 71, 92
3, 52080, Note_on_c, 0, 71, 0
3, 52080, Note_on_c, 0, 68, 90
3, 52320, Note_on_c, 0, 68, 0
3, 52320, Note_on_c, 0, 67, 88
3, 52560, Note_on_c, 0, 67, 0
3, 52560, Note_on_c, 0, 72, 87
3, 53040, Note_on_c, 0, 72, 0
3, 53040, Note_on_c, 0, 71, 84
3, 53280, Note_on_c, 0, 71, 0
3, 53280, Note_on_c, 0, 72, 82
3, 53760, Note_on_c, 0, 72, 0
3, 53760, Note_on_c, 0, 72, 84
3, 54000, Note_on_c, 0, 72, 0
3, 54000, Note_on_c, 0, 71, 85
3, 54240, Note_on_c, 0, 71, 0
3, 54240, Note_on_c, 0, 69, 87
3, 54480, Note_on_c, 0, 69, 0
3, 54480, Note_on_c, 0, 67, 88
3, 54720, Note_on_c, 0, 67, 0
3, 54960, Note_on_c, 0, 72, 92
3, 55440, Note_on_c, 0, 72, 0
3, 55440, Note_on_c, 0, 74, 97
3, 55680, Note_on_c, 0, 74, 0
3, 55680, Note_on_c, 0, 76, 99
3, 55920, Note_on_c, 0, 76, 0
3, 55920, Note_on_c, 0, 76, 101
3, 56160, Note_on_c, 0, 76, 0
3, 56160, Note_on_c, 0, 77, 103
3, 56400, Note_on_c, 0, 77, 0
3, 56400, Note_on_c, 0, 74, 100
3, 56880, Note_on_c, 0, 74, 0
3, 56880, Note_on_c, 0, 72, 95
3, 57360, Note_on_c, 0, 72, 0
3, 57360, Note_on_c, 0, 65, 89
3, 57360, Note_on_c, 0, 71, 89
3, 58080, Note_on_c, 0, 71, 0
3, 58080, Note_on_c, 0, 65, 0
3, 58080, Note_on_c, 0, 67, 81
3, 58080, Note_on_c, 0, 64, 81
3, 58320, Note_on_c, 0, 64, 0
3, 58320, Note_on_c, 0, 67, 0
3, 67680, Control_c, 0, 7, 107
3, 67680, Control_c, 0, 64, 0
3, 75000, Control_c, 0, 7, 117
3, 93480, Note_on_c, 0, 79, 77
3, 93600, Note_on_c, 0, 79, 0
3, 93720, Note_on_c, 0, 77, 81
3, 93840, Note_on_c, 0, 77, 0
3, 93960, Note_on_c, 0, 77, 91
3, 94080, Note_on_c, 0, 77, 0
3, 94200, Note_on_c, 0, 76, 101
3, 94320, Note_on_c, 0, 76, 0
3, 94440, Note_on_c, 0, 76, 91
3, 94560, Note_on_c, 0, 76, 0
3, 94680, Note_on_c, 0, 74, 84
3, 94800, Note_on_c, 0, 74, 0
3, 94920, Note_on_c, 0, 74, 77
3, 95040, Note_on_c, 0, 74, 0
3, 95280, Note_on_c, 0, 76, 78
3, 95436, Note_on_c, 0, 76, 0
3, 95520, Note_on_c, 0, 76, 100
3, 96000, Note_on_c, 0, 76, 0
3, 96000, Note_on_c, 0, 72, 70
3, 96240, Note_on_c, 0, 72, 0
3, 96480, Control_c, 0, 7, 107
3, 96480, Control_c, 0, 64, 0
3, 102120, Note_on_c, 0, 79, 77
3, 102240, Note_on_c, 0, 79, 0
3, 102360, Note_on_c, 0, 77, 81
3, 102480, Note_on_c, 0, 77, 0
3, 102600, Note_on_c, 0, 77, 91
3, 102720, Note_on_c, 0, 77, 0
3, 102840, Note_on_c, 0, 76, 101
3, 102960, Note_on_c, 0, 76, 0
3, 103080, Note_on_c, 0, 76, 91
3, 103200, Note_on_c, 0, 76, 0
3, 103320, Note_on_c, 0, 74, 84
3, 103440, Note_on_c, 0, 74, 0
3, 103560, Note_on_c, 0, 74, 77
3, 103680, Note_on_c, 0, 74, 0
3, 103920, Note_on_c, 0, 76, 78
3, 104076, Note_on_c, 0, 76, 0
3, 104160, Note_on_c, 0, 76, 100
3, 104640, Note_on_c, 0, 76, 0
3, 104640, Note_on_c, 0, 72, 70
3, 104880, Note_on_c, 0, 72, 0
3, 105120, Control_c, 0, 7, 117
3, 108000, Control_c, 0, 64, 0
3, 112680, Note_on_c, 0, 72, 92
3, 112800, Note_on_c, 0, 72, 0
3, 112920, Note_on_c, 0, 72, 94
3, 113040, Note_on_c, 0, 72, 0
3, 113160, Note_on_c, 0, 72, 97
3, 113280, Note_on_c, 0, 72, 0
3, 113400, Note_on_c, 0, 72, 99
3, 113520, Note_on_c, 0, 72, 0
3, 113640, Note_on_c, 0, 72, 101
3, 113760, Note_on_c, 0, 72, 0
3, 114120, Note_on_c, 0, 86, 110
3, 114240, Note_on_c, 0, 86, 0
3, 114360, Note_on_c, 0, 86, 107
3, 114480, Note_on_c, 0, 86, 0
3, 114600, Note_on_c, 0, 84, 103
3, 114720, Note_on_c, 0, 84, 0
3, 114840, Note_on_c, 0, 84, 99
3, 114960, Note_on_c, 0, 84, 0
3, 115080, Note_on_c, 0, 83, 96
3, 115200, Note_on_c, 0, 83, 0
3, 115440, Note_on_c, 0, 76, 91
3, 115596, Note_on_c, 0, 76, 0
3, 115680, Note_on_c, 0, 79, 110
3, 116160, Note_on_c, 0, 79, 0
3, 116160, Note_on_c, 0, 76, 86
3, 116316, Note_on_c, 0, 76, 0
3, 116640, Control_c, 0, 64, 0
3, 116880, Note_on_c, 0, 52, 84
3, 116880, Note_on_c, 0, 55, 84
3, 116976, Note_on_c, 0, 55, 0
3, 116976, Note_on_c, 0, 52, 0
3, 117000, Note_on_c, 0, 52, 84
3, 117000, Note_on_c, 0, 55, 84
3, 117096, Note_on_c, 0, 55, 0
3, 117096, Note_on_c, 0, 52, 0
3, 117120, Note_on_c, 0, 67, 85
3, 117240, Note_on_c, 0, 67, 0
3, 117360, Note_on_c, 0, 67, 86
3, 117480, Note_on_c, 0, 67, 0
3, 117600, Note_on_c, 0, 65, 86
3, 118080, Note_on_c, 0, 65, 0
3, 118320, Note_on_c, 0, 55, 88
3, 118320, Note_on_c, 0, 52, 88
3, 118416, Note_on_c, 0, 52, 0
3, 118416, Note_on_c, 0, 55, 0
3, 118440, Note_on_c, 0, 52, 89
3, 118440, Note_on_c, 0, 55, 89
3, 118536, Note_on_c, 0, 55, 0
3, 118536, Note_on_c, 0, 52, 0
3, 118560, Note_on_c, 0, 74, 89
3, 118656, Note_on_c, 0, 74, 0
3, 118800, Note_on_c, 0, 74, 90
3, 118896, Note_on_c, 0, 74, 0
3, 119040, Note_on_c, 0, 72, 91
3, 119520, Note_on_c, 0, 72, 0
3, 119760, Note_on_c, 0, 60, 93
3, 119760, Note_on_c, 0, 55, 93
3, 119856, Note_on_c, 0, 55, 0
3, 119856, Note_on_c, 0, 60, 0
3, 119880, Note_on_c, 0, 55, 93
3, 119880, Note_on_c, 0, 60, 93
3, 119976, Note_on_c, 0, 60, 0
3, 119976, Note_on_c, 0, 55, 0
3, 120000, Note_on_c, 0, 72, 93
3, 120096, Note_on_c, 0, 72, 0
3, 120240, Note_on_c, 0, 72, 94
3, 120336, Note_on_c, 0, 72, 0
3, 120480, Note_on_c, 0, 72, 95
3, 120960, Note_on_c, 0, 72, 0
3, 121200, Note_on_c, 0, 60, 98
3, 121200, Note_on_c, 0, 55, 98
3, 121296, Note_on_c, 0, 55, 0
3, 121296, Note_on_c, 0, 60, 0
3, 121320, Note_on_c, 0, 55, 97
3, 121320, Note_on_c, 0, 60, 97
3, 121416, Note_on_c, 0, 60, 0
3, 121416, Note_on_c, 0, 55, 0
3, 121680, Note_on_c, 0, 67, 93
3, 121776, Note_on_c, 0, 67, 0
3, 121800, Note_on_c, 0, 67, 92
3, 121896, Note_on_c, 0, 67, 0
3, 122160, Note_on_c, 0, 55, 89
3, 122160, Note_on_c, 0, 58, 89
3, 122256, Note_on_c, 0, 58, 0
3, 122256, Note_on_c, 0, 55, 0
3, 122280, Note_on_c, 0, 55, 88
3, 122280, Note_on_c, 0, 58, 88
3, 122376, Note_on_c, 0, 58, 0
3, 122376, Note_on_c, 0, 55, 0
3, 122640, Note_on_c, 0, 53, 86
3, 122640, Note_on_c, 0, 57, 86
3, 122736, Note_on_c, 0, 57, 0
3, 122736, Note_on_c, 0, 53, 0
3, 122760, Note_on_c, 0, 53, 87
3, 122760, Note_on_c, 0, 57, 87
3, 122856, Note_on_c, 0, 57, 0
3, 122856, Note_on_c, 0, 53, 0
3, 123120, Note_on_c, 0, 64, 91
3, 123216, Note_on_c, 0, 64, 0
3, 123240, Note_on_c, 0, 64, 93
3, 123336, Note_on_c, 0, 64, 0
3, 123600, Note_on_c, 0, 53, 97
3, 123600, Note_on_c, 0, 50, 97
3, 123696, Note_on_c, 0, 50, 0
3, 123696, Note_on_c, 0, 53, 0
3, 123720, Note_on_c, 0, 50, 98
3, 123720, Note_on_c, 0, 53, 98
3, 123816, Note_on_c, 0, 53, 0
3, 123816, Note_on_c, 0, 50, 0
3, 125280, Control_c, 0, 7, 107
3, 125280, Control_c, 0, 64, 0
3, 125520, Note_on_c, 0, 55, 84
3, 125520, Note_on_c, 0, 52, 84
3, 125616, Note_on_c, 0, 52, 0
3, 125616, Note_on_c, 0, 55, 0
3, 125640, Note_on_c, 0, 55, 84
3, 125640, Note_on_c, 0, 52, 84
3, 125736, Note_on_c, 0, 52, 0
3, 125736, Note_on_c, 0, 55, 0
3, 125760, Note_on_c, 0, 67, 85
3, 125880, Note_on_c, 0, 67, 0
3, 126000, Note_on_c, 0, 67, 86
3, 126120, Note_on_c, 0, 67, 0
3, 126240, Note_on_c, 0, 65, 86
3, 126720, Note_on_c, 0, 65, 0
3, 126960, Note_on_c, 0, 52, 88
3, 126960, Note_on_c, 0, 55, 88
3, 127056, Note_on_c, 0, 55, 0
3, 127056, Note_on_c, 0, 52, 0
3, 127080, Note_on_c, 0, 55, 89
3, 127080, Note_on_c, 0, 52, 89
3, 127176, Note_on_c, 0, 52, 0
3, 127176, Note_on_c, 0, 55, 0
3, 127200, Note_on_c, 0, 74, 89
3, 127296, Note_on_c, 0, 74, 0
3, 127440, Note_on_c, 0, 74, 90
3, 127536, Note_on_c, 0, 74, 0
3, 127680, Note_on_c, 0, 72, 91
3, 128160, Note_on_c, 0, 72, 0
3, 128400, Note_on_c, 0, 55, 93
3, 128400, Note_on_c, 0, 60, 93
3, 128496, Note_on_c, 0, 60, 0
3, 128496, Note_on_c, 0, 55, 0
3, 128520, Note_on_c, 0, 60, 93
3, 128520, Note_on_c, 0, 55, 93
3, 128616, Note_on_c, 0, 55, 0
3, 128616, Note_on_c, 0, 60, 0
3, 128640, Note_on_c, 0, 72, 93
3, 128736, Note_on_c, 0, 72, 0
3, 128880, Note_on_c, 0, 72, 94
3, 128976, Note_on_c, 0, 72, 0
3, 129120, Note_on_c, 0, 72, 95
3, 129600, Note_on_c, 0, 72, 0
3, 129840, Note_on_c, 0, 55, 98
3, 129840, Note_on_c, 0, 60, 98
3, 129936, Note_on_c, 0, 60, 0
3, 129936, Note_on_c, 0, 55, 0
3, 129960, Note_on_c, 0, 60, 97
3, 129960, Note_on_c, 0, 55, 97
3, 130056, Note_on_c, 0, 55, 0
3, 130056, Note_on_c, 0, 60, 0
3, 130320, Note_on_c, 0, 67, 93
3, 130416, Note_on_c, 0, 67, 0
3, 130440, Note_on_c, 0, 67, 92
3, 130536, Note_on_c, 0, 67, 0
3, 130800, Note_on_c, 0, 58, 89
3, 130800, Note_on_c, 0, 55, 89
3, 130896, Note_on_c, 0, 55, 0
3, 130896, Note_on_c, 0, 58, 0
3, 130920, Note_on_c, 0, 58, 88
3, 130920, Note_on_c, 0, 55, 88
3, 131016, Note_on_c, 0, 55, 0
3, 131016, Note_on_c, 0, 58, 0
3, 131280, Note_on_c, 0, 57, 86
3, 131280, Note_on_c, 0, 53, 86
3, 131376, Note_on_c, 0, 53, 0
3, 131376, Note_on_c, 0, 57, 0
3, 131400, Note_on_c, 0, 57, 87
3, 131400, Note_on_c, 0, 53, 87
3, 131496, Note_on_c, 0, 53, 0
3, 131496, Note_on_c, 0, 57, 0
3, 131760, Note_on_c, 0, 64, 91
3, 131856, Note_on_c, 0, 64, 0
3, 131880, Note_on_c, 0, 64, 93
3, 131976, Note_on_c, 0, 64, 0
3, 132240, Note_on_c, 0, 50, 97
3, 132240, Note_on_c, 0, 53, 97
3, 132336, Note_on_c, 0, 53, 0
3, 132336, Note_on_c, 0, 50, 0
3, 132360, Note_on_c, 0, 53, 98
3, 132360, Note_on_c, 0, 50, 98
3, 132456, Note_on_c, 0, 50, 0
3, 132456, Note_on_c, 0, 53, 0
3, 133920, Control_c, 0, 7, 117
3, 134160, Note_on_c, 0, 52, 69
3, 134160, Note_on_c, 0, 48, 69
3, 134256, Note_on_c, 0, 48, 0
3, 134256, Note_on_c, 0, 52, 0
3, 134280, Note_on_c, 0, 52, 72
3, 134280, Note_on_c, 0, 48, 72
3, 134376, Note_on_c, 0, 48, 0
3, 134376, Note_on_c, 0, 52, 0
3, 134640, Note_on_c, 0, 64, 80
3, 134640, Note_on_c, 0, 60, 80
3, 134736, Note_on_c, 0, 60, 0
3, 134736, Note_on_c, 0, 64, 0
3, 134760, Note_on_c, 0, 64, 83
3, 134760, Note_on_c, 0, 60, 83
3, 134856, Note_on_c, 0, 60, 0
3, 134856, Note_on_c, 0, 64, 0
3, 135120, Note_on_c, 0, 76, 92
3, 135120, Note_on_c, 0, 72, 92
3, 135216, Note_on_c, 0, 72, 0
3, 135216, Note_on_c, 0, 76, 0
3, 135240, Note_on_c, 0, 76, 95
3, 135240, Note_on_c, 0, 72, 95
3, 135336, Note_on_c, 0, 72, 0
3, 135336, Note_on_c, 0, 76, 0
3, 135600, Note_on_c, 0, 73, 103
3, 135600, Note_on_c, 0, 76, 103
3, 135696, Note_on_c, 0, 76, 0
3, 135696, Note_on_c, 0, 73, 0
3, 135720, Note_on_c, 0, 73, 106
3, 135720, Note_on_c, 0, 76, 106
3, 135816, Note_on_c, 0, 76, 0
3, 135816, Note_on_c, 0, 73, 0
3, 135840, Note_on_c, 0, 81, 110
3, 135936, Note_on_c, 0, 81, 0
3, 136080, Note_on_c, 0, 81, 113
3, 136176, Note_on_c, 0, 81, 0
3, 136320, Note_on_c, 0, 81, 116
3, 136800, Note_on_c, 0, 81, 0
3, 136800, Control_c, 0, 64, 0
3, 137040, Note_on_c, 0, 48, 74
3, 137040, Note_on_c, 0, 50, 74
3, 137136, Note_on_c, 0, 50, 0
3, 137136, Note_on_c, 0, 48, 0
3, 137160, Note_on_c, 0, 50, 77
3, 137160, Note_on_c, 0, 48, 77
3, 137256, Note_on_c, 0, 48, 0
3, 137256, Note_on_c, 0, 50, 0
3, 137520, Note_on_c, 0, 62, 85
3, 137520, Note_on_c, 0, 60, 85
3, 137616, Note_on_c, 0, 60, 0
3, 137616, Note_on_c, 0, 62, 0
3, 137640, Note_on_c, 0, 62, 88
3, 137736, Note_on_c, 0, 62, 0
3, 138000, Note_on_c, 0, 74, 96
3, 138000, Note_on_c, 0, 72, 96
3, 138096, Note_on_c, 0, 72, 0
3, 138096, Note_on_c, 0, 74, 0
3, 138120, Note_on_c, 0, 74, 99
3, 138120, Note_on_c, 0, 72, 99
3, 138216, Note_on_c, 0, 72, 0
3, 138216, Note_on_c, 0, 74, 0
3, 138480, Note_on_c, 0, 74, 107
3, 138480, Note_on_c, 0, 71, 107
3, 138576, Note_on_c, 0, 71, 0
3, 138576, Note_on_c, 0, 74, 0
3, 138600, Note_on_c, 0, 74, 110
3, 138600, Note_on_c, 0, 71, 110
3, 138696, Note_on_c, 0, 71, 0
3, 138696, Note_on_c, 0, 74, 0
3, 138720, Note_on_c, 0, 86, 112
3, 138720, Note_on_c, 0, 79, 112
3, 138816, Note_on_c, 0, 79, 0
3, 138816, Note_on_c, 0, 86, 0
3, 138960, Note_on_c, 0, 84, 115
3, 138960, Note_on_c, 0, 79, 115
3, 139056, Note_on_c, 0, 79, 0
3, 139056, Note_on_c, 0, 84, 0
3, 139200, Note_on_c, 0, 83, 117
3, 139200, Note_on_c, 0, 79, 117
3, 139680, Note_on_c, 0, 79, 0
3, 139680, Note_on_c, 0, 83, 0
3, 139920, Note_on_c, 0, 84, 109
3, 140016, Note_on_c, 0, 84, 0
3, 140040, Note_on_c, 0, 84, 110
3, 140136, Note_on_c, 0, 84, 0
3, 140400, Note_on_c, 0, 84, 112
3, 140496, Note_on_c, 0, 84, 0
3, 140520, Note_on_c, 0, 84, 113
3, 140616, Note_on_c, 0, 84, 0
3, 140880, Note_on_c, 0, 84, 115
3, 140976, Note_on_c, 0, 84, 0
3, 141000, Note_on_c, 0, 84, 116
3, 141096, Note_on_c, 0, 84, 0
3, 142320, Note_on_c, 0, 60, 127
3, 142476, Note_on_c, 0, 60, 0
3, 142800, Note_on_c, 0, 62, 116
3, 142800, Note_on_c, 0, 60, 116
3, 142896, Note_on_c, 0, 60, 0
3, 142896, Note_on_c, 0, 62, 0
3, 142920, Note_on_c, 0, 62, 113
3, 142920, Note_on_c, 0, 60, 113
3, 143016, Note_on_c, 0, 60, 0
3, 143016, Note_on_c, 0, 62, 0
3, 143280, Note_on_c, 0, 62, 105
3, 143280, Note_on_c, 0, 60, 105
3, 143376, Note_on_c, 0, 60, 0
3, 143376, Note_on_c, 0, 62, 0
3, 143400, Note_on_c, 0, 62, 103
3, 143400, Note_on_c, 0, 60, 103
3, 143496, Note_on_c, 0, 60, 0
3, 143496, Note_on_c, 0, 62, 0
3, 143760, Note_on_c, 0, 62, 95
3, 143760, Note_on_c, 0, 59, 95
3, 143856, Note_on_c, 0, 59, 0
3, 143856, Note_on_c, 0, 62, 0
3, 143880, Note_on_c, 0, 62, 92
3, 143880, Note_on_c, 0, 59, 92
3, 143976, Note_on_c, 0, 59, 0
3, 143976, Note_on_c, 0, 62, 0
3, 146880, Control_c, 0, 64, 0
3, 155520, Control_c, 0, 7, 107
3, 155520, Control_c, 0, 64, 0
3, 164160, Control_c, 0, 7, 117
3, 167040, Control_c, 0, 64, 0
3, 174240, Note_on_c, 0, 71, 66
3, 174720, Note_on_c, 0, 71, 0
3, 175200, Note_on_c, 0, 67, 69
3, 175200, Note_on_c, 0, 64, 69
3, 175434, Note_on_c, 0, 64, 0
3, 175434, Note_on_c, 0, 67, 0
3, 175560, Note_on_c, 0, 67, 71
3, 175560, Note_on_c, 0, 64, 71
3, 175638, Note_on_c, 0, 64, 0
3, 175638, Note_on_c, 0, 67, 0
3, 175680, Note_on_c, 0, 64, 79
3, 175680, Note_on_c, 0, 67, 79
3, 176400, Note_on_c, 0, 67, 0
3, 176400, Note_on_c, 0, 64, 0
3, 176400, Note_on_c, 0, 67, 64
3, 176400, Note_on_c, 0, 65, 64
3, 176640, Note_on_c, 0, 65, 0
3, 176640, Note_on_c, 0, 67, 0
3, 176640, Note_on_c, 0, 64, 62
3, 176640, Note_on_c, 0, 67, 62
3, 176874, Note_on_c, 0, 67, 0
3, 176874, Note_on_c, 0, 64, 0
3, 177000, Note_on_c, 0, 65, 67
3, 177000, Note_on_c, 0, 67, 67
3, 177078, Note_on_c, 0, 67, 0
3, 177078, Note_on_c, 0, 65, 0
3, 177120, Note_on_c, 0, 64, 69
3, 177120, Note_on_c, 0, 67, 69
3, 177354, Note_on_c, 0, 67, 0
3, 177354, Note_on_c, 0, 64, 0
3, 177480, Note_on_c, 0, 69, 74
3, 177558, Note_on_c, 0, 69, 0
3, 177600, Note_on_c, 0, 62, 78
3, 177600, Note_on_c, 0, 67, 78
3, 178320, Note_on_c, 0, 67, 0
3, 178320, Note_on_c, 0, 62, 0
3, 178320, Note_on_c, 0, 67, 66
3, 178560, Note_on_c, 0, 67, 0
3, 178560, Control_c, 0, 64, 0
3, 178560, Note_on_c, 0, 67, 66
3, 178794, Note_on_c, 0, 67, 0
3, 178920, Note_on_c, 0, 67, 69
3, 178998, Note_on_c, 0, 67, 0
3, 179040, Note_on_c, 0, 67, 70
3, 179274, Note_on_c, 0, 67, 0
3, 179400, Note_on_c, 0, 67, 77
3, 179478, Note_on_c, 0, 67, 0
3, 179520, Note_on_c, 0, 67, 81
3, 180240, Note_on_c, 0, 67, 0
3, 180240, Note_on_c, 0, 67, 68
3, 180480, Note_on_c, 0, 67, 0
3, 180480, Note_on_c, 0, 67, 70
3, 180714, Note_on_c, 0, 67, 0
3, 180840, Note_on_c, 0, 67, 73
3, 180918, Note_on_c, 0, 67, 0
3, 180960, Note_on_c, 0, 69, 74
3, 181194, Note_on_c, 0, 69, 0
3, 181320, Note_on_c, 0, 69, 76
3, 181398, Note_on_c, 0, 69, 0
3, 181440, Note_on_c, 0, 67, 78
3, 181674, Note_on_c, 0, 67, 0
3, 181800, Note_on_c, 0, 67, 82
3, 181878, Note_on_c, 0, 67, 0
3, 181920, Note_on_c, 0, 65, 83
3, 182154, Note_on_c, 0, 65, 0
3, 182280, Note_on_c, 0, 65, 88
3, 182358, Note_on_c, 0, 65, 0
3, 182400, Note_on_c, 0, 64, 89
3, 182634, Note_on_c, 0, 64, 0
3, 182760, Note_on_c, 0, 64, 93
3, 182838, Note_on_c, 0, 64, 0
3, 182880, Note_on_c, 0, 65, 94
3, 183114, Note_on_c, 0, 65, 0
3, 183240, Note_on_c, 0, 65, 99
3, 183318, Note_on_c, 0, 65, 0
3, 183360, Note_on_c, 0, 65, 106
3, 183720, Note_on_c, 0, 65, 0
3, 183840, Note_on_c, 0, 65, 95
3, 183840, Note_on_c, 0, 69, 95
3, 184074, Note_on_c, 0, 69, 0
3, 184074, Note_on_c, 0, 65, 0
3, 184200, Note_on_c, 0, 65, 90
3, 184200, Note_on_c, 0, 69, 90
3, 184278, Note_on_c, 0, 69, 0
3, 184278, Note_on_c, 0, 65, 0
3, 184320, Note_on_c, 0, 67, 88
3, 184320, Note_on_c, 0, 64, 88
3, 184554, Note_on_c, 0, 64, 0
3, 184554, Note_on_c, 0, 67, 0
3, 184680, Note_on_c, 0, 64, 83
3, 184680, Note_on_c, 0, 67, 83
3, 184758, Note_on_c, 0, 67, 0
3, 184758, Note_on_c, 0, 64, 0
3, 184800, Note_on_c, 0, 67, 81
3, 184800, Note_on_c, 0, 62, 81
3, 185034, Note_on_c, 0, 62, 0
3, 185034, Note_on_c, 0, 67, 0
3, 185160, Note_on_c, 0, 67, 75
3, 185160, Note_on_c, 0, 62, 75
3, 185238, Note_on_c, 0, 62, 0
3, 185238, Note_on_c, 0, 67, 0
3, 185280, Note_on_c, 0, 67, 73
3, 185280, Note_on_c, 0, 64, 73
3, 185640, Note_on_c, 0, 64, 0
3, 185640, Note_on_c, 0, 67, 0
3, 185760, Note_on_c, 0, 84, 70
3, 185880, Note_on_c, 0, 84, 0
3, 185880, Note_on_c, 0, 79, 69
3, 186000, Note_on_c, 0, 79, 0
3, 186000, Note_on_c, 0, 84, 68
3, 186120, Note_on_c, 0, 84, 0
3, 186120, Note_on_c, 0, 79, 67
3, 186240, Note_on_c, 0, 79, 0
3, 186240, Note_on_c, 0, 76, 66
3, 186600, Note_on_c, 0, 76, 0
3, 186720, Note_on_c, 0, 79, 69
3, 186840, Note_on_c, 0, 79, 0
3, 186840, Note_on_c, 0, 76, 71
3, 186960, Note_on_c, 0, 76, 0
3, 186960, Note_on_c, 0, 79, 74
3, 187080, Note_on_c, 0, 79, 0
3, 187080, Note_on_c, 0, 76, 76
3, 187200, Note_on_c, 0, 76, 0
3, 187200, Control_c, 0, 7, 107
3, 187200, Note_on_c, 0, 67, 79
3, 187200, Note_on_c, 0, 64, 79
3, 187920, Note_on_c, 0, 64, 0
3, 187920, Note_on_c, 0, 67, 0
3, 187920, Note_on_c, 0, 65, 64
3, 187920, Note_on_c, 0, 67, 64
3, 188160, Note_on_c, 0, 67, 0
3, 188160, Note_on_c, 0, 65, 0
3, 188160, Note_on_c, 0, 67, 62
3, 188160, Note_on_c, 0, 64, 62
3, 188394, Note_on_c, 0, 64, 0
3, 188394, Note_on_c, 0, 67, 0
3, 188520, Note_on_c, 0, 67, 67
3, 188520, Note_on_c, 0, 65, 67
3, 188598, Note_on_c, 0, 65, 0
3, 188598, Note_on_c, 0, 67, 0
3, 188640, Note_on_c, 0, 67, 69
3, 188640, Note_on_c, 0, 64, 69
3, 188874, Note_on_c, 0, 64, 0
3, 188874, Note_on_c, 0, 67, 0
3, 189000, Note_on_c, 0, 69, 74
3, 189078, Note_on_c, 0, 69, 0
3, 189120, Note_on_c, 0, 67, 78
3, 189120, Note_on_c, 0, 62, 78
3, 189840, Note_on_c, 0, 62, 0
3, 189840, Note_on_c, 0, 67, 0
3, 189840, Note_on_c, 0, 67, 66
3, 190080, Note_on_c, 0, 67, 0
3, 190080, Control_c, 0, 64, 0
3, 190080, Note_on_c, 0, 67, 66
3, 190314, Note_on_c, 0, 67, 0
3, 190440, Note_on_c, 0, 67, 69
3, 190518, Note_on_c, 0, 67, 0
3, 190560, Note_on_c, 0, 67, 70
3, 190794, Note_on_c, 0, 67, 0
3, 190920, Note_on_c, 0, 67, 77
3, 190998, Note_on_c, 0, 67, 0
3, 191040, Note_on_c, 0, 67, 81
3, 191760, Note_on_c, 0, 67, 0
3, 191760, Note_on_c, 0, 67, 68
3, 192000, Note_on_c, 0, 67, 0
3, 192000, Note_on_c, 0, 67, 70
3, 192234, Note_on_c, 0, 67, 0
3, 192360, Note_on_c, 0, 67, 73
3, 192438, Note_on_c, 0, 67, 0
3, 192480, Note_on_c, 0, 69, 74
3, 192714, Note_on_c, 0, 69, 0
3, 192840, Note_on_c, 0, 69, 76
3, 192918, Note_on_c, 0, 69, 0
3, 192960, Note_on_c, 0, 67, 78
3, 193194, Note_on_c, 0, 67, 0
3, 193320, Note_on_c, 0, 67, 82
3, 193398, Note_on_c, 0, 67, 0
3, 193440, Note_on_c, 0, 65, 83
3, 193674, Note_on_c, 0, 65, 0
3, 193800, Note_on_c, 0, 65, 88
3, 193878, Note_on_c, 0, 65, 0
3, 193920, Note_on_c, 0, 64, 89
3, 194154, Note_on_c, 0, 64, 0
3, 194280, Note_on_c, 0, 64, 93
3, 194358, Note_on_c, 0, 64, 0
3, 194400, Note_on_c, 0, 65, 94
3, 194634, Note_on_c, 0, 65, 0
3, 194760, Note_on_c, 0, 65, 99
3, 194838, Note_on_c, 0, 65, 0
3, 194880, Note_on_c, 0, 65, 106
3, 195240, Note_on_c, 0, 65, 0
3, 195360, Note_on_c, 0, 69, 95
3, 195360, Note_on_c, 0, 65, 95
3, 195594, Note_on_c, 0, 65, 0
3, 195594, Note_on_c, 0, 69, 0
3, 195720, Note_on_c, 0, 69, 90
3, 195720, Note_on_c, 0, 65, 90
3, 195798, Note_on_c, 0, 65, 0
3, 195798, Note_on_c, 0, 69, 0
3, 195840, Note_on_c, 0, 64, 88
3, 195840, Note_on_c, 0, 67, 88
3, 196074, Note_on_c, 0, 67, 0
3, 196074, Note_on_c, 0, 64, 0
3, 196200, Note_on_c, 0, 67, 83
3, 196200, Note_on_c, 0, 64, 83
3, 196278, Note_on_c, 0, 64, 0
3, 196278, Note_on_c, 0, 67, 0
3, 196320, Note_on_c, 0, 62, 81
3, 196320, Note_on_c, 0, 67, 81
3, 196554, Note_on_c, 0, 67, 0
3, 196554, Note_on_c, 0, 62, 0
3, 196680, Note_on_c, 0, 62, 75
3, 196680, Note_on_c, 0, 67, 75
3, 196758, Note_on_c, 0, 67, 0
3, 196758, Note_on_c, 0, 62, 0
3, 196800, Note_on_c, 0, 64, 73
3, 196800, Note_on_c, 0, 67, 73
3, 197160, Note_on_c, 0, 67, 0
3, 197160, Note_on_c, 0, 64, 0
3, 197280, Note_on_c, 0, 79, 70
3, 197400, Note_on_c, 0, 79, 0
3, 197400, Note_on_c, 0, 76, 69
3, 197520, Note_on_c, 0, 76, 0
3, 197520, Note_on_c, 0, 79, 68
3, 197640, Note_on_c, 0, 79, 0
3, 197640, Note_on_c, 0, 76, 67
3, 197760, Note_on_c, 0, 76, 0
3, 197760, Note_on_c, 0, 72, 66
3, 198120, Note_on_c, 0, 72, 0
3, 198240, Control_c, 0, 7, 117
3, 198240, Note_on_c, 0, 67, 90
3, 198240, Note_on_c, 0, 72, 90
3, 198474, Note_on_c, 0, 72, 0
3, 198474, Note_on_c, 0, 67, 0
3, 198600, Note_on_c, 0, 72, 89
3, 198600, Note_on_c, 0, 67, 89
3, 198678, Note_on_c, 0, 67, 0
3, 198678, Note_on_c, 0, 72, 0
3, 198720, Note_on_c, 0, 72, 96
3, 198720, Note_on_c, 0, 67, 96
3, 199335, Note_on_c, 0, 72, 0
3, 199350, Note_on_c, 0, 67, 0
3, 199440, Note_on_c, 0, 72, 81
3, 199440, Note_on_c, 0, 67, 81
3, 199596, Note_on_c, 0, 67, 0
3, 199596, Note_on_c, 0, 72, 0
3, 199680, Note_on_c, 0, 72, 79
3, 199680, Note_on_c, 0, 67, 79
3, 199914, Note_on_c, 0, 72, 0
3, 199915, Note_on_c, 0, 67, 0
3, 200040, Note_on_c, 0, 72, 76
3, 200040, Note_on_c, 0, 67, 76
3, 200118, Note_on_c, 0, 67, 0
3, 200118, Note_on_c, 0, 72, 0
3, 200160, Note_on_c, 0, 67, 75
3, 200160, Note_on_c, 0, 71, 75
3, 200394, Note_on_c, 0, 71, 0
3, 200394, Note_on_c, 0, 67, 0
3, 200520, Note_on_c, 0, 70, 72
3, 200520, Note_on_c, 0, 67, 72
3, 200598, Note_on_c, 0, 67, 0
3, 200598, Note_on_c, 0, 70, 0
3, 200640, Note_on_c, 0, 71, 71
3, 200640, Note_on_c, 0, 67, 71
3, 201000, Note_on_c, 0, 67, 0
3, 201000, Note_on_c, 0, 71, 0
3, 202080, Note_on_c, 0, 71, 78
3, 202080, Note_on_c, 0, 67, 78
3, 202314, Note_on_c, 0, 67, 0
3, 202314, Note_on_c, 0, 71, 0
3, 202440, Note_on_c, 0, 71, 84
3, 202440, Note_on_c, 0, 67, 84
3, 202518, Note_on_c, 0, 67, 0
3, 202518, Note_on_c, 0, 71, 0
3, 202560, Note_on_c, 0, 71, 92
3, 202560, Note_on_c, 0, 67, 92
3, 203167, Note_on_c, 0, 71, 0
3, 203175, Note_on_c, 0, 67, 0
3, 203280, Note_on_c, 0, 67, 82
3, 203280, Note_on_c, 0, 71, 82
3, 203436, Note_on_c, 0, 71, 0
3, 203436, Note_on_c, 0, 67, 0
3, 203520, Note_on_c, 0, 71, 80
3, 203520, Note_on_c, 0, 67, 80
3, 203754, Note_on_c, 0, 67, 0
3, 203754, Note_on_c, 0, 71, 0
3, 203880, Note_on_c, 0, 71, 77
3, 203880, Note_on_c, 0, 67, 77
3, 203958, Note_on_c, 0, 67, 0
3, 203958, Note_on_c, 0, 71, 0
3, 204000, Note_on_c, 0, 67, 76
3, 204000, Note_on_c, 0, 72, 76
3, 204234, Note_on_c, 0, 72, 0
3, 204234, Note_on_c, 0, 67, 0
3, 204360, Note_on_c, 0, 69, 74
3, 204438, Note_on_c, 0, 69, 0
3, 204480, Note_on_c, 0, 68, 72
3, 204840, Note_on_c, 0, 68, 0
3, 204960, Note_on_c, 0, 71, 62
3, 205080, Note_on_c, 0, 71, 0
3, 205080, Note_on_c, 0, 68, 61
3, 205200, Note_on_c, 0, 68, 0
3, 205200, Note_on_c, 0, 71, 60
3, 205320, Note_on_c, 0, 71, 0
3, 205320, Note_on_c, 0, 68, 59
3, 205440, Note_on_c, 0, 68, 0
3, 205440, Note_on_c, 0, 64, 56
3, 205800, Note_on_c, 0, 64, 0
3, 205920, Note_on_c, 0, 68, 63
3, 206154, Note_on_c, 0, 68, 0
3, 206280, Note_on_c, 0, 68, 66
3, 206358, Note_on_c, 0, 68, 0
3, 206400, Note_on_c, 0, 68, 67
3, 206760, Note_on_c, 0, 68, 0
3, 206880, Note_on_c, 0, 68, 71
3, 207114, Note_on_c, 0, 68, 0
3, 207240, Note_on_c, 0, 68, 74
3, 207318, Note_on_c, 0, 68, 0
3, 207360, Note_on_c, 0, 69, 75
3, 207720, Note_on_c, 0, 69, 0
3, 208320, Note_on_c, 0, 76, 87
3, 208320, Note_on_c, 0, 72, 87
3, 209040, Note_on_c, 0, 72, 0
3, 209040, Note_on_c, 0, 76, 0
3, 209040, Note_on_c, 0, 77, 90
3, 209040, Note_on_c, 0, 72, 90
3, 209280, Note_on_c, 0, 72, 0
3, 209280, Note_on_c, 0, 77, 0
3, 209280, Note_on_c, 0, 72, 93
3, 209280, Note_on_c, 0, 79, 93
3, 209514, Note_on_c, 0, 79, 0
3, 209514, Note_on_c, 0, 72, 0
3, 209640, Note_on_c, 0, 79, 96
3, 209718, Note_on_c, 0, 79, 0
3, 209760, Note_on_c, 0, 72, 97
3, 209760, Note_on_c, 0, 79, 97
3, 209994, Note_on_c, 0, 79, 0
3, 209994, Note_on_c, 0, 72, 0
3, 210120, Note_on_c, 0, 79, 102
3, 210198, Note_on_c, 0, 79, 0
3, 210240, Note_on_c, 0, 72, 108
3, 210240, Note_on_c, 0, 77, 108
3, 210960, Note_on_c, 0, 77, 0
3, 210960, Note_on_c, 0, 72, 0
3, 210960, Note_on_c, 0, 76, 97
3, 211080, Note_on_c, 0, 76, 0
3, 211080, Note_on_c, 0, 74, 95
3, 211200, Note_on_c, 0, 74, 0
3, 211200, Note_on_c, 0, 72, 93
3, 211434, Note_on_c, 0, 72, 0
3, 211560, Note_on_c, 0, 72, 87
3, 211638, Note_on_c, 0, 72, 0
3, 211680, Note_on_c, 0, 65, 85
3, 211914, Note_on_c, 0, 65, 0
3, 212040, Note_on_c, 0, 65, 79
3, 212118, Note_on_c, 0, 65, 0
3, 212160, Note_on_c, 0, 64, 77
3, 212316, Note_on_c, 0, 64, 0
3, 214200, Note_on_c, 0, 67, 69
3, 214320, Note_on_c, 0, 67, 0
3, 214320, Note_on_c, 0, 64, 70
3, 214440, Note_on_c, 0, 64, 0
3, 214440, Note_on_c, 0, 67, 70
3, 214560, Note_on_c, 0, 67, 0
3, 214680, Note_on_c, 0, 67, 72
3, 214800, Note_on_c, 0, 67, 0
3, 214920, Note_on_c, 0, 67, 74
3, 215040, Note_on_c, 0, 67, 0
3, 215160, Note_on_c, 0, 67, 75
3, 215280, Note_on_c, 0, 67, 0
3, 215400, Note_on_c, 0, 67, 77
3, 215520, Note_on_c, 0, 67, 0
3, 215640, Note_on_c, 0, 67, 79
3, 215760, Note_on_c, 0, 67, 0
3, 215880, Note_on_c, 0, 67, 80
3, 216000, Note_on_c, 0, 67, 0
3, 216120, Note_on_c, 0, 67, 80
3, 216240, Note_on_c, 0, 67, 0
3, 216240, Note_on_c, 0, 66, 79
3, 216360, Note_on_c, 0, 66, 0
3, 216360, Note_on_c, 0, 67, 78
3, 216480, Note_on_c, 0, 67, 0
3, 216600, Note_on_c, 0, 67, 77
3, 216720, Note_on_c, 0, 67, 0
3, 216840, Note_on_c, 0, 67, 75
3, 216960, Note_on_c, 0, 67, 0
3, 217080, Note_on_c, 0, 67, 73
3, 217200, Note_on_c, 0, 67, 0
3, 217320, Note_on_c, 0, 67, 72
3, 217440, Note_on_c, 0, 67, 0
3, 217560, Note_on_c, 0, 67, 70
3, 217680, Note_on_c, 0, 67, 0
3, 217800, Note_on_c, 0, 67, 68
3, 217920, Note_on_c, 0, 67, 0
3, 218040, Note_on_c, 0, 72, 69
3, 218160, Note_on_c, 0, 72, 0
3, 218160, Note_on_c, 0, 67, 70
3, 218280, Note_on_c, 0, 67, 0
3, 218280, Note_on_c, 0, 72, 72
3, 218400, Note_on_c, 0, 72, 0
3, 218520, Note_on_c, 0, 67, 74
3, 218640, Note_on_c, 0, 67, 0
3, 218760, Note_on_c, 0, 67, 76
3, 218880, Note_on_c, 0, 67, 0
3, 219000, Note_on_c, 0, 67, 78
3, 219120, Note_on_c, 0, 67, 0
3, 219240, Note_on_c, 0, 72, 81
3, 219360, Note_on_c, 0, 72, 0
3, 219480, Note_on_c, 0, 72, 83
3, 219600, Note_on_c, 0, 72, 0
3, 219720, Note_on_c, 0, 69, 85
3, 219840, Note_on_c, 0, 69, 0
3, 219960, Note_on_c, 0, 72, 87
3, 220080, Note_on_c, 0, 72, 0
3, 220080, Note_on_c, 0, 67, 86
3, 220200, Note_on_c, 0, 67, 0
3, 220200, Note_on_c, 0, 72, 85
3, 220320, Note_on_c, 0, 72, 0
3, 220440, Note_on_c, 0, 67, 84
3, 220560, Note_on_c, 0, 67, 0
3, 220560, Note_on_c, 0, 71, 83
3, 220680, Note_on_c, 0, 71, 0
3, 220680, Note_on_c, 0, 67, 83
3, 220800, Note_on_c, 0, 67, 0
3, 220920, Note_on_c, 0, 67, 81
3, 221040, Note_on_c, 0, 67, 0
3, 221160, Note_on_c, 0, 67, 80
3, 221280, Note_on_c, 0, 67, 0
3, 221400, Note_on_c, 0, 67, 79
3, 221520, Note_on_c, 0, 67, 0
3, 221640, Note_on_c, 0, 67, 78
3, 221760, Note_on_c, 0, 67, 0
3, 221880, Note_on_c, 0, 65, 76
3, 222000, Note_on_c, 0, 65, 0
3, 222120, Note_on_c, 0, 67, 75
3, 222240, Note_on_c, 0, 67, 0
3, 222360, Note_on_c, 0, 69, 74
3, 222480, Note_on_c, 0, 69, 0
3, 222600, Note_on_c, 0, 65, 72
3, 222720, Note_on_c, 0, 65, 0
3, 222840, Note_on_c, 0, 64, 71
3, 222960, Note_on_c, 0, 64, 0
3, 223080, Note_on_c, 0, 63, 70
3, 223200, Note_on_c, 0, 63, 0
3, 223320, Note_on_c, 0, 62, 68
3, 223440, Note_on_c, 0, 62, 0
3, 223560, Note_on_c, 0, 65, 67
3, 223680, Note_on_c, 0, 65, 0
3, 223680, Note_on_c, 0, 64, 67
3, 223836, Note_on_c, 0, 64, 0
3, 225720, Note_on_c, 0, 72, 93
3, 225840, Note_on_c, 0, 72, 0
3, 225840, Note_on_c, 0, 67, 93
3, 225960, Note_on_c, 0, 67, 0
3, 225960, Note_on_c, 0, 72, 92
3, 226080, Note_on_c, 0, 72, 0
3, 226200, Note_on_c, 0, 72, 91
3, 226320, Note_on_c, 0, 72, 0
3, 226440, Note_on_c, 0, 70, 89
3, 226560, Note_on_c, 0, 70, 0
3, 226680, Note_on_c, 0, 69, 88
3, 226800, Note_on_c, 0, 69, 0
3, 226920, Note_on_c, 0, 74, 86
3, 227040, Note_on_c, 0, 74, 0
3, 227160, Note_on_c, 0, 73, 85
3, 227280, Note_on_c, 0, 73, 0
3, 227400, Note_on_c, 0, 74, 84
3, 227520, Note_on_c, 0, 74, 0
3, 227520, Note_on_c, 0, 76, 91
3, 227676, Note_on_c, 0, 76, 0
3, 228000, Note_on_c, 0, 74, 88
3, 228156, Note_on_c, 0, 74, 0
3, 228480, Note_on_c, 0, 73, 85
3, 228636, Note_on_c, 0, 73, 0
3, 229560, Note_on_c, 0, 69, 91
3, 229680, Note_on_c, 0, 69, 0
3, 229680, Note_on_c, 0, 65, 90
3, 229800, Note_on_c, 0, 65, 0
3, 229800, Note_on_c, 0, 69, 89
3, 229920, Note_on_c, 0, 69, 0
3, 230040, Note_on_c, 0, 69, 87
3, 230160, Note_on_c, 0, 69, 0
3, 230280, Note_on_c, 0, 68, 86
3, 230400, Note_on_c, 0, 68, 0
3, 230520, Note_on_c, 0, 67, 84
3, 230640, Note_on_c, 0, 67, 0
3, 230760, Note_on_c, 0, 72, 82
3, 230880, Note_on_c, 0, 72, 0
3, 231000, Note_on_c, 0, 71, 80
3, 231120, Note_on_c, 0, 71, 0
3, 231240, Note_on_c, 0, 72, 78
3, 231360, Note_on_c, 0, 72, 0
3, 231360, Note_on_c, 0, 74, 87
3, 231516, Note_on_c, 0, 74, 0
3, 231840, Note_on_c, 0, 72, 83
3, 231996, Note_on_c, 0, 72, 0
3, 232320, Note_on_c, 0, 71, 79
3, 232476, Note_on_c, 0, 71, 0
3, 233400, Note_on_c, 0, 72, 75
3, 233520, Note_on_c, 0, 72, 0
3, 233520, Note_on_c, 0, 67, 76
3, 233640, Note_on_c, 0, 67, 0
3, 233640, Note_on_c, 0, 72, 76
3, 233760, Note_on_c, 0, 72, 0
3, 233880, Note_on_c, 0, 72, 77
3, 234000, Note_on_c, 0, 72, 0
3, 234120, Note_on_c, 0, 72, 78
3, 234240, Note_on_c, 0, 72, 0
3, 234360, Note_on_c, 0, 72, 80
3, 234480, Note_on_c, 0, 72, 0
3, 234600, Note_on_c, 0, 71, 81
3, 234720, Note_on_c, 0, 71, 0
3, 234840, Note_on_c, 0, 69, 82
3, 234960, Note_on_c, 0, 69, 0
3, 235080, Note_on_c, 0, 67, 83
3, 235200, Note_on_c, 0, 67, 0
3, 235320, Note_on_c, 0, 72, 84
3, 235440, Note_on_c, 0, 72, 0
3, 235440, Note_on_c, 0, 67, 85
3, 235560, Note_on_c, 0, 67, 0
3, 235560, Note_on_c, 0, 72, 85
3, 235680, Note_on_c, 0, 72, 0
3, 235800, Note_on_c, 0, 72, 86
3, 235920, Note_on_c, 0, 72, 0
3, 236040, Note_on_c, 0, 72, 87
3, 236160, Note_on_c, 0, 72, 0
3, 236280, Note_on_c, 0, 72, 89
3, 236400, Note_on_c, 0, 72, 0
3, 236520, Note_on_c, 0, 72, 90
3, 236640, Note_on_c, 0, 72, 0
3, 236760, Note_on_c, 0, 72, 91
3, 236880, Note_on_c, 0, 72, 0
3, 237000, Note_on_c, 0, 72, 92
3, 237120, Note_on_c, 0, 72, 0
3, 237240, Note_on_c, 0, 72, 93
3, 237360, Note_on_c, 0, 72, 0
3, 237360, Note_on_c, 0, 74, 94
3, 237480, Note_on_c, 0, 74, 0
3, 237480, Note_on_c, 0, 72, 94
3, 237600, Note_on_c, 0, 72, 0
3, 237720, Note_on_c, 0, 72, 95
3, 237840, Note_on_c, 0, 72, 0
3, 237840, Note_on_c, 0, 74, 96
3, 237960, Note_on_c, 0, 74, 0
3, 237960, Note_on_c, 0, 72, 96
3, 238080, Note_on_c, 0, 72, 0
3, 238200, Note_on_c, 0, 72, 97
3, 238320, Note_on_c, 0, 72, 0
3, 238320, Note_on_c, 0, 74, 98
3, 238440, Note_on_c, 0, 74, 0
3, 238440, Note_on_c, 0, 72, 99
3, 238560, Note_on_c, 0, 72, 0
3, 238680, Note_on_c, 0, 71, 100
3, 238800, Note_on_c, 0, 71, 0
3, 238800, Note_on_c, 0, 69, 100
3, 238920, Note_on_c, 0, 69, 0
3, 238920, Note_on_c, 0, 71, 101
3, 239040, Note_on_c, 0, 71, 0
3, 248760, Note_on_c, 0, 72, 71
3, 248856, Note_on_c, 0, 72, 0
3, 248880, Note_on_c, 0, 67, 71
3, 248976, Note_on_c, 0, 67, 0
3, 249000, Note_on_c, 0, 72, 72
3, 249096, Note_on_c, 0, 72, 0
3, 249240, Note_on_c, 0, 72, 74
3, 249336, Note_on_c, 0, 72, 0
3, 249480, Note_on_c, 0, 72, 75
3, 249576, Note_on_c, 0, 72, 0
3, 249720, Note_on_c, 0, 72, 76
3, 249816, Note_on_c, 0, 72, 0
3, 249960, Note_on_c, 0, 72, 78
3, 250056, Note_on_c, 0, 72, 0
3, 250200, Note_on_c, 0, 69, 79
3, 250296, Note_on_c, 0, 69, 0
3, 250440, Note_on_c, 0, 67, 81
3, 250536, Note_on_c, 0, 67, 0
3, 250680, Note_on_c, 0, 72, 82
3, 250776, Note_on_c, 0, 72, 0
3, 250800, Note_on_c, 0, 67, 83
3, 250896, Note_on_c, 0, 67, 0
3, 250920, Note_on_c, 0, 72, 84
3, 251016, Note_on_c, 0, 72, 0
3, 251160, Note_on_c, 0, 72, 85
3, 251256, Note_on_c, 0, 72, 0
3, 251400, Note_on_c, 0, 72, 86
3, 251496, Note_on_c, 0, 72, 0
3, 251640, Note_on_c, 0, 72, 88
3, 251736, Note_on_c, 0, 72, 0
3, 251880, Note_on_c, 0, 72, 89
3, 251976, Note_on_c, 0, 72, 0
3, 252120, Note_on_c, 0, 72, 91
3, 252216, Note_on_c, 0, 72, 0
3, 252360, Note_on_c, 0, 72, 92
3, 252456, Note_on_c, 0, 72, 0
3, 252600, Note_on_c, 0, 72, 94
3, 252696, Note_on_c, 0, 72, 0
3, 252720, Note_on_c, 0, 74, 93
3, 252816, Note_on_c, 0, 74, 0
3, 252840, Note_on_c, 0, 72, 92
3, 252936, Note_on_c, 0, 72, 0
3, 253080, Note_on_c, 0, 72, 90
3, 253176, Note_on_c, 0, 72, 0
3, 253200, Note_on_c, 0, 74, 89
3, 253296, Note_on_c, 0, 74, 0
3, 253320, Note_on_c, 0, 72, 88
3, 253416, Note_on_c, 0, 72, 0
3, 253560, Note_on_c, 0, 72, 86
3, 253656, Note_on_c, 0, 72, 0
3, 253680, Note_on_c, 0, 74, 86
3, 253776, Note_on_c, 0, 74, 0
3, 253800, Note_on_c, 0, 72, 85
3, 253896, Note_on_c, 0, 72, 0
3, 254040, Note_on_c, 0, 71, 83
3, 254136, Note_on_c, 0, 71, 0
3, 254280, Note_on_c, 0, 71, 81
3, 254376, Note_on_c, 0, 71, 0
3, 254520, Note_on_c, 0, 72, 79
3, 254616, Note_on_c, 0, 72, 0
3, 254640, Note_on_c, 0, 67, 79
3, 254736, Note_on_c, 0, 67, 0
3, 254760, Note_on_c, 0, 72, 80
3, 254856, Note_on_c, 0, 72, 0
3, 255000, Note_on_c, 0, 72, 82
3, 255096, Note_on_c, 0, 72, 0
3, 255240, Note_on_c, 0, 72, 84
3, 255336, Note_on_c, 0, 72, 0
3, 255480, Note_on_c, 0, 72, 85
3, 255576, Note_on_c, 0, 72, 0
3, 255720, Note_on_c, 0, 72, 87
3, 255816, Note_on_c, 0, 72, 0
3, 255960, Note_on_c, 0, 72, 89
3, 256056, Note_on_c, 0, 72, 0
3, 256200, Note_on_c, 0, 72, 91
3, 256296, Note_on_c, 0, 72, 0
3, 256440, Note_on_c, 0, 72, 92
3, 256536, Note_on_c, 0, 72, 0
3, 256680, Note_on_c, 0, 72, 94
3, 256776, Note_on_c, 0, 72, 0
3, 256920, Note_on_c, 0, 72, 96
3, 257016, Note_on_c, 0, 72, 0
3, 257160, Note_on_c, 0, 72, 98
3, 257256, Note_on_c, 0, 72, 0
3, 257400, Note_on_c, 0, 72, 99
3, 257496, Note_on_c, 0, 72, 0
3, 257640, Note_on_c, 0, 72, 101
3, 257736, Note_on_c, 0, 72, 0
3, 257880, Note_on_c, 0, 72, 103
3, 257976, Note_on_c, 0, 72, 0
3, 258120, Note_on_c, 0, 72, 104
3, 258216, Note_on_c, 0, 72, 0
3, 258360, Note_on_c, 0, 77, 90
3, 258480, Note_on_c, 0, 72, 90
3, 258600, Note_on_c, 0, 77, 0
3, 258600, Note_on_c, 0, 69, 90
3, 258720, Note_on_c, 0, 72, 0
3, 258840, Note_on_c, 0, 69, 0
3, 258840, Note_on_c, 0, 72, 91
3, 258960, Note_on_c, 0, 69, 91
3, 259080, Note_on_c, 0, 72, 0
3, 259080, Note_on_c, 0, 65, 91
3, 259200, Note_on_c, 0, 69, 0
3, 259320, Note_on_c, 0, 65, 0
3, 259320, Note_on_c, 0, 69, 92
3, 259440, Note_on_c, 0, 65, 92
3, 259560, Note_on_c, 0, 69, 0
3, 259560, Note_on_c, 0, 60, 92
3, 259680, Note_on_c, 0, 65, 0
3, 259800, Note_on_c, 0, 60, 0
3, 259800, Note_on_c, 0, 65, 92
3, 259920, Note_on_c, 0, 60, 93
3, 260040, Note_on_c, 0, 65, 0
3, 260040, Note_on_c, 0, 57, 93
3, 260160, Note_on_c, 0, 57, 0
3, 260160, Note_on_c, 0, 60, 0
3, 260280, Note_on_c, 0, 60, 93
3, 260400, Note_on_c, 0, 57, 94
3, 260520, Note_on_c, 0, 60, 0
3, 260520, Note_on_c, 0, 53, 94
3, 260640, Note_on_c, 0, 57, 0
3, 260760, Note_on_c, 0, 53, 0
3, 260760, Note_on_c, 0, 57, 94
3, 260880, Note_on_c, 0, 53, 95
3, 261000, Note_on_c, 0, 57, 0
3, 261000, Note_on_c, 0, 48, 95
3, 261120, Note_on_c, 0, 53, 0
3, 261240, Note_on_c, 0, 48, 0
3, 261240, Note_on_c, 0, 53, 95
3, 261360, Note_on_c, 0, 48, 96
3, 261480, Note_on_c, 0, 53, 0
3, 261480, Note_on_c, 0, 45, 96
3, 261600, Note_on_c, 0, 48, 0
3, 261720, Note_on_c, 0, 45, 0
3, 261720, Note_on_c, 0, 48, 96
3, 261840, Note_on_c, 0, 45, 96
3, 261960, Note_on_c, 0, 48, 0
3, 261960, Note_on_c, 0, 48, 97
3, 262080, Note_on_c, 0, 48, 0
3, 262080, Note_on_c, 0, 45, 0
3, 264000, Control_c, 0, 64, 0
3, 272240, Note_on_c, 0, 52, 50
3, 272320, Note_on_c, 0, 52, 0
3, 272320, Note_on_c, 0, 55, 51
3, 272400, Note_on_c, 0, 55, 0
3, 272480, Note_on_c, 0, 55, 52
3, 272560, Note_on_c, 0, 55, 0
3, 272560, Note_on_c, 0, 52, 53
3, 272640, Note_on_c, 0, 52, 0
3, 272720, Note_on_c, 0, 52, 54
3, 272800, Note_on_c, 0, 52, 0
3, 272800, Note_on_c, 0, 55, 55
3, 272880, Note_on_c, 0, 55, 0
3, 272960, Note_on_c, 0, 55, 57
3, 273040, Note_on_c, 0, 55, 0
3, 273040, Note_on_c, 0, 52, 57
3, 273120, Note_on_c, 0, 52, 0
3, 273200, Note_on_c, 0, 53, 59
3, 273280, Note_on_c, 0, 53, 0
3, 273280, Note_on_c, 0, 57, 59
3, 273360, Note_on_c, 0, 57, 0
3, 273440, Note_on_c, 0, 57, 61
3, 273520, Note_on_c, 0, 57, 0
3, 273520, Note_on_c, 0, 53, 61
3, 273600, Note_on_c, 0, 53, 0
3, 273680, Note_on_c, 0, 50, 63
3, 273760, Note_on_c, 0, 50, 0
3, 273760, Note_on_c, 0, 55, 63
3, 273840, Note_on_c, 0, 55, 0
3, 273920, Note_on_c, 0, 55, 65
3, 274000, Note_on_c, 0, 55, 0
3, 274000, Note_on_c, 0, 50, 65
3, 274080, Note_on_c, 0, 50, 0
3, 274160, Note_on_c, 0, 55, 64
3, 274240, Note_on_c, 0, 55, 0
3, 274400, Note_on_c, 0, 55, 61
3, 274480, Note_on_c, 0, 55, 0
3, 274640, Note_on_c, 0, 55, 59
3, 274720, Note_on_c, 0, 55, 0
3, 274880, Note_on_c, 0, 55, 57
3, 274960, Note_on_c, 0, 55, 0
3, 275120, Note_on_c, 0, 55, 56
3, 275200, Note_on_c, 0, 55, 0
3, 275200, Note_on_c, 0, 62, 57
3, 275280, Note_on_c, 0, 62, 0
3, 275360, Note_on_c, 0, 55, 59
3, 275440, Note_on_c, 0, 55, 0
3, 275440, Note_on_c, 0, 62, 59
3, 275520, Note_on_c, 0, 62, 0
3, 275600, Note_on_c, 0, 55, 61
3, 275680, Note_on_c, 0, 55, 0
3, 275680, Note_on_c, 0, 60, 62
3, 275760, Note_on_c, 0, 60, 0
3, 275840, Note_on_c, 0, 55, 63
3, 275920, Note_on_c, 0, 55, 0
3, 275920, Note_on_c, 0, 60, 64
3, 276000, Note_on_c, 0, 60, 0
3, 276080, Note_on_c, 0, 55, 65
3, 276160, Note_on_c, 0, 55, 0
3, 276160, Note_on_c, 0, 62, 66
3, 276240, Note_on_c, 0, 62, 0
3, 276320, Note_on_c, 0, 55, 68
3, 276400, Note_on_c, 0, 55, 0
3, 276400, Note_on_c, 0, 62, 68
3, 276480, Note_on_c, 0, 62, 0
3, 276480, Note_on_c, 0, 55, 69
3, 276560, Note_on_c, 0, 55, 0
3, 276560, Note_on_c, 0, 62, 69
3, 276640, Note_on_c, 0, 62, 0
3, 276720, Note_on_c, 0, 55, 68
3, 276800, Note_on_c, 0, 55, 0
3, 276800, Note_on_c, 0, 60, 67
3, 276880, Note_on_c, 0, 60, 0
3, 276960, Note_on_c, 0, 53, 66
3, 277040, Note_on_c, 0, 53, 0
3, 277040, Note_on_c, 0, 60, 66
3, 277120, Note_on_c, 0, 60, 0
3, 277200, Note_on_c, 0, 53, 65
3, 277280, Note_on_c, 0, 53, 0
3, 277280, Note_on_c, 0, 59, 64
3, 277360, Note_on_c, 0, 59, 0
3, 277440, Note_on_c, 0, 52, 64
3, 277520, Note_on_c, 0, 52, 0
3, 277520, Note_on_c, 0, 57, 63
3, 277600, Note_on_c, 0, 57, 0
3, 277680, Note_on_c, 0, 52, 62
3, 277760, Note_on_c, 0, 52, 0
3, 277760, Note_on_c, 0, 57, 62
3, 277840, Note_on_c, 0, 57, 0
3, 277920, Note_on_c, 0, 53, 61
3, 278000, Note_on_c, 0, 53, 0
3, 278000, Note_on_c, 0, 57, 60
3, 278080, Note_on_c, 0, 57, 0
3, 278160, Note_on_c, 0, 53, 59
3, 278240, Note_on_c, 0, 53, 0
3, 278240, Note_on_c, 0, 57, 59
3, 278320, Note_on_c, 0, 57, 0
3, 278400, Note_on_c, 0, 52, 58
3, 278480, Note_on_c, 0, 52, 0
3, 278480, Note_on_c, 0, 55, 57
3, 278560, Note_on_c, 0, 55, 0
3, 278640, Note_on_c, 0, 52, 57
3, 278720, Note_on_c, 0, 52, 0
3, 278720, Note_on_c, 0, 55, 56
3, 278800, Note_on_c, 0, 55, 0
3, 278880, Note_on_c, 0, 50, 55
3, 278960, Note_on_c, 0, 50, 0
3, 278960, Note_on_c, 0, 55, 55
3, 279040, Note_on_c, 0, 55, 0
3, 279120, Note_on_c, 0, 50, 54
3, 279200, Note_on_c, 0, 50, 0
3, 279200, Note_on_c, 0, 55, 53
3, 279280, Note_on_c, 0, 55, 0
3, 280800, Note_on_c, 0, 70, 80
3, 281280, Note_on_c, 0, 70, 0
3, 281280, Note_on_c, 0, 70, 85
3, 281760, Note_on_c, 0, 70, 0
3, 281760, Note_on_c, 0, 70, 90
3, 282240, Note_on_c, 0, 70, 0
3, 282240, Note_on_c, 0, 70, 95
3, 282960, Note_on_c, 0, 70, 0
3, 282960, Note_on_c, 0, 69, 84
3, 283200, Note_on_c, 0, 69, 0
3, 283200, Note_on_c, 0, 67, 81
3, 283440, Note_on_c, 0, 67, 0
3, 283440, Note_on_c, 0, 68, 79
3, 283680, Note_on_c, 0, 68, 0
3, 283680, Note_on_c, 0, 72, 82
3, 283680, Note_on_c, 0, 69, 82
3, 284160, Note_on_c, 0, 69, 0
3, 284160, Note_on_c, 0, 72, 0
3, 284160, Note_on_c, 0, 72, 85
3, 284160, Note_on_c, 0, 69, 85
3, 284640, Note_on_c, 0, 69, 0
3, 284640, Note_on_c, 0, 72, 0
3, 284640, Note_on_c, 0, 72, 89
3, 284640, Note_on_c, 0, 69, 89
3, 285120, Note_on_c, 0, 69, 0
3, 285120, Note_on_c, 0, 72, 0
3, 285120, Note_on_c, 0, 72, 95
3, 285120, Note_on_c, 0, 69, 95
3, 285840, Note_on_c, 0, 69, 0
3, 285840, Note_on_c, 0, 72, 0
3, 285840, Note_on_c, 0, 67, 83
3, 285840, Note_on_c, 0, 72, 83
3, 286080, Note_on_c, 0, 72, 0
3, 286080, Note_on_c, 0, 67, 0
3, 286080, Note_on_c, 0, 65, 81
3, 286080, Note_on_c, 0, 72, 81
3, 286320, Note_on_c, 0, 72, 0
3, 286320, Note_on_c, 0, 65, 0
3, 286320, Note_on_c, 0, 66, 79
3, 286320, Note_on_c, 0, 72, 79
3, 286560, Note_on_c, 0, 72, 0
3, 286560, Note_on_c, 0, 66, 0
3, 286640, Note_on_c, 0, 64, 69
3, 286720, Note_on_c, 0, 64, 0
3, 286720, Note_on_c, 0, 72, 70
3, 286800, Note_on_c, 0, 72, 0
3, 286880, Note_on_c, 0, 72, 72
3, 286960, Note_on_c, 0, 72, 0
3, 286960, Note_on_c, 0, 64, 73
3, 287040, Note_on_c, 0, 64, 0
3, 287120, Note_on_c, 0, 65, 74
3, 287200, Note_on_c, 0, 65, 0
3, 287360, Note_on_c, 0, 64, 77
3, 287440, Note_on_c, 0, 64, 0
3, 287600, Note_on_c, 0, 62, 80
3, 287680, Note_on_c, 0, 62, 0
3, 287840, Note_on_c, 0, 60, 82
3, 287920, Note_on_c, 0, 60, 0
3, 288080, Note_on_c, 0, 64, 85
3, 288160, Note_on_c, 0, 64, 0
3, 288160, Note_on_c, 0, 72, 86
3, 288240, Note_on_c, 0, 72, 0
3, 288320, Note_on_c, 0, 72, 88
3, 288400, Note_on_c, 0, 72, 0
3, 288400, Note_on_c, 0, 64, 88
3, 288480, Note_on_c, 0, 64, 0
3, 288560, Note_on_c, 0, 64, 90
3, 288640, Note_on_c, 0, 64, 0
3, 288800, Note_on_c, 0, 65, 93
3, 288880, Note_on_c, 0, 65, 0
3, 289040, Note_on_c, 0, 67, 95
3, 289120, Note_on_c, 0, 67, 0
3, 289280, Note_on_c, 0, 68, 98
3, 289360, Note_on_c, 0, 68, 0
3, 289440, Note_on_c, 0, 69, 101
3, 289520, Note_on_c, 0, 69, 0
3, 289520, Note_on_c, 0, 72, 100
3, 289600, Note_on_c, 0, 72, 0
3, 289680, Note_on_c, 0, 74, 99
3, 289760, Note_on_c, 0, 74, 0
3, 289760, Note_on_c, 0, 77, 98
3, 289840, Note_on_c, 0, 77, 0
3, 289920, Note_on_c, 0, 74, 97
3, 290000, Note_on_c, 0, 74, 0
3, 290000, Note_on_c, 0, 76, 97
3, 290080, Note_on_c, 0, 76, 0
3, 290160, Note_on_c, 0, 72, 95
3, 290240, Note_on_c, 0, 72, 0
3, 290240, Note_on_c, 0, 76, 95
3, 290320, Note_on_c, 0, 76, 0
3, 290400, Note_on_c, 0, 72, 93
3, 290480, Note_on_c, 0, 72, 0
3, 290480, Note_on_c, 0, 74, 93
3, 290560, Note_on_c, 0, 74, 0
3, 290640, Note_on_c, 0, 71, 91
3, 290720, Note_on_c, 0, 71, 0
3, 290720, Note_on_c, 0, 74, 91
3, 290800, Note_on_c, 0, 74, 0
3, 309600, Note_on_c, 0, 84, 127
3, 309834, Note_on_c, 0, 84, 0
3, 310080, Note_on_c, 0, 52, 127
3, 310080, Note_on_c, 0, 55, 127
3, 310314, Note_on_c, 0, 55, 0
3, 310314, Note_on_c, 0, 52, 0
3, 310314, End_track
4, 0, Start_track
4, 0, Title_t, "Piano"
4, 0, Control_c, 0, 0, 0
4, 0, Control_c, 0, 7, 117
4, 0, Control_c, 0, 10, 47
4, 0, Control_c, 0, 91, 100
4, 0, Control_c, 0, 93, 28
4, 0, Pitch_bend_c, 0, 8192
4, 0, Control_c, 0, 1, 0
4, 0, Control_c, 0, 64, 0
4, 1, Control_c, 0, 32, 0
4, 1, Program_c, 0, 0
4, 1440, Control_c, 0, 7, 117
4, 1440, Control_c, 0, 64, 0
4, 1440, Note_on_c, 0, 48, 67
4, 1920, Note_on_c, 0, 48, 0
4, 1920, Note_on_c, 0, 52, 70
4, 2400, Note_on_c, 0, 52, 0
4, 2400, Note_on_c, 0, 53, 74
4, 2880, Note_on_c, 0, 53, 0
4, 2880, Note_on_c, 0, 55, 79
4, 3600, Note_on_c, 0, 55, 0
4, 3600, Note_on_c, 0, 57, 71
4, 3840, Note_on_c, 0, 57, 0
4, 3840, Note_on_c, 0, 59, 67
4, 4260, Note_on_c, 0, 59, 0
4, 4320, Note_on_c, 0, 60, 68
4, 4800, Note_on_c, 0, 60, 0
4, 4800, Note_on_c, 0, 57, 71
4, 5280, Note_on_c, 0, 57, 0
4, 5280, Note_on_c, 0, 53, 72
4, 5760, Note_on_c, 0, 53, 0
4, 5760, Note_on_c, 0, 55, 79
4, 6240, Note_on_c, 0, 55, 0
4, 6240, Note_on_c, 0, 65, 71
4, 6240, Note_on_c, 0, 56, 71
4, 6720, Note_on_c, 0, 56, 0
4, 6720, Note_on_c, 0, 65, 0
4, 6720, Note_on_c, 0, 64, 67
4, 6720, Note_on_c, 0, 57, 67
4, 7147, Note_on_c, 0, 64, 0
4, 7155, Note_on_c, 0, 57, 0
4, 7200, Note_on_c, 0, 53, 75
4, 7680, Note_on_c, 0, 53, 0
4, 7680, Note_on_c, 0, 55, 74
4, 8160, Note_on_c, 0, 55, 0
4, 8160, Note_on_c, 0, 43, 72
4, 8640, Note_on_c, 0, 43, 0
4, 8640, Note_on_c, 0, 48, 71
4, 8950, Note_on_c, 0, 48, 0
4, 9120, Note_on_c, 0, 43, 65
4, 9442, Note_on_c, 0, 43, 0
4, 9600, Note_on_c, 0, 36, 57
4, 9794, Note_on_c, 0, 36, 0
4, 10080, Control_c, 0, 7, 107
4, 10080, Control_c, 0, 64, 0
4, 10080, Note_on_c, 0, 48, 67
4, 10560, Note_on_c, 0, 48, 0
4, 10560, Note_on_c, 0, 52, 70
4, 11040, Note_on_c, 0, 52, 0
4, 11040, Note_on_c, 0, 53, 74
4, 11520, Note_on_c, 0, 53, 0
4, 11520, Note_on_c, 0, 55, 79
4, 12240, Note_on_c, 0, 55, 0
4, 12240, Note_on_c, 0, 57, 71
4, 12480, Note_on_c, 0, 57, 0
4, 12480, Note_on_c, 0, 59, 67
4, 12900, Note_on_c, 0, 59, 0
4, 12960, Note_on_c, 0, 60, 68
4, 13440, Note_on_c, 0, 60, 0
4, 13440, Note_on_c, 0, 57, 71
4, 13920, Note_on_c, 0, 57, 0
4, 13920, Note_on_c, 0, 53, 72
4, 14400, Note_on_c, 0, 53, 0
4, 14400, Note_on_c, 0, 55, 79
4, 14880, Note_on_c, 0, 55, 0
4, 14880, Note_on_c, 0, 56, 71
4, 14880, Note_on_c, 0, 65, 71
4, 15360, Note_on_c, 0, 65, 0
4, 15360, Note_on_c, 0, 56, 0
4, 15360, Note_on_c, 0, 57, 67
4, 15360, Note_on_c, 0, 64, 67
4, 15787, Note_on_c, 0, 64, 0
4, 15795, Note_on_c, 0, 57, 0
4, 15840, Note_on_c, 0, 53, 76
4, 16320, Note_on_c, 0, 53, 0
4, 16320, Note_on_c, 0, 55, 73
4, 16800, Note_on_c, 0, 55, 0
4, 16800, Note_on_c, 0, 43, 70
4, 17280, Note_on_c, 0, 43, 0
4, 17280, Note_on_c, 0, 48, 68
4, 17590, Note_on_c, 0, 48, 0
4, 17760, Note_on_c, 0, 36, 64
4, 18000, Control_c, 0, 7, 117
4, 18070, Note_on_c, 0, 36, 0
4, 18720, Control_c, 0, 64, 0
4, 18720, Note_on_c, 0, 48, 82
4, 19200, Note_on_c, 0, 48, 0
4, 19200, Note_on_c, 0, 52, 86
4, 19680, Note_on_c, 0, 52, 0
4, 19680, Note_on_c, 0, 55, 91
4, 20160, Note_on_c, 0, 55, 0
4, 20160, Note_on_c, 0, 60, 95
4, 20640, Note_on_c, 0, 60, 0
4, 20640, Note_on_c, 0, 48, 87
4, 21120, Note_on_c, 0, 48, 0
4, 21600, Note_on_c, 0, 43, 81
4, 22080, Note_on_c, 0, 43, 0
4, 22080, Note_on_c, 0, 47, 84
4, 22560, Note_on_c, 0, 47, 0
4, 22560, Note_on_c, 0, 50, 87
4, 23040, Note_on_c, 0, 50, 0
4, 23040, Note_on_c, 0, 55, 90
4, 23520, Note_on_c, 0, 55, 0
4, 23520, Note_on_c, 0, 43, 81
4, 24000, Note_on_c, 0, 43, 0
4, 24000, Control_c, 0, 64, 0
4, 24480, Note_on_c, 0, 48, 84
4, 24960, Note_on_c, 0, 48, 0
4, 24960, Note_on_c, 0, 60, 85
4, 25440, Note_on_c, 0, 60, 0
4, 25440, Note_on_c, 0, 60, 89
4, 25920, Note_on_c, 0, 60, 0
4, 25920, Note_on_c, 0, 60, 92
4, 26640, Note_on_c, 0, 60, 0
4, 26640, Note_on_c, 0, 57, 96
4, 26880, Note_on_c, 0, 57, 0
4, 26880, Note_on_c, 0, 52, 99
4, 27360, Note_on_c, 0, 52, 0
4, 27360, Note_on_c, 0, 53, 103
4, 27600, Note_on_c, 0, 53, 0
4, 27600, Note_on_c, 0, 50, 99
4, 27840, Note_on_c, 0, 50, 0
4, 27840, Note_on_c, 0, 55, 94
4, 28320, Note_on_c, 0, 55, 0
4, 28320, Note_on_c, 0, 43, 86
4, 28800, Note_on_c, 0, 43, 0
4, 28800, Note_on_c, 0, 48, 79
4, 29110, Note_on_c, 0, 48, 0
4, 29280, Note_on_c, 0, 43, 72
4, 29590, Note_on_c, 0, 43, 0
4, 29760, Note_on_c, 0, 36, 65
4, 29904, Note_on_c, 0, 36, 0
4, 30240, Control_c, 0, 7, 117
4, 30720, Note_on_c, 0, 57, 68
4, 31200, Note_on_c, 0, 57, 0
4, 31200, Note_on_c, 0, 50, 73
4, 31440, Note_on_c, 0, 50, 0
4, 31440, Note_on_c, 0, 53, 75
4, 31680, Note_on_c, 0, 53, 0
4, 31680, Control_c, 0, 64, 0
4, 31680, Note_on_c, 0, 55, 82
4, 32400, Note_on_c, 0, 55, 0
4, 32400, Note_on_c, 0, 57, 73
4, 32640, Note_on_c, 0, 57, 0
4, 32640, Note_on_c, 0, 59, 71
4, 32880, Note_on_c, 0, 59, 0
4, 32880, Note_on_c, 0, 55, 69
4, 33120, Note_on_c, 0, 55, 0
4, 33120, Note_on_c, 0, 60, 66
4, 33360, Note_on_c, 0, 60, 0
4, 33360, Note_on_c, 0, 59, 69
4, 33600, Note_on_c, 0, 59, 0
4, 33600, Note_on_c, 0, 60, 72
4, 33840, Note_on_c, 0, 60, 0
4, 33840, Note_on_c, 0, 57, 75
4, 34080, Note_on_c, 0, 57, 0
4, 34080, Note_on_c, 0, 50, 84
4, 34320, Note_on_c, 0, 50, 0
4, 34320, Note_on_c, 0, 53, 83
4, 34560, Note_on_c, 0, 53, 0
4, 34560, Note_on_c, 0, 55, 81
4, 35040, Note_on_c, 0, 55, 0
4, 35040, Note_on_c, 0, 53, 77
4, 35520, Note_on_c, 0, 53, 0
4, 35520, Note_on_c, 0, 52, 74
4, 36000, Note_on_c, 0, 52, 0
4, 36240, Note_on_c, 0, 53, 68
4, 36240, Note_on_c, 0, 57, 68
4, 36480, Note_on_c, 0, 57, 0
4, 36480, Note_on_c, 0, 53, 0
4, 36720, Note_on_c, 0, 64, 65
4, 36720, Note_on_c, 0, 55, 65
4, 36720, Note_on_c, 0, 60, 65
4, 36960, Note_on_c, 0, 60, 0
4, 36960, Note_on_c, 0, 55, 0
4, 36960, Note_on_c, 0, 64, 0
4, 37200, Note_on_c, 0, 65, 62
4, 37200, Note_on_c, 0, 62, 62
4, 37200, Note_on_c, 0, 55, 62
4, 37440, Note_on_c, 0, 55, 0
4, 37440, Note_on_c, 0, 62, 0
4, 37440, Note_on_c, 0, 65, 0
4, 37440, Note_on_c, 0, 64, 61
4, 37440, Note_on_c, 0, 60, 61
4, 37920, Note_on_c, 0, 60, 0
4, 37920, Note_on_c, 0, 64, 0
4, 38010, Control_c, 0, 7, 107
4, 38160, Note_on_c, 0, 64, 66
4, 38400, Note_on_c, 0, 64, 0
4, 38400, Note_on_c, 0, 65, 71
4, 38640, Note_on_c, 0, 65, 0
4, 38640, Note_on_c, 0, 62, 75
4, 38880, Note_on_c, 0, 62, 0
4, 38880, Note_on_c, 0, 60, 76
4, 39120, Note_on_c, 0, 60, 0
4, 39120, Note_on_c, 0, 56, 76
4, 39360, Note_on_c, 0, 56, 0
4, 39360, Note_on_c, 0, 57, 68
4, 39840, Note_on_c, 0, 57, 0
4, 39840, Note_on_c, 0, 50, 73
4, 40080, Note_on_c, 0, 50, 0
4, 40080, Note_on_c, 0, 53, 75
4, 40320, Note_on_c, 0, 53, 0
4, 40320, Control_c, 0, 64, 0
4, 40320, Note_on_c, 0, 55, 82
4, 41040, Note_on_c, 0, 55, 0
4, 41040, Note_on_c, 0, 57, 73
4, 41280, Note_on_c, 0, 57, 0
4, 41280, Note_on_c, 0, 59, 71
4, 41520, Note_on_c, 0, 59, 0
4, 41520, Note_on_c, 0, 55, 69
4, 41760, Note_on_c, 0, 55, 0
4, 41760, Note_on_c, 0, 60, 66
4, 42000, Note_on_c, 0, 60, 0
4, 42000, Note_on_c, 0, 59, 69
4, 42240, Note_on_c, 0, 59, 0
4, 42240, Note_on_c, 0, 60, 72
4, 42480, Note_on_c, 0, 60, 0
4, 42480, Note_on_c, 0, 57, 75
4, 42720, Note_on_c, 0, 57, 0
4, 42720, Note_on_c, 0, 50, 84
4, 42960, Note_on_c, 0, 50, 0
4, 42960, Note_on_c, 0, 53, 83
4, 43200, Note_on_c, 0, 53, 0
4, 43200, Note_on_c, 0, 55, 81
4, 43680, Note_on_c, 0, 55, 0
4, 43680, Note_on_c, 0, 53, 77
4, 44160, Note_on_c, 0, 53, 0
4, 44160, Note_on_c, 0, 52, 74
4, 44640, Note_on_c, 0, 52, 0
4, 44880, Note_on_c, 0, 57, 68
4, 44880, Note_on_c, 0, 53, 68
4, 45120, Note_on_c, 0, 53, 0
4, 45120, Note_on_c, 0, 57, 0
4, 45360, Note_on_c, 0, 60, 65
4, 45360, Note_on_c, 0, 55, 65
4, 45360, Note_on_c, 0, 64, 65
4, 45600, Note_on_c, 0, 64, 0
4, 45600, Note_on_c, 0, 55, 0
4, 45600, Note_on_c, 0, 60, 0
4, 45840, Note_on_c, 0, 55, 62
4, 45840, Note_on_c, 0, 62, 62
4, 45840, Note_on_c, 0, 65, 62
4, 46080, Note_on_c, 0, 65, 0
4, 46080, Note_on_c, 0, 62, 0
4, 46080, Note_on_c, 0, 55, 0
4, 46080, Note_on_c, 0, 60, 61
4, 46080, Note_on_c, 0, 64, 61
4, 46320, Control_c, 0, 7, 117
4, 46560, Note_on_c, 0, 64, 0
4, 46560, Note_on_c, 0, 60, 0
4, 46800, Note_on_c, 0, 59, 71
4, 47040, Note_on_c, 0, 59, 0
4, 47040, Note_on_c, 0, 60, 73
4, 47280, Note_on_c, 0, 60, 0
4, 47280, Note_on_c, 0, 62, 76
4, 47520, Note_on_c, 0, 62, 0
4, 47520, Control_c, 0, 64, 0
4, 47520, Note_on_c, 0, 64, 78
4, 47760, Note_on_c, 0, 64, 0
4, 47760, Note_on_c, 0, 63, 80
4, 48000, Note_on_c, 0, 63, 0
4, 48000, Note_on_c, 0, 64, 83
4, 48240, Note_on_c, 0, 64, 0
4, 48240, Note_on_c, 0, 62, 85
4, 48480, Note_on_c, 0, 62, 0
4, 48480, Note_on_c, 0, 60, 88
4, 48720, Note_on_c, 0, 60, 0
4, 48720, Note_on_c, 0, 58, 95
4, 48960, Note_on_c, 0, 58, 0
4, 48960, Note_on_c, 0, 57, 100
4, 49200, Note_on_c, 0, 62, 90
4, 49440, Note_on_c, 0, 62, 0
4, 49440, Note_on_c, 0, 61, 87
4, 49680, Note_on_c, 0, 61, 0
4, 49680, Note_on_c, 0, 69, 93
4, 49920, Note_on_c, 0, 69, 0
4, 49920, Note_on_c, 0, 57, 0
4, 49920, Note_on_c, 0, 68, 86
4, 50160, Note_on_c, 0, 68, 0
4, 50160, Note_on_c, 0, 57, 79
4, 50160, Note_on_c, 0, 67, 79
4, 50400, Note_on_c, 0, 67, 0
4, 50400, Note_on_c, 0, 57, 0
4, 50400, Note_on_c, 0, 65, 78
4, 50400, Note_on_c, 0, 62, 78
4, 50640, Note_on_c, 0, 62, 0
4, 50640, Note_on_c, 0, 65, 0
4, 50640, Note_on_c, 0, 61, 80
4, 50880, Note_on_c, 0, 61, 0
4, 50880, Note_on_c, 0, 62, 83
4, 51120, Note_on_c, 0, 62, 0
4, 51120, Note_on_c, 0, 60, 85
4, 51360, Note_on_c, 0, 60, 0
4, 51360, Note_on_c, 0, 59, 89
4, 51600, Note_on_c, 0, 59, 0
4, 51600, Note_on_c, 0, 56, 92
4, 51840, Note_on_c, 0, 56, 0
4, 51840, Note_on_c, 0, 55, 98
4, 52080, Note_on_c, 0, 60, 88
4, 52320, Note_on_c, 0, 60, 0
4, 52320, Note_on_c, 0, 59, 86
4, 52560, Note_on_c, 0, 59, 0
4, 52560, Note_on_c, 0, 67, 95
4, 52800, Note_on_c, 0, 67, 0
4, 52800, Note_on_c, 0, 55, 0
4, 52800, Note_on_c, 0, 66, 89
4, 53040, Note_on_c, 0, 66, 0
4, 53040, Note_on_c, 0, 55, 83
4, 53040, Note_on_c, 0, 65, 83
4, 53280, Note_on_c, 0, 65, 0
4, 53280, Note_on_c, 0, 55, 0
4, 53280, Note_on_c, 0, 60, 85
4, 53520, Note_on_c, 0, 71, 80
4, 53760, Note_on_c, 0, 71, 0
4, 53760, Note_on_c, 0, 69, 82
4, 54000, Note_on_c, 0, 69, 0
4, 54000, Note_on_c, 0, 67, 84
4, 54240, Note_on_c, 0, 67, 0
4, 54240, Note_on_c, 0, 60, 0
4, 54240, Note_on_c, 0, 65, 86
4, 54480, Note_on_c, 0, 65, 0
4, 54480, Note_on_c, 0, 64, 89
4, 54720, Note_on_c, 0, 64, 0
4, 54720, Note_on_c, 0, 69, 91
4, 54960, Note_on_c, 0, 69, 0
4, 54960, Note_on_c, 0, 67, 94
4, 55200, Note_on_c, 0, 67, 0
4, 55200, Note_on_c, 0, 65, 97
4, 55440, Note_on_c, 0, 65, 0
4, 55440, Note_on_c, 0, 64, 100
4, 55680, Note_on_c, 0, 64, 0
4, 55680, Note_on_c, 0, 62, 104
4, 55920, Note_on_c, 0, 62, 0
4, 55920, Note_on_c, 0, 60, 107
4, 56160, Note_on_c, 0, 53, 114
4, 56400, Note_on_c, 0, 60, 0
4, 56400, Note_on_c, 0, 62, 102
4, 56640, Note_on_c, 0, 62, 0
4, 56640, Note_on_c, 0, 53, 0
4, 56640, Note_on_c, 0, 55, 108
4, 56880, Note_on_c, 0, 64, 96
4, 57000, Note_on_c, 0, 64, 0
4, 57000, Note_on_c, 0, 66, 92
4, 57120, Note_on_c, 0, 66, 0
4, 57120, Note_on_c, 0, 67, 89
4, 57360, Note_on_c, 0, 67, 0
4, 57360, Note_on_c, 0, 55, 0
4, 57360, Note_on_c, 0, 43, 87
4, 57600, Note_on_c, 0, 43, 0
4, 57600, Note_on_c, 0, 48, 88
4, 57755, Note_on_c, 0, 48, 0
4, 57840, Note_on_c, 0, 55, 77
4, 57995, Note_on_c, 0, 55, 0
4, 58080, Note_on_c, 0, 60, 67
4, 58235, Note_on_c, 0, 60, 0
4, 58320, Note_on_c, 0, 55, 58
4, 58440, Note_on_c, 0, 55, 0
4, 58440, Note_on_c, 0, 59, 59
4, 58560, Note_on_c, 0, 59, 0
4, 58560, Note_on_c, 0, 57, 60
4, 58680, Note_on_c, 0, 57, 0
4, 58680, Note_on_c, 0, 60, 61
4, 58800, Note_on_c, 0, 60, 0
4, 58800, Note_on_c, 0, 59, 63
4, 58920, Note_on_c, 0, 59, 0
4, 58920, Note_on_c, 0, 62, 64
4, 59040, Note_on_c, 0, 62, 0
4, 59040, Note_on_c, 0, 60, 71
4, 59160, Note_on_c, 0, 60, 0
4, 59160, Note_on_c, 0, 59, 70
4, 59280, Note_on_c, 0, 59, 0
4, 59280, Note_on_c, 0, 57, 68
4, 59400, Note_on_c, 0, 57, 0
4, 59400, Note_on_c, 0, 59, 67
4, 59520, Note_on_c, 0, 59, 0
4, 59520, Note_on_c, 0, 60, 65
4, 59616, Note_on_c, 0, 60, 0
4, 59760, Note_on_c, 0, 61, 68
4, 59856, Note_on_c, 0, 61, 0
4, 60000, Note_on_c, 0, 62, 74
4, 60096, Note_on_c, 0, 62, 0
4, 60240, Note_on_c, 0, 54, 81
4, 60336, Note_on_c, 0, 54, 0
4, 60480, Note_on_c, 0, 55, 90
4, 61200, Note_on_c, 0, 55, 0
4, 61200, Note_on_c, 0, 55, 81
4, 61320, Note_on_c, 0, 55, 0
4, 61320, Note_on_c, 0, 57, 80
4, 61440, Note_on_c, 0, 57, 0
4, 61440, Note_on_c, 0, 59, 79
4, 61560, Note_on_c, 0, 59, 0
4, 61560, Note_on_c, 0, 55, 79
4, 61680, Note_on_c, 0, 55, 0
4, 61680, Note_on_c, 0, 57, 78
4, 61800, Note_on_c, 0, 57, 0
4, 61800, Note_on_c, 0, 59, 78
4, 61920, Note_on_c, 0, 59, 0
4, 61920, Note_on_c, 0, 60, 82
4, 62040, Note_on_c, 0, 60, 0
4, 62040, Note_on_c, 0, 59, 79
4, 62160, Note_on_c, 0, 59, 0
4, 62160, Note_on_c, 0, 57, 80
4, 62280, Note_on_c, 0, 57, 0
4, 62280, Note_on_c, 0, 59, 81
4, 62400, Note_on_c, 0, 59, 0
4, 62400, Note_on_c, 0, 60, 81
4, 62520, Note_on_c, 0, 60, 0
4, 62520, Note_on_c, 0, 59, 82
4, 62640, Note_on_c, 0, 59, 0
4, 62640, Note_on_c, 0, 60, 83
4, 62760, Note_on_c, 0, 60, 0
4, 62760, Note_on_c, 0, 57, 83
4, 62880, Note_on_c, 0, 57, 0
4, 62880, Note_on_c, 0, 53, 92
4, 63000, Note_on_c, 0, 53, 0
4, 63000, Note_on_c, 0, 57, 85
4, 63120, Note_on_c, 0, 57, 0
4, 63120, Note_on_c, 0, 50, 92
4, 63240, Note_on_c, 0, 50, 0
4, 63240, Note_on_c, 0, 62, 86
4, 63360, Note_on_c, 0, 62, 0
4, 63360, Note_on_c, 0, 55, 96
4, 63480, Note_on_c, 0, 55, 0
4, 63480, Note_on_c, 0, 60, 87
4, 63600, Note_on_c, 0, 60, 0
4, 63600, Note_on_c, 0, 55, 88
4, 63720, Note_on_c, 0, 55, 0
4, 63720, Note_on_c, 0, 60, 89
4, 63840, Note_on_c, 0, 60, 0
4, 63840, Note_on_c, 0, 56, 97
4, 63960, Note_on_c, 0, 56, 0
4, 63960, Note_on_c, 0, 59, 90
4, 64080, Note_on_c, 0, 59, 0
4, 64080, Note_on_c, 0, 56, 91
4, 64200, Note_on_c, 0, 56, 0
4, 64200, Note_on_c, 0, 59, 91
4, 64320, Note_on_c, 0, 59, 0
4, 64320, Note_on_c, 0, 57, 100
4, 64440, Note_on_c, 0, 57, 0
4, 64440, Note_on_c, 0, 60, 94
4, 64560, Note_on_c, 0, 60, 0
4, 64560, Note_on_c, 0, 55, 97
4, 64680, Note_on_c, 0, 55, 0
4, 64680, Note_on_c, 0, 58, 99
4, 64800, Note_on_c, 0, 58, 0
4, 64800, Note_on_c, 0, 53, 111
4, 64920, Note_on_c, 0, 53, 0
4, 64920, Note_on_c, 0, 57, 103
4, 65040, Note_on_c, 0, 57, 0
4, 65040, Note_on_c, 0, 50, 103
4, 65160, Note_on_c, 0, 50, 0
4, 65160, Note_on_c, 0, 53, 104
4, 65280, Note_on_c, 0, 53, 0
4, 65280, Note_on_c, 0, 43, 112
4, 65400, Note_on_c, 0, 48, 105
4, 65520, Note_on_c, 0, 48, 0
4, 65520, Note_on_c, 0, 52, 106
4, 65544, Note_on_c, 0, 43, 0
4, 65640, Note_on_c, 0, 52, 0
4, 65640, Note_on_c, 0, 55, 106
4, 65760, Note_on_c, 0, 55, 0
4, 65760, Note_on_c, 0, 43, 116
4, 65880, Note_on_c, 0, 50, 108
4, 66000, Note_on_c, 0, 50, 0
4, 66000, Note_on_c, 0, 53, 108
4, 66024, Note_on_c, 0, 43, 0
4, 66120, Note_on_c, 0, 53, 0
4, 66120, Note_on_c, 0, 55, 109
4, 66240, Note_on_c, 0, 55, 0
4, 66240, Note_on_c, 0, 48, 112
4, 66240, Note_on_c, 0, 52, 112
4, 66720, Note_on_c, 0, 52, 0
4, 66720, Note_on_c, 0, 48, 0
4, 66840, Control_c, 0, 7, 107
4, 66960, Note_on_c, 0, 55, 83
4, 67200, Note_on_c, 0, 55, 0
4, 67200, Note_on_c, 0, 57, 79
4, 67440, Note_on_c, 0, 57, 0
4, 67440, Note_on_c, 0, 59, 76
4, 67680, Note_on_c, 0, 59, 0
4, 67680, Control_c, 0, 64, 0
4, 67680, Note_on_c, 0, 60, 72
4, 67800, Note_on_c, 0, 60, 0
4, 67800, Note_on_c, 0, 59, 70
4, 67920, Note_on_c, 0, 59, 0
4, 67920, Note_on_c, 0, 57, 68
4, 68040, Note_on_c, 0, 57, 0
4, 68040, Note_on_c, 0, 59, 66
4, 68160, Note_on_c, 0, 59, 0
4, 68160, Note_on_c, 0, 60, 64
4, 68256, Note_on_c, 0, 60, 0
4, 68400, Note_on_c, 0, 61, 68
4, 68496, Note_on_c, 0, 61, 0
4, 68640, Note_on_c, 0, 62, 74
4, 68736, Note_on_c, 0, 62, 0
4, 68880, Note_on_c, 0, 54, 81
4, 68976, Note_on_c, 0, 54, 0
4, 69120, Note_on_c, 0, 55, 90
4, 69840, Note_on_c, 0, 55, 0
4, 69840, Note_on_c, 0, 55, 81
4, 69960, Note_on_c, 0, 55, 0
4, 69960, Note_on_c, 0, 57, 80
4, 70080, Note_on_c, 0, 57, 0
4, 70080, Note_on_c, 0, 59, 79
4, 70200, Note_on_c, 0, 59, 0
4, 70200, Note_on_c, 0, 55, 79
4, 70320, Note_on_c, 0, 55, 0
4, 70320, Note_on_c, 0, 57, 78
4, 70440, Note_on_c, 0, 57, 0
4, 70440, Note_on_c, 0, 59, 78
4, 70560, Note_on_c, 0, 59, 0
4, 70560, Note_on_c, 0, 60, 82
4, 70680, Note_on_c, 0, 60, 0
4, 70680, Note_on_c, 0, 59, 79
4, 70800, Note_on_c, 0, 59, 0
4, 70800, Note_on_c, 0, 57, 80
4, 70920, Note_on_c, 0, 57, 0
4, 70920, Note_on_c, 0, 59, 81
4, 71040, Note_on_c, 0, 59, 0
4, 71040, Note_on_c, 0, 60, 81
4, 71160, Note_on_c, 0, 60, 0
4, 71160, Note_on_c, 0, 59, 82
4, 71280, Note_on_c, 0, 59, 0
4, 71280, Note_on_c, 0, 60, 83
4, 71400, Note_on_c, 0, 60, 0
4, 71400, Note_on_c, 0, 57, 83
4, 71520, Note_on_c, 0, 57, 0
4, 71520, Note_on_c, 0, 53, 92
4, 71640, Note_on_c, 0, 53, 0
4, 71640, Note_on_c, 0, 57, 85
4, 71760, Note_on_c, 0, 57, 0
4, 71760, Note_on_c, 0, 50, 92
4, 71880, Note_on_c, 0, 50, 0
4, 71880, Note_on_c, 0, 62, 86
4, 72000, Note_on_c, 0, 62, 0
4, 72000, Note_on_c, 0, 55, 96
4, 72120, Note_on_c, 0, 55, 0
4, 72120, Note_on_c, 0, 60, 87
4, 72240, Note_on_c, 0, 60, 0
4, 72240, Note_on_c, 0, 55, 88
4, 72360, Note_on_c, 0, 55, 0
4, 72360, Note_on_c, 0, 60, 89
4, 72480, Note_on_c, 0, 60, 0
4, 72480, Note_on_c, 0, 56, 97
4, 72600, Note_on_c, 0, 56, 0
4, 72600, Note_on_c, 0, 59, 90
4, 72720, Note_on_c, 0, 59, 0
4, 72720, Note_on_c, 0, 56, 91
4, 72840, Note_on_c, 0, 56, 0
4, 72840, Note_on_c, 0, 59, 91
4, 72960, Note_on_c, 0, 59, 0
4, 72960, Note_on_c, 0, 57, 100
4, 73080, Note_on_c, 0, 57, 0
4, 73080, Note_on_c, 0, 60, 94
4, 73200, Note_on_c, 0, 60, 0
4, 73200, Note_on_c, 0, 55, 97
4, 73320, Note_on_c, 0, 55, 0
4, 73320, Note_on_c, 0, 58, 99
4, 73440, Note_on_c, 0, 58, 0
4, 73440, Note_on_c, 0, 53, 111
4, 73560, Note_on_c, 0, 53, 0
4, 73560, Note_on_c, 0, 57, 103
4, 73680, Note_on_c, 0, 57, 0
4, 73680, Note_on_c, 0, 50, 103
4, 73800, Note_on_c, 0, 50, 0
4, 73800, Note_on_c, 0, 53, 104
4, 73920, Note_on_c, 0, 53, 0
4, 73920, Note_on_c, 0, 43, 112
4, 74040, Note_on_c, 0, 48, 105
4, 74160, Note_on_c, 0, 48, 0
4, 74160, Note_on_c, 0, 52, 106
4, 74280, Note_on_c, 0, 52, 0
4, 74280, Note_on_c, 0, 55, 106
4, 74400, Note_on_c, 0, 55, 0
4, 74400, Note_on_c, 0, 43, 0
4, 74400, Note_on_c, 0, 43, 116
4, 74520, Note_on_c, 0, 50, 108
4, 74640, Note_on_c, 0, 50, 0
4, 74640, Note_on_c, 0, 53, 108
4, 74760, Note_on_c, 0, 53, 0
4, 74760, Note_on_c, 0, 55, 109
4, 74880, Note_on_c, 0, 55, 0
4, 74880, Note_on_c, 0, 43, 0
4, 74880, Note_on_c, 0, 52, 112
4, 74880, Note_on_c, 0, 48, 112
4, 75000, Control_c, 0, 7, 117
4, 75360, Note_on_c, 0, 48, 0
4, 75360, Note_on_c, 0, 52, 0
4, 75600, Note_on_c, 0, 59, 71
4, 75720, Note_on_c, 0, 59, 0
4, 75840, Note_on_c, 0, 60, 74
4, 75960, Note_on_c, 0, 60, 0
4, 76080, Note_on_c, 0, 62, 77
4, 76200, Note_on_c, 0, 62, 0
4, 76320, Note_on_c, 0, 64, 86
4, 76440, Note_on_c, 0, 64, 0
4, 76560, Note_on_c, 0, 60, 83
4, 76680, Note_on_c, 0, 60, 0
4, 76800, Note_on_c, 0, 55, 85
4, 76920, Note_on_c, 0, 55, 0
4, 77040, Note_on_c, 0, 60, 88
4, 77160, Note_on_c, 0, 60, 0
4, 77280, Note_on_c, 0, 64, 100
4, 77400, Note_on_c, 0, 64, 0
4, 77520, Note_on_c, 0, 63, 89
4, 77640, Note_on_c, 0, 63, 0
4, 77760, Note_on_c, 0, 64, 93
4, 77880, Note_on_c, 0, 64, 0
4, 78000, Note_on_c, 0, 60, 85
4, 78120, Note_on_c, 0, 60, 0
4, 78240, Note_on_c, 0, 55, 83
4, 78360, Note_on_c, 0, 55, 0
4, 78480, Note_on_c, 0, 64, 81
4, 78600, Note_on_c, 0, 64, 0
4, 78720, Note_on_c, 0, 62, 79
4, 78840, Note_on_c, 0, 62, 0
4, 78960, Note_on_c, 0, 60, 77
4, 79080, Note_on_c, 0, 60, 0
4, 79200, Control_c, 0, 64, 0
4, 79200, Note_on_c, 0, 62, 88
4, 79320, Note_on_c, 0, 62, 0
4, 79440, Note_on_c, 0, 59, 77
4, 79560, Note_on_c, 0, 59, 0
4, 79680, Note_on_c, 0, 55, 80
4, 79800, Note_on_c, 0, 55, 0
4, 79920, Note_on_c, 0, 59, 87
4, 80040, Note_on_c, 0, 59, 0
4, 80160, Note_on_c, 0, 62, 97
4, 80280, Note_on_c, 0, 62, 0
4, 80400, Note_on_c, 0, 61, 85
4, 80520, Note_on_c, 0, 61, 0
4, 80640, Note_on_c, 0, 62, 89
4, 80760, Note_on_c, 0, 62, 0
4, 80880, Note_on_c, 0, 59, 82
4, 81000, Note_on_c, 0, 59, 0
4, 81120, Note_on_c, 0, 55, 81
4, 81240, Note_on_c, 0, 55, 0
4, 81360, Note_on_c, 0, 62, 79
4, 81480, Note_on_c, 0, 62, 0
4, 81600, Note_on_c, 0, 60, 78
4, 81720, Note_on_c, 0, 60, 0
4, 81840, Note_on_c, 0, 59, 77
4, 81960, Note_on_c, 0, 59, 0
4, 82080, Note_on_c, 0, 60, 77
4, 82200, Note_on_c, 0, 60, 0
4, 82200, Note_on_c, 0, 59, 78
4, 82320, Note_on_c, 0, 59, 0
4, 82320, Note_on_c, 0, 57, 79
4, 82440, Note_on_c, 0, 57, 0
4, 82440, Note_on_c, 0, 55, 80
4, 82560, Note_on_c, 0, 55, 0
4, 82560, Note_on_c, 0, 57, 81
4, 82680, Note_on_c, 0, 57, 0
4, 82680, Note_on_c, 0, 55, 82
4, 82800, Note_on_c, 0, 55, 0
4, 82800, Note_on_c, 0, 53, 83
4, 82920, Note_on_c, 0, 53, 0
4, 82920, Note_on_c, 0, 52, 84
4, 83040, Note_on_c, 0, 52, 0
4, 83040, Note_on_c, 0, 53, 85
4, 83160, Note_on_c, 0, 53, 0
4, 83160, Note_on_c, 0, 52, 86
4, 83280, Note_on_c, 0, 52, 0
4, 83280, Note_on_c, 0, 50, 87
4, 83400, Note_on_c, 0, 50, 0
4, 83400, Note_on_c, 0, 48, 88
4, 83520, Note_on_c, 0, 48, 0
4, 83520, Note_on_c, 0, 48, 101
4, 83520, Note_on_c, 0, 52, 97
4, 84240, Note_on_c, 0, 52, 0
4, 84240, Note_on_c, 0, 48, 0
4, 84240, Note_on_c, 0, 50, 94
4, 84240, Note_on_c, 0, 53, 94
4, 84392, Note_on_c, 0, 53, 0
4, 84392, Note_on_c, 0, 50, 0
4, 84480, Note_on_c, 0, 55, 100
4, 84480, Note_on_c, 0, 52, 100
4, 84632, Note_on_c, 0, 52, 0
4, 84632, Note_on_c, 0, 55, 0
4, 84720, Note_on_c, 0, 60, 110
4, 84720, Note_on_c, 0, 52, 110
4, 84872, Note_on_c, 0, 52, 0
4, 84960, Note_on_c, 0, 53, 103
4, 85080, Note_on_c, 0, 53, 0
4, 85080, Note_on_c, 0, 60, 0
4, 85080, Note_on_c, 0, 61, 101
4, 85200, Note_on_c, 0, 61, 0
4, 85200, Note_on_c, 0, 62, 100
4, 85320, Note_on_c, 0, 62, 0
4, 85320, Note_on_c, 0, 65, 99
4, 85440, Note_on_c, 0, 65, 0
4, 85440, Note_on_c, 0, 64, 97
4, 85560, Note_on_c, 0, 64, 0
4, 85560, Note_on_c, 0, 55, 96
4, 85680, Note_on_c, 0, 55, 0
4, 85680, Note_on_c, 0, 60, 94
4, 85800, Note_on_c, 0, 60, 0
4, 85800, Note_on_c, 0, 55, 93
4, 85920, Note_on_c, 0, 55, 0
4, 85920, Note_on_c, 0, 62, 92
4, 86040, Note_on_c, 0, 62, 0
4, 86040, Note_on_c, 0, 55, 90
4, 86160, Note_on_c, 0, 55, 0
4, 86160, Note_on_c, 0, 59, 89
4, 86280, Note_on_c, 0, 59, 0
4, 86280, Note_on_c, 0, 55, 87
4, 86400, Note_on_c, 0, 55, 0
4, 86400, Note_on_c, 0, 60, 86
4, 86520, Note_on_c, 0, 60, 0
4, 86520, Note_on_c, 0, 55, 85
4, 86640, Note_on_c, 0, 55, 0
4, 86640, Note_on_c, 0, 52, 83
4, 86760, Note_on_c, 0, 52, 0
4, 86760, Note_on_c, 0, 55, 82
4, 86880, Note_on_c, 0, 55, 0
4, 86880, Note_on_c, 0, 48, 80
4, 87000, Note_on_c, 0, 48, 0
4, 87000, Note_on_c, 0, 43, 79
4, 87120, Note_on_c, 0, 43, 0
4, 87120, Note_on_c, 0, 40, 78
4, 87240, Note_on_c, 0, 40, 0
4, 87240, Note_on_c, 0, 43, 76
4, 87360, Note_on_c, 0, 43, 0
4, 87360, Note_on_c, 0, 36, 75
4, 87551, Note_on_c, 0, 36, 0
4, 87840, Control_c, 0, 64, 0
4, 88320, Note_on_c, 0, 52, 66
4, 88440, Note_on_c, 0, 52, 0
4, 88560, Note_on_c, 0, 55, 69
4, 88680, Note_on_c, 0, 55, 0
4, 88800, Note_on_c, 0, 53, 72
4, 88920, Note_on_c, 0, 53, 0
4, 89040, Note_on_c, 0, 57, 74
4, 89160, Note_on_c, 0, 57, 0
4, 89280, Note_on_c, 0, 55, 77
4, 89400, Note_on_c, 0, 55, 0
4, 89520, Note_on_c, 0, 59, 75
4, 89640, Note_on_c, 0, 59, 0
4, 89760, Note_on_c, 0, 55, 73
4, 89880, Note_on_c, 0, 55, 0
4, 90000, Note_on_c, 0, 57, 71
4, 90120, Note_on_c, 0, 57, 0
4, 90240, Note_on_c, 0, 59, 69
4, 90360, Note_on_c, 0, 59, 0
4, 90480, Note_on_c, 0, 55, 66
4, 90600, Note_on_c, 0, 55, 0
4, 90720, Note_on_c, 0, 48, 62
4, 90840, Note_on_c, 0, 48, 0
4, 90960, Note_on_c, 0, 55, 64
4, 91080, Note_on_c, 0, 55, 0
4, 91200, Note_on_c, 0, 57, 67
4, 91320, Note_on_c, 0, 57, 0
4, 91440, Note_on_c, 0, 60, 70
4, 91560, Note_on_c, 0, 60, 0
4, 91680, Note_on_c, 0, 53, 73
4, 91800, Note_on_c, 0, 53, 0
4, 91920, Note_on_c, 0, 57, 76
4, 92040, Note_on_c, 0, 57, 0
4, 92160, Note_on_c, 0, 55, 77
4, 92280, Note_on_c, 0, 55, 0
4, 92400, Note_on_c, 0, 60, 89
4, 92496, Note_on_c, 0, 60, 0
4, 92640, Note_on_c, 0, 53, 74
4, 92760, Note_on_c, 0, 53, 0
4, 92880, Note_on_c, 0, 55, 72
4, 93000, Note_on_c, 0, 55, 0
4, 93120, Note_on_c, 0, 52, 70
4, 93240, Note_on_c, 0, 52, 0
4, 93360, Note_on_c, 0, 52, 68
4, 93480, Note_on_c, 0, 52, 0
4, 93600, Note_on_c, 0, 53, 72
4, 93720, Note_on_c, 0, 53, 0
4, 93840, Note_on_c, 0, 50, 83
4, 93960, Note_on_c, 0, 50, 0
4, 94080, Note_on_c, 0, 55, 94
4, 94320, Note_on_c, 0, 55, 0
4, 94560, Note_on_c, 0, 55, 82
4, 94800, Note_on_c, 0, 55, 0
4, 95040, Note_on_c, 0, 48, 76
4, 95160, Note_on_c, 0, 48, 0
4, 95160, Note_on_c, 0, 52, 80
4, 95280, Note_on_c, 0, 52, 0
4, 95280, Note_on_c, 0, 55, 84
4, 95400, Note_on_c, 0, 55, 0
4, 95400, Note_on_c, 0, 59, 88
4, 95520, Note_on_c, 0, 59, 0
4, 95520, Note_on_c, 0, 60, 97
4, 96000, Note_on_c, 0, 60, 0
4, 96480, Control_c, 0, 7, 107
4, 96480, Control_c, 0, 64, 0
4, 96960, Note_on_c, 0, 52, 66
4, 97080, Note_on_c, 0, 52, 0
4, 97200, Note_on_c, 0, 55, 69
4, 97320, Note_on_c, 0, 55, 0
4, 97440, Note_on_c, 0, 53, 72
4, 97560, Note_on_c, 0, 53, 0
4, 97680, Note_on_c, 0, 57, 74
4, 97800, Note_on_c, 0, 57, 0
4, 97920, Note_on_c, 0, 55, 77
4, 98040, Note_on_c, 0, 55, 0
4, 98160, Note_on_c, 0, 59, 75
4, 98280, Note_on_c, 0, 59, 0
4, 98400, Note_on_c, 0, 55, 73
4, 98520, Note_on_c, 0, 55, 0
4, 98640, Note_on_c, 0, 57, 71
4, 98760, Note_on_c, 0, 57, 0
4, 98880, Note_on_c, 0, 59, 69
4, 99000, Note_on_c, 0, 59, 0
4, 99120, Note_on_c, 0, 55, 66
4, 99240, Note_on_c, 0, 55, 0
4, 99360, Note_on_c, 0, 48, 62
4, 99480, Note_on_c, 0, 48, 0
4, 99600, Note_on_c, 0, 55, 64
4, 99720, Note_on_c, 0, 55, 0
4, 99840, Note_on_c, 0, 57, 67
4, 99960, Note_on_c, 0, 57, 0
4, 100080, Note_on_c, 0, 60, 70
4, 100200, Note_on_c, 0, 60, 0
4, 100320, Note_on_c, 0, 53, 73
4, 100440, Note_on_c, 0, 53, 0
4, 100560, Note_on_c, 0, 57, 76
4, 100680, Note_on_c, 0, 57, 0
4, 100800, Note_on_c, 0, 55, 77
4, 100920, Note_on_c, 0, 55, 0
4, 101040, Note_on_c, 0, 60, 89
4, 101136, Note_on_c, 0, 60, 0
4, 101280, Note_on_c, 0, 53, 74
4, 101400, Note_on_c, 0, 53, 0
4, 101520, Note_on_c, 0, 55, 72
4, 101640, Note_on_c, 0, 55, 0
4, 101760, Note_on_c, 0, 52, 70
4, 101880, Note_on_c, 0, 52, 0
4, 102000, Note_on_c, 0, 52, 68
4, 102120, Note_on_c, 0, 52, 0
4, 102240, Note_on_c, 0, 53, 72
4, 102360, Note_on_c, 0, 53, 0
4, 102480, Note_on_c, 0, 50, 83
4, 102600, Note_on_c, 0, 50, 0
4, 102720, Note_on_c, 0, 55, 94
4, 102960, Note_on_c, 0, 55, 0
4, 103200, Note_on_c, 0, 55, 82
4, 103440, Note_on_c, 0, 55, 0
4, 103680, Note_on_c, 0, 48, 76
4, 103800, Note_on_c, 0, 48, 0
4, 103800, Note_on_c, 0, 52, 80
4, 103920, Note_on_c, 0, 52, 0
4, 103920, Note_on_c, 0, 55, 84
4, 104040, Note_on_c, 0, 55, 0
4, 104040, Note_on_c, 0, 59, 88
4, 104160, Note_on_c, 0, 59, 0
4, 104160, Note_on_c, 0, 60, 97
4, 104640, Note_on_c, 0, 60, 0
4, 105120, Control_c, 0, 7, 117
4, 105600, Note_on_c, 0, 52, 74
4, 105720, Note_on_c, 0, 52, 0
4, 105840, Note_on_c, 0, 55, 77
4, 105960, Note_on_c, 0, 55, 0
4, 106080, Note_on_c, 0, 50, 79
4, 106200, Note_on_c, 0, 50, 0
4, 106320, Note_on_c, 0, 53, 82
4, 106440, Note_on_c, 0, 53, 0
4, 106560, Note_on_c, 0, 49, 92
4, 106680, Note_on_c, 0, 49, 0
4, 106800, Note_on_c, 0, 52, 85
4, 106920, Note_on_c, 0, 52, 0
4, 107040, Note_on_c, 0, 49, 82
4, 107160, Note_on_c, 0, 49, 0
4, 107280, Note_on_c, 0, 50, 79
4, 107400, Note_on_c, 0, 50, 0
4, 107520, Note_on_c, 0, 45, 76
4, 107760, Note_on_c, 0, 45, 0
4, 108000, Control_c, 0, 64, 0
4, 108000, Note_on_c, 0, 50, 74
4, 108120, Note_on_c, 0, 50, 0
4, 108240, Note_on_c, 0, 53, 73
4, 108360, Note_on_c, 0, 53, 0
4, 108480, Note_on_c, 0, 50, 75
4, 108600, Note_on_c, 0, 50, 0
4, 108720, Note_on_c, 0, 53, 78
4, 108840, Note_on_c, 0, 53, 0
4, 108960, Note_on_c, 0, 48, 81
4, 109080, Note_on_c, 0, 48, 0
4, 109200, Note_on_c, 0, 50, 83
4, 109320, Note_on_c, 0, 50, 0
4, 109440, Note_on_c, 0, 47, 89
4, 109560, Note_on_c, 0, 47, 0
4, 109680, Note_on_c, 0, 50, 83
4, 109800, Note_on_c, 0, 50, 0
4, 109920, Note_on_c, 0, 47, 80
4, 110040, Note_on_c, 0, 47, 0
4, 110160, Note_on_c, 0, 48, 78
4, 110280, Note_on_c, 0, 48, 0
4, 110400, Note_on_c, 0, 43, 76
4, 110640, Note_on_c, 0, 43, 0
4, 110880, Note_on_c, 0, 48, 77
4, 111120, Note_on_c, 0, 48, 0
4, 111360, Note_on_c, 0, 57, 78
4, 111480, Note_on_c, 0, 57, 0
4, 111600, Note_on_c, 0, 55, 81
4, 111720, Note_on_c, 0, 55, 0
4, 111840, Note_on_c, 0, 53, 84
4, 111960, Note_on_c, 0, 53, 0
4, 112080, Note_on_c, 0, 52, 87
4, 112200, Note_on_c, 0, 52, 0
4, 112320, Note_on_c, 0, 46, 89
4, 112476, Note_on_c, 0, 46, 0
4, 112560, Note_on_c, 0, 58, 106
4, 113040, Note_on_c, 0, 57, 92
4, 113079, Note_on_c, 0, 58, 0
4, 113196, Note_on_c, 0, 57, 0
4, 113280, Note_on_c, 0, 52, 100
4, 113436, Note_on_c, 0, 52, 0
4, 113520, Note_on_c, 0, 52, 107
4, 113676, Note_on_c, 0, 52, 0
4, 113760, Note_on_c, 0, 53, 118
4, 113880, Note_on_c, 0, 53, 0
4, 114000, Note_on_c, 0, 50, 109
4, 114120, Note_on_c, 0, 50, 0
4, 114240, Note_on_c, 0, 55, 101
4, 114387, Note_on_c, 0, 55, 0
4, 114720, Note_on_c, 0, 55, 87
4, 114867, Note_on_c, 0, 55, 0
4, 115200, Note_on_c, 0, 48, 88
4, 115320, Note_on_c, 0, 48, 0
4, 115320, Note_on_c, 0, 52, 93
4, 115440, Note_on_c, 0, 52, 0
4, 115440, Note_on_c, 0, 55, 97
4, 115560, Note_on_c, 0, 55, 0
4, 115560, Note_on_c, 0, 59, 102
4, 115680, Note_on_c, 0, 59, 0
4, 115680, Note_on_c, 0, 60, 108
4, 116160, Note_on_c, 0, 60, 0
4, 116640, Control_c, 0, 64, 0
4, 116640, Note_on_c, 0, 36, 90
4, 116640, Note_on_c, 0, 48, 90
4, 116736, Note_on_c, 0, 48, 0
4, 116736, Note_on_c, 0, 36, 0
4, 116760, Note_on_c, 0, 48, 90
4, 116760, Note_on_c, 0, 36, 90
4, 116856, Note_on_c, 0, 36, 0
4, 116856, Note_on_c, 0, 48, 0
4, 117120, Note_on_c, 0, 57, 80
4, 117120, Note_on_c, 0, 64, 80
4, 117216, Note_on_c, 0, 64, 0
4, 117216, Note_on_c, 0, 57, 0
4, 117360, Note_on_c, 0, 57, 83
4, 117360, Note_on_c, 0, 64, 83
4, 117456, Note_on_c, 0, 64, 0
4, 117456, Note_on_c, 0, 57, 0
4, 117600, Note_on_c, 0, 50, 87
4, 117600, Note_on_c, 0, 62, 87
4, 118080, Note_on_c, 0, 62, 0
4, 118080, Note_on_c, 0, 50, 0
4, 118080, Note_on_c, 0, 43, 92
4, 118080, Note_on_c, 0, 31, 92
4, 118176, Note_on_c, 0, 31, 0
4, 118176, Note_on_c, 0, 43, 0
4, 118200, Note_on_c, 0, 43, 92
4, 118200, Note_on_c, 0, 31, 92
4, 118296, Note_on_c, 0, 31, 0
4, 118296, Note_on_c, 0, 43, 0
4, 118560, Note_on_c, 0, 67, 84
4, 118560, Note_on_c, 0, 65, 84
4, 118656, Note_on_c, 0, 65, 0
4, 118656, Note_on_c, 0, 67, 0
4, 118800, Note_on_c, 0, 67, 85
4, 118800, Note_on_c, 0, 65, 85
4, 118896, Note_on_c, 0, 65, 0
4, 118896, Note_on_c, 0, 67, 0
4, 119040, Note_on_c, 0, 67, 86
4, 119040, Note_on_c, 0, 64, 86
4, 119520, Note_on_c, 0, 64, 0
4, 119520, Note_on_c, 0, 67, 0
4, 119520, Note_on_c, 0, 34, 94
4, 119520, Note_on_c, 0, 46, 94
4, 119616, Note_on_c, 0, 46, 0
4, 119616, Note_on_c, 0, 34, 0
4, 119640, Note_on_c, 0, 46, 94
4, 119640, Note_on_c, 0, 34, 94
4, 119736, Note_on_c, 0, 34, 0
4, 119736, Note_on_c, 0, 46, 0
4, 120000, Note_on_c, 0, 58, 87
4, 120000, Note_on_c, 0, 67, 87
4, 120096, Note_on_c, 0, 67, 0
4, 120096, Note_on_c, 0, 58, 0
4, 120240, Note_on_c, 0, 58, 89
4, 120240, Note_on_c, 0, 67, 89
4, 120336, Note_on_c, 0, 67, 0
4, 120336, Note_on_c, 0, 58, 0
4, 120480, Note_on_c, 0, 57, 92
4, 120480, Note_on_c, 0, 65, 92
4, 120960, Note_on_c, 0, 65, 0
4, 120960, Note_on_c, 0, 57, 0
4, 120960, Note_on_c, 0, 31, 98
4, 120960, Note_on_c, 0, 43, 98
4, 121056, Note_on_c, 0, 43, 0
4, 121056, Note_on_c, 0, 31, 0
4, 121080, Note_on_c, 0, 43, 98
4, 121080, Note_on_c, 0, 31, 98
4, 121176, Note_on_c, 0, 31, 0
4, 121176, Note_on_c, 0, 43, 0
4, 121440, Note_on_c, 0, 59, 90
4, 121440, Note_on_c, 0, 53, 90
4, 121536, Note_on_c, 0, 53, 0
4, 121536, Note_on_c, 0, 59, 0
4, 121560, Note_on_c, 0, 59, 89
4, 121560, Note_on_c, 0, 53, 89
4, 121656, Note_on_c, 0, 53, 0
4, 121656, Note_on_c, 0, 59, 0
4, 121920, Note_on_c, 0, 52, 87
4, 121920, Note_on_c, 0, 40, 87
4, 122016, Note_on_c, 0, 40, 0
4, 122016, Note_on_c, 0, 52, 0
4, 122040, Note_on_c, 0, 40, 86
4, 122040, Note_on_c, 0, 52, 86
4, 122136, Note_on_c, 0, 52, 0
4, 122136, Note_on_c, 0, 40, 0
4, 122400, Note_on_c, 0, 29, 94
4, 122400, Note_on_c, 0, 41, 94
4, 122496, Note_on_c, 0, 41, 0
4, 122496, Note_on_c, 0, 29, 0
4, 122520, Note_on_c, 0, 41, 94
4, 122520, Note_on_c, 0, 29, 94
4, 122616, Note_on_c, 0, 29, 0
4, 122616, Note_on_c, 0, 41, 0
4, 122880, Note_on_c, 0, 55, 88
4, 122976, Note_on_c, 0, 55, 0
4, 123000, Note_on_c, 0, 55, 89
4, 123096, Note_on_c, 0, 55, 0
4, 123360, Note_on_c, 0, 31, 99
4, 123360, Note_on_c, 0, 43, 99
4, 123456, Note_on_c, 0, 43, 0
4, 123456, Note_on_c, 0, 31, 0
4, 123480, Note_on_c, 0, 43, 101
4, 123480, Note_on_c, 0, 31, 101
4, 123576, Note_on_c, 0, 31, 0
4, 123576, Note_on_c, 0, 43, 0
4, 123840, Note_on_c, 0, 36, 101
4, 123840, Note_on_c, 0, 48, 101
4, 123996, Note_on_c, 0, 48, 0
4, 123996, Note_on_c, 0, 36, 0
4, 124920, Note_on_c, 0, 48, 99
4, 125040, Note_on_c, 0, 48, 0
4, 125040, Note_on_c, 0, 43, 96
4, 125160, Note_on_c, 0, 43, 0
4, 125160, Note_on_c, 0, 40, 94
4, 125280, Note_on_c, 0, 40, 0
4, 125280, Control_c, 0, 7, 107
4, 125280, Control_c, 0, 64, 0
4, 125280, Note_on_c, 0, 48, 90
4, 125280, Note_on_c, 0, 36, 90
4, 125376, Note_on_c, 0, 36, 0
4, 125376, Note_on_c, 0, 48, 0
4, 125400, Note_on_c, 0, 36, 90
4, 125400, Note_on_c, 0, 48, 90
4, 125496, Note_on_c, 0, 48, 0
4, 125496, Note_on_c, 0, 36, 0
4, 125760, Note_on_c, 0, 64, 80
4, 125760, Note_on_c, 0, 57, 80
4, 125856, Note_on_c, 0, 57, 0
4, 125856, Note_on_c, 0, 64, 0
4, 126000, Note_on_c, 0, 64, 83
4, 126000, Note_on_c, 0, 57, 83
4, 126096, Note_on_c, 0, 57, 0
4, 126096, Note_on_c, 0, 64, 0
4, 126240, Note_on_c, 0, 62, 87
4, 126240, Note_on_c, 0, 50, 87
4, 126720, Note_on_c, 0, 50, 0
4, 126720, Note_on_c, 0, 62, 0
4, 126720, Note_on_c, 0, 31, 92
4, 126720, Note_on_c, 0, 43, 92
4, 126816, Note_on_c, 0, 43, 0
4, 126816, Note_on_c, 0, 31, 0
4, 126840, Note_on_c, 0, 31, 92
4, 126840, Note_on_c, 0, 43, 92
4, 126936, Note_on_c, 0, 43, 0
4, 126936, Note_on_c, 0, 31, 0
4, 127200, Note_on_c, 0, 65, 84
4, 127200, Note_on_c, 0, 67, 84
4, 127296, Note_on_c, 0, 67, 0
4, 127296, Note_on_c, 0, 65, 0
4, 127440, Note_on_c, 0, 65, 85
4, 127440, Note_on_c, 0, 67, 85
4, 127536, Note_on_c, 0, 67, 0
4, 127536, Note_on_c, 0, 65, 0
4, 127680, Note_on_c, 0, 64, 86
4, 127680, Note_on_c, 0, 67, 86
4, 128160, Note_on_c, 0, 67, 0
4, 128160, Note_on_c, 0, 64, 0
4, 128160, Note_on_c, 0, 46, 94
4, 128160, Note_on_c, 0, 34, 94
4, 128256, Note_on_c, 0, 34, 0
4, 128256, Note_on_c, 0, 46, 0
4, 128280, Note_on_c, 0, 34, 94
4, 128280, Note_on_c, 0, 46, 94
4, 128376, Note_on_c, 0, 46, 0
4, 128376, Note_on_c, 0, 34, 0
4, 128640, Note_on_c, 0, 67, 87
4, 128640, Note_on_c, 0, 58, 87
4, 128736, Note_on_c, 0, 58, 0
4, 128736, Note_on_c, 0, 67, 0
4, 128880, Note_on_c, 0, 67, 89
4, 128880, Note_on_c, 0, 58, 89
4, 128976, Note_on_c, 0, 58, 0
4, 128976, Note_on_c, 0, 67, 0
4, 129120, Note_on_c, 0, 65, 92
4, 129120, Note_on_c, 0, 57, 92
4, 129600, Note_on_c, 0, 57, 0
4, 129600, Note_on_c, 0, 65, 0
4, 129600, Note_on_c, 0, 43, 98
4, 129600, Note_on_c, 0, 31, 98
4, 129696, Note_on_c, 0, 31, 0
4, 129696, Note_on_c, 0, 43, 0
4, 129720, Note_on_c, 0, 31, 98
4, 129720, Note_on_c, 0, 43, 98
4, 129816, Note_on_c, 0, 43, 0
4, 129816, Note_on_c, 0, 31, 0
4, 130080, Note_on_c, 0, 53, 90
4, 130080, Note_on_c, 0, 59, 90
4, 130176, Note_on_c, 0, 59, 0
4, 130176, Note_on_c, 0, 53, 0
4, 130200, Note_on_c, 0, 53, 89
4, 130200, Note_on_c, 0, 59, 89
4, 130296, Note_on_c, 0, 59, 0
4, 130296, Note_on_c, 0, 53, 0
4, 130560, Note_on_c, 0, 40, 87
4, 130560, Note_on_c, 0, 52, 87
4, 130656, Note_on_c, 0, 52, 0
4, 130656, Note_on_c, 0, 40, 0
4, 130680, Note_on_c, 0, 52, 86
4, 130680, Note_on_c, 0, 40, 86
4, 130776, Note_on_c, 0, 40, 0
4, 130776, Note_on_c, 0, 52, 0
4, 131040, Note_on_c, 0, 41, 94
4, 131040, Note_on_c, 0, 29, 94
4, 131136, Note_on_c, 0, 29, 0
4, 131136, Note_on_c, 0, 41, 0
4, 131160, Note_on_c, 0, 29, 94
4, 131160, Note_on_c, 0, 41, 94
4, 131256, Note_on_c, 0, 41, 0
4, 131256, Note_on_c, 0, 29, 0
4, 131520, Note_on_c, 0, 55, 88
4, 131616, Note_on_c, 0, 55, 0
4, 131640, Note_on_c, 0, 55, 89
4, 131736, Note_on_c, 0, 55, 0
4, 132000, Note_on_c, 0, 43, 99
4, 132000, Note_on_c, 0, 31, 99
4, 132096, Note_on_c, 0, 31, 0
4, 132096, Note_on_c, 0, 43, 0
4, 132120, Note_on_c, 0, 31, 101
4, 132120, Note_on_c, 0, 43, 101
4, 132216, Note_on_c, 0, 43, 0
4, 132216, Note_on_c, 0, 31, 0
4, 132480, Note_on_c, 0, 48, 101
4, 132480, Note_on_c, 0, 36, 101
4, 132636, Note_on_c, 0, 36, 0
4, 132636, Note_on_c, 0, 48, 0
4, 133560, Note_on_c, 0, 48, 99
4, 133680, Note_on_c, 0, 48, 0
4, 133680, Note_on_c, 0, 43, 96
4, 133800, Note_on_c, 0, 43, 0
4, 133800, Note_on_c, 0, 40, 94
4, 133920, Note_on_c, 0, 40, 0
4, 133920, Control_c, 0, 7, 117
4, 133920, Note_on_c, 0, 34, 92
4, 134016, Note_on_c, 0, 34, 0
4, 134040, Note_on_c, 0, 34, 92
4, 134136, Note_on_c, 0, 34, 0
4, 134400, Note_on_c, 0, 46, 77
4, 134496, Note_on_c, 0, 46, 0
4, 134520, Note_on_c, 0, 46, 79
4, 134616, Note_on_c, 0, 46, 0
4, 134880, Note_on_c, 0, 58, 85
4, 134976, Note_on_c, 0, 58, 0
4, 135000, Note_on_c, 0, 58, 87
4, 135096, Note_on_c, 0, 58, 0
4, 135360, Note_on_c, 0, 57, 93
4, 135456, Note_on_c, 0, 57, 0
4, 135480, Note_on_c, 0, 57, 95
4, 135576, Note_on_c, 0, 57, 0
4, 135840, Note_on_c, 0, 76, 107
4, 135840, Note_on_c, 0, 79, 107
4, 135936, Note_on_c, 0, 79, 0
4, 135936, Note_on_c, 0, 76, 0
4, 136080, Note_on_c, 0, 74, 110
4, 136080, Note_on_c, 0, 77, 110
4, 136176, Note_on_c, 0, 77, 0
4, 136176, Note_on_c, 0, 74, 0
4, 136320, Note_on_c, 0, 76, 113
4, 136320, Note_on_c, 0, 73, 113
4, 136800, Note_on_c, 0, 73, 0
4, 136800, Note_on_c, 0, 76, 0
4, 136800, Note_on_c, 0, 32, 93
4, 136896, Note_on_c, 0, 32, 0
4, 136920, Note_on_c, 0, 32, 92
4, 137016, Note_on_c, 0, 32, 0
4, 137280, Note_on_c, 0, 44, 82
4, 137376, Note_on_c, 0, 44, 0
4, 137400, Note_on_c, 0, 44, 84
4, 137496, Note_on_c, 0, 44, 0
4, 137760, Note_on_c, 0, 56, 91
4, 137856, Note_on_c, 0, 56, 0
4, 137880, Note_on_c, 0, 56, 94
4, 137976, Note_on_c, 0, 56, 0
4, 138240, Note_on_c, 0, 55, 101
4, 138336, Note_on_c, 0, 55, 0
4, 138360, Note_on_c, 0, 55, 102
4, 138456, Note_on_c, 0, 55, 0
4, 138720, Note_on_c, 0, 67, 112
4, 138720, Note_on_c, 0, 74, 112
4, 138720, Note_on_c, 0, 71, 112
4, 138816, Note_on_c, 0, 71, 0
4, 138816, Note_on_c, 0, 74, 0
4, 138816, Note_on_c, 0, 67, 0
4, 138960, Note_on_c, 0, 67, 115
4, 138960, Note_on_c, 0, 72, 115
4, 138960, Note_on_c, 0, 76, 115
4, 139056, Note_on_c, 0, 76, 0
4, 139056, Note_on_c, 0, 72, 0
4, 139056, Note_on_c, 0, 67, 0
4, 139200, Note_on_c, 0, 74, 118
4, 139200, Note_on_c, 0, 67, 118
4, 139200, Note_on_c, 0, 77, 118
4, 139680, Note_on_c, 0, 77, 0
4, 139680, Note_on_c, 0, 67, 0
4, 139680, Note_on_c, 0, 74, 0
4, 139680, Note_on_c, 0, 48, 107
4, 139680, Note_on_c, 0, 36, 107
4, 139776, Note_on_c, 0, 36, 0
4, 139776, Note_on_c, 0, 48, 0
4, 139800, Note_on_c, 0, 36, 108
4, 139800, Note_on_c, 0, 48, 108
4, 139896, Note_on_c, 0, 48, 0
4, 139896, Note_on_c, 0, 36, 0
4, 140160, Note_on_c, 0, 52, 110
4, 140160, Note_on_c, 0, 40, 110
4, 140256, Note_on_c, 0, 40, 0
4, 140256, Note_on_c, 0, 52, 0
4, 140280, Note_on_c, 0, 40, 111
4, 140280, Note_on_c, 0, 52, 111
4, 140376, Note_on_c, 0, 52, 0
4, 140376, Note_on_c, 0, 40, 0
4, 140640, Note_on_c, 0, 55, 113
4, 140640, Note_on_c, 0, 43, 113
4, 140736, Note_on_c, 0, 43, 0
4, 140736, Note_on_c, 0, 55, 0
4, 140760, Note_on_c, 0, 43, 114
4, 140760, Note_on_c, 0, 55, 114
4, 140856, Note_on_c, 0, 55, 0
4, 140856, Note_on_c, 0, 43, 0
4, 141120, Note_on_c, 0, 60, 125
4, 141120, Note_on_c, 0, 48, 125
4, 141276, Note_on_c, 0, 48, 0
4, 141276, Note_on_c, 0, 60, 0
4, 142320, Note_on_c, 0, 52, 127
4, 142320, Note_on_c, 0, 40, 127
4, 142476, Note_on_c, 0, 40, 0
4, 142476, Note_on_c, 0, 52, 0
4, 142560, Note_on_c, 0, 53, 119
4, 142560, Note_on_c, 0, 41, 119
4, 142656, Note_on_c, 0, 41, 0
4, 142656, Note_on_c, 0, 53, 0
4, 142680, Note_on_c, 0, 41, 117
4, 142680, Note_on_c, 0, 53, 117
4, 142776, Note_on_c, 0, 53, 0
4, 142776, Note_on_c, 0, 41, 0
4, 143040, Note_on_c, 0, 55, 111
4, 143040, Note_on_c, 0, 43, 111
4, 143136, Note_on_c, 0, 43, 0
4, 143136, Note_on_c, 0, 55, 0
4, 143160, Note_on_c, 0, 43, 109
4, 143160, Note_on_c, 0, 55, 109
4, 143256, Note_on_c, 0, 55, 0
4, 143256, Note_on_c, 0, 43, 0
4, 143520, Note_on_c, 0, 31, 103
4, 143520, Note_on_c, 0, 43, 103
4, 143616, Note_on_c, 0, 43, 0
4, 143616, Note_on_c, 0, 31, 0
4, 143640, Note_on_c, 0, 31, 101
4, 143640, Note_on_c, 0, 43, 101
4, 143736, Note_on_c, 0, 43, 0
4, 143736, Note_on_c, 0, 31, 0
4, 144000, Note_on_c, 0, 48, 95
4, 144000, Note_on_c, 0, 36, 95
4, 144156, Note_on_c, 0, 36, 0
4, 144156, Note_on_c, 0, 48, 0
4, 145140, Note_on_c, 0, 36, 60
4, 145262, Note_on_c, 0, 36, 0
4, 146880, Control_c, 0, 64, 0
4, 147360, Control_c, 0, 64, 0
4, 147360, Note_on_c, 0, 56, 64
4, 147420, Control_c, 0, 64, 127
4, 147645, Note_on_c, 0, 56, 0
4, 147840, Control_c, 0, 64, 0
4, 147840, Note_on_c, 0, 53, 62
4, 147900, Control_c, 0, 64, 127
4, 148125, Note_on_c, 0, 53, 0
4, 148320, Control_c, 0, 64, 0
4, 148320, Note_on_c, 0, 55, 60
4, 148380, Control_c, 0, 64, 127
4, 148605, Note_on_c, 0, 55, 0
4, 148800, Control_c, 0, 64, 0
4, 148800, Note_on_c, 0, 55, 64
4, 148860, Control_c, 0, 64, 127
4, 149085, Note_on_c, 0, 55, 0
4, 149280, Control_c, 0, 64, 0
4, 149280, Note_on_c, 0, 55, 70
4, 149340, Control_c, 0, 64, 127
4, 149565, Note_on_c, 0, 55, 0
4, 149760, Control_c, 0, 64, 0
4, 149760, Note_on_c, 0, 60, 78
4, 149820, Control_c, 0, 64, 127
4, 150045, Note_on_c, 0, 60, 0
4, 150240, Control_c, 0, 64, 0
4, 150240, Note_on_c, 0, 60, 68
4, 150300, Control_c, 0, 64, 127
4, 150525, Note_on_c, 0, 60, 0
4, 150720, Control_c, 0, 64, 0
4, 150720, Note_on_c, 0, 56, 62
4, 150780, Control_c, 0, 64, 127
4, 151005, Note_on_c, 0, 56, 0
4, 151200, Control_c, 0, 64, 0
4, 151200, Note_on_c, 0, 58, 70
4, 151260, Control_c, 0, 64, 127
4, 151485, Note_on_c, 0, 58, 0
4, 151680, Control_c, 0, 64, 0
4, 151680, Note_on_c, 0, 59, 56
4, 151740, Control_c, 0, 64, 127
4, 151965, Note_on_c, 0, 59, 0
4, 152160, Control_c, 0, 64, 0
4, 152160, Note_on_c, 0, 60, 54
4, 152220, Control_c, 0, 64, 127
4, 152445, Note_on_c, 0, 60, 0
4, 152640, Control_c, 0, 64, 0
4, 152640, Note_on_c, 0, 53, 58
4, 152700, Control_c, 0, 64, 127
4, 152925, Note_on_c, 0, 53, 0
4, 153120, Control_c, 0, 64, 0
4, 153120, Note_on_c, 0, 54, 51
4, 153180, Control_c, 0, 64, 127
4, 153405, Note_on_c, 0, 54, 0
4, 153600, Control_c, 0, 64, 0
4, 153600, Note_on_c, 0, 55, 49
4, 153660, Control_c, 0, 64, 127
4, 153885, Note_on_c, 0, 55, 0
4, 154080, Control_c, 0, 64, 0
4, 154080, Note_on_c, 0, 48, 54
4, 154365, Note_on_c, 0, 48, 0
4, 155520, Control_c, 0, 7, 107
4, 156000, Control_c, 0, 64, 0
4, 156000, Note_on_c, 0, 56, 64
4, 156060, Control_c, 0, 64, 127
4, 156285, Note_on_c, 0, 56, 0
4, 156480, Control_c, 0, 64, 0
4, 156480, Note_on_c, 0, 53, 62
4, 156540, Control_c, 0, 64, 127
4, 156765, Note_on_c, 0, 53, 0
4, 156960, Control_c, 0, 64, 0
4, 156960, Note_on_c, 0, 55, 60
4, 157020, Control_c, 0, 64, 127
4, 157245, Note_on_c, 0, 55, 0
4, 157440, Control_c, 0, 64, 0
4, 157440, Note_on_c, 0, 55, 64
4, 157500, Control_c, 0, 64, 127
4, 157725, Note_on_c, 0, 55, 0
4, 157920, Control_c, 0, 64, 0
4, 157920, Note_on_c, 0, 55, 70
4, 157980, Control_c, 0, 64, 127
4, 158205, Note_on_c, 0, 55, 0
4, 158400, Control_c, 0, 64, 0
4, 158400, Note_on_c, 0, 60, 78
4, 158460, Control_c, 0, 64, 127
4, 158685, Note_on_c, 0, 60, 0
4, 158880, Control_c, 0, 64, 0
4, 158880, Note_on_c, 0, 60, 68
4, 158940, Control_c, 0, 64, 127
4, 159165, Note_on_c, 0, 60, 0
4, 159360, Control_c, 0, 64, 0
4, 159360, Note_on_c, 0, 56, 62
4, 159420, Control_c, 0, 64, 127
4, 159645, Note_on_c, 0, 56, 0
4, 159840, Control_c, 0, 64, 0
4, 159840, Note_on_c, 0, 58, 70
4, 159900, Control_c, 0, 64, 127
4, 160125, Note_on_c, 0, 58, 0
4, 160320, Control_c, 0, 64, 0
4, 160320, Note_on_c, 0, 59, 56
4, 160380, Control_c, 0, 64, 127
4, 160605, Note_on_c, 0, 59, 0
4, 160800, Control_c, 0, 64, 0
4, 160800, Note_on_c, 0, 60, 54
4, 160860, Control_c, 0, 64, 127
4, 161085, Note_on_c, 0, 60, 0
4, 161280, Control_c, 0, 64, 0
4, 161280, Note_on_c, 0, 53, 58
4, 161340, Control_c, 0, 64, 127
4, 161565, Note_on_c, 0, 53, 0
4, 161760, Control_c, 0, 64, 0
4, 161760, Note_on_c, 0, 54, 51
4, 161820, Control_c, 0, 64, 127
4, 162045, Note_on_c, 0, 54, 0
4, 162240, Control_c, 0, 64, 0
4, 162240, Note_on_c, 0, 55, 49
4, 162300, Control_c, 0, 64, 127
4, 162525, Note_on_c, 0, 55, 0
4, 162720, Control_c, 0, 64, 0
4, 162720, Note_on_c, 0, 48, 54
4, 163005, Note_on_c, 0, 48, 0
4, 164160, Control_c, 0, 7, 117
4, 164160, Control_c, 0, 64, 0
4, 164160, Note_on_c, 0, 51, 82
4, 164220, Control_c, 0, 64, 127
4, 164430, Note_on_c, 0, 51, 0
4, 164640, Control_c, 0, 64, 0
4, 164640, Note_on_c, 0, 55, 72
4, 164700, Control_c, 0, 64, 127
4, 164910, Note_on_c, 0, 55, 0
4, 165120, Control_c, 0, 64, 0
4, 165120, Note_on_c, 0, 58, 74
4, 165180, Control_c, 0, 64, 127
4, 165390, Note_on_c, 0, 58, 0
4, 165600, Control_c, 0, 64, 0
4, 165600, Note_on_c, 0, 63, 79
4, 165660, Control_c, 0, 64, 127
4, 165870, Note_on_c, 0, 63, 0
4, 166080, Control_c, 0, 64, 0
4, 166080, Note_on_c, 0, 62, 75
4, 166140, Control_c, 0, 64, 127
4, 166350, Note_on_c, 0, 62, 0
4, 166560, Control_c, 0, 64, 0
4, 166560, Note_on_c, 0, 60, 72
4, 166620, Control_c, 0, 64, 127
4, 166830, Note_on_c, 0, 60, 0
4, 167040, Control_c, 0, 64, 0
4, 167040, Note_on_c, 0, 56, 70
4, 167100, Control_c, 0, 64, 127
4, 167310, Note_on_c, 0, 56, 0
4, 167520, Control_c, 0, 64, 0
4, 167520, Note_on_c, 0, 56, 69
4, 167580, Control_c, 0, 64, 127
4, 167790, Note_on_c, 0, 56, 0
4, 168000, Control_c, 0, 64, 0
4, 168000, Note_on_c, 0, 56, 72
4, 168060, Control_c, 0, 64, 127
4, 168270, Note_on_c, 0, 56, 0
4, 168480, Control_c, 0, 64, 0
4, 168480, Note_on_c, 0, 55, 80
4, 168540, Control_c, 0, 64, 127
4, 168800, Note_on_c, 0, 55, 0
4, 168960, Control_c, 0, 64, 0
4, 168960, Note_on_c, 0, 57, 71
4, 169020, Control_c, 0, 64, 127
4, 169240, Note_on_c, 0, 57, 0
4, 169440, Control_c, 0, 64, 0
4, 169440, Note_on_c, 0, 59, 66
4, 169500, Control_c, 0, 64, 127
4, 169720, Note_on_c, 0, 59, 0
4, 169920, Control_c, 0, 64, 0
4, 169920, Note_on_c, 0, 60, 68
4, 169980, Control_c, 0, 64, 127
4, 170200, Note_on_c, 0, 60, 0
4, 170400, Control_c, 0, 64, 0
4, 170400, Note_on_c, 0, 55, 69
4, 170460, Control_c, 0, 64, 127
4, 170680, Note_on_c, 0, 55, 0
4, 170880, Control_c, 0, 64, 0
4, 170880, Note_on_c, 0, 53, 73
4, 170940, Control_c, 0, 64, 127
4, 171160, Note_on_c, 0, 53, 0
4, 171360, Control_c, 0, 64, 0
4, 171360, Note_on_c, 0, 51, 85
4, 171420, Control_c, 0, 64, 127
4, 171640, Note_on_c, 0, 51, 0
4, 171840, Control_c, 0, 64, 0
4, 171840, Note_on_c, 0, 52, 99
4, 171900, Control_c, 0, 64, 127
4, 172120, Note_on_c, 0, 52, 0
4, 172320, Control_c, 0, 64, 0
4, 172320, Note_on_c, 0, 52, 84
4, 172380, Control_c, 0, 64, 127
4, 172600, Note_on_c, 0, 52, 0
4, 172800, Control_c, 0, 64, 0
4, 172800, Note_on_c, 0, 53, 71
4, 172860, Control_c, 0, 64, 127
4, 173080, Note_on_c, 0, 53, 0
4, 173280, Control_c, 0, 64, 0
4, 173280, Note_on_c, 0, 55, 67
4, 173340, Control_c, 0, 64, 127
4, 173560, Note_on_c, 0, 55, 0
4, 173760, Control_c, 0, 64, 0
4, 173760, Note_on_c, 0, 55, 64
4, 173820, Control_c, 0, 64, 127
4, 174040, Note_on_c, 0, 55, 0
4, 174240, Control_c, 0, 64, 0
4, 174240, Note_on_c, 0, 60, 61
4, 174300, Control_c, 0, 64, 127
4, 174520, Note_on_c, 0, 60, 0
4, 174720, Control_c, 0, 64, 0
4, 174720, Note_on_c, 0, 60, 54
4, 175030, Note_on_c, 0, 60, 0
4, 175200, Note_on_c, 0, 60, 70
4, 175488, Note_on_c, 0, 60, 0
4, 175560, Note_on_c, 0, 60, 70
4, 175656, Note_on_c, 0, 60, 0
4, 175680, Note_on_c, 0, 60, 77
4, 176400, Note_on_c, 0, 60, 0
4, 176400, Note_on_c, 0, 62, 68
4, 176640, Note_on_c, 0, 62, 0
4, 176640, Note_on_c, 0, 64, 66
4, 176874, Note_on_c, 0, 64, 0
4, 177000, Note_on_c, 0, 62, 69
4, 177078, Note_on_c, 0, 62, 0
4, 177120, Note_on_c, 0, 60, 70
4, 177354, Note_on_c, 0, 60, 0
4, 177480, Note_on_c, 0, 53, 73
4, 177558, Note_on_c, 0, 53, 0
4, 177600, Note_on_c, 0, 55, 82
4, 178320, Note_on_c, 0, 55, 0
4, 178320, Note_on_c, 0, 57, 69
4, 178560, Note_on_c, 0, 57, 0
4, 178560, Note_on_c, 0, 59, 66
4, 178794, Note_on_c, 0, 59, 0
4, 178920, Note_on_c, 0, 55, 69
4, 178998, Note_on_c, 0, 55, 0
4, 179040, Note_on_c, 0, 57, 70
4, 179274, Note_on_c, 0, 57, 0
4, 179400, Note_on_c, 0, 59, 78
4, 179478, Note_on_c, 0, 59, 0
4, 179520, Note_on_c, 0, 60, 85
4, 180240, Note_on_c, 0, 60, 0
4, 180240, Note_on_c, 0, 59, 68
4, 180480, Note_on_c, 0, 59, 0
4, 180480, Note_on_c, 0, 60, 66
4, 180714, Note_on_c, 0, 60, 0
4, 180840, Note_on_c, 0, 58, 70
4, 180840, Note_on_c, 0, 60, 70
4, 180918, Note_on_c, 0, 60, 0
4, 180918, Note_on_c, 0, 58, 0
4, 180960, Note_on_c, 0, 57, 71
4, 180960, Note_on_c, 0, 60, 71
4, 181194, Note_on_c, 0, 60, 0
4, 181194, Note_on_c, 0, 57, 0
4, 181320, Note_on_c, 0, 53, 74
4, 181320, Note_on_c, 0, 60, 74
4, 181398, Note_on_c, 0, 60, 0
4, 181398, Note_on_c, 0, 53, 0
4, 181440, Note_on_c, 0, 60, 76
4, 181440, Note_on_c, 0, 55, 76
4, 181674, Note_on_c, 0, 55, 0
4, 181674, Note_on_c, 0, 60, 0
4, 181800, Note_on_c, 0, 55, 81
4, 181800, Note_on_c, 0, 60, 81
4, 181878, Note_on_c, 0, 60, 0
4, 181878, Note_on_c, 0, 55, 0
4, 181920, Note_on_c, 0, 56, 82
4, 181920, Note_on_c, 0, 59, 82
4, 182154, Note_on_c, 0, 59, 0
4, 182154, Note_on_c, 0, 56, 0
4, 182280, Note_on_c, 0, 56, 87
4, 182280, Note_on_c, 0, 59, 87
4, 182358, Note_on_c, 0, 59, 0
4, 182358, Note_on_c, 0, 56, 0
4, 182400, Note_on_c, 0, 57, 88
4, 182400, Note_on_c, 0, 60, 88
4, 182634, Note_on_c, 0, 60, 0
4, 182634, Note_on_c, 0, 57, 0
4, 182760, Note_on_c, 0, 57, 92
4, 182760, Note_on_c, 0, 60, 92
4, 182838, Note_on_c, 0, 60, 0
4, 182838, Note_on_c, 0, 57, 0
4, 182880, Note_on_c, 0, 58, 94
4, 182880, Note_on_c, 0, 55, 94
4, 183114, Note_on_c, 0, 55, 0
4, 183114, Note_on_c, 0, 58, 0
4, 183240, Note_on_c, 0, 58, 98
4, 183240, Note_on_c, 0, 55, 98
4, 183318, Note_on_c, 0, 55, 0
4, 183318, Note_on_c, 0, 58, 0
4, 183360, Note_on_c, 0, 53, 106
4, 183360, Note_on_c, 0, 57, 106
4, 183720, Note_on_c, 0, 57, 0
4, 183720, Note_on_c, 0, 53, 0
4, 183840, Note_on_c, 0, 50, 96
4, 184074, Note_on_c, 0, 50, 0
4, 184200, Note_on_c, 0, 50, 91
4, 184278, Note_on_c, 0, 50, 0
4, 184320, Note_on_c, 0, 55, 89
4, 184554, Note_on_c, 0, 55, 0
4, 184680, Note_on_c, 0, 55, 84
4, 184758, Note_on_c, 0, 55, 0
4, 184800, Note_on_c, 0, 43, 82
4, 185034, Note_on_c, 0, 43, 0
4, 185160, Note_on_c, 0, 43, 77
4, 185238, Note_on_c, 0, 43, 0
4, 185280, Note_on_c, 0, 48, 75
4, 185640, Note_on_c, 0, 48, 0
4, 186720, Note_on_c, 0, 67, 67
4, 186840, Note_on_c, 0, 67, 0
4, 186840, Note_on_c, 0, 64, 69
4, 186960, Note_on_c, 0, 64, 0
4, 186960, Note_on_c, 0, 67, 71
4, 187080, Note_on_c, 0, 67, 0
4, 187080, Note_on_c, 0, 64, 72
4, 187200, Note_on_c, 0, 64, 0
4, 187200, Control_c, 0, 7, 107
4, 187200, Note_on_c, 0, 60, 77
4, 187920, Note_on_c, 0, 60, 0
4, 187920, Note_on_c, 0, 62, 68
4, 188160, Note_on_c, 0, 62, 0
4, 188160, Note_on_c, 0, 64, 66
4, 188394, Note_on_c, 0, 64, 0
4, 188520, Note_on_c, 0, 62, 69
4, 188598, Note_on_c, 0, 62, 0
4, 188640, Note_on_c, 0, 60, 70
4, 188874, Note_on_c, 0, 60, 0
4, 189000, Note_on_c, 0, 53, 73
4, 189078, Note_on_c, 0, 53, 0
4, 189120, Note_on_c, 0, 55, 82
4, 189840, Note_on_c, 0, 55, 0
4, 189840, Note_on_c, 0, 57, 69
4, 190080, Note_on_c, 0, 57, 0
4, 190080, Note_on_c, 0, 59, 66
4, 190314, Note_on_c, 0, 59, 0
4, 190440, Note_on_c, 0, 55, 69
4, 190518, Note_on_c, 0, 55, 0
4, 190560, Note_on_c, 0, 57, 70
4, 190794, Note_on_c, 0, 57, 0
4, 190920, Note_on_c, 0, 59, 78
4, 190998, Note_on_c, 0, 59, 0
4, 191040, Note_on_c, 0, 60, 85
4, 191760, Note_on_c, 0, 60, 0
4, 191760, Note_on_c, 0, 59, 68
4, 192000, Note_on_c, 0, 59, 0
4, 192000, Note_on_c, 0, 60, 66
4, 192234, Note_on_c, 0, 60, 0
4, 192360, Note_on_c, 0, 60, 70
4, 192360, Note_on_c, 0, 58, 70
4, 192438, Note_on_c, 0, 58, 0
4, 192438, Note_on_c, 0, 60, 0
4, 192480, Note_on_c, 0, 60, 71
4, 192480, Note_on_c, 0, 57, 71
4, 192714, Note_on_c, 0, 57, 0
4, 192714, Note_on_c, 0, 60, 0
4, 192840, Note_on_c, 0, 60, 74
4, 192840, Note_on_c, 0, 53, 74
4, 192918, Note_on_c, 0, 53, 0
4, 192918, Note_on_c, 0, 60, 0
4, 192960, Note_on_c, 0, 55, 76
4, 192960, Note_on_c, 0, 60, 76
4, 193194, Note_on_c, 0, 60, 0
4, 193194, Note_on_c, 0, 55, 0
4, 193320, Note_on_c, 0, 60, 81
4, 193320, Note_on_c, 0, 55, 81
4, 193398, Note_on_c, 0, 55, 0
4, 193398, Note_on_c, 0, 60, 0
4, 193440, Note_on_c, 0, 59, 82
4, 193440, Note_on_c, 0, 56, 82
4, 193674, Note_on_c, 0, 56, 0
4, 193674, Note_on_c, 0, 59, 0
4, 193800, Note_on_c, 0, 59, 87
4, 193800, Note_on_c, 0, 56, 87
4, 193878, Note_on_c, 0, 56, 0
4, 193878, Note_on_c, 0, 59, 0
4, 193920, Note_on_c, 0, 60, 88
4, 193920, Note_on_c, 0, 57, 88
4, 194154, Note_on_c, 0, 57, 0
4, 194154, Note_on_c, 0, 60, 0
4, 194280, Note_on_c, 0, 60, 92
4, 194280, Note_on_c, 0, 57, 92
4, 194358, Note_on_c, 0, 57, 0
4, 194358, Note_on_c, 0, 60, 0
4, 194400, Note_on_c, 0, 55, 94
4, 194400, Note_on_c, 0, 58, 94
4, 194634, Note_on_c, 0, 58, 0
4, 194634, Note_on_c, 0, 55, 0
4, 194760, Note_on_c, 0, 55, 98
4, 194760, Note_on_c, 0, 58, 98
4, 194838, Note_on_c, 0, 58, 0
4, 194838, Note_on_c, 0, 55, 0
4, 194880, Note_on_c, 0, 57, 106
4, 194880, Note_on_c, 0, 53, 106
4, 195240, Note_on_c, 0, 53, 0
4, 195240, Note_on_c, 0, 57, 0
4, 195360, Note_on_c, 0, 50, 96
4, 195594, Note_on_c, 0, 50, 0
4, 195720, Note_on_c, 0, 50, 91
4, 195798, Note_on_c, 0, 50, 0
4, 195840, Note_on_c, 0, 55, 89
4, 196074, Note_on_c, 0, 55, 0
4, 196200, Note_on_c, 0, 55, 84
4, 196278, Note_on_c, 0, 55, 0
4, 196320, Note_on_c, 0, 43, 82
4, 196554, Note_on_c, 0, 43, 0
4, 196680, Note_on_c, 0, 43, 77
4, 196758, Note_on_c, 0, 43, 0
4, 196800, Note_on_c, 0, 48, 75
4, 197160, Note_on_c, 0, 48, 0
4, 197280, Note_on_c, 0, 67, 68
4, 197400, Note_on_c, 0, 67, 0
4, 197400, Note_on_c, 0, 64, 67
4, 197520, Note_on_c, 0, 64, 0
4, 197520, Note_on_c, 0, 67, 66
4, 197640, Note_on_c, 0, 67, 0
4, 197640, Note_on_c, 0, 64, 65
4, 197760, Note_on_c, 0, 64, 0
4, 197760, Note_on_c, 0, 60, 64
4, 198120, Note_on_c, 0, 60, 0
4, 198240, Control_c, 0, 7, 117
4, 198240, Note_on_c, 0, 64, 85
4, 198240, Note_on_c, 0, 52, 85
4, 198474, Note_on_c, 0, 52, 0
4, 198474, Note_on_c, 0, 64, 0
4, 198600, Note_on_c, 0, 52, 85
4, 198600, Note_on_c, 0, 64, 85
4, 198678, Note_on_c, 0, 64, 0
4, 198678, Note_on_c, 0, 52, 0
4, 198720, Note_on_c, 0, 52, 93
4, 198720, Note_on_c, 0, 64, 93
4, 199320, Note_on_c, 0, 64, 0
4, 199327, Note_on_c, 0, 52, 0
4, 199440, Note_on_c, 0, 64, 81
4, 199440, Note_on_c, 0, 52, 81
4, 199596, Note_on_c, 0, 52, 0
4, 199596, Note_on_c, 0, 64, 0
4, 199680, Note_on_c, 0, 64, 79
4, 199680, Note_on_c, 0, 52, 79
4, 199914, Note_on_c, 0, 52, 0
4, 199914, Note_on_c, 0, 64, 0
4, 200040, Note_on_c, 0, 64, 76
4, 200040, Note_on_c, 0, 52, 76
4, 200118, Note_on_c, 0, 52, 0
4, 200118, Note_on_c, 0, 64, 0
4, 200160, Note_on_c, 0, 62, 75
4, 200160, Note_on_c, 0, 50, 75
4, 200394, Note_on_c, 0, 50, 0
4, 200394, Note_on_c, 0, 62, 0
4, 200520, Note_on_c, 0, 61, 72
4, 200520, Note_on_c, 0, 49, 72
4, 200598, Note_on_c, 0, 49, 0
4, 200598, Note_on_c, 0, 61, 0
4, 200640, Note_on_c, 0, 62, 70
4, 200640, Note_on_c, 0, 50, 70
4, 201000, Note_on_c, 0, 50, 0
4, 201000, Note_on_c, 0, 62, 0
4, 201120, Note_on_c, 0, 50, 66
4, 201240, Note_on_c, 0, 50, 0
4, 201240, Note_on_c, 0, 47, 65
4, 201360, Note_on_c, 0, 47, 0
4, 201360, Note_on_c, 0, 50, 63
4, 201480, Note_on_c, 0, 50, 0
4, 201480, Note_on_c, 0, 47, 61
4, 201600, Note_on_c, 0, 47, 0
4, 201600, Note_on_c, 0, 43, 59
4, 201960, Note_on_c, 0, 43, 0
4, 202080, Note_on_c, 0, 62, 75
4, 202080, Note_on_c, 0, 50, 75
4, 202314, Note_on_c, 0, 50, 0
4, 202314, Note_on_c, 0, 62, 0
4, 202440, Note_on_c, 0, 62, 80
4, 202440, Note_on_c, 0, 50, 80
4, 202518, Note_on_c, 0, 50, 0
4, 202518, Note_on_c, 0, 62, 0
4, 202560, Note_on_c, 0, 50, 86
4, 202560, Note_on_c, 0, 62, 86
4, 203160, Note_on_c, 0, 62, 0
4, 203175, Note_on_c, 0, 50, 0
4, 203280, Note_on_c, 0, 62, 78
4, 203280, Note_on_c, 0, 50, 78
4, 203436, Note_on_c, 0, 50, 0
4, 203436, Note_on_c, 0, 62, 0
4, 203520, Note_on_c, 0, 62, 76
4, 203520, Note_on_c, 0, 50, 76
4, 203754, Note_on_c, 0, 50, 0
4, 203754, Note_on_c, 0, 62, 0
4, 203880, Note_on_c, 0, 62, 73
4, 203880, Note_on_c, 0, 50, 73
4, 203958, Note_on_c, 0, 50, 0
4, 203958, Note_on_c, 0, 62, 0
4, 204000, Note_on_c, 0, 48, 72
4, 204000, Note_on_c, 0, 60, 72
4, 204234, Note_on_c, 0, 60, 0
4, 204234, Note_on_c, 0, 48, 0
4, 204360, Note_on_c, 0, 65, 70
4, 204360, Note_on_c, 0, 53, 70
4, 204438, Note_on_c, 0, 53, 0
4, 204438, Note_on_c, 0, 65, 0
4, 204480, Note_on_c, 0, 64, 69
4, 204480, Note_on_c, 0, 52, 69
4, 204840, Note_on_c, 0, 52, 0
4, 204840, Note_on_c, 0, 64, 0
4, 204960, Note_on_c, 0, 59, 60
4, 205080, Note_on_c, 0, 59, 0
4, 205080, Note_on_c, 0, 56, 59
4, 205200, Note_on_c, 0, 56, 0
4, 205200, Note_on_c, 0, 59, 58
4, 205320, Note_on_c, 0, 59, 0
4, 205320, Note_on_c, 0, 56, 57
4, 205440, Note_on_c, 0, 56, 0
4, 205440, Note_on_c, 0, 52, 55
4, 205800, Note_on_c, 0, 52, 0
4, 205920, Note_on_c, 0, 52, 63
4, 205920, Note_on_c, 0, 59, 63
4, 206154, Note_on_c, 0, 59, 0
4, 206154, Note_on_c, 0, 52, 0
4, 206280, Note_on_c, 0, 59, 66
4, 206280, Note_on_c, 0, 52, 66
4, 206358, Note_on_c, 0, 52, 0
4, 206358, Note_on_c, 0, 59, 0
4, 206400, Note_on_c, 0, 59, 67
4, 206400, Note_on_c, 0, 52, 67
4, 206760, Note_on_c, 0, 52, 0
4, 206760, Note_on_c, 0, 59, 0
4, 206880, Note_on_c, 0, 59, 71
4, 206880, Note_on_c, 0, 52, 71
4, 207114, Note_on_c, 0, 52, 0
4, 207114, Note_on_c, 0, 59, 0
4, 207240, Note_on_c, 0, 52, 73
4, 207240, Note_on_c, 0, 59, 73
4, 207318, Note_on_c, 0, 59, 0
4, 207318, Note_on_c, 0, 52, 0
4, 207360, Note_on_c, 0, 57, 74
4, 207360, Note_on_c, 0, 60, 74
4, 207720, Note_on_c, 0, 60, 0
4, 207720, Note_on_c, 0, 57, 0
4, 207840, Note_on_c, 0, 60, 78
4, 207840, Note_on_c, 0, 57, 78
4, 208074, Note_on_c, 0, 57, 0
4, 208074, Note_on_c, 0, 60, 0
4, 208200, Note_on_c, 0, 60, 82
4, 208200, Note_on_c, 0, 57, 82
4, 208278, Note_on_c, 0, 57, 0
4, 208278, Note_on_c, 0, 60, 0
4, 208320, Note_on_c, 0, 58, 86
4, 208800, Note_on_c, 0, 58, 0
4, 208920, Note_on_c, 0, 57, 83
4, 209040, Note_on_c, 0, 57, 0
4, 209040, Note_on_c, 0, 55, 86
4, 209160, Note_on_c, 0, 55, 0
4, 209160, Note_on_c, 0, 53, 88
4, 209280, Note_on_c, 0, 53, 0
4, 209280, Note_on_c, 0, 52, 90
4, 209400, Note_on_c, 0, 52, 0
4, 209400, Note_on_c, 0, 53, 92
4, 209520, Note_on_c, 0, 53, 0
4, 209520, Note_on_c, 0, 55, 94
4, 209640, Note_on_c, 0, 55, 0
4, 209640, Note_on_c, 0, 53, 96
4, 209760, Note_on_c, 0, 53, 0
4, 209760, Note_on_c, 0, 52, 98
4, 209880, Note_on_c, 0, 52, 0
4, 209880, Note_on_c, 0, 48, 100
4, 210000, Note_on_c, 0, 48, 0
4, 210000, Note_on_c, 0, 50, 102
4, 210120, Note_on_c, 0, 50, 0
4, 210120, Note_on_c, 0, 52, 104
4, 210240, Note_on_c, 0, 52, 0
4, 210240, Note_on_c, 0, 53, 111
4, 210360, Note_on_c, 0, 53, 0
4, 210360, Note_on_c, 0, 52, 109
4, 210480, Note_on_c, 0, 52, 0
4, 210480, Note_on_c, 0, 53, 107
4, 210600, Note_on_c, 0, 53, 0
4, 210600, Note_on_c, 0, 52, 104
4, 210720, Note_on_c, 0, 52, 0
4, 210720, Note_on_c, 0, 53, 101
4, 210840, Note_on_c, 0, 53, 0
4, 210840, Note_on_c, 0, 50, 99
4, 210960, Note_on_c, 0, 50, 0
4, 210960, Note_on_c, 0, 52, 96
4, 211080, Note_on_c, 0, 52, 0
4, 211080, Note_on_c, 0, 53, 94
4, 211200, Note_on_c, 0, 53, 0
4, 211200, Note_on_c, 0, 55, 93
4, 211320, Note_on_c, 0, 55, 0
4, 211320, Note_on_c, 0, 54, 91
4, 211440, Note_on_c, 0, 54, 0
4, 211440, Note_on_c, 0, 55, 90
4, 211560, Note_on_c, 0, 55, 0
4, 211560, Note_on_c, 0, 54, 88
4, 211680, Note_on_c, 0, 54, 0
4, 211680, Note_on_c, 0, 55, 87
4, 211800, Note_on_c, 0, 55, 0
4, 211800, Note_on_c, 0, 43, 86
4, 211920, Note_on_c, 0, 43, 0
4, 211920, Note_on_c, 0, 45, 84
4, 212040, Note_on_c, 0, 45, 0
4, 212040, Note_on_c, 0, 47, 83
4, 212160, Note_on_c, 0, 47, 0
4, 212160, Note_on_c, 0, 48, 82
4, 212352, Note_on_c, 0, 48, 0
4, 214080, Note_on_c, 0, 60, 84
4, 214560, Note_on_c, 0, 60, 0
4, 214560, Note_on_c, 0, 64, 70
4, 214716, Note_on_c, 0, 64, 0
4, 214800, Note_on_c, 0, 62, 72
4, 214956, Note_on_c, 0, 62, 0
4, 215040, Note_on_c, 0, 64, 74
4, 215196, Note_on_c, 0, 64, 0
4, 215280, Note_on_c, 0, 62, 76
4, 215436, Note_on_c, 0, 62, 0
4, 215520, Note_on_c, 0, 64, 78
4, 215676, Note_on_c, 0, 64, 0
4, 215760, Note_on_c, 0, 65, 80
4, 215916, Note_on_c, 0, 65, 0
4, 216000, Note_on_c, 0, 55, 88
4, 216480, Note_on_c, 0, 55, 0
4, 216480, Note_on_c, 0, 55, 79
4, 216636, Note_on_c, 0, 55, 0
4, 216720, Note_on_c, 0, 57, 77
4, 216876, Note_on_c, 0, 57, 0
4, 216960, Note_on_c, 0, 59, 75
4, 217116, Note_on_c, 0, 59, 0
4, 217200, Note_on_c, 0, 55, 74
4, 217356, Note_on_c, 0, 55, 0
4, 217440, Note_on_c, 0, 57, 72
4, 217596, Note_on_c, 0, 57, 0
4, 217680, Note_on_c, 0, 59, 70
4, 217836, Note_on_c, 0, 59, 0
4, 217920, Note_on_c, 0, 60, 87
4, 218400, Note_on_c, 0, 60, 0
4, 218400, Note_on_c, 0, 60, 71
4, 218556, Note_on_c, 0, 60, 0
4, 218640, Note_on_c, 0, 59, 73
4, 218796, Note_on_c, 0, 59, 0
4, 218880, Note_on_c, 0, 60, 76
4, 219036, Note_on_c, 0, 60, 0
4, 219120, Note_on_c, 0, 58, 78
4, 219276, Note_on_c, 0, 58, 0
4, 219360, Note_on_c, 0, 57, 80
4, 219516, Note_on_c, 0, 57, 0
4, 219600, Note_on_c, 0, 53, 83
4, 219756, Note_on_c, 0, 53, 0
4, 219840, Note_on_c, 0, 55, 94
4, 220320, Note_on_c, 0, 55, 0
4, 220320, Note_on_c, 0, 55, 84
4, 220476, Note_on_c, 0, 55, 0
4, 220560, Note_on_c, 0, 53, 83
4, 220716, Note_on_c, 0, 53, 0
4, 220800, Note_on_c, 0, 52, 81
4, 220956, Note_on_c, 0, 52, 0
4, 221040, Note_on_c, 0, 50, 80
4, 221196, Note_on_c, 0, 50, 0
4, 221280, Note_on_c, 0, 52, 79
4, 221436, Note_on_c, 0, 52, 0
4, 221520, Note_on_c, 0, 57, 78
4, 221676, Note_on_c, 0, 57, 0
4, 221760, Note_on_c, 0, 50, 77
4, 221916, Note_on_c, 0, 50, 0
4, 222000, Note_on_c, 0, 52, 76
4, 222156, Note_on_c, 0, 52, 0
4, 222240, Note_on_c, 0, 53, 74
4, 222396, Note_on_c, 0, 53, 0
4, 222480, Note_on_c, 0, 57, 73
4, 222636, Note_on_c, 0, 57, 0
4, 222720, Note_on_c, 0, 55, 72
4, 222876, Note_on_c, 0, 55, 0
4, 222960, Note_on_c, 0, 54, 71
4, 223116, Note_on_c, 0, 54, 0
4, 223200, Note_on_c, 0, 55, 70
4, 223356, Note_on_c, 0, 55, 0
4, 223440, Note_on_c, 0, 43, 69
4, 223596, Note_on_c, 0, 43, 0
4, 223680, Note_on_c, 0, 48, 67
4, 223920, Note_on_c, 0, 48, 0
4, 225600, Note_on_c, 0, 64, 111
4, 226320, Note_on_c, 0, 64, 0
4, 226320, Note_on_c, 0, 62, 103
4, 226560, Note_on_c, 0, 62, 0
4, 226560, Note_on_c, 0, 61, 100
4, 226716, Note_on_c, 0, 61, 0
4, 226800, Note_on_c, 0, 58, 98
4, 226956, Note_on_c, 0, 58, 0
4, 227040, Note_on_c, 0, 57, 95
4, 227196, Note_on_c, 0, 57, 0
4, 227280, Note_on_c, 0, 58, 92
4, 227436, Note_on_c, 0, 58, 0
4, 227520, Note_on_c, 0, 57, 86
4, 227598, Note_on_c, 0, 57, 0
4, 227640, Note_on_c, 0, 45, 93
4, 227760, Note_on_c, 0, 45, 0
4, 227760, Note_on_c, 0, 47, 92
4, 227880, Note_on_c, 0, 47, 0
4, 227880, Note_on_c, 0, 49, 90
4, 228000, Note_on_c, 0, 49, 0
4, 228000, Note_on_c, 0, 50, 89
4, 228120, Note_on_c, 0, 50, 0
4, 228120, Note_on_c, 0, 52, 88
4, 228240, Note_on_c, 0, 52, 0
4, 228240, Note_on_c, 0, 53, 86
4, 228360, Note_on_c, 0, 53, 0
4, 228360, Note_on_c, 0, 55, 85
4, 228480, Note_on_c, 0, 55, 0
4, 228480, Note_on_c, 0, 57, 84
4, 228600, Note_on_c, 0, 57, 0
4, 228600, Note_on_c, 0, 56, 82
4, 228720, Note_on_c, 0, 56, 0
4, 228720, Note_on_c, 0, 57, 81
4, 228840, Note_on_c, 0, 57, 0
4, 228840, Note_on_c, 0, 58, 80
4, 228960, Note_on_c, 0, 58, 0
4, 228960, Note_on_c, 0, 57, 78
4, 229080, Note_on_c, 0, 57, 0
4, 229080, Note_on_c, 0, 55, 77
4, 229200, Note_on_c, 0, 55, 0
4, 229200, Note_on_c, 0, 53, 76
4, 229320, Note_on_c, 0, 53, 0
4, 229320, Note_on_c, 0, 52, 74
4, 229440, Note_on_c, 0, 52, 0
4, 229440, Note_on_c, 0, 50, 73
4, 229596, Note_on_c, 0, 50, 0
4, 229680, Note_on_c, 0, 62, 111
4, 230160, Note_on_c, 0, 62, 0
4, 230160, Note_on_c, 0, 60, 105
4, 230400, Note_on_c, 0, 60, 0
4, 230400, Note_on_c, 0, 59, 102
4, 230556, Note_on_c, 0, 59, 0
4, 230640, Note_on_c, 0, 56, 99
4, 230796, Note_on_c, 0, 56, 0
4, 230880, Note_on_c, 0, 55, 96
4, 231036, Note_on_c, 0, 55, 0
4, 231120, Note_on_c, 0, 56, 93
4, 231276, Note_on_c, 0, 56, 0
4, 231360, Note_on_c, 0, 55, 90
4, 231438, Note_on_c, 0, 55, 0
4, 231480, Note_on_c, 0, 43, 93
4, 231600, Note_on_c, 0, 43, 0
4, 231600, Note_on_c, 0, 45, 92
4, 231720, Note_on_c, 0, 45, 0
4, 231720, Note_on_c, 0, 47, 91
4, 231840, Note_on_c, 0, 47, 0
4, 231840, Note_on_c, 0, 48, 90
4, 231960, Note_on_c, 0, 48, 0
4, 231960, Note_on_c, 0, 50, 88
4, 232080, Note_on_c, 0, 50, 0
4, 232080, Note_on_c, 0, 52, 87
4, 232200, Note_on_c, 0, 52, 0
4, 232200, Note_on_c, 0, 54, 86
4, 232320, Note_on_c, 0, 54, 0
4, 232320, Note_on_c, 0, 55, 85
4, 232440, Note_on_c, 0, 55, 0
4, 232440, Note_on_c, 0, 54, 83
4, 232560, Note_on_c, 0, 54, 0
4, 232560, Note_on_c, 0, 55, 82
4, 232680, Note_on_c, 0, 55, 0
4, 232680, Note_on_c, 0, 57, 81
4, 232800, Note_on_c, 0, 57, 0
4, 232800, Note_on_c, 0, 55, 80
4, 232920, Note_on_c, 0, 55, 0
4, 232920, Note_on_c, 0, 53, 79
4, 233040, Note_on_c, 0, 53, 0
4, 233040, Note_on_c, 0, 52, 77
4, 233160, Note_on_c, 0, 52, 0
4, 233160, Note_on_c, 0, 50, 76
4, 233280, Note_on_c, 0, 50, 0
4, 233280, Note_on_c, 0, 48, 75
4, 233436, Note_on_c, 0, 48, 0
4, 233520, Note_on_c, 0, 60, 108
4, 234000, Note_on_c, 0, 60, 0
4, 234000, Note_on_c, 0, 59, 80
4, 234240, Note_on_c, 0, 59, 0
4, 234240, Note_on_c, 0, 57, 80
4, 234396, Note_on_c, 0, 57, 0
4, 234480, Note_on_c, 0, 55, 80
4, 234636, Note_on_c, 0, 55, 0
4, 234720, Note_on_c, 0, 53, 80
4, 234876, Note_on_c, 0, 53, 0
4, 234960, Note_on_c, 0, 52, 80
4, 235116, Note_on_c, 0, 52, 0
4, 235200, Note_on_c, 0, 48, 80
4, 235356, Note_on_c, 0, 48, 0
4, 235440, Note_on_c, 0, 60, 106
4, 235920, Note_on_c, 0, 60, 0
4, 235920, Note_on_c, 0, 62, 91
4, 236160, Note_on_c, 0, 62, 0
4, 236160, Note_on_c, 0, 64, 94
4, 236316, Note_on_c, 0, 64, 0
4, 236400, Note_on_c, 0, 63, 97
4, 236556, Note_on_c, 0, 63, 0
4, 236640, Note_on_c, 0, 64, 100
4, 236796, Note_on_c, 0, 64, 0
4, 236880, Note_on_c, 0, 64, 103
4, 237036, Note_on_c, 0, 64, 0
4, 237120, Note_on_c, 0, 65, 108
4, 237276, Note_on_c, 0, 65, 0
4, 237360, Note_on_c, 0, 65, 108
4, 237516, Note_on_c, 0, 65, 0
4, 237600, Note_on_c, 0, 69, 109
4, 237756, Note_on_c, 0, 69, 0
4, 237840, Note_on_c, 0, 69, 110
4, 237996, Note_on_c, 0, 69, 0
4, 238080, Note_on_c, 0, 67, 111
4, 238236, Note_on_c, 0, 67, 0
4, 238320, Note_on_c, 0, 67, 112
4, 238476, Note_on_c, 0, 67, 0
4, 238560, Note_on_c, 0, 55, 112
4, 238716, Note_on_c, 0, 55, 0
4, 238800, Note_on_c, 0, 55, 113
4, 238956, Note_on_c, 0, 55, 0
4, 239040, Note_on_c, 0, 60, 105
4, 239280, Note_on_c, 0, 60, 0
4, 240960, Note_on_c, 0, 64, 92
4, 241200, Note_on_c, 0, 64, 0
4, 241440, Note_on_c, 0, 64, 88
4, 241560, Note_on_c, 0, 64, 0
4, 241680, Note_on_c, 0, 63, 88
4, 241800, Note_on_c, 0, 63, 0
4, 241920, Note_on_c, 0, 64, 83
4, 242040, Note_on_c, 0, 64, 0
4, 242160, Note_on_c, 0, 63, 82
4, 242280, Note_on_c, 0, 63, 0
4, 242400, Note_on_c, 0, 64, 81
4, 242520, Note_on_c, 0, 64, 0
4, 242640, Note_on_c, 0, 63, 79
4, 242760, Note_on_c, 0, 63, 0
4, 242880, Note_on_c, 0, 64, 78
4, 243000, Note_on_c, 0, 64, 0
4, 243120, Note_on_c, 0, 61, 76
4, 243240, Note_on_c, 0, 61, 0
4, 243360, Note_on_c, 0, 62, 75
4, 243480, Note_on_c, 0, 62, 0
4, 243600, Note_on_c, 0, 59, 74
4, 243720, Note_on_c, 0, 59, 0
4, 243840, Note_on_c, 0, 60, 72
4, 243960, Note_on_c, 0, 60, 0
4, 244080, Note_on_c, 0, 59, 71
4, 244200, Note_on_c, 0, 59, 0
4, 244320, Note_on_c, 0, 60, 70
4, 244440, Note_on_c, 0, 60, 0
4, 244560, Note_on_c, 0, 61, 68
4, 244680, Note_on_c, 0, 61, 0
4, 244800, Note_on_c, 0, 62, 87
4, 245040, Note_on_c, 0, 62, 0
4, 245280, Note_on_c, 0, 62, 82
4, 245400, Note_on_c, 0, 62, 0
4, 245520, Note_on_c, 0, 61, 81
4, 245640, Note_on_c, 0, 61, 0
4, 245760, Note_on_c, 0, 62, 80
4, 245880, Note_on_c, 0, 62, 0
4, 246000, Note_on_c, 0, 61, 79
4, 246120, Note_on_c, 0, 61, 0
4, 246240, Note_on_c, 0, 62, 78
4, 246360, Note_on_c, 0, 62, 0
4, 246480, Note_on_c, 0, 61, 77
4, 246600, Note_on_c, 0, 61, 0
4, 246720, Note_on_c, 0, 62, 76
4, 246840, Note_on_c, 0, 62, 0
4, 246960, Note_on_c, 0, 59, 75
4, 247080, Note_on_c, 0, 59, 0
4, 247200, Note_on_c, 0, 60, 74
4, 247320, Note_on_c, 0, 60, 0
4, 247440, Note_on_c, 0, 64, 73
4, 247560, Note_on_c, 0, 64, 0
4, 247680, Note_on_c, 0, 55, 72
4, 247800, Note_on_c, 0, 55, 0
4, 248400, Note_on_c, 0, 62, 69
4, 248520, Note_on_c, 0, 62, 0
4, 248640, Note_on_c, 0, 60, 93
4, 248796, Note_on_c, 0, 60, 0
4, 248880, Note_on_c, 0, 48, 88
4, 249036, Note_on_c, 0, 48, 0
4, 249120, Note_on_c, 0, 60, 89
4, 249276, Note_on_c, 0, 60, 0
4, 249360, Note_on_c, 0, 59, 91
4, 249516, Note_on_c, 0, 59, 0
4, 249600, Note_on_c, 0, 57, 93
4, 249756, Note_on_c, 0, 57, 0
4, 249840, Note_on_c, 0, 55, 95
4, 249996, Note_on_c, 0, 55, 0
4, 250080, Note_on_c, 0, 53, 97
4, 250236, Note_on_c, 0, 53, 0
4, 250320, Note_on_c, 0, 52, 98
4, 250476, Note_on_c, 0, 52, 0
4, 250560, Note_on_c, 0, 60, 106
4, 250716, Note_on_c, 0, 60, 0
4, 250800, Note_on_c, 0, 48, 102
4, 250956, Note_on_c, 0, 48, 0
4, 251040, Note_on_c, 0, 60, 104
4, 251196, Note_on_c, 0, 60, 0
4, 251280, Note_on_c, 0, 62, 106
4, 251436, Note_on_c, 0, 62, 0
4, 251520, Note_on_c, 0, 64, 107
4, 251676, Note_on_c, 0, 64, 0
4, 251760, Note_on_c, 0, 63, 109
4, 251916, Note_on_c, 0, 63, 0
4, 252000, Note_on_c, 0, 64, 111
4, 252156, Note_on_c, 0, 64, 0
4, 252240, Note_on_c, 0, 64, 113
4, 252396, Note_on_c, 0, 64, 0
4, 252480, Note_on_c, 0, 65, 116
4, 252636, Note_on_c, 0, 65, 0
4, 252720, Note_on_c, 0, 65, 108
4, 252876, Note_on_c, 0, 65, 0
4, 252960, Note_on_c, 0, 69, 105
4, 253116, Note_on_c, 0, 69, 0
4, 253200, Note_on_c, 0, 69, 102
4, 253356, Note_on_c, 0, 69, 0
4, 253440, Note_on_c, 0, 67, 99
4, 253596, Note_on_c, 0, 67, 0
4, 253680, Note_on_c, 0, 67, 97
4, 253836, Note_on_c, 0, 67, 0
4, 253920, Note_on_c, 0, 55, 94
4, 254076, Note_on_c, 0, 55, 0
4, 254160, Note_on_c, 0, 55, 91
4, 254316, Note_on_c, 0, 55, 0
4, 254400, Note_on_c, 0, 60, 88
4, 254556, Note_on_c, 0, 60, 0
4, 254640, Note_on_c, 0, 48, 86
4, 254796, Note_on_c, 0, 48, 0
4, 254880, Note_on_c, 0, 60, 88
4, 255036, Note_on_c, 0, 60, 0
4, 255120, Note_on_c, 0, 62, 90
4, 255276, Note_on_c, 0, 62, 0
4, 255360, Note_on_c, 0, 64, 92
4, 255516, Note_on_c, 0, 64, 0
4, 255600, Note_on_c, 0, 63, 95
4, 255756, Note_on_c, 0, 63, 0
4, 255840, Note_on_c, 0, 64, 97
4, 255996, Note_on_c, 0, 64, 0
4, 256080, Note_on_c, 0, 64, 99
4, 256236, Note_on_c, 0, 64, 0
4, 256320, Note_on_c, 0, 65, 101
4, 256476, Note_on_c, 0, 65, 0
4, 256560, Note_on_c, 0, 64, 103
4, 256716, Note_on_c, 0, 64, 0
4, 256800, Note_on_c, 0, 65, 105
4, 256956, Note_on_c, 0, 65, 0
4, 257040, Note_on_c, 0, 64, 107
4, 257196, Note_on_c, 0, 64, 0
4, 257280, Note_on_c, 0, 65, 109
4, 257436, Note_on_c, 0, 65, 0
4, 257520, Note_on_c, 0, 64, 112
4, 257676, Note_on_c, 0, 64, 0
4, 257760, Note_on_c, 0, 65, 114
4, 257916, Note_on_c, 0, 65, 0
4, 258000, Note_on_c, 0, 64, 116
4, 258156, Note_on_c, 0, 64, 0
4, 258240, Control_c, 0, 64, 127
4, 258240, Note_on_c, 0, 65, 118
4, 258396, Note_on_c, 0, 65, 0
4, 262080, Note_on_c, 0, 41, 110
4, 262080, Note_on_c, 0, 29, 110
4, 262440, Note_on_c, 0, 29, 0
4, 262440, Note_on_c, 0, 41, 0
4, 264000, Control_c, 0, 64, 0
4, 264000, Note_on_c, 0, 50, 83
4, 264000, Note_on_c, 0, 38, 83
4, 264480, Note_on_c, 0, 38, 0
4, 264480, Note_on_c, 0, 50, 0
4, 264480, Note_on_c, 0, 46, 88
4, 264480, Note_on_c, 0, 34, 88
4, 264960, Note_on_c, 0, 34, 0
4, 264960, Note_on_c, 0, 46, 0
4, 264960, Note_on_c, 0, 45, 94
4, 264960, Note_on_c, 0, 33, 94
4, 266400, Note_on_c, 0, 33, 0
4, 266400, Note_on_c, 0, 45, 0
4, 266400, Note_on_c, 0, 48, 90
4, 266880, Note_on_c, 0, 48, 0
4, 266880, Note_on_c, 0, 48, 92
4, 267600, Note_on_c, 0, 48, 0
4, 267600, Note_on_c, 0, 46, 92
4, 267840, Note_on_c, 0, 46, 0
4, 267840, Note_on_c, 0, 48, 97
4, 268320, Note_on_c, 0, 48, 0
4, 268320, Note_on_c, 0, 49, 88
4, 268800, Note_on_c, 0, 49, 0
4, 268800, Note_on_c, 0, 50, 83
4, 269280, Note_on_c, 0, 50, 0
4, 269280, Note_on_c, 0, 46, 84
4, 269760, Note_on_c, 0, 46, 0
4, 269760, Note_on_c, 0, 48, 79
4, 270240, Note_on_c, 0, 48, 0
4, 270240, Note_on_c, 0, 49, 75
4, 270720, Note_on_c, 0, 49, 0
4, 270720, Note_on_c, 0, 50, 71
4, 270960, Note_on_c, 0, 50, 0
4, 270960, Note_on_c, 0, 41, 69
4, 271200, Note_on_c, 0, 41, 0
4, 271200, Note_on_c, 0, 43, 67
4, 271680, Note_on_c, 0, 43, 0
4, 271680, Note_on_c, 0, 31, 57
4, 271680, Note_on_c, 0, 43, 57
4, 272160, Note_on_c, 0, 43, 0
4, 272160, Note_on_c, 0, 31, 0
4, 272160, Note_on_c, 0, 36, 60
4, 272400, Note_on_c, 0, 36, 0
4, 272640, Note_on_c, 0, 36, 66
4, 272880, Note_on_c, 0, 36, 0
4, 273120, Note_on_c, 0, 29, 71
4, 273360, Note_on_c, 0, 29, 0
4, 273600, Note_on_c, 0, 31, 77
4, 273840, Note_on_c, 0, 31, 0
4, 274080, Note_on_c, 0, 31, 72
4, 274200, Note_on_c, 0, 31, 0
4, 274320, Note_on_c, 0, 33, 69
4, 274440, Note_on_c, 0, 33, 0
4, 274560, Note_on_c, 0, 35, 66
4, 274680, Note_on_c, 0, 35, 0
4, 274800, Note_on_c, 0, 31, 63
4, 274920, Note_on_c, 0, 31, 0
4, 275040, Note_on_c, 0, 36, 60
4, 275280, Note_on_c, 0, 36, 0
4, 275520, Note_on_c, 0, 36, 65
4, 275760, Note_on_c, 0, 36, 0
4, 276000, Note_on_c, 0, 29, 70
4, 276240, Note_on_c, 0, 29, 0
4, 276480, Note_on_c, 0, 31, 77
4, 276600, Note_on_c, 0, 31, 0
4, 276720, Note_on_c, 0, 31, 76
4, 276840, Note_on_c, 0, 31, 0
4, 276960, Note_on_c, 0, 31, 74
4, 277080, Note_on_c, 0, 31, 0
4, 277200, Note_on_c, 0, 32, 73
4, 277320, Note_on_c, 0, 32, 0
4, 277440, Note_on_c, 0, 33, 72
4, 277560, Note_on_c, 0, 33, 0
4, 277680, Note_on_c, 0, 31, 70
4, 277800, Note_on_c, 0, 31, 0
4, 277920, Note_on_c, 0, 29, 69
4, 278040, Note_on_c, 0, 29, 0
4, 278160, Note_on_c, 0, 29, 67
4, 278280, Note_on_c, 0, 29, 0
4, 278400, Note_on_c, 0, 31, 66
4, 278520, Note_on_c, 0, 31, 0
4, 278640, Note_on_c, 0, 31, 65
4, 278760, Note_on_c, 0, 31, 0
4, 278880, Note_on_c, 0, 31, 63
4, 279000, Note_on_c, 0, 31, 0
4, 279120, Note_on_c, 0, 31, 62
4, 279240, Note_on_c, 0, 31, 0
4, 279360, Note_on_c, 0, 36, 60
4, 279840, Note_on_c, 0, 36, 0
4, 280920, Note_on_c, 0, 48, 77
4, 281040, Note_on_c, 0, 48, 0
4, 281040, Note_on_c, 0, 60, 78
4, 281118, Note_on_c, 0, 60, 0
4, 281160, Note_on_c, 0, 60, 79
4, 281238, Note_on_c, 0, 60, 0
4, 281400, Note_on_c, 0, 48, 81
4, 281520, Note_on_c, 0, 48, 0
4, 281520, Note_on_c, 0, 60, 82
4, 281598, Note_on_c, 0, 60, 0
4, 281640, Note_on_c, 0, 60, 83
4, 281718, Note_on_c, 0, 60, 0
4, 281880, Note_on_c, 0, 48, 85
4, 282000, Note_on_c, 0, 48, 0
4, 282000, Note_on_c, 0, 60, 85
4, 282078, Note_on_c, 0, 60, 0
4, 282120, Note_on_c, 0, 60, 86
4, 282198, Note_on_c, 0, 60, 0
4, 282240, Note_on_c, 0, 48, 89
4, 282360, Note_on_c, 0, 48, 0
4, 282360, Note_on_c, 0, 60, 88
4, 282480, Note_on_c, 0, 60, 0
4, 282480, Note_on_c, 0, 48, 86
4, 282600, Note_on_c, 0, 48, 0
4, 282600, Note_on_c, 0, 60, 85
4, 282720, Note_on_c, 0, 60, 0
4, 282720, Note_on_c, 0, 48, 84
4, 282840, Note_on_c, 0, 48, 0
4, 282840, Note_on_c, 0, 60, 83
4, 282960, Note_on_c, 0, 60, 0
4, 282960, Note_on_c, 0, 48, 81
4, 283080, Note_on_c, 0, 48, 0
4, 283080, Note_on_c, 0, 60, 80
4, 283200, Note_on_c, 0, 60, 0
4, 283200, Note_on_c, 0, 48, 79
4, 283320, Note_on_c, 0, 48, 0
4, 283320, Note_on_c, 0, 60, 77
4, 283440, Note_on_c, 0, 60, 0
4, 283440, Note_on_c, 0, 48, 76
4, 283560, Note_on_c, 0, 48, 0
4, 283560, Note_on_c, 0, 60, 75
4, 283680, Note_on_c, 0, 60, 0
4, 283800, Note_on_c, 0, 48, 75
4, 283920, Note_on_c, 0, 48, 0
4, 283920, Note_on_c, 0, 60, 76
4, 283998, Note_on_c, 0, 60, 0
4, 284040, Note_on_c, 0, 60, 77
4, 284118, Note_on_c, 0, 60, 0
4, 284280, Note_on_c, 0, 48, 79
4, 284400, Note_on_c, 0, 48, 0
4, 284400, Note_on_c, 0, 60, 80
4, 284478, Note_on_c, 0, 60, 0
4, 284520, Note_on_c, 0, 60, 81
4, 284598, Note_on_c, 0, 60, 0
4, 284760, Note_on_c, 0, 48, 83
4, 284880, Note_on_c, 0, 48, 0
4, 284880, Note_on_c, 0, 60, 84
4, 284958, Note_on_c, 0, 60, 0
4, 285000, Note_on_c, 0, 60, 85
4, 285078, Note_on_c, 0, 60, 0
4, 285120, Note_on_c, 0, 48, 87
4, 285240, Note_on_c, 0, 48, 0
4, 285240, Note_on_c, 0, 60, 86
4, 285360, Note_on_c, 0, 60, 0
4, 285360, Note_on_c, 0, 48, 84
4, 285480, Note_on_c, 0, 48, 0
4, 285480, Note_on_c, 0, 60, 83
4, 285600, Note_on_c, 0, 60, 0
4, 285600, Note_on_c, 0, 48, 81
4, 285720, Note_on_c, 0, 48, 0
4, 285720, Note_on_c, 0, 60, 80
4, 285840, Note_on_c, 0, 60, 0
4, 285840, Note_on_c, 0, 48, 79
4, 285960, Note_on_c, 0, 48, 0
4, 285960, Note_on_c, 0, 60, 77
4, 286080, Note_on_c, 0, 60, 0
4, 286080, Note_on_c, 0, 48, 76
4, 286200, Note_on_c, 0, 48, 0
4, 286200, Note_on_c, 0, 60, 74
4, 286320, Note_on_c, 0, 60, 0
4, 286320, Note_on_c, 0, 48, 73
4, 286440, Note_on_c, 0, 48, 0
4, 286440, Note_on_c, 0, 60, 71
4, 286560, Note_on_c, 0, 60, 0
4, 286560, Note_on_c, 0, 48, 70
4, 286680, Note_on_c, 0, 48, 0
4, 286680, Note_on_c, 0, 60, 69
4, 286800, Note_on_c, 0, 60, 0
4, 286800, Note_on_c, 0, 59, 70
4, 286920, Note_on_c, 0, 59, 0
4, 286920, Note_on_c, 0, 60, 71
4, 287040, Note_on_c, 0, 60, 0
4, 287040, Note_on_c, 0, 57, 73
4, 287160, Note_on_c, 0, 57, 0
4, 287160, Note_on_c, 0, 60, 74
4, 287280, Note_on_c, 0, 60, 0
4, 287280, Note_on_c, 0, 55, 75
4, 287400, Note_on_c, 0, 55, 0
4, 287400, Note_on_c, 0, 59, 76
4, 287520, Note_on_c, 0, 59, 0
4, 287520, Note_on_c, 0, 53, 77
4, 287640, Note_on_c, 0, 53, 0
4, 287640, Note_on_c, 0, 57, 78
4, 287760, Note_on_c, 0, 57, 0
4, 287760, Note_on_c, 0, 52, 79
4, 287880, Note_on_c, 0, 52, 0
4, 287880, Note_on_c, 0, 55, 81
4, 288000, Note_on_c, 0, 55, 0
4, 288000, Note_on_c, 0, 48, 82
4, 288120, Note_on_c, 0, 48, 0
4, 288120, Note_on_c, 0, 60, 83
4, 288240, Note_on_c, 0, 60, 0
4, 288240, Note_on_c, 0, 59, 84
4, 288360, Note_on_c, 0, 59, 0
4, 288360, Note_on_c, 0, 60, 85
4, 288480, Note_on_c, 0, 60, 0
4, 288480, Note_on_c, 0, 48, 86
4, 288600, Note_on_c, 0, 48, 0
4, 288600, Note_on_c, 0, 60, 87
4, 288720, Note_on_c, 0, 60, 0
4, 288720, Note_on_c, 0, 45, 89
4, 288840, Note_on_c, 0, 45, 0
4, 288840, Note_on_c, 0, 57, 90
4, 288960, Note_on_c, 0, 57, 0
4, 288960, Note_on_c, 0, 40, 91
4, 289080, Note_on_c, 0, 40, 0
4, 289080, Note_on_c, 0, 52, 92
4, 289200, Note_on_c, 0, 52, 0
4, 289200, Note_on_c, 0, 40, 93
4, 289320, Note_on_c, 0, 40, 0
4, 289320, Note_on_c, 0, 52, 94
4, 289440, Note_on_c, 0, 52, 0
4, 289440, Note_on_c, 0, 41, 95
4, 289560, Note_on_c, 0, 41, 0
4, 289560, Note_on_c, 0, 53, 94
4, 289680, Note_on_c, 0, 53, 0
4, 289680, Note_on_c, 0, 38, 92
4, 289800, Note_on_c, 0, 38, 0
4, 289800, Note_on_c, 0, 50, 91
4, 289920, Note_on_c, 0, 50, 0
4, 289920, Note_on_c, 0, 43, 90
4, 290040, Note_on_c, 0, 43, 0
4, 290040, Note_on_c, 0, 55, 89
4, 290160, Note_on_c, 0, 55, 0
4, 290160, Note_on_c, 0, 54, 88
4, 290280, Note_on_c, 0, 54, 0
4, 290280, Note_on_c, 0, 55, 87
4, 290400, Note_on_c, 0, 55, 0
4, 290400, Note_on_c, 0, 31, 86
4, 290520, Note_on_c, 0, 31, 0
4, 290520, Note_on_c, 0, 43, 84
4, 290640, Note_on_c, 0, 43, 0
4, 290640, Note_on_c, 0, 42, 83
4, 290760, Note_on_c, 0, 42, 0
4, 290760, Note_on_c, 0, 43, 82
4, 290880, Note_on_c, 0, 43, 0
4, 290880, Note_on_c, 0, 36, 81
4, 291000, Note_on_c, 0, 36, 0
4, 291000, Note_on_c, 0, 48, 80
4, 291120, Note_on_c, 0, 48, 0
4, 291120, Note_on_c, 0, 50, 81
4, 291240, Note_on_c, 0, 50, 0
4, 291240, Note_on_c, 0, 52, 82
4, 291360, Note_on_c, 0, 52, 0
4, 291360, Note_on_c, 0, 53, 83
4, 291480, Note_on_c, 0, 53, 0
4, 291480, Note_on_c, 0, 55, 84
4, 291600, Note_on_c, 0, 55, 0
4, 291600, Note_on_c, 0, 57, 85
4, 291720, Note_on_c, 0, 57, 0
4, 291720, Note_on_c, 0, 59, 86
4, 291840, Note_on_c, 0, 59, 0
4, 291840, Note_on_c, 0, 60, 87
4, 291960, Note_on_c, 0, 60, 0
4, 291960, Note_on_c, 0, 62, 88
4, 292080, Note_on_c, 0, 62, 0
4, 292080, Note_on_c, 0, 64, 89
4, 292200, Note_on_c, 0, 64, 0
4, 292200, Note_on_c, 0, 65, 90
4, 292320, Note_on_c, 0, 65, 0
4, 292320, Note_on_c, 0, 67, 90
4, 292800, Note_on_c, 0, 67, 0
4, 292800, Note_on_c, 0, 67, 94
4, 293280, Note_on_c, 0, 67, 0
4, 293280, Note_on_c, 0, 67, 99
4, 293760, Note_on_c, 0, 67, 0
4, 293760, Note_on_c, 0, 67, 103
4, 294480, Note_on_c, 0, 67, 0
4, 294480, Note_on_c, 0, 65, 89
4, 294720, Note_on_c, 0, 65, 0
4, 294720, Note_on_c, 0, 64, 86
4, 294960, Note_on_c, 0, 64, 0
4, 294960, Note_on_c, 0, 64, 83
4, 295200, Note_on_c, 0, 64, 0
4, 295200, Note_on_c, 0, 65, 86
4, 295680, Note_on_c, 0, 65, 0
4, 295680, Note_on_c, 0, 65, 89
4, 296160, Note_on_c, 0, 65, 0
4, 296160, Note_on_c, 0, 65, 92
4, 296640, Note_on_c, 0, 65, 0
4, 296640, Note_on_c, 0, 65, 97
4, 297360, Note_on_c, 0, 65, 0
4, 297360, Note_on_c, 0, 64, 91
4, 297600, Note_on_c, 0, 64, 0
4, 297600, Note_on_c, 0, 62, 86
4, 297840, Note_on_c, 0, 62, 0
4, 297840, Note_on_c, 0, 63, 82
4, 298080, Note_on_c, 0, 63, 0
4, 298080, Note_on_c, 0, 64, 84
4, 298560, Note_on_c, 0, 64, 0
4, 298560, Note_on_c, 0, 65, 89
4, 298800, Note_on_c, 0, 65, 0
4, 298800, Note_on_c, 0, 64, 91
4, 299040, Note_on_c, 0, 64, 0
4, 299040, Note_on_c, 0, 62, 93
4, 299280, Note_on_c, 0, 62, 0
4, 299280, Note_on_c, 0, 60, 95
4, 299520, Note_on_c, 0, 60, 0
4, 299520, Note_on_c, 0, 64, 108
4, 300240, Note_on_c, 0, 64, 0
4, 300240, Note_on_c, 0, 65, 113
4, 300480, Note_on_c, 0, 65, 0
4, 300480, Note_on_c, 0, 67, 115
4, 300720, Note_on_c, 0, 67, 0
4, 300720, Note_on_c, 0, 48, 112
4, 300800, Note_on_c, 0, 48, 0
4, 300800, Note_on_c, 0, 50, 111
4, 300880, Note_on_c, 0, 50, 0
4, 300880, Note_on_c, 0, 52, 111
4, 300960, Note_on_c, 0, 52, 0
4, 300960, Note_on_c, 0, 53, 110
4, 301040, Note_on_c, 0, 53, 0
4, 301040, Note_on_c, 0, 57, 108
4, 301120, Note_on_c, 0, 57, 0
4, 301120, Note_on_c, 0, 62, 108
4, 301200, Note_on_c, 0, 62, 0
4, 301200, Note_on_c, 0, 53, 107
4, 301280, Note_on_c, 0, 53, 0
4, 301280, Note_on_c, 0, 57, 106
4, 301360, Note_on_c, 0, 57, 0
4, 301360, Note_on_c, 0, 62, 106
4, 301440, Note_on_c, 0, 62, 0
4, 301440, Note_on_c, 0, 55, 105
4, 301520, Note_on_c, 0, 55, 0
4, 301520, Note_on_c, 0, 60, 104
4, 301600, Note_on_c, 0, 60, 0
4, 301600, Note_on_c, 0, 64, 104
4, 301680, Note_on_c, 0, 64, 0
4, 301680, Note_on_c, 0, 55, 103
4, 301760, Note_on_c, 0, 55, 0
4, 301760, Note_on_c, 0, 60, 102
4, 301840, Note_on_c, 0, 60, 0
4, 301840, Note_on_c, 0, 64, 102
4, 301920, Note_on_c, 0, 64, 0
4, 301920, Note_on_c, 0, 43, 101
4, 302000, Note_on_c, 0, 43, 0
4, 302000, Note_on_c, 0, 47, 101
4, 302080, Note_on_c, 0, 47, 0
4, 302080, Note_on_c, 0, 50, 100
4, 302160, Note_on_c, 0, 50, 0
4, 302160, Note_on_c, 0, 55, 99
4, 302240, Note_on_c, 0, 55, 0
4, 302240, Note_on_c, 0, 57, 99
4, 302320, Note_on_c, 0, 57, 0
4, 302320, Note_on_c, 0, 59, 98
4, 302400, Note_on_c, 0, 59, 0
4, 302400, Note_on_c, 0, 48, 97
4, 302400, Note_on_c, 0, 60, 97
4, 302556, Note_on_c, 0, 60, 0
4, 302556, Note_on_c, 0, 48, 0
4, 302640, Note_on_c, 0, 59, 100
4, 302640, Note_on_c, 0, 47, 100
4, 302796, Note_on_c, 0, 47, 0
4, 302796, Note_on_c, 0, 59, 0
4, 302880, Note_on_c, 0, 57, 101
4, 302880, Note_on_c, 0, 45, 101
4, 303036, Note_on_c, 0, 45, 0
4, 303036, Note_on_c, 0, 57, 0
4, 303120, Note_on_c, 0, 55, 102
4, 303120, Note_on_c, 0, 43, 102
4, 303276, Note_on_c, 0, 43, 0
4, 303276, Note_on_c, 0, 55, 0
4, 303360, Note_on_c, 0, 41, 103
4, 303360, Note_on_c, 0, 53, 103
4, 303516, Note_on_c, 0, 53, 0
4, 303516, Note_on_c, 0, 41, 0
4, 303600, Note_on_c, 0, 52, 104
4, 303600, Note_on_c, 0, 40, 104
4, 303756, Note_on_c, 0, 40, 0
4, 303756, Note_on_c, 0, 52, 0
4, 303840, Note_on_c, 0, 41, 105
4, 303840, Note_on_c, 0, 53, 105
4, 303996, Note_on_c, 0, 53, 0
4, 303996, Note_on_c, 0, 41, 0
4, 304080, Note_on_c, 0, 52, 106
4, 304080, Note_on_c, 0, 40, 106
4, 304236, Note_on_c, 0, 40, 0
4, 304236, Note_on_c, 0, 52, 0
4, 304320, Note_on_c, 0, 41, 107
4, 304320, Note_on_c, 0, 53, 107
4, 304476, Note_on_c, 0, 53, 0
4, 304476, Note_on_c, 0, 41, 0
4, 304560, Note_on_c, 0, 50, 108
4, 304560, Note_on_c, 0, 38, 108
4, 304716, Note_on_c, 0, 38, 0
4, 304716, Note_on_c, 0, 50, 0
4, 304800, Note_on_c, 0, 55, 109
4, 304800, Note_on_c, 0, 43, 109
4, 304956, Note_on_c, 0, 43, 0
4, 304956, Note_on_c, 0, 55, 0
4, 305040, Note_on_c, 0, 43, 110
4, 305040, Note_on_c, 0, 31, 110
4, 305196, Note_on_c, 0, 31, 0
4, 305196, Note_on_c, 0, 43, 0
4, 305280, Note_on_c, 0, 48, 111
4, 305280, Note_on_c, 0, 60, 111
4, 305436, Note_on_c, 0, 60, 0
4, 305436, Note_on_c, 0, 48, 0
4, 305520, Note_on_c, 0, 71, 116
4, 305520, Note_on_c, 0, 59, 116
4, 305676, Note_on_c, 0, 59, 0
4, 305676, Note_on_c, 0, 71, 0
4, 305760, Note_on_c, 0, 69, 116
4, 305760, Note_on_c, 0, 57, 116
4, 305916, Note_on_c, 0, 57, 0
4, 305916, Note_on_c, 0, 69, 0
4, 306000, Note_on_c, 0, 67, 117
4, 306000, Note_on_c, 0, 55, 117
4, 306156, Note_on_c, 0, 55, 0
4, 306156, Note_on_c, 0, 67, 0
4, 306240, Note_on_c, 0, 65, 117
4, 306240, Note_on_c, 0, 53, 117
4, 306396, Note_on_c, 0, 53, 0
4, 306396, Note_on_c, 0, 65, 0
4, 306480, Note_on_c, 0, 64, 118
4, 306480, Note_on_c, 0, 52, 118
4, 306636, Note_on_c, 0, 52, 0
4, 306636, Note_on_c, 0, 64, 0
4, 306720, Note_on_c, 0, 65, 118
4, 306720, Note_on_c, 0, 53, 118
4, 306876, Note_on_c, 0, 53, 0
4, 306876, Note_on_c, 0, 65, 0
4, 306960, Note_on_c, 0, 64, 119
4, 306960, Note_on_c, 0, 52, 119
4, 307116, Note_on_c, 0, 52, 0
4, 307116, Note_on_c, 0, 64, 0
4, 307200, Note_on_c, 0, 65, 119
4, 307200, Note_on_c, 0, 53, 119
4, 307356, Note_on_c, 0, 53, 0
4, 307356, Note_on_c, 0, 65, 0
4, 307440, Note_on_c, 0, 62, 120
4, 307440, Note_on_c, 0, 50, 120
4, 307596, Note_on_c, 0, 50, 0
4, 307596, Note_on_c, 0, 62, 0
4, 307680, Note_on_c, 0, 55, 120
4, 307680, Note_on_c, 0, 67, 120
4, 307836, Note_on_c, 0, 67, 0
4, 307836, Note_on_c, 0, 55, 0
4, 307920, Note_on_c, 0, 43, 121
4, 307920, Note_on_c, 0, 55, 121
4, 308076, Note_on_c, 0, 55, 0
4, 308076, Note_on_c, 0, 43, 0
4, 308160, Note_on_c, 0, 60, 121
4, 308160, Note_on_c, 0, 48, 121
4, 308316, Note_on_c, 0, 48, 0
4, 308316, Note_on_c, 0, 60, 0
4, 308400, Note_on_c, 0, 67, 125
4, 308400, Note_on_c, 0, 55, 125
4, 308556, Note_on_c, 0, 55, 0
4, 308556, Note_on_c, 0, 67, 0
4, 308640, Note_on_c, 0, 60, 125
4, 308640, Note_on_c, 0, 72, 125
4, 308796, Note_on_c, 0, 72, 0
4, 308796, Note_on_c, 0, 60, 0
4, 308880, Note_on_c, 0, 55, 125
4, 308880, Note_on_c, 0, 67, 125
4, 309036, Note_on_c, 0, 67, 0
4, 309036, Note_on_c, 0, 55, 0
4, 309120, Note_on_c, 0, 60, 125
4, 309120, Note_on_c, 0, 48, 125
4, 309276, Note_on_c, 0, 48, 0
4, 309276, Note_on_c, 0, 60, 0
4, 309360, Note_on_c, 0, 55, 125
4, 309360, Note_on_c, 0, 43, 125
4, 309516, Note_on_c, 0, 43, 0
4, 309516, Note_on_c, 0, 55, 0
4, 309600, Note_on_c, 0, 36, 127
4, 309600, Note_on_c, 0, 48, 127
4, 309834, Note_on_c, 0, 48, 0
4, 309834, Note_on_c, 0, 36, 0
4, 310080, Note_on_c, 0, 48, 127
4, 310080, Note_on_c, 0, 36, 127
4, 310314, Note_on_c, 0, 36, 0
4, 310314, Note_on_c, 0, 48, 0
4, 310314, End_track
5, 0, Start_track
5, 0, Title_t, "Piano"
5, 0, Control_c, 0, 0, 0
5, 0, Control_c, 0, 7, 115
5, 0, Control_c, 0, 10, 64
5, 0, Control_c, 0, 91, 100
5, 0, Control_c, 0, 93, 28
5, 0, Control_c, 0, 64, 0
5, 0, Control_c, 0, 1, 0
5, 0, Pitch_bend_c, 0, 8192
5, 1, Control_c, 0, 32, 0
5, 1, Program_c, 0, 0
5, 480, Control_c, 0, 7, 112
5, 1440, Control_c, 0, 7, 112
5, 10080, Control_c, 0, 7, 102
5, 18000, Control_c, 0, 7, 112
5, 30240, Control_c, 0, 7, 112
5, 46080, Control_c, 0, 7, 112
5, 66720, Note_on_c, 0, 67, 87
5, 66840, Note_on_c, 0, 67, 0
5, 66960, Note_on_c, 0, 65, 84
5, 67080, Note_on_c, 0, 65, 0
5, 67200, Note_on_c, 0, 64, 81
5, 67320, Note_on_c, 0, 64, 0
5, 67440, Note_on_c, 0, 62, 78
5, 67560, Note_on_c, 0, 62, 0
5, 67680, Control_c, 0, 7, 102
5, 75000, Control_c, 0, 7, 112
5, 75720, Note_on_c, 0, 67, 80
5, 75840, Note_on_c, 0, 67, 0
5, 75960, Note_on_c, 0, 67, 84
5, 76080, Note_on_c, 0, 67, 0
5, 76200, Note_on_c, 0, 67, 90
5, 76320, Note_on_c, 0, 67, 0
5, 76440, Note_on_c, 0, 67, 91
5, 76536, Note_on_c, 0, 67, 0
5, 76680, Note_on_c, 0, 67, 92
5, 76776, Note_on_c, 0, 67, 0
5, 76920, Note_on_c, 0, 67, 96
5, 77016, Note_on_c, 0, 67, 0
5, 77160, Note_on_c, 0, 67, 100
5, 77256, Note_on_c, 0, 67, 0
5, 77400, Note_on_c, 0, 67, 105
5, 77496, Note_on_c, 0, 67, 0
5, 77640, Note_on_c, 0, 67, 102
5, 77736, Note_on_c, 0, 67, 0
5, 77880, Note_on_c, 0, 67, 100
5, 77976, Note_on_c, 0, 67, 0
5, 78120, Note_on_c, 0, 67, 97
5, 78216, Note_on_c, 0, 67, 0
5, 78360, Note_on_c, 0, 67, 95
5, 78456, Note_on_c, 0, 67, 0
5, 78600, Note_on_c, 0, 67, 92
5, 78696, Note_on_c, 0, 67, 0
5, 78840, Note_on_c, 0, 67, 90
5, 78936, Note_on_c, 0, 67, 0
5, 79080, Note_on_c, 0, 67, 87
5, 79176, Note_on_c, 0, 67, 0
5, 79320, Note_on_c, 0, 67, 87
5, 79416, Note_on_c, 0, 67, 0
5, 79560, Note_on_c, 0, 67, 89
5, 79656, Note_on_c, 0, 67, 0
5, 79800, Note_on_c, 0, 67, 95
5, 79896, Note_on_c, 0, 67, 0
5, 80040, Note_on_c, 0, 67, 101
5, 80136, Note_on_c, 0, 67, 0
5, 80280, Note_on_c, 0, 67, 99
5, 80376, Note_on_c, 0, 67, 0
5, 80520, Note_on_c, 0, 67, 95
5, 80616, Note_on_c, 0, 67, 0
5, 80760, Note_on_c, 0, 67, 92
5, 80856, Note_on_c, 0, 67, 0
5, 81000, Note_on_c, 0, 67, 89
5, 81096, Note_on_c, 0, 67, 0
5, 81240, Note_on_c, 0, 67, 85
5, 81336, Note_on_c, 0, 67, 0
5, 81480, Note_on_c, 0, 67, 82
5, 81576, Note_on_c, 0, 67, 0
5, 81720, Note_on_c, 0, 67, 79
5, 81816, Note_on_c, 0, 67, 0
5, 81960, Note_on_c, 0, 67, 73
5, 82056, Note_on_c, 0, 67, 0
5, 83880, Note_on_c, 0, 72, 90
5, 84000, Note_on_c, 0, 72, 0
5, 84120, Note_on_c, 0, 72, 91
5, 84240, Note_on_c, 0, 72, 0
5, 84360, Note_on_c, 0, 72, 92
5, 84480, Note_on_c, 0, 72, 0
5, 84600, Note_on_c, 0, 72, 93
5, 84720, Note_on_c, 0, 72, 0
5, 84840, Note_on_c, 0, 72, 95
5, 84960, Note_on_c, 0, 72, 0
5, 88440, Note_on_c, 0, 60, 67
5, 88560, Note_on_c, 0, 60, 0
5, 88680, Note_on_c, 0, 60, 70
5, 88800, Note_on_c, 0, 60, 0
5, 88920, Note_on_c, 0, 62, 73
5, 89040, Note_on_c, 0, 62, 0
5, 89160, Note_on_c, 0, 62, 76
5, 89280, Note_on_c, 0, 62, 0
5, 89400, Note_on_c, 0, 62, 76
5, 89520, Note_on_c, 0, 62, 0
5, 89640, Note_on_c, 0, 62, 74
5, 89760, Note_on_c, 0, 62, 0
5, 89880, Note_on_c, 0, 59, 72
5, 90000, Note_on_c, 0, 59, 0
5, 90120, Note_on_c, 0, 60, 70
5, 90240, Note_on_c, 0, 60, 0
5, 90360, Note_on_c, 0, 62, 67
5, 90480, Note_on_c, 0, 62, 0
5, 90600, Note_on_c, 0, 59, 67
5, 90720, Note_on_c, 0, 59, 0
5, 90840, Note_on_c, 0, 60, 63
5, 90960, Note_on_c, 0, 60, 0
5, 91080, Note_on_c, 0, 60, 66
5, 91200, Note_on_c, 0, 60, 0
5, 91320, Note_on_c, 0, 64, 69
5, 91440, Note_on_c, 0, 64, 0
5, 91560, Note_on_c, 0, 64, 72
5, 91680, Note_on_c, 0, 64, 0
5, 91800, Note_on_c, 0, 62, 75
5, 91920, Note_on_c, 0, 62, 0
5, 92040, Note_on_c, 0, 62, 77
5, 92160, Note_on_c, 0, 62, 0
5, 92280, Note_on_c, 0, 64, 76
5, 92400, Note_on_c, 0, 64, 0
5, 92520, Note_on_c, 0, 64, 74
5, 92640, Note_on_c, 0, 64, 0
5, 92760, Note_on_c, 0, 62, 73
5, 92880, Note_on_c, 0, 62, 0
5, 93000, Note_on_c, 0, 62, 71
5, 93120, Note_on_c, 0, 62, 0
5, 93240, Note_on_c, 0, 60, 69
5, 93360, Note_on_c, 0, 60, 0
5, 93480, Note_on_c, 0, 61, 67
5, 93600, Note_on_c, 0, 61, 0
5, 93720, Note_on_c, 0, 62, 70
5, 93840, Note_on_c, 0, 62, 0
5, 93960, Note_on_c, 0, 62, 80
5, 94080, Note_on_c, 0, 62, 0
5, 94200, Note_on_c, 0, 64, 89
5, 94320, Note_on_c, 0, 64, 0
5, 94320, Note_on_c, 0, 60, 87
5, 94440, Note_on_c, 0, 60, 0
5, 94440, Note_on_c, 0, 64, 84
5, 94560, Note_on_c, 0, 64, 0
5, 94680, Note_on_c, 0, 67, 80
5, 94800, Note_on_c, 0, 67, 0
5, 94800, Note_on_c, 0, 66, 78
5, 94920, Note_on_c, 0, 66, 0
5, 94920, Note_on_c, 0, 67, 75
5, 95040, Note_on_c, 0, 67, 0
5, 96480, Control_c, 0, 7, 102
5, 97080, Note_on_c, 0, 60, 67
5, 97200, Note_on_c, 0, 60, 0
5, 97320, Note_on_c, 0, 60, 70
5, 97440, Note_on_c, 0, 60, 0
5, 97560, Note_on_c, 0, 62, 73
5, 97680, Note_on_c, 0, 62, 0
5, 97800, Note_on_c, 0, 62, 76
5, 97920, Note_on_c, 0, 62, 0
5, 98040, Note_on_c, 0, 62, 76
5, 98160, Note_on_c, 0, 62, 0
5, 98280, Note_on_c, 0, 62, 74
5, 98400, Note_on_c, 0, 62, 0
5, 98520, Note_on_c, 0, 59, 72
5, 98640, Note_on_c, 0, 59, 0
5, 98760, Note_on_c, 0, 60, 70
5, 98880, Note_on_c, 0, 60, 0
5, 99000, Note_on_c, 0, 62, 67
5, 99120, Note_on_c, 0, 62, 0
5, 99240, Note_on_c, 0, 59, 67
5, 99360, Note_on_c, 0, 59, 0
5, 99480, Note_on_c, 0, 60, 63
5, 99600, Note_on_c, 0, 60, 0
5, 99720, Note_on_c, 0, 60, 66
5, 99840, Note_on_c, 0, 60, 0
5, 99960, Note_on_c, 0, 64, 69
5, 100080, Note_on_c, 0, 64, 0
5, 100200, Note_on_c, 0, 64, 72
5, 100320, Note_on_c, 0, 64, 0
5, 100440, Note_on_c, 0, 62, 75
5, 100560, Note_on_c, 0, 62, 0
5, 100680, Note_on_c, 0, 62, 77
5, 100800, Note_on_c, 0, 62, 0
5, 100920, Note_on_c, 0, 64, 76
5, 101040, Note_on_c, 0, 64, 0
5, 101160, Note_on_c, 0, 64, 74
5, 101280, Note_on_c, 0, 64, 0
5, 101400, Note_on_c, 0, 62, 73
5, 101520, Note_on_c, 0, 62, 0
5, 101640, Note_on_c, 0, 62, 71
5, 101760, Note_on_c, 0, 62, 0
5, 101880, Note_on_c, 0, 60, 69
5, 102000, Note_on_c, 0, 60, 0
5, 102120, Note_on_c, 0, 61, 67
5, 102240, Note_on_c, 0, 61, 0
5, 102360, Note_on_c, 0, 62, 70
5, 102480, Note_on_c, 0, 62, 0
5, 102600, Note_on_c, 0, 62, 80
5, 102720, Note_on_c, 0, 62, 0
5, 102840, Note_on_c, 0, 64, 89
5, 102960, Note_on_c, 0, 64, 0
5, 102960, Note_on_c, 0, 60, 87
5, 103080, Note_on_c, 0, 60, 0
5, 103080, Note_on_c, 0, 64, 84
5, 103200, Note_on_c, 0, 64, 0
5, 103320, Note_on_c, 0, 67, 80
5, 103440, Note_on_c, 0, 67, 0
5, 103440, Note_on_c, 0, 66, 78
5, 103560, Note_on_c, 0, 66, 0
5, 103560, Note_on_c, 0, 67, 75
5, 103680, Note_on_c, 0, 67, 0
5, 105120, Control_c, 0, 7, 112
5, 105720, Note_on_c, 0, 60, 76
5, 105840, Note_on_c, 0, 60, 0
5, 105960, Note_on_c, 0, 60, 78
5, 106080, Note_on_c, 0, 60, 0
5, 106200, Note_on_c, 0, 58, 81
5, 106320, Note_on_c, 0, 58, 0
5, 106440, Note_on_c, 0, 58, 83
5, 106560, Note_on_c, 0, 58, 0
5, 106680, Note_on_c, 0, 57, 86
5, 106800, Note_on_c, 0, 57, 0
5, 106920, Note_on_c, 0, 57, 83
5, 107040, Note_on_c, 0, 57, 0
5, 107160, Note_on_c, 0, 57, 80
5, 107280, Note_on_c, 0, 57, 0
5, 107400, Note_on_c, 0, 57, 78
5, 107520, Note_on_c, 0, 57, 0
5, 107640, Note_on_c, 0, 57, 82
5, 107760, Note_on_c, 0, 57, 0
5, 107760, Note_on_c, 0, 55, 80
5, 107880, Note_on_c, 0, 55, 0
5, 107880, Note_on_c, 0, 52, 78
5, 108000, Note_on_c, 0, 52, 0
5, 108120, Note_on_c, 0, 57, 71
5, 108240, Note_on_c, 0, 57, 0
5, 108360, Note_on_c, 0, 57, 74
5, 108480, Note_on_c, 0, 57, 0
5, 108600, Note_on_c, 0, 57, 77
5, 108720, Note_on_c, 0, 57, 0
5, 108840, Note_on_c, 0, 57, 80
5, 108960, Note_on_c, 0, 57, 0
5, 109080, Note_on_c, 0, 56, 82
5, 109200, Note_on_c, 0, 56, 0
5, 109320, Note_on_c, 0, 56, 84
5, 109440, Note_on_c, 0, 56, 0
5, 109560, Note_on_c, 0, 55, 84
5, 109680, Note_on_c, 0, 55, 0
5, 109800, Note_on_c, 0, 55, 82
5, 109920, Note_on_c, 0, 55, 0
5, 110040, Note_on_c, 0, 55, 79
5, 110160, Note_on_c, 0, 55, 0
5, 110280, Note_on_c, 0, 55, 77
5, 110400, Note_on_c, 0, 55, 0
5, 110520, Note_on_c, 0, 55, 80
5, 110640, Note_on_c, 0, 55, 0
5, 110640, Note_on_c, 0, 53, 78
5, 110760, Note_on_c, 0, 53, 0
5, 110760, Note_on_c, 0, 50, 76
5, 110880, Note_on_c, 0, 50, 0
5, 111000, Note_on_c, 0, 52, 73
5, 111120, Note_on_c, 0, 52, 0
5, 111120, Note_on_c, 0, 55, 75
5, 111240, Note_on_c, 0, 55, 0
5, 111240, Note_on_c, 0, 60, 76
5, 111360, Note_on_c, 0, 60, 0
5, 111480, Note_on_c, 0, 60, 79
5, 111600, Note_on_c, 0, 60, 0
5, 111720, Note_on_c, 0, 60, 82
5, 111840, Note_on_c, 0, 60, 0
5, 111960, Note_on_c, 0, 60, 85
5, 112080, Note_on_c, 0, 60, 0
5, 112200, Note_on_c, 0, 60, 88
5, 112320, Note_on_c, 0, 60, 0
5, 113040, Note_on_c, 0, 60, 92
5, 113196, Note_on_c, 0, 60, 0
5, 113280, Note_on_c, 0, 60, 100
5, 113436, Note_on_c, 0, 60, 0
5, 113520, Note_on_c, 0, 60, 107
5, 113676, Note_on_c, 0, 60, 0
5, 113880, Note_on_c, 0, 60, 103
5, 114000, Note_on_c, 0, 60, 0
5, 114120, Note_on_c, 0, 62, 100
5, 114240, Note_on_c, 0, 62, 0
5, 114360, Note_on_c, 0, 64, 96
5, 114480, Note_on_c, 0, 64, 0
5, 114480, Note_on_c, 0, 60, 95
5, 114600, Note_on_c, 0, 60, 0
5, 114600, Note_on_c, 0, 64, 93
5, 114720, Note_on_c, 0, 64, 0
5, 114840, Note_on_c, 0, 67, 90
5, 114960, Note_on_c, 0, 67, 0
5, 114960, Note_on_c, 0, 66, 88
5, 115080, Note_on_c, 0, 66, 0
5, 115080, Note_on_c, 0, 67, 86
5, 115200, Note_on_c, 0, 67, 0
5, 125280, Control_c, 0, 7, 102
5, 133920, Control_c, 0, 7, 112
5, 146880, Control_c, 0, 64, 0
5, 146940, Control_c, 0, 64, 127
5, 147040, Note_on_c, 0, 60, 65
5, 147190, Note_on_c, 0, 60, 0
5, 147200, Note_on_c, 0, 63, 64
5, 147350, Note_on_c, 0, 63, 0
5, 147360, Control_c, 0, 64, 0
5, 147420, Control_c, 0, 64, 127
5, 147520, Note_on_c, 0, 60, 63
5, 147670, Note_on_c, 0, 60, 0
5, 147680, Note_on_c, 0, 63, 63
5, 147830, Note_on_c, 0, 63, 0
5, 147840, Control_c, 0, 64, 0
5, 147900, Control_c, 0, 64, 127
5, 148000, Note_on_c, 0, 56, 62
5, 148150, Note_on_c, 0, 56, 0
5, 148160, Note_on_c, 0, 62, 61
5, 148310, Note_on_c, 0, 62, 0
5, 148320, Control_c, 0, 64, 0
5, 148380, Control_c, 0, 64, 127
5, 148480, Note_on_c, 0, 59, 60
5, 148630, Note_on_c, 0, 59, 0
5, 148640, Note_on_c, 0, 62, 59
5, 148790, Note_on_c, 0, 62, 0
5, 148800, Control_c, 0, 64, 0
5, 148860, Control_c, 0, 64, 127
5, 148960, Note_on_c, 0, 59, 61
5, 149110, Note_on_c, 0, 59, 0
5, 149120, Note_on_c, 0, 62, 65
5, 149270, Note_on_c, 0, 62, 0
5, 149280, Control_c, 0, 64, 0
5, 149340, Control_c, 0, 64, 127
5, 149440, Note_on_c, 0, 57, 73
5, 149590, Note_on_c, 0, 57, 0
5, 149600, Note_on_c, 0, 59, 77
5, 149750, Note_on_c, 0, 59, 0
5, 149760, Control_c, 0, 64, 0
5, 149820, Control_c, 0, 64, 127
5, 149920, Note_on_c, 0, 63, 72
5, 150070, Note_on_c, 0, 63, 0
5, 150080, Note_on_c, 0, 67, 70
5, 150230, Note_on_c, 0, 67, 0
5, 150240, Control_c, 0, 64, 0
5, 150300, Control_c, 0, 64, 127
5, 150400, Note_on_c, 0, 63, 66
5, 150550, Note_on_c, 0, 63, 0
5, 150560, Note_on_c, 0, 67, 64
5, 150710, Note_on_c, 0, 67, 0
5, 150720, Control_c, 0, 64, 0
5, 150780, Control_c, 0, 64, 127
5, 150880, Note_on_c, 0, 60, 60
5, 151030, Note_on_c, 0, 60, 0
5, 151040, Note_on_c, 0, 65, 58
5, 151190, Note_on_c, 0, 65, 0
5, 151200, Control_c, 0, 64, 0
5, 151260, Control_c, 0, 64, 127
5, 151360, Note_on_c, 0, 63, 60
5, 151510, Note_on_c, 0, 63, 0
5, 151520, Note_on_c, 0, 67, 59
5, 151670, Note_on_c, 0, 67, 0
5, 151680, Control_c, 0, 64, 0
5, 151740, Control_c, 0, 64, 127
5, 151840, Note_on_c, 0, 65, 57
5, 151990, Note_on_c, 0, 65, 0
5, 152000, Note_on_c, 0, 68, 56
5, 152150, Note_on_c, 0, 68, 0
5, 152160, Control_c, 0, 64, 0
5, 152220, Control_c, 0, 64, 127
5, 152320, Note_on_c, 0, 63, 53
5, 152470, Note_on_c, 0, 63, 0
5, 152480, Note_on_c, 0, 67, 52
5, 152630, Note_on_c, 0, 67, 0
5, 152640, Control_c, 0, 64, 0
5, 152700, Control_c, 0, 64, 127
5, 152800, Note_on_c, 0, 56, 55
5, 152950, Note_on_c, 0, 56, 0
5, 152960, Note_on_c, 0, 61, 54
5, 153110, Note_on_c, 0, 61, 0
5, 153120, Control_c, 0, 64, 0
5, 153180, Control_c, 0, 64, 127
5, 153280, Note_on_c, 0, 57, 51
5, 153430, Note_on_c, 0, 57, 0
5, 153440, Note_on_c, 0, 63, 50
5, 153590, Note_on_c, 0, 63, 0
5, 153600, Control_c, 0, 64, 0
5, 153660, Control_c, 0, 64, 127
5, 153760, Note_on_c, 0, 62, 47
5, 153910, Note_on_c, 0, 62, 0
5, 153920, Note_on_c, 0, 65, 46
5, 154070, Note_on_c, 0, 65, 0
5, 154080, Control_c, 0, 64, 0
5, 154140, Control_c, 0, 64, 127
5, 154240, Note_on_c, 0, 51, 47
5, 154390, Note_on_c, 0, 51, 0
5, 154400, Note_on_c, 0, 55, 46
5, 154550, Note_on_c, 0, 55, 0
5, 154560, Control_c, 0, 64, 0
5, 154560, Note_on_c, 0, 60, 46
5, 154710, Note_on_c, 0, 60, 0
5, 155520, Control_c, 0, 7, 102
5, 155520, Control_c, 0, 64, 0
5, 155580, Control_c, 0, 64, 127
5, 155680, Note_on_c, 0, 60, 65
5, 155830, Note_on_c, 0, 60, 0
5, 155840, Note_on_c, 0, 63, 64
5, 155990, Note_on_c, 0, 63, 0
5, 156000, Control_c, 0, 64, 0
5, 156060, Control_c, 0, 64, 127
5, 156160, Note_on_c, 0, 60, 63
5, 156310, Note_on_c, 0, 60, 0
5, 156320, Note_on_c, 0, 63, 63
5, 156470, Note_on_c, 0, 63, 0
5, 156480, Control_c, 0, 64, 0
5, 156540, Control_c, 0, 64, 127
5, 156640, Note_on_c, 0, 56, 62
5, 156790, Note_on_c, 0, 56, 0
5, 156800, Note_on_c, 0, 62, 61
5, 156950, Note_on_c, 0, 62, 0
5, 156960, Control_c, 0, 64, 0
5, 157020, Control_c, 0, 64, 127
5, 157120, Note_on_c, 0, 59, 60
5, 157270, Note_on_c, 0, 59, 0
5, 157280, Note_on_c, 0, 62, 59
5, 157430, Note_on_c, 0, 62, 0
5, 157440, Control_c, 0, 64, 0
5, 157500, Control_c, 0, 64, 127
5, 157600, Note_on_c, 0, 59, 61
5, 157750, Note_on_c, 0, 59, 0
5, 157760, Note_on_c, 0, 62, 65
5, 157910, Note_on_c, 0, 62, 0
5, 157920, Control_c, 0, 64, 0
5, 157980, Control_c, 0, 64, 127
5, 158080, Note_on_c, 0, 57, 73
5, 158230, Note_on_c, 0, 57, 0
5, 158240, Note_on_c, 0, 59, 77
5, 158390, Note_on_c, 0, 59, 0
5, 158400, Control_c, 0, 64, 0
5, 158460, Control_c, 0, 64, 127
5, 158560, Note_on_c, 0, 63, 72
5, 158710, Note_on_c, 0, 63, 0
5, 158720, Note_on_c, 0, 67, 70
5, 158870, Note_on_c, 0, 67, 0
5, 158880, Control_c, 0, 64, 0
5, 158940, Control_c, 0, 64, 127
5, 159040, Note_on_c, 0, 63, 66
5, 159190, Note_on_c, 0, 63, 0
5, 159200, Note_on_c, 0, 67, 64
5, 159350, Note_on_c, 0, 67, 0
5, 159360, Control_c, 0, 64, 0
5, 159420, Control_c, 0, 64, 127
5, 159520, Note_on_c, 0, 60, 60
5, 159670, Note_on_c, 0, 60, 0
5, 159680, Note_on_c, 0, 65, 58
5, 159830, Note_on_c, 0, 65, 0
5, 159840, Control_c, 0, 64, 0
5, 159900, Control_c, 0, 64, 127
5, 160000, Note_on_c, 0, 63, 60
5, 160150, Note_on_c, 0, 63, 0
5, 160160, Note_on_c, 0, 67, 59
5, 160310, Note_on_c, 0, 67, 0
5, 160320, Control_c, 0, 64, 0
5, 160380, Control_c, 0, 64, 127
5, 160480, Note_on_c, 0, 65, 57
5, 160630, Note_on_c, 0, 65, 0
5, 160640, Note_on_c, 0, 68, 56
5, 160790, Note_on_c, 0, 68, 0
5, 160800, Control_c, 0, 64, 0
5, 160860, Control_c, 0, 64, 127
5, 160960, Note_on_c, 0, 63, 53
5, 161110, Note_on_c, 0, 63, 0
5, 161120, Note_on_c, 0, 67, 52
5, 161270, Note_on_c, 0, 67, 0
5, 161280, Control_c, 0, 64, 0
5, 161340, Control_c, 0, 64, 127
5, 161440, Note_on_c, 0, 56, 55
5, 161590, Note_on_c, 0, 56, 0
5, 161600, Note_on_c, 0, 61, 54
5, 161750, Note_on_c, 0, 61, 0
5, 161760, Control_c, 0, 64, 0
5, 161820, Control_c, 0, 64, 127
5, 161920, Note_on_c, 0, 57, 51
5, 162070, Note_on_c, 0, 57, 0
5, 162080, Note_on_c, 0, 63, 50
5, 162230, Note_on_c, 0, 63, 0
5, 162240, Control_c, 0, 64, 0
5, 162300, Control_c, 0, 64, 127
5, 162400, Note_on_c, 0, 62, 47
5, 162550, Note_on_c, 0, 62, 0
5, 162560, Note_on_c, 0, 65, 46
5, 162710, Note_on_c, 0, 65, 0
5, 162720, Control_c, 0, 64, 0
5, 162780, Control_c, 0, 64, 127
5, 162880, Note_on_c, 0, 51, 47
5, 163030, Note_on_c, 0, 51, 0
5, 163040, Note_on_c, 0, 55, 46
5, 163190, Note_on_c, 0, 55, 0
5, 163200, Control_c, 0, 64, 0
5, 163200, Note_on_c, 0, 60, 46
5, 163350, Note_on_c, 0, 60, 0
5, 163360, Note_on_c, 0, 60, 57
5, 163510, Note_on_c, 0, 60, 0
5, 163520, Note_on_c, 0, 58, 63
5, 163670, Note_on_c, 0, 58, 0
5, 163680, Note_on_c, 0, 56, 68
5, 163830, Note_on_c, 0, 56, 0
5, 163840, Note_on_c, 0, 55, 73
5, 163990, Note_on_c, 0, 55, 0
5, 164000, Note_on_c, 0, 53, 78
5, 164150, Note_on_c, 0, 53, 0
5, 164160, Control_c, 0, 7, 112
5, 164160, Control_c, 0, 64, 0
5, 164220, Control_c, 0, 64, 127
5, 164320, Note_on_c, 0, 55, 71
5, 164470, Note_on_c, 0, 55, 0
5, 164480, Note_on_c, 0, 58, 71
5, 164630, Note_on_c, 0, 58, 0
5, 164640, Control_c, 0, 64, 0
5, 164700, Control_c, 0, 64, 127
5, 164800, Note_on_c, 0, 58, 73
5, 164950, Note_on_c, 0, 58, 0
5, 164960, Note_on_c, 0, 63, 74
5, 165110, Note_on_c, 0, 63, 0
5, 165120, Control_c, 0, 64, 0
5, 165180, Control_c, 0, 64, 127
5, 165280, Note_on_c, 0, 63, 75
5, 165430, Note_on_c, 0, 63, 0
5, 165440, Note_on_c, 0, 67, 76
5, 165590, Note_on_c, 0, 67, 0
5, 165600, Control_c, 0, 64, 0
5, 165660, Control_c, 0, 64, 127
5, 165760, Note_on_c, 0, 67, 78
5, 165910, Note_on_c, 0, 67, 0
5, 165920, Note_on_c, 0, 70, 77
5, 166070, Note_on_c, 0, 70, 0
5, 166080, Control_c, 0, 64, 0
5, 166140, Control_c, 0, 64, 127
5, 166240, Note_on_c, 0, 67, 74
5, 166390, Note_on_c, 0, 67, 0
5, 166400, Note_on_c, 0, 71, 73
5, 166550, Note_on_c, 0, 71, 0
5, 166560, Control_c, 0, 64, 0
5, 166620, Control_c, 0, 64, 127
5, 166720, Note_on_c, 0, 67, 71
5, 166870, Note_on_c, 0, 67, 0
5, 166880, Note_on_c, 0, 72, 69
5, 167030, Note_on_c, 0, 72, 0
5, 167040, Control_c, 0, 64, 0
5, 167100, Control_c, 0, 64, 127
5, 167200, Note_on_c, 0, 60, 67
5, 167350, Note_on_c, 0, 60, 0
5, 167360, Note_on_c, 0, 65, 68
5, 167510, Note_on_c, 0, 65, 0
5, 167520, Control_c, 0, 64, 0
5, 167580, Control_c, 0, 64, 127
5, 167680, Note_on_c, 0, 60, 70
5, 167830, Note_on_c, 0, 60, 0
5, 167840, Note_on_c, 0, 65, 71
5, 167990, Note_on_c, 0, 65, 0
5, 168000, Control_c, 0, 64, 0
5, 168060, Control_c, 0, 64, 127
5, 168160, Note_on_c, 0, 60, 73
5, 168310, Note_on_c, 0, 60, 0
5, 168320, Note_on_c, 0, 65, 74
5, 168470, Note_on_c, 0, 65, 0
5, 168480, Control_c, 0, 64, 0
5, 168540, Control_c, 0, 64, 127
5, 168640, Note_on_c, 0, 59, 74
5, 168800, Note_on_c, 0, 59, 0
5, 168800, Note_on_c, 0, 65, 72
5, 168960, Note_on_c, 0, 65, 0
5, 168960, Control_c, 0, 64, 0
5, 169020, Control_c, 0, 64, 127
5, 169120, Note_on_c, 0, 60, 69
5, 169280, Note_on_c, 0, 60, 0
5, 169280, Note_on_c, 0, 65, 68
5, 169440, Note_on_c, 0, 65, 0
5, 169440, Control_c, 0, 64, 0
5, 169500, Control_c, 0, 64, 127
5, 169600, Note_on_c, 0, 65, 65
5, 169760, Note_on_c, 0, 65, 0
5, 169760, Note_on_c, 0, 55, 63
5, 169920, Note_on_c, 0, 55, 0
5, 169920, Control_c, 0, 64, 0
5, 169980, Control_c, 0, 64, 127
5, 170080, Note_on_c, 0, 63, 66
5, 170240, Note_on_c, 0, 63, 0
5, 170240, Note_on_c, 0, 67, 67
5, 170400, Note_on_c, 0, 67, 0
5, 170400, Control_c, 0, 64, 0
5, 170460, Control_c, 0, 64, 127
5, 170560, Note_on_c, 0, 60, 70
5, 170720, Note_on_c, 0, 60, 0
5, 170720, Note_on_c, 0, 63, 71
5, 170880, Note_on_c, 0, 63, 0
5, 170880, Control_c, 0, 64, 0
5, 170940, Control_c, 0, 64, 127
5, 171040, Note_on_c, 0, 59, 74
5, 171200, Note_on_c, 0, 59, 0
5, 171200, Note_on_c, 0, 62, 76
5, 171360, Note_on_c, 0, 62, 0
5, 171360, Control_c, 0, 64, 0
5, 171420, Control_c, 0, 64, 127
5, 171520, Note_on_c, 0, 55, 83
5, 171680, Note_on_c, 0, 55, 0
5, 171680, Note_on_c, 0, 60, 87
5, 171840, Note_on_c, 0, 60, 0
5, 171840, Control_c, 0, 64, 0
5, 171900, Control_c, 0, 64, 127
5, 172000, Note_on_c, 0, 55, 92
5, 172160, Note_on_c, 0, 55, 0
5, 172160, Note_on_c, 0, 60, 88
5, 172320, Note_on_c, 0, 60, 0
5, 172320, Control_c, 0, 64, 0
5, 172380, Control_c, 0, 64, 127
5, 172480, Note_on_c, 0, 58, 81
5, 172640, Note_on_c, 0, 58, 0
5, 172640, Note_on_c, 0, 60, 77
5, 172800, Note_on_c, 0, 60, 0
5, 172800, Control_c, 0, 64, 0
5, 172860, Control_c, 0, 64, 127
5, 172960, Note_on_c, 0, 56, 70
5, 173120, Note_on_c, 0, 56, 0
5, 173120, Note_on_c, 0, 61, 68
5, 173280, Note_on_c, 0, 61, 0
5, 173280, Control_c, 0, 64, 0
5, 173340, Control_c, 0, 64, 127
5, 173440, Note_on_c, 0, 60, 66
5, 173600, Note_on_c, 0, 60, 0
5, 173600, Note_on_c, 0, 63, 65
5, 173760, Note_on_c, 0, 63, 0
5, 173760, Control_c, 0, 64, 0
5, 173820, Control_c, 0, 64, 127
5, 173920, Note_on_c, 0, 62, 62
5, 174080, Note_on_c, 0, 62, 0
5, 174080, Note_on_c, 0, 65, 61
5, 174240, Note_on_c, 0, 65, 0
5, 174240, Control_c, 0, 64, 0
5, 174300, Control_c, 0, 64, 127
5, 174400, Note_on_c, 0, 65, 59
5, 174560, Note_on_c, 0, 65, 0
5, 174560, Note_on_c, 0, 67, 56
5, 174720, Note_on_c, 0, 67, 0
5, 174720, Control_c, 0, 64, 0
5, 174720, Note_on_c, 0, 63, 54
5, 174881, Note_on_c, 0, 63, 0
5, 187200, Control_c, 0, 7, 102
5, 198240, Control_c, 0, 7, 112
5, 241080, Note_on_c, 0, 67, 81
5, 241200, Note_on_c, 0, 67, 0
5, 241200, Note_on_c, 0, 65, 87
5, 241320, Note_on_c, 0, 65, 0
5, 241320, Note_on_c, 0, 67, 87
5, 241440, Note_on_c, 0, 67, 0
5, 241560, Note_on_c, 0, 67, 85
5, 241680, Note_on_c, 0, 67, 0
5, 241800, Note_on_c, 0, 67, 84
5, 241920, Note_on_c, 0, 67, 0
5, 242040, Note_on_c, 0, 67, 83
5, 242160, Note_on_c, 0, 67, 0
5, 242280, Note_on_c, 0, 67, 81
5, 242400, Note_on_c, 0, 67, 0
5, 242520, Note_on_c, 0, 67, 80
5, 242640, Note_on_c, 0, 67, 0
5, 242760, Note_on_c, 0, 67, 78
5, 242880, Note_on_c, 0, 67, 0
5, 243000, Note_on_c, 0, 67, 77
5, 243120, Note_on_c, 0, 67, 0
5, 243240, Note_on_c, 0, 67, 76
5, 243360, Note_on_c, 0, 67, 0
5, 243480, Note_on_c, 0, 67, 74
5, 243600, Note_on_c, 0, 67, 0
5, 243720, Note_on_c, 0, 67, 73
5, 243840, Note_on_c, 0, 67, 0
5, 243960, Note_on_c, 0, 67, 72
5, 244080, Note_on_c, 0, 67, 0
5, 244200, Note_on_c, 0, 67, 70
5, 244320, Note_on_c, 0, 67, 0
5, 244440, Note_on_c, 0, 67, 69
5, 244560, Note_on_c, 0, 67, 0
5, 244680, Note_on_c, 0, 67, 68
5, 244800, Note_on_c, 0, 67, 0
5, 244920, Note_on_c, 0, 67, 77
5, 245040, Note_on_c, 0, 67, 0
5, 245040, Note_on_c, 0, 59, 88
5, 245160, Note_on_c, 0, 59, 0
5, 245160, Note_on_c, 0, 67, 83
5, 245280, Note_on_c, 0, 67, 0
5, 245400, Note_on_c, 0, 67, 82
5, 245520, Note_on_c, 0, 67, 0
5, 245640, Note_on_c, 0, 67, 81
5, 245760, Note_on_c, 0, 67, 0
5, 245880, Note_on_c, 0, 67, 80
5, 246000, Note_on_c, 0, 67, 0
5, 246120, Note_on_c, 0, 67, 79
5, 246240, Note_on_c, 0, 67, 0
5, 246360, Note_on_c, 0, 67, 78
5, 246480, Note_on_c, 0, 67, 0
5, 246600, Note_on_c, 0, 67, 77
5, 246720, Note_on_c, 0, 67, 0
5, 246840, Note_on_c, 0, 67, 75
5, 246960, Note_on_c, 0, 67, 0
5, 247080, Note_on_c, 0, 67, 74
5, 247200, Note_on_c, 0, 67, 0
5, 247320, Note_on_c, 0, 67, 73
5, 247440, Note_on_c, 0, 67, 0
5, 247560, Note_on_c, 0, 67, 72
5, 247680, Note_on_c, 0, 67, 0
5, 247800, Note_on_c, 0, 67, 71
5, 247920, Note_on_c, 0, 67, 0
5, 247920, Note_on_c, 0, 66, 71
5, 248040, Note_on_c, 0, 66, 0
5, 248040, Note_on_c, 0, 67, 70
5, 248160, Note_on_c, 0, 67, 0
5, 248160, Note_on_c, 0, 65, 70
5, 248280, Note_on_c, 0, 65, 0
5, 248280, Note_on_c, 0, 67, 69
5, 248400, Note_on_c, 0, 67, 0
5, 248520, Note_on_c, 0, 67, 68
5, 248640, Note_on_c, 0, 67, 0
5, 264000, Note_on_c, 0, 62, 83
5, 264000, Note_on_c, 0, 57, 83
5, 264480, Note_on_c, 0, 57, 0
5, 264480, Note_on_c, 0, 62, 0
5, 264480, Note_on_c, 0, 62, 88
5, 264480, Note_on_c, 0, 55, 88
5, 264960, Note_on_c, 0, 55, 0
5, 264960, Note_on_c, 0, 62, 0
5, 264960, Note_on_c, 0, 61, 94
5, 264960, Note_on_c, 0, 57, 94
5, 265800, Note_on_c, 0, 62, 87
5, 265807, Note_on_c, 0, 61, 0
5, 265920, Note_on_c, 0, 62, 0
5, 265920, Note_on_c, 0, 64, 86
5, 266400, Note_on_c, 0, 64, 0
5, 266400, Note_on_c, 0, 57, 0
5, 266400, Note_on_c, 0, 63, 90
5, 266400, Note_on_c, 0, 54, 90
5, 266880, Note_on_c, 0, 54, 0
5, 266880, Note_on_c, 0, 63, 0
5, 266880, Note_on_c, 0, 63, 92
5, 266880, Note_on_c, 0, 54, 92
5, 267600, Note_on_c, 0, 54, 0
5, 267600, Note_on_c, 0, 63, 0
5, 267600, Note_on_c, 0, 62, 92
5, 267600, Note_on_c, 0, 55, 92
5, 267840, Note_on_c, 0, 55, 0
5, 267840, Note_on_c, 0, 62, 0
5, 267840, Note_on_c, 0, 65, 97
5, 267840, Note_on_c, 0, 60, 97
5, 268320, Note_on_c, 0, 60, 0
5, 268320, Note_on_c, 0, 65, 0
5, 268320, Note_on_c, 0, 64, 88
5, 268320, Note_on_c, 0, 58, 88
5, 268800, Note_on_c, 0, 58, 0
5, 268800, Note_on_c, 0, 64, 0
5, 268800, Note_on_c, 0, 57, 83
5, 269280, Note_on_c, 0, 57, 0
5, 269280, Note_on_c, 0, 62, 84
5, 269520, Note_on_c, 0, 62, 0
5, 269520, Note_on_c, 0, 58, 82
5, 269760, Note_on_c, 0, 58, 0
5, 269760, Note_on_c, 0, 60, 79
5, 269760, Note_on_c, 0, 57, 79
5, 270240, Note_on_c, 0, 57, 0
5, 270240, Note_on_c, 0, 60, 0
5, 270240, Note_on_c, 0, 55, 75
5, 270240, Note_on_c, 0, 58, 75
5, 270720, Note_on_c, 0, 58, 0
5, 270720, Note_on_c, 0, 55, 0
5, 270720, Note_on_c, 0, 53, 71
5, 270720, Note_on_c, 0, 57, 71
5, 270960, Note_on_c, 0, 57, 0
5, 270960, Note_on_c, 0, 53, 0
5, 270960, Note_on_c, 0, 53, 69
5, 270960, Note_on_c, 0, 57, 69
5, 271200, Note_on_c, 0, 57, 0
5, 271200, Note_on_c, 0, 53, 0
5, 271200, Note_on_c, 0, 52, 67
5, 271200, Note_on_c, 0, 55, 67
5, 271680, Note_on_c, 0, 55, 0
5, 271680, Note_on_c, 0, 52, 0
5, 271680, Note_on_c, 0, 53, 63
5, 271680, Note_on_c, 0, 50, 63
5, 272160, Note_on_c, 0, 50, 0
5, 272160, Note_on_c, 0, 53, 0
5, 272280, Note_on_c, 0, 48, 62
5, 272400, Note_on_c, 0, 48, 0
5, 272400, Note_on_c, 0, 48, 63
5, 272520, Note_on_c, 0, 48, 0
5, 272520, Note_on_c, 0, 48, 64
5, 272640, Note_on_c, 0, 48, 0
5, 272760, Note_on_c, 0, 48, 67
5, 272880, Note_on_c, 0, 48, 0
5, 272880, Note_on_c, 0, 48, 68
5, 273000, Note_on_c, 0, 48, 0
5, 273000, Note_on_c, 0, 48, 70
5, 273120, Note_on_c, 0, 48, 0
5, 273240, Note_on_c, 0, 41, 72
5, 273360, Note_on_c, 0, 41, 0
5, 273360, Note_on_c, 0, 41, 74
5, 273480, Note_on_c, 0, 41, 0
5, 273480, Note_on_c, 0, 41, 75
5, 273600, Note_on_c, 0, 41, 0
5, 273720, Note_on_c, 0, 43, 76
5, 273840, Note_on_c, 0, 43, 0
5, 273840, Note_on_c, 0, 43, 74
5, 273960, Note_on_c, 0, 43, 0
5, 273960, Note_on_c, 0, 43, 73
5, 274080, Note_on_c, 0, 43, 0
5, 274200, Note_on_c, 0, 43, 70
5, 274320, Note_on_c, 0, 43, 0
5, 274440, Note_on_c, 0, 45, 67
5, 274560, Note_on_c, 0, 45, 0
5, 274680, Note_on_c, 0, 47, 65
5, 274800, Note_on_c, 0, 47, 0
5, 274920, Note_on_c, 0, 43, 62
5, 275040, Note_on_c, 0, 43, 0
5, 275160, Note_on_c, 0, 48, 61
5, 275238, Note_on_c, 0, 48, 0
5, 275280, Note_on_c, 0, 48, 62
5, 275358, Note_on_c, 0, 48, 0
5, 275400, Note_on_c, 0, 48, 64
5, 275478, Note_on_c, 0, 48, 0
5, 275640, Note_on_c, 0, 48, 66
5, 275718, Note_on_c, 0, 48, 0
5, 275760, Note_on_c, 0, 48, 67
5, 275838, Note_on_c, 0, 48, 0
5, 275880, Note_on_c, 0, 48, 69
5, 275958, Note_on_c, 0, 48, 0
5, 276120, Note_on_c, 0, 41, 71
5, 276198, Note_on_c, 0, 41, 0
5, 276240, Note_on_c, 0, 41, 72
5, 276318, Note_on_c, 0, 41, 0
5, 276360, Note_on_c, 0, 41, 74
5, 276438, Note_on_c, 0, 41, 0
5, 276600, Note_on_c, 0, 43, 77
5, 276720, Note_on_c, 0, 43, 0
5, 276840, Note_on_c, 0, 43, 75
5, 276960, Note_on_c, 0, 43, 0
5, 277080, Note_on_c, 0, 43, 74
5, 277200, Note_on_c, 0, 43, 0
5, 277320, Note_on_c, 0, 44, 72
5, 277440, Note_on_c, 0, 44, 0
5, 277560, Note_on_c, 0, 45, 71
5, 277680, Note_on_c, 0, 45, 0
5, 277800, Note_on_c, 0, 43, 70
5, 277920, Note_on_c, 0, 43, 0
5, 278040, Note_on_c, 0, 41, 68
5, 278160, Note_on_c, 0, 41, 0
5, 278280, Note_on_c, 0, 41, 67
5, 278400, Note_on_c, 0, 41, 0
5, 278520, Note_on_c, 0, 43, 65
5, 278640, Note_on_c, 0, 43, 0
5, 278760, Note_on_c, 0, 43, 64
5, 278880, Note_on_c, 0, 43, 0
5, 279000, Note_on_c, 0, 43, 63
5, 279120, Note_on_c, 0, 43, 0
5, 279240, Note_on_c, 0, 43, 61
5, 279360, Note_on_c, 0, 43, 0
5, 279360, Note_on_c, 0, 48, 60
5, 279840, Note_on_c, 0, 48, 0
5, 292320, Note_on_c, 0, 58, 90
5, 292800, Note_on_c, 0, 58, 0
5, 292800, Note_on_c, 0, 58, 94
5, 293280, Note_on_c, 0, 58, 0
5, 293280, Note_on_c, 0, 58, 99
5, 293760, Note_on_c, 0, 58, 0
5, 293760, Note_on_c, 0, 58, 103
5, 294480, Note_on_c, 0, 58, 0
5, 294480, Note_on_c, 0, 57, 85
5, 294720, Note_on_c, 0, 57, 0
5, 294720, Note_on_c, 0, 55, 82
5, 294960, Note_on_c, 0, 55, 0
5, 294960, Note_on_c, 0, 56, 79
5, 295200, Note_on_c, 0, 56, 0
5, 295200, Note_on_c, 0, 57, 86
5, 295200, Note_on_c, 0, 60, 86
5, 295680, Note_on_c, 0, 60, 0
5, 295680, Note_on_c, 0, 57, 0
5, 295680, Note_on_c, 0, 57, 89
5, 295680, Note_on_c, 0, 60, 89
5, 296160, Note_on_c, 0, 60, 0
5, 296160, Note_on_c, 0, 57, 0
5, 296160, Note_on_c, 0, 57, 92
5, 296160, Note_on_c, 0, 60, 92
5, 296640, Note_on_c, 0, 60, 0
5, 296640, Note_on_c, 0, 57, 0
5, 296640, Note_on_c, 0, 57, 97
5, 296640, Note_on_c, 0, 60, 97
5, 297360, Note_on_c, 0, 60, 0
5, 297360, Note_on_c, 0, 57, 0
5, 297360, Note_on_c, 0, 55, 91
5, 297360, Note_on_c, 0, 60, 91
5, 297600, Note_on_c, 0, 60, 0
5, 297600, Note_on_c, 0, 55, 0
5, 297600, Note_on_c, 0, 53, 86
5, 297600, Note_on_c, 0, 60, 86
5, 297840, Note_on_c, 0, 60, 0
5, 297840, Note_on_c, 0, 53, 0
5, 297840, Note_on_c, 0, 54, 82
5, 297840, Note_on_c, 0, 60, 82
5, 298080, Note_on_c, 0, 60, 0
5, 298080, Note_on_c, 0, 54, 0
5, 298080, Note_on_c, 0, 55, 84
5, 298080, Note_on_c, 0, 60, 84
5, 298560, Note_on_c, 0, 60, 0
5, 298560, Note_on_c, 0, 55, 0
5, 298560, Note_on_c, 0, 57, 89
5, 298560, Note_on_c, 0, 60, 89
5, 298800, Note_on_c, 0, 60, 0
5, 298800, Note_on_c, 0, 57, 0
5, 298800, Note_on_c, 0, 55, 91
5, 298800, Note_on_c, 0, 60, 91
5, 299040, Note_on_c, 0, 60, 0
5, 299040, Note_on_c, 0, 55, 0
5, 299040, Note_on_c, 0, 53, 93
5, 299040, Note_on_c, 0, 59, 93
5, 299280, Note_on_c, 0, 59, 0
5, 299280, Note_on_c, 0, 53, 0
5, 299280, Note_on_c, 0, 52, 95
5, 299520, Note_on_c, 0, 52, 0
5, 299520, Note_on_c, 0, 60, 108
5, 300240, Note_on_c, 0, 60, 0
5, 300240, Note_on_c, 0, 62, 113
5, 300480, Note_on_c, 0, 62, 0
5, 300480, Note_on_c, 0, 64, 115
5, 300720, Note_on_c, 0, 64, 0
5, 300720, End_track
0, 0, End_of_file
