0, 0, Header, 1, 5, 480
1, 0, Start_track
1, 0, Title_t, "Untitled"
1, 0, Time_signature, 2, 2, 24, 8
1, 0, Key_signature, 0, "major"
1, 0, Tempo, 600000
1, 0, Marker_t, "Beethoven"
1, 720, Tempo, 526316
1, 960, Tempo, 517241
1, 960, Marker_t, "Piano Variations"
1, 1762, Tempo, 526316
1, 1920, Tempo, 517241
1, 1920, Marker_t, "Rule, Britannia"
1, 2707, Tempo, 535714
1, 2880, Tempo, 526316
1, 2880, Marker_t, "Bunji Hisamori"
1, 3840, Marker_t, "July 1998"
1, 3855, Tempo, 535714
1, 4440, Tempo, 540541
1, 4560, Tempo, 517241
1, 4770, Tempo, 526316
1, 4800, Tempo, 517241
1, 5700, Tempo, 540541
1, 6000, Tempo, 526316
1, 6660, Tempo, 540541
1, 6720, Tempo, 526316
1, 7550, Tempo, 560748
1, 7810, Tempo, 517241
1, 8580, Tempo, 540541
1, 8880, Tempo, 526316
1, 9487, Tempo, 535714
1, 9600, Tempo, 517241
1, 10500, Tempo, 526316
1, 10560, Tempo, 526316
1, 11040, Tempo, 535714
1, 11392, Tempo, 550459
1, 11570, Tempo, 517241
1, 12370, Tempo, 535714
1, 12480, Tempo, 526316
1, 13330, Tempo, 535714
1, 13510, Tempo, 517241
1, 13740, Tempo, 526316
1, 13920, Tempo, 560748
1, 14160, Tempo, 571429
1, 14400, Tempo, 526316
1, 15172, Tempo, 540541
1, 15360, Tempo, 517241
1, 15960, Tempo, 550459
1, 16100, Tempo, 535714
1, 16320, Tempo, 526316
1, 17030, Tempo, 560748
1, 17280, Tempo, 526316
1, 17760, Tempo, 535714
1, 17960, Tempo, 535714
1, 18240, Tempo, 526316
1, 19140, Tempo, 526316
1, 19200, Tempo, 517241
1, 19972, Tempo, 526316
1, 20520, Tempo, 540541
1, 20640, Tempo, 550459
1, 20680, Tempo, 540541
1, 20940, Tempo, 550459
1, 21080, Tempo, 560748
1, 21600, Tempo, 571429
1, 22080, Tempo, 535714
1, 22980, Tempo, 540541
1, 23040, Tempo, 535714
1, 23940, Tempo, 540541
1, 24000, Tempo, 535714
1, 24830, Tempo, 540541
1, 24960, Tempo, 535714
1, 25815, Tempo, 540541
1, 25920, Tempo, 535714
1, 26820, Tempo, 540541
1, 26880, Tempo, 526316
1, 27540, Tempo, 535714
1, 27710, Tempo, 540541
1, 28267, Tempo, 571429
1, 28320, Tempo, 582524
1, 28360, Tempo, 571429
1, 28380, Tempo, 560748
1, 28680, Tempo, 571429
1, 28740, Tempo, 582524
1, 28800, Tempo, 600000
1, 28920, Tempo, 722892
1, 29030, Tempo, 869565
1, 29760, Time_signature, 6, 3, 12, 8
1, 29760, Tempo, 413793
1, 29760, Marker_t, "1"
1, 30967, Tempo, 419580
1, 31270, Tempo, 413793
1, 32530, Tempo, 419580
1, 32640, Tempo, 413793
1, 34020, Tempo, 419580
1, 34150, Tempo, 413793
1, 35400, Tempo, 419580
1, 35520, Tempo, 413793
1, 36840, Tempo, 419580
1, 36900, Tempo, 425532
1, 36960, Tempo, 413793
1, 38340, Tempo, 419580
1, 38400, Tempo, 413793
1, 39780, Tempo, 419580
1, 39840, Tempo, 413793
1, 41220, Tempo, 419580
1, 41280, Tempo, 413793
1, 42660, Tempo, 419580
1, 42720, Tempo, 413793
1, 44100, Tempo, 419580
1, 44160, Tempo, 413793
1, 45540, Tempo, 419580
1, 45600, Tempo, 413793
1, 46920, Tempo, 419580
1, 46980, Tempo, 425532
1, 47250, Tempo, 413793
1, 49160, Tempo, 419580
1, 49860, Tempo, 425532
1, 50220, Tempo, 413793
1, 51250, Tempo, 419580
1, 51360, Tempo, 413793
1, 52700, Tempo, 419580
1, 53055, Tempo, 413793
1, 54180, Tempo, 419580
1, 54240, Tempo, 413793
1, 55570, Tempo, 419580
1, 55800, Tempo, 413793
1, 57060, Tempo, 419580
1, 57330, Tempo, 413793
1, 58440, Tempo, 419580
1, 58500, Tempo, 425532
1, 58700, Tempo, 413793
1, 60660, Tempo, 419580
1, 61320, Tempo, 425532
1, 61740, Tempo, 413793
1, 62770, Tempo, 419580
1, 62950, Tempo, 413793
1, 64200, Tempo, 419580
1, 64440, Tempo, 413793
1, 65700, Tempo, 419580
1, 65830, Tempo, 413793
1, 67080, Tempo, 419580
1, 67335, Tempo, 413793
1, 68580, Tempo, 419580
1, 68710, Tempo, 413793
1, 70020, Tempo, 419580
1, 70190, Tempo, 413793
1, 72200, Tempo, 419580
1, 72820, Tempo, 425532
1, 73380, Tempo, 434783
1, 73560, Tempo, 447761
1, 74160, Tempo, 895522
1, 74400, Time_signature, 2, 2, 24, 8
1, 74400, Tempo, 517241
1, 74400, Marker_t, "2"
1, 75300, Tempo, 526316
1, 75360, Tempo, 517241
1, 78660, Tempo, 526316
1, 78720, Tempo, 517241
1, 82500, Tempo, 526316
1, 82560, Tempo, 517241
1, 86340, Tempo, 526316
1, 86400, Tempo, 517241
1, 88200, Tempo, 526316
1, 88320, Tempo, 517241
1, 92100, Tempo, 526316
1, 92160, Tempo, 517241
1, 94260, Tempo, 526316
1, 94320, Tempo, 517241
1, 95940, Tempo, 526316
1, 96000, Tempo, 517241
1, 99780, Tempo, 526316
1, 99840, Tempo, 517241
1, 101940, Tempo, 526316
1, 102000, Tempo, 517241
1, 103140, Tempo, 526316
1, 103320, Tempo, 535714
1, 103440, Tempo, 612245
1, 104160, Tempo, 750000
1, 104160, Marker_t, "3"
1, 104880, Tempo, 638298
1, 105060, Tempo, 652174
1, 105120, Tempo, 638298
1, 106020, Tempo, 652174
1, 106080, Tempo, 638298
1, 106980, Tempo, 652174
1, 107040, Tempo, 638298
1, 107940, Tempo, 652174
1, 108000, Tempo, 638298
1, 108900, Tempo, 652174
1, 108960, Tempo, 638298
1, 109860, Tempo, 652174
1, 109970, Tempo, 638298
1, 110760, Tempo, 652174
1, 110820, Tempo, 674157
1, 110880, Tempo, 638298
1, 111780, Tempo, 652174
1, 111840, Tempo, 638298
1, 112740, Tempo, 652174
1, 112800, Tempo, 638298
1, 113700, Tempo, 652174
1, 113760, Tempo, 638298
1, 114660, Tempo, 652174
1, 114720, Tempo, 638298
1, 115620, Tempo, 652174
1, 115680, Tempo, 638298
1, 116580, Tempo, 652174
1, 116640, Tempo, 638298
1, 117540, Tempo, 674157
1, 117600, Tempo, 638298
1, 118440, Tempo, 652174
1, 118500, Tempo, 722892
1, 118560, Tempo, 638298
1, 119460, Tempo, 652174
1, 119520, Tempo, 638298
1, 120420, Tempo, 652174
1, 120480, Tempo, 638298
1, 121320, Tempo, 652174
1, 121380, Tempo, 674157
1, 121440, Tempo, 638298
1, 122340, Tempo, 652174
1, 122400, Tempo, 638298
1, 123300, Tempo, 652174
1, 123360, Tempo, 638298
1, 124260, Tempo, 652174
1, 124320, Tempo, 638298
1, 125220, Tempo, 652174
1, 125280, Tempo, 638298
1, 126120, Tempo, 652174
1, 126180, Tempo, 674157
1, 126240, Tempo, 638298
1, 127140, Tempo, 652174
1, 127200, Tempo, 638298
1, 128100, Tempo, 652174
1, 128160, Tempo, 638298
1, 129060, Tempo, 652174
1, 129120, Tempo, 638298
1, 130020, Tempo, 652174
1, 130080, Tempo, 638298
1, 130980, Tempo, 652174
1, 131040, Tempo, 638298
1, 131940, Tempo, 652174
1, 132000, Tempo, 638298
1, 132840, Tempo, 652174
1, 133335, Tempo, 659341
1, 133440, Tempo, 1071429
1, 133920, Tempo, 500000
1, 133920, Marker_t, "4"
1, 134400, Tempo, 500000
1, 134840, Tempo, 508475
1, 134880, Tempo, 500000
1, 135800, Tempo, 508475
1, 135840, Tempo, 500000
1, 139640, Tempo, 508475
1, 139680, Tempo, 500000
1, 141560, Tempo, 508475
1, 141600, Tempo, 500000
1, 142520, Tempo, 508475
1, 142560, Tempo, 500000
1, 143480, Tempo, 508475
1, 143520, Tempo, 500000
1, 144440, Tempo, 508475
1, 144480, Tempo, 500000
1, 146520, Tempo, 508475
1, 148200, Tempo, 517241
1, 149100, Tempo, 526316
1, 149170, Tempo, 535714
1, 149280, Tempo, 500000
1, 150200, Tempo, 517241
1, 150240, Tempo, 500000
1, 151160, Tempo, 508475
1, 151200, Tempo, 500000
1, 153080, Tempo, 508475
1, 153120, Tempo, 500000
1, 155000, Tempo, 508475
1, 155040, Tempo, 500000
1, 156795, Tempo, 508475
1, 156862, Tempo, 517241
1, 156960, Tempo, 500000
1, 157860, Tempo, 508475
1, 157920, Tempo, 500000
1, 158840, Tempo, 508475
1, 158880, Tempo, 500000
1, 159800, Tempo, 508475
1, 159840, Tempo, 500000
1, 160760, Tempo, 508475
1, 160800, Tempo, 500000
1, 161720, Tempo, 508475
1, 161760, Tempo, 500000
1, 162600, Tempo, 508475
1, 163430, Tempo, 517241
1, 163560, Tempo, 550459
1, 163680, Tempo, 750000
1, 164160, Tempo, 1818182
1, 164640, Tempo, 441176
1, 164640, Marker_t, "5"
1, 165540, Tempo, 447761
1, 165600, Tempo, 441176
1, 167460, Tempo, 447761
1, 167520, Tempo, 441176
1, 169380, Tempo, 447761
1, 169440, Tempo, 441176
1, 171300, Tempo, 447761
1, 171360, Tempo, 441176
1, 172260, Tempo, 447761
1, 172320, Tempo, 441176
1, 173220, Tempo, 447761
1, 173280, Tempo, 441176
1, 174180, Tempo, 447761
1, 174240, Tempo, 441176
1, 176100, Tempo, 447761
1, 176160, Tempo, 441176
1, 177900, Tempo, 447761
1, 177975, Tempo, 454545
1, 178140, Tempo, 441176
1, 179000, Tempo, 447761
1, 179040, Tempo, 441176
1, 180920, Tempo, 447761
1, 180960, Tempo, 441176
1, 182840, Tempo, 447761
1, 182880, Tempo, 441176
1, 184740, Tempo, 447761
1, 184800, Tempo, 441176
1, 185700, Tempo, 447761
1, 185840, Tempo, 441176
1, 186540, Tempo, 447761
1, 186600, Tempo, 454545
1, 186720, Tempo, 441176
1, 188600, Tempo, 447761
1, 188640, Tempo, 441176
1, 190500, Tempo, 447761
1, 190560, Tempo, 441176
1, 192440, Tempo, 447761
1, 192480, Tempo, 441176
1, 193260, Tempo, 447761
1, 193310, Tempo, 454545
1, 193440, Tempo, 441176
1, 194360, Tempo, 447761
1, 194400, Tempo, 441176
1, 195320, Tempo, 447761
1, 195360, Tempo, 441176
1, 196200, Tempo, 461538
1, 196320, Tempo, 441176
1, 197240, Tempo, 447761
1, 197280, Tempo, 441176
1, 198120, Tempo, 461538
1, 198240, Tempo, 441176
1, 199160, Tempo, 447761
1, 199200, Tempo, 441176
1, 200120, Tempo, 447761
1, 200160, Tempo, 441176
1, 201080, Tempo, 447761
1, 201120, Tempo, 441176
1, 201960, Tempo, 461538
1, 202080, Tempo, 441176
1, 203000, Tempo, 447761
1, 203040, Tempo, 441176
1, 203960, Tempo, 447761
1, 204000, Tempo, 441176
1, 204920, Tempo, 447761
1, 205640, Tempo, 454545
1, 205800, Tempo, 540541
1, 205920, Tempo, 441176
1, 206840, Tempo, 447761
1, 206880, Tempo, 441176
1, 207705, Tempo, 495868
1, 207840, Tempo, 441176
1, 208760, Tempo, 447761
1, 208800, Tempo, 441176
1, 209655, Tempo, 472441
1, 209760, Tempo, 441176
1, 210680, Tempo, 447761
1, 210720, Tempo, 441176
1, 211567, Tempo, 472441
1, 211680, Tempo, 441176
1, 212600, Tempo, 447761
1, 212640, Tempo, 441176
1, 213487, Tempo, 472441
1, 213600, Tempo, 441176
1, 214520, Tempo, 447761
1, 214560, Tempo, 441176
1, 215480, Tempo, 447761
1, 215520, Tempo, 441176
1, 216440, Tempo, 447761
1, 216480, Tempo, 441176
1, 217260, Tempo, 447761
1, 217800, Tempo, 454545
1, 218060, Tempo, 461538
1, 218182, Tempo, 500000
1, 218400, Tempo, 441176
1, 219320, Tempo, 472441
1, 219360, Tempo, 441176
1, 220200, Tempo, 447761
1, 220320, Tempo, 441176
1, 224040, Tempo, 447761
1, 224160, Tempo, 441176
1, 229620, Tempo, 447761
1, 229807, Tempo, 495868
1, 229920, Tempo, 447761
1, 230780, Tempo, 461538
1, 231840, Tempo, 441176
1, 232760, Tempo, 447761
1, 232800, Tempo, 441176
1, 233720, Tempo, 447761
1, 233760, Tempo, 441176
1, 234680, Tempo, 447761
1, 234720, Tempo, 441176
1, 236520, Tempo, 487805
1, 236640, Tempo, 441176
1, 239280, Tempo, 447761
1, 240390, Tempo, 454545
1, 241320, Tempo, 461538
1, 241440, Tempo, 535714
1, 242400, Tempo, 500000
1, 243270, Tempo, 722892
1, 243270, End_track
2, 0, Start_track
2, 0, Title_t, "Beethoven"
2, 0, Control_c, 0, 0, 0
2, 0, Control_c, 0, 7, 115
2, 0, Control_c, 0, 10, 79
2, 0, Control_c, 0, 91, 100
2, 0, Control_c, 0, 93, 28
2, 0, Pitch_bend_c, 0, 8192
2, 0, Control_c, 0, 1, 0
2, 0, Control_c, 0, 64, 0
2, 1, Control_c, 0, 32, 0
2, 1, Program_c, 0, 0
2, 720, Note_on_c, 0, 69, 91
2, 876, Note_on_c, 0, 69, 0
2, 960, Note_on_c, 0, 74, 93
2, 1440, Note_on_c, 0, 74, 0
2, 1440, Note_on_c, 0, 74, 96
2, 1920, Note_on_c, 0, 74, 0
2, 1920, Note_on_c, 0, 74, 99
2, 2040, Note_on_c, 0, 76, 99
2, 2062, Note_on_c, 0, 74, 0
2, 2160, Note_on_c, 0, 76, 0
2, 2160, Note_on_c, 0, 78, 98
2, 2280, Note_on_c, 0, 78, 0
2, 2280, Note_on_c, 0, 79, 97
2, 2400, Note_on_c, 0, 79, 0
2, 2400, Note_on_c, 0, 81, 97
2, 2556, Note_on_c, 0, 81, 0
2, 2640, Note_on_c, 0, 74, 96
2, 2796, Note_on_c, 0, 74, 0
2, 2880, Note_on_c, 0, 76, 95
2, 3360, Note_on_c, 0, 76, 0
2, 3360, Note_on_c, 0, 76, 92
2, 3600, Note_on_c, 0, 76, 0
2, 3600, Note_on_c, 0, 78, 91
2, 3720, Note_on_c, 0, 78, 0
2, 3720, Note_on_c, 0, 79, 90
2, 3840, Note_on_c, 0, 79, 0
2, 3840, Note_on_c, 0, 78, 90
2, 4320, Note_on_c, 0, 78, 0
2, 4560, Note_on_c, 0, 69, 88
2, 4716, Note_on_c, 0, 69, 0
2, 4800, Note_on_c, 0, 74, 89
2, 4920, Note_on_c, 0, 74, 0
2, 4920, Note_on_c, 0, 76, 89
2, 5040, Note_on_c, 0, 76, 0
2, 5040, Note_on_c, 0, 74, 90
2, 5160, Note_on_c, 0, 74, 0
2, 5160, Note_on_c, 0, 76, 90
2, 5280, Note_on_c, 0, 76, 0
2, 5280, Note_on_c, 0, 78, 91
2, 5400, Note_on_c, 0, 78, 0
2, 5400, Note_on_c, 0, 79, 92
2, 5520, Note_on_c, 0, 79, 0
2, 5520, Note_on_c, 0, 78, 92
2, 5640, Note_on_c, 0, 78, 0
2, 5640, Note_on_c, 0, 79, 93
2, 5760, Note_on_c, 0, 79, 0
2, 5760, Note_on_c, 0, 81, 93
2, 5916, Note_on_c, 0, 81, 0
2, 6000, Note_on_c, 0, 76, 94
2, 6132, Note_on_c, 0, 76, 0
2, 6240, Note_on_c, 0, 78, 95
2, 6372, Note_on_c, 0, 78, 0
2, 6480, Note_on_c, 0, 76, 96
2, 6612, Note_on_c, 0, 76, 0
2, 6720, Note_on_c, 0, 74, 98
2, 6960, Note_on_c, 0, 74, 0
2, 6960, Note_on_c, 0, 76, 96
2, 7080, Note_on_c, 0, 76, 0
2, 7080, Note_on_c, 0, 78, 95
2, 7200, Note_on_c, 0, 78, 0
2, 7200, Note_on_c, 0, 76, 94
2, 7440, Note_on_c, 0, 76, 0
2, 7440, Note_on_c, 0, 74, 92
2, 7680, Note_on_c, 0, 74, 0
2, 7680, Note_on_c, 0, 73, 90
2, 7800, Note_on_c, 0, 73, 0
2, 7800, Note_on_c, 0, 81, 93
2, 7896, Note_on_c, 0, 81, 0
2, 7920, Note_on_c, 0, 81, 92
2, 8016, Note_on_c, 0, 81, 0
2, 8040, Note_on_c, 0, 81, 92
2, 8136, Note_on_c, 0, 81, 0
2, 8160, Note_on_c, 0, 81, 91
2, 8280, Note_on_c, 0, 81, 0
2, 8280, Note_on_c, 0, 69, 90
2, 8376, Note_on_c, 0, 69, 0
2, 8400, Note_on_c, 0, 69, 89
2, 8496, Note_on_c, 0, 69, 0
2, 8520, Note_on_c, 0, 69, 89
2, 8616, Note_on_c, 0, 69, 0
2, 8640, Note_on_c, 0, 69, 88
2, 8796, Note_on_c, 0, 69, 0
2, 8880, Note_on_c, 0, 69, 89
2, 9012, Note_on_c, 0, 69, 0
2, 9120, Note_on_c, 0, 76, 90
2, 9252, Note_on_c, 0, 76, 0
2, 9360, Note_on_c, 0, 73, 90
2, 9492, Note_on_c, 0, 73, 0
2, 9600, Note_on_c, 0, 81, 91
2, 9840, Note_on_c, 0, 81, 0
2, 9840, Note_on_c, 0, 80, 92
2, 9960, Note_on_c, 0, 80, 0
2, 9960, Note_on_c, 0, 78, 93
2, 10080, Note_on_c, 0, 78, 0
2, 10080, Note_on_c, 0, 76, 93
2, 10200, Note_on_c, 0, 76, 0
2, 10200, Note_on_c, 0, 74, 94
2, 10320, Note_on_c, 0, 74, 0
2, 10320, Note_on_c, 0, 73, 94
2, 10440, Note_on_c, 0, 73, 0
2, 10440, Note_on_c, 0, 71, 95
2, 10560, Note_on_c, 0, 71, 0
2, 10560, Note_on_c, 0, 71, 97
2, 10800, Note_on_c, 0, 73, 95
2, 11040, Note_on_c, 0, 73, 0
2, 11040, Note_on_c, 0, 71, 0
2, 11040, Note_on_c, 0, 71, 92
2, 11520, Note_on_c, 0, 71, 0
2, 11520, Note_on_c, 0, 69, 88
2, 11640, Note_on_c, 0, 69, 0
2, 11640, Note_on_c, 0, 81, 94
2, 11718, Note_on_c, 0, 81, 0
2, 11760, Note_on_c, 0, 81, 92
2, 11838, Note_on_c, 0, 81, 0
2, 11880, Note_on_c, 0, 81, 90
2, 11958, Note_on_c, 0, 81, 0
2, 12000, Note_on_c, 0, 81, 88
2, 12156, Note_on_c, 0, 81, 0
2, 12240, Note_on_c, 0, 76, 91
2, 12372, Note_on_c, 0, 76, 0
2, 12480, Note_on_c, 0, 78, 92
2, 12612, Note_on_c, 0, 78, 0
2, 12720, Note_on_c, 0, 81, 93
2, 12960, Note_on_c, 0, 74, 95
2, 12984, Note_on_c, 0, 81, 0
2, 13092, Note_on_c, 0, 74, 0
2, 13200, Note_on_c, 0, 80, 96
2, 13332, Note_on_c, 0, 80, 0
2, 13440, Note_on_c, 0, 81, 97
2, 13560, Note_on_c, 0, 81, 0
2, 13560, Note_on_c, 0, 69, 96
2, 13638, Note_on_c, 0, 69, 0
2, 13680, Note_on_c, 0, 69, 95
2, 13758, Note_on_c, 0, 69, 0
2, 13800, Note_on_c, 0, 69, 95
2, 13878, Note_on_c, 0, 69, 0
2, 13920, Note_on_c, 0, 69, 94
2, 14076, Note_on_c, 0, 69, 0
2, 14160, Note_on_c, 0, 69, 93
2, 14316, Note_on_c, 0, 69, 0
2, 14400, Note_on_c, 0, 74, 97
2, 14880, Note_on_c, 0, 74, 0
2, 14880, Note_on_c, 0, 74, 94
2, 15012, Note_on_c, 0, 74, 0
2, 15120, Note_on_c, 0, 69, 93
2, 15240, Note_on_c, 0, 69, 0
2, 15360, Note_on_c, 0, 71, 92
2, 15480, Note_on_c, 0, 71, 0
2, 15600, Note_on_c, 0, 67, 91
2, 15720, Note_on_c, 0, 67, 0
2, 16080, Note_on_c, 0, 71, 93
2, 16224, Note_on_c, 0, 71, 0
2, 16320, Note_on_c, 0, 79, 94
2, 16452, Note_on_c, 0, 79, 0
2, 16560, Note_on_c, 0, 78, 96
2, 16692, Note_on_c, 0, 78, 0
2, 16800, Note_on_c, 0, 76, 97
2, 16932, Note_on_c, 0, 76, 0
2, 17040, Note_on_c, 0, 74, 99
2, 17172, Note_on_c, 0, 74, 0
2, 17280, Note_on_c, 0, 69, 100
2, 17760, Note_on_c, 0, 69, 0
2, 18000, Note_on_c, 0, 76, 98
2, 18156, Note_on_c, 0, 76, 0
2, 18240, Note_on_c, 0, 81, 105
2, 18720, Note_on_c, 0, 81, 0
2, 18720, Note_on_c, 0, 79, 101
2, 19200, Note_on_c, 0, 79, 0
2, 19200, Note_on_c, 0, 78, 97
2, 19320, Note_on_c, 0, 78, 0
2, 19440, Note_on_c, 0, 79, 95
2, 19560, Note_on_c, 0, 79, 0
2, 19680, Note_on_c, 0, 81, 94
2, 19836, Note_on_c, 0, 81, 0
2, 19920, Note_on_c, 0, 74, 92
2, 20076, Note_on_c, 0, 74, 0
2, 20160, Note_on_c, 0, 69, 90
2, 20640, Note_on_c, 0, 69, 0
2, 20640, Note_on_c, 0, 76, 83
2, 20680, Note_on_c, 0, 76, 0
2, 20680, Note_on_c, 0, 78, 80
2, 20720, Note_on_c, 0, 78, 0
2, 20720, Note_on_c, 0, 76, 80
2, 20760, Note_on_c, 0, 76, 0
2, 20760, Note_on_c, 0, 78, 80
2, 20800, Note_on_c, 0, 78, 0
2, 20800, Note_on_c, 0, 76, 81
2, 20840, Note_on_c, 0, 76, 0
2, 20840, Note_on_c, 0, 78, 81
2, 20880, Note_on_c, 0, 78, 0
2, 20880, Note_on_c, 0, 76, 81
2, 20920, Note_on_c, 0, 76, 0
2, 20920, Note_on_c, 0, 78, 82
2, 20960, Note_on_c, 0, 78, 0
2, 20960, Note_on_c, 0, 76, 82
2, 21000, Note_on_c, 0, 76, 0
2, 21000, Note_on_c, 0, 74, 83
2, 21060, Note_on_c, 0, 74, 0
2, 21060, Note_on_c, 0, 76, 83
2, 21120, Note_on_c, 0, 76, 0
2, 21120, Note_on_c, 0, 74, 85
2, 21600, Note_on_c, 0, 74, 0
2, 22080, Note_on_c, 0, 78, 106
2, 22560, Note_on_c, 0, 78, 0
2, 22800, Note_on_c, 0, 78, 105
2, 22956, Note_on_c, 0, 78, 0
2, 23040, Note_on_c, 0, 79, 106
2, 23184, Note_on_c, 0, 79, 0
2, 23280, Note_on_c, 0, 79, 107
2, 23407, Note_on_c, 0, 79, 0
2, 23760, Note_on_c, 0, 78, 108
2, 23892, Note_on_c, 0, 78, 0
2, 24000, Note_on_c, 0, 79, 111
2, 24132, Note_on_c, 0, 79, 0
2, 24240, Note_on_c, 0, 78, 110
2, 24372, Note_on_c, 0, 78, 0
2, 24480, Note_on_c, 0, 76, 108
2, 24612, Note_on_c, 0, 76, 0
2, 24720, Note_on_c, 0, 74, 107
2, 24852, Note_on_c, 0, 74, 0
2, 24960, Note_on_c, 0, 69, 106
2, 25440, Note_on_c, 0, 69, 0
2, 25680, Note_on_c, 0, 76, 110
2, 25836, Note_on_c, 0, 76, 0
2, 25920, Note_on_c, 0, 81, 115
2, 26400, Note_on_c, 0, 81, 0
2, 26400, Note_on_c, 0, 79, 111
2, 26880, Note_on_c, 0, 79, 0
2, 26880, Note_on_c, 0, 78, 108
2, 27000, Note_on_c, 0, 78, 0
2, 27120, Note_on_c, 0, 79, 106
2, 27240, Note_on_c, 0, 79, 0
2, 27360, Note_on_c, 0, 81, 104
2, 27516, Note_on_c, 0, 81, 0
2, 27600, Note_on_c, 0, 74, 102
2, 27756, Note_on_c, 0, 74, 0
2, 27840, Note_on_c, 0, 69, 100
2, 28320, Note_on_c, 0, 69, 0
2, 28320, Note_on_c, 0, 76, 97
2, 28360, Note_on_c, 0, 78, 94
2, 28380, Note_on_c, 0, 76, 0
2, 28400, Note_on_c, 0, 76, 94
2, 28420, Note_on_c, 0, 78, 0
2, 28440, Note_on_c, 0, 78, 95
2, 28460, Note_on_c, 0, 76, 0
2, 28480, Note_on_c, 0, 76, 95
2, 28500, Note_on_c, 0, 78, 0
2, 28520, Note_on_c, 0, 78, 96
2, 28540, Note_on_c, 0, 76, 0
2, 28560, Note_on_c, 0, 76, 97
2, 28580, Note_on_c, 0, 78, 0
2, 28600, Note_on_c, 0, 78, 97
2, 28620, Note_on_c, 0, 76, 0
2, 28640, Note_on_c, 0, 76, 98
2, 28660, Note_on_c, 0, 78, 0
2, 28680, Note_on_c, 0, 74, 98
2, 28702, Note_on_c, 0, 76, 0
2, 28740, Note_on_c, 0, 74, 0
2, 28740, Note_on_c, 0, 76, 99
2, 28800, Note_on_c, 0, 76, 0
2, 28800, Note_on_c, 0, 74, 100
2, 29280, Note_on_c, 0, 74, 0
2, 32880, Note_on_c, 0, 62, 66
2, 33120, Note_on_c, 0, 62, 0
2, 33120, Note_on_c, 0, 66, 67
2, 33360, Note_on_c, 0, 66, 0
2, 33360, Note_on_c, 0, 69, 67
2, 33820, Note_on_c, 0, 69, 0
2, 33840, Note_on_c, 0, 69, 69
2, 34320, Note_on_c, 0, 67, 70
2, 34340, Note_on_c, 0, 69, 0
2, 35020, Note_on_c, 0, 67, 0
2, 35040, Note_on_c, 0, 67, 72
2, 35760, Note_on_c, 0, 66, 74
2, 35780, Note_on_c, 0, 67, 0
2, 36000, Note_on_c, 0, 66, 0
2, 36000, Note_on_c, 0, 62, 71
2, 36240, Note_on_c, 0, 62, 0
2, 38160, Note_on_c, 0, 78, 68
2, 39120, Note_on_c, 0, 78, 0
2, 39600, Note_on_c, 0, 64, 67
2, 40560, Note_on_c, 0, 64, 0
2, 41040, Note_on_c, 0, 74, 71
2, 41760, Note_on_c, 0, 74, 0
2, 42480, Note_on_c, 0, 81, 67
2, 42636, Note_on_c, 0, 81, 0
2, 43200, Note_on_c, 0, 76, 71
2, 43356, Note_on_c, 0, 76, 0
2, 43920, Note_on_c, 0, 73, 77
2, 44076, Note_on_c, 0, 73, 0
2, 44640, Note_on_c, 0, 69, 82
2, 44796, Note_on_c, 0, 69, 0
2, 45360, Note_on_c, 0, 64, 88
2, 46080, Note_on_c, 0, 64, 0
2, 46080, Note_on_c, 0, 64, 94
2, 46800, Note_on_c, 0, 64, 0
2, 46800, Note_on_c, 0, 62, 100
2, 47040, Note_on_c, 0, 62, 0
2, 47040, Note_on_c, 0, 61, 109
2, 47196, Note_on_c, 0, 61, 0
2, 47280, Note_on_c, 0, 69, 90
2, 47436, Note_on_c, 0, 69, 0
2, 47520, Note_on_c, 0, 69, 82
2, 47676, Note_on_c, 0, 69, 0
2, 47760, Note_on_c, 0, 69, 76
2, 47916, Note_on_c, 0, 69, 0
2, 48000, Note_on_c, 0, 69, 75
2, 48156, Note_on_c, 0, 69, 0
2, 48240, Note_on_c, 0, 69, 73
2, 48396, Note_on_c, 0, 69, 0
2, 48480, Note_on_c, 0, 69, 71
2, 48636, Note_on_c, 0, 69, 0
2, 48720, Note_on_c, 0, 69, 69
2, 48876, Note_on_c, 0, 69, 0
2, 48960, Note_on_c, 0, 69, 68
2, 49116, Note_on_c, 0, 69, 0
2, 49200, Note_on_c, 0, 69, 72
2, 49356, Note_on_c, 0, 69, 0
2, 49440, Note_on_c, 0, 69, 68
2, 49596, Note_on_c, 0, 69, 0
2, 49680, Note_on_c, 0, 69, 65
2, 49836, Note_on_c, 0, 69, 0
2, 49920, Note_on_c, 0, 69, 64
2, 50076, Note_on_c, 0, 69, 0
2, 50160, Note_on_c, 0, 68, 62
2, 50400, Note_on_c, 0, 68, 0
2, 50400, Note_on_c, 0, 69, 63
2, 50640, Note_on_c, 0, 69, 0
2, 50640, Note_on_c, 0, 68, 63
2, 50880, Note_on_c, 0, 68, 0
2, 50880, Note_on_c, 0, 69, 63
2, 51120, Note_on_c, 0, 69, 0
2, 51120, Note_on_c, 0, 68, 64
2, 51360, Note_on_c, 0, 68, 0
2, 51360, Note_on_c, 0, 69, 64
2, 53040, Note_on_c, 0, 69, 0
2, 53040, Note_on_c, 0, 67, 67
2, 53280, Note_on_c, 0, 67, 0
2, 53280, Note_on_c, 0, 66, 68
2, 53520, Note_on_c, 0, 66, 0
2, 53520, Note_on_c, 0, 67, 68
2, 53760, Note_on_c, 0, 67, 0
2, 53760, Note_on_c, 0, 79, 69
2, 54000, Note_on_c, 0, 79, 0
2, 54000, Note_on_c, 0, 78, 69
2, 54240, Note_on_c, 0, 78, 0
2, 54240, Note_on_c, 0, 79, 68
2, 55440, Note_on_c, 0, 79, 0
2, 55440, Note_on_c, 0, 76, 74
2, 55680, Note_on_c, 0, 76, 0
2, 55680, Note_on_c, 0, 73, 76
2, 55872, Note_on_c, 0, 73, 0
2, 55920, Note_on_c, 0, 67, 77
2, 56160, Note_on_c, 0, 67, 0
2, 56160, Note_on_c, 0, 66, 78
2, 56400, Note_on_c, 0, 66, 0
2, 56400, Note_on_c, 0, 67, 79
2, 56640, Note_on_c, 0, 67, 0
2, 56640, Note_on_c, 0, 70, 81
2, 56880, Note_on_c, 0, 70, 0
2, 56880, Note_on_c, 0, 69, 82
2, 57120, Note_on_c, 0, 69, 0
2, 57120, Note_on_c, 0, 70, 83
2, 57360, Note_on_c, 0, 70, 0
2, 57360, Note_on_c, 0, 82, 85
2, 57600, Note_on_c, 0, 82, 0
2, 57600, Note_on_c, 0, 81, 87
2, 57840, Note_on_c, 0, 81, 0
2, 57840, Note_on_c, 0, 82, 90
2, 58080, Note_on_c, 0, 82, 0
2, 58080, Note_on_c, 0, 81, 92
2, 58320, Note_on_c, 0, 81, 0
2, 58320, Note_on_c, 0, 79, 94
2, 58560, Note_on_c, 0, 79, 0
2, 58560, Note_on_c, 0, 78, 109
2, 58716, Note_on_c, 0, 78, 0
2, 58800, Note_on_c, 0, 78, 90
2, 58956, Note_on_c, 0, 78, 0
2, 59040, Note_on_c, 0, 80, 80
2, 59196, Note_on_c, 0, 80, 0
2, 59280, Note_on_c, 0, 81, 76
2, 59436, Note_on_c, 0, 81, 0
2, 59520, Note_on_c, 0, 81, 75
2, 59676, Note_on_c, 0, 81, 0
2, 59760, Note_on_c, 0, 83, 73
2, 59916, Note_on_c, 0, 83, 0
2, 60000, Note_on_c, 0, 81, 72
2, 60156, Note_on_c, 0, 81, 0
2, 60240, Note_on_c, 0, 81, 70
2, 60396, Note_on_c, 0, 81, 0
2, 60480, Note_on_c, 0, 81, 69
2, 60636, Note_on_c, 0, 81, 0
2, 60720, Note_on_c, 0, 81, 73
2, 60876, Note_on_c, 0, 81, 0
2, 60960, Note_on_c, 0, 81, 68
2, 61116, Note_on_c, 0, 81, 0
2, 61200, Note_on_c, 0, 81, 64
2, 61356, Note_on_c, 0, 81, 0
2, 61440, Note_on_c, 0, 81, 60
2, 61596, Note_on_c, 0, 81, 0
2, 61680, Note_on_c, 0, 73, 60
2, 61920, Note_on_c, 0, 73, 0
2, 61920, Note_on_c, 0, 74, 61
2, 62160, Note_on_c, 0, 74, 0
2, 62160, Note_on_c, 0, 73, 62
2, 62400, Note_on_c, 0, 73, 0
2, 62400, Note_on_c, 0, 74, 62
2, 62640, Note_on_c, 0, 74, 0
2, 62640, Note_on_c, 0, 73, 63
2, 62880, Note_on_c, 0, 73, 0
2, 62880, Note_on_c, 0, 74, 63
2, 64512, Note_on_c, 0, 74, 0
2, 64560, Note_on_c, 0, 79, 70
2, 64800, Note_on_c, 0, 79, 0
2, 64800, Note_on_c, 0, 78, 71
2, 65040, Note_on_c, 0, 78, 0
2, 65040, Note_on_c, 0, 79, 71
2, 65280, Note_on_c, 0, 79, 0
2, 65280, Note_on_c, 0, 83, 72
2, 65520, Note_on_c, 0, 83, 0
2, 65520, Note_on_c, 0, 82, 72
2, 65760, Note_on_c, 0, 82, 0
2, 65760, Note_on_c, 0, 83, 73
2, 66960, Note_on_c, 0, 83, 0
2, 66960, Note_on_c, 0, 79, 75
2, 67200, Note_on_c, 0, 79, 0
2, 67200, Note_on_c, 0, 76, 76
2, 67392, Note_on_c, 0, 76, 0
2, 67440, Note_on_c, 0, 70, 76
2, 67680, Note_on_c, 0, 70, 0
2, 67680, Note_on_c, 0, 69, 77
2, 67920, Note_on_c, 0, 69, 0
2, 67920, Note_on_c, 0, 70, 78
2, 68160, Note_on_c, 0, 70, 0
2, 68160, Note_on_c, 0, 69, 78
2, 68400, Note_on_c, 0, 69, 0
2, 68400, Note_on_c, 0, 70, 79
2, 68640, Note_on_c, 0, 70, 0
2, 68880, Note_on_c, 0, 85, 84
2, 69830, Note_on_c, 0, 85, 0
2, 69840, Note_on_c, 0, 85, 100
2, 70080, Note_on_c, 0, 85, 0
2, 70080, Note_on_c, 0, 86, 109
2, 70236, Note_on_c, 0, 86, 0
2, 70320, Note_on_c, 0, 86, 92
2, 70476, Note_on_c, 0, 86, 0
2, 70560, Note_on_c, 0, 86, 85
2, 70716, Note_on_c, 0, 86, 0
2, 70800, Note_on_c, 0, 86, 77
2, 70956, Note_on_c, 0, 86, 0
2, 71040, Note_on_c, 0, 86, 73
2, 71196, Note_on_c, 0, 86, 0
2, 71280, Note_on_c, 0, 86, 72
2, 71436, Note_on_c, 0, 86, 0
2, 71520, Note_on_c, 0, 86, 71
2, 71676, Note_on_c, 0, 86, 0
2, 71760, Note_on_c, 0, 86, 69
2, 71916, Note_on_c, 0, 86, 0
2, 72000, Note_on_c, 0, 86, 68
2, 72156, Note_on_c, 0, 86, 0
2, 72240, Note_on_c, 0, 85, 67
2, 72396, Note_on_c, 0, 85, 0
2, 72480, Note_on_c, 0, 85, 66
2, 72636, Note_on_c, 0, 85, 0
2, 72720, Note_on_c, 0, 85, 65
2, 72876, Note_on_c, 0, 85, 0
2, 72960, Note_on_c, 0, 86, 64
2, 73116, Note_on_c, 0, 86, 0
2, 75240, Note_on_c, 0, 57, 68
2, 75485, Note_on_c, 0, 57, 0
2, 75600, Note_on_c, 0, 62, 68
2, 75960, Note_on_c, 0, 62, 0
2, 76080, Note_on_c, 0, 62, 68
2, 76440, Note_on_c, 0, 62, 0
2, 76560, Note_on_c, 0, 62, 69
2, 76920, Note_on_c, 0, 62, 0
2, 77040, Note_on_c, 0, 69, 69
2, 77400, Note_on_c, 0, 69, 0
2, 77520, Note_on_c, 0, 67, 69
2, 77880, Note_on_c, 0, 67, 0
2, 78000, Note_on_c, 0, 64, 69
2, 78360, Note_on_c, 0, 64, 0
2, 78480, Note_on_c, 0, 66, 70
2, 78840, Note_on_c, 0, 66, 0
2, 78960, Note_on_c, 0, 62, 70
2, 79320, Note_on_c, 0, 62, 0
2, 79440, Note_on_c, 0, 66, 70
2, 79800, Note_on_c, 0, 66, 0
2, 79920, Note_on_c, 0, 68, 70
2, 80280, Note_on_c, 0, 68, 0
2, 80400, Note_on_c, 0, 69, 71
2, 80760, Note_on_c, 0, 69, 0
2, 80880, Note_on_c, 0, 66, 71
2, 81240, Note_on_c, 0, 66, 0
2, 81360, Note_on_c, 0, 62, 71
2, 81720, Note_on_c, 0, 62, 0
2, 81840, Note_on_c, 0, 64, 71
2, 82200, Note_on_c, 0, 64, 0
2, 82320, Note_on_c, 0, 69, 72
2, 82680, Note_on_c, 0, 69, 0
2, 82800, Note_on_c, 0, 73, 72
2, 83160, Note_on_c, 0, 73, 0
2, 83280, Note_on_c, 0, 69, 72
2, 83640, Note_on_c, 0, 69, 0
2, 83640, Note_on_c, 0, 73, 72
2, 83760, Note_on_c, 0, 73, 0
2, 83880, Note_on_c, 0, 76, 73
2, 84000, Note_on_c, 0, 76, 0
2, 84120, Note_on_c, 0, 76, 73
2, 84240, Note_on_c, 0, 76, 0
2, 84360, Note_on_c, 0, 74, 73
2, 84480, Note_on_c, 0, 74, 0
2, 84600, Note_on_c, 0, 73, 73
2, 84720, Note_on_c, 0, 73, 0
2, 84840, Note_on_c, 0, 71, 73
2, 85080, Note_on_c, 0, 71, 0
2, 85200, Note_on_c, 0, 69, 73
2, 85560, Note_on_c, 0, 69, 0
2, 85680, Note_on_c, 0, 68, 74
2, 86040, Note_on_c, 0, 68, 0
2, 86160, Note_on_c, 0, 69, 74
2, 86520, Note_on_c, 0, 69, 0
2, 86640, Note_on_c, 0, 69, 74
2, 87000, Note_on_c, 0, 69, 0
2, 87120, Note_on_c, 0, 69, 74
2, 87480, Note_on_c, 0, 69, 0
2, 87600, Note_on_c, 0, 68, 75
2, 87960, Note_on_c, 0, 68, 0
2, 88080, Note_on_c, 0, 69, 75
2, 88440, Note_on_c, 0, 69, 0
2, 88560, Note_on_c, 0, 61, 75
2, 88920, Note_on_c, 0, 61, 0
2, 89040, Note_on_c, 0, 62, 75
2, 89400, Note_on_c, 0, 62, 0
2, 89520, Note_on_c, 0, 59, 76
2, 89880, Note_on_c, 0, 59, 0
2, 90000, Note_on_c, 0, 59, 76
2, 90360, Note_on_c, 0, 59, 0
2, 90480, Note_on_c, 0, 59, 76
2, 90840, Note_on_c, 0, 59, 0
2, 90840, Note_on_c, 0, 67, 76
2, 90960, Note_on_c, 0, 67, 0
2, 91080, Note_on_c, 0, 66, 76
2, 91200, Note_on_c, 0, 66, 0
2, 91320, Note_on_c, 0, 64, 77
2, 91440, Note_on_c, 0, 64, 0
2, 91560, Note_on_c, 0, 62, 77
2, 91800, Note_on_c, 0, 62, 0
2, 91920, Note_on_c, 0, 61, 77
2, 92280, Note_on_c, 0, 61, 0
2, 92400, Note_on_c, 0, 64, 77
2, 92760, Note_on_c, 0, 64, 0
2, 92880, Note_on_c, 0, 69, 77
2, 93240, Note_on_c, 0, 69, 0
2, 93360, Note_on_c, 0, 67, 80
2, 93720, Note_on_c, 0, 67, 0
2, 93720, Note_on_c, 0, 66, 82
2, 93840, Note_on_c, 0, 66, 0
2, 93840, Note_on_c, 0, 67, 83
2, 93960, Note_on_c, 0, 67, 0
2, 93960, Note_on_c, 0, 68, 85
2, 94080, Note_on_c, 0, 68, 0
2, 94080, Note_on_c, 0, 69, 86
2, 94200, Note_on_c, 0, 69, 0
2, 94200, Note_on_c, 0, 70, 88
2, 94320, Note_on_c, 0, 70, 0
2, 94320, Note_on_c, 0, 71, 94
2, 94685, Note_on_c, 0, 71, 0
2, 94800, Note_on_c, 0, 69, 84
2, 95160, Note_on_c, 0, 69, 0
2, 95280, Note_on_c, 0, 69, 77
2, 95640, Note_on_c, 0, 69, 0
2, 95760, Note_on_c, 0, 69, 75
2, 96120, Note_on_c, 0, 69, 0
2, 96240, Note_on_c, 0, 74, 78
2, 96600, Note_on_c, 0, 74, 0
2, 96720, Note_on_c, 0, 78, 81
2, 97080, Note_on_c, 0, 78, 0
2, 97200, Note_on_c, 0, 78, 84
2, 97560, Note_on_c, 0, 78, 0
2, 97680, Note_on_c, 0, 79, 87
2, 98040, Note_on_c, 0, 79, 0
2, 98160, Note_on_c, 0, 78, 90
2, 98400, Note_on_c, 0, 78, 0
2, 98520, Note_on_c, 0, 79, 90
2, 98640, Note_on_c, 0, 79, 0
2, 98760, Note_on_c, 0, 78, 89
2, 98880, Note_on_c, 0, 78, 0
2, 99000, Note_on_c, 0, 76, 87
2, 99120, Note_on_c, 0, 76, 0
2, 99240, Note_on_c, 0, 74, 85
2, 99480, Note_on_c, 0, 74, 0
2, 99600, Note_on_c, 0, 73, 83
2, 99960, Note_on_c, 0, 73, 0
2, 100080, Note_on_c, 0, 76, 80
2, 100440, Note_on_c, 0, 76, 0
2, 100560, Note_on_c, 0, 81, 84
2, 100920, Note_on_c, 0, 81, 0
2, 101040, Note_on_c, 0, 79, 89
2, 101400, Note_on_c, 0, 79, 0
2, 101400, Note_on_c, 0, 78, 94
2, 101520, Note_on_c, 0, 78, 0
2, 101520, Note_on_c, 0, 79, 96
2, 101640, Note_on_c, 0, 79, 0
2, 101640, Note_on_c, 0, 80, 98
2, 101760, Note_on_c, 0, 80, 0
2, 101760, Note_on_c, 0, 81, 100
2, 101880, Note_on_c, 0, 81, 0
2, 101880, Note_on_c, 0, 82, 102
2, 102000, Note_on_c, 0, 82, 0
2, 102000, Note_on_c, 0, 83, 108
2, 102360, Note_on_c, 0, 83, 0
2, 102480, Note_on_c, 0, 81, 92
2, 102840, Note_on_c, 0, 81, 0
2, 102960, Note_on_c, 0, 81, 84
2, 103320, Note_on_c, 0, 81, 0
2, 103320, Note_on_c, 0, 73, 78
2, 103440, Note_on_c, 0, 73, 0
2, 103440, Note_on_c, 0, 74, 76
2, 103560, Note_on_c, 0, 74, 0
2, 105360, Note_on_c, 0, 62, 71
2, 105516, Note_on_c, 0, 62, 0
2, 105840, Note_on_c, 0, 62, 71
2, 105996, Note_on_c, 0, 62, 0
2, 106080, Note_on_c, 0, 62, 72
2, 106236, Note_on_c, 0, 62, 0
2, 107040, Note_on_c, 0, 59, 73
2, 107196, Note_on_c, 0, 59, 0
2, 107280, Note_on_c, 0, 71, 73
2, 107436, Note_on_c, 0, 71, 0
2, 107760, Note_on_c, 0, 67, 74
2, 107916, Note_on_c, 0, 67, 0
2, 108000, Note_on_c, 0, 66, 74
2, 108156, Note_on_c, 0, 66, 0
2, 108960, Note_on_c, 0, 62, 76
2, 109116, Note_on_c, 0, 62, 0
2, 109200, Note_on_c, 0, 66, 76
2, 109356, Note_on_c, 0, 66, 0
2, 109440, Note_on_c, 0, 69, 77
2, 109520, Note_on_c, 0, 69, 0
2, 109680, Note_on_c, 0, 74, 77
2, 109836, Note_on_c, 0, 74, 0
2, 109920, Note_on_c, 0, 81, 78
2, 109960, Note_on_c, 0, 81, 0
2, 109960, Note_on_c, 0, 83, 78
2, 110000, Note_on_c, 0, 83, 0
2, 110000, Note_on_c, 0, 81, 79
2, 110040, Note_on_c, 0, 81, 0
2, 110040, Note_on_c, 0, 83, 79
2, 110080, Note_on_c, 0, 83, 0
2, 110080, Note_on_c, 0, 81, 79
2, 110120, Note_on_c, 0, 81, 0
2, 110120, Note_on_c, 0, 83, 80
2, 110160, Note_on_c, 0, 83, 0
2, 110160, Note_on_c, 0, 81, 80
2, 110200, Note_on_c, 0, 81, 0
2, 110200, Note_on_c, 0, 83, 80
2, 110240, Note_on_c, 0, 83, 0
2, 110240, Note_on_c, 0, 81, 80
2, 110280, Note_on_c, 0, 81, 0
2, 110280, Note_on_c, 0, 83, 81
2, 110320, Note_on_c, 0, 83, 0
2, 110320, Note_on_c, 0, 81, 81
2, 110360, Note_on_c, 0, 81, 0
2, 110360, Note_on_c, 0, 83, 81
2, 110400, Note_on_c, 0, 83, 0
2, 110400, Note_on_c, 0, 81, 82
2, 110440, Note_on_c, 0, 81, 0
2, 110440, Note_on_c, 0, 83, 82
2, 110480, Note_on_c, 0, 83, 0
2, 110480, Note_on_c, 0, 81, 82
2, 110520, Note_on_c, 0, 81, 0
2, 110520, Note_on_c, 0, 83, 82
2, 110560, Note_on_c, 0, 83, 0
2, 110560, Note_on_c, 0, 81, 83
2, 110600, Note_on_c, 0, 81, 0
2, 110600, Note_on_c, 0, 83, 83
2, 110640, Note_on_c, 0, 83, 0
2, 110640, Note_on_c, 0, 81, 83
2, 110680, Note_on_c, 0, 81, 0
2, 110680, Note_on_c, 0, 83, 84
2, 110720, Note_on_c, 0, 83, 0
2, 110720, Note_on_c, 0, 81, 84
2, 110760, Note_on_c, 0, 81, 0
2, 110760, Note_on_c, 0, 80, 84
2, 110820, Note_on_c, 0, 80, 0
2, 110820, Note_on_c, 0, 81, 85
2, 110880, Note_on_c, 0, 81, 0
2, 110880, Note_on_c, 0, 86, 85
2, 111036, Note_on_c, 0, 86, 0
2, 111120, Note_on_c, 0, 74, 82
2, 111276, Note_on_c, 0, 74, 0
2, 111600, Note_on_c, 0, 74, 74
2, 111756, Note_on_c, 0, 74, 0
2, 111840, Note_on_c, 0, 73, 72
2, 111996, Note_on_c, 0, 73, 0
2, 112400, Note_on_c, 0, 61, 76
2, 112480, Note_on_c, 0, 61, 0
2, 112480, Note_on_c, 0, 64, 77
2, 112560, Note_on_c, 0, 64, 0
2, 112560, Note_on_c, 0, 69, 78
2, 112640, Note_on_c, 0, 69, 0
2, 112640, Note_on_c, 0, 73, 79
2, 112720, Note_on_c, 0, 73, 0
2, 112720, Note_on_c, 0, 76, 79
2, 112800, Note_on_c, 0, 76, 0
2, 112800, Note_on_c, 0, 81, 80
2, 112880, Note_on_c, 0, 81, 0
2, 112880, Note_on_c, 0, 76, 81
2, 112960, Note_on_c, 0, 76, 0
2, 112960, Note_on_c, 0, 73, 81
2, 113040, Note_on_c, 0, 73, 0
2, 113040, Note_on_c, 0, 69, 82
2, 113120, Note_on_c, 0, 69, 0
2, 113120, Note_on_c, 0, 64, 83
2, 113200, Note_on_c, 0, 64, 0
2, 113200, Note_on_c, 0, 61, 83
2, 113280, Note_on_c, 0, 61, 0
2, 113360, Note_on_c, 0, 64, 85
2, 113440, Note_on_c, 0, 64, 0
2, 113440, Note_on_c, 0, 69, 86
2, 113520, Note_on_c, 0, 69, 0
2, 113520, Note_on_c, 0, 73, 86
2, 113600, Note_on_c, 0, 73, 0
2, 113600, Note_on_c, 0, 76, 87
2, 113680, Note_on_c, 0, 76, 0
2, 113680, Note_on_c, 0, 81, 88
2, 113760, Note_on_c, 0, 81, 0
2, 113760, Note_on_c, 0, 85, 88
2, 113916, Note_on_c, 0, 85, 0
2, 114000, Note_on_c, 0, 80, 91
2, 114156, Note_on_c, 0, 80, 0
2, 114240, Note_on_c, 0, 81, 93
2, 114396, Note_on_c, 0, 81, 0
2, 114480, Note_on_c, 0, 78, 95
2, 114636, Note_on_c, 0, 78, 0
2, 114720, Note_on_c, 0, 73, 97
2, 114876, Note_on_c, 0, 73, 0
2, 114960, Note_on_c, 0, 85, 99
2, 115116, Note_on_c, 0, 85, 0
2, 115200, Note_on_c, 0, 74, 101
2, 115356, Note_on_c, 0, 74, 0
2, 115440, Note_on_c, 0, 71, 103
2, 115596, Note_on_c, 0, 71, 0
2, 115680, Note_on_c, 0, 69, 105
2, 115836, Note_on_c, 0, 69, 0
2, 115920, Note_on_c, 0, 69, 108
2, 115920, Note_on_c, 0, 81, 108
2, 116076, Note_on_c, 0, 81, 0
2, 116076, Note_on_c, 0, 69, 0
2, 116400, Note_on_c, 0, 81, 112
2, 116400, Note_on_c, 0, 69, 112
2, 116556, Note_on_c, 0, 69, 0
2, 116556, Note_on_c, 0, 81, 0
2, 116880, Note_on_c, 0, 69, 116
2, 116880, Note_on_c, 0, 81, 116
2, 117036, Note_on_c, 0, 81, 0
2, 117036, Note_on_c, 0, 69, 0
2, 117360, Note_on_c, 0, 68, 120
2, 117360, Note_on_c, 0, 80, 120
2, 117516, Note_on_c, 0, 80, 0
2, 117516, Note_on_c, 0, 68, 0
2, 117600, Note_on_c, 0, 81, 121
2, 117680, Note_on_c, 0, 76, 117
2, 117756, Note_on_c, 0, 81, 0
2, 117760, Note_on_c, 0, 76, 0
2, 117760, Note_on_c, 0, 73, 114
2, 117840, Note_on_c, 0, 73, 0
2, 117840, Note_on_c, 0, 69, 110
2, 117920, Note_on_c, 0, 69, 0
2, 117920, Note_on_c, 0, 64, 106
2, 118000, Note_on_c, 0, 64, 0
2, 118000, Note_on_c, 0, 61, 103
2, 118080, Note_on_c, 0, 61, 0
2, 118080, Note_on_c, 0, 57, 99
2, 118160, Note_on_c, 0, 57, 0
2, 118160, Note_on_c, 0, 56, 95
2, 118240, Note_on_c, 0, 56, 0
2, 118240, Note_on_c, 0, 57, 92
2, 118320, Note_on_c, 0, 57, 0
2, 118320, Note_on_c, 0, 59, 88
2, 118400, Note_on_c, 0, 59, 0
2, 118400, Note_on_c, 0, 60, 84
2, 118480, Note_on_c, 0, 60, 0
2, 118480, Note_on_c, 0, 61, 81
2, 118560, Note_on_c, 0, 61, 0
2, 118560, Note_on_c, 0, 62, 77
2, 119520, Note_on_c, 0, 62, 0
2, 119520, Note_on_c, 0, 59, 80
2, 119600, Note_on_c, 0, 59, 0
2, 119600, Note_on_c, 0, 55, 82
2, 119680, Note_on_c, 0, 55, 0
2, 119680, Note_on_c, 0, 57, 84
2, 119760, Note_on_c, 0, 57, 0
2, 119760, Note_on_c, 0, 59, 85
2, 119840, Note_on_c, 0, 59, 0
2, 119840, Note_on_c, 0, 60, 87
2, 119920, Note_on_c, 0, 60, 0
2, 119920, Note_on_c, 0, 62, 89
2, 120000, Note_on_c, 0, 62, 0
2, 120000, Note_on_c, 0, 64, 90
2, 120080, Note_on_c, 0, 64, 0
2, 120080, Note_on_c, 0, 66, 92
2, 120160, Note_on_c, 0, 66, 0
2, 120160, Note_on_c, 0, 67, 94
2, 120240, Note_on_c, 0, 67, 0
2, 120240, Note_on_c, 0, 68, 95
2, 120320, Note_on_c, 0, 68, 0
2, 120320, Note_on_c, 0, 69, 97
2, 120400, Note_on_c, 0, 69, 0
2, 120400, Note_on_c, 0, 70, 99
2, 120480, Note_on_c, 0, 70, 0
2, 120480, Note_on_c, 0, 71, 100
2, 120636, Note_on_c, 0, 71, 0
2, 120720, Note_on_c, 0, 69, 95
2, 120876, Note_on_c, 0, 69, 0
2, 120960, Note_on_c, 0, 67, 89
2, 121116, Note_on_c, 0, 67, 0
2, 121200, Note_on_c, 0, 66, 83
2, 121356, Note_on_c, 0, 66, 0
2, 121400, Note_on_c, 0, 64, 89
2, 121440, Note_on_c, 0, 73, 90
2, 121561, Note_on_c, 0, 64, 0
2, 122400, Note_on_c, 0, 73, 0
2, 122400, Note_on_c, 0, 69, 86
2, 122556, Note_on_c, 0, 69, 0
2, 122640, Note_on_c, 0, 73, 88
2, 122796, Note_on_c, 0, 73, 0
2, 122880, Note_on_c, 0, 76, 89
2, 123036, Note_on_c, 0, 76, 0
2, 123120, Note_on_c, 0, 88, 91
2, 123276, Note_on_c, 0, 88, 0
2, 123360, Note_on_c, 0, 86, 92
2, 123516, Note_on_c, 0, 86, 0
2, 123840, Note_on_c, 0, 86, 96
2, 123996, Note_on_c, 0, 86, 0
2, 124320, Note_on_c, 0, 86, 99
2, 124476, Note_on_c, 0, 86, 0
2, 124800, Note_on_c, 0, 85, 102
2, 124956, Note_on_c, 0, 85, 0
2, 125280, Note_on_c, 0, 74, 103
2, 125436, Note_on_c, 0, 74, 0
2, 126240, Note_on_c, 0, 62, 87
2, 127200, Note_on_c, 0, 62, 0
2, 127200, Note_on_c, 0, 59, 92
2, 127280, Note_on_c, 0, 59, 0
2, 127280, Note_on_c, 0, 55, 94
2, 127360, Note_on_c, 0, 55, 0
2, 127360, Note_on_c, 0, 57, 96
2, 127440, Note_on_c, 0, 57, 0
2, 127440, Note_on_c, 0, 59, 97
2, 127520, Note_on_c, 0, 59, 0
2, 127520, Note_on_c, 0, 61, 99
2, 127600, Note_on_c, 0, 61, 0
2, 127600, Note_on_c, 0, 62, 101
2, 127680, Note_on_c, 0, 62, 0
2, 127680, Note_on_c, 0, 64, 102
2, 127760, Note_on_c, 0, 64, 0
2, 127760, Note_on_c, 0, 66, 104
2, 127840, Note_on_c, 0, 66, 0
2, 127840, Note_on_c, 0, 67, 106
2, 127920, Note_on_c, 0, 67, 0
2, 127920, Note_on_c, 0, 68, 108
2, 128000, Note_on_c, 0, 68, 0
2, 128000, Note_on_c, 0, 69, 109
2, 128080, Note_on_c, 0, 69, 0
2, 128080, Note_on_c, 0, 70, 111
2, 128160, Note_on_c, 0, 70, 0
2, 128160, Note_on_c, 0, 71, 113
2, 128316, Note_on_c, 0, 71, 0
2, 128400, Note_on_c, 0, 69, 104
2, 128556, Note_on_c, 0, 69, 0
2, 128640, Note_on_c, 0, 67, 95
2, 128796, Note_on_c, 0, 67, 0
2, 128880, Note_on_c, 0, 66, 87
2, 129036, Note_on_c, 0, 66, 0
2, 129120, Note_on_c, 0, 73, 80
2, 130080, Note_on_c, 0, 73, 0
2, 130080, Note_on_c, 0, 57, 92
2, 130236, Note_on_c, 0, 57, 0
2, 130560, Note_on_c, 0, 81, 98
2, 130716, Note_on_c, 0, 81, 0
2, 131040, Note_on_c, 0, 81, 104
2, 131196, Note_on_c, 0, 81, 0
2, 131280, Note_on_c, 0, 81, 107
2, 131436, Note_on_c, 0, 81, 0
2, 131520, Note_on_c, 0, 83, 110
2, 131676, Note_on_c, 0, 83, 0
2, 131760, Note_on_c, 0, 83, 113
2, 131916, Note_on_c, 0, 83, 0
2, 132000, Note_on_c, 0, 81, 116
2, 132156, Note_on_c, 0, 81, 0
2, 132240, Note_on_c, 0, 81, 120
2, 132396, Note_on_c, 0, 81, 0
2, 132480, Note_on_c, 0, 81, 123
2, 132636, Note_on_c, 0, 81, 0
2, 132720, Note_on_c, 0, 81, 126
2, 132876, Note_on_c, 0, 81, 0
2, 132960, Note_on_c, 0, 81, 127
2, 133116, Note_on_c, 0, 81, 0
2, 134640, Note_on_c, 0, 54, 102
2, 134760, Note_on_c, 0, 54, 0
2, 134880, Note_on_c, 0, 59, 104
2, 135360, Note_on_c, 0, 59, 0
2, 135360, Note_on_c, 0, 59, 106
2, 135840, Note_on_c, 0, 59, 0
2, 135840, Note_on_c, 0, 59, 111
2, 136560, Note_on_c, 0, 59, 0
2, 136560, Note_on_c, 0, 62, 102
2, 136800, Note_on_c, 0, 62, 0
2, 136800, Note_on_c, 0, 61, 101
2, 136920, Note_on_c, 0, 61, 0
2, 137040, Note_on_c, 0, 61, 100
2, 137160, Note_on_c, 0, 61, 0
2, 137280, Note_on_c, 0, 61, 99
2, 137320, Note_on_c, 0, 61, 0
2, 137320, Note_on_c, 0, 62, 99
2, 137360, Note_on_c, 0, 62, 0
2, 137360, Note_on_c, 0, 61, 99
2, 137400, Note_on_c, 0, 61, 0
2, 137400, Note_on_c, 0, 59, 99
2, 137460, Note_on_c, 0, 59, 0
2, 137460, Note_on_c, 0, 61, 98
2, 137520, Note_on_c, 0, 61, 0
2, 137520, Note_on_c, 0, 62, 98
2, 137640, Note_on_c, 0, 62, 0
2, 137640, Note_on_c, 0, 64, 98
2, 137760, Note_on_c, 0, 64, 0
2, 137760, Note_on_c, 0, 62, 97
2, 137880, Note_on_c, 0, 62, 0
2, 137880, Note_on_c, 0, 64, 97
2, 138000, Note_on_c, 0, 64, 0
2, 138000, Note_on_c, 0, 62, 96
2, 138120, Note_on_c, 0, 62, 0
2, 138120, Note_on_c, 0, 61, 96
2, 138240, Note_on_c, 0, 61, 0
2, 138240, Note_on_c, 0, 59, 96
2, 138336, Note_on_c, 0, 59, 0
2, 138480, Note_on_c, 0, 66, 95
2, 138558, Note_on_c, 0, 66, 0
2, 138720, Note_on_c, 0, 71, 93
2, 138798, Note_on_c, 0, 71, 0
2, 138960, Note_on_c, 0, 73, 96
2, 139038, Note_on_c, 0, 73, 0
2, 139200, Note_on_c, 0, 74, 100
2, 139278, Note_on_c, 0, 74, 0
2, 139440, Note_on_c, 0, 76, 104
2, 139518, Note_on_c, 0, 76, 0
2, 139680, Note_on_c, 0, 78, 116
2, 140400, Note_on_c, 0, 78, 0
2, 140400, Note_on_c, 0, 73, 104
2, 140478, Note_on_c, 0, 73, 0
2, 140640, Note_on_c, 0, 71, 102
2, 140718, Note_on_c, 0, 71, 0
2, 140880, Note_on_c, 0, 74, 100
2, 140958, Note_on_c, 0, 74, 0
2, 141120, Note_on_c, 0, 73, 98
2, 141198, Note_on_c, 0, 73, 0
2, 141360, Note_on_c, 0, 71, 96
2, 141438, Note_on_c, 0, 71, 0
2, 141600, Note_on_c, 0, 69, 94
2, 142320, Note_on_c, 0, 69, 0
2, 142320, Note_on_c, 0, 69, 98
2, 142440, Note_on_c, 0, 69, 0
2, 142560, Note_on_c, 0, 69, 104
2, 142680, Note_on_c, 0, 69, 0
2, 142800, Note_on_c, 0, 66, 100
2, 142896, Note_on_c, 0, 66, 0
2, 143280, Note_on_c, 0, 73, 103
2, 143400, Note_on_c, 0, 73, 0
2, 143520, Note_on_c, 0, 73, 110
2, 143640, Note_on_c, 0, 73, 0
2, 143760, Note_on_c, 0, 69, 105
2, 143856, Note_on_c, 0, 69, 0
2, 144240, Note_on_c, 0, 78, 108
2, 144336, Note_on_c, 0, 78, 0
2, 144480, Note_on_c, 0, 78, 114
2, 144576, Note_on_c, 0, 78, 0
2, 144720, Note_on_c, 0, 77, 107
2, 144798, Note_on_c, 0, 77, 0
2, 144960, Note_on_c, 0, 78, 104
2, 145038, Note_on_c, 0, 78, 0
2, 145200, Note_on_c, 0, 74, 102
2, 145278, Note_on_c, 0, 74, 0
2, 145440, Note_on_c, 0, 73, 100
2, 145920, Note_on_c, 0, 73, 0
2, 145920, Note_on_c, 0, 73, 96
2, 146400, Note_on_c, 0, 73, 0
2, 146400, Note_on_c, 0, 66, 91
2, 146520, Note_on_c, 0, 66, 0
2, 146640, Note_on_c, 0, 66, 110
2, 147120, Note_on_c, 0, 66, 0
2, 147120, Note_on_c, 0, 66, 91
2, 147216, Note_on_c, 0, 66, 0
2, 147360, Note_on_c, 0, 66, 89
2, 147456, Note_on_c, 0, 66, 0
2, 147600, Note_on_c, 0, 66, 86
2, 147678, Note_on_c, 0, 66, 0
2, 147840, Note_on_c, 0, 66, 83
2, 147918, Note_on_c, 0, 66, 0
2, 148080, Note_on_c, 0, 66, 81
2, 148158, Note_on_c, 0, 66, 0
2, 148320, Note_on_c, 0, 66, 76
2, 148800, Note_on_c, 0, 66, 0
2, 149040, Note_on_c, 0, 66, 87
2, 149160, Note_on_c, 0, 66, 0
2, 149280, Note_on_c, 0, 71, 102
2, 149760, Note_on_c, 0, 71, 0
2, 149760, Note_on_c, 0, 71, 95
2, 149838, Note_on_c, 0, 71, 0
2, 150000, Note_on_c, 0, 66, 96
2, 150078, Note_on_c, 0, 66, 0
2, 150240, Note_on_c, 0, 67, 103
2, 150318, Note_on_c, 0, 67, 0
2, 150480, Note_on_c, 0, 64, 98
2, 150558, Note_on_c, 0, 64, 0
2, 150960, Note_on_c, 0, 71, 100
2, 151056, Note_on_c, 0, 71, 0
2, 151200, Note_on_c, 0, 76, 109
2, 151296, Note_on_c, 0, 76, 0
2, 151440, Note_on_c, 0, 74, 101
2, 151518, Note_on_c, 0, 74, 0
2, 151680, Note_on_c, 0, 73, 95
2, 151758, Note_on_c, 0, 73, 0
2, 151920, Note_on_c, 0, 71, 89
2, 151998, Note_on_c, 0, 71, 0
2, 152160, Note_on_c, 0, 66, 84
2, 152880, Note_on_c, 0, 66, 0
2, 152880, Note_on_c, 0, 73, 92
2, 153000, Note_on_c, 0, 73, 0
2, 153120, Note_on_c, 0, 78, 101
2, 153600, Note_on_c, 0, 78, 0
2, 153600, Note_on_c, 0, 76, 102
2, 154080, Note_on_c, 0, 76, 0
2, 154080, Note_on_c, 0, 74, 113
2, 154176, Note_on_c, 0, 74, 0
2, 154320, Note_on_c, 0, 76, 104
2, 154398, Note_on_c, 0, 76, 0
2, 154560, Note_on_c, 0, 78, 99
2, 154638, Note_on_c, 0, 78, 0
2, 154800, Note_on_c, 0, 71, 95
2, 154878, Note_on_c, 0, 71, 0
2, 155040, Note_on_c, 0, 66, 95
2, 155520, Note_on_c, 0, 66, 0
2, 155520, Note_on_c, 0, 73, 89
2, 156000, Note_on_c, 0, 73, 0
2, 156000, Note_on_c, 0, 71, 84
2, 156480, Note_on_c, 0, 71, 0
2, 156960, Note_on_c, 0, 74, 84
2, 157680, Note_on_c, 0, 74, 0
2, 157680, Note_on_c, 0, 74, 82
2, 157800, Note_on_c, 0, 74, 0
2, 157920, Note_on_c, 0, 76, 92
2, 158040, Note_on_c, 0, 76, 0
2, 158160, Note_on_c, 0, 76, 86
2, 158238, Note_on_c, 0, 76, 0
2, 158640, Note_on_c, 0, 74, 90
2, 158760, Note_on_c, 0, 74, 0
2, 158880, Note_on_c, 0, 76, 101
2, 158976, Note_on_c, 0, 76, 0
2, 159120, Note_on_c, 0, 74, 95
2, 159198, Note_on_c, 0, 74, 0
2, 159360, Note_on_c, 0, 72, 97
2, 159438, Note_on_c, 0, 72, 0
2, 159600, Note_on_c, 0, 71, 99
2, 159678, Note_on_c, 0, 71, 0
2, 159840, Note_on_c, 0, 66, 106
2, 160560, Note_on_c, 0, 66, 0
2, 160560, Note_on_c, 0, 73, 107
2, 160680, Note_on_c, 0, 73, 0
2, 160800, Note_on_c, 0, 78, 115
2, 161280, Note_on_c, 0, 78, 0
2, 161280, Note_on_c, 0, 76, 112
2, 161760, Note_on_c, 0, 76, 0
2, 161760, Note_on_c, 0, 74, 109
2, 161838, Note_on_c, 0, 74, 0
2, 162000, Note_on_c, 0, 76, 108
2, 162078, Note_on_c, 0, 76, 0
2, 162240, Note_on_c, 0, 78, 107
2, 162318, Note_on_c, 0, 78, 0
2, 162480, Note_on_c, 0, 71, 105
2, 162558, Note_on_c, 0, 71, 0
2, 162720, Note_on_c, 0, 66, 103
2, 163200, Note_on_c, 0, 66, 0
2, 163200, Note_on_c, 0, 73, 88
2, 163680, Note_on_c, 0, 73, 0
2, 163680, Note_on_c, 0, 71, 73
2, 164160, Note_on_c, 0, 71, 0
2, 164160, Note_on_c, 0, 73, 57
2, 164640, Note_on_c, 0, 73, 0
2, 165360, Note_on_c, 0, 57, 68
2, 165480, Note_on_c, 0, 57, 0
2, 165480, Note_on_c, 0, 54, 68
2, 165600, Note_on_c, 0, 54, 0
2, 165600, Note_on_c, 0, 50, 68
2, 165720, Note_on_c, 0, 50, 0
2, 165720, Note_on_c, 0, 54, 68
2, 165840, Note_on_c, 0, 54, 0
2, 165840, Note_on_c, 0, 57, 68
2, 165960, Note_on_c, 0, 57, 0
2, 165960, Note_on_c, 0, 62, 69
2, 166080, Note_on_c, 0, 62, 0
2, 166080, Note_on_c, 0, 50, 69
2, 166200, Note_on_c, 0, 50, 0
2, 166200, Note_on_c, 0, 55, 69
2, 166320, Note_on_c, 0, 55, 0
2, 166320, Note_on_c, 0, 59, 69
2, 166440, Note_on_c, 0, 59, 0
2, 166440, Note_on_c, 0, 62, 69
2, 166560, Note_on_c, 0, 62, 0
2, 166560, Note_on_c, 0, 57, 69
2, 166680, Note_on_c, 0, 57, 0
2, 166680, Note_on_c, 0, 62, 70
2, 166800, Note_on_c, 0, 62, 0
2, 166800, Note_on_c, 0, 66, 70
2, 166920, Note_on_c, 0, 66, 0
2, 166920, Note_on_c, 0, 69, 70
2, 167040, Note_on_c, 0, 69, 0
2, 167040, Note_on_c, 0, 67, 70
2, 167160, Note_on_c, 0, 67, 0
2, 167160, Note_on_c, 0, 57, 70
2, 167280, Note_on_c, 0, 57, 0
2, 167280, Note_on_c, 0, 66, 70
2, 167400, Note_on_c, 0, 66, 0
2, 167400, Note_on_c, 0, 57, 71
2, 167520, Note_on_c, 0, 57, 0
2, 167520, Note_on_c, 0, 59, 71
2, 167640, Note_on_c, 0, 59, 0
2, 167640, Note_on_c, 0, 64, 71
2, 167760, Note_on_c, 0, 64, 0
2, 167760, Note_on_c, 0, 62, 71
2, 167880, Note_on_c, 0, 62, 0
2, 167880, Note_on_c, 0, 67, 71
2, 168000, Note_on_c, 0, 67, 0
2, 168000, Note_on_c, 0, 57, 71
2, 168120, Note_on_c, 0, 57, 0
2, 168120, Note_on_c, 0, 64, 72
2, 168240, Note_on_c, 0, 64, 0
2, 168240, Note_on_c, 0, 61, 72
2, 168360, Note_on_c, 0, 61, 0
2, 168360, Note_on_c, 0, 67, 72
2, 168480, Note_on_c, 0, 67, 0
2, 168480, Note_on_c, 0, 57, 72
2, 168600, Note_on_c, 0, 57, 0
2, 168600, Note_on_c, 0, 66, 72
2, 168720, Note_on_c, 0, 66, 0
2, 168720, Note_on_c, 0, 62, 72
2, 168840, Note_on_c, 0, 62, 0
2, 168840, Note_on_c, 0, 69, 72
2, 168960, Note_on_c, 0, 69, 0
2, 168960, Note_on_c, 0, 66, 73
2, 169080, Note_on_c, 0, 66, 0
2, 169080, Note_on_c, 0, 74, 73
2, 169200, Note_on_c, 0, 74, 0
2, 169200, Note_on_c, 0, 69, 73
2, 169320, Note_on_c, 0, 69, 0
2, 169320, Note_on_c, 0, 78, 73
2, 169440, Note_on_c, 0, 78, 0
2, 169440, Note_on_c, 0, 69, 73
2, 169560, Note_on_c, 0, 69, 0
2, 169560, Note_on_c, 0, 74, 73
2, 169680, Note_on_c, 0, 74, 0
2, 169680, Note_on_c, 0, 69, 74
2, 169800, Note_on_c, 0, 69, 0
2, 169800, Note_on_c, 0, 76, 74
2, 169920, Note_on_c, 0, 76, 0
2, 169920, Note_on_c, 0, 69, 74
2, 170040, Note_on_c, 0, 69, 0
2, 170040, Note_on_c, 0, 78, 74
2, 170160, Note_on_c, 0, 78, 0
2, 170160, Note_on_c, 0, 69, 74
2, 170280, Note_on_c, 0, 69, 0
2, 170280, Note_on_c, 0, 80, 74
2, 170400, Note_on_c, 0, 80, 0
2, 170400, Note_on_c, 0, 69, 75
2, 170520, Note_on_c, 0, 69, 0
2, 170520, Note_on_c, 0, 81, 75
2, 170640, Note_on_c, 0, 81, 0
2, 170640, Note_on_c, 0, 73, 75
2, 170760, Note_on_c, 0, 73, 0
2, 170760, Note_on_c, 0, 76, 75
2, 170880, Note_on_c, 0, 76, 0
2, 170880, Note_on_c, 0, 70, 75
2, 171000, Note_on_c, 0, 70, 0
2, 171000, Note_on_c, 0, 78, 75
2, 171120, Note_on_c, 0, 78, 0
2, 171120, Note_on_c, 0, 73, 76
2, 171240, Note_on_c, 0, 73, 0
2, 171240, Note_on_c, 0, 76, 76
2, 171360, Note_on_c, 0, 76, 0
2, 171360, Note_on_c, 0, 74, 76
2, 171480, Note_on_c, 0, 74, 0
2, 171480, Note_on_c, 0, 78, 76
2, 171600, Note_on_c, 0, 78, 0
2, 171600, Note_on_c, 0, 69, 76
2, 171720, Note_on_c, 0, 69, 0
2, 171720, Note_on_c, 0, 78, 76
2, 171840, Note_on_c, 0, 78, 0
2, 171840, Note_on_c, 0, 68, 77
2, 171960, Note_on_c, 0, 68, 0
2, 171960, Note_on_c, 0, 76, 77
2, 172080, Note_on_c, 0, 76, 0
2, 172080, Note_on_c, 0, 71, 77
2, 172200, Note_on_c, 0, 71, 0
2, 172200, Note_on_c, 0, 74, 76
2, 172320, Note_on_c, 0, 74, 0
2, 172320, Note_on_c, 0, 73, 78
2, 172440, Note_on_c, 0, 73, 0
2, 172440, Note_on_c, 0, 69, 80
2, 172560, Note_on_c, 0, 69, 0
2, 172560, Note_on_c, 0, 76, 82
2, 172680, Note_on_c, 0, 76, 0
2, 172680, Note_on_c, 0, 73, 83
2, 172800, Note_on_c, 0, 73, 0
2, 172800, Note_on_c, 0, 81, 85
2, 172920, Note_on_c, 0, 81, 0
2, 172920, Note_on_c, 0, 76, 87
2, 173040, Note_on_c, 0, 76, 0
2, 173040, Note_on_c, 0, 85, 89
2, 173160, Note_on_c, 0, 85, 0
2, 173160, Note_on_c, 0, 81, 91
2, 173280, Note_on_c, 0, 81, 0
2, 173280, Note_on_c, 0, 76, 92
2, 173400, Note_on_c, 0, 76, 0
2, 173400, Note_on_c, 0, 73, 94
2, 173520, Note_on_c, 0, 73, 0
2, 173520, Note_on_c, 0, 81, 96
2, 173640, Note_on_c, 0, 81, 0
2, 173640, Note_on_c, 0, 76, 98
2, 173760, Note_on_c, 0, 76, 0
2, 173760, Note_on_c, 0, 85, 99
2, 173880, Note_on_c, 0, 85, 0
2, 173880, Note_on_c, 0, 81, 101
2, 174000, Note_on_c, 0, 81, 0
2, 174000, Note_on_c, 0, 88, 103
2, 174120, Note_on_c, 0, 88, 0
2, 174120, Note_on_c, 0, 85, 105
2, 174240, Note_on_c, 0, 85, 0
2, 174240, Note_on_c, 0, 88, 107
2, 174360, Note_on_c, 0, 88, 0
2, 174360, Note_on_c, 0, 85, 107
2, 174480, Note_on_c, 0, 85, 0
2, 174480, Note_on_c, 0, 80, 106
2, 174600, Note_on_c, 0, 80, 0
2, 174600, Note_on_c, 0, 86, 106
2, 174720, Note_on_c, 0, 86, 0
2, 174720, Note_on_c, 0, 76, 105
2, 174840, Note_on_c, 0, 76, 0
2, 174840, Note_on_c, 0, 85, 105
2, 174960, Note_on_c, 0, 85, 0
2, 174960, Note_on_c, 0, 74, 104
2, 175080, Note_on_c, 0, 74, 0
2, 175080, Note_on_c, 0, 83, 104
2, 175200, Note_on_c, 0, 83, 0
2, 175200, Note_on_c, 0, 73, 103
2, 175320, Note_on_c, 0, 73, 0
2, 175320, Note_on_c, 0, 81, 103
2, 175440, Note_on_c, 0, 81, 0
2, 175440, Note_on_c, 0, 83, 103
2, 175560, Note_on_c, 0, 83, 0
2, 175560, Note_on_c, 0, 81, 102
2, 175680, Note_on_c, 0, 81, 0
2, 175680, Note_on_c, 0, 71, 102
2, 175800, Note_on_c, 0, 71, 0
2, 175800, Note_on_c, 0, 81, 101
2, 175920, Note_on_c, 0, 81, 0
2, 175920, Note_on_c, 0, 71, 101
2, 176040, Note_on_c, 0, 71, 0
2, 176040, Note_on_c, 0, 80, 100
2, 176160, Note_on_c, 0, 80, 0
2, 176160, Note_on_c, 0, 73, 101
2, 176280, Note_on_c, 0, 73, 0
2, 176280, Note_on_c, 0, 81, 100
2, 176400, Note_on_c, 0, 81, 0
2, 176400, Note_on_c, 0, 73, 98
2, 176520, Note_on_c, 0, 73, 0
2, 176520, Note_on_c, 0, 81, 97
2, 176640, Note_on_c, 0, 81, 0
2, 176640, Note_on_c, 0, 73, 96
2, 176760, Note_on_c, 0, 73, 0
2, 176760, Note_on_c, 0, 81, 94
2, 176880, Note_on_c, 0, 81, 0
2, 176880, Note_on_c, 0, 76, 93
2, 177000, Note_on_c, 0, 76, 0
2, 177000, Note_on_c, 0, 81, 92
2, 177120, Note_on_c, 0, 81, 0
2, 177120, Note_on_c, 0, 74, 91
2, 177240, Note_on_c, 0, 74, 0
2, 177240, Note_on_c, 0, 81, 89
2, 177360, Note_on_c, 0, 81, 0
2, 177360, Note_on_c, 0, 79, 88
2, 177480, Note_on_c, 0, 79, 0
2, 177480, Note_on_c, 0, 81, 87
2, 177600, Note_on_c, 0, 81, 0
2, 177600, Note_on_c, 0, 78, 86
2, 177720, Note_on_c, 0, 78, 0
2, 177720, Note_on_c, 0, 81, 84
2, 177840, Note_on_c, 0, 81, 0
2, 177840, Note_on_c, 0, 80, 83
2, 177960, Note_on_c, 0, 80, 0
2, 177960, Note_on_c, 0, 81, 82
2, 178080, Note_on_c, 0, 81, 0
2, 178080, Note_on_c, 0, 81, 80
2, 178236, Note_on_c, 0, 81, 0
2, 178800, Note_on_c, 0, 69, 78
2, 179040, Note_on_c, 0, 69, 0
2, 179040, Note_on_c, 0, 74, 78
2, 179196, Note_on_c, 0, 74, 0
2, 179280, Note_on_c, 0, 74, 79
2, 179436, Note_on_c, 0, 74, 0
2, 179760, Note_on_c, 0, 72, 81
2, 180000, Note_on_c, 0, 72, 0
2, 180000, Note_on_c, 0, 71, 81
2, 180156, Note_on_c, 0, 71, 0
2, 180240, Note_on_c, 0, 71, 82
2, 180396, Note_on_c, 0, 71, 0
2, 180720, Note_on_c, 0, 71, 84
2, 180960, Note_on_c, 0, 71, 0
2, 180960, Note_on_c, 0, 79, 84
2, 181116, Note_on_c, 0, 79, 0
2, 181200, Note_on_c, 0, 78, 85
2, 181356, Note_on_c, 0, 78, 0
2, 181440, Note_on_c, 0, 76, 86
2, 181596, Note_on_c, 0, 76, 0
2, 181680, Note_on_c, 0, 74, 87
2, 181836, Note_on_c, 0, 74, 0
2, 181920, Note_on_c, 0, 69, 90
2, 182076, Note_on_c, 0, 69, 0
2, 182160, Note_on_c, 0, 69, 92
2, 182316, Note_on_c, 0, 69, 0
2, 182640, Note_on_c, 0, 76, 95
2, 182880, Note_on_c, 0, 76, 0
2, 182880, Note_on_c, 0, 81, 97
2, 183036, Note_on_c, 0, 81, 0
2, 183120, Note_on_c, 0, 81, 98
2, 183276, Note_on_c, 0, 81, 0
2, 183600, Note_on_c, 0, 79, 101
2, 183640, Note_on_c, 0, 79, 0
2, 183640, Note_on_c, 0, 81, 102
2, 183680, Note_on_c, 0, 81, 0
2, 183680, Note_on_c, 0, 79, 102
2, 183720, Note_on_c, 0, 79, 0
2, 183720, Note_on_c, 0, 78, 102
2, 183780, Note_on_c, 0, 78, 0
2, 183780, Note_on_c, 0, 79, 103
2, 183840, Note_on_c, 0, 79, 0
2, 183840, Note_on_c, 0, 78, 103
2, 183996, Note_on_c, 0, 78, 0
2, 184080, Note_on_c, 0, 86, 105
2, 184560, Note_on_c, 0, 86, 0
2, 184560, Note_on_c, 0, 86, 108
2, 184716, Note_on_c, 0, 86, 0
2, 184800, Note_on_c, 0, 86, 109
2, 184920, Note_on_c, 0, 86, 0
2, 184920, Note_on_c, 0, 81, 109
2, 185040, Note_on_c, 0, 81, 0
2, 185040, Note_on_c, 0, 78, 109
2, 185160, Note_on_c, 0, 78, 0
2, 185160, Note_on_c, 0, 74, 109
2, 185280, Note_on_c, 0, 74, 0
2, 185280, Note_on_c, 0, 69, 106
2, 185436, Note_on_c, 0, 69, 0
2, 185520, Note_on_c, 0, 76, 96
2, 185560, Note_on_c, 0, 76, 0
2, 185560, Note_on_c, 0, 78, 94
2, 185600, Note_on_c, 0, 78, 0
2, 185600, Note_on_c, 0, 76, 91
2, 185640, Note_on_c, 0, 76, 0
2, 185640, Note_on_c, 0, 74, 89
2, 185700, Note_on_c, 0, 74, 0
2, 185700, Note_on_c, 0, 76, 85
2, 185760, Note_on_c, 0, 76, 0
2, 185760, Note_on_c, 0, 74, 78
2, 185916, Note_on_c, 0, 74, 0
2, 186720, Control_c, 0, 64, 0
2, 186720, Note_on_c, 0, 78, 78
2, 186876, Note_on_c, 0, 78, 0
2, 186960, Note_on_c, 0, 78, 84
2, 187440, Note_on_c, 0, 78, 0
2, 187440, Note_on_c, 0, 78, 80
2, 187596, Note_on_c, 0, 78, 0
2, 187680, Note_on_c, 0, 79, 80
2, 188160, Note_on_c, 0, 79, 0
2, 188400, Note_on_c, 0, 78, 83
2, 188556, Note_on_c, 0, 78, 0
2, 188640, Note_on_c, 0, 79, 85
2, 188796, Note_on_c, 0, 79, 0
2, 188880, Note_on_c, 0, 78, 84
2, 189036, Note_on_c, 0, 78, 0
2, 189120, Note_on_c, 0, 76, 83
2, 189276, Note_on_c, 0, 76, 0
2, 189360, Note_on_c, 0, 74, 82
2, 189516, Note_on_c, 0, 74, 0
2, 189600, Note_on_c, 0, 73, 82
2, 189756, Note_on_c, 0, 73, 0
2, 190320, Note_on_c, 0, 76, 79
2, 190476, Note_on_c, 0, 76, 0
2, 190560, Note_on_c, 0, 81, 81
2, 190716, Note_on_c, 0, 81, 0
2, 190800, Note_on_c, 0, 81, 88
2, 191280, Note_on_c, 0, 81, 0
2, 191280, Note_on_c, 0, 79, 88
2, 191436, Note_on_c, 0, 79, 0
2, 191520, Note_on_c, 0, 78, 90
2, 191676, Note_on_c, 0, 78, 0
2, 191760, Note_on_c, 0, 86, 100
2, 192240, Note_on_c, 0, 86, 0
2, 192240, Note_on_c, 0, 86, 94
2, 192396, Note_on_c, 0, 86, 0
2, 192480, Note_on_c, 0, 81, 95
2, 192636, Note_on_c, 0, 81, 0
2, 192720, Note_on_c, 0, 81, 96
2, 192876, Note_on_c, 0, 81, 0
2, 192960, Note_on_c, 0, 85, 97
2, 193116, Note_on_c, 0, 85, 0
2, 193200, Note_on_c, 0, 85, 97
2, 193356, Note_on_c, 0, 85, 0
2, 193440, Note_on_c, 0, 74, 98
2, 193440, Note_on_c, 0, 86, 98
2, 193560, Note_on_c, 0, 74, 0
2, 193560, Note_on_c, 0, 76, 99
2, 193680, Note_on_c, 0, 76, 0
2, 193680, Note_on_c, 0, 78, 99
2, 193800, Note_on_c, 0, 78, 0
2, 193800, Note_on_c, 0, 79, 100
2, 193920, Note_on_c, 0, 79, 0
2, 193920, Note_on_c, 0, 86, 0
2, 193920, Note_on_c, 0, 81, 100
2, 194076, Note_on_c, 0, 81, 0
2, 194160, Note_on_c, 0, 75, 106
2, 194316, Note_on_c, 0, 75, 0
2, 194400, Note_on_c, 0, 77, 102
2, 194520, Note_on_c, 0, 77, 0
2, 194520, Note_on_c, 0, 78, 102
2, 194640, Note_on_c, 0, 78, 0
2, 194640, Note_on_c, 0, 80, 103
2, 194760, Note_on_c, 0, 80, 0
2, 194760, Note_on_c, 0, 81, 103
2, 194880, Note_on_c, 0, 81, 0
2, 194880, Note_on_c, 0, 83, 103
2, 195036, Note_on_c, 0, 83, 0
2, 195120, Note_on_c, 0, 76, 110
2, 195276, Note_on_c, 0, 76, 0
2, 195360, Note_on_c, 0, 80, 105
2, 195480, Note_on_c, 0, 80, 0
2, 195480, Note_on_c, 0, 81, 106
2, 195600, Note_on_c, 0, 81, 0
2, 195600, Note_on_c, 0, 83, 106
2, 195720, Note_on_c, 0, 83, 0
2, 195720, Note_on_c, 0, 85, 106
2, 195840, Note_on_c, 0, 85, 0
2, 195840, Note_on_c, 0, 86, 107
2, 195996, Note_on_c, 0, 86, 0
2, 196080, Note_on_c, 0, 79, 112
2, 196236, Note_on_c, 0, 79, 0
2, 196320, Note_on_c, 0, 78, 93
2, 196440, Note_on_c, 0, 78, 0
2, 196440, Note_on_c, 0, 76, 92
2, 196560, Note_on_c, 0, 76, 0
2, 196560, Note_on_c, 0, 74, 92
2, 196680, Note_on_c, 0, 74, 0
2, 196680, Note_on_c, 0, 73, 91
2, 196800, Note_on_c, 0, 73, 0
2, 196800, Note_on_c, 0, 71, 90
2, 196956, Note_on_c, 0, 71, 0
2, 197040, Note_on_c, 0, 70, 95
2, 197196, Note_on_c, 0, 70, 0
2, 197280, Note_on_c, 0, 69, 88
2, 197400, Note_on_c, 0, 69, 0
2, 197400, Note_on_c, 0, 67, 87
2, 197520, Note_on_c, 0, 67, 0
2, 197520, Note_on_c, 0, 66, 87
2, 197640, Note_on_c, 0, 66, 0
2, 197640, Note_on_c, 0, 64, 86
2, 197760, Note_on_c, 0, 64, 0
2, 197760, Note_on_c, 0, 62, 86
2, 197916, Note_on_c, 0, 62, 0
2, 198000, Note_on_c, 0, 61, 90
2, 198156, Note_on_c, 0, 61, 0
2, 198240, Note_on_c, 0, 62, 98
2, 198360, Note_on_c, 0, 62, 0
2, 198360, Note_on_c, 0, 64, 98
2, 198480, Note_on_c, 0, 64, 0
2, 198480, Note_on_c, 0, 66, 98
2, 198600, Note_on_c, 0, 66, 0
2, 198600, Note_on_c, 0, 67, 99
2, 198720, Note_on_c, 0, 67, 0
2, 198720, Note_on_c, 0, 69, 99
2, 198876, Note_on_c, 0, 69, 0
2, 198960, Note_on_c, 0, 63, 106
2, 199116, Note_on_c, 0, 63, 0
2, 199200, Note_on_c, 0, 65, 100
2, 199320, Note_on_c, 0, 65, 0
2, 199320, Note_on_c, 0, 66, 101
2, 199440, Note_on_c, 0, 66, 0
2, 199440, Note_on_c, 0, 68, 101
2, 199560, Note_on_c, 0, 68, 0
2, 199560, Note_on_c, 0, 69, 101
2, 199680, Note_on_c, 0, 69, 0
2, 199680, Note_on_c, 0, 71, 101
2, 199836, Note_on_c, 0, 71, 0
2, 199920, Note_on_c, 0, 64, 108
2, 200076, Note_on_c, 0, 64, 0
2, 200160, Note_on_c, 0, 68, 103
2, 200280, Note_on_c, 0, 68, 0
2, 200280, Note_on_c, 0, 69, 103
2, 200400, Note_on_c, 0, 69, 0
2, 200400, Note_on_c, 0, 71, 103
2, 200520, Note_on_c, 0, 71, 0
2, 200520, Note_on_c, 0, 73, 104
2, 200640, Note_on_c, 0, 73, 0
2, 200640, Note_on_c, 0, 74, 104
2, 200796, Note_on_c, 0, 74, 0
2, 200880, Note_on_c, 0, 67, 111
2, 201036, Note_on_c, 0, 67, 0
2, 201120, Note_on_c, 0, 71, 105
2, 201240, Note_on_c, 0, 71, 0
2, 201240, Note_on_c, 0, 73, 105
2, 201360, Note_on_c, 0, 73, 0
2, 201360, Note_on_c, 0, 74, 106
2, 201480, Note_on_c, 0, 74, 0
2, 201480, Note_on_c, 0, 76, 106
2, 201600, Note_on_c, 0, 76, 0
2, 201600, Note_on_c, 0, 77, 106
2, 201756, Note_on_c, 0, 77, 0
2, 201840, Note_on_c, 0, 71, 113
2, 201996, Note_on_c, 0, 71, 0
2, 202080, Note_on_c, 0, 81, 87
2, 202200, Note_on_c, 0, 81, 0
2, 202200, Note_on_c, 0, 79, 86
2, 202320, Note_on_c, 0, 79, 0
2, 202320, Note_on_c, 0, 78, 85
2, 202440, Note_on_c, 0, 78, 0
2, 202440, Note_on_c, 0, 76, 84
2, 202560, Note_on_c, 0, 76, 0
2, 202560, Note_on_c, 0, 74, 84
2, 202716, Note_on_c, 0, 74, 0
2, 202800, Note_on_c, 0, 73, 82
2, 202956, Note_on_c, 0, 73, 0
2, 203040, Note_on_c, 0, 72, 80
2, 203160, Note_on_c, 0, 72, 0
2, 203160, Note_on_c, 0, 70, 80
2, 203280, Note_on_c, 0, 70, 0
2, 203280, Note_on_c, 0, 69, 79
2, 203400, Note_on_c, 0, 69, 0
2, 203400, Note_on_c, 0, 67, 78
2, 203520, Note_on_c, 0, 67, 0
2, 203520, Note_on_c, 0, 65, 77
2, 203676, Note_on_c, 0, 65, 0
2, 203760, Note_on_c, 0, 64, 75
2, 203916, Note_on_c, 0, 64, 0
2, 204000, Note_on_c, 0, 69, 74
2, 204120, Note_on_c, 0, 69, 0
2, 204120, Note_on_c, 0, 67, 73
2, 204240, Note_on_c, 0, 67, 0
2, 204240, Note_on_c, 0, 65, 72
2, 204360, Note_on_c, 0, 65, 0
2, 204360, Note_on_c, 0, 64, 71
2, 204480, Note_on_c, 0, 64, 0
2, 204480, Note_on_c, 0, 62, 71
2, 204636, Note_on_c, 0, 62, 0
2, 204720, Note_on_c, 0, 61, 69
2, 204876, Note_on_c, 0, 61, 0
2, 204960, Note_on_c, 0, 60, 67
2, 205080, Note_on_c, 0, 60, 0
2, 205080, Note_on_c, 0, 58, 67
2, 205200, Note_on_c, 0, 58, 0
2, 205200, Note_on_c, 0, 57, 66
2, 205320, Note_on_c, 0, 57, 0
2, 205320, Note_on_c, 0, 55, 65
2, 205440, Note_on_c, 0, 55, 0
2, 205440, Note_on_c, 0, 53, 64
2, 205596, Note_on_c, 0, 53, 0
2, 205680, Note_on_c, 0, 52, 63
2, 205836, Note_on_c, 0, 52, 0
2, 205920, Note_on_c, 0, 53, 60
2, 206400, Note_on_c, 0, 53, 0
2, 206400, Note_on_c, 0, 53, 60
2, 206880, Note_on_c, 0, 53, 0
2, 206880, Note_on_c, 0, 53, 61
2, 207000, Note_on_c, 0, 53, 0
2, 207000, Note_on_c, 0, 55, 61
2, 207120, Note_on_c, 0, 55, 0
2, 207120, Note_on_c, 0, 57, 62
2, 207240, Note_on_c, 0, 57, 0
2, 207240, Note_on_c, 0, 58, 62
2, 207360, Note_on_c, 0, 58, 0
2, 207360, Note_on_c, 0, 60, 62
2, 207516, Note_on_c, 0, 60, 0
2, 207600, Note_on_c, 0, 53, 62
2, 207756, Note_on_c, 0, 53, 0
2, 207840, Note_on_c, 0, 65, 63
2, 208320, Note_on_c, 0, 65, 0
2, 208320, Note_on_c, 0, 65, 63
2, 208800, Note_on_c, 0, 65, 0
2, 208800, Note_on_c, 0, 65, 64
2, 208920, Note_on_c, 0, 65, 0
2, 208920, Note_on_c, 0, 67, 64
2, 209040, Note_on_c, 0, 67, 0
2, 209040, Note_on_c, 0, 68, 64
2, 209160, Note_on_c, 0, 68, 0
2, 209160, Note_on_c, 0, 70, 65
2, 209280, Note_on_c, 0, 70, 0
2, 209280, Note_on_c, 0, 72, 65
2, 209436, Note_on_c, 0, 72, 0
2, 209520, Note_on_c, 0, 65, 65
2, 209676, Note_on_c, 0, 65, 0
2, 209760, Note_on_c, 0, 61, 66
2, 210240, Note_on_c, 0, 61, 0
2, 210240, Note_on_c, 0, 61, 66
2, 210720, Note_on_c, 0, 61, 0
2, 210720, Note_on_c, 0, 61, 67
2, 210840, Note_on_c, 0, 61, 0
2, 210840, Note_on_c, 0, 63, 67
2, 210960, Note_on_c, 0, 63, 0
2, 210960, Note_on_c, 0, 65, 67
2, 211080, Note_on_c, 0, 65, 0
2, 211080, Note_on_c, 0, 66, 68
2, 211200, Note_on_c, 0, 66, 0
2, 211200, Note_on_c, 0, 68, 68
2, 211356, Note_on_c, 0, 68, 0
2, 211440, Note_on_c, 0, 62, 68
2, 211596, Note_on_c, 0, 62, 0
2, 211680, Note_on_c, 0, 73, 69
2, 212160, Note_on_c, 0, 73, 0
2, 212160, Note_on_c, 0, 73, 69
2, 212640, Note_on_c, 0, 73, 0
2, 212640, Note_on_c, 0, 73, 70
2, 212760, Note_on_c, 0, 73, 0
2, 212760, Note_on_c, 0, 75, 70
2, 212880, Note_on_c, 0, 75, 0
2, 212880, Note_on_c, 0, 77, 70
2, 213000, Note_on_c, 0, 77, 0
2, 213000, Note_on_c, 0, 78, 71
2, 213120, Note_on_c, 0, 78, 0
2, 213120, Note_on_c, 0, 80, 71
2, 213276, Note_on_c, 0, 80, 0
2, 213360, Note_on_c, 0, 73, 71
2, 213516, Note_on_c, 0, 73, 0
2, 213600, Note_on_c, 0, 61, 72
2, 214080, Note_on_c, 0, 61, 0
2, 214080, Note_on_c, 0, 61, 75
2, 214560, Note_on_c, 0, 61, 0
2, 214560, Note_on_c, 0, 61, 78
2, 214680, Note_on_c, 0, 61, 0
2, 214680, Note_on_c, 0, 63, 79
2, 214800, Note_on_c, 0, 63, 0
2, 214800, Note_on_c, 0, 64, 80
2, 214920, Note_on_c, 0, 64, 0
2, 214920, Note_on_c, 0, 66, 81
2, 215040, Note_on_c, 0, 66, 0
2, 215040, Note_on_c, 0, 68, 81
2, 215196, Note_on_c, 0, 68, 0
2, 215280, Note_on_c, 0, 61, 83
2, 215436, Note_on_c, 0, 61, 0
2, 215520, Note_on_c, 0, 73, 84
2, 215640, Note_on_c, 0, 73, 0
2, 215640, Note_on_c, 0, 75, 85
2, 215760, Note_on_c, 0, 75, 0
2, 215760, Note_on_c, 0, 76, 86
2, 215880, Note_on_c, 0, 76, 0
2, 215880, Note_on_c, 0, 78, 87
2, 216000, Note_on_c, 0, 78, 0
2, 216000, Note_on_c, 0, 80, 87
2, 216156, Note_on_c, 0, 80, 0
2, 216240, Note_on_c, 0, 73, 89
2, 216396, Note_on_c, 0, 73, 0
2, 216480, Note_on_c, 0, 73, 90
2, 216600, Note_on_c, 0, 73, 0
2, 216600, Note_on_c, 0, 74, 91
2, 216720, Note_on_c, 0, 74, 0
2, 216720, Note_on_c, 0, 76, 92
2, 216840, Note_on_c, 0, 76, 0
2, 216840, Note_on_c, 0, 78, 92
2, 216960, Note_on_c, 0, 78, 0
2, 216960, Note_on_c, 0, 79, 93
2, 217116, Note_on_c, 0, 79, 0
2, 217200, Note_on_c, 0, 73, 95
2, 217356, Note_on_c, 0, 73, 0
2, 217440, Note_on_c, 0, 79, 96
2, 217596, Note_on_c, 0, 79, 0
2, 217680, Note_on_c, 0, 73, 98
2, 217836, Note_on_c, 0, 73, 0
2, 217920, Note_on_c, 0, 79, 99
2, 218076, Note_on_c, 0, 79, 0
2, 218160, Note_on_c, 0, 73, 101
2, 218316, Note_on_c, 0, 73, 0
2, 218400, Note_on_c, 0, 78, 102
2, 218520, Note_on_c, 0, 78, 0
2, 218520, Note_on_c, 0, 74, 103
2, 218640, Note_on_c, 0, 74, 0
2, 218640, Note_on_c, 0, 69, 104
2, 218760, Note_on_c, 0, 69, 0
2, 218760, Note_on_c, 0, 66, 104
2, 218880, Note_on_c, 0, 66, 0
2, 218880, Note_on_c, 0, 79, 105
2, 219000, Note_on_c, 0, 79, 0
2, 219000, Note_on_c, 0, 74, 106
2, 219120, Note_on_c, 0, 74, 0
2, 219120, Note_on_c, 0, 71, 107
2, 219240, Note_on_c, 0, 71, 0
2, 219240, Note_on_c, 0, 67, 107
2, 219360, Note_on_c, 0, 67, 0
2, 219360, Note_on_c, 0, 78, 107
2, 219480, Note_on_c, 0, 78, 0
2, 219480, Note_on_c, 0, 74, 106
2, 219600, Note_on_c, 0, 74, 0
2, 219600, Note_on_c, 0, 69, 105
2, 219720, Note_on_c, 0, 69, 0
2, 219720, Note_on_c, 0, 66, 104
2, 219840, Note_on_c, 0, 66, 0
2, 219840, Note_on_c, 0, 62, 103
2, 219960, Note_on_c, 0, 62, 0
2, 219960, Note_on_c, 0, 57, 102
2, 220080, Note_on_c, 0, 57, 0
2, 220080, Note_on_c, 0, 54, 100
2, 220200, Note_on_c, 0, 54, 0
2, 220200, Note_on_c, 0, 50, 99
2, 220320, Note_on_c, 0, 50, 0
2, 220440, Note_on_c, 0, 59, 100
2, 220560, Note_on_c, 0, 59, 0
2, 220680, Note_on_c, 0, 55, 101
2, 220800, Note_on_c, 0, 55, 0
2, 220920, Note_on_c, 0, 61, 101
2, 221040, Note_on_c, 0, 61, 0
2, 221160, Note_on_c, 0, 57, 102
2, 221280, Note_on_c, 0, 57, 0
2, 221400, Note_on_c, 0, 62, 102
2, 221520, Note_on_c, 0, 62, 0
2, 221640, Note_on_c, 0, 59, 103
2, 221760, Note_on_c, 0, 59, 0
2, 221880, Note_on_c, 0, 64, 103
2, 222000, Note_on_c, 0, 64, 0
2, 222120, Note_on_c, 0, 61, 104
2, 222240, Note_on_c, 0, 61, 0
2, 222360, Note_on_c, 0, 66, 104
2, 222480, Note_on_c, 0, 66, 0
2, 222600, Note_on_c, 0, 62, 105
2, 222720, Note_on_c, 0, 62, 0
2, 222840, Note_on_c, 0, 67, 106
2, 222960, Note_on_c, 0, 67, 0
2, 223080, Note_on_c, 0, 64, 106
2, 223200, Note_on_c, 0, 64, 0
2, 223320, Note_on_c, 0, 69, 107
2, 223440, Note_on_c, 0, 69, 0
2, 223560, Note_on_c, 0, 66, 107
2, 223680, Note_on_c, 0, 66, 0
2, 223800, Note_on_c, 0, 71, 108
2, 223920, Note_on_c, 0, 71, 0
2, 224040, Note_on_c, 0, 68, 108
2, 224160, Note_on_c, 0, 68, 0
2, 224160, Note_on_c, 0, 69, 109
2, 224640, Note_on_c, 0, 69, 0
2, 224640, Note_on_c, 0, 79, 117
2, 224796, Note_on_c, 0, 79, 0
2, 224880, Note_on_c, 0, 79, 110
2, 225036, Note_on_c, 0, 79, 0
2, 225120, Note_on_c, 0, 79, 118
2, 225360, Note_on_c, 0, 79, 0
2, 225360, Note_on_c, 0, 78, 111
2, 225516, Note_on_c, 0, 78, 0
2, 225600, Note_on_c, 0, 85, 112
2, 225756, Note_on_c, 0, 85, 0
2, 225840, Note_on_c, 0, 85, 113
2, 225996, Note_on_c, 0, 85, 0
2, 226080, Note_on_c, 0, 88, 119
2, 226320, Note_on_c, 0, 88, 0
2, 226320, Note_on_c, 0, 86, 114
2, 226476, Note_on_c, 0, 86, 0
2, 226560, Note_on_c, 0, 79, 114
2, 226716, Note_on_c, 0, 79, 0
2, 226800, Note_on_c, 0, 79, 115
2, 226956, Note_on_c, 0, 79, 0
2, 227040, Note_on_c, 0, 79, 122
2, 227280, Note_on_c, 0, 79, 0
2, 227280, Note_on_c, 0, 78, 116
2, 227436, Note_on_c, 0, 78, 0
2, 227520, Note_on_c, 0, 85, 116
2, 227676, Note_on_c, 0, 85, 0
2, 227760, Note_on_c, 0, 85, 117
2, 227916, Note_on_c, 0, 85, 0
2, 228000, Note_on_c, 0, 88, 125
2, 228240, Note_on_c, 0, 88, 0
2, 228240, Note_on_c, 0, 86, 118
2, 228396, Note_on_c, 0, 86, 0
2, 228480, Note_on_c, 0, 79, 119
2, 228636, Note_on_c, 0, 79, 0
2, 228720, Note_on_c, 0, 79, 119
2, 228876, Note_on_c, 0, 79, 0
2, 228960, Note_on_c, 0, 79, 127
2, 229200, Note_on_c, 0, 79, 0
2, 229200, Note_on_c, 0, 78, 122
2, 229296, Note_on_c, 0, 78, 0
2, 229440, Note_on_c, 0, 86, 123
2, 229596, Note_on_c, 0, 86, 0
2, 229680, Note_on_c, 0, 86, 124
2, 229836, Note_on_c, 0, 86, 0
2, 229920, Note_on_c, 0, 81, 125
2, 230280, Note_on_c, 0, 81, 0
2, 230880, Note_on_c, 0, 73, 127
2, 231240, Note_on_c, 0, 73, 0
2, 232800, Note_on_c, 0, 73, 76
2, 232920, Note_on_c, 0, 73, 0
2, 232920, Note_on_c, 0, 74, 76
2, 233040, Note_on_c, 0, 74, 0
2, 233040, Note_on_c, 0, 76, 77
2, 233160, Note_on_c, 0, 76, 0
2, 233160, Note_on_c, 0, 78, 77
2, 233280, Note_on_c, 0, 78, 0
2, 233280, Note_on_c, 0, 79, 78
2, 233436, Note_on_c, 0, 79, 0
2, 233520, Note_on_c, 0, 73, 78
2, 233676, Note_on_c, 0, 73, 0
2, 233760, Note_on_c, 0, 74, 79
2, 233880, Note_on_c, 0, 74, 0
2, 233880, Note_on_c, 0, 76, 80
2, 234000, Note_on_c, 0, 76, 0
2, 234000, Note_on_c, 0, 78, 80
2, 234120, Note_on_c, 0, 78, 0
2, 234120, Note_on_c, 0, 79, 81
2, 234240, Note_on_c, 0, 79, 0
2, 234240, Note_on_c, 0, 81, 83
2, 234396, Note_on_c, 0, 81, 0
2, 234480, Note_on_c, 0, 74, 83
2, 234636, Note_on_c, 0, 74, 0
2, 234720, Note_on_c, 0, 73, 83
2, 235680, Note_on_c, 0, 73, 0
2, 236640, Note_on_c, 0, 50, 76
2, 236796, Note_on_c, 0, 50, 0
2, 237120, Note_on_c, 0, 57, 74
2, 237276, Note_on_c, 0, 57, 0
2, 237600, Note_on_c, 0, 62, 72
2, 237756, Note_on_c, 0, 62, 0
2, 238080, Note_on_c, 0, 69, 70
2, 238236, Note_on_c, 0, 69, 0
2, 238560, Note_on_c, 0, 74, 68
2, 238716, Note_on_c, 0, 74, 0
2, 239040, Note_on_c, 0, 81, 67
2, 239196, Note_on_c, 0, 81, 0
2, 239520, Note_on_c, 0, 86, 65
2, 239880, Note_on_c, 0, 86, 0
2, 242400, Note_on_c, 0, 81, 127
2, 242640, Note_on_c, 0, 81, 0
2, 243360, Note_on_c, 0, 74, 127
2, 243600, Note_on_c, 0, 74, 0
2, 243600, End_track
3, 0, Start_track
3, 0, Title_t, "Piano Variation No-17"
3, 0, Control_c, 0, 0, 0
3, 0, Control_c, 0, 7, 115
3, 0, Control_c, 0, 10, 64
3, 0, Control_c, 0, 91, 100
3, 0, Control_c, 0, 93, 28
3, 0, Control_c, 0, 64, 0
3, 0, Control_c, 0, 1, 0
3, 0, Pitch_bend_c, 0, 8192
3, 1, Control_c, 0, 32, 0
3, 1, Program_c, 0, 0
3, 960, Note_on_c, 0, 62, 93
3, 960, Note_on_c, 0, 66, 93
3, 960, Note_on_c, 0, 69, 93
3, 1440, Note_on_c, 0, 69, 0
3, 1440, Note_on_c, 0, 66, 0
3, 1440, Note_on_c, 0, 62, 0
3, 1440, Note_on_c, 0, 71, 96
3, 1440, Note_on_c, 0, 67, 96
3, 1440, Note_on_c, 0, 62, 96
3, 1920, Note_on_c, 0, 62, 0
3, 1920, Note_on_c, 0, 67, 0
3, 1920, Note_on_c, 0, 71, 0
3, 1920, Note_on_c, 0, 69, 99
3, 1920, Note_on_c, 0, 66, 99
3, 1920, Note_on_c, 0, 62, 99
3, 2400, Note_on_c, 0, 62, 0
3, 2400, Note_on_c, 0, 66, 0
3, 2400, Note_on_c, 0, 69, 0
3, 2640, Note_on_c, 0, 69, 96
3, 2640, Note_on_c, 0, 62, 96
3, 2796, Note_on_c, 0, 62, 0
3, 2796, Note_on_c, 0, 69, 0
3, 2880, Note_on_c, 0, 71, 95
3, 2880, Note_on_c, 0, 62, 95
3, 3360, Note_on_c, 0, 62, 0
3, 3360, Note_on_c, 0, 71, 0
3, 3360, Note_on_c, 0, 69, 92
3, 3360, Note_on_c, 0, 61, 92
3, 3840, Note_on_c, 0, 61, 0
3, 3840, Note_on_c, 0, 69, 0
3, 3840, Note_on_c, 0, 69, 90
3, 3840, Note_on_c, 0, 62, 90
3, 4320, Note_on_c, 0, 62, 0
3, 4320, Note_on_c, 0, 69, 0
3, 11040, Note_on_c, 0, 68, 92
3, 11520, Note_on_c, 0, 68, 0
3, 12240, Note_on_c, 0, 69, 91
3, 12240, Note_on_c, 0, 61, 91
3, 12372, Note_on_c, 0, 61, 0
3, 12372, Note_on_c, 0, 69, 0
3, 12480, Note_on_c, 0, 69, 92
3, 12480, Note_on_c, 0, 62, 92
3, 12612, Note_on_c, 0, 62, 0
3, 12612, Note_on_c, 0, 69, 0
3, 12720, Note_on_c, 0, 76, 93
3, 12720, Note_on_c, 0, 61, 93
3, 12852, Note_on_c, 0, 61, 0
3, 12852, Note_on_c, 0, 76, 0
3, 12960, Note_on_c, 0, 59, 95
3, 13092, Note_on_c, 0, 59, 0
3, 13200, Note_on_c, 0, 74, 96
3, 13200, Note_on_c, 0, 64, 96
3, 13332, Note_on_c, 0, 64, 0
3, 13332, Note_on_c, 0, 74, 0
3, 13440, Note_on_c, 0, 73, 97
3, 13440, Note_on_c, 0, 57, 97
3, 13800, Note_on_c, 0, 57, 0
3, 13920, Note_on_c, 0, 73, 0
3, 19320, Note_on_c, 0, 74, 96
3, 19440, Note_on_c, 0, 74, 0
3, 19560, Note_on_c, 0, 76, 94
3, 19680, Note_on_c, 0, 76, 0
3, 27000, Note_on_c, 0, 74, 107
3, 27120, Note_on_c, 0, 74, 0
3, 27240, Note_on_c, 0, 76, 105
3, 27360, Note_on_c, 0, 76, 0
3, 32640, Note_on_c, 0, 61, 65
3, 33600, Note_on_c, 0, 61, 0
3, 33600, Note_on_c, 0, 61, 68
3, 34080, Note_on_c, 0, 61, 0
3, 34080, Note_on_c, 0, 59, 69
3, 34560, Note_on_c, 0, 59, 0
3, 34560, Note_on_c, 0, 58, 71
3, 34800, Note_on_c, 0, 58, 0
3, 34800, Note_on_c, 0, 57, 71
3, 35280, Note_on_c, 0, 57, 0
3, 35280, Note_on_c, 0, 57, 73
3, 36000, Note_on_c, 0, 57, 0
3, 36240, Note_on_c, 0, 57, 69
3, 36480, Note_on_c, 0, 57, 0
3, 36480, Note_on_c, 0, 54, 66
3, 36720, Note_on_c, 0, 54, 0
3, 36720, Note_on_c, 0, 50, 63
3, 36960, Note_on_c, 0, 50, 0
3, 39120, Note_on_c, 0, 76, 64
3, 39276, Note_on_c, 0, 76, 0
3, 40560, Note_on_c, 0, 62, 65
3, 40716, Note_on_c, 0, 62, 0
3, 41760, Note_on_c, 0, 73, 66
3, 41916, Note_on_c, 0, 73, 0
3, 42480, Note_on_c, 0, 76, 67
3, 42636, Note_on_c, 0, 76, 0
3, 43200, Note_on_c, 0, 73, 71
3, 43356, Note_on_c, 0, 73, 0
3, 43920, Note_on_c, 0, 69, 77
3, 44076, Note_on_c, 0, 69, 0
3, 44640, Note_on_c, 0, 64, 82
3, 44796, Note_on_c, 0, 64, 0
3, 45360, Note_on_c, 0, 61, 88
3, 46080, Note_on_c, 0, 61, 0
3, 46080, Note_on_c, 0, 61, 94
3, 46800, Note_on_c, 0, 61, 0
3, 46800, Note_on_c, 0, 59, 100
3, 46956, Note_on_c, 0, 59, 0
3, 47040, Note_on_c, 0, 57, 109
3, 47196, Note_on_c, 0, 57, 0
3, 47280, Note_on_c, 0, 61, 90
3, 47436, Note_on_c, 0, 61, 0
3, 47520, Note_on_c, 0, 61, 82
3, 47676, Note_on_c, 0, 61, 0
3, 47760, Note_on_c, 0, 67, 76
3, 47760, Note_on_c, 0, 61, 76
3, 47916, Note_on_c, 0, 61, 0
3, 47916, Note_on_c, 0, 67, 0
3, 48000, Note_on_c, 0, 67, 75
3, 48000, Note_on_c, 0, 61, 75
3, 48156, Note_on_c, 0, 61, 0
3, 48156, Note_on_c, 0, 67, 0
3, 48240, Note_on_c, 0, 67, 73
3, 48240, Note_on_c, 0, 61, 73
3, 48396, Note_on_c, 0, 61, 0
3, 48396, Note_on_c, 0, 67, 0
3, 48480, Note_on_c, 0, 66, 71
3, 48480, Note_on_c, 0, 62, 71
3, 48636, Note_on_c, 0, 62, 0
3, 48636, Note_on_c, 0, 66, 0
3, 48720, Note_on_c, 0, 66, 69
3, 48720, Note_on_c, 0, 62, 69
3, 48876, Note_on_c, 0, 62, 0
3, 48876, Note_on_c, 0, 66, 0
3, 48960, Note_on_c, 0, 66, 68
3, 48960, Note_on_c, 0, 62, 68
3, 49116, Note_on_c, 0, 62, 0
3, 49116, Note_on_c, 0, 66, 0
3, 49200, Note_on_c, 0, 68, 72
3, 49200, Note_on_c, 0, 59, 72
3, 49200, Note_on_c, 0, 62, 72
3, 49356, Note_on_c, 0, 62, 0
3, 49356, Note_on_c, 0, 59, 0
3, 49356, Note_on_c, 0, 68, 0
3, 49440, Note_on_c, 0, 68, 68
3, 49440, Note_on_c, 0, 59, 68
3, 49440, Note_on_c, 0, 62, 68
3, 49596, Note_on_c, 0, 62, 0
3, 49596, Note_on_c, 0, 59, 0
3, 49596, Note_on_c, 0, 68, 0
3, 49680, Note_on_c, 0, 59, 65
3, 49680, Note_on_c, 0, 68, 65
3, 49680, Note_on_c, 0, 62, 65
3, 49836, Note_on_c, 0, 62, 0
3, 49836, Note_on_c, 0, 68, 0
3, 49836, Note_on_c, 0, 59, 0
3, 49920, Note_on_c, 0, 61, 64
3, 50076, Note_on_c, 0, 61, 0
3, 51360, Note_on_c, 0, 60, 64
3, 52800, Note_on_c, 0, 60, 0
3, 52800, Note_on_c, 0, 59, 67
3, 53280, Note_on_c, 0, 59, 0
3, 53760, Note_on_c, 0, 71, 69
3, 54000, Note_on_c, 0, 71, 0
3, 54000, Note_on_c, 0, 70, 69
3, 54240, Note_on_c, 0, 70, 0
3, 54240, Note_on_c, 0, 71, 68
3, 55440, Note_on_c, 0, 71, 0
3, 55440, Note_on_c, 0, 67, 74
3, 55680, Note_on_c, 0, 67, 0
3, 55680, Note_on_c, 0, 64, 76
3, 55872, Note_on_c, 0, 64, 0
3, 57360, Note_on_c, 0, 70, 85
3, 57360, Note_on_c, 0, 73, 85
3, 57600, Note_on_c, 0, 70, 0
3, 57600, Note_on_c, 0, 69, 87
3, 57840, Note_on_c, 0, 69, 0
3, 57840, Note_on_c, 0, 70, 90
3, 58080, Note_on_c, 0, 70, 0
3, 58080, Note_on_c, 0, 69, 92
3, 58316, Note_on_c, 0, 73, 0
3, 58320, Note_on_c, 0, 69, 0
3, 58320, Note_on_c, 0, 67, 94
3, 58320, Note_on_c, 0, 73, 94
3, 58560, Note_on_c, 0, 73, 0
3, 58560, Note_on_c, 0, 67, 0
3, 58560, Note_on_c, 0, 66, 109
3, 58560, Note_on_c, 0, 74, 109
3, 58716, Note_on_c, 0, 74, 0
3, 58716, Note_on_c, 0, 66, 0
3, 58800, Note_on_c, 0, 66, 90
3, 58800, Note_on_c, 0, 74, 90
3, 58956, Note_on_c, 0, 74, 0
3, 58956, Note_on_c, 0, 66, 0
3, 59040, Note_on_c, 0, 68, 80
3, 59040, Note_on_c, 0, 74, 80
3, 59196, Note_on_c, 0, 74, 0
3, 59196, Note_on_c, 0, 68, 0
3, 59280, Note_on_c, 0, 74, 76
3, 59280, Note_on_c, 0, 69, 76
3, 59436, Note_on_c, 0, 69, 0
3, 59436, Note_on_c, 0, 74, 0
3, 59520, Note_on_c, 0, 69, 75
3, 59520, Note_on_c, 0, 74, 75
3, 59676, Note_on_c, 0, 74, 0
3, 59676, Note_on_c, 0, 69, 0
3, 59760, Note_on_c, 0, 74, 73
3, 59760, Note_on_c, 0, 71, 73
3, 59916, Note_on_c, 0, 71, 0
3, 59916, Note_on_c, 0, 74, 0
3, 60000, Note_on_c, 0, 74, 72
3, 60000, Note_on_c, 0, 69, 72
3, 60156, Note_on_c, 0, 69, 0
3, 60156, Note_on_c, 0, 74, 0
3, 60240, Note_on_c, 0, 69, 70
3, 60240, Note_on_c, 0, 74, 70
3, 60396, Note_on_c, 0, 74, 0
3, 60396, Note_on_c, 0, 69, 0
3, 60480, Note_on_c, 0, 69, 69
3, 60480, Note_on_c, 0, 74, 69
3, 60636, Note_on_c, 0, 74, 0
3, 60636, Note_on_c, 0, 69, 0
3, 60720, Note_on_c, 0, 73, 73
3, 60720, Note_on_c, 0, 69, 73
3, 60876, Note_on_c, 0, 69, 0
3, 60876, Note_on_c, 0, 73, 0
3, 60960, Note_on_c, 0, 69, 68
3, 60960, Note_on_c, 0, 73, 68
3, 61116, Note_on_c, 0, 73, 0
3, 61116, Note_on_c, 0, 69, 0
3, 61200, Note_on_c, 0, 69, 64
3, 61200, Note_on_c, 0, 73, 64
3, 61356, Note_on_c, 0, 73, 0
3, 61356, Note_on_c, 0, 69, 0
3, 61440, Note_on_c, 0, 69, 60
3, 61440, Note_on_c, 0, 74, 60
3, 61596, Note_on_c, 0, 74, 0
3, 61596, Note_on_c, 0, 69, 0
3, 62880, Note_on_c, 0, 72, 63
3, 62880, Note_on_c, 0, 69, 63
3, 64320, Note_on_c, 0, 69, 0
3, 64320, Note_on_c, 0, 72, 0
3, 64320, Note_on_c, 0, 71, 70
3, 64512, Note_on_c, 0, 71, 0
3, 64560, Note_on_c, 0, 71, 70
3, 64800, Note_on_c, 0, 71, 0
3, 64800, Note_on_c, 0, 70, 71
3, 65040, Note_on_c, 0, 70, 0
3, 65040, Note_on_c, 0, 71, 71
3, 65280, Note_on_c, 0, 71, 0
3, 65280, Note_on_c, 0, 79, 72
3, 65520, Note_on_c, 0, 79, 0
3, 65520, Note_on_c, 0, 78, 72
3, 65760, Note_on_c, 0, 78, 0
3, 65760, Note_on_c, 0, 79, 73
3, 66960, Note_on_c, 0, 79, 0
3, 66960, Note_on_c, 0, 76, 75
3, 67200, Note_on_c, 0, 76, 0
3, 67200, Note_on_c, 0, 73, 76
3, 67392, Note_on_c, 0, 73, 0
3, 68880, Note_on_c, 0, 82, 84
3, 68880, Note_on_c, 0, 73, 84
3, 69120, Note_on_c, 0, 82, 0
3, 69120, Note_on_c, 0, 81, 87
3, 69360, Note_on_c, 0, 81, 0
3, 69360, Note_on_c, 0, 82, 92
3, 69600, Note_on_c, 0, 82, 0
3, 69600, Note_on_c, 0, 81, 96
3, 69830, Note_on_c, 0, 73, 0
3, 69840, Note_on_c, 0, 81, 0
3, 69840, Note_on_c, 0, 73, 100
3, 69840, Note_on_c, 0, 79, 100
3, 70080, Note_on_c, 0, 79, 0
3, 70080, Note_on_c, 0, 73, 0
3, 70080, Note_on_c, 0, 78, 109
3, 70080, Note_on_c, 0, 74, 109
3, 70236, Note_on_c, 0, 74, 0
3, 70236, Note_on_c, 0, 78, 0
3, 70320, Note_on_c, 0, 74, 92
3, 70320, Note_on_c, 0, 78, 92
3, 70476, Note_on_c, 0, 78, 0
3, 70476, Note_on_c, 0, 74, 0
3, 70560, Note_on_c, 0, 74, 85
3, 70560, Note_on_c, 0, 80, 85
3, 70716, Note_on_c, 0, 80, 0
3, 70716, Note_on_c, 0, 74, 0
3, 70800, Note_on_c, 0, 81, 77
3, 70800, Note_on_c, 0, 74, 77
3, 70956, Note_on_c, 0, 74, 0
3, 70956, Note_on_c, 0, 81, 0
3, 71040, Note_on_c, 0, 81, 73
3, 71040, Note_on_c, 0, 74, 73
3, 71196, Note_on_c, 0, 74, 0
3, 71196, Note_on_c, 0, 81, 0
3, 71280, Note_on_c, 0, 83, 72
3, 71280, Note_on_c, 0, 74, 72
3, 71436, Note_on_c, 0, 74, 0
3, 71436, Note_on_c, 0, 83, 0
3, 71520, Note_on_c, 0, 74, 71
3, 71520, Note_on_c, 0, 81, 71
3, 71676, Note_on_c, 0, 81, 0
3, 71676, Note_on_c, 0, 74, 0
3, 71760, Note_on_c, 0, 81, 69
3, 71760, Note_on_c, 0, 74, 69
3, 71916, Note_on_c, 0, 74, 0
3, 71916, Note_on_c, 0, 81, 0
3, 72000, Note_on_c, 0, 81, 68
3, 72000, Note_on_c, 0, 74, 68
3, 72156, Note_on_c, 0, 74, 0
3, 72156, Note_on_c, 0, 81, 0
3, 72240, Note_on_c, 0, 73, 67
3, 72240, Note_on_c, 0, 81, 67
3, 72240, Note_on_c, 0, 79, 67
3, 72396, Note_on_c, 0, 79, 0
3, 72396, Note_on_c, 0, 81, 0
3, 72396, Note_on_c, 0, 73, 0
3, 72480, Note_on_c, 0, 73, 66
3, 72480, Note_on_c, 0, 79, 66
3, 72480, Note_on_c, 0, 81, 66
3, 72636, Note_on_c, 0, 81, 0
3, 72636, Note_on_c, 0, 79, 0
3, 72636, Note_on_c, 0, 73, 0
3, 72720, Note_on_c, 0, 73, 65
3, 72720, Note_on_c, 0, 79, 65
3, 72720, Note_on_c, 0, 81, 65
3, 72876, Note_on_c, 0, 81, 0
3, 72876, Note_on_c, 0, 79, 0
3, 72876, Note_on_c, 0, 73, 0
3, 72960, Note_on_c, 0, 78, 64
3, 72960, Note_on_c, 0, 74, 64
3, 72960, Note_on_c, 0, 81, 64
3, 73116, Note_on_c, 0, 81, 0
3, 73116, Note_on_c, 0, 74, 0
3, 73116, Note_on_c, 0, 78, 0
3, 104880, Note_on_c, 0, 57, 70
3, 104960, Note_on_c, 0, 57, 0
3, 104960, Note_on_c, 0, 59, 70
3, 105040, Note_on_c, 0, 59, 0
3, 105040, Note_on_c, 0, 55, 70
3, 105120, Note_on_c, 0, 55, 0
3, 105120, Note_on_c, 0, 54, 70
3, 105200, Note_on_c, 0, 54, 0
3, 105200, Note_on_c, 0, 57, 70
3, 105280, Note_on_c, 0, 57, 0
3, 105280, Note_on_c, 0, 61, 70
3, 105360, Note_on_c, 0, 61, 0
3, 105440, Note_on_c, 0, 57, 71
3, 105520, Note_on_c, 0, 57, 0
3, 105520, Note_on_c, 0, 54, 71
3, 105600, Note_on_c, 0, 54, 0
3, 105600, Note_on_c, 0, 55, 71
3, 105680, Note_on_c, 0, 55, 0
3, 105680, Note_on_c, 0, 59, 71
3, 105760, Note_on_c, 0, 59, 0
3, 105760, Note_on_c, 0, 61, 71
3, 105840, Note_on_c, 0, 61, 0
3, 105920, Note_on_c, 0, 59, 71
3, 106000, Note_on_c, 0, 59, 0
3, 106000, Note_on_c, 0, 55, 71
3, 106080, Note_on_c, 0, 55, 0
3, 106080, Note_on_c, 0, 54, 72
3, 106080, Note_on_c, 0, 57, 72
3, 106236, Note_on_c, 0, 57, 0
3, 106236, Note_on_c, 0, 54, 0
3, 107120, Note_on_c, 0, 64, 73
3, 107200, Note_on_c, 0, 64, 0
3, 107200, Note_on_c, 0, 62, 73
3, 107280, Note_on_c, 0, 62, 0
3, 107360, Note_on_c, 0, 64, 73
3, 107440, Note_on_c, 0, 64, 0
3, 107440, Note_on_c, 0, 62, 74
3, 107520, Note_on_c, 0, 62, 0
3, 107520, Note_on_c, 0, 55, 74
3, 107600, Note_on_c, 0, 55, 0
3, 107600, Note_on_c, 0, 64, 74
3, 107680, Note_on_c, 0, 64, 0
3, 107680, Note_on_c, 0, 61, 74
3, 107760, Note_on_c, 0, 61, 0
3, 107840, Note_on_c, 0, 64, 74
3, 107920, Note_on_c, 0, 64, 0
3, 107920, Note_on_c, 0, 61, 74
3, 108000, Note_on_c, 0, 61, 0
3, 108000, Note_on_c, 0, 62, 74
3, 108156, Note_on_c, 0, 62, 0
3, 109040, Note_on_c, 0, 66, 76
3, 109120, Note_on_c, 0, 66, 0
3, 109120, Note_on_c, 0, 69, 76
3, 109200, Note_on_c, 0, 69, 0
3, 109280, Note_on_c, 0, 69, 76
3, 109360, Note_on_c, 0, 69, 0
3, 109360, Note_on_c, 0, 74, 76
3, 109440, Note_on_c, 0, 74, 0
3, 109520, Note_on_c, 0, 74, 77
3, 109600, Note_on_c, 0, 74, 0
3, 109600, Note_on_c, 0, 78, 77
3, 109680, Note_on_c, 0, 78, 0
3, 109760, Note_on_c, 0, 78, 77
3, 109840, Note_on_c, 0, 78, 0
3, 109840, Note_on_c, 0, 81, 78
3, 109920, Note_on_c, 0, 81, 0
3, 110960, Note_on_c, 0, 81, 84
3, 111040, Note_on_c, 0, 81, 0
3, 111040, Note_on_c, 0, 78, 83
3, 111120, Note_on_c, 0, 78, 0
3, 111200, Note_on_c, 0, 69, 81
3, 111280, Note_on_c, 0, 69, 0
3, 111280, Note_on_c, 0, 66, 80
3, 111360, Note_on_c, 0, 66, 0
3, 111360, Note_on_c, 0, 74, 79
3, 111440, Note_on_c, 0, 74, 0
3, 111440, Note_on_c, 0, 68, 78
3, 111520, Note_on_c, 0, 68, 0
3, 111520, Note_on_c, 0, 74, 76
3, 111600, Note_on_c, 0, 74, 0
3, 111600, Note_on_c, 0, 68, 75
3, 111680, Note_on_c, 0, 68, 0
3, 111760, Note_on_c, 0, 68, 73
3, 111840, Note_on_c, 0, 68, 0
3, 113840, Note_on_c, 0, 81, 89
3, 113920, Note_on_c, 0, 81, 0
3, 113920, Note_on_c, 0, 76, 90
3, 114000, Note_on_c, 0, 76, 0
3, 114080, Note_on_c, 0, 76, 91
3, 114160, Note_on_c, 0, 76, 0
3, 114160, Note_on_c, 0, 74, 92
3, 114240, Note_on_c, 0, 74, 0
3, 114320, Note_on_c, 0, 76, 93
3, 114400, Note_on_c, 0, 76, 0
3, 114400, Note_on_c, 0, 73, 94
3, 114480, Note_on_c, 0, 73, 0
3, 114560, Note_on_c, 0, 74, 96
3, 114640, Note_on_c, 0, 74, 0
3, 114640, Note_on_c, 0, 71, 96
3, 114720, Note_on_c, 0, 71, 0
3, 114800, Note_on_c, 0, 76, 98
3, 114880, Note_on_c, 0, 76, 0
3, 114880, Note_on_c, 0, 81, 98
3, 114960, Note_on_c, 0, 81, 0
3, 115040, Note_on_c, 0, 81, 100
3, 115120, Note_on_c, 0, 81, 0
3, 115120, Note_on_c, 0, 76, 100
3, 115200, Note_on_c, 0, 76, 0
3, 115280, Note_on_c, 0, 71, 102
3, 115360, Note_on_c, 0, 71, 0
3, 115360, Note_on_c, 0, 76, 103
3, 115440, Note_on_c, 0, 76, 0
3, 115520, Note_on_c, 0, 68, 104
3, 115600, Note_on_c, 0, 68, 0
3, 115600, Note_on_c, 0, 76, 105
3, 115680, Note_on_c, 0, 76, 0
3, 115920, Note_on_c, 0, 73, 108
3, 115920, Note_on_c, 0, 76, 108
3, 116076, Note_on_c, 0, 76, 0
3, 116076, Note_on_c, 0, 73, 0
3, 116400, Note_on_c, 0, 73, 112
3, 116400, Note_on_c, 0, 79, 112
3, 116556, Note_on_c, 0, 79, 0
3, 116556, Note_on_c, 0, 73, 0
3, 116880, Note_on_c, 0, 74, 116
3, 116880, Note_on_c, 0, 78, 116
3, 117036, Note_on_c, 0, 78, 0
3, 117036, Note_on_c, 0, 74, 0
3, 117360, Note_on_c, 0, 74, 120
3, 117360, Note_on_c, 0, 71, 120
3, 117516, Note_on_c, 0, 71, 0
3, 117516, Note_on_c, 0, 74, 0
3, 118560, Note_on_c, 0, 57, 77
3, 118560, Note_on_c, 0, 60, 77
3, 119520, Note_on_c, 0, 60, 0
3, 119520, Note_on_c, 0, 57, 0
3, 120560, Note_on_c, 0, 81, 99
3, 120640, Note_on_c, 0, 81, 0
3, 120640, Note_on_c, 0, 79, 97
3, 120720, Note_on_c, 0, 79, 0
3, 120800, Note_on_c, 0, 79, 93
3, 120880, Note_on_c, 0, 79, 0
3, 120880, Note_on_c, 0, 78, 91
3, 120960, Note_on_c, 0, 78, 0
3, 121040, Note_on_c, 0, 78, 87
3, 121120, Note_on_c, 0, 78, 0
3, 121120, Note_on_c, 0, 76, 85
3, 121200, Note_on_c, 0, 76, 0
3, 121280, Note_on_c, 0, 76, 81
3, 121360, Note_on_c, 0, 76, 0
3, 121360, Note_on_c, 0, 74, 79
3, 121440, Note_on_c, 0, 74, 0
3, 122480, Note_on_c, 0, 73, 87
3, 122560, Note_on_c, 0, 73, 0
3, 122560, Note_on_c, 0, 76, 87
3, 122640, Note_on_c, 0, 76, 0
3, 122720, Note_on_c, 0, 76, 88
3, 122800, Note_on_c, 0, 76, 0
3, 122800, Note_on_c, 0, 81, 89
3, 122880, Note_on_c, 0, 81, 0
3, 122960, Note_on_c, 0, 81, 90
3, 123040, Note_on_c, 0, 81, 0
3, 123040, Note_on_c, 0, 85, 90
3, 123120, Note_on_c, 0, 85, 0
3, 123200, Note_on_c, 0, 85, 91
3, 123280, Note_on_c, 0, 85, 0
3, 123280, Note_on_c, 0, 81, 92
3, 123360, Note_on_c, 0, 81, 0
3, 123440, Note_on_c, 0, 81, 93
3, 123520, Note_on_c, 0, 81, 0
3, 123520, Note_on_c, 0, 78, 93
3, 123600, Note_on_c, 0, 78, 0
3, 123600, Note_on_c, 0, 74, 94
3, 123680, Note_on_c, 0, 74, 0
3, 123680, Note_on_c, 0, 78, 95
3, 123760, Note_on_c, 0, 78, 0
3, 123760, Note_on_c, 0, 81, 95
3, 123840, Note_on_c, 0, 81, 0
3, 123920, Note_on_c, 0, 83, 96
3, 124000, Note_on_c, 0, 83, 0
3, 124000, Note_on_c, 0, 76, 97
3, 124080, Note_on_c, 0, 76, 0
3, 124080, Note_on_c, 0, 74, 97
3, 124160, Note_on_c, 0, 74, 0
3, 124160, Note_on_c, 0, 76, 98
3, 124240, Note_on_c, 0, 76, 0
3, 124240, Note_on_c, 0, 83, 98
3, 124320, Note_on_c, 0, 83, 0
3, 124400, Note_on_c, 0, 81, 99
3, 124480, Note_on_c, 0, 81, 0
3, 124480, Note_on_c, 0, 78, 100
3, 124560, Note_on_c, 0, 78, 0
3, 124560, Note_on_c, 0, 74, 100
3, 124640, Note_on_c, 0, 74, 0
3, 124640, Note_on_c, 0, 78, 101
3, 124720, Note_on_c, 0, 78, 0
3, 124720, Note_on_c, 0, 81, 101
3, 124800, Note_on_c, 0, 81, 0
3, 124880, Note_on_c, 0, 81, 102
3, 124960, Note_on_c, 0, 81, 0
3, 124960, Note_on_c, 0, 79, 103
3, 125040, Note_on_c, 0, 79, 0
3, 125040, Note_on_c, 0, 76, 104
3, 125120, Note_on_c, 0, 76, 0
3, 125120, Note_on_c, 0, 79, 104
3, 125200, Note_on_c, 0, 79, 0
3, 125200, Note_on_c, 0, 73, 105
3, 125280, Note_on_c, 0, 73, 0
3, 125360, Note_on_c, 0, 78, 101
3, 125440, Note_on_c, 0, 78, 0
3, 125440, Note_on_c, 0, 74, 99
3, 125520, Note_on_c, 0, 74, 0
3, 125520, Note_on_c, 0, 69, 96
3, 125600, Note_on_c, 0, 69, 0
3, 125600, Note_on_c, 0, 74, 94
3, 125680, Note_on_c, 0, 74, 0
3, 125680, Note_on_c, 0, 69, 92
3, 125760, Note_on_c, 0, 69, 0
3, 125760, Note_on_c, 0, 66, 90
3, 125840, Note_on_c, 0, 66, 0
3, 125840, Note_on_c, 0, 69, 88
3, 125920, Note_on_c, 0, 69, 0
3, 125920, Note_on_c, 0, 66, 86
3, 126000, Note_on_c, 0, 66, 0
3, 126000, Note_on_c, 0, 62, 84
3, 126080, Note_on_c, 0, 62, 0
3, 126080, Note_on_c, 0, 66, 82
3, 126160, Note_on_c, 0, 66, 0
3, 126160, Note_on_c, 0, 62, 80
3, 126240, Note_on_c, 0, 62, 0
3, 126240, Note_on_c, 0, 60, 87
3, 127200, Note_on_c, 0, 60, 0
3, 128240, Note_on_c, 0, 81, 110
3, 128320, Note_on_c, 0, 81, 0
3, 128320, Note_on_c, 0, 79, 107
3, 128400, Note_on_c, 0, 79, 0
3, 128480, Note_on_c, 0, 79, 101
3, 128560, Note_on_c, 0, 79, 0
3, 128560, Note_on_c, 0, 78, 98
3, 128640, Note_on_c, 0, 78, 0
3, 128720, Note_on_c, 0, 78, 93
3, 128800, Note_on_c, 0, 78, 0
3, 128800, Note_on_c, 0, 76, 90
3, 128880, Note_on_c, 0, 76, 0
3, 128960, Note_on_c, 0, 76, 84
3, 129040, Note_on_c, 0, 76, 0
3, 129040, Note_on_c, 0, 74, 81
3, 129120, Note_on_c, 0, 74, 0
3, 129120, Note_on_c, 0, 64, 80
3, 130080, Note_on_c, 0, 64, 0
3, 130160, Note_on_c, 0, 61, 93
3, 130240, Note_on_c, 0, 61, 0
3, 130240, Note_on_c, 0, 64, 94
3, 130320, Note_on_c, 0, 64, 0
3, 130320, Note_on_c, 0, 69, 95
3, 130400, Note_on_c, 0, 69, 0
3, 130400, Note_on_c, 0, 73, 96
3, 130480, Note_on_c, 0, 73, 0
3, 130480, Note_on_c, 0, 76, 97
3, 130560, Note_on_c, 0, 76, 0
3, 130640, Note_on_c, 0, 76, 99
3, 130720, Note_on_c, 0, 76, 0
3, 130720, Note_on_c, 0, 73, 100
3, 130800, Note_on_c, 0, 73, 0
3, 130800, Note_on_c, 0, 69, 101
3, 130880, Note_on_c, 0, 69, 0
3, 130880, Note_on_c, 0, 73, 102
3, 130960, Note_on_c, 0, 73, 0
3, 130960, Note_on_c, 0, 76, 103
3, 131040, Note_on_c, 0, 76, 0
3, 131120, Note_on_c, 0, 74, 105
3, 131200, Note_on_c, 0, 74, 0
3, 131200, Note_on_c, 0, 69, 106
3, 131280, Note_on_c, 0, 69, 0
3, 131360, Note_on_c, 0, 74, 108
3, 131440, Note_on_c, 0, 74, 0
3, 131440, Note_on_c, 0, 69, 109
3, 131520, Note_on_c, 0, 69, 0
3, 131600, Note_on_c, 0, 74, 111
3, 131680, Note_on_c, 0, 74, 0
3, 131680, Note_on_c, 0, 71, 112
3, 131760, Note_on_c, 0, 71, 0
3, 131840, Note_on_c, 0, 74, 114
3, 131920, Note_on_c, 0, 74, 0
3, 131920, Note_on_c, 0, 71, 115
3, 132000, Note_on_c, 0, 71, 0
3, 132080, Note_on_c, 0, 74, 118
3, 132160, Note_on_c, 0, 74, 0
3, 132160, Note_on_c, 0, 69, 119
3, 132240, Note_on_c, 0, 69, 0
3, 132320, Note_on_c, 0, 74, 121
3, 132400, Note_on_c, 0, 74, 0
3, 132400, Note_on_c, 0, 69, 122
3, 132480, Note_on_c, 0, 69, 0
3, 132560, Note_on_c, 0, 73, 124
3, 132640, Note_on_c, 0, 73, 0
3, 132640, Note_on_c, 0, 69, 125
3, 132720, Note_on_c, 0, 69, 0
3, 132800, Note_on_c, 0, 73, 127
3, 132880, Note_on_c, 0, 73, 0
3, 132880, Note_on_c, 0, 69, 127
3, 132960, Note_on_c, 0, 69, 0
3, 132960, Note_on_c, 0, 74, 127
3, 132960, Note_on_c, 0, 69, 127
3, 133116, Note_on_c, 0, 69, 0
3, 133116, Note_on_c, 0, 74, 0
3, 134880, Note_on_c, 0, 54, 104
3, 134880, Note_on_c, 0, 50, 104
3, 135360, Note_on_c, 0, 50, 0
3, 135360, Note_on_c, 0, 54, 0
3, 135360, Note_on_c, 0, 55, 106
3, 135360, Note_on_c, 0, 52, 106
3, 135840, Note_on_c, 0, 52, 0
3, 135840, Note_on_c, 0, 55, 0
3, 135840, Note_on_c, 0, 50, 111
3, 135840, Note_on_c, 0, 54, 111
3, 136560, Note_on_c, 0, 54, 0
3, 136560, Note_on_c, 0, 50, 0
3, 138480, Note_on_c, 0, 54, 95
3, 138558, Note_on_c, 0, 54, 0
3, 138720, Note_on_c, 0, 59, 93
3, 138798, Note_on_c, 0, 59, 0
3, 138960, Note_on_c, 0, 61, 96
3, 139038, Note_on_c, 0, 61, 0
3, 139200, Note_on_c, 0, 62, 100
3, 139278, Note_on_c, 0, 62, 0
3, 139440, Note_on_c, 0, 64, 104
3, 139518, Note_on_c, 0, 64, 0
3, 139680, Note_on_c, 0, 66, 116
3, 140400, Note_on_c, 0, 66, 0
3, 140400, Note_on_c, 0, 69, 104
3, 140478, Note_on_c, 0, 69, 0
3, 140640, Note_on_c, 0, 68, 102
3, 140718, Note_on_c, 0, 68, 0
3, 140880, Note_on_c, 0, 71, 100
3, 140958, Note_on_c, 0, 71, 0
3, 141120, Note_on_c, 0, 61, 98
3, 141198, Note_on_c, 0, 61, 0
3, 141360, Note_on_c, 0, 68, 96
3, 141360, Note_on_c, 0, 61, 96
3, 141438, Note_on_c, 0, 61, 0
3, 141438, Note_on_c, 0, 68, 0
3, 141600, Note_on_c, 0, 66, 94
3, 141600, Note_on_c, 0, 61, 94
3, 142320, Note_on_c, 0, 61, 0
3, 142320, Note_on_c, 0, 66, 0
3, 142320, Note_on_c, 0, 66, 98
3, 142320, Note_on_c, 0, 61, 98
3, 142440, Note_on_c, 0, 61, 0
3, 142440, Note_on_c, 0, 66, 0
3, 142560, Note_on_c, 0, 66, 104
3, 142560, Note_on_c, 0, 61, 104
3, 142680, Note_on_c, 0, 61, 0
3, 142680, Note_on_c, 0, 66, 0
3, 142800, Note_on_c, 0, 57, 100
3, 142800, Note_on_c, 0, 61, 100
3, 142896, Note_on_c, 0, 61, 0
3, 142896, Note_on_c, 0, 57, 0
3, 143280, Note_on_c, 0, 66, 103
3, 143280, Note_on_c, 0, 69, 103
3, 143400, Note_on_c, 0, 69, 0
3, 143400, Note_on_c, 0, 66, 0
3, 143520, Note_on_c, 0, 66, 110
3, 143520, Note_on_c, 0, 69, 110
3, 143640, Note_on_c, 0, 69, 0
3, 143640, Note_on_c, 0, 66, 0
3, 143760, Note_on_c, 0, 66, 105
3, 143760, Note_on_c, 0, 61, 105
3, 143856, Note_on_c, 0, 61, 0
3, 143856, Note_on_c, 0, 66, 0
3, 144240, Note_on_c, 0, 73, 108
3, 144240, Note_on_c, 0, 69, 108
3, 144336, Note_on_c, 0, 69, 0
3, 144336, Note_on_c, 0, 73, 0
3, 144480, Note_on_c, 0, 73, 114
3, 144480, Note_on_c, 0, 69, 114
3, 144576, Note_on_c, 0, 69, 0
3, 144576, Note_on_c, 0, 73, 0
3, 144720, Note_on_c, 0, 73, 107
3, 144720, Note_on_c, 0, 71, 107
3, 144798, Note_on_c, 0, 71, 0
3, 144798, Note_on_c, 0, 73, 0
3, 144960, Note_on_c, 0, 73, 104
3, 144960, Note_on_c, 0, 69, 104
3, 145038, Note_on_c, 0, 69, 0
3, 145038, Note_on_c, 0, 73, 0
3, 145200, Note_on_c, 0, 68, 102
3, 145200, Note_on_c, 0, 66, 102
3, 145278, Note_on_c, 0, 66, 0
3, 145278, Note_on_c, 0, 68, 0
3, 145440, Note_on_c, 0, 69, 100
3, 145440, Note_on_c, 0, 66, 100
3, 145920, Note_on_c, 0, 66, 0
3, 145920, Note_on_c, 0, 69, 0
3, 145920, Note_on_c, 0, 68, 96
3, 145920, Note_on_c, 0, 65, 96
3, 146400, Note_on_c, 0, 65, 0
3, 146400, Note_on_c, 0, 68, 0
3, 147120, Note_on_c, 0, 62, 91
3, 147120, Note_on_c, 0, 59, 91
3, 147216, Note_on_c, 0, 59, 0
3, 147216, Note_on_c, 0, 62, 0
3, 147360, Note_on_c, 0, 58, 89
3, 147360, Note_on_c, 0, 61, 89
3, 147456, Note_on_c, 0, 61, 0
3, 147456, Note_on_c, 0, 58, 0
3, 147600, Note_on_c, 0, 57, 86
3, 147600, Note_on_c, 0, 60, 86
3, 147678, Note_on_c, 0, 60, 0
3, 147678, Note_on_c, 0, 57, 0
3, 147840, Note_on_c, 0, 56, 83
3, 147840, Note_on_c, 0, 59, 83
3, 147918, Note_on_c, 0, 59, 0
3, 147918, Note_on_c, 0, 56, 0
3, 148080, Note_on_c, 0, 65, 81
3, 148080, Note_on_c, 0, 55, 81
3, 148080, Note_on_c, 0, 59, 81
3, 148158, Note_on_c, 0, 59, 0
3, 148158, Note_on_c, 0, 55, 0
3, 148158, Note_on_c, 0, 65, 0
3, 148320, Note_on_c, 0, 54, 76
3, 148320, Note_on_c, 0, 58, 76
3, 148800, Note_on_c, 0, 58, 0
3, 148800, Note_on_c, 0, 54, 0
3, 149280, Note_on_c, 0, 66, 102
3, 149280, Note_on_c, 0, 59, 102
3, 149280, Note_on_c, 0, 63, 102
3, 149760, Note_on_c, 0, 63, 0
3, 149760, Note_on_c, 0, 59, 0
3, 149760, Note_on_c, 0, 66, 0
3, 149760, Note_on_c, 0, 66, 95
3, 149760, Note_on_c, 0, 59, 95
3, 149760, Note_on_c, 0, 63, 95
3, 149838, Note_on_c, 0, 63, 0
3, 149838, Note_on_c, 0, 59, 0
3, 149838, Note_on_c, 0, 66, 0
3, 150000, Note_on_c, 0, 63, 96
3, 150000, Note_on_c, 0, 59, 96
3, 150078, Note_on_c, 0, 59, 0
3, 150078, Note_on_c, 0, 63, 0
3, 150240, Note_on_c, 0, 64, 103
3, 150240, Note_on_c, 0, 59, 103
3, 150318, Note_on_c, 0, 59, 0
3, 150318, Note_on_c, 0, 64, 0
3, 150480, Note_on_c, 0, 59, 98
3, 150480, Note_on_c, 0, 55, 98
3, 150558, Note_on_c, 0, 55, 0
3, 150558, Note_on_c, 0, 59, 0
3, 150960, Note_on_c, 0, 64, 100
3, 150960, Note_on_c, 0, 67, 100
3, 151056, Note_on_c, 0, 67, 0
3, 151056, Note_on_c, 0, 64, 0
3, 151200, Note_on_c, 0, 67, 109
3, 151296, Note_on_c, 0, 67, 0
3, 151440, Note_on_c, 0, 66, 101
3, 151518, Note_on_c, 0, 66, 0
3, 151680, Note_on_c, 0, 64, 95
3, 151680, Note_on_c, 0, 67, 95
3, 151758, Note_on_c, 0, 67, 0
3, 151758, Note_on_c, 0, 64, 0
3, 151920, Note_on_c, 0, 66, 89
3, 151920, Note_on_c, 0, 62, 89
3, 151998, Note_on_c, 0, 62, 0
3, 151998, Note_on_c, 0, 66, 0
3, 152160, Note_on_c, 0, 58, 84
3, 152160, Note_on_c, 0, 61, 84
3, 152880, Note_on_c, 0, 61, 0
3, 152880, Note_on_c, 0, 58, 0
3, 152880, Note_on_c, 0, 66, 92
3, 152880, Note_on_c, 0, 64, 92
3, 153000, Note_on_c, 0, 64, 0
3, 153000, Note_on_c, 0, 66, 0
3, 153120, Note_on_c, 0, 73, 101
3, 153120, Note_on_c, 0, 76, 101
3, 153600, Note_on_c, 0, 76, 0
3, 153600, Note_on_c, 0, 73, 0
3, 153600, Note_on_c, 0, 73, 102
3, 153600, Note_on_c, 0, 66, 102
3, 154080, Note_on_c, 0, 66, 0
3, 154080, Note_on_c, 0, 73, 0
3, 154080, Note_on_c, 0, 66, 113
3, 154080, Note_on_c, 0, 71, 113
3, 154176, Note_on_c, 0, 71, 0
3, 154176, Note_on_c, 0, 66, 0
3, 154320, Note_on_c, 0, 71, 104
3, 154320, Note_on_c, 0, 64, 104
3, 154398, Note_on_c, 0, 64, 0
3, 154398, Note_on_c, 0, 71, 0
3, 154560, Note_on_c, 0, 66, 99
3, 154560, Note_on_c, 0, 71, 99
3, 154638, Note_on_c, 0, 71, 0
3, 154638, Note_on_c, 0, 66, 0
3, 154800, Note_on_c, 0, 59, 95
3, 154800, Note_on_c, 0, 67, 95
3, 154878, Note_on_c, 0, 67, 0
3, 154878, Note_on_c, 0, 59, 0
3, 155040, Note_on_c, 0, 62, 95
3, 155040, Note_on_c, 0, 59, 95
3, 155520, Note_on_c, 0, 59, 0
3, 155520, Note_on_c, 0, 62, 0
3, 155520, Note_on_c, 0, 70, 89
3, 155520, Note_on_c, 0, 64, 89
3, 156000, Note_on_c, 0, 64, 0
3, 156000, Note_on_c, 0, 70, 0
3, 156000, Note_on_c, 0, 62, 84
3, 156480, Note_on_c, 0, 62, 0
3, 156960, Note_on_c, 0, 67, 84
3, 156960, Note_on_c, 0, 71, 84
3, 156960, Note_on_c, 0, 62, 84
3, 157680, Note_on_c, 0, 62, 0
3, 157680, Note_on_c, 0, 71, 0
3, 157680, Note_on_c, 0, 67, 0
3, 157680, Note_on_c, 0, 71, 82
3, 157680, Note_on_c, 0, 62, 82
3, 157680, Note_on_c, 0, 67, 82
3, 157800, Note_on_c, 0, 67, 0
3, 157800, Note_on_c, 0, 62, 0
3, 157800, Note_on_c, 0, 71, 0
3, 157920, Note_on_c, 0, 72, 92
3, 157920, Note_on_c, 0, 67, 92
3, 157920, Note_on_c, 0, 64, 92
3, 158040, Note_on_c, 0, 64, 0
3, 158040, Note_on_c, 0, 67, 0
3, 158040, Note_on_c, 0, 72, 0
3, 158160, Note_on_c, 0, 72, 86
3, 158160, Note_on_c, 0, 67, 86
3, 158160, Note_on_c, 0, 64, 86
3, 158238, Note_on_c, 0, 64, 0
3, 158238, Note_on_c, 0, 67, 0
3, 158238, Note_on_c, 0, 72, 0
3, 158640, Note_on_c, 0, 62, 90
3, 158640, Note_on_c, 0, 71, 90
3, 158640, Note_on_c, 0, 67, 90
3, 158760, Note_on_c, 0, 67, 0
3, 158760, Note_on_c, 0, 71, 0
3, 158760, Note_on_c, 0, 62, 0
3, 158880, Note_on_c, 0, 72, 101
3, 158880, Note_on_c, 0, 67, 101
3, 158880, Note_on_c, 0, 64, 101
3, 158976, Note_on_c, 0, 64, 0
3, 158976, Note_on_c, 0, 67, 0
3, 158976, Note_on_c, 0, 72, 0
3, 159120, Note_on_c, 0, 71, 95
3, 159120, Note_on_c, 0, 62, 95
3, 159120, Note_on_c, 0, 67, 95
3, 159198, Note_on_c, 0, 67, 0
3, 159198, Note_on_c, 0, 62, 0
3, 159198, Note_on_c, 0, 71, 0
3, 159360, Note_on_c, 0, 64, 97
3, 159360, Note_on_c, 0, 60, 97
3, 159438, Note_on_c, 0, 60, 0
3, 159438, Note_on_c, 0, 64, 0
3, 159600, Note_on_c, 0, 65, 99
3, 159600, Note_on_c, 0, 59, 99
3, 159678, Note_on_c, 0, 59, 0
3, 159678, Note_on_c, 0, 65, 0
3, 159840, Note_on_c, 0, 58, 106
3, 159840, Note_on_c, 0, 61, 106
3, 160560, Note_on_c, 0, 61, 0
3, 160560, Note_on_c, 0, 58, 0
3, 160800, Note_on_c, 0, 66, 115
3, 160800, Note_on_c, 0, 70, 115
3, 160800, Note_on_c, 0, 73, 115
3, 161280, Note_on_c, 0, 73, 0
3, 161280, Note_on_c, 0, 70, 0
3, 161280, Note_on_c, 0, 66, 0
3, 161280, Note_on_c, 0, 73, 112
3, 161280, Note_on_c, 0, 64, 112
3, 161280, Note_on_c, 0, 70, 112
3, 161760, Note_on_c, 0, 70, 0
3, 161760, Note_on_c, 0, 64, 0
3, 161760, Note_on_c, 0, 73, 0
3, 161760, Note_on_c, 0, 62, 109
3, 161760, Note_on_c, 0, 71, 109
3, 161838, Note_on_c, 0, 71, 0
3, 161838, Note_on_c, 0, 62, 0
3, 162000, Note_on_c, 0, 73, 108
3, 162000, Note_on_c, 0, 64, 108
3, 162078, Note_on_c, 0, 64, 0
3, 162078, Note_on_c, 0, 73, 0
3, 162240, Note_on_c, 0, 74, 107
3, 162240, Note_on_c, 0, 66, 107
3, 162318, Note_on_c, 0, 66, 0
3, 162318, Note_on_c, 0, 74, 0
3, 162480, Note_on_c, 0, 66, 105
3, 162480, Note_on_c, 0, 62, 105
3, 162558, Note_on_c, 0, 62, 0
3, 162558, Note_on_c, 0, 66, 0
3, 162720, Note_on_c, 0, 59, 103
3, 162720, Note_on_c, 0, 62, 103
3, 163200, Note_on_c, 0, 62, 0
3, 163200, Note_on_c, 0, 59, 0
3, 163200, Note_on_c, 0, 66, 88
3, 163200, Note_on_c, 0, 64, 88
3, 163680, Note_on_c, 0, 64, 0
3, 163680, Note_on_c, 0, 66, 0
3, 163680, Note_on_c, 0, 66, 73
3, 163680, Note_on_c, 0, 62, 73
3, 164160, Note_on_c, 0, 62, 0
3, 164160, Note_on_c, 0, 66, 0
3, 164160, Note_on_c, 0, 64, 57
3, 164160, Note_on_c, 0, 67, 57
3, 164640, Note_on_c, 0, 67, 0
3, 164640, Note_on_c, 0, 64, 0
3, 176880, Note_on_c, 0, 73, 93
3, 177000, Note_on_c, 0, 73, 0
3, 177360, Note_on_c, 0, 73, 88
3, 177480, Note_on_c, 0, 73, 0
3, 177600, Note_on_c, 0, 74, 86
3, 177720, Note_on_c, 0, 74, 0
3, 177840, Note_on_c, 0, 71, 83
3, 177840, Note_on_c, 0, 74, 83
3, 177960, Note_on_c, 0, 74, 0
3, 177960, Note_on_c, 0, 71, 0
3, 178080, Note_on_c, 0, 76, 80
3, 178080, Note_on_c, 0, 73, 80
3, 178236, Note_on_c, 0, 73, 0
3, 178236, Note_on_c, 0, 76, 0
3, 185880, Note_on_c, 0, 74, 78
3, 186000, Note_on_c, 0, 74, 0
3, 186000, Note_on_c, 0, 73, 78
3, 186120, Note_on_c, 0, 73, 0
3, 186120, Note_on_c, 0, 74, 78
3, 186240, Note_on_c, 0, 74, 0
3, 186240, Note_on_c, 0, 73, 78
3, 186360, Note_on_c, 0, 73, 0
3, 186360, Note_on_c, 0, 74, 78
3, 186480, Note_on_c, 0, 74, 0
3, 186480, Note_on_c, 0, 76, 78
3, 186600, Note_on_c, 0, 76, 0
3, 186600, Note_on_c, 0, 74, 78
3, 186720, Note_on_c, 0, 74, 0
3, 186720, Note_on_c, 0, 72, 78
3, 186840, Note_on_c, 0, 72, 0
3, 186840, Note_on_c, 0, 74, 78
3, 186960, Note_on_c, 0, 74, 0
3, 186960, Note_on_c, 0, 71, 84
3, 187080, Note_on_c, 0, 71, 0
3, 187080, Note_on_c, 0, 74, 79
3, 187200, Note_on_c, 0, 74, 0
3, 187200, Note_on_c, 0, 72, 79
3, 187320, Note_on_c, 0, 72, 0
3, 187320, Note_on_c, 0, 74, 79
3, 187440, Note_on_c, 0, 74, 0
3, 187440, Note_on_c, 0, 70, 80
3, 187560, Note_on_c, 0, 70, 0
3, 187560, Note_on_c, 0, 74, 80
3, 187680, Note_on_c, 0, 74, 0
3, 187680, Note_on_c, 0, 71, 80
3, 187800, Note_on_c, 0, 71, 0
3, 187800, Note_on_c, 0, 74, 81
3, 187920, Note_on_c, 0, 74, 0
3, 187920, Note_on_c, 0, 73, 81
3, 188040, Note_on_c, 0, 73, 0
3, 188040, Note_on_c, 0, 74, 81
3, 188160, Note_on_c, 0, 74, 0
3, 188160, Note_on_c, 0, 71, 82
3, 188280, Note_on_c, 0, 71, 0
3, 188280, Note_on_c, 0, 74, 82
3, 188400, Note_on_c, 0, 74, 0
3, 188400, Note_on_c, 0, 69, 83
3, 188520, Note_on_c, 0, 69, 0
3, 188520, Note_on_c, 0, 75, 83
3, 188640, Note_on_c, 0, 75, 0
3, 188640, Note_on_c, 0, 71, 85
3, 188760, Note_on_c, 0, 71, 0
3, 188760, Note_on_c, 0, 76, 85
3, 188880, Note_on_c, 0, 76, 0
3, 188880, Note_on_c, 0, 69, 84
3, 189000, Note_on_c, 0, 69, 0
3, 189000, Note_on_c, 0, 75, 84
3, 189120, Note_on_c, 0, 75, 0
3, 189120, Note_on_c, 0, 67, 83
3, 189240, Note_on_c, 0, 67, 0
3, 189240, Note_on_c, 0, 71, 83
3, 189360, Note_on_c, 0, 71, 0
3, 189360, Note_on_c, 0, 64, 82
3, 189480, Note_on_c, 0, 64, 0
3, 189480, Note_on_c, 0, 71, 82
3, 189600, Note_on_c, 0, 71, 0
3, 189600, Note_on_c, 0, 64, 82
3, 189720, Note_on_c, 0, 69, 81
3, 189840, Note_on_c, 0, 69, 0
3, 189840, Note_on_c, 0, 68, 81
3, 189960, Note_on_c, 0, 68, 0
3, 189960, Note_on_c, 0, 69, 80
3, 190080, Note_on_c, 0, 69, 0
3, 190080, Note_on_c, 0, 64, 0
3, 190080, Note_on_c, 0, 71, 80
3, 190200, Note_on_c, 0, 71, 0
3, 190200, Note_on_c, 0, 69, 79
3, 190320, Note_on_c, 0, 69, 0
3, 190320, Note_on_c, 0, 72, 79
3, 190440, Note_on_c, 0, 72, 0
3, 190440, Note_on_c, 0, 69, 80
3, 190560, Note_on_c, 0, 69, 0
3, 190560, Note_on_c, 0, 73, 81
3, 190680, Note_on_c, 0, 73, 0
3, 190680, Note_on_c, 0, 69, 82
3, 190800, Note_on_c, 0, 69, 0
3, 190800, Note_on_c, 0, 74, 88
3, 190920, Note_on_c, 0, 74, 0
3, 190920, Note_on_c, 0, 69, 84
3, 191040, Note_on_c, 0, 69, 0
3, 191040, Note_on_c, 0, 75, 85
3, 191160, Note_on_c, 0, 75, 0
3, 191160, Note_on_c, 0, 69, 87
3, 191280, Note_on_c, 0, 69, 0
3, 191280, Note_on_c, 0, 76, 88
3, 191400, Note_on_c, 0, 76, 0
3, 191400, Note_on_c, 0, 69, 89
3, 191520, Note_on_c, 0, 69, 0
3, 191640, Note_on_c, 0, 74, 91
3, 191760, Note_on_c, 0, 74, 0
3, 191760, Note_on_c, 0, 79, 100
3, 191880, Note_on_c, 0, 79, 0
3, 191880, Note_on_c, 0, 74, 93
3, 192000, Note_on_c, 0, 74, 0
3, 192000, Note_on_c, 0, 81, 94
3, 192120, Note_on_c, 0, 81, 0
3, 192120, Note_on_c, 0, 74, 94
3, 192240, Note_on_c, 0, 74, 0
3, 192240, Note_on_c, 0, 83, 94
3, 192360, Note_on_c, 0, 83, 0
3, 192360, Note_on_c, 0, 74, 94
3, 192480, Note_on_c, 0, 74, 0
3, 192480, Note_on_c, 0, 78, 95
3, 192600, Note_on_c, 0, 78, 0
3, 192600, Note_on_c, 0, 76, 95
3, 192720, Note_on_c, 0, 76, 0
3, 192720, Note_on_c, 0, 78, 96
3, 192720, Note_on_c, 0, 69, 96
3, 192840, Note_on_c, 0, 78, 0
3, 192840, Note_on_c, 0, 74, 96
3, 192876, Note_on_c, 0, 69, 0
3, 192960, Note_on_c, 0, 74, 0
3, 192960, Note_on_c, 0, 79, 97
3, 193080, Note_on_c, 0, 79, 0
3, 193080, Note_on_c, 0, 78, 97
3, 193200, Note_on_c, 0, 78, 0
3, 193200, Note_on_c, 0, 69, 97
3, 193200, Note_on_c, 0, 79, 97
3, 193320, Note_on_c, 0, 79, 0
3, 193320, Note_on_c, 0, 76, 98
3, 193356, Note_on_c, 0, 69, 0
3, 193440, Note_on_c, 0, 76, 0
3, 224640, Note_on_c, 0, 73, 117
3, 224796, Note_on_c, 0, 73, 0
3, 225120, Note_on_c, 0, 74, 118
3, 225360, Note_on_c, 0, 74, 0
3, 225600, Note_on_c, 0, 79, 112
3, 225756, Note_on_c, 0, 79, 0
3, 225840, Note_on_c, 0, 79, 113
3, 225996, Note_on_c, 0, 79, 0
3, 226080, Note_on_c, 0, 78, 119
3, 226320, Note_on_c, 0, 78, 0
3, 226560, Note_on_c, 0, 73, 114
3, 226716, Note_on_c, 0, 73, 0
3, 227040, Note_on_c, 0, 74, 122
3, 227280, Note_on_c, 0, 74, 0
3, 227520, Note_on_c, 0, 79, 116
3, 227676, Note_on_c, 0, 79, 0
3, 228000, Note_on_c, 0, 78, 125
3, 228240, Note_on_c, 0, 78, 0
3, 228480, Note_on_c, 0, 73, 119
3, 228636, Note_on_c, 0, 73, 0
3, 228720, Note_on_c, 0, 73, 119
3, 228876, Note_on_c, 0, 73, 0
3, 228960, Note_on_c, 0, 74, 127
3, 229200, Note_on_c, 0, 74, 0
3, 229440, Note_on_c, 0, 78, 123
3, 229440, Note_on_c, 0, 83, 123
3, 229440, Note_on_c, 0, 74, 123
3, 229596, Note_on_c, 0, 74, 0
3, 229596, Note_on_c, 0, 83, 0
3, 229596, Note_on_c, 0, 78, 0
3, 229680, Note_on_c, 0, 83, 124
3, 229680, Note_on_c, 0, 78, 124
3, 229680, Note_on_c, 0, 74, 124
3, 229836, Note_on_c, 0, 74, 0
3, 229836, Note_on_c, 0, 78, 0
3, 229836, Note_on_c, 0, 83, 0
3, 229920, Note_on_c, 0, 78, 125
3, 229920, Note_on_c, 0, 69, 125
3, 229920, Note_on_c, 0, 74, 125
3, 230280, Note_on_c, 0, 74, 0
3, 230280, Note_on_c, 0, 69, 0
3, 230280, Note_on_c, 0, 78, 0
3, 230880, Note_on_c, 0, 64, 127
3, 230880, Note_on_c, 0, 67, 127
3, 231240, Note_on_c, 0, 67, 0
3, 231240, Note_on_c, 0, 64, 0
3, 231840, Note_on_c, 0, 62, 72
3, 231960, Note_on_c, 0, 62, 0
3, 231960, Note_on_c, 0, 64, 73
3, 232080, Note_on_c, 0, 64, 0
3, 232080, Note_on_c, 0, 66, 73
3, 232200, Note_on_c, 0, 66, 0
3, 232200, Note_on_c, 0, 67, 74
3, 232320, Note_on_c, 0, 67, 0
3, 232320, Note_on_c, 0, 69, 74
3, 232476, Note_on_c, 0, 69, 0
3, 232560, Note_on_c, 0, 62, 75
3, 232716, Note_on_c, 0, 62, 0
3, 232800, Note_on_c, 0, 70, 76
3, 233760, Note_on_c, 0, 70, 0
3, 234720, Note_on_c, 0, 64, 83
3, 234840, Note_on_c, 0, 64, 0
3, 234840, Note_on_c, 0, 66, 83
3, 234960, Note_on_c, 0, 66, 0
3, 234960, Note_on_c, 0, 67, 82
3, 235080, Note_on_c, 0, 67, 0
3, 235080, Note_on_c, 0, 69, 82
3, 235200, Note_on_c, 0, 69, 0
3, 235200, Note_on_c, 0, 70, 81
3, 235356, Note_on_c, 0, 70, 0
3, 235440, Note_on_c, 0, 64, 80
3, 235596, Note_on_c, 0, 64, 0
3, 242400, Note_on_c, 0, 76, 127
3, 242400, Note_on_c, 0, 73, 127
3, 242400, Note_on_c, 0, 69, 127
3, 242640, Note_on_c, 0, 69, 0
3, 242640, Note_on_c, 0, 73, 0
3, 242640, Note_on_c, 0, 76, 0
3, 243360, Note_on_c, 0, 66, 127
3, 243360, Note_on_c, 0, 69, 127
3, 243360, Note_on_c, 0, 62, 127
3, 243600, Note_on_c, 0, 62, 0
3, 243600, Note_on_c, 0, 69, 0
3, 243600, Note_on_c, 0, 66, 0
3, 243600, End_track
4, 0, Start_track
4, 0, Title_t, "Piano"
4, 0, Control_c, 0, 0, 0
4, 0, Control_c, 0, 7, 115
4, 0, Control_c, 0, 10, 64
4, 0, Control_c, 0, 91, 100
4, 0, Control_c, 0, 93, 28
4, 0, Control_c, 0, 64, 0
4, 0, Control_c, 0, 1, 0
4, 0, Pitch_bend_c, 0, 8192
4, 1, Control_c, 0, 32, 0
4, 1, Program_c, 0, 0
4, 6000, Note_on_c, 0, 69, 94
4, 6132, Note_on_c, 0, 69, 0
4, 6240, Note_on_c, 0, 69, 95
4, 6372, Note_on_c, 0, 69, 0
4, 6480, Note_on_c, 0, 69, 96
4, 6612, Note_on_c, 0, 69, 0
4, 6720, Note_on_c, 0, 69, 98
4, 7200, Note_on_c, 0, 69, 0
4, 7200, Note_on_c, 0, 68, 94
4, 7680, Note_on_c, 0, 68, 0
4, 7680, Note_on_c, 0, 69, 90
4, 8160, Note_on_c, 0, 69, 0
4, 8880, Note_on_c, 0, 61, 89
4, 8880, Note_on_c, 0, 64, 89
4, 9012, Note_on_c, 0, 64, 0
4, 9012, Note_on_c, 0, 61, 0
4, 9120, Note_on_c, 0, 61, 90
4, 9120, Note_on_c, 0, 64, 90
4, 9252, Note_on_c, 0, 64, 0
4, 9252, Note_on_c, 0, 61, 0
4, 9360, Note_on_c, 0, 64, 90
4, 9360, Note_on_c, 0, 61, 90
4, 9492, Note_on_c, 0, 61, 0
4, 9492, Note_on_c, 0, 64, 0
4, 9600, Note_on_c, 0, 61, 91
4, 9600, Note_on_c, 0, 64, 91
4, 9756, Note_on_c, 0, 64, 0
4, 9756, Note_on_c, 0, 61, 0
4, 9840, Note_on_c, 0, 62, 92
4, 9996, Note_on_c, 0, 62, 0
4, 10080, Note_on_c, 0, 64, 93
4, 10236, Note_on_c, 0, 64, 0
4, 10320, Note_on_c, 0, 66, 94
4, 10476, Note_on_c, 0, 66, 0
4, 14400, Note_on_c, 0, 62, 97
4, 14400, Note_on_c, 0, 57, 97
4, 14880, Note_on_c, 0, 57, 0
4, 14880, Note_on_c, 0, 62, 0
4, 14880, Note_on_c, 0, 62, 94
4, 14880, Note_on_c, 0, 57, 94
4, 15012, Note_on_c, 0, 57, 0
4, 15012, Note_on_c, 0, 62, 0
4, 15120, Note_on_c, 0, 62, 93
4, 15120, Note_on_c, 0, 57, 93
4, 15240, Note_on_c, 0, 57, 0
4, 15240, Note_on_c, 0, 62, 0
4, 15360, Note_on_c, 0, 62, 92
4, 15360, Note_on_c, 0, 59, 92
4, 15480, Note_on_c, 0, 59, 0
4, 15480, Note_on_c, 0, 62, 0
4, 15600, Note_on_c, 0, 62, 91
4, 15600, Note_on_c, 0, 59, 91
4, 15720, Note_on_c, 0, 59, 0
4, 15720, Note_on_c, 0, 62, 0
4, 16080, Note_on_c, 0, 62, 93
4, 16224, Note_on_c, 0, 62, 0
4, 16320, Note_on_c, 0, 74, 94
4, 16320, Note_on_c, 0, 71, 94
4, 16320, Note_on_c, 0, 62, 94
4, 16452, Note_on_c, 0, 62, 0
4, 16452, Note_on_c, 0, 71, 0
4, 16452, Note_on_c, 0, 74, 0
4, 16560, Note_on_c, 0, 74, 96
4, 16560, Note_on_c, 0, 69, 96
4, 16560, Note_on_c, 0, 62, 96
4, 16692, Note_on_c, 0, 62, 0
4, 16692, Note_on_c, 0, 69, 0
4, 16692, Note_on_c, 0, 74, 0
4, 16800, Note_on_c, 0, 69, 97
4, 16800, Note_on_c, 0, 67, 97
4, 16800, Note_on_c, 0, 61, 97
4, 16932, Note_on_c, 0, 61, 0
4, 16932, Note_on_c, 0, 67, 0
4, 16932, Note_on_c, 0, 69, 0
4, 17040, Note_on_c, 0, 69, 99
4, 17040, Note_on_c, 0, 66, 99
4, 17040, Note_on_c, 0, 62, 99
4, 17172, Note_on_c, 0, 62, 0
4, 17172, Note_on_c, 0, 66, 0
4, 17172, Note_on_c, 0, 69, 0
4, 17280, Note_on_c, 0, 64, 100
4, 17280, Note_on_c, 0, 61, 100
4, 17760, Note_on_c, 0, 61, 0
4, 17760, Note_on_c, 0, 64, 0
4, 18240, Note_on_c, 0, 69, 105
4, 18240, Note_on_c, 0, 64, 105
4, 18720, Note_on_c, 0, 64, 0
4, 18720, Note_on_c, 0, 69, 0
4, 18720, Note_on_c, 0, 73, 101
4, 18720, Note_on_c, 0, 64, 101
4, 19200, Note_on_c, 0, 64, 0
4, 19200, Note_on_c, 0, 73, 0
4, 19200, Note_on_c, 0, 66, 97
4, 19320, Note_on_c, 0, 66, 0
4, 19440, Note_on_c, 0, 67, 95
4, 19560, Note_on_c, 0, 67, 0
4, 19680, Note_on_c, 0, 69, 94
4, 19800, Note_on_c, 0, 69, 0
4, 19920, Note_on_c, 0, 71, 92
4, 20040, Note_on_c, 0, 71, 0
4, 20160, Note_on_c, 0, 62, 90
4, 20160, Note_on_c, 0, 66, 90
4, 20640, Note_on_c, 0, 66, 0
4, 20640, Note_on_c, 0, 62, 0
4, 20640, Note_on_c, 0, 67, 83
4, 20640, Note_on_c, 0, 61, 83
4, 21120, Note_on_c, 0, 61, 0
4, 21120, Note_on_c, 0, 67, 0
4, 21120, Note_on_c, 0, 66, 85
4, 21600, Note_on_c, 0, 66, 0
4, 22080, Note_on_c, 0, 72, 106
4, 22080, Note_on_c, 0, 74, 106
4, 22080, Note_on_c, 0, 62, 106
4, 22560, Note_on_c, 0, 62, 0
4, 22560, Note_on_c, 0, 74, 0
4, 22560, Note_on_c, 0, 72, 0
4, 22800, Note_on_c, 0, 74, 105
4, 22800, Note_on_c, 0, 69, 105
4, 22800, Note_on_c, 0, 72, 105
4, 22800, Note_on_c, 0, 62, 105
4, 22956, Note_on_c, 0, 62, 0
4, 22956, Note_on_c, 0, 74, 0
4, 22956, Note_on_c, 0, 69, 0
4, 22956, Note_on_c, 0, 72, 0
4, 23040, Note_on_c, 0, 71, 106
4, 23040, Note_on_c, 0, 74, 106
4, 23184, Note_on_c, 0, 74, 0
4, 23184, Note_on_c, 0, 71, 0
4, 23280, Note_on_c, 0, 71, 107
4, 23280, Note_on_c, 0, 74, 107
4, 23400, Note_on_c, 0, 74, 0
4, 23400, Note_on_c, 0, 71, 0
4, 23760, Note_on_c, 0, 69, 108
4, 23760, Note_on_c, 0, 74, 108
4, 23760, Note_on_c, 0, 62, 108
4, 23892, Note_on_c, 0, 62, 0
4, 23892, Note_on_c, 0, 74, 0
4, 23892, Note_on_c, 0, 69, 0
4, 24000, Note_on_c, 0, 71, 111
4, 24000, Note_on_c, 0, 74, 111
4, 24000, Note_on_c, 0, 62, 111
4, 24132, Note_on_c, 0, 62, 0
4, 24132, Note_on_c, 0, 74, 0
4, 24132, Note_on_c, 0, 71, 0
4, 24240, Note_on_c, 0, 69, 110
4, 24240, Note_on_c, 0, 74, 110
4, 24240, Note_on_c, 0, 62, 110
4, 24372, Note_on_c, 0, 62, 0
4, 24372, Note_on_c, 0, 74, 0
4, 24372, Note_on_c, 0, 69, 0
4, 24480, Note_on_c, 0, 67, 108
4, 24480, Note_on_c, 0, 61, 108
4, 24480, Note_on_c, 0, 69, 108
4, 24612, Note_on_c, 0, 69, 0
4, 24612, Note_on_c, 0, 61, 0
4, 24612, Note_on_c, 0, 67, 0
4, 24720, Note_on_c, 0, 62, 107
4, 24720, Note_on_c, 0, 66, 107
4, 24720, Note_on_c, 0, 69, 107
4, 24840, Note_on_c, 0, 62, 0
4, 24852, Note_on_c, 0, 69, 0
4, 24852, Note_on_c, 0, 66, 0
4, 24960, Note_on_c, 0, 61, 106
4, 24960, Note_on_c, 0, 64, 106
4, 25440, Note_on_c, 0, 64, 0
4, 25440, Note_on_c, 0, 61, 0
4, 25920, Note_on_c, 0, 64, 115
4, 26400, Note_on_c, 0, 64, 0
4, 26400, Note_on_c, 0, 64, 111
4, 26880, Note_on_c, 0, 64, 0
4, 26880, Note_on_c, 0, 66, 108
4, 27000, Note_on_c, 0, 66, 0
4, 27120, Note_on_c, 0, 67, 106
4, 27240, Note_on_c, 0, 67, 0
4, 27840, Note_on_c, 0, 62, 100
4, 27840, Note_on_c, 0, 66, 100
4, 28320, Note_on_c, 0, 66, 0
4, 28320, Note_on_c, 0, 62, 0
4, 28320, Note_on_c, 0, 61, 97
4, 28320, Note_on_c, 0, 67, 97
4, 28800, Note_on_c, 0, 67, 0
4, 28800, Note_on_c, 0, 61, 0
4, 28800, Note_on_c, 0, 66, 100
4, 28956, Note_on_c, 0, 66, 0
4, 47280, Note_on_c, 0, 52, 90
4, 47436, Note_on_c, 0, 52, 0
4, 47520, Note_on_c, 0, 52, 82
4, 47676, Note_on_c, 0, 52, 0
4, 47760, Note_on_c, 0, 52, 76
4, 47916, Note_on_c, 0, 52, 0
4, 48000, Note_on_c, 0, 52, 75
4, 48156, Note_on_c, 0, 52, 0
4, 48240, Note_on_c, 0, 52, 73
4, 48396, Note_on_c, 0, 52, 0
4, 48480, Note_on_c, 0, 50, 71
4, 48636, Note_on_c, 0, 50, 0
4, 48720, Note_on_c, 0, 50, 69
4, 48876, Note_on_c, 0, 50, 0
4, 48960, Note_on_c, 0, 50, 68
4, 49116, Note_on_c, 0, 50, 0
4, 49200, Note_on_c, 0, 50, 72
4, 49200, Note_on_c, 0, 53, 72
4, 49356, Note_on_c, 0, 53, 0
4, 49356, Note_on_c, 0, 50, 0
4, 49440, Note_on_c, 0, 50, 68
4, 49440, Note_on_c, 0, 53, 68
4, 49596, Note_on_c, 0, 53, 0
4, 49596, Note_on_c, 0, 50, 0
4, 49680, Note_on_c, 0, 53, 65
4, 49680, Note_on_c, 0, 50, 65
4, 49836, Note_on_c, 0, 50, 0
4, 49836, Note_on_c, 0, 53, 0
4, 49920, Note_on_c, 0, 52, 64
4, 49920, Note_on_c, 0, 49, 64
4, 50076, Note_on_c, 0, 49, 0
4, 50076, Note_on_c, 0, 52, 0
4, 57360, Note_on_c, 0, 55, 85
4, 57600, Note_on_c, 0, 55, 0
4, 57600, Note_on_c, 0, 54, 87
4, 57840, Note_on_c, 0, 54, 0
4, 57840, Note_on_c, 0, 55, 90
4, 58080, Note_on_c, 0, 55, 0
4, 58080, Note_on_c, 0, 54, 92
4, 58320, Note_on_c, 0, 54, 0
4, 58320, Note_on_c, 0, 52, 94
4, 58560, Note_on_c, 0, 52, 0
4, 58560, Note_on_c, 0, 50, 109
4, 58716, Note_on_c, 0, 50, 0
4, 58800, Note_on_c, 0, 50, 90
4, 58956, Note_on_c, 0, 50, 0
4, 59040, Note_on_c, 0, 50, 80
4, 59040, Note_on_c, 0, 53, 80
4, 59196, Note_on_c, 0, 53, 0
4, 59196, Note_on_c, 0, 50, 0
4, 59280, Note_on_c, 0, 50, 76
4, 59280, Note_on_c, 0, 54, 76
4, 59436, Note_on_c, 0, 54, 0
4, 59436, Note_on_c, 0, 50, 0
4, 59520, Note_on_c, 0, 50, 75
4, 59520, Note_on_c, 0, 54, 75
4, 59676, Note_on_c, 0, 54, 0
4, 59676, Note_on_c, 0, 50, 0
4, 59760, Note_on_c, 0, 55, 73
4, 59760, Note_on_c, 0, 50, 73
4, 59916, Note_on_c, 0, 50, 0
4, 59916, Note_on_c, 0, 55, 0
4, 60000, Note_on_c, 0, 50, 72
4, 60000, Note_on_c, 0, 54, 72
4, 60156, Note_on_c, 0, 54, 0
4, 60156, Note_on_c, 0, 50, 0
4, 60240, Note_on_c, 0, 50, 70
4, 60240, Note_on_c, 0, 54, 70
4, 60396, Note_on_c, 0, 54, 0
4, 60396, Note_on_c, 0, 50, 0
4, 60480, Note_on_c, 0, 50, 69
4, 60480, Note_on_c, 0, 54, 69
4, 60636, Note_on_c, 0, 54, 0
4, 60636, Note_on_c, 0, 50, 0
4, 60720, Note_on_c, 0, 52, 73
4, 60720, Note_on_c, 0, 55, 73
4, 60876, Note_on_c, 0, 55, 0
4, 60876, Note_on_c, 0, 52, 0
4, 60960, Note_on_c, 0, 52, 68
4, 60960, Note_on_c, 0, 55, 68
4, 61116, Note_on_c, 0, 55, 0
4, 61116, Note_on_c, 0, 52, 0
4, 61200, Note_on_c, 0, 55, 64
4, 61200, Note_on_c, 0, 52, 64
4, 61356, Note_on_c, 0, 52, 0
4, 61356, Note_on_c, 0, 55, 0
4, 61440, Note_on_c, 0, 50, 60
4, 61440, Note_on_c, 0, 54, 60
4, 61596, Note_on_c, 0, 54, 0
4, 61596, Note_on_c, 0, 50, 0
4, 68880, Note_on_c, 0, 67, 84
4, 69120, Note_on_c, 0, 67, 0
4, 69120, Note_on_c, 0, 66, 87
4, 69360, Note_on_c, 0, 66, 0
4, 69360, Note_on_c, 0, 67, 92
4, 69600, Note_on_c, 0, 67, 0
4, 69600, Note_on_c, 0, 66, 96
4, 69840, Note_on_c, 0, 66, 0
4, 69840, Note_on_c, 0, 64, 100
4, 70080, Note_on_c, 0, 64, 0
4, 70080, Note_on_c, 0, 62, 109
4, 70236, Note_on_c, 0, 62, 0
4, 70320, Note_on_c, 0, 62, 92
4, 70476, Note_on_c, 0, 62, 0
4, 70560, Note_on_c, 0, 62, 85
4, 70560, Note_on_c, 0, 65, 85
4, 70716, Note_on_c, 0, 65, 0
4, 70716, Note_on_c, 0, 62, 0
4, 70800, Note_on_c, 0, 62, 77
4, 70800, Note_on_c, 0, 66, 77
4, 70956, Note_on_c, 0, 66, 0
4, 70956, Note_on_c, 0, 62, 0
4, 71040, Note_on_c, 0, 62, 73
4, 71040, Note_on_c, 0, 66, 73
4, 71196, Note_on_c, 0, 66, 0
4, 71196, Note_on_c, 0, 62, 0
4, 71280, Note_on_c, 0, 62, 72
4, 71280, Note_on_c, 0, 67, 72
4, 71436, Note_on_c, 0, 67, 0
4, 71436, Note_on_c, 0, 62, 0
4, 71520, Note_on_c, 0, 62, 71
4, 71520, Note_on_c, 0, 66, 71
4, 71676, Note_on_c, 0, 66, 0
4, 71676, Note_on_c, 0, 62, 0
4, 71760, Note_on_c, 0, 62, 69
4, 71760, Note_on_c, 0, 66, 69
4, 71916, Note_on_c, 0, 66, 0
4, 71916, Note_on_c, 0, 62, 0
4, 72000, Note_on_c, 0, 62, 68
4, 72000, Note_on_c, 0, 66, 68
4, 72156, Note_on_c, 0, 66, 0
4, 72156, Note_on_c, 0, 62, 0
4, 72240, Note_on_c, 0, 64, 67
4, 72240, Note_on_c, 0, 67, 67
4, 72396, Note_on_c, 0, 67, 0
4, 72396, Note_on_c, 0, 64, 0
4, 72480, Note_on_c, 0, 64, 66
4, 72480, Note_on_c, 0, 67, 66
4, 72636, Note_on_c, 0, 67, 0
4, 72636, Note_on_c, 0, 64, 0
4, 72720, Note_on_c, 0, 64, 65
4, 72720, Note_on_c, 0, 67, 65
4, 72876, Note_on_c, 0, 67, 0
4, 72876, Note_on_c, 0, 64, 0
4, 72960, Note_on_c, 0, 62, 64
4, 72960, Note_on_c, 0, 66, 64
4, 73116, Note_on_c, 0, 66, 0
4, 73116, Note_on_c, 0, 62, 0
4, 73200, Note_on_c, 0, 61, 62
4, 73440, Note_on_c, 0, 61, 0
4, 73440, Note_on_c, 0, 62, 61
4, 73596, Note_on_c, 0, 62, 0
4, 75480, Note_on_c, 0, 54, 68
4, 75600, Note_on_c, 0, 54, 0
4, 75720, Note_on_c, 0, 50, 68
4, 75840, Note_on_c, 0, 50, 0
4, 75960, Note_on_c, 0, 57, 68
4, 76080, Note_on_c, 0, 57, 0
4, 76200, Note_on_c, 0, 50, 68
4, 76320, Note_on_c, 0, 50, 0
4, 76440, Note_on_c, 0, 59, 69
4, 76560, Note_on_c, 0, 59, 0
4, 76680, Note_on_c, 0, 50, 69
4, 76800, Note_on_c, 0, 50, 0
4, 76920, Note_on_c, 0, 57, 69
4, 77040, Note_on_c, 0, 57, 0
4, 77160, Note_on_c, 0, 50, 69
4, 77280, Note_on_c, 0, 50, 0
4, 77400, Note_on_c, 0, 59, 69
4, 77520, Note_on_c, 0, 59, 0
4, 77640, Note_on_c, 0, 50, 69
4, 77760, Note_on_c, 0, 50, 0
4, 77880, Note_on_c, 0, 57, 69
4, 78000, Note_on_c, 0, 57, 0
4, 78120, Note_on_c, 0, 49, 69
4, 78240, Note_on_c, 0, 49, 0
4, 78360, Note_on_c, 0, 57, 70
4, 78480, Note_on_c, 0, 57, 0
4, 78600, Note_on_c, 0, 50, 70
4, 78720, Note_on_c, 0, 50, 0
4, 78840, Note_on_c, 0, 57, 70
4, 78960, Note_on_c, 0, 57, 0
4, 79080, Note_on_c, 0, 50, 70
4, 79200, Note_on_c, 0, 50, 0
4, 79320, Note_on_c, 0, 57, 70
4, 79440, Note_on_c, 0, 57, 0
4, 79560, Note_on_c, 0, 50, 70
4, 79680, Note_on_c, 0, 50, 0
4, 79800, Note_on_c, 0, 57, 70
4, 79920, Note_on_c, 0, 57, 0
4, 80040, Note_on_c, 0, 50, 70
4, 80160, Note_on_c, 0, 50, 0
4, 80280, Note_on_c, 0, 57, 71
4, 80400, Note_on_c, 0, 57, 0
4, 80520, Note_on_c, 0, 52, 71
4, 80640, Note_on_c, 0, 52, 0
4, 80760, Note_on_c, 0, 61, 71
4, 80880, Note_on_c, 0, 61, 0
4, 81000, Note_on_c, 0, 52, 71
4, 81120, Note_on_c, 0, 52, 0
4, 81240, Note_on_c, 0, 59, 71
4, 81360, Note_on_c, 0, 59, 0
4, 81480, Note_on_c, 0, 52, 71
4, 81600, Note_on_c, 0, 52, 0
4, 81720, Note_on_c, 0, 56, 71
4, 81840, Note_on_c, 0, 56, 0
4, 81960, Note_on_c, 0, 52, 71
4, 82080, Note_on_c, 0, 52, 0
4, 82200, Note_on_c, 0, 61, 72
4, 82320, Note_on_c, 0, 61, 0
4, 82440, Note_on_c, 0, 57, 72
4, 82560, Note_on_c, 0, 57, 0
4, 82680, Note_on_c, 0, 64, 72
4, 82800, Note_on_c, 0, 64, 0
4, 82920, Note_on_c, 0, 49, 72
4, 83040, Note_on_c, 0, 49, 0
4, 83160, Note_on_c, 0, 61, 72
4, 83280, Note_on_c, 0, 61, 0
4, 83400, Note_on_c, 0, 52, 72
4, 83520, Note_on_c, 0, 52, 0
4, 83640, Note_on_c, 0, 57, 72
4, 83760, Note_on_c, 0, 57, 0
4, 83760, Note_on_c, 0, 69, 72
4, 83880, Note_on_c, 0, 61, 73
4, 84000, Note_on_c, 0, 61, 0
4, 84000, Note_on_c, 0, 73, 73
4, 84120, Note_on_c, 0, 52, 73
4, 84240, Note_on_c, 0, 52, 0
4, 84240, Note_on_c, 0, 73, 0
4, 84240, Note_on_c, 0, 69, 0
4, 84240, Note_on_c, 0, 68, 73
4, 84360, Note_on_c, 0, 52, 73
4, 84480, Note_on_c, 0, 52, 0
4, 84480, Note_on_c, 0, 68, 0
4, 84480, Note_on_c, 0, 64, 73
4, 84600, Note_on_c, 0, 57, 73
4, 84720, Note_on_c, 0, 57, 0
4, 84720, Note_on_c, 0, 64, 0
4, 84720, Note_on_c, 0, 66, 73
4, 84840, Note_on_c, 0, 57, 73
4, 84960, Note_on_c, 0, 57, 0
4, 84960, Note_on_c, 0, 66, 0
4, 85080, Note_on_c, 0, 61, 73
4, 85200, Note_on_c, 0, 61, 0
4, 85320, Note_on_c, 0, 57, 73
4, 85440, Note_on_c, 0, 57, 0
4, 85560, Note_on_c, 0, 62, 73
4, 85680, Note_on_c, 0, 62, 0
4, 85800, Note_on_c, 0, 59, 74
4, 85920, Note_on_c, 0, 59, 0
4, 86040, Note_on_c, 0, 61, 74
4, 86160, Note_on_c, 0, 61, 0
4, 86280, Note_on_c, 0, 57, 74
4, 86400, Note_on_c, 0, 57, 0
4, 86520, Note_on_c, 0, 61, 74
4, 86520, Note_on_c, 0, 64, 74
4, 86640, Note_on_c, 0, 64, 0
4, 86640, Note_on_c, 0, 61, 0
4, 86760, Note_on_c, 0, 55, 74
4, 86880, Note_on_c, 0, 55, 0
4, 87000, Note_on_c, 0, 62, 74
4, 87000, Note_on_c, 0, 57, 74
4, 87120, Note_on_c, 0, 57, 0
4, 87120, Note_on_c, 0, 62, 0
4, 87240, Note_on_c, 0, 54, 74
4, 87360, Note_on_c, 0, 54, 0
4, 87480, Note_on_c, 0, 62, 74
4, 87480, Note_on_c, 0, 59, 74
4, 87600, Note_on_c, 0, 59, 0
4, 87600, Note_on_c, 0, 62, 0
4, 87720, Note_on_c, 0, 53, 75
4, 87840, Note_on_c, 0, 53, 0
4, 87960, Note_on_c, 0, 61, 75
4, 88080, Note_on_c, 0, 61, 0
4, 88200, Note_on_c, 0, 52, 75
4, 88320, Note_on_c, 0, 52, 0
4, 88440, Note_on_c, 0, 57, 75
4, 88560, Note_on_c, 0, 57, 0
4, 88680, Note_on_c, 0, 52, 75
4, 88800, Note_on_c, 0, 52, 0
4, 88920, Note_on_c, 0, 57, 75
4, 89040, Note_on_c, 0, 57, 0
4, 89160, Note_on_c, 0, 50, 75
4, 89280, Note_on_c, 0, 50, 0
4, 89400, Note_on_c, 0, 57, 76
4, 89520, Note_on_c, 0, 57, 0
4, 89640, Note_on_c, 0, 50, 76
4, 89760, Note_on_c, 0, 50, 0
4, 89880, Note_on_c, 0, 55, 76
4, 90000, Note_on_c, 0, 55, 0
4, 90120, Note_on_c, 0, 50, 76
4, 90240, Note_on_c, 0, 50, 0
4, 90360, Note_on_c, 0, 57, 76
4, 90480, Note_on_c, 0, 57, 0
4, 90600, Note_on_c, 0, 51, 76
4, 90720, Note_on_c, 0, 51, 0
4, 90840, Note_on_c, 0, 52, 76
4, 90960, Note_on_c, 0, 52, 0
4, 90960, Note_on_c, 0, 57, 76
4, 91080, Note_on_c, 0, 52, 76
4, 91200, Note_on_c, 0, 52, 0
4, 91200, Note_on_c, 0, 57, 0
4, 91200, Note_on_c, 0, 55, 76
4, 91320, Note_on_c, 0, 52, 77
4, 91440, Note_on_c, 0, 52, 0
4, 91440, Note_on_c, 0, 55, 0
4, 91440, Note_on_c, 0, 59, 77
4, 91560, Note_on_c, 0, 52, 77
4, 91680, Note_on_c, 0, 52, 0
4, 91680, Note_on_c, 0, 59, 0
4, 91800, Note_on_c, 0, 57, 77
4, 91920, Note_on_c, 0, 57, 0
4, 92040, Note_on_c, 0, 52, 77
4, 92160, Note_on_c, 0, 52, 0
4, 92280, Note_on_c, 0, 57, 77
4, 92400, Note_on_c, 0, 57, 0
4, 92520, Note_on_c, 0, 49, 77
4, 92640, Note_on_c, 0, 49, 0
4, 92760, Note_on_c, 0, 57, 77
4, 92880, Note_on_c, 0, 57, 0
4, 93000, Note_on_c, 0, 54, 77
4, 93120, Note_on_c, 0, 54, 0
4, 93240, Note_on_c, 0, 61, 79
4, 93360, Note_on_c, 0, 61, 0
4, 93480, Note_on_c, 0, 52, 80
4, 93600, Note_on_c, 0, 52, 0
4, 93600, Note_on_c, 0, 62, 80
4, 93720, Note_on_c, 0, 50, 82
4, 93840, Note_on_c, 0, 50, 0
4, 93840, Note_on_c, 0, 52, 83
4, 93960, Note_on_c, 0, 52, 0
4, 93960, Note_on_c, 0, 53, 85
4, 94080, Note_on_c, 0, 53, 0
4, 94080, Note_on_c, 0, 54, 86
4, 94320, Note_on_c, 0, 54, 0
4, 94320, Note_on_c, 0, 62, 0
4, 94320, Note_on_c, 0, 55, 94
4, 94320, Note_on_c, 0, 62, 94
4, 94560, Note_on_c, 0, 62, 0
4, 94560, Note_on_c, 0, 55, 0
4, 94680, Note_on_c, 0, 62, 85
4, 94800, Note_on_c, 0, 62, 0
4, 94920, Note_on_c, 0, 54, 82
4, 95040, Note_on_c, 0, 54, 0
4, 95160, Note_on_c, 0, 61, 78
4, 95280, Note_on_c, 0, 61, 0
4, 95400, Note_on_c, 0, 55, 75
4, 95520, Note_on_c, 0, 55, 0
4, 95640, Note_on_c, 0, 62, 75
4, 95760, Note_on_c, 0, 62, 0
4, 95880, Note_on_c, 0, 54, 76
4, 96000, Note_on_c, 0, 54, 0
4, 96120, Note_on_c, 0, 66, 78
4, 96240, Note_on_c, 0, 66, 0
4, 96360, Note_on_c, 0, 62, 79
4, 96480, Note_on_c, 0, 62, 0
4, 96600, Note_on_c, 0, 69, 80
4, 96720, Note_on_c, 0, 69, 0
4, 96840, Note_on_c, 0, 62, 82
4, 96960, Note_on_c, 0, 62, 0
4, 97080, Note_on_c, 0, 69, 83
4, 97080, Note_on_c, 0, 72, 83
4, 97200, Note_on_c, 0, 72, 0
4, 97200, Note_on_c, 0, 69, 0
4, 97320, Note_on_c, 0, 62, 85
4, 97440, Note_on_c, 0, 62, 0
4, 97560, Note_on_c, 0, 71, 86
4, 97680, Note_on_c, 0, 71, 0
4, 97800, Note_on_c, 0, 62, 88
4, 97920, Note_on_c, 0, 62, 0
4, 98040, Note_on_c, 0, 71, 89
4, 98160, Note_on_c, 0, 71, 0
4, 98280, Note_on_c, 0, 63, 91
4, 98400, Note_on_c, 0, 63, 0
4, 98400, Note_on_c, 0, 71, 91
4, 98520, Note_on_c, 0, 64, 90
4, 98640, Note_on_c, 0, 64, 0
4, 98640, Note_on_c, 0, 71, 0
4, 98640, Note_on_c, 0, 71, 89
4, 98760, Note_on_c, 0, 63, 89
4, 98880, Note_on_c, 0, 63, 0
4, 98880, Note_on_c, 0, 71, 0
4, 98880, Note_on_c, 0, 71, 88
4, 99000, Note_on_c, 0, 64, 87
4, 99120, Note_on_c, 0, 64, 0
4, 99120, Note_on_c, 0, 71, 0
4, 99120, Note_on_c, 0, 71, 86
4, 99240, Note_on_c, 0, 64, 85
4, 99360, Note_on_c, 0, 64, 0
4, 99360, Note_on_c, 0, 71, 0
4, 99480, Note_on_c, 0, 69, 84
4, 99600, Note_on_c, 0, 69, 0
4, 99720, Note_on_c, 0, 64, 82
4, 99840, Note_on_c, 0, 64, 0
4, 99960, Note_on_c, 0, 69, 80
4, 100080, Note_on_c, 0, 69, 0
4, 100200, Note_on_c, 0, 61, 80
4, 100320, Note_on_c, 0, 61, 0
4, 100440, Note_on_c, 0, 69, 82
4, 100560, Note_on_c, 0, 69, 0
4, 100680, Note_on_c, 0, 66, 85
4, 100800, Note_on_c, 0, 66, 0
4, 100920, Note_on_c, 0, 73, 88
4, 101040, Note_on_c, 0, 73, 0
4, 101160, Note_on_c, 0, 64, 90
4, 101280, Note_on_c, 0, 74, 93
4, 101400, Note_on_c, 0, 64, 0
4, 101400, Note_on_c, 0, 62, 94
4, 101520, Note_on_c, 0, 62, 0
4, 101520, Note_on_c, 0, 64, 96
4, 101640, Note_on_c, 0, 64, 0
4, 101640, Note_on_c, 0, 65, 98
4, 101760, Note_on_c, 0, 65, 0
4, 101760, Note_on_c, 0, 66, 100
4, 102000, Note_on_c, 0, 66, 0
4, 102000, Note_on_c, 0, 74, 0
4, 102000, Note_on_c, 0, 67, 108
4, 102000, Note_on_c, 0, 74, 108
4, 102240, Note_on_c, 0, 74, 0
4, 102240, Note_on_c, 0, 67, 0
4, 102360, Note_on_c, 0, 74, 95
4, 102480, Note_on_c, 0, 74, 0
4, 102600, Note_on_c, 0, 66, 90
4, 102720, Note_on_c, 0, 66, 0
4, 102840, Note_on_c, 0, 73, 86
4, 102960, Note_on_c, 0, 73, 0
4, 103080, Note_on_c, 0, 67, 83
4, 103200, Note_on_c, 0, 67, 0
4, 103200, Note_on_c, 0, 66, 81
4, 103320, Note_on_c, 0, 66, 0
4, 103560, Note_on_c, 0, 62, 73
4, 103680, Note_on_c, 0, 62, 0
4, 106160, Note_on_c, 0, 42, 72
4, 106240, Note_on_c, 0, 42, 0
4, 106240, Note_on_c, 0, 45, 72
4, 106320, Note_on_c, 0, 45, 0
4, 106320, Note_on_c, 0, 50, 72
4, 106400, Note_on_c, 0, 50, 0
4, 106400, Note_on_c, 0, 54, 72
4, 106480, Note_on_c, 0, 54, 0
4, 106480, Note_on_c, 0, 52, 72
4, 106560, Note_on_c, 0, 52, 0
4, 106560, Note_on_c, 0, 50, 72
4, 106640, Note_on_c, 0, 50, 0
4, 106640, Note_on_c, 0, 49, 72
4, 106720, Note_on_c, 0, 49, 0
4, 106720, Note_on_c, 0, 47, 73
4, 106800, Note_on_c, 0, 47, 0
4, 106800, Note_on_c, 0, 45, 73
4, 106880, Note_on_c, 0, 45, 0
4, 106880, Note_on_c, 0, 43, 73
4, 106960, Note_on_c, 0, 43, 0
4, 106960, Note_on_c, 0, 42, 73
4, 107040, Note_on_c, 0, 42, 0
4, 108080, Note_on_c, 0, 54, 75
4, 108160, Note_on_c, 0, 54, 0
4, 108160, Note_on_c, 0, 57, 75
4, 108240, Note_on_c, 0, 57, 0
4, 108240, Note_on_c, 0, 62, 75
4, 108320, Note_on_c, 0, 62, 0
4, 108320, Note_on_c, 0, 61, 75
4, 108400, Note_on_c, 0, 61, 0
4, 108400, Note_on_c, 0, 59, 75
4, 108480, Note_on_c, 0, 59, 0
4, 108480, Note_on_c, 0, 57, 75
4, 108560, Note_on_c, 0, 57, 0
4, 108560, Note_on_c, 0, 59, 75
4, 108640, Note_on_c, 0, 59, 0
4, 108640, Note_on_c, 0, 57, 75
4, 108720, Note_on_c, 0, 57, 0
4, 108720, Note_on_c, 0, 55, 76
4, 108800, Note_on_c, 0, 55, 0
4, 108800, Note_on_c, 0, 54, 76
4, 108880, Note_on_c, 0, 54, 0
4, 108880, Note_on_c, 0, 52, 76
4, 108960, Note_on_c, 0, 52, 0
4, 110000, Note_on_c, 0, 40, 79
4, 110080, Note_on_c, 0, 40, 0
4, 110080, Note_on_c, 0, 45, 79
4, 110160, Note_on_c, 0, 45, 0
4, 110240, Note_on_c, 0, 52, 80
4, 110320, Note_on_c, 0, 52, 0
4, 110320, Note_on_c, 0, 57, 81
4, 110400, Note_on_c, 0, 57, 0
4, 110480, Note_on_c, 0, 54, 82
4, 110560, Note_on_c, 0, 54, 0
4, 110560, Note_on_c, 0, 57, 83
4, 110640, Note_on_c, 0, 57, 0
4, 110720, Note_on_c, 0, 52, 84
4, 110800, Note_on_c, 0, 52, 0
4, 110800, Note_on_c, 0, 57, 85
4, 110880, Note_on_c, 0, 57, 0
4, 111920, Note_on_c, 0, 37, 72
4, 112000, Note_on_c, 0, 37, 0
4, 112000, Note_on_c, 0, 40, 73
4, 112080, Note_on_c, 0, 40, 0
4, 112080, Note_on_c, 0, 45, 74
4, 112160, Note_on_c, 0, 45, 0
4, 112160, Note_on_c, 0, 49, 74
4, 112240, Note_on_c, 0, 49, 0
4, 112240, Note_on_c, 0, 52, 75
4, 112320, Note_on_c, 0, 52, 0
4, 112320, Note_on_c, 0, 57, 76
4, 112400, Note_on_c, 0, 57, 0
4, 112400, Note_on_c, 0, 52, 76
4, 112480, Note_on_c, 0, 52, 0
4, 112480, Note_on_c, 0, 49, 77
4, 112560, Note_on_c, 0, 49, 0
4, 112560, Note_on_c, 0, 45, 78
4, 112640, Note_on_c, 0, 45, 0
4, 112640, Note_on_c, 0, 40, 79
4, 112720, Note_on_c, 0, 40, 0
4, 112720, Note_on_c, 0, 37, 79
4, 112800, Note_on_c, 0, 37, 0
4, 112880, Note_on_c, 0, 37, 81
4, 112960, Note_on_c, 0, 37, 0
4, 112960, Note_on_c, 0, 40, 81
4, 113040, Note_on_c, 0, 40, 0
4, 113040, Note_on_c, 0, 45, 82
4, 113120, Note_on_c, 0, 45, 0
4, 113120, Note_on_c, 0, 49, 83
4, 113200, Note_on_c, 0, 49, 0
4, 113200, Note_on_c, 0, 52, 83
4, 113280, Note_on_c, 0, 52, 0
4, 113280, Note_on_c, 0, 57, 84
4, 113360, Note_on_c, 0, 57, 0
4, 113360, Note_on_c, 0, 52, 85
4, 113440, Note_on_c, 0, 52, 0
4, 113440, Note_on_c, 0, 49, 86
4, 113520, Note_on_c, 0, 49, 0
4, 113520, Note_on_c, 0, 45, 86
4, 113600, Note_on_c, 0, 45, 0
4, 113600, Note_on_c, 0, 40, 87
4, 113680, Note_on_c, 0, 40, 0
4, 113680, Note_on_c, 0, 37, 88
4, 113760, Note_on_c, 0, 37, 0
4, 113840, Note_on_c, 0, 37, 89
4, 113920, Note_on_c, 0, 37, 0
4, 113920, Note_on_c, 0, 45, 90
4, 114000, Note_on_c, 0, 45, 0
4, 114080, Note_on_c, 0, 38, 91
4, 114160, Note_on_c, 0, 38, 0
4, 114160, Note_on_c, 0, 47, 92
4, 114240, Note_on_c, 0, 47, 0
4, 114320, Note_on_c, 0, 40, 93
4, 114400, Note_on_c, 0, 40, 0
4, 114400, Note_on_c, 0, 49, 94
4, 114480, Note_on_c, 0, 49, 0
4, 114560, Note_on_c, 0, 42, 96
4, 114640, Note_on_c, 0, 42, 0
4, 114640, Note_on_c, 0, 50, 96
4, 114720, Note_on_c, 0, 50, 0
4, 114800, Note_on_c, 0, 45, 98
4, 114880, Note_on_c, 0, 45, 0
4, 114880, Note_on_c, 0, 49, 98
4, 114960, Note_on_c, 0, 49, 0
4, 115040, Note_on_c, 0, 45, 100
4, 115120, Note_on_c, 0, 45, 0
4, 115120, Note_on_c, 0, 49, 100
4, 115200, Note_on_c, 0, 49, 0
4, 115280, Note_on_c, 0, 44, 102
4, 115360, Note_on_c, 0, 44, 0
4, 115360, Note_on_c, 0, 47, 103
4, 115440, Note_on_c, 0, 47, 0
4, 115520, Note_on_c, 0, 47, 104
4, 115600, Note_on_c, 0, 47, 0
4, 115600, Note_on_c, 0, 50, 105
4, 115680, Note_on_c, 0, 50, 0
4, 115760, Note_on_c, 0, 49, 106
4, 115840, Note_on_c, 0, 49, 0
4, 115840, Note_on_c, 0, 52, 107
4, 115920, Note_on_c, 0, 52, 0
4, 116000, Note_on_c, 0, 52, 108
4, 116080, Note_on_c, 0, 52, 0
4, 116080, Note_on_c, 0, 49, 109
4, 116160, Note_on_c, 0, 49, 0
4, 116240, Note_on_c, 0, 52, 110
4, 116320, Note_on_c, 0, 52, 0
4, 116320, Note_on_c, 0, 55, 111
4, 116400, Note_on_c, 0, 55, 0
4, 116480, Note_on_c, 0, 55, 113
4, 116560, Note_on_c, 0, 55, 0
4, 116560, Note_on_c, 0, 52, 113
4, 116640, Note_on_c, 0, 52, 0
4, 116720, Note_on_c, 0, 50, 115
4, 116800, Note_on_c, 0, 50, 0
4, 116800, Note_on_c, 0, 54, 115
4, 116880, Note_on_c, 0, 54, 0
4, 116960, Note_on_c, 0, 54, 117
4, 117040, Note_on_c, 0, 54, 0
4, 117040, Note_on_c, 0, 50, 117
4, 117120, Note_on_c, 0, 50, 0
4, 117200, Note_on_c, 0, 50, 119
4, 117280, Note_on_c, 0, 50, 0
4, 117280, Note_on_c, 0, 53, 120
4, 117360, Note_on_c, 0, 53, 0
4, 117440, Note_on_c, 0, 53, 121
4, 117520, Note_on_c, 0, 53, 0
4, 117520, Note_on_c, 0, 50, 122
4, 117600, Note_on_c, 0, 50, 0
4, 117600, Note_on_c, 0, 49, 121
4, 117600, Note_on_c, 0, 52, 121
4, 117756, Note_on_c, 0, 52, 0
4, 117756, Note_on_c, 0, 49, 0
4, 121520, Note_on_c, 0, 49, 80
4, 121600, Note_on_c, 0, 49, 0
4, 121600, Note_on_c, 0, 52, 81
4, 121680, Note_on_c, 0, 52, 0
4, 121680, Note_on_c, 0, 57, 81
4, 121760, Note_on_c, 0, 57, 0
4, 121760, Note_on_c, 0, 61, 82
4, 121840, Note_on_c, 0, 61, 0
4, 121840, Note_on_c, 0, 64, 82
4, 121920, Note_on_c, 0, 64, 0
4, 121920, Note_on_c, 0, 69, 83
4, 122000, Note_on_c, 0, 69, 0
4, 122000, Note_on_c, 0, 64, 83
4, 122080, Note_on_c, 0, 64, 0
4, 122080, Note_on_c, 0, 61, 84
4, 122160, Note_on_c, 0, 61, 0
4, 122160, Note_on_c, 0, 57, 84
4, 122240, Note_on_c, 0, 57, 0
4, 122240, Note_on_c, 0, 61, 85
4, 122320, Note_on_c, 0, 61, 0
4, 122320, Note_on_c, 0, 64, 86
4, 122400, Note_on_c, 0, 64, 0
4, 122400, Note_on_c, 0, 61, 86
4, 122400, Note_on_c, 0, 57, 86
4, 122400, Note_on_c, 0, 64, 86
4, 123360, Note_on_c, 0, 64, 0
4, 123360, Note_on_c, 0, 57, 0
4, 123360, Note_on_c, 0, 61, 0
4, 123440, Note_on_c, 0, 57, 93
4, 123520, Note_on_c, 0, 57, 0
4, 123520, Note_on_c, 0, 62, 93
4, 123600, Note_on_c, 0, 62, 0
4, 123600, Note_on_c, 0, 69, 94
4, 123680, Note_on_c, 0, 69, 0
4, 123680, Note_on_c, 0, 66, 95
4, 123760, Note_on_c, 0, 66, 0
4, 123760, Note_on_c, 0, 62, 95
4, 123840, Note_on_c, 0, 62, 0
4, 123920, Note_on_c, 0, 59, 96
4, 124000, Note_on_c, 0, 59, 0
4, 124000, Note_on_c, 0, 64, 97
4, 124080, Note_on_c, 0, 64, 0
4, 124080, Note_on_c, 0, 67, 97
4, 124160, Note_on_c, 0, 67, 0
4, 124160, Note_on_c, 0, 64, 98
4, 124240, Note_on_c, 0, 64, 0
4, 124240, Note_on_c, 0, 59, 98
4, 124320, Note_on_c, 0, 59, 0
4, 124400, Note_on_c, 0, 62, 99
4, 124480, Note_on_c, 0, 62, 0
4, 124480, Note_on_c, 0, 66, 100
4, 124560, Note_on_c, 0, 66, 0
4, 124560, Note_on_c, 0, 69, 100
4, 124640, Note_on_c, 0, 69, 0
4, 124640, Note_on_c, 0, 66, 101
4, 124720, Note_on_c, 0, 66, 0
4, 124720, Note_on_c, 0, 62, 101
4, 124800, Note_on_c, 0, 62, 0
4, 124880, Note_on_c, 0, 64, 102
4, 124960, Note_on_c, 0, 64, 0
4, 124960, Note_on_c, 0, 66, 103
4, 125040, Note_on_c, 0, 66, 0
4, 125040, Note_on_c, 0, 69, 104
4, 125120, Note_on_c, 0, 69, 0
4, 125120, Note_on_c, 0, 67, 104
4, 125200, Note_on_c, 0, 67, 0
4, 125200, Note_on_c, 0, 64, 105
4, 125280, Note_on_c, 0, 64, 0
4, 125280, Note_on_c, 0, 66, 103
4, 125436, Note_on_c, 0, 66, 0
4, 129200, Note_on_c, 0, 37, 81
4, 129280, Note_on_c, 0, 37, 0
4, 129280, Note_on_c, 0, 40, 82
4, 129360, Note_on_c, 0, 40, 0
4, 129360, Note_on_c, 0, 45, 83
4, 129440, Note_on_c, 0, 45, 0
4, 129440, Note_on_c, 0, 49, 84
4, 129520, Note_on_c, 0, 49, 0
4, 129520, Note_on_c, 0, 52, 85
4, 129600, Note_on_c, 0, 52, 0
4, 129600, Note_on_c, 0, 57, 86
4, 129680, Note_on_c, 0, 57, 0
4, 129680, Note_on_c, 0, 52, 87
4, 129760, Note_on_c, 0, 52, 0
4, 129760, Note_on_c, 0, 49, 88
4, 129840, Note_on_c, 0, 49, 0
4, 129840, Note_on_c, 0, 45, 89
4, 129920, Note_on_c, 0, 45, 0
4, 129920, Note_on_c, 0, 49, 90
4, 130000, Note_on_c, 0, 49, 0
4, 130000, Note_on_c, 0, 52, 91
4, 130080, Note_on_c, 0, 52, 0
4, 130080, Note_on_c, 0, 55, 92
4, 130080, Note_on_c, 0, 52, 92
4, 130080, Note_on_c, 0, 49, 92
4, 131040, Note_on_c, 0, 49, 0
4, 131040, Note_on_c, 0, 52, 0
4, 131040, Note_on_c, 0, 55, 0
4, 131120, Note_on_c, 0, 50, 105
4, 131200, Note_on_c, 0, 50, 0
4, 131200, Note_on_c, 0, 54, 106
4, 131280, Note_on_c, 0, 54, 0
4, 131360, Note_on_c, 0, 50, 108
4, 131440, Note_on_c, 0, 50, 0
4, 131440, Note_on_c, 0, 54, 109
4, 131520, Note_on_c, 0, 54, 0
4, 131600, Note_on_c, 0, 50, 111
4, 131680, Note_on_c, 0, 50, 0
4, 131680, Note_on_c, 0, 55, 112
4, 131760, Note_on_c, 0, 55, 0
4, 131840, Note_on_c, 0, 50, 114
4, 131920, Note_on_c, 0, 50, 0
4, 131920, Note_on_c, 0, 55, 115
4, 132000, Note_on_c, 0, 55, 0
4, 132080, Note_on_c, 0, 50, 118
4, 132160, Note_on_c, 0, 50, 0
4, 132160, Note_on_c, 0, 54, 119
4, 132240, Note_on_c, 0, 54, 0
4, 132320, Note_on_c, 0, 50, 121
4, 132400, Note_on_c, 0, 50, 0
4, 132400, Note_on_c, 0, 54, 122
4, 132480, Note_on_c, 0, 54, 0
4, 132560, Note_on_c, 0, 52, 124
4, 132640, Note_on_c, 0, 52, 0
4, 132640, Note_on_c, 0, 55, 125
4, 132720, Note_on_c, 0, 55, 0
4, 132800, Note_on_c, 0, 52, 127
4, 132880, Note_on_c, 0, 52, 0
4, 132880, Note_on_c, 0, 55, 127
4, 132960, Note_on_c, 0, 55, 0
4, 132960, Note_on_c, 0, 54, 127
4, 133040, Note_on_c, 0, 54, 0
4, 133040, Note_on_c, 0, 57, 127
4, 133120, Note_on_c, 0, 57, 0
4, 133120, Note_on_c, 0, 54, 122
4, 133200, Note_on_c, 0, 54, 0
4, 133200, Note_on_c, 0, 50, 118
4, 133280, Note_on_c, 0, 50, 0
4, 133280, Note_on_c, 0, 45, 113
4, 133360, Note_on_c, 0, 45, 0
4, 133360, Note_on_c, 0, 42, 109
4, 133440, Note_on_c, 0, 42, 0
4, 133440, Note_on_c, 0, 38, 105
4, 133560, Note_on_c, 0, 38, 0
4, 172320, Note_on_c, 0, 52, 78
4, 172320, Note_on_c, 0, 49, 78
4, 172560, Note_on_c, 0, 49, 0
4, 172560, Note_on_c, 0, 52, 0
4, 172560, Note_on_c, 0, 52, 82
4, 172560, Note_on_c, 0, 49, 82
4, 172800, Note_on_c, 0, 49, 0
4, 172800, Note_on_c, 0, 52, 0
4, 173040, Note_on_c, 0, 49, 89
4, 173040, Note_on_c, 0, 52, 89
4, 173280, Note_on_c, 0, 52, 0
4, 173280, Note_on_c, 0, 49, 0
4, 173280, Note_on_c, 0, 49, 92
4, 173280, Note_on_c, 0, 52, 92
4, 173520, Note_on_c, 0, 52, 0
4, 173520, Note_on_c, 0, 49, 0
4, 173520, Note_on_c, 0, 49, 96
4, 173520, Note_on_c, 0, 52, 96
4, 173760, Note_on_c, 0, 52, 0
4, 173760, Note_on_c, 0, 49, 0
4, 174000, Note_on_c, 0, 61, 103
4, 174240, Note_on_c, 0, 61, 0
4, 224280, Note_on_c, 0, 57, 109
4, 224400, Note_on_c, 0, 57, 0
4, 224520, Note_on_c, 0, 57, 109
4, 224640, Note_on_c, 0, 57, 0
4, 224760, Note_on_c, 0, 57, 116
4, 224880, Note_on_c, 0, 57, 0
4, 225000, Note_on_c, 0, 57, 111
4, 225120, Note_on_c, 0, 57, 0
4, 225240, Note_on_c, 0, 57, 111
4, 225360, Note_on_c, 0, 57, 0
4, 225480, Note_on_c, 0, 57, 112
4, 225600, Note_on_c, 0, 57, 0
4, 225720, Note_on_c, 0, 57, 112
4, 225840, Note_on_c, 0, 57, 0
4, 225960, Note_on_c, 0, 57, 113
4, 226080, Note_on_c, 0, 57, 0
4, 226200, Note_on_c, 0, 57, 113
4, 226320, Note_on_c, 0, 57, 0
4, 226440, Note_on_c, 0, 57, 114
4, 226560, Note_on_c, 0, 57, 0
4, 226680, Note_on_c, 0, 57, 115
4, 226800, Note_on_c, 0, 57, 0
4, 226920, Note_on_c, 0, 57, 115
4, 227040, Note_on_c, 0, 57, 0
4, 227160, Note_on_c, 0, 57, 116
4, 227280, Note_on_c, 0, 57, 0
4, 227400, Note_on_c, 0, 57, 116
4, 227520, Note_on_c, 0, 57, 0
4, 227640, Note_on_c, 0, 57, 117
4, 227760, Note_on_c, 0, 57, 0
4, 227880, Note_on_c, 0, 57, 117
4, 228000, Note_on_c, 0, 57, 0
4, 228120, Note_on_c, 0, 57, 118
4, 228240, Note_on_c, 0, 57, 0
4, 228360, Note_on_c, 0, 57, 118
4, 228480, Note_on_c, 0, 57, 0
4, 228600, Note_on_c, 0, 58, 119
4, 228720, Note_on_c, 0, 58, 0
4, 228840, Note_on_c, 0, 58, 120
4, 228960, Note_on_c, 0, 58, 0
4, 229080, Note_on_c, 0, 59, 122
4, 229200, Note_on_c, 0, 59, 0
4, 229320, Note_on_c, 0, 59, 122
4, 229440, Note_on_c, 0, 59, 0
4, 229560, Note_on_c, 0, 55, 123
4, 229680, Note_on_c, 0, 55, 0
4, 229800, Note_on_c, 0, 55, 124
4, 229920, Note_on_c, 0, 55, 0
4, 229920, Note_on_c, 0, 57, 125
4, 230280, Note_on_c, 0, 57, 0
4, 231960, Note_on_c, 0, 50, 73
4, 232080, Note_on_c, 0, 50, 0
4, 232200, Note_on_c, 0, 50, 74
4, 232320, Note_on_c, 0, 50, 0
4, 232440, Note_on_c, 0, 50, 74
4, 232560, Note_on_c, 0, 50, 0
4, 232680, Note_on_c, 0, 50, 75
4, 232800, Note_on_c, 0, 50, 0
4, 232920, Note_on_c, 0, 50, 76
4, 233040, Note_on_c, 0, 50, 0
4, 233160, Note_on_c, 0, 50, 77
4, 233280, Note_on_c, 0, 50, 0
4, 233400, Note_on_c, 0, 50, 78
4, 233520, Note_on_c, 0, 50, 0
4, 233640, Note_on_c, 0, 50, 79
4, 233760, Note_on_c, 0, 50, 0
4, 233880, Note_on_c, 0, 50, 80
4, 234000, Note_on_c, 0, 50, 0
4, 234120, Note_on_c, 0, 50, 81
4, 234240, Note_on_c, 0, 50, 0
4, 234360, Note_on_c, 0, 50, 83
4, 234480, Note_on_c, 0, 50, 0
4, 234600, Note_on_c, 0, 50, 82
4, 234720, Note_on_c, 0, 50, 0
4, 234840, Note_on_c, 0, 50, 83
4, 234960, Note_on_c, 0, 50, 0
4, 235080, Note_on_c, 0, 50, 82
4, 235200, Note_on_c, 0, 50, 0
4, 235320, Note_on_c, 0, 50, 81
4, 235440, Note_on_c, 0, 50, 0
4, 235560, Note_on_c, 0, 50, 80
4, 235680, Note_on_c, 0, 50, 0
4, 242400, Note_on_c, 0, 40, 127
4, 242400, Note_on_c, 0, 37, 127
4, 242640, Note_on_c, 0, 37, 0
4, 242640, Note_on_c, 0, 40, 0
4, 243360, Note_on_c, 0, 45, 127
4, 243360, Note_on_c, 0, 42, 127
4, 243600, Note_on_c, 0, 42, 0
4, 243600, Note_on_c, 0, 45, 0
4, 243600, End_track
5, 0, Start_track
5, 0, Title_t, "Piano"
5, 0, Control_c, 0, 0, 0
5, 0, Control_c, 0, 7, 115
5, 0, Control_c, 0, 10, 48
5, 0, Control_c, 0, 91, 100
5, 0, Control_c, 0, 93, 28
5, 0, Control_c, 0, 64, 0
5, 0, Control_c, 0, 1, 0
5, 0, Pitch_bend_c, 0, 8192
5, 1, Control_c, 0, 32, 0
5, 1, Program_c, 0, 0
5, 960, Note_on_c, 0, 50, 93
5, 1440, Note_on_c, 0, 50, 0
5, 1440, Note_on_c, 0, 55, 96
5, 1920, Note_on_c, 0, 55, 0
5, 1920, Note_on_c, 0, 50, 99
5, 2400, Note_on_c, 0, 50, 0
5, 2640, Note_on_c, 0, 54, 96
5, 2796, Note_on_c, 0, 54, 0
5, 2880, Note_on_c, 0, 55, 95
5, 3360, Note_on_c, 0, 55, 0
5, 3360, Note_on_c, 0, 57, 92
5, 3840, Note_on_c, 0, 57, 0
5, 3840, Note_on_c, 0, 50, 90
5, 4320, Note_on_c, 0, 50, 0
5, 6000, Note_on_c, 0, 61, 94
5, 6132, Note_on_c, 0, 61, 0
5, 6240, Note_on_c, 0, 62, 95
5, 6372, Note_on_c, 0, 62, 0
5, 6480, Note_on_c, 0, 61, 96
5, 6612, Note_on_c, 0, 61, 0
5, 6720, Note_on_c, 0, 59, 98
5, 7200, Note_on_c, 0, 59, 0
5, 7200, Note_on_c, 0, 52, 94
5, 7680, Note_on_c, 0, 52, 0
5, 7680, Note_on_c, 0, 57, 90
5, 8160, Note_on_c, 0, 57, 0
5, 8880, Note_on_c, 0, 57, 89
5, 9012, Note_on_c, 0, 57, 0
5, 9120, Note_on_c, 0, 57, 90
5, 9252, Note_on_c, 0, 57, 0
5, 9360, Note_on_c, 0, 57, 90
5, 9492, Note_on_c, 0, 57, 0
5, 9600, Note_on_c, 0, 57, 91
5, 9756, Note_on_c, 0, 57, 0
5, 9840, Note_on_c, 0, 59, 92
5, 9996, Note_on_c, 0, 59, 0
5, 10080, Note_on_c, 0, 61, 93
5, 10236, Note_on_c, 0, 61, 0
5, 10320, Note_on_c, 0, 62, 94
5, 10476, Note_on_c, 0, 62, 0
5, 10560, Note_on_c, 0, 64, 97
5, 11040, Note_on_c, 0, 64, 0
5, 11040, Note_on_c, 0, 52, 92
5, 11520, Note_on_c, 0, 52, 0
5, 11520, Note_on_c, 0, 57, 88
5, 12000, Note_on_c, 0, 57, 0
5, 12240, Note_on_c, 0, 49, 91
5, 12372, Note_on_c, 0, 49, 0
5, 12480, Note_on_c, 0, 50, 92
5, 12612, Note_on_c, 0, 50, 0
5, 12720, Note_on_c, 0, 49, 93
5, 12852, Note_on_c, 0, 49, 0
5, 12960, Note_on_c, 0, 47, 95
5, 13092, Note_on_c, 0, 47, 0
5, 13200, Note_on_c, 0, 52, 96
5, 13332, Note_on_c, 0, 52, 0
5, 13440, Note_on_c, 0, 45, 97
5, 13800, Note_on_c, 0, 45, 0
5, 14160, Note_on_c, 0, 55, 93
5, 14316, Note_on_c, 0, 55, 0
5, 14400, Note_on_c, 0, 54, 97
5, 14880, Note_on_c, 0, 54, 0
5, 14880, Note_on_c, 0, 54, 94
5, 14946, Note_on_c, 0, 54, 0
5, 15120, Note_on_c, 0, 54, 93
5, 15186, Note_on_c, 0, 54, 0
5, 15360, Note_on_c, 0, 55, 92
5, 15480, Note_on_c, 0, 55, 0
5, 15600, Note_on_c, 0, 55, 91
5, 15720, Note_on_c, 0, 55, 0
5, 16080, Note_on_c, 0, 55, 93
5, 16224, Note_on_c, 0, 55, 0
5, 16320, Note_on_c, 0, 55, 94
5, 16452, Note_on_c, 0, 55, 0
5, 16560, Note_on_c, 0, 50, 96
5, 16692, Note_on_c, 0, 50, 0
5, 16800, Note_on_c, 0, 49, 97
5, 16932, Note_on_c, 0, 49, 0
5, 17040, Note_on_c, 0, 50, 99
5, 17172, Note_on_c, 0, 50, 0
5, 17280, Note_on_c, 0, 57, 100
5, 17760, Note_on_c, 0, 57, 0
5, 18240, Note_on_c, 0, 61, 105
5, 18720, Note_on_c, 0, 61, 0
5, 18720, Note_on_c, 0, 57, 101
5, 19200, Note_on_c, 0, 57, 0
5, 19200, Note_on_c, 0, 62, 97
5, 19320, Note_on_c, 0, 62, 0
5, 19440, Note_on_c, 0, 64, 95
5, 19560, Note_on_c, 0, 64, 0
5, 19680, Note_on_c, 0, 66, 94
5, 19800, Note_on_c, 0, 66, 0
5, 19920, Note_on_c, 0, 67, 92
5, 20040, Note_on_c, 0, 67, 0
5, 20160, Note_on_c, 0, 57, 90
5, 20640, Note_on_c, 0, 57, 0
5, 20640, Note_on_c, 0, 57, 83
5, 21120, Note_on_c, 0, 57, 0
5, 21120, Note_on_c, 0, 62, 85
5, 21600, Note_on_c, 0, 62, 0
5, 22080, Note_on_c, 0, 50, 106
5, 22560, Note_on_c, 0, 50, 0
5, 22800, Note_on_c, 0, 50, 105
5, 22956, Note_on_c, 0, 50, 0
5, 23040, Note_on_c, 0, 55, 106
5, 23184, Note_on_c, 0, 55, 0
5, 23280, Note_on_c, 0, 55, 107
5, 23400, Note_on_c, 0, 55, 0
5, 23760, Note_on_c, 0, 50, 108
5, 23892, Note_on_c, 0, 50, 0
5, 24000, Note_on_c, 0, 55, 111
5, 24132, Note_on_c, 0, 55, 0
5, 24240, Note_on_c, 0, 50, 110
5, 24372, Note_on_c, 0, 50, 0
5, 24480, Note_on_c, 0, 49, 108
5, 24612, Note_on_c, 0, 49, 0
5, 24720, Note_on_c, 0, 50, 107
5, 24852, Note_on_c, 0, 50, 0
5, 24960, Note_on_c, 0, 57, 106
5, 24960, Note_on_c, 0, 45, 106
5, 25440, Note_on_c, 0, 45, 0
5, 25440, Note_on_c, 0, 57, 0
5, 25920, Note_on_c, 0, 61, 115
5, 26400, Note_on_c, 0, 61, 0
5, 26400, Note_on_c, 0, 57, 111
5, 26880, Note_on_c, 0, 57, 0
5, 26880, Note_on_c, 0, 62, 108
5, 27000, Note_on_c, 0, 62, 0
5, 27120, Note_on_c, 0, 64, 106
5, 27240, Note_on_c, 0, 64, 0
5, 27360, Note_on_c, 0, 66, 104
5, 27480, Note_on_c, 0, 66, 0
5, 27600, Note_on_c, 0, 67, 102
5, 27720, Note_on_c, 0, 67, 0
5, 27840, Note_on_c, 0, 57, 100
5, 28320, Note_on_c, 0, 57, 0
5, 28320, Note_on_c, 0, 57, 97
5, 28800, Note_on_c, 0, 57, 0
5, 28800, Note_on_c, 0, 62, 100
5, 28956, Note_on_c, 0, 62, 0
5, 29040, Note_on_c, 0, 57, 99
5, 29196, Note_on_c, 0, 57, 0
5, 29280, Note_on_c, 0, 50, 94
5, 29436, Note_on_c, 0, 50, 0
5, 30960, Note_on_c, 0, 37, 60
5, 31200, Note_on_c, 0, 37, 0
5, 31200, Note_on_c, 0, 38, 61
5, 31440, Note_on_c, 0, 38, 0
5, 31440, Note_on_c, 0, 37, 62
5, 31680, Note_on_c, 0, 37, 0
5, 31680, Note_on_c, 0, 38, 62
5, 31920, Note_on_c, 0, 38, 0
5, 31920, Note_on_c, 0, 37, 63
5, 32160, Note_on_c, 0, 37, 0
5, 32160, Note_on_c, 0, 38, 64
5, 32400, Note_on_c, 0, 38, 0
5, 32400, Note_on_c, 0, 37, 64
5, 32640, Note_on_c, 0, 37, 0
5, 32640, Note_on_c, 0, 38, 65
5, 34080, Note_on_c, 0, 38, 0
5, 34080, Note_on_c, 0, 38, 69
5, 34320, Note_on_c, 0, 38, 0
5, 34320, Note_on_c, 0, 37, 70
5, 34560, Note_on_c, 0, 37, 0
5, 34560, Note_on_c, 0, 38, 71
5, 34800, Note_on_c, 0, 38, 0
5, 34800, Note_on_c, 0, 37, 71
5, 35040, Note_on_c, 0, 37, 0
5, 35040, Note_on_c, 0, 38, 72
5, 35280, Note_on_c, 0, 38, 0
5, 35280, Note_on_c, 0, 37, 73
5, 35520, Note_on_c, 0, 37, 0
5, 35520, Note_on_c, 0, 38, 77
5, 36960, Note_on_c, 0, 38, 0
5, 36960, Note_on_c, 0, 38, 62
5, 37200, Note_on_c, 0, 38, 0
5, 37200, Note_on_c, 0, 37, 62
5, 37440, Note_on_c, 0, 37, 0
5, 37440, Note_on_c, 0, 38, 62
5, 37680, Note_on_c, 0, 38, 0
5, 37680, Note_on_c, 0, 37, 62
5, 37920, Note_on_c, 0, 37, 0
5, 37920, Note_on_c, 0, 38, 63
5, 38160, Note_on_c, 0, 38, 0
5, 38160, Note_on_c, 0, 36, 63
5, 38400, Note_on_c, 0, 36, 0
5, 38400, Note_on_c, 0, 37, 63
5, 38640, Note_on_c, 0, 37, 0
5, 38640, Note_on_c, 0, 36, 63
5, 38880, Note_on_c, 0, 36, 0
5, 38880, Note_on_c, 0, 37, 64
5, 39120, Note_on_c, 0, 37, 0
5, 39120, Note_on_c, 0, 36, 64
5, 39360, Note_on_c, 0, 36, 0
5, 39360, Note_on_c, 0, 37, 64
5, 39600, Note_on_c, 0, 37, 0
5, 39600, Note_on_c, 0, 34, 64
5, 39840, Note_on_c, 0, 34, 0
5, 39840, Note_on_c, 0, 35, 64
5, 40080, Note_on_c, 0, 35, 0
5, 40080, Note_on_c, 0, 34, 65
5, 40320, Note_on_c, 0, 34, 0
5, 40320, Note_on_c, 0, 35, 65
5, 40560, Note_on_c, 0, 35, 0
5, 40560, Note_on_c, 0, 34, 65
5, 40800, Note_on_c, 0, 34, 0
5, 40800, Note_on_c, 0, 35, 65
5, 41040, Note_on_c, 0, 35, 0
5, 41040, Note_on_c, 0, 32, 66
5, 41280, Note_on_c, 0, 32, 0
5, 41280, Note_on_c, 0, 33, 66
5, 41520, Note_on_c, 0, 33, 0
5, 41520, Note_on_c, 0, 32, 66
5, 41760, Note_on_c, 0, 32, 0
5, 41760, Note_on_c, 0, 33, 66
5, 42000, Note_on_c, 0, 33, 0
5, 42000, Note_on_c, 0, 32, 67
5, 42240, Note_on_c, 0, 32, 0
5, 42240, Note_on_c, 0, 33, 67
5, 42480, Note_on_c, 0, 33, 0
5, 42480, Note_on_c, 0, 32, 67
5, 42720, Note_on_c, 0, 32, 0
5, 42720, Note_on_c, 0, 33, 67
5, 42960, Note_on_c, 0, 33, 0
5, 42960, Note_on_c, 0, 32, 69
5, 43200, Note_on_c, 0, 32, 0
5, 43200, Note_on_c, 0, 33, 71
5, 43440, Note_on_c, 0, 33, 0
5, 43440, Note_on_c, 0, 32, 73
5, 43680, Note_on_c, 0, 32, 0
5, 43680, Note_on_c, 0, 33, 75
5, 43920, Note_on_c, 0, 33, 0
5, 43920, Note_on_c, 0, 32, 77
5, 44160, Note_on_c, 0, 32, 0
5, 44160, Note_on_c, 0, 33, 79
5, 44400, Note_on_c, 0, 33, 0
5, 44400, Note_on_c, 0, 32, 81
5, 44640, Note_on_c, 0, 32, 0
5, 44640, Note_on_c, 0, 33, 82
5, 44880, Note_on_c, 0, 33, 0
5, 44880, Note_on_c, 0, 35, 84
5, 45120, Note_on_c, 0, 35, 0
5, 45120, Note_on_c, 0, 37, 86
5, 45360, Note_on_c, 0, 37, 0
5, 45360, Note_on_c, 0, 38, 88
5, 45600, Note_on_c, 0, 38, 0
5, 45600, Note_on_c, 0, 40, 90
5, 45840, Note_on_c, 0, 40, 0
5, 45840, Note_on_c, 0, 39, 92
5, 46080, Note_on_c, 0, 39, 0
5, 46080, Note_on_c, 0, 40, 94
5, 46320, Note_on_c, 0, 40, 0
5, 46320, Note_on_c, 0, 42, 96
5, 46560, Note_on_c, 0, 42, 0
5, 46560, Note_on_c, 0, 43, 98
5, 46800, Note_on_c, 0, 43, 0
5, 46800, Note_on_c, 0, 44, 100
5, 47040, Note_on_c, 0, 44, 0
5, 47040, Note_on_c, 0, 45, 109
5, 47196, Note_on_c, 0, 45, 0
5, 47280, Note_on_c, 0, 45, 90
5, 47436, Note_on_c, 0, 45, 0
5, 47520, Note_on_c, 0, 45, 82
5, 47676, Note_on_c, 0, 45, 0
5, 47760, Note_on_c, 0, 45, 76
5, 47916, Note_on_c, 0, 45, 0
5, 48000, Note_on_c, 0, 45, 75
5, 48156, Note_on_c, 0, 45, 0
5, 48240, Note_on_c, 0, 45, 73
5, 48396, Note_on_c, 0, 45, 0
5, 48480, Note_on_c, 0, 45, 71
5, 48636, Note_on_c, 0, 45, 0
5, 48720, Note_on_c, 0, 45, 69
5, 48876, Note_on_c, 0, 45, 0
5, 48960, Note_on_c, 0, 45, 68
5, 49116, Note_on_c, 0, 45, 0
5, 49200, Note_on_c, 0, 45, 72
5, 49356, Note_on_c, 0, 45, 0
5, 49440, Note_on_c, 0, 45, 68
5, 49596, Note_on_c, 0, 45, 0
5, 49680, Note_on_c, 0, 45, 65
5, 49836, Note_on_c, 0, 45, 0
5, 49920, Note_on_c, 0, 45, 64
5, 50076, Note_on_c, 0, 45, 0
5, 51360, Note_on_c, 0, 38, 64
5, 51600, Note_on_c, 0, 38, 0
5, 51600, Note_on_c, 0, 37, 65
5, 51840, Note_on_c, 0, 37, 0
5, 51840, Note_on_c, 0, 38, 65
5, 52080, Note_on_c, 0, 38, 0
5, 52080, Note_on_c, 0, 37, 66
5, 52320, Note_on_c, 0, 37, 0
5, 52320, Note_on_c, 0, 38, 66
5, 52560, Note_on_c, 0, 38, 0
5, 52560, Note_on_c, 0, 42, 66
5, 52800, Note_on_c, 0, 42, 0
5, 52800, Note_on_c, 0, 43, 67
5, 54240, Note_on_c, 0, 43, 0
5, 54240, Note_on_c, 0, 40, 68
5, 54480, Note_on_c, 0, 40, 0
5, 54480, Note_on_c, 0, 39, 69
5, 54720, Note_on_c, 0, 39, 0
5, 54720, Note_on_c, 0, 40, 71
5, 54960, Note_on_c, 0, 40, 0
5, 54960, Note_on_c, 0, 39, 72
5, 55200, Note_on_c, 0, 39, 0
5, 55200, Note_on_c, 0, 40, 73
5, 55440, Note_on_c, 0, 40, 0
5, 55440, Note_on_c, 0, 43, 74
5, 55680, Note_on_c, 0, 43, 0
5, 55680, Note_on_c, 0, 45, 76
5, 57120, Note_on_c, 0, 45, 0
5, 57120, Note_on_c, 0, 45, 83
5, 58320, Note_on_c, 0, 46, 94
5, 58323, Note_on_c, 0, 45, 0
5, 58560, Note_on_c, 0, 46, 0
5, 58560, Note_on_c, 0, 47, 109
5, 58716, Note_on_c, 0, 47, 0
5, 58800, Note_on_c, 0, 47, 90
5, 58956, Note_on_c, 0, 47, 0
5, 59040, Note_on_c, 0, 47, 80
5, 59196, Note_on_c, 0, 47, 0
5, 59280, Note_on_c, 0, 45, 76
5, 59436, Note_on_c, 0, 45, 0
5, 59520, Note_on_c, 0, 45, 75
5, 59676, Note_on_c, 0, 45, 0
5, 59760, Note_on_c, 0, 43, 73
5, 59916, Note_on_c, 0, 43, 0
5, 60000, Note_on_c, 0, 45, 72
5, 60156, Note_on_c, 0, 45, 0
5, 60240, Note_on_c, 0, 45, 70
5, 60396, Note_on_c, 0, 45, 0
5, 60480, Note_on_c, 0, 45, 69
5, 60636, Note_on_c, 0, 45, 0
5, 60720, Note_on_c, 0, 45, 73
5, 60876, Note_on_c, 0, 45, 0
5, 60960, Note_on_c, 0, 45, 68
5, 61116, Note_on_c, 0, 45, 0
5, 61200, Note_on_c, 0, 45, 64
5, 61356, Note_on_c, 0, 45, 0
5, 62880, Note_on_c, 0, 50, 63
5, 63120, Note_on_c, 0, 50, 0
5, 63120, Note_on_c, 0, 49, 64
5, 63360, Note_on_c, 0, 49, 0
5, 63360, Note_on_c, 0, 50, 65
5, 63600, Note_on_c, 0, 50, 0
5, 63600, Note_on_c, 0, 49, 65
5, 63840, Note_on_c, 0, 49, 0
5, 63840, Note_on_c, 0, 50, 66
5, 64080, Note_on_c, 0, 50, 0
5, 64080, Note_on_c, 0, 54, 67
5, 64320, Note_on_c, 0, 54, 0
5, 64320, Note_on_c, 0, 55, 70
5, 65760, Note_on_c, 0, 55, 0
5, 65760, Note_on_c, 0, 52, 73
5, 66000, Note_on_c, 0, 52, 0
5, 66000, Note_on_c, 0, 51, 73
5, 66240, Note_on_c, 0, 51, 0
5, 66240, Note_on_c, 0, 52, 74
5, 66480, Note_on_c, 0, 52, 0
5, 66480, Note_on_c, 0, 51, 74
5, 66720, Note_on_c, 0, 51, 0
5, 66720, Note_on_c, 0, 52, 75
5, 66960, Note_on_c, 0, 52, 0
5, 66960, Note_on_c, 0, 55, 75
5, 67200, Note_on_c, 0, 55, 0
5, 67200, Note_on_c, 0, 57, 76
5, 68640, Note_on_c, 0, 57, 0
5, 68640, Note_on_c, 0, 57, 81
5, 69835, Note_on_c, 0, 57, 0
5, 69840, Note_on_c, 0, 58, 100
5, 70080, Note_on_c, 0, 58, 0
5, 70080, Note_on_c, 0, 59, 109
5, 70236, Note_on_c, 0, 59, 0
5, 70320, Note_on_c, 0, 59, 92
5, 70476, Note_on_c, 0, 59, 0
5, 70560, Note_on_c, 0, 59, 85
5, 70716, Note_on_c, 0, 59, 0
5, 70800, Note_on_c, 0, 57, 77
5, 70956, Note_on_c, 0, 57, 0
5, 71040, Note_on_c, 0, 57, 73
5, 71196, Note_on_c, 0, 57, 0
5, 71280, Note_on_c, 0, 55, 72
5, 71436, Note_on_c, 0, 55, 0
5, 71520, Note_on_c, 0, 57, 71
5, 71676, Note_on_c, 0, 57, 0
5, 71760, Note_on_c, 0, 57, 69
5, 71916, Note_on_c, 0, 57, 0
5, 72000, Note_on_c, 0, 57, 68
5, 72156, Note_on_c, 0, 57, 0
5, 72240, Note_on_c, 0, 57, 67
5, 72396, Note_on_c, 0, 57, 0
5, 72480, Note_on_c, 0, 57, 66
5, 72636, Note_on_c, 0, 57, 0
5, 72720, Note_on_c, 0, 57, 65
5, 72876, Note_on_c, 0, 57, 0
5, 73680, Note_on_c, 0, 50, 60
5, 74160, Note_on_c, 0, 50, 0
5, 75360, Note_on_c, 0, 38, 68
5, 75720, Note_on_c, 0, 38, 0
5, 75840, Note_on_c, 0, 42, 68
5, 76200, Note_on_c, 0, 42, 0
5, 76320, Note_on_c, 0, 43, 68
5, 76680, Note_on_c, 0, 43, 0
5, 76800, Note_on_c, 0, 42, 69
5, 77160, Note_on_c, 0, 42, 0
5, 77280, Note_on_c, 0, 40, 69
5, 77640, Note_on_c, 0, 40, 0
5, 77760, Note_on_c, 0, 45, 69
5, 78120, Note_on_c, 0, 45, 0
5, 78240, Note_on_c, 0, 38, 69
5, 78600, Note_on_c, 0, 38, 0
5, 78720, Note_on_c, 0, 54, 70
5, 79080, Note_on_c, 0, 54, 0
5, 79200, Note_on_c, 0, 49, 70
5, 79560, Note_on_c, 0, 49, 0
5, 79680, Note_on_c, 0, 47, 70
5, 80040, Note_on_c, 0, 47, 0
5, 80160, Note_on_c, 0, 49, 71
5, 80520, Note_on_c, 0, 49, 0
5, 80640, Note_on_c, 0, 45, 71
5, 81000, Note_on_c, 0, 45, 0
5, 81120, Note_on_c, 0, 47, 71
5, 81480, Note_on_c, 0, 47, 0
5, 81600, Note_on_c, 0, 40, 71
5, 81960, Note_on_c, 0, 40, 0
5, 82080, Note_on_c, 0, 45, 72
5, 82440, Note_on_c, 0, 45, 0
5, 82560, Note_on_c, 0, 52, 72
5, 82920, Note_on_c, 0, 52, 0
5, 83040, Note_on_c, 0, 45, 72
5, 83400, Note_on_c, 0, 45, 0
5, 83520, Note_on_c, 0, 49, 72
5, 83760, Note_on_c, 0, 49, 0
5, 83760, Note_on_c, 0, 52, 72
5, 84000, Note_on_c, 0, 52, 0
5, 84000, Note_on_c, 0, 45, 73
5, 84240, Note_on_c, 0, 45, 0
5, 84240, Note_on_c, 0, 47, 73
5, 84480, Note_on_c, 0, 47, 0
5, 84480, Note_on_c, 0, 49, 73
5, 84720, Note_on_c, 0, 49, 0
5, 84720, Note_on_c, 0, 50, 73
5, 84960, Note_on_c, 0, 50, 0
5, 84960, Note_on_c, 0, 52, 73
5, 85320, Note_on_c, 0, 52, 0
5, 85440, Note_on_c, 0, 52, 73
5, 85800, Note_on_c, 0, 52, 0
5, 85920, Note_on_c, 0, 45, 74
5, 86280, Note_on_c, 0, 45, 0
5, 86400, Note_on_c, 0, 45, 74
5, 86760, Note_on_c, 0, 45, 0
5, 86880, Note_on_c, 0, 45, 74
5, 87240, Note_on_c, 0, 45, 0
5, 87360, Note_on_c, 0, 45, 74
5, 87720, Note_on_c, 0, 45, 0
5, 87840, Note_on_c, 0, 45, 75
5, 88200, Note_on_c, 0, 45, 0
5, 88320, Note_on_c, 0, 43, 75
5, 88680, Note_on_c, 0, 43, 0
5, 88800, Note_on_c, 0, 42, 75
5, 89160, Note_on_c, 0, 42, 0
5, 89280, Note_on_c, 0, 42, 75
5, 89640, Note_on_c, 0, 42, 0
5, 89760, Note_on_c, 0, 43, 76
5, 90120, Note_on_c, 0, 43, 0
5, 90240, Note_on_c, 0, 42, 76
5, 90600, Note_on_c, 0, 42, 0
5, 90720, Note_on_c, 0, 40, 76
5, 90960, Note_on_c, 0, 40, 0
5, 90960, Note_on_c, 0, 42, 76
5, 91200, Note_on_c, 0, 42, 0
5, 91200, Note_on_c, 0, 43, 76
5, 91440, Note_on_c, 0, 43, 0
5, 91440, Note_on_c, 0, 44, 77
5, 91680, Note_on_c, 0, 44, 0
5, 91680, Note_on_c, 0, 45, 77
5, 92040, Note_on_c, 0, 45, 0
5, 92160, Note_on_c, 0, 43, 77
5, 92520, Note_on_c, 0, 43, 0
5, 92640, Note_on_c, 0, 42, 77
5, 93000, Note_on_c, 0, 42, 0
5, 93120, Note_on_c, 0, 45, 79
5, 93480, Note_on_c, 0, 45, 0
5, 93600, Note_on_c, 0, 47, 80
5, 94080, Note_on_c, 0, 47, 0
5, 94080, Note_on_c, 0, 45, 86
5, 94320, Note_on_c, 0, 45, 0
5, 94320, Note_on_c, 0, 43, 94
5, 94560, Note_on_c, 0, 43, 0
5, 94560, Note_on_c, 0, 45, 87
5, 94920, Note_on_c, 0, 45, 0
5, 95040, Note_on_c, 0, 45, 80
5, 95400, Note_on_c, 0, 45, 0
5, 95520, Note_on_c, 0, 50, 74
5, 95880, Note_on_c, 0, 50, 0
5, 96000, Note_on_c, 0, 57, 77
5, 96360, Note_on_c, 0, 57, 0
5, 96480, Note_on_c, 0, 50, 80
5, 96840, Note_on_c, 0, 50, 0
5, 96960, Note_on_c, 0, 50, 83
5, 97320, Note_on_c, 0, 50, 0
5, 97440, Note_on_c, 0, 55, 85
5, 97800, Note_on_c, 0, 55, 0
5, 97920, Note_on_c, 0, 57, 88
5, 98280, Note_on_c, 0, 57, 0
5, 98400, Note_on_c, 0, 55, 91
5, 98640, Note_on_c, 0, 55, 0
5, 98640, Note_on_c, 0, 57, 89
5, 98880, Note_on_c, 0, 57, 0
5, 98880, Note_on_c, 0, 55, 88
5, 99120, Note_on_c, 0, 55, 0
5, 99120, Note_on_c, 0, 56, 86
5, 99360, Note_on_c, 0, 56, 0
5, 99360, Note_on_c, 0, 57, 85
5, 99720, Note_on_c, 0, 57, 0
5, 99840, Note_on_c, 0, 55, 81
5, 100200, Note_on_c, 0, 55, 0
5, 100320, Note_on_c, 0, 54, 81
5, 100680, Note_on_c, 0, 54, 0
5, 100800, Note_on_c, 0, 57, 86
5, 101160, Note_on_c, 0, 57, 0
5, 101280, Note_on_c, 0, 59, 93
5, 101760, Note_on_c, 0, 59, 0
5, 101760, Note_on_c, 0, 57, 100
5, 102000, Note_on_c, 0, 57, 0
5, 102000, Note_on_c, 0, 55, 108
5, 102240, Note_on_c, 0, 55, 0
5, 102240, Note_on_c, 0, 57, 99
5, 102600, Note_on_c, 0, 57, 0
5, 102720, Note_on_c, 0, 57, 88
5, 103080, Note_on_c, 0, 57, 0
5, 103200, Note_on_c, 0, 62, 81
5, 103320, Note_on_c, 0, 62, 0
5, 103680, Note_on_c, 0, 50, 65
5, 104160, Note_on_c, 0, 50, 0
5, 105360, Note_on_c, 0, 38, 71
5, 105516, Note_on_c, 0, 38, 0
5, 105840, Note_on_c, 0, 38, 71
5, 105996, Note_on_c, 0, 38, 0
5, 106080, Note_on_c, 0, 38, 72
5, 106236, Note_on_c, 0, 38, 0
5, 107040, Note_on_c, 0, 43, 73
5, 107196, Note_on_c, 0, 43, 0
5, 107280, Note_on_c, 0, 44, 74
5, 107436, Note_on_c, 0, 44, 0
5, 107760, Note_on_c, 0, 45, 74
5, 107916, Note_on_c, 0, 45, 0
5, 108000, Note_on_c, 0, 50, 74
5, 108156, Note_on_c, 0, 50, 0
5, 108960, Note_on_c, 0, 54, 76
5, 109116, Note_on_c, 0, 54, 0
5, 109200, Note_on_c, 0, 50, 76
5, 109356, Note_on_c, 0, 50, 0
5, 109680, Note_on_c, 0, 38, 77
5, 109836, Note_on_c, 0, 38, 0
5, 109920, Note_on_c, 0, 37, 78
5, 110076, Note_on_c, 0, 37, 0
5, 110160, Note_on_c, 0, 49, 80
5, 110316, Note_on_c, 0, 49, 0
5, 110400, Note_on_c, 0, 50, 82
5, 110556, Note_on_c, 0, 50, 0
5, 110640, Note_on_c, 0, 49, 83
5, 110796, Note_on_c, 0, 49, 0
5, 110880, Note_on_c, 0, 47, 85
5, 111036, Note_on_c, 0, 47, 0
5, 111120, Note_on_c, 0, 47, 82
5, 111276, Note_on_c, 0, 47, 0
5, 111600, Note_on_c, 0, 40, 75
5, 111756, Note_on_c, 0, 40, 0
5, 111840, Note_on_c, 0, 33, 72
5, 111996, Note_on_c, 0, 33, 0
5, 112800, Note_on_c, 0, 33, 80
5, 112956, Note_on_c, 0, 33, 0
5, 113760, Note_on_c, 0, 33, 88
5, 113916, Note_on_c, 0, 33, 0
5, 114000, Note_on_c, 0, 35, 91
5, 114156, Note_on_c, 0, 35, 0
5, 114240, Note_on_c, 0, 37, 93
5, 114396, Note_on_c, 0, 37, 0
5, 114480, Note_on_c, 0, 38, 95
5, 114636, Note_on_c, 0, 38, 0
5, 114720, Note_on_c, 0, 40, 97
5, 114876, Note_on_c, 0, 40, 0
5, 114960, Note_on_c, 0, 40, 99
5, 115116, Note_on_c, 0, 40, 0
5, 115200, Note_on_c, 0, 40, 101
5, 115356, Note_on_c, 0, 40, 0
5, 115440, Note_on_c, 0, 40, 103
5, 115596, Note_on_c, 0, 40, 0
5, 115680, Note_on_c, 0, 45, 105
5, 115836, Note_on_c, 0, 45, 0
5, 115920, Note_on_c, 0, 57, 108
5, 116076, Note_on_c, 0, 57, 0
5, 116160, Note_on_c, 0, 45, 110
5, 116316, Note_on_c, 0, 45, 0
5, 116400, Note_on_c, 0, 57, 112
5, 116556, Note_on_c, 0, 57, 0
5, 116640, Note_on_c, 0, 45, 114
5, 116796, Note_on_c, 0, 45, 0
5, 116880, Note_on_c, 0, 57, 116
5, 117036, Note_on_c, 0, 57, 0
5, 117120, Note_on_c, 0, 45, 118
5, 117276, Note_on_c, 0, 45, 0
5, 117360, Note_on_c, 0, 57, 120
5, 117516, Note_on_c, 0, 57, 0
5, 117600, Note_on_c, 0, 57, 121
5, 117600, Note_on_c, 0, 45, 121
5, 117756, Note_on_c, 0, 45, 0
5, 117756, Note_on_c, 0, 57, 0
5, 118640, Note_on_c, 0, 30, 75
5, 118720, Note_on_c, 0, 30, 0
5, 118720, Note_on_c, 0, 31, 76
5, 118800, Note_on_c, 0, 31, 0
5, 118800, Note_on_c, 0, 33, 77
5, 118880, Note_on_c, 0, 33, 0
5, 118880, Note_on_c, 0, 35, 78
5, 118960, Note_on_c, 0, 35, 0
5, 118960, Note_on_c, 0, 36, 79
5, 119040, Note_on_c, 0, 36, 0
5, 119040, Note_on_c, 0, 37, 80
5, 119120, Note_on_c, 0, 37, 0
5, 119120, Note_on_c, 0, 38, 81
5, 119200, Note_on_c, 0, 38, 0
5, 119200, Note_on_c, 0, 39, 82
5, 119280, Note_on_c, 0, 39, 0
5, 119280, Note_on_c, 0, 40, 83
5, 119360, Note_on_c, 0, 40, 0
5, 119360, Note_on_c, 0, 41, 85
5, 119440, Note_on_c, 0, 41, 0
5, 119440, Note_on_c, 0, 42, 86
5, 119520, Note_on_c, 0, 42, 0
5, 119520, Note_on_c, 0, 43, 80
5, 120480, Note_on_c, 0, 43, 0
5, 120480, Note_on_c, 0, 40, 100
5, 120636, Note_on_c, 0, 40, 0
5, 120720, Note_on_c, 0, 42, 95
5, 120876, Note_on_c, 0, 42, 0
5, 120960, Note_on_c, 0, 43, 89
5, 121116, Note_on_c, 0, 43, 0
5, 121200, Note_on_c, 0, 44, 83
5, 121356, Note_on_c, 0, 44, 0
5, 121440, Note_on_c, 0, 45, 80
5, 122400, Note_on_c, 0, 45, 0
5, 122400, Note_on_c, 0, 55, 86
5, 123360, Note_on_c, 0, 55, 0
5, 123360, Note_on_c, 0, 54, 92
5, 123521, Note_on_c, 0, 54, 0
5, 123840, Note_on_c, 0, 55, 96
5, 124001, Note_on_c, 0, 55, 0
5, 124320, Note_on_c, 0, 57, 99
5, 124481, Note_on_c, 0, 57, 0
5, 124800, Note_on_c, 0, 57, 102
5, 124961, Note_on_c, 0, 57, 0
5, 125280, Note_on_c, 0, 62, 103
5, 125436, Note_on_c, 0, 62, 0
5, 126320, Note_on_c, 0, 30, 83
5, 126400, Note_on_c, 0, 30, 0
5, 126400, Note_on_c, 0, 31, 85
5, 126480, Note_on_c, 0, 31, 0
5, 126480, Note_on_c, 0, 33, 87
5, 126560, Note_on_c, 0, 33, 0
5, 126560, Note_on_c, 0, 35, 88
5, 126640, Note_on_c, 0, 35, 0
5, 126640, Note_on_c, 0, 36, 90
5, 126720, Note_on_c, 0, 36, 0
5, 126720, Note_on_c, 0, 37, 92
5, 126800, Note_on_c, 0, 37, 0
5, 126800, Note_on_c, 0, 38, 94
5, 126880, Note_on_c, 0, 38, 0
5, 126880, Note_on_c, 0, 39, 96
5, 126960, Note_on_c, 0, 39, 0
5, 126960, Note_on_c, 0, 40, 98
5, 127040, Note_on_c, 0, 40, 0
5, 127040, Note_on_c, 0, 41, 99
5, 127120, Note_on_c, 0, 41, 0
5, 127120, Note_on_c, 0, 42, 101
5, 127200, Note_on_c, 0, 42, 0
5, 127200, Note_on_c, 0, 43, 92
5, 128160, Note_on_c, 0, 43, 0
5, 128160, Note_on_c, 0, 40, 113
5, 128316, Note_on_c, 0, 40, 0
5, 128400, Note_on_c, 0, 42, 104
5, 128556, Note_on_c, 0, 42, 0
5, 128640, Note_on_c, 0, 43, 95
5, 128796, Note_on_c, 0, 43, 0
5, 128880, Note_on_c, 0, 44, 87
5, 129036, Note_on_c, 0, 44, 0
5, 129120, Note_on_c, 0, 33, 80
5, 130080, Note_on_c, 0, 33, 0
5, 130080, Note_on_c, 0, 43, 92
5, 131040, Note_on_c, 0, 43, 0
5, 131040, Note_on_c, 0, 42, 104
5, 131196, Note_on_c, 0, 42, 0
5, 131280, Note_on_c, 0, 42, 107
5, 131436, Note_on_c, 0, 42, 0
5, 131520, Note_on_c, 0, 43, 110
5, 131676, Note_on_c, 0, 43, 0
5, 131760, Note_on_c, 0, 43, 113
5, 131916, Note_on_c, 0, 43, 0
5, 132000, Note_on_c, 0, 45, 116
5, 132156, Note_on_c, 0, 45, 0
5, 132240, Note_on_c, 0, 45, 120
5, 132396, Note_on_c, 0, 45, 0
5, 132480, Note_on_c, 0, 45, 123
5, 132636, Note_on_c, 0, 45, 0
5, 132720, Note_on_c, 0, 45, 126
5, 132876, Note_on_c, 0, 45, 0
5, 132960, Note_on_c, 0, 50, 127
5, 133116, Note_on_c, 0, 50, 0
5, 134880, Note_on_c, 0, 35, 104
5, 135000, Note_on_c, 0, 35, 0
5, 135000, Note_on_c, 0, 34, 104
5, 135120, Note_on_c, 0, 34, 0
5, 135120, Note_on_c, 0, 35, 105
5, 135240, Note_on_c, 0, 35, 0
5, 135240, Note_on_c, 0, 34, 106
5, 135360, Note_on_c, 0, 34, 0
5, 135360, Note_on_c, 0, 35, 106
5, 135480, Note_on_c, 0, 35, 0
5, 135480, Note_on_c, 0, 34, 107
5, 135600, Note_on_c, 0, 34, 0
5, 135600, Note_on_c, 0, 35, 108
5, 135720, Note_on_c, 0, 35, 0
5, 135720, Note_on_c, 0, 34, 108
5, 135840, Note_on_c, 0, 34, 0
5, 135840, Note_on_c, 0, 35, 111
5, 135960, Note_on_c, 0, 35, 0
5, 135960, Note_on_c, 0, 34, 106
5, 136080, Note_on_c, 0, 34, 0
5, 136080, Note_on_c, 0, 35, 103
5, 136200, Note_on_c, 0, 35, 0
5, 136200, Note_on_c, 0, 34, 103
5, 136320, Note_on_c, 0, 34, 0
5, 136320, Note_on_c, 0, 35, 103
5, 136440, Note_on_c, 0, 35, 0
5, 136440, Note_on_c, 0, 34, 102
5, 136560, Note_on_c, 0, 34, 0
5, 136560, Note_on_c, 0, 35, 102
5, 136680, Note_on_c, 0, 35, 0
5, 136680, Note_on_c, 0, 34, 101
5, 136800, Note_on_c, 0, 34, 0
5, 136800, Note_on_c, 0, 35, 101
5, 136920, Note_on_c, 0, 35, 0
5, 136920, Note_on_c, 0, 34, 101
5, 137040, Note_on_c, 0, 34, 0
5, 137040, Note_on_c, 0, 35, 100
5, 137160, Note_on_c, 0, 35, 0
5, 137160, Note_on_c, 0, 34, 100
5, 137280, Note_on_c, 0, 34, 0
5, 137280, Note_on_c, 0, 35, 99
5, 137400, Note_on_c, 0, 35, 0
5, 137400, Note_on_c, 0, 34, 99
5, 137520, Note_on_c, 0, 34, 0
5, 137520, Note_on_c, 0, 35, 98
5, 137640, Note_on_c, 0, 35, 0
5, 137640, Note_on_c, 0, 34, 98
5, 137760, Note_on_c, 0, 34, 0
5, 137760, Note_on_c, 0, 35, 97
5, 137880, Note_on_c, 0, 35, 0
5, 137880, Note_on_c, 0, 34, 97
5, 138000, Note_on_c, 0, 34, 0
5, 138000, Note_on_c, 0, 35, 96
5, 138120, Note_on_c, 0, 35, 0
5, 138120, Note_on_c, 0, 34, 96
5, 138240, Note_on_c, 0, 34, 0
5, 138240, Note_on_c, 0, 35, 96
5, 138360, Note_on_c, 0, 35, 0
5, 138360, Note_on_c, 0, 34, 95
5, 138480, Note_on_c, 0, 34, 0
5, 138480, Note_on_c, 0, 35, 95
5, 138600, Note_on_c, 0, 35, 0
5, 138600, Note_on_c, 0, 34, 94
5, 138720, Note_on_c, 0, 34, 0
5, 138720, Note_on_c, 0, 35, 93
5, 138840, Note_on_c, 0, 35, 0
5, 138840, Note_on_c, 0, 34, 94
5, 138960, Note_on_c, 0, 34, 0
5, 138960, Note_on_c, 0, 35, 96
5, 139080, Note_on_c, 0, 35, 0
5, 139080, Note_on_c, 0, 34, 98
5, 139200, Note_on_c, 0, 34, 0
5, 139200, Note_on_c, 0, 35, 100
5, 139440, Note_on_c, 0, 35, 0
5, 139440, Note_on_c, 0, 33, 104
5, 139560, Note_on_c, 0, 33, 0
5, 139560, Note_on_c, 0, 32, 106
5, 139680, Note_on_c, 0, 32, 0
5, 139680, Note_on_c, 0, 30, 111
5, 139800, Note_on_c, 0, 30, 0
5, 139800, Note_on_c, 0, 29, 109
5, 139920, Note_on_c, 0, 29, 0
5, 139920, Note_on_c, 0, 30, 108
5, 140040, Note_on_c, 0, 30, 0
5, 140040, Note_on_c, 0, 29, 107
5, 140160, Note_on_c, 0, 29, 0
5, 140160, Note_on_c, 0, 30, 106
5, 140280, Note_on_c, 0, 30, 0
5, 140280, Note_on_c, 0, 29, 105
5, 140400, Note_on_c, 0, 29, 0
5, 140400, Note_on_c, 0, 30, 104
5, 140520, Note_on_c, 0, 30, 0
5, 140520, Note_on_c, 0, 29, 103
5, 140640, Note_on_c, 0, 29, 0
5, 140640, Note_on_c, 0, 30, 102
5, 140760, Note_on_c, 0, 30, 0
5, 140760, Note_on_c, 0, 29, 101
5, 140880, Note_on_c, 0, 29, 0
5, 140880, Note_on_c, 0, 30, 100
5, 141000, Note_on_c, 0, 30, 0
5, 141000, Note_on_c, 0, 29, 99
5, 141120, Note_on_c, 0, 29, 0
5, 141120, Note_on_c, 0, 30, 98
5, 141240, Note_on_c, 0, 30, 0
5, 141240, Note_on_c, 0, 29, 97
5, 141360, Note_on_c, 0, 29, 0
5, 141360, Note_on_c, 0, 30, 96
5, 141480, Note_on_c, 0, 30, 0
5, 141480, Note_on_c, 0, 29, 95
5, 141600, Note_on_c, 0, 29, 0
5, 141600, Note_on_c, 0, 30, 94
5, 141720, Note_on_c, 0, 30, 0
5, 141720, Note_on_c, 0, 29, 95
5, 141840, Note_on_c, 0, 29, 0
5, 141840, Note_on_c, 0, 30, 95
5, 141960, Note_on_c, 0, 30, 0
5, 141960, Note_on_c, 0, 29, 96
5, 142080, Note_on_c, 0, 29, 0
5, 142080, Note_on_c, 0, 30, 97
5, 142200, Note_on_c, 0, 30, 0
5, 142200, Note_on_c, 0, 29, 97
5, 142320, Note_on_c, 0, 29, 0
5, 142320, Note_on_c, 0, 30, 98
5, 142440, Note_on_c, 0, 30, 0
5, 142440, Note_on_c, 0, 29, 98
5, 142560, Note_on_c, 0, 29, 0
5, 142560, Note_on_c, 0, 30, 104
5, 142680, Note_on_c, 0, 30, 0
5, 142680, Note_on_c, 0, 29, 100
5, 142800, Note_on_c, 0, 29, 0
5, 142800, Note_on_c, 0, 30, 100
5, 142920, Note_on_c, 0, 30, 0
5, 142920, Note_on_c, 0, 29, 101
5, 143040, Note_on_c, 0, 29, 0
5, 143040, Note_on_c, 0, 30, 102
5, 143160, Note_on_c, 0, 30, 0
5, 143160, Note_on_c, 0, 29, 102
5, 143280, Note_on_c, 0, 29, 0
5, 143280, Note_on_c, 0, 30, 103
5, 143400, Note_on_c, 0, 30, 0
5, 143400, Note_on_c, 0, 29, 104
5, 143520, Note_on_c, 0, 29, 0
5, 143520, Note_on_c, 0, 30, 110
5, 143640, Note_on_c, 0, 30, 0
5, 143640, Note_on_c, 0, 29, 105
5, 143760, Note_on_c, 0, 29, 0
5, 143760, Note_on_c, 0, 30, 105
5, 143880, Note_on_c, 0, 30, 0
5, 143880, Note_on_c, 0, 29, 106
5, 144000, Note_on_c, 0, 29, 0
5, 144000, Note_on_c, 0, 30, 107
5, 144120, Note_on_c, 0, 30, 0
5, 144120, Note_on_c, 0, 29, 107
5, 144240, Note_on_c, 0, 29, 0
5, 144240, Note_on_c, 0, 30, 108
5, 144360, Note_on_c, 0, 30, 0
5, 144360, Note_on_c, 0, 29, 109
5, 144480, Note_on_c, 0, 29, 0
5, 144480, Note_on_c, 0, 30, 114
5, 144600, Note_on_c, 0, 30, 0
5, 144600, Note_on_c, 0, 29, 108
5, 144720, Note_on_c, 0, 29, 0
5, 144720, Note_on_c, 0, 30, 107
5, 144840, Note_on_c, 0, 30, 0
5, 144840, Note_on_c, 0, 32, 106
5, 144960, Note_on_c, 0, 32, 0
5, 144960, Note_on_c, 0, 33, 104
5, 145080, Note_on_c, 0, 33, 0
5, 145080, Note_on_c, 0, 32, 103
5, 145200, Note_on_c, 0, 32, 0
5, 145200, Note_on_c, 0, 33, 102
5, 145320, Note_on_c, 0, 33, 0
5, 145320, Note_on_c, 0, 35, 101
5, 145440, Note_on_c, 0, 35, 0
5, 145440, Note_on_c, 0, 37, 100
5, 145560, Note_on_c, 0, 37, 0
5, 145560, Note_on_c, 0, 36, 99
5, 145680, Note_on_c, 0, 36, 0
5, 145680, Note_on_c, 0, 37, 98
5, 145800, Note_on_c, 0, 37, 0
5, 145800, Note_on_c, 0, 37, 97
5, 145920, Note_on_c, 0, 37, 0
5, 145920, Note_on_c, 0, 37, 96
5, 146040, Note_on_c, 0, 37, 0
5, 146040, Note_on_c, 0, 36, 95
5, 146160, Note_on_c, 0, 36, 0
5, 146160, Note_on_c, 0, 37, 94
5, 146280, Note_on_c, 0, 37, 0
5, 146280, Note_on_c, 0, 37, 92
5, 146400, Note_on_c, 0, 37, 0
5, 146400, Note_on_c, 0, 42, 91
5, 146520, Note_on_c, 0, 42, 0
5, 146520, Note_on_c, 0, 30, 90
5, 146640, Note_on_c, 0, 30, 0
5, 146640, Note_on_c, 0, 42, 100
5, 146760, Note_on_c, 0, 42, 0
5, 146760, Note_on_c, 0, 30, 96
5, 146880, Note_on_c, 0, 30, 0
5, 146880, Note_on_c, 0, 42, 94
5, 147000, Note_on_c, 0, 42, 0
5, 147000, Note_on_c, 0, 30, 93
5, 147120, Note_on_c, 0, 30, 0
5, 147120, Note_on_c, 0, 42, 91
5, 147240, Note_on_c, 0, 42, 0
5, 147240, Note_on_c, 0, 30, 90
5, 147360, Note_on_c, 0, 30, 0
5, 147360, Note_on_c, 0, 42, 89
5, 147480, Note_on_c, 0, 42, 0
5, 147480, Note_on_c, 0, 30, 87
5, 147600, Note_on_c, 0, 30, 0
5, 147600, Note_on_c, 0, 42, 86
5, 147720, Note_on_c, 0, 42, 0
5, 147720, Note_on_c, 0, 30, 85
5, 147840, Note_on_c, 0, 30, 0
5, 147840, Note_on_c, 0, 42, 83
5, 147960, Note_on_c, 0, 42, 0
5, 147960, Note_on_c, 0, 30, 82
5, 148080, Note_on_c, 0, 30, 0
5, 148080, Note_on_c, 0, 42, 81
5, 148200, Note_on_c, 0, 42, 0
5, 148200, Note_on_c, 0, 30, 79
5, 148320, Note_on_c, 0, 30, 0
5, 148320, Note_on_c, 0, 42, 76
5, 148440, Note_on_c, 0, 42, 0
5, 148440, Note_on_c, 0, 41, 78
5, 148560, Note_on_c, 0, 41, 0
5, 148560, Note_on_c, 0, 42, 80
5, 148680, Note_on_c, 0, 42, 0
5, 148680, Note_on_c, 0, 41, 81
5, 148800, Note_on_c, 0, 41, 0
5, 148800, Note_on_c, 0, 42, 83
5, 148920, Note_on_c, 0, 42, 0
5, 148920, Note_on_c, 0, 40, 85
5, 149040, Note_on_c, 0, 40, 0
5, 149040, Note_on_c, 0, 38, 87
5, 149160, Note_on_c, 0, 38, 0
5, 149160, Note_on_c, 0, 37, 88
5, 149280, Note_on_c, 0, 37, 0
5, 149280, Note_on_c, 0, 35, 96
5, 149400, Note_on_c, 0, 35, 0
5, 149400, Note_on_c, 0, 34, 94
5, 149520, Note_on_c, 0, 34, 0
5, 149520, Note_on_c, 0, 35, 95
5, 149640, Note_on_c, 0, 35, 0
5, 149640, Note_on_c, 0, 34, 95
5, 149760, Note_on_c, 0, 34, 0
5, 149760, Note_on_c, 0, 35, 95
5, 149880, Note_on_c, 0, 35, 0
5, 149880, Note_on_c, 0, 34, 96
5, 150000, Note_on_c, 0, 34, 0
5, 150000, Note_on_c, 0, 35, 96
5, 150120, Note_on_c, 0, 35, 0
5, 150120, Note_on_c, 0, 34, 97
5, 150240, Note_on_c, 0, 34, 0
5, 150240, Note_on_c, 0, 35, 103
5, 150360, Note_on_c, 0, 35, 0
5, 150360, Note_on_c, 0, 34, 98
5, 150480, Note_on_c, 0, 34, 0
5, 150480, Note_on_c, 0, 35, 98
5, 150600, Note_on_c, 0, 35, 0
5, 150600, Note_on_c, 0, 34, 99
5, 150720, Note_on_c, 0, 34, 0
5, 150720, Note_on_c, 0, 35, 99
5, 150840, Note_on_c, 0, 35, 0
5, 150840, Note_on_c, 0, 34, 99
5, 150960, Note_on_c, 0, 34, 0
5, 150960, Note_on_c, 0, 35, 100
5, 151080, Note_on_c, 0, 35, 0
5, 151080, Note_on_c, 0, 34, 100
5, 151200, Note_on_c, 0, 34, 0
5, 151200, Note_on_c, 0, 35, 109
5, 151320, Note_on_c, 0, 35, 0
5, 151320, Note_on_c, 0, 34, 104
5, 151440, Note_on_c, 0, 34, 0
5, 151440, Note_on_c, 0, 35, 101
5, 151560, Note_on_c, 0, 35, 0
5, 151560, Note_on_c, 0, 34, 98
5, 151680, Note_on_c, 0, 34, 0
5, 151680, Note_on_c, 0, 35, 95
5, 151800, Note_on_c, 0, 35, 0
5, 151800, Note_on_c, 0, 34, 92
5, 151920, Note_on_c, 0, 34, 0
5, 151920, Note_on_c, 0, 35, 89
5, 152040, Note_on_c, 0, 35, 0
5, 152040, Note_on_c, 0, 34, 86
5, 152160, Note_on_c, 0, 34, 0
5, 152160, Note_on_c, 0, 35, 84
5, 152280, Note_on_c, 0, 35, 0
5, 152280, Note_on_c, 0, 34, 86
5, 152400, Note_on_c, 0, 34, 0
5, 152400, Note_on_c, 0, 35, 87
5, 152520, Note_on_c, 0, 35, 0
5, 152520, Note_on_c, 0, 34, 88
5, 152640, Note_on_c, 0, 34, 0
5, 152640, Note_on_c, 0, 35, 89
5, 152760, Note_on_c, 0, 35, 0
5, 152760, Note_on_c, 0, 34, 91
5, 152880, Note_on_c, 0, 34, 0
5, 152880, Note_on_c, 0, 35, 92
5, 153000, Note_on_c, 0, 35, 0
5, 153000, Note_on_c, 0, 34, 93
5, 153120, Note_on_c, 0, 34, 0
5, 153120, Note_on_c, 0, 35, 101
5, 153240, Note_on_c, 0, 35, 0
5, 153240, Note_on_c, 0, 34, 96
5, 153360, Note_on_c, 0, 34, 0
5, 153360, Note_on_c, 0, 35, 98
5, 153480, Note_on_c, 0, 35, 0
5, 153480, Note_on_c, 0, 34, 100
5, 153600, Note_on_c, 0, 34, 0
5, 153600, Note_on_c, 0, 35, 102
5, 153720, Note_on_c, 0, 35, 0
5, 153720, Note_on_c, 0, 34, 103
5, 153840, Note_on_c, 0, 34, 0
5, 153840, Note_on_c, 0, 35, 105
5, 153960, Note_on_c, 0, 35, 0
5, 153960, Note_on_c, 0, 34, 107
5, 154080, Note_on_c, 0, 34, 0
5, 154080, Note_on_c, 0, 35, 113
5, 154200, Note_on_c, 0, 35, 0
5, 154200, Note_on_c, 0, 34, 106
5, 154320, Note_on_c, 0, 34, 0
5, 154320, Note_on_c, 0, 35, 104
5, 154440, Note_on_c, 0, 35, 0
5, 154440, Note_on_c, 0, 37, 102
5, 154560, Note_on_c, 0, 37, 0
5, 154560, Note_on_c, 0, 38, 99
5, 154680, Note_on_c, 0, 38, 0
5, 154680, Note_on_c, 0, 37, 97
5, 154800, Note_on_c, 0, 37, 0
5, 154800, Note_on_c, 0, 38, 95
5, 154920, Note_on_c, 0, 38, 0
5, 154920, Note_on_c, 0, 40, 93
5, 155040, Note_on_c, 0, 40, 0
5, 155040, Note_on_c, 0, 42, 95
5, 155160, Note_on_c, 0, 42, 0
5, 155160, Note_on_c, 0, 41, 93
5, 155280, Note_on_c, 0, 41, 0
5, 155280, Note_on_c, 0, 42, 92
5, 155400, Note_on_c, 0, 42, 0
5, 155400, Note_on_c, 0, 41, 91
5, 155520, Note_on_c, 0, 41, 0
5, 155520, Note_on_c, 0, 42, 89
5, 155640, Note_on_c, 0, 42, 0
5, 155640, Note_on_c, 0, 41, 88
5, 155760, Note_on_c, 0, 41, 0
5, 155760, Note_on_c, 0, 42, 87
5, 155880, Note_on_c, 0, 42, 0
5, 155880, Note_on_c, 0, 30, 86
5, 156000, Note_on_c, 0, 30, 0
5, 156000, Note_on_c, 0, 31, 84
5, 156120, Note_on_c, 0, 31, 0
5, 156120, Note_on_c, 0, 30, 83
5, 156240, Note_on_c, 0, 30, 0
5, 156240, Note_on_c, 0, 31, 82
5, 156360, Note_on_c, 0, 31, 0
5, 156360, Note_on_c, 0, 30, 81
5, 156480, Note_on_c, 0, 30, 0
5, 156480, Note_on_c, 0, 31, 79
5, 156600, Note_on_c, 0, 31, 0
5, 156600, Note_on_c, 0, 30, 78
5, 156720, Note_on_c, 0, 30, 0
5, 156720, Note_on_c, 0, 31, 77
5, 156840, Note_on_c, 0, 31, 0
5, 156840, Note_on_c, 0, 30, 76
5, 156960, Note_on_c, 0, 30, 0
5, 156960, Note_on_c, 0, 31, 84
5, 157080, Note_on_c, 0, 31, 0
5, 157080, Note_on_c, 0, 30, 77
5, 157200, Note_on_c, 0, 30, 0
5, 157200, Note_on_c, 0, 31, 78
5, 157320, Note_on_c, 0, 31, 0
5, 157320, Note_on_c, 0, 30, 79
5, 157440, Note_on_c, 0, 30, 0
5, 157440, Note_on_c, 0, 31, 80
5, 157560, Note_on_c, 0, 31, 0
5, 157560, Note_on_c, 0, 30, 81
5, 157680, Note_on_c, 0, 30, 0
5, 157680, Note_on_c, 0, 31, 82
5, 157800, Note_on_c, 0, 31, 0
5, 157800, Note_on_c, 0, 30, 83
5, 157920, Note_on_c, 0, 30, 0
5, 157920, Note_on_c, 0, 31, 92
5, 158040, Note_on_c, 0, 31, 0
5, 158040, Note_on_c, 0, 30, 85
5, 158160, Note_on_c, 0, 30, 0
5, 158160, Note_on_c, 0, 31, 86
5, 158280, Note_on_c, 0, 31, 0
5, 158280, Note_on_c, 0, 30, 87
5, 158400, Note_on_c, 0, 30, 0
5, 158400, Note_on_c, 0, 31, 88
5, 158520, Note_on_c, 0, 31, 0
5, 158520, Note_on_c, 0, 30, 89
5, 158640, Note_on_c, 0, 30, 0
5, 158640, Note_on_c, 0, 31, 90
5, 158760, Note_on_c, 0, 31, 0
5, 158760, Note_on_c, 0, 30, 92
5, 158880, Note_on_c, 0, 30, 0
5, 158880, Note_on_c, 0, 31, 101
5, 159000, Note_on_c, 0, 31, 0
5, 159000, Note_on_c, 0, 30, 94
5, 159120, Note_on_c, 0, 30, 0
5, 159120, Note_on_c, 0, 31, 95
5, 159240, Note_on_c, 0, 31, 0
5, 159240, Note_on_c, 0, 30, 96
5, 159360, Note_on_c, 0, 30, 0
5, 159360, Note_on_c, 0, 31, 97
5, 159480, Note_on_c, 0, 31, 0
5, 159480, Note_on_c, 0, 30, 98
5, 159600, Note_on_c, 0, 30, 0
5, 159600, Note_on_c, 0, 31, 99
5, 159720, Note_on_c, 0, 31, 0
5, 159720, Note_on_c, 0, 31, 100
5, 159840, Note_on_c, 0, 31, 0
5, 159840, Note_on_c, 0, 30, 106
5, 159960, Note_on_c, 0, 30, 0
5, 159960, Note_on_c, 0, 29, 102
5, 160080, Note_on_c, 0, 29, 0
5, 160080, Note_on_c, 0, 30, 103
5, 160200, Note_on_c, 0, 30, 0
5, 160200, Note_on_c, 0, 29, 104
5, 160320, Note_on_c, 0, 29, 0
5, 160320, Note_on_c, 0, 30, 105
5, 160440, Note_on_c, 0, 30, 0
5, 160440, Note_on_c, 0, 29, 106
5, 160560, Note_on_c, 0, 29, 0
5, 160560, Note_on_c, 0, 30, 107
5, 160680, Note_on_c, 0, 30, 0
5, 160680, Note_on_c, 0, 29, 108
5, 160800, Note_on_c, 0, 29, 0
5, 160800, Note_on_c, 0, 30, 115
5, 160920, Note_on_c, 0, 30, 0
5, 160920, Note_on_c, 0, 29, 114
5, 161040, Note_on_c, 0, 29, 0
5, 161040, Note_on_c, 0, 30, 114
5, 161160, Note_on_c, 0, 30, 0
5, 161160, Note_on_c, 0, 29, 113
5, 161280, Note_on_c, 0, 29, 0
5, 161280, Note_on_c, 0, 30, 112
5, 161400, Note_on_c, 0, 30, 0
5, 161400, Note_on_c, 0, 29, 112
5, 161520, Note_on_c, 0, 29, 0
5, 161520, Note_on_c, 0, 30, 111
5, 161640, Note_on_c, 0, 30, 0
5, 161640, Note_on_c, 0, 29, 110
5, 161760, Note_on_c, 0, 29, 0
5, 161760, Note_on_c, 0, 30, 109
5, 161880, Note_on_c, 0, 30, 0
5, 161880, Note_on_c, 0, 29, 109
5, 162000, Note_on_c, 0, 29, 0
5, 162000, Note_on_c, 0, 30, 108
5, 162120, Note_on_c, 0, 30, 0
5, 162120, Note_on_c, 0, 29, 107
5, 162240, Note_on_c, 0, 29, 0
5, 162240, Note_on_c, 0, 30, 107
5, 162360, Note_on_c, 0, 30, 0
5, 162360, Note_on_c, 0, 29, 106
5, 162480, Note_on_c, 0, 29, 0
5, 162480, Note_on_c, 0, 30, 105
5, 162600, Note_on_c, 0, 30, 0
5, 162600, Note_on_c, 0, 29, 105
5, 162720, Note_on_c, 0, 29, 0
5, 162720, Note_on_c, 0, 30, 103
5, 162840, Note_on_c, 0, 30, 0
5, 162840, Note_on_c, 0, 29, 99
5, 162960, Note_on_c, 0, 29, 0
5, 162960, Note_on_c, 0, 30, 95
5, 163080, Note_on_c, 0, 30, 0
5, 163080, Note_on_c, 0, 29, 92
5, 163200, Note_on_c, 0, 29, 0
5, 163200, Note_on_c, 0, 30, 88
5, 163320, Note_on_c, 0, 30, 0
5, 163320, Note_on_c, 0, 32, 84
5, 163440, Note_on_c, 0, 32, 0
5, 163440, Note_on_c, 0, 33, 80
5, 163560, Note_on_c, 0, 33, 0
5, 163560, Note_on_c, 0, 34, 76
5, 163680, Note_on_c, 0, 34, 0
5, 163680, Note_on_c, 0, 35, 73
5, 164160, Note_on_c, 0, 35, 0
5, 164160, Note_on_c, 0, 33, 57
5, 164160, Note_on_c, 0, 45, 57
5, 164640, Note_on_c, 0, 45, 0
5, 164640, Note_on_c, 0, 33, 0
5, 165600, Note_on_c, 0, 38, 68
5, 165840, Note_on_c, 0, 38, 0
5, 165840, Note_on_c, 0, 48, 68
5, 166080, Note_on_c, 0, 48, 0
5, 166080, Note_on_c, 0, 47, 69
5, 166320, Note_on_c, 0, 47, 0
5, 166320, Note_on_c, 0, 43, 69
5, 166560, Note_on_c, 0, 43, 0
5, 166560, Note_on_c, 0, 42, 69
5, 166800, Note_on_c, 0, 42, 0
5, 166800, Note_on_c, 0, 38, 70
5, 167040, Note_on_c, 0, 38, 0
5, 167280, Note_on_c, 0, 50, 70
5, 167520, Note_on_c, 0, 50, 0
5, 167520, Note_on_c, 0, 43, 71
5, 167760, Note_on_c, 0, 43, 0
5, 167760, Note_on_c, 0, 52, 71
5, 168000, Note_on_c, 0, 52, 0
5, 168000, Note_on_c, 0, 49, 71
5, 168240, Note_on_c, 0, 49, 0
5, 168240, Note_on_c, 0, 45, 72
5, 168480, Note_on_c, 0, 45, 0
5, 168480, Note_on_c, 0, 50, 72
5, 168720, Note_on_c, 0, 50, 0
5, 168720, Note_on_c, 0, 54, 72
5, 168960, Note_on_c, 0, 54, 0
5, 169200, Note_on_c, 0, 62, 73
5, 169440, Note_on_c, 0, 62, 0
5, 169440, Note_on_c, 0, 66, 73
5, 169680, Note_on_c, 0, 66, 0
5, 169680, Note_on_c, 0, 61, 74
5, 169920, Note_on_c, 0, 61, 0
5, 169920, Note_on_c, 0, 62, 74
5, 170160, Note_on_c, 0, 62, 0
5, 170160, Note_on_c, 0, 59, 74
5, 170400, Note_on_c, 0, 59, 0
5, 170400, Note_on_c, 0, 61, 75
5, 170640, Note_on_c, 0, 61, 0
5, 170640, Note_on_c, 0, 57, 75
5, 170880, Note_on_c, 0, 57, 0
5, 171120, Note_on_c, 0, 54, 76
5, 171360, Note_on_c, 0, 54, 0
5, 171360, Note_on_c, 0, 59, 76
5, 171600, Note_on_c, 0, 59, 0
5, 171600, Note_on_c, 0, 51, 76
5, 171840, Note_on_c, 0, 51, 0
5, 171840, Note_on_c, 0, 52, 77
5, 172080, Note_on_c, 0, 52, 0
5, 172080, Note_on_c, 0, 56, 77
5, 172320, Note_on_c, 0, 56, 0
5, 172320, Note_on_c, 0, 57, 78
5, 172320, Note_on_c, 0, 45, 78
5, 172560, Note_on_c, 0, 45, 0
5, 172560, Note_on_c, 0, 57, 0
5, 172560, Note_on_c, 0, 57, 82
5, 172560, Note_on_c, 0, 45, 82
5, 172800, Note_on_c, 0, 45, 0
5, 172800, Note_on_c, 0, 57, 0
5, 173040, Note_on_c, 0, 57, 89
5, 173040, Note_on_c, 0, 45, 89
5, 173280, Note_on_c, 0, 45, 0
5, 173280, Note_on_c, 0, 57, 0
5, 173280, Note_on_c, 0, 57, 92
5, 173280, Note_on_c, 0, 45, 92
5, 173520, Note_on_c, 0, 45, 0
5, 173520, Note_on_c, 0, 57, 0
5, 173520, Note_on_c, 0, 57, 96
5, 173520, Note_on_c, 0, 45, 96
5, 173760, Note_on_c, 0, 45, 0
5, 173760, Note_on_c, 0, 57, 0
5, 174000, Note_on_c, 0, 57, 103
5, 174240, Note_on_c, 0, 57, 0
5, 174240, Note_on_c, 0, 57, 107
5, 174360, Note_on_c, 0, 57, 0
5, 174360, Note_on_c, 0, 61, 107
5, 174480, Note_on_c, 0, 61, 0
5, 174480, Note_on_c, 0, 59, 106
5, 174600, Note_on_c, 0, 59, 0
5, 174600, Note_on_c, 0, 62, 106
5, 174720, Note_on_c, 0, 62, 0
5, 174720, Note_on_c, 0, 61, 105
5, 174840, Note_on_c, 0, 61, 0
5, 174840, Note_on_c, 0, 64, 105
5, 174960, Note_on_c, 0, 64, 0
5, 174960, Note_on_c, 0, 62, 104
5, 175080, Note_on_c, 0, 62, 0
5, 175080, Note_on_c, 0, 66, 104
5, 175200, Note_on_c, 0, 66, 0
5, 175200, Note_on_c, 0, 64, 103
5, 175320, Note_on_c, 0, 64, 0
5, 175320, Note_on_c, 0, 69, 103
5, 175440, Note_on_c, 0, 69, 0
5, 175440, Note_on_c, 0, 66, 103
5, 175560, Note_on_c, 0, 66, 0
5, 175560, Note_on_c, 0, 69, 102
5, 175680, Note_on_c, 0, 69, 0
5, 175680, Note_on_c, 0, 62, 102
5, 175800, Note_on_c, 0, 62, 0
5, 175800, Note_on_c, 0, 66, 101
5, 175920, Note_on_c, 0, 66, 0
5, 175920, Note_on_c, 0, 52, 101
5, 176040, Note_on_c, 0, 52, 0
5, 176040, Note_on_c, 0, 64, 100
5, 176160, Note_on_c, 0, 64, 0
5, 176160, Note_on_c, 0, 69, 101
5, 176280, Note_on_c, 0, 69, 0
5, 176280, Note_on_c, 0, 57, 100
5, 176400, Note_on_c, 0, 57, 0
5, 176400, Note_on_c, 0, 69, 98
5, 176520, Note_on_c, 0, 69, 0
5, 176520, Note_on_c, 0, 57, 97
5, 176640, Note_on_c, 0, 57, 0
5, 176640, Note_on_c, 0, 69, 96
5, 176760, Note_on_c, 0, 69, 0
5, 176760, Note_on_c, 0, 57, 94
5, 176880, Note_on_c, 0, 57, 0
5, 176880, Note_on_c, 0, 67, 93
5, 177000, Note_on_c, 0, 67, 0
5, 177000, Note_on_c, 0, 57, 92
5, 177120, Note_on_c, 0, 57, 0
5, 177120, Note_on_c, 0, 66, 91
5, 177120, Note_on_c, 0, 62, 91
5, 177240, Note_on_c, 0, 62, 0
5, 177240, Note_on_c, 0, 66, 0
5, 177240, Note_on_c, 0, 57, 89
5, 177360, Note_on_c, 0, 57, 0
5, 177360, Note_on_c, 0, 64, 88
5, 177360, Note_on_c, 0, 67, 88
5, 177480, Note_on_c, 0, 67, 0
5, 177480, Note_on_c, 0, 64, 0
5, 177480, Note_on_c, 0, 57, 87
5, 177600, Note_on_c, 0, 57, 0
5, 177600, Note_on_c, 0, 66, 86
5, 177600, Note_on_c, 0, 62, 86
5, 177720, Note_on_c, 0, 62, 0
5, 177720, Note_on_c, 0, 66, 0
5, 177720, Note_on_c, 0, 57, 84
5, 177840, Note_on_c, 0, 57, 0
5, 177840, Note_on_c, 0, 62, 83
5, 177840, Note_on_c, 0, 65, 83
5, 177960, Note_on_c, 0, 65, 0
5, 177960, Note_on_c, 0, 62, 0
5, 177960, Note_on_c, 0, 57, 82
5, 178080, Note_on_c, 0, 57, 0
5, 178080, Note_on_c, 0, 61, 80
5, 178080, Note_on_c, 0, 64, 80
5, 178200, Note_on_c, 0, 64, 0
5, 178200, Note_on_c, 0, 61, 0
5, 178200, Note_on_c, 0, 57, 76
5, 178320, Note_on_c, 0, 57, 0
5, 178320, Note_on_c, 0, 64, 76
5, 178440, Note_on_c, 0, 64, 0
5, 178440, Note_on_c, 0, 62, 76
5, 178560, Note_on_c, 0, 62, 0
5, 178560, Note_on_c, 0, 61, 77
5, 178680, Note_on_c, 0, 61, 0
5, 178680, Note_on_c, 0, 59, 77
5, 178800, Note_on_c, 0, 59, 0
5, 178800, Note_on_c, 0, 57, 78
5, 178920, Note_on_c, 0, 57, 0
5, 178920, Note_on_c, 0, 55, 78
5, 179040, Note_on_c, 0, 55, 0
5, 179040, Note_on_c, 0, 54, 78
5, 179160, Note_on_c, 0, 54, 0
5, 179160, Note_on_c, 0, 57, 79
5, 179280, Note_on_c, 0, 57, 0
5, 179280, Note_on_c, 0, 50, 79
5, 179400, Note_on_c, 0, 50, 0
5, 179400, Note_on_c, 0, 54, 79
5, 179520, Note_on_c, 0, 54, 0
5, 179520, Note_on_c, 0, 52, 80
5, 179640, Note_on_c, 0, 52, 0
5, 179640, Note_on_c, 0, 55, 80
5, 179760, Note_on_c, 0, 55, 0
5, 179760, Note_on_c, 0, 54, 81
5, 179880, Note_on_c, 0, 54, 0
5, 179880, Note_on_c, 0, 57, 81
5, 180000, Note_on_c, 0, 57, 0
5, 180000, Note_on_c, 0, 55, 81
5, 180120, Note_on_c, 0, 55, 0
5, 180120, Note_on_c, 0, 59, 82
5, 180240, Note_on_c, 0, 59, 0
5, 180240, Note_on_c, 0, 57, 82
5, 180360, Note_on_c, 0, 57, 0
5, 180360, Note_on_c, 0, 60, 82
5, 180480, Note_on_c, 0, 60, 0
5, 180480, Note_on_c, 0, 55, 83
5, 180600, Note_on_c, 0, 55, 0
5, 180600, Note_on_c, 0, 59, 83
5, 180720, Note_on_c, 0, 59, 0
5, 180720, Note_on_c, 0, 54, 84
5, 180840, Note_on_c, 0, 54, 0
5, 180840, Note_on_c, 0, 57, 84
5, 180960, Note_on_c, 0, 57, 0
5, 180960, Note_on_c, 0, 52, 84
5, 181080, Note_on_c, 0, 52, 0
5, 181080, Note_on_c, 0, 55, 85
5, 181200, Note_on_c, 0, 55, 0
5, 181200, Note_on_c, 0, 54, 85
5, 181320, Note_on_c, 0, 54, 0
5, 181320, Note_on_c, 0, 57, 85
5, 181440, Note_on_c, 0, 57, 0
5, 181440, Note_on_c, 0, 55, 86
5, 181560, Note_on_c, 0, 55, 0
5, 181560, Note_on_c, 0, 59, 86
5, 181680, Note_on_c, 0, 59, 0
5, 181680, Note_on_c, 0, 56, 87
5, 181800, Note_on_c, 0, 56, 0
5, 181800, Note_on_c, 0, 59, 87
5, 181920, Note_on_c, 0, 59, 0
5, 181920, Note_on_c, 0, 57, 90
5, 182040, Note_on_c, 0, 57, 0
5, 182040, Note_on_c, 0, 61, 91
5, 182160, Note_on_c, 0, 61, 0
5, 182160, Note_on_c, 0, 59, 92
5, 182280, Note_on_c, 0, 59, 0
5, 182280, Note_on_c, 0, 62, 93
5, 182400, Note_on_c, 0, 62, 0
5, 182400, Note_on_c, 0, 61, 93
5, 182520, Note_on_c, 0, 61, 0
5, 182520, Note_on_c, 0, 64, 94
5, 182640, Note_on_c, 0, 64, 0
5, 182640, Note_on_c, 0, 59, 95
5, 182760, Note_on_c, 0, 59, 0
5, 182760, Note_on_c, 0, 62, 96
5, 182880, Note_on_c, 0, 62, 0
5, 182880, Note_on_c, 0, 57, 97
5, 183000, Note_on_c, 0, 57, 0
5, 183000, Note_on_c, 0, 61, 97
5, 183120, Note_on_c, 0, 61, 0
5, 183120, Note_on_c, 0, 59, 98
5, 183240, Note_on_c, 0, 59, 0
5, 183240, Note_on_c, 0, 62, 99
5, 183360, Note_on_c, 0, 62, 0
5, 183360, Note_on_c, 0, 60, 100
5, 183480, Note_on_c, 0, 60, 0
5, 183480, Note_on_c, 0, 63, 101
5, 183600, Note_on_c, 0, 63, 0
5, 183600, Note_on_c, 0, 61, 101
5, 183720, Note_on_c, 0, 61, 0
5, 183720, Note_on_c, 0, 64, 102
5, 183840, Note_on_c, 0, 64, 0
5, 183840, Note_on_c, 0, 62, 103
5, 183960, Note_on_c, 0, 62, 0
5, 183960, Note_on_c, 0, 66, 104
5, 184080, Note_on_c, 0, 66, 0
5, 184080, Note_on_c, 0, 64, 105
5, 184200, Note_on_c, 0, 64, 0
5, 184200, Note_on_c, 0, 67, 105
5, 184320, Note_on_c, 0, 67, 0
5, 184320, Note_on_c, 0, 66, 106
5, 184440, Note_on_c, 0, 66, 0
5, 184440, Note_on_c, 0, 69, 107
5, 184560, Note_on_c, 0, 69, 0
5, 184560, Note_on_c, 0, 67, 108
5, 184680, Note_on_c, 0, 67, 0
5, 184680, Note_on_c, 0, 71, 108
5, 184800, Note_on_c, 0, 71, 0
5, 184800, Note_on_c, 0, 57, 109
5, 184920, Note_on_c, 0, 57, 0
5, 184920, Note_on_c, 0, 66, 109
5, 185040, Note_on_c, 0, 66, 0
5, 185040, Note_on_c, 0, 62, 109
5, 185160, Note_on_c, 0, 62, 0
5, 185160, Note_on_c, 0, 66, 109
5, 185280, Note_on_c, 0, 66, 0
5, 185280, Note_on_c, 0, 57, 106
5, 185400, Note_on_c, 0, 57, 0
5, 185400, Note_on_c, 0, 67, 104
5, 185520, Note_on_c, 0, 67, 0
5, 185520, Note_on_c, 0, 61, 96
5, 185640, Note_on_c, 0, 61, 0
5, 185640, Note_on_c, 0, 67, 89
5, 185760, Note_on_c, 0, 67, 0
5, 185760, Note_on_c, 0, 66, 78
5, 185760, Note_on_c, 0, 62, 78
5, 185916, Note_on_c, 0, 62, 0
5, 185916, Note_on_c, 0, 66, 0
5, 186720, Control_c, 0, 64, 0
5, 186720, Note_on_c, 0, 62, 78
5, 186876, Note_on_c, 0, 62, 0
5, 186960, Note_on_c, 0, 62, 84
5, 187440, Note_on_c, 0, 62, 0
5, 187440, Note_on_c, 0, 62, 80
5, 187596, Note_on_c, 0, 62, 0
5, 187680, Note_on_c, 0, 55, 80
5, 188160, Note_on_c, 0, 55, 0
5, 188400, Note_on_c, 0, 59, 83
5, 188556, Note_on_c, 0, 59, 0
5, 188640, Note_on_c, 0, 52, 85
5, 188796, Note_on_c, 0, 52, 0
5, 188880, Note_on_c, 0, 54, 84
5, 189036, Note_on_c, 0, 54, 0
5, 189120, Note_on_c, 0, 55, 83
5, 189276, Note_on_c, 0, 55, 0
5, 189360, Note_on_c, 0, 56, 82
5, 189516, Note_on_c, 0, 56, 0
5, 189600, Note_on_c, 0, 57, 82
5, 190080, Note_on_c, 0, 57, 0
5, 190320, Note_on_c, 0, 45, 79
5, 190476, Note_on_c, 0, 45, 0
5, 190560, Note_on_c, 0, 45, 81
5, 190716, Note_on_c, 0, 45, 0
5, 190800, Note_on_c, 0, 47, 88
5, 190956, Note_on_c, 0, 47, 0
5, 191040, Note_on_c, 0, 48, 85
5, 191196, Note_on_c, 0, 48, 0
5, 191280, Note_on_c, 0, 49, 88
5, 191436, Note_on_c, 0, 49, 0
5, 191520, Note_on_c, 0, 50, 90
5, 191676, Note_on_c, 0, 50, 0
5, 191760, Note_on_c, 0, 52, 100
5, 191916, Note_on_c, 0, 52, 0
5, 192000, Note_on_c, 0, 54, 94
5, 192156, Note_on_c, 0, 54, 0
5, 192240, Note_on_c, 0, 55, 94
5, 192396, Note_on_c, 0, 55, 0
5, 192480, Note_on_c, 0, 57, 95
5, 192636, Note_on_c, 0, 57, 0
5, 192960, Note_on_c, 0, 57, 97
5, 193116, Note_on_c, 0, 57, 0
5, 193440, Note_on_c, 0, 62, 98
5, 193920, Note_on_c, 0, 62, 0
5, 194160, Note_on_c, 0, 69, 106
5, 194160, Note_on_c, 0, 72, 106
5, 194160, Note_on_c, 0, 66, 106
5, 194316, Note_on_c, 0, 66, 0
5, 194316, Note_on_c, 0, 72, 0
5, 194316, Note_on_c, 0, 69, 0
5, 195120, Note_on_c, 0, 74, 110
5, 195120, Note_on_c, 0, 71, 110
5, 195120, Note_on_c, 0, 68, 110
5, 195276, Note_on_c, 0, 68, 0
5, 195276, Note_on_c, 0, 71, 0
5, 195276, Note_on_c, 0, 74, 0
5, 196080, Note_on_c, 0, 74, 112
5, 196080, Note_on_c, 0, 71, 112
5, 196080, Note_on_c, 0, 77, 112
5, 196236, Note_on_c, 0, 77, 0
5, 196236, Note_on_c, 0, 71, 0
5, 196236, Note_on_c, 0, 74, 0
5, 197040, Note_on_c, 0, 66, 95
5, 197040, Note_on_c, 0, 62, 95
5, 197040, Note_on_c, 0, 57, 95
5, 197196, Note_on_c, 0, 57, 0
5, 197196, Note_on_c, 0, 62, 0
5, 197196, Note_on_c, 0, 66, 0
5, 198000, Note_on_c, 0, 45, 90
5, 198000, Note_on_c, 0, 55, 90
5, 198000, Note_on_c, 0, 52, 90
5, 198156, Note_on_c, 0, 52, 0
5, 198156, Note_on_c, 0, 55, 0
5, 198156, Note_on_c, 0, 45, 0
5, 198960, Note_on_c, 0, 60, 106
5, 198960, Note_on_c, 0, 54, 106
5, 198960, Note_on_c, 0, 57, 106
5, 199116, Note_on_c, 0, 57, 0
5, 199116, Note_on_c, 0, 54, 0
5, 199116, Note_on_c, 0, 60, 0
5, 199920, Note_on_c, 0, 62, 108
5, 199920, Note_on_c, 0, 59, 108
5, 199920, Note_on_c, 0, 56, 108
5, 200076, Note_on_c, 0, 56, 0
5, 200076, Note_on_c, 0, 59, 0
5, 200076, Note_on_c, 0, 62, 0
5, 200880, Note_on_c, 0, 62, 111
5, 200880, Note_on_c, 0, 65, 111
5, 200880, Note_on_c, 0, 59, 111
5, 201036, Note_on_c, 0, 59, 0
5, 201036, Note_on_c, 0, 65, 0
5, 201036, Note_on_c, 0, 62, 0
5, 201840, Note_on_c, 0, 68, 113
5, 201840, Note_on_c, 0, 62, 113
5, 201840, Note_on_c, 0, 65, 113
5, 201996, Note_on_c, 0, 65, 0
5, 201996, Note_on_c, 0, 62, 0
5, 201996, Note_on_c, 0, 68, 0
5, 202800, Note_on_c, 0, 60, 82
5, 202800, Note_on_c, 0, 69, 82
5, 202800, Note_on_c, 0, 65, 82
5, 202956, Note_on_c, 0, 65, 0
5, 202956, Note_on_c, 0, 69, 0
5, 202956, Note_on_c, 0, 60, 0
5, 203760, Note_on_c, 0, 58, 75
5, 203760, Note_on_c, 0, 48, 75
5, 203760, Note_on_c, 0, 55, 75
5, 203916, Note_on_c, 0, 55, 0
5, 203916, Note_on_c, 0, 48, 0
5, 203916, Note_on_c, 0, 58, 0
5, 204720, Note_on_c, 0, 57, 69
5, 204720, Note_on_c, 0, 48, 69
5, 204720, Note_on_c, 0, 53, 69
5, 204876, Note_on_c, 0, 53, 0
5, 204876, Note_on_c, 0, 48, 0
5, 204876, Note_on_c, 0, 57, 0
5, 205680, Note_on_c, 0, 36, 63
5, 205680, Note_on_c, 0, 46, 63
5, 205680, Note_on_c, 0, 43, 63
5, 205836, Note_on_c, 0, 43, 0
5, 205836, Note_on_c, 0, 46, 0
5, 205836, Note_on_c, 0, 36, 0
5, 205920, Note_on_c, 0, 45, 60
5, 205920, Note_on_c, 0, 41, 60
5, 205920, Note_on_c, 0, 48, 60
5, 205920, Note_on_c, 0, 29, 60
5, 206400, Note_on_c, 0, 29, 0
5, 206400, Note_on_c, 0, 45, 0
5, 206400, Note_on_c, 0, 41, 0
5, 206400, Note_on_c, 0, 48, 0
5, 206400, Note_on_c, 0, 34, 60
5, 206400, Note_on_c, 0, 46, 60
5, 206400, Note_on_c, 0, 50, 60
5, 206400, Note_on_c, 0, 41, 60
5, 206880, Note_on_c, 0, 41, 0
5, 206880, Note_on_c, 0, 34, 0
5, 206880, Note_on_c, 0, 46, 0
5, 206880, Note_on_c, 0, 50, 0
5, 206880, Note_on_c, 0, 29, 61
5, 206880, Note_on_c, 0, 41, 61
5, 207120, Note_on_c, 0, 41, 0
5, 207120, Note_on_c, 0, 29, 0
5, 207840, Note_on_c, 0, 60, 63
5, 207840, Note_on_c, 0, 56, 63
5, 207840, Note_on_c, 0, 53, 63
5, 208320, Note_on_c, 0, 53, 0
5, 208320, Note_on_c, 0, 56, 0
5, 208320, Note_on_c, 0, 60, 0
5, 208320, Note_on_c, 0, 61, 63
5, 208320, Note_on_c, 0, 58, 63
5, 208320, Note_on_c, 0, 46, 63
5, 208800, Note_on_c, 0, 46, 0
5, 208800, Note_on_c, 0, 58, 0
5, 208800, Note_on_c, 0, 61, 0
5, 208800, Note_on_c, 0, 60, 64
5, 208800, Note_on_c, 0, 56, 64
5, 208800, Note_on_c, 0, 53, 64
5, 209040, Note_on_c, 0, 53, 0
5, 209040, Note_on_c, 0, 56, 0
5, 209040, Note_on_c, 0, 60, 0
5, 209760, Note_on_c, 0, 37, 66
5, 209760, Note_on_c, 0, 53, 66
5, 209760, Note_on_c, 0, 49, 66
5, 209760, Note_on_c, 0, 56, 66
5, 210240, Note_on_c, 0, 56, 0
5, 210240, Note_on_c, 0, 37, 0
5, 210240, Note_on_c, 0, 53, 0
5, 210240, Note_on_c, 0, 49, 0
5, 210240, Note_on_c, 0, 58, 66
5, 210240, Note_on_c, 0, 54, 66
5, 210240, Note_on_c, 0, 42, 66
5, 210240, Note_on_c, 0, 49, 66
5, 210720, Note_on_c, 0, 49, 0
5, 210720, Note_on_c, 0, 58, 0
5, 210720, Note_on_c, 0, 54, 0
5, 210720, Note_on_c, 0, 42, 0
5, 210720, Note_on_c, 0, 37, 67
5, 210720, Note_on_c, 0, 49, 67
5, 210960, Note_on_c, 0, 49, 0
5, 210960, Note_on_c, 0, 37, 0
5, 211680, Note_on_c, 0, 68, 69
5, 211680, Note_on_c, 0, 61, 69
5, 211680, Note_on_c, 0, 65, 69
5, 212160, Note_on_c, 0, 65, 0
5, 212160, Note_on_c, 0, 61, 0
5, 212160, Note_on_c, 0, 68, 0
5, 212160, Note_on_c, 0, 66, 69
5, 212160, Note_on_c, 0, 69, 69
5, 212160, Note_on_c, 0, 54, 69
5, 212640, Note_on_c, 0, 54, 0
5, 212640, Note_on_c, 0, 69, 0
5, 212640, Note_on_c, 0, 66, 0
5, 212640, Note_on_c, 0, 68, 70
5, 212640, Note_on_c, 0, 61, 70
5, 212640, Note_on_c, 0, 65, 70
5, 212880, Note_on_c, 0, 65, 0
5, 212880, Note_on_c, 0, 61, 0
5, 212880, Note_on_c, 0, 68, 0
5, 213600, Note_on_c, 0, 52, 72
5, 213600, Note_on_c, 0, 37, 72
5, 213600, Note_on_c, 0, 49, 72
5, 213600, Note_on_c, 0, 56, 72
5, 214080, Note_on_c, 0, 56, 0
5, 214080, Note_on_c, 0, 52, 0
5, 214080, Note_on_c, 0, 37, 0
5, 214080, Note_on_c, 0, 49, 0
5, 214080, Note_on_c, 0, 57, 75
5, 214080, Note_on_c, 0, 54, 75
5, 214080, Note_on_c, 0, 42, 75
5, 214080, Note_on_c, 0, 49, 75
5, 214560, Note_on_c, 0, 49, 0
5, 214560, Note_on_c, 0, 57, 0
5, 214560, Note_on_c, 0, 54, 0
5, 214560, Note_on_c, 0, 42, 0
5, 214560, Note_on_c, 0, 37, 78
5, 214560, Note_on_c, 0, 49, 78
5, 214716, Note_on_c, 0, 49, 0
5, 214716, Note_on_c, 0, 37, 0
5, 218400, Note_on_c, 0, 38, 102
5, 218880, Note_on_c, 0, 38, 0
5, 218880, Note_on_c, 0, 38, 105
5, 219360, Note_on_c, 0, 38, 0
5, 219360, Note_on_c, 0, 38, 107
5, 219480, Note_on_c, 0, 38, 0
5, 219480, Note_on_c, 0, 40, 106
5, 219600, Note_on_c, 0, 40, 0
5, 219600, Note_on_c, 0, 42, 105
5, 219720, Note_on_c, 0, 42, 0
5, 219720, Note_on_c, 0, 43, 104
5, 219840, Note_on_c, 0, 43, 0
5, 219840, Note_on_c, 0, 45, 103
5, 219996, Note_on_c, 0, 45, 0
5, 220080, Note_on_c, 0, 38, 100
5, 220236, Note_on_c, 0, 38, 0
5, 220320, Note_on_c, 0, 47, 100
5, 220476, Note_on_c, 0, 47, 0
5, 220560, Note_on_c, 0, 43, 100
5, 220716, Note_on_c, 0, 43, 0
5, 220800, Note_on_c, 0, 49, 101
5, 220956, Note_on_c, 0, 49, 0
5, 221040, Note_on_c, 0, 45, 101
5, 221196, Note_on_c, 0, 45, 0
5, 221280, Note_on_c, 0, 50, 102
5, 221436, Note_on_c, 0, 50, 0
5, 221520, Note_on_c, 0, 47, 103
5, 221676, Note_on_c, 0, 47, 0
5, 221760, Note_on_c, 0, 52, 103
5, 221916, Note_on_c, 0, 52, 0
5, 222000, Note_on_c, 0, 49, 104
5, 222156, Note_on_c, 0, 49, 0
5, 222240, Note_on_c, 0, 54, 104
5, 222396, Note_on_c, 0, 54, 0
5, 222480, Note_on_c, 0, 50, 105
5, 222636, Note_on_c, 0, 50, 0
5, 222720, Note_on_c, 0, 55, 105
5, 222876, Note_on_c, 0, 55, 0
5, 222960, Note_on_c, 0, 52, 106
5, 223116, Note_on_c, 0, 52, 0
5, 223200, Note_on_c, 0, 57, 106
5, 223356, Note_on_c, 0, 57, 0
5, 223440, Note_on_c, 0, 54, 107
5, 223596, Note_on_c, 0, 54, 0
5, 223680, Note_on_c, 0, 59, 108
5, 223836, Note_on_c, 0, 59, 0
5, 223920, Note_on_c, 0, 56, 108
5, 224076, Note_on_c, 0, 56, 0
5, 224160, Note_on_c, 0, 45, 109
5, 224400, Note_on_c, 0, 45, 0
5, 224400, Note_on_c, 0, 45, 109
5, 224640, Note_on_c, 0, 45, 0
5, 224640, Note_on_c, 0, 45, 117
5, 224880, Note_on_c, 0, 45, 0
5, 224880, Note_on_c, 0, 45, 110
5, 225120, Note_on_c, 0, 45, 0
5, 225120, Note_on_c, 0, 45, 118
5, 225360, Note_on_c, 0, 45, 0
5, 225360, Note_on_c, 0, 45, 111
5, 225600, Note_on_c, 0, 45, 0
5, 225600, Note_on_c, 0, 45, 112
5, 225840, Note_on_c, 0, 45, 0
5, 225840, Note_on_c, 0, 45, 113
5, 226080, Note_on_c, 0, 45, 0
5, 226080, Note_on_c, 0, 45, 119
5, 226320, Note_on_c, 0, 45, 0
5, 226320, Note_on_c, 0, 45, 114
5, 226560, Note_on_c, 0, 45, 0
5, 226560, Note_on_c, 0, 45, 114
5, 226800, Note_on_c, 0, 45, 0
5, 226800, Note_on_c, 0, 45, 115
5, 227040, Note_on_c, 0, 45, 0
5, 227040, Note_on_c, 0, 45, 122
5, 227280, Note_on_c, 0, 45, 0
5, 227280, Note_on_c, 0, 45, 116
5, 227520, Note_on_c, 0, 45, 0
5, 227520, Note_on_c, 0, 45, 116
5, 227760, Note_on_c, 0, 45, 0
5, 227760, Note_on_c, 0, 45, 117
5, 228000, Note_on_c, 0, 45, 0
5, 228000, Note_on_c, 0, 45, 125
5, 228240, Note_on_c, 0, 45, 0
5, 228240, Note_on_c, 0, 45, 118
5, 228480, Note_on_c, 0, 45, 0
5, 228480, Note_on_c, 0, 46, 119
5, 228720, Note_on_c, 0, 46, 0
5, 228720, Note_on_c, 0, 46, 119
5, 228960, Note_on_c, 0, 46, 0
5, 228960, Note_on_c, 0, 47, 127
5, 229200, Note_on_c, 0, 47, 0
5, 229200, Note_on_c, 0, 47, 122
5, 229440, Note_on_c, 0, 47, 0
5, 229440, Note_on_c, 0, 43, 123
5, 229680, Note_on_c, 0, 43, 0
5, 229680, Note_on_c, 0, 43, 124
5, 229920, Note_on_c, 0, 43, 0
5, 229920, Note_on_c, 0, 45, 125
5, 230280, Note_on_c, 0, 45, 0
5, 230880, Note_on_c, 0, 33, 127
5, 230880, Note_on_c, 0, 45, 127
5, 231240, Note_on_c, 0, 45, 0
5, 231240, Note_on_c, 0, 33, 0
5, 231840, Note_on_c, 0, 38, 72
5, 232080, Note_on_c, 0, 38, 0
5, 232080, Note_on_c, 0, 38, 73
5, 232320, Note_on_c, 0, 38, 0
5, 232320, Note_on_c, 0, 38, 74
5, 232560, Note_on_c, 0, 38, 0
5, 232560, Note_on_c, 0, 38, 75
5, 232800, Note_on_c, 0, 38, 0
5, 232800, Note_on_c, 0, 38, 76
5, 233040, Note_on_c, 0, 38, 0
5, 233040, Note_on_c, 0, 38, 77
5, 233280, Note_on_c, 0, 38, 0
5, 233280, Note_on_c, 0, 38, 78
5, 233520, Note_on_c, 0, 38, 0
5, 233520, Note_on_c, 0, 38, 78
5, 233760, Note_on_c, 0, 38, 0
5, 233760, Note_on_c, 0, 38, 79
5, 234000, Note_on_c, 0, 38, 0
5, 234000, Note_on_c, 0, 38, 80
5, 234240, Note_on_c, 0, 38, 0
5, 234240, Note_on_c, 0, 38, 83
5, 234480, Note_on_c, 0, 38, 0
5, 234480, Note_on_c, 0, 38, 83
5, 234720, Note_on_c, 0, 38, 0
5, 234720, Note_on_c, 0, 38, 83
5, 234960, Note_on_c, 0, 38, 0
5, 234960, Note_on_c, 0, 38, 82
5, 235200, Note_on_c, 0, 38, 0
5, 235200, Note_on_c, 0, 38, 81
5, 235440, Note_on_c, 0, 38, 0
5, 235440, Note_on_c, 0, 38, 80
5, 235680, Note_on_c, 0, 38, 0
5, 235680, Note_on_c, 0, 38, 80
5, 235800, Note_on_c, 0, 38, 0
5, 235800, Note_on_c, 0, 40, 79
5, 235920, Note_on_c, 0, 40, 0
5, 235920, Note_on_c, 0, 42, 79
5, 236040, Note_on_c, 0, 42, 0
5, 236040, Note_on_c, 0, 43, 78
5, 236160, Note_on_c, 0, 43, 0
5, 236160, Note_on_c, 0, 45, 78
5, 236316, Note_on_c, 0, 45, 0
5, 236400, Note_on_c, 0, 38, 77
5, 236556, Note_on_c, 0, 38, 0
5, 236880, Note_on_c, 0, 45, 75
5, 237036, Note_on_c, 0, 45, 0
5, 237360, Note_on_c, 0, 50, 73
5, 237516, Note_on_c, 0, 50, 0
5, 237840, Note_on_c, 0, 57, 71
5, 237996, Note_on_c, 0, 57, 0
5, 238320, Note_on_c, 0, 62, 69
5, 238476, Note_on_c, 0, 62, 0
5, 238800, Note_on_c, 0, 69, 67
5, 238956, Note_on_c, 0, 69, 0
5, 239280, Note_on_c, 0, 74, 66
5, 239436, Note_on_c, 0, 74, 0
5, 240480, Note_on_c, 0, 57, 61
5, 240636, Note_on_c, 0, 57, 0
5, 241440, Note_on_c, 0, 50, 57
5, 241596, Note_on_c, 0, 50, 0
5, 242400, Note_on_c, 0, 33, 127
5, 242400, Note_on_c, 0, 45, 127
5, 242640, Note_on_c, 0, 45, 0
5, 242640, Note_on_c, 0, 33, 0
5, 243360, Note_on_c, 0, 38, 127
5, 243360, Note_on_c, 0, 50, 127
5, 243600, Note_on_c, 0, 50, 0
5, 243600, Note_on_c, 0, 38, 0
5, 243600, End_track
0, 0, End_of_file
