0, 0, Header, 1, 2, 240
1, 0, Start_track
1, 0, Title_t, "untitled"
1, 0, Time_signature, 3, 3, 12, 8
1, 0, Key_signature, -2, "major"
1, 0, Tempo, 333333
1, 0, Marker_t, "LvB9th_2"
1, 114120, Time_signature, 6, 3, 12, 8
1, 114840, Time_signature, 3, 3, 12, 8
1, 201240, Time_signature, 6, 3, 12, 8
1, 201960, Time_signature, 3, 3, 12, 8
1, 280440, Time_signature, 6, 3, 12, 8
1, 286920, Time_signature, 4, 3, 12, 8
1, 286920, Key_signature, 2, "major"
1, 381960, Time_signature, 3, 3, 12, 8
1, 381960, Key_signature, -2, "major"
1, 442440, Time_signature, 6, 3, 12, 8
1, 443160, Time_signature, 3, 3, 12, 8
1, 529560, Time_signature, 6, 3, 12, 8
1, 530280, Time_signature, 3, 3, 12, 8
1, 608760, Time_signature, 6, 3, 12, 8
1, 609480, Time_signature, 3, 3, 12, 8
1, 764640, Tempo, 240000
1, 1218960, Tempo, 240000
1, 1218960, End_track
2, 0, Start_track
2, 0, Title_t, "Beethoven"
2, 0, Program_c, 0, 0
2, 0, Control_c, 0, 7, 120
2, 0, Control_c, 0, 10, 64
2, 0, Control_c, 0, 91, 105
2, 0, Note_on_c, 0, 86, 117
2, 0, Note_on_c, 0, 74, 117
2, 0, Note_on_c, 0, 62, 117
2, 0, Note_on_c, 0, 50, 117
2, 30, Note_on_c, 0, 50, 0
2, 30, Note_on_c, 0, 86, 0
2, 30, Note_on_c, 0, 74, 0
2, 30, Note_on_c, 0, 62, 0
2, 180, Note_on_c, 0, 62, 117
2, 180, Note_on_c, 0, 50, 117
2, 180, Note_on_c, 0, 38, 117
2, 210, Note_on_c, 0, 38, 0
2, 210, Note_on_c, 0, 50, 0
2, 210, Note_on_c, 0, 62, 0
2, 240, Note_on_c, 0, 62, 117
2, 240, Note_on_c, 0, 50, 117
2, 240, Note_on_c, 0, 38, 117
2, 270, Note_on_c, 0, 38, 0
2, 270, Note_on_c, 0, 50, 0
2, 270, Note_on_c, 0, 62, 0
2, 720, Note_on_c, 0, 81, 117
2, 720, Note_on_c, 0, 69, 117
2, 720, Note_on_c, 0, 57, 117
2, 720, Note_on_c, 0, 45, 117
2, 750, Note_on_c, 0, 45, 0
2, 750, Note_on_c, 0, 81, 0
2, 750, Note_on_c, 0, 69, 0
2, 750, Note_on_c, 0, 57, 0
2, 900, Note_on_c, 0, 57, 117
2, 900, Note_on_c, 0, 45, 117
2, 900, Note_on_c, 0, 33, 117
2, 930, Note_on_c, 0, 33, 0
2, 930, Note_on_c, 0, 45, 0
2, 930, Note_on_c, 0, 57, 0
2, 960, Note_on_c, 0, 57, 117
2, 960, Note_on_c, 0, 45, 117
2, 960, Note_on_c, 0, 33, 117
2, 990, Note_on_c, 0, 33, 0
2, 990, Note_on_c, 0, 45, 0
2, 990, Note_on_c, 0, 57, 0
2, 1440, Note_on_c, 0, 41, 117
2, 1470, Note_on_c, 0, 41, 0
2, 1620, Note_on_c, 0, 29, 117
2, 1650, Note_on_c, 0, 29, 0
2, 1680, Note_on_c, 0, 29, 117
2, 1710, Note_on_c, 0, 29, 0
2, 1800, Note_on_c, 0, 74, 117
2, 1800, Note_on_c, 0, 62, 117
2, 1800, Note_on_c, 0, 50, 117
2, 1800, Note_on_c, 0, 38, 117
2, 1830, Note_on_c, 0, 38, 0
2, 1830, Note_on_c, 0, 74, 0
2, 1830, Note_on_c, 0, 62, 0
2, 1830, Note_on_c, 0, 50, 0
2, 1980, Note_on_c, 0, 50, 117
2, 1980, Note_on_c, 0, 38, 117
2, 1980, Note_on_c, 0, 26, 117
2, 2010, Note_on_c, 0, 26, 0
2, 2010, Note_on_c, 0, 38, 0
2, 2010, Note_on_c, 0, 50, 0
2, 2040, Note_on_c, 0, 50, 117
2, 2040, Note_on_c, 0, 38, 117
2, 2040, Note_on_c, 0, 26, 117
2, 2070, Note_on_c, 0, 26, 0
2, 2070, Note_on_c, 0, 38, 0
2, 2070, Note_on_c, 0, 50, 0
2, 2880, Note_on_c, 0, 81, 53
2, 2910, Note_on_c, 0, 81, 0
2, 3060, Note_on_c, 0, 69, 53
2, 3090, Note_on_c, 0, 69, 0
2, 3120, Note_on_c, 0, 69, 53
2, 3150, Note_on_c, 0, 69, 0
2, 3240, Note_on_c, 0, 74, 53
2, 3270, Note_on_c, 0, 74, 0
2, 3360, Note_on_c, 0, 76, 53
2, 3390, Note_on_c, 0, 76, 0
2, 3480, Note_on_c, 0, 77, 53
2, 3510, Note_on_c, 0, 77, 0
2, 3600, Note_on_c, 0, 76, 53
2, 3630, Note_on_c, 0, 76, 0
2, 3720, Note_on_c, 0, 77, 53
2, 3750, Note_on_c, 0, 77, 0
2, 3840, Note_on_c, 0, 79, 53
2, 3870, Note_on_c, 0, 79, 0
2, 3960, Note_on_c, 0, 77, 53
2, 3990, Note_on_c, 0, 77, 0
2, 4080, Note_on_c, 0, 76, 53
2, 4110, Note_on_c, 0, 76, 0
2, 4200, Note_on_c, 0, 74, 53
2, 4230, Note_on_c, 0, 74, 0
2, 4320, Note_on_c, 0, 77, 53
2, 4320, Note_on_c, 0, 74, 71
2, 4350, Note_on_c, 0, 74, 0
2, 4350, Note_on_c, 0, 77, 0
2, 4440, Note_on_c, 0, 76, 53
2, 4470, Note_on_c, 0, 76, 0
2, 4500, Note_on_c, 0, 62, 71
2, 4530, Note_on_c, 0, 62, 0
2, 4560, Note_on_c, 0, 74, 53
2, 4560, Note_on_c, 0, 62, 71
2, 4590, Note_on_c, 0, 62, 0
2, 4590, Note_on_c, 0, 74, 0
2, 4680, Note_on_c, 0, 72, 53
2, 4680, Note_on_c, 0, 69, 53
2, 4710, Note_on_c, 0, 69, 0
2, 4710, Note_on_c, 0, 72, 0
2, 4800, Note_on_c, 0, 71, 53
2, 4800, Note_on_c, 0, 71, 53
2, 4830, Note_on_c, 0, 71, 0
2, 4830, Note_on_c, 0, 71, 0
2, 4920, Note_on_c, 0, 69, 53
2, 4920, Note_on_c, 0, 72, 53
2, 4950, Note_on_c, 0, 72, 0
2, 4950, Note_on_c, 0, 69, 0
2, 5040, Note_on_c, 0, 68, 53
2, 5040, Note_on_c, 0, 71, 53
2, 5070, Note_on_c, 0, 71, 0
2, 5070, Note_on_c, 0, 68, 0
2, 5160, Note_on_c, 0, 69, 53
2, 5160, Note_on_c, 0, 72, 53
2, 5190, Note_on_c, 0, 72, 0
2, 5190, Note_on_c, 0, 69, 0
2, 5280, Note_on_c, 0, 71, 53
2, 5280, Note_on_c, 0, 74, 53
2, 5310, Note_on_c, 0, 74, 0
2, 5310, Note_on_c, 0, 71, 0
2, 5400, Note_on_c, 0, 69, 53
2, 5400, Note_on_c, 0, 72, 53
2, 5430, Note_on_c, 0, 72, 0
2, 5430, Note_on_c, 0, 69, 0
2, 5520, Note_on_c, 0, 68, 53
2, 5520, Note_on_c, 0, 71, 53
2, 5550, Note_on_c, 0, 71, 0
2, 5550, Note_on_c, 0, 68, 0
2, 5640, Note_on_c, 0, 69, 53
2, 5670, Note_on_c, 0, 69, 0
2, 5760, Note_on_c, 0, 70, 53
2, 5760, Note_on_c, 0, 67, 53
2, 5760, Note_on_c, 0, 69, 71
2, 5790, Note_on_c, 0, 69, 0
2, 5790, Note_on_c, 0, 67, 0
2, 5790, Note_on_c, 0, 70, 0
2, 5880, Note_on_c, 0, 69, 53
2, 5880, Note_on_c, 0, 65, 53
2, 5910, Note_on_c, 0, 65, 0
2, 5910, Note_on_c, 0, 69, 0
2, 5940, Note_on_c, 0, 57, 71
2, 5970, Note_on_c, 0, 57, 0
2, 6000, Note_on_c, 0, 67, 53
2, 6000, Note_on_c, 0, 64, 53
2, 6000, Note_on_c, 0, 57, 71
2, 6030, Note_on_c, 0, 57, 0
2, 6030, Note_on_c, 0, 64, 0
2, 6030, Note_on_c, 0, 67, 0
2, 6120, Note_on_c, 0, 65, 53
2, 6120, Note_on_c, 0, 62, 53
2, 6150, Note_on_c, 0, 62, 0
2, 6150, Note_on_c, 0, 65, 0
2, 6240, Note_on_c, 0, 67, 53
2, 6240, Note_on_c, 0, 64, 53
2, 6270, Note_on_c, 0, 64, 0
2, 6270, Note_on_c, 0, 67, 0
2, 6360, Note_on_c, 0, 69, 53
2, 6360, Note_on_c, 0, 62, 53
2, 6360, Note_on_c, 0, 65, 53
2, 6390, Note_on_c, 0, 65, 0
2, 6390, Note_on_c, 0, 62, 0
2, 6390, Note_on_c, 0, 69, 0
2, 6480, Note_on_c, 0, 69, 53
2, 6480, Note_on_c, 0, 64, 53
2, 6480, Note_on_c, 0, 61, 53
2, 6510, Note_on_c, 0, 61, 0
2, 6510, Note_on_c, 0, 64, 0
2, 6510, Note_on_c, 0, 69, 0
2, 6600, Note_on_c, 0, 69, 53
2, 6600, Note_on_c, 0, 65, 53
2, 6600, Note_on_c, 0, 62, 53
2, 6630, Note_on_c, 0, 62, 0
2, 6630, Note_on_c, 0, 65, 0
2, 6630, Note_on_c, 0, 69, 0
2, 6720, Note_on_c, 0, 69, 53
2, 6720, Note_on_c, 0, 67, 53
2, 6720, Note_on_c, 0, 64, 53
2, 6750, Note_on_c, 0, 64, 0
2, 6750, Note_on_c, 0, 67, 0
2, 6750, Note_on_c, 0, 69, 0
2, 6840, Note_on_c, 0, 69, 53
2, 6840, Note_on_c, 0, 65, 53
2, 6840, Note_on_c, 0, 62, 53
2, 6870, Note_on_c, 0, 62, 0
2, 6870, Note_on_c, 0, 65, 0
2, 6870, Note_on_c, 0, 69, 0
2, 6960, Note_on_c, 0, 69, 53
2, 6960, Note_on_c, 0, 64, 53
2, 6960, Note_on_c, 0, 61, 53
2, 6990, Note_on_c, 0, 61, 0
2, 6990, Note_on_c, 0, 64, 0
2, 6990, Note_on_c, 0, 69, 0
2, 7080, Note_on_c, 0, 81, 53
2, 7080, Note_on_c, 0, 62, 53
2, 7110, Note_on_c, 0, 62, 0
2, 7110, Note_on_c, 0, 81, 0
2, 7200, Note_on_c, 0, 86, 71
2, 7200, Note_on_c, 0, 69, 53
2, 7200, Note_on_c, 0, 65, 53
2, 7230, Note_on_c, 0, 65, 0
2, 7230, Note_on_c, 0, 69, 0
2, 7230, Note_on_c, 0, 86, 0
2, 7320, Note_on_c, 0, 67, 53
2, 7320, Note_on_c, 0, 64, 53
2, 7350, Note_on_c, 0, 64, 0
2, 7350, Note_on_c, 0, 67, 0
2, 7380, Note_on_c, 0, 74, 71
2, 7410, Note_on_c, 0, 74, 0
2, 7440, Note_on_c, 0, 74, 71
2, 7440, Note_on_c, 0, 65, 53
2, 7440, Note_on_c, 0, 62, 53
2, 7470, Note_on_c, 0, 62, 0
2, 7470, Note_on_c, 0, 65, 0
2, 7470, Note_on_c, 0, 74, 0
2, 7560, Note_on_c, 0, 81, 53
2, 7560, Note_on_c, 0, 76, 53
2, 7560, Note_on_c, 0, 64, 53
2, 7560, Note_on_c, 0, 60, 53
2, 7590, Note_on_c, 0, 60, 0
2, 7590, Note_on_c, 0, 81, 0
2, 7590, Note_on_c, 0, 76, 0
2, 7590, Note_on_c, 0, 64, 0
2, 7680, Note_on_c, 0, 83, 53
2, 7680, Note_on_c, 0, 74, 53
2, 7680, Note_on_c, 0, 64, 53
2, 7680, Note_on_c, 0, 59, 53
2, 7710, Note_on_c, 0, 59, 0
2, 7710, Note_on_c, 0, 83, 0
2, 7710, Note_on_c, 0, 74, 0
2, 7710, Note_on_c, 0, 64, 0
2, 7800, Note_on_c, 0, 84, 53
2, 7800, Note_on_c, 0, 72, 53
2, 7800, Note_on_c, 0, 64, 53
2, 7800, Note_on_c, 0, 57, 53
2, 7830, Note_on_c, 0, 57, 0
2, 7830, Note_on_c, 0, 84, 0
2, 7830, Note_on_c, 0, 72, 0
2, 7830, Note_on_c, 0, 64, 0
2, 7920, Note_on_c, 0, 83, 53
2, 7920, Note_on_c, 0, 71, 53
2, 7920, Note_on_c, 0, 64, 53
2, 7920, Note_on_c, 0, 56, 53
2, 7950, Note_on_c, 0, 56, 0
2, 7950, Note_on_c, 0, 83, 0
2, 7950, Note_on_c, 0, 71, 0
2, 7950, Note_on_c, 0, 64, 0
2, 8040, Note_on_c, 0, 84, 53
2, 8040, Note_on_c, 0, 76, 53
2, 8040, Note_on_c, 0, 69, 53
2, 8040, Note_on_c, 0, 57, 53
2, 8070, Note_on_c, 0, 57, 0
2, 8070, Note_on_c, 0, 84, 0
2, 8070, Note_on_c, 0, 76, 0
2, 8070, Note_on_c, 0, 69, 0
2, 8160, Note_on_c, 0, 86, 53
2, 8160, Note_on_c, 0, 76, 53
2, 8160, Note_on_c, 0, 68, 53
2, 8160, Note_on_c, 0, 59, 53
2, 8190, Note_on_c, 0, 59, 0
2, 8190, Note_on_c, 0, 86, 0
2, 8190, Note_on_c, 0, 76, 0
2, 8190, Note_on_c, 0, 68, 0
2, 8280, Note_on_c, 0, 84, 53
2, 8280, Note_on_c, 0, 76, 53
2, 8280, Note_on_c, 0, 69, 53
2, 8280, Note_on_c, 0, 57, 53
2, 8310, Note_on_c, 0, 57, 0
2, 8310, Note_on_c, 0, 84, 0
2, 8310, Note_on_c, 0, 76, 0
2, 8310, Note_on_c, 0, 69, 0
2, 8400, Note_on_c, 0, 83, 53
2, 8400, Note_on_c, 0, 74, 53
2, 8400, Note_on_c, 0, 64, 53
2, 8400, Note_on_c, 0, 56, 53
2, 8430, Note_on_c, 0, 56, 0
2, 8430, Note_on_c, 0, 83, 0
2, 8430, Note_on_c, 0, 74, 0
2, 8430, Note_on_c, 0, 64, 0
2, 8520, Note_on_c, 0, 81, 53
2, 8520, Note_on_c, 0, 72, 53
2, 8520, Note_on_c, 0, 64, 53
2, 8520, Note_on_c, 0, 57, 53
2, 8550, Note_on_c, 0, 57, 0
2, 8550, Note_on_c, 0, 81, 0
2, 8550, Note_on_c, 0, 72, 0
2, 8550, Note_on_c, 0, 64, 0
2, 8640, Note_on_c, 0, 79, 53
2, 8640, Note_on_c, 0, 82, 53
2, 8640, Note_on_c, 0, 73, 53
2, 8640, Note_on_c, 0, 57, 53
2, 8670, Note_on_c, 0, 57, 0
2, 8670, Note_on_c, 0, 79, 0
2, 8670, Note_on_c, 0, 82, 0
2, 8670, Note_on_c, 0, 73, 0
2, 8760, Note_on_c, 0, 77, 53
2, 8760, Note_on_c, 0, 81, 53
2, 8760, Note_on_c, 0, 74, 53
2, 8790, Note_on_c, 0, 74, 0
2, 8790, Note_on_c, 0, 81, 0
2, 8790, Note_on_c, 0, 77, 0
2, 8820, Note_on_c, 0, 45, 53
2, 8850, Note_on_c, 0, 45, 0
2, 8880, Note_on_c, 0, 76, 53
2, 8880, Note_on_c, 0, 79, 53
2, 8880, Note_on_c, 0, 67, 53
2, 8880, Note_on_c, 0, 45, 53
2, 8910, Note_on_c, 0, 45, 0
2, 8910, Note_on_c, 0, 76, 0
2, 8910, Note_on_c, 0, 79, 0
2, 8910, Note_on_c, 0, 67, 0
2, 9000, Note_on_c, 0, 74, 53
2, 9000, Note_on_c, 0, 77, 53
2, 9000, Note_on_c, 0, 65, 53
2, 9000, Note_on_c, 0, 50, 53
2, 9030, Note_on_c, 0, 50, 0
2, 9030, Note_on_c, 0, 74, 0
2, 9030, Note_on_c, 0, 77, 0
2, 9030, Note_on_c, 0, 65, 0
2, 9120, Note_on_c, 0, 73, 53
2, 9120, Note_on_c, 0, 76, 53
2, 9120, Note_on_c, 0, 67, 53
2, 9120, Note_on_c, 0, 57, 53
2, 9120, Note_on_c, 0, 52, 53
2, 9150, Note_on_c, 0, 52, 0
2, 9150, Note_on_c, 0, 67, 0
2, 9150, Note_on_c, 0, 73, 0
2, 9150, Note_on_c, 0, 76, 0
2, 9150, Note_on_c, 0, 57, 0
2, 9240, Note_on_c, 0, 74, 53
2, 9240, Note_on_c, 0, 69, 53
2, 9240, Note_on_c, 0, 57, 53
2, 9240, Note_on_c, 0, 53, 53
2, 9270, Note_on_c, 0, 53, 0
2, 9270, Note_on_c, 0, 74, 0
2, 9270, Note_on_c, 0, 69, 0
2, 9270, Note_on_c, 0, 57, 0
2, 9360, Note_on_c, 0, 69, 53
2, 9360, Note_on_c, 0, 73, 53
2, 9360, Note_on_c, 0, 67, 53
2, 9360, Note_on_c, 0, 57, 53
2, 9360, Note_on_c, 0, 52, 53
2, 9390, Note_on_c, 0, 52, 0
2, 9390, Note_on_c, 0, 67, 0
2, 9390, Note_on_c, 0, 69, 0
2, 9390, Note_on_c, 0, 73, 0
2, 9390, Note_on_c, 0, 57, 0
2, 9480, Note_on_c, 0, 69, 53
2, 9480, Note_on_c, 0, 74, 53
2, 9480, Note_on_c, 0, 65, 53
2, 9480, Note_on_c, 0, 57, 53
2, 9480, Note_on_c, 0, 53, 53
2, 9510, Note_on_c, 0, 53, 0
2, 9510, Note_on_c, 0, 65, 0
2, 9510, Note_on_c, 0, 69, 0
2, 9510, Note_on_c, 0, 74, 0
2, 9510, Note_on_c, 0, 57, 0
2, 9600, Note_on_c, 0, 69, 53
2, 9600, Note_on_c, 0, 76, 53
2, 9600, Note_on_c, 0, 64, 53
2, 9600, Note_on_c, 0, 57, 53
2, 9600, Note_on_c, 0, 55, 53
2, 9630, Note_on_c, 0, 55, 0
2, 9630, Note_on_c, 0, 64, 0
2, 9630, Note_on_c, 0, 69, 0
2, 9630, Note_on_c, 0, 76, 0
2, 9630, Note_on_c, 0, 57, 0
2, 9720, Note_on_c, 0, 69, 53
2, 9720, Note_on_c, 0, 74, 53
2, 9720, Note_on_c, 0, 62, 53
2, 9720, Note_on_c, 0, 57, 53
2, 9720, Note_on_c, 0, 53, 53
2, 9750, Note_on_c, 0, 53, 0
2, 9750, Note_on_c, 0, 62, 0
2, 9750, Note_on_c, 0, 69, 0
2, 9750, Note_on_c, 0, 74, 0
2, 9750, Note_on_c, 0, 57, 0
2, 9840, Note_on_c, 0, 69, 53
2, 9840, Note_on_c, 0, 73, 53
2, 9840, Note_on_c, 0, 67, 53
2, 9840, Note_on_c, 0, 57, 53
2, 9840, Note_on_c, 0, 52, 53
2, 9870, Note_on_c, 0, 52, 0
2, 9870, Note_on_c, 0, 67, 0
2, 9870, Note_on_c, 0, 69, 0
2, 9870, Note_on_c, 0, 73, 0
2, 9870, Note_on_c, 0, 57, 0
2, 9960, Note_on_c, 0, 69, 53
2, 9960, Note_on_c, 0, 74, 53
2, 9960, Note_on_c, 0, 65, 53
2, 9960, Note_on_c, 0, 57, 53
2, 9960, Note_on_c, 0, 50, 53
2, 9990, Note_on_c, 0, 50, 0
2, 9990, Note_on_c, 0, 65, 0
2, 9990, Note_on_c, 0, 69, 0
2, 9990, Note_on_c, 0, 74, 0
2, 9990, Note_on_c, 0, 57, 0
2, 10080, Note_on_c, 0, 81, 53
2, 10080, Note_on_c, 0, 69, 53
2, 10080, Note_on_c, 0, 57, 53
2, 10080, Note_on_c, 0, 53, 53
2, 10110, Note_on_c, 0, 53, 0
2, 10110, Note_on_c, 0, 81, 0
2, 10110, Note_on_c, 0, 69, 0
2, 10110, Note_on_c, 0, 57, 0
2, 10200, Note_on_c, 0, 79, 53
2, 10200, Note_on_c, 0, 81, 53
2, 10200, Note_on_c, 0, 69, 53
2, 10200, Note_on_c, 0, 57, 53
2, 10200, Note_on_c, 0, 52, 53
2, 10230, Note_on_c, 0, 52, 0
2, 10230, Note_on_c, 0, 69, 0
2, 10230, Note_on_c, 0, 79, 0
2, 10230, Note_on_c, 0, 81, 0
2, 10230, Note_on_c, 0, 57, 0
2, 10320, Note_on_c, 0, 77, 53
2, 10320, Note_on_c, 0, 81, 53
2, 10320, Note_on_c, 0, 69, 53
2, 10320, Note_on_c, 0, 57, 53
2, 10320, Note_on_c, 0, 50, 53
2, 10350, Note_on_c, 0, 50, 0
2, 10350, Note_on_c, 0, 69, 0
2, 10350, Note_on_c, 0, 77, 0
2, 10350, Note_on_c, 0, 81, 0
2, 10350, Note_on_c, 0, 57, 0
2, 10440, Note_on_c, 0, 76, 53
2, 10440, Note_on_c, 0, 81, 53
2, 10440, Note_on_c, 0, 69, 53
2, 10440, Note_on_c, 0, 52, 53
2, 10440, Note_on_c, 0, 48, 53
2, 10470, Note_on_c, 0, 48, 0
2, 10470, Note_on_c, 0, 69, 0
2, 10470, Note_on_c, 0, 76, 0
2, 10470, Note_on_c, 0, 81, 0
2, 10470, Note_on_c, 0, 52, 0
2, 10560, Note_on_c, 0, 80, 53
2, 10560, Note_on_c, 0, 88, 53
2, 10560, Note_on_c, 0, 76, 53
2, 10560, Note_on_c, 0, 50, 53
2, 10560, Note_on_c, 0, 47, 53
2, 10590, Note_on_c, 0, 47, 0
2, 10590, Note_on_c, 0, 76, 0
2, 10590, Note_on_c, 0, 80, 0
2, 10590, Note_on_c, 0, 88, 0
2, 10590, Note_on_c, 0, 50, 0
2, 10680, Note_on_c, 0, 81, 53
2, 10680, Note_on_c, 0, 88, 53
2, 10680, Note_on_c, 0, 76, 53
2, 10680, Note_on_c, 0, 48, 53
2, 10680, Note_on_c, 0, 45, 53
2, 10710, Note_on_c, 0, 45, 0
2, 10710, Note_on_c, 0, 76, 0
2, 10710, Note_on_c, 0, 81, 0
2, 10710, Note_on_c, 0, 88, 0
2, 10710, Note_on_c, 0, 48, 0
2, 10800, Note_on_c, 0, 83, 53
2, 10800, Note_on_c, 0, 88, 53
2, 10800, Note_on_c, 0, 76, 53
2, 10800, Note_on_c, 0, 50, 53
2, 10800, Note_on_c, 0, 44, 53
2, 10830, Note_on_c, 0, 44, 0
2, 10830, Note_on_c, 0, 76, 0
2, 10830, Note_on_c, 0, 83, 0
2, 10830, Note_on_c, 0, 88, 0
2, 10830, Note_on_c, 0, 50, 0
2, 10920, Note_on_c, 0, 84, 53
2, 10920, Note_on_c, 0, 88, 53
2, 10920, Note_on_c, 0, 76, 53
2, 10920, Note_on_c, 0, 48, 53
2, 10920, Note_on_c, 0, 45, 53
2, 10950, Note_on_c, 0, 45, 0
2, 10950, Note_on_c, 0, 76, 0
2, 10950, Note_on_c, 0, 84, 0
2, 10950, Note_on_c, 0, 88, 0
2, 10950, Note_on_c, 0, 48, 0
2, 11040, Note_on_c, 0, 86, 53
2, 11040, Note_on_c, 0, 88, 53
2, 11040, Note_on_c, 0, 76, 53
2, 11040, Note_on_c, 0, 47, 53
2, 11070, Note_on_c, 0, 47, 0
2, 11070, Note_on_c, 0, 86, 0
2, 11070, Note_on_c, 0, 88, 0
2, 11070, Note_on_c, 0, 76, 0
2, 11160, Note_on_c, 0, 84, 53
2, 11160, Note_on_c, 0, 88, 53
2, 11160, Note_on_c, 0, 76, 53
2, 11160, Note_on_c, 0, 45, 53
2, 11190, Note_on_c, 0, 45, 0
2, 11190, Note_on_c, 0, 84, 0
2, 11190, Note_on_c, 0, 88, 0
2, 11190, Note_on_c, 0, 76, 0
2, 11280, Note_on_c, 0, 83, 53
2, 11280, Note_on_c, 0, 88, 53
2, 11280, Note_on_c, 0, 76, 53
2, 11280, Note_on_c, 0, 62, 53
2, 11280, Note_on_c, 0, 56, 53
2, 11310, Note_on_c, 0, 56, 0
2, 11310, Note_on_c, 0, 76, 0
2, 11310, Note_on_c, 0, 83, 0
2, 11310, Note_on_c, 0, 88, 0
2, 11310, Note_on_c, 0, 62, 0
2, 11400, Note_on_c, 0, 81, 53
2, 11400, Note_on_c, 0, 69, 53
2, 11400, Note_on_c, 0, 60, 53
2, 11400, Note_on_c, 0, 57, 53
2, 11430, Note_on_c, 0, 57, 0
2, 11430, Note_on_c, 0, 81, 0
2, 11430, Note_on_c, 0, 69, 0
2, 11430, Note_on_c, 0, 60, 0
2, 11520, Note_on_c, 0, 73, 53
2, 11520, Note_on_c, 0, 81, 53
2, 11520, Note_on_c, 0, 69, 53
2, 11520, Note_on_c, 0, 58, 53
2, 11520, Note_on_c, 0, 55, 53
2, 11550, Note_on_c, 0, 55, 0
2, 11550, Note_on_c, 0, 69, 0
2, 11550, Note_on_c, 0, 73, 0
2, 11550, Note_on_c, 0, 81, 0
2, 11550, Note_on_c, 0, 58, 0
2, 11640, Note_on_c, 0, 74, 53
2, 11640, Note_on_c, 0, 81, 53
2, 11640, Note_on_c, 0, 69, 53
2, 11640, Note_on_c, 0, 57, 53
2, 11640, Note_on_c, 0, 53, 53
2, 11670, Note_on_c, 0, 53, 0
2, 11670, Note_on_c, 0, 69, 0
2, 11670, Note_on_c, 0, 74, 0
2, 11670, Note_on_c, 0, 81, 0
2, 11670, Note_on_c, 0, 57, 0
2, 11760, Note_on_c, 0, 76, 53
2, 11760, Note_on_c, 0, 81, 53
2, 11760, Note_on_c, 0, 69, 53
2, 11760, Note_on_c, 0, 55, 53
2, 11760, Note_on_c, 0, 52, 53
2, 11790, Note_on_c, 0, 52, 0
2, 11790, Note_on_c, 0, 69, 0
2, 11790, Note_on_c, 0, 76, 0
2, 11790, Note_on_c, 0, 81, 0
2, 11790, Note_on_c, 0, 55, 0
2, 11880, Note_on_c, 0, 74, 53
2, 11880, Note_on_c, 0, 81, 53
2, 11880, Note_on_c, 0, 69, 53
2, 11880, Note_on_c, 0, 57, 53
2, 11880, Note_on_c, 0, 53, 53
2, 11910, Note_on_c, 0, 53, 0
2, 11910, Note_on_c, 0, 69, 0
2, 11910, Note_on_c, 0, 74, 0
2, 11910, Note_on_c, 0, 81, 0
2, 11910, Note_on_c, 0, 57, 0
2, 12000, Note_on_c, 0, 81, 53
2, 12000, Note_on_c, 0, 69, 53
2, 12000, Note_on_c, 0, 55, 53
2, 12000, Note_on_c, 0, 52, 53
2, 12030, Note_on_c, 0, 52, 0
2, 12030, Note_on_c, 0, 81, 0
2, 12030, Note_on_c, 0, 69, 0
2, 12030, Note_on_c, 0, 55, 0
2, 12120, Note_on_c, 0, 81, 53
2, 12120, Note_on_c, 0, 69, 53
2, 12120, Note_on_c, 0, 53, 53
2, 12120, Note_on_c, 0, 50, 53
2, 12150, Note_on_c, 0, 50, 0
2, 12150, Note_on_c, 0, 81, 0
2, 12150, Note_on_c, 0, 69, 0
2, 12150, Note_on_c, 0, 53, 0
2, 12240, Note_on_c, 0, 82, 53
2, 12240, Note_on_c, 0, 69, 53
2, 12240, Note_on_c, 0, 49, 53
2, 12240, Note_on_c, 0, 52, 53
2, 12240, Note_on_c, 0, 45, 53
2, 12270, Note_on_c, 0, 45, 0
2, 12270, Note_on_c, 0, 49, 0
2, 12270, Note_on_c, 0, 82, 0
2, 12270, Note_on_c, 0, 69, 0
2, 12270, Note_on_c, 0, 52, 0
2, 12360, Note_on_c, 0, 81, 53
2, 12360, Note_on_c, 0, 69, 53
2, 12360, Note_on_c, 0, 50, 53
2, 12360, Note_on_c, 0, 53, 53
2, 12360, Note_on_c, 0, 45, 53
2, 12390, Note_on_c, 0, 45, 0
2, 12390, Note_on_c, 0, 50, 0
2, 12390, Note_on_c, 0, 81, 0
2, 12390, Note_on_c, 0, 69, 0
2, 12390, Note_on_c, 0, 53, 0
2, 12480, Note_on_c, 0, 79, 53
2, 12480, Note_on_c, 0, 69, 53
2, 12480, Note_on_c, 0, 52, 53
2, 12480, Note_on_c, 0, 55, 53
2, 12480, Note_on_c, 0, 45, 53
2, 12510, Note_on_c, 0, 45, 0
2, 12510, Note_on_c, 0, 52, 0
2, 12510, Note_on_c, 0, 79, 0
2, 12510, Note_on_c, 0, 69, 0
2, 12510, Note_on_c, 0, 55, 0
2, 12600, Note_on_c, 0, 77, 53
2, 12600, Note_on_c, 0, 69, 53
2, 12600, Note_on_c, 0, 50, 53
2, 12600, Note_on_c, 0, 57, 53
2, 12600, Note_on_c, 0, 45, 53
2, 12630, Note_on_c, 0, 45, 0
2, 12630, Note_on_c, 0, 50, 0
2, 12630, Note_on_c, 0, 77, 0
2, 12630, Note_on_c, 0, 69, 0
2, 12630, Note_on_c, 0, 57, 0
2, 12720, Note_on_c, 0, 76, 53
2, 12720, Note_on_c, 0, 69, 53
2, 12720, Note_on_c, 0, 49, 53
2, 12720, Note_on_c, 0, 57, 53
2, 12720, Note_on_c, 0, 45, 53
2, 12750, Note_on_c, 0, 45, 0
2, 12750, Note_on_c, 0, 49, 0
2, 12750, Note_on_c, 0, 76, 0
2, 12750, Note_on_c, 0, 69, 0
2, 12750, Note_on_c, 0, 57, 0
2, 12840, Note_on_c, 0, 74, 53
2, 12840, Note_on_c, 0, 69, 53
2, 12840, Note_on_c, 0, 50, 53
2, 12840, Note_on_c, 0, 57, 53
2, 12840, Note_on_c, 0, 45, 53
2, 12870, Note_on_c, 0, 45, 0
2, 12870, Note_on_c, 0, 50, 0
2, 12870, Note_on_c, 0, 74, 0
2, 12870, Note_on_c, 0, 69, 0
2, 12870, Note_on_c, 0, 57, 0
2, 12960, Note_on_c, 0, 74, 53
2, 12960, Note_on_c, 0, 77, 53
2, 12960, Note_on_c, 0, 68, 53
2, 12960, Note_on_c, 0, 47, 53
2, 12960, Note_on_c, 0, 45, 53
2, 12990, Note_on_c, 0, 45, 0
2, 12990, Note_on_c, 0, 68, 0
2, 12990, Note_on_c, 0, 74, 0
2, 12990, Note_on_c, 0, 77, 0
2, 12990, Note_on_c, 0, 47, 0
2, 13080, Note_on_c, 0, 72, 53
2, 13080, Note_on_c, 0, 76, 53
2, 13080, Note_on_c, 0, 69, 53
2, 13080, Note_on_c, 0, 48, 53
2, 13080, Note_on_c, 0, 45, 53
2, 13110, Note_on_c, 0, 45, 0
2, 13110, Note_on_c, 0, 69, 0
2, 13110, Note_on_c, 0, 72, 0
2, 13110, Note_on_c, 0, 76, 0
2, 13110, Note_on_c, 0, 48, 0
2, 13200, Note_on_c, 0, 71, 53
2, 13200, Note_on_c, 0, 74, 53
2, 13200, Note_on_c, 0, 68, 53
2, 13200, Note_on_c, 0, 53, 53
2, 13200, Note_on_c, 0, 45, 53
2, 13230, Note_on_c, 0, 45, 0
2, 13230, Note_on_c, 0, 68, 0
2, 13230, Note_on_c, 0, 71, 0
2, 13230, Note_on_c, 0, 74, 0
2, 13230, Note_on_c, 0, 53, 0
2, 13320, Note_on_c, 0, 69, 53
2, 13320, Note_on_c, 0, 72, 53
2, 13320, Note_on_c, 0, 60, 53
2, 13320, Note_on_c, 0, 52, 53
2, 13320, Note_on_c, 0, 45, 53
2, 13350, Note_on_c, 0, 45, 0
2, 13350, Note_on_c, 0, 60, 0
2, 13350, Note_on_c, 0, 69, 0
2, 13350, Note_on_c, 0, 72, 0
2, 13350, Note_on_c, 0, 52, 0
2, 13440, Note_on_c, 0, 68, 53
2, 13440, Note_on_c, 0, 71, 53
2, 13440, Note_on_c, 0, 62, 53
2, 13440, Note_on_c, 0, 53, 53
2, 13440, Note_on_c, 0, 45, 53
2, 13470, Note_on_c, 0, 45, 0
2, 13470, Note_on_c, 0, 62, 0
2, 13470, Note_on_c, 0, 68, 0
2, 13470, Note_on_c, 0, 71, 0
2, 13470, Note_on_c, 0, 53, 0
2, 13560, Note_on_c, 0, 64, 53
2, 13560, Note_on_c, 0, 69, 53
2, 13560, Note_on_c, 0, 60, 53
2, 13560, Note_on_c, 0, 52, 53
2, 13560, Note_on_c, 0, 45, 53
2, 13590, Note_on_c, 0, 45, 0
2, 13590, Note_on_c, 0, 60, 0
2, 13590, Note_on_c, 0, 64, 0
2, 13590, Note_on_c, 0, 69, 0
2, 13590, Note_on_c, 0, 52, 0
2, 13680, Note_on_c, 0, 65, 53
2, 13680, Note_on_c, 0, 68, 53
2, 13680, Note_on_c, 0, 59, 53
2, 13680, Note_on_c, 0, 50, 53
2, 13680, Note_on_c, 0, 45, 53
2, 13710, Note_on_c, 0, 45, 0
2, 13710, Note_on_c, 0, 59, 0
2, 13710, Note_on_c, 0, 65, 0
2, 13710, Note_on_c, 0, 68, 0
2, 13710, Note_on_c, 0, 50, 0
2, 13800, Note_on_c, 0, 64, 53
2, 13800, Note_on_c, 0, 69, 53
2, 13800, Note_on_c, 0, 60, 53
2, 13800, Note_on_c, 0, 52, 53
2, 13800, Note_on_c, 0, 45, 53
2, 13830, Note_on_c, 0, 45, 0
2, 13830, Note_on_c, 0, 60, 0
2, 13830, Note_on_c, 0, 64, 0
2, 13830, Note_on_c, 0, 69, 0
2, 13830, Note_on_c, 0, 52, 0
2, 13920, Note_on_c, 0, 71, 53
2, 13920, Note_on_c, 0, 62, 53
2, 13920, Note_on_c, 0, 53, 53
2, 13920, Note_on_c, 0, 56, 53
2, 13920, Note_on_c, 0, 45, 53
2, 13950, Note_on_c, 0, 45, 0
2, 13950, Note_on_c, 0, 53, 0
2, 13950, Note_on_c, 0, 71, 0
2, 13950, Note_on_c, 0, 62, 0
2, 13950, Note_on_c, 0, 56, 0
2, 14040, Note_on_c, 0, 64, 53
2, 14040, Note_on_c, 0, 69, 53
2, 14040, Note_on_c, 0, 60, 53
2, 14040, Note_on_c, 0, 52, 53
2, 14040, Note_on_c, 0, 45, 53
2, 14070, Note_on_c, 0, 45, 0
2, 14070, Note_on_c, 0, 60, 0
2, 14070, Note_on_c, 0, 64, 0
2, 14070, Note_on_c, 0, 69, 0
2, 14070, Note_on_c, 0, 52, 0
2, 14160, Note_on_c, 0, 62, 53
2, 14160, Note_on_c, 0, 68, 53
2, 14160, Note_on_c, 0, 59, 53
2, 14160, Note_on_c, 0, 53, 53
2, 14160, Note_on_c, 0, 45, 53
2, 14190, Note_on_c, 0, 45, 0
2, 14190, Note_on_c, 0, 59, 0
2, 14190, Note_on_c, 0, 62, 0
2, 14190, Note_on_c, 0, 68, 0
2, 14190, Note_on_c, 0, 53, 0
2, 14280, Note_on_c, 0, 69, 53
2, 14280, Note_on_c, 0, 60, 53
2, 14280, Note_on_c, 0, 52, 53
2, 14280, Note_on_c, 0, 57, 53
2, 14280, Note_on_c, 0, 45, 53
2, 14310, Note_on_c, 0, 45, 0
2, 14310, Note_on_c, 0, 52, 0
2, 14310, Note_on_c, 0, 69, 0
2, 14310, Note_on_c, 0, 60, 0
2, 14310, Note_on_c, 0, 57, 0
2, 14400, Note_on_c, 0, 70, 53
2, 14400, Note_on_c, 0, 73, 53
2, 14400, Note_on_c, 0, 64, 53
2, 14400, Note_on_c, 0, 55, 53
2, 14400, Note_on_c, 0, 45, 53
2, 14430, Note_on_c, 0, 45, 0
2, 14430, Note_on_c, 0, 64, 0
2, 14430, Note_on_c, 0, 70, 0
2, 14430, Note_on_c, 0, 73, 0
2, 14430, Note_on_c, 0, 55, 0
2, 14520, Note_on_c, 0, 74, 53
2, 14520, Note_on_c, 0, 69, 53
2, 14520, Note_on_c, 0, 53, 53
2, 14520, Note_on_c, 0, 45, 53
2, 14550, Note_on_c, 0, 45, 0
2, 14550, Note_on_c, 0, 74, 0
2, 14550, Note_on_c, 0, 69, 0
2, 14550, Note_on_c, 0, 53, 0
2, 14640, Note_on_c, 0, 76, 53
2, 14640, Note_on_c, 0, 67, 53
2, 14640, Note_on_c, 0, 52, 53
2, 14640, Note_on_c, 0, 45, 53
2, 14670, Note_on_c, 0, 45, 0
2, 14670, Note_on_c, 0, 76, 0
2, 14670, Note_on_c, 0, 67, 0
2, 14670, Note_on_c, 0, 52, 0
2, 14760, Note_on_c, 0, 77, 53
2, 14760, Note_on_c, 0, 65, 53
2, 14760, Note_on_c, 0, 50, 53
2, 14760, Note_on_c, 0, 57, 53
2, 14760, Note_on_c, 0, 45, 53
2, 14790, Note_on_c, 0, 45, 0
2, 14790, Note_on_c, 0, 50, 0
2, 14790, Note_on_c, 0, 77, 0
2, 14790, Note_on_c, 0, 65, 0
2, 14790, Note_on_c, 0, 57, 0
2, 14880, Note_on_c, 0, 76, 53
2, 14880, Note_on_c, 0, 79, 53
2, 14880, Note_on_c, 0, 67, 53
2, 14880, Note_on_c, 0, 52, 53
2, 14880, Note_on_c, 0, 55, 53
2, 14880, Note_on_c, 0, 45, 53
2, 14910, Note_on_c, 0, 45, 0
2, 14910, Note_on_c, 0, 79, 0
2, 14910, Note_on_c, 0, 67, 0
2, 14910, Note_on_c, 0, 76, 0
2, 14910, Note_on_c, 0, 55, 0
2, 14910, Note_on_c, 0, 52, 0
2, 15000, Note_on_c, 0, 74, 53
2, 15000, Note_on_c, 0, 81, 53
2, 15000, Note_on_c, 0, 69, 53
2, 15000, Note_on_c, 0, 53, 53
2, 15000, Note_on_c, 0, 45, 53
2, 15030, Note_on_c, 0, 45, 0
2, 15030, Note_on_c, 0, 69, 0
2, 15030, Note_on_c, 0, 74, 0
2, 15030, Note_on_c, 0, 81, 0
2, 15030, Note_on_c, 0, 53, 0
2, 15120, Note_on_c, 0, 73, 53
2, 15120, Note_on_c, 0, 82, 53
2, 15120, Note_on_c, 0, 70, 53
2, 15120, Note_on_c, 0, 52, 53
2, 15120, Note_on_c, 0, 55, 53
2, 15120, Note_on_c, 0, 45, 53
2, 15150, Note_on_c, 0, 45, 0
2, 15150, Note_on_c, 0, 82, 0
2, 15150, Note_on_c, 0, 70, 0
2, 15150, Note_on_c, 0, 73, 0
2, 15150, Note_on_c, 0, 55, 0
2, 15150, Note_on_c, 0, 52, 0
2, 15240, Note_on_c, 0, 74, 53
2, 15240, Note_on_c, 0, 81, 53
2, 15240, Note_on_c, 0, 69, 53
2, 15240, Note_on_c, 0, 57, 53
2, 15240, Note_on_c, 0, 53, 53
2, 15270, Note_on_c, 0, 53, 0
2, 15270, Note_on_c, 0, 69, 0
2, 15270, Note_on_c, 0, 74, 0
2, 15270, Note_on_c, 0, 81, 0
2, 15270, Note_on_c, 0, 57, 0
2, 15360, Note_on_c, 0, 76, 53
2, 15360, Note_on_c, 0, 79, 53
2, 15360, Note_on_c, 0, 67, 53
2, 15360, Note_on_c, 0, 58, 53
2, 15360, Note_on_c, 0, 55, 53
2, 15390, Note_on_c, 0, 55, 0
2, 15390, Note_on_c, 0, 67, 0
2, 15390, Note_on_c, 0, 76, 0
2, 15390, Note_on_c, 0, 79, 0
2, 15390, Note_on_c, 0, 58, 0
2, 15480, Note_on_c, 0, 74, 53
2, 15480, Note_on_c, 0, 77, 53
2, 15480, Note_on_c, 0, 65, 53
2, 15480, Note_on_c, 0, 57, 53
2, 15480, Note_on_c, 0, 45, 53
2, 15510, Note_on_c, 0, 45, 0
2, 15510, Note_on_c, 0, 65, 0
2, 15510, Note_on_c, 0, 74, 0
2, 15510, Note_on_c, 0, 77, 0
2, 15510, Note_on_c, 0, 57, 0
2, 15600, Note_on_c, 0, 73, 53
2, 15600, Note_on_c, 0, 76, 53
2, 15600, Note_on_c, 0, 64, 53
2, 15600, Note_on_c, 0, 58, 53
2, 15600, Note_on_c, 0, 55, 53
2, 15630, Note_on_c, 0, 55, 0
2, 15630, Note_on_c, 0, 64, 0
2, 15630, Note_on_c, 0, 73, 0
2, 15630, Note_on_c, 0, 76, 0
2, 15630, Note_on_c, 0, 58, 0
2, 15720, Note_on_c, 0, 74, 53
2, 15720, Note_on_c, 0, 62, 53
2, 15720, Note_on_c, 0, 57, 53
2, 15720, Note_on_c, 0, 53, 53
2, 15750, Note_on_c, 0, 53, 0
2, 15750, Note_on_c, 0, 74, 0
2, 15750, Note_on_c, 0, 62, 0
2, 15750, Note_on_c, 0, 57, 0
2, 15840, Note_on_c, 0, 73, 54
2, 15840, Note_on_c, 0, 64, 54
2, 15840, Note_on_c, 0, 55, 54
2, 15840, Note_on_c, 0, 58, 54
2, 15840, Note_on_c, 0, 45, 54
2, 15870, Note_on_c, 0, 45, 0
2, 15870, Note_on_c, 0, 55, 0
2, 15870, Note_on_c, 0, 73, 0
2, 15870, Note_on_c, 0, 64, 0
2, 15870, Note_on_c, 0, 58, 0
2, 15960, Note_on_c, 0, 74, 56
2, 15960, Note_on_c, 0, 65, 56
2, 15960, Note_on_c, 0, 57, 56
2, 15960, Note_on_c, 0, 53, 56
2, 15990, Note_on_c, 0, 53, 0
2, 15990, Note_on_c, 0, 74, 0
2, 15990, Note_on_c, 0, 65, 0
2, 15990, Note_on_c, 0, 57, 0
2, 16080, Note_on_c, 0, 76, 57
2, 16080, Note_on_c, 0, 67, 57
2, 16080, Note_on_c, 0, 55, 57
2, 16080, Note_on_c, 0, 52, 57
2, 16110, Note_on_c, 0, 52, 0
2, 16110, Note_on_c, 0, 76, 0
2, 16110, Note_on_c, 0, 67, 0
2, 16110, Note_on_c, 0, 55, 0
2, 16200, Note_on_c, 0, 74, 59
2, 16200, Note_on_c, 0, 65, 59
2, 16200, Note_on_c, 0, 53, 59
2, 16200, Note_on_c, 0, 57, 59
2, 16200, Note_on_c, 0, 45, 59
2, 16230, Note_on_c, 0, 45, 0
2, 16230, Note_on_c, 0, 53, 0
2, 16230, Note_on_c, 0, 74, 0
2, 16230, Note_on_c, 0, 65, 0
2, 16230, Note_on_c, 0, 57, 0
2, 16320, Note_on_c, 0, 73, 61
2, 16320, Note_on_c, 0, 64, 61
2, 16320, Note_on_c, 0, 58, 61
2, 16320, Note_on_c, 0, 55, 61
2, 16350, Note_on_c, 0, 55, 0
2, 16350, Note_on_c, 0, 73, 0
2, 16350, Note_on_c, 0, 64, 0
2, 16350, Note_on_c, 0, 58, 0
2, 16440, Note_on_c, 0, 74, 62
2, 16440, Note_on_c, 0, 65, 62
2, 16440, Note_on_c, 0, 57, 62
2, 16440, Note_on_c, 0, 53, 62
2, 16470, Note_on_c, 0, 53, 0
2, 16470, Note_on_c, 0, 74, 0
2, 16470, Note_on_c, 0, 65, 0
2, 16470, Note_on_c, 0, 57, 0
2, 16560, Note_on_c, 0, 73, 64
2, 16560, Note_on_c, 0, 64, 64
2, 16560, Note_on_c, 0, 55, 64
2, 16560, Note_on_c, 0, 58, 64
2, 16560, Note_on_c, 0, 45, 64
2, 16590, Note_on_c, 0, 45, 0
2, 16590, Note_on_c, 0, 55, 0
2, 16590, Note_on_c, 0, 73, 0
2, 16590, Note_on_c, 0, 64, 0
2, 16590, Note_on_c, 0, 58, 0
2, 16680, Note_on_c, 0, 74, 66
2, 16680, Note_on_c, 0, 65, 66
2, 16680, Note_on_c, 0, 57, 66
2, 16680, Note_on_c, 0, 53, 66
2, 16710, Note_on_c, 0, 53, 0
2, 16710, Note_on_c, 0, 74, 0
2, 16710, Note_on_c, 0, 65, 0
2, 16710, Note_on_c, 0, 57, 0
2, 16800, Note_on_c, 0, 76, 68
2, 16800, Note_on_c, 0, 67, 68
2, 16800, Note_on_c, 0, 55, 68
2, 16800, Note_on_c, 0, 52, 68
2, 16830, Note_on_c, 0, 52, 0
2, 16830, Note_on_c, 0, 76, 0
2, 16830, Note_on_c, 0, 67, 0
2, 16830, Note_on_c, 0, 55, 0
2, 16920, Note_on_c, 0, 74, 69
2, 16920, Note_on_c, 0, 65, 69
2, 16920, Note_on_c, 0, 53, 69
2, 16920, Note_on_c, 0, 57, 69
2, 16920, Note_on_c, 0, 45, 69
2, 16950, Note_on_c, 0, 45, 0
2, 16950, Note_on_c, 0, 53, 0
2, 16950, Note_on_c, 0, 74, 0
2, 16950, Note_on_c, 0, 65, 0
2, 16950, Note_on_c, 0, 57, 0
2, 17040, Note_on_c, 0, 73, 71
2, 17040, Note_on_c, 0, 64, 71
2, 17040, Note_on_c, 0, 58, 71
2, 17040, Note_on_c, 0, 55, 71
2, 17070, Note_on_c, 0, 55, 0
2, 17070, Note_on_c, 0, 73, 0
2, 17070, Note_on_c, 0, 64, 0
2, 17070, Note_on_c, 0, 58, 0
2, 17160, Note_on_c, 0, 74, 73
2, 17160, Note_on_c, 0, 65, 73
2, 17160, Note_on_c, 0, 57, 73
2, 17160, Note_on_c, 0, 53, 73
2, 17190, Note_on_c, 0, 53, 0
2, 17190, Note_on_c, 0, 74, 0
2, 17190, Note_on_c, 0, 65, 0
2, 17190, Note_on_c, 0, 57, 0
2, 17280, Note_on_c, 0, 73, 74
2, 17280, Note_on_c, 0, 64, 74
2, 17280, Note_on_c, 0, 55, 74
2, 17280, Note_on_c, 0, 58, 74
2, 17280, Note_on_c, 0, 45, 74
2, 17310, Note_on_c, 0, 45, 0
2, 17310, Note_on_c, 0, 55, 0
2, 17310, Note_on_c, 0, 73, 0
2, 17310, Note_on_c, 0, 64, 0
2, 17310, Note_on_c, 0, 58, 0
2, 17400, Note_on_c, 0, 74, 76
2, 17400, Note_on_c, 0, 65, 76
2, 17400, Note_on_c, 0, 57, 76
2, 17400, Note_on_c, 0, 53, 76
2, 17430, Note_on_c, 0, 53, 0
2, 17430, Note_on_c, 0, 74, 0
2, 17430, Note_on_c, 0, 65, 0
2, 17430, Note_on_c, 0, 57, 0
2, 17520, Note_on_c, 0, 76, 78
2, 17520, Note_on_c, 0, 67, 78
2, 17520, Note_on_c, 0, 55, 78
2, 17520, Note_on_c, 0, 52, 78
2, 17550, Note_on_c, 0, 52, 0
2, 17550, Note_on_c, 0, 76, 0
2, 17550, Note_on_c, 0, 67, 0
2, 17550, Note_on_c, 0, 55, 0
2, 17640, Note_on_c, 0, 74, 79
2, 17640, Note_on_c, 0, 65, 79
2, 17640, Note_on_c, 0, 53, 79
2, 17640, Note_on_c, 0, 57, 79
2, 17640, Note_on_c, 0, 45, 79
2, 17670, Note_on_c, 0, 45, 0
2, 17670, Note_on_c, 0, 53, 0
2, 17670, Note_on_c, 0, 74, 0
2, 17670, Note_on_c, 0, 65, 0
2, 17670, Note_on_c, 0, 57, 0
2, 17760, Note_on_c, 0, 73, 81
2, 17760, Note_on_c, 0, 64, 81
2, 17760, Note_on_c, 0, 58, 81
2, 17760, Note_on_c, 0, 55, 81
2, 17790, Note_on_c, 0, 55, 0
2, 17790, Note_on_c, 0, 73, 0
2, 17790, Note_on_c, 0, 64, 0
2, 17790, Note_on_c, 0, 58, 0
2, 17880, Note_on_c, 0, 74, 83
2, 17880, Note_on_c, 0, 65, 83
2, 17880, Note_on_c, 0, 57, 83
2, 17880, Note_on_c, 0, 53, 83
2, 17910, Note_on_c, 0, 53, 0
2, 17910, Note_on_c, 0, 74, 0
2, 17910, Note_on_c, 0, 65, 0
2, 17910, Note_on_c, 0, 57, 0
2, 18000, Note_on_c, 0, 69, 85
2, 18000, Note_on_c, 0, 73, 85
2, 18000, Note_on_c, 0, 76, 85
2, 18000, Note_on_c, 0, 64, 85
2, 18000, Note_on_c, 0, 52, 85
2, 18000, Note_on_c, 0, 55, 85
2, 18000, Note_on_c, 0, 45, 85
2, 18030, Note_on_c, 0, 45, 0
2, 18030, Note_on_c, 0, 52, 0
2, 18030, Note_on_c, 0, 73, 0
2, 18030, Note_on_c, 0, 76, 0
2, 18030, Note_on_c, 0, 69, 0
2, 18030, Note_on_c, 0, 55, 0
2, 18030, Note_on_c, 0, 64, 0
2, 18120, Note_on_c, 0, 74, 86
2, 18120, Note_on_c, 0, 77, 86
2, 18120, Note_on_c, 0, 65, 86
2, 18120, Note_on_c, 0, 53, 86
2, 18120, Note_on_c, 0, 50, 86
2, 18150, Note_on_c, 0, 50, 0
2, 18150, Note_on_c, 0, 65, 0
2, 18150, Note_on_c, 0, 74, 0
2, 18150, Note_on_c, 0, 77, 0
2, 18150, Note_on_c, 0, 53, 0
2, 18240, Note_on_c, 0, 76, 88
2, 18240, Note_on_c, 0, 79, 88
2, 18240, Note_on_c, 0, 67, 88
2, 18240, Note_on_c, 0, 52, 88
2, 18240, Note_on_c, 0, 49, 88
2, 18270, Note_on_c, 0, 49, 0
2, 18270, Note_on_c, 0, 67, 0
2, 18270, Note_on_c, 0, 76, 0
2, 18270, Note_on_c, 0, 79, 0
2, 18270, Note_on_c, 0, 52, 0
2, 18360, Note_on_c, 0, 69, 90
2, 18360, Note_on_c, 0, 74, 90
2, 18360, Note_on_c, 0, 77, 90
2, 18360, Note_on_c, 0, 65, 90
2, 18360, Note_on_c, 0, 50, 90
2, 18360, Note_on_c, 0, 53, 90
2, 18360, Note_on_c, 0, 45, 90
2, 18390, Note_on_c, 0, 45, 0
2, 18390, Note_on_c, 0, 50, 0
2, 18390, Note_on_c, 0, 74, 0
2, 18390, Note_on_c, 0, 77, 0
2, 18390, Note_on_c, 0, 69, 0
2, 18390, Note_on_c, 0, 53, 0
2, 18390, Note_on_c, 0, 65, 0
2, 18480, Note_on_c, 0, 73, 91
2, 18480, Note_on_c, 0, 76, 91
2, 18480, Note_on_c, 0, 64, 91
2, 18480, Note_on_c, 0, 55, 91
2, 18480, Note_on_c, 0, 52, 91
2, 18510, Note_on_c, 0, 52, 0
2, 18510, Note_on_c, 0, 64, 0
2, 18510, Note_on_c, 0, 73, 0
2, 18510, Note_on_c, 0, 76, 0
2, 18510, Note_on_c, 0, 55, 0
2, 18600, Note_on_c, 0, 74, 93
2, 18600, Note_on_c, 0, 77, 93
2, 18600, Note_on_c, 0, 65, 93
2, 18600, Note_on_c, 0, 53, 93
2, 18600, Note_on_c, 0, 50, 93
2, 18630, Note_on_c, 0, 50, 0
2, 18630, Note_on_c, 0, 65, 0
2, 18630, Note_on_c, 0, 74, 0
2, 18630, Note_on_c, 0, 77, 0
2, 18630, Note_on_c, 0, 53, 0
2, 18720, Note_on_c, 0, 69, 95
2, 18720, Note_on_c, 0, 73, 95
2, 18720, Note_on_c, 0, 76, 95
2, 18720, Note_on_c, 0, 64, 95
2, 18720, Note_on_c, 0, 52, 95
2, 18720, Note_on_c, 0, 55, 95
2, 18720, Note_on_c, 0, 45, 95
2, 18750, Note_on_c, 0, 45, 0
2, 18750, Note_on_c, 0, 52, 0
2, 18750, Note_on_c, 0, 73, 0
2, 18750, Note_on_c, 0, 76, 0
2, 18750, Note_on_c, 0, 69, 0
2, 18750, Note_on_c, 0, 55, 0
2, 18750, Note_on_c, 0, 64, 0
2, 18840, Note_on_c, 0, 74, 97
2, 18840, Note_on_c, 0, 77, 97
2, 18840, Note_on_c, 0, 65, 97
2, 18840, Note_on_c, 0, 53, 97
2, 18840, Note_on_c, 0, 50, 97
2, 18870, Note_on_c, 0, 50, 0
2, 18870, Note_on_c, 0, 65, 0
2, 18870, Note_on_c, 0, 74, 0
2, 18870, Note_on_c, 0, 77, 0
2, 18870, Note_on_c, 0, 53, 0
2, 18960, Note_on_c, 0, 76, 98
2, 18960, Note_on_c, 0, 79, 98
2, 18960, Note_on_c, 0, 67, 98
2, 18960, Note_on_c, 0, 52, 98
2, 18960, Note_on_c, 0, 49, 98
2, 18990, Note_on_c, 0, 49, 0
2, 18990, Note_on_c, 0, 67, 0
2, 18990, Note_on_c, 0, 76, 0
2, 18990, Note_on_c, 0, 79, 0
2, 18990, Note_on_c, 0, 52, 0
2, 19080, Note_on_c, 0, 69, 100
2, 19080, Note_on_c, 0, 74, 100
2, 19080, Note_on_c, 0, 77, 100
2, 19080, Note_on_c, 0, 65, 100
2, 19080, Note_on_c, 0, 50, 100
2, 19080, Note_on_c, 0, 53, 100
2, 19080, Note_on_c, 0, 45, 100
2, 19110, Note_on_c, 0, 45, 0
2, 19110, Note_on_c, 0, 50, 0
2, 19110, Note_on_c, 0, 74, 0
2, 19110, Note_on_c, 0, 77, 0
2, 19110, Note_on_c, 0, 69, 0
2, 19110, Note_on_c, 0, 53, 0
2, 19110, Note_on_c, 0, 65, 0
2, 19200, Note_on_c, 0, 73, 102
2, 19200, Note_on_c, 0, 76, 102
2, 19200, Note_on_c, 0, 64, 102
2, 19200, Note_on_c, 0, 55, 102
2, 19200, Note_on_c, 0, 52, 102
2, 19230, Note_on_c, 0, 52, 0
2, 19230, Note_on_c, 0, 64, 0
2, 19230, Note_on_c, 0, 73, 0
2, 19230, Note_on_c, 0, 76, 0
2, 19230, Note_on_c, 0, 55, 0
2, 19320, Note_on_c, 0, 74, 103
2, 19320, Note_on_c, 0, 77, 103
2, 19320, Note_on_c, 0, 65, 103
2, 19320, Note_on_c, 0, 53, 103
2, 19320, Note_on_c, 0, 50, 103
2, 19350, Note_on_c, 0, 50, 0
2, 19350, Note_on_c, 0, 65, 0
2, 19350, Note_on_c, 0, 74, 0
2, 19350, Note_on_c, 0, 77, 0
2, 19350, Note_on_c, 0, 53, 0
2, 19440, Note_on_c, 0, 69, 105
2, 19440, Note_on_c, 0, 73, 105
2, 19440, Note_on_c, 0, 76, 105
2, 19440, Note_on_c, 0, 64, 105
2, 19440, Note_on_c, 0, 52, 105
2, 19440, Note_on_c, 0, 55, 105
2, 19440, Note_on_c, 0, 45, 105
2, 19470, Note_on_c, 0, 45, 0
2, 19470, Note_on_c, 0, 52, 0
2, 19470, Note_on_c, 0, 73, 0
2, 19470, Note_on_c, 0, 76, 0
2, 19470, Note_on_c, 0, 69, 0
2, 19470, Note_on_c, 0, 55, 0
2, 19470, Note_on_c, 0, 64, 0
2, 19560, Note_on_c, 0, 74, 107
2, 19560, Note_on_c, 0, 77, 107
2, 19560, Note_on_c, 0, 65, 107
2, 19560, Note_on_c, 0, 53, 107
2, 19560, Note_on_c, 0, 50, 107
2, 19590, Note_on_c, 0, 50, 0
2, 19590, Note_on_c, 0, 65, 0
2, 19590, Note_on_c, 0, 74, 0
2, 19590, Note_on_c, 0, 77, 0
2, 19590, Note_on_c, 0, 53, 0
2, 19680, Note_on_c, 0, 76, 108
2, 19680, Note_on_c, 0, 79, 108
2, 19680, Note_on_c, 0, 67, 108
2, 19680, Note_on_c, 0, 52, 108
2, 19680, Note_on_c, 0, 49, 108
2, 19710, Note_on_c, 0, 49, 0
2, 19710, Note_on_c, 0, 67, 0
2, 19710, Note_on_c, 0, 76, 0
2, 19710, Note_on_c, 0, 79, 0
2, 19710, Note_on_c, 0, 52, 0
2, 19800, Note_on_c, 0, 73, 110
2, 19800, Note_on_c, 0, 76, 110
2, 19800, Note_on_c, 0, 81, 110
2, 19800, Note_on_c, 0, 69, 110
2, 19800, Note_on_c, 0, 55, 110
2, 19800, Note_on_c, 0, 43, 110
2, 19830, Note_on_c, 0, 43, 0
2, 19830, Note_on_c, 0, 76, 0
2, 19830, Note_on_c, 0, 81, 0
2, 19830, Note_on_c, 0, 73, 0
2, 19830, Note_on_c, 0, 55, 0
2, 19830, Note_on_c, 0, 69, 0
2, 19920, Note_on_c, 0, 77, 112
2, 19920, Note_on_c, 0, 74, 112
2, 19920, Note_on_c, 0, 53, 112
2, 19920, Note_on_c, 0, 41, 112
2, 19950, Note_on_c, 0, 41, 0
2, 19950, Note_on_c, 0, 77, 0
2, 19950, Note_on_c, 0, 74, 0
2, 19950, Note_on_c, 0, 53, 0
2, 19980, Note_on_c, 0, 69, 113
2, 20010, Note_on_c, 0, 69, 0
2, 20040, Note_on_c, 0, 73, 114
2, 20040, Note_on_c, 0, 79, 114
2, 20040, Note_on_c, 0, 69, 114
2, 20040, Note_on_c, 0, 52, 114
2, 20040, Note_on_c, 0, 40, 114
2, 20070, Note_on_c, 0, 40, 0
2, 20070, Note_on_c, 0, 69, 0
2, 20070, Note_on_c, 0, 73, 0
2, 20070, Note_on_c, 0, 79, 0
2, 20070, Note_on_c, 0, 52, 0
2, 20160, Note_on_c, 0, 74, 117
2, 20160, Note_on_c, 0, 77, 117
2, 20160, Note_on_c, 0, 81, 117
2, 20160, Note_on_c, 0, 69, 117
2, 20160, Note_on_c, 0, 50, 117
2, 20160, Note_on_c, 0, 38, 117
2, 20310, Note_on_c, 0, 38, 0
2, 20310, Note_on_c, 0, 77, 0
2, 20310, Note_on_c, 0, 81, 0
2, 20310, Note_on_c, 0, 74, 0
2, 20310, Note_on_c, 0, 50, 0
2, 20310, Note_on_c, 0, 69, 0
2, 20340, Note_on_c, 0, 69, 117
2, 20340, Note_on_c, 0, 57, 117
2, 20370, Note_on_c, 0, 57, 0
2, 20370, Note_on_c, 0, 69, 0
2, 20400, Note_on_c, 0, 69, 117
2, 20400, Note_on_c, 0, 57, 117
2, 20490, Note_on_c, 0, 57, 0
2, 20490, Note_on_c, 0, 69, 0
2, 20520, Note_on_c, 0, 69, 117
2, 20520, Note_on_c, 0, 74, 117
2, 20520, Note_on_c, 0, 65, 117
2, 20520, Note_on_c, 0, 53, 117
2, 20520, Note_on_c, 0, 57, 117
2, 20520, Note_on_c, 0, 62, 117
2, 20520, Note_on_c, 0, 50, 117
2, 20635, Note_on_c, 0, 50, 0
2, 20635, Note_on_c, 0, 57, 0
2, 20635, Note_on_c, 0, 74, 0
2, 20635, Note_on_c, 0, 65, 0
2, 20635, Note_on_c, 0, 69, 0
2, 20635, Note_on_c, 0, 62, 0
2, 20635, Note_on_c, 0, 53, 0
2, 20640, Note_on_c, 0, 76, 117
2, 20640, Note_on_c, 0, 64, 117
2, 20755, Note_on_c, 0, 64, 0
2, 20755, Note_on_c, 0, 76, 0
2, 20760, Note_on_c, 0, 77, 117
2, 20760, Note_on_c, 0, 65, 117
2, 20875, Note_on_c, 0, 65, 0
2, 20875, Note_on_c, 0, 77, 0
2, 20880, Note_on_c, 0, 69, 117
2, 20880, Note_on_c, 0, 73, 117
2, 20880, Note_on_c, 0, 76, 117
2, 20880, Note_on_c, 0, 64, 117
2, 20880, Note_on_c, 0, 49, 117
2, 20880, Note_on_c, 0, 52, 117
2, 20880, Note_on_c, 0, 57, 117
2, 20880, Note_on_c, 0, 45, 117
2, 20995, Note_on_c, 0, 45, 0
2, 20995, Note_on_c, 0, 69, 0
2, 20995, Note_on_c, 0, 49, 0
2, 20995, Note_on_c, 0, 73, 0
2, 20995, Note_on_c, 0, 76, 0
2, 20995, Note_on_c, 0, 64, 0
2, 20995, Note_on_c, 0, 52, 0
2, 20995, Note_on_c, 0, 57, 0
2, 21000, Note_on_c, 0, 77, 117
2, 21000, Note_on_c, 0, 65, 117
2, 21115, Note_on_c, 0, 65, 0
2, 21115, Note_on_c, 0, 77, 0
2, 21120, Note_on_c, 0, 79, 117
2, 21120, Note_on_c, 0, 67, 117
2, 21235, Note_on_c, 0, 67, 0
2, 21235, Note_on_c, 0, 79, 0
2, 21240, Note_on_c, 0, 69, 117
2, 21240, Note_on_c, 0, 77, 117
2, 21240, Note_on_c, 0, 65, 117
2, 21240, Note_on_c, 0, 41, 117
2, 21240, Note_on_c, 0, 45, 117
2, 21240, Note_on_c, 0, 50, 117
2, 21240, Note_on_c, 0, 38, 117
2, 21355, Note_on_c, 0, 38, 0
2, 21355, Note_on_c, 0, 45, 0
2, 21355, Note_on_c, 0, 77, 0
2, 21355, Note_on_c, 0, 65, 0
2, 21355, Note_on_c, 0, 69, 0
2, 21355, Note_on_c, 0, 50, 0
2, 21355, Note_on_c, 0, 41, 0
2, 21360, Note_on_c, 0, 76, 117
2, 21360, Note_on_c, 0, 64, 117
2, 21475, Note_on_c, 0, 64, 0
2, 21475, Note_on_c, 0, 76, 0
2, 21480, Note_on_c, 0, 74, 117
2, 21480, Note_on_c, 0, 62, 117
2, 21595, Note_on_c, 0, 62, 0
2, 21595, Note_on_c, 0, 74, 0
2, 21600, Note_on_c, 0, 74, 117
2, 21600, Note_on_c, 0, 82, 117
2, 21600, Note_on_c, 0, 70, 117
2, 21600, Note_on_c, 0, 50, 117
2, 21600, Note_on_c, 0, 55, 117
2, 21600, Note_on_c, 0, 58, 117
2, 21600, Note_on_c, 0, 43, 117
2, 21715, Note_on_c, 0, 43, 0
2, 21715, Note_on_c, 0, 55, 0
2, 21715, Note_on_c, 0, 82, 0
2, 21715, Note_on_c, 0, 70, 0
2, 21715, Note_on_c, 0, 74, 0
2, 21715, Note_on_c, 0, 58, 0
2, 21715, Note_on_c, 0, 50, 0
2, 21720, Note_on_c, 0, 81, 95
2, 21720, Note_on_c, 0, 69, 95
2, 21835, Note_on_c, 0, 69, 0
2, 21835, Note_on_c, 0, 81, 0
2, 21840, Note_on_c, 0, 79, 95
2, 21840, Note_on_c, 0, 67, 95
2, 21955, Note_on_c, 0, 67, 0
2, 21955, Note_on_c, 0, 79, 0
2, 21960, Note_on_c, 0, 77, 117
2, 21960, Note_on_c, 0, 65, 117
2, 21960, Note_on_c, 0, 50, 117
2, 21960, Note_on_c, 0, 53, 117
2, 21960, Note_on_c, 0, 57, 117
2, 21960, Note_on_c, 0, 45, 117
2, 22075, Note_on_c, 0, 45, 0
2, 22075, Note_on_c, 0, 65, 0
2, 22075, Note_on_c, 0, 50, 0
2, 22075, Note_on_c, 0, 77, 0
2, 22075, Note_on_c, 0, 57, 0
2, 22075, Note_on_c, 0, 53, 0
2, 22080, Note_on_c, 0, 76, 95
2, 22080, Note_on_c, 0, 64, 95
2, 22195, Note_on_c, 0, 64, 0
2, 22195, Note_on_c, 0, 76, 0
2, 22200, Note_on_c, 0, 74, 95
2, 22200, Note_on_c, 0, 62, 95
2, 22315, Note_on_c, 0, 62, 0
2, 22315, Note_on_c, 0, 74, 0
2, 22320, Note_on_c, 0, 69, 117
2, 22320, Note_on_c, 0, 73, 117
2, 22320, Note_on_c, 0, 61, 117
2, 22320, Note_on_c, 0, 52, 117
2, 22320, Note_on_c, 0, 55, 117
2, 22320, Note_on_c, 0, 57, 117
2, 22320, Note_on_c, 0, 45, 117
2, 22435, Note_on_c, 0, 45, 0
2, 22435, Note_on_c, 0, 55, 0
2, 22435, Note_on_c, 0, 73, 0
2, 22435, Note_on_c, 0, 61, 0
2, 22435, Note_on_c, 0, 69, 0
2, 22435, Note_on_c, 0, 57, 0
2, 22435, Note_on_c, 0, 52, 0
2, 22440, Note_on_c, 0, 74, 95
2, 22440, Note_on_c, 0, 62, 95
2, 22555, Note_on_c, 0, 62, 0
2, 22555, Note_on_c, 0, 74, 0
2, 22560, Note_on_c, 0, 76, 95
2, 22560, Note_on_c, 0, 64, 95
2, 22675, Note_on_c, 0, 64, 0
2, 22675, Note_on_c, 0, 76, 0
2, 22680, Note_on_c, 0, 69, 117
2, 22680, Note_on_c, 0, 74, 117
2, 22680, Note_on_c, 0, 62, 117
2, 22680, Note_on_c, 0, 50, 117
2, 22680, Note_on_c, 0, 53, 117
2, 22680, Note_on_c, 0, 57, 117
2, 22680, Note_on_c, 0, 38, 117
2, 22795, Note_on_c, 0, 38, 0
2, 22795, Note_on_c, 0, 53, 0
2, 22795, Note_on_c, 0, 74, 0
2, 22795, Note_on_c, 0, 62, 0
2, 22795, Note_on_c, 0, 69, 0
2, 22795, Note_on_c, 0, 57, 0
2, 22795, Note_on_c, 0, 50, 0
2, 22800, Note_on_c, 0, 73, 95
2, 22800, Note_on_c, 0, 61, 95
2, 22915, Note_on_c, 0, 61, 0
2, 22915, Note_on_c, 0, 73, 0
2, 22920, Note_on_c, 0, 74, 95
2, 22920, Note_on_c, 0, 62, 95
2, 23035, Note_on_c, 0, 62, 0
2, 23035, Note_on_c, 0, 74, 0
2, 23040, Note_on_c, 0, 74, 117
2, 23040, Note_on_c, 0, 82, 117
2, 23040, Note_on_c, 0, 70, 117
2, 23040, Note_on_c, 0, 50, 117
2, 23040, Note_on_c, 0, 55, 117
2, 23040, Note_on_c, 0, 58, 117
2, 23040, Note_on_c, 0, 43, 117
2, 23155, Note_on_c, 0, 43, 0
2, 23155, Note_on_c, 0, 55, 0
2, 23155, Note_on_c, 0, 82, 0
2, 23155, Note_on_c, 0, 70, 0
2, 23155, Note_on_c, 0, 74, 0
2, 23155, Note_on_c, 0, 58, 0
2, 23155, Note_on_c, 0, 50, 0
2, 23160, Note_on_c, 0, 81, 95
2, 23160, Note_on_c, 0, 69, 95
2, 23275, Note_on_c, 0, 69, 0
2, 23275, Note_on_c, 0, 81, 0
2, 23280, Note_on_c, 0, 79, 95
2, 23280, Note_on_c, 0, 67, 95
2, 23395, Note_on_c, 0, 67, 0
2, 23395, Note_on_c, 0, 79, 0
2, 23400, Note_on_c, 0, 69, 117
2, 23400, Note_on_c, 0, 77, 117
2, 23400, Note_on_c, 0, 65, 117
2, 23400, Note_on_c, 0, 50, 117
2, 23400, Note_on_c, 0, 53, 117
2, 23400, Note_on_c, 0, 57, 117
2, 23400, Note_on_c, 0, 45, 117
2, 23515, Note_on_c, 0, 45, 0
2, 23515, Note_on_c, 0, 53, 0
2, 23515, Note_on_c, 0, 77, 0
2, 23515, Note_on_c, 0, 65, 0
2, 23515, Note_on_c, 0, 69, 0
2, 23515, Note_on_c, 0, 57, 0
2, 23515, Note_on_c, 0, 50, 0
2, 23520, Note_on_c, 0, 76, 95
2, 23520, Note_on_c, 0, 64, 95
2, 23635, Note_on_c, 0, 64, 0
2, 23635, Note_on_c, 0, 76, 0
2, 23640, Note_on_c, 0, 74, 95
2, 23640, Note_on_c, 0, 62, 95
2, 23755, Note_on_c, 0, 62, 0
2, 23755, Note_on_c, 0, 74, 0
2, 23760, Note_on_c, 0, 69, 117
2, 23760, Note_on_c, 0, 73, 117
2, 23760, Note_on_c, 0, 61, 117
2, 23760, Note_on_c, 0, 52, 117
2, 23760, Note_on_c, 0, 55, 117
2, 23760, Note_on_c, 0, 57, 117
2, 23760, Note_on_c, 0, 45, 117
2, 23875, Note_on_c, 0, 45, 0
2, 23875, Note_on_c, 0, 55, 0
2, 23875, Note_on_c, 0, 73, 0
2, 23875, Note_on_c, 0, 61, 0
2, 23875, Note_on_c, 0, 69, 0
2, 23875, Note_on_c, 0, 57, 0
2, 23875, Note_on_c, 0, 52, 0
2, 23880, Note_on_c, 0, 74, 95
2, 23880, Note_on_c, 0, 62, 95
2, 23995, Note_on_c, 0, 62, 0
2, 23995, Note_on_c, 0, 74, 0
2, 24000, Note_on_c, 0, 76, 95
2, 24000, Note_on_c, 0, 64, 95
2, 24115, Note_on_c, 0, 64, 0
2, 24115, Note_on_c, 0, 76, 0
2, 24120, Note_on_c, 0, 69, 117
2, 24120, Note_on_c, 0, 74, 117
2, 24120, Note_on_c, 0, 62, 117
2, 24120, Note_on_c, 0, 50, 117
2, 24120, Note_on_c, 0, 53, 117
2, 24120, Note_on_c, 0, 57, 117
2, 24120, Note_on_c, 0, 38, 117
2, 24235, Note_on_c, 0, 38, 0
2, 24235, Note_on_c, 0, 53, 0
2, 24235, Note_on_c, 0, 74, 0
2, 24235, Note_on_c, 0, 62, 0
2, 24235, Note_on_c, 0, 69, 0
2, 24235, Note_on_c, 0, 57, 0
2, 24235, Note_on_c, 0, 50, 0
2, 24240, Note_on_c, 0, 73, 95
2, 24240, Note_on_c, 0, 61, 95
2, 24355, Note_on_c, 0, 61, 0
2, 24355, Note_on_c, 0, 73, 0
2, 24360, Note_on_c, 0, 71, 95
2, 24360, Note_on_c, 0, 74, 95
2, 24360, Note_on_c, 0, 62, 95
2, 24360, Note_on_c, 0, 50, 117
2, 24360, Note_on_c, 0, 53, 117
2, 24360, Note_on_c, 0, 59, 117
2, 24360, Note_on_c, 0, 43, 117
2, 24475, Note_on_c, 0, 43, 0
2, 24475, Note_on_c, 0, 53, 0
2, 24475, Note_on_c, 0, 74, 0
2, 24475, Note_on_c, 0, 62, 0
2, 24475, Note_on_c, 0, 71, 0
2, 24475, Note_on_c, 0, 59, 0
2, 24475, Note_on_c, 0, 50, 0
2, 24480, Note_on_c, 0, 81, 117
2, 24480, Note_on_c, 0, 69, 117
2, 24480, Note_on_c, 0, 50, 117
2, 24480, Note_on_c, 0, 53, 117
2, 24480, Note_on_c, 0, 59, 117
2, 24480, Note_on_c, 0, 43, 117
2, 24595, Note_on_c, 0, 43, 0
2, 24595, Note_on_c, 0, 69, 0
2, 24595, Note_on_c, 0, 50, 0
2, 24595, Note_on_c, 0, 81, 0
2, 24595, Note_on_c, 0, 59, 0
2, 24595, Note_on_c, 0, 53, 0
2, 24600, Note_on_c, 0, 79, 95
2, 24600, Note_on_c, 0, 67, 95
2, 24715, Note_on_c, 0, 67, 0
2, 24715, Note_on_c, 0, 79, 0
2, 24720, Note_on_c, 0, 77, 95
2, 24720, Note_on_c, 0, 65, 95
2, 24835, Note_on_c, 0, 65, 0
2, 24835, Note_on_c, 0, 77, 0
2, 24840, Note_on_c, 0, 67, 117
2, 24840, Note_on_c, 0, 76, 117
2, 24840, Note_on_c, 0, 64, 117
2, 24840, Note_on_c, 0, 52, 117
2, 24840, Note_on_c, 0, 55, 117
2, 24840, Note_on_c, 0, 60, 117
2, 24840, Note_on_c, 0, 48, 117
2, 24955, Note_on_c, 0, 48, 0
2, 24955, Note_on_c, 0, 55, 0
2, 24955, Note_on_c, 0, 76, 0
2, 24955, Note_on_c, 0, 64, 0
2, 24955, Note_on_c, 0, 67, 0
2, 24955, Note_on_c, 0, 60, 0
2, 24955, Note_on_c, 0, 52, 0
2, 24960, Note_on_c, 0, 74, 95
2, 24960, Note_on_c, 0, 62, 95
2, 25075, Note_on_c, 0, 62, 0
2, 25075, Note_on_c, 0, 74, 0
2, 25080, Note_on_c, 0, 72, 95
2, 25195, Note_on_c, 0, 72, 0
2, 25200, Note_on_c, 0, 65, 117
2, 25200, Note_on_c, 0, 67, 117
2, 25200, Note_on_c, 0, 71, 117
2, 25200, Note_on_c, 0, 59, 117
2, 25200, Note_on_c, 0, 50, 117
2, 25200, Note_on_c, 0, 53, 117
2, 25200, Note_on_c, 0, 55, 117
2, 25200, Note_on_c, 0, 43, 117
2, 25315, Note_on_c, 0, 43, 0
2, 25315, Note_on_c, 0, 65, 0
2, 25315, Note_on_c, 0, 50, 0
2, 25315, Note_on_c, 0, 67, 0
2, 25315, Note_on_c, 0, 71, 0
2, 25315, Note_on_c, 0, 59, 0
2, 25315, Note_on_c, 0, 53, 0
2, 25315, Note_on_c, 0, 55, 0
2, 25320, Note_on_c, 0, 72, 95
2, 25320, Note_on_c, 0, 60, 95
2, 25435, Note_on_c, 0, 60, 0
2, 25435, Note_on_c, 0, 72, 0
2, 25440, Note_on_c, 0, 74, 95
2, 25440, Note_on_c, 0, 62, 95
2, 25555, Note_on_c, 0, 62, 0
2, 25555, Note_on_c, 0, 74, 0
2, 25560, Note_on_c, 0, 64, 117
2, 25560, Note_on_c, 0, 67, 117
2, 25560, Note_on_c, 0, 72, 117
2, 25560, Note_on_c, 0, 60, 117
2, 25560, Note_on_c, 0, 48, 117
2, 25560, Note_on_c, 0, 52, 117
2, 25560, Note_on_c, 0, 55, 117
2, 25560, Note_on_c, 0, 36, 117
2, 25675, Note_on_c, 0, 36, 0
2, 25675, Note_on_c, 0, 64, 0
2, 25675, Note_on_c, 0, 48, 0
2, 25675, Note_on_c, 0, 67, 0
2, 25675, Note_on_c, 0, 72, 0
2, 25675, Note_on_c, 0, 60, 0
2, 25675, Note_on_c, 0, 52, 0
2, 25675, Note_on_c, 0, 55, 0
2, 25680, Note_on_c, 0, 71, 95
2, 25680, Note_on_c, 0, 77, 95
2, 25680, Note_on_c, 0, 81, 95
2, 25680, Note_on_c, 0, 69, 95
2, 25680, Note_on_c, 0, 50, 117
2, 25680, Note_on_c, 0, 53, 117
2, 25680, Note_on_c, 0, 59, 117
2, 25680, Note_on_c, 0, 43, 117
2, 25795, Note_on_c, 0, 43, 0
2, 25795, Note_on_c, 0, 71, 0
2, 25795, Note_on_c, 0, 50, 0
2, 25795, Note_on_c, 0, 77, 0
2, 25795, Note_on_c, 0, 81, 0
2, 25795, Note_on_c, 0, 69, 0
2, 25795, Note_on_c, 0, 53, 0
2, 25795, Note_on_c, 0, 59, 0
2, 25800, Note_on_c, 0, 71, 95
2, 25800, Note_on_c, 0, 77, 95
2, 25800, Note_on_c, 0, 81, 95
2, 25800, Note_on_c, 0, 69, 95
2, 25800, Note_on_c, 0, 50, 117
2, 25800, Note_on_c, 0, 53, 117
2, 25800, Note_on_c, 0, 59, 117
2, 25800, Note_on_c, 0, 43, 117
2, 25915, Note_on_c, 0, 43, 0
2, 25915, Note_on_c, 0, 71, 0
2, 25915, Note_on_c, 0, 50, 0
2, 25915, Note_on_c, 0, 77, 0
2, 25915, Note_on_c, 0, 81, 0
2, 25915, Note_on_c, 0, 69, 0
2, 25915, Note_on_c, 0, 53, 0
2, 25915, Note_on_c, 0, 59, 0
2, 25920, Note_on_c, 0, 71, 117
2, 25920, Note_on_c, 0, 77, 117
2, 25920, Note_on_c, 0, 81, 117
2, 25920, Note_on_c, 0, 69, 117
2, 25920, Note_on_c, 0, 50, 117
2, 25920, Note_on_c, 0, 53, 117
2, 25920, Note_on_c, 0, 59, 117
2, 25920, Note_on_c, 0, 43, 117
2, 26035, Note_on_c, 0, 43, 0
2, 26035, Note_on_c, 0, 71, 0
2, 26035, Note_on_c, 0, 50, 0
2, 26035, Note_on_c, 0, 77, 0
2, 26035, Note_on_c, 0, 81, 0
2, 26035, Note_on_c, 0, 69, 0
2, 26035, Note_on_c, 0, 53, 0
2, 26035, Note_on_c, 0, 59, 0
2, 26040, Note_on_c, 0, 79, 95
2, 26040, Note_on_c, 0, 67, 95
2, 26155, Note_on_c, 0, 67, 0
2, 26155, Note_on_c, 0, 79, 0
2, 26160, Note_on_c, 0, 77, 95
2, 26160, Note_on_c, 0, 65, 95
2, 26275, Note_on_c, 0, 65, 0
2, 26275, Note_on_c, 0, 77, 0
2, 26280, Note_on_c, 0, 67, 117
2, 26280, Note_on_c, 0, 76, 117
2, 26280, Note_on_c, 0, 64, 117
2, 26280, Note_on_c, 0, 52, 117
2, 26280, Note_on_c, 0, 55, 117
2, 26280, Note_on_c, 0, 60, 117
2, 26280, Note_on_c, 0, 48, 117
2, 26395, Note_on_c, 0, 48, 0
2, 26395, Note_on_c, 0, 55, 0
2, 26395, Note_on_c, 0, 76, 0
2, 26395, Note_on_c, 0, 64, 0
2, 26395, Note_on_c, 0, 67, 0
2, 26395, Note_on_c, 0, 60, 0
2, 26395, Note_on_c, 0, 52, 0
2, 26400, Note_on_c, 0, 74, 95
2, 26400, Note_on_c, 0, 62, 95
2, 26515, Note_on_c, 0, 62, 0
2, 26515, Note_on_c, 0, 74, 0
2, 26520, Note_on_c, 0, 72, 95
2, 26520, Note_on_c, 0, 60, 95
2, 26635, Note_on_c, 0, 60, 0
2, 26635, Note_on_c, 0, 72, 0
2, 26640, Note_on_c, 0, 72, 117
2, 26640, Note_on_c, 0, 79, 117
2, 26640, Note_on_c, 0, 67, 117
2, 26640, Note_on_c, 0, 55, 117
2, 26640, Note_on_c, 0, 60, 117
2, 26640, Note_on_c, 0, 64, 117
2, 26640, Note_on_c, 0, 48, 117
2, 26755, Note_on_c, 0, 48, 0
2, 26755, Note_on_c, 0, 60, 0
2, 26755, Note_on_c, 0, 79, 0
2, 26755, Note_on_c, 0, 67, 0
2, 26755, Note_on_c, 0, 72, 0
2, 26755, Note_on_c, 0, 64, 0
2, 26755, Note_on_c, 0, 55, 0
2, 26760, Note_on_c, 0, 77, 95
2, 26760, Note_on_c, 0, 65, 95
2, 26875, Note_on_c, 0, 65, 0
2, 26875, Note_on_c, 0, 77, 0
2, 26880, Note_on_c, 0, 76, 95
2, 26880, Note_on_c, 0, 64, 95
2, 26995, Note_on_c, 0, 64, 0
2, 26995, Note_on_c, 0, 76, 0
2, 27000, Note_on_c, 0, 79, 117
2, 27000, Note_on_c, 0, 88, 117
2, 27000, Note_on_c, 0, 76, 117
2, 27000, Note_on_c, 0, 52, 117
2, 27000, Note_on_c, 0, 55, 117
2, 27000, Note_on_c, 0, 60, 117
2, 27000, Note_on_c, 0, 48, 117
2, 27115, Note_on_c, 0, 48, 0
2, 27115, Note_on_c, 0, 55, 0
2, 27115, Note_on_c, 0, 88, 0
2, 27115, Note_on_c, 0, 76, 0
2, 27115, Note_on_c, 0, 79, 0
2, 27115, Note_on_c, 0, 60, 0
2, 27115, Note_on_c, 0, 52, 0
2, 27120, Note_on_c, 0, 86, 95
2, 27120, Note_on_c, 0, 74, 95
2, 27235, Note_on_c, 0, 74, 0
2, 27235, Note_on_c, 0, 86, 0
2, 27240, Note_on_c, 0, 84, 95
2, 27240, Note_on_c, 0, 72, 95
2, 27355, Note_on_c, 0, 72, 0
2, 27355, Note_on_c, 0, 84, 0
2, 27360, Note_on_c, 0, 79, 95
2, 27360, Note_on_c, 0, 83, 95
2, 27360, Note_on_c, 0, 71, 95
2, 27360, Note_on_c, 0, 59, 117
2, 27360, Note_on_c, 0, 62, 117
2, 27360, Note_on_c, 0, 67, 117
2, 27360, Note_on_c, 0, 55, 117
2, 27450, Note_on_c, 0, 55, 0
2, 27450, Note_on_c, 0, 62, 0
2, 27450, Note_on_c, 0, 59, 0
2, 27450, Note_on_c, 0, 67, 0
2, 27540, Note_on_c, 0, 67, 55
2, 27570, Note_on_c, 0, 67, 0
2, 27600, Note_on_c, 0, 83, 0
2, 27600, Note_on_c, 0, 71, 0
2, 27600, Note_on_c, 0, 79, 0
2, 27600, Note_on_c, 0, 67, 60
2, 27690, Note_on_c, 0, 67, 0
2, 27720, Note_on_c, 0, 79, 53
2, 27900, Note_on_c, 0, 67, 70
2, 27915, Note_on_c, 0, 67, 0
2, 27960, Note_on_c, 0, 67, 74
2, 28020, Note_on_c, 0, 67, 0
2, 28075, Note_on_c, 0, 79, 0
2, 28080, Note_on_c, 0, 81, 53
2, 28080, Note_on_c, 0, 79, 53
2, 28260, Note_on_c, 0, 69, 84
2, 28260, Note_on_c, 0, 65, 84
2, 28275, Note_on_c, 0, 65, 0
2, 28275, Note_on_c, 0, 69, 0
2, 28320, Note_on_c, 0, 69, 89
2, 28320, Note_on_c, 0, 65, 89
2, 28380, Note_on_c, 0, 65, 0
2, 28380, Note_on_c, 0, 69, 0
2, 28435, Note_on_c, 0, 79, 0
2, 28435, Note_on_c, 0, 81, 0
2, 28440, Note_on_c, 0, 77, 53
2, 28440, Note_on_c, 0, 81, 53
2, 28440, Note_on_c, 0, 86, 53
2, 28440, Note_on_c, 0, 62, 53
2, 28620, Note_on_c, 0, 69, 98
2, 28620, Note_on_c, 0, 74, 98
2, 28620, Note_on_c, 0, 65, 98
2, 28635, Note_on_c, 0, 65, 0
2, 28635, Note_on_c, 0, 69, 0
2, 28635, Note_on_c, 0, 74, 0
2, 28680, Note_on_c, 0, 69, 103
2, 28680, Note_on_c, 0, 74, 103
2, 28680, Note_on_c, 0, 65, 103
2, 28740, Note_on_c, 0, 65, 0
2, 28740, Note_on_c, 0, 69, 0
2, 28740, Note_on_c, 0, 74, 0
2, 28795, Note_on_c, 0, 62, 0
2, 28795, Note_on_c, 0, 77, 0
2, 28795, Note_on_c, 0, 81, 0
2, 28795, Note_on_c, 0, 86, 0
2, 28800, Note_on_c, 0, 77, 53
2, 28800, Note_on_c, 0, 80, 53
2, 28800, Note_on_c, 0, 86, 53
2, 28800, Note_on_c, 0, 59, 53
2, 28980, Note_on_c, 0, 68, 112
2, 28980, Note_on_c, 0, 74, 112
2, 28980, Note_on_c, 0, 65, 112
2, 28995, Note_on_c, 0, 65, 0
2, 28995, Note_on_c, 0, 68, 0
2, 28995, Note_on_c, 0, 74, 0
2, 29040, Note_on_c, 0, 68, 117
2, 29040, Note_on_c, 0, 74, 117
2, 29040, Note_on_c, 0, 65, 117
2, 29100, Note_on_c, 0, 65, 0
2, 29100, Note_on_c, 0, 68, 0
2, 29100, Note_on_c, 0, 74, 0
2, 29155, Note_on_c, 0, 59, 0
2, 29155, Note_on_c, 0, 77, 0
2, 29155, Note_on_c, 0, 80, 0
2, 29155, Note_on_c, 0, 86, 0
2, 29160, Note_on_c, 0, 76, 53
2, 29160, Note_on_c, 0, 79, 53
2, 29160, Note_on_c, 0, 84, 53
2, 29160, Note_on_c, 0, 60, 53
2, 29340, Note_on_c, 0, 67, 103
2, 29340, Note_on_c, 0, 72, 103
2, 29340, Note_on_c, 0, 64, 103
2, 29355, Note_on_c, 0, 64, 0
2, 29355, Note_on_c, 0, 67, 0
2, 29355, Note_on_c, 0, 72, 0
2, 29400, Note_on_c, 0, 67, 96
2, 29400, Note_on_c, 0, 72, 96
2, 29400, Note_on_c, 0, 64, 96
2, 29460, Note_on_c, 0, 64, 0
2, 29460, Note_on_c, 0, 67, 0
2, 29460, Note_on_c, 0, 72, 0
2, 29515, Note_on_c, 0, 60, 0
2, 29515, Note_on_c, 0, 76, 0
2, 29515, Note_on_c, 0, 79, 0
2, 29515, Note_on_c, 0, 84, 0
2, 29520, Note_on_c, 0, 75, 95
2, 29520, Note_on_c, 0, 79, 95
2, 29520, Note_on_c, 0, 84, 95
2, 29520, Note_on_c, 0, 55, 95
2, 29700, Note_on_c, 0, 67, 81
2, 29700, Note_on_c, 0, 72, 81
2, 29700, Note_on_c, 0, 63, 81
2, 29715, Note_on_c, 0, 63, 0
2, 29715, Note_on_c, 0, 67, 0
2, 29715, Note_on_c, 0, 72, 0
2, 29760, Note_on_c, 0, 67, 74
2, 29760, Note_on_c, 0, 72, 74
2, 29760, Note_on_c, 0, 63, 74
2, 29820, Note_on_c, 0, 63, 0
2, 29820, Note_on_c, 0, 67, 0
2, 29820, Note_on_c, 0, 72, 0
2, 29875, Note_on_c, 0, 55, 0
2, 29875, Note_on_c, 0, 75, 0
2, 29875, Note_on_c, 0, 79, 0
2, 29875, Note_on_c, 0, 84, 0
2, 29880, Note_on_c, 0, 79, 95
2, 29880, Note_on_c, 0, 83, 95
2, 29880, Note_on_c, 0, 74, 95
2, 30060, Note_on_c, 0, 67, 60
2, 30060, Note_on_c, 0, 71, 60
2, 30060, Note_on_c, 0, 62, 60
2, 30075, Note_on_c, 0, 62, 0
2, 30075, Note_on_c, 0, 67, 0
2, 30075, Note_on_c, 0, 71, 0
2, 30120, Note_on_c, 0, 67, 53
2, 30120, Note_on_c, 0, 71, 53
2, 30120, Note_on_c, 0, 62, 53
2, 30180, Note_on_c, 0, 62, 0
2, 30180, Note_on_c, 0, 67, 0
2, 30180, Note_on_c, 0, 71, 0
2, 30235, Note_on_c, 0, 83, 0
2, 30235, Note_on_c, 0, 79, 0
2, 30235, Note_on_c, 0, 74, 0
2, 30240, Note_on_c, 0, 67, 60
2, 30420, Note_on_c, 0, 55, 53
2, 30440, Note_on_c, 0, 55, 0
2, 30480, Note_on_c, 0, 55, 53
2, 30540, Note_on_c, 0, 55, 0
2, 30595, Note_on_c, 0, 67, 0
2, 30600, Note_on_c, 0, 67, 68
2, 30600, Note_on_c, 0, 48, 53
2, 30780, Note_on_c, 0, 55, 53
2, 30795, Note_on_c, 0, 55, 0
2, 30840, Note_on_c, 0, 55, 53
2, 30900, Note_on_c, 0, 55, 0
2, 30955, Note_on_c, 0, 48, 0
2, 30955, Note_on_c, 0, 67, 0
2, 30960, Note_on_c, 0, 69, 75
2, 30960, Note_on_c, 0, 67, 75
2, 30960, Note_on_c, 0, 41, 53
2, 31140, Note_on_c, 0, 57, 53
2, 31140, Note_on_c, 0, 55, 53
2, 31155, Note_on_c, 0, 55, 0
2, 31155, Note_on_c, 0, 57, 0
2, 31200, Note_on_c, 0, 57, 53
2, 31200, Note_on_c, 0, 55, 53
2, 31260, Note_on_c, 0, 55, 0
2, 31260, Note_on_c, 0, 57, 0
2, 31315, Note_on_c, 0, 41, 0
2, 31315, Note_on_c, 0, 67, 0
2, 31315, Note_on_c, 0, 69, 0
2, 31320, Note_on_c, 0, 69, 83
2, 31320, Note_on_c, 0, 74, 83
2, 31320, Note_on_c, 0, 65, 83
2, 31320, Note_on_c, 0, 38, 53
2, 31500, Note_on_c, 0, 57, 53
2, 31500, Note_on_c, 0, 62, 53
2, 31500, Note_on_c, 0, 53, 53
2, 31515, Note_on_c, 0, 53, 0
2, 31515, Note_on_c, 0, 57, 0
2, 31515, Note_on_c, 0, 62, 0
2, 31560, Note_on_c, 0, 57, 53
2, 31560, Note_on_c, 0, 62, 53
2, 31560, Note_on_c, 0, 53, 53
2, 31620, Note_on_c, 0, 53, 0
2, 31620, Note_on_c, 0, 57, 0
2, 31620, Note_on_c, 0, 62, 0
2, 31675, Note_on_c, 0, 38, 0
2, 31675, Note_on_c, 0, 69, 0
2, 31675, Note_on_c, 0, 74, 0
2, 31675, Note_on_c, 0, 65, 0
2, 31680, Note_on_c, 0, 68, 90
2, 31680, Note_on_c, 0, 74, 90
2, 31680, Note_on_c, 0, 65, 90
2, 31680, Note_on_c, 0, 43, 53
2, 31860, Note_on_c, 0, 56, 53
2, 31860, Note_on_c, 0, 62, 53
2, 31860, Note_on_c, 0, 53, 53
2, 31875, Note_on_c, 0, 53, 0
2, 31875, Note_on_c, 0, 56, 0
2, 31875, Note_on_c, 0, 62, 0
2, 31920, Note_on_c, 0, 56, 53
2, 31920, Note_on_c, 0, 62, 53
2, 31920, Note_on_c, 0, 53, 53
2, 31980, Note_on_c, 0, 53, 0
2, 31980, Note_on_c, 0, 56, 0
2, 31980, Note_on_c, 0, 62, 0
2, 32035, Note_on_c, 0, 43, 0
2, 32035, Note_on_c, 0, 68, 0
2, 32035, Note_on_c, 0, 74, 0
2, 32035, Note_on_c, 0, 65, 0
2, 32040, Note_on_c, 0, 67, 97
2, 32040, Note_on_c, 0, 72, 97
2, 32040, Note_on_c, 0, 64, 97
2, 32040, Note_on_c, 0, 48, 53
2, 32220, Note_on_c, 0, 55, 53
2, 32220, Note_on_c, 0, 60, 53
2, 32220, Note_on_c, 0, 52, 53
2, 32235, Note_on_c, 0, 52, 0
2, 32235, Note_on_c, 0, 55, 0
2, 32235, Note_on_c, 0, 60, 0
2, 32280, Note_on_c, 0, 55, 53
2, 32280, Note_on_c, 0, 60, 53
2, 32280, Note_on_c, 0, 52, 53
2, 32340, Note_on_c, 0, 52, 0
2, 32340, Note_on_c, 0, 55, 0
2, 32340, Note_on_c, 0, 60, 0
2, 32395, Note_on_c, 0, 48, 0
2, 32395, Note_on_c, 0, 67, 0
2, 32395, Note_on_c, 0, 72, 0
2, 32395, Note_on_c, 0, 64, 0
2, 32400, Note_on_c, 0, 67, 105
2, 32400, Note_on_c, 0, 72, 105
2, 32400, Note_on_c, 0, 63, 105
2, 32400, Note_on_c, 0, 43, 53
2, 32580, Note_on_c, 0, 55, 53
2, 32580, Note_on_c, 0, 60, 53
2, 32580, Note_on_c, 0, 51, 53
2, 32595, Note_on_c, 0, 51, 0
2, 32595, Note_on_c, 0, 55, 0
2, 32595, Note_on_c, 0, 60, 0
2, 32640, Note_on_c, 0, 55, 53
2, 32640, Note_on_c, 0, 60, 53
2, 32640, Note_on_c, 0, 51, 53
2, 32700, Note_on_c, 0, 51, 0
2, 32700, Note_on_c, 0, 55, 0
2, 32700, Note_on_c, 0, 60, 0
2, 32755, Note_on_c, 0, 43, 0
2, 32755, Note_on_c, 0, 67, 0
2, 32755, Note_on_c, 0, 72, 0
2, 32755, Note_on_c, 0, 63, 0
2, 32760, Note_on_c, 0, 67, 112
2, 32760, Note_on_c, 0, 71, 112
2, 32760, Note_on_c, 0, 62, 112
2, 32760, Note_on_c, 0, 43, 53
2, 32940, Note_on_c, 0, 55, 53
2, 32940, Note_on_c, 0, 59, 53
2, 32940, Note_on_c, 0, 50, 53
2, 32955, Note_on_c, 0, 50, 0
2, 32955, Note_on_c, 0, 55, 0
2, 32955, Note_on_c, 0, 59, 0
2, 33000, Note_on_c, 0, 55, 53
2, 33000, Note_on_c, 0, 59, 53
2, 33000, Note_on_c, 0, 50, 53
2, 33060, Note_on_c, 0, 50, 0
2, 33060, Note_on_c, 0, 55, 0
2, 33060, Note_on_c, 0, 59, 0
2, 33115, Note_on_c, 0, 43, 0
2, 33115, Note_on_c, 0, 67, 0
2, 33115, Note_on_c, 0, 71, 0
2, 33115, Note_on_c, 0, 62, 0
2, 33120, Note_on_c, 0, 72, 117
2, 33120, Note_on_c, 0, 64, 117
2, 33120, Note_on_c, 0, 60, 95
2, 33120, Note_on_c, 0, 48, 95
2, 33180, Note_on_c, 0, 48, 0
2, 33180, Note_on_c, 0, 60, 0
2, 33300, Note_on_c, 0, 48, 95
2, 33300, Note_on_c, 0, 36, 95
2, 33330, Note_on_c, 0, 36, 0
2, 33330, Note_on_c, 0, 48, 0
2, 33355, Note_on_c, 0, 64, 0
2, 33355, Note_on_c, 0, 72, 0
2, 33360, Note_on_c, 0, 65, 117
2, 33360, Note_on_c, 0, 74, 117
2, 33360, Note_on_c, 0, 62, 117
2, 33360, Note_on_c, 0, 48, 95
2, 33360, Note_on_c, 0, 36, 95
2, 33420, Note_on_c, 0, 36, 0
2, 33420, Note_on_c, 0, 62, 0
2, 33420, Note_on_c, 0, 65, 0
2, 33420, Note_on_c, 0, 74, 0
2, 33420, Note_on_c, 0, 48, 0
2, 33420, Note_on_c, 0, 67, 117
2, 33420, Note_on_c, 0, 76, 117
2, 33420, Note_on_c, 0, 64, 117
2, 33480, Note_on_c, 0, 64, 0
2, 33480, Note_on_c, 0, 76, 0
2, 33480, Note_on_c, 0, 67, 0
2, 33480, Note_on_c, 0, 69, 117
2, 33480, Note_on_c, 0, 77, 117
2, 33480, Note_on_c, 0, 65, 117
2, 33480, Note_on_c, 0, 60, 95
2, 33480, Note_on_c, 0, 48, 95
2, 33540, Note_on_c, 0, 48, 0
2, 33540, Note_on_c, 0, 65, 0
2, 33540, Note_on_c, 0, 69, 0
2, 33540, Note_on_c, 0, 77, 0
2, 33540, Note_on_c, 0, 60, 0
2, 33660, Note_on_c, 0, 48, 95
2, 33660, Note_on_c, 0, 36, 95
2, 33690, Note_on_c, 0, 36, 0
2, 33690, Note_on_c, 0, 48, 0
2, 33720, Note_on_c, 0, 67, 117
2, 33720, Note_on_c, 0, 76, 117
2, 33720, Note_on_c, 0, 64, 117
2, 33720, Note_on_c, 0, 48, 95
2, 33720, Note_on_c, 0, 36, 95
2, 33780, Note_on_c, 0, 36, 0
2, 33780, Note_on_c, 0, 64, 0
2, 33780, Note_on_c, 0, 67, 0
2, 33780, Note_on_c, 0, 76, 0
2, 33780, Note_on_c, 0, 48, 0
2, 33840, Note_on_c, 0, 65, 117
2, 33840, Note_on_c, 0, 74, 117
2, 33840, Note_on_c, 0, 62, 117
2, 33840, Note_on_c, 0, 60, 95
2, 33840, Note_on_c, 0, 48, 95
2, 33960, Note_on_c, 0, 48, 0
2, 33960, Note_on_c, 0, 62, 0
2, 33960, Note_on_c, 0, 65, 0
2, 33960, Note_on_c, 0, 74, 0
2, 33960, Note_on_c, 0, 60, 0
2, 34020, Note_on_c, 0, 48, 95
2, 34020, Note_on_c, 0, 36, 95
2, 34050, Note_on_c, 0, 36, 0
2, 34050, Note_on_c, 0, 48, 0
2, 34080, Note_on_c, 0, 64, 117
2, 34080, Note_on_c, 0, 72, 117
2, 34080, Note_on_c, 0, 60, 117
2, 34080, Note_on_c, 0, 48, 95
2, 34080, Note_on_c, 0, 36, 95
2, 34140, Note_on_c, 0, 36, 0
2, 34140, Note_on_c, 0, 60, 0
2, 34140, Note_on_c, 0, 64, 0
2, 34140, Note_on_c, 0, 72, 0
2, 34140, Note_on_c, 0, 48, 0
2, 34200, Note_on_c, 0, 65, 117
2, 34200, Note_on_c, 0, 74, 117
2, 34200, Note_on_c, 0, 62, 117
2, 34200, Note_on_c, 0, 60, 95
2, 34200, Note_on_c, 0, 48, 95
2, 34320, Note_on_c, 0, 48, 0
2, 34320, Note_on_c, 0, 62, 0
2, 34320, Note_on_c, 0, 65, 0
2, 34320, Note_on_c, 0, 74, 0
2, 34320, Note_on_c, 0, 60, 0
2, 34380, Note_on_c, 0, 48, 95
2, 34380, Note_on_c, 0, 36, 95
2, 34410, Note_on_c, 0, 36, 0
2, 34410, Note_on_c, 0, 48, 0
2, 34440, Note_on_c, 0, 62, 117
2, 34440, Note_on_c, 0, 71, 117
2, 34440, Note_on_c, 0, 59, 117
2, 34440, Note_on_c, 0, 48, 95
2, 34440, Note_on_c, 0, 36, 95
2, 34495, Note_on_c, 0, 36, 0
2, 34495, Note_on_c, 0, 59, 0
2, 34495, Note_on_c, 0, 62, 0
2, 34495, Note_on_c, 0, 71, 0
2, 34495, Note_on_c, 0, 48, 0
2, 34560, Note_on_c, 0, 72, 117
2, 34560, Note_on_c, 0, 76, 117
2, 34560, Note_on_c, 0, 64, 117
2, 34560, Note_on_c, 0, 60, 95
2, 34560, Note_on_c, 0, 48, 95
2, 34620, Note_on_c, 0, 48, 0
2, 34620, Note_on_c, 0, 60, 0
2, 34740, Note_on_c, 0, 48, 95
2, 34740, Note_on_c, 0, 36, 95
2, 34770, Note_on_c, 0, 36, 0
2, 34770, Note_on_c, 0, 48, 0
2, 34795, Note_on_c, 0, 64, 0
2, 34795, Note_on_c, 0, 76, 0
2, 34795, Note_on_c, 0, 72, 0
2, 34800, Note_on_c, 0, 74, 117
2, 34800, Note_on_c, 0, 77, 117
2, 34800, Note_on_c, 0, 65, 117
2, 34800, Note_on_c, 0, 48, 95
2, 34800, Note_on_c, 0, 36, 95
2, 34855, Note_on_c, 0, 36, 0
2, 34855, Note_on_c, 0, 65, 0
2, 34855, Note_on_c, 0, 74, 0
2, 34855, Note_on_c, 0, 77, 0
2, 34855, Note_on_c, 0, 48, 0
2, 34860, Note_on_c, 0, 76, 117
2, 34860, Note_on_c, 0, 79, 117
2, 34860, Note_on_c, 0, 67, 117
2, 34915, Note_on_c, 0, 67, 0
2, 34915, Note_on_c, 0, 79, 0
2, 34915, Note_on_c, 0, 76, 0
2, 34920, Note_on_c, 0, 77, 117
2, 34920, Note_on_c, 0, 81, 117
2, 34920, Note_on_c, 0, 69, 117
2, 34920, Note_on_c, 0, 60, 95
2, 34920, Note_on_c, 0, 48, 95
2, 35035, Note_on_c, 0, 48, 0
2, 35035, Note_on_c, 0, 69, 0
2, 35035, Note_on_c, 0, 77, 0
2, 35035, Note_on_c, 0, 81, 0
2, 35035, Note_on_c, 0, 60, 0
2, 35100, Note_on_c, 0, 48, 95
2, 35100, Note_on_c, 0, 36, 95
2, 35130, Note_on_c, 0, 36, 0
2, 35130, Note_on_c, 0, 48, 0
2, 35160, Note_on_c, 0, 76, 117
2, 35160, Note_on_c, 0, 79, 117
2, 35160, Note_on_c, 0, 67, 117
2, 35160, Note_on_c, 0, 48, 95
2, 35160, Note_on_c, 0, 36, 95
2, 35220, Note_on_c, 0, 36, 0
2, 35220, Note_on_c, 0, 67, 0
2, 35220, Note_on_c, 0, 76, 0
2, 35220, Note_on_c, 0, 79, 0
2, 35220, Note_on_c, 0, 48, 0
2, 35280, Note_on_c, 0, 74, 117
2, 35280, Note_on_c, 0, 77, 117
2, 35280, Note_on_c, 0, 65, 117
2, 35280, Note_on_c, 0, 60, 95
2, 35280, Note_on_c, 0, 48, 95
2, 35400, Note_on_c, 0, 48, 0
2, 35400, Note_on_c, 0, 65, 0
2, 35400, Note_on_c, 0, 74, 0
2, 35400, Note_on_c, 0, 77, 0
2, 35400, Note_on_c, 0, 60, 0
2, 35460, Note_on_c, 0, 48, 95
2, 35460, Note_on_c, 0, 36, 95
2, 35490, Note_on_c, 0, 36, 0
2, 35490, Note_on_c, 0, 48, 0
2, 35520, Note_on_c, 0, 72, 117
2, 35520, Note_on_c, 0, 76, 117
2, 35520, Note_on_c, 0, 64, 117
2, 35520, Note_on_c, 0, 48, 95
2, 35520, Note_on_c, 0, 36, 95
2, 35580, Note_on_c, 0, 36, 0
2, 35580, Note_on_c, 0, 64, 0
2, 35580, Note_on_c, 0, 72, 0
2, 35580, Note_on_c, 0, 76, 0
2, 35580, Note_on_c, 0, 48, 0
2, 35640, Note_on_c, 0, 74, 117
2, 35640, Note_on_c, 0, 77, 117
2, 35640, Note_on_c, 0, 65, 117
2, 35640, Note_on_c, 0, 60, 95
2, 35640, Note_on_c, 0, 48, 95
2, 35760, Note_on_c, 0, 48, 0
2, 35760, Note_on_c, 0, 65, 0
2, 35760, Note_on_c, 0, 74, 0
2, 35760, Note_on_c, 0, 77, 0
2, 35760, Note_on_c, 0, 60, 0
2, 35820, Note_on_c, 0, 48, 95
2, 35820, Note_on_c, 0, 36, 95
2, 35850, Note_on_c, 0, 36, 0
2, 35850, Note_on_c, 0, 48, 0
2, 35880, Note_on_c, 0, 71, 117
2, 35880, Note_on_c, 0, 74, 117
2, 35880, Note_on_c, 0, 62, 117
2, 35880, Note_on_c, 0, 48, 95
2, 35880, Note_on_c, 0, 36, 95
2, 35940, Note_on_c, 0, 36, 0
2, 35940, Note_on_c, 0, 62, 0
2, 35940, Note_on_c, 0, 71, 0
2, 35940, Note_on_c, 0, 74, 0
2, 35940, Note_on_c, 0, 48, 0
2, 36000, Note_on_c, 0, 72, 117
2, 36000, Note_on_c, 0, 64, 117
2, 36000, Note_on_c, 0, 60, 95
2, 36000, Note_on_c, 0, 48, 95
2, 36060, Note_on_c, 0, 48, 0
2, 36060, Note_on_c, 0, 72, 0
2, 36060, Note_on_c, 0, 64, 0
2, 36060, Note_on_c, 0, 60, 0
2, 36120, Note_on_c, 0, 76, 117
2, 36120, Note_on_c, 0, 84, 117
2, 36120, Note_on_c, 0, 72, 117
2, 36180, Note_on_c, 0, 48, 95
2, 36180, Note_on_c, 0, 36, 95
2, 36210, Note_on_c, 0, 36, 0
2, 36210, Note_on_c, 0, 48, 0
2, 36235, Note_on_c, 0, 76, 0
2, 36235, Note_on_c, 0, 84, 0
2, 36235, Note_on_c, 0, 72, 0
2, 36240, Note_on_c, 0, 77, 117
2, 36240, Note_on_c, 0, 86, 117
2, 36240, Note_on_c, 0, 74, 117
2, 36240, Note_on_c, 0, 48, 95
2, 36240, Note_on_c, 0, 36, 95
2, 36300, Note_on_c, 0, 36, 0
2, 36300, Note_on_c, 0, 74, 0
2, 36300, Note_on_c, 0, 77, 0
2, 36300, Note_on_c, 0, 86, 0
2, 36300, Note_on_c, 0, 48, 0
2, 36300, Note_on_c, 0, 79, 117
2, 36300, Note_on_c, 0, 88, 117
2, 36300, Note_on_c, 0, 76, 117
2, 36360, Note_on_c, 0, 76, 0
2, 36360, Note_on_c, 0, 88, 0
2, 36360, Note_on_c, 0, 79, 0
2, 36360, Note_on_c, 0, 81, 117
2, 36360, Note_on_c, 0, 89, 117
2, 36360, Note_on_c, 0, 77, 117
2, 36360, Note_on_c, 0, 60, 95
2, 36360, Note_on_c, 0, 48, 95
2, 36410, Note_on_c, 0, 48, 0
2, 36410, Note_on_c, 0, 77, 0
2, 36410, Note_on_c, 0, 81, 0
2, 36410, Note_on_c, 0, 89, 0
2, 36410, Note_on_c, 0, 60, 0
2, 36480, Note_on_c, 0, 81, 117
2, 36480, Note_on_c, 0, 89, 117
2, 36480, Note_on_c, 0, 77, 117
2, 36530, Note_on_c, 0, 77, 0
2, 36530, Note_on_c, 0, 89, 0
2, 36530, Note_on_c, 0, 81, 0
2, 36540, Note_on_c, 0, 48, 95
2, 36540, Note_on_c, 0, 36, 95
2, 36565, Note_on_c, 0, 36, 0
2, 36565, Note_on_c, 0, 48, 0
2, 36600, Note_on_c, 0, 79, 117
2, 36600, Note_on_c, 0, 88, 117
2, 36600, Note_on_c, 0, 76, 117
2, 36600, Note_on_c, 0, 48, 95
2, 36600, Note_on_c, 0, 36, 95
2, 36715, Note_on_c, 0, 36, 0
2, 36715, Note_on_c, 0, 76, 0
2, 36715, Note_on_c, 0, 79, 0
2, 36715, Note_on_c, 0, 88, 0
2, 36715, Note_on_c, 0, 48, 0
2, 36720, Note_on_c, 0, 77, 117
2, 36720, Note_on_c, 0, 86, 117
2, 36720, Note_on_c, 0, 74, 117
2, 36720, Note_on_c, 0, 60, 95
2, 36720, Note_on_c, 0, 48, 95
2, 36835, Note_on_c, 0, 48, 0
2, 36835, Note_on_c, 0, 74, 0
2, 36835, Note_on_c, 0, 77, 0
2, 36835, Note_on_c, 0, 86, 0
2, 36835, Note_on_c, 0, 60, 0
2, 36840, Note_on_c, 0, 77, 117
2, 36840, Note_on_c, 0, 86, 117
2, 36840, Note_on_c, 0, 74, 117
2, 36900, Note_on_c, 0, 48, 95
2, 36900, Note_on_c, 0, 36, 95
2, 36930, Note_on_c, 0, 36, 0
2, 36930, Note_on_c, 0, 48, 0
2, 36955, Note_on_c, 0, 77, 0
2, 36955, Note_on_c, 0, 86, 0
2, 36955, Note_on_c, 0, 74, 0
2, 36960, Note_on_c, 0, 76, 117
2, 36960, Note_on_c, 0, 84, 117
2, 36960, Note_on_c, 0, 72, 117
2, 36960, Note_on_c, 0, 48, 95
2, 36960, Note_on_c, 0, 36, 95
2, 37075, Note_on_c, 0, 36, 0
2, 37075, Note_on_c, 0, 72, 0
2, 37075, Note_on_c, 0, 76, 0
2, 37075, Note_on_c, 0, 84, 0
2, 37075, Note_on_c, 0, 48, 0
2, 37080, Note_on_c, 0, 77, 117
2, 37080, Note_on_c, 0, 86, 117
2, 37080, Note_on_c, 0, 74, 117
2, 37080, Note_on_c, 0, 60, 95
2, 37080, Note_on_c, 0, 48, 95
2, 37195, Note_on_c, 0, 48, 0
2, 37195, Note_on_c, 0, 74, 0
2, 37195, Note_on_c, 0, 77, 0
2, 37195, Note_on_c, 0, 86, 0
2, 37195, Note_on_c, 0, 60, 0
2, 37200, Note_on_c, 0, 77, 117
2, 37200, Note_on_c, 0, 86, 117
2, 37200, Note_on_c, 0, 74, 117
2, 37260, Note_on_c, 0, 48, 95
2, 37260, Note_on_c, 0, 36, 95
2, 37290, Note_on_c, 0, 36, 0
2, 37290, Note_on_c, 0, 48, 0
2, 37315, Note_on_c, 0, 77, 0
2, 37315, Note_on_c, 0, 86, 0
2, 37315, Note_on_c, 0, 74, 0
2, 37320, Note_on_c, 0, 74, 117
2, 37320, Note_on_c, 0, 83, 117
2, 37320, Note_on_c, 0, 71, 117
2, 37320, Note_on_c, 0, 48, 95
2, 37320, Note_on_c, 0, 36, 95
2, 37435, Note_on_c, 0, 36, 0
2, 37435, Note_on_c, 0, 71, 0
2, 37435, Note_on_c, 0, 74, 0
2, 37435, Note_on_c, 0, 83, 0
2, 37435, Note_on_c, 0, 48, 0
2, 37440, Note_on_c, 0, 84, 117
2, 37440, Note_on_c, 0, 88, 117
2, 37440, Note_on_c, 0, 76, 117
2, 37440, Note_on_c, 0, 60, 95
2, 37440, Note_on_c, 0, 48, 95
2, 37555, Note_on_c, 0, 48, 0
2, 37555, Note_on_c, 0, 76, 0
2, 37555, Note_on_c, 0, 84, 0
2, 37555, Note_on_c, 0, 88, 0
2, 37555, Note_on_c, 0, 60, 0
2, 37560, Note_on_c, 0, 84, 117
2, 37560, Note_on_c, 0, 88, 117
2, 37560, Note_on_c, 0, 76, 117
2, 37620, Note_on_c, 0, 48, 95
2, 37620, Note_on_c, 0, 36, 95
2, 37650, Note_on_c, 0, 36, 0
2, 37650, Note_on_c, 0, 48, 0
2, 37675, Note_on_c, 0, 84, 0
2, 37675, Note_on_c, 0, 88, 0
2, 37675, Note_on_c, 0, 76, 0
2, 37680, Note_on_c, 0, 86, 117
2, 37680, Note_on_c, 0, 89, 117
2, 37680, Note_on_c, 0, 77, 117
2, 37680, Note_on_c, 0, 48, 95
2, 37680, Note_on_c, 0, 36, 95
2, 37735, Note_on_c, 0, 36, 0
2, 37735, Note_on_c, 0, 77, 0
2, 37735, Note_on_c, 0, 86, 0
2, 37735, Note_on_c, 0, 89, 0
2, 37735, Note_on_c, 0, 48, 0
2, 37740, Note_on_c, 0, 88, 117
2, 37740, Note_on_c, 0, 91, 117
2, 37740, Note_on_c, 0, 79, 117
2, 37795, Note_on_c, 0, 79, 0
2, 37795, Note_on_c, 0, 91, 0
2, 37795, Note_on_c, 0, 88, 0
2, 37800, Note_on_c, 0, 89, 117
2, 37800, Note_on_c, 0, 93, 117
2, 37800, Note_on_c, 0, 81, 117
2, 37800, Note_on_c, 0, 60, 95
2, 37800, Note_on_c, 0, 48, 95
2, 37915, Note_on_c, 0, 48, 0
2, 37915, Note_on_c, 0, 81, 0
2, 37915, Note_on_c, 0, 89, 0
2, 37915, Note_on_c, 0, 93, 0
2, 37915, Note_on_c, 0, 60, 0
2, 37920, Note_on_c, 0, 89, 117
2, 37920, Note_on_c, 0, 93, 117
2, 37920, Note_on_c, 0, 81, 117
2, 37980, Note_on_c, 0, 48, 95
2, 37980, Note_on_c, 0, 36, 95
2, 38010, Note_on_c, 0, 36, 0
2, 38010, Note_on_c, 0, 48, 0
2, 38035, Note_on_c, 0, 89, 0
2, 38035, Note_on_c, 0, 93, 0
2, 38035, Note_on_c, 0, 81, 0
2, 38040, Note_on_c, 0, 88, 117
2, 38040, Note_on_c, 0, 91, 117
2, 38040, Note_on_c, 0, 79, 117
2, 38040, Note_on_c, 0, 48, 95
2, 38040, Note_on_c, 0, 36, 95
2, 38155, Note_on_c, 0, 36, 0
2, 38155, Note_on_c, 0, 79, 0
2, 38155, Note_on_c, 0, 88, 0
2, 38155, Note_on_c, 0, 91, 0
2, 38155, Note_on_c, 0, 48, 0
2, 38160, Note_on_c, 0, 86, 117
2, 38160, Note_on_c, 0, 89, 117
2, 38160, Note_on_c, 0, 77, 117
2, 38160, Note_on_c, 0, 60, 95
2, 38160, Note_on_c, 0, 48, 95
2, 38275, Note_on_c, 0, 48, 0
2, 38275, Note_on_c, 0, 77, 0
2, 38275, Note_on_c, 0, 86, 0
2, 38275, Note_on_c, 0, 89, 0
2, 38275, Note_on_c, 0, 60, 0
2, 38280, Note_on_c, 0, 86, 117
2, 38280, Note_on_c, 0, 89, 117
2, 38280, Note_on_c, 0, 77, 117
2, 38340, Note_on_c, 0, 48, 95
2, 38340, Note_on_c, 0, 36, 95
2, 38370, Note_on_c, 0, 36, 0
2, 38370, Note_on_c, 0, 48, 0
2, 38395, Note_on_c, 0, 86, 0
2, 38395, Note_on_c, 0, 89, 0
2, 38395, Note_on_c, 0, 77, 0
2, 38400, Note_on_c, 0, 84, 117
2, 38400, Note_on_c, 0, 88, 117
2, 38400, Note_on_c, 0, 76, 117
2, 38400, Note_on_c, 0, 48, 95
2, 38400, Note_on_c, 0, 36, 95
2, 38515, Note_on_c, 0, 36, 0
2, 38515, Note_on_c, 0, 76, 0
2, 38515, Note_on_c, 0, 84, 0
2, 38515, Note_on_c, 0, 88, 0
2, 38515, Note_on_c, 0, 48, 0
2, 38520, Note_on_c, 0, 86, 117
2, 38520, Note_on_c, 0, 89, 117
2, 38520, Note_on_c, 0, 77, 117
2, 38520, Note_on_c, 0, 60, 95
2, 38520, Note_on_c, 0, 48, 95
2, 38635, Note_on_c, 0, 48, 0
2, 38635, Note_on_c, 0, 77, 0
2, 38635, Note_on_c, 0, 86, 0
2, 38635, Note_on_c, 0, 89, 0
2, 38635, Note_on_c, 0, 60, 0
2, 38640, Note_on_c, 0, 86, 117
2, 38640, Note_on_c, 0, 89, 117
2, 38640, Note_on_c, 0, 77, 117
2, 38700, Note_on_c, 0, 48, 95
2, 38700, Note_on_c, 0, 36, 95
2, 38730, Note_on_c, 0, 36, 0
2, 38730, Note_on_c, 0, 48, 0
2, 38755, Note_on_c, 0, 86, 0
2, 38755, Note_on_c, 0, 89, 0
2, 38755, Note_on_c, 0, 77, 0
2, 38760, Note_on_c, 0, 83, 117
2, 38760, Note_on_c, 0, 86, 117
2, 38760, Note_on_c, 0, 74, 117
2, 38760, Note_on_c, 0, 48, 95
2, 38760, Note_on_c, 0, 36, 95
2, 38875, Note_on_c, 0, 36, 0
2, 38875, Note_on_c, 0, 74, 0
2, 38875, Note_on_c, 0, 83, 0
2, 38875, Note_on_c, 0, 86, 0
2, 38875, Note_on_c, 0, 48, 0
2, 38880, Note_on_c, 0, 88, 117
2, 38880, Note_on_c, 0, 76, 117
2, 38880, Note_on_c, 0, 60, 95
2, 38880, Note_on_c, 0, 48, 95
2, 38995, Note_on_c, 0, 48, 0
2, 38995, Note_on_c, 0, 88, 0
2, 38995, Note_on_c, 0, 76, 0
2, 38995, Note_on_c, 0, 60, 0
2, 39060, Note_on_c, 0, 76, 117
2, 39060, Note_on_c, 0, 64, 117
2, 39060, Note_on_c, 0, 48, 95
2, 39060, Note_on_c, 0, 36, 95
2, 39090, Note_on_c, 0, 36, 0
2, 39090, Note_on_c, 0, 76, 0
2, 39090, Note_on_c, 0, 64, 0
2, 39090, Note_on_c, 0, 48, 0
2, 39120, Note_on_c, 0, 76, 117
2, 39120, Note_on_c, 0, 64, 117
2, 39120, Note_on_c, 0, 48, 95
2, 39120, Note_on_c, 0, 36, 95
2, 39210, Note_on_c, 0, 36, 0
2, 39210, Note_on_c, 0, 76, 0
2, 39210, Note_on_c, 0, 64, 0
2, 39210, Note_on_c, 0, 48, 0
2, 39240, Note_on_c, 0, 88, 117
2, 39240, Note_on_c, 0, 76, 117
2, 39240, Note_on_c, 0, 60, 95
2, 39240, Note_on_c, 0, 48, 95
2, 39300, Note_on_c, 0, 48, 0
2, 39300, Note_on_c, 0, 88, 0
2, 39300, Note_on_c, 0, 76, 0
2, 39300, Note_on_c, 0, 60, 0
2, 39360, Note_on_c, 0, 89, 117
2, 39360, Note_on_c, 0, 77, 117
2, 39360, Note_on_c, 0, 62, 95
2, 39360, Note_on_c, 0, 50, 95
2, 39420, Note_on_c, 0, 50, 0
2, 39420, Note_on_c, 0, 89, 0
2, 39420, Note_on_c, 0, 77, 0
2, 39420, Note_on_c, 0, 62, 0
2, 39480, Note_on_c, 0, 91, 117
2, 39480, Note_on_c, 0, 79, 117
2, 39480, Note_on_c, 0, 64, 95
2, 39480, Note_on_c, 0, 52, 95
2, 39540, Note_on_c, 0, 52, 0
2, 39540, Note_on_c, 0, 91, 0
2, 39540, Note_on_c, 0, 79, 0
2, 39540, Note_on_c, 0, 64, 0
2, 39600, Note_on_c, 0, 93, 117
2, 39600, Note_on_c, 0, 81, 117
2, 39600, Note_on_c, 0, 65, 95
2, 39600, Note_on_c, 0, 53, 95
2, 39660, Note_on_c, 0, 53, 0
2, 39660, Note_on_c, 0, 93, 0
2, 39660, Note_on_c, 0, 81, 0
2, 39660, Note_on_c, 0, 65, 0
2, 39780, Note_on_c, 0, 45, 95
2, 39780, Note_on_c, 0, 41, 95
2, 39810, Note_on_c, 0, 41, 0
2, 39810, Note_on_c, 0, 45, 0
2, 39840, Note_on_c, 0, 45, 95
2, 39840, Note_on_c, 0, 41, 95
2, 39955, Note_on_c, 0, 41, 0
2, 39955, Note_on_c, 0, 45, 0
2, 39960, Note_on_c, 0, 81, 117
2, 39960, Note_on_c, 0, 69, 117
2, 39960, Note_on_c, 0, 57, 95
2, 39960, Note_on_c, 0, 53, 95
2, 40075, Note_on_c, 0, 53, 0
2, 40075, Note_on_c, 0, 81, 0
2, 40075, Note_on_c, 0, 69, 0
2, 40075, Note_on_c, 0, 57, 0
2, 40080, Note_on_c, 0, 83, 117
2, 40080, Note_on_c, 0, 71, 117
2, 40080, Note_on_c, 0, 53, 95
2, 40080, Note_on_c, 0, 50, 95
2, 40195, Note_on_c, 0, 50, 0
2, 40195, Note_on_c, 0, 83, 0
2, 40195, Note_on_c, 0, 71, 0
2, 40195, Note_on_c, 0, 53, 0
2, 40200, Note_on_c, 0, 84, 117
2, 40200, Note_on_c, 0, 72, 117
2, 40200, Note_on_c, 0, 52, 95
2, 40200, Note_on_c, 0, 48, 95
2, 40315, Note_on_c, 0, 48, 0
2, 40315, Note_on_c, 0, 84, 0
2, 40315, Note_on_c, 0, 72, 0
2, 40315, Note_on_c, 0, 52, 0
2, 40320, Note_on_c, 0, 86, 117
2, 40320, Note_on_c, 0, 74, 117
2, 40320, Note_on_c, 0, 50, 95
2, 40320, Note_on_c, 0, 59, 95
2, 40320, Note_on_c, 0, 47, 95
2, 40435, Note_on_c, 0, 47, 0
2, 40435, Note_on_c, 0, 50, 0
2, 40435, Note_on_c, 0, 86, 0
2, 40435, Note_on_c, 0, 74, 0
2, 40435, Note_on_c, 0, 59, 0
2, 40500, Note_on_c, 0, 74, 117
2, 40500, Note_on_c, 0, 62, 117
2, 40500, Note_on_c, 0, 47, 95
2, 40500, Note_on_c, 0, 35, 95
2, 40530, Note_on_c, 0, 35, 0
2, 40530, Note_on_c, 0, 74, 0
2, 40530, Note_on_c, 0, 62, 0
2, 40530, Note_on_c, 0, 47, 0
2, 40560, Note_on_c, 0, 74, 117
2, 40560, Note_on_c, 0, 62, 117
2, 40560, Note_on_c, 0, 47, 95
2, 40560, Note_on_c, 0, 35, 95
2, 40675, Note_on_c, 0, 35, 0
2, 40675, Note_on_c, 0, 74, 0
2, 40675, Note_on_c, 0, 62, 0
2, 40675, Note_on_c, 0, 47, 0
2, 40680, Note_on_c, 0, 86, 117
2, 40680, Note_on_c, 0, 74, 117
2, 40680, Note_on_c, 0, 59, 95
2, 40680, Note_on_c, 0, 47, 95
2, 40795, Note_on_c, 0, 47, 0
2, 40795, Note_on_c, 0, 86, 0
2, 40795, Note_on_c, 0, 74, 0
2, 40795, Note_on_c, 0, 59, 0
2, 40800, Note_on_c, 0, 88, 117
2, 40800, Note_on_c, 0, 76, 117
2, 40800, Note_on_c, 0, 60, 95
2, 40800, Note_on_c, 0, 48, 95
2, 40915, Note_on_c, 0, 48, 0
2, 40915, Note_on_c, 0, 88, 0
2, 40915, Note_on_c, 0, 76, 0
2, 40915, Note_on_c, 0, 60, 0
2, 40920, Note_on_c, 0, 89, 117
2, 40920, Note_on_c, 0, 77, 117
2, 40920, Note_on_c, 0, 62, 95
2, 40920, Note_on_c, 0, 50, 95
2, 41035, Note_on_c, 0, 50, 0
2, 41035, Note_on_c, 0, 89, 0
2, 41035, Note_on_c, 0, 77, 0
2, 41035, Note_on_c, 0, 62, 0
2, 41040, Note_on_c, 0, 91, 117
2, 41040, Note_on_c, 0, 79, 117
2, 41040, Note_on_c, 0, 64, 95
2, 41040, Note_on_c, 0, 52, 95
2, 41155, Note_on_c, 0, 52, 0
2, 41155, Note_on_c, 0, 91, 0
2, 41155, Note_on_c, 0, 79, 0
2, 41155, Note_on_c, 0, 64, 0
2, 41220, Note_on_c, 0, 43, 95
2, 41220, Note_on_c, 0, 40, 95
2, 41250, Note_on_c, 0, 40, 0
2, 41250, Note_on_c, 0, 43, 0
2, 41280, Note_on_c, 0, 43, 95
2, 41280, Note_on_c, 0, 40, 95
2, 41395, Note_on_c, 0, 40, 0
2, 41395, Note_on_c, 0, 43, 0
2, 41400, Note_on_c, 0, 67, 117
2, 41400, Note_on_c, 0, 55, 95
2, 41400, Note_on_c, 0, 52, 95
2, 41515, Note_on_c, 0, 52, 0
2, 41515, Note_on_c, 0, 55, 0
2, 41515, Note_on_c, 0, 67, 0
2, 41520, Note_on_c, 0, 64, 117
2, 41520, Note_on_c, 0, 48, 95
2, 41635, Note_on_c, 0, 48, 0
2, 41635, Note_on_c, 0, 64, 0
2, 41640, Note_on_c, 0, 62, 117
2, 41640, Note_on_c, 0, 47, 95
2, 41755, Note_on_c, 0, 47, 0
2, 41755, Note_on_c, 0, 62, 0
2, 41760, Note_on_c, 0, 60, 53
2, 41760, Note_on_c, 0, 52, 53
2, 41760, Note_on_c, 0, 55, 53
2, 41760, Note_on_c, 0, 72, 53
2, 41760, Note_on_c, 0, 46, 53
2, 41880, Note_on_c, 0, 65, 53
2, 41880, Note_on_c, 0, 50, 53
2, 41910, Note_on_c, 0, 52, 0
2, 41910, Note_on_c, 0, 60, 0
2, 41995, Note_on_c, 0, 65, 0
2, 41995, Note_on_c, 0, 50, 0
2, 42000, Note_on_c, 0, 64, 53
2, 42000, Note_on_c, 0, 48, 53
2, 42115, Note_on_c, 0, 48, 0
2, 42120, Note_on_c, 0, 64, 53
2, 42120, Note_on_c, 0, 55, 53
2, 42145, Note_on_c, 0, 64, 0
2, 42235, Note_on_c, 0, 46, 0
2, 42235, Note_on_c, 0, 72, 0
2, 42235, Note_on_c, 0, 55, 0
2, 42235, Note_on_c, 0, 55, 0
2, 42235, Note_on_c, 0, 64, 0
2, 42240, Note_on_c, 0, 65, 53
2, 42240, Note_on_c, 0, 74, 53
2, 42240, Note_on_c, 0, 53, 53
2, 42355, Note_on_c, 0, 53, 0
2, 42355, Note_on_c, 0, 74, 0
2, 42355, Note_on_c, 0, 65, 0
2, 42360, Note_on_c, 0, 67, 53
2, 42360, Note_on_c, 0, 76, 53
2, 42360, Note_on_c, 0, 52, 53
2, 42475, Note_on_c, 0, 52, 0
2, 42475, Note_on_c, 0, 76, 0
2, 42475, Note_on_c, 0, 67, 0
2, 42480, Note_on_c, 0, 55, 60
2, 42480, Note_on_c, 0, 65, 60
2, 42480, Note_on_c, 0, 50, 60
2, 42480, Note_on_c, 0, 77, 74
2, 42480, Note_on_c, 0, 46, 74
2, 42595, Note_on_c, 0, 50, 0
2, 42595, Note_on_c, 0, 55, 0
2, 42595, Note_on_c, 0, 65, 0
2, 42600, Note_on_c, 0, 64, 67
2, 42600, Note_on_c, 0, 48, 67
2, 42715, Note_on_c, 0, 48, 0
2, 42715, Note_on_c, 0, 46, 0
2, 42715, Note_on_c, 0, 77, 0
2, 42715, Note_on_c, 0, 64, 0
2, 42720, Note_on_c, 0, 65, 74
2, 42720, Note_on_c, 0, 50, 74
2, 42835, Note_on_c, 0, 50, 0
2, 42835, Note_on_c, 0, 65, 0
2, 42840, Note_on_c, 0, 67, 81
2, 42840, Note_on_c, 0, 52, 81
2, 42840, Note_on_c, 0, 76, 96
2, 42955, Note_on_c, 0, 52, 0
2, 42955, Note_on_c, 0, 67, 0
2, 42960, Note_on_c, 0, 53, 89
2, 42960, Note_on_c, 0, 60, 89
2, 42960, Note_on_c, 0, 45, 89
2, 43075, Note_on_c, 0, 45, 0
2, 43075, Note_on_c, 0, 76, 0
2, 43075, Note_on_c, 0, 53, 0
2, 43075, Note_on_c, 0, 60, 0
2, 43080, Note_on_c, 0, 55, 96
2, 43080, Note_on_c, 0, 72, 96
2, 43080, Note_on_c, 0, 43, 96
2, 43195, Note_on_c, 0, 43, 0
2, 43195, Note_on_c, 0, 55, 0
2, 43200, Note_on_c, 0, 72, 117
2, 43200, Note_on_c, 0, 76, 117
2, 43200, Note_on_c, 0, 64, 117
2, 43200, Note_on_c, 0, 54, 103
2, 43200, Note_on_c, 0, 45, 103
2, 43225, Note_on_c, 0, 72, 0
2, 43310, Note_on_c, 0, 54, 0
2, 43310, Note_on_c, 0, 45, 0
2, 43315, Note_on_c, 0, 72, 0
2, 43320, Note_on_c, 0, 55, 110
2, 43320, Note_on_c, 0, 43, 110
2, 43435, Note_on_c, 0, 43, 0
2, 43435, Note_on_c, 0, 64, 0
2, 43435, Note_on_c, 0, 76, 0
2, 43435, Note_on_c, 0, 55, 0
2, 43440, Note_on_c, 0, 57, 117
2, 43440, Note_on_c, 0, 42, 117
2, 43555, Note_on_c, 0, 42, 0
2, 43555, Note_on_c, 0, 57, 0
2, 43560, Note_on_c, 0, 55, 85
2, 43560, Note_on_c, 0, 43, 85
2, 43675, Note_on_c, 0, 55, 0
2, 43680, Note_on_c, 0, 74, 53
2, 43680, Note_on_c, 0, 62, 53
2, 43680, Note_on_c, 0, 53, 53
2, 43680, Note_on_c, 0, 43, 53
2, 43705, Note_on_c, 0, 43, 0
2, 43795, Note_on_c, 0, 53, 0
2, 43795, Note_on_c, 0, 74, 0
2, 43795, Note_on_c, 0, 62, 0
2, 43795, Note_on_c, 0, 43, 0
2, 43800, Note_on_c, 0, 72, 21
2, 43800, Note_on_c, 0, 60, 21
2, 43800, Note_on_c, 0, 52, 21
2, 43800, Note_on_c, 0, 43, 21
2, 43915, Note_on_c, 0, 43, 0
2, 43915, Note_on_c, 0, 72, 0
2, 43915, Note_on_c, 0, 60, 0
2, 43915, Note_on_c, 0, 52, 0
2, 43920, Note_on_c, 0, 84, 21
2, 43920, Note_on_c, 0, 89, 21
2, 43920, Note_on_c, 0, 77, 21
2, 43920, Note_on_c, 0, 55, 21
2, 43920, Note_on_c, 0, 58, 21
2, 43920, Note_on_c, 0, 67, 21
2, 43920, Note_on_c, 0, 46, 21
2, 44035, Note_on_c, 0, 67, 0
2, 44040, Note_on_c, 0, 60, 21
2, 44155, Note_on_c, 0, 60, 0
2, 44155, Note_on_c, 0, 46, 0
2, 44155, Note_on_c, 0, 89, 0
2, 44155, Note_on_c, 0, 77, 0
2, 44155, Note_on_c, 0, 84, 0
2, 44155, Note_on_c, 0, 58, 0
2, 44155, Note_on_c, 0, 55, 0
2, 44160, Note_on_c, 0, 62, 21
2, 44275, Note_on_c, 0, 62, 0
2, 44280, Note_on_c, 0, 84, 51
2, 44280, Note_on_c, 0, 88, 51
2, 44280, Note_on_c, 0, 76, 51
2, 44280, Note_on_c, 0, 64, 31
2, 44395, Note_on_c, 0, 64, 0
2, 44400, Note_on_c, 0, 65, 41
2, 44400, Note_on_c, 0, 57, 41
2, 44515, Note_on_c, 0, 57, 0
2, 44515, Note_on_c, 0, 84, 0
2, 44515, Note_on_c, 0, 76, 0
2, 44515, Note_on_c, 0, 88, 0
2, 44515, Note_on_c, 0, 65, 0
2, 44520, Note_on_c, 0, 67, 51
2, 44520, Note_on_c, 0, 55, 51
2, 44635, Note_on_c, 0, 55, 0
2, 44635, Note_on_c, 0, 67, 0
2, 44640, Note_on_c, 0, 84, 82
2, 44640, Note_on_c, 0, 88, 82
2, 44640, Note_on_c, 0, 76, 82
2, 44640, Note_on_c, 0, 66, 61
2, 44640, Note_on_c, 0, 57, 61
2, 44755, Note_on_c, 0, 57, 0
2, 44755, Note_on_c, 0, 66, 0
2, 44760, Note_on_c, 0, 67, 72
2, 44760, Note_on_c, 0, 55, 72
2, 44875, Note_on_c, 0, 55, 0
2, 44875, Note_on_c, 0, 84, 0
2, 44875, Note_on_c, 0, 76, 0
2, 44875, Note_on_c, 0, 88, 0
2, 44875, Note_on_c, 0, 67, 0
2, 44880, Note_on_c, 0, 69, 82
2, 44880, Note_on_c, 0, 54, 82
2, 44995, Note_on_c, 0, 54, 0
2, 44995, Note_on_c, 0, 69, 0
2, 45000, Note_on_c, 0, 67, 92
2, 45000, Note_on_c, 0, 55, 92
2, 45115, Note_on_c, 0, 55, 0
2, 45115, Note_on_c, 0, 67, 0
2, 45120, Note_on_c, 0, 86, 102
2, 45120, Note_on_c, 0, 89, 102
2, 45120, Note_on_c, 0, 77, 102
2, 45120, Note_on_c, 0, 65, 102
2, 45120, Note_on_c, 0, 53, 102
2, 45235, Note_on_c, 0, 53, 0
2, 45235, Note_on_c, 0, 77, 0
2, 45235, Note_on_c, 0, 86, 0
2, 45235, Note_on_c, 0, 89, 0
2, 45235, Note_on_c, 0, 65, 0
2, 45240, Note_on_c, 0, 88, 112
2, 45240, Note_on_c, 0, 91, 112
2, 45240, Note_on_c, 0, 79, 112
2, 45240, Note_on_c, 0, 64, 112
2, 45240, Note_on_c, 0, 52, 112
2, 45355, Note_on_c, 0, 52, 0
2, 45355, Note_on_c, 0, 79, 0
2, 45355, Note_on_c, 0, 88, 0
2, 45355, Note_on_c, 0, 91, 0
2, 45355, Note_on_c, 0, 64, 0
2, 45360, Note_on_c, 0, 91, 117
2, 45360, Note_on_c, 0, 79, 117
2, 45360, Note_on_c, 0, 64, 117
2, 45360, Note_on_c, 0, 52, 117
2, 45420, Note_on_c, 0, 52, 0
2, 45420, Note_on_c, 0, 91, 0
2, 45420, Note_on_c, 0, 79, 0
2, 45420, Note_on_c, 0, 64, 0
2, 45480, Note_on_c, 0, 88, 117
2, 45480, Note_on_c, 0, 76, 117
2, 45480, Note_on_c, 0, 60, 117
2, 45480, Note_on_c, 0, 48, 117
2, 45540, Note_on_c, 0, 48, 0
2, 45540, Note_on_c, 0, 88, 0
2, 45540, Note_on_c, 0, 76, 0
2, 45540, Note_on_c, 0, 60, 0
2, 45600, Note_on_c, 0, 93, 117
2, 45600, Note_on_c, 0, 81, 117
2, 45600, Note_on_c, 0, 65, 117
2, 45600, Note_on_c, 0, 53, 117
2, 45660, Note_on_c, 0, 53, 0
2, 45660, Note_on_c, 0, 93, 0
2, 45660, Note_on_c, 0, 81, 0
2, 45660, Note_on_c, 0, 65, 0
2, 45720, Note_on_c, 0, 89, 95
2, 45720, Note_on_c, 0, 77, 95
2, 45720, Note_on_c, 0, 62, 95
2, 45720, Note_on_c, 0, 50, 95
2, 45780, Note_on_c, 0, 50, 0
2, 45780, Note_on_c, 0, 89, 0
2, 45780, Note_on_c, 0, 77, 0
2, 45780, Note_on_c, 0, 62, 0
2, 45840, Note_on_c, 0, 86, 71
2, 45840, Note_on_c, 0, 74, 71
2, 45840, Note_on_c, 0, 59, 71
2, 45840, Note_on_c, 0, 47, 71
2, 45900, Note_on_c, 0, 47, 0
2, 45900, Note_on_c, 0, 86, 0
2, 45900, Note_on_c, 0, 74, 0
2, 45900, Note_on_c, 0, 59, 0
2, 45960, Note_on_c, 0, 91, 71
2, 45960, Note_on_c, 0, 79, 71
2, 45960, Note_on_c, 0, 55, 71
2, 45960, Note_on_c, 0, 43, 71
2, 46020, Note_on_c, 0, 43, 0
2, 46020, Note_on_c, 0, 91, 0
2, 46020, Note_on_c, 0, 79, 0
2, 46020, Note_on_c, 0, 55, 0
2, 46080, Note_on_c, 0, 76, 95
2, 46080, Note_on_c, 0, 64, 95
2, 46080, Note_on_c, 0, 55, 95
2, 46080, Note_on_c, 0, 43, 95
2, 46140, Note_on_c, 0, 43, 0
2, 46140, Note_on_c, 0, 76, 0
2, 46140, Note_on_c, 0, 64, 0
2, 46140, Note_on_c, 0, 55, 0
2, 46200, Note_on_c, 0, 72, 71
2, 46200, Note_on_c, 0, 64, 71
2, 46200, Note_on_c, 0, 60, 71
2, 46200, Note_on_c, 0, 48, 71
2, 46260, Note_on_c, 0, 48, 0
2, 46260, Note_on_c, 0, 72, 0
2, 46260, Note_on_c, 0, 64, 0
2, 46260, Note_on_c, 0, 60, 0
2, 46320, Note_on_c, 0, 72, 71
2, 46320, Note_on_c, 0, 77, 71
2, 46320, Note_on_c, 0, 65, 71
2, 46320, Note_on_c, 0, 57, 71
2, 46320, Note_on_c, 0, 45, 71
2, 46380, Note_on_c, 0, 45, 0
2, 46380, Note_on_c, 0, 65, 0
2, 46380, Note_on_c, 0, 72, 0
2, 46380, Note_on_c, 0, 77, 0
2, 46380, Note_on_c, 0, 57, 0
2, 46440, Note_on_c, 0, 69, 95
2, 46440, Note_on_c, 0, 74, 95
2, 46440, Note_on_c, 0, 62, 95
2, 46440, Note_on_c, 0, 53, 95
2, 46440, Note_on_c, 0, 41, 95
2, 46500, Note_on_c, 0, 41, 0
2, 46500, Note_on_c, 0, 62, 0
2, 46500, Note_on_c, 0, 69, 0
2, 46500, Note_on_c, 0, 74, 0
2, 46500, Note_on_c, 0, 53, 0
2, 46560, Note_on_c, 0, 71, 71
2, 46560, Note_on_c, 0, 67, 71
2, 46560, Note_on_c, 0, 55, 71
2, 46560, Note_on_c, 0, 43, 71
2, 46620, Note_on_c, 0, 43, 0
2, 46620, Note_on_c, 0, 71, 0
2, 46620, Note_on_c, 0, 67, 0
2, 46620, Note_on_c, 0, 55, 0
2, 46680, Note_on_c, 0, 72, 71
2, 46680, Note_on_c, 0, 76, 71
2, 46680, Note_on_c, 0, 64, 71
2, 46680, Note_on_c, 0, 55, 71
2, 46680, Note_on_c, 0, 43, 71
2, 46740, Note_on_c, 0, 43, 0
2, 46740, Note_on_c, 0, 64, 0
2, 46740, Note_on_c, 0, 72, 0
2, 46740, Note_on_c, 0, 76, 0
2, 46740, Note_on_c, 0, 55, 0
2, 46800, Note_on_c, 0, 88, 95
2, 46800, Note_on_c, 0, 91, 95
2, 46800, Note_on_c, 0, 79, 95
2, 46800, Note_on_c, 0, 48, 95
2, 46800, Note_on_c, 0, 36, 95
2, 46860, Note_on_c, 0, 36, 0
2, 46860, Note_on_c, 0, 79, 0
2, 46860, Note_on_c, 0, 88, 0
2, 46860, Note_on_c, 0, 91, 0
2, 46860, Note_on_c, 0, 48, 0
2, 46920, Note_on_c, 0, 88, 71
2, 46920, Note_on_c, 0, 76, 71
2, 46920, Note_on_c, 0, 60, 71
2, 46920, Note_on_c, 0, 48, 71
2, 46980, Note_on_c, 0, 48, 0
2, 46980, Note_on_c, 0, 88, 0
2, 46980, Note_on_c, 0, 76, 0
2, 46980, Note_on_c, 0, 60, 0
2, 47040, Note_on_c, 0, 93, 71
2, 47040, Note_on_c, 0, 81, 71
2, 47040, Note_on_c, 0, 65, 71
2, 47040, Note_on_c, 0, 53, 71
2, 47100, Note_on_c, 0, 53, 0
2, 47100, Note_on_c, 0, 93, 0
2, 47100, Note_on_c, 0, 81, 0
2, 47100, Note_on_c, 0, 65, 0
2, 47160, Note_on_c, 0, 89, 95
2, 47160, Note_on_c, 0, 77, 95
2, 47160, Note_on_c, 0, 62, 95
2, 47160, Note_on_c, 0, 50, 95
2, 47220, Note_on_c, 0, 50, 0
2, 47220, Note_on_c, 0, 89, 0
2, 47220, Note_on_c, 0, 77, 0
2, 47220, Note_on_c, 0, 62, 0
2, 47280, Note_on_c, 0, 86, 71
2, 47280, Note_on_c, 0, 74, 71
2, 47280, Note_on_c, 0, 59, 71
2, 47280, Note_on_c, 0, 47, 71
2, 47340, Note_on_c, 0, 47, 0
2, 47340, Note_on_c, 0, 86, 0
2, 47340, Note_on_c, 0, 74, 0
2, 47340, Note_on_c, 0, 59, 0
2, 47400, Note_on_c, 0, 91, 71
2, 47400, Note_on_c, 0, 79, 71
2, 47400, Note_on_c, 0, 55, 71
2, 47400, Note_on_c, 0, 43, 71
2, 47460, Note_on_c, 0, 43, 0
2, 47460, Note_on_c, 0, 91, 0
2, 47460, Note_on_c, 0, 79, 0
2, 47460, Note_on_c, 0, 55, 0
2, 47520, Note_on_c, 0, 76, 95
2, 47520, Note_on_c, 0, 79, 95
2, 47520, Note_on_c, 0, 67, 95
2, 47520, Note_on_c, 0, 55, 95
2, 47520, Note_on_c, 0, 43, 95
2, 47580, Note_on_c, 0, 43, 0
2, 47580, Note_on_c, 0, 67, 0
2, 47580, Note_on_c, 0, 76, 0
2, 47580, Note_on_c, 0, 79, 0
2, 47580, Note_on_c, 0, 55, 0
2, 47640, Note_on_c, 0, 72, 71
2, 47640, Note_on_c, 0, 79, 71
2, 47640, Note_on_c, 0, 67, 71
2, 47640, Note_on_c, 0, 52, 71
2, 47640, Note_on_c, 0, 40, 71
2, 47700, Note_on_c, 0, 40, 0
2, 47700, Note_on_c, 0, 67, 0
2, 47700, Note_on_c, 0, 72, 0
2, 47700, Note_on_c, 0, 79, 0
2, 47700, Note_on_c, 0, 52, 0
2, 47760, Note_on_c, 0, 77, 71
2, 47760, Note_on_c, 0, 79, 71
2, 47760, Note_on_c, 0, 67, 71
2, 47760, Note_on_c, 0, 57, 71
2, 47760, Note_on_c, 0, 45, 71
2, 47820, Note_on_c, 0, 45, 0
2, 47820, Note_on_c, 0, 67, 0
2, 47820, Note_on_c, 0, 77, 0
2, 47820, Note_on_c, 0, 79, 0
2, 47820, Note_on_c, 0, 57, 0
2, 47880, Note_on_c, 0, 74, 95
2, 47880, Note_on_c, 0, 79, 95
2, 47880, Note_on_c, 0, 67, 95
2, 47880, Note_on_c, 0, 53, 95
2, 47880, Note_on_c, 0, 41, 95
2, 47940, Note_on_c, 0, 41, 0
2, 47940, Note_on_c, 0, 67, 0
2, 47940, Note_on_c, 0, 74, 0
2, 47940, Note_on_c, 0, 79, 0
2, 47940, Note_on_c, 0, 53, 0
2, 48000, Note_on_c, 0, 71, 71
2, 48000, Note_on_c, 0, 79, 71
2, 48000, Note_on_c, 0, 67, 71
2, 48000, Note_on_c, 0, 50, 71
2, 48000, Note_on_c, 0, 38, 71
2, 48060, Note_on_c, 0, 38, 0
2, 48060, Note_on_c, 0, 67, 0
2, 48060, Note_on_c, 0, 71, 0
2, 48060, Note_on_c, 0, 79, 0
2, 48060, Note_on_c, 0, 50, 0
2, 48120, Note_on_c, 0, 76, 71
2, 48120, Note_on_c, 0, 79, 71
2, 48120, Note_on_c, 0, 67, 71
2, 48120, Note_on_c, 0, 55, 71
2, 48120, Note_on_c, 0, 43, 71
2, 48180, Note_on_c, 0, 43, 0
2, 48180, Note_on_c, 0, 67, 0
2, 48180, Note_on_c, 0, 76, 0
2, 48180, Note_on_c, 0, 79, 0
2, 48180, Note_on_c, 0, 55, 0
2, 48240, Note_on_c, 0, 84, 95
2, 48240, Note_on_c, 0, 88, 95
2, 48240, Note_on_c, 0, 76, 95
2, 48240, Note_on_c, 0, 48, 95
2, 48240, Note_on_c, 0, 36, 95
2, 48355, Note_on_c, 0, 76, 0
2, 48355, Note_on_c, 0, 84, 0
2, 48355, Note_on_c, 0, 88, 0
2, 48360, Note_on_c, 0, 79, 71
2, 48360, Note_on_c, 0, 84, 71
2, 48360, Note_on_c, 0, 76, 71
2, 48420, Note_on_c, 0, 60, 95
2, 48450, Note_on_c, 0, 60, 0
2, 48470, Note_on_c, 0, 76, 0
2, 48475, Note_on_c, 0, 79, 0
2, 48475, Note_on_c, 0, 36, 0
2, 48475, Note_on_c, 0, 48, 0
2, 48475, Note_on_c, 0, 84, 0
2, 48480, Note_on_c, 0, 88, 71
2, 48480, Note_on_c, 0, 91, 71
2, 48480, Note_on_c, 0, 79, 71
2, 48480, Note_on_c, 0, 60, 95
2, 48595, Note_on_c, 0, 60, 0
2, 48595, Note_on_c, 0, 88, 0
2, 48595, Note_on_c, 0, 91, 0
2, 48595, Note_on_c, 0, 79, 0
2, 48600, Note_on_c, 0, 86, 95
2, 48600, Note_on_c, 0, 89, 95
2, 48600, Note_on_c, 0, 77, 95
2, 48600, Note_on_c, 0, 59, 95
2, 48600, Note_on_c, 0, 67, 95
2, 48600, Note_on_c, 0, 55, 95
2, 48715, Note_on_c, 0, 55, 0
2, 48715, Note_on_c, 0, 89, 0
2, 48715, Note_on_c, 0, 77, 0
2, 48715, Note_on_c, 0, 86, 0
2, 48715, Note_on_c, 0, 67, 0
2, 48715, Note_on_c, 0, 59, 0
2, 48720, Note_on_c, 0, 83, 71
2, 48720, Note_on_c, 0, 86, 71
2, 48720, Note_on_c, 0, 77, 71
2, 48780, Note_on_c, 0, 55, 71
2, 48780, Note_on_c, 0, 43, 71
2, 48810, Note_on_c, 0, 43, 0
2, 48810, Note_on_c, 0, 55, 0
2, 48835, Note_on_c, 0, 83, 0
2, 48835, Note_on_c, 0, 86, 0
2, 48835, Note_on_c, 0, 77, 0
2, 48840, Note_on_c, 0, 83, 71
2, 48840, Note_on_c, 0, 91, 71
2, 48840, Note_on_c, 0, 77, 71
2, 48840, Note_on_c, 0, 55, 71
2, 48840, Note_on_c, 0, 43, 71
2, 48955, Note_on_c, 0, 43, 0
2, 48955, Note_on_c, 0, 77, 0
2, 48955, Note_on_c, 0, 83, 0
2, 48955, Note_on_c, 0, 91, 0
2, 48955, Note_on_c, 0, 55, 0
2, 48960, Note_on_c, 0, 84, 95
2, 48960, Note_on_c, 0, 88, 95
2, 48960, Note_on_c, 0, 76, 95
2, 48960, Note_on_c, 0, 48, 95
2, 48960, Note_on_c, 0, 36, 95
2, 49075, Note_on_c, 0, 36, 0
2, 49075, Note_on_c, 0, 76, 0
2, 49075, Note_on_c, 0, 84, 0
2, 49075, Note_on_c, 0, 88, 0
2, 49075, Note_on_c, 0, 48, 0
2, 49080, Note_on_c, 0, 79, 95
2, 49080, Note_on_c, 0, 84, 95
2, 49080, Note_on_c, 0, 76, 95
2, 49140, Note_on_c, 0, 60, 71
2, 49170, Note_on_c, 0, 60, 0
2, 49195, Note_on_c, 0, 79, 0
2, 49195, Note_on_c, 0, 84, 0
2, 49195, Note_on_c, 0, 76, 0
2, 49200, Note_on_c, 0, 88, 95
2, 49200, Note_on_c, 0, 91, 95
2, 49200, Note_on_c, 0, 79, 95
2, 49200, Note_on_c, 0, 60, 71
2, 49315, Note_on_c, 0, 60, 0
2, 49315, Note_on_c, 0, 88, 0
2, 49315, Note_on_c, 0, 91, 0
2, 49315, Note_on_c, 0, 79, 0
2, 49320, Note_on_c, 0, 86, 95
2, 49320, Note_on_c, 0, 89, 95
2, 49320, Note_on_c, 0, 77, 95
2, 49320, Note_on_c, 0, 59, 95
2, 49320, Note_on_c, 0, 67, 95
2, 49320, Note_on_c, 0, 55, 95
2, 49435, Note_on_c, 0, 55, 0
2, 49435, Note_on_c, 0, 89, 0
2, 49435, Note_on_c, 0, 77, 0
2, 49435, Note_on_c, 0, 86, 0
2, 49435, Note_on_c, 0, 67, 0
2, 49435, Note_on_c, 0, 59, 0
2, 49440, Note_on_c, 0, 83, 71
2, 49440, Note_on_c, 0, 86, 71
2, 49440, Note_on_c, 0, 77, 71
2, 49500, Note_on_c, 0, 55, 71
2, 49500, Note_on_c, 0, 43, 71
2, 49530, Note_on_c, 0, 43, 0
2, 49530, Note_on_c, 0, 55, 0
2, 49555, Note_on_c, 0, 83, 0
2, 49555, Note_on_c, 0, 86, 0
2, 49555, Note_on_c, 0, 77, 0
2, 49560, Note_on_c, 0, 83, 71
2, 49560, Note_on_c, 0, 91, 71
2, 49560, Note_on_c, 0, 77, 71
2, 49560, Note_on_c, 0, 55, 71
2, 49560, Note_on_c, 0, 43, 71
2, 49675, Note_on_c, 0, 43, 0
2, 49675, Note_on_c, 0, 77, 0
2, 49675, Note_on_c, 0, 83, 0
2, 49675, Note_on_c, 0, 91, 0
2, 49675, Note_on_c, 0, 55, 0
2, 49680, Note_on_c, 0, 79, 53
2, 49680, Note_on_c, 0, 67, 53
2, 49680, Note_on_c, 0, 60, 53
2, 49680, Note_on_c, 0, 65, 53
2, 49680, Note_on_c, 0, 57, 53
2, 49795, Note_on_c, 0, 57, 0
2, 49795, Note_on_c, 0, 60, 0
2, 49795, Note_on_c, 0, 79, 0
2, 49795, Note_on_c, 0, 67, 0
2, 49795, Note_on_c, 0, 65, 0
2, 49800, Note_on_c, 0, 81, 53
2, 49800, Note_on_c, 0, 69, 53
2, 49800, Note_on_c, 0, 59, 53
2, 49800, Note_on_c, 0, 64, 53
2, 49800, Note_on_c, 0, 55, 53
2, 49915, Note_on_c, 0, 55, 0
2, 49915, Note_on_c, 0, 59, 0
2, 49915, Note_on_c, 0, 81, 0
2, 49915, Note_on_c, 0, 69, 0
2, 49915, Note_on_c, 0, 64, 0
2, 49920, Note_on_c, 0, 83, 53
2, 49920, Note_on_c, 0, 71, 53
2, 49920, Note_on_c, 0, 57, 53
2, 49920, Note_on_c, 0, 62, 53
2, 49920, Note_on_c, 0, 53, 53
2, 50035, Note_on_c, 0, 53, 0
2, 50035, Note_on_c, 0, 57, 0
2, 50035, Note_on_c, 0, 83, 0
2, 50035, Note_on_c, 0, 71, 0
2, 50035, Note_on_c, 0, 62, 0
2, 50040, Note_on_c, 0, 84, 53
2, 50040, Note_on_c, 0, 72, 53
2, 50040, Note_on_c, 0, 55, 53
2, 50040, Note_on_c, 0, 60, 53
2, 50040, Note_on_c, 0, 52, 53
2, 50155, Note_on_c, 0, 52, 0
2, 50155, Note_on_c, 0, 55, 0
2, 50155, Note_on_c, 0, 84, 0
2, 50155, Note_on_c, 0, 72, 0
2, 50155, Note_on_c, 0, 60, 0
2, 50160, Note_on_c, 0, 86, 53
2, 50160, Note_on_c, 0, 74, 53
2, 50160, Note_on_c, 0, 53, 53
2, 50160, Note_on_c, 0, 59, 53
2, 50160, Note_on_c, 0, 50, 53
2, 50275, Note_on_c, 0, 50, 0
2, 50275, Note_on_c, 0, 53, 0
2, 50275, Note_on_c, 0, 86, 0
2, 50275, Note_on_c, 0, 74, 0
2, 50275, Note_on_c, 0, 59, 0
2, 50280, Note_on_c, 0, 88, 53
2, 50280, Note_on_c, 0, 76, 53
2, 50280, Note_on_c, 0, 52, 53
2, 50280, Note_on_c, 0, 57, 53
2, 50280, Note_on_c, 0, 48, 53
2, 50395, Note_on_c, 0, 48, 0
2, 50395, Note_on_c, 0, 52, 0
2, 50395, Note_on_c, 0, 88, 0
2, 50395, Note_on_c, 0, 76, 0
2, 50395, Note_on_c, 0, 57, 0
2, 50400, Note_on_c, 0, 89, 53
2, 50400, Note_on_c, 0, 77, 53
2, 50400, Note_on_c, 0, 47, 53
2, 50400, Note_on_c, 0, 50, 53
2, 50400, Note_on_c, 0, 55, 53
2, 50400, Note_on_c, 0, 43, 53
2, 50515, Note_on_c, 0, 43, 0
2, 50515, Note_on_c, 0, 77, 0
2, 50515, Note_on_c, 0, 47, 0
2, 50515, Note_on_c, 0, 89, 0
2, 50515, Note_on_c, 0, 55, 0
2, 50515, Note_on_c, 0, 50, 0
2, 50520, Note_on_c, 0, 88, 53
2, 50520, Note_on_c, 0, 76, 53
2, 50520, Note_on_c, 0, 52, 53
2, 50520, Note_on_c, 0, 57, 53
2, 50520, Note_on_c, 0, 48, 53
2, 50635, Note_on_c, 0, 48, 0
2, 50635, Note_on_c, 0, 52, 0
2, 50635, Note_on_c, 0, 88, 0
2, 50635, Note_on_c, 0, 76, 0
2, 50635, Note_on_c, 0, 57, 0
2, 50640, Note_on_c, 0, 89, 53
2, 50640, Note_on_c, 0, 77, 53
2, 50640, Note_on_c, 0, 50, 53
2, 50640, Note_on_c, 0, 55, 53
2, 50640, Note_on_c, 0, 47, 53
2, 50755, Note_on_c, 0, 47, 0
2, 50755, Note_on_c, 0, 50, 0
2, 50755, Note_on_c, 0, 89, 0
2, 50755, Note_on_c, 0, 77, 0
2, 50755, Note_on_c, 0, 55, 0
2, 50760, Note_on_c, 0, 91, 53
2, 50760, Note_on_c, 0, 79, 53
2, 50760, Note_on_c, 0, 60, 53
2, 50760, Note_on_c, 0, 65, 53
2, 50760, Note_on_c, 0, 57, 53
2, 50875, Note_on_c, 0, 57, 0
2, 50875, Note_on_c, 0, 60, 0
2, 50875, Note_on_c, 0, 91, 0
2, 50875, Note_on_c, 0, 79, 0
2, 50875, Note_on_c, 0, 65, 0
2, 50880, Note_on_c, 0, 93, 53
2, 50880, Note_on_c, 0, 81, 53
2, 50880, Note_on_c, 0, 59, 53
2, 50880, Note_on_c, 0, 64, 53
2, 50880, Note_on_c, 0, 55, 53
2, 50995, Note_on_c, 0, 55, 0
2, 50995, Note_on_c, 0, 59, 0
2, 50995, Note_on_c, 0, 93, 0
2, 50995, Note_on_c, 0, 81, 0
2, 50995, Note_on_c, 0, 64, 0
2, 51000, Note_on_c, 0, 95, 53
2, 51000, Note_on_c, 0, 83, 53
2, 51000, Note_on_c, 0, 57, 53
2, 51000, Note_on_c, 0, 62, 53
2, 51000, Note_on_c, 0, 53, 53
2, 51060, Note_on_c, 0, 55, 53
2, 51115, Note_on_c, 0, 55, 0
2, 51115, Note_on_c, 0, 83, 0
2, 51115, Note_on_c, 0, 57, 0
2, 51115, Note_on_c, 0, 95, 0
2, 51115, Note_on_c, 0, 53, 0
2, 51115, Note_on_c, 0, 62, 0
2, 51120, Note_on_c, 0, 84, 53
2, 51120, Note_on_c, 0, 96, 53
2, 51120, Note_on_c, 0, 52, 53
2, 51120, Note_on_c, 0, 60, 53
2, 51120, Note_on_c, 0, 48, 53
2, 51235, Note_on_c, 0, 48, 0
2, 51235, Note_on_c, 0, 52, 0
2, 51235, Note_on_c, 0, 84, 0
2, 51235, Note_on_c, 0, 96, 0
2, 51235, Note_on_c, 0, 60, 0
2, 51300, Note_on_c, 0, 55, 53
2, 51300, Note_on_c, 0, 60, 53
2, 51300, Note_on_c, 0, 52, 53
2, 51355, Note_on_c, 0, 52, 0
2, 51355, Note_on_c, 0, 60, 0
2, 51355, Note_on_c, 0, 55, 0
2, 51360, Note_on_c, 0, 55, 53
2, 51360, Note_on_c, 0, 60, 53
2, 51360, Note_on_c, 0, 52, 53
2, 51415, Note_on_c, 0, 52, 0
2, 51415, Note_on_c, 0, 60, 0
2, 51415, Note_on_c, 0, 55, 0
2, 51480, Note_on_c, 0, 76, 53
2, 51480, Note_on_c, 0, 84, 53
2, 51480, Note_on_c, 0, 72, 53
2, 51480, Note_on_c, 0, 60, 53
2, 51480, Note_on_c, 0, 45, 53
2, 51600, Note_on_c, 0, 45, 0
2, 51600, Note_on_c, 0, 72, 0
2, 51600, Note_on_c, 0, 76, 0
2, 51600, Note_on_c, 0, 84, 0
2, 51600, Note_on_c, 0, 60, 0
2, 51660, Note_on_c, 0, 69, 53
2, 51660, Note_on_c, 0, 72, 53
2, 51660, Note_on_c, 0, 64, 53
2, 51715, Note_on_c, 0, 64, 0
2, 51715, Note_on_c, 0, 72, 0
2, 51715, Note_on_c, 0, 69, 0
2, 51720, Note_on_c, 0, 69, 53
2, 51720, Note_on_c, 0, 72, 53
2, 51720, Note_on_c, 0, 64, 53
2, 51775, Note_on_c, 0, 64, 0
2, 51775, Note_on_c, 0, 72, 0
2, 51775, Note_on_c, 0, 69, 0
2, 51840, Note_on_c, 0, 69, 53
2, 51840, Note_on_c, 0, 72, 53
2, 51840, Note_on_c, 0, 65, 53
2, 51840, Note_on_c, 0, 57, 53
2, 51840, Note_on_c, 0, 41, 53
2, 51960, Note_on_c, 0, 41, 0
2, 51960, Note_on_c, 0, 65, 0
2, 51960, Note_on_c, 0, 69, 0
2, 51960, Note_on_c, 0, 72, 0
2, 51960, Note_on_c, 0, 57, 0
2, 52020, Note_on_c, 0, 57, 53
2, 52020, Note_on_c, 0, 60, 53
2, 52020, Note_on_c, 0, 53, 53
2, 52075, Note_on_c, 0, 53, 0
2, 52075, Note_on_c, 0, 60, 0
2, 52075, Note_on_c, 0, 57, 0
2, 52080, Note_on_c, 0, 57, 53
2, 52080, Note_on_c, 0, 60, 53
2, 52080, Note_on_c, 0, 53, 53
2, 52135, Note_on_c, 0, 53, 0
2, 52135, Note_on_c, 0, 60, 0
2, 52135, Note_on_c, 0, 57, 0
2, 52200, Note_on_c, 0, 77, 53
2, 52200, Note_on_c, 0, 86, 53
2, 52200, Note_on_c, 0, 74, 53
2, 52200, Note_on_c, 0, 57, 53
2, 52200, Note_on_c, 0, 62, 53
2, 52200, Note_on_c, 0, 50, 53
2, 52320, Note_on_c, 0, 50, 0
2, 52320, Note_on_c, 0, 86, 0
2, 52320, Note_on_c, 0, 74, 0
2, 52320, Note_on_c, 0, 77, 0
2, 52320, Note_on_c, 0, 62, 0
2, 52320, Note_on_c, 0, 57, 0
2, 52380, Note_on_c, 0, 69, 53
2, 52380, Note_on_c, 0, 74, 53
2, 52380, Note_on_c, 0, 65, 53
2, 52435, Note_on_c, 0, 65, 0
2, 52435, Note_on_c, 0, 74, 0
2, 52435, Note_on_c, 0, 69, 0
2, 52440, Note_on_c, 0, 69, 53
2, 52440, Note_on_c, 0, 74, 53
2, 52440, Note_on_c, 0, 65, 53
2, 52495, Note_on_c, 0, 65, 0
2, 52495, Note_on_c, 0, 74, 0
2, 52495, Note_on_c, 0, 69, 0
2, 52560, Note_on_c, 0, 69, 53
2, 52560, Note_on_c, 0, 74, 53
2, 52560, Note_on_c, 0, 65, 53
2, 52615, Note_on_c, 0, 65, 0
2, 52615, Note_on_c, 0, 74, 0
2, 52615, Note_on_c, 0, 69, 0
2, 54000, Note_on_c, 0, 81, 53
2, 54030, Note_on_c, 0, 81, 0
2, 54180, Note_on_c, 0, 69, 53
2, 54210, Note_on_c, 0, 69, 0
2, 54240, Note_on_c, 0, 69, 53
2, 54270, Note_on_c, 0, 69, 0
2, 54360, Note_on_c, 0, 74, 53
2, 54390, Note_on_c, 0, 74, 0
2, 54480, Note_on_c, 0, 76, 53
2, 54510, Note_on_c, 0, 76, 0
2, 54600, Note_on_c, 0, 77, 53
2, 54630, Note_on_c, 0, 77, 0
2, 54720, Note_on_c, 0, 76, 53
2, 54750, Note_on_c, 0, 76, 0
2, 54840, Note_on_c, 0, 77, 53
2, 54870, Note_on_c, 0, 77, 0
2, 54960, Note_on_c, 0, 79, 53
2, 54990, Note_on_c, 0, 79, 0
2, 55080, Note_on_c, 0, 77, 53
2, 55110, Note_on_c, 0, 77, 0
2, 55200, Note_on_c, 0, 76, 53
2, 55230, Note_on_c, 0, 76, 0
2, 55320, Note_on_c, 0, 74, 53
2, 55350, Note_on_c, 0, 74, 0
2, 55440, Note_on_c, 0, 77, 53
2, 55440, Note_on_c, 0, 74, 71
2, 55470, Note_on_c, 0, 74, 0
2, 55470, Note_on_c, 0, 77, 0
2, 55560, Note_on_c, 0, 76, 53
2, 55590, Note_on_c, 0, 76, 0
2, 55620, Note_on_c, 0, 62, 71
2, 55650, Note_on_c, 0, 62, 0
2, 55680, Note_on_c, 0, 74, 53
2, 55680, Note_on_c, 0, 62, 71
2, 55710, Note_on_c, 0, 62, 0
2, 55710, Note_on_c, 0, 74, 0
2, 55800, Note_on_c, 0, 72, 53
2, 55800, Note_on_c, 0, 69, 53
2, 55830, Note_on_c, 0, 69, 0
2, 55830, Note_on_c, 0, 72, 0
2, 55920, Note_on_c, 0, 71, 53
2, 55920, Note_on_c, 0, 71, 53
2, 55950, Note_on_c, 0, 71, 0
2, 55950, Note_on_c, 0, 71, 0
2, 56040, Note_on_c, 0, 69, 53
2, 56040, Note_on_c, 0, 72, 53
2, 56070, Note_on_c, 0, 72, 0
2, 56070, Note_on_c, 0, 69, 0
2, 56160, Note_on_c, 0, 68, 53
2, 56160, Note_on_c, 0, 71, 53
2, 56190, Note_on_c, 0, 71, 0
2, 56190, Note_on_c, 0, 68, 0
2, 56280, Note_on_c, 0, 69, 53
2, 56280, Note_on_c, 0, 72, 53
2, 56310, Note_on_c, 0, 72, 0
2, 56310, Note_on_c, 0, 69, 0
2, 56400, Note_on_c, 0, 71, 53
2, 56400, Note_on_c, 0, 74, 53
2, 56430, Note_on_c, 0, 74, 0
2, 56430, Note_on_c, 0, 71, 0
2, 56520, Note_on_c, 0, 69, 53
2, 56520, Note_on_c, 0, 72, 53
2, 56550, Note_on_c, 0, 72, 0
2, 56550, Note_on_c, 0, 69, 0
2, 56640, Note_on_c, 0, 68, 53
2, 56640, Note_on_c, 0, 71, 53
2, 56670, Note_on_c, 0, 71, 0
2, 56670, Note_on_c, 0, 68, 0
2, 56760, Note_on_c, 0, 69, 53
2, 56790, Note_on_c, 0, 69, 0
2, 56880, Note_on_c, 0, 70, 53
2, 56880, Note_on_c, 0, 67, 53
2, 56880, Note_on_c, 0, 69, 71
2, 56910, Note_on_c, 0, 69, 0
2, 56910, Note_on_c, 0, 67, 0
2, 56910, Note_on_c, 0, 70, 0
2, 57000, Note_on_c, 0, 69, 53
2, 57000, Note_on_c, 0, 65, 53
2, 57030, Note_on_c, 0, 65, 0
2, 57030, Note_on_c, 0, 69, 0
2, 57060, Note_on_c, 0, 57, 71
2, 57090, Note_on_c, 0, 57, 0
2, 57120, Note_on_c, 0, 67, 53
2, 57120, Note_on_c, 0, 64, 53
2, 57120, Note_on_c, 0, 57, 71
2, 57150, Note_on_c, 0, 57, 0
2, 57150, Note_on_c, 0, 64, 0
2, 57150, Note_on_c, 0, 67, 0
2, 57240, Note_on_c, 0, 65, 53
2, 57240, Note_on_c, 0, 62, 53
2, 57270, Note_on_c, 0, 62, 0
2, 57270, Note_on_c, 0, 65, 0
2, 57360, Note_on_c, 0, 67, 53
2, 57360, Note_on_c, 0, 64, 53
2, 57390, Note_on_c, 0, 64, 0
2, 57390, Note_on_c, 0, 67, 0
2, 57480, Note_on_c, 0, 69, 53
2, 57480, Note_on_c, 0, 62, 53
2, 57480, Note_on_c, 0, 65, 53
2, 57510, Note_on_c, 0, 65, 0
2, 57510, Note_on_c, 0, 62, 0
2, 57510, Note_on_c, 0, 69, 0
2, 57600, Note_on_c, 0, 69, 53
2, 57600, Note_on_c, 0, 64, 53
2, 57600, Note_on_c, 0, 61, 53
2, 57630, Note_on_c, 0, 61, 0
2, 57630, Note_on_c, 0, 64, 0
2, 57630, Note_on_c, 0, 69, 0
2, 57720, Note_on_c, 0, 69, 53
2, 57720, Note_on_c, 0, 65, 53
2, 57720, Note_on_c, 0, 62, 53
2, 57750, Note_on_c, 0, 62, 0
2, 57750, Note_on_c, 0, 65, 0
2, 57750, Note_on_c, 0, 69, 0
2, 57840, Note_on_c, 0, 69, 53
2, 57840, Note_on_c, 0, 67, 53
2, 57840, Note_on_c, 0, 64, 53
2, 57870, Note_on_c, 0, 64, 0
2, 57870, Note_on_c, 0, 67, 0
2, 57870, Note_on_c, 0, 69, 0
2, 57960, Note_on_c, 0, 69, 53
2, 57960, Note_on_c, 0, 65, 53
2, 57960, Note_on_c, 0, 62, 53
2, 57990, Note_on_c, 0, 62, 0
2, 57990, Note_on_c, 0, 65, 0
2, 57990, Note_on_c, 0, 69, 0
2, 58080, Note_on_c, 0, 69, 53
2, 58080, Note_on_c, 0, 64, 53
2, 58080, Note_on_c, 0, 61, 53
2, 58110, Note_on_c, 0, 61, 0
2, 58110, Note_on_c, 0, 64, 0
2, 58110, Note_on_c, 0, 69, 0
2, 58200, Note_on_c, 0, 81, 53
2, 58200, Note_on_c, 0, 62, 53
2, 58230, Note_on_c, 0, 62, 0
2, 58230, Note_on_c, 0, 81, 0
2, 58320, Note_on_c, 0, 86, 71
2, 58320, Note_on_c, 0, 69, 53
2, 58320, Note_on_c, 0, 65, 53
2, 58350, Note_on_c, 0, 65, 0
2, 58350, Note_on_c, 0, 69, 0
2, 58350, Note_on_c, 0, 86, 0
2, 58440, Note_on_c, 0, 67, 53
2, 58440, Note_on_c, 0, 64, 53
2, 58470, Note_on_c, 0, 64, 0
2, 58470, Note_on_c, 0, 67, 0
2, 58500, Note_on_c, 0, 74, 71
2, 58530, Note_on_c, 0, 74, 0
2, 58560, Note_on_c, 0, 74, 71
2, 58560, Note_on_c, 0, 65, 53
2, 58560, Note_on_c, 0, 62, 53
2, 58590, Note_on_c, 0, 62, 0
2, 58590, Note_on_c, 0, 65, 0
2, 58590, Note_on_c, 0, 74, 0
2, 58680, Note_on_c, 0, 81, 53
2, 58680, Note_on_c, 0, 76, 53
2, 58680, Note_on_c, 0, 64, 53
2, 58680, Note_on_c, 0, 60, 53
2, 58710, Note_on_c, 0, 60, 0
2, 58710, Note_on_c, 0, 81, 0
2, 58710, Note_on_c, 0, 76, 0
2, 58710, Note_on_c, 0, 64, 0
2, 58800, Note_on_c, 0, 83, 53
2, 58800, Note_on_c, 0, 74, 53
2, 58800, Note_on_c, 0, 64, 53
2, 58800, Note_on_c, 0, 59, 53
2, 58830, Note_on_c, 0, 59, 0
2, 58830, Note_on_c, 0, 83, 0
2, 58830, Note_on_c, 0, 74, 0
2, 58830, Note_on_c, 0, 64, 0
2, 58920, Note_on_c, 0, 84, 53
2, 58920, Note_on_c, 0, 72, 53
2, 58920, Note_on_c, 0, 64, 53
2, 58920, Note_on_c, 0, 57, 53
2, 58950, Note_on_c, 0, 57, 0
2, 58950, Note_on_c, 0, 84, 0
2, 58950, Note_on_c, 0, 72, 0
2, 58950, Note_on_c, 0, 64, 0
2, 59040, Note_on_c, 0, 83, 53
2, 59040, Note_on_c, 0, 71, 53
2, 59040, Note_on_c, 0, 64, 53
2, 59040, Note_on_c, 0, 56, 53
2, 59070, Note_on_c, 0, 56, 0
2, 59070, Note_on_c, 0, 83, 0
2, 59070, Note_on_c, 0, 71, 0
2, 59070, Note_on_c, 0, 64, 0
2, 59160, Note_on_c, 0, 84, 53
2, 59160, Note_on_c, 0, 76, 53
2, 59160, Note_on_c, 0, 69, 53
2, 59160, Note_on_c, 0, 57, 53
2, 59190, Note_on_c, 0, 57, 0
2, 59190, Note_on_c, 0, 84, 0
2, 59190, Note_on_c, 0, 76, 0
2, 59190, Note_on_c, 0, 69, 0
2, 59280, Note_on_c, 0, 86, 53
2, 59280, Note_on_c, 0, 76, 53
2, 59280, Note_on_c, 0, 68, 53
2, 59280, Note_on_c, 0, 59, 53
2, 59310, Note_on_c, 0, 59, 0
2, 59310, Note_on_c, 0, 86, 0
2, 59310, Note_on_c, 0, 76, 0
2, 59310, Note_on_c, 0, 68, 0
2, 59400, Note_on_c, 0, 84, 53
2, 59400, Note_on_c, 0, 76, 53
2, 59400, Note_on_c, 0, 69, 53
2, 59400, Note_on_c, 0, 57, 53
2, 59430, Note_on_c, 0, 57, 0
2, 59430, Note_on_c, 0, 84, 0
2, 59430, Note_on_c, 0, 76, 0
2, 59430, Note_on_c, 0, 69, 0
2, 59520, Note_on_c, 0, 83, 53
2, 59520, Note_on_c, 0, 74, 53
2, 59520, Note_on_c, 0, 64, 53
2, 59520, Note_on_c, 0, 56, 53
2, 59550, Note_on_c, 0, 56, 0
2, 59550, Note_on_c, 0, 83, 0
2, 59550, Note_on_c, 0, 74, 0
2, 59550, Note_on_c, 0, 64, 0
2, 59640, Note_on_c, 0, 81, 53
2, 59640, Note_on_c, 0, 72, 53
2, 59640, Note_on_c, 0, 64, 53
2, 59640, Note_on_c, 0, 57, 53
2, 59670, Note_on_c, 0, 57, 0
2, 59670, Note_on_c, 0, 81, 0
2, 59670, Note_on_c, 0, 72, 0
2, 59670, Note_on_c, 0, 64, 0
2, 59760, Note_on_c, 0, 79, 53
2, 59760, Note_on_c, 0, 82, 53
2, 59760, Note_on_c, 0, 73, 53
2, 59760, Note_on_c, 0, 57, 53
2, 59790, Note_on_c, 0, 57, 0
2, 59790, Note_on_c, 0, 79, 0
2, 59790, Note_on_c, 0, 82, 0
2, 59790, Note_on_c, 0, 73, 0
2, 59880, Note_on_c, 0, 77, 53
2, 59880, Note_on_c, 0, 81, 53
2, 59880, Note_on_c, 0, 74, 53
2, 59910, Note_on_c, 0, 74, 0
2, 59910, Note_on_c, 0, 81, 0
2, 59910, Note_on_c, 0, 77, 0
2, 59940, Note_on_c, 0, 45, 53
2, 59970, Note_on_c, 0, 45, 0
2, 60000, Note_on_c, 0, 76, 53
2, 60000, Note_on_c, 0, 79, 53
2, 60000, Note_on_c, 0, 67, 53
2, 60000, Note_on_c, 0, 45, 53
2, 60030, Note_on_c, 0, 45, 0
2, 60030, Note_on_c, 0, 76, 0
2, 60030, Note_on_c, 0, 79, 0
2, 60030, Note_on_c, 0, 67, 0
2, 60120, Note_on_c, 0, 74, 53
2, 60120, Note_on_c, 0, 77, 53
2, 60120, Note_on_c, 0, 65, 53
2, 60120, Note_on_c, 0, 50, 53
2, 60150, Note_on_c, 0, 50, 0
2, 60150, Note_on_c, 0, 74, 0
2, 60150, Note_on_c, 0, 77, 0
2, 60150, Note_on_c, 0, 65, 0
2, 60240, Note_on_c, 0, 73, 53
2, 60240, Note_on_c, 0, 76, 53
2, 60240, Note_on_c, 0, 67, 53
2, 60240, Note_on_c, 0, 57, 53
2, 60240, Note_on_c, 0, 52, 53
2, 60270, Note_on_c, 0, 52, 0
2, 60270, Note_on_c, 0, 67, 0
2, 60270, Note_on_c, 0, 73, 0
2, 60270, Note_on_c, 0, 76, 0
2, 60270, Note_on_c, 0, 57, 0
2, 60360, Note_on_c, 0, 74, 53
2, 60360, Note_on_c, 0, 69, 53
2, 60360, Note_on_c, 0, 57, 53
2, 60360, Note_on_c, 0, 53, 53
2, 60390, Note_on_c, 0, 53, 0
2, 60390, Note_on_c, 0, 74, 0
2, 60390, Note_on_c, 0, 69, 0
2, 60390, Note_on_c, 0, 57, 0
2, 60480, Note_on_c, 0, 69, 53
2, 60480, Note_on_c, 0, 73, 53
2, 60480, Note_on_c, 0, 67, 53
2, 60480, Note_on_c, 0, 57, 53
2, 60480, Note_on_c, 0, 52, 53
2, 60510, Note_on_c, 0, 52, 0
2, 60510, Note_on_c, 0, 67, 0
2, 60510, Note_on_c, 0, 69, 0
2, 60510, Note_on_c, 0, 73, 0
2, 60510, Note_on_c, 0, 57, 0
2, 60600, Note_on_c, 0, 69, 53
2, 60600, Note_on_c, 0, 74, 53
2, 60600, Note_on_c, 0, 65, 53
2, 60600, Note_on_c, 0, 57, 53
2, 60600, Note_on_c, 0, 53, 53
2, 60630, Note_on_c, 0, 53, 0
2, 60630, Note_on_c, 0, 65, 0
2, 60630, Note_on_c, 0, 69, 0
2, 60630, Note_on_c, 0, 74, 0
2, 60630, Note_on_c, 0, 57, 0
2, 60720, Note_on_c, 0, 69, 53
2, 60720, Note_on_c, 0, 76, 53
2, 60720, Note_on_c, 0, 64, 53
2, 60720, Note_on_c, 0, 57, 53
2, 60720, Note_on_c, 0, 55, 53
2, 60750, Note_on_c, 0, 55, 0
2, 60750, Note_on_c, 0, 64, 0
2, 60750, Note_on_c, 0, 69, 0
2, 60750, Note_on_c, 0, 76, 0
2, 60750, Note_on_c, 0, 57, 0
2, 60840, Note_on_c, 0, 69, 53
2, 60840, Note_on_c, 0, 74, 53
2, 60840, Note_on_c, 0, 62, 53
2, 60840, Note_on_c, 0, 57, 53
2, 60840, Note_on_c, 0, 53, 53
2, 60870, Note_on_c, 0, 53, 0
2, 60870, Note_on_c, 0, 62, 0
2, 60870, Note_on_c, 0, 69, 0
2, 60870, Note_on_c, 0, 74, 0
2, 60870, Note_on_c, 0, 57, 0
2, 60960, Note_on_c, 0, 69, 53
2, 60960, Note_on_c, 0, 73, 53
2, 60960, Note_on_c, 0, 67, 53
2, 60960, Note_on_c, 0, 57, 53
2, 60960, Note_on_c, 0, 52, 53
2, 60990, Note_on_c, 0, 52, 0
2, 60990, Note_on_c, 0, 67, 0
2, 60990, Note_on_c, 0, 69, 0
2, 60990, Note_on_c, 0, 73, 0
2, 60990, Note_on_c, 0, 57, 0
2, 61080, Note_on_c, 0, 69, 53
2, 61080, Note_on_c, 0, 74, 53
2, 61080, Note_on_c, 0, 65, 53
2, 61080, Note_on_c, 0, 57, 53
2, 61080, Note_on_c, 0, 50, 53
2, 61110, Note_on_c, 0, 50, 0
2, 61110, Note_on_c, 0, 65, 0
2, 61110, Note_on_c, 0, 69, 0
2, 61110, Note_on_c, 0, 74, 0
2, 61110, Note_on_c, 0, 57, 0
2, 61200, Note_on_c, 0, 81, 53
2, 61200, Note_on_c, 0, 69, 53
2, 61200, Note_on_c, 0, 57, 53
2, 61200, Note_on_c, 0, 53, 53
2, 61230, Note_on_c, 0, 53, 0
2, 61230, Note_on_c, 0, 81, 0
2, 61230, Note_on_c, 0, 69, 0
2, 61230, Note_on_c, 0, 57, 0
2, 61320, Note_on_c, 0, 79, 53
2, 61320, Note_on_c, 0, 81, 53
2, 61320, Note_on_c, 0, 69, 53
2, 61320, Note_on_c, 0, 57, 53
2, 61320, Note_on_c, 0, 52, 53
2, 61350, Note_on_c, 0, 52, 0
2, 61350, Note_on_c, 0, 69, 0
2, 61350, Note_on_c, 0, 79, 0
2, 61350, Note_on_c, 0, 81, 0
2, 61350, Note_on_c, 0, 57, 0
2, 61440, Note_on_c, 0, 77, 53
2, 61440, Note_on_c, 0, 81, 53
2, 61440, Note_on_c, 0, 69, 53
2, 61440, Note_on_c, 0, 57, 53
2, 61440, Note_on_c, 0, 50, 53
2, 61470, Note_on_c, 0, 50, 0
2, 61470, Note_on_c, 0, 69, 0
2, 61470, Note_on_c, 0, 77, 0
2, 61470, Note_on_c, 0, 81, 0
2, 61470, Note_on_c, 0, 57, 0
2, 61560, Note_on_c, 0, 76, 53
2, 61560, Note_on_c, 0, 81, 53
2, 61560, Note_on_c, 0, 69, 53
2, 61560, Note_on_c, 0, 52, 53
2, 61560, Note_on_c, 0, 48, 53
2, 61590, Note_on_c, 0, 48, 0
2, 61590, Note_on_c, 0, 69, 0
2, 61590, Note_on_c, 0, 76, 0
2, 61590, Note_on_c, 0, 81, 0
2, 61590, Note_on_c, 0, 52, 0
2, 61680, Note_on_c, 0, 80, 53
2, 61680, Note_on_c, 0, 88, 53
2, 61680, Note_on_c, 0, 76, 53
2, 61680, Note_on_c, 0, 50, 53
2, 61680, Note_on_c, 0, 47, 53
2, 61710, Note_on_c, 0, 47, 0
2, 61710, Note_on_c, 0, 76, 0
2, 61710, Note_on_c, 0, 80, 0
2, 61710, Note_on_c, 0, 88, 0
2, 61710, Note_on_c, 0, 50, 0
2, 61800, Note_on_c, 0, 81, 53
2, 61800, Note_on_c, 0, 88, 53
2, 61800, Note_on_c, 0, 76, 53
2, 61800, Note_on_c, 0, 48, 53
2, 61800, Note_on_c, 0, 45, 53
2, 61830, Note_on_c, 0, 45, 0
2, 61830, Note_on_c, 0, 76, 0
2, 61830, Note_on_c, 0, 81, 0
2, 61830, Note_on_c, 0, 88, 0
2, 61830, Note_on_c, 0, 48, 0
2, 61920, Note_on_c, 0, 83, 53
2, 61920, Note_on_c, 0, 88, 53
2, 61920, Note_on_c, 0, 76, 53
2, 61920, Note_on_c, 0, 50, 53
2, 61920, Note_on_c, 0, 44, 53
2, 61950, Note_on_c, 0, 44, 0
2, 61950, Note_on_c, 0, 76, 0
2, 61950, Note_on_c, 0, 83, 0
2, 61950, Note_on_c, 0, 88, 0
2, 61950, Note_on_c, 0, 50, 0
2, 62040, Note_on_c, 0, 84, 53
2, 62040, Note_on_c, 0, 88, 53
2, 62040, Note_on_c, 0, 76, 53
2, 62040, Note_on_c, 0, 48, 53
2, 62040, Note_on_c, 0, 45, 53
2, 62070, Note_on_c, 0, 45, 0
2, 62070, Note_on_c, 0, 76, 0
2, 62070, Note_on_c, 0, 84, 0
2, 62070, Note_on_c, 0, 88, 0
2, 62070, Note_on_c, 0, 48, 0
2, 62160, Note_on_c, 0, 86, 53
2, 62160, Note_on_c, 0, 88, 53
2, 62160, Note_on_c, 0, 76, 53
2, 62160, Note_on_c, 0, 47, 53
2, 62190, Note_on_c, 0, 47, 0
2, 62190, Note_on_c, 0, 86, 0
2, 62190, Note_on_c, 0, 88, 0
2, 62190, Note_on_c, 0, 76, 0
2, 62280, Note_on_c, 0, 84, 53
2, 62280, Note_on_c, 0, 88, 53
2, 62280, Note_on_c, 0, 76, 53
2, 62280, Note_on_c, 0, 45, 53
2, 62310, Note_on_c, 0, 45, 0
2, 62310, Note_on_c, 0, 84, 0
2, 62310, Note_on_c, 0, 88, 0
2, 62310, Note_on_c, 0, 76, 0
2, 62400, Note_on_c, 0, 83, 53
2, 62400, Note_on_c, 0, 88, 53
2, 62400, Note_on_c, 0, 76, 53
2, 62400, Note_on_c, 0, 62, 53
2, 62400, Note_on_c, 0, 56, 53
2, 62430, Note_on_c, 0, 56, 0
2, 62430, Note_on_c, 0, 76, 0
2, 62430, Note_on_c, 0, 83, 0
2, 62430, Note_on_c, 0, 88, 0
2, 62430, Note_on_c, 0, 62, 0
2, 62520, Note_on_c, 0, 81, 53
2, 62520, Note_on_c, 0, 69, 53
2, 62520, Note_on_c, 0, 60, 53
2, 62520, Note_on_c, 0, 57, 53
2, 62550, Note_on_c, 0, 57, 0
2, 62550, Note_on_c, 0, 81, 0
2, 62550, Note_on_c, 0, 69, 0
2, 62550, Note_on_c, 0, 60, 0
2, 62640, Note_on_c, 0, 73, 53
2, 62640, Note_on_c, 0, 81, 53
2, 62640, Note_on_c, 0, 69, 53
2, 62640, Note_on_c, 0, 58, 53
2, 62640, Note_on_c, 0, 55, 53
2, 62670, Note_on_c, 0, 55, 0
2, 62670, Note_on_c, 0, 69, 0
2, 62670, Note_on_c, 0, 73, 0
2, 62670, Note_on_c, 0, 81, 0
2, 62670, Note_on_c, 0, 58, 0
2, 62760, Note_on_c, 0, 74, 53
2, 62760, Note_on_c, 0, 81, 53
2, 62760, Note_on_c, 0, 69, 53
2, 62760, Note_on_c, 0, 57, 53
2, 62760, Note_on_c, 0, 53, 53
2, 62790, Note_on_c, 0, 53, 0
2, 62790, Note_on_c, 0, 69, 0
2, 62790, Note_on_c, 0, 74, 0
2, 62790, Note_on_c, 0, 81, 0
2, 62790, Note_on_c, 0, 57, 0
2, 62880, Note_on_c, 0, 76, 53
2, 62880, Note_on_c, 0, 81, 53
2, 62880, Note_on_c, 0, 69, 53
2, 62880, Note_on_c, 0, 55, 53
2, 62880, Note_on_c, 0, 52, 53
2, 62910, Note_on_c, 0, 52, 0
2, 62910, Note_on_c, 0, 69, 0
2, 62910, Note_on_c, 0, 76, 0
2, 62910, Note_on_c, 0, 81, 0
2, 62910, Note_on_c, 0, 55, 0
2, 63000, Note_on_c, 0, 74, 53
2, 63000, Note_on_c, 0, 81, 53
2, 63000, Note_on_c, 0, 69, 53
2, 63000, Note_on_c, 0, 57, 53
2, 63000, Note_on_c, 0, 53, 53
2, 63030, Note_on_c, 0, 53, 0
2, 63030, Note_on_c, 0, 69, 0
2, 63030, Note_on_c, 0, 74, 0
2, 63030, Note_on_c, 0, 81, 0
2, 63030, Note_on_c, 0, 57, 0
2, 63120, Note_on_c, 0, 81, 53
2, 63120, Note_on_c, 0, 69, 53
2, 63120, Note_on_c, 0, 55, 53
2, 63120, Note_on_c, 0, 52, 53
2, 63150, Note_on_c, 0, 52, 0
2, 63150, Note_on_c, 0, 81, 0
2, 63150, Note_on_c, 0, 69, 0
2, 63150, Note_on_c, 0, 55, 0
2, 63240, Note_on_c, 0, 81, 53
2, 63240, Note_on_c, 0, 69, 53
2, 63240, Note_on_c, 0, 53, 53
2, 63240, Note_on_c, 0, 50, 53
2, 63270, Note_on_c, 0, 50, 0
2, 63270, Note_on_c, 0, 81, 0
2, 63270, Note_on_c, 0, 69, 0
2, 63270, Note_on_c, 0, 53, 0
2, 63360, Note_on_c, 0, 82, 53
2, 63360, Note_on_c, 0, 69, 53
2, 63360, Note_on_c, 0, 49, 53
2, 63360, Note_on_c, 0, 52, 53
2, 63360, Note_on_c, 0, 45, 53
2, 63390, Note_on_c, 0, 45, 0
2, 63390, Note_on_c, 0, 49, 0
2, 63390, Note_on_c, 0, 82, 0
2, 63390, Note_on_c, 0, 69, 0
2, 63390, Note_on_c, 0, 52, 0
2, 63480, Note_on_c, 0, 81, 53
2, 63480, Note_on_c, 0, 69, 53
2, 63480, Note_on_c, 0, 50, 53
2, 63480, Note_on_c, 0, 53, 53
2, 63480, Note_on_c, 0, 45, 53
2, 63510, Note_on_c, 0, 45, 0
2, 63510, Note_on_c, 0, 50, 0
2, 63510, Note_on_c, 0, 81, 0
2, 63510, Note_on_c, 0, 69, 0
2, 63510, Note_on_c, 0, 53, 0
2, 63600, Note_on_c, 0, 79, 53
2, 63600, Note_on_c, 0, 69, 53
2, 63600, Note_on_c, 0, 52, 53
2, 63600, Note_on_c, 0, 55, 53
2, 63600, Note_on_c, 0, 45, 53
2, 63630, Note_on_c, 0, 45, 0
2, 63630, Note_on_c, 0, 52, 0
2, 63630, Note_on_c, 0, 79, 0
2, 63630, Note_on_c, 0, 69, 0
2, 63630, Note_on_c, 0, 55, 0
2, 63720, Note_on_c, 0, 77, 53
2, 63720, Note_on_c, 0, 69, 53
2, 63720, Note_on_c, 0, 50, 53
2, 63720, Note_on_c, 0, 57, 53
2, 63720, Note_on_c, 0, 45, 53
2, 63750, Note_on_c, 0, 45, 0
2, 63750, Note_on_c, 0, 50, 0
2, 63750, Note_on_c, 0, 77, 0
2, 63750, Note_on_c, 0, 69, 0
2, 63750, Note_on_c, 0, 57, 0
2, 63840, Note_on_c, 0, 76, 53
2, 63840, Note_on_c, 0, 69, 53
2, 63840, Note_on_c, 0, 49, 53
2, 63840, Note_on_c, 0, 57, 53
2, 63840, Note_on_c, 0, 45, 53
2, 63870, Note_on_c, 0, 45, 0
2, 63870, Note_on_c, 0, 49, 0
2, 63870, Note_on_c, 0, 76, 0
2, 63870, Note_on_c, 0, 69, 0
2, 63870, Note_on_c, 0, 57, 0
2, 63960, Note_on_c, 0, 74, 53
2, 63960, Note_on_c, 0, 69, 53
2, 63960, Note_on_c, 0, 50, 53
2, 63960, Note_on_c, 0, 57, 53
2, 63960, Note_on_c, 0, 45, 53
2, 63990, Note_on_c, 0, 45, 0
2, 63990, Note_on_c, 0, 50, 0
2, 63990, Note_on_c, 0, 74, 0
2, 63990, Note_on_c, 0, 69, 0
2, 63990, Note_on_c, 0, 57, 0
2, 64080, Note_on_c, 0, 74, 53
2, 64080, Note_on_c, 0, 77, 53
2, 64080, Note_on_c, 0, 68, 53
2, 64080, Note_on_c, 0, 47, 53
2, 64080, Note_on_c, 0, 45, 53
2, 64110, Note_on_c, 0, 45, 0
2, 64110, Note_on_c, 0, 68, 0
2, 64110, Note_on_c, 0, 74, 0
2, 64110, Note_on_c, 0, 77, 0
2, 64110, Note_on_c, 0, 47, 0
2, 64200, Note_on_c, 0, 72, 53
2, 64200, Note_on_c, 0, 76, 53
2, 64200, Note_on_c, 0, 69, 53
2, 64200, Note_on_c, 0, 48, 53
2, 64200, Note_on_c, 0, 45, 53
2, 64230, Note_on_c, 0, 45, 0
2, 64230, Note_on_c, 0, 69, 0
2, 64230, Note_on_c, 0, 72, 0
2, 64230, Note_on_c, 0, 76, 0
2, 64230, Note_on_c, 0, 48, 0
2, 64320, Note_on_c, 0, 71, 53
2, 64320, Note_on_c, 0, 74, 53
2, 64320, Note_on_c, 0, 68, 53
2, 64320, Note_on_c, 0, 53, 53
2, 64320, Note_on_c, 0, 45, 53
2, 64350, Note_on_c, 0, 45, 0
2, 64350, Note_on_c, 0, 68, 0
2, 64350, Note_on_c, 0, 71, 0
2, 64350, Note_on_c, 0, 74, 0
2, 64350, Note_on_c, 0, 53, 0
2, 64440, Note_on_c, 0, 69, 53
2, 64440, Note_on_c, 0, 72, 53
2, 64440, Note_on_c, 0, 60, 53
2, 64440, Note_on_c, 0, 52, 53
2, 64440, Note_on_c, 0, 45, 53
2, 64470, Note_on_c, 0, 45, 0
2, 64470, Note_on_c, 0, 60, 0
2, 64470, Note_on_c, 0, 69, 0
2, 64470, Note_on_c, 0, 72, 0
2, 64470, Note_on_c, 0, 52, 0
2, 64560, Note_on_c, 0, 68, 53
2, 64560, Note_on_c, 0, 71, 53
2, 64560, Note_on_c, 0, 62, 53
2, 64560, Note_on_c, 0, 53, 53
2, 64560, Note_on_c, 0, 45, 53
2, 64590, Note_on_c, 0, 45, 0
2, 64590, Note_on_c, 0, 62, 0
2, 64590, Note_on_c, 0, 68, 0
2, 64590, Note_on_c, 0, 71, 0
2, 64590, Note_on_c, 0, 53, 0
2, 64680, Note_on_c, 0, 64, 53
2, 64680, Note_on_c, 0, 69, 53
2, 64680, Note_on_c, 0, 60, 53
2, 64680, Note_on_c, 0, 52, 53
2, 64680, Note_on_c, 0, 45, 53
2, 64710, Note_on_c, 0, 45, 0
2, 64710, Note_on_c, 0, 60, 0
2, 64710, Note_on_c, 0, 64, 0
2, 64710, Note_on_c, 0, 69, 0
2, 64710, Note_on_c, 0, 52, 0
2, 64800, Note_on_c, 0, 65, 53
2, 64800, Note_on_c, 0, 68, 53
2, 64800, Note_on_c, 0, 59, 53
2, 64800, Note_on_c, 0, 50, 53
2, 64800, Note_on_c, 0, 45, 53
2, 64830, Note_on_c, 0, 45, 0
2, 64830, Note_on_c, 0, 59, 0
2, 64830, Note_on_c, 0, 65, 0
2, 64830, Note_on_c, 0, 68, 0
2, 64830, Note_on_c, 0, 50, 0
2, 64920, Note_on_c, 0, 64, 53
2, 64920, Note_on_c, 0, 69, 53
2, 64920, Note_on_c, 0, 60, 53
2, 64920, Note_on_c, 0, 52, 53
2, 64920, Note_on_c, 0, 45, 53
2, 64950, Note_on_c, 0, 45, 0
2, 64950, Note_on_c, 0, 60, 0
2, 64950, Note_on_c, 0, 64, 0
2, 64950, Note_on_c, 0, 69, 0
2, 64950, Note_on_c, 0, 52, 0
2, 65040, Note_on_c, 0, 71, 53
2, 65040, Note_on_c, 0, 62, 53
2, 65040, Note_on_c, 0, 53, 53
2, 65040, Note_on_c, 0, 56, 53
2, 65040, Note_on_c, 0, 45, 53
2, 65070, Note_on_c, 0, 45, 0
2, 65070, Note_on_c, 0, 53, 0
2, 65070, Note_on_c, 0, 71, 0
2, 65070, Note_on_c, 0, 62, 0
2, 65070, Note_on_c, 0, 56, 0
2, 65160, Note_on_c, 0, 64, 53
2, 65160, Note_on_c, 0, 69, 53
2, 65160, Note_on_c, 0, 60, 53
2, 65160, Note_on_c, 0, 52, 53
2, 65160, Note_on_c, 0, 45, 53
2, 65190, Note_on_c, 0, 45, 0
2, 65190, Note_on_c, 0, 60, 0
2, 65190, Note_on_c, 0, 64, 0
2, 65190, Note_on_c, 0, 69, 0
2, 65190, Note_on_c, 0, 52, 0
2, 65280, Note_on_c, 0, 62, 53
2, 65280, Note_on_c, 0, 68, 53
2, 65280, Note_on_c, 0, 59, 53
2, 65280, Note_on_c, 0, 53, 53
2, 65280, Note_on_c, 0, 45, 53
2, 65310, Note_on_c, 0, 45, 0
2, 65310, Note_on_c, 0, 59, 0
2, 65310, Note_on_c, 0, 62, 0
2, 65310, Note_on_c, 0, 68, 0
2, 65310, Note_on_c, 0, 53, 0
2, 65400, Note_on_c, 0, 69, 53
2, 65400, Note_on_c, 0, 60, 53
2, 65400, Note_on_c, 0, 52, 53
2, 65400, Note_on_c, 0, 57, 53
2, 65400, Note_on_c, 0, 45, 53
2, 65430, Note_on_c, 0, 45, 0
2, 65430, Note_on_c, 0, 52, 0
2, 65430, Note_on_c, 0, 69, 0
2, 65430, Note_on_c, 0, 60, 0
2, 65430, Note_on_c, 0, 57, 0
2, 65520, Note_on_c, 0, 70, 53
2, 65520, Note_on_c, 0, 73, 53
2, 65520, Note_on_c, 0, 64, 53
2, 65520, Note_on_c, 0, 55, 53
2, 65520, Note_on_c, 0, 45, 53
2, 65550, Note_on_c, 0, 45, 0
2, 65550, Note_on_c, 0, 64, 0
2, 65550, Note_on_c, 0, 70, 0
2, 65550, Note_on_c, 0, 73, 0
2, 65550, Note_on_c, 0, 55, 0
2, 65640, Note_on_c, 0, 74, 53
2, 65640, Note_on_c, 0, 69, 53
2, 65640, Note_on_c, 0, 53, 53
2, 65640, Note_on_c, 0, 45, 53
2, 65670, Note_on_c, 0, 45, 0
2, 65670, Note_on_c, 0, 74, 0
2, 65670, Note_on_c, 0, 69, 0
2, 65670, Note_on_c, 0, 53, 0
2, 65760, Note_on_c, 0, 76, 53
2, 65760, Note_on_c, 0, 67, 53
2, 65760, Note_on_c, 0, 52, 53
2, 65760, Note_on_c, 0, 45, 53
2, 65790, Note_on_c, 0, 45, 0
2, 65790, Note_on_c, 0, 76, 0
2, 65790, Note_on_c, 0, 67, 0
2, 65790, Note_on_c, 0, 52, 0
2, 65880, Note_on_c, 0, 77, 53
2, 65880, Note_on_c, 0, 65, 53
2, 65880, Note_on_c, 0, 50, 53
2, 65880, Note_on_c, 0, 57, 53
2, 65880, Note_on_c, 0, 45, 53
2, 65910, Note_on_c, 0, 45, 0
2, 65910, Note_on_c, 0, 50, 0
2, 65910, Note_on_c, 0, 77, 0
2, 65910, Note_on_c, 0, 65, 0
2, 65910, Note_on_c, 0, 57, 0
2, 66000, Note_on_c, 0, 76, 53
2, 66000, Note_on_c, 0, 79, 53
2, 66000, Note_on_c, 0, 67, 53
2, 66000, Note_on_c, 0, 52, 53
2, 66000, Note_on_c, 0, 55, 53
2, 66000, Note_on_c, 0, 45, 53
2, 66030, Note_on_c, 0, 45, 0
2, 66030, Note_on_c, 0, 79, 0
2, 66030, Note_on_c, 0, 67, 0
2, 66030, Note_on_c, 0, 76, 0
2, 66030, Note_on_c, 0, 55, 0
2, 66030, Note_on_c, 0, 52, 0
2, 66120, Note_on_c, 0, 74, 53
2, 66120, Note_on_c, 0, 81, 53
2, 66120, Note_on_c, 0, 69, 53
2, 66120, Note_on_c, 0, 53, 53
2, 66120, Note_on_c, 0, 45, 53
2, 66150, Note_on_c, 0, 45, 0
2, 66150, Note_on_c, 0, 69, 0
2, 66150, Note_on_c, 0, 74, 0
2, 66150, Note_on_c, 0, 81, 0
2, 66150, Note_on_c, 0, 53, 0
2, 66240, Note_on_c, 0, 73, 53
2, 66240, Note_on_c, 0, 82, 53
2, 66240, Note_on_c, 0, 70, 53
2, 66240, Note_on_c, 0, 52, 53
2, 66240, Note_on_c, 0, 55, 53
2, 66240, Note_on_c, 0, 45, 53
2, 66270, Note_on_c, 0, 45, 0
2, 66270, Note_on_c, 0, 82, 0
2, 66270, Note_on_c, 0, 70, 0
2, 66270, Note_on_c, 0, 73, 0
2, 66270, Note_on_c, 0, 55, 0
2, 66270, Note_on_c, 0, 52, 0
2, 66360, Note_on_c, 0, 74, 53
2, 66360, Note_on_c, 0, 81, 53
2, 66360, Note_on_c, 0, 69, 53
2, 66360, Note_on_c, 0, 57, 53
2, 66360, Note_on_c, 0, 53, 53
2, 66390, Note_on_c, 0, 53, 0
2, 66390, Note_on_c, 0, 69, 0
2, 66390, Note_on_c, 0, 74, 0
2, 66390, Note_on_c, 0, 81, 0
2, 66390, Note_on_c, 0, 57, 0
2, 66480, Note_on_c, 0, 76, 53
2, 66480, Note_on_c, 0, 79, 53
2, 66480, Note_on_c, 0, 67, 53
2, 66480, Note_on_c, 0, 58, 53
2, 66480, Note_on_c, 0, 55, 53
2, 66510, Note_on_c, 0, 55, 0
2, 66510, Note_on_c, 0, 67, 0
2, 66510, Note_on_c, 0, 76, 0
2, 66510, Note_on_c, 0, 79, 0
2, 66510, Note_on_c, 0, 58, 0
2, 66600, Note_on_c, 0, 74, 53
2, 66600, Note_on_c, 0, 77, 53
2, 66600, Note_on_c, 0, 65, 53
2, 66600, Note_on_c, 0, 57, 53
2, 66600, Note_on_c, 0, 45, 53
2, 66630, Note_on_c, 0, 45, 0
2, 66630, Note_on_c, 0, 65, 0
2, 66630, Note_on_c, 0, 74, 0
2, 66630, Note_on_c, 0, 77, 0
2, 66630, Note_on_c, 0, 57, 0
2, 66720, Note_on_c, 0, 73, 53
2, 66720, Note_on_c, 0, 76, 53
2, 66720, Note_on_c, 0, 64, 53
2, 66720, Note_on_c, 0, 58, 53
2, 66720, Note_on_c, 0, 55, 53
2, 66750, Note_on_c, 0, 55, 0
2, 66750, Note_on_c, 0, 64, 0
2, 66750, Note_on_c, 0, 73, 0
2, 66750, Note_on_c, 0, 76, 0
2, 66750, Note_on_c, 0, 58, 0
2, 66840, Note_on_c, 0, 74, 53
2, 66840, Note_on_c, 0, 62, 53
2, 66840, Note_on_c, 0, 57, 53
2, 66840, Note_on_c, 0, 53, 53
2, 66870, Note_on_c, 0, 53, 0
2, 66870, Note_on_c, 0, 74, 0
2, 66870, Note_on_c, 0, 62, 0
2, 66870, Note_on_c, 0, 57, 0
2, 66960, Note_on_c, 0, 73, 54
2, 66960, Note_on_c, 0, 64, 54
2, 66960, Note_on_c, 0, 55, 54
2, 66960, Note_on_c, 0, 58, 54
2, 66960, Note_on_c, 0, 45, 54
2, 66990, Note_on_c, 0, 45, 0
2, 66990, Note_on_c, 0, 55, 0
2, 66990, Note_on_c, 0, 73, 0
2, 66990, Note_on_c, 0, 64, 0
2, 66990, Note_on_c, 0, 58, 0
2, 67080, Note_on_c, 0, 74, 56
2, 67080, Note_on_c, 0, 65, 56
2, 67080, Note_on_c, 0, 57, 56
2, 67080, Note_on_c, 0, 53, 56
2, 67110, Note_on_c, 0, 53, 0
2, 67110, Note_on_c, 0, 74, 0
2, 67110, Note_on_c, 0, 65, 0
2, 67110, Note_on_c, 0, 57, 0
2, 67200, Note_on_c, 0, 76, 57
2, 67200, Note_on_c, 0, 67, 57
2, 67200, Note_on_c, 0, 55, 57
2, 67200, Note_on_c, 0, 52, 57
2, 67230, Note_on_c, 0, 52, 0
2, 67230, Note_on_c, 0, 76, 0
2, 67230, Note_on_c, 0, 67, 0
2, 67230, Note_on_c, 0, 55, 0
2, 67320, Note_on_c, 0, 74, 59
2, 67320, Note_on_c, 0, 65, 59
2, 67320, Note_on_c, 0, 53, 59
2, 67320, Note_on_c, 0, 57, 59
2, 67320, Note_on_c, 0, 45, 59
2, 67350, Note_on_c, 0, 45, 0
2, 67350, Note_on_c, 0, 53, 0
2, 67350, Note_on_c, 0, 74, 0
2, 67350, Note_on_c, 0, 65, 0
2, 67350, Note_on_c, 0, 57, 0
2, 67440, Note_on_c, 0, 73, 61
2, 67440, Note_on_c, 0, 64, 61
2, 67440, Note_on_c, 0, 58, 61
2, 67440, Note_on_c, 0, 55, 61
2, 67470, Note_on_c, 0, 55, 0
2, 67470, Note_on_c, 0, 73, 0
2, 67470, Note_on_c, 0, 64, 0
2, 67470, Note_on_c, 0, 58, 0
2, 67560, Note_on_c, 0, 74, 62
2, 67560, Note_on_c, 0, 65, 62
2, 67560, Note_on_c, 0, 57, 62
2, 67560, Note_on_c, 0, 53, 62
2, 67590, Note_on_c, 0, 53, 0
2, 67590, Note_on_c, 0, 74, 0
2, 67590, Note_on_c, 0, 65, 0
2, 67590, Note_on_c, 0, 57, 0
2, 67680, Note_on_c, 0, 73, 64
2, 67680, Note_on_c, 0, 64, 64
2, 67680, Note_on_c, 0, 55, 64
2, 67680, Note_on_c, 0, 58, 64
2, 67680, Note_on_c, 0, 45, 64
2, 67710, Note_on_c, 0, 45, 0
2, 67710, Note_on_c, 0, 55, 0
2, 67710, Note_on_c, 0, 73, 0
2, 67710, Note_on_c, 0, 64, 0
2, 67710, Note_on_c, 0, 58, 0
2, 67800, Note_on_c, 0, 74, 66
2, 67800, Note_on_c, 0, 65, 66
2, 67800, Note_on_c, 0, 57, 66
2, 67800, Note_on_c, 0, 53, 66
2, 67830, Note_on_c, 0, 53, 0
2, 67830, Note_on_c, 0, 74, 0
2, 67830, Note_on_c, 0, 65, 0
2, 67830, Note_on_c, 0, 57, 0
2, 67920, Note_on_c, 0, 76, 68
2, 67920, Note_on_c, 0, 67, 68
2, 67920, Note_on_c, 0, 55, 68
2, 67920, Note_on_c, 0, 52, 68
2, 67950, Note_on_c, 0, 52, 0
2, 67950, Note_on_c, 0, 76, 0
2, 67950, Note_on_c, 0, 67, 0
2, 67950, Note_on_c, 0, 55, 0
2, 68040, Note_on_c, 0, 74, 69
2, 68040, Note_on_c, 0, 65, 69
2, 68040, Note_on_c, 0, 53, 69
2, 68040, Note_on_c, 0, 57, 69
2, 68040, Note_on_c, 0, 45, 69
2, 68070, Note_on_c, 0, 45, 0
2, 68070, Note_on_c, 0, 53, 0
2, 68070, Note_on_c, 0, 74, 0
2, 68070, Note_on_c, 0, 65, 0
2, 68070, Note_on_c, 0, 57, 0
2, 68160, Note_on_c, 0, 73, 71
2, 68160, Note_on_c, 0, 64, 71
2, 68160, Note_on_c, 0, 58, 71
2, 68160, Note_on_c, 0, 55, 71
2, 68190, Note_on_c, 0, 55, 0
2, 68190, Note_on_c, 0, 73, 0
2, 68190, Note_on_c, 0, 64, 0
2, 68190, Note_on_c, 0, 58, 0
2, 68280, Note_on_c, 0, 74, 73
2, 68280, Note_on_c, 0, 65, 73
2, 68280, Note_on_c, 0, 57, 73
2, 68280, Note_on_c, 0, 53, 73
2, 68310, Note_on_c, 0, 53, 0
2, 68310, Note_on_c, 0, 74, 0
2, 68310, Note_on_c, 0, 65, 0
2, 68310, Note_on_c, 0, 57, 0
2, 68400, Note_on_c, 0, 73, 74
2, 68400, Note_on_c, 0, 64, 74
2, 68400, Note_on_c, 0, 55, 74
2, 68400, Note_on_c, 0, 58, 74
2, 68400, Note_on_c, 0, 45, 74
2, 68430, Note_on_c, 0, 45, 0
2, 68430, Note_on_c, 0, 55, 0
2, 68430, Note_on_c, 0, 73, 0
2, 68430, Note_on_c, 0, 64, 0
2, 68430, Note_on_c, 0, 58, 0
2, 68520, Note_on_c, 0, 74, 76
2, 68520, Note_on_c, 0, 65, 76
2, 68520, Note_on_c, 0, 57, 76
2, 68520, Note_on_c, 0, 53, 76
2, 68550, Note_on_c, 0, 53, 0
2, 68550, Note_on_c, 0, 74, 0
2, 68550, Note_on_c, 0, 65, 0
2, 68550, Note_on_c, 0, 57, 0
2, 68640, Note_on_c, 0, 76, 78
2, 68640, Note_on_c, 0, 67, 78
2, 68640, Note_on_c, 0, 55, 78
2, 68640, Note_on_c, 0, 52, 78
2, 68670, Note_on_c, 0, 52, 0
2, 68670, Note_on_c, 0, 76, 0
2, 68670, Note_on_c, 0, 67, 0
2, 68670, Note_on_c, 0, 55, 0
2, 68760, Note_on_c, 0, 74, 79
2, 68760, Note_on_c, 0, 65, 79
2, 68760, Note_on_c, 0, 53, 79
2, 68760, Note_on_c, 0, 57, 79
2, 68760, Note_on_c, 0, 45, 79
2, 68790, Note_on_c, 0, 45, 0
2, 68790, Note_on_c, 0, 53, 0
2, 68790, Note_on_c, 0, 74, 0
2, 68790, Note_on_c, 0, 65, 0
2, 68790, Note_on_c, 0, 57, 0
2, 68880, Note_on_c, 0, 73, 81
2, 68880, Note_on_c, 0, 64, 81
2, 68880, Note_on_c, 0, 58, 81
2, 68880, Note_on_c, 0, 55, 81
2, 68910, Note_on_c, 0, 55, 0
2, 68910, Note_on_c, 0, 73, 0
2, 68910, Note_on_c, 0, 64, 0
2, 68910, Note_on_c, 0, 58, 0
2, 69000, Note_on_c, 0, 74, 83
2, 69000, Note_on_c, 0, 65, 83
2, 69000, Note_on_c, 0, 57, 83
2, 69000, Note_on_c, 0, 53, 83
2, 69030, Note_on_c, 0, 53, 0
2, 69030, Note_on_c, 0, 74, 0
2, 69030, Note_on_c, 0, 65, 0
2, 69030, Note_on_c, 0, 57, 0
2, 69120, Note_on_c, 0, 69, 85
2, 69120, Note_on_c, 0, 73, 85
2, 69120, Note_on_c, 0, 76, 85
2, 69120, Note_on_c, 0, 64, 85
2, 69120, Note_on_c, 0, 52, 85
2, 69120, Note_on_c, 0, 55, 85
2, 69120, Note_on_c, 0, 45, 85
2, 69150, Note_on_c, 0, 45, 0
2, 69150, Note_on_c, 0, 52, 0
2, 69150, Note_on_c, 0, 73, 0
2, 69150, Note_on_c, 0, 76, 0
2, 69150, Note_on_c, 0, 69, 0
2, 69150, Note_on_c, 0, 55, 0
2, 69150, Note_on_c, 0, 64, 0
2, 69240, Note_on_c, 0, 74, 86
2, 69240, Note_on_c, 0, 77, 86
2, 69240, Note_on_c, 0, 65, 86
2, 69240, Note_on_c, 0, 53, 86
2, 69240, Note_on_c, 0, 50, 86
2, 69270, Note_on_c, 0, 50, 0
2, 69270, Note_on_c, 0, 65, 0
2, 69270, Note_on_c, 0, 74, 0
2, 69270, Note_on_c, 0, 77, 0
2, 69270, Note_on_c, 0, 53, 0
2, 69360, Note_on_c, 0, 76, 88
2, 69360, Note_on_c, 0, 79, 88
2, 69360, Note_on_c, 0, 67, 88
2, 69360, Note_on_c, 0, 52, 88
2, 69360, Note_on_c, 0, 49, 88
2, 69390, Note_on_c, 0, 49, 0
2, 69390, Note_on_c, 0, 67, 0
2, 69390, Note_on_c, 0, 76, 0
2, 69390, Note_on_c, 0, 79, 0
2, 69390, Note_on_c, 0, 52, 0
2, 69480, Note_on_c, 0, 69, 90
2, 69480, Note_on_c, 0, 74, 90
2, 69480, Note_on_c, 0, 77, 90
2, 69480, Note_on_c, 0, 65, 90
2, 69480, Note_on_c, 0, 50, 90
2, 69480, Note_on_c, 0, 53, 90
2, 69480, Note_on_c, 0, 45, 90
2, 69510, Note_on_c, 0, 45, 0
2, 69510, Note_on_c, 0, 50, 0
2, 69510, Note_on_c, 0, 74, 0
2, 69510, Note_on_c, 0, 77, 0
2, 69510, Note_on_c, 0, 69, 0
2, 69510, Note_on_c, 0, 53, 0
2, 69510, Note_on_c, 0, 65, 0
2, 69600, Note_on_c, 0, 73, 91
2, 69600, Note_on_c, 0, 76, 91
2, 69600, Note_on_c, 0, 64, 91
2, 69600, Note_on_c, 0, 55, 91
2, 69600, Note_on_c, 0, 52, 91
2, 69630, Note_on_c, 0, 52, 0
2, 69630, Note_on_c, 0, 64, 0
2, 69630, Note_on_c, 0, 73, 0
2, 69630, Note_on_c, 0, 76, 0
2, 69630, Note_on_c, 0, 55, 0
2, 69720, Note_on_c, 0, 74, 93
2, 69720, Note_on_c, 0, 77, 93
2, 69720, Note_on_c, 0, 65, 93
2, 69720, Note_on_c, 0, 53, 93
2, 69720, Note_on_c, 0, 50, 93
2, 69750, Note_on_c, 0, 50, 0
2, 69750, Note_on_c, 0, 65, 0
2, 69750, Note_on_c, 0, 74, 0
2, 69750, Note_on_c, 0, 77, 0
2, 69750, Note_on_c, 0, 53, 0
2, 69840, Note_on_c, 0, 69, 95
2, 69840, Note_on_c, 0, 73, 95
2, 69840, Note_on_c, 0, 76, 95
2, 69840, Note_on_c, 0, 64, 95
2, 69840, Note_on_c, 0, 52, 95
2, 69840, Note_on_c, 0, 55, 95
2, 69840, Note_on_c, 0, 45, 95
2, 69870, Note_on_c, 0, 45, 0
2, 69870, Note_on_c, 0, 52, 0
2, 69870, Note_on_c, 0, 73, 0
2, 69870, Note_on_c, 0, 76, 0
2, 69870, Note_on_c, 0, 69, 0
2, 69870, Note_on_c, 0, 55, 0
2, 69870, Note_on_c, 0, 64, 0
2, 69960, Note_on_c, 0, 74, 97
2, 69960, Note_on_c, 0, 77, 97
2, 69960, Note_on_c, 0, 65, 97
2, 69960, Note_on_c, 0, 53, 97
2, 69960, Note_on_c, 0, 50, 97
2, 69990, Note_on_c, 0, 50, 0
2, 69990, Note_on_c, 0, 65, 0
2, 69990, Note_on_c, 0, 74, 0
2, 69990, Note_on_c, 0, 77, 0
2, 69990, Note_on_c, 0, 53, 0
2, 70080, Note_on_c, 0, 76, 98
2, 70080, Note_on_c, 0, 79, 98
2, 70080, Note_on_c, 0, 67, 98
2, 70080, Note_on_c, 0, 52, 98
2, 70080, Note_on_c, 0, 49, 98
2, 70110, Note_on_c, 0, 49, 0
2, 70110, Note_on_c, 0, 67, 0
2, 70110, Note_on_c, 0, 76, 0
2, 70110, Note_on_c, 0, 79, 0
2, 70110, Note_on_c, 0, 52, 0
2, 70200, Note_on_c, 0, 69, 100
2, 70200, Note_on_c, 0, 74, 100
2, 70200, Note_on_c, 0, 77, 100
2, 70200, Note_on_c, 0, 65, 100
2, 70200, Note_on_c, 0, 50, 100
2, 70200, Note_on_c, 0, 53, 100
2, 70200, Note_on_c, 0, 45, 100
2, 70230, Note_on_c, 0, 45, 0
2, 70230, Note_on_c, 0, 50, 0
2, 70230, Note_on_c, 0, 74, 0
2, 70230, Note_on_c, 0, 77, 0
2, 70230, Note_on_c, 0, 69, 0
2, 70230, Note_on_c, 0, 53, 0
2, 70230, Note_on_c, 0, 65, 0
2, 70320, Note_on_c, 0, 73, 102
2, 70320, Note_on_c, 0, 76, 102
2, 70320, Note_on_c, 0, 64, 102
2, 70320, Note_on_c, 0, 55, 102
2, 70320, Note_on_c, 0, 52, 102
2, 70350, Note_on_c, 0, 52, 0
2, 70350, Note_on_c, 0, 64, 0
2, 70350, Note_on_c, 0, 73, 0
2, 70350, Note_on_c, 0, 76, 0
2, 70350, Note_on_c, 0, 55, 0
2, 70440, Note_on_c, 0, 74, 103
2, 70440, Note_on_c, 0, 77, 103
2, 70440, Note_on_c, 0, 65, 103
2, 70440, Note_on_c, 0, 53, 103
2, 70440, Note_on_c, 0, 50, 103
2, 70470, Note_on_c, 0, 50, 0
2, 70470, Note_on_c, 0, 65, 0
2, 70470, Note_on_c, 0, 74, 0
2, 70470, Note_on_c, 0, 77, 0
2, 70470, Note_on_c, 0, 53, 0
2, 70560, Note_on_c, 0, 69, 105
2, 70560, Note_on_c, 0, 73, 105
2, 70560, Note_on_c, 0, 76, 105
2, 70560, Note_on_c, 0, 64, 105
2, 70560, Note_on_c, 0, 52, 105
2, 70560, Note_on_c, 0, 55, 105
2, 70560, Note_on_c, 0, 45, 105
2, 70590, Note_on_c, 0, 45, 0
2, 70590, Note_on_c, 0, 52, 0
2, 70590, Note_on_c, 0, 73, 0
2, 70590, Note_on_c, 0, 76, 0
2, 70590, Note_on_c, 0, 69, 0
2, 70590, Note_on_c, 0, 55, 0
2, 70590, Note_on_c, 0, 64, 0
2, 70680, Note_on_c, 0, 74, 107
2, 70680, Note_on_c, 0, 77, 107
2, 70680, Note_on_c, 0, 65, 107
2, 70680, Note_on_c, 0, 53, 107
2, 70680, Note_on_c, 0, 50, 107
2, 70710, Note_on_c, 0, 50, 0
2, 70710, Note_on_c, 0, 65, 0
2, 70710, Note_on_c, 0, 74, 0
2, 70710, Note_on_c, 0, 77, 0
2, 70710, Note_on_c, 0, 53, 0
2, 70800, Note_on_c, 0, 76, 108
2, 70800, Note_on_c, 0, 79, 108
2, 70800, Note_on_c, 0, 67, 108
2, 70800, Note_on_c, 0, 52, 108
2, 70800, Note_on_c, 0, 49, 108
2, 70830, Note_on_c, 0, 49, 0
2, 70830, Note_on_c, 0, 67, 0
2, 70830, Note_on_c, 0, 76, 0
2, 70830, Note_on_c, 0, 79, 0
2, 70830, Note_on_c, 0, 52, 0
2, 70920, Note_on_c, 0, 73, 110
2, 70920, Note_on_c, 0, 76, 110
2, 70920, Note_on_c, 0, 81, 110
2, 70920, Note_on_c, 0, 69, 110
2, 70920, Note_on_c, 0, 55, 110
2, 70920, Note_on_c, 0, 43, 110
2, 70950, Note_on_c, 0, 43, 0
2, 70950, Note_on_c, 0, 76, 0
2, 70950, Note_on_c, 0, 81, 0
2, 70950, Note_on_c, 0, 73, 0
2, 70950, Note_on_c, 0, 55, 0
2, 70950, Note_on_c, 0, 69, 0
2, 71040, Note_on_c, 0, 77, 112
2, 71040, Note_on_c, 0, 74, 112
2, 71040, Note_on_c, 0, 53, 112
2, 71040, Note_on_c, 0, 41, 112
2, 71070, Note_on_c, 0, 41, 0
2, 71070, Note_on_c, 0, 77, 0
2, 71070, Note_on_c, 0, 74, 0
2, 71070, Note_on_c, 0, 53, 0
2, 71100, Note_on_c, 0, 69, 113
2, 71130, Note_on_c, 0, 69, 0
2, 71160, Note_on_c, 0, 73, 114
2, 71160, Note_on_c, 0, 79, 114
2, 71160, Note_on_c, 0, 69, 114
2, 71160, Note_on_c, 0, 52, 114
2, 71160, Note_on_c, 0, 40, 114
2, 71190, Note_on_c, 0, 40, 0
2, 71190, Note_on_c, 0, 69, 0
2, 71190, Note_on_c, 0, 73, 0
2, 71190, Note_on_c, 0, 79, 0
2, 71190, Note_on_c, 0, 52, 0
2, 71280, Note_on_c, 0, 74, 117
2, 71280, Note_on_c, 0, 77, 117
2, 71280, Note_on_c, 0, 81, 117
2, 71280, Note_on_c, 0, 69, 117
2, 71280, Note_on_c, 0, 50, 117
2, 71280, Note_on_c, 0, 38, 117
2, 71430, Note_on_c, 0, 38, 0
2, 71430, Note_on_c, 0, 77, 0
2, 71430, Note_on_c, 0, 81, 0
2, 71430, Note_on_c, 0, 74, 0
2, 71430, Note_on_c, 0, 50, 0
2, 71430, Note_on_c, 0, 69, 0
2, 71460, Note_on_c, 0, 69, 117
2, 71460, Note_on_c, 0, 57, 117
2, 71490, Note_on_c, 0, 57, 0
2, 71490, Note_on_c, 0, 69, 0
2, 71520, Note_on_c, 0, 69, 117
2, 71520, Note_on_c, 0, 57, 117
2, 71610, Note_on_c, 0, 57, 0
2, 71610, Note_on_c, 0, 69, 0
2, 71640, Note_on_c, 0, 69, 117
2, 71640, Note_on_c, 0, 74, 117
2, 71640, Note_on_c, 0, 65, 117
2, 71640, Note_on_c, 0, 53, 117
2, 71640, Note_on_c, 0, 57, 117
2, 71640, Note_on_c, 0, 62, 117
2, 71640, Note_on_c, 0, 50, 117
2, 71755, Note_on_c, 0, 50, 0
2, 71755, Note_on_c, 0, 57, 0
2, 71755, Note_on_c, 0, 74, 0
2, 71755, Note_on_c, 0, 65, 0
2, 71755, Note_on_c, 0, 69, 0
2, 71755, Note_on_c, 0, 62, 0
2, 71755, Note_on_c, 0, 53, 0
2, 71760, Note_on_c, 0, 76, 117
2, 71760, Note_on_c, 0, 64, 117
2, 71875, Note_on_c, 0, 64, 0
2, 71875, Note_on_c, 0, 76, 0
2, 71880, Note_on_c, 0, 77, 117
2, 71880, Note_on_c, 0, 65, 117
2, 71995, Note_on_c, 0, 65, 0
2, 71995, Note_on_c, 0, 77, 0
2, 72000, Note_on_c, 0, 69, 117
2, 72000, Note_on_c, 0, 73, 117
2, 72000, Note_on_c, 0, 76, 117
2, 72000, Note_on_c, 0, 64, 117
2, 72000, Note_on_c, 0, 49, 117
2, 72000, Note_on_c, 0, 52, 117
2, 72000, Note_on_c, 0, 57, 117
2, 72000, Note_on_c, 0, 45, 117
2, 72115, Note_on_c, 0, 45, 0
2, 72115, Note_on_c, 0, 69, 0
2, 72115, Note_on_c, 0, 49, 0
2, 72115, Note_on_c, 0, 73, 0
2, 72115, Note_on_c, 0, 76, 0
2, 72115, Note_on_c, 0, 64, 0
2, 72115, Note_on_c, 0, 52, 0
2, 72115, Note_on_c, 0, 57, 0
2, 72120, Note_on_c, 0, 77, 117
2, 72120, Note_on_c, 0, 65, 117
2, 72235, Note_on_c, 0, 65, 0
2, 72235, Note_on_c, 0, 77, 0
2, 72240, Note_on_c, 0, 79, 117
2, 72240, Note_on_c, 0, 67, 117
2, 72355, Note_on_c, 0, 67, 0
2, 72355, Note_on_c, 0, 79, 0
2, 72360, Note_on_c, 0, 69, 117
2, 72360, Note_on_c, 0, 77, 117
2, 72360, Note_on_c, 0, 65, 117
2, 72360, Note_on_c, 0, 41, 117
2, 72360, Note_on_c, 0, 45, 117
2, 72360, Note_on_c, 0, 50, 117
2, 72360, Note_on_c, 0, 38, 117
2, 72475, Note_on_c, 0, 38, 0
2, 72475, Note_on_c, 0, 45, 0
2, 72475, Note_on_c, 0, 77, 0
2, 72475, Note_on_c, 0, 65, 0
2, 72475, Note_on_c, 0, 69, 0
2, 72475, Note_on_c, 0, 50, 0
2, 72475, Note_on_c, 0, 41, 0
2, 72480, Note_on_c, 0, 76, 117
2, 72480, Note_on_c, 0, 64, 117
2, 72595, Note_on_c, 0, 64, 0
2, 72595, Note_on_c, 0, 76, 0
2, 72600, Note_on_c, 0, 74, 117
2, 72600, Note_on_c, 0, 62, 117
2, 72715, Note_on_c, 0, 62, 0
2, 72715, Note_on_c, 0, 74, 0
2, 72720, Note_on_c, 0, 74, 117
2, 72720, Note_on_c, 0, 82, 117
2, 72720, Note_on_c, 0, 70, 117
2, 72720, Note_on_c, 0, 50, 117
2, 72720, Note_on_c, 0, 55, 117
2, 72720, Note_on_c, 0, 58, 117
2, 72720, Note_on_c, 0, 43, 117
2, 72835, Note_on_c, 0, 43, 0
2, 72835, Note_on_c, 0, 55, 0
2, 72835, Note_on_c, 0, 82, 0
2, 72835, Note_on_c, 0, 70, 0
2, 72835, Note_on_c, 0, 74, 0
2, 72835, Note_on_c, 0, 58, 0
2, 72835, Note_on_c, 0, 50, 0
2, 72840, Note_on_c, 0, 81, 95
2, 72840, Note_on_c, 0, 69, 95
2, 72955, Note_on_c, 0, 69, 0
2, 72955, Note_on_c, 0, 81, 0
2, 72960, Note_on_c, 0, 79, 95
2, 72960, Note_on_c, 0, 67, 95
2, 73075, Note_on_c, 0, 67, 0
2, 73075, Note_on_c, 0, 79, 0
2, 73080, Note_on_c, 0, 77, 117
2, 73080, Note_on_c, 0, 65, 117
2, 73080, Note_on_c, 0, 50, 117
2, 73080, Note_on_c, 0, 53, 117
2, 73080, Note_on_c, 0, 57, 117
2, 73080, Note_on_c, 0, 45, 117
2, 73195, Note_on_c, 0, 45, 0
2, 73195, Note_on_c, 0, 65, 0
2, 73195, Note_on_c, 0, 50, 0
2, 73195, Note_on_c, 0, 77, 0
2, 73195, Note_on_c, 0, 57, 0
2, 73195, Note_on_c, 0, 53, 0
2, 73200, Note_on_c, 0, 76, 95
2, 73200, Note_on_c, 0, 64, 95
2, 73315, Note_on_c, 0, 64, 0
2, 73315, Note_on_c, 0, 76, 0
2, 73320, Note_on_c, 0, 74, 95
2, 73320, Note_on_c, 0, 62, 95
2, 73435, Note_on_c, 0, 62, 0
2, 73435, Note_on_c, 0, 74, 0
2, 73440, Note_on_c, 0, 69, 117
2, 73440, Note_on_c, 0, 73, 117
2, 73440, Note_on_c, 0, 61, 117
2, 73440, Note_on_c, 0, 52, 117
2, 73440, Note_on_c, 0, 55, 117
2, 73440, Note_on_c, 0, 57, 117
2, 73440, Note_on_c, 0, 45, 117
2, 73555, Note_on_c, 0, 45, 0
2, 73555, Note_on_c, 0, 55, 0
2, 73555, Note_on_c, 0, 73, 0
2, 73555, Note_on_c, 0, 61, 0
2, 73555, Note_on_c, 0, 69, 0
2, 73555, Note_on_c, 0, 57, 0
2, 73555, Note_on_c, 0, 52, 0
2, 73560, Note_on_c, 0, 74, 95
2, 73560, Note_on_c, 0, 62, 95
2, 73675, Note_on_c, 0, 62, 0
2, 73675, Note_on_c, 0, 74, 0
2, 73680, Note_on_c, 0, 76, 95
2, 73680, Note_on_c, 0, 64, 95
2, 73795, Note_on_c, 0, 64, 0
2, 73795, Note_on_c, 0, 76, 0
2, 73800, Note_on_c, 0, 69, 117
2, 73800, Note_on_c, 0, 74, 117
2, 73800, Note_on_c, 0, 62, 117
2, 73800, Note_on_c, 0, 50, 117
2, 73800, Note_on_c, 0, 53, 117
2, 73800, Note_on_c, 0, 57, 117
2, 73800, Note_on_c, 0, 38, 117
2, 73915, Note_on_c, 0, 38, 0
2, 73915, Note_on_c, 0, 53, 0
2, 73915, Note_on_c, 0, 74, 0
2, 73915, Note_on_c, 0, 62, 0
2, 73915, Note_on_c, 0, 69, 0
2, 73915, Note_on_c, 0, 57, 0
2, 73915, Note_on_c, 0, 50, 0
2, 73920, Note_on_c, 0, 73, 95
2, 73920, Note_on_c, 0, 61, 95
2, 74035, Note_on_c, 0, 61, 0
2, 74035, Note_on_c, 0, 73, 0
2, 74040, Note_on_c, 0, 74, 95
2, 74040, Note_on_c, 0, 62, 95
2, 74155, Note_on_c, 0, 62, 0
2, 74155, Note_on_c, 0, 74, 0
2, 74160, Note_on_c, 0, 74, 117
2, 74160, Note_on_c, 0, 82, 117
2, 74160, Note_on_c, 0, 70, 117
2, 74160, Note_on_c, 0, 50, 117
2, 74160, Note_on_c, 0, 55, 117
2, 74160, Note_on_c, 0, 58, 117
2, 74160, Note_on_c, 0, 43, 117
2, 74275, Note_on_c, 0, 43, 0
2, 74275, Note_on_c, 0, 55, 0
2, 74275, Note_on_c, 0, 82, 0
2, 74275, Note_on_c, 0, 70, 0
2, 74275, Note_on_c, 0, 74, 0
2, 74275, Note_on_c, 0, 58, 0
2, 74275, Note_on_c, 0, 50, 0
2, 74280, Note_on_c, 0, 81, 95
2, 74280, Note_on_c, 0, 69, 95
2, 74395, Note_on_c, 0, 69, 0
2, 74395, Note_on_c, 0, 81, 0
2, 74400, Note_on_c, 0, 79, 95
2, 74400, Note_on_c, 0, 67, 95
2, 74515, Note_on_c, 0, 67, 0
2, 74515, Note_on_c, 0, 79, 0
2, 74520, Note_on_c, 0, 69, 117
2, 74520, Note_on_c, 0, 77, 117
2, 74520, Note_on_c, 0, 65, 117
2, 74520, Note_on_c, 0, 50, 117
2, 74520, Note_on_c, 0, 53, 117
2, 74520, Note_on_c, 0, 57, 117
2, 74520, Note_on_c, 0, 45, 117
2, 74635, Note_on_c, 0, 45, 0
2, 74635, Note_on_c, 0, 53, 0
2, 74635, Note_on_c, 0, 77, 0
2, 74635, Note_on_c, 0, 65, 0
2, 74635, Note_on_c, 0, 69, 0
2, 74635, Note_on_c, 0, 57, 0
2, 74635, Note_on_c, 0, 50, 0
2, 74640, Note_on_c, 0, 76, 95
2, 74640, Note_on_c, 0, 64, 95
2, 74755, Note_on_c, 0, 64, 0
2, 74755, Note_on_c, 0, 76, 0
2, 74760, Note_on_c, 0, 74, 95
2, 74760, Note_on_c, 0, 62, 95
2, 74875, Note_on_c, 0, 62, 0
2, 74875, Note_on_c, 0, 74, 0
2, 74880, Note_on_c, 0, 69, 117
2, 74880, Note_on_c, 0, 73, 117
2, 74880, Note_on_c, 0, 61, 117
2, 74880, Note_on_c, 0, 52, 117
2, 74880, Note_on_c, 0, 55, 117
2, 74880, Note_on_c, 0, 57, 117
2, 74880, Note_on_c, 0, 45, 117
2, 74995, Note_on_c, 0, 45, 0
2, 74995, Note_on_c, 0, 55, 0
2, 74995, Note_on_c, 0, 73, 0
2, 74995, Note_on_c, 0, 61, 0
2, 74995, Note_on_c, 0, 69, 0
2, 74995, Note_on_c, 0, 57, 0
2, 74995, Note_on_c, 0, 52, 0
2, 75000, Note_on_c, 0, 74, 95
2, 75000, Note_on_c, 0, 62, 95
2, 75115, Note_on_c, 0, 62, 0
2, 75115, Note_on_c, 0, 74, 0
2, 75120, Note_on_c, 0, 76, 95
2, 75120, Note_on_c, 0, 64, 95
2, 75235, Note_on_c, 0, 64, 0
2, 75235, Note_on_c, 0, 76, 0
2, 75240, Note_on_c, 0, 69, 117
2, 75240, Note_on_c, 0, 74, 117
2, 75240, Note_on_c, 0, 62, 117
2, 75240, Note_on_c, 0, 50, 117
2, 75240, Note_on_c, 0, 53, 117
2, 75240, Note_on_c, 0, 57, 117
2, 75240, Note_on_c, 0, 38, 117
2, 75355, Note_on_c, 0, 38, 0
2, 75355, Note_on_c, 0, 53, 0
2, 75355, Note_on_c, 0, 74, 0
2, 75355, Note_on_c, 0, 62, 0
2, 75355, Note_on_c, 0, 69, 0
2, 75355, Note_on_c, 0, 57, 0
2, 75355, Note_on_c, 0, 50, 0
2, 75360, Note_on_c, 0, 73, 95
2, 75360, Note_on_c, 0, 61, 95
2, 75475, Note_on_c, 0, 61, 0
2, 75475, Note_on_c, 0, 73, 0
2, 75480, Note_on_c, 0, 71, 95
2, 75480, Note_on_c, 0, 74, 95
2, 75480, Note_on_c, 0, 62, 95
2, 75480, Note_on_c, 0, 50, 117
2, 75480, Note_on_c, 0, 53, 117
2, 75480, Note_on_c, 0, 59, 117
2, 75480, Note_on_c, 0, 43, 117
2, 75595, Note_on_c, 0, 43, 0
2, 75595, Note_on_c, 0, 53, 0
2, 75595, Note_on_c, 0, 74, 0
2, 75595, Note_on_c, 0, 62, 0
2, 75595, Note_on_c, 0, 71, 0
2, 75595, Note_on_c, 0, 59, 0
2, 75595, Note_on_c, 0, 50, 0
2, 75600, Note_on_c, 0, 81, 117
2, 75600, Note_on_c, 0, 69, 117
2, 75600, Note_on_c, 0, 50, 117
2, 75600, Note_on_c, 0, 53, 117
2, 75600, Note_on_c, 0, 59, 117
2, 75600, Note_on_c, 0, 43, 117
2, 75715, Note_on_c, 0, 43, 0
2, 75715, Note_on_c, 0, 69, 0
2, 75715, Note_on_c, 0, 50, 0
2, 75715, Note_on_c, 0, 81, 0
2, 75715, Note_on_c, 0, 59, 0
2, 75715, Note_on_c, 0, 53, 0
2, 75720, Note_on_c, 0, 79, 95
2, 75720, Note_on_c, 0, 67, 95
2, 75835, Note_on_c, 0, 67, 0
2, 75835, Note_on_c, 0, 79, 0
2, 75840, Note_on_c, 0, 77, 95
2, 75840, Note_on_c, 0, 65, 95
2, 75955, Note_on_c, 0, 65, 0
2, 75955, Note_on_c, 0, 77, 0
2, 75960, Note_on_c, 0, 67, 117
2, 75960, Note_on_c, 0, 76, 117
2, 75960, Note_on_c, 0, 64, 117
2, 75960, Note_on_c, 0, 52, 117
2, 75960, Note_on_c, 0, 55, 117
2, 75960, Note_on_c, 0, 60, 117
2, 75960, Note_on_c, 0, 48, 117
2, 76075, Note_on_c, 0, 48, 0
2, 76075, Note_on_c, 0, 55, 0
2, 76075, Note_on_c, 0, 76, 0
2, 76075, Note_on_c, 0, 64, 0
2, 76075, Note_on_c, 0, 67, 0
2, 76075, Note_on_c, 0, 60, 0
2, 76075, Note_on_c, 0, 52, 0
2, 76080, Note_on_c, 0, 74, 95
2, 76080, Note_on_c, 0, 62, 95
2, 76195, Note_on_c, 0, 62, 0
2, 76195, Note_on_c, 0, 74, 0
2, 76200, Note_on_c, 0, 72, 95
2, 76315, Note_on_c, 0, 72, 0
2, 76320, Note_on_c, 0, 65, 117
2, 76320, Note_on_c, 0, 67, 117
2, 76320, Note_on_c, 0, 71, 117
2, 76320, Note_on_c, 0, 59, 117
2, 76320, Note_on_c, 0, 50, 117
2, 76320, Note_on_c, 0, 53, 117
2, 76320, Note_on_c, 0, 55, 117
2, 76320, Note_on_c, 0, 43, 117
2, 76435, Note_on_c, 0, 43, 0
2, 76435, Note_on_c, 0, 65, 0
2, 76435, Note_on_c, 0, 50, 0
2, 76435, Note_on_c, 0, 67, 0
2, 76435, Note_on_c, 0, 71, 0
2, 76435, Note_on_c, 0, 59, 0
2, 76435, Note_on_c, 0, 53, 0
2, 76435, Note_on_c, 0, 55, 0
2, 76440, Note_on_c, 0, 72, 95
2, 76440, Note_on_c, 0, 60, 95
2, 76555, Note_on_c, 0, 60, 0
2, 76555, Note_on_c, 0, 72, 0
2, 76560, Note_on_c, 0, 74, 95
2, 76560, Note_on_c, 0, 62, 95
2, 76675, Note_on_c, 0, 62, 0
2, 76675, Note_on_c, 0, 74, 0
2, 76680, Note_on_c, 0, 64, 117
2, 76680, Note_on_c, 0, 67, 117
2, 76680, Note_on_c, 0, 72, 117
2, 76680, Note_on_c, 0, 60, 117
2, 76680, Note_on_c, 0, 48, 117
2, 76680, Note_on_c, 0, 52, 117
2, 76680, Note_on_c, 0, 55, 117
2, 76680, Note_on_c, 0, 36, 117
2, 76795, Note_on_c, 0, 36, 0
2, 76795, Note_on_c, 0, 64, 0
2, 76795, Note_on_c, 0, 48, 0
2, 76795, Note_on_c, 0, 67, 0
2, 76795, Note_on_c, 0, 72, 0
2, 76795, Note_on_c, 0, 60, 0
2, 76795, Note_on_c, 0, 52, 0
2, 76795, Note_on_c, 0, 55, 0
2, 76800, Note_on_c, 0, 71, 95
2, 76800, Note_on_c, 0, 77, 95
2, 76800, Note_on_c, 0, 81, 95
2, 76800, Note_on_c, 0, 69, 95
2, 76800, Note_on_c, 0, 50, 117
2, 76800, Note_on_c, 0, 53, 117
2, 76800, Note_on_c, 0, 59, 117
2, 76800, Note_on_c, 0, 43, 117
2, 76915, Note_on_c, 0, 43, 0
2, 76915, Note_on_c, 0, 71, 0
2, 76915, Note_on_c, 0, 50, 0
2, 76915, Note_on_c, 0, 77, 0
2, 76915, Note_on_c, 0, 81, 0
2, 76915, Note_on_c, 0, 69, 0
2, 76915, Note_on_c, 0, 53, 0
2, 76915, Note_on_c, 0, 59, 0
2, 76920, Note_on_c, 0, 71, 95
2, 76920, Note_on_c, 0, 77, 95
2, 76920, Note_on_c, 0, 81, 95
2, 76920, Note_on_c, 0, 69, 95
2, 76920, Note_on_c, 0, 50, 117
2, 76920, Note_on_c, 0, 53, 117
2, 76920, Note_on_c, 0, 59, 117
2, 76920, Note_on_c, 0, 43, 117
2, 77035, Note_on_c, 0, 43, 0
2, 77035, Note_on_c, 0, 71, 0
2, 77035, Note_on_c, 0, 50, 0
2, 77035, Note_on_c, 0, 77, 0
2, 77035, Note_on_c, 0, 81, 0
2, 77035, Note_on_c, 0, 69, 0
2, 77035, Note_on_c, 0, 53, 0
2, 77035, Note_on_c, 0, 59, 0
2, 77040, Note_on_c, 0, 71, 117
2, 77040, Note_on_c, 0, 77, 117
2, 77040, Note_on_c, 0, 81, 117
2, 77040, Note_on_c, 0, 69, 117
2, 77040, Note_on_c, 0, 50, 117
2, 77040, Note_on_c, 0, 53, 117
2, 77040, Note_on_c, 0, 59, 117
2, 77040, Note_on_c, 0, 43, 117
2, 77155, Note_on_c, 0, 43, 0
2, 77155, Note_on_c, 0, 71, 0
2, 77155, Note_on_c, 0, 50, 0
2, 77155, Note_on_c, 0, 77, 0
2, 77155, Note_on_c, 0, 81, 0
2, 77155, Note_on_c, 0, 69, 0
2, 77155, Note_on_c, 0, 53, 0
2, 77155, Note_on_c, 0, 59, 0
2, 77160, Note_on_c, 0, 79, 95
2, 77160, Note_on_c, 0, 67, 95
2, 77275, Note_on_c, 0, 67, 0
2, 77275, Note_on_c, 0, 79, 0
2, 77280, Note_on_c, 0, 77, 95
2, 77280, Note_on_c, 0, 65, 95
2, 77395, Note_on_c, 0, 65, 0
2, 77395, Note_on_c, 0, 77, 0
2, 77400, Note_on_c, 0, 67, 117
2, 77400, Note_on_c, 0, 76, 117
2, 77400, Note_on_c, 0, 64, 117
2, 77400, Note_on_c, 0, 52, 117
2, 77400, Note_on_c, 0, 55, 117
2, 77400, Note_on_c, 0, 60, 117
2, 77400, Note_on_c, 0, 48, 117
2, 77515, Note_on_c, 0, 48, 0
2, 77515, Note_on_c, 0, 55, 0
2, 77515, Note_on_c, 0, 76, 0
2, 77515, Note_on_c, 0, 64, 0
2, 77515, Note_on_c, 0, 67, 0
2, 77515, Note_on_c, 0, 60, 0
2, 77515, Note_on_c, 0, 52, 0
2, 77520, Note_on_c, 0, 74, 95
2, 77520, Note_on_c, 0, 62, 95
2, 77635, Note_on_c, 0, 62, 0
2, 77635, Note_on_c, 0, 74, 0
2, 77640, Note_on_c, 0, 72, 95
2, 77640, Note_on_c, 0, 60, 95
2, 77755, Note_on_c, 0, 60, 0
2, 77755, Note_on_c, 0, 72, 0
2, 77760, Note_on_c, 0, 72, 117
2, 77760, Note_on_c, 0, 79, 117
2, 77760, Note_on_c, 0, 67, 117
2, 77760, Note_on_c, 0, 55, 117
2, 77760, Note_on_c, 0, 60, 117
2, 77760, Note_on_c, 0, 64, 117
2, 77760, Note_on_c, 0, 48, 117
2, 77875, Note_on_c, 0, 48, 0
2, 77875, Note_on_c, 0, 60, 0
2, 77875, Note_on_c, 0, 79, 0
2, 77875, Note_on_c, 0, 67, 0
2, 77875, Note_on_c, 0, 72, 0
2, 77875, Note_on_c, 0, 64, 0
2, 77875, Note_on_c, 0, 55, 0
2, 77880, Note_on_c, 0, 77, 95
2, 77880, Note_on_c, 0, 65, 95
2, 77995, Note_on_c, 0, 65, 0
2, 77995, Note_on_c, 0, 77, 0
2, 78000, Note_on_c, 0, 76, 95
2, 78000, Note_on_c, 0, 64, 95
2, 78115, Note_on_c, 0, 64, 0
2, 78115, Note_on_c, 0, 76, 0
2, 78120, Note_on_c, 0, 79, 117
2, 78120, Note_on_c, 0, 88, 117
2, 78120, Note_on_c, 0, 76, 117
2, 78120, Note_on_c, 0, 52, 117
2, 78120, Note_on_c, 0, 55, 117
2, 78120, Note_on_c, 0, 60, 117
2, 78120, Note_on_c, 0, 48, 117
2, 78235, Note_on_c, 0, 48, 0
2, 78235, Note_on_c, 0, 55, 0
2, 78235, Note_on_c, 0, 88, 0
2, 78235, Note_on_c, 0, 76, 0
2, 78235, Note_on_c, 0, 79, 0
2, 78235, Note_on_c, 0, 60, 0
2, 78235, Note_on_c, 0, 52, 0
2, 78240, Note_on_c, 0, 86, 95
2, 78240, Note_on_c, 0, 74, 95
2, 78355, Note_on_c, 0, 74, 0
2, 78355, Note_on_c, 0, 86, 0
2, 78360, Note_on_c, 0, 84, 95
2, 78360, Note_on_c, 0, 72, 95
2, 78475, Note_on_c, 0, 72, 0
2, 78475, Note_on_c, 0, 84, 0
2, 78480, Note_on_c, 0, 79, 95
2, 78480, Note_on_c, 0, 83, 95
2, 78480, Note_on_c, 0, 71, 95
2, 78480, Note_on_c, 0, 59, 117
2, 78480, Note_on_c, 0, 62, 117
2, 78480, Note_on_c, 0, 67, 117
2, 78480, Note_on_c, 0, 55, 117
2, 78570, Note_on_c, 0, 55, 0
2, 78570, Note_on_c, 0, 62, 0
2, 78570, Note_on_c, 0, 59, 0
2, 78570, Note_on_c, 0, 67, 0
2, 78660, Note_on_c, 0, 67, 55
2, 78690, Note_on_c, 0, 67, 0
2, 78720, Note_on_c, 0, 83, 0
2, 78720, Note_on_c, 0, 71, 0
2, 78720, Note_on_c, 0, 79, 0
2, 78720, Note_on_c, 0, 67, 60
2, 78810, Note_on_c, 0, 67, 0
2, 78840, Note_on_c, 0, 79, 53
2, 79020, Note_on_c, 0, 67, 70
2, 79035, Note_on_c, 0, 67, 0
2, 79080, Note_on_c, 0, 67, 74
2, 79140, Note_on_c, 0, 67, 0
2, 79195, Note_on_c, 0, 79, 0
2, 79200, Note_on_c, 0, 81, 53
2, 79200, Note_on_c, 0, 79, 53
2, 79380, Note_on_c, 0, 69, 84
2, 79380, Note_on_c, 0, 65, 84
2, 79395, Note_on_c, 0, 65, 0
2, 79395, Note_on_c, 0, 69, 0
2, 79440, Note_on_c, 0, 69, 89
2, 79440, Note_on_c, 0, 65, 89
2, 79500, Note_on_c, 0, 65, 0
2, 79500, Note_on_c, 0, 69, 0
2, 79555, Note_on_c, 0, 79, 0
2, 79555, Note_on_c, 0, 81, 0
2, 79560, Note_on_c, 0, 77, 53
2, 79560, Note_on_c, 0, 81, 53
2, 79560, Note_on_c, 0, 86, 53
2, 79560, Note_on_c, 0, 62, 53
2, 79740, Note_on_c, 0, 69, 98
2, 79740, Note_on_c, 0, 74, 98
2, 79740, Note_on_c, 0, 65, 98
2, 79755, Note_on_c, 0, 65, 0
2, 79755, Note_on_c, 0, 69, 0
2, 79755, Note_on_c, 0, 74, 0
2, 79800, Note_on_c, 0, 69, 103
2, 79800, Note_on_c, 0, 74, 103
2, 79800, Note_on_c, 0, 65, 103
2, 79860, Note_on_c, 0, 65, 0
2, 79860, Note_on_c, 0, 69, 0
2, 79860, Note_on_c, 0, 74, 0
2, 79915, Note_on_c, 0, 62, 0
2, 79915, Note_on_c, 0, 77, 0
2, 79915, Note_on_c, 0, 81, 0
2, 79915, Note_on_c, 0, 86, 0
2, 79920, Note_on_c, 0, 77, 53
2, 79920, Note_on_c, 0, 80, 53
2, 79920, Note_on_c, 0, 86, 53
2, 79920, Note_on_c, 0, 59, 53
2, 80100, Note_on_c, 0, 68, 112
2, 80100, Note_on_c, 0, 74, 112
2, 80100, Note_on_c, 0, 65, 112
2, 80115, Note_on_c, 0, 65, 0
2, 80115, Note_on_c, 0, 68, 0
2, 80115, Note_on_c, 0, 74, 0
2, 80160, Note_on_c, 0, 68, 117
2, 80160, Note_on_c, 0, 74, 117
2, 80160, Note_on_c, 0, 65, 117
2, 80220, Note_on_c, 0, 65, 0
2, 80220, Note_on_c, 0, 68, 0
2, 80220, Note_on_c, 0, 74, 0
2, 80275, Note_on_c, 0, 59, 0
2, 80275, Note_on_c, 0, 77, 0
2, 80275, Note_on_c, 0, 80, 0
2, 80275, Note_on_c, 0, 86, 0
2, 80280, Note_on_c, 0, 76, 53
2, 80280, Note_on_c, 0, 79, 53
2, 80280, Note_on_c, 0, 84, 53
2, 80280, Note_on_c, 0, 60, 53
2, 80460, Note_on_c, 0, 67, 103
2, 80460, Note_on_c, 0, 72, 103
2, 80460, Note_on_c, 0, 64, 103
2, 80475, Note_on_c, 0, 64, 0
2, 80475, Note_on_c, 0, 67, 0
2, 80475, Note_on_c, 0, 72, 0
2, 80520, Note_on_c, 0, 67, 96
2, 80520, Note_on_c, 0, 72, 96
2, 80520, Note_on_c, 0, 64, 96
2, 80580, Note_on_c, 0, 64, 0
2, 80580, Note_on_c, 0, 67, 0
2, 80580, Note_on_c, 0, 72, 0
2, 80635, Note_on_c, 0, 60, 0
2, 80635, Note_on_c, 0, 76, 0
2, 80635, Note_on_c, 0, 79, 0
2, 80635, Note_on_c, 0, 84, 0
2, 80640, Note_on_c, 0, 75, 95
2, 80640, Note_on_c, 0, 79, 95
2, 80640, Note_on_c, 0, 84, 95
2, 80640, Note_on_c, 0, 55, 95
2, 80820, Note_on_c, 0, 67, 81
2, 80820, Note_on_c, 0, 72, 81
2, 80820, Note_on_c, 0, 63, 81
2, 80835, Note_on_c, 0, 63, 0
2, 80835, Note_on_c, 0, 67, 0
2, 80835, Note_on_c, 0, 72, 0
2, 80880, Note_on_c, 0, 67, 74
2, 80880, Note_on_c, 0, 72, 74
2, 80880, Note_on_c, 0, 63, 74
2, 80940, Note_on_c, 0, 63, 0
2, 80940, Note_on_c, 0, 67, 0
2, 80940, Note_on_c, 0, 72, 0
2, 80995, Note_on_c, 0, 55, 0
2, 80995, Note_on_c, 0, 75, 0
2, 80995, Note_on_c, 0, 79, 0
2, 80995, Note_on_c, 0, 84, 0
2, 81000, Note_on_c, 0, 79, 95
2, 81000, Note_on_c, 0, 83, 95
2, 81000, Note_on_c, 0, 74, 95
2, 81180, Note_on_c, 0, 67, 60
2, 81180, Note_on_c, 0, 71, 60
2, 81180, Note_on_c, 0, 62, 60
2, 81195, Note_on_c, 0, 62, 0
2, 81195, Note_on_c, 0, 67, 0
2, 81195, Note_on_c, 0, 71, 0
2, 81240, Note_on_c, 0, 67, 53
2, 81240, Note_on_c, 0, 71, 53
2, 81240, Note_on_c, 0, 62, 53
2, 81300, Note_on_c, 0, 62, 0
2, 81300, Note_on_c, 0, 67, 0
2, 81300, Note_on_c, 0, 71, 0
2, 81355, Note_on_c, 0, 83, 0
2, 81355, Note_on_c, 0, 79, 0
2, 81355, Note_on_c, 0, 74, 0
2, 81360, Note_on_c, 0, 67, 60
2, 81540, Note_on_c, 0, 55, 53
2, 81560, Note_on_c, 0, 55, 0
2, 81600, Note_on_c, 0, 55, 53
2, 81660, Note_on_c, 0, 55, 0
2, 81715, Note_on_c, 0, 67, 0
2, 81720, Note_on_c, 0, 67, 68
2, 81720, Note_on_c, 0, 48, 53
2, 81900, Note_on_c, 0, 55, 53
2, 81915, Note_on_c, 0, 55, 0
2, 81960, Note_on_c, 0, 55, 53
2, 82020, Note_on_c, 0, 55, 0
2, 82075, Note_on_c, 0, 48, 0
2, 82075, Note_on_c, 0, 67, 0
2, 82080, Note_on_c, 0, 69, 75
2, 82080, Note_on_c, 0, 67, 75
2, 82080, Note_on_c, 0, 41, 53
2, 82260, Note_on_c, 0, 57, 53
2, 82260, Note_on_c, 0, 55, 53
2, 82275, Note_on_c, 0, 55, 0
2, 82275, Note_on_c, 0, 57, 0
2, 82320, Note_on_c, 0, 57, 53
2, 82320, Note_on_c, 0, 55, 53
2, 82380, Note_on_c, 0, 55, 0
2, 82380, Note_on_c, 0, 57, 0
2, 82435, Note_on_c, 0, 41, 0
2, 82435, Note_on_c, 0, 67, 0
2, 82435, Note_on_c, 0, 69, 0
2, 82440, Note_on_c, 0, 69, 83
2, 82440, Note_on_c, 0, 74, 83
2, 82440, Note_on_c, 0, 65, 83
2, 82440, Note_on_c, 0, 38, 53
2, 82620, Note_on_c, 0, 57, 53
2, 82620, Note_on_c, 0, 62, 53
2, 82620, Note_on_c, 0, 53, 53
2, 82635, Note_on_c, 0, 53, 0
2, 82635, Note_on_c, 0, 57, 0
2, 82635, Note_on_c, 0, 62, 0
2, 82680, Note_on_c, 0, 57, 53
2, 82680, Note_on_c, 0, 62, 53
2, 82680, Note_on_c, 0, 53, 53
2, 82740, Note_on_c, 0, 53, 0
2, 82740, Note_on_c, 0, 57, 0
2, 82740, Note_on_c, 0, 62, 0
2, 82795, Note_on_c, 0, 38, 0
2, 82795, Note_on_c, 0, 69, 0
2, 82795, Note_on_c, 0, 74, 0
2, 82795, Note_on_c, 0, 65, 0
2, 82800, Note_on_c, 0, 68, 90
2, 82800, Note_on_c, 0, 74, 90
2, 82800, Note_on_c, 0, 65, 90
2, 82800, Note_on_c, 0, 43, 53
2, 82980, Note_on_c, 0, 56, 53
2, 82980, Note_on_c, 0, 62, 53
2, 82980, Note_on_c, 0, 53, 53
2, 82995, Note_on_c, 0, 53, 0
2, 82995, Note_on_c, 0, 56, 0
2, 82995, Note_on_c, 0, 62, 0
2, 83040, Note_on_c, 0, 56, 53
2, 83040, Note_on_c, 0, 62, 53
2, 83040, Note_on_c, 0, 53, 53
2, 83100, Note_on_c, 0, 53, 0
2, 83100, Note_on_c, 0, 56, 0
2, 83100, Note_on_c, 0, 62, 0
2, 83155, Note_on_c, 0, 43, 0
2, 83155, Note_on_c, 0, 68, 0
2, 83155, Note_on_c, 0, 74, 0
2, 83155, Note_on_c, 0, 65, 0
2, 83160, Note_on_c, 0, 67, 97
2, 83160, Note_on_c, 0, 72, 97
2, 83160, Note_on_c, 0, 64, 97
2, 83160, Note_on_c, 0, 48, 53
2, 83340, Note_on_c, 0, 55, 53
2, 83340, Note_on_c, 0, 60, 53
2, 83340, Note_on_c, 0, 52, 53
2, 83355, Note_on_c, 0, 52, 0
2, 83355, Note_on_c, 0, 55, 0
2, 83355, Note_on_c, 0, 60, 0
2, 83400, Note_on_c, 0, 55, 53
2, 83400, Note_on_c, 0, 60, 53
2, 83400, Note_on_c, 0, 52, 53
2, 83460, Note_on_c, 0, 52, 0
2, 83460, Note_on_c, 0, 55, 0
2, 83460, Note_on_c, 0, 60, 0
2, 83515, Note_on_c, 0, 48, 0
2, 83515, Note_on_c, 0, 67, 0
2, 83515, Note_on_c, 0, 72, 0
2, 83515, Note_on_c, 0, 64, 0
2, 83520, Note_on_c, 0, 67, 105
2, 83520, Note_on_c, 0, 72, 105
2, 83520, Note_on_c, 0, 63, 105
2, 83520, Note_on_c, 0, 43, 53
2, 83700, Note_on_c, 0, 55, 53
2, 83700, Note_on_c, 0, 60, 53
2, 83700, Note_on_c, 0, 51, 53
2, 83715, Note_on_c, 0, 51, 0
2, 83715, Note_on_c, 0, 55, 0
2, 83715, Note_on_c, 0, 60, 0
2, 83760, Note_on_c, 0, 55, 53
2, 83760, Note_on_c, 0, 60, 53
2, 83760, Note_on_c, 0, 51, 53
2, 83820, Note_on_c, 0, 51, 0
2, 83820, Note_on_c, 0, 55, 0
2, 83820, Note_on_c, 0, 60, 0
2, 83875, Note_on_c, 0, 43, 0
2, 83875, Note_on_c, 0, 67, 0
2, 83875, Note_on_c, 0, 72, 0
2, 83875, Note_on_c, 0, 63, 0
2, 83880, Note_on_c, 0, 67, 112
2, 83880, Note_on_c, 0, 71, 112
2, 83880, Note_on_c, 0, 62, 112
2, 83880, Note_on_c, 0, 43, 53
2, 84060, Note_on_c, 0, 55, 53
2, 84060, Note_on_c, 0, 59, 53
2, 84060, Note_on_c, 0, 50, 53
2, 84075, Note_on_c, 0, 50, 0
2, 84075, Note_on_c, 0, 55, 0
2, 84075, Note_on_c, 0, 59, 0
2, 84120, Note_on_c, 0, 55, 53
2, 84120, Note_on_c, 0, 59, 53
2, 84120, Note_on_c, 0, 50, 53
2, 84180, Note_on_c, 0, 50, 0
2, 84180, Note_on_c, 0, 55, 0
2, 84180, Note_on_c, 0, 59, 0
2, 84235, Note_on_c, 0, 43, 0
2, 84235, Note_on_c, 0, 67, 0
2, 84235, Note_on_c, 0, 71, 0
2, 84235, Note_on_c, 0, 62, 0
2, 84240, Note_on_c, 0, 72, 117
2, 84240, Note_on_c, 0, 64, 117
2, 84240, Note_on_c, 0, 60, 95
2, 84240, Note_on_c, 0, 48, 95
2, 84300, Note_on_c, 0, 48, 0
2, 84300, Note_on_c, 0, 60, 0
2, 84420, Note_on_c, 0, 48, 95
2, 84420, Note_on_c, 0, 36, 95
2, 84450, Note_on_c, 0, 36, 0
2, 84450, Note_on_c, 0, 48, 0
2, 84475, Note_on_c, 0, 64, 0
2, 84475, Note_on_c, 0, 72, 0
2, 84480, Note_on_c, 0, 65, 117
2, 84480, Note_on_c, 0, 74, 117
2, 84480, Note_on_c, 0, 62, 117
2, 84480, Note_on_c, 0, 48, 95
2, 84480, Note_on_c, 0, 36, 95
2, 84540, Note_on_c, 0, 36, 0
2, 84540, Note_on_c, 0, 62, 0
2, 84540, Note_on_c, 0, 65, 0
2, 84540, Note_on_c, 0, 74, 0
2, 84540, Note_on_c, 0, 48, 0
2, 84540, Note_on_c, 0, 67, 117
2, 84540, Note_on_c, 0, 76, 117
2, 84540, Note_on_c, 0, 64, 117
2, 84600, Note_on_c, 0, 64, 0
2, 84600, Note_on_c, 0, 76, 0
2, 84600, Note_on_c, 0, 67, 0
2, 84600, Note_on_c, 0, 69, 117
2, 84600, Note_on_c, 0, 77, 117
2, 84600, Note_on_c, 0, 65, 117
2, 84600, Note_on_c, 0, 60, 95
2, 84600, Note_on_c, 0, 48, 95
2, 84660, Note_on_c, 0, 48, 0
2, 84660, Note_on_c, 0, 65, 0
2, 84660, Note_on_c, 0, 69, 0
2, 84660, Note_on_c, 0, 77, 0
2, 84660, Note_on_c, 0, 60, 0
2, 84780, Note_on_c, 0, 48, 95
2, 84780, Note_on_c, 0, 36, 95
2, 84810, Note_on_c, 0, 36, 0
2, 84810, Note_on_c, 0, 48, 0
2, 84840, Note_on_c, 0, 67, 117
2, 84840, Note_on_c, 0, 76, 117
2, 84840, Note_on_c, 0, 64, 117
2, 84840, Note_on_c, 0, 48, 95
2, 84840, Note_on_c, 0, 36, 95
2, 84900, Note_on_c, 0, 36, 0
2, 84900, Note_on_c, 0, 64, 0
2, 84900, Note_on_c, 0, 67, 0
2, 84900, Note_on_c, 0, 76, 0
2, 84900, Note_on_c, 0, 48, 0
2, 84960, Note_on_c, 0, 65, 117
2, 84960, Note_on_c, 0, 74, 117
2, 84960, Note_on_c, 0, 62, 117
2, 84960, Note_on_c, 0, 60, 95
2, 84960, Note_on_c, 0, 48, 95
2, 85080, Note_on_c, 0, 48, 0
2, 85080, Note_on_c, 0, 62, 0
2, 85080, Note_on_c, 0, 65, 0
2, 85080, Note_on_c, 0, 74, 0
2, 85080, Note_on_c, 0, 60, 0
2, 85140, Note_on_c, 0, 48, 95
2, 85140, Note_on_c, 0, 36, 95
2, 85170, Note_on_c, 0, 36, 0
2, 85170, Note_on_c, 0, 48, 0
2, 85200, Note_on_c, 0, 64, 117
2, 85200, Note_on_c, 0, 72, 117
2, 85200, Note_on_c, 0, 60, 117
2, 85200, Note_on_c, 0, 48, 95
2, 85200, Note_on_c, 0, 36, 95
2, 85260, Note_on_c, 0, 36, 0
2, 85260, Note_on_c, 0, 60, 0
2, 85260, Note_on_c, 0, 64, 0
2, 85260, Note_on_c, 0, 72, 0
2, 85260, Note_on_c, 0, 48, 0
2, 85320, Note_on_c, 0, 65, 117
2, 85320, Note_on_c, 0, 74, 117
2, 85320, Note_on_c, 0, 62, 117
2, 85320, Note_on_c, 0, 60, 95
2, 85320, Note_on_c, 0, 48, 95
2, 85440, Note_on_c, 0, 48, 0
2, 85440, Note_on_c, 0, 62, 0
2, 85440, Note_on_c, 0, 65, 0
2, 85440, Note_on_c, 0, 74, 0
2, 85440, Note_on_c, 0, 60, 0
2, 85500, Note_on_c, 0, 48, 95
2, 85500, Note_on_c, 0, 36, 95
2, 85530, Note_on_c, 0, 36, 0
2, 85530, Note_on_c, 0, 48, 0
2, 85560, Note_on_c, 0, 62, 117
2, 85560, Note_on_c, 0, 71, 117
2, 85560, Note_on_c, 0, 59, 117
2, 85560, Note_on_c, 0, 48, 95
2, 85560, Note_on_c, 0, 36, 95
2, 85615, Note_on_c, 0, 36, 0
2, 85615, Note_on_c, 0, 59, 0
2, 85615, Note_on_c, 0, 62, 0
2, 85615, Note_on_c, 0, 71, 0
2, 85615, Note_on_c, 0, 48, 0
2, 85680, Note_on_c, 0, 72, 117
2, 85680, Note_on_c, 0, 76, 117
2, 85680, Note_on_c, 0, 64, 117
2, 85680, Note_on_c, 0, 60, 95
2, 85680, Note_on_c, 0, 48, 95
2, 85740, Note_on_c, 0, 48, 0
2, 85740, Note_on_c, 0, 60, 0
2, 85860, Note_on_c, 0, 48, 95
2, 85860, Note_on_c, 0, 36, 95
2, 85890, Note_on_c, 0, 36, 0
2, 85890, Note_on_c, 0, 48, 0
2, 85915, Note_on_c, 0, 64, 0
2, 85915, Note_on_c, 0, 76, 0
2, 85915, Note_on_c, 0, 72, 0
2, 85920, Note_on_c, 0, 74, 117
2, 85920, Note_on_c, 0, 77, 117
2, 85920, Note_on_c, 0, 65, 117
2, 85920, Note_on_c, 0, 48, 95
2, 85920, Note_on_c, 0, 36, 95
2, 85975, Note_on_c, 0, 36, 0
2, 85975, Note_on_c, 0, 65, 0
2, 85975, Note_on_c, 0, 74, 0
2, 85975, Note_on_c, 0, 77, 0
2, 85975, Note_on_c, 0, 48, 0
2, 85980, Note_on_c, 0, 76, 117
2, 85980, Note_on_c, 0, 79, 117
2, 85980, Note_on_c, 0, 67, 117
2, 86035, Note_on_c, 0, 67, 0
2, 86035, Note_on_c, 0, 79, 0
2, 86035, Note_on_c, 0, 76, 0
2, 86040, Note_on_c, 0, 77, 117
2, 86040, Note_on_c, 0, 81, 117
2, 86040, Note_on_c, 0, 69, 117
2, 86040, Note_on_c, 0, 60, 95
2, 86040, Note_on_c, 0, 48, 95
2, 86155, Note_on_c, 0, 48, 0
2, 86155, Note_on_c, 0, 69, 0
2, 86155, Note_on_c, 0, 77, 0
2, 86155, Note_on_c, 0, 81, 0
2, 86155, Note_on_c, 0, 60, 0
2, 86220, Note_on_c, 0, 48, 95
2, 86220, Note_on_c, 0, 36, 95
2, 86250, Note_on_c, 0, 36, 0
2, 86250, Note_on_c, 0, 48, 0
2, 86280, Note_on_c, 0, 76, 117
2, 86280, Note_on_c, 0, 79, 117
2, 86280, Note_on_c, 0, 67, 117
2, 86280, Note_on_c, 0, 48, 95
2, 86280, Note_on_c, 0, 36, 95
2, 86340, Note_on_c, 0, 36, 0
2, 86340, Note_on_c, 0, 67, 0
2, 86340, Note_on_c, 0, 76, 0
2, 86340, Note_on_c, 0, 79, 0
2, 86340, Note_on_c, 0, 48, 0
2, 86400, Note_on_c, 0, 74, 117
2, 86400, Note_on_c, 0, 77, 117
2, 86400, Note_on_c, 0, 65, 117
2, 86400, Note_on_c, 0, 60, 95
2, 86400, Note_on_c, 0, 48, 95
2, 86520, Note_on_c, 0, 48, 0
2, 86520, Note_on_c, 0, 65, 0
2, 86520, Note_on_c, 0, 74, 0
2, 86520, Note_on_c, 0, 77, 0
2, 86520, Note_on_c, 0, 60, 0
2, 86580, Note_on_c, 0, 48, 95
2, 86580, Note_on_c, 0, 36, 95
2, 86610, Note_on_c, 0, 36, 0
2, 86610, Note_on_c, 0, 48, 0
2, 86640, Note_on_c, 0, 72, 117
2, 86640, Note_on_c, 0, 76, 117
2, 86640, Note_on_c, 0, 64, 117
2, 86640, Note_on_c, 0, 48, 95
2, 86640, Note_on_c, 0, 36, 95
2, 86700, Note_on_c, 0, 36, 0
2, 86700, Note_on_c, 0, 64, 0
2, 86700, Note_on_c, 0, 72, 0
2, 86700, Note_on_c, 0, 76, 0
2, 86700, Note_on_c, 0, 48, 0
2, 86760, Note_on_c, 0, 74, 117
2, 86760, Note_on_c, 0, 77, 117
2, 86760, Note_on_c, 0, 65, 117
2, 86760, Note_on_c, 0, 60, 95
2, 86760, Note_on_c, 0, 48, 95
2, 86880, Note_on_c, 0, 48, 0
2, 86880, Note_on_c, 0, 65, 0
2, 86880, Note_on_c, 0, 74, 0
2, 86880, Note_on_c, 0, 77, 0
2, 86880, Note_on_c, 0, 60, 0
2, 86940, Note_on_c, 0, 48, 95
2, 86940, Note_on_c, 0, 36, 95
2, 86970, Note_on_c, 0, 36, 0
2, 86970, Note_on_c, 0, 48, 0
2, 87000, Note_on_c, 0, 71, 117
2, 87000, Note_on_c, 0, 74, 117
2, 87000, Note_on_c, 0, 62, 117
2, 87000, Note_on_c, 0, 48, 95
2, 87000, Note_on_c, 0, 36, 95
2, 87060, Note_on_c, 0, 36, 0
2, 87060, Note_on_c, 0, 62, 0
2, 87060, Note_on_c, 0, 71, 0
2, 87060, Note_on_c, 0, 74, 0
2, 87060, Note_on_c, 0, 48, 0
2, 87120, Note_on_c, 0, 72, 117
2, 87120, Note_on_c, 0, 64, 117
2, 87120, Note_on_c, 0, 60, 95
2, 87120, Note_on_c, 0, 48, 95
2, 87180, Note_on_c, 0, 48, 0
2, 87180, Note_on_c, 0, 72, 0
2, 87180, Note_on_c, 0, 64, 0
2, 87180, Note_on_c, 0, 60, 0
2, 87240, Note_on_c, 0, 76, 117
2, 87240, Note_on_c, 0, 84, 117
2, 87240, Note_on_c, 0, 72, 117
2, 87300, Note_on_c, 0, 48, 95
2, 87300, Note_on_c, 0, 36, 95
2, 87330, Note_on_c, 0, 36, 0
2, 87330, Note_on_c, 0, 48, 0
2, 87355, Note_on_c, 0, 76, 0
2, 87355, Note_on_c, 0, 84, 0
2, 87355, Note_on_c, 0, 72, 0
2, 87360, Note_on_c, 0, 77, 117
2, 87360, Note_on_c, 0, 86, 117
2, 87360, Note_on_c, 0, 74, 117
2, 87360, Note_on_c, 0, 48, 95
2, 87360, Note_on_c, 0, 36, 95
2, 87420, Note_on_c, 0, 36, 0
2, 87420, Note_on_c, 0, 74, 0
2, 87420, Note_on_c, 0, 77, 0
2, 87420, Note_on_c, 0, 86, 0
2, 87420, Note_on_c, 0, 48, 0
2, 87420, Note_on_c, 0, 79, 117
2, 87420, Note_on_c, 0, 88, 117
2, 87420, Note_on_c, 0, 76, 117
2, 87480, Note_on_c, 0, 76, 0
2, 87480, Note_on_c, 0, 88, 0
2, 87480, Note_on_c, 0, 79, 0
2, 87480, Note_on_c, 0, 81, 117
2, 87480, Note_on_c, 0, 89, 117
2, 87480, Note_on_c, 0, 77, 117
2, 87480, Note_on_c, 0, 60, 95
2, 87480, Note_on_c, 0, 48, 95
2, 87530, Note_on_c, 0, 48, 0
2, 87530, Note_on_c, 0, 77, 0
2, 87530, Note_on_c, 0, 81, 0
2, 87530, Note_on_c, 0, 89, 0
2, 87530, Note_on_c, 0, 60, 0
2, 87600, Note_on_c, 0, 81, 117
2, 87600, Note_on_c, 0, 89, 117
2, 87600, Note_on_c, 0, 77, 117
2, 87650, Note_on_c, 0, 77, 0
2, 87650, Note_on_c, 0, 89, 0
2, 87650, Note_on_c, 0, 81, 0
2, 87660, Note_on_c, 0, 48, 95
2, 87660, Note_on_c, 0, 36, 95
2, 87685, Note_on_c, 0, 36, 0
2, 87685, Note_on_c, 0, 48, 0
2, 87720, Note_on_c, 0, 79, 117
2, 87720, Note_on_c, 0, 88, 117
2, 87720, Note_on_c, 0, 76, 117
2, 87720, Note_on_c, 0, 48, 95
2, 87720, Note_on_c, 0, 36, 95
2, 87835, Note_on_c, 0, 36, 0
2, 87835, Note_on_c, 0, 76, 0
2, 87835, Note_on_c, 0, 79, 0
2, 87835, Note_on_c, 0, 88, 0
2, 87835, Note_on_c, 0, 48, 0
2, 87840, Note_on_c, 0, 77, 117
2, 87840, Note_on_c, 0, 86, 117
2, 87840, Note_on_c, 0, 74, 117
2, 87840, Note_on_c, 0, 60, 95
2, 87840, Note_on_c, 0, 48, 95
2, 87955, Note_on_c, 0, 48, 0
2, 87955, Note_on_c, 0, 74, 0
2, 87955, Note_on_c, 0, 77, 0
2, 87955, Note_on_c, 0, 86, 0
2, 87955, Note_on_c, 0, 60, 0
2, 87960, Note_on_c, 0, 77, 117
2, 87960, Note_on_c, 0, 86, 117
2, 87960, Note_on_c, 0, 74, 117
2, 88020, Note_on_c, 0, 48, 95
2, 88020, Note_on_c, 0, 36, 95
2, 88050, Note_on_c, 0, 36, 0
2, 88050, Note_on_c, 0, 48, 0
2, 88075, Note_on_c, 0, 77, 0
2, 88075, Note_on_c, 0, 86, 0
2, 88075, Note_on_c, 0, 74, 0
2, 88080, Note_on_c, 0, 76, 117
2, 88080, Note_on_c, 0, 84, 117
2, 88080, Note_on_c, 0, 72, 117
2, 88080, Note_on_c, 0, 48, 95
2, 88080, Note_on_c, 0, 36, 95
2, 88195, Note_on_c, 0, 36, 0
2, 88195, Note_on_c, 0, 72, 0
2, 88195, Note_on_c, 0, 76, 0
2, 88195, Note_on_c, 0, 84, 0
2, 88195, Note_on_c, 0, 48, 0
2, 88200, Note_on_c, 0, 77, 117
2, 88200, Note_on_c, 0, 86, 117
2, 88200, Note_on_c, 0, 74, 117
2, 88200, Note_on_c, 0, 60, 95
2, 88200, Note_on_c, 0, 48, 95
2, 88315, Note_on_c, 0, 48, 0
2, 88315, Note_on_c, 0, 74, 0
2, 88315, Note_on_c, 0, 77, 0
2, 88315, Note_on_c, 0, 86, 0
2, 88315, Note_on_c, 0, 60, 0
2, 88320, Note_on_c, 0, 77, 117
2, 88320, Note_on_c, 0, 86, 117
2, 88320, Note_on_c, 0, 74, 117
2, 88380, Note_on_c, 0, 48, 95
2, 88380, Note_on_c, 0, 36, 95
2, 88410, Note_on_c, 0, 36, 0
2, 88410, Note_on_c, 0, 48, 0
2, 88435, Note_on_c, 0, 77, 0
2, 88435, Note_on_c, 0, 86, 0
2, 88435, Note_on_c, 0, 74, 0
2, 88440, Note_on_c, 0, 74, 117
2, 88440, Note_on_c, 0, 83, 117
2, 88440, Note_on_c, 0, 71, 117
2, 88440, Note_on_c, 0, 48, 95
2, 88440, Note_on_c, 0, 36, 95
2, 88555, Note_on_c, 0, 36, 0
2, 88555, Note_on_c, 0, 71, 0
2, 88555, Note_on_c, 0, 74, 0
2, 88555, Note_on_c, 0, 83, 0
2, 88555, Note_on_c, 0, 48, 0
2, 88560, Note_on_c, 0, 84, 117
2, 88560, Note_on_c, 0, 88, 117
2, 88560, Note_on_c, 0, 76, 117
2, 88560, Note_on_c, 0, 60, 95
2, 88560, Note_on_c, 0, 48, 95
2, 88675, Note_on_c, 0, 48, 0
2, 88675, Note_on_c, 0, 76, 0
2, 88675, Note_on_c, 0, 84, 0
2, 88675, Note_on_c, 0, 88, 0
2, 88675, Note_on_c, 0, 60, 0
2, 88680, Note_on_c, 0, 84, 117
2, 88680, Note_on_c, 0, 88, 117
2, 88680, Note_on_c, 0, 76, 117
2, 88740, Note_on_c, 0, 48, 95
2, 88740, Note_on_c, 0, 36, 95
2, 88770, Note_on_c, 0, 36, 0
2, 88770, Note_on_c, 0, 48, 0
2, 88795, Note_on_c, 0, 84, 0
2, 88795, Note_on_c, 0, 88, 0
2, 88795, Note_on_c, 0, 76, 0
2, 88800, Note_on_c, 0, 86, 117
2, 88800, Note_on_c, 0, 89, 117
2, 88800, Note_on_c, 0, 77, 117
2, 88800, Note_on_c, 0, 48, 95
2, 88800, Note_on_c, 0, 36, 95
2, 88855, Note_on_c, 0, 36, 0
2, 88855, Note_on_c, 0, 77, 0
2, 88855, Note_on_c, 0, 86, 0
2, 88855, Note_on_c, 0, 89, 0
2, 88855, Note_on_c, 0, 48, 0
2, 88860, Note_on_c, 0, 88, 117
2, 88860, Note_on_c, 0, 91, 117
2, 88860, Note_on_c, 0, 79, 117
2, 88915, Note_on_c, 0, 79, 0
2, 88915, Note_on_c, 0, 91, 0
2, 88915, Note_on_c, 0, 88, 0
2, 88920, Note_on_c, 0, 89, 117
2, 88920, Note_on_c, 0, 93, 117
2, 88920, Note_on_c, 0, 81, 117
2, 88920, Note_on_c, 0, 60, 95
2, 88920, Note_on_c, 0, 48, 95
2, 89035, Note_on_c, 0, 48, 0
2, 89035, Note_on_c, 0, 81, 0
2, 89035, Note_on_c, 0, 89, 0
2, 89035, Note_on_c, 0, 93, 0
2, 89035, Note_on_c, 0, 60, 0
2, 89040, Note_on_c, 0, 89, 117
2, 89040, Note_on_c, 0, 93, 117
2, 89040, Note_on_c, 0, 81, 117
2, 89100, Note_on_c, 0, 48, 95
2, 89100, Note_on_c, 0, 36, 95
2, 89130, Note_on_c, 0, 36, 0
2, 89130, Note_on_c, 0, 48, 0
2, 89155, Note_on_c, 0, 89, 0
2, 89155, Note_on_c, 0, 93, 0
2, 89155, Note_on_c, 0, 81, 0
2, 89160, Note_on_c, 0, 88, 117
2, 89160, Note_on_c, 0, 91, 117
2, 89160, Note_on_c, 0, 79, 117
2, 89160, Note_on_c, 0, 48, 95
2, 89160, Note_on_c, 0, 36, 95
2, 89275, Note_on_c, 0, 36, 0
2, 89275, Note_on_c, 0, 79, 0
2, 89275, Note_on_c, 0, 88, 0
2, 89275, Note_on_c, 0, 91, 0
2, 89275, Note_on_c, 0, 48, 0
2, 89280, Note_on_c, 0, 86, 117
2, 89280, Note_on_c, 0, 89, 117
2, 89280, Note_on_c, 0, 77, 117
2, 89280, Note_on_c, 0, 60, 95
2, 89280, Note_on_c, 0, 48, 95
2, 89395, Note_on_c, 0, 48, 0
2, 89395, Note_on_c, 0, 77, 0
2, 89395, Note_on_c, 0, 86, 0
2, 89395, Note_on_c, 0, 89, 0
2, 89395, Note_on_c, 0, 60, 0
2, 89400, Note_on_c, 0, 86, 117
2, 89400, Note_on_c, 0, 89, 117
2, 89400, Note_on_c, 0, 77, 117
2, 89460, Note_on_c, 0, 48, 95
2, 89460, Note_on_c, 0, 36, 95
2, 89490, Note_on_c, 0, 36, 0
2, 89490, Note_on_c, 0, 48, 0
2, 89515, Note_on_c, 0, 86, 0
2, 89515, Note_on_c, 0, 89, 0
2, 89515, Note_on_c, 0, 77, 0
2, 89520, Note_on_c, 0, 84, 117
2, 89520, Note_on_c, 0, 88, 117
2, 89520, Note_on_c, 0, 76, 117
2, 89520, Note_on_c, 0, 48, 95
2, 89520, Note_on_c, 0, 36, 95
2, 89635, Note_on_c, 0, 36, 0
2, 89635, Note_on_c, 0, 76, 0
2, 89635, Note_on_c, 0, 84, 0
2, 89635, Note_on_c, 0, 88, 0
2, 89635, Note_on_c, 0, 48, 0
2, 89640, Note_on_c, 0, 86, 117
2, 89640, Note_on_c, 0, 89, 117
2, 89640, Note_on_c, 0, 77, 117
2, 89640, Note_on_c, 0, 60, 95
2, 89640, Note_on_c, 0, 48, 95
2, 89755, Note_on_c, 0, 48, 0
2, 89755, Note_on_c, 0, 77, 0
2, 89755, Note_on_c, 0, 86, 0
2, 89755, Note_on_c, 0, 89, 0
2, 89755, Note_on_c, 0, 60, 0
2, 89760, Note_on_c, 0, 86, 117
2, 89760, Note_on_c, 0, 89, 117
2, 89760, Note_on_c, 0, 77, 117
2, 89820, Note_on_c, 0, 48, 95
2, 89820, Note_on_c, 0, 36, 95
2, 89850, Note_on_c, 0, 36, 0
2, 89850, Note_on_c, 0, 48, 0
2, 89875, Note_on_c, 0, 86, 0
2, 89875, Note_on_c, 0, 89, 0
2, 89875, Note_on_c, 0, 77, 0
2, 89880, Note_on_c, 0, 83, 117
2, 89880, Note_on_c, 0, 86, 117
2, 89880, Note_on_c, 0, 74, 117
2, 89880, Note_on_c, 0, 48, 95
2, 89880, Note_on_c, 0, 36, 95
2, 89995, Note_on_c, 0, 36, 0
2, 89995, Note_on_c, 0, 74, 0
2, 89995, Note_on_c, 0, 83, 0
2, 89995, Note_on_c, 0, 86, 0
2, 89995, Note_on_c, 0, 48, 0
2, 90000, Note_on_c, 0, 88, 117
2, 90000, Note_on_c, 0, 76, 117
2, 90000, Note_on_c, 0, 60, 95
2, 90000, Note_on_c, 0, 48, 95
2, 90115, Note_on_c, 0, 48, 0
2, 90115, Note_on_c, 0, 88, 0
2, 90115, Note_on_c, 0, 76, 0
2, 90115, Note_on_c, 0, 60, 0
2, 90180, Note_on_c, 0, 76, 117
2, 90180, Note_on_c, 0, 64, 117
2, 90180, Note_on_c, 0, 48, 95
2, 90180, Note_on_c, 0, 36, 95
2, 90210, Note_on_c, 0, 36, 0
2, 90210, Note_on_c, 0, 76, 0
2, 90210, Note_on_c, 0, 64, 0
2, 90210, Note_on_c, 0, 48, 0
2, 90240, Note_on_c, 0, 76, 117
2, 90240, Note_on_c, 0, 64, 117
2, 90240, Note_on_c, 0, 48, 95
2, 90240, Note_on_c, 0, 36, 95
2, 90330, Note_on_c, 0, 36, 0
2, 90330, Note_on_c, 0, 76, 0
2, 90330, Note_on_c, 0, 64, 0
2, 90330, Note_on_c, 0, 48, 0
2, 90360, Note_on_c, 0, 88, 117
2, 90360, Note_on_c, 0, 76, 117
2, 90360, Note_on_c, 0, 60, 95
2, 90360, Note_on_c, 0, 48, 95
2, 90420, Note_on_c, 0, 48, 0
2, 90420, Note_on_c, 0, 88, 0
2, 90420, Note_on_c, 0, 76, 0
2, 90420, Note_on_c, 0, 60, 0
2, 90480, Note_on_c, 0, 89, 117
2, 90480, Note_on_c, 0, 77, 117
2, 90480, Note_on_c, 0, 62, 95
2, 90480, Note_on_c, 0, 50, 95
2, 90540, Note_on_c, 0, 50, 0
2, 90540, Note_on_c, 0, 89, 0
2, 90540, Note_on_c, 0, 77, 0
2, 90540, Note_on_c, 0, 62, 0
2, 90600, Note_on_c, 0, 91, 117
2, 90600, Note_on_c, 0, 79, 117
2, 90600, Note_on_c, 0, 64, 95
2, 90600, Note_on_c, 0, 52, 95
2, 90660, Note_on_c, 0, 52, 0
2, 90660, Note_on_c, 0, 91, 0
2, 90660, Note_on_c, 0, 79, 0
2, 90660, Note_on_c, 0, 64, 0
2, 90720, Note_on_c, 0, 93, 117
2, 90720, Note_on_c, 0, 81, 117
2, 90720, Note_on_c, 0, 65, 95
2, 90720, Note_on_c, 0, 53, 95
2, 90780, Note_on_c, 0, 53, 0
2, 90780, Note_on_c, 0, 93, 0
2, 90780, Note_on_c, 0, 81, 0
2, 90780, Note_on_c, 0, 65, 0
2, 90900, Note_on_c, 0, 45, 95
2, 90900, Note_on_c, 0, 41, 95
2, 90930, Note_on_c, 0, 41, 0
2, 90930, Note_on_c, 0, 45, 0
2, 90960, Note_on_c, 0, 45, 95
2, 90960, Note_on_c, 0, 41, 95
2, 91075, Note_on_c, 0, 41, 0
2, 91075, Note_on_c, 0, 45, 0
2, 91080, Note_on_c, 0, 81, 117
2, 91080, Note_on_c, 0, 69, 117
2, 91080, Note_on_c, 0, 57, 95
2, 91080, Note_on_c, 0, 53, 95
2, 91195, Note_on_c, 0, 53, 0
2, 91195, Note_on_c, 0, 81, 0
2, 91195, Note_on_c, 0, 69, 0
2, 91195, Note_on_c, 0, 57, 0
2, 91200, Note_on_c, 0, 83, 117
2, 91200, Note_on_c, 0, 71, 117
2, 91200, Note_on_c, 0, 53, 95
2, 91200, Note_on_c, 0, 50, 95
2, 91315, Note_on_c, 0, 50, 0
2, 91315, Note_on_c, 0, 83, 0
2, 91315, Note_on_c, 0, 71, 0
2, 91315, Note_on_c, 0, 53, 0
2, 91320, Note_on_c, 0, 84, 117
2, 91320, Note_on_c, 0, 72, 117
2, 91320, Note_on_c, 0, 52, 95
2, 91320, Note_on_c, 0, 48, 95
2, 91435, Note_on_c, 0, 48, 0
2, 91435, Note_on_c, 0, 84, 0
2, 91435, Note_on_c, 0, 72, 0
2, 91435, Note_on_c, 0, 52, 0
2, 91440, Note_on_c, 0, 86, 117
2, 91440, Note_on_c, 0, 74, 117
2, 91440, Note_on_c, 0, 50, 95
2, 91440, Note_on_c, 0, 59, 95
2, 91440, Note_on_c, 0, 47, 95
2, 91555, Note_on_c, 0, 47, 0
2, 91555, Note_on_c, 0, 50, 0
2, 91555, Note_on_c, 0, 86, 0
2, 91555, Note_on_c, 0, 74, 0
2, 91555, Note_on_c, 0, 59, 0
2, 91620, Note_on_c, 0, 74, 117
2, 91620, Note_on_c, 0, 62, 117
2, 91620, Note_on_c, 0, 47, 95
2, 91620, Note_on_c, 0, 35, 95
2, 91650, Note_on_c, 0, 35, 0
2, 91650, Note_on_c, 0, 74, 0
2, 91650, Note_on_c, 0, 62, 0
2, 91650, Note_on_c, 0, 47, 0
2, 91680, Note_on_c, 0, 74, 117
2, 91680, Note_on_c, 0, 62, 117
2, 91680, Note_on_c, 0, 47, 95
2, 91680, Note_on_c, 0, 35, 95
2, 91795, Note_on_c, 0, 35, 0
2, 91795, Note_on_c, 0, 74, 0
2, 91795, Note_on_c, 0, 62, 0
2, 91795, Note_on_c, 0, 47, 0
2, 91800, Note_on_c, 0, 86, 117
2, 91800, Note_on_c, 0, 74, 117
2, 91800, Note_on_c, 0, 59, 95
2, 91800, Note_on_c, 0, 47, 95
2, 91915, Note_on_c, 0, 47, 0
2, 91915, Note_on_c, 0, 86, 0
2, 91915, Note_on_c, 0, 74, 0
2, 91915, Note_on_c, 0, 59, 0
2, 91920, Note_on_c, 0, 88, 117
2, 91920, Note_on_c, 0, 76, 117
2, 91920, Note_on_c, 0, 60, 95
2, 91920, Note_on_c, 0, 48, 95
2, 92035, Note_on_c, 0, 48, 0
2, 92035, Note_on_c, 0, 88, 0
2, 92035, Note_on_c, 0, 76, 0
2, 92035, Note_on_c, 0, 60, 0
2, 92040, Note_on_c, 0, 89, 117
2, 92040, Note_on_c, 0, 77, 117
2, 92040, Note_on_c, 0, 62, 95
2, 92040, Note_on_c, 0, 50, 95
2, 92155, Note_on_c, 0, 50, 0
2, 92155, Note_on_c, 0, 89, 0
2, 92155, Note_on_c, 0, 77, 0
2, 92155, Note_on_c, 0, 62, 0
2, 92160, Note_on_c, 0, 91, 117
2, 92160, Note_on_c, 0, 79, 117
2, 92160, Note_on_c, 0, 64, 95
2, 92160, Note_on_c, 0, 52, 95
2, 92275, Note_on_c, 0, 52, 0
2, 92275, Note_on_c, 0, 91, 0
2, 92275, Note_on_c, 0, 79, 0
2, 92275, Note_on_c, 0, 64, 0
2, 92340, Note_on_c, 0, 43, 95
2, 92340, Note_on_c, 0, 40, 95
2, 92370, Note_on_c, 0, 40, 0
2, 92370, Note_on_c, 0, 43, 0
2, 92400, Note_on_c, 0, 43, 95
2, 92400, Note_on_c, 0, 40, 95
2, 92515, Note_on_c, 0, 40, 0
2, 92515, Note_on_c, 0, 43, 0
2, 92520, Note_on_c, 0, 67, 117
2, 92520, Note_on_c, 0, 55, 95
2, 92520, Note_on_c, 0, 52, 95
2, 92635, Note_on_c, 0, 52, 0
2, 92635, Note_on_c, 0, 55, 0
2, 92635, Note_on_c, 0, 67, 0
2, 92640, Note_on_c, 0, 64, 117
2, 92640, Note_on_c, 0, 48, 95
2, 92755, Note_on_c, 0, 48, 0
2, 92755, Note_on_c, 0, 64, 0
2, 92760, Note_on_c, 0, 62, 117
2, 92760, Note_on_c, 0, 47, 95
2, 92875, Note_on_c, 0, 47, 0
2, 92875, Note_on_c, 0, 62, 0
2, 92880, Note_on_c, 0, 60, 53
2, 92880, Note_on_c, 0, 52, 53
2, 92880, Note_on_c, 0, 55, 53
2, 92880, Note_on_c, 0, 72, 53
2, 92880, Note_on_c, 0, 46, 53
2, 93000, Note_on_c, 0, 65, 53
2, 93000, Note_on_c, 0, 50, 53
2, 93030, Note_on_c, 0, 52, 0
2, 93030, Note_on_c, 0, 60, 0
2, 93115, Note_on_c, 0, 65, 0
2, 93115, Note_on_c, 0, 50, 0
2, 93120, Note_on_c, 0, 64, 53
2, 93120, Note_on_c, 0, 48, 53
2, 93235, Note_on_c, 0, 48, 0
2, 93240, Note_on_c, 0, 64, 53
2, 93240, Note_on_c, 0, 55, 53
2, 93265, Note_on_c, 0, 64, 0
2, 93355, Note_on_c, 0, 46, 0
2, 93355, Note_on_c, 0, 72, 0
2, 93355, Note_on_c, 0, 55, 0
2, 93355, Note_on_c, 0, 55, 0
2, 93355, Note_on_c, 0, 64, 0
2, 93360, Note_on_c, 0, 65, 53
2, 93360, Note_on_c, 0, 74, 53
2, 93360, Note_on_c, 0, 53, 53
2, 93475, Note_on_c, 0, 53, 0
2, 93475, Note_on_c, 0, 74, 0
2, 93475, Note_on_c, 0, 65, 0
2, 93480, Note_on_c, 0, 67, 53
2, 93480, Note_on_c, 0, 76, 53
2, 93480, Note_on_c, 0, 52, 53
2, 93595, Note_on_c, 0, 52, 0
2, 93595, Note_on_c, 0, 76, 0
2, 93595, Note_on_c, 0, 67, 0
2, 93600, Note_on_c, 0, 55, 60
2, 93600, Note_on_c, 0, 65, 60
2, 93600, Note_on_c, 0, 50, 60
2, 93600, Note_on_c, 0, 77, 74
2, 93600, Note_on_c, 0, 46, 74
2, 93715, Note_on_c, 0, 50, 0
2, 93715, Note_on_c, 0, 55, 0
2, 93715, Note_on_c, 0, 65, 0
2, 93720, Note_on_c, 0, 64, 67
2, 93720, Note_on_c, 0, 48, 67
2, 93835, Note_on_c, 0, 48, 0
2, 93835, Note_on_c, 0, 46, 0
2, 93835, Note_on_c, 0, 77, 0
2, 93835, Note_on_c, 0, 64, 0
2, 93840, Note_on_c, 0, 65, 74
2, 93840, Note_on_c, 0, 50, 74
2, 93955, Note_on_c, 0, 50, 0
2, 93955, Note_on_c, 0, 65, 0
2, 93960, Note_on_c, 0, 67, 81
2, 93960, Note_on_c, 0, 52, 81
2, 93960, Note_on_c, 0, 76, 96
2, 94075, Note_on_c, 0, 52, 0
2, 94075, Note_on_c, 0, 67, 0
2, 94080, Note_on_c, 0, 53, 89
2, 94080, Note_on_c, 0, 60, 89
2, 94080, Note_on_c, 0, 45, 89
2, 94195, Note_on_c, 0, 45, 0
2, 94195, Note_on_c, 0, 76, 0
2, 94195, Note_on_c, 0, 53, 0
2, 94195, Note_on_c, 0, 60, 0
2, 94200, Note_on_c, 0, 55, 96
2, 94200, Note_on_c, 0, 72, 96
2, 94200, Note_on_c, 0, 43, 96
2, 94315, Note_on_c, 0, 43, 0
2, 94315, Note_on_c, 0, 55, 0
2, 94320, Note_on_c, 0, 72, 117
2, 94320, Note_on_c, 0, 76, 117
2, 94320, Note_on_c, 0, 64, 117
2, 94320, Note_on_c, 0, 54, 103
2, 94320, Note_on_c, 0, 45, 103
2, 94345, Note_on_c, 0, 72, 0
2, 94430, Note_on_c, 0, 54, 0
2, 94430, Note_on_c, 0, 45, 0
2, 94435, Note_on_c, 0, 72, 0
2, 94440, Note_on_c, 0, 55, 110
2, 94440, Note_on_c, 0, 43, 110
2, 94555, Note_on_c, 0, 43, 0
2, 94555, Note_on_c, 0, 64, 0
2, 94555, Note_on_c, 0, 76, 0
2, 94555, Note_on_c, 0, 55, 0
2, 94560, Note_on_c, 0, 57, 117
2, 94560, Note_on_c, 0, 42, 117
2, 94675, Note_on_c, 0, 42, 0
2, 94675, Note_on_c, 0, 57, 0
2, 94680, Note_on_c, 0, 55, 85
2, 94680, Note_on_c, 0, 43, 85
2, 94795, Note_on_c, 0, 55, 0
2, 94800, Note_on_c, 0, 74, 53
2, 94800, Note_on_c, 0, 62, 53
2, 94800, Note_on_c, 0, 53, 53
2, 94800, Note_on_c, 0, 43, 53
2, 94825, Note_on_c, 0, 43, 0
2, 94915, Note_on_c, 0, 53, 0
2, 94915, Note_on_c, 0, 74, 0
2, 94915, Note_on_c, 0, 62, 0
2, 94915, Note_on_c, 0, 43, 0
2, 94920, Note_on_c, 0, 72, 21
2, 94920, Note_on_c, 0, 60, 21
2, 94920, Note_on_c, 0, 52, 21
2, 94920, Note_on_c, 0, 43, 21
2, 95035, Note_on_c, 0, 43, 0
2, 95035, Note_on_c, 0, 72, 0
2, 95035, Note_on_c, 0, 60, 0
2, 95035, Note_on_c, 0, 52, 0
2, 95040, Note_on_c, 0, 84, 21
2, 95040, Note_on_c, 0, 89, 21
2, 95040, Note_on_c, 0, 77, 21
2, 95040, Note_on_c, 0, 55, 21
2, 95040, Note_on_c, 0, 58, 21
2, 95040, Note_on_c, 0, 67, 21
2, 95040, Note_on_c, 0, 46, 21
2, 95155, Note_on_c, 0, 67, 0
2, 95160, Note_on_c, 0, 60, 21
2, 95275, Note_on_c, 0, 60, 0
2, 95275, Note_on_c, 0, 46, 0
2, 95275, Note_on_c, 0, 89, 0
2, 95275, Note_on_c, 0, 77, 0
2, 95275, Note_on_c, 0, 84, 0
2, 95275, Note_on_c, 0, 58, 0
2, 95275, Note_on_c, 0, 55, 0
2, 95280, Note_on_c, 0, 62, 21
2, 95395, Note_on_c, 0, 62, 0
2, 95400, Note_on_c, 0, 84, 51
2, 95400, Note_on_c, 0, 88, 51
2, 95400, Note_on_c, 0, 76, 51
2, 95400, Note_on_c, 0, 64, 31
2, 95515, Note_on_c, 0, 64, 0
2, 95520, Note_on_c, 0, 65, 41
2, 95520, Note_on_c, 0, 57, 41
2, 95635, Note_on_c, 0, 57, 0
2, 95635, Note_on_c, 0, 84, 0
2, 95635, Note_on_c, 0, 76, 0
2, 95635, Note_on_c, 0, 88, 0
2, 95635, Note_on_c, 0, 65, 0
2, 95640, Note_on_c, 0, 67, 51
2, 95640, Note_on_c, 0, 55, 51
2, 95755, Note_on_c, 0, 55, 0
2, 95755, Note_on_c, 0, 67, 0
2, 95760, Note_on_c, 0, 84, 82
2, 95760, Note_on_c, 0, 88, 82
2, 95760, Note_on_c, 0, 76, 82
2, 95760, Note_on_c, 0, 66, 61
2, 95760, Note_on_c, 0, 57, 61
2, 95875, Note_on_c, 0, 57, 0
2, 95875, Note_on_c, 0, 66, 0
2, 95880, Note_on_c, 0, 67, 72
2, 95880, Note_on_c, 0, 55, 72
2, 95995, Note_on_c, 0, 55, 0
2, 95995, Note_on_c, 0, 84, 0
2, 95995, Note_on_c, 0, 76, 0
2, 95995, Note_on_c, 0, 88, 0
2, 95995, Note_on_c, 0, 67, 0
2, 96000, Note_on_c, 0, 69, 82
2, 96000, Note_on_c, 0, 54, 82
2, 96115, Note_on_c, 0, 54, 0
2, 96115, Note_on_c, 0, 69, 0
2, 96120, Note_on_c, 0, 67, 92
2, 96120, Note_on_c, 0, 55, 92
2, 96235, Note_on_c, 0, 55, 0
2, 96235, Note_on_c, 0, 67, 0
2, 96240, Note_on_c, 0, 86, 102
2, 96240, Note_on_c, 0, 89, 102
2, 96240, Note_on_c, 0, 77, 102
2, 96240, Note_on_c, 0, 65, 102
2, 96240, Note_on_c, 0, 53, 102
2, 96355, Note_on_c, 0, 53, 0
2, 96355, Note_on_c, 0, 77, 0
2, 96355, Note_on_c, 0, 86, 0
2, 96355, Note_on_c, 0, 89, 0
2, 96355, Note_on_c, 0, 65, 0
2, 96360, Note_on_c, 0, 88, 112
2, 96360, Note_on_c, 0, 91, 112
2, 96360, Note_on_c, 0, 79, 112
2, 96360, Note_on_c, 0, 64, 112
2, 96360, Note_on_c, 0, 52, 112
2, 96475, Note_on_c, 0, 52, 0
2, 96475, Note_on_c, 0, 79, 0
2, 96475, Note_on_c, 0, 88, 0
2, 96475, Note_on_c, 0, 91, 0
2, 96475, Note_on_c, 0, 64, 0
2, 96480, Note_on_c, 0, 91, 117
2, 96480, Note_on_c, 0, 79, 117
2, 96480, Note_on_c, 0, 64, 117
2, 96480, Note_on_c, 0, 52, 117
2, 96540, Note_on_c, 0, 52, 0
2, 96540, Note_on_c, 0, 91, 0
2, 96540, Note_on_c, 0, 79, 0
2, 96540, Note_on_c, 0, 64, 0
2, 96600, Note_on_c, 0, 88, 117
2, 96600, Note_on_c, 0, 76, 117
2, 96600, Note_on_c, 0, 60, 117
2, 96600, Note_on_c, 0, 48, 117
2, 96660, Note_on_c, 0, 48, 0
2, 96660, Note_on_c, 0, 88, 0
2, 96660, Note_on_c, 0, 76, 0
2, 96660, Note_on_c, 0, 60, 0
2, 96720, Note_on_c, 0, 93, 117
2, 96720, Note_on_c, 0, 81, 117
2, 96720, Note_on_c, 0, 65, 117
2, 96720, Note_on_c, 0, 53, 117
2, 96780, Note_on_c, 0, 53, 0
2, 96780, Note_on_c, 0, 93, 0
2, 96780, Note_on_c, 0, 81, 0
2, 96780, Note_on_c, 0, 65, 0
2, 96840, Note_on_c, 0, 89, 95
2, 96840, Note_on_c, 0, 77, 95
2, 96840, Note_on_c, 0, 62, 95
2, 96840, Note_on_c, 0, 50, 95
2, 96900, Note_on_c, 0, 50, 0
2, 96900, Note_on_c, 0, 89, 0
2, 96900, Note_on_c, 0, 77, 0
2, 96900, Note_on_c, 0, 62, 0
2, 96960, Note_on_c, 0, 86, 71
2, 96960, Note_on_c, 0, 74, 71
2, 96960, Note_on_c, 0, 59, 71
2, 96960, Note_on_c, 0, 47, 71
2, 97020, Note_on_c, 0, 47, 0
2, 97020, Note_on_c, 0, 86, 0
2, 97020, Note_on_c, 0, 74, 0
2, 97020, Note_on_c, 0, 59, 0
2, 97080, Note_on_c, 0, 91, 71
2, 97080, Note_on_c, 0, 79, 71
2, 97080, Note_on_c, 0, 55, 71
2, 97080, Note_on_c, 0, 43, 71
2, 97140, Note_on_c, 0, 43, 0
2, 97140, Note_on_c, 0, 91, 0
2, 97140, Note_on_c, 0, 79, 0
2, 97140, Note_on_c, 0, 55, 0
2, 97200, Note_on_c, 0, 76, 95
2, 97200, Note_on_c, 0, 64, 95
2, 97200, Note_on_c, 0, 55, 95
2, 97200, Note_on_c, 0, 43, 95
2, 97260, Note_on_c, 0, 43, 0
2, 97260, Note_on_c, 0, 76, 0
2, 97260, Note_on_c, 0, 64, 0
2, 97260, Note_on_c, 0, 55, 0
2, 97320, Note_on_c, 0, 72, 71
2, 97320, Note_on_c, 0, 64, 71
2, 97320, Note_on_c, 0, 60, 71
2, 97320, Note_on_c, 0, 48, 71
2, 97380, Note_on_c, 0, 48, 0
2, 97380, Note_on_c, 0, 72, 0
2, 97380, Note_on_c, 0, 64, 0
2, 97380, Note_on_c, 0, 60, 0
2, 97440, Note_on_c, 0, 72, 71
2, 97440, Note_on_c, 0, 77, 71
2, 97440, Note_on_c, 0, 65, 71
2, 97440, Note_on_c, 0, 57, 71
2, 97440, Note_on_c, 0, 45, 71
2, 97500, Note_on_c, 0, 45, 0
2, 97500, Note_on_c, 0, 65, 0
2, 97500, Note_on_c, 0, 72, 0
2, 97500, Note_on_c, 0, 77, 0
2, 97500, Note_on_c, 0, 57, 0
2, 97560, Note_on_c, 0, 69, 95
2, 97560, Note_on_c, 0, 74, 95
2, 97560, Note_on_c, 0, 62, 95
2, 97560, Note_on_c, 0, 53, 95
2, 97560, Note_on_c, 0, 41, 95
2, 97620, Note_on_c, 0, 41, 0
2, 97620, Note_on_c, 0, 62, 0
2, 97620, Note_on_c, 0, 69, 0
2, 97620, Note_on_c, 0, 74, 0
2, 97620, Note_on_c, 0, 53, 0
2, 97680, Note_on_c, 0, 71, 71
2, 97680, Note_on_c, 0, 67, 71
2, 97680, Note_on_c, 0, 55, 71
2, 97680, Note_on_c, 0, 43, 71
2, 97740, Note_on_c, 0, 43, 0
2, 97740, Note_on_c, 0, 71, 0
2, 97740, Note_on_c, 0, 67, 0
2, 97740, Note_on_c, 0, 55, 0
2, 97800, Note_on_c, 0, 72, 71
2, 97800, Note_on_c, 0, 76, 71
2, 97800, Note_on_c, 0, 64, 71
2, 97800, Note_on_c, 0, 55, 71
2, 97800, Note_on_c, 0, 43, 71
2, 97860, Note_on_c, 0, 43, 0
2, 97860, Note_on_c, 0, 64, 0
2, 97860, Note_on_c, 0, 72, 0
2, 97860, Note_on_c, 0, 76, 0
2, 97860, Note_on_c, 0, 55, 0
2, 97920, Note_on_c, 0, 88, 95
2, 97920, Note_on_c, 0, 91, 95
2, 97920, Note_on_c, 0, 79, 95
2, 97920, Note_on_c, 0, 48, 95
2, 97920, Note_on_c, 0, 36, 95
2, 97980, Note_on_c, 0, 36, 0
2, 97980, Note_on_c, 0, 79, 0
2, 97980, Note_on_c, 0, 88, 0
2, 97980, Note_on_c, 0, 91, 0
2, 97980, Note_on_c, 0, 48, 0
2, 98040, Note_on_c, 0, 88, 71
2, 98040, Note_on_c, 0, 76, 71
2, 98040, Note_on_c, 0, 60, 71
2, 98040, Note_on_c, 0, 48, 71
2, 98100, Note_on_c, 0, 48, 0
2, 98100, Note_on_c, 0, 88, 0
2, 98100, Note_on_c, 0, 76, 0
2, 98100, Note_on_c, 0, 60, 0
2, 98160, Note_on_c, 0, 93, 71
2, 98160, Note_on_c, 0, 81, 71
2, 98160, Note_on_c, 0, 65, 71
2, 98160, Note_on_c, 0, 53, 71
2, 98220, Note_on_c, 0, 53, 0
2, 98220, Note_on_c, 0, 93, 0
2, 98220, Note_on_c, 0, 81, 0
2, 98220, Note_on_c, 0, 65, 0
2, 98280, Note_on_c, 0, 89, 95
2, 98280, Note_on_c, 0, 77, 95
2, 98280, Note_on_c, 0, 62, 95
2, 98280, Note_on_c, 0, 50, 95
2, 98340, Note_on_c, 0, 50, 0
2, 98340, Note_on_c, 0, 89, 0
2, 98340, Note_on_c, 0, 77, 0
2, 98340, Note_on_c, 0, 62, 0
2, 98400, Note_on_c, 0, 86, 71
2, 98400, Note_on_c, 0, 74, 71
2, 98400, Note_on_c, 0, 59, 71
2, 98400, Note_on_c, 0, 47, 71
2, 98460, Note_on_c, 0, 47, 0
2, 98460, Note_on_c, 0, 86, 0
2, 98460, Note_on_c, 0, 74, 0
2, 98460, Note_on_c, 0, 59, 0
2, 98520, Note_on_c, 0, 91, 71
2, 98520, Note_on_c, 0, 79, 71
2, 98520, Note_on_c, 0, 55, 71
2, 98520, Note_on_c, 0, 43, 71
2, 98580, Note_on_c, 0, 43, 0
2, 98580, Note_on_c, 0, 91, 0
2, 98580, Note_on_c, 0, 79, 0
2, 98580, Note_on_c, 0, 55, 0
2, 98640, Note_on_c, 0, 76, 95
2, 98640, Note_on_c, 0, 79, 95
2, 98640, Note_on_c, 0, 67, 95
2, 98640, Note_on_c, 0, 55, 95
2, 98640, Note_on_c, 0, 43, 95
2, 98700, Note_on_c, 0, 43, 0
2, 98700, Note_on_c, 0, 67, 0
2, 98700, Note_on_c, 0, 76, 0
2, 98700, Note_on_c, 0, 79, 0
2, 98700, Note_on_c, 0, 55, 0
2, 98760, Note_on_c, 0, 72, 71
2, 98760, Note_on_c, 0, 79, 71
2, 98760, Note_on_c, 0, 67, 71
2, 98760, Note_on_c, 0, 52, 71
2, 98760, Note_on_c, 0, 40, 71
2, 98820, Note_on_c, 0, 40, 0
2, 98820, Note_on_c, 0, 67, 0
2, 98820, Note_on_c, 0, 72, 0
2, 98820, Note_on_c, 0, 79, 0
2, 98820, Note_on_c, 0, 52, 0
2, 98880, Note_on_c, 0, 77, 71
2, 98880, Note_on_c, 0, 79, 71
2, 98880, Note_on_c, 0, 67, 71
2, 98880, Note_on_c, 0, 57, 71
2, 98880, Note_on_c, 0, 45, 71
2, 98940, Note_on_c, 0, 45, 0
2, 98940, Note_on_c, 0, 67, 0
2, 98940, Note_on_c, 0, 77, 0
2, 98940, Note_on_c, 0, 79, 0
2, 98940, Note_on_c, 0, 57, 0
2, 99000, Note_on_c, 0, 74, 95
2, 99000, Note_on_c, 0, 79, 95
2, 99000, Note_on_c, 0, 67, 95
2, 99000, Note_on_c, 0, 53, 95
2, 99000, Note_on_c, 0, 41, 95
2, 99060, Note_on_c, 0, 41, 0
2, 99060, Note_on_c, 0, 67, 0
2, 99060, Note_on_c, 0, 74, 0
2, 99060, Note_on_c, 0, 79, 0
2, 99060, Note_on_c, 0, 53, 0
2, 99120, Note_on_c, 0, 71, 71
2, 99120, Note_on_c, 0, 79, 71
2, 99120, Note_on_c, 0, 67, 71
2, 99120, Note_on_c, 0, 50, 71
2, 99120, Note_on_c, 0, 38, 71
2, 99180, Note_on_c, 0, 38, 0
2, 99180, Note_on_c, 0, 67, 0
2, 99180, Note_on_c, 0, 71, 0
2, 99180, Note_on_c, 0, 79, 0
2, 99180, Note_on_c, 0, 50, 0
2, 99240, Note_on_c, 0, 76, 71
2, 99240, Note_on_c, 0, 79, 71
2, 99240, Note_on_c, 0, 67, 71
2, 99240, Note_on_c, 0, 55, 71
2, 99240, Note_on_c, 0, 43, 71
2, 99300, Note_on_c, 0, 43, 0
2, 99300, Note_on_c, 0, 67, 0
2, 99300, Note_on_c, 0, 76, 0
2, 99300, Note_on_c, 0, 79, 0
2, 99300, Note_on_c, 0, 55, 0
2, 99360, Note_on_c, 0, 84, 95
2, 99360, Note_on_c, 0, 88, 95
2, 99360, Note_on_c, 0, 76, 95
2, 99360, Note_on_c, 0, 48, 95
2, 99360, Note_on_c, 0, 36, 95
2, 99475, Note_on_c, 0, 76, 0
2, 99475, Note_on_c, 0, 84, 0
2, 99475, Note_on_c, 0, 88, 0
2, 99480, Note_on_c, 0, 79, 71
2, 99480, Note_on_c, 0, 84, 71
2, 99480, Note_on_c, 0, 76, 71
2, 99540, Note_on_c, 0, 60, 95
2, 99570, Note_on_c, 0, 60, 0
2, 99590, Note_on_c, 0, 76, 0
2, 99595, Note_on_c, 0, 79, 0
2, 99595, Note_on_c, 0, 36, 0
2, 99595, Note_on_c, 0, 48, 0
2, 99595, Note_on_c, 0, 84, 0
2, 99600, Note_on_c, 0, 88, 71
2, 99600, Note_on_c, 0, 91, 71
2, 99600, Note_on_c, 0, 79, 71
2, 99600, Note_on_c, 0, 60, 95
2, 99715, Note_on_c, 0, 60, 0
2, 99715, Note_on_c, 0, 88, 0
2, 99715, Note_on_c, 0, 91, 0
2, 99715, Note_on_c, 0, 79, 0
2, 99720, Note_on_c, 0, 86, 95
2, 99720, Note_on_c, 0, 89, 95
2, 99720, Note_on_c, 0, 77, 95
2, 99720, Note_on_c, 0, 59, 95
2, 99720, Note_on_c, 0, 67, 95
2, 99720, Note_on_c, 0, 55, 95
2, 99835, Note_on_c, 0, 55, 0
2, 99835, Note_on_c, 0, 89, 0
2, 99835, Note_on_c, 0, 77, 0
2, 99835, Note_on_c, 0, 86, 0
2, 99835, Note_on_c, 0, 67, 0
2, 99835, Note_on_c, 0, 59, 0
2, 99840, Note_on_c, 0, 83, 71
2, 99840, Note_on_c, 0, 86, 71
2, 99840, Note_on_c, 0, 77, 71
2, 99900, Note_on_c, 0, 55, 71
2, 99900, Note_on_c, 0, 43, 71
2, 99930, Note_on_c, 0, 43, 0
2, 99930, Note_on_c, 0, 55, 0
2, 99955, Note_on_c, 0, 83, 0
2, 99955, Note_on_c, 0, 86, 0
2, 99955, Note_on_c, 0, 77, 0
2, 99960, Note_on_c, 0, 83, 71
2, 99960, Note_on_c, 0, 91, 71
2, 99960, Note_on_c, 0, 77, 71
2, 99960, Note_on_c, 0, 55, 71
2, 99960, Note_on_c, 0, 43, 71
2, 100075, Note_on_c, 0, 43, 0
2, 100075, Note_on_c, 0, 77, 0
2, 100075, Note_on_c, 0, 83, 0
2, 100075, Note_on_c, 0, 91, 0
2, 100075, Note_on_c, 0, 55, 0
2, 100080, Note_on_c, 0, 84, 95
2, 100080, Note_on_c, 0, 88, 95
2, 100080, Note_on_c, 0, 76, 95
2, 100080, Note_on_c, 0, 48, 95
2, 100080, Note_on_c, 0, 36, 95
2, 100195, Note_on_c, 0, 36, 0
2, 100195, Note_on_c, 0, 76, 0
2, 100195, Note_on_c, 0, 84, 0
2, 100195, Note_on_c, 0, 88, 0
2, 100195, Note_on_c, 0, 48, 0
2, 100200, Note_on_c, 0, 79, 95
2, 100200, Note_on_c, 0, 84, 95
2, 100200, Note_on_c, 0, 76, 95
2, 100260, Note_on_c, 0, 60, 71
2, 100290, Note_on_c, 0, 60, 0
2, 100315, Note_on_c, 0, 79, 0
2, 100315, Note_on_c, 0, 84, 0
2, 100315, Note_on_c, 0, 76, 0
2, 100320, Note_on_c, 0, 88, 95
2, 100320, Note_on_c, 0, 91, 95
2, 100320, Note_on_c, 0, 79, 95
2, 100320, Note_on_c, 0, 60, 71
2, 100435, Note_on_c, 0, 60, 0
2, 100435, Note_on_c, 0, 88, 0
2, 100435, Note_on_c, 0, 91, 0
2, 100435, Note_on_c, 0, 79, 0
2, 100440, Note_on_c, 0, 86, 95
2, 100440, Note_on_c, 0, 89, 95
2, 100440, Note_on_c, 0, 77, 95
2, 100440, Note_on_c, 0, 59, 95
2, 100440, Note_on_c, 0, 67, 95
2, 100440, Note_on_c, 0, 55, 95
2, 100555, Note_on_c, 0, 55, 0
2, 100555, Note_on_c, 0, 89, 0
2, 100555, Note_on_c, 0, 77, 0
2, 100555, Note_on_c, 0, 86, 0
2, 100555, Note_on_c, 0, 67, 0
2, 100555, Note_on_c, 0, 59, 0
2, 100560, Note_on_c, 0, 83, 71
2, 100560, Note_on_c, 0, 86, 71
2, 100560, Note_on_c, 0, 77, 71
2, 100620, Note_on_c, 0, 55, 71
2, 100620, Note_on_c, 0, 43, 71
2, 100650, Note_on_c, 0, 43, 0
2, 100650, Note_on_c, 0, 55, 0
2, 100675, Note_on_c, 0, 83, 0
2, 100675, Note_on_c, 0, 86, 0
2, 100675, Note_on_c, 0, 77, 0
2, 100680, Note_on_c, 0, 83, 71
2, 100680, Note_on_c, 0, 91, 71
2, 100680, Note_on_c, 0, 77, 71
2, 100680, Note_on_c, 0, 55, 71
2, 100680, Note_on_c, 0, 43, 71
2, 100795, Note_on_c, 0, 43, 0
2, 100795, Note_on_c, 0, 77, 0
2, 100795, Note_on_c, 0, 83, 0
2, 100795, Note_on_c, 0, 91, 0
2, 100795, Note_on_c, 0, 55, 0
2, 100800, Note_on_c, 0, 79, 53
2, 100800, Note_on_c, 0, 67, 53
2, 100800, Note_on_c, 0, 60, 53
2, 100800, Note_on_c, 0, 65, 53
2, 100800, Note_on_c, 0, 57, 53
2, 100915, Note_on_c, 0, 57, 0
2, 100915, Note_on_c, 0, 60, 0
2, 100915, Note_on_c, 0, 79, 0
2, 100915, Note_on_c, 0, 67, 0
2, 100915, Note_on_c, 0, 65, 0
2, 100920, Note_on_c, 0, 81, 53
2, 100920, Note_on_c, 0, 69, 53
2, 100920, Note_on_c, 0, 59, 53
2, 100920, Note_on_c, 0, 64, 53
2, 100920, Note_on_c, 0, 55, 53
2, 101035, Note_on_c, 0, 55, 0
2, 101035, Note_on_c, 0, 59, 0
2, 101035, Note_on_c, 0, 81, 0
2, 101035, Note_on_c, 0, 69, 0
2, 101035, Note_on_c, 0, 64, 0
2, 101040, Note_on_c, 0, 83, 53
2, 101040, Note_on_c, 0, 71, 53
2, 101040, Note_on_c, 0, 57, 53
2, 101040, Note_on_c, 0, 62, 53
2, 101040, Note_on_c, 0, 53, 53
2, 101155, Note_on_c, 0, 53, 0
2, 101155, Note_on_c, 0, 57, 0
2, 101155, Note_on_c, 0, 83, 0
2, 101155, Note_on_c, 0, 71, 0
2, 101155, Note_on_c, 0, 62, 0
2, 101160, Note_on_c, 0, 84, 53
2, 101160, Note_on_c, 0, 72, 53
2, 101160, Note_on_c, 0, 55, 53
2, 101160, Note_on_c, 0, 60, 53
2, 101160, Note_on_c, 0, 52, 53
2, 101275, Note_on_c, 0, 52, 0
2, 101275, Note_on_c, 0, 55, 0
2, 101275, Note_on_c, 0, 84, 0
2, 101275, Note_on_c, 0, 72, 0
2, 101275, Note_on_c, 0, 60, 0
2, 101280, Note_on_c, 0, 86, 53
2, 101280, Note_on_c, 0, 74, 53
2, 101280, Note_on_c, 0, 53, 53
2, 101280, Note_on_c, 0, 59, 53
2, 101280, Note_on_c, 0, 50, 53
2, 101395, Note_on_c, 0, 50, 0
2, 101395, Note_on_c, 0, 53, 0
2, 101395, Note_on_c, 0, 86, 0
2, 101395, Note_on_c, 0, 74, 0
2, 101395, Note_on_c, 0, 59, 0
2, 101400, Note_on_c, 0, 88, 53
2, 101400, Note_on_c, 0, 76, 53
2, 101400, Note_on_c, 0, 52, 53
2, 101400, Note_on_c, 0, 57, 53
2, 101400, Note_on_c, 0, 48, 53
2, 101515, Note_on_c, 0, 48, 0
2, 101515, Note_on_c, 0, 52, 0
2, 101515, Note_on_c, 0, 88, 0
2, 101515, Note_on_c, 0, 76, 0
2, 101515, Note_on_c, 0, 57, 0
2, 101520, Note_on_c, 0, 89, 53
2, 101520, Note_on_c, 0, 77, 53
2, 101520, Note_on_c, 0, 47, 53
2, 101520, Note_on_c, 0, 50, 53
2, 101520, Note_on_c, 0, 55, 53
2, 101520, Note_on_c, 0, 43, 53
2, 101635, Note_on_c, 0, 43, 0
2, 101635, Note_on_c, 0, 77, 0
2, 101635, Note_on_c, 0, 47, 0
2, 101635, Note_on_c, 0, 89, 0
2, 101635, Note_on_c, 0, 55, 0
2, 101635, Note_on_c, 0, 50, 0
2, 101640, Note_on_c, 0, 88, 53
2, 101640, Note_on_c, 0, 76, 53
2, 101640, Note_on_c, 0, 52, 53
2, 101640, Note_on_c, 0, 57, 53
2, 101640, Note_on_c, 0, 48, 53
2, 101755, Note_on_c, 0, 48, 0
2, 101755, Note_on_c, 0, 52, 0
2, 101755, Note_on_c, 0, 88, 0
2, 101755, Note_on_c, 0, 76, 0
2, 101755, Note_on_c, 0, 57, 0
2, 101760, Note_on_c, 0, 89, 53
2, 101760, Note_on_c, 0, 77, 53
2, 101760, Note_on_c, 0, 50, 53
2, 101760, Note_on_c, 0, 55, 53
2, 101760, Note_on_c, 0, 47, 53
2, 101875, Note_on_c, 0, 47, 0
2, 101875, Note_on_c, 0, 50, 0
2, 101875, Note_on_c, 0, 89, 0
2, 101875, Note_on_c, 0, 77, 0
2, 101875, Note_on_c, 0, 55, 0
2, 101880, Note_on_c, 0, 91, 53
2, 101880, Note_on_c, 0, 79, 53
2, 101880, Note_on_c, 0, 60, 53
2, 101880, Note_on_c, 0, 65, 53
2, 101880, Note_on_c, 0, 57, 53
2, 101995, Note_on_c, 0, 57, 0
2, 101995, Note_on_c, 0, 60, 0
2, 101995, Note_on_c, 0, 91, 0
2, 101995, Note_on_c, 0, 79, 0
2, 101995, Note_on_c, 0, 65, 0
2, 102000, Note_on_c, 0, 93, 53
2, 102000, Note_on_c, 0, 81, 53
2, 102000, Note_on_c, 0, 59, 53
2, 102000, Note_on_c, 0, 64, 53
2, 102000, Note_on_c, 0, 55, 53
2, 102115, Note_on_c, 0, 55, 0
2, 102115, Note_on_c, 0, 59, 0
2, 102115, Note_on_c, 0, 93, 0
2, 102115, Note_on_c, 0, 81, 0
2, 102115, Note_on_c, 0, 64, 0
2, 102120, Note_on_c, 0, 95, 53
2, 102120, Note_on_c, 0, 83, 53
2, 102120, Note_on_c, 0, 57, 53
2, 102120, Note_on_c, 0, 62, 53
2, 102120, Note_on_c, 0, 53, 53
2, 102180, Note_on_c, 0, 55, 53
2, 102235, Note_on_c, 0, 55, 0
2, 102235, Note_on_c, 0, 83, 0
2, 102235, Note_on_c, 0, 57, 0
2, 102235, Note_on_c, 0, 95, 0
2, 102235, Note_on_c, 0, 53, 0
2, 102235, Note_on_c, 0, 62, 0
2, 102240, Note_on_c, 0, 84, 53
2, 102240, Note_on_c, 0, 96, 53
2, 102240, Note_on_c, 0, 52, 53
2, 102240, Note_on_c, 0, 60, 53
2, 102240, Note_on_c, 0, 48, 53
2, 102355, Note_on_c, 0, 48, 0
2, 102355, Note_on_c, 0, 52, 0
2, 102355, Note_on_c, 0, 84, 0
2, 102355, Note_on_c, 0, 96, 0
2, 102355, Note_on_c, 0, 60, 0
2, 102420, Note_on_c, 0, 55, 53
2, 102420, Note_on_c, 0, 60, 53
2, 102420, Note_on_c, 0, 52, 53
2, 102475, Note_on_c, 0, 52, 0
2, 102475, Note_on_c, 0, 60, 0
2, 102475, Note_on_c, 0, 55, 0
2, 102480, Note_on_c, 0, 55, 53
2, 102480, Note_on_c, 0, 60, 53
2, 102480, Note_on_c, 0, 52, 53
2, 102535, Note_on_c, 0, 52, 0
2, 102535, Note_on_c, 0, 60, 0
2, 102535, Note_on_c, 0, 55, 0
2, 102600, Note_on_c, 0, 76, 53
2, 102600, Note_on_c, 0, 84, 53
2, 102600, Note_on_c, 0, 72, 53
2, 102600, Note_on_c, 0, 60, 53
2, 102600, Note_on_c, 0, 45, 53
2, 102720, Note_on_c, 0, 45, 0
2, 102720, Note_on_c, 0, 72, 0
2, 102720, Note_on_c, 0, 76, 0
2, 102720, Note_on_c, 0, 84, 0
2, 102720, Note_on_c, 0, 60, 0
2, 102780, Note_on_c, 0, 69, 53
2, 102780, Note_on_c, 0, 72, 53
2, 102780, Note_on_c, 0, 64, 53
2, 102835, Note_on_c, 0, 64, 0
2, 102835, Note_on_c, 0, 72, 0
2, 102835, Note_on_c, 0, 69, 0
2, 102840, Note_on_c, 0, 69, 53
2, 102840, Note_on_c, 0, 72, 53
2, 102840, Note_on_c, 0, 64, 53
2, 102895, Note_on_c, 0, 64, 0
2, 102895, Note_on_c, 0, 72, 0
2, 102895, Note_on_c, 0, 69, 0
2, 102960, Note_on_c, 0, 69, 53
2, 102960, Note_on_c, 0, 72, 53
2, 102960, Note_on_c, 0, 65, 53
2, 102960, Note_on_c, 0, 57, 53
2, 102960, Note_on_c, 0, 41, 53
2, 103080, Note_on_c, 0, 41, 0
2, 103080, Note_on_c, 0, 65, 0
2, 103080, Note_on_c, 0, 69, 0
2, 103080, Note_on_c, 0, 72, 0
2, 103080, Note_on_c, 0, 57, 0
2, 103140, Note_on_c, 0, 57, 53
2, 103140, Note_on_c, 0, 60, 53
2, 103140, Note_on_c, 0, 53, 53
2, 103195, Note_on_c, 0, 53, 0
2, 103195, Note_on_c, 0, 60, 0
2, 103195, Note_on_c, 0, 57, 0
2, 103200, Note_on_c, 0, 57, 53
2, 103200, Note_on_c, 0, 60, 53
2, 103200, Note_on_c, 0, 53, 53
2, 103255, Note_on_c, 0, 53, 0
2, 103255, Note_on_c, 0, 60, 0
2, 103255, Note_on_c, 0, 57, 0
2, 103320, Note_on_c, 0, 77, 53
2, 103320, Note_on_c, 0, 86, 53
2, 103320, Note_on_c, 0, 74, 53
2, 103320, Note_on_c, 0, 57, 53
2, 103320, Note_on_c, 0, 62, 53
2, 103320, Note_on_c, 0, 50, 53
2, 103440, Note_on_c, 0, 50, 0
2, 103440, Note_on_c, 0, 86, 0
2, 103440, Note_on_c, 0, 74, 0
2, 103440, Note_on_c, 0, 77, 0
2, 103440, Note_on_c, 0, 62, 0
2, 103440, Note_on_c, 0, 57, 0
2, 103500, Note_on_c, 0, 69, 53
2, 103500, Note_on_c, 0, 74, 53
2, 103500, Note_on_c, 0, 65, 53
2, 103555, Note_on_c, 0, 65, 0
2, 103555, Note_on_c, 0, 74, 0
2, 103555, Note_on_c, 0, 69, 0
2, 103560, Note_on_c, 0, 69, 53
2, 103560, Note_on_c, 0, 74, 53
2, 103560, Note_on_c, 0, 65, 53
2, 103615, Note_on_c, 0, 65, 0
2, 103615, Note_on_c, 0, 74, 0
2, 103615, Note_on_c, 0, 69, 0
2, 103680, Note_on_c, 0, 69, 53
2, 103680, Note_on_c, 0, 74, 53
2, 103680, Note_on_c, 0, 65, 53
2, 103735, Note_on_c, 0, 65, 0
2, 103735, Note_on_c, 0, 74, 0
2, 103735, Note_on_c, 0, 69, 0
2, 105120, Note_on_c, 0, 69, 53
2, 105120, Note_on_c, 0, 74, 53
2, 105120, Note_on_c, 0, 65, 53
2, 105120, Note_on_c, 0, 50, 53
2, 105120, Note_on_c, 0, 38, 53
2, 105175, Note_on_c, 0, 38, 0
2, 105175, Note_on_c, 0, 65, 0
2, 105175, Note_on_c, 0, 69, 0
2, 105175, Note_on_c, 0, 74, 0
2, 105175, Note_on_c, 0, 50, 0
2, 105300, Note_on_c, 0, 57, 53
2, 105300, Note_on_c, 0, 62, 53
2, 105300, Note_on_c, 0, 53, 53
2, 105330, Note_on_c, 0, 53, 0
2, 105330, Note_on_c, 0, 62, 0
2, 105330, Note_on_c, 0, 57, 0
2, 105360, Note_on_c, 0, 57, 53
2, 105360, Note_on_c, 0, 62, 53
2, 105360, Note_on_c, 0, 53, 53
2, 105415, Note_on_c, 0, 53, 0
2, 105415, Note_on_c, 0, 62, 0
2, 105415, Note_on_c, 0, 57, 0
2, 105480, Note_on_c, 0, 77, 53
2, 105480, Note_on_c, 0, 86, 53
2, 105480, Note_on_c, 0, 74, 53
2, 105480, Note_on_c, 0, 58, 53
2, 105480, Note_on_c, 0, 46, 53
2, 105535, Note_on_c, 0, 46, 0
2, 105535, Note_on_c, 0, 74, 0
2, 105535, Note_on_c, 0, 77, 0
2, 105535, Note_on_c, 0, 86, 0
2, 105535, Note_on_c, 0, 58, 0
2, 105660, Note_on_c, 0, 70, 53
2, 105660, Note_on_c, 0, 74, 53
2, 105660, Note_on_c, 0, 65, 53
2, 105690, Note_on_c, 0, 65, 0
2, 105690, Note_on_c, 0, 74, 0
2, 105690, Note_on_c, 0, 70, 0
2, 105720, Note_on_c, 0, 70, 53
2, 105720, Note_on_c, 0, 74, 53
2, 105720, Note_on_c, 0, 65, 53
2, 105775, Note_on_c, 0, 65, 0
2, 105775, Note_on_c, 0, 74, 0
2, 105775, Note_on_c, 0, 70, 0
2, 105840, Note_on_c, 0, 70, 53
2, 105840, Note_on_c, 0, 74, 53
2, 105840, Note_on_c, 0, 67, 53
2, 105840, Note_on_c, 0, 55, 53
2, 105840, Note_on_c, 0, 43, 53
2, 105895, Note_on_c, 0, 43, 0
2, 105895, Note_on_c, 0, 67, 0
2, 105895, Note_on_c, 0, 70, 0
2, 105895, Note_on_c, 0, 74, 0
2, 105895, Note_on_c, 0, 55, 0
2, 106020, Note_on_c, 0, 58, 53
2, 106020, Note_on_c, 0, 62, 53
2, 106020, Note_on_c, 0, 55, 53
2, 106050, Note_on_c, 0, 55, 0
2, 106050, Note_on_c, 0, 62, 0
2, 106050, Note_on_c, 0, 58, 0
2, 106080, Note_on_c, 0, 58, 53
2, 106080, Note_on_c, 0, 62, 53
2, 106080, Note_on_c, 0, 55, 53
2, 106135, Note_on_c, 0, 55, 0
2, 106135, Note_on_c, 0, 62, 0
2, 106135, Note_on_c, 0, 58, 0
2, 106200, Note_on_c, 0, 79, 53
2, 106200, Note_on_c, 0, 87, 53
2, 106200, Note_on_c, 0, 75, 53
2, 106200, Note_on_c, 0, 58, 53
2, 106200, Note_on_c, 0, 63, 53
2, 106200, Note_on_c, 0, 51, 53
2, 106255, Note_on_c, 0, 51, 0
2, 106255, Note_on_c, 0, 87, 0
2, 106255, Note_on_c, 0, 75, 0
2, 106255, Note_on_c, 0, 79, 0
2, 106255, Note_on_c, 0, 63, 0
2, 106255, Note_on_c, 0, 58, 0
2, 106380, Note_on_c, 0, 70, 53
2, 106380, Note_on_c, 0, 75, 53
2, 106380, Note_on_c, 0, 67, 53
2, 106410, Note_on_c, 0, 67, 0
2, 106410, Note_on_c, 0, 75, 0
2, 106410, Note_on_c, 0, 70, 0
2, 106440, Note_on_c, 0, 70, 53
2, 106440, Note_on_c, 0, 75, 53
2, 106440, Note_on_c, 0, 67, 53
2, 106495, Note_on_c, 0, 67, 0
2, 106495, Note_on_c, 0, 75, 0
2, 106495, Note_on_c, 0, 70, 0
2, 106560, Note_on_c, 0, 70, 53
2, 106560, Note_on_c, 0, 75, 53
2, 106560, Note_on_c, 0, 67, 53
2, 106615, Note_on_c, 0, 67, 0
2, 106615, Note_on_c, 0, 75, 0
2, 106615, Note_on_c, 0, 70, 0
2, 108000, Note_on_c, 0, 70, 54
2, 108000, Note_on_c, 0, 75, 54
2, 108000, Note_on_c, 0, 67, 54
2, 108000, Note_on_c, 0, 51, 54
2, 108000, Note_on_c, 0, 39, 54
2, 108055, Note_on_c, 0, 39, 0
2, 108055, Note_on_c, 0, 67, 0
2, 108055, Note_on_c, 0, 70, 0
2, 108055, Note_on_c, 0, 75, 0
2, 108055, Note_on_c, 0, 51, 0
2, 108180, Note_on_c, 0, 58, 56
2, 108180, Note_on_c, 0, 63, 56
2, 108180, Note_on_c, 0, 55, 56
2, 108235, Note_on_c, 0, 55, 0
2, 108235, Note_on_c, 0, 63, 0
2, 108235, Note_on_c, 0, 58, 0
2, 108240, Note_on_c, 0, 58, 57
2, 108240, Note_on_c, 0, 63, 57
2, 108240, Note_on_c, 0, 55, 57
2, 108295, Note_on_c, 0, 55, 0
2, 108295, Note_on_c, 0, 63, 0
2, 108295, Note_on_c, 0, 58, 0
2, 108360, Note_on_c, 0, 79, 59
2, 108360, Note_on_c, 0, 87, 59
2, 108360, Note_on_c, 0, 75, 59
2, 108360, Note_on_c, 0, 60, 59
2, 108360, Note_on_c, 0, 48, 59
2, 108415, Note_on_c, 0, 48, 0
2, 108415, Note_on_c, 0, 75, 0
2, 108415, Note_on_c, 0, 79, 0
2, 108415, Note_on_c, 0, 87, 0
2, 108415, Note_on_c, 0, 60, 0
2, 108540, Note_on_c, 0, 72, 61
2, 108540, Note_on_c, 0, 75, 61
2, 108540, Note_on_c, 0, 67, 61
2, 108595, Note_on_c, 0, 67, 0
2, 108595, Note_on_c, 0, 75, 0
2, 108595, Note_on_c, 0, 72, 0
2, 108600, Note_on_c, 0, 72, 62
2, 108600, Note_on_c, 0, 75, 62
2, 108600, Note_on_c, 0, 67, 62
2, 108655, Note_on_c, 0, 67, 0
2, 108655, Note_on_c, 0, 75, 0
2, 108655, Note_on_c, 0, 72, 0
2, 108720, Note_on_c, 0, 72, 64
2, 108720, Note_on_c, 0, 75, 64
2, 108720, Note_on_c, 0, 68, 64
2, 108720, Note_on_c, 0, 56, 64
2, 108720, Note_on_c, 0, 44, 64
2, 108775, Note_on_c, 0, 44, 0
2, 108775, Note_on_c, 0, 68, 0
2, 108775, Note_on_c, 0, 72, 0
2, 108775, Note_on_c, 0, 75, 0
2, 108775, Note_on_c, 0, 56, 0
2, 108900, Note_on_c, 0, 60, 67
2, 108900, Note_on_c, 0, 63, 67
2, 108900, Note_on_c, 0, 56, 67
2, 108955, Note_on_c, 0, 56, 0
2, 108955, Note_on_c, 0, 63, 0
2, 108955, Note_on_c, 0, 60, 0
2, 108960, Note_on_c, 0, 60, 68
2, 108960, Note_on_c, 0, 63, 68
2, 108960, Note_on_c, 0, 56, 68
2, 109015, Note_on_c, 0, 56, 0
2, 109015, Note_on_c, 0, 63, 0
2, 109015, Note_on_c, 0, 60, 0
2, 109080, Note_on_c, 0, 80, 69
2, 109080, Note_on_c, 0, 89, 69
2, 109080, Note_on_c, 0, 77, 69
2, 109080, Note_on_c, 0, 60, 69
2, 109080, Note_on_c, 0, 65, 69
2, 109080, Note_on_c, 0, 53, 69
2, 109135, Note_on_c, 0, 53, 0
2, 109135, Note_on_c, 0, 89, 0
2, 109135, Note_on_c, 0, 77, 0
2, 109135, Note_on_c, 0, 80, 0
2, 109135, Note_on_c, 0, 65, 0
2, 109135, Note_on_c, 0, 60, 0
2, 109260, Note_on_c, 0, 72, 71
2, 109260, Note_on_c, 0, 77, 71
2, 109260, Note_on_c, 0, 68, 71
2, 109315, Note_on_c, 0, 68, 0
2, 109315, Note_on_c, 0, 77, 0
2, 109315, Note_on_c, 0, 72, 0
2, 109320, Note_on_c, 0, 72, 72
2, 109320, Note_on_c, 0, 77, 72
2, 109320, Note_on_c, 0, 68, 72
2, 109375, Note_on_c, 0, 68, 0
2, 109375, Note_on_c, 0, 77, 0
2, 109375, Note_on_c, 0, 72, 0
2, 109440, Note_on_c, 0, 73, 74
2, 109440, Note_on_c, 0, 77, 74
2, 109440, Note_on_c, 0, 68, 74
2, 109440, Note_on_c, 0, 61, 74
2, 109440, Note_on_c, 0, 49, 74
2, 109495, Note_on_c, 0, 49, 0
2, 109495, Note_on_c, 0, 68, 0
2, 109495, Note_on_c, 0, 73, 0
2, 109495, Note_on_c, 0, 77, 0
2, 109495, Note_on_c, 0, 61, 0
2, 109620, Note_on_c, 0, 65, 77
2, 109620, Note_on_c, 0, 61, 77
2, 109675, Note_on_c, 0, 61, 0
2, 109675, Note_on_c, 0, 65, 0
2, 109680, Note_on_c, 0, 65, 78
2, 109680, Note_on_c, 0, 61, 78
2, 109735, Note_on_c, 0, 61, 0
2, 109735, Note_on_c, 0, 65, 0
2, 109800, Note_on_c, 0, 85, 78
2, 109800, Note_on_c, 0, 89, 78
2, 109800, Note_on_c, 0, 77, 78
2, 109800, Note_on_c, 0, 58, 79
2, 109800, Note_on_c, 0, 46, 79
2, 109855, Note_on_c, 0, 46, 0
2, 109855, Note_on_c, 0, 77, 0
2, 109855, Note_on_c, 0, 85, 0
2, 109855, Note_on_c, 0, 89, 0
2, 109855, Note_on_c, 0, 58, 0
2, 109980, Note_on_c, 0, 73, 81
2, 109980, Note_on_c, 0, 77, 81
2, 109980, Note_on_c, 0, 70, 81
2, 110035, Note_on_c, 0, 70, 0
2, 110035, Note_on_c, 0, 77, 0
2, 110035, Note_on_c, 0, 73, 0
2, 110040, Note_on_c, 0, 73, 82
2, 110040, Note_on_c, 0, 77, 82
2, 110040, Note_on_c, 0, 70, 82
2, 110095, Note_on_c, 0, 70, 0
2, 110095, Note_on_c, 0, 77, 0
2, 110095, Note_on_c, 0, 73, 0
2, 110160, Note_on_c, 0, 73, 83
2, 110160, Note_on_c, 0, 78, 83
2, 110160, Note_on_c, 0, 70, 83
2, 110160, Note_on_c, 0, 54, 85
2, 110160, Note_on_c, 0, 42, 85
2, 110215, Note_on_c, 0, 42, 0
2, 110215, Note_on_c, 0, 70, 0
2, 110215, Note_on_c, 0, 73, 0
2, 110215, Note_on_c, 0, 78, 0
2, 110215, Note_on_c, 0, 54, 0
2, 110340, Note_on_c, 0, 61, 87
2, 110340, Note_on_c, 0, 66, 87
2, 110340, Note_on_c, 0, 58, 87
2, 110395, Note_on_c, 0, 58, 0
2, 110395, Note_on_c, 0, 66, 0
2, 110395, Note_on_c, 0, 61, 0
2, 110400, Note_on_c, 0, 61, 88
2, 110400, Note_on_c, 0, 66, 88
2, 110400, Note_on_c, 0, 58, 88
2, 110455, Note_on_c, 0, 58, 0
2, 110455, Note_on_c, 0, 66, 0
2, 110455, Note_on_c, 0, 61, 0
2, 110520, Note_on_c, 0, 82, 88
2, 110520, Note_on_c, 0, 90, 88
2, 110520, Note_on_c, 0, 78, 88
2, 110520, Note_on_c, 0, 63, 90
2, 110520, Note_on_c, 0, 51, 90
2, 110575, Note_on_c, 0, 51, 0
2, 110575, Note_on_c, 0, 78, 0
2, 110575, Note_on_c, 0, 82, 0
2, 110575, Note_on_c, 0, 90, 0
2, 110575, Note_on_c, 0, 63, 0
2, 110700, Note_on_c, 0, 75, 91
2, 110700, Note_on_c, 0, 78, 91
2, 110700, Note_on_c, 0, 70, 91
2, 110755, Note_on_c, 0, 70, 0
2, 110755, Note_on_c, 0, 78, 0
2, 110755, Note_on_c, 0, 75, 0
2, 110760, Note_on_c, 0, 75, 92
2, 110760, Note_on_c, 0, 78, 92
2, 110760, Note_on_c, 0, 70, 92
2, 110815, Note_on_c, 0, 70, 0
2, 110815, Note_on_c, 0, 78, 0
2, 110815, Note_on_c, 0, 75, 0
2, 110880, Note_on_c, 0, 75, 93
2, 110880, Note_on_c, 0, 78, 93
2, 110880, Note_on_c, 0, 71, 93
2, 110880, Note_on_c, 0, 59, 95
2, 110880, Note_on_c, 0, 47, 95
2, 110935, Note_on_c, 0, 47, 0
2, 110935, Note_on_c, 0, 71, 0
2, 110935, Note_on_c, 0, 75, 0
2, 110935, Note_on_c, 0, 78, 0
2, 110935, Note_on_c, 0, 59, 0
2, 111060, Note_on_c, 0, 63, 96
2, 111060, Note_on_c, 0, 66, 96
2, 111060, Note_on_c, 0, 59, 96
2, 111115, Note_on_c, 0, 59, 0
2, 111115, Note_on_c, 0, 66, 0
2, 111115, Note_on_c, 0, 63, 0
2, 111120, Note_on_c, 0, 63, 96
2, 111120, Note_on_c, 0, 66, 96
2, 111120, Note_on_c, 0, 59, 96
2, 111175, Note_on_c, 0, 59, 0
2, 111175, Note_on_c, 0, 66, 0
2, 111175, Note_on_c, 0, 63, 0
2, 111240, Note_on_c, 0, 83, 98
2, 111240, Note_on_c, 0, 92, 98
2, 111240, Note_on_c, 0, 80, 98
2, 111240, Note_on_c, 0, 63, 100
2, 111240, Note_on_c, 0, 68, 100
2, 111240, Note_on_c, 0, 56, 100
2, 111295, Note_on_c, 0, 56, 0
2, 111295, Note_on_c, 0, 92, 0
2, 111295, Note_on_c, 0, 80, 0
2, 111295, Note_on_c, 0, 83, 0
2, 111295, Note_on_c, 0, 68, 0
2, 111295, Note_on_c, 0, 63, 0
2, 111420, Note_on_c, 0, 75, 101
2, 111420, Note_on_c, 0, 80, 101
2, 111420, Note_on_c, 0, 71, 101
2, 111475, Note_on_c, 0, 71, 0
2, 111475, Note_on_c, 0, 80, 0
2, 111475, Note_on_c, 0, 75, 0
2, 111480, Note_on_c, 0, 75, 101
2, 111480, Note_on_c, 0, 80, 101
2, 111480, Note_on_c, 0, 71, 101
2, 111535, Note_on_c, 0, 71, 0
2, 111535, Note_on_c, 0, 80, 0
2, 111535, Note_on_c, 0, 75, 0
2, 111600, Note_on_c, 0, 76, 103
2, 111600, Note_on_c, 0, 80, 103
2, 111600, Note_on_c, 0, 71, 103
2, 111600, Note_on_c, 0, 64, 105
2, 111600, Note_on_c, 0, 52, 105
2, 111655, Note_on_c, 0, 52, 0
2, 111655, Note_on_c, 0, 71, 0
2, 111655, Note_on_c, 0, 76, 0
2, 111655, Note_on_c, 0, 80, 0
2, 111655, Note_on_c, 0, 64, 0
2, 111780, Note_on_c, 0, 64, 108
2, 111780, Note_on_c, 0, 68, 108
2, 111780, Note_on_c, 0, 59, 108
2, 111835, Note_on_c, 0, 59, 0
2, 111835, Note_on_c, 0, 68, 0
2, 111835, Note_on_c, 0, 64, 0
2, 111840, Note_on_c, 0, 64, 108
2, 111840, Note_on_c, 0, 68, 108
2, 111840, Note_on_c, 0, 59, 108
2, 111895, Note_on_c, 0, 59, 0
2, 111895, Note_on_c, 0, 68, 0
2, 111895, Note_on_c, 0, 64, 0
2, 111960, Note_on_c, 0, 88, 108
2, 111960, Note_on_c, 0, 92, 108
2, 111960, Note_on_c, 0, 80, 108
2, 111960, Note_on_c, 0, 61, 110
2, 111960, Note_on_c, 0, 49, 110
2, 112015, Note_on_c, 0, 49, 0
2, 112015, Note_on_c, 0, 80, 0
2, 112015, Note_on_c, 0, 88, 0
2, 112015, Note_on_c, 0, 92, 0
2, 112015, Note_on_c, 0, 61, 0
2, 112140, Note_on_c, 0, 76, 110
2, 112140, Note_on_c, 0, 80, 110
2, 112140, Note_on_c, 0, 73, 110
2, 112195, Note_on_c, 0, 73, 0
2, 112195, Note_on_c, 0, 80, 0
2, 112195, Note_on_c, 0, 76, 0
2, 112200, Note_on_c, 0, 76, 111
2, 112200, Note_on_c, 0, 80, 111
2, 112200, Note_on_c, 0, 73, 111
2, 112255, Note_on_c, 0, 73, 0
2, 112255, Note_on_c, 0, 80, 0
2, 112255, Note_on_c, 0, 76, 0
2, 112320, Note_on_c, 0, 76, 117
2, 112320, Note_on_c, 0, 81, 117
2, 112320, Note_on_c, 0, 73, 117
2, 112320, Note_on_c, 0, 57, 117
2, 112320, Note_on_c, 0, 45, 117
2, 112375, Note_on_c, 0, 45, 0
2, 112375, Note_on_c, 0, 73, 0
2, 112375, Note_on_c, 0, 76, 0
2, 112375, Note_on_c, 0, 81, 0
2, 112375, Note_on_c, 0, 57, 0
2, 112500, Note_on_c, 0, 69, 117
2, 112500, Note_on_c, 0, 57, 117
2, 112555, Note_on_c, 0, 57, 0
2, 112555, Note_on_c, 0, 69, 0
2, 112560, Note_on_c, 0, 69, 117
2, 112560, Note_on_c, 0, 57, 117
2, 112615, Note_on_c, 0, 57, 0
2, 112615, Note_on_c, 0, 69, 0
2, 112680, Note_on_c, 0, 93, 117
2, 112680, Note_on_c, 0, 81, 117
2, 112680, Note_on_c, 0, 45, 117
2, 112735, Note_on_c, 0, 45, 0
2, 112735, Note_on_c, 0, 81, 0
2, 112735, Note_on_c, 0, 93, 0
2, 112860, Note_on_c, 0, 81, 117
2, 112860, Note_on_c, 0, 69, 117
2, 112860, Note_on_c, 0, 57, 117
2, 112915, Note_on_c, 0, 57, 0
2, 112915, Note_on_c, 0, 69, 0
2, 112915, Note_on_c, 0, 81, 0
2, 112920, Note_on_c, 0, 81, 117
2, 112920, Note_on_c, 0, 69, 117
2, 112920, Note_on_c, 0, 57, 117
2, 112975, Note_on_c, 0, 57, 0
2, 112975, Note_on_c, 0, 69, 0
2, 112975, Note_on_c, 0, 81, 0
2, 113040, Note_on_c, 0, 82, 95
2, 113040, Note_on_c, 0, 70, 95
2, 113040, Note_on_c, 0, 58, 95
2, 113040, Note_on_c, 0, 46, 95
2, 113095, Note_on_c, 0, 46, 0
2, 113095, Note_on_c, 0, 82, 0
2, 113095, Note_on_c, 0, 70, 0
2, 113095, Note_on_c, 0, 58, 0
2, 113220, Note_on_c, 0, 70, 95
2, 113220, Note_on_c, 0, 58, 95
2, 113275, Note_on_c, 0, 58, 0
2, 113275, Note_on_c, 0, 70, 0
2, 113280, Note_on_c, 0, 70, 95
2, 113280, Note_on_c, 0, 58, 95
2, 113335, Note_on_c, 0, 58, 0
2, 113335, Note_on_c, 0, 70, 0
2, 113400, Note_on_c, 0, 94, 95
2, 113400, Note_on_c, 0, 82, 95
2, 113400, Note_on_c, 0, 46, 95
2, 113455, Note_on_c, 0, 46, 0
2, 113455, Note_on_c, 0, 82, 0
2, 113455, Note_on_c, 0, 94, 0
2, 113580, Note_on_c, 0, 82, 95
2, 113580, Note_on_c, 0, 70, 95
2, 113580, Note_on_c, 0, 58, 95
2, 113635, Note_on_c, 0, 58, 0
2, 113635, Note_on_c, 0, 70, 0
2, 113635, Note_on_c, 0, 82, 0
2, 113640, Note_on_c, 0, 82, 95
2, 113640, Note_on_c, 0, 70, 95
2, 113640, Note_on_c, 0, 58, 95
2, 113695, Note_on_c, 0, 58, 0
2, 113695, Note_on_c, 0, 70, 0
2, 113695, Note_on_c, 0, 82, 0
2, 113760, Note_on_c, 0, 71, 95
2, 113760, Note_on_c, 0, 83, 95
2, 113760, Note_on_c, 0, 47, 95
2, 113760, Note_on_c, 0, 59, 95
2, 113815, Note_on_c, 0, 59, 0
2, 113815, Note_on_c, 0, 71, 0
2, 113815, Note_on_c, 0, 83, 0
2, 113815, Note_on_c, 0, 47, 0
2, 113940, Note_on_c, 0, 59, 95
2, 113940, Note_on_c, 0, 71, 95
2, 113970, Note_on_c, 0, 71, 0
2, 113970, Note_on_c, 0, 59, 0
2, 114000, Note_on_c, 0, 59, 95
2, 114000, Note_on_c, 0, 71, 95
2, 114115, Note_on_c, 0, 71, 0
2, 114115, Note_on_c, 0, 59, 0
2, 114120, Note_on_c, 0, 95, 95
2, 114120, Note_on_c, 0, 83, 95
2, 114120, Note_on_c, 0, 47, 95
2, 114120, Note_on_c, 0, 35, 95
2, 114175, Note_on_c, 0, 35, 0
2, 114175, Note_on_c, 0, 95, 0
2, 114175, Note_on_c, 0, 83, 0
2, 114175, Note_on_c, 0, 47, 0
2, 114300, Note_on_c, 0, 83, 95
2, 114300, Note_on_c, 0, 71, 95
2, 114300, Note_on_c, 0, 59, 95
2, 114300, Note_on_c, 0, 47, 95
2, 114330, Note_on_c, 0, 47, 0
2, 114330, Note_on_c, 0, 83, 0
2, 114330, Note_on_c, 0, 71, 0
2, 114330, Note_on_c, 0, 59, 0
2, 114360, Note_on_c, 0, 83, 95
2, 114360, Note_on_c, 0, 71, 95
2, 114360, Note_on_c, 0, 59, 95
2, 114360, Note_on_c, 0, 47, 95
2, 114810, Note_on_c, 0, 47, 0
2, 114810, Note_on_c, 0, 83, 0
2, 114810, Note_on_c, 0, 71, 0
2, 114810, Note_on_c, 0, 59, 0
2, 114840, Note_on_c, 0, 59, 53
2, 114895, Note_on_c, 0, 59, 0
2, 115020, Note_on_c, 0, 47, 53
2, 115075, Note_on_c, 0, 47, 0
2, 115080, Note_on_c, 0, 47, 53
2, 115135, Note_on_c, 0, 47, 0
2, 115200, Note_on_c, 0, 52, 53
2, 115200, Note_on_c, 0, 40, 53
2, 115255, Note_on_c, 0, 40, 0
2, 115255, Note_on_c, 0, 52, 0
2, 115320, Note_on_c, 0, 54, 53
2, 115320, Note_on_c, 0, 51, 53
2, 115375, Note_on_c, 0, 51, 0
2, 115375, Note_on_c, 0, 54, 0
2, 115440, Note_on_c, 0, 55, 53
2, 115440, Note_on_c, 0, 52, 53
2, 115495, Note_on_c, 0, 52, 0
2, 115495, Note_on_c, 0, 55, 0
2, 115560, Note_on_c, 0, 47, 53
2, 115560, Note_on_c, 0, 51, 53
2, 115560, Note_on_c, 0, 54, 53
2, 115560, Note_on_c, 0, 35, 53
2, 115615, Note_on_c, 0, 35, 0
2, 115615, Note_on_c, 0, 47, 0
2, 115615, Note_on_c, 0, 51, 0
2, 115615, Note_on_c, 0, 54, 0
2, 115680, Note_on_c, 0, 55, 53
2, 115680, Note_on_c, 0, 52, 53
2, 115735, Note_on_c, 0, 52, 0
2, 115735, Note_on_c, 0, 55, 0
2, 115800, Note_on_c, 0, 57, 53
2, 115800, Note_on_c, 0, 54, 53
2, 115855, Note_on_c, 0, 54, 0
2, 115855, Note_on_c, 0, 57, 0
2, 115920, Note_on_c, 0, 83, 53
2, 115920, Note_on_c, 0, 71, 53
2, 115920, Note_on_c, 0, 55, 53
2, 115920, Note_on_c, 0, 52, 53
2, 115975, Note_on_c, 0, 52, 0
2, 115975, Note_on_c, 0, 83, 0
2, 115975, Note_on_c, 0, 71, 0
2, 115975, Note_on_c, 0, 55, 0
2, 116040, Note_on_c, 0, 59, 53
2, 116040, Note_on_c, 0, 55, 53
2, 116095, Note_on_c, 0, 55, 0
2, 116095, Note_on_c, 0, 59, 0
2, 116100, Note_on_c, 0, 71, 53
2, 116155, Note_on_c, 0, 71, 0
2, 116160, Note_on_c, 0, 71, 53
2, 116160, Note_on_c, 0, 59, 53
2, 116160, Note_on_c, 0, 55, 53
2, 116215, Note_on_c, 0, 55, 0
2, 116215, Note_on_c, 0, 59, 0
2, 116215, Note_on_c, 0, 71, 0
2, 116280, Note_on_c, 0, 76, 53
2, 116280, Note_on_c, 0, 64, 53
2, 116280, Note_on_c, 0, 55, 53
2, 116280, Note_on_c, 0, 59, 53
2, 116280, Note_on_c, 0, 52, 53
2, 116335, Note_on_c, 0, 52, 0
2, 116335, Note_on_c, 0, 55, 0
2, 116335, Note_on_c, 0, 76, 0
2, 116335, Note_on_c, 0, 64, 0
2, 116335, Note_on_c, 0, 59, 0
2, 116400, Note_on_c, 0, 75, 53
2, 116400, Note_on_c, 0, 78, 53
2, 116400, Note_on_c, 0, 66, 53
2, 116400, Note_on_c, 0, 57, 53
2, 116400, Note_on_c, 0, 54, 53
2, 116455, Note_on_c, 0, 54, 0
2, 116455, Note_on_c, 0, 66, 0
2, 116455, Note_on_c, 0, 75, 0
2, 116455, Note_on_c, 0, 78, 0
2, 116455, Note_on_c, 0, 57, 0
2, 116520, Note_on_c, 0, 76, 53
2, 116520, Note_on_c, 0, 79, 53
2, 116520, Note_on_c, 0, 67, 53
2, 116520, Note_on_c, 0, 55, 53
2, 116520, Note_on_c, 0, 52, 53
2, 116575, Note_on_c, 0, 52, 0
2, 116575, Note_on_c, 0, 67, 0
2, 116575, Note_on_c, 0, 76, 0
2, 116575, Note_on_c, 0, 79, 0
2, 116575, Note_on_c, 0, 55, 0
2, 116640, Note_on_c, 0, 75, 53
2, 116640, Note_on_c, 0, 78, 53
2, 116640, Note_on_c, 0, 66, 53
2, 116640, Note_on_c, 0, 54, 53
2, 116640, Note_on_c, 0, 57, 53
2, 116640, Note_on_c, 0, 47, 53
2, 116695, Note_on_c, 0, 47, 0
2, 116695, Note_on_c, 0, 78, 0
2, 116695, Note_on_c, 0, 66, 0
2, 116695, Note_on_c, 0, 75, 0
2, 116695, Note_on_c, 0, 57, 0
2, 116695, Note_on_c, 0, 54, 0
2, 116760, Note_on_c, 0, 76, 53
2, 116760, Note_on_c, 0, 79, 53
2, 116760, Note_on_c, 0, 67, 53
2, 116760, Note_on_c, 0, 55, 53
2, 116760, Note_on_c, 0, 52, 53
2, 116815, Note_on_c, 0, 52, 0
2, 116815, Note_on_c, 0, 67, 0
2, 116815, Note_on_c, 0, 76, 0
2, 116815, Note_on_c, 0, 79, 0
2, 116815, Note_on_c, 0, 55, 0
2, 116880, Note_on_c, 0, 78, 53
2, 116880, Note_on_c, 0, 81, 53
2, 116880, Note_on_c, 0, 69, 53
2, 116880, Note_on_c, 0, 54, 53
2, 116880, Note_on_c, 0, 51, 53
2, 116935, Note_on_c, 0, 51, 0
2, 116935, Note_on_c, 0, 69, 0
2, 116935, Note_on_c, 0, 78, 0
2, 116935, Note_on_c, 0, 81, 0
2, 116935, Note_on_c, 0, 54, 0
2, 117000, Note_on_c, 0, 76, 53
2, 117000, Note_on_c, 0, 79, 53
2, 117000, Note_on_c, 0, 67, 53
2, 117000, Note_on_c, 0, 59, 53
2, 117055, Note_on_c, 0, 59, 0
2, 117055, Note_on_c, 0, 76, 0
2, 117055, Note_on_c, 0, 79, 0
2, 117055, Note_on_c, 0, 67, 0
2, 117120, Note_on_c, 0, 79, 53
2, 117120, Note_on_c, 0, 83, 53
2, 117120, Note_on_c, 0, 71, 53
2, 117175, Note_on_c, 0, 71, 0
2, 117175, Note_on_c, 0, 83, 0
2, 117175, Note_on_c, 0, 79, 0
2, 117180, Note_on_c, 0, 47, 53
2, 117235, Note_on_c, 0, 47, 0
2, 117240, Note_on_c, 0, 79, 53
2, 117240, Note_on_c, 0, 83, 53
2, 117240, Note_on_c, 0, 71, 53
2, 117240, Note_on_c, 0, 47, 53
2, 117295, Note_on_c, 0, 47, 0
2, 117295, Note_on_c, 0, 79, 0
2, 117295, Note_on_c, 0, 83, 0
2, 117295, Note_on_c, 0, 71, 0
2, 117360, Note_on_c, 0, 79, 53
2, 117360, Note_on_c, 0, 83, 53
2, 117360, Note_on_c, 0, 71, 53
2, 117360, Note_on_c, 0, 52, 53
2, 117360, Note_on_c, 0, 40, 53
2, 117415, Note_on_c, 0, 40, 0
2, 117415, Note_on_c, 0, 71, 0
2, 117415, Note_on_c, 0, 79, 0
2, 117415, Note_on_c, 0, 83, 0
2, 117415, Note_on_c, 0, 52, 0
2, 117480, Note_on_c, 0, 78, 53
2, 117480, Note_on_c, 0, 81, 53
2, 117480, Note_on_c, 0, 69, 53
2, 117480, Note_on_c, 0, 54, 53
2, 117535, Note_on_c, 0, 54, 0
2, 117535, Note_on_c, 0, 78, 0
2, 117535, Note_on_c, 0, 81, 0
2, 117535, Note_on_c, 0, 69, 0
2, 117600, Note_on_c, 0, 76, 53
2, 117600, Note_on_c, 0, 79, 53
2, 117600, Note_on_c, 0, 67, 53
2, 117600, Note_on_c, 0, 55, 53
2, 117655, Note_on_c, 0, 55, 0
2, 117655, Note_on_c, 0, 76, 0
2, 117655, Note_on_c, 0, 79, 0
2, 117655, Note_on_c, 0, 67, 0
2, 117720, Note_on_c, 0, 78, 53
2, 117720, Note_on_c, 0, 81, 53
2, 117720, Note_on_c, 0, 69, 53
2, 117720, Note_on_c, 0, 54, 53
2, 117720, Note_on_c, 0, 47, 53
2, 117775, Note_on_c, 0, 47, 0
2, 117775, Note_on_c, 0, 69, 0
2, 117775, Note_on_c, 0, 78, 0
2, 117775, Note_on_c, 0, 81, 0
2, 117775, Note_on_c, 0, 54, 0
2, 117840, Note_on_c, 0, 76, 53
2, 117840, Note_on_c, 0, 79, 53
2, 117840, Note_on_c, 0, 67, 53
2, 117840, Note_on_c, 0, 55, 53
2, 117895, Note_on_c, 0, 55, 0
2, 117895, Note_on_c, 0, 76, 0
2, 117895, Note_on_c, 0, 79, 0
2, 117895, Note_on_c, 0, 67, 0
2, 117960, Note_on_c, 0, 75, 53
2, 117960, Note_on_c, 0, 78, 53
2, 117960, Note_on_c, 0, 66, 53
2, 117960, Note_on_c, 0, 57, 53
2, 118015, Note_on_c, 0, 57, 0
2, 118015, Note_on_c, 0, 75, 0
2, 118015, Note_on_c, 0, 78, 0
2, 118015, Note_on_c, 0, 66, 0
2, 118080, Note_on_c, 0, 88, 53
2, 118080, Note_on_c, 0, 56, 53
2, 118080, Note_on_c, 0, 52, 53
2, 118135, Note_on_c, 0, 52, 0
2, 118135, Note_on_c, 0, 56, 0
2, 118135, Note_on_c, 0, 88, 0
2, 118200, Note_on_c, 0, 64, 53
2, 118200, Note_on_c, 0, 52, 53
2, 118255, Note_on_c, 0, 52, 0
2, 118255, Note_on_c, 0, 64, 0
2, 118260, Note_on_c, 0, 76, 53
2, 118315, Note_on_c, 0, 76, 0
2, 118320, Note_on_c, 0, 76, 53
2, 118320, Note_on_c, 0, 64, 53
2, 118320, Note_on_c, 0, 52, 53
2, 118375, Note_on_c, 0, 52, 0
2, 118375, Note_on_c, 0, 64, 0
2, 118375, Note_on_c, 0, 76, 0
2, 118440, Note_on_c, 0, 76, 53
2, 118440, Note_on_c, 0, 81, 53
2, 118440, Note_on_c, 0, 69, 53
2, 118440, Note_on_c, 0, 60, 53
2, 118440, Note_on_c, 0, 64, 53
2, 118440, Note_on_c, 0, 52, 53
2, 118495, Note_on_c, 0, 52, 0
2, 118495, Note_on_c, 0, 81, 0
2, 118495, Note_on_c, 0, 69, 0
2, 118495, Note_on_c, 0, 76, 0
2, 118495, Note_on_c, 0, 64, 0
2, 118495, Note_on_c, 0, 60, 0
2, 118560, Note_on_c, 0, 80, 53
2, 118560, Note_on_c, 0, 83, 53
2, 118560, Note_on_c, 0, 71, 53
2, 118560, Note_on_c, 0, 62, 53
2, 118560, Note_on_c, 0, 59, 53
2, 118615, Note_on_c, 0, 59, 0
2, 118615, Note_on_c, 0, 71, 0
2, 118615, Note_on_c, 0, 80, 0
2, 118615, Note_on_c, 0, 83, 0
2, 118615, Note_on_c, 0, 62, 0
2, 118680, Note_on_c, 0, 81, 53
2, 118680, Note_on_c, 0, 84, 53
2, 118680, Note_on_c, 0, 72, 53
2, 118680, Note_on_c, 0, 60, 53
2, 118680, Note_on_c, 0, 57, 53
2, 118735, Note_on_c, 0, 57, 0
2, 118735, Note_on_c, 0, 72, 0
2, 118735, Note_on_c, 0, 81, 0
2, 118735, Note_on_c, 0, 84, 0
2, 118735, Note_on_c, 0, 60, 0
2, 118800, Note_on_c, 0, 80, 53
2, 118800, Note_on_c, 0, 83, 53
2, 118800, Note_on_c, 0, 71, 53
2, 118800, Note_on_c, 0, 59, 53
2, 118800, Note_on_c, 0, 62, 53
2, 118800, Note_on_c, 0, 52, 53
2, 118855, Note_on_c, 0, 52, 0
2, 118855, Note_on_c, 0, 83, 0
2, 118855, Note_on_c, 0, 71, 0
2, 118855, Note_on_c, 0, 80, 0
2, 118855, Note_on_c, 0, 62, 0
2, 118855, Note_on_c, 0, 59, 0
2, 118920, Note_on_c, 0, 81, 53
2, 118920, Note_on_c, 0, 84, 53
2, 118920, Note_on_c, 0, 72, 53
2, 118920, Note_on_c, 0, 60, 53
2, 118920, Note_on_c, 0, 57, 53
2, 118975, Note_on_c, 0, 57, 0
2, 118975, Note_on_c, 0, 72, 0
2, 118975, Note_on_c, 0, 81, 0
2, 118975, Note_on_c, 0, 84, 0
2, 118975, Note_on_c, 0, 60, 0
2, 119040, Note_on_c, 0, 83, 53
2, 119040, Note_on_c, 0, 86, 53
2, 119040, Note_on_c, 0, 74, 53
2, 119040, Note_on_c, 0, 59, 53
2, 119040, Note_on_c, 0, 56, 53
2, 119095, Note_on_c, 0, 56, 0
2, 119095, Note_on_c, 0, 74, 0
2, 119095, Note_on_c, 0, 83, 0
2, 119095, Note_on_c, 0, 86, 0
2, 119095, Note_on_c, 0, 59, 0
2, 119160, Note_on_c, 0, 81, 53
2, 119160, Note_on_c, 0, 84, 53
2, 119160, Note_on_c, 0, 72, 53
2, 119160, Note_on_c, 0, 64, 53
2, 119215, Note_on_c, 0, 64, 0
2, 119215, Note_on_c, 0, 81, 0
2, 119215, Note_on_c, 0, 84, 0
2, 119215, Note_on_c, 0, 72, 0
2, 119280, Note_on_c, 0, 84, 53
2, 119280, Note_on_c, 0, 88, 53
2, 119280, Note_on_c, 0, 76, 53
2, 119335, Note_on_c, 0, 76, 0
2, 119335, Note_on_c, 0, 88, 0
2, 119335, Note_on_c, 0, 84, 0
2, 119340, Note_on_c, 0, 52, 53
2, 119395, Note_on_c, 0, 52, 0
2, 119400, Note_on_c, 0, 84, 53
2, 119400, Note_on_c, 0, 88, 53
2, 119400, Note_on_c, 0, 76, 53
2, 119400, Note_on_c, 0, 52, 53
2, 119455, Note_on_c, 0, 52, 0
2, 119455, Note_on_c, 0, 84, 0
2, 119455, Note_on_c, 0, 88, 0
2, 119455, Note_on_c, 0, 76, 0
2, 119520, Note_on_c, 0, 84, 53
2, 119520, Note_on_c, 0, 88, 53
2, 119520, Note_on_c, 0, 76, 53
2, 119520, Note_on_c, 0, 57, 53
2, 119520, Note_on_c, 0, 45, 53
2, 119575, Note_on_c, 0, 45, 0
2, 119575, Note_on_c, 0, 76, 0
2, 119575, Note_on_c, 0, 84, 0
2, 119575, Note_on_c, 0, 88, 0
2, 119575, Note_on_c, 0, 57, 0
2, 119640, Note_on_c, 0, 83, 53
2, 119640, Note_on_c, 0, 86, 53
2, 119640, Note_on_c, 0, 74, 53
2, 119640, Note_on_c, 0, 59, 53
2, 119640, Note_on_c, 0, 56, 53
2, 119695, Note_on_c, 0, 56, 0
2, 119695, Note_on_c, 0, 74, 0
2, 119695, Note_on_c, 0, 83, 0
2, 119695, Note_on_c, 0, 86, 0
2, 119695, Note_on_c, 0, 59, 0
2, 119760, Note_on_c, 0, 81, 53
2, 119760, Note_on_c, 0, 84, 53
2, 119760, Note_on_c, 0, 72, 53
2, 119760, Note_on_c, 0, 60, 53
2, 119760, Note_on_c, 0, 57, 53
2, 119815, Note_on_c, 0, 57, 0
2, 119815, Note_on_c, 0, 72, 0
2, 119815, Note_on_c, 0, 81, 0
2, 119815, Note_on_c, 0, 84, 0
2, 119815, Note_on_c, 0, 60, 0
2, 119880, Note_on_c, 0, 83, 53
2, 119880, Note_on_c, 0, 86, 53
2, 119880, Note_on_c, 0, 74, 53
2, 119880, Note_on_c, 0, 56, 53
2, 119880, Note_on_c, 0, 59, 53
2, 119880, Note_on_c, 0, 52, 53
2, 119935, Note_on_c, 0, 52, 0
2, 119935, Note_on_c, 0, 86, 0
2, 119935, Note_on_c, 0, 74, 0
2, 119935, Note_on_c, 0, 83, 0
2, 119935, Note_on_c, 0, 59, 0
2, 119935, Note_on_c, 0, 56, 0
2, 120000, Note_on_c, 0, 81, 53
2, 120000, Note_on_c, 0, 84, 53
2, 120000, Note_on_c, 0, 72, 53
2, 120000, Note_on_c, 0, 60, 53
2, 120000, Note_on_c, 0, 57, 53
2, 120055, Note_on_c, 0, 57, 0
2, 120055, Note_on_c, 0, 72, 0
2, 120055, Note_on_c, 0, 81, 0
2, 120055, Note_on_c, 0, 84, 0
2, 120055, Note_on_c, 0, 60, 0
2, 120120, Note_on_c, 0, 80, 53
2, 120120, Note_on_c, 0, 83, 53
2, 120120, Note_on_c, 0, 71, 53
2, 120120, Note_on_c, 0, 62, 53
2, 120120, Note_on_c, 0, 59, 53
2, 120175, Note_on_c, 0, 59, 0
2, 120175, Note_on_c, 0, 71, 0
2, 120175, Note_on_c, 0, 80, 0
2, 120175, Note_on_c, 0, 83, 0
2, 120175, Note_on_c, 0, 62, 0
2, 120240, Note_on_c, 0, 88, 53
2, 120240, Note_on_c, 0, 76, 53
2, 120240, Note_on_c, 0, 60, 53
2, 120240, Note_on_c, 0, 57, 53
2, 120295, Note_on_c, 0, 57, 0
2, 120295, Note_on_c, 0, 88, 0
2, 120295, Note_on_c, 0, 76, 0
2, 120295, Note_on_c, 0, 60, 0
2, 120360, Note_on_c, 0, 64, 53
2, 120360, Note_on_c, 0, 60, 53
2, 120415, Note_on_c, 0, 60, 0
2, 120415, Note_on_c, 0, 64, 0
2, 120420, Note_on_c, 0, 76, 53
2, 120475, Note_on_c, 0, 76, 0
2, 120480, Note_on_c, 0, 76, 53
2, 120480, Note_on_c, 0, 64, 53
2, 120480, Note_on_c, 0, 60, 53
2, 120535, Note_on_c, 0, 60, 0
2, 120535, Note_on_c, 0, 64, 0
2, 120535, Note_on_c, 0, 76, 0
2, 120600, Note_on_c, 0, 76, 53
2, 120600, Note_on_c, 0, 81, 53
2, 120600, Note_on_c, 0, 69, 53
2, 120600, Note_on_c, 0, 60, 53
2, 120600, Note_on_c, 0, 64, 53
2, 120600, Note_on_c, 0, 57, 53
2, 120655, Note_on_c, 0, 57, 0
2, 120655, Note_on_c, 0, 81, 0
2, 120655, Note_on_c, 0, 69, 0
2, 120655, Note_on_c, 0, 76, 0
2, 120655, Note_on_c, 0, 64, 0
2, 120655, Note_on_c, 0, 60, 0
2, 120720, Note_on_c, 0, 80, 53
2, 120720, Note_on_c, 0, 83, 53
2, 120720, Note_on_c, 0, 71, 53
2, 120720, Note_on_c, 0, 62, 53
2, 120720, Note_on_c, 0, 59, 53
2, 120775, Note_on_c, 0, 59, 0
2, 120775, Note_on_c, 0, 71, 0
2, 120775, Note_on_c, 0, 80, 0
2, 120775, Note_on_c, 0, 83, 0
2, 120775, Note_on_c, 0, 62, 0
2, 120840, Note_on_c, 0, 81, 53
2, 120840, Note_on_c, 0, 84, 53
2, 120840, Note_on_c, 0, 72, 53
2, 120840, Note_on_c, 0, 60, 53
2, 120840, Note_on_c, 0, 57, 53
2, 120895, Note_on_c, 0, 57, 0
2, 120895, Note_on_c, 0, 72, 0
2, 120895, Note_on_c, 0, 81, 0
2, 120895, Note_on_c, 0, 84, 0
2, 120895, Note_on_c, 0, 60, 0
2, 120960, Note_on_c, 0, 80, 53
2, 120960, Note_on_c, 0, 83, 53
2, 120960, Note_on_c, 0, 71, 53
2, 120960, Note_on_c, 0, 59, 53
2, 120960, Note_on_c, 0, 62, 53
2, 120960, Note_on_c, 0, 52, 53
2, 121015, Note_on_c, 0, 52, 0
2, 121015, Note_on_c, 0, 83, 0
2, 121015, Note_on_c, 0, 71, 0
2, 121015, Note_on_c, 0, 80, 0
2, 121015, Note_on_c, 0, 62, 0
2, 121015, Note_on_c, 0, 59, 0
2, 121080, Note_on_c, 0, 81, 53
2, 121080, Note_on_c, 0, 84, 53
2, 121080, Note_on_c, 0, 72, 53
2, 121080, Note_on_c, 0, 60, 53
2, 121080, Note_on_c, 0, 57, 53
2, 121135, Note_on_c, 0, 57, 0
2, 121135, Note_on_c, 0, 72, 0
2, 121135, Note_on_c, 0, 81, 0
2, 121135, Note_on_c, 0, 84, 0
2, 121135, Note_on_c, 0, 60, 0
2, 121200, Note_on_c, 0, 83, 53
2, 121200, Note_on_c, 0, 86, 53
2, 121200, Note_on_c, 0, 74, 53
2, 121200, Note_on_c, 0, 59, 53
2, 121200, Note_on_c, 0, 56, 53
2, 121255, Note_on_c, 0, 56, 0
2, 121255, Note_on_c, 0, 74, 0
2, 121255, Note_on_c, 0, 83, 0
2, 121255, Note_on_c, 0, 86, 0
2, 121255, Note_on_c, 0, 59, 0
2, 121320, Note_on_c, 0, 41, 117
2, 121375, Note_on_c, 0, 41, 0
2, 121500, Note_on_c, 0, 29, 117
2, 121555, Note_on_c, 0, 29, 0
2, 121560, Note_on_c, 0, 29, 117
2, 121615, Note_on_c, 0, 29, 0
2, 121680, Note_on_c, 0, 77, 53
2, 121680, Note_on_c, 0, 81, 53
2, 121680, Note_on_c, 0, 69, 53
2, 121680, Note_on_c, 0, 60, 53
2, 121680, Note_on_c, 0, 65, 53
2, 121680, Note_on_c, 0, 57, 53
2, 121735, Note_on_c, 0, 57, 0
2, 121735, Note_on_c, 0, 81, 0
2, 121735, Note_on_c, 0, 69, 0
2, 121735, Note_on_c, 0, 77, 0
2, 121735, Note_on_c, 0, 65, 0
2, 121735, Note_on_c, 0, 60, 0
2, 121800, Note_on_c, 0, 79, 53
2, 121800, Note_on_c, 0, 82, 53
2, 121800, Note_on_c, 0, 70, 53
2, 121800, Note_on_c, 0, 58, 53
2, 121800, Note_on_c, 0, 55, 53
2, 121855, Note_on_c, 0, 55, 0
2, 121855, Note_on_c, 0, 70, 0
2, 121855, Note_on_c, 0, 79, 0
2, 121855, Note_on_c, 0, 82, 0
2, 121855, Note_on_c, 0, 58, 0
2, 121920, Note_on_c, 0, 81, 53
2, 121920, Note_on_c, 0, 84, 53
2, 121920, Note_on_c, 0, 72, 53
2, 121920, Note_on_c, 0, 57, 53
2, 121920, Note_on_c, 0, 53, 53
2, 121975, Note_on_c, 0, 53, 0
2, 121975, Note_on_c, 0, 72, 0
2, 121975, Note_on_c, 0, 81, 0
2, 121975, Note_on_c, 0, 84, 0
2, 121975, Note_on_c, 0, 57, 0
2, 122040, Note_on_c, 0, 79, 53
2, 122040, Note_on_c, 0, 82, 53
2, 122040, Note_on_c, 0, 70, 53
2, 122040, Note_on_c, 0, 62, 53
2, 122040, Note_on_c, 0, 65, 53
2, 122040, Note_on_c, 0, 58, 53
2, 122095, Note_on_c, 0, 58, 0
2, 122095, Note_on_c, 0, 82, 0
2, 122095, Note_on_c, 0, 70, 0
2, 122095, Note_on_c, 0, 79, 0
2, 122095, Note_on_c, 0, 65, 0
2, 122095, Note_on_c, 0, 62, 0
2, 122160, Note_on_c, 0, 81, 53
2, 122160, Note_on_c, 0, 84, 53
2, 122160, Note_on_c, 0, 72, 53
2, 122160, Note_on_c, 0, 60, 53
2, 122160, Note_on_c, 0, 65, 53
2, 122160, Note_on_c, 0, 57, 53
2, 122215, Note_on_c, 0, 57, 0
2, 122215, Note_on_c, 0, 84, 0
2, 122215, Note_on_c, 0, 72, 0
2, 122215, Note_on_c, 0, 81, 0
2, 122215, Note_on_c, 0, 65, 0
2, 122215, Note_on_c, 0, 60, 0
2, 122280, Note_on_c, 0, 82, 53
2, 122280, Note_on_c, 0, 86, 53
2, 122280, Note_on_c, 0, 74, 53
2, 122280, Note_on_c, 0, 58, 53
2, 122280, Note_on_c, 0, 65, 53
2, 122280, Note_on_c, 0, 55, 53
2, 122335, Note_on_c, 0, 55, 0
2, 122335, Note_on_c, 0, 86, 0
2, 122335, Note_on_c, 0, 74, 0
2, 122335, Note_on_c, 0, 82, 0
2, 122335, Note_on_c, 0, 65, 0
2, 122335, Note_on_c, 0, 58, 0
2, 122400, Note_on_c, 0, 41, 117
2, 122455, Note_on_c, 0, 41, 0
2, 122580, Note_on_c, 0, 29, 117
2, 122635, Note_on_c, 0, 29, 0
2, 122640, Note_on_c, 0, 29, 117
2, 122695, Note_on_c, 0, 29, 0
2, 122760, Note_on_c, 0, 81, 53
2, 122760, Note_on_c, 0, 84, 53
2, 122760, Note_on_c, 0, 72, 53
2, 122760, Note_on_c, 0, 65, 53
2, 122760, Note_on_c, 0, 57, 53
2, 122815, Note_on_c, 0, 57, 0
2, 122815, Note_on_c, 0, 72, 0
2, 122815, Note_on_c, 0, 81, 0
2, 122815, Note_on_c, 0, 84, 0
2, 122815, Note_on_c, 0, 65, 0
2, 122880, Note_on_c, 0, 79, 53
2, 122880, Note_on_c, 0, 88, 53
2, 122880, Note_on_c, 0, 76, 53
2, 122880, Note_on_c, 0, 58, 53
2, 122880, Note_on_c, 0, 55, 53
2, 122935, Note_on_c, 0, 55, 0
2, 122935, Note_on_c, 0, 76, 0
2, 122935, Note_on_c, 0, 79, 0
2, 122935, Note_on_c, 0, 88, 0
2, 122935, Note_on_c, 0, 58, 0
2, 123000, Note_on_c, 0, 81, 53
2, 123000, Note_on_c, 0, 89, 53
2, 123000, Note_on_c, 0, 77, 53
2, 123000, Note_on_c, 0, 57, 53
2, 123000, Note_on_c, 0, 53, 53
2, 123055, Note_on_c, 0, 53, 0
2, 123055, Note_on_c, 0, 77, 0
2, 123055, Note_on_c, 0, 81, 0
2, 123055, Note_on_c, 0, 89, 0
2, 123055, Note_on_c, 0, 57, 0
2, 123120, Note_on_c, 0, 79, 53
2, 123120, Note_on_c, 0, 88, 53
2, 123120, Note_on_c, 0, 76, 53
2, 123120, Note_on_c, 0, 58, 53
2, 123120, Note_on_c, 0, 60, 53
2, 123120, Note_on_c, 0, 55, 53
2, 123175, Note_on_c, 0, 55, 0
2, 123175, Note_on_c, 0, 88, 0
2, 123175, Note_on_c, 0, 76, 0
2, 123175, Note_on_c, 0, 79, 0
2, 123175, Note_on_c, 0, 60, 0
2, 123175, Note_on_c, 0, 58, 0
2, 123240, Note_on_c, 0, 81, 53
2, 123240, Note_on_c, 0, 89, 53
2, 123240, Note_on_c, 0, 77, 53
2, 123240, Note_on_c, 0, 57, 53
2, 123240, Note_on_c, 0, 60, 53
2, 123240, Note_on_c, 0, 53, 53
2, 123295, Note_on_c, 0, 53, 0
2, 123295, Note_on_c, 0, 89, 0
2, 123295, Note_on_c, 0, 77, 0
2, 123295, Note_on_c, 0, 81, 0
2, 123295, Note_on_c, 0, 60, 0
2, 123295, Note_on_c, 0, 57, 0
2, 123360, Note_on_c, 0, 82, 53
2, 123360, Note_on_c, 0, 91, 53
2, 123360, Note_on_c, 0, 79, 53
2, 123360, Note_on_c, 0, 55, 53
2, 123360, Note_on_c, 0, 60, 53
2, 123360, Note_on_c, 0, 52, 53
2, 123415, Note_on_c, 0, 52, 0
2, 123415, Note_on_c, 0, 91, 0
2, 123415, Note_on_c, 0, 79, 0
2, 123415, Note_on_c, 0, 82, 0
2, 123415, Note_on_c, 0, 60, 0
2, 123415, Note_on_c, 0, 55, 0
2, 123480, Note_on_c, 0, 41, 117
2, 123535, Note_on_c, 0, 41, 0
2, 123660, Note_on_c, 0, 29, 117
2, 123715, Note_on_c, 0, 29, 0
2, 123720, Note_on_c, 0, 29, 117
2, 123775, Note_on_c, 0, 29, 0
2, 123840, Note_on_c, 0, 69, 53
2, 123840, Note_on_c, 0, 72, 53
2, 123840, Note_on_c, 0, 77, 53
2, 123840, Note_on_c, 0, 81, 53
2, 123840, Note_on_c, 0, 89, 53
2, 123840, Note_on_c, 0, 65, 53
2, 123895, Note_on_c, 0, 65, 0
2, 123895, Note_on_c, 0, 72, 0
2, 123895, Note_on_c, 0, 77, 0
2, 123895, Note_on_c, 0, 69, 0
2, 123895, Note_on_c, 0, 89, 0
2, 123895, Note_on_c, 0, 81, 0
2, 123960, Note_on_c, 0, 70, 53
2, 123960, Note_on_c, 0, 79, 53
2, 123960, Note_on_c, 0, 82, 53
2, 123960, Note_on_c, 0, 89, 53
2, 123960, Note_on_c, 0, 67, 53
2, 124015, Note_on_c, 0, 67, 0
2, 124015, Note_on_c, 0, 82, 0
2, 124015, Note_on_c, 0, 70, 0
2, 124015, Note_on_c, 0, 79, 0
2, 124015, Note_on_c, 0, 89, 0
2, 124080, Note_on_c, 0, 69, 53
2, 124080, Note_on_c, 0, 81, 53
2, 124080, Note_on_c, 0, 84, 53
2, 124080, Note_on_c, 0, 89, 53
2, 124080, Note_on_c, 0, 65, 53
2, 124135, Note_on_c, 0, 65, 0
2, 124135, Note_on_c, 0, 84, 0
2, 124135, Note_on_c, 0, 69, 0
2, 124135, Note_on_c, 0, 81, 0
2, 124135, Note_on_c, 0, 89, 0
2, 124200, Note_on_c, 0, 70, 53
2, 124200, Note_on_c, 0, 74, 53
2, 124200, Note_on_c, 0, 79, 53
2, 124200, Note_on_c, 0, 82, 53
2, 124200, Note_on_c, 0, 89, 53
2, 124200, Note_on_c, 0, 65, 53
2, 124255, Note_on_c, 0, 65, 0
2, 124255, Note_on_c, 0, 74, 0
2, 124255, Note_on_c, 0, 79, 0
2, 124255, Note_on_c, 0, 70, 0
2, 124255, Note_on_c, 0, 89, 0
2, 124255, Note_on_c, 0, 82, 0
2, 124320, Note_on_c, 0, 72, 53
2, 124320, Note_on_c, 0, 81, 53
2, 124320, Note_on_c, 0, 84, 53
2, 124320, Note_on_c, 0, 89, 53
2, 124320, Note_on_c, 0, 69, 53
2, 124375, Note_on_c, 0, 69, 0
2, 124375, Note_on_c, 0, 84, 0
2, 124375, Note_on_c, 0, 72, 0
2, 124375, Note_on_c, 0, 81, 0
2, 124375, Note_on_c, 0, 89, 0
2, 124440, Note_on_c, 0, 70, 53
2, 124440, Note_on_c, 0, 82, 53
2, 124440, Note_on_c, 0, 86, 53
2, 124440, Note_on_c, 0, 89, 53
2, 124440, Note_on_c, 0, 67, 53
2, 124495, Note_on_c, 0, 67, 0
2, 124495, Note_on_c, 0, 86, 0
2, 124495, Note_on_c, 0, 70, 0
2, 124495, Note_on_c, 0, 82, 0
2, 124495, Note_on_c, 0, 89, 0
2, 124560, Note_on_c, 0, 41, 117
2, 124615, Note_on_c, 0, 41, 0
2, 124740, Note_on_c, 0, 29, 117
2, 124795, Note_on_c, 0, 29, 0
2, 124800, Note_on_c, 0, 29, 117
2, 124855, Note_on_c, 0, 29, 0
2, 124920, Note_on_c, 0, 93, 71
2, 124920, Note_on_c, 0, 81, 71
2, 124920, Note_on_c, 0, 72, 71
2, 124920, Note_on_c, 0, 65, 71
2, 124975, Note_on_c, 0, 65, 0
2, 124975, Note_on_c, 0, 93, 0
2, 124975, Note_on_c, 0, 81, 0
2, 124975, Note_on_c, 0, 72, 0
2, 125040, Note_on_c, 0, 91, 71
2, 125040, Note_on_c, 0, 84, 71
2, 125040, Note_on_c, 0, 76, 71
2, 125040, Note_on_c, 0, 67, 71
2, 125095, Note_on_c, 0, 67, 0
2, 125095, Note_on_c, 0, 91, 0
2, 125095, Note_on_c, 0, 84, 0
2, 125095, Note_on_c, 0, 76, 0
2, 125160, Note_on_c, 0, 89, 71
2, 125160, Note_on_c, 0, 84, 71
2, 125160, Note_on_c, 0, 77, 71
2, 125160, Note_on_c, 0, 69, 71
2, 125215, Note_on_c, 0, 69, 0
2, 125215, Note_on_c, 0, 89, 0
2, 125215, Note_on_c, 0, 84, 0
2, 125215, Note_on_c, 0, 77, 0
2, 125280, Note_on_c, 0, 91, 71
2, 125280, Note_on_c, 0, 84, 71
2, 125280, Note_on_c, 0, 67, 71
2, 125280, Note_on_c, 0, 76, 71
2, 125280, Note_on_c, 0, 65, 71
2, 125335, Note_on_c, 0, 65, 0
2, 125335, Note_on_c, 0, 67, 0
2, 125335, Note_on_c, 0, 91, 0
2, 125335, Note_on_c, 0, 84, 0
2, 125335, Note_on_c, 0, 76, 0
2, 125400, Note_on_c, 0, 89, 71
2, 125400, Note_on_c, 0, 84, 71
2, 125400, Note_on_c, 0, 77, 71
2, 125400, Note_on_c, 0, 69, 71
2, 125455, Note_on_c, 0, 69, 0
2, 125455, Note_on_c, 0, 89, 0
2, 125455, Note_on_c, 0, 84, 0
2, 125455, Note_on_c, 0, 77, 0
2, 125520, Note_on_c, 0, 88, 71
2, 125520, Note_on_c, 0, 84, 71
2, 125520, Note_on_c, 0, 79, 71
2, 125520, Note_on_c, 0, 70, 71
2, 125575, Note_on_c, 0, 70, 0
2, 125575, Note_on_c, 0, 88, 0
2, 125575, Note_on_c, 0, 84, 0
2, 125575, Note_on_c, 0, 79, 0
2, 125640, Note_on_c, 0, 81, 71
2, 125640, Note_on_c, 0, 89, 71
2, 125640, Note_on_c, 0, 77, 71
2, 125640, Note_on_c, 0, 69, 71
2, 125640, Note_on_c, 0, 72, 71
2, 125640, Note_on_c, 0, 65, 71
2, 125695, Note_on_c, 0, 65, 0
2, 125695, Note_on_c, 0, 89, 0
2, 125695, Note_on_c, 0, 77, 0
2, 125695, Note_on_c, 0, 81, 0
2, 125695, Note_on_c, 0, 72, 0
2, 125695, Note_on_c, 0, 69, 0
2, 125760, Note_on_c, 0, 82, 71
2, 125760, Note_on_c, 0, 91, 71
2, 125760, Note_on_c, 0, 79, 71
2, 125760, Note_on_c, 0, 70, 71
2, 125760, Note_on_c, 0, 67, 71
2, 125815, Note_on_c, 0, 67, 0
2, 125815, Note_on_c, 0, 79, 0
2, 125815, Note_on_c, 0, 82, 0
2, 125815, Note_on_c, 0, 91, 0
2, 125815, Note_on_c, 0, 70, 0
2, 125880, Note_on_c, 0, 84, 71
2, 125880, Note_on_c, 0, 93, 71
2, 125880, Note_on_c, 0, 81, 71
2, 125880, Note_on_c, 0, 69, 71
2, 125880, Note_on_c, 0, 65, 71
2, 125935, Note_on_c, 0, 65, 0
2, 125935, Note_on_c, 0, 81, 0
2, 125935, Note_on_c, 0, 84, 0
2, 125935, Note_on_c, 0, 93, 0
2, 125935, Note_on_c, 0, 69, 0
2, 126000, Note_on_c, 0, 84, 71
2, 126000, Note_on_c, 0, 93, 71
2, 126000, Note_on_c, 0, 81, 71
2, 126000, Note_on_c, 0, 53, 71
2, 126055, Note_on_c, 0, 53, 0
2, 126055, Note_on_c, 0, 84, 0
2, 126055, Note_on_c, 0, 93, 0
2, 126055, Note_on_c, 0, 81, 0
2, 126120, Note_on_c, 0, 82, 71
2, 126120, Note_on_c, 0, 91, 71
2, 126120, Note_on_c, 0, 79, 71
2, 126175, Note_on_c, 0, 79, 0
2, 126175, Note_on_c, 0, 91, 0
2, 126175, Note_on_c, 0, 82, 0
2, 126180, Note_on_c, 0, 41, 71
2, 126235, Note_on_c, 0, 41, 0
2, 126240, Note_on_c, 0, 81, 71
2, 126240, Note_on_c, 0, 89, 71
2, 126240, Note_on_c, 0, 77, 71
2, 126240, Note_on_c, 0, 41, 71
2, 126295, Note_on_c, 0, 41, 0
2, 126295, Note_on_c, 0, 81, 0
2, 126295, Note_on_c, 0, 89, 0
2, 126295, Note_on_c, 0, 77, 0
2, 126360, Note_on_c, 0, 81, 71
2, 126360, Note_on_c, 0, 89, 71
2, 126360, Note_on_c, 0, 77, 71
2, 126360, Note_on_c, 0, 69, 71
2, 126360, Note_on_c, 0, 72, 71
2, 126360, Note_on_c, 0, 65, 71
2, 126415, Note_on_c, 0, 65, 0
2, 126415, Note_on_c, 0, 89, 0
2, 126415, Note_on_c, 0, 77, 0
2, 126415, Note_on_c, 0, 81, 0
2, 126415, Note_on_c, 0, 72, 0
2, 126415, Note_on_c, 0, 69, 0
2, 126480, Note_on_c, 0, 82, 71
2, 126480, Note_on_c, 0, 91, 71
2, 126480, Note_on_c, 0, 79, 71
2, 126480, Note_on_c, 0, 70, 71
2, 126480, Note_on_c, 0, 67, 71
2, 126535, Note_on_c, 0, 67, 0
2, 126535, Note_on_c, 0, 79, 0
2, 126535, Note_on_c, 0, 82, 0
2, 126535, Note_on_c, 0, 91, 0
2, 126535, Note_on_c, 0, 70, 0
2, 126600, Note_on_c, 0, 81, 71
2, 126600, Note_on_c, 0, 89, 71
2, 126600, Note_on_c, 0, 77, 71
2, 126600, Note_on_c, 0, 72, 71
2, 126600, Note_on_c, 0, 69, 71
2, 126655, Note_on_c, 0, 69, 0
2, 126655, Note_on_c, 0, 77, 0
2, 126655, Note_on_c, 0, 81, 0
2, 126655, Note_on_c, 0, 89, 0
2, 126655, Note_on_c, 0, 72, 0
2, 126720, Note_on_c, 0, 76, 71
2, 126720, Note_on_c, 0, 67, 71
2, 126720, Note_on_c, 0, 60, 71
2, 126775, Note_on_c, 0, 60, 0
2, 126775, Note_on_c, 0, 67, 0
2, 126775, Note_on_c, 0, 76, 0
2, 126840, Note_on_c, 0, 77, 71
2, 126840, Note_on_c, 0, 67, 71
2, 126840, Note_on_c, 0, 60, 71
2, 126895, Note_on_c, 0, 60, 0
2, 126895, Note_on_c, 0, 67, 0
2, 126895, Note_on_c, 0, 77, 0
2, 126960, Note_on_c, 0, 79, 71
2, 126960, Note_on_c, 0, 70, 71
2, 126960, Note_on_c, 0, 60, 71
2, 127015, Note_on_c, 0, 60, 0
2, 127015, Note_on_c, 0, 70, 0
2, 127015, Note_on_c, 0, 79, 0
2, 127080, Note_on_c, 0, 79, 71
2, 127080, Note_on_c, 0, 70, 71
2, 127080, Note_on_c, 0, 72, 71
2, 127135, Note_on_c, 0, 72, 0
2, 127135, Note_on_c, 0, 70, 0
2, 127135, Note_on_c, 0, 79, 0
2, 127200, Note_on_c, 0, 77, 71
2, 127200, Note_on_c, 0, 69, 71
2, 127255, Note_on_c, 0, 69, 0
2, 127255, Note_on_c, 0, 77, 0
2, 127260, Note_on_c, 0, 60, 71
2, 127315, Note_on_c, 0, 60, 0
2, 127320, Note_on_c, 0, 76, 71
2, 127320, Note_on_c, 0, 67, 71
2, 127320, Note_on_c, 0, 60, 71
2, 127375, Note_on_c, 0, 60, 0
2, 127375, Note_on_c, 0, 67, 0
2, 127375, Note_on_c, 0, 76, 0
2, 127440, Note_on_c, 0, 76, 71
2, 127440, Note_on_c, 0, 67, 71
2, 127440, Note_on_c, 0, 60, 71
2, 127495, Note_on_c, 0, 60, 0
2, 127495, Note_on_c, 0, 67, 0
2, 127495, Note_on_c, 0, 76, 0
2, 127560, Note_on_c, 0, 77, 71
2, 127560, Note_on_c, 0, 69, 71
2, 127560, Note_on_c, 0, 60, 71
2, 127615, Note_on_c, 0, 60, 0
2, 127615, Note_on_c, 0, 69, 0
2, 127615, Note_on_c, 0, 77, 0
2, 127680, Note_on_c, 0, 76, 71
2, 127680, Note_on_c, 0, 67, 71
2, 127680, Note_on_c, 0, 60, 71
2, 127735, Note_on_c, 0, 60, 0
2, 127735, Note_on_c, 0, 67, 0
2, 127735, Note_on_c, 0, 76, 0
2, 127800, Note_on_c, 0, 77, 71
2, 127800, Note_on_c, 0, 86, 71
2, 127800, Note_on_c, 0, 74, 71
2, 127800, Note_on_c, 0, 65, 71
2, 127800, Note_on_c, 0, 69, 71
2, 127800, Note_on_c, 0, 62, 71
2, 127855, Note_on_c, 0, 62, 0
2, 127855, Note_on_c, 0, 86, 0
2, 127855, Note_on_c, 0, 74, 0
2, 127855, Note_on_c, 0, 77, 0
2, 127855, Note_on_c, 0, 69, 0
2, 127855, Note_on_c, 0, 65, 0
2, 127920, Note_on_c, 0, 79, 71
2, 127920, Note_on_c, 0, 88, 71
2, 127920, Note_on_c, 0, 76, 71
2, 127920, Note_on_c, 0, 67, 71
2, 127920, Note_on_c, 0, 64, 71
2, 127975, Note_on_c, 0, 64, 0
2, 127975, Note_on_c, 0, 76, 0
2, 127975, Note_on_c, 0, 79, 0
2, 127975, Note_on_c, 0, 88, 0
2, 127975, Note_on_c, 0, 67, 0
2, 128040, Note_on_c, 0, 81, 71
2, 128040, Note_on_c, 0, 89, 71
2, 128040, Note_on_c, 0, 77, 71
2, 128040, Note_on_c, 0, 65, 71
2, 128040, Note_on_c, 0, 62, 71
2, 128095, Note_on_c, 0, 62, 0
2, 128095, Note_on_c, 0, 77, 0
2, 128095, Note_on_c, 0, 81, 0
2, 128095, Note_on_c, 0, 89, 0
2, 128095, Note_on_c, 0, 65, 0
2, 128160, Note_on_c, 0, 81, 71
2, 128160, Note_on_c, 0, 89, 71
2, 128160, Note_on_c, 0, 77, 71
2, 128160, Note_on_c, 0, 62, 71
2, 128215, Note_on_c, 0, 62, 0
2, 128215, Note_on_c, 0, 81, 0
2, 128215, Note_on_c, 0, 89, 0
2, 128215, Note_on_c, 0, 77, 0
2, 128280, Note_on_c, 0, 79, 71
2, 128280, Note_on_c, 0, 88, 71
2, 128280, Note_on_c, 0, 76, 71
2, 128335, Note_on_c, 0, 76, 0
2, 128335, Note_on_c, 0, 88, 0
2, 128335, Note_on_c, 0, 79, 0
2, 128340, Note_on_c, 0, 50, 71
2, 128395, Note_on_c, 0, 50, 0
2, 128400, Note_on_c, 0, 77, 71
2, 128400, Note_on_c, 0, 86, 71
2, 128400, Note_on_c, 0, 74, 71
2, 128400, Note_on_c, 0, 50, 71
2, 128455, Note_on_c, 0, 50, 0
2, 128455, Note_on_c, 0, 77, 0
2, 128455, Note_on_c, 0, 86, 0
2, 128455, Note_on_c, 0, 74, 0
2, 128520, Note_on_c, 0, 77, 51
2, 128520, Note_on_c, 0, 86, 51
2, 128520, Note_on_c, 0, 74, 51
2, 128520, Note_on_c, 0, 65, 51
2, 128520, Note_on_c, 0, 69, 51
2, 128520, Note_on_c, 0, 62, 51
2, 128575, Note_on_c, 0, 62, 0
2, 128575, Note_on_c, 0, 86, 0
2, 128575, Note_on_c, 0, 74, 0
2, 128575, Note_on_c, 0, 77, 0
2, 128575, Note_on_c, 0, 69, 0
2, 128575, Note_on_c, 0, 65, 0
2, 128640, Note_on_c, 0, 79, 46
2, 128640, Note_on_c, 0, 88, 46
2, 128640, Note_on_c, 0, 76, 46
2, 128640, Note_on_c, 0, 67, 46
2, 128640, Note_on_c, 0, 64, 46
2, 128695, Note_on_c, 0, 64, 0
2, 128695, Note_on_c, 0, 76, 0
2, 128695, Note_on_c, 0, 79, 0
2, 128695, Note_on_c, 0, 88, 0
2, 128695, Note_on_c, 0, 67, 0
2, 128760, Note_on_c, 0, 77, 41
2, 128760, Note_on_c, 0, 86, 41
2, 128760, Note_on_c, 0, 74, 41
2, 128760, Note_on_c, 0, 69, 41
2, 128760, Note_on_c, 0, 65, 41
2, 128815, Note_on_c, 0, 65, 0
2, 128815, Note_on_c, 0, 74, 0
2, 128815, Note_on_c, 0, 77, 0
2, 128815, Note_on_c, 0, 86, 0
2, 128815, Note_on_c, 0, 69, 0
2, 128880, Note_on_c, 0, 73, 37
2, 128880, Note_on_c, 0, 64, 37
2, 128880, Note_on_c, 0, 57, 37
2, 128935, Note_on_c, 0, 57, 0
2, 128935, Note_on_c, 0, 64, 0
2, 128935, Note_on_c, 0, 73, 0
2, 129000, Note_on_c, 0, 74, 32
2, 129000, Note_on_c, 0, 65, 32
2, 129000, Note_on_c, 0, 57, 32
2, 129055, Note_on_c, 0, 57, 0
2, 129055, Note_on_c, 0, 65, 0
2, 129055, Note_on_c, 0, 74, 0
2, 129120, Note_on_c, 0, 76, 28
2, 129120, Note_on_c, 0, 67, 28
2, 129120, Note_on_c, 0, 57, 28
2, 129175, Note_on_c, 0, 57, 0
2, 129175, Note_on_c, 0, 67, 0
2, 129175, Note_on_c, 0, 76, 0
2, 129240, Note_on_c, 0, 76, 23
2, 129240, Note_on_c, 0, 67, 23
2, 129240, Note_on_c, 0, 57, 21
2, 129295, Note_on_c, 0, 57, 0
2, 129295, Note_on_c, 0, 67, 0
2, 129295, Note_on_c, 0, 76, 0
2, 129360, Note_on_c, 0, 74, 18
2, 129360, Note_on_c, 0, 65, 18
2, 129415, Note_on_c, 0, 65, 0
2, 129415, Note_on_c, 0, 74, 0
2, 129420, Note_on_c, 0, 45, 16
2, 129475, Note_on_c, 0, 45, 0
2, 129480, Note_on_c, 0, 73, 14
2, 129480, Note_on_c, 0, 64, 14
2, 129480, Note_on_c, 0, 45, 12
2, 129535, Note_on_c, 0, 45, 0
2, 129535, Note_on_c, 0, 64, 0
2, 129535, Note_on_c, 0, 73, 0
2, 129600, Note_on_c, 0, 73, 9
2, 129600, Note_on_c, 0, 64, 9
2, 129600, Note_on_c, 0, 57, 9
2, 129600, Note_on_c, 0, 55, 9
2, 129655, Note_on_c, 0, 55, 0
2, 129655, Note_on_c, 0, 73, 0
2, 129655, Note_on_c, 0, 64, 0
2, 129655, Note_on_c, 0, 57, 0
2, 129720, Note_on_c, 0, 74, 5
2, 129720, Note_on_c, 0, 65, 5
2, 129720, Note_on_c, 0, 57, 5
2, 129720, Note_on_c, 0, 53, 5
2, 129775, Note_on_c, 0, 53, 0
2, 129775, Note_on_c, 0, 74, 0
2, 129775, Note_on_c, 0, 65, 0
2, 129775, Note_on_c, 0, 57, 0
2, 129840, Note_on_c, 0, 73, 1
2, 129840, Note_on_c, 0, 64, 1
2, 129840, Note_on_c, 0, 57, 1
2, 129840, Note_on_c, 0, 55, 1
2, 129895, Note_on_c, 0, 55, 0
2, 129895, Note_on_c, 0, 73, 0
2, 129895, Note_on_c, 0, 64, 0
2, 129895, Note_on_c, 0, 57, 0
2, 129960, Note_on_c, 0, 77, 21
2, 129960, Note_on_c, 0, 86, 21
2, 129960, Note_on_c, 0, 74, 21
2, 129960, Note_on_c, 0, 57, 21
2, 129960, Note_on_c, 0, 53, 21
2, 130015, Note_on_c, 0, 53, 0
2, 130015, Note_on_c, 0, 74, 0
2, 130015, Note_on_c, 0, 77, 0
2, 130015, Note_on_c, 0, 86, 0
2, 130015, Note_on_c, 0, 57, 0
2, 130080, Note_on_c, 0, 79, 21
2, 130080, Note_on_c, 0, 88, 21
2, 130080, Note_on_c, 0, 76, 21
2, 130080, Note_on_c, 0, 55, 21
2, 130080, Note_on_c, 0, 52, 21
2, 130135, Note_on_c, 0, 52, 0
2, 130135, Note_on_c, 0, 76, 0
2, 130135, Note_on_c, 0, 79, 0
2, 130135, Note_on_c, 0, 88, 0
2, 130135, Note_on_c, 0, 55, 0
2, 130200, Note_on_c, 0, 81, 21
2, 130200, Note_on_c, 0, 89, 21
2, 130200, Note_on_c, 0, 77, 21
2, 130200, Note_on_c, 0, 53, 21
2, 130200, Note_on_c, 0, 50, 21
2, 130255, Note_on_c, 0, 50, 0
2, 130255, Note_on_c, 0, 77, 0
2, 130255, Note_on_c, 0, 81, 0
2, 130255, Note_on_c, 0, 89, 0
2, 130255, Note_on_c, 0, 53, 0
2, 130320, Note_on_c, 0, 81, 21
2, 130320, Note_on_c, 0, 89, 21
2, 130320, Note_on_c, 0, 77, 21
2, 130320, Note_on_c, 0, 69, 21
2, 130375, Note_on_c, 0, 69, 0
2, 130375, Note_on_c, 0, 81, 0
2, 130375, Note_on_c, 0, 89, 0
2, 130375, Note_on_c, 0, 77, 0
2, 130440, Note_on_c, 0, 79, 21
2, 130440, Note_on_c, 0, 88, 21
2, 130440, Note_on_c, 0, 76, 21
2, 130495, Note_on_c, 0, 76, 0
2, 130495, Note_on_c, 0, 88, 0
2, 130495, Note_on_c, 0, 79, 0
2, 130500, Note_on_c, 0, 57, 21
2, 130555, Note_on_c, 0, 57, 0
2, 130560, Note_on_c, 0, 77, 21
2, 130560, Note_on_c, 0, 86, 21
2, 130560, Note_on_c, 0, 74, 21
2, 130560, Note_on_c, 0, 57, 21
2, 130615, Note_on_c, 0, 57, 0
2, 130615, Note_on_c, 0, 77, 0
2, 130615, Note_on_c, 0, 86, 0
2, 130615, Note_on_c, 0, 74, 0
2, 130680, Note_on_c, 0, 77, 21
2, 130680, Note_on_c, 0, 86, 21
2, 130680, Note_on_c, 0, 74, 21
2, 130680, Note_on_c, 0, 57, 21
2, 130680, Note_on_c, 0, 53, 21
2, 130735, Note_on_c, 0, 53, 0
2, 130735, Note_on_c, 0, 74, 0
2, 130735, Note_on_c, 0, 77, 0
2, 130735, Note_on_c, 0, 86, 0
2, 130735, Note_on_c, 0, 57, 0
2, 130800, Note_on_c, 0, 79, 21
2, 130800, Note_on_c, 0, 88, 21
2, 130800, Note_on_c, 0, 76, 21
2, 130800, Note_on_c, 0, 57, 21
2, 130800, Note_on_c, 0, 52, 21
2, 130855, Note_on_c, 0, 52, 0
2, 130855, Note_on_c, 0, 76, 0
2, 130855, Note_on_c, 0, 79, 0
2, 130855, Note_on_c, 0, 88, 0
2, 130855, Note_on_c, 0, 57, 0
2, 130920, Note_on_c, 0, 77, 21
2, 130920, Note_on_c, 0, 86, 21
2, 130920, Note_on_c, 0, 74, 21
2, 130920, Note_on_c, 0, 57, 21
2, 130920, Note_on_c, 0, 53, 21
2, 130975, Note_on_c, 0, 53, 0
2, 130975, Note_on_c, 0, 74, 0
2, 130975, Note_on_c, 0, 77, 0
2, 130975, Note_on_c, 0, 86, 0
2, 130975, Note_on_c, 0, 57, 0
2, 131040, Note_on_c, 0, 73, 21
2, 131040, Note_on_c, 0, 64, 21
2, 131040, Note_on_c, 0, 57, 21
2, 131040, Note_on_c, 0, 55, 21
2, 131095, Note_on_c, 0, 55, 0
2, 131095, Note_on_c, 0, 73, 0
2, 131095, Note_on_c, 0, 64, 0
2, 131095, Note_on_c, 0, 57, 0
2, 131160, Note_on_c, 0, 74, 21
2, 131160, Note_on_c, 0, 65, 21
2, 131160, Note_on_c, 0, 57, 21
2, 131160, Note_on_c, 0, 53, 21
2, 131215, Note_on_c, 0, 53, 0
2, 131215, Note_on_c, 0, 74, 0
2, 131215, Note_on_c, 0, 65, 0
2, 131215, Note_on_c, 0, 57, 0
2, 131280, Note_on_c, 0, 76, 21
2, 131280, Note_on_c, 0, 67, 21
2, 131280, Note_on_c, 0, 57, 21
2, 131280, Note_on_c, 0, 52, 21
2, 131335, Note_on_c, 0, 52, 0
2, 131335, Note_on_c, 0, 76, 0
2, 131335, Note_on_c, 0, 67, 0
2, 131335, Note_on_c, 0, 57, 0
2, 131400, Note_on_c, 0, 76, 21
2, 131400, Note_on_c, 0, 67, 21
2, 131400, Note_on_c, 0, 57, 21
2, 131455, Note_on_c, 0, 57, 0
2, 131455, Note_on_c, 0, 67, 0
2, 131455, Note_on_c, 0, 76, 0
2, 131520, Note_on_c, 0, 74, 21
2, 131520, Note_on_c, 0, 65, 21
2, 131575, Note_on_c, 0, 65, 0
2, 131575, Note_on_c, 0, 74, 0
2, 131580, Note_on_c, 0, 45, 21
2, 131635, Note_on_c, 0, 45, 0
2, 131640, Note_on_c, 0, 73, 21
2, 131640, Note_on_c, 0, 64, 21
2, 131640, Note_on_c, 0, 45, 21
2, 131695, Note_on_c, 0, 45, 0
2, 131695, Note_on_c, 0, 64, 0
2, 131695, Note_on_c, 0, 73, 0
2, 131760, Note_on_c, 0, 55, 21
2, 131760, Note_on_c, 0, 57, 21
2, 131760, Note_on_c, 0, 64, 21
2, 131760, Note_on_c, 0, 73, 21
2, 131815, Note_on_c, 0, 73, 0
2, 131815, Note_on_c, 0, 55, 0
2, 131815, Note_on_c, 0, 57, 0
2, 131815, Note_on_c, 0, 64, 0
2, 131880, Note_on_c, 0, 53, 21
2, 131880, Note_on_c, 0, 57, 21
2, 131880, Note_on_c, 0, 65, 21
2, 131880, Note_on_c, 0, 74, 21
2, 131935, Note_on_c, 0, 74, 0
2, 131935, Note_on_c, 0, 53, 0
2, 131935, Note_on_c, 0, 57, 0
2, 131935, Note_on_c, 0, 65, 0
2, 132000, Note_on_c, 0, 55, 21
2, 132000, Note_on_c, 0, 57, 21
2, 132000, Note_on_c, 0, 64, 21
2, 132000, Note_on_c, 0, 73, 21
2, 132055, Note_on_c, 0, 73, 0
2, 132055, Note_on_c, 0, 55, 0
2, 132055, Note_on_c, 0, 57, 0
2, 132055, Note_on_c, 0, 64, 0
2, 132120, Note_on_c, 0, 81, 21
2, 132120, Note_on_c, 0, 69, 21
2, 132120, Note_on_c, 0, 61, 21
2, 132120, Note_on_c, 0, 55, 21
2, 132175, Note_on_c, 0, 55, 0
2, 132175, Note_on_c, 0, 81, 0
2, 132175, Note_on_c, 0, 69, 0
2, 132175, Note_on_c, 0, 61, 0
2, 132240, Note_on_c, 0, 62, 21
2, 132240, Note_on_c, 0, 53, 21
2, 132295, Note_on_c, 0, 53, 0
2, 132295, Note_on_c, 0, 62, 0
2, 132300, Note_on_c, 0, 69, 21
2, 132355, Note_on_c, 0, 69, 0
2, 132360, Note_on_c, 0, 69, 21
2, 132360, Note_on_c, 0, 64, 21
2, 132360, Note_on_c, 0, 52, 21
2, 132415, Note_on_c, 0, 52, 0
2, 132415, Note_on_c, 0, 64, 0
2, 132415, Note_on_c, 0, 69, 0
2, 132480, Note_on_c, 0, 69, 21
2, 132480, Note_on_c, 0, 74, 21
2, 132480, Note_on_c, 0, 65, 21
2, 132480, Note_on_c, 0, 57, 21
2, 132480, Note_on_c, 0, 50, 21
2, 132535, Note_on_c, 0, 50, 0
2, 132535, Note_on_c, 0, 65, 0
2, 132535, Note_on_c, 0, 69, 0
2, 132535, Note_on_c, 0, 74, 0
2, 132535, Note_on_c, 0, 57, 0
2, 132600, Note_on_c, 0, 73, 21
2, 132600, Note_on_c, 0, 76, 21
2, 132600, Note_on_c, 0, 64, 21
2, 132600, Note_on_c, 0, 57, 21
2, 132655, Note_on_c, 0, 57, 0
2, 132655, Note_on_c, 0, 73, 0
2, 132655, Note_on_c, 0, 76, 0
2, 132655, Note_on_c, 0, 64, 0
2, 132720, Note_on_c, 0, 74, 21
2, 132720, Note_on_c, 0, 77, 21
2, 132720, Note_on_c, 0, 65, 21
2, 132720, Note_on_c, 0, 57, 21
2, 132775, Note_on_c, 0, 57, 0
2, 132775, Note_on_c, 0, 74, 0
2, 132775, Note_on_c, 0, 77, 0
2, 132775, Note_on_c, 0, 65, 0
2, 132840, Note_on_c, 0, 73, 21
2, 132840, Note_on_c, 0, 76, 21
2, 132840, Note_on_c, 0, 64, 21
2, 132840, Note_on_c, 0, 57, 21
2, 132840, Note_on_c, 0, 45, 21
2, 132895, Note_on_c, 0, 45, 0
2, 132895, Note_on_c, 0, 64, 0
2, 132895, Note_on_c, 0, 73, 0
2, 132895, Note_on_c, 0, 76, 0
2, 132895, Note_on_c, 0, 57, 0
2, 132960, Note_on_c, 0, 74, 21
2, 132960, Note_on_c, 0, 77, 21
2, 132960, Note_on_c, 0, 65, 21
2, 132960, Note_on_c, 0, 57, 21
2, 133015, Note_on_c, 0, 57, 0
2, 133015, Note_on_c, 0, 74, 0
2, 133015, Note_on_c, 0, 77, 0
2, 133015, Note_on_c, 0, 65, 0
2, 133080, Note_on_c, 0, 76, 21
2, 133080, Note_on_c, 0, 79, 21
2, 133080, Note_on_c, 0, 67, 21
2, 133080, Note_on_c, 0, 57, 21
2, 133135, Note_on_c, 0, 57, 0
2, 133135, Note_on_c, 0, 76, 0
2, 133135, Note_on_c, 0, 79, 0
2, 133135, Note_on_c, 0, 67, 0
2, 133200, Note_on_c, 0, 74, 21
2, 133200, Note_on_c, 0, 77, 21
2, 133200, Note_on_c, 0, 65, 21
2, 133200, Note_on_c, 0, 57, 21
2, 133255, Note_on_c, 0, 57, 0
2, 133255, Note_on_c, 0, 74, 0
2, 133255, Note_on_c, 0, 77, 0
2, 133255, Note_on_c, 0, 65, 0
2, 133320, Note_on_c, 0, 77, 21
2, 133320, Note_on_c, 0, 81, 21
2, 133320, Note_on_c, 0, 69, 21
2, 133375, Note_on_c, 0, 69, 0
2, 133375, Note_on_c, 0, 81, 0
2, 133375, Note_on_c, 0, 77, 0
2, 133380, Note_on_c, 0, 45, 21
2, 133435, Note_on_c, 0, 45, 0
2, 133440, Note_on_c, 0, 77, 21
2, 133440, Note_on_c, 0, 81, 21
2, 133440, Note_on_c, 0, 69, 21
2, 133440, Note_on_c, 0, 45, 21
2, 133495, Note_on_c, 0, 45, 0
2, 133495, Note_on_c, 0, 77, 0
2, 133495, Note_on_c, 0, 81, 0
2, 133495, Note_on_c, 0, 69, 0
2, 133560, Note_on_c, 0, 77, 21
2, 133560, Note_on_c, 0, 81, 21
2, 133560, Note_on_c, 0, 69, 21
2, 133560, Note_on_c, 0, 53, 21
2, 133560, Note_on_c, 0, 50, 21
2, 133615, Note_on_c, 0, 50, 0
2, 133615, Note_on_c, 0, 69, 0
2, 133615, Note_on_c, 0, 77, 0
2, 133615, Note_on_c, 0, 81, 0
2, 133615, Note_on_c, 0, 53, 0
2, 133680, Note_on_c, 0, 79, 21
2, 133680, Note_on_c, 0, 81, 21
2, 133680, Note_on_c, 0, 76, 21
2, 133680, Note_on_c, 0, 55, 21
2, 133680, Note_on_c, 0, 52, 21
2, 133735, Note_on_c, 0, 52, 0
2, 133735, Note_on_c, 0, 76, 0
2, 133735, Note_on_c, 0, 79, 0
2, 133735, Note_on_c, 0, 81, 0
2, 133735, Note_on_c, 0, 55, 0
2, 133800, Note_on_c, 0, 77, 21
2, 133800, Note_on_c, 0, 81, 21
2, 133800, Note_on_c, 0, 74, 21
2, 133800, Note_on_c, 0, 57, 21
2, 133800, Note_on_c, 0, 53, 21
2, 133855, Note_on_c, 0, 53, 0
2, 133855, Note_on_c, 0, 74, 0
2, 133855, Note_on_c, 0, 77, 0
2, 133855, Note_on_c, 0, 81, 0
2, 133855, Note_on_c, 0, 57, 0
2, 133920, Note_on_c, 0, 79, 21
2, 133920, Note_on_c, 0, 81, 21
2, 133920, Note_on_c, 0, 76, 21
2, 133920, Note_on_c, 0, 55, 21
2, 133920, Note_on_c, 0, 52, 21
2, 133975, Note_on_c, 0, 52, 0
2, 133975, Note_on_c, 0, 76, 0
2, 133975, Note_on_c, 0, 79, 0
2, 133975, Note_on_c, 0, 81, 0
2, 133975, Note_on_c, 0, 55, 0
2, 134040, Note_on_c, 0, 77, 21
2, 134040, Note_on_c, 0, 81, 21
2, 134040, Note_on_c, 0, 74, 21
2, 134040, Note_on_c, 0, 57, 21
2, 134040, Note_on_c, 0, 53, 21
2, 134095, Note_on_c, 0, 53, 0
2, 134095, Note_on_c, 0, 74, 0
2, 134095, Note_on_c, 0, 77, 0
2, 134095, Note_on_c, 0, 81, 0
2, 134095, Note_on_c, 0, 57, 0
2, 134160, Note_on_c, 0, 76, 21
2, 134160, Note_on_c, 0, 81, 21
2, 134160, Note_on_c, 0, 73, 21
2, 134160, Note_on_c, 0, 57, 21
2, 134160, Note_on_c, 0, 55, 21
2, 134215, Note_on_c, 0, 55, 0
2, 134215, Note_on_c, 0, 73, 0
2, 134215, Note_on_c, 0, 76, 0
2, 134215, Note_on_c, 0, 81, 0
2, 134215, Note_on_c, 0, 57, 0
2, 134280, Note_on_c, 0, 93, 21
2, 134280, Note_on_c, 0, 81, 21
2, 134280, Note_on_c, 0, 62, 21
2, 134280, Note_on_c, 0, 53, 21
2, 134335, Note_on_c, 0, 53, 0
2, 134335, Note_on_c, 0, 93, 0
2, 134335, Note_on_c, 0, 81, 0
2, 134335, Note_on_c, 0, 62, 0
2, 134400, Note_on_c, 0, 65, 21
2, 134400, Note_on_c, 0, 69, 21
2, 134400, Note_on_c, 0, 57, 21
2, 134455, Note_on_c, 0, 57, 0
2, 134455, Note_on_c, 0, 69, 0
2, 134455, Note_on_c, 0, 65, 0
2, 134460, Note_on_c, 0, 81, 21
2, 134515, Note_on_c, 0, 81, 0
2, 134520, Note_on_c, 0, 81, 21
2, 134520, Note_on_c, 0, 65, 21
2, 134520, Note_on_c, 0, 69, 21
2, 134520, Note_on_c, 0, 57, 21
2, 134575, Note_on_c, 0, 57, 0
2, 134575, Note_on_c, 0, 81, 0
2, 134575, Note_on_c, 0, 65, 0
2, 134575, Note_on_c, 0, 69, 0
2, 134640, Note_on_c, 0, 86, 21
2, 134640, Note_on_c, 0, 74, 21
2, 134640, Note_on_c, 0, 65, 21
2, 134640, Note_on_c, 0, 69, 21
2, 134640, Note_on_c, 0, 57, 21
2, 134695, Note_on_c, 0, 57, 0
2, 134695, Note_on_c, 0, 65, 0
2, 134695, Note_on_c, 0, 86, 0
2, 134695, Note_on_c, 0, 74, 0
2, 134695, Note_on_c, 0, 69, 0
2, 134760, Note_on_c, 0, 85, 21
2, 134760, Note_on_c, 0, 88, 21
2, 134760, Note_on_c, 0, 76, 21
2, 134760, Note_on_c, 0, 67, 21
2, 134760, Note_on_c, 0, 64, 21
2, 134815, Note_on_c, 0, 64, 0
2, 134815, Note_on_c, 0, 76, 0
2, 134815, Note_on_c, 0, 85, 0
2, 134815, Note_on_c, 0, 88, 0
2, 134815, Note_on_c, 0, 67, 0
2, 134880, Note_on_c, 0, 86, 21
2, 134880, Note_on_c, 0, 89, 21
2, 134880, Note_on_c, 0, 77, 21
2, 134880, Note_on_c, 0, 65, 21
2, 134880, Note_on_c, 0, 62, 21
2, 134935, Note_on_c, 0, 62, 0
2, 134935, Note_on_c, 0, 77, 0
2, 134935, Note_on_c, 0, 86, 0
2, 134935, Note_on_c, 0, 89, 0
2, 134935, Note_on_c, 0, 65, 0
2, 135000, Note_on_c, 0, 85, 21
2, 135000, Note_on_c, 0, 88, 21
2, 135000, Note_on_c, 0, 76, 21
2, 135000, Note_on_c, 0, 64, 21
2, 135000, Note_on_c, 0, 67, 21
2, 135000, Note_on_c, 0, 57, 21
2, 135055, Note_on_c, 0, 57, 0
2, 135055, Note_on_c, 0, 88, 0
2, 135055, Note_on_c, 0, 76, 0
2, 135055, Note_on_c, 0, 85, 0
2, 135055, Note_on_c, 0, 67, 0
2, 135055, Note_on_c, 0, 64, 0
2, 135120, Note_on_c, 0, 86, 21
2, 135120, Note_on_c, 0, 89, 21
2, 135120, Note_on_c, 0, 77, 21
2, 135120, Note_on_c, 0, 65, 21
2, 135120, Note_on_c, 0, 62, 21
2, 135175, Note_on_c, 0, 62, 0
2, 135175, Note_on_c, 0, 77, 0
2, 135175, Note_on_c, 0, 86, 0
2, 135175, Note_on_c, 0, 89, 0
2, 135175, Note_on_c, 0, 65, 0
2, 135240, Note_on_c, 0, 88, 21
2, 135240, Note_on_c, 0, 91, 21
2, 135240, Note_on_c, 0, 79, 21
2, 135240, Note_on_c, 0, 64, 21
2, 135240, Note_on_c, 0, 61, 21
2, 135295, Note_on_c, 0, 61, 0
2, 135295, Note_on_c, 0, 79, 0
2, 135295, Note_on_c, 0, 88, 0
2, 135295, Note_on_c, 0, 91, 0
2, 135295, Note_on_c, 0, 64, 0
2, 135360, Note_on_c, 0, 86, 21
2, 135360, Note_on_c, 0, 89, 21
2, 135360, Note_on_c, 0, 77, 21
2, 135360, Note_on_c, 0, 62, 21
2, 135360, Note_on_c, 0, 65, 21
2, 135360, Note_on_c, 0, 57, 21
2, 135415, Note_on_c, 0, 57, 0
2, 135415, Note_on_c, 0, 89, 0
2, 135415, Note_on_c, 0, 77, 0
2, 135415, Note_on_c, 0, 86, 0
2, 135415, Note_on_c, 0, 65, 0
2, 135415, Note_on_c, 0, 62, 0
2, 135480, Note_on_c, 0, 81, 21
2, 135480, Note_on_c, 0, 77, 21
2, 135535, Note_on_c, 0, 77, 0
2, 135535, Note_on_c, 0, 81, 0
2, 135540, Note_on_c, 0, 45, 21
2, 135595, Note_on_c, 0, 45, 0
2, 135600, Note_on_c, 0, 81, 21
2, 135600, Note_on_c, 0, 77, 21
2, 135600, Note_on_c, 0, 45, 21
2, 135655, Note_on_c, 0, 45, 0
2, 135655, Note_on_c, 0, 77, 0
2, 135655, Note_on_c, 0, 81, 0
2, 135720, Note_on_c, 0, 69, 21
2, 135720, Note_on_c, 0, 53, 21
2, 135720, Note_on_c, 0, 50, 21
2, 135775, Note_on_c, 0, 50, 0
2, 135775, Note_on_c, 0, 53, 0
2, 135775, Note_on_c, 0, 69, 0
2, 135840, Note_on_c, 0, 55, 21
2, 135840, Note_on_c, 0, 52, 21
2, 135895, Note_on_c, 0, 52, 0
2, 135895, Note_on_c, 0, 55, 0
2, 135900, Note_on_c, 0, 57, 21
2, 135955, Note_on_c, 0, 57, 0
2, 135960, Note_on_c, 0, 57, 21
2, 135960, Note_on_c, 0, 53, 21
2, 136015, Note_on_c, 0, 53, 0
2, 136015, Note_on_c, 0, 57, 0
2, 136080, Note_on_c, 0, 69, 21
2, 136080, Note_on_c, 0, 61, 21
2, 136080, Note_on_c, 0, 52, 21
2, 136135, Note_on_c, 0, 52, 0
2, 136135, Note_on_c, 0, 61, 0
2, 136135, Note_on_c, 0, 69, 0
2, 136200, Note_on_c, 0, 62, 21
2, 136200, Note_on_c, 0, 53, 21
2, 136255, Note_on_c, 0, 53, 0
2, 136255, Note_on_c, 0, 62, 0
2, 136260, Note_on_c, 0, 57, 21
2, 136315, Note_on_c, 0, 57, 0
2, 136320, Note_on_c, 0, 57, 21
2, 136320, Note_on_c, 0, 64, 21
2, 136320, Note_on_c, 0, 55, 21
2, 136375, Note_on_c, 0, 55, 0
2, 136375, Note_on_c, 0, 64, 0
2, 136375, Note_on_c, 0, 57, 0
2, 136440, Note_on_c, 0, 81, 21
2, 136440, Note_on_c, 0, 62, 21
2, 136440, Note_on_c, 0, 53, 21
2, 136495, Note_on_c, 0, 53, 0
2, 136495, Note_on_c, 0, 62, 0
2, 136495, Note_on_c, 0, 81, 0
2, 136560, Note_on_c, 0, 61, 21
2, 136560, Note_on_c, 0, 52, 21
2, 136615, Note_on_c, 0, 52, 0
2, 136615, Note_on_c, 0, 61, 0
2, 136620, Note_on_c, 0, 69, 21
2, 136675, Note_on_c, 0, 69, 0
2, 136680, Note_on_c, 0, 69, 21
2, 136680, Note_on_c, 0, 62, 21
2, 136680, Note_on_c, 0, 53, 21
2, 136735, Note_on_c, 0, 53, 0
2, 136735, Note_on_c, 0, 62, 0
2, 136735, Note_on_c, 0, 69, 0
2, 136800, Note_on_c, 0, 79, 21
2, 136800, Note_on_c, 0, 50, 21
2, 136800, Note_on_c, 0, 47, 21
2, 136855, Note_on_c, 0, 47, 0
2, 136855, Note_on_c, 0, 50, 0
2, 136855, Note_on_c, 0, 79, 0
2, 136920, Note_on_c, 0, 51, 21
2, 136920, Note_on_c, 0, 48, 21
2, 136975, Note_on_c, 0, 48, 0
2, 136975, Note_on_c, 0, 51, 0
2, 136980, Note_on_c, 0, 67, 21
2, 137035, Note_on_c, 0, 67, 0
2, 137040, Note_on_c, 0, 67, 21
2, 137040, Note_on_c, 0, 53, 21
2, 137040, Note_on_c, 0, 50, 21
2, 137095, Note_on_c, 0, 50, 0
2, 137095, Note_on_c, 0, 53, 0
2, 137095, Note_on_c, 0, 67, 0
2, 137160, Note_on_c, 0, 67, 21
2, 137160, Note_on_c, 0, 60, 21
2, 137160, Note_on_c, 0, 51, 21
2, 137215, Note_on_c, 0, 51, 0
2, 137215, Note_on_c, 0, 60, 0
2, 137215, Note_on_c, 0, 67, 0
2, 137280, Note_on_c, 0, 59, 21
2, 137280, Note_on_c, 0, 50, 21
2, 137335, Note_on_c, 0, 50, 0
2, 137335, Note_on_c, 0, 59, 0
2, 137340, Note_on_c, 0, 55, 21
2, 137395, Note_on_c, 0, 55, 0
2, 137400, Note_on_c, 0, 55, 21
2, 137400, Note_on_c, 0, 60, 21
2, 137400, Note_on_c, 0, 51, 21
2, 137455, Note_on_c, 0, 51, 0
2, 137455, Note_on_c, 0, 60, 0
2, 137455, Note_on_c, 0, 55, 0
2, 137520, Note_on_c, 0, 67, 21
2, 137520, Note_on_c, 0, 62, 21
2, 137520, Note_on_c, 0, 59, 21
2, 137575, Note_on_c, 0, 59, 0
2, 137575, Note_on_c, 0, 62, 0
2, 137575, Note_on_c, 0, 67, 0
2, 137640, Note_on_c, 0, 63, 21
2, 137640, Note_on_c, 0, 60, 21
2, 137695, Note_on_c, 0, 60, 0
2, 137695, Note_on_c, 0, 63, 0
2, 137700, Note_on_c, 0, 55, 21
2, 137755, Note_on_c, 0, 55, 0
2, 137760, Note_on_c, 0, 55, 21
2, 137760, Note_on_c, 0, 65, 21
2, 137760, Note_on_c, 0, 62, 21
2, 137815, Note_on_c, 0, 62, 0
2, 137815, Note_on_c, 0, 65, 0
2, 137815, Note_on_c, 0, 55, 0
2, 137880, Note_on_c, 0, 79, 21
2, 137880, Note_on_c, 0, 63, 21
2, 137880, Note_on_c, 0, 60, 21
2, 137935, Note_on_c, 0, 60, 0
2, 137935, Note_on_c, 0, 63, 0
2, 137935, Note_on_c, 0, 79, 0
2, 138000, Note_on_c, 0, 62, 21
2, 138000, Note_on_c, 0, 59, 21
2, 138055, Note_on_c, 0, 59, 0
2, 138055, Note_on_c, 0, 62, 0
2, 138060, Note_on_c, 0, 67, 21
2, 138115, Note_on_c, 0, 67, 0
2, 138120, Note_on_c, 0, 67, 21
2, 138120, Note_on_c, 0, 63, 21
2, 138120, Note_on_c, 0, 60, 21
2, 138175, Note_on_c, 0, 60, 0
2, 138175, Note_on_c, 0, 63, 0
2, 138175, Note_on_c, 0, 67, 0
2, 138240, Note_on_c, 0, 68, 21
2, 138240, Note_on_c, 0, 74, 21
2, 138240, Note_on_c, 0, 65, 21
2, 138240, Note_on_c, 0, 58, 21
2, 138295, Note_on_c, 0, 58, 0
2, 138295, Note_on_c, 0, 68, 0
2, 138295, Note_on_c, 0, 74, 0
2, 138295, Note_on_c, 0, 65, 0
2, 138360, Note_on_c, 0, 75, 21
2, 138360, Note_on_c, 0, 67, 21
2, 138415, Note_on_c, 0, 67, 0
2, 138415, Note_on_c, 0, 75, 0
2, 138420, Note_on_c, 0, 46, 21
2, 138475, Note_on_c, 0, 46, 0
2, 138480, Note_on_c, 0, 77, 21
2, 138480, Note_on_c, 0, 69, 21
2, 138480, Note_on_c, 0, 46, 21
2, 138535, Note_on_c, 0, 46, 0
2, 138535, Note_on_c, 0, 69, 0
2, 138535, Note_on_c, 0, 77, 0
2, 138600, Note_on_c, 0, 75, 21
2, 138600, Note_on_c, 0, 67, 21
2, 138600, Note_on_c, 0, 46, 21
2, 138655, Note_on_c, 0, 46, 0
2, 138655, Note_on_c, 0, 67, 0
2, 138655, Note_on_c, 0, 75, 0
2, 138720, Note_on_c, 0, 74, 21
2, 138720, Note_on_c, 0, 65, 21
2, 138775, Note_on_c, 0, 65, 0
2, 138775, Note_on_c, 0, 74, 0
2, 138780, Note_on_c, 0, 34, 21
2, 138835, Note_on_c, 0, 34, 0
2, 138840, Note_on_c, 0, 75, 21
2, 138840, Note_on_c, 0, 67, 21
2, 138840, Note_on_c, 0, 34, 21
2, 138895, Note_on_c, 0, 34, 0
2, 138895, Note_on_c, 0, 67, 0
2, 138895, Note_on_c, 0, 75, 0
2, 138960, Note_on_c, 0, 68, 21
2, 138960, Note_on_c, 0, 74, 21
2, 138960, Note_on_c, 0, 65, 21
2, 138960, Note_on_c, 0, 58, 21
2, 139015, Note_on_c, 0, 58, 0
2, 139015, Note_on_c, 0, 68, 0
2, 139015, Note_on_c, 0, 74, 0
2, 139015, Note_on_c, 0, 65, 0
2, 139080, Note_on_c, 0, 75, 21
2, 139080, Note_on_c, 0, 67, 21
2, 139135, Note_on_c, 0, 67, 0
2, 139135, Note_on_c, 0, 75, 0
2, 139140, Note_on_c, 0, 46, 21
2, 139195, Note_on_c, 0, 46, 0
2, 139200, Note_on_c, 0, 77, 21
2, 139200, Note_on_c, 0, 69, 21
2, 139200, Note_on_c, 0, 46, 21
2, 139255, Note_on_c, 0, 46, 0
2, 139255, Note_on_c, 0, 69, 0
2, 139255, Note_on_c, 0, 77, 0
2, 139320, Note_on_c, 0, 75, 21
2, 139320, Note_on_c, 0, 67, 21
2, 139320, Note_on_c, 0, 70, 21
2, 139375, Note_on_c, 0, 70, 0
2, 139375, Note_on_c, 0, 67, 0
2, 139375, Note_on_c, 0, 75, 0
2, 139440, Note_on_c, 0, 74, 21
2, 139440, Note_on_c, 0, 65, 21
2, 139495, Note_on_c, 0, 65, 0
2, 139495, Note_on_c, 0, 74, 0
2, 139500, Note_on_c, 0, 58, 21
2, 139555, Note_on_c, 0, 58, 0
2, 139560, Note_on_c, 0, 75, 21
2, 139560, Note_on_c, 0, 67, 21
2, 139560, Note_on_c, 0, 58, 21
2, 139615, Note_on_c, 0, 58, 0
2, 139615, Note_on_c, 0, 67, 0
2, 139615, Note_on_c, 0, 75, 0
2, 139680, Note_on_c, 0, 82, 21
2, 139680, Note_on_c, 0, 70, 21
2, 139680, Note_on_c, 0, 65, 21
2, 139680, Note_on_c, 0, 62, 21
2, 139735, Note_on_c, 0, 62, 0
2, 139735, Note_on_c, 0, 82, 0
2, 139735, Note_on_c, 0, 70, 0
2, 139735, Note_on_c, 0, 65, 0
2, 139800, Note_on_c, 0, 67, 21
2, 139800, Note_on_c, 0, 63, 21
2, 139855, Note_on_c, 0, 63, 0
2, 139855, Note_on_c, 0, 67, 0
2, 139860, Note_on_c, 0, 70, 21
2, 139915, Note_on_c, 0, 70, 0
2, 139920, Note_on_c, 0, 70, 21
2, 139920, Note_on_c, 0, 68, 21
2, 139920, Note_on_c, 0, 65, 21
2, 139975, Note_on_c, 0, 65, 0
2, 139975, Note_on_c, 0, 68, 0
2, 139975, Note_on_c, 0, 70, 0
2, 140040, Note_on_c, 0, 70, 21
2, 140040, Note_on_c, 0, 75, 21
2, 140040, Note_on_c, 0, 67, 21
2, 140040, Note_on_c, 0, 58, 21
2, 140095, Note_on_c, 0, 58, 0
2, 140095, Note_on_c, 0, 70, 0
2, 140095, Note_on_c, 0, 75, 0
2, 140095, Note_on_c, 0, 67, 0
2, 140160, Note_on_c, 0, 74, 21
2, 140160, Note_on_c, 0, 77, 21
2, 140160, Note_on_c, 0, 68, 21
2, 140215, Note_on_c, 0, 68, 0
2, 140215, Note_on_c, 0, 77, 0
2, 140215, Note_on_c, 0, 74, 0
2, 140220, Note_on_c, 0, 46, 21
2, 140275, Note_on_c, 0, 46, 0
2, 140280, Note_on_c, 0, 75, 21
2, 140280, Note_on_c, 0, 79, 21
2, 140280, Note_on_c, 0, 67, 21
2, 140280, Note_on_c, 0, 46, 21
2, 140335, Note_on_c, 0, 46, 0
2, 140335, Note_on_c, 0, 75, 0
2, 140335, Note_on_c, 0, 79, 0
2, 140335, Note_on_c, 0, 67, 0
2, 140400, Note_on_c, 0, 74, 21
2, 140400, Note_on_c, 0, 80, 21
2, 140400, Note_on_c, 0, 68, 21
2, 140400, Note_on_c, 0, 53, 21
2, 140400, Note_on_c, 0, 46, 21
2, 140455, Note_on_c, 0, 46, 0
2, 140455, Note_on_c, 0, 53, 0
2, 140580, Note_on_c, 0, 41, 21
2, 140580, Note_on_c, 0, 34, 21
2, 140635, Note_on_c, 0, 34, 0
2, 140635, Note_on_c, 0, 41, 0
2, 140640, Note_on_c, 0, 41, 21
2, 140640, Note_on_c, 0, 34, 21
2, 140695, Note_on_c, 0, 34, 0
2, 140695, Note_on_c, 0, 41, 0
2, 140760, Note_on_c, 0, 58, 21
2, 140815, Note_on_c, 0, 58, 0
2, 140940, Note_on_c, 0, 46, 21
2, 140995, Note_on_c, 0, 46, 0
2, 141000, Note_on_c, 0, 46, 21
2, 141055, Note_on_c, 0, 46, 0
2, 141120, Note_on_c, 0, 53, 21
2, 141120, Note_on_c, 0, 56, 21
2, 141120, Note_on_c, 0, 46, 21
2, 141120, Note_on_c, 0, 62, 21
2, 141175, Note_on_c, 0, 62, 0
2, 141300, Note_on_c, 0, 50, 21
2, 141355, Note_on_c, 0, 50, 0
2, 141360, Note_on_c, 0, 50, 21
2, 141415, Note_on_c, 0, 50, 0
2, 141480, Note_on_c, 0, 65, 21
2, 141535, Note_on_c, 0, 65, 0
2, 141660, Note_on_c, 0, 53, 21
2, 141715, Note_on_c, 0, 53, 0
2, 141720, Note_on_c, 0, 68, 0
2, 141720, Note_on_c, 0, 74, 0
2, 141720, Note_on_c, 0, 80, 0
2, 141720, Note_on_c, 0, 53, 21
2, 141775, Note_on_c, 0, 53, 0
2, 141840, Note_on_c, 0, 46, 0
2, 141840, Note_on_c, 0, 56, 0
2, 141840, Note_on_c, 0, 53, 0
2, 141840, Note_on_c, 0, 79, 37
2, 141840, Note_on_c, 0, 70, 37
2, 141840, Note_on_c, 0, 63, 37
2, 141840, Note_on_c, 0, 58, 37
2, 141895, Note_on_c, 0, 58, 0
2, 141895, Note_on_c, 0, 79, 0
2, 141895, Note_on_c, 0, 70, 0
2, 141895, Note_on_c, 0, 63, 0
2, 141960, Note_on_c, 0, 77, 37
2, 141960, Note_on_c, 0, 68, 37
2, 142015, Note_on_c, 0, 68, 0
2, 142015, Note_on_c, 0, 77, 0
2, 142020, Note_on_c, 0, 46, 37
2, 142075, Note_on_c, 0, 46, 0
2, 142080, Note_on_c, 0, 75, 37
2, 142080, Note_on_c, 0, 67, 37
2, 142080, Note_on_c, 0, 46, 37
2, 142135, Note_on_c, 0, 46, 0
2, 142135, Note_on_c, 0, 67, 0
2, 142135, Note_on_c, 0, 75, 0
2, 142200, Note_on_c, 0, 79, 37
2, 142200, Note_on_c, 0, 82, 37
2, 142200, Note_on_c, 0, 70, 37
2, 142200, Note_on_c, 0, 63, 37
2, 142200, Note_on_c, 0, 58, 37
2, 142255, Note_on_c, 0, 58, 0
2, 142255, Note_on_c, 0, 70, 0
2, 142255, Note_on_c, 0, 79, 0
2, 142255, Note_on_c, 0, 82, 0
2, 142255, Note_on_c, 0, 63, 0
2, 142320, Note_on_c, 0, 80, 37
2, 142320, Note_on_c, 0, 77, 37
2, 142375, Note_on_c, 0, 77, 0
2, 142375, Note_on_c, 0, 80, 0
2, 142380, Note_on_c, 0, 46, 37
2, 142435, Note_on_c, 0, 46, 0
2, 142440, Note_on_c, 0, 79, 37
2, 142440, Note_on_c, 0, 75, 37
2, 142440, Note_on_c, 0, 46, 37
2, 142495, Note_on_c, 0, 46, 0
2, 142495, Note_on_c, 0, 75, 0
2, 142495, Note_on_c, 0, 79, 0
2, 142560, Note_on_c, 0, 79, 37
2, 142560, Note_on_c, 0, 70, 37
2, 142560, Note_on_c, 0, 63, 37
2, 142560, Note_on_c, 0, 58, 37
2, 142615, Note_on_c, 0, 58, 0
2, 142615, Note_on_c, 0, 79, 0
2, 142615, Note_on_c, 0, 70, 0
2, 142615, Note_on_c, 0, 63, 0
2, 142680, Note_on_c, 0, 77, 37
2, 142680, Note_on_c, 0, 68, 37
2, 142735, Note_on_c, 0, 68, 0
2, 142735, Note_on_c, 0, 77, 0
2, 142740, Note_on_c, 0, 46, 37
2, 142795, Note_on_c, 0, 46, 0
2, 142800, Note_on_c, 0, 75, 37
2, 142800, Note_on_c, 0, 67, 37
2, 142800, Note_on_c, 0, 46, 37
2, 142855, Note_on_c, 0, 46, 0
2, 142855, Note_on_c, 0, 67, 0
2, 142855, Note_on_c, 0, 75, 0
2, 142920, Note_on_c, 0, 79, 37
2, 142920, Note_on_c, 0, 82, 37
2, 142920, Note_on_c, 0, 70, 37
2, 142920, Note_on_c, 0, 63, 37
2, 142920, Note_on_c, 0, 58, 37
2, 142975, Note_on_c, 0, 58, 0
2, 142975, Note_on_c, 0, 70, 0
2, 142975, Note_on_c, 0, 79, 0
2, 142975, Note_on_c, 0, 82, 0
2, 142975, Note_on_c, 0, 63, 0
2, 143040, Note_on_c, 0, 80, 37
2, 143040, Note_on_c, 0, 77, 37
2, 143095, Note_on_c, 0, 77, 0
2, 143095, Note_on_c, 0, 80, 0
2, 143100, Note_on_c, 0, 46, 37
2, 143155, Note_on_c, 0, 46, 0
2, 143160, Note_on_c, 0, 79, 37
2, 143160, Note_on_c, 0, 75, 37
2, 143160, Note_on_c, 0, 46, 37
2, 143215, Note_on_c, 0, 46, 0
2, 143215, Note_on_c, 0, 75, 0
2, 143215, Note_on_c, 0, 79, 0
2, 143280, Note_on_c, 0, 74, 46
2, 143280, Note_on_c, 0, 80, 46
2, 143280, Note_on_c, 0, 68, 46
2, 143280, Note_on_c, 0, 53, 42
2, 143280, Note_on_c, 0, 46, 42
2, 143335, Note_on_c, 0, 46, 0
2, 143335, Note_on_c, 0, 53, 0
2, 143460, Note_on_c, 0, 41, 43
2, 143460, Note_on_c, 0, 34, 43
2, 143515, Note_on_c, 0, 34, 0
2, 143515, Note_on_c, 0, 41, 0
2, 143520, Note_on_c, 0, 41, 46
2, 143520, Note_on_c, 0, 34, 46
2, 143575, Note_on_c, 0, 34, 0
2, 143575, Note_on_c, 0, 41, 0
2, 143640, Note_on_c, 0, 58, 51
2, 143695, Note_on_c, 0, 58, 0
2, 143820, Note_on_c, 0, 46, 53
2, 143875, Note_on_c, 0, 46, 0
2, 143880, Note_on_c, 0, 46, 56
2, 143935, Note_on_c, 0, 46, 0
2, 144000, Note_on_c, 0, 53, 65
2, 144000, Note_on_c, 0, 56, 65
2, 144000, Note_on_c, 0, 46, 65
2, 144000, Note_on_c, 0, 62, 61
2, 144055, Note_on_c, 0, 62, 0
2, 144180, Note_on_c, 0, 50, 62
2, 144235, Note_on_c, 0, 50, 0
2, 144240, Note_on_c, 0, 50, 65
2, 144295, Note_on_c, 0, 50, 0
2, 144360, Note_on_c, 0, 65, 70
2, 144415, Note_on_c, 0, 65, 0
2, 144540, Note_on_c, 0, 53, 72
2, 144595, Note_on_c, 0, 53, 0
2, 144600, Note_on_c, 0, 56, 0
2, 144600, Note_on_c, 0, 80, 0
2, 144600, Note_on_c, 0, 68, 0
2, 144600, Note_on_c, 0, 74, 0
2, 144600, Note_on_c, 0, 46, 0
2, 144600, Note_on_c, 0, 53, 75
2, 144655, Note_on_c, 0, 53, 0
2, 144720, Note_on_c, 0, 74, 84
2, 144720, Note_on_c, 0, 81, 84
2, 144720, Note_on_c, 0, 69, 84
2, 144720, Note_on_c, 0, 53, 79
2, 144720, Note_on_c, 0, 57, 79
2, 144720, Note_on_c, 0, 45, 79
2, 144775, Note_on_c, 0, 45, 0
2, 144775, Note_on_c, 0, 53, 0
2, 144775, Note_on_c, 0, 57, 0
2, 144900, Note_on_c, 0, 41, 81
2, 144900, Note_on_c, 0, 33, 81
2, 144955, Note_on_c, 0, 33, 0
2, 144955, Note_on_c, 0, 41, 0
2, 144960, Note_on_c, 0, 41, 84
2, 144960, Note_on_c, 0, 33, 84
2, 145015, Note_on_c, 0, 33, 0
2, 145015, Note_on_c, 0, 41, 0
2, 145080, Note_on_c, 0, 57, 89
2, 145135, Note_on_c, 0, 57, 0
2, 145260, Note_on_c, 0, 45, 90
2, 145315, Note_on_c, 0, 45, 0
2, 145320, Note_on_c, 0, 45, 93
2, 145375, Note_on_c, 0, 45, 0
2, 145440, Note_on_c, 0, 53, 103
2, 145440, Note_on_c, 0, 57, 103
2, 145440, Note_on_c, 0, 45, 103
2, 145440, Note_on_c, 0, 62, 98
2, 145495, Note_on_c, 0, 62, 0
2, 145620, Note_on_c, 0, 50, 100
2, 145675, Note_on_c, 0, 50, 0
2, 145680, Note_on_c, 0, 50, 103
2, 145735, Note_on_c, 0, 50, 0
2, 145800, Note_on_c, 0, 65, 108
2, 145855, Note_on_c, 0, 65, 0
2, 145980, Note_on_c, 0, 53, 109
2, 146035, Note_on_c, 0, 53, 0
2, 146040, Note_on_c, 0, 69, 0
2, 146040, Note_on_c, 0, 57, 0
2, 146040, Note_on_c, 0, 81, 0
2, 146040, Note_on_c, 0, 74, 0
2, 146040, Note_on_c, 0, 45, 0
2, 146040, Note_on_c, 0, 53, 112
2, 146095, Note_on_c, 0, 53, 0
2, 146160, Note_on_c, 0, 74, 117
2, 146160, Note_on_c, 0, 81, 117
2, 146160, Note_on_c, 0, 69, 117
2, 146160, Note_on_c, 0, 53, 117
2, 146160, Note_on_c, 0, 57, 117
2, 146160, Note_on_c, 0, 45, 117
2, 146215, Note_on_c, 0, 45, 0
2, 146215, Note_on_c, 0, 57, 0
2, 146215, Note_on_c, 0, 53, 0
2, 146215, Note_on_c, 0, 81, 0
2, 146215, Note_on_c, 0, 74, 0
2, 146215, Note_on_c, 0, 69, 0
2, 146340, Note_on_c, 0, 62, 117
2, 146340, Note_on_c, 0, 45, 117
2, 146340, Note_on_c, 0, 50, 117
2, 146340, Note_on_c, 0, 53, 117
2, 146340, Note_on_c, 0, 57, 117
2, 146340, Note_on_c, 0, 41, 117
2, 146395, Note_on_c, 0, 41, 0
2, 146395, Note_on_c, 0, 57, 0
2, 146395, Note_on_c, 0, 53, 0
2, 146395, Note_on_c, 0, 45, 0
2, 146395, Note_on_c, 0, 62, 0
2, 146395, Note_on_c, 0, 50, 0
2, 146400, Note_on_c, 0, 62, 117
2, 146400, Note_on_c, 0, 45, 117
2, 146400, Note_on_c, 0, 50, 117
2, 146400, Note_on_c, 0, 53, 117
2, 146400, Note_on_c, 0, 57, 117
2, 146400, Note_on_c, 0, 41, 117
2, 146455, Note_on_c, 0, 41, 0
2, 146455, Note_on_c, 0, 57, 0
2, 146455, Note_on_c, 0, 53, 0
2, 146455, Note_on_c, 0, 45, 0
2, 146455, Note_on_c, 0, 62, 0
2, 146455, Note_on_c, 0, 50, 0
2, 146520, Note_on_c, 0, 69, 117
2, 146520, Note_on_c, 0, 74, 117
2, 146520, Note_on_c, 0, 65, 117
2, 146520, Note_on_c, 0, 57, 117
2, 146520, Note_on_c, 0, 62, 117
2, 146520, Note_on_c, 0, 53, 117
2, 146575, Note_on_c, 0, 62, 0
2, 146575, Note_on_c, 0, 74, 0
2, 146575, Note_on_c, 0, 65, 0
2, 146575, Note_on_c, 0, 53, 0
2, 146575, Note_on_c, 0, 69, 0
2, 146575, Note_on_c, 0, 57, 0
2, 146700, Note_on_c, 0, 62, 117
2, 146700, Note_on_c, 0, 45, 117
2, 146700, Note_on_c, 0, 50, 117
2, 146700, Note_on_c, 0, 53, 117
2, 146700, Note_on_c, 0, 57, 117
2, 146700, Note_on_c, 0, 41, 117
2, 146755, Note_on_c, 0, 41, 0
2, 146755, Note_on_c, 0, 57, 0
2, 146755, Note_on_c, 0, 53, 0
2, 146755, Note_on_c, 0, 45, 0
2, 146755, Note_on_c, 0, 62, 0
2, 146755, Note_on_c, 0, 50, 0
2, 146760, Note_on_c, 0, 62, 117
2, 146760, Note_on_c, 0, 45, 117
2, 146760, Note_on_c, 0, 50, 117
2, 146760, Note_on_c, 0, 53, 117
2, 146760, Note_on_c, 0, 57, 117
2, 146760, Note_on_c, 0, 41, 117
2, 146815, Note_on_c, 0, 41, 0
2, 146815, Note_on_c, 0, 57, 0
2, 146815, Note_on_c, 0, 53, 0
2, 146815, Note_on_c, 0, 45, 0
2, 146815, Note_on_c, 0, 62, 0
2, 146815, Note_on_c, 0, 50, 0
2, 146880, Note_on_c, 0, 74, 117
2, 146880, Note_on_c, 0, 81, 117
2, 146880, Note_on_c, 0, 69, 117
2, 146880, Note_on_c, 0, 53, 117
2, 146880, Note_on_c, 0, 57, 117
2, 146880, Note_on_c, 0, 45, 117
2, 146935, Note_on_c, 0, 45, 0
2, 146935, Note_on_c, 0, 57, 0
2, 146935, Note_on_c, 0, 53, 0
2, 146935, Note_on_c, 0, 81, 0
2, 146935, Note_on_c, 0, 74, 0
2, 146935, Note_on_c, 0, 69, 0
2, 147060, Note_on_c, 0, 62, 117
2, 147060, Note_on_c, 0, 45, 117
2, 147060, Note_on_c, 0, 50, 117
2, 147060, Note_on_c, 0, 53, 117
2, 147060, Note_on_c, 0, 57, 117
2, 147060, Note_on_c, 0, 41, 117
2, 147115, Note_on_c, 0, 41, 0
2, 147115, Note_on_c, 0, 57, 0
2, 147115, Note_on_c, 0, 53, 0
2, 147115, Note_on_c, 0, 45, 0
2, 147115, Note_on_c, 0, 62, 0
2, 147115, Note_on_c, 0, 50, 0
2, 147120, Note_on_c, 0, 62, 117
2, 147120, Note_on_c, 0, 45, 117
2, 147120, Note_on_c, 0, 50, 117
2, 147120, Note_on_c, 0, 53, 117
2, 147120, Note_on_c, 0, 57, 117
2, 147120, Note_on_c, 0, 41, 117
2, 147175, Note_on_c, 0, 41, 0
2, 147175, Note_on_c, 0, 57, 0
2, 147175, Note_on_c, 0, 53, 0
2, 147175, Note_on_c, 0, 45, 0
2, 147175, Note_on_c, 0, 62, 0
2, 147175, Note_on_c, 0, 50, 0
2, 147240, Note_on_c, 0, 69, 117
2, 147240, Note_on_c, 0, 74, 117
2, 147240, Note_on_c, 0, 65, 117
2, 147240, Note_on_c, 0, 57, 117
2, 147240, Note_on_c, 0, 62, 117
2, 147240, Note_on_c, 0, 53, 117
2, 147295, Note_on_c, 0, 62, 0
2, 147295, Note_on_c, 0, 74, 0
2, 147295, Note_on_c, 0, 65, 0
2, 147295, Note_on_c, 0, 53, 0
2, 147295, Note_on_c, 0, 69, 0
2, 147295, Note_on_c, 0, 57, 0
2, 147420, Note_on_c, 0, 62, 117
2, 147420, Note_on_c, 0, 45, 117
2, 147420, Note_on_c, 0, 50, 117
2, 147420, Note_on_c, 0, 53, 117
2, 147420, Note_on_c, 0, 57, 117
2, 147420, Note_on_c, 0, 41, 117
2, 147475, Note_on_c, 0, 41, 0
2, 147475, Note_on_c, 0, 57, 0
2, 147475, Note_on_c, 0, 53, 0
2, 147475, Note_on_c, 0, 45, 0
2, 147475, Note_on_c, 0, 62, 0
2, 147475, Note_on_c, 0, 50, 0
2, 147480, Note_on_c, 0, 62, 117
2, 147480, Note_on_c, 0, 45, 117
2, 147480, Note_on_c, 0, 50, 117
2, 147480, Note_on_c, 0, 53, 117
2, 147480, Note_on_c, 0, 57, 117
2, 147480, Note_on_c, 0, 41, 117
2, 147535, Note_on_c, 0, 41, 0
2, 147535, Note_on_c, 0, 57, 0
2, 147535, Note_on_c, 0, 53, 0
2, 147535, Note_on_c, 0, 45, 0
2, 147535, Note_on_c, 0, 62, 0
2, 147535, Note_on_c, 0, 50, 0
2, 147600, Note_on_c, 0, 86, 117
2, 147600, Note_on_c, 0, 89, 117
2, 147600, Note_on_c, 0, 93, 117
2, 147600, Note_on_c, 0, 81, 117
2, 147600, Note_on_c, 0, 45, 117
2, 147600, Note_on_c, 0, 50, 117
2, 147600, Note_on_c, 0, 38, 117
2, 147655, Note_on_c, 0, 38, 0
2, 147655, Note_on_c, 0, 89, 0
2, 147655, Note_on_c, 0, 50, 0
2, 147655, Note_on_c, 0, 93, 0
2, 147655, Note_on_c, 0, 45, 0
2, 147655, Note_on_c, 0, 86, 0
2, 147655, Note_on_c, 0, 81, 0
2, 147780, Note_on_c, 0, 74, 117
2, 147780, Note_on_c, 0, 81, 117
2, 147780, Note_on_c, 0, 69, 117
2, 147780, Note_on_c, 0, 57, 117
2, 147780, Note_on_c, 0, 62, 117
2, 147780, Note_on_c, 0, 53, 117
2, 147835, Note_on_c, 0, 62, 0
2, 147835, Note_on_c, 0, 81, 0
2, 147835, Note_on_c, 0, 69, 0
2, 147835, Note_on_c, 0, 53, 0
2, 147835, Note_on_c, 0, 74, 0
2, 147835, Note_on_c, 0, 57, 0
2, 147840, Note_on_c, 0, 74, 117
2, 147840, Note_on_c, 0, 81, 117
2, 147840, Note_on_c, 0, 69, 117
2, 147840, Note_on_c, 0, 57, 117
2, 147840, Note_on_c, 0, 62, 117
2, 147840, Note_on_c, 0, 53, 117
2, 147895, Note_on_c, 0, 62, 0
2, 147895, Note_on_c, 0, 81, 0
2, 147895, Note_on_c, 0, 69, 0
2, 147895, Note_on_c, 0, 53, 0
2, 147895, Note_on_c, 0, 74, 0
2, 147895, Note_on_c, 0, 57, 0
2, 147960, Note_on_c, 0, 86, 117
2, 147960, Note_on_c, 0, 89, 117
2, 147960, Note_on_c, 0, 93, 117
2, 147960, Note_on_c, 0, 81, 117
2, 147960, Note_on_c, 0, 45, 117
2, 147960, Note_on_c, 0, 50, 117
2, 147960, Note_on_c, 0, 38, 117
2, 148015, Note_on_c, 0, 38, 0
2, 148015, Note_on_c, 0, 89, 0
2, 148015, Note_on_c, 0, 50, 0
2, 148015, Note_on_c, 0, 93, 0
2, 148015, Note_on_c, 0, 45, 0
2, 148015, Note_on_c, 0, 86, 0
2, 148015, Note_on_c, 0, 81, 0
2, 148140, Note_on_c, 0, 74, 117
2, 148140, Note_on_c, 0, 81, 117
2, 148140, Note_on_c, 0, 69, 117
2, 148140, Note_on_c, 0, 57, 117
2, 148140, Note_on_c, 0, 62, 117
2, 148140, Note_on_c, 0, 53, 117
2, 148195, Note_on_c, 0, 62, 0
2, 148195, Note_on_c, 0, 81, 0
2, 148195, Note_on_c, 0, 69, 0
2, 148195, Note_on_c, 0, 53, 0
2, 148195, Note_on_c, 0, 74, 0
2, 148195, Note_on_c, 0, 57, 0
2, 148200, Note_on_c, 0, 74, 117
2, 148200, Note_on_c, 0, 81, 117
2, 148200, Note_on_c, 0, 69, 117
2, 148200, Note_on_c, 0, 57, 117
2, 148200, Note_on_c, 0, 62, 117
2, 148200, Note_on_c, 0, 53, 117
2, 148255, Note_on_c, 0, 62, 0
2, 148255, Note_on_c, 0, 81, 0
2, 148255, Note_on_c, 0, 69, 0
2, 148255, Note_on_c, 0, 53, 0
2, 148255, Note_on_c, 0, 74, 0
2, 148255, Note_on_c, 0, 57, 0
2, 148320, Note_on_c, 0, 86, 117
2, 148320, Note_on_c, 0, 89, 117
2, 148320, Note_on_c, 0, 93, 117
2, 148320, Note_on_c, 0, 81, 117
2, 148320, Note_on_c, 0, 45, 117
2, 148320, Note_on_c, 0, 50, 117
2, 148320, Note_on_c, 0, 38, 117
2, 148375, Note_on_c, 0, 38, 0
2, 148375, Note_on_c, 0, 89, 0
2, 148375, Note_on_c, 0, 50, 0
2, 148375, Note_on_c, 0, 93, 0
2, 148375, Note_on_c, 0, 45, 0
2, 148375, Note_on_c, 0, 86, 0
2, 148375, Note_on_c, 0, 81, 0
2, 148500, Note_on_c, 0, 74, 117
2, 148500, Note_on_c, 0, 81, 117
2, 148500, Note_on_c, 0, 69, 117
2, 148500, Note_on_c, 0, 57, 117
2, 148500, Note_on_c, 0, 62, 117
2, 148500, Note_on_c, 0, 53, 117
2, 148555, Note_on_c, 0, 62, 0
2, 148555, Note_on_c, 0, 81, 0
2, 148555, Note_on_c, 0, 69, 0
2, 148555, Note_on_c, 0, 53, 0
2, 148555, Note_on_c, 0, 74, 0
2, 148555, Note_on_c, 0, 57, 0
2, 148560, Note_on_c, 0, 74, 117
2, 148560, Note_on_c, 0, 81, 117
2, 148560, Note_on_c, 0, 69, 117
2, 148560, Note_on_c, 0, 57, 117
2, 148560, Note_on_c, 0, 62, 117
2, 148560, Note_on_c, 0, 53, 117
2, 148615, Note_on_c, 0, 62, 0
2, 148615, Note_on_c, 0, 81, 0
2, 148615, Note_on_c, 0, 69, 0
2, 148615, Note_on_c, 0, 53, 0
2, 148615, Note_on_c, 0, 74, 0
2, 148615, Note_on_c, 0, 57, 0
2, 148680, Note_on_c, 0, 86, 117
2, 148680, Note_on_c, 0, 89, 117
2, 148680, Note_on_c, 0, 93, 117
2, 148680, Note_on_c, 0, 81, 117
2, 148680, Note_on_c, 0, 45, 117
2, 148680, Note_on_c, 0, 50, 117
2, 148680, Note_on_c, 0, 38, 117
2, 148735, Note_on_c, 0, 38, 0
2, 148735, Note_on_c, 0, 89, 0
2, 148735, Note_on_c, 0, 50, 0
2, 148735, Note_on_c, 0, 93, 0
2, 148735, Note_on_c, 0, 45, 0
2, 148735, Note_on_c, 0, 86, 0
2, 148735, Note_on_c, 0, 81, 0
2, 148860, Note_on_c, 0, 74, 117
2, 148860, Note_on_c, 0, 81, 117
2, 148860, Note_on_c, 0, 69, 117
2, 148860, Note_on_c, 0, 57, 117
2, 148860, Note_on_c, 0, 62, 117
2, 148860, Note_on_c, 0, 53, 117
2, 148915, Note_on_c, 0, 62, 0
2, 148915, Note_on_c, 0, 81, 0
2, 148915, Note_on_c, 0, 69, 0
2, 148915, Note_on_c, 0, 53, 0
2, 148915, Note_on_c, 0, 74, 0
2, 148915, Note_on_c, 0, 57, 0
2, 148920, Note_on_c, 0, 74, 117
2, 148920, Note_on_c, 0, 81, 117
2, 148920, Note_on_c, 0, 69, 117
2, 148920, Note_on_c, 0, 57, 117
2, 148920, Note_on_c, 0, 62, 117
2, 148920, Note_on_c, 0, 53, 117
2, 148975, Note_on_c, 0, 62, 0
2, 148975, Note_on_c, 0, 81, 0
2, 148975, Note_on_c, 0, 69, 0
2, 148975, Note_on_c, 0, 53, 0
2, 148975, Note_on_c, 0, 74, 0
2, 148975, Note_on_c, 0, 57, 0
2, 149040, Note_on_c, 0, 86, 117
2, 149040, Note_on_c, 0, 89, 117
2, 149040, Note_on_c, 0, 93, 117
2, 149040, Note_on_c, 0, 81, 117
2, 149040, Note_on_c, 0, 41, 117
2, 149040, Note_on_c, 0, 45, 117
2, 149040, Note_on_c, 0, 38, 117
2, 149095, Note_on_c, 0, 38, 0
2, 149095, Note_on_c, 0, 89, 0
2, 149095, Note_on_c, 0, 45, 0
2, 149095, Note_on_c, 0, 93, 0
2, 149095, Note_on_c, 0, 41, 0
2, 149095, Note_on_c, 0, 86, 0
2, 149095, Note_on_c, 0, 81, 0
2, 149100, Note_on_c, 0, 50, 117
2, 149155, Note_on_c, 0, 50, 0
2, 149160, Note_on_c, 0, 41, 117
2, 149160, Note_on_c, 0, 45, 117
2, 149160, Note_on_c, 0, 38, 117
2, 149215, Note_on_c, 0, 38, 0
2, 149215, Note_on_c, 0, 41, 0
2, 149215, Note_on_c, 0, 45, 0
2, 149220, Note_on_c, 0, 81, 117
2, 149220, Note_on_c, 0, 69, 117
2, 149220, Note_on_c, 0, 50, 117
2, 149275, Note_on_c, 0, 50, 0
2, 149275, Note_on_c, 0, 81, 0
2, 149275, Note_on_c, 0, 69, 0
2, 149280, Note_on_c, 0, 81, 117
2, 149280, Note_on_c, 0, 69, 117
2, 149280, Note_on_c, 0, 41, 117
2, 149280, Note_on_c, 0, 45, 117
2, 149280, Note_on_c, 0, 38, 117
2, 149335, Note_on_c, 0, 38, 0
2, 149335, Note_on_c, 0, 41, 0
2, 149335, Note_on_c, 0, 69, 0
2, 149335, Note_on_c, 0, 81, 0
2, 149335, Note_on_c, 0, 45, 0
2, 149340, Note_on_c, 0, 50, 117
2, 149395, Note_on_c, 0, 50, 0
2, 149400, Note_on_c, 0, 86, 117
2, 149400, Note_on_c, 0, 74, 117
2, 149400, Note_on_c, 0, 41, 117
2, 149400, Note_on_c, 0, 45, 117
2, 149400, Note_on_c, 0, 50, 117
2, 149400, Note_on_c, 0, 38, 117
2, 149455, Note_on_c, 0, 38, 0
2, 149455, Note_on_c, 0, 50, 0
2, 149455, Note_on_c, 0, 41, 0
2, 149455, Note_on_c, 0, 74, 0
2, 149455, Note_on_c, 0, 86, 0
2, 149455, Note_on_c, 0, 45, 0
2, 149520, Note_on_c, 0, 88, 117
2, 149520, Note_on_c, 0, 76, 117
2, 149575, Note_on_c, 0, 76, 0
2, 149575, Note_on_c, 0, 88, 0
2, 149580, Note_on_c, 0, 57, 117
2, 149580, Note_on_c, 0, 62, 117
2, 149580, Note_on_c, 0, 53, 117
2, 149635, Note_on_c, 0, 62, 0
2, 149635, Note_on_c, 0, 57, 0
2, 149635, Note_on_c, 0, 53, 0
2, 149640, Note_on_c, 0, 89, 117
2, 149640, Note_on_c, 0, 77, 117
2, 149640, Note_on_c, 0, 57, 117
2, 149640, Note_on_c, 0, 62, 117
2, 149640, Note_on_c, 0, 53, 117
2, 149695, Note_on_c, 0, 62, 0
2, 149695, Note_on_c, 0, 77, 0
2, 149695, Note_on_c, 0, 53, 0
2, 149695, Note_on_c, 0, 89, 0
2, 149695, Note_on_c, 0, 57, 0
2, 149760, Note_on_c, 0, 88, 117
2, 149760, Note_on_c, 0, 76, 117
2, 149760, Note_on_c, 0, 45, 117
2, 149760, Note_on_c, 0, 50, 117
2, 149760, Note_on_c, 0, 38, 117
2, 149815, Note_on_c, 0, 38, 0
2, 149815, Note_on_c, 0, 45, 0
2, 149815, Note_on_c, 0, 76, 0
2, 149815, Note_on_c, 0, 88, 0
2, 149815, Note_on_c, 0, 50, 0
2, 149880, Note_on_c, 0, 89, 117
2, 149880, Note_on_c, 0, 77, 117
2, 149935, Note_on_c, 0, 77, 0
2, 149935, Note_on_c, 0, 89, 0
2, 149940, Note_on_c, 0, 57, 117
2, 149940, Note_on_c, 0, 62, 117
2, 149940, Note_on_c, 0, 53, 117
2, 149995, Note_on_c, 0, 62, 0
2, 149995, Note_on_c, 0, 57, 0
2, 149995, Note_on_c, 0, 53, 0
2, 150000, Note_on_c, 0, 91, 117
2, 150000, Note_on_c, 0, 79, 117
2, 150000, Note_on_c, 0, 57, 117
2, 150000, Note_on_c, 0, 62, 117
2, 150000, Note_on_c, 0, 53, 117
2, 150055, Note_on_c, 0, 62, 0
2, 150055, Note_on_c, 0, 79, 0
2, 150055, Note_on_c, 0, 53, 0
2, 150055, Note_on_c, 0, 91, 0
2, 150055, Note_on_c, 0, 57, 0
2, 150120, Note_on_c, 0, 89, 117
2, 150120, Note_on_c, 0, 77, 117
2, 150120, Note_on_c, 0, 45, 117
2, 150120, Note_on_c, 0, 50, 117
2, 150120, Note_on_c, 0, 38, 117
2, 150175, Note_on_c, 0, 38, 0
2, 150175, Note_on_c, 0, 45, 0
2, 150175, Note_on_c, 0, 77, 0
2, 150175, Note_on_c, 0, 89, 0
2, 150175, Note_on_c, 0, 50, 0
2, 150240, Note_on_c, 0, 88, 117
2, 150240, Note_on_c, 0, 76, 117
2, 150295, Note_on_c, 0, 76, 0
2, 150295, Note_on_c, 0, 88, 0
2, 150300, Note_on_c, 0, 57, 117
2, 150300, Note_on_c, 0, 62, 117
2, 150300, Note_on_c, 0, 53, 117
2, 150355, Note_on_c, 0, 62, 0
2, 150355, Note_on_c, 0, 57, 0
2, 150355, Note_on_c, 0, 53, 0
2, 150360, Note_on_c, 0, 86, 117
2, 150360, Note_on_c, 0, 74, 117
2, 150360, Note_on_c, 0, 57, 117
2, 150360, Note_on_c, 0, 62, 117
2, 150360, Note_on_c, 0, 53, 117
2, 150415, Note_on_c, 0, 62, 0
2, 150415, Note_on_c, 0, 74, 0
2, 150415, Note_on_c, 0, 53, 0
2, 150415, Note_on_c, 0, 86, 0
2, 150415, Note_on_c, 0, 57, 0
2, 150480, Note_on_c, 0, 94, 117
2, 150480, Note_on_c, 0, 82, 117
2, 150480, Note_on_c, 0, 45, 117
2, 150480, Note_on_c, 0, 50, 117
2, 150480, Note_on_c, 0, 38, 117
2, 150535, Note_on_c, 0, 38, 0
2, 150535, Note_on_c, 0, 45, 0
2, 150535, Note_on_c, 0, 82, 0
2, 150535, Note_on_c, 0, 94, 0
2, 150535, Note_on_c, 0, 50, 0
2, 150600, Note_on_c, 0, 93, 95
2, 150600, Note_on_c, 0, 81, 95
2, 150655, Note_on_c, 0, 81, 0
2, 150655, Note_on_c, 0, 93, 0
2, 150660, Note_on_c, 0, 57, 95
2, 150660, Note_on_c, 0, 62, 95
2, 150660, Note_on_c, 0, 53, 95
2, 150715, Note_on_c, 0, 62, 0
2, 150715, Note_on_c, 0, 57, 0
2, 150715, Note_on_c, 0, 53, 0
2, 150720, Note_on_c, 0, 91, 95
2, 150720, Note_on_c, 0, 79, 95
2, 150720, Note_on_c, 0, 57, 95
2, 150720, Note_on_c, 0, 62, 95
2, 150720, Note_on_c, 0, 53, 95
2, 150775, Note_on_c, 0, 62, 0
2, 150775, Note_on_c, 0, 79, 0
2, 150775, Note_on_c, 0, 53, 0
2, 150775, Note_on_c, 0, 91, 0
2, 150775, Note_on_c, 0, 57, 0
2, 150840, Note_on_c, 0, 89, 117
2, 150840, Note_on_c, 0, 77, 117
2, 150840, Note_on_c, 0, 45, 117
2, 150840, Note_on_c, 0, 50, 117
2, 150840, Note_on_c, 0, 38, 117
2, 150895, Note_on_c, 0, 38, 0
2, 150895, Note_on_c, 0, 45, 0
2, 150895, Note_on_c, 0, 77, 0
2, 150895, Note_on_c, 0, 89, 0
2, 150895, Note_on_c, 0, 50, 0
2, 150960, Note_on_c, 0, 88, 95
2, 150960, Note_on_c, 0, 76, 95
2, 151015, Note_on_c, 0, 76, 0
2, 151015, Note_on_c, 0, 88, 0
2, 151020, Note_on_c, 0, 57, 95
2, 151020, Note_on_c, 0, 62, 95
2, 151020, Note_on_c, 0, 53, 95
2, 151075, Note_on_c, 0, 62, 0
2, 151075, Note_on_c, 0, 57, 0
2, 151075, Note_on_c, 0, 53, 0
2, 151080, Note_on_c, 0, 86, 95
2, 151080, Note_on_c, 0, 74, 95
2, 151080, Note_on_c, 0, 57, 95
2, 151080, Note_on_c, 0, 62, 95
2, 151080, Note_on_c, 0, 53, 95
2, 151135, Note_on_c, 0, 62, 0
2, 151135, Note_on_c, 0, 74, 0
2, 151135, Note_on_c, 0, 53, 0
2, 151135, Note_on_c, 0, 86, 0
2, 151135, Note_on_c, 0, 57, 0
2, 151200, Note_on_c, 0, 85, 117
2, 151200, Note_on_c, 0, 73, 117
2, 151200, Note_on_c, 0, 45, 117
2, 151200, Note_on_c, 0, 50, 117
2, 151200, Note_on_c, 0, 38, 117
2, 151255, Note_on_c, 0, 38, 0
2, 151255, Note_on_c, 0, 45, 0
2, 151255, Note_on_c, 0, 73, 0
2, 151255, Note_on_c, 0, 85, 0
2, 151255, Note_on_c, 0, 50, 0
2, 151320, Note_on_c, 0, 86, 95
2, 151320, Note_on_c, 0, 74, 95
2, 151375, Note_on_c, 0, 74, 0
2, 151375, Note_on_c, 0, 86, 0
2, 151380, Note_on_c, 0, 57, 95
2, 151380, Note_on_c, 0, 62, 95
2, 151380, Note_on_c, 0, 53, 95
2, 151435, Note_on_c, 0, 62, 0
2, 151435, Note_on_c, 0, 57, 0
2, 151435, Note_on_c, 0, 53, 0
2, 151440, Note_on_c, 0, 88, 95
2, 151440, Note_on_c, 0, 76, 95
2, 151440, Note_on_c, 0, 57, 95
2, 151440, Note_on_c, 0, 62, 95
2, 151440, Note_on_c, 0, 53, 95
2, 151495, Note_on_c, 0, 62, 0
2, 151495, Note_on_c, 0, 76, 0
2, 151495, Note_on_c, 0, 53, 0
2, 151495, Note_on_c, 0, 88, 0
2, 151495, Note_on_c, 0, 57, 0
2, 151560, Note_on_c, 0, 86, 117
2, 151560, Note_on_c, 0, 74, 117
2, 151560, Note_on_c, 0, 45, 117
2, 151560, Note_on_c, 0, 50, 117
2, 151560, Note_on_c, 0, 38, 117
2, 151615, Note_on_c, 0, 38, 0
2, 151615, Note_on_c, 0, 45, 0
2, 151615, Note_on_c, 0, 74, 0
2, 151615, Note_on_c, 0, 86, 0
2, 151615, Note_on_c, 0, 50, 0
2, 151680, Note_on_c, 0, 85, 95
2, 151680, Note_on_c, 0, 73, 95
2, 151735, Note_on_c, 0, 73, 0
2, 151735, Note_on_c, 0, 85, 0
2, 151740, Note_on_c, 0, 57, 95
2, 151740, Note_on_c, 0, 62, 95
2, 151740, Note_on_c, 0, 53, 95
2, 151795, Note_on_c, 0, 62, 0
2, 151795, Note_on_c, 0, 57, 0
2, 151795, Note_on_c, 0, 53, 0
2, 151800, Note_on_c, 0, 86, 95
2, 151800, Note_on_c, 0, 74, 95
2, 151800, Note_on_c, 0, 57, 95
2, 151800, Note_on_c, 0, 62, 95
2, 151800, Note_on_c, 0, 53, 95
2, 151855, Note_on_c, 0, 62, 0
2, 151855, Note_on_c, 0, 74, 0
2, 151855, Note_on_c, 0, 53, 0
2, 151855, Note_on_c, 0, 86, 0
2, 151855, Note_on_c, 0, 57, 0
2, 151920, Note_on_c, 0, 94, 117
2, 151920, Note_on_c, 0, 82, 117
2, 151920, Note_on_c, 0, 45, 117
2, 151920, Note_on_c, 0, 50, 117
2, 151920, Note_on_c, 0, 38, 117
2, 151975, Note_on_c, 0, 38, 0
2, 151975, Note_on_c, 0, 45, 0
2, 151975, Note_on_c, 0, 82, 0
2, 151975, Note_on_c, 0, 94, 0
2, 151975, Note_on_c, 0, 50, 0
2, 152040, Note_on_c, 0, 93, 95
2, 152040, Note_on_c, 0, 81, 95
2, 152095, Note_on_c, 0, 81, 0
2, 152095, Note_on_c, 0, 93, 0
2, 152100, Note_on_c, 0, 57, 95
2, 152100, Note_on_c, 0, 62, 95
2, 152100, Note_on_c, 0, 53, 95
2, 152155, Note_on_c, 0, 62, 0
2, 152155, Note_on_c, 0, 57, 0
2, 152155, Note_on_c, 0, 53, 0
2, 152160, Note_on_c, 0, 91, 95
2, 152160, Note_on_c, 0, 79, 95
2, 152160, Note_on_c, 0, 57, 95
2, 152160, Note_on_c, 0, 62, 95
2, 152160, Note_on_c, 0, 53, 95
2, 152215, Note_on_c, 0, 62, 0
2, 152215, Note_on_c, 0, 79, 0
2, 152215, Note_on_c, 0, 53, 0
2, 152215, Note_on_c, 0, 91, 0
2, 152215, Note_on_c, 0, 57, 0
2, 152280, Note_on_c, 0, 89, 117
2, 152280, Note_on_c, 0, 77, 117
2, 152280, Note_on_c, 0, 45, 117
2, 152280, Note_on_c, 0, 50, 117
2, 152280, Note_on_c, 0, 38, 117
2, 152335, Note_on_c, 0, 38, 0
2, 152335, Note_on_c, 0, 45, 0
2, 152335, Note_on_c, 0, 77, 0
2, 152335, Note_on_c, 0, 89, 0
2, 152335, Note_on_c, 0, 50, 0
2, 152400, Note_on_c, 0, 88, 95
2, 152400, Note_on_c, 0, 76, 95
2, 152455, Note_on_c, 0, 76, 0
2, 152455, Note_on_c, 0, 88, 0
2, 152460, Note_on_c, 0, 57, 95
2, 152460, Note_on_c, 0, 62, 95
2, 152460, Note_on_c, 0, 53, 95
2, 152515, Note_on_c, 0, 62, 0
2, 152515, Note_on_c, 0, 57, 0
2, 152515, Note_on_c, 0, 53, 0
2, 152520, Note_on_c, 0, 86, 95
2, 152520, Note_on_c, 0, 74, 95
2, 152520, Note_on_c, 0, 57, 95
2, 152520, Note_on_c, 0, 62, 95
2, 152520, Note_on_c, 0, 53, 95
2, 152575, Note_on_c, 0, 62, 0
2, 152575, Note_on_c, 0, 74, 0
2, 152575, Note_on_c, 0, 53, 0
2, 152575, Note_on_c, 0, 86, 0
2, 152575, Note_on_c, 0, 57, 0
2, 152640, Note_on_c, 0, 85, 117
2, 152640, Note_on_c, 0, 73, 117
2, 152640, Note_on_c, 0, 45, 117
2, 152640, Note_on_c, 0, 50, 117
2, 152640, Note_on_c, 0, 38, 117
2, 152695, Note_on_c, 0, 38, 0
2, 152695, Note_on_c, 0, 45, 0
2, 152695, Note_on_c, 0, 73, 0
2, 152695, Note_on_c, 0, 85, 0
2, 152695, Note_on_c, 0, 50, 0
2, 152760, Note_on_c, 0, 86, 95
2, 152760, Note_on_c, 0, 74, 95
2, 152815, Note_on_c, 0, 74, 0
2, 152815, Note_on_c, 0, 86, 0
2, 152820, Note_on_c, 0, 57, 95
2, 152820, Note_on_c, 0, 62, 95
2, 152820, Note_on_c, 0, 53, 95
2, 152875, Note_on_c, 0, 62, 0
2, 152875, Note_on_c, 0, 57, 0
2, 152875, Note_on_c, 0, 53, 0
2, 152880, Note_on_c, 0, 88, 95
2, 152880, Note_on_c, 0, 76, 95
2, 152880, Note_on_c, 0, 57, 95
2, 152880, Note_on_c, 0, 62, 95
2, 152880, Note_on_c, 0, 53, 95
2, 152935, Note_on_c, 0, 62, 0
2, 152935, Note_on_c, 0, 76, 0
2, 152935, Note_on_c, 0, 53, 0
2, 152935, Note_on_c, 0, 88, 0
2, 152935, Note_on_c, 0, 57, 0
2, 153000, Note_on_c, 0, 86, 117
2, 153000, Note_on_c, 0, 74, 117
2, 153000, Note_on_c, 0, 45, 117
2, 153000, Note_on_c, 0, 50, 117
2, 153000, Note_on_c, 0, 38, 117
2, 153055, Note_on_c, 0, 38, 0
2, 153055, Note_on_c, 0, 45, 0
2, 153055, Note_on_c, 0, 74, 0
2, 153055, Note_on_c, 0, 86, 0
2, 153055, Note_on_c, 0, 50, 0
2, 153120, Note_on_c, 0, 85, 95
2, 153120, Note_on_c, 0, 73, 95
2, 153175, Note_on_c, 0, 73, 0
2, 153175, Note_on_c, 0, 85, 0
2, 153180, Note_on_c, 0, 57, 95
2, 153180, Note_on_c, 0, 62, 95
2, 153180, Note_on_c, 0, 53, 95
2, 153235, Note_on_c, 0, 62, 0
2, 153235, Note_on_c, 0, 57, 0
2, 153235, Note_on_c, 0, 53, 0
2, 153240, Note_on_c, 0, 86, 95
2, 153240, Note_on_c, 0, 74, 95
2, 153240, Note_on_c, 0, 57, 95
2, 153240, Note_on_c, 0, 62, 95
2, 153240, Note_on_c, 0, 53, 95
2, 153295, Note_on_c, 0, 62, 0
2, 153295, Note_on_c, 0, 74, 0
2, 153295, Note_on_c, 0, 53, 0
2, 153295, Note_on_c, 0, 86, 0
2, 153295, Note_on_c, 0, 57, 0
2, 153360, Note_on_c, 0, 84, 95
2, 153360, Note_on_c, 0, 72, 95
2, 153360, Note_on_c, 0, 63, 95
2, 153360, Note_on_c, 0, 51, 95
2, 153415, Note_on_c, 0, 51, 0
2, 153415, Note_on_c, 0, 72, 0
2, 153415, Note_on_c, 0, 84, 0
2, 153415, Note_on_c, 0, 63, 0
2, 153480, Note_on_c, 0, 86, 95
2, 153480, Note_on_c, 0, 74, 95
2, 153480, Note_on_c, 0, 62, 95
2, 153480, Note_on_c, 0, 50, 95
2, 153535, Note_on_c, 0, 50, 0
2, 153535, Note_on_c, 0, 74, 0
2, 153535, Note_on_c, 0, 86, 0
2, 153535, Note_on_c, 0, 62, 0
2, 153600, Note_on_c, 0, 87, 95
2, 153600, Note_on_c, 0, 75, 95
2, 153600, Note_on_c, 0, 60, 95
2, 153600, Note_on_c, 0, 48, 95
2, 153655, Note_on_c, 0, 48, 0
2, 153655, Note_on_c, 0, 75, 0
2, 153655, Note_on_c, 0, 87, 0
2, 153655, Note_on_c, 0, 60, 0
2, 153720, Note_on_c, 0, 74, 95
2, 153720, Note_on_c, 0, 79, 95
2, 153720, Note_on_c, 0, 67, 95
2, 153720, Note_on_c, 0, 58, 95
2, 153720, Note_on_c, 0, 46, 95
2, 153775, Note_on_c, 0, 46, 0
2, 153775, Note_on_c, 0, 67, 0
2, 153775, Note_on_c, 0, 79, 0
2, 153775, Note_on_c, 0, 74, 0
2, 153775, Note_on_c, 0, 58, 0
2, 153840, Note_on_c, 0, 81, 95
2, 153840, Note_on_c, 0, 69, 95
2, 153895, Note_on_c, 0, 69, 0
2, 153895, Note_on_c, 0, 81, 0
2, 153900, Note_on_c, 0, 62, 95
2, 153900, Note_on_c, 0, 50, 95
2, 153955, Note_on_c, 0, 50, 0
2, 153955, Note_on_c, 0, 62, 0
2, 153960, Note_on_c, 0, 82, 95
2, 153960, Note_on_c, 0, 70, 95
2, 153960, Note_on_c, 0, 62, 95
2, 153960, Note_on_c, 0, 50, 95
2, 154015, Note_on_c, 0, 50, 0
2, 154015, Note_on_c, 0, 70, 0
2, 154015, Note_on_c, 0, 82, 0
2, 154015, Note_on_c, 0, 62, 0
2, 154080, Note_on_c, 0, 74, 95
2, 154080, Note_on_c, 0, 81, 95
2, 154080, Note_on_c, 0, 69, 95
2, 154080, Note_on_c, 0, 54, 95
2, 154080, Note_on_c, 0, 42, 95
2, 154135, Note_on_c, 0, 42, 0
2, 154135, Note_on_c, 0, 69, 0
2, 154135, Note_on_c, 0, 81, 0
2, 154135, Note_on_c, 0, 74, 0
2, 154135, Note_on_c, 0, 54, 0
2, 154200, Note_on_c, 0, 82, 95
2, 154200, Note_on_c, 0, 70, 95
2, 154255, Note_on_c, 0, 70, 0
2, 154255, Note_on_c, 0, 82, 0
2, 154260, Note_on_c, 0, 62, 95
2, 154260, Note_on_c, 0, 50, 95
2, 154315, Note_on_c, 0, 50, 0
2, 154315, Note_on_c, 0, 62, 0
2, 154320, Note_on_c, 0, 84, 95
2, 154320, Note_on_c, 0, 72, 95
2, 154320, Note_on_c, 0, 62, 95
2, 154320, Note_on_c, 0, 50, 95
2, 154375, Note_on_c, 0, 50, 0
2, 154375, Note_on_c, 0, 72, 0
2, 154375, Note_on_c, 0, 84, 0
2, 154375, Note_on_c, 0, 62, 0
2, 154440, Note_on_c, 0, 74, 95
2, 154440, Note_on_c, 0, 82, 95
2, 154440, Note_on_c, 0, 70, 95
2, 154440, Note_on_c, 0, 55, 95
2, 154440, Note_on_c, 0, 43, 95
2, 154495, Note_on_c, 0, 43, 0
2, 154495, Note_on_c, 0, 70, 0
2, 154495, Note_on_c, 0, 82, 0
2, 154495, Note_on_c, 0, 74, 0
2, 154495, Note_on_c, 0, 55, 0
2, 154560, Note_on_c, 0, 81, 95
2, 154560, Note_on_c, 0, 69, 95
2, 154615, Note_on_c, 0, 69, 0
2, 154615, Note_on_c, 0, 81, 0
2, 154620, Note_on_c, 0, 62, 95
2, 154620, Note_on_c, 0, 50, 95
2, 154675, Note_on_c, 0, 50, 0
2, 154675, Note_on_c, 0, 62, 0
2, 154680, Note_on_c, 0, 79, 95
2, 154680, Note_on_c, 0, 67, 95
2, 154680, Note_on_c, 0, 62, 95
2, 154680, Note_on_c, 0, 50, 95
2, 154735, Note_on_c, 0, 50, 0
2, 154735, Note_on_c, 0, 67, 0
2, 154735, Note_on_c, 0, 79, 0
2, 154735, Note_on_c, 0, 62, 0
2, 154800, Note_on_c, 0, 79, 117
2, 154800, Note_on_c, 0, 87, 117
2, 154800, Note_on_c, 0, 75, 117
2, 154800, Note_on_c, 0, 55, 117
2, 154800, Note_on_c, 0, 63, 117
2, 154800, Note_on_c, 0, 51, 117
2, 154855, Note_on_c, 0, 51, 0
2, 154855, Note_on_c, 0, 63, 0
2, 154855, Note_on_c, 0, 75, 0
2, 154855, Note_on_c, 0, 87, 0
2, 154855, Note_on_c, 0, 79, 0
2, 154855, Note_on_c, 0, 55, 0
2, 154920, Note_on_c, 0, 86, 95
2, 154920, Note_on_c, 0, 74, 95
2, 154920, Note_on_c, 0, 62, 95
2, 154920, Note_on_c, 0, 50, 95
2, 154975, Note_on_c, 0, 50, 0
2, 154975, Note_on_c, 0, 74, 0
2, 154975, Note_on_c, 0, 86, 0
2, 154975, Note_on_c, 0, 62, 0
2, 155040, Note_on_c, 0, 84, 95
2, 155040, Note_on_c, 0, 72, 95
2, 155040, Note_on_c, 0, 60, 95
2, 155040, Note_on_c, 0, 48, 95
2, 155095, Note_on_c, 0, 48, 0
2, 155095, Note_on_c, 0, 72, 0
2, 155095, Note_on_c, 0, 84, 0
2, 155095, Note_on_c, 0, 60, 0
2, 155160, Note_on_c, 0, 82, 117
2, 155160, Note_on_c, 0, 70, 117
2, 155160, Note_on_c, 0, 58, 117
2, 155160, Note_on_c, 0, 46, 117
2, 155215, Note_on_c, 0, 46, 0
2, 155215, Note_on_c, 0, 70, 0
2, 155215, Note_on_c, 0, 82, 0
2, 155215, Note_on_c, 0, 58, 0
2, 155280, Note_on_c, 0, 81, 95
2, 155280, Note_on_c, 0, 69, 95
2, 155280, Note_on_c, 0, 57, 95
2, 155280, Note_on_c, 0, 45, 95
2, 155335, Note_on_c, 0, 45, 0
2, 155335, Note_on_c, 0, 69, 0
2, 155335, Note_on_c, 0, 81, 0
2, 155335, Note_on_c, 0, 57, 0
2, 155400, Note_on_c, 0, 79, 95
2, 155400, Note_on_c, 0, 67, 95
2, 155400, Note_on_c, 0, 55, 95
2, 155400, Note_on_c, 0, 43, 95
2, 155455, Note_on_c, 0, 43, 0
2, 155455, Note_on_c, 0, 67, 0
2, 155455, Note_on_c, 0, 79, 0
2, 155455, Note_on_c, 0, 55, 0
2, 155520, Note_on_c, 0, 77, 117
2, 155520, Note_on_c, 0, 65, 117
2, 155520, Note_on_c, 0, 53, 117
2, 155520, Note_on_c, 0, 41, 117
2, 155575, Note_on_c, 0, 41, 0
2, 155575, Note_on_c, 0, 53, 0
2, 155575, Note_on_c, 0, 77, 0
2, 155575, Note_on_c, 0, 65, 0
2, 155640, Note_on_c, 0, 75, 95
2, 155640, Note_on_c, 0, 63, 95
2, 155695, Note_on_c, 0, 63, 0
2, 155695, Note_on_c, 0, 75, 0
2, 155700, Note_on_c, 0, 41, 95
2, 155700, Note_on_c, 0, 29, 95
2, 155755, Note_on_c, 0, 29, 0
2, 155755, Note_on_c, 0, 41, 0
2, 155760, Note_on_c, 0, 74, 95
2, 155760, Note_on_c, 0, 62, 95
2, 155760, Note_on_c, 0, 41, 95
2, 155760, Note_on_c, 0, 29, 95
2, 155815, Note_on_c, 0, 29, 0
2, 155815, Note_on_c, 0, 62, 0
2, 155815, Note_on_c, 0, 74, 0
2, 155815, Note_on_c, 0, 41, 0
2, 155880, Note_on_c, 0, 72, 117
2, 155880, Note_on_c, 0, 60, 117
2, 155880, Note_on_c, 0, 53, 117
2, 155880, Note_on_c, 0, 41, 117
2, 155935, Note_on_c, 0, 41, 0
2, 155935, Note_on_c, 0, 53, 0
2, 155935, Note_on_c, 0, 72, 0
2, 155935, Note_on_c, 0, 60, 0
2, 156000, Note_on_c, 0, 70, 95
2, 156000, Note_on_c, 0, 58, 95
2, 156055, Note_on_c, 0, 58, 0
2, 156055, Note_on_c, 0, 70, 0
2, 156060, Note_on_c, 0, 41, 95
2, 156060, Note_on_c, 0, 29, 95
2, 156115, Note_on_c, 0, 29, 0
2, 156115, Note_on_c, 0, 41, 0
2, 156120, Note_on_c, 0, 69, 95
2, 156120, Note_on_c, 0, 57, 95
2, 156120, Note_on_c, 0, 41, 95
2, 156120, Note_on_c, 0, 29, 95
2, 156175, Note_on_c, 0, 29, 0
2, 156175, Note_on_c, 0, 57, 0
2, 156175, Note_on_c, 0, 69, 0
2, 156175, Note_on_c, 0, 41, 0
2, 156240, Note_on_c, 0, 79, 117
2, 156240, Note_on_c, 0, 67, 117
2, 156240, Note_on_c, 0, 53, 117
2, 156240, Note_on_c, 0, 41, 117
2, 156295, Note_on_c, 0, 41, 0
2, 156295, Note_on_c, 0, 53, 0
2, 156295, Note_on_c, 0, 79, 0
2, 156295, Note_on_c, 0, 67, 0
2, 156360, Note_on_c, 0, 77, 95
2, 156360, Note_on_c, 0, 65, 95
2, 156415, Note_on_c, 0, 65, 0
2, 156415, Note_on_c, 0, 77, 0
2, 156420, Note_on_c, 0, 41, 95
2, 156420, Note_on_c, 0, 29, 95
2, 156475, Note_on_c, 0, 29, 0
2, 156475, Note_on_c, 0, 41, 0
2, 156480, Note_on_c, 0, 75, 95
2, 156480, Note_on_c, 0, 63, 95
2, 156480, Note_on_c, 0, 41, 95
2, 156480, Note_on_c, 0, 29, 95
2, 156535, Note_on_c, 0, 29, 0
2, 156535, Note_on_c, 0, 63, 0
2, 156535, Note_on_c, 0, 75, 0
2, 156535, Note_on_c, 0, 41, 0
2, 156600, Note_on_c, 0, 74, 117
2, 156600, Note_on_c, 0, 62, 117
2, 156600, Note_on_c, 0, 53, 117
2, 156600, Note_on_c, 0, 41, 117
2, 156655, Note_on_c, 0, 41, 0
2, 156655, Note_on_c, 0, 53, 0
2, 156655, Note_on_c, 0, 74, 0
2, 156655, Note_on_c, 0, 62, 0
2, 156720, Note_on_c, 0, 75, 95
2, 156720, Note_on_c, 0, 63, 95
2, 156775, Note_on_c, 0, 63, 0
2, 156775, Note_on_c, 0, 75, 0
2, 156780, Note_on_c, 0, 60, 95
2, 156780, Note_on_c, 0, 48, 95
2, 156835, Note_on_c, 0, 48, 0
2, 156835, Note_on_c, 0, 60, 0
2, 156840, Note_on_c, 0, 77, 95
2, 156840, Note_on_c, 0, 65, 95
2, 156840, Note_on_c, 0, 58, 95
2, 156840, Note_on_c, 0, 46, 95
2, 156895, Note_on_c, 0, 46, 0
2, 156895, Note_on_c, 0, 65, 0
2, 156895, Note_on_c, 0, 77, 0
2, 156895, Note_on_c, 0, 58, 0
2, 156960, Note_on_c, 0, 79, 117
2, 156960, Note_on_c, 0, 67, 117
2, 156960, Note_on_c, 0, 57, 117
2, 156960, Note_on_c, 0, 45, 117
2, 157015, Note_on_c, 0, 45, 0
2, 157015, Note_on_c, 0, 67, 0
2, 157015, Note_on_c, 0, 79, 0
2, 157015, Note_on_c, 0, 57, 0
2, 157080, Note_on_c, 0, 81, 95
2, 157080, Note_on_c, 0, 69, 95
2, 157135, Note_on_c, 0, 69, 0
2, 157135, Note_on_c, 0, 81, 0
2, 157140, Note_on_c, 0, 55, 95
2, 157140, Note_on_c, 0, 43, 95
2, 157195, Note_on_c, 0, 43, 0
2, 157195, Note_on_c, 0, 55, 0
2, 157200, Note_on_c, 0, 82, 95
2, 157200, Note_on_c, 0, 70, 95
2, 157200, Note_on_c, 0, 53, 95
2, 157200, Note_on_c, 0, 41, 95
2, 157255, Note_on_c, 0, 41, 0
2, 157255, Note_on_c, 0, 53, 0
2, 157255, Note_on_c, 0, 82, 0
2, 157255, Note_on_c, 0, 70, 0
2, 157320, Note_on_c, 0, 84, 117
2, 157320, Note_on_c, 0, 72, 117
2, 157320, Note_on_c, 0, 51, 95
2, 157320, Note_on_c, 0, 39, 95
2, 157375, Note_on_c, 0, 39, 0
2, 157375, Note_on_c, 0, 72, 0
2, 157375, Note_on_c, 0, 84, 0
2, 157375, Note_on_c, 0, 51, 0
2, 157440, Note_on_c, 0, 86, 95
2, 157440, Note_on_c, 0, 74, 95
2, 157495, Note_on_c, 0, 74, 0
2, 157495, Note_on_c, 0, 86, 0
2, 157500, Note_on_c, 0, 50, 95
2, 157500, Note_on_c, 0, 38, 95
2, 157555, Note_on_c, 0, 38, 0
2, 157555, Note_on_c, 0, 50, 0
2, 157560, Note_on_c, 0, 87, 95
2, 157560, Note_on_c, 0, 75, 95
2, 157560, Note_on_c, 0, 48, 95
2, 157560, Note_on_c, 0, 36, 95
2, 157615, Note_on_c, 0, 36, 0
2, 157615, Note_on_c, 0, 75, 0
2, 157615, Note_on_c, 0, 87, 0
2, 157615, Note_on_c, 0, 48, 0
2, 157680, Note_on_c, 0, 89, 95
2, 157680, Note_on_c, 0, 77, 95
2, 157680, Note_on_c, 0, 46, 95
2, 157680, Note_on_c, 0, 34, 95
2, 157735, Note_on_c, 0, 34, 0
2, 157735, Note_on_c, 0, 46, 0
2, 158040, Note_on_c, 0, 58, 53
2, 158095, Note_on_c, 0, 58, 0
2, 158220, Note_on_c, 0, 65, 53
2, 158275, Note_on_c, 0, 65, 0
2, 158280, Note_on_c, 0, 65, 53
2, 158335, Note_on_c, 0, 65, 0
2, 158400, Note_on_c, 0, 79, 69
2, 158400, Note_on_c, 0, 77, 69
2, 158400, Note_on_c, 0, 51, 59
2, 158580, Note_on_c, 0, 67, 65
2, 158580, Note_on_c, 0, 65, 65
2, 158635, Note_on_c, 0, 65, 0
2, 158635, Note_on_c, 0, 67, 0
2, 158640, Note_on_c, 0, 67, 71
2, 158640, Note_on_c, 0, 65, 71
2, 158695, Note_on_c, 0, 65, 0
2, 158695, Note_on_c, 0, 67, 0
2, 158755, Note_on_c, 0, 51, 0
2, 158755, Note_on_c, 0, 77, 0
2, 158755, Note_on_c, 0, 79, 0
2, 158760, Note_on_c, 0, 79, 85
2, 158760, Note_on_c, 0, 87, 85
2, 158760, Note_on_c, 0, 75, 85
2, 158760, Note_on_c, 0, 48, 77
2, 158875, Note_on_c, 0, 48, 0
2, 158940, Note_on_c, 0, 67, 83
2, 158940, Note_on_c, 0, 72, 83
2, 158940, Note_on_c, 0, 63, 83
2, 158995, Note_on_c, 0, 63, 0
2, 158995, Note_on_c, 0, 72, 0
2, 158995, Note_on_c, 0, 67, 0
2, 159000, Note_on_c, 0, 67, 90
2, 159000, Note_on_c, 0, 72, 90
2, 159000, Note_on_c, 0, 63, 90
2, 159055, Note_on_c, 0, 63, 0
2, 159055, Note_on_c, 0, 72, 0
2, 159055, Note_on_c, 0, 67, 0
2, 159115, Note_on_c, 0, 75, 0
2, 159115, Note_on_c, 0, 79, 0
2, 159115, Note_on_c, 0, 87, 0
2, 159120, Note_on_c, 0, 81, 101
2, 159120, Note_on_c, 0, 87, 101
2, 159120, Note_on_c, 0, 75, 101
2, 159120, Note_on_c, 0, 53, 99
2, 159220, Note_on_c, 0, 53, 0
2, 159300, Note_on_c, 0, 69, 102
2, 159300, Note_on_c, 0, 72, 102
2, 159300, Note_on_c, 0, 63, 102
2, 159355, Note_on_c, 0, 63, 0
2, 159355, Note_on_c, 0, 72, 0
2, 159355, Note_on_c, 0, 69, 0
2, 159360, Note_on_c, 0, 69, 108
2, 159360, Note_on_c, 0, 72, 108
2, 159360, Note_on_c, 0, 63, 108
2, 159415, Note_on_c, 0, 63, 0
2, 159415, Note_on_c, 0, 72, 0
2, 159415, Note_on_c, 0, 69, 0
2, 159475, Note_on_c, 0, 81, 0
2, 159475, Note_on_c, 0, 87, 0
2, 159475, Note_on_c, 0, 75, 0
2, 159480, Note_on_c, 0, 82, 117
2, 159480, Note_on_c, 0, 86, 117
2, 159480, Note_on_c, 0, 74, 117
2, 159480, Note_on_c, 0, 46, 117
2, 159535, Note_on_c, 0, 46, 0
2, 159660, Note_on_c, 0, 65, 89
2, 159660, Note_on_c, 0, 70, 89
2, 159660, Note_on_c, 0, 62, 89
2, 159715, Note_on_c, 0, 62, 0
2, 159715, Note_on_c, 0, 70, 0
2, 159715, Note_on_c, 0, 65, 0
2, 159720, Note_on_c, 0, 65, 76
2, 159720, Note_on_c, 0, 70, 76
2, 159720, Note_on_c, 0, 62, 76
2, 159775, Note_on_c, 0, 62, 0
2, 159775, Note_on_c, 0, 70, 0
2, 159775, Note_on_c, 0, 65, 0
2, 159835, Note_on_c, 0, 74, 0
2, 159835, Note_on_c, 0, 82, 0
2, 159835, Note_on_c, 0, 86, 0
2, 159840, Note_on_c, 0, 82, 117
2, 159840, Note_on_c, 0, 85, 117
2, 159840, Note_on_c, 0, 73, 117
2, 159840, Note_on_c, 0, 53, 57
2, 159895, Note_on_c, 0, 53, 0
2, 160020, Note_on_c, 0, 65, 51
2, 160020, Note_on_c, 0, 70, 51
2, 160020, Note_on_c, 0, 61, 51
2, 160075, Note_on_c, 0, 61, 0
2, 160075, Note_on_c, 0, 70, 0
2, 160075, Note_on_c, 0, 65, 0
2, 160080, Note_on_c, 0, 65, 38
2, 160080, Note_on_c, 0, 70, 38
2, 160080, Note_on_c, 0, 61, 38
2, 160135, Note_on_c, 0, 61, 0
2, 160135, Note_on_c, 0, 70, 0
2, 160135, Note_on_c, 0, 65, 0
2, 160195, Note_on_c, 0, 82, 0
2, 160195, Note_on_c, 0, 85, 0
2, 160195, Note_on_c, 0, 73, 0
2, 160200, Note_on_c, 0, 81, 117
2, 160200, Note_on_c, 0, 84, 117
2, 160200, Note_on_c, 0, 72, 117
2, 160200, Note_on_c, 0, 53, 19
2, 160255, Note_on_c, 0, 53, 0
2, 160380, Note_on_c, 0, 65, 13
2, 160380, Note_on_c, 0, 69, 13
2, 160380, Note_on_c, 0, 60, 13
2, 160435, Note_on_c, 0, 60, 0
2, 160435, Note_on_c, 0, 69, 0
2, 160435, Note_on_c, 0, 65, 0
2, 160440, Note_on_c, 0, 65, 1
2, 160440, Note_on_c, 0, 69, 1
2, 160440, Note_on_c, 0, 60, 1
2, 160495, Note_on_c, 0, 60, 0
2, 160495, Note_on_c, 0, 69, 0
2, 160495, Note_on_c, 0, 65, 0
2, 160555, Note_on_c, 0, 81, 0
2, 160555, Note_on_c, 0, 84, 0
2, 160555, Note_on_c, 0, 72, 0
2, 160560, Note_on_c, 0, 82, 53
2, 160560, Note_on_c, 0, 70, 53
2, 160560, Note_on_c, 0, 58, 1
2, 160560, Note_on_c, 0, 46, 1
2, 161280, Note_on_c, 0, 46, 0
2, 161280, Note_on_c, 0, 58, 0
2, 161280, Note_on_c, 0, 82, 0
2, 161280, Note_on_c, 0, 70, 0
2, 161280, Note_on_c, 0, 81, 53
2, 161280, Note_on_c, 0, 69, 53
2, 161280, Note_on_c, 0, 57, 1
2, 161280, Note_on_c, 0, 45, 1
2, 161635, Note_on_c, 0, 45, 0
2, 161635, Note_on_c, 0, 57, 0
2, 161635, Note_on_c, 0, 69, 0
2, 161640, Note_on_c, 0, 57, 1
2, 161695, Note_on_c, 0, 57, 0
2, 161780, Note_on_c, 0, 81, 0
2, 161820, Note_on_c, 0, 69, 1
2, 161875, Note_on_c, 0, 69, 0
2, 161880, Note_on_c, 0, 69, 1
2, 161935, Note_on_c, 0, 69, 0
2, 162000, Note_on_c, 0, 83, 74
2, 162000, Note_on_c, 0, 81, 74
2, 162000, Note_on_c, 0, 57, 19
2, 162055, Note_on_c, 0, 57, 0
2, 162180, Note_on_c, 0, 71, 26
2, 162180, Note_on_c, 0, 69, 26
2, 162235, Note_on_c, 0, 69, 0
2, 162235, Note_on_c, 0, 71, 0
2, 162240, Note_on_c, 0, 71, 39
2, 162240, Note_on_c, 0, 69, 39
2, 162295, Note_on_c, 0, 69, 0
2, 162295, Note_on_c, 0, 71, 0
2, 162355, Note_on_c, 0, 83, 0
2, 162355, Note_on_c, 0, 81, 0
2, 162360, Note_on_c, 0, 83, 96
2, 162360, Note_on_c, 0, 88, 96
2, 162360, Note_on_c, 0, 79, 96
2, 162360, Note_on_c, 0, 57, 58
2, 162415, Note_on_c, 0, 57, 0
2, 162540, Note_on_c, 0, 71, 65
2, 162540, Note_on_c, 0, 76, 65
2, 162540, Note_on_c, 0, 67, 65
2, 162595, Note_on_c, 0, 67, 0
2, 162595, Note_on_c, 0, 76, 0
2, 162595, Note_on_c, 0, 71, 0
2, 162600, Note_on_c, 0, 71, 78
2, 162600, Note_on_c, 0, 76, 78
2, 162600, Note_on_c, 0, 67, 78
2, 162655, Note_on_c, 0, 67, 0
2, 162655, Note_on_c, 0, 76, 0
2, 162655, Note_on_c, 0, 71, 0
2, 162715, Note_on_c, 0, 79, 0
2, 162715, Note_on_c, 0, 83, 0
2, 162715, Note_on_c, 0, 88, 0
2, 162720, Note_on_c, 0, 82, 117
2, 162720, Note_on_c, 0, 88, 117
2, 162720, Note_on_c, 0, 79, 117
2, 162720, Note_on_c, 0, 57, 97
2, 162775, Note_on_c, 0, 57, 0
2, 162900, Note_on_c, 0, 70, 104
2, 162900, Note_on_c, 0, 76, 104
2, 162900, Note_on_c, 0, 67, 104
2, 162955, Note_on_c, 0, 67, 0
2, 162955, Note_on_c, 0, 76, 0
2, 162955, Note_on_c, 0, 70, 0
2, 162960, Note_on_c, 0, 70, 117
2, 162960, Note_on_c, 0, 76, 117
2, 162960, Note_on_c, 0, 67, 117
2, 163015, Note_on_c, 0, 67, 0
2, 163015, Note_on_c, 0, 76, 0
2, 163015, Note_on_c, 0, 70, 0
2, 163075, Note_on_c, 0, 79, 0
2, 163075, Note_on_c, 0, 82, 0
2, 163075, Note_on_c, 0, 88, 0
2, 163080, Note_on_c, 0, 81, 47
2, 163080, Note_on_c, 0, 86, 47
2, 163080, Note_on_c, 0, 78, 47
2, 163080, Note_on_c, 0, 57, 98
2, 163135, Note_on_c, 0, 57, 0
2, 163260, Note_on_c, 0, 69, 91
2, 163260, Note_on_c, 0, 74, 91
2, 163260, Note_on_c, 0, 66, 91
2, 163315, Note_on_c, 0, 66, 0
2, 163315, Note_on_c, 0, 74, 0
2, 163315, Note_on_c, 0, 69, 0
2, 163320, Note_on_c, 0, 69, 78
2, 163320, Note_on_c, 0, 74, 78
2, 163320, Note_on_c, 0, 66, 78
2, 163375, Note_on_c, 0, 66, 0
2, 163375, Note_on_c, 0, 74, 0
2, 163375, Note_on_c, 0, 69, 0
2, 163435, Note_on_c, 0, 78, 0
2, 163435, Note_on_c, 0, 81, 0
2, 163435, Note_on_c, 0, 86, 0
2, 163440, Note_on_c, 0, 81, 24
2, 163440, Note_on_c, 0, 86, 24
2, 163440, Note_on_c, 0, 77, 24
2, 163440, Note_on_c, 0, 57, 59
2, 163495, Note_on_c, 0, 57, 0
2, 163620, Note_on_c, 0, 69, 52
2, 163620, Note_on_c, 0, 74, 52
2, 163620, Note_on_c, 0, 65, 52
2, 163675, Note_on_c, 0, 65, 0
2, 163675, Note_on_c, 0, 74, 0
2, 163675, Note_on_c, 0, 69, 0
2, 163680, Note_on_c, 0, 69, 39
2, 163680, Note_on_c, 0, 74, 39
2, 163680, Note_on_c, 0, 65, 39
2, 163735, Note_on_c, 0, 65, 0
2, 163735, Note_on_c, 0, 74, 0
2, 163735, Note_on_c, 0, 69, 0
2, 163795, Note_on_c, 0, 86, 0
2, 163795, Note_on_c, 0, 77, 0
2, 163795, Note_on_c, 0, 81, 0
2, 163800, Note_on_c, 0, 81, 1
2, 163800, Note_on_c, 0, 85, 1
2, 163800, Note_on_c, 0, 76, 1
2, 163800, Note_on_c, 0, 57, 20
2, 163855, Note_on_c, 0, 57, 0
2, 163980, Note_on_c, 0, 69, 13
2, 163980, Note_on_c, 0, 73, 13
2, 163980, Note_on_c, 0, 64, 13
2, 164035, Note_on_c, 0, 64, 0
2, 164035, Note_on_c, 0, 73, 0
2, 164035, Note_on_c, 0, 69, 0
2, 164040, Note_on_c, 0, 69, 1
2, 164040, Note_on_c, 0, 73, 1
2, 164040, Note_on_c, 0, 64, 1
2, 164095, Note_on_c, 0, 64, 0
2, 164095, Note_on_c, 0, 73, 0
2, 164095, Note_on_c, 0, 69, 0
2, 164155, Note_on_c, 0, 76, 0
2, 164155, Note_on_c, 0, 81, 0
2, 164155, Note_on_c, 0, 85, 0
2, 164160, Note_on_c, 0, 45, 1
2, 164520, Note_on_c, 0, 69, 37
2, 164575, Note_on_c, 0, 69, 0
2, 164700, Note_on_c, 0, 57, 37
2, 164755, Note_on_c, 0, 57, 0
2, 164760, Note_on_c, 0, 57, 37
2, 164815, Note_on_c, 0, 57, 0
2, 164880, Note_on_c, 0, 70, 37
2, 164880, Note_on_c, 0, 69, 37
2, 164935, Note_on_c, 0, 69, 0
2, 164935, Note_on_c, 0, 70, 0
2, 165060, Note_on_c, 0, 58, 37
2, 165060, Note_on_c, 0, 57, 37
2, 165115, Note_on_c, 0, 57, 0
2, 165115, Note_on_c, 0, 58, 0
2, 165120, Note_on_c, 0, 45, 0
2, 165120, Note_on_c, 0, 58, 37
2, 165120, Note_on_c, 0, 57, 37
2, 165175, Note_on_c, 0, 57, 0
2, 165175, Note_on_c, 0, 58, 0
2, 165240, Note_on_c, 0, 70, 37
2, 165240, Note_on_c, 0, 76, 37
2, 165240, Note_on_c, 0, 67, 37
2, 165240, Note_on_c, 0, 45, 37
2, 165295, Note_on_c, 0, 45, 0
2, 165295, Note_on_c, 0, 67, 0
2, 165295, Note_on_c, 0, 70, 0
2, 165295, Note_on_c, 0, 76, 0
2, 165420, Note_on_c, 0, 64, 37
2, 165420, Note_on_c, 0, 58, 37
2, 165420, Note_on_c, 0, 55, 37
2, 165475, Note_on_c, 0, 55, 0
2, 165475, Note_on_c, 0, 64, 0
2, 165475, Note_on_c, 0, 58, 0
2, 165480, Note_on_c, 0, 64, 37
2, 165480, Note_on_c, 0, 58, 37
2, 165480, Note_on_c, 0, 55, 37
2, 165535, Note_on_c, 0, 55, 0
2, 165535, Note_on_c, 0, 64, 0
2, 165535, Note_on_c, 0, 58, 0
2, 165600, Note_on_c, 0, 69, 37
2, 165600, Note_on_c, 0, 76, 37
2, 165600, Note_on_c, 0, 67, 37
2, 165600, Note_on_c, 0, 45, 37
2, 165655, Note_on_c, 0, 45, 0
2, 165655, Note_on_c, 0, 67, 0
2, 165655, Note_on_c, 0, 69, 0
2, 165655, Note_on_c, 0, 76, 0
2, 165780, Note_on_c, 0, 64, 37
2, 165780, Note_on_c, 0, 57, 37
2, 165780, Note_on_c, 0, 55, 37
2, 165835, Note_on_c, 0, 55, 0
2, 165835, Note_on_c, 0, 64, 0
2, 165835, Note_on_c, 0, 57, 0
2, 165840, Note_on_c, 0, 64, 37
2, 165840, Note_on_c, 0, 57, 37
2, 165840, Note_on_c, 0, 55, 37
2, 165895, Note_on_c, 0, 55, 0
2, 165895, Note_on_c, 0, 64, 0
2, 165895, Note_on_c, 0, 57, 0
2, 165960, Note_on_c, 0, 69, 37
2, 165960, Note_on_c, 0, 74, 37
2, 165960, Note_on_c, 0, 66, 37
2, 165960, Note_on_c, 0, 45, 37
2, 166015, Note_on_c, 0, 45, 0
2, 166015, Note_on_c, 0, 66, 0
2, 166015, Note_on_c, 0, 69, 0
2, 166015, Note_on_c, 0, 74, 0
2, 166140, Note_on_c, 0, 62, 37
2, 166140, Note_on_c, 0, 57, 37
2, 166140, Note_on_c, 0, 54, 37
2, 166195, Note_on_c, 0, 54, 0
2, 166195, Note_on_c, 0, 62, 0
2, 166195, Note_on_c, 0, 57, 0
2, 166200, Note_on_c, 0, 62, 37
2, 166200, Note_on_c, 0, 57, 37
2, 166200, Note_on_c, 0, 54, 37
2, 166255, Note_on_c, 0, 54, 0
2, 166255, Note_on_c, 0, 62, 0
2, 166255, Note_on_c, 0, 57, 0
2, 166320, Note_on_c, 0, 68, 37
2, 166320, Note_on_c, 0, 74, 37
2, 166320, Note_on_c, 0, 65, 37
2, 166320, Note_on_c, 0, 45, 37
2, 166375, Note_on_c, 0, 45, 0
2, 166375, Note_on_c, 0, 65, 0
2, 166375, Note_on_c, 0, 68, 0
2, 166375, Note_on_c, 0, 74, 0
2, 166500, Note_on_c, 0, 62, 37
2, 166500, Note_on_c, 0, 56, 37
2, 166500, Note_on_c, 0, 53, 37
2, 166555, Note_on_c, 0, 56, 0
2, 166555, Note_on_c, 0, 53, 0
2, 166555, Note_on_c, 0, 62, 0
2, 166560, Note_on_c, 0, 62, 37
2, 166560, Note_on_c, 0, 56, 37
2, 166560, Note_on_c, 0, 53, 37
2, 166615, Note_on_c, 0, 56, 0
2, 166615, Note_on_c, 0, 53, 0
2, 166615, Note_on_c, 0, 62, 0
2, 166680, Note_on_c, 0, 67, 37
2, 166680, Note_on_c, 0, 73, 37
2, 166680, Note_on_c, 0, 64, 37
2, 166680, Note_on_c, 0, 45, 37
2, 166735, Note_on_c, 0, 45, 0
2, 166735, Note_on_c, 0, 64, 0
2, 166735, Note_on_c, 0, 67, 0
2, 166735, Note_on_c, 0, 73, 0
2, 166860, Note_on_c, 0, 61, 37
2, 166860, Note_on_c, 0, 55, 37
2, 166860, Note_on_c, 0, 52, 37
2, 166915, Note_on_c, 0, 52, 0
2, 166915, Note_on_c, 0, 61, 0
2, 166915, Note_on_c, 0, 55, 0
2, 166920, Note_on_c, 0, 61, 37
2, 166920, Note_on_c, 0, 55, 37
2, 166920, Note_on_c, 0, 52, 37
2, 166975, Note_on_c, 0, 52, 0
2, 166975, Note_on_c, 0, 61, 0
2, 166975, Note_on_c, 0, 55, 0
2, 167040, Note_on_c, 0, 81, 37
2, 167040, Note_on_c, 0, 69, 37
2, 167040, Note_on_c, 0, 57, 37
2, 167095, Note_on_c, 0, 57, 0
2, 167220, Note_on_c, 0, 45, 37
2, 167275, Note_on_c, 0, 45, 0
2, 167280, Note_on_c, 0, 45, 37
2, 167335, Note_on_c, 0, 45, 0
2, 167395, Note_on_c, 0, 81, 0
2, 167395, Note_on_c, 0, 69, 0
2, 167400, Note_on_c, 0, 83, 48
2, 167400, Note_on_c, 0, 90, 48
2, 167400, Note_on_c, 0, 78, 48
2, 167400, Note_on_c, 0, 57, 41
2, 167455, Note_on_c, 0, 57, 0
2, 167580, Note_on_c, 0, 45, 45
2, 167635, Note_on_c, 0, 45, 0
2, 167640, Note_on_c, 0, 45, 47
2, 167695, Note_on_c, 0, 45, 0
2, 167755, Note_on_c, 0, 83, 0
2, 167760, Note_on_c, 0, 87, 60
2, 167760, Note_on_c, 0, 59, 52
2, 167760, Note_on_c, 0, 57, 52
2, 167815, Note_on_c, 0, 57, 0
2, 167815, Note_on_c, 0, 59, 0
2, 167940, Note_on_c, 0, 47, 56
2, 167940, Note_on_c, 0, 45, 56
2, 167995, Note_on_c, 0, 45, 0
2, 167995, Note_on_c, 0, 47, 0
2, 168000, Note_on_c, 0, 47, 58
2, 168000, Note_on_c, 0, 45, 58
2, 168055, Note_on_c, 0, 45, 0
2, 168055, Note_on_c, 0, 47, 0
2, 168115, Note_on_c, 0, 87, 0
2, 168120, Note_on_c, 0, 78, 0
2, 168120, Note_on_c, 0, 90, 0
2, 168120, Note_on_c, 0, 88, 71
2, 168120, Note_on_c, 0, 91, 71
2, 168120, Note_on_c, 0, 79, 71
2, 168120, Note_on_c, 0, 59, 64
2, 168120, Note_on_c, 0, 64, 64
2, 168120, Note_on_c, 0, 55, 64
2, 168175, Note_on_c, 0, 55, 0
2, 168175, Note_on_c, 0, 64, 0
2, 168175, Note_on_c, 0, 59, 0
2, 168300, Note_on_c, 0, 43, 67
2, 168355, Note_on_c, 0, 43, 0
2, 168360, Note_on_c, 0, 43, 69
2, 168415, Note_on_c, 0, 43, 0
2, 168475, Note_on_c, 0, 79, 0
2, 168475, Note_on_c, 0, 88, 0
2, 168475, Note_on_c, 0, 91, 0
2, 168480, Note_on_c, 0, 85, 83
2, 168480, Note_on_c, 0, 88, 83
2, 168480, Note_on_c, 0, 76, 83
2, 168480, Note_on_c, 0, 57, 75
2, 168480, Note_on_c, 0, 64, 75
2, 168480, Note_on_c, 0, 55, 75
2, 168535, Note_on_c, 0, 55, 0
2, 168535, Note_on_c, 0, 64, 0
2, 168535, Note_on_c, 0, 57, 0
2, 168660, Note_on_c, 0, 43, 79
2, 168715, Note_on_c, 0, 43, 0
2, 168720, Note_on_c, 0, 43, 81
2, 168775, Note_on_c, 0, 43, 0
2, 168835, Note_on_c, 0, 76, 0
2, 168835, Note_on_c, 0, 85, 0
2, 168835, Note_on_c, 0, 88, 0
2, 168840, Note_on_c, 0, 86, 94
2, 168840, Note_on_c, 0, 90, 94
2, 168840, Note_on_c, 0, 78, 94
2, 168840, Note_on_c, 0, 57, 87
2, 168840, Note_on_c, 0, 62, 87
2, 168840, Note_on_c, 0, 54, 87
2, 168895, Note_on_c, 0, 54, 0
2, 168895, Note_on_c, 0, 62, 0
2, 168895, Note_on_c, 0, 57, 0
2, 169020, Note_on_c, 0, 42, 90
2, 169075, Note_on_c, 0, 42, 0
2, 169080, Note_on_c, 0, 42, 92
2, 169135, Note_on_c, 0, 42, 0
2, 169195, Note_on_c, 0, 78, 0
2, 169195, Note_on_c, 0, 86, 0
2, 169195, Note_on_c, 0, 90, 0
2, 169200, Note_on_c, 0, 86, 106
2, 169200, Note_on_c, 0, 93, 106
2, 169200, Note_on_c, 0, 81, 106
2, 169200, Note_on_c, 0, 57, 98
2, 169200, Note_on_c, 0, 62, 98
2, 169200, Note_on_c, 0, 53, 98
2, 169255, Note_on_c, 0, 62, 0
2, 169255, Note_on_c, 0, 57, 0
2, 169255, Note_on_c, 0, 53, 0
2, 169380, Note_on_c, 0, 41, 102
2, 169435, Note_on_c, 0, 41, 0
2, 169440, Note_on_c, 0, 41, 104
2, 169495, Note_on_c, 0, 41, 0
2, 169555, Note_on_c, 0, 86, 0
2, 169555, Note_on_c, 0, 81, 0
2, 169560, Note_on_c, 0, 85, 113
2, 169560, Note_on_c, 0, 79, 113
2, 169560, Note_on_c, 0, 57, 109
2, 169560, Note_on_c, 0, 61, 109
2, 169560, Note_on_c, 0, 52, 109
2, 169615, Note_on_c, 0, 52, 0
2, 169615, Note_on_c, 0, 61, 0
2, 169615, Note_on_c, 0, 57, 0
2, 169740, Note_on_c, 0, 93, 0
2, 169740, Note_on_c, 0, 40, 113
2, 169795, Note_on_c, 0, 40, 0
2, 169795, Note_on_c, 0, 79, 0
2, 169795, Note_on_c, 0, 85, 0
2, 169800, Note_on_c, 0, 73, 115
2, 169800, Note_on_c, 0, 61, 115
2, 169800, Note_on_c, 0, 40, 117
2, 169855, Note_on_c, 0, 40, 0
2, 169855, Note_on_c, 0, 73, 0
2, 169855, Note_on_c, 0, 61, 0
2, 169920, Note_on_c, 0, 74, 117
2, 169920, Note_on_c, 0, 62, 117
2, 169920, Note_on_c, 0, 50, 117
2, 169920, Note_on_c, 0, 38, 117
2, 169975, Note_on_c, 0, 38, 0
2, 169975, Note_on_c, 0, 50, 0
2, 170100, Note_on_c, 0, 50, 117
2, 170100, Note_on_c, 0, 38, 117
2, 170155, Note_on_c, 0, 38, 0
2, 170155, Note_on_c, 0, 50, 0
2, 170155, Note_on_c, 0, 62, 0
2, 170155, Note_on_c, 0, 74, 0
2, 170160, Note_on_c, 0, 76, 117
2, 170160, Note_on_c, 0, 64, 117
2, 170160, Note_on_c, 0, 50, 117
2, 170160, Note_on_c, 0, 38, 117
2, 170215, Note_on_c, 0, 38, 0
2, 170215, Note_on_c, 0, 50, 0
2, 170215, Note_on_c, 0, 76, 0
2, 170215, Note_on_c, 0, 64, 0
2, 170220, Note_on_c, 0, 78, 117
2, 170220, Note_on_c, 0, 66, 117
2, 170275, Note_on_c, 0, 66, 0
2, 170275, Note_on_c, 0, 78, 0
2, 170280, Note_on_c, 0, 79, 117
2, 170280, Note_on_c, 0, 67, 117
2, 170280, Note_on_c, 0, 62, 117
2, 170280, Note_on_c, 0, 50, 117
2, 170335, Note_on_c, 0, 50, 0
2, 170335, Note_on_c, 0, 62, 0
2, 170335, Note_on_c, 0, 79, 0
2, 170335, Note_on_c, 0, 67, 0
2, 170460, Note_on_c, 0, 50, 117
2, 170460, Note_on_c, 0, 38, 117
2, 170515, Note_on_c, 0, 38, 0
2, 170515, Note_on_c, 0, 50, 0
2, 170520, Note_on_c, 0, 78, 117
2, 170520, Note_on_c, 0, 66, 117
2, 170520, Note_on_c, 0, 50, 117
2, 170520, Note_on_c, 0, 38, 117
2, 170575, Note_on_c, 0, 38, 0
2, 170575, Note_on_c, 0, 66, 0
2, 170575, Note_on_c, 0, 78, 0
2, 170580, Note_on_c, 0, 50, 0
2, 170640, Note_on_c, 0, 76, 117
2, 170640, Note_on_c, 0, 64, 117
2, 170640, Note_on_c, 0, 62, 117
2, 170640, Note_on_c, 0, 50, 117
2, 170695, Note_on_c, 0, 50, 0
2, 170695, Note_on_c, 0, 62, 0
2, 170695, Note_on_c, 0, 76, 0
2, 170695, Note_on_c, 0, 64, 0
2, 170820, Note_on_c, 0, 50, 117
2, 170820, Note_on_c, 0, 38, 117
2, 170875, Note_on_c, 0, 38, 0
2, 170875, Note_on_c, 0, 50, 0
2, 170880, Note_on_c, 0, 74, 117
2, 170880, Note_on_c, 0, 62, 117
2, 170880, Note_on_c, 0, 50, 117
2, 170880, Note_on_c, 0, 38, 117
2, 170935, Note_on_c, 0, 38, 0
2, 170935, Note_on_c, 0, 50, 0
2, 170935, Note_on_c, 0, 74, 0
2, 170935, Note_on_c, 0, 62, 0
2, 171000, Note_on_c, 0, 76, 117
2, 171000, Note_on_c, 0, 64, 117
2, 171000, Note_on_c, 0, 62, 117
2, 171000, Note_on_c, 0, 50, 117
2, 171055, Note_on_c, 0, 50, 0
2, 171055, Note_on_c, 0, 62, 0
2, 171055, Note_on_c, 0, 76, 0
2, 171055, Note_on_c, 0, 64, 0
2, 171180, Note_on_c, 0, 50, 117
2, 171180, Note_on_c, 0, 38, 117
2, 171235, Note_on_c, 0, 38, 0
2, 171235, Note_on_c, 0, 50, 0
2, 171240, Note_on_c, 0, 73, 117
2, 171240, Note_on_c, 0, 61, 117
2, 171240, Note_on_c, 0, 50, 117
2, 171240, Note_on_c, 0, 38, 117
2, 171295, Note_on_c, 0, 38, 0
2, 171295, Note_on_c, 0, 50, 0
2, 171295, Note_on_c, 0, 73, 0
2, 171295, Note_on_c, 0, 61, 0
2, 171360, Note_on_c, 0, 74, 117
2, 171360, Note_on_c, 0, 78, 117
2, 171360, Note_on_c, 0, 66, 117
2, 171360, Note_on_c, 0, 62, 117
2, 171360, Note_on_c, 0, 50, 117
2, 171415, Note_on_c, 0, 50, 0
2, 171415, Note_on_c, 0, 62, 0
2, 171540, Note_on_c, 0, 50, 117
2, 171540, Note_on_c, 0, 38, 117
2, 171595, Note_on_c, 0, 38, 0
2, 171595, Note_on_c, 0, 50, 0
2, 171595, Note_on_c, 0, 66, 0
2, 171595, Note_on_c, 0, 74, 0
2, 171595, Note_on_c, 0, 78, 0
2, 171600, Note_on_c, 0, 76, 117
2, 171600, Note_on_c, 0, 79, 117
2, 171600, Note_on_c, 0, 67, 117
2, 171600, Note_on_c, 0, 50, 117
2, 171600, Note_on_c, 0, 38, 117
2, 171655, Note_on_c, 0, 38, 0
2, 171655, Note_on_c, 0, 50, 0
2, 171655, Note_on_c, 0, 67, 0
2, 171655, Note_on_c, 0, 76, 0
2, 171655, Note_on_c, 0, 79, 0
2, 171660, Note_on_c, 0, 77, 117
2, 171660, Note_on_c, 0, 81, 117
2, 171660, Note_on_c, 0, 69, 117
2, 171715, Note_on_c, 0, 69, 0
2, 171715, Note_on_c, 0, 77, 0
2, 171715, Note_on_c, 0, 81, 0
2, 171720, Note_on_c, 0, 79, 117
2, 171720, Note_on_c, 0, 83, 117
2, 171720, Note_on_c, 0, 71, 117
2, 171720, Note_on_c, 0, 62, 117
2, 171720, Note_on_c, 0, 50, 117
2, 171775, Note_on_c, 0, 50, 0
2, 171775, Note_on_c, 0, 62, 0
2, 171775, Note_on_c, 0, 71, 0
2, 171775, Note_on_c, 0, 79, 0
2, 171775, Note_on_c, 0, 83, 0
2, 171900, Note_on_c, 0, 50, 117
2, 171900, Note_on_c, 0, 38, 117
2, 171955, Note_on_c, 0, 38, 0
2, 171955, Note_on_c, 0, 50, 0
2, 171960, Note_on_c, 0, 78, 117
2, 171960, Note_on_c, 0, 81, 117
2, 171960, Note_on_c, 0, 69, 117
2, 171960, Note_on_c, 0, 50, 117
2, 171960, Note_on_c, 0, 38, 117
2, 172015, Note_on_c, 0, 38, 0
2, 172015, Note_on_c, 0, 50, 0
2, 172015, Note_on_c, 0, 69, 0
2, 172015, Note_on_c, 0, 78, 0
2, 172015, Note_on_c, 0, 81, 0
2, 172080, Note_on_c, 0, 76, 117
2, 172080, Note_on_c, 0, 79, 117
2, 172080, Note_on_c, 0, 67, 117
2, 172080, Note_on_c, 0, 62, 117
2, 172080, Note_on_c, 0, 50, 117
2, 172135, Note_on_c, 0, 50, 0
2, 172135, Note_on_c, 0, 62, 0
2, 172135, Note_on_c, 0, 67, 0
2, 172135, Note_on_c, 0, 76, 0
2, 172135, Note_on_c, 0, 79, 0
2, 172260, Note_on_c, 0, 50, 117
2, 172260, Note_on_c, 0, 38, 117
2, 172315, Note_on_c, 0, 38, 0
2, 172315, Note_on_c, 0, 50, 0
2, 172320, Note_on_c, 0, 74, 117
2, 172320, Note_on_c, 0, 78, 117
2, 172320, Note_on_c, 0, 66, 117
2, 172320, Note_on_c, 0, 50, 117
2, 172320, Note_on_c, 0, 38, 117
2, 172375, Note_on_c, 0, 38, 0
2, 172375, Note_on_c, 0, 50, 0
2, 172375, Note_on_c, 0, 66, 0
2, 172375, Note_on_c, 0, 74, 0
2, 172375, Note_on_c, 0, 78, 0
2, 172440, Note_on_c, 0, 76, 117
2, 172440, Note_on_c, 0, 79, 117
2, 172440, Note_on_c, 0, 67, 117
2, 172440, Note_on_c, 0, 62, 117
2, 172440, Note_on_c, 0, 50, 117
2, 172495, Note_on_c, 0, 50, 0
2, 172495, Note_on_c, 0, 62, 0
2, 172495, Note_on_c, 0, 67, 0
2, 172495, Note_on_c, 0, 76, 0
2, 172495, Note_on_c, 0, 79, 0
2, 172620, Note_on_c, 0, 50, 117
2, 172620, Note_on_c, 0, 38, 117
2, 172675, Note_on_c, 0, 38, 0
2, 172675, Note_on_c, 0, 50, 0
2, 172680, Note_on_c, 0, 73, 117
2, 172680, Note_on_c, 0, 76, 117
2, 172680, Note_on_c, 0, 64, 117
2, 172680, Note_on_c, 0, 50, 117
2, 172680, Note_on_c, 0, 38, 117
2, 172735, Note_on_c, 0, 38, 0
2, 172735, Note_on_c, 0, 50, 0
2, 172735, Note_on_c, 0, 64, 0
2, 172735, Note_on_c, 0, 73, 0
2, 172735, Note_on_c, 0, 76, 0
2, 172800, Note_on_c, 0, 86, 117
2, 172800, Note_on_c, 0, 74, 117
2, 172800, Note_on_c, 0, 62, 117
2, 172800, Note_on_c, 0, 50, 117
2, 172855, Note_on_c, 0, 50, 0
2, 172855, Note_on_c, 0, 62, 0
2, 172855, Note_on_c, 0, 86, 0
2, 172855, Note_on_c, 0, 74, 0
2, 172920, Note_on_c, 0, 77, 117
2, 172920, Note_on_c, 0, 86, 117
2, 172920, Note_on_c, 0, 74, 117
2, 172975, Note_on_c, 0, 74, 0
2, 172975, Note_on_c, 0, 77, 0
2, 172975, Note_on_c, 0, 86, 0
2, 172980, Note_on_c, 0, 50, 117
2, 172980, Note_on_c, 0, 38, 117
2, 173035, Note_on_c, 0, 38, 0
2, 173035, Note_on_c, 0, 50, 0
2, 173040, Note_on_c, 0, 79, 117
2, 173040, Note_on_c, 0, 88, 117
2, 173040, Note_on_c, 0, 76, 117
2, 173040, Note_on_c, 0, 50, 117
2, 173040, Note_on_c, 0, 38, 117
2, 173095, Note_on_c, 0, 38, 0
2, 173095, Note_on_c, 0, 50, 0
2, 173095, Note_on_c, 0, 76, 0
2, 173095, Note_on_c, 0, 79, 0
2, 173095, Note_on_c, 0, 88, 0
2, 173100, Note_on_c, 0, 81, 117
2, 173100, Note_on_c, 0, 89, 117
2, 173100, Note_on_c, 0, 77, 117
2, 173155, Note_on_c, 0, 81, 0
2, 173155, Note_on_c, 0, 77, 0
2, 173155, Note_on_c, 0, 89, 0
2, 173160, Note_on_c, 0, 82, 117
2, 173160, Note_on_c, 0, 91, 117
2, 173160, Note_on_c, 0, 79, 117
2, 173160, Note_on_c, 0, 62, 117
2, 173160, Note_on_c, 0, 50, 117
2, 173215, Note_on_c, 0, 50, 0
2, 173215, Note_on_c, 0, 62, 0
2, 173215, Note_on_c, 0, 79, 0
2, 173215, Note_on_c, 0, 82, 0
2, 173215, Note_on_c, 0, 91, 0
2, 173280, Note_on_c, 0, 82, 117
2, 173280, Note_on_c, 0, 91, 117
2, 173280, Note_on_c, 0, 79, 117
2, 173335, Note_on_c, 0, 79, 0
2, 173335, Note_on_c, 0, 82, 0
2, 173335, Note_on_c, 0, 91, 0
2, 173340, Note_on_c, 0, 50, 117
2, 173340, Note_on_c, 0, 38, 117
2, 173395, Note_on_c, 0, 38, 0
2, 173395, Note_on_c, 0, 50, 0
2, 173400, Note_on_c, 0, 81, 117
2, 173400, Note_on_c, 0, 89, 117
2, 173400, Note_on_c, 0, 77, 117
2, 173400, Note_on_c, 0, 50, 117
2, 173400, Note_on_c, 0, 38, 117
2, 173455, Note_on_c, 0, 38, 0
2, 173455, Note_on_c, 0, 77, 0
2, 173455, Note_on_c, 0, 50, 0
2, 173455, Note_on_c, 0, 81, 0
2, 173455, Note_on_c, 0, 89, 0
2, 173520, Note_on_c, 0, 79, 117
2, 173520, Note_on_c, 0, 88, 117
2, 173520, Note_on_c, 0, 76, 117
2, 173520, Note_on_c, 0, 62, 117
2, 173520, Note_on_c, 0, 50, 117
2, 173575, Note_on_c, 0, 50, 0
2, 173575, Note_on_c, 0, 62, 0
2, 173575, Note_on_c, 0, 76, 0
2, 173575, Note_on_c, 0, 79, 0
2, 173575, Note_on_c, 0, 88, 0
2, 173640, Note_on_c, 0, 79, 117
2, 173640, Note_on_c, 0, 88, 117
2, 173640, Note_on_c, 0, 76, 117
2, 173695, Note_on_c, 0, 76, 0
2, 173695, Note_on_c, 0, 79, 0
2, 173695, Note_on_c, 0, 88, 0
2, 173700, Note_on_c, 0, 50, 117
2, 173700, Note_on_c, 0, 38, 117
2, 173755, Note_on_c, 0, 38, 0
2, 173755, Note_on_c, 0, 50, 0
2, 173760, Note_on_c, 0, 77, 117
2, 173760, Note_on_c, 0, 86, 117
2, 173760, Note_on_c, 0, 74, 117
2, 173760, Note_on_c, 0, 50, 117
2, 173760, Note_on_c, 0, 38, 117
2, 173815, Note_on_c, 0, 38, 0
2, 173815, Note_on_c, 0, 50, 0
2, 173815, Note_on_c, 0, 74, 0
2, 173815, Note_on_c, 0, 77, 0
2, 173815, Note_on_c, 0, 86, 0
2, 173880, Note_on_c, 0, 79, 117
2, 173880, Note_on_c, 0, 88, 117
2, 173880, Note_on_c, 0, 76, 117
2, 173880, Note_on_c, 0, 62, 117
2, 173880, Note_on_c, 0, 50, 117
2, 173935, Note_on_c, 0, 50, 0
2, 173935, Note_on_c, 0, 62, 0
2, 173935, Note_on_c, 0, 76, 0
2, 173935, Note_on_c, 0, 79, 0
2, 173935, Note_on_c, 0, 88, 0
2, 174000, Note_on_c, 0, 79, 117
2, 174000, Note_on_c, 0, 88, 117
2, 174000, Note_on_c, 0, 76, 117
2, 174055, Note_on_c, 0, 76, 0
2, 174055, Note_on_c, 0, 79, 0
2, 174055, Note_on_c, 0, 88, 0
2, 174060, Note_on_c, 0, 50, 117
2, 174060, Note_on_c, 0, 38, 117
2, 174115, Note_on_c, 0, 38, 0
2, 174115, Note_on_c, 0, 50, 0
2, 174120, Note_on_c, 0, 76, 117
2, 174120, Note_on_c, 0, 85, 117
2, 174120, Note_on_c, 0, 73, 117
2, 174120, Note_on_c, 0, 50, 117
2, 174120, Note_on_c, 0, 38, 117
2, 174175, Note_on_c, 0, 38, 0
2, 174175, Note_on_c, 0, 50, 0
2, 174175, Note_on_c, 0, 73, 0
2, 174175, Note_on_c, 0, 76, 0
2, 174175, Note_on_c, 0, 85, 0
2, 174240, Note_on_c, 0, 86, 117
2, 174240, Note_on_c, 0, 89, 117
2, 174240, Note_on_c, 0, 77, 117
2, 174240, Note_on_c, 0, 62, 117
2, 174240, Note_on_c, 0, 50, 117
2, 174295, Note_on_c, 0, 50, 0
2, 174295, Note_on_c, 0, 77, 0
2, 174295, Note_on_c, 0, 62, 0
2, 174295, Note_on_c, 0, 86, 0
2, 174295, Note_on_c, 0, 89, 0
2, 174360, Note_on_c, 0, 86, 117
2, 174360, Note_on_c, 0, 89, 117
2, 174360, Note_on_c, 0, 77, 117
2, 174415, Note_on_c, 0, 86, 0
2, 174415, Note_on_c, 0, 77, 0
2, 174415, Note_on_c, 0, 89, 0
2, 174420, Note_on_c, 0, 50, 117
2, 174420, Note_on_c, 0, 38, 117
2, 174475, Note_on_c, 0, 38, 0
2, 174475, Note_on_c, 0, 50, 0
2, 174480, Note_on_c, 0, 88, 117
2, 174480, Note_on_c, 0, 91, 117
2, 174480, Note_on_c, 0, 79, 117
2, 174480, Note_on_c, 0, 50, 117
2, 174480, Note_on_c, 0, 38, 117
2, 174535, Note_on_c, 0, 38, 0
2, 174535, Note_on_c, 0, 50, 0
2, 174535, Note_on_c, 0, 79, 0
2, 174535, Note_on_c, 0, 88, 0
2, 174535, Note_on_c, 0, 91, 0
2, 174540, Note_on_c, 0, 89, 117
2, 174540, Note_on_c, 0, 93, 117
2, 174540, Note_on_c, 0, 81, 117
2, 174595, Note_on_c, 0, 81, 0
2, 174595, Note_on_c, 0, 89, 0
2, 174595, Note_on_c, 0, 93, 0
2, 174600, Note_on_c, 0, 91, 117
2, 174600, Note_on_c, 0, 94, 117
2, 174600, Note_on_c, 0, 82, 117
2, 174600, Note_on_c, 0, 62, 117
2, 174600, Note_on_c, 0, 50, 117
2, 174655, Note_on_c, 0, 50, 0
2, 174655, Note_on_c, 0, 62, 0
2, 174655, Note_on_c, 0, 82, 0
2, 174655, Note_on_c, 0, 91, 0
2, 174655, Note_on_c, 0, 94, 0
2, 174720, Note_on_c, 0, 91, 117
2, 174720, Note_on_c, 0, 94, 117
2, 174720, Note_on_c, 0, 82, 117
2, 174775, Note_on_c, 0, 82, 0
2, 174775, Note_on_c, 0, 91, 0
2, 174775, Note_on_c, 0, 94, 0
2, 174780, Note_on_c, 0, 50, 117
2, 174780, Note_on_c, 0, 38, 117
2, 174835, Note_on_c, 0, 38, 0
2, 174835, Note_on_c, 0, 50, 0
2, 174840, Note_on_c, 0, 89, 117
2, 174840, Note_on_c, 0, 93, 117
2, 174840, Note_on_c, 0, 81, 117
2, 174840, Note_on_c, 0, 50, 117
2, 174840, Note_on_c, 0, 38, 117
2, 174895, Note_on_c, 0, 38, 0
2, 174895, Note_on_c, 0, 50, 0
2, 174895, Note_on_c, 0, 81, 0
2, 174895, Note_on_c, 0, 89, 0
2, 174895, Note_on_c, 0, 93, 0
2, 174960, Note_on_c, 0, 88, 117
2, 174960, Note_on_c, 0, 91, 117
2, 174960, Note_on_c, 0, 79, 117
2, 174960, Note_on_c, 0, 62, 117
2, 174960, Note_on_c, 0, 50, 117
2, 175015, Note_on_c, 0, 50, 0
2, 175015, Note_on_c, 0, 62, 0
2, 175015, Note_on_c, 0, 79, 0
2, 175015, Note_on_c, 0, 88, 0
2, 175015, Note_on_c, 0, 91, 0
2, 175080, Note_on_c, 0, 88, 117
2, 175080, Note_on_c, 0, 91, 117
2, 175080, Note_on_c, 0, 79, 117
2, 175135, Note_on_c, 0, 79, 0
2, 175135, Note_on_c, 0, 88, 0
2, 175135, Note_on_c, 0, 91, 0
2, 175140, Note_on_c, 0, 50, 117
2, 175140, Note_on_c, 0, 38, 117
2, 175195, Note_on_c, 0, 38, 0
2, 175195, Note_on_c, 0, 50, 0
2, 175200, Note_on_c, 0, 86, 117
2, 175200, Note_on_c, 0, 89, 117
2, 175200, Note_on_c, 0, 77, 117
2, 175200, Note_on_c, 0, 50, 117
2, 175200, Note_on_c, 0, 38, 117
2, 175255, Note_on_c, 0, 38, 0
2, 175255, Note_on_c, 0, 89, 0
2, 175255, Note_on_c, 0, 50, 0
2, 175255, Note_on_c, 0, 86, 0
2, 175255, Note_on_c, 0, 77, 0
2, 175320, Note_on_c, 0, 88, 117
2, 175320, Note_on_c, 0, 91, 117
2, 175320, Note_on_c, 0, 79, 117
2, 175320, Note_on_c, 0, 62, 117
2, 175320, Note_on_c, 0, 50, 117
2, 175375, Note_on_c, 0, 50, 0
2, 175375, Note_on_c, 0, 62, 0
2, 175375, Note_on_c, 0, 79, 0
2, 175375, Note_on_c, 0, 88, 0
2, 175375, Note_on_c, 0, 91, 0
2, 175440, Note_on_c, 0, 88, 117
2, 175440, Note_on_c, 0, 91, 117
2, 175440, Note_on_c, 0, 79, 117
2, 175495, Note_on_c, 0, 79, 0
2, 175495, Note_on_c, 0, 88, 0
2, 175495, Note_on_c, 0, 91, 0
2, 175500, Note_on_c, 0, 50, 117
2, 175500, Note_on_c, 0, 38, 117
2, 175555, Note_on_c, 0, 38, 0
2, 175555, Note_on_c, 0, 50, 0
2, 175560, Note_on_c, 0, 85, 117
2, 175560, Note_on_c, 0, 88, 117
2, 175560, Note_on_c, 0, 76, 117
2, 175560, Note_on_c, 0, 50, 117
2, 175560, Note_on_c, 0, 38, 117
2, 175615, Note_on_c, 0, 38, 0
2, 175615, Note_on_c, 0, 50, 0
2, 175615, Note_on_c, 0, 76, 0
2, 175615, Note_on_c, 0, 85, 0
2, 175615, Note_on_c, 0, 88, 0
2, 175680, Note_on_c, 0, 86, 117
2, 175680, Note_on_c, 0, 89, 117
2, 175680, Note_on_c, 0, 77, 117
2, 175680, Note_on_c, 0, 62, 117
2, 175680, Note_on_c, 0, 50, 117
2, 175735, Note_on_c, 0, 50, 0
2, 175735, Note_on_c, 0, 89, 0
2, 175735, Note_on_c, 0, 62, 0
2, 175735, Note_on_c, 0, 86, 0
2, 175735, Note_on_c, 0, 77, 0
2, 175860, Note_on_c, 0, 77, 117
2, 175860, Note_on_c, 0, 65, 117
2, 175860, Note_on_c, 0, 50, 117
2, 175860, Note_on_c, 0, 38, 117
2, 175915, Note_on_c, 0, 38, 0
2, 175915, Note_on_c, 0, 50, 0
2, 175915, Note_on_c, 0, 77, 0
2, 175915, Note_on_c, 0, 65, 0
2, 175920, Note_on_c, 0, 77, 117
2, 175920, Note_on_c, 0, 65, 117
2, 175920, Note_on_c, 0, 50, 117
2, 175920, Note_on_c, 0, 38, 117
2, 175975, Note_on_c, 0, 38, 0
2, 175975, Note_on_c, 0, 50, 0
2, 175975, Note_on_c, 0, 77, 0
2, 175975, Note_on_c, 0, 65, 0
2, 176040, Note_on_c, 0, 89, 117
2, 176040, Note_on_c, 0, 77, 117
2, 176040, Note_on_c, 0, 62, 117
2, 176040, Note_on_c, 0, 50, 117
2, 176095, Note_on_c, 0, 50, 0
2, 176095, Note_on_c, 0, 62, 0
2, 176095, Note_on_c, 0, 89, 0
2, 176095, Note_on_c, 0, 77, 0
2, 176160, Note_on_c, 0, 91, 117
2, 176160, Note_on_c, 0, 79, 117
2, 176160, Note_on_c, 0, 64, 117
2, 176160, Note_on_c, 0, 52, 117
2, 176215, Note_on_c, 0, 52, 0
2, 176215, Note_on_c, 0, 64, 0
2, 176215, Note_on_c, 0, 91, 0
2, 176215, Note_on_c, 0, 79, 0
2, 176280, Note_on_c, 0, 93, 117
2, 176280, Note_on_c, 0, 81, 117
2, 176280, Note_on_c, 0, 65, 117
2, 176280, Note_on_c, 0, 53, 117
2, 176335, Note_on_c, 0, 65, 0
2, 176335, Note_on_c, 0, 53, 0
2, 176335, Note_on_c, 0, 93, 0
2, 176335, Note_on_c, 0, 81, 0
2, 176400, Note_on_c, 0, 94, 117
2, 176400, Note_on_c, 0, 82, 117
2, 176400, Note_on_c, 0, 67, 117
2, 176400, Note_on_c, 0, 55, 117
2, 176455, Note_on_c, 0, 55, 0
2, 176455, Note_on_c, 0, 67, 0
2, 176455, Note_on_c, 0, 94, 0
2, 176455, Note_on_c, 0, 82, 0
2, 176580, Note_on_c, 0, 46, 117
2, 176580, Note_on_c, 0, 43, 117
2, 176635, Note_on_c, 0, 43, 0
2, 176635, Note_on_c, 0, 46, 0
2, 176640, Note_on_c, 0, 46, 117
2, 176640, Note_on_c, 0, 43, 117
2, 176695, Note_on_c, 0, 43, 0
2, 176695, Note_on_c, 0, 46, 0
2, 176760, Note_on_c, 0, 82, 117
2, 176760, Note_on_c, 0, 70, 117
2, 176760, Note_on_c, 0, 58, 117
2, 176760, Note_on_c, 0, 55, 117
2, 176815, Note_on_c, 0, 55, 0
2, 176815, Note_on_c, 0, 58, 0
2, 176815, Note_on_c, 0, 82, 0
2, 176815, Note_on_c, 0, 70, 0
2, 176880, Note_on_c, 0, 84, 117
2, 176880, Note_on_c, 0, 72, 117
2, 176880, Note_on_c, 0, 55, 117
2, 176880, Note_on_c, 0, 52, 117
2, 176935, Note_on_c, 0, 52, 0
2, 176935, Note_on_c, 0, 55, 0
2, 176935, Note_on_c, 0, 84, 0
2, 176935, Note_on_c, 0, 72, 0
2, 177000, Note_on_c, 0, 86, 117
2, 177000, Note_on_c, 0, 74, 117
2, 177000, Note_on_c, 0, 53, 117
2, 177000, Note_on_c, 0, 50, 117
2, 177055, Note_on_c, 0, 50, 0
2, 177055, Note_on_c, 0, 74, 0
2, 177055, Note_on_c, 0, 53, 0
2, 177055, Note_on_c, 0, 86, 0
2, 177120, Note_on_c, 0, 88, 117
2, 177120, Note_on_c, 0, 76, 117
2, 177120, Note_on_c, 0, 52, 117
2, 177120, Note_on_c, 0, 60, 117
2, 177120, Note_on_c, 0, 48, 117
2, 177175, Note_on_c, 0, 48, 0
2, 177175, Note_on_c, 0, 60, 0
2, 177175, Note_on_c, 0, 52, 0
2, 177175, Note_on_c, 0, 88, 0
2, 177175, Note_on_c, 0, 76, 0
2, 177300, Note_on_c, 0, 76, 117
2, 177300, Note_on_c, 0, 64, 117
2, 177300, Note_on_c, 0, 48, 117
2, 177300, Note_on_c, 0, 36, 117
2, 177355, Note_on_c, 0, 36, 0
2, 177355, Note_on_c, 0, 48, 0
2, 177355, Note_on_c, 0, 76, 0
2, 177355, Note_on_c, 0, 64, 0
2, 177360, Note_on_c, 0, 76, 117
2, 177360, Note_on_c, 0, 64, 117
2, 177360, Note_on_c, 0, 48, 117
2, 177360, Note_on_c, 0, 36, 117
2, 177415, Note_on_c, 0, 36, 0
2, 177415, Note_on_c, 0, 48, 0
2, 177415, Note_on_c, 0, 76, 0
2, 177415, Note_on_c, 0, 64, 0
2, 177480, Note_on_c, 0, 88, 117
2, 177480, Note_on_c, 0, 76, 117
2, 177480, Note_on_c, 0, 60, 117
2, 177480, Note_on_c, 0, 48, 117
2, 177535, Note_on_c, 0, 48, 0
2, 177535, Note_on_c, 0, 60, 0
2, 177535, Note_on_c, 0, 88, 0
2, 177535, Note_on_c, 0, 76, 0
2, 177600, Note_on_c, 0, 89, 117
2, 177600, Note_on_c, 0, 77, 117
2, 177600, Note_on_c, 0, 62, 117
2, 177600, Note_on_c, 0, 50, 117
2, 177655, Note_on_c, 0, 50, 0
2, 177655, Note_on_c, 0, 62, 0
2, 177655, Note_on_c, 0, 77, 0
2, 177655, Note_on_c, 0, 89, 0
2, 177720, Note_on_c, 0, 91, 117
2, 177720, Note_on_c, 0, 79, 117
2, 177720, Note_on_c, 0, 64, 117
2, 177720, Note_on_c, 0, 52, 117
2, 177775, Note_on_c, 0, 52, 0
2, 177775, Note_on_c, 0, 64, 0
2, 177775, Note_on_c, 0, 91, 0
2, 177775, Note_on_c, 0, 79, 0
2, 177840, Note_on_c, 0, 93, 117
2, 177840, Note_on_c, 0, 81, 117
2, 177840, Note_on_c, 0, 65, 117
2, 177840, Note_on_c, 0, 53, 117
2, 177895, Note_on_c, 0, 65, 0
2, 177895, Note_on_c, 0, 53, 0
2, 177895, Note_on_c, 0, 93, 0
2, 177895, Note_on_c, 0, 81, 0
2, 178020, Note_on_c, 0, 45, 117
2, 178020, Note_on_c, 0, 41, 117
2, 178075, Note_on_c, 0, 41, 0
2, 178075, Note_on_c, 0, 45, 0
2, 178080, Note_on_c, 0, 45, 117
2, 178080, Note_on_c, 0, 41, 117
2, 178135, Note_on_c, 0, 41, 0
2, 178135, Note_on_c, 0, 45, 0
2, 178200, Note_on_c, 0, 69, 117
2, 178200, Note_on_c, 0, 57, 117
2, 178200, Note_on_c, 0, 53, 117
2, 178255, Note_on_c, 0, 57, 0
2, 178255, Note_on_c, 0, 53, 0
2, 178255, Note_on_c, 0, 69, 0
2, 178320, Note_on_c, 0, 65, 117
2, 178320, Note_on_c, 0, 57, 117
2, 178320, Note_on_c, 0, 50, 117
2, 178375, Note_on_c, 0, 50, 0
2, 178375, Note_on_c, 0, 65, 0
2, 178375, Note_on_c, 0, 57, 0
2, 178440, Note_on_c, 0, 64, 117
2, 178440, Note_on_c, 0, 57, 117
2, 178440, Note_on_c, 0, 48, 117
2, 178495, Note_on_c, 0, 48, 0
2, 178495, Note_on_c, 0, 64, 0
2, 178495, Note_on_c, 0, 57, 0
2, 178560, Note_on_c, 0, 57, 53
2, 178560, Note_on_c, 0, 74, 53
2, 178560, Note_on_c, 0, 48, 53
2, 178560, Note_on_c, 0, 62, 53
2, 178560, Note_on_c, 0, 50, 53
2, 178675, Note_on_c, 0, 50, 0
2, 178675, Note_on_c, 0, 62, 0
2, 178680, Note_on_c, 0, 64, 53
2, 178680, Note_on_c, 0, 52, 53
2, 178795, Note_on_c, 0, 52, 0
2, 178795, Note_on_c, 0, 64, 0
2, 178800, Note_on_c, 0, 66, 53
2, 178800, Note_on_c, 0, 54, 53
2, 178915, Note_on_c, 0, 54, 0
2, 178915, Note_on_c, 0, 66, 0
2, 178915, Note_on_c, 0, 48, 0
2, 178915, Note_on_c, 0, 57, 0
2, 178920, Note_on_c, 0, 55, 53
2, 178920, Note_on_c, 0, 67, 53
2, 178920, Note_on_c, 0, 46, 53
2, 179035, Note_on_c, 0, 74, 0
2, 179040, Note_on_c, 0, 76, 53
2, 179155, Note_on_c, 0, 76, 0
2, 179160, Note_on_c, 0, 78, 53
2, 179275, Note_on_c, 0, 78, 0
2, 179280, Note_on_c, 0, 79, 74
2, 179395, Note_on_c, 0, 46, 0
2, 179395, Note_on_c, 0, 67, 0
2, 179395, Note_on_c, 0, 55, 0
2, 179400, Note_on_c, 0, 53, 67
2, 179400, Note_on_c, 0, 65, 67
2, 179515, Note_on_c, 0, 65, 0
2, 179515, Note_on_c, 0, 53, 0
2, 179520, Note_on_c, 0, 51, 74
2, 179520, Note_on_c, 0, 63, 74
2, 179635, Note_on_c, 0, 63, 0
2, 179635, Note_on_c, 0, 79, 0
2, 179635, Note_on_c, 0, 51, 0
2, 179640, Note_on_c, 0, 75, 96
2, 179640, Note_on_c, 0, 79, 96
2, 179640, Note_on_c, 0, 67, 96
2, 179640, Note_on_c, 0, 58, 81
2, 179640, Note_on_c, 0, 46, 81
2, 179755, Note_on_c, 0, 46, 0
2, 179755, Note_on_c, 0, 58, 0
2, 179760, Note_on_c, 0, 56, 89
2, 179760, Note_on_c, 0, 44, 89
2, 179875, Note_on_c, 0, 44, 0
2, 179875, Note_on_c, 0, 56, 0
2, 179880, Note_on_c, 0, 55, 96
2, 179880, Note_on_c, 0, 43, 96
2, 179995, Note_on_c, 0, 43, 0
2, 179995, Note_on_c, 0, 55, 0
2, 179995, Note_on_c, 0, 67, 0
2, 179995, Note_on_c, 0, 75, 0
2, 179995, Note_on_c, 0, 79, 0
2, 180000, Note_on_c, 0, 76, 103
2, 180000, Note_on_c, 0, 79, 103
2, 180000, Note_on_c, 0, 70, 103
2, 180000, Note_on_c, 0, 55, 117
2, 180000, Note_on_c, 0, 43, 117
2, 180115, Note_on_c, 0, 70, 0
2, 180115, Note_on_c, 0, 76, 0
2, 180120, Note_on_c, 0, 77, 110
2, 180120, Note_on_c, 0, 69, 110
2, 180235, Note_on_c, 0, 69, 0
2, 180235, Note_on_c, 0, 77, 0
2, 180235, Note_on_c, 0, 79, 0
2, 180240, Note_on_c, 0, 79, 117
2, 180240, Note_on_c, 0, 70, 117
2, 180355, Note_on_c, 0, 43, 0
2, 180355, Note_on_c, 0, 55, 0
2, 180360, Note_on_c, 0, 76, 96
2, 180360, Note_on_c, 0, 57, 67
2, 180360, Note_on_c, 0, 45, 67
2, 180475, Note_on_c, 0, 76, 0
2, 180475, Note_on_c, 0, 70, 0
2, 180475, Note_on_c, 0, 79, 0
2, 180480, Note_on_c, 0, 74, 74
2, 180480, Note_on_c, 0, 77, 74
2, 180480, Note_on_c, 0, 69, 74
2, 180595, Note_on_c, 0, 69, 0
2, 180595, Note_on_c, 0, 74, 0
2, 180595, Note_on_c, 0, 77, 0
2, 180600, Note_on_c, 0, 73, 53
2, 180600, Note_on_c, 0, 76, 53
2, 180600, Note_on_c, 0, 67, 53
2, 180715, Note_on_c, 0, 67, 0
2, 180715, Note_on_c, 0, 76, 0
2, 180715, Note_on_c, 0, 73, 0
2, 180715, Note_on_c, 0, 57, 0
2, 180715, Note_on_c, 0, 45, 0
2, 180720, Note_on_c, 0, 46, 57
2, 180720, Note_on_c, 0, 55, 53
2, 180720, Note_on_c, 0, 87, 69
2, 180720, Note_on_c, 0, 91, 69
2, 180720, Note_on_c, 0, 79, 69
2, 180720, Note_on_c, 0, 55, 58
2, 180720, Note_on_c, 0, 58, 58
2, 180720, Note_on_c, 0, 67, 58
2, 180720, Note_on_c, 0, 46, 58
2, 180840, Note_on_c, 0, 65, 64
2, 180955, Note_on_c, 0, 65, 0
2, 180960, Note_on_c, 0, 63, 69
2, 181075, Note_on_c, 0, 63, 0
2, 181075, Note_on_c, 0, 67, 0
2, 181075, Note_on_c, 0, 55, 0
2, 181075, Note_on_c, 0, 79, 0
2, 181075, Note_on_c, 0, 87, 0
2, 181075, Note_on_c, 0, 91, 0
2, 181075, Note_on_c, 0, 46, 0
2, 181075, Note_on_c, 0, 55, 0
2, 181075, Note_on_c, 0, 46, 0
2, 181080, Note_on_c, 0, 87, 85
2, 181080, Note_on_c, 0, 91, 85
2, 181080, Note_on_c, 0, 79, 85
2, 181080, Note_on_c, 0, 67, 74
2, 181195, Note_on_c, 0, 67, 0
2, 181195, Note_on_c, 0, 58, 0
2, 181200, Note_on_c, 0, 65, 80
2, 181200, Note_on_c, 0, 56, 80
2, 181315, Note_on_c, 0, 56, 0
2, 181315, Note_on_c, 0, 65, 0
2, 181320, Note_on_c, 0, 63, 85
2, 181320, Note_on_c, 0, 55, 85
2, 181435, Note_on_c, 0, 55, 0
2, 181435, Note_on_c, 0, 63, 0
2, 181435, Note_on_c, 0, 79, 0
2, 181435, Note_on_c, 0, 87, 0
2, 181435, Note_on_c, 0, 91, 0
2, 181440, Note_on_c, 0, 88, 101
2, 181440, Note_on_c, 0, 91, 101
2, 181440, Note_on_c, 0, 79, 101
2, 181440, Note_on_c, 0, 58, 90
2, 181440, Note_on_c, 0, 64, 90
2, 181440, Note_on_c, 0, 55, 90
2, 181555, Note_on_c, 0, 55, 0
2, 181555, Note_on_c, 0, 64, 0
2, 181555, Note_on_c, 0, 58, 0
2, 181560, Note_on_c, 0, 65, 96
2, 181560, Note_on_c, 0, 57, 96
2, 181675, Note_on_c, 0, 57, 0
2, 181675, Note_on_c, 0, 65, 0
2, 181680, Note_on_c, 0, 67, 101
2, 181680, Note_on_c, 0, 58, 101
2, 181795, Note_on_c, 0, 58, 0
2, 181795, Note_on_c, 0, 67, 0
2, 181800, Note_on_c, 0, 64, 106
2, 181800, Note_on_c, 0, 67, 106
2, 181800, Note_on_c, 0, 58, 106
2, 181915, Note_on_c, 0, 58, 0
2, 181915, Note_on_c, 0, 67, 0
2, 181915, Note_on_c, 0, 79, 0
2, 181915, Note_on_c, 0, 64, 0
2, 181915, Note_on_c, 0, 88, 0
2, 181915, Note_on_c, 0, 91, 0
2, 181920, Note_on_c, 0, 86, 112
2, 181920, Note_on_c, 0, 89, 112
2, 181920, Note_on_c, 0, 77, 112
2, 181920, Note_on_c, 0, 62, 112
2, 181920, Note_on_c, 0, 65, 112
2, 181920, Note_on_c, 0, 57, 112
2, 182035, Note_on_c, 0, 57, 0
2, 182035, Note_on_c, 0, 89, 0
2, 182035, Note_on_c, 0, 77, 0
2, 182035, Note_on_c, 0, 65, 0
2, 182035, Note_on_c, 0, 86, 0
2, 182035, Note_on_c, 0, 62, 0
2, 182040, Note_on_c, 0, 88, 117
2, 182040, Note_on_c, 0, 91, 117
2, 182040, Note_on_c, 0, 79, 117
2, 182040, Note_on_c, 0, 61, 117
2, 182040, Note_on_c, 0, 64, 117
2, 182040, Note_on_c, 0, 55, 117
2, 182155, Note_on_c, 0, 55, 0
2, 182155, Note_on_c, 0, 64, 0
2, 182155, Note_on_c, 0, 79, 0
2, 182155, Note_on_c, 0, 61, 0
2, 182155, Note_on_c, 0, 88, 0
2, 182155, Note_on_c, 0, 91, 0
2, 182160, Note_on_c, 0, 93, 117
2, 182160, Note_on_c, 0, 81, 117
2, 182160, Note_on_c, 0, 62, 117
2, 182160, Note_on_c, 0, 65, 117
2, 182160, Note_on_c, 0, 53, 117
2, 182220, Note_on_c, 0, 65, 0
2, 182220, Note_on_c, 0, 62, 0
2, 182220, Note_on_c, 0, 53, 0
2, 182220, Note_on_c, 0, 93, 0
2, 182220, Note_on_c, 0, 81, 0
2, 182280, Note_on_c, 0, 89, 71
2, 182280, Note_on_c, 0, 77, 71
2, 182280, Note_on_c, 0, 62, 71
2, 182280, Note_on_c, 0, 50, 71
2, 182340, Note_on_c, 0, 50, 0
2, 182340, Note_on_c, 0, 62, 0
2, 182340, Note_on_c, 0, 77, 0
2, 182340, Note_on_c, 0, 89, 0
2, 182400, Note_on_c, 0, 94, 71
2, 182400, Note_on_c, 0, 82, 71
2, 182400, Note_on_c, 0, 67, 71
2, 182400, Note_on_c, 0, 55, 71
2, 182460, Note_on_c, 0, 55, 0
2, 182460, Note_on_c, 0, 67, 0
2, 182460, Note_on_c, 0, 94, 0
2, 182460, Note_on_c, 0, 82, 0
2, 182520, Note_on_c, 0, 91, 117
2, 182520, Note_on_c, 0, 79, 117
2, 182520, Note_on_c, 0, 64, 117
2, 182520, Note_on_c, 0, 52, 117
2, 182580, Note_on_c, 0, 52, 0
2, 182580, Note_on_c, 0, 64, 0
2, 182580, Note_on_c, 0, 91, 0
2, 182580, Note_on_c, 0, 79, 0
2, 182640, Note_on_c, 0, 88, 71
2, 182640, Note_on_c, 0, 76, 71
2, 182640, Note_on_c, 0, 61, 71
2, 182640, Note_on_c, 0, 49, 71
2, 182700, Note_on_c, 0, 49, 0
2, 182700, Note_on_c, 0, 61, 0
2, 182700, Note_on_c, 0, 88, 0
2, 182700, Note_on_c, 0, 76, 0
2, 182760, Note_on_c, 0, 93, 71
2, 182760, Note_on_c, 0, 81, 71
2, 182760, Note_on_c, 0, 57, 71
2, 182760, Note_on_c, 0, 45, 71
2, 182820, Note_on_c, 0, 45, 0
2, 182820, Note_on_c, 0, 57, 0
2, 182820, Note_on_c, 0, 93, 0
2, 182820, Note_on_c, 0, 81, 0
2, 182880, Note_on_c, 0, 69, 117
2, 182880, Note_on_c, 0, 77, 117
2, 182880, Note_on_c, 0, 65, 117
2, 182880, Note_on_c, 0, 62, 117
2, 182880, Note_on_c, 0, 50, 117
2, 182940, Note_on_c, 0, 50, 0
2, 182940, Note_on_c, 0, 77, 0
2, 182940, Note_on_c, 0, 62, 0
2, 182940, Note_on_c, 0, 65, 0
2, 182940, Note_on_c, 0, 69, 0
2, 183000, Note_on_c, 0, 74, 71
2, 183000, Note_on_c, 0, 67, 71
2, 183000, Note_on_c, 0, 58, 71
2, 183000, Note_on_c, 0, 46, 71
2, 183060, Note_on_c, 0, 46, 0
2, 183060, Note_on_c, 0, 58, 0
2, 183060, Note_on_c, 0, 74, 0
2, 183060, Note_on_c, 0, 67, 0
2, 183120, Note_on_c, 0, 74, 71
2, 183120, Note_on_c, 0, 79, 71
2, 183120, Note_on_c, 0, 70, 71
2, 183120, Note_on_c, 0, 55, 71
2, 183120, Note_on_c, 0, 43, 71
2, 183180, Note_on_c, 0, 43, 0
2, 183180, Note_on_c, 0, 55, 0
2, 183180, Note_on_c, 0, 70, 0
2, 183180, Note_on_c, 0, 74, 0
2, 183180, Note_on_c, 0, 79, 0
2, 183240, Note_on_c, 0, 71, 117
2, 183240, Note_on_c, 0, 74, 117
2, 183240, Note_on_c, 0, 76, 117
2, 183240, Note_on_c, 0, 64, 117
2, 183240, Note_on_c, 0, 56, 117
2, 183240, Note_on_c, 0, 44, 117
2, 183300, Note_on_c, 0, 44, 0
2, 183300, Note_on_c, 0, 56, 0
2, 183300, Note_on_c, 0, 76, 0
2, 183300, Note_on_c, 0, 64, 0
2, 183300, Note_on_c, 0, 71, 0
2, 183300, Note_on_c, 0, 74, 0
2, 183360, Note_on_c, 0, 69, 71
2, 183360, Note_on_c, 0, 73, 71
2, 183360, Note_on_c, 0, 64, 71
2, 183360, Note_on_c, 0, 57, 71
2, 183360, Note_on_c, 0, 45, 71
2, 183420, Note_on_c, 0, 45, 0
2, 183420, Note_on_c, 0, 57, 0
2, 183420, Note_on_c, 0, 64, 0
2, 183420, Note_on_c, 0, 69, 0
2, 183420, Note_on_c, 0, 73, 0
2, 183480, Note_on_c, 0, 74, 71
2, 183480, Note_on_c, 0, 77, 71
2, 183480, Note_on_c, 0, 65, 71
2, 183480, Note_on_c, 0, 57, 71
2, 183480, Note_on_c, 0, 45, 71
2, 183540, Note_on_c, 0, 45, 0
2, 183540, Note_on_c, 0, 77, 0
2, 183540, Note_on_c, 0, 57, 0
2, 183540, Note_on_c, 0, 65, 0
2, 183540, Note_on_c, 0, 74, 0
2, 183600, Note_on_c, 0, 77, 117
2, 183600, Note_on_c, 0, 81, 117
2, 183600, Note_on_c, 0, 69, 117
2, 183600, Note_on_c, 0, 50, 117
2, 183600, Note_on_c, 0, 38, 117
2, 183660, Note_on_c, 0, 38, 0
2, 183660, Note_on_c, 0, 50, 0
2, 183660, Note_on_c, 0, 69, 0
2, 183660, Note_on_c, 0, 77, 0
2, 183660, Note_on_c, 0, 81, 0
2, 183720, Note_on_c, 0, 89, 71
2, 183720, Note_on_c, 0, 77, 71
2, 183720, Note_on_c, 0, 62, 71
2, 183720, Note_on_c, 0, 50, 71
2, 183780, Note_on_c, 0, 50, 0
2, 183780, Note_on_c, 0, 62, 0
2, 183780, Note_on_c, 0, 77, 0
2, 183780, Note_on_c, 0, 89, 0
2, 183840, Note_on_c, 0, 94, 71
2, 183840, Note_on_c, 0, 82, 71
2, 183840, Note_on_c, 0, 67, 71
2, 183840, Note_on_c, 0, 55, 71
2, 183900, Note_on_c, 0, 55, 0
2, 183900, Note_on_c, 0, 67, 0
2, 183900, Note_on_c, 0, 94, 0
2, 183900, Note_on_c, 0, 82, 0
2, 183960, Note_on_c, 0, 91, 117
2, 183960, Note_on_c, 0, 79, 117
2, 183960, Note_on_c, 0, 64, 117
2, 183960, Note_on_c, 0, 50, 117
2, 184020, Note_on_c, 0, 50, 0
2, 184020, Note_on_c, 0, 64, 0
2, 184020, Note_on_c, 0, 91, 0
2, 184020, Note_on_c, 0, 79, 0
2, 184080, Note_on_c, 0, 88, 71
2, 184080, Note_on_c, 0, 76, 71
2, 184080, Note_on_c, 0, 61, 71
2, 184080, Note_on_c, 0, 49, 71
2, 184140, Note_on_c, 0, 49, 0
2, 184140, Note_on_c, 0, 61, 0
2, 184140, Note_on_c, 0, 88, 0
2, 184140, Note_on_c, 0, 76, 0
2, 184200, Note_on_c, 0, 93, 71
2, 184200, Note_on_c, 0, 81, 71
2, 184200, Note_on_c, 0, 57, 71
2, 184200, Note_on_c, 0, 45, 71
2, 184260, Note_on_c, 0, 45, 0
2, 184260, Note_on_c, 0, 57, 0
2, 184260, Note_on_c, 0, 93, 0
2, 184260, Note_on_c, 0, 81, 0
2, 184320, Note_on_c, 0, 77, 117
2, 184320, Note_on_c, 0, 81, 117
2, 184320, Note_on_c, 0, 69, 117
2, 184320, Note_on_c, 0, 57, 117
2, 184320, Note_on_c, 0, 45, 117
2, 184380, Note_on_c, 0, 45, 0
2, 184380, Note_on_c, 0, 57, 0
2, 184380, Note_on_c, 0, 69, 0
2, 184380, Note_on_c, 0, 77, 0
2, 184380, Note_on_c, 0, 81, 0
2, 184440, Note_on_c, 0, 74, 71
2, 184440, Note_on_c, 0, 81, 71
2, 184440, Note_on_c, 0, 69, 71
2, 184440, Note_on_c, 0, 53, 71
2, 184440, Note_on_c, 0, 41, 71
2, 184500, Note_on_c, 0, 41, 0
2, 184500, Note_on_c, 0, 69, 0
2, 184500, Note_on_c, 0, 53, 0
2, 184500, Note_on_c, 0, 74, 0
2, 184500, Note_on_c, 0, 81, 0
2, 184560, Note_on_c, 0, 79, 71
2, 184560, Note_on_c, 0, 81, 71
2, 184560, Note_on_c, 0, 69, 71
2, 184560, Note_on_c, 0, 58, 71
2, 184560, Note_on_c, 0, 46, 71
2, 184620, Note_on_c, 0, 46, 0
2, 184620, Note_on_c, 0, 58, 0
2, 184620, Note_on_c, 0, 69, 0
2, 184620, Note_on_c, 0, 79, 0
2, 184620, Note_on_c, 0, 81, 0
2, 184680, Note_on_c, 0, 76, 117
2, 184680, Note_on_c, 0, 81, 117
2, 184680, Note_on_c, 0, 69, 117
2, 184680, Note_on_c, 0, 55, 117
2, 184680, Note_on_c, 0, 43, 117
2, 184740, Note_on_c, 0, 43, 0
2, 184740, Note_on_c, 0, 55, 0
2, 184740, Note_on_c, 0, 69, 0
2, 184740, Note_on_c, 0, 76, 0
2, 184740, Note_on_c, 0, 81, 0
2, 184800, Note_on_c, 0, 73, 71
2, 184800, Note_on_c, 0, 81, 71
2, 184800, Note_on_c, 0, 69, 71
2, 184800, Note_on_c, 0, 52, 71
2, 184800, Note_on_c, 0, 40, 71
2, 184860, Note_on_c, 0, 40, 0
2, 184860, Note_on_c, 0, 52, 0
2, 184860, Note_on_c, 0, 69, 0
2, 184860, Note_on_c, 0, 73, 0
2, 184860, Note_on_c, 0, 81, 0
2, 184920, Note_on_c, 0, 77, 71
2, 184920, Note_on_c, 0, 81, 71
2, 184920, Note_on_c, 0, 69, 71
2, 184920, Note_on_c, 0, 57, 71
2, 184920, Note_on_c, 0, 45, 71
2, 184980, Note_on_c, 0, 45, 0
2, 184980, Note_on_c, 0, 57, 0
2, 184980, Note_on_c, 0, 69, 0
2, 184980, Note_on_c, 0, 77, 0
2, 184980, Note_on_c, 0, 81, 0
2, 185040, Note_on_c, 0, 86, 71
2, 185040, Note_on_c, 0, 89, 71
2, 185040, Note_on_c, 0, 77, 71
2, 185040, Note_on_c, 0, 50, 71
2, 185040, Note_on_c, 0, 38, 71
2, 185130, Note_on_c, 0, 86, 0
2, 185130, Note_on_c, 0, 77, 0
2, 185130, Note_on_c, 0, 89, 0
2, 185160, Note_on_c, 0, 81, 71
2, 185160, Note_on_c, 0, 86, 71
2, 185160, Note_on_c, 0, 77, 71
2, 185190, Note_on_c, 0, 50, 0
2, 185190, Note_on_c, 0, 38, 0
2, 185220, Note_on_c, 0, 74, 71
2, 185220, Note_on_c, 0, 62, 71
2, 185250, Note_on_c, 0, 62, 0
2, 185250, Note_on_c, 0, 74, 0
2, 185250, Note_on_c, 0, 86, 0
2, 185250, Note_on_c, 0, 77, 0
2, 185250, Note_on_c, 0, 81, 0
2, 185280, Note_on_c, 0, 89, 71
2, 185280, Note_on_c, 0, 93, 71
2, 185280, Note_on_c, 0, 81, 71
2, 185280, Note_on_c, 0, 74, 71
2, 185280, Note_on_c, 0, 62, 71
2, 185370, Note_on_c, 0, 62, 0
2, 185370, Note_on_c, 0, 74, 0
2, 185370, Note_on_c, 0, 81, 0
2, 185370, Note_on_c, 0, 89, 0
2, 185370, Note_on_c, 0, 93, 0
2, 185400, Note_on_c, 0, 88, 71
2, 185400, Note_on_c, 0, 91, 71
2, 185400, Note_on_c, 0, 79, 71
2, 185400, Note_on_c, 0, 69, 71
2, 185400, Note_on_c, 0, 57, 71
2, 185490, Note_on_c, 0, 79, 0
2, 185490, Note_on_c, 0, 91, 0
2, 185490, Note_on_c, 0, 88, 0
2, 185520, Note_on_c, 0, 85, 71
2, 185520, Note_on_c, 0, 88, 71
2, 185520, Note_on_c, 0, 79, 71
2, 185550, Note_on_c, 0, 57, 0
2, 185550, Note_on_c, 0, 69, 0
2, 185580, Note_on_c, 0, 57, 71
2, 185580, Note_on_c, 0, 45, 71
2, 185610, Note_on_c, 0, 45, 0
2, 185610, Note_on_c, 0, 79, 0
2, 185610, Note_on_c, 0, 57, 0
2, 185610, Note_on_c, 0, 88, 0
2, 185610, Note_on_c, 0, 85, 0
2, 185640, Note_on_c, 0, 85, 71
2, 185640, Note_on_c, 0, 93, 71
2, 185640, Note_on_c, 0, 79, 71
2, 185640, Note_on_c, 0, 57, 71
2, 185640, Note_on_c, 0, 45, 71
2, 185730, Note_on_c, 0, 45, 0
2, 185730, Note_on_c, 0, 57, 0
2, 185730, Note_on_c, 0, 79, 0
2, 185730, Note_on_c, 0, 85, 0
2, 185730, Note_on_c, 0, 93, 0
2, 185760, Note_on_c, 0, 86, 71
2, 185760, Note_on_c, 0, 89, 71
2, 185760, Note_on_c, 0, 77, 71
2, 185760, Note_on_c, 0, 50, 71
2, 185760, Note_on_c, 0, 38, 71
2, 185850, Note_on_c, 0, 86, 0
2, 185850, Note_on_c, 0, 77, 0
2, 185850, Note_on_c, 0, 89, 0
2, 185880, Note_on_c, 0, 81, 71
2, 185880, Note_on_c, 0, 86, 71
2, 185880, Note_on_c, 0, 77, 71
2, 185910, Note_on_c, 0, 38, 0
2, 185910, Note_on_c, 0, 50, 0
2, 185940, Note_on_c, 0, 74, 71
2, 185940, Note_on_c, 0, 62, 71
2, 185970, Note_on_c, 0, 62, 0
2, 185970, Note_on_c, 0, 74, 0
2, 185970, Note_on_c, 0, 86, 0
2, 185970, Note_on_c, 0, 77, 0
2, 185970, Note_on_c, 0, 81, 0
2, 186000, Note_on_c, 0, 89, 71
2, 186000, Note_on_c, 0, 93, 71
2, 186000, Note_on_c, 0, 81, 71
2, 186000, Note_on_c, 0, 74, 71
2, 186000, Note_on_c, 0, 62, 71
2, 186090, Note_on_c, 0, 62, 0
2, 186090, Note_on_c, 0, 74, 0
2, 186090, Note_on_c, 0, 81, 0
2, 186090, Note_on_c, 0, 89, 0
2, 186090, Note_on_c, 0, 93, 0
2, 186120, Note_on_c, 0, 88, 71
2, 186120, Note_on_c, 0, 91, 71
2, 186120, Note_on_c, 0, 79, 71
2, 186120, Note_on_c, 0, 69, 71
2, 186120, Note_on_c, 0, 57, 71
2, 186210, Note_on_c, 0, 79, 0
2, 186210, Note_on_c, 0, 91, 0
2, 186210, Note_on_c, 0, 88, 0
2, 186240, Note_on_c, 0, 85, 71
2, 186240, Note_on_c, 0, 88, 71
2, 186240, Note_on_c, 0, 79, 71
2, 186270, Note_on_c, 0, 57, 0
2, 186270, Note_on_c, 0, 69, 0
2, 186300, Note_on_c, 0, 57, 71
2, 186300, Note_on_c, 0, 45, 71
2, 186330, Note_on_c, 0, 45, 0
2, 186330, Note_on_c, 0, 79, 0
2, 186330, Note_on_c, 0, 57, 0
2, 186330, Note_on_c, 0, 88, 0
2, 186330, Note_on_c, 0, 85, 0
2, 186360, Note_on_c, 0, 85, 71
2, 186360, Note_on_c, 0, 93, 71
2, 186360, Note_on_c, 0, 79, 71
2, 186360, Note_on_c, 0, 57, 71
2, 186360, Note_on_c, 0, 45, 71
2, 186450, Note_on_c, 0, 45, 0
2, 186450, Note_on_c, 0, 57, 0
2, 186450, Note_on_c, 0, 79, 0
2, 186450, Note_on_c, 0, 85, 0
2, 186450, Note_on_c, 0, 93, 0
2, 186480, Note_on_c, 0, 69, 71
2, 186480, Note_on_c, 0, 67, 71
2, 186600, Note_on_c, 0, 73, 71
2, 186600, Note_on_c, 0, 64, 71
2, 186630, Note_on_c, 0, 67, 0
2, 186630, Note_on_c, 0, 69, 0
2, 186720, Note_on_c, 0, 76, 71
2, 186720, Note_on_c, 0, 61, 71
2, 186750, Note_on_c, 0, 64, 0
2, 186750, Note_on_c, 0, 73, 0
2, 186840, Note_on_c, 0, 79, 71
2, 186840, Note_on_c, 0, 67, 71
2, 186840, Note_on_c, 0, 55, 71
2, 186840, Note_on_c, 0, 45, 71
2, 186870, Note_on_c, 0, 61, 0
2, 186870, Note_on_c, 0, 76, 0
2, 186960, Note_on_c, 0, 85, 71
2, 186960, Note_on_c, 0, 73, 71
2, 186960, Note_on_c, 0, 52, 71
2, 186990, Note_on_c, 0, 55, 0
2, 186990, Note_on_c, 0, 67, 0
2, 186990, Note_on_c, 0, 79, 0
2, 187080, Note_on_c, 0, 45, 0
2, 187080, Note_on_c, 0, 88, 71
2, 187080, Note_on_c, 0, 76, 71
2, 187080, Note_on_c, 0, 49, 71
2, 187110, Note_on_c, 0, 85, 0
2, 187110, Note_on_c, 0, 52, 0
2, 187110, Note_on_c, 0, 73, 0
2, 187170, Note_on_c, 0, 49, 0
2, 187200, Note_on_c, 0, 91, 71
2, 187200, Note_on_c, 0, 79, 71
2, 187200, Note_on_c, 0, 52, 71
2, 187200, Note_on_c, 0, 55, 71
2, 187200, Note_on_c, 0, 45, 71
2, 187230, Note_on_c, 0, 76, 0
2, 187230, Note_on_c, 0, 88, 0
2, 187320, Note_on_c, 0, 61, 71
2, 187350, Note_on_c, 0, 45, 0
2, 187350, Note_on_c, 0, 55, 0
2, 187350, Note_on_c, 0, 52, 0
2, 187440, Note_on_c, 0, 79, 0
2, 187440, Note_on_c, 0, 61, 0
2, 187440, Note_on_c, 0, 91, 0
2, 187440, Note_on_c, 0, 64, 71
2, 187560, Note_on_c, 0, 67, 71
2, 187560, Note_on_c, 0, 57, 71
2, 187590, Note_on_c, 0, 64, 0
2, 187680, Note_on_c, 0, 88, 71
2, 187680, Note_on_c, 0, 76, 71
2, 187680, Note_on_c, 0, 61, 71
2, 187710, Note_on_c, 0, 67, 0
2, 187710, Note_on_c, 0, 57, 0
2, 187770, Note_on_c, 0, 76, 0
2, 187770, Note_on_c, 0, 88, 0
2, 187800, Note_on_c, 0, 61, 0
2, 187800, Note_on_c, 0, 85, 71
2, 187800, Note_on_c, 0, 73, 71
2, 187800, Note_on_c, 0, 64, 71
2, 187890, Note_on_c, 0, 73, 0
2, 187890, Note_on_c, 0, 85, 0
2, 187920, Note_on_c, 0, 86, 53
2, 187920, Note_on_c, 0, 74, 53
2, 187920, Note_on_c, 0, 50, 53
2, 187920, Note_on_c, 0, 38, 53
2, 187950, Note_on_c, 0, 38, 0
2, 187950, Note_on_c, 0, 50, 0
2, 187950, Note_on_c, 0, 74, 0
2, 187950, Note_on_c, 0, 64, 0
2, 187950, Note_on_c, 0, 86, 0
2, 188100, Note_on_c, 0, 57, 53
2, 188100, Note_on_c, 0, 62, 53
2, 188100, Note_on_c, 0, 53, 53
2, 188130, Note_on_c, 0, 62, 0
2, 188130, Note_on_c, 0, 53, 0
2, 188130, Note_on_c, 0, 57, 0
2, 188160, Note_on_c, 0, 57, 53
2, 188160, Note_on_c, 0, 62, 53
2, 188160, Note_on_c, 0, 53, 53
2, 188190, Note_on_c, 0, 62, 0
2, 188190, Note_on_c, 0, 53, 0
2, 188190, Note_on_c, 0, 57, 0
2, 188280, Note_on_c, 0, 81, 53
2, 188280, Note_on_c, 0, 89, 53
2, 188280, Note_on_c, 0, 77, 53
2, 188280, Note_on_c, 0, 57, 53
2, 188280, Note_on_c, 0, 45, 53
2, 188310, Note_on_c, 0, 45, 0
2, 188310, Note_on_c, 0, 77, 0
2, 188310, Note_on_c, 0, 57, 0
2, 188310, Note_on_c, 0, 81, 0
2, 188310, Note_on_c, 0, 89, 0
2, 188460, Note_on_c, 0, 69, 53
2, 188460, Note_on_c, 0, 74, 53
2, 188460, Note_on_c, 0, 65, 53
2, 188490, Note_on_c, 0, 65, 0
2, 188490, Note_on_c, 0, 69, 0
2, 188490, Note_on_c, 0, 74, 0
2, 188520, Note_on_c, 0, 69, 53
2, 188520, Note_on_c, 0, 74, 53
2, 188520, Note_on_c, 0, 65, 53
2, 188550, Note_on_c, 0, 65, 0
2, 188550, Note_on_c, 0, 69, 0
2, 188550, Note_on_c, 0, 74, 0
2, 188640, Note_on_c, 0, 69, 53
2, 188640, Note_on_c, 0, 74, 53
2, 188640, Note_on_c, 0, 65, 53
2, 188640, Note_on_c, 0, 53, 53
2, 188640, Note_on_c, 0, 41, 53
2, 188670, Note_on_c, 0, 41, 0
2, 188670, Note_on_c, 0, 65, 0
2, 188670, Note_on_c, 0, 53, 0
2, 188670, Note_on_c, 0, 69, 0
2, 188670, Note_on_c, 0, 74, 0
2, 188820, Note_on_c, 0, 57, 53
2, 188820, Note_on_c, 0, 62, 53
2, 188820, Note_on_c, 0, 53, 53
2, 188850, Note_on_c, 0, 62, 0
2, 188850, Note_on_c, 0, 53, 0
2, 188850, Note_on_c, 0, 57, 0
2, 188880, Note_on_c, 0, 57, 53
2, 188880, Note_on_c, 0, 62, 53
2, 188880, Note_on_c, 0, 53, 53
2, 188910, Note_on_c, 0, 62, 0
2, 188910, Note_on_c, 0, 53, 0
2, 188910, Note_on_c, 0, 57, 0
2, 189000, Note_on_c, 0, 77, 53
2, 189000, Note_on_c, 0, 86, 53
2, 189000, Note_on_c, 0, 74, 53
2, 189000, Note_on_c, 0, 50, 53
2, 189000, Note_on_c, 0, 38, 53
2, 189030, Note_on_c, 0, 38, 0
2, 189030, Note_on_c, 0, 50, 0
2, 189030, Note_on_c, 0, 74, 0
2, 189030, Note_on_c, 0, 77, 0
2, 189030, Note_on_c, 0, 86, 0
2, 189180, Note_on_c, 0, 69, 53
2, 189180, Note_on_c, 0, 74, 53
2, 189180, Note_on_c, 0, 65, 53
2, 189210, Note_on_c, 0, 65, 0
2, 189210, Note_on_c, 0, 69, 0
2, 189210, Note_on_c, 0, 74, 0
2, 189240, Note_on_c, 0, 69, 53
2, 189240, Note_on_c, 0, 74, 53
2, 189240, Note_on_c, 0, 65, 53
2, 189270, Note_on_c, 0, 65, 0
2, 189270, Note_on_c, 0, 69, 0
2, 189270, Note_on_c, 0, 74, 0
2, 189360, Note_on_c, 0, 69, 53
2, 189360, Note_on_c, 0, 74, 53
2, 189360, Note_on_c, 0, 65, 53
2, 189390, Note_on_c, 0, 65, 0
2, 189390, Note_on_c, 0, 69, 0
2, 189390, Note_on_c, 0, 74, 0
2, 190800, Note_on_c, 0, 69, 53
2, 190800, Note_on_c, 0, 74, 53
2, 190800, Note_on_c, 0, 65, 53
2, 190800, Note_on_c, 0, 50, 53
2, 190800, Note_on_c, 0, 38, 53
2, 190830, Note_on_c, 0, 38, 0
2, 190830, Note_on_c, 0, 50, 0
2, 190830, Note_on_c, 0, 65, 0
2, 190830, Note_on_c, 0, 69, 0
2, 190830, Note_on_c, 0, 74, 0
2, 190980, Note_on_c, 0, 57, 53
2, 190980, Note_on_c, 0, 62, 53
2, 190980, Note_on_c, 0, 53, 53
2, 191010, Note_on_c, 0, 62, 0
2, 191010, Note_on_c, 0, 53, 0
2, 191010, Note_on_c, 0, 57, 0
2, 191040, Note_on_c, 0, 57, 53
2, 191040, Note_on_c, 0, 62, 53
2, 191040, Note_on_c, 0, 53, 53
2, 191070, Note_on_c, 0, 62, 0
2, 191070, Note_on_c, 0, 53, 0
2, 191070, Note_on_c, 0, 57, 0
2, 191160, Note_on_c, 0, 77, 53
2, 191160, Note_on_c, 0, 86, 53
2, 191160, Note_on_c, 0, 74, 53
2, 191160, Note_on_c, 0, 58, 53
2, 191160, Note_on_c, 0, 46, 53
2, 191190, Note_on_c, 0, 46, 0
2, 191190, Note_on_c, 0, 58, 0
2, 191190, Note_on_c, 0, 74, 0
2, 191190, Note_on_c, 0, 77, 0
2, 191190, Note_on_c, 0, 86, 0
2, 191340, Note_on_c, 0, 70, 53
2, 191340, Note_on_c, 0, 74, 53
2, 191340, Note_on_c, 0, 65, 53
2, 191370, Note_on_c, 0, 65, 0
2, 191370, Note_on_c, 0, 70, 0
2, 191370, Note_on_c, 0, 74, 0
2, 191400, Note_on_c, 0, 70, 53
2, 191400, Note_on_c, 0, 74, 53
2, 191400, Note_on_c, 0, 65, 53
2, 191430, Note_on_c, 0, 65, 0
2, 191430, Note_on_c, 0, 70, 0
2, 191430, Note_on_c, 0, 74, 0
2, 191520, Note_on_c, 0, 70, 53
2, 191520, Note_on_c, 0, 74, 53
2, 191520, Note_on_c, 0, 65, 53
2, 191520, Note_on_c, 0, 53, 53
2, 191520, Note_on_c, 0, 41, 53
2, 191550, Note_on_c, 0, 41, 0
2, 191550, Note_on_c, 0, 65, 0
2, 191550, Note_on_c, 0, 53, 0
2, 191550, Note_on_c, 0, 70, 0
2, 191550, Note_on_c, 0, 74, 0
2, 191700, Note_on_c, 0, 58, 53
2, 191700, Note_on_c, 0, 62, 53
2, 191700, Note_on_c, 0, 53, 53
2, 191730, Note_on_c, 0, 62, 0
2, 191730, Note_on_c, 0, 53, 0
2, 191730, Note_on_c, 0, 58, 0
2, 191760, Note_on_c, 0, 58, 53
2, 191760, Note_on_c, 0, 62, 53
2, 191760, Note_on_c, 0, 53, 53
2, 191790, Note_on_c, 0, 62, 0
2, 191790, Note_on_c, 0, 53, 0
2, 191790, Note_on_c, 0, 58, 0
2, 191880, Note_on_c, 0, 82, 53
2, 191880, Note_on_c, 0, 86, 53
2, 191880, Note_on_c, 0, 77, 53
2, 191880, Note_on_c, 0, 50, 53
2, 191880, Note_on_c, 0, 38, 53
2, 191910, Note_on_c, 0, 38, 0
2, 191910, Note_on_c, 0, 77, 0
2, 191910, Note_on_c, 0, 50, 0
2, 191910, Note_on_c, 0, 86, 0
2, 191910, Note_on_c, 0, 82, 0
2, 192060, Note_on_c, 0, 70, 53
2, 192060, Note_on_c, 0, 74, 53
2, 192060, Note_on_c, 0, 65, 53
2, 192090, Note_on_c, 0, 65, 0
2, 192090, Note_on_c, 0, 70, 0
2, 192090, Note_on_c, 0, 74, 0
2, 192120, Note_on_c, 0, 70, 53
2, 192120, Note_on_c, 0, 74, 53
2, 192120, Note_on_c, 0, 65, 53
2, 192150, Note_on_c, 0, 65, 0
2, 192150, Note_on_c, 0, 70, 0
2, 192150, Note_on_c, 0, 74, 0
2, 192240, Note_on_c, 0, 70, 53
2, 192240, Note_on_c, 0, 74, 53
2, 192240, Note_on_c, 0, 77, 53
2, 192240, Note_on_c, 0, 65, 53
2, 192240, Note_on_c, 0, 46, 53
2, 192240, Note_on_c, 0, 34, 53
2, 192270, Note_on_c, 0, 34, 0
2, 192270, Note_on_c, 0, 46, 0
2, 192270, Note_on_c, 0, 74, 0
2, 192270, Note_on_c, 0, 77, 0
2, 192270, Note_on_c, 0, 65, 0
2, 192270, Note_on_c, 0, 70, 0
2, 192420, Note_on_c, 0, 58, 53
2, 192420, Note_on_c, 0, 62, 53
2, 192420, Note_on_c, 0, 53, 53
2, 192450, Note_on_c, 0, 62, 0
2, 192450, Note_on_c, 0, 53, 0
2, 192450, Note_on_c, 0, 58, 0
2, 192480, Note_on_c, 0, 58, 53
2, 192480, Note_on_c, 0, 62, 53
2, 192480, Note_on_c, 0, 53, 53
2, 192510, Note_on_c, 0, 62, 0
2, 192510, Note_on_c, 0, 53, 0
2, 192510, Note_on_c, 0, 58, 0
2, 192600, Note_on_c, 0, 82, 53
2, 192600, Note_on_c, 0, 86, 53
2, 192600, Note_on_c, 0, 74, 53
2, 192600, Note_on_c, 0, 53, 53
2, 192600, Note_on_c, 0, 41, 53
2, 192630, Note_on_c, 0, 41, 0
2, 192630, Note_on_c, 0, 74, 0
2, 192630, Note_on_c, 0, 53, 0
2, 192630, Note_on_c, 0, 82, 0
2, 192630, Note_on_c, 0, 86, 0
2, 192780, Note_on_c, 0, 74, 53
2, 192780, Note_on_c, 0, 82, 53
2, 192780, Note_on_c, 0, 70, 53
2, 192810, Note_on_c, 0, 70, 0
2, 192810, Note_on_c, 0, 74, 0
2, 192810, Note_on_c, 0, 82, 0
2, 192840, Note_on_c, 0, 74, 53
2, 192840, Note_on_c, 0, 82, 53
2, 192840, Note_on_c, 0, 70, 53
2, 192870, Note_on_c, 0, 70, 0
2, 192870, Note_on_c, 0, 74, 0
2, 192870, Note_on_c, 0, 82, 0
2, 192960, Note_on_c, 0, 77, 53
2, 192960, Note_on_c, 0, 82, 53
2, 192960, Note_on_c, 0, 70, 53
2, 192960, Note_on_c, 0, 50, 53
2, 192960, Note_on_c, 0, 38, 53
2, 192990, Note_on_c, 0, 38, 0
2, 192990, Note_on_c, 0, 50, 0
2, 192990, Note_on_c, 0, 70, 0
2, 192990, Note_on_c, 0, 77, 0
2, 192990, Note_on_c, 0, 82, 0
2, 193140, Note_on_c, 0, 53, 53
2, 193140, Note_on_c, 0, 58, 53
2, 193140, Note_on_c, 0, 50, 53
2, 193170, Note_on_c, 0, 50, 0
2, 193170, Note_on_c, 0, 53, 0
2, 193170, Note_on_c, 0, 58, 0
2, 193200, Note_on_c, 0, 53, 53
2, 193200, Note_on_c, 0, 58, 53
2, 193200, Note_on_c, 0, 50, 53
2, 193230, Note_on_c, 0, 50, 0
2, 193230, Note_on_c, 0, 53, 0
2, 193230, Note_on_c, 0, 58, 0
2, 193320, Note_on_c, 0, 79, 53
2, 193320, Note_on_c, 0, 82, 53
2, 193320, Note_on_c, 0, 70, 53
2, 193320, Note_on_c, 0, 51, 53
2, 193320, Note_on_c, 0, 39, 53
2, 193350, Note_on_c, 0, 39, 0
2, 193350, Note_on_c, 0, 51, 0
2, 193350, Note_on_c, 0, 70, 0
2, 193350, Note_on_c, 0, 79, 0
2, 193350, Note_on_c, 0, 82, 0
2, 193500, Note_on_c, 0, 67, 53
2, 193500, Note_on_c, 0, 70, 53
2, 193500, Note_on_c, 0, 63, 53
2, 193500, Note_on_c, 0, 55, 53
2, 193500, Note_on_c, 0, 58, 53
2, 193500, Note_on_c, 0, 51, 53
2, 193530, Note_on_c, 0, 51, 0
2, 193530, Note_on_c, 0, 58, 0
2, 193530, Note_on_c, 0, 63, 0
2, 193530, Note_on_c, 0, 55, 0
2, 193530, Note_on_c, 0, 67, 0
2, 193530, Note_on_c, 0, 70, 0
2, 193560, Note_on_c, 0, 67, 53
2, 193560, Note_on_c, 0, 70, 53
2, 193560, Note_on_c, 0, 63, 53
2, 193560, Note_on_c, 0, 55, 53
2, 193560, Note_on_c, 0, 58, 53
2, 193560, Note_on_c, 0, 51, 53
2, 193590, Note_on_c, 0, 51, 0
2, 193590, Note_on_c, 0, 58, 0
2, 193590, Note_on_c, 0, 63, 0
2, 193590, Note_on_c, 0, 55, 0
2, 193590, Note_on_c, 0, 67, 0
2, 193590, Note_on_c, 0, 70, 0
2, 193680, Note_on_c, 0, 67, 53
2, 193680, Note_on_c, 0, 70, 53
2, 193680, Note_on_c, 0, 63, 53
2, 193680, Note_on_c, 0, 55, 53
2, 193680, Note_on_c, 0, 58, 53
2, 193680, Note_on_c, 0, 51, 53
2, 193710, Note_on_c, 0, 51, 0
2, 193710, Note_on_c, 0, 58, 0
2, 193710, Note_on_c, 0, 63, 0
2, 193710, Note_on_c, 0, 55, 0
2, 193710, Note_on_c, 0, 67, 0
2, 193710, Note_on_c, 0, 70, 0
2, 195120, Note_on_c, 0, 70, 54
2, 195120, Note_on_c, 0, 75, 54
2, 195120, Note_on_c, 0, 67, 54
2, 195120, Note_on_c, 0, 51, 54
2, 195120, Note_on_c, 0, 39, 54
2, 195175, Note_on_c, 0, 39, 0
2, 195175, Note_on_c, 0, 51, 0
2, 195175, Note_on_c, 0, 67, 0
2, 195175, Note_on_c, 0, 70, 0
2, 195175, Note_on_c, 0, 75, 0
2, 195300, Note_on_c, 0, 58, 56
2, 195300, Note_on_c, 0, 63, 56
2, 195300, Note_on_c, 0, 55, 56
2, 195355, Note_on_c, 0, 55, 0
2, 195355, Note_on_c, 0, 58, 0
2, 195355, Note_on_c, 0, 63, 0
2, 195360, Note_on_c, 0, 58, 57
2, 195360, Note_on_c, 0, 63, 57
2, 195360, Note_on_c, 0, 55, 57
2, 195415, Note_on_c, 0, 55, 0
2, 195415, Note_on_c, 0, 58, 0
2, 195415, Note_on_c, 0, 63, 0
2, 195480, Note_on_c, 0, 79, 59
2, 195480, Note_on_c, 0, 87, 59
2, 195480, Note_on_c, 0, 75, 59
2, 195480, Note_on_c, 0, 60, 59
2, 195480, Note_on_c, 0, 48, 59
2, 195535, Note_on_c, 0, 48, 0
2, 195535, Note_on_c, 0, 60, 0
2, 195535, Note_on_c, 0, 75, 0
2, 195535, Note_on_c, 0, 79, 0
2, 195535, Note_on_c, 0, 87, 0
2, 195660, Note_on_c, 0, 72, 61
2, 195660, Note_on_c, 0, 75, 61
2, 195660, Note_on_c, 0, 67, 61
2, 195715, Note_on_c, 0, 67, 0
2, 195715, Note_on_c, 0, 72, 0
2, 195715, Note_on_c, 0, 75, 0
2, 195720, Note_on_c, 0, 72, 62
2, 195720, Note_on_c, 0, 75, 62
2, 195720, Note_on_c, 0, 67, 62
2, 195775, Note_on_c, 0, 67, 0
2, 195775, Note_on_c, 0, 72, 0
2, 195775, Note_on_c, 0, 75, 0
2, 195840, Note_on_c, 0, 72, 64
2, 195840, Note_on_c, 0, 75, 64
2, 195840, Note_on_c, 0, 68, 64
2, 195840, Note_on_c, 0, 56, 64
2, 195840, Note_on_c, 0, 44, 64
2, 195895, Note_on_c, 0, 44, 0
2, 195895, Note_on_c, 0, 56, 0
2, 195895, Note_on_c, 0, 68, 0
2, 195895, Note_on_c, 0, 72, 0
2, 195895, Note_on_c, 0, 75, 0
2, 196020, Note_on_c, 0, 60, 67
2, 196020, Note_on_c, 0, 63, 67
2, 196020, Note_on_c, 0, 56, 67
2, 196075, Note_on_c, 0, 56, 0
2, 196075, Note_on_c, 0, 60, 0
2, 196075, Note_on_c, 0, 63, 0
2, 196080, Note_on_c, 0, 60, 68
2, 196080, Note_on_c, 0, 63, 68
2, 196080, Note_on_c, 0, 56, 68
2, 196135, Note_on_c, 0, 56, 0
2, 196135, Note_on_c, 0, 60, 0
2, 196135, Note_on_c, 0, 63, 0
2, 196200, Note_on_c, 0, 80, 69
2, 196200, Note_on_c, 0, 89, 69
2, 196200, Note_on_c, 0, 77, 69
2, 196200, Note_on_c, 0, 60, 69
2, 196200, Note_on_c, 0, 65, 69
2, 196200, Note_on_c, 0, 53, 69
2, 196255, Note_on_c, 0, 65, 0
2, 196255, Note_on_c, 0, 60, 0
2, 196255, Note_on_c, 0, 80, 0
2, 196255, Note_on_c, 0, 53, 0
2, 196255, Note_on_c, 0, 77, 0
2, 196255, Note_on_c, 0, 89, 0
2, 196380, Note_on_c, 0, 72, 71
2, 196380, Note_on_c, 0, 77, 71
2, 196380, Note_on_c, 0, 68, 71
2, 196435, Note_on_c, 0, 68, 0
2, 196435, Note_on_c, 0, 77, 0
2, 196435, Note_on_c, 0, 72, 0
2, 196440, Note_on_c, 0, 72, 72
2, 196440, Note_on_c, 0, 77, 72
2, 196440, Note_on_c, 0, 68, 72
2, 196495, Note_on_c, 0, 68, 0
2, 196495, Note_on_c, 0, 77, 0
2, 196495, Note_on_c, 0, 72, 0
2, 196560, Note_on_c, 0, 73, 74
2, 196560, Note_on_c, 0, 77, 74
2, 196560, Note_on_c, 0, 68, 74
2, 196560, Note_on_c, 0, 61, 74
2, 196560, Note_on_c, 0, 49, 74
2, 196615, Note_on_c, 0, 49, 0
2, 196615, Note_on_c, 0, 77, 0
2, 196615, Note_on_c, 0, 61, 0
2, 196615, Note_on_c, 0, 68, 0
2, 196615, Note_on_c, 0, 73, 0
2, 196740, Note_on_c, 0, 65, 77
2, 196740, Note_on_c, 0, 61, 77
2, 196795, Note_on_c, 0, 61, 0
2, 196795, Note_on_c, 0, 65, 0
2, 196800, Note_on_c, 0, 65, 78
2, 196800, Note_on_c, 0, 61, 78
2, 196855, Note_on_c, 0, 61, 0
2, 196855, Note_on_c, 0, 65, 0
2, 196920, Note_on_c, 0, 85, 78
2, 196920, Note_on_c, 0, 89, 78
2, 196920, Note_on_c, 0, 77, 78
2, 196920, Note_on_c, 0, 58, 79
2, 196920, Note_on_c, 0, 46, 79
2, 196975, Note_on_c, 0, 46, 0
2, 196975, Note_on_c, 0, 77, 0
2, 196975, Note_on_c, 0, 58, 0
2, 196975, Note_on_c, 0, 85, 0
2, 196975, Note_on_c, 0, 89, 0
2, 197100, Note_on_c, 0, 73, 81
2, 197100, Note_on_c, 0, 77, 81
2, 197100, Note_on_c, 0, 70, 81
2, 197155, Note_on_c, 0, 70, 0
2, 197155, Note_on_c, 0, 77, 0
2, 197155, Note_on_c, 0, 73, 0
2, 197160, Note_on_c, 0, 73, 82
2, 197160, Note_on_c, 0, 77, 82
2, 197160, Note_on_c, 0, 70, 82
2, 197215, Note_on_c, 0, 70, 0
2, 197215, Note_on_c, 0, 77, 0
2, 197215, Note_on_c, 0, 73, 0
2, 197280, Note_on_c, 0, 73, 83
2, 197280, Note_on_c, 0, 78, 83
2, 197280, Note_on_c, 0, 70, 83
2, 197280, Note_on_c, 0, 54, 85
2, 197280, Note_on_c, 0, 42, 85
2, 197335, Note_on_c, 0, 42, 0
2, 197335, Note_on_c, 0, 54, 0
2, 197335, Note_on_c, 0, 70, 0
2, 197335, Note_on_c, 0, 73, 0
2, 197335, Note_on_c, 0, 78, 0
2, 197460, Note_on_c, 0, 61, 87
2, 197460, Note_on_c, 0, 66, 87
2, 197460, Note_on_c, 0, 58, 87
2, 197515, Note_on_c, 0, 58, 0
2, 197515, Note_on_c, 0, 61, 0
2, 197515, Note_on_c, 0, 66, 0
2, 197520, Note_on_c, 0, 61, 88
2, 197520, Note_on_c, 0, 66, 88
2, 197520, Note_on_c, 0, 58, 88
2, 197575, Note_on_c, 0, 58, 0
2, 197575, Note_on_c, 0, 61, 0
2, 197575, Note_on_c, 0, 66, 0
2, 197640, Note_on_c, 0, 82, 88
2, 197640, Note_on_c, 0, 90, 88
2, 197640, Note_on_c, 0, 78, 88
2, 197640, Note_on_c, 0, 63, 90
2, 197640, Note_on_c, 0, 51, 90
2, 197695, Note_on_c, 0, 51, 0
2, 197695, Note_on_c, 0, 63, 0
2, 197695, Note_on_c, 0, 78, 0
2, 197695, Note_on_c, 0, 82, 0
2, 197695, Note_on_c, 0, 90, 0
2, 197820, Note_on_c, 0, 75, 91
2, 197820, Note_on_c, 0, 78, 91
2, 197820, Note_on_c, 0, 70, 91
2, 197875, Note_on_c, 0, 70, 0
2, 197875, Note_on_c, 0, 75, 0
2, 197875, Note_on_c, 0, 78, 0
2, 197880, Note_on_c, 0, 75, 92
2, 197880, Note_on_c, 0, 78, 92
2, 197880, Note_on_c, 0, 70, 92
2, 197935, Note_on_c, 0, 70, 0
2, 197935, Note_on_c, 0, 75, 0
2, 197935, Note_on_c, 0, 78, 0
2, 198000, Note_on_c, 0, 75, 93
2, 198000, Note_on_c, 0, 78, 93
2, 198000, Note_on_c, 0, 71, 93
2, 198000, Note_on_c, 0, 59, 95
2, 198000, Note_on_c, 0, 47, 95
2, 198055, Note_on_c, 0, 47, 0
2, 198055, Note_on_c, 0, 59, 0
2, 198055, Note_on_c, 0, 71, 0
2, 198055, Note_on_c, 0, 75, 0
2, 198055, Note_on_c, 0, 78, 0
2, 198180, Note_on_c, 0, 63, 96
2, 198180, Note_on_c, 0, 66, 96
2, 198180, Note_on_c, 0, 59, 96
2, 198235, Note_on_c, 0, 59, 0
2, 198235, Note_on_c, 0, 63, 0
2, 198235, Note_on_c, 0, 66, 0
2, 198240, Note_on_c, 0, 63, 96
2, 198240, Note_on_c, 0, 66, 96
2, 198240, Note_on_c, 0, 59, 96
2, 198295, Note_on_c, 0, 59, 0
2, 198295, Note_on_c, 0, 63, 0
2, 198295, Note_on_c, 0, 66, 0
2, 198360, Note_on_c, 0, 83, 98
2, 198360, Note_on_c, 0, 92, 98
2, 198360, Note_on_c, 0, 80, 98
2, 198360, Note_on_c, 0, 63, 100
2, 198360, Note_on_c, 0, 68, 100
2, 198360, Note_on_c, 0, 56, 100
2, 198415, Note_on_c, 0, 56, 0
2, 198415, Note_on_c, 0, 68, 0
2, 198415, Note_on_c, 0, 80, 0
2, 198415, Note_on_c, 0, 63, 0
2, 198415, Note_on_c, 0, 83, 0
2, 198415, Note_on_c, 0, 92, 0
2, 198540, Note_on_c, 0, 75, 101
2, 198540, Note_on_c, 0, 80, 101
2, 198540, Note_on_c, 0, 71, 101
2, 198595, Note_on_c, 0, 71, 0
2, 198595, Note_on_c, 0, 75, 0
2, 198595, Note_on_c, 0, 80, 0
2, 198600, Note_on_c, 0, 75, 101
2, 198600, Note_on_c, 0, 80, 101
2, 198600, Note_on_c, 0, 71, 101
2, 198655, Note_on_c, 0, 71, 0
2, 198655, Note_on_c, 0, 75, 0
2, 198655, Note_on_c, 0, 80, 0
2, 198720, Note_on_c, 0, 76, 103
2, 198720, Note_on_c, 0, 80, 103
2, 198720, Note_on_c, 0, 71, 103
2, 198720, Note_on_c, 0, 64, 105
2, 198720, Note_on_c, 0, 52, 105
2, 198775, Note_on_c, 0, 52, 0
2, 198775, Note_on_c, 0, 64, 0
2, 198775, Note_on_c, 0, 71, 0
2, 198775, Note_on_c, 0, 76, 0
2, 198775, Note_on_c, 0, 80, 0
2, 198900, Note_on_c, 0, 64, 108
2, 198900, Note_on_c, 0, 68, 108
2, 198900, Note_on_c, 0, 59, 108
2, 198955, Note_on_c, 0, 59, 0
2, 198955, Note_on_c, 0, 64, 0
2, 198955, Note_on_c, 0, 68, 0
2, 198960, Note_on_c, 0, 64, 108
2, 198960, Note_on_c, 0, 68, 108
2, 198960, Note_on_c, 0, 59, 108
2, 199015, Note_on_c, 0, 59, 0
2, 199015, Note_on_c, 0, 64, 0
2, 199015, Note_on_c, 0, 68, 0
2, 199080, Note_on_c, 0, 88, 108
2, 199080, Note_on_c, 0, 92, 108
2, 199080, Note_on_c, 0, 80, 108
2, 199080, Note_on_c, 0, 61, 110
2, 199080, Note_on_c, 0, 49, 110
2, 199135, Note_on_c, 0, 49, 0
2, 199135, Note_on_c, 0, 61, 0
2, 199135, Note_on_c, 0, 80, 0
2, 199135, Note_on_c, 0, 88, 0
2, 199135, Note_on_c, 0, 92, 0
2, 199260, Note_on_c, 0, 76, 110
2, 199260, Note_on_c, 0, 80, 110
2, 199260, Note_on_c, 0, 73, 110
2, 199315, Note_on_c, 0, 73, 0
2, 199315, Note_on_c, 0, 76, 0
2, 199315, Note_on_c, 0, 80, 0
2, 199320, Note_on_c, 0, 76, 111
2, 199320, Note_on_c, 0, 80, 111
2, 199320, Note_on_c, 0, 73, 111
2, 199375, Note_on_c, 0, 73, 0
2, 199375, Note_on_c, 0, 76, 0
2, 199375, Note_on_c, 0, 80, 0
2, 199440, Note_on_c, 0, 76, 117
2, 199440, Note_on_c, 0, 81, 117
2, 199440, Note_on_c, 0, 73, 117
2, 199440, Note_on_c, 0, 57, 117
2, 199440, Note_on_c, 0, 45, 117
2, 199495, Note_on_c, 0, 45, 0
2, 199495, Note_on_c, 0, 57, 0
2, 199495, Note_on_c, 0, 73, 0
2, 199495, Note_on_c, 0, 76, 0
2, 199495, Note_on_c, 0, 81, 0
2, 199620, Note_on_c, 0, 69, 117
2, 199620, Note_on_c, 0, 57, 117
2, 199675, Note_on_c, 0, 57, 0
2, 199675, Note_on_c, 0, 69, 0
2, 199680, Note_on_c, 0, 69, 117
2, 199680, Note_on_c, 0, 57, 117
2, 199735, Note_on_c, 0, 57, 0
2, 199735, Note_on_c, 0, 69, 0
2, 199800, Note_on_c, 0, 93, 117
2, 199800, Note_on_c, 0, 81, 117
2, 199800, Note_on_c, 0, 45, 117
2, 199855, Note_on_c, 0, 45, 0
2, 199855, Note_on_c, 0, 93, 0
2, 199855, Note_on_c, 0, 81, 0
2, 199980, Note_on_c, 0, 81, 117
2, 199980, Note_on_c, 0, 69, 117
2, 199980, Note_on_c, 0, 57, 117
2, 200035, Note_on_c, 0, 57, 0
2, 200035, Note_on_c, 0, 81, 0
2, 200035, Note_on_c, 0, 69, 0
2, 200040, Note_on_c, 0, 81, 117
2, 200040, Note_on_c, 0, 69, 117
2, 200040, Note_on_c, 0, 57, 117
2, 200095, Note_on_c, 0, 57, 0
2, 200095, Note_on_c, 0, 81, 0
2, 200095, Note_on_c, 0, 69, 0
2, 200160, Note_on_c, 0, 82, 95
2, 200160, Note_on_c, 0, 70, 95
2, 200160, Note_on_c, 0, 58, 95
2, 200160, Note_on_c, 0, 46, 95
2, 200215, Note_on_c, 0, 46, 0
2, 200215, Note_on_c, 0, 58, 0
2, 200215, Note_on_c, 0, 82, 0
2, 200215, Note_on_c, 0, 70, 0
2, 200340, Note_on_c, 0, 70, 95
2, 200340, Note_on_c, 0, 58, 95
2, 200395, Note_on_c, 0, 58, 0
2, 200395, Note_on_c, 0, 70, 0
2, 200400, Note_on_c, 0, 70, 95
2, 200400, Note_on_c, 0, 58, 95
2, 200455, Note_on_c, 0, 58, 0
2, 200455, Note_on_c, 0, 70, 0
2, 200520, Note_on_c, 0, 94, 95
2, 200520, Note_on_c, 0, 82, 95
2, 200520, Note_on_c, 0, 46, 95
2, 200575, Note_on_c, 0, 46, 0
2, 200575, Note_on_c, 0, 94, 0
2, 200575, Note_on_c, 0, 82, 0
2, 200700, Note_on_c, 0, 82, 95
2, 200700, Note_on_c, 0, 70, 95
2, 200700, Note_on_c, 0, 58, 95
2, 200755, Note_on_c, 0, 58, 0
2, 200755, Note_on_c, 0, 82, 0
2, 200755, Note_on_c, 0, 70, 0
2, 200760, Note_on_c, 0, 82, 95
2, 200760, Note_on_c, 0, 70, 95
2, 200760, Note_on_c, 0, 58, 95
2, 200815, Note_on_c, 0, 58, 0
2, 200815, Note_on_c, 0, 82, 0
2, 200815, Note_on_c, 0, 70, 0
2, 200880, Note_on_c, 0, 71, 95
2, 200880, Note_on_c, 0, 83, 95
2, 200880, Note_on_c, 0, 47, 95
2, 200880, Note_on_c, 0, 59, 95
2, 200935, Note_on_c, 0, 59, 0
2, 200935, Note_on_c, 0, 47, 0
2, 200935, Note_on_c, 0, 71, 0
2, 200935, Note_on_c, 0, 83, 0
2, 201060, Note_on_c, 0, 59, 95
2, 201060, Note_on_c, 0, 71, 95
2, 201090, Note_on_c, 0, 71, 0
2, 201090, Note_on_c, 0, 59, 0
2, 201120, Note_on_c, 0, 59, 95
2, 201120, Note_on_c, 0, 71, 95
2, 201235, Note_on_c, 0, 71, 0
2, 201235, Note_on_c, 0, 59, 0
2, 201240, Note_on_c, 0, 95, 95
2, 201240, Note_on_c, 0, 83, 95
2, 201240, Note_on_c, 0, 47, 95
2, 201240, Note_on_c, 0, 35, 95
2, 201295, Note_on_c, 0, 35, 0
2, 201295, Note_on_c, 0, 47, 0
2, 201295, Note_on_c, 0, 95, 0
2, 201295, Note_on_c, 0, 83, 0
2, 201420, Note_on_c, 0, 83, 95
2, 201420, Note_on_c, 0, 71, 95
2, 201420, Note_on_c, 0, 59, 95
2, 201420, Note_on_c, 0, 47, 95
2, 201450, Note_on_c, 0, 47, 0
2, 201450, Note_on_c, 0, 59, 0
2, 201450, Note_on_c, 0, 83, 0
2, 201450, Note_on_c, 0, 71, 0
2, 201480, Note_on_c, 0, 83, 95
2, 201480, Note_on_c, 0, 71, 95
2, 201480, Note_on_c, 0, 59, 95
2, 201480, Note_on_c, 0, 47, 95
2, 201930, Note_on_c, 0, 47, 0
2, 201930, Note_on_c, 0, 59, 0
2, 201930, Note_on_c, 0, 83, 0
2, 201930, Note_on_c, 0, 71, 0
2, 201960, Note_on_c, 0, 59, 53
2, 202015, Note_on_c, 0, 59, 0
2, 202140, Note_on_c, 0, 47, 53
2, 202195, Note_on_c, 0, 47, 0
2, 202200, Note_on_c, 0, 47, 53
2, 202255, Note_on_c, 0, 47, 0
2, 202320, Note_on_c, 0, 52, 53
2, 202320, Note_on_c, 0, 40, 53
2, 202375, Note_on_c, 0, 40, 0
2, 202375, Note_on_c, 0, 52, 0
2, 202440, Note_on_c, 0, 54, 53
2, 202440, Note_on_c, 0, 51, 53
2, 202495, Note_on_c, 0, 51, 0
2, 202495, Note_on_c, 0, 54, 0
2, 202560, Note_on_c, 0, 55, 53
2, 202560, Note_on_c, 0, 52, 53
2, 202615, Note_on_c, 0, 52, 0
2, 202615, Note_on_c, 0, 55, 0
2, 202680, Note_on_c, 0, 47, 53
2, 202680, Note_on_c, 0, 51, 53
2, 202680, Note_on_c, 0, 54, 53
2, 202680, Note_on_c, 0, 35, 53
2, 202735, Note_on_c, 0, 35, 0
2, 202735, Note_on_c, 0, 54, 0
2, 202735, Note_on_c, 0, 47, 0
2, 202735, Note_on_c, 0, 51, 0
2, 202800, Note_on_c, 0, 55, 53
2, 202800, Note_on_c, 0, 52, 53
2, 202855, Note_on_c, 0, 52, 0
2, 202855, Note_on_c, 0, 55, 0
2, 202920, Note_on_c, 0, 57, 53
2, 202920, Note_on_c, 0, 54, 53
2, 202975, Note_on_c, 0, 54, 0
2, 202975, Note_on_c, 0, 57, 0
2, 203040, Note_on_c, 0, 83, 53
2, 203040, Note_on_c, 0, 71, 53
2, 203040, Note_on_c, 0, 55, 53
2, 203040, Note_on_c, 0, 52, 53
2, 203095, Note_on_c, 0, 52, 0
2, 203095, Note_on_c, 0, 55, 0
2, 203095, Note_on_c, 0, 83, 0
2, 203095, Note_on_c, 0, 71, 0
2, 203160, Note_on_c, 0, 59, 53
2, 203160, Note_on_c, 0, 55, 53
2, 203215, Note_on_c, 0, 55, 0
2, 203215, Note_on_c, 0, 59, 0
2, 203220, Note_on_c, 0, 71, 53
2, 203275, Note_on_c, 0, 71, 0
2, 203280, Note_on_c, 0, 71, 53
2, 203280, Note_on_c, 0, 59, 53
2, 203280, Note_on_c, 0, 55, 53
2, 203335, Note_on_c, 0, 55, 0
2, 203335, Note_on_c, 0, 71, 0
2, 203335, Note_on_c, 0, 59, 0
2, 203400, Note_on_c, 0, 76, 53
2, 203400, Note_on_c, 0, 64, 53
2, 203400, Note_on_c, 0, 55, 53
2, 203400, Note_on_c, 0, 59, 53
2, 203400, Note_on_c, 0, 52, 53
2, 203455, Note_on_c, 0, 52, 0
2, 203455, Note_on_c, 0, 59, 0
2, 203455, Note_on_c, 0, 55, 0
2, 203455, Note_on_c, 0, 76, 0
2, 203455, Note_on_c, 0, 64, 0
2, 203520, Note_on_c, 0, 75, 53
2, 203520, Note_on_c, 0, 78, 53
2, 203520, Note_on_c, 0, 66, 53
2, 203520, Note_on_c, 0, 57, 53
2, 203520, Note_on_c, 0, 54, 53
2, 203575, Note_on_c, 0, 54, 0
2, 203575, Note_on_c, 0, 57, 0
2, 203575, Note_on_c, 0, 66, 0
2, 203575, Note_on_c, 0, 75, 0
2, 203575, Note_on_c, 0, 78, 0
2, 203640, Note_on_c, 0, 76, 53
2, 203640, Note_on_c, 0, 79, 53
2, 203640, Note_on_c, 0, 67, 53
2, 203640, Note_on_c, 0, 55, 53
2, 203640, Note_on_c, 0, 52, 53
2, 203695, Note_on_c, 0, 52, 0
2, 203695, Note_on_c, 0, 55, 0
2, 203695, Note_on_c, 0, 67, 0
2, 203695, Note_on_c, 0, 76, 0
2, 203695, Note_on_c, 0, 79, 0
2, 203760, Note_on_c, 0, 75, 53
2, 203760, Note_on_c, 0, 78, 53
2, 203760, Note_on_c, 0, 66, 53
2, 203760, Note_on_c, 0, 54, 53
2, 203760, Note_on_c, 0, 57, 53
2, 203760, Note_on_c, 0, 47, 53
2, 203815, Note_on_c, 0, 47, 0
2, 203815, Note_on_c, 0, 57, 0
2, 203815, Note_on_c, 0, 66, 0
2, 203815, Note_on_c, 0, 54, 0
2, 203815, Note_on_c, 0, 75, 0
2, 203815, Note_on_c, 0, 78, 0
2, 203880, Note_on_c, 0, 76, 53
2, 203880, Note_on_c, 0, 79, 53
2, 203880, Note_on_c, 0, 67, 53
2, 203880, Note_on_c, 0, 55, 53
2, 203880, Note_on_c, 0, 52, 53
2, 203935, Note_on_c, 0, 52, 0
2, 203935, Note_on_c, 0, 55, 0
2, 203935, Note_on_c, 0, 67, 0
2, 203935, Note_on_c, 0, 76, 0
2, 203935, Note_on_c, 0, 79, 0
2, 204000, Note_on_c, 0, 78, 53
2, 204000, Note_on_c, 0, 81, 53
2, 204000, Note_on_c, 0, 69, 53
2, 204000, Note_on_c, 0, 54, 53
2, 204000, Note_on_c, 0, 51, 53
2, 204055, Note_on_c, 0, 51, 0
2, 204055, Note_on_c, 0, 54, 0
2, 204055, Note_on_c, 0, 69, 0
2, 204055, Note_on_c, 0, 78, 0
2, 204055, Note_on_c, 0, 81, 0
2, 204120, Note_on_c, 0, 76, 53
2, 204120, Note_on_c, 0, 79, 53
2, 204120, Note_on_c, 0, 67, 53
2, 204120, Note_on_c, 0, 59, 53
2, 204175, Note_on_c, 0, 59, 0
2, 204175, Note_on_c, 0, 67, 0
2, 204175, Note_on_c, 0, 76, 0
2, 204175, Note_on_c, 0, 79, 0
2, 204240, Note_on_c, 0, 79, 53
2, 204240, Note_on_c, 0, 83, 53
2, 204240, Note_on_c, 0, 71, 53
2, 204295, Note_on_c, 0, 71, 0
2, 204295, Note_on_c, 0, 79, 0
2, 204295, Note_on_c, 0, 83, 0
2, 204300, Note_on_c, 0, 47, 53
2, 204355, Note_on_c, 0, 47, 0
2, 204360, Note_on_c, 0, 79, 53
2, 204360, Note_on_c, 0, 83, 53
2, 204360, Note_on_c, 0, 71, 53
2, 204360, Note_on_c, 0, 47, 53
2, 204415, Note_on_c, 0, 47, 0
2, 204415, Note_on_c, 0, 71, 0
2, 204415, Note_on_c, 0, 79, 0
2, 204415, Note_on_c, 0, 83, 0
2, 204480, Note_on_c, 0, 79, 53
2, 204480, Note_on_c, 0, 83, 53
2, 204480, Note_on_c, 0, 71, 53
2, 204480, Note_on_c, 0, 52, 53
2, 204480, Note_on_c, 0, 40, 53
2, 204535, Note_on_c, 0, 40, 0
2, 204535, Note_on_c, 0, 52, 0
2, 204535, Note_on_c, 0, 71, 0
2, 204535, Note_on_c, 0, 79, 0
2, 204535, Note_on_c, 0, 83, 0
2, 204600, Note_on_c, 0, 78, 53
2, 204600, Note_on_c, 0, 81, 53
2, 204600, Note_on_c, 0, 69, 53
2, 204600, Note_on_c, 0, 54, 53
2, 204655, Note_on_c, 0, 54, 0
2, 204655, Note_on_c, 0, 69, 0
2, 204655, Note_on_c, 0, 78, 0
2, 204655, Note_on_c, 0, 81, 0
2, 204720, Note_on_c, 0, 76, 53
2, 204720, Note_on_c, 0, 79, 53
2, 204720, Note_on_c, 0, 67, 53
2, 204720, Note_on_c, 0, 55, 53
2, 204775, Note_on_c, 0, 55, 0
2, 204775, Note_on_c, 0, 67, 0
2, 204775, Note_on_c, 0, 76, 0
2, 204775, Note_on_c, 0, 79, 0
2, 204840, Note_on_c, 0, 78, 53
2, 204840, Note_on_c, 0, 81, 53
2, 204840, Note_on_c, 0, 69, 53
2, 204840, Note_on_c, 0, 54, 53
2, 204840, Note_on_c, 0, 47, 53
2, 204895, Note_on_c, 0, 47, 0
2, 204895, Note_on_c, 0, 54, 0
2, 204895, Note_on_c, 0, 69, 0
2, 204895, Note_on_c, 0, 78, 0
2, 204895, Note_on_c, 0, 81, 0
2, 204960, Note_on_c, 0, 76, 53
2, 204960, Note_on_c, 0, 79, 53
2, 204960, Note_on_c, 0, 67, 53
2, 204960, Note_on_c, 0, 55, 53
2, 205015, Note_on_c, 0, 55, 0
2, 205015, Note_on_c, 0, 67, 0
2, 205015, Note_on_c, 0, 76, 0
2, 205015, Note_on_c, 0, 79, 0
2, 205080, Note_on_c, 0, 75, 53
2, 205080, Note_on_c, 0, 78, 53
2, 205080, Note_on_c, 0, 66, 53
2, 205080, Note_on_c, 0, 57, 53
2, 205135, Note_on_c, 0, 57, 0
2, 205135, Note_on_c, 0, 66, 0
2, 205135, Note_on_c, 0, 75, 0
2, 205135, Note_on_c, 0, 78, 0
2, 205200, Note_on_c, 0, 88, 53
2, 205200, Note_on_c, 0, 56, 53
2, 205200, Note_on_c, 0, 52, 53
2, 205255, Note_on_c, 0, 52, 0
2, 205255, Note_on_c, 0, 88, 0
2, 205255, Note_on_c, 0, 56, 0
2, 205320, Note_on_c, 0, 64, 53
2, 205320, Note_on_c, 0, 52, 53
2, 205375, Note_on_c, 0, 52, 0
2, 205375, Note_on_c, 0, 64, 0
2, 205380, Note_on_c, 0, 76, 53
2, 205435, Note_on_c, 0, 76, 0
2, 205440, Note_on_c, 0, 76, 53
2, 205440, Note_on_c, 0, 64, 53
2, 205440, Note_on_c, 0, 52, 53
2, 205495, Note_on_c, 0, 52, 0
2, 205495, Note_on_c, 0, 76, 0
2, 205495, Note_on_c, 0, 64, 0
2, 205560, Note_on_c, 0, 76, 53
2, 205560, Note_on_c, 0, 81, 53
2, 205560, Note_on_c, 0, 69, 53
2, 205560, Note_on_c, 0, 60, 53
2, 205560, Note_on_c, 0, 64, 53
2, 205560, Note_on_c, 0, 52, 53
2, 205615, Note_on_c, 0, 52, 0
2, 205615, Note_on_c, 0, 64, 0
2, 205615, Note_on_c, 0, 69, 0
2, 205615, Note_on_c, 0, 60, 0
2, 205615, Note_on_c, 0, 76, 0
2, 205615, Note_on_c, 0, 81, 0
2, 205680, Note_on_c, 0, 80, 53
2, 205680, Note_on_c, 0, 83, 53
2, 205680, Note_on_c, 0, 71, 53
2, 205680, Note_on_c, 0, 62, 53
2, 205680, Note_on_c, 0, 59, 53
2, 205735, Note_on_c, 0, 59, 0
2, 205735, Note_on_c, 0, 62, 0
2, 205735, Note_on_c, 0, 71, 0
2, 205735, Note_on_c, 0, 80, 0
2, 205735, Note_on_c, 0, 83, 0
2, 205800, Note_on_c, 0, 81, 53
2, 205800, Note_on_c, 0, 84, 53
2, 205800, Note_on_c, 0, 72, 53
2, 205800, Note_on_c, 0, 60, 53
2, 205800, Note_on_c, 0, 57, 53
2, 205855, Note_on_c, 0, 57, 0
2, 205855, Note_on_c, 0, 60, 0
2, 205855, Note_on_c, 0, 72, 0
2, 205855, Note_on_c, 0, 81, 0
2, 205855, Note_on_c, 0, 84, 0
2, 205920, Note_on_c, 0, 80, 53
2, 205920, Note_on_c, 0, 83, 53
2, 205920, Note_on_c, 0, 71, 53
2, 205920, Note_on_c, 0, 59, 53
2, 205920, Note_on_c, 0, 62, 53
2, 205920, Note_on_c, 0, 52, 53
2, 205975, Note_on_c, 0, 52, 0
2, 205975, Note_on_c, 0, 62, 0
2, 205975, Note_on_c, 0, 71, 0
2, 205975, Note_on_c, 0, 59, 0
2, 205975, Note_on_c, 0, 80, 0
2, 205975, Note_on_c, 0, 83, 0
2, 206040, Note_on_c, 0, 81, 53
2, 206040, Note_on_c, 0, 84, 53
2, 206040, Note_on_c, 0, 72, 53
2, 206040, Note_on_c, 0, 60, 53
2, 206040, Note_on_c, 0, 57, 53
2, 206095, Note_on_c, 0, 57, 0
2, 206095, Note_on_c, 0, 60, 0
2, 206095, Note_on_c, 0, 72, 0
2, 206095, Note_on_c, 0, 81, 0
2, 206095, Note_on_c, 0, 84, 0
2, 206160, Note_on_c, 0, 83, 53
2, 206160, Note_on_c, 0, 86, 53
2, 206160, Note_on_c, 0, 74, 53
2, 206160, Note_on_c, 0, 59, 53
2, 206160, Note_on_c, 0, 56, 53
2, 206215, Note_on_c, 0, 56, 0
2, 206215, Note_on_c, 0, 59, 0
2, 206215, Note_on_c, 0, 74, 0
2, 206215, Note_on_c, 0, 83, 0
2, 206215, Note_on_c, 0, 86, 0
2, 206280, Note_on_c, 0, 81, 53
2, 206280, Note_on_c, 0, 84, 53
2, 206280, Note_on_c, 0, 72, 53
2, 206280, Note_on_c, 0, 64, 53
2, 206335, Note_on_c, 0, 64, 0
2, 206335, Note_on_c, 0, 72, 0
2, 206335, Note_on_c, 0, 81, 0
2, 206335, Note_on_c, 0, 84, 0
2, 206400, Note_on_c, 0, 84, 53
2, 206400, Note_on_c, 0, 88, 53
2, 206400, Note_on_c, 0, 76, 53
2, 206455, Note_on_c, 0, 76, 0
2, 206455, Note_on_c, 0, 84, 0
2, 206455, Note_on_c, 0, 88, 0
2, 206460, Note_on_c, 0, 52, 53
2, 206515, Note_on_c, 0, 52, 0
2, 206520, Note_on_c, 0, 84, 53
2, 206520, Note_on_c, 0, 88, 53
2, 206520, Note_on_c, 0, 76, 53
2, 206520, Note_on_c, 0, 52, 53
2, 206575, Note_on_c, 0, 52, 0
2, 206575, Note_on_c, 0, 76, 0
2, 206575, Note_on_c, 0, 84, 0
2, 206575, Note_on_c, 0, 88, 0
2, 206640, Note_on_c, 0, 84, 53
2, 206640, Note_on_c, 0, 88, 53
2, 206640, Note_on_c, 0, 76, 53
2, 206640, Note_on_c, 0, 57, 53
2, 206640, Note_on_c, 0, 45, 53
2, 206695, Note_on_c, 0, 45, 0
2, 206695, Note_on_c, 0, 57, 0
2, 206695, Note_on_c, 0, 76, 0
2, 206695, Note_on_c, 0, 84, 0
2, 206695, Note_on_c, 0, 88, 0
2, 206760, Note_on_c, 0, 83, 53
2, 206760, Note_on_c, 0, 86, 53
2, 206760, Note_on_c, 0, 74, 53
2, 206760, Note_on_c, 0, 59, 53
2, 206760, Note_on_c, 0, 56, 53
2, 206815, Note_on_c, 0, 56, 0
2, 206815, Note_on_c, 0, 59, 0
2, 206815, Note_on_c, 0, 74, 0
2, 206815, Note_on_c, 0, 83, 0
2, 206815, Note_on_c, 0, 86, 0
2, 206880, Note_on_c, 0, 81, 53
2, 206880, Note_on_c, 0, 84, 53
2, 206880, Note_on_c, 0, 72, 53
2, 206880, Note_on_c, 0, 60, 53
2, 206880, Note_on_c, 0, 57, 53
2, 206935, Note_on_c, 0, 57, 0
2, 206935, Note_on_c, 0, 60, 0
2, 206935, Note_on_c, 0, 72, 0
2, 206935, Note_on_c, 0, 81, 0
2, 206935, Note_on_c, 0, 84, 0
2, 207000, Note_on_c, 0, 83, 53
2, 207000, Note_on_c, 0, 86, 53
2, 207000, Note_on_c, 0, 74, 53
2, 207000, Note_on_c, 0, 56, 53
2, 207000, Note_on_c, 0, 59, 53
2, 207000, Note_on_c, 0, 52, 53
2, 207055, Note_on_c, 0, 52, 0
2, 207055, Note_on_c, 0, 59, 0
2, 207055, Note_on_c, 0, 74, 0
2, 207055, Note_on_c, 0, 56, 0
2, 207055, Note_on_c, 0, 83, 0
2, 207055, Note_on_c, 0, 86, 0
2, 207120, Note_on_c, 0, 81, 53
2, 207120, Note_on_c, 0, 84, 53
2, 207120, Note_on_c, 0, 72, 53
2, 207120, Note_on_c, 0, 60, 53
2, 207120, Note_on_c, 0, 57, 53
2, 207175, Note_on_c, 0, 57, 0
2, 207175, Note_on_c, 0, 60, 0
2, 207175, Note_on_c, 0, 72, 0
2, 207175, Note_on_c, 0, 81, 0
2, 207175, Note_on_c, 0, 84, 0
2, 207240, Note_on_c, 0, 80, 53
2, 207240, Note_on_c, 0, 83, 53
2, 207240, Note_on_c, 0, 71, 53
2, 207240, Note_on_c, 0, 62, 53
2, 207240, Note_on_c, 0, 59, 53
2, 207295, Note_on_c, 0, 59, 0
2, 207295, Note_on_c, 0, 62, 0
2, 207295, Note_on_c, 0, 71, 0
2, 207295, Note_on_c, 0, 80, 0
2, 207295, Note_on_c, 0, 83, 0
2, 207360, Note_on_c, 0, 88, 53
2, 207360, Note_on_c, 0, 76, 53
2, 207360, Note_on_c, 0, 60, 53
2, 207360, Note_on_c, 0, 57, 53
2, 207415, Note_on_c, 0, 57, 0
2, 207415, Note_on_c, 0, 60, 0
2, 207415, Note_on_c, 0, 88, 0
2, 207415, Note_on_c, 0, 76, 0
2, 207480, Note_on_c, 0, 64, 53
2, 207480, Note_on_c, 0, 60, 53
2, 207535, Note_on_c, 0, 60, 0
2, 207535, Note_on_c, 0, 64, 0
2, 207540, Note_on_c, 0, 76, 53
2, 207595, Note_on_c, 0, 76, 0
2, 207600, Note_on_c, 0, 76, 53
2, 207600, Note_on_c, 0, 64, 53
2, 207600, Note_on_c, 0, 60, 53
2, 207655, Note_on_c, 0, 60, 0
2, 207655, Note_on_c, 0, 76, 0
2, 207655, Note_on_c, 0, 64, 0
2, 207720, Note_on_c, 0, 76, 53
2, 207720, Note_on_c, 0, 81, 53
2, 207720, Note_on_c, 0, 69, 53
2, 207720, Note_on_c, 0, 60, 53
2, 207720, Note_on_c, 0, 64, 53
2, 207720, Note_on_c, 0, 57, 53
2, 207775, Note_on_c, 0, 57, 0
2, 207775, Note_on_c, 0, 64, 0
2, 207775, Note_on_c, 0, 69, 0
2, 207775, Note_on_c, 0, 60, 0
2, 207775, Note_on_c, 0, 76, 0
2, 207775, Note_on_c, 0, 81, 0
2, 207840, Note_on_c, 0, 80, 53
2, 207840, Note_on_c, 0, 83, 53
2, 207840, Note_on_c, 0, 71, 53
2, 207840, Note_on_c, 0, 62, 53
2, 207840, Note_on_c, 0, 59, 53
2, 207895, Note_on_c, 0, 59, 0
2, 207895, Note_on_c, 0, 62, 0
2, 207895, Note_on_c, 0, 71, 0
2, 207895, Note_on_c, 0, 80, 0
2, 207895, Note_on_c, 0, 83, 0
2, 207960, Note_on_c, 0, 81, 53
2, 207960, Note_on_c, 0, 84, 53
2, 207960, Note_on_c, 0, 72, 53
2, 207960, Note_on_c, 0, 60, 53
2, 207960, Note_on_c, 0, 57, 53
2, 208015, Note_on_c, 0, 57, 0
2, 208015, Note_on_c, 0, 60, 0
2, 208015, Note_on_c, 0, 72, 0
2, 208015, Note_on_c, 0, 81, 0
2, 208015, Note_on_c, 0, 84, 0
2, 208080, Note_on_c, 0, 80, 53
2, 208080, Note_on_c, 0, 83, 53
2, 208080, Note_on_c, 0, 71, 53
2, 208080, Note_on_c, 0, 59, 53
2, 208080, Note_on_c, 0, 62, 53
2, 208080, Note_on_c, 0, 52, 53
2, 208135, Note_on_c, 0, 52, 0
2, 208135, Note_on_c, 0, 62, 0
2, 208135, Note_on_c, 0, 71, 0
2, 208135, Note_on_c, 0, 59, 0
2, 208135, Note_on_c, 0, 80, 0
2, 208135, Note_on_c, 0, 83, 0
2, 208200, Note_on_c, 0, 81, 53
2, 208200, Note_on_c, 0, 84, 53
2, 208200, Note_on_c, 0, 72, 53
2, 208200, Note_on_c, 0, 60, 53
2, 208200, Note_on_c, 0, 57, 53
2, 208255, Note_on_c, 0, 57, 0
2, 208255, Note_on_c, 0, 60, 0
2, 208255, Note_on_c, 0, 72, 0
2, 208255, Note_on_c, 0, 81, 0
2, 208255, Note_on_c, 0, 84, 0
2, 208320, Note_on_c, 0, 83, 53
2, 208320, Note_on_c, 0, 86, 53
2, 208320, Note_on_c, 0, 74, 53
2, 208320, Note_on_c, 0, 59, 53
2, 208320, Note_on_c, 0, 56, 53
2, 208375, Note_on_c, 0, 56, 0
2, 208375, Note_on_c, 0, 59, 0
2, 208375, Note_on_c, 0, 74, 0
2, 208375, Note_on_c, 0, 83, 0
2, 208375, Note_on_c, 0, 86, 0
2, 208440, Note_on_c, 0, 41, 117
2, 208495, Note_on_c, 0, 41, 0
2, 208620, Note_on_c, 0, 29, 117
2, 208675, Note_on_c, 0, 29, 0
2, 208680, Note_on_c, 0, 29, 117
2, 208735, Note_on_c, 0, 29, 0
2, 208800, Note_on_c, 0, 77, 53
2, 208800, Note_on_c, 0, 81, 53
2, 208800, Note_on_c, 0, 69, 53
2, 208800, Note_on_c, 0, 60, 53
2, 208800, Note_on_c, 0, 65, 53
2, 208800, Note_on_c, 0, 57, 53
2, 208855, Note_on_c, 0, 57, 0
2, 208855, Note_on_c, 0, 65, 0
2, 208855, Note_on_c, 0, 69, 0
2, 208855, Note_on_c, 0, 60, 0
2, 208855, Note_on_c, 0, 77, 0
2, 208855, Note_on_c, 0, 81, 0
2, 208920, Note_on_c, 0, 79, 53
2, 208920, Note_on_c, 0, 82, 53
2, 208920, Note_on_c, 0, 70, 53
2, 208920, Note_on_c, 0, 58, 53
2, 208920, Note_on_c, 0, 55, 53
2, 208975, Note_on_c, 0, 55, 0
2, 208975, Note_on_c, 0, 58, 0
2, 208975, Note_on_c, 0, 70, 0
2, 208975, Note_on_c, 0, 79, 0
2, 208975, Note_on_c, 0, 82, 0
2, 209040, Note_on_c, 0, 81, 53
2, 209040, Note_on_c, 0, 84, 53
2, 209040, Note_on_c, 0, 72, 53
2, 209040, Note_on_c, 0, 57, 53
2, 209040, Note_on_c, 0, 53, 53
2, 209095, Note_on_c, 0, 57, 0
2, 209095, Note_on_c, 0, 72, 0
2, 209095, Note_on_c, 0, 53, 0
2, 209095, Note_on_c, 0, 81, 0
2, 209095, Note_on_c, 0, 84, 0
2, 209160, Note_on_c, 0, 79, 53
2, 209160, Note_on_c, 0, 82, 53
2, 209160, Note_on_c, 0, 70, 53
2, 209160, Note_on_c, 0, 62, 53
2, 209160, Note_on_c, 0, 65, 53
2, 209160, Note_on_c, 0, 58, 53
2, 209215, Note_on_c, 0, 58, 0
2, 209215, Note_on_c, 0, 65, 0
2, 209215, Note_on_c, 0, 70, 0
2, 209215, Note_on_c, 0, 62, 0
2, 209215, Note_on_c, 0, 79, 0
2, 209215, Note_on_c, 0, 82, 0
2, 209280, Note_on_c, 0, 81, 53
2, 209280, Note_on_c, 0, 84, 53
2, 209280, Note_on_c, 0, 72, 53
2, 209280, Note_on_c, 0, 60, 53
2, 209280, Note_on_c, 0, 65, 53
2, 209280, Note_on_c, 0, 57, 53
2, 209335, Note_on_c, 0, 57, 0
2, 209335, Note_on_c, 0, 65, 0
2, 209335, Note_on_c, 0, 72, 0
2, 209335, Note_on_c, 0, 60, 0
2, 209335, Note_on_c, 0, 81, 0
2, 209335, Note_on_c, 0, 84, 0
2, 209400, Note_on_c, 0, 82, 53
2, 209400, Note_on_c, 0, 86, 53
2, 209400, Note_on_c, 0, 74, 53
2, 209400, Note_on_c, 0, 58, 53
2, 209400, Note_on_c, 0, 65, 53
2, 209400, Note_on_c, 0, 55, 53
2, 209455, Note_on_c, 0, 55, 0
2, 209455, Note_on_c, 0, 65, 0
2, 209455, Note_on_c, 0, 74, 0
2, 209455, Note_on_c, 0, 58, 0
2, 209455, Note_on_c, 0, 82, 0
2, 209455, Note_on_c, 0, 86, 0
2, 209520, Note_on_c, 0, 41, 117
2, 209535, Note_on_c, 0, 53, 0
2, 209575, Note_on_c, 0, 41, 0
2, 209700, Note_on_c, 0, 29, 117
2, 209755, Note_on_c, 0, 29, 0
2, 209760, Note_on_c, 0, 29, 117
2, 209815, Note_on_c, 0, 29, 0
2, 209880, Note_on_c, 0, 81, 53
2, 209880, Note_on_c, 0, 84, 53
2, 209880, Note_on_c, 0, 72, 53
2, 209880, Note_on_c, 0, 65, 53
2, 209880, Note_on_c, 0, 57, 53
2, 209935, Note_on_c, 0, 57, 0
2, 209935, Note_on_c, 0, 65, 0
2, 209935, Note_on_c, 0, 84, 0
2, 209935, Note_on_c, 0, 81, 0
2, 209935, Note_on_c, 0, 72, 0
2, 210000, Note_on_c, 0, 79, 53
2, 210000, Note_on_c, 0, 88, 53
2, 210000, Note_on_c, 0, 76, 53
2, 210000, Note_on_c, 0, 58, 53
2, 210000, Note_on_c, 0, 55, 53
2, 210055, Note_on_c, 0, 55, 0
2, 210055, Note_on_c, 0, 58, 0
2, 210055, Note_on_c, 0, 88, 0
2, 210055, Note_on_c, 0, 79, 0
2, 210055, Note_on_c, 0, 76, 0
2, 210120, Note_on_c, 0, 81, 53
2, 210120, Note_on_c, 0, 89, 53
2, 210120, Note_on_c, 0, 77, 53
2, 210120, Note_on_c, 0, 57, 53
2, 210120, Note_on_c, 0, 53, 53
2, 210175, Note_on_c, 0, 57, 0
2, 210175, Note_on_c, 0, 89, 0
2, 210175, Note_on_c, 0, 77, 0
2, 210175, Note_on_c, 0, 53, 0
2, 210175, Note_on_c, 0, 81, 0
2, 210240, Note_on_c, 0, 79, 53
2, 210240, Note_on_c, 0, 88, 53
2, 210240, Note_on_c, 0, 76, 53
2, 210240, Note_on_c, 0, 58, 53
2, 210240, Note_on_c, 0, 60, 53
2, 210240, Note_on_c, 0, 55, 53
2, 210295, Note_on_c, 0, 55, 0
2, 210295, Note_on_c, 0, 79, 0
2, 210295, Note_on_c, 0, 60, 0
2, 210295, Note_on_c, 0, 88, 0
2, 210295, Note_on_c, 0, 58, 0
2, 210295, Note_on_c, 0, 76, 0
2, 210360, Note_on_c, 0, 81, 53
2, 210360, Note_on_c, 0, 89, 53
2, 210360, Note_on_c, 0, 77, 53
2, 210360, Note_on_c, 0, 57, 53
2, 210360, Note_on_c, 0, 60, 53
2, 210360, Note_on_c, 0, 53, 53
2, 210415, Note_on_c, 0, 60, 0
2, 210415, Note_on_c, 0, 57, 0
2, 210415, Note_on_c, 0, 77, 0
2, 210415, Note_on_c, 0, 53, 0
2, 210415, Note_on_c, 0, 89, 0
2, 210415, Note_on_c, 0, 81, 0
2, 210480, Note_on_c, 0, 82, 53
2, 210480, Note_on_c, 0, 91, 53
2, 210480, Note_on_c, 0, 79, 53
2, 210480, Note_on_c, 0, 55, 53
2, 210480, Note_on_c, 0, 60, 53
2, 210480, Note_on_c, 0, 52, 53
2, 210535, Note_on_c, 0, 52, 0
2, 210535, Note_on_c, 0, 82, 0
2, 210535, Note_on_c, 0, 60, 0
2, 210535, Note_on_c, 0, 91, 0
2, 210535, Note_on_c, 0, 55, 0
2, 210535, Note_on_c, 0, 79, 0
2, 210600, Note_on_c, 0, 41, 117
2, 210655, Note_on_c, 0, 41, 0
2, 210780, Note_on_c, 0, 29, 117
2, 210835, Note_on_c, 0, 29, 0
2, 210840, Note_on_c, 0, 29, 117
2, 210895, Note_on_c, 0, 29, 0
2, 210960, Note_on_c, 0, 69, 53
2, 210960, Note_on_c, 0, 72, 53
2, 210960, Note_on_c, 0, 77, 53
2, 210960, Note_on_c, 0, 81, 53
2, 210960, Note_on_c, 0, 89, 53
2, 210960, Note_on_c, 0, 65, 53
2, 210975, Note_on_c, 0, 53, 0
2, 211015, Note_on_c, 0, 77, 0
2, 211015, Note_on_c, 0, 65, 0
2, 211015, Note_on_c, 0, 89, 0
2, 211015, Note_on_c, 0, 72, 0
2, 211015, Note_on_c, 0, 69, 0
2, 211015, Note_on_c, 0, 81, 0
2, 211080, Note_on_c, 0, 70, 53
2, 211080, Note_on_c, 0, 79, 53
2, 211080, Note_on_c, 0, 82, 53
2, 211080, Note_on_c, 0, 89, 53
2, 211080, Note_on_c, 0, 67, 53
2, 211135, Note_on_c, 0, 67, 0
2, 211135, Note_on_c, 0, 89, 0
2, 211135, Note_on_c, 0, 79, 0
2, 211135, Note_on_c, 0, 70, 0
2, 211135, Note_on_c, 0, 82, 0
2, 211200, Note_on_c, 0, 69, 53
2, 211200, Note_on_c, 0, 81, 53
2, 211200, Note_on_c, 0, 84, 53
2, 211200, Note_on_c, 0, 89, 53
2, 211200, Note_on_c, 0, 65, 53
2, 211255, Note_on_c, 0, 65, 0
2, 211255, Note_on_c, 0, 89, 0
2, 211255, Note_on_c, 0, 81, 0
2, 211255, Note_on_c, 0, 69, 0
2, 211255, Note_on_c, 0, 84, 0
2, 211320, Note_on_c, 0, 70, 53
2, 211320, Note_on_c, 0, 74, 53
2, 211320, Note_on_c, 0, 79, 53
2, 211320, Note_on_c, 0, 82, 53
2, 211320, Note_on_c, 0, 89, 53
2, 211320, Note_on_c, 0, 65, 53
2, 211375, Note_on_c, 0, 65, 0
2, 211375, Note_on_c, 0, 82, 0
2, 211375, Note_on_c, 0, 74, 0
2, 211375, Note_on_c, 0, 89, 0
2, 211375, Note_on_c, 0, 70, 0
2, 211375, Note_on_c, 0, 79, 0
2, 211440, Note_on_c, 0, 72, 53
2, 211440, Note_on_c, 0, 81, 53
2, 211440, Note_on_c, 0, 84, 53
2, 211440, Note_on_c, 0, 89, 53
2, 211440, Note_on_c, 0, 69, 53
2, 211495, Note_on_c, 0, 69, 0
2, 211495, Note_on_c, 0, 89, 0
2, 211495, Note_on_c, 0, 81, 0
2, 211495, Note_on_c, 0, 72, 0
2, 211495, Note_on_c, 0, 84, 0
2, 211560, Note_on_c, 0, 70, 53
2, 211560, Note_on_c, 0, 82, 53
2, 211560, Note_on_c, 0, 86, 53
2, 211560, Note_on_c, 0, 89, 53
2, 211560, Note_on_c, 0, 67, 53
2, 211615, Note_on_c, 0, 67, 0
2, 211615, Note_on_c, 0, 89, 0
2, 211615, Note_on_c, 0, 82, 0
2, 211615, Note_on_c, 0, 70, 0
2, 211615, Note_on_c, 0, 86, 0
2, 211680, Note_on_c, 0, 41, 117
2, 211735, Note_on_c, 0, 41, 0
2, 211860, Note_on_c, 0, 29, 117
2, 211915, Note_on_c, 0, 29, 0
2, 211920, Note_on_c, 0, 29, 117
2, 211975, Note_on_c, 0, 29, 0
2, 212040, Note_on_c, 0, 93, 71
2, 212040, Note_on_c, 0, 81, 71
2, 212040, Note_on_c, 0, 72, 71
2, 212040, Note_on_c, 0, 65, 71
2, 212095, Note_on_c, 0, 65, 0
2, 212095, Note_on_c, 0, 81, 0
2, 212095, Note_on_c, 0, 93, 0
2, 212095, Note_on_c, 0, 72, 0
2, 212160, Note_on_c, 0, 91, 71
2, 212160, Note_on_c, 0, 84, 71
2, 212160, Note_on_c, 0, 76, 71
2, 212160, Note_on_c, 0, 67, 71
2, 212215, Note_on_c, 0, 67, 0
2, 212215, Note_on_c, 0, 84, 0
2, 212215, Note_on_c, 0, 91, 0
2, 212215, Note_on_c, 0, 76, 0
2, 212280, Note_on_c, 0, 89, 71
2, 212280, Note_on_c, 0, 84, 71
2, 212280, Note_on_c, 0, 77, 71
2, 212280, Note_on_c, 0, 69, 71
2, 212335, Note_on_c, 0, 69, 0
2, 212335, Note_on_c, 0, 77, 0
2, 212335, Note_on_c, 0, 89, 0
2, 212335, Note_on_c, 0, 84, 0
2, 212400, Note_on_c, 0, 91, 71
2, 212400, Note_on_c, 0, 84, 71
2, 212400, Note_on_c, 0, 67, 71
2, 212400, Note_on_c, 0, 76, 71
2, 212400, Note_on_c, 0, 65, 71
2, 212455, Note_on_c, 0, 65, 0
2, 212455, Note_on_c, 0, 67, 0
2, 212455, Note_on_c, 0, 84, 0
2, 212455, Note_on_c, 0, 91, 0
2, 212455, Note_on_c, 0, 76, 0
2, 212520, Note_on_c, 0, 89, 71
2, 212520, Note_on_c, 0, 84, 71
2, 212520, Note_on_c, 0, 77, 71
2, 212520, Note_on_c, 0, 69, 71
2, 212575, Note_on_c, 0, 69, 0
2, 212575, Note_on_c, 0, 77, 0
2, 212575, Note_on_c, 0, 89, 0
2, 212575, Note_on_c, 0, 84, 0
2, 212640, Note_on_c, 0, 88, 71
2, 212640, Note_on_c, 0, 84, 71
2, 212640, Note_on_c, 0, 79, 71
2, 212640, Note_on_c, 0, 70, 71
2, 212695, Note_on_c, 0, 70, 0
2, 212695, Note_on_c, 0, 84, 0
2, 212695, Note_on_c, 0, 88, 0
2, 212695, Note_on_c, 0, 79, 0
2, 212760, Note_on_c, 0, 81, 71
2, 212760, Note_on_c, 0, 89, 71
2, 212760, Note_on_c, 0, 77, 71
2, 212760, Note_on_c, 0, 69, 71
2, 212760, Note_on_c, 0, 72, 71
2, 212760, Note_on_c, 0, 65, 71
2, 212815, Note_on_c, 0, 65, 0
2, 212815, Note_on_c, 0, 72, 0
2, 212815, Note_on_c, 0, 81, 0
2, 212815, Note_on_c, 0, 77, 0
2, 212815, Note_on_c, 0, 89, 0
2, 212815, Note_on_c, 0, 69, 0
2, 212880, Note_on_c, 0, 82, 71
2, 212880, Note_on_c, 0, 91, 71
2, 212880, Note_on_c, 0, 79, 71
2, 212880, Note_on_c, 0, 70, 71
2, 212880, Note_on_c, 0, 67, 71
2, 212935, Note_on_c, 0, 67, 0
2, 212935, Note_on_c, 0, 79, 0
2, 212935, Note_on_c, 0, 91, 0
2, 212935, Note_on_c, 0, 82, 0
2, 212935, Note_on_c, 0, 70, 0
2, 213000, Note_on_c, 0, 84, 71
2, 213000, Note_on_c, 0, 93, 71
2, 213000, Note_on_c, 0, 81, 71
2, 213000, Note_on_c, 0, 69, 71
2, 213000, Note_on_c, 0, 65, 71
2, 213055, Note_on_c, 0, 65, 0
2, 213055, Note_on_c, 0, 81, 0
2, 213055, Note_on_c, 0, 93, 0
2, 213055, Note_on_c, 0, 84, 0
2, 213055, Note_on_c, 0, 69, 0
2, 213120, Note_on_c, 0, 84, 71
2, 213120, Note_on_c, 0, 93, 71
2, 213120, Note_on_c, 0, 81, 71
2, 213120, Note_on_c, 0, 53, 71
2, 213175, Note_on_c, 0, 53, 0
2, 213175, Note_on_c, 0, 93, 0
2, 213175, Note_on_c, 0, 84, 0
2, 213175, Note_on_c, 0, 81, 0
2, 213240, Note_on_c, 0, 82, 71
2, 213240, Note_on_c, 0, 91, 71
2, 213240, Note_on_c, 0, 79, 71
2, 213295, Note_on_c, 0, 79, 0
2, 213295, Note_on_c, 0, 82, 0
2, 213295, Note_on_c, 0, 91, 0
2, 213300, Note_on_c, 0, 41, 71
2, 213355, Note_on_c, 0, 41, 0
2, 213360, Note_on_c, 0, 81, 71
2, 213360, Note_on_c, 0, 89, 71
2, 213360, Note_on_c, 0, 77, 71
2, 213360, Note_on_c, 0, 41, 71
2, 213415, Note_on_c, 0, 41, 0
2, 213415, Note_on_c, 0, 77, 0
2, 213415, Note_on_c, 0, 89, 0
2, 213415, Note_on_c, 0, 81, 0
2, 213480, Note_on_c, 0, 81, 71
2, 213480, Note_on_c, 0, 89, 71
2, 213480, Note_on_c, 0, 77, 71
2, 213480, Note_on_c, 0, 69, 71
2, 213480, Note_on_c, 0, 72, 71
2, 213480, Note_on_c, 0, 65, 71
2, 213535, Note_on_c, 0, 65, 0
2, 213535, Note_on_c, 0, 72, 0
2, 213535, Note_on_c, 0, 81, 0
2, 213535, Note_on_c, 0, 89, 0
2, 213535, Note_on_c, 0, 77, 0
2, 213535, Note_on_c, 0, 69, 0
2, 213600, Note_on_c, 0, 82, 71
2, 213600, Note_on_c, 0, 91, 71
2, 213600, Note_on_c, 0, 79, 71
2, 213600, Note_on_c, 0, 70, 71
2, 213600, Note_on_c, 0, 67, 71
2, 213655, Note_on_c, 0, 67, 0
2, 213655, Note_on_c, 0, 79, 0
2, 213655, Note_on_c, 0, 91, 0
2, 213655, Note_on_c, 0, 82, 0
2, 213655, Note_on_c, 0, 70, 0
2, 213720, Note_on_c, 0, 81, 71
2, 213720, Note_on_c, 0, 89, 71
2, 213720, Note_on_c, 0, 77, 71
2, 213720, Note_on_c, 0, 72, 71
2, 213720, Note_on_c, 0, 69, 71
2, 213775, Note_on_c, 0, 69, 0
2, 213775, Note_on_c, 0, 81, 0
2, 213775, Note_on_c, 0, 77, 0
2, 213775, Note_on_c, 0, 89, 0
2, 213775, Note_on_c, 0, 72, 0
2, 213840, Note_on_c, 0, 76, 71
2, 213840, Note_on_c, 0, 67, 71
2, 213840, Note_on_c, 0, 60, 71
2, 213895, Note_on_c, 0, 60, 0
2, 213895, Note_on_c, 0, 76, 0
2, 213895, Note_on_c, 0, 67, 0
2, 213960, Note_on_c, 0, 77, 71
2, 213960, Note_on_c, 0, 67, 71
2, 213960, Note_on_c, 0, 60, 71
2, 214015, Note_on_c, 0, 60, 0
2, 214015, Note_on_c, 0, 77, 0
2, 214015, Note_on_c, 0, 67, 0
2, 214080, Note_on_c, 0, 79, 71
2, 214080, Note_on_c, 0, 70, 71
2, 214080, Note_on_c, 0, 60, 71
2, 214135, Note_on_c, 0, 60, 0
2, 214135, Note_on_c, 0, 79, 0
2, 214135, Note_on_c, 0, 70, 0
2, 214200, Note_on_c, 0, 79, 71
2, 214200, Note_on_c, 0, 70, 71
2, 214200, Note_on_c, 0, 72, 71
2, 214255, Note_on_c, 0, 72, 0
2, 214255, Note_on_c, 0, 79, 0
2, 214255, Note_on_c, 0, 70, 0
2, 214320, Note_on_c, 0, 77, 71
2, 214320, Note_on_c, 0, 69, 71
2, 214375, Note_on_c, 0, 69, 0
2, 214375, Note_on_c, 0, 77, 0
2, 214380, Note_on_c, 0, 60, 71
2, 214435, Note_on_c, 0, 60, 0
2, 214440, Note_on_c, 0, 76, 71
2, 214440, Note_on_c, 0, 67, 71
2, 214440, Note_on_c, 0, 60, 71
2, 214495, Note_on_c, 0, 60, 0
2, 214495, Note_on_c, 0, 76, 0
2, 214495, Note_on_c, 0, 67, 0
2, 214560, Note_on_c, 0, 76, 71
2, 214560, Note_on_c, 0, 67, 71
2, 214560, Note_on_c, 0, 60, 71
2, 214615, Note_on_c, 0, 60, 0
2, 214615, Note_on_c, 0, 76, 0
2, 214615, Note_on_c, 0, 67, 0
2, 214680, Note_on_c, 0, 77, 71
2, 214680, Note_on_c, 0, 69, 71
2, 214680, Note_on_c, 0, 60, 71
2, 214735, Note_on_c, 0, 60, 0
2, 214735, Note_on_c, 0, 77, 0
2, 214735, Note_on_c, 0, 69, 0
2, 214800, Note_on_c, 0, 76, 71
2, 214800, Note_on_c, 0, 67, 71
2, 214800, Note_on_c, 0, 60, 71
2, 214855, Note_on_c, 0, 60, 0
2, 214855, Note_on_c, 0, 76, 0
2, 214855, Note_on_c, 0, 67, 0
2, 214920, Note_on_c, 0, 77, 71
2, 214920, Note_on_c, 0, 86, 71
2, 214920, Note_on_c, 0, 74, 71
2, 214920, Note_on_c, 0, 65, 71
2, 214920, Note_on_c, 0, 69, 71
2, 214920, Note_on_c, 0, 62, 71
2, 214975, Note_on_c, 0, 62, 0
2, 214975, Note_on_c, 0, 69, 0
2, 214975, Note_on_c, 0, 74, 0
2, 214975, Note_on_c, 0, 86, 0
2, 214975, Note_on_c, 0, 77, 0
2, 214975, Note_on_c, 0, 65, 0
2, 215040, Note_on_c, 0, 79, 71
2, 215040, Note_on_c, 0, 88, 71
2, 215040, Note_on_c, 0, 76, 71
2, 215040, Note_on_c, 0, 67, 71
2, 215040, Note_on_c, 0, 64, 71
2, 215095, Note_on_c, 0, 64, 0
2, 215095, Note_on_c, 0, 76, 0
2, 215095, Note_on_c, 0, 88, 0
2, 215095, Note_on_c, 0, 79, 0
2, 215095, Note_on_c, 0, 67, 0
2, 215160, Note_on_c, 0, 81, 71
2, 215160, Note_on_c, 0, 89, 71
2, 215160, Note_on_c, 0, 77, 71
2, 215160, Note_on_c, 0, 65, 71
2, 215160, Note_on_c, 0, 62, 71
2, 215215, Note_on_c, 0, 62, 0
2, 215215, Note_on_c, 0, 81, 0
2, 215215, Note_on_c, 0, 77, 0
2, 215215, Note_on_c, 0, 89, 0
2, 215215, Note_on_c, 0, 65, 0
2, 215280, Note_on_c, 0, 81, 71
2, 215280, Note_on_c, 0, 89, 71
2, 215280, Note_on_c, 0, 77, 71
2, 215280, Note_on_c, 0, 62, 71
2, 215335, Note_on_c, 0, 62, 0
2, 215335, Note_on_c, 0, 89, 0
2, 215335, Note_on_c, 0, 77, 0
2, 215335, Note_on_c, 0, 81, 0
2, 215400, Note_on_c, 0, 79, 71
2, 215400, Note_on_c, 0, 88, 71
2, 215400, Note_on_c, 0, 76, 71
2, 215455, Note_on_c, 0, 76, 0
2, 215455, Note_on_c, 0, 79, 0
2, 215455, Note_on_c, 0, 88, 0
2, 215460, Note_on_c, 0, 50, 71
2, 215515, Note_on_c, 0, 50, 0
2, 215520, Note_on_c, 0, 77, 71
2, 215520, Note_on_c, 0, 86, 71
2, 215520, Note_on_c, 0, 74, 71
2, 215520, Note_on_c, 0, 50, 71
2, 215575, Note_on_c, 0, 50, 0
2, 215575, Note_on_c, 0, 86, 0
2, 215575, Note_on_c, 0, 77, 0
2, 215575, Note_on_c, 0, 74, 0
2, 215640, Note_on_c, 0, 77, 51
2, 215640, Note_on_c, 0, 86, 51
2, 215640, Note_on_c, 0, 74, 51
2, 215640, Note_on_c, 0, 65, 51
2, 215640, Note_on_c, 0, 69, 51
2, 215640, Note_on_c, 0, 62, 51
2, 215695, Note_on_c, 0, 62, 0
2, 215695, Note_on_c, 0, 69, 0
2, 215695, Note_on_c, 0, 74, 0
2, 215695, Note_on_c, 0, 86, 0
2, 215695, Note_on_c, 0, 77, 0
2, 215695, Note_on_c, 0, 65, 0
2, 215760, Note_on_c, 0, 79, 46
2, 215760, Note_on_c, 0, 88, 46
2, 215760, Note_on_c, 0, 76, 46
2, 215760, Note_on_c, 0, 67, 46
2, 215760, Note_on_c, 0, 64, 46
2, 215815, Note_on_c, 0, 64, 0
2, 215815, Note_on_c, 0, 76, 0
2, 215815, Note_on_c, 0, 88, 0
2, 215815, Note_on_c, 0, 79, 0
2, 215815, Note_on_c, 0, 67, 0
2, 215880, Note_on_c, 0, 77, 41
2, 215880, Note_on_c, 0, 86, 41
2, 215880, Note_on_c, 0, 74, 41
2, 215880, Note_on_c, 0, 69, 41
2, 215880, Note_on_c, 0, 65, 41
2, 215935, Note_on_c, 0, 65, 0
2, 215935, Note_on_c, 0, 74, 0
2, 215935, Note_on_c, 0, 86, 0
2, 215935, Note_on_c, 0, 77, 0
2, 215935, Note_on_c, 0, 69, 0
2, 216000, Note_on_c, 0, 73, 37
2, 216000, Note_on_c, 0, 64, 37
2, 216000, Note_on_c, 0, 57, 37
2, 216055, Note_on_c, 0, 57, 0
2, 216055, Note_on_c, 0, 73, 0
2, 216055, Note_on_c, 0, 64, 0
2, 216120, Note_on_c, 0, 74, 32
2, 216120, Note_on_c, 0, 65, 32
2, 216120, Note_on_c, 0, 57, 32
2, 216175, Note_on_c, 0, 57, 0
2, 216175, Note_on_c, 0, 74, 0
2, 216175, Note_on_c, 0, 65, 0
2, 216240, Note_on_c, 0, 76, 28
2, 216240, Note_on_c, 0, 67, 28
2, 216240, Note_on_c, 0, 57, 28
2, 216295, Note_on_c, 0, 57, 0
2, 216295, Note_on_c, 0, 76, 0
2, 216295, Note_on_c, 0, 67, 0
2, 216360, Note_on_c, 0, 76, 23
2, 216360, Note_on_c, 0, 67, 23
2, 216360, Note_on_c, 0, 57, 21
2, 216415, Note_on_c, 0, 57, 0
2, 216415, Note_on_c, 0, 76, 0
2, 216415, Note_on_c, 0, 67, 0
2, 216480, Note_on_c, 0, 74, 18
2, 216480, Note_on_c, 0, 65, 18
2, 216535, Note_on_c, 0, 65, 0
2, 216535, Note_on_c, 0, 74, 0
2, 216540, Note_on_c, 0, 45, 16
2, 216595, Note_on_c, 0, 45, 0
2, 216600, Note_on_c, 0, 73, 14
2, 216600, Note_on_c, 0, 64, 14
2, 216600, Note_on_c, 0, 45, 12
2, 216655, Note_on_c, 0, 45, 0
2, 216655, Note_on_c, 0, 73, 0
2, 216655, Note_on_c, 0, 64, 0
2, 216720, Note_on_c, 0, 73, 9
2, 216720, Note_on_c, 0, 64, 9
2, 216720, Note_on_c, 0, 57, 9
2, 216720, Note_on_c, 0, 55, 9
2, 216775, Note_on_c, 0, 55, 0
2, 216775, Note_on_c, 0, 64, 0
2, 216775, Note_on_c, 0, 73, 0
2, 216775, Note_on_c, 0, 57, 0
2, 216840, Note_on_c, 0, 74, 5
2, 216840, Note_on_c, 0, 65, 5
2, 216840, Note_on_c, 0, 57, 5
2, 216840, Note_on_c, 0, 53, 5
2, 216895, Note_on_c, 0, 53, 0
2, 216895, Note_on_c, 0, 65, 0
2, 216895, Note_on_c, 0, 74, 0
2, 216895, Note_on_c, 0, 57, 0
2, 216960, Note_on_c, 0, 73, 1
2, 216960, Note_on_c, 0, 64, 1
2, 216960, Note_on_c, 0, 57, 1
2, 216960, Note_on_c, 0, 55, 1
2, 217015, Note_on_c, 0, 55, 0
2, 217015, Note_on_c, 0, 64, 0
2, 217015, Note_on_c, 0, 73, 0
2, 217015, Note_on_c, 0, 57, 0
2, 217080, Note_on_c, 0, 77, 21
2, 217080, Note_on_c, 0, 86, 21
2, 217080, Note_on_c, 0, 74, 21
2, 217080, Note_on_c, 0, 57, 21
2, 217080, Note_on_c, 0, 53, 21
2, 217135, Note_on_c, 0, 53, 0
2, 217135, Note_on_c, 0, 74, 0
2, 217135, Note_on_c, 0, 86, 0
2, 217135, Note_on_c, 0, 77, 0
2, 217135, Note_on_c, 0, 57, 0
2, 217200, Note_on_c, 0, 79, 21
2, 217200, Note_on_c, 0, 88, 21
2, 217200, Note_on_c, 0, 76, 21
2, 217200, Note_on_c, 0, 55, 21
2, 217200, Note_on_c, 0, 52, 21
2, 217255, Note_on_c, 0, 52, 0
2, 217255, Note_on_c, 0, 76, 0
2, 217255, Note_on_c, 0, 88, 0
2, 217255, Note_on_c, 0, 79, 0
2, 217255, Note_on_c, 0, 55, 0
2, 217320, Note_on_c, 0, 81, 21
2, 217320, Note_on_c, 0, 89, 21
2, 217320, Note_on_c, 0, 77, 21
2, 217320, Note_on_c, 0, 53, 21
2, 217320, Note_on_c, 0, 50, 21
2, 217375, Note_on_c, 0, 50, 0
2, 217375, Note_on_c, 0, 81, 0
2, 217375, Note_on_c, 0, 77, 0
2, 217375, Note_on_c, 0, 89, 0
2, 217375, Note_on_c, 0, 53, 0
2, 217440, Note_on_c, 0, 81, 21
2, 217440, Note_on_c, 0, 89, 21
2, 217440, Note_on_c, 0, 77, 21
2, 217440, Note_on_c, 0, 69, 21
2, 217495, Note_on_c, 0, 69, 0
2, 217495, Note_on_c, 0, 89, 0
2, 217495, Note_on_c, 0, 77, 0
2, 217495, Note_on_c, 0, 81, 0
2, 217560, Note_on_c, 0, 79, 21
2, 217560, Note_on_c, 0, 88, 21
2, 217560, Note_on_c, 0, 76, 21
2, 217615, Note_on_c, 0, 76, 0
2, 217615, Note_on_c, 0, 79, 0
2, 217615, Note_on_c, 0, 88, 0
2, 217620, Note_on_c, 0, 57, 21
2, 217675, Note_on_c, 0, 57, 0
2, 217680, Note_on_c, 0, 77, 21
2, 217680, Note_on_c, 0, 86, 21
2, 217680, Note_on_c, 0, 74, 21
2, 217680, Note_on_c, 0, 57, 21
2, 217735, Note_on_c, 0, 57, 0
2, 217735, Note_on_c, 0, 86, 0
2, 217735, Note_on_c, 0, 77, 0
2, 217735, Note_on_c, 0, 74, 0
2, 217800, Note_on_c, 0, 77, 21
2, 217800, Note_on_c, 0, 86, 21
2, 217800, Note_on_c, 0, 74, 21
2, 217800, Note_on_c, 0, 57, 21
2, 217800, Note_on_c, 0, 53, 21
2, 217855, Note_on_c, 0, 53, 0
2, 217855, Note_on_c, 0, 74, 0
2, 217855, Note_on_c, 0, 86, 0
2, 217855, Note_on_c, 0, 77, 0
2, 217855, Note_on_c, 0, 57, 0
2, 217920, Note_on_c, 0, 79, 21
2, 217920, Note_on_c, 0, 88, 21
2, 217920, Note_on_c, 0, 76, 21
2, 217920, Note_on_c, 0, 57, 21
2, 217920, Note_on_c, 0, 52, 21
2, 217975, Note_on_c, 0, 52, 0
2, 217975, Note_on_c, 0, 76, 0
2, 217975, Note_on_c, 0, 88, 0
2, 217975, Note_on_c, 0, 79, 0
2, 217975, Note_on_c, 0, 57, 0
2, 218040, Note_on_c, 0, 77, 21
2, 218040, Note_on_c, 0, 86, 21
2, 218040, Note_on_c, 0, 74, 21
2, 218040, Note_on_c, 0, 57, 21
2, 218040, Note_on_c, 0, 53, 21
2, 218095, Note_on_c, 0, 53, 0
2, 218095, Note_on_c, 0, 74, 0
2, 218095, Note_on_c, 0, 86, 0
2, 218095, Note_on_c, 0, 77, 0
2, 218095, Note_on_c, 0, 57, 0
2, 218160, Note_on_c, 0, 73, 21
2, 218160, Note_on_c, 0, 64, 21
2, 218160, Note_on_c, 0, 57, 21
2, 218160, Note_on_c, 0, 55, 21
2, 218215, Note_on_c, 0, 55, 0
2, 218215, Note_on_c, 0, 64, 0
2, 218215, Note_on_c, 0, 73, 0
2, 218215, Note_on_c, 0, 57, 0
2, 218280, Note_on_c, 0, 74, 21
2, 218280, Note_on_c, 0, 65, 21
2, 218280, Note_on_c, 0, 57, 21
2, 218280, Note_on_c, 0, 53, 21
2, 218335, Note_on_c, 0, 53, 0
2, 218335, Note_on_c, 0, 65, 0
2, 218335, Note_on_c, 0, 74, 0
2, 218335, Note_on_c, 0, 57, 0
2, 218400, Note_on_c, 0, 76, 21
2, 218400, Note_on_c, 0, 67, 21
2, 218400, Note_on_c, 0, 57, 21
2, 218400, Note_on_c, 0, 52, 21
2, 218455, Note_on_c, 0, 52, 0
2, 218455, Note_on_c, 0, 67, 0
2, 218455, Note_on_c, 0, 76, 0
2, 218455, Note_on_c, 0, 57, 0
2, 218520, Note_on_c, 0, 76, 21
2, 218520, Note_on_c, 0, 67, 21
2, 218520, Note_on_c, 0, 57, 21
2, 218575, Note_on_c, 0, 57, 0
2, 218575, Note_on_c, 0, 76, 0
2, 218575, Note_on_c, 0, 67, 0
2, 218640, Note_on_c, 0, 74, 21
2, 218640, Note_on_c, 0, 65, 21
2, 218695, Note_on_c, 0, 65, 0
2, 218695, Note_on_c, 0, 74, 0
2, 218700, Note_on_c, 0, 45, 21
2, 218755, Note_on_c, 0, 45, 0
2, 218760, Note_on_c, 0, 73, 21
2, 218760, Note_on_c, 0, 64, 21
2, 218760, Note_on_c, 0, 45, 21
2, 218815, Note_on_c, 0, 45, 0
2, 218815, Note_on_c, 0, 73, 0
2, 218815, Note_on_c, 0, 64, 0
2, 218880, Note_on_c, 0, 55, 21
2, 218880, Note_on_c, 0, 57, 21
2, 218880, Note_on_c, 0, 64, 21
2, 218880, Note_on_c, 0, 73, 21
2, 218935, Note_on_c, 0, 73, 0
2, 218935, Note_on_c, 0, 57, 0
2, 218935, Note_on_c, 0, 55, 0
2, 218935, Note_on_c, 0, 64, 0
2, 219000, Note_on_c, 0, 53, 21
2, 219000, Note_on_c, 0, 57, 21
2, 219000, Note_on_c, 0, 65, 21
2, 219000, Note_on_c, 0, 74, 21
2, 219055, Note_on_c, 0, 74, 0
2, 219055, Note_on_c, 0, 57, 0
2, 219055, Note_on_c, 0, 53, 0
2, 219055, Note_on_c, 0, 65, 0
2, 219120, Note_on_c, 0, 55, 21
2, 219120, Note_on_c, 0, 57, 21
2, 219120, Note_on_c, 0, 64, 21
2, 219120, Note_on_c, 0, 73, 21
2, 219175, Note_on_c, 0, 73, 0
2, 219175, Note_on_c, 0, 57, 0
2, 219175, Note_on_c, 0, 55, 0
2, 219175, Note_on_c, 0, 64, 0
2, 219240, Note_on_c, 0, 81, 21
2, 219240, Note_on_c, 0, 69, 21
2, 219240, Note_on_c, 0, 61, 21
2, 219240, Note_on_c, 0, 55, 21
2, 219295, Note_on_c, 0, 55, 0
2, 219295, Note_on_c, 0, 69, 0
2, 219295, Note_on_c, 0, 81, 0
2, 219295, Note_on_c, 0, 61, 0
2, 219360, Note_on_c, 0, 62, 21
2, 219360, Note_on_c, 0, 53, 21
2, 219415, Note_on_c, 0, 53, 0
2, 219415, Note_on_c, 0, 62, 0
2, 219420, Note_on_c, 0, 69, 21
2, 219475, Note_on_c, 0, 69, 0
2, 219480, Note_on_c, 0, 69, 21
2, 219480, Note_on_c, 0, 64, 21
2, 219480, Note_on_c, 0, 52, 21
2, 219535, Note_on_c, 0, 52, 0
2, 219535, Note_on_c, 0, 69, 0
2, 219535, Note_on_c, 0, 64, 0
2, 219600, Note_on_c, 0, 69, 21
2, 219600, Note_on_c, 0, 74, 21
2, 219600, Note_on_c, 0, 65, 21
2, 219600, Note_on_c, 0, 57, 21
2, 219600, Note_on_c, 0, 50, 21
2, 219655, Note_on_c, 0, 50, 0
2, 219655, Note_on_c, 0, 65, 0
2, 219655, Note_on_c, 0, 74, 0
2, 219655, Note_on_c, 0, 69, 0
2, 219655, Note_on_c, 0, 57, 0
2, 219720, Note_on_c, 0, 73, 21
2, 219720, Note_on_c, 0, 76, 21
2, 219720, Note_on_c, 0, 64, 21
2, 219720, Note_on_c, 0, 57, 21
2, 219775, Note_on_c, 0, 57, 0
2, 219775, Note_on_c, 0, 76, 0
2, 219775, Note_on_c, 0, 73, 0
2, 219775, Note_on_c, 0, 64, 0
2, 219840, Note_on_c, 0, 74, 21
2, 219840, Note_on_c, 0, 77, 21
2, 219840, Note_on_c, 0, 65, 21
2, 219840, Note_on_c, 0, 57, 21
2, 219895, Note_on_c, 0, 57, 0
2, 219895, Note_on_c, 0, 77, 0
2, 219895, Note_on_c, 0, 74, 0
2, 219895, Note_on_c, 0, 65, 0
2, 219960, Note_on_c, 0, 73, 21
2, 219960, Note_on_c, 0, 76, 21
2, 219960, Note_on_c, 0, 64, 21
2, 219960, Note_on_c, 0, 57, 21
2, 219960, Note_on_c, 0, 45, 21
2, 220015, Note_on_c, 0, 45, 0
2, 220015, Note_on_c, 0, 64, 0
2, 220015, Note_on_c, 0, 76, 0
2, 220015, Note_on_c, 0, 73, 0
2, 220015, Note_on_c, 0, 57, 0
2, 220080, Note_on_c, 0, 74, 21
2, 220080, Note_on_c, 0, 77, 21
2, 220080, Note_on_c, 0, 65, 21
2, 220080, Note_on_c, 0, 57, 21
2, 220135, Note_on_c, 0, 57, 0
2, 220135, Note_on_c, 0, 77, 0
2, 220135, Note_on_c, 0, 74, 0
2, 220135, Note_on_c, 0, 65, 0
2, 220200, Note_on_c, 0, 76, 21
2, 220200, Note_on_c, 0, 79, 21
2, 220200, Note_on_c, 0, 67, 21
2, 220200, Note_on_c, 0, 57, 21
2, 220255, Note_on_c, 0, 57, 0
2, 220255, Note_on_c, 0, 79, 0
2, 220255, Note_on_c, 0, 76, 0
2, 220255, Note_on_c, 0, 67, 0
2, 220320, Note_on_c, 0, 74, 21
2, 220320, Note_on_c, 0, 77, 21
2, 220320, Note_on_c, 0, 65, 21
2, 220320, Note_on_c, 0, 57, 21
2, 220375, Note_on_c, 0, 57, 0
2, 220375, Note_on_c, 0, 77, 0
2, 220375, Note_on_c, 0, 74, 0
2, 220375, Note_on_c, 0, 65, 0
2, 220440, Note_on_c, 0, 77, 21
2, 220440, Note_on_c, 0, 81, 21
2, 220440, Note_on_c, 0, 69, 21
2, 220495, Note_on_c, 0, 69, 0
2, 220495, Note_on_c, 0, 77, 0
2, 220495, Note_on_c, 0, 81, 0
2, 220500, Note_on_c, 0, 45, 21
2, 220555, Note_on_c, 0, 45, 0
2, 220560, Note_on_c, 0, 77, 21
2, 220560, Note_on_c, 0, 81, 21
2, 220560, Note_on_c, 0, 69, 21
2, 220560, Note_on_c, 0, 45, 21
2, 220615, Note_on_c, 0, 45, 0
2, 220615, Note_on_c, 0, 81, 0
2, 220615, Note_on_c, 0, 77, 0
2, 220615, Note_on_c, 0, 69, 0
2, 220680, Note_on_c, 0, 77, 21
2, 220680, Note_on_c, 0, 81, 21
2, 220680, Note_on_c, 0, 69, 21
2, 220680, Note_on_c, 0, 53, 21
2, 220680, Note_on_c, 0, 50, 21
2, 220735, Note_on_c, 0, 50, 0
2, 220735, Note_on_c, 0, 69, 0
2, 220735, Note_on_c, 0, 81, 0
2, 220735, Note_on_c, 0, 77, 0
2, 220735, Note_on_c, 0, 53, 0
2, 220800, Note_on_c, 0, 79, 21
2, 220800, Note_on_c, 0, 81, 21
2, 220800, Note_on_c, 0, 76, 21
2, 220800, Note_on_c, 0, 55, 21
2, 220800, Note_on_c, 0, 52, 21
2, 220855, Note_on_c, 0, 52, 0
2, 220855, Note_on_c, 0, 76, 0
2, 220855, Note_on_c, 0, 81, 0
2, 220855, Note_on_c, 0, 79, 0
2, 220855, Note_on_c, 0, 55, 0
2, 220920, Note_on_c, 0, 77, 21
2, 220920, Note_on_c, 0, 81, 21
2, 220920, Note_on_c, 0, 74, 21
2, 220920, Note_on_c, 0, 57, 21
2, 220920, Note_on_c, 0, 53, 21
2, 220975, Note_on_c, 0, 53, 0
2, 220975, Note_on_c, 0, 74, 0
2, 220975, Note_on_c, 0, 81, 0
2, 220975, Note_on_c, 0, 77, 0
2, 220975, Note_on_c, 0, 57, 0
2, 221040, Note_on_c, 0, 79, 21
2, 221040, Note_on_c, 0, 81, 21
2, 221040, Note_on_c, 0, 76, 21
2, 221040, Note_on_c, 0, 55, 21
2, 221040, Note_on_c, 0, 52, 21
2, 221095, Note_on_c, 0, 52, 0
2, 221095, Note_on_c, 0, 76, 0
2, 221095, Note_on_c, 0, 81, 0
2, 221095, Note_on_c, 0, 79, 0
2, 221095, Note_on_c, 0, 55, 0
2, 221160, Note_on_c, 0, 77, 21
2, 221160, Note_on_c, 0, 81, 21
2, 221160, Note_on_c, 0, 74, 21
2, 221160, Note_on_c, 0, 57, 21
2, 221160, Note_on_c, 0, 53, 21
2, 221215, Note_on_c, 0, 53, 0
2, 221215, Note_on_c, 0, 74, 0
2, 221215, Note_on_c, 0, 81, 0
2, 221215, Note_on_c, 0, 77, 0
2, 221215, Note_on_c, 0, 57, 0
2, 221280, Note_on_c, 0, 76, 21
2, 221280, Note_on_c, 0, 81, 21
2, 221280, Note_on_c, 0, 73, 21
2, 221280, Note_on_c, 0, 57, 21
2, 221280, Note_on_c, 0, 55, 21
2, 221335, Note_on_c, 0, 55, 0
2, 221335, Note_on_c, 0, 73, 0
2, 221335, Note_on_c, 0, 81, 0
2, 221335, Note_on_c, 0, 76, 0
2, 221335, Note_on_c, 0, 57, 0
2, 221400, Note_on_c, 0, 93, 21
2, 221400, Note_on_c, 0, 81, 21
2, 221400, Note_on_c, 0, 62, 21
2, 221400, Note_on_c, 0, 53, 21
2, 221455, Note_on_c, 0, 53, 0
2, 221455, Note_on_c, 0, 81, 0
2, 221455, Note_on_c, 0, 93, 0
2, 221455, Note_on_c, 0, 62, 0
2, 221520, Note_on_c, 0, 65, 21
2, 221520, Note_on_c, 0, 69, 21
2, 221520, Note_on_c, 0, 57, 21
2, 221575, Note_on_c, 0, 57, 0
2, 221575, Note_on_c, 0, 65, 0
2, 221575, Note_on_c, 0, 69, 0
2, 221580, Note_on_c, 0, 81, 21
2, 221635, Note_on_c, 0, 81, 0
2, 221640, Note_on_c, 0, 81, 21
2, 221640, Note_on_c, 0, 65, 21
2, 221640, Note_on_c, 0, 69, 21
2, 221640, Note_on_c, 0, 57, 21
2, 221695, Note_on_c, 0, 57, 0
2, 221695, Note_on_c, 0, 65, 0
2, 221695, Note_on_c, 0, 81, 0
2, 221695, Note_on_c, 0, 69, 0
2, 221760, Note_on_c, 0, 86, 21
2, 221760, Note_on_c, 0, 74, 21
2, 221760, Note_on_c, 0, 65, 21
2, 221760, Note_on_c, 0, 69, 21
2, 221760, Note_on_c, 0, 57, 21
2, 221815, Note_on_c, 0, 57, 0
2, 221815, Note_on_c, 0, 65, 0
2, 221815, Note_on_c, 0, 74, 0
2, 221815, Note_on_c, 0, 86, 0
2, 221815, Note_on_c, 0, 69, 0
2, 221880, Note_on_c, 0, 85, 21
2, 221880, Note_on_c, 0, 88, 21
2, 221880, Note_on_c, 0, 76, 21
2, 221880, Note_on_c, 0, 67, 21
2, 221880, Note_on_c, 0, 64, 21
2, 221935, Note_on_c, 0, 64, 0
2, 221935, Note_on_c, 0, 76, 0
2, 221935, Note_on_c, 0, 88, 0
2, 221935, Note_on_c, 0, 85, 0
2, 221935, Note_on_c, 0, 67, 0
2, 222000, Note_on_c, 0, 86, 21
2, 222000, Note_on_c, 0, 89, 21
2, 222000, Note_on_c, 0, 77, 21
2, 222000, Note_on_c, 0, 65, 21
2, 222000, Note_on_c, 0, 62, 21
2, 222055, Note_on_c, 0, 62, 0
2, 222055, Note_on_c, 0, 86, 0
2, 222055, Note_on_c, 0, 77, 0
2, 222055, Note_on_c, 0, 89, 0
2, 222055, Note_on_c, 0, 65, 0
2, 222120, Note_on_c, 0, 85, 21
2, 222120, Note_on_c, 0, 88, 21
2, 222120, Note_on_c, 0, 76, 21
2, 222120, Note_on_c, 0, 64, 21
2, 222120, Note_on_c, 0, 67, 21
2, 222120, Note_on_c, 0, 57, 21
2, 222175, Note_on_c, 0, 57, 0
2, 222175, Note_on_c, 0, 67, 0
2, 222175, Note_on_c, 0, 76, 0
2, 222175, Note_on_c, 0, 88, 0
2, 222175, Note_on_c, 0, 85, 0
2, 222175, Note_on_c, 0, 64, 0
2, 222240, Note_on_c, 0, 86, 21
2, 222240, Note_on_c, 0, 89, 21
2, 222240, Note_on_c, 0, 77, 21
2, 222240, Note_on_c, 0, 65, 21
2, 222240, Note_on_c, 0, 62, 21
2, 222295, Note_on_c, 0, 62, 0
2, 222295, Note_on_c, 0, 86, 0
2, 222295, Note_on_c, 0, 77, 0
2, 222295, Note_on_c, 0, 89, 0
2, 222295, Note_on_c, 0, 65, 0
2, 222360, Note_on_c, 0, 88, 21
2, 222360, Note_on_c, 0, 91, 21
2, 222360, Note_on_c, 0, 79, 21
2, 222360, Note_on_c, 0, 64, 21
2, 222360, Note_on_c, 0, 61, 21
2, 222415, Note_on_c, 0, 61, 0
2, 222415, Note_on_c, 0, 79, 0
2, 222415, Note_on_c, 0, 91, 0
2, 222415, Note_on_c, 0, 88, 0
2, 222415, Note_on_c, 0, 64, 0
2, 222480, Note_on_c, 0, 86, 21
2, 222480, Note_on_c, 0, 89, 21
2, 222480, Note_on_c, 0, 77, 21
2, 222480, Note_on_c, 0, 62, 21
2, 222480, Note_on_c, 0, 65, 21
2, 222480, Note_on_c, 0, 57, 21
2, 222535, Note_on_c, 0, 57, 0
2, 222535, Note_on_c, 0, 65, 0
2, 222535, Note_on_c, 0, 86, 0
2, 222535, Note_on_c, 0, 77, 0
2, 222535, Note_on_c, 0, 89, 0
2, 222535, Note_on_c, 0, 62, 0
2, 222600, Note_on_c, 0, 81, 21
2, 222600, Note_on_c, 0, 77, 21
2, 222655, Note_on_c, 0, 81, 0
2, 222655, Note_on_c, 0, 77, 0
2, 222660, Note_on_c, 0, 45, 21
2, 222715, Note_on_c, 0, 45, 0
2, 222720, Note_on_c, 0, 81, 21
2, 222720, Note_on_c, 0, 77, 21
2, 222720, Note_on_c, 0, 45, 21
2, 222775, Note_on_c, 0, 45, 0
2, 222775, Note_on_c, 0, 81, 0
2, 222775, Note_on_c, 0, 77, 0
2, 222840, Note_on_c, 0, 69, 21
2, 222840, Note_on_c, 0, 53, 21
2, 222840, Note_on_c, 0, 50, 21
2, 222895, Note_on_c, 0, 50, 0
2, 222895, Note_on_c, 0, 69, 0
2, 222895, Note_on_c, 0, 53, 0
2, 222960, Note_on_c, 0, 55, 21
2, 222960, Note_on_c, 0, 52, 21
2, 223015, Note_on_c, 0, 52, 0
2, 223015, Note_on_c, 0, 55, 0
2, 223020, Note_on_c, 0, 57, 21
2, 223075, Note_on_c, 0, 57, 0
2, 223080, Note_on_c, 0, 57, 21
2, 223080, Note_on_c, 0, 53, 21
2, 223135, Note_on_c, 0, 53, 0
2, 223135, Note_on_c, 0, 57, 0
2, 223200, Note_on_c, 0, 69, 21
2, 223200, Note_on_c, 0, 61, 21
2, 223200, Note_on_c, 0, 52, 21
2, 223215, Note_on_c, 0, 89, 0
2, 223215, Note_on_c, 0, 77, 0
2, 223255, Note_on_c, 0, 61, 0
2, 223255, Note_on_c, 0, 69, 0
2, 223255, Note_on_c, 0, 52, 0
2, 223320, Note_on_c, 0, 62, 21
2, 223320, Note_on_c, 0, 53, 21
2, 223375, Note_on_c, 0, 53, 0
2, 223375, Note_on_c, 0, 62, 0
2, 223380, Note_on_c, 0, 57, 21
2, 223435, Note_on_c, 0, 57, 0
2, 223440, Note_on_c, 0, 57, 21
2, 223440, Note_on_c, 0, 64, 21
2, 223440, Note_on_c, 0, 55, 21
2, 223495, Note_on_c, 0, 55, 0
2, 223495, Note_on_c, 0, 64, 0
2, 223495, Note_on_c, 0, 57, 0
2, 223560, Note_on_c, 0, 81, 21
2, 223560, Note_on_c, 0, 62, 21
2, 223560, Note_on_c, 0, 53, 21
2, 223615, Note_on_c, 0, 53, 0
2, 223615, Note_on_c, 0, 62, 0
2, 223615, Note_on_c, 0, 81, 0
2, 223680, Note_on_c, 0, 61, 21
2, 223680, Note_on_c, 0, 52, 21
2, 223735, Note_on_c, 0, 52, 0
2, 223735, Note_on_c, 0, 61, 0
2, 223740, Note_on_c, 0, 69, 21
2, 223795, Note_on_c, 0, 69, 0
2, 223800, Note_on_c, 0, 69, 21
2, 223800, Note_on_c, 0, 62, 21
2, 223800, Note_on_c, 0, 53, 21
2, 223855, Note_on_c, 0, 53, 0
2, 223855, Note_on_c, 0, 62, 0
2, 223855, Note_on_c, 0, 69, 0
2, 223920, Note_on_c, 0, 79, 21
2, 223920, Note_on_c, 0, 50, 21
2, 223920, Note_on_c, 0, 47, 21
2, 223975, Note_on_c, 0, 47, 0
2, 223975, Note_on_c, 0, 50, 0
2, 223975, Note_on_c, 0, 79, 0
2, 224040, Note_on_c, 0, 51, 21
2, 224040, Note_on_c, 0, 48, 21
2, 224095, Note_on_c, 0, 48, 0
2, 224095, Note_on_c, 0, 51, 0
2, 224100, Note_on_c, 0, 67, 21
2, 224155, Note_on_c, 0, 67, 0
2, 224160, Note_on_c, 0, 67, 21
2, 224160, Note_on_c, 0, 53, 21
2, 224160, Note_on_c, 0, 50, 21
2, 224215, Note_on_c, 0, 50, 0
2, 224215, Note_on_c, 0, 53, 0
2, 224215, Note_on_c, 0, 67, 0
2, 224280, Note_on_c, 0, 67, 21
2, 224280, Note_on_c, 0, 60, 21
2, 224280, Note_on_c, 0, 51, 21
2, 224335, Note_on_c, 0, 51, 0
2, 224335, Note_on_c, 0, 60, 0
2, 224335, Note_on_c, 0, 67, 0
2, 224400, Note_on_c, 0, 59, 21
2, 224400, Note_on_c, 0, 50, 21
2, 224455, Note_on_c, 0, 50, 0
2, 224455, Note_on_c, 0, 59, 0
2, 224460, Note_on_c, 0, 55, 21
2, 224515, Note_on_c, 0, 55, 0
2, 224520, Note_on_c, 0, 55, 21
2, 224520, Note_on_c, 0, 60, 21
2, 224520, Note_on_c, 0, 51, 21
2, 224575, Note_on_c, 0, 51, 0
2, 224575, Note_on_c, 0, 60, 0
2, 224575, Note_on_c, 0, 55, 0
2, 224640, Note_on_c, 0, 67, 21
2, 224640, Note_on_c, 0, 62, 21
2, 224640, Note_on_c, 0, 59, 21
2, 224695, Note_on_c, 0, 59, 0
2, 224695, Note_on_c, 0, 62, 0
2, 224695, Note_on_c, 0, 67, 0
2, 224760, Note_on_c, 0, 63, 21
2, 224760, Note_on_c, 0, 60, 21
2, 224815, Note_on_c, 0, 60, 0
2, 224815, Note_on_c, 0, 63, 0
2, 224820, Note_on_c, 0, 55, 21
2, 224875, Note_on_c, 0, 55, 0
2, 224880, Note_on_c, 0, 55, 21
2, 224880, Note_on_c, 0, 65, 21
2, 224880, Note_on_c, 0, 62, 21
2, 224935, Note_on_c, 0, 62, 0
2, 224935, Note_on_c, 0, 65, 0
2, 224935, Note_on_c, 0, 55, 0
2, 225000, Note_on_c, 0, 79, 21
2, 225000, Note_on_c, 0, 63, 21
2, 225000, Note_on_c, 0, 60, 21
2, 225055, Note_on_c, 0, 60, 0
2, 225055, Note_on_c, 0, 63, 0
2, 225055, Note_on_c, 0, 79, 0
2, 225120, Note_on_c, 0, 62, 21
2, 225120, Note_on_c, 0, 59, 21
2, 225175, Note_on_c, 0, 59, 0
2, 225175, Note_on_c, 0, 62, 0
2, 225180, Note_on_c, 0, 67, 21
2, 225235, Note_on_c, 0, 67, 0
2, 225240, Note_on_c, 0, 67, 21
2, 225240, Note_on_c, 0, 63, 21
2, 225240, Note_on_c, 0, 60, 21
2, 225295, Note_on_c, 0, 60, 0
2, 225295, Note_on_c, 0, 63, 0
2, 225295, Note_on_c, 0, 67, 0
2, 225360, Note_on_c, 0, 68, 21
2, 225360, Note_on_c, 0, 74, 21
2, 225360, Note_on_c, 0, 65, 21
2, 225360, Note_on_c, 0, 58, 21
2, 225415, Note_on_c, 0, 58, 0
2, 225415, Note_on_c, 0, 68, 0
2, 225415, Note_on_c, 0, 74, 0
2, 225415, Note_on_c, 0, 65, 0
2, 225480, Note_on_c, 0, 75, 21
2, 225480, Note_on_c, 0, 67, 21
2, 225535, Note_on_c, 0, 67, 0
2, 225535, Note_on_c, 0, 75, 0
2, 225540, Note_on_c, 0, 46, 21
2, 225595, Note_on_c, 0, 46, 0
2, 225600, Note_on_c, 0, 77, 21
2, 225600, Note_on_c, 0, 69, 21
2, 225600, Note_on_c, 0, 46, 21
2, 225655, Note_on_c, 0, 46, 0
2, 225655, Note_on_c, 0, 69, 0
2, 225655, Note_on_c, 0, 77, 0
2, 225720, Note_on_c, 0, 75, 21
2, 225720, Note_on_c, 0, 67, 21
2, 225720, Note_on_c, 0, 46, 21
2, 225775, Note_on_c, 0, 46, 0
2, 225775, Note_on_c, 0, 67, 0
2, 225775, Note_on_c, 0, 75, 0
2, 225840, Note_on_c, 0, 74, 21
2, 225840, Note_on_c, 0, 65, 21
2, 225895, Note_on_c, 0, 65, 0
2, 225895, Note_on_c, 0, 74, 0
2, 225900, Note_on_c, 0, 34, 21
2, 225955, Note_on_c, 0, 34, 0
2, 225960, Note_on_c, 0, 75, 21
2, 225960, Note_on_c, 0, 67, 21
2, 225960, Note_on_c, 0, 34, 21
2, 226015, Note_on_c, 0, 34, 0
2, 226015, Note_on_c, 0, 67, 0
2, 226015, Note_on_c, 0, 75, 0
2, 226080, Note_on_c, 0, 68, 21
2, 226080, Note_on_c, 0, 74, 21
2, 226080, Note_on_c, 0, 65, 21
2, 226080, Note_on_c, 0, 58, 21
2, 226135, Note_on_c, 0, 58, 0
2, 226135, Note_on_c, 0, 68, 0
2, 226135, Note_on_c, 0, 74, 0
2, 226135, Note_on_c, 0, 65, 0
2, 226200, Note_on_c, 0, 75, 21
2, 226200, Note_on_c, 0, 67, 21
2, 226255, Note_on_c, 0, 67, 0
2, 226255, Note_on_c, 0, 75, 0
2, 226260, Note_on_c, 0, 46, 21
2, 226315, Note_on_c, 0, 46, 0
2, 226320, Note_on_c, 0, 77, 21
2, 226320, Note_on_c, 0, 69, 21
2, 226320, Note_on_c, 0, 46, 21
2, 226375, Note_on_c, 0, 46, 0
2, 226375, Note_on_c, 0, 69, 0
2, 226375, Note_on_c, 0, 77, 0
2, 226440, Note_on_c, 0, 75, 21
2, 226440, Note_on_c, 0, 67, 21
2, 226440, Note_on_c, 0, 70, 21
2, 226495, Note_on_c, 0, 70, 0
2, 226495, Note_on_c, 0, 67, 0
2, 226495, Note_on_c, 0, 75, 0
2, 226560, Note_on_c, 0, 74, 21
2, 226560, Note_on_c, 0, 65, 21
2, 226615, Note_on_c, 0, 65, 0
2, 226615, Note_on_c, 0, 74, 0
2, 226620, Note_on_c, 0, 58, 21
2, 226675, Note_on_c, 0, 58, 0
2, 226680, Note_on_c, 0, 75, 21
2, 226680, Note_on_c, 0, 67, 21
2, 226680, Note_on_c, 0, 58, 21
2, 226735, Note_on_c, 0, 58, 0
2, 226735, Note_on_c, 0, 67, 0
2, 226735, Note_on_c, 0, 75, 0
2, 226800, Note_on_c, 0, 82, 21
2, 226800, Note_on_c, 0, 70, 21
2, 226800, Note_on_c, 0, 65, 21
2, 226800, Note_on_c, 0, 62, 21
2, 226855, Note_on_c, 0, 62, 0
2, 226855, Note_on_c, 0, 82, 0
2, 226855, Note_on_c, 0, 70, 0
2, 226855, Note_on_c, 0, 65, 0
2, 226920, Note_on_c, 0, 67, 21
2, 226920, Note_on_c, 0, 63, 21
2, 226975, Note_on_c, 0, 63, 0
2, 226975, Note_on_c, 0, 67, 0
2, 226980, Note_on_c, 0, 70, 21
2, 227035, Note_on_c, 0, 70, 0
2, 227040, Note_on_c, 0, 70, 21
2, 227040, Note_on_c, 0, 68, 21
2, 227040, Note_on_c, 0, 65, 21
2, 227095, Note_on_c, 0, 65, 0
2, 227095, Note_on_c, 0, 68, 0
2, 227095, Note_on_c, 0, 70, 0
2, 227160, Note_on_c, 0, 70, 21
2, 227160, Note_on_c, 0, 75, 21
2, 227160, Note_on_c, 0, 67, 21
2, 227160, Note_on_c, 0, 58, 21
2, 227215, Note_on_c, 0, 58, 0
2, 227215, Note_on_c, 0, 70, 0
2, 227215, Note_on_c, 0, 75, 0
2, 227215, Note_on_c, 0, 67, 0
2, 227280, Note_on_c, 0, 74, 21
2, 227280, Note_on_c, 0, 77, 21
2, 227280, Note_on_c, 0, 68, 21
2, 227335, Note_on_c, 0, 68, 0
2, 227335, Note_on_c, 0, 77, 0
2, 227335, Note_on_c, 0, 74, 0
2, 227340, Note_on_c, 0, 46, 21
2, 227395, Note_on_c, 0, 46, 0
2, 227400, Note_on_c, 0, 75, 21
2, 227400, Note_on_c, 0, 79, 21
2, 227400, Note_on_c, 0, 67, 21
2, 227400, Note_on_c, 0, 46, 21
2, 227455, Note_on_c, 0, 46, 0
2, 227455, Note_on_c, 0, 75, 0
2, 227455, Note_on_c, 0, 79, 0
2, 227455, Note_on_c, 0, 67, 0
2, 227520, Note_on_c, 0, 74, 21
2, 227520, Note_on_c, 0, 80, 21
2, 227520, Note_on_c, 0, 68, 21
2, 227520, Note_on_c, 0, 53, 21
2, 227520, Note_on_c, 0, 46, 21
2, 227575, Note_on_c, 0, 46, 0
2, 227575, Note_on_c, 0, 53, 0
2, 227700, Note_on_c, 0, 41, 21
2, 227700, Note_on_c, 0, 34, 21
2, 227755, Note_on_c, 0, 34, 0
2, 227755, Note_on_c, 0, 41, 0
2, 227760, Note_on_c, 0, 41, 21
2, 227760, Note_on_c, 0, 34, 21
2, 227815, Note_on_c, 0, 34, 0
2, 227815, Note_on_c, 0, 41, 0
2, 227880, Note_on_c, 0, 58, 21
2, 227935, Note_on_c, 0, 58, 0
2, 228060, Note_on_c, 0, 46, 21
2, 228115, Note_on_c, 0, 46, 0
2, 228120, Note_on_c, 0, 46, 21
2, 228175, Note_on_c, 0, 46, 0
2, 228240, Note_on_c, 0, 53, 21
2, 228240, Note_on_c, 0, 56, 21
2, 228240, Note_on_c, 0, 46, 21
2, 228240, Note_on_c, 0, 62, 21
2, 228295, Note_on_c, 0, 62, 0
2, 228420, Note_on_c, 0, 50, 21
2, 228475, Note_on_c, 0, 50, 0
2, 228480, Note_on_c, 0, 50, 21
2, 228535, Note_on_c, 0, 50, 0
2, 228600, Note_on_c, 0, 65, 21
2, 228655, Note_on_c, 0, 65, 0
2, 228780, Note_on_c, 0, 53, 21
2, 228835, Note_on_c, 0, 53, 0
2, 228840, Note_on_c, 0, 68, 0
2, 228840, Note_on_c, 0, 74, 0
2, 228840, Note_on_c, 0, 80, 0
2, 228840, Note_on_c, 0, 53, 21
2, 228895, Note_on_c, 0, 53, 0
2, 228960, Note_on_c, 0, 46, 0
2, 228960, Note_on_c, 0, 56, 0
2, 228960, Note_on_c, 0, 53, 0
2, 228960, Note_on_c, 0, 79, 37
2, 228960, Note_on_c, 0, 70, 37
2, 228960, Note_on_c, 0, 63, 37
2, 228960, Note_on_c, 0, 58, 37
2, 229015, Note_on_c, 0, 58, 0
2, 229015, Note_on_c, 0, 79, 0
2, 229015, Note_on_c, 0, 70, 0
2, 229015, Note_on_c, 0, 63, 0
2, 229080, Note_on_c, 0, 77, 37
2, 229080, Note_on_c, 0, 68, 37
2, 229135, Note_on_c, 0, 68, 0
2, 229135, Note_on_c, 0, 77, 0
2, 229140, Note_on_c, 0, 46, 37
2, 229195, Note_on_c, 0, 46, 0
2, 229200, Note_on_c, 0, 75, 37
2, 229200, Note_on_c, 0, 67, 37
2, 229200, Note_on_c, 0, 46, 37
2, 229255, Note_on_c, 0, 46, 0
2, 229255, Note_on_c, 0, 67, 0
2, 229255, Note_on_c, 0, 75, 0
2, 229320, Note_on_c, 0, 79, 37
2, 229320, Note_on_c, 0, 82, 37
2, 229320, Note_on_c, 0, 70, 37
2, 229320, Note_on_c, 0, 63, 37
2, 229320, Note_on_c, 0, 58, 37
2, 229375, Note_on_c, 0, 58, 0
2, 229375, Note_on_c, 0, 70, 0
2, 229375, Note_on_c, 0, 79, 0
2, 229375, Note_on_c, 0, 82, 0
2, 229375, Note_on_c, 0, 63, 0
2, 229440, Note_on_c, 0, 80, 37
2, 229440, Note_on_c, 0, 77, 37
2, 229495, Note_on_c, 0, 77, 0
2, 229495, Note_on_c, 0, 80, 0
2, 229500, Note_on_c, 0, 46, 37
2, 229555, Note_on_c, 0, 46, 0
2, 229560, Note_on_c, 0, 79, 37
2, 229560, Note_on_c, 0, 75, 37
2, 229560, Note_on_c, 0, 46, 37
2, 229615, Note_on_c, 0, 46, 0
2, 229615, Note_on_c, 0, 75, 0
2, 229615, Note_on_c, 0, 79, 0
2, 229680, Note_on_c, 0, 79, 37
2, 229680, Note_on_c, 0, 70, 37
2, 229680, Note_on_c, 0, 63, 37
2, 229680, Note_on_c, 0, 58, 37
2, 229735, Note_on_c, 0, 58, 0
2, 229735, Note_on_c, 0, 79, 0
2, 229735, Note_on_c, 0, 70, 0
2, 229735, Note_on_c, 0, 63, 0
2, 229800, Note_on_c, 0, 77, 37
2, 229800, Note_on_c, 0, 68, 37
2, 229855, Note_on_c, 0, 68, 0
2, 229855, Note_on_c, 0, 77, 0
2, 229860, Note_on_c, 0, 46, 37
2, 229915, Note_on_c, 0, 46, 0
2, 229920, Note_on_c, 0, 75, 37
2, 229920, Note_on_c, 0, 67, 37
2, 229920, Note_on_c, 0, 46, 37
2, 229975, Note_on_c, 0, 46, 0
2, 229975, Note_on_c, 0, 67, 0
2, 229975, Note_on_c, 0, 75, 0
2, 230040, Note_on_c, 0, 79, 37
2, 230040, Note_on_c, 0, 82, 37
2, 230040, Note_on_c, 0, 70, 37
2, 230040, Note_on_c, 0, 63, 37
2, 230040, Note_on_c, 0, 58, 37
2, 230095, Note_on_c, 0, 58, 0
2, 230095, Note_on_c, 0, 70, 0
2, 230095, Note_on_c, 0, 79, 0
2, 230095, Note_on_c, 0, 82, 0
2, 230095, Note_on_c, 0, 63, 0
2, 230160, Note_on_c, 0, 80, 37
2, 230160, Note_on_c, 0, 77, 37
2, 230215, Note_on_c, 0, 77, 0
2, 230215, Note_on_c, 0, 80, 0
2, 230220, Note_on_c, 0, 46, 37
2, 230275, Note_on_c, 0, 46, 0
2, 230280, Note_on_c, 0, 79, 37
2, 230280, Note_on_c, 0, 75, 37
2, 230280, Note_on_c, 0, 46, 37
2, 230335, Note_on_c, 0, 46, 0
2, 230335, Note_on_c, 0, 75, 0
2, 230335, Note_on_c, 0, 79, 0
2, 230400, Note_on_c, 0, 74, 46
2, 230400, Note_on_c, 0, 80, 46
2, 230400, Note_on_c, 0, 68, 46
2, 230400, Note_on_c, 0, 53, 42
2, 230400, Note_on_c, 0, 46, 42
2, 230455, Note_on_c, 0, 46, 0
2, 230455, Note_on_c, 0, 53, 0
2, 230580, Note_on_c, 0, 41, 43
2, 230580, Note_on_c, 0, 34, 43
2, 230635, Note_on_c, 0, 34, 0
2, 230635, Note_on_c, 0, 41, 0
2, 230640, Note_on_c, 0, 41, 46
2, 230640, Note_on_c, 0, 34, 46
2, 230695, Note_on_c, 0, 34, 0
2, 230695, Note_on_c, 0, 41, 0
2, 230760, Note_on_c, 0, 58, 51
2, 230815, Note_on_c, 0, 58, 0
2, 230940, Note_on_c, 0, 46, 53
2, 230995, Note_on_c, 0, 46, 0
2, 231000, Note_on_c, 0, 46, 56
2, 231055, Note_on_c, 0, 46, 0
2, 231120, Note_on_c, 0, 53, 65
2, 231120, Note_on_c, 0, 56, 65
2, 231120, Note_on_c, 0, 46, 65
2, 231120, Note_on_c, 0, 62, 61
2, 231175, Note_on_c, 0, 62, 0
2, 231300, Note_on_c, 0, 50, 62
2, 231355, Note_on_c, 0, 50, 0
2, 231360, Note_on_c, 0, 50, 65
2, 231415, Note_on_c, 0, 50, 0
2, 231480, Note_on_c, 0, 65, 70
2, 231535, Note_on_c, 0, 65, 0
2, 231660, Note_on_c, 0, 53, 72
2, 231715, Note_on_c, 0, 53, 0
2, 231720, Note_on_c, 0, 56, 0
2, 231720, Note_on_c, 0, 80, 0
2, 231720, Note_on_c, 0, 68, 0
2, 231720, Note_on_c, 0, 74, 0
2, 231720, Note_on_c, 0, 46, 0
2, 231720, Note_on_c, 0, 53, 75
2, 231775, Note_on_c, 0, 53, 0
2, 231840, Note_on_c, 0, 74, 84
2, 231840, Note_on_c, 0, 81, 84
2, 231840, Note_on_c, 0, 69, 84
2, 231840, Note_on_c, 0, 53, 79
2, 231840, Note_on_c, 0, 57, 79
2, 231840, Note_on_c, 0, 45, 79
2, 231895, Note_on_c, 0, 45, 0
2, 231895, Note_on_c, 0, 53, 0
2, 231895, Note_on_c, 0, 57, 0
2, 232020, Note_on_c, 0, 41, 81
2, 232020, Note_on_c, 0, 33, 81
2, 232075, Note_on_c, 0, 33, 0
2, 232075, Note_on_c, 0, 41, 0
2, 232080, Note_on_c, 0, 41, 84
2, 232080, Note_on_c, 0, 33, 84
2, 232135, Note_on_c, 0, 33, 0
2, 232135, Note_on_c, 0, 41, 0
2, 232200, Note_on_c, 0, 57, 89
2, 232255, Note_on_c, 0, 57, 0
2, 232380, Note_on_c, 0, 45, 90
2, 232435, Note_on_c, 0, 45, 0
2, 232440, Note_on_c, 0, 45, 93
2, 232495, Note_on_c, 0, 45, 0
2, 232560, Note_on_c, 0, 53, 103
2, 232560, Note_on_c, 0, 57, 103
2, 232560, Note_on_c, 0, 45, 103
2, 232560, Note_on_c, 0, 62, 98
2, 232615, Note_on_c, 0, 62, 0
2, 232740, Note_on_c, 0, 50, 100
2, 232795, Note_on_c, 0, 50, 0
2, 232800, Note_on_c, 0, 50, 103
2, 232855, Note_on_c, 0, 50, 0
2, 232920, Note_on_c, 0, 65, 108
2, 232975, Note_on_c, 0, 65, 0
2, 233100, Note_on_c, 0, 53, 109
2, 233155, Note_on_c, 0, 53, 0
2, 233160, Note_on_c, 0, 69, 0
2, 233160, Note_on_c, 0, 57, 0
2, 233160, Note_on_c, 0, 81, 0
2, 233160, Note_on_c, 0, 74, 0
2, 233160, Note_on_c, 0, 45, 0
2, 233160, Note_on_c, 0, 53, 112
2, 233215, Note_on_c, 0, 53, 0
2, 233280, Note_on_c, 0, 74, 117
2, 233280, Note_on_c, 0, 81, 117
2, 233280, Note_on_c, 0, 69, 117
2, 233280, Note_on_c, 0, 53, 117
2, 233280, Note_on_c, 0, 57, 117
2, 233280, Note_on_c, 0, 45, 117
2, 233335, Note_on_c, 0, 45, 0
2, 233335, Note_on_c, 0, 57, 0
2, 233335, Note_on_c, 0, 53, 0
2, 233335, Note_on_c, 0, 81, 0
2, 233335, Note_on_c, 0, 74, 0
2, 233335, Note_on_c, 0, 69, 0
2, 233460, Note_on_c, 0, 62, 117
2, 233460, Note_on_c, 0, 45, 117
2, 233460, Note_on_c, 0, 50, 117
2, 233460, Note_on_c, 0, 53, 117
2, 233460, Note_on_c, 0, 57, 117
2, 233460, Note_on_c, 0, 41, 117
2, 233515, Note_on_c, 0, 41, 0
2, 233515, Note_on_c, 0, 57, 0
2, 233515, Note_on_c, 0, 53, 0
2, 233515, Note_on_c, 0, 45, 0
2, 233515, Note_on_c, 0, 62, 0
2, 233515, Note_on_c, 0, 50, 0
2, 233520, Note_on_c, 0, 62, 117
2, 233520, Note_on_c, 0, 45, 117
2, 233520, Note_on_c, 0, 50, 117
2, 233520, Note_on_c, 0, 53, 117
2, 233520, Note_on_c, 0, 57, 117
2, 233520, Note_on_c, 0, 41, 117
2, 233575, Note_on_c, 0, 41, 0
2, 233575, Note_on_c, 0, 57, 0
2, 233575, Note_on_c, 0, 53, 0
2, 233575, Note_on_c, 0, 45, 0
2, 233575, Note_on_c, 0, 62, 0
2, 233575, Note_on_c, 0, 50, 0
2, 233640, Note_on_c, 0, 69, 117
2, 233640, Note_on_c, 0, 74, 117
2, 233640, Note_on_c, 0, 65, 117
2, 233640, Note_on_c, 0, 57, 117
2, 233640, Note_on_c, 0, 62, 117
2, 233640, Note_on_c, 0, 53, 117
2, 233695, Note_on_c, 0, 62, 0
2, 233695, Note_on_c, 0, 74, 0
2, 233695, Note_on_c, 0, 65, 0
2, 233695, Note_on_c, 0, 53, 0
2, 233695, Note_on_c, 0, 69, 0
2, 233695, Note_on_c, 0, 57, 0
2, 233820, Note_on_c, 0, 62, 117
2, 233820, Note_on_c, 0, 45, 117
2, 233820, Note_on_c, 0, 50, 117
2, 233820, Note_on_c, 0, 53, 117
2, 233820, Note_on_c, 0, 57, 117
2, 233820, Note_on_c, 0, 41, 117
2, 233875, Note_on_c, 0, 41, 0
2, 233875, Note_on_c, 0, 57, 0
2, 233875, Note_on_c, 0, 53, 0
2, 233875, Note_on_c, 0, 45, 0
2, 233875, Note_on_c, 0, 62, 0
2, 233875, Note_on_c, 0, 50, 0
2, 233880, Note_on_c, 0, 62, 117
2, 233880, Note_on_c, 0, 45, 117
2, 233880, Note_on_c, 0, 50, 117
2, 233880, Note_on_c, 0, 53, 117
2, 233880, Note_on_c, 0, 57, 117
2, 233880, Note_on_c, 0, 41, 117
2, 233935, Note_on_c, 0, 41, 0
2, 233935, Note_on_c, 0, 57, 0
2, 233935, Note_on_c, 0, 53, 0
2, 233935, Note_on_c, 0, 45, 0
2, 233935, Note_on_c, 0, 62, 0
2, 233935, Note_on_c, 0, 50, 0
2, 234000, Note_on_c, 0, 74, 117
2, 234000, Note_on_c, 0, 81, 117
2, 234000, Note_on_c, 0, 69, 117
2, 234000, Note_on_c, 0, 53, 117
2, 234000, Note_on_c, 0, 57, 117
2, 234000, Note_on_c, 0, 45, 117
2, 234055, Note_on_c, 0, 45, 0
2, 234055, Note_on_c, 0, 57, 0
2, 234055, Note_on_c, 0, 53, 0
2, 234055, Note_on_c, 0, 81, 0
2, 234055, Note_on_c, 0, 74, 0
2, 234055, Note_on_c, 0, 69, 0
2, 234180, Note_on_c, 0, 62, 117
2, 234180, Note_on_c, 0, 45, 117
2, 234180, Note_on_c, 0, 50, 117
2, 234180, Note_on_c, 0, 53, 117
2, 234180, Note_on_c, 0, 57, 117
2, 234180, Note_on_c, 0, 41, 117
2, 234235, Note_on_c, 0, 41, 0
2, 234235, Note_on_c, 0, 57, 0
2, 234235, Note_on_c, 0, 53, 0
2, 234235, Note_on_c, 0, 45, 0
2, 234235, Note_on_c, 0, 62, 0
2, 234235, Note_on_c, 0, 50, 0
2, 234240, Note_on_c, 0, 62, 117
2, 234240, Note_on_c, 0, 45, 117
2, 234240, Note_on_c, 0, 50, 117
2, 234240, Note_on_c, 0, 53, 117
2, 234240, Note_on_c, 0, 57, 117
2, 234240, Note_on_c, 0, 41, 117
2, 234295, Note_on_c, 0, 41, 0
2, 234295, Note_on_c, 0, 57, 0
2, 234295, Note_on_c, 0, 53, 0
2, 234295, Note_on_c, 0, 45, 0
2, 234295, Note_on_c, 0, 62, 0
2, 234295, Note_on_c, 0, 50, 0
2, 234360, Note_on_c, 0, 69, 117
2, 234360, Note_on_c, 0, 74, 117
2, 234360, Note_on_c, 0, 65, 117
2, 234360, Note_on_c, 0, 57, 117
2, 234360, Note_on_c, 0, 62, 117
2, 234360, Note_on_c, 0, 53, 117
2, 234415, Note_on_c, 0, 62, 0
2, 234415, Note_on_c, 0, 74, 0
2, 234415, Note_on_c, 0, 65, 0
2, 234415, Note_on_c, 0, 53, 0
2, 234415, Note_on_c, 0, 69, 0
2, 234415, Note_on_c, 0, 57, 0
2, 234540, Note_on_c, 0, 62, 117
2, 234540, Note_on_c, 0, 45, 117
2, 234540, Note_on_c, 0, 50, 117
2, 234540, Note_on_c, 0, 53, 117
2, 234540, Note_on_c, 0, 57, 117
2, 234540, Note_on_c, 0, 41, 117
2, 234595, Note_on_c, 0, 41, 0
2, 234595, Note_on_c, 0, 57, 0
2, 234595, Note_on_c, 0, 53, 0
2, 234595, Note_on_c, 0, 45, 0
2, 234595, Note_on_c, 0, 62, 0
2, 234595, Note_on_c, 0, 50, 0
2, 234600, Note_on_c, 0, 62, 117
2, 234600, Note_on_c, 0, 45, 117
2, 234600, Note_on_c, 0, 50, 117
2, 234600, Note_on_c, 0, 53, 117
2, 234600, Note_on_c, 0, 57, 117
2, 234600, Note_on_c, 0, 41, 117
2, 234655, Note_on_c, 0, 41, 0
2, 234655, Note_on_c, 0, 57, 0
2, 234655, Note_on_c, 0, 53, 0
2, 234655, Note_on_c, 0, 45, 0
2, 234655, Note_on_c, 0, 62, 0
2, 234655, Note_on_c, 0, 50, 0
2, 234720, Note_on_c, 0, 86, 117
2, 234720, Note_on_c, 0, 89, 117
2, 234720, Note_on_c, 0, 93, 117
2, 234720, Note_on_c, 0, 81, 117
2, 234720, Note_on_c, 0, 45, 117
2, 234720, Note_on_c, 0, 50, 117
2, 234720, Note_on_c, 0, 38, 117
2, 234775, Note_on_c, 0, 38, 0
2, 234775, Note_on_c, 0, 89, 0
2, 234775, Note_on_c, 0, 50, 0
2, 234775, Note_on_c, 0, 93, 0
2, 234775, Note_on_c, 0, 45, 0
2, 234775, Note_on_c, 0, 86, 0
2, 234775, Note_on_c, 0, 81, 0
2, 234900, Note_on_c, 0, 74, 117
2, 234900, Note_on_c, 0, 81, 117
2, 234900, Note_on_c, 0, 69, 117
2, 234900, Note_on_c, 0, 57, 117
2, 234900, Note_on_c, 0, 62, 117
2, 234900, Note_on_c, 0, 53, 117
2, 234955, Note_on_c, 0, 62, 0
2, 234955, Note_on_c, 0, 81, 0
2, 234955, Note_on_c, 0, 69, 0
2, 234955, Note_on_c, 0, 53, 0
2, 234955, Note_on_c, 0, 74, 0
2, 234955, Note_on_c, 0, 57, 0
2, 234960, Note_on_c, 0, 74, 117
2, 234960, Note_on_c, 0, 81, 117
2, 234960, Note_on_c, 0, 69, 117
2, 234960, Note_on_c, 0, 57, 117
2, 234960, Note_on_c, 0, 62, 117
2, 234960, Note_on_c, 0, 53, 117
2, 235015, Note_on_c, 0, 62, 0
2, 235015, Note_on_c, 0, 81, 0
2, 235015, Note_on_c, 0, 69, 0
2, 235015, Note_on_c, 0, 53, 0
2, 235015, Note_on_c, 0, 74, 0
2, 235015, Note_on_c, 0, 57, 0
2, 235080, Note_on_c, 0, 86, 117
2, 235080, Note_on_c, 0, 89, 117
2, 235080, Note_on_c, 0, 93, 117
2, 235080, Note_on_c, 0, 81, 117
2, 235080, Note_on_c, 0, 45, 117
2, 235080, Note_on_c, 0, 50, 117
2, 235080, Note_on_c, 0, 38, 117
2, 235135, Note_on_c, 0, 38, 0
2, 235135, Note_on_c, 0, 89, 0
2, 235135, Note_on_c, 0, 50, 0
2, 235135, Note_on_c, 0, 93, 0
2, 235135, Note_on_c, 0, 45, 0
2, 235135, Note_on_c, 0, 86, 0
2, 235135, Note_on_c, 0, 81, 0
2, 235260, Note_on_c, 0, 74, 117
2, 235260, Note_on_c, 0, 81, 117
2, 235260, Note_on_c, 0, 69, 117
2, 235260, Note_on_c, 0, 57, 117
2, 235260, Note_on_c, 0, 62, 117
2, 235260, Note_on_c, 0, 53, 117
2, 235315, Note_on_c, 0, 62, 0
2, 235315, Note_on_c, 0, 81, 0
2, 235315, Note_on_c, 0, 69, 0
2, 235315, Note_on_c, 0, 53, 0
2, 235315, Note_on_c, 0, 74, 0
2, 235315, Note_on_c, 0, 57, 0
2, 235320, Note_on_c, 0, 74, 117
2, 235320, Note_on_c, 0, 81, 117
2, 235320, Note_on_c, 0, 69, 117
2, 235320, Note_on_c, 0, 57, 117
2, 235320, Note_on_c, 0, 62, 117
2, 235320, Note_on_c, 0, 53, 117
2, 235375, Note_on_c, 0, 62, 0
2, 235375, Note_on_c, 0, 81, 0
2, 235375, Note_on_c, 0, 69, 0
2, 235375, Note_on_c, 0, 53, 0
2, 235375, Note_on_c, 0, 74, 0
2, 235375, Note_on_c, 0, 57, 0
2, 235440, Note_on_c, 0, 86, 117
2, 235440, Note_on_c, 0, 89, 117
2, 235440, Note_on_c, 0, 93, 117
2, 235440, Note_on_c, 0, 81, 117
2, 235440, Note_on_c, 0, 45, 117
2, 235440, Note_on_c, 0, 50, 117
2, 235440, Note_on_c, 0, 38, 117
2, 235495, Note_on_c, 0, 38, 0
2, 235495, Note_on_c, 0, 89, 0
2, 235495, Note_on_c, 0, 50, 0
2, 235495, Note_on_c, 0, 93, 0
2, 235495, Note_on_c, 0, 45, 0
2, 235495, Note_on_c, 0, 86, 0
2, 235495, Note_on_c, 0, 81, 0
2, 235620, Note_on_c, 0, 74, 117
2, 235620, Note_on_c, 0, 81, 117
2, 235620, Note_on_c, 0, 69, 117
2, 235620, Note_on_c, 0, 57, 117
2, 235620, Note_on_c, 0, 62, 117
2, 235620, Note_on_c, 0, 53, 117
2, 235675, Note_on_c, 0, 62, 0
2, 235675, Note_on_c, 0, 81, 0
2, 235675, Note_on_c, 0, 69, 0
2, 235675, Note_on_c, 0, 53, 0
2, 235675, Note_on_c, 0, 74, 0
2, 235675, Note_on_c, 0, 57, 0
2, 235680, Note_on_c, 0, 74, 117
2, 235680, Note_on_c, 0, 81, 117
2, 235680, Note_on_c, 0, 69, 117
2, 235680, Note_on_c, 0, 57, 117
2, 235680, Note_on_c, 0, 62, 117
2, 235680, Note_on_c, 0, 53, 117
2, 235735, Note_on_c, 0, 62, 0
2, 235735, Note_on_c, 0, 81, 0
2, 235735, Note_on_c, 0, 69, 0
2, 235735, Note_on_c, 0, 53, 0
2, 235735, Note_on_c, 0, 74, 0
2, 235735, Note_on_c, 0, 57, 0
2, 235800, Note_on_c, 0, 86, 117
2, 235800, Note_on_c, 0, 89, 117
2, 235800, Note_on_c, 0, 93, 117
2, 235800, Note_on_c, 0, 81, 117
2, 235800, Note_on_c, 0, 45, 117
2, 235800, Note_on_c, 0, 50, 117
2, 235800, Note_on_c, 0, 38, 117
2, 235855, Note_on_c, 0, 38, 0
2, 235855, Note_on_c, 0, 89, 0
2, 235855, Note_on_c, 0, 50, 0
2, 235855, Note_on_c, 0, 93, 0
2, 235855, Note_on_c, 0, 45, 0
2, 235855, Note_on_c, 0, 86, 0
2, 235855, Note_on_c, 0, 81, 0
2, 235980, Note_on_c, 0, 74, 117
2, 235980, Note_on_c, 0, 81, 117
2, 235980, Note_on_c, 0, 69, 117
2, 235980, Note_on_c, 0, 57, 117
2, 235980, Note_on_c, 0, 62, 117
2, 235980, Note_on_c, 0, 53, 117
2, 236035, Note_on_c, 0, 62, 0
2, 236035, Note_on_c, 0, 81, 0
2, 236035, Note_on_c, 0, 69, 0
2, 236035, Note_on_c, 0, 53, 0
2, 236035, Note_on_c, 0, 74, 0
2, 236035, Note_on_c, 0, 57, 0
2, 236040, Note_on_c, 0, 74, 117
2, 236040, Note_on_c, 0, 81, 117
2, 236040, Note_on_c, 0, 69, 117
2, 236040, Note_on_c, 0, 57, 117
2, 236040, Note_on_c, 0, 62, 117
2, 236040, Note_on_c, 0, 53, 117
2, 236095, Note_on_c, 0, 62, 0
2, 236095, Note_on_c, 0, 81, 0
2, 236095, Note_on_c, 0, 69, 0
2, 236095, Note_on_c, 0, 53, 0
2, 236095, Note_on_c, 0, 74, 0
2, 236095, Note_on_c, 0, 57, 0
2, 236160, Note_on_c, 0, 86, 117
2, 236160, Note_on_c, 0, 89, 117
2, 236160, Note_on_c, 0, 93, 117
2, 236160, Note_on_c, 0, 81, 117
2, 236160, Note_on_c, 0, 41, 117
2, 236160, Note_on_c, 0, 45, 117
2, 236160, Note_on_c, 0, 38, 117
2, 236215, Note_on_c, 0, 38, 0
2, 236215, Note_on_c, 0, 89, 0
2, 236215, Note_on_c, 0, 45, 0
2, 236215, Note_on_c, 0, 93, 0
2, 236215, Note_on_c, 0, 41, 0
2, 236215, Note_on_c, 0, 86, 0
2, 236215, Note_on_c, 0, 81, 0
2, 236220, Note_on_c, 0, 50, 117
2, 236275, Note_on_c, 0, 50, 0
2, 236280, Note_on_c, 0, 41, 117
2, 236280, Note_on_c, 0, 45, 117
2, 236280, Note_on_c, 0, 38, 117
2, 236335, Note_on_c, 0, 38, 0
2, 236335, Note_on_c, 0, 41, 0
2, 236335, Note_on_c, 0, 45, 0
2, 236340, Note_on_c, 0, 81, 117
2, 236340, Note_on_c, 0, 69, 117
2, 236340, Note_on_c, 0, 50, 117
2, 236395, Note_on_c, 0, 50, 0
2, 236395, Note_on_c, 0, 81, 0
2, 236395, Note_on_c, 0, 69, 0
2, 236400, Note_on_c, 0, 81, 117
2, 236400, Note_on_c, 0, 69, 117
2, 236400, Note_on_c, 0, 41, 117
2, 236400, Note_on_c, 0, 45, 117
2, 236400, Note_on_c, 0, 38, 117
2, 236455, Note_on_c, 0, 38, 0
2, 236455, Note_on_c, 0, 41, 0
2, 236455, Note_on_c, 0, 69, 0
2, 236455, Note_on_c, 0, 81, 0
2, 236455, Note_on_c, 0, 45, 0
2, 236460, Note_on_c, 0, 50, 117
2, 236515, Note_on_c, 0, 50, 0
2, 236520, Note_on_c, 0, 86, 117
2, 236520, Note_on_c, 0, 74, 117
2, 236520, Note_on_c, 0, 41, 117
2, 236520, Note_on_c, 0, 45, 117
2, 236520, Note_on_c, 0, 50, 117
2, 236520, Note_on_c, 0, 38, 117
2, 236575, Note_on_c, 0, 38, 0
2, 236575, Note_on_c, 0, 50, 0
2, 236575, Note_on_c, 0, 41, 0
2, 236575, Note_on_c, 0, 74, 0
2, 236575, Note_on_c, 0, 86, 0
2, 236575, Note_on_c, 0, 45, 0
2, 236640, Note_on_c, 0, 88, 117
2, 236640, Note_on_c, 0, 76, 117
2, 236695, Note_on_c, 0, 76, 0
2, 236695, Note_on_c, 0, 88, 0
2, 236700, Note_on_c, 0, 57, 117
2, 236700, Note_on_c, 0, 62, 117
2, 236700, Note_on_c, 0, 53, 117
2, 236755, Note_on_c, 0, 62, 0
2, 236755, Note_on_c, 0, 57, 0
2, 236755, Note_on_c, 0, 53, 0
2, 236760, Note_on_c, 0, 89, 117
2, 236760, Note_on_c, 0, 77, 117
2, 236760, Note_on_c, 0, 57, 117
2, 236760, Note_on_c, 0, 62, 117
2, 236760, Note_on_c, 0, 53, 117
2, 236815, Note_on_c, 0, 62, 0
2, 236815, Note_on_c, 0, 77, 0
2, 236815, Note_on_c, 0, 53, 0
2, 236815, Note_on_c, 0, 89, 0
2, 236815, Note_on_c, 0, 57, 0
2, 236880, Note_on_c, 0, 88, 117
2, 236880, Note_on_c, 0, 76, 117
2, 236880, Note_on_c, 0, 45, 117
2, 236880, Note_on_c, 0, 50, 117
2, 236880, Note_on_c, 0, 38, 117
2, 236935, Note_on_c, 0, 38, 0
2, 236935, Note_on_c, 0, 45, 0
2, 236935, Note_on_c, 0, 76, 0
2, 236935, Note_on_c, 0, 88, 0
2, 236935, Note_on_c, 0, 50, 0
2, 237000, Note_on_c, 0, 89, 117
2, 237000, Note_on_c, 0, 77, 117
2, 237055, Note_on_c, 0, 77, 0
2, 237055, Note_on_c, 0, 89, 0
2, 237060, Note_on_c, 0, 57, 117
2, 237060, Note_on_c, 0, 62, 117
2, 237060, Note_on_c, 0, 53, 117
2, 237115, Note_on_c, 0, 62, 0
2, 237115, Note_on_c, 0, 57, 0
2, 237115, Note_on_c, 0, 53, 0
2, 237120, Note_on_c, 0, 91, 117
2, 237120, Note_on_c, 0, 79, 117
2, 237120, Note_on_c, 0, 57, 117
2, 237120, Note_on_c, 0, 62, 117
2, 237120, Note_on_c, 0, 53, 117
2, 237175, Note_on_c, 0, 62, 0
2, 237175, Note_on_c, 0, 79, 0
2, 237175, Note_on_c, 0, 53, 0
2, 237175, Note_on_c, 0, 91, 0
2, 237175, Note_on_c, 0, 57, 0
2, 237240, Note_on_c, 0, 89, 117
2, 237240, Note_on_c, 0, 77, 117
2, 237240, Note_on_c, 0, 45, 117
2, 237240, Note_on_c, 0, 50, 117
2, 237240, Note_on_c, 0, 38, 117
2, 237295, Note_on_c, 0, 38, 0
2, 237295, Note_on_c, 0, 45, 0
2, 237295, Note_on_c, 0, 77, 0
2, 237295, Note_on_c, 0, 89, 0
2, 237295, Note_on_c, 0, 50, 0
2, 237360, Note_on_c, 0, 88, 117
2, 237360, Note_on_c, 0, 76, 117
2, 237415, Note_on_c, 0, 76, 0
2, 237415, Note_on_c, 0, 88, 0
2, 237420, Note_on_c, 0, 57, 117
2, 237420, Note_on_c, 0, 62, 117
2, 237420, Note_on_c, 0, 53, 117
2, 237475, Note_on_c, 0, 62, 0
2, 237475, Note_on_c, 0, 57, 0
2, 237475, Note_on_c, 0, 53, 0
2, 237480, Note_on_c, 0, 86, 117
2, 237480, Note_on_c, 0, 74, 117
2, 237480, Note_on_c, 0, 57, 117
2, 237480, Note_on_c, 0, 62, 117
2, 237480, Note_on_c, 0, 53, 117
2, 237535, Note_on_c, 0, 62, 0
2, 237535, Note_on_c, 0, 74, 0
2, 237535, Note_on_c, 0, 53, 0
2, 237535, Note_on_c, 0, 86, 0
2, 237535, Note_on_c, 0, 57, 0
2, 237600, Note_on_c, 0, 94, 117
2, 237600, Note_on_c, 0, 82, 117
2, 237600, Note_on_c, 0, 45, 117
2, 237600, Note_on_c, 0, 50, 117
2, 237600, Note_on_c, 0, 38, 117
2, 237655, Note_on_c, 0, 38, 0
2, 237655, Note_on_c, 0, 45, 0
2, 237655, Note_on_c, 0, 82, 0
2, 237655, Note_on_c, 0, 94, 0
2, 237655, Note_on_c, 0, 50, 0
2, 237720, Note_on_c, 0, 93, 95
2, 237720, Note_on_c, 0, 81, 95
2, 237775, Note_on_c, 0, 81, 0
2, 237775, Note_on_c, 0, 93, 0
2, 237780, Note_on_c, 0, 57, 95
2, 237780, Note_on_c, 0, 62, 95
2, 237780, Note_on_c, 0, 53, 95
2, 237835, Note_on_c, 0, 62, 0
2, 237835, Note_on_c, 0, 57, 0
2, 237835, Note_on_c, 0, 53, 0
2, 237840, Note_on_c, 0, 91, 95
2, 237840, Note_on_c, 0, 79, 95
2, 237840, Note_on_c, 0, 57, 95
2, 237840, Note_on_c, 0, 62, 95
2, 237840, Note_on_c, 0, 53, 95
2, 237895, Note_on_c, 0, 62, 0
2, 237895, Note_on_c, 0, 79, 0
2, 237895, Note_on_c, 0, 53, 0
2, 237895, Note_on_c, 0, 91, 0
2, 237895, Note_on_c, 0, 57, 0
2, 237960, Note_on_c, 0, 89, 117
2, 237960, Note_on_c, 0, 77, 117
2, 237960, Note_on_c, 0, 45, 117
2, 237960, Note_on_c, 0, 50, 117
2, 237960, Note_on_c, 0, 38, 117
2, 238015, Note_on_c, 0, 38, 0
2, 238015, Note_on_c, 0, 45, 0
2, 238015, Note_on_c, 0, 77, 0
2, 238015, Note_on_c, 0, 89, 0
2, 238015, Note_on_c, 0, 50, 0
2, 238080, Note_on_c, 0, 88, 95
2, 238080, Note_on_c, 0, 76, 95
2, 238135, Note_on_c, 0, 76, 0
2, 238135, Note_on_c, 0, 88, 0
2, 238140, Note_on_c, 0, 57, 95
2, 238140, Note_on_c, 0, 62, 95
2, 238140, Note_on_c, 0, 53, 95
2, 238195, Note_on_c, 0, 62, 0
2, 238195, Note_on_c, 0, 57, 0
2, 238195, Note_on_c, 0, 53, 0
2, 238200, Note_on_c, 0, 86, 95
2, 238200, Note_on_c, 0, 74, 95
2, 238200, Note_on_c, 0, 57, 95
2, 238200, Note_on_c, 0, 62, 95
2, 238200, Note_on_c, 0, 53, 95
2, 238255, Note_on_c, 0, 62, 0
2, 238255, Note_on_c, 0, 74, 0
2, 238255, Note_on_c, 0, 53, 0
2, 238255, Note_on_c, 0, 86, 0
2, 238255, Note_on_c, 0, 57, 0
2, 238320, Note_on_c, 0, 85, 117
2, 238320, Note_on_c, 0, 73, 117
2, 238320, Note_on_c, 0, 45, 117
2, 238320, Note_on_c, 0, 50, 117
2, 238320, Note_on_c, 0, 38, 117
2, 238375, Note_on_c, 0, 38, 0
2, 238375, Note_on_c, 0, 45, 0
2, 238375, Note_on_c, 0, 73, 0
2, 238375, Note_on_c, 0, 85, 0
2, 238375, Note_on_c, 0, 50, 0
2, 238440, Note_on_c, 0, 86, 95
2, 238440, Note_on_c, 0, 74, 95
2, 238495, Note_on_c, 0, 74, 0
2, 238495, Note_on_c, 0, 86, 0
2, 238500, Note_on_c, 0, 57, 95
2, 238500, Note_on_c, 0, 62, 95
2, 238500, Note_on_c, 0, 53, 95
2, 238555, Note_on_c, 0, 62, 0
2, 238555, Note_on_c, 0, 57, 0
2, 238555, Note_on_c, 0, 53, 0
2, 238560, Note_on_c, 0, 88, 95
2, 238560, Note_on_c, 0, 76, 95
2, 238560, Note_on_c, 0, 57, 95
2, 238560, Note_on_c, 0, 62, 95
2, 238560, Note_on_c, 0, 53, 95
2, 238615, Note_on_c, 0, 62, 0
2, 238615, Note_on_c, 0, 76, 0
2, 238615, Note_on_c, 0, 53, 0
2, 238615, Note_on_c, 0, 88, 0
2, 238615, Note_on_c, 0, 57, 0
2, 238680, Note_on_c, 0, 86, 117
2, 238680, Note_on_c, 0, 74, 117
2, 238680, Note_on_c, 0, 45, 117
2, 238680, Note_on_c, 0, 50, 117
2, 238680, Note_on_c, 0, 38, 117
2, 238735, Note_on_c, 0, 38, 0
2, 238735, Note_on_c, 0, 45, 0
2, 238735, Note_on_c, 0, 74, 0
2, 238735, Note_on_c, 0, 86, 0
2, 238735, Note_on_c, 0, 50, 0
2, 238800, Note_on_c, 0, 85, 95
2, 238800, Note_on_c, 0, 73, 95
2, 238855, Note_on_c, 0, 73, 0
2, 238855, Note_on_c, 0, 85, 0
2, 238860, Note_on_c, 0, 57, 95
2, 238860, Note_on_c, 0, 62, 95
2, 238860, Note_on_c, 0, 53, 95
2, 238915, Note_on_c, 0, 62, 0
2, 238915, Note_on_c, 0, 57, 0
2, 238915, Note_on_c, 0, 53, 0
2, 238920, Note_on_c, 0, 86, 95
2, 238920, Note_on_c, 0, 74, 95
2, 238920, Note_on_c, 0, 57, 95
2, 238920, Note_on_c, 0, 62, 95
2, 238920, Note_on_c, 0, 53, 95
2, 238975, Note_on_c, 0, 62, 0
2, 238975, Note_on_c, 0, 74, 0
2, 238975, Note_on_c, 0, 53, 0
2, 238975, Note_on_c, 0, 86, 0
2, 238975, Note_on_c, 0, 57, 0
2, 239040, Note_on_c, 0, 94, 117
2, 239040, Note_on_c, 0, 82, 117
2, 239040, Note_on_c, 0, 45, 117
2, 239040, Note_on_c, 0, 50, 117
2, 239040, Note_on_c, 0, 38, 117
2, 239095, Note_on_c, 0, 38, 0
2, 239095, Note_on_c, 0, 45, 0
2, 239095, Note_on_c, 0, 82, 0
2, 239095, Note_on_c, 0, 94, 0
2, 239095, Note_on_c, 0, 50, 0
2, 239160, Note_on_c, 0, 93, 95
2, 239160, Note_on_c, 0, 81, 95
2, 239215, Note_on_c, 0, 81, 0
2, 239215, Note_on_c, 0, 93, 0
2, 239220, Note_on_c, 0, 57, 95
2, 239220, Note_on_c, 0, 62, 95
2, 239220, Note_on_c, 0, 53, 95
2, 239275, Note_on_c, 0, 62, 0
2, 239275, Note_on_c, 0, 57, 0
2, 239275, Note_on_c, 0, 53, 0
2, 239280, Note_on_c, 0, 91, 95
2, 239280, Note_on_c, 0, 79, 95
2, 239280, Note_on_c, 0, 57, 95
2, 239280, Note_on_c, 0, 62, 95
2, 239280, Note_on_c, 0, 53, 95
2, 239335, Note_on_c, 0, 62, 0
2, 239335, Note_on_c, 0, 79, 0
2, 239335, Note_on_c, 0, 53, 0
2, 239335, Note_on_c, 0, 91, 0
2, 239335, Note_on_c, 0, 57, 0
2, 239400, Note_on_c, 0, 89, 117
2, 239400, Note_on_c, 0, 77, 117
2, 239400, Note_on_c, 0, 45, 117
2, 239400, Note_on_c, 0, 50, 117
2, 239400, Note_on_c, 0, 38, 117
2, 239455, Note_on_c, 0, 38, 0
2, 239455, Note_on_c, 0, 45, 0
2, 239455, Note_on_c, 0, 77, 0
2, 239455, Note_on_c, 0, 89, 0
2, 239455, Note_on_c, 0, 50, 0
2, 239520, Note_on_c, 0, 88, 95
2, 239520, Note_on_c, 0, 76, 95
2, 239575, Note_on_c, 0, 76, 0
2, 239575, Note_on_c, 0, 88, 0
2, 239580, Note_on_c, 0, 57, 95
2, 239580, Note_on_c, 0, 62, 95
2, 239580, Note_on_c, 0, 53, 95
2, 239635, Note_on_c, 0, 62, 0
2, 239635, Note_on_c, 0, 57, 0
2, 239635, Note_on_c, 0, 53, 0
2, 239640, Note_on_c, 0, 86, 95
2, 239640, Note_on_c, 0, 74, 95
2, 239640, Note_on_c, 0, 57, 95
2, 239640, Note_on_c, 0, 62, 95
2, 239640, Note_on_c, 0, 53, 95
2, 239695, Note_on_c, 0, 62, 0
2, 239695, Note_on_c, 0, 74, 0
2, 239695, Note_on_c, 0, 53, 0
2, 239695, Note_on_c, 0, 86, 0
2, 239695, Note_on_c, 0, 57, 0
2, 239760, Note_on_c, 0, 85, 117
2, 239760, Note_on_c, 0, 73, 117
2, 239760, Note_on_c, 0, 45, 117
2, 239760, Note_on_c, 0, 50, 117
2, 239760, Note_on_c, 0, 38, 117
2, 239815, Note_on_c, 0, 38, 0
2, 239815, Note_on_c, 0, 45, 0
2, 239815, Note_on_c, 0, 73, 0
2, 239815, Note_on_c, 0, 85, 0
2, 239815, Note_on_c, 0, 50, 0
2, 239880, Note_on_c, 0, 86, 95
2, 239880, Note_on_c, 0, 74, 95
2, 239935, Note_on_c, 0, 74, 0
2, 239935, Note_on_c, 0, 86, 0
2, 239940, Note_on_c, 0, 57, 95
2, 239940, Note_on_c, 0, 62, 95
2, 239940, Note_on_c, 0, 53, 95
2, 239995, Note_on_c, 0, 62, 0
2, 239995, Note_on_c, 0, 57, 0
2, 239995, Note_on_c, 0, 53, 0
2, 240000, Note_on_c, 0, 88, 95
2, 240000, Note_on_c, 0, 76, 95
2, 240000, Note_on_c, 0, 57, 95
2, 240000, Note_on_c, 0, 62, 95
2, 240000, Note_on_c, 0, 53, 95
2, 240055, Note_on_c, 0, 62, 0
2, 240055, Note_on_c, 0, 76, 0
2, 240055, Note_on_c, 0, 53, 0
2, 240055, Note_on_c, 0, 88, 0
2, 240055, Note_on_c, 0, 57, 0
2, 240120, Note_on_c, 0, 86, 117
2, 240120, Note_on_c, 0, 74, 117
2, 240120, Note_on_c, 0, 45, 117
2, 240120, Note_on_c, 0, 50, 117
2, 240120, Note_on_c, 0, 38, 117
2, 240175, Note_on_c, 0, 38, 0
2, 240175, Note_on_c, 0, 45, 0
2, 240175, Note_on_c, 0, 74, 0
2, 240175, Note_on_c, 0, 86, 0
2, 240175, Note_on_c, 0, 50, 0
2, 240240, Note_on_c, 0, 85, 95
2, 240240, Note_on_c, 0, 73, 95
2, 240295, Note_on_c, 0, 73, 0
2, 240295, Note_on_c, 0, 85, 0
2, 240300, Note_on_c, 0, 57, 95
2, 240300, Note_on_c, 0, 62, 95
2, 240300, Note_on_c, 0, 53, 95
2, 240355, Note_on_c, 0, 62, 0
2, 240355, Note_on_c, 0, 57, 0
2, 240355, Note_on_c, 0, 53, 0
2, 240360, Note_on_c, 0, 86, 95
2, 240360, Note_on_c, 0, 74, 95
2, 240360, Note_on_c, 0, 57, 95
2, 240360, Note_on_c, 0, 62, 95
2, 240360, Note_on_c, 0, 53, 95
2, 240415, Note_on_c, 0, 62, 0
2, 240415, Note_on_c, 0, 74, 0
2, 240415, Note_on_c, 0, 53, 0
2, 240415, Note_on_c, 0, 86, 0
2, 240415, Note_on_c, 0, 57, 0
2, 240480, Note_on_c, 0, 84, 95
2, 240480, Note_on_c, 0, 72, 95
2, 240480, Note_on_c, 0, 63, 95
2, 240480, Note_on_c, 0, 51, 95
2, 240535, Note_on_c, 0, 51, 0
2, 240535, Note_on_c, 0, 72, 0
2, 240535, Note_on_c, 0, 84, 0
2, 240535, Note_on_c, 0, 63, 0
2, 240600, Note_on_c, 0, 86, 95
2, 240600, Note_on_c, 0, 74, 95
2, 240600, Note_on_c, 0, 62, 95
2, 240600, Note_on_c, 0, 50, 95
2, 240655, Note_on_c, 0, 50, 0
2, 240655, Note_on_c, 0, 74, 0
2, 240655, Note_on_c, 0, 86, 0
2, 240655, Note_on_c, 0, 62, 0
2, 240720, Note_on_c, 0, 87, 95
2, 240720, Note_on_c, 0, 75, 95
2, 240720, Note_on_c, 0, 60, 95
2, 240720, Note_on_c, 0, 48, 95
2, 240775, Note_on_c, 0, 48, 0
2, 240775, Note_on_c, 0, 75, 0
2, 240775, Note_on_c, 0, 87, 0
2, 240775, Note_on_c, 0, 60, 0
2, 240840, Note_on_c, 0, 74, 95
2, 240840, Note_on_c, 0, 79, 95
2, 240840, Note_on_c, 0, 67, 95
2, 240840, Note_on_c, 0, 58, 95
2, 240840, Note_on_c, 0, 46, 95
2, 240895, Note_on_c, 0, 46, 0
2, 240895, Note_on_c, 0, 67, 0
2, 240895, Note_on_c, 0, 79, 0
2, 240895, Note_on_c, 0, 74, 0
2, 240895, Note_on_c, 0, 58, 0
2, 240960, Note_on_c, 0, 81, 95
2, 240960, Note_on_c, 0, 69, 95
2, 241015, Note_on_c, 0, 69, 0
2, 241015, Note_on_c, 0, 81, 0
2, 241020, Note_on_c, 0, 62, 95
2, 241020, Note_on_c, 0, 50, 95
2, 241075, Note_on_c, 0, 50, 0
2, 241075, Note_on_c, 0, 62, 0
2, 241080, Note_on_c, 0, 82, 95
2, 241080, Note_on_c, 0, 70, 95
2, 241080, Note_on_c, 0, 62, 95
2, 241080, Note_on_c, 0, 50, 95
2, 241135, Note_on_c, 0, 50, 0
2, 241135, Note_on_c, 0, 70, 0
2, 241135, Note_on_c, 0, 82, 0
2, 241135, Note_on_c, 0, 62, 0
2, 241200, Note_on_c, 0, 74, 95
2, 241200, Note_on_c, 0, 81, 95
2, 241200, Note_on_c, 0, 69, 95
2, 241200, Note_on_c, 0, 54, 95
2, 241200, Note_on_c, 0, 42, 95
2, 241255, Note_on_c, 0, 42, 0
2, 241255, Note_on_c, 0, 69, 0
2, 241255, Note_on_c, 0, 81, 0
2, 241255, Note_on_c, 0, 74, 0
2, 241255, Note_on_c, 0, 54, 0
2, 241320, Note_on_c, 0, 82, 95
2, 241320, Note_on_c, 0, 70, 95
2, 241375, Note_on_c, 0, 70, 0
2, 241375, Note_on_c, 0, 82, 0
2, 241380, Note_on_c, 0, 62, 95
2, 241380, Note_on_c, 0, 50, 95
2, 241435, Note_on_c, 0, 50, 0
2, 241435, Note_on_c, 0, 62, 0
2, 241440, Note_on_c, 0, 84, 95
2, 241440, Note_on_c, 0, 72, 95
2, 241440, Note_on_c, 0, 62, 95
2, 241440, Note_on_c, 0, 50, 95
2, 241495, Note_on_c, 0, 50, 0
2, 241495, Note_on_c, 0, 72, 0
2, 241495, Note_on_c, 0, 84, 0
2, 241495, Note_on_c, 0, 62, 0
2, 241560, Note_on_c, 0, 74, 95
2, 241560, Note_on_c, 0, 82, 95
2, 241560, Note_on_c, 0, 70, 95
2, 241560, Note_on_c, 0, 55, 95
2, 241560, Note_on_c, 0, 43, 95
2, 241615, Note_on_c, 0, 43, 0
2, 241615, Note_on_c, 0, 70, 0
2, 241615, Note_on_c, 0, 82, 0
2, 241615, Note_on_c, 0, 74, 0
2, 241615, Note_on_c, 0, 55, 0
2, 241680, Note_on_c, 0, 81, 95
2, 241680, Note_on_c, 0, 69, 95
2, 241735, Note_on_c, 0, 69, 0
2, 241735, Note_on_c, 0, 81, 0
2, 241740, Note_on_c, 0, 62, 95
2, 241740, Note_on_c, 0, 50, 95
2, 241795, Note_on_c, 0, 50, 0
2, 241795, Note_on_c, 0, 62, 0
2, 241800, Note_on_c, 0, 79, 95
2, 241800, Note_on_c, 0, 67, 95
2, 241800, Note_on_c, 0, 62, 95
2, 241800, Note_on_c, 0, 50, 95
2, 241855, Note_on_c, 0, 50, 0
2, 241855, Note_on_c, 0, 67, 0
2, 241855, Note_on_c, 0, 79, 0
2, 241855, Note_on_c, 0, 62, 0
2, 241920, Note_on_c, 0, 79, 117
2, 241920, Note_on_c, 0, 87, 117
2, 241920, Note_on_c, 0, 75, 117
2, 241920, Note_on_c, 0, 55, 117
2, 241920, Note_on_c, 0, 63, 117
2, 241920, Note_on_c, 0, 51, 117
2, 241975, Note_on_c, 0, 51, 0
2, 241975, Note_on_c, 0, 63, 0
2, 241975, Note_on_c, 0, 75, 0
2, 241975, Note_on_c, 0, 87, 0
2, 241975, Note_on_c, 0, 79, 0
2, 241975, Note_on_c, 0, 55, 0
2, 242040, Note_on_c, 0, 86, 95
2, 242040, Note_on_c, 0, 74, 95
2, 242040, Note_on_c, 0, 62, 95
2, 242040, Note_on_c, 0, 50, 95
2, 242095, Note_on_c, 0, 50, 0
2, 242095, Note_on_c, 0, 74, 0
2, 242095, Note_on_c, 0, 86, 0
2, 242095, Note_on_c, 0, 62, 0
2, 242160, Note_on_c, 0, 84, 95
2, 242160, Note_on_c, 0, 72, 95
2, 242160, Note_on_c, 0, 60, 95
2, 242160, Note_on_c, 0, 48, 95
2, 242215, Note_on_c, 0, 48, 0
2, 242215, Note_on_c, 0, 72, 0
2, 242215, Note_on_c, 0, 84, 0
2, 242215, Note_on_c, 0, 60, 0
2, 242280, Note_on_c, 0, 82, 117
2, 242280, Note_on_c, 0, 70, 117
2, 242280, Note_on_c, 0, 58, 117
2, 242280, Note_on_c, 0, 46, 117
2, 242335, Note_on_c, 0, 46, 0
2, 242335, Note_on_c, 0, 70, 0
2, 242335, Note_on_c, 0, 82, 0
2, 242335, Note_on_c, 0, 58, 0
2, 242400, Note_on_c, 0, 81, 95
2, 242400, Note_on_c, 0, 69, 95
2, 242400, Note_on_c, 0, 57, 95
2, 242400, Note_on_c, 0, 45, 95
2, 242455, Note_on_c, 0, 45, 0
2, 242455, Note_on_c, 0, 69, 0
2, 242455, Note_on_c, 0, 81, 0
2, 242455, Note_on_c, 0, 57, 0
2, 242520, Note_on_c, 0, 79, 95
2, 242520, Note_on_c, 0, 67, 95
2, 242520, Note_on_c, 0, 55, 95
2, 242520, Note_on_c, 0, 43, 95
2, 242575, Note_on_c, 0, 43, 0
2, 242575, Note_on_c, 0, 67, 0
2, 242575, Note_on_c, 0, 79, 0
2, 242575, Note_on_c, 0, 55, 0
2, 242640, Note_on_c, 0, 77, 117
2, 242640, Note_on_c, 0, 65, 117
2, 242640, Note_on_c, 0, 53, 117
2, 242640, Note_on_c, 0, 41, 117
2, 242695, Note_on_c, 0, 41, 0
2, 242695, Note_on_c, 0, 53, 0
2, 242695, Note_on_c, 0, 77, 0
2, 242695, Note_on_c, 0, 65, 0
2, 242760, Note_on_c, 0, 75, 95
2, 242760, Note_on_c, 0, 63, 95
2, 242815, Note_on_c, 0, 63, 0
2, 242815, Note_on_c, 0, 75, 0
2, 242820, Note_on_c, 0, 41, 95
2, 242820, Note_on_c, 0, 29, 95
2, 242875, Note_on_c, 0, 29, 0
2, 242875, Note_on_c, 0, 41, 0
2, 242880, Note_on_c, 0, 74, 95
2, 242880, Note_on_c, 0, 62, 95
2, 242880, Note_on_c, 0, 41, 95
2, 242880, Note_on_c, 0, 29, 95
2, 242935, Note_on_c, 0, 29, 0
2, 242935, Note_on_c, 0, 62, 0
2, 242935, Note_on_c, 0, 74, 0
2, 242935, Note_on_c, 0, 41, 0
2, 243000, Note_on_c, 0, 72, 117
2, 243000, Note_on_c, 0, 60, 117
2, 243000, Note_on_c, 0, 53, 117
2, 243000, Note_on_c, 0, 41, 117
2, 243055, Note_on_c, 0, 41, 0
2, 243055, Note_on_c, 0, 53, 0
2, 243055, Note_on_c, 0, 72, 0
2, 243055, Note_on_c, 0, 60, 0
2, 243120, Note_on_c, 0, 70, 95
2, 243120, Note_on_c, 0, 58, 95
2, 243175, Note_on_c, 0, 58, 0
2, 243175, Note_on_c, 0, 70, 0
2, 243180, Note_on_c, 0, 41, 95
2, 243180, Note_on_c, 0, 29, 95
2, 243235, Note_on_c, 0, 29, 0
2, 243235, Note_on_c, 0, 41, 0
2, 243240, Note_on_c, 0, 69, 95
2, 243240, Note_on_c, 0, 57, 95
2, 243240, Note_on_c, 0, 41, 95
2, 243240, Note_on_c, 0, 29, 95
2, 243295, Note_on_c, 0, 29, 0
2, 243295, Note_on_c, 0, 57, 0
2, 243295, Note_on_c, 0, 69, 0
2, 243295, Note_on_c, 0, 41, 0
2, 243360, Note_on_c, 0, 79, 117
2, 243360, Note_on_c, 0, 67, 117
2, 243360, Note_on_c, 0, 53, 117
2, 243360, Note_on_c, 0, 41, 117
2, 243415, Note_on_c, 0, 41, 0
2, 243415, Note_on_c, 0, 53, 0
2, 243415, Note_on_c, 0, 79, 0
2, 243415, Note_on_c, 0, 67, 0
2, 243480, Note_on_c, 0, 77, 95
2, 243480, Note_on_c, 0, 65, 95
2, 243535, Note_on_c, 0, 65, 0
2, 243535, Note_on_c, 0, 77, 0
2, 243540, Note_on_c, 0, 41, 95
2, 243540, Note_on_c, 0, 29, 95
2, 243595, Note_on_c, 0, 29, 0
2, 243595, Note_on_c, 0, 41, 0
2, 243600, Note_on_c, 0, 75, 95
2, 243600, Note_on_c, 0, 63, 95
2, 243600, Note_on_c, 0, 41, 95
2, 243600, Note_on_c, 0, 29, 95
2, 243655, Note_on_c, 0, 29, 0
2, 243655, Note_on_c, 0, 63, 0
2, 243655, Note_on_c, 0, 75, 0
2, 243655, Note_on_c, 0, 41, 0
2, 243720, Note_on_c, 0, 74, 117
2, 243720, Note_on_c, 0, 62, 117
2, 243720, Note_on_c, 0, 53, 117
2, 243720, Note_on_c, 0, 41, 117
2, 243775, Note_on_c, 0, 41, 0
2, 243775, Note_on_c, 0, 53, 0
2, 243775, Note_on_c, 0, 74, 0
2, 243775, Note_on_c, 0, 62, 0
2, 243840, Note_on_c, 0, 75, 95
2, 243840, Note_on_c, 0, 63, 95
2, 243895, Note_on_c, 0, 63, 0
2, 243895, Note_on_c, 0, 75, 0
2, 243900, Note_on_c, 0, 60, 95
2, 243900, Note_on_c, 0, 48, 95
2, 243955, Note_on_c, 0, 48, 0
2, 243955, Note_on_c, 0, 60, 0
2, 243960, Note_on_c, 0, 77, 95
2, 243960, Note_on_c, 0, 65, 95
2, 243960, Note_on_c, 0, 58, 95
2, 243960, Note_on_c, 0, 46, 95
2, 244015, Note_on_c, 0, 46, 0
2, 244015, Note_on_c, 0, 65, 0
2, 244015, Note_on_c, 0, 77, 0
2, 244015, Note_on_c, 0, 58, 0
2, 244080, Note_on_c, 0, 79, 117
2, 244080, Note_on_c, 0, 67, 117
2, 244080, Note_on_c, 0, 57, 117
2, 244080, Note_on_c, 0, 45, 117
2, 244135, Note_on_c, 0, 45, 0
2, 244135, Note_on_c, 0, 67, 0
2, 244135, Note_on_c, 0, 79, 0
2, 244135, Note_on_c, 0, 57, 0
2, 244200, Note_on_c, 0, 81, 95
2, 244200, Note_on_c, 0, 69, 95
2, 244255, Note_on_c, 0, 69, 0
2, 244255, Note_on_c, 0, 81, 0
2, 244260, Note_on_c, 0, 55, 95
2, 244260, Note_on_c, 0, 43, 95
2, 244315, Note_on_c, 0, 43, 0
2, 244315, Note_on_c, 0, 55, 0
2, 244320, Note_on_c, 0, 82, 95
2, 244320, Note_on_c, 0, 70, 95
2, 244320, Note_on_c, 0, 53, 95
2, 244320, Note_on_c, 0, 41, 95
2, 244375, Note_on_c, 0, 41, 0
2, 244375, Note_on_c, 0, 53, 0
2, 244375, Note_on_c, 0, 82, 0
2, 244375, Note_on_c, 0, 70, 0
2, 244440, Note_on_c, 0, 84, 117
2, 244440, Note_on_c, 0, 72, 117
2, 244440, Note_on_c, 0, 51, 95
2, 244440, Note_on_c, 0, 39, 95
2, 244495, Note_on_c, 0, 39, 0
2, 244495, Note_on_c, 0, 72, 0
2, 244495, Note_on_c, 0, 84, 0
2, 244495, Note_on_c, 0, 51, 0
2, 244560, Note_on_c, 0, 86, 95
2, 244560, Note_on_c, 0, 74, 95
2, 244615, Note_on_c, 0, 74, 0
2, 244615, Note_on_c, 0, 86, 0
2, 244620, Note_on_c, 0, 50, 95
2, 244620, Note_on_c, 0, 38, 95
2, 244675, Note_on_c, 0, 38, 0
2, 244675, Note_on_c, 0, 50, 0
2, 244680, Note_on_c, 0, 87, 95
2, 244680, Note_on_c, 0, 75, 95
2, 244680, Note_on_c, 0, 48, 95
2, 244680, Note_on_c, 0, 36, 95
2, 244735, Note_on_c, 0, 36, 0
2, 244735, Note_on_c, 0, 75, 0
2, 244735, Note_on_c, 0, 87, 0
2, 244735, Note_on_c, 0, 48, 0
2, 244800, Note_on_c, 0, 89, 95
2, 244800, Note_on_c, 0, 77, 95
2, 244800, Note_on_c, 0, 46, 95
2, 244800, Note_on_c, 0, 34, 95
2, 244855, Note_on_c, 0, 34, 0
2, 244855, Note_on_c, 0, 46, 0
2, 245160, Note_on_c, 0, 58, 53
2, 245215, Note_on_c, 0, 58, 0
2, 245340, Note_on_c, 0, 65, 53
2, 245395, Note_on_c, 0, 65, 0
2, 245400, Note_on_c, 0, 65, 53
2, 245455, Note_on_c, 0, 65, 0
2, 245520, Note_on_c, 0, 79, 69
2, 245520, Note_on_c, 0, 77, 69
2, 245520, Note_on_c, 0, 51, 59
2, 245700, Note_on_c, 0, 67, 65
2, 245700, Note_on_c, 0, 65, 65
2, 245755, Note_on_c, 0, 65, 0
2, 245755, Note_on_c, 0, 67, 0
2, 245760, Note_on_c, 0, 67, 71
2, 245760, Note_on_c, 0, 65, 71
2, 245815, Note_on_c, 0, 65, 0
2, 245815, Note_on_c, 0, 67, 0
2, 245875, Note_on_c, 0, 51, 0
2, 245875, Note_on_c, 0, 77, 0
2, 245875, Note_on_c, 0, 79, 0
2, 245880, Note_on_c, 0, 79, 85
2, 245880, Note_on_c, 0, 87, 85
2, 245880, Note_on_c, 0, 75, 85
2, 245880, Note_on_c, 0, 48, 77
2, 245995, Note_on_c, 0, 48, 0
2, 246060, Note_on_c, 0, 67, 83
2, 246060, Note_on_c, 0, 72, 83
2, 246060, Note_on_c, 0, 63, 83
2, 246115, Note_on_c, 0, 63, 0
2, 246115, Note_on_c, 0, 72, 0
2, 246115, Note_on_c, 0, 67, 0
2, 246120, Note_on_c, 0, 67, 90
2, 246120, Note_on_c, 0, 72, 90
2, 246120, Note_on_c, 0, 63, 90
2, 246175, Note_on_c, 0, 63, 0
2, 246175, Note_on_c, 0, 72, 0
2, 246175, Note_on_c, 0, 67, 0
2, 246235, Note_on_c, 0, 75, 0
2, 246235, Note_on_c, 0, 79, 0
2, 246235, Note_on_c, 0, 87, 0
2, 246240, Note_on_c, 0, 81, 101
2, 246240, Note_on_c, 0, 87, 101
2, 246240, Note_on_c, 0, 75, 101
2, 246240, Note_on_c, 0, 53, 99
2, 246340, Note_on_c, 0, 53, 0
2, 246420, Note_on_c, 0, 69, 102
2, 246420, Note_on_c, 0, 72, 102
2, 246420, Note_on_c, 0, 63, 102
2, 246475, Note_on_c, 0, 63, 0
2, 246475, Note_on_c, 0, 72, 0
2, 246475, Note_on_c, 0, 69, 0
2, 246480, Note_on_c, 0, 69, 108
2, 246480, Note_on_c, 0, 72, 108
2, 246480, Note_on_c, 0, 63, 108
2, 246535, Note_on_c, 0, 63, 0
2, 246535, Note_on_c, 0, 72, 0
2, 246535, Note_on_c, 0, 69, 0
2, 246595, Note_on_c, 0, 81, 0
2, 246595, Note_on_c, 0, 87, 0
2, 246595, Note_on_c, 0, 75, 0
2, 246600, Note_on_c, 0, 82, 117
2, 246600, Note_on_c, 0, 86, 117
2, 246600, Note_on_c, 0, 74, 117
2, 246600, Note_on_c, 0, 46, 117
2, 246655, Note_on_c, 0, 46, 0
2, 246780, Note_on_c, 0, 65, 89
2, 246780, Note_on_c, 0, 70, 89
2, 246780, Note_on_c, 0, 62, 89
2, 246835, Note_on_c, 0, 62, 0
2, 246835, Note_on_c, 0, 70, 0
2, 246835, Note_on_c, 0, 65, 0
2, 246840, Note_on_c, 0, 65, 76
2, 246840, Note_on_c, 0, 70, 76
2, 246840, Note_on_c, 0, 62, 76
2, 246895, Note_on_c, 0, 62, 0
2, 246895, Note_on_c, 0, 70, 0
2, 246895, Note_on_c, 0, 65, 0
2, 246955, Note_on_c, 0, 74, 0
2, 246955, Note_on_c, 0, 82, 0
2, 246955, Note_on_c, 0, 86, 0
2, 246960, Note_on_c, 0, 82, 117
2, 246960, Note_on_c, 0, 85, 117
2, 246960, Note_on_c, 0, 73, 117
2, 246960, Note_on_c, 0, 53, 57
2, 247015, Note_on_c, 0, 53, 0
2, 247140, Note_on_c, 0, 65, 51
2, 247140, Note_on_c, 0, 70, 51
2, 247140, Note_on_c, 0, 61, 51
2, 247195, Note_on_c, 0, 61, 0
2, 247195, Note_on_c, 0, 70, 0
2, 247195, Note_on_c, 0, 65, 0
2, 247200, Note_on_c, 0, 65, 38
2, 247200, Note_on_c, 0, 70, 38
2, 247200, Note_on_c, 0, 61, 38
2, 247255, Note_on_c, 0, 61, 0
2, 247255, Note_on_c, 0, 70, 0
2, 247255, Note_on_c, 0, 65, 0
2, 247315, Note_on_c, 0, 82, 0
2, 247315, Note_on_c, 0, 85, 0
2, 247315, Note_on_c, 0, 73, 0
2, 247320, Note_on_c, 0, 81, 117
2, 247320, Note_on_c, 0, 84, 117
2, 247320, Note_on_c, 0, 72, 117
2, 247320, Note_on_c, 0, 53, 19
2, 247375, Note_on_c, 0, 53, 0
2, 247500, Note_on_c, 0, 65, 13
2, 247500, Note_on_c, 0, 69, 13
2, 247500, Note_on_c, 0, 60, 13
2, 247555, Note_on_c, 0, 60, 0
2, 247555, Note_on_c, 0, 69, 0
2, 247555, Note_on_c, 0, 65, 0
2, 247560, Note_on_c, 0, 65, 1
2, 247560, Note_on_c, 0, 69, 1
2, 247560, Note_on_c, 0, 60, 1
2, 247615, Note_on_c, 0, 60, 0
2, 247615, Note_on_c, 0, 69, 0
2, 247615, Note_on_c, 0, 65, 0
2, 247675, Note_on_c, 0, 81, 0
2, 247675, Note_on_c, 0, 84, 0
2, 247675, Note_on_c, 0, 72, 0
2, 247680, Note_on_c, 0, 82, 53
2, 247680, Note_on_c, 0, 70, 53
2, 247680, Note_on_c, 0, 58, 1
2, 247680, Note_on_c, 0, 46, 1
2, 248400, Note_on_c, 0, 46, 0
2, 248400, Note_on_c, 0, 58, 0
2, 248400, Note_on_c, 0, 82, 0
2, 248400, Note_on_c, 0, 70, 0
2, 248400, Note_on_c, 0, 81, 53
2, 248400, Note_on_c, 0, 69, 53
2, 248400, Note_on_c, 0, 57, 1
2, 248400, Note_on_c, 0, 45, 1
2, 248755, Note_on_c, 0, 45, 0
2, 248755, Note_on_c, 0, 57, 0
2, 248755, Note_on_c, 0, 69, 0
2, 248760, Note_on_c, 0, 57, 1
2, 248815, Note_on_c, 0, 57, 0
2, 248900, Note_on_c, 0, 81, 0
2, 248940, Note_on_c, 0, 69, 1
2, 248995, Note_on_c, 0, 69, 0
2, 249000, Note_on_c, 0, 69, 1
2, 249055, Note_on_c, 0, 69, 0
2, 249120, Note_on_c, 0, 83, 74
2, 249120, Note_on_c, 0, 81, 74
2, 249120, Note_on_c, 0, 57, 19
2, 249175, Note_on_c, 0, 57, 0
2, 249300, Note_on_c, 0, 71, 26
2, 249300, Note_on_c, 0, 69, 26
2, 249355, Note_on_c, 0, 69, 0
2, 249355, Note_on_c, 0, 71, 0
2, 249360, Note_on_c, 0, 71, 39
2, 249360, Note_on_c, 0, 69, 39
2, 249415, Note_on_c, 0, 69, 0
2, 249415, Note_on_c, 0, 71, 0
2, 249475, Note_on_c, 0, 83, 0
2, 249475, Note_on_c, 0, 81, 0
2, 249480, Note_on_c, 0, 83, 96
2, 249480, Note_on_c, 0, 88, 96
2, 249480, Note_on_c, 0, 79, 96
2, 249480, Note_on_c, 0, 57, 58
2, 249535, Note_on_c, 0, 57, 0
2, 249660, Note_on_c, 0, 71, 65
2, 249660, Note_on_c, 0, 76, 65
2, 249660, Note_on_c, 0, 67, 65
2, 249715, Note_on_c, 0, 67, 0
2, 249715, Note_on_c, 0, 76, 0
2, 249715, Note_on_c, 0, 71, 0
2, 249720, Note_on_c, 0, 71, 78
2, 249720, Note_on_c, 0, 76, 78
2, 249720, Note_on_c, 0, 67, 78
2, 249775, Note_on_c, 0, 67, 0
2, 249775, Note_on_c, 0, 76, 0
2, 249775, Note_on_c, 0, 71, 0
2, 249835, Note_on_c, 0, 79, 0
2, 249835, Note_on_c, 0, 83, 0
2, 249835, Note_on_c, 0, 88, 0
2, 249840, Note_on_c, 0, 82, 117
2, 249840, Note_on_c, 0, 88, 117
2, 249840, Note_on_c, 0, 79, 117
2, 249840, Note_on_c, 0, 57, 97
2, 249895, Note_on_c, 0, 57, 0
2, 250020, Note_on_c, 0, 70, 104
2, 250020, Note_on_c, 0, 76, 104
2, 250020, Note_on_c, 0, 67, 104
2, 250075, Note_on_c, 0, 67, 0
2, 250075, Note_on_c, 0, 76, 0
2, 250075, Note_on_c, 0, 70, 0
2, 250080, Note_on_c, 0, 70, 117
2, 250080, Note_on_c, 0, 76, 117
2, 250080, Note_on_c, 0, 67, 117
2, 250135, Note_on_c, 0, 67, 0
2, 250135, Note_on_c, 0, 76, 0
2, 250135, Note_on_c, 0, 70, 0
2, 250195, Note_on_c, 0, 79, 0
2, 250195, Note_on_c, 0, 82, 0
2, 250195, Note_on_c, 0, 88, 0
2, 250200, Note_on_c, 0, 81, 47
2, 250200, Note_on_c, 0, 86, 47
2, 250200, Note_on_c, 0, 78, 47
2, 250200, Note_on_c, 0, 57, 98
2, 250255, Note_on_c, 0, 57, 0
2, 250380, Note_on_c, 0, 69, 91
2, 250380, Note_on_c, 0, 74, 91
2, 250380, Note_on_c, 0, 66, 91
2, 250435, Note_on_c, 0, 66, 0
2, 250435, Note_on_c, 0, 74, 0
2, 250435, Note_on_c, 0, 69, 0
2, 250440, Note_on_c, 0, 69, 78
2, 250440, Note_on_c, 0, 74, 78
2, 250440, Note_on_c, 0, 66, 78
2, 250495, Note_on_c, 0, 66, 0
2, 250495, Note_on_c, 0, 74, 0
2, 250495, Note_on_c, 0, 69, 0
2, 250555, Note_on_c, 0, 78, 0
2, 250555, Note_on_c, 0, 81, 0
2, 250555, Note_on_c, 0, 86, 0
2, 250560, Note_on_c, 0, 81, 24
2, 250560, Note_on_c, 0, 86, 24
2, 250560, Note_on_c, 0, 77, 24
2, 250560, Note_on_c, 0, 57, 59
2, 250615, Note_on_c, 0, 57, 0
2, 250740, Note_on_c, 0, 69, 52
2, 250740, Note_on_c, 0, 74, 52
2, 250740, Note_on_c, 0, 65, 52
2, 250795, Note_on_c, 0, 65, 0
2, 250795, Note_on_c, 0, 74, 0
2, 250795, Note_on_c, 0, 69, 0
2, 250800, Note_on_c, 0, 69, 39
2, 250800, Note_on_c, 0, 74, 39
2, 250800, Note_on_c, 0, 65, 39
2, 250855, Note_on_c, 0, 65, 0
2, 250855, Note_on_c, 0, 74, 0
2, 250855, Note_on_c, 0, 69, 0
2, 250915, Note_on_c, 0, 86, 0
2, 250915, Note_on_c, 0, 77, 0
2, 250915, Note_on_c, 0, 81, 0
2, 250920, Note_on_c, 0, 81, 1
2, 250920, Note_on_c, 0, 85, 1
2, 250920, Note_on_c, 0, 76, 1
2, 250920, Note_on_c, 0, 57, 20
2, 250975, Note_on_c, 0, 57, 0
2, 251100, Note_on_c, 0, 69, 13
2, 251100, Note_on_c, 0, 73, 13
2, 251100, Note_on_c, 0, 64, 13
2, 251155, Note_on_c, 0, 64, 0
2, 251155, Note_on_c, 0, 73, 0
2, 251155, Note_on_c, 0, 69, 0
2, 251160, Note_on_c, 0, 69, 1
2, 251160, Note_on_c, 0, 73, 1
2, 251160, Note_on_c, 0, 64, 1
2, 251215, Note_on_c, 0, 64, 0
2, 251215, Note_on_c, 0, 73, 0
2, 251215, Note_on_c, 0, 69, 0
2, 251275, Note_on_c, 0, 76, 0
2, 251275, Note_on_c, 0, 81, 0
2, 251275, Note_on_c, 0, 85, 0
2, 251280, Note_on_c, 0, 45, 1
2, 251640, Note_on_c, 0, 69, 37
2, 251695, Note_on_c, 0, 69, 0
2, 251820, Note_on_c, 0, 57, 37
2, 251875, Note_on_c, 0, 57, 0
2, 251880, Note_on_c, 0, 57, 37
2, 251935, Note_on_c, 0, 57, 0
2, 252000, Note_on_c, 0, 70, 37
2, 252000, Note_on_c, 0, 69, 37
2, 252055, Note_on_c, 0, 69, 0
2, 252055, Note_on_c, 0, 70, 0
2, 252180, Note_on_c, 0, 58, 37
2, 252180, Note_on_c, 0, 57, 37
2, 252235, Note_on_c, 0, 57, 0
2, 252235, Note_on_c, 0, 58, 0
2, 252240, Note_on_c, 0, 45, 0
2, 252240, Note_on_c, 0, 58, 37
2, 252240, Note_on_c, 0, 57, 37
2, 252295, Note_on_c, 0, 57, 0
2, 252295, Note_on_c, 0, 58, 0
2, 252360, Note_on_c, 0, 70, 37
2, 252360, Note_on_c, 0, 76, 37
2, 252360, Note_on_c, 0, 67, 37
2, 252360, Note_on_c, 0, 45, 37
2, 252415, Note_on_c, 0, 45, 0
2, 252415, Note_on_c, 0, 67, 0
2, 252415, Note_on_c, 0, 70, 0
2, 252415, Note_on_c, 0, 76, 0
2, 252540, Note_on_c, 0, 64, 37
2, 252540, Note_on_c, 0, 58, 37
2, 252540, Note_on_c, 0, 55, 37
2, 252595, Note_on_c, 0, 55, 0
2, 252595, Note_on_c, 0, 64, 0
2, 252595, Note_on_c, 0, 58, 0
2, 252600, Note_on_c, 0, 64, 37
2, 252600, Note_on_c, 0, 58, 37
2, 252600, Note_on_c, 0, 55, 37
2, 252655, Note_on_c, 0, 55, 0
2, 252655, Note_on_c, 0, 64, 0
2, 252655, Note_on_c, 0, 58, 0
2, 252720, Note_on_c, 0, 69, 37
2, 252720, Note_on_c, 0, 76, 37
2, 252720, Note_on_c, 0, 67, 37
2, 252720, Note_on_c, 0, 45, 37
2, 252775, Note_on_c, 0, 45, 0
2, 252775, Note_on_c, 0, 67, 0
2, 252775, Note_on_c, 0, 69, 0
2, 252775, Note_on_c, 0, 76, 0
2, 252900, Note_on_c, 0, 64, 37
2, 252900, Note_on_c, 0, 57, 37
2, 252900, Note_on_c, 0, 55, 37
2, 252955, Note_on_c, 0, 55, 0
2, 252955, Note_on_c, 0, 64, 0
2, 252955, Note_on_c, 0, 57, 0
2, 252960, Note_on_c, 0, 64, 37
2, 252960, Note_on_c, 0, 57, 37
2, 252960, Note_on_c, 0, 55, 37
2, 253015, Note_on_c, 0, 55, 0
2, 253015, Note_on_c, 0, 64, 0
2, 253015, Note_on_c, 0, 57, 0
2, 253080, Note_on_c, 0, 69, 37
2, 253080, Note_on_c, 0, 74, 37
2, 253080, Note_on_c, 0, 66, 37
2, 253080, Note_on_c, 0, 45, 37
2, 253135, Note_on_c, 0, 45, 0
2, 253135, Note_on_c, 0, 66, 0
2, 253135, Note_on_c, 0, 69, 0
2, 253135, Note_on_c, 0, 74, 0
2, 253260, Note_on_c, 0, 62, 37
2, 253260, Note_on_c, 0, 57, 37
2, 253260, Note_on_c, 0, 54, 37
2, 253315, Note_on_c, 0, 54, 0
2, 253315, Note_on_c, 0, 62, 0
2, 253315, Note_on_c, 0, 57, 0
2, 253320, Note_on_c, 0, 62, 37
2, 253320, Note_on_c, 0, 57, 37
2, 253320, Note_on_c, 0, 54, 37
2, 253375, Note_on_c, 0, 54, 0
2, 253375, Note_on_c, 0, 62, 0
2, 253375, Note_on_c, 0, 57, 0
2, 253440, Note_on_c, 0, 68, 37
2, 253440, Note_on_c, 0, 74, 37
2, 253440, Note_on_c, 0, 65, 37
2, 253440, Note_on_c, 0, 45, 37
2, 253495, Note_on_c, 0, 45, 0
2, 253495, Note_on_c, 0, 65, 0
2, 253495, Note_on_c, 0, 68, 0
2, 253495, Note_on_c, 0, 74, 0
2, 253620, Note_on_c, 0, 62, 37
2, 253620, Note_on_c, 0, 56, 37
2, 253620, Note_on_c, 0, 53, 37
2, 253675, Note_on_c, 0, 56, 0
2, 253675, Note_on_c, 0, 53, 0
2, 253675, Note_on_c, 0, 62, 0
2, 253680, Note_on_c, 0, 62, 37
2, 253680, Note_on_c, 0, 56, 37
2, 253680, Note_on_c, 0, 53, 37
2, 253735, Note_on_c, 0, 56, 0
2, 253735, Note_on_c, 0, 53, 0
2, 253735, Note_on_c, 0, 62, 0
2, 253800, Note_on_c, 0, 67, 37
2, 253800, Note_on_c, 0, 73, 37
2, 253800, Note_on_c, 0, 64, 37
2, 253800, Note_on_c, 0, 45, 37
2, 253855, Note_on_c, 0, 45, 0
2, 253855, Note_on_c, 0, 64, 0
2, 253855, Note_on_c, 0, 67, 0
2, 253855, Note_on_c, 0, 73, 0
2, 253980, Note_on_c, 0, 61, 37
2, 253980, Note_on_c, 0, 55, 37
2, 253980, Note_on_c, 0, 52, 37
2, 254035, Note_on_c, 0, 52, 0
2, 254035, Note_on_c, 0, 61, 0
2, 254035, Note_on_c, 0, 55, 0
2, 254040, Note_on_c, 0, 61, 37
2, 254040, Note_on_c, 0, 55, 37
2, 254040, Note_on_c, 0, 52, 37
2, 254095, Note_on_c, 0, 52, 0
2, 254095, Note_on_c, 0, 61, 0
2, 254095, Note_on_c, 0, 55, 0
2, 254160, Note_on_c, 0, 81, 37
2, 254160, Note_on_c, 0, 69, 37
2, 254160, Note_on_c, 0, 57, 37
2, 254215, Note_on_c, 0, 57, 0
2, 254340, Note_on_c, 0, 45, 37
2, 254395, Note_on_c, 0, 45, 0
2, 254400, Note_on_c, 0, 45, 37
2, 254455, Note_on_c, 0, 45, 0
2, 254515, Note_on_c, 0, 81, 0
2, 254515, Note_on_c, 0, 69, 0
2, 254520, Note_on_c, 0, 83, 48
2, 254520, Note_on_c, 0, 90, 48
2, 254520, Note_on_c, 0, 78, 48
2, 254520, Note_on_c, 0, 57, 41
2, 254575, Note_on_c, 0, 57, 0
2, 254700, Note_on_c, 0, 45, 45
2, 254755, Note_on_c, 0, 45, 0
2, 254760, Note_on_c, 0, 45, 47
2, 254815, Note_on_c, 0, 45, 0
2, 254875, Note_on_c, 0, 83, 0
2, 254880, Note_on_c, 0, 87, 60
2, 254880, Note_on_c, 0, 59, 52
2, 254880, Note_on_c, 0, 57, 52
2, 254935, Note_on_c, 0, 57, 0
2, 254935, Note_on_c, 0, 59, 0
2, 255060, Note_on_c, 0, 47, 56
2, 255060, Note_on_c, 0, 45, 56
2, 255115, Note_on_c, 0, 45, 0
2, 255115, Note_on_c, 0, 47, 0
2, 255120, Note_on_c, 0, 47, 58
2, 255120, Note_on_c, 0, 45, 58
2, 255175, Note_on_c, 0, 45, 0
2, 255175, Note_on_c, 0, 47, 0
2, 255235, Note_on_c, 0, 87, 0
2, 255240, Note_on_c, 0, 78, 0
2, 255240, Note_on_c, 0, 90, 0
2, 255240, Note_on_c, 0, 88, 71
2, 255240, Note_on_c, 0, 91, 71
2, 255240, Note_on_c, 0, 79, 71
2, 255240, Note_on_c, 0, 59, 64
2, 255240, Note_on_c, 0, 64, 64
2, 255240, Note_on_c, 0, 55, 64
2, 255295, Note_on_c, 0, 55, 0
2, 255295, Note_on_c, 0, 64, 0
2, 255295, Note_on_c, 0, 59, 0
2, 255420, Note_on_c, 0, 43, 67
2, 255475, Note_on_c, 0, 43, 0
2, 255480, Note_on_c, 0, 43, 69
2, 255535, Note_on_c, 0, 43, 0
2, 255595, Note_on_c, 0, 79, 0
2, 255595, Note_on_c, 0, 88, 0
2, 255595, Note_on_c, 0, 91, 0
2, 255600, Note_on_c, 0, 85, 83
2, 255600, Note_on_c, 0, 88, 83
2, 255600, Note_on_c, 0, 76, 83
2, 255600, Note_on_c, 0, 57, 75
2, 255600, Note_on_c, 0, 64, 75
2, 255600, Note_on_c, 0, 55, 75
2, 255655, Note_on_c, 0, 55, 0
2, 255655, Note_on_c, 0, 64, 0
2, 255655, Note_on_c, 0, 57, 0
2, 255780, Note_on_c, 0, 43, 79
2, 255835, Note_on_c, 0, 43, 0
2, 255840, Note_on_c, 0, 43, 81
2, 255895, Note_on_c, 0, 43, 0
2, 255955, Note_on_c, 0, 76, 0
2, 255955, Note_on_c, 0, 85, 0
2, 255955, Note_on_c, 0, 88, 0
2, 255960, Note_on_c, 0, 86, 94
2, 255960, Note_on_c, 0, 90, 94
2, 255960, Note_on_c, 0, 78, 94
2, 255960, Note_on_c, 0, 57, 87
2, 255960, Note_on_c, 0, 62, 87
2, 255960, Note_on_c, 0, 54, 87
2, 256015, Note_on_c, 0, 54, 0
2, 256015, Note_on_c, 0, 62, 0
2, 256015, Note_on_c, 0, 57, 0
2, 256140, Note_on_c, 0, 42, 90
2, 256195, Note_on_c, 0, 42, 0
2, 256200, Note_on_c, 0, 42, 92
2, 256255, Note_on_c, 0, 42, 0
2, 256315, Note_on_c, 0, 78, 0
2, 256315, Note_on_c, 0, 86, 0
2, 256315, Note_on_c, 0, 90, 0
2, 256320, Note_on_c, 0, 86, 106
2, 256320, Note_on_c, 0, 93, 106
2, 256320, Note_on_c, 0, 81, 106
2, 256320, Note_on_c, 0, 57, 98
2, 256320, Note_on_c, 0, 62, 98
2, 256320, Note_on_c, 0, 53, 98
2, 256375, Note_on_c, 0, 62, 0
2, 256375, Note_on_c, 0, 57, 0
2, 256375, Note_on_c, 0, 53, 0
2, 256500, Note_on_c, 0, 41, 102
2, 256555, Note_on_c, 0, 41, 0
2, 256560, Note_on_c, 0, 41, 104
2, 256615, Note_on_c, 0, 41, 0
2, 256675, Note_on_c, 0, 86, 0
2, 256675, Note_on_c, 0, 81, 0
2, 256680, Note_on_c, 0, 85, 113
2, 256680, Note_on_c, 0, 79, 113
2, 256680, Note_on_c, 0, 57, 109
2, 256680, Note_on_c, 0, 61, 109
2, 256680, Note_on_c, 0, 52, 109
2, 256735, Note_on_c, 0, 52, 0
2, 256735, Note_on_c, 0, 61, 0
2, 256735, Note_on_c, 0, 57, 0
2, 256860, Note_on_c, 0, 93, 0
2, 256860, Note_on_c, 0, 40, 113
2, 256915, Note_on_c, 0, 40, 0
2, 256915, Note_on_c, 0, 79, 0
2, 256915, Note_on_c, 0, 85, 0
2, 256920, Note_on_c, 0, 73, 115
2, 256920, Note_on_c, 0, 61, 115
2, 256920, Note_on_c, 0, 40, 117
2, 256975, Note_on_c, 0, 40, 0
2, 256975, Note_on_c, 0, 73, 0
2, 256975, Note_on_c, 0, 61, 0
2, 257040, Note_on_c, 0, 74, 117
2, 257040, Note_on_c, 0, 62, 117
2, 257040, Note_on_c, 0, 50, 117
2, 257040, Note_on_c, 0, 38, 117
2, 257095, Note_on_c, 0, 38, 0
2, 257095, Note_on_c, 0, 50, 0
2, 257220, Note_on_c, 0, 50, 117
2, 257220, Note_on_c, 0, 38, 117
2, 257275, Note_on_c, 0, 38, 0
2, 257275, Note_on_c, 0, 50, 0
2, 257275, Note_on_c, 0, 62, 0
2, 257275, Note_on_c, 0, 74, 0
2, 257280, Note_on_c, 0, 76, 117
2, 257280, Note_on_c, 0, 64, 117
2, 257280, Note_on_c, 0, 50, 117
2, 257280, Note_on_c, 0, 38, 117
2, 257335, Note_on_c, 0, 38, 0
2, 257335, Note_on_c, 0, 50, 0
2, 257335, Note_on_c, 0, 76, 0
2, 257335, Note_on_c, 0, 64, 0
2, 257340, Note_on_c, 0, 78, 117
2, 257340, Note_on_c, 0, 66, 117
2, 257395, Note_on_c, 0, 66, 0
2, 257395, Note_on_c, 0, 78, 0
2, 257400, Note_on_c, 0, 79, 117
2, 257400, Note_on_c, 0, 67, 117
2, 257400, Note_on_c, 0, 62, 117
2, 257400, Note_on_c, 0, 50, 117
2, 257455, Note_on_c, 0, 50, 0
2, 257455, Note_on_c, 0, 62, 0
2, 257455, Note_on_c, 0, 79, 0
2, 257455, Note_on_c, 0, 67, 0
2, 257580, Note_on_c, 0, 50, 117
2, 257580, Note_on_c, 0, 38, 117
2, 257635, Note_on_c, 0, 38, 0
2, 257635, Note_on_c, 0, 50, 0
2, 257640, Note_on_c, 0, 78, 117
2, 257640, Note_on_c, 0, 66, 117
2, 257640, Note_on_c, 0, 50, 117
2, 257640, Note_on_c, 0, 38, 117
2, 257695, Note_on_c, 0, 38, 0
2, 257695, Note_on_c, 0, 66, 0
2, 257695, Note_on_c, 0, 78, 0
2, 257700, Note_on_c, 0, 50, 0
2, 257760, Note_on_c, 0, 76, 117
2, 257760, Note_on_c, 0, 64, 117
2, 257760, Note_on_c, 0, 62, 117
2, 257760, Note_on_c, 0, 50, 117
2, 257815, Note_on_c, 0, 50, 0
2, 257815, Note_on_c, 0, 62, 0
2, 257815, Note_on_c, 0, 76, 0
2, 257815, Note_on_c, 0, 64, 0
2, 257940, Note_on_c, 0, 50, 117
2, 257940, Note_on_c, 0, 38, 117
2, 257995, Note_on_c, 0, 38, 0
2, 257995, Note_on_c, 0, 50, 0
2, 258000, Note_on_c, 0, 74, 117
2, 258000, Note_on_c, 0, 62, 117
2, 258000, Note_on_c, 0, 50, 117
2, 258000, Note_on_c, 0, 38, 117
2, 258055, Note_on_c, 0, 38, 0
2, 258055, Note_on_c, 0, 50, 0
2, 258055, Note_on_c, 0, 74, 0
2, 258055, Note_on_c, 0, 62, 0
2, 258120, Note_on_c, 0, 76, 117
2, 258120, Note_on_c, 0, 64, 117
2, 258120, Note_on_c, 0, 62, 117
2, 258120, Note_on_c, 0, 50, 117
2, 258175, Note_on_c, 0, 50, 0
2, 258175, Note_on_c, 0, 62, 0
2, 258175, Note_on_c, 0, 76, 0
2, 258175, Note_on_c, 0, 64, 0
2, 258300, Note_on_c, 0, 50, 117
2, 258300, Note_on_c, 0, 38, 117
2, 258355, Note_on_c, 0, 38, 0
2, 258355, Note_on_c, 0, 50, 0
2, 258360, Note_on_c, 0, 73, 117
2, 258360, Note_on_c, 0, 61, 117
2, 258360, Note_on_c, 0, 50, 117
2, 258360, Note_on_c, 0, 38, 117
2, 258415, Note_on_c, 0, 38, 0
2, 258415, Note_on_c, 0, 50, 0
2, 258415, Note_on_c, 0, 73, 0
2, 258415, Note_on_c, 0, 61, 0
2, 258480, Note_on_c, 0, 74, 117
2, 258480, Note_on_c, 0, 78, 117
2, 258480, Note_on_c, 0, 66, 117
2, 258480, Note_on_c, 0, 62, 117
2, 258480, Note_on_c, 0, 50, 117
2, 258535, Note_on_c, 0, 50, 0
2, 258535, Note_on_c, 0, 62, 0
2, 258660, Note_on_c, 0, 50, 117
2, 258660, Note_on_c, 0, 38, 117
2, 258715, Note_on_c, 0, 38, 0
2, 258715, Note_on_c, 0, 50, 0
2, 258715, Note_on_c, 0, 66, 0
2, 258715, Note_on_c, 0, 74, 0
2, 258715, Note_on_c, 0, 78, 0
2, 258720, Note_on_c, 0, 76, 117
2, 258720, Note_on_c, 0, 79, 117
2, 258720, Note_on_c, 0, 67, 117
2, 258720, Note_on_c, 0, 50, 117
2, 258720, Note_on_c, 0, 38, 117
2, 258775, Note_on_c, 0, 38, 0
2, 258775, Note_on_c, 0, 50, 0
2, 258775, Note_on_c, 0, 67, 0
2, 258775, Note_on_c, 0, 76, 0
2, 258775, Note_on_c, 0, 79, 0
2, 258780, Note_on_c, 0, 77, 117
2, 258780, Note_on_c, 0, 81, 117
2, 258780, Note_on_c, 0, 69, 117
2, 258835, Note_on_c, 0, 69, 0
2, 258835, Note_on_c, 0, 77, 0
2, 258835, Note_on_c, 0, 81, 0
2, 258840, Note_on_c, 0, 79, 117
2, 258840, Note_on_c, 0, 83, 117
2, 258840, Note_on_c, 0, 71, 117
2, 258840, Note_on_c, 0, 62, 117
2, 258840, Note_on_c, 0, 50, 117
2, 258895, Note_on_c, 0, 50, 0
2, 258895, Note_on_c, 0, 62, 0
2, 258895, Note_on_c, 0, 71, 0
2, 258895, Note_on_c, 0, 79, 0
2, 258895, Note_on_c, 0, 83, 0
2, 259020, Note_on_c, 0, 50, 117
2, 259020, Note_on_c, 0, 38, 117
2, 259075, Note_on_c, 0, 38, 0
2, 259075, Note_on_c, 0, 50, 0
2, 259080, Note_on_c, 0, 78, 117
2, 259080, Note_on_c, 0, 81, 117
2, 259080, Note_on_c, 0, 69, 117
2, 259080, Note_on_c, 0, 50, 117
2, 259080, Note_on_c, 0, 38, 117
2, 259135, Note_on_c, 0, 38, 0
2, 259135, Note_on_c, 0, 50, 0
2, 259135, Note_on_c, 0, 69, 0
2, 259135, Note_on_c, 0, 78, 0
2, 259135, Note_on_c, 0, 81, 0
2, 259200, Note_on_c, 0, 76, 117
2, 259200, Note_on_c, 0, 79, 117
2, 259200, Note_on_c, 0, 67, 117
2, 259200, Note_on_c, 0, 62, 117
2, 259200, Note_on_c, 0, 50, 117
2, 259255, Note_on_c, 0, 50, 0
2, 259255, Note_on_c, 0, 62, 0
2, 259255, Note_on_c, 0, 67, 0
2, 259255, Note_on_c, 0, 76, 0
2, 259255, Note_on_c, 0, 79, 0
2, 259380, Note_on_c, 0, 50, 117
2, 259380, Note_on_c, 0, 38, 117
2, 259435, Note_on_c, 0, 38, 0
2, 259435, Note_on_c, 0, 50, 0
2, 259440, Note_on_c, 0, 74, 117
2, 259440, Note_on_c, 0, 78, 117
2, 259440, Note_on_c, 0, 66, 117
2, 259440, Note_on_c, 0, 50, 117
2, 259440, Note_on_c, 0, 38, 117
2, 259495, Note_on_c, 0, 38, 0
2, 259495, Note_on_c, 0, 50, 0
2, 259495, Note_on_c, 0, 66, 0
2, 259495, Note_on_c, 0, 74, 0
2, 259495, Note_on_c, 0, 78, 0
2, 259560, Note_on_c, 0, 76, 117
2, 259560, Note_on_c, 0, 79, 117
2, 259560, Note_on_c, 0, 67, 117
2, 259560, Note_on_c, 0, 62, 117
2, 259560, Note_on_c, 0, 50, 117
2, 259615, Note_on_c, 0, 50, 0
2, 259615, Note_on_c, 0, 62, 0
2, 259615, Note_on_c, 0, 67, 0
2, 259615, Note_on_c, 0, 76, 0
2, 259615, Note_on_c, 0, 79, 0
2, 259740, Note_on_c, 0, 50, 117
2, 259740, Note_on_c, 0, 38, 117
2, 259795, Note_on_c, 0, 38, 0
2, 259795, Note_on_c, 0, 50, 0
2, 259800, Note_on_c, 0, 73, 117
2, 259800, Note_on_c, 0, 76, 117
2, 259800, Note_on_c, 0, 64, 117
2, 259800, Note_on_c, 0, 50, 117
2, 259800, Note_on_c, 0, 38, 117
2, 259855, Note_on_c, 0, 38, 0
2, 259855, Note_on_c, 0, 50, 0
2, 259855, Note_on_c, 0, 64, 0
2, 259855, Note_on_c, 0, 73, 0
2, 259855, Note_on_c, 0, 76, 0
2, 259920, Note_on_c, 0, 86, 117
2, 259920, Note_on_c, 0, 74, 117
2, 259920, Note_on_c, 0, 62, 117
2, 259920, Note_on_c, 0, 50, 117
2, 259975, Note_on_c, 0, 50, 0
2, 259975, Note_on_c, 0, 62, 0
2, 259975, Note_on_c, 0, 86, 0
2, 259975, Note_on_c, 0, 74, 0
2, 260040, Note_on_c, 0, 77, 117
2, 260040, Note_on_c, 0, 86, 117
2, 260040, Note_on_c, 0, 74, 117
2, 260095, Note_on_c, 0, 74, 0
2, 260095, Note_on_c, 0, 77, 0
2, 260095, Note_on_c, 0, 86, 0
2, 260100, Note_on_c, 0, 50, 117
2, 260100, Note_on_c, 0, 38, 117
2, 260155, Note_on_c, 0, 38, 0
2, 260155, Note_on_c, 0, 50, 0
2, 260160, Note_on_c, 0, 79, 117
2, 260160, Note_on_c, 0, 88, 117
2, 260160, Note_on_c, 0, 76, 117
2, 260160, Note_on_c, 0, 50, 117
2, 260160, Note_on_c, 0, 38, 117
2, 260215, Note_on_c, 0, 38, 0
2, 260215, Note_on_c, 0, 50, 0
2, 260215, Note_on_c, 0, 76, 0
2, 260215, Note_on_c, 0, 79, 0
2, 260215, Note_on_c, 0, 88, 0
2, 260220, Note_on_c, 0, 81, 117
2, 260220, Note_on_c, 0, 89, 117
2, 260220, Note_on_c, 0, 77, 117
2, 260275, Note_on_c, 0, 81, 0
2, 260275, Note_on_c, 0, 77, 0
2, 260275, Note_on_c, 0, 89, 0
2, 260280, Note_on_c, 0, 82, 117
2, 260280, Note_on_c, 0, 91, 117
2, 260280, Note_on_c, 0, 79, 117
2, 260280, Note_on_c, 0, 62, 117
2, 260280, Note_on_c, 0, 50, 117
2, 260335, Note_on_c, 0, 50, 0
2, 260335, Note_on_c, 0, 62, 0
2, 260335, Note_on_c, 0, 79, 0
2, 260335, Note_on_c, 0, 82, 0
2, 260335, Note_on_c, 0, 91, 0
2, 260400, Note_on_c, 0, 82, 117
2, 260400, Note_on_c, 0, 91, 117
2, 260400, Note_on_c, 0, 79, 117
2, 260455, Note_on_c, 0, 79, 0
2, 260455, Note_on_c, 0, 82, 0
2, 260455, Note_on_c, 0, 91, 0
2, 260460, Note_on_c, 0, 50, 117
2, 260460, Note_on_c, 0, 38, 117
2, 260515, Note_on_c, 0, 38, 0
2, 260515, Note_on_c, 0, 50, 0
2, 260520, Note_on_c, 0, 81, 117
2, 260520, Note_on_c, 0, 89, 117
2, 260520, Note_on_c, 0, 77, 117
2, 260520, Note_on_c, 0, 50, 117
2, 260520, Note_on_c, 0, 38, 117
2, 260575, Note_on_c, 0, 38, 0
2, 260575, Note_on_c, 0, 77, 0
2, 260575, Note_on_c, 0, 50, 0
2, 260575, Note_on_c, 0, 81, 0
2, 260575, Note_on_c, 0, 89, 0
2, 260640, Note_on_c, 0, 79, 117
2, 260640, Note_on_c, 0, 88, 117
2, 260640, Note_on_c, 0, 76, 117
2, 260640, Note_on_c, 0, 62, 117
2, 260640, Note_on_c, 0, 50, 117
2, 260695, Note_on_c, 0, 50, 0
2, 260695, Note_on_c, 0, 62, 0
2, 260695, Note_on_c, 0, 76, 0
2, 260695, Note_on_c, 0, 79, 0
2, 260695, Note_on_c, 0, 88, 0
2, 260760, Note_on_c, 0, 79, 117
2, 260760, Note_on_c, 0, 88, 117
2, 260760, Note_on_c, 0, 76, 117
2, 260815, Note_on_c, 0, 76, 0
2, 260815, Note_on_c, 0, 79, 0
2, 260815, Note_on_c, 0, 88, 0
2, 260820, Note_on_c, 0, 50, 117
2, 260820, Note_on_c, 0, 38, 117
2, 260875, Note_on_c, 0, 38, 0
2, 260875, Note_on_c, 0, 50, 0
2, 260880, Note_on_c, 0, 77, 117
2, 260880, Note_on_c, 0, 86, 117
2, 260880, Note_on_c, 0, 74, 117
2, 260880, Note_on_c, 0, 50, 117
2, 260880, Note_on_c, 0, 38, 117
2, 260935, Note_on_c, 0, 38, 0
2, 260935, Note_on_c, 0, 50, 0
2, 260935, Note_on_c, 0, 74, 0
2, 260935, Note_on_c, 0, 77, 0
2, 260935, Note_on_c, 0, 86, 0
2, 261000, Note_on_c, 0, 79, 117
2, 261000, Note_on_c, 0, 88, 117
2, 261000, Note_on_c, 0, 76, 117
2, 261000, Note_on_c, 0, 62, 117
2, 261000, Note_on_c, 0, 50, 117
2, 261055, Note_on_c, 0, 50, 0
2, 261055, Note_on_c, 0, 62, 0
2, 261055, Note_on_c, 0, 76, 0
2, 261055, Note_on_c, 0, 79, 0
2, 261055, Note_on_c, 0, 88, 0
2, 261120, Note_on_c, 0, 79, 117
2, 261120, Note_on_c, 0, 88, 117
2, 261120, Note_on_c, 0, 76, 117
2, 261175, Note_on_c, 0, 76, 0
2, 261175, Note_on_c, 0, 79, 0
2, 261175, Note_on_c, 0, 88, 0
2, 261180, Note_on_c, 0, 50, 117
2, 261180, Note_on_c, 0, 38, 117
2, 261235, Note_on_c, 0, 38, 0
2, 261235, Note_on_c, 0, 50, 0
2, 261240, Note_on_c, 0, 76, 117
2, 261240, Note_on_c, 0, 85, 117
2, 261240, Note_on_c, 0, 73, 117
2, 261240, Note_on_c, 0, 50, 117
2, 261240, Note_on_c, 0, 38, 117
2, 261295, Note_on_c, 0, 38, 0
2, 261295, Note_on_c, 0, 50, 0
2, 261295, Note_on_c, 0, 73, 0
2, 261295, Note_on_c, 0, 76, 0
2, 261295, Note_on_c, 0, 85, 0
2, 261360, Note_on_c, 0, 86, 117
2, 261360, Note_on_c, 0, 89, 117
2, 261360, Note_on_c, 0, 77, 117
2, 261360, Note_on_c, 0, 62, 117
2, 261360, Note_on_c, 0, 50, 117
2, 261415, Note_on_c, 0, 50, 0
2, 261415, Note_on_c, 0, 77, 0
2, 261415, Note_on_c, 0, 62, 0
2, 261415, Note_on_c, 0, 86, 0
2, 261415, Note_on_c, 0, 89, 0
2, 261480, Note_on_c, 0, 86, 117
2, 261480, Note_on_c, 0, 89, 117
2, 261480, Note_on_c, 0, 77, 117
2, 261535, Note_on_c, 0, 86, 0
2, 261535, Note_on_c, 0, 77, 0
2, 261535, Note_on_c, 0, 89, 0
2, 261540, Note_on_c, 0, 50, 117
2, 261540, Note_on_c, 0, 38, 117
2, 261595, Note_on_c, 0, 38, 0
2, 261595, Note_on_c, 0, 50, 0
2, 261600, Note_on_c, 0, 88, 117
2, 261600, Note_on_c, 0, 91, 117
2, 261600, Note_on_c, 0, 79, 117
2, 261600, Note_on_c, 0, 50, 117
2, 261600, Note_on_c, 0, 38, 117
2, 261655, Note_on_c, 0, 38, 0
2, 261655, Note_on_c, 0, 50, 0
2, 261655, Note_on_c, 0, 79, 0
2, 261655, Note_on_c, 0, 88, 0
2, 261655, Note_on_c, 0, 91, 0
2, 261660, Note_on_c, 0, 89, 117
2, 261660, Note_on_c, 0, 93, 117
2, 261660, Note_on_c, 0, 81, 117
2, 261715, Note_on_c, 0, 81, 0
2, 261715, Note_on_c, 0, 89, 0
2, 261715, Note_on_c, 0, 93, 0
2, 261720, Note_on_c, 0, 91, 117
2, 261720, Note_on_c, 0, 94, 117
2, 261720, Note_on_c, 0, 82, 117
2, 261720, Note_on_c, 0, 62, 117
2, 261720, Note_on_c, 0, 50, 117
2, 261775, Note_on_c, 0, 50, 0
2, 261775, Note_on_c, 0, 62, 0
2, 261775, Note_on_c, 0, 82, 0
2, 261775, Note_on_c, 0, 91, 0
2, 261775, Note_on_c, 0, 94, 0
2, 261840, Note_on_c, 0, 91, 117
2, 261840, Note_on_c, 0, 94, 117
2, 261840, Note_on_c, 0, 82, 117
2, 261895, Note_on_c, 0, 82, 0
2, 261895, Note_on_c, 0, 91, 0
2, 261895, Note_on_c, 0, 94, 0
2, 261900, Note_on_c, 0, 50, 117
2, 261900, Note_on_c, 0, 38, 117
2, 261955, Note_on_c, 0, 38, 0
2, 261955, Note_on_c, 0, 50, 0
2, 261960, Note_on_c, 0, 89, 117
2, 261960, Note_on_c, 0, 93, 117
2, 261960, Note_on_c, 0, 81, 117
2, 261960, Note_on_c, 0, 50, 117
2, 261960, Note_on_c, 0, 38, 117
2, 262015, Note_on_c, 0, 38, 0
2, 262015, Note_on_c, 0, 50, 0
2, 262015, Note_on_c, 0, 81, 0
2, 262015, Note_on_c, 0, 89, 0
2, 262015, Note_on_c, 0, 93, 0
2, 262080, Note_on_c, 0, 88, 117
2, 262080, Note_on_c, 0, 91, 117
2, 262080, Note_on_c, 0, 79, 117
2, 262080, Note_on_c, 0, 62, 117
2, 262080, Note_on_c, 0, 50, 117
2, 262135, Note_on_c, 0, 50, 0
2, 262135, Note_on_c, 0, 62, 0
2, 262135, Note_on_c, 0, 79, 0
2, 262135, Note_on_c, 0, 88, 0
2, 262135, Note_on_c, 0, 91, 0
2, 262200, Note_on_c, 0, 88, 117
2, 262200, Note_on_c, 0, 91, 117
2, 262200, Note_on_c, 0, 79, 117
2, 262255, Note_on_c, 0, 79, 0
2, 262255, Note_on_c, 0, 88, 0
2, 262255, Note_on_c, 0, 91, 0
2, 262260, Note_on_c, 0, 50, 117
2, 262260, Note_on_c, 0, 38, 117
2, 262315, Note_on_c, 0, 38, 0
2, 262315, Note_on_c, 0, 50, 0
2, 262320, Note_on_c, 0, 86, 117
2, 262320, Note_on_c, 0, 89, 117
2, 262320, Note_on_c, 0, 77, 117
2, 262320, Note_on_c, 0, 50, 117
2, 262320, Note_on_c, 0, 38, 117
2, 262375, Note_on_c, 0, 38, 0
2, 262375, Note_on_c, 0, 89, 0
2, 262375, Note_on_c, 0, 50, 0
2, 262375, Note_on_c, 0, 86, 0
2, 262375, Note_on_c, 0, 77, 0
2, 262440, Note_on_c, 0, 88, 117
2, 262440, Note_on_c, 0, 91, 117
2, 262440, Note_on_c, 0, 79, 117
2, 262440, Note_on_c, 0, 62, 117
2, 262440, Note_on_c, 0, 50, 117
2, 262495, Note_on_c, 0, 50, 0
2, 262495, Note_on_c, 0, 62, 0
2, 262495, Note_on_c, 0, 79, 0
2, 262495, Note_on_c, 0, 88, 0
2, 262495, Note_on_c, 0, 91, 0
2, 262560, Note_on_c, 0, 88, 117
2, 262560, Note_on_c, 0, 91, 117
2, 262560, Note_on_c, 0, 79, 117
2, 262615, Note_on_c, 0, 79, 0
2, 262615, Note_on_c, 0, 88, 0
2, 262615, Note_on_c, 0, 91, 0
2, 262620, Note_on_c, 0, 50, 117
2, 262620, Note_on_c, 0, 38, 117
2, 262675, Note_on_c, 0, 38, 0
2, 262675, Note_on_c, 0, 50, 0
2, 262680, Note_on_c, 0, 85, 117
2, 262680, Note_on_c, 0, 88, 117
2, 262680, Note_on_c, 0, 76, 117
2, 262680, Note_on_c, 0, 50, 117
2, 262680, Note_on_c, 0, 38, 117
2, 262735, Note_on_c, 0, 38, 0
2, 262735, Note_on_c, 0, 50, 0
2, 262735, Note_on_c, 0, 76, 0
2, 262735, Note_on_c, 0, 85, 0
2, 262735, Note_on_c, 0, 88, 0
2, 262800, Note_on_c, 0, 86, 117
2, 262800, Note_on_c, 0, 89, 117
2, 262800, Note_on_c, 0, 77, 117
2, 262800, Note_on_c, 0, 62, 117
2, 262800, Note_on_c, 0, 50, 117
2, 262855, Note_on_c, 0, 50, 0
2, 262855, Note_on_c, 0, 89, 0
2, 262855, Note_on_c, 0, 62, 0
2, 262855, Note_on_c, 0, 86, 0
2, 262855, Note_on_c, 0, 77, 0
2, 262980, Note_on_c, 0, 77, 117
2, 262980, Note_on_c, 0, 65, 117
2, 262980, Note_on_c, 0, 50, 117
2, 262980, Note_on_c, 0, 38, 117
2, 263035, Note_on_c, 0, 38, 0
2, 263035, Note_on_c, 0, 50, 0
2, 263035, Note_on_c, 0, 77, 0
2, 263035, Note_on_c, 0, 65, 0
2, 263040, Note_on_c, 0, 77, 117
2, 263040, Note_on_c, 0, 65, 117
2, 263040, Note_on_c, 0, 50, 117
2, 263040, Note_on_c, 0, 38, 117
2, 263095, Note_on_c, 0, 38, 0
2, 263095, Note_on_c, 0, 50, 0
2, 263095, Note_on_c, 0, 77, 0
2, 263095, Note_on_c, 0, 65, 0
2, 263160, Note_on_c, 0, 89, 117
2, 263160, Note_on_c, 0, 77, 117
2, 263160, Note_on_c, 0, 62, 117
2, 263160, Note_on_c, 0, 50, 117
2, 263215, Note_on_c, 0, 50, 0
2, 263215, Note_on_c, 0, 62, 0
2, 263215, Note_on_c, 0, 89, 0
2, 263215, Note_on_c, 0, 77, 0
2, 263280, Note_on_c, 0, 91, 117
2, 263280, Note_on_c, 0, 79, 117
2, 263280, Note_on_c, 0, 64, 117
2, 263280, Note_on_c, 0, 52, 117
2, 263335, Note_on_c, 0, 52, 0
2, 263335, Note_on_c, 0, 64, 0
2, 263335, Note_on_c, 0, 91, 0
2, 263335, Note_on_c, 0, 79, 0
2, 263400, Note_on_c, 0, 93, 117
2, 263400, Note_on_c, 0, 81, 117
2, 263400, Note_on_c, 0, 65, 117
2, 263400, Note_on_c, 0, 53, 117
2, 263455, Note_on_c, 0, 65, 0
2, 263455, Note_on_c, 0, 53, 0
2, 263455, Note_on_c, 0, 93, 0
2, 263455, Note_on_c, 0, 81, 0
2, 263520, Note_on_c, 0, 94, 117
2, 263520, Note_on_c, 0, 82, 117
2, 263520, Note_on_c, 0, 67, 117
2, 263520, Note_on_c, 0, 55, 117
2, 263575, Note_on_c, 0, 55, 0
2, 263575, Note_on_c, 0, 67, 0
2, 263575, Note_on_c, 0, 94, 0
2, 263575, Note_on_c, 0, 82, 0
2, 263700, Note_on_c, 0, 46, 117
2, 263700, Note_on_c, 0, 43, 117
2, 263755, Note_on_c, 0, 43, 0
2, 263755, Note_on_c, 0, 46, 0
2, 263760, Note_on_c, 0, 46, 117
2, 263760, Note_on_c, 0, 43, 117
2, 263815, Note_on_c, 0, 43, 0
2, 263815, Note_on_c, 0, 46, 0
2, 263880, Note_on_c, 0, 82, 117
2, 263880, Note_on_c, 0, 70, 117
2, 263880, Note_on_c, 0, 58, 117
2, 263880, Note_on_c, 0, 55, 117
2, 263935, Note_on_c, 0, 55, 0
2, 263935, Note_on_c, 0, 58, 0
2, 263935, Note_on_c, 0, 82, 0
2, 263935, Note_on_c, 0, 70, 0
2, 264000, Note_on_c, 0, 84, 117
2, 264000, Note_on_c, 0, 72, 117
2, 264000, Note_on_c, 0, 55, 117
2, 264000, Note_on_c, 0, 52, 117
2, 264055, Note_on_c, 0, 52, 0
2, 264055, Note_on_c, 0, 55, 0
2, 264055, Note_on_c, 0, 84, 0
2, 264055, Note_on_c, 0, 72, 0
2, 264120, Note_on_c, 0, 86, 117
2, 264120, Note_on_c, 0, 74, 117
2, 264120, Note_on_c, 0, 53, 117
2, 264120, Note_on_c, 0, 50, 117
2, 264175, Note_on_c, 0, 50, 0
2, 264175, Note_on_c, 0, 74, 0
2, 264175, Note_on_c, 0, 53, 0
2, 264175, Note_on_c, 0, 86, 0
2, 264240, Note_on_c, 0, 88, 117
2, 264240, Note_on_c, 0, 76, 117
2, 264240, Note_on_c, 0, 52, 117
2, 264240, Note_on_c, 0, 60, 117
2, 264240, Note_on_c, 0, 48, 117
2, 264295, Note_on_c, 0, 48, 0
2, 264295, Note_on_c, 0, 60, 0
2, 264295, Note_on_c, 0, 52, 0
2, 264295, Note_on_c, 0, 88, 0
2, 264295, Note_on_c, 0, 76, 0
2, 264420, Note_on_c, 0, 76, 117
2, 264420, Note_on_c, 0, 64, 117
2, 264420, Note_on_c, 0, 48, 117
2, 264420, Note_on_c, 0, 36, 117
2, 264475, Note_on_c, 0, 36, 0
2, 264475, Note_on_c, 0, 48, 0
2, 264475, Note_on_c, 0, 76, 0
2, 264475, Note_on_c, 0, 64, 0
2, 264480, Note_on_c, 0, 76, 117
2, 264480, Note_on_c, 0, 64, 117
2, 264480, Note_on_c, 0, 48, 117
2, 264480, Note_on_c, 0, 36, 117
2, 264535, Note_on_c, 0, 36, 0
2, 264535, Note_on_c, 0, 48, 0
2, 264535, Note_on_c, 0, 76, 0
2, 264535, Note_on_c, 0, 64, 0
2, 264600, Note_on_c, 0, 88, 117
2, 264600, Note_on_c, 0, 76, 117
2, 264600, Note_on_c, 0, 60, 117
2, 264600, Note_on_c, 0, 48, 117
2, 264655, Note_on_c, 0, 48, 0
2, 264655, Note_on_c, 0, 60, 0
2, 264655, Note_on_c, 0, 88, 0
2, 264655, Note_on_c, 0, 76, 0
2, 264720, Note_on_c, 0, 89, 117
2, 264720, Note_on_c, 0, 77, 117
2, 264720, Note_on_c, 0, 62, 117
2, 264720, Note_on_c, 0, 50, 117
2, 264775, Note_on_c, 0, 50, 0
2, 264775, Note_on_c, 0, 62, 0
2, 264775, Note_on_c, 0, 77, 0
2, 264775, Note_on_c, 0, 89, 0
2, 264840, Note_on_c, 0, 91, 117
2, 264840, Note_on_c, 0, 79, 117
2, 264840, Note_on_c, 0, 64, 117
2, 264840, Note_on_c, 0, 52, 117
2, 264895, Note_on_c, 0, 52, 0
2, 264895, Note_on_c, 0, 64, 0
2, 264895, Note_on_c, 0, 91, 0
2, 264895, Note_on_c, 0, 79, 0
2, 264960, Note_on_c, 0, 93, 117
2, 264960, Note_on_c, 0, 81, 117
2, 264960, Note_on_c, 0, 65, 117
2, 264960, Note_on_c, 0, 53, 117
2, 265015, Note_on_c, 0, 65, 0
2, 265015, Note_on_c, 0, 53, 0
2, 265015, Note_on_c, 0, 93, 0
2, 265015, Note_on_c, 0, 81, 0
2, 265140, Note_on_c, 0, 45, 117
2, 265140, Note_on_c, 0, 41, 117
2, 265195, Note_on_c, 0, 41, 0
2, 265195, Note_on_c, 0, 45, 0
2, 265200, Note_on_c, 0, 45, 117
2, 265200, Note_on_c, 0, 41, 117
2, 265255, Note_on_c, 0, 41, 0
2, 265255, Note_on_c, 0, 45, 0
2, 265320, Note_on_c, 0, 69, 117
2, 265320, Note_on_c, 0, 57, 117
2, 265320, Note_on_c, 0, 53, 117
2, 265375, Note_on_c, 0, 57, 0
2, 265375, Note_on_c, 0, 53, 0
2, 265375, Note_on_c, 0, 69, 0
2, 265440, Note_on_c, 0, 65, 117
2, 265440, Note_on_c, 0, 57, 117
2, 265440, Note_on_c, 0, 50, 117
2, 265495, Note_on_c, 0, 50, 0
2, 265495, Note_on_c, 0, 65, 0
2, 265495, Note_on_c, 0, 57, 0
2, 265560, Note_on_c, 0, 64, 117
2, 265560, Note_on_c, 0, 57, 117
2, 265560, Note_on_c, 0, 48, 117
2, 265615, Note_on_c, 0, 48, 0
2, 265615, Note_on_c, 0, 64, 0
2, 265615, Note_on_c, 0, 57, 0
2, 265680, Note_on_c, 0, 57, 53
2, 265680, Note_on_c, 0, 74, 53
2, 265680, Note_on_c, 0, 48, 53
2, 265680, Note_on_c, 0, 62, 53
2, 265680, Note_on_c, 0, 50, 53
2, 265795, Note_on_c, 0, 50, 0
2, 265795, Note_on_c, 0, 62, 0
2, 265800, Note_on_c, 0, 64, 53
2, 265800, Note_on_c, 0, 52, 53
2, 265915, Note_on_c, 0, 52, 0
2, 265915, Note_on_c, 0, 64, 0
2, 265920, Note_on_c, 0, 66, 53
2, 265920, Note_on_c, 0, 54, 53
2, 266035, Note_on_c, 0, 54, 0
2, 266035, Note_on_c, 0, 66, 0
2, 266035, Note_on_c, 0, 48, 0
2, 266035, Note_on_c, 0, 57, 0
2, 266040, Note_on_c, 0, 55, 53
2, 266040, Note_on_c, 0, 67, 53
2, 266040, Note_on_c, 0, 46, 53
2, 266155, Note_on_c, 0, 74, 0
2, 266160, Note_on_c, 0, 76, 53
2, 266275, Note_on_c, 0, 76, 0
2, 266280, Note_on_c, 0, 78, 53
2, 266395, Note_on_c, 0, 78, 0
2, 266400, Note_on_c, 0, 79, 74
2, 266515, Note_on_c, 0, 46, 0
2, 266515, Note_on_c, 0, 67, 0
2, 266515, Note_on_c, 0, 55, 0
2, 266520, Note_on_c, 0, 53, 67
2, 266520, Note_on_c, 0, 65, 67
2, 266635, Note_on_c, 0, 65, 0
2, 266635, Note_on_c, 0, 53, 0
2, 266640, Note_on_c, 0, 51, 74
2, 266640, Note_on_c, 0, 63, 74
2, 266755, Note_on_c, 0, 63, 0
2, 266755, Note_on_c, 0, 79, 0
2, 266755, Note_on_c, 0, 51, 0
2, 266760, Note_on_c, 0, 75, 96
2, 266760, Note_on_c, 0, 79, 96
2, 266760, Note_on_c, 0, 67, 96
2, 266760, Note_on_c, 0, 58, 81
2, 266760, Note_on_c, 0, 46, 81
2, 266875, Note_on_c, 0, 46, 0
2, 266875, Note_on_c, 0, 58, 0
2, 266880, Note_on_c, 0, 56, 89
2, 266880, Note_on_c, 0, 44, 89
2, 266995, Note_on_c, 0, 44, 0
2, 266995, Note_on_c, 0, 56, 0
2, 267000, Note_on_c, 0, 55, 96
2, 267000, Note_on_c, 0, 43, 96
2, 267115, Note_on_c, 0, 43, 0
2, 267115, Note_on_c, 0, 55, 0
2, 267115, Note_on_c, 0, 67, 0
2, 267115, Note_on_c, 0, 75, 0
2, 267115, Note_on_c, 0, 79, 0
2, 267120, Note_on_c, 0, 76, 103
2, 267120, Note_on_c, 0, 79, 103
2, 267120, Note_on_c, 0, 70, 103
2, 267120, Note_on_c, 0, 55, 117
2, 267120, Note_on_c, 0, 43, 117
2, 267235, Note_on_c, 0, 70, 0
2, 267235, Note_on_c, 0, 76, 0
2, 267240, Note_on_c, 0, 77, 110
2, 267240, Note_on_c, 0, 69, 110
2, 267355, Note_on_c, 0, 69, 0
2, 267355, Note_on_c, 0, 77, 0
2, 267355, Note_on_c, 0, 79, 0
2, 267360, Note_on_c, 0, 79, 117
2, 267360, Note_on_c, 0, 70, 117
2, 267475, Note_on_c, 0, 43, 0
2, 267475, Note_on_c, 0, 55, 0
2, 267480, Note_on_c, 0, 76, 96
2, 267480, Note_on_c, 0, 57, 67
2, 267480, Note_on_c, 0, 45, 67
2, 267595, Note_on_c, 0, 76, 0
2, 267595, Note_on_c, 0, 70, 0
2, 267595, Note_on_c, 0, 79, 0
2, 267600, Note_on_c, 0, 74, 74
2, 267600, Note_on_c, 0, 77, 74
2, 267600, Note_on_c, 0, 69, 74
2, 267715, Note_on_c, 0, 69, 0
2, 267715, Note_on_c, 0, 74, 0
2, 267715, Note_on_c, 0, 77, 0
2, 267720, Note_on_c, 0, 73, 53
2, 267720, Note_on_c, 0, 76, 53
2, 267720, Note_on_c, 0, 67, 53
2, 267835, Note_on_c, 0, 67, 0
2, 267835, Note_on_c, 0, 76, 0
2, 267835, Note_on_c, 0, 73, 0
2, 267835, Note_on_c, 0, 57, 0
2, 267835, Note_on_c, 0, 45, 0
2, 267840, Note_on_c, 0, 46, 57
2, 267840, Note_on_c, 0, 55, 53
2, 267840, Note_on_c, 0, 87, 69
2, 267840, Note_on_c, 0, 91, 69
2, 267840, Note_on_c, 0, 79, 69
2, 267840, Note_on_c, 0, 55, 58
2, 267840, Note_on_c, 0, 58, 58
2, 267840, Note_on_c, 0, 67, 58
2, 267840, Note_on_c, 0, 46, 58
2, 267960, Note_on_c, 0, 65, 64
2, 268075, Note_on_c, 0, 65, 0
2, 268080, Note_on_c, 0, 63, 69
2, 268195, Note_on_c, 0, 63, 0
2, 268195, Note_on_c, 0, 67, 0
2, 268195, Note_on_c, 0, 55, 0
2, 268195, Note_on_c, 0, 79, 0
2, 268195, Note_on_c, 0, 87, 0
2, 268195, Note_on_c, 0, 91, 0
2, 268195, Note_on_c, 0, 46, 0
2, 268195, Note_on_c, 0, 55, 0
2, 268195, Note_on_c, 0, 46, 0
2, 268200, Note_on_c, 0, 87, 85
2, 268200, Note_on_c, 0, 91, 85
2, 268200, Note_on_c, 0, 79, 85
2, 268200, Note_on_c, 0, 67, 74
2, 268315, Note_on_c, 0, 67, 0
2, 268315, Note_on_c, 0, 58, 0
2, 268320, Note_on_c, 0, 65, 80
2, 268320, Note_on_c, 0, 56, 80
2, 268435, Note_on_c, 0, 56, 0
2, 268435, Note_on_c, 0, 65, 0
2, 268440, Note_on_c, 0, 63, 85
2, 268440, Note_on_c, 0, 55, 85
2, 268555, Note_on_c, 0, 55, 0
2, 268555, Note_on_c, 0, 63, 0
2, 268555, Note_on_c, 0, 79, 0
2, 268555, Note_on_c, 0, 87, 0
2, 268555, Note_on_c, 0, 91, 0
2, 268560, Note_on_c, 0, 88, 101
2, 268560, Note_on_c, 0, 91, 101
2, 268560, Note_on_c, 0, 79, 101
2, 268560, Note_on_c, 0, 58, 90
2, 268560, Note_on_c, 0, 64, 90
2, 268560, Note_on_c, 0, 55, 90
2, 268675, Note_on_c, 0, 55, 0
2, 268675, Note_on_c, 0, 64, 0
2, 268675, Note_on_c, 0, 58, 0
2, 268680, Note_on_c, 0, 65, 96
2, 268680, Note_on_c, 0, 57, 96
2, 268795, Note_on_c, 0, 57, 0
2, 268795, Note_on_c, 0, 65, 0
2, 268800, Note_on_c, 0, 67, 101
2, 268800, Note_on_c, 0, 58, 101
2, 268915, Note_on_c, 0, 58, 0
2, 268915, Note_on_c, 0, 67, 0
2, 268920, Note_on_c, 0, 64, 106
2, 268920, Note_on_c, 0, 67, 106
2, 268920, Note_on_c, 0, 58, 106
2, 269035, Note_on_c, 0, 58, 0
2, 269035, Note_on_c, 0, 67, 0
2, 269035, Note_on_c, 0, 79, 0
2, 269035, Note_on_c, 0, 64, 0
2, 269035, Note_on_c, 0, 88, 0
2, 269035, Note_on_c, 0, 91, 0
2, 269040, Note_on_c, 0, 86, 112
2, 269040, Note_on_c, 0, 89, 112
2, 269040, Note_on_c, 0, 77, 112
2, 269040, Note_on_c, 0, 62, 112
2, 269040, Note_on_c, 0, 65, 112
2, 269040, Note_on_c, 0, 57, 112
2, 269155, Note_on_c, 0, 57, 0
2, 269155, Note_on_c, 0, 89, 0
2, 269155, Note_on_c, 0, 77, 0
2, 269155, Note_on_c, 0, 65, 0
2, 269155, Note_on_c, 0, 86, 0
2, 269155, Note_on_c, 0, 62, 0
2, 269160, Note_on_c, 0, 88, 117
2, 269160, Note_on_c, 0, 91, 117
2, 269160, Note_on_c, 0, 79, 117
2, 269160, Note_on_c, 0, 61, 117
2, 269160, Note_on_c, 0, 64, 117
2, 269160, Note_on_c, 0, 55, 117
2, 269275, Note_on_c, 0, 55, 0
2, 269275, Note_on_c, 0, 64, 0
2, 269275, Note_on_c, 0, 79, 0
2, 269275, Note_on_c, 0, 61, 0
2, 269275, Note_on_c, 0, 88, 0
2, 269275, Note_on_c, 0, 91, 0
2, 269280, Note_on_c, 0, 93, 117
2, 269280, Note_on_c, 0, 81, 117
2, 269280, Note_on_c, 0, 62, 117
2, 269280, Note_on_c, 0, 65, 117
2, 269280, Note_on_c, 0, 53, 117
2, 269340, Note_on_c, 0, 65, 0
2, 269340, Note_on_c, 0, 62, 0
2, 269340, Note_on_c, 0, 53, 0
2, 269340, Note_on_c, 0, 93, 0
2, 269340, Note_on_c, 0, 81, 0
2, 269400, Note_on_c, 0, 89, 71
2, 269400, Note_on_c, 0, 77, 71
2, 269400, Note_on_c, 0, 62, 71
2, 269400, Note_on_c, 0, 50, 71
2, 269460, Note_on_c, 0, 50, 0
2, 269460, Note_on_c, 0, 62, 0
2, 269460, Note_on_c, 0, 77, 0
2, 269460, Note_on_c, 0, 89, 0
2, 269520, Note_on_c, 0, 94, 71
2, 269520, Note_on_c, 0, 82, 71
2, 269520, Note_on_c, 0, 67, 71
2, 269520, Note_on_c, 0, 55, 71
2, 269580, Note_on_c, 0, 55, 0
2, 269580, Note_on_c, 0, 67, 0
2, 269580, Note_on_c, 0, 94, 0
2, 269580, Note_on_c, 0, 82, 0
2, 269640, Note_on_c, 0, 91, 117
2, 269640, Note_on_c, 0, 79, 117
2, 269640, Note_on_c, 0, 64, 117
2, 269640, Note_on_c, 0, 52, 117
2, 269700, Note_on_c, 0, 52, 0
2, 269700, Note_on_c, 0, 64, 0
2, 269700, Note_on_c, 0, 91, 0
2, 269700, Note_on_c, 0, 79, 0
2, 269760, Note_on_c, 0, 88, 71
2, 269760, Note_on_c, 0, 76, 71
2, 269760, Note_on_c, 0, 61, 71
2, 269760, Note_on_c, 0, 49, 71
2, 269820, Note_on_c, 0, 49, 0
2, 269820, Note_on_c, 0, 61, 0
2, 269820, Note_on_c, 0, 88, 0
2, 269820, Note_on_c, 0, 76, 0
2, 269880, Note_on_c, 0, 93, 71
2, 269880, Note_on_c, 0, 81, 71
2, 269880, Note_on_c, 0, 57, 71
2, 269880, Note_on_c, 0, 45, 71
2, 269940, Note_on_c, 0, 45, 0
2, 269940, Note_on_c, 0, 57, 0
2, 269940, Note_on_c, 0, 93, 0
2, 269940, Note_on_c, 0, 81, 0
2, 270000, Note_on_c, 0, 69, 117
2, 270000, Note_on_c, 0, 77, 117
2, 270000, Note_on_c, 0, 65, 117
2, 270000, Note_on_c, 0, 62, 117
2, 270000, Note_on_c, 0, 50, 117
2, 270060, Note_on_c, 0, 50, 0
2, 270060, Note_on_c, 0, 77, 0
2, 270060, Note_on_c, 0, 62, 0
2, 270060, Note_on_c, 0, 65, 0
2, 270060, Note_on_c, 0, 69, 0
2, 270120, Note_on_c, 0, 74, 71
2, 270120, Note_on_c, 0, 67, 71
2, 270120, Note_on_c, 0, 58, 71
2, 270120, Note_on_c, 0, 46, 71
2, 270180, Note_on_c, 0, 46, 0
2, 270180, Note_on_c, 0, 58, 0
2, 270180, Note_on_c, 0, 74, 0
2, 270180, Note_on_c, 0, 67, 0
2, 270240, Note_on_c, 0, 74, 71
2, 270240, Note_on_c, 0, 79, 71
2, 270240, Note_on_c, 0, 70, 71
2, 270240, Note_on_c, 0, 55, 71
2, 270240, Note_on_c, 0, 43, 71
2, 270300, Note_on_c, 0, 43, 0
2, 270300, Note_on_c, 0, 55, 0
2, 270300, Note_on_c, 0, 70, 0
2, 270300, Note_on_c, 0, 74, 0
2, 270300, Note_on_c, 0, 79, 0
2, 270360, Note_on_c, 0, 71, 117
2, 270360, Note_on_c, 0, 74, 117
2, 270360, Note_on_c, 0, 76, 117
2, 270360, Note_on_c, 0, 64, 117
2, 270360, Note_on_c, 0, 56, 117
2, 270360, Note_on_c, 0, 44, 117
2, 270420, Note_on_c, 0, 44, 0
2, 270420, Note_on_c, 0, 56, 0
2, 270420, Note_on_c, 0, 76, 0
2, 270420, Note_on_c, 0, 64, 0
2, 270420, Note_on_c, 0, 71, 0
2, 270420, Note_on_c, 0, 74, 0
2, 270480, Note_on_c, 0, 69, 71
2, 270480, Note_on_c, 0, 73, 71
2, 270480, Note_on_c, 0, 64, 71
2, 270480, Note_on_c, 0, 57, 71
2, 270480, Note_on_c, 0, 45, 71
2, 270540, Note_on_c, 0, 45, 0
2, 270540, Note_on_c, 0, 57, 0
2, 270540, Note_on_c, 0, 64, 0
2, 270540, Note_on_c, 0, 69, 0
2, 270540, Note_on_c, 0, 73, 0
2, 270600, Note_on_c, 0, 74, 71
2, 270600, Note_on_c, 0, 77, 71
2, 270600, Note_on_c, 0, 65, 71
2, 270600, Note_on_c, 0, 57, 71
2, 270600, Note_on_c, 0, 45, 71
2, 270660, Note_on_c, 0, 45, 0
2, 270660, Note_on_c, 0, 77, 0
2, 270660, Note_on_c, 0, 57, 0
2, 270660, Note_on_c, 0, 65, 0
2, 270660, Note_on_c, 0, 74, 0
2, 270720, Note_on_c, 0, 77, 117
2, 270720, Note_on_c, 0, 81, 117
2, 270720, Note_on_c, 0, 69, 117
2, 270720, Note_on_c, 0, 50, 117
2, 270720, Note_on_c, 0, 38, 117
2, 270780, Note_on_c, 0, 38, 0
2, 270780, Note_on_c, 0, 50, 0
2, 270780, Note_on_c, 0, 69, 0
2, 270780, Note_on_c, 0, 77, 0
2, 270780, Note_on_c, 0, 81, 0
2, 270840, Note_on_c, 0, 89, 71
2, 270840, Note_on_c, 0, 77, 71
2, 270840, Note_on_c, 0, 62, 71
2, 270840, Note_on_c, 0, 50, 71
2, 270900, Note_on_c, 0, 50, 0
2, 270900, Note_on_c, 0, 62, 0
2, 270900, Note_on_c, 0, 77, 0
2, 270900, Note_on_c, 0, 89, 0
2, 270960, Note_on_c, 0, 94, 71
2, 270960, Note_on_c, 0, 82, 71
2, 270960, Note_on_c, 0, 67, 71
2, 270960, Note_on_c, 0, 55, 71
2, 271020, Note_on_c, 0, 55, 0
2, 271020, Note_on_c, 0, 67, 0
2, 271020, Note_on_c, 0, 94, 0
2, 271020, Note_on_c, 0, 82, 0
2, 271080, Note_on_c, 0, 91, 117
2, 271080, Note_on_c, 0, 79, 117
2, 271080, Note_on_c, 0, 64, 117
2, 271080, Note_on_c, 0, 50, 117
2, 271140, Note_on_c, 0, 50, 0
2, 271140, Note_on_c, 0, 64, 0
2, 271140, Note_on_c, 0, 91, 0
2, 271140, Note_on_c, 0, 79, 0
2, 271200, Note_on_c, 0, 88, 71
2, 271200, Note_on_c, 0, 76, 71
2, 271200, Note_on_c, 0, 61, 71
2, 271200, Note_on_c, 0, 49, 71
2, 271260, Note_on_c, 0, 49, 0
2, 271260, Note_on_c, 0, 61, 0
2, 271260, Note_on_c, 0, 88, 0
2, 271260, Note_on_c, 0, 76, 0
2, 271320, Note_on_c, 0, 93, 71
2, 271320, Note_on_c, 0, 81, 71
2, 271320, Note_on_c, 0, 57, 71
2, 271320, Note_on_c, 0, 45, 71
2, 271380, Note_on_c, 0, 45, 0
2, 271380, Note_on_c, 0, 57, 0
2, 271380, Note_on_c, 0, 93, 0
2, 271380, Note_on_c, 0, 81, 0
2, 271440, Note_on_c, 0, 77, 117
2, 271440, Note_on_c, 0, 81, 117
2, 271440, Note_on_c, 0, 69, 117
2, 271440, Note_on_c, 0, 57, 117
2, 271440, Note_on_c, 0, 45, 117
2, 271500, Note_on_c, 0, 45, 0
2, 271500, Note_on_c, 0, 57, 0
2, 271500, Note_on_c, 0, 69, 0
2, 271500, Note_on_c, 0, 77, 0
2, 271500, Note_on_c, 0, 81, 0
2, 271560, Note_on_c, 0, 74, 71
2, 271560, Note_on_c, 0, 81, 71
2, 271560, Note_on_c, 0, 69, 71
2, 271560, Note_on_c, 0, 53, 71
2, 271560, Note_on_c, 0, 41, 71
2, 271620, Note_on_c, 0, 41, 0
2, 271620, Note_on_c, 0, 69, 0
2, 271620, Note_on_c, 0, 53, 0
2, 271620, Note_on_c, 0, 74, 0
2, 271620, Note_on_c, 0, 81, 0
2, 271680, Note_on_c, 0, 79, 71
2, 271680, Note_on_c, 0, 81, 71
2, 271680, Note_on_c, 0, 69, 71
2, 271680, Note_on_c, 0, 58, 71
2, 271680, Note_on_c, 0, 46, 71
2, 271740, Note_on_c, 0, 46, 0
2, 271740, Note_on_c, 0, 58, 0
2, 271740, Note_on_c, 0, 69, 0
2, 271740, Note_on_c, 0, 79, 0
2, 271740, Note_on_c, 0, 81, 0
2, 271800, Note_on_c, 0, 76, 117
2, 271800, Note_on_c, 0, 81, 117
2, 271800, Note_on_c, 0, 69, 117
2, 271800, Note_on_c, 0, 55, 117
2, 271800, Note_on_c, 0, 43, 117
2, 271860, Note_on_c, 0, 43, 0
2, 271860, Note_on_c, 0, 55, 0
2, 271860, Note_on_c, 0, 69, 0
2, 271860, Note_on_c, 0, 76, 0
2, 271860, Note_on_c, 0, 81, 0
2, 271920, Note_on_c, 0, 73, 71
2, 271920, Note_on_c, 0, 81, 71
2, 271920, Note_on_c, 0, 69, 71
2, 271920, Note_on_c, 0, 52, 71
2, 271920, Note_on_c, 0, 40, 71
2, 271980, Note_on_c, 0, 40, 0
2, 271980, Note_on_c, 0, 52, 0
2, 271980, Note_on_c, 0, 69, 0
2, 271980, Note_on_c, 0, 73, 0
2, 271980, Note_on_c, 0, 81, 0
2, 272040, Note_on_c, 0, 77, 71
2, 272040, Note_on_c, 0, 81, 71
2, 272040, Note_on_c, 0, 69, 71
2, 272040, Note_on_c, 0, 57, 71
2, 272040, Note_on_c, 0, 45, 71
2, 272100, Note_on_c, 0, 45, 0
2, 272100, Note_on_c, 0, 57, 0
2, 272100, Note_on_c, 0, 69, 0
2, 272100, Note_on_c, 0, 77, 0
2, 272100, Note_on_c, 0, 81, 0
2, 272160, Note_on_c, 0, 86, 71
2, 272160, Note_on_c, 0, 89, 71
2, 272160, Note_on_c, 0, 77, 71
2, 272160, Note_on_c, 0, 50, 71
2, 272160, Note_on_c, 0, 38, 71
2, 272250, Note_on_c, 0, 86, 0
2, 272250, Note_on_c, 0, 77, 0
2, 272250, Note_on_c, 0, 89, 0
2, 272280, Note_on_c, 0, 81, 71
2, 272280, Note_on_c, 0, 86, 71
2, 272280, Note_on_c, 0, 77, 71
2, 272310, Note_on_c, 0, 50, 0
2, 272310, Note_on_c, 0, 38, 0
2, 272340, Note_on_c, 0, 74, 71
2, 272340, Note_on_c, 0, 62, 71
2, 272370, Note_on_c, 0, 62, 0
2, 272370, Note_on_c, 0, 74, 0
2, 272370, Note_on_c, 0, 86, 0
2, 272370, Note_on_c, 0, 77, 0
2, 272370, Note_on_c, 0, 81, 0
2, 272400, Note_on_c, 0, 89, 71
2, 272400, Note_on_c, 0, 93, 71
2, 272400, Note_on_c, 0, 81, 71
2, 272400, Note_on_c, 0, 74, 71
2, 272400, Note_on_c, 0, 62, 71
2, 272490, Note_on_c, 0, 62, 0
2, 272490, Note_on_c, 0, 74, 0
2, 272490, Note_on_c, 0, 81, 0
2, 272490, Note_on_c, 0, 89, 0
2, 272490, Note_on_c, 0, 93, 0
2, 272520, Note_on_c, 0, 88, 71
2, 272520, Note_on_c, 0, 91, 71
2, 272520, Note_on_c, 0, 79, 71
2, 272520, Note_on_c, 0, 69, 71
2, 272520, Note_on_c, 0, 57, 71
2, 272610, Note_on_c, 0, 79, 0
2, 272610, Note_on_c, 0, 91, 0
2, 272610, Note_on_c, 0, 88, 0
2, 272640, Note_on_c, 0, 85, 71
2, 272640, Note_on_c, 0, 88, 71
2, 272640, Note_on_c, 0, 79, 71
2, 272670, Note_on_c, 0, 57, 0
2, 272670, Note_on_c, 0, 69, 0
2, 272700, Note_on_c, 0, 57, 71
2, 272700, Note_on_c, 0, 45, 71
2, 272730, Note_on_c, 0, 45, 0
2, 272730, Note_on_c, 0, 79, 0
2, 272730, Note_on_c, 0, 57, 0
2, 272730, Note_on_c, 0, 88, 0
2, 272730, Note_on_c, 0, 85, 0
2, 272760, Note_on_c, 0, 85, 71
2, 272760, Note_on_c, 0, 93, 71
2, 272760, Note_on_c, 0, 79, 71
2, 272760, Note_on_c, 0, 57, 71
2, 272760, Note_on_c, 0, 45, 71
2, 272850, Note_on_c, 0, 45, 0
2, 272850, Note_on_c, 0, 57, 0
2, 272850, Note_on_c, 0, 79, 0
2, 272850, Note_on_c, 0, 85, 0
2, 272850, Note_on_c, 0, 93, 0
2, 272880, Note_on_c, 0, 86, 71
2, 272880, Note_on_c, 0, 89, 71
2, 272880, Note_on_c, 0, 77, 71
2, 272880, Note_on_c, 0, 50, 71
2, 272880, Note_on_c, 0, 38, 71
2, 272970, Note_on_c, 0, 86, 0
2, 272970, Note_on_c, 0, 77, 0
2, 272970, Note_on_c, 0, 89, 0
2, 273000, Note_on_c, 0, 81, 71
2, 273000, Note_on_c, 0, 86, 71
2, 273000, Note_on_c, 0, 77, 71
2, 273030, Note_on_c, 0, 38, 0
2, 273030, Note_on_c, 0, 50, 0
2, 273060, Note_on_c, 0, 74, 71
2, 273060, Note_on_c, 0, 62, 71
2, 273090, Note_on_c, 0, 62, 0
2, 273090, Note_on_c, 0, 74, 0
2, 273090, Note_on_c, 0, 86, 0
2, 273090, Note_on_c, 0, 77, 0
2, 273090, Note_on_c, 0, 81, 0
2, 273120, Note_on_c, 0, 89, 71
2, 273120, Note_on_c, 0, 93, 71
2, 273120, Note_on_c, 0, 81, 71
2, 273120, Note_on_c, 0, 74, 71
2, 273120, Note_on_c, 0, 62, 71
2, 273210, Note_on_c, 0, 62, 0
2, 273210, Note_on_c, 0, 74, 0
2, 273210, Note_on_c, 0, 81, 0
2, 273210, Note_on_c, 0, 89, 0
2, 273210, Note_on_c, 0, 93, 0
2, 273240, Note_on_c, 0, 88, 71
2, 273240, Note_on_c, 0, 91, 71
2, 273240, Note_on_c, 0, 79, 71
2, 273240, Note_on_c, 0, 69, 71
2, 273240, Note_on_c, 0, 57, 71
2, 273330, Note_on_c, 0, 79, 0
2, 273330, Note_on_c, 0, 91, 0
2, 273330, Note_on_c, 0, 88, 0
2, 273360, Note_on_c, 0, 85, 71
2, 273360, Note_on_c, 0, 88, 71
2, 273360, Note_on_c, 0, 79, 71
2, 273390, Note_on_c, 0, 57, 0
2, 273390, Note_on_c, 0, 69, 0
2, 273420, Note_on_c, 0, 57, 71
2, 273420, Note_on_c, 0, 45, 71
2, 273450, Note_on_c, 0, 45, 0
2, 273450, Note_on_c, 0, 79, 0
2, 273450, Note_on_c, 0, 57, 0
2, 273450, Note_on_c, 0, 88, 0
2, 273450, Note_on_c, 0, 85, 0
2, 273480, Note_on_c, 0, 85, 71
2, 273480, Note_on_c, 0, 93, 71
2, 273480, Note_on_c, 0, 79, 71
2, 273480, Note_on_c, 0, 57, 71
2, 273480, Note_on_c, 0, 45, 71
2, 273570, Note_on_c, 0, 45, 0
2, 273570, Note_on_c, 0, 57, 0
2, 273570, Note_on_c, 0, 79, 0
2, 273570, Note_on_c, 0, 85, 0
2, 273570, Note_on_c, 0, 93, 0
2, 273600, Note_on_c, 0, 69, 71
2, 273600, Note_on_c, 0, 67, 71
2, 273720, Note_on_c, 0, 73, 71
2, 273720, Note_on_c, 0, 64, 71
2, 273750, Note_on_c, 0, 67, 0
2, 273750, Note_on_c, 0, 69, 0
2, 273840, Note_on_c, 0, 76, 71
2, 273840, Note_on_c, 0, 61, 71
2, 273870, Note_on_c, 0, 64, 0
2, 273870, Note_on_c, 0, 73, 0
2, 273960, Note_on_c, 0, 79, 71
2, 273960, Note_on_c, 0, 67, 71
2, 273960, Note_on_c, 0, 55, 71
2, 273960, Note_on_c, 0, 45, 71
2, 273990, Note_on_c, 0, 61, 0
2, 273990, Note_on_c, 0, 76, 0
2, 274080, Note_on_c, 0, 85, 71
2, 274080, Note_on_c, 0, 73, 71
2, 274080, Note_on_c, 0, 52, 71
2, 274110, Note_on_c, 0, 55, 0
2, 274110, Note_on_c, 0, 67, 0
2, 274110, Note_on_c, 0, 79, 0
2, 274200, Note_on_c, 0, 45, 0
2, 274200, Note_on_c, 0, 88, 71
2, 274200, Note_on_c, 0, 76, 71
2, 274200, Note_on_c, 0, 49, 71
2, 274230, Note_on_c, 0, 85, 0
2, 274230, Note_on_c, 0, 52, 0
2, 274230, Note_on_c, 0, 73, 0
2, 274290, Note_on_c, 0, 49, 0
2, 274320, Note_on_c, 0, 91, 71
2, 274320, Note_on_c, 0, 79, 71
2, 274320, Note_on_c, 0, 52, 71
2, 274320, Note_on_c, 0, 55, 71
2, 274320, Note_on_c, 0, 45, 71
2, 274350, Note_on_c, 0, 76, 0
2, 274350, Note_on_c, 0, 88, 0
2, 274440, Note_on_c, 0, 61, 71
2, 274470, Note_on_c, 0, 45, 0
2, 274470, Note_on_c, 0, 55, 0
2, 274470, Note_on_c, 0, 52, 0
2, 274560, Note_on_c, 0, 79, 0
2, 274560, Note_on_c, 0, 61, 0
2, 274560, Note_on_c, 0, 91, 0
2, 274560, Note_on_c, 0, 64, 71
2, 274680, Note_on_c, 0, 67, 71
2, 274680, Note_on_c, 0, 57, 71
2, 274710, Note_on_c, 0, 64, 0
2, 274800, Note_on_c, 0, 88, 71
2, 274800, Note_on_c, 0, 76, 71
2, 274800, Note_on_c, 0, 61, 71
2, 274830, Note_on_c, 0, 67, 0
2, 274830, Note_on_c, 0, 57, 0
2, 274890, Note_on_c, 0, 76, 0
2, 274890, Note_on_c, 0, 88, 0
2, 274920, Note_on_c, 0, 61, 0
2, 274920, Note_on_c, 0, 85, 71
2, 274920, Note_on_c, 0, 73, 71
2, 274920, Note_on_c, 0, 64, 71
2, 275010, Note_on_c, 0, 73, 0
2, 275010, Note_on_c, 0, 85, 0
2, 275040, Note_on_c, 0, 86, 53
2, 275040, Note_on_c, 0, 74, 53
2, 275040, Note_on_c, 0, 50, 53
2, 275040, Note_on_c, 0, 38, 53
2, 275070, Note_on_c, 0, 38, 0
2, 275070, Note_on_c, 0, 50, 0
2, 275070, Note_on_c, 0, 74, 0
2, 275070, Note_on_c, 0, 64, 0
2, 275070, Note_on_c, 0, 86, 0
2, 275220, Note_on_c, 0, 57, 53
2, 275220, Note_on_c, 0, 62, 53
2, 275220, Note_on_c, 0, 53, 53
2, 275250, Note_on_c, 0, 62, 0
2, 275250, Note_on_c, 0, 53, 0
2, 275250, Note_on_c, 0, 57, 0
2, 275280, Note_on_c, 0, 57, 53
2, 275280, Note_on_c, 0, 62, 53
2, 275280, Note_on_c, 0, 53, 53
2, 275310, Note_on_c, 0, 62, 0
2, 275310, Note_on_c, 0, 53, 0
2, 275310, Note_on_c, 0, 57, 0
2, 275400, Note_on_c, 0, 81, 53
2, 275400, Note_on_c, 0, 89, 53
2, 275400, Note_on_c, 0, 77, 53
2, 275400, Note_on_c, 0, 57, 53
2, 275400, Note_on_c, 0, 45, 53
2, 275430, Note_on_c, 0, 45, 0
2, 275430, Note_on_c, 0, 77, 0
2, 275430, Note_on_c, 0, 57, 0
2, 275430, Note_on_c, 0, 81, 0
2, 275430, Note_on_c, 0, 89, 0
2, 275580, Note_on_c, 0, 69, 53
2, 275580, Note_on_c, 0, 74, 53
2, 275580, Note_on_c, 0, 65, 53
2, 275610, Note_on_c, 0, 65, 0
2, 275610, Note_on_c, 0, 69, 0
2, 275610, Note_on_c, 0, 74, 0
2, 275640, Note_on_c, 0, 69, 53
2, 275640, Note_on_c, 0, 74, 53
2, 275640, Note_on_c, 0, 65, 53
2, 275670, Note_on_c, 0, 65, 0
2, 275670, Note_on_c, 0, 69, 0
2, 275670, Note_on_c, 0, 74, 0
2, 275760, Note_on_c, 0, 69, 53
2, 275760, Note_on_c, 0, 74, 53
2, 275760, Note_on_c, 0, 65, 53
2, 275760, Note_on_c, 0, 53, 53
2, 275760, Note_on_c, 0, 41, 53
2, 275790, Note_on_c, 0, 41, 0
2, 275790, Note_on_c, 0, 65, 0
2, 275790, Note_on_c, 0, 53, 0
2, 275790, Note_on_c, 0, 69, 0
2, 275790, Note_on_c, 0, 74, 0
2, 275940, Note_on_c, 0, 57, 53
2, 275940, Note_on_c, 0, 62, 53
2, 275940, Note_on_c, 0, 53, 53
2, 275970, Note_on_c, 0, 62, 0
2, 275970, Note_on_c, 0, 53, 0
2, 275970, Note_on_c, 0, 57, 0
2, 276000, Note_on_c, 0, 57, 53
2, 276000, Note_on_c, 0, 62, 53
2, 276000, Note_on_c, 0, 53, 53
2, 276030, Note_on_c, 0, 62, 0
2, 276030, Note_on_c, 0, 53, 0
2, 276030, Note_on_c, 0, 57, 0
2, 276120, Note_on_c, 0, 77, 53
2, 276120, Note_on_c, 0, 86, 53
2, 276120, Note_on_c, 0, 74, 53
2, 276120, Note_on_c, 0, 50, 53
2, 276120, Note_on_c, 0, 38, 53
2, 276150, Note_on_c, 0, 38, 0
2, 276150, Note_on_c, 0, 50, 0
2, 276150, Note_on_c, 0, 74, 0
2, 276150, Note_on_c, 0, 77, 0
2, 276150, Note_on_c, 0, 86, 0
2, 276300, Note_on_c, 0, 69, 53
2, 276300, Note_on_c, 0, 74, 53
2, 276300, Note_on_c, 0, 65, 53
2, 276330, Note_on_c, 0, 65, 0
2, 276330, Note_on_c, 0, 69, 0
2, 276330, Note_on_c, 0, 74, 0
2, 276360, Note_on_c, 0, 69, 53
2, 276360, Note_on_c, 0, 74, 53
2, 276360, Note_on_c, 0, 65, 53
2, 276390, Note_on_c, 0, 65, 0
2, 276390, Note_on_c, 0, 69, 0
2, 276390, Note_on_c, 0, 74, 0
2, 276480, Note_on_c, 0, 69, 53
2, 276480, Note_on_c, 0, 74, 53
2, 276480, Note_on_c, 0, 65, 53
2, 276510, Note_on_c, 0, 65, 0
2, 276510, Note_on_c, 0, 69, 0
2, 276510, Note_on_c, 0, 74, 0
2, 277920, Note_on_c, 0, 69, 54
2, 277920, Note_on_c, 0, 74, 54
2, 277920, Note_on_c, 0, 65, 54
2, 277920, Note_on_c, 0, 50, 54
2, 277920, Note_on_c, 0, 38, 54
2, 277975, Note_on_c, 0, 38, 0
2, 277975, Note_on_c, 0, 50, 0
2, 277975, Note_on_c, 0, 65, 0
2, 277975, Note_on_c, 0, 69, 0
2, 277975, Note_on_c, 0, 74, 0
2, 278100, Note_on_c, 0, 57, 58
2, 278100, Note_on_c, 0, 62, 58
2, 278100, Note_on_c, 0, 53, 58
2, 278155, Note_on_c, 0, 62, 0
2, 278155, Note_on_c, 0, 53, 0
2, 278155, Note_on_c, 0, 57, 0
2, 278160, Note_on_c, 0, 57, 59
2, 278160, Note_on_c, 0, 62, 59
2, 278160, Note_on_c, 0, 53, 59
2, 278215, Note_on_c, 0, 62, 0
2, 278215, Note_on_c, 0, 53, 0
2, 278215, Note_on_c, 0, 57, 0
2, 278280, Note_on_c, 0, 81, 61
2, 278280, Note_on_c, 0, 86, 61
2, 278280, Note_on_c, 0, 77, 61
2, 278280, Note_on_c, 0, 57, 61
2, 278280, Note_on_c, 0, 45, 61
2, 278335, Note_on_c, 0, 45, 0
2, 278335, Note_on_c, 0, 77, 0
2, 278335, Note_on_c, 0, 57, 0
2, 278335, Note_on_c, 0, 86, 0
2, 278335, Note_on_c, 0, 81, 0
2, 278460, Note_on_c, 0, 69, 65
2, 278460, Note_on_c, 0, 74, 65
2, 278460, Note_on_c, 0, 65, 65
2, 278515, Note_on_c, 0, 65, 0
2, 278515, Note_on_c, 0, 69, 0
2, 278515, Note_on_c, 0, 74, 0
2, 278520, Note_on_c, 0, 69, 66
2, 278520, Note_on_c, 0, 74, 66
2, 278520, Note_on_c, 0, 65, 66
2, 278575, Note_on_c, 0, 65, 0
2, 278575, Note_on_c, 0, 69, 0
2, 278575, Note_on_c, 0, 74, 0
2, 278640, Note_on_c, 0, 69, 68
2, 278640, Note_on_c, 0, 74, 68
2, 278640, Note_on_c, 0, 65, 68
2, 278640, Note_on_c, 0, 53, 68
2, 278640, Note_on_c, 0, 41, 68
2, 278695, Note_on_c, 0, 41, 0
2, 278695, Note_on_c, 0, 65, 0
2, 278695, Note_on_c, 0, 53, 0
2, 278695, Note_on_c, 0, 69, 0
2, 278695, Note_on_c, 0, 74, 0
2, 278820, Note_on_c, 0, 57, 72
2, 278820, Note_on_c, 0, 62, 72
2, 278820, Note_on_c, 0, 53, 72
2, 278875, Note_on_c, 0, 62, 0
2, 278875, Note_on_c, 0, 53, 0
2, 278875, Note_on_c, 0, 57, 0
2, 278880, Note_on_c, 0, 57, 73
2, 278880, Note_on_c, 0, 62, 73
2, 278880, Note_on_c, 0, 53, 73
2, 278935, Note_on_c, 0, 62, 0
2, 278935, Note_on_c, 0, 53, 0
2, 278935, Note_on_c, 0, 57, 0
2, 279000, Note_on_c, 0, 77, 76
2, 279000, Note_on_c, 0, 86, 76
2, 279000, Note_on_c, 0, 74, 76
2, 279000, Note_on_c, 0, 50, 76
2, 279000, Note_on_c, 0, 38, 76
2, 279055, Note_on_c, 0, 38, 0
2, 279055, Note_on_c, 0, 50, 0
2, 279055, Note_on_c, 0, 74, 0
2, 279055, Note_on_c, 0, 77, 0
2, 279055, Note_on_c, 0, 86, 0
2, 279180, Note_on_c, 0, 69, 79
2, 279180, Note_on_c, 0, 74, 79
2, 279180, Note_on_c, 0, 65, 79
2, 279235, Note_on_c, 0, 65, 0
2, 279235, Note_on_c, 0, 69, 0
2, 279235, Note_on_c, 0, 74, 0
2, 279240, Note_on_c, 0, 69, 80
2, 279240, Note_on_c, 0, 74, 80
2, 279240, Note_on_c, 0, 65, 80
2, 279295, Note_on_c, 0, 65, 0
2, 279295, Note_on_c, 0, 69, 0
2, 279295, Note_on_c, 0, 74, 0
2, 279360, Note_on_c, 0, 70, 83
2, 279360, Note_on_c, 0, 74, 83
2, 279360, Note_on_c, 0, 65, 83
2, 279360, Note_on_c, 0, 46, 83
2, 279360, Note_on_c, 0, 34, 83
2, 279415, Note_on_c, 0, 34, 0
2, 279415, Note_on_c, 0, 46, 0
2, 279415, Note_on_c, 0, 65, 0
2, 279415, Note_on_c, 0, 70, 0
2, 279415, Note_on_c, 0, 74, 0
2, 279540, Note_on_c, 0, 58, 86
2, 279540, Note_on_c, 0, 62, 86
2, 279540, Note_on_c, 0, 53, 86
2, 279595, Note_on_c, 0, 62, 0
2, 279595, Note_on_c, 0, 53, 0
2, 279595, Note_on_c, 0, 58, 0
2, 279600, Note_on_c, 0, 58, 87
2, 279600, Note_on_c, 0, 62, 87
2, 279600, Note_on_c, 0, 53, 87
2, 279655, Note_on_c, 0, 62, 0
2, 279655, Note_on_c, 0, 53, 0
2, 279655, Note_on_c, 0, 58, 0
2, 279720, Note_on_c, 0, 82, 90
2, 279720, Note_on_c, 0, 86, 90
2, 279720, Note_on_c, 0, 74, 90
2, 279720, Note_on_c, 0, 55, 90
2, 279720, Note_on_c, 0, 43, 90
2, 279775, Note_on_c, 0, 43, 0
2, 279775, Note_on_c, 0, 55, 0
2, 279775, Note_on_c, 0, 74, 0
2, 279775, Note_on_c, 0, 82, 0
2, 279775, Note_on_c, 0, 86, 0
2, 279900, Note_on_c, 0, 70, 93
2, 279900, Note_on_c, 0, 74, 93
2, 279900, Note_on_c, 0, 67, 93
2, 279955, Note_on_c, 0, 67, 0
2, 279955, Note_on_c, 0, 70, 0
2, 279955, Note_on_c, 0, 74, 0
2, 279960, Note_on_c, 0, 70, 94
2, 279960, Note_on_c, 0, 74, 94
2, 279960, Note_on_c, 0, 67, 94
2, 280015, Note_on_c, 0, 67, 0
2, 280015, Note_on_c, 0, 70, 0
2, 280015, Note_on_c, 0, 74, 0
2, 280080, Note_on_c, 0, 67, 97
2, 280080, Note_on_c, 0, 74, 97
2, 280080, Note_on_c, 0, 62, 97
2, 280080, Note_on_c, 0, 46, 97
2, 280080, Note_on_c, 0, 34, 97
2, 280135, Note_on_c, 0, 34, 0
2, 280135, Note_on_c, 0, 46, 0
2, 280135, Note_on_c, 0, 62, 0
2, 280135, Note_on_c, 0, 67, 0
2, 280135, Note_on_c, 0, 74, 0
2, 280260, Note_on_c, 0, 62, 100
2, 280260, Note_on_c, 0, 50, 100
2, 280260, Note_on_c, 0, 55, 100
2, 280260, Note_on_c, 0, 46, 100
2, 280315, Note_on_c, 0, 46, 0
2, 280315, Note_on_c, 0, 55, 0
2, 280315, Note_on_c, 0, 62, 0
2, 280315, Note_on_c, 0, 50, 0
2, 280320, Note_on_c, 0, 62, 102
2, 280320, Note_on_c, 0, 50, 102
2, 280320, Note_on_c, 0, 55, 102
2, 280320, Note_on_c, 0, 46, 102
2, 280375, Note_on_c, 0, 46, 0
2, 280375, Note_on_c, 0, 55, 0
2, 280375, Note_on_c, 0, 62, 0
2, 280375, Note_on_c, 0, 50, 0
2, 280440, Note_on_c, 0, 81, 106
2, 280440, Note_on_c, 0, 85, 106
2, 280440, Note_on_c, 0, 88, 106
2, 280440, Note_on_c, 0, 76, 106
2, 280440, Note_on_c, 0, 49, 106
2, 280440, Note_on_c, 0, 52, 106
2, 280440, Note_on_c, 0, 57, 106
2, 280440, Note_on_c, 0, 45, 106
2, 280495, Note_on_c, 0, 45, 0
2, 280495, Note_on_c, 0, 52, 0
2, 280495, Note_on_c, 0, 76, 0
2, 280495, Note_on_c, 0, 88, 0
2, 280495, Note_on_c, 0, 49, 0
2, 280495, Note_on_c, 0, 57, 0
2, 280495, Note_on_c, 0, 81, 0
2, 280495, Note_on_c, 0, 85, 0
2, 280620, Note_on_c, 0, 76, 107
2, 280620, Note_on_c, 0, 61, 107
2, 280620, Note_on_c, 0, 64, 107
2, 280620, Note_on_c, 0, 69, 107
2, 280620, Note_on_c, 0, 57, 107
2, 280675, Note_on_c, 0, 57, 0
2, 280675, Note_on_c, 0, 69, 0
2, 280675, Note_on_c, 0, 64, 0
2, 280675, Note_on_c, 0, 76, 0
2, 280675, Note_on_c, 0, 61, 0
2, 280680, Note_on_c, 0, 81, 110
2, 280680, Note_on_c, 0, 85, 110
2, 280680, Note_on_c, 0, 88, 110
2, 280680, Note_on_c, 0, 76, 110
2, 280680, Note_on_c, 0, 61, 110
2, 280680, Note_on_c, 0, 64, 110
2, 280680, Note_on_c, 0, 69, 110
2, 280680, Note_on_c, 0, 57, 110
2, 281030, Note_on_c, 0, 57, 0
2, 281030, Note_on_c, 0, 64, 0
2, 281030, Note_on_c, 0, 76, 0
2, 281030, Note_on_c, 0, 88, 0
2, 281030, Note_on_c, 0, 61, 0
2, 281030, Note_on_c, 0, 69, 0
2, 281030, Note_on_c, 0, 81, 0
2, 281030, Note_on_c, 0, 85, 0
2, 281160, Note_on_c, 0, 81, 53
2, 281160, Note_on_c, 0, 52, 53
2, 281160, Note_on_c, 0, 49, 53
2, 281215, Note_on_c, 0, 49, 0
2, 281215, Note_on_c, 0, 81, 0
2, 281215, Note_on_c, 0, 52, 0
2, 281280, Note_on_c, 0, 53, 53
2, 281280, Note_on_c, 0, 50, 53
2, 281335, Note_on_c, 0, 50, 0
2, 281335, Note_on_c, 0, 53, 0
2, 281340, Note_on_c, 0, 69, 53
2, 281395, Note_on_c, 0, 69, 0
2, 281400, Note_on_c, 0, 69, 53
2, 281400, Note_on_c, 0, 55, 53
2, 281400, Note_on_c, 0, 52, 53
2, 281455, Note_on_c, 0, 52, 0
2, 281455, Note_on_c, 0, 69, 0
2, 281455, Note_on_c, 0, 55, 0
2, 281520, Note_on_c, 0, 74, 53
2, 281520, Note_on_c, 0, 57, 53
2, 281520, Note_on_c, 0, 53, 53
2, 281575, Note_on_c, 0, 57, 0
2, 281575, Note_on_c, 0, 53, 0
2, 281575, Note_on_c, 0, 74, 0
2, 281640, Note_on_c, 0, 76, 53
2, 281640, Note_on_c, 0, 55, 53
2, 281640, Note_on_c, 0, 52, 53
2, 281695, Note_on_c, 0, 52, 0
2, 281695, Note_on_c, 0, 76, 0
2, 281695, Note_on_c, 0, 55, 0
2, 281760, Note_on_c, 0, 77, 53
2, 281760, Note_on_c, 0, 53, 53
2, 281760, Note_on_c, 0, 50, 53
2, 281815, Note_on_c, 0, 50, 0
2, 281815, Note_on_c, 0, 53, 0
2, 281815, Note_on_c, 0, 77, 0
2, 281880, Note_on_c, 0, 78, 53
2, 281880, Note_on_c, 0, 81, 53
2, 281880, Note_on_c, 0, 69, 53
2, 281880, Note_on_c, 0, 62, 53
2, 281880, Note_on_c, 0, 50, 53
2, 281935, Note_on_c, 0, 50, 0
2, 281935, Note_on_c, 0, 62, 0
2, 281935, Note_on_c, 0, 69, 0
2, 281935, Note_on_c, 0, 78, 0
2, 281935, Note_on_c, 0, 81, 0
2, 282000, Note_on_c, 0, 79, 53
2, 282000, Note_on_c, 0, 82, 53
2, 282000, Note_on_c, 0, 70, 53
2, 282055, Note_on_c, 0, 70, 0
2, 282055, Note_on_c, 0, 79, 0
2, 282055, Note_on_c, 0, 82, 0
2, 282060, Note_on_c, 0, 50, 53
2, 282060, Note_on_c, 0, 46, 53
2, 282115, Note_on_c, 0, 46, 0
2, 282115, Note_on_c, 0, 50, 0
2, 282120, Note_on_c, 0, 81, 53
2, 282120, Note_on_c, 0, 84, 53
2, 282120, Note_on_c, 0, 72, 53
2, 282120, Note_on_c, 0, 50, 53
2, 282120, Note_on_c, 0, 45, 53
2, 282175, Note_on_c, 0, 45, 0
2, 282175, Note_on_c, 0, 50, 0
2, 282175, Note_on_c, 0, 72, 0
2, 282175, Note_on_c, 0, 81, 0
2, 282175, Note_on_c, 0, 84, 0
2, 282240, Note_on_c, 0, 82, 53
2, 282240, Note_on_c, 0, 86, 53
2, 282240, Note_on_c, 0, 74, 53
2, 282240, Note_on_c, 0, 55, 53
2, 282240, Note_on_c, 0, 43, 53
2, 282295, Note_on_c, 0, 43, 0
2, 282295, Note_on_c, 0, 55, 0
2, 282295, Note_on_c, 0, 74, 0
2, 282295, Note_on_c, 0, 82, 0
2, 282295, Note_on_c, 0, 86, 0
2, 282360, Note_on_c, 0, 81, 53
2, 282360, Note_on_c, 0, 84, 53
2, 282360, Note_on_c, 0, 72, 53
2, 282360, Note_on_c, 0, 57, 53
2, 282360, Note_on_c, 0, 45, 53
2, 282415, Note_on_c, 0, 45, 0
2, 282415, Note_on_c, 0, 57, 0
2, 282415, Note_on_c, 0, 72, 0
2, 282415, Note_on_c, 0, 81, 0
2, 282415, Note_on_c, 0, 84, 0
2, 282480, Note_on_c, 0, 79, 53
2, 282480, Note_on_c, 0, 82, 53
2, 282480, Note_on_c, 0, 70, 53
2, 282480, Note_on_c, 0, 58, 53
2, 282480, Note_on_c, 0, 46, 53
2, 282535, Note_on_c, 0, 46, 0
2, 282535, Note_on_c, 0, 58, 0
2, 282535, Note_on_c, 0, 70, 0
2, 282535, Note_on_c, 0, 79, 0
2, 282535, Note_on_c, 0, 82, 0
2, 282600, Note_on_c, 0, 81, 53
2, 282600, Note_on_c, 0, 69, 53
2, 282600, Note_on_c, 0, 52, 53
2, 282600, Note_on_c, 0, 49, 53
2, 282655, Note_on_c, 0, 49, 0
2, 282655, Note_on_c, 0, 52, 0
2, 282655, Note_on_c, 0, 81, 0
2, 282655, Note_on_c, 0, 69, 0
2, 282720, Note_on_c, 0, 53, 53
2, 282720, Note_on_c, 0, 50, 53
2, 282775, Note_on_c, 0, 50, 0
2, 282775, Note_on_c, 0, 53, 0
2, 282780, Note_on_c, 0, 69, 53
2, 282835, Note_on_c, 0, 69, 0
2, 282840, Note_on_c, 0, 69, 53
2, 282840, Note_on_c, 0, 55, 53
2, 282840, Note_on_c, 0, 52, 53
2, 282895, Note_on_c, 0, 52, 0
2, 282895, Note_on_c, 0, 69, 0
2, 282895, Note_on_c, 0, 55, 0
2, 282960, Note_on_c, 0, 74, 53
2, 282960, Note_on_c, 0, 57, 53
2, 282960, Note_on_c, 0, 53, 53
2, 283015, Note_on_c, 0, 57, 0
2, 283015, Note_on_c, 0, 53, 0
2, 283015, Note_on_c, 0, 74, 0
2, 283080, Note_on_c, 0, 76, 53
2, 283080, Note_on_c, 0, 55, 53
2, 283080, Note_on_c, 0, 52, 53
2, 283135, Note_on_c, 0, 52, 0
2, 283135, Note_on_c, 0, 76, 0
2, 283135, Note_on_c, 0, 55, 0
2, 283200, Note_on_c, 0, 77, 53
2, 283200, Note_on_c, 0, 53, 53
2, 283200, Note_on_c, 0, 50, 53
2, 283255, Note_on_c, 0, 50, 0
2, 283255, Note_on_c, 0, 53, 0
2, 283255, Note_on_c, 0, 77, 0
2, 283320, Note_on_c, 0, 78, 53
2, 283320, Note_on_c, 0, 81, 53
2, 283320, Note_on_c, 0, 69, 53
2, 283320, Note_on_c, 0, 62, 53
2, 283320, Note_on_c, 0, 48, 53
2, 283375, Note_on_c, 0, 48, 0
2, 283375, Note_on_c, 0, 62, 0
2, 283375, Note_on_c, 0, 69, 0
2, 283375, Note_on_c, 0, 78, 0
2, 283375, Note_on_c, 0, 81, 0
2, 283440, Note_on_c, 0, 79, 53
2, 283440, Note_on_c, 0, 82, 53
2, 283440, Note_on_c, 0, 70, 53
2, 283495, Note_on_c, 0, 70, 0
2, 283495, Note_on_c, 0, 79, 0
2, 283495, Note_on_c, 0, 82, 0
2, 283500, Note_on_c, 0, 50, 53
2, 283500, Note_on_c, 0, 46, 53
2, 283555, Note_on_c, 0, 46, 0
2, 283555, Note_on_c, 0, 50, 0
2, 283560, Note_on_c, 0, 81, 53
2, 283560, Note_on_c, 0, 84, 53
2, 283560, Note_on_c, 0, 72, 53
2, 283560, Note_on_c, 0, 50, 53
2, 283560, Note_on_c, 0, 45, 53
2, 283615, Note_on_c, 0, 45, 0
2, 283615, Note_on_c, 0, 50, 0
2, 283615, Note_on_c, 0, 72, 0
2, 283615, Note_on_c, 0, 81, 0
2, 283615, Note_on_c, 0, 84, 0
2, 283680, Note_on_c, 0, 82, 53
2, 283680, Note_on_c, 0, 86, 53
2, 283680, Note_on_c, 0, 74, 53
2, 283680, Note_on_c, 0, 55, 53
2, 283680, Note_on_c, 0, 43, 53
2, 283735, Note_on_c, 0, 43, 0
2, 283735, Note_on_c, 0, 55, 0
2, 283735, Note_on_c, 0, 74, 0
2, 283735, Note_on_c, 0, 82, 0
2, 283735, Note_on_c, 0, 86, 0
2, 283800, Note_on_c, 0, 81, 53
2, 283800, Note_on_c, 0, 84, 53
2, 283800, Note_on_c, 0, 72, 53
2, 283800, Note_on_c, 0, 57, 53
2, 283800, Note_on_c, 0, 45, 53
2, 283855, Note_on_c, 0, 45, 0
2, 283855, Note_on_c, 0, 57, 0
2, 283855, Note_on_c, 0, 72, 0
2, 283855, Note_on_c, 0, 81, 0
2, 283855, Note_on_c, 0, 84, 0
2, 283920, Note_on_c, 0, 79, 53
2, 283920, Note_on_c, 0, 82, 53
2, 283920, Note_on_c, 0, 70, 53
2, 283920, Note_on_c, 0, 58, 53
2, 283920, Note_on_c, 0, 46, 53
2, 283975, Note_on_c, 0, 46, 0
2, 283975, Note_on_c, 0, 58, 0
2, 283975, Note_on_c, 0, 70, 0
2, 283975, Note_on_c, 0, 79, 0
2, 283975, Note_on_c, 0, 82, 0
2, 284040, Note_on_c, 0, 81, 53
2, 284040, Note_on_c, 0, 69, 53
2, 284040, Note_on_c, 0, 57, 53
2, 284040, Note_on_c, 0, 45, 53
2, 284095, Note_on_c, 0, 45, 0
2, 284095, Note_on_c, 0, 57, 0
2, 284095, Note_on_c, 0, 81, 0
2, 284095, Note_on_c, 0, 69, 0
2, 284220, Note_on_c, 0, 69, 53
2, 284220, Note_on_c, 0, 57, 53
2, 284220, Note_on_c, 0, 45, 53
2, 284275, Note_on_c, 0, 45, 0
2, 284275, Note_on_c, 0, 69, 0
2, 284275, Note_on_c, 0, 57, 0
2, 284280, Note_on_c, 0, 69, 53
2, 284280, Note_on_c, 0, 57, 53
2, 284280, Note_on_c, 0, 45, 53
2, 284335, Note_on_c, 0, 45, 0
2, 284335, Note_on_c, 0, 69, 0
2, 284335, Note_on_c, 0, 57, 0
2, 284400, Note_on_c, 0, 74, 56
2, 284400, Note_on_c, 0, 62, 56
2, 284400, Note_on_c, 0, 41, 57
2, 284400, Note_on_c, 0, 38, 57
2, 284455, Note_on_c, 0, 38, 0
2, 284455, Note_on_c, 0, 41, 0
2, 284455, Note_on_c, 0, 74, 0
2, 284455, Note_on_c, 0, 62, 0
2, 284520, Note_on_c, 0, 76, 59
2, 284520, Note_on_c, 0, 64, 59
2, 284575, Note_on_c, 0, 64, 0
2, 284575, Note_on_c, 0, 76, 0
2, 284580, Note_on_c, 0, 33, 59
2, 284580, Note_on_c, 0, 29, 59
2, 284635, Note_on_c, 0, 29, 0
2, 284635, Note_on_c, 0, 33, 0
2, 284640, Note_on_c, 0, 77, 62
2, 284640, Note_on_c, 0, 65, 62
2, 284640, Note_on_c, 0, 33, 62
2, 284640, Note_on_c, 0, 29, 62
2, 284695, Note_on_c, 0, 29, 0
2, 284695, Note_on_c, 0, 33, 0
2, 284695, Note_on_c, 0, 77, 0
2, 284695, Note_on_c, 0, 65, 0
2, 284760, Note_on_c, 0, 81, 66
2, 284760, Note_on_c, 0, 69, 66
2, 284760, Note_on_c, 0, 57, 66
2, 284760, Note_on_c, 0, 45, 66
2, 284815, Note_on_c, 0, 45, 0
2, 284815, Note_on_c, 0, 57, 0
2, 284815, Note_on_c, 0, 81, 0
2, 284815, Note_on_c, 0, 69, 0
2, 284940, Note_on_c, 0, 69, 68
2, 284940, Note_on_c, 0, 57, 68
2, 284940, Note_on_c, 0, 45, 68
2, 284995, Note_on_c, 0, 45, 0
2, 284995, Note_on_c, 0, 69, 0
2, 284995, Note_on_c, 0, 57, 0
2, 285000, Note_on_c, 0, 69, 70
2, 285000, Note_on_c, 0, 57, 70
2, 285000, Note_on_c, 0, 45, 70
2, 285055, Note_on_c, 0, 45, 0
2, 285055, Note_on_c, 0, 69, 0
2, 285055, Note_on_c, 0, 57, 0
2, 285120, Note_on_c, 0, 74, 73
2, 285120, Note_on_c, 0, 62, 73
2, 285120, Note_on_c, 0, 41, 75
2, 285120, Note_on_c, 0, 38, 75
2, 285175, Note_on_c, 0, 38, 0
2, 285175, Note_on_c, 0, 41, 0
2, 285175, Note_on_c, 0, 74, 0
2, 285175, Note_on_c, 0, 62, 0
2, 285240, Note_on_c, 0, 76, 76
2, 285240, Note_on_c, 0, 64, 76
2, 285295, Note_on_c, 0, 64, 0
2, 285295, Note_on_c, 0, 76, 0
2, 285300, Note_on_c, 0, 33, 76
2, 285300, Note_on_c, 0, 29, 76
2, 285355, Note_on_c, 0, 29, 0
2, 285355, Note_on_c, 0, 33, 0
2, 285360, Note_on_c, 0, 77, 79
2, 285360, Note_on_c, 0, 65, 79
2, 285360, Note_on_c, 0, 33, 79
2, 285360, Note_on_c, 0, 29, 79
2, 285415, Note_on_c, 0, 29, 0
2, 285415, Note_on_c, 0, 33, 0
2, 285415, Note_on_c, 0, 77, 0
2, 285415, Note_on_c, 0, 65, 0
2, 285480, Note_on_c, 0, 81, 84
2, 285480, Note_on_c, 0, 69, 84
2, 285480, Note_on_c, 0, 57, 84
2, 285480, Note_on_c, 0, 45, 84
2, 285535, Note_on_c, 0, 45, 0
2, 285535, Note_on_c, 0, 57, 0
2, 285535, Note_on_c, 0, 81, 0
2, 285535, Note_on_c, 0, 69, 0
2, 285660, Note_on_c, 0, 69, 85
2, 285660, Note_on_c, 0, 57, 85
2, 285660, Note_on_c, 0, 45, 85
2, 285715, Note_on_c, 0, 45, 0
2, 285715, Note_on_c, 0, 69, 0
2, 285715, Note_on_c, 0, 57, 0
2, 285720, Note_on_c, 0, 69, 88
2, 285720, Note_on_c, 0, 57, 88
2, 285720, Note_on_c, 0, 45, 88
2, 285775, Note_on_c, 0, 45, 0
2, 285775, Note_on_c, 0, 69, 0
2, 285775, Note_on_c, 0, 57, 0
2, 285840, Note_on_c, 0, 74, 91
2, 285840, Note_on_c, 0, 62, 91
2, 285840, Note_on_c, 0, 41, 92
2, 285840, Note_on_c, 0, 38, 92
2, 285895, Note_on_c, 0, 38, 0
2, 285895, Note_on_c, 0, 41, 0
2, 285895, Note_on_c, 0, 74, 0
2, 285895, Note_on_c, 0, 62, 0
2, 285960, Note_on_c, 0, 76, 94
2, 285960, Note_on_c, 0, 64, 94
2, 286015, Note_on_c, 0, 64, 0
2, 286015, Note_on_c, 0, 76, 0
2, 286020, Note_on_c, 0, 33, 94
2, 286020, Note_on_c, 0, 29, 94
2, 286075, Note_on_c, 0, 29, 0
2, 286075, Note_on_c, 0, 33, 0
2, 286080, Note_on_c, 0, 77, 97
2, 286080, Note_on_c, 0, 65, 97
2, 286080, Note_on_c, 0, 33, 97
2, 286080, Note_on_c, 0, 29, 97
2, 286135, Note_on_c, 0, 29, 0
2, 286135, Note_on_c, 0, 33, 0
2, 286135, Note_on_c, 0, 77, 0
2, 286135, Note_on_c, 0, 65, 0
2, 286200, Note_on_c, 0, 81, 101
2, 286200, Note_on_c, 0, 69, 101
2, 286200, Note_on_c, 0, 57, 101
2, 286200, Note_on_c, 0, 45, 101
2, 286255, Note_on_c, 0, 45, 0
2, 286255, Note_on_c, 0, 57, 0
2, 286255, Note_on_c, 0, 81, 0
2, 286255, Note_on_c, 0, 69, 0
2, 286380, Note_on_c, 0, 69, 102
2, 286380, Note_on_c, 0, 57, 102
2, 286380, Note_on_c, 0, 45, 102
2, 286435, Note_on_c, 0, 45, 0
2, 286435, Note_on_c, 0, 69, 0
2, 286435, Note_on_c, 0, 57, 0
2, 286440, Note_on_c, 0, 69, 105
2, 286440, Note_on_c, 0, 57, 105
2, 286440, Note_on_c, 0, 45, 105
2, 286495, Note_on_c, 0, 45, 0
2, 286495, Note_on_c, 0, 69, 0
2, 286495, Note_on_c, 0, 57, 0
2, 286560, Note_on_c, 0, 74, 108
2, 286560, Note_on_c, 0, 62, 108
2, 286560, Note_on_c, 0, 41, 110
2, 286560, Note_on_c, 0, 38, 110
2, 286615, Note_on_c, 0, 38, 0
2, 286615, Note_on_c, 0, 41, 0
2, 286615, Note_on_c, 0, 74, 0
2, 286615, Note_on_c, 0, 62, 0
2, 286680, Note_on_c, 0, 76, 111
2, 286680, Note_on_c, 0, 64, 111
2, 286735, Note_on_c, 0, 64, 0
2, 286735, Note_on_c, 0, 76, 0
2, 286740, Note_on_c, 0, 33, 111
2, 286740, Note_on_c, 0, 29, 111
2, 286795, Note_on_c, 0, 29, 0
2, 286795, Note_on_c, 0, 33, 0
2, 286800, Note_on_c, 0, 77, 114
2, 286800, Note_on_c, 0, 65, 114
2, 286800, Note_on_c, 0, 33, 114
2, 286800, Note_on_c, 0, 29, 114
2, 286855, Note_on_c, 0, 29, 0
2, 286855, Note_on_c, 0, 33, 0
2, 286855, Note_on_c, 0, 77, 0
2, 286855, Note_on_c, 0, 65, 0
2, 286920, Note_on_c, 0, 81, 117
2, 286920, Note_on_c, 0, 69, 117
2, 286920, Note_on_c, 0, 57, 117
2, 287035, Note_on_c, 0, 57, 0
2, 287035, Note_on_c, 0, 81, 0
2, 287035, Note_on_c, 0, 69, 0
2, 287040, Note_on_c, 0, 69, 90
2, 287040, Note_on_c, 0, 57, 90
2, 287040, Note_on_c, 0, 45, 90
2, 287155, Note_on_c, 0, 45, 0
2, 287155, Note_on_c, 0, 69, 0
2, 287155, Note_on_c, 0, 57, 0
2, 287160, Note_on_c, 0, 86, 117
2, 287160, Note_on_c, 0, 74, 117
2, 287160, Note_on_c, 0, 62, 117
2, 287275, Note_on_c, 0, 62, 0
2, 287275, Note_on_c, 0, 86, 0
2, 287275, Note_on_c, 0, 74, 0
2, 287280, Note_on_c, 0, 74, 90
2, 287280, Note_on_c, 0, 62, 90
2, 287280, Note_on_c, 0, 50, 90
2, 287395, Note_on_c, 0, 50, 0
2, 287395, Note_on_c, 0, 74, 0
2, 287395, Note_on_c, 0, 62, 0
2, 287400, Note_on_c, 0, 81, 117
2, 287400, Note_on_c, 0, 69, 117
2, 287400, Note_on_c, 0, 57, 117
2, 287515, Note_on_c, 0, 57, 0
2, 287515, Note_on_c, 0, 81, 0
2, 287515, Note_on_c, 0, 69, 0
2, 287520, Note_on_c, 0, 69, 90
2, 287520, Note_on_c, 0, 57, 90
2, 287520, Note_on_c, 0, 45, 90
2, 287635, Note_on_c, 0, 45, 0
2, 287635, Note_on_c, 0, 69, 0
2, 287635, Note_on_c, 0, 57, 0
2, 287640, Note_on_c, 0, 93, 117
2, 287640, Note_on_c, 0, 81, 117
2, 287640, Note_on_c, 0, 69, 117
2, 287640, Note_on_c, 0, 57, 117
2, 287755, Note_on_c, 0, 57, 0
2, 287755, Note_on_c, 0, 69, 0
2, 287755, Note_on_c, 0, 93, 0
2, 287755, Note_on_c, 0, 81, 0
2, 287760, Note_on_c, 0, 81, 90
2, 287760, Note_on_c, 0, 69, 90
2, 287760, Note_on_c, 0, 57, 90
2, 287760, Note_on_c, 0, 45, 90
2, 287875, Note_on_c, 0, 45, 0
2, 287875, Note_on_c, 0, 57, 0
2, 287875, Note_on_c, 0, 81, 0
2, 287875, Note_on_c, 0, 69, 0
2, 287880, Note_on_c, 0, 74, 71
2, 287880, Note_on_c, 0, 50, 71
2, 287880, Note_on_c, 0, 62, 71
2, 287880, Note_on_c, 0, 38, 71
2, 287995, Note_on_c, 0, 38, 0
2, 287995, Note_on_c, 0, 62, 0
2, 287995, Note_on_c, 0, 50, 0
2, 288120, Note_on_c, 0, 62, 53
2, 288180, Note_on_c, 0, 62, 0
2, 288240, Note_on_c, 0, 61, 53
2, 288300, Note_on_c, 0, 61, 0
2, 288355, Note_on_c, 0, 74, 0
2, 288360, Note_on_c, 0, 62, 53
2, 288360, Note_on_c, 0, 74, 53
2, 288420, Note_on_c, 0, 62, 0
2, 288475, Note_on_c, 0, 74, 0
2, 288480, Note_on_c, 0, 59, 53
2, 288540, Note_on_c, 0, 59, 0
2, 288600, Note_on_c, 0, 76, 53
2, 288600, Note_on_c, 0, 57, 53
2, 288660, Note_on_c, 0, 57, 0
2, 288720, Note_on_c, 0, 55, 53
2, 288780, Note_on_c, 0, 55, 0
2, 288835, Note_on_c, 0, 76, 0
2, 288840, Note_on_c, 0, 78, 53
2, 288840, Note_on_c, 0, 74, 53
2, 288840, Note_on_c, 0, 54, 53
2, 288900, Note_on_c, 0, 54, 0
2, 288960, Note_on_c, 0, 52, 53
2, 289020, Note_on_c, 0, 52, 0
2, 289080, Note_on_c, 0, 50, 53
2, 289140, Note_on_c, 0, 50, 0
2, 289195, Note_on_c, 0, 78, 0
2, 289195, Note_on_c, 0, 74, 0
2, 289200, Note_on_c, 0, 79, 53
2, 289200, Note_on_c, 0, 76, 53
2, 289200, Note_on_c, 0, 48, 53
2, 289255, Note_on_c, 0, 76, 0
2, 289255, Note_on_c, 0, 79, 0
2, 289260, Note_on_c, 0, 48, 0
2, 289260, Note_on_c, 0, 81, 53
2, 289260, Note_on_c, 0, 78, 53
2, 289315, Note_on_c, 0, 78, 0
2, 289315, Note_on_c, 0, 81, 0
2, 289320, Note_on_c, 0, 79, 53
2, 289320, Note_on_c, 0, 74, 53
2, 289320, Note_on_c, 0, 47, 53
2, 289380, Note_on_c, 0, 47, 0
2, 289380, Note_on_c, 0, 79, 0
2, 289380, Note_on_c, 0, 74, 0
2, 289440, Note_on_c, 0, 79, 53
2, 289440, Note_on_c, 0, 76, 53
2, 289440, Note_on_c, 0, 49, 53
2, 289500, Note_on_c, 0, 49, 0
2, 289500, Note_on_c, 0, 79, 0
2, 289500, Note_on_c, 0, 76, 0
2, 289560, Note_on_c, 0, 78, 53
2, 289560, Note_on_c, 0, 74, 53
2, 289560, Note_on_c, 0, 50, 53
2, 289620, Note_on_c, 0, 50, 0
2, 289620, Note_on_c, 0, 78, 0
2, 289620, Note_on_c, 0, 74, 0
2, 289680, Note_on_c, 0, 78, 53
2, 289680, Note_on_c, 0, 62, 53
2, 289680, Note_on_c, 0, 54, 53
2, 289740, Note_on_c, 0, 54, 0
2, 289740, Note_on_c, 0, 78, 0
2, 289740, Note_on_c, 0, 62, 0
2, 289800, Note_on_c, 0, 76, 53
2, 289800, Note_on_c, 0, 73, 53
2, 289800, Note_on_c, 0, 57, 53
2, 289855, Note_on_c, 0, 57, 0
2, 289855, Note_on_c, 0, 73, 0
2, 289920, Note_on_c, 0, 67, 53
2, 289920, Note_on_c, 0, 61, 53
2, 289975, Note_on_c, 0, 61, 0
2, 289975, Note_on_c, 0, 67, 0
2, 290035, Note_on_c, 0, 76, 0
2, 290040, Note_on_c, 0, 74, 53
2, 290040, Note_on_c, 0, 66, 53
2, 290040, Note_on_c, 0, 62, 53
2, 290095, Note_on_c, 0, 66, 0
2, 290100, Note_on_c, 0, 62, 0
2, 290155, Note_on_c, 0, 74, 0
2, 290160, Note_on_c, 0, 74, 53
2, 290160, Note_on_c, 0, 61, 53
2, 290220, Note_on_c, 0, 61, 0
2, 290280, Note_on_c, 0, 62, 53
2, 290340, Note_on_c, 0, 62, 0
2, 290400, Note_on_c, 0, 59, 53
2, 290460, Note_on_c, 0, 59, 0
2, 290520, Note_on_c, 0, 76, 53
2, 290520, Note_on_c, 0, 57, 53
2, 290580, Note_on_c, 0, 57, 0
2, 290640, Note_on_c, 0, 55, 53
2, 290660, Note_on_c, 0, 74, 0
2, 290700, Note_on_c, 0, 55, 0
2, 290755, Note_on_c, 0, 76, 0
2, 290760, Note_on_c, 0, 78, 53
2, 290760, Note_on_c, 0, 74, 53
2, 290760, Note_on_c, 0, 54, 53
2, 290820, Note_on_c, 0, 54, 0
2, 290880, Note_on_c, 0, 52, 53
2, 290940, Note_on_c, 0, 52, 0
2, 291000, Note_on_c, 0, 50, 53
2, 291060, Note_on_c, 0, 50, 0
2, 291115, Note_on_c, 0, 78, 0
2, 291115, Note_on_c, 0, 74, 0
2, 291120, Note_on_c, 0, 79, 53
2, 291120, Note_on_c, 0, 76, 53
2, 291120, Note_on_c, 0, 48, 53
2, 291175, Note_on_c, 0, 48, 0
2, 291175, Note_on_c, 0, 79, 0
2, 291175, Note_on_c, 0, 76, 0
2, 291180, Note_on_c, 0, 81, 53
2, 291180, Note_on_c, 0, 78, 53
2, 291235, Note_on_c, 0, 78, 0
2, 291235, Note_on_c, 0, 81, 0
2, 291240, Note_on_c, 0, 79, 53
2, 291240, Note_on_c, 0, 74, 53
2, 291240, Note_on_c, 0, 47, 53
2, 291295, Note_on_c, 0, 47, 0
2, 291295, Note_on_c, 0, 79, 0
2, 291295, Note_on_c, 0, 74, 0
2, 291360, Note_on_c, 0, 79, 53
2, 291360, Note_on_c, 0, 76, 53
2, 291360, Note_on_c, 0, 49, 53
2, 291415, Note_on_c, 0, 49, 0
2, 291415, Note_on_c, 0, 79, 0
2, 291415, Note_on_c, 0, 76, 0
2, 291480, Note_on_c, 0, 78, 53
2, 291480, Note_on_c, 0, 74, 53
2, 291480, Note_on_c, 0, 62, 53
2, 291480, Note_on_c, 0, 50, 53
2, 291535, Note_on_c, 0, 50, 0
2, 291535, Note_on_c, 0, 62, 0
2, 291535, Note_on_c, 0, 78, 0
2, 291535, Note_on_c, 0, 74, 0
2, 291600, Note_on_c, 0, 78, 53
2, 291600, Note_on_c, 0, 56, 53
2, 291655, Note_on_c, 0, 56, 0
2, 291655, Note_on_c, 0, 78, 0
2, 291720, Note_on_c, 0, 76, 53
2, 291720, Note_on_c, 0, 73, 53
2, 291720, Note_on_c, 0, 57, 53
2, 291775, Note_on_c, 0, 57, 0
2, 291775, Note_on_c, 0, 76, 0
2, 291775, Note_on_c, 0, 73, 0
2, 291960, Note_on_c, 0, 74, 53
2, 291960, Note_on_c, 0, 62, 53
2, 292015, Note_on_c, 0, 62, 0
2, 292080, Note_on_c, 0, 61, 53
2, 292135, Note_on_c, 0, 61, 0
2, 292200, Note_on_c, 0, 62, 53
2, 292255, Note_on_c, 0, 62, 0
2, 292320, Note_on_c, 0, 59, 53
2, 292375, Note_on_c, 0, 59, 0
2, 292435, Note_on_c, 0, 74, 0
2, 292440, Note_on_c, 0, 76, 53
2, 292440, Note_on_c, 0, 57, 53
2, 292495, Note_on_c, 0, 57, 0
2, 292560, Note_on_c, 0, 55, 53
2, 292615, Note_on_c, 0, 55, 0
2, 292675, Note_on_c, 0, 76, 0
2, 292680, Note_on_c, 0, 78, 53
2, 292680, Note_on_c, 0, 74, 53
2, 292680, Note_on_c, 0, 54, 53
2, 292740, Note_on_c, 0, 54, 0
2, 292800, Note_on_c, 0, 52, 53
2, 292860, Note_on_c, 0, 52, 0
2, 292920, Note_on_c, 0, 50, 53
2, 292980, Note_on_c, 0, 50, 0
2, 293035, Note_on_c, 0, 78, 0
2, 293035, Note_on_c, 0, 74, 0
2, 293040, Note_on_c, 0, 79, 53
2, 293040, Note_on_c, 0, 76, 53
2, 293040, Note_on_c, 0, 48, 53
2, 293095, Note_on_c, 0, 76, 0
2, 293095, Note_on_c, 0, 79, 0
2, 293100, Note_on_c, 0, 48, 0
2, 293100, Note_on_c, 0, 81, 53
2, 293100, Note_on_c, 0, 78, 53
2, 293155, Note_on_c, 0, 78, 0
2, 293155, Note_on_c, 0, 81, 0
2, 293160, Note_on_c, 0, 79, 53
2, 293160, Note_on_c, 0, 74, 53
2, 293160, Note_on_c, 0, 47, 53
2, 293220, Note_on_c, 0, 47, 0
2, 293220, Note_on_c, 0, 79, 0
2, 293220, Note_on_c, 0, 74, 0
2, 293280, Note_on_c, 0, 79, 53
2, 293280, Note_on_c, 0, 76, 53
2, 293280, Note_on_c, 0, 49, 53
2, 293340, Note_on_c, 0, 49, 0
2, 293340, Note_on_c, 0, 79, 0
2, 293340, Note_on_c, 0, 76, 0
2, 293400, Note_on_c, 0, 78, 53
2, 293400, Note_on_c, 0, 74, 53
2, 293400, Note_on_c, 0, 50, 53
2, 293460, Note_on_c, 0, 50, 0
2, 293460, Note_on_c, 0, 78, 0
2, 293460, Note_on_c, 0, 74, 0
2, 293520, Note_on_c, 0, 78, 53
2, 293520, Note_on_c, 0, 62, 53
2, 293520, Note_on_c, 0, 54, 53
2, 293580, Note_on_c, 0, 54, 0
2, 293580, Note_on_c, 0, 78, 0
2, 293580, Note_on_c, 0, 62, 0
2, 293640, Note_on_c, 0, 76, 53
2, 293640, Note_on_c, 0, 73, 53
2, 293640, Note_on_c, 0, 57, 53
2, 293695, Note_on_c, 0, 57, 0
2, 293695, Note_on_c, 0, 73, 0
2, 293760, Note_on_c, 0, 67, 53
2, 293760, Note_on_c, 0, 61, 53
2, 293815, Note_on_c, 0, 61, 0
2, 293815, Note_on_c, 0, 67, 0
2, 293875, Note_on_c, 0, 76, 0
2, 293880, Note_on_c, 0, 74, 53
2, 293880, Note_on_c, 0, 66, 53
2, 293880, Note_on_c, 0, 62, 53
2, 293935, Note_on_c, 0, 66, 0
2, 293940, Note_on_c, 0, 62, 0
2, 293995, Note_on_c, 0, 74, 0
2, 294000, Note_on_c, 0, 74, 53
2, 294000, Note_on_c, 0, 61, 53
2, 294060, Note_on_c, 0, 61, 0
2, 294120, Note_on_c, 0, 62, 53
2, 294180, Note_on_c, 0, 62, 0
2, 294240, Note_on_c, 0, 59, 53
2, 294300, Note_on_c, 0, 59, 0
2, 294360, Note_on_c, 0, 76, 53
2, 294360, Note_on_c, 0, 57, 53
2, 294420, Note_on_c, 0, 57, 0
2, 294480, Note_on_c, 0, 55, 53
2, 294500, Note_on_c, 0, 74, 0
2, 294540, Note_on_c, 0, 55, 0
2, 294595, Note_on_c, 0, 76, 0
2, 294600, Note_on_c, 0, 78, 53
2, 294600, Note_on_c, 0, 74, 53
2, 294600, Note_on_c, 0, 54, 53
2, 294660, Note_on_c, 0, 54, 0
2, 294720, Note_on_c, 0, 52, 53
2, 294780, Note_on_c, 0, 52, 0
2, 294840, Note_on_c, 0, 50, 53
2, 294900, Note_on_c, 0, 50, 0
2, 294955, Note_on_c, 0, 78, 0
2, 294955, Note_on_c, 0, 74, 0
2, 294960, Note_on_c, 0, 79, 53
2, 294960, Note_on_c, 0, 76, 53
2, 294960, Note_on_c, 0, 48, 53
2, 295015, Note_on_c, 0, 48, 0
2, 295015, Note_on_c, 0, 79, 0
2, 295015, Note_on_c, 0, 76, 0
2, 295020, Note_on_c, 0, 81, 53
2, 295020, Note_on_c, 0, 78, 53
2, 295075, Note_on_c, 0, 78, 0
2, 295075, Note_on_c, 0, 81, 0
2, 295080, Note_on_c, 0, 79, 53
2, 295080, Note_on_c, 0, 74, 53
2, 295080, Note_on_c, 0, 47, 53
2, 295135, Note_on_c, 0, 47, 0
2, 295135, Note_on_c, 0, 79, 0
2, 295135, Note_on_c, 0, 74, 0
2, 295200, Note_on_c, 0, 79, 53
2, 295200, Note_on_c, 0, 76, 53
2, 295200, Note_on_c, 0, 49, 53
2, 295255, Note_on_c, 0, 49, 0
2, 295255, Note_on_c, 0, 79, 0
2, 295255, Note_on_c, 0, 76, 0
2, 295320, Note_on_c, 0, 78, 53
2, 295320, Note_on_c, 0, 62, 53
2, 295320, Note_on_c, 0, 50, 53
2, 295375, Note_on_c, 0, 50, 0
2, 295375, Note_on_c, 0, 78, 0
2, 295375, Note_on_c, 0, 62, 0
2, 295440, Note_on_c, 0, 78, 53
2, 295440, Note_on_c, 0, 74, 53
2, 295440, Note_on_c, 0, 56, 53
2, 295495, Note_on_c, 0, 56, 0
2, 295495, Note_on_c, 0, 78, 0
2, 295495, Note_on_c, 0, 74, 0
2, 295560, Note_on_c, 0, 57, 53
2, 295560, Note_on_c, 0, 73, 53
2, 295560, Note_on_c, 0, 76, 53
2, 295615, Note_on_c, 0, 76, 0
2, 295615, Note_on_c, 0, 57, 0
2, 295615, Note_on_c, 0, 73, 0
2, 295800, Note_on_c, 0, 38, 53
2, 295800, Note_on_c, 0, 50, 53
2, 295915, Note_on_c, 0, 50, 0
2, 295920, Note_on_c, 0, 52, 53
2, 296035, Note_on_c, 0, 52, 0
2, 296040, Note_on_c, 0, 54, 53
2, 296155, Note_on_c, 0, 54, 0
2, 296160, Note_on_c, 0, 55, 53
2, 296275, Note_on_c, 0, 55, 0
2, 296280, Note_on_c, 0, 57, 53
2, 296280, Note_on_c, 0, 50, 53
2, 296300, Note_on_c, 0, 38, 0
2, 296395, Note_on_c, 0, 57, 0
2, 296400, Note_on_c, 0, 59, 53
2, 296515, Note_on_c, 0, 59, 0
2, 296515, Note_on_c, 0, 50, 0
2, 296520, Note_on_c, 0, 59, 53
2, 296520, Note_on_c, 0, 49, 53
2, 296520, Note_on_c, 0, 37, 53
2, 296635, Note_on_c, 0, 59, 0
2, 296640, Note_on_c, 0, 57, 53
2, 296655, Note_on_c, 0, 53, 0
2, 296755, Note_on_c, 0, 57, 0
2, 296760, Note_on_c, 0, 59, 53
2, 296760, Note_on_c, 0, 57, 53
2, 296760, Note_on_c, 0, 69, 53
2, 296875, Note_on_c, 0, 59, 0
2, 296880, Note_on_c, 0, 61, 53
2, 296995, Note_on_c, 0, 61, 0
2, 296995, Note_on_c, 0, 49, 0
2, 296995, Note_on_c, 0, 37, 0
2, 297000, Note_on_c, 0, 62, 53
2, 297000, Note_on_c, 0, 47, 53
2, 297000, Note_on_c, 0, 35, 53
2, 297115, Note_on_c, 0, 62, 0
2, 297120, Note_on_c, 0, 61, 53
2, 297235, Note_on_c, 0, 61, 0
2, 297235, Note_on_c, 0, 69, 0
2, 297235, Note_on_c, 0, 57, 0
2, 297240, Note_on_c, 0, 62, 53
2, 297240, Note_on_c, 0, 56, 53
2, 297240, Note_on_c, 0, 68, 53
2, 297355, Note_on_c, 0, 62, 0
2, 297360, Note_on_c, 0, 64, 53
2, 297475, Note_on_c, 0, 64, 0
2, 297475, Note_on_c, 0, 68, 0
2, 297475, Note_on_c, 0, 35, 0
2, 297475, Note_on_c, 0, 47, 0
2, 297475, Note_on_c, 0, 56, 0
2, 297480, Note_on_c, 0, 62, 53
2, 297480, Note_on_c, 0, 45, 53
2, 297480, Note_on_c, 0, 57, 53
2, 297480, Note_on_c, 0, 69, 53
2, 297480, Note_on_c, 0, 33, 53
2, 297595, Note_on_c, 0, 62, 0
2, 297600, Note_on_c, 0, 61, 53
2, 297715, Note_on_c, 0, 61, 0
2, 297715, Note_on_c, 0, 45, 0
2, 297715, Note_on_c, 0, 57, 0
2, 297720, Note_on_c, 0, 62, 53
2, 297720, Note_on_c, 0, 71, 53
2, 297720, Note_on_c, 0, 59, 53
2, 297835, Note_on_c, 0, 59, 0
2, 297835, Note_on_c, 0, 71, 0
2, 297835, Note_on_c, 0, 62, 0
2, 297840, Note_on_c, 0, 64, 53
2, 297840, Note_on_c, 0, 73, 53
2, 297840, Note_on_c, 0, 61, 53
2, 297955, Note_on_c, 0, 61, 0
2, 297955, Note_on_c, 0, 73, 0
2, 297955, Note_on_c, 0, 64, 0
2, 297960, Note_on_c, 0, 66, 53
2, 297960, Note_on_c, 0, 74, 53
2, 297960, Note_on_c, 0, 62, 53
2, 297980, Note_on_c, 0, 33, 0
2, 297980, Note_on_c, 0, 69, 0
2, 298075, Note_on_c, 0, 74, 0
2, 298075, Note_on_c, 0, 62, 0
2, 298075, Note_on_c, 0, 66, 0
2, 298080, Note_on_c, 0, 64, 53
2, 298080, Note_on_c, 0, 73, 53
2, 298080, Note_on_c, 0, 61, 53
2, 298095, Note_on_c, 0, 53, 0
2, 298195, Note_on_c, 0, 73, 0
2, 298195, Note_on_c, 0, 64, 0
2, 298195, Note_on_c, 0, 61, 0
2, 298200, Note_on_c, 0, 66, 53
2, 298200, Note_on_c, 0, 74, 53
2, 298200, Note_on_c, 0, 62, 53
2, 298200, Note_on_c, 0, 43, 53
2, 298200, Note_on_c, 0, 31, 53
2, 298315, Note_on_c, 0, 62, 0
2, 298315, Note_on_c, 0, 74, 0
2, 298315, Note_on_c, 0, 66, 0
2, 298320, Note_on_c, 0, 67, 53
2, 298320, Note_on_c, 0, 76, 53
2, 298320, Note_on_c, 0, 64, 53
2, 298435, Note_on_c, 0, 64, 0
2, 298435, Note_on_c, 0, 67, 0
2, 298435, Note_on_c, 0, 31, 0
2, 298435, Note_on_c, 0, 43, 0
2, 298435, Note_on_c, 0, 76, 0
2, 298440, Note_on_c, 0, 69, 53
2, 298440, Note_on_c, 0, 78, 53
2, 298440, Note_on_c, 0, 66, 53
2, 298440, Note_on_c, 0, 42, 53
2, 298440, Note_on_c, 0, 30, 53
2, 298555, Note_on_c, 0, 30, 0
2, 298555, Note_on_c, 0, 78, 0
2, 298555, Note_on_c, 0, 69, 0
2, 298555, Note_on_c, 0, 66, 0
2, 298560, Note_on_c, 0, 81, 53
2, 298560, Note_on_c, 0, 69, 53
2, 298675, Note_on_c, 0, 69, 0
2, 298675, Note_on_c, 0, 42, 0
2, 298675, Note_on_c, 0, 81, 0
2, 298680, Note_on_c, 0, 79, 53
2, 298680, Note_on_c, 0, 83, 53
2, 298680, Note_on_c, 0, 71, 53
2, 298680, Note_on_c, 0, 40, 53
2, 298795, Note_on_c, 0, 40, 0
2, 298795, Note_on_c, 0, 83, 0
2, 298795, Note_on_c, 0, 79, 0
2, 298795, Note_on_c, 0, 71, 0
2, 298800, Note_on_c, 0, 76, 53
2, 298800, Note_on_c, 0, 79, 53
2, 298800, Note_on_c, 0, 67, 53
2, 298800, Note_on_c, 0, 43, 53
2, 298915, Note_on_c, 0, 43, 0
2, 298915, Note_on_c, 0, 79, 0
2, 298915, Note_on_c, 0, 76, 0
2, 298915, Note_on_c, 0, 67, 0
2, 298920, Note_on_c, 0, 74, 53
2, 298920, Note_on_c, 0, 78, 53
2, 298920, Note_on_c, 0, 66, 53
2, 298920, Note_on_c, 0, 45, 53
2, 298975, Note_on_c, 0, 45, 0
2, 298975, Note_on_c, 0, 78, 0
2, 298975, Note_on_c, 0, 74, 0
2, 298975, Note_on_c, 0, 66, 0
2, 299160, Note_on_c, 0, 73, 53
2, 299160, Note_on_c, 0, 76, 53
2, 299160, Note_on_c, 0, 64, 53
2, 299160, Note_on_c, 0, 45, 53
2, 299160, Note_on_c, 0, 33, 53
2, 299215, Note_on_c, 0, 33, 0
2, 299215, Note_on_c, 0, 64, 0
2, 299215, Note_on_c, 0, 76, 0
2, 299215, Note_on_c, 0, 73, 0
2, 299215, Note_on_c, 0, 45, 0
2, 299400, Note_on_c, 0, 74, 53
2, 299400, Note_on_c, 0, 62, 53
2, 299400, Note_on_c, 0, 50, 53
2, 299400, Note_on_c, 0, 38, 53
2, 299455, Note_on_c, 0, 38, 0
2, 299455, Note_on_c, 0, 74, 0
2, 299455, Note_on_c, 0, 62, 0
2, 299520, Note_on_c, 0, 66, 53
2, 299635, Note_on_c, 0, 66, 0
2, 299640, Note_on_c, 0, 62, 53
2, 299755, Note_on_c, 0, 62, 0
2, 299755, Note_on_c, 0, 50, 0
2, 299760, Note_on_c, 0, 61, 53
2, 299760, Note_on_c, 0, 52, 53
2, 299875, Note_on_c, 0, 52, 0
2, 299875, Note_on_c, 0, 61, 0
2, 299880, Note_on_c, 0, 62, 53
2, 299880, Note_on_c, 0, 54, 53
2, 299880, Note_on_c, 0, 50, 53
2, 299995, Note_on_c, 0, 54, 0
2, 299995, Note_on_c, 0, 62, 0
2, 300000, Note_on_c, 0, 64, 53
2, 300000, Note_on_c, 0, 55, 53
2, 300115, Note_on_c, 0, 55, 0
2, 300115, Note_on_c, 0, 64, 0
2, 300120, Note_on_c, 0, 66, 53
2, 300120, Note_on_c, 0, 57, 53
2, 300235, Note_on_c, 0, 57, 0
2, 300235, Note_on_c, 0, 66, 0
2, 300240, Note_on_c, 0, 67, 53
2, 300240, Note_on_c, 0, 59, 53
2, 300355, Note_on_c, 0, 59, 0
2, 300355, Note_on_c, 0, 50, 0
2, 300355, Note_on_c, 0, 67, 0
2, 300360, Note_on_c, 0, 64, 56
2, 300360, Note_on_c, 0, 59, 56
2, 300360, Note_on_c, 0, 49, 66
2, 300475, Note_on_c, 0, 59, 0
2, 300475, Note_on_c, 0, 64, 0
2, 300480, Note_on_c, 0, 69, 60
2, 300480, Note_on_c, 0, 57, 60
2, 300595, Note_on_c, 0, 57, 0
2, 300595, Note_on_c, 0, 69, 0
2, 300600, Note_on_c, 0, 68, 63
2, 300600, Note_on_c, 0, 59, 63
2, 300715, Note_on_c, 0, 59, 0
2, 300715, Note_on_c, 0, 68, 0
2, 300720, Note_on_c, 0, 69, 66
2, 300720, Note_on_c, 0, 61, 66
2, 300835, Note_on_c, 0, 61, 0
2, 300835, Note_on_c, 0, 49, 0
2, 300835, Note_on_c, 0, 69, 0
2, 300840, Note_on_c, 0, 71, 70
2, 300840, Note_on_c, 0, 62, 70
2, 300840, Note_on_c, 0, 47, 80
2, 300955, Note_on_c, 0, 62, 0
2, 300955, Note_on_c, 0, 71, 0
2, 300960, Note_on_c, 0, 64, 73
2, 300960, Note_on_c, 0, 61, 73
2, 301075, Note_on_c, 0, 61, 0
2, 301075, Note_on_c, 0, 64, 0
2, 301080, Note_on_c, 0, 66, 77
2, 301080, Note_on_c, 0, 62, 77
2, 301195, Note_on_c, 0, 62, 0
2, 301195, Note_on_c, 0, 66, 0
2, 301200, Note_on_c, 0, 68, 80
2, 301200, Note_on_c, 0, 64, 80
2, 301315, Note_on_c, 0, 64, 0
2, 301315, Note_on_c, 0, 47, 0
2, 301315, Note_on_c, 0, 68, 0
2, 301320, Note_on_c, 0, 69, 83
2, 301320, Note_on_c, 0, 62, 83
2, 301320, Note_on_c, 0, 45, 83
2, 301435, Note_on_c, 0, 62, 0
2, 301440, Note_on_c, 0, 81, 87
2, 301440, Note_on_c, 0, 61, 87
2, 301555, Note_on_c, 0, 61, 0
2, 301555, Note_on_c, 0, 69, 0
2, 301555, Note_on_c, 0, 45, 0
2, 301555, Note_on_c, 0, 81, 0
2, 301560, Note_on_c, 0, 83, 90
2, 301560, Note_on_c, 0, 71, 90
2, 301560, Note_on_c, 0, 62, 90
2, 301560, Note_on_c, 0, 66, 90
2, 301560, Note_on_c, 0, 57, 90
2, 301675, Note_on_c, 0, 66, 0
2, 301675, Note_on_c, 0, 71, 0
2, 301675, Note_on_c, 0, 83, 0
2, 301675, Note_on_c, 0, 62, 0
2, 301680, Note_on_c, 0, 85, 93
2, 301680, Note_on_c, 0, 73, 93
2, 301680, Note_on_c, 0, 64, 93
2, 301680, Note_on_c, 0, 67, 93
2, 301795, Note_on_c, 0, 67, 0
2, 301795, Note_on_c, 0, 73, 0
2, 301795, Note_on_c, 0, 85, 0
2, 301795, Note_on_c, 0, 64, 0
2, 301800, Note_on_c, 0, 86, 97
2, 301800, Note_on_c, 0, 74, 97
2, 301800, Note_on_c, 0, 66, 97
2, 301800, Note_on_c, 0, 69, 97
2, 301915, Note_on_c, 0, 69, 0
2, 301915, Note_on_c, 0, 74, 0
2, 301915, Note_on_c, 0, 86, 0
2, 301915, Note_on_c, 0, 66, 0
2, 301920, Note_on_c, 0, 85, 100
2, 301920, Note_on_c, 0, 73, 100
2, 301920, Note_on_c, 0, 64, 100
2, 301920, Note_on_c, 0, 67, 100
2, 302035, Note_on_c, 0, 67, 0
2, 302035, Note_on_c, 0, 73, 0
2, 302035, Note_on_c, 0, 85, 0
2, 302035, Note_on_c, 0, 64, 0
2, 302040, Note_on_c, 0, 86, 104
2, 302040, Note_on_c, 0, 74, 104
2, 302040, Note_on_c, 0, 66, 104
2, 302060, Note_on_c, 0, 57, 0
2, 302155, Note_on_c, 0, 74, 0
2, 302155, Note_on_c, 0, 86, 0
2, 302155, Note_on_c, 0, 66, 0
2, 302160, Note_on_c, 0, 85, 107
2, 302160, Note_on_c, 0, 88, 107
2, 302160, Note_on_c, 0, 76, 107
2, 302160, Note_on_c, 0, 67, 107
2, 302160, Note_on_c, 0, 55, 107
2, 302275, Note_on_c, 0, 55, 0
2, 302275, Note_on_c, 0, 76, 0
2, 302275, Note_on_c, 0, 88, 0
2, 302275, Note_on_c, 0, 85, 0
2, 302275, Note_on_c, 0, 67, 0
2, 302280, Note_on_c, 0, 86, 110
2, 302280, Note_on_c, 0, 90, 110
2, 302280, Note_on_c, 0, 78, 110
2, 302280, Note_on_c, 0, 69, 110
2, 302280, Note_on_c, 0, 54, 110
2, 302395, Note_on_c, 0, 69, 0
2, 302395, Note_on_c, 0, 90, 0
2, 302395, Note_on_c, 0, 86, 0
2, 302395, Note_on_c, 0, 78, 0
2, 302400, Note_on_c, 0, 93, 114
2, 302400, Note_on_c, 0, 81, 114
2, 302400, Note_on_c, 0, 62, 114
2, 302515, Note_on_c, 0, 62, 0
2, 302515, Note_on_c, 0, 93, 0
2, 302515, Note_on_c, 0, 54, 0
2, 302515, Note_on_c, 0, 81, 0
2, 302520, Note_on_c, 0, 83, 117
2, 302520, Note_on_c, 0, 91, 117
2, 302520, Note_on_c, 0, 79, 117
2, 302520, Note_on_c, 0, 67, 117
2, 302520, Note_on_c, 0, 52, 117
2, 302635, Note_on_c, 0, 52, 0
2, 302635, Note_on_c, 0, 91, 0
2, 302635, Note_on_c, 0, 83, 0
2, 302635, Note_on_c, 0, 79, 0
2, 302640, Note_on_c, 0, 83, 117
2, 302640, Note_on_c, 0, 71, 117
2, 302640, Note_on_c, 0, 55, 117
2, 302755, Note_on_c, 0, 55, 0
2, 302755, Note_on_c, 0, 83, 0
2, 302755, Note_on_c, 0, 67, 0
2, 302755, Note_on_c, 0, 71, 0
2, 302760, Note_on_c, 0, 81, 53
2, 302760, Note_on_c, 0, 86, 53
2, 302760, Note_on_c, 0, 74, 53
2, 302760, Note_on_c, 0, 66, 53
2, 302760, Note_on_c, 0, 57, 53
2, 302815, Note_on_c, 0, 57, 0
2, 302815, Note_on_c, 0, 74, 0
2, 302815, Note_on_c, 0, 86, 0
2, 302815, Note_on_c, 0, 81, 0
2, 302815, Note_on_c, 0, 66, 0
2, 303000, Note_on_c, 0, 81, 53
2, 303000, Note_on_c, 0, 85, 53
2, 303000, Note_on_c, 0, 73, 53
2, 303000, Note_on_c, 0, 64, 53
2, 303000, Note_on_c, 0, 57, 53
2, 303055, Note_on_c, 0, 57, 0
2, 303055, Note_on_c, 0, 73, 0
2, 303055, Note_on_c, 0, 85, 0
2, 303055, Note_on_c, 0, 81, 0
2, 303055, Note_on_c, 0, 64, 0
2, 303240, Note_on_c, 0, 74, 53
2, 303240, Note_on_c, 0, 81, 53
2, 303240, Note_on_c, 0, 86, 53
2, 303240, Note_on_c, 0, 50, 53
2, 303240, Note_on_c, 0, 62, 53
2, 303295, Note_on_c, 0, 50, 0
2, 303295, Note_on_c, 0, 81, 0
2, 303295, Note_on_c, 0, 74, 0
2, 303295, Note_on_c, 0, 86, 0
2, 303480, Note_on_c, 0, 86, 53
2, 303535, Note_on_c, 0, 86, 0
2, 303600, Note_on_c, 0, 85, 53
2, 303655, Note_on_c, 0, 85, 0
2, 303720, Note_on_c, 0, 86, 53
2, 303775, Note_on_c, 0, 86, 0
2, 303840, Note_on_c, 0, 83, 53
2, 303895, Note_on_c, 0, 83, 0
2, 303960, Note_on_c, 0, 62, 0
2, 303960, Note_on_c, 0, 81, 53
2, 303960, Note_on_c, 0, 64, 53
2, 304015, Note_on_c, 0, 81, 0
2, 304080, Note_on_c, 0, 79, 53
2, 304135, Note_on_c, 0, 79, 0
2, 304195, Note_on_c, 0, 64, 0
2, 304200, Note_on_c, 0, 78, 53
2, 304200, Note_on_c, 0, 66, 53
2, 304200, Note_on_c, 0, 62, 53
2, 304255, Note_on_c, 0, 78, 0
2, 304320, Note_on_c, 0, 76, 53
2, 304375, Note_on_c, 0, 76, 0
2, 304440, Note_on_c, 0, 74, 53
2, 304495, Note_on_c, 0, 74, 0
2, 304555, Note_on_c, 0, 66, 0
2, 304560, Note_on_c, 0, 72, 53
2, 304560, Note_on_c, 0, 67, 53
2, 304615, Note_on_c, 0, 67, 0
2, 304615, Note_on_c, 0, 72, 0
2, 304620, Note_on_c, 0, 69, 53
2, 304675, Note_on_c, 0, 69, 0
2, 304680, Note_on_c, 0, 71, 53
2, 304680, Note_on_c, 0, 67, 53
2, 304735, Note_on_c, 0, 67, 0
2, 304735, Note_on_c, 0, 71, 0
2, 304800, Note_on_c, 0, 73, 53
2, 304800, Note_on_c, 0, 67, 53
2, 304855, Note_on_c, 0, 67, 0
2, 304855, Note_on_c, 0, 73, 0
2, 304920, Note_on_c, 0, 74, 53
2, 304920, Note_on_c, 0, 66, 53
2, 304975, Note_on_c, 0, 66, 0
2, 304975, Note_on_c, 0, 74, 0
2, 305040, Note_on_c, 0, 62, 0
2, 305040, Note_on_c, 0, 78, 53
2, 305040, Note_on_c, 0, 66, 53
2, 305095, Note_on_c, 0, 66, 0
2, 305095, Note_on_c, 0, 78, 0
2, 305160, Note_on_c, 0, 81, 53
2, 305160, Note_on_c, 0, 64, 53
2, 305160, Note_on_c, 0, 62, 53
2, 305215, Note_on_c, 0, 81, 0
2, 305280, Note_on_c, 0, 79, 53
2, 305335, Note_on_c, 0, 79, 0
2, 305395, Note_on_c, 0, 62, 0
2, 305395, Note_on_c, 0, 64, 0
2, 305400, Note_on_c, 0, 78, 53
2, 305400, Note_on_c, 0, 74, 53
2, 305400, Note_on_c, 0, 62, 53
2, 305455, Note_on_c, 0, 74, 0
2, 305455, Note_on_c, 0, 78, 0
2, 305520, Note_on_c, 0, 73, 53
2, 305575, Note_on_c, 0, 73, 0
2, 305640, Note_on_c, 0, 74, 53
2, 305695, Note_on_c, 0, 74, 0
2, 305760, Note_on_c, 0, 71, 53
2, 305815, Note_on_c, 0, 71, 0
2, 305875, Note_on_c, 0, 62, 0
2, 305880, Note_on_c, 0, 69, 53
2, 305880, Note_on_c, 0, 64, 53
2, 305935, Note_on_c, 0, 69, 0
2, 306000, Note_on_c, 0, 67, 53
2, 306055, Note_on_c, 0, 67, 0
2, 306115, Note_on_c, 0, 64, 0
2, 306120, Note_on_c, 0, 66, 53
2, 306120, Note_on_c, 0, 62, 53
2, 306240, Note_on_c, 0, 64, 53
2, 306295, Note_on_c, 0, 64, 0
2, 306355, Note_on_c, 0, 62, 0
2, 306360, Note_on_c, 0, 62, 53
2, 306415, Note_on_c, 0, 62, 0
2, 306475, Note_on_c, 0, 66, 0
2, 306480, Note_on_c, 0, 60, 53
2, 306480, Note_on_c, 0, 67, 53
2, 306535, Note_on_c, 0, 67, 0
2, 306535, Note_on_c, 0, 60, 0
2, 306540, Note_on_c, 0, 69, 53
2, 306595, Note_on_c, 0, 69, 0
2, 306600, Note_on_c, 0, 59, 53
2, 306600, Note_on_c, 0, 67, 53
2, 306655, Note_on_c, 0, 67, 0
2, 306655, Note_on_c, 0, 59, 0
2, 306720, Note_on_c, 0, 61, 53
2, 306720, Note_on_c, 0, 67, 53
2, 306775, Note_on_c, 0, 67, 0
2, 306775, Note_on_c, 0, 61, 0
2, 306840, Note_on_c, 0, 62, 53
2, 306840, Note_on_c, 0, 66, 53
2, 306895, Note_on_c, 0, 66, 0
2, 306895, Note_on_c, 0, 62, 0
2, 306960, Note_on_c, 0, 66, 53
2, 306960, Note_on_c, 0, 66, 53
2, 307015, Note_on_c, 0, 66, 0
2, 307015, Note_on_c, 0, 66, 0
2, 307080, Note_on_c, 0, 69, 53
2, 307080, Note_on_c, 0, 62, 53
2, 307080, Note_on_c, 0, 64, 53
2, 307135, Note_on_c, 0, 64, 0
2, 307135, Note_on_c, 0, 69, 0
2, 307135, Note_on_c, 0, 62, 0
2, 307320, Note_on_c, 0, 74, 53
2, 307320, Note_on_c, 0, 62, 53
2, 307375, Note_on_c, 0, 74, 0
2, 307440, Note_on_c, 0, 73, 53
2, 307440, Note_on_c, 0, 61, 53
2, 307495, Note_on_c, 0, 61, 0
2, 307495, Note_on_c, 0, 73, 0
2, 307560, Note_on_c, 0, 74, 53
2, 307560, Note_on_c, 0, 62, 53
2, 307615, Note_on_c, 0, 74, 0
2, 307615, Note_on_c, 0, 62, 0
2, 307680, Note_on_c, 0, 71, 53
2, 307680, Note_on_c, 0, 59, 53
2, 307735, Note_on_c, 0, 59, 0
2, 307735, Note_on_c, 0, 71, 0
2, 307795, Note_on_c, 0, 62, 0
2, 307800, Note_on_c, 0, 69, 53
2, 307800, Note_on_c, 0, 57, 53
2, 307800, Note_on_c, 0, 62, 53
2, 307800, Note_on_c, 0, 64, 53
2, 307855, Note_on_c, 0, 57, 0
2, 307855, Note_on_c, 0, 69, 0
2, 307920, Note_on_c, 0, 67, 53
2, 307920, Note_on_c, 0, 55, 53
2, 307975, Note_on_c, 0, 55, 0
2, 307975, Note_on_c, 0, 67, 0
2, 308035, Note_on_c, 0, 62, 0
2, 308035, Note_on_c, 0, 64, 0
2, 308040, Note_on_c, 0, 66, 53
2, 308040, Note_on_c, 0, 62, 53
2, 308040, Note_on_c, 0, 54, 53
2, 308095, Note_on_c, 0, 54, 0
2, 308160, Note_on_c, 0, 64, 53
2, 308160, Note_on_c, 0, 52, 53
2, 308215, Note_on_c, 0, 52, 0
2, 308215, Note_on_c, 0, 64, 0
2, 308275, Note_on_c, 0, 62, 0
2, 308280, Note_on_c, 0, 62, 53
2, 308280, Note_on_c, 0, 50, 53
2, 308335, Note_on_c, 0, 50, 0
2, 308335, Note_on_c, 0, 62, 0
2, 308395, Note_on_c, 0, 66, 0
2, 308400, Note_on_c, 0, 67, 53
2, 308400, Note_on_c, 0, 60, 53
2, 308400, Note_on_c, 0, 48, 53
2, 308455, Note_on_c, 0, 48, 0
2, 308455, Note_on_c, 0, 67, 0
2, 308455, Note_on_c, 0, 60, 0
2, 308460, Note_on_c, 0, 69, 53
2, 308515, Note_on_c, 0, 69, 0
2, 308520, Note_on_c, 0, 67, 53
2, 308520, Note_on_c, 0, 59, 53
2, 308520, Note_on_c, 0, 47, 53
2, 308575, Note_on_c, 0, 47, 0
2, 308575, Note_on_c, 0, 67, 0
2, 308575, Note_on_c, 0, 59, 0
2, 308640, Note_on_c, 0, 67, 53
2, 308640, Note_on_c, 0, 61, 53
2, 308640, Note_on_c, 0, 49, 53
2, 308695, Note_on_c, 0, 49, 0
2, 308695, Note_on_c, 0, 67, 0
2, 308695, Note_on_c, 0, 61, 0
2, 308760, Note_on_c, 0, 66, 53
2, 308760, Note_on_c, 0, 62, 53
2, 308760, Note_on_c, 0, 50, 53
2, 308815, Note_on_c, 0, 50, 0
2, 308815, Note_on_c, 0, 66, 0
2, 308880, Note_on_c, 0, 66, 53
2, 308880, Note_on_c, 0, 54, 53
2, 308935, Note_on_c, 0, 54, 0
2, 308935, Note_on_c, 0, 66, 0
2, 309000, Note_on_c, 0, 69, 53
2, 309000, Note_on_c, 0, 64, 53
2, 309000, Note_on_c, 0, 57, 53
2, 309055, Note_on_c, 0, 57, 0
2, 309055, Note_on_c, 0, 69, 0
2, 309120, Note_on_c, 0, 67, 53
2, 309120, Note_on_c, 0, 55, 53
2, 309175, Note_on_c, 0, 55, 0
2, 309175, Note_on_c, 0, 67, 0
2, 309235, Note_on_c, 0, 64, 0
2, 309235, Note_on_c, 0, 62, 0
2, 309240, Note_on_c, 0, 86, 53
2, 309240, Note_on_c, 0, 74, 53
2, 309240, Note_on_c, 0, 62, 53
2, 309240, Note_on_c, 0, 66, 53
2, 309240, Note_on_c, 0, 54, 53
2, 309295, Note_on_c, 0, 54, 0
2, 309295, Note_on_c, 0, 74, 0
2, 309295, Note_on_c, 0, 86, 0
2, 309295, Note_on_c, 0, 66, 0
2, 309360, Note_on_c, 0, 85, 53
2, 309360, Note_on_c, 0, 73, 53
2, 309415, Note_on_c, 0, 73, 0
2, 309415, Note_on_c, 0, 85, 0
2, 309475, Note_on_c, 0, 62, 0
2, 309480, Note_on_c, 0, 86, 53
2, 309480, Note_on_c, 0, 74, 53
2, 309480, Note_on_c, 0, 62, 53
2, 309535, Note_on_c, 0, 74, 0
2, 309535, Note_on_c, 0, 86, 0
2, 309600, Note_on_c, 0, 83, 53
2, 309600, Note_on_c, 0, 71, 53
2, 309655, Note_on_c, 0, 71, 0
2, 309655, Note_on_c, 0, 83, 0
2, 309720, Note_on_c, 0, 81, 53
2, 309720, Note_on_c, 0, 69, 53
2, 309720, Note_on_c, 0, 64, 53
2, 309775, Note_on_c, 0, 69, 0
2, 309775, Note_on_c, 0, 81, 0
2, 309840, Note_on_c, 0, 79, 53
2, 309840, Note_on_c, 0, 67, 53
2, 309895, Note_on_c, 0, 67, 0
2, 309895, Note_on_c, 0, 79, 0
2, 309955, Note_on_c, 0, 62, 0
2, 309955, Note_on_c, 0, 64, 0
2, 309960, Note_on_c, 0, 78, 53
2, 309960, Note_on_c, 0, 66, 53
2, 309960, Note_on_c, 0, 66, 53
2, 309960, Note_on_c, 0, 62, 53
2, 310015, Note_on_c, 0, 66, 0
2, 310015, Note_on_c, 0, 78, 0
2, 310080, Note_on_c, 0, 76, 53
2, 310080, Note_on_c, 0, 64, 53
2, 310135, Note_on_c, 0, 64, 0
2, 310135, Note_on_c, 0, 76, 0
2, 310195, Note_on_c, 0, 62, 0
2, 310200, Note_on_c, 0, 74, 53
2, 310200, Note_on_c, 0, 62, 53
2, 310255, Note_on_c, 0, 62, 0
2, 310255, Note_on_c, 0, 74, 0
2, 310315, Note_on_c, 0, 66, 0
2, 310320, Note_on_c, 0, 72, 53
2, 310320, Note_on_c, 0, 60, 53
2, 310320, Note_on_c, 0, 67, 53
2, 310335, Note_on_c, 0, 77, 0
2, 310335, Note_on_c, 0, 89, 0
2, 310375, Note_on_c, 0, 60, 0
2, 310375, Note_on_c, 0, 72, 0
2, 310375, Note_on_c, 0, 67, 0
2, 310380, Note_on_c, 0, 69, 53
2, 310435, Note_on_c, 0, 69, 0
2, 310440, Note_on_c, 0, 71, 53
2, 310440, Note_on_c, 0, 59, 53
2, 310440, Note_on_c, 0, 67, 53
2, 310495, Note_on_c, 0, 67, 0
2, 310495, Note_on_c, 0, 59, 0
2, 310495, Note_on_c, 0, 71, 0
2, 310560, Note_on_c, 0, 73, 53
2, 310560, Note_on_c, 0, 61, 53
2, 310560, Note_on_c, 0, 67, 53
2, 310615, Note_on_c, 0, 67, 0
2, 310615, Note_on_c, 0, 61, 0
2, 310615, Note_on_c, 0, 73, 0
2, 310680, Note_on_c, 0, 74, 53
2, 310680, Note_on_c, 0, 62, 53
2, 310680, Note_on_c, 0, 66, 53
2, 310735, Note_on_c, 0, 66, 0
2, 310735, Note_on_c, 0, 62, 0
2, 310735, Note_on_c, 0, 74, 0
2, 310800, Note_on_c, 0, 78, 53
2, 310800, Note_on_c, 0, 66, 53
2, 310855, Note_on_c, 0, 66, 0
2, 310855, Note_on_c, 0, 78, 0
2, 310920, Note_on_c, 0, 81, 53
2, 310920, Note_on_c, 0, 69, 53
2, 310920, Note_on_c, 0, 64, 53
2, 310920, Note_on_c, 0, 57, 53
2, 310975, Note_on_c, 0, 64, 0
2, 310975, Note_on_c, 0, 81, 0
2, 310975, Note_on_c, 0, 69, 0
2, 311160, Note_on_c, 0, 81, 53
2, 311215, Note_on_c, 0, 81, 0
2, 311280, Note_on_c, 0, 80, 53
2, 311335, Note_on_c, 0, 80, 0
2, 311400, Note_on_c, 0, 81, 53
2, 311455, Note_on_c, 0, 81, 0
2, 311520, Note_on_c, 0, 78, 53
2, 311575, Note_on_c, 0, 78, 0
2, 311640, Note_on_c, 0, 76, 53
2, 311640, Note_on_c, 0, 59, 53
2, 311695, Note_on_c, 0, 76, 0
2, 311760, Note_on_c, 0, 57, 0
2, 311760, Note_on_c, 0, 74, 53
2, 311815, Note_on_c, 0, 74, 0
2, 311875, Note_on_c, 0, 59, 0
2, 311880, Note_on_c, 0, 73, 53
2, 311880, Note_on_c, 0, 61, 53
2, 311880, Note_on_c, 0, 57, 73
2, 311935, Note_on_c, 0, 73, 0
2, 312000, Note_on_c, 0, 71, 53
2, 312055, Note_on_c, 0, 71, 0
2, 312120, Note_on_c, 0, 69, 53
2, 312175, Note_on_c, 0, 69, 0
2, 312235, Note_on_c, 0, 61, 0
2, 312240, Note_on_c, 0, 79, 53
2, 312240, Note_on_c, 0, 62, 53
2, 312295, Note_on_c, 0, 62, 0
2, 312295, Note_on_c, 0, 79, 0
2, 312300, Note_on_c, 0, 64, 53
2, 312355, Note_on_c, 0, 64, 0
2, 312360, Note_on_c, 0, 78, 53
2, 312360, Note_on_c, 0, 62, 53
2, 312415, Note_on_c, 0, 62, 0
2, 312415, Note_on_c, 0, 78, 0
2, 312480, Note_on_c, 0, 80, 53
2, 312480, Note_on_c, 0, 62, 53
2, 312535, Note_on_c, 0, 62, 0
2, 312535, Note_on_c, 0, 80, 0
2, 312600, Note_on_c, 0, 81, 53
2, 312600, Note_on_c, 0, 61, 53
2, 312655, Note_on_c, 0, 61, 0
2, 312655, Note_on_c, 0, 81, 0
2, 312720, Note_on_c, 0, 76, 53
2, 312720, Note_on_c, 0, 61, 53
2, 312775, Note_on_c, 0, 61, 0
2, 312775, Note_on_c, 0, 76, 0
2, 312840, Note_on_c, 0, 86, 53
2, 312840, Note_on_c, 0, 59, 53
2, 312895, Note_on_c, 0, 86, 0
2, 312960, Note_on_c, 0, 57, 0
2, 312960, Note_on_c, 0, 80, 53
2, 313015, Note_on_c, 0, 80, 0
2, 313075, Note_on_c, 0, 59, 0
2, 313080, Note_on_c, 0, 81, 53
2, 313080, Note_on_c, 0, 57, 53
2, 313195, Note_on_c, 0, 81, 0
2, 313200, Note_on_c, 0, 80, 53
2, 313315, Note_on_c, 0, 80, 0
2, 313320, Note_on_c, 0, 81, 53
2, 313435, Note_on_c, 0, 81, 0
2, 313440, Note_on_c, 0, 78, 53
2, 313555, Note_on_c, 0, 78, 0
2, 313560, Note_on_c, 0, 76, 53
2, 313560, Note_on_c, 0, 59, 53
2, 313675, Note_on_c, 0, 76, 0
2, 313680, Note_on_c, 0, 74, 53
2, 313795, Note_on_c, 0, 74, 0
2, 313795, Note_on_c, 0, 59, 0
2, 313800, Note_on_c, 0, 73, 53
2, 313800, Note_on_c, 0, 61, 53
2, 313915, Note_on_c, 0, 73, 0
2, 313920, Note_on_c, 0, 57, 0
2, 313920, Note_on_c, 0, 69, 53
2, 314035, Note_on_c, 0, 69, 0
2, 314035, Note_on_c, 0, 61, 0
2, 314040, Note_on_c, 0, 81, 53
2, 314040, Note_on_c, 0, 61, 53
2, 314040, Note_on_c, 0, 57, 53
2, 314155, Note_on_c, 0, 81, 0
2, 314160, Note_on_c, 0, 80, 53
2, 314275, Note_on_c, 0, 80, 0
2, 314280, Note_on_c, 0, 81, 53
2, 314395, Note_on_c, 0, 81, 0
2, 314400, Note_on_c, 0, 78, 53
2, 314515, Note_on_c, 0, 78, 0
2, 314515, Note_on_c, 0, 57, 0
2, 314515, Note_on_c, 0, 61, 0
2, 314520, Note_on_c, 0, 76, 53
2, 314520, Note_on_c, 0, 59, 53
2, 314520, Note_on_c, 0, 62, 53
2, 314520, Note_on_c, 0, 57, 53
2, 314635, Note_on_c, 0, 76, 0
2, 314640, Note_on_c, 0, 74, 53
2, 314755, Note_on_c, 0, 74, 0
2, 314755, Note_on_c, 0, 57, 0
2, 314755, Note_on_c, 0, 62, 0
2, 314755, Note_on_c, 0, 59, 0
2, 314760, Note_on_c, 0, 73, 53
2, 314760, Note_on_c, 0, 61, 53
2, 314760, Note_on_c, 0, 64, 53
2, 314760, Note_on_c, 0, 57, 53
2, 314875, Note_on_c, 0, 73, 0
2, 314880, Note_on_c, 0, 69, 53
2, 314995, Note_on_c, 0, 69, 0
2, 314995, Note_on_c, 0, 57, 0
2, 314995, Note_on_c, 0, 64, 0
2, 314995, Note_on_c, 0, 61, 0
2, 315000, Note_on_c, 0, 83, 53
2, 315000, Note_on_c, 0, 61, 53
2, 315000, Note_on_c, 0, 64, 53
2, 315000, Note_on_c, 0, 57, 53
2, 315115, Note_on_c, 0, 83, 0
2, 315120, Note_on_c, 0, 82, 53
2, 315235, Note_on_c, 0, 82, 0
2, 315240, Note_on_c, 0, 83, 53
2, 315355, Note_on_c, 0, 83, 0
2, 315360, Note_on_c, 0, 79, 53
2, 315475, Note_on_c, 0, 79, 0
2, 315475, Note_on_c, 0, 57, 0
2, 315475, Note_on_c, 0, 64, 0
2, 315475, Note_on_c, 0, 61, 0
2, 315480, Note_on_c, 0, 76, 53
2, 315480, Note_on_c, 0, 62, 53
2, 315480, Note_on_c, 0, 66, 53
2, 315480, Note_on_c, 0, 57, 53
2, 315595, Note_on_c, 0, 76, 0
2, 315600, Note_on_c, 0, 74, 53
2, 315715, Note_on_c, 0, 74, 0
2, 315715, Note_on_c, 0, 57, 0
2, 315715, Note_on_c, 0, 66, 0
2, 315715, Note_on_c, 0, 62, 0
2, 315720, Note_on_c, 0, 73, 53
2, 315720, Note_on_c, 0, 64, 53
2, 315720, Note_on_c, 0, 67, 53
2, 315720, Note_on_c, 0, 57, 53
2, 315835, Note_on_c, 0, 73, 0
2, 315840, Note_on_c, 0, 69, 53
2, 315955, Note_on_c, 0, 69, 0
2, 315955, Note_on_c, 0, 57, 0
2, 315955, Note_on_c, 0, 67, 0
2, 315955, Note_on_c, 0, 64, 0
2, 315960, Note_on_c, 0, 83, 53
2, 315960, Note_on_c, 0, 61, 53
2, 315960, Note_on_c, 0, 64, 53
2, 315960, Note_on_c, 0, 57, 53
2, 316075, Note_on_c, 0, 83, 0
2, 316080, Note_on_c, 0, 82, 53
2, 316195, Note_on_c, 0, 82, 0
2, 316200, Note_on_c, 0, 83, 53
2, 316315, Note_on_c, 0, 83, 0
2, 316320, Note_on_c, 0, 79, 53
2, 316435, Note_on_c, 0, 79, 0
2, 316435, Note_on_c, 0, 57, 0
2, 316435, Note_on_c, 0, 64, 0
2, 316435, Note_on_c, 0, 61, 0
2, 316440, Note_on_c, 0, 76, 53
2, 316440, Note_on_c, 0, 62, 53
2, 316440, Note_on_c, 0, 66, 53
2, 316440, Note_on_c, 0, 57, 53
2, 316555, Note_on_c, 0, 76, 0
2, 316560, Note_on_c, 0, 74, 53
2, 316675, Note_on_c, 0, 74, 0
2, 316675, Note_on_c, 0, 57, 0
2, 316675, Note_on_c, 0, 66, 0
2, 316675, Note_on_c, 0, 62, 0
2, 316680, Note_on_c, 0, 73, 53
2, 316680, Note_on_c, 0, 64, 53
2, 316680, Note_on_c, 0, 67, 53
2, 316680, Note_on_c, 0, 57, 53
2, 316795, Note_on_c, 0, 73, 0
2, 316800, Note_on_c, 0, 69, 53
2, 316915, Note_on_c, 0, 69, 0
2, 316915, Note_on_c, 0, 57, 0
2, 316915, Note_on_c, 0, 67, 0
2, 316915, Note_on_c, 0, 64, 0
2, 316920, Note_on_c, 0, 76, 53
2, 316920, Note_on_c, 0, 64, 53
2, 316920, Note_on_c, 0, 67, 53
2, 316920, Note_on_c, 0, 57, 53
2, 317035, Note_on_c, 0, 76, 0
2, 317040, Note_on_c, 0, 75, 53
2, 317155, Note_on_c, 0, 75, 0
2, 317160, Note_on_c, 0, 76, 53
2, 317275, Note_on_c, 0, 76, 0
2, 317280, Note_on_c, 0, 73, 53
2, 317395, Note_on_c, 0, 73, 0
2, 317395, Note_on_c, 0, 57, 0
2, 317395, Note_on_c, 0, 67, 0
2, 317395, Note_on_c, 0, 64, 0
2, 317400, Note_on_c, 0, 79, 53
2, 317400, Note_on_c, 0, 64, 53
2, 317400, Note_on_c, 0, 67, 53
2, 317400, Note_on_c, 0, 57, 53
2, 317515, Note_on_c, 0, 79, 0
2, 317520, Note_on_c, 0, 78, 53
2, 317635, Note_on_c, 0, 78, 0
2, 317640, Note_on_c, 0, 79, 53
2, 317755, Note_on_c, 0, 79, 0
2, 317760, Note_on_c, 0, 76, 53
2, 317875, Note_on_c, 0, 76, 0
2, 317875, Note_on_c, 0, 57, 0
2, 317875, Note_on_c, 0, 67, 0
2, 317875, Note_on_c, 0, 64, 0
2, 317880, Note_on_c, 0, 76, 53
2, 317880, Note_on_c, 0, 64, 53
2, 317880, Note_on_c, 0, 67, 53
2, 317880, Note_on_c, 0, 57, 53
2, 317995, Note_on_c, 0, 76, 0
2, 318000, Note_on_c, 0, 75, 53
2, 318115, Note_on_c, 0, 75, 0
2, 318120, Note_on_c, 0, 76, 53
2, 318235, Note_on_c, 0, 76, 0
2, 318240, Note_on_c, 0, 73, 53
2, 318355, Note_on_c, 0, 73, 0
2, 318355, Note_on_c, 0, 57, 0
2, 318355, Note_on_c, 0, 67, 0
2, 318355, Note_on_c, 0, 64, 0
2, 318360, Note_on_c, 0, 79, 53
2, 318360, Note_on_c, 0, 64, 53
2, 318360, Note_on_c, 0, 67, 53
2, 318360, Note_on_c, 0, 58, 53
2, 318475, Note_on_c, 0, 79, 0
2, 318480, Note_on_c, 0, 78, 53
2, 318595, Note_on_c, 0, 78, 0
2, 318600, Note_on_c, 0, 79, 53
2, 318715, Note_on_c, 0, 79, 0
2, 318720, Note_on_c, 0, 76, 53
2, 318835, Note_on_c, 0, 76, 0
2, 318835, Note_on_c, 0, 58, 0
2, 318835, Note_on_c, 0, 67, 0
2, 318835, Note_on_c, 0, 64, 0
2, 318840, Note_on_c, 0, 79, 53
2, 318840, Note_on_c, 0, 64, 53
2, 318840, Note_on_c, 0, 67, 53
2, 318840, Note_on_c, 0, 61, 53
2, 318955, Note_on_c, 0, 79, 0
2, 318960, Note_on_c, 0, 78, 53
2, 319075, Note_on_c, 0, 78, 0
2, 319080, Note_on_c, 0, 79, 95
2, 319195, Note_on_c, 0, 79, 0
2, 319200, Note_on_c, 0, 76, 95
2, 319315, Note_on_c, 0, 76, 0
2, 319315, Note_on_c, 0, 61, 0
2, 319315, Note_on_c, 0, 67, 0
2, 319315, Note_on_c, 0, 64, 0
2, 319320, Note_on_c, 0, 79, 53
2, 319320, Note_on_c, 0, 64, 53
2, 319320, Note_on_c, 0, 67, 53
2, 319320, Note_on_c, 0, 60, 53
2, 319435, Note_on_c, 0, 79, 0
2, 319440, Note_on_c, 0, 78, 53
2, 319555, Note_on_c, 0, 78, 0
2, 319560, Note_on_c, 0, 79, 53
2, 319675, Note_on_c, 0, 79, 0
2, 319680, Note_on_c, 0, 74, 53
2, 319795, Note_on_c, 0, 74, 0
2, 319795, Note_on_c, 0, 60, 0
2, 319795, Note_on_c, 0, 67, 0
2, 319795, Note_on_c, 0, 64, 0
2, 319800, Note_on_c, 0, 72, 53
2, 319800, Note_on_c, 0, 64, 53
2, 319800, Note_on_c, 0, 67, 53
2, 319800, Note_on_c, 0, 60, 53
2, 319915, Note_on_c, 0, 72, 0
2, 319920, Note_on_c, 0, 70, 53
2, 320035, Note_on_c, 0, 64, 0
2, 320035, Note_on_c, 0, 67, 0
2, 320040, Note_on_c, 0, 69, 53
2, 320040, Note_on_c, 0, 65, 53
2, 320040, Note_on_c, 0, 69, 53
2, 320155, Note_on_c, 0, 69, 0
2, 320155, Note_on_c, 0, 70, 0
2, 320160, Note_on_c, 0, 77, 53
2, 320275, Note_on_c, 0, 77, 0
2, 320275, Note_on_c, 0, 69, 0
2, 320275, Note_on_c, 0, 65, 0
2, 320275, Note_on_c, 0, 60, 0
2, 320280, Note_on_c, 0, 79, 59
2, 320280, Note_on_c, 0, 64, 66
2, 320280, Note_on_c, 0, 67, 66
2, 320280, Note_on_c, 0, 60, 66
2, 320395, Note_on_c, 0, 79, 0
2, 320400, Note_on_c, 0, 78, 66
2, 320515, Note_on_c, 0, 78, 0
2, 320520, Note_on_c, 0, 79, 72
2, 320635, Note_on_c, 0, 79, 0
2, 320635, Note_on_c, 0, 67, 0
2, 320640, Note_on_c, 0, 76, 79
2, 320640, Note_on_c, 0, 70, 79
2, 320640, Note_on_c, 0, 67, 79
2, 320755, Note_on_c, 0, 70, 0
2, 320755, Note_on_c, 0, 64, 0
2, 320755, Note_on_c, 0, 60, 0
2, 320760, Note_on_c, 0, 69, 85
2, 320760, Note_on_c, 0, 64, 85
2, 320760, Note_on_c, 0, 61, 85
2, 320875, Note_on_c, 0, 61, 0
2, 320875, Note_on_c, 0, 76, 0
2, 320875, Note_on_c, 0, 67, 0
2, 320875, Note_on_c, 0, 64, 0
2, 320880, Note_on_c, 0, 74, 91
2, 320880, Note_on_c, 0, 81, 91
2, 320880, Note_on_c, 0, 66, 91
2, 320880, Note_on_c, 0, 62, 91
2, 320995, Note_on_c, 0, 62, 0
2, 320995, Note_on_c, 0, 81, 0
2, 320995, Note_on_c, 0, 69, 0
2, 320995, Note_on_c, 0, 74, 0
2, 320995, Note_on_c, 0, 66, 0
2, 321000, Note_on_c, 0, 81, 117
2, 321000, Note_on_c, 0, 86, 117
2, 321000, Note_on_c, 0, 74, 117
2, 321000, Note_on_c, 0, 54, 98
2, 321000, Note_on_c, 0, 62, 98
2, 321000, Note_on_c, 0, 50, 98
2, 321115, Note_on_c, 0, 50, 0
2, 321115, Note_on_c, 0, 54, 0
2, 321115, Note_on_c, 0, 62, 0
2, 321240, Note_on_c, 0, 66, 54
2, 321240, Note_on_c, 0, 62, 54
2, 321295, Note_on_c, 0, 66, 0
2, 321300, Note_on_c, 0, 62, 0
2, 321360, Note_on_c, 0, 64, 54
2, 321360, Note_on_c, 0, 61, 54
2, 321420, Note_on_c, 0, 61, 0
2, 321420, Note_on_c, 0, 64, 0
2, 321480, Note_on_c, 0, 66, 54
2, 321480, Note_on_c, 0, 62, 54
2, 321535, Note_on_c, 0, 62, 0
2, 321535, Note_on_c, 0, 66, 0
2, 321600, Note_on_c, 0, 86, 0
2, 321600, Note_on_c, 0, 74, 0
2, 321600, Note_on_c, 0, 81, 0
2, 321600, Note_on_c, 0, 62, 56
2, 321600, Note_on_c, 0, 59, 56
2, 321655, Note_on_c, 0, 59, 0
2, 321655, Note_on_c, 0, 62, 0
2, 321720, Note_on_c, 0, 61, 58
2, 321720, Note_on_c, 0, 57, 58
2, 321720, Note_on_c, 0, 81, 62
2, 321720, Note_on_c, 0, 88, 62
2, 321720, Note_on_c, 0, 76, 62
2, 321775, Note_on_c, 0, 57, 0
2, 321775, Note_on_c, 0, 61, 0
2, 321840, Note_on_c, 0, 59, 60
2, 321840, Note_on_c, 0, 55, 60
2, 321895, Note_on_c, 0, 55, 0
2, 321895, Note_on_c, 0, 59, 0
2, 321955, Note_on_c, 0, 76, 0
2, 321955, Note_on_c, 0, 81, 0
2, 321955, Note_on_c, 0, 88, 0
2, 321960, Note_on_c, 0, 81, 68
2, 321960, Note_on_c, 0, 90, 68
2, 321960, Note_on_c, 0, 78, 68
2, 321960, Note_on_c, 0, 57, 62
2, 321960, Note_on_c, 0, 54, 62
2, 322015, Note_on_c, 0, 54, 0
2, 322015, Note_on_c, 0, 57, 0
2, 322080, Note_on_c, 0, 55, 64
2, 322080, Note_on_c, 0, 52, 64
2, 322135, Note_on_c, 0, 52, 0
2, 322135, Note_on_c, 0, 55, 0
2, 322200, Note_on_c, 0, 54, 66
2, 322200, Note_on_c, 0, 50, 66
2, 322255, Note_on_c, 0, 50, 0
2, 322255, Note_on_c, 0, 54, 0
2, 322315, Note_on_c, 0, 81, 0
2, 322315, Note_on_c, 0, 90, 0
2, 322315, Note_on_c, 0, 78, 0
2, 322320, Note_on_c, 0, 91, 69
2, 322320, Note_on_c, 0, 79, 69
2, 322320, Note_on_c, 0, 50, 68
2, 322320, Note_on_c, 0, 48, 68
2, 322375, Note_on_c, 0, 48, 0
2, 322375, Note_on_c, 0, 91, 0
2, 322375, Note_on_c, 0, 79, 0
2, 322375, Note_on_c, 0, 50, 0
2, 322380, Note_on_c, 0, 93, 70
2, 322380, Note_on_c, 0, 81, 70
2, 322435, Note_on_c, 0, 81, 0
2, 322435, Note_on_c, 0, 93, 0
2, 322440, Note_on_c, 0, 91, 71
2, 322440, Note_on_c, 0, 79, 71
2, 322440, Note_on_c, 0, 50, 71
2, 322440, Note_on_c, 0, 47, 71
2, 322495, Note_on_c, 0, 47, 0
2, 322495, Note_on_c, 0, 91, 0
2, 322495, Note_on_c, 0, 79, 0
2, 322495, Note_on_c, 0, 50, 0
2, 322560, Note_on_c, 0, 91, 73
2, 322560, Note_on_c, 0, 79, 73
2, 322560, Note_on_c, 0, 52, 73
2, 322560, Note_on_c, 0, 49, 73
2, 322615, Note_on_c, 0, 49, 0
2, 322615, Note_on_c, 0, 91, 0
2, 322615, Note_on_c, 0, 79, 0
2, 322615, Note_on_c, 0, 52, 0
2, 322680, Note_on_c, 0, 81, 75
2, 322680, Note_on_c, 0, 90, 75
2, 322680, Note_on_c, 0, 78, 75
2, 322680, Note_on_c, 0, 54, 75
2, 322680, Note_on_c, 0, 50, 75
2, 322735, Note_on_c, 0, 50, 0
2, 322735, Note_on_c, 0, 78, 0
2, 322735, Note_on_c, 0, 81, 0
2, 322735, Note_on_c, 0, 90, 0
2, 322735, Note_on_c, 0, 54, 0
2, 322800, Note_on_c, 0, 90, 78
2, 322800, Note_on_c, 0, 78, 78
2, 322800, Note_on_c, 0, 57, 77
2, 322800, Note_on_c, 0, 54, 77
2, 322855, Note_on_c, 0, 54, 0
2, 322855, Note_on_c, 0, 90, 0
2, 322855, Note_on_c, 0, 78, 0
2, 322855, Note_on_c, 0, 57, 0
2, 322920, Note_on_c, 0, 81, 83
2, 322920, Note_on_c, 0, 88, 83
2, 322920, Note_on_c, 0, 76, 83
2, 322920, Note_on_c, 0, 61, 79
2, 322920, Note_on_c, 0, 57, 79
2, 322975, Note_on_c, 0, 57, 0
2, 322975, Note_on_c, 0, 61, 0
2, 323040, Note_on_c, 0, 64, 81
2, 323040, Note_on_c, 0, 61, 81
2, 323095, Note_on_c, 0, 61, 0
2, 323095, Note_on_c, 0, 64, 0
2, 323155, Note_on_c, 0, 76, 0
2, 323155, Note_on_c, 0, 88, 0
2, 323155, Note_on_c, 0, 81, 0
2, 323160, Note_on_c, 0, 81, 87
2, 323160, Note_on_c, 0, 86, 87
2, 323160, Note_on_c, 0, 74, 87
2, 323160, Note_on_c, 0, 66, 83
2, 323160, Note_on_c, 0, 62, 83
2, 323215, Note_on_c, 0, 62, 0
2, 323215, Note_on_c, 0, 66, 0
2, 323280, Note_on_c, 0, 64, 85
2, 323280, Note_on_c, 0, 61, 85
2, 323335, Note_on_c, 0, 61, 0
2, 323335, Note_on_c, 0, 64, 0
2, 323400, Note_on_c, 0, 66, 87
2, 323400, Note_on_c, 0, 62, 87
2, 323455, Note_on_c, 0, 62, 0
2, 323455, Note_on_c, 0, 66, 0
2, 323520, Note_on_c, 0, 62, 89
2, 323520, Note_on_c, 0, 59, 89
2, 323575, Note_on_c, 0, 59, 0
2, 323575, Note_on_c, 0, 62, 0
2, 323635, Note_on_c, 0, 74, 0
2, 323635, Note_on_c, 0, 86, 0
2, 323635, Note_on_c, 0, 81, 0
2, 323640, Note_on_c, 0, 81, 96
2, 323640, Note_on_c, 0, 88, 96
2, 323640, Note_on_c, 0, 76, 96
2, 323640, Note_on_c, 0, 61, 91
2, 323640, Note_on_c, 0, 57, 91
2, 323695, Note_on_c, 0, 57, 0
2, 323695, Note_on_c, 0, 61, 0
2, 323760, Note_on_c, 0, 59, 93
2, 323760, Note_on_c, 0, 55, 93
2, 323815, Note_on_c, 0, 55, 0
2, 323815, Note_on_c, 0, 59, 0
2, 323875, Note_on_c, 0, 76, 0
2, 323875, Note_on_c, 0, 88, 0
2, 323875, Note_on_c, 0, 81, 0
2, 323880, Note_on_c, 0, 81, 102
2, 323880, Note_on_c, 0, 90, 102
2, 323880, Note_on_c, 0, 78, 102
2, 323880, Note_on_c, 0, 57, 95
2, 323880, Note_on_c, 0, 54, 95
2, 323935, Note_on_c, 0, 54, 0
2, 323935, Note_on_c, 0, 57, 0
2, 324000, Note_on_c, 0, 55, 97
2, 324000, Note_on_c, 0, 52, 97
2, 324055, Note_on_c, 0, 52, 0
2, 324055, Note_on_c, 0, 55, 0
2, 324120, Note_on_c, 0, 54, 99
2, 324120, Note_on_c, 0, 50, 99
2, 324175, Note_on_c, 0, 50, 0
2, 324175, Note_on_c, 0, 54, 0
2, 324235, Note_on_c, 0, 81, 0
2, 324235, Note_on_c, 0, 90, 0
2, 324235, Note_on_c, 0, 78, 0
2, 324240, Note_on_c, 0, 91, 103
2, 324240, Note_on_c, 0, 79, 103
2, 324240, Note_on_c, 0, 50, 101
2, 324240, Note_on_c, 0, 48, 101
2, 324295, Note_on_c, 0, 48, 0
2, 324295, Note_on_c, 0, 91, 0
2, 324295, Note_on_c, 0, 79, 0
2, 324295, Note_on_c, 0, 50, 0
2, 324300, Note_on_c, 0, 93, 104
2, 324300, Note_on_c, 0, 81, 104
2, 324355, Note_on_c, 0, 81, 0
2, 324355, Note_on_c, 0, 93, 0
2, 324360, Note_on_c, 0, 91, 106
2, 324360, Note_on_c, 0, 79, 106
2, 324360, Note_on_c, 0, 50, 104
2, 324360, Note_on_c, 0, 47, 104
2, 324415, Note_on_c, 0, 47, 0
2, 324415, Note_on_c, 0, 91, 0
2, 324415, Note_on_c, 0, 79, 0
2, 324415, Note_on_c, 0, 50, 0
2, 324480, Note_on_c, 0, 91, 108
2, 324480, Note_on_c, 0, 79, 108
2, 324480, Note_on_c, 0, 52, 106
2, 324480, Note_on_c, 0, 49, 106
2, 324535, Note_on_c, 0, 49, 0
2, 324535, Note_on_c, 0, 91, 0
2, 324535, Note_on_c, 0, 79, 0
2, 324535, Note_on_c, 0, 52, 0
2, 324600, Note_on_c, 0, 81, 111
2, 324600, Note_on_c, 0, 90, 111
2, 324600, Note_on_c, 0, 78, 111
2, 324600, Note_on_c, 0, 54, 108
2, 324600, Note_on_c, 0, 50, 108
2, 324655, Note_on_c, 0, 50, 0
2, 324655, Note_on_c, 0, 78, 0
2, 324655, Note_on_c, 0, 81, 0
2, 324655, Note_on_c, 0, 90, 0
2, 324655, Note_on_c, 0, 54, 0
2, 324720, Note_on_c, 0, 90, 113
2, 324720, Note_on_c, 0, 78, 113
2, 324720, Note_on_c, 0, 57, 110
2, 324720, Note_on_c, 0, 54, 110
2, 324750, Note_on_c, 0, 54, 0
2, 324775, Note_on_c, 0, 90, 0
2, 324775, Note_on_c, 0, 78, 0
2, 324775, Note_on_c, 0, 57, 0
2, 324840, Note_on_c, 0, 81, 117
2, 324840, Note_on_c, 0, 88, 117
2, 324840, Note_on_c, 0, 76, 117
2, 324840, Note_on_c, 0, 61, 112
2, 324840, Note_on_c, 0, 57, 112
2, 324895, Note_on_c, 0, 57, 0
2, 324895, Note_on_c, 0, 61, 0
2, 324960, Note_on_c, 0, 64, 114
2, 324960, Note_on_c, 0, 61, 114
2, 325015, Note_on_c, 0, 61, 0
2, 325015, Note_on_c, 0, 64, 0
2, 325075, Note_on_c, 0, 76, 0
2, 325075, Note_on_c, 0, 88, 0
2, 325075, Note_on_c, 0, 81, 0
2, 325080, Note_on_c, 0, 69, 117
2, 325080, Note_on_c, 0, 74, 117
2, 325080, Note_on_c, 0, 66, 117
2, 325080, Note_on_c, 0, 62, 117
2, 325080, Note_on_c, 0, 50, 117
2, 325135, Note_on_c, 0, 50, 0
2, 325135, Note_on_c, 0, 66, 0
2, 325135, Note_on_c, 0, 62, 0
2, 325200, Note_on_c, 0, 64, 117
2, 325200, Note_on_c, 0, 61, 117
2, 325200, Note_on_c, 0, 49, 117
2, 325255, Note_on_c, 0, 49, 0
2, 325255, Note_on_c, 0, 64, 0
2, 325255, Note_on_c, 0, 61, 0
2, 325320, Note_on_c, 0, 66, 117
2, 325320, Note_on_c, 0, 62, 117
2, 325320, Note_on_c, 0, 50, 117
2, 325375, Note_on_c, 0, 50, 0
2, 325375, Note_on_c, 0, 66, 0
2, 325375, Note_on_c, 0, 62, 0
2, 325440, Note_on_c, 0, 62, 117
2, 325440, Note_on_c, 0, 59, 117
2, 325440, Note_on_c, 0, 47, 117
2, 325495, Note_on_c, 0, 47, 0
2, 325495, Note_on_c, 0, 62, 0
2, 325495, Note_on_c, 0, 59, 0
2, 325555, Note_on_c, 0, 74, 0
2, 325555, Note_on_c, 0, 69, 0
2, 325560, Note_on_c, 0, 69, 117
2, 325560, Note_on_c, 0, 73, 117
2, 325560, Note_on_c, 0, 76, 117
2, 325560, Note_on_c, 0, 64, 117
2, 325560, Note_on_c, 0, 57, 117
2, 325560, Note_on_c, 0, 45, 117
2, 325615, Note_on_c, 0, 45, 0
2, 325615, Note_on_c, 0, 57, 0
2, 325645, Note_on_c, 0, 73, 0
2, 325680, Note_on_c, 0, 55, 117
2, 325680, Note_on_c, 0, 43, 117
2, 325735, Note_on_c, 0, 43, 0
2, 325735, Note_on_c, 0, 55, 0
2, 325795, Note_on_c, 0, 64, 0
2, 325795, Note_on_c, 0, 76, 0
2, 325795, Note_on_c, 0, 69, 0
2, 325800, Note_on_c, 0, 69, 117
2, 325800, Note_on_c, 0, 74, 117
2, 325800, Note_on_c, 0, 78, 117
2, 325800, Note_on_c, 0, 66, 117
2, 325800, Note_on_c, 0, 54, 117
2, 325800, Note_on_c, 0, 42, 117
2, 325915, Note_on_c, 0, 42, 0
2, 325915, Note_on_c, 0, 54, 0
2, 325920, Note_on_c, 0, 52, 117
2, 325920, Note_on_c, 0, 40, 117
2, 326035, Note_on_c, 0, 40, 0
2, 326035, Note_on_c, 0, 52, 0
2, 326040, Note_on_c, 0, 50, 117
2, 326040, Note_on_c, 0, 38, 117
2, 326155, Note_on_c, 0, 38, 0
2, 326155, Note_on_c, 0, 74, 0
2, 326155, Note_on_c, 0, 78, 0
2, 326155, Note_on_c, 0, 69, 0
2, 326155, Note_on_c, 0, 50, 0
2, 326155, Note_on_c, 0, 66, 0
2, 326160, Note_on_c, 0, 79, 117
2, 326160, Note_on_c, 0, 67, 117
2, 326160, Note_on_c, 0, 48, 117
2, 326160, Note_on_c, 0, 36, 117
2, 326215, Note_on_c, 0, 67, 0
2, 326215, Note_on_c, 0, 79, 0
2, 326220, Note_on_c, 0, 81, 117
2, 326220, Note_on_c, 0, 69, 117
2, 326275, Note_on_c, 0, 69, 0
2, 326275, Note_on_c, 0, 36, 0
2, 326275, Note_on_c, 0, 48, 0
2, 326275, Note_on_c, 0, 81, 0
2, 326280, Note_on_c, 0, 74, 117
2, 326280, Note_on_c, 0, 79, 117
2, 326280, Note_on_c, 0, 67, 117
2, 326280, Note_on_c, 0, 47, 117
2, 326280, Note_on_c, 0, 35, 117
2, 326335, Note_on_c, 0, 35, 0
2, 326335, Note_on_c, 0, 67, 0
2, 326335, Note_on_c, 0, 74, 0
2, 326335, Note_on_c, 0, 79, 0
2, 326335, Note_on_c, 0, 47, 0
2, 326400, Note_on_c, 0, 76, 117
2, 326400, Note_on_c, 0, 79, 117
2, 326400, Note_on_c, 0, 67, 117
2, 326400, Note_on_c, 0, 49, 117
2, 326400, Note_on_c, 0, 37, 117
2, 326455, Note_on_c, 0, 37, 0
2, 326455, Note_on_c, 0, 67, 0
2, 326455, Note_on_c, 0, 76, 0
2, 326455, Note_on_c, 0, 79, 0
2, 326455, Note_on_c, 0, 49, 0
2, 326520, Note_on_c, 0, 74, 117
2, 326520, Note_on_c, 0, 78, 117
2, 326520, Note_on_c, 0, 66, 117
2, 326520, Note_on_c, 0, 50, 117
2, 326520, Note_on_c, 0, 38, 117
2, 326575, Note_on_c, 0, 38, 0
2, 326575, Note_on_c, 0, 66, 0
2, 326575, Note_on_c, 0, 74, 0
2, 326575, Note_on_c, 0, 78, 0
2, 326575, Note_on_c, 0, 50, 0
2, 326640, Note_on_c, 0, 69, 117
2, 326640, Note_on_c, 0, 78, 117
2, 326640, Note_on_c, 0, 66, 117
2, 326640, Note_on_c, 0, 54, 117
2, 326640, Note_on_c, 0, 42, 117
2, 326695, Note_on_c, 0, 42, 0
2, 326695, Note_on_c, 0, 66, 0
2, 326695, Note_on_c, 0, 69, 0
2, 326695, Note_on_c, 0, 78, 0
2, 326695, Note_on_c, 0, 54, 0
2, 326760, Note_on_c, 0, 73, 117
2, 326760, Note_on_c, 0, 76, 117
2, 326760, Note_on_c, 0, 64, 117
2, 326760, Note_on_c, 0, 57, 117
2, 326760, Note_on_c, 0, 45, 117
2, 326815, Note_on_c, 0, 73, 0
2, 326875, Note_on_c, 0, 57, 0
2, 326875, Note_on_c, 0, 45, 0
2, 326880, Note_on_c, 0, 69, 117
2, 326880, Note_on_c, 0, 61, 117
2, 326880, Note_on_c, 0, 49, 117
2, 326995, Note_on_c, 0, 49, 0
2, 326995, Note_on_c, 0, 69, 0
2, 326995, Note_on_c, 0, 76, 0
2, 326995, Note_on_c, 0, 64, 0
2, 326995, Note_on_c, 0, 61, 0
2, 327000, Note_on_c, 0, 69, 117
2, 327000, Note_on_c, 0, 74, 117
2, 327000, Note_on_c, 0, 66, 117
2, 327000, Note_on_c, 0, 62, 117
2, 327000, Note_on_c, 0, 50, 117
2, 327115, Note_on_c, 0, 50, 0
2, 327115, Note_on_c, 0, 66, 0
2, 327115, Note_on_c, 0, 62, 0
2, 327120, Note_on_c, 0, 64, 117
2, 327120, Note_on_c, 0, 61, 117
2, 327120, Note_on_c, 0, 49, 117
2, 327235, Note_on_c, 0, 49, 0
2, 327235, Note_on_c, 0, 64, 0
2, 327235, Note_on_c, 0, 61, 0
2, 327240, Note_on_c, 0, 66, 117
2, 327240, Note_on_c, 0, 62, 117
2, 327240, Note_on_c, 0, 50, 117
2, 327355, Note_on_c, 0, 50, 0
2, 327355, Note_on_c, 0, 66, 0
2, 327355, Note_on_c, 0, 62, 0
2, 327360, Note_on_c, 0, 62, 117
2, 327360, Note_on_c, 0, 59, 117
2, 327360, Note_on_c, 0, 47, 117
2, 327475, Note_on_c, 0, 47, 0
2, 327475, Note_on_c, 0, 62, 0
2, 327475, Note_on_c, 0, 69, 0
2, 327475, Note_on_c, 0, 74, 0
2, 327475, Note_on_c, 0, 59, 0
2, 327480, Note_on_c, 0, 69, 117
2, 327480, Note_on_c, 0, 73, 117
2, 327480, Note_on_c, 0, 76, 117
2, 327480, Note_on_c, 0, 64, 117
2, 327480, Note_on_c, 0, 57, 117
2, 327480, Note_on_c, 0, 45, 117
2, 327595, Note_on_c, 0, 45, 0
2, 327595, Note_on_c, 0, 57, 0
2, 327600, Note_on_c, 0, 55, 117
2, 327600, Note_on_c, 0, 43, 117
2, 327715, Note_on_c, 0, 43, 0
2, 327715, Note_on_c, 0, 73, 0
2, 327715, Note_on_c, 0, 64, 0
2, 327715, Note_on_c, 0, 69, 0
2, 327715, Note_on_c, 0, 55, 0
2, 327715, Note_on_c, 0, 76, 0
2, 327720, Note_on_c, 0, 69, 117
2, 327720, Note_on_c, 0, 74, 117
2, 327720, Note_on_c, 0, 78, 117
2, 327720, Note_on_c, 0, 66, 117
2, 327720, Note_on_c, 0, 54, 117
2, 327720, Note_on_c, 0, 42, 117
2, 327835, Note_on_c, 0, 42, 0
2, 327835, Note_on_c, 0, 54, 0
2, 327840, Note_on_c, 0, 52, 117
2, 327840, Note_on_c, 0, 40, 117
2, 327955, Note_on_c, 0, 40, 0
2, 327955, Note_on_c, 0, 52, 0
2, 327960, Note_on_c, 0, 50, 117
2, 327960, Note_on_c, 0, 38, 117
2, 328075, Note_on_c, 0, 38, 0
2, 328075, Note_on_c, 0, 74, 0
2, 328075, Note_on_c, 0, 78, 0
2, 328075, Note_on_c, 0, 69, 0
2, 328075, Note_on_c, 0, 50, 0
2, 328075, Note_on_c, 0, 66, 0
2, 328080, Note_on_c, 0, 79, 117
2, 328080, Note_on_c, 0, 67, 117
2, 328080, Note_on_c, 0, 48, 117
2, 328080, Note_on_c, 0, 36, 117
2, 328135, Note_on_c, 0, 67, 0
2, 328135, Note_on_c, 0, 79, 0
2, 328140, Note_on_c, 0, 81, 117
2, 328140, Note_on_c, 0, 69, 117
2, 328195, Note_on_c, 0, 69, 0
2, 328195, Note_on_c, 0, 36, 0
2, 328195, Note_on_c, 0, 48, 0
2, 328195, Note_on_c, 0, 81, 0
2, 328200, Note_on_c, 0, 79, 117
2, 328200, Note_on_c, 0, 83, 117
2, 328200, Note_on_c, 0, 71, 117
2, 328200, Note_on_c, 0, 47, 117
2, 328200, Note_on_c, 0, 35, 117
2, 328255, Note_on_c, 0, 35, 0
2, 328255, Note_on_c, 0, 71, 0
2, 328255, Note_on_c, 0, 79, 0
2, 328255, Note_on_c, 0, 83, 0
2, 328255, Note_on_c, 0, 47, 0
2, 328320, Note_on_c, 0, 79, 117
2, 328320, Note_on_c, 0, 83, 117
2, 328320, Note_on_c, 0, 71, 117
2, 328320, Note_on_c, 0, 43, 117
2, 328320, Note_on_c, 0, 31, 117
2, 328375, Note_on_c, 0, 31, 0
2, 328375, Note_on_c, 0, 71, 0
2, 328375, Note_on_c, 0, 79, 0
2, 328375, Note_on_c, 0, 83, 0
2, 328375, Note_on_c, 0, 43, 0
2, 328440, Note_on_c, 0, 78, 117
2, 328440, Note_on_c, 0, 85, 117
2, 328440, Note_on_c, 0, 73, 117
2, 328440, Note_on_c, 0, 45, 117
2, 328440, Note_on_c, 0, 33, 117
2, 328495, Note_on_c, 0, 33, 0
2, 328495, Note_on_c, 0, 73, 0
2, 328495, Note_on_c, 0, 78, 0
2, 328495, Note_on_c, 0, 85, 0
2, 328495, Note_on_c, 0, 45, 0
2, 328560, Note_on_c, 0, 78, 117
2, 328560, Note_on_c, 0, 85, 117
2, 328560, Note_on_c, 0, 73, 117
2, 328560, Note_on_c, 0, 57, 117
2, 328560, Note_on_c, 0, 45, 117
2, 328615, Note_on_c, 0, 45, 0
2, 328615, Note_on_c, 0, 73, 0
2, 328615, Note_on_c, 0, 78, 0
2, 328615, Note_on_c, 0, 85, 0
2, 328615, Note_on_c, 0, 57, 0
2, 328680, Note_on_c, 0, 78, 117
2, 328680, Note_on_c, 0, 86, 117
2, 328680, Note_on_c, 0, 74, 117
2, 328680, Note_on_c, 0, 50, 117
2, 328680, Note_on_c, 0, 38, 117
2, 328795, Note_on_c, 0, 38, 0
2, 328795, Note_on_c, 0, 74, 0
2, 328795, Note_on_c, 0, 78, 0
2, 328795, Note_on_c, 0, 86, 0
2, 328795, Note_on_c, 0, 50, 0
2, 328920, Note_on_c, 0, 38, 53
2, 328920, Note_on_c, 0, 50, 53
2, 329035, Note_on_c, 0, 50, 0
2, 329040, Note_on_c, 0, 52, 53
2, 329155, Note_on_c, 0, 52, 0
2, 329160, Note_on_c, 0, 54, 53
2, 329275, Note_on_c, 0, 54, 0
2, 329280, Note_on_c, 0, 55, 53
2, 329395, Note_on_c, 0, 55, 0
2, 329400, Note_on_c, 0, 57, 53
2, 329400, Note_on_c, 0, 50, 53
2, 329420, Note_on_c, 0, 38, 0
2, 329515, Note_on_c, 0, 57, 0
2, 329520, Note_on_c, 0, 59, 53
2, 329635, Note_on_c, 0, 59, 0
2, 329635, Note_on_c, 0, 50, 0
2, 329640, Note_on_c, 0, 59, 53
2, 329640, Note_on_c, 0, 49, 53
2, 329640, Note_on_c, 0, 37, 53
2, 329755, Note_on_c, 0, 59, 0
2, 329760, Note_on_c, 0, 57, 53
2, 329875, Note_on_c, 0, 57, 0
2, 329880, Note_on_c, 0, 59, 53
2, 329880, Note_on_c, 0, 57, 53
2, 329880, Note_on_c, 0, 69, 53
2, 329995, Note_on_c, 0, 59, 0
2, 330000, Note_on_c, 0, 61, 53
2, 330115, Note_on_c, 0, 61, 0
2, 330115, Note_on_c, 0, 49, 0
2, 330115, Note_on_c, 0, 37, 0
2, 330120, Note_on_c, 0, 62, 53
2, 330120, Note_on_c, 0, 47, 53
2, 330120, Note_on_c, 0, 35, 53
2, 330235, Note_on_c, 0, 62, 0
2, 330240, Note_on_c, 0, 61, 53
2, 330355, Note_on_c, 0, 61, 0
2, 330355, Note_on_c, 0, 69, 0
2, 330355, Note_on_c, 0, 57, 0
2, 330360, Note_on_c, 0, 62, 53
2, 330360, Note_on_c, 0, 56, 53
2, 330360, Note_on_c, 0, 68, 53
2, 330475, Note_on_c, 0, 62, 0
2, 330480, Note_on_c, 0, 64, 53
2, 330595, Note_on_c, 0, 64, 0
2, 330595, Note_on_c, 0, 68, 0
2, 330595, Note_on_c, 0, 35, 0
2, 330595, Note_on_c, 0, 47, 0
2, 330595, Note_on_c, 0, 56, 0
2, 330600, Note_on_c, 0, 62, 53
2, 330600, Note_on_c, 0, 45, 53
2, 330600, Note_on_c, 0, 57, 53
2, 330600, Note_on_c, 0, 69, 53
2, 330600, Note_on_c, 0, 33, 53
2, 330715, Note_on_c, 0, 62, 0
2, 330720, Note_on_c, 0, 61, 53
2, 330835, Note_on_c, 0, 61, 0
2, 330835, Note_on_c, 0, 45, 0
2, 330835, Note_on_c, 0, 57, 0
2, 330840, Note_on_c, 0, 62, 53
2, 330840, Note_on_c, 0, 71, 53
2, 330840, Note_on_c, 0, 59, 53
2, 330955, Note_on_c, 0, 59, 0
2, 330955, Note_on_c, 0, 62, 0
2, 330955, Note_on_c, 0, 71, 0
2, 330960, Note_on_c, 0, 64, 53
2, 330960, Note_on_c, 0, 73, 53
2, 330960, Note_on_c, 0, 61, 53
2, 331075, Note_on_c, 0, 61, 0
2, 331075, Note_on_c, 0, 64, 0
2, 331075, Note_on_c, 0, 73, 0
2, 331080, Note_on_c, 0, 66, 53
2, 331080, Note_on_c, 0, 74, 53
2, 331080, Note_on_c, 0, 62, 53
2, 331100, Note_on_c, 0, 69, 0
2, 331100, Note_on_c, 0, 33, 0
2, 331195, Note_on_c, 0, 74, 0
2, 331195, Note_on_c, 0, 66, 0
2, 331195, Note_on_c, 0, 62, 0
2, 331200, Note_on_c, 0, 64, 53
2, 331200, Note_on_c, 0, 73, 53
2, 331200, Note_on_c, 0, 61, 53
2, 331315, Note_on_c, 0, 61, 0
2, 331315, Note_on_c, 0, 73, 0
2, 331315, Note_on_c, 0, 64, 0
2, 331320, Note_on_c, 0, 66, 53
2, 331320, Note_on_c, 0, 74, 53
2, 331320, Note_on_c, 0, 62, 53
2, 331320, Note_on_c, 0, 43, 53
2, 331320, Note_on_c, 0, 31, 53
2, 331435, Note_on_c, 0, 62, 0
2, 331435, Note_on_c, 0, 66, 0
2, 331435, Note_on_c, 0, 74, 0
2, 331440, Note_on_c, 0, 67, 53
2, 331440, Note_on_c, 0, 76, 53
2, 331440, Note_on_c, 0, 64, 53
2, 331555, Note_on_c, 0, 64, 0
2, 331555, Note_on_c, 0, 67, 0
2, 331555, Note_on_c, 0, 31, 0
2, 331555, Note_on_c, 0, 43, 0
2, 331555, Note_on_c, 0, 76, 0
2, 331560, Note_on_c, 0, 69, 53
2, 331560, Note_on_c, 0, 78, 53
2, 331560, Note_on_c, 0, 66, 53
2, 331560, Note_on_c, 0, 42, 53
2, 331560, Note_on_c, 0, 30, 53
2, 331675, Note_on_c, 0, 30, 0
2, 331675, Note_on_c, 0, 69, 0
2, 331675, Note_on_c, 0, 66, 0
2, 331675, Note_on_c, 0, 78, 0
2, 331680, Note_on_c, 0, 81, 53
2, 331680, Note_on_c, 0, 69, 53
2, 331795, Note_on_c, 0, 69, 0
2, 331795, Note_on_c, 0, 81, 0
2, 331795, Note_on_c, 0, 42, 0
2, 331800, Note_on_c, 0, 79, 53
2, 331800, Note_on_c, 0, 83, 53
2, 331800, Note_on_c, 0, 71, 53
2, 331800, Note_on_c, 0, 40, 53
2, 331915, Note_on_c, 0, 40, 0
2, 331915, Note_on_c, 0, 79, 0
2, 331915, Note_on_c, 0, 83, 0
2, 331915, Note_on_c, 0, 71, 0
2, 331920, Note_on_c, 0, 76, 53
2, 331920, Note_on_c, 0, 79, 53
2, 331920, Note_on_c, 0, 67, 53
2, 331920, Note_on_c, 0, 43, 53
2, 332035, Note_on_c, 0, 43, 0
2, 332035, Note_on_c, 0, 76, 0
2, 332035, Note_on_c, 0, 79, 0
2, 332035, Note_on_c, 0, 67, 0
2, 332040, Note_on_c, 0, 74, 53
2, 332040, Note_on_c, 0, 78, 53
2, 332040, Note_on_c, 0, 66, 53
2, 332040, Note_on_c, 0, 45, 53
2, 332095, Note_on_c, 0, 45, 0
2, 332095, Note_on_c, 0, 74, 0
2, 332095, Note_on_c, 0, 78, 0
2, 332095, Note_on_c, 0, 66, 0
2, 332280, Note_on_c, 0, 73, 53
2, 332280, Note_on_c, 0, 76, 53
2, 332280, Note_on_c, 0, 64, 53
2, 332280, Note_on_c, 0, 45, 53
2, 332280, Note_on_c, 0, 33, 53
2, 332335, Note_on_c, 0, 33, 0
2, 332335, Note_on_c, 0, 64, 0
2, 332335, Note_on_c, 0, 73, 0
2, 332335, Note_on_c, 0, 76, 0
2, 332335, Note_on_c, 0, 45, 0
2, 332520, Note_on_c, 0, 74, 53
2, 332520, Note_on_c, 0, 62, 53
2, 332520, Note_on_c, 0, 50, 53
2, 332520, Note_on_c, 0, 38, 53
2, 332575, Note_on_c, 0, 38, 0
2, 332575, Note_on_c, 0, 74, 0
2, 332575, Note_on_c, 0, 62, 0
2, 332640, Note_on_c, 0, 66, 53
2, 332755, Note_on_c, 0, 66, 0
2, 332760, Note_on_c, 0, 62, 53
2, 332875, Note_on_c, 0, 62, 0
2, 332875, Note_on_c, 0, 50, 0
2, 332880, Note_on_c, 0, 61, 53
2, 332880, Note_on_c, 0, 52, 53
2, 332995, Note_on_c, 0, 52, 0
2, 332995, Note_on_c, 0, 61, 0
2, 333000, Note_on_c, 0, 62, 53
2, 333000, Note_on_c, 0, 54, 53
2, 333000, Note_on_c, 0, 50, 53
2, 333115, Note_on_c, 0, 54, 0
2, 333115, Note_on_c, 0, 62, 0
2, 333120, Note_on_c, 0, 64, 53
2, 333120, Note_on_c, 0, 55, 53
2, 333235, Note_on_c, 0, 55, 0
2, 333235, Note_on_c, 0, 64, 0
2, 333240, Note_on_c, 0, 66, 53
2, 333240, Note_on_c, 0, 57, 53
2, 333355, Note_on_c, 0, 57, 0
2, 333355, Note_on_c, 0, 66, 0
2, 333360, Note_on_c, 0, 67, 53
2, 333360, Note_on_c, 0, 59, 53
2, 333475, Note_on_c, 0, 59, 0
2, 333475, Note_on_c, 0, 67, 0
2, 333475, Note_on_c, 0, 50, 0
2, 333480, Note_on_c, 0, 64, 56
2, 333480, Note_on_c, 0, 59, 56
2, 333480, Note_on_c, 0, 49, 66
2, 333595, Note_on_c, 0, 59, 0
2, 333595, Note_on_c, 0, 64, 0
2, 333600, Note_on_c, 0, 69, 60
2, 333600, Note_on_c, 0, 57, 60
2, 333715, Note_on_c, 0, 57, 0
2, 333715, Note_on_c, 0, 69, 0
2, 333720, Note_on_c, 0, 68, 63
2, 333720, Note_on_c, 0, 59, 63
2, 333835, Note_on_c, 0, 59, 0
2, 333835, Note_on_c, 0, 68, 0
2, 333840, Note_on_c, 0, 69, 66
2, 333840, Note_on_c, 0, 61, 66
2, 333955, Note_on_c, 0, 61, 0
2, 333955, Note_on_c, 0, 69, 0
2, 333955, Note_on_c, 0, 49, 0
2, 333960, Note_on_c, 0, 71, 70
2, 333960, Note_on_c, 0, 62, 70
2, 333960, Note_on_c, 0, 47, 80
2, 334075, Note_on_c, 0, 62, 0
2, 334075, Note_on_c, 0, 71, 0
2, 334080, Note_on_c, 0, 64, 73
2, 334080, Note_on_c, 0, 61, 73
2, 334195, Note_on_c, 0, 61, 0
2, 334195, Note_on_c, 0, 64, 0
2, 334200, Note_on_c, 0, 66, 77
2, 334200, Note_on_c, 0, 62, 77
2, 334315, Note_on_c, 0, 62, 0
2, 334315, Note_on_c, 0, 66, 0
2, 334320, Note_on_c, 0, 68, 80
2, 334320, Note_on_c, 0, 64, 80
2, 334435, Note_on_c, 0, 64, 0
2, 334435, Note_on_c, 0, 68, 0
2, 334435, Note_on_c, 0, 47, 0
2, 334440, Note_on_c, 0, 69, 83
2, 334440, Note_on_c, 0, 62, 83
2, 334440, Note_on_c, 0, 45, 83
2, 334555, Note_on_c, 0, 62, 0
2, 334560, Note_on_c, 0, 81, 87
2, 334560, Note_on_c, 0, 61, 87
2, 334675, Note_on_c, 0, 61, 0
2, 334675, Note_on_c, 0, 69, 0
2, 334675, Note_on_c, 0, 45, 0
2, 334675, Note_on_c, 0, 81, 0
2, 334680, Note_on_c, 0, 83, 90
2, 334680, Note_on_c, 0, 71, 90
2, 334680, Note_on_c, 0, 62, 90
2, 334680, Note_on_c, 0, 66, 90
2, 334680, Note_on_c, 0, 57, 90
2, 334795, Note_on_c, 0, 66, 0
2, 334795, Note_on_c, 0, 62, 0
2, 334795, Note_on_c, 0, 83, 0
2, 334795, Note_on_c, 0, 71, 0
2, 334800, Note_on_c, 0, 85, 93
2, 334800, Note_on_c, 0, 73, 93
2, 334800, Note_on_c, 0, 64, 93
2, 334800, Note_on_c, 0, 67, 93
2, 334915, Note_on_c, 0, 67, 0
2, 334915, Note_on_c, 0, 73, 0
2, 334915, Note_on_c, 0, 64, 0
2, 334915, Note_on_c, 0, 85, 0
2, 334920, Note_on_c, 0, 86, 97
2, 334920, Note_on_c, 0, 74, 97
2, 334920, Note_on_c, 0, 66, 97
2, 334920, Note_on_c, 0, 69, 97
2, 335035, Note_on_c, 0, 69, 0
2, 335035, Note_on_c, 0, 74, 0
2, 335035, Note_on_c, 0, 66, 0
2, 335035, Note_on_c, 0, 86, 0
2, 335040, Note_on_c, 0, 85, 100
2, 335040, Note_on_c, 0, 73, 100
2, 335040, Note_on_c, 0, 64, 100
2, 335040, Note_on_c, 0, 67, 100
2, 335155, Note_on_c, 0, 67, 0
2, 335155, Note_on_c, 0, 73, 0
2, 335155, Note_on_c, 0, 64, 0
2, 335155, Note_on_c, 0, 85, 0
2, 335160, Note_on_c, 0, 86, 104
2, 335160, Note_on_c, 0, 74, 104
2, 335160, Note_on_c, 0, 66, 104
2, 335180, Note_on_c, 0, 57, 0
2, 335275, Note_on_c, 0, 86, 0
2, 335275, Note_on_c, 0, 74, 0
2, 335275, Note_on_c, 0, 66, 0
2, 335280, Note_on_c, 0, 85, 107
2, 335280, Note_on_c, 0, 88, 107
2, 335280, Note_on_c, 0, 76, 107
2, 335280, Note_on_c, 0, 67, 107
2, 335280, Note_on_c, 0, 55, 107
2, 335395, Note_on_c, 0, 55, 0
2, 335395, Note_on_c, 0, 76, 0
2, 335395, Note_on_c, 0, 85, 0
2, 335395, Note_on_c, 0, 88, 0
2, 335395, Note_on_c, 0, 67, 0
2, 335400, Note_on_c, 0, 86, 110
2, 335400, Note_on_c, 0, 90, 110
2, 335400, Note_on_c, 0, 78, 110
2, 335400, Note_on_c, 0, 69, 110
2, 335400, Note_on_c, 0, 54, 110
2, 335515, Note_on_c, 0, 69, 0
2, 335515, Note_on_c, 0, 78, 0
2, 335515, Note_on_c, 0, 86, 0
2, 335515, Note_on_c, 0, 90, 0
2, 335520, Note_on_c, 0, 93, 114
2, 335520, Note_on_c, 0, 81, 114
2, 335520, Note_on_c, 0, 62, 114
2, 335635, Note_on_c, 0, 62, 0
2, 335635, Note_on_c, 0, 54, 0
2, 335635, Note_on_c, 0, 93, 0
2, 335635, Note_on_c, 0, 81, 0
2, 335640, Note_on_c, 0, 83, 117
2, 335640, Note_on_c, 0, 91, 117
2, 335640, Note_on_c, 0, 79, 117
2, 335640, Note_on_c, 0, 67, 117
2, 335640, Note_on_c, 0, 52, 117
2, 335755, Note_on_c, 0, 52, 0
2, 335755, Note_on_c, 0, 83, 0
2, 335755, Note_on_c, 0, 79, 0
2, 335755, Note_on_c, 0, 91, 0
2, 335760, Note_on_c, 0, 83, 117
2, 335760, Note_on_c, 0, 71, 117
2, 335760, Note_on_c, 0, 55, 117
2, 335875, Note_on_c, 0, 55, 0
2, 335875, Note_on_c, 0, 67, 0
2, 335875, Note_on_c, 0, 83, 0
2, 335875, Note_on_c, 0, 71, 0
2, 335880, Note_on_c, 0, 81, 53
2, 335880, Note_on_c, 0, 86, 53
2, 335880, Note_on_c, 0, 74, 53
2, 335880, Note_on_c, 0, 66, 53
2, 335880, Note_on_c, 0, 57, 53
2, 335935, Note_on_c, 0, 57, 0
2, 335935, Note_on_c, 0, 74, 0
2, 335935, Note_on_c, 0, 81, 0
2, 335935, Note_on_c, 0, 86, 0
2, 335935, Note_on_c, 0, 66, 0
2, 336120, Note_on_c, 0, 81, 53
2, 336120, Note_on_c, 0, 85, 53
2, 336120, Note_on_c, 0, 73, 53
2, 336120, Note_on_c, 0, 64, 53
2, 336120, Note_on_c, 0, 57, 53
2, 336175, Note_on_c, 0, 57, 0
2, 336175, Note_on_c, 0, 73, 0
2, 336175, Note_on_c, 0, 81, 0
2, 336175, Note_on_c, 0, 85, 0
2, 336175, Note_on_c, 0, 64, 0
2, 336360, Note_on_c, 0, 74, 53
2, 336360, Note_on_c, 0, 81, 53
2, 336360, Note_on_c, 0, 86, 53
2, 336360, Note_on_c, 0, 50, 53
2, 336360, Note_on_c, 0, 62, 53
2, 336415, Note_on_c, 0, 50, 0
2, 336415, Note_on_c, 0, 86, 0
2, 336415, Note_on_c, 0, 74, 0
2, 336415, Note_on_c, 0, 81, 0
2, 336600, Note_on_c, 0, 86, 53
2, 336655, Note_on_c, 0, 86, 0
2, 336720, Note_on_c, 0, 85, 53
2, 336775, Note_on_c, 0, 85, 0
2, 336840, Note_on_c, 0, 86, 53
2, 336895, Note_on_c, 0, 86, 0
2, 336960, Note_on_c, 0, 83, 53
2, 337015, Note_on_c, 0, 83, 0
2, 337080, Note_on_c, 0, 62, 0
2, 337080, Note_on_c, 0, 81, 53
2, 337080, Note_on_c, 0, 64, 53
2, 337135, Note_on_c, 0, 81, 0
2, 337200, Note_on_c, 0, 79, 53
2, 337255, Note_on_c, 0, 79, 0
2, 337315, Note_on_c, 0, 64, 0
2, 337320, Note_on_c, 0, 78, 53
2, 337320, Note_on_c, 0, 66, 53
2, 337320, Note_on_c, 0, 62, 53
2, 337375, Note_on_c, 0, 78, 0
2, 337440, Note_on_c, 0, 76, 53
2, 337495, Note_on_c, 0, 76, 0
2, 337560, Note_on_c, 0, 74, 53
2, 337615, Note_on_c, 0, 74, 0
2, 337675, Note_on_c, 0, 66, 0
2, 337680, Note_on_c, 0, 72, 53
2, 337680, Note_on_c, 0, 67, 53
2, 337735, Note_on_c, 0, 67, 0
2, 337735, Note_on_c, 0, 72, 0
2, 337740, Note_on_c, 0, 69, 53
2, 337795, Note_on_c, 0, 69, 0
2, 337800, Note_on_c, 0, 71, 53
2, 337800, Note_on_c, 0, 67, 53
2, 337855, Note_on_c, 0, 67, 0
2, 337855, Note_on_c, 0, 71, 0
2, 337920, Note_on_c, 0, 73, 53
2, 337920, Note_on_c, 0, 67, 53
2, 337975, Note_on_c, 0, 67, 0
2, 337975, Note_on_c, 0, 73, 0
2, 338040, Note_on_c, 0, 74, 53
2, 338040, Note_on_c, 0, 66, 53
2, 338095, Note_on_c, 0, 66, 0
2, 338095, Note_on_c, 0, 74, 0
2, 338160, Note_on_c, 0, 62, 0
2, 338160, Note_on_c, 0, 78, 53
2, 338160, Note_on_c, 0, 66, 53
2, 338215, Note_on_c, 0, 66, 0
2, 338215, Note_on_c, 0, 78, 0
2, 338280, Note_on_c, 0, 81, 53
2, 338280, Note_on_c, 0, 64, 53
2, 338280, Note_on_c, 0, 62, 53
2, 338335, Note_on_c, 0, 81, 0
2, 338400, Note_on_c, 0, 79, 53
2, 338455, Note_on_c, 0, 79, 0
2, 338515, Note_on_c, 0, 62, 0
2, 338515, Note_on_c, 0, 64, 0
2, 338520, Note_on_c, 0, 78, 53
2, 338520, Note_on_c, 0, 74, 53
2, 338520, Note_on_c, 0, 62, 53
2, 338575, Note_on_c, 0, 74, 0
2, 338575, Note_on_c, 0, 78, 0
2, 338640, Note_on_c, 0, 73, 53
2, 338695, Note_on_c, 0, 73, 0
2, 338760, Note_on_c, 0, 74, 53
2, 338815, Note_on_c, 0, 74, 0
2, 338880, Note_on_c, 0, 71, 53
2, 338935, Note_on_c, 0, 71, 0
2, 338995, Note_on_c, 0, 62, 0
2, 339000, Note_on_c, 0, 69, 53
2, 339000, Note_on_c, 0, 64, 53
2, 339055, Note_on_c, 0, 69, 0
2, 339120, Note_on_c, 0, 67, 53
2, 339175, Note_on_c, 0, 67, 0
2, 339235, Note_on_c, 0, 64, 0
2, 339240, Note_on_c, 0, 66, 53
2, 339240, Note_on_c, 0, 62, 53
2, 339360, Note_on_c, 0, 64, 53
2, 339415, Note_on_c, 0, 64, 0
2, 339475, Note_on_c, 0, 62, 0
2, 339480, Note_on_c, 0, 62, 53
2, 339535, Note_on_c, 0, 62, 0
2, 339595, Note_on_c, 0, 66, 0
2, 339600, Note_on_c, 0, 60, 53
2, 339600, Note_on_c, 0, 67, 53
2, 339655, Note_on_c, 0, 67, 0
2, 339655, Note_on_c, 0, 60, 0
2, 339660, Note_on_c, 0, 69, 53
2, 339715, Note_on_c, 0, 69, 0
2, 339720, Note_on_c, 0, 59, 53
2, 339720, Note_on_c, 0, 67, 53
2, 339775, Note_on_c, 0, 67, 0
2, 339775, Note_on_c, 0, 59, 0
2, 339840, Note_on_c, 0, 61, 53
2, 339840, Note_on_c, 0, 67, 53
2, 339895, Note_on_c, 0, 67, 0
2, 339895, Note_on_c, 0, 61, 0
2, 339960, Note_on_c, 0, 62, 53
2, 339960, Note_on_c, 0, 66, 53
2, 340015, Note_on_c, 0, 66, 0
2, 340015, Note_on_c, 0, 62, 0
2, 340080, Note_on_c, 0, 66, 53
2, 340080, Note_on_c, 0, 66, 53
2, 340135, Note_on_c, 0, 66, 0
2, 340135, Note_on_c, 0, 66, 0
2, 340200, Note_on_c, 0, 69, 53
2, 340200, Note_on_c, 0, 62, 53
2, 340200, Note_on_c, 0, 64, 53
2, 340255, Note_on_c, 0, 64, 0
2, 340255, Note_on_c, 0, 62, 0
2, 340255, Note_on_c, 0, 69, 0
2, 340440, Note_on_c, 0, 74, 53
2, 340440, Note_on_c, 0, 62, 53
2, 340495, Note_on_c, 0, 74, 0
2, 340560, Note_on_c, 0, 73, 53
2, 340560, Note_on_c, 0, 61, 53
2, 340615, Note_on_c, 0, 61, 0
2, 340615, Note_on_c, 0, 73, 0
2, 340680, Note_on_c, 0, 74, 53
2, 340680, Note_on_c, 0, 62, 53
2, 340735, Note_on_c, 0, 74, 0
2, 340735, Note_on_c, 0, 62, 0
2, 340800, Note_on_c, 0, 71, 53
2, 340800, Note_on_c, 0, 59, 53
2, 340855, Note_on_c, 0, 59, 0
2, 340855, Note_on_c, 0, 71, 0
2, 340915, Note_on_c, 0, 62, 0
2, 340920, Note_on_c, 0, 69, 53
2, 340920, Note_on_c, 0, 57, 53
2, 340920, Note_on_c, 0, 62, 53
2, 340920, Note_on_c, 0, 64, 53
2, 340975, Note_on_c, 0, 57, 0
2, 340975, Note_on_c, 0, 69, 0
2, 341040, Note_on_c, 0, 67, 53
2, 341040, Note_on_c, 0, 55, 53
2, 341095, Note_on_c, 0, 55, 0
2, 341095, Note_on_c, 0, 67, 0
2, 341155, Note_on_c, 0, 62, 0
2, 341155, Note_on_c, 0, 64, 0
2, 341160, Note_on_c, 0, 66, 53
2, 341160, Note_on_c, 0, 62, 53
2, 341160, Note_on_c, 0, 54, 53
2, 341215, Note_on_c, 0, 54, 0
2, 341280, Note_on_c, 0, 64, 53
2, 341280, Note_on_c, 0, 52, 53
2, 341335, Note_on_c, 0, 52, 0
2, 341335, Note_on_c, 0, 64, 0
2, 341395, Note_on_c, 0, 62, 0
2, 341400, Note_on_c, 0, 62, 53
2, 341400, Note_on_c, 0, 50, 53
2, 341455, Note_on_c, 0, 50, 0
2, 341455, Note_on_c, 0, 62, 0
2, 341515, Note_on_c, 0, 66, 0
2, 341520, Note_on_c, 0, 67, 53
2, 341520, Note_on_c, 0, 60, 53
2, 341520, Note_on_c, 0, 48, 53
2, 341575, Note_on_c, 0, 48, 0
2, 341575, Note_on_c, 0, 60, 0
2, 341575, Note_on_c, 0, 67, 0
2, 341580, Note_on_c, 0, 69, 53
2, 341635, Note_on_c, 0, 69, 0
2, 341640, Note_on_c, 0, 67, 53
2, 341640, Note_on_c, 0, 59, 53
2, 341640, Note_on_c, 0, 47, 53
2, 341695, Note_on_c, 0, 47, 0
2, 341695, Note_on_c, 0, 59, 0
2, 341695, Note_on_c, 0, 67, 0
2, 341760, Note_on_c, 0, 67, 53
2, 341760, Note_on_c, 0, 61, 53
2, 341760, Note_on_c, 0, 49, 53
2, 341815, Note_on_c, 0, 49, 0
2, 341815, Note_on_c, 0, 61, 0
2, 341815, Note_on_c, 0, 67, 0
2, 341880, Note_on_c, 0, 66, 53
2, 341880, Note_on_c, 0, 62, 53
2, 341880, Note_on_c, 0, 50, 53
2, 341935, Note_on_c, 0, 50, 0
2, 341935, Note_on_c, 0, 66, 0
2, 342000, Note_on_c, 0, 66, 53
2, 342000, Note_on_c, 0, 54, 53
2, 342055, Note_on_c, 0, 54, 0
2, 342055, Note_on_c, 0, 66, 0
2, 342120, Note_on_c, 0, 69, 53
2, 342120, Note_on_c, 0, 64, 53
2, 342120, Note_on_c, 0, 57, 53
2, 342175, Note_on_c, 0, 57, 0
2, 342175, Note_on_c, 0, 69, 0
2, 342240, Note_on_c, 0, 67, 53
2, 342240, Note_on_c, 0, 55, 53
2, 342295, Note_on_c, 0, 55, 0
2, 342295, Note_on_c, 0, 67, 0
2, 342355, Note_on_c, 0, 64, 0
2, 342355, Note_on_c, 0, 62, 0
2, 342360, Note_on_c, 0, 86, 53
2, 342360, Note_on_c, 0, 74, 53
2, 342360, Note_on_c, 0, 62, 53
2, 342360, Note_on_c, 0, 66, 53
2, 342360, Note_on_c, 0, 54, 53
2, 342415, Note_on_c, 0, 54, 0
2, 342415, Note_on_c, 0, 74, 0
2, 342415, Note_on_c, 0, 86, 0
2, 342415, Note_on_c, 0, 66, 0
2, 342480, Note_on_c, 0, 85, 53
2, 342480, Note_on_c, 0, 73, 53
2, 342535, Note_on_c, 0, 73, 0
2, 342535, Note_on_c, 0, 85, 0
2, 342595, Note_on_c, 0, 62, 0
2, 342600, Note_on_c, 0, 86, 53
2, 342600, Note_on_c, 0, 74, 53
2, 342600, Note_on_c, 0, 62, 53
2, 342655, Note_on_c, 0, 74, 0
2, 342655, Note_on_c, 0, 86, 0
2, 342720, Note_on_c, 0, 83, 53
2, 342720, Note_on_c, 0, 71, 53
2, 342775, Note_on_c, 0, 71, 0
2, 342775, Note_on_c, 0, 83, 0
2, 342840, Note_on_c, 0, 81, 53
2, 342840, Note_on_c, 0, 69, 53
2, 342840, Note_on_c, 0, 64, 53
2, 342895, Note_on_c, 0, 69, 0
2, 342895, Note_on_c, 0, 81, 0
2, 342960, Note_on_c, 0, 79, 53
2, 342960, Note_on_c, 0, 67, 53
2, 343015, Note_on_c, 0, 67, 0
2, 343015, Note_on_c, 0, 79, 0
2, 343075, Note_on_c, 0, 62, 0
2, 343075, Note_on_c, 0, 64, 0
2, 343080, Note_on_c, 0, 78, 53
2, 343080, Note_on_c, 0, 66, 53
2, 343080, Note_on_c, 0, 66, 53
2, 343080, Note_on_c, 0, 62, 53
2, 343135, Note_on_c, 0, 66, 0
2, 343135, Note_on_c, 0, 78, 0
2, 343200, Note_on_c, 0, 76, 53
2, 343200, Note_on_c, 0, 64, 53
2, 343255, Note_on_c, 0, 64, 0
2, 343255, Note_on_c, 0, 76, 0
2, 343315, Note_on_c, 0, 62, 0
2, 343320, Note_on_c, 0, 74, 53
2, 343320, Note_on_c, 0, 62, 53
2, 343375, Note_on_c, 0, 62, 0
2, 343375, Note_on_c, 0, 74, 0
2, 343435, Note_on_c, 0, 66, 0
2, 343440, Note_on_c, 0, 72, 53
2, 343440, Note_on_c, 0, 60, 53
2, 343440, Note_on_c, 0, 67, 53
2, 343495, Note_on_c, 0, 67, 0
2, 343495, Note_on_c, 0, 60, 0
2, 343495, Note_on_c, 0, 72, 0
2, 343500, Note_on_c, 0, 69, 53
2, 343555, Note_on_c, 0, 69, 0
2, 343560, Note_on_c, 0, 71, 53
2, 343560, Note_on_c, 0, 59, 53
2, 343560, Note_on_c, 0, 67, 53
2, 343615, Note_on_c, 0, 67, 0
2, 343615, Note_on_c, 0, 59, 0
2, 343615, Note_on_c, 0, 71, 0
2, 343680, Note_on_c, 0, 73, 53
2, 343680, Note_on_c, 0, 61, 53
2, 343680, Note_on_c, 0, 67, 53
2, 343735, Note_on_c, 0, 67, 0
2, 343735, Note_on_c, 0, 61, 0
2, 343735, Note_on_c, 0, 73, 0
2, 343800, Note_on_c, 0, 74, 53
2, 343800, Note_on_c, 0, 62, 53
2, 343800, Note_on_c, 0, 66, 53
2, 343855, Note_on_c, 0, 66, 0
2, 343855, Note_on_c, 0, 62, 0
2, 343855, Note_on_c, 0, 74, 0
2, 343920, Note_on_c, 0, 78, 53
2, 343920, Note_on_c, 0, 66, 53
2, 343975, Note_on_c, 0, 66, 0
2, 343975, Note_on_c, 0, 78, 0
2, 344040, Note_on_c, 0, 81, 53
2, 344040, Note_on_c, 0, 69, 53
2, 344040, Note_on_c, 0, 64, 53
2, 344040, Note_on_c, 0, 57, 53
2, 344095, Note_on_c, 0, 64, 0
2, 344095, Note_on_c, 0, 81, 0
2, 344095, Note_on_c, 0, 69, 0
2, 344280, Note_on_c, 0, 81, 53
2, 344335, Note_on_c, 0, 81, 0
2, 344400, Note_on_c, 0, 80, 53
2, 344455, Note_on_c, 0, 80, 0
2, 344520, Note_on_c, 0, 81, 53
2, 344575, Note_on_c, 0, 81, 0
2, 344640, Note_on_c, 0, 78, 53
2, 344695, Note_on_c, 0, 78, 0
2, 344760, Note_on_c, 0, 76, 53
2, 344760, Note_on_c, 0, 59, 53
2, 344815, Note_on_c, 0, 76, 0
2, 344880, Note_on_c, 0, 57, 0
2, 344880, Note_on_c, 0, 74, 53
2, 344935, Note_on_c, 0, 74, 0
2, 344995, Note_on_c, 0, 59, 0
2, 345000, Note_on_c, 0, 73, 53
2, 345000, Note_on_c, 0, 61, 53
2, 345000, Note_on_c, 0, 57, 73
2, 345055, Note_on_c, 0, 73, 0
2, 345120, Note_on_c, 0, 71, 53
2, 345175, Note_on_c, 0, 71, 0
2, 345240, Note_on_c, 0, 69, 53
2, 345295, Note_on_c, 0, 69, 0
2, 345355, Note_on_c, 0, 61, 0
2, 345360, Note_on_c, 0, 79, 53
2, 345360, Note_on_c, 0, 62, 53
2, 345415, Note_on_c, 0, 62, 0
2, 345415, Note_on_c, 0, 79, 0
2, 345420, Note_on_c, 0, 64, 53
2, 345475, Note_on_c, 0, 64, 0
2, 345480, Note_on_c, 0, 78, 53
2, 345480, Note_on_c, 0, 62, 53
2, 345535, Note_on_c, 0, 62, 0
2, 345535, Note_on_c, 0, 78, 0
2, 345600, Note_on_c, 0, 80, 53
2, 345600, Note_on_c, 0, 62, 53
2, 345655, Note_on_c, 0, 62, 0
2, 345655, Note_on_c, 0, 80, 0
2, 345720, Note_on_c, 0, 81, 53
2, 345720, Note_on_c, 0, 61, 53
2, 345775, Note_on_c, 0, 61, 0
2, 345775, Note_on_c, 0, 81, 0
2, 345840, Note_on_c, 0, 76, 53
2, 345840, Note_on_c, 0, 61, 53
2, 345895, Note_on_c, 0, 61, 0
2, 345895, Note_on_c, 0, 76, 0
2, 345960, Note_on_c, 0, 86, 53
2, 345960, Note_on_c, 0, 59, 53
2, 346015, Note_on_c, 0, 86, 0
2, 346080, Note_on_c, 0, 57, 0
2, 346080, Note_on_c, 0, 80, 53
2, 346135, Note_on_c, 0, 80, 0
2, 346195, Note_on_c, 0, 59, 0
2, 346200, Note_on_c, 0, 81, 53
2, 346200, Note_on_c, 0, 57, 53
2, 346315, Note_on_c, 0, 81, 0
2, 346320, Note_on_c, 0, 80, 53
2, 346435, Note_on_c, 0, 80, 0
2, 346440, Note_on_c, 0, 81, 53
2, 346555, Note_on_c, 0, 81, 0
2, 346560, Note_on_c, 0, 78, 53
2, 346675, Note_on_c, 0, 78, 0
2, 346680, Note_on_c, 0, 76, 53
2, 346680, Note_on_c, 0, 59, 53
2, 346795, Note_on_c, 0, 76, 0
2, 346800, Note_on_c, 0, 74, 53
2, 346915, Note_on_c, 0, 74, 0
2, 346915, Note_on_c, 0, 59, 0
2, 346920, Note_on_c, 0, 73, 53
2, 346920, Note_on_c, 0, 61, 53
2, 347035, Note_on_c, 0, 73, 0
2, 347040, Note_on_c, 0, 57, 0
2, 347040, Note_on_c, 0, 69, 53
2, 347155, Note_on_c, 0, 69, 0
2, 347155, Note_on_c, 0, 61, 0
2, 347160, Note_on_c, 0, 81, 53
2, 347160, Note_on_c, 0, 61, 53
2, 347160, Note_on_c, 0, 57, 53
2, 347275, Note_on_c, 0, 81, 0
2, 347280, Note_on_c, 0, 80, 53
2, 347395, Note_on_c, 0, 80, 0
2, 347400, Note_on_c, 0, 81, 53
2, 347515, Note_on_c, 0, 81, 0
2, 347520, Note_on_c, 0, 78, 53
2, 347635, Note_on_c, 0, 78, 0
2, 347635, Note_on_c, 0, 57, 0
2, 347635, Note_on_c, 0, 61, 0
2, 347640, Note_on_c, 0, 76, 53
2, 347640, Note_on_c, 0, 59, 53
2, 347640, Note_on_c, 0, 62, 53
2, 347640, Note_on_c, 0, 57, 53
2, 347755, Note_on_c, 0, 76, 0
2, 347760, Note_on_c, 0, 74, 53
2, 347875, Note_on_c, 0, 74, 0
2, 347875, Note_on_c, 0, 57, 0
2, 347875, Note_on_c, 0, 62, 0
2, 347875, Note_on_c, 0, 59, 0
2, 347880, Note_on_c, 0, 73, 53
2, 347880, Note_on_c, 0, 61, 53
2, 347880, Note_on_c, 0, 64, 53
2, 347880, Note_on_c, 0, 57, 53
2, 347995, Note_on_c, 0, 73, 0
2, 348000, Note_on_c, 0, 69, 53
2, 348115, Note_on_c, 0, 69, 0
2, 348115, Note_on_c, 0, 57, 0
2, 348115, Note_on_c, 0, 64, 0
2, 348115, Note_on_c, 0, 61, 0
2, 348120, Note_on_c, 0, 83, 53
2, 348120, Note_on_c, 0, 61, 53
2, 348120, Note_on_c, 0, 64, 53
2, 348120, Note_on_c, 0, 57, 53
2, 348235, Note_on_c, 0, 83, 0
2, 348240, Note_on_c, 0, 82, 53
2, 348355, Note_on_c, 0, 82, 0
2, 348360, Note_on_c, 0, 83, 53
2, 348475, Note_on_c, 0, 83, 0
2, 348480, Note_on_c, 0, 79, 53
2, 348595, Note_on_c, 0, 79, 0
2, 348595, Note_on_c, 0, 57, 0
2, 348595, Note_on_c, 0, 64, 0
2, 348595, Note_on_c, 0, 61, 0
2, 348600, Note_on_c, 0, 76, 53
2, 348600, Note_on_c, 0, 62, 53
2, 348600, Note_on_c, 0, 66, 53
2, 348600, Note_on_c, 0, 57, 53
2, 348715, Note_on_c, 0, 76, 0
2, 348720, Note_on_c, 0, 74, 53
2, 348835, Note_on_c, 0, 74, 0
2, 348835, Note_on_c, 0, 57, 0
2, 348835, Note_on_c, 0, 66, 0
2, 348835, Note_on_c, 0, 62, 0
2, 348840, Note_on_c, 0, 73, 53
2, 348840, Note_on_c, 0, 64, 53
2, 348840, Note_on_c, 0, 67, 53
2, 348840, Note_on_c, 0, 57, 53
2, 348955, Note_on_c, 0, 73, 0
2, 348960, Note_on_c, 0, 69, 53
2, 349075, Note_on_c, 0, 69, 0
2, 349075, Note_on_c, 0, 57, 0
2, 349075, Note_on_c, 0, 67, 0
2, 349075, Note_on_c, 0, 64, 0
2, 349080, Note_on_c, 0, 83, 53
2, 349080, Note_on_c, 0, 61, 53
2, 349080, Note_on_c, 0, 64, 53
2, 349080, Note_on_c, 0, 57, 53
2, 349195, Note_on_c, 0, 83, 0
2, 349200, Note_on_c, 0, 82, 53
2, 349315, Note_on_c, 0, 82, 0
2, 349320, Note_on_c, 0, 83, 53
2, 349435, Note_on_c, 0, 83, 0
2, 349440, Note_on_c, 0, 79, 53
2, 349555, Note_on_c, 0, 79, 0
2, 349555, Note_on_c, 0, 57, 0
2, 349555, Note_on_c, 0, 64, 0
2, 349555, Note_on_c, 0, 61, 0
2, 349560, Note_on_c, 0, 76, 53
2, 349560, Note_on_c, 0, 62, 53
2, 349560, Note_on_c, 0, 66, 53
2, 349560, Note_on_c, 0, 57, 53
2, 349675, Note_on_c, 0, 76, 0
2, 349680, Note_on_c, 0, 74, 53
2, 349795, Note_on_c, 0, 74, 0
2, 349795, Note_on_c, 0, 57, 0
2, 349795, Note_on_c, 0, 66, 0
2, 349795, Note_on_c, 0, 62, 0
2, 349800, Note_on_c, 0, 73, 53
2, 349800, Note_on_c, 0, 64, 53
2, 349800, Note_on_c, 0, 67, 53
2, 349800, Note_on_c, 0, 57, 53
2, 349915, Note_on_c, 0, 73, 0
2, 349920, Note_on_c, 0, 69, 53
2, 350035, Note_on_c, 0, 69, 0
2, 350035, Note_on_c, 0, 57, 0
2, 350035, Note_on_c, 0, 67, 0
2, 350035, Note_on_c, 0, 64, 0
2, 350040, Note_on_c, 0, 76, 53
2, 350040, Note_on_c, 0, 64, 53
2, 350040, Note_on_c, 0, 67, 53
2, 350040, Note_on_c, 0, 57, 53
2, 350155, Note_on_c, 0, 76, 0
2, 350160, Note_on_c, 0, 75, 53
2, 350275, Note_on_c, 0, 75, 0
2, 350280, Note_on_c, 0, 76, 53
2, 350395, Note_on_c, 0, 76, 0
2, 350400, Note_on_c, 0, 73, 53
2, 350515, Note_on_c, 0, 73, 0
2, 350515, Note_on_c, 0, 57, 0
2, 350515, Note_on_c, 0, 67, 0
2, 350515, Note_on_c, 0, 64, 0
2, 350520, Note_on_c, 0, 79, 53
2, 350520, Note_on_c, 0, 64, 53
2, 350520, Note_on_c, 0, 67, 53
2, 350520, Note_on_c, 0, 57, 53
2, 350635, Note_on_c, 0, 79, 0
2, 350640, Note_on_c, 0, 78, 53
2, 350755, Note_on_c, 0, 78, 0
2, 350760, Note_on_c, 0, 79, 53
2, 350875, Note_on_c, 0, 79, 0
2, 350880, Note_on_c, 0, 76, 53
2, 350995, Note_on_c, 0, 76, 0
2, 350995, Note_on_c, 0, 57, 0
2, 350995, Note_on_c, 0, 67, 0
2, 350995, Note_on_c, 0, 64, 0
2, 351000, Note_on_c, 0, 76, 53
2, 351000, Note_on_c, 0, 64, 53
2, 351000, Note_on_c, 0, 67, 53
2, 351000, Note_on_c, 0, 57, 53
2, 351115, Note_on_c, 0, 76, 0
2, 351120, Note_on_c, 0, 75, 53
2, 351235, Note_on_c, 0, 75, 0
2, 351240, Note_on_c, 0, 76, 53
2, 351355, Note_on_c, 0, 76, 0
2, 351360, Note_on_c, 0, 73, 53
2, 351475, Note_on_c, 0, 73, 0
2, 351475, Note_on_c, 0, 57, 0
2, 351475, Note_on_c, 0, 67, 0
2, 351475, Note_on_c, 0, 64, 0
2, 351480, Note_on_c, 0, 79, 53
2, 351480, Note_on_c, 0, 64, 53
2, 351480, Note_on_c, 0, 67, 53
2, 351480, Note_on_c, 0, 58, 53
2, 351595, Note_on_c, 0, 79, 0
2, 351600, Note_on_c, 0, 78, 53
2, 351715, Note_on_c, 0, 78, 0
2, 351720, Note_on_c, 0, 79, 53
2, 351835, Note_on_c, 0, 79, 0
2, 351840, Note_on_c, 0, 76, 53
2, 351955, Note_on_c, 0, 76, 0
2, 351955, Note_on_c, 0, 58, 0
2, 351955, Note_on_c, 0, 67, 0
2, 351955, Note_on_c, 0, 64, 0
2, 351960, Note_on_c, 0, 79, 53
2, 351960, Note_on_c, 0, 64, 53
2, 351960, Note_on_c, 0, 67, 53
2, 351960, Note_on_c, 0, 61, 53
2, 352075, Note_on_c, 0, 79, 0
2, 352080, Note_on_c, 0, 78, 53
2, 352195, Note_on_c, 0, 78, 0
2, 352200, Note_on_c, 0, 79, 95
2, 352315, Note_on_c, 0, 79, 0
2, 352320, Note_on_c, 0, 76, 95
2, 352435, Note_on_c, 0, 76, 0
2, 352435, Note_on_c, 0, 61, 0
2, 352435, Note_on_c, 0, 67, 0
2, 352435, Note_on_c, 0, 64, 0
2, 352440, Note_on_c, 0, 79, 53
2, 352440, Note_on_c, 0, 64, 53
2, 352440, Note_on_c, 0, 67, 53
2, 352440, Note_on_c, 0, 60, 53
2, 352555, Note_on_c, 0, 79, 0
2, 352560, Note_on_c, 0, 78, 53
2, 352675, Note_on_c, 0, 78, 0
2, 352680, Note_on_c, 0, 79, 53
2, 352795, Note_on_c, 0, 79, 0
2, 352800, Note_on_c, 0, 74, 53
2, 352915, Note_on_c, 0, 74, 0
2, 352915, Note_on_c, 0, 60, 0
2, 352915, Note_on_c, 0, 67, 0
2, 352915, Note_on_c, 0, 64, 0
2, 352920, Note_on_c, 0, 72, 53
2, 352920, Note_on_c, 0, 64, 53
2, 352920, Note_on_c, 0, 67, 53
2, 352920, Note_on_c, 0, 60, 53
2, 353035, Note_on_c, 0, 72, 0
2, 353040, Note_on_c, 0, 70, 53
2, 353155, Note_on_c, 0, 64, 0
2, 353155, Note_on_c, 0, 67, 0
2, 353160, Note_on_c, 0, 69, 53
2, 353160, Note_on_c, 0, 65, 53
2, 353160, Note_on_c, 0, 69, 53
2, 353275, Note_on_c, 0, 69, 0
2, 353275, Note_on_c, 0, 70, 0
2, 353280, Note_on_c, 0, 77, 53
2, 353395, Note_on_c, 0, 77, 0
2, 353395, Note_on_c, 0, 69, 0
2, 353395, Note_on_c, 0, 65, 0
2, 353395, Note_on_c, 0, 60, 0
2, 353400, Note_on_c, 0, 79, 59
2, 353400, Note_on_c, 0, 64, 66
2, 353400, Note_on_c, 0, 67, 66
2, 353400, Note_on_c, 0, 60, 66
2, 353515, Note_on_c, 0, 79, 0
2, 353520, Note_on_c, 0, 78, 66
2, 353635, Note_on_c, 0, 78, 0
2, 353640, Note_on_c, 0, 79, 72
2, 353755, Note_on_c, 0, 79, 0
2, 353755, Note_on_c, 0, 67, 0
2, 353760, Note_on_c, 0, 76, 79
2, 353760, Note_on_c, 0, 70, 79
2, 353760, Note_on_c, 0, 67, 79
2, 353875, Note_on_c, 0, 70, 0
2, 353875, Note_on_c, 0, 64, 0
2, 353875, Note_on_c, 0, 60, 0
2, 353880, Note_on_c, 0, 69, 85
2, 353880, Note_on_c, 0, 64, 85
2, 353880, Note_on_c, 0, 61, 85
2, 353995, Note_on_c, 0, 61, 0
2, 353995, Note_on_c, 0, 76, 0
2, 353995, Note_on_c, 0, 67, 0
2, 353995, Note_on_c, 0, 64, 0
2, 354000, Note_on_c, 0, 74, 91
2, 354000, Note_on_c, 0, 81, 91
2, 354000, Note_on_c, 0, 66, 91
2, 354000, Note_on_c, 0, 62, 91
2, 354115, Note_on_c, 0, 62, 0
2, 354115, Note_on_c, 0, 81, 0
2, 354115, Note_on_c, 0, 69, 0
2, 354115, Note_on_c, 0, 74, 0
2, 354115, Note_on_c, 0, 66, 0
2, 354120, Note_on_c, 0, 81, 117
2, 354120, Note_on_c, 0, 86, 117
2, 354120, Note_on_c, 0, 74, 117
2, 354120, Note_on_c, 0, 54, 98
2, 354120, Note_on_c, 0, 62, 98
2, 354120, Note_on_c, 0, 50, 98
2, 354235, Note_on_c, 0, 50, 0
2, 354235, Note_on_c, 0, 54, 0
2, 354235, Note_on_c, 0, 62, 0
2, 354360, Note_on_c, 0, 66, 54
2, 354360, Note_on_c, 0, 62, 54
2, 354415, Note_on_c, 0, 66, 0
2, 354420, Note_on_c, 0, 62, 0
2, 354480, Note_on_c, 0, 64, 54
2, 354480, Note_on_c, 0, 61, 54
2, 354540, Note_on_c, 0, 61, 0
2, 354540, Note_on_c, 0, 64, 0
2, 354600, Note_on_c, 0, 66, 54
2, 354600, Note_on_c, 0, 62, 54
2, 354655, Note_on_c, 0, 62, 0
2, 354655, Note_on_c, 0, 66, 0
2, 354720, Note_on_c, 0, 86, 0
2, 354720, Note_on_c, 0, 74, 0
2, 354720, Note_on_c, 0, 81, 0
2, 354720, Note_on_c, 0, 62, 56
2, 354720, Note_on_c, 0, 59, 56
2, 354775, Note_on_c, 0, 59, 0
2, 354775, Note_on_c, 0, 62, 0
2, 354840, Note_on_c, 0, 61, 58
2, 354840, Note_on_c, 0, 57, 58
2, 354840, Note_on_c, 0, 81, 62
2, 354840, Note_on_c, 0, 88, 62
2, 354840, Note_on_c, 0, 76, 62
2, 354895, Note_on_c, 0, 57, 0
2, 354895, Note_on_c, 0, 61, 0
2, 354960, Note_on_c, 0, 59, 60
2, 354960, Note_on_c, 0, 55, 60
2, 355015, Note_on_c, 0, 55, 0
2, 355015, Note_on_c, 0, 59, 0
2, 355075, Note_on_c, 0, 76, 0
2, 355075, Note_on_c, 0, 81, 0
2, 355075, Note_on_c, 0, 88, 0
2, 355080, Note_on_c, 0, 81, 68
2, 355080, Note_on_c, 0, 90, 68
2, 355080, Note_on_c, 0, 78, 68
2, 355080, Note_on_c, 0, 57, 62
2, 355080, Note_on_c, 0, 54, 62
2, 355135, Note_on_c, 0, 54, 0
2, 355135, Note_on_c, 0, 57, 0
2, 355200, Note_on_c, 0, 55, 64
2, 355200, Note_on_c, 0, 52, 64
2, 355255, Note_on_c, 0, 52, 0
2, 355255, Note_on_c, 0, 55, 0
2, 355320, Note_on_c, 0, 54, 66
2, 355320, Note_on_c, 0, 50, 66
2, 355375, Note_on_c, 0, 50, 0
2, 355375, Note_on_c, 0, 54, 0
2, 355435, Note_on_c, 0, 81, 0
2, 355435, Note_on_c, 0, 90, 0
2, 355435, Note_on_c, 0, 78, 0
2, 355440, Note_on_c, 0, 91, 69
2, 355440, Note_on_c, 0, 79, 69
2, 355440, Note_on_c, 0, 50, 68
2, 355440, Note_on_c, 0, 48, 68
2, 355495, Note_on_c, 0, 48, 0
2, 355495, Note_on_c, 0, 91, 0
2, 355495, Note_on_c, 0, 79, 0
2, 355495, Note_on_c, 0, 50, 0
2, 355500, Note_on_c, 0, 93, 70
2, 355500, Note_on_c, 0, 81, 70
2, 355555, Note_on_c, 0, 81, 0
2, 355555, Note_on_c, 0, 93, 0
2, 355560, Note_on_c, 0, 91, 71
2, 355560, Note_on_c, 0, 79, 71
2, 355560, Note_on_c, 0, 50, 71
2, 355560, Note_on_c, 0, 47, 71
2, 355615, Note_on_c, 0, 47, 0
2, 355615, Note_on_c, 0, 91, 0
2, 355615, Note_on_c, 0, 79, 0
2, 355615, Note_on_c, 0, 50, 0
2, 355680, Note_on_c, 0, 91, 73
2, 355680, Note_on_c, 0, 79, 73
2, 355680, Note_on_c, 0, 52, 73
2, 355680, Note_on_c, 0, 49, 73
2, 355735, Note_on_c, 0, 49, 0
2, 355735, Note_on_c, 0, 91, 0
2, 355735, Note_on_c, 0, 79, 0
2, 355735, Note_on_c, 0, 52, 0
2, 355800, Note_on_c, 0, 81, 75
2, 355800, Note_on_c, 0, 90, 75
2, 355800, Note_on_c, 0, 78, 75
2, 355800, Note_on_c, 0, 54, 75
2, 355800, Note_on_c, 0, 50, 75
2, 355855, Note_on_c, 0, 50, 0
2, 355855, Note_on_c, 0, 78, 0
2, 355855, Note_on_c, 0, 81, 0
2, 355855, Note_on_c, 0, 90, 0
2, 355855, Note_on_c, 0, 54, 0
2, 355920, Note_on_c, 0, 90, 78
2, 355920, Note_on_c, 0, 78, 78
2, 355920, Note_on_c, 0, 57, 77
2, 355920, Note_on_c, 0, 54, 77
2, 355975, Note_on_c, 0, 54, 0
2, 355975, Note_on_c, 0, 90, 0
2, 355975, Note_on_c, 0, 78, 0
2, 355975, Note_on_c, 0, 57, 0
2, 356040, Note_on_c, 0, 81, 83
2, 356040, Note_on_c, 0, 88, 83
2, 356040, Note_on_c, 0, 76, 83
2, 356040, Note_on_c, 0, 61, 79
2, 356040, Note_on_c, 0, 57, 79
2, 356095, Note_on_c, 0, 57, 0
2, 356095, Note_on_c, 0, 61, 0
2, 356160, Note_on_c, 0, 64, 81
2, 356160, Note_on_c, 0, 61, 81
2, 356215, Note_on_c, 0, 61, 0
2, 356215, Note_on_c, 0, 64, 0
2, 356275, Note_on_c, 0, 76, 0
2, 356275, Note_on_c, 0, 88, 0
2, 356275, Note_on_c, 0, 81, 0
2, 356280, Note_on_c, 0, 81, 87
2, 356280, Note_on_c, 0, 86, 87
2, 356280, Note_on_c, 0, 74, 87
2, 356280, Note_on_c, 0, 66, 83
2, 356280, Note_on_c, 0, 62, 83
2, 356335, Note_on_c, 0, 62, 0
2, 356335, Note_on_c, 0, 66, 0
2, 356400, Note_on_c, 0, 64, 85
2, 356400, Note_on_c, 0, 61, 85
2, 356455, Note_on_c, 0, 61, 0
2, 356455, Note_on_c, 0, 64, 0
2, 356520, Note_on_c, 0, 66, 87
2, 356520, Note_on_c, 0, 62, 87
2, 356575, Note_on_c, 0, 62, 0
2, 356575, Note_on_c, 0, 66, 0
2, 356640, Note_on_c, 0, 62, 89
2, 356640, Note_on_c, 0, 59, 89
2, 356695, Note_on_c, 0, 59, 0
2, 356695, Note_on_c, 0, 62, 0
2, 356755, Note_on_c, 0, 74, 0
2, 356755, Note_on_c, 0, 86, 0
2, 356755, Note_on_c, 0, 81, 0
2, 356760, Note_on_c, 0, 81, 96
2, 356760, Note_on_c, 0, 88, 96
2, 356760, Note_on_c, 0, 76, 96
2, 356760, Note_on_c, 0, 61, 91
2, 356760, Note_on_c, 0, 57, 91
2, 356815, Note_on_c, 0, 57, 0
2, 356815, Note_on_c, 0, 61, 0
2, 356880, Note_on_c, 0, 59, 93
2, 356880, Note_on_c, 0, 55, 93
2, 356935, Note_on_c, 0, 55, 0
2, 356935, Note_on_c, 0, 59, 0
2, 356995, Note_on_c, 0, 76, 0
2, 356995, Note_on_c, 0, 88, 0
2, 356995, Note_on_c, 0, 81, 0
2, 357000, Note_on_c, 0, 81, 102
2, 357000, Note_on_c, 0, 90, 102
2, 357000, Note_on_c, 0, 78, 102
2, 357000, Note_on_c, 0, 57, 95
2, 357000, Note_on_c, 0, 54, 95
2, 357055, Note_on_c, 0, 54, 0
2, 357055, Note_on_c, 0, 57, 0
2, 357120, Note_on_c, 0, 55, 97
2, 357120, Note_on_c, 0, 52, 97
2, 357175, Note_on_c, 0, 52, 0
2, 357175, Note_on_c, 0, 55, 0
2, 357240, Note_on_c, 0, 54, 99
2, 357240, Note_on_c, 0, 50, 99
2, 357295, Note_on_c, 0, 50, 0
2, 357295, Note_on_c, 0, 54, 0
2, 357355, Note_on_c, 0, 81, 0
2, 357355, Note_on_c, 0, 90, 0
2, 357355, Note_on_c, 0, 78, 0
2, 357360, Note_on_c, 0, 91, 103
2, 357360, Note_on_c, 0, 79, 103
2, 357360, Note_on_c, 0, 50, 101
2, 357360, Note_on_c, 0, 48, 101
2, 357415, Note_on_c, 0, 48, 0
2, 357415, Note_on_c, 0, 91, 0
2, 357415, Note_on_c, 0, 79, 0
2, 357415, Note_on_c, 0, 50, 0
2, 357420, Note_on_c, 0, 93, 104
2, 357420, Note_on_c, 0, 81, 104
2, 357475, Note_on_c, 0, 81, 0
2, 357475, Note_on_c, 0, 93, 0
2, 357480, Note_on_c, 0, 91, 106
2, 357480, Note_on_c, 0, 79, 106
2, 357480, Note_on_c, 0, 50, 104
2, 357480, Note_on_c, 0, 47, 104
2, 357535, Note_on_c, 0, 47, 0
2, 357535, Note_on_c, 0, 91, 0
2, 357535, Note_on_c, 0, 79, 0
2, 357535, Note_on_c, 0, 50, 0
2, 357600, Note_on_c, 0, 91, 108
2, 357600, Note_on_c, 0, 79, 108
2, 357600, Note_on_c, 0, 52, 106
2, 357600, Note_on_c, 0, 49, 106
2, 357655, Note_on_c, 0, 49, 0
2, 357655, Note_on_c, 0, 91, 0
2, 357655, Note_on_c, 0, 79, 0
2, 357655, Note_on_c, 0, 52, 0
2, 357720, Note_on_c, 0, 81, 111
2, 357720, Note_on_c, 0, 90, 111
2, 357720, Note_on_c, 0, 78, 111
2, 357720, Note_on_c, 0, 54, 108
2, 357720, Note_on_c, 0, 50, 108
2, 357775, Note_on_c, 0, 50, 0
2, 357775, Note_on_c, 0, 78, 0
2, 357775, Note_on_c, 0, 81, 0
2, 357775, Note_on_c, 0, 90, 0
2, 357775, Note_on_c, 0, 54, 0
2, 357840, Note_on_c, 0, 90, 113
2, 357840, Note_on_c, 0, 78, 113
2, 357840, Note_on_c, 0, 57, 110
2, 357840, Note_on_c, 0, 54, 110
2, 357870, Note_on_c, 0, 54, 0
2, 357895, Note_on_c, 0, 90, 0
2, 357895, Note_on_c, 0, 78, 0
2, 357895, Note_on_c, 0, 57, 0
2, 357960, Note_on_c, 0, 81, 117
2, 357960, Note_on_c, 0, 88, 117
2, 357960, Note_on_c, 0, 76, 117
2, 357960, Note_on_c, 0, 61, 112
2, 357960, Note_on_c, 0, 57, 112
2, 358015, Note_on_c, 0, 57, 0
2, 358015, Note_on_c, 0, 61, 0
2, 358080, Note_on_c, 0, 64, 114
2, 358080, Note_on_c, 0, 61, 114
2, 358135, Note_on_c, 0, 61, 0
2, 358135, Note_on_c, 0, 64, 0
2, 358195, Note_on_c, 0, 76, 0
2, 358195, Note_on_c, 0, 88, 0
2, 358195, Note_on_c, 0, 81, 0
2, 358200, Note_on_c, 0, 69, 117
2, 358200, Note_on_c, 0, 74, 117
2, 358200, Note_on_c, 0, 66, 117
2, 358200, Note_on_c, 0, 62, 117
2, 358200, Note_on_c, 0, 50, 117
2, 358255, Note_on_c, 0, 50, 0
2, 358255, Note_on_c, 0, 66, 0
2, 358255, Note_on_c, 0, 62, 0
2, 358320, Note_on_c, 0, 64, 117
2, 358320, Note_on_c, 0, 61, 117
2, 358320, Note_on_c, 0, 49, 117
2, 358375, Note_on_c, 0, 49, 0
2, 358375, Note_on_c, 0, 64, 0
2, 358375, Note_on_c, 0, 61, 0
2, 358440, Note_on_c, 0, 66, 117
2, 358440, Note_on_c, 0, 62, 117
2, 358440, Note_on_c, 0, 50, 117
2, 358495, Note_on_c, 0, 50, 0
2, 358495, Note_on_c, 0, 66, 0
2, 358495, Note_on_c, 0, 62, 0
2, 358560, Note_on_c, 0, 62, 117
2, 358560, Note_on_c, 0, 59, 117
2, 358560, Note_on_c, 0, 47, 117
2, 358615, Note_on_c, 0, 47, 0
2, 358615, Note_on_c, 0, 62, 0
2, 358615, Note_on_c, 0, 59, 0
2, 358675, Note_on_c, 0, 74, 0
2, 358675, Note_on_c, 0, 69, 0
2, 358680, Note_on_c, 0, 69, 117
2, 358680, Note_on_c, 0, 73, 117
2, 358680, Note_on_c, 0, 76, 117
2, 358680, Note_on_c, 0, 64, 117
2, 358680, Note_on_c, 0, 57, 117
2, 358680, Note_on_c, 0, 45, 117
2, 358735, Note_on_c, 0, 45, 0
2, 358735, Note_on_c, 0, 57, 0
2, 358765, Note_on_c, 0, 73, 0
2, 358800, Note_on_c, 0, 55, 117
2, 358800, Note_on_c, 0, 43, 117
2, 358855, Note_on_c, 0, 43, 0
2, 358855, Note_on_c, 0, 55, 0
2, 358915, Note_on_c, 0, 64, 0
2, 358915, Note_on_c, 0, 76, 0
2, 358915, Note_on_c, 0, 69, 0
2, 358920, Note_on_c, 0, 69, 117
2, 358920, Note_on_c, 0, 74, 117
2, 358920, Note_on_c, 0, 78, 117
2, 358920, Note_on_c, 0, 66, 117
2, 358920, Note_on_c, 0, 54, 117
2, 358920, Note_on_c, 0, 42, 117
2, 359035, Note_on_c, 0, 42, 0
2, 359035, Note_on_c, 0, 54, 0
2, 359040, Note_on_c, 0, 52, 117
2, 359040, Note_on_c, 0, 40, 117
2, 359155, Note_on_c, 0, 40, 0
2, 359155, Note_on_c, 0, 52, 0
2, 359160, Note_on_c, 0, 50, 117
2, 359160, Note_on_c, 0, 38, 117
2, 359275, Note_on_c, 0, 38, 0
2, 359275, Note_on_c, 0, 74, 0
2, 359275, Note_on_c, 0, 78, 0
2, 359275, Note_on_c, 0, 69, 0
2, 359275, Note_on_c, 0, 50, 0
2, 359275, Note_on_c, 0, 66, 0
2, 359280, Note_on_c, 0, 79, 117
2, 359280, Note_on_c, 0, 67, 117
2, 359280, Note_on_c, 0, 48, 117
2, 359280, Note_on_c, 0, 36, 117
2, 359335, Note_on_c, 0, 67, 0
2, 359335, Note_on_c, 0, 79, 0
2, 359340, Note_on_c, 0, 81, 117
2, 359340, Note_on_c, 0, 69, 117
2, 359395, Note_on_c, 0, 69, 0
2, 359395, Note_on_c, 0, 36, 0
2, 359395, Note_on_c, 0, 48, 0
2, 359395, Note_on_c, 0, 81, 0
2, 359400, Note_on_c, 0, 74, 117
2, 359400, Note_on_c, 0, 79, 117
2, 359400, Note_on_c, 0, 67, 117
2, 359400, Note_on_c, 0, 47, 117
2, 359400, Note_on_c, 0, 35, 117
2, 359455, Note_on_c, 0, 35, 0
2, 359455, Note_on_c, 0, 67, 0
2, 359455, Note_on_c, 0, 74, 0
2, 359455, Note_on_c, 0, 79, 0
2, 359455, Note_on_c, 0, 47, 0
2, 359520, Note_on_c, 0, 76, 117
2, 359520, Note_on_c, 0, 79, 117
2, 359520, Note_on_c, 0, 67, 117
2, 359520, Note_on_c, 0, 49, 117
2, 359520, Note_on_c, 0, 37, 117
2, 359575, Note_on_c, 0, 37, 0
2, 359575, Note_on_c, 0, 67, 0
2, 359575, Note_on_c, 0, 76, 0
2, 359575, Note_on_c, 0, 79, 0
2, 359575, Note_on_c, 0, 49, 0
2, 359640, Note_on_c, 0, 74, 117
2, 359640, Note_on_c, 0, 78, 117
2, 359640, Note_on_c, 0, 66, 117
2, 359640, Note_on_c, 0, 50, 117
2, 359640, Note_on_c, 0, 38, 117
2, 359695, Note_on_c, 0, 38, 0
2, 359695, Note_on_c, 0, 66, 0
2, 359695, Note_on_c, 0, 74, 0
2, 359695, Note_on_c, 0, 78, 0
2, 359695, Note_on_c, 0, 50, 0
2, 359760, Note_on_c, 0, 69, 117
2, 359760, Note_on_c, 0, 78, 117
2, 359760, Note_on_c, 0, 66, 117
2, 359760, Note_on_c, 0, 54, 117
2, 359760, Note_on_c, 0, 42, 117
2, 359815, Note_on_c, 0, 42, 0
2, 359815, Note_on_c, 0, 66, 0
2, 359815, Note_on_c, 0, 69, 0
2, 359815, Note_on_c, 0, 78, 0
2, 359815, Note_on_c, 0, 54, 0
2, 359880, Note_on_c, 0, 73, 117
2, 359880, Note_on_c, 0, 76, 117
2, 359880, Note_on_c, 0, 64, 117
2, 359880, Note_on_c, 0, 57, 117
2, 359880, Note_on_c, 0, 45, 117
2, 359935, Note_on_c, 0, 73, 0
2, 359995, Note_on_c, 0, 57, 0
2, 359995, Note_on_c, 0, 45, 0
2, 360000, Note_on_c, 0, 69, 117
2, 360000, Note_on_c, 0, 61, 117
2, 360000, Note_on_c, 0, 49, 117
2, 360115, Note_on_c, 0, 49, 0
2, 360115, Note_on_c, 0, 69, 0
2, 360115, Note_on_c, 0, 76, 0
2, 360115, Note_on_c, 0, 64, 0
2, 360115, Note_on_c, 0, 61, 0
2, 360120, Note_on_c, 0, 69, 117
2, 360120, Note_on_c, 0, 74, 117
2, 360120, Note_on_c, 0, 66, 117
2, 360120, Note_on_c, 0, 62, 117
2, 360120, Note_on_c, 0, 50, 117
2, 360235, Note_on_c, 0, 50, 0
2, 360235, Note_on_c, 0, 66, 0
2, 360235, Note_on_c, 0, 62, 0
2, 360240, Note_on_c, 0, 64, 117
2, 360240, Note_on_c, 0, 61, 117
2, 360240, Note_on_c, 0, 49, 117
2, 360355, Note_on_c, 0, 49, 0
2, 360355, Note_on_c, 0, 64, 0
2, 360355, Note_on_c, 0, 61, 0
2, 360360, Note_on_c, 0, 66, 117
2, 360360, Note_on_c, 0, 62, 117
2, 360360, Note_on_c, 0, 50, 117
2, 360475, Note_on_c, 0, 50, 0
2, 360475, Note_on_c, 0, 66, 0
2, 360475, Note_on_c, 0, 62, 0
2, 360480, Note_on_c, 0, 62, 117
2, 360480, Note_on_c, 0, 59, 117
2, 360480, Note_on_c, 0, 47, 117
2, 360595, Note_on_c, 0, 47, 0
2, 360595, Note_on_c, 0, 62, 0
2, 360595, Note_on_c, 0, 69, 0
2, 360595, Note_on_c, 0, 74, 0
2, 360595, Note_on_c, 0, 59, 0
2, 360600, Note_on_c, 0, 69, 117
2, 360600, Note_on_c, 0, 73, 117
2, 360600, Note_on_c, 0, 76, 117
2, 360600, Note_on_c, 0, 64, 117
2, 360600, Note_on_c, 0, 57, 117
2, 360600, Note_on_c, 0, 45, 117
2, 360715, Note_on_c, 0, 45, 0
2, 360715, Note_on_c, 0, 57, 0
2, 360720, Note_on_c, 0, 55, 117
2, 360720, Note_on_c, 0, 43, 117
2, 360835, Note_on_c, 0, 43, 0
2, 360835, Note_on_c, 0, 73, 0
2, 360835, Note_on_c, 0, 64, 0
2, 360835, Note_on_c, 0, 69, 0
2, 360835, Note_on_c, 0, 55, 0
2, 360835, Note_on_c, 0, 76, 0
2, 360840, Note_on_c, 0, 69, 117
2, 360840, Note_on_c, 0, 74, 117
2, 360840, Note_on_c, 0, 78, 117
2, 360840, Note_on_c, 0, 66, 117
2, 360840, Note_on_c, 0, 54, 117
2, 360840, Note_on_c, 0, 42, 117
2, 360955, Note_on_c, 0, 42, 0
2, 360955, Note_on_c, 0, 54, 0
2, 360960, Note_on_c, 0, 52, 117
2, 360960, Note_on_c, 0, 40, 117
2, 361075, Note_on_c, 0, 40, 0
2, 361075, Note_on_c, 0, 52, 0
2, 361080, Note_on_c, 0, 50, 117
2, 361080, Note_on_c, 0, 38, 117
2, 361195, Note_on_c, 0, 38, 0
2, 361195, Note_on_c, 0, 74, 0
2, 361195, Note_on_c, 0, 78, 0
2, 361195, Note_on_c, 0, 69, 0
2, 361195, Note_on_c, 0, 50, 0
2, 361195, Note_on_c, 0, 66, 0
2, 361200, Note_on_c, 0, 79, 117
2, 361200, Note_on_c, 0, 67, 117
2, 361200, Note_on_c, 0, 48, 117
2, 361200, Note_on_c, 0, 36, 117
2, 361255, Note_on_c, 0, 67, 0
2, 361255, Note_on_c, 0, 79, 0
2, 361260, Note_on_c, 0, 81, 117
2, 361260, Note_on_c, 0, 69, 117
2, 361315, Note_on_c, 0, 69, 0
2, 361315, Note_on_c, 0, 36, 0
2, 361315, Note_on_c, 0, 48, 0
2, 361315, Note_on_c, 0, 81, 0
2, 361320, Note_on_c, 0, 79, 117
2, 361320, Note_on_c, 0, 83, 117
2, 361320, Note_on_c, 0, 71, 117
2, 361320, Note_on_c, 0, 47, 117
2, 361320, Note_on_c, 0, 35, 117
2, 361375, Note_on_c, 0, 35, 0
2, 361375, Note_on_c, 0, 71, 0
2, 361375, Note_on_c, 0, 79, 0
2, 361375, Note_on_c, 0, 83, 0
2, 361375, Note_on_c, 0, 47, 0
2, 361440, Note_on_c, 0, 79, 117
2, 361440, Note_on_c, 0, 83, 117
2, 361440, Note_on_c, 0, 71, 117
2, 361440, Note_on_c, 0, 43, 117
2, 361440, Note_on_c, 0, 31, 117
2, 361495, Note_on_c, 0, 31, 0
2, 361495, Note_on_c, 0, 71, 0
2, 361495, Note_on_c, 0, 79, 0
2, 361495, Note_on_c, 0, 83, 0
2, 361495, Note_on_c, 0, 43, 0
2, 361560, Note_on_c, 0, 78, 117
2, 361560, Note_on_c, 0, 85, 117
2, 361560, Note_on_c, 0, 73, 117
2, 361560, Note_on_c, 0, 45, 117
2, 361560, Note_on_c, 0, 33, 117
2, 361615, Note_on_c, 0, 33, 0
2, 361615, Note_on_c, 0, 73, 0
2, 361615, Note_on_c, 0, 78, 0
2, 361615, Note_on_c, 0, 85, 0
2, 361615, Note_on_c, 0, 45, 0
2, 361680, Note_on_c, 0, 78, 117
2, 361680, Note_on_c, 0, 85, 117
2, 361680, Note_on_c, 0, 73, 117
2, 361680, Note_on_c, 0, 57, 117
2, 361680, Note_on_c, 0, 45, 117
2, 361735, Note_on_c, 0, 45, 0
2, 361735, Note_on_c, 0, 73, 0
2, 361735, Note_on_c, 0, 78, 0
2, 361735, Note_on_c, 0, 85, 0
2, 361735, Note_on_c, 0, 57, 0
2, 361800, Note_on_c, 0, 78, 117
2, 361800, Note_on_c, 0, 86, 117
2, 361800, Note_on_c, 0, 74, 117
2, 361800, Note_on_c, 0, 50, 117
2, 361800, Note_on_c, 0, 38, 117
2, 361915, Note_on_c, 0, 38, 0
2, 361915, Note_on_c, 0, 74, 0
2, 361915, Note_on_c, 0, 78, 0
2, 361915, Note_on_c, 0, 86, 0
2, 361915, Note_on_c, 0, 50, 0
2, 362040, Note_on_c, 0, 86, 53
2, 362040, Note_on_c, 0, 74, 53
2, 362040, Note_on_c, 0, 62, 53
2, 362040, Note_on_c, 0, 50, 53
2, 362095, Note_on_c, 0, 74, 0
2, 362095, Note_on_c, 0, 86, 0
2, 362160, Note_on_c, 0, 85, 53
2, 362160, Note_on_c, 0, 73, 53
2, 362215, Note_on_c, 0, 73, 0
2, 362215, Note_on_c, 0, 85, 0
2, 362280, Note_on_c, 0, 86, 53
2, 362280, Note_on_c, 0, 74, 53
2, 362335, Note_on_c, 0, 74, 0
2, 362335, Note_on_c, 0, 86, 0
2, 362400, Note_on_c, 0, 83, 53
2, 362400, Note_on_c, 0, 71, 53
2, 362455, Note_on_c, 0, 71, 0
2, 362455, Note_on_c, 0, 83, 0
2, 362515, Note_on_c, 0, 62, 0
2, 362515, Note_on_c, 0, 50, 0
2, 362520, Note_on_c, 0, 81, 53
2, 362520, Note_on_c, 0, 69, 53
2, 362520, Note_on_c, 0, 52, 53
2, 362520, Note_on_c, 0, 62, 53
2, 362520, Note_on_c, 0, 50, 53
2, 362575, Note_on_c, 0, 69, 0
2, 362575, Note_on_c, 0, 81, 0
2, 362640, Note_on_c, 0, 79, 53
2, 362640, Note_on_c, 0, 67, 53
2, 362695, Note_on_c, 0, 67, 0
2, 362695, Note_on_c, 0, 79, 0
2, 362755, Note_on_c, 0, 50, 0
2, 362755, Note_on_c, 0, 52, 0
2, 362755, Note_on_c, 0, 62, 0
2, 362760, Note_on_c, 0, 78, 53
2, 362760, Note_on_c, 0, 66, 53
2, 362760, Note_on_c, 0, 54, 53
2, 362760, Note_on_c, 0, 62, 53
2, 362760, Note_on_c, 0, 50, 53
2, 362815, Note_on_c, 0, 66, 0
2, 362815, Note_on_c, 0, 78, 0
2, 362880, Note_on_c, 0, 88, 53
2, 362880, Note_on_c, 0, 76, 53
2, 362935, Note_on_c, 0, 76, 0
2, 362935, Note_on_c, 0, 88, 0
2, 363000, Note_on_c, 0, 86, 53
2, 363000, Note_on_c, 0, 74, 53
2, 363055, Note_on_c, 0, 74, 0
2, 363055, Note_on_c, 0, 86, 0
2, 363115, Note_on_c, 0, 54, 0
2, 363120, Note_on_c, 0, 84, 53
2, 363120, Note_on_c, 0, 72, 53
2, 363120, Note_on_c, 0, 55, 53
2, 363175, Note_on_c, 0, 55, 0
2, 363175, Note_on_c, 0, 84, 0
2, 363175, Note_on_c, 0, 72, 0
2, 363180, Note_on_c, 0, 57, 53
2, 363235, Note_on_c, 0, 57, 0
2, 363240, Note_on_c, 0, 83, 53
2, 363240, Note_on_c, 0, 71, 53
2, 363240, Note_on_c, 0, 55, 53
2, 363295, Note_on_c, 0, 55, 0
2, 363295, Note_on_c, 0, 83, 0
2, 363295, Note_on_c, 0, 71, 0
2, 363360, Note_on_c, 0, 62, 0
2, 363360, Note_on_c, 0, 50, 0
2, 363360, Note_on_c, 0, 85, 53
2, 363360, Note_on_c, 0, 73, 53
2, 363360, Note_on_c, 0, 55, 53
2, 363415, Note_on_c, 0, 55, 0
2, 363415, Note_on_c, 0, 73, 0
2, 363415, Note_on_c, 0, 85, 0
2, 363480, Note_on_c, 0, 86, 53
2, 363480, Note_on_c, 0, 74, 53
2, 363480, Note_on_c, 0, 54, 53
2, 363480, Note_on_c, 0, 62, 53
2, 363480, Note_on_c, 0, 50, 53
2, 363535, Note_on_c, 0, 54, 0
2, 363535, Note_on_c, 0, 86, 0
2, 363535, Note_on_c, 0, 74, 0
2, 363600, Note_on_c, 0, 90, 53
2, 363600, Note_on_c, 0, 78, 53
2, 363600, Note_on_c, 0, 54, 53
2, 363655, Note_on_c, 0, 54, 0
2, 363655, Note_on_c, 0, 90, 0
2, 363655, Note_on_c, 0, 78, 0
2, 363720, Note_on_c, 0, 93, 53
2, 363720, Note_on_c, 0, 81, 53
2, 363720, Note_on_c, 0, 52, 53
2, 363775, Note_on_c, 0, 81, 0
2, 363775, Note_on_c, 0, 93, 0
2, 363840, Note_on_c, 0, 85, 53
2, 363840, Note_on_c, 0, 73, 53
2, 363895, Note_on_c, 0, 73, 0
2, 363895, Note_on_c, 0, 85, 0
2, 363955, Note_on_c, 0, 52, 0
2, 363955, Note_on_c, 0, 62, 0
2, 363955, Note_on_c, 0, 50, 0
2, 363960, Note_on_c, 0, 86, 53
2, 363960, Note_on_c, 0, 74, 53
2, 363960, Note_on_c, 0, 62, 53
2, 363960, Note_on_c, 0, 50, 53
2, 364015, Note_on_c, 0, 74, 0
2, 364015, Note_on_c, 0, 86, 0
2, 364080, Note_on_c, 0, 85, 53
2, 364080, Note_on_c, 0, 73, 53
2, 364135, Note_on_c, 0, 73, 0
2, 364135, Note_on_c, 0, 85, 0
2, 364200, Note_on_c, 0, 86, 53
2, 364200, Note_on_c, 0, 74, 53
2, 364255, Note_on_c, 0, 74, 0
2, 364255, Note_on_c, 0, 86, 0
2, 364320, Note_on_c, 0, 83, 53
2, 364320, Note_on_c, 0, 71, 53
2, 364375, Note_on_c, 0, 71, 0
2, 364375, Note_on_c, 0, 83, 0
2, 364435, Note_on_c, 0, 62, 0
2, 364435, Note_on_c, 0, 50, 0
2, 364440, Note_on_c, 0, 81, 53
2, 364440, Note_on_c, 0, 69, 53
2, 364440, Note_on_c, 0, 52, 53
2, 364440, Note_on_c, 0, 62, 53
2, 364440, Note_on_c, 0, 50, 53
2, 364495, Note_on_c, 0, 69, 0
2, 364495, Note_on_c, 0, 81, 0
2, 364560, Note_on_c, 0, 79, 53
2, 364560, Note_on_c, 0, 67, 53
2, 364615, Note_on_c, 0, 67, 0
2, 364615, Note_on_c, 0, 79, 0
2, 364675, Note_on_c, 0, 50, 0
2, 364675, Note_on_c, 0, 52, 0
2, 364675, Note_on_c, 0, 62, 0
2, 364680, Note_on_c, 0, 78, 53
2, 364680, Note_on_c, 0, 66, 53
2, 364680, Note_on_c, 0, 54, 53
2, 364680, Note_on_c, 0, 62, 53
2, 364680, Note_on_c, 0, 50, 53
2, 364735, Note_on_c, 0, 66, 0
2, 364735, Note_on_c, 0, 78, 0
2, 364800, Note_on_c, 0, 74, 53
2, 364855, Note_on_c, 0, 74, 0
2, 364915, Note_on_c, 0, 50, 0
2, 364915, Note_on_c, 0, 54, 0
2, 364915, Note_on_c, 0, 62, 0
2, 364920, Note_on_c, 0, 90, 53
2, 364920, Note_on_c, 0, 78, 53
2, 364920, Note_on_c, 0, 54, 53
2, 364920, Note_on_c, 0, 62, 53
2, 364920, Note_on_c, 0, 50, 53
2, 364975, Note_on_c, 0, 78, 0
2, 364975, Note_on_c, 0, 90, 0
2, 365040, Note_on_c, 0, 88, 53
2, 365040, Note_on_c, 0, 76, 53
2, 365095, Note_on_c, 0, 76, 0
2, 365095, Note_on_c, 0, 88, 0
2, 365160, Note_on_c, 0, 90, 53
2, 365160, Note_on_c, 0, 78, 53
2, 365215, Note_on_c, 0, 78, 0
2, 365215, Note_on_c, 0, 90, 0
2, 365280, Note_on_c, 0, 86, 53
2, 365280, Note_on_c, 0, 74, 53
2, 365335, Note_on_c, 0, 74, 0
2, 365335, Note_on_c, 0, 86, 0
2, 365395, Note_on_c, 0, 50, 0
2, 365395, Note_on_c, 0, 54, 0
2, 365395, Note_on_c, 0, 62, 0
2, 365400, Note_on_c, 0, 85, 53
2, 365400, Note_on_c, 0, 73, 53
2, 365400, Note_on_c, 0, 55, 53
2, 365400, Note_on_c, 0, 62, 53
2, 365400, Note_on_c, 0, 50, 53
2, 365455, Note_on_c, 0, 73, 0
2, 365455, Note_on_c, 0, 85, 0
2, 365520, Note_on_c, 0, 83, 53
2, 365520, Note_on_c, 0, 71, 53
2, 365575, Note_on_c, 0, 71, 0
2, 365575, Note_on_c, 0, 83, 0
2, 365635, Note_on_c, 0, 50, 0
2, 365635, Note_on_c, 0, 55, 0
2, 365635, Note_on_c, 0, 62, 0
2, 365640, Note_on_c, 0, 81, 53
2, 365640, Note_on_c, 0, 69, 53
2, 365640, Note_on_c, 0, 57, 53
2, 365640, Note_on_c, 0, 62, 53
2, 365640, Note_on_c, 0, 50, 53
2, 365695, Note_on_c, 0, 69, 0
2, 365695, Note_on_c, 0, 81, 0
2, 365760, Note_on_c, 0, 78, 53
2, 365760, Note_on_c, 0, 66, 53
2, 365815, Note_on_c, 0, 66, 0
2, 365815, Note_on_c, 0, 78, 0
2, 365875, Note_on_c, 0, 50, 0
2, 365875, Note_on_c, 0, 57, 0
2, 365875, Note_on_c, 0, 62, 0
2, 365880, Note_on_c, 0, 93, 53
2, 365880, Note_on_c, 0, 81, 53
2, 365880, Note_on_c, 0, 57, 53
2, 365880, Note_on_c, 0, 62, 53
2, 365880, Note_on_c, 0, 66, 53
2, 365880, Note_on_c, 0, 50, 53
2, 365935, Note_on_c, 0, 81, 0
2, 365935, Note_on_c, 0, 93, 0
2, 366000, Note_on_c, 0, 92, 53
2, 366000, Note_on_c, 0, 80, 53
2, 366055, Note_on_c, 0, 80, 0
2, 366055, Note_on_c, 0, 92, 0
2, 366120, Note_on_c, 0, 93, 53
2, 366120, Note_on_c, 0, 81, 53
2, 366175, Note_on_c, 0, 81, 0
2, 366175, Note_on_c, 0, 93, 0
2, 366240, Note_on_c, 0, 90, 53
2, 366240, Note_on_c, 0, 78, 53
2, 366295, Note_on_c, 0, 78, 0
2, 366295, Note_on_c, 0, 90, 0
2, 366355, Note_on_c, 0, 57, 0
2, 366355, Note_on_c, 0, 62, 0
2, 366355, Note_on_c, 0, 50, 0
2, 366355, Note_on_c, 0, 66, 0
2, 366360, Note_on_c, 0, 88, 53
2, 366360, Note_on_c, 0, 76, 53
2, 366360, Note_on_c, 0, 64, 53
2, 366360, Note_on_c, 0, 67, 53
2, 366360, Note_on_c, 0, 55, 53
2, 366415, Note_on_c, 0, 76, 0
2, 366415, Note_on_c, 0, 88, 0
2, 366480, Note_on_c, 0, 85, 53
2, 366480, Note_on_c, 0, 73, 53
2, 366535, Note_on_c, 0, 73, 0
2, 366535, Note_on_c, 0, 85, 0
2, 366595, Note_on_c, 0, 55, 0
2, 366595, Note_on_c, 0, 64, 0
2, 366595, Note_on_c, 0, 67, 0
2, 366600, Note_on_c, 0, 81, 53
2, 366600, Note_on_c, 0, 69, 53
2, 366600, Note_on_c, 0, 62, 53
2, 366600, Note_on_c, 0, 54, 53
2, 366655, Note_on_c, 0, 69, 0
2, 366655, Note_on_c, 0, 81, 0
2, 366720, Note_on_c, 0, 92, 53
2, 366720, Note_on_c, 0, 80, 53
2, 366775, Note_on_c, 0, 80, 0
2, 366775, Note_on_c, 0, 92, 0
2, 366835, Note_on_c, 0, 62, 0
2, 366835, Note_on_c, 0, 54, 0
2, 366840, Note_on_c, 0, 93, 53
2, 366840, Note_on_c, 0, 81, 53
2, 366840, Note_on_c, 0, 57, 53
2, 366840, Note_on_c, 0, 62, 53
2, 366840, Note_on_c, 0, 66, 53
2, 366840, Note_on_c, 0, 50, 53
2, 366895, Note_on_c, 0, 81, 0
2, 366895, Note_on_c, 0, 93, 0
2, 366960, Note_on_c, 0, 92, 53
2, 366960, Note_on_c, 0, 80, 53
2, 367015, Note_on_c, 0, 80, 0
2, 367015, Note_on_c, 0, 92, 0
2, 367075, Note_on_c, 0, 57, 0
2, 367075, Note_on_c, 0, 62, 0
2, 367075, Note_on_c, 0, 50, 0
2, 367075, Note_on_c, 0, 66, 0
2, 367080, Note_on_c, 0, 93, 53
2, 367080, Note_on_c, 0, 81, 53
2, 367135, Note_on_c, 0, 81, 0
2, 367135, Note_on_c, 0, 93, 0
2, 367200, Note_on_c, 0, 90, 53
2, 367200, Note_on_c, 0, 78, 53
2, 367255, Note_on_c, 0, 78, 0
2, 367255, Note_on_c, 0, 90, 0
2, 367320, Note_on_c, 0, 88, 53
2, 367320, Note_on_c, 0, 76, 53
2, 367320, Note_on_c, 0, 64, 53
2, 367320, Note_on_c, 0, 67, 53
2, 367320, Note_on_c, 0, 55, 53
2, 367375, Note_on_c, 0, 76, 0
2, 367375, Note_on_c, 0, 88, 0
2, 367440, Note_on_c, 0, 85, 53
2, 367440, Note_on_c, 0, 73, 53
2, 367530, Note_on_c, 0, 73, 0
2, 367530, Note_on_c, 0, 85, 0
2, 367555, Note_on_c, 0, 55, 0
2, 367555, Note_on_c, 0, 64, 0
2, 367555, Note_on_c, 0, 67, 0
2, 367560, Note_on_c, 0, 50, 53
2, 367560, Note_on_c, 0, 74, 110
2, 367560, Note_on_c, 0, 78, 110
2, 367560, Note_on_c, 0, 81, 110
2, 367560, Note_on_c, 0, 69, 110
2, 367560, Note_on_c, 0, 57, 103
2, 367560, Note_on_c, 0, 62, 103
2, 367560, Note_on_c, 0, 54, 103
2, 367615, Note_on_c, 0, 69, 0
2, 367615, Note_on_c, 0, 81, 0
2, 367615, Note_on_c, 0, 78, 0
2, 367615, Note_on_c, 0, 74, 0
2, 367680, Note_on_c, 0, 86, 103
2, 367680, Note_on_c, 0, 74, 103
2, 367735, Note_on_c, 0, 74, 0
2, 367735, Note_on_c, 0, 86, 0
2, 367795, Note_on_c, 0, 62, 0
2, 367795, Note_on_c, 0, 54, 0
2, 367795, Note_on_c, 0, 57, 0
2, 367795, Note_on_c, 0, 50, 0
2, 367800, Note_on_c, 0, 88, 96
2, 367800, Note_on_c, 0, 76, 96
2, 367800, Note_on_c, 0, 54, 93
2, 367800, Note_on_c, 0, 57, 93
2, 367800, Note_on_c, 0, 62, 93
2, 367800, Note_on_c, 0, 50, 93
2, 367855, Note_on_c, 0, 76, 0
2, 367855, Note_on_c, 0, 88, 0
2, 367920, Note_on_c, 0, 86, 89
2, 367920, Note_on_c, 0, 74, 89
2, 367975, Note_on_c, 0, 74, 0
2, 367975, Note_on_c, 0, 86, 0
2, 368035, Note_on_c, 0, 54, 0
2, 368035, Note_on_c, 0, 57, 0
2, 368035, Note_on_c, 0, 50, 0
2, 368035, Note_on_c, 0, 62, 0
2, 368040, Note_on_c, 0, 50, 89
2, 368040, Note_on_c, 0, 73, 83
2, 368040, Note_on_c, 0, 76, 83
2, 368040, Note_on_c, 0, 81, 83
2, 368040, Note_on_c, 0, 69, 83
2, 368040, Note_on_c, 0, 57, 76
2, 368040, Note_on_c, 0, 61, 76
2, 368040, Note_on_c, 0, 64, 76
2, 368040, Note_on_c, 0, 55, 76
2, 368100, Note_on_c, 0, 69, 0
2, 368100, Note_on_c, 0, 81, 0
2, 368100, Note_on_c, 0, 76, 0
2, 368100, Note_on_c, 0, 73, 0
2, 368160, Note_on_c, 0, 88, 76
2, 368160, Note_on_c, 0, 76, 76
2, 368220, Note_on_c, 0, 76, 0
2, 368220, Note_on_c, 0, 88, 0
2, 368275, Note_on_c, 0, 61, 0
2, 368275, Note_on_c, 0, 64, 0
2, 368275, Note_on_c, 0, 55, 0
2, 368275, Note_on_c, 0, 57, 0
2, 368275, Note_on_c, 0, 50, 0
2, 368280, Note_on_c, 0, 90, 69
2, 368280, Note_on_c, 0, 78, 69
2, 368280, Note_on_c, 0, 55, 65
2, 368280, Note_on_c, 0, 57, 65
2, 368280, Note_on_c, 0, 61, 65
2, 368280, Note_on_c, 0, 64, 65
2, 368280, Note_on_c, 0, 50, 65
2, 368340, Note_on_c, 0, 78, 0
2, 368340, Note_on_c, 0, 90, 0
2, 368400, Note_on_c, 0, 88, 62
2, 368400, Note_on_c, 0, 76, 62
2, 368460, Note_on_c, 0, 76, 0
2, 368460, Note_on_c, 0, 88, 0
2, 368515, Note_on_c, 0, 50, 0
2, 368515, Note_on_c, 0, 61, 0
2, 368515, Note_on_c, 0, 57, 0
2, 368515, Note_on_c, 0, 55, 0
2, 368515, Note_on_c, 0, 64, 0
2, 368520, Note_on_c, 0, 38, 64
2, 368520, Note_on_c, 0, 50, 62
2, 368520, Note_on_c, 0, 74, 55
2, 368520, Note_on_c, 0, 78, 55
2, 368520, Note_on_c, 0, 81, 55
2, 368520, Note_on_c, 0, 69, 55
2, 368520, Note_on_c, 0, 57, 48
2, 368520, Note_on_c, 0, 62, 48
2, 368520, Note_on_c, 0, 54, 48
2, 368580, Note_on_c, 0, 69, 0
2, 368580, Note_on_c, 0, 78, 0
2, 368580, Note_on_c, 0, 74, 0
2, 368580, Note_on_c, 0, 81, 0
2, 368640, Note_on_c, 0, 86, 48
2, 368640, Note_on_c, 0, 74, 48
2, 368755, Note_on_c, 0, 50, 0
2, 368755, Note_on_c, 0, 38, 0
2, 368755, Note_on_c, 0, 54, 0
2, 368755, Note_on_c, 0, 62, 0
2, 368755, Note_on_c, 0, 57, 0
2, 368760, Note_on_c, 0, 88, 41
2, 368760, Note_on_c, 0, 76, 41
2, 368760, Note_on_c, 0, 54, 38
2, 368760, Note_on_c, 0, 57, 38
2, 368760, Note_on_c, 0, 62, 38
2, 368760, Note_on_c, 0, 50, 38
2, 368820, Note_on_c, 0, 76, 0
2, 368820, Note_on_c, 0, 88, 0
2, 368875, Note_on_c, 0, 86, 0
2, 368875, Note_on_c, 0, 74, 0
2, 368880, Note_on_c, 0, 86, 34
2, 368880, Note_on_c, 0, 74, 34
2, 368940, Note_on_c, 0, 74, 0
2, 368940, Note_on_c, 0, 86, 0
2, 368995, Note_on_c, 0, 62, 0
2, 368995, Note_on_c, 0, 50, 0
2, 368995, Note_on_c, 0, 57, 0
2, 368995, Note_on_c, 0, 54, 0
2, 369000, Note_on_c, 0, 38, 36
2, 369000, Note_on_c, 0, 50, 34
2, 369000, Note_on_c, 0, 73, 28
2, 369000, Note_on_c, 0, 76, 28
2, 369000, Note_on_c, 0, 81, 28
2, 369000, Note_on_c, 0, 69, 28
2, 369000, Note_on_c, 0, 57, 21
2, 369000, Note_on_c, 0, 61, 21
2, 369000, Note_on_c, 0, 64, 21
2, 369000, Note_on_c, 0, 55, 21
2, 369060, Note_on_c, 0, 81, 0
2, 369060, Note_on_c, 0, 76, 0
2, 369060, Note_on_c, 0, 73, 0
2, 369120, Note_on_c, 0, 88, 21
2, 369120, Note_on_c, 0, 76, 21
2, 369180, Note_on_c, 0, 76, 0
2, 369180, Note_on_c, 0, 88, 0
2, 369235, Note_on_c, 0, 64, 0
2, 369235, Note_on_c, 0, 69, 0
2, 369235, Note_on_c, 0, 50, 0
2, 369235, Note_on_c, 0, 55, 0
2, 369235, Note_on_c, 0, 38, 0
2, 369235, Note_on_c, 0, 57, 0
2, 369235, Note_on_c, 0, 61, 0
2, 369240, Note_on_c, 0, 90, 14
2, 369240, Note_on_c, 0, 78, 14
2, 369240, Note_on_c, 0, 55, 10
2, 369240, Note_on_c, 0, 57, 10
2, 369240, Note_on_c, 0, 61, 10
2, 369240, Note_on_c, 0, 64, 10
2, 369240, Note_on_c, 0, 50, 10
2, 369300, Note_on_c, 0, 78, 0
2, 369300, Note_on_c, 0, 90, 0
2, 369360, Note_on_c, 0, 88, 7
2, 369360, Note_on_c, 0, 76, 7
2, 369420, Note_on_c, 0, 76, 0
2, 369420, Note_on_c, 0, 88, 0
2, 369475, Note_on_c, 0, 50, 0
2, 369475, Note_on_c, 0, 61, 0
2, 369475, Note_on_c, 0, 57, 0
2, 369475, Note_on_c, 0, 55, 0
2, 369475, Note_on_c, 0, 64, 0
2, 369480, Note_on_c, 0, 38, 9
2, 369480, Note_on_c, 0, 50, 7
2, 369480, Note_on_c, 0, 86, 1
2, 369480, Note_on_c, 0, 74, 1
2, 369480, Note_on_c, 0, 57, 1
2, 369480, Note_on_c, 0, 62, 1
2, 369480, Note_on_c, 0, 54, 1
2, 369540, Note_on_c, 0, 54, 0
2, 369540, Note_on_c, 0, 57, 0
2, 369540, Note_on_c, 0, 50, 0
2, 369540, Note_on_c, 0, 86, 0
2, 369540, Note_on_c, 0, 38, 0
2, 369540, Note_on_c, 0, 62, 0
2, 369540, Note_on_c, 0, 74, 0
2, 369720, Note_on_c, 0, 74, 53
2, 369720, Note_on_c, 0, 62, 53
2, 369720, Note_on_c, 0, 50, 53
2, 369780, Note_on_c, 0, 62, 0
2, 369840, Note_on_c, 0, 61, 53
2, 369900, Note_on_c, 0, 61, 0
2, 369955, Note_on_c, 0, 50, 0
2, 369960, Note_on_c, 0, 62, 53
2, 370020, Note_on_c, 0, 62, 0
2, 370080, Note_on_c, 0, 59, 53
2, 370140, Note_on_c, 0, 59, 0
2, 370195, Note_on_c, 0, 74, 0
2, 370200, Note_on_c, 0, 74, 53
2, 370200, Note_on_c, 0, 76, 53
2, 370200, Note_on_c, 0, 64, 53
2, 370200, Note_on_c, 0, 57, 53
2, 370260, Note_on_c, 0, 57, 0
2, 370320, Note_on_c, 0, 55, 53
2, 370380, Note_on_c, 0, 55, 0
2, 370435, Note_on_c, 0, 64, 0
2, 370435, Note_on_c, 0, 76, 0
2, 370435, Note_on_c, 0, 74, 0
2, 370440, Note_on_c, 0, 74, 53
2, 370440, Note_on_c, 0, 78, 53
2, 370440, Note_on_c, 0, 66, 53
2, 370440, Note_on_c, 0, 54, 53
2, 370500, Note_on_c, 0, 54, 0
2, 370560, Note_on_c, 0, 50, 53
2, 370620, Note_on_c, 0, 50, 0
2, 370675, Note_on_c, 0, 66, 0
2, 370675, Note_on_c, 0, 78, 0
2, 370675, Note_on_c, 0, 74, 0
2, 370680, Note_on_c, 0, 78, 53
2, 370680, Note_on_c, 0, 74, 53
2, 370680, Note_on_c, 0, 66, 53
2, 370680, Note_on_c, 0, 50, 53
2, 370740, Note_on_c, 0, 66, 0
2, 370800, Note_on_c, 0, 64, 53
2, 370860, Note_on_c, 0, 64, 0
2, 370915, Note_on_c, 0, 50, 0
2, 370920, Note_on_c, 0, 66, 53
2, 370980, Note_on_c, 0, 66, 0
2, 371040, Note_on_c, 0, 62, 53
2, 371100, Note_on_c, 0, 62, 0
2, 371155, Note_on_c, 0, 74, 0
2, 371155, Note_on_c, 0, 78, 0
2, 371160, Note_on_c, 0, 76, 53
2, 371160, Note_on_c, 0, 79, 53
2, 371160, Note_on_c, 0, 67, 53
2, 371160, Note_on_c, 0, 61, 53
2, 371220, Note_on_c, 0, 61, 0
2, 371280, Note_on_c, 0, 59, 53
2, 371340, Note_on_c, 0, 59, 0
2, 371395, Note_on_c, 0, 67, 0
2, 371395, Note_on_c, 0, 79, 0
2, 371395, Note_on_c, 0, 76, 0
2, 371400, Note_on_c, 0, 78, 53
2, 371400, Note_on_c, 0, 81, 53
2, 371400, Note_on_c, 0, 69, 53
2, 371400, Note_on_c, 0, 57, 53
2, 371515, Note_on_c, 0, 57, 0
2, 371520, Note_on_c, 0, 62, 53
2, 371635, Note_on_c, 0, 62, 0
2, 371635, Note_on_c, 0, 69, 0
2, 371635, Note_on_c, 0, 81, 0
2, 371635, Note_on_c, 0, 78, 0
2, 371640, Note_on_c, 0, 78, 53
2, 371640, Note_on_c, 0, 81, 53
2, 371640, Note_on_c, 0, 86, 53
2, 371640, Note_on_c, 0, 74, 53
2, 371640, Note_on_c, 0, 69, 53
2, 371640, Note_on_c, 0, 50, 53
2, 371755, Note_on_c, 0, 69, 0
2, 371760, Note_on_c, 0, 68, 53
2, 371875, Note_on_c, 0, 68, 0
2, 371875, Note_on_c, 0, 50, 0
2, 371875, Note_on_c, 0, 86, 0
2, 371875, Note_on_c, 0, 78, 0
2, 371875, Note_on_c, 0, 81, 0
2, 371875, Note_on_c, 0, 74, 0
2, 371880, Note_on_c, 0, 69, 53
2, 371995, Note_on_c, 0, 69, 0
2, 372000, Note_on_c, 0, 66, 53
2, 372115, Note_on_c, 0, 66, 0
2, 372120, Note_on_c, 0, 79, 53
2, 372120, Note_on_c, 0, 81, 53
2, 372120, Note_on_c, 0, 85, 53
2, 372120, Note_on_c, 0, 88, 53
2, 372120, Note_on_c, 0, 76, 53
2, 372120, Note_on_c, 0, 64, 53
2, 372120, Note_on_c, 0, 50, 53
2, 372235, Note_on_c, 0, 64, 0
2, 372240, Note_on_c, 0, 62, 53
2, 372355, Note_on_c, 0, 62, 0
2, 372355, Note_on_c, 0, 50, 0
2, 372355, Note_on_c, 0, 81, 0
2, 372355, Note_on_c, 0, 85, 0
2, 372355, Note_on_c, 0, 79, 0
2, 372355, Note_on_c, 0, 76, 0
2, 372355, Note_on_c, 0, 88, 0
2, 372360, Note_on_c, 0, 81, 53
2, 372360, Note_on_c, 0, 86, 53
2, 372360, Note_on_c, 0, 90, 53
2, 372360, Note_on_c, 0, 78, 53
2, 372360, Note_on_c, 0, 57, 53
2, 372360, Note_on_c, 0, 50, 53
2, 372475, Note_on_c, 0, 57, 0
2, 372480, Note_on_c, 0, 62, 53
2, 372595, Note_on_c, 0, 62, 0
2, 372595, Note_on_c, 0, 50, 0
2, 372595, Note_on_c, 0, 90, 0
2, 372595, Note_on_c, 0, 81, 0
2, 372595, Note_on_c, 0, 86, 0
2, 372595, Note_on_c, 0, 78, 0
2, 372600, Note_on_c, 0, 81, 53
2, 372600, Note_on_c, 0, 86, 53
2, 372600, Note_on_c, 0, 90, 53
2, 372600, Note_on_c, 0, 78, 53
2, 372600, Note_on_c, 0, 69, 53
2, 372600, Note_on_c, 0, 50, 53
2, 372715, Note_on_c, 0, 69, 0
2, 372720, Note_on_c, 0, 68, 53
2, 372835, Note_on_c, 0, 68, 0
2, 372835, Note_on_c, 0, 50, 0
2, 372835, Note_on_c, 0, 90, 0
2, 372835, Note_on_c, 0, 81, 0
2, 372835, Note_on_c, 0, 86, 0
2, 372835, Note_on_c, 0, 78, 0
2, 372840, Note_on_c, 0, 69, 53
2, 372955, Note_on_c, 0, 69, 0
2, 372960, Note_on_c, 0, 66, 53
2, 373075, Note_on_c, 0, 66, 0
2, 373080, Note_on_c, 0, 88, 53
2, 373080, Note_on_c, 0, 91, 53
2, 373080, Note_on_c, 0, 79, 53
2, 373080, Note_on_c, 0, 64, 53
2, 373080, Note_on_c, 0, 50, 53
2, 373140, Note_on_c, 0, 64, 0
2, 373200, Note_on_c, 0, 62, 53
2, 373260, Note_on_c, 0, 62, 0
2, 373315, Note_on_c, 0, 50, 0
2, 373315, Note_on_c, 0, 88, 0
2, 373315, Note_on_c, 0, 91, 0
2, 373315, Note_on_c, 0, 79, 0
2, 373320, Note_on_c, 0, 90, 53
2, 373320, Note_on_c, 0, 93, 53
2, 373320, Note_on_c, 0, 81, 53
2, 373320, Note_on_c, 0, 57, 53
2, 373320, Note_on_c, 0, 50, 53
2, 373435, Note_on_c, 0, 57, 0
2, 373440, Note_on_c, 0, 62, 53
2, 373555, Note_on_c, 0, 62, 0
2, 373555, Note_on_c, 0, 50, 0
2, 373555, Note_on_c, 0, 90, 0
2, 373555, Note_on_c, 0, 93, 0
2, 373555, Note_on_c, 0, 81, 0
2, 373560, Note_on_c, 0, 86, 53
2, 373560, Note_on_c, 0, 90, 53
2, 373560, Note_on_c, 0, 93, 53
2, 373560, Note_on_c, 0, 81, 53
2, 373560, Note_on_c, 0, 54, 53
2, 373560, Note_on_c, 0, 57, 53
2, 373560, Note_on_c, 0, 64, 53
2, 373560, Note_on_c, 0, 50, 53
2, 373675, Note_on_c, 0, 64, 0
2, 373680, Note_on_c, 0, 62, 53
2, 373795, Note_on_c, 0, 62, 0
2, 373795, Note_on_c, 0, 81, 0
2, 373795, Note_on_c, 0, 54, 0
2, 373795, Note_on_c, 0, 90, 0
2, 373795, Note_on_c, 0, 93, 0
2, 373795, Note_on_c, 0, 50, 0
2, 373795, Note_on_c, 0, 57, 0
2, 373795, Note_on_c, 0, 86, 0
2, 373800, Note_on_c, 0, 38, 53
2, 373800, Note_on_c, 0, 50, 53
2, 373800, Note_on_c, 0, 85, 53
2, 373800, Note_on_c, 0, 88, 53
2, 373800, Note_on_c, 0, 93, 53
2, 373800, Note_on_c, 0, 81, 53
2, 373800, Note_on_c, 0, 57, 53
2, 373920, Note_on_c, 0, 64, 53
2, 374035, Note_on_c, 0, 64, 0
2, 374035, Note_on_c, 0, 38, 0
2, 374035, Note_on_c, 0, 93, 0
2, 374035, Note_on_c, 0, 50, 0
2, 374035, Note_on_c, 0, 85, 0
2, 374035, Note_on_c, 0, 88, 0
2, 374035, Note_on_c, 0, 81, 0
2, 374035, Note_on_c, 0, 57, 0
2, 374040, Note_on_c, 0, 85, 53
2, 374040, Note_on_c, 0, 88, 53
2, 374040, Note_on_c, 0, 93, 53
2, 374040, Note_on_c, 0, 81, 53
2, 374040, Note_on_c, 0, 57, 53
2, 374040, Note_on_c, 0, 61, 53
2, 374040, Note_on_c, 0, 66, 53
2, 374040, Note_on_c, 0, 55, 53
2, 374155, Note_on_c, 0, 66, 0
2, 374160, Note_on_c, 0, 64, 53
2, 374275, Note_on_c, 0, 64, 0
2, 374275, Note_on_c, 0, 81, 0
2, 374275, Note_on_c, 0, 57, 0
2, 374275, Note_on_c, 0, 88, 0
2, 374275, Note_on_c, 0, 93, 0
2, 374275, Note_on_c, 0, 55, 0
2, 374275, Note_on_c, 0, 61, 0
2, 374275, Note_on_c, 0, 85, 0
2, 374280, Note_on_c, 0, 38, 53
2, 374280, Note_on_c, 0, 50, 53
2, 374280, Note_on_c, 0, 86, 53
2, 374280, Note_on_c, 0, 90, 53
2, 374280, Note_on_c, 0, 93, 53
2, 374280, Note_on_c, 0, 81, 53
2, 374280, Note_on_c, 0, 57, 53
2, 374400, Note_on_c, 0, 62, 53
2, 374515, Note_on_c, 0, 62, 0
2, 374515, Note_on_c, 0, 38, 0
2, 374515, Note_on_c, 0, 93, 0
2, 374515, Note_on_c, 0, 50, 0
2, 374515, Note_on_c, 0, 86, 0
2, 374515, Note_on_c, 0, 90, 0
2, 374515, Note_on_c, 0, 81, 0
2, 374515, Note_on_c, 0, 57, 0
2, 374520, Note_on_c, 0, 86, 53
2, 374520, Note_on_c, 0, 90, 53
2, 374520, Note_on_c, 0, 93, 53
2, 374520, Note_on_c, 0, 81, 53
2, 374520, Note_on_c, 0, 57, 53
2, 374520, Note_on_c, 0, 64, 53
2, 374520, Note_on_c, 0, 54, 53
2, 374635, Note_on_c, 0, 64, 0
2, 374640, Note_on_c, 0, 62, 53
2, 374755, Note_on_c, 0, 62, 0
2, 374755, Note_on_c, 0, 54, 0
2, 374755, Note_on_c, 0, 90, 0
2, 374755, Note_on_c, 0, 93, 0
2, 374755, Note_on_c, 0, 86, 0
2, 374755, Note_on_c, 0, 57, 0
2, 374755, Note_on_c, 0, 81, 0
2, 374760, Note_on_c, 0, 38, 53
2, 374760, Note_on_c, 0, 50, 53
2, 374760, Note_on_c, 0, 85, 53
2, 374760, Note_on_c, 0, 88, 53
2, 374760, Note_on_c, 0, 93, 53
2, 374760, Note_on_c, 0, 81, 53
2, 374760, Note_on_c, 0, 57, 53
2, 374880, Note_on_c, 0, 64, 53
2, 374995, Note_on_c, 0, 64, 0
2, 374995, Note_on_c, 0, 38, 0
2, 374995, Note_on_c, 0, 93, 0
2, 374995, Note_on_c, 0, 50, 0
2, 374995, Note_on_c, 0, 85, 0
2, 374995, Note_on_c, 0, 88, 0
2, 374995, Note_on_c, 0, 81, 0
2, 374995, Note_on_c, 0, 57, 0
2, 375000, Note_on_c, 0, 85, 53
2, 375000, Note_on_c, 0, 88, 53
2, 375000, Note_on_c, 0, 93, 53
2, 375000, Note_on_c, 0, 81, 53
2, 375000, Note_on_c, 0, 57, 53
2, 375000, Note_on_c, 0, 61, 53
2, 375000, Note_on_c, 0, 66, 53
2, 375000, Note_on_c, 0, 55, 53
2, 375115, Note_on_c, 0, 66, 0
2, 375120, Note_on_c, 0, 64, 53
2, 375235, Note_on_c, 0, 64, 0
2, 375235, Note_on_c, 0, 81, 0
2, 375235, Note_on_c, 0, 57, 0
2, 375235, Note_on_c, 0, 88, 0
2, 375235, Note_on_c, 0, 93, 0
2, 375235, Note_on_c, 0, 55, 0
2, 375235, Note_on_c, 0, 61, 0
2, 375235, Note_on_c, 0, 85, 0
2, 375240, Note_on_c, 0, 38, 53
2, 375240, Note_on_c, 0, 50, 53
2, 375240, Note_on_c, 0, 86, 53
2, 375240, Note_on_c, 0, 90, 53
2, 375240, Note_on_c, 0, 93, 53
2, 375240, Note_on_c, 0, 81, 53
2, 375240, Note_on_c, 0, 57, 53
2, 375360, Note_on_c, 0, 62, 53
2, 375475, Note_on_c, 0, 62, 0
2, 375475, Note_on_c, 0, 38, 0
2, 375475, Note_on_c, 0, 93, 0
2, 375475, Note_on_c, 0, 50, 0
2, 375475, Note_on_c, 0, 86, 0
2, 375475, Note_on_c, 0, 90, 0
2, 375475, Note_on_c, 0, 81, 0
2, 375475, Note_on_c, 0, 57, 0
2, 375480, Note_on_c, 0, 86, 53
2, 375480, Note_on_c, 0, 90, 53
2, 375480, Note_on_c, 0, 93, 53
2, 375480, Note_on_c, 0, 81, 53
2, 375480, Note_on_c, 0, 57, 53
2, 375480, Note_on_c, 0, 64, 53
2, 375480, Note_on_c, 0, 54, 53
2, 375595, Note_on_c, 0, 64, 0
2, 375600, Note_on_c, 0, 62, 53
2, 375715, Note_on_c, 0, 62, 0
2, 375715, Note_on_c, 0, 54, 0
2, 375715, Note_on_c, 0, 90, 0
2, 375715, Note_on_c, 0, 93, 0
2, 375715, Note_on_c, 0, 86, 0
2, 375715, Note_on_c, 0, 57, 0
2, 375715, Note_on_c, 0, 81, 0
2, 375720, Note_on_c, 0, 38, 53
2, 375720, Note_on_c, 0, 50, 53
2, 375720, Note_on_c, 0, 85, 53
2, 375720, Note_on_c, 0, 88, 53
2, 375720, Note_on_c, 0, 93, 53
2, 375720, Note_on_c, 0, 81, 53
2, 375720, Note_on_c, 0, 57, 53
2, 375840, Note_on_c, 0, 64, 53
2, 375955, Note_on_c, 0, 64, 0
2, 375955, Note_on_c, 0, 38, 0
2, 375955, Note_on_c, 0, 93, 0
2, 375955, Note_on_c, 0, 50, 0
2, 375955, Note_on_c, 0, 85, 0
2, 375955, Note_on_c, 0, 88, 0
2, 375955, Note_on_c, 0, 81, 0
2, 375955, Note_on_c, 0, 57, 0
2, 375960, Note_on_c, 0, 85, 53
2, 375960, Note_on_c, 0, 88, 53
2, 375960, Note_on_c, 0, 93, 53
2, 375960, Note_on_c, 0, 81, 53
2, 375960, Note_on_c, 0, 57, 53
2, 375960, Note_on_c, 0, 61, 53
2, 375960, Note_on_c, 0, 66, 53
2, 375960, Note_on_c, 0, 55, 53
2, 376075, Note_on_c, 0, 66, 0
2, 376080, Note_on_c, 0, 64, 53
2, 376195, Note_on_c, 0, 64, 0
2, 376195, Note_on_c, 0, 81, 0
2, 376195, Note_on_c, 0, 57, 0
2, 376195, Note_on_c, 0, 88, 0
2, 376195, Note_on_c, 0, 93, 0
2, 376195, Note_on_c, 0, 55, 0
2, 376195, Note_on_c, 0, 61, 0
2, 376195, Note_on_c, 0, 85, 0
2, 376200, Note_on_c, 0, 38, 53
2, 376200, Note_on_c, 0, 50, 53
2, 376200, Note_on_c, 0, 86, 53
2, 376200, Note_on_c, 0, 90, 53
2, 376200, Note_on_c, 0, 93, 53
2, 376200, Note_on_c, 0, 81, 53
2, 376200, Note_on_c, 0, 57, 53
2, 376320, Note_on_c, 0, 62, 53
2, 376435, Note_on_c, 0, 62, 0
2, 376435, Note_on_c, 0, 38, 0
2, 376435, Note_on_c, 0, 93, 0
2, 376435, Note_on_c, 0, 50, 0
2, 376435, Note_on_c, 0, 86, 0
2, 376435, Note_on_c, 0, 90, 0
2, 376435, Note_on_c, 0, 81, 0
2, 376435, Note_on_c, 0, 57, 0
2, 376440, Note_on_c, 0, 86, 53
2, 376440, Note_on_c, 0, 90, 53
2, 376440, Note_on_c, 0, 93, 53
2, 376440, Note_on_c, 0, 81, 53
2, 376440, Note_on_c, 0, 57, 53
2, 376440, Note_on_c, 0, 64, 53
2, 376440, Note_on_c, 0, 54, 53
2, 376555, Note_on_c, 0, 64, 0
2, 376560, Note_on_c, 0, 62, 53
2, 376675, Note_on_c, 0, 62, 0
2, 376675, Note_on_c, 0, 54, 0
2, 376675, Note_on_c, 0, 90, 0
2, 376675, Note_on_c, 0, 93, 0
2, 376675, Note_on_c, 0, 86, 0
2, 376675, Note_on_c, 0, 57, 0
2, 376675, Note_on_c, 0, 81, 0
2, 376680, Note_on_c, 0, 38, 53
2, 376680, Note_on_c, 0, 50, 53
2, 376680, Note_on_c, 0, 85, 53
2, 376680, Note_on_c, 0, 88, 53
2, 376680, Note_on_c, 0, 93, 53
2, 376680, Note_on_c, 0, 81, 53
2, 376680, Note_on_c, 0, 57, 53
2, 376800, Note_on_c, 0, 64, 53
2, 376915, Note_on_c, 0, 64, 0
2, 376915, Note_on_c, 0, 38, 0
2, 376915, Note_on_c, 0, 93, 0
2, 376915, Note_on_c, 0, 50, 0
2, 376915, Note_on_c, 0, 85, 0
2, 376915, Note_on_c, 0, 88, 0
2, 376915, Note_on_c, 0, 81, 0
2, 376915, Note_on_c, 0, 57, 0
2, 376920, Note_on_c, 0, 85, 53
2, 376920, Note_on_c, 0, 88, 53
2, 376920, Note_on_c, 0, 93, 53
2, 376920, Note_on_c, 0, 81, 53
2, 376920, Note_on_c, 0, 57, 53
2, 376920, Note_on_c, 0, 61, 53
2, 376920, Note_on_c, 0, 66, 53
2, 376920, Note_on_c, 0, 55, 53
2, 377040, Note_on_c, 0, 64, 53
2, 377155, Note_on_c, 0, 64, 0
2, 377155, Note_on_c, 0, 81, 0
2, 377155, Note_on_c, 0, 85, 0
2, 377155, Note_on_c, 0, 57, 0
2, 377155, Note_on_c, 0, 88, 0
2, 377155, Note_on_c, 0, 93, 0
2, 377155, Note_on_c, 0, 66, 0
2, 377155, Note_on_c, 0, 61, 0
2, 377155, Note_on_c, 0, 55, 0
2, 377160, Note_on_c, 0, 38, 53
2, 377160, Note_on_c, 0, 50, 53
2, 377160, Note_on_c, 0, 86, 53
2, 377160, Note_on_c, 0, 90, 53
2, 377160, Note_on_c, 0, 93, 53
2, 377160, Note_on_c, 0, 81, 53
2, 377160, Note_on_c, 0, 57, 53
2, 377280, Note_on_c, 0, 62, 53
2, 377395, Note_on_c, 0, 62, 0
2, 377395, Note_on_c, 0, 38, 0
2, 377395, Note_on_c, 0, 93, 0
2, 377395, Note_on_c, 0, 50, 0
2, 377395, Note_on_c, 0, 86, 0
2, 377395, Note_on_c, 0, 90, 0
2, 377395, Note_on_c, 0, 81, 0
2, 377395, Note_on_c, 0, 57, 0
2, 377400, Note_on_c, 0, 79, 53
2, 377400, Note_on_c, 0, 83, 53
2, 377400, Note_on_c, 0, 86, 53
2, 377400, Note_on_c, 0, 74, 53
2, 377400, Note_on_c, 0, 62, 53
2, 377400, Note_on_c, 0, 50, 53
2, 377515, Note_on_c, 0, 62, 0
2, 377520, Note_on_c, 0, 61, 53
2, 377635, Note_on_c, 0, 61, 0
2, 377640, Note_on_c, 0, 62, 53
2, 377755, Note_on_c, 0, 62, 0
2, 377760, Note_on_c, 0, 59, 53
2, 377875, Note_on_c, 0, 59, 0
2, 377880, Note_on_c, 0, 57, 53
2, 377995, Note_on_c, 0, 57, 0
2, 378000, Note_on_c, 0, 74, 0
2, 378000, Note_on_c, 0, 86, 0
2, 378000, Note_on_c, 0, 79, 0
2, 378000, Note_on_c, 0, 83, 0
2, 378000, Note_on_c, 0, 55, 53
2, 378115, Note_on_c, 0, 55, 0
2, 378120, Note_on_c, 0, 81, 53
2, 378120, Note_on_c, 0, 86, 53
2, 378120, Note_on_c, 0, 78, 53
2, 378120, Note_on_c, 0, 62, 53
2, 378235, Note_on_c, 0, 62, 0
2, 378240, Note_on_c, 0, 50, 0
2, 378240, Note_on_c, 0, 74, 53
2, 378355, Note_on_c, 0, 74, 0
2, 378355, Note_on_c, 0, 78, 0
2, 378355, Note_on_c, 0, 86, 0
2, 378355, Note_on_c, 0, 81, 0
2, 378360, Note_on_c, 0, 83, 53
2, 378360, Note_on_c, 0, 86, 53
2, 378360, Note_on_c, 0, 79, 53
2, 378360, Note_on_c, 0, 74, 53
2, 378475, Note_on_c, 0, 74, 0
2, 378480, Note_on_c, 0, 73, 53
2, 378595, Note_on_c, 0, 73, 0
2, 378600, Note_on_c, 0, 74, 53
2, 378715, Note_on_c, 0, 74, 0
2, 378720, Note_on_c, 0, 71, 53
2, 378835, Note_on_c, 0, 71, 0
2, 378840, Note_on_c, 0, 69, 53
2, 378860, Note_on_c, 0, 79, 0
2, 378860, Note_on_c, 0, 83, 0
2, 378860, Note_on_c, 0, 86, 0
2, 378955, Note_on_c, 0, 69, 0
2, 378960, Note_on_c, 0, 67, 53
2, 379075, Note_on_c, 0, 67, 0
2, 379080, Note_on_c, 0, 69, 53
2, 379080, Note_on_c, 0, 74, 53
2, 379080, Note_on_c, 0, 66, 53
2, 379080, Note_on_c, 0, 69, 53
2, 379080, Note_on_c, 0, 66, 53
2, 379200, Note_on_c, 0, 62, 53
2, 379200, Note_on_c, 0, 62, 53
2, 379315, Note_on_c, 0, 62, 0
2, 379315, Note_on_c, 0, 66, 0
2, 379315, Note_on_c, 0, 74, 0
2, 379315, Note_on_c, 0, 66, 0
2, 379315, Note_on_c, 0, 69, 0
2, 379315, Note_on_c, 0, 62, 0
2, 379315, Note_on_c, 0, 69, 0
2, 379320, Note_on_c, 0, 67, 53
2, 379320, Note_on_c, 0, 71, 53
2, 379320, Note_on_c, 0, 74, 53
2, 379320, Note_on_c, 0, 62, 53
2, 379320, Note_on_c, 0, 67, 53
2, 379320, Note_on_c, 0, 71, 53
2, 379320, Note_on_c, 0, 62, 53
2, 379435, Note_on_c, 0, 62, 0
2, 379440, Note_on_c, 0, 61, 53
2, 379555, Note_on_c, 0, 61, 0
2, 379560, Note_on_c, 0, 62, 53
2, 379675, Note_on_c, 0, 62, 0
2, 379680, Note_on_c, 0, 59, 53
2, 379795, Note_on_c, 0, 59, 0
2, 379795, Note_on_c, 0, 67, 0
2, 379795, Note_on_c, 0, 71, 0
2, 379800, Note_on_c, 0, 57, 53
2, 379820, Note_on_c, 0, 67, 0
2, 379820, Note_on_c, 0, 62, 0
2, 379820, Note_on_c, 0, 71, 0
2, 379820, Note_on_c, 0, 74, 0
2, 379915, Note_on_c, 0, 57, 0
2, 379920, Note_on_c, 0, 55, 53
2, 380035, Note_on_c, 0, 55, 0
2, 380040, Note_on_c, 0, 74, 53
2, 380040, Note_on_c, 0, 59, 53
2, 380040, Note_on_c, 0, 62, 53
2, 380040, Note_on_c, 0, 50, 53
2, 380155, Note_on_c, 0, 74, 0
2, 380160, Note_on_c, 0, 71, 53
2, 380275, Note_on_c, 0, 71, 0
2, 380280, Note_on_c, 0, 69, 53
2, 380395, Note_on_c, 0, 69, 0
2, 380400, Note_on_c, 0, 67, 53
2, 380515, Note_on_c, 0, 67, 0
2, 380515, Note_on_c, 0, 50, 0
2, 380515, Note_on_c, 0, 62, 0
2, 380515, Note_on_c, 0, 59, 0
2, 380520, Note_on_c, 0, 86, 53
2, 380520, Note_on_c, 0, 74, 53
2, 380520, Note_on_c, 0, 58, 53
2, 380520, Note_on_c, 0, 62, 53
2, 380520, Note_on_c, 0, 50, 53
2, 380635, Note_on_c, 0, 74, 0
2, 380635, Note_on_c, 0, 86, 0
2, 380640, Note_on_c, 0, 82, 53
2, 380640, Note_on_c, 0, 70, 53
2, 380755, Note_on_c, 0, 70, 0
2, 380755, Note_on_c, 0, 82, 0
2, 380760, Note_on_c, 0, 81, 53
2, 380760, Note_on_c, 0, 69, 53
2, 380875, Note_on_c, 0, 69, 0
2, 380875, Note_on_c, 0, 81, 0
2, 380880, Note_on_c, 0, 79, 53
2, 380880, Note_on_c, 0, 67, 53
2, 380995, Note_on_c, 0, 67, 0
2, 380995, Note_on_c, 0, 62, 0
2, 380995, Note_on_c, 0, 50, 0
2, 380995, Note_on_c, 0, 58, 0
2, 380995, Note_on_c, 0, 79, 0
2, 382320, Note_on_c, 0, 81, 53
2, 382350, Note_on_c, 0, 81, 0
2, 382500, Note_on_c, 0, 69, 53
2, 382530, Note_on_c, 0, 69, 0
2, 382560, Note_on_c, 0, 69, 53
2, 382590, Note_on_c, 0, 69, 0
2, 382680, Note_on_c, 0, 74, 53
2, 382710, Note_on_c, 0, 74, 0
2, 382800, Note_on_c, 0, 76, 53
2, 382830, Note_on_c, 0, 76, 0
2, 382920, Note_on_c, 0, 77, 53
2, 382950, Note_on_c, 0, 77, 0
2, 383040, Note_on_c, 0, 76, 53
2, 383070, Note_on_c, 0, 76, 0
2, 383160, Note_on_c, 0, 77, 53
2, 383190, Note_on_c, 0, 77, 0
2, 383280, Note_on_c, 0, 79, 53
2, 383310, Note_on_c, 0, 79, 0
2, 383400, Note_on_c, 0, 77, 53
2, 383430, Note_on_c, 0, 77, 0
2, 383520, Note_on_c, 0, 76, 53
2, 383550, Note_on_c, 0, 76, 0
2, 383640, Note_on_c, 0, 74, 53
2, 383670, Note_on_c, 0, 74, 0
2, 383760, Note_on_c, 0, 77, 53
2, 383760, Note_on_c, 0, 74, 71
2, 383790, Note_on_c, 0, 74, 0
2, 383790, Note_on_c, 0, 77, 0
2, 383880, Note_on_c, 0, 76, 53
2, 383910, Note_on_c, 0, 76, 0
2, 383940, Note_on_c, 0, 62, 71
2, 383970, Note_on_c, 0, 62, 0
2, 384000, Note_on_c, 0, 74, 53
2, 384000, Note_on_c, 0, 62, 71
2, 384030, Note_on_c, 0, 62, 0
2, 384030, Note_on_c, 0, 74, 0
2, 384120, Note_on_c, 0, 72, 53
2, 384120, Note_on_c, 0, 69, 53
2, 384150, Note_on_c, 0, 69, 0
2, 384150, Note_on_c, 0, 72, 0
2, 384240, Note_on_c, 0, 71, 53
2, 384240, Note_on_c, 0, 71, 53
2, 384270, Note_on_c, 0, 71, 0
2, 384270, Note_on_c, 0, 71, 0
2, 384360, Note_on_c, 0, 69, 53
2, 384360, Note_on_c, 0, 72, 53
2, 384390, Note_on_c, 0, 72, 0
2, 384390, Note_on_c, 0, 69, 0
2, 384480, Note_on_c, 0, 68, 53
2, 384480, Note_on_c, 0, 71, 53
2, 384510, Note_on_c, 0, 71, 0
2, 384510, Note_on_c, 0, 68, 0
2, 384600, Note_on_c, 0, 69, 53
2, 384600, Note_on_c, 0, 72, 53
2, 384630, Note_on_c, 0, 72, 0
2, 384630, Note_on_c, 0, 69, 0
2, 384720, Note_on_c, 0, 71, 53
2, 384720, Note_on_c, 0, 74, 53
2, 384750, Note_on_c, 0, 74, 0
2, 384750, Note_on_c, 0, 71, 0
2, 384840, Note_on_c, 0, 69, 53
2, 384840, Note_on_c, 0, 72, 53
2, 384870, Note_on_c, 0, 72, 0
2, 384870, Note_on_c, 0, 69, 0
2, 384960, Note_on_c, 0, 68, 53
2, 384960, Note_on_c, 0, 71, 53
2, 384990, Note_on_c, 0, 71, 0
2, 384990, Note_on_c, 0, 68, 0
2, 385080, Note_on_c, 0, 69, 53
2, 385110, Note_on_c, 0, 69, 0
2, 385200, Note_on_c, 0, 70, 53
2, 385200, Note_on_c, 0, 67, 53
2, 385200, Note_on_c, 0, 69, 71
2, 385230, Note_on_c, 0, 69, 0
2, 385230, Note_on_c, 0, 67, 0
2, 385230, Note_on_c, 0, 70, 0
2, 385320, Note_on_c, 0, 69, 53
2, 385320, Note_on_c, 0, 65, 53
2, 385350, Note_on_c, 0, 65, 0
2, 385350, Note_on_c, 0, 69, 0
2, 385380, Note_on_c, 0, 57, 71
2, 385410, Note_on_c, 0, 57, 0
2, 385440, Note_on_c, 0, 67, 53
2, 385440, Note_on_c, 0, 64, 53
2, 385440, Note_on_c, 0, 57, 71
2, 385470, Note_on_c, 0, 57, 0
2, 385470, Note_on_c, 0, 64, 0
2, 385470, Note_on_c, 0, 67, 0
2, 385560, Note_on_c, 0, 65, 53
2, 385560, Note_on_c, 0, 62, 53
2, 385590, Note_on_c, 0, 62, 0
2, 385590, Note_on_c, 0, 65, 0
2, 385680, Note_on_c, 0, 67, 53
2, 385680, Note_on_c, 0, 64, 53
2, 385710, Note_on_c, 0, 64, 0
2, 385710, Note_on_c, 0, 67, 0
2, 385800, Note_on_c, 0, 69, 53
2, 385800, Note_on_c, 0, 62, 53
2, 385800, Note_on_c, 0, 65, 53
2, 385830, Note_on_c, 0, 65, 0
2, 385830, Note_on_c, 0, 62, 0
2, 385830, Note_on_c, 0, 69, 0
2, 385920, Note_on_c, 0, 69, 53
2, 385920, Note_on_c, 0, 64, 53
2, 385920, Note_on_c, 0, 61, 53
2, 385950, Note_on_c, 0, 61, 0
2, 385950, Note_on_c, 0, 64, 0
2, 385950, Note_on_c, 0, 69, 0
2, 386040, Note_on_c, 0, 69, 53
2, 386040, Note_on_c, 0, 65, 53
2, 386040, Note_on_c, 0, 62, 53
2, 386070, Note_on_c, 0, 62, 0
2, 386070, Note_on_c, 0, 65, 0
2, 386070, Note_on_c, 0, 69, 0
2, 386160, Note_on_c, 0, 69, 53
2, 386160, Note_on_c, 0, 67, 53
2, 386160, Note_on_c, 0, 64, 53
2, 386190, Note_on_c, 0, 64, 0
2, 386190, Note_on_c, 0, 67, 0
2, 386190, Note_on_c, 0, 69, 0
2, 386280, Note_on_c, 0, 69, 53
2, 386280, Note_on_c, 0, 65, 53
2, 386280, Note_on_c, 0, 62, 53
2, 386310, Note_on_c, 0, 62, 0
2, 386310, Note_on_c, 0, 65, 0
2, 386310, Note_on_c, 0, 69, 0
2, 386400, Note_on_c, 0, 69, 53
2, 386400, Note_on_c, 0, 64, 53
2, 386400, Note_on_c, 0, 61, 53
2, 386430, Note_on_c, 0, 61, 0
2, 386430, Note_on_c, 0, 64, 0
2, 386430, Note_on_c, 0, 69, 0
2, 386520, Note_on_c, 0, 81, 53
2, 386520, Note_on_c, 0, 62, 53
2, 386550, Note_on_c, 0, 62, 0
2, 386550, Note_on_c, 0, 81, 0
2, 386640, Note_on_c, 0, 86, 71
2, 386640, Note_on_c, 0, 69, 53
2, 386640, Note_on_c, 0, 65, 53
2, 386670, Note_on_c, 0, 65, 0
2, 386670, Note_on_c, 0, 69, 0
2, 386670, Note_on_c, 0, 86, 0
2, 386760, Note_on_c, 0, 67, 53
2, 386760, Note_on_c, 0, 64, 53
2, 386790, Note_on_c, 0, 64, 0
2, 386790, Note_on_c, 0, 67, 0
2, 386820, Note_on_c, 0, 74, 71
2, 386850, Note_on_c, 0, 74, 0
2, 386880, Note_on_c, 0, 74, 71
2, 386880, Note_on_c, 0, 65, 53
2, 386880, Note_on_c, 0, 62, 53
2, 386910, Note_on_c, 0, 62, 0
2, 386910, Note_on_c, 0, 65, 0
2, 386910, Note_on_c, 0, 74, 0
2, 387000, Note_on_c, 0, 81, 53
2, 387000, Note_on_c, 0, 76, 53
2, 387000, Note_on_c, 0, 64, 53
2, 387000, Note_on_c, 0, 60, 53
2, 387030, Note_on_c, 0, 60, 0
2, 387030, Note_on_c, 0, 81, 0
2, 387030, Note_on_c, 0, 76, 0
2, 387030, Note_on_c, 0, 64, 0
2, 387120, Note_on_c, 0, 83, 53
2, 387120, Note_on_c, 0, 74, 53
2, 387120, Note_on_c, 0, 64, 53
2, 387120, Note_on_c, 0, 59, 53
2, 387150, Note_on_c, 0, 59, 0
2, 387150, Note_on_c, 0, 83, 0
2, 387150, Note_on_c, 0, 74, 0
2, 387150, Note_on_c, 0, 64, 0
2, 387240, Note_on_c, 0, 84, 53
2, 387240, Note_on_c, 0, 72, 53
2, 387240, Note_on_c, 0, 64, 53
2, 387240, Note_on_c, 0, 57, 53
2, 387270, Note_on_c, 0, 57, 0
2, 387270, Note_on_c, 0, 84, 0
2, 387270, Note_on_c, 0, 72, 0
2, 387270, Note_on_c, 0, 64, 0
2, 387360, Note_on_c, 0, 83, 53
2, 387360, Note_on_c, 0, 71, 53
2, 387360, Note_on_c, 0, 64, 53
2, 387360, Note_on_c, 0, 56, 53
2, 387390, Note_on_c, 0, 56, 0
2, 387390, Note_on_c, 0, 83, 0
2, 387390, Note_on_c, 0, 71, 0
2, 387390, Note_on_c, 0, 64, 0
2, 387480, Note_on_c, 0, 84, 53
2, 387480, Note_on_c, 0, 76, 53
2, 387480, Note_on_c, 0, 69, 53
2, 387480, Note_on_c, 0, 57, 53
2, 387510, Note_on_c, 0, 57, 0
2, 387510, Note_on_c, 0, 84, 0
2, 387510, Note_on_c, 0, 76, 0
2, 387510, Note_on_c, 0, 69, 0
2, 387600, Note_on_c, 0, 86, 53
2, 387600, Note_on_c, 0, 76, 53
2, 387600, Note_on_c, 0, 68, 53
2, 387600, Note_on_c, 0, 59, 53
2, 387630, Note_on_c, 0, 59, 0
2, 387630, Note_on_c, 0, 86, 0
2, 387630, Note_on_c, 0, 76, 0
2, 387630, Note_on_c, 0, 68, 0
2, 387720, Note_on_c, 0, 84, 53
2, 387720, Note_on_c, 0, 76, 53
2, 387720, Note_on_c, 0, 69, 53
2, 387720, Note_on_c, 0, 57, 53
2, 387750, Note_on_c, 0, 57, 0
2, 387750, Note_on_c, 0, 84, 0
2, 387750, Note_on_c, 0, 76, 0
2, 387750, Note_on_c, 0, 69, 0
2, 387840, Note_on_c, 0, 83, 53
2, 387840, Note_on_c, 0, 74, 53
2, 387840, Note_on_c, 0, 64, 53
2, 387840, Note_on_c, 0, 56, 53
2, 387870, Note_on_c, 0, 56, 0
2, 387870, Note_on_c, 0, 83, 0
2, 387870, Note_on_c, 0, 74, 0
2, 387870, Note_on_c, 0, 64, 0
2, 387960, Note_on_c, 0, 81, 53
2, 387960, Note_on_c, 0, 72, 53
2, 387960, Note_on_c, 0, 64, 53
2, 387960, Note_on_c, 0, 57, 53
2, 387990, Note_on_c, 0, 57, 0
2, 387990, Note_on_c, 0, 81, 0
2, 387990, Note_on_c, 0, 72, 0
2, 387990, Note_on_c, 0, 64, 0
2, 388080, Note_on_c, 0, 79, 53
2, 388080, Note_on_c, 0, 82, 53
2, 388080, Note_on_c, 0, 73, 53
2, 388080, Note_on_c, 0, 57, 53
2, 388110, Note_on_c, 0, 57, 0
2, 388110, Note_on_c, 0, 79, 0
2, 388110, Note_on_c, 0, 82, 0
2, 388110, Note_on_c, 0, 73, 0
2, 388200, Note_on_c, 0, 77, 53
2, 388200, Note_on_c, 0, 81, 53
2, 388200, Note_on_c, 0, 74, 53
2, 388230, Note_on_c, 0, 74, 0
2, 388230, Note_on_c, 0, 81, 0
2, 388230, Note_on_c, 0, 77, 0
2, 388260, Note_on_c, 0, 45, 53
2, 388290, Note_on_c, 0, 45, 0
2, 388320, Note_on_c, 0, 76, 53
2, 388320, Note_on_c, 0, 79, 53
2, 388320, Note_on_c, 0, 67, 53
2, 388320, Note_on_c, 0, 45, 53
2, 388350, Note_on_c, 0, 45, 0
2, 388350, Note_on_c, 0, 76, 0
2, 388350, Note_on_c, 0, 79, 0
2, 388350, Note_on_c, 0, 67, 0
2, 388440, Note_on_c, 0, 74, 53
2, 388440, Note_on_c, 0, 77, 53
2, 388440, Note_on_c, 0, 65, 53
2, 388440, Note_on_c, 0, 50, 53
2, 388470, Note_on_c, 0, 50, 0
2, 388470, Note_on_c, 0, 74, 0
2, 388470, Note_on_c, 0, 77, 0
2, 388470, Note_on_c, 0, 65, 0
2, 388560, Note_on_c, 0, 73, 53
2, 388560, Note_on_c, 0, 76, 53
2, 388560, Note_on_c, 0, 67, 53
2, 388560, Note_on_c, 0, 57, 53
2, 388560, Note_on_c, 0, 52, 53
2, 388590, Note_on_c, 0, 52, 0
2, 388590, Note_on_c, 0, 67, 0
2, 388590, Note_on_c, 0, 73, 0
2, 388590, Note_on_c, 0, 76, 0
2, 388590, Note_on_c, 0, 57, 0
2, 388680, Note_on_c, 0, 74, 53
2, 388680, Note_on_c, 0, 69, 53
2, 388680, Note_on_c, 0, 57, 53
2, 388680, Note_on_c, 0, 53, 53
2, 388710, Note_on_c, 0, 53, 0
2, 388710, Note_on_c, 0, 74, 0
2, 388710, Note_on_c, 0, 69, 0
2, 388710, Note_on_c, 0, 57, 0
2, 388800, Note_on_c, 0, 69, 53
2, 388800, Note_on_c, 0, 73, 53
2, 388800, Note_on_c, 0, 67, 53
2, 388800, Note_on_c, 0, 57, 53
2, 388800, Note_on_c, 0, 52, 53
2, 388830, Note_on_c, 0, 52, 0
2, 388830, Note_on_c, 0, 67, 0
2, 388830, Note_on_c, 0, 69, 0
2, 388830, Note_on_c, 0, 73, 0
2, 388830, Note_on_c, 0, 57, 0
2, 388920, Note_on_c, 0, 69, 53
2, 388920, Note_on_c, 0, 74, 53
2, 388920, Note_on_c, 0, 65, 53
2, 388920, Note_on_c, 0, 57, 53
2, 388920, Note_on_c, 0, 53, 53
2, 388950, Note_on_c, 0, 53, 0
2, 388950, Note_on_c, 0, 65, 0
2, 388950, Note_on_c, 0, 69, 0
2, 388950, Note_on_c, 0, 74, 0
2, 388950, Note_on_c, 0, 57, 0
2, 389040, Note_on_c, 0, 69, 53
2, 389040, Note_on_c, 0, 76, 53
2, 389040, Note_on_c, 0, 64, 53
2, 389040, Note_on_c, 0, 57, 53
2, 389040, Note_on_c, 0, 55, 53
2, 389070, Note_on_c, 0, 55, 0
2, 389070, Note_on_c, 0, 64, 0
2, 389070, Note_on_c, 0, 69, 0
2, 389070, Note_on_c, 0, 76, 0
2, 389070, Note_on_c, 0, 57, 0
2, 389160, Note_on_c, 0, 69, 53
2, 389160, Note_on_c, 0, 74, 53
2, 389160, Note_on_c, 0, 62, 53
2, 389160, Note_on_c, 0, 57, 53
2, 389160, Note_on_c, 0, 53, 53
2, 389190, Note_on_c, 0, 53, 0
2, 389190, Note_on_c, 0, 62, 0
2, 389190, Note_on_c, 0, 69, 0
2, 389190, Note_on_c, 0, 74, 0
2, 389190, Note_on_c, 0, 57, 0
2, 389280, Note_on_c, 0, 69, 53
2, 389280, Note_on_c, 0, 73, 53
2, 389280, Note_on_c, 0, 67, 53
2, 389280, Note_on_c, 0, 57, 53
2, 389280, Note_on_c, 0, 52, 53
2, 389310, Note_on_c, 0, 52, 0
2, 389310, Note_on_c, 0, 67, 0
2, 389310, Note_on_c, 0, 69, 0
2, 389310, Note_on_c, 0, 73, 0
2, 389310, Note_on_c, 0, 57, 0
2, 389400, Note_on_c, 0, 69, 53
2, 389400, Note_on_c, 0, 74, 53
2, 389400, Note_on_c, 0, 65, 53
2, 389400, Note_on_c, 0, 57, 53
2, 389400, Note_on_c, 0, 50, 53
2, 389430, Note_on_c, 0, 50, 0
2, 389430, Note_on_c, 0, 65, 0
2, 389430, Note_on_c, 0, 69, 0
2, 389430, Note_on_c, 0, 74, 0
2, 389430, Note_on_c, 0, 57, 0
2, 389520, Note_on_c, 0, 81, 53
2, 389520, Note_on_c, 0, 69, 53
2, 389520, Note_on_c, 0, 57, 53
2, 389520, Note_on_c, 0, 53, 53
2, 389550, Note_on_c, 0, 53, 0
2, 389550, Note_on_c, 0, 81, 0
2, 389550, Note_on_c, 0, 69, 0
2, 389550, Note_on_c, 0, 57, 0
2, 389640, Note_on_c, 0, 79, 53
2, 389640, Note_on_c, 0, 81, 53
2, 389640, Note_on_c, 0, 69, 53
2, 389640, Note_on_c, 0, 57, 53
2, 389640, Note_on_c, 0, 52, 53
2, 389670, Note_on_c, 0, 52, 0
2, 389670, Note_on_c, 0, 69, 0
2, 389670, Note_on_c, 0, 79, 0
2, 389670, Note_on_c, 0, 81, 0
2, 389670, Note_on_c, 0, 57, 0
2, 389760, Note_on_c, 0, 77, 53
2, 389760, Note_on_c, 0, 81, 53
2, 389760, Note_on_c, 0, 69, 53
2, 389760, Note_on_c, 0, 57, 53
2, 389760, Note_on_c, 0, 50, 53
2, 389790, Note_on_c, 0, 50, 0
2, 389790, Note_on_c, 0, 69, 0
2, 389790, Note_on_c, 0, 77, 0
2, 389790, Note_on_c, 0, 81, 0
2, 389790, Note_on_c, 0, 57, 0
2, 389880, Note_on_c, 0, 76, 53
2, 389880, Note_on_c, 0, 81, 53
2, 389880, Note_on_c, 0, 69, 53
2, 389880, Note_on_c, 0, 52, 53
2, 389880, Note_on_c, 0, 48, 53
2, 389910, Note_on_c, 0, 48, 0
2, 389910, Note_on_c, 0, 69, 0
2, 389910, Note_on_c, 0, 76, 0
2, 389910, Note_on_c, 0, 81, 0
2, 389910, Note_on_c, 0, 52, 0
2, 390000, Note_on_c, 0, 80, 53
2, 390000, Note_on_c, 0, 88, 53
2, 390000, Note_on_c, 0, 76, 53
2, 390000, Note_on_c, 0, 50, 53
2, 390000, Note_on_c, 0, 47, 53
2, 390030, Note_on_c, 0, 47, 0
2, 390030, Note_on_c, 0, 76, 0
2, 390030, Note_on_c, 0, 80, 0
2, 390030, Note_on_c, 0, 88, 0
2, 390030, Note_on_c, 0, 50, 0
2, 390120, Note_on_c, 0, 81, 53
2, 390120, Note_on_c, 0, 88, 53
2, 390120, Note_on_c, 0, 76, 53
2, 390120, Note_on_c, 0, 48, 53
2, 390120, Note_on_c, 0, 45, 53
2, 390150, Note_on_c, 0, 45, 0
2, 390150, Note_on_c, 0, 76, 0
2, 390150, Note_on_c, 0, 81, 0
2, 390150, Note_on_c, 0, 88, 0
2, 390150, Note_on_c, 0, 48, 0
2, 390240, Note_on_c, 0, 83, 53
2, 390240, Note_on_c, 0, 88, 53
2, 390240, Note_on_c, 0, 76, 53
2, 390240, Note_on_c, 0, 50, 53
2, 390240, Note_on_c, 0, 44, 53
2, 390270, Note_on_c, 0, 44, 0
2, 390270, Note_on_c, 0, 76, 0
2, 390270, Note_on_c, 0, 83, 0
2, 390270, Note_on_c, 0, 88, 0
2, 390270, Note_on_c, 0, 50, 0
2, 390360, Note_on_c, 0, 84, 53
2, 390360, Note_on_c, 0, 88, 53
2, 390360, Note_on_c, 0, 76, 53
2, 390360, Note_on_c, 0, 48, 53
2, 390360, Note_on_c, 0, 45, 53
2, 390390, Note_on_c, 0, 45, 0
2, 390390, Note_on_c, 0, 76, 0
2, 390390, Note_on_c, 0, 84, 0
2, 390390, Note_on_c, 0, 88, 0
2, 390390, Note_on_c, 0, 48, 0
2, 390480, Note_on_c, 0, 86, 53
2, 390480, Note_on_c, 0, 88, 53
2, 390480, Note_on_c, 0, 76, 53
2, 390480, Note_on_c, 0, 47, 53
2, 390510, Note_on_c, 0, 47, 0
2, 390510, Note_on_c, 0, 86, 0
2, 390510, Note_on_c, 0, 88, 0
2, 390510, Note_on_c, 0, 76, 0
2, 390600, Note_on_c, 0, 84, 53
2, 390600, Note_on_c, 0, 88, 53
2, 390600, Note_on_c, 0, 76, 53
2, 390600, Note_on_c, 0, 45, 53
2, 390630, Note_on_c, 0, 45, 0
2, 390630, Note_on_c, 0, 84, 0
2, 390630, Note_on_c, 0, 88, 0
2, 390630, Note_on_c, 0, 76, 0
2, 390720, Note_on_c, 0, 83, 53
2, 390720, Note_on_c, 0, 88, 53
2, 390720, Note_on_c, 0, 76, 53
2, 390720, Note_on_c, 0, 62, 53
2, 390720, Note_on_c, 0, 56, 53
2, 390750, Note_on_c, 0, 56, 0
2, 390750, Note_on_c, 0, 76, 0
2, 390750, Note_on_c, 0, 83, 0
2, 390750, Note_on_c, 0, 88, 0
2, 390750, Note_on_c, 0, 62, 0
2, 390840, Note_on_c, 0, 81, 53
2, 390840, Note_on_c, 0, 69, 53
2, 390840, Note_on_c, 0, 60, 53
2, 390840, Note_on_c, 0, 57, 53
2, 390870, Note_on_c, 0, 57, 0
2, 390870, Note_on_c, 0, 81, 0
2, 390870, Note_on_c, 0, 69, 0
2, 390870, Note_on_c, 0, 60, 0
2, 390960, Note_on_c, 0, 73, 53
2, 390960, Note_on_c, 0, 81, 53
2, 390960, Note_on_c, 0, 69, 53
2, 390960, Note_on_c, 0, 58, 53
2, 390960, Note_on_c, 0, 55, 53
2, 390990, Note_on_c, 0, 55, 0
2, 390990, Note_on_c, 0, 69, 0
2, 390990, Note_on_c, 0, 73, 0
2, 390990, Note_on_c, 0, 81, 0
2, 390990, Note_on_c, 0, 58, 0
2, 391080, Note_on_c, 0, 74, 53
2, 391080, Note_on_c, 0, 81, 53
2, 391080, Note_on_c, 0, 69, 53
2, 391080, Note_on_c, 0, 57, 53
2, 391080, Note_on_c, 0, 53, 53
2, 391110, Note_on_c, 0, 53, 0
2, 391110, Note_on_c, 0, 69, 0
2, 391110, Note_on_c, 0, 74, 0
2, 391110, Note_on_c, 0, 81, 0
2, 391110, Note_on_c, 0, 57, 0
2, 391200, Note_on_c, 0, 76, 53
2, 391200, Note_on_c, 0, 81, 53
2, 391200, Note_on_c, 0, 69, 53
2, 391200, Note_on_c, 0, 55, 53
2, 391200, Note_on_c, 0, 52, 53
2, 391230, Note_on_c, 0, 52, 0
2, 391230, Note_on_c, 0, 69, 0
2, 391230, Note_on_c, 0, 76, 0
2, 391230, Note_on_c, 0, 81, 0
2, 391230, Note_on_c, 0, 55, 0
2, 391320, Note_on_c, 0, 74, 53
2, 391320, Note_on_c, 0, 81, 53
2, 391320, Note_on_c, 0, 69, 53
2, 391320, Note_on_c, 0, 57, 53
2, 391320, Note_on_c, 0, 53, 53
2, 391350, Note_on_c, 0, 53, 0
2, 391350, Note_on_c, 0, 69, 0
2, 391350, Note_on_c, 0, 74, 0
2, 391350, Note_on_c, 0, 81, 0
2, 391350, Note_on_c, 0, 57, 0
2, 391440, Note_on_c, 0, 81, 53
2, 391440, Note_on_c, 0, 69, 53
2, 391440, Note_on_c, 0, 55, 53
2, 391440, Note_on_c, 0, 52, 53
2, 391470, Note_on_c, 0, 52, 0
2, 391470, Note_on_c, 0, 81, 0
2, 391470, Note_on_c, 0, 69, 0
2, 391470, Note_on_c, 0, 55, 0
2, 391560, Note_on_c, 0, 81, 53
2, 391560, Note_on_c, 0, 69, 53
2, 391560, Note_on_c, 0, 53, 53
2, 391560, Note_on_c, 0, 50, 53
2, 391590, Note_on_c, 0, 50, 0
2, 391590, Note_on_c, 0, 81, 0
2, 391590, Note_on_c, 0, 69, 0
2, 391590, Note_on_c, 0, 53, 0
2, 391680, Note_on_c, 0, 82, 53
2, 391680, Note_on_c, 0, 69, 53
2, 391680, Note_on_c, 0, 49, 53
2, 391680, Note_on_c, 0, 52, 53
2, 391680, Note_on_c, 0, 45, 53
2, 391710, Note_on_c, 0, 45, 0
2, 391710, Note_on_c, 0, 49, 0
2, 391710, Note_on_c, 0, 82, 0
2, 391710, Note_on_c, 0, 69, 0
2, 391710, Note_on_c, 0, 52, 0
2, 391800, Note_on_c, 0, 81, 53
2, 391800, Note_on_c, 0, 69, 53
2, 391800, Note_on_c, 0, 50, 53
2, 391800, Note_on_c, 0, 53, 53
2, 391800, Note_on_c, 0, 45, 53
2, 391830, Note_on_c, 0, 45, 0
2, 391830, Note_on_c, 0, 50, 0
2, 391830, Note_on_c, 0, 81, 0
2, 391830, Note_on_c, 0, 69, 0
2, 391830, Note_on_c, 0, 53, 0
2, 391920, Note_on_c, 0, 79, 53
2, 391920, Note_on_c, 0, 69, 53
2, 391920, Note_on_c, 0, 52, 53
2, 391920, Note_on_c, 0, 55, 53
2, 391920, Note_on_c, 0, 45, 53
2, 391950, Note_on_c, 0, 45, 0
2, 391950, Note_on_c, 0, 52, 0
2, 391950, Note_on_c, 0, 79, 0
2, 391950, Note_on_c, 0, 69, 0
2, 391950, Note_on_c, 0, 55, 0
2, 392040, Note_on_c, 0, 77, 53
2, 392040, Note_on_c, 0, 69, 53
2, 392040, Note_on_c, 0, 50, 53
2, 392040, Note_on_c, 0, 57, 53
2, 392040, Note_on_c, 0, 45, 53
2, 392070, Note_on_c, 0, 45, 0
2, 392070, Note_on_c, 0, 50, 0
2, 392070, Note_on_c, 0, 77, 0
2, 392070, Note_on_c, 0, 69, 0
2, 392070, Note_on_c, 0, 57, 0
2, 392160, Note_on_c, 0, 76, 53
2, 392160, Note_on_c, 0, 69, 53
2, 392160, Note_on_c, 0, 49, 53
2, 392160, Note_on_c, 0, 57, 53
2, 392160, Note_on_c, 0, 45, 53
2, 392190, Note_on_c, 0, 45, 0
2, 392190, Note_on_c, 0, 49, 0
2, 392190, Note_on_c, 0, 76, 0
2, 392190, Note_on_c, 0, 69, 0
2, 392190, Note_on_c, 0, 57, 0
2, 392280, Note_on_c, 0, 74, 53
2, 392280, Note_on_c, 0, 69, 53
2, 392280, Note_on_c, 0, 50, 53
2, 392280, Note_on_c, 0, 57, 53
2, 392280, Note_on_c, 0, 45, 53
2, 392310, Note_on_c, 0, 45, 0
2, 392310, Note_on_c, 0, 50, 0
2, 392310, Note_on_c, 0, 74, 0
2, 392310, Note_on_c, 0, 69, 0
2, 392310, Note_on_c, 0, 57, 0
2, 392400, Note_on_c, 0, 74, 53
2, 392400, Note_on_c, 0, 77, 53
2, 392400, Note_on_c, 0, 68, 53
2, 392400, Note_on_c, 0, 47, 53
2, 392400, Note_on_c, 0, 45, 53
2, 392430, Note_on_c, 0, 45, 0
2, 392430, Note_on_c, 0, 68, 0
2, 392430, Note_on_c, 0, 74, 0
2, 392430, Note_on_c, 0, 77, 0
2, 392430, Note_on_c, 0, 47, 0
2, 392520, Note_on_c, 0, 72, 53
2, 392520, Note_on_c, 0, 76, 53
2, 392520, Note_on_c, 0, 69, 53
2, 392520, Note_on_c, 0, 48, 53
2, 392520, Note_on_c, 0, 45, 53
2, 392550, Note_on_c, 0, 45, 0
2, 392550, Note_on_c, 0, 69, 0
2, 392550, Note_on_c, 0, 72, 0
2, 392550, Note_on_c, 0, 76, 0
2, 392550, Note_on_c, 0, 48, 0
2, 392640, Note_on_c, 0, 71, 53
2, 392640, Note_on_c, 0, 74, 53
2, 392640, Note_on_c, 0, 68, 53
2, 392640, Note_on_c, 0, 53, 53
2, 392640, Note_on_c, 0, 45, 53
2, 392670, Note_on_c, 0, 45, 0
2, 392670, Note_on_c, 0, 68, 0
2, 392670, Note_on_c, 0, 71, 0
2, 392670, Note_on_c, 0, 74, 0
2, 392670, Note_on_c, 0, 53, 0
2, 392760, Note_on_c, 0, 69, 53
2, 392760, Note_on_c, 0, 72, 53
2, 392760, Note_on_c, 0, 60, 53
2, 392760, Note_on_c, 0, 52, 53
2, 392760, Note_on_c, 0, 45, 53
2, 392790, Note_on_c, 0, 45, 0
2, 392790, Note_on_c, 0, 60, 0
2, 392790, Note_on_c, 0, 69, 0
2, 392790, Note_on_c, 0, 72, 0
2, 392790, Note_on_c, 0, 52, 0
2, 392880, Note_on_c, 0, 68, 53
2, 392880, Note_on_c, 0, 71, 53
2, 392880, Note_on_c, 0, 62, 53
2, 392880, Note_on_c, 0, 53, 53
2, 392880, Note_on_c, 0, 45, 53
2, 392910, Note_on_c, 0, 45, 0
2, 392910, Note_on_c, 0, 62, 0
2, 392910, Note_on_c, 0, 68, 0
2, 392910, Note_on_c, 0, 71, 0
2, 392910, Note_on_c, 0, 53, 0
2, 393000, Note_on_c, 0, 64, 53
2, 393000, Note_on_c, 0, 69, 53
2, 393000, Note_on_c, 0, 60, 53
2, 393000, Note_on_c, 0, 52, 53
2, 393000, Note_on_c, 0, 45, 53
2, 393030, Note_on_c, 0, 45, 0
2, 393030, Note_on_c, 0, 60, 0
2, 393030, Note_on_c, 0, 64, 0
2, 393030, Note_on_c, 0, 69, 0
2, 393030, Note_on_c, 0, 52, 0
2, 393120, Note_on_c, 0, 65, 53
2, 393120, Note_on_c, 0, 68, 53
2, 393120, Note_on_c, 0, 59, 53
2, 393120, Note_on_c, 0, 50, 53
2, 393120, Note_on_c, 0, 45, 53
2, 393150, Note_on_c, 0, 45, 0
2, 393150, Note_on_c, 0, 59, 0
2, 393150, Note_on_c, 0, 65, 0
2, 393150, Note_on_c, 0, 68, 0
2, 393150, Note_on_c, 0, 50, 0
2, 393240, Note_on_c, 0, 64, 53
2, 393240, Note_on_c, 0, 69, 53
2, 393240, Note_on_c, 0, 60, 53
2, 393240, Note_on_c, 0, 52, 53
2, 393240, Note_on_c, 0, 45, 53
2, 393270, Note_on_c, 0, 45, 0
2, 393270, Note_on_c, 0, 60, 0
2, 393270, Note_on_c, 0, 64, 0
2, 393270, Note_on_c, 0, 69, 0
2, 393270, Note_on_c, 0, 52, 0
2, 393360, Note_on_c, 0, 71, 53
2, 393360, Note_on_c, 0, 62, 53
2, 393360, Note_on_c, 0, 53, 53
2, 393360, Note_on_c, 0, 56, 53
2, 393360, Note_on_c, 0, 45, 53
2, 393390, Note_on_c, 0, 45, 0
2, 393390, Note_on_c, 0, 53, 0
2, 393390, Note_on_c, 0, 71, 0
2, 393390, Note_on_c, 0, 62, 0
2, 393390, Note_on_c, 0, 56, 0
2, 393480, Note_on_c, 0, 64, 53
2, 393480, Note_on_c, 0, 69, 53
2, 393480, Note_on_c, 0, 60, 53
2, 393480, Note_on_c, 0, 52, 53
2, 393480, Note_on_c, 0, 45, 53
2, 393510, Note_on_c, 0, 45, 0
2, 393510, Note_on_c, 0, 60, 0
2, 393510, Note_on_c, 0, 64, 0
2, 393510, Note_on_c, 0, 69, 0
2, 393510, Note_on_c, 0, 52, 0
2, 393600, Note_on_c, 0, 62, 53
2, 393600, Note_on_c, 0, 68, 53
2, 393600, Note_on_c, 0, 59, 53
2, 393600, Note_on_c, 0, 53, 53
2, 393600, Note_on_c, 0, 45, 53
2, 393630, Note_on_c, 0, 45, 0
2, 393630, Note_on_c, 0, 59, 0
2, 393630, Note_on_c, 0, 62, 0
2, 393630, Note_on_c, 0, 68, 0
2, 393630, Note_on_c, 0, 53, 0
2, 393720, Note_on_c, 0, 69, 53
2, 393720, Note_on_c, 0, 60, 53
2, 393720, Note_on_c, 0, 52, 53
2, 393720, Note_on_c, 0, 57, 53
2, 393720, Note_on_c, 0, 45, 53
2, 393750, Note_on_c, 0, 45, 0
2, 393750, Note_on_c, 0, 52, 0
2, 393750, Note_on_c, 0, 69, 0
2, 393750, Note_on_c, 0, 60, 0
2, 393750, Note_on_c, 0, 57, 0
2, 393840, Note_on_c, 0, 70, 53
2, 393840, Note_on_c, 0, 73, 53
2, 393840, Note_on_c, 0, 64, 53
2, 393840, Note_on_c, 0, 55, 53
2, 393840, Note_on_c, 0, 45, 53
2, 393870, Note_on_c, 0, 45, 0
2, 393870, Note_on_c, 0, 64, 0
2, 393870, Note_on_c, 0, 70, 0
2, 393870, Note_on_c, 0, 73, 0
2, 393870, Note_on_c, 0, 55, 0
2, 393960, Note_on_c, 0, 74, 53
2, 393960, Note_on_c, 0, 69, 53
2, 393960, Note_on_c, 0, 53, 53
2, 393960, Note_on_c, 0, 45, 53
2, 393990, Note_on_c, 0, 45, 0
2, 393990, Note_on_c, 0, 74, 0
2, 393990, Note_on_c, 0, 69, 0
2, 393990, Note_on_c, 0, 53, 0
2, 394080, Note_on_c, 0, 76, 53
2, 394080, Note_on_c, 0, 67, 53
2, 394080, Note_on_c, 0, 52, 53
2, 394080, Note_on_c, 0, 45, 53
2, 394110, Note_on_c, 0, 45, 0
2, 394110, Note_on_c, 0, 76, 0
2, 394110, Note_on_c, 0, 67, 0
2, 394110, Note_on_c, 0, 52, 0
2, 394200, Note_on_c, 0, 77, 53
2, 394200, Note_on_c, 0, 65, 53
2, 394200, Note_on_c, 0, 50, 53
2, 394200, Note_on_c, 0, 57, 53
2, 394200, Note_on_c, 0, 45, 53
2, 394230, Note_on_c, 0, 45, 0
2, 394230, Note_on_c, 0, 50, 0
2, 394230, Note_on_c, 0, 77, 0
2, 394230, Note_on_c, 0, 65, 0
2, 394230, Note_on_c, 0, 57, 0
2, 394320, Note_on_c, 0, 76, 53
2, 394320, Note_on_c, 0, 79, 53
2, 394320, Note_on_c, 0, 67, 53
2, 394320, Note_on_c, 0, 52, 53
2, 394320, Note_on_c, 0, 55, 53
2, 394320, Note_on_c, 0, 45, 53
2, 394350, Note_on_c, 0, 45, 0
2, 394350, Note_on_c, 0, 79, 0
2, 394350, Note_on_c, 0, 67, 0
2, 394350, Note_on_c, 0, 76, 0
2, 394350, Note_on_c, 0, 55, 0
2, 394350, Note_on_c, 0, 52, 0
2, 394440, Note_on_c, 0, 74, 53
2, 394440, Note_on_c, 0, 81, 53
2, 394440, Note_on_c, 0, 69, 53
2, 394440, Note_on_c, 0, 53, 53
2, 394440, Note_on_c, 0, 45, 53
2, 394470, Note_on_c, 0, 45, 0
2, 394470, Note_on_c, 0, 69, 0
2, 394470, Note_on_c, 0, 74, 0
2, 394470, Note_on_c, 0, 81, 0
2, 394470, Note_on_c, 0, 53, 0
2, 394560, Note_on_c, 0, 73, 53
2, 394560, Note_on_c, 0, 82, 53
2, 394560, Note_on_c, 0, 70, 53
2, 394560, Note_on_c, 0, 52, 53
2, 394560, Note_on_c, 0, 55, 53
2, 394560, Note_on_c, 0, 45, 53
2, 394590, Note_on_c, 0, 45, 0
2, 394590, Note_on_c, 0, 82, 0
2, 394590, Note_on_c, 0, 70, 0
2, 394590, Note_on_c, 0, 73, 0
2, 394590, Note_on_c, 0, 55, 0
2, 394590, Note_on_c, 0, 52, 0
2, 394680, Note_on_c, 0, 74, 53
2, 394680, Note_on_c, 0, 81, 53
2, 394680, Note_on_c, 0, 69, 53
2, 394680, Note_on_c, 0, 57, 53
2, 394680, Note_on_c, 0, 53, 53
2, 394710, Note_on_c, 0, 53, 0
2, 394710, Note_on_c, 0, 69, 0
2, 394710, Note_on_c, 0, 74, 0
2, 394710, Note_on_c, 0, 81, 0
2, 394710, Note_on_c, 0, 57, 0
2, 394800, Note_on_c, 0, 76, 53
2, 394800, Note_on_c, 0, 79, 53
2, 394800, Note_on_c, 0, 67, 53
2, 394800, Note_on_c, 0, 58, 53
2, 394800, Note_on_c, 0, 55, 53
2, 394830, Note_on_c, 0, 55, 0
2, 394830, Note_on_c, 0, 67, 0
2, 394830, Note_on_c, 0, 76, 0
2, 394830, Note_on_c, 0, 79, 0
2, 394830, Note_on_c, 0, 58, 0
2, 394920, Note_on_c, 0, 74, 53
2, 394920, Note_on_c, 0, 77, 53
2, 394920, Note_on_c, 0, 65, 53
2, 394920, Note_on_c, 0, 57, 53
2, 394920, Note_on_c, 0, 45, 53
2, 394950, Note_on_c, 0, 45, 0
2, 394950, Note_on_c, 0, 65, 0
2, 394950, Note_on_c, 0, 74, 0
2, 394950, Note_on_c, 0, 77, 0
2, 394950, Note_on_c, 0, 57, 0
2, 395040, Note_on_c, 0, 73, 53
2, 395040, Note_on_c, 0, 76, 53
2, 395040, Note_on_c, 0, 64, 53
2, 395040, Note_on_c, 0, 58, 53
2, 395040, Note_on_c, 0, 55, 53
2, 395070, Note_on_c, 0, 55, 0
2, 395070, Note_on_c, 0, 64, 0
2, 395070, Note_on_c, 0, 73, 0
2, 395070, Note_on_c, 0, 76, 0
2, 395070, Note_on_c, 0, 58, 0
2, 395160, Note_on_c, 0, 74, 53
2, 395160, Note_on_c, 0, 62, 53
2, 395160, Note_on_c, 0, 57, 53
2, 395160, Note_on_c, 0, 53, 53
2, 395190, Note_on_c, 0, 53, 0
2, 395190, Note_on_c, 0, 74, 0
2, 395190, Note_on_c, 0, 62, 0
2, 395190, Note_on_c, 0, 57, 0
2, 395280, Note_on_c, 0, 73, 54
2, 395280, Note_on_c, 0, 64, 54
2, 395280, Note_on_c, 0, 55, 54
2, 395280, Note_on_c, 0, 58, 54
2, 395280, Note_on_c, 0, 45, 54
2, 395310, Note_on_c, 0, 45, 0
2, 395310, Note_on_c, 0, 55, 0
2, 395310, Note_on_c, 0, 73, 0
2, 395310, Note_on_c, 0, 64, 0
2, 395310, Note_on_c, 0, 58, 0
2, 395400, Note_on_c, 0, 74, 56
2, 395400, Note_on_c, 0, 65, 56
2, 395400, Note_on_c, 0, 57, 56
2, 395400, Note_on_c, 0, 53, 56
2, 395430, Note_on_c, 0, 53, 0
2, 395430, Note_on_c, 0, 74, 0
2, 395430, Note_on_c, 0, 65, 0
2, 395430, Note_on_c, 0, 57, 0
2, 395520, Note_on_c, 0, 76, 57
2, 395520, Note_on_c, 0, 67, 57
2, 395520, Note_on_c, 0, 55, 57
2, 395520, Note_on_c, 0, 52, 57
2, 395550, Note_on_c, 0, 52, 0
2, 395550, Note_on_c, 0, 76, 0
2, 395550, Note_on_c, 0, 67, 0
2, 395550, Note_on_c, 0, 55, 0
2, 395640, Note_on_c, 0, 74, 59
2, 395640, Note_on_c, 0, 65, 59
2, 395640, Note_on_c, 0, 53, 59
2, 395640, Note_on_c, 0, 57, 59
2, 395640, Note_on_c, 0, 45, 59
2, 395670, Note_on_c, 0, 45, 0
2, 395670, Note_on_c, 0, 53, 0
2, 395670, Note_on_c, 0, 74, 0
2, 395670, Note_on_c, 0, 65, 0
2, 395670, Note_on_c, 0, 57, 0
2, 395760, Note_on_c, 0, 73, 61
2, 395760, Note_on_c, 0, 64, 61
2, 395760, Note_on_c, 0, 58, 61
2, 395760, Note_on_c, 0, 55, 61
2, 395790, Note_on_c, 0, 55, 0
2, 395790, Note_on_c, 0, 73, 0
2, 395790, Note_on_c, 0, 64, 0
2, 395790, Note_on_c, 0, 58, 0
2, 395880, Note_on_c, 0, 74, 62
2, 395880, Note_on_c, 0, 65, 62
2, 395880, Note_on_c, 0, 57, 62
2, 395880, Note_on_c, 0, 53, 62
2, 395910, Note_on_c, 0, 53, 0
2, 395910, Note_on_c, 0, 74, 0
2, 395910, Note_on_c, 0, 65, 0
2, 395910, Note_on_c, 0, 57, 0
2, 396000, Note_on_c, 0, 73, 64
2, 396000, Note_on_c, 0, 64, 64
2, 396000, Note_on_c, 0, 55, 64
2, 396000, Note_on_c, 0, 58, 64
2, 396000, Note_on_c, 0, 45, 64
2, 396030, Note_on_c, 0, 45, 0
2, 396030, Note_on_c, 0, 55, 0
2, 396030, Note_on_c, 0, 73, 0
2, 396030, Note_on_c, 0, 64, 0
2, 396030, Note_on_c, 0, 58, 0
2, 396120, Note_on_c, 0, 74, 66
2, 396120, Note_on_c, 0, 65, 66
2, 396120, Note_on_c, 0, 57, 66
2, 396120, Note_on_c, 0, 53, 66
2, 396150, Note_on_c, 0, 53, 0
2, 396150, Note_on_c, 0, 74, 0
2, 396150, Note_on_c, 0, 65, 0
2, 396150, Note_on_c, 0, 57, 0
2, 396240, Note_on_c, 0, 76, 68
2, 396240, Note_on_c, 0, 67, 68
2, 396240, Note_on_c, 0, 55, 68
2, 396240, Note_on_c, 0, 52, 68
2, 396270, Note_on_c, 0, 52, 0
2, 396270, Note_on_c, 0, 76, 0
2, 396270, Note_on_c, 0, 67, 0
2, 396270, Note_on_c, 0, 55, 0
2, 396360, Note_on_c, 0, 74, 69
2, 396360, Note_on_c, 0, 65, 69
2, 396360, Note_on_c, 0, 53, 69
2, 396360, Note_on_c, 0, 57, 69
2, 396360, Note_on_c, 0, 45, 69
2, 396390, Note_on_c, 0, 45, 0
2, 396390, Note_on_c, 0, 53, 0
2, 396390, Note_on_c, 0, 74, 0
2, 396390, Note_on_c, 0, 65, 0
2, 396390, Note_on_c, 0, 57, 0
2, 396480, Note_on_c, 0, 73, 71
2, 396480, Note_on_c, 0, 64, 71
2, 396480, Note_on_c, 0, 58, 71
2, 396480, Note_on_c, 0, 55, 71
2, 396510, Note_on_c, 0, 55, 0
2, 396510, Note_on_c, 0, 73, 0
2, 396510, Note_on_c, 0, 64, 0
2, 396510, Note_on_c, 0, 58, 0
2, 396600, Note_on_c, 0, 74, 73
2, 396600, Note_on_c, 0, 65, 73
2, 396600, Note_on_c, 0, 57, 73
2, 396600, Note_on_c, 0, 53, 73
2, 396630, Note_on_c, 0, 53, 0
2, 396630, Note_on_c, 0, 74, 0
2, 396630, Note_on_c, 0, 65, 0
2, 396630, Note_on_c, 0, 57, 0
2, 396720, Note_on_c, 0, 73, 74
2, 396720, Note_on_c, 0, 64, 74
2, 396720, Note_on_c, 0, 55, 74
2, 396720, Note_on_c, 0, 58, 74
2, 396720, Note_on_c, 0, 45, 74
2, 396750, Note_on_c, 0, 45, 0
2, 396750, Note_on_c, 0, 55, 0
2, 396750, Note_on_c, 0, 73, 0
2, 396750, Note_on_c, 0, 64, 0
2, 396750, Note_on_c, 0, 58, 0
2, 396840, Note_on_c, 0, 74, 76
2, 396840, Note_on_c, 0, 65, 76
2, 396840, Note_on_c, 0, 57, 76
2, 396840, Note_on_c, 0, 53, 76
2, 396870, Note_on_c, 0, 53, 0
2, 396870, Note_on_c, 0, 74, 0
2, 396870, Note_on_c, 0, 65, 0
2, 396870, Note_on_c, 0, 57, 0
2, 396960, Note_on_c, 0, 76, 78
2, 396960, Note_on_c, 0, 67, 78
2, 396960, Note_on_c, 0, 55, 78
2, 396960, Note_on_c, 0, 52, 78
2, 396990, Note_on_c, 0, 52, 0
2, 396990, Note_on_c, 0, 76, 0
2, 396990, Note_on_c, 0, 67, 0
2, 396990, Note_on_c, 0, 55, 0
2, 397080, Note_on_c, 0, 74, 79
2, 397080, Note_on_c, 0, 65, 79
2, 397080, Note_on_c, 0, 53, 79
2, 397080, Note_on_c, 0, 57, 79
2, 397080, Note_on_c, 0, 45, 79
2, 397110, Note_on_c, 0, 45, 0
2, 397110, Note_on_c, 0, 53, 0
2, 397110, Note_on_c, 0, 74, 0
2, 397110, Note_on_c, 0, 65, 0
2, 397110, Note_on_c, 0, 57, 0
2, 397200, Note_on_c, 0, 73, 81
2, 397200, Note_on_c, 0, 64, 81
2, 397200, Note_on_c, 0, 58, 81
2, 397200, Note_on_c, 0, 55, 81
2, 397230, Note_on_c, 0, 55, 0
2, 397230, Note_on_c, 0, 73, 0
2, 397230, Note_on_c, 0, 64, 0
2, 397230, Note_on_c, 0, 58, 0
2, 397320, Note_on_c, 0, 74, 83
2, 397320, Note_on_c, 0, 65, 83
2, 397320, Note_on_c, 0, 57, 83
2, 397320, Note_on_c, 0, 53, 83
2, 397350, Note_on_c, 0, 53, 0
2, 397350, Note_on_c, 0, 74, 0
2, 397350, Note_on_c, 0, 65, 0
2, 397350, Note_on_c, 0, 57, 0
2, 397440, Note_on_c, 0, 69, 85
2, 397440, Note_on_c, 0, 73, 85
2, 397440, Note_on_c, 0, 76, 85
2, 397440, Note_on_c, 0, 64, 85
2, 397440, Note_on_c, 0, 52, 85
2, 397440, Note_on_c, 0, 55, 85
2, 397440, Note_on_c, 0, 45, 85
2, 397470, Note_on_c, 0, 45, 0
2, 397470, Note_on_c, 0, 52, 0
2, 397470, Note_on_c, 0, 73, 0
2, 397470, Note_on_c, 0, 76, 0
2, 397470, Note_on_c, 0, 69, 0
2, 397470, Note_on_c, 0, 55, 0
2, 397470, Note_on_c, 0, 64, 0
2, 397560, Note_on_c, 0, 74, 86
2, 397560, Note_on_c, 0, 77, 86
2, 397560, Note_on_c, 0, 65, 86
2, 397560, Note_on_c, 0, 53, 86
2, 397560, Note_on_c, 0, 50, 86
2, 397590, Note_on_c, 0, 50, 0
2, 397590, Note_on_c, 0, 65, 0
2, 397590, Note_on_c, 0, 74, 0
2, 397590, Note_on_c, 0, 77, 0
2, 397590, Note_on_c, 0, 53, 0
2, 397680, Note_on_c, 0, 76, 88
2, 397680, Note_on_c, 0, 79, 88
2, 397680, Note_on_c, 0, 67, 88
2, 397680, Note_on_c, 0, 52, 88
2, 397680, Note_on_c, 0, 49, 88
2, 397710, Note_on_c, 0, 49, 0
2, 397710, Note_on_c, 0, 67, 0
2, 397710, Note_on_c, 0, 76, 0
2, 397710, Note_on_c, 0, 79, 0
2, 397710, Note_on_c, 0, 52, 0
2, 397800, Note_on_c, 0, 69, 90
2, 397800, Note_on_c, 0, 74, 90
2, 397800, Note_on_c, 0, 77, 90
2, 397800, Note_on_c, 0, 65, 90
2, 397800, Note_on_c, 0, 50, 90
2, 397800, Note_on_c, 0, 53, 90
2, 397800, Note_on_c, 0, 45, 90
2, 397830, Note_on_c, 0, 45, 0
2, 397830, Note_on_c, 0, 50, 0
2, 397830, Note_on_c, 0, 74, 0
2, 397830, Note_on_c, 0, 77, 0
2, 397830, Note_on_c, 0, 69, 0
2, 397830, Note_on_c, 0, 53, 0
2, 397830, Note_on_c, 0, 65, 0
2, 397920, Note_on_c, 0, 73, 91
2, 397920, Note_on_c, 0, 76, 91
2, 397920, Note_on_c, 0, 64, 91
2, 397920, Note_on_c, 0, 55, 91
2, 397920, Note_on_c, 0, 52, 91
2, 397950, Note_on_c, 0, 52, 0
2, 397950, Note_on_c, 0, 64, 0
2, 397950, Note_on_c, 0, 73, 0
2, 397950, Note_on_c, 0, 76, 0
2, 397950, Note_on_c, 0, 55, 0
2, 398040, Note_on_c, 0, 74, 93
2, 398040, Note_on_c, 0, 77, 93
2, 398040, Note_on_c, 0, 65, 93
2, 398040, Note_on_c, 0, 53, 93
2, 398040, Note_on_c, 0, 50, 93
2, 398070, Note_on_c, 0, 50, 0
2, 398070, Note_on_c, 0, 65, 0
2, 398070, Note_on_c, 0, 74, 0
2, 398070, Note_on_c, 0, 77, 0
2, 398070, Note_on_c, 0, 53, 0
2, 398160, Note_on_c, 0, 69, 95
2, 398160, Note_on_c, 0, 73, 95
2, 398160, Note_on_c, 0, 76, 95
2, 398160, Note_on_c, 0, 64, 95
2, 398160, Note_on_c, 0, 52, 95
2, 398160, Note_on_c, 0, 55, 95
2, 398160, Note_on_c, 0, 45, 95
2, 398190, Note_on_c, 0, 45, 0
2, 398190, Note_on_c, 0, 52, 0
2, 398190, Note_on_c, 0, 73, 0
2, 398190, Note_on_c, 0, 76, 0
2, 398190, Note_on_c, 0, 69, 0
2, 398190, Note_on_c, 0, 55, 0
2, 398190, Note_on_c, 0, 64, 0
2, 398280, Note_on_c, 0, 74, 97
2, 398280, Note_on_c, 0, 77, 97
2, 398280, Note_on_c, 0, 65, 97
2, 398280, Note_on_c, 0, 53, 97
2, 398280, Note_on_c, 0, 50, 97
2, 398310, Note_on_c, 0, 50, 0
2, 398310, Note_on_c, 0, 65, 0
2, 398310, Note_on_c, 0, 74, 0
2, 398310, Note_on_c, 0, 77, 0
2, 398310, Note_on_c, 0, 53, 0
2, 398400, Note_on_c, 0, 76, 98
2, 398400, Note_on_c, 0, 79, 98
2, 398400, Note_on_c, 0, 67, 98
2, 398400, Note_on_c, 0, 52, 98
2, 398400, Note_on_c, 0, 49, 98
2, 398430, Note_on_c, 0, 49, 0
2, 398430, Note_on_c, 0, 67, 0
2, 398430, Note_on_c, 0, 76, 0
2, 398430, Note_on_c, 0, 79, 0
2, 398430, Note_on_c, 0, 52, 0
2, 398520, Note_on_c, 0, 69, 100
2, 398520, Note_on_c, 0, 74, 100
2, 398520, Note_on_c, 0, 77, 100
2, 398520, Note_on_c, 0, 65, 100
2, 398520, Note_on_c, 0, 50, 100
2, 398520, Note_on_c, 0, 53, 100
2, 398520, Note_on_c, 0, 45, 100
2, 398550, Note_on_c, 0, 45, 0
2, 398550, Note_on_c, 0, 50, 0
2, 398550, Note_on_c, 0, 74, 0
2, 398550, Note_on_c, 0, 77, 0
2, 398550, Note_on_c, 0, 69, 0
2, 398550, Note_on_c, 0, 53, 0
2, 398550, Note_on_c, 0, 65, 0
2, 398640, Note_on_c, 0, 73, 102
2, 398640, Note_on_c, 0, 76, 102
2, 398640, Note_on_c, 0, 64, 102
2, 398640, Note_on_c, 0, 55, 102
2, 398640, Note_on_c, 0, 52, 102
2, 398670, Note_on_c, 0, 52, 0
2, 398670, Note_on_c, 0, 64, 0
2, 398670, Note_on_c, 0, 73, 0
2, 398670, Note_on_c, 0, 76, 0
2, 398670, Note_on_c, 0, 55, 0
2, 398760, Note_on_c, 0, 74, 103
2, 398760, Note_on_c, 0, 77, 103
2, 398760, Note_on_c, 0, 65, 103
2, 398760, Note_on_c, 0, 53, 103
2, 398760, Note_on_c, 0, 50, 103
2, 398790, Note_on_c, 0, 50, 0
2, 398790, Note_on_c, 0, 65, 0
2, 398790, Note_on_c, 0, 74, 0
2, 398790, Note_on_c, 0, 77, 0
2, 398790, Note_on_c, 0, 53, 0
2, 398880, Note_on_c, 0, 69, 105
2, 398880, Note_on_c, 0, 73, 105
2, 398880, Note_on_c, 0, 76, 105
2, 398880, Note_on_c, 0, 64, 105
2, 398880, Note_on_c, 0, 52, 105
2, 398880, Note_on_c, 0, 55, 105
2, 398880, Note_on_c, 0, 45, 105
2, 398910, Note_on_c, 0, 45, 0
2, 398910, Note_on_c, 0, 52, 0
2, 398910, Note_on_c, 0, 73, 0
2, 398910, Note_on_c, 0, 76, 0
2, 398910, Note_on_c, 0, 69, 0
2, 398910, Note_on_c, 0, 55, 0
2, 398910, Note_on_c, 0, 64, 0
2, 399000, Note_on_c, 0, 74, 107
2, 399000, Note_on_c, 0, 77, 107
2, 399000, Note_on_c, 0, 65, 107
2, 399000, Note_on_c, 0, 53, 107
2, 399000, Note_on_c, 0, 50, 107
2, 399030, Note_on_c, 0, 50, 0
2, 399030, Note_on_c, 0, 65, 0
2, 399030, Note_on_c, 0, 74, 0
2, 399030, Note_on_c, 0, 77, 0
2, 399030, Note_on_c, 0, 53, 0
2, 399120, Note_on_c, 0, 76, 108
2, 399120, Note_on_c, 0, 79, 108
2, 399120, Note_on_c, 0, 67, 108
2, 399120, Note_on_c, 0, 52, 108
2, 399120, Note_on_c, 0, 49, 108
2, 399150, Note_on_c, 0, 49, 0
2, 399150, Note_on_c, 0, 67, 0
2, 399150, Note_on_c, 0, 76, 0
2, 399150, Note_on_c, 0, 79, 0
2, 399150, Note_on_c, 0, 52, 0
2, 399240, Note_on_c, 0, 73, 110
2, 399240, Note_on_c, 0, 76, 110
2, 399240, Note_on_c, 0, 81, 110
2, 399240, Note_on_c, 0, 69, 110
2, 399240, Note_on_c, 0, 55, 110
2, 399240, Note_on_c, 0, 43, 110
2, 399270, Note_on_c, 0, 43, 0
2, 399270, Note_on_c, 0, 76, 0
2, 399270, Note_on_c, 0, 81, 0
2, 399270, Note_on_c, 0, 73, 0
2, 399270, Note_on_c, 0, 55, 0
2, 399270, Note_on_c, 0, 69, 0
2, 399360, Note_on_c, 0, 77, 112
2, 399360, Note_on_c, 0, 74, 112
2, 399360, Note_on_c, 0, 53, 112
2, 399360, Note_on_c, 0, 41, 112
2, 399390, Note_on_c, 0, 41, 0
2, 399390, Note_on_c, 0, 77, 0
2, 399390, Note_on_c, 0, 74, 0
2, 399390, Note_on_c, 0, 53, 0
2, 399420, Note_on_c, 0, 69, 113
2, 399450, Note_on_c, 0, 69, 0
2, 399480, Note_on_c, 0, 73, 114
2, 399480, Note_on_c, 0, 79, 114
2, 399480, Note_on_c, 0, 69, 114
2, 399480, Note_on_c, 0, 52, 114
2, 399480, Note_on_c, 0, 40, 114
2, 399510, Note_on_c, 0, 40, 0
2, 399510, Note_on_c, 0, 69, 0
2, 399510, Note_on_c, 0, 73, 0
2, 399510, Note_on_c, 0, 79, 0
2, 399510, Note_on_c, 0, 52, 0
2, 399600, Note_on_c, 0, 74, 117
2, 399600, Note_on_c, 0, 77, 117
2, 399600, Note_on_c, 0, 81, 117
2, 399600, Note_on_c, 0, 69, 117
2, 399600, Note_on_c, 0, 50, 117
2, 399600, Note_on_c, 0, 38, 117
2, 399750, Note_on_c, 0, 38, 0
2, 399750, Note_on_c, 0, 77, 0
2, 399750, Note_on_c, 0, 81, 0
2, 399750, Note_on_c, 0, 74, 0
2, 399750, Note_on_c, 0, 50, 0
2, 399750, Note_on_c, 0, 69, 0
2, 399780, Note_on_c, 0, 69, 117
2, 399780, Note_on_c, 0, 57, 117
2, 399810, Note_on_c, 0, 57, 0
2, 399810, Note_on_c, 0, 69, 0
2, 399840, Note_on_c, 0, 69, 117
2, 399840, Note_on_c, 0, 57, 117
2, 399930, Note_on_c, 0, 57, 0
2, 399930, Note_on_c, 0, 69, 0
2, 399960, Note_on_c, 0, 69, 117
2, 399960, Note_on_c, 0, 74, 117
2, 399960, Note_on_c, 0, 65, 117
2, 399960, Note_on_c, 0, 53, 117
2, 399960, Note_on_c, 0, 57, 117
2, 399960, Note_on_c, 0, 62, 117
2, 399960, Note_on_c, 0, 50, 117
2, 400075, Note_on_c, 0, 50, 0
2, 400075, Note_on_c, 0, 57, 0
2, 400075, Note_on_c, 0, 74, 0
2, 400075, Note_on_c, 0, 65, 0
2, 400075, Note_on_c, 0, 69, 0
2, 400075, Note_on_c, 0, 62, 0
2, 400075, Note_on_c, 0, 53, 0
2, 400080, Note_on_c, 0, 76, 117
2, 400080, Note_on_c, 0, 64, 117
2, 400195, Note_on_c, 0, 64, 0
2, 400195, Note_on_c, 0, 76, 0
2, 400200, Note_on_c, 0, 77, 117
2, 400200, Note_on_c, 0, 65, 117
2, 400315, Note_on_c, 0, 65, 0
2, 400315, Note_on_c, 0, 77, 0
2, 400320, Note_on_c, 0, 69, 117
2, 400320, Note_on_c, 0, 73, 117
2, 400320, Note_on_c, 0, 76, 117
2, 400320, Note_on_c, 0, 64, 117
2, 400320, Note_on_c, 0, 49, 117
2, 400320, Note_on_c, 0, 52, 117
2, 400320, Note_on_c, 0, 57, 117
2, 400320, Note_on_c, 0, 45, 117
2, 400435, Note_on_c, 0, 45, 0
2, 400435, Note_on_c, 0, 69, 0
2, 400435, Note_on_c, 0, 49, 0
2, 400435, Note_on_c, 0, 73, 0
2, 400435, Note_on_c, 0, 76, 0
2, 400435, Note_on_c, 0, 64, 0
2, 400435, Note_on_c, 0, 52, 0
2, 400435, Note_on_c, 0, 57, 0
2, 400440, Note_on_c, 0, 77, 117
2, 400440, Note_on_c, 0, 65, 117
2, 400555, Note_on_c, 0, 65, 0
2, 400555, Note_on_c, 0, 77, 0
2, 400560, Note_on_c, 0, 79, 117
2, 400560, Note_on_c, 0, 67, 117
2, 400675, Note_on_c, 0, 67, 0
2, 400675, Note_on_c, 0, 79, 0
2, 400680, Note_on_c, 0, 69, 117
2, 400680, Note_on_c, 0, 77, 117
2, 400680, Note_on_c, 0, 65, 117
2, 400680, Note_on_c, 0, 41, 117
2, 400680, Note_on_c, 0, 45, 117
2, 400680, Note_on_c, 0, 50, 117
2, 400680, Note_on_c, 0, 38, 117
2, 400795, Note_on_c, 0, 38, 0
2, 400795, Note_on_c, 0, 45, 0
2, 400795, Note_on_c, 0, 77, 0
2, 400795, Note_on_c, 0, 65, 0
2, 400795, Note_on_c, 0, 69, 0
2, 400795, Note_on_c, 0, 50, 0
2, 400795, Note_on_c, 0, 41, 0
2, 400800, Note_on_c, 0, 76, 117
2, 400800, Note_on_c, 0, 64, 117
2, 400915, Note_on_c, 0, 64, 0
2, 400915, Note_on_c, 0, 76, 0
2, 400920, Note_on_c, 0, 74, 117
2, 400920, Note_on_c, 0, 62, 117
2, 401035, Note_on_c, 0, 62, 0
2, 401035, Note_on_c, 0, 74, 0
2, 401040, Note_on_c, 0, 74, 117
2, 401040, Note_on_c, 0, 82, 117
2, 401040, Note_on_c, 0, 70, 117
2, 401040, Note_on_c, 0, 50, 117
2, 401040, Note_on_c, 0, 55, 117
2, 401040, Note_on_c, 0, 58, 117
2, 401040, Note_on_c, 0, 43, 117
2, 401155, Note_on_c, 0, 43, 0
2, 401155, Note_on_c, 0, 55, 0
2, 401155, Note_on_c, 0, 82, 0
2, 401155, Note_on_c, 0, 70, 0
2, 401155, Note_on_c, 0, 74, 0
2, 401155, Note_on_c, 0, 58, 0
2, 401155, Note_on_c, 0, 50, 0
2, 401160, Note_on_c, 0, 81, 95
2, 401160, Note_on_c, 0, 69, 95
2, 401275, Note_on_c, 0, 69, 0
2, 401275, Note_on_c, 0, 81, 0
2, 401280, Note_on_c, 0, 79, 95
2, 401280, Note_on_c, 0, 67, 95
2, 401395, Note_on_c, 0, 67, 0
2, 401395, Note_on_c, 0, 79, 0
2, 401400, Note_on_c, 0, 77, 117
2, 401400, Note_on_c, 0, 65, 117
2, 401400, Note_on_c, 0, 50, 117
2, 401400, Note_on_c, 0, 53, 117
2, 401400, Note_on_c, 0, 57, 117
2, 401400, Note_on_c, 0, 45, 117
2, 401515, Note_on_c, 0, 45, 0
2, 401515, Note_on_c, 0, 65, 0
2, 401515, Note_on_c, 0, 50, 0
2, 401515, Note_on_c, 0, 77, 0
2, 401515, Note_on_c, 0, 57, 0
2, 401515, Note_on_c, 0, 53, 0
2, 401520, Note_on_c, 0, 76, 95
2, 401520, Note_on_c, 0, 64, 95
2, 401635, Note_on_c, 0, 64, 0
2, 401635, Note_on_c, 0, 76, 0
2, 401640, Note_on_c, 0, 74, 95
2, 401640, Note_on_c, 0, 62, 95
2, 401755, Note_on_c, 0, 62, 0
2, 401755, Note_on_c, 0, 74, 0
2, 401760, Note_on_c, 0, 69, 117
2, 401760, Note_on_c, 0, 73, 117
2, 401760, Note_on_c, 0, 61, 117
2, 401760, Note_on_c, 0, 52, 117
2, 401760, Note_on_c, 0, 55, 117
2, 401760, Note_on_c, 0, 57, 117
2, 401760, Note_on_c, 0, 45, 117
2, 401875, Note_on_c, 0, 45, 0
2, 401875, Note_on_c, 0, 55, 0
2, 401875, Note_on_c, 0, 73, 0
2, 401875, Note_on_c, 0, 61, 0
2, 401875, Note_on_c, 0, 69, 0
2, 401875, Note_on_c, 0, 57, 0
2, 401875, Note_on_c, 0, 52, 0
2, 401880, Note_on_c, 0, 74, 95
2, 401880, Note_on_c, 0, 62, 95
2, 401995, Note_on_c, 0, 62, 0
2, 401995, Note_on_c, 0, 74, 0
2, 402000, Note_on_c, 0, 76, 95
2, 402000, Note_on_c, 0, 64, 95
2, 402115, Note_on_c, 0, 64, 0
2, 402115, Note_on_c, 0, 76, 0
2, 402120, Note_on_c, 0, 69, 117
2, 402120, Note_on_c, 0, 74, 117
2, 402120, Note_on_c, 0, 62, 117
2, 402120, Note_on_c, 0, 50, 117
2, 402120, Note_on_c, 0, 53, 117
2, 402120, Note_on_c, 0, 57, 117
2, 402120, Note_on_c, 0, 38, 117
2, 402235, Note_on_c, 0, 38, 0
2, 402235, Note_on_c, 0, 53, 0
2, 402235, Note_on_c, 0, 74, 0
2, 402235, Note_on_c, 0, 62, 0
2, 402235, Note_on_c, 0, 69, 0
2, 402235, Note_on_c, 0, 57, 0
2, 402235, Note_on_c, 0, 50, 0
2, 402240, Note_on_c, 0, 73, 95
2, 402240, Note_on_c, 0, 61, 95
2, 402355, Note_on_c, 0, 61, 0
2, 402355, Note_on_c, 0, 73, 0
2, 402360, Note_on_c, 0, 74, 95
2, 402360, Note_on_c, 0, 62, 95
2, 402475, Note_on_c, 0, 62, 0
2, 402475, Note_on_c, 0, 74, 0
2, 402480, Note_on_c, 0, 74, 117
2, 402480, Note_on_c, 0, 82, 117
2, 402480, Note_on_c, 0, 70, 117
2, 402480, Note_on_c, 0, 50, 117
2, 402480, Note_on_c, 0, 55, 117
2, 402480, Note_on_c, 0, 58, 117
2, 402480, Note_on_c, 0, 43, 117
2, 402595, Note_on_c, 0, 43, 0
2, 402595, Note_on_c, 0, 55, 0
2, 402595, Note_on_c, 0, 82, 0
2, 402595, Note_on_c, 0, 70, 0
2, 402595, Note_on_c, 0, 74, 0
2, 402595, Note_on_c, 0, 58, 0
2, 402595, Note_on_c, 0, 50, 0
2, 402600, Note_on_c, 0, 81, 95
2, 402600, Note_on_c, 0, 69, 95
2, 402715, Note_on_c, 0, 69, 0
2, 402715, Note_on_c, 0, 81, 0
2, 402720, Note_on_c, 0, 79, 95
2, 402720, Note_on_c, 0, 67, 95
2, 402835, Note_on_c, 0, 67, 0
2, 402835, Note_on_c, 0, 79, 0
2, 402840, Note_on_c, 0, 69, 117
2, 402840, Note_on_c, 0, 77, 117
2, 402840, Note_on_c, 0, 65, 117
2, 402840, Note_on_c, 0, 50, 117
2, 402840, Note_on_c, 0, 53, 117
2, 402840, Note_on_c, 0, 57, 117
2, 402840, Note_on_c, 0, 45, 117
2, 402955, Note_on_c, 0, 45, 0
2, 402955, Note_on_c, 0, 53, 0
2, 402955, Note_on_c, 0, 77, 0
2, 402955, Note_on_c, 0, 65, 0
2, 402955, Note_on_c, 0, 69, 0
2, 402955, Note_on_c, 0, 57, 0
2, 402955, Note_on_c, 0, 50, 0
2, 402960, Note_on_c, 0, 76, 95
2, 402960, Note_on_c, 0, 64, 95
2, 403075, Note_on_c, 0, 64, 0
2, 403075, Note_on_c, 0, 76, 0
2, 403080, Note_on_c, 0, 74, 95
2, 403080, Note_on_c, 0, 62, 95
2, 403195, Note_on_c, 0, 62, 0
2, 403195, Note_on_c, 0, 74, 0
2, 403200, Note_on_c, 0, 69, 117
2, 403200, Note_on_c, 0, 73, 117
2, 403200, Note_on_c, 0, 61, 117
2, 403200, Note_on_c, 0, 52, 117
2, 403200, Note_on_c, 0, 55, 117
2, 403200, Note_on_c, 0, 57, 117
2, 403200, Note_on_c, 0, 45, 117
2, 403315, Note_on_c, 0, 45, 0
2, 403315, Note_on_c, 0, 55, 0
2, 403315, Note_on_c, 0, 73, 0
2, 403315, Note_on_c, 0, 61, 0
2, 403315, Note_on_c, 0, 69, 0
2, 403315, Note_on_c, 0, 57, 0
2, 403315, Note_on_c, 0, 52, 0
2, 403320, Note_on_c, 0, 74, 95
2, 403320, Note_on_c, 0, 62, 95
2, 403435, Note_on_c, 0, 62, 0
2, 403435, Note_on_c, 0, 74, 0
2, 403440, Note_on_c, 0, 76, 95
2, 403440, Note_on_c, 0, 64, 95
2, 403555, Note_on_c, 0, 64, 0
2, 403555, Note_on_c, 0, 76, 0
2, 403560, Note_on_c, 0, 69, 117
2, 403560, Note_on_c, 0, 74, 117
2, 403560, Note_on_c, 0, 62, 117
2, 403560, Note_on_c, 0, 50, 117
2, 403560, Note_on_c, 0, 53, 117
2, 403560, Note_on_c, 0, 57, 117
2, 403560, Note_on_c, 0, 38, 117
2, 403675, Note_on_c, 0, 38, 0
2, 403675, Note_on_c, 0, 53, 0
2, 403675, Note_on_c, 0, 74, 0
2, 403675, Note_on_c, 0, 62, 0
2, 403675, Note_on_c, 0, 69, 0
2, 403675, Note_on_c, 0, 57, 0
2, 403675, Note_on_c, 0, 50, 0
2, 403680, Note_on_c, 0, 73, 95
2, 403680, Note_on_c, 0, 61, 95
2, 403795, Note_on_c, 0, 61, 0
2, 403795, Note_on_c, 0, 73, 0
2, 403800, Note_on_c, 0, 71, 95
2, 403800, Note_on_c, 0, 74, 95
2, 403800, Note_on_c, 0, 62, 95
2, 403800, Note_on_c, 0, 50, 117
2, 403800, Note_on_c, 0, 53, 117
2, 403800, Note_on_c, 0, 59, 117
2, 403800, Note_on_c, 0, 43, 117
2, 403915, Note_on_c, 0, 43, 0
2, 403915, Note_on_c, 0, 53, 0
2, 403915, Note_on_c, 0, 74, 0
2, 403915, Note_on_c, 0, 62, 0
2, 403915, Note_on_c, 0, 71, 0
2, 403915, Note_on_c, 0, 59, 0
2, 403915, Note_on_c, 0, 50, 0
2, 403920, Note_on_c, 0, 81, 117
2, 403920, Note_on_c, 0, 69, 117
2, 403920, Note_on_c, 0, 50, 117
2, 403920, Note_on_c, 0, 53, 117
2, 403920, Note_on_c, 0, 59, 117
2, 403920, Note_on_c, 0, 43, 117
2, 404035, Note_on_c, 0, 43, 0
2, 404035, Note_on_c, 0, 69, 0
2, 404035, Note_on_c, 0, 50, 0
2, 404035, Note_on_c, 0, 81, 0
2, 404035, Note_on_c, 0, 59, 0
2, 404035, Note_on_c, 0, 53, 0
2, 404040, Note_on_c, 0, 79, 95
2, 404040, Note_on_c, 0, 67, 95
2, 404155, Note_on_c, 0, 67, 0
2, 404155, Note_on_c, 0, 79, 0
2, 404160, Note_on_c, 0, 77, 95
2, 404160, Note_on_c, 0, 65, 95
2, 404275, Note_on_c, 0, 65, 0
2, 404275, Note_on_c, 0, 77, 0
2, 404280, Note_on_c, 0, 67, 117
2, 404280, Note_on_c, 0, 76, 117
2, 404280, Note_on_c, 0, 64, 117
2, 404280, Note_on_c, 0, 52, 117
2, 404280, Note_on_c, 0, 55, 117
2, 404280, Note_on_c, 0, 60, 117
2, 404280, Note_on_c, 0, 48, 117
2, 404395, Note_on_c, 0, 48, 0
2, 404395, Note_on_c, 0, 55, 0
2, 404395, Note_on_c, 0, 76, 0
2, 404395, Note_on_c, 0, 64, 0
2, 404395, Note_on_c, 0, 67, 0
2, 404395, Note_on_c, 0, 60, 0
2, 404395, Note_on_c, 0, 52, 0
2, 404400, Note_on_c, 0, 74, 95
2, 404400, Note_on_c, 0, 62, 95
2, 404515, Note_on_c, 0, 62, 0
2, 404515, Note_on_c, 0, 74, 0
2, 404520, Note_on_c, 0, 72, 95
2, 404635, Note_on_c, 0, 72, 0
2, 404640, Note_on_c, 0, 65, 117
2, 404640, Note_on_c, 0, 67, 117
2, 404640, Note_on_c, 0, 71, 117
2, 404640, Note_on_c, 0, 59, 117
2, 404640, Note_on_c, 0, 50, 117
2, 404640, Note_on_c, 0, 53, 117
2, 404640, Note_on_c, 0, 55, 117
2, 404640, Note_on_c, 0, 43, 117
2, 404755, Note_on_c, 0, 43, 0
2, 404755, Note_on_c, 0, 65, 0
2, 404755, Note_on_c, 0, 50, 0
2, 404755, Note_on_c, 0, 67, 0
2, 404755, Note_on_c, 0, 71, 0
2, 404755, Note_on_c, 0, 59, 0
2, 404755, Note_on_c, 0, 53, 0
2, 404755, Note_on_c, 0, 55, 0
2, 404760, Note_on_c, 0, 72, 95
2, 404760, Note_on_c, 0, 60, 95
2, 404875, Note_on_c, 0, 60, 0
2, 404875, Note_on_c, 0, 72, 0
2, 404880, Note_on_c, 0, 74, 95
2, 404880, Note_on_c, 0, 62, 95
2, 404995, Note_on_c, 0, 62, 0
2, 404995, Note_on_c, 0, 74, 0
2, 405000, Note_on_c, 0, 64, 117
2, 405000, Note_on_c, 0, 67, 117
2, 405000, Note_on_c, 0, 72, 117
2, 405000, Note_on_c, 0, 60, 117
2, 405000, Note_on_c, 0, 48, 117
2, 405000, Note_on_c, 0, 52, 117
2, 405000, Note_on_c, 0, 55, 117
2, 405000, Note_on_c, 0, 36, 117
2, 405115, Note_on_c, 0, 36, 0
2, 405115, Note_on_c, 0, 64, 0
2, 405115, Note_on_c, 0, 48, 0
2, 405115, Note_on_c, 0, 67, 0
2, 405115, Note_on_c, 0, 72, 0
2, 405115, Note_on_c, 0, 60, 0
2, 405115, Note_on_c, 0, 52, 0
2, 405115, Note_on_c, 0, 55, 0
2, 405120, Note_on_c, 0, 71, 95
2, 405120, Note_on_c, 0, 77, 95
2, 405120, Note_on_c, 0, 81, 95
2, 405120, Note_on_c, 0, 69, 95
2, 405120, Note_on_c, 0, 50, 117
2, 405120, Note_on_c, 0, 53, 117
2, 405120, Note_on_c, 0, 59, 117
2, 405120, Note_on_c, 0, 43, 117
2, 405235, Note_on_c, 0, 43, 0
2, 405235, Note_on_c, 0, 71, 0
2, 405235, Note_on_c, 0, 50, 0
2, 405235, Note_on_c, 0, 77, 0
2, 405235, Note_on_c, 0, 81, 0
2, 405235, Note_on_c, 0, 69, 0
2, 405235, Note_on_c, 0, 53, 0
2, 405235, Note_on_c, 0, 59, 0
2, 405240, Note_on_c, 0, 71, 95
2, 405240, Note_on_c, 0, 77, 95
2, 405240, Note_on_c, 0, 81, 95
2, 405240, Note_on_c, 0, 69, 95
2, 405240, Note_on_c, 0, 50, 117
2, 405240, Note_on_c, 0, 53, 117
2, 405240, Note_on_c, 0, 59, 117
2, 405240, Note_on_c, 0, 43, 117
2, 405355, Note_on_c, 0, 43, 0
2, 405355, Note_on_c, 0, 71, 0
2, 405355, Note_on_c, 0, 50, 0
2, 405355, Note_on_c, 0, 77, 0
2, 405355, Note_on_c, 0, 81, 0
2, 405355, Note_on_c, 0, 69, 0
2, 405355, Note_on_c, 0, 53, 0
2, 405355, Note_on_c, 0, 59, 0
2, 405360, Note_on_c, 0, 71, 117
2, 405360, Note_on_c, 0, 77, 117
2, 405360, Note_on_c, 0, 81, 117
2, 405360, Note_on_c, 0, 69, 117
2, 405360, Note_on_c, 0, 50, 117
2, 405360, Note_on_c, 0, 53, 117
2, 405360, Note_on_c, 0, 59, 117
2, 405360, Note_on_c, 0, 43, 117
2, 405475, Note_on_c, 0, 43, 0
2, 405475, Note_on_c, 0, 71, 0
2, 405475, Note_on_c, 0, 50, 0
2, 405475, Note_on_c, 0, 77, 0
2, 405475, Note_on_c, 0, 81, 0
2, 405475, Note_on_c, 0, 69, 0
2, 405475, Note_on_c, 0, 53, 0
2, 405475, Note_on_c, 0, 59, 0
2, 405480, Note_on_c, 0, 79, 95
2, 405480, Note_on_c, 0, 67, 95
2, 405595, Note_on_c, 0, 67, 0
2, 405595, Note_on_c, 0, 79, 0
2, 405600, Note_on_c, 0, 77, 95
2, 405600, Note_on_c, 0, 65, 95
2, 405715, Note_on_c, 0, 65, 0
2, 405715, Note_on_c, 0, 77, 0
2, 405720, Note_on_c, 0, 67, 117
2, 405720, Note_on_c, 0, 76, 117
2, 405720, Note_on_c, 0, 64, 117
2, 405720, Note_on_c, 0, 52, 117
2, 405720, Note_on_c, 0, 55, 117
2, 405720, Note_on_c, 0, 60, 117
2, 405720, Note_on_c, 0, 48, 117
2, 405835, Note_on_c, 0, 48, 0
2, 405835, Note_on_c, 0, 55, 0
2, 405835, Note_on_c, 0, 76, 0
2, 405835, Note_on_c, 0, 64, 0
2, 405835, Note_on_c, 0, 67, 0
2, 405835, Note_on_c, 0, 60, 0
2, 405835, Note_on_c, 0, 52, 0
2, 405840, Note_on_c, 0, 74, 95
2, 405840, Note_on_c, 0, 62, 95
2, 405955, Note_on_c, 0, 62, 0
2, 405955, Note_on_c, 0, 74, 0
2, 405960, Note_on_c, 0, 72, 95
2, 405960, Note_on_c, 0, 60, 95
2, 406075, Note_on_c, 0, 60, 0
2, 406075, Note_on_c, 0, 72, 0
2, 406080, Note_on_c, 0, 72, 117
2, 406080, Note_on_c, 0, 79, 117
2, 406080, Note_on_c, 0, 67, 117
2, 406080, Note_on_c, 0, 55, 117
2, 406080, Note_on_c, 0, 60, 117
2, 406080, Note_on_c, 0, 64, 117
2, 406080, Note_on_c, 0, 48, 117
2, 406195, Note_on_c, 0, 48, 0
2, 406195, Note_on_c, 0, 60, 0
2, 406195, Note_on_c, 0, 79, 0
2, 406195, Note_on_c, 0, 67, 0
2, 406195, Note_on_c, 0, 72, 0
2, 406195, Note_on_c, 0, 64, 0
2, 406195, Note_on_c, 0, 55, 0
2, 406200, Note_on_c, 0, 77, 95
2, 406200, Note_on_c, 0, 65, 95
2, 406315, Note_on_c, 0, 65, 0
2, 406315, Note_on_c, 0, 77, 0
2, 406320, Note_on_c, 0, 76, 95
2, 406320, Note_on_c, 0, 64, 95
2, 406435, Note_on_c, 0, 64, 0
2, 406435, Note_on_c, 0, 76, 0
2, 406440, Note_on_c, 0, 79, 117
2, 406440, Note_on_c, 0, 88, 117
2, 406440, Note_on_c, 0, 76, 117
2, 406440, Note_on_c, 0, 52, 117
2, 406440, Note_on_c, 0, 55, 117
2, 406440, Note_on_c, 0, 60, 117
2, 406440, Note_on_c, 0, 48, 117
2, 406555, Note_on_c, 0, 48, 0
2, 406555, Note_on_c, 0, 55, 0
2, 406555, Note_on_c, 0, 88, 0
2, 406555, Note_on_c, 0, 76, 0
2, 406555, Note_on_c, 0, 79, 0
2, 406555, Note_on_c, 0, 60, 0
2, 406555, Note_on_c, 0, 52, 0
2, 406560, Note_on_c, 0, 86, 95
2, 406560, Note_on_c, 0, 74, 95
2, 406675, Note_on_c, 0, 74, 0
2, 406675, Note_on_c, 0, 86, 0
2, 406680, Note_on_c, 0, 84, 95
2, 406680, Note_on_c, 0, 72, 95
2, 406795, Note_on_c, 0, 72, 0
2, 406795, Note_on_c, 0, 84, 0
2, 406800, Note_on_c, 0, 79, 95
2, 406800, Note_on_c, 0, 83, 95
2, 406800, Note_on_c, 0, 71, 95
2, 406800, Note_on_c, 0, 59, 117
2, 406800, Note_on_c, 0, 62, 117
2, 406800, Note_on_c, 0, 67, 117
2, 406800, Note_on_c, 0, 55, 117
2, 406890, Note_on_c, 0, 55, 0
2, 406890, Note_on_c, 0, 62, 0
2, 406890, Note_on_c, 0, 59, 0
2, 406890, Note_on_c, 0, 67, 0
2, 406980, Note_on_c, 0, 67, 55
2, 407010, Note_on_c, 0, 67, 0
2, 407040, Note_on_c, 0, 83, 0
2, 407040, Note_on_c, 0, 71, 0
2, 407040, Note_on_c, 0, 79, 0
2, 407040, Note_on_c, 0, 67, 60
2, 407130, Note_on_c, 0, 67, 0
2, 407160, Note_on_c, 0, 79, 53
2, 407340, Note_on_c, 0, 67, 70
2, 407355, Note_on_c, 0, 67, 0
2, 407400, Note_on_c, 0, 67, 74
2, 407460, Note_on_c, 0, 67, 0
2, 407515, Note_on_c, 0, 79, 0
2, 407520, Note_on_c, 0, 81, 53
2, 407520, Note_on_c, 0, 79, 53
2, 407700, Note_on_c, 0, 69, 84
2, 407700, Note_on_c, 0, 65, 84
2, 407715, Note_on_c, 0, 65, 0
2, 407715, Note_on_c, 0, 69, 0
2, 407760, Note_on_c, 0, 69, 89
2, 407760, Note_on_c, 0, 65, 89
2, 407820, Note_on_c, 0, 65, 0
2, 407820, Note_on_c, 0, 69, 0
2, 407875, Note_on_c, 0, 79, 0
2, 407875, Note_on_c, 0, 81, 0
2, 407880, Note_on_c, 0, 77, 53
2, 407880, Note_on_c, 0, 81, 53
2, 407880, Note_on_c, 0, 86, 53
2, 407880, Note_on_c, 0, 62, 53
2, 408060, Note_on_c, 0, 69, 98
2, 408060, Note_on_c, 0, 74, 98
2, 408060, Note_on_c, 0, 65, 98
2, 408075, Note_on_c, 0, 65, 0
2, 408075, Note_on_c, 0, 69, 0
2, 408075, Note_on_c, 0, 74, 0
2, 408120, Note_on_c, 0, 69, 103
2, 408120, Note_on_c, 0, 74, 103
2, 408120, Note_on_c, 0, 65, 103
2, 408180, Note_on_c, 0, 65, 0
2, 408180, Note_on_c, 0, 69, 0
2, 408180, Note_on_c, 0, 74, 0
2, 408235, Note_on_c, 0, 62, 0
2, 408235, Note_on_c, 0, 77, 0
2, 408235, Note_on_c, 0, 81, 0
2, 408235, Note_on_c, 0, 86, 0
2, 408240, Note_on_c, 0, 77, 53
2, 408240, Note_on_c, 0, 80, 53
2, 408240, Note_on_c, 0, 86, 53
2, 408240, Note_on_c, 0, 59, 53
2, 408420, Note_on_c, 0, 68, 112
2, 408420, Note_on_c, 0, 74, 112
2, 408420, Note_on_c, 0, 65, 112
2, 408435, Note_on_c, 0, 65, 0
2, 408435, Note_on_c, 0, 68, 0
2, 408435, Note_on_c, 0, 74, 0
2, 408480, Note_on_c, 0, 68, 117
2, 408480, Note_on_c, 0, 74, 117
2, 408480, Note_on_c, 0, 65, 117
2, 408540, Note_on_c, 0, 65, 0
2, 408540, Note_on_c, 0, 68, 0
2, 408540, Note_on_c, 0, 74, 0
2, 408595, Note_on_c, 0, 59, 0
2, 408595, Note_on_c, 0, 77, 0
2, 408595, Note_on_c, 0, 80, 0
2, 408595, Note_on_c, 0, 86, 0
2, 408600, Note_on_c, 0, 76, 53
2, 408600, Note_on_c, 0, 79, 53
2, 408600, Note_on_c, 0, 84, 53
2, 408600, Note_on_c, 0, 60, 53
2, 408780, Note_on_c, 0, 67, 103
2, 408780, Note_on_c, 0, 72, 103
2, 408780, Note_on_c, 0, 64, 103
2, 408795, Note_on_c, 0, 64, 0
2, 408795, Note_on_c, 0, 67, 0
2, 408795, Note_on_c, 0, 72, 0
2, 408840, Note_on_c, 0, 67, 96
2, 408840, Note_on_c, 0, 72, 96
2, 408840, Note_on_c, 0, 64, 96
2, 408900, Note_on_c, 0, 64, 0
2, 408900, Note_on_c, 0, 67, 0
2, 408900, Note_on_c, 0, 72, 0
2, 408955, Note_on_c, 0, 60, 0
2, 408955, Note_on_c, 0, 76, 0
2, 408955, Note_on_c, 0, 79, 0
2, 408955, Note_on_c, 0, 84, 0
2, 408960, Note_on_c, 0, 75, 95
2, 408960, Note_on_c, 0, 79, 95
2, 408960, Note_on_c, 0, 84, 95
2, 408960, Note_on_c, 0, 55, 95
2, 409140, Note_on_c, 0, 67, 81
2, 409140, Note_on_c, 0, 72, 81
2, 409140, Note_on_c, 0, 63, 81
2, 409155, Note_on_c, 0, 63, 0
2, 409155, Note_on_c, 0, 67, 0
2, 409155, Note_on_c, 0, 72, 0
2, 409200, Note_on_c, 0, 67, 74
2, 409200, Note_on_c, 0, 72, 74
2, 409200, Note_on_c, 0, 63, 74
2, 409260, Note_on_c, 0, 63, 0
2, 409260, Note_on_c, 0, 67, 0
2, 409260, Note_on_c, 0, 72, 0
2, 409315, Note_on_c, 0, 55, 0
2, 409315, Note_on_c, 0, 75, 0
2, 409315, Note_on_c, 0, 79, 0
2, 409315, Note_on_c, 0, 84, 0
2, 409320, Note_on_c, 0, 79, 95
2, 409320, Note_on_c, 0, 83, 95
2, 409320, Note_on_c, 0, 74, 95
2, 409500, Note_on_c, 0, 67, 60
2, 409500, Note_on_c, 0, 71, 60
2, 409500, Note_on_c, 0, 62, 60
2, 409515, Note_on_c, 0, 62, 0
2, 409515, Note_on_c, 0, 67, 0
2, 409515, Note_on_c, 0, 71, 0
2, 409560, Note_on_c, 0, 67, 53
2, 409560, Note_on_c, 0, 71, 53
2, 409560, Note_on_c, 0, 62, 53
2, 409620, Note_on_c, 0, 62, 0
2, 409620, Note_on_c, 0, 67, 0
2, 409620, Note_on_c, 0, 71, 0
2, 409675, Note_on_c, 0, 83, 0
2, 409675, Note_on_c, 0, 79, 0
2, 409675, Note_on_c, 0, 74, 0
2, 409680, Note_on_c, 0, 67, 60
2, 409860, Note_on_c, 0, 55, 53
2, 409880, Note_on_c, 0, 55, 0
2, 409920, Note_on_c, 0, 55, 53
2, 409980, Note_on_c, 0, 55, 0
2, 410035, Note_on_c, 0, 67, 0
2, 410040, Note_on_c, 0, 67, 68
2, 410040, Note_on_c, 0, 48, 53
2, 410220, Note_on_c, 0, 55, 53
2, 410235, Note_on_c, 0, 55, 0
2, 410280, Note_on_c, 0, 55, 53
2, 410340, Note_on_c, 0, 55, 0
2, 410395, Note_on_c, 0, 48, 0
2, 410395, Note_on_c, 0, 67, 0
2, 410400, Note_on_c, 0, 69, 75
2, 410400, Note_on_c, 0, 67, 75
2, 410400, Note_on_c, 0, 41, 53
2, 410580, Note_on_c, 0, 57, 53
2, 410580, Note_on_c, 0, 55, 53
2, 410595, Note_on_c, 0, 55, 0
2, 410595, Note_on_c, 0, 57, 0
2, 410640, Note_on_c, 0, 57, 53
2, 410640, Note_on_c, 0, 55, 53
2, 410700, Note_on_c, 0, 55, 0
2, 410700, Note_on_c, 0, 57, 0
2, 410755, Note_on_c, 0, 41, 0
2, 410755, Note_on_c, 0, 67, 0
2, 410755, Note_on_c, 0, 69, 0
2, 410760, Note_on_c, 0, 69, 83
2, 410760, Note_on_c, 0, 74, 83
2, 410760, Note_on_c, 0, 65, 83
2, 410760, Note_on_c, 0, 38, 53
2, 410940, Note_on_c, 0, 57, 53
2, 410940, Note_on_c, 0, 62, 53
2, 410940, Note_on_c, 0, 53, 53
2, 410955, Note_on_c, 0, 53, 0
2, 410955, Note_on_c, 0, 57, 0
2, 410955, Note_on_c, 0, 62, 0
2, 411000, Note_on_c, 0, 57, 53
2, 411000, Note_on_c, 0, 62, 53
2, 411000, Note_on_c, 0, 53, 53
2, 411060, Note_on_c, 0, 53, 0
2, 411060, Note_on_c, 0, 57, 0
2, 411060, Note_on_c, 0, 62, 0
2, 411115, Note_on_c, 0, 38, 0
2, 411115, Note_on_c, 0, 69, 0
2, 411115, Note_on_c, 0, 74, 0
2, 411115, Note_on_c, 0, 65, 0
2, 411120, Note_on_c, 0, 68, 90
2, 411120, Note_on_c, 0, 74, 90
2, 411120, Note_on_c, 0, 65, 90
2, 411120, Note_on_c, 0, 43, 53
2, 411300, Note_on_c, 0, 56, 53
2, 411300, Note_on_c, 0, 62, 53
2, 411300, Note_on_c, 0, 53, 53
2, 411315, Note_on_c, 0, 53, 0
2, 411315, Note_on_c, 0, 56, 0
2, 411315, Note_on_c, 0, 62, 0
2, 411360, Note_on_c, 0, 56, 53
2, 411360, Note_on_c, 0, 62, 53
2, 411360, Note_on_c, 0, 53, 53
2, 411420, Note_on_c, 0, 53, 0
2, 411420, Note_on_c, 0, 56, 0
2, 411420, Note_on_c, 0, 62, 0
2, 411475, Note_on_c, 0, 43, 0
2, 411475, Note_on_c, 0, 68, 0
2, 411475, Note_on_c, 0, 74, 0
2, 411475, Note_on_c, 0, 65, 0
2, 411480, Note_on_c, 0, 67, 97
2, 411480, Note_on_c, 0, 72, 97
2, 411480, Note_on_c, 0, 64, 97
2, 411480, Note_on_c, 0, 48, 53
2, 411660, Note_on_c, 0, 55, 53
2, 411660, Note_on_c, 0, 60, 53
2, 411660, Note_on_c, 0, 52, 53
2, 411675, Note_on_c, 0, 52, 0
2, 411675, Note_on_c, 0, 55, 0
2, 411675, Note_on_c, 0, 60, 0
2, 411720, Note_on_c, 0, 55, 53
2, 411720, Note_on_c, 0, 60, 53
2, 411720, Note_on_c, 0, 52, 53
2, 411780, Note_on_c, 0, 52, 0
2, 411780, Note_on_c, 0, 55, 0
2, 411780, Note_on_c, 0, 60, 0
2, 411835, Note_on_c, 0, 48, 0
2, 411835, Note_on_c, 0, 67, 0
2, 411835, Note_on_c, 0, 72, 0
2, 411835, Note_on_c, 0, 64, 0
2, 411840, Note_on_c, 0, 67, 105
2, 411840, Note_on_c, 0, 72, 105
2, 411840, Note_on_c, 0, 63, 105
2, 411840, Note_on_c, 0, 43, 53
2, 412020, Note_on_c, 0, 55, 53
2, 412020, Note_on_c, 0, 60, 53
2, 412020, Note_on_c, 0, 51, 53
2, 412035, Note_on_c, 0, 51, 0
2, 412035, Note_on_c, 0, 55, 0
2, 412035, Note_on_c, 0, 60, 0
2, 412080, Note_on_c, 0, 55, 53
2, 412080, Note_on_c, 0, 60, 53
2, 412080, Note_on_c, 0, 51, 53
2, 412140, Note_on_c, 0, 51, 0
2, 412140, Note_on_c, 0, 55, 0
2, 412140, Note_on_c, 0, 60, 0
2, 412195, Note_on_c, 0, 43, 0
2, 412195, Note_on_c, 0, 67, 0
2, 412195, Note_on_c, 0, 72, 0
2, 412195, Note_on_c, 0, 63, 0
2, 412200, Note_on_c, 0, 67, 112
2, 412200, Note_on_c, 0, 71, 112
2, 412200, Note_on_c, 0, 62, 112
2, 412200, Note_on_c, 0, 43, 53
2, 412380, Note_on_c, 0, 55, 53
2, 412380, Note_on_c, 0, 59, 53
2, 412380, Note_on_c, 0, 50, 53
2, 412395, Note_on_c, 0, 50, 0
2, 412395, Note_on_c, 0, 55, 0
2, 412395, Note_on_c, 0, 59, 0
2, 412440, Note_on_c, 0, 55, 53
2, 412440, Note_on_c, 0, 59, 53
2, 412440, Note_on_c, 0, 50, 53
2, 412500, Note_on_c, 0, 50, 0
2, 412500, Note_on_c, 0, 55, 0
2, 412500, Note_on_c, 0, 59, 0
2, 412555, Note_on_c, 0, 43, 0
2, 412555, Note_on_c, 0, 67, 0
2, 412555, Note_on_c, 0, 71, 0
2, 412555, Note_on_c, 0, 62, 0
2, 412560, Note_on_c, 0, 72, 117
2, 412560, Note_on_c, 0, 64, 117
2, 412560, Note_on_c, 0, 60, 95
2, 412560, Note_on_c, 0, 48, 95
2, 412620, Note_on_c, 0, 48, 0
2, 412620, Note_on_c, 0, 60, 0
2, 412740, Note_on_c, 0, 48, 95
2, 412740, Note_on_c, 0, 36, 95
2, 412770, Note_on_c, 0, 36, 0
2, 412770, Note_on_c, 0, 48, 0
2, 412795, Note_on_c, 0, 64, 0
2, 412795, Note_on_c, 0, 72, 0
2, 412800, Note_on_c, 0, 65, 117
2, 412800, Note_on_c, 0, 74, 117
2, 412800, Note_on_c, 0, 62, 117
2, 412800, Note_on_c, 0, 48, 95
2, 412800, Note_on_c, 0, 36, 95
2, 412860, Note_on_c, 0, 36, 0
2, 412860, Note_on_c, 0, 62, 0
2, 412860, Note_on_c, 0, 65, 0
2, 412860, Note_on_c, 0, 74, 0
2, 412860, Note_on_c, 0, 48, 0
2, 412860, Note_on_c, 0, 67, 117
2, 412860, Note_on_c, 0, 76, 117
2, 412860, Note_on_c, 0, 64, 117
2, 412920, Note_on_c, 0, 64, 0
2, 412920, Note_on_c, 0, 76, 0
2, 412920, Note_on_c, 0, 67, 0
2, 412920, Note_on_c, 0, 69, 117
2, 412920, Note_on_c, 0, 77, 117
2, 412920, Note_on_c, 0, 65, 117
2, 412920, Note_on_c, 0, 60, 95
2, 412920, Note_on_c, 0, 48, 95
2, 412980, Note_on_c, 0, 48, 0
2, 412980, Note_on_c, 0, 65, 0
2, 412980, Note_on_c, 0, 69, 0
2, 412980, Note_on_c, 0, 77, 0
2, 412980, Note_on_c, 0, 60, 0
2, 413100, Note_on_c, 0, 48, 95
2, 413100, Note_on_c, 0, 36, 95
2, 413130, Note_on_c, 0, 36, 0
2, 413130, Note_on_c, 0, 48, 0
2, 413160, Note_on_c, 0, 67, 117
2, 413160, Note_on_c, 0, 76, 117
2, 413160, Note_on_c, 0, 64, 117
2, 413160, Note_on_c, 0, 48, 95
2, 413160, Note_on_c, 0, 36, 95
2, 413220, Note_on_c, 0, 36, 0
2, 413220, Note_on_c, 0, 64, 0
2, 413220, Note_on_c, 0, 67, 0
2, 413220, Note_on_c, 0, 76, 0
2, 413220, Note_on_c, 0, 48, 0
2, 413280, Note_on_c, 0, 65, 117
2, 413280, Note_on_c, 0, 74, 117
2, 413280, Note_on_c, 0, 62, 117
2, 413280, Note_on_c, 0, 60, 95
2, 413280, Note_on_c, 0, 48, 95
2, 413400, Note_on_c, 0, 48, 0
2, 413400, Note_on_c, 0, 62, 0
2, 413400, Note_on_c, 0, 65, 0
2, 413400, Note_on_c, 0, 74, 0
2, 413400, Note_on_c, 0, 60, 0
2, 413460, Note_on_c, 0, 48, 95
2, 413460, Note_on_c, 0, 36, 95
2, 413490, Note_on_c, 0, 36, 0
2, 413490, Note_on_c, 0, 48, 0
2, 413520, Note_on_c, 0, 64, 117
2, 413520, Note_on_c, 0, 72, 117
2, 413520, Note_on_c, 0, 60, 117
2, 413520, Note_on_c, 0, 48, 95
2, 413520, Note_on_c, 0, 36, 95
2, 413580, Note_on_c, 0, 36, 0
2, 413580, Note_on_c, 0, 60, 0
2, 413580, Note_on_c, 0, 64, 0
2, 413580, Note_on_c, 0, 72, 0
2, 413580, Note_on_c, 0, 48, 0
2, 413640, Note_on_c, 0, 65, 117
2, 413640, Note_on_c, 0, 74, 117
2, 413640, Note_on_c, 0, 62, 117
2, 413640, Note_on_c, 0, 60, 95
2, 413640, Note_on_c, 0, 48, 95
2, 413760, Note_on_c, 0, 48, 0
2, 413760, Note_on_c, 0, 62, 0
2, 413760, Note_on_c, 0, 65, 0
2, 413760, Note_on_c, 0, 74, 0
2, 413760, Note_on_c, 0, 60, 0
2, 413820, Note_on_c, 0, 48, 95
2, 413820, Note_on_c, 0, 36, 95
2, 413850, Note_on_c, 0, 36, 0
2, 413850, Note_on_c, 0, 48, 0
2, 413880, Note_on_c, 0, 62, 117
2, 413880, Note_on_c, 0, 71, 117
2, 413880, Note_on_c, 0, 59, 117
2, 413880, Note_on_c, 0, 48, 95
2, 413880, Note_on_c, 0, 36, 95
2, 413935, Note_on_c, 0, 36, 0
2, 413935, Note_on_c, 0, 59, 0
2, 413935, Note_on_c, 0, 62, 0
2, 413935, Note_on_c, 0, 71, 0
2, 413935, Note_on_c, 0, 48, 0
2, 414000, Note_on_c, 0, 72, 117
2, 414000, Note_on_c, 0, 76, 117
2, 414000, Note_on_c, 0, 64, 117
2, 414000, Note_on_c, 0, 60, 95
2, 414000, Note_on_c, 0, 48, 95
2, 414060, Note_on_c, 0, 48, 0
2, 414060, Note_on_c, 0, 60, 0
2, 414180, Note_on_c, 0, 48, 95
2, 414180, Note_on_c, 0, 36, 95
2, 414210, Note_on_c, 0, 36, 0
2, 414210, Note_on_c, 0, 48, 0
2, 414235, Note_on_c, 0, 64, 0
2, 414235, Note_on_c, 0, 76, 0
2, 414235, Note_on_c, 0, 72, 0
2, 414240, Note_on_c, 0, 74, 117
2, 414240, Note_on_c, 0, 77, 117
2, 414240, Note_on_c, 0, 65, 117
2, 414240, Note_on_c, 0, 48, 95
2, 414240, Note_on_c, 0, 36, 95
2, 414295, Note_on_c, 0, 36, 0
2, 414295, Note_on_c, 0, 65, 0
2, 414295, Note_on_c, 0, 74, 0
2, 414295, Note_on_c, 0, 77, 0
2, 414295, Note_on_c, 0, 48, 0
2, 414300, Note_on_c, 0, 76, 117
2, 414300, Note_on_c, 0, 79, 117
2, 414300, Note_on_c, 0, 67, 117
2, 414355, Note_on_c, 0, 67, 0
2, 414355, Note_on_c, 0, 79, 0
2, 414355, Note_on_c, 0, 76, 0
2, 414360, Note_on_c, 0, 77, 117
2, 414360, Note_on_c, 0, 81, 117
2, 414360, Note_on_c, 0, 69, 117
2, 414360, Note_on_c, 0, 60, 95
2, 414360, Note_on_c, 0, 48, 95
2, 414475, Note_on_c, 0, 48, 0
2, 414475, Note_on_c, 0, 69, 0
2, 414475, Note_on_c, 0, 77, 0
2, 414475, Note_on_c, 0, 81, 0
2, 414475, Note_on_c, 0, 60, 0
2, 414540, Note_on_c, 0, 48, 95
2, 414540, Note_on_c, 0, 36, 95
2, 414570, Note_on_c, 0, 36, 0
2, 414570, Note_on_c, 0, 48, 0
2, 414600, Note_on_c, 0, 76, 117
2, 414600, Note_on_c, 0, 79, 117
2, 414600, Note_on_c, 0, 67, 117
2, 414600, Note_on_c, 0, 48, 95
2, 414600, Note_on_c, 0, 36, 95
2, 414660, Note_on_c, 0, 36, 0
2, 414660, Note_on_c, 0, 67, 0
2, 414660, Note_on_c, 0, 76, 0
2, 414660, Note_on_c, 0, 79, 0
2, 414660, Note_on_c, 0, 48, 0
2, 414720, Note_on_c, 0, 74, 117
2, 414720, Note_on_c, 0, 77, 117
2, 414720, Note_on_c, 0, 65, 117
2, 414720, Note_on_c, 0, 60, 95
2, 414720, Note_on_c, 0, 48, 95
2, 414840, Note_on_c, 0, 48, 0
2, 414840, Note_on_c, 0, 65, 0
2, 414840, Note_on_c, 0, 74, 0
2, 414840, Note_on_c, 0, 77, 0
2, 414840, Note_on_c, 0, 60, 0
2, 414900, Note_on_c, 0, 48, 95
2, 414900, Note_on_c, 0, 36, 95
2, 414930, Note_on_c, 0, 36, 0
2, 414930, Note_on_c, 0, 48, 0
2, 414960, Note_on_c, 0, 72, 117
2, 414960, Note_on_c, 0, 76, 117
2, 414960, Note_on_c, 0, 64, 117
2, 414960, Note_on_c, 0, 48, 95
2, 414960, Note_on_c, 0, 36, 95
2, 415020, Note_on_c, 0, 36, 0
2, 415020, Note_on_c, 0, 64, 0
2, 415020, Note_on_c, 0, 72, 0
2, 415020, Note_on_c, 0, 76, 0
2, 415020, Note_on_c, 0, 48, 0
2, 415080, Note_on_c, 0, 74, 117
2, 415080, Note_on_c, 0, 77, 117
2, 415080, Note_on_c, 0, 65, 117
2, 415080, Note_on_c, 0, 60, 95
2, 415080, Note_on_c, 0, 48, 95
2, 415200, Note_on_c, 0, 48, 0
2, 415200, Note_on_c, 0, 65, 0
2, 415200, Note_on_c, 0, 74, 0
2, 415200, Note_on_c, 0, 77, 0
2, 415200, Note_on_c, 0, 60, 0
2, 415260, Note_on_c, 0, 48, 95
2, 415260, Note_on_c, 0, 36, 95
2, 415290, Note_on_c, 0, 36, 0
2, 415290, Note_on_c, 0, 48, 0
2, 415320, Note_on_c, 0, 71, 117
2, 415320, Note_on_c, 0, 74, 117
2, 415320, Note_on_c, 0, 62, 117
2, 415320, Note_on_c, 0, 48, 95
2, 415320, Note_on_c, 0, 36, 95
2, 415380, Note_on_c, 0, 36, 0
2, 415380, Note_on_c, 0, 62, 0
2, 415380, Note_on_c, 0, 71, 0
2, 415380, Note_on_c, 0, 74, 0
2, 415380, Note_on_c, 0, 48, 0
2, 415440, Note_on_c, 0, 72, 117
2, 415440, Note_on_c, 0, 64, 117
2, 415440, Note_on_c, 0, 60, 95
2, 415440, Note_on_c, 0, 48, 95
2, 415500, Note_on_c, 0, 48, 0
2, 415500, Note_on_c, 0, 72, 0
2, 415500, Note_on_c, 0, 64, 0
2, 415500, Note_on_c, 0, 60, 0
2, 415560, Note_on_c, 0, 76, 117
2, 415560, Note_on_c, 0, 84, 117
2, 415560, Note_on_c, 0, 72, 117
2, 415620, Note_on_c, 0, 48, 95
2, 415620, Note_on_c, 0, 36, 95
2, 415650, Note_on_c, 0, 36, 0
2, 415650, Note_on_c, 0, 48, 0
2, 415675, Note_on_c, 0, 76, 0
2, 415675, Note_on_c, 0, 84, 0
2, 415675, Note_on_c, 0, 72, 0
2, 415680, Note_on_c, 0, 77, 117
2, 415680, Note_on_c, 0, 86, 117
2, 415680, Note_on_c, 0, 74, 117
2, 415680, Note_on_c, 0, 48, 95
2, 415680, Note_on_c, 0, 36, 95
2, 415740, Note_on_c, 0, 36, 0
2, 415740, Note_on_c, 0, 74, 0
2, 415740, Note_on_c, 0, 77, 0
2, 415740, Note_on_c, 0, 86, 0
2, 415740, Note_on_c, 0, 48, 0
2, 415740, Note_on_c, 0, 79, 117
2, 415740, Note_on_c, 0, 88, 117
2, 415740, Note_on_c, 0, 76, 117
2, 415800, Note_on_c, 0, 76, 0
2, 415800, Note_on_c, 0, 88, 0
2, 415800, Note_on_c, 0, 79, 0
2, 415800, Note_on_c, 0, 81, 117
2, 415800, Note_on_c, 0, 89, 117
2, 415800, Note_on_c, 0, 77, 117
2, 415800, Note_on_c, 0, 60, 95
2, 415800, Note_on_c, 0, 48, 95
2, 415850, Note_on_c, 0, 48, 0
2, 415850, Note_on_c, 0, 77, 0
2, 415850, Note_on_c, 0, 81, 0
2, 415850, Note_on_c, 0, 89, 0
2, 415850, Note_on_c, 0, 60, 0
2, 415920, Note_on_c, 0, 81, 117
2, 415920, Note_on_c, 0, 89, 117
2, 415920, Note_on_c, 0, 77, 117
2, 415970, Note_on_c, 0, 77, 0
2, 415970, Note_on_c, 0, 89, 0
2, 415970, Note_on_c, 0, 81, 0
2, 415980, Note_on_c, 0, 48, 95
2, 415980, Note_on_c, 0, 36, 95
2, 416005, Note_on_c, 0, 36, 0
2, 416005, Note_on_c, 0, 48, 0
2, 416040, Note_on_c, 0, 79, 117
2, 416040, Note_on_c, 0, 88, 117
2, 416040, Note_on_c, 0, 76, 117
2, 416040, Note_on_c, 0, 48, 95
2, 416040, Note_on_c, 0, 36, 95
2, 416155, Note_on_c, 0, 36, 0
2, 416155, Note_on_c, 0, 76, 0
2, 416155, Note_on_c, 0, 79, 0
2, 416155, Note_on_c, 0, 88, 0
2, 416155, Note_on_c, 0, 48, 0
2, 416160, Note_on_c, 0, 77, 117
2, 416160, Note_on_c, 0, 86, 117
2, 416160, Note_on_c, 0, 74, 117
2, 416160, Note_on_c, 0, 60, 95
2, 416160, Note_on_c, 0, 48, 95
2, 416275, Note_on_c, 0, 48, 0
2, 416275, Note_on_c, 0, 74, 0
2, 416275, Note_on_c, 0, 77, 0
2, 416275, Note_on_c, 0, 86, 0
2, 416275, Note_on_c, 0, 60, 0
2, 416280, Note_on_c, 0, 77, 117
2, 416280, Note_on_c, 0, 86, 117
2, 416280, Note_on_c, 0, 74, 117
2, 416340, Note_on_c, 0, 48, 95
2, 416340, Note_on_c, 0, 36, 95
2, 416370, Note_on_c, 0, 36, 0
2, 416370, Note_on_c, 0, 48, 0
2, 416395, Note_on_c, 0, 77, 0
2, 416395, Note_on_c, 0, 86, 0
2, 416395, Note_on_c, 0, 74, 0
2, 416400, Note_on_c, 0, 76, 117
2, 416400, Note_on_c, 0, 84, 117
2, 416400, Note_on_c, 0, 72, 117
2, 416400, Note_on_c, 0, 48, 95
2, 416400, Note_on_c, 0, 36, 95
2, 416515, Note_on_c, 0, 36, 0
2, 416515, Note_on_c, 0, 72, 0
2, 416515, Note_on_c, 0, 76, 0
2, 416515, Note_on_c, 0, 84, 0
2, 416515, Note_on_c, 0, 48, 0
2, 416520, Note_on_c, 0, 77, 117
2, 416520, Note_on_c, 0, 86, 117
2, 416520, Note_on_c, 0, 74, 117
2, 416520, Note_on_c, 0, 60, 95
2, 416520, Note_on_c, 0, 48, 95
2, 416635, Note_on_c, 0, 48, 0
2, 416635, Note_on_c, 0, 74, 0
2, 416635, Note_on_c, 0, 77, 0
2, 416635, Note_on_c, 0, 86, 0
2, 416635, Note_on_c, 0, 60, 0
2, 416640, Note_on_c, 0, 77, 117
2, 416640, Note_on_c, 0, 86, 117
2, 416640, Note_on_c, 0, 74, 117
2, 416700, Note_on_c, 0, 48, 95
2, 416700, Note_on_c, 0, 36, 95
2, 416730, Note_on_c, 0, 36, 0
2, 416730, Note_on_c, 0, 48, 0
2, 416755, Note_on_c, 0, 77, 0
2, 416755, Note_on_c, 0, 86, 0
2, 416755, Note_on_c, 0, 74, 0
2, 416760, Note_on_c, 0, 74, 117
2, 416760, Note_on_c, 0, 83, 117
2, 416760, Note_on_c, 0, 71, 117
2, 416760, Note_on_c, 0, 48, 95
2, 416760, Note_on_c, 0, 36, 95
2, 416875, Note_on_c, 0, 36, 0
2, 416875, Note_on_c, 0, 71, 0
2, 416875, Note_on_c, 0, 74, 0
2, 416875, Note_on_c, 0, 83, 0
2, 416875, Note_on_c, 0, 48, 0
2, 416880, Note_on_c, 0, 84, 117
2, 416880, Note_on_c, 0, 88, 117
2, 416880, Note_on_c, 0, 76, 117
2, 416880, Note_on_c, 0, 60, 95
2, 416880, Note_on_c, 0, 48, 95
2, 416995, Note_on_c, 0, 48, 0
2, 416995, Note_on_c, 0, 76, 0
2, 416995, Note_on_c, 0, 84, 0
2, 416995, Note_on_c, 0, 88, 0
2, 416995, Note_on_c, 0, 60, 0
2, 417000, Note_on_c, 0, 84, 117
2, 417000, Note_on_c, 0, 88, 117
2, 417000, Note_on_c, 0, 76, 117
2, 417060, Note_on_c, 0, 48, 95
2, 417060, Note_on_c, 0, 36, 95
2, 417090, Note_on_c, 0, 36, 0
2, 417090, Note_on_c, 0, 48, 0
2, 417115, Note_on_c, 0, 84, 0
2, 417115, Note_on_c, 0, 88, 0
2, 417115, Note_on_c, 0, 76, 0
2, 417120, Note_on_c, 0, 86, 117
2, 417120, Note_on_c, 0, 89, 117
2, 417120, Note_on_c, 0, 77, 117
2, 417120, Note_on_c, 0, 48, 95
2, 417120, Note_on_c, 0, 36, 95
2, 417175, Note_on_c, 0, 36, 0
2, 417175, Note_on_c, 0, 77, 0
2, 417175, Note_on_c, 0, 86, 0
2, 417175, Note_on_c, 0, 89, 0
2, 417175, Note_on_c, 0, 48, 0
2, 417180, Note_on_c, 0, 88, 117
2, 417180, Note_on_c, 0, 91, 117
2, 417180, Note_on_c, 0, 79, 117
2, 417235, Note_on_c, 0, 79, 0
2, 417235, Note_on_c, 0, 91, 0
2, 417235, Note_on_c, 0, 88, 0
2, 417240, Note_on_c, 0, 89, 117
2, 417240, Note_on_c, 0, 93, 117
2, 417240, Note_on_c, 0, 81, 117
2, 417240, Note_on_c, 0, 60, 95
2, 417240, Note_on_c, 0, 48, 95
2, 417355, Note_on_c, 0, 48, 0
2, 417355, Note_on_c, 0, 81, 0
2, 417355, Note_on_c, 0, 89, 0
2, 417355, Note_on_c, 0, 93, 0
2, 417355, Note_on_c, 0, 60, 0
2, 417360, Note_on_c, 0, 89, 117
2, 417360, Note_on_c, 0, 93, 117
2, 417360, Note_on_c, 0, 81, 117
2, 417420, Note_on_c, 0, 48, 95
2, 417420, Note_on_c, 0, 36, 95
2, 417450, Note_on_c, 0, 36, 0
2, 417450, Note_on_c, 0, 48, 0
2, 417475, Note_on_c, 0, 89, 0
2, 417475, Note_on_c, 0, 93, 0
2, 417475, Note_on_c, 0, 81, 0
2, 417480, Note_on_c, 0, 88, 117
2, 417480, Note_on_c, 0, 91, 117
2, 417480, Note_on_c, 0, 79, 117
2, 417480, Note_on_c, 0, 48, 95
2, 417480, Note_on_c, 0, 36, 95
2, 417595, Note_on_c, 0, 36, 0
2, 417595, Note_on_c, 0, 79, 0
2, 417595, Note_on_c, 0, 88, 0
2, 417595, Note_on_c, 0, 91, 0
2, 417595, Note_on_c, 0, 48, 0
2, 417600, Note_on_c, 0, 86, 117
2, 417600, Note_on_c, 0, 89, 117
2, 417600, Note_on_c, 0, 77, 117
2, 417600, Note_on_c, 0, 60, 95
2, 417600, Note_on_c, 0, 48, 95
2, 417715, Note_on_c, 0, 48, 0
2, 417715, Note_on_c, 0, 77, 0
2, 417715, Note_on_c, 0, 86, 0
2, 417715, Note_on_c, 0, 89, 0
2, 417715, Note_on_c, 0, 60, 0
2, 417720, Note_on_c, 0, 86, 117
2, 417720, Note_on_c, 0, 89, 117
2, 417720, Note_on_c, 0, 77, 117
2, 417780, Note_on_c, 0, 48, 95
2, 417780, Note_on_c, 0, 36, 95
2, 417810, Note_on_c, 0, 36, 0
2, 417810, Note_on_c, 0, 48, 0
2, 417835, Note_on_c, 0, 86, 0
2, 417835, Note_on_c, 0, 89, 0
2, 417835, Note_on_c, 0, 77, 0
2, 417840, Note_on_c, 0, 84, 117
2, 417840, Note_on_c, 0, 88, 117
2, 417840, Note_on_c, 0, 76, 117
2, 417840, Note_on_c, 0, 48, 95
2, 417840, Note_on_c, 0, 36, 95
2, 417955, Note_on_c, 0, 36, 0
2, 417955, Note_on_c, 0, 76, 0
2, 417955, Note_on_c, 0, 84, 0
2, 417955, Note_on_c, 0, 88, 0
2, 417955, Note_on_c, 0, 48, 0
2, 417960, Note_on_c, 0, 86, 117
2, 417960, Note_on_c, 0, 89, 117
2, 417960, Note_on_c, 0, 77, 117
2, 417960, Note_on_c, 0, 60, 95
2, 417960, Note_on_c, 0, 48, 95
2, 418075, Note_on_c, 0, 48, 0
2, 418075, Note_on_c, 0, 77, 0
2, 418075, Note_on_c, 0, 86, 0
2, 418075, Note_on_c, 0, 89, 0
2, 418075, Note_on_c, 0, 60, 0
2, 418080, Note_on_c, 0, 86, 117
2, 418080, Note_on_c, 0, 89, 117
2, 418080, Note_on_c, 0, 77, 117
2, 418140, Note_on_c, 0, 48, 95
2, 418140, Note_on_c, 0, 36, 95
2, 418170, Note_on_c, 0, 36, 0
2, 418170, Note_on_c, 0, 48, 0
2, 418195, Note_on_c, 0, 86, 0
2, 418195, Note_on_c, 0, 89, 0
2, 418195, Note_on_c, 0, 77, 0
2, 418200, Note_on_c, 0, 83, 117
2, 418200, Note_on_c, 0, 86, 117
2, 418200, Note_on_c, 0, 74, 117
2, 418200, Note_on_c, 0, 48, 95
2, 418200, Note_on_c, 0, 36, 95
2, 418315, Note_on_c, 0, 36, 0
2, 418315, Note_on_c, 0, 74, 0
2, 418315, Note_on_c, 0, 83, 0
2, 418315, Note_on_c, 0, 86, 0
2, 418315, Note_on_c, 0, 48, 0
2, 418320, Note_on_c, 0, 88, 117
2, 418320, Note_on_c, 0, 76, 117
2, 418320, Note_on_c, 0, 60, 95
2, 418320, Note_on_c, 0, 48, 95
2, 418435, Note_on_c, 0, 48, 0
2, 418435, Note_on_c, 0, 88, 0
2, 418435, Note_on_c, 0, 76, 0
2, 418435, Note_on_c, 0, 60, 0
2, 418500, Note_on_c, 0, 76, 117
2, 418500, Note_on_c, 0, 64, 117
2, 418500, Note_on_c, 0, 48, 95
2, 418500, Note_on_c, 0, 36, 95
2, 418530, Note_on_c, 0, 36, 0
2, 418530, Note_on_c, 0, 76, 0
2, 418530, Note_on_c, 0, 64, 0
2, 418530, Note_on_c, 0, 48, 0
2, 418560, Note_on_c, 0, 76, 117
2, 418560, Note_on_c, 0, 64, 117
2, 418560, Note_on_c, 0, 48, 95
2, 418560, Note_on_c, 0, 36, 95
2, 418650, Note_on_c, 0, 36, 0
2, 418650, Note_on_c, 0, 76, 0
2, 418650, Note_on_c, 0, 64, 0
2, 418650, Note_on_c, 0, 48, 0
2, 418680, Note_on_c, 0, 88, 117
2, 418680, Note_on_c, 0, 76, 117
2, 418680, Note_on_c, 0, 60, 95
2, 418680, Note_on_c, 0, 48, 95
2, 418740, Note_on_c, 0, 48, 0
2, 418740, Note_on_c, 0, 88, 0
2, 418740, Note_on_c, 0, 76, 0
2, 418740, Note_on_c, 0, 60, 0
2, 418800, Note_on_c, 0, 89, 117
2, 418800, Note_on_c, 0, 77, 117
2, 418800, Note_on_c, 0, 62, 95
2, 418800, Note_on_c, 0, 50, 95
2, 418860, Note_on_c, 0, 50, 0
2, 418860, Note_on_c, 0, 89, 0
2, 418860, Note_on_c, 0, 77, 0
2, 418860, Note_on_c, 0, 62, 0
2, 418920, Note_on_c, 0, 91, 117
2, 418920, Note_on_c, 0, 79, 117
2, 418920, Note_on_c, 0, 64, 95
2, 418920, Note_on_c, 0, 52, 95
2, 418980, Note_on_c, 0, 52, 0
2, 418980, Note_on_c, 0, 91, 0
2, 418980, Note_on_c, 0, 79, 0
2, 418980, Note_on_c, 0, 64, 0
2, 419040, Note_on_c, 0, 93, 117
2, 419040, Note_on_c, 0, 81, 117
2, 419040, Note_on_c, 0, 65, 95
2, 419040, Note_on_c, 0, 53, 95
2, 419100, Note_on_c, 0, 53, 0
2, 419100, Note_on_c, 0, 93, 0
2, 419100, Note_on_c, 0, 81, 0
2, 419100, Note_on_c, 0, 65, 0
2, 419220, Note_on_c, 0, 45, 95
2, 419220, Note_on_c, 0, 41, 95
2, 419250, Note_on_c, 0, 41, 0
2, 419250, Note_on_c, 0, 45, 0
2, 419280, Note_on_c, 0, 45, 95
2, 419280, Note_on_c, 0, 41, 95
2, 419395, Note_on_c, 0, 41, 0
2, 419395, Note_on_c, 0, 45, 0
2, 419400, Note_on_c, 0, 81, 117
2, 419400, Note_on_c, 0, 69, 117
2, 419400, Note_on_c, 0, 57, 95
2, 419400, Note_on_c, 0, 53, 95
2, 419515, Note_on_c, 0, 53, 0
2, 419515, Note_on_c, 0, 81, 0
2, 419515, Note_on_c, 0, 69, 0
2, 419515, Note_on_c, 0, 57, 0
2, 419520, Note_on_c, 0, 83, 117
2, 419520, Note_on_c, 0, 71, 117
2, 419520, Note_on_c, 0, 53, 95
2, 419520, Note_on_c, 0, 50, 95
2, 419635, Note_on_c, 0, 50, 0
2, 419635, Note_on_c, 0, 83, 0
2, 419635, Note_on_c, 0, 71, 0
2, 419635, Note_on_c, 0, 53, 0
2, 419640, Note_on_c, 0, 84, 117
2, 419640, Note_on_c, 0, 72, 117
2, 419640, Note_on_c, 0, 52, 95
2, 419640, Note_on_c, 0, 48, 95
2, 419755, Note_on_c, 0, 48, 0
2, 419755, Note_on_c, 0, 84, 0
2, 419755, Note_on_c, 0, 72, 0
2, 419755, Note_on_c, 0, 52, 0
2, 419760, Note_on_c, 0, 86, 117
2, 419760, Note_on_c, 0, 74, 117
2, 419760, Note_on_c, 0, 50, 95
2, 419760, Note_on_c, 0, 59, 95
2, 419760, Note_on_c, 0, 47, 95
2, 419875, Note_on_c, 0, 47, 0
2, 419875, Note_on_c, 0, 50, 0
2, 419875, Note_on_c, 0, 86, 0
2, 419875, Note_on_c, 0, 74, 0
2, 419875, Note_on_c, 0, 59, 0
2, 419940, Note_on_c, 0, 74, 117
2, 419940, Note_on_c, 0, 62, 117
2, 419940, Note_on_c, 0, 47, 95
2, 419940, Note_on_c, 0, 35, 95
2, 419970, Note_on_c, 0, 35, 0
2, 419970, Note_on_c, 0, 74, 0
2, 419970, Note_on_c, 0, 62, 0
2, 419970, Note_on_c, 0, 47, 0
2, 420000, Note_on_c, 0, 74, 117
2, 420000, Note_on_c, 0, 62, 117
2, 420000, Note_on_c, 0, 47, 95
2, 420000, Note_on_c, 0, 35, 95
2, 420115, Note_on_c, 0, 35, 0
2, 420115, Note_on_c, 0, 74, 0
2, 420115, Note_on_c, 0, 62, 0
2, 420115, Note_on_c, 0, 47, 0
2, 420120, Note_on_c, 0, 86, 117
2, 420120, Note_on_c, 0, 74, 117
2, 420120, Note_on_c, 0, 59, 95
2, 420120, Note_on_c, 0, 47, 95
2, 420235, Note_on_c, 0, 47, 0
2, 420235, Note_on_c, 0, 86, 0
2, 420235, Note_on_c, 0, 74, 0
2, 420235, Note_on_c, 0, 59, 0
2, 420240, Note_on_c, 0, 88, 117
2, 420240, Note_on_c, 0, 76, 117
2, 420240, Note_on_c, 0, 60, 95
2, 420240, Note_on_c, 0, 48, 95
2, 420355, Note_on_c, 0, 48, 0
2, 420355, Note_on_c, 0, 88, 0
2, 420355, Note_on_c, 0, 76, 0
2, 420355, Note_on_c, 0, 60, 0
2, 420360, Note_on_c, 0, 89, 117
2, 420360, Note_on_c, 0, 77, 117
2, 420360, Note_on_c, 0, 62, 95
2, 420360, Note_on_c, 0, 50, 95
2, 420475, Note_on_c, 0, 50, 0
2, 420475, Note_on_c, 0, 89, 0
2, 420475, Note_on_c, 0, 77, 0
2, 420475, Note_on_c, 0, 62, 0
2, 420480, Note_on_c, 0, 91, 117
2, 420480, Note_on_c, 0, 79, 117
2, 420480, Note_on_c, 0, 64, 95
2, 420480, Note_on_c, 0, 52, 95
2, 420595, Note_on_c, 0, 52, 0
2, 420595, Note_on_c, 0, 91, 0
2, 420595, Note_on_c, 0, 79, 0
2, 420595, Note_on_c, 0, 64, 0
2, 420660, Note_on_c, 0, 43, 95
2, 420660, Note_on_c, 0, 40, 95
2, 420690, Note_on_c, 0, 40, 0
2, 420690, Note_on_c, 0, 43, 0
2, 420720, Note_on_c, 0, 43, 95
2, 420720, Note_on_c, 0, 40, 95
2, 420835, Note_on_c, 0, 40, 0
2, 420835, Note_on_c, 0, 43, 0
2, 420840, Note_on_c, 0, 67, 117
2, 420840, Note_on_c, 0, 55, 95
2, 420840, Note_on_c, 0, 52, 95
2, 420955, Note_on_c, 0, 52, 0
2, 420955, Note_on_c, 0, 55, 0
2, 420955, Note_on_c, 0, 67, 0
2, 420960, Note_on_c, 0, 64, 117
2, 420960, Note_on_c, 0, 48, 95
2, 421075, Note_on_c, 0, 48, 0
2, 421075, Note_on_c, 0, 64, 0
2, 421080, Note_on_c, 0, 62, 117
2, 421080, Note_on_c, 0, 47, 95
2, 421195, Note_on_c, 0, 47, 0
2, 421195, Note_on_c, 0, 62, 0
2, 421200, Note_on_c, 0, 60, 53
2, 421200, Note_on_c, 0, 52, 53
2, 421200, Note_on_c, 0, 55, 53
2, 421200, Note_on_c, 0, 72, 53
2, 421200, Note_on_c, 0, 46, 53
2, 421320, Note_on_c, 0, 65, 53
2, 421320, Note_on_c, 0, 50, 53
2, 421350, Note_on_c, 0, 52, 0
2, 421350, Note_on_c, 0, 60, 0
2, 421435, Note_on_c, 0, 65, 0
2, 421435, Note_on_c, 0, 50, 0
2, 421440, Note_on_c, 0, 64, 53
2, 421440, Note_on_c, 0, 48, 53
2, 421555, Note_on_c, 0, 48, 0
2, 421560, Note_on_c, 0, 64, 53
2, 421560, Note_on_c, 0, 55, 53
2, 421585, Note_on_c, 0, 64, 0
2, 421675, Note_on_c, 0, 46, 0
2, 421675, Note_on_c, 0, 72, 0
2, 421675, Note_on_c, 0, 55, 0
2, 421675, Note_on_c, 0, 55, 0
2, 421675, Note_on_c, 0, 64, 0
2, 421680, Note_on_c, 0, 65, 53
2, 421680, Note_on_c, 0, 74, 53
2, 421680, Note_on_c, 0, 53, 53
2, 421795, Note_on_c, 0, 53, 0
2, 421795, Note_on_c, 0, 74, 0
2, 421795, Note_on_c, 0, 65, 0
2, 421800, Note_on_c, 0, 67, 53
2, 421800, Note_on_c, 0, 76, 53
2, 421800, Note_on_c, 0, 52, 53
2, 421915, Note_on_c, 0, 52, 0
2, 421915, Note_on_c, 0, 76, 0
2, 421915, Note_on_c, 0, 67, 0
2, 421920, Note_on_c, 0, 55, 60
2, 421920, Note_on_c, 0, 65, 60
2, 421920, Note_on_c, 0, 50, 60
2, 421920, Note_on_c, 0, 77, 74
2, 421920, Note_on_c, 0, 46, 74
2, 422035, Note_on_c, 0, 50, 0
2, 422035, Note_on_c, 0, 55, 0
2, 422035, Note_on_c, 0, 65, 0
2, 422040, Note_on_c, 0, 64, 67
2, 422040, Note_on_c, 0, 48, 67
2, 422155, Note_on_c, 0, 48, 0
2, 422155, Note_on_c, 0, 46, 0
2, 422155, Note_on_c, 0, 77, 0
2, 422155, Note_on_c, 0, 64, 0
2, 422160, Note_on_c, 0, 65, 74
2, 422160, Note_on_c, 0, 50, 74
2, 422275, Note_on_c, 0, 50, 0
2, 422275, Note_on_c, 0, 65, 0
2, 422280, Note_on_c, 0, 67, 81
2, 422280, Note_on_c, 0, 52, 81
2, 422280, Note_on_c, 0, 76, 96
2, 422395, Note_on_c, 0, 52, 0
2, 422395, Note_on_c, 0, 67, 0
2, 422400, Note_on_c, 0, 53, 89
2, 422400, Note_on_c, 0, 60, 89
2, 422400, Note_on_c, 0, 45, 89
2, 422515, Note_on_c, 0, 45, 0
2, 422515, Note_on_c, 0, 76, 0
2, 422515, Note_on_c, 0, 53, 0
2, 422515, Note_on_c, 0, 60, 0
2, 422520, Note_on_c, 0, 55, 96
2, 422520, Note_on_c, 0, 72, 96
2, 422520, Note_on_c, 0, 43, 96
2, 422635, Note_on_c, 0, 43, 0
2, 422635, Note_on_c, 0, 55, 0
2, 422640, Note_on_c, 0, 72, 117
2, 422640, Note_on_c, 0, 76, 117
2, 422640, Note_on_c, 0, 64, 117
2, 422640, Note_on_c, 0, 54, 103
2, 422640, Note_on_c, 0, 45, 103
2, 422665, Note_on_c, 0, 72, 0
2, 422750, Note_on_c, 0, 54, 0
2, 422750, Note_on_c, 0, 45, 0
2, 422755, Note_on_c, 0, 72, 0
2, 422760, Note_on_c, 0, 55, 110
2, 422760, Note_on_c, 0, 43, 110
2, 422875, Note_on_c, 0, 43, 0
2, 422875, Note_on_c, 0, 64, 0
2, 422875, Note_on_c, 0, 76, 0
2, 422875, Note_on_c, 0, 55, 0
2, 422880, Note_on_c, 0, 57, 117
2, 422880, Note_on_c, 0, 42, 117
2, 422995, Note_on_c, 0, 42, 0
2, 422995, Note_on_c, 0, 57, 0
2, 423000, Note_on_c, 0, 55, 85
2, 423000, Note_on_c, 0, 43, 85
2, 423115, Note_on_c, 0, 55, 0
2, 423120, Note_on_c, 0, 74, 53
2, 423120, Note_on_c, 0, 62, 53
2, 423120, Note_on_c, 0, 53, 53
2, 423120, Note_on_c, 0, 43, 53
2, 423145, Note_on_c, 0, 43, 0
2, 423235, Note_on_c, 0, 53, 0
2, 423235, Note_on_c, 0, 74, 0
2, 423235, Note_on_c, 0, 62, 0
2, 423235, Note_on_c, 0, 43, 0
2, 423240, Note_on_c, 0, 72, 21
2, 423240, Note_on_c, 0, 60, 21
2, 423240, Note_on_c, 0, 52, 21
2, 423240, Note_on_c, 0, 43, 21
2, 423355, Note_on_c, 0, 43, 0
2, 423355, Note_on_c, 0, 72, 0
2, 423355, Note_on_c, 0, 60, 0
2, 423355, Note_on_c, 0, 52, 0
2, 423360, Note_on_c, 0, 84, 21
2, 423360, Note_on_c, 0, 89, 21
2, 423360, Note_on_c, 0, 77, 21
2, 423360, Note_on_c, 0, 55, 21
2, 423360, Note_on_c, 0, 58, 21
2, 423360, Note_on_c, 0, 67, 21
2, 423360, Note_on_c, 0, 46, 21
2, 423475, Note_on_c, 0, 67, 0
2, 423480, Note_on_c, 0, 60, 21
2, 423595, Note_on_c, 0, 60, 0
2, 423595, Note_on_c, 0, 46, 0
2, 423595, Note_on_c, 0, 89, 0
2, 423595, Note_on_c, 0, 77, 0
2, 423595, Note_on_c, 0, 84, 0
2, 423595, Note_on_c, 0, 58, 0
2, 423595, Note_on_c, 0, 55, 0
2, 423600, Note_on_c, 0, 62, 21
2, 423715, Note_on_c, 0, 62, 0
2, 423720, Note_on_c, 0, 84, 51
2, 423720, Note_on_c, 0, 88, 51
2, 423720, Note_on_c, 0, 76, 51
2, 423720, Note_on_c, 0, 64, 31
2, 423835, Note_on_c, 0, 64, 0
2, 423840, Note_on_c, 0, 65, 41
2, 423840, Note_on_c, 0, 57, 41
2, 423955, Note_on_c, 0, 57, 0
2, 423955, Note_on_c, 0, 84, 0
2, 423955, Note_on_c, 0, 76, 0
2, 423955, Note_on_c, 0, 88, 0
2, 423955, Note_on_c, 0, 65, 0
2, 423960, Note_on_c, 0, 67, 51
2, 423960, Note_on_c, 0, 55, 51
2, 424075, Note_on_c, 0, 55, 0
2, 424075, Note_on_c, 0, 67, 0
2, 424080, Note_on_c, 0, 84, 82
2, 424080, Note_on_c, 0, 88, 82
2, 424080, Note_on_c, 0, 76, 82
2, 424080, Note_on_c, 0, 66, 61
2, 424080, Note_on_c, 0, 57, 61
2, 424195, Note_on_c, 0, 57, 0
2, 424195, Note_on_c, 0, 66, 0
2, 424200, Note_on_c, 0, 67, 72
2, 424200, Note_on_c, 0, 55, 72
2, 424315, Note_on_c, 0, 55, 0
2, 424315, Note_on_c, 0, 84, 0
2, 424315, Note_on_c, 0, 76, 0
2, 424315, Note_on_c, 0, 88, 0
2, 424315, Note_on_c, 0, 67, 0
2, 424320, Note_on_c, 0, 69, 82
2, 424320, Note_on_c, 0, 54, 82
2, 424435, Note_on_c, 0, 54, 0
2, 424435, Note_on_c, 0, 69, 0
2, 424440, Note_on_c, 0, 67, 92
2, 424440, Note_on_c, 0, 55, 92
2, 424555, Note_on_c, 0, 55, 0
2, 424555, Note_on_c, 0, 67, 0
2, 424560, Note_on_c, 0, 86, 102
2, 424560, Note_on_c, 0, 89, 102
2, 424560, Note_on_c, 0, 77, 102
2, 424560, Note_on_c, 0, 65, 102
2, 424560, Note_on_c, 0, 53, 102
2, 424675, Note_on_c, 0, 53, 0
2, 424675, Note_on_c, 0, 77, 0
2, 424675, Note_on_c, 0, 86, 0
2, 424675, Note_on_c, 0, 89, 0
2, 424675, Note_on_c, 0, 65, 0
2, 424680, Note_on_c, 0, 88, 112
2, 424680, Note_on_c, 0, 91, 112
2, 424680, Note_on_c, 0, 79, 112
2, 424680, Note_on_c, 0, 64, 112
2, 424680, Note_on_c, 0, 52, 112
2, 424795, Note_on_c, 0, 52, 0
2, 424795, Note_on_c, 0, 79, 0
2, 424795, Note_on_c, 0, 88, 0
2, 424795, Note_on_c, 0, 91, 0
2, 424795, Note_on_c, 0, 64, 0
2, 424800, Note_on_c, 0, 91, 117
2, 424800, Note_on_c, 0, 79, 117
2, 424800, Note_on_c, 0, 64, 117
2, 424800, Note_on_c, 0, 52, 117
2, 424860, Note_on_c, 0, 52, 0
2, 424860, Note_on_c, 0, 91, 0
2, 424860, Note_on_c, 0, 79, 0
2, 424860, Note_on_c, 0, 64, 0
2, 424920, Note_on_c, 0, 88, 117
2, 424920, Note_on_c, 0, 76, 117
2, 424920, Note_on_c, 0, 60, 117
2, 424920, Note_on_c, 0, 48, 117
2, 424980, Note_on_c, 0, 48, 0
2, 424980, Note_on_c, 0, 88, 0
2, 424980, Note_on_c, 0, 76, 0
2, 424980, Note_on_c, 0, 60, 0
2, 425040, Note_on_c, 0, 93, 117
2, 425040, Note_on_c, 0, 81, 117
2, 425040, Note_on_c, 0, 65, 117
2, 425040, Note_on_c, 0, 53, 117
2, 425100, Note_on_c, 0, 53, 0
2, 425100, Note_on_c, 0, 93, 0
2, 425100, Note_on_c, 0, 81, 0
2, 425100, Note_on_c, 0, 65, 0
2, 425160, Note_on_c, 0, 89, 95
2, 425160, Note_on_c, 0, 77, 95
2, 425160, Note_on_c, 0, 62, 95
2, 425160, Note_on_c, 0, 50, 95
2, 425220, Note_on_c, 0, 50, 0
2, 425220, Note_on_c, 0, 89, 0
2, 425220, Note_on_c, 0, 77, 0
2, 425220, Note_on_c, 0, 62, 0
2, 425280, Note_on_c, 0, 86, 71
2, 425280, Note_on_c, 0, 74, 71
2, 425280, Note_on_c, 0, 59, 71
2, 425280, Note_on_c, 0, 47, 71
2, 425340, Note_on_c, 0, 47, 0
2, 425340, Note_on_c, 0, 86, 0
2, 425340, Note_on_c, 0, 74, 0
2, 425340, Note_on_c, 0, 59, 0
2, 425400, Note_on_c, 0, 91, 71
2, 425400, Note_on_c, 0, 79, 71
2, 425400, Note_on_c, 0, 55, 71
2, 425400, Note_on_c, 0, 43, 71
2, 425460, Note_on_c, 0, 43, 0
2, 425460, Note_on_c, 0, 91, 0
2, 425460, Note_on_c, 0, 79, 0
2, 425460, Note_on_c, 0, 55, 0
2, 425520, Note_on_c, 0, 76, 95
2, 425520, Note_on_c, 0, 64, 95
2, 425520, Note_on_c, 0, 55, 95
2, 425520, Note_on_c, 0, 43, 95
2, 425580, Note_on_c, 0, 43, 0
2, 425580, Note_on_c, 0, 76, 0
2, 425580, Note_on_c, 0, 64, 0
2, 425580, Note_on_c, 0, 55, 0
2, 425640, Note_on_c, 0, 72, 71
2, 425640, Note_on_c, 0, 64, 71
2, 425640, Note_on_c, 0, 60, 71
2, 425640, Note_on_c, 0, 48, 71
2, 425700, Note_on_c, 0, 48, 0
2, 425700, Note_on_c, 0, 72, 0
2, 425700, Note_on_c, 0, 64, 0
2, 425700, Note_on_c, 0, 60, 0
2, 425760, Note_on_c, 0, 72, 71
2, 425760, Note_on_c, 0, 77, 71
2, 425760, Note_on_c, 0, 65, 71
2, 425760, Note_on_c, 0, 57, 71
2, 425760, Note_on_c, 0, 45, 71
2, 425820, Note_on_c, 0, 45, 0
2, 425820, Note_on_c, 0, 65, 0
2, 425820, Note_on_c, 0, 72, 0
2, 425820, Note_on_c, 0, 77, 0
2, 425820, Note_on_c, 0, 57, 0
2, 425880, Note_on_c, 0, 69, 95
2, 425880, Note_on_c, 0, 74, 95
2, 425880, Note_on_c, 0, 62, 95
2, 425880, Note_on_c, 0, 53, 95
2, 425880, Note_on_c, 0, 41, 95
2, 425940, Note_on_c, 0, 41, 0
2, 425940, Note_on_c, 0, 62, 0
2, 425940, Note_on_c, 0, 69, 0
2, 425940, Note_on_c, 0, 74, 0
2, 425940, Note_on_c, 0, 53, 0
2, 426000, Note_on_c, 0, 71, 71
2, 426000, Note_on_c, 0, 67, 71
2, 426000, Note_on_c, 0, 55, 71
2, 426000, Note_on_c, 0, 43, 71
2, 426060, Note_on_c, 0, 43, 0
2, 426060, Note_on_c, 0, 71, 0
2, 426060, Note_on_c, 0, 67, 0
2, 426060, Note_on_c, 0, 55, 0
2, 426120, Note_on_c, 0, 72, 71
2, 426120, Note_on_c, 0, 76, 71
2, 426120, Note_on_c, 0, 64, 71
2, 426120, Note_on_c, 0, 55, 71
2, 426120, Note_on_c, 0, 43, 71
2, 426180, Note_on_c, 0, 43, 0
2, 426180, Note_on_c, 0, 64, 0
2, 426180, Note_on_c, 0, 72, 0
2, 426180, Note_on_c, 0, 76, 0
2, 426180, Note_on_c, 0, 55, 0
2, 426240, Note_on_c, 0, 88, 95
2, 426240, Note_on_c, 0, 91, 95
2, 426240, Note_on_c, 0, 79, 95
2, 426240, Note_on_c, 0, 48, 95
2, 426240, Note_on_c, 0, 36, 95
2, 426300, Note_on_c, 0, 36, 0
2, 426300, Note_on_c, 0, 79, 0
2, 426300, Note_on_c, 0, 88, 0
2, 426300, Note_on_c, 0, 91, 0
2, 426300, Note_on_c, 0, 48, 0
2, 426360, Note_on_c, 0, 88, 71
2, 426360, Note_on_c, 0, 76, 71
2, 426360, Note_on_c, 0, 60, 71
2, 426360, Note_on_c, 0, 48, 71
2, 426420, Note_on_c, 0, 48, 0
2, 426420, Note_on_c, 0, 88, 0
2, 426420, Note_on_c, 0, 76, 0
2, 426420, Note_on_c, 0, 60, 0
2, 426480, Note_on_c, 0, 93, 71
2, 426480, Note_on_c, 0, 81, 71
2, 426480, Note_on_c, 0, 65, 71
2, 426480, Note_on_c, 0, 53, 71
2, 426540, Note_on_c, 0, 53, 0
2, 426540, Note_on_c, 0, 93, 0
2, 426540, Note_on_c, 0, 81, 0
2, 426540, Note_on_c, 0, 65, 0
2, 426600, Note_on_c, 0, 89, 95
2, 426600, Note_on_c, 0, 77, 95
2, 426600, Note_on_c, 0, 62, 95
2, 426600, Note_on_c, 0, 50, 95
2, 426660, Note_on_c, 0, 50, 0
2, 426660, Note_on_c, 0, 89, 0
2, 426660, Note_on_c, 0, 77, 0
2, 426660, Note_on_c, 0, 62, 0
2, 426720, Note_on_c, 0, 86, 71
2, 426720, Note_on_c, 0, 74, 71
2, 426720, Note_on_c, 0, 59, 71
2, 426720, Note_on_c, 0, 47, 71
2, 426780, Note_on_c, 0, 47, 0
2, 426780, Note_on_c, 0, 86, 0
2, 426780, Note_on_c, 0, 74, 0
2, 426780, Note_on_c, 0, 59, 0
2, 426840, Note_on_c, 0, 91, 71
2, 426840, Note_on_c, 0, 79, 71
2, 426840, Note_on_c, 0, 55, 71
2, 426840, Note_on_c, 0, 43, 71
2, 426900, Note_on_c, 0, 43, 0
2, 426900, Note_on_c, 0, 91, 0
2, 426900, Note_on_c, 0, 79, 0
2, 426900, Note_on_c, 0, 55, 0
2, 426960, Note_on_c, 0, 76, 95
2, 426960, Note_on_c, 0, 79, 95
2, 426960, Note_on_c, 0, 67, 95
2, 426960, Note_on_c, 0, 55, 95
2, 426960, Note_on_c, 0, 43, 95
2, 427020, Note_on_c, 0, 43, 0
2, 427020, Note_on_c, 0, 67, 0
2, 427020, Note_on_c, 0, 76, 0
2, 427020, Note_on_c, 0, 79, 0
2, 427020, Note_on_c, 0, 55, 0
2, 427080, Note_on_c, 0, 72, 71
2, 427080, Note_on_c, 0, 79, 71
2, 427080, Note_on_c, 0, 67, 71
2, 427080, Note_on_c, 0, 52, 71
2, 427080, Note_on_c, 0, 40, 71
2, 427140, Note_on_c, 0, 40, 0
2, 427140, Note_on_c, 0, 67, 0
2, 427140, Note_on_c, 0, 72, 0
2, 427140, Note_on_c, 0, 79, 0
2, 427140, Note_on_c, 0, 52, 0
2, 427200, Note_on_c, 0, 77, 71
2, 427200, Note_on_c, 0, 79, 71
2, 427200, Note_on_c, 0, 67, 71
2, 427200, Note_on_c, 0, 57, 71
2, 427200, Note_on_c, 0, 45, 71
2, 427260, Note_on_c, 0, 45, 0
2, 427260, Note_on_c, 0, 67, 0
2, 427260, Note_on_c, 0, 77, 0
2, 427260, Note_on_c, 0, 79, 0
2, 427260, Note_on_c, 0, 57, 0
2, 427320, Note_on_c, 0, 74, 95
2, 427320, Note_on_c, 0, 79, 95
2, 427320, Note_on_c, 0, 67, 95
2, 427320, Note_on_c, 0, 53, 95
2, 427320, Note_on_c, 0, 41, 95
2, 427380, Note_on_c, 0, 41, 0
2, 427380, Note_on_c, 0, 67, 0
2, 427380, Note_on_c, 0, 74, 0
2, 427380, Note_on_c, 0, 79, 0
2, 427380, Note_on_c, 0, 53, 0
2, 427440, Note_on_c, 0, 71, 71
2, 427440, Note_on_c, 0, 79, 71
2, 427440, Note_on_c, 0, 67, 71
2, 427440, Note_on_c, 0, 50, 71
2, 427440, Note_on_c, 0, 38, 71
2, 427500, Note_on_c, 0, 38, 0
2, 427500, Note_on_c, 0, 67, 0
2, 427500, Note_on_c, 0, 71, 0
2, 427500, Note_on_c, 0, 79, 0
2, 427500, Note_on_c, 0, 50, 0
2, 427560, Note_on_c, 0, 76, 71
2, 427560, Note_on_c, 0, 79, 71
2, 427560, Note_on_c, 0, 67, 71
2, 427560, Note_on_c, 0, 55, 71
2, 427560, Note_on_c, 0, 43, 71
2, 427620, Note_on_c, 0, 43, 0
2, 427620, Note_on_c, 0, 67, 0
2, 427620, Note_on_c, 0, 76, 0
2, 427620, Note_on_c, 0, 79, 0
2, 427620, Note_on_c, 0, 55, 0
2, 427680, Note_on_c, 0, 84, 95
2, 427680, Note_on_c, 0, 88, 95
2, 427680, Note_on_c, 0, 76, 95
2, 427680, Note_on_c, 0, 48, 95
2, 427680, Note_on_c, 0, 36, 95
2, 427795, Note_on_c, 0, 76, 0
2, 427795, Note_on_c, 0, 84, 0
2, 427795, Note_on_c, 0, 88, 0
2, 427800, Note_on_c, 0, 79, 71
2, 427800, Note_on_c, 0, 84, 71
2, 427800, Note_on_c, 0, 76, 71
2, 427860, Note_on_c, 0, 60, 95
2, 427890, Note_on_c, 0, 60, 0
2, 427910, Note_on_c, 0, 76, 0
2, 427915, Note_on_c, 0, 79, 0
2, 427915, Note_on_c, 0, 36, 0
2, 427915, Note_on_c, 0, 48, 0
2, 427915, Note_on_c, 0, 84, 0
2, 427920, Note_on_c, 0, 88, 71
2, 427920, Note_on_c, 0, 91, 71
2, 427920, Note_on_c, 0, 79, 71
2, 427920, Note_on_c, 0, 60, 95
2, 428035, Note_on_c, 0, 60, 0
2, 428035, Note_on_c, 0, 88, 0
2, 428035, Note_on_c, 0, 91, 0
2, 428035, Note_on_c, 0, 79, 0
2, 428040, Note_on_c, 0, 86, 95
2, 428040, Note_on_c, 0, 89, 95
2, 428040, Note_on_c, 0, 77, 95
2, 428040, Note_on_c, 0, 59, 95
2, 428040, Note_on_c, 0, 67, 95
2, 428040, Note_on_c, 0, 55, 95
2, 428155, Note_on_c, 0, 55, 0
2, 428155, Note_on_c, 0, 89, 0
2, 428155, Note_on_c, 0, 77, 0
2, 428155, Note_on_c, 0, 86, 0
2, 428155, Note_on_c, 0, 67, 0
2, 428155, Note_on_c, 0, 59, 0
2, 428160, Note_on_c, 0, 83, 71
2, 428160, Note_on_c, 0, 86, 71
2, 428160, Note_on_c, 0, 77, 71
2, 428220, Note_on_c, 0, 55, 71
2, 428220, Note_on_c, 0, 43, 71
2, 428250, Note_on_c, 0, 43, 0
2, 428250, Note_on_c, 0, 55, 0
2, 428275, Note_on_c, 0, 83, 0
2, 428275, Note_on_c, 0, 86, 0
2, 428275, Note_on_c, 0, 77, 0
2, 428280, Note_on_c, 0, 83, 71
2, 428280, Note_on_c, 0, 91, 71
2, 428280, Note_on_c, 0, 77, 71
2, 428280, Note_on_c, 0, 55, 71
2, 428280, Note_on_c, 0, 43, 71
2, 428395, Note_on_c, 0, 43, 0
2, 428395, Note_on_c, 0, 77, 0
2, 428395, Note_on_c, 0, 83, 0
2, 428395, Note_on_c, 0, 91, 0
2, 428395, Note_on_c, 0, 55, 0
2, 428400, Note_on_c, 0, 84, 95
2, 428400, Note_on_c, 0, 88, 95
2, 428400, Note_on_c, 0, 76, 95
2, 428400, Note_on_c, 0, 48, 95
2, 428400, Note_on_c, 0, 36, 95
2, 428515, Note_on_c, 0, 36, 0
2, 428515, Note_on_c, 0, 76, 0
2, 428515, Note_on_c, 0, 84, 0
2, 428515, Note_on_c, 0, 88, 0
2, 428515, Note_on_c, 0, 48, 0
2, 428520, Note_on_c, 0, 79, 95
2, 428520, Note_on_c, 0, 84, 95
2, 428520, Note_on_c, 0, 76, 95
2, 428580, Note_on_c, 0, 60, 71
2, 428610, Note_on_c, 0, 60, 0
2, 428635, Note_on_c, 0, 79, 0
2, 428635, Note_on_c, 0, 84, 0
2, 428635, Note_on_c, 0, 76, 0
2, 428640, Note_on_c, 0, 88, 95
2, 428640, Note_on_c, 0, 91, 95
2, 428640, Note_on_c, 0, 79, 95
2, 428640, Note_on_c, 0, 60, 71
2, 428755, Note_on_c, 0, 60, 0
2, 428755, Note_on_c, 0, 88, 0
2, 428755, Note_on_c, 0, 91, 0
2, 428755, Note_on_c, 0, 79, 0
2, 428760, Note_on_c, 0, 86, 95
2, 428760, Note_on_c, 0, 89, 95
2, 428760, Note_on_c, 0, 77, 95
2, 428760, Note_on_c, 0, 59, 95
2, 428760, Note_on_c, 0, 67, 95
2, 428760, Note_on_c, 0, 55, 95
2, 428875, Note_on_c, 0, 55, 0
2, 428875, Note_on_c, 0, 89, 0
2, 428875, Note_on_c, 0, 77, 0
2, 428875, Note_on_c, 0, 86, 0
2, 428875, Note_on_c, 0, 67, 0
2, 428875, Note_on_c, 0, 59, 0
2, 428880, Note_on_c, 0, 83, 71
2, 428880, Note_on_c, 0, 86, 71
2, 428880, Note_on_c, 0, 77, 71
2, 428940, Note_on_c, 0, 55, 71
2, 428940, Note_on_c, 0, 43, 71
2, 428970, Note_on_c, 0, 43, 0
2, 428970, Note_on_c, 0, 55, 0
2, 428995, Note_on_c, 0, 83, 0
2, 428995, Note_on_c, 0, 86, 0
2, 428995, Note_on_c, 0, 77, 0
2, 429000, Note_on_c, 0, 83, 71
2, 429000, Note_on_c, 0, 91, 71
2, 429000, Note_on_c, 0, 77, 71
2, 429000, Note_on_c, 0, 55, 71
2, 429000, Note_on_c, 0, 43, 71
2, 429115, Note_on_c, 0, 43, 0
2, 429115, Note_on_c, 0, 77, 0
2, 429115, Note_on_c, 0, 83, 0
2, 429115, Note_on_c, 0, 91, 0
2, 429115, Note_on_c, 0, 55, 0
2, 429120, Note_on_c, 0, 79, 53
2, 429120, Note_on_c, 0, 67, 53
2, 429120, Note_on_c, 0, 60, 53
2, 429120, Note_on_c, 0, 65, 53
2, 429120, Note_on_c, 0, 57, 53
2, 429235, Note_on_c, 0, 57, 0
2, 429235, Note_on_c, 0, 60, 0
2, 429235, Note_on_c, 0, 79, 0
2, 429235, Note_on_c, 0, 67, 0
2, 429235, Note_on_c, 0, 65, 0
2, 429240, Note_on_c, 0, 81, 53
2, 429240, Note_on_c, 0, 69, 53
2, 429240, Note_on_c, 0, 59, 53
2, 429240, Note_on_c, 0, 64, 53
2, 429240, Note_on_c, 0, 55, 53
2, 429355, Note_on_c, 0, 55, 0
2, 429355, Note_on_c, 0, 59, 0
2, 429355, Note_on_c, 0, 81, 0
2, 429355, Note_on_c, 0, 69, 0
2, 429355, Note_on_c, 0, 64, 0
2, 429360, Note_on_c, 0, 83, 53
2, 429360, Note_on_c, 0, 71, 53
2, 429360, Note_on_c, 0, 57, 53
2, 429360, Note_on_c, 0, 62, 53
2, 429360, Note_on_c, 0, 53, 53
2, 429475, Note_on_c, 0, 53, 0
2, 429475, Note_on_c, 0, 57, 0
2, 429475, Note_on_c, 0, 83, 0
2, 429475, Note_on_c, 0, 71, 0
2, 429475, Note_on_c, 0, 62, 0
2, 429480, Note_on_c, 0, 84, 53
2, 429480, Note_on_c, 0, 72, 53
2, 429480, Note_on_c, 0, 55, 53
2, 429480, Note_on_c, 0, 60, 53
2, 429480, Note_on_c, 0, 52, 53
2, 429595, Note_on_c, 0, 52, 0
2, 429595, Note_on_c, 0, 55, 0
2, 429595, Note_on_c, 0, 84, 0
2, 429595, Note_on_c, 0, 72, 0
2, 429595, Note_on_c, 0, 60, 0
2, 429600, Note_on_c, 0, 86, 53
2, 429600, Note_on_c, 0, 74, 53
2, 429600, Note_on_c, 0, 53, 53
2, 429600, Note_on_c, 0, 59, 53
2, 429600, Note_on_c, 0, 50, 53
2, 429715, Note_on_c, 0, 50, 0
2, 429715, Note_on_c, 0, 53, 0
2, 429715, Note_on_c, 0, 86, 0
2, 429715, Note_on_c, 0, 74, 0
2, 429715, Note_on_c, 0, 59, 0
2, 429720, Note_on_c, 0, 88, 53
2, 429720, Note_on_c, 0, 76, 53
2, 429720, Note_on_c, 0, 52, 53
2, 429720, Note_on_c, 0, 57, 53
2, 429720, Note_on_c, 0, 48, 53
2, 429835, Note_on_c, 0, 48, 0
2, 429835, Note_on_c, 0, 52, 0
2, 429835, Note_on_c, 0, 88, 0
2, 429835, Note_on_c, 0, 76, 0
2, 429835, Note_on_c, 0, 57, 0
2, 429840, Note_on_c, 0, 89, 53
2, 429840, Note_on_c, 0, 77, 53
2, 429840, Note_on_c, 0, 47, 53
2, 429840, Note_on_c, 0, 50, 53
2, 429840, Note_on_c, 0, 55, 53
2, 429840, Note_on_c, 0, 43, 53
2, 429955, Note_on_c, 0, 43, 0
2, 429955, Note_on_c, 0, 77, 0
2, 429955, Note_on_c, 0, 47, 0
2, 429955, Note_on_c, 0, 89, 0
2, 429955, Note_on_c, 0, 55, 0
2, 429955, Note_on_c, 0, 50, 0
2, 429960, Note_on_c, 0, 88, 53
2, 429960, Note_on_c, 0, 76, 53
2, 429960, Note_on_c, 0, 52, 53
2, 429960, Note_on_c, 0, 57, 53
2, 429960, Note_on_c, 0, 48, 53
2, 430075, Note_on_c, 0, 48, 0
2, 430075, Note_on_c, 0, 52, 0
2, 430075, Note_on_c, 0, 88, 0
2, 430075, Note_on_c, 0, 76, 0
2, 430075, Note_on_c, 0, 57, 0
2, 430080, Note_on_c, 0, 89, 53
2, 430080, Note_on_c, 0, 77, 53
2, 430080, Note_on_c, 0, 50, 53
2, 430080, Note_on_c, 0, 55, 53
2, 430080, Note_on_c, 0, 47, 53
2, 430195, Note_on_c, 0, 47, 0
2, 430195, Note_on_c, 0, 50, 0
2, 430195, Note_on_c, 0, 89, 0
2, 430195, Note_on_c, 0, 77, 0
2, 430195, Note_on_c, 0, 55, 0
2, 430200, Note_on_c, 0, 91, 53
2, 430200, Note_on_c, 0, 79, 53
2, 430200, Note_on_c, 0, 60, 53
2, 430200, Note_on_c, 0, 65, 53
2, 430200, Note_on_c, 0, 57, 53
2, 430315, Note_on_c, 0, 57, 0
2, 430315, Note_on_c, 0, 60, 0
2, 430315, Note_on_c, 0, 91, 0
2, 430315, Note_on_c, 0, 79, 0
2, 430315, Note_on_c, 0, 65, 0
2, 430320, Note_on_c, 0, 93, 53
2, 430320, Note_on_c, 0, 81, 53
2, 430320, Note_on_c, 0, 59, 53
2, 430320, Note_on_c, 0, 64, 53
2, 430320, Note_on_c, 0, 55, 53
2, 430435, Note_on_c, 0, 55, 0
2, 430435, Note_on_c, 0, 59, 0
2, 430435, Note_on_c, 0, 93, 0
2, 430435, Note_on_c, 0, 81, 0
2, 430435, Note_on_c, 0, 64, 0
2, 430440, Note_on_c, 0, 95, 53
2, 430440, Note_on_c, 0, 83, 53
2, 430440, Note_on_c, 0, 57, 53
2, 430440, Note_on_c, 0, 62, 53
2, 430440, Note_on_c, 0, 53, 53
2, 430500, Note_on_c, 0, 55, 53
2, 430555, Note_on_c, 0, 55, 0
2, 430555, Note_on_c, 0, 83, 0
2, 430555, Note_on_c, 0, 57, 0
2, 430555, Note_on_c, 0, 95, 0
2, 430555, Note_on_c, 0, 53, 0
2, 430555, Note_on_c, 0, 62, 0
2, 430560, Note_on_c, 0, 84, 53
2, 430560, Note_on_c, 0, 96, 53
2, 430560, Note_on_c, 0, 52, 53
2, 430560, Note_on_c, 0, 60, 53
2, 430560, Note_on_c, 0, 48, 53
2, 430675, Note_on_c, 0, 48, 0
2, 430675, Note_on_c, 0, 52, 0
2, 430675, Note_on_c, 0, 84, 0
2, 430675, Note_on_c, 0, 96, 0
2, 430675, Note_on_c, 0, 60, 0
2, 430740, Note_on_c, 0, 55, 53
2, 430740, Note_on_c, 0, 60, 53
2, 430740, Note_on_c, 0, 52, 53
2, 430795, Note_on_c, 0, 52, 0
2, 430795, Note_on_c, 0, 60, 0
2, 430795, Note_on_c, 0, 55, 0
2, 430800, Note_on_c, 0, 55, 53
2, 430800, Note_on_c, 0, 60, 53
2, 430800, Note_on_c, 0, 52, 53
2, 430855, Note_on_c, 0, 52, 0
2, 430855, Note_on_c, 0, 60, 0
2, 430855, Note_on_c, 0, 55, 0
2, 430920, Note_on_c, 0, 76, 53
2, 430920, Note_on_c, 0, 84, 53
2, 430920, Note_on_c, 0, 72, 53
2, 430920, Note_on_c, 0, 60, 53
2, 430920, Note_on_c, 0, 45, 53
2, 431040, Note_on_c, 0, 45, 0
2, 431040, Note_on_c, 0, 72, 0
2, 431040, Note_on_c, 0, 76, 0
2, 431040, Note_on_c, 0, 84, 0
2, 431040, Note_on_c, 0, 60, 0
2, 431100, Note_on_c, 0, 69, 53
2, 431100, Note_on_c, 0, 72, 53
2, 431100, Note_on_c, 0, 64, 53
2, 431155, Note_on_c, 0, 64, 0
2, 431155, Note_on_c, 0, 72, 0
2, 431155, Note_on_c, 0, 69, 0
2, 431160, Note_on_c, 0, 69, 53
2, 431160, Note_on_c, 0, 72, 53
2, 431160, Note_on_c, 0, 64, 53
2, 431215, Note_on_c, 0, 64, 0
2, 431215, Note_on_c, 0, 72, 0
2, 431215, Note_on_c, 0, 69, 0
2, 431280, Note_on_c, 0, 69, 53
2, 431280, Note_on_c, 0, 72, 53
2, 431280, Note_on_c, 0, 65, 53
2, 431280, Note_on_c, 0, 57, 53
2, 431280, Note_on_c, 0, 41, 53
2, 431400, Note_on_c, 0, 41, 0
2, 431400, Note_on_c, 0, 65, 0
2, 431400, Note_on_c, 0, 69, 0
2, 431400, Note_on_c, 0, 72, 0
2, 431400, Note_on_c, 0, 57, 0
2, 431460, Note_on_c, 0, 57, 53
2, 431460, Note_on_c, 0, 60, 53
2, 431460, Note_on_c, 0, 53, 53
2, 431515, Note_on_c, 0, 53, 0
2, 431515, Note_on_c, 0, 60, 0
2, 431515, Note_on_c, 0, 57, 0
2, 431520, Note_on_c, 0, 57, 53
2, 431520, Note_on_c, 0, 60, 53
2, 431520, Note_on_c, 0, 53, 53
2, 431575, Note_on_c, 0, 53, 0
2, 431575, Note_on_c, 0, 60, 0
2, 431575, Note_on_c, 0, 57, 0
2, 431640, Note_on_c, 0, 77, 53
2, 431640, Note_on_c, 0, 86, 53
2, 431640, Note_on_c, 0, 74, 53
2, 431640, Note_on_c, 0, 57, 53
2, 431640, Note_on_c, 0, 62, 53
2, 431640, Note_on_c, 0, 50, 53
2, 431760, Note_on_c, 0, 50, 0
2, 431760, Note_on_c, 0, 86, 0
2, 431760, Note_on_c, 0, 74, 0
2, 431760, Note_on_c, 0, 77, 0
2, 431760, Note_on_c, 0, 62, 0
2, 431760, Note_on_c, 0, 57, 0
2, 431820, Note_on_c, 0, 69, 53
2, 431820, Note_on_c, 0, 74, 53
2, 431820, Note_on_c, 0, 65, 53
2, 431875, Note_on_c, 0, 65, 0
2, 431875, Note_on_c, 0, 74, 0
2, 431875, Note_on_c, 0, 69, 0
2, 431880, Note_on_c, 0, 69, 53
2, 431880, Note_on_c, 0, 74, 53
2, 431880, Note_on_c, 0, 65, 53
2, 431935, Note_on_c, 0, 65, 0
2, 431935, Note_on_c, 0, 74, 0
2, 431935, Note_on_c, 0, 69, 0
2, 432000, Note_on_c, 0, 69, 53
2, 432000, Note_on_c, 0, 74, 53
2, 432000, Note_on_c, 0, 65, 53
2, 432055, Note_on_c, 0, 65, 0
2, 432055, Note_on_c, 0, 74, 0
2, 432055, Note_on_c, 0, 69, 0
2, 433440, Note_on_c, 0, 69, 53
2, 433440, Note_on_c, 0, 74, 53
2, 433440, Note_on_c, 0, 65, 53
2, 433440, Note_on_c, 0, 50, 53
2, 433440, Note_on_c, 0, 38, 53
2, 433495, Note_on_c, 0, 38, 0
2, 433495, Note_on_c, 0, 65, 0
2, 433495, Note_on_c, 0, 69, 0
2, 433495, Note_on_c, 0, 74, 0
2, 433495, Note_on_c, 0, 50, 0
2, 433620, Note_on_c, 0, 57, 53
2, 433620, Note_on_c, 0, 62, 53
2, 433620, Note_on_c, 0, 53, 53
2, 433650, Note_on_c, 0, 53, 0
2, 433650, Note_on_c, 0, 62, 0
2, 433650, Note_on_c, 0, 57, 0
2, 433680, Note_on_c, 0, 57, 53
2, 433680, Note_on_c, 0, 62, 53
2, 433680, Note_on_c, 0, 53, 53
2, 433735, Note_on_c, 0, 53, 0
2, 433735, Note_on_c, 0, 62, 0
2, 433735, Note_on_c, 0, 57, 0
2, 433800, Note_on_c, 0, 77, 53
2, 433800, Note_on_c, 0, 86, 53
2, 433800, Note_on_c, 0, 74, 53
2, 433800, Note_on_c, 0, 58, 53
2, 433800, Note_on_c, 0, 46, 53
2, 433855, Note_on_c, 0, 46, 0
2, 433855, Note_on_c, 0, 74, 0
2, 433855, Note_on_c, 0, 77, 0
2, 433855, Note_on_c, 0, 86, 0
2, 433855, Note_on_c, 0, 58, 0
2, 433980, Note_on_c, 0, 70, 53
2, 433980, Note_on_c, 0, 74, 53
2, 433980, Note_on_c, 0, 65, 53
2, 434010, Note_on_c, 0, 65, 0
2, 434010, Note_on_c, 0, 74, 0
2, 434010, Note_on_c, 0, 70, 0
2, 434040, Note_on_c, 0, 70, 53
2, 434040, Note_on_c, 0, 74, 53
2, 434040, Note_on_c, 0, 65, 53
2, 434095, Note_on_c, 0, 65, 0
2, 434095, Note_on_c, 0, 74, 0
2, 434095, Note_on_c, 0, 70, 0
2, 434160, Note_on_c, 0, 70, 53
2, 434160, Note_on_c, 0, 74, 53
2, 434160, Note_on_c, 0, 67, 53
2, 434160, Note_on_c, 0, 55, 53
2, 434160, Note_on_c, 0, 43, 53
2, 434215, Note_on_c, 0, 43, 0
2, 434215, Note_on_c, 0, 67, 0
2, 434215, Note_on_c, 0, 70, 0
2, 434215, Note_on_c, 0, 74, 0
2, 434215, Note_on_c, 0, 55, 0
2, 434340, Note_on_c, 0, 58, 53
2, 434340, Note_on_c, 0, 62, 53
2, 434340, Note_on_c, 0, 55, 53
2, 434370, Note_on_c, 0, 55, 0
2, 434370, Note_on_c, 0, 62, 0
2, 434370, Note_on_c, 0, 58, 0
2, 434400, Note_on_c, 0, 58, 53
2, 434400, Note_on_c, 0, 62, 53
2, 434400, Note_on_c, 0, 55, 53
2, 434455, Note_on_c, 0, 55, 0
2, 434455, Note_on_c, 0, 62, 0
2, 434455, Note_on_c, 0, 58, 0
2, 434520, Note_on_c, 0, 79, 53
2, 434520, Note_on_c, 0, 87, 53
2, 434520, Note_on_c, 0, 75, 53
2, 434520, Note_on_c, 0, 58, 53
2, 434520, Note_on_c, 0, 63, 53
2, 434520, Note_on_c, 0, 51, 53
2, 434575, Note_on_c, 0, 51, 0
2, 434575, Note_on_c, 0, 87, 0
2, 434575, Note_on_c, 0, 75, 0
2, 434575, Note_on_c, 0, 79, 0
2, 434575, Note_on_c, 0, 63, 0
2, 434575, Note_on_c, 0, 58, 0
2, 434700, Note_on_c, 0, 70, 53
2, 434700, Note_on_c, 0, 75, 53
2, 434700, Note_on_c, 0, 67, 53
2, 434730, Note_on_c, 0, 67, 0
2, 434730, Note_on_c, 0, 75, 0
2, 434730, Note_on_c, 0, 70, 0
2, 434760, Note_on_c, 0, 70, 53
2, 434760, Note_on_c, 0, 75, 53
2, 434760, Note_on_c, 0, 67, 53
2, 434815, Note_on_c, 0, 67, 0
2, 434815, Note_on_c, 0, 75, 0
2, 434815, Note_on_c, 0, 70, 0
2, 434880, Note_on_c, 0, 70, 53
2, 434880, Note_on_c, 0, 75, 53
2, 434880, Note_on_c, 0, 67, 53
2, 434935, Note_on_c, 0, 67, 0
2, 434935, Note_on_c, 0, 75, 0
2, 434935, Note_on_c, 0, 70, 0
2, 436320, Note_on_c, 0, 70, 54
2, 436320, Note_on_c, 0, 75, 54
2, 436320, Note_on_c, 0, 67, 54
2, 436320, Note_on_c, 0, 51, 54
2, 436320, Note_on_c, 0, 39, 54
2, 436375, Note_on_c, 0, 39, 0
2, 436375, Note_on_c, 0, 67, 0
2, 436375, Note_on_c, 0, 70, 0
2, 436375, Note_on_c, 0, 75, 0
2, 436375, Note_on_c, 0, 51, 0
2, 436500, Note_on_c, 0, 58, 56
2, 436500, Note_on_c, 0, 63, 56
2, 436500, Note_on_c, 0, 55, 56
2, 436555, Note_on_c, 0, 55, 0
2, 436555, Note_on_c, 0, 63, 0
2, 436555, Note_on_c, 0, 58, 0
2, 436560, Note_on_c, 0, 58, 57
2, 436560, Note_on_c, 0, 63, 57
2, 436560, Note_on_c, 0, 55, 57
2, 436615, Note_on_c, 0, 55, 0
2, 436615, Note_on_c, 0, 63, 0
2, 436615, Note_on_c, 0, 58, 0
2, 436680, Note_on_c, 0, 79, 59
2, 436680, Note_on_c, 0, 87, 59
2, 436680, Note_on_c, 0, 75, 59
2, 436680, Note_on_c, 0, 60, 59
2, 436680, Note_on_c, 0, 48, 59
2, 436735, Note_on_c, 0, 48, 0
2, 436735, Note_on_c, 0, 75, 0
2, 436735, Note_on_c, 0, 79, 0
2, 436735, Note_on_c, 0, 87, 0
2, 436735, Note_on_c, 0, 60, 0
2, 436860, Note_on_c, 0, 72, 61
2, 436860, Note_on_c, 0, 75, 61
2, 436860, Note_on_c, 0, 67, 61
2, 436915, Note_on_c, 0, 67, 0
2, 436915, Note_on_c, 0, 75, 0
2, 436915, Note_on_c, 0, 72, 0
2, 436920, Note_on_c, 0, 72, 62
2, 436920, Note_on_c, 0, 75, 62
2, 436920, Note_on_c, 0, 67, 62
2, 436975, Note_on_c, 0, 67, 0
2, 436975, Note_on_c, 0, 75, 0
2, 436975, Note_on_c, 0, 72, 0
2, 437040, Note_on_c, 0, 72, 64
2, 437040, Note_on_c, 0, 75, 64
2, 437040, Note_on_c, 0, 68, 64
2, 437040, Note_on_c, 0, 56, 64
2, 437040, Note_on_c, 0, 44, 64
2, 437095, Note_on_c, 0, 44, 0
2, 437095, Note_on_c, 0, 68, 0
2, 437095, Note_on_c, 0, 72, 0
2, 437095, Note_on_c, 0, 75, 0
2, 437095, Note_on_c, 0, 56, 0
2, 437220, Note_on_c, 0, 60, 67
2, 437220, Note_on_c, 0, 63, 67
2, 437220, Note_on_c, 0, 56, 67
2, 437275, Note_on_c, 0, 56, 0
2, 437275, Note_on_c, 0, 63, 0
2, 437275, Note_on_c, 0, 60, 0
2, 437280, Note_on_c, 0, 60, 68
2, 437280, Note_on_c, 0, 63, 68
2, 437280, Note_on_c, 0, 56, 68
2, 437335, Note_on_c, 0, 56, 0
2, 437335, Note_on_c, 0, 63, 0
2, 437335, Note_on_c, 0, 60, 0
2, 437400, Note_on_c, 0, 80, 69
2, 437400, Note_on_c, 0, 89, 69
2, 437400, Note_on_c, 0, 77, 69
2, 437400, Note_on_c, 0, 60, 69
2, 437400, Note_on_c, 0, 65, 69
2, 437400, Note_on_c, 0, 53, 69
2, 437455, Note_on_c, 0, 53, 0
2, 437455, Note_on_c, 0, 89, 0
2, 437455, Note_on_c, 0, 77, 0
2, 437455, Note_on_c, 0, 80, 0
2, 437455, Note_on_c, 0, 65, 0
2, 437455, Note_on_c, 0, 60, 0
2, 437580, Note_on_c, 0, 72, 71
2, 437580, Note_on_c, 0, 77, 71
2, 437580, Note_on_c, 0, 68, 71
2, 437635, Note_on_c, 0, 68, 0
2, 437635, Note_on_c, 0, 77, 0
2, 437635, Note_on_c, 0, 72, 0
2, 437640, Note_on_c, 0, 72, 72
2, 437640, Note_on_c, 0, 77, 72
2, 437640, Note_on_c, 0, 68, 72
2, 437695, Note_on_c, 0, 68, 0
2, 437695, Note_on_c, 0, 77, 0
2, 437695, Note_on_c, 0, 72, 0
2, 437760, Note_on_c, 0, 73, 74
2, 437760, Note_on_c, 0, 77, 74
2, 437760, Note_on_c, 0, 68, 74
2, 437760, Note_on_c, 0, 61, 74
2, 437760, Note_on_c, 0, 49, 74
2, 437815, Note_on_c, 0, 49, 0
2, 437815, Note_on_c, 0, 68, 0
2, 437815, Note_on_c, 0, 73, 0
2, 437815, Note_on_c, 0, 77, 0
2, 437815, Note_on_c, 0, 61, 0
2, 437940, Note_on_c, 0, 65, 77
2, 437940, Note_on_c, 0, 61, 77
2, 437995, Note_on_c, 0, 61, 0
2, 437995, Note_on_c, 0, 65, 0
2, 438000, Note_on_c, 0, 65, 78
2, 438000, Note_on_c, 0, 61, 78
2, 438055, Note_on_c, 0, 61, 0
2, 438055, Note_on_c, 0, 65, 0
2, 438120, Note_on_c, 0, 85, 78
2, 438120, Note_on_c, 0, 89, 78
2, 438120, Note_on_c, 0, 77, 78
2, 438120, Note_on_c, 0, 58, 79
2, 438120, Note_on_c, 0, 46, 79
2, 438175, Note_on_c, 0, 46, 0
2, 438175, Note_on_c, 0, 77, 0
2, 438175, Note_on_c, 0, 85, 0
2, 438175, Note_on_c, 0, 89, 0
2, 438175, Note_on_c, 0, 58, 0
2, 438300, Note_on_c, 0, 73, 81
2, 438300, Note_on_c, 0, 77, 81
2, 438300, Note_on_c, 0, 70, 81
2, 438355, Note_on_c, 0, 70, 0
2, 438355, Note_on_c, 0, 77, 0
2, 438355, Note_on_c, 0, 73, 0
2, 438360, Note_on_c, 0, 73, 82
2, 438360, Note_on_c, 0, 77, 82
2, 438360, Note_on_c, 0, 70, 82
2, 438415, Note_on_c, 0, 70, 0
2, 438415, Note_on_c, 0, 77, 0
2, 438415, Note_on_c, 0, 73, 0
2, 438480, Note_on_c, 0, 73, 83
2, 438480, Note_on_c, 0, 78, 83
2, 438480, Note_on_c, 0, 70, 83
2, 438480, Note_on_c, 0, 54, 85
2, 438480, Note_on_c, 0, 42, 85
2, 438535, Note_on_c, 0, 42, 0
2, 438535, Note_on_c, 0, 70, 0
2, 438535, Note_on_c, 0, 73, 0
2, 438535, Note_on_c, 0, 78, 0
2, 438535, Note_on_c, 0, 54, 0
2, 438660, Note_on_c, 0, 61, 87
2, 438660, Note_on_c, 0, 66, 87
2, 438660, Note_on_c, 0, 58, 87
2, 438715, Note_on_c, 0, 58, 0
2, 438715, Note_on_c, 0, 66, 0
2, 438715, Note_on_c, 0, 61, 0
2, 438720, Note_on_c, 0, 61, 88
2, 438720, Note_on_c, 0, 66, 88
2, 438720, Note_on_c, 0, 58, 88
2, 438775, Note_on_c, 0, 58, 0
2, 438775, Note_on_c, 0, 66, 0
2, 438775, Note_on_c, 0, 61, 0
2, 438840, Note_on_c, 0, 82, 88
2, 438840, Note_on_c, 0, 90, 88
2, 438840, Note_on_c, 0, 78, 88
2, 438840, Note_on_c, 0, 63, 90
2, 438840, Note_on_c, 0, 51, 90
2, 438895, Note_on_c, 0, 51, 0
2, 438895, Note_on_c, 0, 78, 0
2, 438895, Note_on_c, 0, 82, 0
2, 438895, Note_on_c, 0, 90, 0
2, 438895, Note_on_c, 0, 63, 0
2, 439020, Note_on_c, 0, 75, 91
2, 439020, Note_on_c, 0, 78, 91
2, 439020, Note_on_c, 0, 70, 91
2, 439075, Note_on_c, 0, 70, 0
2, 439075, Note_on_c, 0, 78, 0
2, 439075, Note_on_c, 0, 75, 0
2, 439080, Note_on_c, 0, 75, 92
2, 439080, Note_on_c, 0, 78, 92
2, 439080, Note_on_c, 0, 70, 92
2, 439135, Note_on_c, 0, 70, 0
2, 439135, Note_on_c, 0, 78, 0
2, 439135, Note_on_c, 0, 75, 0
2, 439200, Note_on_c, 0, 75, 93
2, 439200, Note_on_c, 0, 78, 93
2, 439200, Note_on_c, 0, 71, 93
2, 439200, Note_on_c, 0, 59, 95
2, 439200, Note_on_c, 0, 47, 95
2, 439255, Note_on_c, 0, 47, 0
2, 439255, Note_on_c, 0, 71, 0
2, 439255, Note_on_c, 0, 75, 0
2, 439255, Note_on_c, 0, 78, 0
2, 439255, Note_on_c, 0, 59, 0
2, 439380, Note_on_c, 0, 63, 96
2, 439380, Note_on_c, 0, 66, 96
2, 439380, Note_on_c, 0, 59, 96
2, 439435, Note_on_c, 0, 59, 0
2, 439435, Note_on_c, 0, 66, 0
2, 439435, Note_on_c, 0, 63, 0
2, 439440, Note_on_c, 0, 63, 96
2, 439440, Note_on_c, 0, 66, 96
2, 439440, Note_on_c, 0, 59, 96
2, 439495, Note_on_c, 0, 59, 0
2, 439495, Note_on_c, 0, 66, 0
2, 439495, Note_on_c, 0, 63, 0
2, 439560, Note_on_c, 0, 83, 98
2, 439560, Note_on_c, 0, 92, 98
2, 439560, Note_on_c, 0, 80, 98
2, 439560, Note_on_c, 0, 63, 100
2, 439560, Note_on_c, 0, 68, 100
2, 439560, Note_on_c, 0, 56, 100
2, 439615, Note_on_c, 0, 56, 0
2, 439615, Note_on_c, 0, 92, 0
2, 439615, Note_on_c, 0, 80, 0
2, 439615, Note_on_c, 0, 83, 0
2, 439615, Note_on_c, 0, 68, 0
2, 439615, Note_on_c, 0, 63, 0
2, 439740, Note_on_c, 0, 75, 101
2, 439740, Note_on_c, 0, 80, 101
2, 439740, Note_on_c, 0, 71, 101
2, 439795, Note_on_c, 0, 71, 0
2, 439795, Note_on_c, 0, 80, 0
2, 439795, Note_on_c, 0, 75, 0
2, 439800, Note_on_c, 0, 75, 101
2, 439800, Note_on_c, 0, 80, 101
2, 439800, Note_on_c, 0, 71, 101
2, 439855, Note_on_c, 0, 71, 0
2, 439855, Note_on_c, 0, 80, 0
2, 439855, Note_on_c, 0, 75, 0
2, 439920, Note_on_c, 0, 76, 103
2, 439920, Note_on_c, 0, 80, 103
2, 439920, Note_on_c, 0, 71, 103
2, 439920, Note_on_c, 0, 64, 105
2, 439920, Note_on_c, 0, 52, 105
2, 439975, Note_on_c, 0, 52, 0
2, 439975, Note_on_c, 0, 71, 0
2, 439975, Note_on_c, 0, 76, 0
2, 439975, Note_on_c, 0, 80, 0
2, 439975, Note_on_c, 0, 64, 0
2, 440100, Note_on_c, 0, 64, 108
2, 440100, Note_on_c, 0, 68, 108
2, 440100, Note_on_c, 0, 59, 108
2, 440155, Note_on_c, 0, 59, 0
2, 440155, Note_on_c, 0, 68, 0
2, 440155, Note_on_c, 0, 64, 0
2, 440160, Note_on_c, 0, 64, 108
2, 440160, Note_on_c, 0, 68, 108
2, 440160, Note_on_c, 0, 59, 108
2, 440215, Note_on_c, 0, 59, 0
2, 440215, Note_on_c, 0, 68, 0
2, 440215, Note_on_c, 0, 64, 0
2, 440280, Note_on_c, 0, 88, 108
2, 440280, Note_on_c, 0, 92, 108
2, 440280, Note_on_c, 0, 80, 108
2, 440280, Note_on_c, 0, 61, 110
2, 440280, Note_on_c, 0, 49, 110
2, 440335, Note_on_c, 0, 49, 0
2, 440335, Note_on_c, 0, 80, 0
2, 440335, Note_on_c, 0, 88, 0
2, 440335, Note_on_c, 0, 92, 0
2, 440335, Note_on_c, 0, 61, 0
2, 440460, Note_on_c, 0, 76, 110
2, 440460, Note_on_c, 0, 80, 110
2, 440460, Note_on_c, 0, 73, 110
2, 440515, Note_on_c, 0, 73, 0
2, 440515, Note_on_c, 0, 80, 0
2, 440515, Note_on_c, 0, 76, 0
2, 440520, Note_on_c, 0, 76, 111
2, 440520, Note_on_c, 0, 80, 111
2, 440520, Note_on_c, 0, 73, 111
2, 440575, Note_on_c, 0, 73, 0
2, 440575, Note_on_c, 0, 80, 0
2, 440575, Note_on_c, 0, 76, 0
2, 440640, Note_on_c, 0, 76, 117
2, 440640, Note_on_c, 0, 81, 117
2, 440640, Note_on_c, 0, 73, 117
2, 440640, Note_on_c, 0, 57, 117
2, 440640, Note_on_c, 0, 45, 117
2, 440695, Note_on_c, 0, 45, 0
2, 440695, Note_on_c, 0, 73, 0
2, 440695, Note_on_c, 0, 76, 0
2, 440695, Note_on_c, 0, 81, 0
2, 440695, Note_on_c, 0, 57, 0
2, 440820, Note_on_c, 0, 69, 117
2, 440820, Note_on_c, 0, 57, 117
2, 440875, Note_on_c, 0, 57, 0
2, 440875, Note_on_c, 0, 69, 0
2, 440880, Note_on_c, 0, 69, 117
2, 440880, Note_on_c, 0, 57, 117
2, 440935, Note_on_c, 0, 57, 0
2, 440935, Note_on_c, 0, 69, 0
2, 441000, Note_on_c, 0, 93, 117
2, 441000, Note_on_c, 0, 81, 117
2, 441000, Note_on_c, 0, 45, 117
2, 441055, Note_on_c, 0, 45, 0
2, 441055, Note_on_c, 0, 81, 0
2, 441055, Note_on_c, 0, 93, 0
2, 441180, Note_on_c, 0, 81, 117
2, 441180, Note_on_c, 0, 69, 117
2, 441180, Note_on_c, 0, 57, 117
2, 441235, Note_on_c, 0, 57, 0
2, 441235, Note_on_c, 0, 69, 0
2, 441235, Note_on_c, 0, 81, 0
2, 441240, Note_on_c, 0, 81, 117
2, 441240, Note_on_c, 0, 69, 117
2, 441240, Note_on_c, 0, 57, 117
2, 441295, Note_on_c, 0, 57, 0
2, 441295, Note_on_c, 0, 69, 0
2, 441295, Note_on_c, 0, 81, 0
2, 441360, Note_on_c, 0, 82, 95
2, 441360, Note_on_c, 0, 70, 95
2, 441360, Note_on_c, 0, 58, 95
2, 441360, Note_on_c, 0, 46, 95
2, 441415, Note_on_c, 0, 46, 0
2, 441415, Note_on_c, 0, 82, 0
2, 441415, Note_on_c, 0, 70, 0
2, 441415, Note_on_c, 0, 58, 0
2, 441540, Note_on_c, 0, 70, 95
2, 441540, Note_on_c, 0, 58, 95
2, 441595, Note_on_c, 0, 58, 0
2, 441595, Note_on_c, 0, 70, 0
2, 441600, Note_on_c, 0, 70, 95
2, 441600, Note_on_c, 0, 58, 95
2, 441655, Note_on_c, 0, 58, 0
2, 441655, Note_on_c, 0, 70, 0
2, 441720, Note_on_c, 0, 94, 95
2, 441720, Note_on_c, 0, 82, 95
2, 441720, Note_on_c, 0, 46, 95
2, 441775, Note_on_c, 0, 46, 0
2, 441775, Note_on_c, 0, 82, 0
2, 441775, Note_on_c, 0, 94, 0
2, 441900, Note_on_c, 0, 82, 95
2, 441900, Note_on_c, 0, 70, 95
2, 441900, Note_on_c, 0, 58, 95
2, 441955, Note_on_c, 0, 58, 0
2, 441955, Note_on_c, 0, 70, 0
2, 441955, Note_on_c, 0, 82, 0
2, 441960, Note_on_c, 0, 82, 95
2, 441960, Note_on_c, 0, 70, 95
2, 441960, Note_on_c, 0, 58, 95
2, 442015, Note_on_c, 0, 58, 0
2, 442015, Note_on_c, 0, 70, 0
2, 442015, Note_on_c, 0, 82, 0
2, 442080, Note_on_c, 0, 71, 95
2, 442080, Note_on_c, 0, 83, 95
2, 442080, Note_on_c, 0, 47, 95
2, 442080, Note_on_c, 0, 59, 95
2, 442135, Note_on_c, 0, 59, 0
2, 442135, Note_on_c, 0, 71, 0
2, 442135, Note_on_c, 0, 83, 0
2, 442135, Note_on_c, 0, 47, 0
2, 442260, Note_on_c, 0, 59, 95
2, 442260, Note_on_c, 0, 71, 95
2, 442290, Note_on_c, 0, 71, 0
2, 442290, Note_on_c, 0, 59, 0
2, 442320, Note_on_c, 0, 59, 95
2, 442320, Note_on_c, 0, 71, 95
2, 442435, Note_on_c, 0, 71, 0
2, 442435, Note_on_c, 0, 59, 0
2, 442440, Note_on_c, 0, 95, 95
2, 442440, Note_on_c, 0, 83, 95
2, 442440, Note_on_c, 0, 47, 95
2, 442440, Note_on_c, 0, 35, 95
2, 442495, Note_on_c, 0, 35, 0
2, 442495, Note_on_c, 0, 95, 0
2, 442495, Note_on_c, 0, 83, 0
2, 442495, Note_on_c, 0, 47, 0
2, 442620, Note_on_c, 0, 83, 95
2, 442620, Note_on_c, 0, 71, 95
2, 442620, Note_on_c, 0, 59, 95
2, 442620, Note_on_c, 0, 47, 95
2, 442650, Note_on_c, 0, 47, 0
2, 442650, Note_on_c, 0, 83, 0
2, 442650, Note_on_c, 0, 71, 0
2, 442650, Note_on_c, 0, 59, 0
2, 442680, Note_on_c, 0, 83, 95
2, 442680, Note_on_c, 0, 71, 95
2, 442680, Note_on_c, 0, 59, 95
2, 442680, Note_on_c, 0, 47, 95
2, 443130, Note_on_c, 0, 47, 0
2, 443130, Note_on_c, 0, 83, 0
2, 443130, Note_on_c, 0, 71, 0
2, 443130, Note_on_c, 0, 59, 0
2, 443160, Note_on_c, 0, 59, 53
2, 443215, Note_on_c, 0, 59, 0
2, 443340, Note_on_c, 0, 47, 53
2, 443395, Note_on_c, 0, 47, 0
2, 443400, Note_on_c, 0, 47, 53
2, 443455, Note_on_c, 0, 47, 0
2, 443520, Note_on_c, 0, 52, 53
2, 443520, Note_on_c, 0, 40, 53
2, 443575, Note_on_c, 0, 40, 0
2, 443575, Note_on_c, 0, 52, 0
2, 443640, Note_on_c, 0, 54, 53
2, 443640, Note_on_c, 0, 51, 53
2, 443695, Note_on_c, 0, 51, 0
2, 443695, Note_on_c, 0, 54, 0
2, 443760, Note_on_c, 0, 55, 53
2, 443760, Note_on_c, 0, 52, 53
2, 443815, Note_on_c, 0, 52, 0
2, 443815, Note_on_c, 0, 55, 0
2, 443880, Note_on_c, 0, 47, 53
2, 443880, Note_on_c, 0, 51, 53
2, 443880, Note_on_c, 0, 54, 53
2, 443880, Note_on_c, 0, 35, 53
2, 443935, Note_on_c, 0, 35, 0
2, 443935, Note_on_c, 0, 47, 0
2, 443935, Note_on_c, 0, 51, 0
2, 443935, Note_on_c, 0, 54, 0
2, 444000, Note_on_c, 0, 55, 53
2, 444000, Note_on_c, 0, 52, 53
2, 444055, Note_on_c, 0, 52, 0
2, 444055, Note_on_c, 0, 55, 0
2, 444120, Note_on_c, 0, 57, 53
2, 444120, Note_on_c, 0, 54, 53
2, 444175, Note_on_c, 0, 54, 0
2, 444175, Note_on_c, 0, 57, 0
2, 444240, Note_on_c, 0, 83, 53
2, 444240, Note_on_c, 0, 71, 53
2, 444240, Note_on_c, 0, 55, 53
2, 444240, Note_on_c, 0, 52, 53
2, 444295, Note_on_c, 0, 52, 0
2, 444295, Note_on_c, 0, 83, 0
2, 444295, Note_on_c, 0, 71, 0
2, 444295, Note_on_c, 0, 55, 0
2, 444360, Note_on_c, 0, 59, 53
2, 444360, Note_on_c, 0, 55, 53
2, 444415, Note_on_c, 0, 55, 0
2, 444415, Note_on_c, 0, 59, 0
2, 444420, Note_on_c, 0, 71, 53
2, 444475, Note_on_c, 0, 71, 0
2, 444480, Note_on_c, 0, 71, 53
2, 444480, Note_on_c, 0, 59, 53
2, 444480, Note_on_c, 0, 55, 53
2, 444535, Note_on_c, 0, 55, 0
2, 444535, Note_on_c, 0, 59, 0
2, 444535, Note_on_c, 0, 71, 0
2, 444600, Note_on_c, 0, 76, 53
2, 444600, Note_on_c, 0, 64, 53
2, 444600, Note_on_c, 0, 55, 53
2, 444600, Note_on_c, 0, 59, 53
2, 444600, Note_on_c, 0, 52, 53
2, 444655, Note_on_c, 0, 52, 0
2, 444655, Note_on_c, 0, 55, 0
2, 444655, Note_on_c, 0, 76, 0
2, 444655, Note_on_c, 0, 64, 0
2, 444655, Note_on_c, 0, 59, 0
2, 444720, Note_on_c, 0, 75, 53
2, 444720, Note_on_c, 0, 78, 53
2, 444720, Note_on_c, 0, 66, 53
2, 444720, Note_on_c, 0, 57, 53
2, 444720, Note_on_c, 0, 54, 53
2, 444775, Note_on_c, 0, 54, 0
2, 444775, Note_on_c, 0, 66, 0
2, 444775, Note_on_c, 0, 75, 0
2, 444775, Note_on_c, 0, 78, 0
2, 444775, Note_on_c, 0, 57, 0
2, 444840, Note_on_c, 0, 76, 53
2, 444840, Note_on_c, 0, 79, 53
2, 444840, Note_on_c, 0, 67, 53
2, 444840, Note_on_c, 0, 55, 53
2, 444840, Note_on_c, 0, 52, 53
2, 444895, Note_on_c, 0, 52, 0
2, 444895, Note_on_c, 0, 67, 0
2, 444895, Note_on_c, 0, 76, 0
2, 444895, Note_on_c, 0, 79, 0
2, 444895, Note_on_c, 0, 55, 0
2, 444960, Note_on_c, 0, 75, 53
2, 444960, Note_on_c, 0, 78, 53
2, 444960, Note_on_c, 0, 66, 53
2, 444960, Note_on_c, 0, 54, 53
2, 444960, Note_on_c, 0, 57, 53
2, 444960, Note_on_c, 0, 47, 53
2, 445015, Note_on_c, 0, 47, 0
2, 445015, Note_on_c, 0, 78, 0
2, 445015, Note_on_c, 0, 66, 0
2, 445015, Note_on_c, 0, 75, 0
2, 445015, Note_on_c, 0, 57, 0
2, 445015, Note_on_c, 0, 54, 0
2, 445080, Note_on_c, 0, 76, 53
2, 445080, Note_on_c, 0, 79, 53
2, 445080, Note_on_c, 0, 67, 53
2, 445080, Note_on_c, 0, 55, 53
2, 445080, Note_on_c, 0, 52, 53
2, 445135, Note_on_c, 0, 52, 0
2, 445135, Note_on_c, 0, 67, 0
2, 445135, Note_on_c, 0, 76, 0
2, 445135, Note_on_c, 0, 79, 0
2, 445135, Note_on_c, 0, 55, 0
2, 445200, Note_on_c, 0, 78, 53
2, 445200, Note_on_c, 0, 81, 53
2, 445200, Note_on_c, 0, 69, 53
2, 445200, Note_on_c, 0, 54, 53
2, 445200, Note_on_c, 0, 51, 53
2, 445255, Note_on_c, 0, 51, 0
2, 445255, Note_on_c, 0, 69, 0
2, 445255, Note_on_c, 0, 78, 0
2, 445255, Note_on_c, 0, 81, 0
2, 445255, Note_on_c, 0, 54, 0
2, 445320, Note_on_c, 0, 76, 53
2, 445320, Note_on_c, 0, 79, 53
2, 445320, Note_on_c, 0, 67, 53
2, 445320, Note_on_c, 0, 59, 53
2, 445375, Note_on_c, 0, 59, 0
2, 445375, Note_on_c, 0, 76, 0
2, 445375, Note_on_c, 0, 79, 0
2, 445375, Note_on_c, 0, 67, 0
2, 445440, Note_on_c, 0, 79, 53
2, 445440, Note_on_c, 0, 83, 53
2, 445440, Note_on_c, 0, 71, 53
2, 445495, Note_on_c, 0, 71, 0
2, 445495, Note_on_c, 0, 83, 0
2, 445495, Note_on_c, 0, 79, 0
2, 445500, Note_on_c, 0, 47, 53
2, 445555, Note_on_c, 0, 47, 0
2, 445560, Note_on_c, 0, 79, 53
2, 445560, Note_on_c, 0, 83, 53
2, 445560, Note_on_c, 0, 71, 53
2, 445560, Note_on_c, 0, 47, 53
2, 445615, Note_on_c, 0, 47, 0
2, 445615, Note_on_c, 0, 79, 0
2, 445615, Note_on_c, 0, 83, 0
2, 445615, Note_on_c, 0, 71, 0
2, 445680, Note_on_c, 0, 79, 53
2, 445680, Note_on_c, 0, 83, 53
2, 445680, Note_on_c, 0, 71, 53
2, 445680, Note_on_c, 0, 52, 53
2, 445680, Note_on_c, 0, 40, 53
2, 445735, Note_on_c, 0, 40, 0
2, 445735, Note_on_c, 0, 71, 0
2, 445735, Note_on_c, 0, 79, 0
2, 445735, Note_on_c, 0, 83, 0
2, 445735, Note_on_c, 0, 52, 0
2, 445800, Note_on_c, 0, 78, 53
2, 445800, Note_on_c, 0, 81, 53
2, 445800, Note_on_c, 0, 69, 53
2, 445800, Note_on_c, 0, 54, 53
2, 445855, Note_on_c, 0, 54, 0
2, 445855, Note_on_c, 0, 78, 0
2, 445855, Note_on_c, 0, 81, 0
2, 445855, Note_on_c, 0, 69, 0
2, 445920, Note_on_c, 0, 76, 53
2, 445920, Note_on_c, 0, 79, 53
2, 445920, Note_on_c, 0, 67, 53
2, 445920, Note_on_c, 0, 55, 53
2, 445975, Note_on_c, 0, 55, 0
2, 445975, Note_on_c, 0, 76, 0
2, 445975, Note_on_c, 0, 79, 0
2, 445975, Note_on_c, 0, 67, 0
2, 446040, Note_on_c, 0, 78, 53
2, 446040, Note_on_c, 0, 81, 53
2, 446040, Note_on_c, 0, 69, 53
2, 446040, Note_on_c, 0, 54, 53
2, 446040, Note_on_c, 0, 47, 53
2, 446095, Note_on_c, 0, 47, 0
2, 446095, Note_on_c, 0, 69, 0
2, 446095, Note_on_c, 0, 78, 0
2, 446095, Note_on_c, 0, 81, 0
2, 446095, Note_on_c, 0, 54, 0
2, 446160, Note_on_c, 0, 76, 53
2, 446160, Note_on_c, 0, 79, 53
2, 446160, Note_on_c, 0, 67, 53
2, 446160, Note_on_c, 0, 55, 53
2, 446215, Note_on_c, 0, 55, 0
2, 446215, Note_on_c, 0, 76, 0
2, 446215, Note_on_c, 0, 79, 0
2, 446215, Note_on_c, 0, 67, 0
2, 446280, Note_on_c, 0, 75, 53
2, 446280, Note_on_c, 0, 78, 53
2, 446280, Note_on_c, 0, 66, 53
2, 446280, Note_on_c, 0, 57, 53
2, 446335, Note_on_c, 0, 57, 0
2, 446335, Note_on_c, 0, 75, 0
2, 446335, Note_on_c, 0, 78, 0
2, 446335, Note_on_c, 0, 66, 0
2, 446400, Note_on_c, 0, 88, 53
2, 446400, Note_on_c, 0, 56, 53
2, 446400, Note_on_c, 0, 52, 53
2, 446455, Note_on_c, 0, 52, 0
2, 446455, Note_on_c, 0, 56, 0
2, 446455, Note_on_c, 0, 88, 0
2, 446520, Note_on_c, 0, 64, 53
2, 446520, Note_on_c, 0, 52, 53
2, 446575, Note_on_c, 0, 52, 0
2, 446575, Note_on_c, 0, 64, 0
2, 446580, Note_on_c, 0, 76, 53
2, 446635, Note_on_c, 0, 76, 0
2, 446640, Note_on_c, 0, 76, 53
2, 446640, Note_on_c, 0, 64, 53
2, 446640, Note_on_c, 0, 52, 53
2, 446695, Note_on_c, 0, 52, 0
2, 446695, Note_on_c, 0, 64, 0
2, 446695, Note_on_c, 0, 76, 0
2, 446760, Note_on_c, 0, 76, 53
2, 446760, Note_on_c, 0, 81, 53
2, 446760, Note_on_c, 0, 69, 53
2, 446760, Note_on_c, 0, 60, 53
2, 446760, Note_on_c, 0, 64, 53
2, 446760, Note_on_c, 0, 52, 53
2, 446815, Note_on_c, 0, 52, 0
2, 446815, Note_on_c, 0, 81, 0
2, 446815, Note_on_c, 0, 69, 0
2, 446815, Note_on_c, 0, 76, 0
2, 446815, Note_on_c, 0, 64, 0
2, 446815, Note_on_c, 0, 60, 0
2, 446880, Note_on_c, 0, 80, 53
2, 446880, Note_on_c, 0, 83, 53
2, 446880, Note_on_c, 0, 71, 53
2, 446880, Note_on_c, 0, 62, 53
2, 446880, Note_on_c, 0, 59, 53
2, 446935, Note_on_c, 0, 59, 0
2, 446935, Note_on_c, 0, 71, 0
2, 446935, Note_on_c, 0, 80, 0
2, 446935, Note_on_c, 0, 83, 0
2, 446935, Note_on_c, 0, 62, 0
2, 447000, Note_on_c, 0, 81, 53
2, 447000, Note_on_c, 0, 84, 53
2, 447000, Note_on_c, 0, 72, 53
2, 447000, Note_on_c, 0, 60, 53
2, 447000, Note_on_c, 0, 57, 53
2, 447055, Note_on_c, 0, 57, 0
2, 447055, Note_on_c, 0, 72, 0
2, 447055, Note_on_c, 0, 81, 0
2, 447055, Note_on_c, 0, 84, 0
2, 447055, Note_on_c, 0, 60, 0
2, 447120, Note_on_c, 0, 80, 53
2, 447120, Note_on_c, 0, 83, 53
2, 447120, Note_on_c, 0, 71, 53
2, 447120, Note_on_c, 0, 59, 53
2, 447120, Note_on_c, 0, 62, 53
2, 447120, Note_on_c, 0, 52, 53
2, 447175, Note_on_c, 0, 52, 0
2, 447175, Note_on_c, 0, 83, 0
2, 447175, Note_on_c, 0, 71, 0
2, 447175, Note_on_c, 0, 80, 0
2, 447175, Note_on_c, 0, 62, 0
2, 447175, Note_on_c, 0, 59, 0
2, 447240, Note_on_c, 0, 81, 53
2, 447240, Note_on_c, 0, 84, 53
2, 447240, Note_on_c, 0, 72, 53
2, 447240, Note_on_c, 0, 60, 53
2, 447240, Note_on_c, 0, 57, 53
2, 447295, Note_on_c, 0, 57, 0
2, 447295, Note_on_c, 0, 72, 0
2, 447295, Note_on_c, 0, 81, 0
2, 447295, Note_on_c, 0, 84, 0
2, 447295, Note_on_c, 0, 60, 0
2, 447360, Note_on_c, 0, 83, 53
2, 447360, Note_on_c, 0, 86, 53
2, 447360, Note_on_c, 0, 74, 53
2, 447360, Note_on_c, 0, 59, 53
2, 447360, Note_on_c, 0, 56, 53
2, 447415, Note_on_c, 0, 56, 0
2, 447415, Note_on_c, 0, 74, 0
2, 447415, Note_on_c, 0, 83, 0
2, 447415, Note_on_c, 0, 86, 0
2, 447415, Note_on_c, 0, 59, 0
2, 447480, Note_on_c, 0, 81, 53
2, 447480, Note_on_c, 0, 84, 53
2, 447480, Note_on_c, 0, 72, 53
2, 447480, Note_on_c, 0, 64, 53
2, 447535, Note_on_c, 0, 64, 0
2, 447535, Note_on_c, 0, 81, 0
2, 447535, Note_on_c, 0, 84, 0
2, 447535, Note_on_c, 0, 72, 0
2, 447600, Note_on_c, 0, 84, 53
2, 447600, Note_on_c, 0, 88, 53
2, 447600, Note_on_c, 0, 76, 53
2, 447655, Note_on_c, 0, 76, 0
2, 447655, Note_on_c, 0, 88, 0
2, 447655, Note_on_c, 0, 84, 0
2, 447660, Note_on_c, 0, 52, 53
2, 447715, Note_on_c, 0, 52, 0
2, 447720, Note_on_c, 0, 84, 53
2, 447720, Note_on_c, 0, 88, 53
2, 447720, Note_on_c, 0, 76, 53
2, 447720, Note_on_c, 0, 52, 53
2, 447775, Note_on_c, 0, 52, 0
2, 447775, Note_on_c, 0, 84, 0
2, 447775, Note_on_c, 0, 88, 0
2, 447775, Note_on_c, 0, 76, 0
2, 447840, Note_on_c, 0, 84, 53
2, 447840, Note_on_c, 0, 88, 53
2, 447840, Note_on_c, 0, 76, 53
2, 447840, Note_on_c, 0, 57, 53
2, 447840, Note_on_c, 0, 45, 53
2, 447895, Note_on_c, 0, 45, 0
2, 447895, Note_on_c, 0, 76, 0
2, 447895, Note_on_c, 0, 84, 0
2, 447895, Note_on_c, 0, 88, 0
2, 447895, Note_on_c, 0, 57, 0
2, 447960, Note_on_c, 0, 83, 53
2, 447960, Note_on_c, 0, 86, 53
2, 447960, Note_on_c, 0, 74, 53
2, 447960, Note_on_c, 0, 59, 53
2, 447960, Note_on_c, 0, 56, 53
2, 448015, Note_on_c, 0, 56, 0
2, 448015, Note_on_c, 0, 74, 0
2, 448015, Note_on_c, 0, 83, 0
2, 448015, Note_on_c, 0, 86, 0
2, 448015, Note_on_c, 0, 59, 0
2, 448080, Note_on_c, 0, 81, 53
2, 448080, Note_on_c, 0, 84, 53
2, 448080, Note_on_c, 0, 72, 53
2, 448080, Note_on_c, 0, 60, 53
2, 448080, Note_on_c, 0, 57, 53
2, 448135, Note_on_c, 0, 57, 0
2, 448135, Note_on_c, 0, 72, 0
2, 448135, Note_on_c, 0, 81, 0
2, 448135, Note_on_c, 0, 84, 0
2, 448135, Note_on_c, 0, 60, 0
2, 448200, Note_on_c, 0, 83, 53
2, 448200, Note_on_c, 0, 86, 53
2, 448200, Note_on_c, 0, 74, 53
2, 448200, Note_on_c, 0, 56, 53
2, 448200, Note_on_c, 0, 59, 53
2, 448200, Note_on_c, 0, 52, 53
2, 448255, Note_on_c, 0, 52, 0
2, 448255, Note_on_c, 0, 86, 0
2, 448255, Note_on_c, 0, 74, 0
2, 448255, Note_on_c, 0, 83, 0
2, 448255, Note_on_c, 0, 59, 0
2, 448255, Note_on_c, 0, 56, 0
2, 448320, Note_on_c, 0, 81, 53
2, 448320, Note_on_c, 0, 84, 53
2, 448320, Note_on_c, 0, 72, 53
2, 448320, Note_on_c, 0, 60, 53
2, 448320, Note_on_c, 0, 57, 53
2, 448375, Note_on_c, 0, 57, 0
2, 448375, Note_on_c, 0, 72, 0
2, 448375, Note_on_c, 0, 81, 0
2, 448375, Note_on_c, 0, 84, 0
2, 448375, Note_on_c, 0, 60, 0
2, 448440, Note_on_c, 0, 80, 53
2, 448440, Note_on_c, 0, 83, 53
2, 448440, Note_on_c, 0, 71, 53
2, 448440, Note_on_c, 0, 62, 53
2, 448440, Note_on_c, 0, 59, 53
2, 448495, Note_on_c, 0, 59, 0
2, 448495, Note_on_c, 0, 71, 0
2, 448495, Note_on_c, 0, 80, 0
2, 448495, Note_on_c, 0, 83, 0
2, 448495, Note_on_c, 0, 62, 0
2, 448560, Note_on_c, 0, 88, 53
2, 448560, Note_on_c, 0, 76, 53
2, 448560, Note_on_c, 0, 60, 53
2, 448560, Note_on_c, 0, 57, 53
2, 448615, Note_on_c, 0, 57, 0
2, 448615, Note_on_c, 0, 88, 0
2, 448615, Note_on_c, 0, 76, 0
2, 448615, Note_on_c, 0, 60, 0
2, 448680, Note_on_c, 0, 64, 53
2, 448680, Note_on_c, 0, 60, 53
2, 448735, Note_on_c, 0, 60, 0
2, 448735, Note_on_c, 0, 64, 0
2, 448740, Note_on_c, 0, 76, 53
2, 448795, Note_on_c, 0, 76, 0
2, 448800, Note_on_c, 0, 76, 53
2, 448800, Note_on_c, 0, 64, 53
2, 448800, Note_on_c, 0, 60, 53
2, 448855, Note_on_c, 0, 60, 0
2, 448855, Note_on_c, 0, 64, 0
2, 448855, Note_on_c, 0, 76, 0
2, 448920, Note_on_c, 0, 76, 53
2, 448920, Note_on_c, 0, 81, 53
2, 448920, Note_on_c, 0, 69, 53
2, 448920, Note_on_c, 0, 60, 53
2, 448920, Note_on_c, 0, 64, 53
2, 448920, Note_on_c, 0, 57, 53
2, 448975, Note_on_c, 0, 57, 0
2, 448975, Note_on_c, 0, 81, 0
2, 448975, Note_on_c, 0, 69, 0
2, 448975, Note_on_c, 0, 76, 0
2, 448975, Note_on_c, 0, 64, 0
2, 448975, Note_on_c, 0, 60, 0
2, 449040, Note_on_c, 0, 80, 53
2, 449040, Note_on_c, 0, 83, 53
2, 449040, Note_on_c, 0, 71, 53
2, 449040, Note_on_c, 0, 62, 53
2, 449040, Note_on_c, 0, 59, 53
2, 449095, Note_on_c, 0, 59, 0
2, 449095, Note_on_c, 0, 71, 0
2, 449095, Note_on_c, 0, 80, 0
2, 449095, Note_on_c, 0, 83, 0
2, 449095, Note_on_c, 0, 62, 0
2, 449160, Note_on_c, 0, 81, 53
2, 449160, Note_on_c, 0, 84, 53
2, 449160, Note_on_c, 0, 72, 53
2, 449160, Note_on_c, 0, 60, 53
2, 449160, Note_on_c, 0, 57, 53
2, 449215, Note_on_c, 0, 57, 0
2, 449215, Note_on_c, 0, 72, 0
2, 449215, Note_on_c, 0, 81, 0
2, 449215, Note_on_c, 0, 84, 0
2, 449215, Note_on_c, 0, 60, 0
2, 449280, Note_on_c, 0, 80, 53
2, 449280, Note_on_c, 0, 83, 53
2, 449280, Note_on_c, 0, 71, 53
2, 449280, Note_on_c, 0, 59, 53
2, 449280, Note_on_c, 0, 62, 53
2, 449280, Note_on_c, 0, 52, 53
2, 449335, Note_on_c, 0, 52, 0
2, 449335, Note_on_c, 0, 83, 0
2, 449335, Note_on_c, 0, 71, 0
2, 449335, Note_on_c, 0, 80, 0
2, 449335, Note_on_c, 0, 62, 0
2, 449335, Note_on_c, 0, 59, 0
2, 449400, Note_on_c, 0, 81, 53
2, 449400, Note_on_c, 0, 84, 53
2, 449400, Note_on_c, 0, 72, 53
2, 449400, Note_on_c, 0, 60, 53
2, 449400, Note_on_c, 0, 57, 53
2, 449455, Note_on_c, 0, 57, 0
2, 449455, Note_on_c, 0, 72, 0
2, 449455, Note_on_c, 0, 81, 0
2, 449455, Note_on_c, 0, 84, 0
2, 449455, Note_on_c, 0, 60, 0
2, 449520, Note_on_c, 0, 83, 53
2, 449520, Note_on_c, 0, 86, 53
2, 449520, Note_on_c, 0, 74, 53
2, 449520, Note_on_c, 0, 59, 53
2, 449520, Note_on_c, 0, 56, 53
2, 449575, Note_on_c, 0, 56, 0
2, 449575, Note_on_c, 0, 74, 0
2, 449575, Note_on_c, 0, 83, 0
2, 449575, Note_on_c, 0, 86, 0
2, 449575, Note_on_c, 0, 59, 0
2, 449640, Note_on_c, 0, 41, 117
2, 449695, Note_on_c, 0, 41, 0
2, 449820, Note_on_c, 0, 29, 117
2, 449875, Note_on_c, 0, 29, 0
2, 449880, Note_on_c, 0, 29, 117
2, 449935, Note_on_c, 0, 29, 0
2, 450000, Note_on_c, 0, 77, 53
2, 450000, Note_on_c, 0, 81, 53
2, 450000, Note_on_c, 0, 69, 53
2, 450000, Note_on_c, 0, 60, 53
2, 450000, Note_on_c, 0, 65, 53
2, 450000, Note_on_c, 0, 57, 53
2, 450055, Note_on_c, 0, 57, 0
2, 450055, Note_on_c, 0, 81, 0
2, 450055, Note_on_c, 0, 69, 0
2, 450055, Note_on_c, 0, 77, 0
2, 450055, Note_on_c, 0, 65, 0
2, 450055, Note_on_c, 0, 60, 0
2, 450120, Note_on_c, 0, 79, 53
2, 450120, Note_on_c, 0, 82, 53
2, 450120, Note_on_c, 0, 70, 53
2, 450120, Note_on_c, 0, 58, 53
2, 450120, Note_on_c, 0, 55, 53
2, 450175, Note_on_c, 0, 55, 0
2, 450175, Note_on_c, 0, 70, 0
2, 450175, Note_on_c, 0, 79, 0
2, 450175, Note_on_c, 0, 82, 0
2, 450175, Note_on_c, 0, 58, 0
2, 450240, Note_on_c, 0, 81, 53
2, 450240, Note_on_c, 0, 84, 53
2, 450240, Note_on_c, 0, 72, 53
2, 450240, Note_on_c, 0, 57, 53
2, 450240, Note_on_c, 0, 53, 53
2, 450295, Note_on_c, 0, 53, 0
2, 450295, Note_on_c, 0, 72, 0
2, 450295, Note_on_c, 0, 81, 0
2, 450295, Note_on_c, 0, 84, 0
2, 450295, Note_on_c, 0, 57, 0
2, 450360, Note_on_c, 0, 79, 53
2, 450360, Note_on_c, 0, 82, 53
2, 450360, Note_on_c, 0, 70, 53
2, 450360, Note_on_c, 0, 62, 53
2, 450360, Note_on_c, 0, 65, 53
2, 450360, Note_on_c, 0, 58, 53
2, 450415, Note_on_c, 0, 58, 0
2, 450415, Note_on_c, 0, 82, 0
2, 450415, Note_on_c, 0, 70, 0
2, 450415, Note_on_c, 0, 79, 0
2, 450415, Note_on_c, 0, 65, 0
2, 450415, Note_on_c, 0, 62, 0
2, 450480, Note_on_c, 0, 81, 53
2, 450480, Note_on_c, 0, 84, 53
2, 450480, Note_on_c, 0, 72, 53
2, 450480, Note_on_c, 0, 60, 53
2, 450480, Note_on_c, 0, 65, 53
2, 450480, Note_on_c, 0, 57, 53
2, 450535, Note_on_c, 0, 57, 0
2, 450535, Note_on_c, 0, 84, 0
2, 450535, Note_on_c, 0, 72, 0
2, 450535, Note_on_c, 0, 81, 0
2, 450535, Note_on_c, 0, 65, 0
2, 450535, Note_on_c, 0, 60, 0
2, 450600, Note_on_c, 0, 82, 53
2, 450600, Note_on_c, 0, 86, 53
2, 450600, Note_on_c, 0, 74, 53
2, 450600, Note_on_c, 0, 58, 53
2, 450600, Note_on_c, 0, 65, 53
2, 450600, Note_on_c, 0, 55, 53
2, 450655, Note_on_c, 0, 55, 0
2, 450655, Note_on_c, 0, 86, 0
2, 450655, Note_on_c, 0, 74, 0
2, 450655, Note_on_c, 0, 82, 0
2, 450655, Note_on_c, 0, 65, 0
2, 450655, Note_on_c, 0, 58, 0
2, 450720, Note_on_c, 0, 41, 117
2, 450775, Note_on_c, 0, 41, 0
2, 450900, Note_on_c, 0, 29, 117
2, 450955, Note_on_c, 0, 29, 0
2, 450960, Note_on_c, 0, 29, 117
2, 451015, Note_on_c, 0, 29, 0
2, 451080, Note_on_c, 0, 81, 53
2, 451080, Note_on_c, 0, 84, 53
2, 451080, Note_on_c, 0, 72, 53
2, 451080, Note_on_c, 0, 65, 53
2, 451080, Note_on_c, 0, 57, 53
2, 451135, Note_on_c, 0, 57, 0
2, 451135, Note_on_c, 0, 72, 0
2, 451135, Note_on_c, 0, 81, 0
2, 451135, Note_on_c, 0, 84, 0
2, 451135, Note_on_c, 0, 65, 0
2, 451200, Note_on_c, 0, 79, 53
2, 451200, Note_on_c, 0, 88, 53
2, 451200, Note_on_c, 0, 76, 53
2, 451200, Note_on_c, 0, 58, 53
2, 451200, Note_on_c, 0, 55, 53
2, 451255, Note_on_c, 0, 55, 0
2, 451255, Note_on_c, 0, 76, 0
2, 451255, Note_on_c, 0, 79, 0
2, 451255, Note_on_c, 0, 88, 0
2, 451255, Note_on_c, 0, 58, 0
2, 451320, Note_on_c, 0, 81, 53
2, 451320, Note_on_c, 0, 89, 53
2, 451320, Note_on_c, 0, 77, 53
2, 451320, Note_on_c, 0, 57, 53
2, 451320, Note_on_c, 0, 53, 53
2, 451375, Note_on_c, 0, 53, 0
2, 451375, Note_on_c, 0, 77, 0
2, 451375, Note_on_c, 0, 81, 0
2, 451375, Note_on_c, 0, 89, 0
2, 451375, Note_on_c, 0, 57, 0
2, 451440, Note_on_c, 0, 79, 53
2, 451440, Note_on_c, 0, 88, 53
2, 451440, Note_on_c, 0, 76, 53
2, 451440, Note_on_c, 0, 58, 53
2, 451440, Note_on_c, 0, 60, 53
2, 451440, Note_on_c, 0, 55, 53
2, 451495, Note_on_c, 0, 55, 0
2, 451495, Note_on_c, 0, 88, 0
2, 451495, Note_on_c, 0, 76, 0
2, 451495, Note_on_c, 0, 79, 0
2, 451495, Note_on_c, 0, 60, 0
2, 451495, Note_on_c, 0, 58, 0
2, 451560, Note_on_c, 0, 81, 53
2, 451560, Note_on_c, 0, 89, 53
2, 451560, Note_on_c, 0, 77, 53
2, 451560, Note_on_c, 0, 57, 53
2, 451560, Note_on_c, 0, 60, 53
2, 451560, Note_on_c, 0, 53, 53
2, 451615, Note_on_c, 0, 53, 0
2, 451615, Note_on_c, 0, 89, 0
2, 451615, Note_on_c, 0, 77, 0
2, 451615, Note_on_c, 0, 81, 0
2, 451615, Note_on_c, 0, 60, 0
2, 451615, Note_on_c, 0, 57, 0
2, 451680, Note_on_c, 0, 82, 53
2, 451680, Note_on_c, 0, 91, 53
2, 451680, Note_on_c, 0, 79, 53
2, 451680, Note_on_c, 0, 55, 53
2, 451680, Note_on_c, 0, 60, 53
2, 451680, Note_on_c, 0, 52, 53
2, 451735, Note_on_c, 0, 52, 0
2, 451735, Note_on_c, 0, 91, 0
2, 451735, Note_on_c, 0, 79, 0
2, 451735, Note_on_c, 0, 82, 0
2, 451735, Note_on_c, 0, 60, 0
2, 451735, Note_on_c, 0, 55, 0
2, 451800, Note_on_c, 0, 41, 117
2, 451855, Note_on_c, 0, 41, 0
2, 451980, Note_on_c, 0, 29, 117
2, 452035, Note_on_c, 0, 29, 0
2, 452040, Note_on_c, 0, 29, 117
2, 452095, Note_on_c, 0, 29, 0
2, 452160, Note_on_c, 0, 69, 53
2, 452160, Note_on_c, 0, 72, 53
2, 452160, Note_on_c, 0, 77, 53
2, 452160, Note_on_c, 0, 81, 53
2, 452160, Note_on_c, 0, 89, 53
2, 452160, Note_on_c, 0, 65, 53
2, 452215, Note_on_c, 0, 65, 0
2, 452215, Note_on_c, 0, 72, 0
2, 452215, Note_on_c, 0, 77, 0
2, 452215, Note_on_c, 0, 69, 0
2, 452215, Note_on_c, 0, 89, 0
2, 452215, Note_on_c, 0, 81, 0
2, 452280, Note_on_c, 0, 70, 53
2, 452280, Note_on_c, 0, 79, 53
2, 452280, Note_on_c, 0, 82, 53
2, 452280, Note_on_c, 0, 89, 53
2, 452280, Note_on_c, 0, 67, 53
2, 452335, Note_on_c, 0, 67, 0
2, 452335, Note_on_c, 0, 82, 0
2, 452335, Note_on_c, 0, 70, 0
2, 452335, Note_on_c, 0, 79, 0
2, 452335, Note_on_c, 0, 89, 0
2, 452400, Note_on_c, 0, 69, 53
2, 452400, Note_on_c, 0, 81, 53
2, 452400, Note_on_c, 0, 84, 53
2, 452400, Note_on_c, 0, 89, 53
2, 452400, Note_on_c, 0, 65, 53
2, 452455, Note_on_c, 0, 65, 0
2, 452455, Note_on_c, 0, 84, 0
2, 452455, Note_on_c, 0, 69, 0
2, 452455, Note_on_c, 0, 81, 0
2, 452455, Note_on_c, 0, 89, 0
2, 452520, Note_on_c, 0, 70, 53
2, 452520, Note_on_c, 0, 74, 53
2, 452520, Note_on_c, 0, 79, 53
2, 452520, Note_on_c, 0, 82, 53
2, 452520, Note_on_c, 0, 89, 53
2, 452520, Note_on_c, 0, 65, 53
2, 452575, Note_on_c, 0, 65, 0
2, 452575, Note_on_c, 0, 74, 0
2, 452575, Note_on_c, 0, 79, 0
2, 452575, Note_on_c, 0, 70, 0
2, 452575, Note_on_c, 0, 89, 0
2, 452575, Note_on_c, 0, 82, 0
2, 452640, Note_on_c, 0, 72, 53
2, 452640, Note_on_c, 0, 81, 53
2, 452640, Note_on_c, 0, 84, 53
2, 452640, Note_on_c, 0, 89, 53
2, 452640, Note_on_c, 0, 69, 53
2, 452695, Note_on_c, 0, 69, 0
2, 452695, Note_on_c, 0, 84, 0
2, 452695, Note_on_c, 0, 72, 0
2, 452695, Note_on_c, 0, 81, 0
2, 452695, Note_on_c, 0, 89, 0
2, 452760, Note_on_c, 0, 70, 53
2, 452760, Note_on_c, 0, 82, 53
2, 452760, Note_on_c, 0, 86, 53
2, 452760, Note_on_c, 0, 89, 53
2, 452760, Note_on_c, 0, 67, 53
2, 452815, Note_on_c, 0, 67, 0
2, 452815, Note_on_c, 0, 86, 0
2, 452815, Note_on_c, 0, 70, 0
2, 452815, Note_on_c, 0, 82, 0
2, 452815, Note_on_c, 0, 89, 0
2, 452880, Note_on_c, 0, 41, 117
2, 452935, Note_on_c, 0, 41, 0
2, 453060, Note_on_c, 0, 29, 117
2, 453115, Note_on_c, 0, 29, 0
2, 453120, Note_on_c, 0, 29, 117
2, 453175, Note_on_c, 0, 29, 0
2, 453240, Note_on_c, 0, 93, 71
2, 453240, Note_on_c, 0, 81, 71
2, 453240, Note_on_c, 0, 72, 71
2, 453240, Note_on_c, 0, 65, 71
2, 453295, Note_on_c, 0, 65, 0
2, 453295, Note_on_c, 0, 93, 0
2, 453295, Note_on_c, 0, 81, 0
2, 453295, Note_on_c, 0, 72, 0
2, 453360, Note_on_c, 0, 91, 71
2, 453360, Note_on_c, 0, 84, 71
2, 453360, Note_on_c, 0, 76, 71
2, 453360, Note_on_c, 0, 67, 71
2, 453415, Note_on_c, 0, 67, 0
2, 453415, Note_on_c, 0, 91, 0
2, 453415, Note_on_c, 0, 84, 0
2, 453415, Note_on_c, 0, 76, 0
2, 453480, Note_on_c, 0, 89, 71
2, 453480, Note_on_c, 0, 84, 71
2, 453480, Note_on_c, 0, 77, 71
2, 453480, Note_on_c, 0, 69, 71
2, 453535, Note_on_c, 0, 69, 0
2, 453535, Note_on_c, 0, 89, 0
2, 453535, Note_on_c, 0, 84, 0
2, 453535, Note_on_c, 0, 77, 0
2, 453600, Note_on_c, 0, 91, 71
2, 453600, Note_on_c, 0, 84, 71
2, 453600, Note_on_c, 0, 67, 71
2, 453600, Note_on_c, 0, 76, 71
2, 453600, Note_on_c, 0, 65, 71
2, 453655, Note_on_c, 0, 65, 0
2, 453655, Note_on_c, 0, 67, 0
2, 453655, Note_on_c, 0, 91, 0
2, 453655, Note_on_c, 0, 84, 0
2, 453655, Note_on_c, 0, 76, 0
2, 453720, Note_on_c, 0, 89, 71
2, 453720, Note_on_c, 0, 84, 71
2, 453720, Note_on_c, 0, 77, 71
2, 453720, Note_on_c, 0, 69, 71
2, 453775, Note_on_c, 0, 69, 0
2, 453775, Note_on_c, 0, 89, 0
2, 453775, Note_on_c, 0, 84, 0
2, 453775, Note_on_c, 0, 77, 0
2, 453840, Note_on_c, 0, 88, 71
2, 453840, Note_on_c, 0, 84, 71
2, 453840, Note_on_c, 0, 79, 71
2, 453840, Note_on_c, 0, 70, 71
2, 453895, Note_on_c, 0, 70, 0
2, 453895, Note_on_c, 0, 88, 0
2, 453895, Note_on_c, 0, 84, 0
2, 453895, Note_on_c, 0, 79, 0
2, 453960, Note_on_c, 0, 81, 71
2, 453960, Note_on_c, 0, 89, 71
2, 453960, Note_on_c, 0, 77, 71
2, 453960, Note_on_c, 0, 69, 71
2, 453960, Note_on_c, 0, 72, 71
2, 453960, Note_on_c, 0, 65, 71
2, 454015, Note_on_c, 0, 65, 0
2, 454015, Note_on_c, 0, 89, 0
2, 454015, Note_on_c, 0, 77, 0
2, 454015, Note_on_c, 0, 81, 0
2, 454015, Note_on_c, 0, 72, 0
2, 454015, Note_on_c, 0, 69, 0
2, 454080, Note_on_c, 0, 82, 71
2, 454080, Note_on_c, 0, 91, 71
2, 454080, Note_on_c, 0, 79, 71
2, 454080, Note_on_c, 0, 70, 71
2, 454080, Note_on_c, 0, 67, 71
2, 454135, Note_on_c, 0, 67, 0
2, 454135, Note_on_c, 0, 79, 0
2, 454135, Note_on_c, 0, 82, 0
2, 454135, Note_on_c, 0, 91, 0
2, 454135, Note_on_c, 0, 70, 0
2, 454200, Note_on_c, 0, 84, 71
2, 454200, Note_on_c, 0, 93, 71
2, 454200, Note_on_c, 0, 81, 71
2, 454200, Note_on_c, 0, 69, 71
2, 454200, Note_on_c, 0, 65, 71
2, 454255, Note_on_c, 0, 65, 0
2, 454255, Note_on_c, 0, 81, 0
2, 454255, Note_on_c, 0, 84, 0
2, 454255, Note_on_c, 0, 93, 0
2, 454255, Note_on_c, 0, 69, 0
2, 454320, Note_on_c, 0, 84, 71
2, 454320, Note_on_c, 0, 93, 71
2, 454320, Note_on_c, 0, 81, 71
2, 454320, Note_on_c, 0, 53, 71
2, 454375, Note_on_c, 0, 53, 0
2, 454375, Note_on_c, 0, 84, 0
2, 454375, Note_on_c, 0, 93, 0
2, 454375, Note_on_c, 0, 81, 0
2, 454440, Note_on_c, 0, 82, 71
2, 454440, Note_on_c, 0, 91, 71
2, 454440, Note_on_c, 0, 79, 71
2, 454495, Note_on_c, 0, 79, 0
2, 454495, Note_on_c, 0, 91, 0
2, 454495, Note_on_c, 0, 82, 0
2, 454500, Note_on_c, 0, 41, 71
2, 454555, Note_on_c, 0, 41, 0
2, 454560, Note_on_c, 0, 81, 71
2, 454560, Note_on_c, 0, 89, 71
2, 454560, Note_on_c, 0, 77, 71
2, 454560, Note_on_c, 0, 41, 71
2, 454615, Note_on_c, 0, 41, 0
2, 454615, Note_on_c, 0, 81, 0
2, 454615, Note_on_c, 0, 89, 0
2, 454615, Note_on_c, 0, 77, 0
2, 454680, Note_on_c, 0, 81, 71
2, 454680, Note_on_c, 0, 89, 71
2, 454680, Note_on_c, 0, 77, 71
2, 454680, Note_on_c, 0, 69, 71
2, 454680, Note_on_c, 0, 72, 71
2, 454680, Note_on_c, 0, 65, 71
2, 454735, Note_on_c, 0, 65, 0
2, 454735, Note_on_c, 0, 89, 0
2, 454735, Note_on_c, 0, 77, 0
2, 454735, Note_on_c, 0, 81, 0
2, 454735, Note_on_c, 0, 72, 0
2, 454735, Note_on_c, 0, 69, 0
2, 454800, Note_on_c, 0, 82, 71
2, 454800, Note_on_c, 0, 91, 71
2, 454800, Note_on_c, 0, 79, 71
2, 454800, Note_on_c, 0, 70, 71
2, 454800, Note_on_c, 0, 67, 71
2, 454855, Note_on_c, 0, 67, 0
2, 454855, Note_on_c, 0, 79, 0
2, 454855, Note_on_c, 0, 82, 0
2, 454855, Note_on_c, 0, 91, 0
2, 454855, Note_on_c, 0, 70, 0
2, 454920, Note_on_c, 0, 81, 71
2, 454920, Note_on_c, 0, 89, 71
2, 454920, Note_on_c, 0, 77, 71
2, 454920, Note_on_c, 0, 72, 71
2, 454920, Note_on_c, 0, 69, 71
2, 454975, Note_on_c, 0, 69, 0
2, 454975, Note_on_c, 0, 77, 0
2, 454975, Note_on_c, 0, 81, 0
2, 454975, Note_on_c, 0, 89, 0
2, 454975, Note_on_c, 0, 72, 0
2, 455040, Note_on_c, 0, 76, 71
2, 455040, Note_on_c, 0, 67, 71
2, 455040, Note_on_c, 0, 60, 71
2, 455095, Note_on_c, 0, 60, 0
2, 455095, Note_on_c, 0, 67, 0
2, 455095, Note_on_c, 0, 76, 0
2, 455160, Note_on_c, 0, 77, 71
2, 455160, Note_on_c, 0, 67, 71
2, 455160, Note_on_c, 0, 60, 71
2, 455215, Note_on_c, 0, 60, 0
2, 455215, Note_on_c, 0, 67, 0
2, 455215, Note_on_c, 0, 77, 0
2, 455280, Note_on_c, 0, 79, 71
2, 455280, Note_on_c, 0, 70, 71
2, 455280, Note_on_c, 0, 60, 71
2, 455335, Note_on_c, 0, 60, 0
2, 455335, Note_on_c, 0, 70, 0
2, 455335, Note_on_c, 0, 79, 0
2, 455400, Note_on_c, 0, 79, 71
2, 455400, Note_on_c, 0, 70, 71
2, 455400, Note_on_c, 0, 72, 71
2, 455455, Note_on_c, 0, 72, 0
2, 455455, Note_on_c, 0, 70, 0
2, 455455, Note_on_c, 0, 79, 0
2, 455520, Note_on_c, 0, 77, 71
2, 455520, Note_on_c, 0, 69, 71
2, 455575, Note_on_c, 0, 69, 0
2, 455575, Note_on_c, 0, 77, 0
2, 455580, Note_on_c, 0, 60, 71
2, 455635, Note_on_c, 0, 60, 0
2, 455640, Note_on_c, 0, 76, 71
2, 455640, Note_on_c, 0, 67, 71
2, 455640, Note_on_c, 0, 60, 71
2, 455695, Note_on_c, 0, 60, 0
2, 455695, Note_on_c, 0, 67, 0
2, 455695, Note_on_c, 0, 76, 0
2, 455760, Note_on_c, 0, 76, 71
2, 455760, Note_on_c, 0, 67, 71
2, 455760, Note_on_c, 0, 60, 71
2, 455815, Note_on_c, 0, 60, 0
2, 455815, Note_on_c, 0, 67, 0
2, 455815, Note_on_c, 0, 76, 0
2, 455880, Note_on_c, 0, 77, 71
2, 455880, Note_on_c, 0, 69, 71
2, 455880, Note_on_c, 0, 60, 71
2, 455935, Note_on_c, 0, 60, 0
2, 455935, Note_on_c, 0, 69, 0
2, 455935, Note_on_c, 0, 77, 0
2, 456000, Note_on_c, 0, 76, 71
2, 456000, Note_on_c, 0, 67, 71
2, 456000, Note_on_c, 0, 60, 71
2, 456055, Note_on_c, 0, 60, 0
2, 456055, Note_on_c, 0, 67, 0
2, 456055, Note_on_c, 0, 76, 0
2, 456120, Note_on_c, 0, 77, 71
2, 456120, Note_on_c, 0, 86, 71
2, 456120, Note_on_c, 0, 74, 71
2, 456120, Note_on_c, 0, 65, 71
2, 456120, Note_on_c, 0, 69, 71
2, 456120, Note_on_c, 0, 62, 71
2, 456175, Note_on_c, 0, 62, 0
2, 456175, Note_on_c, 0, 86, 0
2, 456175, Note_on_c, 0, 74, 0
2, 456175, Note_on_c, 0, 77, 0
2, 456175, Note_on_c, 0, 69, 0
2, 456175, Note_on_c, 0, 65, 0
2, 456240, Note_on_c, 0, 79, 71
2, 456240, Note_on_c, 0, 88, 71
2, 456240, Note_on_c, 0, 76, 71
2, 456240, Note_on_c, 0, 67, 71
2, 456240, Note_on_c, 0, 64, 71
2, 456295, Note_on_c, 0, 64, 0
2, 456295, Note_on_c, 0, 76, 0
2, 456295, Note_on_c, 0, 79, 0
2, 456295, Note_on_c, 0, 88, 0
2, 456295, Note_on_c, 0, 67, 0
2, 456360, Note_on_c, 0, 81, 71
2, 456360, Note_on_c, 0, 89, 71
2, 456360, Note_on_c, 0, 77, 71
2, 456360, Note_on_c, 0, 65, 71
2, 456360, Note_on_c, 0, 62, 71
2, 456415, Note_on_c, 0, 62, 0
2, 456415, Note_on_c, 0, 77, 0
2, 456415, Note_on_c, 0, 81, 0
2, 456415, Note_on_c, 0, 89, 0
2, 456415, Note_on_c, 0, 65, 0
2, 456480, Note_on_c, 0, 81, 71
2, 456480, Note_on_c, 0, 89, 71
2, 456480, Note_on_c, 0, 77, 71
2, 456480, Note_on_c, 0, 62, 71
2, 456535, Note_on_c, 0, 62, 0
2, 456535, Note_on_c, 0, 81, 0
2, 456535, Note_on_c, 0, 89, 0
2, 456535, Note_on_c, 0, 77, 0
2, 456600, Note_on_c, 0, 79, 71
2, 456600, Note_on_c, 0, 88, 71
2, 456600, Note_on_c, 0, 76, 71
2, 456655, Note_on_c, 0, 76, 0
2, 456655, Note_on_c, 0, 88, 0
2, 456655, Note_on_c, 0, 79, 0
2, 456660, Note_on_c, 0, 50, 71
2, 456715, Note_on_c, 0, 50, 0
2, 456720, Note_on_c, 0, 77, 71
2, 456720, Note_on_c, 0, 86, 71
2, 456720, Note_on_c, 0, 74, 71
2, 456720, Note_on_c, 0, 50, 71
2, 456775, Note_on_c, 0, 50, 0
2, 456775, Note_on_c, 0, 77, 0
2, 456775, Note_on_c, 0, 86, 0
2, 456775, Note_on_c, 0, 74, 0
2, 456840, Note_on_c, 0, 77, 51
2, 456840, Note_on_c, 0, 86, 51
2, 456840, Note_on_c, 0, 74, 51
2, 456840, Note_on_c, 0, 65, 51
2, 456840, Note_on_c, 0, 69, 51
2, 456840, Note_on_c, 0, 62, 51
2, 456895, Note_on_c, 0, 62, 0
2, 456895, Note_on_c, 0, 86, 0
2, 456895, Note_on_c, 0, 74, 0
2, 456895, Note_on_c, 0, 77, 0
2, 456895, Note_on_c, 0, 69, 0
2, 456895, Note_on_c, 0, 65, 0
2, 456960, Note_on_c, 0, 79, 46
2, 456960, Note_on_c, 0, 88, 46
2, 456960, Note_on_c, 0, 76, 46
2, 456960, Note_on_c, 0, 67, 46
2, 456960, Note_on_c, 0, 64, 46
2, 457015, Note_on_c, 0, 64, 0
2, 457015, Note_on_c, 0, 76, 0
2, 457015, Note_on_c, 0, 79, 0
2, 457015, Note_on_c, 0, 88, 0
2, 457015, Note_on_c, 0, 67, 0
2, 457080, Note_on_c, 0, 77, 41
2, 457080, Note_on_c, 0, 86, 41
2, 457080, Note_on_c, 0, 74, 41
2, 457080, Note_on_c, 0, 69, 41
2, 457080, Note_on_c, 0, 65, 41
2, 457135, Note_on_c, 0, 65, 0
2, 457135, Note_on_c, 0, 74, 0
2, 457135, Note_on_c, 0, 77, 0
2, 457135, Note_on_c, 0, 86, 0
2, 457135, Note_on_c, 0, 69, 0
2, 457200, Note_on_c, 0, 73, 37
2, 457200, Note_on_c, 0, 64, 37
2, 457200, Note_on_c, 0, 57, 37
2, 457255, Note_on_c, 0, 57, 0
2, 457255, Note_on_c, 0, 64, 0
2, 457255, Note_on_c, 0, 73, 0
2, 457320, Note_on_c, 0, 74, 32
2, 457320, Note_on_c, 0, 65, 32
2, 457320, Note_on_c, 0, 57, 32
2, 457375, Note_on_c, 0, 57, 0
2, 457375, Note_on_c, 0, 65, 0
2, 457375, Note_on_c, 0, 74, 0
2, 457440, Note_on_c, 0, 76, 28
2, 457440, Note_on_c, 0, 67, 28
2, 457440, Note_on_c, 0, 57, 28
2, 457495, Note_on_c, 0, 57, 0
2, 457495, Note_on_c, 0, 67, 0
2, 457495, Note_on_c, 0, 76, 0
2, 457560, Note_on_c, 0, 76, 23
2, 457560, Note_on_c, 0, 67, 23
2, 457560, Note_on_c, 0, 57, 21
2, 457615, Note_on_c, 0, 57, 0
2, 457615, Note_on_c, 0, 67, 0
2, 457615, Note_on_c, 0, 76, 0
2, 457680, Note_on_c, 0, 74, 18
2, 457680, Note_on_c, 0, 65, 18
2, 457735, Note_on_c, 0, 65, 0
2, 457735, Note_on_c, 0, 74, 0
2, 457740, Note_on_c, 0, 45, 16
2, 457795, Note_on_c, 0, 45, 0
2, 457800, Note_on_c, 0, 73, 14
2, 457800, Note_on_c, 0, 64, 14
2, 457800, Note_on_c, 0, 45, 12
2, 457855, Note_on_c, 0, 45, 0
2, 457855, Note_on_c, 0, 64, 0
2, 457855, Note_on_c, 0, 73, 0
2, 457920, Note_on_c, 0, 73, 9
2, 457920, Note_on_c, 0, 64, 9
2, 457920, Note_on_c, 0, 57, 9
2, 457920, Note_on_c, 0, 55, 9
2, 457975, Note_on_c, 0, 55, 0
2, 457975, Note_on_c, 0, 73, 0
2, 457975, Note_on_c, 0, 64, 0
2, 457975, Note_on_c, 0, 57, 0
2, 458040, Note_on_c, 0, 74, 5
2, 458040, Note_on_c, 0, 65, 5
2, 458040, Note_on_c, 0, 57, 5
2, 458040, Note_on_c, 0, 53, 5
2, 458095, Note_on_c, 0, 53, 0
2, 458095, Note_on_c, 0, 74, 0
2, 458095, Note_on_c, 0, 65, 0
2, 458095, Note_on_c, 0, 57, 0
2, 458160, Note_on_c, 0, 73, 1
2, 458160, Note_on_c, 0, 64, 1
2, 458160, Note_on_c, 0, 57, 1
2, 458160, Note_on_c, 0, 55, 1
2, 458215, Note_on_c, 0, 55, 0
2, 458215, Note_on_c, 0, 73, 0
2, 458215, Note_on_c, 0, 64, 0
2, 458215, Note_on_c, 0, 57, 0
2, 458280, Note_on_c, 0, 77, 21
2, 458280, Note_on_c, 0, 86, 21
2, 458280, Note_on_c, 0, 74, 21
2, 458280, Note_on_c, 0, 57, 21
2, 458280, Note_on_c, 0, 53, 21
2, 458335, Note_on_c, 0, 53, 0
2, 458335, Note_on_c, 0, 74, 0
2, 458335, Note_on_c, 0, 77, 0
2, 458335, Note_on_c, 0, 86, 0
2, 458335, Note_on_c, 0, 57, 0
2, 458400, Note_on_c, 0, 79, 21
2, 458400, Note_on_c, 0, 88, 21
2, 458400, Note_on_c, 0, 76, 21
2, 458400, Note_on_c, 0, 55, 21
2, 458400, Note_on_c, 0, 52, 21
2, 458455, Note_on_c, 0, 52, 0
2, 458455, Note_on_c, 0, 76, 0
2, 458455, Note_on_c, 0, 79, 0
2, 458455, Note_on_c, 0, 88, 0
2, 458455, Note_on_c, 0, 55, 0
2, 458520, Note_on_c, 0, 81, 21
2, 458520, Note_on_c, 0, 89, 21
2, 458520, Note_on_c, 0, 77, 21
2, 458520, Note_on_c, 0, 53, 21
2, 458520, Note_on_c, 0, 50, 21
2, 458575, Note_on_c, 0, 50, 0
2, 458575, Note_on_c, 0, 77, 0
2, 458575, Note_on_c, 0, 81, 0
2, 458575, Note_on_c, 0, 89, 0
2, 458575, Note_on_c, 0, 53, 0
2, 458640, Note_on_c, 0, 81, 21
2, 458640, Note_on_c, 0, 89, 21
2, 458640, Note_on_c, 0, 77, 21
2, 458640, Note_on_c, 0, 69, 21
2, 458695, Note_on_c, 0, 69, 0
2, 458695, Note_on_c, 0, 81, 0
2, 458695, Note_on_c, 0, 89, 0
2, 458695, Note_on_c, 0, 77, 0
2, 458760, Note_on_c, 0, 79, 21
2, 458760, Note_on_c, 0, 88, 21
2, 458760, Note_on_c, 0, 76, 21
2, 458815, Note_on_c, 0, 76, 0
2, 458815, Note_on_c, 0, 88, 0
2, 458815, Note_on_c, 0, 79, 0
2, 458820, Note_on_c, 0, 57, 21
2, 458875, Note_on_c, 0, 57, 0
2, 458880, Note_on_c, 0, 77, 21
2, 458880, Note_on_c, 0, 86, 21
2, 458880, Note_on_c, 0, 74, 21
2, 458880, Note_on_c, 0, 57, 21
2, 458935, Note_on_c, 0, 57, 0
2, 458935, Note_on_c, 0, 77, 0
2, 458935, Note_on_c, 0, 86, 0
2, 458935, Note_on_c, 0, 74, 0
2, 459000, Note_on_c, 0, 77, 21
2, 459000, Note_on_c, 0, 86, 21
2, 459000, Note_on_c, 0, 74, 21
2, 459000, Note_on_c, 0, 57, 21
2, 459000, Note_on_c, 0, 53, 21
2, 459055, Note_on_c, 0, 53, 0
2, 459055, Note_on_c, 0, 74, 0
2, 459055, Note_on_c, 0, 77, 0
2, 459055, Note_on_c, 0, 86, 0
2, 459055, Note_on_c, 0, 57, 0
2, 459120, Note_on_c, 0, 79, 21
2, 459120, Note_on_c, 0, 88, 21
2, 459120, Note_on_c, 0, 76, 21
2, 459120, Note_on_c, 0, 57, 21
2, 459120, Note_on_c, 0, 52, 21
2, 459175, Note_on_c, 0, 52, 0
2, 459175, Note_on_c, 0, 76, 0
2, 459175, Note_on_c, 0, 79, 0
2, 459175, Note_on_c, 0, 88, 0
2, 459175, Note_on_c, 0, 57, 0
2, 459240, Note_on_c, 0, 77, 21
2, 459240, Note_on_c, 0, 86, 21
2, 459240, Note_on_c, 0, 74, 21
2, 459240, Note_on_c, 0, 57, 21
2, 459240, Note_on_c, 0, 53, 21
2, 459295, Note_on_c, 0, 53, 0
2, 459295, Note_on_c, 0, 74, 0
2, 459295, Note_on_c, 0, 77, 0
2, 459295, Note_on_c, 0, 86, 0
2, 459295, Note_on_c, 0, 57, 0
2, 459360, Note_on_c, 0, 73, 21
2, 459360, Note_on_c, 0, 64, 21
2, 459360, Note_on_c, 0, 57, 21
2, 459360, Note_on_c, 0, 55, 21
2, 459415, Note_on_c, 0, 55, 0
2, 459415, Note_on_c, 0, 73, 0
2, 459415, Note_on_c, 0, 64, 0
2, 459415, Note_on_c, 0, 57, 0
2, 459480, Note_on_c, 0, 74, 21
2, 459480, Note_on_c, 0, 65, 21
2, 459480, Note_on_c, 0, 57, 21
2, 459480, Note_on_c, 0, 53, 21
2, 459535, Note_on_c, 0, 53, 0
2, 459535, Note_on_c, 0, 74, 0
2, 459535, Note_on_c, 0, 65, 0
2, 459535, Note_on_c, 0, 57, 0
2, 459600, Note_on_c, 0, 76, 21
2, 459600, Note_on_c, 0, 67, 21
2, 459600, Note_on_c, 0, 57, 21
2, 459600, Note_on_c, 0, 52, 21
2, 459655, Note_on_c, 0, 52, 0
2, 459655, Note_on_c, 0, 76, 0
2, 459655, Note_on_c, 0, 67, 0
2, 459655, Note_on_c, 0, 57, 0
2, 459720, Note_on_c, 0, 76, 21
2, 459720, Note_on_c, 0, 67, 21
2, 459720, Note_on_c, 0, 57, 21
2, 459775, Note_on_c, 0, 57, 0
2, 459775, Note_on_c, 0, 67, 0
2, 459775, Note_on_c, 0, 76, 0
2, 459840, Note_on_c, 0, 74, 21
2, 459840, Note_on_c, 0, 65, 21
2, 459895, Note_on_c, 0, 65, 0
2, 459895, Note_on_c, 0, 74, 0
2, 459900, Note_on_c, 0, 45, 21
2, 459955, Note_on_c, 0, 45, 0
2, 459960, Note_on_c, 0, 73, 21
2, 459960, Note_on_c, 0, 64, 21
2, 459960, Note_on_c, 0, 45, 21
2, 460015, Note_on_c, 0, 45, 0
2, 460015, Note_on_c, 0, 64, 0
2, 460015, Note_on_c, 0, 73, 0
2, 460080, Note_on_c, 0, 55, 21
2, 460080, Note_on_c, 0, 57, 21
2, 460080, Note_on_c, 0, 64, 21
2, 460080, Note_on_c, 0, 73, 21
2, 460135, Note_on_c, 0, 73, 0
2, 460135, Note_on_c, 0, 55, 0
2, 460135, Note_on_c, 0, 57, 0
2, 460135, Note_on_c, 0, 64, 0
2, 460200, Note_on_c, 0, 53, 21
2, 460200, Note_on_c, 0, 57, 21
2, 460200, Note_on_c, 0, 65, 21
2, 460200, Note_on_c, 0, 74, 21
2, 460255, Note_on_c, 0, 74, 0
2, 460255, Note_on_c, 0, 53, 0
2, 460255, Note_on_c, 0, 57, 0
2, 460255, Note_on_c, 0, 65, 0
2, 460320, Note_on_c, 0, 55, 21
2, 460320, Note_on_c, 0, 57, 21
2, 460320, Note_on_c, 0, 64, 21
2, 460320, Note_on_c, 0, 73, 21
2, 460375, Note_on_c, 0, 73, 0
2, 460375, Note_on_c, 0, 55, 0
2, 460375, Note_on_c, 0, 57, 0
2, 460375, Note_on_c, 0, 64, 0
2, 460440, Note_on_c, 0, 81, 21
2, 460440, Note_on_c, 0, 69, 21
2, 460440, Note_on_c, 0, 61, 21
2, 460440, Note_on_c, 0, 55, 21
2, 460495, Note_on_c, 0, 55, 0
2, 460495, Note_on_c, 0, 81, 0
2, 460495, Note_on_c, 0, 69, 0
2, 460495, Note_on_c, 0, 61, 0
2, 460560, Note_on_c, 0, 62, 21
2, 460560, Note_on_c, 0, 53, 21
2, 460615, Note_on_c, 0, 53, 0
2, 460615, Note_on_c, 0, 62, 0
2, 460620, Note_on_c, 0, 69, 21
2, 460675, Note_on_c, 0, 69, 0
2, 460680, Note_on_c, 0, 69, 21
2, 460680, Note_on_c, 0, 64, 21
2, 460680, Note_on_c, 0, 52, 21
2, 460735, Note_on_c, 0, 52, 0
2, 460735, Note_on_c, 0, 64, 0
2, 460735, Note_on_c, 0, 69, 0
2, 460800, Note_on_c, 0, 69, 21
2, 460800, Note_on_c, 0, 74, 21
2, 460800, Note_on_c, 0, 65, 21
2, 460800, Note_on_c, 0, 57, 21
2, 460800, Note_on_c, 0, 50, 21
2, 460855, Note_on_c, 0, 50, 0
2, 460855, Note_on_c, 0, 65, 0
2, 460855, Note_on_c, 0, 69, 0
2, 460855, Note_on_c, 0, 74, 0
2, 460855, Note_on_c, 0, 57, 0
2, 460920, Note_on_c, 0, 73, 21
2, 460920, Note_on_c, 0, 76, 21
2, 460920, Note_on_c, 0, 64, 21
2, 460920, Note_on_c, 0, 57, 21
2, 460975, Note_on_c, 0, 57, 0
2, 460975, Note_on_c, 0, 73, 0
2, 460975, Note_on_c, 0, 76, 0
2, 460975, Note_on_c, 0, 64, 0
2, 461040, Note_on_c, 0, 74, 21
2, 461040, Note_on_c, 0, 77, 21
2, 461040, Note_on_c, 0, 65, 21
2, 461040, Note_on_c, 0, 57, 21
2, 461095, Note_on_c, 0, 57, 0
2, 461095, Note_on_c, 0, 74, 0
2, 461095, Note_on_c, 0, 77, 0
2, 461095, Note_on_c, 0, 65, 0
2, 461160, Note_on_c, 0, 73, 21
2, 461160, Note_on_c, 0, 76, 21
2, 461160, Note_on_c, 0, 64, 21
2, 461160, Note_on_c, 0, 57, 21
2, 461160, Note_on_c, 0, 45, 21
2, 461215, Note_on_c, 0, 45, 0
2, 461215, Note_on_c, 0, 64, 0
2, 461215, Note_on_c, 0, 73, 0
2, 461215, Note_on_c, 0, 76, 0
2, 461215, Note_on_c, 0, 57, 0
2, 461280, Note_on_c, 0, 74, 21
2, 461280, Note_on_c, 0, 77, 21
2, 461280, Note_on_c, 0, 65, 21
2, 461280, Note_on_c, 0, 57, 21
2, 461335, Note_on_c, 0, 57, 0
2, 461335, Note_on_c, 0, 74, 0
2, 461335, Note_on_c, 0, 77, 0
2, 461335, Note_on_c, 0, 65, 0
2, 461400, Note_on_c, 0, 76, 21
2, 461400, Note_on_c, 0, 79, 21
2, 461400, Note_on_c, 0, 67, 21
2, 461400, Note_on_c, 0, 57, 21
2, 461455, Note_on_c, 0, 57, 0
2, 461455, Note_on_c, 0, 76, 0
2, 461455, Note_on_c, 0, 79, 0
2, 461455, Note_on_c, 0, 67, 0
2, 461520, Note_on_c, 0, 74, 21
2, 461520, Note_on_c, 0, 77, 21
2, 461520, Note_on_c, 0, 65, 21
2, 461520, Note_on_c, 0, 57, 21
2, 461575, Note_on_c, 0, 57, 0
2, 461575, Note_on_c, 0, 74, 0
2, 461575, Note_on_c, 0, 77, 0
2, 461575, Note_on_c, 0, 65, 0
2, 461640, Note_on_c, 0, 77, 21
2, 461640, Note_on_c, 0, 81, 21
2, 461640, Note_on_c, 0, 69, 21
2, 461695, Note_on_c, 0, 69, 0
2, 461695, Note_on_c, 0, 81, 0
2, 461695, Note_on_c, 0, 77, 0
2, 461700, Note_on_c, 0, 45, 21
2, 461755, Note_on_c, 0, 45, 0
2, 461760, Note_on_c, 0, 77, 21
2, 461760, Note_on_c, 0, 81, 21
2, 461760, Note_on_c, 0, 69, 21
2, 461760, Note_on_c, 0, 45, 21
2, 461815, Note_on_c, 0, 45, 0
2, 461815, Note_on_c, 0, 77, 0
2, 461815, Note_on_c, 0, 81, 0
2, 461815, Note_on_c, 0, 69, 0
2, 461880, Note_on_c, 0, 77, 21
2, 461880, Note_on_c, 0, 81, 21
2, 461880, Note_on_c, 0, 69, 21
2, 461880, Note_on_c, 0, 53, 21
2, 461880, Note_on_c, 0, 50, 21
2, 461935, Note_on_c, 0, 50, 0
2, 461935, Note_on_c, 0, 69, 0
2, 461935, Note_on_c, 0, 77, 0
2, 461935, Note_on_c, 0, 81, 0
2, 461935, Note_on_c, 0, 53, 0
2, 462000, Note_on_c, 0, 79, 21
2, 462000, Note_on_c, 0, 81, 21
2, 462000, Note_on_c, 0, 76, 21
2, 462000, Note_on_c, 0, 55, 21
2, 462000, Note_on_c, 0, 52, 21
2, 462055, Note_on_c, 0, 52, 0
2, 462055, Note_on_c, 0, 76, 0
2, 462055, Note_on_c, 0, 79, 0
2, 462055, Note_on_c, 0, 81, 0
2, 462055, Note_on_c, 0, 55, 0
2, 462120, Note_on_c, 0, 77, 21
2, 462120, Note_on_c, 0, 81, 21
2, 462120, Note_on_c, 0, 74, 21
2, 462120, Note_on_c, 0, 57, 21
2, 462120, Note_on_c, 0, 53, 21
2, 462175, Note_on_c, 0, 53, 0
2, 462175, Note_on_c, 0, 74, 0
2, 462175, Note_on_c, 0, 77, 0
2, 462175, Note_on_c, 0, 81, 0
2, 462175, Note_on_c, 0, 57, 0
2, 462240, Note_on_c, 0, 79, 21
2, 462240, Note_on_c, 0, 81, 21
2, 462240, Note_on_c, 0, 76, 21
2, 462240, Note_on_c, 0, 55, 21
2, 462240, Note_on_c, 0, 52, 21
2, 462295, Note_on_c, 0, 52, 0
2, 462295, Note_on_c, 0, 76, 0
2, 462295, Note_on_c, 0, 79, 0
2, 462295, Note_on_c, 0, 81, 0
2, 462295, Note_on_c, 0, 55, 0
2, 462360, Note_on_c, 0, 77, 21
2, 462360, Note_on_c, 0, 81, 21
2, 462360, Note_on_c, 0, 74, 21
2, 462360, Note_on_c, 0, 57, 21
2, 462360, Note_on_c, 0, 53, 21
2, 462415, Note_on_c, 0, 53, 0
2, 462415, Note_on_c, 0, 74, 0
2, 462415, Note_on_c, 0, 77, 0
2, 462415, Note_on_c, 0, 81, 0
2, 462415, Note_on_c, 0, 57, 0
2, 462480, Note_on_c, 0, 76, 21
2, 462480, Note_on_c, 0, 81, 21
2, 462480, Note_on_c, 0, 73, 21
2, 462480, Note_on_c, 0, 57, 21
2, 462480, Note_on_c, 0, 55, 21
2, 462535, Note_on_c, 0, 55, 0
2, 462535, Note_on_c, 0, 73, 0
2, 462535, Note_on_c, 0, 76, 0
2, 462535, Note_on_c, 0, 81, 0
2, 462535, Note_on_c, 0, 57, 0
2, 462600, Note_on_c, 0, 93, 21
2, 462600, Note_on_c, 0, 81, 21
2, 462600, Note_on_c, 0, 62, 21
2, 462600, Note_on_c, 0, 53, 21
2, 462655, Note_on_c, 0, 53, 0
2, 462655, Note_on_c, 0, 93, 0
2, 462655, Note_on_c, 0, 81, 0
2, 462655, Note_on_c, 0, 62, 0
2, 462720, Note_on_c, 0, 65, 21
2, 462720, Note_on_c, 0, 69, 21
2, 462720, Note_on_c, 0, 57, 21
2, 462775, Note_on_c, 0, 57, 0
2, 462775, Note_on_c, 0, 69, 0
2, 462775, Note_on_c, 0, 65, 0
2, 462780, Note_on_c, 0, 81, 21
2, 462835, Note_on_c, 0, 81, 0
2, 462840, Note_on_c, 0, 81, 21
2, 462840, Note_on_c, 0, 65, 21
2, 462840, Note_on_c, 0, 69, 21
2, 462840, Note_on_c, 0, 57, 21
2, 462895, Note_on_c, 0, 57, 0
2, 462895, Note_on_c, 0, 81, 0
2, 462895, Note_on_c, 0, 65, 0
2, 462895, Note_on_c, 0, 69, 0
2, 462960, Note_on_c, 0, 86, 21
2, 462960, Note_on_c, 0, 74, 21
2, 462960, Note_on_c, 0, 65, 21
2, 462960, Note_on_c, 0, 69, 21
2, 462960, Note_on_c, 0, 57, 21
2, 463015, Note_on_c, 0, 57, 0
2, 463015, Note_on_c, 0, 65, 0
2, 463015, Note_on_c, 0, 86, 0
2, 463015, Note_on_c, 0, 74, 0
2, 463015, Note_on_c, 0, 69, 0
2, 463080, Note_on_c, 0, 85, 21
2, 463080, Note_on_c, 0, 88, 21
2, 463080, Note_on_c, 0, 76, 21
2, 463080, Note_on_c, 0, 67, 21
2, 463080, Note_on_c, 0, 64, 21
2, 463135, Note_on_c, 0, 64, 0
2, 463135, Note_on_c, 0, 76, 0
2, 463135, Note_on_c, 0, 85, 0
2, 463135, Note_on_c, 0, 88, 0
2, 463135, Note_on_c, 0, 67, 0
2, 463200, Note_on_c, 0, 86, 21
2, 463200, Note_on_c, 0, 89, 21
2, 463200, Note_on_c, 0, 77, 21
2, 463200, Note_on_c, 0, 65, 21
2, 463200, Note_on_c, 0, 62, 21
2, 463255, Note_on_c, 0, 62, 0
2, 463255, Note_on_c, 0, 77, 0
2, 463255, Note_on_c, 0, 86, 0
2, 463255, Note_on_c, 0, 89, 0
2, 463255, Note_on_c, 0, 65, 0
2, 463320, Note_on_c, 0, 85, 21
2, 463320, Note_on_c, 0, 88, 21
2, 463320, Note_on_c, 0, 76, 21
2, 463320, Note_on_c, 0, 64, 21
2, 463320, Note_on_c, 0, 67, 21
2, 463320, Note_on_c, 0, 57, 21
2, 463375, Note_on_c, 0, 57, 0
2, 463375, Note_on_c, 0, 88, 0
2, 463375, Note_on_c, 0, 76, 0
2, 463375, Note_on_c, 0, 85, 0
2, 463375, Note_on_c, 0, 67, 0
2, 463375, Note_on_c, 0, 64, 0
2, 463440, Note_on_c, 0, 86, 21
2, 463440, Note_on_c, 0, 89, 21
2, 463440, Note_on_c, 0, 77, 21
2, 463440, Note_on_c, 0, 65, 21
2, 463440, Note_on_c, 0, 62, 21
2, 463495, Note_on_c, 0, 62, 0
2, 463495, Note_on_c, 0, 77, 0
2, 463495, Note_on_c, 0, 86, 0
2, 463495, Note_on_c, 0, 89, 0
2, 463495, Note_on_c, 0, 65, 0
2, 463560, Note_on_c, 0, 88, 21
2, 463560, Note_on_c, 0, 91, 21
2, 463560, Note_on_c, 0, 79, 21
2, 463560, Note_on_c, 0, 64, 21
2, 463560, Note_on_c, 0, 61, 21
2, 463615, Note_on_c, 0, 61, 0
2, 463615, Note_on_c, 0, 79, 0
2, 463615, Note_on_c, 0, 88, 0
2, 463615, Note_on_c, 0, 91, 0
2, 463615, Note_on_c, 0, 64, 0
2, 463680, Note_on_c, 0, 86, 21
2, 463680, Note_on_c, 0, 89, 21
2, 463680, Note_on_c, 0, 77, 21
2, 463680, Note_on_c, 0, 62, 21
2, 463680, Note_on_c, 0, 65, 21
2, 463680, Note_on_c, 0, 57, 21
2, 463735, Note_on_c, 0, 57, 0
2, 463735, Note_on_c, 0, 89, 0
2, 463735, Note_on_c, 0, 77, 0
2, 463735, Note_on_c, 0, 86, 0
2, 463735, Note_on_c, 0, 65, 0
2, 463735, Note_on_c, 0, 62, 0
2, 463800, Note_on_c, 0, 81, 21
2, 463800, Note_on_c, 0, 77, 21
2, 463855, Note_on_c, 0, 77, 0
2, 463855, Note_on_c, 0, 81, 0
2, 463860, Note_on_c, 0, 45, 21
2, 463915, Note_on_c, 0, 45, 0
2, 463920, Note_on_c, 0, 81, 21
2, 463920, Note_on_c, 0, 77, 21
2, 463920, Note_on_c, 0, 45, 21
2, 463975, Note_on_c, 0, 45, 0
2, 463975, Note_on_c, 0, 77, 0
2, 463975, Note_on_c, 0, 81, 0
2, 464040, Note_on_c, 0, 69, 21
2, 464040, Note_on_c, 0, 53, 21
2, 464040, Note_on_c, 0, 50, 21
2, 464095, Note_on_c, 0, 50, 0
2, 464095, Note_on_c, 0, 53, 0
2, 464095, Note_on_c, 0, 69, 0
2, 464160, Note_on_c, 0, 55, 21
2, 464160, Note_on_c, 0, 52, 21
2, 464215, Note_on_c, 0, 52, 0
2, 464215, Note_on_c, 0, 55, 0
2, 464220, Note_on_c, 0, 57, 21
2, 464275, Note_on_c, 0, 57, 0
2, 464280, Note_on_c, 0, 57, 21
2, 464280, Note_on_c, 0, 53, 21
2, 464335, Note_on_c, 0, 53, 0
2, 464335, Note_on_c, 0, 57, 0
2, 464400, Note_on_c, 0, 69, 21
2, 464400, Note_on_c, 0, 61, 21
2, 464400, Note_on_c, 0, 52, 21
2, 464455, Note_on_c, 0, 52, 0
2, 464455, Note_on_c, 0, 61, 0
2, 464455, Note_on_c, 0, 69, 0
2, 464520, Note_on_c, 0, 62, 21
2, 464520, Note_on_c, 0, 53, 21
2, 464575, Note_on_c, 0, 53, 0
2, 464575, Note_on_c, 0, 62, 0
2, 464580, Note_on_c, 0, 57, 21
2, 464635, Note_on_c, 0, 57, 0
2, 464640, Note_on_c, 0, 57, 21
2, 464640, Note_on_c, 0, 64, 21
2, 464640, Note_on_c, 0, 55, 21
2, 464695, Note_on_c, 0, 55, 0
2, 464695, Note_on_c, 0, 64, 0
2, 464695, Note_on_c, 0, 57, 0
2, 464760, Note_on_c, 0, 81, 21
2, 464760, Note_on_c, 0, 62, 21
2, 464760, Note_on_c, 0, 53, 21
2, 464815, Note_on_c, 0, 53, 0
2, 464815, Note_on_c, 0, 62, 0
2, 464815, Note_on_c, 0, 81, 0
2, 464880, Note_on_c, 0, 61, 21
2, 464880, Note_on_c, 0, 52, 21
2, 464935, Note_on_c, 0, 52, 0
2, 464935, Note_on_c, 0, 61, 0
2, 464940, Note_on_c, 0, 69, 21
2, 464995, Note_on_c, 0, 69, 0
2, 465000, Note_on_c, 0, 69, 21
2, 465000, Note_on_c, 0, 62, 21
2, 465000, Note_on_c, 0, 53, 21
2, 465055, Note_on_c, 0, 53, 0
2, 465055, Note_on_c, 0, 62, 0
2, 465055, Note_on_c, 0, 69, 0
2, 465120, Note_on_c, 0, 79, 21
2, 465120, Note_on_c, 0, 50, 21
2, 465120, Note_on_c, 0, 47, 21
2, 465175, Note_on_c, 0, 47, 0
2, 465175, Note_on_c, 0, 50, 0
2, 465175, Note_on_c, 0, 79, 0
2, 465240, Note_on_c, 0, 51, 21
2, 465240, Note_on_c, 0, 48, 21
2, 465295, Note_on_c, 0, 48, 0
2, 465295, Note_on_c, 0, 51, 0
2, 465300, Note_on_c, 0, 67, 21
2, 465355, Note_on_c, 0, 67, 0
2, 465360, Note_on_c, 0, 67, 21
2, 465360, Note_on_c, 0, 53, 21
2, 465360, Note_on_c, 0, 50, 21
2, 465415, Note_on_c, 0, 50, 0
2, 465415, Note_on_c, 0, 53, 0
2, 465415, Note_on_c, 0, 67, 0
2, 465480, Note_on_c, 0, 67, 21
2, 465480, Note_on_c, 0, 60, 21
2, 465480, Note_on_c, 0, 51, 21
2, 465535, Note_on_c, 0, 51, 0
2, 465535, Note_on_c, 0, 60, 0
2, 465535, Note_on_c, 0, 67, 0
2, 465600, Note_on_c, 0, 59, 21
2, 465600, Note_on_c, 0, 50, 21
2, 465655, Note_on_c, 0, 50, 0
2, 465655, Note_on_c, 0, 59, 0
2, 465660, Note_on_c, 0, 55, 21
2, 465715, Note_on_c, 0, 55, 0
2, 465720, Note_on_c, 0, 55, 21
2, 465720, Note_on_c, 0, 60, 21
2, 465720, Note_on_c, 0, 51, 21
2, 465775, Note_on_c, 0, 51, 0
2, 465775, Note_on_c, 0, 60, 0
2, 465775, Note_on_c, 0, 55, 0
2, 465840, Note_on_c, 0, 67, 21
2, 465840, Note_on_c, 0, 62, 21
2, 465840, Note_on_c, 0, 59, 21
2, 465895, Note_on_c, 0, 59, 0
2, 465895, Note_on_c, 0, 62, 0
2, 465895, Note_on_c, 0, 67, 0
2, 465960, Note_on_c, 0, 63, 21
2, 465960, Note_on_c, 0, 60, 21
2, 466015, Note_on_c, 0, 60, 0
2, 466015, Note_on_c, 0, 63, 0
2, 466020, Note_on_c, 0, 55, 21
2, 466075, Note_on_c, 0, 55, 0
2, 466080, Note_on_c, 0, 55, 21
2, 466080, Note_on_c, 0, 65, 21
2, 466080, Note_on_c, 0, 62, 21
2, 466135, Note_on_c, 0, 62, 0
2, 466135, Note_on_c, 0, 65, 0
2, 466135, Note_on_c, 0, 55, 0
2, 466200, Note_on_c, 0, 79, 21
2, 466200, Note_on_c, 0, 63, 21
2, 466200, Note_on_c, 0, 60, 21
2, 466255, Note_on_c, 0, 60, 0
2, 466255, Note_on_c, 0, 63, 0
2, 466255, Note_on_c, 0, 79, 0
2, 466320, Note_on_c, 0, 62, 21
2, 466320, Note_on_c, 0, 59, 21
2, 466375, Note_on_c, 0, 59, 0
2, 466375, Note_on_c, 0, 62, 0
2, 466380, Note_on_c, 0, 67, 21
2, 466435, Note_on_c, 0, 67, 0
2, 466440, Note_on_c, 0, 67, 21
2, 466440, Note_on_c, 0, 63, 21
2, 466440, Note_on_c, 0, 60, 21
2, 466495, Note_on_c, 0, 60, 0
2, 466495, Note_on_c, 0, 63, 0
2, 466495, Note_on_c, 0, 67, 0
2, 466560, Note_on_c, 0, 68, 21
2, 466560, Note_on_c, 0, 74, 21
2, 466560, Note_on_c, 0, 65, 21
2, 466560, Note_on_c, 0, 58, 21
2, 466615, Note_on_c, 0, 58, 0
2, 466615, Note_on_c, 0, 68, 0
2, 466615, Note_on_c, 0, 74, 0
2, 466615, Note_on_c, 0, 65, 0
2, 466680, Note_on_c, 0, 75, 21
2, 466680, Note_on_c, 0, 67, 21
2, 466735, Note_on_c, 0, 67, 0
2, 466735, Note_on_c, 0, 75, 0
2, 466740, Note_on_c, 0, 46, 21
2, 466795, Note_on_c, 0, 46, 0
2, 466800, Note_on_c, 0, 77, 21
2, 466800, Note_on_c, 0, 69, 21
2, 466800, Note_on_c, 0, 46, 21
2, 466855, Note_on_c, 0, 46, 0
2, 466855, Note_on_c, 0, 69, 0
2, 466855, Note_on_c, 0, 77, 0
2, 466920, Note_on_c, 0, 75, 21
2, 466920, Note_on_c, 0, 67, 21
2, 466920, Note_on_c, 0, 46, 21
2, 466975, Note_on_c, 0, 46, 0
2, 466975, Note_on_c, 0, 67, 0
2, 466975, Note_on_c, 0, 75, 0
2, 467040, Note_on_c, 0, 74, 21
2, 467040, Note_on_c, 0, 65, 21
2, 467095, Note_on_c, 0, 65, 0
2, 467095, Note_on_c, 0, 74, 0
2, 467100, Note_on_c, 0, 34, 21
2, 467155, Note_on_c, 0, 34, 0
2, 467160, Note_on_c, 0, 75, 21
2, 467160, Note_on_c, 0, 67, 21
2, 467160, Note_on_c, 0, 34, 21
2, 467215, Note_on_c, 0, 34, 0
2, 467215, Note_on_c, 0, 67, 0
2, 467215, Note_on_c, 0, 75, 0
2, 467280, Note_on_c, 0, 68, 21
2, 467280, Note_on_c, 0, 74, 21
2, 467280, Note_on_c, 0, 65, 21
2, 467280, Note_on_c, 0, 58, 21
2, 467335, Note_on_c, 0, 58, 0
2, 467335, Note_on_c, 0, 68, 0
2, 467335, Note_on_c, 0, 74, 0
2, 467335, Note_on_c, 0, 65, 0
2, 467400, Note_on_c, 0, 75, 21
2, 467400, Note_on_c, 0, 67, 21
2, 467455, Note_on_c, 0, 67, 0
2, 467455, Note_on_c, 0, 75, 0
2, 467460, Note_on_c, 0, 46, 21
2, 467515, Note_on_c, 0, 46, 0
2, 467520, Note_on_c, 0, 77, 21
2, 467520, Note_on_c, 0, 69, 21
2, 467520, Note_on_c, 0, 46, 21
2, 467575, Note_on_c, 0, 46, 0
2, 467575, Note_on_c, 0, 69, 0
2, 467575, Note_on_c, 0, 77, 0
2, 467640, Note_on_c, 0, 75, 21
2, 467640, Note_on_c, 0, 67, 21
2, 467640, Note_on_c, 0, 70, 21
2, 467695, Note_on_c, 0, 70, 0
2, 467695, Note_on_c, 0, 67, 0
2, 467695, Note_on_c, 0, 75, 0
2, 467760, Note_on_c, 0, 74, 21
2, 467760, Note_on_c, 0, 65, 21
2, 467815, Note_on_c, 0, 65, 0
2, 467815, Note_on_c, 0, 74, 0
2, 467820, Note_on_c, 0, 58, 21
2, 467875, Note_on_c, 0, 58, 0
2, 467880, Note_on_c, 0, 75, 21
2, 467880, Note_on_c, 0, 67, 21
2, 467880, Note_on_c, 0, 58, 21
2, 467935, Note_on_c, 0, 58, 0
2, 467935, Note_on_c, 0, 67, 0
2, 467935, Note_on_c, 0, 75, 0
2, 468000, Note_on_c, 0, 82, 21
2, 468000, Note_on_c, 0, 70, 21
2, 468000, Note_on_c, 0, 65, 21
2, 468000, Note_on_c, 0, 62, 21
2, 468055, Note_on_c, 0, 62, 0
2, 468055, Note_on_c, 0, 82, 0
2, 468055, Note_on_c, 0, 70, 0
2, 468055, Note_on_c, 0, 65, 0
2, 468120, Note_on_c, 0, 67, 21
2, 468120, Note_on_c, 0, 63, 21
2, 468175, Note_on_c, 0, 63, 0
2, 468175, Note_on_c, 0, 67, 0
2, 468180, Note_on_c, 0, 70, 21
2, 468235, Note_on_c, 0, 70, 0
2, 468240, Note_on_c, 0, 70, 21
2, 468240, Note_on_c, 0, 68, 21
2, 468240, Note_on_c, 0, 65, 21
2, 468295, Note_on_c, 0, 65, 0
2, 468295, Note_on_c, 0, 68, 0
2, 468295, Note_on_c, 0, 70, 0
2, 468360, Note_on_c, 0, 70, 21
2, 468360, Note_on_c, 0, 75, 21
2, 468360, Note_on_c, 0, 67, 21
2, 468360, Note_on_c, 0, 58, 21
2, 468415, Note_on_c, 0, 58, 0
2, 468415, Note_on_c, 0, 70, 0
2, 468415, Note_on_c, 0, 75, 0
2, 468415, Note_on_c, 0, 67, 0
2, 468480, Note_on_c, 0, 74, 21
2, 468480, Note_on_c, 0, 77, 21
2, 468480, Note_on_c, 0, 68, 21
2, 468535, Note_on_c, 0, 68, 0
2, 468535, Note_on_c, 0, 77, 0
2, 468535, Note_on_c, 0, 74, 0
2, 468540, Note_on_c, 0, 46, 21
2, 468595, Note_on_c, 0, 46, 0
2, 468600, Note_on_c, 0, 75, 21
2, 468600, Note_on_c, 0, 79, 21
2, 468600, Note_on_c, 0, 67, 21
2, 468600, Note_on_c, 0, 46, 21
2, 468655, Note_on_c, 0, 46, 0
2, 468655, Note_on_c, 0, 75, 0
2, 468655, Note_on_c, 0, 79, 0
2, 468655, Note_on_c, 0, 67, 0
2, 468720, Note_on_c, 0, 74, 21
2, 468720, Note_on_c, 0, 80, 21
2, 468720, Note_on_c, 0, 68, 21
2, 468720, Note_on_c, 0, 53, 21
2, 468720, Note_on_c, 0, 46, 21
2, 468775, Note_on_c, 0, 46, 0
2, 468775, Note_on_c, 0, 53, 0
2, 468900, Note_on_c, 0, 41, 21
2, 468900, Note_on_c, 0, 34, 21
2, 468955, Note_on_c, 0, 34, 0
2, 468955, Note_on_c, 0, 41, 0
2, 468960, Note_on_c, 0, 41, 21
2, 468960, Note_on_c, 0, 34, 21
2, 469015, Note_on_c, 0, 34, 0
2, 469015, Note_on_c, 0, 41, 0
2, 469080, Note_on_c, 0, 58, 21
2, 469135, Note_on_c, 0, 58, 0
2, 469260, Note_on_c, 0, 46, 21
2, 469315, Note_on_c, 0, 46, 0
2, 469320, Note_on_c, 0, 46, 21
2, 469375, Note_on_c, 0, 46, 0
2, 469440, Note_on_c, 0, 53, 21
2, 469440, Note_on_c, 0, 56, 21
2, 469440, Note_on_c, 0, 46, 21
2, 469440, Note_on_c, 0, 62, 21
2, 469495, Note_on_c, 0, 62, 0
2, 469620, Note_on_c, 0, 50, 21
2, 469675, Note_on_c, 0, 50, 0
2, 469680, Note_on_c, 0, 50, 21
2, 469735, Note_on_c, 0, 50, 0
2, 469800, Note_on_c, 0, 65, 21
2, 469855, Note_on_c, 0, 65, 0
2, 469980, Note_on_c, 0, 53, 21
2, 470035, Note_on_c, 0, 53, 0
2, 470040, Note_on_c, 0, 68, 0
2, 470040, Note_on_c, 0, 74, 0
2, 470040, Note_on_c, 0, 80, 0
2, 470040, Note_on_c, 0, 53, 21
2, 470095, Note_on_c, 0, 53, 0
2, 470160, Note_on_c, 0, 46, 0
2, 470160, Note_on_c, 0, 56, 0
2, 470160, Note_on_c, 0, 53, 0
2, 470160, Note_on_c, 0, 79, 37
2, 470160, Note_on_c, 0, 70, 37
2, 470160, Note_on_c, 0, 63, 37
2, 470160, Note_on_c, 0, 58, 37
2, 470215, Note_on_c, 0, 58, 0
2, 470215, Note_on_c, 0, 79, 0
2, 470215, Note_on_c, 0, 70, 0
2, 470215, Note_on_c, 0, 63, 0
2, 470280, Note_on_c, 0, 77, 37
2, 470280, Note_on_c, 0, 68, 37
2, 470335, Note_on_c, 0, 68, 0
2, 470335, Note_on_c, 0, 77, 0
2, 470340, Note_on_c, 0, 46, 37
2, 470395, Note_on_c, 0, 46, 0
2, 470400, Note_on_c, 0, 75, 37
2, 470400, Note_on_c, 0, 67, 37
2, 470400, Note_on_c, 0, 46, 37
2, 470455, Note_on_c, 0, 46, 0
2, 470455, Note_on_c, 0, 67, 0
2, 470455, Note_on_c, 0, 75, 0
2, 470520, Note_on_c, 0, 79, 37
2, 470520, Note_on_c, 0, 82, 37
2, 470520, Note_on_c, 0, 70, 37
2, 470520, Note_on_c, 0, 63, 37
2, 470520, Note_on_c, 0, 58, 37
2, 470575, Note_on_c, 0, 58, 0
2, 470575, Note_on_c, 0, 70, 0
2, 470575, Note_on_c, 0, 79, 0
2, 470575, Note_on_c, 0, 82, 0
2, 470575, Note_on_c, 0, 63, 0
2, 470640, Note_on_c, 0, 80, 37
2, 470640, Note_on_c, 0, 77, 37
2, 470695, Note_on_c, 0, 77, 0
2, 470695, Note_on_c, 0, 80, 0
2, 470700, Note_on_c, 0, 46, 37
2, 470755, Note_on_c, 0, 46, 0
2, 470760, Note_on_c, 0, 79, 37
2, 470760, Note_on_c, 0, 75, 37
2, 470760, Note_on_c, 0, 46, 37
2, 470815, Note_on_c, 0, 46, 0
2, 470815, Note_on_c, 0, 75, 0
2, 470815, Note_on_c, 0, 79, 0
2, 470880, Note_on_c, 0, 79, 37
2, 470880, Note_on_c, 0, 70, 37
2, 470880, Note_on_c, 0, 63, 37
2, 470880, Note_on_c, 0, 58, 37
2, 470935, Note_on_c, 0, 58, 0
2, 470935, Note_on_c, 0, 79, 0
2, 470935, Note_on_c, 0, 70, 0
2, 470935, Note_on_c, 0, 63, 0
2, 471000, Note_on_c, 0, 77, 37
2, 471000, Note_on_c, 0, 68, 37
2, 471055, Note_on_c, 0, 68, 0
2, 471055, Note_on_c, 0, 77, 0
2, 471060, Note_on_c, 0, 46, 37
2, 471115, Note_on_c, 0, 46, 0
2, 471120, Note_on_c, 0, 75, 37
2, 471120, Note_on_c, 0, 67, 37
2, 471120, Note_on_c, 0, 46, 37
2, 471175, Note_on_c, 0, 46, 0
2, 471175, Note_on_c, 0, 67, 0
2, 471175, Note_on_c, 0, 75, 0
2, 471240, Note_on_c, 0, 79, 37
2, 471240, Note_on_c, 0, 82, 37
2, 471240, Note_on_c, 0, 70, 37
2, 471240, Note_on_c, 0, 63, 37
2, 471240, Note_on_c, 0, 58, 37
2, 471295, Note_on_c, 0, 58, 0
2, 471295, Note_on_c, 0, 70, 0
2, 471295, Note_on_c, 0, 79, 0
2, 471295, Note_on_c, 0, 82, 0
2, 471295, Note_on_c, 0, 63, 0
2, 471360, Note_on_c, 0, 80, 37
2, 471360, Note_on_c, 0, 77, 37
2, 471415, Note_on_c, 0, 77, 0
2, 471415, Note_on_c, 0, 80, 0
2, 471420, Note_on_c, 0, 46, 37
2, 471475, Note_on_c, 0, 46, 0
2, 471480, Note_on_c, 0, 79, 37
2, 471480, Note_on_c, 0, 75, 37
2, 471480, Note_on_c, 0, 46, 37
2, 471535, Note_on_c, 0, 46, 0
2, 471535, Note_on_c, 0, 75, 0
2, 471535, Note_on_c, 0, 79, 0
2, 471600, Note_on_c, 0, 74, 46
2, 471600, Note_on_c, 0, 80, 46
2, 471600, Note_on_c, 0, 68, 46
2, 471600, Note_on_c, 0, 53, 42
2, 471600, Note_on_c, 0, 46, 42
2, 471655, Note_on_c, 0, 46, 0
2, 471655, Note_on_c, 0, 53, 0
2, 471780, Note_on_c, 0, 41, 43
2, 471780, Note_on_c, 0, 34, 43
2, 471835, Note_on_c, 0, 34, 0
2, 471835, Note_on_c, 0, 41, 0
2, 471840, Note_on_c, 0, 41, 46
2, 471840, Note_on_c, 0, 34, 46
2, 471895, Note_on_c, 0, 34, 0
2, 471895, Note_on_c, 0, 41, 0
2, 471960, Note_on_c, 0, 58, 51
2, 472015, Note_on_c, 0, 58, 0
2, 472140, Note_on_c, 0, 46, 53
2, 472195, Note_on_c, 0, 46, 0
2, 472200, Note_on_c, 0, 46, 56
2, 472255, Note_on_c, 0, 46, 0
2, 472320, Note_on_c, 0, 53, 65
2, 472320, Note_on_c, 0, 56, 65
2, 472320, Note_on_c, 0, 46, 65
2, 472320, Note_on_c, 0, 62, 61
2, 472375, Note_on_c, 0, 62, 0
2, 472500, Note_on_c, 0, 50, 62
2, 472555, Note_on_c, 0, 50, 0
2, 472560, Note_on_c, 0, 50, 65
2, 472615, Note_on_c, 0, 50, 0
2, 472680, Note_on_c, 0, 65, 70
2, 472735, Note_on_c, 0, 65, 0
2, 472860, Note_on_c, 0, 53, 72
2, 472915, Note_on_c, 0, 53, 0
2, 472920, Note_on_c, 0, 56, 0
2, 472920, Note_on_c, 0, 80, 0
2, 472920, Note_on_c, 0, 68, 0
2, 472920, Note_on_c, 0, 74, 0
2, 472920, Note_on_c, 0, 46, 0
2, 472920, Note_on_c, 0, 53, 75
2, 472975, Note_on_c, 0, 53, 0
2, 473040, Note_on_c, 0, 74, 84
2, 473040, Note_on_c, 0, 81, 84
2, 473040, Note_on_c, 0, 69, 84
2, 473040, Note_on_c, 0, 53, 79
2, 473040, Note_on_c, 0, 57, 79
2, 473040, Note_on_c, 0, 45, 79
2, 473095, Note_on_c, 0, 45, 0
2, 473095, Note_on_c, 0, 53, 0
2, 473095, Note_on_c, 0, 57, 0
2, 473220, Note_on_c, 0, 41, 81
2, 473220, Note_on_c, 0, 33, 81
2, 473275, Note_on_c, 0, 33, 0
2, 473275, Note_on_c, 0, 41, 0
2, 473280, Note_on_c, 0, 41, 84
2, 473280, Note_on_c, 0, 33, 84
2, 473335, Note_on_c, 0, 33, 0
2, 473335, Note_on_c, 0, 41, 0
2, 473400, Note_on_c, 0, 57, 89
2, 473455, Note_on_c, 0, 57, 0
2, 473580, Note_on_c, 0, 45, 90
2, 473635, Note_on_c, 0, 45, 0
2, 473640, Note_on_c, 0, 45, 93
2, 473695, Note_on_c, 0, 45, 0
2, 473760, Note_on_c, 0, 53, 103
2, 473760, Note_on_c, 0, 57, 103
2, 473760, Note_on_c, 0, 45, 103
2, 473760, Note_on_c, 0, 62, 98
2, 473815, Note_on_c, 0, 62, 0
2, 473940, Note_on_c, 0, 50, 100
2, 473995, Note_on_c, 0, 50, 0
2, 474000, Note_on_c, 0, 50, 103
2, 474055, Note_on_c, 0, 50, 0
2, 474120, Note_on_c, 0, 65, 108
2, 474175, Note_on_c, 0, 65, 0
2, 474300, Note_on_c, 0, 53, 109
2, 474355, Note_on_c, 0, 53, 0
2, 474360, Note_on_c, 0, 69, 0
2, 474360, Note_on_c, 0, 57, 0
2, 474360, Note_on_c, 0, 81, 0
2, 474360, Note_on_c, 0, 74, 0
2, 474360, Note_on_c, 0, 45, 0
2, 474360, Note_on_c, 0, 53, 112
2, 474415, Note_on_c, 0, 53, 0
2, 474480, Note_on_c, 0, 74, 117
2, 474480, Note_on_c, 0, 81, 117
2, 474480, Note_on_c, 0, 69, 117
2, 474480, Note_on_c, 0, 53, 117
2, 474480, Note_on_c, 0, 57, 117
2, 474480, Note_on_c, 0, 45, 117
2, 474535, Note_on_c, 0, 45, 0
2, 474535, Note_on_c, 0, 57, 0
2, 474535, Note_on_c, 0, 53, 0
2, 474535, Note_on_c, 0, 81, 0
2, 474535, Note_on_c, 0, 74, 0
2, 474535, Note_on_c, 0, 69, 0
2, 474660, Note_on_c, 0, 62, 117
2, 474660, Note_on_c, 0, 45, 117
2, 474660, Note_on_c, 0, 50, 117
2, 474660, Note_on_c, 0, 53, 117
2, 474660, Note_on_c, 0, 57, 117
2, 474660, Note_on_c, 0, 41, 117
2, 474715, Note_on_c, 0, 41, 0
2, 474715, Note_on_c, 0, 57, 0
2, 474715, Note_on_c, 0, 53, 0
2, 474715, Note_on_c, 0, 45, 0
2, 474715, Note_on_c, 0, 62, 0
2, 474715, Note_on_c, 0, 50, 0
2, 474720, Note_on_c, 0, 62, 117
2, 474720, Note_on_c, 0, 45, 117
2, 474720, Note_on_c, 0, 50, 117
2, 474720, Note_on_c, 0, 53, 117
2, 474720, Note_on_c, 0, 57, 117
2, 474720, Note_on_c, 0, 41, 117
2, 474775, Note_on_c, 0, 41, 0
2, 474775, Note_on_c, 0, 57, 0
2, 474775, Note_on_c, 0, 53, 0
2, 474775, Note_on_c, 0, 45, 0
2, 474775, Note_on_c, 0, 62, 0
2, 474775, Note_on_c, 0, 50, 0
2, 474840, Note_on_c, 0, 69, 117
2, 474840, Note_on_c, 0, 74, 117
2, 474840, Note_on_c, 0, 65, 117
2, 474840, Note_on_c, 0, 57, 117
2, 474840, Note_on_c, 0, 62, 117
2, 474840, Note_on_c, 0, 53, 117
2, 474895, Note_on_c, 0, 62, 0
2, 474895, Note_on_c, 0, 74, 0
2, 474895, Note_on_c, 0, 65, 0
2, 474895, Note_on_c, 0, 53, 0
2, 474895, Note_on_c, 0, 69, 0
2, 474895, Note_on_c, 0, 57, 0
2, 475020, Note_on_c, 0, 62, 117
2, 475020, Note_on_c, 0, 45, 117
2, 475020, Note_on_c, 0, 50, 117
2, 475020, Note_on_c, 0, 53, 117
2, 475020, Note_on_c, 0, 57, 117
2, 475020, Note_on_c, 0, 41, 117
2, 475075, Note_on_c, 0, 41, 0
2, 475075, Note_on_c, 0, 57, 0
2, 475075, Note_on_c, 0, 53, 0
2, 475075, Note_on_c, 0, 45, 0
2, 475075, Note_on_c, 0, 62, 0
2, 475075, Note_on_c, 0, 50, 0
2, 475080, Note_on_c, 0, 62, 117
2, 475080, Note_on_c, 0, 45, 117
2, 475080, Note_on_c, 0, 50, 117
2, 475080, Note_on_c, 0, 53, 117
2, 475080, Note_on_c, 0, 57, 117
2, 475080, Note_on_c, 0, 41, 117
2, 475135, Note_on_c, 0, 41, 0
2, 475135, Note_on_c, 0, 57, 0
2, 475135, Note_on_c, 0, 53, 0
2, 475135, Note_on_c, 0, 45, 0
2, 475135, Note_on_c, 0, 62, 0
2, 475135, Note_on_c, 0, 50, 0
2, 475200, Note_on_c, 0, 74, 117
2, 475200, Note_on_c, 0, 81, 117
2, 475200, Note_on_c, 0, 69, 117
2, 475200, Note_on_c, 0, 53, 117
2, 475200, Note_on_c, 0, 57, 117
2, 475200, Note_on_c, 0, 45, 117
2, 475255, Note_on_c, 0, 45, 0
2, 475255, Note_on_c, 0, 57, 0
2, 475255, Note_on_c, 0, 53, 0
2, 475255, Note_on_c, 0, 81, 0
2, 475255, Note_on_c, 0, 74, 0
2, 475255, Note_on_c, 0, 69, 0
2, 475380, Note_on_c, 0, 62, 117
2, 475380, Note_on_c, 0, 45, 117
2, 475380, Note_on_c, 0, 50, 117
2, 475380, Note_on_c, 0, 53, 117
2, 475380, Note_on_c, 0, 57, 117
2, 475380, Note_on_c, 0, 41, 117
2, 475435, Note_on_c, 0, 41, 0
2, 475435, Note_on_c, 0, 57, 0
2, 475435, Note_on_c, 0, 53, 0
2, 475435, Note_on_c, 0, 45, 0
2, 475435, Note_on_c, 0, 62, 0
2, 475435, Note_on_c, 0, 50, 0
2, 475440, Note_on_c, 0, 62, 117
2, 475440, Note_on_c, 0, 45, 117
2, 475440, Note_on_c, 0, 50, 117
2, 475440, Note_on_c, 0, 53, 117
2, 475440, Note_on_c, 0, 57, 117
2, 475440, Note_on_c, 0, 41, 117
2, 475495, Note_on_c, 0, 41, 0
2, 475495, Note_on_c, 0, 57, 0
2, 475495, Note_on_c, 0, 53, 0
2, 475495, Note_on_c, 0, 45, 0
2, 475495, Note_on_c, 0, 62, 0
2, 475495, Note_on_c, 0, 50, 0
2, 475560, Note_on_c, 0, 69, 117
2, 475560, Note_on_c, 0, 74, 117
2, 475560, Note_on_c, 0, 65, 117
2, 475560, Note_on_c, 0, 57, 117
2, 475560, Note_on_c, 0, 62, 117
2, 475560, Note_on_c, 0, 53, 117
2, 475615, Note_on_c, 0, 62, 0
2, 475615, Note_on_c, 0, 74, 0
2, 475615, Note_on_c, 0, 65, 0
2, 475615, Note_on_c, 0, 53, 0
2, 475615, Note_on_c, 0, 69, 0
2, 475615, Note_on_c, 0, 57, 0
2, 475740, Note_on_c, 0, 62, 117
2, 475740, Note_on_c, 0, 45, 117
2, 475740, Note_on_c, 0, 50, 117
2, 475740, Note_on_c, 0, 53, 117
2, 475740, Note_on_c, 0, 57, 117
2, 475740, Note_on_c, 0, 41, 117
2, 475795, Note_on_c, 0, 41, 0
2, 475795, Note_on_c, 0, 57, 0
2, 475795, Note_on_c, 0, 53, 0
2, 475795, Note_on_c, 0, 45, 0
2, 475795, Note_on_c, 0, 62, 0
2, 475795, Note_on_c, 0, 50, 0
2, 475800, Note_on_c, 0, 62, 117
2, 475800, Note_on_c, 0, 45, 117
2, 475800, Note_on_c, 0, 50, 117
2, 475800, Note_on_c, 0, 53, 117
2, 475800, Note_on_c, 0, 57, 117
2, 475800, Note_on_c, 0, 41, 117
2, 475855, Note_on_c, 0, 41, 0
2, 475855, Note_on_c, 0, 57, 0
2, 475855, Note_on_c, 0, 53, 0
2, 475855, Note_on_c, 0, 45, 0
2, 475855, Note_on_c, 0, 62, 0
2, 475855, Note_on_c, 0, 50, 0
2, 475920, Note_on_c, 0, 86, 117
2, 475920, Note_on_c, 0, 89, 117
2, 475920, Note_on_c, 0, 93, 117
2, 475920, Note_on_c, 0, 81, 117
2, 475920, Note_on_c, 0, 45, 117
2, 475920, Note_on_c, 0, 50, 117
2, 475920, Note_on_c, 0, 38, 117
2, 475975, Note_on_c, 0, 38, 0
2, 475975, Note_on_c, 0, 89, 0
2, 475975, Note_on_c, 0, 50, 0
2, 475975, Note_on_c, 0, 93, 0
2, 475975, Note_on_c, 0, 45, 0
2, 475975, Note_on_c, 0, 86, 0
2, 475975, Note_on_c, 0, 81, 0
2, 476100, Note_on_c, 0, 74, 117
2, 476100, Note_on_c, 0, 81, 117
2, 476100, Note_on_c, 0, 69, 117
2, 476100, Note_on_c, 0, 57, 117
2, 476100, Note_on_c, 0, 62, 117
2, 476100, Note_on_c, 0, 53, 117
2, 476155, Note_on_c, 0, 62, 0
2, 476155, Note_on_c, 0, 81, 0
2, 476155, Note_on_c, 0, 69, 0
2, 476155, Note_on_c, 0, 53, 0
2, 476155, Note_on_c, 0, 74, 0
2, 476155, Note_on_c, 0, 57, 0
2, 476160, Note_on_c, 0, 74, 117
2, 476160, Note_on_c, 0, 81, 117
2, 476160, Note_on_c, 0, 69, 117
2, 476160, Note_on_c, 0, 57, 117
2, 476160, Note_on_c, 0, 62, 117
2, 476160, Note_on_c, 0, 53, 117
2, 476215, Note_on_c, 0, 62, 0
2, 476215, Note_on_c, 0, 81, 0
2, 476215, Note_on_c, 0, 69, 0
2, 476215, Note_on_c, 0, 53, 0
2, 476215, Note_on_c, 0, 74, 0
2, 476215, Note_on_c, 0, 57, 0
2, 476280, Note_on_c, 0, 86, 117
2, 476280, Note_on_c, 0, 89, 117
2, 476280, Note_on_c, 0, 93, 117
2, 476280, Note_on_c, 0, 81, 117
2, 476280, Note_on_c, 0, 45, 117
2, 476280, Note_on_c, 0, 50, 117
2, 476280, Note_on_c, 0, 38, 117
2, 476335, Note_on_c, 0, 38, 0
2, 476335, Note_on_c, 0, 89, 0
2, 476335, Note_on_c, 0, 50, 0
2, 476335, Note_on_c, 0, 93, 0
2, 476335, Note_on_c, 0, 45, 0
2, 476335, Note_on_c, 0, 86, 0
2, 476335, Note_on_c, 0, 81, 0
2, 476460, Note_on_c, 0, 74, 117
2, 476460, Note_on_c, 0, 81, 117
2, 476460, Note_on_c, 0, 69, 117
2, 476460, Note_on_c, 0, 57, 117
2, 476460, Note_on_c, 0, 62, 117
2, 476460, Note_on_c, 0, 53, 117
2, 476515, Note_on_c, 0, 62, 0
2, 476515, Note_on_c, 0, 81, 0
2, 476515, Note_on_c, 0, 69, 0
2, 476515, Note_on_c, 0, 53, 0
2, 476515, Note_on_c, 0, 74, 0
2, 476515, Note_on_c, 0, 57, 0
2, 476520, Note_on_c, 0, 74, 117
2, 476520, Note_on_c, 0, 81, 117
2, 476520, Note_on_c, 0, 69, 117
2, 476520, Note_on_c, 0, 57, 117
2, 476520, Note_on_c, 0, 62, 117
2, 476520, Note_on_c, 0, 53, 117
2, 476575, Note_on_c, 0, 62, 0
2, 476575, Note_on_c, 0, 81, 0
2, 476575, Note_on_c, 0, 69, 0
2, 476575, Note_on_c, 0, 53, 0
2, 476575, Note_on_c, 0, 74, 0
2, 476575, Note_on_c, 0, 57, 0
2, 476640, Note_on_c, 0, 86, 117
2, 476640, Note_on_c, 0, 89, 117
2, 476640, Note_on_c, 0, 93, 117
2, 476640, Note_on_c, 0, 81, 117
2, 476640, Note_on_c, 0, 45, 117
2, 476640, Note_on_c, 0, 50, 117
2, 476640, Note_on_c, 0, 38, 117
2, 476695, Note_on_c, 0, 38, 0
2, 476695, Note_on_c, 0, 89, 0
2, 476695, Note_on_c, 0, 50, 0
2, 476695, Note_on_c, 0, 93, 0
2, 476695, Note_on_c, 0, 45, 0
2, 476695, Note_on_c, 0, 86, 0
2, 476695, Note_on_c, 0, 81, 0
2, 476820, Note_on_c, 0, 74, 117
2, 476820, Note_on_c, 0, 81, 117
2, 476820, Note_on_c, 0, 69, 117
2, 476820, Note_on_c, 0, 57, 117
2, 476820, Note_on_c, 0, 62, 117
2, 476820, Note_on_c, 0, 53, 117
2, 476875, Note_on_c, 0, 62, 0
2, 476875, Note_on_c, 0, 81, 0
2, 476875, Note_on_c, 0, 69, 0
2, 476875, Note_on_c, 0, 53, 0
2, 476875, Note_on_c, 0, 74, 0
2, 476875, Note_on_c, 0, 57, 0
2, 476880, Note_on_c, 0, 74, 117
2, 476880, Note_on_c, 0, 81, 117
2, 476880, Note_on_c, 0, 69, 117
2, 476880, Note_on_c, 0, 57, 117
2, 476880, Note_on_c, 0, 62, 117
2, 476880, Note_on_c, 0, 53, 117
2, 476935, Note_on_c, 0, 62, 0
2, 476935, Note_on_c, 0, 81, 0
2, 476935, Note_on_c, 0, 69, 0
2, 476935, Note_on_c, 0, 53, 0
2, 476935, Note_on_c, 0, 74, 0
2, 476935, Note_on_c, 0, 57, 0
2, 477000, Note_on_c, 0, 86, 117
2, 477000, Note_on_c, 0, 89, 117
2, 477000, Note_on_c, 0, 93, 117
2, 477000, Note_on_c, 0, 81, 117
2, 477000, Note_on_c, 0, 45, 117
2, 477000, Note_on_c, 0, 50, 117
2, 477000, Note_on_c, 0, 38, 117
2, 477055, Note_on_c, 0, 38, 0
2, 477055, Note_on_c, 0, 89, 0
2, 477055, Note_on_c, 0, 50, 0
2, 477055, Note_on_c, 0, 93, 0
2, 477055, Note_on_c, 0, 45, 0
2, 477055, Note_on_c, 0, 86, 0
2, 477055, Note_on_c, 0, 81, 0
2, 477180, Note_on_c, 0, 74, 117
2, 477180, Note_on_c, 0, 81, 117
2, 477180, Note_on_c, 0, 69, 117
2, 477180, Note_on_c, 0, 57, 117
2, 477180, Note_on_c, 0, 62, 117
2, 477180, Note_on_c, 0, 53, 117
2, 477235, Note_on_c, 0, 62, 0
2, 477235, Note_on_c, 0, 81, 0
2, 477235, Note_on_c, 0, 69, 0
2, 477235, Note_on_c, 0, 53, 0
2, 477235, Note_on_c, 0, 74, 0
2, 477235, Note_on_c, 0, 57, 0
2, 477240, Note_on_c, 0, 74, 117
2, 477240, Note_on_c, 0, 81, 117
2, 477240, Note_on_c, 0, 69, 117
2, 477240, Note_on_c, 0, 57, 117
2, 477240, Note_on_c, 0, 62, 117
2, 477240, Note_on_c, 0, 53, 117
2, 477295, Note_on_c, 0, 62, 0
2, 477295, Note_on_c, 0, 81, 0
2, 477295, Note_on_c, 0, 69, 0
2, 477295, Note_on_c, 0, 53, 0
2, 477295, Note_on_c, 0, 74, 0
2, 477295, Note_on_c, 0, 57, 0
2, 477360, Note_on_c, 0, 86, 117
2, 477360, Note_on_c, 0, 89, 117
2, 477360, Note_on_c, 0, 93, 117
2, 477360, Note_on_c, 0, 81, 117
2, 477360, Note_on_c, 0, 41, 117
2, 477360, Note_on_c, 0, 45, 117
2, 477360, Note_on_c, 0, 38, 117
2, 477415, Note_on_c, 0, 38, 0
2, 477415, Note_on_c, 0, 89, 0
2, 477415, Note_on_c, 0, 45, 0
2, 477415, Note_on_c, 0, 93, 0
2, 477415, Note_on_c, 0, 41, 0
2, 477415, Note_on_c, 0, 86, 0
2, 477415, Note_on_c, 0, 81, 0
2, 477420, Note_on_c, 0, 50, 117
2, 477475, Note_on_c, 0, 50, 0
2, 477480, Note_on_c, 0, 41, 117
2, 477480, Note_on_c, 0, 45, 117
2, 477480, Note_on_c, 0, 38, 117
2, 477535, Note_on_c, 0, 38, 0
2, 477535, Note_on_c, 0, 41, 0
2, 477535, Note_on_c, 0, 45, 0
2, 477540, Note_on_c, 0, 81, 117
2, 477540, Note_on_c, 0, 69, 117
2, 477540, Note_on_c, 0, 50, 117
2, 477595, Note_on_c, 0, 50, 0
2, 477595, Note_on_c, 0, 81, 0
2, 477595, Note_on_c, 0, 69, 0
2, 477600, Note_on_c, 0, 81, 117
2, 477600, Note_on_c, 0, 69, 117
2, 477600, Note_on_c, 0, 41, 117
2, 477600, Note_on_c, 0, 45, 117
2, 477600, Note_on_c, 0, 38, 117
2, 477655, Note_on_c, 0, 38, 0
2, 477655, Note_on_c, 0, 41, 0
2, 477655, Note_on_c, 0, 69, 0
2, 477655, Note_on_c, 0, 81, 0
2, 477655, Note_on_c, 0, 45, 0
2, 477660, Note_on_c, 0, 50, 117
2, 477715, Note_on_c, 0, 50, 0
2, 477720, Note_on_c, 0, 86, 117
2, 477720, Note_on_c, 0, 74, 117
2, 477720, Note_on_c, 0, 41, 117
2, 477720, Note_on_c, 0, 45, 117
2, 477720, Note_on_c, 0, 50, 117
2, 477720, Note_on_c, 0, 38, 117
2, 477775, Note_on_c, 0, 38, 0
2, 477775, Note_on_c, 0, 50, 0
2, 477775, Note_on_c, 0, 41, 0
2, 477775, Note_on_c, 0, 74, 0
2, 477775, Note_on_c, 0, 86, 0
2, 477775, Note_on_c, 0, 45, 0
2, 477840, Note_on_c, 0, 88, 117
2, 477840, Note_on_c, 0, 76, 117
2, 477895, Note_on_c, 0, 76, 0
2, 477895, Note_on_c, 0, 88, 0
2, 477900, Note_on_c, 0, 57, 117
2, 477900, Note_on_c, 0, 62, 117
2, 477900, Note_on_c, 0, 53, 117
2, 477955, Note_on_c, 0, 62, 0
2, 477955, Note_on_c, 0, 57, 0
2, 477955, Note_on_c, 0, 53, 0
2, 477960, Note_on_c, 0, 89, 117
2, 477960, Note_on_c, 0, 77, 117
2, 477960, Note_on_c, 0, 57, 117
2, 477960, Note_on_c, 0, 62, 117
2, 477960, Note_on_c, 0, 53, 117
2, 478015, Note_on_c, 0, 62, 0
2, 478015, Note_on_c, 0, 77, 0
2, 478015, Note_on_c, 0, 53, 0
2, 478015, Note_on_c, 0, 89, 0
2, 478015, Note_on_c, 0, 57, 0
2, 478080, Note_on_c, 0, 88, 117
2, 478080, Note_on_c, 0, 76, 117
2, 478080, Note_on_c, 0, 45, 117
2, 478080, Note_on_c, 0, 50, 117
2, 478080, Note_on_c, 0, 38, 117
2, 478135, Note_on_c, 0, 38, 0
2, 478135, Note_on_c, 0, 45, 0
2, 478135, Note_on_c, 0, 76, 0
2, 478135, Note_on_c, 0, 88, 0
2, 478135, Note_on_c, 0, 50, 0
2, 478200, Note_on_c, 0, 89, 117
2, 478200, Note_on_c, 0, 77, 117
2, 478255, Note_on_c, 0, 77, 0
2, 478255, Note_on_c, 0, 89, 0
2, 478260, Note_on_c, 0, 57, 117
2, 478260, Note_on_c, 0, 62, 117
2, 478260, Note_on_c, 0, 53, 117
2, 478315, Note_on_c, 0, 62, 0
2, 478315, Note_on_c, 0, 57, 0
2, 478315, Note_on_c, 0, 53, 0
2, 478320, Note_on_c, 0, 91, 117
2, 478320, Note_on_c, 0, 79, 117
2, 478320, Note_on_c, 0, 57, 117
2, 478320, Note_on_c, 0, 62, 117
2, 478320, Note_on_c, 0, 53, 117
2, 478375, Note_on_c, 0, 62, 0
2, 478375, Note_on_c, 0, 79, 0
2, 478375, Note_on_c, 0, 53, 0
2, 478375, Note_on_c, 0, 91, 0
2, 478375, Note_on_c, 0, 57, 0
2, 478440, Note_on_c, 0, 89, 117
2, 478440, Note_on_c, 0, 77, 117
2, 478440, Note_on_c, 0, 45, 117
2, 478440, Note_on_c, 0, 50, 117
2, 478440, Note_on_c, 0, 38, 117
2, 478495, Note_on_c, 0, 38, 0
2, 478495, Note_on_c, 0, 45, 0
2, 478495, Note_on_c, 0, 77, 0
2, 478495, Note_on_c, 0, 89, 0
2, 478495, Note_on_c, 0, 50, 0
2, 478560, Note_on_c, 0, 88, 117
2, 478560, Note_on_c, 0, 76, 117
2, 478615, Note_on_c, 0, 76, 0
2, 478615, Note_on_c, 0, 88, 0
2, 478620, Note_on_c, 0, 57, 117
2, 478620, Note_on_c, 0, 62, 117
2, 478620, Note_on_c, 0, 53, 117
2, 478675, Note_on_c, 0, 62, 0
2, 478675, Note_on_c, 0, 57, 0
2, 478675, Note_on_c, 0, 53, 0
2, 478680, Note_on_c, 0, 86, 117
2, 478680, Note_on_c, 0, 74, 117
2, 478680, Note_on_c, 0, 57, 117
2, 478680, Note_on_c, 0, 62, 117
2, 478680, Note_on_c, 0, 53, 117
2, 478735, Note_on_c, 0, 62, 0
2, 478735, Note_on_c, 0, 74, 0
2, 478735, Note_on_c, 0, 53, 0
2, 478735, Note_on_c, 0, 86, 0
2, 478735, Note_on_c, 0, 57, 0
2, 478800, Note_on_c, 0, 94, 117
2, 478800, Note_on_c, 0, 82, 117
2, 478800, Note_on_c, 0, 45, 117
2, 478800, Note_on_c, 0, 50, 117
2, 478800, Note_on_c, 0, 38, 117
2, 478855, Note_on_c, 0, 38, 0
2, 478855, Note_on_c, 0, 45, 0
2, 478855, Note_on_c, 0, 82, 0
2, 478855, Note_on_c, 0, 94, 0
2, 478855, Note_on_c, 0, 50, 0
2, 478920, Note_on_c, 0, 93, 95
2, 478920, Note_on_c, 0, 81, 95
2, 478975, Note_on_c, 0, 81, 0
2, 478975, Note_on_c, 0, 93, 0
2, 478980, Note_on_c, 0, 57, 95
2, 478980, Note_on_c, 0, 62, 95
2, 478980, Note_on_c, 0, 53, 95
2, 479035, Note_on_c, 0, 62, 0
2, 479035, Note_on_c, 0, 57, 0
2, 479035, Note_on_c, 0, 53, 0
2, 479040, Note_on_c, 0, 91, 95
2, 479040, Note_on_c, 0, 79, 95
2, 479040, Note_on_c, 0, 57, 95
2, 479040, Note_on_c, 0, 62, 95
2, 479040, Note_on_c, 0, 53, 95
2, 479095, Note_on_c, 0, 62, 0
2, 479095, Note_on_c, 0, 79, 0
2, 479095, Note_on_c, 0, 53, 0
2, 479095, Note_on_c, 0, 91, 0
2, 479095, Note_on_c, 0, 57, 0
2, 479160, Note_on_c, 0, 89, 117
2, 479160, Note_on_c, 0, 77, 117
2, 479160, Note_on_c, 0, 45, 117
2, 479160, Note_on_c, 0, 50, 117
2, 479160, Note_on_c, 0, 38, 117
2, 479215, Note_on_c, 0, 38, 0
2, 479215, Note_on_c, 0, 45, 0
2, 479215, Note_on_c, 0, 77, 0
2, 479215, Note_on_c, 0, 89, 0
2, 479215, Note_on_c, 0, 50, 0
2, 479280, Note_on_c, 0, 88, 95
2, 479280, Note_on_c, 0, 76, 95
2, 479335, Note_on_c, 0, 76, 0
2, 479335, Note_on_c, 0, 88, 0
2, 479340, Note_on_c, 0, 57, 95
2, 479340, Note_on_c, 0, 62, 95
2, 479340, Note_on_c, 0, 53, 95
2, 479395, Note_on_c, 0, 62, 0
2, 479395, Note_on_c, 0, 57, 0
2, 479395, Note_on_c, 0, 53, 0
2, 479400, Note_on_c, 0, 86, 95
2, 479400, Note_on_c, 0, 74, 95
2, 479400, Note_on_c, 0, 57, 95
2, 479400, Note_on_c, 0, 62, 95
2, 479400, Note_on_c, 0, 53, 95
2, 479455, Note_on_c, 0, 62, 0
2, 479455, Note_on_c, 0, 74, 0
2, 479455, Note_on_c, 0, 53, 0
2, 479455, Note_on_c, 0, 86, 0
2, 479455, Note_on_c, 0, 57, 0
2, 479520, Note_on_c, 0, 85, 117
2, 479520, Note_on_c, 0, 73, 117
2, 479520, Note_on_c, 0, 45, 117
2, 479520, Note_on_c, 0, 50, 117
2, 479520, Note_on_c, 0, 38, 117
2, 479575, Note_on_c, 0, 38, 0
2, 479575, Note_on_c, 0, 45, 0
2, 479575, Note_on_c, 0, 73, 0
2, 479575, Note_on_c, 0, 85, 0
2, 479575, Note_on_c, 0, 50, 0
2, 479640, Note_on_c, 0, 86, 95
2, 479640, Note_on_c, 0, 74, 95
2, 479695, Note_on_c, 0, 74, 0
2, 479695, Note_on_c, 0, 86, 0
2, 479700, Note_on_c, 0, 57, 95
2, 479700, Note_on_c, 0, 62, 95
2, 479700, Note_on_c, 0, 53, 95
2, 479755, Note_on_c, 0, 62, 0
2, 479755, Note_on_c, 0, 57, 0
2, 479755, Note_on_c, 0, 53, 0
2, 479760, Note_on_c, 0, 88, 95
2, 479760, Note_on_c, 0, 76, 95
2, 479760, Note_on_c, 0, 57, 95
2, 479760, Note_on_c, 0, 62, 95
2, 479760, Note_on_c, 0, 53, 95
2, 479815, Note_on_c, 0, 62, 0
2, 479815, Note_on_c, 0, 76, 0
2, 479815, Note_on_c, 0, 53, 0
2, 479815, Note_on_c, 0, 88, 0
2, 479815, Note_on_c, 0, 57, 0
2, 479880, Note_on_c, 0, 86, 117
2, 479880, Note_on_c, 0, 74, 117
2, 479880, Note_on_c, 0, 45, 117
2, 479880, Note_on_c, 0, 50, 117
2, 479880, Note_on_c, 0, 38, 117
2, 479935, Note_on_c, 0, 38, 0
2, 479935, Note_on_c, 0, 45, 0
2, 479935, Note_on_c, 0, 74, 0
2, 479935, Note_on_c, 0, 86, 0
2, 479935, Note_on_c, 0, 50, 0
2, 480000, Note_on_c, 0, 85, 95
2, 480000, Note_on_c, 0, 73, 95
2, 480055, Note_on_c, 0, 73, 0
2, 480055, Note_on_c, 0, 85, 0
2, 480060, Note_on_c, 0, 57, 95
2, 480060, Note_on_c, 0, 62, 95
2, 480060, Note_on_c, 0, 53, 95
2, 480115, Note_on_c, 0, 62, 0
2, 480115, Note_on_c, 0, 57, 0
2, 480115, Note_on_c, 0, 53, 0
2, 480120, Note_on_c, 0, 86, 95
2, 480120, Note_on_c, 0, 74, 95
2, 480120, Note_on_c, 0, 57, 95
2, 480120, Note_on_c, 0, 62, 95
2, 480120, Note_on_c, 0, 53, 95
2, 480175, Note_on_c, 0, 62, 0
2, 480175, Note_on_c, 0, 74, 0
2, 480175, Note_on_c, 0, 53, 0
2, 480175, Note_on_c, 0, 86, 0
2, 480175, Note_on_c, 0, 57, 0
2, 480240, Note_on_c, 0, 94, 117
2, 480240, Note_on_c, 0, 82, 117
2, 480240, Note_on_c, 0, 45, 117
2, 480240, Note_on_c, 0, 50, 117
2, 480240, Note_on_c, 0, 38, 117
2, 480295, Note_on_c, 0, 38, 0
2, 480295, Note_on_c, 0, 45, 0
2, 480295, Note_on_c, 0, 82, 0
2, 480295, Note_on_c, 0, 94, 0
2, 480295, Note_on_c, 0, 50, 0
2, 480360, Note_on_c, 0, 93, 95
2, 480360, Note_on_c, 0, 81, 95
2, 480415, Note_on_c, 0, 81, 0
2, 480415, Note_on_c, 0, 93, 0
2, 480420, Note_on_c, 0, 57, 95
2, 480420, Note_on_c, 0, 62, 95
2, 480420, Note_on_c, 0, 53, 95
2, 480475, Note_on_c, 0, 62, 0
2, 480475, Note_on_c, 0, 57, 0
2, 480475, Note_on_c, 0, 53, 0
2, 480480, Note_on_c, 0, 91, 95
2, 480480, Note_on_c, 0, 79, 95
2, 480480, Note_on_c, 0, 57, 95
2, 480480, Note_on_c, 0, 62, 95
2, 480480, Note_on_c, 0, 53, 95
2, 480535, Note_on_c, 0, 62, 0
2, 480535, Note_on_c, 0, 79, 0
2, 480535, Note_on_c, 0, 53, 0
2, 480535, Note_on_c, 0, 91, 0
2, 480535, Note_on_c, 0, 57, 0
2, 480600, Note_on_c, 0, 89, 117
2, 480600, Note_on_c, 0, 77, 117
2, 480600, Note_on_c, 0, 45, 117
2, 480600, Note_on_c, 0, 50, 117
2, 480600, Note_on_c, 0, 38, 117
2, 480655, Note_on_c, 0, 38, 0
2, 480655, Note_on_c, 0, 45, 0
2, 480655, Note_on_c, 0, 77, 0
2, 480655, Note_on_c, 0, 89, 0
2, 480655, Note_on_c, 0, 50, 0
2, 480720, Note_on_c, 0, 88, 95
2, 480720, Note_on_c, 0, 76, 95
2, 480775, Note_on_c, 0, 76, 0
2, 480775, Note_on_c, 0, 88, 0
2, 480780, Note_on_c, 0, 57, 95
2, 480780, Note_on_c, 0, 62, 95
2, 480780, Note_on_c, 0, 53, 95
2, 480835, Note_on_c, 0, 62, 0
2, 480835, Note_on_c, 0, 57, 0
2, 480835, Note_on_c, 0, 53, 0
2, 480840, Note_on_c, 0, 86, 95
2, 480840, Note_on_c, 0, 74, 95
2, 480840, Note_on_c, 0, 57, 95
2, 480840, Note_on_c, 0, 62, 95
2, 480840, Note_on_c, 0, 53, 95
2, 480895, Note_on_c, 0, 62, 0
2, 480895, Note_on_c, 0, 74, 0
2, 480895, Note_on_c, 0, 53, 0
2, 480895, Note_on_c, 0, 86, 0
2, 480895, Note_on_c, 0, 57, 0
2, 480960, Note_on_c, 0, 85, 117
2, 480960, Note_on_c, 0, 73, 117
2, 480960, Note_on_c, 0, 45, 117
2, 480960, Note_on_c, 0, 50, 117
2, 480960, Note_on_c, 0, 38, 117
2, 481015, Note_on_c, 0, 38, 0
2, 481015, Note_on_c, 0, 45, 0
2, 481015, Note_on_c, 0, 73, 0
2, 481015, Note_on_c, 0, 85, 0
2, 481015, Note_on_c, 0, 50, 0
2, 481080, Note_on_c, 0, 86, 95
2, 481080, Note_on_c, 0, 74, 95
2, 481135, Note_on_c, 0, 74, 0
2, 481135, Note_on_c, 0, 86, 0
2, 481140, Note_on_c, 0, 57, 95
2, 481140, Note_on_c, 0, 62, 95
2, 481140, Note_on_c, 0, 53, 95
2, 481195, Note_on_c, 0, 62, 0
2, 481195, Note_on_c, 0, 57, 0
2, 481195, Note_on_c, 0, 53, 0
2, 481200, Note_on_c, 0, 88, 95
2, 481200, Note_on_c, 0, 76, 95
2, 481200, Note_on_c, 0, 57, 95
2, 481200, Note_on_c, 0, 62, 95
2, 481200, Note_on_c, 0, 53, 95
2, 481255, Note_on_c, 0, 62, 0
2, 481255, Note_on_c, 0, 76, 0
2, 481255, Note_on_c, 0, 53, 0
2, 481255, Note_on_c, 0, 88, 0
2, 481255, Note_on_c, 0, 57, 0
2, 481320, Note_on_c, 0, 86, 117
2, 481320, Note_on_c, 0, 74, 117
2, 481320, Note_on_c, 0, 45, 117
2, 481320, Note_on_c, 0, 50, 117
2, 481320, Note_on_c, 0, 38, 117
2, 481375, Note_on_c, 0, 38, 0
2, 481375, Note_on_c, 0, 45, 0
2, 481375, Note_on_c, 0, 74, 0
2, 481375, Note_on_c, 0, 86, 0
2, 481375, Note_on_c, 0, 50, 0
2, 481440, Note_on_c, 0, 85, 95
2, 481440, Note_on_c, 0, 73, 95
2, 481495, Note_on_c, 0, 73, 0
2, 481495, Note_on_c, 0, 85, 0
2, 481500, Note_on_c, 0, 57, 95
2, 481500, Note_on_c, 0, 62, 95
2, 481500, Note_on_c, 0, 53, 95
2, 481555, Note_on_c, 0, 62, 0
2, 481555, Note_on_c, 0, 57, 0
2, 481555, Note_on_c, 0, 53, 0
2, 481560, Note_on_c, 0, 86, 95
2, 481560, Note_on_c, 0, 74, 95
2, 481560, Note_on_c, 0, 57, 95
2, 481560, Note_on_c, 0, 62, 95
2, 481560, Note_on_c, 0, 53, 95
2, 481615, Note_on_c, 0, 62, 0
2, 481615, Note_on_c, 0, 74, 0
2, 481615, Note_on_c, 0, 53, 0
2, 481615, Note_on_c, 0, 86, 0
2, 481615, Note_on_c, 0, 57, 0
2, 481680, Note_on_c, 0, 84, 95
2, 481680, Note_on_c, 0, 72, 95
2, 481680, Note_on_c, 0, 63, 95
2, 481680, Note_on_c, 0, 51, 95
2, 481735, Note_on_c, 0, 51, 0
2, 481735, Note_on_c, 0, 72, 0
2, 481735, Note_on_c, 0, 84, 0
2, 481735, Note_on_c, 0, 63, 0
2, 481800, Note_on_c, 0, 86, 95
2, 481800, Note_on_c, 0, 74, 95
2, 481800, Note_on_c, 0, 62, 95
2, 481800, Note_on_c, 0, 50, 95
2, 481855, Note_on_c, 0, 50, 0
2, 481855, Note_on_c, 0, 74, 0
2, 481855, Note_on_c, 0, 86, 0
2, 481855, Note_on_c, 0, 62, 0
2, 481920, Note_on_c, 0, 87, 95
2, 481920, Note_on_c, 0, 75, 95
2, 481920, Note_on_c, 0, 60, 95
2, 481920, Note_on_c, 0, 48, 95
2, 481975, Note_on_c, 0, 48, 0
2, 481975, Note_on_c, 0, 75, 0
2, 481975, Note_on_c, 0, 87, 0
2, 481975, Note_on_c, 0, 60, 0
2, 482040, Note_on_c, 0, 74, 95
2, 482040, Note_on_c, 0, 79, 95
2, 482040, Note_on_c, 0, 67, 95
2, 482040, Note_on_c, 0, 58, 95
2, 482040, Note_on_c, 0, 46, 95
2, 482095, Note_on_c, 0, 46, 0
2, 482095, Note_on_c, 0, 67, 0
2, 482095, Note_on_c, 0, 79, 0
2, 482095, Note_on_c, 0, 74, 0
2, 482095, Note_on_c, 0, 58, 0
2, 482160, Note_on_c, 0, 81, 95
2, 482160, Note_on_c, 0, 69, 95
2, 482215, Note_on_c, 0, 69, 0
2, 482215, Note_on_c, 0, 81, 0
2, 482220, Note_on_c, 0, 62, 95
2, 482220, Note_on_c, 0, 50, 95
2, 482275, Note_on_c, 0, 50, 0
2, 482275, Note_on_c, 0, 62, 0
2, 482280, Note_on_c, 0, 82, 95
2, 482280, Note_on_c, 0, 70, 95
2, 482280, Note_on_c, 0, 62, 95
2, 482280, Note_on_c, 0, 50, 95
2, 482335, Note_on_c, 0, 50, 0
2, 482335, Note_on_c, 0, 70, 0
2, 482335, Note_on_c, 0, 82, 0
2, 482335, Note_on_c, 0, 62, 0
2, 482400, Note_on_c, 0, 74, 95
2, 482400, Note_on_c, 0, 81, 95
2, 482400, Note_on_c, 0, 69, 95
2, 482400, Note_on_c, 0, 54, 95
2, 482400, Note_on_c, 0, 42, 95
2, 482455, Note_on_c, 0, 42, 0
2, 482455, Note_on_c, 0, 69, 0
2, 482455, Note_on_c, 0, 81, 0
2, 482455, Note_on_c, 0, 74, 0
2, 482455, Note_on_c, 0, 54, 0
2, 482520, Note_on_c, 0, 82, 95
2, 482520, Note_on_c, 0, 70, 95
2, 482575, Note_on_c, 0, 70, 0
2, 482575, Note_on_c, 0, 82, 0
2, 482580, Note_on_c, 0, 62, 95
2, 482580, Note_on_c, 0, 50, 95
2, 482635, Note_on_c, 0, 50, 0
2, 482635, Note_on_c, 0, 62, 0
2, 482640, Note_on_c, 0, 84, 95
2, 482640, Note_on_c, 0, 72, 95
2, 482640, Note_on_c, 0, 62, 95
2, 482640, Note_on_c, 0, 50, 95
2, 482695, Note_on_c, 0, 50, 0
2, 482695, Note_on_c, 0, 72, 0
2, 482695, Note_on_c, 0, 84, 0
2, 482695, Note_on_c, 0, 62, 0
2, 482760, Note_on_c, 0, 74, 95
2, 482760, Note_on_c, 0, 82, 95
2, 482760, Note_on_c, 0, 70, 95
2, 482760, Note_on_c, 0, 55, 95
2, 482760, Note_on_c, 0, 43, 95
2, 482815, Note_on_c, 0, 43, 0
2, 482815, Note_on_c, 0, 70, 0
2, 482815, Note_on_c, 0, 82, 0
2, 482815, Note_on_c, 0, 74, 0
2, 482815, Note_on_c, 0, 55, 0
2, 482880, Note_on_c, 0, 81, 95
2, 482880, Note_on_c, 0, 69, 95
2, 482935, Note_on_c, 0, 69, 0
2, 482935, Note_on_c, 0, 81, 0
2, 482940, Note_on_c, 0, 62, 95
2, 482940, Note_on_c, 0, 50, 95
2, 482995, Note_on_c, 0, 50, 0
2, 482995, Note_on_c, 0, 62, 0
2, 483000, Note_on_c, 0, 79, 95
2, 483000, Note_on_c, 0, 67, 95
2, 483000, Note_on_c, 0, 62, 95
2, 483000, Note_on_c, 0, 50, 95
2, 483055, Note_on_c, 0, 50, 0
2, 483055, Note_on_c, 0, 67, 0
2, 483055, Note_on_c, 0, 79, 0
2, 483055, Note_on_c, 0, 62, 0
2, 483120, Note_on_c, 0, 79, 117
2, 483120, Note_on_c, 0, 87, 117
2, 483120, Note_on_c, 0, 75, 117
2, 483120, Note_on_c, 0, 55, 117
2, 483120, Note_on_c, 0, 63, 117
2, 483120, Note_on_c, 0, 51, 117
2, 483175, Note_on_c, 0, 51, 0
2, 483175, Note_on_c, 0, 63, 0
2, 483175, Note_on_c, 0, 75, 0
2, 483175, Note_on_c, 0, 87, 0
2, 483175, Note_on_c, 0, 79, 0
2, 483175, Note_on_c, 0, 55, 0
2, 483240, Note_on_c, 0, 86, 95
2, 483240, Note_on_c, 0, 74, 95
2, 483240, Note_on_c, 0, 62, 95
2, 483240, Note_on_c, 0, 50, 95
2, 483295, Note_on_c, 0, 50, 0
2, 483295, Note_on_c, 0, 74, 0
2, 483295, Note_on_c, 0, 86, 0
2, 483295, Note_on_c, 0, 62, 0
2, 483360, Note_on_c, 0, 84, 95
2, 483360, Note_on_c, 0, 72, 95
2, 483360, Note_on_c, 0, 60, 95
2, 483360, Note_on_c, 0, 48, 95
2, 483415, Note_on_c, 0, 48, 0
2, 483415, Note_on_c, 0, 72, 0
2, 483415, Note_on_c, 0, 84, 0
2, 483415, Note_on_c, 0, 60, 0
2, 483480, Note_on_c, 0, 82, 117
2, 483480, Note_on_c, 0, 70, 117
2, 483480, Note_on_c, 0, 58, 117
2, 483480, Note_on_c, 0, 46, 117
2, 483535, Note_on_c, 0, 46, 0
2, 483535, Note_on_c, 0, 70, 0
2, 483535, Note_on_c, 0, 82, 0
2, 483535, Note_on_c, 0, 58, 0
2, 483600, Note_on_c, 0, 81, 95
2, 483600, Note_on_c, 0, 69, 95
2, 483600, Note_on_c, 0, 57, 95
2, 483600, Note_on_c, 0, 45, 95
2, 483655, Note_on_c, 0, 45, 0
2, 483655, Note_on_c, 0, 69, 0
2, 483655, Note_on_c, 0, 81, 0
2, 483655, Note_on_c, 0, 57, 0
2, 483720, Note_on_c, 0, 79, 95
2, 483720, Note_on_c, 0, 67, 95
2, 483720, Note_on_c, 0, 55, 95
2, 483720, Note_on_c, 0, 43, 95
2, 483775, Note_on_c, 0, 43, 0
2, 483775, Note_on_c, 0, 67, 0
2, 483775, Note_on_c, 0, 79, 0
2, 483775, Note_on_c, 0, 55, 0
2, 483840, Note_on_c, 0, 77, 117
2, 483840, Note_on_c, 0, 65, 117
2, 483840, Note_on_c, 0, 53, 117
2, 483840, Note_on_c, 0, 41, 117
2, 483895, Note_on_c, 0, 41, 0
2, 483895, Note_on_c, 0, 53, 0
2, 483895, Note_on_c, 0, 77, 0
2, 483895, Note_on_c, 0, 65, 0
2, 483960, Note_on_c, 0, 75, 95
2, 483960, Note_on_c, 0, 63, 95
2, 484015, Note_on_c, 0, 63, 0
2, 484015, Note_on_c, 0, 75, 0
2, 484020, Note_on_c, 0, 41, 95
2, 484020, Note_on_c, 0, 29, 95
2, 484075, Note_on_c, 0, 29, 0
2, 484075, Note_on_c, 0, 41, 0
2, 484080, Note_on_c, 0, 74, 95
2, 484080, Note_on_c, 0, 62, 95
2, 484080, Note_on_c, 0, 41, 95
2, 484080, Note_on_c, 0, 29, 95
2, 484135, Note_on_c, 0, 29, 0
2, 484135, Note_on_c, 0, 62, 0
2, 484135, Note_on_c, 0, 74, 0
2, 484135, Note_on_c, 0, 41, 0
2, 484200, Note_on_c, 0, 72, 117
2, 484200, Note_on_c, 0, 60, 117
2, 484200, Note_on_c, 0, 53, 117
2, 484200, Note_on_c, 0, 41, 117
2, 484255, Note_on_c, 0, 41, 0
2, 484255, Note_on_c, 0, 53, 0
2, 484255, Note_on_c, 0, 72, 0
2, 484255, Note_on_c, 0, 60, 0
2, 484320, Note_on_c, 0, 70, 95
2, 484320, Note_on_c, 0, 58, 95
2, 484375, Note_on_c, 0, 58, 0
2, 484375, Note_on_c, 0, 70, 0
2, 484380, Note_on_c, 0, 41, 95
2, 484380, Note_on_c, 0, 29, 95
2, 484435, Note_on_c, 0, 29, 0
2, 484435, Note_on_c, 0, 41, 0
2, 484440, Note_on_c, 0, 69, 95
2, 484440, Note_on_c, 0, 57, 95
2, 484440, Note_on_c, 0, 41, 95
2, 484440, Note_on_c, 0, 29, 95
2, 484495, Note_on_c, 0, 29, 0
2, 484495, Note_on_c, 0, 57, 0
2, 484495, Note_on_c, 0, 69, 0
2, 484495, Note_on_c, 0, 41, 0
2, 484560, Note_on_c, 0, 79, 117
2, 484560, Note_on_c, 0, 67, 117
2, 484560, Note_on_c, 0, 53, 117
2, 484560, Note_on_c, 0, 41, 117
2, 484615, Note_on_c, 0, 41, 0
2, 484615, Note_on_c, 0, 53, 0
2, 484615, Note_on_c, 0, 79, 0
2, 484615, Note_on_c, 0, 67, 0
2, 484680, Note_on_c, 0, 77, 95
2, 484680, Note_on_c, 0, 65, 95
2, 484735, Note_on_c, 0, 65, 0
2, 484735, Note_on_c, 0, 77, 0
2, 484740, Note_on_c, 0, 41, 95
2, 484740, Note_on_c, 0, 29, 95
2, 484795, Note_on_c, 0, 29, 0
2, 484795, Note_on_c, 0, 41, 0
2, 484800, Note_on_c, 0, 75, 95
2, 484800, Note_on_c, 0, 63, 95
2, 484800, Note_on_c, 0, 41, 95
2, 484800, Note_on_c, 0, 29, 95
2, 484855, Note_on_c, 0, 29, 0
2, 484855, Note_on_c, 0, 63, 0
2, 484855, Note_on_c, 0, 75, 0
2, 484855, Note_on_c, 0, 41, 0
2, 484920, Note_on_c, 0, 74, 117
2, 484920, Note_on_c, 0, 62, 117
2, 484920, Note_on_c, 0, 53, 117
2, 484920, Note_on_c, 0, 41, 117
2, 484975, Note_on_c, 0, 41, 0
2, 484975, Note_on_c, 0, 53, 0
2, 484975, Note_on_c, 0, 74, 0
2, 484975, Note_on_c, 0, 62, 0
2, 485040, Note_on_c, 0, 75, 95
2, 485040, Note_on_c, 0, 63, 95
2, 485095, Note_on_c, 0, 63, 0
2, 485095, Note_on_c, 0, 75, 0
2, 485100, Note_on_c, 0, 60, 95
2, 485100, Note_on_c, 0, 48, 95
2, 485155, Note_on_c, 0, 48, 0
2, 485155, Note_on_c, 0, 60, 0
2, 485160, Note_on_c, 0, 77, 95
2, 485160, Note_on_c, 0, 65, 95
2, 485160, Note_on_c, 0, 58, 95
2, 485160, Note_on_c, 0, 46, 95
2, 485215, Note_on_c, 0, 46, 0
2, 485215, Note_on_c, 0, 65, 0
2, 485215, Note_on_c, 0, 77, 0
2, 485215, Note_on_c, 0, 58, 0
2, 485280, Note_on_c, 0, 79, 117
2, 485280, Note_on_c, 0, 67, 117
2, 485280, Note_on_c, 0, 57, 117
2, 485280, Note_on_c, 0, 45, 117
2, 485335, Note_on_c, 0, 45, 0
2, 485335, Note_on_c, 0, 67, 0
2, 485335, Note_on_c, 0, 79, 0
2, 485335, Note_on_c, 0, 57, 0
2, 485400, Note_on_c, 0, 81, 95
2, 485400, Note_on_c, 0, 69, 95
2, 485455, Note_on_c, 0, 69, 0
2, 485455, Note_on_c, 0, 81, 0
2, 485460, Note_on_c, 0, 55, 95
2, 485460, Note_on_c, 0, 43, 95
2, 485515, Note_on_c, 0, 43, 0
2, 485515, Note_on_c, 0, 55, 0
2, 485520, Note_on_c, 0, 82, 95
2, 485520, Note_on_c, 0, 70, 95
2, 485520, Note_on_c, 0, 53, 95
2, 485520, Note_on_c, 0, 41, 95
2, 485575, Note_on_c, 0, 41, 0
2, 485575, Note_on_c, 0, 53, 0
2, 485575, Note_on_c, 0, 82, 0
2, 485575, Note_on_c, 0, 70, 0
2, 485640, Note_on_c, 0, 84, 117
2, 485640, Note_on_c, 0, 72, 117
2, 485640, Note_on_c, 0, 51, 95
2, 485640, Note_on_c, 0, 39, 95
2, 485695, Note_on_c, 0, 39, 0
2, 485695, Note_on_c, 0, 72, 0
2, 485695, Note_on_c, 0, 84, 0
2, 485695, Note_on_c, 0, 51, 0
2, 485760, Note_on_c, 0, 86, 95
2, 485760, Note_on_c, 0, 74, 95
2, 485815, Note_on_c, 0, 74, 0
2, 485815, Note_on_c, 0, 86, 0
2, 485820, Note_on_c, 0, 50, 95
2, 485820, Note_on_c, 0, 38, 95
2, 485875, Note_on_c, 0, 38, 0
2, 485875, Note_on_c, 0, 50, 0
2, 485880, Note_on_c, 0, 87, 95
2, 485880, Note_on_c, 0, 75, 95
2, 485880, Note_on_c, 0, 48, 95
2, 485880, Note_on_c, 0, 36, 95
2, 485935, Note_on_c, 0, 36, 0
2, 485935, Note_on_c, 0, 75, 0
2, 485935, Note_on_c, 0, 87, 0
2, 485935, Note_on_c, 0, 48, 0
2, 486000, Note_on_c, 0, 89, 95
2, 486000, Note_on_c, 0, 77, 95
2, 486000, Note_on_c, 0, 46, 95
2, 486000, Note_on_c, 0, 34, 95
2, 486055, Note_on_c, 0, 34, 0
2, 486055, Note_on_c, 0, 46, 0
2, 486360, Note_on_c, 0, 58, 53
2, 486415, Note_on_c, 0, 58, 0
2, 486540, Note_on_c, 0, 65, 53
2, 486595, Note_on_c, 0, 65, 0
2, 486600, Note_on_c, 0, 65, 53
2, 486655, Note_on_c, 0, 65, 0
2, 486720, Note_on_c, 0, 79, 69
2, 486720, Note_on_c, 0, 77, 69
2, 486720, Note_on_c, 0, 51, 59
2, 486900, Note_on_c, 0, 67, 65
2, 486900, Note_on_c, 0, 65, 65
2, 486955, Note_on_c, 0, 65, 0
2, 486955, Note_on_c, 0, 67, 0
2, 486960, Note_on_c, 0, 67, 71
2, 486960, Note_on_c, 0, 65, 71
2, 487015, Note_on_c, 0, 65, 0
2, 487015, Note_on_c, 0, 67, 0
2, 487075, Note_on_c, 0, 51, 0
2, 487075, Note_on_c, 0, 77, 0
2, 487075, Note_on_c, 0, 79, 0
2, 487080, Note_on_c, 0, 79, 85
2, 487080, Note_on_c, 0, 87, 85
2, 487080, Note_on_c, 0, 75, 85
2, 487080, Note_on_c, 0, 48, 77
2, 487195, Note_on_c, 0, 48, 0
2, 487260, Note_on_c, 0, 67, 83
2, 487260, Note_on_c, 0, 72, 83
2, 487260, Note_on_c, 0, 63, 83
2, 487315, Note_on_c, 0, 63, 0
2, 487315, Note_on_c, 0, 72, 0
2, 487315, Note_on_c, 0, 67, 0
2, 487320, Note_on_c, 0, 67, 90
2, 487320, Note_on_c, 0, 72, 90
2, 487320, Note_on_c, 0, 63, 90
2, 487375, Note_on_c, 0, 63, 0
2, 487375, Note_on_c, 0, 72, 0
2, 487375, Note_on_c, 0, 67, 0
2, 487435, Note_on_c, 0, 75, 0
2, 487435, Note_on_c, 0, 79, 0
2, 487435, Note_on_c, 0, 87, 0
2, 487440, Note_on_c, 0, 81, 101
2, 487440, Note_on_c, 0, 87, 101
2, 487440, Note_on_c, 0, 75, 101
2, 487440, Note_on_c, 0, 53, 99
2, 487540, Note_on_c, 0, 53, 0
2, 487620, Note_on_c, 0, 69, 102
2, 487620, Note_on_c, 0, 72, 102
2, 487620, Note_on_c, 0, 63, 102
2, 487675, Note_on_c, 0, 63, 0
2, 487675, Note_on_c, 0, 72, 0
2, 487675, Note_on_c, 0, 69, 0
2, 487680, Note_on_c, 0, 69, 108
2, 487680, Note_on_c, 0, 72, 108
2, 487680, Note_on_c, 0, 63, 108
2, 487735, Note_on_c, 0, 63, 0
2, 487735, Note_on_c, 0, 72, 0
2, 487735, Note_on_c, 0, 69, 0
2, 487795, Note_on_c, 0, 81, 0
2, 487795, Note_on_c, 0, 87, 0
2, 487795, Note_on_c, 0, 75, 0
2, 487800, Note_on_c, 0, 82, 117
2, 487800, Note_on_c, 0, 86, 117
2, 487800, Note_on_c, 0, 74, 117
2, 487800, Note_on_c, 0, 46, 117
2, 487855, Note_on_c, 0, 46, 0
2, 487980, Note_on_c, 0, 65, 89
2, 487980, Note_on_c, 0, 70, 89
2, 487980, Note_on_c, 0, 62, 89
2, 488035, Note_on_c, 0, 62, 0
2, 488035, Note_on_c, 0, 70, 0
2, 488035, Note_on_c, 0, 65, 0
2, 488040, Note_on_c, 0, 65, 76
2, 488040, Note_on_c, 0, 70, 76
2, 488040, Note_on_c, 0, 62, 76
2, 488095, Note_on_c, 0, 62, 0
2, 488095, Note_on_c, 0, 70, 0
2, 488095, Note_on_c, 0, 65, 0
2, 488155, Note_on_c, 0, 74, 0
2, 488155, Note_on_c, 0, 82, 0
2, 488155, Note_on_c, 0, 86, 0
2, 488160, Note_on_c, 0, 82, 117
2, 488160, Note_on_c, 0, 85, 117
2, 488160, Note_on_c, 0, 73, 117
2, 488160, Note_on_c, 0, 53, 57
2, 488215, Note_on_c, 0, 53, 0
2, 488340, Note_on_c, 0, 65, 51
2, 488340, Note_on_c, 0, 70, 51
2, 488340, Note_on_c, 0, 61, 51
2, 488395, Note_on_c, 0, 61, 0
2, 488395, Note_on_c, 0, 70, 0
2, 488395, Note_on_c, 0, 65, 0
2, 488400, Note_on_c, 0, 65, 38
2, 488400, Note_on_c, 0, 70, 38
2, 488400, Note_on_c, 0, 61, 38
2, 488455, Note_on_c, 0, 61, 0
2, 488455, Note_on_c, 0, 70, 0
2, 488455, Note_on_c, 0, 65, 0
2, 488515, Note_on_c, 0, 82, 0
2, 488515, Note_on_c, 0, 85, 0
2, 488515, Note_on_c, 0, 73, 0
2, 488520, Note_on_c, 0, 81, 117
2, 488520, Note_on_c, 0, 84, 117
2, 488520, Note_on_c, 0, 72, 117
2, 488520, Note_on_c, 0, 53, 19
2, 488575, Note_on_c, 0, 53, 0
2, 488700, Note_on_c, 0, 65, 13
2, 488700, Note_on_c, 0, 69, 13
2, 488700, Note_on_c, 0, 60, 13
2, 488755, Note_on_c, 0, 60, 0
2, 488755, Note_on_c, 0, 69, 0
2, 488755, Note_on_c, 0, 65, 0
2, 488760, Note_on_c, 0, 65, 1
2, 488760, Note_on_c, 0, 69, 1
2, 488760, Note_on_c, 0, 60, 1
2, 488815, Note_on_c, 0, 60, 0
2, 488815, Note_on_c, 0, 69, 0
2, 488815, Note_on_c, 0, 65, 0
2, 488875, Note_on_c, 0, 81, 0
2, 488875, Note_on_c, 0, 84, 0
2, 488875, Note_on_c, 0, 72, 0
2, 488880, Note_on_c, 0, 82, 53
2, 488880, Note_on_c, 0, 70, 53
2, 488880, Note_on_c, 0, 58, 1
2, 488880, Note_on_c, 0, 46, 1
2, 489600, Note_on_c, 0, 46, 0
2, 489600, Note_on_c, 0, 58, 0
2, 489600, Note_on_c, 0, 82, 0
2, 489600, Note_on_c, 0, 70, 0
2, 489600, Note_on_c, 0, 81, 53
2, 489600, Note_on_c, 0, 69, 53
2, 489600, Note_on_c, 0, 57, 1
2, 489600, Note_on_c, 0, 45, 1
2, 489955, Note_on_c, 0, 45, 0
2, 489955, Note_on_c, 0, 57, 0
2, 489955, Note_on_c, 0, 69, 0
2, 489960, Note_on_c, 0, 57, 1
2, 490015, Note_on_c, 0, 57, 0
2, 490100, Note_on_c, 0, 81, 0
2, 490140, Note_on_c, 0, 69, 1
2, 490195, Note_on_c, 0, 69, 0
2, 490200, Note_on_c, 0, 69, 1
2, 490255, Note_on_c, 0, 69, 0
2, 490320, Note_on_c, 0, 83, 74
2, 490320, Note_on_c, 0, 81, 74
2, 490320, Note_on_c, 0, 57, 19
2, 490375, Note_on_c, 0, 57, 0
2, 490500, Note_on_c, 0, 71, 26
2, 490500, Note_on_c, 0, 69, 26
2, 490555, Note_on_c, 0, 69, 0
2, 490555, Note_on_c, 0, 71, 0
2, 490560, Note_on_c, 0, 71, 39
2, 490560, Note_on_c, 0, 69, 39
2, 490615, Note_on_c, 0, 69, 0
2, 490615, Note_on_c, 0, 71, 0
2, 490675, Note_on_c, 0, 83, 0
2, 490675, Note_on_c, 0, 81, 0
2, 490680, Note_on_c, 0, 83, 96
2, 490680, Note_on_c, 0, 88, 96
2, 490680, Note_on_c, 0, 79, 96
2, 490680, Note_on_c, 0, 57, 58
2, 490735, Note_on_c, 0, 57, 0
2, 490860, Note_on_c, 0, 71, 65
2, 490860, Note_on_c, 0, 76, 65
2, 490860, Note_on_c, 0, 67, 65
2, 490915, Note_on_c, 0, 67, 0
2, 490915, Note_on_c, 0, 76, 0
2, 490915, Note_on_c, 0, 71, 0
2, 490920, Note_on_c, 0, 71, 78
2, 490920, Note_on_c, 0, 76, 78
2, 490920, Note_on_c, 0, 67, 78
2, 490975, Note_on_c, 0, 67, 0
2, 490975, Note_on_c, 0, 76, 0
2, 490975, Note_on_c, 0, 71, 0
2, 491035, Note_on_c, 0, 79, 0
2, 491035, Note_on_c, 0, 83, 0
2, 491035, Note_on_c, 0, 88, 0
2, 491040, Note_on_c, 0, 82, 117
2, 491040, Note_on_c, 0, 88, 117
2, 491040, Note_on_c, 0, 79, 117
2, 491040, Note_on_c, 0, 57, 97
2, 491095, Note_on_c, 0, 57, 0
2, 491220, Note_on_c, 0, 70, 104
2, 491220, Note_on_c, 0, 76, 104
2, 491220, Note_on_c, 0, 67, 104
2, 491275, Note_on_c, 0, 67, 0
2, 491275, Note_on_c, 0, 76, 0
2, 491275, Note_on_c, 0, 70, 0
2, 491280, Note_on_c, 0, 70, 117
2, 491280, Note_on_c, 0, 76, 117
2, 491280, Note_on_c, 0, 67, 117
2, 491335, Note_on_c, 0, 67, 0
2, 491335, Note_on_c, 0, 76, 0
2, 491335, Note_on_c, 0, 70, 0
2, 491395, Note_on_c, 0, 79, 0
2, 491395, Note_on_c, 0, 82, 0
2, 491395, Note_on_c, 0, 88, 0
2, 491400, Note_on_c, 0, 81, 47
2, 491400, Note_on_c, 0, 86, 47
2, 491400, Note_on_c, 0, 78, 47
2, 491400, Note_on_c, 0, 57, 98
2, 491455, Note_on_c, 0, 57, 0
2, 491580, Note_on_c, 0, 69, 91
2, 491580, Note_on_c, 0, 74, 91
2, 491580, Note_on_c, 0, 66, 91
2, 491635, Note_on_c, 0, 66, 0
2, 491635, Note_on_c, 0, 74, 0
2, 491635, Note_on_c, 0, 69, 0
2, 491640, Note_on_c, 0, 69, 78
2, 491640, Note_on_c, 0, 74, 78
2, 491640, Note_on_c, 0, 66, 78
2, 491695, Note_on_c, 0, 66, 0
2, 491695, Note_on_c, 0, 74, 0
2, 491695, Note_on_c, 0, 69, 0
2, 491755, Note_on_c, 0, 78, 0
2, 491755, Note_on_c, 0, 81, 0
2, 491755, Note_on_c, 0, 86, 0
2, 491760, Note_on_c, 0, 81, 24
2, 491760, Note_on_c, 0, 86, 24
2, 491760, Note_on_c, 0, 77, 24
2, 491760, Note_on_c, 0, 57, 59
2, 491815, Note_on_c, 0, 57, 0
2, 491940, Note_on_c, 0, 69, 52
2, 491940, Note_on_c, 0, 74, 52
2, 491940, Note_on_c, 0, 65, 52
2, 491995, Note_on_c, 0, 65, 0
2, 491995, Note_on_c, 0, 74, 0
2, 491995, Note_on_c, 0, 69, 0
2, 492000, Note_on_c, 0, 69, 39
2, 492000, Note_on_c, 0, 74, 39
2, 492000, Note_on_c, 0, 65, 39
2, 492055, Note_on_c, 0, 65, 0
2, 492055, Note_on_c, 0, 74, 0
2, 492055, Note_on_c, 0, 69, 0
2, 492115, Note_on_c, 0, 86, 0
2, 492115, Note_on_c, 0, 77, 0
2, 492115, Note_on_c, 0, 81, 0
2, 492120, Note_on_c, 0, 81, 1
2, 492120, Note_on_c, 0, 85, 1
2, 492120, Note_on_c, 0, 76, 1
2, 492120, Note_on_c, 0, 57, 20
2, 492175, Note_on_c, 0, 57, 0
2, 492300, Note_on_c, 0, 69, 13
2, 492300, Note_on_c, 0, 73, 13
2, 492300, Note_on_c, 0, 64, 13
2, 492355, Note_on_c, 0, 64, 0
2, 492355, Note_on_c, 0, 73, 0
2, 492355, Note_on_c, 0, 69, 0
2, 492360, Note_on_c, 0, 69, 1
2, 492360, Note_on_c, 0, 73, 1
2, 492360, Note_on_c, 0, 64, 1
2, 492415, Note_on_c, 0, 64, 0
2, 492415, Note_on_c, 0, 73, 0
2, 492415, Note_on_c, 0, 69, 0
2, 492475, Note_on_c, 0, 76, 0
2, 492475, Note_on_c, 0, 81, 0
2, 492475, Note_on_c, 0, 85, 0
2, 492480, Note_on_c, 0, 45, 1
2, 492840, Note_on_c, 0, 69, 37
2, 492895, Note_on_c, 0, 69, 0
2, 493020, Note_on_c, 0, 57, 37
2, 493075, Note_on_c, 0, 57, 0
2, 493080, Note_on_c, 0, 57, 37
2, 493135, Note_on_c, 0, 57, 0
2, 493200, Note_on_c, 0, 70, 37
2, 493200, Note_on_c, 0, 69, 37
2, 493255, Note_on_c, 0, 69, 0
2, 493255, Note_on_c, 0, 70, 0
2, 493380, Note_on_c, 0, 58, 37
2, 493380, Note_on_c, 0, 57, 37
2, 493435, Note_on_c, 0, 57, 0
2, 493435, Note_on_c, 0, 58, 0
2, 493440, Note_on_c, 0, 45, 0
2, 493440, Note_on_c, 0, 58, 37
2, 493440, Note_on_c, 0, 57, 37
2, 493495, Note_on_c, 0, 57, 0
2, 493495, Note_on_c, 0, 58, 0
2, 493560, Note_on_c, 0, 70, 37
2, 493560, Note_on_c, 0, 76, 37
2, 493560, Note_on_c, 0, 67, 37
2, 493560, Note_on_c, 0, 45, 37
2, 493615, Note_on_c, 0, 45, 0
2, 493615, Note_on_c, 0, 67, 0
2, 493615, Note_on_c, 0, 70, 0
2, 493615, Note_on_c, 0, 76, 0
2, 493740, Note_on_c, 0, 64, 37
2, 493740, Note_on_c, 0, 58, 37
2, 493740, Note_on_c, 0, 55, 37
2, 493795, Note_on_c, 0, 55, 0
2, 493795, Note_on_c, 0, 64, 0
2, 493795, Note_on_c, 0, 58, 0
2, 493800, Note_on_c, 0, 64, 37
2, 493800, Note_on_c, 0, 58, 37
2, 493800, Note_on_c, 0, 55, 37
2, 493855, Note_on_c, 0, 55, 0
2, 493855, Note_on_c, 0, 64, 0
2, 493855, Note_on_c, 0, 58, 0
2, 493920, Note_on_c, 0, 69, 37
2, 493920, Note_on_c, 0, 76, 37
2, 493920, Note_on_c, 0, 67, 37
2, 493920, Note_on_c, 0, 45, 37
2, 493975, Note_on_c, 0, 45, 0
2, 493975, Note_on_c, 0, 67, 0
2, 493975, Note_on_c, 0, 69, 0
2, 493975, Note_on_c, 0, 76, 0
2, 494100, Note_on_c, 0, 64, 37
2, 494100, Note_on_c, 0, 57, 37
2, 494100, Note_on_c, 0, 55, 37
2, 494155, Note_on_c, 0, 55, 0
2, 494155, Note_on_c, 0, 64, 0
2, 494155, Note_on_c, 0, 57, 0
2, 494160, Note_on_c, 0, 64, 37
2, 494160, Note_on_c, 0, 57, 37
2, 494160, Note_on_c, 0, 55, 37
2, 494215, Note_on_c, 0, 55, 0
2, 494215, Note_on_c, 0, 64, 0
2, 494215, Note_on_c, 0, 57, 0
2, 494280, Note_on_c, 0, 69, 37
2, 494280, Note_on_c, 0, 74, 37
2, 494280, Note_on_c, 0, 66, 37
2, 494280, Note_on_c, 0, 45, 37
2, 494335, Note_on_c, 0, 45, 0
2, 494335, Note_on_c, 0, 66, 0
2, 494335, Note_on_c, 0, 69, 0
2, 494335, Note_on_c, 0, 74, 0
2, 494460, Note_on_c, 0, 62, 37
2, 494460, Note_on_c, 0, 57, 37
2, 494460, Note_on_c, 0, 54, 37
2, 494515, Note_on_c, 0, 54, 0
2, 494515, Note_on_c, 0, 62, 0
2, 494515, Note_on_c, 0, 57, 0
2, 494520, Note_on_c, 0, 62, 37
2, 494520, Note_on_c, 0, 57, 37
2, 494520, Note_on_c, 0, 54, 37
2, 494575, Note_on_c, 0, 54, 0
2, 494575, Note_on_c, 0, 62, 0
2, 494575, Note_on_c, 0, 57, 0
2, 494640, Note_on_c, 0, 68, 37
2, 494640, Note_on_c, 0, 74, 37
2, 494640, Note_on_c, 0, 65, 37
2, 494640, Note_on_c, 0, 45, 37
2, 494695, Note_on_c, 0, 45, 0
2, 494695, Note_on_c, 0, 65, 0
2, 494695, Note_on_c, 0, 68, 0
2, 494695, Note_on_c, 0, 74, 0
2, 494820, Note_on_c, 0, 62, 37
2, 494820, Note_on_c, 0, 56, 37
2, 494820, Note_on_c, 0, 53, 37
2, 494875, Note_on_c, 0, 56, 0
2, 494875, Note_on_c, 0, 53, 0
2, 494875, Note_on_c, 0, 62, 0
2, 494880, Note_on_c, 0, 62, 37
2, 494880, Note_on_c, 0, 56, 37
2, 494880, Note_on_c, 0, 53, 37
2, 494935, Note_on_c, 0, 56, 0
2, 494935, Note_on_c, 0, 53, 0
2, 494935, Note_on_c, 0, 62, 0
2, 495000, Note_on_c, 0, 67, 37
2, 495000, Note_on_c, 0, 73, 37
2, 495000, Note_on_c, 0, 64, 37
2, 495000, Note_on_c, 0, 45, 37
2, 495055, Note_on_c, 0, 45, 0
2, 495055, Note_on_c, 0, 64, 0
2, 495055, Note_on_c, 0, 67, 0
2, 495055, Note_on_c, 0, 73, 0
2, 495180, Note_on_c, 0, 61, 37
2, 495180, Note_on_c, 0, 55, 37
2, 495180, Note_on_c, 0, 52, 37
2, 495235, Note_on_c, 0, 52, 0
2, 495235, Note_on_c, 0, 61, 0
2, 495235, Note_on_c, 0, 55, 0
2, 495240, Note_on_c, 0, 61, 37
2, 495240, Note_on_c, 0, 55, 37
2, 495240, Note_on_c, 0, 52, 37
2, 495295, Note_on_c, 0, 52, 0
2, 495295, Note_on_c, 0, 61, 0
2, 495295, Note_on_c, 0, 55, 0
2, 495360, Note_on_c, 0, 81, 37
2, 495360, Note_on_c, 0, 69, 37
2, 495360, Note_on_c, 0, 57, 37
2, 495415, Note_on_c, 0, 57, 0
2, 495540, Note_on_c, 0, 45, 37
2, 495595, Note_on_c, 0, 45, 0
2, 495600, Note_on_c, 0, 45, 37
2, 495655, Note_on_c, 0, 45, 0
2, 495715, Note_on_c, 0, 81, 0
2, 495715, Note_on_c, 0, 69, 0
2, 495720, Note_on_c, 0, 83, 48
2, 495720, Note_on_c, 0, 90, 48
2, 495720, Note_on_c, 0, 78, 48
2, 495720, Note_on_c, 0, 57, 41
2, 495775, Note_on_c, 0, 57, 0
2, 495900, Note_on_c, 0, 45, 45
2, 495955, Note_on_c, 0, 45, 0
2, 495960, Note_on_c, 0, 45, 47
2, 496015, Note_on_c, 0, 45, 0
2, 496075, Note_on_c, 0, 83, 0
2, 496080, Note_on_c, 0, 87, 60
2, 496080, Note_on_c, 0, 59, 52
2, 496080, Note_on_c, 0, 57, 52
2, 496135, Note_on_c, 0, 57, 0
2, 496135, Note_on_c, 0, 59, 0
2, 496260, Note_on_c, 0, 47, 56
2, 496260, Note_on_c, 0, 45, 56
2, 496315, Note_on_c, 0, 45, 0
2, 496315, Note_on_c, 0, 47, 0
2, 496320, Note_on_c, 0, 47, 58
2, 496320, Note_on_c, 0, 45, 58
2, 496375, Note_on_c, 0, 45, 0
2, 496375, Note_on_c, 0, 47, 0
2, 496435, Note_on_c, 0, 87, 0
2, 496440, Note_on_c, 0, 78, 0
2, 496440, Note_on_c, 0, 90, 0
2, 496440, Note_on_c, 0, 88, 71
2, 496440, Note_on_c, 0, 91, 71
2, 496440, Note_on_c, 0, 79, 71
2, 496440, Note_on_c, 0, 59, 64
2, 496440, Note_on_c, 0, 64, 64
2, 496440, Note_on_c, 0, 55, 64
2, 496495, Note_on_c, 0, 55, 0
2, 496495, Note_on_c, 0, 64, 0
2, 496495, Note_on_c, 0, 59, 0
2, 496620, Note_on_c, 0, 43, 67
2, 496675, Note_on_c, 0, 43, 0
2, 496680, Note_on_c, 0, 43, 69
2, 496735, Note_on_c, 0, 43, 0
2, 496795, Note_on_c, 0, 79, 0
2, 496795, Note_on_c, 0, 88, 0
2, 496795, Note_on_c, 0, 91, 0
2, 496800, Note_on_c, 0, 85, 83
2, 496800, Note_on_c, 0, 88, 83
2, 496800, Note_on_c, 0, 76, 83
2, 496800, Note_on_c, 0, 57, 75
2, 496800, Note_on_c, 0, 64, 75
2, 496800, Note_on_c, 0, 55, 75
2, 496855, Note_on_c, 0, 55, 0
2, 496855, Note_on_c, 0, 64, 0
2, 496855, Note_on_c, 0, 57, 0
2, 496980, Note_on_c, 0, 43, 79
2, 497035, Note_on_c, 0, 43, 0
2, 497040, Note_on_c, 0, 43, 81
2, 497095, Note_on_c, 0, 43, 0
2, 497155, Note_on_c, 0, 76, 0
2, 497155, Note_on_c, 0, 85, 0
2, 497155, Note_on_c, 0, 88, 0
2, 497160, Note_on_c, 0, 86, 94
2, 497160, Note_on_c, 0, 90, 94
2, 497160, Note_on_c, 0, 78, 94
2, 497160, Note_on_c, 0, 57, 87
2, 497160, Note_on_c, 0, 62, 87
2, 497160, Note_on_c, 0, 54, 87
2, 497215, Note_on_c, 0, 54, 0
2, 497215, Note_on_c, 0, 62, 0
2, 497215, Note_on_c, 0, 57, 0
2, 497340, Note_on_c, 0, 42, 90
2, 497395, Note_on_c, 0, 42, 0
2, 497400, Note_on_c, 0, 42, 92
2, 497455, Note_on_c, 0, 42, 0
2, 497515, Note_on_c, 0, 78, 0
2, 497515, Note_on_c, 0, 86, 0
2, 497515, Note_on_c, 0, 90, 0
2, 497520, Note_on_c, 0, 86, 106
2, 497520, Note_on_c, 0, 93, 106
2, 497520, Note_on_c, 0, 81, 106
2, 497520, Note_on_c, 0, 57, 98
2, 497520, Note_on_c, 0, 62, 98
2, 497520, Note_on_c, 0, 53, 98
2, 497575, Note_on_c, 0, 62, 0
2, 497575, Note_on_c, 0, 57, 0
2, 497575, Note_on_c, 0, 53, 0
2, 497700, Note_on_c, 0, 41, 102
2, 497755, Note_on_c, 0, 41, 0
2, 497760, Note_on_c, 0, 41, 104
2, 497815, Note_on_c, 0, 41, 0
2, 497875, Note_on_c, 0, 86, 0
2, 497875, Note_on_c, 0, 81, 0
2, 497880, Note_on_c, 0, 85, 113
2, 497880, Note_on_c, 0, 79, 113
2, 497880, Note_on_c, 0, 57, 109
2, 497880, Note_on_c, 0, 61, 109
2, 497880, Note_on_c, 0, 52, 109
2, 497935, Note_on_c, 0, 52, 0
2, 497935, Note_on_c, 0, 61, 0
2, 497935, Note_on_c, 0, 57, 0
2, 498060, Note_on_c, 0, 93, 0
2, 498060, Note_on_c, 0, 40, 113
2, 498115, Note_on_c, 0, 40, 0
2, 498115, Note_on_c, 0, 79, 0
2, 498115, Note_on_c, 0, 85, 0
2, 498120, Note_on_c, 0, 73, 115
2, 498120, Note_on_c, 0, 61, 115
2, 498120, Note_on_c, 0, 40, 117
2, 498175, Note_on_c, 0, 40, 0
2, 498175, Note_on_c, 0, 73, 0
2, 498175, Note_on_c, 0, 61, 0
2, 498240, Note_on_c, 0, 74, 117
2, 498240, Note_on_c, 0, 62, 117
2, 498240, Note_on_c, 0, 50, 117
2, 498240, Note_on_c, 0, 38, 117
2, 498295, Note_on_c, 0, 38, 0
2, 498295, Note_on_c, 0, 50, 0
2, 498420, Note_on_c, 0, 50, 117
2, 498420, Note_on_c, 0, 38, 117
2, 498475, Note_on_c, 0, 38, 0
2, 498475, Note_on_c, 0, 50, 0
2, 498475, Note_on_c, 0, 62, 0
2, 498475, Note_on_c, 0, 74, 0
2, 498480, Note_on_c, 0, 76, 117
2, 498480, Note_on_c, 0, 64, 117
2, 498480, Note_on_c, 0, 50, 117
2, 498480, Note_on_c, 0, 38, 117
2, 498535, Note_on_c, 0, 38, 0
2, 498535, Note_on_c, 0, 50, 0
2, 498535, Note_on_c, 0, 76, 0
2, 498535, Note_on_c, 0, 64, 0
2, 498540, Note_on_c, 0, 78, 117
2, 498540, Note_on_c, 0, 66, 117
2, 498595, Note_on_c, 0, 66, 0
2, 498595, Note_on_c, 0, 78, 0
2, 498600, Note_on_c, 0, 79, 117
2, 498600, Note_on_c, 0, 67, 117
2, 498600, Note_on_c, 0, 62, 117
2, 498600, Note_on_c, 0, 50, 117
2, 498655, Note_on_c, 0, 50, 0
2, 498655, Note_on_c, 0, 62, 0
2, 498655, Note_on_c, 0, 79, 0
2, 498655, Note_on_c, 0, 67, 0
2, 498780, Note_on_c, 0, 50, 117
2, 498780, Note_on_c, 0, 38, 117
2, 498835, Note_on_c, 0, 38, 0
2, 498835, Note_on_c, 0, 50, 0
2, 498840, Note_on_c, 0, 78, 117
2, 498840, Note_on_c, 0, 66, 117
2, 498840, Note_on_c, 0, 50, 117
2, 498840, Note_on_c, 0, 38, 117
2, 498895, Note_on_c, 0, 38, 0
2, 498895, Note_on_c, 0, 66, 0
2, 498895, Note_on_c, 0, 78, 0
2, 498900, Note_on_c, 0, 50, 0
2, 498960, Note_on_c, 0, 76, 117
2, 498960, Note_on_c, 0, 64, 117
2, 498960, Note_on_c, 0, 62, 117
2, 498960, Note_on_c, 0, 50, 117
2, 499015, Note_on_c, 0, 50, 0
2, 499015, Note_on_c, 0, 62, 0
2, 499015, Note_on_c, 0, 76, 0
2, 499015, Note_on_c, 0, 64, 0
2, 499140, Note_on_c, 0, 50, 117
2, 499140, Note_on_c, 0, 38, 117
2, 499195, Note_on_c, 0, 38, 0
2, 499195, Note_on_c, 0, 50, 0
2, 499200, Note_on_c, 0, 74, 117
2, 499200, Note_on_c, 0, 62, 117
2, 499200, Note_on_c, 0, 50, 117
2, 499200, Note_on_c, 0, 38, 117
2, 499255, Note_on_c, 0, 38, 0
2, 499255, Note_on_c, 0, 50, 0
2, 499255, Note_on_c, 0, 74, 0
2, 499255, Note_on_c, 0, 62, 0
2, 499320, Note_on_c, 0, 76, 117
2, 499320, Note_on_c, 0, 64, 117
2, 499320, Note_on_c, 0, 62, 117
2, 499320, Note_on_c, 0, 50, 117
2, 499375, Note_on_c, 0, 50, 0
2, 499375, Note_on_c, 0, 62, 0
2, 499375, Note_on_c, 0, 76, 0
2, 499375, Note_on_c, 0, 64, 0
2, 499500, Note_on_c, 0, 50, 117
2, 499500, Note_on_c, 0, 38, 117
2, 499555, Note_on_c, 0, 38, 0
2, 499555, Note_on_c, 0, 50, 0
2, 499560, Note_on_c, 0, 73, 117
2, 499560, Note_on_c, 0, 61, 117
2, 499560, Note_on_c, 0, 50, 117
2, 499560, Note_on_c, 0, 38, 117
2, 499615, Note_on_c, 0, 38, 0
2, 499615, Note_on_c, 0, 50, 0
2, 499615, Note_on_c, 0, 73, 0
2, 499615, Note_on_c, 0, 61, 0
2, 499680, Note_on_c, 0, 74, 117
2, 499680, Note_on_c, 0, 78, 117
2, 499680, Note_on_c, 0, 66, 117
2, 499680, Note_on_c, 0, 62, 117
2, 499680, Note_on_c, 0, 50, 117
2, 499735, Note_on_c, 0, 50, 0
2, 499735, Note_on_c, 0, 62, 0
2, 499860, Note_on_c, 0, 50, 117
2, 499860, Note_on_c, 0, 38, 117
2, 499915, Note_on_c, 0, 38, 0
2, 499915, Note_on_c, 0, 50, 0
2, 499915, Note_on_c, 0, 66, 0
2, 499915, Note_on_c, 0, 74, 0
2, 499915, Note_on_c, 0, 78, 0
2, 499920, Note_on_c, 0, 76, 117
2, 499920, Note_on_c, 0, 79, 117
2, 499920, Note_on_c, 0, 67, 117
2, 499920, Note_on_c, 0, 50, 117
2, 499920, Note_on_c, 0, 38, 117
2, 499975, Note_on_c, 0, 38, 0
2, 499975, Note_on_c, 0, 50, 0
2, 499975, Note_on_c, 0, 67, 0
2, 499975, Note_on_c, 0, 76, 0
2, 499975, Note_on_c, 0, 79, 0
2, 499980, Note_on_c, 0, 77, 117
2, 499980, Note_on_c, 0, 81, 117
2, 499980, Note_on_c, 0, 69, 117
2, 500035, Note_on_c, 0, 69, 0
2, 500035, Note_on_c, 0, 77, 0
2, 500035, Note_on_c, 0, 81, 0
2, 500040, Note_on_c, 0, 79, 117
2, 500040, Note_on_c, 0, 83, 117
2, 500040, Note_on_c, 0, 71, 117
2, 500040, Note_on_c, 0, 62, 117
2, 500040, Note_on_c, 0, 50, 117
2, 500095, Note_on_c, 0, 50, 0
2, 500095, Note_on_c, 0, 62, 0
2, 500095, Note_on_c, 0, 71, 0
2, 500095, Note_on_c, 0, 79, 0
2, 500095, Note_on_c, 0, 83, 0
2, 500220, Note_on_c, 0, 50, 117
2, 500220, Note_on_c, 0, 38, 117
2, 500275, Note_on_c, 0, 38, 0
2, 500275, Note_on_c, 0, 50, 0
2, 500280, Note_on_c, 0, 78, 117
2, 500280, Note_on_c, 0, 81, 117
2, 500280, Note_on_c, 0, 69, 117
2, 500280, Note_on_c, 0, 50, 117
2, 500280, Note_on_c, 0, 38, 117
2, 500335, Note_on_c, 0, 38, 0
2, 500335, Note_on_c, 0, 50, 0
2, 500335, Note_on_c, 0, 69, 0
2, 500335, Note_on_c, 0, 78, 0
2, 500335, Note_on_c, 0, 81, 0
2, 500400, Note_on_c, 0, 76, 117
2, 500400, Note_on_c, 0, 79, 117
2, 500400, Note_on_c, 0, 67, 117
2, 500400, Note_on_c, 0, 62, 117
2, 500400, Note_on_c, 0, 50, 117
2, 500455, Note_on_c, 0, 50, 0
2, 500455, Note_on_c, 0, 62, 0
2, 500455, Note_on_c, 0, 67, 0
2, 500455, Note_on_c, 0, 76, 0
2, 500455, Note_on_c, 0, 79, 0
2, 500580, Note_on_c, 0, 50, 117
2, 500580, Note_on_c, 0, 38, 117
2, 500635, Note_on_c, 0, 38, 0
2, 500635, Note_on_c, 0, 50, 0
2, 500640, Note_on_c, 0, 74, 117
2, 500640, Note_on_c, 0, 78, 117
2, 500640, Note_on_c, 0, 66, 117
2, 500640, Note_on_c, 0, 50, 117
2, 500640, Note_on_c, 0, 38, 117
2, 500695, Note_on_c, 0, 38, 0
2, 500695, Note_on_c, 0, 50, 0
2, 500695, Note_on_c, 0, 66, 0
2, 500695, Note_on_c, 0, 74, 0
2, 500695, Note_on_c, 0, 78, 0
2, 500760, Note_on_c, 0, 76, 117
2, 500760, Note_on_c, 0, 79, 117
2, 500760, Note_on_c, 0, 67, 117
2, 500760, Note_on_c, 0, 62, 117
2, 500760, Note_on_c, 0, 50, 117
2, 500815, Note_on_c, 0, 50, 0
2, 500815, Note_on_c, 0, 62, 0
2, 500815, Note_on_c, 0, 67, 0
2, 500815, Note_on_c, 0, 76, 0
2, 500815, Note_on_c, 0, 79, 0
2, 500940, Note_on_c, 0, 50, 117
2, 500940, Note_on_c, 0, 38, 117
2, 500995, Note_on_c, 0, 38, 0
2, 500995, Note_on_c, 0, 50, 0
2, 501000, Note_on_c, 0, 73, 117
2, 501000, Note_on_c, 0, 76, 117
2, 501000, Note_on_c, 0, 64, 117
2, 501000, Note_on_c, 0, 50, 117
2, 501000, Note_on_c, 0, 38, 117
2, 501055, Note_on_c, 0, 38, 0
2, 501055, Note_on_c, 0, 50, 0
2, 501055, Note_on_c, 0, 64, 0
2, 501055, Note_on_c, 0, 73, 0
2, 501055, Note_on_c, 0, 76, 0
2, 501120, Note_on_c, 0, 86, 117
2, 501120, Note_on_c, 0, 74, 117
2, 501120, Note_on_c, 0, 62, 117
2, 501120, Note_on_c, 0, 50, 117
2, 501175, Note_on_c, 0, 50, 0
2, 501175, Note_on_c, 0, 62, 0
2, 501175, Note_on_c, 0, 86, 0
2, 501175, Note_on_c, 0, 74, 0
2, 501240, Note_on_c, 0, 77, 117
2, 501240, Note_on_c, 0, 86, 117
2, 501240, Note_on_c, 0, 74, 117
2, 501295, Note_on_c, 0, 74, 0
2, 501295, Note_on_c, 0, 77, 0
2, 501295, Note_on_c, 0, 86, 0
2, 501300, Note_on_c, 0, 50, 117
2, 501300, Note_on_c, 0, 38, 117
2, 501355, Note_on_c, 0, 38, 0
2, 501355, Note_on_c, 0, 50, 0
2, 501360, Note_on_c, 0, 79, 117
2, 501360, Note_on_c, 0, 88, 117
2, 501360, Note_on_c, 0, 76, 117
2, 501360, Note_on_c, 0, 50, 117
2, 501360, Note_on_c, 0, 38, 117
2, 501415, Note_on_c, 0, 38, 0
2, 501415, Note_on_c, 0, 50, 0
2, 501415, Note_on_c, 0, 76, 0
2, 501415, Note_on_c, 0, 79, 0
2, 501415, Note_on_c, 0, 88, 0
2, 501420, Note_on_c, 0, 81, 117
2, 501420, Note_on_c, 0, 89, 117
2, 501420, Note_on_c, 0, 77, 117
2, 501475, Note_on_c, 0, 81, 0
2, 501475, Note_on_c, 0, 77, 0
2, 501475, Note_on_c, 0, 89, 0
2, 501480, Note_on_c, 0, 82, 117
2, 501480, Note_on_c, 0, 91, 117
2, 501480, Note_on_c, 0, 79, 117
2, 501480, Note_on_c, 0, 62, 117
2, 501480, Note_on_c, 0, 50, 117
2, 501535, Note_on_c, 0, 50, 0
2, 501535, Note_on_c, 0, 62, 0
2, 501535, Note_on_c, 0, 79, 0
2, 501535, Note_on_c, 0, 82, 0
2, 501535, Note_on_c, 0, 91, 0
2, 501600, Note_on_c, 0, 82, 117
2, 501600, Note_on_c, 0, 91, 117
2, 501600, Note_on_c, 0, 79, 117
2, 501655, Note_on_c, 0, 79, 0
2, 501655, Note_on_c, 0, 82, 0
2, 501655, Note_on_c, 0, 91, 0
2, 501660, Note_on_c, 0, 50, 117
2, 501660, Note_on_c, 0, 38, 117
2, 501715, Note_on_c, 0, 38, 0
2, 501715, Note_on_c, 0, 50, 0
2, 501720, Note_on_c, 0, 81, 117
2, 501720, Note_on_c, 0, 89, 117
2, 501720, Note_on_c, 0, 77, 117
2, 501720, Note_on_c, 0, 50, 117
2, 501720, Note_on_c, 0, 38, 117
2, 501775, Note_on_c, 0, 38, 0
2, 501775, Note_on_c, 0, 77, 0
2, 501775, Note_on_c, 0, 50, 0
2, 501775, Note_on_c, 0, 81, 0
2, 501775, Note_on_c, 0, 89, 0
2, 501840, Note_on_c, 0, 79, 117
2, 501840, Note_on_c, 0, 88, 117
2, 501840, Note_on_c, 0, 76, 117
2, 501840, Note_on_c, 0, 62, 117
2, 501840, Note_on_c, 0, 50, 117
2, 501895, Note_on_c, 0, 50, 0
2, 501895, Note_on_c, 0, 62, 0
2, 501895, Note_on_c, 0, 76, 0
2, 501895, Note_on_c, 0, 79, 0
2, 501895, Note_on_c, 0, 88, 0
2, 501960, Note_on_c, 0, 79, 117
2, 501960, Note_on_c, 0, 88, 117
2, 501960, Note_on_c, 0, 76, 117
2, 502015, Note_on_c, 0, 76, 0
2, 502015, Note_on_c, 0, 79, 0
2, 502015, Note_on_c, 0, 88, 0
2, 502020, Note_on_c, 0, 50, 117
2, 502020, Note_on_c, 0, 38, 117
2, 502075, Note_on_c, 0, 38, 0
2, 502075, Note_on_c, 0, 50, 0
2, 502080, Note_on_c, 0, 77, 117
2, 502080, Note_on_c, 0, 86, 117
2, 502080, Note_on_c, 0, 74, 117
2, 502080, Note_on_c, 0, 50, 117
2, 502080, Note_on_c, 0, 38, 117
2, 502135, Note_on_c, 0, 38, 0
2, 502135, Note_on_c, 0, 50, 0
2, 502135, Note_on_c, 0, 74, 0
2, 502135, Note_on_c, 0, 77, 0
2, 502135, Note_on_c, 0, 86, 0
2, 502200, Note_on_c, 0, 79, 117
2, 502200, Note_on_c, 0, 88, 117
2, 502200, Note_on_c, 0, 76, 117
2, 502200, Note_on_c, 0, 62, 117
2, 502200, Note_on_c, 0, 50, 117
2, 502255, Note_on_c, 0, 50, 0
2, 502255, Note_on_c, 0, 62, 0
2, 502255, Note_on_c, 0, 76, 0
2, 502255, Note_on_c, 0, 79, 0
2, 502255, Note_on_c, 0, 88, 0
2, 502320, Note_on_c, 0, 79, 117
2, 502320, Note_on_c, 0, 88, 117
2, 502320, Note_on_c, 0, 76, 117
2, 502375, Note_on_c, 0, 76, 0
2, 502375, Note_on_c, 0, 79, 0
2, 502375, Note_on_c, 0, 88, 0
2, 502380, Note_on_c, 0, 50, 117
2, 502380, Note_on_c, 0, 38, 117
2, 502435, Note_on_c, 0, 38, 0
2, 502435, Note_on_c, 0, 50, 0
2, 502440, Note_on_c, 0, 76, 117
2, 502440, Note_on_c, 0, 85, 117
2, 502440, Note_on_c, 0, 73, 117
2, 502440, Note_on_c, 0, 50, 117
2, 502440, Note_on_c, 0, 38, 117
2, 502495, Note_on_c, 0, 38, 0
2, 502495, Note_on_c, 0, 50, 0
2, 502495, Note_on_c, 0, 73, 0
2, 502495, Note_on_c, 0, 76, 0
2, 502495, Note_on_c, 0, 85, 0
2, 502560, Note_on_c, 0, 86, 117
2, 502560, Note_on_c, 0, 89, 117
2, 502560, Note_on_c, 0, 77, 117
2, 502560, Note_on_c, 0, 62, 117
2, 502560, Note_on_c, 0, 50, 117
2, 502615, Note_on_c, 0, 50, 0
2, 502615, Note_on_c, 0, 77, 0
2, 502615, Note_on_c, 0, 62, 0
2, 502615, Note_on_c, 0, 86, 0
2, 502615, Note_on_c, 0, 89, 0
2, 502680, Note_on_c, 0, 86, 117
2, 502680, Note_on_c, 0, 89, 117
2, 502680, Note_on_c, 0, 77, 117
2, 502735, Note_on_c, 0, 86, 0
2, 502735, Note_on_c, 0, 77, 0
2, 502735, Note_on_c, 0, 89, 0
2, 502740, Note_on_c, 0, 50, 117
2, 502740, Note_on_c, 0, 38, 117
2, 502795, Note_on_c, 0, 38, 0
2, 502795, Note_on_c, 0, 50, 0
2, 502800, Note_on_c, 0, 88, 117
2, 502800, Note_on_c, 0, 91, 117
2, 502800, Note_on_c, 0, 79, 117
2, 502800, Note_on_c, 0, 50, 117
2, 502800, Note_on_c, 0, 38, 117
2, 502855, Note_on_c, 0, 38, 0
2, 502855, Note_on_c, 0, 50, 0
2, 502855, Note_on_c, 0, 79, 0
2, 502855, Note_on_c, 0, 88, 0
2, 502855, Note_on_c, 0, 91, 0
2, 502860, Note_on_c, 0, 89, 117
2, 502860, Note_on_c, 0, 93, 117
2, 502860, Note_on_c, 0, 81, 117
2, 502915, Note_on_c, 0, 81, 0
2, 502915, Note_on_c, 0, 89, 0
2, 502915, Note_on_c, 0, 93, 0
2, 502920, Note_on_c, 0, 91, 117
2, 502920, Note_on_c, 0, 94, 117
2, 502920, Note_on_c, 0, 82, 117
2, 502920, Note_on_c, 0, 62, 117
2, 502920, Note_on_c, 0, 50, 117
2, 502975, Note_on_c, 0, 50, 0
2, 502975, Note_on_c, 0, 62, 0
2, 502975, Note_on_c, 0, 82, 0
2, 502975, Note_on_c, 0, 91, 0
2, 502975, Note_on_c, 0, 94, 0
2, 503040, Note_on_c, 0, 91, 117
2, 503040, Note_on_c, 0, 94, 117
2, 503040, Note_on_c, 0, 82, 117
2, 503095, Note_on_c, 0, 82, 0
2, 503095, Note_on_c, 0, 91, 0
2, 503095, Note_on_c, 0, 94, 0
2, 503100, Note_on_c, 0, 50, 117
2, 503100, Note_on_c, 0, 38, 117
2, 503155, Note_on_c, 0, 38, 0
2, 503155, Note_on_c, 0, 50, 0
2, 503160, Note_on_c, 0, 89, 117
2, 503160, Note_on_c, 0, 93, 117
2, 503160, Note_on_c, 0, 81, 117
2, 503160, Note_on_c, 0, 50, 117
2, 503160, Note_on_c, 0, 38, 117
2, 503215, Note_on_c, 0, 38, 0
2, 503215, Note_on_c, 0, 50, 0
2, 503215, Note_on_c, 0, 81, 0
2, 503215, Note_on_c, 0, 89, 0
2, 503215, Note_on_c, 0, 93, 0
2, 503280, Note_on_c, 0, 88, 117
2, 503280, Note_on_c, 0, 91, 117
2, 503280, Note_on_c, 0, 79, 117
2, 503280, Note_on_c, 0, 62, 117
2, 503280, Note_on_c, 0, 50, 117
2, 503335, Note_on_c, 0, 50, 0
2, 503335, Note_on_c, 0, 62, 0
2, 503335, Note_on_c, 0, 79, 0
2, 503335, Note_on_c, 0, 88, 0
2, 503335, Note_on_c, 0, 91, 0
2, 503400, Note_on_c, 0, 88, 117
2, 503400, Note_on_c, 0, 91, 117
2, 503400, Note_on_c, 0, 79, 117
2, 503455, Note_on_c, 0, 79, 0
2, 503455, Note_on_c, 0, 88, 0
2, 503455, Note_on_c, 0, 91, 0
2, 503460, Note_on_c, 0, 50, 117
2, 503460, Note_on_c, 0, 38, 117
2, 503515, Note_on_c, 0, 38, 0
2, 503515, Note_on_c, 0, 50, 0
2, 503520, Note_on_c, 0, 86, 117
2, 503520, Note_on_c, 0, 89, 117
2, 503520, Note_on_c, 0, 77, 117
2, 503520, Note_on_c, 0, 50, 117
2, 503520, Note_on_c, 0, 38, 117
2, 503575, Note_on_c, 0, 38, 0
2, 503575, Note_on_c, 0, 89, 0
2, 503575, Note_on_c, 0, 50, 0
2, 503575, Note_on_c, 0, 86, 0
2, 503575, Note_on_c, 0, 77, 0
2, 503640, Note_on_c, 0, 88, 117
2, 503640, Note_on_c, 0, 91, 117
2, 503640, Note_on_c, 0, 79, 117
2, 503640, Note_on_c, 0, 62, 117
2, 503640, Note_on_c, 0, 50, 117
2, 503695, Note_on_c, 0, 50, 0
2, 503695, Note_on_c, 0, 62, 0
2, 503695, Note_on_c, 0, 79, 0
2, 503695, Note_on_c, 0, 88, 0
2, 503695, Note_on_c, 0, 91, 0
2, 503760, Note_on_c, 0, 88, 117
2, 503760, Note_on_c, 0, 91, 117
2, 503760, Note_on_c, 0, 79, 117
2, 503815, Note_on_c, 0, 79, 0
2, 503815, Note_on_c, 0, 88, 0
2, 503815, Note_on_c, 0, 91, 0
2, 503820, Note_on_c, 0, 50, 117
2, 503820, Note_on_c, 0, 38, 117
2, 503875, Note_on_c, 0, 38, 0
2, 503875, Note_on_c, 0, 50, 0
2, 503880, Note_on_c, 0, 85, 117
2, 503880, Note_on_c, 0, 88, 117
2, 503880, Note_on_c, 0, 76, 117
2, 503880, Note_on_c, 0, 50, 117
2, 503880, Note_on_c, 0, 38, 117
2, 503935, Note_on_c, 0, 38, 0
2, 503935, Note_on_c, 0, 50, 0
2, 503935, Note_on_c, 0, 76, 0
2, 503935, Note_on_c, 0, 85, 0
2, 503935, Note_on_c, 0, 88, 0
2, 504000, Note_on_c, 0, 86, 117
2, 504000, Note_on_c, 0, 89, 117
2, 504000, Note_on_c, 0, 77, 117
2, 504000, Note_on_c, 0, 62, 117
2, 504000, Note_on_c, 0, 50, 117
2, 504055, Note_on_c, 0, 50, 0
2, 504055, Note_on_c, 0, 89, 0
2, 504055, Note_on_c, 0, 62, 0
2, 504055, Note_on_c, 0, 86, 0
2, 504055, Note_on_c, 0, 77, 0
2, 504180, Note_on_c, 0, 77, 117
2, 504180, Note_on_c, 0, 65, 117
2, 504180, Note_on_c, 0, 50, 117
2, 504180, Note_on_c, 0, 38, 117
2, 504235, Note_on_c, 0, 38, 0
2, 504235, Note_on_c, 0, 50, 0
2, 504235, Note_on_c, 0, 77, 0
2, 504235, Note_on_c, 0, 65, 0
2, 504240, Note_on_c, 0, 77, 117
2, 504240, Note_on_c, 0, 65, 117
2, 504240, Note_on_c, 0, 50, 117
2, 504240, Note_on_c, 0, 38, 117
2, 504295, Note_on_c, 0, 38, 0
2, 504295, Note_on_c, 0, 50, 0
2, 504295, Note_on_c, 0, 77, 0
2, 504295, Note_on_c, 0, 65, 0
2, 504360, Note_on_c, 0, 89, 117
2, 504360, Note_on_c, 0, 77, 117
2, 504360, Note_on_c, 0, 62, 117
2, 504360, Note_on_c, 0, 50, 117
2, 504415, Note_on_c, 0, 50, 0
2, 504415, Note_on_c, 0, 62, 0
2, 504415, Note_on_c, 0, 89, 0
2, 504415, Note_on_c, 0, 77, 0
2, 504480, Note_on_c, 0, 91, 117
2, 504480, Note_on_c, 0, 79, 117
2, 504480, Note_on_c, 0, 64, 117
2, 504480, Note_on_c, 0, 52, 117
2, 504535, Note_on_c, 0, 52, 0
2, 504535, Note_on_c, 0, 64, 0
2, 504535, Note_on_c, 0, 91, 0
2, 504535, Note_on_c, 0, 79, 0
2, 504600, Note_on_c, 0, 93, 117
2, 504600, Note_on_c, 0, 81, 117
2, 504600, Note_on_c, 0, 65, 117
2, 504600, Note_on_c, 0, 53, 117
2, 504655, Note_on_c, 0, 65, 0
2, 504655, Note_on_c, 0, 53, 0
2, 504655, Note_on_c, 0, 93, 0
2, 504655, Note_on_c, 0, 81, 0
2, 504720, Note_on_c, 0, 94, 117
2, 504720, Note_on_c, 0, 82, 117
2, 504720, Note_on_c, 0, 67, 117
2, 504720, Note_on_c, 0, 55, 117
2, 504775, Note_on_c, 0, 55, 0
2, 504775, Note_on_c, 0, 67, 0
2, 504775, Note_on_c, 0, 94, 0
2, 504775, Note_on_c, 0, 82, 0
2, 504900, Note_on_c, 0, 46, 117
2, 504900, Note_on_c, 0, 43, 117
2, 504955, Note_on_c, 0, 43, 0
2, 504955, Note_on_c, 0, 46, 0
2, 504960, Note_on_c, 0, 46, 117
2, 504960, Note_on_c, 0, 43, 117
2, 505015, Note_on_c, 0, 43, 0
2, 505015, Note_on_c, 0, 46, 0
2, 505080, Note_on_c, 0, 82, 117
2, 505080, Note_on_c, 0, 70, 117
2, 505080, Note_on_c, 0, 58, 117
2, 505080, Note_on_c, 0, 55, 117
2, 505135, Note_on_c, 0, 55, 0
2, 505135, Note_on_c, 0, 58, 0
2, 505135, Note_on_c, 0, 82, 0
2, 505135, Note_on_c, 0, 70, 0
2, 505200, Note_on_c, 0, 84, 117
2, 505200, Note_on_c, 0, 72, 117
2, 505200, Note_on_c, 0, 55, 117
2, 505200, Note_on_c, 0, 52, 117
2, 505255, Note_on_c, 0, 52, 0
2, 505255, Note_on_c, 0, 55, 0
2, 505255, Note_on_c, 0, 84, 0
2, 505255, Note_on_c, 0, 72, 0
2, 505320, Note_on_c, 0, 86, 117
2, 505320, Note_on_c, 0, 74, 117
2, 505320, Note_on_c, 0, 53, 117
2, 505320, Note_on_c, 0, 50, 117
2, 505375, Note_on_c, 0, 50, 0
2, 505375, Note_on_c, 0, 74, 0
2, 505375, Note_on_c, 0, 53, 0
2, 505375, Note_on_c, 0, 86, 0
2, 505440, Note_on_c, 0, 88, 117
2, 505440, Note_on_c, 0, 76, 117
2, 505440, Note_on_c, 0, 52, 117
2, 505440, Note_on_c, 0, 60, 117
2, 505440, Note_on_c, 0, 48, 117
2, 505495, Note_on_c, 0, 48, 0
2, 505495, Note_on_c, 0, 60, 0
2, 505495, Note_on_c, 0, 52, 0
2, 505495, Note_on_c, 0, 88, 0
2, 505495, Note_on_c, 0, 76, 0
2, 505620, Note_on_c, 0, 76, 117
2, 505620, Note_on_c, 0, 64, 117
2, 505620, Note_on_c, 0, 48, 117
2, 505620, Note_on_c, 0, 36, 117
2, 505675, Note_on_c, 0, 36, 0
2, 505675, Note_on_c, 0, 48, 0
2, 505675, Note_on_c, 0, 76, 0
2, 505675, Note_on_c, 0, 64, 0
2, 505680, Note_on_c, 0, 76, 117
2, 505680, Note_on_c, 0, 64, 117
2, 505680, Note_on_c, 0, 48, 117
2, 505680, Note_on_c, 0, 36, 117
2, 505735, Note_on_c, 0, 36, 0
2, 505735, Note_on_c, 0, 48, 0
2, 505735, Note_on_c, 0, 76, 0
2, 505735, Note_on_c, 0, 64, 0
2, 505800, Note_on_c, 0, 88, 117
2, 505800, Note_on_c, 0, 76, 117
2, 505800, Note_on_c, 0, 60, 117
2, 505800, Note_on_c, 0, 48, 117
2, 505855, Note_on_c, 0, 48, 0
2, 505855, Note_on_c, 0, 60, 0
2, 505855, Note_on_c, 0, 88, 0
2, 505855, Note_on_c, 0, 76, 0
2, 505920, Note_on_c, 0, 89, 117
2, 505920, Note_on_c, 0, 77, 117
2, 505920, Note_on_c, 0, 62, 117
2, 505920, Note_on_c, 0, 50, 117
2, 505975, Note_on_c, 0, 50, 0
2, 505975, Note_on_c, 0, 62, 0
2, 505975, Note_on_c, 0, 77, 0
2, 505975, Note_on_c, 0, 89, 0
2, 506040, Note_on_c, 0, 91, 117
2, 506040, Note_on_c, 0, 79, 117
2, 506040, Note_on_c, 0, 64, 117
2, 506040, Note_on_c, 0, 52, 117
2, 506095, Note_on_c, 0, 52, 0
2, 506095, Note_on_c, 0, 64, 0
2, 506095, Note_on_c, 0, 91, 0
2, 506095, Note_on_c, 0, 79, 0
2, 506160, Note_on_c, 0, 93, 117
2, 506160, Note_on_c, 0, 81, 117
2, 506160, Note_on_c, 0, 65, 117
2, 506160, Note_on_c, 0, 53, 117
2, 506215, Note_on_c, 0, 65, 0
2, 506215, Note_on_c, 0, 53, 0
2, 506215, Note_on_c, 0, 93, 0
2, 506215, Note_on_c, 0, 81, 0
2, 506340, Note_on_c, 0, 45, 117
2, 506340, Note_on_c, 0, 41, 117
2, 506395, Note_on_c, 0, 41, 0
2, 506395, Note_on_c, 0, 45, 0
2, 506400, Note_on_c, 0, 45, 117
2, 506400, Note_on_c, 0, 41, 117
2, 506455, Note_on_c, 0, 41, 0
2, 506455, Note_on_c, 0, 45, 0
2, 506520, Note_on_c, 0, 69, 117
2, 506520, Note_on_c, 0, 57, 117
2, 506520, Note_on_c, 0, 53, 117
2, 506575, Note_on_c, 0, 57, 0
2, 506575, Note_on_c, 0, 53, 0
2, 506575, Note_on_c, 0, 69, 0
2, 506640, Note_on_c, 0, 65, 117
2, 506640, Note_on_c, 0, 57, 117
2, 506640, Note_on_c, 0, 50, 117
2, 506695, Note_on_c, 0, 50, 0
2, 506695, Note_on_c, 0, 65, 0
2, 506695, Note_on_c, 0, 57, 0
2, 506760, Note_on_c, 0, 64, 117
2, 506760, Note_on_c, 0, 57, 117
2, 506760, Note_on_c, 0, 48, 117
2, 506815, Note_on_c, 0, 48, 0
2, 506815, Note_on_c, 0, 64, 0
2, 506815, Note_on_c, 0, 57, 0
2, 506880, Note_on_c, 0, 57, 53
2, 506880, Note_on_c, 0, 74, 53
2, 506880, Note_on_c, 0, 48, 53
2, 506880, Note_on_c, 0, 62, 53
2, 506880, Note_on_c, 0, 50, 53
2, 506995, Note_on_c, 0, 50, 0
2, 506995, Note_on_c, 0, 62, 0
2, 507000, Note_on_c, 0, 64, 53
2, 507000, Note_on_c, 0, 52, 53
2, 507115, Note_on_c, 0, 52, 0
2, 507115, Note_on_c, 0, 64, 0
2, 507120, Note_on_c, 0, 66, 53
2, 507120, Note_on_c, 0, 54, 53
2, 507235, Note_on_c, 0, 54, 0
2, 507235, Note_on_c, 0, 66, 0
2, 507235, Note_on_c, 0, 48, 0
2, 507235, Note_on_c, 0, 57, 0
2, 507240, Note_on_c, 0, 55, 53
2, 507240, Note_on_c, 0, 67, 53
2, 507240, Note_on_c, 0, 46, 53
2, 507355, Note_on_c, 0, 74, 0
2, 507360, Note_on_c, 0, 76, 53
2, 507475, Note_on_c, 0, 76, 0
2, 507480, Note_on_c, 0, 78, 53
2, 507595, Note_on_c, 0, 78, 0
2, 507600, Note_on_c, 0, 79, 74
2, 507715, Note_on_c, 0, 46, 0
2, 507715, Note_on_c, 0, 67, 0
2, 507715, Note_on_c, 0, 55, 0
2, 507720, Note_on_c, 0, 53, 67
2, 507720, Note_on_c, 0, 65, 67
2, 507835, Note_on_c, 0, 65, 0
2, 507835, Note_on_c, 0, 53, 0
2, 507840, Note_on_c, 0, 51, 74
2, 507840, Note_on_c, 0, 63, 74
2, 507955, Note_on_c, 0, 63, 0
2, 507955, Note_on_c, 0, 79, 0
2, 507955, Note_on_c, 0, 51, 0
2, 507960, Note_on_c, 0, 75, 96
2, 507960, Note_on_c, 0, 79, 96
2, 507960, Note_on_c, 0, 67, 96
2, 507960, Note_on_c, 0, 58, 81
2, 507960, Note_on_c, 0, 46, 81
2, 508075, Note_on_c, 0, 46, 0
2, 508075, Note_on_c, 0, 58, 0
2, 508080, Note_on_c, 0, 56, 89
2, 508080, Note_on_c, 0, 44, 89
2, 508195, Note_on_c, 0, 44, 0
2, 508195, Note_on_c, 0, 56, 0
2, 508200, Note_on_c, 0, 55, 96
2, 508200, Note_on_c, 0, 43, 96
2, 508315, Note_on_c, 0, 43, 0
2, 508315, Note_on_c, 0, 55, 0
2, 508315, Note_on_c, 0, 67, 0
2, 508315, Note_on_c, 0, 75, 0
2, 508315, Note_on_c, 0, 79, 0
2, 508320, Note_on_c, 0, 76, 103
2, 508320, Note_on_c, 0, 79, 103
2, 508320, Note_on_c, 0, 70, 103
2, 508320, Note_on_c, 0, 55, 117
2, 508320, Note_on_c, 0, 43, 117
2, 508435, Note_on_c, 0, 70, 0
2, 508435, Note_on_c, 0, 76, 0
2, 508440, Note_on_c, 0, 77, 110
2, 508440, Note_on_c, 0, 69, 110
2, 508555, Note_on_c, 0, 69, 0
2, 508555, Note_on_c, 0, 77, 0
2, 508555, Note_on_c, 0, 79, 0
2, 508560, Note_on_c, 0, 79, 117
2, 508560, Note_on_c, 0, 70, 117
2, 508675, Note_on_c, 0, 43, 0
2, 508675, Note_on_c, 0, 55, 0
2, 508680, Note_on_c, 0, 76, 96
2, 508680, Note_on_c, 0, 57, 67
2, 508680, Note_on_c, 0, 45, 67
2, 508795, Note_on_c, 0, 76, 0
2, 508795, Note_on_c, 0, 70, 0
2, 508795, Note_on_c, 0, 79, 0
2, 508800, Note_on_c, 0, 74, 74
2, 508800, Note_on_c, 0, 77, 74
2, 508800, Note_on_c, 0, 69, 74
2, 508915, Note_on_c, 0, 69, 0
2, 508915, Note_on_c, 0, 74, 0
2, 508915, Note_on_c, 0, 77, 0
2, 508920, Note_on_c, 0, 73, 53
2, 508920, Note_on_c, 0, 76, 53
2, 508920, Note_on_c, 0, 67, 53
2, 509035, Note_on_c, 0, 67, 0
2, 509035, Note_on_c, 0, 76, 0
2, 509035, Note_on_c, 0, 73, 0
2, 509035, Note_on_c, 0, 57, 0
2, 509035, Note_on_c, 0, 45, 0
2, 509040, Note_on_c, 0, 46, 57
2, 509040, Note_on_c, 0, 55, 53
2, 509040, Note_on_c, 0, 87, 69
2, 509040, Note_on_c, 0, 91, 69
2, 509040, Note_on_c, 0, 79, 69
2, 509040, Note_on_c, 0, 55, 58
2, 509040, Note_on_c, 0, 58, 58
2, 509040, Note_on_c, 0, 67, 58
2, 509040, Note_on_c, 0, 46, 58
2, 509160, Note_on_c, 0, 65, 64
2, 509275, Note_on_c, 0, 65, 0
2, 509280, Note_on_c, 0, 63, 69
2, 509395, Note_on_c, 0, 63, 0
2, 509395, Note_on_c, 0, 67, 0
2, 509395, Note_on_c, 0, 55, 0
2, 509395, Note_on_c, 0, 79, 0
2, 509395, Note_on_c, 0, 87, 0
2, 509395, Note_on_c, 0, 91, 0
2, 509395, Note_on_c, 0, 46, 0
2, 509395, Note_on_c, 0, 55, 0
2, 509395, Note_on_c, 0, 46, 0
2, 509400, Note_on_c, 0, 87, 85
2, 509400, Note_on_c, 0, 91, 85
2, 509400, Note_on_c, 0, 79, 85
2, 509400, Note_on_c, 0, 67, 74
2, 509515, Note_on_c, 0, 67, 0
2, 509515, Note_on_c, 0, 58, 0
2, 509520, Note_on_c, 0, 65, 80
2, 509520, Note_on_c, 0, 56, 80
2, 509635, Note_on_c, 0, 56, 0
2, 509635, Note_on_c, 0, 65, 0
2, 509640, Note_on_c, 0, 63, 85
2, 509640, Note_on_c, 0, 55, 85
2, 509755, Note_on_c, 0, 55, 0
2, 509755, Note_on_c, 0, 63, 0
2, 509755, Note_on_c, 0, 79, 0
2, 509755, Note_on_c, 0, 87, 0
2, 509755, Note_on_c, 0, 91, 0
2, 509760, Note_on_c, 0, 88, 101
2, 509760, Note_on_c, 0, 91, 101
2, 509760, Note_on_c, 0, 79, 101
2, 509760, Note_on_c, 0, 58, 90
2, 509760, Note_on_c, 0, 64, 90
2, 509760, Note_on_c, 0, 55, 90
2, 509875, Note_on_c, 0, 55, 0
2, 509875, Note_on_c, 0, 64, 0
2, 509875, Note_on_c, 0, 58, 0
2, 509880, Note_on_c, 0, 65, 96
2, 509880, Note_on_c, 0, 57, 96
2, 509995, Note_on_c, 0, 57, 0
2, 509995, Note_on_c, 0, 65, 0
2, 510000, Note_on_c, 0, 67, 101
2, 510000, Note_on_c, 0, 58, 101
2, 510115, Note_on_c, 0, 58, 0
2, 510115, Note_on_c, 0, 67, 0
2, 510120, Note_on_c, 0, 64, 106
2, 510120, Note_on_c, 0, 67, 106
2, 510120, Note_on_c, 0, 58, 106
2, 510235, Note_on_c, 0, 58, 0
2, 510235, Note_on_c, 0, 67, 0
2, 510235, Note_on_c, 0, 79, 0
2, 510235, Note_on_c, 0, 64, 0
2, 510235, Note_on_c, 0, 88, 0
2, 510235, Note_on_c, 0, 91, 0
2, 510240, Note_on_c, 0, 86, 112
2, 510240, Note_on_c, 0, 89, 112
2, 510240, Note_on_c, 0, 77, 112
2, 510240, Note_on_c, 0, 62, 112
2, 510240, Note_on_c, 0, 65, 112
2, 510240, Note_on_c, 0, 57, 112
2, 510355, Note_on_c, 0, 57, 0
2, 510355, Note_on_c, 0, 89, 0
2, 510355, Note_on_c, 0, 77, 0
2, 510355, Note_on_c, 0, 65, 0
2, 510355, Note_on_c, 0, 86, 0
2, 510355, Note_on_c, 0, 62, 0
2, 510360, Note_on_c, 0, 88, 117
2, 510360, Note_on_c, 0, 91, 117
2, 510360, Note_on_c, 0, 79, 117
2, 510360, Note_on_c, 0, 61, 117
2, 510360, Note_on_c, 0, 64, 117
2, 510360, Note_on_c, 0, 55, 117
2, 510475, Note_on_c, 0, 55, 0
2, 510475, Note_on_c, 0, 64, 0
2, 510475, Note_on_c, 0, 79, 0
2, 510475, Note_on_c, 0, 61, 0
2, 510475, Note_on_c, 0, 88, 0
2, 510475, Note_on_c, 0, 91, 0
2, 510480, Note_on_c, 0, 93, 117
2, 510480, Note_on_c, 0, 81, 117
2, 510480, Note_on_c, 0, 62, 117
2, 510480, Note_on_c, 0, 65, 117
2, 510480, Note_on_c, 0, 53, 117
2, 510540, Note_on_c, 0, 65, 0
2, 510540, Note_on_c, 0, 62, 0
2, 510540, Note_on_c, 0, 53, 0
2, 510540, Note_on_c, 0, 93, 0
2, 510540, Note_on_c, 0, 81, 0
2, 510600, Note_on_c, 0, 89, 71
2, 510600, Note_on_c, 0, 77, 71
2, 510600, Note_on_c, 0, 62, 71
2, 510600, Note_on_c, 0, 50, 71
2, 510660, Note_on_c, 0, 50, 0
2, 510660, Note_on_c, 0, 62, 0
2, 510660, Note_on_c, 0, 77, 0
2, 510660, Note_on_c, 0, 89, 0
2, 510720, Note_on_c, 0, 94, 71
2, 510720, Note_on_c, 0, 82, 71
2, 510720, Note_on_c, 0, 67, 71
2, 510720, Note_on_c, 0, 55, 71
2, 510780, Note_on_c, 0, 55, 0
2, 510780, Note_on_c, 0, 67, 0
2, 510780, Note_on_c, 0, 94, 0
2, 510780, Note_on_c, 0, 82, 0
2, 510840, Note_on_c, 0, 91, 117
2, 510840, Note_on_c, 0, 79, 117
2, 510840, Note_on_c, 0, 64, 117
2, 510840, Note_on_c, 0, 52, 117
2, 510900, Note_on_c, 0, 52, 0
2, 510900, Note_on_c, 0, 64, 0
2, 510900, Note_on_c, 0, 91, 0
2, 510900, Note_on_c, 0, 79, 0
2, 510960, Note_on_c, 0, 88, 71
2, 510960, Note_on_c, 0, 76, 71
2, 510960, Note_on_c, 0, 61, 71
2, 510960, Note_on_c, 0, 49, 71
2, 511020, Note_on_c, 0, 49, 0
2, 511020, Note_on_c, 0, 61, 0
2, 511020, Note_on_c, 0, 88, 0
2, 511020, Note_on_c, 0, 76, 0
2, 511080, Note_on_c, 0, 93, 71
2, 511080, Note_on_c, 0, 81, 71
2, 511080, Note_on_c, 0, 57, 71
2, 511080, Note_on_c, 0, 45, 71
2, 511140, Note_on_c, 0, 45, 0
2, 511140, Note_on_c, 0, 57, 0
2, 511140, Note_on_c, 0, 93, 0
2, 511140, Note_on_c, 0, 81, 0
2, 511200, Note_on_c, 0, 69, 117
2, 511200, Note_on_c, 0, 77, 117
2, 511200, Note_on_c, 0, 65, 117
2, 511200, Note_on_c, 0, 62, 117
2, 511200, Note_on_c, 0, 50, 117
2, 511260, Note_on_c, 0, 50, 0
2, 511260, Note_on_c, 0, 77, 0
2, 511260, Note_on_c, 0, 62, 0
2, 511260, Note_on_c, 0, 65, 0
2, 511260, Note_on_c, 0, 69, 0
2, 511320, Note_on_c, 0, 74, 71
2, 511320, Note_on_c, 0, 67, 71
2, 511320, Note_on_c, 0, 58, 71
2, 511320, Note_on_c, 0, 46, 71
2, 511380, Note_on_c, 0, 46, 0
2, 511380, Note_on_c, 0, 58, 0
2, 511380, Note_on_c, 0, 74, 0
2, 511380, Note_on_c, 0, 67, 0
2, 511440, Note_on_c, 0, 74, 71
2, 511440, Note_on_c, 0, 79, 71
2, 511440, Note_on_c, 0, 70, 71
2, 511440, Note_on_c, 0, 55, 71
2, 511440, Note_on_c, 0, 43, 71
2, 511500, Note_on_c, 0, 43, 0
2, 511500, Note_on_c, 0, 55, 0
2, 511500, Note_on_c, 0, 70, 0
2, 511500, Note_on_c, 0, 74, 0
2, 511500, Note_on_c, 0, 79, 0
2, 511560, Note_on_c, 0, 71, 117
2, 511560, Note_on_c, 0, 74, 117
2, 511560, Note_on_c, 0, 76, 117
2, 511560, Note_on_c, 0, 64, 117
2, 511560, Note_on_c, 0, 56, 117
2, 511560, Note_on_c, 0, 44, 117
2, 511620, Note_on_c, 0, 44, 0
2, 511620, Note_on_c, 0, 56, 0
2, 511620, Note_on_c, 0, 76, 0
2, 511620, Note_on_c, 0, 64, 0
2, 511620, Note_on_c, 0, 71, 0
2, 511620, Note_on_c, 0, 74, 0
2, 511680, Note_on_c, 0, 69, 71
2, 511680, Note_on_c, 0, 73, 71
2, 511680, Note_on_c, 0, 64, 71
2, 511680, Note_on_c, 0, 57, 71
2, 511680, Note_on_c, 0, 45, 71
2, 511740, Note_on_c, 0, 45, 0
2, 511740, Note_on_c, 0, 57, 0
2, 511740, Note_on_c, 0, 64, 0
2, 511740, Note_on_c, 0, 69, 0
2, 511740, Note_on_c, 0, 73, 0
2, 511800, Note_on_c, 0, 74, 71
2, 511800, Note_on_c, 0, 77, 71
2, 511800, Note_on_c, 0, 65, 71
2, 511800, Note_on_c, 0, 57, 71
2, 511800, Note_on_c, 0, 45, 71
2, 511860, Note_on_c, 0, 45, 0
2, 511860, Note_on_c, 0, 77, 0
2, 511860, Note_on_c, 0, 57, 0
2, 511860, Note_on_c, 0, 65, 0
2, 511860, Note_on_c, 0, 74, 0
2, 511920, Note_on_c, 0, 77, 117
2, 511920, Note_on_c, 0, 81, 117
2, 511920, Note_on_c, 0, 69, 117
2, 511920, Note_on_c, 0, 50, 117
2, 511920, Note_on_c, 0, 38, 117
2, 511980, Note_on_c, 0, 38, 0
2, 511980, Note_on_c, 0, 50, 0
2, 511980, Note_on_c, 0, 69, 0
2, 511980, Note_on_c, 0, 77, 0
2, 511980, Note_on_c, 0, 81, 0
2, 512040, Note_on_c, 0, 89, 71
2, 512040, Note_on_c, 0, 77, 71
2, 512040, Note_on_c, 0, 62, 71
2, 512040, Note_on_c, 0, 50, 71
2, 512100, Note_on_c, 0, 50, 0
2, 512100, Note_on_c, 0, 62, 0
2, 512100, Note_on_c, 0, 77, 0
2, 512100, Note_on_c, 0, 89, 0
2, 512160, Note_on_c, 0, 94, 71
2, 512160, Note_on_c, 0, 82, 71
2, 512160, Note_on_c, 0, 67, 71
2, 512160, Note_on_c, 0, 55, 71
2, 512220, Note_on_c, 0, 55, 0
2, 512220, Note_on_c, 0, 67, 0
2, 512220, Note_on_c, 0, 94, 0
2, 512220, Note_on_c, 0, 82, 0
2, 512280, Note_on_c, 0, 91, 117
2, 512280, Note_on_c, 0, 79, 117
2, 512280, Note_on_c, 0, 64, 117
2, 512280, Note_on_c, 0, 50, 117
2, 512340, Note_on_c, 0, 50, 0
2, 512340, Note_on_c, 0, 64, 0
2, 512340, Note_on_c, 0, 91, 0
2, 512340, Note_on_c, 0, 79, 0
2, 512400, Note_on_c, 0, 88, 71
2, 512400, Note_on_c, 0, 76, 71
2, 512400, Note_on_c, 0, 61, 71
2, 512400, Note_on_c, 0, 49, 71
2, 512460, Note_on_c, 0, 49, 0
2, 512460, Note_on_c, 0, 61, 0
2, 512460, Note_on_c, 0, 88, 0
2, 512460, Note_on_c, 0, 76, 0
2, 512520, Note_on_c, 0, 93, 71
2, 512520, Note_on_c, 0, 81, 71
2, 512520, Note_on_c, 0, 57, 71
2, 512520, Note_on_c, 0, 45, 71
2, 512580, Note_on_c, 0, 45, 0
2, 512580, Note_on_c, 0, 57, 0
2, 512580, Note_on_c, 0, 93, 0
2, 512580, Note_on_c, 0, 81, 0
2, 512640, Note_on_c, 0, 77, 117
2, 512640, Note_on_c, 0, 81, 117
2, 512640, Note_on_c, 0, 69, 117
2, 512640, Note_on_c, 0, 57, 117
2, 512640, Note_on_c, 0, 45, 117
2, 512700, Note_on_c, 0, 45, 0
2, 512700, Note_on_c, 0, 57, 0
2, 512700, Note_on_c, 0, 69, 0
2, 512700, Note_on_c, 0, 77, 0
2, 512700, Note_on_c, 0, 81, 0
2, 512760, Note_on_c, 0, 74, 71
2, 512760, Note_on_c, 0, 81, 71
2, 512760, Note_on_c, 0, 69, 71
2, 512760, Note_on_c, 0, 53, 71
2, 512760, Note_on_c, 0, 41, 71
2, 512820, Note_on_c, 0, 41, 0
2, 512820, Note_on_c, 0, 69, 0
2, 512820, Note_on_c, 0, 53, 0
2, 512820, Note_on_c, 0, 74, 0
2, 512820, Note_on_c, 0, 81, 0
2, 512880, Note_on_c, 0, 79, 71
2, 512880, Note_on_c, 0, 81, 71
2, 512880, Note_on_c, 0, 69, 71
2, 512880, Note_on_c, 0, 58, 71
2, 512880, Note_on_c, 0, 46, 71
2, 512940, Note_on_c, 0, 46, 0
2, 512940, Note_on_c, 0, 58, 0
2, 512940, Note_on_c, 0, 69, 0
2, 512940, Note_on_c, 0, 79, 0
2, 512940, Note_on_c, 0, 81, 0
2, 513000, Note_on_c, 0, 76, 117
2, 513000, Note_on_c, 0, 81, 117
2, 513000, Note_on_c, 0, 69, 117
2, 513000, Note_on_c, 0, 55, 117
2, 513000, Note_on_c, 0, 43, 117
2, 513060, Note_on_c, 0, 43, 0
2, 513060, Note_on_c, 0, 55, 0
2, 513060, Note_on_c, 0, 69, 0
2, 513060, Note_on_c, 0, 76, 0
2, 513060, Note_on_c, 0, 81, 0
2, 513120, Note_on_c, 0, 73, 71
2, 513120, Note_on_c, 0, 81, 71
2, 513120, Note_on_c, 0, 69, 71
2, 513120, Note_on_c, 0, 52, 71
2, 513120, Note_on_c, 0, 40, 71
2, 513180, Note_on_c, 0, 40, 0
2, 513180, Note_on_c, 0, 52, 0
2, 513180, Note_on_c, 0, 69, 0
2, 513180, Note_on_c, 0, 73, 0
2, 513180, Note_on_c, 0, 81, 0
2, 513240, Note_on_c, 0, 77, 71
2, 513240, Note_on_c, 0, 81, 71
2, 513240, Note_on_c, 0, 69, 71
2, 513240, Note_on_c, 0, 57, 71
2, 513240, Note_on_c, 0, 45, 71
2, 513300, Note_on_c, 0, 45, 0
2, 513300, Note_on_c, 0, 57, 0
2, 513300, Note_on_c, 0, 69, 0
2, 513300, Note_on_c, 0, 77, 0
2, 513300, Note_on_c, 0, 81, 0
2, 513360, Note_on_c, 0, 86, 71
2, 513360, Note_on_c, 0, 89, 71
2, 513360, Note_on_c, 0, 77, 71
2, 513360, Note_on_c, 0, 50, 71
2, 513360, Note_on_c, 0, 38, 71
2, 513450, Note_on_c, 0, 86, 0
2, 513450, Note_on_c, 0, 77, 0
2, 513450, Note_on_c, 0, 89, 0
2, 513480, Note_on_c, 0, 81, 71
2, 513480, Note_on_c, 0, 86, 71
2, 513480, Note_on_c, 0, 77, 71
2, 513510, Note_on_c, 0, 50, 0
2, 513510, Note_on_c, 0, 38, 0
2, 513540, Note_on_c, 0, 74, 71
2, 513540, Note_on_c, 0, 62, 71
2, 513570, Note_on_c, 0, 62, 0
2, 513570, Note_on_c, 0, 74, 0
2, 513570, Note_on_c, 0, 86, 0
2, 513570, Note_on_c, 0, 77, 0
2, 513570, Note_on_c, 0, 81, 0
2, 513600, Note_on_c, 0, 89, 71
2, 513600, Note_on_c, 0, 93, 71
2, 513600, Note_on_c, 0, 81, 71
2, 513600, Note_on_c, 0, 74, 71
2, 513600, Note_on_c, 0, 62, 71
2, 513690, Note_on_c, 0, 62, 0
2, 513690, Note_on_c, 0, 74, 0
2, 513690, Note_on_c, 0, 81, 0
2, 513690, Note_on_c, 0, 89, 0
2, 513690, Note_on_c, 0, 93, 0
2, 513720, Note_on_c, 0, 88, 71
2, 513720, Note_on_c, 0, 91, 71
2, 513720, Note_on_c, 0, 79, 71
2, 513720, Note_on_c, 0, 69, 71
2, 513720, Note_on_c, 0, 57, 71
2, 513810, Note_on_c, 0, 79, 0
2, 513810, Note_on_c, 0, 91, 0
2, 513810, Note_on_c, 0, 88, 0
2, 513840, Note_on_c, 0, 85, 71
2, 513840, Note_on_c, 0, 88, 71
2, 513840, Note_on_c, 0, 79, 71
2, 513870, Note_on_c, 0, 57, 0
2, 513870, Note_on_c, 0, 69, 0
2, 513900, Note_on_c, 0, 57, 71
2, 513900, Note_on_c, 0, 45, 71
2, 513930, Note_on_c, 0, 45, 0
2, 513930, Note_on_c, 0, 79, 0
2, 513930, Note_on_c, 0, 57, 0
2, 513930, Note_on_c, 0, 88, 0
2, 513930, Note_on_c, 0, 85, 0
2, 513960, Note_on_c, 0, 85, 71
2, 513960, Note_on_c, 0, 93, 71
2, 513960, Note_on_c, 0, 79, 71
2, 513960, Note_on_c, 0, 57, 71
2, 513960, Note_on_c, 0, 45, 71
2, 514050, Note_on_c, 0, 45, 0
2, 514050, Note_on_c, 0, 57, 0
2, 514050, Note_on_c, 0, 79, 0
2, 514050, Note_on_c, 0, 85, 0
2, 514050, Note_on_c, 0, 93, 0
2, 514080, Note_on_c, 0, 86, 71
2, 514080, Note_on_c, 0, 89, 71
2, 514080, Note_on_c, 0, 77, 71
2, 514080, Note_on_c, 0, 50, 71
2, 514080, Note_on_c, 0, 38, 71
2, 514170, Note_on_c, 0, 86, 0
2, 514170, Note_on_c, 0, 77, 0
2, 514170, Note_on_c, 0, 89, 0
2, 514200, Note_on_c, 0, 81, 71
2, 514200, Note_on_c, 0, 86, 71
2, 514200, Note_on_c, 0, 77, 71
2, 514230, Note_on_c, 0, 38, 0
2, 514230, Note_on_c, 0, 50, 0
2, 514260, Note_on_c, 0, 74, 71
2, 514260, Note_on_c, 0, 62, 71
2, 514290, Note_on_c, 0, 62, 0
2, 514290, Note_on_c, 0, 74, 0
2, 514290, Note_on_c, 0, 86, 0
2, 514290, Note_on_c, 0, 77, 0
2, 514290, Note_on_c, 0, 81, 0
2, 514320, Note_on_c, 0, 89, 71
2, 514320, Note_on_c, 0, 93, 71
2, 514320, Note_on_c, 0, 81, 71
2, 514320, Note_on_c, 0, 74, 71
2, 514320, Note_on_c, 0, 62, 71
2, 514410, Note_on_c, 0, 62, 0
2, 514410, Note_on_c, 0, 74, 0
2, 514410, Note_on_c, 0, 81, 0
2, 514410, Note_on_c, 0, 89, 0
2, 514410, Note_on_c, 0, 93, 0
2, 514440, Note_on_c, 0, 88, 71
2, 514440, Note_on_c, 0, 91, 71
2, 514440, Note_on_c, 0, 79, 71
2, 514440, Note_on_c, 0, 69, 71
2, 514440, Note_on_c, 0, 57, 71
2, 514530, Note_on_c, 0, 79, 0
2, 514530, Note_on_c, 0, 91, 0
2, 514530, Note_on_c, 0, 88, 0
2, 514560, Note_on_c, 0, 85, 71
2, 514560, Note_on_c, 0, 88, 71
2, 514560, Note_on_c, 0, 79, 71
2, 514590, Note_on_c, 0, 57, 0
2, 514590, Note_on_c, 0, 69, 0
2, 514620, Note_on_c, 0, 57, 71
2, 514620, Note_on_c, 0, 45, 71
2, 514650, Note_on_c, 0, 45, 0
2, 514650, Note_on_c, 0, 79, 0
2, 514650, Note_on_c, 0, 57, 0
2, 514650, Note_on_c, 0, 88, 0
2, 514650, Note_on_c, 0, 85, 0
2, 514680, Note_on_c, 0, 85, 71
2, 514680, Note_on_c, 0, 93, 71
2, 514680, Note_on_c, 0, 79, 71
2, 514680, Note_on_c, 0, 57, 71
2, 514680, Note_on_c, 0, 45, 71
2, 514770, Note_on_c, 0, 45, 0
2, 514770, Note_on_c, 0, 57, 0
2, 514770, Note_on_c, 0, 79, 0
2, 514770, Note_on_c, 0, 85, 0
2, 514770, Note_on_c, 0, 93, 0
2, 514800, Note_on_c, 0, 69, 71
2, 514800, Note_on_c, 0, 67, 71
2, 514920, Note_on_c, 0, 73, 71
2, 514920, Note_on_c, 0, 64, 71
2, 514950, Note_on_c, 0, 67, 0
2, 514950, Note_on_c, 0, 69, 0
2, 515040, Note_on_c, 0, 76, 71
2, 515040, Note_on_c, 0, 61, 71
2, 515070, Note_on_c, 0, 64, 0
2, 515070, Note_on_c, 0, 73, 0
2, 515160, Note_on_c, 0, 79, 71
2, 515160, Note_on_c, 0, 67, 71
2, 515160, Note_on_c, 0, 55, 71
2, 515160, Note_on_c, 0, 45, 71
2, 515190, Note_on_c, 0, 61, 0
2, 515190, Note_on_c, 0, 76, 0
2, 515280, Note_on_c, 0, 85, 71
2, 515280, Note_on_c, 0, 73, 71
2, 515280, Note_on_c, 0, 52, 71
2, 515310, Note_on_c, 0, 55, 0
2, 515310, Note_on_c, 0, 67, 0
2, 515310, Note_on_c, 0, 79, 0
2, 515400, Note_on_c, 0, 45, 0
2, 515400, Note_on_c, 0, 88, 71
2, 515400, Note_on_c, 0, 76, 71
2, 515400, Note_on_c, 0, 49, 71
2, 515430, Note_on_c, 0, 85, 0
2, 515430, Note_on_c, 0, 52, 0
2, 515430, Note_on_c, 0, 73, 0
2, 515490, Note_on_c, 0, 49, 0
2, 515520, Note_on_c, 0, 91, 71
2, 515520, Note_on_c, 0, 79, 71
2, 515520, Note_on_c, 0, 52, 71
2, 515520, Note_on_c, 0, 55, 71
2, 515520, Note_on_c, 0, 45, 71
2, 515550, Note_on_c, 0, 76, 0
2, 515550, Note_on_c, 0, 88, 0
2, 515640, Note_on_c, 0, 61, 71
2, 515670, Note_on_c, 0, 45, 0
2, 515670, Note_on_c, 0, 55, 0
2, 515670, Note_on_c, 0, 52, 0
2, 515760, Note_on_c, 0, 79, 0
2, 515760, Note_on_c, 0, 61, 0
2, 515760, Note_on_c, 0, 91, 0
2, 515760, Note_on_c, 0, 64, 71
2, 515880, Note_on_c, 0, 67, 71
2, 515880, Note_on_c, 0, 57, 71
2, 515910, Note_on_c, 0, 64, 0
2, 516000, Note_on_c, 0, 88, 71
2, 516000, Note_on_c, 0, 76, 71
2, 516000, Note_on_c, 0, 61, 71
2, 516030, Note_on_c, 0, 67, 0
2, 516030, Note_on_c, 0, 57, 0
2, 516090, Note_on_c, 0, 76, 0
2, 516090, Note_on_c, 0, 88, 0
2, 516120, Note_on_c, 0, 61, 0
2, 516120, Note_on_c, 0, 85, 71
2, 516120, Note_on_c, 0, 73, 71
2, 516120, Note_on_c, 0, 64, 71
2, 516210, Note_on_c, 0, 73, 0
2, 516210, Note_on_c, 0, 85, 0
2, 516240, Note_on_c, 0, 86, 53
2, 516240, Note_on_c, 0, 74, 53
2, 516240, Note_on_c, 0, 50, 53
2, 516240, Note_on_c, 0, 38, 53
2, 516270, Note_on_c, 0, 38, 0
2, 516270, Note_on_c, 0, 50, 0
2, 516270, Note_on_c, 0, 74, 0
2, 516270, Note_on_c, 0, 64, 0
2, 516270, Note_on_c, 0, 86, 0
2, 516420, Note_on_c, 0, 57, 53
2, 516420, Note_on_c, 0, 62, 53
2, 516420, Note_on_c, 0, 53, 53
2, 516450, Note_on_c, 0, 62, 0
2, 516450, Note_on_c, 0, 53, 0
2, 516450, Note_on_c, 0, 57, 0
2, 516480, Note_on_c, 0, 57, 53
2, 516480, Note_on_c, 0, 62, 53
2, 516480, Note_on_c, 0, 53, 53
2, 516510, Note_on_c, 0, 62, 0
2, 516510, Note_on_c, 0, 53, 0
2, 516510, Note_on_c, 0, 57, 0
2, 516600, Note_on_c, 0, 81, 53
2, 516600, Note_on_c, 0, 89, 53
2, 516600, Note_on_c, 0, 77, 53
2, 516600, Note_on_c, 0, 57, 53
2, 516600, Note_on_c, 0, 45, 53
2, 516630, Note_on_c, 0, 45, 0
2, 516630, Note_on_c, 0, 77, 0
2, 516630, Note_on_c, 0, 57, 0
2, 516630, Note_on_c, 0, 81, 0
2, 516630, Note_on_c, 0, 89, 0
2, 516780, Note_on_c, 0, 69, 53
2, 516780, Note_on_c, 0, 74, 53
2, 516780, Note_on_c, 0, 65, 53
2, 516810, Note_on_c, 0, 65, 0
2, 516810, Note_on_c, 0, 69, 0
2, 516810, Note_on_c, 0, 74, 0
2, 516840, Note_on_c, 0, 69, 53
2, 516840, Note_on_c, 0, 74, 53
2, 516840, Note_on_c, 0, 65, 53
2, 516870, Note_on_c, 0, 65, 0
2, 516870, Note_on_c, 0, 69, 0
2, 516870, Note_on_c, 0, 74, 0
2, 516960, Note_on_c, 0, 69, 53
2, 516960, Note_on_c, 0, 74, 53
2, 516960, Note_on_c, 0, 65, 53
2, 516960, Note_on_c, 0, 53, 53
2, 516960, Note_on_c, 0, 41, 53
2, 516990, Note_on_c, 0, 41, 0
2, 516990, Note_on_c, 0, 65, 0
2, 516990, Note_on_c, 0, 53, 0
2, 516990, Note_on_c, 0, 69, 0
2, 516990, Note_on_c, 0, 74, 0
2, 517140, Note_on_c, 0, 57, 53
2, 517140, Note_on_c, 0, 62, 53
2, 517140, Note_on_c, 0, 53, 53
2, 517170, Note_on_c, 0, 62, 0
2, 517170, Note_on_c, 0, 53, 0
2, 517170, Note_on_c, 0, 57, 0
2, 517200, Note_on_c, 0, 57, 53
2, 517200, Note_on_c, 0, 62, 53
2, 517200, Note_on_c, 0, 53, 53
2, 517230, Note_on_c, 0, 62, 0
2, 517230, Note_on_c, 0, 53, 0
2, 517230, Note_on_c, 0, 57, 0
2, 517320, Note_on_c, 0, 77, 53
2, 517320, Note_on_c, 0, 86, 53
2, 517320, Note_on_c, 0, 74, 53
2, 517320, Note_on_c, 0, 50, 53
2, 517320, Note_on_c, 0, 38, 53
2, 517350, Note_on_c, 0, 38, 0
2, 517350, Note_on_c, 0, 50, 0
2, 517350, Note_on_c, 0, 74, 0
2, 517350, Note_on_c, 0, 77, 0
2, 517350, Note_on_c, 0, 86, 0
2, 517500, Note_on_c, 0, 69, 53
2, 517500, Note_on_c, 0, 74, 53
2, 517500, Note_on_c, 0, 65, 53
2, 517530, Note_on_c, 0, 65, 0
2, 517530, Note_on_c, 0, 69, 0
2, 517530, Note_on_c, 0, 74, 0
2, 517560, Note_on_c, 0, 69, 53
2, 517560, Note_on_c, 0, 74, 53
2, 517560, Note_on_c, 0, 65, 53
2, 517590, Note_on_c, 0, 65, 0
2, 517590, Note_on_c, 0, 69, 0
2, 517590, Note_on_c, 0, 74, 0
2, 517680, Note_on_c, 0, 69, 53
2, 517680, Note_on_c, 0, 74, 53
2, 517680, Note_on_c, 0, 65, 53
2, 517710, Note_on_c, 0, 65, 0
2, 517710, Note_on_c, 0, 69, 0
2, 517710, Note_on_c, 0, 74, 0
2, 519120, Note_on_c, 0, 69, 53
2, 519120, Note_on_c, 0, 74, 53
2, 519120, Note_on_c, 0, 65, 53
2, 519120, Note_on_c, 0, 50, 53
2, 519120, Note_on_c, 0, 38, 53
2, 519150, Note_on_c, 0, 38, 0
2, 519150, Note_on_c, 0, 50, 0
2, 519150, Note_on_c, 0, 65, 0
2, 519150, Note_on_c, 0, 69, 0
2, 519150, Note_on_c, 0, 74, 0
2, 519300, Note_on_c, 0, 57, 53
2, 519300, Note_on_c, 0, 62, 53
2, 519300, Note_on_c, 0, 53, 53
2, 519330, Note_on_c, 0, 62, 0
2, 519330, Note_on_c, 0, 53, 0
2, 519330, Note_on_c, 0, 57, 0
2, 519360, Note_on_c, 0, 57, 53
2, 519360, Note_on_c, 0, 62, 53
2, 519360, Note_on_c, 0, 53, 53
2, 519390, Note_on_c, 0, 62, 0
2, 519390, Note_on_c, 0, 53, 0
2, 519390, Note_on_c, 0, 57, 0
2, 519480, Note_on_c, 0, 77, 53
2, 519480, Note_on_c, 0, 86, 53
2, 519480, Note_on_c, 0, 74, 53
2, 519480, Note_on_c, 0, 58, 53
2, 519480, Note_on_c, 0, 46, 53
2, 519510, Note_on_c, 0, 46, 0
2, 519510, Note_on_c, 0, 58, 0
2, 519510, Note_on_c, 0, 74, 0
2, 519510, Note_on_c, 0, 77, 0
2, 519510, Note_on_c, 0, 86, 0
2, 519660, Note_on_c, 0, 70, 53
2, 519660, Note_on_c, 0, 74, 53
2, 519660, Note_on_c, 0, 65, 53
2, 519690, Note_on_c, 0, 65, 0
2, 519690, Note_on_c, 0, 70, 0
2, 519690, Note_on_c, 0, 74, 0
2, 519720, Note_on_c, 0, 70, 53
2, 519720, Note_on_c, 0, 74, 53
2, 519720, Note_on_c, 0, 65, 53
2, 519750, Note_on_c, 0, 65, 0
2, 519750, Note_on_c, 0, 70, 0
2, 519750, Note_on_c, 0, 74, 0
2, 519840, Note_on_c, 0, 70, 53
2, 519840, Note_on_c, 0, 74, 53
2, 519840, Note_on_c, 0, 65, 53
2, 519840, Note_on_c, 0, 53, 53
2, 519840, Note_on_c, 0, 41, 53
2, 519870, Note_on_c, 0, 41, 0
2, 519870, Note_on_c, 0, 65, 0
2, 519870, Note_on_c, 0, 53, 0
2, 519870, Note_on_c, 0, 70, 0
2, 519870, Note_on_c, 0, 74, 0
2, 520020, Note_on_c, 0, 58, 53
2, 520020, Note_on_c, 0, 62, 53
2, 520020, Note_on_c, 0, 53, 53
2, 520050, Note_on_c, 0, 62, 0
2, 520050, Note_on_c, 0, 53, 0
2, 520050, Note_on_c, 0, 58, 0
2, 520080, Note_on_c, 0, 58, 53
2, 520080, Note_on_c, 0, 62, 53
2, 520080, Note_on_c, 0, 53, 53
2, 520110, Note_on_c, 0, 62, 0
2, 520110, Note_on_c, 0, 53, 0
2, 520110, Note_on_c, 0, 58, 0
2, 520200, Note_on_c, 0, 82, 53
2, 520200, Note_on_c, 0, 86, 53
2, 520200, Note_on_c, 0, 77, 53
2, 520200, Note_on_c, 0, 50, 53
2, 520200, Note_on_c, 0, 38, 53
2, 520230, Note_on_c, 0, 38, 0
2, 520230, Note_on_c, 0, 77, 0
2, 520230, Note_on_c, 0, 50, 0
2, 520230, Note_on_c, 0, 86, 0
2, 520230, Note_on_c, 0, 82, 0
2, 520380, Note_on_c, 0, 70, 53
2, 520380, Note_on_c, 0, 74, 53
2, 520380, Note_on_c, 0, 65, 53
2, 520410, Note_on_c, 0, 65, 0
2, 520410, Note_on_c, 0, 70, 0
2, 520410, Note_on_c, 0, 74, 0
2, 520440, Note_on_c, 0, 70, 53
2, 520440, Note_on_c, 0, 74, 53
2, 520440, Note_on_c, 0, 65, 53
2, 520470, Note_on_c, 0, 65, 0
2, 520470, Note_on_c, 0, 70, 0
2, 520470, Note_on_c, 0, 74, 0
2, 520560, Note_on_c, 0, 70, 53
2, 520560, Note_on_c, 0, 74, 53
2, 520560, Note_on_c, 0, 77, 53
2, 520560, Note_on_c, 0, 65, 53
2, 520560, Note_on_c, 0, 46, 53
2, 520560, Note_on_c, 0, 34, 53
2, 520590, Note_on_c, 0, 34, 0
2, 520590, Note_on_c, 0, 46, 0
2, 520590, Note_on_c, 0, 74, 0
2, 520590, Note_on_c, 0, 77, 0
2, 520590, Note_on_c, 0, 65, 0
2, 520590, Note_on_c, 0, 70, 0
2, 520740, Note_on_c, 0, 58, 53
2, 520740, Note_on_c, 0, 62, 53
2, 520740, Note_on_c, 0, 53, 53
2, 520770, Note_on_c, 0, 62, 0
2, 520770, Note_on_c, 0, 53, 0
2, 520770, Note_on_c, 0, 58, 0
2, 520800, Note_on_c, 0, 58, 53
2, 520800, Note_on_c, 0, 62, 53
2, 520800, Note_on_c, 0, 53, 53
2, 520830, Note_on_c, 0, 62, 0
2, 520830, Note_on_c, 0, 53, 0
2, 520830, Note_on_c, 0, 58, 0
2, 520920, Note_on_c, 0, 82, 53
2, 520920, Note_on_c, 0, 86, 53
2, 520920, Note_on_c, 0, 74, 53
2, 520920, Note_on_c, 0, 53, 53
2, 520920, Note_on_c, 0, 41, 53
2, 520950, Note_on_c, 0, 41, 0
2, 520950, Note_on_c, 0, 74, 0
2, 520950, Note_on_c, 0, 53, 0
2, 520950, Note_on_c, 0, 82, 0
2, 520950, Note_on_c, 0, 86, 0
2, 521100, Note_on_c, 0, 74, 53
2, 521100, Note_on_c, 0, 82, 53
2, 521100, Note_on_c, 0, 70, 53
2, 521130, Note_on_c, 0, 70, 0
2, 521130, Note_on_c, 0, 74, 0
2, 521130, Note_on_c, 0, 82, 0
2, 521160, Note_on_c, 0, 74, 53
2, 521160, Note_on_c, 0, 82, 53
2, 521160, Note_on_c, 0, 70, 53
2, 521190, Note_on_c, 0, 70, 0
2, 521190, Note_on_c, 0, 74, 0
2, 521190, Note_on_c, 0, 82, 0
2, 521280, Note_on_c, 0, 77, 53
2, 521280, Note_on_c, 0, 82, 53
2, 521280, Note_on_c, 0, 70, 53
2, 521280, Note_on_c, 0, 50, 53
2, 521280, Note_on_c, 0, 38, 53
2, 521310, Note_on_c, 0, 38, 0
2, 521310, Note_on_c, 0, 50, 0
2, 521310, Note_on_c, 0, 70, 0
2, 521310, Note_on_c, 0, 77, 0
2, 521310, Note_on_c, 0, 82, 0
2, 521460, Note_on_c, 0, 53, 53
2, 521460, Note_on_c, 0, 58, 53
2, 521460, Note_on_c, 0, 50, 53
2, 521490, Note_on_c, 0, 50, 0
2, 521490, Note_on_c, 0, 53, 0
2, 521490, Note_on_c, 0, 58, 0
2, 521520, Note_on_c, 0, 53, 53
2, 521520, Note_on_c, 0, 58, 53
2, 521520, Note_on_c, 0, 50, 53
2, 521550, Note_on_c, 0, 50, 0
2, 521550, Note_on_c, 0, 53, 0
2, 521550, Note_on_c, 0, 58, 0
2, 521640, Note_on_c, 0, 79, 53
2, 521640, Note_on_c, 0, 82, 53
2, 521640, Note_on_c, 0, 70, 53
2, 521640, Note_on_c, 0, 51, 53
2, 521640, Note_on_c, 0, 39, 53
2, 521670, Note_on_c, 0, 39, 0
2, 521670, Note_on_c, 0, 51, 0
2, 521670, Note_on_c, 0, 70, 0
2, 521670, Note_on_c, 0, 79, 0
2, 521670, Note_on_c, 0, 82, 0
2, 521820, Note_on_c, 0, 67, 53
2, 521820, Note_on_c, 0, 70, 53
2, 521820, Note_on_c, 0, 63, 53
2, 521820, Note_on_c, 0, 55, 53
2, 521820, Note_on_c, 0, 58, 53
2, 521820, Note_on_c, 0, 51, 53
2, 521850, Note_on_c, 0, 51, 0
2, 521850, Note_on_c, 0, 58, 0
2, 521850, Note_on_c, 0, 63, 0
2, 521850, Note_on_c, 0, 55, 0
2, 521850, Note_on_c, 0, 67, 0
2, 521850, Note_on_c, 0, 70, 0
2, 521880, Note_on_c, 0, 67, 53
2, 521880, Note_on_c, 0, 70, 53
2, 521880, Note_on_c, 0, 63, 53
2, 521880, Note_on_c, 0, 55, 53
2, 521880, Note_on_c, 0, 58, 53
2, 521880, Note_on_c, 0, 51, 53
2, 521910, Note_on_c, 0, 51, 0
2, 521910, Note_on_c, 0, 58, 0
2, 521910, Note_on_c, 0, 63, 0
2, 521910, Note_on_c, 0, 55, 0
2, 521910, Note_on_c, 0, 67, 0
2, 521910, Note_on_c, 0, 70, 0
2, 522000, Note_on_c, 0, 67, 53
2, 522000, Note_on_c, 0, 70, 53
2, 522000, Note_on_c, 0, 63, 53
2, 522000, Note_on_c, 0, 55, 53
2, 522000, Note_on_c, 0, 58, 53
2, 522000, Note_on_c, 0, 51, 53
2, 522030, Note_on_c, 0, 51, 0
2, 522030, Note_on_c, 0, 58, 0
2, 522030, Note_on_c, 0, 63, 0
2, 522030, Note_on_c, 0, 55, 0
2, 522030, Note_on_c, 0, 67, 0
2, 522030, Note_on_c, 0, 70, 0
2, 523440, Note_on_c, 0, 70, 54
2, 523440, Note_on_c, 0, 75, 54
2, 523440, Note_on_c, 0, 67, 54
2, 523440, Note_on_c, 0, 51, 54
2, 523440, Note_on_c, 0, 39, 54
2, 523495, Note_on_c, 0, 39, 0
2, 523495, Note_on_c, 0, 51, 0
2, 523495, Note_on_c, 0, 67, 0
2, 523495, Note_on_c, 0, 70, 0
2, 523495, Note_on_c, 0, 75, 0
2, 523620, Note_on_c, 0, 58, 56
2, 523620, Note_on_c, 0, 63, 56
2, 523620, Note_on_c, 0, 55, 56
2, 523675, Note_on_c, 0, 55, 0
2, 523675, Note_on_c, 0, 58, 0
2, 523675, Note_on_c, 0, 63, 0
2, 523680, Note_on_c, 0, 58, 57
2, 523680, Note_on_c, 0, 63, 57
2, 523680, Note_on_c, 0, 55, 57
2, 523735, Note_on_c, 0, 55, 0
2, 523735, Note_on_c, 0, 58, 0
2, 523735, Note_on_c, 0, 63, 0
2, 523800, Note_on_c, 0, 79, 59
2, 523800, Note_on_c, 0, 87, 59
2, 523800, Note_on_c, 0, 75, 59
2, 523800, Note_on_c, 0, 60, 59
2, 523800, Note_on_c, 0, 48, 59
2, 523855, Note_on_c, 0, 48, 0
2, 523855, Note_on_c, 0, 60, 0
2, 523855, Note_on_c, 0, 75, 0
2, 523855, Note_on_c, 0, 79, 0
2, 523855, Note_on_c, 0, 87, 0
2, 523980, Note_on_c, 0, 72, 61
2, 523980, Note_on_c, 0, 75, 61
2, 523980, Note_on_c, 0, 67, 61
2, 524035, Note_on_c, 0, 67, 0
2, 524035, Note_on_c, 0, 72, 0
2, 524035, Note_on_c, 0, 75, 0
2, 524040, Note_on_c, 0, 72, 62
2, 524040, Note_on_c, 0, 75, 62
2, 524040, Note_on_c, 0, 67, 62
2, 524095, Note_on_c, 0, 67, 0
2, 524095, Note_on_c, 0, 72, 0
2, 524095, Note_on_c, 0, 75, 0
2, 524160, Note_on_c, 0, 72, 64
2, 524160, Note_on_c, 0, 75, 64
2, 524160, Note_on_c, 0, 68, 64
2, 524160, Note_on_c, 0, 56, 64
2, 524160, Note_on_c, 0, 44, 64
2, 524215, Note_on_c, 0, 44, 0
2, 524215, Note_on_c, 0, 56, 0
2, 524215, Note_on_c, 0, 68, 0
2, 524215, Note_on_c, 0, 72, 0
2, 524215, Note_on_c, 0, 75, 0
2, 524340, Note_on_c, 0, 60, 67
2, 524340, Note_on_c, 0, 63, 67
2, 524340, Note_on_c, 0, 56, 67
2, 524395, Note_on_c, 0, 56, 0
2, 524395, Note_on_c, 0, 60, 0
2, 524395, Note_on_c, 0, 63, 0
2, 524400, Note_on_c, 0, 60, 68
2, 524400, Note_on_c, 0, 63, 68
2, 524400, Note_on_c, 0, 56, 68
2, 524455, Note_on_c, 0, 56, 0
2, 524455, Note_on_c, 0, 60, 0
2, 524455, Note_on_c, 0, 63, 0
2, 524520, Note_on_c, 0, 80, 69
2, 524520, Note_on_c, 0, 89, 69
2, 524520, Note_on_c, 0, 77, 69
2, 524520, Note_on_c, 0, 60, 69
2, 524520, Note_on_c, 0, 65, 69
2, 524520, Note_on_c, 0, 53, 69
2, 524575, Note_on_c, 0, 65, 0
2, 524575, Note_on_c, 0, 60, 0
2, 524575, Note_on_c, 0, 80, 0
2, 524575, Note_on_c, 0, 53, 0
2, 524575, Note_on_c, 0, 77, 0
2, 524575, Note_on_c, 0, 89, 0
2, 524700, Note_on_c, 0, 72, 71
2, 524700, Note_on_c, 0, 77, 71
2, 524700, Note_on_c, 0, 68, 71
2, 524755, Note_on_c, 0, 68, 0
2, 524755, Note_on_c, 0, 77, 0
2, 524755, Note_on_c, 0, 72, 0
2, 524760, Note_on_c, 0, 72, 72
2, 524760, Note_on_c, 0, 77, 72
2, 524760, Note_on_c, 0, 68, 72
2, 524815, Note_on_c, 0, 68, 0
2, 524815, Note_on_c, 0, 77, 0
2, 524815, Note_on_c, 0, 72, 0
2, 524880, Note_on_c, 0, 73, 74
2, 524880, Note_on_c, 0, 77, 74
2, 524880, Note_on_c, 0, 68, 74
2, 524880, Note_on_c, 0, 61, 74
2, 524880, Note_on_c, 0, 49, 74
2, 524935, Note_on_c, 0, 49, 0
2, 524935, Note_on_c, 0, 77, 0
2, 524935, Note_on_c, 0, 61, 0
2, 524935, Note_on_c, 0, 68, 0
2, 524935, Note_on_c, 0, 73, 0
2, 525060, Note_on_c, 0, 65, 77
2, 525060, Note_on_c, 0, 61, 77
2, 525115, Note_on_c, 0, 61, 0
2, 525115, Note_on_c, 0, 65, 0
2, 525120, Note_on_c, 0, 65, 78
2, 525120, Note_on_c, 0, 61, 78
2, 525175, Note_on_c, 0, 61, 0
2, 525175, Note_on_c, 0, 65, 0
2, 525240, Note_on_c, 0, 85, 78
2, 525240, Note_on_c, 0, 89, 78
2, 525240, Note_on_c, 0, 77, 78
2, 525240, Note_on_c, 0, 58, 79
2, 525240, Note_on_c, 0, 46, 79
2, 525295, Note_on_c, 0, 46, 0
2, 525295, Note_on_c, 0, 77, 0
2, 525295, Note_on_c, 0, 58, 0
2, 525295, Note_on_c, 0, 85, 0
2, 525295, Note_on_c, 0, 89, 0
2, 525420, Note_on_c, 0, 73, 81
2, 525420, Note_on_c, 0, 77, 81
2, 525420, Note_on_c, 0, 70, 81
2, 525475, Note_on_c, 0, 70, 0
2, 525475, Note_on_c, 0, 77, 0
2, 525475, Note_on_c, 0, 73, 0
2, 525480, Note_on_c, 0, 73, 82
2, 525480, Note_on_c, 0, 77, 82
2, 525480, Note_on_c, 0, 70, 82
2, 525535, Note_on_c, 0, 70, 0
2, 525535, Note_on_c, 0, 77, 0
2, 525535, Note_on_c, 0, 73, 0
2, 525600, Note_on_c, 0, 73, 83
2, 525600, Note_on_c, 0, 78, 83
2, 525600, Note_on_c, 0, 70, 83
2, 525600, Note_on_c, 0, 54, 85
2, 525600, Note_on_c, 0, 42, 85
2, 525655, Note_on_c, 0, 42, 0
2, 525655, Note_on_c, 0, 54, 0
2, 525655, Note_on_c, 0, 70, 0
2, 525655, Note_on_c, 0, 73, 0
2, 525655, Note_on_c, 0, 78, 0
2, 525780, Note_on_c, 0, 61, 87
2, 525780, Note_on_c, 0, 66, 87
2, 525780, Note_on_c, 0, 58, 87
2, 525835, Note_on_c, 0, 58, 0
2, 525835, Note_on_c, 0, 61, 0
2, 525835, Note_on_c, 0, 66, 0
2, 525840, Note_on_c, 0, 61, 88
2, 525840, Note_on_c, 0, 66, 88
2, 525840, Note_on_c, 0, 58, 88
2, 525895, Note_on_c, 0, 58, 0
2, 525895, Note_on_c, 0, 61, 0
2, 525895, Note_on_c, 0, 66, 0
2, 525960, Note_on_c, 0, 82, 88
2, 525960, Note_on_c, 0, 90, 88
2, 525960, Note_on_c, 0, 78, 88
2, 525960, Note_on_c, 0, 63, 90
2, 525960, Note_on_c, 0, 51, 90
2, 526015, Note_on_c, 0, 51, 0
2, 526015, Note_on_c, 0, 63, 0
2, 526015, Note_on_c, 0, 78, 0
2, 526015, Note_on_c, 0, 82, 0
2, 526015, Note_on_c, 0, 90, 0
2, 526140, Note_on_c, 0, 75, 91
2, 526140, Note_on_c, 0, 78, 91
2, 526140, Note_on_c, 0, 70, 91
2, 526195, Note_on_c, 0, 70, 0
2, 526195, Note_on_c, 0, 75, 0
2, 526195, Note_on_c, 0, 78, 0
2, 526200, Note_on_c, 0, 75, 92
2, 526200, Note_on_c, 0, 78, 92
2, 526200, Note_on_c, 0, 70, 92
2, 526255, Note_on_c, 0, 70, 0
2, 526255, Note_on_c, 0, 75, 0
2, 526255, Note_on_c, 0, 78, 0
2, 526320, Note_on_c, 0, 75, 93
2, 526320, Note_on_c, 0, 78, 93
2, 526320, Note_on_c, 0, 71, 93
2, 526320, Note_on_c, 0, 59, 95
2, 526320, Note_on_c, 0, 47, 95
2, 526375, Note_on_c, 0, 47, 0
2, 526375, Note_on_c, 0, 59, 0
2, 526375, Note_on_c, 0, 71, 0
2, 526375, Note_on_c, 0, 75, 0
2, 526375, Note_on_c, 0, 78, 0
2, 526500, Note_on_c, 0, 63, 96
2, 526500, Note_on_c, 0, 66, 96
2, 526500, Note_on_c, 0, 59, 96
2, 526555, Note_on_c, 0, 59, 0
2, 526555, Note_on_c, 0, 63, 0
2, 526555, Note_on_c, 0, 66, 0
2, 526560, Note_on_c, 0, 63, 96
2, 526560, Note_on_c, 0, 66, 96
2, 526560, Note_on_c, 0, 59, 96
2, 526615, Note_on_c, 0, 59, 0
2, 526615, Note_on_c, 0, 63, 0
2, 526615, Note_on_c, 0, 66, 0
2, 526680, Note_on_c, 0, 83, 98
2, 526680, Note_on_c, 0, 92, 98
2, 526680, Note_on_c, 0, 80, 98
2, 526680, Note_on_c, 0, 63, 100
2, 526680, Note_on_c, 0, 68, 100
2, 526680, Note_on_c, 0, 56, 100
2, 526735, Note_on_c, 0, 56, 0
2, 526735, Note_on_c, 0, 68, 0
2, 526735, Note_on_c, 0, 80, 0
2, 526735, Note_on_c, 0, 63, 0
2, 526735, Note_on_c, 0, 83, 0
2, 526735, Note_on_c, 0, 92, 0
2, 526860, Note_on_c, 0, 75, 101
2, 526860, Note_on_c, 0, 80, 101
2, 526860, Note_on_c, 0, 71, 101
2, 526915, Note_on_c, 0, 71, 0
2, 526915, Note_on_c, 0, 75, 0
2, 526915, Note_on_c, 0, 80, 0
2, 526920, Note_on_c, 0, 75, 101
2, 526920, Note_on_c, 0, 80, 101
2, 526920, Note_on_c, 0, 71, 101
2, 526975, Note_on_c, 0, 71, 0
2, 526975, Note_on_c, 0, 75, 0
2, 526975, Note_on_c, 0, 80, 0
2, 527040, Note_on_c, 0, 76, 103
2, 527040, Note_on_c, 0, 80, 103
2, 527040, Note_on_c, 0, 71, 103
2, 527040, Note_on_c, 0, 64, 105
2, 527040, Note_on_c, 0, 52, 105
2, 527095, Note_on_c, 0, 52, 0
2, 527095, Note_on_c, 0, 64, 0
2, 527095, Note_on_c, 0, 71, 0
2, 527095, Note_on_c, 0, 76, 0
2, 527095, Note_on_c, 0, 80, 0
2, 527220, Note_on_c, 0, 64, 108
2, 527220, Note_on_c, 0, 68, 108
2, 527220, Note_on_c, 0, 59, 108
2, 527275, Note_on_c, 0, 59, 0
2, 527275, Note_on_c, 0, 64, 0
2, 527275, Note_on_c, 0, 68, 0
2, 527280, Note_on_c, 0, 64, 108
2, 527280, Note_on_c, 0, 68, 108
2, 527280, Note_on_c, 0, 59, 108
2, 527335, Note_on_c, 0, 59, 0
2, 527335, Note_on_c, 0, 64, 0
2, 527335, Note_on_c, 0, 68, 0
2, 527400, Note_on_c, 0, 88, 108
2, 527400, Note_on_c, 0, 92, 108
2, 527400, Note_on_c, 0, 80, 108
2, 527400, Note_on_c, 0, 61, 110
2, 527400, Note_on_c, 0, 49, 110
2, 527455, Note_on_c, 0, 49, 0
2, 527455, Note_on_c, 0, 61, 0
2, 527455, Note_on_c, 0, 80, 0
2, 527455, Note_on_c, 0, 88, 0
2, 527455, Note_on_c, 0, 92, 0
2, 527580, Note_on_c, 0, 76, 110
2, 527580, Note_on_c, 0, 80, 110
2, 527580, Note_on_c, 0, 73, 110
2, 527635, Note_on_c, 0, 73, 0
2, 527635, Note_on_c, 0, 76, 0
2, 527635, Note_on_c, 0, 80, 0
2, 527640, Note_on_c, 0, 76, 111
2, 527640, Note_on_c, 0, 80, 111
2, 527640, Note_on_c, 0, 73, 111
2, 527695, Note_on_c, 0, 73, 0
2, 527695, Note_on_c, 0, 76, 0
2, 527695, Note_on_c, 0, 80, 0
2, 527760, Note_on_c, 0, 76, 117
2, 527760, Note_on_c, 0, 81, 117
2, 527760, Note_on_c, 0, 73, 117
2, 527760, Note_on_c, 0, 57, 117
2, 527760, Note_on_c, 0, 45, 117
2, 527815, Note_on_c, 0, 45, 0
2, 527815, Note_on_c, 0, 57, 0
2, 527815, Note_on_c, 0, 73, 0
2, 527815, Note_on_c, 0, 76, 0
2, 527815, Note_on_c, 0, 81, 0
2, 527940, Note_on_c, 0, 69, 117
2, 527940, Note_on_c, 0, 57, 117
2, 527995, Note_on_c, 0, 57, 0
2, 527995, Note_on_c, 0, 69, 0
2, 528000, Note_on_c, 0, 69, 117
2, 528000, Note_on_c, 0, 57, 117
2, 528055, Note_on_c, 0, 57, 0
2, 528055, Note_on_c, 0, 69, 0
2, 528120, Note_on_c, 0, 93, 117
2, 528120, Note_on_c, 0, 81, 117
2, 528120, Note_on_c, 0, 45, 117
2, 528175, Note_on_c, 0, 45, 0
2, 528175, Note_on_c, 0, 93, 0
2, 528175, Note_on_c, 0, 81, 0
2, 528300, Note_on_c, 0, 81, 117
2, 528300, Note_on_c, 0, 69, 117
2, 528300, Note_on_c, 0, 57, 117
2, 528355, Note_on_c, 0, 57, 0
2, 528355, Note_on_c, 0, 81, 0
2, 528355, Note_on_c, 0, 69, 0
2, 528360, Note_on_c, 0, 81, 117
2, 528360, Note_on_c, 0, 69, 117
2, 528360, Note_on_c, 0, 57, 117
2, 528415, Note_on_c, 0, 57, 0
2, 528415, Note_on_c, 0, 81, 0
2, 528415, Note_on_c, 0, 69, 0
2, 528480, Note_on_c, 0, 82, 95
2, 528480, Note_on_c, 0, 70, 95
2, 528480, Note_on_c, 0, 58, 95
2, 528480, Note_on_c, 0, 46, 95
2, 528535, Note_on_c, 0, 46, 0
2, 528535, Note_on_c, 0, 58, 0
2, 528535, Note_on_c, 0, 82, 0
2, 528535, Note_on_c, 0, 70, 0
2, 528660, Note_on_c, 0, 70, 95
2, 528660, Note_on_c, 0, 58, 95
2, 528715, Note_on_c, 0, 58, 0
2, 528715, Note_on_c, 0, 70, 0
2, 528720, Note_on_c, 0, 70, 95
2, 528720, Note_on_c, 0, 58, 95
2, 528775, Note_on_c, 0, 58, 0
2, 528775, Note_on_c, 0, 70, 0
2, 528840, Note_on_c, 0, 94, 95
2, 528840, Note_on_c, 0, 82, 95
2, 528840, Note_on_c, 0, 46, 95
2, 528895, Note_on_c, 0, 46, 0
2, 528895, Note_on_c, 0, 94, 0
2, 528895, Note_on_c, 0, 82, 0
2, 529020, Note_on_c, 0, 82, 95
2, 529020, Note_on_c, 0, 70, 95
2, 529020, Note_on_c, 0, 58, 95
2, 529075, Note_on_c, 0, 58, 0
2, 529075, Note_on_c, 0, 82, 0
2, 529075, Note_on_c, 0, 70, 0
2, 529080, Note_on_c, 0, 82, 95
2, 529080, Note_on_c, 0, 70, 95
2, 529080, Note_on_c, 0, 58, 95
2, 529135, Note_on_c, 0, 58, 0
2, 529135, Note_on_c, 0, 82, 0
2, 529135, Note_on_c, 0, 70, 0
2, 529200, Note_on_c, 0, 71, 95
2, 529200, Note_on_c, 0, 83, 95
2, 529200, Note_on_c, 0, 47, 95
2, 529200, Note_on_c, 0, 59, 95
2, 529255, Note_on_c, 0, 59, 0
2, 529255, Note_on_c, 0, 47, 0
2, 529255, Note_on_c, 0, 71, 0
2, 529255, Note_on_c, 0, 83, 0
2, 529380, Note_on_c, 0, 59, 95
2, 529380, Note_on_c, 0, 71, 95
2, 529410, Note_on_c, 0, 71, 0
2, 529410, Note_on_c, 0, 59, 0
2, 529440, Note_on_c, 0, 59, 95
2, 529440, Note_on_c, 0, 71, 95
2, 529555, Note_on_c, 0, 71, 0
2, 529555, Note_on_c, 0, 59, 0
2, 529560, Note_on_c, 0, 95, 95
2, 529560, Note_on_c, 0, 83, 95
2, 529560, Note_on_c, 0, 47, 95
2, 529560, Note_on_c, 0, 35, 95
2, 529615, Note_on_c, 0, 35, 0
2, 529615, Note_on_c, 0, 47, 0
2, 529615, Note_on_c, 0, 95, 0
2, 529615, Note_on_c, 0, 83, 0
2, 529740, Note_on_c, 0, 83, 95
2, 529740, Note_on_c, 0, 71, 95
2, 529740, Note_on_c, 0, 59, 95
2, 529740, Note_on_c, 0, 47, 95
2, 529770, Note_on_c, 0, 47, 0
2, 529770, Note_on_c, 0, 59, 0
2, 529770, Note_on_c, 0, 83, 0
2, 529770, Note_on_c, 0, 71, 0
2, 529800, Note_on_c, 0, 83, 95
2, 529800, Note_on_c, 0, 71, 95
2, 529800, Note_on_c, 0, 59, 95
2, 529800, Note_on_c, 0, 47, 95
2, 530250, Note_on_c, 0, 47, 0
2, 530250, Note_on_c, 0, 59, 0
2, 530250, Note_on_c, 0, 83, 0
2, 530250, Note_on_c, 0, 71, 0
2, 530280, Note_on_c, 0, 59, 53
2, 530335, Note_on_c, 0, 59, 0
2, 530460, Note_on_c, 0, 47, 53
2, 530515, Note_on_c, 0, 47, 0
2, 530520, Note_on_c, 0, 47, 53
2, 530575, Note_on_c, 0, 47, 0
2, 530640, Note_on_c, 0, 52, 53
2, 530640, Note_on_c, 0, 40, 53
2, 530695, Note_on_c, 0, 40, 0
2, 530695, Note_on_c, 0, 52, 0
2, 530760, Note_on_c, 0, 54, 53
2, 530760, Note_on_c, 0, 51, 53
2, 530815, Note_on_c, 0, 51, 0
2, 530815, Note_on_c, 0, 54, 0
2, 530880, Note_on_c, 0, 55, 53
2, 530880, Note_on_c, 0, 52, 53
2, 530935, Note_on_c, 0, 52, 0
2, 530935, Note_on_c, 0, 55, 0
2, 531000, Note_on_c, 0, 47, 53
2, 531000, Note_on_c, 0, 51, 53
2, 531000, Note_on_c, 0, 54, 53
2, 531000, Note_on_c, 0, 35, 53
2, 531055, Note_on_c, 0, 35, 0
2, 531055, Note_on_c, 0, 54, 0
2, 531055, Note_on_c, 0, 47, 0
2, 531055, Note_on_c, 0, 51, 0
2, 531120, Note_on_c, 0, 55, 53
2, 531120, Note_on_c, 0, 52, 53
2, 531175, Note_on_c, 0, 52, 0
2, 531175, Note_on_c, 0, 55, 0
2, 531240, Note_on_c, 0, 57, 53
2, 531240, Note_on_c, 0, 54, 53
2, 531295, Note_on_c, 0, 54, 0
2, 531295, Note_on_c, 0, 57, 0
2, 531360, Note_on_c, 0, 83, 53
2, 531360, Note_on_c, 0, 71, 53
2, 531360, Note_on_c, 0, 55, 53
2, 531360, Note_on_c, 0, 52, 53
2, 531415, Note_on_c, 0, 52, 0
2, 531415, Note_on_c, 0, 55, 0
2, 531415, Note_on_c, 0, 83, 0
2, 531415, Note_on_c, 0, 71, 0
2, 531480, Note_on_c, 0, 59, 53
2, 531480, Note_on_c, 0, 55, 53
2, 531535, Note_on_c, 0, 55, 0
2, 531535, Note_on_c, 0, 59, 0
2, 531540, Note_on_c, 0, 71, 53
2, 531595, Note_on_c, 0, 71, 0
2, 531600, Note_on_c, 0, 71, 53
2, 531600, Note_on_c, 0, 59, 53
2, 531600, Note_on_c, 0, 55, 53
2, 531655, Note_on_c, 0, 55, 0
2, 531655, Note_on_c, 0, 71, 0
2, 531655, Note_on_c, 0, 59, 0
2, 531720, Note_on_c, 0, 76, 53
2, 531720, Note_on_c, 0, 64, 53
2, 531720, Note_on_c, 0, 55, 53
2, 531720, Note_on_c, 0, 59, 53
2, 531720, Note_on_c, 0, 52, 53
2, 531775, Note_on_c, 0, 52, 0
2, 531775, Note_on_c, 0, 59, 0
2, 531775, Note_on_c, 0, 55, 0
2, 531775, Note_on_c, 0, 76, 0
2, 531775, Note_on_c, 0, 64, 0
2, 531840, Note_on_c, 0, 75, 53
2, 531840, Note_on_c, 0, 78, 53
2, 531840, Note_on_c, 0, 66, 53
2, 531840, Note_on_c, 0, 57, 53
2, 531840, Note_on_c, 0, 54, 53
2, 531895, Note_on_c, 0, 54, 0
2, 531895, Note_on_c, 0, 57, 0
2, 531895, Note_on_c, 0, 66, 0
2, 531895, Note_on_c, 0, 75, 0
2, 531895, Note_on_c, 0, 78, 0
2, 531960, Note_on_c, 0, 76, 53
2, 531960, Note_on_c, 0, 79, 53
2, 531960, Note_on_c, 0, 67, 53
2, 531960, Note_on_c, 0, 55, 53
2, 531960, Note_on_c, 0, 52, 53
2, 532015, Note_on_c, 0, 52, 0
2, 532015, Note_on_c, 0, 55, 0
2, 532015, Note_on_c, 0, 67, 0
2, 532015, Note_on_c, 0, 76, 0
2, 532015, Note_on_c, 0, 79, 0
2, 532080, Note_on_c, 0, 75, 53
2, 532080, Note_on_c, 0, 78, 53
2, 532080, Note_on_c, 0, 66, 53
2, 532080, Note_on_c, 0, 54, 53
2, 532080, Note_on_c, 0, 57, 53
2, 532080, Note_on_c, 0, 47, 53
2, 532135, Note_on_c, 0, 47, 0
2, 532135, Note_on_c, 0, 57, 0
2, 532135, Note_on_c, 0, 66, 0
2, 532135, Note_on_c, 0, 54, 0
2, 532135, Note_on_c, 0, 75, 0
2, 532135, Note_on_c, 0, 78, 0
2, 532200, Note_on_c, 0, 76, 53
2, 532200, Note_on_c, 0, 79, 53
2, 532200, Note_on_c, 0, 67, 53
2, 532200, Note_on_c, 0, 55, 53
2, 532200, Note_on_c, 0, 52, 53
2, 532255, Note_on_c, 0, 52, 0
2, 532255, Note_on_c, 0, 55, 0
2, 532255, Note_on_c, 0, 67, 0
2, 532255, Note_on_c, 0, 76, 0
2, 532255, Note_on_c, 0, 79, 0
2, 532320, Note_on_c, 0, 78, 53
2, 532320, Note_on_c, 0, 81, 53
2, 532320, Note_on_c, 0, 69, 53
2, 532320, Note_on_c, 0, 54, 53
2, 532320, Note_on_c, 0, 51, 53
2, 532375, Note_on_c, 0, 51, 0
2, 532375, Note_on_c, 0, 54, 0
2, 532375, Note_on_c, 0, 69, 0
2, 532375, Note_on_c, 0, 78, 0
2, 532375, Note_on_c, 0, 81, 0
2, 532440, Note_on_c, 0, 76, 53
2, 532440, Note_on_c, 0, 79, 53
2, 532440, Note_on_c, 0, 67, 53
2, 532440, Note_on_c, 0, 59, 53
2, 532495, Note_on_c, 0, 59, 0
2, 532495, Note_on_c, 0, 67, 0
2, 532495, Note_on_c, 0, 76, 0
2, 532495, Note_on_c, 0, 79, 0
2, 532560, Note_on_c, 0, 79, 53
2, 532560, Note_on_c, 0, 83, 53
2, 532560, Note_on_c, 0, 71, 53
2, 532615, Note_on_c, 0, 71, 0
2, 532615, Note_on_c, 0, 79, 0
2, 532615, Note_on_c, 0, 83, 0
2, 532620, Note_on_c, 0, 47, 53
2, 532675, Note_on_c, 0, 47, 0
2, 532680, Note_on_c, 0, 79, 53
2, 532680, Note_on_c, 0, 83, 53
2, 532680, Note_on_c, 0, 71, 53
2, 532680, Note_on_c, 0, 47, 53
2, 532735, Note_on_c, 0, 47, 0
2, 532735, Note_on_c, 0, 71, 0
2, 532735, Note_on_c, 0, 79, 0
2, 532735, Note_on_c, 0, 83, 0
2, 532800, Note_on_c, 0, 79, 53
2, 532800, Note_on_c, 0, 83, 53
2, 532800, Note_on_c, 0, 71, 53
2, 532800, Note_on_c, 0, 52, 53
2, 532800, Note_on_c, 0, 40, 53
2, 532855, Note_on_c, 0, 40, 0
2, 532855, Note_on_c, 0, 52, 0
2, 532855, Note_on_c, 0, 71, 0
2, 532855, Note_on_c, 0, 79, 0
2, 532855, Note_on_c, 0, 83, 0
2, 532920, Note_on_c, 0, 78, 53
2, 532920, Note_on_c, 0, 81, 53
2, 532920, Note_on_c, 0, 69, 53
2, 532920, Note_on_c, 0, 54, 53
2, 532975, Note_on_c, 0, 54, 0
2, 532975, Note_on_c, 0, 69, 0
2, 532975, Note_on_c, 0, 78, 0
2, 532975, Note_on_c, 0, 81, 0
2, 533040, Note_on_c, 0, 76, 53
2, 533040, Note_on_c, 0, 79, 53
2, 533040, Note_on_c, 0, 67, 53
2, 533040, Note_on_c, 0, 55, 53
2, 533095, Note_on_c, 0, 55, 0
2, 533095, Note_on_c, 0, 67, 0
2, 533095, Note_on_c, 0, 76, 0
2, 533095, Note_on_c, 0, 79, 0
2, 533160, Note_on_c, 0, 78, 53
2, 533160, Note_on_c, 0, 81, 53
2, 533160, Note_on_c, 0, 69, 53
2, 533160, Note_on_c, 0, 54, 53
2, 533160, Note_on_c, 0, 47, 53
2, 533215, Note_on_c, 0, 47, 0
2, 533215, Note_on_c, 0, 54, 0
2, 533215, Note_on_c, 0, 69, 0
2, 533215, Note_on_c, 0, 78, 0
2, 533215, Note_on_c, 0, 81, 0
2, 533280, Note_on_c, 0, 76, 53
2, 533280, Note_on_c, 0, 79, 53
2, 533280, Note_on_c, 0, 67, 53
2, 533280, Note_on_c, 0, 55, 53
2, 533335, Note_on_c, 0, 55, 0
2, 533335, Note_on_c, 0, 67, 0
2, 533335, Note_on_c, 0, 76, 0
2, 533335, Note_on_c, 0, 79, 0
2, 533400, Note_on_c, 0, 75, 53
2, 533400, Note_on_c, 0, 78, 53
2, 533400, Note_on_c, 0, 66, 53
2, 533400, Note_on_c, 0, 57, 53
2, 533455, Note_on_c, 0, 57, 0
2, 533455, Note_on_c, 0, 66, 0
2, 533455, Note_on_c, 0, 75, 0
2, 533455, Note_on_c, 0, 78, 0
2, 533520, Note_on_c, 0, 88, 53
2, 533520, Note_on_c, 0, 56, 53
2, 533520, Note_on_c, 0, 52, 53
2, 533575, Note_on_c, 0, 52, 0
2, 533575, Note_on_c, 0, 88, 0
2, 533575, Note_on_c, 0, 56, 0
2, 533640, Note_on_c, 0, 64, 53
2, 533640, Note_on_c, 0, 52, 53
2, 533695, Note_on_c, 0, 52, 0
2, 533695, Note_on_c, 0, 64, 0
2, 533700, Note_on_c, 0, 76, 53
2, 533755, Note_on_c, 0, 76, 0
2, 533760, Note_on_c, 0, 76, 53
2, 533760, Note_on_c, 0, 64, 53
2, 533760, Note_on_c, 0, 52, 53
2, 533815, Note_on_c, 0, 52, 0
2, 533815, Note_on_c, 0, 76, 0
2, 533815, Note_on_c, 0, 64, 0
2, 533880, Note_on_c, 0, 76, 53
2, 533880, Note_on_c, 0, 81, 53
2, 533880, Note_on_c, 0, 69, 53
2, 533880, Note_on_c, 0, 60, 53
2, 533880, Note_on_c, 0, 64, 53
2, 533880, Note_on_c, 0, 52, 53
2, 533935, Note_on_c, 0, 52, 0
2, 533935, Note_on_c, 0, 64, 0
2, 533935, Note_on_c, 0, 69, 0
2, 533935, Note_on_c, 0, 60, 0
2, 533935, Note_on_c, 0, 76, 0
2, 533935, Note_on_c, 0, 81, 0
2, 534000, Note_on_c, 0, 80, 53
2, 534000, Note_on_c, 0, 83, 53
2, 534000, Note_on_c, 0, 71, 53
2, 534000, Note_on_c, 0, 62, 53
2, 534000, Note_on_c, 0, 59, 53
2, 534055, Note_on_c, 0, 59, 0
2, 534055, Note_on_c, 0, 62, 0
2, 534055, Note_on_c, 0, 71, 0
2, 534055, Note_on_c, 0, 80, 0
2, 534055, Note_on_c, 0, 83, 0
2, 534120, Note_on_c, 0, 81, 53
2, 534120, Note_on_c, 0, 84, 53
2, 534120, Note_on_c, 0, 72, 53
2, 534120, Note_on_c, 0, 60, 53
2, 534120, Note_on_c, 0, 57, 53
2, 534175, Note_on_c, 0, 57, 0
2, 534175, Note_on_c, 0, 60, 0
2, 534175, Note_on_c, 0, 72, 0
2, 534175, Note_on_c, 0, 81, 0
2, 534175, Note_on_c, 0, 84, 0
2, 534240, Note_on_c, 0, 80, 53
2, 534240, Note_on_c, 0, 83, 53
2, 534240, Note_on_c, 0, 71, 53
2, 534240, Note_on_c, 0, 59, 53
2, 534240, Note_on_c, 0, 62, 53
2, 534240, Note_on_c, 0, 52, 53
2, 534295, Note_on_c, 0, 52, 0
2, 534295, Note_on_c, 0, 62, 0
2, 534295, Note_on_c, 0, 71, 0
2, 534295, Note_on_c, 0, 59, 0
2, 534295, Note_on_c, 0, 80, 0
2, 534295, Note_on_c, 0, 83, 0
2, 534360, Note_on_c, 0, 81, 53
2, 534360, Note_on_c, 0, 84, 53
2, 534360, Note_on_c, 0, 72, 53
2, 534360, Note_on_c, 0, 60, 53
2, 534360, Note_on_c, 0, 57, 53
2, 534415, Note_on_c, 0, 57, 0
2, 534415, Note_on_c, 0, 60, 0
2, 534415, Note_on_c, 0, 72, 0
2, 534415, Note_on_c, 0, 81, 0
2, 534415, Note_on_c, 0, 84, 0
2, 534480, Note_on_c, 0, 83, 53
2, 534480, Note_on_c, 0, 86, 53
2, 534480, Note_on_c, 0, 74, 53
2, 534480, Note_on_c, 0, 59, 53
2, 534480, Note_on_c, 0, 56, 53
2, 534535, Note_on_c, 0, 56, 0
2, 534535, Note_on_c, 0, 59, 0
2, 534535, Note_on_c, 0, 74, 0
2, 534535, Note_on_c, 0, 83, 0
2, 534535, Note_on_c, 0, 86, 0
2, 534600, Note_on_c, 0, 81, 53
2, 534600, Note_on_c, 0, 84, 53
2, 534600, Note_on_c, 0, 72, 53
2, 534600, Note_on_c, 0, 64, 53
2, 534655, Note_on_c, 0, 64, 0
2, 534655, Note_on_c, 0, 72, 0
2, 534655, Note_on_c, 0, 81, 0
2, 534655, Note_on_c, 0, 84, 0
2, 534720, Note_on_c, 0, 84, 53
2, 534720, Note_on_c, 0, 88, 53
2, 534720, Note_on_c, 0, 76, 53
2, 534775, Note_on_c, 0, 76, 0
2, 534775, Note_on_c, 0, 84, 0
2, 534775, Note_on_c, 0, 88, 0
2, 534780, Note_on_c, 0, 52, 53
2, 534835, Note_on_c, 0, 52, 0
2, 534840, Note_on_c, 0, 84, 53
2, 534840, Note_on_c, 0, 88, 53
2, 534840, Note_on_c, 0, 76, 53
2, 534840, Note_on_c, 0, 52, 53
2, 534895, Note_on_c, 0, 52, 0
2, 534895, Note_on_c, 0, 76, 0
2, 534895, Note_on_c, 0, 84, 0
2, 534895, Note_on_c, 0, 88, 0
2, 534960, Note_on_c, 0, 84, 53
2, 534960, Note_on_c, 0, 88, 53
2, 534960, Note_on_c, 0, 76, 53
2, 534960, Note_on_c, 0, 57, 53
2, 534960, Note_on_c, 0, 45, 53
2, 535015, Note_on_c, 0, 45, 0
2, 535015, Note_on_c, 0, 57, 0
2, 535015, Note_on_c, 0, 76, 0
2, 535015, Note_on_c, 0, 84, 0
2, 535015, Note_on_c, 0, 88, 0
2, 535080, Note_on_c, 0, 83, 53
2, 535080, Note_on_c, 0, 86, 53
2, 535080, Note_on_c, 0, 74, 53
2, 535080, Note_on_c, 0, 59, 53
2, 535080, Note_on_c, 0, 56, 53
2, 535135, Note_on_c, 0, 56, 0
2, 535135, Note_on_c, 0, 59, 0
2, 535135, Note_on_c, 0, 74, 0
2, 535135, Note_on_c, 0, 83, 0
2, 535135, Note_on_c, 0, 86, 0
2, 535200, Note_on_c, 0, 81, 53
2, 535200, Note_on_c, 0, 84, 53
2, 535200, Note_on_c, 0, 72, 53
2, 535200, Note_on_c, 0, 60, 53
2, 535200, Note_on_c, 0, 57, 53
2, 535255, Note_on_c, 0, 57, 0
2, 535255, Note_on_c, 0, 60, 0
2, 535255, Note_on_c, 0, 72, 0
2, 535255, Note_on_c, 0, 81, 0
2, 535255, Note_on_c, 0, 84, 0
2, 535320, Note_on_c, 0, 83, 53
2, 535320, Note_on_c, 0, 86, 53
2, 535320, Note_on_c, 0, 74, 53
2, 535320, Note_on_c, 0, 56, 53
2, 535320, Note_on_c, 0, 59, 53
2, 535320, Note_on_c, 0, 52, 53
2, 535375, Note_on_c, 0, 52, 0
2, 535375, Note_on_c, 0, 59, 0
2, 535375, Note_on_c, 0, 74, 0
2, 535375, Note_on_c, 0, 56, 0
2, 535375, Note_on_c, 0, 83, 0
2, 535375, Note_on_c, 0, 86, 0
2, 535440, Note_on_c, 0, 81, 53
2, 535440, Note_on_c, 0, 84, 53
2, 535440, Note_on_c, 0, 72, 53
2, 535440, Note_on_c, 0, 60, 53
2, 535440, Note_on_c, 0, 57, 53
2, 535495, Note_on_c, 0, 57, 0
2, 535495, Note_on_c, 0, 60, 0
2, 535495, Note_on_c, 0, 72, 0
2, 535495, Note_on_c, 0, 81, 0
2, 535495, Note_on_c, 0, 84, 0
2, 535560, Note_on_c, 0, 80, 53
2, 535560, Note_on_c, 0, 83, 53
2, 535560, Note_on_c, 0, 71, 53
2, 535560, Note_on_c, 0, 62, 53
2, 535560, Note_on_c, 0, 59, 53
2, 535615, Note_on_c, 0, 59, 0
2, 535615, Note_on_c, 0, 62, 0
2, 535615, Note_on_c, 0, 71, 0
2, 535615, Note_on_c, 0, 80, 0
2, 535615, Note_on_c, 0, 83, 0
2, 535680, Note_on_c, 0, 88, 53
2, 535680, Note_on_c, 0, 76, 53
2, 535680, Note_on_c, 0, 60, 53
2, 535680, Note_on_c, 0, 57, 53
2, 535735, Note_on_c, 0, 57, 0
2, 535735, Note_on_c, 0, 60, 0
2, 535735, Note_on_c, 0, 88, 0
2, 535735, Note_on_c, 0, 76, 0
2, 535800, Note_on_c, 0, 64, 53
2, 535800, Note_on_c, 0, 60, 53
2, 535855, Note_on_c, 0, 60, 0
2, 535855, Note_on_c, 0, 64, 0
2, 535860, Note_on_c, 0, 76, 53
2, 535915, Note_on_c, 0, 76, 0
2, 535920, Note_on_c, 0, 76, 53
2, 535920, Note_on_c, 0, 64, 53
2, 535920, Note_on_c, 0, 60, 53
2, 535975, Note_on_c, 0, 60, 0
2, 535975, Note_on_c, 0, 76, 0
2, 535975, Note_on_c, 0, 64, 0
2, 536040, Note_on_c, 0, 76, 53
2, 536040, Note_on_c, 0, 81, 53
2, 536040, Note_on_c, 0, 69, 53
2, 536040, Note_on_c, 0, 60, 53
2, 536040, Note_on_c, 0, 64, 53
2, 536040, Note_on_c, 0, 57, 53
2, 536095, Note_on_c, 0, 57, 0
2, 536095, Note_on_c, 0, 64, 0
2, 536095, Note_on_c, 0, 69, 0
2, 536095, Note_on_c, 0, 60, 0
2, 536095, Note_on_c, 0, 76, 0
2, 536095, Note_on_c, 0, 81, 0
2, 536160, Note_on_c, 0, 80, 53
2, 536160, Note_on_c, 0, 83, 53
2, 536160, Note_on_c, 0, 71, 53
2, 536160, Note_on_c, 0, 62, 53
2, 536160, Note_on_c, 0, 59, 53
2, 536215, Note_on_c, 0, 59, 0
2, 536215, Note_on_c, 0, 62, 0
2, 536215, Note_on_c, 0, 71, 0
2, 536215, Note_on_c, 0, 80, 0
2, 536215, Note_on_c, 0, 83, 0
2, 536280, Note_on_c, 0, 81, 53
2, 536280, Note_on_c, 0, 84, 53
2, 536280, Note_on_c, 0, 72, 53
2, 536280, Note_on_c, 0, 60, 53
2, 536280, Note_on_c, 0, 57, 53
2, 536335, Note_on_c, 0, 57, 0
2, 536335, Note_on_c, 0, 60, 0
2, 536335, Note_on_c, 0, 72, 0
2, 536335, Note_on_c, 0, 81, 0
2, 536335, Note_on_c, 0, 84, 0
2, 536400, Note_on_c, 0, 80, 53
2, 536400, Note_on_c, 0, 83, 53
2, 536400, Note_on_c, 0, 71, 53
2, 536400, Note_on_c, 0, 59, 53
2, 536400, Note_on_c, 0, 62, 53
2, 536400, Note_on_c, 0, 52, 53
2, 536455, Note_on_c, 0, 52, 0
2, 536455, Note_on_c, 0, 62, 0
2, 536455, Note_on_c, 0, 71, 0
2, 536455, Note_on_c, 0, 59, 0
2, 536455, Note_on_c, 0, 80, 0
2, 536455, Note_on_c, 0, 83, 0
2, 536520, Note_on_c, 0, 81, 53
2, 536520, Note_on_c, 0, 84, 53
2, 536520, Note_on_c, 0, 72, 53
2, 536520, Note_on_c, 0, 60, 53
2, 536520, Note_on_c, 0, 57, 53
2, 536575, Note_on_c, 0, 57, 0
2, 536575, Note_on_c, 0, 60, 0
2, 536575, Note_on_c, 0, 72, 0
2, 536575, Note_on_c, 0, 81, 0
2, 536575, Note_on_c, 0, 84, 0
2, 536640, Note_on_c, 0, 83, 53
2, 536640, Note_on_c, 0, 86, 53
2, 536640, Note_on_c, 0, 74, 53
2, 536640, Note_on_c, 0, 59, 53
2, 536640, Note_on_c, 0, 56, 53
2, 536695, Note_on_c, 0, 56, 0
2, 536695, Note_on_c, 0, 59, 0
2, 536695, Note_on_c, 0, 74, 0
2, 536695, Note_on_c, 0, 83, 0
2, 536695, Note_on_c, 0, 86, 0
2, 536760, Note_on_c, 0, 41, 117
2, 536815, Note_on_c, 0, 41, 0
2, 536940, Note_on_c, 0, 29, 117
2, 536995, Note_on_c, 0, 29, 0
2, 537000, Note_on_c, 0, 29, 117
2, 537055, Note_on_c, 0, 29, 0
2, 537120, Note_on_c, 0, 77, 53
2, 537120, Note_on_c, 0, 81, 53
2, 537120, Note_on_c, 0, 69, 53
2, 537120, Note_on_c, 0, 60, 53
2, 537120, Note_on_c, 0, 65, 53
2, 537120, Note_on_c, 0, 57, 53
2, 537175, Note_on_c, 0, 57, 0
2, 537175, Note_on_c, 0, 65, 0
2, 537175, Note_on_c, 0, 69, 0
2, 537175, Note_on_c, 0, 60, 0
2, 537175, Note_on_c, 0, 77, 0
2, 537175, Note_on_c, 0, 81, 0
2, 537240, Note_on_c, 0, 79, 53
2, 537240, Note_on_c, 0, 82, 53
2, 537240, Note_on_c, 0, 70, 53
2, 537240, Note_on_c, 0, 58, 53
2, 537240, Note_on_c, 0, 55, 53
2, 537295, Note_on_c, 0, 55, 0
2, 537295, Note_on_c, 0, 58, 0
2, 537295, Note_on_c, 0, 70, 0
2, 537295, Note_on_c, 0, 79, 0
2, 537295, Note_on_c, 0, 82, 0
2, 537360, Note_on_c, 0, 81, 53
2, 537360, Note_on_c, 0, 84, 53
2, 537360, Note_on_c, 0, 72, 53
2, 537360, Note_on_c, 0, 57, 53
2, 537360, Note_on_c, 0, 53, 53
2, 537415, Note_on_c, 0, 57, 0
2, 537415, Note_on_c, 0, 72, 0
2, 537415, Note_on_c, 0, 53, 0
2, 537415, Note_on_c, 0, 81, 0
2, 537415, Note_on_c, 0, 84, 0
2, 537480, Note_on_c, 0, 79, 53
2, 537480, Note_on_c, 0, 82, 53
2, 537480, Note_on_c, 0, 70, 53
2, 537480, Note_on_c, 0, 62, 53
2, 537480, Note_on_c, 0, 65, 53
2, 537480, Note_on_c, 0, 58, 53
2, 537535, Note_on_c, 0, 58, 0
2, 537535, Note_on_c, 0, 65, 0
2, 537535, Note_on_c, 0, 70, 0
2, 537535, Note_on_c, 0, 62, 0
2, 537535, Note_on_c, 0, 79, 0
2, 537535, Note_on_c, 0, 82, 0
2, 537600, Note_on_c, 0, 81, 53
2, 537600, Note_on_c, 0, 84, 53
2, 537600, Note_on_c, 0, 72, 53
2, 537600, Note_on_c, 0, 60, 53
2, 537600, Note_on_c, 0, 65, 53
2, 537600, Note_on_c, 0, 57, 53
2, 537655, Note_on_c, 0, 57, 0
2, 537655, Note_on_c, 0, 65, 0
2, 537655, Note_on_c, 0, 72, 0
2, 537655, Note_on_c, 0, 60, 0
2, 537655, Note_on_c, 0, 81, 0
2, 537655, Note_on_c, 0, 84, 0
2, 537720, Note_on_c, 0, 82, 53
2, 537720, Note_on_c, 0, 86, 53
2, 537720, Note_on_c, 0, 74, 53
2, 537720, Note_on_c, 0, 58, 53
2, 537720, Note_on_c, 0, 65, 53
2, 537720, Note_on_c, 0, 55, 53
2, 537775, Note_on_c, 0, 55, 0
2, 537775, Note_on_c, 0, 65, 0
2, 537775, Note_on_c, 0, 74, 0
2, 537775, Note_on_c, 0, 58, 0
2, 537775, Note_on_c, 0, 82, 0
2, 537775, Note_on_c, 0, 86, 0
2, 537840, Note_on_c, 0, 41, 117
2, 537855, Note_on_c, 0, 53, 0
2, 537895, Note_on_c, 0, 41, 0
2, 538020, Note_on_c, 0, 29, 117
2, 538075, Note_on_c, 0, 29, 0
2, 538080, Note_on_c, 0, 29, 117
2, 538135, Note_on_c, 0, 29, 0
2, 538200, Note_on_c, 0, 81, 53
2, 538200, Note_on_c, 0, 84, 53
2, 538200, Note_on_c, 0, 72, 53
2, 538200, Note_on_c, 0, 65, 53
2, 538200, Note_on_c, 0, 57, 53
2, 538255, Note_on_c, 0, 57, 0
2, 538255, Note_on_c, 0, 65, 0
2, 538255, Note_on_c, 0, 84, 0
2, 538255, Note_on_c, 0, 81, 0
2, 538255, Note_on_c, 0, 72, 0
2, 538320, Note_on_c, 0, 79, 53
2, 538320, Note_on_c, 0, 88, 53
2, 538320, Note_on_c, 0, 76, 53
2, 538320, Note_on_c, 0, 58, 53
2, 538320, Note_on_c, 0, 55, 53
2, 538375, Note_on_c, 0, 55, 0
2, 538375, Note_on_c, 0, 58, 0
2, 538375, Note_on_c, 0, 88, 0
2, 538375, Note_on_c, 0, 79, 0
2, 538375, Note_on_c, 0, 76, 0
2, 538440, Note_on_c, 0, 81, 53
2, 538440, Note_on_c, 0, 89, 53
2, 538440, Note_on_c, 0, 77, 53
2, 538440, Note_on_c, 0, 57, 53
2, 538440, Note_on_c, 0, 53, 53
2, 538495, Note_on_c, 0, 57, 0
2, 538495, Note_on_c, 0, 89, 0
2, 538495, Note_on_c, 0, 77, 0
2, 538495, Note_on_c, 0, 53, 0
2, 538495, Note_on_c, 0, 81, 0
2, 538560, Note_on_c, 0, 79, 53
2, 538560, Note_on_c, 0, 88, 53
2, 538560, Note_on_c, 0, 76, 53
2, 538560, Note_on_c, 0, 58, 53
2, 538560, Note_on_c, 0, 60, 53
2, 538560, Note_on_c, 0, 55, 53
2, 538615, Note_on_c, 0, 55, 0
2, 538615, Note_on_c, 0, 79, 0
2, 538615, Note_on_c, 0, 60, 0
2, 538615, Note_on_c, 0, 88, 0
2, 538615, Note_on_c, 0, 58, 0
2, 538615, Note_on_c, 0, 76, 0
2, 538680, Note_on_c, 0, 81, 53
2, 538680, Note_on_c, 0, 89, 53
2, 538680, Note_on_c, 0, 77, 53
2, 538680, Note_on_c, 0, 57, 53
2, 538680, Note_on_c, 0, 60, 53
2, 538680, Note_on_c, 0, 53, 53
2, 538735, Note_on_c, 0, 60, 0
2, 538735, Note_on_c, 0, 57, 0
2, 538735, Note_on_c, 0, 77, 0
2, 538735, Note_on_c, 0, 53, 0
2, 538735, Note_on_c, 0, 89, 0
2, 538735, Note_on_c, 0, 81, 0
2, 538800, Note_on_c, 0, 82, 53
2, 538800, Note_on_c, 0, 91, 53
2, 538800, Note_on_c, 0, 79, 53
2, 538800, Note_on_c, 0, 55, 53
2, 538800, Note_on_c, 0, 60, 53
2, 538800, Note_on_c, 0, 52, 53
2, 538855, Note_on_c, 0, 52, 0
2, 538855, Note_on_c, 0, 82, 0
2, 538855, Note_on_c, 0, 60, 0
2, 538855, Note_on_c, 0, 91, 0
2, 538855, Note_on_c, 0, 55, 0
2, 538855, Note_on_c, 0, 79, 0
2, 538920, Note_on_c, 0, 41, 117
2, 538975, Note_on_c, 0, 41, 0
2, 539100, Note_on_c, 0, 29, 117
2, 539155, Note_on_c, 0, 29, 0
2, 539160, Note_on_c, 0, 29, 117
2, 539215, Note_on_c, 0, 29, 0
2, 539280, Note_on_c, 0, 69, 53
2, 539280, Note_on_c, 0, 72, 53
2, 539280, Note_on_c, 0, 77, 53
2, 539280, Note_on_c, 0, 81, 53
2, 539280, Note_on_c, 0, 89, 53
2, 539280, Note_on_c, 0, 65, 53
2, 539295, Note_on_c, 0, 53, 0
2, 539335, Note_on_c, 0, 77, 0
2, 539335, Note_on_c, 0, 65, 0
2, 539335, Note_on_c, 0, 89, 0
2, 539335, Note_on_c, 0, 72, 0
2, 539335, Note_on_c, 0, 69, 0
2, 539335, Note_on_c, 0, 81, 0
2, 539400, Note_on_c, 0, 70, 53
2, 539400, Note_on_c, 0, 79, 53
2, 539400, Note_on_c, 0, 82, 53
2, 539400, Note_on_c, 0, 89, 53
2, 539400, Note_on_c, 0, 67, 53
2, 539455, Note_on_c, 0, 67, 0
2, 539455, Note_on_c, 0, 89, 0
2, 539455, Note_on_c, 0, 79, 0
2, 539455, Note_on_c, 0, 70, 0
2, 539455, Note_on_c, 0, 82, 0
2, 539520, Note_on_c, 0, 69, 53
2, 539520, Note_on_c, 0, 81, 53
2, 539520, Note_on_c, 0, 84, 53
2, 539520, Note_on_c, 0, 89, 53
2, 539520, Note_on_c, 0, 65, 53
2, 539575, Note_on_c, 0, 65, 0
2, 539575, Note_on_c, 0, 89, 0
2, 539575, Note_on_c, 0, 81, 0
2, 539575, Note_on_c, 0, 69, 0
2, 539575, Note_on_c, 0, 84, 0
2, 539640, Note_on_c, 0, 70, 53
2, 539640, Note_on_c, 0, 74, 53
2, 539640, Note_on_c, 0, 79, 53
2, 539640, Note_on_c, 0, 82, 53
2, 539640, Note_on_c, 0, 89, 53
2, 539640, Note_on_c, 0, 65, 53
2, 539695, Note_on_c, 0, 65, 0
2, 539695, Note_on_c, 0, 82, 0
2, 539695, Note_on_c, 0, 74, 0
2, 539695, Note_on_c, 0, 89, 0
2, 539695, Note_on_c, 0, 70, 0
2, 539695, Note_on_c, 0, 79, 0
2, 539760, Note_on_c, 0, 72, 53
2, 539760, Note_on_c, 0, 81, 53
2, 539760, Note_on_c, 0, 84, 53
2, 539760, Note_on_c, 0, 89, 53
2, 539760, Note_on_c, 0, 69, 53
2, 539815, Note_on_c, 0, 69, 0
2, 539815, Note_on_c, 0, 89, 0
2, 539815, Note_on_c, 0, 81, 0
2, 539815, Note_on_c, 0, 72, 0
2, 539815, Note_on_c, 0, 84, 0
2, 539880, Note_on_c, 0, 70, 53
2, 539880, Note_on_c, 0, 82, 53
2, 539880, Note_on_c, 0, 86, 53
2, 539880, Note_on_c, 0, 89, 53
2, 539880, Note_on_c, 0, 67, 53
2, 539935, Note_on_c, 0, 67, 0
2, 539935, Note_on_c, 0, 89, 0
2, 539935, Note_on_c, 0, 82, 0
2, 539935, Note_on_c, 0, 70, 0
2, 539935, Note_on_c, 0, 86, 0
2, 540000, Note_on_c, 0, 41, 117
2, 540055, Note_on_c, 0, 41, 0
2, 540180, Note_on_c, 0, 29, 117
2, 540235, Note_on_c, 0, 29, 0
2, 540240, Note_on_c, 0, 29, 117
2, 540295, Note_on_c, 0, 29, 0
2, 540360, Note_on_c, 0, 93, 71
2, 540360, Note_on_c, 0, 81, 71
2, 540360, Note_on_c, 0, 72, 71
2, 540360, Note_on_c, 0, 65, 71
2, 540415, Note_on_c, 0, 65, 0
2, 540415, Note_on_c, 0, 81, 0
2, 540415, Note_on_c, 0, 93, 0
2, 540415, Note_on_c, 0, 72, 0
2, 540480, Note_on_c, 0, 91, 71
2, 540480, Note_on_c, 0, 84, 71
2, 540480, Note_on_c, 0, 76, 71
2, 540480, Note_on_c, 0, 67, 71
2, 540535, Note_on_c, 0, 67, 0
2, 540535, Note_on_c, 0, 84, 0
2, 540535, Note_on_c, 0, 91, 0
2, 540535, Note_on_c, 0, 76, 0
2, 540600, Note_on_c, 0, 89, 71
2, 540600, Note_on_c, 0, 84, 71
2, 540600, Note_on_c, 0, 77, 71
2, 540600, Note_on_c, 0, 69, 71
2, 540655, Note_on_c, 0, 69, 0
2, 540655, Note_on_c, 0, 77, 0
2, 540655, Note_on_c, 0, 89, 0
2, 540655, Note_on_c, 0, 84, 0
2, 540720, Note_on_c, 0, 91, 71
2, 540720, Note_on_c, 0, 84, 71
2, 540720, Note_on_c, 0, 67, 71
2, 540720, Note_on_c, 0, 76, 71
2, 540720, Note_on_c, 0, 65, 71
2, 540775, Note_on_c, 0, 65, 0
2, 540775, Note_on_c, 0, 67, 0
2, 540775, Note_on_c, 0, 84, 0
2, 540775, Note_on_c, 0, 91, 0
2, 540775, Note_on_c, 0, 76, 0
2, 540840, Note_on_c, 0, 89, 71
2, 540840, Note_on_c, 0, 84, 71
2, 540840, Note_on_c, 0, 77, 71
2, 540840, Note_on_c, 0, 69, 71
2, 540895, Note_on_c, 0, 69, 0
2, 540895, Note_on_c, 0, 77, 0
2, 540895, Note_on_c, 0, 89, 0
2, 540895, Note_on_c, 0, 84, 0
2, 540960, Note_on_c, 0, 88, 71
2, 540960, Note_on_c, 0, 84, 71
2, 540960, Note_on_c, 0, 79, 71
2, 540960, Note_on_c, 0, 70, 71
2, 541015, Note_on_c, 0, 70, 0
2, 541015, Note_on_c, 0, 84, 0
2, 541015, Note_on_c, 0, 88, 0
2, 541015, Note_on_c, 0, 79, 0
2, 541080, Note_on_c, 0, 81, 71
2, 541080, Note_on_c, 0, 89, 71
2, 541080, Note_on_c, 0, 77, 71
2, 541080, Note_on_c, 0, 69, 71
2, 541080, Note_on_c, 0, 72, 71
2, 541080, Note_on_c, 0, 65, 71
2, 541135, Note_on_c, 0, 65, 0
2, 541135, Note_on_c, 0, 72, 0
2, 541135, Note_on_c, 0, 81, 0
2, 541135, Note_on_c, 0, 77, 0
2, 541135, Note_on_c, 0, 89, 0
2, 541135, Note_on_c, 0, 69, 0
2, 541200, Note_on_c, 0, 82, 71
2, 541200, Note_on_c, 0, 91, 71
2, 541200, Note_on_c, 0, 79, 71
2, 541200, Note_on_c, 0, 70, 71
2, 541200, Note_on_c, 0, 67, 71
2, 541255, Note_on_c, 0, 67, 0
2, 541255, Note_on_c, 0, 79, 0
2, 541255, Note_on_c, 0, 91, 0
2, 541255, Note_on_c, 0, 82, 0
2, 541255, Note_on_c, 0, 70, 0
2, 541320, Note_on_c, 0, 84, 71
2, 541320, Note_on_c, 0, 93, 71
2, 541320, Note_on_c, 0, 81, 71
2, 541320, Note_on_c, 0, 69, 71
2, 541320, Note_on_c, 0, 65, 71
2, 541375, Note_on_c, 0, 65, 0
2, 541375, Note_on_c, 0, 81, 0
2, 541375, Note_on_c, 0, 93, 0
2, 541375, Note_on_c, 0, 84, 0
2, 541375, Note_on_c, 0, 69, 0
2, 541440, Note_on_c, 0, 84, 71
2, 541440, Note_on_c, 0, 93, 71
2, 541440, Note_on_c, 0, 81, 71
2, 541440, Note_on_c, 0, 53, 71
2, 541495, Note_on_c, 0, 53, 0
2, 541495, Note_on_c, 0, 93, 0
2, 541495, Note_on_c, 0, 84, 0
2, 541495, Note_on_c, 0, 81, 0
2, 541560, Note_on_c, 0, 82, 71
2, 541560, Note_on_c, 0, 91, 71
2, 541560, Note_on_c, 0, 79, 71
2, 541615, Note_on_c, 0, 79, 0
2, 541615, Note_on_c, 0, 82, 0
2, 541615, Note_on_c, 0, 91, 0
2, 541620, Note_on_c, 0, 41, 71
2, 541675, Note_on_c, 0, 41, 0
2, 541680, Note_on_c, 0, 81, 71
2, 541680, Note_on_c, 0, 89, 71
2, 541680, Note_on_c, 0, 77, 71
2, 541680, Note_on_c, 0, 41, 71
2, 541735, Note_on_c, 0, 41, 0
2, 541735, Note_on_c, 0, 77, 0
2, 541735, Note_on_c, 0, 89, 0
2, 541735, Note_on_c, 0, 81, 0
2, 541800, Note_on_c, 0, 81, 71
2, 541800, Note_on_c, 0, 89, 71
2, 541800, Note_on_c, 0, 77, 71
2, 541800, Note_on_c, 0, 69, 71
2, 541800, Note_on_c, 0, 72, 71
2, 541800, Note_on_c, 0, 65, 71
2, 541855, Note_on_c, 0, 65, 0
2, 541855, Note_on_c, 0, 72, 0
2, 541855, Note_on_c, 0, 81, 0
2, 541855, Note_on_c, 0, 89, 0
2, 541855, Note_on_c, 0, 77, 0
2, 541855, Note_on_c, 0, 69, 0
2, 541920, Note_on_c, 0, 82, 71
2, 541920, Note_on_c, 0, 91, 71
2, 541920, Note_on_c, 0, 79, 71
2, 541920, Note_on_c, 0, 70, 71
2, 541920, Note_on_c, 0, 67, 71
2, 541975, Note_on_c, 0, 67, 0
2, 541975, Note_on_c, 0, 79, 0
2, 541975, Note_on_c, 0, 91, 0
2, 541975, Note_on_c, 0, 82, 0
2, 541975, Note_on_c, 0, 70, 0
2, 542040, Note_on_c, 0, 81, 71
2, 542040, Note_on_c, 0, 89, 71
2, 542040, Note_on_c, 0, 77, 71
2, 542040, Note_on_c, 0, 72, 71
2, 542040, Note_on_c, 0, 69, 71
2, 542095, Note_on_c, 0, 69, 0
2, 542095, Note_on_c, 0, 81, 0
2, 542095, Note_on_c, 0, 77, 0
2, 542095, Note_on_c, 0, 89, 0
2, 542095, Note_on_c, 0, 72, 0
2, 542160, Note_on_c, 0, 76, 71
2, 542160, Note_on_c, 0, 67, 71
2, 542160, Note_on_c, 0, 60, 71
2, 542215, Note_on_c, 0, 60, 0
2, 542215, Note_on_c, 0, 76, 0
2, 542215, Note_on_c, 0, 67, 0
2, 542280, Note_on_c, 0, 77, 71
2, 542280, Note_on_c, 0, 67, 71
2, 542280, Note_on_c, 0, 60, 71
2, 542335, Note_on_c, 0, 60, 0
2, 542335, Note_on_c, 0, 77, 0
2, 542335, Note_on_c, 0, 67, 0
2, 542400, Note_on_c, 0, 79, 71
2, 542400, Note_on_c, 0, 70, 71
2, 542400, Note_on_c, 0, 60, 71
2, 542455, Note_on_c, 0, 60, 0
2, 542455, Note_on_c, 0, 79, 0
2, 542455, Note_on_c, 0, 70, 0
2, 542520, Note_on_c, 0, 79, 71
2, 542520, Note_on_c, 0, 70, 71
2, 542520, Note_on_c, 0, 72, 71
2, 542575, Note_on_c, 0, 72, 0
2, 542575, Note_on_c, 0, 79, 0
2, 542575, Note_on_c, 0, 70, 0
2, 542640, Note_on_c, 0, 77, 71
2, 542640, Note_on_c, 0, 69, 71
2, 542695, Note_on_c, 0, 69, 0
2, 542695, Note_on_c, 0, 77, 0
2, 542700, Note_on_c, 0, 60, 71
2, 542755, Note_on_c, 0, 60, 0
2, 542760, Note_on_c, 0, 76, 71
2, 542760, Note_on_c, 0, 67, 71
2, 542760, Note_on_c, 0, 60, 71
2, 542815, Note_on_c, 0, 60, 0
2, 542815, Note_on_c, 0, 76, 0
2, 542815, Note_on_c, 0, 67, 0
2, 542880, Note_on_c, 0, 76, 71
2, 542880, Note_on_c, 0, 67, 71
2, 542880, Note_on_c, 0, 60, 71
2, 542935, Note_on_c, 0, 60, 0
2, 542935, Note_on_c, 0, 76, 0
2, 542935, Note_on_c, 0, 67, 0
2, 543000, Note_on_c, 0, 77, 71
2, 543000, Note_on_c, 0, 69, 71
2, 543000, Note_on_c, 0, 60, 71
2, 543055, Note_on_c, 0, 60, 0
2, 543055, Note_on_c, 0, 77, 0
2, 543055, Note_on_c, 0, 69, 0
2, 543120, Note_on_c, 0, 76, 71
2, 543120, Note_on_c, 0, 67, 71
2, 543120, Note_on_c, 0, 60, 71
2, 543175, Note_on_c, 0, 60, 0
2, 543175, Note_on_c, 0, 76, 0
2, 543175, Note_on_c, 0, 67, 0
2, 543240, Note_on_c, 0, 77, 71
2, 543240, Note_on_c, 0, 86, 71
2, 543240, Note_on_c, 0, 74, 71
2, 543240, Note_on_c, 0, 65, 71
2, 543240, Note_on_c, 0, 69, 71
2, 543240, Note_on_c, 0, 62, 71
2, 543295, Note_on_c, 0, 62, 0
2, 543295, Note_on_c, 0, 69, 0
2, 543295, Note_on_c, 0, 74, 0
2, 543295, Note_on_c, 0, 86, 0
2, 543295, Note_on_c, 0, 77, 0
2, 543295, Note_on_c, 0, 65, 0
2, 543360, Note_on_c, 0, 79, 71
2, 543360, Note_on_c, 0, 88, 71
2, 543360, Note_on_c, 0, 76, 71
2, 543360, Note_on_c, 0, 67, 71
2, 543360, Note_on_c, 0, 64, 71
2, 543415, Note_on_c, 0, 64, 0
2, 543415, Note_on_c, 0, 76, 0
2, 543415, Note_on_c, 0, 88, 0
2, 543415, Note_on_c, 0, 79, 0
2, 543415, Note_on_c, 0, 67, 0
2, 543480, Note_on_c, 0, 81, 71
2, 543480, Note_on_c, 0, 89, 71
2, 543480, Note_on_c, 0, 77, 71
2, 543480, Note_on_c, 0, 65, 71
2, 543480, Note_on_c, 0, 62, 71
2, 543535, Note_on_c, 0, 62, 0
2, 543535, Note_on_c, 0, 81, 0
2, 543535, Note_on_c, 0, 77, 0
2, 543535, Note_on_c, 0, 89, 0
2, 543535, Note_on_c, 0, 65, 0
2, 543600, Note_on_c, 0, 81, 71
2, 543600, Note_on_c, 0, 89, 71
2, 543600, Note_on_c, 0, 77, 71
2, 543600, Note_on_c, 0, 62, 71
2, 543655, Note_on_c, 0, 62, 0
2, 543655, Note_on_c, 0, 89, 0
2, 543655, Note_on_c, 0, 77, 0
2, 543655, Note_on_c, 0, 81, 0
2, 543720, Note_on_c, 0, 79, 71
2, 543720, Note_on_c, 0, 88, 71
2, 543720, Note_on_c, 0, 76, 71
2, 543775, Note_on_c, 0, 76, 0
2, 543775, Note_on_c, 0, 79, 0
2, 543775, Note_on_c, 0, 88, 0
2, 543780, Note_on_c, 0, 50, 71
2, 543835, Note_on_c, 0, 50, 0
2, 543840, Note_on_c, 0, 77, 71
2, 543840, Note_on_c, 0, 86, 71
2, 543840, Note_on_c, 0, 74, 71
2, 543840, Note_on_c, 0, 50, 71
2, 543895, Note_on_c, 0, 50, 0
2, 543895, Note_on_c, 0, 86, 0
2, 543895, Note_on_c, 0, 77, 0
2, 543895, Note_on_c, 0, 74, 0
2, 543960, Note_on_c, 0, 77, 51
2, 543960, Note_on_c, 0, 86, 51
2, 543960, Note_on_c, 0, 74, 51
2, 543960, Note_on_c, 0, 65, 51
2, 543960, Note_on_c, 0, 69, 51
2, 543960, Note_on_c, 0, 62, 51
2, 544015, Note_on_c, 0, 62, 0
2, 544015, Note_on_c, 0, 69, 0
2, 544015, Note_on_c, 0, 74, 0
2, 544015, Note_on_c, 0, 86, 0
2, 544015, Note_on_c, 0, 77, 0
2, 544015, Note_on_c, 0, 65, 0
2, 544080, Note_on_c, 0, 79, 46
2, 544080, Note_on_c, 0, 88, 46
2, 544080, Note_on_c, 0, 76, 46
2, 544080, Note_on_c, 0, 67, 46
2, 544080, Note_on_c, 0, 64, 46
2, 544135, Note_on_c, 0, 64, 0
2, 544135, Note_on_c, 0, 76, 0
2, 544135, Note_on_c, 0, 88, 0
2, 544135, Note_on_c, 0, 79, 0
2, 544135, Note_on_c, 0, 67, 0
2, 544200, Note_on_c, 0, 77, 41
2, 544200, Note_on_c, 0, 86, 41
2, 544200, Note_on_c, 0, 74, 41
2, 544200, Note_on_c, 0, 69, 41
2, 544200, Note_on_c, 0, 65, 41
2, 544255, Note_on_c, 0, 65, 0
2, 544255, Note_on_c, 0, 74, 0
2, 544255, Note_on_c, 0, 86, 0
2, 544255, Note_on_c, 0, 77, 0
2, 544255, Note_on_c, 0, 69, 0
2, 544320, Note_on_c, 0, 73, 37
2, 544320, Note_on_c, 0, 64, 37
2, 544320, Note_on_c, 0, 57, 37
2, 544375, Note_on_c, 0, 57, 0
2, 544375, Note_on_c, 0, 73, 0
2, 544375, Note_on_c, 0, 64, 0
2, 544440, Note_on_c, 0, 74, 32
2, 544440, Note_on_c, 0, 65, 32
2, 544440, Note_on_c, 0, 57, 32
2, 544495, Note_on_c, 0, 57, 0
2, 544495, Note_on_c, 0, 74, 0
2, 544495, Note_on_c, 0, 65, 0
2, 544560, Note_on_c, 0, 76, 28
2, 544560, Note_on_c, 0, 67, 28
2, 544560, Note_on_c, 0, 57, 28
2, 544615, Note_on_c, 0, 57, 0
2, 544615, Note_on_c, 0, 76, 0
2, 544615, Note_on_c, 0, 67, 0
2, 544680, Note_on_c, 0, 76, 23
2, 544680, Note_on_c, 0, 67, 23
2, 544680, Note_on_c, 0, 57, 21
2, 544735, Note_on_c, 0, 57, 0
2, 544735, Note_on_c, 0, 76, 0
2, 544735, Note_on_c, 0, 67, 0
2, 544800, Note_on_c, 0, 74, 18
2, 544800, Note_on_c, 0, 65, 18
2, 544855, Note_on_c, 0, 65, 0
2, 544855, Note_on_c, 0, 74, 0
2, 544860, Note_on_c, 0, 45, 16
2, 544915, Note_on_c, 0, 45, 0
2, 544920, Note_on_c, 0, 73, 14
2, 544920, Note_on_c, 0, 64, 14
2, 544920, Note_on_c, 0, 45, 12
2, 544975, Note_on_c, 0, 45, 0
2, 544975, Note_on_c, 0, 73, 0
2, 544975, Note_on_c, 0, 64, 0
2, 545040, Note_on_c, 0, 73, 9
2, 545040, Note_on_c, 0, 64, 9
2, 545040, Note_on_c, 0, 57, 9
2, 545040, Note_on_c, 0, 55, 9
2, 545095, Note_on_c, 0, 55, 0
2, 545095, Note_on_c, 0, 64, 0
2, 545095, Note_on_c, 0, 73, 0
2, 545095, Note_on_c, 0, 57, 0
2, 545160, Note_on_c, 0, 74, 5
2, 545160, Note_on_c, 0, 65, 5
2, 545160, Note_on_c, 0, 57, 5
2, 545160, Note_on_c, 0, 53, 5
2, 545215, Note_on_c, 0, 53, 0
2, 545215, Note_on_c, 0, 65, 0
2, 545215, Note_on_c, 0, 74, 0
2, 545215, Note_on_c, 0, 57, 0
2, 545280, Note_on_c, 0, 73, 1
2, 545280, Note_on_c, 0, 64, 1
2, 545280, Note_on_c, 0, 57, 1
2, 545280, Note_on_c, 0, 55, 1
2, 545335, Note_on_c, 0, 55, 0
2, 545335, Note_on_c, 0, 64, 0
2, 545335, Note_on_c, 0, 73, 0
2, 545335, Note_on_c, 0, 57, 0
2, 545400, Note_on_c, 0, 77, 21
2, 545400, Note_on_c, 0, 86, 21
2, 545400, Note_on_c, 0, 74, 21
2, 545400, Note_on_c, 0, 57, 21
2, 545400, Note_on_c, 0, 53, 21
2, 545455, Note_on_c, 0, 53, 0
2, 545455, Note_on_c, 0, 74, 0
2, 545455, Note_on_c, 0, 86, 0
2, 545455, Note_on_c, 0, 77, 0
2, 545455, Note_on_c, 0, 57, 0
2, 545520, Note_on_c, 0, 79, 21
2, 545520, Note_on_c, 0, 88, 21
2, 545520, Note_on_c, 0, 76, 21
2, 545520, Note_on_c, 0, 55, 21
2, 545520, Note_on_c, 0, 52, 21
2, 545575, Note_on_c, 0, 52, 0
2, 545575, Note_on_c, 0, 76, 0
2, 545575, Note_on_c, 0, 88, 0
2, 545575, Note_on_c, 0, 79, 0
2, 545575, Note_on_c, 0, 55, 0
2, 545640, Note_on_c, 0, 81, 21
2, 545640, Note_on_c, 0, 89, 21
2, 545640, Note_on_c, 0, 77, 21
2, 545640, Note_on_c, 0, 53, 21
2, 545640, Note_on_c, 0, 50, 21
2, 545695, Note_on_c, 0, 50, 0
2, 545695, Note_on_c, 0, 81, 0
2, 545695, Note_on_c, 0, 77, 0
2, 545695, Note_on_c, 0, 89, 0
2, 545695, Note_on_c, 0, 53, 0
2, 545760, Note_on_c, 0, 81, 21
2, 545760, Note_on_c, 0, 89, 21
2, 545760, Note_on_c, 0, 77, 21
2, 545760, Note_on_c, 0, 69, 21
2, 545815, Note_on_c, 0, 69, 0
2, 545815, Note_on_c, 0, 89, 0
2, 545815, Note_on_c, 0, 77, 0
2, 545815, Note_on_c, 0, 81, 0
2, 545880, Note_on_c, 0, 79, 21
2, 545880, Note_on_c, 0, 88, 21
2, 545880, Note_on_c, 0, 76, 21
2, 545935, Note_on_c, 0, 76, 0
2, 545935, Note_on_c, 0, 79, 0
2, 545935, Note_on_c, 0, 88, 0
2, 545940, Note_on_c, 0, 57, 21
2, 545995, Note_on_c, 0, 57, 0
2, 546000, Note_on_c, 0, 77, 21
2, 546000, Note_on_c, 0, 86, 21
2, 546000, Note_on_c, 0, 74, 21
2, 546000, Note_on_c, 0, 57, 21
2, 546055, Note_on_c, 0, 57, 0
2, 546055, Note_on_c, 0, 86, 0
2, 546055, Note_on_c, 0, 77, 0
2, 546055, Note_on_c, 0, 74, 0
2, 546120, Note_on_c, 0, 77, 21
2, 546120, Note_on_c, 0, 86, 21
2, 546120, Note_on_c, 0, 74, 21
2, 546120, Note_on_c, 0, 57, 21
2, 546120, Note_on_c, 0, 53, 21
2, 546175, Note_on_c, 0, 53, 0
2, 546175, Note_on_c, 0, 74, 0
2, 546175, Note_on_c, 0, 86, 0
2, 546175, Note_on_c, 0, 77, 0
2, 546175, Note_on_c, 0, 57, 0
2, 546240, Note_on_c, 0, 79, 21
2, 546240, Note_on_c, 0, 88, 21
2, 546240, Note_on_c, 0, 76, 21
2, 546240, Note_on_c, 0, 57, 21
2, 546240, Note_on_c, 0, 52, 21
2, 546295, Note_on_c, 0, 52, 0
2, 546295, Note_on_c, 0, 76, 0
2, 546295, Note_on_c, 0, 88, 0
2, 546295, Note_on_c, 0, 79, 0
2, 546295, Note_on_c, 0, 57, 0
2, 546360, Note_on_c, 0, 77, 21
2, 546360, Note_on_c, 0, 86, 21
2, 546360, Note_on_c, 0, 74, 21
2, 546360, Note_on_c, 0, 57, 21
2, 546360, Note_on_c, 0, 53, 21
2, 546415, Note_on_c, 0, 53, 0
2, 546415, Note_on_c, 0, 74, 0
2, 546415, Note_on_c, 0, 86, 0
2, 546415, Note_on_c, 0, 77, 0
2, 546415, Note_on_c, 0, 57, 0
2, 546480, Note_on_c, 0, 73, 21
2, 546480, Note_on_c, 0, 64, 21
2, 546480, Note_on_c, 0, 57, 21
2, 546480, Note_on_c, 0, 55, 21
2, 546535, Note_on_c, 0, 55, 0
2, 546535, Note_on_c, 0, 64, 0
2, 546535, Note_on_c, 0, 73, 0
2, 546535, Note_on_c, 0, 57, 0
2, 546600, Note_on_c, 0, 74, 21
2, 546600, Note_on_c, 0, 65, 21
2, 546600, Note_on_c, 0, 57, 21
2, 546600, Note_on_c, 0, 53, 21
2, 546655, Note_on_c, 0, 53, 0
2, 546655, Note_on_c, 0, 65, 0
2, 546655, Note_on_c, 0, 74, 0
2, 546655, Note_on_c, 0, 57, 0
2, 546720, Note_on_c, 0, 76, 21
2, 546720, Note_on_c, 0, 67, 21
2, 546720, Note_on_c, 0, 57, 21
2, 546720, Note_on_c, 0, 52, 21
2, 546775, Note_on_c, 0, 52, 0
2, 546775, Note_on_c, 0, 67, 0
2, 546775, Note_on_c, 0, 76, 0
2, 546775, Note_on_c, 0, 57, 0
2, 546840, Note_on_c, 0, 76, 21
2, 546840, Note_on_c, 0, 67, 21
2, 546840, Note_on_c, 0, 57, 21
2, 546895, Note_on_c, 0, 57, 0
2, 546895, Note_on_c, 0, 76, 0
2, 546895, Note_on_c, 0, 67, 0
2, 546960, Note_on_c, 0, 74, 21
2, 546960, Note_on_c, 0, 65, 21
2, 547015, Note_on_c, 0, 65, 0
2, 547015, Note_on_c, 0, 74, 0
2, 547020, Note_on_c, 0, 45, 21
2, 547075, Note_on_c, 0, 45, 0
2, 547080, Note_on_c, 0, 73, 21
2, 547080, Note_on_c, 0, 64, 21
2, 547080, Note_on_c, 0, 45, 21
2, 547135, Note_on_c, 0, 45, 0
2, 547135, Note_on_c, 0, 73, 0
2, 547135, Note_on_c, 0, 64, 0
2, 547200, Note_on_c, 0, 55, 21
2, 547200, Note_on_c, 0, 57, 21
2, 547200, Note_on_c, 0, 64, 21
2, 547200, Note_on_c, 0, 73, 21
2, 547255, Note_on_c, 0, 73, 0
2, 547255, Note_on_c, 0, 57, 0
2, 547255, Note_on_c, 0, 55, 0
2, 547255, Note_on_c, 0, 64, 0
2, 547320, Note_on_c, 0, 53, 21
2, 547320, Note_on_c, 0, 57, 21
2, 547320, Note_on_c, 0, 65, 21
2, 547320, Note_on_c, 0, 74, 21
2, 547375, Note_on_c, 0, 74, 0
2, 547375, Note_on_c, 0, 57, 0
2, 547375, Note_on_c, 0, 53, 0
2, 547375, Note_on_c, 0, 65, 0
2, 547440, Note_on_c, 0, 55, 21
2, 547440, Note_on_c, 0, 57, 21
2, 547440, Note_on_c, 0, 64, 21
2, 547440, Note_on_c, 0, 73, 21
2, 547495, Note_on_c, 0, 73, 0
2, 547495, Note_on_c, 0, 57, 0
2, 547495, Note_on_c, 0, 55, 0
2, 547495, Note_on_c, 0, 64, 0
2, 547560, Note_on_c, 0, 81, 21
2, 547560, Note_on_c, 0, 69, 21
2, 547560, Note_on_c, 0, 61, 21
2, 547560, Note_on_c, 0, 55, 21
2, 547615, Note_on_c, 0, 55, 0
2, 547615, Note_on_c, 0, 69, 0
2, 547615, Note_on_c, 0, 81, 0
2, 547615, Note_on_c, 0, 61, 0
2, 547680, Note_on_c, 0, 62, 21
2, 547680, Note_on_c, 0, 53, 21
2, 547735, Note_on_c, 0, 53, 0
2, 547735, Note_on_c, 0, 62, 0
2, 547740, Note_on_c, 0, 69, 21
2, 547795, Note_on_c, 0, 69, 0
2, 547800, Note_on_c, 0, 69, 21
2, 547800, Note_on_c, 0, 64, 21
2, 547800, Note_on_c, 0, 52, 21
2, 547855, Note_on_c, 0, 52, 0
2, 547855, Note_on_c, 0, 69, 0
2, 547855, Note_on_c, 0, 64, 0
2, 547920, Note_on_c, 0, 69, 21
2, 547920, Note_on_c, 0, 74, 21
2, 547920, Note_on_c, 0, 65, 21
2, 547920, Note_on_c, 0, 57, 21
2, 547920, Note_on_c, 0, 50, 21
2, 547975, Note_on_c, 0, 50, 0
2, 547975, Note_on_c, 0, 65, 0
2, 547975, Note_on_c, 0, 74, 0
2, 547975, Note_on_c, 0, 69, 0
2, 547975, Note_on_c, 0, 57, 0
2, 548040, Note_on_c, 0, 73, 21
2, 548040, Note_on_c, 0, 76, 21
2, 548040, Note_on_c, 0, 64, 21
2, 548040, Note_on_c, 0, 57, 21
2, 548095, Note_on_c, 0, 57, 0
2, 548095, Note_on_c, 0, 76, 0
2, 548095, Note_on_c, 0, 73, 0
2, 548095, Note_on_c, 0, 64, 0
2, 548160, Note_on_c, 0, 74, 21
2, 548160, Note_on_c, 0, 77, 21
2, 548160, Note_on_c, 0, 65, 21
2, 548160, Note_on_c, 0, 57, 21
2, 548215, Note_on_c, 0, 57, 0
2, 548215, Note_on_c, 0, 77, 0
2, 548215, Note_on_c, 0, 74, 0
2, 548215, Note_on_c, 0, 65, 0
2, 548280, Note_on_c, 0, 73, 21
2, 548280, Note_on_c, 0, 76, 21
2, 548280, Note_on_c, 0, 64, 21
2, 548280, Note_on_c, 0, 57, 21
2, 548280, Note_on_c, 0, 45, 21
2, 548335, Note_on_c, 0, 45, 0
2, 548335, Note_on_c, 0, 64, 0
2, 548335, Note_on_c, 0, 76, 0
2, 548335, Note_on_c, 0, 73, 0
2, 548335, Note_on_c, 0, 57, 0
2, 548400, Note_on_c, 0, 74, 21
2, 548400, Note_on_c, 0, 77, 21
2, 548400, Note_on_c, 0, 65, 21
2, 548400, Note_on_c, 0, 57, 21
2, 548455, Note_on_c, 0, 57, 0
2, 548455, Note_on_c, 0, 77, 0
2, 548455, Note_on_c, 0, 74, 0
2, 548455, Note_on_c, 0, 65, 0
2, 548520, Note_on_c, 0, 76, 21
2, 548520, Note_on_c, 0, 79, 21
2, 548520, Note_on_c, 0, 67, 21
2, 548520, Note_on_c, 0, 57, 21
2, 548575, Note_on_c, 0, 57, 0
2, 548575, Note_on_c, 0, 79, 0
2, 548575, Note_on_c, 0, 76, 0
2, 548575, Note_on_c, 0, 67, 0
2, 548640, Note_on_c, 0, 74, 21
2, 548640, Note_on_c, 0, 77, 21
2, 548640, Note_on_c, 0, 65, 21
2, 548640, Note_on_c, 0, 57, 21
2, 548695, Note_on_c, 0, 57, 0
2, 548695, Note_on_c, 0, 77, 0
2, 548695, Note_on_c, 0, 74, 0
2, 548695, Note_on_c, 0, 65, 0
2, 548760, Note_on_c, 0, 77, 21
2, 548760, Note_on_c, 0, 81, 21
2, 548760, Note_on_c, 0, 69, 21
2, 548815, Note_on_c, 0, 69, 0
2, 548815, Note_on_c, 0, 77, 0
2, 548815, Note_on_c, 0, 81, 0
2, 548820, Note_on_c, 0, 45, 21
2, 548875, Note_on_c, 0, 45, 0
2, 548880, Note_on_c, 0, 77, 21
2, 548880, Note_on_c, 0, 81, 21
2, 548880, Note_on_c, 0, 69, 21
2, 548880, Note_on_c, 0, 45, 21
2, 548935, Note_on_c, 0, 45, 0
2, 548935, Note_on_c, 0, 81, 0
2, 548935, Note_on_c, 0, 77, 0
2, 548935, Note_on_c, 0, 69, 0
2, 549000, Note_on_c, 0, 77, 21
2, 549000, Note_on_c, 0, 81, 21
2, 549000, Note_on_c, 0, 69, 21
2, 549000, Note_on_c, 0, 53, 21
2, 549000, Note_on_c, 0, 50, 21
2, 549055, Note_on_c, 0, 50, 0
2, 549055, Note_on_c, 0, 69, 0
2, 549055, Note_on_c, 0, 81, 0
2, 549055, Note_on_c, 0, 77, 0
2, 549055, Note_on_c, 0, 53, 0
2, 549120, Note_on_c, 0, 79, 21
2, 549120, Note_on_c, 0, 81, 21
2, 549120, Note_on_c, 0, 76, 21
2, 549120, Note_on_c, 0, 55, 21
2, 549120, Note_on_c, 0, 52, 21
2, 549175, Note_on_c, 0, 52, 0
2, 549175, Note_on_c, 0, 76, 0
2, 549175, Note_on_c, 0, 81, 0
2, 549175, Note_on_c, 0, 79, 0
2, 549175, Note_on_c, 0, 55, 0
2, 549240, Note_on_c, 0, 77, 21
2, 549240, Note_on_c, 0, 81, 21
2, 549240, Note_on_c, 0, 74, 21
2, 549240, Note_on_c, 0, 57, 21
2, 549240, Note_on_c, 0, 53, 21
2, 549295, Note_on_c, 0, 53, 0
2, 549295, Note_on_c, 0, 74, 0
2, 549295, Note_on_c, 0, 81, 0
2, 549295, Note_on_c, 0, 77, 0
2, 549295, Note_on_c, 0, 57, 0
2, 549360, Note_on_c, 0, 79, 21
2, 549360, Note_on_c, 0, 81, 21
2, 549360, Note_on_c, 0, 76, 21
2, 549360, Note_on_c, 0, 55, 21
2, 549360, Note_on_c, 0, 52, 21
2, 549415, Note_on_c, 0, 52, 0
2, 549415, Note_on_c, 0, 76, 0
2, 549415, Note_on_c, 0, 81, 0
2, 549415, Note_on_c, 0, 79, 0
2, 549415, Note_on_c, 0, 55, 0
2, 549480, Note_on_c, 0, 77, 21
2, 549480, Note_on_c, 0, 81, 21
2, 549480, Note_on_c, 0, 74, 21
2, 549480, Note_on_c, 0, 57, 21
2, 549480, Note_on_c, 0, 53, 21
2, 549535, Note_on_c, 0, 53, 0
2, 549535, Note_on_c, 0, 74, 0
2, 549535, Note_on_c, 0, 81, 0
2, 549535, Note_on_c, 0, 77, 0
2, 549535, Note_on_c, 0, 57, 0
2, 549600, Note_on_c, 0, 76, 21
2, 549600, Note_on_c, 0, 81, 21
2, 549600, Note_on_c, 0, 73, 21
2, 549600, Note_on_c, 0, 57, 21
2, 549600, Note_on_c, 0, 55, 21
2, 549655, Note_on_c, 0, 55, 0
2, 549655, Note_on_c, 0, 73, 0
2, 549655, Note_on_c, 0, 81, 0
2, 549655, Note_on_c, 0, 76, 0
2, 549655, Note_on_c, 0, 57, 0
2, 549720, Note_on_c, 0, 93, 21
2, 549720, Note_on_c, 0, 81, 21
2, 549720, Note_on_c, 0, 62, 21
2, 549720, Note_on_c, 0, 53, 21
2, 549775, Note_on_c, 0, 53, 0
2, 549775, Note_on_c, 0, 81, 0
2, 549775, Note_on_c, 0, 93, 0
2, 549775, Note_on_c, 0, 62, 0
2, 549840, Note_on_c, 0, 65, 21
2, 549840, Note_on_c, 0, 69, 21
2, 549840, Note_on_c, 0, 57, 21
2, 549895, Note_on_c, 0, 57, 0
2, 549895, Note_on_c, 0, 65, 0
2, 549895, Note_on_c, 0, 69, 0
2, 549900, Note_on_c, 0, 81, 21
2, 549955, Note_on_c, 0, 81, 0
2, 549960, Note_on_c, 0, 81, 21
2, 549960, Note_on_c, 0, 65, 21
2, 549960, Note_on_c, 0, 69, 21
2, 549960, Note_on_c, 0, 57, 21
2, 550015, Note_on_c, 0, 57, 0
2, 550015, Note_on_c, 0, 65, 0
2, 550015, Note_on_c, 0, 81, 0
2, 550015, Note_on_c, 0, 69, 0
2, 550080, Note_on_c, 0, 86, 21
2, 550080, Note_on_c, 0, 74, 21
2, 550080, Note_on_c, 0, 65, 21
2, 550080, Note_on_c, 0, 69, 21
2, 550080, Note_on_c, 0, 57, 21
2, 550135, Note_on_c, 0, 57, 0
2, 550135, Note_on_c, 0, 65, 0
2, 550135, Note_on_c, 0, 74, 0
2, 550135, Note_on_c, 0, 86, 0
2, 550135, Note_on_c, 0, 69, 0
2, 550200, Note_on_c, 0, 85, 21
2, 550200, Note_on_c, 0, 88, 21
2, 550200, Note_on_c, 0, 76, 21
2, 550200, Note_on_c, 0, 67, 21
2, 550200, Note_on_c, 0, 64, 21
2, 550255, Note_on_c, 0, 64, 0
2, 550255, Note_on_c, 0, 76, 0
2, 550255, Note_on_c, 0, 88, 0
2, 550255, Note_on_c, 0, 85, 0
2, 550255, Note_on_c, 0, 67, 0
2, 550320, Note_on_c, 0, 86, 21
2, 550320, Note_on_c, 0, 89, 21
2, 550320, Note_on_c, 0, 77, 21
2, 550320, Note_on_c, 0, 65, 21
2, 550320, Note_on_c, 0, 62, 21
2, 550375, Note_on_c, 0, 62, 0
2, 550375, Note_on_c, 0, 86, 0
2, 550375, Note_on_c, 0, 77, 0
2, 550375, Note_on_c, 0, 89, 0
2, 550375, Note_on_c, 0, 65, 0
2, 550440, Note_on_c, 0, 85, 21
2, 550440, Note_on_c, 0, 88, 21
2, 550440, Note_on_c, 0, 76, 21
2, 550440, Note_on_c, 0, 64, 21
2, 550440, Note_on_c, 0, 67, 21
2, 550440, Note_on_c, 0, 57, 21
2, 550495, Note_on_c, 0, 57, 0
2, 550495, Note_on_c, 0, 67, 0
2, 550495, Note_on_c, 0, 76, 0
2, 550495, Note_on_c, 0, 88, 0
2, 550495, Note_on_c, 0, 85, 0
2, 550495, Note_on_c, 0, 64, 0
2, 550560, Note_on_c, 0, 86, 21
2, 550560, Note_on_c, 0, 89, 21
2, 550560, Note_on_c, 0, 77, 21
2, 550560, Note_on_c, 0, 65, 21
2, 550560, Note_on_c, 0, 62, 21
2, 550615, Note_on_c, 0, 62, 0
2, 550615, Note_on_c, 0, 86, 0
2, 550615, Note_on_c, 0, 77, 0
2, 550615, Note_on_c, 0, 89, 0
2, 550615, Note_on_c, 0, 65, 0
2, 550680, Note_on_c, 0, 88, 21
2, 550680, Note_on_c, 0, 91, 21
2, 550680, Note_on_c, 0, 79, 21
2, 550680, Note_on_c, 0, 64, 21
2, 550680, Note_on_c, 0, 61, 21
2, 550735, Note_on_c, 0, 61, 0
2, 550735, Note_on_c, 0, 79, 0
2, 550735, Note_on_c, 0, 91, 0
2, 550735, Note_on_c, 0, 88, 0
2, 550735, Note_on_c, 0, 64, 0
2, 550800, Note_on_c, 0, 86, 21
2, 550800, Note_on_c, 0, 89, 21
2, 550800, Note_on_c, 0, 77, 21
2, 550800, Note_on_c, 0, 62, 21
2, 550800, Note_on_c, 0, 65, 21
2, 550800, Note_on_c, 0, 57, 21
2, 550855, Note_on_c, 0, 57, 0
2, 550855, Note_on_c, 0, 65, 0
2, 550855, Note_on_c, 0, 86, 0
2, 550855, Note_on_c, 0, 77, 0
2, 550855, Note_on_c, 0, 89, 0
2, 550855, Note_on_c, 0, 62, 0
2, 550920, Note_on_c, 0, 81, 21
2, 550920, Note_on_c, 0, 77, 21
2, 550975, Note_on_c, 0, 81, 0
2, 550975, Note_on_c, 0, 77, 0
2, 550980, Note_on_c, 0, 45, 21
2, 551035, Note_on_c, 0, 45, 0
2, 551040, Note_on_c, 0, 81, 21
2, 551040, Note_on_c, 0, 77, 21
2, 551040, Note_on_c, 0, 45, 21
2, 551095, Note_on_c, 0, 45, 0
2, 551095, Note_on_c, 0, 81, 0
2, 551095, Note_on_c, 0, 77, 0
2, 551160, Note_on_c, 0, 69, 21
2, 551160, Note_on_c, 0, 53, 21
2, 551160, Note_on_c, 0, 50, 21
2, 551215, Note_on_c, 0, 50, 0
2, 551215, Note_on_c, 0, 69, 0
2, 551215, Note_on_c, 0, 53, 0
2, 551280, Note_on_c, 0, 55, 21
2, 551280, Note_on_c, 0, 52, 21
2, 551335, Note_on_c, 0, 52, 0
2, 551335, Note_on_c, 0, 55, 0
2, 551340, Note_on_c, 0, 57, 21
2, 551395, Note_on_c, 0, 57, 0
2, 551400, Note_on_c, 0, 57, 21
2, 551400, Note_on_c, 0, 53, 21
2, 551455, Note_on_c, 0, 53, 0
2, 551455, Note_on_c, 0, 57, 0
2, 551520, Note_on_c, 0, 69, 21
2, 551520, Note_on_c, 0, 61, 21
2, 551520, Note_on_c, 0, 52, 21
2, 551535, Note_on_c, 0, 89, 0
2, 551535, Note_on_c, 0, 77, 0
2, 551575, Note_on_c, 0, 61, 0
2, 551575, Note_on_c, 0, 69, 0
2, 551575, Note_on_c, 0, 52, 0
2, 551640, Note_on_c, 0, 62, 21
2, 551640, Note_on_c, 0, 53, 21
2, 551695, Note_on_c, 0, 53, 0
2, 551695, Note_on_c, 0, 62, 0
2, 551700, Note_on_c, 0, 57, 21
2, 551755, Note_on_c, 0, 57, 0
2, 551760, Note_on_c, 0, 57, 21
2, 551760, Note_on_c, 0, 64, 21
2, 551760, Note_on_c, 0, 55, 21
2, 551815, Note_on_c, 0, 55, 0
2, 551815, Note_on_c, 0, 64, 0
2, 551815, Note_on_c, 0, 57, 0
2, 551880, Note_on_c, 0, 81, 21
2, 551880, Note_on_c, 0, 62, 21
2, 551880, Note_on_c, 0, 53, 21
2, 551935, Note_on_c, 0, 53, 0
2, 551935, Note_on_c, 0, 62, 0
2, 551935, Note_on_c, 0, 81, 0
2, 552000, Note_on_c, 0, 61, 21
2, 552000, Note_on_c, 0, 52, 21
2, 552055, Note_on_c, 0, 52, 0
2, 552055, Note_on_c, 0, 61, 0
2, 552060, Note_on_c, 0, 69, 21
2, 552115, Note_on_c, 0, 69, 0
2, 552120, Note_on_c, 0, 69, 21
2, 552120, Note_on_c, 0, 62, 21
2, 552120, Note_on_c, 0, 53, 21
2, 552175, Note_on_c, 0, 53, 0
2, 552175, Note_on_c, 0, 62, 0
2, 552175, Note_on_c, 0, 69, 0
2, 552240, Note_on_c, 0, 79, 21
2, 552240, Note_on_c, 0, 50, 21
2, 552240, Note_on_c, 0, 47, 21
2, 552295, Note_on_c, 0, 47, 0
2, 552295, Note_on_c, 0, 50, 0
2, 552295, Note_on_c, 0, 79, 0
2, 552360, Note_on_c, 0, 51, 21
2, 552360, Note_on_c, 0, 48, 21
2, 552415, Note_on_c, 0, 48, 0
2, 552415, Note_on_c, 0, 51, 0
2, 552420, Note_on_c, 0, 67, 21
2, 552475, Note_on_c, 0, 67, 0
2, 552480, Note_on_c, 0, 67, 21
2, 552480, Note_on_c, 0, 53, 21
2, 552480, Note_on_c, 0, 50, 21
2, 552535, Note_on_c, 0, 50, 0
2, 552535, Note_on_c, 0, 53, 0
2, 552535, Note_on_c, 0, 67, 0
2, 552600, Note_on_c, 0, 67, 21
2, 552600, Note_on_c, 0, 60, 21
2, 552600, Note_on_c, 0, 51, 21
2, 552655, Note_on_c, 0, 51, 0
2, 552655, Note_on_c, 0, 60, 0
2, 552655, Note_on_c, 0, 67, 0
2, 552720, Note_on_c, 0, 59, 21
2, 552720, Note_on_c, 0, 50, 21
2, 552775, Note_on_c, 0, 50, 0
2, 552775, Note_on_c, 0, 59, 0
2, 552780, Note_on_c, 0, 55, 21
2, 552835, Note_on_c, 0, 55, 0
2, 552840, Note_on_c, 0, 55, 21
2, 552840, Note_on_c, 0, 60, 21
2, 552840, Note_on_c, 0, 51, 21
2, 552895, Note_on_c, 0, 51, 0
2, 552895, Note_on_c, 0, 60, 0
2, 552895, Note_on_c, 0, 55, 0
2, 552960, Note_on_c, 0, 67, 21
2, 552960, Note_on_c, 0, 62, 21
2, 552960, Note_on_c, 0, 59, 21
2, 553015, Note_on_c, 0, 59, 0
2, 553015, Note_on_c, 0, 62, 0
2, 553015, Note_on_c, 0, 67, 0
2, 553080, Note_on_c, 0, 63, 21
2, 553080, Note_on_c, 0, 60, 21
2, 553135, Note_on_c, 0, 60, 0
2, 553135, Note_on_c, 0, 63, 0
2, 553140, Note_on_c, 0, 55, 21
2, 553195, Note_on_c, 0, 55, 0
2, 553200, Note_on_c, 0, 55, 21
2, 553200, Note_on_c, 0, 65, 21
2, 553200, Note_on_c, 0, 62, 21
2, 553255, Note_on_c, 0, 62, 0
2, 553255, Note_on_c, 0, 65, 0
2, 553255, Note_on_c, 0, 55, 0
2, 553320, Note_on_c, 0, 79, 21
2, 553320, Note_on_c, 0, 63, 21
2, 553320, Note_on_c, 0, 60, 21
2, 553375, Note_on_c, 0, 60, 0
2, 553375, Note_on_c, 0, 63, 0
2, 553375, Note_on_c, 0, 79, 0
2, 553440, Note_on_c, 0, 62, 21
2, 553440, Note_on_c, 0, 59, 21
2, 553495, Note_on_c, 0, 59, 0
2, 553495, Note_on_c, 0, 62, 0
2, 553500, Note_on_c, 0, 67, 21
2, 553555, Note_on_c, 0, 67, 0
2, 553560, Note_on_c, 0, 67, 21
2, 553560, Note_on_c, 0, 63, 21
2, 553560, Note_on_c, 0, 60, 21
2, 553615, Note_on_c, 0, 60, 0
2, 553615, Note_on_c, 0, 63, 0
2, 553615, Note_on_c, 0, 67, 0
2, 553680, Note_on_c, 0, 68, 21
2, 553680, Note_on_c, 0, 74, 21
2, 553680, Note_on_c, 0, 65, 21
2, 553680, Note_on_c, 0, 58, 21
2, 553735, Note_on_c, 0, 58, 0
2, 553735, Note_on_c, 0, 68, 0
2, 553735, Note_on_c, 0, 74, 0
2, 553735, Note_on_c, 0, 65, 0
2, 553800, Note_on_c, 0, 75, 21
2, 553800, Note_on_c, 0, 67, 21
2, 553855, Note_on_c, 0, 67, 0
2, 553855, Note_on_c, 0, 75, 0
2, 553860, Note_on_c, 0, 46, 21
2, 553915, Note_on_c, 0, 46, 0
2, 553920, Note_on_c, 0, 77, 21
2, 553920, Note_on_c, 0, 69, 21
2, 553920, Note_on_c, 0, 46, 21
2, 553975, Note_on_c, 0, 46, 0
2, 553975, Note_on_c, 0, 69, 0
2, 553975, Note_on_c, 0, 77, 0
2, 554040, Note_on_c, 0, 75, 21
2, 554040, Note_on_c, 0, 67, 21
2, 554040, Note_on_c, 0, 46, 21
2, 554095, Note_on_c, 0, 46, 0
2, 554095, Note_on_c, 0, 67, 0
2, 554095, Note_on_c, 0, 75, 0
2, 554160, Note_on_c, 0, 74, 21
2, 554160, Note_on_c, 0, 65, 21
2, 554215, Note_on_c, 0, 65, 0
2, 554215, Note_on_c, 0, 74, 0
2, 554220, Note_on_c, 0, 34, 21
2, 554275, Note_on_c, 0, 34, 0
2, 554280, Note_on_c, 0, 75, 21
2, 554280, Note_on_c, 0, 67, 21
2, 554280, Note_on_c, 0, 34, 21
2, 554335, Note_on_c, 0, 34, 0
2, 554335, Note_on_c, 0, 67, 0
2, 554335, Note_on_c, 0, 75, 0
2, 554400, Note_on_c, 0, 68, 21
2, 554400, Note_on_c, 0, 74, 21
2, 554400, Note_on_c, 0, 65, 21
2, 554400, Note_on_c, 0, 58, 21
2, 554455, Note_on_c, 0, 58, 0
2, 554455, Note_on_c, 0, 68, 0
2, 554455, Note_on_c, 0, 74, 0
2, 554455, Note_on_c, 0, 65, 0
2, 554520, Note_on_c, 0, 75, 21
2, 554520, Note_on_c, 0, 67, 21
2, 554575, Note_on_c, 0, 67, 0
2, 554575, Note_on_c, 0, 75, 0
2, 554580, Note_on_c, 0, 46, 21
2, 554635, Note_on_c, 0, 46, 0
2, 554640, Note_on_c, 0, 77, 21
2, 554640, Note_on_c, 0, 69, 21
2, 554640, Note_on_c, 0, 46, 21
2, 554695, Note_on_c, 0, 46, 0
2, 554695, Note_on_c, 0, 69, 0
2, 554695, Note_on_c, 0, 77, 0
2, 554760, Note_on_c, 0, 75, 21
2, 554760, Note_on_c, 0, 67, 21
2, 554760, Note_on_c, 0, 70, 21
2, 554815, Note_on_c, 0, 70, 0
2, 554815, Note_on_c, 0, 67, 0
2, 554815, Note_on_c, 0, 75, 0
2, 554880, Note_on_c, 0, 74, 21
2, 554880, Note_on_c, 0, 65, 21
2, 554935, Note_on_c, 0, 65, 0
2, 554935, Note_on_c, 0, 74, 0
2, 554940, Note_on_c, 0, 58, 21
2, 554995, Note_on_c, 0, 58, 0
2, 555000, Note_on_c, 0, 75, 21
2, 555000, Note_on_c, 0, 67, 21
2, 555000, Note_on_c, 0, 58, 21
2, 555055, Note_on_c, 0, 58, 0
2, 555055, Note_on_c, 0, 67, 0
2, 555055, Note_on_c, 0, 75, 0
2, 555120, Note_on_c, 0, 82, 21
2, 555120, Note_on_c, 0, 70, 21
2, 555120, Note_on_c, 0, 65, 21
2, 555120, Note_on_c, 0, 62, 21
2, 555175, Note_on_c, 0, 62, 0
2, 555175, Note_on_c, 0, 82, 0
2, 555175, Note_on_c, 0, 70, 0
2, 555175, Note_on_c, 0, 65, 0
2, 555240, Note_on_c, 0, 67, 21
2, 555240, Note_on_c, 0, 63, 21
2, 555295, Note_on_c, 0, 63, 0
2, 555295, Note_on_c, 0, 67, 0
2, 555300, Note_on_c, 0, 70, 21
2, 555355, Note_on_c, 0, 70, 0
2, 555360, Note_on_c, 0, 70, 21
2, 555360, Note_on_c, 0, 68, 21
2, 555360, Note_on_c, 0, 65, 21
2, 555415, Note_on_c, 0, 65, 0
2, 555415, Note_on_c, 0, 68, 0
2, 555415, Note_on_c, 0, 70, 0
2, 555480, Note_on_c, 0, 70, 21
2, 555480, Note_on_c, 0, 75, 21
2, 555480, Note_on_c, 0, 67, 21
2, 555480, Note_on_c, 0, 58, 21
2, 555535, Note_on_c, 0, 58, 0
2, 555535, Note_on_c, 0, 70, 0
2, 555535, Note_on_c, 0, 75, 0
2, 555535, Note_on_c, 0, 67, 0
2, 555600, Note_on_c, 0, 74, 21
2, 555600, Note_on_c, 0, 77, 21
2, 555600, Note_on_c, 0, 68, 21
2, 555655, Note_on_c, 0, 68, 0
2, 555655, Note_on_c, 0, 77, 0
2, 555655, Note_on_c, 0, 74, 0
2, 555660, Note_on_c, 0, 46, 21
2, 555715, Note_on_c, 0, 46, 0
2, 555720, Note_on_c, 0, 75, 21
2, 555720, Note_on_c, 0, 79, 21
2, 555720, Note_on_c, 0, 67, 21
2, 555720, Note_on_c, 0, 46, 21
2, 555775, Note_on_c, 0, 46, 0
2, 555775, Note_on_c, 0, 75, 0
2, 555775, Note_on_c, 0, 79, 0
2, 555775, Note_on_c, 0, 67, 0
2, 555840, Note_on_c, 0, 74, 21
2, 555840, Note_on_c, 0, 80, 21
2, 555840, Note_on_c, 0, 68, 21
2, 555840, Note_on_c, 0, 53, 21
2, 555840, Note_on_c, 0, 46, 21
2, 555895, Note_on_c, 0, 46, 0
2, 555895, Note_on_c, 0, 53, 0
2, 556020, Note_on_c, 0, 41, 21
2, 556020, Note_on_c, 0, 34, 21
2, 556075, Note_on_c, 0, 34, 0
2, 556075, Note_on_c, 0, 41, 0
2, 556080, Note_on_c, 0, 41, 21
2, 556080, Note_on_c, 0, 34, 21
2, 556135, Note_on_c, 0, 34, 0
2, 556135, Note_on_c, 0, 41, 0
2, 556200, Note_on_c, 0, 58, 21
2, 556255, Note_on_c, 0, 58, 0
2, 556380, Note_on_c, 0, 46, 21
2, 556435, Note_on_c, 0, 46, 0
2, 556440, Note_on_c, 0, 46, 21
2, 556495, Note_on_c, 0, 46, 0
2, 556560, Note_on_c, 0, 53, 21
2, 556560, Note_on_c, 0, 56, 21
2, 556560, Note_on_c, 0, 46, 21
2, 556560, Note_on_c, 0, 62, 21
2, 556615, Note_on_c, 0, 62, 0
2, 556740, Note_on_c, 0, 50, 21
2, 556795, Note_on_c, 0, 50, 0
2, 556800, Note_on_c, 0, 50, 21
2, 556855, Note_on_c, 0, 50, 0
2, 556920, Note_on_c, 0, 65, 21
2, 556975, Note_on_c, 0, 65, 0
2, 557100, Note_on_c, 0, 53, 21
2, 557155, Note_on_c, 0, 53, 0
2, 557160, Note_on_c, 0, 68, 0
2, 557160, Note_on_c, 0, 74, 0
2, 557160, Note_on_c, 0, 80, 0
2, 557160, Note_on_c, 0, 53, 21
2, 557215, Note_on_c, 0, 53, 0
2, 557280, Note_on_c, 0, 46, 0
2, 557280, Note_on_c, 0, 56, 0
2, 557280, Note_on_c, 0, 53, 0
2, 557280, Note_on_c, 0, 79, 37
2, 557280, Note_on_c, 0, 70, 37
2, 557280, Note_on_c, 0, 63, 37
2, 557280, Note_on_c, 0, 58, 37
2, 557335, Note_on_c, 0, 58, 0
2, 557335, Note_on_c, 0, 79, 0
2, 557335, Note_on_c, 0, 70, 0
2, 557335, Note_on_c, 0, 63, 0
2, 557400, Note_on_c, 0, 77, 37
2, 557400, Note_on_c, 0, 68, 37
2, 557455, Note_on_c, 0, 68, 0
2, 557455, Note_on_c, 0, 77, 0
2, 557460, Note_on_c, 0, 46, 37
2, 557515, Note_on_c, 0, 46, 0
2, 557520, Note_on_c, 0, 75, 37
2, 557520, Note_on_c, 0, 67, 37
2, 557520, Note_on_c, 0, 46, 37
2, 557575, Note_on_c, 0, 46, 0
2, 557575, Note_on_c, 0, 67, 0
2, 557575, Note_on_c, 0, 75, 0
2, 557640, Note_on_c, 0, 79, 37
2, 557640, Note_on_c, 0, 82, 37
2, 557640, Note_on_c, 0, 70, 37
2, 557640, Note_on_c, 0, 63, 37
2, 557640, Note_on_c, 0, 58, 37
2, 557695, Note_on_c, 0, 58, 0
2, 557695, Note_on_c, 0, 70, 0
2, 557695, Note_on_c, 0, 79, 0
2, 557695, Note_on_c, 0, 82, 0
2, 557695, Note_on_c, 0, 63, 0
2, 557760, Note_on_c, 0, 80, 37
2, 557760, Note_on_c, 0, 77, 37
2, 557815, Note_on_c, 0, 77, 0
2, 557815, Note_on_c, 0, 80, 0
2, 557820, Note_on_c, 0, 46, 37
2, 557875, Note_on_c, 0, 46, 0
2, 557880, Note_on_c, 0, 79, 37
2, 557880, Note_on_c, 0, 75, 37
2, 557880, Note_on_c, 0, 46, 37
2, 557935, Note_on_c, 0, 46, 0
2, 557935, Note_on_c, 0, 75, 0
2, 557935, Note_on_c, 0, 79, 0
2, 558000, Note_on_c, 0, 79, 37
2, 558000, Note_on_c, 0, 70, 37
2, 558000, Note_on_c, 0, 63, 37
2, 558000, Note_on_c, 0, 58, 37
2, 558055, Note_on_c, 0, 58, 0
2, 558055, Note_on_c, 0, 79, 0
2, 558055, Note_on_c, 0, 70, 0
2, 558055, Note_on_c, 0, 63, 0
2, 558120, Note_on_c, 0, 77, 37
2, 558120, Note_on_c, 0, 68, 37
2, 558175, Note_on_c, 0, 68, 0
2, 558175, Note_on_c, 0, 77, 0
2, 558180, Note_on_c, 0, 46, 37
2, 558235, Note_on_c, 0, 46, 0
2, 558240, Note_on_c, 0, 75, 37
2, 558240, Note_on_c, 0, 67, 37
2, 558240, Note_on_c, 0, 46, 37
2, 558295, Note_on_c, 0, 46, 0
2, 558295, Note_on_c, 0, 67, 0
2, 558295, Note_on_c, 0, 75, 0
2, 558360, Note_on_c, 0, 79, 37
2, 558360, Note_on_c, 0, 82, 37
2, 558360, Note_on_c, 0, 70, 37
2, 558360, Note_on_c, 0, 63, 37
2, 558360, Note_on_c, 0, 58, 37
2, 558415, Note_on_c, 0, 58, 0
2, 558415, Note_on_c, 0, 70, 0
2, 558415, Note_on_c, 0, 79, 0
2, 558415, Note_on_c, 0, 82, 0
2, 558415, Note_on_c, 0, 63, 0
2, 558480, Note_on_c, 0, 80, 37
2, 558480, Note_on_c, 0, 77, 37
2, 558535, Note_on_c, 0, 77, 0
2, 558535, Note_on_c, 0, 80, 0
2, 558540, Note_on_c, 0, 46, 37
2, 558595, Note_on_c, 0, 46, 0
2, 558600, Note_on_c, 0, 79, 37
2, 558600, Note_on_c, 0, 75, 37
2, 558600, Note_on_c, 0, 46, 37
2, 558655, Note_on_c, 0, 46, 0
2, 558655, Note_on_c, 0, 75, 0
2, 558655, Note_on_c, 0, 79, 0
2, 558720, Note_on_c, 0, 74, 46
2, 558720, Note_on_c, 0, 80, 46
2, 558720, Note_on_c, 0, 68, 46
2, 558720, Note_on_c, 0, 53, 42
2, 558720, Note_on_c, 0, 46, 42
2, 558775, Note_on_c, 0, 46, 0
2, 558775, Note_on_c, 0, 53, 0
2, 558900, Note_on_c, 0, 41, 43
2, 558900, Note_on_c, 0, 34, 43
2, 558955, Note_on_c, 0, 34, 0
2, 558955, Note_on_c, 0, 41, 0
2, 558960, Note_on_c, 0, 41, 46
2, 558960, Note_on_c, 0, 34, 46
2, 559015, Note_on_c, 0, 34, 0
2, 559015, Note_on_c, 0, 41, 0
2, 559080, Note_on_c, 0, 58, 51
2, 559135, Note_on_c, 0, 58, 0
2, 559260, Note_on_c, 0, 46, 53
2, 559315, Note_on_c, 0, 46, 0
2, 559320, Note_on_c, 0, 46, 56
2, 559375, Note_on_c, 0, 46, 0
2, 559440, Note_on_c, 0, 53, 65
2, 559440, Note_on_c, 0, 56, 65
2, 559440, Note_on_c, 0, 46, 65
2, 559440, Note_on_c, 0, 62, 61
2, 559495, Note_on_c, 0, 62, 0
2, 559620, Note_on_c, 0, 50, 62
2, 559675, Note_on_c, 0, 50, 0
2, 559680, Note_on_c, 0, 50, 65
2, 559735, Note_on_c, 0, 50, 0
2, 559800, Note_on_c, 0, 65, 70
2, 559855, Note_on_c, 0, 65, 0
2, 559980, Note_on_c, 0, 53, 72
2, 560035, Note_on_c, 0, 53, 0
2, 560040, Note_on_c, 0, 56, 0
2, 560040, Note_on_c, 0, 80, 0
2, 560040, Note_on_c, 0, 68, 0
2, 560040, Note_on_c, 0, 74, 0
2, 560040, Note_on_c, 0, 46, 0
2, 560040, Note_on_c, 0, 53, 75
2, 560095, Note_on_c, 0, 53, 0
2, 560160, Note_on_c, 0, 74, 84
2, 560160, Note_on_c, 0, 81, 84
2, 560160, Note_on_c, 0, 69, 84
2, 560160, Note_on_c, 0, 53, 79
2, 560160, Note_on_c, 0, 57, 79
2, 560160, Note_on_c, 0, 45, 79
2, 560215, Note_on_c, 0, 45, 0
2, 560215, Note_on_c, 0, 53, 0
2, 560215, Note_on_c, 0, 57, 0
2, 560340, Note_on_c, 0, 41, 81
2, 560340, Note_on_c, 0, 33, 81
2, 560395, Note_on_c, 0, 33, 0
2, 560395, Note_on_c, 0, 41, 0
2, 560400, Note_on_c, 0, 41, 84
2, 560400, Note_on_c, 0, 33, 84
2, 560455, Note_on_c, 0, 33, 0
2, 560455, Note_on_c, 0, 41, 0
2, 560520, Note_on_c, 0, 57, 89
2, 560575, Note_on_c, 0, 57, 0
2, 560700, Note_on_c, 0, 45, 90
2, 560755, Note_on_c, 0, 45, 0
2, 560760, Note_on_c, 0, 45, 93
2, 560815, Note_on_c, 0, 45, 0
2, 560880, Note_on_c, 0, 53, 103
2, 560880, Note_on_c, 0, 57, 103
2, 560880, Note_on_c, 0, 45, 103
2, 560880, Note_on_c, 0, 62, 98
2, 560935, Note_on_c, 0, 62, 0
2, 561060, Note_on_c, 0, 50, 100
2, 561115, Note_on_c, 0, 50, 0
2, 561120, Note_on_c, 0, 50, 103
2, 561175, Note_on_c, 0, 50, 0
2, 561240, Note_on_c, 0, 65, 108
2, 561295, Note_on_c, 0, 65, 0
2, 561420, Note_on_c, 0, 53, 109
2, 561475, Note_on_c, 0, 53, 0
2, 561480, Note_on_c, 0, 69, 0
2, 561480, Note_on_c, 0, 57, 0
2, 561480, Note_on_c, 0, 81, 0
2, 561480, Note_on_c, 0, 74, 0
2, 561480, Note_on_c, 0, 45, 0
2, 561480, Note_on_c, 0, 53, 112
2, 561535, Note_on_c, 0, 53, 0
2, 561600, Note_on_c, 0, 74, 117
2, 561600, Note_on_c, 0, 81, 117
2, 561600, Note_on_c, 0, 69, 117
2, 561600, Note_on_c, 0, 53, 117
2, 561600, Note_on_c, 0, 57, 117
2, 561600, Note_on_c, 0, 45, 117
2, 561655, Note_on_c, 0, 45, 0
2, 561655, Note_on_c, 0, 57, 0
2, 561655, Note_on_c, 0, 53, 0
2, 561655, Note_on_c, 0, 81, 0
2, 561655, Note_on_c, 0, 74, 0
2, 561655, Note_on_c, 0, 69, 0
2, 561780, Note_on_c, 0, 62, 117
2, 561780, Note_on_c, 0, 45, 117
2, 561780, Note_on_c, 0, 50, 117
2, 561780, Note_on_c, 0, 53, 117
2, 561780, Note_on_c, 0, 57, 117
2, 561780, Note_on_c, 0, 41, 117
2, 561835, Note_on_c, 0, 41, 0
2, 561835, Note_on_c, 0, 57, 0
2, 561835, Note_on_c, 0, 53, 0
2, 561835, Note_on_c, 0, 45, 0
2, 561835, Note_on_c, 0, 62, 0
2, 561835, Note_on_c, 0, 50, 0
2, 561840, Note_on_c, 0, 62, 117
2, 561840, Note_on_c, 0, 45, 117
2, 561840, Note_on_c, 0, 50, 117
2, 561840, Note_on_c, 0, 53, 117
2, 561840, Note_on_c, 0, 57, 117
2, 561840, Note_on_c, 0, 41, 117
2, 561895, Note_on_c, 0, 41, 0
2, 561895, Note_on_c, 0, 57, 0
2, 561895, Note_on_c, 0, 53, 0
2, 561895, Note_on_c, 0, 45, 0
2, 561895, Note_on_c, 0, 62, 0
2, 561895, Note_on_c, 0, 50, 0
2, 561960, Note_on_c, 0, 69, 117
2, 561960, Note_on_c, 0, 74, 117
2, 561960, Note_on_c, 0, 65, 117
2, 561960, Note_on_c, 0, 57, 117
2, 561960, Note_on_c, 0, 62, 117
2, 561960, Note_on_c, 0, 53, 117
2, 562015, Note_on_c, 0, 62, 0
2, 562015, Note_on_c, 0, 74, 0
2, 562015, Note_on_c, 0, 65, 0
2, 562015, Note_on_c, 0, 53, 0
2, 562015, Note_on_c, 0, 69, 0
2, 562015, Note_on_c, 0, 57, 0
2, 562140, Note_on_c, 0, 62, 117
2, 562140, Note_on_c, 0, 45, 117
2, 562140, Note_on_c, 0, 50, 117
2, 562140, Note_on_c, 0, 53, 117
2, 562140, Note_on_c, 0, 57, 117
2, 562140, Note_on_c, 0, 41, 117
2, 562195, Note_on_c, 0, 41, 0
2, 562195, Note_on_c, 0, 57, 0
2, 562195, Note_on_c, 0, 53, 0
2, 562195, Note_on_c, 0, 45, 0
2, 562195, Note_on_c, 0, 62, 0
2, 562195, Note_on_c, 0, 50, 0
2, 562200, Note_on_c, 0, 62, 117
2, 562200, Note_on_c, 0, 45, 117
2, 562200, Note_on_c, 0, 50, 117
2, 562200, Note_on_c, 0, 53, 117
2, 562200, Note_on_c, 0, 57, 117
2, 562200, Note_on_c, 0, 41, 117
2, 562255, Note_on_c, 0, 41, 0
2, 562255, Note_on_c, 0, 57, 0
2, 562255, Note_on_c, 0, 53, 0
2, 562255, Note_on_c, 0, 45, 0
2, 562255, Note_on_c, 0, 62, 0
2, 562255, Note_on_c, 0, 50, 0
2, 562320, Note_on_c, 0, 74, 117
2, 562320, Note_on_c, 0, 81, 117
2, 562320, Note_on_c, 0, 69, 117
2, 562320, Note_on_c, 0, 53, 117
2, 562320, Note_on_c, 0, 57, 117
2, 562320, Note_on_c, 0, 45, 117
2, 562375, Note_on_c, 0, 45, 0
2, 562375, Note_on_c, 0, 57, 0
2, 562375, Note_on_c, 0, 53, 0
2, 562375, Note_on_c, 0, 81, 0
2, 562375, Note_on_c, 0, 74, 0
2, 562375, Note_on_c, 0, 69, 0
2, 562500, Note_on_c, 0, 62, 117
2, 562500, Note_on_c, 0, 45, 117
2, 562500, Note_on_c, 0, 50, 117
2, 562500, Note_on_c, 0, 53, 117
2, 562500, Note_on_c, 0, 57, 117
2, 562500, Note_on_c, 0, 41, 117
2, 562555, Note_on_c, 0, 41, 0
2, 562555, Note_on_c, 0, 57, 0
2, 562555, Note_on_c, 0, 53, 0
2, 562555, Note_on_c, 0, 45, 0
2, 562555, Note_on_c, 0, 62, 0
2, 562555, Note_on_c, 0, 50, 0
2, 562560, Note_on_c, 0, 62, 117
2, 562560, Note_on_c, 0, 45, 117
2, 562560, Note_on_c, 0, 50, 117
2, 562560, Note_on_c, 0, 53, 117
2, 562560, Note_on_c, 0, 57, 117
2, 562560, Note_on_c, 0, 41, 117
2, 562615, Note_on_c, 0, 41, 0
2, 562615, Note_on_c, 0, 57, 0
2, 562615, Note_on_c, 0, 53, 0
2, 562615, Note_on_c, 0, 45, 0
2, 562615, Note_on_c, 0, 62, 0
2, 562615, Note_on_c, 0, 50, 0
2, 562680, Note_on_c, 0, 69, 117
2, 562680, Note_on_c, 0, 74, 117
2, 562680, Note_on_c, 0, 65, 117
2, 562680, Note_on_c, 0, 57, 117
2, 562680, Note_on_c, 0, 62, 117
2, 562680, Note_on_c, 0, 53, 117
2, 562735, Note_on_c, 0, 62, 0
2, 562735, Note_on_c, 0, 74, 0
2, 562735, Note_on_c, 0, 65, 0
2, 562735, Note_on_c, 0, 53, 0
2, 562735, Note_on_c, 0, 69, 0
2, 562735, Note_on_c, 0, 57, 0
2, 562860, Note_on_c, 0, 62, 117
2, 562860, Note_on_c, 0, 45, 117
2, 562860, Note_on_c, 0, 50, 117
2, 562860, Note_on_c, 0, 53, 117
2, 562860, Note_on_c, 0, 57, 117
2, 562860, Note_on_c, 0, 41, 117
2, 562915, Note_on_c, 0, 41, 0
2, 562915, Note_on_c, 0, 57, 0
2, 562915, Note_on_c, 0, 53, 0
2, 562915, Note_on_c, 0, 45, 0
2, 562915, Note_on_c, 0, 62, 0
2, 562915, Note_on_c, 0, 50, 0
2, 562920, Note_on_c, 0, 62, 117
2, 562920, Note_on_c, 0, 45, 117
2, 562920, Note_on_c, 0, 50, 117
2, 562920, Note_on_c, 0, 53, 117
2, 562920, Note_on_c, 0, 57, 117
2, 562920, Note_on_c, 0, 41, 117
2, 562975, Note_on_c, 0, 41, 0
2, 562975, Note_on_c, 0, 57, 0
2, 562975, Note_on_c, 0, 53, 0
2, 562975, Note_on_c, 0, 45, 0
2, 562975, Note_on_c, 0, 62, 0
2, 562975, Note_on_c, 0, 50, 0
2, 563040, Note_on_c, 0, 86, 117
2, 563040, Note_on_c, 0, 89, 117
2, 563040, Note_on_c, 0, 93, 117
2, 563040, Note_on_c, 0, 81, 117
2, 563040, Note_on_c, 0, 45, 117
2, 563040, Note_on_c, 0, 50, 117
2, 563040, Note_on_c, 0, 38, 117
2, 563095, Note_on_c, 0, 38, 0
2, 563095, Note_on_c, 0, 89, 0
2, 563095, Note_on_c, 0, 50, 0
2, 563095, Note_on_c, 0, 93, 0
2, 563095, Note_on_c, 0, 45, 0
2, 563095, Note_on_c, 0, 86, 0
2, 563095, Note_on_c, 0, 81, 0
2, 563220, Note_on_c, 0, 74, 117
2, 563220, Note_on_c, 0, 81, 117
2, 563220, Note_on_c, 0, 69, 117
2, 563220, Note_on_c, 0, 57, 117
2, 563220, Note_on_c, 0, 62, 117
2, 563220, Note_on_c, 0, 53, 117
2, 563275, Note_on_c, 0, 62, 0
2, 563275, Note_on_c, 0, 81, 0
2, 563275, Note_on_c, 0, 69, 0
2, 563275, Note_on_c, 0, 53, 0
2, 563275, Note_on_c, 0, 74, 0
2, 563275, Note_on_c, 0, 57, 0
2, 563280, Note_on_c, 0, 74, 117
2, 563280, Note_on_c, 0, 81, 117
2, 563280, Note_on_c, 0, 69, 117
2, 563280, Note_on_c, 0, 57, 117
2, 563280, Note_on_c, 0, 62, 117
2, 563280, Note_on_c, 0, 53, 117
2, 563335, Note_on_c, 0, 62, 0
2, 563335, Note_on_c, 0, 81, 0
2, 563335, Note_on_c, 0, 69, 0
2, 563335, Note_on_c, 0, 53, 0
2, 563335, Note_on_c, 0, 74, 0
2, 563335, Note_on_c, 0, 57, 0
2, 563400, Note_on_c, 0, 86, 117
2, 563400, Note_on_c, 0, 89, 117
2, 563400, Note_on_c, 0, 93, 117
2, 563400, Note_on_c, 0, 81, 117
2, 563400, Note_on_c, 0, 45, 117
2, 563400, Note_on_c, 0, 50, 117
2, 563400, Note_on_c, 0, 38, 117
2, 563455, Note_on_c, 0, 38, 0
2, 563455, Note_on_c, 0, 89, 0
2, 563455, Note_on_c, 0, 50, 0
2, 563455, Note_on_c, 0, 93, 0
2, 563455, Note_on_c, 0, 45, 0
2, 563455, Note_on_c, 0, 86, 0
2, 563455, Note_on_c, 0, 81, 0
2, 563580, Note_on_c, 0, 74, 117
2, 563580, Note_on_c, 0, 81, 117
2, 563580, Note_on_c, 0, 69, 117
2, 563580, Note_on_c, 0, 57, 117
2, 563580, Note_on_c, 0, 62, 117
2, 563580, Note_on_c, 0, 53, 117
2, 563635, Note_on_c, 0, 62, 0
2, 563635, Note_on_c, 0, 81, 0
2, 563635, Note_on_c, 0, 69, 0
2, 563635, Note_on_c, 0, 53, 0
2, 563635, Note_on_c, 0, 74, 0
2, 563635, Note_on_c, 0, 57, 0
2, 563640, Note_on_c, 0, 74, 117
2, 563640, Note_on_c, 0, 81, 117
2, 563640, Note_on_c, 0, 69, 117
2, 563640, Note_on_c, 0, 57, 117
2, 563640, Note_on_c, 0, 62, 117
2, 563640, Note_on_c, 0, 53, 117
2, 563695, Note_on_c, 0, 62, 0
2, 563695, Note_on_c, 0, 81, 0
2, 563695, Note_on_c, 0, 69, 0
2, 563695, Note_on_c, 0, 53, 0
2, 563695, Note_on_c, 0, 74, 0
2, 563695, Note_on_c, 0, 57, 0
2, 563760, Note_on_c, 0, 86, 117
2, 563760, Note_on_c, 0, 89, 117
2, 563760, Note_on_c, 0, 93, 117
2, 563760, Note_on_c, 0, 81, 117
2, 563760, Note_on_c, 0, 45, 117
2, 563760, Note_on_c, 0, 50, 117
2, 563760, Note_on_c, 0, 38, 117
2, 563815, Note_on_c, 0, 38, 0
2, 563815, Note_on_c, 0, 89, 0
2, 563815, Note_on_c, 0, 50, 0
2, 563815, Note_on_c, 0, 93, 0
2, 563815, Note_on_c, 0, 45, 0
2, 563815, Note_on_c, 0, 86, 0
2, 563815, Note_on_c, 0, 81, 0
2, 563940, Note_on_c, 0, 74, 117
2, 563940, Note_on_c, 0, 81, 117
2, 563940, Note_on_c, 0, 69, 117
2, 563940, Note_on_c, 0, 57, 117
2, 563940, Note_on_c, 0, 62, 117
2, 563940, Note_on_c, 0, 53, 117
2, 563995, Note_on_c, 0, 62, 0
2, 563995, Note_on_c, 0, 81, 0
2, 563995, Note_on_c, 0, 69, 0
2, 563995, Note_on_c, 0, 53, 0
2, 563995, Note_on_c, 0, 74, 0
2, 563995, Note_on_c, 0, 57, 0
2, 564000, Note_on_c, 0, 74, 117
2, 564000, Note_on_c, 0, 81, 117
2, 564000, Note_on_c, 0, 69, 117
2, 564000, Note_on_c, 0, 57, 117
2, 564000, Note_on_c, 0, 62, 117
2, 564000, Note_on_c, 0, 53, 117
2, 564055, Note_on_c, 0, 62, 0
2, 564055, Note_on_c, 0, 81, 0
2, 564055, Note_on_c, 0, 69, 0
2, 564055, Note_on_c, 0, 53, 0
2, 564055, Note_on_c, 0, 74, 0
2, 564055, Note_on_c, 0, 57, 0
2, 564120, Note_on_c, 0, 86, 117
2, 564120, Note_on_c, 0, 89, 117
2, 564120, Note_on_c, 0, 93, 117
2, 564120, Note_on_c, 0, 81, 117
2, 564120, Note_on_c, 0, 45, 117
2, 564120, Note_on_c, 0, 50, 117
2, 564120, Note_on_c, 0, 38, 117
2, 564175, Note_on_c, 0, 38, 0
2, 564175, Note_on_c, 0, 89, 0
2, 564175, Note_on_c, 0, 50, 0
2, 564175, Note_on_c, 0, 93, 0
2, 564175, Note_on_c, 0, 45, 0
2, 564175, Note_on_c, 0, 86, 0
2, 564175, Note_on_c, 0, 81, 0
2, 564300, Note_on_c, 0, 74, 117
2, 564300, Note_on_c, 0, 81, 117
2, 564300, Note_on_c, 0, 69, 117
2, 564300, Note_on_c, 0, 57, 117
2, 564300, Note_on_c, 0, 62, 117
2, 564300, Note_on_c, 0, 53, 117
2, 564355, Note_on_c, 0, 62, 0
2, 564355, Note_on_c, 0, 81, 0
2, 564355, Note_on_c, 0, 69, 0
2, 564355, Note_on_c, 0, 53, 0
2, 564355, Note_on_c, 0, 74, 0
2, 564355, Note_on_c, 0, 57, 0
2, 564360, Note_on_c, 0, 74, 117
2, 564360, Note_on_c, 0, 81, 117
2, 564360, Note_on_c, 0, 69, 117
2, 564360, Note_on_c, 0, 57, 117
2, 564360, Note_on_c, 0, 62, 117
2, 564360, Note_on_c, 0, 53, 117
2, 564415, Note_on_c, 0, 62, 0
2, 564415, Note_on_c, 0, 81, 0
2, 564415, Note_on_c, 0, 69, 0
2, 564415, Note_on_c, 0, 53, 0
2, 564415, Note_on_c, 0, 74, 0
2, 564415, Note_on_c, 0, 57, 0
2, 564480, Note_on_c, 0, 86, 117
2, 564480, Note_on_c, 0, 89, 117
2, 564480, Note_on_c, 0, 93, 117
2, 564480, Note_on_c, 0, 81, 117
2, 564480, Note_on_c, 0, 41, 117
2, 564480, Note_on_c, 0, 45, 117
2, 564480, Note_on_c, 0, 38, 117
2, 564535, Note_on_c, 0, 38, 0
2, 564535, Note_on_c, 0, 89, 0
2, 564535, Note_on_c, 0, 45, 0
2, 564535, Note_on_c, 0, 93, 0
2, 564535, Note_on_c, 0, 41, 0
2, 564535, Note_on_c, 0, 86, 0
2, 564535, Note_on_c, 0, 81, 0
2, 564540, Note_on_c, 0, 50, 117
2, 564595, Note_on_c, 0, 50, 0
2, 564600, Note_on_c, 0, 41, 117
2, 564600, Note_on_c, 0, 45, 117
2, 564600, Note_on_c, 0, 38, 117
2, 564655, Note_on_c, 0, 38, 0
2, 564655, Note_on_c, 0, 41, 0
2, 564655, Note_on_c, 0, 45, 0
2, 564660, Note_on_c, 0, 81, 117
2, 564660, Note_on_c, 0, 69, 117
2, 564660, Note_on_c, 0, 50, 117
2, 564715, Note_on_c, 0, 50, 0
2, 564715, Note_on_c, 0, 81, 0
2, 564715, Note_on_c, 0, 69, 0
2, 564720, Note_on_c, 0, 81, 117
2, 564720, Note_on_c, 0, 69, 117
2, 564720, Note_on_c, 0, 41, 117
2, 564720, Note_on_c, 0, 45, 117
2, 564720, Note_on_c, 0, 38, 117
2, 564775, Note_on_c, 0, 38, 0
2, 564775, Note_on_c, 0, 41, 0
2, 564775, Note_on_c, 0, 69, 0
2, 564775, Note_on_c, 0, 81, 0
2, 564775, Note_on_c, 0, 45, 0
2, 564780, Note_on_c, 0, 50, 117
2, 564835, Note_on_c, 0, 50, 0
2, 564840, Note_on_c, 0, 86, 117
2, 564840, Note_on_c, 0, 74, 117
2, 564840, Note_on_c, 0, 41, 117
2, 564840, Note_on_c, 0, 45, 117
2, 564840, Note_on_c, 0, 50, 117
2, 564840, Note_on_c, 0, 38, 117
2, 564895, Note_on_c, 0, 38, 0
2, 564895, Note_on_c, 0, 50, 0
2, 564895, Note_on_c, 0, 41, 0
2, 564895, Note_on_c, 0, 74, 0
2, 564895, Note_on_c, 0, 86, 0
2, 564895, Note_on_c, 0, 45, 0
2, 564960, Note_on_c, 0, 88, 117
2, 564960, Note_on_c, 0, 76, 117
2, 565015, Note_on_c, 0, 76, 0
2, 565015, Note_on_c, 0, 88, 0
2, 565020, Note_on_c, 0, 57, 117
2, 565020, Note_on_c, 0, 62, 117
2, 565020, Note_on_c, 0, 53, 117
2, 565075, Note_on_c, 0, 62, 0
2, 565075, Note_on_c, 0, 57, 0
2, 565075, Note_on_c, 0, 53, 0
2, 565080, Note_on_c, 0, 89, 117
2, 565080, Note_on_c, 0, 77, 117
2, 565080, Note_on_c, 0, 57, 117
2, 565080, Note_on_c, 0, 62, 117
2, 565080, Note_on_c, 0, 53, 117
2, 565135, Note_on_c, 0, 62, 0
2, 565135, Note_on_c, 0, 77, 0
2, 565135, Note_on_c, 0, 53, 0
2, 565135, Note_on_c, 0, 89, 0
2, 565135, Note_on_c, 0, 57, 0
2, 565200, Note_on_c, 0, 88, 117
2, 565200, Note_on_c, 0, 76, 117
2, 565200, Note_on_c, 0, 45, 117
2, 565200, Note_on_c, 0, 50, 117
2, 565200, Note_on_c, 0, 38, 117
2, 565255, Note_on_c, 0, 38, 0
2, 565255, Note_on_c, 0, 45, 0
2, 565255, Note_on_c, 0, 76, 0
2, 565255, Note_on_c, 0, 88, 0
2, 565255, Note_on_c, 0, 50, 0
2, 565320, Note_on_c, 0, 89, 117
2, 565320, Note_on_c, 0, 77, 117
2, 565375, Note_on_c, 0, 77, 0
2, 565375, Note_on_c, 0, 89, 0
2, 565380, Note_on_c, 0, 57, 117
2, 565380, Note_on_c, 0, 62, 117
2, 565380, Note_on_c, 0, 53, 117
2, 565435, Note_on_c, 0, 62, 0
2, 565435, Note_on_c, 0, 57, 0
2, 565435, Note_on_c, 0, 53, 0
2, 565440, Note_on_c, 0, 91, 117
2, 565440, Note_on_c, 0, 79, 117
2, 565440, Note_on_c, 0, 57, 117
2, 565440, Note_on_c, 0, 62, 117
2, 565440, Note_on_c, 0, 53, 117
2, 565495, Note_on_c, 0, 62, 0
2, 565495, Note_on_c, 0, 79, 0
2, 565495, Note_on_c, 0, 53, 0
2, 565495, Note_on_c, 0, 91, 0
2, 565495, Note_on_c, 0, 57, 0
2, 565560, Note_on_c, 0, 89, 117
2, 565560, Note_on_c, 0, 77, 117
2, 565560, Note_on_c, 0, 45, 117
2, 565560, Note_on_c, 0, 50, 117
2, 565560, Note_on_c, 0, 38, 117
2, 565615, Note_on_c, 0, 38, 0
2, 565615, Note_on_c, 0, 45, 0
2, 565615, Note_on_c, 0, 77, 0
2, 565615, Note_on_c, 0, 89, 0
2, 565615, Note_on_c, 0, 50, 0
2, 565680, Note_on_c, 0, 88, 117
2, 565680, Note_on_c, 0, 76, 117
2, 565735, Note_on_c, 0, 76, 0
2, 565735, Note_on_c, 0, 88, 0
2, 565740, Note_on_c, 0, 57, 117
2, 565740, Note_on_c, 0, 62, 117
2, 565740, Note_on_c, 0, 53, 117
2, 565795, Note_on_c, 0, 62, 0
2, 565795, Note_on_c, 0, 57, 0
2, 565795, Note_on_c, 0, 53, 0
2, 565800, Note_on_c, 0, 86, 117
2, 565800, Note_on_c, 0, 74, 117
2, 565800, Note_on_c, 0, 57, 117
2, 565800, Note_on_c, 0, 62, 117
2, 565800, Note_on_c, 0, 53, 117
2, 565855, Note_on_c, 0, 62, 0
2, 565855, Note_on_c, 0, 74, 0
2, 565855, Note_on_c, 0, 53, 0
2, 565855, Note_on_c, 0, 86, 0
2, 565855, Note_on_c, 0, 57, 0
2, 565920, Note_on_c, 0, 94, 117
2, 565920, Note_on_c, 0, 82, 117
2, 565920, Note_on_c, 0, 45, 117
2, 565920, Note_on_c, 0, 50, 117
2, 565920, Note_on_c, 0, 38, 117
2, 565975, Note_on_c, 0, 38, 0
2, 565975, Note_on_c, 0, 45, 0
2, 565975, Note_on_c, 0, 82, 0
2, 565975, Note_on_c, 0, 94, 0
2, 565975, Note_on_c, 0, 50, 0
2, 566040, Note_on_c, 0, 93, 95
2, 566040, Note_on_c, 0, 81, 95
2, 566095, Note_on_c, 0, 81, 0
2, 566095, Note_on_c, 0, 93, 0
2, 566100, Note_on_c, 0, 57, 95
2, 566100, Note_on_c, 0, 62, 95
2, 566100, Note_on_c, 0, 53, 95
2, 566155, Note_on_c, 0, 62, 0
2, 566155, Note_on_c, 0, 57, 0
2, 566155, Note_on_c, 0, 53, 0
2, 566160, Note_on_c, 0, 91, 95
2, 566160, Note_on_c, 0, 79, 95
2, 566160, Note_on_c, 0, 57, 95
2, 566160, Note_on_c, 0, 62, 95
2, 566160, Note_on_c, 0, 53, 95
2, 566215, Note_on_c, 0, 62, 0
2, 566215, Note_on_c, 0, 79, 0
2, 566215, Note_on_c, 0, 53, 0
2, 566215, Note_on_c, 0, 91, 0
2, 566215, Note_on_c, 0, 57, 0
2, 566280, Note_on_c, 0, 89, 117
2, 566280, Note_on_c, 0, 77, 117
2, 566280, Note_on_c, 0, 45, 117
2, 566280, Note_on_c, 0, 50, 117
2, 566280, Note_on_c, 0, 38, 117
2, 566335, Note_on_c, 0, 38, 0
2, 566335, Note_on_c, 0, 45, 0
2, 566335, Note_on_c, 0, 77, 0
2, 566335, Note_on_c, 0, 89, 0
2, 566335, Note_on_c, 0, 50, 0
2, 566400, Note_on_c, 0, 88, 95
2, 566400, Note_on_c, 0, 76, 95
2, 566455, Note_on_c, 0, 76, 0
2, 566455, Note_on_c, 0, 88, 0
2, 566460, Note_on_c, 0, 57, 95
2, 566460, Note_on_c, 0, 62, 95
2, 566460, Note_on_c, 0, 53, 95
2, 566515, Note_on_c, 0, 62, 0
2, 566515, Note_on_c, 0, 57, 0
2, 566515, Note_on_c, 0, 53, 0
2, 566520, Note_on_c, 0, 86, 95
2, 566520, Note_on_c, 0, 74, 95
2, 566520, Note_on_c, 0, 57, 95
2, 566520, Note_on_c, 0, 62, 95
2, 566520, Note_on_c, 0, 53, 95
2, 566575, Note_on_c, 0, 62, 0
2, 566575, Note_on_c, 0, 74, 0
2, 566575, Note_on_c, 0, 53, 0
2, 566575, Note_on_c, 0, 86, 0
2, 566575, Note_on_c, 0, 57, 0
2, 566640, Note_on_c, 0, 85, 117
2, 566640, Note_on_c, 0, 73, 117
2, 566640, Note_on_c, 0, 45, 117
2, 566640, Note_on_c, 0, 50, 117
2, 566640, Note_on_c, 0, 38, 117
2, 566695, Note_on_c, 0, 38, 0
2, 566695, Note_on_c, 0, 45, 0
2, 566695, Note_on_c, 0, 73, 0
2, 566695, Note_on_c, 0, 85, 0
2, 566695, Note_on_c, 0, 50, 0
2, 566760, Note_on_c, 0, 86, 95
2, 566760, Note_on_c, 0, 74, 95
2, 566815, Note_on_c, 0, 74, 0
2, 566815, Note_on_c, 0, 86, 0
2, 566820, Note_on_c, 0, 57, 95
2, 566820, Note_on_c, 0, 62, 95
2, 566820, Note_on_c, 0, 53, 95
2, 566875, Note_on_c, 0, 62, 0
2, 566875, Note_on_c, 0, 57, 0
2, 566875, Note_on_c, 0, 53, 0
2, 566880, Note_on_c, 0, 88, 95
2, 566880, Note_on_c, 0, 76, 95
2, 566880, Note_on_c, 0, 57, 95
2, 566880, Note_on_c, 0, 62, 95
2, 566880, Note_on_c, 0, 53, 95
2, 566935, Note_on_c, 0, 62, 0
2, 566935, Note_on_c, 0, 76, 0
2, 566935, Note_on_c, 0, 53, 0
2, 566935, Note_on_c, 0, 88, 0
2, 566935, Note_on_c, 0, 57, 0
2, 567000, Note_on_c, 0, 86, 117
2, 567000, Note_on_c, 0, 74, 117
2, 567000, Note_on_c, 0, 45, 117
2, 567000, Note_on_c, 0, 50, 117
2, 567000, Note_on_c, 0, 38, 117
2, 567055, Note_on_c, 0, 38, 0
2, 567055, Note_on_c, 0, 45, 0
2, 567055, Note_on_c, 0, 74, 0
2, 567055, Note_on_c, 0, 86, 0
2, 567055, Note_on_c, 0, 50, 0
2, 567120, Note_on_c, 0, 85, 95
2, 567120, Note_on_c, 0, 73, 95
2, 567175, Note_on_c, 0, 73, 0
2, 567175, Note_on_c, 0, 85, 0
2, 567180, Note_on_c, 0, 57, 95
2, 567180, Note_on_c, 0, 62, 95
2, 567180, Note_on_c, 0, 53, 95
2, 567235, Note_on_c, 0, 62, 0
2, 567235, Note_on_c, 0, 57, 0
2, 567235, Note_on_c, 0, 53, 0
2, 567240, Note_on_c, 0, 86, 95
2, 567240, Note_on_c, 0, 74, 95
2, 567240, Note_on_c, 0, 57, 95
2, 567240, Note_on_c, 0, 62, 95
2, 567240, Note_on_c, 0, 53, 95
2, 567295, Note_on_c, 0, 62, 0
2, 567295, Note_on_c, 0, 74, 0
2, 567295, Note_on_c, 0, 53, 0
2, 567295, Note_on_c, 0, 86, 0
2, 567295, Note_on_c, 0, 57, 0
2, 567360, Note_on_c, 0, 94, 117
2, 567360, Note_on_c, 0, 82, 117
2, 567360, Note_on_c, 0, 45, 117
2, 567360, Note_on_c, 0, 50, 117
2, 567360, Note_on_c, 0, 38, 117
2, 567415, Note_on_c, 0, 38, 0
2, 567415, Note_on_c, 0, 45, 0
2, 567415, Note_on_c, 0, 82, 0
2, 567415, Note_on_c, 0, 94, 0
2, 567415, Note_on_c, 0, 50, 0
2, 567480, Note_on_c, 0, 93, 95
2, 567480, Note_on_c, 0, 81, 95
2, 567535, Note_on_c, 0, 81, 0
2, 567535, Note_on_c, 0, 93, 0
2, 567540, Note_on_c, 0, 57, 95
2, 567540, Note_on_c, 0, 62, 95
2, 567540, Note_on_c, 0, 53, 95
2, 567595, Note_on_c, 0, 62, 0
2, 567595, Note_on_c, 0, 57, 0
2, 567595, Note_on_c, 0, 53, 0
2, 567600, Note_on_c, 0, 91, 95
2, 567600, Note_on_c, 0, 79, 95
2, 567600, Note_on_c, 0, 57, 95
2, 567600, Note_on_c, 0, 62, 95
2, 567600, Note_on_c, 0, 53, 95
2, 567655, Note_on_c, 0, 62, 0
2, 567655, Note_on_c, 0, 79, 0
2, 567655, Note_on_c, 0, 53, 0
2, 567655, Note_on_c, 0, 91, 0
2, 567655, Note_on_c, 0, 57, 0
2, 567720, Note_on_c, 0, 89, 117
2, 567720, Note_on_c, 0, 77, 117
2, 567720, Note_on_c, 0, 45, 117
2, 567720, Note_on_c, 0, 50, 117
2, 567720, Note_on_c, 0, 38, 117
2, 567775, Note_on_c, 0, 38, 0
2, 567775, Note_on_c, 0, 45, 0
2, 567775, Note_on_c, 0, 77, 0
2, 567775, Note_on_c, 0, 89, 0
2, 567775, Note_on_c, 0, 50, 0
2, 567840, Note_on_c, 0, 88, 95
2, 567840, Note_on_c, 0, 76, 95
2, 567895, Note_on_c, 0, 76, 0
2, 567895, Note_on_c, 0, 88, 0
2, 567900, Note_on_c, 0, 57, 95
2, 567900, Note_on_c, 0, 62, 95
2, 567900, Note_on_c, 0, 53, 95
2, 567955, Note_on_c, 0, 62, 0
2, 567955, Note_on_c, 0, 57, 0
2, 567955, Note_on_c, 0, 53, 0
2, 567960, Note_on_c, 0, 86, 95
2, 567960, Note_on_c, 0, 74, 95
2, 567960, Note_on_c, 0, 57, 95
2, 567960, Note_on_c, 0, 62, 95
2, 567960, Note_on_c, 0, 53, 95
2, 568015, Note_on_c, 0, 62, 0
2, 568015, Note_on_c, 0, 74, 0
2, 568015, Note_on_c, 0, 53, 0
2, 568015, Note_on_c, 0, 86, 0
2, 568015, Note_on_c, 0, 57, 0
2, 568080, Note_on_c, 0, 85, 117
2, 568080, Note_on_c, 0, 73, 117
2, 568080, Note_on_c, 0, 45, 117
2, 568080, Note_on_c, 0, 50, 117
2, 568080, Note_on_c, 0, 38, 117
2, 568135, Note_on_c, 0, 38, 0
2, 568135, Note_on_c, 0, 45, 0
2, 568135, Note_on_c, 0, 73, 0
2, 568135, Note_on_c, 0, 85, 0
2, 568135, Note_on_c, 0, 50, 0
2, 568200, Note_on_c, 0, 86, 95
2, 568200, Note_on_c, 0, 74, 95
2, 568255, Note_on_c, 0, 74, 0
2, 568255, Note_on_c, 0, 86, 0
2, 568260, Note_on_c, 0, 57, 95
2, 568260, Note_on_c, 0, 62, 95
2, 568260, Note_on_c, 0, 53, 95
2, 568315, Note_on_c, 0, 62, 0
2, 568315, Note_on_c, 0, 57, 0
2, 568315, Note_on_c, 0, 53, 0
2, 568320, Note_on_c, 0, 88, 95
2, 568320, Note_on_c, 0, 76, 95
2, 568320, Note_on_c, 0, 57, 95
2, 568320, Note_on_c, 0, 62, 95
2, 568320, Note_on_c, 0, 53, 95
2, 568375, Note_on_c, 0, 62, 0
2, 568375, Note_on_c, 0, 76, 0
2, 568375, Note_on_c, 0, 53, 0
2, 568375, Note_on_c, 0, 88, 0
2, 568375, Note_on_c, 0, 57, 0
2, 568440, Note_on_c, 0, 86, 117
2, 568440, Note_on_c, 0, 74, 117
2, 568440, Note_on_c, 0, 45, 117
2, 568440, Note_on_c, 0, 50, 117
2, 568440, Note_on_c, 0, 38, 117
2, 568495, Note_on_c, 0, 38, 0
2, 568495, Note_on_c, 0, 45, 0
2, 568495, Note_on_c, 0, 74, 0
2, 568495, Note_on_c, 0, 86, 0
2, 568495, Note_on_c, 0, 50, 0
2, 568560, Note_on_c, 0, 85, 95
2, 568560, Note_on_c, 0, 73, 95
2, 568615, Note_on_c, 0, 73, 0
2, 568615, Note_on_c, 0, 85, 0
2, 568620, Note_on_c, 0, 57, 95
2, 568620, Note_on_c, 0, 62, 95
2, 568620, Note_on_c, 0, 53, 95
2, 568675, Note_on_c, 0, 62, 0
2, 568675, Note_on_c, 0, 57, 0
2, 568675, Note_on_c, 0, 53, 0
2, 568680, Note_on_c, 0, 86, 95
2, 568680, Note_on_c, 0, 74, 95
2, 568680, Note_on_c, 0, 57, 95
2, 568680, Note_on_c, 0, 62, 95
2, 568680, Note_on_c, 0, 53, 95
2, 568735, Note_on_c, 0, 62, 0
2, 568735, Note_on_c, 0, 74, 0
2, 568735, Note_on_c, 0, 53, 0
2, 568735, Note_on_c, 0, 86, 0
2, 568735, Note_on_c, 0, 57, 0
2, 568800, Note_on_c, 0, 84, 95
2, 568800, Note_on_c, 0, 72, 95
2, 568800, Note_on_c, 0, 63, 95
2, 568800, Note_on_c, 0, 51, 95
2, 568855, Note_on_c, 0, 51, 0
2, 568855, Note_on_c, 0, 72, 0
2, 568855, Note_on_c, 0, 84, 0
2, 568855, Note_on_c, 0, 63, 0
2, 568920, Note_on_c, 0, 86, 95
2, 568920, Note_on_c, 0, 74, 95
2, 568920, Note_on_c, 0, 62, 95
2, 568920, Note_on_c, 0, 50, 95
2, 568975, Note_on_c, 0, 50, 0
2, 568975, Note_on_c, 0, 74, 0
2, 568975, Note_on_c, 0, 86, 0
2, 568975, Note_on_c, 0, 62, 0
2, 569040, Note_on_c, 0, 87, 95
2, 569040, Note_on_c, 0, 75, 95
2, 569040, Note_on_c, 0, 60, 95
2, 569040, Note_on_c, 0, 48, 95
2, 569095, Note_on_c, 0, 48, 0
2, 569095, Note_on_c, 0, 75, 0
2, 569095, Note_on_c, 0, 87, 0
2, 569095, Note_on_c, 0, 60, 0
2, 569160, Note_on_c, 0, 74, 95
2, 569160, Note_on_c, 0, 79, 95
2, 569160, Note_on_c, 0, 67, 95
2, 569160, Note_on_c, 0, 58, 95
2, 569160, Note_on_c, 0, 46, 95
2, 569215, Note_on_c, 0, 46, 0
2, 569215, Note_on_c, 0, 67, 0
2, 569215, Note_on_c, 0, 79, 0
2, 569215, Note_on_c, 0, 74, 0
2, 569215, Note_on_c, 0, 58, 0
2, 569280, Note_on_c, 0, 81, 95
2, 569280, Note_on_c, 0, 69, 95
2, 569335, Note_on_c, 0, 69, 0
2, 569335, Note_on_c, 0, 81, 0
2, 569340, Note_on_c, 0, 62, 95
2, 569340, Note_on_c, 0, 50, 95
2, 569395, Note_on_c, 0, 50, 0
2, 569395, Note_on_c, 0, 62, 0
2, 569400, Note_on_c, 0, 82, 95
2, 569400, Note_on_c, 0, 70, 95
2, 569400, Note_on_c, 0, 62, 95
2, 569400, Note_on_c, 0, 50, 95
2, 569455, Note_on_c, 0, 50, 0
2, 569455, Note_on_c, 0, 70, 0
2, 569455, Note_on_c, 0, 82, 0
2, 569455, Note_on_c, 0, 62, 0
2, 569520, Note_on_c, 0, 74, 95
2, 569520, Note_on_c, 0, 81, 95
2, 569520, Note_on_c, 0, 69, 95
2, 569520, Note_on_c, 0, 54, 95
2, 569520, Note_on_c, 0, 42, 95
2, 569575, Note_on_c, 0, 42, 0
2, 569575, Note_on_c, 0, 69, 0
2, 569575, Note_on_c, 0, 81, 0
2, 569575, Note_on_c, 0, 74, 0
2, 569575, Note_on_c, 0, 54, 0
2, 569640, Note_on_c, 0, 82, 95
2, 569640, Note_on_c, 0, 70, 95
2, 569695, Note_on_c, 0, 70, 0
2, 569695, Note_on_c, 0, 82, 0
2, 569700, Note_on_c, 0, 62, 95
2, 569700, Note_on_c, 0, 50, 95
2, 569755, Note_on_c, 0, 50, 0
2, 569755, Note_on_c, 0, 62, 0
2, 569760, Note_on_c, 0, 84, 95
2, 569760, Note_on_c, 0, 72, 95
2, 569760, Note_on_c, 0, 62, 95
2, 569760, Note_on_c, 0, 50, 95
2, 569815, Note_on_c, 0, 50, 0
2, 569815, Note_on_c, 0, 72, 0
2, 569815, Note_on_c, 0, 84, 0
2, 569815, Note_on_c, 0, 62, 0
2, 569880, Note_on_c, 0, 74, 95
2, 569880, Note_on_c, 0, 82, 95
2, 569880, Note_on_c, 0, 70, 95
2, 569880, Note_on_c, 0, 55, 95
2, 569880, Note_on_c, 0, 43, 95
2, 569935, Note_on_c, 0, 43, 0
2, 569935, Note_on_c, 0, 70, 0
2, 569935, Note_on_c, 0, 82, 0
2, 569935, Note_on_c, 0, 74, 0
2, 569935, Note_on_c, 0, 55, 0
2, 570000, Note_on_c, 0, 81, 95
2, 570000, Note_on_c, 0, 69, 95
2, 570055, Note_on_c, 0, 69, 0
2, 570055, Note_on_c, 0, 81, 0
2, 570060, Note_on_c, 0, 62, 95
2, 570060, Note_on_c, 0, 50, 95
2, 570115, Note_on_c, 0, 50, 0
2, 570115, Note_on_c, 0, 62, 0
2, 570120, Note_on_c, 0, 79, 95
2, 570120, Note_on_c, 0, 67, 95
2, 570120, Note_on_c, 0, 62, 95
2, 570120, Note_on_c, 0, 50, 95
2, 570175, Note_on_c, 0, 50, 0
2, 570175, Note_on_c, 0, 67, 0
2, 570175, Note_on_c, 0, 79, 0
2, 570175, Note_on_c, 0, 62, 0
2, 570240, Note_on_c, 0, 79, 117
2, 570240, Note_on_c, 0, 87, 117
2, 570240, Note_on_c, 0, 75, 117
2, 570240, Note_on_c, 0, 55, 117
2, 570240, Note_on_c, 0, 63, 117
2, 570240, Note_on_c, 0, 51, 117
2, 570295, Note_on_c, 0, 51, 0
2, 570295, Note_on_c, 0, 63, 0
2, 570295, Note_on_c, 0, 75, 0
2, 570295, Note_on_c, 0, 87, 0
2, 570295, Note_on_c, 0, 79, 0
2, 570295, Note_on_c, 0, 55, 0
2, 570360, Note_on_c, 0, 86, 95
2, 570360, Note_on_c, 0, 74, 95
2, 570360, Note_on_c, 0, 62, 95
2, 570360, Note_on_c, 0, 50, 95
2, 570415, Note_on_c, 0, 50, 0
2, 570415, Note_on_c, 0, 74, 0
2, 570415, Note_on_c, 0, 86, 0
2, 570415, Note_on_c, 0, 62, 0
2, 570480, Note_on_c, 0, 84, 95
2, 570480, Note_on_c, 0, 72, 95
2, 570480, Note_on_c, 0, 60, 95
2, 570480, Note_on_c, 0, 48, 95
2, 570535, Note_on_c, 0, 48, 0
2, 570535, Note_on_c, 0, 72, 0
2, 570535, Note_on_c, 0, 84, 0
2, 570535, Note_on_c, 0, 60, 0
2, 570600, Note_on_c, 0, 82, 117
2, 570600, Note_on_c, 0, 70, 117
2, 570600, Note_on_c, 0, 58, 117
2, 570600, Note_on_c, 0, 46, 117
2, 570655, Note_on_c, 0, 46, 0
2, 570655, Note_on_c, 0, 70, 0
2, 570655, Note_on_c, 0, 82, 0
2, 570655, Note_on_c, 0, 58, 0
2, 570720, Note_on_c, 0, 81, 95
2, 570720, Note_on_c, 0, 69, 95
2, 570720, Note_on_c, 0, 57, 95
2, 570720, Note_on_c, 0, 45, 95
2, 570775, Note_on_c, 0, 45, 0
2, 570775, Note_on_c, 0, 69, 0
2, 570775, Note_on_c, 0, 81, 0
2, 570775, Note_on_c, 0, 57, 0
2, 570840, Note_on_c, 0, 79, 95
2, 570840, Note_on_c, 0, 67, 95
2, 570840, Note_on_c, 0, 55, 95
2, 570840, Note_on_c, 0, 43, 95
2, 570895, Note_on_c, 0, 43, 0
2, 570895, Note_on_c, 0, 67, 0
2, 570895, Note_on_c, 0, 79, 0
2, 570895, Note_on_c, 0, 55, 0
2, 570960, Note_on_c, 0, 77, 117
2, 570960, Note_on_c, 0, 65, 117
2, 570960, Note_on_c, 0, 53, 117
2, 570960, Note_on_c, 0, 41, 117
2, 571015, Note_on_c, 0, 41, 0
2, 571015, Note_on_c, 0, 53, 0
2, 571015, Note_on_c, 0, 77, 0
2, 571015, Note_on_c, 0, 65, 0
2, 571080, Note_on_c, 0, 75, 95
2, 571080, Note_on_c, 0, 63, 95
2, 571135, Note_on_c, 0, 63, 0
2, 571135, Note_on_c, 0, 75, 0
2, 571140, Note_on_c, 0, 41, 95
2, 571140, Note_on_c, 0, 29, 95
2, 571195, Note_on_c, 0, 29, 0
2, 571195, Note_on_c, 0, 41, 0
2, 571200, Note_on_c, 0, 74, 95
2, 571200, Note_on_c, 0, 62, 95
2, 571200, Note_on_c, 0, 41, 95
2, 571200, Note_on_c, 0, 29, 95
2, 571255, Note_on_c, 0, 29, 0
2, 571255, Note_on_c, 0, 62, 0
2, 571255, Note_on_c, 0, 74, 0
2, 571255, Note_on_c, 0, 41, 0
2, 571320, Note_on_c, 0, 72, 117
2, 571320, Note_on_c, 0, 60, 117
2, 571320, Note_on_c, 0, 53, 117
2, 571320, Note_on_c, 0, 41, 117
2, 571375, Note_on_c, 0, 41, 0
2, 571375, Note_on_c, 0, 53, 0
2, 571375, Note_on_c, 0, 72, 0
2, 571375, Note_on_c, 0, 60, 0
2, 571440, Note_on_c, 0, 70, 95
2, 571440, Note_on_c, 0, 58, 95
2, 571495, Note_on_c, 0, 58, 0
2, 571495, Note_on_c, 0, 70, 0
2, 571500, Note_on_c, 0, 41, 95
2, 571500, Note_on_c, 0, 29, 95
2, 571555, Note_on_c, 0, 29, 0
2, 571555, Note_on_c, 0, 41, 0
2, 571560, Note_on_c, 0, 69, 95
2, 571560, Note_on_c, 0, 57, 95
2, 571560, Note_on_c, 0, 41, 95
2, 571560, Note_on_c, 0, 29, 95
2, 571615, Note_on_c, 0, 29, 0
2, 571615, Note_on_c, 0, 57, 0
2, 571615, Note_on_c, 0, 69, 0
2, 571615, Note_on_c, 0, 41, 0
2, 571680, Note_on_c, 0, 79, 117
2, 571680, Note_on_c, 0, 67, 117
2, 571680, Note_on_c, 0, 53, 117
2, 571680, Note_on_c, 0, 41, 117
2, 571735, Note_on_c, 0, 41, 0
2, 571735, Note_on_c, 0, 53, 0
2, 571735, Note_on_c, 0, 79, 0
2, 571735, Note_on_c, 0, 67, 0
2, 571800, Note_on_c, 0, 77, 95
2, 571800, Note_on_c, 0, 65, 95
2, 571855, Note_on_c, 0, 65, 0
2, 571855, Note_on_c, 0, 77, 0
2, 571860, Note_on_c, 0, 41, 95
2, 571860, Note_on_c, 0, 29, 95
2, 571915, Note_on_c, 0, 29, 0
2, 571915, Note_on_c, 0, 41, 0
2, 571920, Note_on_c, 0, 75, 95
2, 571920, Note_on_c, 0, 63, 95
2, 571920, Note_on_c, 0, 41, 95
2, 571920, Note_on_c, 0, 29, 95
2, 571975, Note_on_c, 0, 29, 0
2, 571975, Note_on_c, 0, 63, 0
2, 571975, Note_on_c, 0, 75, 0
2, 571975, Note_on_c, 0, 41, 0
2, 572040, Note_on_c, 0, 74, 117
2, 572040, Note_on_c, 0, 62, 117
2, 572040, Note_on_c, 0, 53, 117
2, 572040, Note_on_c, 0, 41, 117
2, 572095, Note_on_c, 0, 41, 0
2, 572095, Note_on_c, 0, 53, 0
2, 572095, Note_on_c, 0, 74, 0
2, 572095, Note_on_c, 0, 62, 0
2, 572160, Note_on_c, 0, 75, 95
2, 572160, Note_on_c, 0, 63, 95
2, 572215, Note_on_c, 0, 63, 0
2, 572215, Note_on_c, 0, 75, 0
2, 572220, Note_on_c, 0, 60, 95
2, 572220, Note_on_c, 0, 48, 95
2, 572275, Note_on_c, 0, 48, 0
2, 572275, Note_on_c, 0, 60, 0
2, 572280, Note_on_c, 0, 77, 95
2, 572280, Note_on_c, 0, 65, 95
2, 572280, Note_on_c, 0, 58, 95
2, 572280, Note_on_c, 0, 46, 95
2, 572335, Note_on_c, 0, 46, 0
2, 572335, Note_on_c, 0, 65, 0
2, 572335, Note_on_c, 0, 77, 0
2, 572335, Note_on_c, 0, 58, 0
2, 572400, Note_on_c, 0, 79, 117
2, 572400, Note_on_c, 0, 67, 117
2, 572400, Note_on_c, 0, 57, 117
2, 572400, Note_on_c, 0, 45, 117
2, 572455, Note_on_c, 0, 45, 0
2, 572455, Note_on_c, 0, 67, 0
2, 572455, Note_on_c, 0, 79, 0
2, 572455, Note_on_c, 0, 57, 0
2, 572520, Note_on_c, 0, 81, 95
2, 572520, Note_on_c, 0, 69, 95
2, 572575, Note_on_c, 0, 69, 0
2, 572575, Note_on_c, 0, 81, 0
2, 572580, Note_on_c, 0, 55, 95
2, 572580, Note_on_c, 0, 43, 95
2, 572635, Note_on_c, 0, 43, 0
2, 572635, Note_on_c, 0, 55, 0
2, 572640, Note_on_c, 0, 82, 95
2, 572640, Note_on_c, 0, 70, 95
2, 572640, Note_on_c, 0, 53, 95
2, 572640, Note_on_c, 0, 41, 95
2, 572695, Note_on_c, 0, 41, 0
2, 572695, Note_on_c, 0, 53, 0
2, 572695, Note_on_c, 0, 82, 0
2, 572695, Note_on_c, 0, 70, 0
2, 572760, Note_on_c, 0, 84, 117
2, 572760, Note_on_c, 0, 72, 117
2, 572760, Note_on_c, 0, 51, 95
2, 572760, Note_on_c, 0, 39, 95
2, 572815, Note_on_c, 0, 39, 0
2, 572815, Note_on_c, 0, 72, 0
2, 572815, Note_on_c, 0, 84, 0
2, 572815, Note_on_c, 0, 51, 0
2, 572880, Note_on_c, 0, 86, 95
2, 572880, Note_on_c, 0, 74, 95
2, 572935, Note_on_c, 0, 74, 0
2, 572935, Note_on_c, 0, 86, 0
2, 572940, Note_on_c, 0, 50, 95
2, 572940, Note_on_c, 0, 38, 95
2, 572995, Note_on_c, 0, 38, 0
2, 572995, Note_on_c, 0, 50, 0
2, 573000, Note_on_c, 0, 87, 95
2, 573000, Note_on_c, 0, 75, 95
2, 573000, Note_on_c, 0, 48, 95
2, 573000, Note_on_c, 0, 36, 95
2, 573055, Note_on_c, 0, 36, 0
2, 573055, Note_on_c, 0, 75, 0
2, 573055, Note_on_c, 0, 87, 0
2, 573055, Note_on_c, 0, 48, 0
2, 573120, Note_on_c, 0, 89, 95
2, 573120, Note_on_c, 0, 77, 95
2, 573120, Note_on_c, 0, 46, 95
2, 573120, Note_on_c, 0, 34, 95
2, 573175, Note_on_c, 0, 34, 0
2, 573175, Note_on_c, 0, 46, 0
2, 573480, Note_on_c, 0, 58, 53
2, 573535, Note_on_c, 0, 58, 0
2, 573660, Note_on_c, 0, 65, 53
2, 573715, Note_on_c, 0, 65, 0
2, 573720, Note_on_c, 0, 65, 53
2, 573775, Note_on_c, 0, 65, 0
2, 573840, Note_on_c, 0, 79, 69
2, 573840, Note_on_c, 0, 77, 69
2, 573840, Note_on_c, 0, 51, 59
2, 574020, Note_on_c, 0, 67, 65
2, 574020, Note_on_c, 0, 65, 65
2, 574075, Note_on_c, 0, 65, 0
2, 574075, Note_on_c, 0, 67, 0
2, 574080, Note_on_c, 0, 67, 71
2, 574080, Note_on_c, 0, 65, 71
2, 574135, Note_on_c, 0, 65, 0
2, 574135, Note_on_c, 0, 67, 0
2, 574195, Note_on_c, 0, 51, 0
2, 574195, Note_on_c, 0, 77, 0
2, 574195, Note_on_c, 0, 79, 0
2, 574200, Note_on_c, 0, 79, 85
2, 574200, Note_on_c, 0, 87, 85
2, 574200, Note_on_c, 0, 75, 85
2, 574200, Note_on_c, 0, 48, 77
2, 574315, Note_on_c, 0, 48, 0
2, 574380, Note_on_c, 0, 67, 83
2, 574380, Note_on_c, 0, 72, 83
2, 574380, Note_on_c, 0, 63, 83
2, 574435, Note_on_c, 0, 63, 0
2, 574435, Note_on_c, 0, 72, 0
2, 574435, Note_on_c, 0, 67, 0
2, 574440, Note_on_c, 0, 67, 90
2, 574440, Note_on_c, 0, 72, 90
2, 574440, Note_on_c, 0, 63, 90
2, 574495, Note_on_c, 0, 63, 0
2, 574495, Note_on_c, 0, 72, 0
2, 574495, Note_on_c, 0, 67, 0
2, 574555, Note_on_c, 0, 75, 0
2, 574555, Note_on_c, 0, 79, 0
2, 574555, Note_on_c, 0, 87, 0
2, 574560, Note_on_c, 0, 81, 101
2, 574560, Note_on_c, 0, 87, 101
2, 574560, Note_on_c, 0, 75, 101
2, 574560, Note_on_c, 0, 53, 99
2, 574660, Note_on_c, 0, 53, 0
2, 574740, Note_on_c, 0, 69, 102
2, 574740, Note_on_c, 0, 72, 102
2, 574740, Note_on_c, 0, 63, 102
2, 574795, Note_on_c, 0, 63, 0
2, 574795, Note_on_c, 0, 72, 0
2, 574795, Note_on_c, 0, 69, 0
2, 574800, Note_on_c, 0, 69, 108
2, 574800, Note_on_c, 0, 72, 108
2, 574800, Note_on_c, 0, 63, 108
2, 574855, Note_on_c, 0, 63, 0
2, 574855, Note_on_c, 0, 72, 0
2, 574855, Note_on_c, 0, 69, 0
2, 574915, Note_on_c, 0, 81, 0
2, 574915, Note_on_c, 0, 87, 0
2, 574915, Note_on_c, 0, 75, 0
2, 574920, Note_on_c, 0, 82, 117
2, 574920, Note_on_c, 0, 86, 117
2, 574920, Note_on_c, 0, 74, 117
2, 574920, Note_on_c, 0, 46, 117
2, 574975, Note_on_c, 0, 46, 0
2, 575100, Note_on_c, 0, 65, 89
2, 575100, Note_on_c, 0, 70, 89
2, 575100, Note_on_c, 0, 62, 89
2, 575155, Note_on_c, 0, 62, 0
2, 575155, Note_on_c, 0, 70, 0
2, 575155, Note_on_c, 0, 65, 0
2, 575160, Note_on_c, 0, 65, 76
2, 575160, Note_on_c, 0, 70, 76
2, 575160, Note_on_c, 0, 62, 76
2, 575215, Note_on_c, 0, 62, 0
2, 575215, Note_on_c, 0, 70, 0
2, 575215, Note_on_c, 0, 65, 0
2, 575275, Note_on_c, 0, 74, 0
2, 575275, Note_on_c, 0, 82, 0
2, 575275, Note_on_c, 0, 86, 0
2, 575280, Note_on_c, 0, 82, 117
2, 575280, Note_on_c, 0, 85, 117
2, 575280, Note_on_c, 0, 73, 117
2, 575280, Note_on_c, 0, 53, 57
2, 575335, Note_on_c, 0, 53, 0
2, 575460, Note_on_c, 0, 65, 51
2, 575460, Note_on_c, 0, 70, 51
2, 575460, Note_on_c, 0, 61, 51
2, 575515, Note_on_c, 0, 61, 0
2, 575515, Note_on_c, 0, 70, 0
2, 575515, Note_on_c, 0, 65, 0
2, 575520, Note_on_c, 0, 65, 38
2, 575520, Note_on_c, 0, 70, 38
2, 575520, Note_on_c, 0, 61, 38
2, 575575, Note_on_c, 0, 61, 0
2, 575575, Note_on_c, 0, 70, 0
2, 575575, Note_on_c, 0, 65, 0
2, 575635, Note_on_c, 0, 82, 0
2, 575635, Note_on_c, 0, 85, 0
2, 575635, Note_on_c, 0, 73, 0
2, 575640, Note_on_c, 0, 81, 117
2, 575640, Note_on_c, 0, 84, 117
2, 575640, Note_on_c, 0, 72, 117
2, 575640, Note_on_c, 0, 53, 19
2, 575695, Note_on_c, 0, 53, 0
2, 575820, Note_on_c, 0, 65, 13
2, 575820, Note_on_c, 0, 69, 13
2, 575820, Note_on_c, 0, 60, 13
2, 575875, Note_on_c, 0, 60, 0
2, 575875, Note_on_c, 0, 69, 0
2, 575875, Note_on_c, 0, 65, 0
2, 575880, Note_on_c, 0, 65, 1
2, 575880, Note_on_c, 0, 69, 1
2, 575880, Note_on_c, 0, 60, 1
2, 575935, Note_on_c, 0, 60, 0
2, 575935, Note_on_c, 0, 69, 0
2, 575935, Note_on_c, 0, 65, 0
2, 575995, Note_on_c, 0, 81, 0
2, 575995, Note_on_c, 0, 84, 0
2, 575995, Note_on_c, 0, 72, 0
2, 576000, Note_on_c, 0, 82, 53
2, 576000, Note_on_c, 0, 70, 53
2, 576000, Note_on_c, 0, 58, 1
2, 576000, Note_on_c, 0, 46, 1
2, 576720, Note_on_c, 0, 46, 0
2, 576720, Note_on_c, 0, 58, 0
2, 576720, Note_on_c, 0, 82, 0
2, 576720, Note_on_c, 0, 70, 0
2, 576720, Note_on_c, 0, 81, 53
2, 576720, Note_on_c, 0, 69, 53
2, 576720, Note_on_c, 0, 57, 1
2, 576720, Note_on_c, 0, 45, 1
2, 577075, Note_on_c, 0, 45, 0
2, 577075, Note_on_c, 0, 57, 0
2, 577075, Note_on_c, 0, 69, 0
2, 577080, Note_on_c, 0, 57, 1
2, 577135, Note_on_c, 0, 57, 0
2, 577220, Note_on_c, 0, 81, 0
2, 577260, Note_on_c, 0, 69, 1
2, 577315, Note_on_c, 0, 69, 0
2, 577320, Note_on_c, 0, 69, 1
2, 577375, Note_on_c, 0, 69, 0
2, 577440, Note_on_c, 0, 83, 74
2, 577440, Note_on_c, 0, 81, 74
2, 577440, Note_on_c, 0, 57, 19
2, 577495, Note_on_c, 0, 57, 0
2, 577620, Note_on_c, 0, 71, 26
2, 577620, Note_on_c, 0, 69, 26
2, 577675, Note_on_c, 0, 69, 0
2, 577675, Note_on_c, 0, 71, 0
2, 577680, Note_on_c, 0, 71, 39
2, 577680, Note_on_c, 0, 69, 39
2, 577735, Note_on_c, 0, 69, 0
2, 577735, Note_on_c, 0, 71, 0
2, 577795, Note_on_c, 0, 83, 0
2, 577795, Note_on_c, 0, 81, 0
2, 577800, Note_on_c, 0, 83, 96
2, 577800, Note_on_c, 0, 88, 96
2, 577800, Note_on_c, 0, 79, 96
2, 577800, Note_on_c, 0, 57, 58
2, 577855, Note_on_c, 0, 57, 0
2, 577980, Note_on_c, 0, 71, 65
2, 577980, Note_on_c, 0, 76, 65
2, 577980, Note_on_c, 0, 67, 65
2, 578035, Note_on_c, 0, 67, 0
2, 578035, Note_on_c, 0, 76, 0
2, 578035, Note_on_c, 0, 71, 0
2, 578040, Note_on_c, 0, 71, 78
2, 578040, Note_on_c, 0, 76, 78
2, 578040, Note_on_c, 0, 67, 78
2, 578095, Note_on_c, 0, 67, 0
2, 578095, Note_on_c, 0, 76, 0
2, 578095, Note_on_c, 0, 71, 0
2, 578155, Note_on_c, 0, 79, 0
2, 578155, Note_on_c, 0, 83, 0
2, 578155, Note_on_c, 0, 88, 0
2, 578160, Note_on_c, 0, 82, 117
2, 578160, Note_on_c, 0, 88, 117
2, 578160, Note_on_c, 0, 79, 117
2, 578160, Note_on_c, 0, 57, 97
2, 578215, Note_on_c, 0, 57, 0
2, 578340, Note_on_c, 0, 70, 104
2, 578340, Note_on_c, 0, 76, 104
2, 578340, Note_on_c, 0, 67, 104
2, 578395, Note_on_c, 0, 67, 0
2, 578395, Note_on_c, 0, 76, 0
2, 578395, Note_on_c, 0, 70, 0
2, 578400, Note_on_c, 0, 70, 117
2, 578400, Note_on_c, 0, 76, 117
2, 578400, Note_on_c, 0, 67, 117
2, 578455, Note_on_c, 0, 67, 0
2, 578455, Note_on_c, 0, 76, 0
2, 578455, Note_on_c, 0, 70, 0
2, 578515, Note_on_c, 0, 79, 0
2, 578515, Note_on_c, 0, 82, 0
2, 578515, Note_on_c, 0, 88, 0
2, 578520, Note_on_c, 0, 81, 47
2, 578520, Note_on_c, 0, 86, 47
2, 578520, Note_on_c, 0, 78, 47
2, 578520, Note_on_c, 0, 57, 98
2, 578575, Note_on_c, 0, 57, 0
2, 578700, Note_on_c, 0, 69, 91
2, 578700, Note_on_c, 0, 74, 91
2, 578700, Note_on_c, 0, 66, 91
2, 578755, Note_on_c, 0, 66, 0
2, 578755, Note_on_c, 0, 74, 0
2, 578755, Note_on_c, 0, 69, 0
2, 578760, Note_on_c, 0, 69, 78
2, 578760, Note_on_c, 0, 74, 78
2, 578760, Note_on_c, 0, 66, 78
2, 578815, Note_on_c, 0, 66, 0
2, 578815, Note_on_c, 0, 74, 0
2, 578815, Note_on_c, 0, 69, 0
2, 578875, Note_on_c, 0, 78, 0
2, 578875, Note_on_c, 0, 81, 0
2, 578875, Note_on_c, 0, 86, 0
2, 578880, Note_on_c, 0, 81, 24
2, 578880, Note_on_c, 0, 86, 24
2, 578880, Note_on_c, 0, 77, 24
2, 578880, Note_on_c, 0, 57, 59
2, 578935, Note_on_c, 0, 57, 0
2, 579060, Note_on_c, 0, 69, 52
2, 579060, Note_on_c, 0, 74, 52
2, 579060, Note_on_c, 0, 65, 52
2, 579115, Note_on_c, 0, 65, 0
2, 579115, Note_on_c, 0, 74, 0
2, 579115, Note_on_c, 0, 69, 0
2, 579120, Note_on_c, 0, 69, 39
2, 579120, Note_on_c, 0, 74, 39
2, 579120, Note_on_c, 0, 65, 39
2, 579175, Note_on_c, 0, 65, 0
2, 579175, Note_on_c, 0, 74, 0
2, 579175, Note_on_c, 0, 69, 0
2, 579235, Note_on_c, 0, 86, 0
2, 579235, Note_on_c, 0, 77, 0
2, 579235, Note_on_c, 0, 81, 0
2, 579240, Note_on_c, 0, 81, 1
2, 579240, Note_on_c, 0, 85, 1
2, 579240, Note_on_c, 0, 76, 1
2, 579240, Note_on_c, 0, 57, 20
2, 579295, Note_on_c, 0, 57, 0
2, 579420, Note_on_c, 0, 69, 13
2, 579420, Note_on_c, 0, 73, 13
2, 579420, Note_on_c, 0, 64, 13
2, 579475, Note_on_c, 0, 64, 0
2, 579475, Note_on_c, 0, 73, 0
2, 579475, Note_on_c, 0, 69, 0
2, 579480, Note_on_c, 0, 69, 1
2, 579480, Note_on_c, 0, 73, 1
2, 579480, Note_on_c, 0, 64, 1
2, 579535, Note_on_c, 0, 64, 0
2, 579535, Note_on_c, 0, 73, 0
2, 579535, Note_on_c, 0, 69, 0
2, 579595, Note_on_c, 0, 76, 0
2, 579595, Note_on_c, 0, 81, 0
2, 579595, Note_on_c, 0, 85, 0
2, 579600, Note_on_c, 0, 45, 1
2, 579960, Note_on_c, 0, 69, 37
2, 580015, Note_on_c, 0, 69, 0
2, 580140, Note_on_c, 0, 57, 37
2, 580195, Note_on_c, 0, 57, 0
2, 580200, Note_on_c, 0, 57, 37
2, 580255, Note_on_c, 0, 57, 0
2, 580320, Note_on_c, 0, 70, 37
2, 580320, Note_on_c, 0, 69, 37
2, 580375, Note_on_c, 0, 69, 0
2, 580375, Note_on_c, 0, 70, 0
2, 580500, Note_on_c, 0, 58, 37
2, 580500, Note_on_c, 0, 57, 37
2, 580555, Note_on_c, 0, 57, 0
2, 580555, Note_on_c, 0, 58, 0
2, 580560, Note_on_c, 0, 45, 0
2, 580560, Note_on_c, 0, 58, 37
2, 580560, Note_on_c, 0, 57, 37
2, 580615, Note_on_c, 0, 57, 0
2, 580615, Note_on_c, 0, 58, 0
2, 580680, Note_on_c, 0, 70, 37
2, 580680, Note_on_c, 0, 76, 37
2, 580680, Note_on_c, 0, 67, 37
2, 580680, Note_on_c, 0, 45, 37
2, 580735, Note_on_c, 0, 45, 0
2, 580735, Note_on_c, 0, 67, 0
2, 580735, Note_on_c, 0, 70, 0
2, 580735, Note_on_c, 0, 76, 0
2, 580860, Note_on_c, 0, 64, 37
2, 580860, Note_on_c, 0, 58, 37
2, 580860, Note_on_c, 0, 55, 37
2, 580915, Note_on_c, 0, 55, 0
2, 580915, Note_on_c, 0, 64, 0
2, 580915, Note_on_c, 0, 58, 0
2, 580920, Note_on_c, 0, 64, 37
2, 580920, Note_on_c, 0, 58, 37
2, 580920, Note_on_c, 0, 55, 37
2, 580975, Note_on_c, 0, 55, 0
2, 580975, Note_on_c, 0, 64, 0
2, 580975, Note_on_c, 0, 58, 0
2, 581040, Note_on_c, 0, 69, 37
2, 581040, Note_on_c, 0, 76, 37
2, 581040, Note_on_c, 0, 67, 37
2, 581040, Note_on_c, 0, 45, 37
2, 581095, Note_on_c, 0, 45, 0
2, 581095, Note_on_c, 0, 67, 0
2, 581095, Note_on_c, 0, 69, 0
2, 581095, Note_on_c, 0, 76, 0
2, 581220, Note_on_c, 0, 64, 37
2, 581220, Note_on_c, 0, 57, 37
2, 581220, Note_on_c, 0, 55, 37
2, 581275, Note_on_c, 0, 55, 0
2, 581275, Note_on_c, 0, 64, 0
2, 581275, Note_on_c, 0, 57, 0
2, 581280, Note_on_c, 0, 64, 37
2, 581280, Note_on_c, 0, 57, 37
2, 581280, Note_on_c, 0, 55, 37
2, 581335, Note_on_c, 0, 55, 0
2, 581335, Note_on_c, 0, 64, 0
2, 581335, Note_on_c, 0, 57, 0
2, 581400, Note_on_c, 0, 69, 37
2, 581400, Note_on_c, 0, 74, 37
2, 581400, Note_on_c, 0, 66, 37
2, 581400, Note_on_c, 0, 45, 37
2, 581455, Note_on_c, 0, 45, 0
2, 581455, Note_on_c, 0, 66, 0
2, 581455, Note_on_c, 0, 69, 0
2, 581455, Note_on_c, 0, 74, 0
2, 581580, Note_on_c, 0, 62, 37
2, 581580, Note_on_c, 0, 57, 37
2, 581580, Note_on_c, 0, 54, 37
2, 581635, Note_on_c, 0, 54, 0
2, 581635, Note_on_c, 0, 62, 0
2, 581635, Note_on_c, 0, 57, 0
2, 581640, Note_on_c, 0, 62, 37
2, 581640, Note_on_c, 0, 57, 37
2, 581640, Note_on_c, 0, 54, 37
2, 581695, Note_on_c, 0, 54, 0
2, 581695, Note_on_c, 0, 62, 0
2, 581695, Note_on_c, 0, 57, 0
2, 581760, Note_on_c, 0, 68, 37
2, 581760, Note_on_c, 0, 74, 37
2, 581760, Note_on_c, 0, 65, 37
2, 581760, Note_on_c, 0, 45, 37
2, 581815, Note_on_c, 0, 45, 0
2, 581815, Note_on_c, 0, 65, 0
2, 581815, Note_on_c, 0, 68, 0
2, 581815, Note_on_c, 0, 74, 0
2, 581940, Note_on_c, 0, 62, 37
2, 581940, Note_on_c, 0, 56, 37
2, 581940, Note_on_c, 0, 53, 37
2, 581995, Note_on_c, 0, 56, 0
2, 581995, Note_on_c, 0, 53, 0
2, 581995, Note_on_c, 0, 62, 0
2, 582000, Note_on_c, 0, 62, 37
2, 582000, Note_on_c, 0, 56, 37
2, 582000, Note_on_c, 0, 53, 37
2, 582055, Note_on_c, 0, 56, 0
2, 582055, Note_on_c, 0, 53, 0
2, 582055, Note_on_c, 0, 62, 0
2, 582120, Note_on_c, 0, 67, 37
2, 582120, Note_on_c, 0, 73, 37
2, 582120, Note_on_c, 0, 64, 37
2, 582120, Note_on_c, 0, 45, 37
2, 582175, Note_on_c, 0, 45, 0
2, 582175, Note_on_c, 0, 64, 0
2, 582175, Note_on_c, 0, 67, 0
2, 582175, Note_on_c, 0, 73, 0
2, 582300, Note_on_c, 0, 61, 37
2, 582300, Note_on_c, 0, 55, 37
2, 582300, Note_on_c, 0, 52, 37
2, 582355, Note_on_c, 0, 52, 0
2, 582355, Note_on_c, 0, 61, 0
2, 582355, Note_on_c, 0, 55, 0
2, 582360, Note_on_c, 0, 61, 37
2, 582360, Note_on_c, 0, 55, 37
2, 582360, Note_on_c, 0, 52, 37
2, 582415, Note_on_c, 0, 52, 0
2, 582415, Note_on_c, 0, 61, 0
2, 582415, Note_on_c, 0, 55, 0
2, 582480, Note_on_c, 0, 81, 37
2, 582480, Note_on_c, 0, 69, 37
2, 582480, Note_on_c, 0, 57, 37
2, 582535, Note_on_c, 0, 57, 0
2, 582660, Note_on_c, 0, 45, 37
2, 582715, Note_on_c, 0, 45, 0
2, 582720, Note_on_c, 0, 45, 37
2, 582775, Note_on_c, 0, 45, 0
2, 582835, Note_on_c, 0, 81, 0
2, 582835, Note_on_c, 0, 69, 0
2, 582840, Note_on_c, 0, 83, 48
2, 582840, Note_on_c, 0, 90, 48
2, 582840, Note_on_c, 0, 78, 48
2, 582840, Note_on_c, 0, 57, 41
2, 582895, Note_on_c, 0, 57, 0
2, 583020, Note_on_c, 0, 45, 45
2, 583075, Note_on_c, 0, 45, 0
2, 583080, Note_on_c, 0, 45, 47
2, 583135, Note_on_c, 0, 45, 0
2, 583195, Note_on_c, 0, 83, 0
2, 583200, Note_on_c, 0, 87, 60
2, 583200, Note_on_c, 0, 59, 52
2, 583200, Note_on_c, 0, 57, 52
2, 583255, Note_on_c, 0, 57, 0
2, 583255, Note_on_c, 0, 59, 0
2, 583380, Note_on_c, 0, 47, 56
2, 583380, Note_on_c, 0, 45, 56
2, 583435, Note_on_c, 0, 45, 0
2, 583435, Note_on_c, 0, 47, 0
2, 583440, Note_on_c, 0, 47, 58
2, 583440, Note_on_c, 0, 45, 58
2, 583495, Note_on_c, 0, 45, 0
2, 583495, Note_on_c, 0, 47, 0
2, 583555, Note_on_c, 0, 87, 0
2, 583560, Note_on_c, 0, 78, 0
2, 583560, Note_on_c, 0, 90, 0
2, 583560, Note_on_c, 0, 88, 71
2, 583560, Note_on_c, 0, 91, 71
2, 583560, Note_on_c, 0, 79, 71
2, 583560, Note_on_c, 0, 59, 64
2, 583560, Note_on_c, 0, 64, 64
2, 583560, Note_on_c, 0, 55, 64
2, 583615, Note_on_c, 0, 55, 0
2, 583615, Note_on_c, 0, 64, 0
2, 583615, Note_on_c, 0, 59, 0
2, 583740, Note_on_c, 0, 43, 67
2, 583795, Note_on_c, 0, 43, 0
2, 583800, Note_on_c, 0, 43, 69
2, 583855, Note_on_c, 0, 43, 0
2, 583915, Note_on_c, 0, 79, 0
2, 583915, Note_on_c, 0, 88, 0
2, 583915, Note_on_c, 0, 91, 0
2, 583920, Note_on_c, 0, 85, 83
2, 583920, Note_on_c, 0, 88, 83
2, 583920, Note_on_c, 0, 76, 83
2, 583920, Note_on_c, 0, 57, 75
2, 583920, Note_on_c, 0, 64, 75
2, 583920, Note_on_c, 0, 55, 75
2, 583975, Note_on_c, 0, 55, 0
2, 583975, Note_on_c, 0, 64, 0
2, 583975, Note_on_c, 0, 57, 0
2, 584100, Note_on_c, 0, 43, 79
2, 584155, Note_on_c, 0, 43, 0
2, 584160, Note_on_c, 0, 43, 81
2, 584215, Note_on_c, 0, 43, 0
2, 584275, Note_on_c, 0, 76, 0
2, 584275, Note_on_c, 0, 85, 0
2, 584275, Note_on_c, 0, 88, 0
2, 584280, Note_on_c, 0, 86, 94
2, 584280, Note_on_c, 0, 90, 94
2, 584280, Note_on_c, 0, 78, 94
2, 584280, Note_on_c, 0, 57, 87
2, 584280, Note_on_c, 0, 62, 87
2, 584280, Note_on_c, 0, 54, 87
2, 584335, Note_on_c, 0, 54, 0
2, 584335, Note_on_c, 0, 62, 0
2, 584335, Note_on_c, 0, 57, 0
2, 584460, Note_on_c, 0, 42, 90
2, 584515, Note_on_c, 0, 42, 0
2, 584520, Note_on_c, 0, 42, 92
2, 584575, Note_on_c, 0, 42, 0
2, 584635, Note_on_c, 0, 78, 0
2, 584635, Note_on_c, 0, 86, 0
2, 584635, Note_on_c, 0, 90, 0
2, 584640, Note_on_c, 0, 86, 106
2, 584640, Note_on_c, 0, 93, 106
2, 584640, Note_on_c, 0, 81, 106
2, 584640, Note_on_c, 0, 57, 98
2, 584640, Note_on_c, 0, 62, 98
2, 584640, Note_on_c, 0, 53, 98
2, 584695, Note_on_c, 0, 62, 0
2, 584695, Note_on_c, 0, 57, 0
2, 584695, Note_on_c, 0, 53, 0
2, 584820, Note_on_c, 0, 41, 102
2, 584875, Note_on_c, 0, 41, 0
2, 584880, Note_on_c, 0, 41, 104
2, 584935, Note_on_c, 0, 41, 0
2, 584995, Note_on_c, 0, 86, 0
2, 584995, Note_on_c, 0, 81, 0
2, 585000, Note_on_c, 0, 85, 113
2, 585000, Note_on_c, 0, 79, 113
2, 585000, Note_on_c, 0, 57, 109
2, 585000, Note_on_c, 0, 61, 109
2, 585000, Note_on_c, 0, 52, 109
2, 585055, Note_on_c, 0, 52, 0
2, 585055, Note_on_c, 0, 61, 0
2, 585055, Note_on_c, 0, 57, 0
2, 585180, Note_on_c, 0, 93, 0
2, 585180, Note_on_c, 0, 40, 113
2, 585235, Note_on_c, 0, 40, 0
2, 585235, Note_on_c, 0, 79, 0
2, 585235, Note_on_c, 0, 85, 0
2, 585240, Note_on_c, 0, 73, 115
2, 585240, Note_on_c, 0, 61, 115
2, 585240, Note_on_c, 0, 40, 117
2, 585295, Note_on_c, 0, 40, 0
2, 585295, Note_on_c, 0, 73, 0
2, 585295, Note_on_c, 0, 61, 0
2, 585360, Note_on_c, 0, 74, 117
2, 585360, Note_on_c, 0, 62, 117
2, 585360, Note_on_c, 0, 50, 117
2, 585360, Note_on_c, 0, 38, 117
2, 585415, Note_on_c, 0, 38, 0
2, 585415, Note_on_c, 0, 50, 0
2, 585540, Note_on_c, 0, 50, 117
2, 585540, Note_on_c, 0, 38, 117
2, 585595, Note_on_c, 0, 38, 0
2, 585595, Note_on_c, 0, 50, 0
2, 585595, Note_on_c, 0, 62, 0
2, 585595, Note_on_c, 0, 74, 0
2, 585600, Note_on_c, 0, 76, 117
2, 585600, Note_on_c, 0, 64, 117
2, 585600, Note_on_c, 0, 50, 117
2, 585600, Note_on_c, 0, 38, 117
2, 585655, Note_on_c, 0, 38, 0
2, 585655, Note_on_c, 0, 50, 0
2, 585655, Note_on_c, 0, 76, 0
2, 585655, Note_on_c, 0, 64, 0
2, 585660, Note_on_c, 0, 78, 117
2, 585660, Note_on_c, 0, 66, 117
2, 585715, Note_on_c, 0, 66, 0
2, 585715, Note_on_c, 0, 78, 0
2, 585720, Note_on_c, 0, 79, 117
2, 585720, Note_on_c, 0, 67, 117
2, 585720, Note_on_c, 0, 62, 117
2, 585720, Note_on_c, 0, 50, 117
2, 585775, Note_on_c, 0, 50, 0
2, 585775, Note_on_c, 0, 62, 0
2, 585775, Note_on_c, 0, 79, 0
2, 585775, Note_on_c, 0, 67, 0
2, 585900, Note_on_c, 0, 50, 117
2, 585900, Note_on_c, 0, 38, 117
2, 585955, Note_on_c, 0, 38, 0
2, 585955, Note_on_c, 0, 50, 0
2, 585960, Note_on_c, 0, 78, 117
2, 585960, Note_on_c, 0, 66, 117
2, 585960, Note_on_c, 0, 50, 117
2, 585960, Note_on_c, 0, 38, 117
2, 586015, Note_on_c, 0, 38, 0
2, 586015, Note_on_c, 0, 66, 0
2, 586015, Note_on_c, 0, 78, 0
2, 586020, Note_on_c, 0, 50, 0
2, 586080, Note_on_c, 0, 76, 117
2, 586080, Note_on_c, 0, 64, 117
2, 586080, Note_on_c, 0, 62, 117
2, 586080, Note_on_c, 0, 50, 117
2, 586135, Note_on_c, 0, 50, 0
2, 586135, Note_on_c, 0, 62, 0
2, 586135, Note_on_c, 0, 76, 0
2, 586135, Note_on_c, 0, 64, 0
2, 586260, Note_on_c, 0, 50, 117
2, 586260, Note_on_c, 0, 38, 117
2, 586315, Note_on_c, 0, 38, 0
2, 586315, Note_on_c, 0, 50, 0
2, 586320, Note_on_c, 0, 74, 117
2, 586320, Note_on_c, 0, 62, 117
2, 586320, Note_on_c, 0, 50, 117
2, 586320, Note_on_c, 0, 38, 117
2, 586375, Note_on_c, 0, 38, 0
2, 586375, Note_on_c, 0, 50, 0
2, 586375, Note_on_c, 0, 74, 0
2, 586375, Note_on_c, 0, 62, 0
2, 586440, Note_on_c, 0, 76, 117
2, 586440, Note_on_c, 0, 64, 117
2, 586440, Note_on_c, 0, 62, 117
2, 586440, Note_on_c, 0, 50, 117
2, 586495, Note_on_c, 0, 50, 0
2, 586495, Note_on_c, 0, 62, 0
2, 586495, Note_on_c, 0, 76, 0
2, 586495, Note_on_c, 0, 64, 0
2, 586620, Note_on_c, 0, 50, 117
2, 586620, Note_on_c, 0, 38, 117
2, 586675, Note_on_c, 0, 38, 0
2, 586675, Note_on_c, 0, 50, 0
2, 586680, Note_on_c, 0, 73, 117
2, 586680, Note_on_c, 0, 61, 117
2, 586680, Note_on_c, 0, 50, 117
2, 586680, Note_on_c, 0, 38, 117
2, 586735, Note_on_c, 0, 38, 0
2, 586735, Note_on_c, 0, 50, 0
2, 586735, Note_on_c, 0, 73, 0
2, 586735, Note_on_c, 0, 61, 0
2, 586800, Note_on_c, 0, 74, 117
2, 586800, Note_on_c, 0, 78, 117
2, 586800, Note_on_c, 0, 66, 117
2, 586800, Note_on_c, 0, 62, 117
2, 586800, Note_on_c, 0, 50, 117
2, 586855, Note_on_c, 0, 50, 0
2, 586855, Note_on_c, 0, 62, 0
2, 586980, Note_on_c, 0, 50, 117
2, 586980, Note_on_c, 0, 38, 117
2, 587035, Note_on_c, 0, 38, 0
2, 587035, Note_on_c, 0, 50, 0
2, 587035, Note_on_c, 0, 66, 0
2, 587035, Note_on_c, 0, 74, 0
2, 587035, Note_on_c, 0, 78, 0
2, 587040, Note_on_c, 0, 76, 117
2, 587040, Note_on_c, 0, 79, 117
2, 587040, Note_on_c, 0, 67, 117
2, 587040, Note_on_c, 0, 50, 117
2, 587040, Note_on_c, 0, 38, 117
2, 587095, Note_on_c, 0, 38, 0
2, 587095, Note_on_c, 0, 50, 0
2, 587095, Note_on_c, 0, 67, 0
2, 587095, Note_on_c, 0, 76, 0
2, 587095, Note_on_c, 0, 79, 0
2, 587100, Note_on_c, 0, 77, 117
2, 587100, Note_on_c, 0, 81, 117
2, 587100, Note_on_c, 0, 69, 117
2, 587155, Note_on_c, 0, 69, 0
2, 587155, Note_on_c, 0, 77, 0
2, 587155, Note_on_c, 0, 81, 0
2, 587160, Note_on_c, 0, 79, 117
2, 587160, Note_on_c, 0, 83, 117
2, 587160, Note_on_c, 0, 71, 117
2, 587160, Note_on_c, 0, 62, 117
2, 587160, Note_on_c, 0, 50, 117
2, 587215, Note_on_c, 0, 50, 0
2, 587215, Note_on_c, 0, 62, 0
2, 587215, Note_on_c, 0, 71, 0
2, 587215, Note_on_c, 0, 79, 0
2, 587215, Note_on_c, 0, 83, 0
2, 587340, Note_on_c, 0, 50, 117
2, 587340, Note_on_c, 0, 38, 117
2, 587395, Note_on_c, 0, 38, 0
2, 587395, Note_on_c, 0, 50, 0
2, 587400, Note_on_c, 0, 78, 117
2, 587400, Note_on_c, 0, 81, 117
2, 587400, Note_on_c, 0, 69, 117
2, 587400, Note_on_c, 0, 50, 117
2, 587400, Note_on_c, 0, 38, 117
2, 587455, Note_on_c, 0, 38, 0
2, 587455, Note_on_c, 0, 50, 0
2, 587455, Note_on_c, 0, 69, 0
2, 587455, Note_on_c, 0, 78, 0
2, 587455, Note_on_c, 0, 81, 0
2, 587520, Note_on_c, 0, 76, 117
2, 587520, Note_on_c, 0, 79, 117
2, 587520, Note_on_c, 0, 67, 117
2, 587520, Note_on_c, 0, 62, 117
2, 587520, Note_on_c, 0, 50, 117
2, 587575, Note_on_c, 0, 50, 0
2, 587575, Note_on_c, 0, 62, 0
2, 587575, Note_on_c, 0, 67, 0
2, 587575, Note_on_c, 0, 76, 0
2, 587575, Note_on_c, 0, 79, 0
2, 587700, Note_on_c, 0, 50, 117
2, 587700, Note_on_c, 0, 38, 117
2, 587755, Note_on_c, 0, 38, 0
2, 587755, Note_on_c, 0, 50, 0
2, 587760, Note_on_c, 0, 74, 117
2, 587760, Note_on_c, 0, 78, 117
2, 587760, Note_on_c, 0, 66, 117
2, 587760, Note_on_c, 0, 50, 117
2, 587760, Note_on_c, 0, 38, 117
2, 587815, Note_on_c, 0, 38, 0
2, 587815, Note_on_c, 0, 50, 0
2, 587815, Note_on_c, 0, 66, 0
2, 587815, Note_on_c, 0, 74, 0
2, 587815, Note_on_c, 0, 78, 0
2, 587880, Note_on_c, 0, 76, 117
2, 587880, Note_on_c, 0, 79, 117
2, 587880, Note_on_c, 0, 67, 117
2, 587880, Note_on_c, 0, 62, 117
2, 587880, Note_on_c, 0, 50, 117
2, 587935, Note_on_c, 0, 50, 0
2, 587935, Note_on_c, 0, 62, 0
2, 587935, Note_on_c, 0, 67, 0
2, 587935, Note_on_c, 0, 76, 0
2, 587935, Note_on_c, 0, 79, 0
2, 588060, Note_on_c, 0, 50, 117
2, 588060, Note_on_c, 0, 38, 117
2, 588115, Note_on_c, 0, 38, 0
2, 588115, Note_on_c, 0, 50, 0
2, 588120, Note_on_c, 0, 73, 117
2, 588120, Note_on_c, 0, 76, 117
2, 588120, Note_on_c, 0, 64, 117
2, 588120, Note_on_c, 0, 50, 117
2, 588120, Note_on_c, 0, 38, 117
2, 588175, Note_on_c, 0, 38, 0
2, 588175, Note_on_c, 0, 50, 0
2, 588175, Note_on_c, 0, 64, 0
2, 588175, Note_on_c, 0, 73, 0
2, 588175, Note_on_c, 0, 76, 0
2, 588240, Note_on_c, 0, 86, 117
2, 588240, Note_on_c, 0, 74, 117
2, 588240, Note_on_c, 0, 62, 117
2, 588240, Note_on_c, 0, 50, 117
2, 588295, Note_on_c, 0, 50, 0
2, 588295, Note_on_c, 0, 62, 0
2, 588295, Note_on_c, 0, 86, 0
2, 588295, Note_on_c, 0, 74, 0
2, 588360, Note_on_c, 0, 77, 117
2, 588360, Note_on_c, 0, 86, 117
2, 588360, Note_on_c, 0, 74, 117
2, 588415, Note_on_c, 0, 74, 0
2, 588415, Note_on_c, 0, 77, 0
2, 588415, Note_on_c, 0, 86, 0
2, 588420, Note_on_c, 0, 50, 117
2, 588420, Note_on_c, 0, 38, 117
2, 588475, Note_on_c, 0, 38, 0
2, 588475, Note_on_c, 0, 50, 0
2, 588480, Note_on_c, 0, 79, 117
2, 588480, Note_on_c, 0, 88, 117
2, 588480, Note_on_c, 0, 76, 117
2, 588480, Note_on_c, 0, 50, 117
2, 588480, Note_on_c, 0, 38, 117
2, 588535, Note_on_c, 0, 38, 0
2, 588535, Note_on_c, 0, 50, 0
2, 588535, Note_on_c, 0, 76, 0
2, 588535, Note_on_c, 0, 79, 0
2, 588535, Note_on_c, 0, 88, 0
2, 588540, Note_on_c, 0, 81, 117
2, 588540, Note_on_c, 0, 89, 117
2, 588540, Note_on_c, 0, 77, 117
2, 588595, Note_on_c, 0, 81, 0
2, 588595, Note_on_c, 0, 77, 0
2, 588595, Note_on_c, 0, 89, 0
2, 588600, Note_on_c, 0, 82, 117
2, 588600, Note_on_c, 0, 91, 117
2, 588600, Note_on_c, 0, 79, 117
2, 588600, Note_on_c, 0, 62, 117
2, 588600, Note_on_c, 0, 50, 117
2, 588655, Note_on_c, 0, 50, 0
2, 588655, Note_on_c, 0, 62, 0
2, 588655, Note_on_c, 0, 79, 0
2, 588655, Note_on_c, 0, 82, 0
2, 588655, Note_on_c, 0, 91, 0
2, 588720, Note_on_c, 0, 82, 117
2, 588720, Note_on_c, 0, 91, 117
2, 588720, Note_on_c, 0, 79, 117
2, 588775, Note_on_c, 0, 79, 0
2, 588775, Note_on_c, 0, 82, 0
2, 588775, Note_on_c, 0, 91, 0
2, 588780, Note_on_c, 0, 50, 117
2, 588780, Note_on_c, 0, 38, 117
2, 588835, Note_on_c, 0, 38, 0
2, 588835, Note_on_c, 0, 50, 0
2, 588840, Note_on_c, 0, 81, 117
2, 588840, Note_on_c, 0, 89, 117
2, 588840, Note_on_c, 0, 77, 117
2, 588840, Note_on_c, 0, 50, 117
2, 588840, Note_on_c, 0, 38, 117
2, 588895, Note_on_c, 0, 38, 0
2, 588895, Note_on_c, 0, 77, 0
2, 588895, Note_on_c, 0, 50, 0
2, 588895, Note_on_c, 0, 81, 0
2, 588895, Note_on_c, 0, 89, 0
2, 588960, Note_on_c, 0, 79, 117
2, 588960, Note_on_c, 0, 88, 117
2, 588960, Note_on_c, 0, 76, 117
2, 588960, Note_on_c, 0, 62, 117
2, 588960, Note_on_c, 0, 50, 117
2, 589015, Note_on_c, 0, 50, 0
2, 589015, Note_on_c, 0, 62, 0
2, 589015, Note_on_c, 0, 76, 0
2, 589015, Note_on_c, 0, 79, 0
2, 589015, Note_on_c, 0, 88, 0
2, 589080, Note_on_c, 0, 79, 117
2, 589080, Note_on_c, 0, 88, 117
2, 589080, Note_on_c, 0, 76, 117
2, 589135, Note_on_c, 0, 76, 0
2, 589135, Note_on_c, 0, 79, 0
2, 589135, Note_on_c, 0, 88, 0
2, 589140, Note_on_c, 0, 50, 117
2, 589140, Note_on_c, 0, 38, 117
2, 589195, Note_on_c, 0, 38, 0
2, 589195, Note_on_c, 0, 50, 0
2, 589200, Note_on_c, 0, 77, 117
2, 589200, Note_on_c, 0, 86, 117
2, 589200, Note_on_c, 0, 74, 117
2, 589200, Note_on_c, 0, 50, 117
2, 589200, Note_on_c, 0, 38, 117
2, 589255, Note_on_c, 0, 38, 0
2, 589255, Note_on_c, 0, 50, 0
2, 589255, Note_on_c, 0, 74, 0
2, 589255, Note_on_c, 0, 77, 0
2, 589255, Note_on_c, 0, 86, 0
2, 589320, Note_on_c, 0, 79, 117
2, 589320, Note_on_c, 0, 88, 117
2, 589320, Note_on_c, 0, 76, 117
2, 589320, Note_on_c, 0, 62, 117
2, 589320, Note_on_c, 0, 50, 117
2, 589375, Note_on_c, 0, 50, 0
2, 589375, Note_on_c, 0, 62, 0
2, 589375, Note_on_c, 0, 76, 0
2, 589375, Note_on_c, 0, 79, 0
2, 589375, Note_on_c, 0, 88, 0
2, 589440, Note_on_c, 0, 79, 117
2, 589440, Note_on_c, 0, 88, 117
2, 589440, Note_on_c, 0, 76, 117
2, 589495, Note_on_c, 0, 76, 0
2, 589495, Note_on_c, 0, 79, 0
2, 589495, Note_on_c, 0, 88, 0
2, 589500, Note_on_c, 0, 50, 117
2, 589500, Note_on_c, 0, 38, 117
2, 589555, Note_on_c, 0, 38, 0
2, 589555, Note_on_c, 0, 50, 0
2, 589560, Note_on_c, 0, 76, 117
2, 589560, Note_on_c, 0, 85, 117
2, 589560, Note_on_c, 0, 73, 117
2, 589560, Note_on_c, 0, 50, 117
2, 589560, Note_on_c, 0, 38, 117
2, 589615, Note_on_c, 0, 38, 0
2, 589615, Note_on_c, 0, 50, 0
2, 589615, Note_on_c, 0, 73, 0
2, 589615, Note_on_c, 0, 76, 0
2, 589615, Note_on_c, 0, 85, 0
2, 589680, Note_on_c, 0, 86, 117
2, 589680, Note_on_c, 0, 89, 117
2, 589680, Note_on_c, 0, 77, 117
2, 589680, Note_on_c, 0, 62, 117
2, 589680, Note_on_c, 0, 50, 117
2, 589735, Note_on_c, 0, 50, 0
2, 589735, Note_on_c, 0, 77, 0
2, 589735, Note_on_c, 0, 62, 0
2, 589735, Note_on_c, 0, 86, 0
2, 589735, Note_on_c, 0, 89, 0
2, 589800, Note_on_c, 0, 86, 117
2, 589800, Note_on_c, 0, 89, 117
2, 589800, Note_on_c, 0, 77, 117
2, 589855, Note_on_c, 0, 86, 0
2, 589855, Note_on_c, 0, 77, 0
2, 589855, Note_on_c, 0, 89, 0
2, 589860, Note_on_c, 0, 50, 117
2, 589860, Note_on_c, 0, 38, 117
2, 589915, Note_on_c, 0, 38, 0
2, 589915, Note_on_c, 0, 50, 0
2, 589920, Note_on_c, 0, 88, 117
2, 589920, Note_on_c, 0, 91, 117
2, 589920, Note_on_c, 0, 79, 117
2, 589920, Note_on_c, 0, 50, 117
2, 589920, Note_on_c, 0, 38, 117
2, 589975, Note_on_c, 0, 38, 0
2, 589975, Note_on_c, 0, 50, 0
2, 589975, Note_on_c, 0, 79, 0
2, 589975, Note_on_c, 0, 88, 0
2, 589975, Note_on_c, 0, 91, 0
2, 589980, Note_on_c, 0, 89, 117
2, 589980, Note_on_c, 0, 93, 117
2, 589980, Note_on_c, 0, 81, 117
2, 590035, Note_on_c, 0, 81, 0
2, 590035, Note_on_c, 0, 89, 0
2, 590035, Note_on_c, 0, 93, 0
2, 590040, Note_on_c, 0, 91, 117
2, 590040, Note_on_c, 0, 94, 117
2, 590040, Note_on_c, 0, 82, 117
2, 590040, Note_on_c, 0, 62, 117
2, 590040, Note_on_c, 0, 50, 117
2, 590095, Note_on_c, 0, 50, 0
2, 590095, Note_on_c, 0, 62, 0
2, 590095, Note_on_c, 0, 82, 0
2, 590095, Note_on_c, 0, 91, 0
2, 590095, Note_on_c, 0, 94, 0
2, 590160, Note_on_c, 0, 91, 117
2, 590160, Note_on_c, 0, 94, 117
2, 590160, Note_on_c, 0, 82, 117
2, 590215, Note_on_c, 0, 82, 0
2, 590215, Note_on_c, 0, 91, 0
2, 590215, Note_on_c, 0, 94, 0
2, 590220, Note_on_c, 0, 50, 117
2, 590220, Note_on_c, 0, 38, 117
2, 590275, Note_on_c, 0, 38, 0
2, 590275, Note_on_c, 0, 50, 0
2, 590280, Note_on_c, 0, 89, 117
2, 590280, Note_on_c, 0, 93, 117
2, 590280, Note_on_c, 0, 81, 117
2, 590280, Note_on_c, 0, 50, 117
2, 590280, Note_on_c, 0, 38, 117
2, 590335, Note_on_c, 0, 38, 0
2, 590335, Note_on_c, 0, 50, 0
2, 590335, Note_on_c, 0, 81, 0
2, 590335, Note_on_c, 0, 89, 0
2, 590335, Note_on_c, 0, 93, 0
2, 590400, Note_on_c, 0, 88, 117
2, 590400, Note_on_c, 0, 91, 117
2, 590400, Note_on_c, 0, 79, 117
2, 590400, Note_on_c, 0, 62, 117
2, 590400, Note_on_c, 0, 50, 117
2, 590455, Note_on_c, 0, 50, 0
2, 590455, Note_on_c, 0, 62, 0
2, 590455, Note_on_c, 0, 79, 0
2, 590455, Note_on_c, 0, 88, 0
2, 590455, Note_on_c, 0, 91, 0
2, 590520, Note_on_c, 0, 88, 117
2, 590520, Note_on_c, 0, 91, 117
2, 590520, Note_on_c, 0, 79, 117
2, 590575, Note_on_c, 0, 79, 0
2, 590575, Note_on_c, 0, 88, 0
2, 590575, Note_on_c, 0, 91, 0
2, 590580, Note_on_c, 0, 50, 117
2, 590580, Note_on_c, 0, 38, 117
2, 590635, Note_on_c, 0, 38, 0
2, 590635, Note_on_c, 0, 50, 0
2, 590640, Note_on_c, 0, 86, 117
2, 590640, Note_on_c, 0, 89, 117
2, 590640, Note_on_c, 0, 77, 117
2, 590640, Note_on_c, 0, 50, 117
2, 590640, Note_on_c, 0, 38, 117
2, 590695, Note_on_c, 0, 38, 0
2, 590695, Note_on_c, 0, 89, 0
2, 590695, Note_on_c, 0, 50, 0
2, 590695, Note_on_c, 0, 86, 0
2, 590695, Note_on_c, 0, 77, 0
2, 590760, Note_on_c, 0, 88, 117
2, 590760, Note_on_c, 0, 91, 117
2, 590760, Note_on_c, 0, 79, 117
2, 590760, Note_on_c, 0, 62, 117
2, 590760, Note_on_c, 0, 50, 117
2, 590815, Note_on_c, 0, 50, 0
2, 590815, Note_on_c, 0, 62, 0
2, 590815, Note_on_c, 0, 79, 0
2, 590815, Note_on_c, 0, 88, 0
2, 590815, Note_on_c, 0, 91, 0
2, 590880, Note_on_c, 0, 88, 117
2, 590880, Note_on_c, 0, 91, 117
2, 590880, Note_on_c, 0, 79, 117
2, 590935, Note_on_c, 0, 79, 0
2, 590935, Note_on_c, 0, 88, 0
2, 590935, Note_on_c, 0, 91, 0
2, 590940, Note_on_c, 0, 50, 117
2, 590940, Note_on_c, 0, 38, 117
2, 590995, Note_on_c, 0, 38, 0
2, 590995, Note_on_c, 0, 50, 0
2, 591000, Note_on_c, 0, 85, 117
2, 591000, Note_on_c, 0, 88, 117
2, 591000, Note_on_c, 0, 76, 117
2, 591000, Note_on_c, 0, 50, 117
2, 591000, Note_on_c, 0, 38, 117
2, 591055, Note_on_c, 0, 38, 0
2, 591055, Note_on_c, 0, 50, 0
2, 591055, Note_on_c, 0, 76, 0
2, 591055, Note_on_c, 0, 85, 0
2, 591055, Note_on_c, 0, 88, 0
2, 591120, Note_on_c, 0, 86, 117
2, 591120, Note_on_c, 0, 89, 117
2, 591120, Note_on_c, 0, 77, 117
2, 591120, Note_on_c, 0, 62, 117
2, 591120, Note_on_c, 0, 50, 117
2, 591175, Note_on_c, 0, 50, 0
2, 591175, Note_on_c, 0, 89, 0
2, 591175, Note_on_c, 0, 62, 0
2, 591175, Note_on_c, 0, 86, 0
2, 591175, Note_on_c, 0, 77, 0
2, 591300, Note_on_c, 0, 77, 117
2, 591300, Note_on_c, 0, 65, 117
2, 591300, Note_on_c, 0, 50, 117
2, 591300, Note_on_c, 0, 38, 117
2, 591355, Note_on_c, 0, 38, 0
2, 591355, Note_on_c, 0, 50, 0
2, 591355, Note_on_c, 0, 77, 0
2, 591355, Note_on_c, 0, 65, 0
2, 591360, Note_on_c, 0, 77, 117
2, 591360, Note_on_c, 0, 65, 117
2, 591360, Note_on_c, 0, 50, 117
2, 591360, Note_on_c, 0, 38, 117
2, 591415, Note_on_c, 0, 38, 0
2, 591415, Note_on_c, 0, 50, 0
2, 591415, Note_on_c, 0, 77, 0
2, 591415, Note_on_c, 0, 65, 0
2, 591480, Note_on_c, 0, 89, 117
2, 591480, Note_on_c, 0, 77, 117
2, 591480, Note_on_c, 0, 62, 117
2, 591480, Note_on_c, 0, 50, 117
2, 591535, Note_on_c, 0, 50, 0
2, 591535, Note_on_c, 0, 62, 0
2, 591535, Note_on_c, 0, 89, 0
2, 591535, Note_on_c, 0, 77, 0
2, 591600, Note_on_c, 0, 91, 117
2, 591600, Note_on_c, 0, 79, 117
2, 591600, Note_on_c, 0, 64, 117
2, 591600, Note_on_c, 0, 52, 117
2, 591655, Note_on_c, 0, 52, 0
2, 591655, Note_on_c, 0, 64, 0
2, 591655, Note_on_c, 0, 91, 0
2, 591655, Note_on_c, 0, 79, 0
2, 591720, Note_on_c, 0, 93, 117
2, 591720, Note_on_c, 0, 81, 117
2, 591720, Note_on_c, 0, 65, 117
2, 591720, Note_on_c, 0, 53, 117
2, 591775, Note_on_c, 0, 65, 0
2, 591775, Note_on_c, 0, 53, 0
2, 591775, Note_on_c, 0, 93, 0
2, 591775, Note_on_c, 0, 81, 0
2, 591840, Note_on_c, 0, 94, 117
2, 591840, Note_on_c, 0, 82, 117
2, 591840, Note_on_c, 0, 67, 117
2, 591840, Note_on_c, 0, 55, 117
2, 591895, Note_on_c, 0, 55, 0
2, 591895, Note_on_c, 0, 67, 0
2, 591895, Note_on_c, 0, 94, 0
2, 591895, Note_on_c, 0, 82, 0
2, 592020, Note_on_c, 0, 46, 117
2, 592020, Note_on_c, 0, 43, 117
2, 592075, Note_on_c, 0, 43, 0
2, 592075, Note_on_c, 0, 46, 0
2, 592080, Note_on_c, 0, 46, 117
2, 592080, Note_on_c, 0, 43, 117
2, 592135, Note_on_c, 0, 43, 0
2, 592135, Note_on_c, 0, 46, 0
2, 592200, Note_on_c, 0, 82, 117
2, 592200, Note_on_c, 0, 70, 117
2, 592200, Note_on_c, 0, 58, 117
2, 592200, Note_on_c, 0, 55, 117
2, 592255, Note_on_c, 0, 55, 0
2, 592255, Note_on_c, 0, 58, 0
2, 592255, Note_on_c, 0, 82, 0
2, 592255, Note_on_c, 0, 70, 0
2, 592320, Note_on_c, 0, 84, 117
2, 592320, Note_on_c, 0, 72, 117
2, 592320, Note_on_c, 0, 55, 117
2, 592320, Note_on_c, 0, 52, 117
2, 592375, Note_on_c, 0, 52, 0
2, 592375, Note_on_c, 0, 55, 0
2, 592375, Note_on_c, 0, 84, 0
2, 592375, Note_on_c, 0, 72, 0
2, 592440, Note_on_c, 0, 86, 117
2, 592440, Note_on_c, 0, 74, 117
2, 592440, Note_on_c, 0, 53, 117
2, 592440, Note_on_c, 0, 50, 117
2, 592495, Note_on_c, 0, 50, 0
2, 592495, Note_on_c, 0, 74, 0
2, 592495, Note_on_c, 0, 53, 0
2, 592495, Note_on_c, 0, 86, 0
2, 592560, Note_on_c, 0, 88, 117
2, 592560, Note_on_c, 0, 76, 117
2, 592560, Note_on_c, 0, 52, 117
2, 592560, Note_on_c, 0, 60, 117
2, 592560, Note_on_c, 0, 48, 117
2, 592615, Note_on_c, 0, 48, 0
2, 592615, Note_on_c, 0, 60, 0
2, 592615, Note_on_c, 0, 52, 0
2, 592615, Note_on_c, 0, 88, 0
2, 592615, Note_on_c, 0, 76, 0
2, 592740, Note_on_c, 0, 76, 117
2, 592740, Note_on_c, 0, 64, 117
2, 592740, Note_on_c, 0, 48, 117
2, 592740, Note_on_c, 0, 36, 117
2, 592795, Note_on_c, 0, 36, 0
2, 592795, Note_on_c, 0, 48, 0
2, 592795, Note_on_c, 0, 76, 0
2, 592795, Note_on_c, 0, 64, 0
2, 592800, Note_on_c, 0, 76, 117
2, 592800, Note_on_c, 0, 64, 117
2, 592800, Note_on_c, 0, 48, 117
2, 592800, Note_on_c, 0, 36, 117
2, 592855, Note_on_c, 0, 36, 0
2, 592855, Note_on_c, 0, 48, 0
2, 592855, Note_on_c, 0, 76, 0
2, 592855, Note_on_c, 0, 64, 0
2, 592920, Note_on_c, 0, 88, 117
2, 592920, Note_on_c, 0, 76, 117
2, 592920, Note_on_c, 0, 60, 117
2, 592920, Note_on_c, 0, 48, 117
2, 592975, Note_on_c, 0, 48, 0
2, 592975, Note_on_c, 0, 60, 0
2, 592975, Note_on_c, 0, 88, 0
2, 592975, Note_on_c, 0, 76, 0
2, 593040, Note_on_c, 0, 89, 117
2, 593040, Note_on_c, 0, 77, 117
2, 593040, Note_on_c, 0, 62, 117
2, 593040, Note_on_c, 0, 50, 117
2, 593095, Note_on_c, 0, 50, 0
2, 593095, Note_on_c, 0, 62, 0
2, 593095, Note_on_c, 0, 77, 0
2, 593095, Note_on_c, 0, 89, 0
2, 593160, Note_on_c, 0, 91, 117
2, 593160, Note_on_c, 0, 79, 117
2, 593160, Note_on_c, 0, 64, 117
2, 593160, Note_on_c, 0, 52, 117
2, 593215, Note_on_c, 0, 52, 0
2, 593215, Note_on_c, 0, 64, 0
2, 593215, Note_on_c, 0, 91, 0
2, 593215, Note_on_c, 0, 79, 0
2, 593280, Note_on_c, 0, 93, 117
2, 593280, Note_on_c, 0, 81, 117
2, 593280, Note_on_c, 0, 65, 117
2, 593280, Note_on_c, 0, 53, 117
2, 593335, Note_on_c, 0, 65, 0
2, 593335, Note_on_c, 0, 53, 0
2, 593335, Note_on_c, 0, 93, 0
2, 593335, Note_on_c, 0, 81, 0
2, 593460, Note_on_c, 0, 45, 117
2, 593460, Note_on_c, 0, 41, 117
2, 593515, Note_on_c, 0, 41, 0
2, 593515, Note_on_c, 0, 45, 0
2, 593520, Note_on_c, 0, 45, 117
2, 593520, Note_on_c, 0, 41, 117
2, 593575, Note_on_c, 0, 41, 0
2, 593575, Note_on_c, 0, 45, 0
2, 593640, Note_on_c, 0, 69, 117
2, 593640, Note_on_c, 0, 57, 117
2, 593640, Note_on_c, 0, 53, 117
2, 593695, Note_on_c, 0, 57, 0
2, 593695, Note_on_c, 0, 53, 0
2, 593695, Note_on_c, 0, 69, 0
2, 593760, Note_on_c, 0, 65, 117
2, 593760, Note_on_c, 0, 57, 117
2, 593760, Note_on_c, 0, 50, 117
2, 593815, Note_on_c, 0, 50, 0
2, 593815, Note_on_c, 0, 65, 0
2, 593815, Note_on_c, 0, 57, 0
2, 593880, Note_on_c, 0, 64, 117
2, 593880, Note_on_c, 0, 57, 117
2, 593880, Note_on_c, 0, 48, 117
2, 593935, Note_on_c, 0, 48, 0
2, 593935, Note_on_c, 0, 64, 0
2, 593935, Note_on_c, 0, 57, 0
2, 594000, Note_on_c, 0, 57, 53
2, 594000, Note_on_c, 0, 74, 53
2, 594000, Note_on_c, 0, 48, 53
2, 594000, Note_on_c, 0, 62, 53
2, 594000, Note_on_c, 0, 50, 53
2, 594115, Note_on_c, 0, 50, 0
2, 594115, Note_on_c, 0, 62, 0
2, 594120, Note_on_c, 0, 64, 53
2, 594120, Note_on_c, 0, 52, 53
2, 594235, Note_on_c, 0, 52, 0
2, 594235, Note_on_c, 0, 64, 0
2, 594240, Note_on_c, 0, 66, 53
2, 594240, Note_on_c, 0, 54, 53
2, 594355, Note_on_c, 0, 54, 0
2, 594355, Note_on_c, 0, 66, 0
2, 594355, Note_on_c, 0, 48, 0
2, 594355, Note_on_c, 0, 57, 0
2, 594360, Note_on_c, 0, 55, 53
2, 594360, Note_on_c, 0, 67, 53
2, 594360, Note_on_c, 0, 46, 53
2, 594475, Note_on_c, 0, 74, 0
2, 594480, Note_on_c, 0, 76, 53
2, 594595, Note_on_c, 0, 76, 0
2, 594600, Note_on_c, 0, 78, 53
2, 594715, Note_on_c, 0, 78, 0
2, 594720, Note_on_c, 0, 79, 74
2, 594835, Note_on_c, 0, 46, 0
2, 594835, Note_on_c, 0, 67, 0
2, 594835, Note_on_c, 0, 55, 0
2, 594840, Note_on_c, 0, 53, 67
2, 594840, Note_on_c, 0, 65, 67
2, 594955, Note_on_c, 0, 65, 0
2, 594955, Note_on_c, 0, 53, 0
2, 594960, Note_on_c, 0, 51, 74
2, 594960, Note_on_c, 0, 63, 74
2, 595075, Note_on_c, 0, 63, 0
2, 595075, Note_on_c, 0, 79, 0
2, 595075, Note_on_c, 0, 51, 0
2, 595080, Note_on_c, 0, 75, 96
2, 595080, Note_on_c, 0, 79, 96
2, 595080, Note_on_c, 0, 67, 96
2, 595080, Note_on_c, 0, 58, 81
2, 595080, Note_on_c, 0, 46, 81
2, 595195, Note_on_c, 0, 46, 0
2, 595195, Note_on_c, 0, 58, 0
2, 595200, Note_on_c, 0, 56, 89
2, 595200, Note_on_c, 0, 44, 89
2, 595315, Note_on_c, 0, 44, 0
2, 595315, Note_on_c, 0, 56, 0
2, 595320, Note_on_c, 0, 55, 96
2, 595320, Note_on_c, 0, 43, 96
2, 595435, Note_on_c, 0, 43, 0
2, 595435, Note_on_c, 0, 55, 0
2, 595435, Note_on_c, 0, 67, 0
2, 595435, Note_on_c, 0, 75, 0
2, 595435, Note_on_c, 0, 79, 0
2, 595440, Note_on_c, 0, 76, 103
2, 595440, Note_on_c, 0, 79, 103
2, 595440, Note_on_c, 0, 70, 103
2, 595440, Note_on_c, 0, 55, 117
2, 595440, Note_on_c, 0, 43, 117
2, 595555, Note_on_c, 0, 70, 0
2, 595555, Note_on_c, 0, 76, 0
2, 595560, Note_on_c, 0, 77, 110
2, 595560, Note_on_c, 0, 69, 110
2, 595675, Note_on_c, 0, 69, 0
2, 595675, Note_on_c, 0, 77, 0
2, 595675, Note_on_c, 0, 79, 0
2, 595680, Note_on_c, 0, 79, 117
2, 595680, Note_on_c, 0, 70, 117
2, 595795, Note_on_c, 0, 43, 0
2, 595795, Note_on_c, 0, 55, 0
2, 595800, Note_on_c, 0, 76, 96
2, 595800, Note_on_c, 0, 57, 67
2, 595800, Note_on_c, 0, 45, 67
2, 595915, Note_on_c, 0, 76, 0
2, 595915, Note_on_c, 0, 70, 0
2, 595915, Note_on_c, 0, 79, 0
2, 595920, Note_on_c, 0, 74, 74
2, 595920, Note_on_c, 0, 77, 74
2, 595920, Note_on_c, 0, 69, 74
2, 596035, Note_on_c, 0, 69, 0
2, 596035, Note_on_c, 0, 74, 0
2, 596035, Note_on_c, 0, 77, 0
2, 596040, Note_on_c, 0, 73, 53
2, 596040, Note_on_c, 0, 76, 53
2, 596040, Note_on_c, 0, 67, 53
2, 596155, Note_on_c, 0, 67, 0
2, 596155, Note_on_c, 0, 76, 0
2, 596155, Note_on_c, 0, 73, 0
2, 596155, Note_on_c, 0, 57, 0
2, 596155, Note_on_c, 0, 45, 0
2, 596160, Note_on_c, 0, 46, 57
2, 596160, Note_on_c, 0, 55, 53
2, 596160, Note_on_c, 0, 87, 69
2, 596160, Note_on_c, 0, 91, 69
2, 596160, Note_on_c, 0, 79, 69
2, 596160, Note_on_c, 0, 55, 58
2, 596160, Note_on_c, 0, 58, 58
2, 596160, Note_on_c, 0, 67, 58
2, 596160, Note_on_c, 0, 46, 58
2, 596280, Note_on_c, 0, 65, 64
2, 596395, Note_on_c, 0, 65, 0
2, 596400, Note_on_c, 0, 63, 69
2, 596515, Note_on_c, 0, 63, 0
2, 596515, Note_on_c, 0, 67, 0
2, 596515, Note_on_c, 0, 55, 0
2, 596515, Note_on_c, 0, 79, 0
2, 596515, Note_on_c, 0, 87, 0
2, 596515, Note_on_c, 0, 91, 0
2, 596515, Note_on_c, 0, 46, 0
2, 596515, Note_on_c, 0, 55, 0
2, 596515, Note_on_c, 0, 46, 0
2, 596520, Note_on_c, 0, 87, 85
2, 596520, Note_on_c, 0, 91, 85
2, 596520, Note_on_c, 0, 79, 85
2, 596520, Note_on_c, 0, 67, 74
2, 596635, Note_on_c, 0, 67, 0
2, 596635, Note_on_c, 0, 58, 0
2, 596640, Note_on_c, 0, 65, 80
2, 596640, Note_on_c, 0, 56, 80
2, 596755, Note_on_c, 0, 56, 0
2, 596755, Note_on_c, 0, 65, 0
2, 596760, Note_on_c, 0, 63, 85
2, 596760, Note_on_c, 0, 55, 85
2, 596875, Note_on_c, 0, 55, 0
2, 596875, Note_on_c, 0, 63, 0
2, 596875, Note_on_c, 0, 79, 0
2, 596875, Note_on_c, 0, 87, 0
2, 596875, Note_on_c, 0, 91, 0
2, 596880, Note_on_c, 0, 88, 101
2, 596880, Note_on_c, 0, 91, 101
2, 596880, Note_on_c, 0, 79, 101
2, 596880, Note_on_c, 0, 58, 90
2, 596880, Note_on_c, 0, 64, 90
2, 596880, Note_on_c, 0, 55, 90
2, 596995, Note_on_c, 0, 55, 0
2, 596995, Note_on_c, 0, 64, 0
2, 596995, Note_on_c, 0, 58, 0
2, 597000, Note_on_c, 0, 65, 96
2, 597000, Note_on_c, 0, 57, 96
2, 597115, Note_on_c, 0, 57, 0
2, 597115, Note_on_c, 0, 65, 0
2, 597120, Note_on_c, 0, 67, 101
2, 597120, Note_on_c, 0, 58, 101
2, 597235, Note_on_c, 0, 58, 0
2, 597235, Note_on_c, 0, 67, 0
2, 597240, Note_on_c, 0, 64, 106
2, 597240, Note_on_c, 0, 67, 106
2, 597240, Note_on_c, 0, 58, 106
2, 597355, Note_on_c, 0, 58, 0
2, 597355, Note_on_c, 0, 67, 0
2, 597355, Note_on_c, 0, 79, 0
2, 597355, Note_on_c, 0, 64, 0
2, 597355, Note_on_c, 0, 88, 0
2, 597355, Note_on_c, 0, 91, 0
2, 597360, Note_on_c, 0, 86, 112
2, 597360, Note_on_c, 0, 89, 112
2, 597360, Note_on_c, 0, 77, 112
2, 597360, Note_on_c, 0, 62, 112
2, 597360, Note_on_c, 0, 65, 112
2, 597360, Note_on_c, 0, 57, 112
2, 597475, Note_on_c, 0, 57, 0
2, 597475, Note_on_c, 0, 89, 0
2, 597475, Note_on_c, 0, 77, 0
2, 597475, Note_on_c, 0, 65, 0
2, 597475, Note_on_c, 0, 86, 0
2, 597475, Note_on_c, 0, 62, 0
2, 597480, Note_on_c, 0, 88, 117
2, 597480, Note_on_c, 0, 91, 117
2, 597480, Note_on_c, 0, 79, 117
2, 597480, Note_on_c, 0, 61, 117
2, 597480, Note_on_c, 0, 64, 117
2, 597480, Note_on_c, 0, 55, 117
2, 597595, Note_on_c, 0, 55, 0
2, 597595, Note_on_c, 0, 64, 0
2, 597595, Note_on_c, 0, 79, 0
2, 597595, Note_on_c, 0, 61, 0
2, 597595, Note_on_c, 0, 88, 0
2, 597595, Note_on_c, 0, 91, 0
2, 597600, Note_on_c, 0, 93, 117
2, 597600, Note_on_c, 0, 81, 117
2, 597600, Note_on_c, 0, 62, 117
2, 597600, Note_on_c, 0, 65, 117
2, 597600, Note_on_c, 0, 53, 117
2, 597660, Note_on_c, 0, 65, 0
2, 597660, Note_on_c, 0, 62, 0
2, 597660, Note_on_c, 0, 53, 0
2, 597660, Note_on_c, 0, 93, 0
2, 597660, Note_on_c, 0, 81, 0
2, 597720, Note_on_c, 0, 89, 71
2, 597720, Note_on_c, 0, 77, 71
2, 597720, Note_on_c, 0, 62, 71
2, 597720, Note_on_c, 0, 50, 71
2, 597780, Note_on_c, 0, 50, 0
2, 597780, Note_on_c, 0, 62, 0
2, 597780, Note_on_c, 0, 77, 0
2, 597780, Note_on_c, 0, 89, 0
2, 597840, Note_on_c, 0, 94, 71
2, 597840, Note_on_c, 0, 82, 71
2, 597840, Note_on_c, 0, 67, 71
2, 597840, Note_on_c, 0, 55, 71
2, 597900, Note_on_c, 0, 55, 0
2, 597900, Note_on_c, 0, 67, 0
2, 597900, Note_on_c, 0, 94, 0
2, 597900, Note_on_c, 0, 82, 0
2, 597960, Note_on_c, 0, 91, 117
2, 597960, Note_on_c, 0, 79, 117
2, 597960, Note_on_c, 0, 64, 117
2, 597960, Note_on_c, 0, 52, 117
2, 598020, Note_on_c, 0, 52, 0
2, 598020, Note_on_c, 0, 64, 0
2, 598020, Note_on_c, 0, 91, 0
2, 598020, Note_on_c, 0, 79, 0
2, 598080, Note_on_c, 0, 88, 71
2, 598080, Note_on_c, 0, 76, 71
2, 598080, Note_on_c, 0, 61, 71
2, 598080, Note_on_c, 0, 49, 71
2, 598140, Note_on_c, 0, 49, 0
2, 598140, Note_on_c, 0, 61, 0
2, 598140, Note_on_c, 0, 88, 0
2, 598140, Note_on_c, 0, 76, 0
2, 598200, Note_on_c, 0, 93, 71
2, 598200, Note_on_c, 0, 81, 71
2, 598200, Note_on_c, 0, 57, 71
2, 598200, Note_on_c, 0, 45, 71
2, 598260, Note_on_c, 0, 45, 0
2, 598260, Note_on_c, 0, 57, 0
2, 598260, Note_on_c, 0, 93, 0
2, 598260, Note_on_c, 0, 81, 0
2, 598320, Note_on_c, 0, 69, 117
2, 598320, Note_on_c, 0, 77, 117
2, 598320, Note_on_c, 0, 65, 117
2, 598320, Note_on_c, 0, 62, 117
2, 598320, Note_on_c, 0, 50, 117
2, 598380, Note_on_c, 0, 50, 0
2, 598380, Note_on_c, 0, 77, 0
2, 598380, Note_on_c, 0, 62, 0
2, 598380, Note_on_c, 0, 65, 0
2, 598380, Note_on_c, 0, 69, 0
2, 598440, Note_on_c, 0, 74, 71
2, 598440, Note_on_c, 0, 67, 71
2, 598440, Note_on_c, 0, 58, 71
2, 598440, Note_on_c, 0, 46, 71
2, 598500, Note_on_c, 0, 46, 0
2, 598500, Note_on_c, 0, 58, 0
2, 598500, Note_on_c, 0, 74, 0
2, 598500, Note_on_c, 0, 67, 0
2, 598560, Note_on_c, 0, 74, 71
2, 598560, Note_on_c, 0, 79, 71
2, 598560, Note_on_c, 0, 70, 71
2, 598560, Note_on_c, 0, 55, 71
2, 598560, Note_on_c, 0, 43, 71
2, 598620, Note_on_c, 0, 43, 0
2, 598620, Note_on_c, 0, 55, 0
2, 598620, Note_on_c, 0, 70, 0
2, 598620, Note_on_c, 0, 74, 0
2, 598620, Note_on_c, 0, 79, 0
2, 598680, Note_on_c, 0, 71, 117
2, 598680, Note_on_c, 0, 74, 117
2, 598680, Note_on_c, 0, 76, 117
2, 598680, Note_on_c, 0, 64, 117
2, 598680, Note_on_c, 0, 56, 117
2, 598680, Note_on_c, 0, 44, 117
2, 598740, Note_on_c, 0, 44, 0
2, 598740, Note_on_c, 0, 56, 0
2, 598740, Note_on_c, 0, 76, 0
2, 598740, Note_on_c, 0, 64, 0
2, 598740, Note_on_c, 0, 71, 0
2, 598740, Note_on_c, 0, 74, 0
2, 598800, Note_on_c, 0, 69, 71
2, 598800, Note_on_c, 0, 73, 71
2, 598800, Note_on_c, 0, 64, 71
2, 598800, Note_on_c, 0, 57, 71
2, 598800, Note_on_c, 0, 45, 71
2, 598860, Note_on_c, 0, 45, 0
2, 598860, Note_on_c, 0, 57, 0
2, 598860, Note_on_c, 0, 64, 0
2, 598860, Note_on_c, 0, 69, 0
2, 598860, Note_on_c, 0, 73, 0
2, 598920, Note_on_c, 0, 74, 71
2, 598920, Note_on_c, 0, 77, 71
2, 598920, Note_on_c, 0, 65, 71
2, 598920, Note_on_c, 0, 57, 71
2, 598920, Note_on_c, 0, 45, 71
2, 598980, Note_on_c, 0, 45, 0
2, 598980, Note_on_c, 0, 77, 0
2, 598980, Note_on_c, 0, 57, 0
2, 598980, Note_on_c, 0, 65, 0
2, 598980, Note_on_c, 0, 74, 0
2, 599040, Note_on_c, 0, 77, 117
2, 599040, Note_on_c, 0, 81, 117
2, 599040, Note_on_c, 0, 69, 117
2, 599040, Note_on_c, 0, 50, 117
2, 599040, Note_on_c, 0, 38, 117
2, 599100, Note_on_c, 0, 38, 0
2, 599100, Note_on_c, 0, 50, 0
2, 599100, Note_on_c, 0, 69, 0
2, 599100, Note_on_c, 0, 77, 0
2, 599100, Note_on_c, 0, 81, 0
2, 599160, Note_on_c, 0, 89, 71
2, 599160, Note_on_c, 0, 77, 71
2, 599160, Note_on_c, 0, 62, 71
2, 599160, Note_on_c, 0, 50, 71
2, 599220, Note_on_c, 0, 50, 0
2, 599220, Note_on_c, 0, 62, 0
2, 599220, Note_on_c, 0, 77, 0
2, 599220, Note_on_c, 0, 89, 0
2, 599280, Note_on_c, 0, 94, 71
2, 599280, Note_on_c, 0, 82, 71
2, 599280, Note_on_c, 0, 67, 71
2, 599280, Note_on_c, 0, 55, 71
2, 599340, Note_on_c, 0, 55, 0
2, 599340, Note_on_c, 0, 67, 0
2, 599340, Note_on_c, 0, 94, 0
2, 599340, Note_on_c, 0, 82, 0
2, 599400, Note_on_c, 0, 91, 117
2, 599400, Note_on_c, 0, 79, 117
2, 599400, Note_on_c, 0, 64, 117
2, 599400, Note_on_c, 0, 50, 117
2, 599460, Note_on_c, 0, 50, 0
2, 599460, Note_on_c, 0, 64, 0
2, 599460, Note_on_c, 0, 91, 0
2, 599460, Note_on_c, 0, 79, 0
2, 599520, Note_on_c, 0, 88, 71
2, 599520, Note_on_c, 0, 76, 71
2, 599520, Note_on_c, 0, 61, 71
2, 599520, Note_on_c, 0, 49, 71
2, 599580, Note_on_c, 0, 49, 0
2, 599580, Note_on_c, 0, 61, 0
2, 599580, Note_on_c, 0, 88, 0
2, 599580, Note_on_c, 0, 76, 0
2, 599640, Note_on_c, 0, 93, 71
2, 599640, Note_on_c, 0, 81, 71
2, 599640, Note_on_c, 0, 57, 71
2, 599640, Note_on_c, 0, 45, 71
2, 599700, Note_on_c, 0, 45, 0
2, 599700, Note_on_c, 0, 57, 0
2, 599700, Note_on_c, 0, 93, 0
2, 599700, Note_on_c, 0, 81, 0
2, 599760, Note_on_c, 0, 77, 117
2, 599760, Note_on_c, 0, 81, 117
2, 599760, Note_on_c, 0, 69, 117
2, 599760, Note_on_c, 0, 57, 117
2, 599760, Note_on_c, 0, 45, 117
2, 599820, Note_on_c, 0, 45, 0
2, 599820, Note_on_c, 0, 57, 0
2, 599820, Note_on_c, 0, 69, 0
2, 599820, Note_on_c, 0, 77, 0
2, 599820, Note_on_c, 0, 81, 0
2, 599880, Note_on_c, 0, 74, 71
2, 599880, Note_on_c, 0, 81, 71
2, 599880, Note_on_c, 0, 69, 71
2, 599880, Note_on_c, 0, 53, 71
2, 599880, Note_on_c, 0, 41, 71
2, 599940, Note_on_c, 0, 41, 0
2, 599940, Note_on_c, 0, 69, 0
2, 599940, Note_on_c, 0, 53, 0
2, 599940, Note_on_c, 0, 74, 0
2, 599940, Note_on_c, 0, 81, 0
2, 600000, Note_on_c, 0, 79, 71
2, 600000, Note_on_c, 0, 81, 71
2, 600000, Note_on_c, 0, 69, 71
2, 600000, Note_on_c, 0, 58, 71
2, 600000, Note_on_c, 0, 46, 71
2, 600060, Note_on_c, 0, 46, 0
2, 600060, Note_on_c, 0, 58, 0
2, 600060, Note_on_c, 0, 69, 0
2, 600060, Note_on_c, 0, 79, 0
2, 600060, Note_on_c, 0, 81, 0
2, 600120, Note_on_c, 0, 76, 117
2, 600120, Note_on_c, 0, 81, 117
2, 600120, Note_on_c, 0, 69, 117
2, 600120, Note_on_c, 0, 55, 117
2, 600120, Note_on_c, 0, 43, 117
2, 600180, Note_on_c, 0, 43, 0
2, 600180, Note_on_c, 0, 55, 0
2, 600180, Note_on_c, 0, 69, 0
2, 600180, Note_on_c, 0, 76, 0
2, 600180, Note_on_c, 0, 81, 0
2, 600240, Note_on_c, 0, 73, 71
2, 600240, Note_on_c, 0, 81, 71
2, 600240, Note_on_c, 0, 69, 71
2, 600240, Note_on_c, 0, 52, 71
2, 600240, Note_on_c, 0, 40, 71
2, 600300, Note_on_c, 0, 40, 0
2, 600300, Note_on_c, 0, 52, 0
2, 600300, Note_on_c, 0, 69, 0
2, 600300, Note_on_c, 0, 73, 0
2, 600300, Note_on_c, 0, 81, 0
2, 600360, Note_on_c, 0, 77, 71
2, 600360, Note_on_c, 0, 81, 71
2, 600360, Note_on_c, 0, 69, 71
2, 600360, Note_on_c, 0, 57, 71
2, 600360, Note_on_c, 0, 45, 71
2, 600420, Note_on_c, 0, 45, 0
2, 600420, Note_on_c, 0, 57, 0
2, 600420, Note_on_c, 0, 69, 0
2, 600420, Note_on_c, 0, 77, 0
2, 600420, Note_on_c, 0, 81, 0
2, 600480, Note_on_c, 0, 86, 71
2, 600480, Note_on_c, 0, 89, 71
2, 600480, Note_on_c, 0, 77, 71
2, 600480, Note_on_c, 0, 50, 71
2, 600480, Note_on_c, 0, 38, 71
2, 600570, Note_on_c, 0, 86, 0
2, 600570, Note_on_c, 0, 77, 0
2, 600570, Note_on_c, 0, 89, 0
2, 600600, Note_on_c, 0, 81, 71
2, 600600, Note_on_c, 0, 86, 71
2, 600600, Note_on_c, 0, 77, 71
2, 600630, Note_on_c, 0, 50, 0
2, 600630, Note_on_c, 0, 38, 0
2, 600660, Note_on_c, 0, 74, 71
2, 600660, Note_on_c, 0, 62, 71
2, 600690, Note_on_c, 0, 62, 0
2, 600690, Note_on_c, 0, 74, 0
2, 600690, Note_on_c, 0, 86, 0
2, 600690, Note_on_c, 0, 77, 0
2, 600690, Note_on_c, 0, 81, 0
2, 600720, Note_on_c, 0, 89, 71
2, 600720, Note_on_c, 0, 93, 71
2, 600720, Note_on_c, 0, 81, 71
2, 600720, Note_on_c, 0, 74, 71
2, 600720, Note_on_c, 0, 62, 71
2, 600810, Note_on_c, 0, 62, 0
2, 600810, Note_on_c, 0, 74, 0
2, 600810, Note_on_c, 0, 81, 0
2, 600810, Note_on_c, 0, 89, 0
2, 600810, Note_on_c, 0, 93, 0
2, 600840, Note_on_c, 0, 88, 71
2, 600840, Note_on_c, 0, 91, 71
2, 600840, Note_on_c, 0, 79, 71
2, 600840, Note_on_c, 0, 69, 71
2, 600840, Note_on_c, 0, 57, 71
2, 600930, Note_on_c, 0, 79, 0
2, 600930, Note_on_c, 0, 91, 0
2, 600930, Note_on_c, 0, 88, 0
2, 600960, Note_on_c, 0, 85, 71
2, 600960, Note_on_c, 0, 88, 71
2, 600960, Note_on_c, 0, 79, 71
2, 600990, Note_on_c, 0, 57, 0
2, 600990, Note_on_c, 0, 69, 0
2, 601020, Note_on_c, 0, 57, 71
2, 601020, Note_on_c, 0, 45, 71
2, 601050, Note_on_c, 0, 45, 0
2, 601050, Note_on_c, 0, 79, 0
2, 601050, Note_on_c, 0, 57, 0
2, 601050, Note_on_c, 0, 88, 0
2, 601050, Note_on_c, 0, 85, 0
2, 601080, Note_on_c, 0, 85, 71
2, 601080, Note_on_c, 0, 93, 71
2, 601080, Note_on_c, 0, 79, 71
2, 601080, Note_on_c, 0, 57, 71
2, 601080, Note_on_c, 0, 45, 71
2, 601170, Note_on_c, 0, 45, 0
2, 601170, Note_on_c, 0, 57, 0
2, 601170, Note_on_c, 0, 79, 0
2, 601170, Note_on_c, 0, 85, 0
2, 601170, Note_on_c, 0, 93, 0
2, 601200, Note_on_c, 0, 86, 71
2, 601200, Note_on_c, 0, 89, 71
2, 601200, Note_on_c, 0, 77, 71
2, 601200, Note_on_c, 0, 50, 71
2, 601200, Note_on_c, 0, 38, 71
2, 601290, Note_on_c, 0, 86, 0
2, 601290, Note_on_c, 0, 77, 0
2, 601290, Note_on_c, 0, 89, 0
2, 601320, Note_on_c, 0, 81, 71
2, 601320, Note_on_c, 0, 86, 71
2, 601320, Note_on_c, 0, 77, 71
2, 601350, Note_on_c, 0, 38, 0
2, 601350, Note_on_c, 0, 50, 0
2, 601380, Note_on_c, 0, 74, 71
2, 601380, Note_on_c, 0, 62, 71
2, 601410, Note_on_c, 0, 62, 0
2, 601410, Note_on_c, 0, 74, 0
2, 601410, Note_on_c, 0, 86, 0
2, 601410, Note_on_c, 0, 77, 0
2, 601410, Note_on_c, 0, 81, 0
2, 601440, Note_on_c, 0, 89, 71
2, 601440, Note_on_c, 0, 93, 71
2, 601440, Note_on_c, 0, 81, 71
2, 601440, Note_on_c, 0, 74, 71
2, 601440, Note_on_c, 0, 62, 71
2, 601530, Note_on_c, 0, 62, 0
2, 601530, Note_on_c, 0, 74, 0
2, 601530, Note_on_c, 0, 81, 0
2, 601530, Note_on_c, 0, 89, 0
2, 601530, Note_on_c, 0, 93, 0
2, 601560, Note_on_c, 0, 88, 71
2, 601560, Note_on_c, 0, 91, 71
2, 601560, Note_on_c, 0, 79, 71
2, 601560, Note_on_c, 0, 69, 71
2, 601560, Note_on_c, 0, 57, 71
2, 601650, Note_on_c, 0, 79, 0
2, 601650, Note_on_c, 0, 91, 0
2, 601650, Note_on_c, 0, 88, 0
2, 601680, Note_on_c, 0, 85, 71
2, 601680, Note_on_c, 0, 88, 71
2, 601680, Note_on_c, 0, 79, 71
2, 601710, Note_on_c, 0, 57, 0
2, 601710, Note_on_c, 0, 69, 0
2, 601740, Note_on_c, 0, 57, 71
2, 601740, Note_on_c, 0, 45, 71
2, 601770, Note_on_c, 0, 45, 0
2, 601770, Note_on_c, 0, 79, 0
2, 601770, Note_on_c, 0, 57, 0
2, 601770, Note_on_c, 0, 88, 0
2, 601770, Note_on_c, 0, 85, 0
2, 601800, Note_on_c, 0, 85, 71
2, 601800, Note_on_c, 0, 93, 71
2, 601800, Note_on_c, 0, 79, 71
2, 601800, Note_on_c, 0, 57, 71
2, 601800, Note_on_c, 0, 45, 71
2, 601890, Note_on_c, 0, 45, 0
2, 601890, Note_on_c, 0, 57, 0
2, 601890, Note_on_c, 0, 79, 0
2, 601890, Note_on_c, 0, 85, 0
2, 601890, Note_on_c, 0, 93, 0
2, 601920, Note_on_c, 0, 69, 71
2, 601920, Note_on_c, 0, 67, 71
2, 602040, Note_on_c, 0, 73, 71
2, 602040, Note_on_c, 0, 64, 71
2, 602070, Note_on_c, 0, 67, 0
2, 602070, Note_on_c, 0, 69, 0
2, 602160, Note_on_c, 0, 76, 71
2, 602160, Note_on_c, 0, 61, 71
2, 602190, Note_on_c, 0, 64, 0
2, 602190, Note_on_c, 0, 73, 0
2, 602280, Note_on_c, 0, 79, 71
2, 602280, Note_on_c, 0, 67, 71
2, 602280, Note_on_c, 0, 55, 71
2, 602280, Note_on_c, 0, 45, 71
2, 602310, Note_on_c, 0, 61, 0
2, 602310, Note_on_c, 0, 76, 0
2, 602400, Note_on_c, 0, 85, 71
2, 602400, Note_on_c, 0, 73, 71
2, 602400, Note_on_c, 0, 52, 71
2, 602430, Note_on_c, 0, 55, 0
2, 602430, Note_on_c, 0, 67, 0
2, 602430, Note_on_c, 0, 79, 0
2, 602520, Note_on_c, 0, 45, 0
2, 602520, Note_on_c, 0, 88, 71
2, 602520, Note_on_c, 0, 76, 71
2, 602520, Note_on_c, 0, 49, 71
2, 602550, Note_on_c, 0, 85, 0
2, 602550, Note_on_c, 0, 52, 0
2, 602550, Note_on_c, 0, 73, 0
2, 602610, Note_on_c, 0, 49, 0
2, 602640, Note_on_c, 0, 91, 71
2, 602640, Note_on_c, 0, 79, 71
2, 602640, Note_on_c, 0, 52, 71
2, 602640, Note_on_c, 0, 55, 71
2, 602640, Note_on_c, 0, 45, 71
2, 602670, Note_on_c, 0, 76, 0
2, 602670, Note_on_c, 0, 88, 0
2, 602760, Note_on_c, 0, 61, 71
2, 602790, Note_on_c, 0, 45, 0
2, 602790, Note_on_c, 0, 55, 0
2, 602790, Note_on_c, 0, 52, 0
2, 602880, Note_on_c, 0, 79, 0
2, 602880, Note_on_c, 0, 61, 0
2, 602880, Note_on_c, 0, 91, 0
2, 602880, Note_on_c, 0, 64, 71
2, 603000, Note_on_c, 0, 67, 71
2, 603000, Note_on_c, 0, 57, 71
2, 603030, Note_on_c, 0, 64, 0
2, 603120, Note_on_c, 0, 88, 71
2, 603120, Note_on_c, 0, 76, 71
2, 603120, Note_on_c, 0, 61, 71
2, 603150, Note_on_c, 0, 67, 0
2, 603150, Note_on_c, 0, 57, 0
2, 603210, Note_on_c, 0, 76, 0
2, 603210, Note_on_c, 0, 88, 0
2, 603240, Note_on_c, 0, 61, 0
2, 603240, Note_on_c, 0, 85, 71
2, 603240, Note_on_c, 0, 73, 71
2, 603240, Note_on_c, 0, 64, 71
2, 603330, Note_on_c, 0, 73, 0
2, 603330, Note_on_c, 0, 85, 0
2, 603360, Note_on_c, 0, 86, 53
2, 603360, Note_on_c, 0, 74, 53
2, 603360, Note_on_c, 0, 50, 53
2, 603360, Note_on_c, 0, 38, 53
2, 603390, Note_on_c, 0, 38, 0
2, 603390, Note_on_c, 0, 50, 0
2, 603390, Note_on_c, 0, 74, 0
2, 603390, Note_on_c, 0, 64, 0
2, 603390, Note_on_c, 0, 86, 0
2, 603540, Note_on_c, 0, 57, 53
2, 603540, Note_on_c, 0, 62, 53
2, 603540, Note_on_c, 0, 53, 53
2, 603570, Note_on_c, 0, 62, 0
2, 603570, Note_on_c, 0, 53, 0
2, 603570, Note_on_c, 0, 57, 0
2, 603600, Note_on_c, 0, 57, 53
2, 603600, Note_on_c, 0, 62, 53
2, 603600, Note_on_c, 0, 53, 53
2, 603630, Note_on_c, 0, 62, 0
2, 603630, Note_on_c, 0, 53, 0
2, 603630, Note_on_c, 0, 57, 0
2, 603720, Note_on_c, 0, 81, 53
2, 603720, Note_on_c, 0, 89, 53
2, 603720, Note_on_c, 0, 77, 53
2, 603720, Note_on_c, 0, 57, 53
2, 603720, Note_on_c, 0, 45, 53
2, 603750, Note_on_c, 0, 45, 0
2, 603750, Note_on_c, 0, 77, 0
2, 603750, Note_on_c, 0, 57, 0
2, 603750, Note_on_c, 0, 81, 0
2, 603750, Note_on_c, 0, 89, 0
2, 603900, Note_on_c, 0, 69, 53
2, 603900, Note_on_c, 0, 74, 53
2, 603900, Note_on_c, 0, 65, 53
2, 603930, Note_on_c, 0, 65, 0
2, 603930, Note_on_c, 0, 69, 0
2, 603930, Note_on_c, 0, 74, 0
2, 603960, Note_on_c, 0, 69, 53
2, 603960, Note_on_c, 0, 74, 53
2, 603960, Note_on_c, 0, 65, 53
2, 603990, Note_on_c, 0, 65, 0
2, 603990, Note_on_c, 0, 69, 0
2, 603990, Note_on_c, 0, 74, 0
2, 604080, Note_on_c, 0, 69, 53
2, 604080, Note_on_c, 0, 74, 53
2, 604080, Note_on_c, 0, 65, 53
2, 604080, Note_on_c, 0, 53, 53
2, 604080, Note_on_c, 0, 41, 53
2, 604110, Note_on_c, 0, 41, 0
2, 604110, Note_on_c, 0, 65, 0
2, 604110, Note_on_c, 0, 53, 0
2, 604110, Note_on_c, 0, 69, 0
2, 604110, Note_on_c, 0, 74, 0
2, 604260, Note_on_c, 0, 57, 53
2, 604260, Note_on_c, 0, 62, 53
2, 604260, Note_on_c, 0, 53, 53
2, 604290, Note_on_c, 0, 62, 0
2, 604290, Note_on_c, 0, 53, 0
2, 604290, Note_on_c, 0, 57, 0
2, 604320, Note_on_c, 0, 57, 53
2, 604320, Note_on_c, 0, 62, 53
2, 604320, Note_on_c, 0, 53, 53
2, 604350, Note_on_c, 0, 62, 0
2, 604350, Note_on_c, 0, 53, 0
2, 604350, Note_on_c, 0, 57, 0
2, 604440, Note_on_c, 0, 77, 53
2, 604440, Note_on_c, 0, 86, 53
2, 604440, Note_on_c, 0, 74, 53
2, 604440, Note_on_c, 0, 50, 53
2, 604440, Note_on_c, 0, 38, 53
2, 604470, Note_on_c, 0, 38, 0
2, 604470, Note_on_c, 0, 50, 0
2, 604470, Note_on_c, 0, 74, 0
2, 604470, Note_on_c, 0, 77, 0
2, 604470, Note_on_c, 0, 86, 0
2, 604620, Note_on_c, 0, 69, 53
2, 604620, Note_on_c, 0, 74, 53
2, 604620, Note_on_c, 0, 65, 53
2, 604650, Note_on_c, 0, 65, 0
2, 604650, Note_on_c, 0, 69, 0
2, 604650, Note_on_c, 0, 74, 0
2, 604680, Note_on_c, 0, 69, 53
2, 604680, Note_on_c, 0, 74, 53
2, 604680, Note_on_c, 0, 65, 53
2, 604710, Note_on_c, 0, 65, 0
2, 604710, Note_on_c, 0, 69, 0
2, 604710, Note_on_c, 0, 74, 0
2, 604800, Note_on_c, 0, 69, 53
2, 604800, Note_on_c, 0, 74, 53
2, 604800, Note_on_c, 0, 65, 53
2, 604830, Note_on_c, 0, 65, 0
2, 604830, Note_on_c, 0, 69, 0
2, 604830, Note_on_c, 0, 74, 0
2, 606240, Note_on_c, 0, 69, 54
2, 606240, Note_on_c, 0, 74, 54
2, 606240, Note_on_c, 0, 65, 54
2, 606240, Note_on_c, 0, 50, 54
2, 606240, Note_on_c, 0, 38, 54
2, 606295, Note_on_c, 0, 38, 0
2, 606295, Note_on_c, 0, 50, 0
2, 606295, Note_on_c, 0, 65, 0
2, 606295, Note_on_c, 0, 69, 0
2, 606295, Note_on_c, 0, 74, 0
2, 606420, Note_on_c, 0, 57, 58
2, 606420, Note_on_c, 0, 62, 58
2, 606420, Note_on_c, 0, 53, 58
2, 606475, Note_on_c, 0, 62, 0
2, 606475, Note_on_c, 0, 53, 0
2, 606475, Note_on_c, 0, 57, 0
2, 606480, Note_on_c, 0, 57, 59
2, 606480, Note_on_c, 0, 62, 59
2, 606480, Note_on_c, 0, 53, 59
2, 606535, Note_on_c, 0, 62, 0
2, 606535, Note_on_c, 0, 53, 0
2, 606535, Note_on_c, 0, 57, 0
2, 606600, Note_on_c, 0, 81, 61
2, 606600, Note_on_c, 0, 86, 61
2, 606600, Note_on_c, 0, 77, 61
2, 606600, Note_on_c, 0, 57, 61
2, 606600, Note_on_c, 0, 45, 61
2, 606655, Note_on_c, 0, 45, 0
2, 606655, Note_on_c, 0, 77, 0
2, 606655, Note_on_c, 0, 57, 0
2, 606655, Note_on_c, 0, 86, 0
2, 606655, Note_on_c, 0, 81, 0
2, 606780, Note_on_c, 0, 69, 65
2, 606780, Note_on_c, 0, 74, 65
2, 606780, Note_on_c, 0, 65, 65
2, 606835, Note_on_c, 0, 65, 0
2, 606835, Note_on_c, 0, 69, 0
2, 606835, Note_on_c, 0, 74, 0
2, 606840, Note_on_c, 0, 69, 66
2, 606840, Note_on_c, 0, 74, 66
2, 606840, Note_on_c, 0, 65, 66
2, 606895, Note_on_c, 0, 65, 0
2, 606895, Note_on_c, 0, 69, 0
2, 606895, Note_on_c, 0, 74, 0
2, 606960, Note_on_c, 0, 69, 68
2, 606960, Note_on_c, 0, 74, 68
2, 606960, Note_on_c, 0, 65, 68
2, 606960, Note_on_c, 0, 53, 68
2, 606960, Note_on_c, 0, 41, 68
2, 607015, Note_on_c, 0, 41, 0
2, 607015, Note_on_c, 0, 65, 0
2, 607015, Note_on_c, 0, 53, 0
2, 607015, Note_on_c, 0, 69, 0
2, 607015, Note_on_c, 0, 74, 0
2, 607140, Note_on_c, 0, 57, 72
2, 607140, Note_on_c, 0, 62, 72
2, 607140, Note_on_c, 0, 53, 72
2, 607195, Note_on_c, 0, 62, 0
2, 607195, Note_on_c, 0, 53, 0
2, 607195, Note_on_c, 0, 57, 0
2, 607200, Note_on_c, 0, 57, 73
2, 607200, Note_on_c, 0, 62, 73
2, 607200, Note_on_c, 0, 53, 73
2, 607255, Note_on_c, 0, 62, 0
2, 607255, Note_on_c, 0, 53, 0
2, 607255, Note_on_c, 0, 57, 0
2, 607320, Note_on_c, 0, 77, 76
2, 607320, Note_on_c, 0, 86, 76
2, 607320, Note_on_c, 0, 74, 76
2, 607320, Note_on_c, 0, 50, 76
2, 607320, Note_on_c, 0, 38, 76
2, 607375, Note_on_c, 0, 38, 0
2, 607375, Note_on_c, 0, 50, 0
2, 607375, Note_on_c, 0, 74, 0
2, 607375, Note_on_c, 0, 77, 0
2, 607375, Note_on_c, 0, 86, 0
2, 607500, Note_on_c, 0, 69, 79
2, 607500, Note_on_c, 0, 74, 79
2, 607500, Note_on_c, 0, 65, 79
2, 607555, Note_on_c, 0, 65, 0
2, 607555, Note_on_c, 0, 69, 0
2, 607555, Note_on_c, 0, 74, 0
2, 607560, Note_on_c, 0, 69, 80
2, 607560, Note_on_c, 0, 74, 80
2, 607560, Note_on_c, 0, 65, 80
2, 607615, Note_on_c, 0, 65, 0
2, 607615, Note_on_c, 0, 69, 0
2, 607615, Note_on_c, 0, 74, 0
2, 607680, Note_on_c, 0, 70, 83
2, 607680, Note_on_c, 0, 74, 83
2, 607680, Note_on_c, 0, 65, 83
2, 607680, Note_on_c, 0, 46, 83
2, 607680, Note_on_c, 0, 34, 83
2, 607735, Note_on_c, 0, 34, 0
2, 607735, Note_on_c, 0, 46, 0
2, 607735, Note_on_c, 0, 65, 0
2, 607735, Note_on_c, 0, 70, 0
2, 607735, Note_on_c, 0, 74, 0
2, 607860, Note_on_c, 0, 58, 86
2, 607860, Note_on_c, 0, 62, 86
2, 607860, Note_on_c, 0, 53, 86
2, 607915, Note_on_c, 0, 62, 0
2, 607915, Note_on_c, 0, 53, 0
2, 607915, Note_on_c, 0, 58, 0
2, 607920, Note_on_c, 0, 58, 87
2, 607920, Note_on_c, 0, 62, 87
2, 607920, Note_on_c, 0, 53, 87
2, 607975, Note_on_c, 0, 62, 0
2, 607975, Note_on_c, 0, 53, 0
2, 607975, Note_on_c, 0, 58, 0
2, 608040, Note_on_c, 0, 82, 90
2, 608040, Note_on_c, 0, 86, 90
2, 608040, Note_on_c, 0, 74, 90
2, 608040, Note_on_c, 0, 55, 90
2, 608040, Note_on_c, 0, 43, 90
2, 608095, Note_on_c, 0, 43, 0
2, 608095, Note_on_c, 0, 55, 0
2, 608095, Note_on_c, 0, 74, 0
2, 608095, Note_on_c, 0, 82, 0
2, 608095, Note_on_c, 0, 86, 0
2, 608220, Note_on_c, 0, 70, 93
2, 608220, Note_on_c, 0, 74, 93
2, 608220, Note_on_c, 0, 67, 93
2, 608275, Note_on_c, 0, 67, 0
2, 608275, Note_on_c, 0, 70, 0
2, 608275, Note_on_c, 0, 74, 0
2, 608280, Note_on_c, 0, 70, 94
2, 608280, Note_on_c, 0, 74, 94
2, 608280, Note_on_c, 0, 67, 94
2, 608335, Note_on_c, 0, 67, 0
2, 608335, Note_on_c, 0, 70, 0
2, 608335, Note_on_c, 0, 74, 0
2, 608400, Note_on_c, 0, 67, 97
2, 608400, Note_on_c, 0, 74, 97
2, 608400, Note_on_c, 0, 62, 97
2, 608400, Note_on_c, 0, 46, 97
2, 608400, Note_on_c, 0, 34, 97
2, 608455, Note_on_c, 0, 34, 0
2, 608455, Note_on_c, 0, 46, 0
2, 608455, Note_on_c, 0, 62, 0
2, 608455, Note_on_c, 0, 67, 0
2, 608455, Note_on_c, 0, 74, 0
2, 608580, Note_on_c, 0, 62, 100
2, 608580, Note_on_c, 0, 50, 100
2, 608580, Note_on_c, 0, 55, 100
2, 608580, Note_on_c, 0, 46, 100
2, 608635, Note_on_c, 0, 46, 0
2, 608635, Note_on_c, 0, 55, 0
2, 608635, Note_on_c, 0, 62, 0
2, 608635, Note_on_c, 0, 50, 0
2, 608640, Note_on_c, 0, 62, 102
2, 608640, Note_on_c, 0, 50, 102
2, 608640, Note_on_c, 0, 55, 102
2, 608640, Note_on_c, 0, 46, 102
2, 608695, Note_on_c, 0, 46, 0
2, 608695, Note_on_c, 0, 55, 0
2, 608695, Note_on_c, 0, 62, 0
2, 608695, Note_on_c, 0, 50, 0
2, 608760, Note_on_c, 0, 81, 106
2, 608760, Note_on_c, 0, 85, 106
2, 608760, Note_on_c, 0, 88, 106
2, 608760, Note_on_c, 0, 76, 106
2, 608760, Note_on_c, 0, 49, 106
2, 608760, Note_on_c, 0, 52, 106
2, 608760, Note_on_c, 0, 57, 106
2, 608760, Note_on_c, 0, 45, 106
2, 608815, Note_on_c, 0, 45, 0
2, 608815, Note_on_c, 0, 52, 0
2, 608815, Note_on_c, 0, 76, 0
2, 608815, Note_on_c, 0, 88, 0
2, 608815, Note_on_c, 0, 49, 0
2, 608815, Note_on_c, 0, 57, 0
2, 608815, Note_on_c, 0, 81, 0
2, 608815, Note_on_c, 0, 85, 0
2, 608940, Note_on_c, 0, 76, 107
2, 608940, Note_on_c, 0, 61, 107
2, 608940, Note_on_c, 0, 64, 107
2, 608940, Note_on_c, 0, 69, 107
2, 608940, Note_on_c, 0, 57, 107
2, 608995, Note_on_c, 0, 57, 0
2, 608995, Note_on_c, 0, 69, 0
2, 608995, Note_on_c, 0, 64, 0
2, 608995, Note_on_c, 0, 76, 0
2, 608995, Note_on_c, 0, 61, 0
2, 609000, Note_on_c, 0, 81, 110
2, 609000, Note_on_c, 0, 85, 110
2, 609000, Note_on_c, 0, 88, 110
2, 609000, Note_on_c, 0, 76, 110
2, 609000, Note_on_c, 0, 61, 110
2, 609000, Note_on_c, 0, 64, 110
2, 609000, Note_on_c, 0, 69, 110
2, 609000, Note_on_c, 0, 57, 110
2, 609350, Note_on_c, 0, 57, 0
2, 609350, Note_on_c, 0, 64, 0
2, 609350, Note_on_c, 0, 76, 0
2, 609350, Note_on_c, 0, 88, 0
2, 609350, Note_on_c, 0, 61, 0
2, 609350, Note_on_c, 0, 69, 0
2, 609350, Note_on_c, 0, 81, 0
2, 609350, Note_on_c, 0, 85, 0
2, 609480, Note_on_c, 0, 81, 53
2, 609480, Note_on_c, 0, 52, 53
2, 609480, Note_on_c, 0, 49, 53
2, 609535, Note_on_c, 0, 49, 0
2, 609535, Note_on_c, 0, 81, 0
2, 609535, Note_on_c, 0, 52, 0
2, 609600, Note_on_c, 0, 53, 53
2, 609600, Note_on_c, 0, 50, 53
2, 609655, Note_on_c, 0, 50, 0
2, 609655, Note_on_c, 0, 53, 0
2, 609660, Note_on_c, 0, 69, 53
2, 609715, Note_on_c, 0, 69, 0
2, 609720, Note_on_c, 0, 69, 53
2, 609720, Note_on_c, 0, 55, 53
2, 609720, Note_on_c, 0, 52, 53
2, 609775, Note_on_c, 0, 52, 0
2, 609775, Note_on_c, 0, 69, 0
2, 609775, Note_on_c, 0, 55, 0
2, 609840, Note_on_c, 0, 74, 53
2, 609840, Note_on_c, 0, 57, 53
2, 609840, Note_on_c, 0, 53, 53
2, 609895, Note_on_c, 0, 57, 0
2, 609895, Note_on_c, 0, 53, 0
2, 609895, Note_on_c, 0, 74, 0
2, 609960, Note_on_c, 0, 76, 53
2, 609960, Note_on_c, 0, 55, 53
2, 609960, Note_on_c, 0, 52, 53
2, 610015, Note_on_c, 0, 52, 0
2, 610015, Note_on_c, 0, 76, 0
2, 610015, Note_on_c, 0, 55, 0
2, 610080, Note_on_c, 0, 77, 53
2, 610080, Note_on_c, 0, 53, 53
2, 610080, Note_on_c, 0, 50, 53
2, 610135, Note_on_c, 0, 50, 0
2, 610135, Note_on_c, 0, 53, 0
2, 610135, Note_on_c, 0, 77, 0
2, 610200, Note_on_c, 0, 78, 53
2, 610200, Note_on_c, 0, 81, 53
2, 610200, Note_on_c, 0, 69, 53
2, 610200, Note_on_c, 0, 62, 53
2, 610200, Note_on_c, 0, 48, 53
2, 610255, Note_on_c, 0, 48, 0
2, 610255, Note_on_c, 0, 62, 0
2, 610255, Note_on_c, 0, 69, 0
2, 610255, Note_on_c, 0, 78, 0
2, 610255, Note_on_c, 0, 81, 0
2, 610320, Note_on_c, 0, 79, 53
2, 610320, Note_on_c, 0, 82, 53
2, 610320, Note_on_c, 0, 70, 53
2, 610375, Note_on_c, 0, 70, 0
2, 610375, Note_on_c, 0, 79, 0
2, 610375, Note_on_c, 0, 82, 0
2, 610380, Note_on_c, 0, 50, 53
2, 610380, Note_on_c, 0, 46, 53
2, 610435, Note_on_c, 0, 46, 0
2, 610435, Note_on_c, 0, 50, 0
2, 610440, Note_on_c, 0, 81, 53
2, 610440, Note_on_c, 0, 84, 53
2, 610440, Note_on_c, 0, 72, 53
2, 610440, Note_on_c, 0, 50, 53
2, 610440, Note_on_c, 0, 45, 53
2, 610495, Note_on_c, 0, 45, 0
2, 610495, Note_on_c, 0, 50, 0
2, 610495, Note_on_c, 0, 72, 0
2, 610495, Note_on_c, 0, 81, 0
2, 610495, Note_on_c, 0, 84, 0
2, 610560, Note_on_c, 0, 82, 53
2, 610560, Note_on_c, 0, 86, 53
2, 610560, Note_on_c, 0, 74, 53
2, 610560, Note_on_c, 0, 55, 53
2, 610560, Note_on_c, 0, 43, 53
2, 610615, Note_on_c, 0, 43, 0
2, 610615, Note_on_c, 0, 55, 0
2, 610615, Note_on_c, 0, 74, 0
2, 610615, Note_on_c, 0, 82, 0
2, 610615, Note_on_c, 0, 86, 0
2, 610680, Note_on_c, 0, 81, 53
2, 610680, Note_on_c, 0, 84, 53
2, 610680, Note_on_c, 0, 72, 53
2, 610680, Note_on_c, 0, 57, 53
2, 610680, Note_on_c, 0, 45, 53
2, 610735, Note_on_c, 0, 45, 0
2, 610735, Note_on_c, 0, 57, 0
2, 610735, Note_on_c, 0, 72, 0
2, 610735, Note_on_c, 0, 81, 0
2, 610735, Note_on_c, 0, 84, 0
2, 610800, Note_on_c, 0, 79, 53
2, 610800, Note_on_c, 0, 82, 53
2, 610800, Note_on_c, 0, 70, 53
2, 610800, Note_on_c, 0, 58, 53
2, 610800, Note_on_c, 0, 46, 53
2, 610855, Note_on_c, 0, 46, 0
2, 610855, Note_on_c, 0, 58, 0
2, 610855, Note_on_c, 0, 70, 0
2, 610855, Note_on_c, 0, 79, 0
2, 610855, Note_on_c, 0, 82, 0
2, 610920, Note_on_c, 0, 81, 53
2, 610920, Note_on_c, 0, 69, 53
2, 610920, Note_on_c, 0, 52, 53
2, 610920, Note_on_c, 0, 49, 53
2, 610975, Note_on_c, 0, 49, 0
2, 610975, Note_on_c, 0, 52, 0
2, 610975, Note_on_c, 0, 81, 0
2, 610975, Note_on_c, 0, 69, 0
2, 611040, Note_on_c, 0, 53, 53
2, 611040, Note_on_c, 0, 50, 53
2, 611095, Note_on_c, 0, 50, 0
2, 611095, Note_on_c, 0, 53, 0
2, 611100, Note_on_c, 0, 69, 53
2, 611155, Note_on_c, 0, 69, 0
2, 611160, Note_on_c, 0, 69, 53
2, 611160, Note_on_c, 0, 55, 53
2, 611160, Note_on_c, 0, 52, 53
2, 611215, Note_on_c, 0, 52, 0
2, 611215, Note_on_c, 0, 69, 0
2, 611215, Note_on_c, 0, 55, 0
2, 611280, Note_on_c, 0, 74, 53
2, 611280, Note_on_c, 0, 57, 53
2, 611280, Note_on_c, 0, 53, 53
2, 611335, Note_on_c, 0, 57, 0
2, 611335, Note_on_c, 0, 53, 0
2, 611335, Note_on_c, 0, 74, 0
2, 611400, Note_on_c, 0, 76, 53
2, 611400, Note_on_c, 0, 55, 53
2, 611400, Note_on_c, 0, 52, 53
2, 611455, Note_on_c, 0, 52, 0
2, 611455, Note_on_c, 0, 76, 0
2, 611455, Note_on_c, 0, 55, 0
2, 611520, Note_on_c, 0, 77, 53
2, 611520, Note_on_c, 0, 53, 53
2, 611520, Note_on_c, 0, 50, 53
2, 611575, Note_on_c, 0, 50, 0
2, 611575, Note_on_c, 0, 53, 0
2, 611575, Note_on_c, 0, 77, 0
2, 611640, Note_on_c, 0, 78, 53
2, 611640, Note_on_c, 0, 81, 53
2, 611640, Note_on_c, 0, 69, 53
2, 611640, Note_on_c, 0, 62, 53
2, 611640, Note_on_c, 0, 48, 53
2, 611695, Note_on_c, 0, 48, 0
2, 611695, Note_on_c, 0, 62, 0
2, 611695, Note_on_c, 0, 69, 0
2, 611695, Note_on_c, 0, 78, 0
2, 611695, Note_on_c, 0, 81, 0
2, 611760, Note_on_c, 0, 79, 53
2, 611760, Note_on_c, 0, 82, 53
2, 611760, Note_on_c, 0, 70, 53
2, 611815, Note_on_c, 0, 70, 0
2, 611815, Note_on_c, 0, 79, 0
2, 611815, Note_on_c, 0, 82, 0
2, 611820, Note_on_c, 0, 50, 53
2, 611820, Note_on_c, 0, 46, 53
2, 611875, Note_on_c, 0, 46, 0
2, 611875, Note_on_c, 0, 50, 0
2, 611880, Note_on_c, 0, 81, 53
2, 611880, Note_on_c, 0, 84, 53
2, 611880, Note_on_c, 0, 72, 53
2, 611880, Note_on_c, 0, 50, 53
2, 611880, Note_on_c, 0, 45, 53
2, 611935, Note_on_c, 0, 45, 0
2, 611935, Note_on_c, 0, 50, 0
2, 611935, Note_on_c, 0, 72, 0
2, 611935, Note_on_c, 0, 81, 0
2, 611935, Note_on_c, 0, 84, 0
2, 612000, Note_on_c, 0, 82, 53
2, 612000, Note_on_c, 0, 86, 53
2, 612000, Note_on_c, 0, 74, 53
2, 612000, Note_on_c, 0, 55, 53
2, 612000, Note_on_c, 0, 43, 53
2, 612055, Note_on_c, 0, 43, 0
2, 612055, Note_on_c, 0, 55, 0
2, 612055, Note_on_c, 0, 74, 0
2, 612055, Note_on_c, 0, 82, 0
2, 612055, Note_on_c, 0, 86, 0
2, 612120, Note_on_c, 0, 81, 53
2, 612120, Note_on_c, 0, 84, 53
2, 612120, Note_on_c, 0, 72, 53
2, 612120, Note_on_c, 0, 57, 53
2, 612120, Note_on_c, 0, 45, 53
2, 612175, Note_on_c, 0, 45, 0
2, 612175, Note_on_c, 0, 57, 0
2, 612175, Note_on_c, 0, 72, 0
2, 612175, Note_on_c, 0, 81, 0
2, 612175, Note_on_c, 0, 84, 0
2, 612240, Note_on_c, 0, 79, 53
2, 612240, Note_on_c, 0, 82, 53
2, 612240, Note_on_c, 0, 70, 53
2, 612240, Note_on_c, 0, 58, 53
2, 612240, Note_on_c, 0, 46, 53
2, 612295, Note_on_c, 0, 46, 0
2, 612295, Note_on_c, 0, 58, 0
2, 612295, Note_on_c, 0, 70, 0
2, 612295, Note_on_c, 0, 79, 0
2, 612295, Note_on_c, 0, 82, 0
2, 612360, Note_on_c, 0, 81, 54
2, 612360, Note_on_c, 0, 69, 54
2, 612360, Note_on_c, 0, 57, 54
2, 612360, Note_on_c, 0, 45, 54
2, 612415, Note_on_c, 0, 45, 0
2, 612415, Note_on_c, 0, 57, 0
2, 612415, Note_on_c, 0, 81, 0
2, 612415, Note_on_c, 0, 69, 0
2, 612540, Note_on_c, 0, 69, 58
2, 612540, Note_on_c, 0, 57, 58
2, 612540, Note_on_c, 0, 45, 58
2, 612595, Note_on_c, 0, 45, 0
2, 612595, Note_on_c, 0, 69, 0
2, 612595, Note_on_c, 0, 57, 0
2, 612600, Note_on_c, 0, 69, 59
2, 612600, Note_on_c, 0, 57, 59
2, 612600, Note_on_c, 0, 45, 59
2, 612655, Note_on_c, 0, 45, 0
2, 612655, Note_on_c, 0, 69, 0
2, 612655, Note_on_c, 0, 57, 0
2, 612720, Note_on_c, 0, 74, 62
2, 612720, Note_on_c, 0, 62, 62
2, 612720, Note_on_c, 0, 41, 62
2, 612720, Note_on_c, 0, 38, 62
2, 612775, Note_on_c, 0, 38, 0
2, 612775, Note_on_c, 0, 41, 0
2, 612775, Note_on_c, 0, 74, 0
2, 612775, Note_on_c, 0, 62, 0
2, 612840, Note_on_c, 0, 76, 65
2, 612840, Note_on_c, 0, 64, 65
2, 612895, Note_on_c, 0, 64, 0
2, 612895, Note_on_c, 0, 76, 0
2, 612900, Note_on_c, 0, 33, 66
2, 612900, Note_on_c, 0, 29, 66
2, 612955, Note_on_c, 0, 29, 0
2, 612955, Note_on_c, 0, 33, 0
2, 612960, Note_on_c, 0, 77, 67
2, 612960, Note_on_c, 0, 65, 67
2, 612960, Note_on_c, 0, 33, 67
2, 612960, Note_on_c, 0, 29, 67
2, 613015, Note_on_c, 0, 29, 0
2, 613015, Note_on_c, 0, 33, 0
2, 613015, Note_on_c, 0, 77, 0
2, 613015, Note_on_c, 0, 65, 0
2, 613080, Note_on_c, 0, 81, 70
2, 613080, Note_on_c, 0, 69, 70
2, 613080, Note_on_c, 0, 57, 70
2, 613080, Note_on_c, 0, 45, 70
2, 613135, Note_on_c, 0, 45, 0
2, 613135, Note_on_c, 0, 57, 0
2, 613135, Note_on_c, 0, 81, 0
2, 613135, Note_on_c, 0, 69, 0
2, 613260, Note_on_c, 0, 69, 73
2, 613260, Note_on_c, 0, 57, 73
2, 613260, Note_on_c, 0, 45, 73
2, 613315, Note_on_c, 0, 45, 0
2, 613315, Note_on_c, 0, 69, 0
2, 613315, Note_on_c, 0, 57, 0
2, 613320, Note_on_c, 0, 69, 75
2, 613320, Note_on_c, 0, 57, 75
2, 613320, Note_on_c, 0, 45, 75
2, 613375, Note_on_c, 0, 45, 0
2, 613375, Note_on_c, 0, 69, 0
2, 613375, Note_on_c, 0, 57, 0
2, 613440, Note_on_c, 0, 74, 77
2, 613440, Note_on_c, 0, 62, 77
2, 613440, Note_on_c, 0, 41, 77
2, 613440, Note_on_c, 0, 38, 77
2, 613495, Note_on_c, 0, 38, 0
2, 613495, Note_on_c, 0, 41, 0
2, 613495, Note_on_c, 0, 74, 0
2, 613495, Note_on_c, 0, 62, 0
2, 613560, Note_on_c, 0, 76, 80
2, 613560, Note_on_c, 0, 64, 80
2, 613615, Note_on_c, 0, 64, 0
2, 613615, Note_on_c, 0, 76, 0
2, 613620, Note_on_c, 0, 33, 81
2, 613620, Note_on_c, 0, 29, 81
2, 613675, Note_on_c, 0, 29, 0
2, 613675, Note_on_c, 0, 33, 0
2, 613680, Note_on_c, 0, 77, 82
2, 613680, Note_on_c, 0, 65, 82
2, 613680, Note_on_c, 0, 33, 82
2, 613680, Note_on_c, 0, 29, 82
2, 613735, Note_on_c, 0, 29, 0
2, 613735, Note_on_c, 0, 33, 0
2, 613735, Note_on_c, 0, 77, 0
2, 613735, Note_on_c, 0, 65, 0
2, 613800, Note_on_c, 0, 81, 85
2, 613800, Note_on_c, 0, 69, 85
2, 613800, Note_on_c, 0, 57, 85
2, 613800, Note_on_c, 0, 45, 85
2, 613855, Note_on_c, 0, 45, 0
2, 613855, Note_on_c, 0, 57, 0
2, 613855, Note_on_c, 0, 81, 0
2, 613855, Note_on_c, 0, 69, 0
2, 613980, Note_on_c, 0, 69, 89
2, 613980, Note_on_c, 0, 57, 89
2, 613980, Note_on_c, 0, 45, 89
2, 614035, Note_on_c, 0, 45, 0
2, 614035, Note_on_c, 0, 69, 0
2, 614035, Note_on_c, 0, 57, 0
2, 614040, Note_on_c, 0, 69, 90
2, 614040, Note_on_c, 0, 57, 90
2, 614040, Note_on_c, 0, 45, 90
2, 614095, Note_on_c, 0, 45, 0
2, 614095, Note_on_c, 0, 69, 0
2, 614095, Note_on_c, 0, 57, 0
2, 614160, Note_on_c, 0, 74, 93
2, 614160, Note_on_c, 0, 62, 93
2, 614160, Note_on_c, 0, 41, 93
2, 614160, Note_on_c, 0, 38, 93
2, 614215, Note_on_c, 0, 38, 0
2, 614215, Note_on_c, 0, 41, 0
2, 614215, Note_on_c, 0, 74, 0
2, 614215, Note_on_c, 0, 62, 0
2, 614280, Note_on_c, 0, 76, 95
2, 614280, Note_on_c, 0, 64, 95
2, 614335, Note_on_c, 0, 64, 0
2, 614335, Note_on_c, 0, 76, 0
2, 614340, Note_on_c, 0, 33, 97
2, 614340, Note_on_c, 0, 29, 97
2, 614395, Note_on_c, 0, 29, 0
2, 614395, Note_on_c, 0, 33, 0
2, 614400, Note_on_c, 0, 77, 98
2, 614400, Note_on_c, 0, 65, 98
2, 614400, Note_on_c, 0, 33, 98
2, 614400, Note_on_c, 0, 29, 98
2, 614455, Note_on_c, 0, 29, 0
2, 614455, Note_on_c, 0, 33, 0
2, 614455, Note_on_c, 0, 77, 0
2, 614455, Note_on_c, 0, 65, 0
2, 614520, Note_on_c, 0, 81, 100
2, 614520, Note_on_c, 0, 69, 100
2, 614520, Note_on_c, 0, 57, 100
2, 614520, Note_on_c, 0, 45, 100
2, 614575, Note_on_c, 0, 45, 0
2, 614575, Note_on_c, 0, 57, 0
2, 614575, Note_on_c, 0, 81, 0
2, 614575, Note_on_c, 0, 69, 0
2, 614700, Note_on_c, 0, 69, 104
2, 614700, Note_on_c, 0, 57, 104
2, 614700, Note_on_c, 0, 45, 104
2, 614755, Note_on_c, 0, 45, 0
2, 614755, Note_on_c, 0, 69, 0
2, 614755, Note_on_c, 0, 57, 0
2, 614760, Note_on_c, 0, 69, 105
2, 614760, Note_on_c, 0, 57, 105
2, 614760, Note_on_c, 0, 45, 105
2, 614815, Note_on_c, 0, 45, 0
2, 614815, Note_on_c, 0, 69, 0
2, 614815, Note_on_c, 0, 57, 0
2, 614880, Note_on_c, 0, 74, 108
2, 614880, Note_on_c, 0, 62, 108
2, 614880, Note_on_c, 0, 41, 108
2, 614880, Note_on_c, 0, 38, 108
2, 614935, Note_on_c, 0, 38, 0
2, 614935, Note_on_c, 0, 41, 0
2, 614935, Note_on_c, 0, 74, 0
2, 614935, Note_on_c, 0, 62, 0
2, 615000, Note_on_c, 0, 76, 111
2, 615000, Note_on_c, 0, 64, 111
2, 615055, Note_on_c, 0, 64, 0
2, 615055, Note_on_c, 0, 76, 0
2, 615060, Note_on_c, 0, 33, 112
2, 615060, Note_on_c, 0, 29, 112
2, 615115, Note_on_c, 0, 29, 0
2, 615115, Note_on_c, 0, 33, 0
2, 615120, Note_on_c, 0, 77, 113
2, 615120, Note_on_c, 0, 65, 113
2, 615120, Note_on_c, 0, 33, 113
2, 615120, Note_on_c, 0, 29, 113
2, 615175, Note_on_c, 0, 29, 0
2, 615175, Note_on_c, 0, 33, 0
2, 615175, Note_on_c, 0, 77, 0
2, 615175, Note_on_c, 0, 65, 0
2, 615240, Note_on_c, 0, 81, 117
2, 615240, Note_on_c, 0, 69, 117
2, 615240, Note_on_c, 0, 57, 117
2, 615350, Note_on_c, 0, 57, 0
2, 615350, Note_on_c, 0, 81, 0
2, 615350, Note_on_c, 0, 69, 0
2, 615360, Note_on_c, 0, 69, 90
2, 615360, Note_on_c, 0, 57, 90
2, 615360, Note_on_c, 0, 45, 90
2, 615470, Note_on_c, 0, 45, 0
2, 615470, Note_on_c, 0, 69, 0
2, 615470, Note_on_c, 0, 57, 0
2, 615480, Note_on_c, 0, 74, 117
2, 615480, Note_on_c, 0, 62, 117
2, 615480, Note_on_c, 0, 50, 117
2, 615590, Note_on_c, 0, 50, 0
2, 615590, Note_on_c, 0, 74, 0
2, 615590, Note_on_c, 0, 62, 0
2, 615600, Note_on_c, 0, 62, 90
2, 615600, Note_on_c, 0, 50, 90
2, 615600, Note_on_c, 0, 38, 90
2, 615710, Note_on_c, 0, 38, 0
2, 615710, Note_on_c, 0, 62, 0
2, 615710, Note_on_c, 0, 50, 0
2, 615720, Note_on_c, 0, 69, 117
2, 615720, Note_on_c, 0, 57, 117
2, 615720, Note_on_c, 0, 45, 117
2, 615830, Note_on_c, 0, 45, 0
2, 615830, Note_on_c, 0, 69, 0
2, 615830, Note_on_c, 0, 57, 0
2, 615840, Note_on_c, 0, 57, 90
2, 615840, Note_on_c, 0, 45, 90
2, 615840, Note_on_c, 0, 33, 90
2, 615950, Note_on_c, 0, 33, 0
2, 615950, Note_on_c, 0, 57, 0
2, 615950, Note_on_c, 0, 45, 0
2, 615960, Note_on_c, 0, 81, 117
2, 615960, Note_on_c, 0, 69, 117
2, 615960, Note_on_c, 0, 57, 117
2, 615960, Note_on_c, 0, 45, 117
2, 616070, Note_on_c, 0, 45, 0
2, 616070, Note_on_c, 0, 57, 0
2, 616070, Note_on_c, 0, 81, 0
2, 616070, Note_on_c, 0, 69, 0
2, 616080, Note_on_c, 0, 81, 90
2, 616080, Note_on_c, 0, 69, 90
2, 616080, Note_on_c, 0, 57, 90
2, 616080, Note_on_c, 0, 45, 90
2, 616190, Note_on_c, 0, 45, 0
2, 616190, Note_on_c, 0, 57, 0
2, 616190, Note_on_c, 0, 81, 0
2, 616190, Note_on_c, 0, 69, 0
2, 616200, Note_on_c, 0, 86, 117
2, 616200, Note_on_c, 0, 74, 117
2, 616200, Note_on_c, 0, 50, 117
2, 616200, Note_on_c, 0, 38, 117
2, 616315, Note_on_c, 0, 38, 0
2, 616315, Note_on_c, 0, 50, 0
2, 616440, Note_on_c, 0, 62, 50
2, 616495, Note_on_c, 0, 62, 0
2, 616560, Note_on_c, 0, 61, 50
2, 616615, Note_on_c, 0, 61, 0
2, 616680, Note_on_c, 0, 62, 50
2, 616700, Note_on_c, 0, 86, 0
2, 616700, Note_on_c, 0, 74, 0
2, 616735, Note_on_c, 0, 62, 0
2, 616800, Note_on_c, 0, 59, 50
2, 616855, Note_on_c, 0, 59, 0
2, 616920, Note_on_c, 0, 86, 50
2, 616920, Note_on_c, 0, 88, 50
2, 616920, Note_on_c, 0, 76, 50
2, 616920, Note_on_c, 0, 57, 50
2, 616975, Note_on_c, 0, 57, 0
2, 617040, Note_on_c, 0, 55, 50
2, 617095, Note_on_c, 0, 55, 0
2, 617155, Note_on_c, 0, 76, 0
2, 617155, Note_on_c, 0, 86, 0
2, 617155, Note_on_c, 0, 88, 0
2, 617160, Note_on_c, 0, 86, 50
2, 617160, Note_on_c, 0, 90, 50
2, 617160, Note_on_c, 0, 78, 50
2, 617160, Note_on_c, 0, 54, 50
2, 617215, Note_on_c, 0, 54, 0
2, 617280, Note_on_c, 0, 52, 50
2, 617335, Note_on_c, 0, 52, 0
2, 617400, Note_on_c, 0, 50, 50
2, 617455, Note_on_c, 0, 50, 0
2, 617515, Note_on_c, 0, 78, 0
2, 617515, Note_on_c, 0, 86, 0
2, 617515, Note_on_c, 0, 90, 0
2, 617520, Note_on_c, 0, 91, 50
2, 617520, Note_on_c, 0, 88, 50
2, 617520, Note_on_c, 0, 48, 50
2, 617575, Note_on_c, 0, 48, 0
2, 617575, Note_on_c, 0, 91, 0
2, 617575, Note_on_c, 0, 88, 0
2, 617580, Note_on_c, 0, 93, 50
2, 617580, Note_on_c, 0, 90, 50
2, 617635, Note_on_c, 0, 90, 0
2, 617635, Note_on_c, 0, 93, 0
2, 617640, Note_on_c, 0, 86, 50
2, 617640, Note_on_c, 0, 91, 50
2, 617640, Note_on_c, 0, 79, 50
2, 617640, Note_on_c, 0, 47, 50
2, 617695, Note_on_c, 0, 47, 0
2, 617695, Note_on_c, 0, 79, 0
2, 617695, Note_on_c, 0, 86, 0
2, 617695, Note_on_c, 0, 91, 0
2, 617760, Note_on_c, 0, 91, 50
2, 617760, Note_on_c, 0, 79, 50
2, 617760, Note_on_c, 0, 49, 50
2, 617815, Note_on_c, 0, 49, 0
2, 617815, Note_on_c, 0, 91, 0
2, 617815, Note_on_c, 0, 79, 0
2, 617880, Note_on_c, 0, 86, 50
2, 617880, Note_on_c, 0, 90, 50
2, 617880, Note_on_c, 0, 78, 50
2, 617880, Note_on_c, 0, 50, 50
2, 617935, Note_on_c, 0, 50, 0
2, 617935, Note_on_c, 0, 78, 0
2, 617935, Note_on_c, 0, 86, 0
2, 617935, Note_on_c, 0, 90, 0
2, 618000, Note_on_c, 0, 90, 50
2, 618000, Note_on_c, 0, 78, 50
2, 618000, Note_on_c, 0, 62, 50
2, 618000, Note_on_c, 0, 54, 50
2, 618055, Note_on_c, 0, 54, 0
2, 618055, Note_on_c, 0, 62, 0
2, 618055, Note_on_c, 0, 90, 0
2, 618055, Note_on_c, 0, 78, 0
2, 618120, Note_on_c, 0, 88, 50
2, 618120, Note_on_c, 0, 76, 50
2, 618120, Note_on_c, 0, 61, 50
2, 618120, Note_on_c, 0, 57, 50
2, 618175, Note_on_c, 0, 57, 0
2, 618175, Note_on_c, 0, 61, 0
2, 618240, Note_on_c, 0, 67, 50
2, 618240, Note_on_c, 0, 61, 50
2, 618330, Note_on_c, 0, 61, 0
2, 618330, Note_on_c, 0, 67, 0
2, 618355, Note_on_c, 0, 76, 0
2, 618355, Note_on_c, 0, 88, 0
2, 618360, Note_on_c, 0, 86, 50
2, 618360, Note_on_c, 0, 74, 50
2, 618360, Note_on_c, 0, 66, 50
2, 618360, Note_on_c, 0, 62, 50
2, 618415, Note_on_c, 0, 62, 0
2, 618415, Note_on_c, 0, 66, 0
2, 618480, Note_on_c, 0, 61, 50
2, 618535, Note_on_c, 0, 61, 0
2, 618600, Note_on_c, 0, 62, 50
2, 618655, Note_on_c, 0, 62, 0
2, 618720, Note_on_c, 0, 59, 50
2, 618775, Note_on_c, 0, 59, 0
2, 618835, Note_on_c, 0, 74, 0
2, 618835, Note_on_c, 0, 86, 0
2, 618840, Note_on_c, 0, 86, 50
2, 618840, Note_on_c, 0, 88, 50
2, 618840, Note_on_c, 0, 76, 50
2, 618840, Note_on_c, 0, 57, 50
2, 618895, Note_on_c, 0, 57, 0
2, 618960, Note_on_c, 0, 55, 50
2, 619015, Note_on_c, 0, 55, 0
2, 619075, Note_on_c, 0, 76, 0
2, 619075, Note_on_c, 0, 86, 0
2, 619075, Note_on_c, 0, 88, 0
2, 619080, Note_on_c, 0, 86, 50
2, 619080, Note_on_c, 0, 90, 50
2, 619080, Note_on_c, 0, 78, 50
2, 619080, Note_on_c, 0, 54, 50
2, 619135, Note_on_c, 0, 54, 0
2, 619200, Note_on_c, 0, 52, 50
2, 619255, Note_on_c, 0, 52, 0
2, 619320, Note_on_c, 0, 50, 50
2, 619375, Note_on_c, 0, 50, 0
2, 619435, Note_on_c, 0, 78, 0
2, 619435, Note_on_c, 0, 86, 0
2, 619435, Note_on_c, 0, 90, 0
2, 619440, Note_on_c, 0, 91, 50
2, 619440, Note_on_c, 0, 88, 50
2, 619440, Note_on_c, 0, 62, 50
2, 619495, Note_on_c, 0, 62, 0
2, 619495, Note_on_c, 0, 91, 0
2, 619495, Note_on_c, 0, 88, 0
2, 619500, Note_on_c, 0, 93, 50
2, 619500, Note_on_c, 0, 90, 50
2, 619590, Note_on_c, 0, 90, 0
2, 619590, Note_on_c, 0, 93, 0
2, 620040, Note_on_c, 0, 93, 117
2, 620040, Note_on_c, 0, 81, 117
2, 620040, Note_on_c, 0, 69, 117
2, 620040, Note_on_c, 0, 57, 117
2, 620155, Note_on_c, 0, 57, 0
2, 620155, Note_on_c, 0, 69, 0
2, 620155, Note_on_c, 0, 93, 0
2, 620155, Note_on_c, 0, 81, 0
2, 620160, Note_on_c, 0, 81, 90
2, 620160, Note_on_c, 0, 69, 90
2, 620160, Note_on_c, 0, 57, 90
2, 620160, Note_on_c, 0, 45, 90
2, 620275, Note_on_c, 0, 45, 0
2, 620275, Note_on_c, 0, 57, 0
2, 620275, Note_on_c, 0, 81, 0
2, 620275, Note_on_c, 0, 69, 0
2, 620280, Note_on_c, 0, 86, 117
2, 620280, Note_on_c, 0, 74, 117
2, 620280, Note_on_c, 0, 62, 117
2, 620280, Note_on_c, 0, 50, 117
2, 620395, Note_on_c, 0, 50, 0
2, 620395, Note_on_c, 0, 62, 0
2, 620395, Note_on_c, 0, 86, 0
2, 620395, Note_on_c, 0, 74, 0
2, 620400, Note_on_c, 0, 74, 90
2, 620400, Note_on_c, 0, 62, 90
2, 620400, Note_on_c, 0, 50, 90
2, 620400, Note_on_c, 0, 38, 90
2, 620515, Note_on_c, 0, 38, 0
2, 620515, Note_on_c, 0, 50, 0
2, 620515, Note_on_c, 0, 74, 0
2, 620515, Note_on_c, 0, 62, 0
2, 620520, Note_on_c, 0, 81, 117
2, 620520, Note_on_c, 0, 69, 117
2, 620520, Note_on_c, 0, 57, 117
2, 620520, Note_on_c, 0, 45, 117
2, 620635, Note_on_c, 0, 45, 0
2, 620635, Note_on_c, 0, 57, 0
2, 620635, Note_on_c, 0, 81, 0
2, 620635, Note_on_c, 0, 69, 0
2, 620640, Note_on_c, 0, 69, 90
2, 620640, Note_on_c, 0, 57, 90
2, 620640, Note_on_c, 0, 45, 90
2, 620640, Note_on_c, 0, 33, 90
2, 620755, Note_on_c, 0, 33, 0
2, 620755, Note_on_c, 0, 45, 0
2, 620755, Note_on_c, 0, 69, 0
2, 620755, Note_on_c, 0, 57, 0
2, 620760, Note_on_c, 0, 93, 117
2, 620760, Note_on_c, 0, 81, 117
2, 620760, Note_on_c, 0, 69, 117
2, 620760, Note_on_c, 0, 57, 117
2, 620875, Note_on_c, 0, 57, 0
2, 620875, Note_on_c, 0, 69, 0
2, 620875, Note_on_c, 0, 93, 0
2, 620875, Note_on_c, 0, 81, 0
2, 620880, Note_on_c, 0, 81, 90
2, 620880, Note_on_c, 0, 69, 90
2, 620880, Note_on_c, 0, 57, 90
2, 620880, Note_on_c, 0, 45, 90
2, 620995, Note_on_c, 0, 45, 0
2, 620995, Note_on_c, 0, 57, 0
2, 620995, Note_on_c, 0, 81, 0
2, 620995, Note_on_c, 0, 69, 0
2, 621000, Note_on_c, 0, 74, 117
2, 621000, Note_on_c, 0, 62, 117
2, 621000, Note_on_c, 0, 50, 117
2, 621000, Note_on_c, 0, 38, 117
2, 621115, Note_on_c, 0, 38, 0
2, 621115, Note_on_c, 0, 50, 0
2, 621115, Note_on_c, 0, 74, 0
2, 621115, Note_on_c, 0, 62, 0
2, 624975, Note_on_c, 0, 53, 0
2, 626415, Note_on_c, 0, 53, 0
2, 638655, Note_on_c, 0, 89, 0
2, 638655, Note_on_c, 0, 77, 0
2, 638655, End_track
0, 0, End_of_file
