0, 0, Header, 1, 2, 480
1, 0, Start_track
1, 0, Title_t, "untitled"
1, 0, Time_signature, 4, 2, 24, 8
1, 0, Key_signature, 0, "major"
1, 0, Tempo, 500000
1, 0, End_track
2, 0, Start_track
2, 0, Title_t, "Beethoven: Fuer Elize"
2, 0, Program_c, 0, 0
2, 0, Control_c, 0, 7, 110
2, 0, Control_c, 0, 91, 127
2, 0, Note_on_c, 0, 76, 40
2, 248, Note_on_c, 0, 75, 59
2, 276, Note_on_c, 0, 76, 0
2, 456, Note_on_c, 0, 76, 71
2, 488, Note_on_c, 0, 75, 0
2, 636, Note_on_c, 0, 75, 80
2, 674, Note_on_c, 0, 76, 0
2, 840, Note_on_c, 0, 76, 70
2, 894, Note_on_c, 0, 75, 0
2, 1024, Note_on_c, 0, 71, 72
2, 1044, Note_on_c, 0, 76, 0
2, 1218, Note_on_c, 0, 74, 68
2, 1254, Note_on_c, 0, 71, 0
2, 1418, Note_on_c, 0, 72, 55
2, 1448, Note_on_c, 0, 74, 0
2, 1678, Note_on_c, 0, 69, 41
2, 1686, Note_on_c, 0, 72, 0
2, 1694, Note_on_c, 0, 45, 33
2, 1916, Note_on_c, 0, 52, 44
2, 1918, Control_c, 0, 64, 127
2, 2042, Note_on_c, 0, 69, 0
2, 2072, Note_on_c, 0, 45, 0
2, 2104, Note_on_c, 0, 57, 41
2, 2268, Note_on_c, 0, 60, 55
2, 2274, Note_on_c, 0, 52, 0
2, 2298, Note_on_c, 0, 57, 0
2, 2318, Control_c, 0, 64, 0
2, 2448, Note_on_c, 0, 64, 70
2, 2466, Note_on_c, 0, 60, 0
2, 2630, Note_on_c, 0, 69, 55
2, 2656, Note_on_c, 0, 64, 0
2, 2828, Note_on_c, 0, 71, 83
2, 2844, Note_on_c, 0, 69, 0
2, 2846, Note_on_c, 0, 40, 61
2, 2976, Note_on_c, 0, 40, 0
2, 2994, Control_c, 0, 64, 127
2, 3000, Note_on_c, 0, 52, 77
2, 3102, Note_on_c, 0, 71, 0
2, 3162, Note_on_c, 0, 52, 0
2, 3172, Note_on_c, 0, 56, 62
2, 3316, Control_c, 0, 64, 0
2, 3324, Note_on_c, 0, 56, 0
2, 3358, Note_on_c, 0, 64, 80
2, 3536, Note_on_c, 0, 68, 69
2, 3570, Note_on_c, 0, 64, 0
2, 3720, Note_on_c, 0, 71, 74
2, 3760, Note_on_c, 0, 68, 0
2, 3920, Note_on_c, 0, 45, 31
2, 3928, Note_on_c, 0, 72, 63
2, 3938, Note_on_c, 0, 71, 0
2, 4140, Note_on_c, 0, 52, 42
2, 4210, Note_on_c, 0, 45, 0
2, 4254, Control_c, 0, 64, 127
2, 4290, Note_on_c, 0, 72, 0
2, 4298, Note_on_c, 0, 52, 0
2, 4368, Note_on_c, 0, 57, 33
2, 4552, Note_on_c, 0, 64, 53
2, 4562, Note_on_c, 0, 57, 0
2, 4638, Control_c, 0, 64, 0
2, 4738, Note_on_c, 0, 64, 0
2, 4754, Note_on_c, 0, 76, 71
2, 4928, Note_on_c, 0, 75, 84
2, 4944, Note_on_c, 0, 76, 0
2, 5120, Note_on_c, 0, 76, 88
2, 5150, Note_on_c, 0, 75, 0
2, 5296, Note_on_c, 0, 75, 86
2, 5318, Note_on_c, 0, 76, 0
2, 5510, Note_on_c, 0, 76, 75
2, 5538, Note_on_c, 0, 75, 0
2, 5684, Note_on_c, 0, 71, 72
2, 5696, Note_on_c, 0, 76, 0
2, 5872, Note_on_c, 0, 74, 72
2, 5892, Note_on_c, 0, 71, 0
2, 6056, Note_on_c, 0, 72, 64
2, 6062, Note_on_c, 0, 74, 0
2, 6278, Note_on_c, 0, 72, 0
2, 6288, Note_on_c, 0, 69, 42
2, 6308, Note_on_c, 0, 45, 23
2, 6406, Control_c, 0, 64, 127
2, 6522, Note_on_c, 0, 45, 0
2, 6522, Note_on_c, 0, 52, 32
2, 6570, Note_on_c, 0, 69, 0
2, 6658, Note_on_c, 0, 52, 0
2, 6714, Note_on_c, 0, 57, 25
2, 6820, Note_on_c, 0, 57, 0
2, 6864, Note_on_c, 0, 60, 57
2, 6896, Control_c, 0, 64, 0
2, 7056, Note_on_c, 0, 64, 69
2, 7078, Note_on_c, 0, 60, 0
2, 7244, Note_on_c, 0, 69, 49
2, 7266, Note_on_c, 0, 64, 0
2, 7448, Note_on_c, 0, 71, 63
2, 7450, Note_on_c, 0, 40, 49
2, 7478, Note_on_c, 0, 69, 0
2, 7588, Note_on_c, 0, 40, 0
2, 7634, Control_c, 0, 64, 127
2, 7646, Note_on_c, 0, 52, 59
2, 7702, Note_on_c, 0, 71, 0
2, 7756, Note_on_c, 0, 52, 0
2, 7838, Note_on_c, 0, 56, 41
2, 7956, Note_on_c, 0, 56, 0
2, 8002, Control_c, 0, 64, 0
2, 8030, Note_on_c, 0, 64, 53
2, 8202, Note_on_c, 0, 64, 0
2, 8232, Note_on_c, 0, 72, 47
2, 8430, Note_on_c, 0, 71, 60
2, 8438, Note_on_c, 0, 72, 0
2, 8672, Note_on_c, 0, 71, 0
2, 8684, Note_on_c, 0, 69, 34
2, 8702, Note_on_c, 0, 45, 18
2, 8878, Control_c, 0, 64, 127
2, 8936, Note_on_c, 0, 45, 0
2, 8946, Note_on_c, 0, 52, 31
2, 8996, Note_on_c, 0, 69, 0
2, 9100, Note_on_c, 0, 52, 0
2, 9174, Note_on_c, 0, 57, 29
2, 9308, Note_on_c, 0, 57, 0
2, 9414, Note_on_c, 0, 64, 38
2, 9494, Control_c, 0, 64, 0
2, 9600, Note_on_c, 0, 64, 0
2, 9642, Note_on_c, 0, 76, 53
2, 9838, Note_on_c, 0, 75, 72
2, 9856, Note_on_c, 0, 76, 0
2, 10056, Note_on_c, 0, 76, 85
2, 10070, Note_on_c, 0, 75, 0
2, 10240, Note_on_c, 0, 75, 70
2, 10266, Note_on_c, 0, 76, 0
2, 10466, Note_on_c, 0, 76, 64
2, 10480, Note_on_c, 0, 75, 0
2, 10640, Note_on_c, 0, 71, 64
2, 10642, Note_on_c, 0, 76, 0
2, 10846, Note_on_c, 0, 74, 56
2, 10856, Note_on_c, 0, 71, 0
2, 11046, Note_on_c, 0, 72, 53
2, 11066, Note_on_c, 0, 74, 0
2, 11246, Note_on_c, 0, 72, 0
2, 11264, Note_on_c, 0, 69, 39
2, 11274, Note_on_c, 0, 45, 29
2, 11430, Control_c, 0, 64, 127
2, 11494, Note_on_c, 0, 52, 40
2, 11516, Note_on_c, 0, 45, 0
2, 11530, Note_on_c, 0, 69, 0
2, 11686, Note_on_c, 0, 57, 38
2, 11688, Note_on_c, 0, 52, 0
2, 11798, Note_on_c, 0, 57, 0
2, 11860, Note_on_c, 0, 60, 47
2, 11890, Control_c, 0, 64, 0
2, 12048, Note_on_c, 0, 60, 0
2, 12050, Note_on_c, 0, 64, 61
2, 12248, Note_on_c, 0, 69, 42
2, 12266, Note_on_c, 0, 64, 0
2, 12456, Note_on_c, 0, 69, 0
2, 12466, Note_on_c, 0, 40, 47
2, 12470, Note_on_c, 0, 71, 57
2, 12572, Note_on_c, 0, 40, 0
2, 12582, Control_c, 0, 64, 127
2, 12654, Note_on_c, 0, 52, 48
2, 12750, Note_on_c, 0, 71, 0
2, 12826, Note_on_c, 0, 52, 0
2, 12842, Note_on_c, 0, 56, 46
2, 12990, Note_on_c, 0, 56, 0
2, 13012, Control_c, 0, 64, 0
2, 13032, Note_on_c, 0, 64, 60
2, 13218, Note_on_c, 0, 68, 54
2, 13226, Note_on_c, 0, 64, 0
2, 13422, Note_on_c, 0, 71, 63
2, 13452, Note_on_c, 0, 68, 0
2, 13634, Note_on_c, 0, 45, 28
2, 13642, Note_on_c, 0, 72, 56
2, 13646, Note_on_c, 0, 71, 0
2, 13830, Note_on_c, 0, 45, 0
2, 13842, Control_c, 0, 64, 127
2, 13868, Note_on_c, 0, 52, 53
2, 13954, Note_on_c, 0, 52, 0
2, 13966, Note_on_c, 0, 72, 0
2, 14054, Note_on_c, 0, 57, 47
2, 14146, Note_on_c, 0, 57, 0
2, 14258, Note_on_c, 0, 64, 57
2, 14348, Control_c, 0, 64, 0
2, 14416, Note_on_c, 0, 64, 0
2, 14442, Note_on_c, 0, 76, 67
2, 14646, Note_on_c, 0, 75, 64
2, 14666, Note_on_c, 0, 76, 0
2, 14828, Note_on_c, 0, 76, 68
2, 14854, Note_on_c, 0, 75, 0
2, 15002, Note_on_c, 0, 75, 80
2, 15010, Note_on_c, 0, 76, 0
2, 15214, Note_on_c, 0, 76, 72
2, 15220, Note_on_c, 0, 75, 0
2, 15384, Note_on_c, 0, 71, 77
2, 15387, Note_on_c, 0, 76, 0
2, 15570, Note_on_c, 0, 74, 71
2, 15578, Note_on_c, 0, 71, 0
2, 15754, Note_on_c, 0, 72, 61
2, 15761, Note_on_c, 0, 74, 0
2, 15964, Note_on_c, 0, 72, 0
2, 15982, Note_on_c, 0, 69, 36
2, 15984, Note_on_c, 0, 45, 28
2, 16162, Control_c, 0, 64, 127
2, 16192, Note_on_c, 0, 52, 37
2, 16232, Note_on_c, 0, 45, 0
2, 16260, Note_on_c, 0, 69, 0
2, 16394, Note_on_c, 0, 57, 31
2, 16402, Note_on_c, 0, 52, 0
2, 16564, Note_on_c, 0, 60, 52
2, 16622, Note_on_c, 0, 57, 0
2, 16624, Control_c, 0, 64, 0
2, 16766, Note_on_c, 0, 64, 56
2, 16778, Note_on_c, 0, 60, 0
2, 16946, Note_on_c, 0, 69, 41
2, 16962, Note_on_c, 0, 64, 0
2, 17152, Note_on_c, 0, 40, 49
2, 17162, Note_on_c, 0, 71, 57
2, 17168, Note_on_c, 0, 69, 0
2, 17298, Control_c, 0, 64, 127
2, 17322, Note_on_c, 0, 40, 0
2, 17340, Note_on_c, 0, 52, 59
2, 17438, Note_on_c, 0, 71, 0
2, 17520, Note_on_c, 0, 52, 0
2, 17528, Note_on_c, 0, 56, 54
2, 17682, Control_c, 0, 64, 0
2, 17720, Note_on_c, 0, 56, 0
2, 17740, Note_on_c, 0, 64, 59
2, 17936, Note_on_c, 0, 64, 0
2, 17958, Note_on_c, 0, 72, 42
2, 18150, Note_on_c, 0, 72, 0
2, 18152, Note_on_c, 0, 71, 60
2, 18390, Note_on_c, 0, 71, 0
2, 18406, Note_on_c, 0, 69, 28
2, 18426, Note_on_c, 0, 45, 23
2, 18666, Control_c, 0, 64, 127
2, 18672, Note_on_c, 0, 52, 39
2, 18676, Note_on_c, 0, 45, 0
2, 18834, Note_on_c, 0, 69, 0
2, 18874, Note_on_c, 0, 52, 0
2, 18910, Note_on_c, 0, 57, 26
2, 19078, Note_on_c, 0, 57, 0
2, 19096, Note_on_c, 0, 71, 64
2, 19188, Control_c, 0, 64, 0
2, 19282, Note_on_c, 0, 72, 78
2, 19358, Note_on_c, 0, 71, 0
2, 19486, Note_on_c, 0, 74, 94
2, 19540, Note_on_c, 0, 72, 0
2, 19714, Note_on_c, 0, 76, 82
2, 19746, Note_on_c, 0, 48, 24
2, 19764, Note_on_c, 0, 74, 0
2, 19936, Note_on_c, 0, 55, 40
2, 19958, Control_c, 0, 64, 127
2, 20092, Note_on_c, 0, 48, 0
2, 20172, Note_on_c, 0, 55, 0
2, 20188, Note_on_c, 0, 60, 40
2, 20368, Note_on_c, 0, 60, 0
2, 20380, Note_on_c, 0, 67, 70
2, 20498, Note_on_c, 0, 76, 0
2, 20572, Control_c, 0, 64, 0
2, 20624, Note_on_c, 0, 77, 85
2, 20626, Note_on_c, 0, 67, 0
2, 20856, Note_on_c, 0, 76, 70
2, 20916, Note_on_c, 0, 77, 0
2, 21076, Note_on_c, 0, 74, 64
2, 21084, Note_on_c, 0, 43, 32
2, 21100, Note_on_c, 0, 76, 0
2, 21232, Control_c, 0, 64, 127
2, 21236, Note_on_c, 0, 43, 0
2, 21286, Note_on_c, 0, 55, 40
2, 21452, Note_on_c, 0, 55, 0
2, 21506, Note_on_c, 0, 59, 44
2, 21596, Note_on_c, 0, 59, 0
2, 21696, Note_on_c, 0, 65, 63
2, 21740, Control_c, 0, 64, 0
2, 21782, Note_on_c, 0, 74, 0
2, 21906, Note_on_c, 0, 76, 74
2, 21910, Note_on_c, 0, 65, 0
2, 22098, Note_on_c, 0, 74, 79
2, 22174, Note_on_c, 0, 76, 0
2, 22348, Note_on_c, 0, 45, 32
2, 22352, Note_on_c, 0, 72, 76
2, 22382, Note_on_c, 0, 74, 0
2, 22558, Note_on_c, 0, 52, 49
2, 22568, Control_c, 0, 64, 127
2, 22642, Note_on_c, 0, 45, 0
2, 22770, Note_on_c, 0, 52, 0
2, 22790, Note_on_c, 0, 57, 40
2, 22968, Note_on_c, 0, 57, 0
2, 23010, Note_on_c, 0, 72, 0
2, 23024, Note_on_c, 0, 64, 60
2, 23090, Control_c, 0, 64, 0
2, 23258, Note_on_c, 0, 64, 0
2, 23258, Note_on_c, 0, 74, 57
2, 23494, Note_on_c, 0, 74, 0
2, 23496, Note_on_c, 0, 72, 48
2, 23754, Note_on_c, 0, 72, 0
2, 23757, Note_on_c, 0, 40, 39
2, 23772, Note_on_c, 0, 71, 44
2, 23930, Note_on_c, 0, 40, 0
2, 23952, Control_c, 0, 64, 127
2, 24002, Note_on_c, 0, 52, 51
2, 24056, Note_on_c, 0, 52, 0
2, 24072, Note_on_c, 0, 71, 0
2, 24170, Note_on_c, 0, 64, 78
2, 24260, Note_on_c, 0, 64, 0
2, 24436, Note_on_c, 0, 64, 71
2, 24538, Note_on_c, 0, 64, 0
2, 24656, Note_on_c, 0, 76, 61
2, 24782, Note_on_c, 0, 76, 0
2, 24846, Note_on_c, 0, 64, 74
2, 24906, Note_on_c, 0, 64, 0
2, 25066, Note_on_c, 0, 76, 82
2, 25104, Note_on_c, 0, 76, 0
2, 25274, Note_on_c, 0, 76, 82
2, 25404, Note_on_c, 0, 76, 0
2, 25468, Note_on_c, 0, 88, 70
2, 25626, Note_on_c, 0, 88, 0
2, 25684, Note_on_c, 0, 75, 68
2, 25856, Note_on_c, 0, 75, 0
2, 25902, Note_on_c, 0, 76, 83
2, 26018, Note_on_c, 0, 76, 0
2, 26070, Note_on_c, 0, 75, 87
2, 26164, Control_c, 0, 64, 0
2, 26266, Note_on_c, 0, 75, 0
2, 26268, Note_on_c, 0, 76, 87
2, 26410, Control_c, 0, 64, 127
2, 26442, Note_on_c, 0, 76, 0
2, 26466, Note_on_c, 0, 75, 92
2, 26548, Control_c, 0, 64, 0
2, 26646, Note_on_c, 0, 75, 0
2, 26656, Note_on_c, 0, 76, 87
2, 26808, Note_on_c, 0, 76, 0
2, 26828, Note_on_c, 0, 75, 79
2, 27020, Note_on_c, 0, 76, 74
2, 27024, Note_on_c, 0, 75, 0
2, 27202, Note_on_c, 0, 76, 0
2, 27216, Note_on_c, 0, 75, 62
2, 27408, Note_on_c, 0, 76, 54
2, 27420, Note_on_c, 0, 75, 0
2, 27606, Note_on_c, 0, 75, 60
2, 27622, Note_on_c, 0, 76, 0
2, 27812, Note_on_c, 0, 76, 55
2, 27828, Note_on_c, 0, 75, 0
2, 27996, Note_on_c, 0, 71, 68
2, 28024, Note_on_c, 0, 76, 0
2, 28202, Note_on_c, 0, 74, 64
2, 28206, Note_on_c, 0, 71, 0
2, 28402, Note_on_c, 0, 72, 52
2, 28408, Note_on_c, 0, 74, 0
2, 28668, Note_on_c, 0, 69, 32
2, 28670, Note_on_c, 0, 72, 0
2, 28682, Note_on_c, 0, 45, 34
2, 28854, Control_c, 0, 64, 127
2, 28906, Note_on_c, 0, 52, 49
2, 28976, Note_on_c, 0, 45, 0
2, 28992, Note_on_c, 0, 69, 0
2, 29110, Note_on_c, 0, 57, 37
2, 29152, Note_on_c, 0, 52, 0
2, 29298, Note_on_c, 0, 60, 60
2, 29300, Note_on_c, 0, 57, 0
2, 29330, Control_c, 0, 64, 0
2, 29506, Note_on_c, 0, 64, 55
2, 29516, Note_on_c, 0, 60, 0
2, 29686, Note_on_c, 0, 69, 49
2, 29691, Note_on_c, 0, 64, 0
2, 29904, Note_on_c, 0, 69, 0
2, 29906, Note_on_c, 0, 71, 67
2, 29936, Note_on_c, 0, 40, 56
2, 30020, Control_c, 0, 64, 127
2, 30064, Note_on_c, 0, 40, 0
2, 30110, Note_on_c, 0, 52, 70
2, 30190, Note_on_c, 0, 71, 0
2, 30226, Note_on_c, 0, 52, 0
2, 30310, Note_on_c, 0, 56, 51
2, 30450, Note_on_c, 0, 56, 0
2, 30466, Control_c, 0, 64, 0
2, 30500, Note_on_c, 0, 64, 72
2, 30680, Note_on_c, 0, 68, 68
2, 30740, Note_on_c, 0, 64, 0
2, 30888, Note_on_c, 0, 71, 83
2, 30914, Note_on_c, 0, 68, 0
2, 31108, Note_on_c, 0, 45, 32
2, 31114, Note_on_c, 0, 71, 0
2, 31118, Note_on_c, 0, 72, 64
2, 31296, Control_c, 0, 64, 127
2, 31312, Note_on_c, 0, 52, 69
2, 31320, Note_on_c, 0, 45, 0
2, 31386, Note_on_c, 0, 72, 0
2, 31498, Note_on_c, 0, 52, 0
2, 31512, Note_on_c, 0, 57, 52
2, 31680, Control_c, 0, 64, 0
2, 31682, Note_on_c, 0, 57, 0
2, 31685, Note_on_c, 0, 64, 84
2, 31894, Note_on_c, 0, 64, 0
2, 31904, Note_on_c, 0, 76, 80
2, 32096, Note_on_c, 0, 75, 70
2, 32110, Note_on_c, 0, 76, 0
2, 32320, Note_on_c, 0, 76, 74
2, 32325, Note_on_c, 0, 75, 0
2, 32418, Control_c, 0, 64, 127
2, 32508, Note_on_c, 0, 76, 0
2, 32528, Note_on_c, 0, 75, 55
2, 32556, Control_c, 0, 64, 0
2, 32726, Note_on_c, 0, 76, 53
2, 32728, Note_on_c, 0, 75, 0
2, 32926, Note_on_c, 0, 76, 0
2, 32926, Note_on_c, 0, 71, 54
2, 33110, Note_on_c, 0, 71, 0
2, 33124, Note_on_c, 0, 74, 51
2, 33314, Note_on_c, 0, 72, 46
2, 33328, Note_on_c, 0, 74, 0
2, 33536, Note_on_c, 0, 69, 38
2, 33544, Note_on_c, 0, 72, 0
2, 33556, Note_on_c, 0, 45, 28
2, 33662, Control_c, 0, 64, 127
2, 33780, Note_on_c, 0, 52, 44
2, 33788, Note_on_c, 0, 45, 0
2, 33818, Note_on_c, 0, 69, 0
2, 33906, Note_on_c, 0, 52, 0
2, 33988, Note_on_c, 0, 57, 26
2, 34168, Note_on_c, 0, 60, 52
2, 34200, Note_on_c, 0, 57, 0
2, 34262, Control_c, 0, 64, 0
2, 34372, Note_on_c, 0, 64, 54
2, 34392, Note_on_c, 0, 60, 0
2, 34572, Note_on_c, 0, 69, 41
2, 34590, Note_on_c, 0, 64, 0
2, 34800, Note_on_c, 0, 40, 36
2, 34810, Note_on_c, 0, 71, 48
2, 34813, Note_on_c, 0, 69, 0
2, 34922, Control_c, 0, 64, 127
2, 34936, Note_on_c, 0, 40, 0
2, 35030, Note_on_c, 0, 52, 36
2, 35118, Note_on_c, 0, 71, 0
2, 35130, Note_on_c, 0, 52, 0
2, 35216, Note_on_c, 0, 56, 33
2, 35396, Note_on_c, 0, 56, 0
2, 35430, Control_c, 0, 64, 0
2, 35438, Note_on_c, 0, 64, 38
2, 35670, Note_on_c, 0, 64, 0
2, 35670, Note_on_c, 0, 72, 40
2, 35884, Note_on_c, 0, 72, 0
2, 35894, Note_on_c, 0, 71, 42
2, 36132, Note_on_c, 0, 45, 25
2, 36144, Note_on_c, 0, 69, 25
2, 36147, Note_on_c, 0, 71, 0
2, 36352, Control_c, 0, 64, 127
2, 36370, Note_on_c, 0, 52, 42
2, 36380, Note_on_c, 0, 45, 0
2, 36562, Note_on_c, 0, 52, 0
2, 36586, Note_on_c, 0, 69, 0
2, 36622, Note_on_c, 0, 57, 28
2, 36772, Note_on_c, 0, 57, 0
2, 36814, Note_on_c, 0, 71, 69
2, 36888, Control_c, 0, 64, 0
2, 37024, Note_on_c, 0, 72, 79
2, 37084, Note_on_c, 0, 71, 0
2, 37228, Note_on_c, 0, 74, 95
2, 37296, Note_on_c, 0, 72, 0
2, 37450, Note_on_c, 0, 76, 80
2, 37470, Note_on_c, 0, 48, 33
2, 37496, Note_on_c, 0, 74, 0
2, 37666, Note_on_c, 0, 55, 48
2, 37672, Control_c, 0, 64, 127
2, 37774, Note_on_c, 0, 48, 0
2, 37868, Note_on_c, 0, 55, 0
2, 37892, Note_on_c, 0, 60, 53
2, 38108, Note_on_c, 0, 67, 72
2, 38160, Note_on_c, 0, 76, 0
2, 38216, Note_on_c, 0, 60, 0
2, 38340, Note_on_c, 0, 67, 0
2, 38342, Note_on_c, 0, 77, 94
2, 38394, Control_c, 0, 64, 0
2, 38552, Note_on_c, 0, 76, 78
2, 38620, Note_on_c, 0, 77, 0
2, 38762, Note_on_c, 0, 74, 87
2, 38786, Note_on_c, 0, 43, 33
2, 38798, Note_on_c, 0, 76, 0
2, 38902, Control_c, 0, 64, 127
2, 38932, Note_on_c, 0, 43, 0
2, 38972, Note_on_c, 0, 55, 40
2, 39128, Note_on_c, 0, 55, 0
2, 39182, Note_on_c, 0, 59, 39
2, 39282, Note_on_c, 0, 59, 0
2, 39366, Note_on_c, 0, 65, 62
2, 39412, Note_on_c, 0, 74, 0
2, 39548, Control_c, 0, 64, 0
2, 39562, Note_on_c, 0, 65, 0
2, 39578, Note_on_c, 0, 76, 74
2, 39768, Note_on_c, 0, 74, 79
2, 39806, Note_on_c, 0, 76, 0
2, 39998, Note_on_c, 0, 45, 34
2, 40001, Note_on_c, 0, 72, 57
2, 40022, Note_on_c, 0, 74, 0
2, 40184, Note_on_c, 0, 52, 49
2, 40222, Control_c, 0, 64, 127
2, 40262, Note_on_c, 0, 45, 0
2, 40426, Note_on_c, 0, 57, 39
2, 40438, Note_on_c, 0, 52, 0
2, 40554, Note_on_c, 0, 72, 0
2, 40614, Note_on_c, 0, 57, 0
2, 40654, Note_on_c, 0, 64, 52
2, 40808, Control_c, 0, 64, 0
2, 40852, Note_on_c, 0, 64, 0
2, 40884, Note_on_c, 0, 74, 53
2, 41064, Note_on_c, 0, 74, 0
2, 41096, Note_on_c, 0, 72, 45
2, 41324, Note_on_c, 0, 71, 59
2, 41326, Note_on_c, 0, 72, 0
2, 41350, Note_on_c, 0, 40, 44
2, 41514, Control_c, 0, 64, 127
2, 41516, Note_on_c, 0, 40, 0
2, 41566, Note_on_c, 0, 52, 64
2, 41614, Note_on_c, 0, 52, 0
2, 41620, Note_on_c, 0, 71, 0
2, 41774, Note_on_c, 0, 64, 75
2, 41816, Note_on_c, 0, 64, 0
2, 41976, Note_on_c, 0, 64, 87
2, 42108, Note_on_c, 0, 64, 0
2, 42186, Note_on_c, 0, 76, 90
2, 42314, Note_on_c, 0, 76, 0
2, 42396, Note_on_c, 0, 64, 71
2, 42484, Note_on_c, 0, 64, 0
2, 42596, Note_on_c, 0, 76, 82
2, 42640, Note_on_c, 0, 76, 0
2, 42786, Note_on_c, 0, 76, 94
2, 42994, Note_on_c, 0, 76, 0
2, 43014, Note_on_c, 0, 88, 87
2, 43190, Note_on_c, 0, 88, 0
2, 43230, Note_on_c, 0, 75, 79
2, 43456, Note_on_c, 0, 75, 0
2, 43474, Note_on_c, 0, 76, 88
2, 43618, Note_on_c, 0, 76, 0
2, 43670, Note_on_c, 0, 75, 92
2, 43788, Control_c, 0, 64, 0
2, 43870, Note_on_c, 0, 76, 90
2, 43882, Note_on_c, 0, 75, 0
2, 44004, Control_c, 0, 64, 127
2, 44080, Note_on_c, 0, 76, 0
2, 44086, Note_on_c, 0, 75, 83
2, 44156, Control_c, 0, 64, 0
2, 44280, Note_on_c, 0, 76, 90
2, 44288, Note_on_c, 0, 75, 0
2, 44448, Note_on_c, 0, 75, 80
2, 44451, Note_on_c, 0, 76, 0
2, 44644, Note_on_c, 0, 76, 79
2, 44666, Note_on_c, 0, 75, 0
2, 44834, Note_on_c, 0, 75, 65
2, 44862, Note_on_c, 0, 76, 0
2, 45050, Note_on_c, 0, 76, 57
2, 45066, Note_on_c, 0, 75, 0
2, 45250, Note_on_c, 0, 75, 49
2, 45266, Note_on_c, 0, 76, 0
2, 45492, Note_on_c, 0, 75, 0
2, 45492, Note_on_c, 0, 76, 46
2, 45686, Note_on_c, 0, 76, 0
2, 45696, Note_on_c, 0, 71, 48
2, 45924, Note_on_c, 0, 74, 48
2, 45926, Note_on_c, 0, 71, 0
2, 46150, Note_on_c, 0, 72, 46
2, 46162, Note_on_c, 0, 74, 0
2, 46384, Note_on_c, 0, 69, 41
2, 46390, Note_on_c, 0, 72, 0
2, 46396, Note_on_c, 0, 45, 38
2, 46570, Control_c, 0, 64, 127
2, 46596, Note_on_c, 0, 52, 54
2, 46626, Note_on_c, 0, 45, 0
2, 46682, Note_on_c, 0, 69, 0
2, 46790, Note_on_c, 0, 57, 44
2, 46798, Note_on_c, 0, 52, 0
2, 46978, Note_on_c, 0, 60, 59
2, 46984, Control_c, 0, 64, 0
2, 47040, Note_on_c, 0, 57, 0
2, 47174, Note_on_c, 0, 64, 68
2, 47222, Note_on_c, 0, 60, 0
2, 47376, Note_on_c, 0, 69, 55
2, 47422, Note_on_c, 0, 64, 0
2, 47606, Note_on_c, 0, 71, 60
2, 47614, Note_on_c, 0, 40, 54
2, 47634, Note_on_c, 0, 69, 0
2, 47752, Control_c, 0, 64, 127
2, 47754, Note_on_c, 0, 40, 0
2, 47796, Note_on_c, 0, 52, 62
2, 47926, Note_on_c, 0, 71, 0
2, 47970, Note_on_c, 0, 52, 0
2, 48004, Note_on_c, 0, 56, 53
2, 48152, Control_c, 0, 64, 0
2, 48158, Note_on_c, 0, 56, 0
2, 48202, Note_on_c, 0, 64, 63
2, 48406, Note_on_c, 0, 68, 55
2, 48438, Note_on_c, 0, 64, 0
2, 48624, Note_on_c, 0, 71, 60
2, 48648, Note_on_c, 0, 68, 0
2, 48850, Note_on_c, 0, 45, 25
2, 48862, Note_on_c, 0, 71, 0
2, 48862, Note_on_c, 0, 72, 46
2, 48904, Control_c, 0, 64, 127
2, 49040, Note_on_c, 0, 45, 0
2, 49092, Note_on_c, 0, 52, 38
2, 49186, Note_on_c, 0, 52, 0
2, 49198, Note_on_c, 0, 72, 0
2, 49300, Note_on_c, 0, 57, 33
2, 49428, Control_c, 0, 64, 0
2, 49494, Note_on_c, 0, 64, 48
2, 49508, Note_on_c, 0, 57, 0
2, 49676, Note_on_c, 0, 64, 0
2, 49706, Note_on_c, 0, 76, 45
2, 49900, Note_on_c, 0, 75, 68
2, 49918, Note_on_c, 0, 76, 0
2, 49934, Control_c, 0, 64, 127
2, 50010, Control_c, 0, 64, 0
2, 50112, Note_on_c, 0, 76, 84
2, 50126, Note_on_c, 0, 75, 0
2, 50300, Note_on_c, 0, 75, 69
2, 50332, Note_on_c, 0, 76, 0
2, 50538, Note_on_c, 0, 76, 61
2, 50556, Note_on_c, 0, 75, 0
2, 50712, Note_on_c, 0, 71, 69
2, 50732, Note_on_c, 0, 76, 0
2, 50930, Note_on_c, 0, 71, 0
2, 50930, Note_on_c, 0, 74, 59
2, 51124, Note_on_c, 0, 72, 51
2, 51127, Note_on_c, 0, 74, 0
2, 51330, Note_on_c, 0, 72, 0
2, 51348, Note_on_c, 0, 45, 28
2, 51348, Note_on_c, 0, 69, 41
2, 51502, Control_c, 0, 64, 127
2, 51560, Note_on_c, 0, 45, 0
2, 51570, Note_on_c, 0, 52, 45
2, 51604, Note_on_c, 0, 69, 0
2, 51742, Note_on_c, 0, 52, 0
2, 51766, Note_on_c, 0, 57, 31
2, 51916, Control_c, 0, 64, 0
2, 51950, Note_on_c, 0, 60, 52
2, 51980, Note_on_c, 0, 57, 0
2, 52156, Note_on_c, 0, 60, 0
2, 52162, Note_on_c, 0, 64, 48
2, 52348, Note_on_c, 0, 64, 0
2, 52351, Note_on_c, 0, 69, 38
2, 52588, Note_on_c, 0, 40, 42
2, 52592, Note_on_c, 0, 71, 47
2, 52606, Note_on_c, 0, 69, 0
2, 52696, Note_on_c, 0, 40, 0
2, 52716, Control_c, 0, 64, 127
2, 52782, Note_on_c, 0, 52, 57
2, 52862, Note_on_c, 0, 71, 0
2, 52890, Note_on_c, 0, 52, 0
2, 52980, Note_on_c, 0, 56, 42
2, 53130, Control_c, 0, 64, 0
2, 53162, Note_on_c, 0, 56, 0
2, 53194, Note_on_c, 0, 64, 55
2, 53436, Note_on_c, 0, 64, 0
2, 53442, Note_on_c, 0, 72, 39
2, 53646, Note_on_c, 0, 72, 0
2, 53646, Note_on_c, 0, 71, 47
2, 53902, Note_on_c, 0, 71, 0
2, 53908, Note_on_c, 0, 45, 26
2, 53930, Note_on_c, 0, 69, 23
2, 54194, Note_on_c, 0, 52, 36
2, 54204, Control_c, 0, 64, 127
2, 54224, Note_on_c, 0, 45, 0
2, 54408, Note_on_c, 0, 52, 0
2, 54512, Note_on_c, 0, 57, 28
2, 54536, Note_on_c, 0, 69, 0
2, 54634, Note_on_c, 0, 57, 0
2, 54928, Control_c, 0, 64, 0
2, 54934, Note_on_c, 0, 64, 46
2, 54942, Note_on_c, 0, 72, 51
2, 54944, Note_on_c, 0, 58, 26
2, 54954, Note_on_c, 0, 60, 26
2, 55084, Note_on_c, 0, 60, 0
2, 55094, Note_on_c, 0, 64, 0
2, 55142, Note_on_c, 0, 72, 0
2, 55142, Control_c, 0, 64, 127
2, 55148, Note_on_c, 0, 58, 0
2, 55234, Control_c, 0, 64, 0
2, 55260, Note_on_c, 0, 72, 45
2, 55266, Note_on_c, 0, 57, 47
2, 55274, Note_on_c, 0, 65, 48
2, 55278, Note_on_c, 0, 60, 33
2, 55394, Note_on_c, 0, 65, 0
2, 55414, Note_on_c, 0, 60, 0
2, 55434, Control_c, 0, 64, 127
2, 55438, Note_on_c, 0, 57, 0
2, 55442, Note_on_c, 0, 72, 0
2, 55604, Control_c, 0, 64, 0
2, 55658, Note_on_c, 0, 72, 45
2, 55676, Note_on_c, 0, 58, 16
2, 55686, Note_on_c, 0, 64, 28
2, 55692, Note_on_c, 0, 67, 18
2, 55694, Note_on_c, 0, 60, 32
2, 55708, Note_on_c, 0, 55, 26
2, 55870, Note_on_c, 0, 64, 0
2, 55894, Control_c, 0, 64, 127
2, 55918, Note_on_c, 0, 67, 0
2, 55946, Note_on_c, 0, 60, 0
2, 55988, Note_on_c, 0, 55, 0
2, 56046, Note_on_c, 0, 65, 44
2, 56070, Note_on_c, 0, 58, 0
2, 56200, Note_on_c, 0, 69, 46
2, 56224, Note_on_c, 0, 72, 0
2, 56388, Control_c, 0, 64, 0
2, 56388, Note_on_c, 0, 53, 57
2, 56442, Note_on_c, 0, 72, 57
2, 56454, Note_on_c, 0, 65, 0
2, 56548, Note_on_c, 0, 69, 0
2, 56720, Note_on_c, 0, 57, 26
2, 56930, Note_on_c, 0, 60, 46
2, 56934, Note_on_c, 0, 57, 0
2, 57002, Control_c, 0, 64, 127
2, 57136, Note_on_c, 0, 60, 0
2, 57154, Note_on_c, 0, 57, 37
2, 57376, Note_on_c, 0, 57, 0
2, 57456, Note_on_c, 0, 77, 90
2, 57502, Note_on_c, 0, 60, 31
2, 57548, Note_on_c, 0, 72, 0
2, 57670, Note_on_c, 0, 53, 0
2, 57698, Note_on_c, 0, 57, 40
2, 57708, Note_on_c, 0, 60, 0
2, 57790, Note_on_c, 0, 57, 0
2, 57804, Note_on_c, 0, 76, 70
2, 57848, Note_on_c, 0, 76, 0
2, 57852, Note_on_c, 0, 77, 0
2, 57906, Note_on_c, 0, 76, 79
2, 57938, Control_c, 0, 64, 0
2, 57948, Note_on_c, 0, 53, 52
2, 58136, Note_on_c, 0, 58, 33
2, 58308, Control_c, 0, 64, 127
2, 58314, Note_on_c, 0, 58, 0
2, 58342, Note_on_c, 0, 74, 70
2, 58354, Note_on_c, 0, 62, 34
2, 58412, Note_on_c, 0, 76, 0
2, 58446, Control_c, 0, 64, 0
2, 58536, Note_on_c, 0, 62, 0
2, 58548, Note_on_c, 0, 58, 33
2, 58646, Control_c, 0, 64, 127
2, 58756, Note_on_c, 0, 58, 0
2, 58780, Note_on_c, 0, 82, 84
2, 58814, Note_on_c, 0, 74, 0
2, 58836, Note_on_c, 0, 62, 34
2, 58846, Control_c, 0, 64, 0
2, 59030, Control_c, 0, 64, 127
2, 59036, Note_on_c, 0, 53, 0
2, 59042, Note_on_c, 0, 58, 40
2, 59110, Note_on_c, 0, 58, 0
2, 59118, Note_on_c, 0, 62, 0
2, 59170, Note_on_c, 0, 81, 79
2, 59210, Note_on_c, 0, 81, 0
2, 59214, Note_on_c, 0, 82, 0
2, 59300, Note_on_c, 0, 81, 53
2, 59344, Note_on_c, 0, 53, 36
2, 59352, Control_c, 0, 64, 0
2, 59552, Control_c, 0, 64, 127
2, 59570, Note_on_c, 0, 79, 87
2, 59576, Note_on_c, 0, 53, 0
2, 59612, Note_on_c, 0, 64, 31
2, 59682, Note_on_c, 0, 81, 0
2, 59760, Note_on_c, 0, 64, 0
2, 59782, Control_c, 0, 64, 0
2, 59802, Note_on_c, 0, 77, 87
2, 59806, Note_on_c, 0, 58, 37
2, 59844, Note_on_c, 0, 55, 30
2, 59852, Note_on_c, 0, 53, 51
2, 59868, Note_on_c, 0, 79, 0
2, 59938, Note_on_c, 0, 55, 0
2, 59982, Control_c, 0, 64, 127
2, 59994, Note_on_c, 0, 53, 0
2, 60026, Note_on_c, 0, 76, 78
2, 60028, Note_on_c, 0, 58, 0
2, 60038, Note_on_c, 0, 77, 0
2, 60070, Note_on_c, 0, 64, 45
2, 60148, Note_on_c, 0, 64, 0
2, 60212, Control_c, 0, 64, 0
2, 60248, Note_on_c, 0, 74, 85
2, 60258, Note_on_c, 0, 58, 36
2, 60282, Note_on_c, 0, 53, 44
2, 60290, Note_on_c, 0, 55, 44
2, 60330, Note_on_c, 0, 76, 0
2, 60386, Note_on_c, 0, 53, 0
2, 60389, Note_on_c, 0, 55, 0
2, 60412, Control_c, 0, 64, 127
2, 60450, Note_on_c, 0, 72, 83
2, 60504, Note_on_c, 0, 64, 46
2, 60508, Note_on_c, 0, 58, 0
2, 60514, Note_on_c, 0, 74, 0
2, 60628, Control_c, 0, 64, 0
2, 60632, Note_on_c, 0, 64, 0
2, 60684, Note_on_c, 0, 70, 72
2, 60716, Note_on_c, 0, 53, 68
2, 60762, Note_on_c, 0, 72, 0
2, 60910, Note_on_c, 0, 57, 52
2, 61042, Control_c, 0, 64, 127
2, 61102, Note_on_c, 0, 57, 0
2, 61148, Note_on_c, 0, 69, 54
2, 61158, Note_on_c, 0, 60, 41
2, 61182, Note_on_c, 0, 70, 0
2, 61212, Control_c, 0, 64, 0
2, 61274, Note_on_c, 0, 53, 0
2, 61378, Note_on_c, 0, 60, 0
2, 61392, Note_on_c, 0, 57, 51
2, 61442, Control_c, 0, 64, 127
2, 61576, Note_on_c, 0, 69, 0
2, 61610, Note_on_c, 0, 70, 57
2, 61614, Note_on_c, 0, 57, 0
2, 61648, Note_on_c, 0, 60, 37
2, 61656, Note_on_c, 0, 69, 57
2, 61722, Note_on_c, 0, 70, 0
2, 61730, Note_on_c, 0, 60, 0
2, 61782, Note_on_c, 0, 67, 80
2, 61784, Note_on_c, 0, 69, 0
2, 61888, Note_on_c, 0, 69, 57
2, 61900, Note_on_c, 0, 57, 51
2, 61924, Note_on_c, 0, 67, 0
2, 61990, Note_on_c, 0, 70, 76
2, 62016, Note_on_c, 0, 69, 0
2, 62040, Control_c, 0, 64, 0
2, 62068, Note_on_c, 0, 57, 0
2, 62122, Note_on_c, 0, 72, 90
2, 62136, Note_on_c, 0, 53, 53
2, 62178, Note_on_c, 0, 70, 0
2, 62364, Note_on_c, 0, 57, 46
2, 62488, Control_c, 0, 64, 127
2, 62560, Note_on_c, 0, 57, 0
2, 62594, Note_on_c, 0, 60, 47
2, 62702, Control_c, 0, 64, 0
2, 62778, Note_on_c, 0, 60, 0
2, 62824, Note_on_c, 0, 57, 41
2, 62886, Control_c, 0, 64, 127
2, 62990, Note_on_c, 0, 57, 0
2, 63064, Note_on_c, 0, 74, 88
2, 63070, Control_c, 0, 64, 0
2, 63092, Note_on_c, 0, 60, 52
2, 63140, Note_on_c, 0, 72, 0
2, 63270, Control_c, 0, 64, 127
2, 63274, Note_on_c, 0, 60, 0
2, 63284, Note_on_c, 0, 75, 88
2, 63312, Note_on_c, 0, 57, 45
2, 63350, Note_on_c, 0, 74, 0
2, 63426, Note_on_c, 0, 57, 0
2, 63470, Control_c, 0, 64, 0
2, 63508, Note_on_c, 0, 53, 0
2, 63518, Note_on_c, 0, 76, 90
2, 63540, Note_on_c, 0, 52, 59
2, 63588, Note_on_c, 0, 75, 0
2, 63724, Note_on_c, 0, 57, 53
2, 63894, Note_on_c, 0, 57, 0
2, 63946, Note_on_c, 0, 60, 46
2, 63992, Control_c, 0, 64, 127
2, 64082, Note_on_c, 0, 76, 0
2, 64174, Note_on_c, 0, 76, 67
2, 64176, Note_on_c, 0, 60, 0
2, 64182, Note_on_c, 0, 52, 0
2, 64182, Note_on_c, 0, 57, 42
2, 64394, Note_on_c, 0, 57, 0
2, 64428, Note_on_c, 0, 50, 44
2, 64432, Note_on_c, 0, 77, 78
2, 64438, Control_c, 0, 64, 0
2, 64442, Note_on_c, 0, 62, 34
2, 64478, Note_on_c, 0, 76, 0
2, 64648, Note_on_c, 0, 69, 57
2, 64680, Note_on_c, 0, 50, 0
2, 64683, Note_on_c, 0, 53, 60
2, 64683, Control_c, 0, 64, 127
2, 64776, Note_on_c, 0, 62, 0
2, 64780, Note_on_c, 0, 77, 0
2, 64880, Note_on_c, 0, 53, 0
2, 64883, Control_c, 0, 64, 0
2, 64890, Note_on_c, 0, 72, 71
2, 64906, Note_on_c, 0, 55, 48
2, 64918, Note_on_c, 0, 69, 0
2, 65118, Note_on_c, 0, 55, 0
2, 65144, Control_c, 0, 64, 127
2, 65146, Note_on_c, 0, 64, 47
2, 65312, Note_on_c, 0, 64, 0
2, 65390, Note_on_c, 0, 55, 46
2, 65438, Control_c, 0, 64, 0
2, 65564, Note_on_c, 0, 55, 0
2, 65606, Control_c, 0, 64, 127
2, 65626, Note_on_c, 0, 64, 44
2, 65798, Note_on_c, 0, 64, 0
2, 65836, Control_c, 0, 64, 0
2, 65841, Note_on_c, 0, 74, 64
2, 65854, Note_on_c, 0, 55, 44
2, 65894, Note_on_c, 0, 72, 0
2, 66060, Note_on_c, 0, 65, 44
2, 66098, Control_c, 0, 64, 127
2, 66152, Note_on_c, 0, 55, 0
2, 66168, Note_on_c, 0, 65, 0
2, 66168, Note_on_c, 0, 71, 68
2, 66182, Note_on_c, 0, 74, 0
2, 66206, Control_c, 0, 64, 0
2, 66280, Note_on_c, 0, 64, 39
2, 66284, Note_on_c, 0, 60, 39
2, 66294, Note_on_c, 0, 72, 77
2, 66300, Note_on_c, 0, 71, 0
2, 66390, Note_on_c, 0, 72, 0
2, 66396, Note_on_c, 0, 79, 75
2, 66462, Note_on_c, 0, 79, 0
2, 66504, Note_on_c, 0, 60, 0
2, 66512, Note_on_c, 0, 67, 79
2, 66520, Note_on_c, 0, 64, 0
2, 66574, Note_on_c, 0, 67, 0
2, 66622, Note_on_c, 0, 79, 62
2, 66710, Note_on_c, 0, 79, 0
2, 66728, Note_on_c, 0, 69, 79
2, 66806, Note_on_c, 0, 69, 0
2, 66840, Note_on_c, 0, 79, 76
2, 66914, Note_on_c, 0, 79, 0
2, 66938, Note_on_c, 0, 67, 69
2, 66941, Note_on_c, 0, 65, 68
2, 66952, Note_on_c, 0, 71, 101
2, 66990, Note_on_c, 0, 65, 0
2, 66996, Note_on_c, 0, 67, 0
2, 67024, Note_on_c, 0, 71, 0
2, 67070, Note_on_c, 0, 79, 83
2, 67138, Note_on_c, 0, 79, 0
2, 67160, Note_on_c, 0, 64, 100
2, 67160, Note_on_c, 0, 67, 72
2, 67164, Note_on_c, 0, 72, 90
2, 67216, Note_on_c, 0, 67, 0
2, 67216, Note_on_c, 0, 64, 0
2, 67246, Note_on_c, 0, 72, 0
2, 67274, Note_on_c, 0, 79, 86
2, 67352, Note_on_c, 0, 79, 0
2, 67384, Note_on_c, 0, 65, 76
2, 67386, Note_on_c, 0, 67, 78
2, 67388, Note_on_c, 0, 74, 94
2, 67390, Note_on_c, 0, 62, 80
2, 67432, Note_on_c, 0, 65, 0
2, 67442, Note_on_c, 0, 67, 0
2, 67442, Note_on_c, 0, 62, 0
2, 67484, Note_on_c, 0, 74, 0
2, 67502, Note_on_c, 0, 79, 86
2, 67562, Note_on_c, 0, 79, 0
2, 67622, Note_on_c, 0, 67, 77
2, 67625, Note_on_c, 0, 76, 84
2, 67632, Note_on_c, 0, 64, 63
2, 67644, Note_on_c, 0, 60, 45
2, 67682, Note_on_c, 0, 67, 0
2, 67692, Note_on_c, 0, 76, 0
2, 67710, Note_on_c, 0, 64, 0
2, 67718, Note_on_c, 0, 60, 0
2, 67740, Note_on_c, 0, 79, 106
2, 67840, Note_on_c, 0, 84, 93
2, 67858, Note_on_c, 0, 79, 0
2, 67964, Note_on_c, 0, 83, 106
2, 67980, Note_on_c, 0, 84, 0
2, 68062, Note_on_c, 0, 53, 88
2, 68076, Note_on_c, 0, 81, 90
2, 68092, Note_on_c, 0, 83, 0
2, 68100, Note_on_c, 0, 57, 18
2, 68180, Note_on_c, 0, 53, 0
2, 68190, Note_on_c, 0, 79, 99
2, 68210, Note_on_c, 0, 57, 0
2, 68222, Note_on_c, 0, 81, 0
2, 68294, Note_on_c, 0, 77, 82
2, 68306, Note_on_c, 0, 79, 0
2, 68394, Note_on_c, 0, 76, 77
2, 68420, Note_on_c, 0, 77, 0
2, 68498, Note_on_c, 0, 74, 88
2, 68512, Note_on_c, 0, 55, 54
2, 68514, Note_on_c, 0, 59, 45
2, 68536, Note_on_c, 0, 76, 0
2, 68584, Note_on_c, 0, 74, 0
2, 68587, Note_on_c, 0, 59, 0
2, 68606, Note_on_c, 0, 55, 0
2, 68608, Note_on_c, 0, 79, 83
2, 68716, Note_on_c, 0, 77, 77
2, 68726, Note_on_c, 0, 79, 0
2, 68812, Note_on_c, 0, 77, 0
2, 68836, Note_on_c, 0, 74, 63
2, 68888, Note_on_c, 0, 74, 0
2, 68948, Note_on_c, 0, 72, 67
2, 68956, Note_on_c, 0, 60, 41
2, 69022, Note_on_c, 0, 72, 0
2, 69062, Note_on_c, 0, 79, 71
2, 69124, Note_on_c, 0, 60, 0
2, 69130, Note_on_c, 0, 79, 0
2, 69182, Note_on_c, 0, 67, 68
2, 69240, Note_on_c, 0, 67, 0
2, 69286, Note_on_c, 0, 79, 83
2, 69364, Note_on_c, 0, 79, 0
2, 69400, Note_on_c, 0, 69, 71
2, 69462, Note_on_c, 0, 69, 0
2, 69514, Note_on_c, 0, 79, 79
2, 69576, Note_on_c, 0, 79, 0
2, 69604, Note_on_c, 0, 67, 74
2, 69608, Note_on_c, 0, 65, 75
2, 69614, Note_on_c, 0, 71, 97
2, 69658, Note_on_c, 0, 65, 0
2, 69660, Note_on_c, 0, 67, 0
2, 69672, Note_on_c, 0, 71, 0
2, 69728, Note_on_c, 0, 79, 78
2, 69786, Note_on_c, 0, 79, 0
2, 69820, Note_on_c, 0, 72, 86
2, 69820, Note_on_c, 0, 67, 79
2, 69822, Note_on_c, 0, 64, 95
2, 69874, Note_on_c, 0, 64, 0
2, 69884, Note_on_c, 0, 67, 0
2, 69914, Note_on_c, 0, 72, 0
2, 69930, Note_on_c, 0, 79, 97
2, 70006, Note_on_c, 0, 79, 0
2, 70038, Note_on_c, 0, 74, 93
2, 70038, Note_on_c, 0, 65, 78
2, 70038, Note_on_c, 0, 67, 77
2, 70048, Note_on_c, 0, 62, 75
2, 70092, Note_on_c, 0, 65, 0
2, 70094, Note_on_c, 0, 67, 0
2, 70100, Note_on_c, 0, 62, 0
2, 70150, Note_on_c, 0, 79, 100
2, 70160, Note_on_c, 0, 74, 0
2, 70226, Note_on_c, 0, 79, 0
2, 70280, Note_on_c, 0, 67, 80
2, 70282, Note_on_c, 0, 76, 85
2, 70294, Note_on_c, 0, 64, 64
2, 70298, Note_on_c, 0, 60, 59
2, 70372, Note_on_c, 0, 76, 0
2, 70375, Note_on_c, 0, 67, 0
2, 70400, Note_on_c, 0, 79, 106
2, 70422, Note_on_c, 0, 64, 0
2, 70432, Note_on_c, 0, 60, 0
2, 70512, Note_on_c, 0, 84, 97
2, 70520, Note_on_c, 0, 79, 0
2, 70636, Note_on_c, 0, 83, 105
2, 70660, Note_on_c, 0, 84, 0
2, 70732, Note_on_c, 0, 57, 60
2, 70738, Note_on_c, 0, 53, 87
2, 70748, Note_on_c, 0, 81, 86
2, 70766, Note_on_c, 0, 83, 0
2, 70864, Note_on_c, 0, 79, 99
2, 70890, Note_on_c, 0, 53, 0
2, 70892, Note_on_c, 0, 81, 0
2, 70910, Note_on_c, 0, 57, 0
2, 70972, Note_on_c, 0, 77, 80
2, 70990, Note_on_c, 0, 79, 0
2, 71076, Note_on_c, 0, 76, 85
2, 71096, Note_on_c, 0, 77, 0
2, 71192, Note_on_c, 0, 74, 98
2, 71220, Note_on_c, 0, 55, 41
2, 71224, Note_on_c, 0, 76, 0
2, 71226, Note_on_c, 0, 59, 42
2, 71300, Note_on_c, 0, 59, 0
2, 71312, Note_on_c, 0, 74, 0
2, 71315, Note_on_c, 0, 79, 100
2, 71350, Note_on_c, 0, 55, 0
2, 71432, Note_on_c, 0, 77, 85
2, 71480, Note_on_c, 0, 79, 0
2, 71530, Note_on_c, 0, 74, 92
2, 71550, Note_on_c, 0, 77, 0
2, 71648, Note_on_c, 0, 74, 0
2, 71664, Note_on_c, 0, 76, 92
2, 71670, Note_on_c, 0, 56, 48
2, 71684, Note_on_c, 0, 59, 54
2, 71772, Note_on_c, 0, 77, 91
2, 71775, Note_on_c, 0, 76, 0
2, 71886, Note_on_c, 0, 76, 65
2, 71920, Note_on_c, 0, 77, 0
2, 72008, Note_on_c, 0, 76, 0
2, 72011, Note_on_c, 0, 75, 75
2, 72152, Note_on_c, 0, 76, 78
2, 72160, Note_on_c, 0, 75, 0
2, 72260, Note_on_c, 0, 71, 72
2, 72288, Note_on_c, 0, 76, 0
2, 72366, Note_on_c, 0, 71, 0
2, 72374, Note_on_c, 0, 76, 53
2, 72388, Note_on_c, 0, 59, 0
2, 72442, Note_on_c, 0, 56, 0
2, 72500, Note_on_c, 0, 75, 72
2, 72510, Note_on_c, 0, 76, 0
2, 72648, Note_on_c, 0, 76, 71
2, 72664, Note_on_c, 0, 75, 0
2, 72766, Note_on_c, 0, 71, 72
2, 72780, Note_on_c, 0, 76, 0
2, 72858, Note_on_c, 0, 71, 0
2, 72912, Note_on_c, 0, 76, 57
2, 73048, Note_on_c, 0, 75, 70
2, 73066, Note_on_c, 0, 76, 0
2, 73294, Note_on_c, 0, 76, 74
2, 73322, Note_on_c, 0, 75, 0
2, 74306, Note_on_c, 0, 71, 47
2, 74368, Note_on_c, 0, 76, 0
2, 74410, Control_c, 0, 64, 127
2, 74456, Control_c, 0, 64, 0
2, 74574, Note_on_c, 0, 76, 61
2, 74590, Note_on_c, 0, 71, 0
2, 74836, Note_on_c, 0, 75, 53
2, 74858, Note_on_c, 0, 76, 0
2, 75248, Note_on_c, 0, 76, 33
2, 75292, Note_on_c, 0, 75, 0
2, 75778, Control_c, 0, 64, 127
2, 76368, Note_on_c, 0, 71, 41
2, 76458, Note_on_c, 0, 76, 0
2, 76800, Note_on_c, 0, 71, 0
2, 76828, Note_on_c, 0, 76, 36
2, 76884, Control_c, 0, 64, 0
2, 77144, Control_c, 0, 64, 127
2, 77180, Note_on_c, 0, 75, 39
2, 77204, Note_on_c, 0, 76, 0
2, 77468, Control_c, 0, 64, 0
2, 77504, Note_on_c, 0, 76, 46
2, 77544, Note_on_c, 0, 75, 0
2, 77762, Note_on_c, 0, 75, 51
2, 77786, Note_on_c, 0, 76, 0
2, 78004, Note_on_c, 0, 76, 56
2, 78032, Note_on_c, 0, 75, 0
2, 78208, Note_on_c, 0, 75, 55
2, 78232, Note_on_c, 0, 76, 0
2, 78434, Note_on_c, 0, 76, 57
2, 78448, Note_on_c, 0, 75, 0
2, 78626, Note_on_c, 0, 75, 48
2, 78654, Note_on_c, 0, 76, 0
2, 78864, Note_on_c, 0, 75, 0
2, 78864, Note_on_c, 0, 76, 39
2, 79034, Note_on_c, 0, 76, 0
2, 79048, Note_on_c, 0, 75, 36
2, 79282, Note_on_c, 0, 75, 0
2, 79284, Note_on_c, 0, 76, 49
2, 79472, Note_on_c, 0, 71, 51
2, 79475, Note_on_c, 0, 76, 0
2, 79664, Note_on_c, 0, 71, 0
2, 79674, Note_on_c, 0, 74, 45
2, 79866, Note_on_c, 0, 72, 44
2, 79882, Note_on_c, 0, 74, 0
2, 80080, Note_on_c, 0, 72, 0
2, 80096, Note_on_c, 0, 45, 24
2, 80100, Note_on_c, 0, 69, 28
2, 80280, Control_c, 0, 64, 127
2, 80338, Note_on_c, 0, 45, 0
2, 80341, Note_on_c, 0, 52, 34
2, 80382, Note_on_c, 0, 69, 0
2, 80466, Note_on_c, 0, 52, 0
2, 80534, Note_on_c, 0, 57, 34
2, 80710, Note_on_c, 0, 60, 53
2, 80734, Note_on_c, 0, 57, 0
2, 80832, Control_c, 0, 64, 0
2, 80888, Note_on_c, 0, 60, 0
2, 80896, Note_on_c, 0, 64, 54
2, 81084, Note_on_c, 0, 69, 42
2, 81086, Note_on_c, 0, 64, 0
2, 81310, Note_on_c, 0, 69, 0
2, 81310, Note_on_c, 0, 71, 53
2, 81330, Note_on_c, 0, 40, 34
2, 81438, Note_on_c, 0, 40, 0
2, 81494, Control_c, 0, 64, 127
2, 81500, Note_on_c, 0, 52, 53
2, 81570, Note_on_c, 0, 52, 0
2, 81616, Note_on_c, 0, 71, 0
2, 81708, Note_on_c, 0, 56, 44
2, 81878, Control_c, 0, 64, 0
2, 81888, Note_on_c, 0, 56, 0
2, 81910, Note_on_c, 0, 64, 51
2, 82090, Note_on_c, 0, 68, 41
2, 82116, Note_on_c, 0, 64, 0
2, 82296, Note_on_c, 0, 71, 52
2, 82324, Note_on_c, 0, 68, 0
2, 82516, Note_on_c, 0, 45, 17
2, 82532, Note_on_c, 0, 72, 49
2, 82534, Note_on_c, 0, 71, 0
2, 82676, Control_c, 0, 64, 127
2, 82740, Note_on_c, 0, 45, 0
2, 82750, Note_on_c, 0, 52, 40
2, 82840, Note_on_c, 0, 72, 0
2, 82850, Note_on_c, 0, 52, 0
2, 82956, Note_on_c, 0, 57, 36
2, 83148, Note_on_c, 0, 57, 0
2, 83160, Note_on_c, 0, 64, 59
2, 83184, Control_c, 0, 64, 0
2, 83348, Note_on_c, 0, 64, 0
2, 83360, Note_on_c, 0, 76, 61
2, 83536, Note_on_c, 0, 75, 77
2, 83560, Note_on_c, 0, 76, 0
2, 83730, Note_on_c, 0, 76, 84
2, 83756, Note_on_c, 0, 75, 0
2, 83922, Note_on_c, 0, 75, 71
2, 83938, Note_on_c, 0, 76, 0
2, 84150, Note_on_c, 0, 76, 70
2, 84164, Note_on_c, 0, 75, 0
2, 84318, Note_on_c, 0, 71, 64
2, 84344, Note_on_c, 0, 76, 0
2, 84526, Note_on_c, 0, 74, 64
2, 84536, Note_on_c, 0, 71, 0
2, 84708, Note_on_c, 0, 72, 49
2, 84713, Note_on_c, 0, 74, 0
2, 84940, Note_on_c, 0, 69, 32
2, 84942, Note_on_c, 0, 72, 0
2, 84970, Note_on_c, 0, 45, 24
2, 85120, Control_c, 0, 64, 127
2, 85148, Note_on_c, 0, 52, 44
2, 85198, Note_on_c, 0, 45, 0
2, 85280, Note_on_c, 0, 69, 0
2, 85312, Note_on_c, 0, 52, 0
2, 85342, Note_on_c, 0, 57, 37
2, 85510, Note_on_c, 0, 60, 54
2, 85516, Note_on_c, 0, 57, 0
2, 85534, Control_c, 0, 64, 0
2, 85708, Note_on_c, 0, 64, 59
2, 85733, Note_on_c, 0, 60, 0
2, 85900, Note_on_c, 0, 69, 41
2, 85928, Note_on_c, 0, 64, 0
2, 86124, Note_on_c, 0, 71, 52
2, 86136, Note_on_c, 0, 40, 37
2, 86160, Note_on_c, 0, 69, 0
2, 86236, Note_on_c, 0, 40, 0
2, 86256, Control_c, 0, 64, 127
2, 86334, Note_on_c, 0, 52, 41
2, 86364, Note_on_c, 0, 71, 0
2, 86414, Note_on_c, 0, 52, 0
2, 86514, Note_on_c, 0, 56, 29
2, 86680, Note_on_c, 0, 56, 0
2, 86720, Note_on_c, 0, 62, 49
2, 86734, Control_c, 0, 64, 0
2, 86908, Note_on_c, 0, 62, 0
2, 86936, Note_on_c, 0, 72, 37
2, 87128, Note_on_c, 0, 72, 0
2, 87136, Note_on_c, 0, 71, 46
2, 87342, Note_on_c, 0, 45, 18
2, 87356, Note_on_c, 0, 71, 0
2, 87384, Note_on_c, 0, 69, 29
2, 87548, Control_c, 0, 64, 127
2, 87576, Note_on_c, 0, 45, 0
2, 87616, Note_on_c, 0, 52, 36
2, 87712, Note_on_c, 0, 69, 0
2, 87714, Note_on_c, 0, 52, 0
2, 87886, Note_on_c, 0, 57, 31
2, 88032, Note_on_c, 0, 57, 0
2, 88114, Note_on_c, 0, 71, 74
2, 88194, Control_c, 0, 64, 0
2, 88312, Note_on_c, 0, 72, 82
2, 88378, Note_on_c, 0, 71, 0
2, 88510, Note_on_c, 0, 74, 95
2, 88562, Note_on_c, 0, 72, 0
2, 88736, Note_on_c, 0, 76, 77
2, 88736, Note_on_c, 0, 48, 34
2, 88754, Note_on_c, 0, 74, 0
2, 88928, Note_on_c, 0, 55, 52
2, 88930, Control_c, 0, 64, 127
2, 89058, Note_on_c, 0, 48, 0
2, 89140, Note_on_c, 0, 55, 0
2, 89152, Note_on_c, 0, 60, 61
2, 89304, Note_on_c, 0, 60, 0
2, 89330, Note_on_c, 0, 67, 72
2, 89410, Note_on_c, 0, 76, 0
2, 89530, Control_c, 0, 64, 0
2, 89546, Note_on_c, 0, 67, 0
2, 89549, Note_on_c, 0, 77, 86
2, 89738, Note_on_c, 0, 76, 71
2, 89802, Note_on_c, 0, 77, 0
2, 89964, Note_on_c, 0, 74, 67
2, 89988, Note_on_c, 0, 43, 34
2, 89996, Note_on_c, 0, 76, 0
2, 90098, Control_c, 0, 64, 127
2, 90134, Note_on_c, 0, 43, 0
2, 90186, Note_on_c, 0, 55, 53
2, 90280, Note_on_c, 0, 55, 0
2, 90408, Note_on_c, 0, 74, 0
2, 90412, Note_on_c, 0, 59, 51
2, 90518, Note_on_c, 0, 59, 0
2, 90588, Note_on_c, 0, 65, 52
2, 90698, Control_c, 0, 64, 0
2, 90794, Note_on_c, 0, 65, 0
2, 90812, Note_on_c, 0, 76, 52
2, 91008, Note_on_c, 0, 74, 57
2, 91016, Note_on_c, 0, 76, 0
2, 91232, Note_on_c, 0, 72, 44
2, 91238, Note_on_c, 0, 45, 29
2, 91242, Note_on_c, 0, 74, 0
2, 91326, Control_c, 0, 64, 127
2, 91442, Note_on_c, 0, 52, 49
2, 91494, Note_on_c, 0, 45, 0
2, 91644, Note_on_c, 0, 52, 0
2, 91658, Note_on_c, 0, 57, 32
2, 91688, Note_on_c, 0, 72, 0
2, 91814, Note_on_c, 0, 57, 0
2, 91874, Note_on_c, 0, 64, 45
2, 91942, Control_c, 0, 64, 0
2, 92096, Note_on_c, 0, 64, 0
2, 92108, Note_on_c, 0, 74, 48
2, 92318, Note_on_c, 0, 74, 0
2, 92336, Note_on_c, 0, 72, 36
2, 92616, Note_on_c, 0, 72, 0
2, 92626, Note_on_c, 0, 71, 40
2, 92638, Note_on_c, 0, 40, 37
2, 92772, Control_c, 0, 64, 127
2, 92794, Note_on_c, 0, 40, 0
2, 92904, Note_on_c, 0, 52, 53
2, 92930, Note_on_c, 0, 71, 0
2, 92956, Note_on_c, 0, 52, 0
2, 93108, Note_on_c, 0, 64, 61
2, 93156, Note_on_c, 0, 64, 0
2, 93322, Note_on_c, 0, 64, 82
2, 93400, Note_on_c, 0, 64, 0
2, 93528, Note_on_c, 0, 76, 64
2, 93640, Note_on_c, 0, 76, 0
2, 93750, Note_on_c, 0, 64, 54
2, 93814, Note_on_c, 0, 64, 0
2, 93934, Note_on_c, 0, 76, 79
2, 93974, Note_on_c, 0, 76, 0
2, 94138, Note_on_c, 0, 76, 75
2, 94280, Note_on_c, 0, 76, 0
2, 94324, Note_on_c, 0, 88, 72
2, 94508, Note_on_c, 0, 88, 0
2, 94524, Note_on_c, 0, 75, 76
2, 94692, Note_on_c, 0, 75, 0
2, 94732, Note_on_c, 0, 76, 85
2, 94852, Note_on_c, 0, 76, 0
2, 94900, Note_on_c, 0, 75, 88
2, 95014, Control_c, 0, 64, 0
2, 95104, Note_on_c, 0, 76, 87
2, 95116, Note_on_c, 0, 75, 0
2, 95300, Note_on_c, 0, 76, 0
2, 95308, Note_on_c, 0, 75, 80
2, 95496, Note_on_c, 0, 75, 0
2, 95506, Note_on_c, 0, 76, 80
2, 95634, Note_on_c, 0, 76, 0
2, 95662, Note_on_c, 0, 75, 67
2, 95856, Note_on_c, 0, 76, 70
2, 95880, Note_on_c, 0, 75, 0
2, 96042, Note_on_c, 0, 75, 63
2, 96062, Note_on_c, 0, 76, 0
2, 96256, Note_on_c, 0, 76, 53
2, 96266, Note_on_c, 0, 75, 0
2, 96458, Note_on_c, 0, 75, 45
2, 96470, Note_on_c, 0, 76, 0
2, 96694, Note_on_c, 0, 76, 54
2, 96698, Note_on_c, 0, 75, 0
2, 96898, Note_on_c, 0, 76, 0
2, 96900, Note_on_c, 0, 71, 48
2, 97102, Note_on_c, 0, 74, 47
2, 97114, Note_on_c, 0, 71, 0
2, 97296, Note_on_c, 0, 72, 44
2, 97299, Note_on_c, 0, 74, 0
2, 97508, Note_on_c, 0, 72, 0
2, 97524, Note_on_c, 0, 45, 26
2, 97524, Note_on_c, 0, 69, 29
2, 97642, Control_c, 0, 64, 127
2, 97726, Note_on_c, 0, 45, 0
2, 97746, Note_on_c, 0, 52, 33
2, 97790, Note_on_c, 0, 69, 0
2, 97864, Note_on_c, 0, 52, 0
2, 97936, Note_on_c, 0, 57, 31
2, 98120, Note_on_c, 0, 60, 46
2, 98142, Note_on_c, 0, 57, 0
2, 98242, Control_c, 0, 64, 0
2, 98310, Note_on_c, 0, 64, 55
2, 98322, Note_on_c, 0, 60, 0
2, 98500, Note_on_c, 0, 69, 48
2, 98536, Note_on_c, 0, 64, 0
2, 98718, Note_on_c, 0, 71, 65
2, 98728, Note_on_c, 0, 69, 0
2, 98728, Note_on_c, 0, 40, 52
2, 98842, Control_c, 0, 64, 127
2, 98862, Note_on_c, 0, 40, 0
2, 98918, Note_on_c, 0, 52, 65
2, 98980, Note_on_c, 0, 71, 0
2, 99088, Note_on_c, 0, 52, 0
2, 99112, Note_on_c, 0, 56, 55
2, 99292, Note_on_c, 0, 56, 0
2, 99310, Note_on_c, 0, 64, 69
2, 99332, Control_c, 0, 64, 0
2, 99498, Note_on_c, 0, 68, 52
2, 99542, Note_on_c, 0, 64, 0
2, 99698, Note_on_c, 0, 71, 64
2, 99722, Note_on_c, 0, 68, 0
2, 99928, Note_on_c, 0, 45, 28
2, 99930, Note_on_c, 0, 71, 0
2, 99930, Note_on_c, 0, 72, 54
2, 100070, Control_c, 0, 64, 127
2, 100142, Note_on_c, 0, 45, 0
2, 100146, Note_on_c, 0, 52, 41
2, 100208, Note_on_c, 0, 72, 0
2, 100240, Note_on_c, 0, 52, 0
2, 100326, Note_on_c, 0, 57, 25
2, 100478, Note_on_c, 0, 57, 0
2, 100524, Note_on_c, 0, 64, 51
2, 100608, Control_c, 0, 64, 0
2, 100722, Note_on_c, 0, 64, 0
2, 100742, Note_on_c, 0, 76, 57
2, 100938, Note_on_c, 0, 75, 60
2, 100952, Note_on_c, 0, 76, 0
2, 101140, Note_on_c, 0, 76, 74
2, 101152, Note_on_c, 0, 75, 0
2, 101332, Note_on_c, 0, 75, 65
2, 101354, Note_on_c, 0, 76, 0
2, 101542, Note_on_c, 0, 76, 53
2, 101554, Note_on_c, 0, 75, 0
2, 101738, Note_on_c, 0, 71, 59
2, 101740, Note_on_c, 0, 76, 0
2, 101924, Note_on_c, 0, 71, 0
2, 101948, Note_on_c, 0, 74, 53
2, 102148, Note_on_c, 0, 74, 0
2, 102151, Note_on_c, 0, 72, 48
2, 102396, Note_on_c, 0, 72, 0
2, 102408, Note_on_c, 0, 69, 32
2, 102408, Note_on_c, 0, 45, 26
2, 102574, Control_c, 0, 64, 127
2, 102644, Note_on_c, 0, 45, 0
2, 102664, Note_on_c, 0, 52, 36
2, 102686, Note_on_c, 0, 69, 0
2, 102814, Note_on_c, 0, 52, 0
2, 102848, Note_on_c, 0, 57, 24
2, 103018, Note_on_c, 0, 60, 40
2, 103050, Control_c, 0, 64, 0
2, 103086, Note_on_c, 0, 57, 0
2, 103218, Note_on_c, 0, 64, 47
2, 103228, Note_on_c, 0, 60, 0
2, 103412, Note_on_c, 0, 69, 32
2, 103426, Note_on_c, 0, 64, 0
2, 103646, Note_on_c, 0, 71, 40
2, 103656, Note_on_c, 0, 40, 34
2, 103678, Note_on_c, 0, 69, 0
2, 103748, Note_on_c, 0, 40, 0
2, 103804, Control_c, 0, 64, 127
2, 103854, Note_on_c, 0, 52, 46
2, 103948, Note_on_c, 0, 52, 0
2, 103968, Note_on_c, 0, 71, 0
2, 104054, Note_on_c, 0, 56, 37
2, 104246, Note_on_c, 0, 56, 0
2, 104264, Control_c, 0, 64, 0
2, 104286, Note_on_c, 0, 62, 39
2, 104520, Note_on_c, 0, 62, 0
2, 104538, Note_on_c, 0, 72, 33
2, 104770, Note_on_c, 0, 72, 0
2, 104782, Note_on_c, 0, 71, 45
2, 105070, Note_on_c, 0, 71, 0
2, 105094, Note_on_c, 0, 45, 37
2, 105108, Note_on_c, 0, 69, 25
2, 105248, Control_c, 0, 64, 127
2, 105262, Note_on_c, 0, 45, 0
2, 105388, Note_on_c, 0, 45, 34
2, 105514, Note_on_c, 0, 45, 0
2, 105620, Note_on_c, 0, 45, 46
2, 105726, Note_on_c, 0, 45, 0
2, 105822, Note_on_c, 0, 45, 49
2, 105916, Note_on_c, 0, 45, 0
2, 106026, Note_on_c, 0, 45, 52
2, 106052, Note_on_c, 0, 69, 0
2, 106104, Note_on_c, 0, 45, 0
2, 106216, Note_on_c, 0, 45, 48
2, 106286, Note_on_c, 0, 45, 0
2, 106416, Control_c, 0, 64, 0
2, 106424, Note_on_c, 0, 73, 76
2, 106431, Note_on_c, 0, 70, 51
2, 106441, Note_on_c, 0, 67, 37
2, 106442, Note_on_c, 0, 45, 41
2, 106451, Note_on_c, 0, 64, 28
2, 106526, Note_on_c, 0, 45, 0
2, 106616, Control_c, 0, 64, 127
2, 106630, Note_on_c, 0, 45, 47
2, 106730, Note_on_c, 0, 45, 0
2, 106850, Note_on_c, 0, 45, 51
2, 106936, Note_on_c, 0, 45, 0
2, 107078, Note_on_c, 0, 45, 36
2, 107158, Note_on_c, 0, 45, 0
2, 107288, Note_on_c, 0, 45, 34
2, 107368, Note_on_c, 0, 45, 0
2, 107476, Note_on_c, 0, 64, 0
2, 107488, Note_on_c, 0, 45, 46
2, 107552, Note_on_c, 0, 45, 0
2, 107610, Note_on_c, 0, 73, 0
2, 107677, Note_on_c, 0, 67, 0
2, 107690, Control_c, 0, 64, 0
2, 107696, Note_on_c, 0, 74, 84
2, 107712, Note_on_c, 0, 45, 42
2, 107712, Note_on_c, 0, 65, 55
2, 107712, Note_on_c, 0, 69, 37
2, 107737, Note_on_c, 0, 70, 0
2, 107792, Note_on_c, 0, 45, 0
2, 107886, Note_on_c, 0, 45, 51
2, 107890, Control_c, 0, 64, 127
2, 107986, Note_on_c, 0, 45, 0
2, 108070, Note_on_c, 0, 69, 0
2, 108090, Note_on_c, 0, 65, 0
2, 108112, Note_on_c, 0, 45, 46
2, 108194, Note_on_c, 0, 45, 0
2, 108366, Note_on_c, 0, 45, 45
2, 108446, Note_on_c, 0, 45, 0
2, 108446, Note_on_c, 0, 74, 0
2, 108586, Note_on_c, 0, 76, 83
2, 108600, Note_on_c, 0, 45, 44
2, 108605, Note_on_c, 0, 73, 55
2, 108674, Note_on_c, 0, 45, 0
2, 108682, Note_on_c, 0, 73, 0
2, 108756, Note_on_c, 0, 76, 0
2, 108780, Note_on_c, 0, 77, 97
2, 108792, Note_on_c, 0, 45, 45
2, 108795, Note_on_c, 0, 74, 87
2, 108850, Note_on_c, 0, 74, 0
2, 108858, Note_on_c, 0, 45, 0
2, 108890, Note_on_c, 0, 77, 0
2, 108950, Control_c, 0, 64, 0
2, 108976, Note_on_c, 0, 77, 79
2, 108984, Note_on_c, 0, 74, 86
2, 108987, Note_on_c, 0, 68, 78
2, 109008, Note_on_c, 0, 45, 49
2, 109090, Note_on_c, 0, 45, 0
2, 109166, Control_c, 0, 64, 127
2, 109190, Note_on_c, 0, 45, 40
2, 109290, Note_on_c, 0, 45, 0
2, 109462, Note_on_c, 0, 45, 40
2, 109540, Note_on_c, 0, 45, 0
2, 109618, Note_on_c, 0, 74, 0
2, 109680, Note_on_c, 0, 77, 0
2, 109712, Note_on_c, 0, 68, 0
2, 109716, Note_on_c, 0, 45, 37
2, 109792, Note_on_c, 0, 45, 0
2, 109906, Note_on_c, 0, 77, 79
2, 109906, Note_on_c, 0, 68, 60
2, 109924, Note_on_c, 0, 45, 40
2, 109926, Note_on_c, 0, 74, 57
2, 110000, Note_on_c, 0, 45, 0
2, 110094, Note_on_c, 0, 74, 0
2, 110102, Note_on_c, 0, 68, 0
2, 110128, Note_on_c, 0, 45, 38
2, 110208, Note_on_c, 0, 45, 0
2, 110304, Control_c, 0, 64, 0
2, 110328, Note_on_c, 0, 69, 48
2, 110330, Note_on_c, 0, 76, 74
2, 110338, Note_on_c, 0, 45, 49
2, 110341, Note_on_c, 0, 77, 0
2, 110341, Note_on_c, 0, 72, 45
2, 110438, Note_on_c, 0, 45, 0
2, 110534, Control_c, 0, 64, 127
2, 110534, Note_on_c, 0, 45, 49
2, 110638, Note_on_c, 0, 45, 0
2, 110726, Note_on_c, 0, 45, 60
2, 110818, Note_on_c, 0, 45, 0
2, 110930, Note_on_c, 0, 45, 52
2, 111022, Note_on_c, 0, 45, 0
2, 111130, Note_on_c, 0, 45, 47
2, 111212, Note_on_c, 0, 45, 0
2, 111212, Note_on_c, 0, 72, 0
2, 111218, Note_on_c, 0, 76, 0
2, 111278, Note_on_c, 0, 69, 0
2, 111346, Note_on_c, 0, 45, 60
2, 111404, Note_on_c, 0, 45, 0
2, 111532, Control_c, 0, 64, 0
2, 111552, Note_on_c, 0, 74, 98
2, 111557, Note_on_c, 0, 65, 72
2, 111572, Note_on_c, 0, 45, 59
2, 111582, Note_on_c, 0, 38, 59
2, 111652, Note_on_c, 0, 38, 0
2, 111658, Note_on_c, 0, 45, 0
2, 111732, Control_c, 0, 64, 127
2, 111758, Note_on_c, 0, 38, 53
2, 111764, Note_on_c, 0, 45, 48
2, 111838, Note_on_c, 0, 38, 0
2, 111841, Note_on_c, 0, 45, 0
2, 111996, Note_on_c, 0, 45, 31
2, 112002, Note_on_c, 0, 38, 46
2, 112076, Note_on_c, 0, 38, 0
2, 112088, Note_on_c, 0, 45, 0
2, 112244, Note_on_c, 0, 74, 0
2, 112248, Note_on_c, 0, 38, 54
2, 112266, Note_on_c, 0, 45, 26
2, 112278, Note_on_c, 0, 65, 0
2, 112318, Note_on_c, 0, 38, 0
2, 112344, Note_on_c, 0, 45, 0
2, 112442, Note_on_c, 0, 72, 74
2, 112448, Note_on_c, 0, 64, 62
2, 112462, Note_on_c, 0, 45, 25
2, 112465, Note_on_c, 0, 38, 62
2, 112520, Note_on_c, 0, 64, 0
2, 112530, Note_on_c, 0, 38, 0
2, 112540, Note_on_c, 0, 45, 0
2, 112548, Note_on_c, 0, 72, 0
2, 112648, Note_on_c, 0, 71, 94
2, 112662, Note_on_c, 0, 62, 72
2, 112668, Note_on_c, 0, 38, 75
2, 112690, Note_on_c, 0, 45, 29
2, 112726, Note_on_c, 0, 62, 0
2, 112754, Note_on_c, 0, 38, 0
2, 112768, Note_on_c, 0, 45, 0
2, 112824, Control_c, 0, 64, 0
2, 112874, Note_on_c, 0, 39, 83
2, 112874, Note_on_c, 0, 69, 76
2, 112880, Note_on_c, 0, 71, 0
2, 112884, Note_on_c, 0, 45, 32
2, 112888, Note_on_c, 0, 60, 60
2, 112888, Note_on_c, 0, 66, 28
2, 113006, Note_on_c, 0, 45, 0
2, 113072, Note_on_c, 0, 39, 0
2, 113116, Control_c, 0, 64, 127
2, 113144, Note_on_c, 0, 39, 82
2, 113164, Note_on_c, 0, 45, 37
2, 113234, Note_on_c, 0, 45, 0
2, 113252, Note_on_c, 0, 39, 0
2, 113348, Note_on_c, 0, 39, 51
2, 113358, Note_on_c, 0, 45, 26
2, 113438, Note_on_c, 0, 45, 0
2, 113454, Note_on_c, 0, 39, 0
2, 113522, Note_on_c, 0, 69, 0
2, 113558, Note_on_c, 0, 60, 0
2, 113570, Note_on_c, 0, 39, 55
2, 113570, Note_on_c, 0, 45, 41
2, 113584, Note_on_c, 0, 66, 0
2, 113644, Note_on_c, 0, 45, 0
2, 113670, Note_on_c, 0, 39, 0
2, 113780, Note_on_c, 0, 69, 72
2, 113782, Note_on_c, 0, 60, 67
2, 113796, Note_on_c, 0, 39, 54
2, 113798, Note_on_c, 0, 66, 42
2, 113800, Note_on_c, 0, 45, 33
2, 113868, Note_on_c, 0, 39, 0
2, 113880, Note_on_c, 0, 45, 0
2, 113982, Note_on_c, 0, 60, 0
2, 113990, Note_on_c, 0, 45, 33
2, 113994, Note_on_c, 0, 39, 62
2, 114022, Note_on_c, 0, 69, 0
2, 114062, Note_on_c, 0, 45, 0
2, 114082, Note_on_c, 0, 39, 0
2, 114190, Control_c, 0, 64, 0
2, 114202, Note_on_c, 0, 69, 76
2, 114210, Note_on_c, 0, 60, 65
2, 114216, Note_on_c, 0, 66, 0
2, 114220, Note_on_c, 0, 45, 62
2, 114222, Note_on_c, 0, 40, 82
2, 114298, Note_on_c, 0, 45, 0
2, 114303, Note_on_c, 0, 40, 0
2, 114402, Note_on_c, 0, 45, 46
2, 114418, Note_on_c, 0, 40, 74
2, 114421, Control_c, 0, 64, 127
2, 114496, Note_on_c, 0, 40, 0
2, 114500, Note_on_c, 0, 45, 0
2, 114558, Note_on_c, 0, 60, 0
2, 114620, Note_on_c, 0, 72, 70
2, 114636, Note_on_c, 0, 40, 53
2, 114636, Control_c, 0, 64, 0
2, 114642, Note_on_c, 0, 64, 55
2, 114648, Note_on_c, 0, 45, 28
2, 114702, Note_on_c, 0, 40, 0
2, 114706, Note_on_c, 0, 69, 0
2, 114728, Note_on_c, 0, 45, 0
2, 114804, Note_on_c, 0, 45, 49
2, 114804, Control_c, 0, 64, 127
2, 114818, Note_on_c, 0, 64, 0
2, 114836, Note_on_c, 0, 40, 47
2, 114880, Note_on_c, 0, 45, 0
2, 114904, Note_on_c, 0, 40, 0
2, 115036, Control_c, 0, 64, 0
2, 115048, Note_on_c, 0, 71, 63
2, 115072, Note_on_c, 0, 44, 54
2, 115072, Note_on_c, 0, 62, 38
2, 115075, Note_on_c, 0, 72, 0
2, 115075, Note_on_c, 0, 40, 63
2, 115136, Note_on_c, 0, 40, 0
2, 115144, Note_on_c, 0, 44, 0
2, 115236, Control_c, 0, 64, 127
2, 115258, Note_on_c, 0, 40, 46
2, 115288, Note_on_c, 0, 44, 42
2, 115332, Note_on_c, 0, 62, 0
2, 115354, Note_on_c, 0, 44, 0
2, 115418, Note_on_c, 0, 40, 0
2, 115512, Control_c, 0, 64, 0
2, 115540, Note_on_c, 0, 69, 40
2, 115542, Note_on_c, 0, 33, 34
2, 115550, Note_on_c, 0, 45, 46
2, 115554, Note_on_c, 0, 60, 33
2, 115588, Note_on_c, 0, 71, 0
2, 115662, Note_on_c, 0, 45, 0
2, 115758, Control_c, 0, 64, 127
2, 115816, Note_on_c, 0, 45, 40
2, 115834, Note_on_c, 0, 33, 0
2, 115902, Note_on_c, 0, 45, 0
2, 116022, Note_on_c, 0, 45, 34
2, 116090, Note_on_c, 0, 45, 0
2, 116246, Note_on_c, 0, 45, 45
2, 116310, Note_on_c, 0, 45, 0
2, 116318, Note_on_c, 0, 60, 0
2, 116428, Note_on_c, 0, 69, 0
2, 116440, Note_on_c, 0, 45, 45
2, 116516, Note_on_c, 0, 45, 0
2, 116654, Note_on_c, 0, 45, 52
2, 116716, Note_on_c, 0, 45, 0
2, 116864, Control_c, 0, 64, 0
2, 116894, Note_on_c, 0, 73, 88
2, 116908, Note_on_c, 0, 70, 60
2, 116912, Note_on_c, 0, 67, 62
2, 116912, Note_on_c, 0, 64, 70
2, 116924, Note_on_c, 0, 45, 56
2, 117032, Note_on_c, 0, 45, 0
2, 117094, Control_c, 0, 64, 127
2, 117168, Note_on_c, 0, 45, 40
2, 117240, Note_on_c, 0, 45, 0
2, 117408, Note_on_c, 0, 45, 51
2, 117474, Note_on_c, 0, 45, 0
2, 117614, Note_on_c, 0, 45, 54
2, 117648, Note_on_c, 0, 67, 0
2, 117682, Note_on_c, 0, 45, 0
2, 117822, Note_on_c, 0, 45, 61
2, 117872, Note_on_c, 0, 64, 0
2, 117886, Note_on_c, 0, 45, 0
2, 118040, Note_on_c, 0, 45, 69
2, 118094, Note_on_c, 0, 45, 0
2, 118246, Control_c, 0, 64, 0
2, 118256, Note_on_c, 0, 74, 103
2, 118262, Note_on_c, 0, 45, 64
2, 118268, Note_on_c, 0, 69, 57
2, 118270, Note_on_c, 0, 65, 59
2, 118304, Note_on_c, 0, 73, 0
2, 118326, Note_on_c, 0, 70, 0
2, 118366, Note_on_c, 0, 45, 0
2, 118444, Note_on_c, 0, 45, 59
2, 118462, Control_c, 0, 64, 127
2, 118540, Note_on_c, 0, 45, 0
2, 118626, Note_on_c, 0, 69, 0
2, 118660, Note_on_c, 0, 45, 47
2, 118700, Note_on_c, 0, 65, 0
2, 118726, Note_on_c, 0, 45, 0
2, 118884, Note_on_c, 0, 45, 67
2, 118944, Note_on_c, 0, 45, 0
2, 119072, Note_on_c, 0, 74, 0
2, 119080, Note_on_c, 0, 76, 88
2, 119096, Note_on_c, 0, 73, 72
2, 119108, Note_on_c, 0, 45, 63
2, 119164, Note_on_c, 0, 45, 0
2, 119244, Note_on_c, 0, 73, 0
2, 119276, Note_on_c, 0, 77, 105
2, 119279, Note_on_c, 0, 74, 90
2, 119296, Note_on_c, 0, 45, 42
2, 119324, Note_on_c, 0, 76, 0
2, 119356, Note_on_c, 0, 45, 0
2, 119364, Note_on_c, 0, 74, 0
2, 119414, Note_on_c, 0, 77, 0
2, 119476, Note_on_c, 0, 77, 107
2, 119488, Note_on_c, 0, 74, 98
2, 119492, Control_c, 0, 64, 0
2, 119494, Note_on_c, 0, 45, 62
2, 119576, Note_on_c, 0, 45, 0
2, 119680, Note_on_c, 0, 45, 55
2, 119706, Control_c, 0, 64, 127
2, 119770, Note_on_c, 0, 45, 0
2, 119902, Note_on_c, 0, 45, 59
2, 119948, Note_on_c, 0, 74, 0
2, 119970, Note_on_c, 0, 45, 0
2, 120038, Note_on_c, 0, 77, 0
2, 120124, Note_on_c, 0, 45, 76
2, 120196, Note_on_c, 0, 45, 0
2, 120338, Note_on_c, 0, 77, 105
2, 120342, Note_on_c, 0, 74, 94
2, 120344, Note_on_c, 0, 45, 84
2, 120432, Note_on_c, 0, 45, 0
2, 120516, Note_on_c, 0, 74, 0
2, 120572, Note_on_c, 0, 45, 72
2, 120606, Note_on_c, 0, 77, 0
2, 120680, Note_on_c, 0, 45, 0
2, 120894, Note_on_c, 0, 77, 100
2, 120898, Note_on_c, 0, 46, 93
2, 120902, Note_on_c, 0, 74, 88
2, 120920, Control_c, 0, 64, 0
2, 121154, Note_on_c, 0, 46, 0
2, 121166, Control_c, 0, 64, 127
2, 121218, Note_on_c, 0, 46, 71
2, 121350, Note_on_c, 0, 46, 0
2, 121438, Note_on_c, 0, 46, 62
2, 121566, Note_on_c, 0, 46, 0
2, 121658, Note_on_c, 0, 46, 54
2, 121774, Note_on_c, 0, 46, 0
2, 121882, Note_on_c, 0, 46, 47
2, 121988, Note_on_c, 0, 46, 0
2, 122006, Note_on_c, 0, 74, 0
2, 122132, Note_on_c, 0, 46, 56
2, 122202, Note_on_c, 0, 77, 0
2, 122214, Note_on_c, 0, 46, 0
2, 122406, Note_on_c, 0, 75, 82
2, 122416, Note_on_c, 0, 67, 63
2, 122426, Control_c, 0, 64, 0
2, 122428, Note_on_c, 0, 46, 52
2, 122590, Note_on_c, 0, 46, 0
2, 122642, Control_c, 0, 64, 127
2, 122668, Note_on_c, 0, 46, 55
2, 122784, Note_on_c, 0, 46, 0
2, 122900, Note_on_c, 0, 46, 48
2, 122992, Note_on_c, 0, 46, 0
2, 123146, Note_on_c, 0, 46, 38
2, 123212, Note_on_c, 0, 75, 0
2, 123226, Note_on_c, 0, 46, 0
2, 123282, Note_on_c, 0, 67, 0
2, 123340, Note_on_c, 0, 74, 80
2, 123346, Note_on_c, 0, 46, 49
2, 123350, Note_on_c, 0, 65, 56
2, 123390, Note_on_c, 0, 74, 0
2, 123404, Note_on_c, 0, 65, 0
2, 123442, Note_on_c, 0, 46, 0
2, 123558, Note_on_c, 0, 72, 80
2, 123574, Note_on_c, 0, 46, 51
2, 123582, Note_on_c, 0, 63, 54
2, 123638, Note_on_c, 0, 63, 0
2, 123654, Note_on_c, 0, 46, 0
2, 123736, Note_on_c, 0, 72, 0
2, 123748, Control_c, 0, 64, 0
2, 123784, Note_on_c, 0, 70, 75
2, 123790, Note_on_c, 0, 46, 55
2, 123808, Note_on_c, 0, 62, 54
2, 123814, Note_on_c, 0, 65, 16
2, 123898, Note_on_c, 0, 46, 0
2, 123978, Control_c, 0, 64, 127
2, 123998, Note_on_c, 0, 46, 46
2, 124098, Note_on_c, 0, 46, 0
2, 124200, Note_on_c, 0, 65, 0
2, 124218, Note_on_c, 0, 62, 0
2, 124222, Note_on_c, 0, 46, 42
2, 124316, Note_on_c, 0, 46, 0
2, 124476, Note_on_c, 0, 46, 44
2, 124558, Note_on_c, 0, 46, 0
2, 124582, Note_on_c, 0, 70, 0
2, 124694, Note_on_c, 0, 69, 52
2, 124704, Note_on_c, 0, 65, 39
2, 124710, Note_on_c, 0, 62, 37
2, 124718, Note_on_c, 0, 46, 34
2, 124794, Note_on_c, 0, 46, 0
2, 124901, Note_on_c, 0, 65, 0
2, 124908, Note_on_c, 0, 62, 0
2, 124948, Note_on_c, 0, 46, 33
2, 125010, Note_on_c, 0, 69, 0
2, 125030, Note_on_c, 0, 46, 0
2, 125160, Control_c, 0, 64, 0
2, 125180, Note_on_c, 0, 68, 51
2, 125190, Note_on_c, 0, 47, 54
2, 125206, Note_on_c, 0, 65, 16
2, 125214, Note_on_c, 0, 62, 24
2, 125330, Note_on_c, 0, 47, 0
2, 125408, Control_c, 0, 64, 127
2, 125442, Note_on_c, 0, 47, 42
2, 125548, Note_on_c, 0, 47, 0
2, 125562, Note_on_c, 0, 65, 0
2, 125680, Note_on_c, 0, 47, 32
2, 125692, Note_on_c, 0, 62, 0
2, 125748, Note_on_c, 0, 68, 0
2, 125766, Note_on_c, 0, 47, 0
2, 125926, Note_on_c, 0, 47, 40
2, 126010, Note_on_c, 0, 47, 0
2, 126188, Note_on_c, 0, 68, 34
2, 126194, Note_on_c, 0, 47, 42
2, 126200, Note_on_c, 0, 62, 31
2, 126206, Note_on_c, 0, 65, 29
2, 126282, Note_on_c, 0, 47, 0
2, 126322, Note_on_c, 0, 65, 0
2, 126430, Note_on_c, 0, 62, 0
2, 126484, Note_on_c, 0, 47, 31
2, 126574, Note_on_c, 0, 47, 0
2, 126906, Note_on_c, 0, 69, 26
2, 126926, Note_on_c, 0, 48, 17
2, 126928, Control_c, 0, 64, 0
2, 126930, Note_on_c, 0, 60, 22
2, 126936, Note_on_c, 0, 64, 24
2, 127070, Note_on_c, 0, 68, 0
2, 127450, Control_c, 0, 64, 127
2, 127740, Note_on_c, 0, 64, 0
2, 127764, Note_on_c, 0, 69, 0
2, 127767, Note_on_c, 0, 60, 0
2, 127792, Note_on_c, 0, 48, 0
2, 127926, Control_c, 0, 64, 0
2, 128632, Note_on_c, 0, 71, 37
2, 128632, Control_c, 0, 64, 127
2, 128640, Note_on_c, 0, 56, 26
2, 128646, Note_on_c, 0, 52, 28
2, 128648, Note_on_c, 0, 64, 21
2, 128862, Note_on_c, 0, 52, 0
2, 128912, Note_on_c, 0, 64, 0
2, 128956, Note_on_c, 0, 56, 0
2, 129024, Note_on_c, 0, 71, 0
2, 129678, Control_c, 0, 64, 0
2, 130254, Note_on_c, 0, 33, 26
2, 130264, Note_on_c, 0, 57, 30
2, 130268, Note_on_c, 0, 45, 32
2, 130324, Control_c, 0, 64, 127
2, 130396, Note_on_c, 0, 57, 0
2, 130402, Note_on_c, 0, 45, 0
2, 130430, Note_on_c, 0, 60, 38
2, 130476, Note_on_c, 0, 33, 0
2, 130538, Note_on_c, 0, 60, 0
2, 130594, Note_on_c, 0, 64, 44
2, 130656, Note_on_c, 0, 64, 0
2, 130734, Note_on_c, 0, 69, 40
2, 130834, Note_on_c, 0, 69, 0
2, 130874, Note_on_c, 0, 72, 38
2, 131018, Note_on_c, 0, 72, 0
2, 131021, Note_on_c, 0, 76, 49
2, 131138, Control_c, 0, 64, 0
2, 131172, Note_on_c, 0, 60, 38
2, 131172, Note_on_c, 0, 74, 70
2, 131175, Note_on_c, 0, 76, 0
2, 131179, Note_on_c, 0, 64, 32
2, 131212, Note_on_c, 0, 57, 13
2, 131308, Note_on_c, 0, 72, 61
2, 131322, Note_on_c, 0, 74, 0
2, 131332, Note_on_c, 0, 64, 0
2, 131338, Note_on_c, 0, 57, 0
2, 131340, Note_on_c, 0, 60, 0
2, 131368, Control_c, 0, 64, 127
2, 131414, Note_on_c, 0, 72, 0
2, 131429, Note_on_c, 0, 71, 77
2, 131542, Note_on_c, 0, 71, 0
2, 131554, Control_c, 0, 64, 0
2, 131568, Note_on_c, 0, 69, 64
2, 131590, Note_on_c, 0, 57, 39
2, 131590, Note_on_c, 0, 60, 38
2, 131596, Note_on_c, 0, 64, 44
2, 131696, Note_on_c, 0, 69, 0
2, 131712, Note_on_c, 0, 72, 67
2, 131738, Note_on_c, 0, 64, 0
2, 131748, Note_on_c, 0, 57, 0
2, 131760, Control_c, 0, 64, 127
2, 131774, Note_on_c, 0, 60, 0
2, 131836, Note_on_c, 0, 72, 0
2, 131839, Note_on_c, 0, 76, 72
2, 131880, Note_on_c, 0, 76, 0
2, 131974, Note_on_c, 0, 81, 91
2, 132102, Note_on_c, 0, 84, 98
2, 132114, Note_on_c, 0, 81, 0
2, 132238, Note_on_c, 0, 88, 86
2, 132258, Note_on_c, 0, 84, 0
2, 132322, Control_c, 0, 64, 0
2, 132378, Note_on_c, 0, 86, 95
2, 132400, Note_on_c, 0, 64, 48
2, 132406, Note_on_c, 0, 60, 38
2, 132410, Note_on_c, 0, 57, 33
2, 132430, Note_on_c, 0, 88, 0
2, 132494, Note_on_c, 0, 64, 0
2, 132500, Note_on_c, 0, 57, 0
2, 132502, Note_on_c, 0, 60, 0
2, 132504, Note_on_c, 0, 84, 102
2, 132548, Note_on_c, 0, 86, 0
2, 132552, Control_c, 0, 64, 127
2, 132630, Note_on_c, 0, 83, 109
2, 132644, Note_on_c, 0, 84, 0
2, 132736, Control_c, 0, 64, 0
2, 132744, Note_on_c, 0, 83, 0
2, 132762, Note_on_c, 0, 81, 85
2, 132804, Note_on_c, 0, 57, 40
2, 132808, Note_on_c, 0, 64, 41
2, 132810, Note_on_c, 0, 60, 32
2, 132912, Note_on_c, 0, 81, 0
2, 132914, Note_on_c, 0, 84, 77
2, 132920, Control_c, 0, 64, 127
2, 132936, Note_on_c, 0, 64, 0
2, 132960, Note_on_c, 0, 60, 0
2, 132970, Note_on_c, 0, 57, 0
2, 133028, Note_on_c, 0, 88, 77
2, 133038, Note_on_c, 0, 84, 0
2, 133070, Note_on_c, 0, 88, 0
2, 133186, Note_on_c, 0, 93, 80
2, 133324, Note_on_c, 0, 96, 79
2, 133328, Note_on_c, 0, 93, 0
2, 133462, Note_on_c, 0, 100, 63
2, 133470, Note_on_c, 0, 96, 0
2, 133550, Control_c, 0, 64, 0
2, 133634, Note_on_c, 0, 98, 78
2, 133637, Note_on_c, 0, 100, 0
2, 133644, Note_on_c, 0, 57, 28
2, 133648, Note_on_c, 0, 60, 28
2, 133654, Note_on_c, 0, 64, 28
2, 133786, Note_on_c, 0, 60, 0
2, 133794, Note_on_c, 0, 98, 0
2, 133796, Control_c, 0, 64, 127
2, 133798, Note_on_c, 0, 96, 62
2, 133806, Note_on_c, 0, 64, 0
2, 133828, Note_on_c, 0, 57, 0
2, 133918, Note_on_c, 0, 96, 0
2, 133946, Note_on_c, 0, 95, 51
2, 134104, Note_on_c, 0, 94, 40
2, 134112, Note_on_c, 0, 60, 23
2, 134118, Control_c, 0, 64, 0
2, 134126, Note_on_c, 0, 64, 30
2, 134134, Note_on_c, 0, 57, 22
2, 134144, Note_on_c, 0, 95, 0
2, 134260, Note_on_c, 0, 93, 46
2, 134286, Note_on_c, 0, 94, 0
2, 134334, Control_c, 0, 64, 127
2, 134346, Note_on_c, 0, 64, 0
2, 134406, Note_on_c, 0, 92, 49
2, 134408, Note_on_c, 0, 60, 0
2, 134412, Note_on_c, 0, 93, 0
2, 134422, Note_on_c, 0, 57, 0
2, 134532, Note_on_c, 0, 92, 0
2, 134552, Note_on_c, 0, 91, 57
2, 134664, Note_on_c, 0, 90, 64
2, 134684, Note_on_c, 0, 91, 0
2, 134808, Note_on_c, 0, 89, 68
2, 134818, Note_on_c, 0, 90, 0
2, 134926, Note_on_c, 0, 89, 0
2, 134926, Note_on_c, 0, 88, 69
2, 135044, Note_on_c, 0, 87, 64
2, 135072, Note_on_c, 0, 88, 0
2, 135086, Control_c, 0, 64, 0
2, 135166, Note_on_c, 0, 86, 72
2, 135218, Note_on_c, 0, 87, 0
2, 135292, Note_on_c, 0, 85, 70
2, 135306, Note_on_c, 0, 86, 0
2, 135418, Note_on_c, 0, 84, 80
2, 135432, Note_on_c, 0, 85, 0
2, 135538, Note_on_c, 0, 83, 101
2, 135580, Note_on_c, 0, 84, 0
2, 135662, Note_on_c, 0, 82, 67
2, 135674, Note_on_c, 0, 83, 0
2, 135798, Note_on_c, 0, 81, 68
2, 135801, Note_on_c, 0, 82, 0
2, 135916, Note_on_c, 0, 80, 70
2, 135940, Note_on_c, 0, 81, 0
2, 136054, Note_on_c, 0, 79, 68
2, 136100, Note_on_c, 0, 80, 0
2, 136182, Note_on_c, 0, 79, 0
2, 136182, Note_on_c, 0, 78, 61
2, 136330, Note_on_c, 0, 78, 0
2, 136340, Note_on_c, 0, 77, 61
2, 136534, Note_on_c, 0, 76, 45
2, 136566, Note_on_c, 0, 77, 0
2, 136810, Note_on_c, 0, 75, 54
2, 136842, Note_on_c, 0, 76, 0
2, 137066, Note_on_c, 0, 76, 59
2, 137088, Note_on_c, 0, 75, 0
2, 137278, Note_on_c, 0, 71, 62
2, 137310, Note_on_c, 0, 76, 0
2, 137504, Note_on_c, 0, 74, 57
2, 137507, Note_on_c, 0, 71, 0
2, 137710, Note_on_c, 0, 72, 48
2, 137732, Note_on_c, 0, 74, 0
2, 137956, Note_on_c, 0, 72, 0
2, 137970, Note_on_c, 0, 45, 28
2, 137970, Note_on_c, 0, 69, 36
2, 138144, Control_c, 0, 64, 127
2, 138208, Note_on_c, 0, 52, 41
2, 138228, Note_on_c, 0, 45, 0
2, 138254, Note_on_c, 0, 69, 0
2, 138314, Note_on_c, 0, 52, 0
2, 138422, Note_on_c, 0, 57, 34
2, 138602, Note_on_c, 0, 60, 47
2, 138668, Note_on_c, 0, 57, 0
2, 138774, Control_c, 0, 64, 0
2, 138788, Note_on_c, 0, 64, 54
2, 138790, Note_on_c, 0, 60, 0
2, 138990, Note_on_c, 0, 69, 41
2, 139010, Note_on_c, 0, 64, 0
2, 139214, Note_on_c, 0, 71, 56
2, 139224, Note_on_c, 0, 40, 37
2, 139238, Note_on_c, 0, 69, 0
2, 139358, Note_on_c, 0, 40, 0
2, 139372, Control_c, 0, 64, 127
2, 139426, Note_on_c, 0, 52, 52
2, 139516, Note_on_c, 0, 52, 0
2, 139576, Note_on_c, 0, 71, 0
2, 139634, Note_on_c, 0, 56, 45
2, 139836, Note_on_c, 0, 56, 0
2, 139844, Note_on_c, 0, 64, 53
2, 139880, Control_c, 0, 64, 0
2, 140026, Note_on_c, 0, 68, 45
2, 140044, Note_on_c, 0, 64, 0
2, 140238, Note_on_c, 0, 71, 46
2, 140268, Note_on_c, 0, 68, 0
2, 140482, Note_on_c, 0, 45, 19
2, 140488, Note_on_c, 0, 71, 0
2, 140491, Note_on_c, 0, 72, 29
2, 140664, Control_c, 0, 64, 127
2, 140696, Note_on_c, 0, 45, 0
2, 140744, Note_on_c, 0, 52, 38
2, 140826, Note_on_c, 0, 52, 0
2, 140886, Note_on_c, 0, 72, 0
2, 140978, Note_on_c, 0, 57, 24
2, 141160, Note_on_c, 0, 64, 48
2, 141200, Note_on_c, 0, 57, 0
2, 141326, Note_on_c, 0, 64, 0
2, 141374, Note_on_c, 0, 76, 57
2, 141386, Control_c, 0, 64, 0
2, 141568, Note_on_c, 0, 75, 62
2, 141578, Note_on_c, 0, 76, 0
2, 141794, Note_on_c, 0, 76, 77
2, 141798, Note_on_c, 0, 75, 0
2, 141984, Note_on_c, 0, 75, 57
2, 141996, Note_on_c, 0, 76, 0
2, 142212, Note_on_c, 0, 76, 61
2, 142215, Note_on_c, 0, 75, 0
2, 142414, Note_on_c, 0, 76, 0
2, 142428, Note_on_c, 0, 71, 40
2, 142626, Note_on_c, 0, 71, 0
2, 142642, Note_on_c, 0, 74, 46
2, 142858, Note_on_c, 0, 72, 42
2, 142870, Note_on_c, 0, 74, 0
2, 143108, Note_on_c, 0, 72, 0
2, 143114, Note_on_c, 0, 69, 29
2, 143130, Note_on_c, 0, 45, 25
2, 143276, Control_c, 0, 64, 127
2, 143344, Note_on_c, 0, 45, 0
2, 143370, Note_on_c, 0, 52, 31
2, 143382, Note_on_c, 0, 69, 0
2, 143570, Note_on_c, 0, 52, 0
2, 143572, Note_on_c, 0, 57, 33
2, 143762, Note_on_c, 0, 60, 44
2, 143840, Note_on_c, 0, 57, 0
2, 143922, Control_c, 0, 64, 0
2, 143942, Note_on_c, 0, 60, 0
2, 143958, Note_on_c, 0, 64, 45
2, 144128, Note_on_c, 0, 64, 0
2, 144148, Note_on_c, 0, 69, 29
2, 144384, Note_on_c, 0, 71, 42
2, 144387, Note_on_c, 0, 40, 44
2, 144418, Note_on_c, 0, 69, 0
2, 144494, Note_on_c, 0, 40, 0
2, 144536, Control_c, 0, 64, 127
2, 144594, Note_on_c, 0, 52, 39
2, 144670, Note_on_c, 0, 71, 0
2, 144712, Note_on_c, 0, 52, 0
2, 144766, Note_on_c, 0, 56, 22
2, 144938, Note_on_c, 0, 56, 0
2, 144986, Note_on_c, 0, 62, 45
2, 144996, Control_c, 0, 64, 0
2, 145164, Note_on_c, 0, 62, 0
2, 145208, Note_on_c, 0, 72, 40
2, 145420, Note_on_c, 0, 72, 0
2, 145423, Note_on_c, 0, 71, 44
2, 145670, Note_on_c, 0, 71, 0
2, 145674, Note_on_c, 0, 45, 21
2, 145680, Note_on_c, 0, 69, 30
2, 145826, Control_c, 0, 64, 127
2, 145886, Note_on_c, 0, 45, 0
2, 145946, Note_on_c, 0, 52, 34
2, 146060, Note_on_c, 0, 52, 0
2, 146102, Note_on_c, 0, 69, 0
2, 146236, Note_on_c, 0, 57, 34
2, 146330, Note_on_c, 0, 57, 0
2, 146476, Note_on_c, 0, 71, 65
2, 146534, Control_c, 0, 64, 0
2, 146674, Note_on_c, 0, 72, 70
2, 146728, Note_on_c, 0, 71, 0
2, 146896, Note_on_c, 0, 74, 78
2, 146924, Note_on_c, 0, 72, 0
2, 147130, Note_on_c, 0, 76, 65
2, 147136, Note_on_c, 0, 48, 31
2, 147142, Note_on_c, 0, 74, 0
2, 147332, Control_c, 0, 64, 127
2, 147352, Note_on_c, 0, 55, 48
2, 147440, Note_on_c, 0, 48, 0
2, 147556, Note_on_c, 0, 55, 0
2, 147576, Note_on_c, 0, 60, 47
2, 147758, Note_on_c, 0, 67, 69
2, 147812, Note_on_c, 0, 76, 0
2, 147816, Note_on_c, 0, 60, 0
2, 147900, Control_c, 0, 64, 0
2, 147978, Note_on_c, 0, 67, 0
2, 147984, Note_on_c, 0, 77, 88
2, 148184, Note_on_c, 0, 76, 77
2, 148242, Note_on_c, 0, 77, 0
2, 148396, Note_on_c, 0, 74, 75
2, 148410, Note_on_c, 0, 76, 0
2, 148414, Note_on_c, 0, 43, 38
2, 148560, Note_on_c, 0, 43, 0
2, 148562, Control_c, 0, 64, 127
2, 148602, Note_on_c, 0, 55, 55
2, 148704, Note_on_c, 0, 55, 0
2, 148750, Note_on_c, 0, 74, 0
2, 148818, Note_on_c, 0, 59, 56
2, 149012, Note_on_c, 0, 59, 0
2, 149022, Note_on_c, 0, 65, 55
2, 149114, Control_c, 0, 64, 0
2, 149242, Note_on_c, 0, 65, 0
2, 149264, Note_on_c, 0, 76, 54
2, 149480, Note_on_c, 0, 74, 59
2, 149492, Note_on_c, 0, 76, 0
2, 149730, Note_on_c, 0, 72, 52
2, 149735, Note_on_c, 0, 45, 26
2, 149744, Note_on_c, 0, 74, 0
2, 149944, Control_c, 0, 64, 127
2, 149966, Note_on_c, 0, 52, 42
2, 150024, Note_on_c, 0, 45, 0
2, 150162, Note_on_c, 0, 52, 0
2, 150182, Note_on_c, 0, 57, 34
2, 150188, Note_on_c, 0, 72, 0
2, 150412, Note_on_c, 0, 64, 41
2, 150442, Note_on_c, 0, 57, 0
2, 150468, Control_c, 0, 64, 0
2, 150612, Note_on_c, 0, 64, 0
2, 150642, Note_on_c, 0, 74, 46
2, 150852, Note_on_c, 0, 74, 0
2, 150860, Note_on_c, 0, 72, 39
2, 151124, Note_on_c, 0, 72, 0
2, 151130, Note_on_c, 0, 71, 41
2, 151140, Note_on_c, 0, 40, 45
2, 151290, Note_on_c, 0, 40, 0
2, 151312, Control_c, 0, 64, 127
2, 151418, Note_on_c, 0, 52, 56
2, 151464, Note_on_c, 0, 71, 0
2, 151470, Note_on_c, 0, 52, 0
2, 151626, Note_on_c, 0, 64, 62
2, 151670, Note_on_c, 0, 64, 0
2, 151836, Note_on_c, 0, 64, 71
2, 151970, Note_on_c, 0, 64, 0
2, 152038, Note_on_c, 0, 76, 74
2, 152146, Note_on_c, 0, 76, 0
2, 152242, Note_on_c, 0, 64, 78
2, 152382, Note_on_c, 0, 64, 0
2, 152452, Note_on_c, 0, 76, 77
2, 152516, Note_on_c, 0, 76, 0
2, 152654, Note_on_c, 0, 76, 78
2, 152680, Control_c, 0, 64, 0
2, 152832, Note_on_c, 0, 76, 0
2, 152866, Note_on_c, 0, 88, 64
2, 153086, Note_on_c, 0, 75, 61
2, 153110, Note_on_c, 0, 88, 0
2, 153110, Control_c, 0, 64, 127
2, 153140, Control_c, 0, 64, 0
2, 153252, Note_on_c, 0, 75, 0
2, 153310, Note_on_c, 0, 76, 70
2, 153488, Note_on_c, 0, 76, 0
2, 153504, Note_on_c, 0, 75, 68
2, 153710, Note_on_c, 0, 76, 72
2, 153722, Note_on_c, 0, 75, 0
2, 153908, Note_on_c, 0, 76, 0
2, 153922, Note_on_c, 0, 75, 63
2, 154132, Note_on_c, 0, 75, 0
2, 154132, Note_on_c, 0, 76, 63
2, 154278, Note_on_c, 0, 76, 0
2, 154300, Note_on_c, 0, 75, 53
2, 154498, Note_on_c, 0, 76, 68
2, 154504, Note_on_c, 0, 75, 0
2, 154696, Note_on_c, 0, 75, 67
2, 154714, Note_on_c, 0, 76, 0
2, 154926, Note_on_c, 0, 76, 68
2, 154938, Note_on_c, 0, 75, 0
2, 155114, Note_on_c, 0, 75, 62
2, 155128, Note_on_c, 0, 76, 0
2, 155332, Note_on_c, 0, 76, 62
2, 155342, Note_on_c, 0, 75, 0
2, 155536, Note_on_c, 0, 71, 52
2, 155542, Note_on_c, 0, 76, 0
2, 155734, Note_on_c, 0, 71, 0
2, 155748, Note_on_c, 0, 74, 49
2, 155948, Note_on_c, 0, 72, 48
2, 155958, Note_on_c, 0, 74, 0
2, 156184, Note_on_c, 0, 72, 0
2, 156196, Note_on_c, 0, 69, 32
2, 156204, Note_on_c, 0, 45, 31
2, 156326, Note_on_c, 0, 45, 0
2, 156366, Control_c, 0, 64, 127
2, 156430, Note_on_c, 0, 52, 31
2, 156528, Note_on_c, 0, 69, 0
2, 156570, Note_on_c, 0, 52, 0
2, 156644, Note_on_c, 0, 57, 18
2, 156790, Note_on_c, 0, 57, 0
2, 156828, Note_on_c, 0, 60, 41
2, 156952, Control_c, 0, 64, 0
2, 157028, Note_on_c, 0, 64, 51
2, 157050, Note_on_c, 0, 60, 0
2, 157224, Note_on_c, 0, 69, 36
2, 157242, Note_on_c, 0, 64, 0
2, 157454, Note_on_c, 0, 71, 45
2, 157472, Note_on_c, 0, 69, 0
2, 157472, Note_on_c, 0, 40, 29
2, 157590, Note_on_c, 0, 40, 0
2, 157595, Control_c, 0, 64, 127
2, 157662, Note_on_c, 0, 52, 53
2, 157752, Note_on_c, 0, 71, 0
2, 157804, Note_on_c, 0, 52, 0
2, 157854, Note_on_c, 0, 56, 48
2, 157966, Control_c, 0, 64, 0
2, 158050, Note_on_c, 0, 56, 0
2, 158060, Note_on_c, 0, 64, 60
2, 158264, Note_on_c, 0, 68, 45
2, 158304, Note_on_c, 0, 64, 0
2, 158468, Note_on_c, 0, 71, 49
2, 158508, Note_on_c, 0, 68, 0
2, 158710, Note_on_c, 0, 71, 0
2, 158710, Note_on_c, 0, 72, 36
2, 158724, Note_on_c, 0, 45, 21
2, 158872, Control_c, 0, 64, 127
2, 158912, Note_on_c, 0, 45, 0
2, 158940, Note_on_c, 0, 52, 36
2, 159048, Note_on_c, 0, 52, 0
2, 159142, Note_on_c, 0, 72, 0
2, 159170, Note_on_c, 0, 57, 22
2, 159382, Note_on_c, 0, 64, 39
2, 159458, Note_on_c, 0, 57, 0
2, 159518, Control_c, 0, 64, 0
2, 159574, Note_on_c, 0, 64, 0
2, 159614, Note_on_c, 0, 76, 47
2, 159810, Note_on_c, 0, 75, 63
2, 159822, Note_on_c, 0, 76, 0
2, 160030, Note_on_c, 0, 76, 72
2, 160052, Note_on_c, 0, 75, 0
2, 160214, Note_on_c, 0, 76, 0
2, 160226, Note_on_c, 0, 75, 59
2, 160472, Note_on_c, 0, 76, 48
2, 160478, Note_on_c, 0, 75, 0
2, 160516, Control_c, 0, 64, 127
2, 160640, Control_c, 0, 64, 0
2, 160664, Note_on_c, 0, 76, 0
2, 160696, Note_on_c, 0, 71, 32
2, 160898, Note_on_c, 0, 71, 0
2, 160900, Note_on_c, 0, 74, 40
2, 161112, Note_on_c, 0, 72, 40
2, 161122, Note_on_c, 0, 74, 0
2, 161364, Note_on_c, 0, 69, 31
2, 161370, Note_on_c, 0, 72, 0
2, 161384, Note_on_c, 0, 45, 15
2, 161468, Control_c, 0, 64, 127
2, 161598, Note_on_c, 0, 45, 0
2, 161620, Note_on_c, 0, 52, 32
2, 161646, Note_on_c, 0, 69, 0
2, 161756, Note_on_c, 0, 52, 0
2, 161830, Note_on_c, 0, 57, 29
2, 162024, Note_on_c, 0, 57, 0
2, 162048, Note_on_c, 0, 60, 38
2, 162114, Control_c, 0, 64, 0
2, 162266, Note_on_c, 0, 64, 44
2, 162300, Note_on_c, 0, 60, 0
2, 162488, Note_on_c, 0, 69, 30
2, 162500, Note_on_c, 0, 64, 0
2, 162778, Note_on_c, 0, 71, 37
2, 162788, Note_on_c, 0, 40, 44
2, 162800, Note_on_c, 0, 69, 0
2, 162944, Control_c, 0, 64, 127
2, 162947, Note_on_c, 0, 40, 0
2, 163096, Note_on_c, 0, 52, 36
2, 163194, Note_on_c, 0, 52, 0
2, 163310, Note_on_c, 0, 56, 39
2, 163406, Note_on_c, 0, 71, 0
2, 163434, Control_c, 0, 64, 0
2, 163580, Note_on_c, 0, 62, 49
2, 163726, Note_on_c, 0, 56, 0
2, 163938, Note_on_c, 0, 62, 0
2, 163956, Note_on_c, 0, 72, 40
2, 164304, Note_on_c, 0, 71, 44
2, 164364, Note_on_c, 0, 72, 0
2, 165004, Note_on_c, 0, 69, 17
2, 165006, Note_on_c, 0, 33, 25
2, 165006, Note_on_c, 0, 45, 25
2, 165130, Note_on_c, 0, 71, 0
2, 165432, Control_c, 0, 64, 127
2, 167696, Note_on_c, 0, 45, 0
2, 167696, Note_on_c, 0, 33, 0
2, 167722, Control_c, 0, 64, 0
2, 167742, Note_on_c, 0, 69, 0
2, 168960, Control_c, 0, 64, 0
2, 168960, End_track
0, 0, End_of_file
