0, 0, Header, 1, 5, 480
1, 0, Start_track
1, 0, Title_t, "Untitled"
1, 0, Time_signature, 4, 2, 24, 8
1, 0, Key_signature, 0, "major"
1, 0, Tempo, 600000
1, 0, Marker_t, "Beethoven"
1, 1440, Tempo, 810811
1, 1680, Tempo, 821918
1, 1920, Tempo, 789474
1, 1920, Marker_t, "Ich denke dein"
1, 2840, Tempo, 810811
1, 2880, Tempo, 789474
1, 3720, Tempo, 810811
1, 3840, Tempo, 789474
1, 3840, Marker_t, "Bunji Hisamori"
1, 4760, Tempo, 810811
1, 4800, Tempo, 789474
1, 5640, Tempo, 810811
1, 5760, Tempo, 789474
1, 5760, Marker_t, "July 1998"
1, 6680, Tempo, 810811
1, 6720, Tempo, 789474
1, 7560, Tempo, 810811
1, 7680, Tempo, 789474
1, 8580, Tempo, 810811
1, 8700, Tempo, 789474
1, 9480, Tempo, 810811
1, 9600, Tempo, 789474
1, 10260, Tempo, 810811
1, 10500, Tempo, 821918
1, 10575, Tempo, 789474
1, 11400, Tempo, 821918
1, 11745, Tempo, 810811
1, 12440, Tempo, 810811
1, 12480, Tempo, 789474
1, 12660, Tempo, 821918
1, 12780, Tempo, 810811
1, 13200, Tempo, 821918
1, 13440, Tempo, 789474
1, 14360, Tempo, 810811
1, 14400, Tempo, 789474
1, 15240, Tempo, 810811
1, 15360, Tempo, 789474
1, 16280, Tempo, 810811
1, 16320, Tempo, 789474
1, 17160, Tempo, 810811
1, 17280, Tempo, 789474
1, 19080, Tempo, 810811
1, 19200, Tempo, 789474
1, 20120, Tempo, 810811
1, 20160, Tempo, 789474
1, 21000, Tempo, 810811
1, 21120, Tempo, 789474
1, 22040, Tempo, 810811
1, 22080, Tempo, 789474
1, 22920, Tempo, 810811
1, 23280, Tempo, 789474
1, 24900, Tempo, 810811
1, 24960, Tempo, 789474
1, 26820, Tempo, 810811
1, 26880, Tempo, 789474
1, 27780, Tempo, 810811
1, 27840, Tempo, 789474
1, 28680, Tempo, 810811
1, 28920, Tempo, 789474
1, 29160, Tempo, 821918
1, 29280, Tempo, 789474
1, 29640, Tempo, 810811
1, 30600, Tempo, 821918
1, 31080, Tempo, 845070
1, 31320, Tempo, 895522
1, 31450, Tempo, 1132075
1, 31680, Tempo, 2727273
1, 32160, Tempo, 674157
1, 32160, Marker_t, "1"
1, 32520, Tempo, 689655
1, 32640, Tempo, 674157
1, 34507, Tempo, 689655
1, 34560, Tempo, 674157
1, 36370, Tempo, 689655
1, 36480, Tempo, 674157
1, 38350, Tempo, 689655
1, 38400, Tempo, 674157
1, 40200, Tempo, 689655
1, 40320, Tempo, 674157
1, 42200, Tempo, 689655
1, 43110, Tempo, 705882
1, 43200, Tempo, 769231
1, 43665, Tempo, 705882
1, 44040, Tempo, 722892
1, 44160, Tempo, 674157
1, 46040, Tempo, 689655
1, 46080, Tempo, 674157
1, 47880, Tempo, 689655
1, 48000, Tempo, 674157
1, 49860, Tempo, 689655
1, 49920, Tempo, 674157
1, 51720, Tempo, 689655
1, 51840, Tempo, 674157
1, 53640, Tempo, 689655
1, 53760, Tempo, 674157
1, 55640, Tempo, 689655
1, 55680, Tempo, 674157
1, 57560, Tempo, 689655
1, 57600, Tempo, 674157
1, 58440, Tempo, 689655
1, 58560, Tempo, 674157
1, 58920, Tempo, 689655
1, 59040, Tempo, 674157
1, 59480, Tempo, 689655
1, 59520, Tempo, 674157
1, 61320, Tempo, 689655
1, 61440, Tempo, 674157
1, 61860, Tempo, 689655
1, 62170, Tempo, 731707
1, 62220, Tempo, 845070
1, 62400, Tempo, 1935484
1, 62880, Tempo, 600000
1, 62880, Marker_t, "2"
1, 63320, Tempo, 612245
1, 63360, Tempo, 600000
1, 64280, Tempo, 606061
1, 64320, Tempo, 600000
1, 65240, Tempo, 612245
1, 65280, Tempo, 600000
1, 66200, Tempo, 606061
1, 66240, Tempo, 600000
1, 67080, Tempo, 612245
1, 67200, Tempo, 600000
1, 68120, Tempo, 606061
1, 68160, Tempo, 600000
1, 69080, Tempo, 612245
1, 69120, Tempo, 600000
1, 70040, Tempo, 606061
1, 70080, Tempo, 600000
1, 71000, Tempo, 612245
1, 71040, Tempo, 600000
1, 71960, Tempo, 606061
1, 72000, Tempo, 600000
1, 72920, Tempo, 612245
1, 72960, Tempo, 600000
1, 73880, Tempo, 612245
1, 74060, Tempo, 600000
1, 74655, Tempo, 612245
1, 74760, Tempo, 659341
1, 74880, Tempo, 600000
1, 75800, Tempo, 606061
1, 75840, Tempo, 600000
1, 76760, Tempo, 612245
1, 76800, Tempo, 600000
1, 77720, Tempo, 606061
1, 77760, Tempo, 600000
1, 78680, Tempo, 612245
1, 78720, Tempo, 600000
1, 80520, Tempo, 612245
1, 80640, Tempo, 600000
1, 81560, Tempo, 606061
1, 81600, Tempo, 600000
1, 82520, Tempo, 612245
1, 82560, Tempo, 600000
1, 83480, Tempo, 606061
1, 83520, Tempo, 600000
1, 84360, Tempo, 612245
1, 84600, Tempo, 600000
1, 85400, Tempo, 606061
1, 85440, Tempo, 600000
1, 86360, Tempo, 612245
1, 86400, Tempo, 600000
1, 87320, Tempo, 606061
1, 87360, Tempo, 600000
1, 88280, Tempo, 612245
1, 88320, Tempo, 600000
1, 89240, Tempo, 606061
1, 89280, Tempo, 600000
1, 90120, Tempo, 612245
1, 90240, Tempo, 600000
1, 91160, Tempo, 606061
1, 91200, Tempo, 600000
1, 92040, Tempo, 612245
1, 92620, Tempo, 625000
1, 92890, Tempo, 638298
1, 93000, Tempo, 769231
1, 93135, Tempo, 2400000
1, 93480, Tempo, 2727273
1, 93600, Tempo, 869565
1, 93600, Marker_t, "3"
1, 93840, Tempo, 895522
1, 94080, Tempo, 869565
1, 94740, Tempo, 895522
1, 94980, Tempo, 923077
1, 95040, Tempo, 869565
1, 95880, Tempo, 895522
1, 96960, Tempo, 923077
1, 97425, Tempo, 869565
1, 97860, Tempo, 895522
1, 97920, Tempo, 869565
1, 99720, Tempo, 895522
1, 99840, Tempo, 869565
1, 100740, Tempo, 895522
1, 100800, Tempo, 869565
1, 102900, Tempo, 895522
1, 103140, Tempo, 923077
1, 103200, Tempo, 869565
1, 103560, Tempo, 895522
1, 103920, Tempo, 869565
1, 105350, Tempo, 895522
1, 105600, Tempo, 869565
1, 107400, Tempo, 895522
1, 107520, Tempo, 869565
1, 109320, Tempo, 895522
1, 109440, Tempo, 869565
1, 111240, Tempo, 895522
1, 111360, Tempo, 869565
1, 111780, Tempo, 895522
1, 111900, Tempo, 869565
1, 113160, Tempo, 895522
1, 113280, Tempo, 869565
1, 114420, Tempo, 895522
1, 114660, Tempo, 923077
1, 114780, Tempo, 869565
1, 115080, Tempo, 895522
1, 115200, Tempo, 923077
1, 115395, Tempo, 869565
1, 116040, Tempo, 895522
1, 116295, Tempo, 869565
1, 117000, Tempo, 895522
1, 117240, Tempo, 869565
1, 117960, Tempo, 895522
1, 118155, Tempo, 869565
1, 118920, Tempo, 895522
1, 119130, Tempo, 869565
1, 119880, Tempo, 895522
1, 120105, Tempo, 869565
1, 120960, Tempo, 895522
1, 122640, Tempo, 923077
1, 123360, Tempo, 952381
1, 123600, Tempo, 1276596
1, 123840, Tempo, 2727273
1, 124320, Tempo, 540541
1, 124320, Marker_t, "4"
1, 124680, Tempo, 550459
1, 124800, Tempo, 540541
1, 126120, Tempo, 550459
1, 126240, Tempo, 540541
1, 128040, Tempo, 550459
1, 128160, Tempo, 540541
1, 128520, Tempo, 550459
1, 128640, Tempo, 540541
1, 129480, Tempo, 550459
1, 129600, Tempo, 540541
1, 134280, Tempo, 550459
1, 134400, Tempo, 540541
1, 135840, Tempo, 540541
1, 136200, Tempo, 550459
1, 136320, Tempo, 540541
1, 137640, Tempo, 550459
1, 137760, Tempo, 540541
1, 141960, Tempo, 550459
1, 142080, Tempo, 540541
1, 142920, Tempo, 550459
1, 143040, Tempo, 540541
1, 143880, Tempo, 550459
1, 144000, Tempo, 540541
1, 144840, Tempo, 550459
1, 144960, Tempo, 540541
1, 145320, Tempo, 550459
1, 145440, Tempo, 540541
1, 145800, Tempo, 560748
1, 146040, Tempo, 540541
1, 146820, Tempo, 550459
1, 146940, Tempo, 540541
1, 147720, Tempo, 550459
1, 147840, Tempo, 540541
1, 148740, Tempo, 550459
1, 148860, Tempo, 540541
1, 149640, Tempo, 550459
1, 149805, Tempo, 540541
1, 150600, Tempo, 550459
1, 150780, Tempo, 540541
1, 151560, Tempo, 550459
1, 151680, Tempo, 540541
1, 152100, Tempo, 550459
1, 152280, Tempo, 540541
1, 152580, Tempo, 550459
1, 152760, Tempo, 540541
1, 153000, Tempo, 560748
1, 153120, Tempo, 550459
1, 153180, Tempo, 540541
1, 153427, Tempo, 550459
1, 153480, Tempo, 560748
1, 153600, Tempo, 571429
1, 153660, Tempo, 560748
1, 154260, Tempo, 571429
1, 154320, Tempo, 588235
1, 154440, Tempo, 705882
1, 154560, Tempo, 2727273
1, 154980, Marker_t, "5"
1, 155040, Tempo, 810811
1, 155055, Tempo, 845070
1, 155520, Tempo, 810811
1, 156420, Tempo, 821918
1, 156470, Tempo, 810811
1, 157320, Tempo, 845070
1, 157440, Tempo, 810811
1, 159345, Tempo, 821918
1, 159360, Tempo, 810811
1, 161160, Tempo, 821918
1, 161280, Tempo, 810811
1, 163080, Tempo, 821918
1, 163200, Tempo, 810811
1, 164340, Tempo, 821918
1, 164580, Tempo, 845070
1, 164650, Tempo, 821918
1, 165000, Tempo, 845070
1, 165172, Tempo, 821918
1, 166920, Tempo, 869565
1, 167040, Tempo, 810811
1, 168840, Tempo, 821918
1, 168960, Tempo, 810811
1, 170760, Tempo, 821918
1, 170880, Tempo, 810811
1, 172680, Tempo, 845070
1, 172800, Tempo, 810811
1, 174600, Tempo, 821918
1, 174720, Tempo, 810811
1, 175860, Tempo, 821918
1, 176100, Tempo, 845070
1, 176520, Tempo, 869565
1, 176770, Tempo, 869565
1, 178440, Tempo, 895522
1, 178560, Tempo, 869565
1, 180360, Tempo, 895522
1, 180480, Tempo, 869565
1, 182280, Tempo, 895522
1, 182400, Tempo, 869565
1, 184140, Tempo, 895522
1, 185040, Tempo, 1071429
1, 185100, Tempo, 1071429
1, 185160, Tempo, 1176471
1, 185280, Tempo, 1276596
1, 186240, Tempo, 500000
1, 186240, Marker_t, "6"
1, 188040, Tempo, 508475
1, 188160, Tempo, 500000
1, 189000, Tempo, 508475
1, 189120, Tempo, 500000
1, 189960, Tempo, 508475
1, 190080, Tempo, 500000
1, 190800, Tempo, 508475
1, 191880, Tempo, 600000
1, 192000, Tempo, 500000
1, 192840, Tempo, 508475
1, 192960, Tempo, 500000
1, 193800, Tempo, 508475
1, 193920, Tempo, 500000
1, 194760, Tempo, 508475
1, 195720, Tempo, 600000
1, 195840, Tempo, 500000
1, 196680, Tempo, 508475
1, 196800, Tempo, 500000
1, 197640, Tempo, 508475
1, 197760, Tempo, 500000
1, 198600, Tempo, 508475
1, 199560, Tempo, 540541
1, 199680, Tempo, 500000
1, 200520, Tempo, 508475
1, 200640, Tempo, 500000
1, 201480, Tempo, 508475
1, 201600, Tempo, 500000
1, 202440, Tempo, 508475
1, 202560, Tempo, 500000
1, 203400, Tempo, 508475
1, 203640, Tempo, 517241
1, 204120, Tempo, 526316
1, 205140, Tempo, 535714
1, 205440, Tempo, 500000
1, 206280, Tempo, 508475
1, 206400, Tempo, 500000
1, 207240, Tempo, 508475
1, 207360, Tempo, 500000
1, 208200, Tempo, 508475
1, 208320, Tempo, 500000
1, 209160, Tempo, 526316
1, 209280, Tempo, 500000
1, 210120, Tempo, 508475
1, 210240, Tempo, 500000
1, 211080, Tempo, 508475
1, 211200, Tempo, 500000
1, 212040, Tempo, 508475
1, 212160, Tempo, 500000
1, 213000, Tempo, 508475
1, 213120, Tempo, 500000
1, 213960, Tempo, 508475
1, 214080, Tempo, 500000
1, 214920, Tempo, 535714
1, 215040, Tempo, 508475
1, 215880, Tempo, 517241
1, 216360, Tempo, 526316
1, 216840, Tempo, 540541
1, 216960, Tempo, 508475
1, 216960, Marker_t, "Coda"
1, 217080, Tempo, 500000
1, 217800, Tempo, 508475
1, 217920, Tempo, 500000
1, 218760, Tempo, 508475
1, 218880, Tempo, 500000
1, 219720, Tempo, 508475
1, 219840, Tempo, 500000
1, 220680, Tempo, 508475
1, 220800, Tempo, 500000
1, 221640, Tempo, 508475
1, 221760, Tempo, 500000
1, 222600, Tempo, 517241
1, 222720, Tempo, 517241
1, 224520, Tempo, 526316
1, 224640, Tempo, 500000
1, 226440, Tempo, 508475
1, 226560, Tempo, 500000
1, 228360, Tempo, 508475
1, 228480, Tempo, 500000
1, 230280, Tempo, 508475
1, 230400, Tempo, 500000
1, 232200, Tempo, 508475
1, 232320, Tempo, 500000
1, 234120, Tempo, 508475
1, 234300, Tempo, 500000
1, 235430, Tempo, 508475
1, 236040, Tempo, 517241
1, 236210, Tempo, 500000
1, 237540, Tempo, 508475
1, 237840, Tempo, 517241
1, 237960, Tempo, 535714
1, 238080, Tempo, 508475
1, 238920, Tempo, 517241
1, 239040, Tempo, 508475
1, 240000, Tempo, 508475
1, 240840, Tempo, 517241
1, 240960, Tempo, 508475
1, 241800, Tempo, 517241
1, 241920, Tempo, 508475
1, 242760, Tempo, 517241
1, 242880, Tempo, 508475
1, 243840, Tempo, 508475
1, 244680, Tempo, 517241
1, 244800, Tempo, 508475
1, 245580, Tempo, 517241
1, 245640, Tempo, 535714
1, 245760, Tempo, 508475
1, 246600, Tempo, 517241
1, 246720, Tempo, 508475
1, 247560, Tempo, 517241
1, 247680, Tempo, 508475
1, 248520, Tempo, 517241
1, 248640, Tempo, 508475
1, 249440, Tempo, 517241
1, 250390, Tempo, 535714
1, 250920, Tempo, 540541
1, 251040, Tempo, 571429
1, 251280, Tempo, 750000
1, 251280, End_track
2, 0, Start_track
2, 0, Title_t, "Beethoven"
2, 0, Control_c, 0, 0, 0
2, 0, Control_c, 0, 7, 115
2, 0, Control_c, 0, 10, 82
2, 0, Control_c, 0, 91, 91
2, 0, Control_c, 0, 93, 28
2, 0, Pitch_bend_c, 0, 8192
2, 0, Control_c, 0, 1, 0
2, 0, Control_c, 0, 64, 0
2, 1, Control_c, 0, 32, 0
2, 1, Program_c, 0, 0
2, 1440, Note_on_c, 0, 69, 60
2, 1920, Note_on_c, 0, 69, 0
2, 1920, Note_on_c, 0, 74, 62
2, 2880, Note_on_c, 0, 74, 0
2, 2880, Note_on_c, 0, 78, 66
2, 3600, Note_on_c, 0, 78, 0
2, 3600, Note_on_c, 0, 76, 69
2, 3840, Note_on_c, 0, 76, 0
2, 3840, Note_on_c, 0, 76, 70
2, 4320, Note_on_c, 0, 76, 0
2, 4320, Note_on_c, 0, 74, 67
2, 4800, Note_on_c, 0, 74, 0
2, 5280, Note_on_c, 0, 74, 69
2, 5520, Note_on_c, 0, 74, 0
2, 5520, Note_on_c, 0, 73, 68
2, 5760, Note_on_c, 0, 73, 0
2, 5760, Note_on_c, 0, 73, 67
2, 6000, Note_on_c, 0, 73, 0
2, 6000, Note_on_c, 0, 71, 66
2, 6240, Note_on_c, 0, 71, 0
2, 6240, Note_on_c, 0, 70, 66
2, 6480, Note_on_c, 0, 70, 0
2, 6480, Note_on_c, 0, 71, 65
2, 6720, Note_on_c, 0, 71, 0
2, 6720, Note_on_c, 0, 73, 66
2, 6960, Note_on_c, 0, 73, 0
2, 6960, Note_on_c, 0, 74, 68
2, 7200, Note_on_c, 0, 74, 0
2, 7200, Note_on_c, 0, 77, 69
2, 7440, Note_on_c, 0, 77, 0
2, 7440, Note_on_c, 0, 78, 70
2, 7680, Note_on_c, 0, 78, 0
2, 7680, Note_on_c, 0, 78, 71
2, 8160, Note_on_c, 0, 78, 0
2, 8160, Note_on_c, 0, 76, 65
2, 9060, Note_on_c, 0, 76, 0
2, 9120, Note_on_c, 0, 74, 62
2, 9360, Note_on_c, 0, 74, 0
2, 9360, Note_on_c, 0, 71, 61
2, 9600, Note_on_c, 0, 71, 0
2, 9600, Note_on_c, 0, 69, 60
2, 10320, Note_on_c, 0, 69, 0
2, 10320, Note_on_c, 0, 71, 59
2, 10380, Note_on_c, 0, 71, 0
2, 10380, Note_on_c, 0, 69, 59
2, 10440, Note_on_c, 0, 69, 0
2, 10440, Note_on_c, 0, 68, 60
2, 10500, Note_on_c, 0, 68, 0
2, 10500, Note_on_c, 0, 69, 61
2, 10560, Note_on_c, 0, 69, 0
2, 10560, Note_on_c, 0, 73, 63
2, 11280, Note_on_c, 0, 73, 0
2, 11280, Note_on_c, 0, 71, 59
2, 11520, Note_on_c, 0, 71, 0
2, 11520, Note_on_c, 0, 69, 58
2, 12000, Note_on_c, 0, 69, 0
2, 12960, Note_on_c, 0, 69, 65
2, 13440, Note_on_c, 0, 69, 0
2, 13440, Note_on_c, 0, 79, 69
2, 14880, Note_on_c, 0, 79, 0
2, 14880, Note_on_c, 0, 78, 67
2, 15120, Note_on_c, 0, 78, 0
2, 15120, Note_on_c, 0, 76, 67
2, 15360, Note_on_c, 0, 76, 0
2, 15360, Note_on_c, 0, 74, 67
2, 15840, Note_on_c, 0, 74, 0
2, 15840, Note_on_c, 0, 73, 66
2, 16755, Note_on_c, 0, 73, 0
2, 16800, Note_on_c, 0, 76, 65
2, 17280, Note_on_c, 0, 76, 0
2, 17280, Note_on_c, 0, 76, 67
2, 17760, Note_on_c, 0, 76, 0
2, 17760, Note_on_c, 0, 73, 66
2, 18240, Note_on_c, 0, 73, 0
2, 18240, Note_on_c, 0, 69, 65
2, 18720, Note_on_c, 0, 69, 0
2, 18720, Note_on_c, 0, 67, 63
2, 19200, Note_on_c, 0, 67, 0
2, 19200, Note_on_c, 0, 66, 62
2, 20160, Note_on_c, 0, 66, 0
2, 20160, Note_on_c, 0, 64, 62
2, 20640, Note_on_c, 0, 64, 0
2, 20640, Note_on_c, 0, 67, 64
2, 20880, Note_on_c, 0, 67, 0
2, 20880, Note_on_c, 0, 71, 67
2, 21120, Note_on_c, 0, 71, 0
2, 21120, Note_on_c, 0, 71, 68
2, 21600, Note_on_c, 0, 71, 0
2, 21600, Note_on_c, 0, 62, 65
2, 22560, Note_on_c, 0, 62, 0
2, 22560, Note_on_c, 0, 66, 61
2, 22800, Note_on_c, 0, 66, 0
2, 22800, Note_on_c, 0, 64, 61
2, 23040, Note_on_c, 0, 64, 0
2, 23040, Note_on_c, 0, 62, 60
2, 23520, Note_on_c, 0, 62, 0
2, 24240, Note_on_c, 0, 69, 63
2, 24480, Note_on_c, 0, 69, 0
2, 24480, Note_on_c, 0, 78, 64
2, 24720, Note_on_c, 0, 78, 0
2, 24720, Note_on_c, 0, 76, 65
2, 24960, Note_on_c, 0, 76, 0
2, 24960, Note_on_c, 0, 74, 66
2, 25320, Note_on_c, 0, 74, 0
2, 25320, Note_on_c, 0, 73, 68
2, 25440, Note_on_c, 0, 73, 0
2, 25440, Note_on_c, 0, 79, 74
2, 25920, Note_on_c, 0, 79, 0
2, 26160, Note_on_c, 0, 69, 71
2, 26400, Note_on_c, 0, 69, 0
2, 26400, Note_on_c, 0, 79, 72
2, 26640, Note_on_c, 0, 79, 0
2, 26640, Note_on_c, 0, 78, 73
2, 26880, Note_on_c, 0, 78, 0
2, 26880, Note_on_c, 0, 76, 75
2, 27240, Note_on_c, 0, 76, 0
2, 27240, Note_on_c, 0, 74, 76
2, 27360, Note_on_c, 0, 74, 0
2, 27360, Note_on_c, 0, 81, 80
2, 27840, Note_on_c, 0, 81, 0
2, 28320, Note_on_c, 0, 81, 81
2, 28560, Note_on_c, 0, 81, 0
2, 28560, Note_on_c, 0, 79, 82
2, 28800, Note_on_c, 0, 79, 0
2, 28800, Note_on_c, 0, 78, 83
2, 29160, Note_on_c, 0, 78, 0
2, 29160, Note_on_c, 0, 76, 85
2, 29280, Note_on_c, 0, 76, 0
2, 29280, Note_on_c, 0, 83, 89
2, 30000, Note_on_c, 0, 81, 80
2, 30015, Note_on_c, 0, 83, 0
2, 30120, Note_on_c, 0, 81, 0
2, 30120, Note_on_c, 0, 79, 79
2, 30240, Note_on_c, 0, 79, 0
2, 30240, Note_on_c, 0, 78, 77
2, 30360, Note_on_c, 0, 78, 0
2, 30360, Note_on_c, 0, 76, 75
2, 30480, Note_on_c, 0, 76, 0
2, 30480, Note_on_c, 0, 74, 74
2, 30600, Note_on_c, 0, 74, 0
2, 30600, Note_on_c, 0, 73, 72
2, 30720, Note_on_c, 0, 73, 0
2, 30720, Note_on_c, 0, 76, 75
2, 31680, Note_on_c, 0, 76, 0
2, 31680, Note_on_c, 0, 74, 63
2, 32160, Note_on_c, 0, 74, 0
2, 32160, Note_on_c, 0, 69, 57
2, 32527, Note_on_c, 0, 69, 0
2, 32640, Note_on_c, 0, 74, 60
2, 32760, Note_on_c, 0, 74, 0
2, 32760, Note_on_c, 0, 76, 61
2, 32880, Note_on_c, 0, 76, 0
2, 32880, Note_on_c, 0, 74, 61
2, 33000, Note_on_c, 0, 74, 0
2, 33000, Note_on_c, 0, 73, 62
2, 33120, Note_on_c, 0, 73, 0
2, 33120, Note_on_c, 0, 74, 63
2, 33240, Note_on_c, 0, 74, 0
2, 33240, Note_on_c, 0, 76, 63
2, 33360, Note_on_c, 0, 76, 0
2, 33360, Note_on_c, 0, 78, 64
2, 33480, Note_on_c, 0, 78, 0
2, 33480, Note_on_c, 0, 79, 65
2, 33600, Note_on_c, 0, 79, 0
2, 33600, Note_on_c, 0, 80, 66
2, 33720, Note_on_c, 0, 80, 0
2, 33720, Note_on_c, 0, 81, 66
2, 33840, Note_on_c, 0, 81, 0
2, 33840, Note_on_c, 0, 83, 67
2, 33960, Note_on_c, 0, 83, 0
2, 33960, Note_on_c, 0, 81, 68
2, 34080, Note_on_c, 0, 81, 0
2, 34080, Note_on_c, 0, 79, 68
2, 34200, Note_on_c, 0, 79, 0
2, 34200, Note_on_c, 0, 78, 69
2, 34320, Note_on_c, 0, 78, 0
2, 34320, Note_on_c, 0, 79, 70
2, 34440, Note_on_c, 0, 79, 0
2, 34440, Note_on_c, 0, 76, 70
2, 34560, Note_on_c, 0, 76, 0
2, 34560, Note_on_c, 0, 74, 71
2, 34680, Note_on_c, 0, 74, 0
2, 34680, Note_on_c, 0, 76, 69
2, 34800, Note_on_c, 0, 76, 0
2, 34800, Note_on_c, 0, 74, 69
2, 34920, Note_on_c, 0, 74, 0
2, 34920, Note_on_c, 0, 73, 69
2, 35040, Note_on_c, 0, 73, 0
2, 35040, Note_on_c, 0, 74, 69
2, 35160, Note_on_c, 0, 74, 0
2, 35160, Note_on_c, 0, 76, 68
2, 35280, Note_on_c, 0, 76, 0
2, 35280, Note_on_c, 0, 78, 68
2, 35400, Note_on_c, 0, 78, 0
2, 35400, Note_on_c, 0, 76, 68
2, 35520, Note_on_c, 0, 76, 0
2, 35520, Note_on_c, 0, 79, 68
2, 35640, Note_on_c, 0, 79, 0
2, 35640, Note_on_c, 0, 78, 67
2, 35760, Note_on_c, 0, 78, 0
2, 35760, Note_on_c, 0, 76, 67
2, 35880, Note_on_c, 0, 76, 0
2, 35880, Note_on_c, 0, 74, 67
2, 36000, Note_on_c, 0, 74, 0
2, 36000, Note_on_c, 0, 73, 67
2, 36120, Note_on_c, 0, 73, 0
2, 36120, Note_on_c, 0, 74, 66
2, 36240, Note_on_c, 0, 74, 0
2, 36240, Note_on_c, 0, 78, 66
2, 36360, Note_on_c, 0, 78, 0
2, 36360, Note_on_c, 0, 74, 66
2, 36480, Note_on_c, 0, 74, 0
2, 36480, Note_on_c, 0, 73, 66
2, 36600, Note_on_c, 0, 73, 0
2, 36600, Note_on_c, 0, 71, 65
2, 36720, Note_on_c, 0, 71, 0
2, 36720, Note_on_c, 0, 70, 65
2, 36840, Note_on_c, 0, 70, 0
2, 36840, Note_on_c, 0, 71, 65
2, 36960, Note_on_c, 0, 71, 0
2, 36960, Note_on_c, 0, 70, 65
2, 37080, Note_on_c, 0, 70, 0
2, 37080, Note_on_c, 0, 71, 65
2, 37200, Note_on_c, 0, 71, 0
2, 37200, Note_on_c, 0, 73, 64
2, 37320, Note_on_c, 0, 73, 0
2, 37320, Note_on_c, 0, 74, 64
2, 37440, Note_on_c, 0, 74, 0
2, 37440, Note_on_c, 0, 73, 64
2, 37560, Note_on_c, 0, 73, 0
2, 37560, Note_on_c, 0, 74, 64
2, 37680, Note_on_c, 0, 74, 0
2, 37680, Note_on_c, 0, 77, 63
2, 37800, Note_on_c, 0, 77, 0
2, 37800, Note_on_c, 0, 78, 63
2, 37920, Note_on_c, 0, 78, 0
2, 37920, Note_on_c, 0, 77, 63
2, 38040, Note_on_c, 0, 77, 0
2, 38040, Note_on_c, 0, 78, 63
2, 38160, Note_on_c, 0, 78, 0
2, 38160, Note_on_c, 0, 80, 62
2, 38280, Note_on_c, 0, 80, 0
2, 38280, Note_on_c, 0, 78, 62
2, 38400, Note_on_c, 0, 78, 0
2, 38400, Note_on_c, 0, 78, 62
2, 38520, Note_on_c, 0, 78, 0
2, 38520, Note_on_c, 0, 76, 62
2, 38640, Note_on_c, 0, 76, 0
2, 38640, Note_on_c, 0, 83, 61
2, 38760, Note_on_c, 0, 83, 0
2, 38760, Note_on_c, 0, 81, 61
2, 38880, Note_on_c, 0, 81, 0
2, 38880, Note_on_c, 0, 80, 61
2, 39000, Note_on_c, 0, 80, 0
2, 39000, Note_on_c, 0, 78, 61
2, 39120, Note_on_c, 0, 78, 0
2, 39120, Note_on_c, 0, 76, 60
2, 39240, Note_on_c, 0, 76, 0
2, 39240, Note_on_c, 0, 74, 60
2, 39360, Note_on_c, 0, 74, 0
2, 39360, Note_on_c, 0, 74, 60
2, 39480, Note_on_c, 0, 74, 0
2, 39480, Note_on_c, 0, 73, 60
2, 39600, Note_on_c, 0, 73, 0
2, 39600, Note_on_c, 0, 76, 60
2, 39720, Note_on_c, 0, 76, 0
2, 39720, Note_on_c, 0, 73, 59
2, 39840, Note_on_c, 0, 73, 0
2, 39840, Note_on_c, 0, 73, 59
2, 39960, Note_on_c, 0, 73, 0
2, 39960, Note_on_c, 0, 71, 59
2, 40080, Note_on_c, 0, 71, 0
2, 40080, Note_on_c, 0, 74, 59
2, 40200, Note_on_c, 0, 74, 0
2, 40200, Note_on_c, 0, 71, 58
2, 40320, Note_on_c, 0, 71, 0
2, 40320, Note_on_c, 0, 69, 58
2, 40440, Note_on_c, 0, 69, 0
2, 40440, Note_on_c, 0, 76, 58
2, 40560, Note_on_c, 0, 76, 0
2, 40560, Note_on_c, 0, 73, 58
2, 40680, Note_on_c, 0, 73, 0
2, 40680, Note_on_c, 0, 81, 57
2, 40800, Note_on_c, 0, 81, 0
2, 40800, Note_on_c, 0, 76, 57
2, 40920, Note_on_c, 0, 76, 0
2, 40920, Note_on_c, 0, 85, 57
2, 41040, Note_on_c, 0, 85, 0
2, 41040, Note_on_c, 0, 81, 57
2, 41160, Note_on_c, 0, 81, 0
2, 41160, Note_on_c, 0, 88, 56
2, 41280, Note_on_c, 0, 88, 0
2, 41280, Note_on_c, 0, 86, 56
2, 41400, Note_on_c, 0, 86, 0
2, 41400, Note_on_c, 0, 83, 56
2, 41520, Note_on_c, 0, 83, 0
2, 41520, Note_on_c, 0, 80, 56
2, 41640, Note_on_c, 0, 80, 0
2, 41640, Note_on_c, 0, 76, 55
2, 41760, Note_on_c, 0, 76, 0
2, 41760, Note_on_c, 0, 74, 55
2, 41880, Note_on_c, 0, 74, 0
2, 41880, Note_on_c, 0, 73, 55
2, 42000, Note_on_c, 0, 73, 0
2, 42000, Note_on_c, 0, 74, 55
2, 42120, Note_on_c, 0, 74, 0
2, 42120, Note_on_c, 0, 68, 54
2, 42240, Note_on_c, 0, 68, 0
2, 42240, Note_on_c, 0, 71, 54
2, 43200, Note_on_c, 0, 71, 0
2, 44160, Note_on_c, 0, 79, 60
2, 44280, Note_on_c, 0, 79, 0
2, 44280, Note_on_c, 0, 81, 60
2, 44400, Note_on_c, 0, 81, 0
2, 44400, Note_on_c, 0, 79, 60
2, 44520, Note_on_c, 0, 79, 0
2, 44520, Note_on_c, 0, 78, 61
2, 44640, Note_on_c, 0, 78, 0
2, 44640, Note_on_c, 0, 79, 61
2, 44760, Note_on_c, 0, 79, 0
2, 44760, Note_on_c, 0, 81, 61
2, 44880, Note_on_c, 0, 81, 0
2, 44880, Note_on_c, 0, 83, 62
2, 45000, Note_on_c, 0, 83, 0
2, 45000, Note_on_c, 0, 79, 62
2, 45120, Note_on_c, 0, 79, 0
2, 45120, Note_on_c, 0, 76, 62
2, 45240, Note_on_c, 0, 76, 0
2, 45240, Note_on_c, 0, 78, 63
2, 45360, Note_on_c, 0, 78, 0
2, 45360, Note_on_c, 0, 76, 63
2, 45480, Note_on_c, 0, 76, 0
2, 45480, Note_on_c, 0, 75, 63
2, 45600, Note_on_c, 0, 75, 0
2, 45600, Note_on_c, 0, 76, 64
2, 45720, Note_on_c, 0, 76, 0
2, 45720, Note_on_c, 0, 78, 64
2, 45840, Note_on_c, 0, 78, 0
2, 45840, Note_on_c, 0, 79, 64
2, 45960, Note_on_c, 0, 79, 0
2, 45960, Note_on_c, 0, 76, 65
2, 46080, Note_on_c, 0, 76, 0
2, 46080, Note_on_c, 0, 73, 67
2, 46200, Note_on_c, 0, 73, 0
2, 46200, Note_on_c, 0, 74, 67
2, 46320, Note_on_c, 0, 74, 0
2, 46320, Note_on_c, 0, 73, 67
2, 46440, Note_on_c, 0, 73, 0
2, 46440, Note_on_c, 0, 71, 67
2, 46560, Note_on_c, 0, 71, 0
2, 46560, Note_on_c, 0, 73, 67
2, 46680, Note_on_c, 0, 73, 0
2, 46680, Note_on_c, 0, 74, 66
2, 46800, Note_on_c, 0, 74, 0
2, 46800, Note_on_c, 0, 76, 66
2, 46920, Note_on_c, 0, 76, 0
2, 46920, Note_on_c, 0, 74, 66
2, 47040, Note_on_c, 0, 74, 0
2, 47040, Note_on_c, 0, 73, 66
2, 47160, Note_on_c, 0, 73, 0
2, 47160, Note_on_c, 0, 74, 66
2, 47280, Note_on_c, 0, 74, 0
2, 47280, Note_on_c, 0, 76, 65
2, 47400, Note_on_c, 0, 76, 0
2, 47400, Note_on_c, 0, 73, 65
2, 47520, Note_on_c, 0, 73, 0
2, 47520, Note_on_c, 0, 74, 65
2, 47640, Note_on_c, 0, 74, 0
2, 47640, Note_on_c, 0, 76, 65
2, 47760, Note_on_c, 0, 76, 0
2, 47760, Note_on_c, 0, 78, 65
2, 47880, Note_on_c, 0, 78, 0
2, 47880, Note_on_c, 0, 74, 64
2, 48000, Note_on_c, 0, 74, 0
2, 48000, Note_on_c, 0, 76, 64
2, 48120, Note_on_c, 0, 76, 0
2, 48120, Note_on_c, 0, 78, 64
2, 48240, Note_on_c, 0, 78, 0
2, 48240, Note_on_c, 0, 79, 64
2, 48360, Note_on_c, 0, 79, 0
2, 48360, Note_on_c, 0, 81, 64
2, 48480, Note_on_c, 0, 81, 0
2, 48480, Note_on_c, 0, 79, 63
2, 48600, Note_on_c, 0, 79, 0
2, 48600, Note_on_c, 0, 78, 63
2, 48720, Note_on_c, 0, 78, 0
2, 48720, Note_on_c, 0, 76, 63
2, 48840, Note_on_c, 0, 76, 0
2, 48840, Note_on_c, 0, 74, 63
2, 48960, Note_on_c, 0, 74, 0
2, 48960, Note_on_c, 0, 73, 63
2, 49080, Note_on_c, 0, 73, 0
2, 49080, Note_on_c, 0, 74, 62
2, 49200, Note_on_c, 0, 74, 0
2, 49200, Note_on_c, 0, 76, 62
2, 49320, Note_on_c, 0, 76, 0
2, 49320, Note_on_c, 0, 74, 62
2, 49440, Note_on_c, 0, 74, 0
2, 49440, Note_on_c, 0, 73, 62
2, 49560, Note_on_c, 0, 73, 0
2, 49560, Note_on_c, 0, 71, 62
2, 49680, Note_on_c, 0, 71, 0
2, 49680, Note_on_c, 0, 69, 61
2, 49800, Note_on_c, 0, 69, 0
2, 49800, Note_on_c, 0, 67, 61
2, 49920, Note_on_c, 0, 67, 0
2, 49920, Note_on_c, 0, 66, 61
2, 50040, Note_on_c, 0, 66, 0
2, 50040, Note_on_c, 0, 67, 61
2, 50160, Note_on_c, 0, 67, 0
2, 50160, Note_on_c, 0, 69, 61
2, 50280, Note_on_c, 0, 69, 0
2, 50280, Note_on_c, 0, 71, 60
2, 50400, Note_on_c, 0, 71, 0
2, 50400, Note_on_c, 0, 73, 60
2, 50520, Note_on_c, 0, 73, 0
2, 50520, Note_on_c, 0, 74, 60
2, 50640, Note_on_c, 0, 74, 0
2, 50640, Note_on_c, 0, 76, 60
2, 50760, Note_on_c, 0, 76, 0
2, 50760, Note_on_c, 0, 78, 59
2, 50880, Note_on_c, 0, 78, 0
2, 50880, Note_on_c, 0, 71, 59
2, 51000, Note_on_c, 0, 71, 0
2, 51000, Note_on_c, 0, 73, 59
2, 51120, Note_on_c, 0, 73, 0
2, 51120, Note_on_c, 0, 74, 59
2, 51240, Note_on_c, 0, 74, 0
2, 51240, Note_on_c, 0, 76, 59
2, 51360, Note_on_c, 0, 76, 0
2, 51360, Note_on_c, 0, 78, 58
2, 51480, Note_on_c, 0, 78, 0
2, 51480, Note_on_c, 0, 79, 58
2, 51600, Note_on_c, 0, 79, 0
2, 51600, Note_on_c, 0, 81, 58
2, 51720, Note_on_c, 0, 81, 0
2, 51720, Note_on_c, 0, 83, 58
2, 51840, Note_on_c, 0, 83, 0
2, 51840, Note_on_c, 0, 83, 58
2, 51960, Note_on_c, 0, 83, 0
2, 51960, Note_on_c, 0, 81, 57
2, 52080, Note_on_c, 0, 81, 0
2, 52080, Note_on_c, 0, 86, 57
2, 52200, Note_on_c, 0, 86, 0
2, 52200, Note_on_c, 0, 85, 57
2, 52320, Note_on_c, 0, 85, 0
2, 52320, Note_on_c, 0, 83, 57
2, 52440, Note_on_c, 0, 83, 0
2, 52440, Note_on_c, 0, 81, 57
2, 52560, Note_on_c, 0, 81, 0
2, 52560, Note_on_c, 0, 79, 56
2, 52680, Note_on_c, 0, 79, 0
2, 52680, Note_on_c, 0, 78, 56
2, 52800, Note_on_c, 0, 78, 0
2, 52800, Note_on_c, 0, 78, 56
2, 52920, Note_on_c, 0, 78, 0
2, 52920, Note_on_c, 0, 76, 56
2, 53040, Note_on_c, 0, 76, 0
2, 53040, Note_on_c, 0, 81, 56
2, 53160, Note_on_c, 0, 81, 0
2, 53160, Note_on_c, 0, 79, 55
2, 53280, Note_on_c, 0, 79, 0
2, 53280, Note_on_c, 0, 78, 55
2, 53400, Note_on_c, 0, 78, 0
2, 53400, Note_on_c, 0, 76, 55
2, 53520, Note_on_c, 0, 76, 0
2, 53520, Note_on_c, 0, 74, 55
2, 53640, Note_on_c, 0, 74, 0
2, 53640, Note_on_c, 0, 73, 55
2, 53760, Note_on_c, 0, 73, 0
2, 53760, Note_on_c, 0, 74, 54
2, 54240, Note_on_c, 0, 74, 0
2, 54840, Note_on_c, 0, 69, 65
2, 54960, Note_on_c, 0, 69, 0
2, 54960, Note_on_c, 0, 81, 65
2, 55080, Note_on_c, 0, 81, 0
2, 55080, Note_on_c, 0, 80, 66
2, 55200, Note_on_c, 0, 80, 0
2, 55200, Note_on_c, 0, 79, 66
2, 55320, Note_on_c, 0, 79, 0
2, 55320, Note_on_c, 0, 78, 66
2, 55440, Note_on_c, 0, 78, 0
2, 55440, Note_on_c, 0, 76, 66
2, 55560, Note_on_c, 0, 76, 0
2, 55560, Note_on_c, 0, 74, 66
2, 55680, Note_on_c, 0, 74, 0
2, 55680, Note_on_c, 0, 73, 67
2, 56160, Note_on_c, 0, 73, 0
2, 56760, Note_on_c, 0, 69, 68
2, 56880, Note_on_c, 0, 69, 0
2, 56880, Note_on_c, 0, 81, 69
2, 57000, Note_on_c, 0, 81, 0
2, 57000, Note_on_c, 0, 80, 69
2, 57120, Note_on_c, 0, 80, 0
2, 57120, Note_on_c, 0, 81, 69
2, 57240, Note_on_c, 0, 81, 0
2, 57240, Note_on_c, 0, 79, 69
2, 57360, Note_on_c, 0, 79, 0
2, 57360, Note_on_c, 0, 78, 69
2, 57480, Note_on_c, 0, 78, 0
2, 57480, Note_on_c, 0, 76, 70
2, 57600, Note_on_c, 0, 76, 0
2, 57600, Note_on_c, 0, 74, 70
2, 58080, Note_on_c, 0, 74, 0
2, 58680, Note_on_c, 0, 74, 72
2, 58800, Note_on_c, 0, 74, 0
2, 58800, Note_on_c, 0, 86, 72
2, 58920, Note_on_c, 0, 86, 0
2, 58920, Note_on_c, 0, 84, 72
2, 59040, Note_on_c, 0, 84, 0
2, 59040, Note_on_c, 0, 83, 72
2, 59160, Note_on_c, 0, 83, 0
2, 59160, Note_on_c, 0, 81, 72
2, 59280, Note_on_c, 0, 81, 0
2, 59280, Note_on_c, 0, 79, 73
2, 59400, Note_on_c, 0, 79, 0
2, 59400, Note_on_c, 0, 78, 73
2, 59520, Note_on_c, 0, 78, 0
2, 59520, Note_on_c, 0, 75, 74
2, 59640, Note_on_c, 0, 75, 0
2, 59640, Note_on_c, 0, 76, 75
2, 59760, Note_on_c, 0, 76, 0
2, 59760, Note_on_c, 0, 85, 76
2, 59880, Note_on_c, 0, 85, 0
2, 59880, Note_on_c, 0, 83, 78
2, 60000, Note_on_c, 0, 83, 0
2, 60000, Note_on_c, 0, 81, 83
2, 60120, Note_on_c, 0, 81, 0
2, 60120, Note_on_c, 0, 79, 79
2, 60240, Note_on_c, 0, 79, 0
2, 60240, Note_on_c, 0, 78, 73
2, 60360, Note_on_c, 0, 78, 0
2, 60360, Note_on_c, 0, 76, 73
2, 60480, Note_on_c, 0, 76, 0
2, 60480, Note_on_c, 0, 74, 72
2, 60600, Note_on_c, 0, 74, 0
2, 60600, Note_on_c, 0, 73, 71
2, 60720, Note_on_c, 0, 73, 0
2, 60720, Note_on_c, 0, 71, 70
2, 60840, Note_on_c, 0, 71, 0
2, 60840, Note_on_c, 0, 69, 69
2, 60960, Note_on_c, 0, 69, 0
2, 60960, Note_on_c, 0, 68, 68
2, 61080, Note_on_c, 0, 68, 0
2, 61080, Note_on_c, 0, 69, 67
2, 61200, Note_on_c, 0, 69, 0
2, 61200, Note_on_c, 0, 71, 66
2, 61320, Note_on_c, 0, 71, 0
2, 61320, Note_on_c, 0, 72, 65
2, 61440, Note_on_c, 0, 72, 0
2, 61440, Note_on_c, 0, 73, 64
2, 61560, Note_on_c, 0, 73, 0
2, 61560, Note_on_c, 0, 74, 63
2, 61680, Note_on_c, 0, 74, 0
2, 61680, Note_on_c, 0, 75, 63
2, 61800, Note_on_c, 0, 75, 0
2, 61800, Note_on_c, 0, 76, 62
2, 61920, Note_on_c, 0, 76, 0
2, 61920, Note_on_c, 0, 77, 61
2, 62040, Note_on_c, 0, 77, 0
2, 62040, Note_on_c, 0, 78, 60
2, 62160, Note_on_c, 0, 78, 0
2, 62160, Note_on_c, 0, 79, 59
2, 62280, Note_on_c, 0, 79, 0
2, 62280, Note_on_c, 0, 73, 58
2, 62400, Note_on_c, 0, 73, 0
2, 62400, Note_on_c, 0, 74, 57
2, 62880, Note_on_c, 0, 74, 0
2, 63600, Note_on_c, 0, 73, 57
2, 63720, Note_on_c, 0, 73, 0
2, 63840, Note_on_c, 0, 74, 57
2, 64080, Note_on_c, 0, 74, 0
2, 64560, Note_on_c, 0, 78, 58
2, 64680, Note_on_c, 0, 78, 0
2, 64800, Note_on_c, 0, 76, 58
2, 65040, Note_on_c, 0, 76, 0
2, 65520, Note_on_c, 0, 76, 59
2, 65640, Note_on_c, 0, 76, 0
2, 65760, Note_on_c, 0, 74, 60
2, 66000, Note_on_c, 0, 74, 0
2, 67440, Note_on_c, 0, 77, 62
2, 67560, Note_on_c, 0, 77, 0
2, 67680, Note_on_c, 0, 78, 62
2, 67920, Note_on_c, 0, 78, 0
2, 68400, Note_on_c, 0, 85, 63
2, 68520, Note_on_c, 0, 85, 0
2, 68640, Note_on_c, 0, 86, 64
2, 68880, Note_on_c, 0, 86, 0
2, 69360, Note_on_c, 0, 86, 65
2, 69480, Note_on_c, 0, 86, 0
2, 69600, Note_on_c, 0, 76, 65
2, 69840, Note_on_c, 0, 76, 0
2, 70320, Note_on_c, 0, 88, 66
2, 70560, Note_on_c, 0, 88, 0
2, 70560, Note_on_c, 0, 86, 66
2, 70800, Note_on_c, 0, 86, 0
2, 70800, Note_on_c, 0, 83, 66
2, 71040, Note_on_c, 0, 83, 0
2, 71280, Note_on_c, 0, 87, 67
2, 71400, Note_on_c, 0, 87, 0
2, 71520, Note_on_c, 0, 88, 67
2, 71760, Note_on_c, 0, 88, 0
2, 72240, Note_on_c, 0, 87, 68
2, 72360, Note_on_c, 0, 87, 0
2, 72480, Note_on_c, 0, 88, 69
2, 72720, Note_on_c, 0, 88, 0
2, 73200, Note_on_c, 0, 88, 69
2, 73440, Note_on_c, 0, 88, 0
2, 73440, Note_on_c, 0, 81, 68
2, 73680, Note_on_c, 0, 81, 0
2, 75120, Note_on_c, 0, 87, 54
2, 75240, Note_on_c, 0, 87, 0
2, 75360, Note_on_c, 0, 88, 55
2, 75600, Note_on_c, 0, 88, 0
2, 76080, Note_on_c, 0, 87, 56
2, 76200, Note_on_c, 0, 87, 0
2, 76320, Note_on_c, 0, 88, 57
2, 76560, Note_on_c, 0, 88, 0
2, 77040, Note_on_c, 0, 84, 58
2, 77160, Note_on_c, 0, 84, 0
2, 77280, Note_on_c, 0, 85, 58
2, 77520, Note_on_c, 0, 85, 0
2, 78000, Note_on_c, 0, 80, 60
2, 78120, Note_on_c, 0, 80, 0
2, 78240, Note_on_c, 0, 81, 60
2, 78480, Note_on_c, 0, 81, 0
2, 79200, Note_on_c, 0, 88, 63
2, 79440, Note_on_c, 0, 88, 0
2, 79440, Note_on_c, 0, 86, 62
2, 79680, Note_on_c, 0, 86, 0
2, 79680, Note_on_c, 0, 85, 62
2, 79920, Note_on_c, 0, 85, 0
2, 79920, Note_on_c, 0, 83, 62
2, 80160, Note_on_c, 0, 83, 0
2, 80160, Note_on_c, 0, 81, 61
2, 80400, Note_on_c, 0, 81, 0
2, 80400, Note_on_c, 0, 79, 61
2, 80640, Note_on_c, 0, 79, 0
2, 80640, Note_on_c, 0, 78, 61
2, 80760, Note_on_c, 0, 78, 0
2, 80880, Note_on_c, 0, 85, 60
2, 81000, Note_on_c, 0, 85, 0
2, 81120, Note_on_c, 0, 86, 60
2, 81240, Note_on_c, 0, 86, 0
2, 81840, Note_on_c, 0, 82, 59
2, 81960, Note_on_c, 0, 82, 0
2, 82080, Note_on_c, 0, 83, 59
2, 82320, Note_on_c, 0, 83, 0
2, 82800, Note_on_c, 0, 80, 58
2, 82920, Note_on_c, 0, 80, 0
2, 83040, Note_on_c, 0, 81, 57
2, 83280, Note_on_c, 0, 81, 0
2, 83760, Note_on_c, 0, 80, 56
2, 84000, Note_on_c, 0, 80, 0
2, 84000, Note_on_c, 0, 81, 56
2, 84240, Note_on_c, 0, 81, 0
2, 84240, Note_on_c, 0, 73, 56
2, 84360, Note_on_c, 0, 73, 0
2, 84480, Note_on_c, 0, 74, 60
2, 84558, Note_on_c, 0, 74, 0
2, 84600, Note_on_c, 0, 69, 60
2, 84678, Note_on_c, 0, 69, 0
2, 84720, Note_on_c, 0, 71, 60
2, 84798, Note_on_c, 0, 71, 0
2, 84840, Note_on_c, 0, 73, 60
2, 84918, Note_on_c, 0, 73, 0
2, 84960, Note_on_c, 0, 74, 60
2, 85038, Note_on_c, 0, 74, 0
2, 85080, Note_on_c, 0, 76, 61
2, 85158, Note_on_c, 0, 76, 0
2, 85200, Note_on_c, 0, 78, 61
2, 85278, Note_on_c, 0, 78, 0
2, 85320, Note_on_c, 0, 79, 61
2, 85398, Note_on_c, 0, 79, 0
2, 85440, Note_on_c, 0, 81, 61
2, 86478, Note_on_c, 0, 81, 0
2, 86520, Note_on_c, 0, 69, 63
2, 86598, Note_on_c, 0, 69, 0
2, 86640, Note_on_c, 0, 71, 63
2, 86718, Note_on_c, 0, 71, 0
2, 86760, Note_on_c, 0, 73, 63
2, 86838, Note_on_c, 0, 73, 0
2, 86880, Note_on_c, 0, 74, 64
2, 86958, Note_on_c, 0, 74, 0
2, 87000, Note_on_c, 0, 76, 64
2, 87078, Note_on_c, 0, 76, 0
2, 87120, Note_on_c, 0, 78, 64
2, 87198, Note_on_c, 0, 78, 0
2, 87240, Note_on_c, 0, 79, 64
2, 87318, Note_on_c, 0, 79, 0
2, 87360, Note_on_c, 0, 81, 65
2, 88398, Note_on_c, 0, 81, 0
2, 88440, Note_on_c, 0, 74, 66
2, 88518, Note_on_c, 0, 74, 0
2, 88560, Note_on_c, 0, 76, 67
2, 88638, Note_on_c, 0, 76, 0
2, 88680, Note_on_c, 0, 78, 67
2, 88758, Note_on_c, 0, 78, 0
2, 88800, Note_on_c, 0, 79, 67
2, 88878, Note_on_c, 0, 79, 0
2, 88920, Note_on_c, 0, 81, 67
2, 88998, Note_on_c, 0, 81, 0
2, 89040, Note_on_c, 0, 83, 67
2, 89118, Note_on_c, 0, 83, 0
2, 89160, Note_on_c, 0, 85, 68
2, 89238, Note_on_c, 0, 85, 0
2, 89280, Note_on_c, 0, 86, 68
2, 89760, Note_on_c, 0, 86, 0
2, 89760, Note_on_c, 0, 87, 69
2, 90240, Note_on_c, 0, 87, 0
2, 90240, Note_on_c, 0, 88, 69
2, 90360, Note_on_c, 0, 88, 0
2, 90480, Note_on_c, 0, 76, 70
2, 90600, Note_on_c, 0, 76, 0
2, 90720, Note_on_c, 0, 83, 70
2, 90840, Note_on_c, 0, 83, 0
2, 90960, Note_on_c, 0, 71, 71
2, 91080, Note_on_c, 0, 71, 0
2, 91440, Note_on_c, 0, 76, 72
2, 91560, Note_on_c, 0, 76, 0
2, 91680, Note_on_c, 0, 85, 72
2, 91800, Note_on_c, 0, 85, 0
2, 92640, Note_on_c, 0, 88, 72
2, 93120, Note_on_c, 0, 88, 0
2, 93120, Note_on_c, 0, 86, 60
2, 93495, Note_on_c, 0, 86, 0
2, 93600, Note_on_c, 0, 57, 55
2, 94080, Note_on_c, 0, 57, 0
2, 94080, Note_on_c, 0, 62, 58
2, 94800, Note_on_c, 0, 64, 60
2, 94822, Note_on_c, 0, 62, 0
2, 94860, Note_on_c, 0, 62, 62
2, 94875, Note_on_c, 0, 64, 0
2, 94920, Note_on_c, 0, 61, 64
2, 94935, Note_on_c, 0, 62, 0
2, 94980, Note_on_c, 0, 62, 66
2, 95002, Note_on_c, 0, 61, 0
2, 95040, Note_on_c, 0, 61, 73
2, 95040, Note_on_c, 0, 66, 73
2, 95055, Note_on_c, 0, 62, 0
2, 95760, Note_on_c, 0, 66, 0
2, 95760, Note_on_c, 0, 64, 63
2, 96000, Note_on_c, 0, 64, 0
2, 96000, Note_on_c, 0, 61, 0
2, 96000, Note_on_c, 0, 64, 61
2, 96480, Note_on_c, 0, 64, 0
2, 96480, Note_on_c, 0, 62, 57
2, 96960, Note_on_c, 0, 62, 0
2, 97440, Note_on_c, 0, 74, 61
2, 97800, Note_on_c, 0, 74, 0
2, 97800, Note_on_c, 0, 73, 63
2, 97920, Note_on_c, 0, 73, 0
2, 97920, Note_on_c, 0, 73, 67
2, 98160, Note_on_c, 0, 73, 0
2, 98160, Note_on_c, 0, 71, 65
2, 98400, Note_on_c, 0, 71, 0
2, 98640, Note_on_c, 0, 70, 61
2, 98760, Note_on_c, 0, 70, 0
2, 98760, Note_on_c, 0, 71, 60
2, 98880, Note_on_c, 0, 71, 0
2, 99120, Note_on_c, 0, 73, 63
2, 99240, Note_on_c, 0, 73, 0
2, 99240, Note_on_c, 0, 74, 64
2, 99360, Note_on_c, 0, 74, 0
2, 99600, Note_on_c, 0, 77, 66
2, 99720, Note_on_c, 0, 77, 0
2, 99720, Note_on_c, 0, 78, 66
2, 99840, Note_on_c, 0, 78, 0
2, 99840, Note_on_c, 0, 78, 69
2, 100320, Note_on_c, 0, 78, 0
2, 100320, Note_on_c, 0, 76, 67
2, 101280, Note_on_c, 0, 76, 0
2, 101280, Note_on_c, 0, 62, 63
2, 101400, Note_on_c, 0, 62, 0
2, 101400, Note_on_c, 0, 61, 63
2, 101520, Note_on_c, 0, 61, 0
2, 101520, Note_on_c, 0, 62, 62
2, 101640, Note_on_c, 0, 62, 0
2, 101640, Note_on_c, 0, 59, 62
2, 101760, Note_on_c, 0, 59, 0
2, 101760, Note_on_c, 0, 57, 61
2, 102960, Note_on_c, 0, 57, 0
2, 102960, Note_on_c, 0, 59, 57
2, 103020, Note_on_c, 0, 57, 56
2, 103035, Note_on_c, 0, 59, 0
2, 103080, Note_on_c, 0, 56, 56
2, 103110, Note_on_c, 0, 57, 0
2, 103140, Note_on_c, 0, 57, 55
2, 103170, Note_on_c, 0, 56, 0
2, 103200, Note_on_c, 0, 61, 55
2, 103222, Note_on_c, 0, 57, 0
2, 103560, Note_on_c, 0, 61, 0
2, 103560, Note_on_c, 0, 59, 53
2, 103680, Note_on_c, 0, 59, 0
2, 103680, Note_on_c, 0, 57, 53
2, 104160, Note_on_c, 0, 57, 0
2, 105120, Note_on_c, 0, 69, 58
2, 105600, Note_on_c, 0, 69, 0
2, 105600, Note_on_c, 0, 79, 59
2, 106800, Note_on_c, 0, 79, 0
2, 106800, Note_on_c, 0, 81, 63
2, 106920, Note_on_c, 0, 81, 0
2, 106920, Note_on_c, 0, 79, 64
2, 107040, Note_on_c, 0, 79, 0
2, 107040, Note_on_c, 0, 78, 64
2, 107160, Note_on_c, 0, 78, 0
2, 107280, Note_on_c, 0, 76, 65
2, 107400, Note_on_c, 0, 76, 0
2, 107520, Note_on_c, 0, 74, 67
2, 108000, Note_on_c, 0, 74, 0
2, 108000, Note_on_c, 0, 73, 66
2, 108960, Note_on_c, 0, 73, 0
2, 108960, Note_on_c, 0, 64, 63
2, 109440, Note_on_c, 0, 64, 0
2, 109440, Note_on_c, 0, 64, 62
2, 110160, Note_on_c, 0, 64, 0
2, 110160, Note_on_c, 0, 62, 61
2, 110280, Note_on_c, 0, 62, 0
2, 110280, Note_on_c, 0, 61, 60
2, 110400, Note_on_c, 0, 61, 0
2, 110400, Note_on_c, 0, 59, 60
2, 110640, Note_on_c, 0, 59, 0
2, 110640, Note_on_c, 0, 57, 60
2, 111120, Note_on_c, 0, 57, 0
2, 111120, Note_on_c, 0, 55, 59
2, 111360, Note_on_c, 0, 55, 0
2, 111360, Note_on_c, 0, 55, 58
2, 111440, Note_on_c, 0, 55, 0
2, 111440, Note_on_c, 0, 57, 58
2, 111520, Note_on_c, 0, 57, 0
2, 111520, Note_on_c, 0, 55, 58
2, 111600, Note_on_c, 0, 55, 0
2, 111600, Note_on_c, 0, 54, 58
2, 111720, Note_on_c, 0, 54, 0
2, 111720, Note_on_c, 0, 55, 57
2, 111840, Note_on_c, 0, 55, 0
2, 111840, Note_on_c, 0, 54, 57
2, 112320, Note_on_c, 0, 54, 0
2, 112320, Note_on_c, 0, 64, 56
2, 113040, Note_on_c, 0, 64, 0
2, 113040, Note_on_c, 0, 65, 54
2, 113280, Note_on_c, 0, 65, 0
2, 113280, Note_on_c, 0, 66, 54
2, 113760, Note_on_c, 0, 66, 0
2, 114000, Note_on_c, 0, 62, 52
2, 114480, Note_on_c, 0, 62, 0
2, 114480, Note_on_c, 0, 64, 51
2, 114540, Note_on_c, 0, 64, 0
2, 114540, Note_on_c, 0, 62, 51
2, 114600, Note_on_c, 0, 62, 0
2, 114600, Note_on_c, 0, 61, 51
2, 114660, Note_on_c, 0, 61, 0
2, 114660, Note_on_c, 0, 62, 51
2, 114720, Note_on_c, 0, 62, 0
2, 114720, Note_on_c, 0, 66, 50
2, 114960, Note_on_c, 0, 66, 0
2, 114960, Note_on_c, 0, 64, 50
2, 115200, Note_on_c, 0, 64, 0
2, 115200, Note_on_c, 0, 62, 54
2, 115440, Note_on_c, 0, 62, 0
2, 115440, Note_on_c, 0, 80, 56
2, 115596, Note_on_c, 0, 80, 0
2, 115680, Note_on_c, 0, 81, 58
2, 115836, Note_on_c, 0, 81, 0
2, 115920, Note_on_c, 0, 82, 60
2, 116076, Note_on_c, 0, 82, 0
2, 116160, Note_on_c, 0, 83, 66
2, 116640, Note_on_c, 0, 83, 0
2, 116640, Note_on_c, 0, 81, 61
2, 116880, Note_on_c, 0, 81, 0
2, 117360, Note_on_c, 0, 80, 65
2, 117516, Note_on_c, 0, 80, 0
2, 117600, Note_on_c, 0, 81, 66
2, 117756, Note_on_c, 0, 81, 0
2, 117840, Note_on_c, 0, 82, 67
2, 117996, Note_on_c, 0, 82, 0
2, 118080, Note_on_c, 0, 83, 75
2, 118560, Note_on_c, 0, 83, 0
2, 118560, Note_on_c, 0, 81, 69
2, 118800, Note_on_c, 0, 81, 0
2, 119280, Note_on_c, 0, 80, 74
2, 119436, Note_on_c, 0, 80, 0
2, 119520, Note_on_c, 0, 81, 75
2, 119676, Note_on_c, 0, 81, 0
2, 119760, Note_on_c, 0, 83, 77
2, 119916, Note_on_c, 0, 83, 0
2, 120000, Note_on_c, 0, 84, 78
2, 120156, Note_on_c, 0, 84, 0
2, 120480, Note_on_c, 0, 79, 80
2, 120636, Note_on_c, 0, 79, 0
2, 120720, Note_on_c, 0, 81, 81
2, 120876, Note_on_c, 0, 81, 0
2, 120960, Note_on_c, 0, 83, 83
2, 121116, Note_on_c, 0, 83, 0
2, 121200, Note_on_c, 0, 88, 84
2, 121680, Note_on_c, 0, 88, 0
2, 121680, Note_on_c, 0, 88, 89
2, 122160, Note_on_c, 0, 88, 0
2, 122160, Note_on_c, 0, 88, 85
2, 122400, Note_on_c, 0, 88, 0
2, 122400, Note_on_c, 0, 86, 81
2, 122640, Note_on_c, 0, 86, 0
2, 122640, Note_on_c, 0, 85, 76
2, 122880, Note_on_c, 0, 85, 0
2, 122880, Note_on_c, 0, 88, 71
2, 123840, Note_on_c, 0, 88, 0
2, 123840, Note_on_c, 0, 86, 54
2, 124080, Note_on_c, 0, 86, 0
2, 130080, Note_on_c, 0, 78, 80
2, 130184, Note_on_c, 0, 78, 0
2, 130240, Note_on_c, 0, 83, 80
2, 130344, Note_on_c, 0, 83, 0
2, 130400, Note_on_c, 0, 86, 80
2, 130504, Note_on_c, 0, 86, 0
2, 130560, Note_on_c, 0, 76, 81
2, 130664, Note_on_c, 0, 76, 0
2, 130720, Note_on_c, 0, 88, 81
2, 130824, Note_on_c, 0, 88, 0
2, 130880, Note_on_c, 0, 88, 81
2, 130984, Note_on_c, 0, 88, 0
2, 131040, Note_on_c, 0, 88, 81
2, 131144, Note_on_c, 0, 88, 0
2, 131200, Note_on_c, 0, 88, 81
2, 131304, Note_on_c, 0, 88, 0
2, 131360, Note_on_c, 0, 88, 82
2, 131464, Note_on_c, 0, 88, 0
2, 131520, Note_on_c, 0, 88, 82
2, 131624, Note_on_c, 0, 88, 0
2, 131680, Note_on_c, 0, 88, 82
2, 131784, Note_on_c, 0, 88, 0
2, 131840, Note_on_c, 0, 88, 82
2, 131944, Note_on_c, 0, 88, 0
2, 132000, Note_on_c, 0, 88, 82
2, 132104, Note_on_c, 0, 88, 0
2, 132160, Note_on_c, 0, 86, 83
2, 132264, Note_on_c, 0, 86, 0
2, 132320, Note_on_c, 0, 83, 83
2, 132424, Note_on_c, 0, 83, 0
2, 132480, Note_on_c, 0, 81, 83
2, 132584, Note_on_c, 0, 81, 0
2, 132640, Note_on_c, 0, 88, 83
2, 132744, Note_on_c, 0, 88, 0
2, 132800, Note_on_c, 0, 88, 83
2, 132904, Note_on_c, 0, 88, 0
2, 132960, Note_on_c, 0, 88, 83
2, 133064, Note_on_c, 0, 88, 0
2, 133120, Note_on_c, 0, 88, 84
2, 133224, Note_on_c, 0, 88, 0
2, 133280, Note_on_c, 0, 88, 84
2, 133384, Note_on_c, 0, 88, 0
2, 133440, Note_on_c, 0, 88, 84
2, 133544, Note_on_c, 0, 88, 0
2, 133600, Note_on_c, 0, 88, 84
2, 133704, Note_on_c, 0, 88, 0
2, 133760, Note_on_c, 0, 88, 84
2, 133864, Note_on_c, 0, 88, 0
2, 133920, Note_on_c, 0, 88, 85
2, 134024, Note_on_c, 0, 88, 0
2, 134080, Note_on_c, 0, 80, 85
2, 134184, Note_on_c, 0, 80, 0
2, 134240, Note_on_c, 0, 88, 85
2, 134344, Note_on_c, 0, 88, 0
2, 134400, Note_on_c, 0, 88, 85
2, 134504, Note_on_c, 0, 88, 0
2, 134560, Note_on_c, 0, 88, 84
2, 134720, Note_on_c, 0, 88, 0
2, 134720, Note_on_c, 0, 85, 83
2, 134824, Note_on_c, 0, 85, 0
2, 134880, Note_on_c, 0, 81, 82
2, 134984, Note_on_c, 0, 81, 0
2, 135040, Note_on_c, 0, 85, 82
2, 135200, Note_on_c, 0, 85, 0
2, 135200, Note_on_c, 0, 81, 81
2, 135304, Note_on_c, 0, 81, 0
2, 135360, Note_on_c, 0, 76, 80
2, 135464, Note_on_c, 0, 76, 0
2, 135520, Note_on_c, 0, 81, 79
2, 135680, Note_on_c, 0, 81, 0
2, 135680, Note_on_c, 0, 76, 78
2, 135784, Note_on_c, 0, 76, 0
2, 135840, Note_on_c, 0, 73, 77
2, 135944, Note_on_c, 0, 73, 0
2, 136000, Note_on_c, 0, 76, 77
2, 136160, Note_on_c, 0, 76, 0
2, 136160, Note_on_c, 0, 73, 76
2, 136264, Note_on_c, 0, 73, 0
2, 136320, Note_on_c, 0, 69, 72
2, 136800, Note_on_c, 0, 69, 0
2, 137920, Note_on_c, 0, 61, 74
2, 138024, Note_on_c, 0, 61, 0
2, 138080, Note_on_c, 0, 64, 74
2, 138184, Note_on_c, 0, 64, 0
2, 138240, Note_on_c, 0, 69, 74
2, 138344, Note_on_c, 0, 69, 0
2, 138400, Note_on_c, 0, 73, 74
2, 138504, Note_on_c, 0, 73, 0
2, 138560, Note_on_c, 0, 76, 74
2, 138664, Note_on_c, 0, 76, 0
2, 138720, Note_on_c, 0, 79, 75
2, 138824, Note_on_c, 0, 79, 0
2, 138880, Note_on_c, 0, 79, 75
2, 138984, Note_on_c, 0, 79, 0
2, 139040, Note_on_c, 0, 79, 75
2, 139144, Note_on_c, 0, 79, 0
2, 139200, Note_on_c, 0, 79, 75
2, 139304, Note_on_c, 0, 79, 0
2, 139360, Note_on_c, 0, 79, 75
2, 139464, Note_on_c, 0, 79, 0
2, 139520, Note_on_c, 0, 79, 76
2, 139624, Note_on_c, 0, 79, 0
2, 139680, Note_on_c, 0, 79, 76
2, 139784, Note_on_c, 0, 79, 0
2, 139840, Note_on_c, 0, 78, 76
2, 139944, Note_on_c, 0, 78, 0
2, 140000, Note_on_c, 0, 76, 76
2, 140104, Note_on_c, 0, 76, 0
2, 140160, Note_on_c, 0, 74, 76
2, 140320, Note_on_c, 0, 74, 0
2, 140320, Note_on_c, 0, 73, 77
2, 140424, Note_on_c, 0, 73, 0
2, 140480, Note_on_c, 0, 88, 77
2, 140584, Note_on_c, 0, 88, 0
2, 140640, Note_on_c, 0, 88, 77
2, 140744, Note_on_c, 0, 88, 0
2, 140800, Note_on_c, 0, 88, 77
2, 140960, Note_on_c, 0, 88, 0
2, 140960, Note_on_c, 0, 86, 77
2, 141064, Note_on_c, 0, 86, 0
2, 141120, Note_on_c, 0, 85, 78
2, 141224, Note_on_c, 0, 85, 0
2, 141280, Note_on_c, 0, 85, 78
2, 141440, Note_on_c, 0, 85, 0
2, 141440, Note_on_c, 0, 83, 78
2, 141544, Note_on_c, 0, 83, 0
2, 141600, Note_on_c, 0, 81, 78
2, 141704, Note_on_c, 0, 81, 0
2, 141760, Note_on_c, 0, 81, 78
2, 141920, Note_on_c, 0, 81, 0
2, 141920, Note_on_c, 0, 79, 78
2, 142024, Note_on_c, 0, 79, 0
2, 142080, Note_on_c, 0, 86, 88
2, 142240, Note_on_c, 0, 86, 0
2, 142240, Note_on_c, 0, 81, 81
2, 142344, Note_on_c, 0, 81, 0
2, 142400, Note_on_c, 0, 78, 79
2, 142504, Note_on_c, 0, 78, 0
2, 142560, Note_on_c, 0, 78, 79
2, 142664, Note_on_c, 0, 78, 0
2, 142720, Note_on_c, 0, 78, 79
2, 142824, Note_on_c, 0, 78, 0
2, 142880, Note_on_c, 0, 78, 80
2, 142980, Note_on_c, 0, 76, 88
2, 142984, Note_on_c, 0, 78, 0
2, 143040, Note_on_c, 0, 76, 0
2, 143040, Note_on_c, 0, 86, 92
2, 143200, Note_on_c, 0, 86, 0
2, 143200, Note_on_c, 0, 83, 80
2, 143304, Note_on_c, 0, 83, 0
2, 143360, Note_on_c, 0, 76, 80
2, 143464, Note_on_c, 0, 76, 0
2, 143520, Note_on_c, 0, 76, 80
2, 143624, Note_on_c, 0, 76, 0
2, 143680, Note_on_c, 0, 76, 81
2, 143784, Note_on_c, 0, 76, 0
2, 143840, Note_on_c, 0, 76, 81
2, 143940, Note_on_c, 0, 77, 88
2, 143944, Note_on_c, 0, 76, 0
2, 144000, Note_on_c, 0, 77, 0
2, 144000, Note_on_c, 0, 86, 93
2, 144160, Note_on_c, 0, 86, 0
2, 144160, Note_on_c, 0, 83, 81
2, 144270, Note_on_c, 0, 83, 0
2, 144320, Note_on_c, 0, 77, 81
2, 144420, Note_on_c, 0, 78, 82
2, 144424, Note_on_c, 0, 77, 0
2, 144480, Note_on_c, 0, 78, 0
2, 144480, Note_on_c, 0, 86, 82
2, 144640, Note_on_c, 0, 86, 0
2, 144640, Note_on_c, 0, 81, 82
2, 144744, Note_on_c, 0, 81, 0
2, 144800, Note_on_c, 0, 78, 82
2, 144904, Note_on_c, 0, 78, 0
2, 144960, Note_on_c, 0, 86, 95
2, 145120, Note_on_c, 0, 86, 0
2, 145120, Note_on_c, 0, 81, 82
2, 145224, Note_on_c, 0, 81, 0
2, 145280, Note_on_c, 0, 78, 83
2, 145380, Note_on_c, 0, 79, 83
2, 145384, Note_on_c, 0, 78, 0
2, 145440, Note_on_c, 0, 79, 0
2, 145440, Note_on_c, 0, 85, 83
2, 145600, Note_on_c, 0, 81, 83
2, 145601, Note_on_c, 0, 85, 0
2, 145704, Note_on_c, 0, 81, 0
2, 145760, Note_on_c, 0, 79, 83
2, 145864, Note_on_c, 0, 79, 0
2, 145920, Note_on_c, 0, 86, 83
2, 146080, Note_on_c, 0, 86, 0
2, 146240, Note_on_c, 0, 81, 72
2, 146344, Note_on_c, 0, 81, 0
2, 146400, Note_on_c, 0, 81, 72
2, 146504, Note_on_c, 0, 81, 0
2, 146560, Note_on_c, 0, 81, 72
2, 146664, Note_on_c, 0, 81, 0
2, 146720, Note_on_c, 0, 81, 72
2, 146824, Note_on_c, 0, 81, 0
2, 146880, Note_on_c, 0, 79, 73
2, 147120, Note_on_c, 0, 79, 0
2, 148160, Note_on_c, 0, 81, 74
2, 148264, Note_on_c, 0, 81, 0
2, 148320, Note_on_c, 0, 81, 75
2, 148424, Note_on_c, 0, 81, 0
2, 148480, Note_on_c, 0, 81, 75
2, 148584, Note_on_c, 0, 81, 0
2, 148640, Note_on_c, 0, 81, 75
2, 148744, Note_on_c, 0, 81, 0
2, 148800, Note_on_c, 0, 81, 75
2, 148960, Note_on_c, 0, 73, 75
2, 149040, Note_on_c, 0, 81, 0
2, 149064, Note_on_c, 0, 73, 0
2, 149120, Note_on_c, 0, 73, 76
2, 149224, Note_on_c, 0, 73, 0
2, 149280, Note_on_c, 0, 73, 76
2, 149384, Note_on_c, 0, 73, 0
2, 149440, Note_on_c, 0, 73, 76
2, 149544, Note_on_c, 0, 73, 0
2, 149600, Note_on_c, 0, 73, 76
2, 149704, Note_on_c, 0, 73, 0
2, 149760, Note_on_c, 0, 74, 76
2, 149864, Note_on_c, 0, 74, 0
2, 149920, Note_on_c, 0, 78, 77
2, 150024, Note_on_c, 0, 78, 0
2, 150080, Note_on_c, 0, 79, 77
2, 150184, Note_on_c, 0, 79, 0
2, 150240, Note_on_c, 0, 81, 77
2, 150344, Note_on_c, 0, 81, 0
2, 150400, Note_on_c, 0, 81, 77
2, 150504, Note_on_c, 0, 81, 0
2, 150560, Note_on_c, 0, 83, 77
2, 150664, Note_on_c, 0, 83, 0
2, 150720, Note_on_c, 0, 84, 78
2, 150780, Note_on_c, 0, 84, 0
2, 150780, Note_on_c, 0, 86, 78
2, 150840, Note_on_c, 0, 86, 0
2, 150840, Note_on_c, 0, 84, 78
2, 150900, Note_on_c, 0, 84, 0
2, 150900, Note_on_c, 0, 86, 78
2, 150960, Note_on_c, 0, 86, 0
2, 150960, Note_on_c, 0, 84, 78
2, 151020, Note_on_c, 0, 84, 0
2, 151020, Note_on_c, 0, 86, 78
2, 151080, Note_on_c, 0, 86, 0
2, 151080, Note_on_c, 0, 84, 78
2, 151140, Note_on_c, 0, 84, 0
2, 151140, Note_on_c, 0, 86, 78
2, 151200, Note_on_c, 0, 86, 0
2, 151200, Note_on_c, 0, 84, 78
2, 151280, Note_on_c, 0, 84, 0
2, 151280, Note_on_c, 0, 86, 78
2, 151360, Note_on_c, 0, 86, 0
2, 151360, Note_on_c, 0, 84, 78
2, 151440, Note_on_c, 0, 84, 0
2, 151440, Note_on_c, 0, 83, 79
2, 151560, Note_on_c, 0, 83, 0
2, 151560, Note_on_c, 0, 81, 79
2, 151680, Note_on_c, 0, 81, 0
2, 151680, Note_on_c, 0, 79, 79
2, 151760, Note_on_c, 0, 79, 0
2, 151760, Note_on_c, 0, 81, 79
2, 151840, Note_on_c, 0, 81, 0
2, 151840, Note_on_c, 0, 79, 79
2, 151920, Note_on_c, 0, 79, 0
2, 151920, Note_on_c, 0, 78, 79
2, 152040, Note_on_c, 0, 78, 0
2, 152040, Note_on_c, 0, 76, 79
2, 152160, Note_on_c, 0, 76, 0
2, 152160, Note_on_c, 0, 76, 80
2, 152240, Note_on_c, 0, 76, 0
2, 152240, Note_on_c, 0, 78, 80
2, 152320, Note_on_c, 0, 78, 0
2, 152320, Note_on_c, 0, 76, 80
2, 152400, Note_on_c, 0, 76, 0
2, 152400, Note_on_c, 0, 74, 80
2, 152520, Note_on_c, 0, 74, 0
2, 152520, Note_on_c, 0, 72, 80
2, 152640, Note_on_c, 0, 72, 0
2, 152640, Note_on_c, 0, 73, 80
2, 152720, Note_on_c, 0, 73, 0
2, 152720, Note_on_c, 0, 74, 80
2, 152800, Note_on_c, 0, 74, 0
2, 152800, Note_on_c, 0, 73, 80
2, 152880, Note_on_c, 0, 73, 0
2, 152880, Note_on_c, 0, 71, 80
2, 153000, Note_on_c, 0, 71, 0
2, 153000, Note_on_c, 0, 69, 81
2, 153120, Note_on_c, 0, 69, 0
2, 153120, Note_on_c, 0, 81, 81
2, 153200, Note_on_c, 0, 81, 0
2, 153200, Note_on_c, 0, 83, 81
2, 153280, Note_on_c, 0, 83, 0
2, 153280, Note_on_c, 0, 81, 81
2, 153360, Note_on_c, 0, 81, 0
2, 153360, Note_on_c, 0, 83, 81
2, 153480, Note_on_c, 0, 83, 0
2, 153480, Note_on_c, 0, 85, 81
2, 153600, Note_on_c, 0, 85, 0
2, 153600, Note_on_c, 0, 85, 81
2, 153660, Note_on_c, 0, 85, 0
2, 153660, Note_on_c, 0, 86, 80
2, 153720, Note_on_c, 0, 86, 0
2, 153720, Note_on_c, 0, 85, 80
2, 153780, Note_on_c, 0, 85, 0
2, 153780, Note_on_c, 0, 86, 79
2, 153840, Note_on_c, 0, 86, 0
2, 153840, Note_on_c, 0, 85, 78
2, 153900, Note_on_c, 0, 85, 0
2, 153900, Note_on_c, 0, 86, 78
2, 153960, Note_on_c, 0, 86, 0
2, 153960, Note_on_c, 0, 85, 77
2, 154020, Note_on_c, 0, 85, 0
2, 154020, Note_on_c, 0, 86, 76
2, 154080, Note_on_c, 0, 86, 0
2, 154080, Note_on_c, 0, 85, 75
2, 154160, Note_on_c, 0, 85, 0
2, 154160, Note_on_c, 0, 86, 75
2, 154240, Note_on_c, 0, 86, 0
2, 154240, Note_on_c, 0, 85, 74
2, 154320, Note_on_c, 0, 85, 0
2, 154320, Note_on_c, 0, 83, 73
2, 154440, Note_on_c, 0, 83, 0
2, 154440, Note_on_c, 0, 85, 71
2, 154560, Note_on_c, 0, 85, 0
2, 154560, Note_on_c, 0, 86, 70
2, 154800, Note_on_c, 0, 86, 0
2, 155040, Note_on_c, 0, 69, 50
2, 155520, Note_on_c, 0, 69, 0
2, 155520, Note_on_c, 0, 74, 52
2, 156240, Note_on_c, 0, 76, 55
2, 156262, Note_on_c, 0, 74, 0
2, 156300, Note_on_c, 0, 76, 0
2, 156300, Note_on_c, 0, 74, 55
2, 156360, Note_on_c, 0, 74, 0
2, 156360, Note_on_c, 0, 73, 55
2, 156420, Note_on_c, 0, 73, 0
2, 156420, Note_on_c, 0, 74, 55
2, 156480, Note_on_c, 0, 74, 0
2, 156480, Note_on_c, 0, 77, 55
2, 157200, Note_on_c, 0, 77, 0
2, 157200, Note_on_c, 0, 76, 58
2, 157440, Note_on_c, 0, 76, 0
2, 157440, Note_on_c, 0, 76, 61
2, 157920, Note_on_c, 0, 76, 0
2, 157920, Note_on_c, 0, 74, 59
2, 158400, Note_on_c, 0, 74, 0
2, 158880, Note_on_c, 0, 74, 57
2, 159120, Note_on_c, 0, 74, 0
2, 159120, Note_on_c, 0, 72, 56
2, 159360, Note_on_c, 0, 72, 0
2, 159360, Note_on_c, 0, 72, 56
2, 159600, Note_on_c, 0, 72, 0
2, 159600, Note_on_c, 0, 70, 55
2, 159840, Note_on_c, 0, 70, 0
2, 159840, Note_on_c, 0, 69, 55
2, 160080, Note_on_c, 0, 69, 0
2, 160080, Note_on_c, 0, 70, 54
2, 160320, Note_on_c, 0, 70, 0
2, 160320, Note_on_c, 0, 73, 55
2, 160560, Note_on_c, 0, 73, 0
2, 160560, Note_on_c, 0, 74, 57
2, 160800, Note_on_c, 0, 74, 0
2, 160800, Note_on_c, 0, 76, 59
2, 161040, Note_on_c, 0, 76, 0
2, 161040, Note_on_c, 0, 77, 61
2, 161280, Note_on_c, 0, 77, 0
2, 161280, Note_on_c, 0, 77, 64
2, 161760, Note_on_c, 0, 77, 0
2, 161760, Note_on_c, 0, 76, 70
2, 162480, Note_on_c, 0, 76, 0
2, 162480, Note_on_c, 0, 88, 64
2, 162720, Note_on_c, 0, 88, 0
2, 162720, Note_on_c, 0, 86, 64
2, 162960, Note_on_c, 0, 86, 0
2, 162960, Note_on_c, 0, 83, 63
2, 163200, Note_on_c, 0, 83, 0
2, 163200, Note_on_c, 0, 81, 63
2, 164400, Note_on_c, 0, 81, 0
2, 164400, Note_on_c, 0, 83, 61
2, 164460, Note_on_c, 0, 83, 0
2, 164460, Note_on_c, 0, 81, 61
2, 164520, Note_on_c, 0, 81, 0
2, 164520, Note_on_c, 0, 80, 60
2, 164580, Note_on_c, 0, 80, 0
2, 164580, Note_on_c, 0, 81, 60
2, 164640, Note_on_c, 0, 81, 0
2, 164640, Note_on_c, 0, 84, 60
2, 164880, Note_on_c, 0, 84, 0
2, 164880, Note_on_c, 0, 83, 60
2, 165120, Note_on_c, 0, 83, 0
2, 165120, Note_on_c, 0, 81, 59
2, 165600, Note_on_c, 0, 81, 0
2, 166560, Note_on_c, 0, 69, 56
2, 167040, Note_on_c, 0, 69, 0
2, 167040, Note_on_c, 0, 79, 56
2, 168480, Note_on_c, 0, 79, 0
2, 168480, Note_on_c, 0, 77, 57
2, 168720, Note_on_c, 0, 77, 0
2, 168720, Note_on_c, 0, 76, 57
2, 168960, Note_on_c, 0, 76, 0
2, 168960, Note_on_c, 0, 74, 58
2, 169440, Note_on_c, 0, 74, 0
2, 169440, Note_on_c, 0, 73, 58
2, 170400, Note_on_c, 0, 73, 0
2, 170400, Note_on_c, 0, 88, 59
2, 170880, Note_on_c, 0, 88, 0
2, 170880, Note_on_c, 0, 88, 59
2, 171360, Note_on_c, 0, 88, 0
2, 171360, Note_on_c, 0, 85, 60
2, 171840, Note_on_c, 0, 85, 0
2, 171840, Note_on_c, 0, 81, 60
2, 172320, Note_on_c, 0, 81, 0
2, 172320, Note_on_c, 0, 79, 61
2, 172800, Note_on_c, 0, 79, 0
2, 172800, Note_on_c, 0, 77, 62
2, 173760, Note_on_c, 0, 77, 0
2, 173760, Note_on_c, 0, 75, 67
2, 174240, Note_on_c, 0, 75, 0
2, 174240, Note_on_c, 0, 79, 69
2, 174480, Note_on_c, 0, 79, 0
2, 174480, Note_on_c, 0, 82, 70
2, 174720, Note_on_c, 0, 82, 0
2, 174720, Note_on_c, 0, 74, 81
2, 175200, Note_on_c, 0, 74, 0
2, 175200, Note_on_c, 0, 74, 66
2, 175920, Note_on_c, 0, 74, 0
2, 175920, Note_on_c, 0, 76, 60
2, 175980, Note_on_c, 0, 76, 0
2, 175980, Note_on_c, 0, 74, 60
2, 176040, Note_on_c, 0, 74, 0
2, 176040, Note_on_c, 0, 73, 59
2, 176100, Note_on_c, 0, 73, 0
2, 176100, Note_on_c, 0, 74, 58
2, 176160, Note_on_c, 0, 74, 0
2, 176160, Note_on_c, 0, 77, 58
2, 176400, Note_on_c, 0, 77, 0
2, 176400, Note_on_c, 0, 76, 56
2, 176640, Note_on_c, 0, 76, 0
2, 176640, Note_on_c, 0, 74, 56
2, 177120, Note_on_c, 0, 74, 0
2, 177280, Note_on_c, 0, 81, 57
2, 177440, Note_on_c, 0, 81, 0
2, 177440, Note_on_c, 0, 80, 57
2, 177600, Note_on_c, 0, 80, 0
2, 177600, Note_on_c, 0, 82, 58
2, 177760, Note_on_c, 0, 82, 0
2, 177760, Note_on_c, 0, 81, 58
2, 177864, Note_on_c, 0, 81, 0
2, 177920, Note_on_c, 0, 79, 58
2, 178024, Note_on_c, 0, 79, 0
2, 178080, Note_on_c, 0, 77, 59
2, 178184, Note_on_c, 0, 77, 0
2, 178240, Note_on_c, 0, 76, 59
2, 178344, Note_on_c, 0, 76, 0
2, 178400, Note_on_c, 0, 74, 59
2, 178504, Note_on_c, 0, 74, 0
2, 178560, Note_on_c, 0, 73, 60
2, 179040, Note_on_c, 0, 73, 0
2, 179200, Note_on_c, 0, 82, 61
2, 179360, Note_on_c, 0, 82, 0
2, 179360, Note_on_c, 0, 81, 61
2, 179520, Note_on_c, 0, 81, 0
2, 179520, Note_on_c, 0, 84, 62
2, 179680, Note_on_c, 0, 84, 0
2, 179680, Note_on_c, 0, 82, 62
2, 179784, Note_on_c, 0, 82, 0
2, 179840, Note_on_c, 0, 81, 62
2, 179944, Note_on_c, 0, 81, 0
2, 180000, Note_on_c, 0, 79, 63
2, 180104, Note_on_c, 0, 79, 0
2, 180160, Note_on_c, 0, 77, 63
2, 180264, Note_on_c, 0, 77, 0
2, 180320, Note_on_c, 0, 76, 63
2, 180424, Note_on_c, 0, 76, 0
2, 180480, Note_on_c, 0, 74, 64
2, 180960, Note_on_c, 0, 74, 0
2, 181120, Note_on_c, 0, 86, 65
2, 181280, Note_on_c, 0, 86, 0
2, 181280, Note_on_c, 0, 85, 65
2, 181440, Note_on_c, 0, 85, 0
2, 181440, Note_on_c, 0, 87, 65
2, 181600, Note_on_c, 0, 87, 0
2, 181600, Note_on_c, 0, 86, 66
2, 181760, Note_on_c, 0, 86, 0
2, 181760, Note_on_c, 0, 84, 66
2, 181920, Note_on_c, 0, 84, 0
2, 181920, Note_on_c, 0, 82, 66
2, 182080, Note_on_c, 0, 82, 0
2, 182080, Note_on_c, 0, 81, 67
2, 182240, Note_on_c, 0, 81, 0
2, 182240, Note_on_c, 0, 84, 69
2, 182400, Note_on_c, 0, 84, 0
2, 182400, Note_on_c, 0, 82, 69
2, 182560, Note_on_c, 0, 82, 0
2, 182560, Note_on_c, 0, 81, 68
2, 182720, Note_on_c, 0, 81, 0
2, 182720, Note_on_c, 0, 79, 67
2, 182880, Note_on_c, 0, 79, 0
2, 182880, Note_on_c, 0, 77, 67
2, 183040, Note_on_c, 0, 77, 0
2, 183040, Note_on_c, 0, 76, 66
2, 183200, Note_on_c, 0, 76, 0
2, 183200, Note_on_c, 0, 79, 65
2, 183360, Note_on_c, 0, 79, 0
2, 183360, Note_on_c, 0, 76, 64
2, 183520, Note_on_c, 0, 76, 0
2, 183520, Note_on_c, 0, 74, 64
2, 183680, Note_on_c, 0, 74, 0
2, 183680, Note_on_c, 0, 77, 63
2, 183840, Note_on_c, 0, 77, 0
2, 183840, Note_on_c, 0, 74, 62
2, 184000, Note_on_c, 0, 74, 0
2, 184000, Note_on_c, 0, 73, 61
2, 184160, Note_on_c, 0, 73, 0
2, 184160, Note_on_c, 0, 76, 61
2, 184320, Note_on_c, 0, 76, 0
2, 184320, Note_on_c, 0, 69, 61
2, 184480, Note_on_c, 0, 69, 0
2, 184480, Note_on_c, 0, 73, 60
2, 184640, Note_on_c, 0, 73, 0
2, 184640, Note_on_c, 0, 76, 59
2, 184800, Note_on_c, 0, 76, 0
2, 184800, Note_on_c, 0, 81, 57
2, 184960, Note_on_c, 0, 81, 0
2, 184960, Note_on_c, 0, 80, 56
2, 185120, Note_on_c, 0, 80, 0
2, 185120, Note_on_c, 0, 81, 55
2, 185280, Note_on_c, 0, 81, 0
2, 185280, Note_on_c, 0, 74, 54
2, 185760, Note_on_c, 0, 74, 0
2, 187680, Note_on_c, 0, 69, 56
2, 188040, Note_on_c, 0, 69, 0
2, 188040, Note_on_c, 0, 66, 57
2, 188160, Note_on_c, 0, 66, 0
2, 188160, Note_on_c, 0, 66, 57
2, 188280, Note_on_c, 0, 66, 0
2, 188280, Note_on_c, 0, 69, 57
2, 188400, Note_on_c, 0, 69, 0
2, 188400, Note_on_c, 0, 74, 58
2, 188520, Note_on_c, 0, 74, 0
2, 188520, Note_on_c, 0, 69, 58
2, 188640, Note_on_c, 0, 69, 0
2, 188640, Note_on_c, 0, 78, 59
2, 188760, Note_on_c, 0, 78, 0
2, 188880, Note_on_c, 0, 78, 59
2, 189000, Note_on_c, 0, 78, 0
2, 189120, Note_on_c, 0, 78, 60
2, 189240, Note_on_c, 0, 78, 0
2, 189240, Note_on_c, 0, 79, 60
2, 189360, Note_on_c, 0, 79, 0
2, 189360, Note_on_c, 0, 78, 61
2, 189480, Note_on_c, 0, 78, 0
2, 189480, Note_on_c, 0, 79, 61
2, 189600, Note_on_c, 0, 79, 0
2, 189600, Note_on_c, 0, 76, 61
2, 189720, Note_on_c, 0, 76, 0
2, 189840, Note_on_c, 0, 76, 62
2, 189960, Note_on_c, 0, 76, 0
2, 190080, Note_on_c, 0, 76, 63
2, 190200, Note_on_c, 0, 76, 0
2, 190200, Note_on_c, 0, 78, 63
2, 190320, Note_on_c, 0, 78, 0
2, 190320, Note_on_c, 0, 76, 62
2, 190440, Note_on_c, 0, 76, 0
2, 190440, Note_on_c, 0, 78, 62
2, 190560, Note_on_c, 0, 78, 0
2, 190560, Note_on_c, 0, 74, 62
2, 190680, Note_on_c, 0, 74, 0
2, 190800, Note_on_c, 0, 74, 61
2, 190920, Note_on_c, 0, 74, 0
2, 192000, Note_on_c, 0, 66, 58
2, 192120, Note_on_c, 0, 66, 0
2, 192120, Note_on_c, 0, 69, 58
2, 192240, Note_on_c, 0, 69, 0
2, 192240, Note_on_c, 0, 74, 58
2, 192360, Note_on_c, 0, 74, 0
2, 192360, Note_on_c, 0, 69, 58
2, 192480, Note_on_c, 0, 69, 0
2, 192480, Note_on_c, 0, 78, 59
2, 192600, Note_on_c, 0, 78, 0
2, 192720, Note_on_c, 0, 78, 59
2, 192840, Note_on_c, 0, 78, 0
2, 192960, Note_on_c, 0, 74, 59
2, 193080, Note_on_c, 0, 74, 0
2, 193080, Note_on_c, 0, 78, 60
2, 193200, Note_on_c, 0, 78, 0
2, 193200, Note_on_c, 0, 83, 60
2, 193320, Note_on_c, 0, 83, 0
2, 193320, Note_on_c, 0, 78, 60
2, 193440, Note_on_c, 0, 78, 0
2, 193440, Note_on_c, 0, 86, 60
2, 193560, Note_on_c, 0, 86, 0
2, 193680, Note_on_c, 0, 86, 61
2, 193800, Note_on_c, 0, 86, 0
2, 193920, Note_on_c, 0, 85, 61
2, 194040, Note_on_c, 0, 85, 0
2, 194040, Note_on_c, 0, 86, 61
2, 194160, Note_on_c, 0, 86, 0
2, 194160, Note_on_c, 0, 85, 60
2, 194280, Note_on_c, 0, 85, 0
2, 194280, Note_on_c, 0, 86, 60
2, 194400, Note_on_c, 0, 86, 0
2, 194400, Note_on_c, 0, 76, 59
2, 194520, Note_on_c, 0, 76, 0
2, 194640, Note_on_c, 0, 76, 58
2, 194760, Note_on_c, 0, 76, 0
2, 195840, Note_on_c, 0, 76, 54
2, 195960, Note_on_c, 0, 76, 0
2, 195960, Note_on_c, 0, 81, 55
2, 196080, Note_on_c, 0, 81, 0
2, 196080, Note_on_c, 0, 85, 55
2, 196200, Note_on_c, 0, 85, 0
2, 196200, Note_on_c, 0, 81, 56
2, 196320, Note_on_c, 0, 81, 0
2, 196320, Note_on_c, 0, 88, 56
2, 196440, Note_on_c, 0, 88, 0
2, 196560, Note_on_c, 0, 88, 57
2, 196680, Note_on_c, 0, 88, 0
2, 196800, Note_on_c, 0, 88, 58
2, 197520, Note_on_c, 0, 88, 0
2, 197520, Note_on_c, 0, 80, 62
2, 197760, Note_on_c, 0, 80, 0
2, 197760, Note_on_c, 0, 83, 65
2, 198720, Note_on_c, 0, 83, 0
2, 198720, Note_on_c, 0, 81, 60
2, 199200, Note_on_c, 0, 81, 0
2, 199680, Note_on_c, 0, 67, 58
2, 199800, Note_on_c, 0, 67, 0
2, 199800, Note_on_c, 0, 73, 58
2, 199920, Note_on_c, 0, 73, 0
2, 199920, Note_on_c, 0, 76, 58
2, 200040, Note_on_c, 0, 76, 0
2, 200040, Note_on_c, 0, 73, 58
2, 200160, Note_on_c, 0, 73, 0
2, 200160, Note_on_c, 0, 79, 58
2, 200280, Note_on_c, 0, 79, 0
2, 200400, Note_on_c, 0, 79, 58
2, 200520, Note_on_c, 0, 79, 0
2, 200640, Note_on_c, 0, 79, 59
2, 202920, Note_on_c, 0, 81, 61
2, 202927, Note_on_c, 0, 79, 0
2, 203040, Note_on_c, 0, 81, 0
2, 203040, Note_on_c, 0, 83, 61
2, 203160, Note_on_c, 0, 83, 0
2, 203160, Note_on_c, 0, 85, 61
2, 203280, Note_on_c, 0, 85, 0
2, 203280, Note_on_c, 0, 86, 61
2, 203400, Note_on_c, 0, 86, 0
2, 203400, Note_on_c, 0, 87, 61
2, 203520, Note_on_c, 0, 87, 0
2, 203520, Note_on_c, 0, 88, 61
2, 204240, Note_on_c, 0, 88, 0
2, 204240, Note_on_c, 0, 86, 58
2, 204480, Note_on_c, 0, 86, 0
2, 204480, Note_on_c, 0, 85, 57
2, 204720, Note_on_c, 0, 85, 0
2, 204720, Note_on_c, 0, 83, 55
2, 204960, Note_on_c, 0, 83, 0
2, 204960, Note_on_c, 0, 81, 54
2, 205200, Note_on_c, 0, 81, 0
2, 205200, Note_on_c, 0, 79, 53
2, 205440, Note_on_c, 0, 79, 0
2, 205440, Note_on_c, 0, 78, 52
2, 206400, Note_on_c, 0, 78, 0
2, 206400, Note_on_c, 0, 71, 60
2, 206520, Note_on_c, 0, 71, 0
2, 206520, Note_on_c, 0, 74, 54
2, 206640, Note_on_c, 0, 74, 0
2, 206640, Note_on_c, 0, 79, 55
2, 206760, Note_on_c, 0, 79, 0
2, 206760, Note_on_c, 0, 74, 55
2, 206880, Note_on_c, 0, 74, 0
2, 206880, Note_on_c, 0, 83, 55
2, 207000, Note_on_c, 0, 83, 0
2, 207120, Note_on_c, 0, 83, 56
2, 207240, Note_on_c, 0, 83, 0
2, 207360, Note_on_c, 0, 81, 64
2, 208320, Note_on_c, 0, 81, 0
2, 208320, Note_on_c, 0, 73, 66
2, 208440, Note_on_c, 0, 73, 0
2, 208440, Note_on_c, 0, 76, 59
2, 208560, Note_on_c, 0, 76, 0
2, 208560, Note_on_c, 0, 79, 59
2, 208680, Note_on_c, 0, 79, 0
2, 208680, Note_on_c, 0, 76, 60
2, 208800, Note_on_c, 0, 76, 0
2, 208800, Note_on_c, 0, 85, 60
2, 208920, Note_on_c, 0, 85, 0
2, 209040, Note_on_c, 0, 85, 60
2, 209160, Note_on_c, 0, 85, 0
2, 209280, Note_on_c, 0, 86, 61
2, 209760, Note_on_c, 0, 86, 0
2, 210240, Note_on_c, 0, 69, 63
2, 210360, Note_on_c, 0, 69, 0
2, 210360, Note_on_c, 0, 74, 64
2, 210480, Note_on_c, 0, 74, 0
2, 210480, Note_on_c, 0, 78, 64
2, 210600, Note_on_c, 0, 78, 0
2, 210600, Note_on_c, 0, 74, 64
2, 210720, Note_on_c, 0, 74, 0
2, 210720, Note_on_c, 0, 81, 65
2, 210840, Note_on_c, 0, 81, 0
2, 210960, Note_on_c, 0, 81, 65
2, 211080, Note_on_c, 0, 81, 0
2, 211200, Note_on_c, 0, 81, 66
2, 211680, Note_on_c, 0, 81, 0
2, 212160, Note_on_c, 0, 69, 68
2, 212280, Note_on_c, 0, 69, 0
2, 212280, Note_on_c, 0, 73, 68
2, 212400, Note_on_c, 0, 73, 0
2, 212400, Note_on_c, 0, 79, 69
2, 212520, Note_on_c, 0, 79, 0
2, 212520, Note_on_c, 0, 73, 69
2, 212640, Note_on_c, 0, 73, 0
2, 212640, Note_on_c, 0, 81, 69
2, 212760, Note_on_c, 0, 81, 0
2, 212880, Note_on_c, 0, 81, 70
2, 213000, Note_on_c, 0, 81, 0
2, 213120, Note_on_c, 0, 81, 70
2, 213600, Note_on_c, 0, 81, 0
2, 214080, Note_on_c, 0, 72, 80
2, 214200, Note_on_c, 0, 72, 0
2, 214200, Note_on_c, 0, 75, 73
2, 214320, Note_on_c, 0, 75, 0
2, 214320, Note_on_c, 0, 81, 73
2, 214440, Note_on_c, 0, 81, 0
2, 214440, Note_on_c, 0, 75, 74
2, 214560, Note_on_c, 0, 75, 0
2, 214560, Note_on_c, 0, 84, 74
2, 214680, Note_on_c, 0, 84, 0
2, 214800, Note_on_c, 0, 84, 75
2, 214920, Note_on_c, 0, 84, 0
2, 215040, Note_on_c, 0, 84, 74
2, 215400, Note_on_c, 0, 84, 0
2, 215400, Note_on_c, 0, 83, 70
2, 215520, Note_on_c, 0, 83, 0
2, 215520, Note_on_c, 0, 81, 69
2, 215640, Note_on_c, 0, 81, 0
2, 215640, Note_on_c, 0, 79, 68
2, 215760, Note_on_c, 0, 79, 0
2, 215760, Note_on_c, 0, 78, 66
2, 215880, Note_on_c, 0, 78, 0
2, 215880, Note_on_c, 0, 76, 65
2, 216000, Note_on_c, 0, 76, 0
2, 216000, Note_on_c, 0, 74, 64
2, 216240, Note_on_c, 0, 74, 0
2, 216240, Note_on_c, 0, 76, 61
2, 216300, Note_on_c, 0, 76, 0
2, 216300, Note_on_c, 0, 74, 61
2, 216360, Note_on_c, 0, 74, 0
2, 216360, Note_on_c, 0, 73, 60
2, 216420, Note_on_c, 0, 73, 0
2, 216420, Note_on_c, 0, 74, 60
2, 216480, Note_on_c, 0, 74, 0
2, 216480, Note_on_c, 0, 78, 59
2, 216840, Note_on_c, 0, 78, 0
2, 216840, Note_on_c, 0, 76, 55
2, 216960, Note_on_c, 0, 76, 0
2, 216960, Note_on_c, 0, 74, 54
2, 217440, Note_on_c, 0, 74, 0
2, 218160, Note_on_c, 0, 69, 58
2, 218400, Note_on_c, 0, 69, 0
2, 218400, Note_on_c, 0, 78, 59
2, 218640, Note_on_c, 0, 78, 0
2, 218640, Note_on_c, 0, 76, 59
2, 218880, Note_on_c, 0, 76, 0
2, 218880, Note_on_c, 0, 74, 60
2, 219240, Note_on_c, 0, 74, 0
2, 219240, Note_on_c, 0, 73, 61
2, 219360, Note_on_c, 0, 73, 0
2, 219360, Note_on_c, 0, 79, 62
2, 219840, Note_on_c, 0, 79, 0
2, 220080, Note_on_c, 0, 69, 64
2, 220320, Note_on_c, 0, 69, 0
2, 220320, Note_on_c, 0, 79, 65
2, 220560, Note_on_c, 0, 79, 0
2, 220560, Note_on_c, 0, 78, 66
2, 220800, Note_on_c, 0, 78, 0
2, 220800, Note_on_c, 0, 76, 67
2, 221280, Note_on_c, 0, 76, 0
2, 221280, Note_on_c, 0, 75, 68
2, 221760, Note_on_c, 0, 75, 0
2, 222240, Note_on_c, 0, 83, 72
2, 222480, Note_on_c, 0, 83, 0
2, 222480, Note_on_c, 0, 84, 72
2, 222720, Note_on_c, 0, 84, 0
2, 222720, Note_on_c, 0, 82, 77
2, 222840, Note_on_c, 0, 82, 0
2, 222840, Note_on_c, 0, 83, 76
2, 222960, Note_on_c, 0, 83, 0
2, 222960, Note_on_c, 0, 85, 75
2, 223080, Note_on_c, 0, 85, 0
2, 223080, Note_on_c, 0, 83, 73
2, 223200, Note_on_c, 0, 83, 0
2, 223200, Note_on_c, 0, 81, 72
2, 223320, Note_on_c, 0, 81, 0
2, 223320, Note_on_c, 0, 79, 71
2, 223440, Note_on_c, 0, 79, 0
2, 223440, Note_on_c, 0, 78, 70
2, 223560, Note_on_c, 0, 78, 0
2, 223560, Note_on_c, 0, 76, 69
2, 223680, Note_on_c, 0, 76, 0
2, 223680, Note_on_c, 0, 76, 68
2, 223800, Note_on_c, 0, 76, 0
2, 223800, Note_on_c, 0, 74, 66
2, 223920, Note_on_c, 0, 74, 0
2, 223920, Note_on_c, 0, 78, 65
2, 224040, Note_on_c, 0, 78, 0
2, 224040, Note_on_c, 0, 74, 64
2, 224160, Note_on_c, 0, 74, 0
2, 224160, Note_on_c, 0, 74, 63
2, 224280, Note_on_c, 0, 74, 0
2, 224280, Note_on_c, 0, 73, 62
2, 224400, Note_on_c, 0, 73, 0
2, 224400, Note_on_c, 0, 76, 61
2, 224520, Note_on_c, 0, 76, 0
2, 224520, Note_on_c, 0, 73, 60
2, 224640, Note_on_c, 0, 73, 0
2, 224640, Note_on_c, 0, 74, 58
2, 225120, Note_on_c, 0, 74, 0
2, 225120, Note_on_c, 0, 69, 58
2, 225600, Note_on_c, 0, 69, 0
2, 225840, Note_on_c, 0, 74, 60
2, 225996, Note_on_c, 0, 74, 0
2, 226080, Note_on_c, 0, 76, 60
2, 226236, Note_on_c, 0, 76, 0
2, 226320, Note_on_c, 0, 78, 61
2, 226476, Note_on_c, 0, 78, 0
2, 226560, Note_on_c, 0, 78, 61
2, 226920, Note_on_c, 0, 78, 0
2, 226920, Note_on_c, 0, 76, 61
2, 227040, Note_on_c, 0, 76, 0
2, 227040, Note_on_c, 0, 79, 62
2, 227280, Note_on_c, 0, 79, 0
2, 227280, Note_on_c, 0, 76, 62
2, 227520, Note_on_c, 0, 76, 0
2, 227520, Note_on_c, 0, 74, 62
2, 227760, Note_on_c, 0, 74, 0
2, 227760, Note_on_c, 0, 73, 63
2, 228000, Note_on_c, 0, 73, 0
2, 228000, Note_on_c, 0, 71, 63
2, 228240, Note_on_c, 0, 71, 0
2, 228240, Note_on_c, 0, 69, 63
2, 228420, Note_on_c, 0, 69, 0
2, 228420, Note_on_c, 0, 69, 64
2, 228480, Note_on_c, 0, 69, 0
2, 228480, Note_on_c, 0, 76, 64
2, 228960, Note_on_c, 0, 76, 0
2, 228960, Note_on_c, 0, 74, 65
2, 229680, Note_on_c, 0, 76, 66
2, 229695, Note_on_c, 0, 74, 0
2, 229740, Note_on_c, 0, 76, 0
2, 229740, Note_on_c, 0, 74, 66
2, 229800, Note_on_c, 0, 74, 0
2, 229800, Note_on_c, 0, 73, 66
2, 229860, Note_on_c, 0, 73, 0
2, 229860, Note_on_c, 0, 74, 66
2, 229920, Note_on_c, 0, 74, 0
2, 229920, Note_on_c, 0, 76, 66
2, 230160, Note_on_c, 0, 76, 0
2, 230160, Note_on_c, 0, 78, 66
2, 230400, Note_on_c, 0, 78, 0
2, 230400, Note_on_c, 0, 78, 67
2, 230760, Note_on_c, 0, 78, 0
2, 230760, Note_on_c, 0, 76, 67
2, 230880, Note_on_c, 0, 76, 0
2, 230880, Note_on_c, 0, 81, 67
2, 231000, Note_on_c, 0, 81, 0
2, 231000, Note_on_c, 0, 79, 68
2, 231120, Note_on_c, 0, 79, 0
2, 231120, Note_on_c, 0, 78, 68
2, 231240, Note_on_c, 0, 78, 0
2, 231240, Note_on_c, 0, 76, 68
2, 231360, Note_on_c, 0, 76, 0
2, 231360, Note_on_c, 0, 74, 68
2, 231480, Note_on_c, 0, 74, 0
2, 231480, Note_on_c, 0, 73, 68
2, 231600, Note_on_c, 0, 73, 0
2, 231600, Note_on_c, 0, 71, 69
2, 231720, Note_on_c, 0, 71, 0
2, 231720, Note_on_c, 0, 69, 69
2, 231840, Note_on_c, 0, 69, 0
2, 231840, Note_on_c, 0, 68, 69
2, 231960, Note_on_c, 0, 68, 0
2, 231960, Note_on_c, 0, 69, 69
2, 232080, Note_on_c, 0, 69, 0
2, 232080, Note_on_c, 0, 71, 69
2, 232200, Note_on_c, 0, 71, 0
2, 232200, Note_on_c, 0, 73, 69
2, 232320, Note_on_c, 0, 73, 0
2, 232320, Note_on_c, 0, 76, 70
2, 232800, Note_on_c, 0, 76, 0
2, 232800, Note_on_c, 0, 74, 70
2, 233400, Note_on_c, 0, 74, 0
2, 233400, Note_on_c, 0, 74, 71
2, 233520, Note_on_c, 0, 74, 0
2, 233520, Note_on_c, 0, 73, 71
2, 233640, Note_on_c, 0, 73, 0
2, 233640, Note_on_c, 0, 74, 72
2, 233760, Note_on_c, 0, 74, 0
2, 233760, Note_on_c, 0, 75, 72
2, 233880, Note_on_c, 0, 75, 0
2, 233880, Note_on_c, 0, 76, 72
2, 234000, Note_on_c, 0, 76, 0
2, 234000, Note_on_c, 0, 77, 72
2, 234120, Note_on_c, 0, 77, 0
2, 234120, Note_on_c, 0, 78, 72
2, 234240, Note_on_c, 0, 78, 0
2, 234240, Note_on_c, 0, 78, 80
2, 234360, Note_on_c, 0, 78, 0
2, 234360, Note_on_c, 0, 76, 73
2, 234480, Note_on_c, 0, 76, 0
2, 234480, Note_on_c, 0, 75, 73
2, 234600, Note_on_c, 0, 75, 0
2, 234600, Note_on_c, 0, 76, 73
2, 234720, Note_on_c, 0, 76, 0
2, 234720, Note_on_c, 0, 78, 73
2, 234840, Note_on_c, 0, 78, 0
2, 234840, Note_on_c, 0, 76, 73
2, 234960, Note_on_c, 0, 76, 0
2, 234960, Note_on_c, 0, 79, 74
2, 235080, Note_on_c, 0, 79, 0
2, 235080, Note_on_c, 0, 78, 74
2, 235200, Note_on_c, 0, 78, 0
2, 235200, Note_on_c, 0, 81, 74
2, 235320, Note_on_c, 0, 81, 0
2, 235320, Note_on_c, 0, 79, 74
2, 235440, Note_on_c, 0, 79, 0
2, 235440, Note_on_c, 0, 83, 74
2, 235560, Note_on_c, 0, 83, 0
2, 235560, Note_on_c, 0, 81, 74
2, 235680, Note_on_c, 0, 81, 0
2, 235680, Note_on_c, 0, 79, 75
2, 235800, Note_on_c, 0, 79, 0
2, 235800, Note_on_c, 0, 78, 75
2, 235920, Note_on_c, 0, 78, 0
2, 235920, Note_on_c, 0, 76, 75
2, 236040, Note_on_c, 0, 76, 0
2, 236040, Note_on_c, 0, 74, 75
2, 236160, Note_on_c, 0, 74, 0
2, 236160, Note_on_c, 0, 73, 73
2, 236280, Note_on_c, 0, 73, 0
2, 236280, Note_on_c, 0, 71, 73
2, 236400, Note_on_c, 0, 71, 0
2, 236400, Note_on_c, 0, 69, 72
2, 236520, Note_on_c, 0, 69, 0
2, 236520, Note_on_c, 0, 68, 71
2, 236640, Note_on_c, 0, 68, 0
2, 236640, Note_on_c, 0, 69, 71
2, 236760, Note_on_c, 0, 69, 0
2, 236760, Note_on_c, 0, 71, 70
2, 236880, Note_on_c, 0, 71, 0
2, 236880, Note_on_c, 0, 73, 69
2, 237000, Note_on_c, 0, 73, 0
2, 237000, Note_on_c, 0, 74, 69
2, 237120, Note_on_c, 0, 74, 0
2, 237120, Note_on_c, 0, 76, 68
2, 237240, Note_on_c, 0, 76, 0
2, 237240, Note_on_c, 0, 78, 68
2, 237360, Note_on_c, 0, 78, 0
2, 237360, Note_on_c, 0, 79, 67
2, 237480, Note_on_c, 0, 79, 0
2, 237480, Note_on_c, 0, 78, 66
2, 237600, Note_on_c, 0, 78, 0
2, 237600, Note_on_c, 0, 81, 66
2, 237720, Note_on_c, 0, 81, 0
2, 237720, Note_on_c, 0, 79, 65
2, 237840, Note_on_c, 0, 79, 0
2, 237840, Note_on_c, 0, 78, 64
2, 237960, Note_on_c, 0, 78, 0
2, 237960, Note_on_c, 0, 76, 64
2, 238080, Note_on_c, 0, 76, 0
2, 238080, Note_on_c, 0, 74, 63
2, 238560, Note_on_c, 0, 74, 0
2, 240960, Note_on_c, 0, 81, 69
2, 241680, Note_on_c, 0, 81, 0
2, 241680, Note_on_c, 0, 79, 62
2, 241920, Note_on_c, 0, 79, 0
2, 241920, Note_on_c, 0, 79, 60
2, 242040, Note_on_c, 0, 79, 0
2, 242040, Note_on_c, 0, 78, 60
2, 242160, Note_on_c, 0, 78, 0
2, 242160, Note_on_c, 0, 76, 59
2, 242280, Note_on_c, 0, 76, 0
2, 242280, Note_on_c, 0, 74, 59
2, 242400, Note_on_c, 0, 74, 0
2, 242400, Note_on_c, 0, 73, 62
2, 242520, Note_on_c, 0, 73, 0
2, 242520, Note_on_c, 0, 74, 59
2, 242640, Note_on_c, 0, 74, 0
2, 242640, Note_on_c, 0, 78, 59
2, 242760, Note_on_c, 0, 78, 0
2, 242760, Note_on_c, 0, 74, 58
2, 242880, Note_on_c, 0, 74, 0
2, 242880, Note_on_c, 0, 69, 59
2, 243360, Note_on_c, 0, 69, 0
2, 244800, Note_on_c, 0, 81, 65
2, 245400, Note_on_c, 0, 81, 0
2, 245400, Note_on_c, 0, 78, 59
2, 245520, Note_on_c, 0, 78, 0
2, 245520, Note_on_c, 0, 79, 58
2, 245640, Note_on_c, 0, 79, 0
2, 245640, Note_on_c, 0, 76, 57
2, 245760, Note_on_c, 0, 76, 0
2, 245760, Note_on_c, 0, 74, 56
2, 246472, Note_on_c, 0, 74, 0
2, 246480, Note_on_c, 0, 76, 55
2, 246540, Note_on_c, 0, 76, 0
2, 246540, Note_on_c, 0, 74, 55
2, 246600, Note_on_c, 0, 74, 0
2, 246600, Note_on_c, 0, 73, 55
2, 246660, Note_on_c, 0, 73, 0
2, 246660, Note_on_c, 0, 74, 55
2, 246720, Note_on_c, 0, 74, 0
2, 246720, Note_on_c, 0, 78, 55
2, 247440, Note_on_c, 0, 78, 0
2, 247440, Note_on_c, 0, 76, 54
2, 247680, Note_on_c, 0, 76, 0
2, 247680, Note_on_c, 0, 74, 56
2, 248160, Note_on_c, 0, 74, 0
2, 248400, Note_on_c, 0, 76, 58
2, 248520, Note_on_c, 0, 76, 0
2, 248520, Note_on_c, 0, 74, 59
2, 248640, Note_on_c, 0, 74, 0
2, 248640, Note_on_c, 0, 78, 57
2, 248760, Note_on_c, 0, 78, 0
2, 248760, Note_on_c, 0, 76, 57
2, 248880, Note_on_c, 0, 76, 0
2, 248880, Note_on_c, 0, 79, 57
2, 249000, Note_on_c, 0, 79, 0
2, 249000, Note_on_c, 0, 78, 56
2, 249120, Note_on_c, 0, 78, 0
2, 249120, Note_on_c, 0, 81, 56
2, 249280, Note_on_c, 0, 81, 0
2, 249280, Note_on_c, 0, 79, 55
2, 249384, Note_on_c, 0, 79, 0
2, 249440, Note_on_c, 0, 76, 55
2, 249544, Note_on_c, 0, 76, 0
2, 249600, Note_on_c, 0, 74, 54
2, 250080, Note_on_c, 0, 74, 0
2, 250560, Note_on_c, 0, 74, 51
2, 250560, Note_on_c, 0, 86, 51
2, 251040, Note_on_c, 0, 86, 0
2, 251040, Note_on_c, 0, 74, 0
2, 251520, Note_on_c, 0, 74, 45
2, 251520, Note_on_c, 0, 86, 45
2, 252000, Note_on_c, 0, 86, 0
2, 252000, Note_on_c, 0, 74, 0
2, 252000, End_track
3, 0, Start_track
3, 0, Title_t, "Ich denke dein..."
3, 0, Control_c, 0, 0, 0
3, 0, Control_c, 0, 7, 115
3, 0, Control_c, 0, 10, 73
3, 0, Control_c, 0, 91, 91
3, 0, Control_c, 0, 93, 28
3, 0, Pitch_bend_c, 0, 8192
3, 0, Control_c, 0, 1, 0
3, 0, Control_c, 0, 64, 0
3, 1, Control_c, 0, 32, 0
3, 1, Program_c, 0, 0
3, 1440, Note_on_c, 0, 57, 60
3, 1920, Note_on_c, 0, 57, 0
3, 1920, Note_on_c, 0, 62, 62
3, 2880, Note_on_c, 0, 62, 0
3, 2880, Note_on_c, 0, 66, 66
3, 3600, Note_on_c, 0, 66, 0
3, 3600, Note_on_c, 0, 64, 69
3, 3840, Note_on_c, 0, 64, 0
3, 3840, Note_on_c, 0, 64, 70
3, 4320, Note_on_c, 0, 64, 0
3, 4320, Note_on_c, 0, 62, 67
3, 4800, Note_on_c, 0, 62, 0
3, 5280, Note_on_c, 0, 62, 67
3, 5520, Note_on_c, 0, 62, 0
3, 5520, Note_on_c, 0, 61, 67
3, 5760, Note_on_c, 0, 61, 0
3, 5760, Note_on_c, 0, 61, 66
3, 6000, Note_on_c, 0, 61, 0
3, 6000, Note_on_c, 0, 59, 66
3, 6240, Note_on_c, 0, 59, 0
3, 6240, Note_on_c, 0, 58, 65
3, 6480, Note_on_c, 0, 58, 0
3, 6480, Note_on_c, 0, 59, 64
3, 6720, Note_on_c, 0, 59, 0
3, 6720, Note_on_c, 0, 61, 64
3, 6960, Note_on_c, 0, 61, 0
3, 6960, Note_on_c, 0, 62, 66
3, 7200, Note_on_c, 0, 62, 0
3, 7200, Note_on_c, 0, 65, 67
3, 7440, Note_on_c, 0, 65, 0
3, 7440, Note_on_c, 0, 66, 69
3, 7680, Note_on_c, 0, 66, 0
3, 7680, Note_on_c, 0, 66, 70
3, 8160, Note_on_c, 0, 66, 0
3, 8160, Note_on_c, 0, 64, 65
3, 9075, Note_on_c, 0, 64, 0
3, 9120, Note_on_c, 0, 62, 64
3, 9360, Note_on_c, 0, 62, 0
3, 9360, Note_on_c, 0, 59, 63
3, 9600, Note_on_c, 0, 59, 0
3, 9600, Note_on_c, 0, 57, 63
3, 10560, Note_on_c, 0, 57, 0
3, 10560, Note_on_c, 0, 61, 63
3, 11280, Note_on_c, 0, 61, 0
3, 11280, Note_on_c, 0, 59, 59
3, 11520, Note_on_c, 0, 59, 0
3, 11520, Note_on_c, 0, 57, 58
3, 12000, Note_on_c, 0, 57, 0
3, 12960, Note_on_c, 0, 57, 65
3, 13440, Note_on_c, 0, 57, 0
3, 13440, Note_on_c, 0, 67, 69
3, 14880, Note_on_c, 0, 67, 0
3, 14880, Note_on_c, 0, 66, 67
3, 15120, Note_on_c, 0, 66, 0
3, 15120, Note_on_c, 0, 64, 67
3, 15360, Note_on_c, 0, 64, 0
3, 15360, Note_on_c, 0, 62, 67
3, 15840, Note_on_c, 0, 62, 0
3, 15840, Note_on_c, 0, 61, 66
3, 16740, Note_on_c, 0, 61, 0
3, 16800, Note_on_c, 0, 64, 65
3, 17280, Note_on_c, 0, 64, 0
3, 17280, Note_on_c, 0, 64, 64
3, 17760, Note_on_c, 0, 64, 0
3, 17760, Note_on_c, 0, 61, 63
3, 18240, Note_on_c, 0, 61, 0
3, 18240, Note_on_c, 0, 57, 63
3, 18720, Note_on_c, 0, 57, 0
3, 18720, Note_on_c, 0, 55, 62
3, 19200, Note_on_c, 0, 55, 0
3, 19200, Note_on_c, 0, 54, 56
3, 19440, Note_on_c, 0, 54, 0
3, 19440, Note_on_c, 0, 57, 55
3, 19680, Note_on_c, 0, 57, 0
3, 19680, Note_on_c, 0, 54, 55
3, 19920, Note_on_c, 0, 54, 0
3, 19920, Note_on_c, 0, 57, 55
3, 20160, Note_on_c, 0, 57, 0
3, 20160, Note_on_c, 0, 59, 55
3, 20400, Note_on_c, 0, 59, 0
3, 20400, Note_on_c, 0, 55, 54
3, 20640, Note_on_c, 0, 55, 0
3, 20640, Note_on_c, 0, 59, 54
3, 20880, Note_on_c, 0, 59, 0
3, 20880, Note_on_c, 0, 59, 54
3, 21120, Note_on_c, 0, 59, 0
3, 21120, Note_on_c, 0, 54, 53
3, 21360, Note_on_c, 0, 54, 0
3, 21360, Note_on_c, 0, 57, 53
3, 21600, Note_on_c, 0, 57, 0
3, 21600, Note_on_c, 0, 54, 52
3, 21840, Note_on_c, 0, 54, 0
3, 21840, Note_on_c, 0, 57, 52
3, 22080, Note_on_c, 0, 57, 0
3, 22080, Note_on_c, 0, 54, 52
3, 22320, Note_on_c, 0, 54, 0
3, 22320, Note_on_c, 0, 57, 51
3, 22560, Note_on_c, 0, 57, 0
3, 22560, Note_on_c, 0, 55, 51
3, 22800, Note_on_c, 0, 55, 0
3, 22800, Note_on_c, 0, 57, 50
3, 23040, Note_on_c, 0, 57, 0
3, 23040, Note_on_c, 0, 54, 52
3, 23280, Note_on_c, 0, 54, 0
3, 23280, Note_on_c, 0, 57, 53
3, 23520, Note_on_c, 0, 57, 0
3, 23520, Note_on_c, 0, 62, 53
3, 23760, Note_on_c, 0, 62, 0
3, 23760, Note_on_c, 0, 57, 54
3, 24000, Note_on_c, 0, 57, 0
3, 24000, Note_on_c, 0, 54, 55
3, 24240, Note_on_c, 0, 54, 0
3, 24240, Note_on_c, 0, 57, 56
3, 24480, Note_on_c, 0, 57, 0
3, 24480, Note_on_c, 0, 62, 56
3, 24720, Note_on_c, 0, 62, 0
3, 24720, Note_on_c, 0, 57, 57
3, 24960, Note_on_c, 0, 57, 0
3, 24960, Note_on_c, 0, 55, 58
3, 25200, Note_on_c, 0, 55, 0
3, 25200, Note_on_c, 0, 57, 59
3, 25440, Note_on_c, 0, 57, 0
3, 25440, Note_on_c, 0, 61, 59
3, 25680, Note_on_c, 0, 61, 0
3, 25680, Note_on_c, 0, 57, 60
3, 25920, Note_on_c, 0, 57, 0
3, 25920, Note_on_c, 0, 55, 61
3, 26160, Note_on_c, 0, 55, 0
3, 26160, Note_on_c, 0, 57, 62
3, 26400, Note_on_c, 0, 57, 0
3, 26400, Note_on_c, 0, 61, 62
3, 26640, Note_on_c, 0, 61, 0
3, 26640, Note_on_c, 0, 57, 63
3, 26880, Note_on_c, 0, 57, 0
3, 26880, Note_on_c, 0, 57, 64
3, 27120, Note_on_c, 0, 57, 0
3, 27120, Note_on_c, 0, 62, 65
3, 27360, Note_on_c, 0, 62, 0
3, 27360, Note_on_c, 0, 66, 65
3, 27600, Note_on_c, 0, 66, 0
3, 27600, Note_on_c, 0, 64, 66
3, 27840, Note_on_c, 0, 64, 0
3, 27840, Note_on_c, 0, 63, 67
3, 28080, Note_on_c, 0, 63, 0
3, 28080, Note_on_c, 0, 69, 68
3, 28080, Note_on_c, 0, 66, 68
3, 28320, Note_on_c, 0, 66, 0
3, 28320, Note_on_c, 0, 69, 0
3, 28320, Note_on_c, 0, 69, 68
3, 28560, Note_on_c, 0, 69, 0
3, 28560, Note_on_c, 0, 67, 69
3, 28800, Note_on_c, 0, 67, 0
3, 28800, Note_on_c, 0, 66, 70
3, 29040, Note_on_c, 0, 66, 0
3, 29040, Note_on_c, 0, 64, 71
3, 29280, Note_on_c, 0, 64, 0
3, 29280, Note_on_c, 0, 71, 71
3, 29520, Note_on_c, 0, 71, 0
3, 29520, Note_on_c, 0, 67, 72
3, 29760, Note_on_c, 0, 67, 0
3, 29760, Note_on_c, 0, 64, 75
3, 30000, Note_on_c, 0, 64, 0
3, 30000, Note_on_c, 0, 61, 73
3, 30240, Note_on_c, 0, 61, 0
3, 30240, Note_on_c, 0, 57, 70
3, 30480, Note_on_c, 0, 57, 0
3, 30480, Note_on_c, 0, 55, 67
3, 30720, Note_on_c, 0, 55, 0
3, 30720, Note_on_c, 0, 55, 63
3, 30960, Note_on_c, 0, 55, 0
3, 30960, Note_on_c, 0, 57, 61
3, 31200, Note_on_c, 0, 57, 0
3, 31200, Note_on_c, 0, 55, 58
3, 31440, Note_on_c, 0, 55, 0
3, 31440, Note_on_c, 0, 57, 55
3, 31680, Note_on_c, 0, 57, 0
3, 31680, Note_on_c, 0, 54, 52
3, 32047, Note_on_c, 0, 54, 0
3, 33120, Note_on_c, 0, 66, 63
3, 33120, Note_on_c, 0, 69, 63
3, 33600, Note_on_c, 0, 69, 0
3, 33600, Note_on_c, 0, 66, 0
3, 34080, Note_on_c, 0, 67, 68
3, 34080, Note_on_c, 0, 69, 68
3, 34560, Note_on_c, 0, 69, 0
3, 34560, Note_on_c, 0, 67, 0
3, 35040, Note_on_c, 0, 66, 69
3, 35040, Note_on_c, 0, 69, 69
3, 35520, Note_on_c, 0, 69, 0
3, 35520, Note_on_c, 0, 66, 0
3, 36000, Note_on_c, 0, 66, 67
3, 36000, Note_on_c, 0, 69, 67
3, 36480, Note_on_c, 0, 69, 0
3, 36480, Note_on_c, 0, 66, 0
3, 36960, Note_on_c, 0, 66, 65
3, 37440, Note_on_c, 0, 66, 0
3, 37920, Note_on_c, 0, 66, 63
3, 37920, Note_on_c, 0, 62, 63
3, 38400, Note_on_c, 0, 62, 0
3, 38400, Note_on_c, 0, 66, 0
3, 38880, Note_on_c, 0, 71, 61
3, 39360, Note_on_c, 0, 71, 0
3, 39360, Note_on_c, 0, 69, 60
3, 39840, Note_on_c, 0, 69, 0
3, 39840, Note_on_c, 0, 66, 59
3, 39840, Note_on_c, 0, 62, 59
3, 40320, Note_on_c, 0, 62, 0
3, 40320, Note_on_c, 0, 66, 0
3, 40800, Note_on_c, 0, 64, 57
3, 40800, Note_on_c, 0, 69, 57
3, 40800, Note_on_c, 0, 61, 57
3, 41280, Note_on_c, 0, 61, 0
3, 41280, Note_on_c, 0, 69, 0
3, 41280, Note_on_c, 0, 64, 0
3, 41760, Note_on_c, 0, 68, 55
3, 41760, Note_on_c, 0, 62, 55
3, 41760, Note_on_c, 0, 59, 55
3, 42120, Note_on_c, 0, 68, 0
3, 42240, Note_on_c, 0, 59, 0
3, 42240, Note_on_c, 0, 62, 0
3, 42720, Note_on_c, 0, 62, 53
3, 43200, Note_on_c, 0, 62, 0
3, 43200, Note_on_c, 0, 69, 52
3, 43200, Note_on_c, 0, 61, 52
3, 43680, Note_on_c, 0, 61, 0
3, 43680, Note_on_c, 0, 69, 0
3, 43680, Note_on_c, 0, 69, 59
3, 44160, Note_on_c, 0, 69, 0
3, 44640, Note_on_c, 0, 61, 61
3, 45120, Note_on_c, 0, 61, 0
3, 45600, Note_on_c, 0, 64, 64
3, 46080, Note_on_c, 0, 64, 0
3, 46560, Note_on_c, 0, 67, 67
3, 47520, Note_on_c, 0, 67, 0
3, 47520, Note_on_c, 0, 66, 65
3, 48000, Note_on_c, 0, 66, 0
3, 48000, Note_on_c, 0, 64, 64
3, 48480, Note_on_c, 0, 64, 0
3, 48480, Note_on_c, 0, 61, 63
3, 48960, Note_on_c, 0, 61, 0
3, 48960, Note_on_c, 0, 62, 63
3, 49440, Note_on_c, 0, 62, 0
3, 49440, Note_on_c, 0, 64, 62
3, 49920, Note_on_c, 0, 64, 0
3, 49920, Note_on_c, 0, 62, 61
3, 50400, Note_on_c, 0, 62, 0
3, 50400, Note_on_c, 0, 66, 60
3, 50880, Note_on_c, 0, 66, 0
3, 51360, Note_on_c, 0, 64, 58
3, 51840, Note_on_c, 0, 64, 0
3, 52320, Note_on_c, 0, 57, 57
3, 52320, Note_on_c, 0, 66, 57
3, 52800, Note_on_c, 0, 66, 0
3, 52800, Note_on_c, 0, 57, 0
3, 53280, Note_on_c, 0, 57, 55
3, 53280, Note_on_c, 0, 67, 55
3, 53760, Note_on_c, 0, 67, 0
3, 53760, Note_on_c, 0, 57, 0
3, 53760, Note_on_c, 0, 57, 54
3, 53760, Note_on_c, 0, 66, 54
3, 54240, Note_on_c, 0, 66, 0
3, 54240, Note_on_c, 0, 57, 0
3, 55200, Note_on_c, 0, 66, 66
3, 55320, Note_on_c, 0, 66, 0
3, 55320, Note_on_c, 0, 69, 66
3, 55440, Note_on_c, 0, 69, 0
3, 55440, Note_on_c, 0, 66, 66
3, 55560, Note_on_c, 0, 66, 0
3, 55560, Note_on_c, 0, 69, 66
3, 55680, Note_on_c, 0, 69, 0
3, 55680, Note_on_c, 0, 67, 67
3, 56160, Note_on_c, 0, 67, 0
3, 57120, Note_on_c, 0, 67, 69
3, 57240, Note_on_c, 0, 67, 0
3, 57240, Note_on_c, 0, 73, 69
3, 57360, Note_on_c, 0, 73, 0
3, 57360, Note_on_c, 0, 67, 69
3, 57480, Note_on_c, 0, 67, 0
3, 57480, Note_on_c, 0, 73, 70
3, 57600, Note_on_c, 0, 73, 0
3, 57600, Note_on_c, 0, 69, 70
3, 58080, Note_on_c, 0, 69, 0
3, 59040, Note_on_c, 0, 69, 72
3, 59160, Note_on_c, 0, 69, 0
3, 59160, Note_on_c, 0, 75, 72
3, 59280, Note_on_c, 0, 75, 0
3, 59280, Note_on_c, 0, 69, 73
3, 59400, Note_on_c, 0, 69, 0
3, 59400, Note_on_c, 0, 75, 73
3, 59520, Note_on_c, 0, 75, 0
3, 59520, Note_on_c, 0, 71, 74
3, 60000, Note_on_c, 0, 71, 0
3, 60000, Note_on_c, 0, 71, 83
3, 60000, Note_on_c, 0, 67, 83
3, 60480, Note_on_c, 0, 67, 0
3, 60480, Note_on_c, 0, 71, 0
3, 60960, Note_on_c, 0, 67, 68
3, 60960, Note_on_c, 0, 64, 68
3, 61440, Note_on_c, 0, 64, 0
3, 61440, Note_on_c, 0, 67, 0
3, 61920, Note_on_c, 0, 67, 61
3, 61920, Note_on_c, 0, 57, 61
3, 62400, Note_on_c, 0, 67, 0
3, 62400, Note_on_c, 0, 66, 57
3, 62880, Note_on_c, 0, 66, 0
3, 62880, Note_on_c, 0, 57, 0
3, 63360, Note_on_c, 0, 66, 56
3, 63600, Note_on_c, 0, 66, 0
3, 64080, Note_on_c, 0, 66, 57
3, 64200, Note_on_c, 0, 66, 0
3, 64320, Note_on_c, 0, 67, 58
3, 64560, Note_on_c, 0, 67, 0
3, 65040, Note_on_c, 0, 67, 59
3, 65160, Note_on_c, 0, 67, 0
3, 65280, Note_on_c, 0, 66, 59
3, 65520, Note_on_c, 0, 66, 0
3, 66000, Note_on_c, 0, 67, 60
3, 66120, Note_on_c, 0, 67, 0
3, 66240, Note_on_c, 0, 66, 60
3, 66480, Note_on_c, 0, 66, 0
3, 67200, Note_on_c, 0, 71, 62
3, 67440, Note_on_c, 0, 71, 0
3, 67920, Note_on_c, 0, 71, 63
3, 68040, Note_on_c, 0, 71, 0
3, 68160, Note_on_c, 0, 74, 63
3, 68400, Note_on_c, 0, 74, 0
3, 68880, Note_on_c, 0, 74, 64
3, 69000, Note_on_c, 0, 74, 0
3, 69120, Note_on_c, 0, 64, 64
3, 69360, Note_on_c, 0, 64, 0
3, 69840, Note_on_c, 0, 64, 65
3, 69960, Note_on_c, 0, 64, 0
3, 70080, Note_on_c, 0, 64, 66
3, 70200, Note_on_c, 0, 64, 0
3, 70320, Note_on_c, 0, 76, 66
3, 70560, Note_on_c, 0, 76, 0
3, 70560, Note_on_c, 0, 74, 66
3, 70800, Note_on_c, 0, 74, 0
3, 70800, Note_on_c, 0, 71, 66
3, 71040, Note_on_c, 0, 71, 0
3, 71040, Note_on_c, 0, 69, 67
3, 71280, Note_on_c, 0, 69, 0
3, 71760, Note_on_c, 0, 73, 68
3, 71880, Note_on_c, 0, 73, 0
3, 72000, Note_on_c, 0, 74, 68
3, 72240, Note_on_c, 0, 74, 0
3, 72720, Note_on_c, 0, 68, 69
3, 72840, Note_on_c, 0, 68, 0
3, 72960, Note_on_c, 0, 69, 71
3, 73200, Note_on_c, 0, 69, 0
3, 73680, Note_on_c, 0, 76, 66
3, 73800, Note_on_c, 0, 76, 0
3, 73920, Note_on_c, 0, 69, 65
3, 74160, Note_on_c, 0, 69, 0
3, 74400, Note_on_c, 0, 69, 61
3, 74520, Note_on_c, 0, 69, 0
3, 74880, Note_on_c, 0, 79, 54
3, 75120, Note_on_c, 0, 79, 0
3, 75600, Note_on_c, 0, 79, 55
3, 75720, Note_on_c, 0, 79, 0
3, 75840, Note_on_c, 0, 76, 56
3, 76080, Note_on_c, 0, 76, 0
3, 76560, Note_on_c, 0, 76, 57
3, 76680, Note_on_c, 0, 76, 0
3, 76800, Note_on_c, 0, 73, 57
3, 77040, Note_on_c, 0, 73, 0
3, 77520, Note_on_c, 0, 73, 59
3, 77640, Note_on_c, 0, 73, 0
3, 77760, Note_on_c, 0, 76, 59
3, 78000, Note_on_c, 0, 76, 0
3, 78480, Note_on_c, 0, 69, 61
3, 78600, Note_on_c, 0, 69, 0
3, 78720, Note_on_c, 0, 79, 63
3, 78720, Note_on_c, 0, 76, 63
3, 78960, Note_on_c, 0, 76, 0
3, 78960, Note_on_c, 0, 79, 0
3, 78960, Note_on_c, 0, 78, 63
3, 78960, Note_on_c, 0, 74, 63
3, 79200, Note_on_c, 0, 74, 0
3, 79200, Note_on_c, 0, 78, 0
3, 79200, Note_on_c, 0, 73, 63
3, 79200, Note_on_c, 0, 76, 63
3, 79440, Note_on_c, 0, 76, 0
3, 79440, Note_on_c, 0, 73, 0
3, 79440, Note_on_c, 0, 71, 62
3, 79440, Note_on_c, 0, 74, 62
3, 79680, Note_on_c, 0, 74, 0
3, 79680, Note_on_c, 0, 71, 0
3, 79680, Note_on_c, 0, 73, 62
3, 79680, Note_on_c, 0, 69, 62
3, 79920, Note_on_c, 0, 69, 0
3, 79920, Note_on_c, 0, 73, 0
3, 79920, Note_on_c, 0, 67, 62
3, 79920, Note_on_c, 0, 71, 62
3, 80160, Note_on_c, 0, 71, 0
3, 80160, Note_on_c, 0, 67, 0
3, 80160, Note_on_c, 0, 66, 61
3, 80160, Note_on_c, 0, 69, 61
3, 80400, Note_on_c, 0, 69, 0
3, 80400, Note_on_c, 0, 66, 0
3, 80400, Note_on_c, 0, 67, 61
3, 80400, Note_on_c, 0, 64, 61
3, 80640, Note_on_c, 0, 64, 0
3, 80640, Note_on_c, 0, 67, 0
3, 80640, Note_on_c, 0, 66, 61
3, 80880, Note_on_c, 0, 66, 0
3, 81360, Note_on_c, 0, 74, 60
3, 81480, Note_on_c, 0, 74, 0
3, 81600, Note_on_c, 0, 64, 59
3, 81840, Note_on_c, 0, 64, 0
3, 82320, Note_on_c, 0, 71, 58
3, 82440, Note_on_c, 0, 71, 0
3, 82560, Note_on_c, 0, 62, 58
3, 82800, Note_on_c, 0, 62, 0
3, 83280, Note_on_c, 0, 66, 57
3, 83400, Note_on_c, 0, 66, 0
3, 83520, Note_on_c, 0, 67, 57
3, 83760, Note_on_c, 0, 67, 0
3, 84240, Note_on_c, 0, 61, 56
3, 84360, Note_on_c, 0, 61, 0
3, 84480, Note_on_c, 0, 62, 60
3, 84720, Note_on_c, 0, 62, 0
3, 86160, Note_on_c, 0, 66, 62
3, 86400, Note_on_c, 0, 66, 0
3, 86400, Note_on_c, 0, 67, 63
3, 86640, Note_on_c, 0, 67, 0
3, 88080, Note_on_c, 0, 69, 66
3, 88080, Note_on_c, 0, 73, 66
3, 88320, Note_on_c, 0, 73, 0
3, 88320, Note_on_c, 0, 74, 66
3, 88560, Note_on_c, 0, 74, 0
3, 88560, Note_on_c, 0, 69, 0
3, 90000, Note_on_c, 0, 75, 69
3, 90240, Note_on_c, 0, 75, 0
3, 90240, Note_on_c, 0, 76, 69
3, 90480, Note_on_c, 0, 76, 0
3, 91200, Note_on_c, 0, 64, 71
3, 91440, Note_on_c, 0, 64, 0
3, 91920, Note_on_c, 0, 67, 72
3, 92040, Note_on_c, 0, 67, 0
3, 92160, Note_on_c, 0, 79, 73
3, 93120, Note_on_c, 0, 79, 0
3, 93120, Note_on_c, 0, 78, 60
3, 93495, Note_on_c, 0, 78, 0
3, 94080, Note_on_c, 0, 57, 58
3, 95040, Note_on_c, 0, 57, 0
3, 96000, Note_on_c, 0, 59, 61
3, 96960, Note_on_c, 0, 59, 0
3, 98400, Note_on_c, 0, 66, 63
3, 98400, Note_on_c, 0, 62, 63
3, 98880, Note_on_c, 0, 62, 0
3, 98880, Note_on_c, 0, 66, 0
3, 98880, Note_on_c, 0, 62, 62
3, 98880, Note_on_c, 0, 59, 62
3, 99360, Note_on_c, 0, 59, 0
3, 99360, Note_on_c, 0, 62, 0
3, 99360, Note_on_c, 0, 61, 64
3, 99360, Note_on_c, 0, 57, 64
3, 99840, Note_on_c, 0, 57, 0
3, 99840, Note_on_c, 0, 61, 0
3, 99840, Note_on_c, 0, 56, 69
3, 99840, Note_on_c, 0, 59, 69
3, 100560, Note_on_c, 0, 59, 0
3, 100560, Note_on_c, 0, 61, 66
3, 100680, Note_on_c, 0, 61, 0
3, 100680, Note_on_c, 0, 62, 66
3, 100800, Note_on_c, 0, 62, 0
3, 100800, Note_on_c, 0, 56, 0
3, 100800, Note_on_c, 0, 57, 65
3, 100800, Note_on_c, 0, 61, 65
3, 101280, Note_on_c, 0, 61, 0
3, 101280, Note_on_c, 0, 57, 0
3, 101280, Note_on_c, 0, 54, 63
3, 101760, Note_on_c, 0, 54, 0
3, 101760, Note_on_c, 0, 52, 61
3, 103200, Note_on_c, 0, 52, 0
3, 103200, Note_on_c, 0, 56, 55
3, 103680, Note_on_c, 0, 56, 0
3, 112320, Note_on_c, 0, 55, 56
3, 112560, Note_on_c, 0, 76, 55
3, 112800, Note_on_c, 0, 76, 0
3, 112800, Note_on_c, 0, 79, 55
3, 113040, Note_on_c, 0, 79, 0
3, 113040, Note_on_c, 0, 55, 0
3, 113040, Note_on_c, 0, 56, 54
3, 113040, Note_on_c, 0, 83, 54
3, 113280, Note_on_c, 0, 83, 0
3, 113280, Note_on_c, 0, 56, 0
3, 113280, Note_on_c, 0, 57, 54
3, 113280, Note_on_c, 0, 83, 54
3, 113760, Note_on_c, 0, 83, 0
3, 113760, Note_on_c, 0, 57, 0
3, 113760, Note_on_c, 0, 74, 53
3, 114000, Note_on_c, 0, 74, 0
3, 115440, Note_on_c, 0, 62, 56
3, 115440, Note_on_c, 0, 66, 56
3, 115440, Note_on_c, 0, 74, 56
3, 115596, Note_on_c, 0, 74, 0
3, 115596, Note_on_c, 0, 66, 0
3, 115596, Note_on_c, 0, 62, 0
3, 115680, Note_on_c, 0, 66, 58
3, 115680, Note_on_c, 0, 62, 58
3, 115680, Note_on_c, 0, 74, 58
3, 115836, Note_on_c, 0, 74, 0
3, 115836, Note_on_c, 0, 62, 0
3, 115836, Note_on_c, 0, 66, 0
3, 115920, Note_on_c, 0, 66, 60
3, 115920, Note_on_c, 0, 62, 60
3, 115920, Note_on_c, 0, 74, 60
3, 116076, Note_on_c, 0, 74, 0
3, 116076, Note_on_c, 0, 62, 0
3, 116076, Note_on_c, 0, 66, 0
3, 116160, Note_on_c, 0, 74, 66
3, 116160, Note_on_c, 0, 62, 66
3, 116160, Note_on_c, 0, 66, 66
3, 116400, Note_on_c, 0, 56, 63
3, 116556, Note_on_c, 0, 56, 0
3, 116640, Note_on_c, 0, 74, 0
3, 116640, Note_on_c, 0, 62, 0
3, 116640, Note_on_c, 0, 66, 0
3, 116640, Note_on_c, 0, 57, 64
3, 116640, Note_on_c, 0, 74, 61
3, 116640, Note_on_c, 0, 62, 61
3, 116640, Note_on_c, 0, 66, 61
3, 116796, Note_on_c, 0, 57, 0
3, 116880, Note_on_c, 0, 74, 0
3, 116880, Note_on_c, 0, 62, 0
3, 116880, Note_on_c, 0, 66, 0
3, 116880, Note_on_c, 0, 58, 65
3, 117036, Note_on_c, 0, 58, 0
3, 117120, Note_on_c, 0, 59, 71
3, 117360, Note_on_c, 0, 73, 65
3, 117516, Note_on_c, 0, 73, 0
3, 117600, Note_on_c, 0, 59, 0
3, 117600, Note_on_c, 0, 57, 67
3, 117600, Note_on_c, 0, 73, 66
3, 117756, Note_on_c, 0, 73, 0
3, 117840, Note_on_c, 0, 57, 0
3, 117840, Note_on_c, 0, 73, 67
3, 117996, Note_on_c, 0, 73, 0
3, 118080, Note_on_c, 0, 73, 75
3, 118080, Note_on_c, 0, 64, 75
3, 118080, Note_on_c, 0, 67, 75
3, 118320, Note_on_c, 0, 56, 67
3, 118476, Note_on_c, 0, 56, 0
3, 118560, Note_on_c, 0, 73, 0
3, 118560, Note_on_c, 0, 64, 0
3, 118560, Note_on_c, 0, 67, 0
3, 118560, Note_on_c, 0, 57, 70
3, 118560, Note_on_c, 0, 67, 69
3, 118560, Note_on_c, 0, 64, 69
3, 118560, Note_on_c, 0, 73, 69
3, 118716, Note_on_c, 0, 57, 0
3, 118800, Note_on_c, 0, 67, 0
3, 118800, Note_on_c, 0, 64, 0
3, 118800, Note_on_c, 0, 73, 0
3, 118800, Note_on_c, 0, 59, 73
3, 118956, Note_on_c, 0, 59, 0
3, 119040, Note_on_c, 0, 60, 78
3, 120240, Note_on_c, 0, 60, 0
3, 120240, Note_on_c, 0, 78, 79
3, 120240, Note_on_c, 0, 66, 79
3, 120396, Note_on_c, 0, 66, 0
3, 120396, Note_on_c, 0, 78, 0
3, 120480, Note_on_c, 0, 67, 80
3, 120636, Note_on_c, 0, 67, 0
3, 120720, Note_on_c, 0, 69, 81
3, 120876, Note_on_c, 0, 69, 0
3, 120960, Note_on_c, 0, 71, 83
3, 121116, Note_on_c, 0, 71, 0
3, 121200, Note_on_c, 0, 79, 84
3, 121200, Note_on_c, 0, 71, 84
3, 121200, Note_on_c, 0, 76, 84
3, 121680, Note_on_c, 0, 76, 0
3, 121680, Note_on_c, 0, 71, 0
3, 121680, Note_on_c, 0, 79, 0
3, 121680, Note_on_c, 0, 79, 89
3, 121680, Note_on_c, 0, 70, 89
3, 121680, Note_on_c, 0, 76, 89
3, 122160, Note_on_c, 0, 76, 0
3, 122160, Note_on_c, 0, 70, 0
3, 122160, Note_on_c, 0, 79, 0
3, 122160, Note_on_c, 0, 79, 85
3, 122160, Note_on_c, 0, 70, 85
3, 122160, Note_on_c, 0, 76, 85
3, 122400, Note_on_c, 0, 76, 0
3, 122400, Note_on_c, 0, 70, 0
3, 122400, Note_on_c, 0, 79, 0
3, 122400, Note_on_c, 0, 78, 81
3, 122400, Note_on_c, 0, 69, 81
3, 122400, Note_on_c, 0, 74, 81
3, 122640, Note_on_c, 0, 74, 0
3, 122640, Note_on_c, 0, 69, 0
3, 122640, Note_on_c, 0, 78, 0
3, 122640, Note_on_c, 0, 76, 76
3, 122640, Note_on_c, 0, 67, 76
3, 122640, Note_on_c, 0, 73, 76
3, 122880, Note_on_c, 0, 73, 0
3, 122880, Note_on_c, 0, 67, 0
3, 122880, Note_on_c, 0, 76, 0
3, 122880, Note_on_c, 0, 67, 71
3, 122880, Note_on_c, 0, 79, 71
3, 122880, Note_on_c, 0, 76, 71
3, 123840, Note_on_c, 0, 76, 0
3, 123840, Note_on_c, 0, 79, 0
3, 123840, Note_on_c, 0, 67, 0
3, 123840, Note_on_c, 0, 78, 54
3, 123840, Note_on_c, 0, 66, 54
3, 123840, Note_on_c, 0, 74, 54
3, 124080, Note_on_c, 0, 74, 0
3, 124080, Note_on_c, 0, 66, 0
3, 124080, Note_on_c, 0, 78, 0
3, 132000, Note_on_c, 0, 66, 82
3, 132104, Note_on_c, 0, 66, 0
3, 132160, Note_on_c, 0, 71, 83
3, 132264, Note_on_c, 0, 71, 0
3, 132320, Note_on_c, 0, 74, 83
3, 132424, Note_on_c, 0, 74, 0
3, 132480, Note_on_c, 0, 73, 83
3, 132584, Note_on_c, 0, 73, 0
3, 132640, Note_on_c, 0, 76, 83
3, 132744, Note_on_c, 0, 76, 0
3, 132800, Note_on_c, 0, 76, 83
3, 132904, Note_on_c, 0, 76, 0
3, 132960, Note_on_c, 0, 76, 83
3, 133064, Note_on_c, 0, 76, 0
3, 133120, Note_on_c, 0, 76, 84
3, 133224, Note_on_c, 0, 76, 0
3, 133280, Note_on_c, 0, 76, 84
3, 133384, Note_on_c, 0, 76, 0
3, 133440, Note_on_c, 0, 76, 84
3, 133544, Note_on_c, 0, 76, 0
3, 133600, Note_on_c, 0, 76, 84
3, 133704, Note_on_c, 0, 76, 0
3, 133760, Note_on_c, 0, 76, 84
3, 133864, Note_on_c, 0, 76, 0
3, 133920, Note_on_c, 0, 76, 85
3, 134024, Note_on_c, 0, 76, 0
3, 134080, Note_on_c, 0, 68, 85
3, 134184, Note_on_c, 0, 68, 0
3, 134240, Note_on_c, 0, 76, 85
3, 134344, Note_on_c, 0, 76, 0
3, 134400, Note_on_c, 0, 69, 85
3, 134400, Note_on_c, 0, 76, 85
3, 134712, Note_on_c, 0, 76, 0
3, 134880, Note_on_c, 0, 69, 0
3, 140480, Note_on_c, 0, 76, 77
3, 140584, Note_on_c, 0, 76, 0
3, 140640, Note_on_c, 0, 76, 77
3, 140744, Note_on_c, 0, 76, 0
3, 140800, Note_on_c, 0, 76, 77
3, 140960, Note_on_c, 0, 76, 0
3, 140960, Note_on_c, 0, 74, 77
3, 141064, Note_on_c, 0, 74, 0
3, 141120, Note_on_c, 0, 73, 78
3, 141224, Note_on_c, 0, 73, 0
3, 141280, Note_on_c, 0, 73, 78
3, 141440, Note_on_c, 0, 73, 0
3, 141440, Note_on_c, 0, 71, 78
3, 141544, Note_on_c, 0, 71, 0
3, 141600, Note_on_c, 0, 69, 78
3, 141704, Note_on_c, 0, 69, 0
3, 141760, Note_on_c, 0, 69, 78
3, 141920, Note_on_c, 0, 69, 0
3, 141920, Note_on_c, 0, 67, 78
3, 142020, Note_on_c, 0, 78, 84
3, 142024, Note_on_c, 0, 67, 0
3, 142080, Note_on_c, 0, 78, 0
3, 142080, Note_on_c, 0, 74, 88
3, 142080, Note_on_c, 0, 66, 88
3, 142560, Note_on_c, 0, 66, 0
3, 142560, Note_on_c, 0, 74, 0
3, 143040, Note_on_c, 0, 64, 92
3, 143200, Note_on_c, 0, 67, 80
3, 143201, Note_on_c, 0, 64, 0
3, 143304, Note_on_c, 0, 67, 0
3, 143360, Note_on_c, 0, 71, 80
3, 143464, Note_on_c, 0, 71, 0
3, 143520, Note_on_c, 0, 74, 80
3, 143624, Note_on_c, 0, 74, 0
3, 143680, Note_on_c, 0, 74, 81
3, 143784, Note_on_c, 0, 74, 0
3, 143840, Note_on_c, 0, 74, 81
3, 143944, Note_on_c, 0, 74, 0
3, 144000, Note_on_c, 0, 65, 93
3, 144160, Note_on_c, 0, 71, 81
3, 144161, Note_on_c, 0, 65, 0
3, 144270, Note_on_c, 0, 71, 0
3, 144320, Note_on_c, 0, 74, 81
3, 144424, Note_on_c, 0, 74, 0
3, 144480, Note_on_c, 0, 66, 82
3, 144640, Note_on_c, 0, 69, 82
3, 144641, Note_on_c, 0, 66, 0
3, 144740, Note_on_c, 0, 69, 0
3, 144800, Note_on_c, 0, 74, 82
3, 144904, Note_on_c, 0, 74, 0
3, 144960, Note_on_c, 0, 66, 95
3, 145120, Note_on_c, 0, 69, 82
3, 145121, Note_on_c, 0, 66, 0
3, 145224, Note_on_c, 0, 69, 0
3, 145280, Note_on_c, 0, 74, 83
3, 145384, Note_on_c, 0, 74, 0
3, 145440, Note_on_c, 0, 64, 83
3, 145600, Note_on_c, 0, 67, 83
3, 145601, Note_on_c, 0, 64, 0
3, 145704, Note_on_c, 0, 67, 0
3, 145760, Note_on_c, 0, 73, 83
3, 145864, Note_on_c, 0, 73, 0
3, 145920, Note_on_c, 0, 74, 83
3, 145920, Note_on_c, 0, 66, 83
3, 145920, Note_on_c, 0, 78, 83
3, 146080, Note_on_c, 0, 69, 72
3, 146081, Note_on_c, 0, 66, 0
3, 146081, Note_on_c, 0, 74, 0
3, 146112, Note_on_c, 0, 78, 0
3, 146240, Note_on_c, 0, 69, 0
3, 147040, Note_on_c, 0, 57, 73
3, 147200, Note_on_c, 0, 57, 0
3, 147200, Note_on_c, 0, 69, 73
3, 147304, Note_on_c, 0, 69, 0
3, 147360, Note_on_c, 0, 69, 73
3, 147464, Note_on_c, 0, 69, 0
3, 147520, Note_on_c, 0, 69, 73
3, 147624, Note_on_c, 0, 69, 0
3, 147680, Note_on_c, 0, 69, 74
3, 147784, Note_on_c, 0, 69, 0
3, 147840, Note_on_c, 0, 69, 74
3, 148080, Note_on_c, 0, 69, 0
3, 149920, Note_on_c, 0, 75, 77
3, 149920, Note_on_c, 0, 63, 77
3, 149920, Note_on_c, 0, 66, 77
3, 150024, Note_on_c, 0, 66, 0
3, 150024, Note_on_c, 0, 63, 0
3, 150024, Note_on_c, 0, 75, 0
3, 150080, Note_on_c, 0, 76, 77
3, 150080, Note_on_c, 0, 64, 77
3, 150080, Note_on_c, 0, 67, 77
3, 150184, Note_on_c, 0, 67, 0
3, 150184, Note_on_c, 0, 64, 0
3, 150184, Note_on_c, 0, 76, 0
3, 150240, Note_on_c, 0, 78, 77
3, 150240, Note_on_c, 0, 66, 77
3, 150240, Note_on_c, 0, 69, 77
3, 150344, Note_on_c, 0, 69, 0
3, 150344, Note_on_c, 0, 66, 0
3, 150344, Note_on_c, 0, 78, 0
3, 150400, Note_on_c, 0, 78, 77
3, 150400, Note_on_c, 0, 66, 77
3, 150400, Note_on_c, 0, 69, 77
3, 150504, Note_on_c, 0, 69, 0
3, 150504, Note_on_c, 0, 66, 0
3, 150504, Note_on_c, 0, 78, 0
3, 150560, Note_on_c, 0, 79, 77
3, 150560, Note_on_c, 0, 67, 77
3, 150560, Note_on_c, 0, 71, 77
3, 150664, Note_on_c, 0, 71, 0
3, 150664, Note_on_c, 0, 67, 0
3, 150664, Note_on_c, 0, 79, 0
3, 150720, Note_on_c, 0, 72, 78
3, 150720, Note_on_c, 0, 69, 78
3, 151440, Note_on_c, 0, 69, 0
3, 151440, Note_on_c, 0, 72, 0
3, 151440, Note_on_c, 0, 67, 79
3, 151440, Note_on_c, 0, 71, 79
3, 151560, Note_on_c, 0, 71, 0
3, 151560, Note_on_c, 0, 67, 0
3, 151560, Note_on_c, 0, 69, 79
3, 151560, Note_on_c, 0, 66, 79
3, 151680, Note_on_c, 0, 66, 0
3, 151680, Note_on_c, 0, 69, 0
3, 151680, Note_on_c, 0, 64, 79
3, 151680, Note_on_c, 0, 67, 79
3, 151920, Note_on_c, 0, 67, 0
3, 151920, Note_on_c, 0, 64, 0
3, 152160, Note_on_c, 0, 71, 80
3, 152240, Note_on_c, 0, 71, 0
3, 152240, Note_on_c, 0, 72, 80
3, 152320, Note_on_c, 0, 72, 0
3, 152320, Note_on_c, 0, 71, 80
3, 152400, Note_on_c, 0, 71, 0
3, 152400, Note_on_c, 0, 69, 80
3, 152520, Note_on_c, 0, 69, 0
3, 152520, Note_on_c, 0, 67, 80
3, 152640, Note_on_c, 0, 67, 0
3, 152640, Note_on_c, 0, 67, 80
3, 152720, Note_on_c, 0, 67, 0
3, 152720, Note_on_c, 0, 69, 80
3, 152800, Note_on_c, 0, 69, 0
3, 152800, Note_on_c, 0, 67, 80
3, 152880, Note_on_c, 0, 67, 0
3, 152880, Note_on_c, 0, 66, 80
3, 153000, Note_on_c, 0, 66, 0
3, 153000, Note_on_c, 0, 64, 81
3, 153120, Note_on_c, 0, 64, 0
3, 153600, Note_on_c, 0, 79, 81
3, 153660, Note_on_c, 0, 79, 0
3, 153660, Note_on_c, 0, 81, 80
3, 153720, Note_on_c, 0, 81, 0
3, 153720, Note_on_c, 0, 79, 80
3, 153780, Note_on_c, 0, 79, 0
3, 153780, Note_on_c, 0, 81, 79
3, 153840, Note_on_c, 0, 81, 0
3, 153840, Note_on_c, 0, 79, 78
3, 153900, Note_on_c, 0, 79, 0
3, 153900, Note_on_c, 0, 81, 78
3, 153960, Note_on_c, 0, 81, 0
3, 153960, Note_on_c, 0, 79, 77
3, 154020, Note_on_c, 0, 79, 0
3, 154020, Note_on_c, 0, 81, 76
3, 154080, Note_on_c, 0, 81, 0
3, 154080, Note_on_c, 0, 79, 75
3, 154160, Note_on_c, 0, 79, 0
3, 154160, Note_on_c, 0, 81, 75
3, 154240, Note_on_c, 0, 81, 0
3, 154240, Note_on_c, 0, 79, 74
3, 154320, Note_on_c, 0, 79, 0
3, 154320, Note_on_c, 0, 78, 73
3, 154440, Note_on_c, 0, 78, 0
3, 154440, Note_on_c, 0, 79, 71
3, 154560, Note_on_c, 0, 79, 0
3, 154560, Note_on_c, 0, 78, 70
3, 154800, Note_on_c, 0, 78, 0
3, 161280, Note_on_c, 0, 65, 64
3, 161760, Note_on_c, 0, 65, 0
3, 161760, Note_on_c, 0, 64, 70
3, 162480, Note_on_c, 0, 64, 0
3, 162480, Note_on_c, 0, 76, 64
3, 162720, Note_on_c, 0, 76, 0
3, 162720, Note_on_c, 0, 74, 64
3, 162960, Note_on_c, 0, 74, 0
3, 162960, Note_on_c, 0, 71, 63
3, 163200, Note_on_c, 0, 71, 0
3, 163200, Note_on_c, 0, 69, 63
3, 164400, Note_on_c, 0, 71, 61
3, 164407, Note_on_c, 0, 69, 0
3, 164460, Note_on_c, 0, 71, 0
3, 164460, Note_on_c, 0, 69, 61
3, 164520, Note_on_c, 0, 69, 0
3, 164520, Note_on_c, 0, 68, 60
3, 164580, Note_on_c, 0, 68, 0
3, 164580, Note_on_c, 0, 69, 60
3, 164640, Note_on_c, 0, 69, 0
3, 164640, Note_on_c, 0, 72, 60
3, 164880, Note_on_c, 0, 72, 0
3, 164880, Note_on_c, 0, 71, 60
3, 165120, Note_on_c, 0, 71, 0
3, 165120, Note_on_c, 0, 69, 59
3, 165600, Note_on_c, 0, 69, 0
3, 167040, Note_on_c, 0, 67, 56
3, 168480, Note_on_c, 0, 67, 0
3, 168480, Note_on_c, 0, 65, 57
3, 168720, Note_on_c, 0, 65, 0
3, 168720, Note_on_c, 0, 64, 57
3, 168960, Note_on_c, 0, 64, 0
3, 168960, Note_on_c, 0, 62, 58
3, 169440, Note_on_c, 0, 62, 0
3, 169440, Note_on_c, 0, 61, 58
3, 170400, Note_on_c, 0, 61, 0
3, 170400, Note_on_c, 0, 76, 59
3, 170880, Note_on_c, 0, 76, 0
3, 170880, Note_on_c, 0, 76, 59
3, 171360, Note_on_c, 0, 76, 0
3, 171360, Note_on_c, 0, 73, 60
3, 171840, Note_on_c, 0, 73, 0
3, 171840, Note_on_c, 0, 69, 60
3, 172320, Note_on_c, 0, 69, 0
3, 172320, Note_on_c, 0, 67, 61
3, 172800, Note_on_c, 0, 67, 0
3, 172800, Note_on_c, 0, 65, 62
3, 173760, Note_on_c, 0, 65, 0
3, 173760, Note_on_c, 0, 63, 67
3, 174240, Note_on_c, 0, 63, 0
3, 174240, Note_on_c, 0, 67, 69
3, 174480, Note_on_c, 0, 67, 0
3, 174480, Note_on_c, 0, 70, 70
3, 174720, Note_on_c, 0, 70, 0
3, 174720, Note_on_c, 0, 62, 81
3, 175200, Note_on_c, 0, 62, 0
3, 175200, Note_on_c, 0, 62, 66
3, 175920, Note_on_c, 0, 62, 0
3, 175920, Note_on_c, 0, 64, 60
3, 175980, Note_on_c, 0, 64, 0
3, 175980, Note_on_c, 0, 62, 60
3, 176040, Note_on_c, 0, 62, 0
3, 176040, Note_on_c, 0, 61, 59
3, 176100, Note_on_c, 0, 61, 0
3, 176100, Note_on_c, 0, 62, 58
3, 176160, Note_on_c, 0, 62, 0
3, 176160, Note_on_c, 0, 65, 58
3, 176400, Note_on_c, 0, 65, 0
3, 176400, Note_on_c, 0, 64, 56
3, 176640, Note_on_c, 0, 64, 0
3, 176640, Note_on_c, 0, 62, 56
3, 177120, Note_on_c, 0, 62, 0
3, 177280, Note_on_c, 0, 69, 57
3, 177440, Note_on_c, 0, 69, 0
3, 177440, Note_on_c, 0, 68, 57
3, 177600, Note_on_c, 0, 68, 0
3, 177600, Note_on_c, 0, 70, 58
3, 177760, Note_on_c, 0, 70, 0
3, 177760, Note_on_c, 0, 69, 58
3, 177864, Note_on_c, 0, 69, 0
3, 177920, Note_on_c, 0, 67, 58
3, 178024, Note_on_c, 0, 67, 0
3, 178080, Note_on_c, 0, 65, 59
3, 178184, Note_on_c, 0, 65, 0
3, 178240, Note_on_c, 0, 64, 59
3, 178344, Note_on_c, 0, 64, 0
3, 178400, Note_on_c, 0, 62, 59
3, 178504, Note_on_c, 0, 62, 0
3, 178560, Note_on_c, 0, 61, 60
3, 179040, Note_on_c, 0, 61, 0
3, 179200, Note_on_c, 0, 70, 61
3, 179360, Note_on_c, 0, 70, 0
3, 179360, Note_on_c, 0, 69, 61
3, 179520, Note_on_c, 0, 69, 0
3, 179520, Note_on_c, 0, 72, 62
3, 179680, Note_on_c, 0, 72, 0
3, 179680, Note_on_c, 0, 70, 62
3, 179784, Note_on_c, 0, 70, 0
3, 179840, Note_on_c, 0, 69, 62
3, 179944, Note_on_c, 0, 69, 0
3, 180000, Note_on_c, 0, 67, 63
3, 180104, Note_on_c, 0, 67, 0
3, 180160, Note_on_c, 0, 65, 63
3, 180264, Note_on_c, 0, 65, 0
3, 180320, Note_on_c, 0, 64, 63
3, 180424, Note_on_c, 0, 64, 0
3, 180480, Note_on_c, 0, 62, 64
3, 180481, Note_on_c, 0, 62, 0
3, 181120, Note_on_c, 0, 74, 65
3, 181280, Note_on_c, 0, 74, 0
3, 181280, Note_on_c, 0, 73, 65
3, 181440, Note_on_c, 0, 73, 0
3, 181440, Note_on_c, 0, 75, 65
3, 181600, Note_on_c, 0, 75, 0
3, 181600, Note_on_c, 0, 74, 66
3, 181760, Note_on_c, 0, 74, 0
3, 181760, Note_on_c, 0, 72, 66
3, 181920, Note_on_c, 0, 72, 0
3, 181920, Note_on_c, 0, 70, 66
3, 182080, Note_on_c, 0, 70, 0
3, 182080, Note_on_c, 0, 69, 67
3, 182240, Note_on_c, 0, 69, 0
3, 182240, Note_on_c, 0, 72, 69
3, 182400, Note_on_c, 0, 72, 0
3, 182400, Note_on_c, 0, 70, 69
3, 182560, Note_on_c, 0, 70, 0
3, 182560, Note_on_c, 0, 69, 68
3, 182720, Note_on_c, 0, 69, 0
3, 182720, Note_on_c, 0, 67, 67
3, 182880, Note_on_c, 0, 67, 0
3, 182880, Note_on_c, 0, 65, 67
3, 183040, Note_on_c, 0, 65, 0
3, 183040, Note_on_c, 0, 64, 66
3, 183200, Note_on_c, 0, 64, 0
3, 183200, Note_on_c, 0, 67, 65
3, 183360, Note_on_c, 0, 67, 0
3, 183360, Note_on_c, 0, 64, 64
3, 183520, Note_on_c, 0, 64, 0
3, 183520, Note_on_c, 0, 62, 64
3, 183680, Note_on_c, 0, 62, 0
3, 183680, Note_on_c, 0, 65, 63
3, 183840, Note_on_c, 0, 65, 0
3, 183840, Note_on_c, 0, 62, 62
3, 184000, Note_on_c, 0, 62, 0
3, 184000, Note_on_c, 0, 61, 61
3, 184160, Note_on_c, 0, 61, 0
3, 184160, Note_on_c, 0, 64, 61
3, 184320, Note_on_c, 0, 64, 0
3, 184320, Note_on_c, 0, 57, 61
3, 184480, Note_on_c, 0, 57, 0
3, 184480, Note_on_c, 0, 61, 60
3, 184640, Note_on_c, 0, 61, 0
3, 184640, Note_on_c, 0, 64, 59
3, 184800, Note_on_c, 0, 64, 0
3, 184800, Note_on_c, 0, 69, 57
3, 184960, Note_on_c, 0, 69, 0
3, 184960, Note_on_c, 0, 68, 56
3, 185120, Note_on_c, 0, 68, 0
3, 185120, Note_on_c, 0, 69, 55
3, 185280, Note_on_c, 0, 69, 0
3, 185280, Note_on_c, 0, 62, 54
3, 185760, Note_on_c, 0, 62, 0
3, 188640, Note_on_c, 0, 62, 59
3, 188640, Note_on_c, 0, 66, 59
3, 189120, Note_on_c, 0, 66, 0
3, 189120, Note_on_c, 0, 62, 0
3, 189600, Note_on_c, 0, 61, 61
3, 189600, Note_on_c, 0, 67, 61
3, 189600, Note_on_c, 0, 57, 61
3, 190080, Note_on_c, 0, 57, 0
3, 190080, Note_on_c, 0, 67, 0
3, 190080, Note_on_c, 0, 61, 0
3, 190560, Note_on_c, 0, 66, 62
3, 190560, Note_on_c, 0, 62, 62
3, 190680, Note_on_c, 0, 62, 0
3, 190680, Note_on_c, 0, 66, 0
3, 190800, Note_on_c, 0, 62, 61
3, 190800, Note_on_c, 0, 66, 61
3, 190920, Note_on_c, 0, 66, 0
3, 190920, Note_on_c, 0, 62, 0
3, 192480, Note_on_c, 0, 66, 59
3, 192480, Note_on_c, 0, 62, 59
3, 192960, Note_on_c, 0, 62, 0
3, 192960, Note_on_c, 0, 66, 0
3, 193440, Note_on_c, 0, 59, 60
3, 193440, Note_on_c, 0, 66, 60
3, 193440, Note_on_c, 0, 62, 60
3, 193920, Note_on_c, 0, 62, 0
3, 193920, Note_on_c, 0, 66, 0
3, 193920, Note_on_c, 0, 59, 0
3, 194400, Note_on_c, 0, 71, 59
3, 194400, Note_on_c, 0, 74, 59
3, 194400, Note_on_c, 0, 68, 59
3, 194520, Note_on_c, 0, 68, 0
3, 194520, Note_on_c, 0, 74, 0
3, 194520, Note_on_c, 0, 71, 0
3, 194640, Note_on_c, 0, 74, 58
3, 194640, Note_on_c, 0, 71, 58
3, 194640, Note_on_c, 0, 68, 58
3, 194760, Note_on_c, 0, 68, 0
3, 194760, Note_on_c, 0, 71, 0
3, 194760, Note_on_c, 0, 74, 0
3, 196800, Note_on_c, 0, 62, 58
3, 196920, Note_on_c, 0, 62, 0
3, 196920, Note_on_c, 0, 68, 59
3, 197040, Note_on_c, 0, 68, 0
3, 197040, Note_on_c, 0, 71, 60
3, 197160, Note_on_c, 0, 71, 0
3, 197160, Note_on_c, 0, 68, 60
3, 197280, Note_on_c, 0, 68, 0
3, 197280, Note_on_c, 0, 74, 61
3, 197400, Note_on_c, 0, 74, 0
3, 197520, Note_on_c, 0, 74, 62
3, 197640, Note_on_c, 0, 74, 0
3, 197760, Note_on_c, 0, 74, 65
3, 198720, Note_on_c, 0, 74, 0
3, 198720, Note_on_c, 0, 73, 60
3, 199200, Note_on_c, 0, 73, 0
3, 200640, Note_on_c, 0, 64, 59
3, 200760, Note_on_c, 0, 64, 0
3, 200760, Note_on_c, 0, 67, 59
3, 200880, Note_on_c, 0, 67, 0
3, 200880, Note_on_c, 0, 73, 59
3, 201000, Note_on_c, 0, 73, 0
3, 201000, Note_on_c, 0, 67, 59
3, 201120, Note_on_c, 0, 67, 0
3, 201120, Note_on_c, 0, 76, 59
3, 201240, Note_on_c, 0, 76, 0
3, 201360, Note_on_c, 0, 76, 59
3, 201480, Note_on_c, 0, 76, 0
3, 201600, Note_on_c, 0, 76, 59
3, 204240, Note_on_c, 0, 76, 0
3, 204240, Note_on_c, 0, 74, 58
3, 204480, Note_on_c, 0, 74, 0
3, 204480, Note_on_c, 0, 73, 57
3, 204720, Note_on_c, 0, 73, 0
3, 204720, Note_on_c, 0, 71, 55
3, 204960, Note_on_c, 0, 71, 0
3, 204960, Note_on_c, 0, 69, 54
3, 205200, Note_on_c, 0, 69, 0
3, 205200, Note_on_c, 0, 67, 53
3, 205440, Note_on_c, 0, 67, 0
3, 205440, Note_on_c, 0, 66, 52
3, 206400, Note_on_c, 0, 66, 0
3, 207360, Note_on_c, 0, 78, 64
3, 207480, Note_on_c, 0, 78, 0
3, 207480, Note_on_c, 0, 74, 57
3, 207600, Note_on_c, 0, 74, 0
3, 207600, Note_on_c, 0, 69, 57
3, 207720, Note_on_c, 0, 69, 0
3, 207720, Note_on_c, 0, 74, 57
3, 207840, Note_on_c, 0, 74, 0
3, 207840, Note_on_c, 0, 66, 57
3, 207960, Note_on_c, 0, 66, 0
3, 208080, Note_on_c, 0, 66, 58
3, 208200, Note_on_c, 0, 66, 0
3, 208320, Note_on_c, 0, 67, 66
3, 208800, Note_on_c, 0, 67, 0
3, 208800, Note_on_c, 0, 73, 60
3, 208920, Note_on_c, 0, 73, 0
3, 209040, Note_on_c, 0, 73, 60
3, 209160, Note_on_c, 0, 73, 0
3, 209280, Note_on_c, 0, 74, 61
3, 209760, Note_on_c, 0, 74, 0
3, 214560, Note_on_c, 0, 72, 74
3, 214560, Note_on_c, 0, 75, 74
3, 214680, Note_on_c, 0, 75, 0
3, 214680, Note_on_c, 0, 72, 0
3, 214800, Note_on_c, 0, 75, 75
3, 214800, Note_on_c, 0, 72, 75
3, 214920, Note_on_c, 0, 72, 0
3, 214920, Note_on_c, 0, 75, 0
3, 215040, Note_on_c, 0, 76, 74
3, 215040, Note_on_c, 0, 71, 74
3, 215520, Note_on_c, 0, 71, 0
3, 215520, Note_on_c, 0, 76, 0
3, 215520, Note_on_c, 0, 71, 69
3, 216000, Note_on_c, 0, 71, 0
3, 216000, Note_on_c, 0, 66, 64
3, 216480, Note_on_c, 0, 66, 0
3, 216480, Note_on_c, 0, 67, 59
3, 216960, Note_on_c, 0, 67, 0
3, 216960, Note_on_c, 0, 81, 54
3, 216960, Note_on_c, 0, 66, 54
3, 217040, Note_on_c, 0, 81, 0
3, 217040, Note_on_c, 0, 83, 54
3, 217120, Note_on_c, 0, 83, 0
3, 217120, Note_on_c, 0, 81, 54
3, 217200, Note_on_c, 0, 81, 0
3, 217200, Note_on_c, 0, 83, 55
3, 217280, Note_on_c, 0, 83, 0
3, 217280, Note_on_c, 0, 81, 55
3, 217360, Note_on_c, 0, 81, 0
3, 217360, Note_on_c, 0, 83, 55
3, 217440, Note_on_c, 0, 83, 0
3, 217440, Note_on_c, 0, 66, 0
3, 217440, Note_on_c, 0, 81, 55
3, 217520, Note_on_c, 0, 81, 0
3, 217520, Note_on_c, 0, 83, 56
3, 217600, Note_on_c, 0, 83, 0
3, 217600, Note_on_c, 0, 81, 56
3, 217680, Note_on_c, 0, 81, 0
3, 217680, Note_on_c, 0, 83, 56
3, 217760, Note_on_c, 0, 83, 0
3, 217760, Note_on_c, 0, 81, 56
3, 217840, Note_on_c, 0, 81, 0
3, 217840, Note_on_c, 0, 83, 57
3, 217920, Note_on_c, 0, 83, 0
3, 217920, Note_on_c, 0, 81, 57
3, 218000, Note_on_c, 0, 81, 0
3, 218000, Note_on_c, 0, 83, 57
3, 218080, Note_on_c, 0, 83, 0
3, 218080, Note_on_c, 0, 81, 57
3, 218160, Note_on_c, 0, 81, 0
3, 218160, Note_on_c, 0, 83, 58
3, 218240, Note_on_c, 0, 83, 0
3, 218240, Note_on_c, 0, 81, 58
3, 218320, Note_on_c, 0, 81, 0
3, 218320, Note_on_c, 0, 83, 58
3, 218400, Note_on_c, 0, 83, 0
3, 218400, Note_on_c, 0, 81, 59
3, 218480, Note_on_c, 0, 81, 0
3, 218480, Note_on_c, 0, 83, 59
3, 218560, Note_on_c, 0, 83, 0
3, 218560, Note_on_c, 0, 81, 59
3, 218640, Note_on_c, 0, 81, 0
3, 218640, Note_on_c, 0, 83, 59
3, 218720, Note_on_c, 0, 83, 0
3, 218720, Note_on_c, 0, 81, 60
3, 218800, Note_on_c, 0, 81, 0
3, 218800, Note_on_c, 0, 83, 60
3, 218880, Note_on_c, 0, 83, 0
3, 218880, Note_on_c, 0, 81, 60
3, 218960, Note_on_c, 0, 81, 0
3, 218960, Note_on_c, 0, 83, 60
3, 219040, Note_on_c, 0, 83, 0
3, 219040, Note_on_c, 0, 81, 61
3, 219120, Note_on_c, 0, 81, 0
3, 219120, Note_on_c, 0, 83, 61
3, 219200, Note_on_c, 0, 83, 0
3, 219200, Note_on_c, 0, 81, 61
3, 219280, Note_on_c, 0, 81, 0
3, 219280, Note_on_c, 0, 83, 62
3, 219360, Note_on_c, 0, 83, 0
3, 219360, Note_on_c, 0, 81, 62
3, 219440, Note_on_c, 0, 81, 0
3, 219440, Note_on_c, 0, 83, 62
3, 219520, Note_on_c, 0, 83, 0
3, 219520, Note_on_c, 0, 81, 62
3, 219600, Note_on_c, 0, 81, 0
3, 219600, Note_on_c, 0, 83, 63
3, 219680, Note_on_c, 0, 83, 0
3, 219680, Note_on_c, 0, 81, 63
3, 219760, Note_on_c, 0, 81, 0
3, 219760, Note_on_c, 0, 83, 63
3, 219840, Note_on_c, 0, 83, 0
3, 219840, Note_on_c, 0, 81, 63
3, 219920, Note_on_c, 0, 81, 0
3, 219920, Note_on_c, 0, 83, 64
3, 220000, Note_on_c, 0, 83, 0
3, 220000, Note_on_c, 0, 81, 64
3, 220080, Note_on_c, 0, 81, 0
3, 220080, Note_on_c, 0, 83, 64
3, 220160, Note_on_c, 0, 83, 0
3, 220160, Note_on_c, 0, 81, 65
3, 220240, Note_on_c, 0, 81, 0
3, 220240, Note_on_c, 0, 83, 65
3, 220320, Note_on_c, 0, 83, 0
3, 220320, Note_on_c, 0, 81, 65
3, 220400, Note_on_c, 0, 81, 0
3, 220400, Note_on_c, 0, 83, 65
3, 220480, Note_on_c, 0, 83, 0
3, 220480, Note_on_c, 0, 81, 66
3, 220560, Note_on_c, 0, 81, 0
3, 220560, Note_on_c, 0, 83, 66
3, 220640, Note_on_c, 0, 83, 0
3, 220640, Note_on_c, 0, 81, 66
3, 220720, Note_on_c, 0, 81, 0
3, 220720, Note_on_c, 0, 83, 66
3, 220800, Note_on_c, 0, 83, 0
3, 220800, Note_on_c, 0, 81, 67
3, 220880, Note_on_c, 0, 81, 0
3, 220880, Note_on_c, 0, 83, 67
3, 220960, Note_on_c, 0, 83, 0
3, 220960, Note_on_c, 0, 81, 67
3, 221040, Note_on_c, 0, 81, 0
3, 221040, Note_on_c, 0, 83, 68
3, 221120, Note_on_c, 0, 83, 0
3, 221120, Note_on_c, 0, 81, 68
3, 221200, Note_on_c, 0, 81, 0
3, 221200, Note_on_c, 0, 83, 68
3, 221280, Note_on_c, 0, 83, 0
3, 221280, Note_on_c, 0, 81, 68
3, 221360, Note_on_c, 0, 81, 0
3, 221360, Note_on_c, 0, 83, 69
3, 221440, Note_on_c, 0, 83, 0
3, 221440, Note_on_c, 0, 81, 69
3, 221520, Note_on_c, 0, 81, 0
3, 221520, Note_on_c, 0, 83, 69
3, 221600, Note_on_c, 0, 83, 0
3, 221600, Note_on_c, 0, 81, 69
3, 221680, Note_on_c, 0, 81, 0
3, 221680, Note_on_c, 0, 83, 70
3, 221760, Note_on_c, 0, 83, 0
3, 221760, Note_on_c, 0, 81, 70
3, 221840, Note_on_c, 0, 81, 0
3, 221840, Note_on_c, 0, 83, 70
3, 221920, Note_on_c, 0, 83, 0
3, 221920, Note_on_c, 0, 81, 70
3, 222000, Note_on_c, 0, 81, 0
3, 222000, Note_on_c, 0, 75, 71
3, 222000, Note_on_c, 0, 80, 71
3, 222120, Note_on_c, 0, 80, 0
3, 222120, Note_on_c, 0, 81, 71
3, 222240, Note_on_c, 0, 81, 0
3, 222240, Note_on_c, 0, 75, 0
3, 222240, Note_on_c, 0, 75, 72
3, 222480, Note_on_c, 0, 75, 0
3, 222480, Note_on_c, 0, 75, 72
3, 222720, Note_on_c, 0, 75, 0
3, 222720, Note_on_c, 0, 76, 77
3, 223200, Note_on_c, 0, 76, 0
3, 223200, Note_on_c, 0, 71, 72
3, 223680, Note_on_c, 0, 71, 0
3, 223680, Note_on_c, 0, 66, 68
3, 224160, Note_on_c, 0, 66, 0
3, 224160, Note_on_c, 0, 67, 63
3, 224640, Note_on_c, 0, 67, 0
3, 224640, Note_on_c, 0, 69, 58
3, 224640, Note_on_c, 0, 66, 58
3, 225120, Note_on_c, 0, 66, 0
3, 225120, Note_on_c, 0, 69, 0
3, 225120, Note_on_c, 0, 66, 58
3, 225600, Note_on_c, 0, 66, 0
3, 226080, Note_on_c, 0, 71, 60
3, 226080, Note_on_c, 0, 66, 60
3, 226560, Note_on_c, 0, 66, 0
3, 226560, Note_on_c, 0, 71, 0
3, 227040, Note_on_c, 0, 71, 62
3, 227040, Note_on_c, 0, 67, 62
3, 227520, Note_on_c, 0, 67, 0
3, 227520, Note_on_c, 0, 71, 0
3, 228000, Note_on_c, 0, 67, 63
3, 228000, Note_on_c, 0, 64, 63
3, 228480, Note_on_c, 0, 64, 0
3, 228480, Note_on_c, 0, 67, 0
3, 228720, Note_on_c, 0, 66, 64
3, 228876, Note_on_c, 0, 66, 0
3, 228960, Note_on_c, 0, 66, 65
3, 229200, Note_on_c, 0, 66, 0
3, 229200, Note_on_c, 0, 69, 65
3, 229356, Note_on_c, 0, 69, 0
3, 229680, Note_on_c, 0, 66, 66
3, 229836, Note_on_c, 0, 66, 0
3, 229920, Note_on_c, 0, 66, 66
3, 230160, Note_on_c, 0, 66, 0
3, 230160, Note_on_c, 0, 71, 66
3, 230400, Note_on_c, 0, 71, 0
3, 230640, Note_on_c, 0, 67, 67
3, 230796, Note_on_c, 0, 67, 0
3, 230880, Note_on_c, 0, 67, 67
3, 231120, Note_on_c, 0, 67, 0
3, 231120, Note_on_c, 0, 71, 68
3, 231276, Note_on_c, 0, 71, 0
3, 231600, Note_on_c, 0, 64, 69
3, 231756, Note_on_c, 0, 64, 0
3, 231840, Note_on_c, 0, 64, 69
3, 232080, Note_on_c, 0, 64, 0
3, 232080, Note_on_c, 0, 67, 69
3, 232236, Note_on_c, 0, 67, 0
3, 232320, Note_on_c, 0, 66, 70
3, 232440, Note_on_c, 0, 69, 70
3, 232560, Note_on_c, 0, 69, 0
3, 232560, Note_on_c, 0, 66, 0
3, 232560, Note_on_c, 0, 66, 70
3, 232680, Note_on_c, 0, 69, 70
3, 232800, Note_on_c, 0, 69, 0
3, 232800, Note_on_c, 0, 66, 0
3, 232800, Note_on_c, 0, 66, 70
3, 232920, Note_on_c, 0, 69, 71
3, 233040, Note_on_c, 0, 69, 0
3, 233040, Note_on_c, 0, 66, 0
3, 233040, Note_on_c, 0, 66, 71
3, 233160, Note_on_c, 0, 69, 71
3, 233280, Note_on_c, 0, 69, 0
3, 233280, Note_on_c, 0, 66, 0
3, 233280, Note_on_c, 0, 66, 71
3, 233400, Note_on_c, 0, 71, 71
3, 233520, Note_on_c, 0, 71, 0
3, 233520, Note_on_c, 0, 66, 0
3, 233520, Note_on_c, 0, 66, 71
3, 233640, Note_on_c, 0, 71, 72
3, 233760, Note_on_c, 0, 71, 0
3, 233760, Note_on_c, 0, 66, 0
3, 233760, Note_on_c, 0, 66, 72
3, 233880, Note_on_c, 0, 71, 72
3, 234000, Note_on_c, 0, 71, 0
3, 234000, Note_on_c, 0, 66, 0
3, 234000, Note_on_c, 0, 66, 72
3, 234120, Note_on_c, 0, 71, 72
3, 234240, Note_on_c, 0, 71, 0
3, 234240, Note_on_c, 0, 66, 0
3, 234240, Note_on_c, 0, 67, 80
3, 234240, Note_on_c, 0, 71, 80
3, 236160, Note_on_c, 0, 71, 0
3, 236160, Note_on_c, 0, 67, 0
3, 236160, Note_on_c, 0, 67, 73
3, 236160, Note_on_c, 0, 64, 73
3, 238080, Note_on_c, 0, 64, 0
3, 238080, Note_on_c, 0, 67, 0
3, 238080, Note_on_c, 0, 66, 63
3, 238560, Note_on_c, 0, 66, 0
3, 238560, Note_on_c, 0, 62, 68
3, 239160, Note_on_c, 0, 62, 0
3, 239160, Note_on_c, 0, 61, 64
3, 239280, Note_on_c, 0, 61, 0
3, 239280, Note_on_c, 0, 59, 63
3, 239400, Note_on_c, 0, 59, 0
3, 239400, Note_on_c, 0, 57, 62
3, 239520, Note_on_c, 0, 57, 0
3, 239520, Note_on_c, 0, 56, 61
3, 239640, Note_on_c, 0, 56, 0
3, 239640, Note_on_c, 0, 57, 60
3, 239760, Note_on_c, 0, 57, 0
3, 239760, Note_on_c, 0, 59, 60
3, 239880, Note_on_c, 0, 59, 0
3, 239880, Note_on_c, 0, 61, 59
3, 240000, Note_on_c, 0, 61, 0
3, 240000, Note_on_c, 0, 62, 60
3, 240120, Note_on_c, 0, 62, 0
3, 240120, Note_on_c, 0, 64, 61
3, 240240, Note_on_c, 0, 64, 0
3, 240240, Note_on_c, 0, 66, 62
3, 240360, Note_on_c, 0, 66, 0
3, 240360, Note_on_c, 0, 67, 63
3, 240480, Note_on_c, 0, 67, 0
3, 240480, Note_on_c, 0, 69, 64
3, 240600, Note_on_c, 0, 69, 0
3, 240720, Note_on_c, 0, 69, 66
3, 240840, Note_on_c, 0, 69, 0
3, 240960, Note_on_c, 0, 67, 69
3, 240960, Note_on_c, 0, 73, 69
3, 241680, Note_on_c, 0, 73, 0
3, 241680, Note_on_c, 0, 67, 0
3, 241680, Note_on_c, 0, 64, 62
3, 241680, Note_on_c, 0, 69, 62
3, 241920, Note_on_c, 0, 69, 0
3, 241920, Note_on_c, 0, 64, 0
3, 241920, Note_on_c, 0, 66, 60
3, 241920, Note_on_c, 0, 69, 60
3, 242392, Note_on_c, 0, 69, 0
3, 242400, Note_on_c, 0, 66, 0
3, 242400, Note_on_c, 0, 50, 62
3, 243000, Note_on_c, 0, 50, 0
3, 243000, Note_on_c, 0, 49, 60
3, 243120, Note_on_c, 0, 49, 0
3, 243120, Note_on_c, 0, 47, 61
3, 243240, Note_on_c, 0, 47, 0
3, 243240, Note_on_c, 0, 45, 61
3, 243360, Note_on_c, 0, 45, 0
3, 243360, Note_on_c, 0, 44, 61
3, 243480, Note_on_c, 0, 44, 0
3, 243480, Note_on_c, 0, 45, 60
3, 243600, Note_on_c, 0, 45, 0
3, 243600, Note_on_c, 0, 47, 59
3, 243720, Note_on_c, 0, 47, 0
3, 243720, Note_on_c, 0, 49, 58
3, 243840, Note_on_c, 0, 49, 0
3, 243840, Note_on_c, 0, 50, 58
3, 243960, Note_on_c, 0, 50, 0
3, 243960, Note_on_c, 0, 52, 58
3, 244080, Note_on_c, 0, 52, 0
3, 244080, Note_on_c, 0, 54, 58
3, 244200, Note_on_c, 0, 54, 0
3, 244200, Note_on_c, 0, 55, 59
3, 244320, Note_on_c, 0, 55, 0
3, 244320, Note_on_c, 0, 57, 59
3, 244440, Note_on_c, 0, 57, 0
3, 244560, Note_on_c, 0, 57, 60
3, 244680, Note_on_c, 0, 57, 0
3, 244800, Note_on_c, 0, 67, 65
3, 244800, Note_on_c, 0, 73, 65
3, 244800, Note_on_c, 0, 64, 65
3, 245760, Note_on_c, 0, 64, 0
3, 245760, Note_on_c, 0, 73, 0
3, 245760, Note_on_c, 0, 67, 0
3, 246480, Note_on_c, 0, 69, 55
3, 246720, Note_on_c, 0, 69, 0
3, 250560, Note_on_c, 0, 81, 51
3, 250560, Note_on_c, 0, 78, 51
3, 251040, Note_on_c, 0, 78, 0
3, 251040, Note_on_c, 0, 81, 0
3, 251520, Note_on_c, 0, 78, 45
3, 251520, Note_on_c, 0, 81, 45
3, 252000, Note_on_c, 0, 81, 0
3, 252000, Note_on_c, 0, 78, 0
3, 252000, End_track
4, 0, Start_track
4, 0, Title_t, "Piano"
4, 0, Control_c, 0, 0, 0
4, 0, Control_c, 0, 7, 115
4, 0, Control_c, 0, 10, 54
4, 0, Control_c, 0, 91, 91
4, 0, Control_c, 0, 93, 28
4, 0, Pitch_bend_c, 0, 8192
4, 0, Control_c, 0, 1, 0
4, 0, Control_c, 0, 64, 0
4, 1, Control_c, 0, 32, 0
4, 1, Program_c, 0, 0
4, 1920, Note_on_c, 0, 54, 56
4, 2160, Note_on_c, 0, 57, 57
4, 2400, Note_on_c, 0, 57, 0
4, 2400, Note_on_c, 0, 54, 0
4, 2400, Note_on_c, 0, 54, 57
4, 2640, Note_on_c, 0, 57, 58
4, 2880, Note_on_c, 0, 57, 0
4, 2880, Note_on_c, 0, 54, 0
4, 2880, Note_on_c, 0, 61, 58
4, 2880, Note_on_c, 0, 55, 58
4, 3120, Note_on_c, 0, 57, 59
4, 3360, Note_on_c, 0, 57, 0
4, 3360, Note_on_c, 0, 55, 0
4, 3360, Note_on_c, 0, 61, 0
4, 3360, Note_on_c, 0, 61, 59
4, 3360, Note_on_c, 0, 55, 59
4, 3600, Note_on_c, 0, 57, 60
4, 3840, Note_on_c, 0, 57, 0
4, 3840, Note_on_c, 0, 55, 0
4, 3840, Note_on_c, 0, 61, 0
4, 3840, Note_on_c, 0, 54, 61
4, 4080, Note_on_c, 0, 57, 61
4, 4320, Note_on_c, 0, 57, 0
4, 4320, Note_on_c, 0, 54, 0
4, 4320, Note_on_c, 0, 54, 61
4, 4560, Note_on_c, 0, 57, 60
4, 4800, Note_on_c, 0, 57, 0
4, 4800, Note_on_c, 0, 54, 0
4, 4800, Note_on_c, 0, 54, 60
4, 5040, Note_on_c, 0, 54, 0
4, 5040, Note_on_c, 0, 57, 59
4, 5280, Note_on_c, 0, 57, 0
4, 5280, Note_on_c, 0, 54, 59
4, 5520, Note_on_c, 0, 54, 0
4, 5520, Note_on_c, 0, 52, 58
4, 5760, Note_on_c, 0, 52, 0
4, 5760, Note_on_c, 0, 50, 58
4, 6000, Note_on_c, 0, 54, 58
4, 6240, Note_on_c, 0, 54, 0
4, 6240, Note_on_c, 0, 50, 0
4, 6240, Note_on_c, 0, 50, 57
4, 6480, Note_on_c, 0, 54, 57
4, 6720, Note_on_c, 0, 54, 0
4, 6720, Note_on_c, 0, 50, 0
4, 6720, Note_on_c, 0, 47, 56
4, 6720, Note_on_c, 0, 50, 56
4, 6960, Note_on_c, 0, 54, 56
4, 7200, Note_on_c, 0, 54, 0
4, 7200, Note_on_c, 0, 50, 0
4, 7200, Note_on_c, 0, 47, 0
4, 7200, Note_on_c, 0, 47, 55
4, 7200, Note_on_c, 0, 50, 55
4, 7440, Note_on_c, 0, 54, 55
4, 7680, Note_on_c, 0, 54, 0
4, 7680, Note_on_c, 0, 50, 0
4, 7680, Note_on_c, 0, 47, 0
4, 7680, Note_on_c, 0, 50, 56
4, 7920, Note_on_c, 0, 50, 0
4, 7920, Note_on_c, 0, 52, 58
4, 8160, Note_on_c, 0, 52, 0
4, 8160, Note_on_c, 0, 59, 60
4, 8400, Note_on_c, 0, 59, 0
4, 8400, Note_on_c, 0, 62, 63
4, 8640, Note_on_c, 0, 62, 0
4, 8640, Note_on_c, 0, 61, 63
4, 8880, Note_on_c, 0, 61, 0
4, 8880, Note_on_c, 0, 57, 62
4, 9120, Note_on_c, 0, 57, 0
4, 9120, Note_on_c, 0, 54, 61
4, 9360, Note_on_c, 0, 54, 0
4, 9360, Note_on_c, 0, 50, 60
4, 9600, Note_on_c, 0, 50, 0
4, 9600, Note_on_c, 0, 49, 59
4, 9840, Note_on_c, 0, 52, 58
4, 10080, Note_on_c, 0, 52, 0
4, 10080, Note_on_c, 0, 49, 0
4, 10080, Note_on_c, 0, 49, 57
4, 10320, Note_on_c, 0, 52, 55
4, 10560, Note_on_c, 0, 52, 0
4, 10560, Note_on_c, 0, 49, 0
4, 10560, Note_on_c, 0, 50, 54
4, 10800, Note_on_c, 0, 50, 0
4, 10800, Note_on_c, 0, 56, 53
4, 11040, Note_on_c, 0, 56, 0
4, 11040, Note_on_c, 0, 52, 52
4, 11280, Note_on_c, 0, 52, 0
4, 11280, Note_on_c, 0, 50, 52
4, 11520, Note_on_c, 0, 50, 0
4, 11520, Note_on_c, 0, 49, 53
4, 11760, Note_on_c, 0, 52, 54
4, 12000, Note_on_c, 0, 52, 0
4, 12000, Note_on_c, 0, 49, 0
4, 12000, Note_on_c, 0, 57, 54
4, 12240, Note_on_c, 0, 57, 0
4, 12240, Note_on_c, 0, 52, 55
4, 12480, Note_on_c, 0, 52, 0
4, 12480, Note_on_c, 0, 49, 56
4, 12720, Note_on_c, 0, 52, 57
4, 12960, Note_on_c, 0, 52, 0
4, 12960, Note_on_c, 0, 49, 0
4, 12960, Note_on_c, 0, 49, 58
4, 13200, Note_on_c, 0, 52, 58
4, 13440, Note_on_c, 0, 52, 0
4, 13440, Note_on_c, 0, 49, 0
4, 13440, Note_on_c, 0, 49, 55
4, 13680, Note_on_c, 0, 52, 53
4, 13920, Note_on_c, 0, 52, 0
4, 13920, Note_on_c, 0, 57, 54
4, 14160, Note_on_c, 0, 57, 0
4, 14160, Note_on_c, 0, 52, 55
4, 14400, Note_on_c, 0, 52, 0
4, 14400, Note_on_c, 0, 57, 56
4, 14640, Note_on_c, 0, 57, 0
4, 14640, Note_on_c, 0, 52, 56
4, 14802, Note_on_c, 0, 49, 0
4, 14880, Note_on_c, 0, 52, 0
4, 14880, Note_on_c, 0, 49, 57
4, 15120, Note_on_c, 0, 52, 58
4, 15337, Note_on_c, 0, 49, 0
4, 15360, Note_on_c, 0, 52, 0
4, 15360, Note_on_c, 0, 52, 59
4, 15600, Note_on_c, 0, 52, 0
4, 15600, Note_on_c, 0, 52, 61
4, 15840, Note_on_c, 0, 52, 0
4, 15840, Note_on_c, 0, 55, 63
4, 16080, Note_on_c, 0, 55, 0
4, 16080, Note_on_c, 0, 54, 61
4, 16320, Note_on_c, 0, 54, 0
4, 16320, Note_on_c, 0, 52, 60
4, 16560, Note_on_c, 0, 52, 0
4, 16560, Note_on_c, 0, 50, 60
4, 16800, Note_on_c, 0, 50, 0
4, 16800, Note_on_c, 0, 49, 59
4, 17040, Note_on_c, 0, 49, 0
4, 17040, Note_on_c, 0, 47, 58
4, 17280, Note_on_c, 0, 47, 0
4, 17280, Note_on_c, 0, 45, 57
4, 17520, Note_on_c, 0, 49, 56
4, 17760, Note_on_c, 0, 49, 0
4, 17760, Note_on_c, 0, 45, 0
4, 17760, Note_on_c, 0, 45, 55
4, 18000, Note_on_c, 0, 49, 55
4, 18240, Note_on_c, 0, 49, 0
4, 18240, Note_on_c, 0, 45, 0
4, 18240, Note_on_c, 0, 47, 54
4, 18480, Note_on_c, 0, 50, 53
4, 18720, Note_on_c, 0, 50, 0
4, 18720, Note_on_c, 0, 47, 0
4, 18720, Note_on_c, 0, 49, 52
4, 18960, Note_on_c, 0, 52, 51
4, 19200, Note_on_c, 0, 52, 0
4, 19200, Note_on_c, 0, 49, 0
4, 19200, Note_on_c, 0, 50, 51
4, 19440, Note_on_c, 0, 45, 50
4, 19680, Note_on_c, 0, 45, 0
4, 19680, Note_on_c, 0, 50, 0
4, 19680, Note_on_c, 0, 50, 50
4, 19920, Note_on_c, 0, 45, 49
4, 20160, Note_on_c, 0, 45, 0
4, 20160, Note_on_c, 0, 50, 0
4, 20160, Note_on_c, 0, 43, 49
4, 20400, Note_on_c, 0, 43, 0
4, 20400, Note_on_c, 0, 47, 48
4, 20640, Note_on_c, 0, 47, 0
4, 20640, Note_on_c, 0, 52, 48
4, 20880, Note_on_c, 0, 52, 0
4, 20880, Note_on_c, 0, 55, 47
4, 21120, Note_on_c, 0, 55, 0
4, 21360, Note_on_c, 0, 45, 46
4, 21600, Note_on_c, 0, 45, 0
4, 21600, Note_on_c, 0, 50, 45
4, 21840, Note_on_c, 0, 45, 45
4, 22080, Note_on_c, 0, 45, 0
4, 22080, Note_on_c, 0, 50, 0
4, 22080, Note_on_c, 0, 50, 44
4, 22320, Note_on_c, 0, 45, 44
4, 22560, Note_on_c, 0, 45, 0
4, 22560, Note_on_c, 0, 50, 0
4, 22560, Note_on_c, 0, 49, 43
4, 22800, Note_on_c, 0, 45, 43
4, 23040, Note_on_c, 0, 45, 0
4, 23040, Note_on_c, 0, 49, 0
4, 23040, Note_on_c, 0, 50, 42
4, 23520, Note_on_c, 0, 50, 0
4, 23520, Note_on_c, 0, 45, 50
4, 24000, Note_on_c, 0, 45, 0
4, 24000, Note_on_c, 0, 50, 51
4, 24480, Note_on_c, 0, 50, 0
4, 24480, Note_on_c, 0, 54, 52
4, 24960, Note_on_c, 0, 54, 0
4, 25440, Note_on_c, 0, 45, 53
4, 25920, Note_on_c, 0, 45, 0
4, 25920, Note_on_c, 0, 49, 54
4, 26400, Note_on_c, 0, 49, 0
4, 26400, Note_on_c, 0, 55, 54
4, 26880, Note_on_c, 0, 55, 0
4, 27360, Note_on_c, 0, 57, 61
4, 27440, Note_on_c, 0, 57, 0
4, 27440, Note_on_c, 0, 59, 62
4, 27520, Note_on_c, 0, 59, 0
4, 27520, Note_on_c, 0, 57, 63
4, 27600, Note_on_c, 0, 57, 0
4, 27600, Note_on_c, 0, 56, 64
4, 27720, Note_on_c, 0, 56, 0
4, 27720, Note_on_c, 0, 57, 66
4, 27840, Note_on_c, 0, 57, 0
4, 27840, Note_on_c, 0, 60, 68
4, 28320, Note_on_c, 0, 60, 0
4, 28320, Note_on_c, 0, 51, 65
4, 28800, Note_on_c, 0, 51, 0
4, 28800, Note_on_c, 0, 59, 67
4, 29280, Note_on_c, 0, 59, 0
4, 29280, Note_on_c, 0, 55, 69
4, 29760, Note_on_c, 0, 55, 0
4, 29760, Note_on_c, 0, 55, 71
4, 30000, Note_on_c, 0, 55, 0
4, 30000, Note_on_c, 0, 52, 68
4, 30240, Note_on_c, 0, 52, 0
4, 30240, Note_on_c, 0, 49, 66
4, 30480, Note_on_c, 0, 49, 0
4, 30480, Note_on_c, 0, 45, 64
4, 30720, Note_on_c, 0, 45, 0
4, 30720, Note_on_c, 0, 49, 61
4, 30960, Note_on_c, 0, 49, 0
4, 30960, Note_on_c, 0, 45, 58
4, 31200, Note_on_c, 0, 45, 0
4, 31200, Note_on_c, 0, 49, 55
4, 31440, Note_on_c, 0, 49, 0
4, 31440, Note_on_c, 0, 45, 52
4, 31680, Note_on_c, 0, 45, 0
4, 31680, Note_on_c, 0, 50, 49
4, 32047, Note_on_c, 0, 50, 0
4, 33120, Note_on_c, 0, 54, 57
4, 33120, Note_on_c, 0, 62, 57
4, 33120, Note_on_c, 0, 57, 57
4, 33600, Note_on_c, 0, 57, 0
4, 33600, Note_on_c, 0, 62, 0
4, 33600, Note_on_c, 0, 54, 0
4, 34080, Note_on_c, 0, 55, 61
4, 34080, Note_on_c, 0, 57, 61
4, 34080, Note_on_c, 0, 61, 61
4, 34560, Note_on_c, 0, 61, 0
4, 34560, Note_on_c, 0, 57, 0
4, 34560, Note_on_c, 0, 55, 0
4, 35040, Note_on_c, 0, 54, 63
4, 35040, Note_on_c, 0, 62, 63
4, 35040, Note_on_c, 0, 57, 63
4, 35520, Note_on_c, 0, 57, 0
4, 35520, Note_on_c, 0, 62, 0
4, 35520, Note_on_c, 0, 54, 0
4, 36000, Note_on_c, 0, 57, 61
4, 36000, Note_on_c, 0, 50, 61
4, 36000, Note_on_c, 0, 54, 61
4, 36480, Note_on_c, 0, 54, 0
4, 36480, Note_on_c, 0, 50, 0
4, 36480, Note_on_c, 0, 57, 0
4, 36960, Note_on_c, 0, 50, 60
4, 36960, Note_on_c, 0, 54, 60
4, 36960, Note_on_c, 0, 59, 60
4, 37440, Note_on_c, 0, 59, 0
4, 37440, Note_on_c, 0, 54, 0
4, 37440, Note_on_c, 0, 50, 0
4, 37920, Note_on_c, 0, 50, 59
4, 37920, Note_on_c, 0, 59, 59
4, 37920, Note_on_c, 0, 54, 59
4, 38400, Note_on_c, 0, 54, 0
4, 38400, Note_on_c, 0, 59, 0
4, 38400, Note_on_c, 0, 50, 0
4, 38880, Note_on_c, 0, 50, 58
4, 38880, Note_on_c, 0, 59, 58
4, 38880, Note_on_c, 0, 52, 58
4, 39360, Note_on_c, 0, 52, 0
4, 39360, Note_on_c, 0, 59, 0
4, 39360, Note_on_c, 0, 50, 0
4, 39360, Note_on_c, 0, 57, 57
4, 39360, Note_on_c, 0, 49, 57
4, 39360, Note_on_c, 0, 52, 57
4, 39840, Note_on_c, 0, 52, 0
4, 39840, Note_on_c, 0, 49, 0
4, 39840, Note_on_c, 0, 57, 0
4, 39840, Note_on_c, 0, 59, 56
4, 39840, Note_on_c, 0, 50, 56
4, 39840, Note_on_c, 0, 54, 56
4, 40320, Note_on_c, 0, 54, 0
4, 40320, Note_on_c, 0, 50, 0
4, 40320, Note_on_c, 0, 59, 0
4, 40800, Note_on_c, 0, 57, 55
4, 40800, Note_on_c, 0, 49, 55
4, 40800, Note_on_c, 0, 52, 55
4, 41280, Note_on_c, 0, 52, 0
4, 41280, Note_on_c, 0, 49, 0
4, 41280, Note_on_c, 0, 57, 0
4, 41760, Note_on_c, 0, 56, 54
4, 41760, Note_on_c, 0, 50, 54
4, 41760, Note_on_c, 0, 47, 54
4, 42240, Note_on_c, 0, 47, 0
4, 42240, Note_on_c, 0, 50, 0
4, 42240, Note_on_c, 0, 56, 0
4, 44640, Note_on_c, 0, 57, 57
4, 44640, Note_on_c, 0, 45, 57
4, 45120, Note_on_c, 0, 45, 0
4, 45120, Note_on_c, 0, 57, 0
4, 45600, Note_on_c, 0, 57, 60
4, 45600, Note_on_c, 0, 49, 60
4, 46080, Note_on_c, 0, 49, 0
4, 46080, Note_on_c, 0, 57, 0
4, 46560, Note_on_c, 0, 57, 61
4, 46560, Note_on_c, 0, 52, 61
4, 47520, Note_on_c, 0, 52, 0
4, 47520, Note_on_c, 0, 57, 0
4, 47520, Note_on_c, 0, 57, 60
4, 47520, Note_on_c, 0, 50, 60
4, 48000, Note_on_c, 0, 50, 0
4, 48000, Note_on_c, 0, 57, 0
4, 48000, Note_on_c, 0, 49, 60
4, 48000, Note_on_c, 0, 57, 60
4, 48480, Note_on_c, 0, 57, 0
4, 48480, Note_on_c, 0, 49, 0
4, 48480, Note_on_c, 0, 45, 60
4, 48480, Note_on_c, 0, 57, 60
4, 48960, Note_on_c, 0, 57, 0
4, 48960, Note_on_c, 0, 45, 0
4, 48960, Note_on_c, 0, 47, 59
4, 48960, Note_on_c, 0, 57, 59
4, 49440, Note_on_c, 0, 57, 0
4, 49440, Note_on_c, 0, 47, 0
4, 49440, Note_on_c, 0, 49, 59
4, 49440, Note_on_c, 0, 57, 59
4, 49920, Note_on_c, 0, 57, 0
4, 49920, Note_on_c, 0, 49, 0
4, 49920, Note_on_c, 0, 57, 59
4, 49920, Note_on_c, 0, 50, 59
4, 50400, Note_on_c, 0, 50, 0
4, 50400, Note_on_c, 0, 57, 0
4, 50400, Note_on_c, 0, 62, 58
4, 50400, Note_on_c, 0, 57, 58
4, 50400, Note_on_c, 0, 50, 58
4, 50400, Note_on_c, 0, 54, 58
4, 50880, Note_on_c, 0, 54, 0
4, 50880, Note_on_c, 0, 62, 0
4, 50880, Note_on_c, 0, 57, 0
4, 50880, Note_on_c, 0, 50, 0
4, 50880, Note_on_c, 0, 43, 58
4, 51360, Note_on_c, 0, 43, 0
4, 51360, Note_on_c, 0, 59, 57
4, 51360, Note_on_c, 0, 50, 57
4, 51360, Note_on_c, 0, 55, 57
4, 51360, Note_on_c, 0, 52, 57
4, 51840, Note_on_c, 0, 52, 0
4, 51840, Note_on_c, 0, 59, 0
4, 51840, Note_on_c, 0, 50, 0
4, 51840, Note_on_c, 0, 55, 0
4, 52320, Note_on_c, 0, 45, 57
4, 52320, Note_on_c, 0, 54, 57
4, 52320, Note_on_c, 0, 50, 57
4, 52800, Note_on_c, 0, 50, 0
4, 52800, Note_on_c, 0, 54, 0
4, 52800, Note_on_c, 0, 45, 0
4, 53280, Note_on_c, 0, 45, 56
4, 53280, Note_on_c, 0, 55, 56
4, 53280, Note_on_c, 0, 52, 56
4, 53760, Note_on_c, 0, 52, 0
4, 53760, Note_on_c, 0, 55, 0
4, 53760, Note_on_c, 0, 45, 0
4, 59040, Note_on_c, 0, 60, 72
4, 59040, Note_on_c, 0, 54, 72
4, 59040, Note_on_c, 0, 57, 72
4, 59520, Note_on_c, 0, 57, 0
4, 59520, Note_on_c, 0, 54, 0
4, 59520, Note_on_c, 0, 60, 0
4, 59520, Note_on_c, 0, 55, 67
4, 59520, Note_on_c, 0, 59, 67
4, 60000, Note_on_c, 0, 59, 0
4, 60000, Note_on_c, 0, 55, 0
4, 60000, Note_on_c, 0, 55, 67
4, 60000, Note_on_c, 0, 59, 67
4, 60480, Note_on_c, 0, 59, 0
4, 60480, Note_on_c, 0, 55, 0
4, 60960, Note_on_c, 0, 61, 62
4, 60960, Note_on_c, 0, 52, 62
4, 60960, Note_on_c, 0, 55, 62
4, 61440, Note_on_c, 0, 55, 0
4, 61440, Note_on_c, 0, 52, 0
4, 61440, Note_on_c, 0, 61, 0
4, 61920, Note_on_c, 0, 52, 58
4, 62400, Note_on_c, 0, 52, 0
4, 62400, Note_on_c, 0, 50, 55
4, 62880, Note_on_c, 0, 50, 0
4, 63000, Note_on_c, 0, 45, 54
4, 63120, Note_on_c, 0, 45, 0
4, 63120, Note_on_c, 0, 47, 54
4, 63240, Note_on_c, 0, 47, 0
4, 63240, Note_on_c, 0, 49, 54
4, 63360, Note_on_c, 0, 49, 0
4, 63360, Note_on_c, 0, 50, 55
4, 63480, Note_on_c, 0, 50, 0
4, 63480, Note_on_c, 0, 52, 55
4, 63600, Note_on_c, 0, 52, 0
4, 63600, Note_on_c, 0, 54, 55
4, 63720, Note_on_c, 0, 54, 0
4, 63720, Note_on_c, 0, 55, 55
4, 63840, Note_on_c, 0, 55, 0
4, 63840, Note_on_c, 0, 57, 55
4, 63960, Note_on_c, 0, 57, 0
4, 63960, Note_on_c, 0, 54, 55
4, 64080, Note_on_c, 0, 54, 0
4, 64080, Note_on_c, 0, 52, 55
4, 64200, Note_on_c, 0, 52, 0
4, 64200, Note_on_c, 0, 50, 56
4, 64320, Note_on_c, 0, 50, 0
4, 64320, Note_on_c, 0, 49, 56
4, 64440, Note_on_c, 0, 49, 0
4, 64440, Note_on_c, 0, 52, 56
4, 64560, Note_on_c, 0, 52, 0
4, 64560, Note_on_c, 0, 57, 56
4, 64680, Note_on_c, 0, 57, 0
4, 64680, Note_on_c, 0, 56, 56
4, 64800, Note_on_c, 0, 56, 0
4, 64800, Note_on_c, 0, 57, 56
4, 64920, Note_on_c, 0, 57, 0
4, 64920, Note_on_c, 0, 45, 57
4, 65040, Note_on_c, 0, 45, 0
4, 65040, Note_on_c, 0, 47, 57
4, 65160, Note_on_c, 0, 47, 0
4, 65160, Note_on_c, 0, 49, 57
4, 65280, Note_on_c, 0, 49, 0
4, 65400, Note_on_c, 0, 50, 57
4, 65520, Note_on_c, 0, 50, 0
4, 65520, Note_on_c, 0, 52, 57
4, 65640, Note_on_c, 0, 52, 0
4, 65640, Note_on_c, 0, 54, 58
4, 65760, Note_on_c, 0, 54, 0
4, 65760, Note_on_c, 0, 55, 58
4, 65880, Note_on_c, 0, 55, 0
4, 65880, Note_on_c, 0, 57, 58
4, 66000, Note_on_c, 0, 57, 0
4, 66000, Note_on_c, 0, 59, 58
4, 66120, Note_on_c, 0, 59, 0
4, 66120, Note_on_c, 0, 61, 58
4, 66240, Note_on_c, 0, 61, 0
4, 66240, Note_on_c, 0, 62, 58
4, 66360, Note_on_c, 0, 62, 0
4, 66360, Note_on_c, 0, 61, 59
4, 66480, Note_on_c, 0, 61, 0
4, 66480, Note_on_c, 0, 62, 59
4, 66600, Note_on_c, 0, 62, 0
4, 66600, Note_on_c, 0, 64, 59
4, 66720, Note_on_c, 0, 64, 0
4, 66720, Note_on_c, 0, 66, 59
4, 66840, Note_on_c, 0, 66, 0
4, 66840, Note_on_c, 0, 64, 59
4, 66960, Note_on_c, 0, 64, 0
4, 66960, Note_on_c, 0, 62, 59
4, 67080, Note_on_c, 0, 62, 0
4, 67080, Note_on_c, 0, 61, 59
4, 67200, Note_on_c, 0, 61, 0
4, 67200, Note_on_c, 0, 59, 60
4, 67320, Note_on_c, 0, 59, 0
4, 67320, Note_on_c, 0, 66, 60
4, 67440, Note_on_c, 0, 66, 0
4, 67440, Note_on_c, 0, 62, 60
4, 67560, Note_on_c, 0, 62, 0
4, 67560, Note_on_c, 0, 59, 60
4, 67680, Note_on_c, 0, 59, 0
4, 67680, Note_on_c, 0, 54, 60
4, 67800, Note_on_c, 0, 54, 0
4, 67800, Note_on_c, 0, 66, 60
4, 67920, Note_on_c, 0, 66, 0
4, 67920, Note_on_c, 0, 62, 61
4, 68040, Note_on_c, 0, 62, 0
4, 68040, Note_on_c, 0, 59, 61
4, 68160, Note_on_c, 0, 59, 0
4, 68160, Note_on_c, 0, 54, 61
4, 68280, Note_on_c, 0, 54, 0
4, 68280, Note_on_c, 0, 66, 61
4, 68400, Note_on_c, 0, 66, 0
4, 68400, Note_on_c, 0, 62, 61
4, 68520, Note_on_c, 0, 62, 0
4, 68520, Note_on_c, 0, 59, 61
4, 68640, Note_on_c, 0, 59, 0
4, 68640, Note_on_c, 0, 54, 62
4, 68760, Note_on_c, 0, 54, 0
4, 68760, Note_on_c, 0, 66, 62
4, 68880, Note_on_c, 0, 66, 0
4, 68880, Note_on_c, 0, 62, 62
4, 69000, Note_on_c, 0, 62, 0
4, 69000, Note_on_c, 0, 59, 62
4, 69120, Note_on_c, 0, 59, 0
4, 69120, Note_on_c, 0, 62, 62
4, 69240, Note_on_c, 0, 62, 0
4, 69240, Note_on_c, 0, 61, 62
4, 69360, Note_on_c, 0, 61, 0
4, 69360, Note_on_c, 0, 59, 63
4, 69480, Note_on_c, 0, 59, 0
4, 69480, Note_on_c, 0, 57, 63
4, 69600, Note_on_c, 0, 57, 0
4, 69600, Note_on_c, 0, 56, 63
4, 69720, Note_on_c, 0, 56, 0
4, 69720, Note_on_c, 0, 54, 63
4, 69840, Note_on_c, 0, 54, 0
4, 69840, Note_on_c, 0, 52, 63
4, 69960, Note_on_c, 0, 52, 0
4, 69960, Note_on_c, 0, 50, 63
4, 70080, Note_on_c, 0, 50, 0
4, 70080, Note_on_c, 0, 49, 63
4, 70200, Note_on_c, 0, 49, 0
4, 70200, Note_on_c, 0, 52, 64
4, 70320, Note_on_c, 0, 52, 0
4, 70320, Note_on_c, 0, 57, 64
4, 70440, Note_on_c, 0, 57, 0
4, 70440, Note_on_c, 0, 61, 64
4, 70560, Note_on_c, 0, 61, 0
4, 70560, Note_on_c, 0, 54, 64
4, 70680, Note_on_c, 0, 54, 0
4, 70680, Note_on_c, 0, 59, 64
4, 70800, Note_on_c, 0, 59, 0
4, 70800, Note_on_c, 0, 62, 64
4, 70920, Note_on_c, 0, 62, 0
4, 70920, Note_on_c, 0, 66, 65
4, 71040, Note_on_c, 0, 66, 0
4, 71040, Note_on_c, 0, 61, 65
4, 71160, Note_on_c, 0, 61, 0
4, 71160, Note_on_c, 0, 64, 65
4, 71280, Note_on_c, 0, 64, 0
4, 71280, Note_on_c, 0, 66, 65
4, 71400, Note_on_c, 0, 66, 0
4, 71400, Note_on_c, 0, 64, 65
4, 71520, Note_on_c, 0, 64, 0
4, 71520, Note_on_c, 0, 62, 65
4, 71640, Note_on_c, 0, 62, 0
4, 71640, Note_on_c, 0, 61, 66
4, 71760, Note_on_c, 0, 61, 0
4, 71760, Note_on_c, 0, 59, 66
4, 71880, Note_on_c, 0, 59, 0
4, 71880, Note_on_c, 0, 57, 66
4, 72000, Note_on_c, 0, 57, 0
4, 72000, Note_on_c, 0, 56, 66
4, 72120, Note_on_c, 0, 56, 0
4, 72120, Note_on_c, 0, 57, 66
4, 72240, Note_on_c, 0, 57, 0
4, 72240, Note_on_c, 0, 56, 66
4, 72360, Note_on_c, 0, 56, 0
4, 72360, Note_on_c, 0, 54, 67
4, 72480, Note_on_c, 0, 54, 0
4, 72480, Note_on_c, 0, 52, 67
4, 72600, Note_on_c, 0, 52, 0
4, 72600, Note_on_c, 0, 50, 67
4, 72720, Note_on_c, 0, 50, 0
4, 72720, Note_on_c, 0, 49, 67
4, 72840, Note_on_c, 0, 49, 0
4, 72840, Note_on_c, 0, 47, 67
4, 72960, Note_on_c, 0, 47, 0
4, 72960, Note_on_c, 0, 45, 67
4, 73440, Note_on_c, 0, 45, 0
4, 74040, Note_on_c, 0, 57, 63
4, 74160, Note_on_c, 0, 57, 0
4, 74160, Note_on_c, 0, 56, 62
4, 74280, Note_on_c, 0, 56, 0
4, 74280, Note_on_c, 0, 54, 61
4, 74400, Note_on_c, 0, 54, 0
4, 74400, Note_on_c, 0, 52, 60
4, 74520, Note_on_c, 0, 52, 0
4, 74520, Note_on_c, 0, 50, 59
4, 74640, Note_on_c, 0, 50, 0
4, 74640, Note_on_c, 0, 49, 57
4, 74760, Note_on_c, 0, 49, 0
4, 74760, Note_on_c, 0, 47, 56
4, 74880, Note_on_c, 0, 47, 0
4, 75000, Note_on_c, 0, 45, 54
4, 75120, Note_on_c, 0, 45, 0
4, 75120, Note_on_c, 0, 49, 54
4, 75240, Note_on_c, 0, 49, 0
4, 75240, Note_on_c, 0, 52, 54
4, 75360, Note_on_c, 0, 52, 0
4, 75360, Note_on_c, 0, 57, 54
4, 75480, Note_on_c, 0, 57, 0
4, 75480, Note_on_c, 0, 45, 55
4, 75600, Note_on_c, 0, 45, 0
4, 75600, Note_on_c, 0, 49, 55
4, 75720, Note_on_c, 0, 49, 0
4, 75720, Note_on_c, 0, 52, 55
4, 75840, Note_on_c, 0, 52, 0
4, 75960, Note_on_c, 0, 45, 55
4, 76080, Note_on_c, 0, 45, 0
4, 76080, Note_on_c, 0, 49, 56
4, 76200, Note_on_c, 0, 49, 0
4, 76200, Note_on_c, 0, 52, 56
4, 76320, Note_on_c, 0, 52, 0
4, 76320, Note_on_c, 0, 57, 56
4, 76440, Note_on_c, 0, 57, 0
4, 76440, Note_on_c, 0, 45, 56
4, 76560, Note_on_c, 0, 45, 0
4, 76560, Note_on_c, 0, 49, 56
4, 76680, Note_on_c, 0, 49, 0
4, 76680, Note_on_c, 0, 52, 57
4, 76800, Note_on_c, 0, 52, 0
4, 76920, Note_on_c, 0, 45, 57
4, 77040, Note_on_c, 0, 45, 0
4, 77040, Note_on_c, 0, 49, 57
4, 77160, Note_on_c, 0, 49, 0
4, 77160, Note_on_c, 0, 55, 57
4, 77280, Note_on_c, 0, 55, 0
4, 77280, Note_on_c, 0, 57, 58
4, 77400, Note_on_c, 0, 57, 0
4, 77400, Note_on_c, 0, 45, 58
4, 77520, Note_on_c, 0, 45, 0
4, 77520, Note_on_c, 0, 49, 58
4, 77640, Note_on_c, 0, 49, 0
4, 77640, Note_on_c, 0, 55, 58
4, 77760, Note_on_c, 0, 55, 0
4, 77880, Note_on_c, 0, 45, 59
4, 78000, Note_on_c, 0, 45, 0
4, 78000, Note_on_c, 0, 49, 59
4, 78120, Note_on_c, 0, 49, 0
4, 78120, Note_on_c, 0, 52, 59
4, 78240, Note_on_c, 0, 52, 0
4, 78240, Note_on_c, 0, 57, 59
4, 78360, Note_on_c, 0, 57, 0
4, 78360, Note_on_c, 0, 45, 59
4, 78480, Note_on_c, 0, 45, 0
4, 78480, Note_on_c, 0, 49, 60
4, 78600, Note_on_c, 0, 49, 0
4, 78600, Note_on_c, 0, 52, 60
4, 78720, Note_on_c, 0, 52, 0
4, 78840, Note_on_c, 0, 37, 60
4, 78960, Note_on_c, 0, 37, 0
4, 78960, Note_on_c, 0, 38, 60
4, 79080, Note_on_c, 0, 38, 0
4, 79080, Note_on_c, 0, 40, 61
4, 79200, Note_on_c, 0, 40, 0
4, 79200, Note_on_c, 0, 42, 61
4, 79320, Note_on_c, 0, 42, 0
4, 79320, Note_on_c, 0, 43, 61
4, 79440, Note_on_c, 0, 43, 0
4, 79440, Note_on_c, 0, 45, 61
4, 79560, Note_on_c, 0, 45, 0
4, 79560, Note_on_c, 0, 47, 61
4, 79680, Note_on_c, 0, 47, 0
4, 79680, Note_on_c, 0, 49, 62
4, 79800, Note_on_c, 0, 49, 0
4, 79800, Note_on_c, 0, 50, 62
4, 79920, Note_on_c, 0, 50, 0
4, 79920, Note_on_c, 0, 52, 62
4, 80040, Note_on_c, 0, 52, 0
4, 80040, Note_on_c, 0, 54, 62
4, 80160, Note_on_c, 0, 54, 0
4, 80160, Note_on_c, 0, 55, 62
4, 80280, Note_on_c, 0, 55, 0
4, 80280, Note_on_c, 0, 57, 63
4, 80400, Note_on_c, 0, 57, 0
4, 80400, Note_on_c, 0, 59, 63
4, 80520, Note_on_c, 0, 59, 0
4, 80520, Note_on_c, 0, 61, 63
4, 80640, Note_on_c, 0, 61, 0
4, 80640, Note_on_c, 0, 62, 63
4, 80760, Note_on_c, 0, 62, 0
4, 80760, Note_on_c, 0, 61, 63
4, 80880, Note_on_c, 0, 61, 0
4, 80880, Note_on_c, 0, 59, 63
4, 81000, Note_on_c, 0, 59, 0
4, 81000, Note_on_c, 0, 57, 63
4, 81120, Note_on_c, 0, 57, 0
4, 81120, Note_on_c, 0, 55, 63
4, 81240, Note_on_c, 0, 55, 0
4, 81240, Note_on_c, 0, 54, 62
4, 81360, Note_on_c, 0, 54, 0
4, 81360, Note_on_c, 0, 52, 62
4, 81480, Note_on_c, 0, 52, 0
4, 81480, Note_on_c, 0, 50, 62
4, 81600, Note_on_c, 0, 50, 0
4, 81600, Note_on_c, 0, 47, 62
4, 81720, Note_on_c, 0, 47, 0
4, 81720, Note_on_c, 0, 52, 61
4, 81840, Note_on_c, 0, 52, 0
4, 81840, Note_on_c, 0, 55, 61
4, 81960, Note_on_c, 0, 55, 0
4, 81960, Note_on_c, 0, 59, 61
4, 82080, Note_on_c, 0, 59, 0
4, 82080, Note_on_c, 0, 57, 61
4, 82200, Note_on_c, 0, 57, 0
4, 82200, Note_on_c, 0, 55, 61
4, 82320, Note_on_c, 0, 55, 0
4, 82320, Note_on_c, 0, 54, 60
4, 82440, Note_on_c, 0, 54, 0
4, 82440, Note_on_c, 0, 52, 60
4, 82560, Note_on_c, 0, 52, 0
4, 82560, Note_on_c, 0, 54, 60
4, 82680, Note_on_c, 0, 54, 0
4, 82680, Note_on_c, 0, 57, 60
4, 82800, Note_on_c, 0, 57, 0
4, 82800, Note_on_c, 0, 62, 59
4, 82920, Note_on_c, 0, 62, 0
4, 82920, Note_on_c, 0, 57, 59
4, 83040, Note_on_c, 0, 57, 0
4, 83040, Note_on_c, 0, 55, 59
4, 83160, Note_on_c, 0, 55, 0
4, 83160, Note_on_c, 0, 54, 59
4, 83280, Note_on_c, 0, 54, 0
4, 83280, Note_on_c, 0, 52, 59
4, 83400, Note_on_c, 0, 52, 0
4, 83400, Note_on_c, 0, 50, 58
4, 83520, Note_on_c, 0, 50, 0
4, 83520, Note_on_c, 0, 49, 58
4, 83640, Note_on_c, 0, 49, 0
4, 83640, Note_on_c, 0, 45, 58
4, 83760, Note_on_c, 0, 45, 0
4, 83760, Note_on_c, 0, 49, 58
4, 83880, Note_on_c, 0, 49, 0
4, 83880, Note_on_c, 0, 52, 58
4, 84000, Note_on_c, 0, 52, 0
4, 84000, Note_on_c, 0, 57, 57
4, 84120, Note_on_c, 0, 57, 0
4, 84120, Note_on_c, 0, 55, 57
4, 84240, Note_on_c, 0, 55, 0
4, 84240, Note_on_c, 0, 54, 57
4, 84360, Note_on_c, 0, 54, 0
4, 84360, Note_on_c, 0, 52, 57
4, 84480, Note_on_c, 0, 52, 0
4, 84480, Note_on_c, 0, 50, 56
4, 84960, Note_on_c, 0, 50, 0
4, 85560, Note_on_c, 0, 45, 63
4, 85680, Note_on_c, 0, 45, 0
4, 85680, Note_on_c, 0, 57, 63
4, 85800, Note_on_c, 0, 57, 0
4, 85800, Note_on_c, 0, 56, 64
4, 85920, Note_on_c, 0, 56, 0
4, 85920, Note_on_c, 0, 55, 64
4, 86040, Note_on_c, 0, 55, 0
4, 86040, Note_on_c, 0, 54, 64
4, 86160, Note_on_c, 0, 54, 0
4, 86160, Note_on_c, 0, 52, 64
4, 86280, Note_on_c, 0, 52, 0
4, 86280, Note_on_c, 0, 50, 64
4, 86400, Note_on_c, 0, 50, 0
4, 86400, Note_on_c, 0, 49, 64
4, 86880, Note_on_c, 0, 49, 0
4, 87480, Note_on_c, 0, 45, 66
4, 87600, Note_on_c, 0, 45, 0
4, 87600, Note_on_c, 0, 57, 66
4, 87720, Note_on_c, 0, 57, 0
4, 87720, Note_on_c, 0, 56, 67
4, 87840, Note_on_c, 0, 56, 0
4, 87840, Note_on_c, 0, 57, 67
4, 87960, Note_on_c, 0, 57, 0
4, 87960, Note_on_c, 0, 55, 67
4, 88080, Note_on_c, 0, 55, 0
4, 88080, Note_on_c, 0, 54, 67
4, 88200, Note_on_c, 0, 54, 0
4, 88200, Note_on_c, 0, 52, 67
4, 88320, Note_on_c, 0, 52, 0
4, 88320, Note_on_c, 0, 50, 67
4, 88800, Note_on_c, 0, 50, 0
4, 89400, Note_on_c, 0, 60, 69
4, 89520, Note_on_c, 0, 60, 0
4, 89520, Note_on_c, 0, 72, 69
4, 89640, Note_on_c, 0, 72, 0
4, 89640, Note_on_c, 0, 71, 69
4, 89760, Note_on_c, 0, 71, 0
4, 89760, Note_on_c, 0, 71, 70
4, 89880, Note_on_c, 0, 71, 0
4, 89880, Note_on_c, 0, 69, 70
4, 90000, Note_on_c, 0, 69, 0
4, 90000, Note_on_c, 0, 67, 70
4, 90120, Note_on_c, 0, 67, 0
4, 90120, Note_on_c, 0, 66, 70
4, 90240, Note_on_c, 0, 66, 0
4, 90240, Note_on_c, 0, 64, 70
4, 90360, Note_on_c, 0, 64, 0
4, 90360, Note_on_c, 0, 67, 71
4, 90480, Note_on_c, 0, 67, 0
4, 90480, Note_on_c, 0, 71, 71
4, 90600, Note_on_c, 0, 71, 0
4, 90600, Note_on_c, 0, 69, 71
4, 90720, Note_on_c, 0, 69, 0
4, 90720, Note_on_c, 0, 67, 71
4, 90840, Note_on_c, 0, 67, 0
4, 90840, Note_on_c, 0, 66, 71
4, 90960, Note_on_c, 0, 66, 0
4, 90960, Note_on_c, 0, 64, 72
4, 91080, Note_on_c, 0, 64, 0
4, 91080, Note_on_c, 0, 62, 72
4, 91200, Note_on_c, 0, 62, 0
4, 91200, Note_on_c, 0, 61, 72
4, 91320, Note_on_c, 0, 61, 0
4, 91320, Note_on_c, 0, 59, 72
4, 91440, Note_on_c, 0, 59, 0
4, 91440, Note_on_c, 0, 57, 72
4, 91560, Note_on_c, 0, 57, 0
4, 91560, Note_on_c, 0, 55, 72
4, 91680, Note_on_c, 0, 55, 0
4, 91680, Note_on_c, 0, 54, 73
4, 91800, Note_on_c, 0, 54, 0
4, 91800, Note_on_c, 0, 52, 73
4, 91920, Note_on_c, 0, 52, 0
4, 91920, Note_on_c, 0, 50, 73
4, 92040, Note_on_c, 0, 50, 0
4, 92040, Note_on_c, 0, 49, 73
4, 92160, Note_on_c, 0, 49, 0
4, 92160, Note_on_c, 0, 47, 77
4, 92280, Note_on_c, 0, 47, 0
4, 92280, Note_on_c, 0, 45, 75
4, 92400, Note_on_c, 0, 45, 0
4, 92400, Note_on_c, 0, 44, 73
4, 92520, Note_on_c, 0, 44, 0
4, 92520, Note_on_c, 0, 45, 71
4, 92640, Note_on_c, 0, 45, 0
4, 92640, Note_on_c, 0, 46, 70
4, 92760, Note_on_c, 0, 46, 0
4, 92760, Note_on_c, 0, 47, 68
4, 92880, Note_on_c, 0, 47, 0
4, 92880, Note_on_c, 0, 48, 66
4, 93000, Note_on_c, 0, 48, 0
4, 93000, Note_on_c, 0, 49, 64
4, 93120, Note_on_c, 0, 49, 0
4, 93120, Note_on_c, 0, 50, 63
4, 93480, Note_on_c, 0, 50, 0
4, 94080, Note_on_c, 0, 54, 57
4, 95040, Note_on_c, 0, 54, 0
4, 95040, Note_on_c, 0, 55, 65
4, 96000, Note_on_c, 0, 55, 0
4, 96000, Note_on_c, 0, 54, 57
4, 96960, Note_on_c, 0, 54, 0
4, 101280, Note_on_c, 0, 47, 67
4, 101520, Note_on_c, 0, 47, 0
4, 101520, Note_on_c, 0, 50, 67
4, 101760, Note_on_c, 0, 50, 0
4, 101760, Note_on_c, 0, 49, 66
4, 103200, Note_on_c, 0, 49, 0
4, 103200, Note_on_c, 0, 50, 62
4, 103680, Note_on_c, 0, 50, 0
4, 103680, Note_on_c, 0, 49, 61
4, 104160, Note_on_c, 0, 49, 0
4, 106080, Note_on_c, 0, 57, 56
4, 106320, Note_on_c, 0, 57, 0
4, 106320, Note_on_c, 0, 59, 57
4, 106560, Note_on_c, 0, 59, 0
4, 106560, Note_on_c, 0, 61, 58
4, 106800, Note_on_c, 0, 61, 0
4, 106800, Note_on_c, 0, 62, 60
4, 107040, Note_on_c, 0, 62, 0
4, 107040, Note_on_c, 0, 64, 61
4, 107280, Note_on_c, 0, 64, 0
4, 107280, Note_on_c, 0, 66, 63
4, 107520, Note_on_c, 0, 66, 0
4, 107520, Note_on_c, 0, 67, 67
4, 108000, Note_on_c, 0, 67, 0
4, 108000, Note_on_c, 0, 59, 66
4, 108240, Note_on_c, 0, 59, 0
4, 108240, Note_on_c, 0, 57, 65
4, 108480, Note_on_c, 0, 57, 0
4, 108480, Note_on_c, 0, 55, 65
4, 108720, Note_on_c, 0, 55, 0
4, 108720, Note_on_c, 0, 54, 64
4, 108960, Note_on_c, 0, 54, 0
4, 108960, Note_on_c, 0, 52, 64
4, 109200, Note_on_c, 0, 52, 0
4, 109200, Note_on_c, 0, 50, 63
4, 109440, Note_on_c, 0, 50, 0
4, 109440, Note_on_c, 0, 49, 63
4, 109920, Note_on_c, 0, 49, 0
4, 109920, Note_on_c, 0, 49, 61
4, 110400, Note_on_c, 0, 49, 0
4, 110400, Note_on_c, 0, 50, 60
4, 110880, Note_on_c, 0, 50, 0
4, 110880, Note_on_c, 0, 52, 59
4, 111120, Note_on_c, 0, 52, 0
4, 111120, Note_on_c, 0, 49, 59
4, 111360, Note_on_c, 0, 49, 0
4, 114240, Note_on_c, 0, 54, 53
4, 114720, Note_on_c, 0, 54, 0
4, 114720, Note_on_c, 0, 55, 52
4, 114720, Note_on_c, 0, 61, 52
4, 115200, Note_on_c, 0, 61, 0
4, 115200, Note_on_c, 0, 55, 0
4, 115200, Note_on_c, 0, 54, 51
4, 115440, Note_on_c, 0, 54, 0
4, 116400, Note_on_c, 0, 50, 63
4, 116556, Note_on_c, 0, 50, 0
4, 116640, Note_on_c, 0, 50, 64
4, 116796, Note_on_c, 0, 50, 0
4, 116880, Note_on_c, 0, 50, 65
4, 117036, Note_on_c, 0, 50, 0
4, 117120, Note_on_c, 0, 49, 71
4, 117600, Note_on_c, 0, 49, 0
4, 117600, Note_on_c, 0, 49, 67
4, 117840, Note_on_c, 0, 49, 0
4, 118320, Note_on_c, 0, 49, 67
4, 118320, Note_on_c, 0, 52, 67
4, 118476, Note_on_c, 0, 52, 0
4, 118476, Note_on_c, 0, 49, 0
4, 118560, Note_on_c, 0, 49, 70
4, 118560, Note_on_c, 0, 52, 70
4, 118716, Note_on_c, 0, 52, 0
4, 118716, Note_on_c, 0, 49, 0
4, 118800, Note_on_c, 0, 49, 73
4, 118800, Note_on_c, 0, 52, 73
4, 118956, Note_on_c, 0, 52, 0
4, 118956, Note_on_c, 0, 49, 0
4, 119040, Note_on_c, 0, 45, 78
4, 119040, Note_on_c, 0, 51, 78
4, 120240, Note_on_c, 0, 51, 0
4, 120240, Note_on_c, 0, 45, 0
4, 120240, Note_on_c, 0, 57, 77
4, 120240, Note_on_c, 0, 63, 77
4, 120240, Note_on_c, 0, 60, 77
4, 120480, Note_on_c, 0, 60, 0
4, 120480, Note_on_c, 0, 63, 0
4, 120480, Note_on_c, 0, 57, 0
4, 120480, Note_on_c, 0, 64, 78
4, 120480, Note_on_c, 0, 55, 78
4, 120480, Note_on_c, 0, 59, 78
4, 120720, Note_on_c, 0, 59, 0
4, 120720, Note_on_c, 0, 55, 0
4, 120720, Note_on_c, 0, 64, 0
4, 120720, Note_on_c, 0, 66, 79
4, 120720, Note_on_c, 0, 57, 79
4, 120720, Note_on_c, 0, 54, 79
4, 120960, Note_on_c, 0, 54, 0
4, 120960, Note_on_c, 0, 57, 0
4, 120960, Note_on_c, 0, 66, 0
4, 120960, Note_on_c, 0, 67, 80
4, 120960, Note_on_c, 0, 55, 80
4, 120960, Note_on_c, 0, 52, 80
4, 121200, Note_on_c, 0, 52, 0
4, 121200, Note_on_c, 0, 55, 0
4, 121200, Note_on_c, 0, 67, 0
4, 121200, Note_on_c, 0, 43, 81
4, 121200, Note_on_c, 0, 67, 81
4, 121200, Note_on_c, 0, 59, 81
4, 121680, Note_on_c, 0, 59, 0
4, 121680, Note_on_c, 0, 67, 0
4, 121680, Note_on_c, 0, 43, 0
4, 121680, Note_on_c, 0, 45, 89
4, 121680, Note_on_c, 0, 67, 89
4, 121680, Note_on_c, 0, 58, 89
4, 121680, Note_on_c, 0, 61, 89
4, 122160, Note_on_c, 0, 61, 0
4, 122160, Note_on_c, 0, 45, 0
4, 122160, Note_on_c, 0, 67, 0
4, 122160, Note_on_c, 0, 58, 0
4, 122160, Note_on_c, 0, 45, 86
4, 122160, Note_on_c, 0, 67, 86
4, 122160, Note_on_c, 0, 58, 86
4, 122160, Note_on_c, 0, 61, 86
4, 122400, Note_on_c, 0, 61, 0
4, 122400, Note_on_c, 0, 45, 0
4, 122400, Note_on_c, 0, 67, 0
4, 122400, Note_on_c, 0, 58, 0
4, 122400, Note_on_c, 0, 45, 81
4, 122400, Note_on_c, 0, 66, 81
4, 122400, Note_on_c, 0, 62, 81
4, 122400, Note_on_c, 0, 57, 81
4, 122640, Note_on_c, 0, 57, 0
4, 122640, Note_on_c, 0, 45, 0
4, 122640, Note_on_c, 0, 66, 0
4, 122640, Note_on_c, 0, 62, 0
4, 122640, Note_on_c, 0, 45, 75
4, 122640, Note_on_c, 0, 64, 75
4, 122640, Note_on_c, 0, 55, 75
4, 122880, Note_on_c, 0, 55, 0
4, 122880, Note_on_c, 0, 64, 0
4, 122880, Note_on_c, 0, 45, 0
4, 122880, Note_on_c, 0, 61, 70
4, 122880, Note_on_c, 0, 52, 70
4, 123120, Note_on_c, 0, 52, 0
4, 123120, Note_on_c, 0, 61, 0
4, 123120, Note_on_c, 0, 57, 62
4, 123120, Note_on_c, 0, 49, 62
4, 123360, Note_on_c, 0, 49, 0
4, 123360, Note_on_c, 0, 57, 0
4, 123360, Note_on_c, 0, 50, 58
4, 123360, Note_on_c, 0, 59, 58
4, 123600, Note_on_c, 0, 59, 0
4, 123600, Note_on_c, 0, 50, 0
4, 123600, Note_on_c, 0, 61, 55
4, 123600, Note_on_c, 0, 52, 55
4, 123840, Note_on_c, 0, 52, 0
4, 123840, Note_on_c, 0, 61, 0
4, 123840, Note_on_c, 0, 62, 51
4, 123840, Note_on_c, 0, 54, 51
4, 124080, Note_on_c, 0, 54, 0
4, 124080, Note_on_c, 0, 62, 0
4, 128160, Note_on_c, 0, 57, 77
4, 128264, Note_on_c, 0, 57, 0
4, 128320, Note_on_c, 0, 61, 77
4, 128424, Note_on_c, 0, 61, 0
4, 128480, Note_on_c, 0, 64, 78
4, 128580, Note_on_c, 0, 67, 78
4, 128584, Note_on_c, 0, 64, 0
4, 128640, Note_on_c, 0, 67, 0
4, 128640, Note_on_c, 0, 66, 78
4, 128744, Note_on_c, 0, 66, 0
4, 128800, Note_on_c, 0, 65, 78
4, 128904, Note_on_c, 0, 65, 0
4, 128960, Note_on_c, 0, 66, 78
4, 129064, Note_on_c, 0, 66, 0
4, 129120, Note_on_c, 0, 62, 78
4, 129224, Note_on_c, 0, 62, 0
4, 129280, Note_on_c, 0, 66, 78
4, 129384, Note_on_c, 0, 66, 0
4, 129440, Note_on_c, 0, 71, 78
4, 129540, Note_on_c, 0, 61, 79
4, 129540, Note_on_c, 0, 76, 79
4, 129544, Note_on_c, 0, 71, 0
4, 129600, Note_on_c, 0, 76, 0
4, 129600, Note_on_c, 0, 61, 0
4, 129600, Note_on_c, 0, 74, 79
4, 129704, Note_on_c, 0, 74, 0
4, 129760, Note_on_c, 0, 73, 79
4, 129864, Note_on_c, 0, 73, 0
4, 129920, Note_on_c, 0, 74, 79
4, 130024, Note_on_c, 0, 74, 0
4, 130080, Note_on_c, 0, 62, 79
4, 130184, Note_on_c, 0, 62, 0
4, 130240, Note_on_c, 0, 74, 79
4, 130344, Note_on_c, 0, 74, 0
4, 130400, Note_on_c, 0, 73, 79
4, 130504, Note_on_c, 0, 73, 0
4, 130560, Note_on_c, 0, 71, 80
4, 130664, Note_on_c, 0, 71, 0
4, 130720, Note_on_c, 0, 73, 80
4, 130824, Note_on_c, 0, 73, 0
4, 130880, Note_on_c, 0, 71, 80
4, 130984, Note_on_c, 0, 71, 0
4, 131040, Note_on_c, 0, 69, 80
4, 131144, Note_on_c, 0, 69, 0
4, 131200, Note_on_c, 0, 68, 80
4, 131304, Note_on_c, 0, 68, 0
4, 131360, Note_on_c, 0, 66, 80
4, 131464, Note_on_c, 0, 66, 0
4, 131520, Note_on_c, 0, 64, 80
4, 131624, Note_on_c, 0, 64, 0
4, 131680, Note_on_c, 0, 62, 81
4, 131784, Note_on_c, 0, 62, 0
4, 131840, Note_on_c, 0, 61, 81
4, 131944, Note_on_c, 0, 61, 0
4, 132000, Note_on_c, 0, 54, 81
4, 132104, Note_on_c, 0, 54, 0
4, 132160, Note_on_c, 0, 59, 81
4, 132264, Note_on_c, 0, 59, 0
4, 132320, Note_on_c, 0, 62, 81
4, 132424, Note_on_c, 0, 62, 0
4, 132480, Note_on_c, 0, 61, 81
4, 132584, Note_on_c, 0, 61, 0
4, 132640, Note_on_c, 0, 64, 82
4, 132744, Note_on_c, 0, 64, 0
4, 132800, Note_on_c, 0, 69, 82
4, 132904, Note_on_c, 0, 69, 0
4, 132960, Note_on_c, 0, 73, 82
4, 133064, Note_on_c, 0, 73, 0
4, 133120, Note_on_c, 0, 71, 82
4, 133224, Note_on_c, 0, 71, 0
4, 133280, Note_on_c, 0, 69, 82
4, 133384, Note_on_c, 0, 69, 0
4, 133440, Note_on_c, 0, 68, 82
4, 133544, Note_on_c, 0, 68, 0
4, 133600, Note_on_c, 0, 66, 82
4, 133704, Note_on_c, 0, 66, 0
4, 133760, Note_on_c, 0, 64, 83
4, 133864, Note_on_c, 0, 64, 0
4, 133920, Note_on_c, 0, 62, 83
4, 134024, Note_on_c, 0, 62, 0
4, 134080, Note_on_c, 0, 61, 83
4, 134184, Note_on_c, 0, 61, 0
4, 134240, Note_on_c, 0, 59, 83
4, 134344, Note_on_c, 0, 59, 0
4, 134400, Note_on_c, 0, 49, 83
4, 134400, Note_on_c, 0, 45, 83
4, 134400, Note_on_c, 0, 57, 83
4, 134712, Note_on_c, 0, 57, 0
4, 134712, Note_on_c, 0, 45, 0
4, 134712, Note_on_c, 0, 49, 0
4, 139680, Note_on_c, 0, 49, 76
4, 139784, Note_on_c, 0, 49, 0
4, 139840, Note_on_c, 0, 52, 76
4, 139944, Note_on_c, 0, 52, 0
4, 140000, Note_on_c, 0, 57, 76
4, 140104, Note_on_c, 0, 57, 0
4, 140160, Note_on_c, 0, 61, 76
4, 140264, Note_on_c, 0, 61, 0
4, 140320, Note_on_c, 0, 64, 77
4, 140424, Note_on_c, 0, 64, 0
4, 140480, Note_on_c, 0, 67, 77
4, 140584, Note_on_c, 0, 67, 0
4, 140640, Note_on_c, 0, 67, 77
4, 140640, Note_on_c, 0, 71, 77
4, 140744, Note_on_c, 0, 71, 0
4, 140744, Note_on_c, 0, 67, 0
4, 140800, Note_on_c, 0, 67, 77
4, 140800, Note_on_c, 0, 71, 77
4, 140960, Note_on_c, 0, 71, 0
4, 140960, Note_on_c, 0, 67, 0
4, 140960, Note_on_c, 0, 66, 77
4, 140960, Note_on_c, 0, 69, 77
4, 141064, Note_on_c, 0, 69, 0
4, 141064, Note_on_c, 0, 66, 0
4, 141120, Note_on_c, 0, 64, 78
4, 141120, Note_on_c, 0, 67, 78
4, 141224, Note_on_c, 0, 67, 0
4, 141224, Note_on_c, 0, 64, 0
4, 141280, Note_on_c, 0, 64, 78
4, 141280, Note_on_c, 0, 67, 78
4, 141440, Note_on_c, 0, 67, 0
4, 141440, Note_on_c, 0, 64, 0
4, 141440, Note_on_c, 0, 62, 78
4, 141440, Note_on_c, 0, 66, 78
4, 141544, Note_on_c, 0, 66, 0
4, 141544, Note_on_c, 0, 62, 0
4, 141600, Note_on_c, 0, 61, 78
4, 141600, Note_on_c, 0, 64, 78
4, 141704, Note_on_c, 0, 64, 0
4, 141704, Note_on_c, 0, 61, 0
4, 141760, Note_on_c, 0, 57, 78
4, 141760, Note_on_c, 0, 62, 78
4, 141864, Note_on_c, 0, 62, 0
4, 141864, Note_on_c, 0, 57, 0
4, 141920, Note_on_c, 0, 57, 78
4, 141920, Note_on_c, 0, 64, 78
4, 142024, Note_on_c, 0, 64, 0
4, 142024, Note_on_c, 0, 57, 0
4, 142080, Note_on_c, 0, 54, 88
4, 142080, Note_on_c, 0, 62, 88
4, 142184, Note_on_c, 0, 62, 0
4, 142184, Note_on_c, 0, 54, 0
4, 142240, Note_on_c, 0, 54, 81
4, 142344, Note_on_c, 0, 54, 0
4, 142400, Note_on_c, 0, 54, 79
4, 142504, Note_on_c, 0, 54, 0
4, 142560, Note_on_c, 0, 54, 79
4, 142664, Note_on_c, 0, 54, 0
4, 142720, Note_on_c, 0, 55, 79
4, 142824, Note_on_c, 0, 55, 0
4, 142880, Note_on_c, 0, 57, 80
4, 142984, Note_on_c, 0, 57, 0
4, 143040, Note_on_c, 0, 52, 92
4, 143144, Note_on_c, 0, 52, 0
4, 143200, Note_on_c, 0, 59, 80
4, 143304, Note_on_c, 0, 59, 0
4, 143360, Note_on_c, 0, 59, 80
4, 143360, Note_on_c, 0, 62, 80
4, 143464, Note_on_c, 0, 62, 0
4, 143464, Note_on_c, 0, 59, 0
4, 143520, Note_on_c, 0, 59, 80
4, 143520, Note_on_c, 0, 62, 80
4, 143624, Note_on_c, 0, 62, 0
4, 143624, Note_on_c, 0, 59, 0
4, 143680, Note_on_c, 0, 59, 81
4, 143680, Note_on_c, 0, 62, 81
4, 143784, Note_on_c, 0, 62, 0
4, 143784, Note_on_c, 0, 59, 0
4, 143840, Note_on_c, 0, 59, 81
4, 143840, Note_on_c, 0, 62, 81
4, 143944, Note_on_c, 0, 62, 0
4, 143944, Note_on_c, 0, 59, 0
4, 144000, Note_on_c, 0, 53, 93
4, 144160, Note_on_c, 0, 53, 0
4, 144160, Note_on_c, 0, 59, 81
4, 144264, Note_on_c, 0, 59, 0
4, 144320, Note_on_c, 0, 62, 81
4, 144424, Note_on_c, 0, 62, 0
4, 144480, Note_on_c, 0, 54, 82
4, 144640, Note_on_c, 0, 54, 0
4, 144640, Note_on_c, 0, 57, 82
4, 144744, Note_on_c, 0, 57, 0
4, 144800, Note_on_c, 0, 62, 82
4, 144904, Note_on_c, 0, 62, 0
4, 144960, Note_on_c, 0, 54, 95
4, 145120, Note_on_c, 0, 54, 0
4, 145120, Note_on_c, 0, 57, 82
4, 145224, Note_on_c, 0, 57, 0
4, 145280, Note_on_c, 0, 62, 83
4, 145384, Note_on_c, 0, 62, 0
4, 145440, Note_on_c, 0, 52, 83
4, 145600, Note_on_c, 0, 52, 0
4, 145600, Note_on_c, 0, 55, 83
4, 145704, Note_on_c, 0, 55, 0
4, 145760, Note_on_c, 0, 61, 83
4, 145864, Note_on_c, 0, 61, 0
4, 145920, Note_on_c, 0, 54, 83
4, 145920, Note_on_c, 0, 50, 83
4, 145920, Note_on_c, 0, 62, 83
4, 146024, Note_on_c, 0, 62, 0
4, 146024, Note_on_c, 0, 50, 0
4, 146024, Note_on_c, 0, 54, 0
4, 146080, Note_on_c, 0, 45, 72
4, 146184, Note_on_c, 0, 45, 0
4, 146240, Note_on_c, 0, 47, 72
4, 146344, Note_on_c, 0, 47, 0
4, 146400, Note_on_c, 0, 49, 72
4, 146504, Note_on_c, 0, 49, 0
4, 146560, Note_on_c, 0, 50, 72
4, 146664, Note_on_c, 0, 50, 0
4, 146720, Note_on_c, 0, 52, 72
4, 146824, Note_on_c, 0, 52, 0
4, 146880, Note_on_c, 0, 54, 73
4, 146940, Note_on_c, 0, 54, 0
4, 146940, Note_on_c, 0, 55, 73
4, 147000, Note_on_c, 0, 55, 0
4, 147000, Note_on_c, 0, 54, 73
4, 147060, Note_on_c, 0, 54, 0
4, 147060, Note_on_c, 0, 55, 73
4, 147120, Note_on_c, 0, 55, 0
4, 147120, Note_on_c, 0, 54, 73
4, 147180, Note_on_c, 0, 54, 0
4, 147180, Note_on_c, 0, 55, 73
4, 147240, Note_on_c, 0, 55, 0
4, 147240, Note_on_c, 0, 54, 73
4, 147300, Note_on_c, 0, 54, 0
4, 147300, Note_on_c, 0, 55, 73
4, 147360, Note_on_c, 0, 55, 0
4, 147360, Note_on_c, 0, 54, 73
4, 147440, Note_on_c, 0, 54, 0
4, 147440, Note_on_c, 0, 55, 73
4, 147520, Note_on_c, 0, 55, 0
4, 147520, Note_on_c, 0, 54, 73
4, 147600, Note_on_c, 0, 54, 0
4, 147600, Note_on_c, 0, 52, 74
4, 147720, Note_on_c, 0, 52, 0
4, 147720, Note_on_c, 0, 50, 74
4, 147840, Note_on_c, 0, 50, 0
4, 147840, Note_on_c, 0, 49, 74
4, 147944, Note_on_c, 0, 49, 0
4, 148000, Note_on_c, 0, 61, 74
4, 148104, Note_on_c, 0, 61, 0
4, 148160, Note_on_c, 0, 62, 74
4, 148264, Note_on_c, 0, 62, 0
4, 148320, Note_on_c, 0, 64, 75
4, 148424, Note_on_c, 0, 64, 0
4, 148480, Note_on_c, 0, 64, 75
4, 148584, Note_on_c, 0, 64, 0
4, 148640, Note_on_c, 0, 66, 75
4, 148744, Note_on_c, 0, 66, 0
4, 148800, Note_on_c, 0, 67, 75
4, 148860, Note_on_c, 0, 67, 0
4, 148860, Note_on_c, 0, 69, 75
4, 148920, Note_on_c, 0, 69, 0
4, 148920, Note_on_c, 0, 67, 75
4, 148980, Note_on_c, 0, 67, 0
4, 148980, Note_on_c, 0, 69, 75
4, 149040, Note_on_c, 0, 69, 0
4, 149040, Note_on_c, 0, 67, 75
4, 149100, Note_on_c, 0, 67, 0
4, 149100, Note_on_c, 0, 69, 76
4, 149160, Note_on_c, 0, 69, 0
4, 149160, Note_on_c, 0, 67, 76
4, 149220, Note_on_c, 0, 67, 0
4, 149220, Note_on_c, 0, 69, 76
4, 149280, Note_on_c, 0, 69, 0
4, 149280, Note_on_c, 0, 67, 76
4, 149360, Note_on_c, 0, 67, 0
4, 149360, Note_on_c, 0, 69, 76
4, 149440, Note_on_c, 0, 69, 0
4, 149440, Note_on_c, 0, 67, 76
4, 149520, Note_on_c, 0, 67, 0
4, 149520, Note_on_c, 0, 66, 76
4, 149640, Note_on_c, 0, 66, 0
4, 149640, Note_on_c, 0, 64, 76
4, 149760, Note_on_c, 0, 64, 0
4, 149760, Note_on_c, 0, 62, 76
4, 149864, Note_on_c, 0, 62, 0
4, 149920, Note_on_c, 0, 60, 77
4, 150024, Note_on_c, 0, 60, 0
4, 150080, Note_on_c, 0, 59, 77
4, 150184, Note_on_c, 0, 59, 0
4, 150240, Note_on_c, 0, 57, 77
4, 150344, Note_on_c, 0, 57, 0
4, 150400, Note_on_c, 0, 57, 77
4, 150504, Note_on_c, 0, 57, 0
4, 150560, Note_on_c, 0, 55, 77
4, 150664, Note_on_c, 0, 55, 0
4, 150720, Note_on_c, 0, 54, 78
4, 150824, Note_on_c, 0, 54, 0
4, 150880, Note_on_c, 0, 51, 78
4, 150984, Note_on_c, 0, 51, 0
4, 151040, Note_on_c, 0, 51, 78
4, 151144, Note_on_c, 0, 51, 0
4, 151200, Note_on_c, 0, 51, 78
4, 151304, Note_on_c, 0, 51, 0
4, 151360, Note_on_c, 0, 52, 78
4, 151464, Note_on_c, 0, 52, 0
4, 151520, Note_on_c, 0, 54, 79
4, 151624, Note_on_c, 0, 54, 0
4, 151680, Note_on_c, 0, 55, 79
4, 151784, Note_on_c, 0, 55, 0
4, 152160, Note_on_c, 0, 55, 80
4, 152240, Note_on_c, 0, 55, 0
4, 152240, Note_on_c, 0, 57, 80
4, 152320, Note_on_c, 0, 57, 0
4, 152320, Note_on_c, 0, 55, 80
4, 152400, Note_on_c, 0, 55, 0
4, 152400, Note_on_c, 0, 54, 80
4, 152520, Note_on_c, 0, 54, 0
4, 152520, Note_on_c, 0, 52, 80
4, 152640, Note_on_c, 0, 52, 0
4, 152640, Note_on_c, 0, 52, 80
4, 152720, Note_on_c, 0, 52, 0
4, 152720, Note_on_c, 0, 54, 80
4, 152800, Note_on_c, 0, 54, 0
4, 152800, Note_on_c, 0, 52, 80
4, 152880, Note_on_c, 0, 52, 0
4, 152880, Note_on_c, 0, 50, 80
4, 153000, Note_on_c, 0, 50, 0
4, 153000, Note_on_c, 0, 49, 81
4, 153120, Note_on_c, 0, 49, 0
4, 153240, Note_on_c, 0, 61, 81
4, 153360, Note_on_c, 0, 61, 0
4, 153360, Note_on_c, 0, 62, 81
4, 153480, Note_on_c, 0, 62, 0
4, 153480, Note_on_c, 0, 64, 81
4, 153600, Note_on_c, 0, 64, 0
4, 153600, Note_on_c, 0, 64, 81
4, 153660, Note_on_c, 0, 64, 0
4, 153660, Note_on_c, 0, 66, 80
4, 153720, Note_on_c, 0, 66, 0
4, 153720, Note_on_c, 0, 64, 80
4, 153780, Note_on_c, 0, 64, 0
4, 153780, Note_on_c, 0, 66, 79
4, 153840, Note_on_c, 0, 66, 0
4, 153840, Note_on_c, 0, 64, 78
4, 153900, Note_on_c, 0, 64, 0
4, 153900, Note_on_c, 0, 66, 78
4, 153960, Note_on_c, 0, 66, 0
4, 153960, Note_on_c, 0, 64, 77
4, 154020, Note_on_c, 0, 64, 0
4, 154020, Note_on_c, 0, 66, 76
4, 154080, Note_on_c, 0, 66, 0
4, 154080, Note_on_c, 0, 64, 75
4, 154160, Note_on_c, 0, 64, 0
4, 154160, Note_on_c, 0, 66, 75
4, 154240, Note_on_c, 0, 66, 0
4, 154240, Note_on_c, 0, 64, 74
4, 154320, Note_on_c, 0, 64, 0
4, 154320, Note_on_c, 0, 62, 73
4, 154440, Note_on_c, 0, 62, 0
4, 154440, Note_on_c, 0, 64, 71
4, 154560, Note_on_c, 0, 64, 0
4, 154560, Note_on_c, 0, 62, 70
4, 154800, Note_on_c, 0, 62, 0
4, 155040, Control_c, 0, 7, 87
4, 155520, Note_on_c, 0, 57, 46
4, 155520, Note_on_c, 0, 53, 46
4, 155520, Note_on_c, 0, 50, 46
4, 155520, Note_on_c, 0, 65, 46
4, 155520, Note_on_c, 0, 69, 46
4, 155760, Note_on_c, 0, 69, 0
4, 155760, Note_on_c, 0, 50, 0
4, 155760, Note_on_c, 0, 57, 0
4, 155760, Note_on_c, 0, 53, 0
4, 155760, Note_on_c, 0, 65, 0
4, 155760, Note_on_c, 0, 53, 47
4, 155760, Note_on_c, 0, 57, 47
4, 155760, Note_on_c, 0, 50, 47
4, 155760, Note_on_c, 0, 65, 47
4, 155760, Note_on_c, 0, 69, 47
4, 156000, Note_on_c, 0, 69, 0
4, 156000, Note_on_c, 0, 50, 0
4, 156000, Note_on_c, 0, 53, 0
4, 156000, Note_on_c, 0, 57, 0
4, 156000, Note_on_c, 0, 65, 0
4, 156000, Note_on_c, 0, 57, 48
4, 156000, Note_on_c, 0, 50, 48
4, 156000, Note_on_c, 0, 53, 48
4, 156000, Note_on_c, 0, 65, 48
4, 156000, Note_on_c, 0, 69, 48
4, 156240, Note_on_c, 0, 69, 0
4, 156240, Note_on_c, 0, 53, 0
4, 156240, Note_on_c, 0, 57, 0
4, 156240, Note_on_c, 0, 50, 0
4, 156240, Note_on_c, 0, 65, 0
4, 156240, Note_on_c, 0, 57, 49
4, 156240, Note_on_c, 0, 53, 49
4, 156240, Note_on_c, 0, 50, 49
4, 156240, Note_on_c, 0, 65, 49
4, 156240, Note_on_c, 0, 69, 49
4, 156480, Note_on_c, 0, 69, 0
4, 156480, Note_on_c, 0, 50, 0
4, 156480, Note_on_c, 0, 57, 0
4, 156480, Note_on_c, 0, 53, 0
4, 156480, Note_on_c, 0, 65, 0
4, 156480, Note_on_c, 0, 55, 49
4, 156480, Note_on_c, 0, 58, 49
4, 156480, Note_on_c, 0, 50, 49
4, 156480, Note_on_c, 0, 61, 49
4, 156480, Note_on_c, 0, 67, 49
4, 156480, Note_on_c, 0, 70, 49
4, 156480, Note_on_c, 0, 73, 49
4, 156720, Note_on_c, 0, 73, 0
4, 156720, Note_on_c, 0, 67, 0
4, 156720, Note_on_c, 0, 58, 0
4, 156720, Note_on_c, 0, 50, 0
4, 156720, Note_on_c, 0, 55, 0
4, 156720, Note_on_c, 0, 70, 0
4, 156720, Note_on_c, 0, 61, 0
4, 156720, Note_on_c, 0, 55, 50
4, 156720, Note_on_c, 0, 50, 50
4, 156720, Note_on_c, 0, 58, 50
4, 156720, Note_on_c, 0, 61, 50
4, 156720, Note_on_c, 0, 67, 50
4, 156720, Note_on_c, 0, 70, 50
4, 156720, Note_on_c, 0, 73, 50
4, 156960, Note_on_c, 0, 73, 0
4, 156960, Note_on_c, 0, 67, 0
4, 156960, Note_on_c, 0, 50, 0
4, 156960, Note_on_c, 0, 58, 0
4, 156960, Note_on_c, 0, 55, 0
4, 156960, Note_on_c, 0, 70, 0
4, 156960, Note_on_c, 0, 61, 0
4, 156960, Note_on_c, 0, 50, 51
4, 156960, Note_on_c, 0, 58, 51
4, 156960, Note_on_c, 0, 55, 51
4, 156960, Note_on_c, 0, 61, 51
4, 156960, Note_on_c, 0, 67, 51
4, 156960, Note_on_c, 0, 70, 51
4, 156960, Note_on_c, 0, 73, 51
4, 157200, Note_on_c, 0, 73, 0
4, 157200, Note_on_c, 0, 67, 0
4, 157200, Note_on_c, 0, 58, 0
4, 157200, Note_on_c, 0, 55, 0
4, 157200, Note_on_c, 0, 50, 0
4, 157200, Note_on_c, 0, 70, 0
4, 157200, Note_on_c, 0, 61, 0
4, 157200, Note_on_c, 0, 58, 52
4, 157200, Note_on_c, 0, 50, 52
4, 157200, Note_on_c, 0, 55, 52
4, 157200, Note_on_c, 0, 61, 52
4, 157200, Note_on_c, 0, 67, 52
4, 157200, Note_on_c, 0, 70, 52
4, 157200, Note_on_c, 0, 73, 52
4, 157440, Note_on_c, 0, 73, 0
4, 157440, Note_on_c, 0, 67, 0
4, 157440, Note_on_c, 0, 50, 0
4, 157440, Note_on_c, 0, 55, 0
4, 157440, Note_on_c, 0, 58, 0
4, 157440, Note_on_c, 0, 70, 0
4, 157440, Note_on_c, 0, 61, 0
4, 157440, Note_on_c, 0, 53, 51
4, 157440, Note_on_c, 0, 57, 51
4, 157440, Note_on_c, 0, 50, 51
4, 157440, Note_on_c, 0, 62, 51
4, 157440, Note_on_c, 0, 65, 51
4, 157440, Note_on_c, 0, 69, 51
4, 157680, Note_on_c, 0, 69, 0
4, 157680, Note_on_c, 0, 57, 0
4, 157680, Note_on_c, 0, 50, 0
4, 157680, Note_on_c, 0, 53, 0
4, 157680, Note_on_c, 0, 65, 0
4, 157680, Note_on_c, 0, 62, 0
4, 157680, Note_on_c, 0, 50, 51
4, 157680, Note_on_c, 0, 53, 51
4, 157680, Note_on_c, 0, 57, 51
4, 157680, Note_on_c, 0, 62, 51
4, 157680, Note_on_c, 0, 65, 51
4, 157680, Note_on_c, 0, 69, 51
4, 157920, Note_on_c, 0, 69, 0
4, 157920, Note_on_c, 0, 53, 0
4, 157920, Note_on_c, 0, 57, 0
4, 157920, Note_on_c, 0, 50, 0
4, 157920, Note_on_c, 0, 65, 0
4, 157920, Note_on_c, 0, 62, 0
4, 157920, Note_on_c, 0, 50, 51
4, 157920, Note_on_c, 0, 53, 51
4, 157920, Note_on_c, 0, 57, 51
4, 157920, Note_on_c, 0, 62, 51
4, 157920, Note_on_c, 0, 65, 51
4, 157920, Note_on_c, 0, 69, 51
4, 158160, Note_on_c, 0, 69, 0
4, 158160, Note_on_c, 0, 53, 0
4, 158160, Note_on_c, 0, 57, 0
4, 158160, Note_on_c, 0, 50, 0
4, 158160, Note_on_c, 0, 65, 0
4, 158160, Note_on_c, 0, 62, 0
4, 158160, Note_on_c, 0, 50, 50
4, 158160, Note_on_c, 0, 53, 50
4, 158160, Note_on_c, 0, 57, 50
4, 158160, Note_on_c, 0, 62, 50
4, 158160, Note_on_c, 0, 65, 50
4, 158160, Note_on_c, 0, 69, 50
4, 158400, Note_on_c, 0, 69, 0
4, 158400, Note_on_c, 0, 53, 0
4, 158400, Note_on_c, 0, 57, 0
4, 158400, Note_on_c, 0, 50, 0
4, 158400, Note_on_c, 0, 65, 0
4, 158400, Note_on_c, 0, 62, 0
4, 158400, Note_on_c, 0, 50, 50
4, 158400, Note_on_c, 0, 53, 50
4, 158400, Note_on_c, 0, 57, 50
4, 158400, Note_on_c, 0, 62, 50
4, 158400, Note_on_c, 0, 65, 50
4, 158640, Note_on_c, 0, 65, 0
4, 158640, Note_on_c, 0, 57, 0
4, 158640, Note_on_c, 0, 50, 0
4, 158640, Note_on_c, 0, 53, 0
4, 158640, Note_on_c, 0, 62, 0
4, 158640, Note_on_c, 0, 50, 49
4, 158640, Note_on_c, 0, 53, 49
4, 158640, Note_on_c, 0, 57, 49
4, 158640, Note_on_c, 0, 62, 49
4, 158640, Note_on_c, 0, 65, 49
4, 158880, Note_on_c, 0, 65, 0
4, 158880, Note_on_c, 0, 57, 0
4, 158880, Note_on_c, 0, 50, 0
4, 158880, Note_on_c, 0, 53, 0
4, 158880, Note_on_c, 0, 62, 0
4, 158880, Note_on_c, 0, 50, 49
4, 158880, Note_on_c, 0, 53, 49
4, 158880, Note_on_c, 0, 57, 49
4, 158880, Note_on_c, 0, 62, 49
4, 158880, Note_on_c, 0, 65, 49
4, 159120, Note_on_c, 0, 65, 0
4, 159120, Note_on_c, 0, 57, 0
4, 159120, Note_on_c, 0, 50, 0
4, 159120, Note_on_c, 0, 53, 0
4, 159120, Note_on_c, 0, 62, 0
4, 159120, Note_on_c, 0, 50, 49
4, 159120, Note_on_c, 0, 53, 49
4, 159120, Note_on_c, 0, 57, 49
4, 159120, Note_on_c, 0, 62, 49
4, 159120, Note_on_c, 0, 65, 49
4, 159360, Note_on_c, 0, 65, 0
4, 159360, Note_on_c, 0, 57, 0
4, 159360, Note_on_c, 0, 50, 0
4, 159360, Note_on_c, 0, 53, 0
4, 159360, Note_on_c, 0, 62, 0
4, 159360, Note_on_c, 0, 58, 48
4, 159360, Note_on_c, 0, 53, 48
4, 159360, Note_on_c, 0, 50, 48
4, 159360, Note_on_c, 0, 62, 48
4, 159360, Note_on_c, 0, 65, 48
4, 159600, Note_on_c, 0, 65, 0
4, 159600, Note_on_c, 0, 50, 0
4, 159600, Note_on_c, 0, 58, 0
4, 159600, Note_on_c, 0, 53, 0
4, 159600, Note_on_c, 0, 62, 0
4, 159600, Note_on_c, 0, 53, 48
4, 159600, Note_on_c, 0, 58, 48
4, 159600, Note_on_c, 0, 50, 48
4, 159600, Note_on_c, 0, 62, 48
4, 159600, Note_on_c, 0, 65, 48
4, 159840, Note_on_c, 0, 65, 0
4, 159840, Note_on_c, 0, 50, 0
4, 159840, Note_on_c, 0, 53, 0
4, 159840, Note_on_c, 0, 58, 0
4, 159840, Note_on_c, 0, 62, 0
4, 159840, Note_on_c, 0, 53, 48
4, 159840, Note_on_c, 0, 58, 48
4, 159840, Note_on_c, 0, 50, 48
4, 159840, Note_on_c, 0, 62, 48
4, 159840, Note_on_c, 0, 65, 48
4, 160080, Note_on_c, 0, 65, 0
4, 160080, Note_on_c, 0, 50, 0
4, 160080, Note_on_c, 0, 53, 0
4, 160080, Note_on_c, 0, 58, 0
4, 160080, Note_on_c, 0, 62, 0
4, 160080, Note_on_c, 0, 53, 48
4, 160080, Note_on_c, 0, 58, 48
4, 160080, Note_on_c, 0, 50, 48
4, 160080, Note_on_c, 0, 62, 48
4, 160080, Note_on_c, 0, 65, 48
4, 160320, Note_on_c, 0, 65, 0
4, 160320, Note_on_c, 0, 50, 0
4, 160320, Note_on_c, 0, 53, 0
4, 160320, Note_on_c, 0, 58, 0
4, 160320, Note_on_c, 0, 62, 0
4, 160320, Note_on_c, 0, 46, 50
4, 160320, Note_on_c, 0, 58, 50
4, 160320, Note_on_c, 0, 53, 50
4, 160320, Note_on_c, 0, 62, 50
4, 160320, Note_on_c, 0, 65, 50
4, 160560, Note_on_c, 0, 65, 0
4, 160560, Note_on_c, 0, 53, 0
4, 160560, Note_on_c, 0, 46, 0
4, 160560, Note_on_c, 0, 58, 0
4, 160560, Note_on_c, 0, 62, 0
4, 160560, Note_on_c, 0, 58, 52
4, 160560, Note_on_c, 0, 53, 52
4, 160560, Note_on_c, 0, 46, 52
4, 160560, Note_on_c, 0, 62, 52
4, 160560, Note_on_c, 0, 65, 52
4, 160800, Note_on_c, 0, 65, 0
4, 160800, Note_on_c, 0, 46, 0
4, 160800, Note_on_c, 0, 58, 0
4, 160800, Note_on_c, 0, 53, 0
4, 160800, Note_on_c, 0, 62, 0
4, 160800, Note_on_c, 0, 53, 54
4, 160800, Note_on_c, 0, 45, 54
4, 160800, Note_on_c, 0, 57, 54
4, 160800, Note_on_c, 0, 62, 54
4, 160800, Note_on_c, 0, 65, 54
4, 161040, Note_on_c, 0, 65, 0
4, 161040, Note_on_c, 0, 57, 0
4, 161040, Note_on_c, 0, 53, 0
4, 161040, Note_on_c, 0, 45, 0
4, 161040, Note_on_c, 0, 62, 0
4, 161040, Note_on_c, 0, 53, 56
4, 161040, Note_on_c, 0, 57, 56
4, 161040, Note_on_c, 0, 45, 56
4, 161040, Note_on_c, 0, 62, 56
4, 161040, Note_on_c, 0, 65, 56
4, 161280, Note_on_c, 0, 65, 0
4, 161280, Note_on_c, 0, 45, 0
4, 161280, Note_on_c, 0, 53, 0
4, 161280, Note_on_c, 0, 57, 0
4, 161280, Note_on_c, 0, 62, 0
4, 161280, Note_on_c, 0, 53, 59
4, 161280, Note_on_c, 0, 59, 59
4, 161280, Note_on_c, 0, 44, 59
4, 161280, Note_on_c, 0, 62, 59
4, 161520, Note_on_c, 0, 62, 0
4, 161520, Note_on_c, 0, 53, 0
4, 161520, Note_on_c, 0, 59, 0
4, 161520, Note_on_c, 0, 44, 0
4, 161520, Note_on_c, 0, 50, 61
4, 161520, Note_on_c, 0, 59, 61
4, 161520, Note_on_c, 0, 53, 61
4, 161520, Note_on_c, 0, 44, 61
4, 161760, Note_on_c, 0, 44, 0
4, 161760, Note_on_c, 0, 50, 0
4, 161760, Note_on_c, 0, 59, 0
4, 161760, Note_on_c, 0, 53, 0
4, 161760, Note_on_c, 0, 50, 62
4, 161760, Note_on_c, 0, 44, 62
4, 161760, Note_on_c, 0, 52, 62
4, 161760, Note_on_c, 0, 59, 62
4, 162000, Note_on_c, 0, 59, 0
4, 162000, Note_on_c, 0, 50, 0
4, 162000, Note_on_c, 0, 44, 0
4, 162000, Note_on_c, 0, 52, 0
4, 162000, Note_on_c, 0, 59, 61
4, 162000, Note_on_c, 0, 50, 61
4, 162000, Note_on_c, 0, 52, 61
4, 162000, Note_on_c, 0, 44, 61
4, 162240, Note_on_c, 0, 44, 0
4, 162240, Note_on_c, 0, 59, 0
4, 162240, Note_on_c, 0, 50, 0
4, 162240, Note_on_c, 0, 52, 0
4, 162240, Note_on_c, 0, 57, 59
4, 162240, Note_on_c, 0, 48, 59
4, 162240, Note_on_c, 0, 45, 59
4, 162240, Note_on_c, 0, 52, 59
4, 162480, Note_on_c, 0, 52, 0
4, 162480, Note_on_c, 0, 57, 0
4, 162480, Note_on_c, 0, 48, 0
4, 162480, Note_on_c, 0, 45, 0
4, 162480, Note_on_c, 0, 57, 59
4, 162480, Note_on_c, 0, 48, 59
4, 162480, Note_on_c, 0, 52, 59
4, 162480, Note_on_c, 0, 45, 59
4, 162720, Note_on_c, 0, 45, 0
4, 162720, Note_on_c, 0, 57, 0
4, 162720, Note_on_c, 0, 48, 0
4, 162720, Note_on_c, 0, 52, 0
4, 162720, Note_on_c, 0, 59, 59
4, 162720, Note_on_c, 0, 53, 59
4, 162720, Note_on_c, 0, 50, 59
4, 162960, Note_on_c, 0, 50, 0
4, 162960, Note_on_c, 0, 53, 0
4, 162960, Note_on_c, 0, 59, 0
4, 162960, Note_on_c, 0, 59, 59
4, 162960, Note_on_c, 0, 50, 59
4, 162960, Note_on_c, 0, 53, 59
4, 163200, Note_on_c, 0, 53, 0
4, 163200, Note_on_c, 0, 50, 0
4, 163200, Note_on_c, 0, 59, 0
4, 163200, Note_on_c, 0, 54, 58
4, 163200, Note_on_c, 0, 57, 58
4, 163200, Note_on_c, 0, 48, 58
4, 163440, Note_on_c, 0, 48, 0
4, 163440, Note_on_c, 0, 57, 0
4, 163440, Note_on_c, 0, 54, 0
4, 163440, Note_on_c, 0, 54, 58
4, 163440, Note_on_c, 0, 57, 58
4, 163440, Note_on_c, 0, 48, 58
4, 163680, Note_on_c, 0, 48, 0
4, 163680, Note_on_c, 0, 57, 0
4, 163680, Note_on_c, 0, 54, 0
4, 163680, Note_on_c, 0, 57, 58
4, 163680, Note_on_c, 0, 48, 58
4, 163680, Note_on_c, 0, 52, 58
4, 163920, Note_on_c, 0, 52, 0
4, 163920, Note_on_c, 0, 48, 0
4, 163920, Note_on_c, 0, 57, 0
4, 163920, Note_on_c, 0, 57, 57
4, 163920, Note_on_c, 0, 48, 57
4, 163920, Note_on_c, 0, 52, 57
4, 164160, Note_on_c, 0, 52, 0
4, 164160, Note_on_c, 0, 48, 0
4, 164160, Note_on_c, 0, 57, 0
4, 164160, Note_on_c, 0, 57, 57
4, 164160, Note_on_c, 0, 48, 57
4, 164160, Note_on_c, 0, 52, 57
4, 164400, Note_on_c, 0, 52, 0
4, 164400, Note_on_c, 0, 48, 0
4, 164400, Note_on_c, 0, 57, 0
4, 164400, Note_on_c, 0, 57, 57
4, 164400, Note_on_c, 0, 48, 57
4, 164400, Note_on_c, 0, 52, 57
4, 164640, Note_on_c, 0, 52, 0
4, 164640, Note_on_c, 0, 48, 0
4, 164640, Note_on_c, 0, 57, 0
4, 164640, Note_on_c, 0, 50, 57
4, 164640, Note_on_c, 0, 52, 57
4, 164640, Note_on_c, 0, 56, 57
4, 164880, Note_on_c, 0, 56, 0
4, 164880, Note_on_c, 0, 52, 0
4, 164880, Note_on_c, 0, 50, 0
4, 164880, Note_on_c, 0, 50, 56
4, 164880, Note_on_c, 0, 56, 56
4, 164880, Note_on_c, 0, 52, 56
4, 165120, Note_on_c, 0, 52, 0
4, 165120, Note_on_c, 0, 56, 0
4, 165120, Note_on_c, 0, 50, 0
4, 165120, Note_on_c, 0, 57, 56
4, 165120, Note_on_c, 0, 48, 56
4, 165120, Note_on_c, 0, 52, 56
4, 165360, Note_on_c, 0, 52, 0
4, 165360, Note_on_c, 0, 48, 0
4, 165360, Note_on_c, 0, 57, 0
4, 165360, Note_on_c, 0, 57, 56
4, 165360, Note_on_c, 0, 48, 56
4, 165360, Note_on_c, 0, 52, 56
4, 165600, Note_on_c, 0, 52, 0
4, 165600, Note_on_c, 0, 48, 0
4, 165600, Note_on_c, 0, 57, 0
4, 165600, Note_on_c, 0, 57, 56
4, 165600, Note_on_c, 0, 48, 56
4, 165600, Note_on_c, 0, 52, 56
4, 165840, Note_on_c, 0, 52, 0
4, 165840, Note_on_c, 0, 48, 0
4, 165840, Note_on_c, 0, 57, 0
4, 165840, Note_on_c, 0, 48, 55
4, 165840, Note_on_c, 0, 57, 55
4, 165840, Note_on_c, 0, 52, 55
4, 166080, Note_on_c, 0, 52, 0
4, 166080, Note_on_c, 0, 57, 0
4, 166080, Note_on_c, 0, 48, 0
4, 166080, Note_on_c, 0, 57, 55
4, 166080, Note_on_c, 0, 48, 55
4, 166080, Note_on_c, 0, 52, 55
4, 166320, Note_on_c, 0, 52, 0
4, 166320, Note_on_c, 0, 48, 0
4, 166320, Note_on_c, 0, 57, 0
4, 166320, Note_on_c, 0, 57, 55
4, 166320, Note_on_c, 0, 48, 55
4, 166320, Note_on_c, 0, 52, 55
4, 166560, Note_on_c, 0, 52, 0
4, 166560, Note_on_c, 0, 48, 0
4, 166560, Note_on_c, 0, 57, 0
4, 166560, Note_on_c, 0, 57, 54
4, 166560, Note_on_c, 0, 48, 54
4, 166560, Note_on_c, 0, 52, 54
4, 166800, Note_on_c, 0, 52, 0
4, 166800, Note_on_c, 0, 48, 0
4, 166800, Note_on_c, 0, 57, 0
4, 166800, Note_on_c, 0, 48, 54
4, 166800, Note_on_c, 0, 57, 54
4, 166800, Note_on_c, 0, 52, 54
4, 167040, Note_on_c, 0, 52, 0
4, 167040, Note_on_c, 0, 57, 0
4, 167040, Note_on_c, 0, 48, 0
4, 167040, Note_on_c, 0, 58, 54
4, 167040, Note_on_c, 0, 49, 54
4, 167040, Note_on_c, 0, 55, 54
4, 167040, Note_on_c, 0, 52, 54
4, 167040, Note_on_c, 0, 45, 54
4, 167280, Note_on_c, 0, 45, 0
4, 167280, Note_on_c, 0, 55, 0
4, 167280, Note_on_c, 0, 58, 0
4, 167280, Note_on_c, 0, 49, 0
4, 167280, Note_on_c, 0, 52, 0
4, 167280, Note_on_c, 0, 58, 54
4, 167280, Note_on_c, 0, 49, 54
4, 167280, Note_on_c, 0, 52, 54
4, 167280, Note_on_c, 0, 55, 54
4, 167280, Note_on_c, 0, 45, 54
4, 167520, Note_on_c, 0, 45, 0
4, 167520, Note_on_c, 0, 52, 0
4, 167520, Note_on_c, 0, 58, 0
4, 167520, Note_on_c, 0, 49, 0
4, 167520, Note_on_c, 0, 55, 0
4, 167520, Note_on_c, 0, 58, 53
4, 167520, Note_on_c, 0, 45, 53
4, 167520, Note_on_c, 0, 55, 53
4, 167520, Note_on_c, 0, 49, 53
4, 167520, Note_on_c, 0, 52, 53
4, 167760, Note_on_c, 0, 52, 0
4, 167760, Note_on_c, 0, 55, 0
4, 167760, Note_on_c, 0, 58, 0
4, 167760, Note_on_c, 0, 45, 0
4, 167760, Note_on_c, 0, 49, 0
4, 167760, Note_on_c, 0, 58, 53
4, 167760, Note_on_c, 0, 49, 53
4, 167760, Note_on_c, 0, 45, 53
4, 167760, Note_on_c, 0, 52, 53
4, 167760, Note_on_c, 0, 55, 53
4, 168000, Note_on_c, 0, 55, 0
4, 168000, Note_on_c, 0, 45, 0
4, 168000, Note_on_c, 0, 58, 0
4, 168000, Note_on_c, 0, 49, 0
4, 168000, Note_on_c, 0, 52, 0
4, 168000, Note_on_c, 0, 58, 53
4, 168000, Note_on_c, 0, 45, 53
4, 168000, Note_on_c, 0, 49, 53
4, 168000, Note_on_c, 0, 52, 53
4, 168000, Note_on_c, 0, 55, 53
4, 168240, Note_on_c, 0, 55, 0
4, 168240, Note_on_c, 0, 49, 0
4, 168240, Note_on_c, 0, 58, 0
4, 168240, Note_on_c, 0, 45, 0
4, 168240, Note_on_c, 0, 52, 0
4, 168240, Note_on_c, 0, 58, 53
4, 168240, Note_on_c, 0, 49, 53
4, 168240, Note_on_c, 0, 45, 53
4, 168240, Note_on_c, 0, 52, 53
4, 168240, Note_on_c, 0, 55, 53
4, 168480, Note_on_c, 0, 55, 0
4, 168480, Note_on_c, 0, 45, 0
4, 168480, Note_on_c, 0, 58, 0
4, 168480, Note_on_c, 0, 49, 0
4, 168480, Note_on_c, 0, 52, 0
4, 168480, Note_on_c, 0, 58, 52
4, 168480, Note_on_c, 0, 49, 52
4, 168480, Note_on_c, 0, 45, 52
4, 168480, Note_on_c, 0, 55, 52
4, 168480, Note_on_c, 0, 52, 52
4, 168720, Note_on_c, 0, 52, 0
4, 168720, Note_on_c, 0, 45, 0
4, 168720, Note_on_c, 0, 58, 0
4, 168720, Note_on_c, 0, 49, 0
4, 168720, Note_on_c, 0, 55, 0
4, 168720, Note_on_c, 0, 58, 52
4, 168720, Note_on_c, 0, 49, 52
4, 168720, Note_on_c, 0, 52, 52
4, 168720, Note_on_c, 0, 55, 52
4, 168720, Note_on_c, 0, 45, 52
4, 168960, Note_on_c, 0, 45, 0
4, 168960, Note_on_c, 0, 52, 0
4, 168960, Note_on_c, 0, 58, 0
4, 168960, Note_on_c, 0, 49, 0
4, 168960, Note_on_c, 0, 55, 0
4, 168960, Note_on_c, 0, 58, 52
4, 168960, Note_on_c, 0, 52, 52
4, 168960, Note_on_c, 0, 55, 52
4, 168960, Note_on_c, 0, 45, 52
4, 169200, Note_on_c, 0, 45, 0
4, 169200, Note_on_c, 0, 58, 0
4, 169200, Note_on_c, 0, 52, 0
4, 169200, Note_on_c, 0, 55, 0
4, 169200, Note_on_c, 0, 45, 53
4, 169200, Note_on_c, 0, 55, 53
4, 169200, Note_on_c, 0, 58, 53
4, 169200, Note_on_c, 0, 52, 53
4, 169440, Note_on_c, 0, 52, 0
4, 169440, Note_on_c, 0, 45, 0
4, 169440, Note_on_c, 0, 55, 0
4, 169440, Note_on_c, 0, 58, 0
4, 169440, Note_on_c, 0, 58, 53
4, 169440, Note_on_c, 0, 45, 53
4, 169440, Note_on_c, 0, 52, 53
4, 169440, Note_on_c, 0, 55, 53
4, 169680, Note_on_c, 0, 55, 0
4, 169680, Note_on_c, 0, 58, 0
4, 169680, Note_on_c, 0, 45, 0
4, 169680, Note_on_c, 0, 52, 0
4, 169680, Note_on_c, 0, 52, 53
4, 169680, Note_on_c, 0, 55, 53
4, 169680, Note_on_c, 0, 58, 53
4, 169680, Note_on_c, 0, 45, 53
4, 169920, Note_on_c, 0, 45, 0
4, 169920, Note_on_c, 0, 52, 0
4, 169920, Note_on_c, 0, 55, 0
4, 169920, Note_on_c, 0, 58, 0
4, 169920, Note_on_c, 0, 52, 54
4, 169920, Note_on_c, 0, 55, 54
4, 169920, Note_on_c, 0, 45, 54
4, 169920, Note_on_c, 0, 58, 54
4, 170160, Note_on_c, 0, 58, 0
4, 170160, Note_on_c, 0, 52, 0
4, 170160, Note_on_c, 0, 55, 0
4, 170160, Note_on_c, 0, 45, 0
4, 170160, Note_on_c, 0, 58, 54
4, 170160, Note_on_c, 0, 45, 54
4, 170160, Note_on_c, 0, 52, 54
4, 170160, Note_on_c, 0, 55, 54
4, 170400, Note_on_c, 0, 55, 0
4, 170400, Note_on_c, 0, 58, 0
4, 170400, Note_on_c, 0, 45, 0
4, 170400, Note_on_c, 0, 52, 0
4, 170400, Note_on_c, 0, 58, 55
4, 170400, Note_on_c, 0, 52, 55
4, 170400, Note_on_c, 0, 55, 55
4, 170400, Note_on_c, 0, 45, 55
4, 170400, Note_on_c, 0, 50, 55
4, 170640, Note_on_c, 0, 50, 0
4, 170640, Note_on_c, 0, 55, 0
4, 170640, Note_on_c, 0, 58, 0
4, 170640, Note_on_c, 0, 52, 0
4, 170640, Note_on_c, 0, 45, 0
4, 170640, Note_on_c, 0, 55, 55
4, 170640, Note_on_c, 0, 52, 55
4, 170640, Note_on_c, 0, 45, 55
4, 170640, Note_on_c, 0, 50, 55
4, 170640, Note_on_c, 0, 58, 55
4, 170880, Note_on_c, 0, 58, 0
4, 170880, Note_on_c, 0, 45, 0
4, 170880, Note_on_c, 0, 55, 0
4, 170880, Note_on_c, 0, 52, 0
4, 170880, Note_on_c, 0, 50, 0
4, 170880, Note_on_c, 0, 49, 55
4, 170880, Note_on_c, 0, 55, 55
4, 170880, Note_on_c, 0, 57, 55
4, 170880, Note_on_c, 0, 52, 55
4, 170880, Note_on_c, 0, 45, 55
4, 171120, Note_on_c, 0, 45, 0
4, 171120, Note_on_c, 0, 57, 0
4, 171120, Note_on_c, 0, 49, 0
4, 171120, Note_on_c, 0, 55, 0
4, 171120, Note_on_c, 0, 52, 0
4, 171120, Note_on_c, 0, 57, 56
4, 171120, Note_on_c, 0, 49, 56
4, 171120, Note_on_c, 0, 55, 56
4, 171120, Note_on_c, 0, 45, 56
4, 171360, Note_on_c, 0, 45, 0
4, 171360, Note_on_c, 0, 57, 0
4, 171360, Note_on_c, 0, 49, 0
4, 171360, Note_on_c, 0, 55, 0
4, 171360, Note_on_c, 0, 57, 56
4, 171360, Note_on_c, 0, 49, 56
4, 171360, Note_on_c, 0, 55, 56
4, 171360, Note_on_c, 0, 45, 56
4, 171600, Note_on_c, 0, 45, 0
4, 171600, Note_on_c, 0, 57, 0
4, 171600, Note_on_c, 0, 49, 0
4, 171600, Note_on_c, 0, 55, 0
4, 171600, Note_on_c, 0, 57, 57
4, 171600, Note_on_c, 0, 49, 57
4, 171600, Note_on_c, 0, 45, 57
4, 171600, Note_on_c, 0, 55, 57
4, 171840, Note_on_c, 0, 55, 0
4, 171840, Note_on_c, 0, 57, 0
4, 171840, Note_on_c, 0, 49, 0
4, 171840, Note_on_c, 0, 45, 0
4, 171840, Note_on_c, 0, 50, 57
4, 171840, Note_on_c, 0, 55, 57
4, 171840, Note_on_c, 0, 57, 57
4, 171840, Note_on_c, 0, 45, 57
4, 172080, Note_on_c, 0, 45, 0
4, 172080, Note_on_c, 0, 50, 0
4, 172080, Note_on_c, 0, 55, 0
4, 172080, Note_on_c, 0, 57, 0
4, 172080, Note_on_c, 0, 50, 58
4, 172080, Note_on_c, 0, 55, 58
4, 172080, Note_on_c, 0, 57, 58
4, 172080, Note_on_c, 0, 45, 58
4, 172320, Note_on_c, 0, 45, 0
4, 172320, Note_on_c, 0, 50, 0
4, 172320, Note_on_c, 0, 55, 0
4, 172320, Note_on_c, 0, 57, 0
4, 172320, Note_on_c, 0, 57, 58
4, 172320, Note_on_c, 0, 52, 58
4, 172320, Note_on_c, 0, 55, 58
4, 172320, Note_on_c, 0, 45, 58
4, 172560, Note_on_c, 0, 45, 0
4, 172560, Note_on_c, 0, 57, 0
4, 172560, Note_on_c, 0, 52, 0
4, 172560, Note_on_c, 0, 55, 0
4, 172560, Note_on_c, 0, 57, 58
4, 172560, Note_on_c, 0, 52, 58
4, 172560, Note_on_c, 0, 45, 58
4, 172560, Note_on_c, 0, 55, 58
4, 172800, Note_on_c, 0, 55, 0
4, 172800, Note_on_c, 0, 57, 0
4, 172800, Note_on_c, 0, 52, 0
4, 172800, Note_on_c, 0, 45, 0
4, 172800, Note_on_c, 0, 53, 58
4, 172800, Note_on_c, 0, 57, 58
4, 173040, Note_on_c, 0, 57, 0
4, 173040, Note_on_c, 0, 53, 0
4, 173040, Note_on_c, 0, 62, 60
4, 173040, Note_on_c, 0, 53, 60
4, 173040, Note_on_c, 0, 57, 60
4, 173280, Note_on_c, 0, 57, 0
4, 173280, Note_on_c, 0, 53, 0
4, 173280, Note_on_c, 0, 62, 0
4, 173280, Note_on_c, 0, 57, 61
4, 173280, Note_on_c, 0, 62, 61
4, 173280, Note_on_c, 0, 53, 61
4, 173520, Note_on_c, 0, 53, 0
4, 173520, Note_on_c, 0, 62, 0
4, 173520, Note_on_c, 0, 57, 0
4, 173520, Note_on_c, 0, 57, 63
4, 173520, Note_on_c, 0, 62, 63
4, 173520, Note_on_c, 0, 53, 63
4, 173760, Note_on_c, 0, 53, 0
4, 173760, Note_on_c, 0, 62, 0
4, 173760, Note_on_c, 0, 57, 0
4, 173760, Note_on_c, 0, 58, 64
4, 173760, Note_on_c, 0, 55, 64
4, 173760, Note_on_c, 0, 43, 64
4, 174000, Note_on_c, 0, 43, 0
4, 174000, Note_on_c, 0, 55, 0
4, 174000, Note_on_c, 0, 58, 0
4, 174000, Note_on_c, 0, 55, 66
4, 174000, Note_on_c, 0, 58, 66
4, 174000, Note_on_c, 0, 43, 66
4, 174240, Note_on_c, 0, 43, 0
4, 174240, Note_on_c, 0, 58, 0
4, 174240, Note_on_c, 0, 55, 0
4, 174240, Note_on_c, 0, 63, 67
4, 174240, Note_on_c, 0, 55, 67
4, 174240, Note_on_c, 0, 58, 67
4, 174240, Note_on_c, 0, 43, 67
4, 174480, Note_on_c, 0, 43, 0
4, 174480, Note_on_c, 0, 63, 0
4, 174480, Note_on_c, 0, 55, 0
4, 174480, Note_on_c, 0, 58, 0
4, 174480, Note_on_c, 0, 63, 69
4, 174480, Note_on_c, 0, 55, 69
4, 174480, Note_on_c, 0, 58, 69
4, 174480, Note_on_c, 0, 43, 69
4, 174720, Note_on_c, 0, 43, 0
4, 174720, Note_on_c, 0, 63, 0
4, 174720, Note_on_c, 0, 55, 0
4, 174720, Note_on_c, 0, 58, 0
4, 174720, Note_on_c, 0, 53, 72
4, 174720, Note_on_c, 0, 59, 72
4, 174720, Note_on_c, 0, 44, 72
4, 174960, Note_on_c, 0, 44, 0
4, 174960, Note_on_c, 0, 59, 0
4, 174960, Note_on_c, 0, 53, 0
4, 174960, Note_on_c, 0, 44, 65
4, 174960, Note_on_c, 0, 53, 65
4, 174960, Note_on_c, 0, 59, 65
4, 174960, Note_on_c, 0, 50, 65
4, 175200, Note_on_c, 0, 50, 0
4, 175200, Note_on_c, 0, 44, 0
4, 175200, Note_on_c, 0, 53, 0
4, 175200, Note_on_c, 0, 59, 0
4, 175200, Note_on_c, 0, 59, 63
4, 175200, Note_on_c, 0, 50, 63
4, 175200, Note_on_c, 0, 53, 63
4, 175200, Note_on_c, 0, 44, 63
4, 175440, Note_on_c, 0, 44, 0
4, 175440, Note_on_c, 0, 59, 0
4, 175440, Note_on_c, 0, 50, 0
4, 175440, Note_on_c, 0, 53, 0
4, 175440, Note_on_c, 0, 59, 61
4, 175440, Note_on_c, 0, 50, 61
4, 175440, Note_on_c, 0, 53, 61
4, 175440, Note_on_c, 0, 44, 61
4, 175680, Note_on_c, 0, 44, 0
4, 175680, Note_on_c, 0, 59, 0
4, 175680, Note_on_c, 0, 50, 0
4, 175680, Note_on_c, 0, 53, 0
4, 175680, Note_on_c, 0, 57, 59
4, 175680, Note_on_c, 0, 50, 59
4, 175680, Note_on_c, 0, 53, 59
4, 175680, Note_on_c, 0, 45, 59
4, 175920, Note_on_c, 0, 45, 0
4, 175920, Note_on_c, 0, 57, 0
4, 175920, Note_on_c, 0, 50, 0
4, 175920, Note_on_c, 0, 53, 0
4, 175920, Note_on_c, 0, 53, 58
4, 175920, Note_on_c, 0, 57, 58
4, 175920, Note_on_c, 0, 50, 58
4, 175920, Note_on_c, 0, 45, 58
4, 176160, Note_on_c, 0, 45, 0
4, 176160, Note_on_c, 0, 53, 0
4, 176160, Note_on_c, 0, 57, 0
4, 176160, Note_on_c, 0, 50, 0
4, 176160, Note_on_c, 0, 49, 56
4, 176160, Note_on_c, 0, 55, 56
4, 176160, Note_on_c, 0, 57, 56
4, 176160, Note_on_c, 0, 45, 56
4, 176400, Note_on_c, 0, 45, 0
4, 176400, Note_on_c, 0, 49, 0
4, 176400, Note_on_c, 0, 55, 0
4, 176400, Note_on_c, 0, 57, 0
4, 176400, Note_on_c, 0, 49, 54
4, 176400, Note_on_c, 0, 57, 54
4, 176400, Note_on_c, 0, 55, 54
4, 176400, Note_on_c, 0, 45, 54
4, 176640, Note_on_c, 0, 45, 0
4, 176640, Note_on_c, 0, 49, 0
4, 176640, Note_on_c, 0, 57, 0
4, 176640, Note_on_c, 0, 55, 0
4, 176640, Control_c, 0, 7, 117
4, 176640, Note_on_c, 0, 50, 53
4, 176640, Note_on_c, 0, 53, 53
4, 176640, Note_on_c, 0, 57, 53
4, 176800, Note_on_c, 0, 57, 0
4, 176800, Note_on_c, 0, 53, 0
4, 176800, Note_on_c, 0, 50, 0
4, 176800, Note_on_c, 0, 57, 53
4, 176960, Note_on_c, 0, 57, 0
4, 176960, Note_on_c, 0, 56, 52
4, 177120, Note_on_c, 0, 56, 0
4, 177120, Note_on_c, 0, 58, 52
4, 178080, Note_on_c, 0, 58, 0
4, 178080, Note_on_c, 0, 53, 59
4, 178080, Note_on_c, 0, 57, 59
4, 178560, Note_on_c, 0, 57, 0
4, 178560, Note_on_c, 0, 53, 0
4, 178560, Note_on_c, 0, 55, 60
4, 178560, Note_on_c, 0, 57, 60
4, 178720, Note_on_c, 0, 57, 0
4, 178720, Note_on_c, 0, 55, 0
4, 178720, Note_on_c, 0, 57, 60
4, 178880, Note_on_c, 0, 57, 0
4, 178880, Note_on_c, 0, 56, 60
4, 179040, Note_on_c, 0, 56, 0
4, 179040, Note_on_c, 0, 57, 61
4, 180000, Note_on_c, 0, 57, 0
4, 180000, Note_on_c, 0, 55, 63
4, 180000, Note_on_c, 0, 57, 63
4, 180480, Note_on_c, 0, 57, 0
4, 180480, Note_on_c, 0, 55, 0
4, 180480, Note_on_c, 0, 57, 64
4, 180640, Note_on_c, 0, 57, 0
4, 180640, Note_on_c, 0, 62, 64
4, 180747, Note_on_c, 0, 62, 0
4, 180800, Note_on_c, 0, 61, 64
4, 180960, Note_on_c, 0, 61, 0
4, 180960, Note_on_c, 0, 62, 65
4, 181920, Note_on_c, 0, 62, 0
4, 181920, Control_c, 0, 7, 112
4, 181920, Note_on_c, 0, 57, 66
4, 181920, Note_on_c, 0, 60, 66
4, 181920, Note_on_c, 0, 62, 66
4, 182400, Note_on_c, 0, 62, 0
4, 182400, Note_on_c, 0, 60, 0
4, 182400, Note_on_c, 0, 57, 0
4, 182400, Note_on_c, 0, 58, 69
4, 182400, Note_on_c, 0, 62, 69
4, 182880, Note_on_c, 0, 62, 0
4, 182880, Note_on_c, 0, 58, 0
4, 182880, Note_on_c, 0, 55, 67
4, 182880, Note_on_c, 0, 58, 67
4, 183360, Note_on_c, 0, 58, 0
4, 183360, Note_on_c, 0, 55, 0
4, 183360, Note_on_c, 0, 53, 64
4, 183360, Note_on_c, 0, 57, 64
4, 183840, Note_on_c, 0, 57, 0
4, 183840, Note_on_c, 0, 53, 0
4, 183840, Note_on_c, 0, 55, 62
4, 183840, Note_on_c, 0, 52, 62
4, 184320, Note_on_c, 0, 52, 0
4, 184320, Note_on_c, 0, 55, 0
4, 184320, Note_on_c, 0, 45, 61
4, 184320, Note_on_c, 0, 49, 61
4, 184320, Note_on_c, 0, 55, 61
4, 185280, Note_on_c, 0, 55, 0
4, 185280, Note_on_c, 0, 49, 0
4, 185280, Note_on_c, 0, 45, 0
4, 185280, Note_on_c, 0, 45, 54
4, 185280, Note_on_c, 0, 53, 54
4, 185280, Note_on_c, 0, 50, 54
4, 185760, Note_on_c, 0, 50, 0
4, 185760, Note_on_c, 0, 53, 0
4, 185760, Note_on_c, 0, 45, 0
4, 186240, Control_c, 0, 7, 112
4, 191040, Note_on_c, 0, 64, 60
4, 191160, Note_on_c, 0, 64, 0
4, 191160, Note_on_c, 0, 66, 60
4, 191280, Note_on_c, 0, 66, 0
4, 191280, Note_on_c, 0, 64, 60
4, 191400, Note_on_c, 0, 64, 0
4, 191400, Note_on_c, 0, 66, 59
4, 191520, Note_on_c, 0, 66, 0
4, 191520, Note_on_c, 0, 54, 59
4, 191520, Note_on_c, 0, 62, 59
4, 191640, Note_on_c, 0, 62, 0
4, 191640, Note_on_c, 0, 54, 0
4, 191760, Note_on_c, 0, 54, 58
4, 191760, Note_on_c, 0, 62, 58
4, 191880, Note_on_c, 0, 62, 0
4, 191880, Note_on_c, 0, 54, 0
4, 194880, Note_on_c, 0, 68, 57
4, 195000, Note_on_c, 0, 68, 0
4, 195000, Note_on_c, 0, 69, 57
4, 195120, Note_on_c, 0, 69, 0
4, 195120, Note_on_c, 0, 52, 56
4, 195120, Note_on_c, 0, 68, 56
4, 195240, Note_on_c, 0, 68, 0
4, 195240, Note_on_c, 0, 52, 0
4, 195240, Note_on_c, 0, 69, 56
4, 195360, Note_on_c, 0, 69, 0
4, 195360, Note_on_c, 0, 57, 55
4, 195360, Note_on_c, 0, 54, 55
4, 195360, Note_on_c, 0, 59, 55
4, 195480, Note_on_c, 0, 59, 0
4, 195480, Note_on_c, 0, 54, 0
4, 195480, Note_on_c, 0, 57, 0
4, 195600, Note_on_c, 0, 54, 54
4, 195600, Note_on_c, 0, 59, 54
4, 195600, Note_on_c, 0, 57, 54
4, 195720, Note_on_c, 0, 57, 0
4, 195720, Note_on_c, 0, 59, 0
4, 195720, Note_on_c, 0, 54, 0
4, 195840, Note_on_c, 0, 61, 54
4, 195840, Note_on_c, 0, 57, 54
4, 196320, Note_on_c, 0, 57, 0
4, 196320, Note_on_c, 0, 61, 0
4, 196320, Note_on_c, 0, 57, 56
4, 196320, Note_on_c, 0, 61, 56
4, 196320, Note_on_c, 0, 52, 56
4, 196800, Note_on_c, 0, 52, 0
4, 196800, Note_on_c, 0, 61, 0
4, 196800, Note_on_c, 0, 57, 0
4, 197280, Note_on_c, 0, 50, 61
4, 197280, Note_on_c, 0, 59, 61
4, 197280, Note_on_c, 0, 56, 61
4, 197760, Note_on_c, 0, 56, 0
4, 197760, Note_on_c, 0, 59, 0
4, 197760, Note_on_c, 0, 50, 0
4, 197760, Note_on_c, 0, 56, 65
4, 197880, Note_on_c, 0, 56, 0
4, 197880, Note_on_c, 0, 57, 64
4, 198000, Note_on_c, 0, 57, 0
4, 198000, Note_on_c, 0, 59, 64
4, 198120, Note_on_c, 0, 59, 0
4, 198120, Note_on_c, 0, 61, 63
4, 198240, Note_on_c, 0, 61, 0
4, 198240, Note_on_c, 0, 62, 63
4, 198360, Note_on_c, 0, 62, 0
4, 198360, Note_on_c, 0, 64, 62
4, 198480, Note_on_c, 0, 64, 0
4, 198480, Note_on_c, 0, 66, 62
4, 198600, Note_on_c, 0, 66, 0
4, 198600, Note_on_c, 0, 68, 61
4, 198720, Note_on_c, 0, 68, 0
4, 198720, Note_on_c, 0, 69, 60
4, 199200, Note_on_c, 0, 69, 0
4, 201600, Note_on_c, 0, 49, 59
4, 201720, Note_on_c, 0, 49, 0
4, 201720, Note_on_c, 0, 52, 60
4, 201840, Note_on_c, 0, 52, 0
4, 201840, Note_on_c, 0, 55, 60
4, 201960, Note_on_c, 0, 55, 0
4, 201960, Note_on_c, 0, 52, 60
4, 202080, Note_on_c, 0, 52, 0
4, 202080, Note_on_c, 0, 61, 60
4, 202200, Note_on_c, 0, 61, 0
4, 202320, Note_on_c, 0, 61, 60
4, 202440, Note_on_c, 0, 61, 0
4, 202560, Note_on_c, 0, 61, 60
4, 203760, Note_on_c, 0, 61, 0
4, 203760, Note_on_c, 0, 70, 60
4, 203760, Note_on_c, 0, 66, 60
4, 204000, Note_on_c, 0, 66, 0
4, 204000, Note_on_c, 0, 70, 0
4, 204000, Note_on_c, 0, 67, 59
4, 204000, Note_on_c, 0, 71, 59
4, 204240, Note_on_c, 0, 71, 0
4, 204240, Note_on_c, 0, 67, 0
4, 204240, Note_on_c, 0, 69, 58
4, 204240, Note_on_c, 0, 66, 58
4, 204480, Note_on_c, 0, 66, 0
4, 204480, Note_on_c, 0, 69, 0
4, 204480, Note_on_c, 0, 64, 57
4, 204480, Note_on_c, 0, 67, 57
4, 204720, Note_on_c, 0, 67, 0
4, 204720, Note_on_c, 0, 64, 0
4, 204720, Note_on_c, 0, 62, 55
4, 204720, Note_on_c, 0, 66, 55
4, 204960, Note_on_c, 0, 66, 0
4, 204960, Note_on_c, 0, 62, 0
4, 204960, Note_on_c, 0, 64, 54
4, 204960, Note_on_c, 0, 61, 54
4, 205200, Note_on_c, 0, 61, 0
4, 205200, Note_on_c, 0, 64, 0
4, 205200, Note_on_c, 0, 57, 53
4, 205200, Note_on_c, 0, 64, 53
4, 205440, Note_on_c, 0, 64, 0
4, 205440, Note_on_c, 0, 57, 0
4, 205440, Note_on_c, 0, 57, 52
4, 205440, Note_on_c, 0, 62, 52
4, 205920, Note_on_c, 0, 62, 0
4, 205920, Note_on_c, 0, 57, 0
4, 206400, Note_on_c, 0, 62, 60
4, 206520, Note_on_c, 0, 62, 0
4, 206520, Note_on_c, 0, 59, 54
4, 206640, Note_on_c, 0, 59, 0
4, 206640, Note_on_c, 0, 55, 55
4, 206760, Note_on_c, 0, 55, 0
4, 206760, Note_on_c, 0, 59, 55
4, 206880, Note_on_c, 0, 59, 0
4, 206880, Note_on_c, 0, 50, 55
4, 207000, Note_on_c, 0, 50, 0
4, 207120, Note_on_c, 0, 50, 56
4, 207240, Note_on_c, 0, 50, 0
4, 207360, Note_on_c, 0, 50, 64
4, 207360, Note_on_c, 0, 57, 64
4, 207360, Note_on_c, 0, 54, 64
4, 208320, Note_on_c, 0, 54, 0
4, 208320, Note_on_c, 0, 57, 0
4, 208320, Note_on_c, 0, 50, 0
4, 208320, Note_on_c, 0, 64, 66
4, 208440, Note_on_c, 0, 64, 0
4, 208440, Note_on_c, 0, 61, 59
4, 208560, Note_on_c, 0, 61, 0
4, 208560, Note_on_c, 0, 55, 59
4, 208680, Note_on_c, 0, 55, 0
4, 208680, Note_on_c, 0, 61, 60
4, 208800, Note_on_c, 0, 61, 0
4, 208800, Note_on_c, 0, 55, 60
4, 208800, Note_on_c, 0, 52, 60
4, 208920, Note_on_c, 0, 52, 0
4, 208920, Note_on_c, 0, 55, 0
4, 209040, Note_on_c, 0, 55, 60
4, 209040, Note_on_c, 0, 52, 60
4, 209160, Note_on_c, 0, 52, 0
4, 209160, Note_on_c, 0, 55, 0
4, 209280, Note_on_c, 0, 54, 61
4, 209400, Note_on_c, 0, 54, 0
4, 209400, Note_on_c, 0, 57, 61
4, 209520, Note_on_c, 0, 57, 0
4, 209520, Note_on_c, 0, 62, 62
4, 209640, Note_on_c, 0, 62, 0
4, 209640, Note_on_c, 0, 57, 62
4, 209760, Note_on_c, 0, 57, 0
4, 209760, Note_on_c, 0, 66, 62
4, 209880, Note_on_c, 0, 66, 0
4, 210000, Note_on_c, 0, 66, 63
4, 210120, Note_on_c, 0, 66, 0
4, 210240, Note_on_c, 0, 62, 63
4, 211200, Note_on_c, 0, 62, 0
4, 211200, Note_on_c, 0, 55, 66
4, 211320, Note_on_c, 0, 55, 0
4, 211320, Note_on_c, 0, 57, 66
4, 211440, Note_on_c, 0, 57, 0
4, 211440, Note_on_c, 0, 61, 66
4, 211560, Note_on_c, 0, 61, 0
4, 211560, Note_on_c, 0, 57, 67
4, 211680, Note_on_c, 0, 57, 0
4, 211680, Note_on_c, 0, 67, 67
4, 211800, Note_on_c, 0, 67, 0
4, 211920, Note_on_c, 0, 67, 68
4, 212040, Note_on_c, 0, 67, 0
4, 212160, Note_on_c, 0, 67, 68
4, 213120, Note_on_c, 0, 67, 0
4, 213120, Note_on_c, 0, 57, 70
4, 213240, Note_on_c, 0, 57, 0
4, 213240, Note_on_c, 0, 60, 71
4, 213360, Note_on_c, 0, 60, 0
4, 213360, Note_on_c, 0, 63, 71
4, 213480, Note_on_c, 0, 63, 0
4, 213480, Note_on_c, 0, 60, 71
4, 213600, Note_on_c, 0, 60, 0
4, 213600, Note_on_c, 0, 69, 72
4, 213720, Note_on_c, 0, 69, 0
4, 213840, Note_on_c, 0, 69, 72
4, 213960, Note_on_c, 0, 69, 0
4, 214080, Note_on_c, 0, 69, 80
4, 214800, Note_on_c, 0, 69, 0
4, 214800, Note_on_c, 0, 57, 75
4, 214920, Note_on_c, 0, 57, 0
4, 215040, Note_on_c, 0, 59, 74
4, 215520, Note_on_c, 0, 59, 0
4, 215520, Note_on_c, 0, 59, 69
4, 215520, Note_on_c, 0, 64, 69
4, 215520, Note_on_c, 0, 55, 69
4, 216000, Note_on_c, 0, 55, 0
4, 216000, Note_on_c, 0, 64, 0
4, 216000, Note_on_c, 0, 59, 0
4, 216000, Note_on_c, 0, 54, 64
4, 216000, Note_on_c, 0, 62, 64
4, 216000, Note_on_c, 0, 57, 64
4, 216480, Note_on_c, 0, 57, 0
4, 216480, Note_on_c, 0, 62, 0
4, 216480, Note_on_c, 0, 54, 0
4, 216480, Note_on_c, 0, 61, 59
4, 216480, Note_on_c, 0, 57, 59
4, 216480, Note_on_c, 0, 55, 59
4, 216960, Note_on_c, 0, 55, 0
4, 216960, Note_on_c, 0, 57, 0
4, 216960, Note_on_c, 0, 61, 0
4, 216960, Note_on_c, 0, 54, 54
4, 216960, Note_on_c, 0, 57, 54
4, 216960, Note_on_c, 0, 62, 54
4, 217440, Note_on_c, 0, 62, 0
4, 217440, Note_on_c, 0, 57, 0
4, 217440, Note_on_c, 0, 54, 0
4, 217920, Note_on_c, 0, 66, 57
4, 218040, Note_on_c, 0, 66, 0
4, 218040, Note_on_c, 0, 62, 57
4, 218160, Note_on_c, 0, 62, 0
4, 218160, Note_on_c, 0, 57, 58
4, 218280, Note_on_c, 0, 57, 0
4, 218280, Note_on_c, 0, 62, 58
4, 218400, Note_on_c, 0, 62, 0
4, 218400, Note_on_c, 0, 54, 59
4, 218520, Note_on_c, 0, 54, 0
4, 218640, Note_on_c, 0, 54, 59
4, 218760, Note_on_c, 0, 54, 0
4, 218880, Note_on_c, 0, 55, 60
4, 219360, Note_on_c, 0, 55, 0
4, 219840, Note_on_c, 0, 67, 63
4, 219960, Note_on_c, 0, 67, 0
4, 219960, Note_on_c, 0, 64, 64
4, 220080, Note_on_c, 0, 64, 0
4, 220080, Note_on_c, 0, 61, 64
4, 220200, Note_on_c, 0, 61, 0
4, 220200, Note_on_c, 0, 64, 65
4, 220320, Note_on_c, 0, 64, 0
4, 220320, Note_on_c, 0, 55, 65
4, 220440, Note_on_c, 0, 55, 0
4, 220560, Note_on_c, 0, 55, 66
4, 220680, Note_on_c, 0, 55, 0
4, 220800, Note_on_c, 0, 57, 67
4, 221280, Note_on_c, 0, 57, 0
4, 221760, Note_on_c, 0, 69, 70
4, 221880, Note_on_c, 0, 69, 0
4, 221880, Note_on_c, 0, 66, 70
4, 222000, Note_on_c, 0, 66, 0
4, 222000, Note_on_c, 0, 63, 71
4, 222120, Note_on_c, 0, 63, 0
4, 222120, Note_on_c, 0, 60, 71
4, 222240, Note_on_c, 0, 60, 0
4, 222240, Note_on_c, 0, 57, 72
4, 222360, Note_on_c, 0, 57, 0
4, 222480, Note_on_c, 0, 57, 72
4, 222600, Note_on_c, 0, 57, 0
4, 222720, Note_on_c, 0, 59, 77
4, 223200, Note_on_c, 0, 59, 0
4, 223200, Note_on_c, 0, 64, 72
4, 223200, Note_on_c, 0, 59, 72
4, 223200, Note_on_c, 0, 55, 72
4, 223680, Note_on_c, 0, 55, 0
4, 223680, Note_on_c, 0, 59, 0
4, 223680, Note_on_c, 0, 64, 0
4, 223680, Note_on_c, 0, 54, 68
4, 223680, Note_on_c, 0, 57, 68
4, 223680, Note_on_c, 0, 62, 68
4, 224160, Note_on_c, 0, 62, 0
4, 224160, Note_on_c, 0, 57, 0
4, 224160, Note_on_c, 0, 54, 0
4, 224160, Note_on_c, 0, 52, 63
4, 224160, Note_on_c, 0, 55, 63
4, 224160, Note_on_c, 0, 61, 63
4, 224640, Note_on_c, 0, 61, 0
4, 224640, Note_on_c, 0, 55, 0
4, 224640, Note_on_c, 0, 52, 0
4, 224640, Note_on_c, 0, 54, 58
4, 224760, Note_on_c, 0, 57, 58
4, 224880, Note_on_c, 0, 57, 0
4, 224880, Note_on_c, 0, 54, 0
4, 224880, Note_on_c, 0, 62, 58
4, 225000, Note_on_c, 0, 57, 58
4, 225120, Note_on_c, 0, 57, 0
4, 225120, Note_on_c, 0, 62, 0
4, 225120, Note_on_c, 0, 54, 58
4, 225240, Note_on_c, 0, 57, 59
4, 225360, Note_on_c, 0, 57, 0
4, 225360, Note_on_c, 0, 54, 0
4, 225360, Note_on_c, 0, 62, 59
4, 225480, Note_on_c, 0, 57, 59
4, 225600, Note_on_c, 0, 57, 0
4, 225600, Note_on_c, 0, 62, 0
4, 225600, Note_on_c, 0, 54, 60
4, 225720, Note_on_c, 0, 59, 60
4, 225840, Note_on_c, 0, 59, 0
4, 225840, Note_on_c, 0, 54, 0
4, 225840, Note_on_c, 0, 62, 60
4, 225960, Note_on_c, 0, 59, 60
4, 226080, Note_on_c, 0, 59, 0
4, 226080, Note_on_c, 0, 62, 0
4, 226080, Note_on_c, 0, 54, 60
4, 226200, Note_on_c, 0, 59, 60
4, 226320, Note_on_c, 0, 59, 0
4, 226320, Note_on_c, 0, 54, 0
4, 226320, Note_on_c, 0, 62, 61
4, 226440, Note_on_c, 0, 59, 61
4, 226560, Note_on_c, 0, 59, 0
4, 226560, Note_on_c, 0, 62, 0
4, 226560, Note_on_c, 0, 55, 61
4, 226680, Note_on_c, 0, 59, 61
4, 226800, Note_on_c, 0, 59, 0
4, 226800, Note_on_c, 0, 55, 0
4, 226800, Note_on_c, 0, 64, 61
4, 226920, Note_on_c, 0, 59, 61
4, 227040, Note_on_c, 0, 59, 0
4, 227040, Note_on_c, 0, 64, 0
4, 227040, Note_on_c, 0, 55, 62
4, 227160, Note_on_c, 0, 59, 62
4, 227280, Note_on_c, 0, 59, 0
4, 227280, Note_on_c, 0, 55, 0
4, 227280, Note_on_c, 0, 64, 62
4, 227400, Note_on_c, 0, 59, 62
4, 227520, Note_on_c, 0, 59, 0
4, 227520, Note_on_c, 0, 64, 0
4, 227520, Note_on_c, 0, 52, 62
4, 227640, Note_on_c, 0, 55, 63
4, 227760, Note_on_c, 0, 55, 0
4, 227760, Note_on_c, 0, 61, 63
4, 227767, Note_on_c, 0, 52, 0
4, 227880, Note_on_c, 0, 55, 63
4, 228000, Note_on_c, 0, 55, 0
4, 228000, Note_on_c, 0, 61, 0
4, 228000, Note_on_c, 0, 52, 63
4, 228120, Note_on_c, 0, 55, 63
4, 228240, Note_on_c, 0, 55, 0
4, 228240, Note_on_c, 0, 61, 63
4, 228247, Note_on_c, 0, 52, 0
4, 228360, Note_on_c, 0, 55, 64
4, 228480, Note_on_c, 0, 55, 0
4, 228480, Note_on_c, 0, 61, 0
4, 228480, Note_on_c, 0, 54, 64
4, 228600, Note_on_c, 0, 57, 64
4, 228720, Note_on_c, 0, 57, 0
4, 228720, Note_on_c, 0, 54, 0
4, 228720, Note_on_c, 0, 62, 64
4, 228840, Note_on_c, 0, 57, 64
4, 228960, Note_on_c, 0, 57, 0
4, 228960, Note_on_c, 0, 62, 0
4, 228960, Note_on_c, 0, 54, 65
4, 229080, Note_on_c, 0, 57, 65
4, 229200, Note_on_c, 0, 57, 0
4, 229200, Note_on_c, 0, 54, 0
4, 229200, Note_on_c, 0, 62, 65
4, 229320, Note_on_c, 0, 57, 65
4, 229440, Note_on_c, 0, 57, 0
4, 229440, Note_on_c, 0, 62, 0
4, 229440, Note_on_c, 0, 54, 65
4, 229560, Note_on_c, 0, 59, 65
4, 229680, Note_on_c, 0, 59, 0
4, 229680, Note_on_c, 0, 54, 0
4, 229680, Note_on_c, 0, 62, 66
4, 229800, Note_on_c, 0, 59, 66
4, 229920, Note_on_c, 0, 59, 0
4, 229920, Note_on_c, 0, 62, 0
4, 229920, Note_on_c, 0, 54, 66
4, 230040, Note_on_c, 0, 59, 66
4, 230160, Note_on_c, 0, 59, 0
4, 230160, Note_on_c, 0, 54, 0
4, 230160, Note_on_c, 0, 62, 66
4, 230280, Note_on_c, 0, 59, 67
4, 230400, Note_on_c, 0, 59, 0
4, 230400, Note_on_c, 0, 62, 0
4, 230400, Note_on_c, 0, 55, 67
4, 230520, Note_on_c, 0, 59, 67
4, 230640, Note_on_c, 0, 59, 0
4, 230640, Note_on_c, 0, 55, 0
4, 230640, Note_on_c, 0, 64, 67
4, 230760, Note_on_c, 0, 59, 67
4, 230880, Note_on_c, 0, 59, 0
4, 230880, Note_on_c, 0, 64, 0
4, 230880, Note_on_c, 0, 55, 67
4, 231000, Note_on_c, 0, 59, 68
4, 231120, Note_on_c, 0, 59, 0
4, 231120, Note_on_c, 0, 55, 0
4, 231120, Note_on_c, 0, 64, 68
4, 231240, Note_on_c, 0, 59, 68
4, 231360, Note_on_c, 0, 59, 0
4, 231360, Note_on_c, 0, 64, 0
4, 231360, Note_on_c, 0, 52, 68
4, 231480, Note_on_c, 0, 55, 68
4, 231600, Note_on_c, 0, 55, 0
4, 231600, Note_on_c, 0, 52, 0
4, 231600, Note_on_c, 0, 61, 69
4, 231720, Note_on_c, 0, 55, 69
4, 231840, Note_on_c, 0, 55, 0
4, 231840, Note_on_c, 0, 61, 0
4, 231840, Note_on_c, 0, 52, 69
4, 231960, Note_on_c, 0, 55, 69
4, 232080, Note_on_c, 0, 55, 0
4, 232080, Note_on_c, 0, 52, 0
4, 232080, Note_on_c, 0, 61, 69
4, 232200, Note_on_c, 0, 55, 69
4, 232320, Note_on_c, 0, 55, 0
4, 232320, Note_on_c, 0, 61, 0
4, 232320, Note_on_c, 0, 54, 70
4, 232440, Note_on_c, 0, 57, 70
4, 232560, Note_on_c, 0, 57, 0
4, 232560, Note_on_c, 0, 54, 0
4, 232560, Note_on_c, 0, 62, 70
4, 232680, Note_on_c, 0, 57, 70
4, 232800, Note_on_c, 0, 57, 0
4, 232800, Note_on_c, 0, 62, 0
4, 232800, Note_on_c, 0, 54, 70
4, 232920, Note_on_c, 0, 57, 71
4, 233040, Note_on_c, 0, 57, 0
4, 233040, Note_on_c, 0, 54, 0
4, 233040, Note_on_c, 0, 62, 71
4, 233160, Note_on_c, 0, 57, 71
4, 233280, Note_on_c, 0, 57, 0
4, 233280, Note_on_c, 0, 62, 0
4, 233280, Note_on_c, 0, 54, 71
4, 233400, Note_on_c, 0, 59, 71
4, 233520, Note_on_c, 0, 59, 0
4, 233520, Note_on_c, 0, 54, 0
4, 233520, Note_on_c, 0, 62, 71
4, 233640, Note_on_c, 0, 59, 72
4, 233760, Note_on_c, 0, 59, 0
4, 233760, Note_on_c, 0, 62, 0
4, 233760, Note_on_c, 0, 54, 72
4, 233880, Note_on_c, 0, 59, 72
4, 234000, Note_on_c, 0, 59, 0
4, 234000, Note_on_c, 0, 54, 0
4, 234000, Note_on_c, 0, 62, 72
4, 234120, Note_on_c, 0, 59, 72
4, 234240, Note_on_c, 0, 59, 0
4, 234240, Note_on_c, 0, 62, 0
4, 234240, Note_on_c, 0, 59, 80
4, 234240, Note_on_c, 0, 55, 80
4, 234240, Note_on_c, 0, 64, 80
4, 236160, Note_on_c, 0, 64, 0
4, 236160, Note_on_c, 0, 55, 0
4, 236160, Note_on_c, 0, 59, 0
4, 236160, Note_on_c, 0, 55, 73
4, 236160, Note_on_c, 0, 61, 73
4, 236160, Note_on_c, 0, 52, 73
4, 238080, Note_on_c, 0, 52, 0
4, 238080, Note_on_c, 0, 61, 0
4, 238080, Note_on_c, 0, 55, 0
4, 238080, Note_on_c, 0, 57, 63
4, 238080, Note_on_c, 0, 54, 63
4, 238080, Note_on_c, 0, 62, 63
4, 238560, Note_on_c, 0, 62, 0
4, 238560, Note_on_c, 0, 54, 0
4, 238560, Note_on_c, 0, 57, 0
4, 239040, Note_on_c, 0, 52, 65
4, 239040, Note_on_c, 0, 55, 65
4, 240000, Note_on_c, 0, 55, 0
4, 240000, Note_on_c, 0, 52, 0
4, 240000, Note_on_c, 0, 50, 60
4, 240000, Note_on_c, 0, 54, 60
4, 240960, Note_on_c, 0, 54, 0
4, 240960, Note_on_c, 0, 50, 0
4, 240960, Note_on_c, 0, 52, 69
4, 240960, Note_on_c, 0, 61, 69
4, 241680, Note_on_c, 0, 61, 0
4, 241680, Note_on_c, 0, 52, 0
4, 241680, Note_on_c, 0, 57, 62
4, 241920, Note_on_c, 0, 57, 0
4, 241920, Note_on_c, 0, 50, 60
4, 241920, Note_on_c, 0, 57, 60
4, 242400, Note_on_c, 0, 57, 0
4, 242400, Note_on_c, 0, 50, 0
4, 244800, Note_on_c, 0, 55, 65
4, 244800, Note_on_c, 0, 52, 65
4, 244800, Note_on_c, 0, 61, 65
4, 245760, Note_on_c, 0, 61, 0
4, 245760, Note_on_c, 0, 52, 0
4, 245760, Note_on_c, 0, 55, 0
4, 245760, Note_on_c, 0, 66, 56
4, 245760, Note_on_c, 0, 54, 56
4, 245760, Note_on_c, 0, 62, 56
4, 246000, Note_on_c, 0, 69, 56
4, 246000, Note_on_c, 0, 57, 56
4, 246240, Note_on_c, 0, 57, 0
4, 246240, Note_on_c, 0, 54, 0
4, 246240, Note_on_c, 0, 66, 0
4, 246240, Note_on_c, 0, 69, 0
4, 246240, Note_on_c, 0, 66, 55
4, 246240, Note_on_c, 0, 54, 55
4, 246480, Note_on_c, 0, 69, 55
4, 246480, Note_on_c, 0, 57, 55
4, 246720, Note_on_c, 0, 57, 0
4, 246720, Note_on_c, 0, 54, 0
4, 246720, Note_on_c, 0, 62, 0
4, 246720, Note_on_c, 0, 66, 0
4, 246720, Note_on_c, 0, 69, 0
4, 246720, Note_on_c, 0, 67, 55
4, 246720, Note_on_c, 0, 55, 55
4, 246720, Note_on_c, 0, 61, 55
4, 246960, Note_on_c, 0, 69, 55
4, 246960, Note_on_c, 0, 57, 55
4, 247200, Note_on_c, 0, 57, 0
4, 247200, Note_on_c, 0, 55, 0
4, 247200, Note_on_c, 0, 67, 0
4, 247200, Note_on_c, 0, 69, 0
4, 247200, Note_on_c, 0, 67, 54
4, 247200, Note_on_c, 0, 55, 54
4, 247440, Note_on_c, 0, 69, 54
4, 247440, Note_on_c, 0, 57, 54
4, 247680, Note_on_c, 0, 57, 0
4, 247680, Note_on_c, 0, 55, 0
4, 247680, Note_on_c, 0, 61, 0
4, 247680, Note_on_c, 0, 67, 0
4, 247680, Note_on_c, 0, 69, 0
4, 247680, Note_on_c, 0, 66, 56
4, 247680, Note_on_c, 0, 54, 56
4, 247680, Note_on_c, 0, 62, 56
4, 247920, Note_on_c, 0, 69, 57
4, 247920, Note_on_c, 0, 57, 57
4, 248160, Note_on_c, 0, 57, 0
4, 248160, Note_on_c, 0, 54, 0
4, 248160, Note_on_c, 0, 66, 0
4, 248160, Note_on_c, 0, 69, 0
4, 248160, Note_on_c, 0, 66, 58
4, 248160, Note_on_c, 0, 54, 58
4, 248400, Note_on_c, 0, 69, 57
4, 248400, Note_on_c, 0, 57, 58
4, 248640, Note_on_c, 0, 57, 0
4, 248640, Note_on_c, 0, 54, 0
4, 248640, Note_on_c, 0, 62, 0
4, 248640, Note_on_c, 0, 66, 0
4, 248640, Note_on_c, 0, 69, 0
4, 248640, Note_on_c, 0, 67, 57
4, 248640, Note_on_c, 0, 55, 57
4, 248640, Note_on_c, 0, 61, 57
4, 248880, Note_on_c, 0, 69, 57
4, 248880, Note_on_c, 0, 57, 57
4, 249120, Note_on_c, 0, 57, 0
4, 249120, Note_on_c, 0, 55, 0
4, 249120, Note_on_c, 0, 67, 0
4, 249120, Note_on_c, 0, 69, 0
4, 249120, Note_on_c, 0, 67, 56
4, 249120, Note_on_c, 0, 55, 56
4, 249360, Note_on_c, 0, 69, 55
4, 249360, Note_on_c, 0, 57, 55
4, 249600, Note_on_c, 0, 57, 0
4, 249600, Note_on_c, 0, 55, 0
4, 249600, Note_on_c, 0, 61, 0
4, 249600, Note_on_c, 0, 67, 0
4, 249600, Note_on_c, 0, 69, 0
4, 249600, Note_on_c, 0, 66, 54
4, 249600, Note_on_c, 0, 54, 54
4, 249600, Note_on_c, 0, 62, 54
4, 249840, Note_on_c, 0, 62, 0
4, 249840, Note_on_c, 0, 54, 0
4, 249840, Note_on_c, 0, 62, 54
4, 250080, Note_on_c, 0, 62, 0
4, 250080, Note_on_c, 0, 66, 0
4, 250080, Note_on_c, 0, 57, 53
4, 250320, Note_on_c, 0, 57, 0
4, 250320, Note_on_c, 0, 54, 52
4, 250560, Note_on_c, 0, 54, 0
4, 250560, Note_on_c, 0, 66, 51
4, 250560, Note_on_c, 0, 50, 51
4, 250800, Note_on_c, 0, 50, 0
4, 250800, Note_on_c, 0, 62, 52
4, 251040, Note_on_c, 0, 62, 0
4, 251040, Note_on_c, 0, 66, 0
4, 251040, Note_on_c, 0, 57, 50
4, 251280, Note_on_c, 0, 57, 0
4, 251280, Note_on_c, 0, 54, 47
4, 251520, Note_on_c, 0, 54, 0
4, 251520, Note_on_c, 0, 66, 45
4, 251520, Note_on_c, 0, 50, 45
4, 252000, Note_on_c, 0, 50, 0
4, 252000, Note_on_c, 0, 66, 0
4, 252000, End_track
5, 0, Start_track
5, 0, Title_t, "Piano"
5, 0, Control_c, 0, 0, 0
5, 0, Control_c, 0, 7, 115
5, 0, Control_c, 0, 10, 44
5, 0, Control_c, 0, 91, 91
5, 0, Control_c, 0, 93, 28
5, 0, Control_c, 0, 64, 0
5, 0, Control_c, 0, 1, 0
5, 0, Pitch_bend_c, 0, 8192
5, 1, Control_c, 0, 32, 0
5, 1, Program_c, 0, 0
5, 1920, Note_on_c, 0, 38, 57
5, 2880, Note_on_c, 0, 38, 0
5, 2880, Note_on_c, 0, 50, 61
5, 3840, Note_on_c, 0, 50, 0
5, 3840, Note_on_c, 0, 38, 65
5, 5760, Note_on_c, 0, 38, 0
5, 5760, Note_on_c, 0, 38, 65
5, 6720, Note_on_c, 0, 38, 0
5, 6720, Note_on_c, 0, 35, 62
5, 7200, Note_on_c, 0, 35, 0
5, 7200, Note_on_c, 0, 33, 65
5, 7680, Note_on_c, 0, 33, 0
5, 7680, Note_on_c, 0, 32, 68
5, 8640, Note_on_c, 0, 32, 0
5, 8640, Note_on_c, 0, 33, 61
5, 9120, Note_on_c, 0, 33, 0
5, 9120, Note_on_c, 0, 38, 60
5, 9600, Note_on_c, 0, 38, 0
5, 9600, Note_on_c, 0, 40, 59
5, 10560, Note_on_c, 0, 40, 0
5, 10560, Note_on_c, 0, 40, 58
5, 11520, Note_on_c, 0, 40, 0
5, 11520, Note_on_c, 0, 33, 58
5, 13440, Note_on_c, 0, 33, 0
5, 13440, Note_on_c, 0, 45, 61
5, 15360, Note_on_c, 0, 45, 0
5, 15360, Note_on_c, 0, 33, 65
5, 17280, Note_on_c, 0, 33, 0
5, 17280, Note_on_c, 0, 33, 64
5, 19200, Note_on_c, 0, 33, 0
5, 19200, Note_on_c, 0, 38, 63
5, 20160, Note_on_c, 0, 38, 0
5, 20160, Note_on_c, 0, 31, 62
5, 21120, Note_on_c, 0, 31, 0
5, 21120, Note_on_c, 0, 30, 61
5, 22080, Note_on_c, 0, 30, 0
5, 22080, Note_on_c, 0, 30, 60
5, 22560, Note_on_c, 0, 30, 0
5, 22560, Note_on_c, 0, 30, 60
5, 23040, Note_on_c, 0, 30, 0
5, 23040, Note_on_c, 0, 38, 60
5, 24480, Note_on_c, 0, 38, 0
5, 24480, Note_on_c, 0, 38, 63
5, 24960, Note_on_c, 0, 38, 0
5, 24960, Note_on_c, 0, 40, 64
5, 26400, Note_on_c, 0, 40, 0
5, 26400, Note_on_c, 0, 40, 67
5, 26880, Note_on_c, 0, 40, 0
5, 26880, Note_on_c, 0, 42, 68
5, 28320, Note_on_c, 0, 42, 0
5, 28320, Note_on_c, 0, 42, 71
5, 28800, Note_on_c, 0, 42, 0
5, 28800, Note_on_c, 0, 43, 72
5, 29760, Note_on_c, 0, 43, 0
5, 29760, Note_on_c, 0, 45, 77
5, 30240, Note_on_c, 0, 45, 0
5, 30240, Note_on_c, 0, 33, 73
5, 30720, Note_on_c, 0, 33, 0
5, 30720, Note_on_c, 0, 38, 67
5, 31200, Note_on_c, 0, 38, 0
5, 31200, Note_on_c, 0, 38, 58
5, 31680, Note_on_c, 0, 38, 0
5, 31680, Note_on_c, 0, 38, 49
5, 32047, Note_on_c, 0, 38, 0
5, 32640, Note_on_c, 0, 38, 55
5, 33120, Note_on_c, 0, 38, 0
5, 33600, Note_on_c, 0, 38, 59
5, 34080, Note_on_c, 0, 38, 0
5, 34560, Note_on_c, 0, 38, 61
5, 35040, Note_on_c, 0, 38, 0
5, 35520, Note_on_c, 0, 38, 61
5, 36000, Note_on_c, 0, 38, 0
5, 36480, Note_on_c, 0, 38, 60
5, 36960, Note_on_c, 0, 38, 0
5, 37440, Note_on_c, 0, 35, 59
5, 37920, Note_on_c, 0, 35, 0
5, 38400, Note_on_c, 0, 44, 58
5, 38880, Note_on_c, 0, 44, 0
5, 39360, Note_on_c, 0, 45, 57
5, 39840, Note_on_c, 0, 45, 0
5, 39840, Note_on_c, 0, 38, 57
5, 40320, Note_on_c, 0, 38, 0
5, 40320, Note_on_c, 0, 40, 56
5, 40800, Note_on_c, 0, 40, 0
5, 41280, Note_on_c, 0, 40, 56
5, 41760, Note_on_c, 0, 40, 0
5, 42240, Note_on_c, 0, 33, 53
5, 42360, Note_on_c, 0, 52, 57
5, 42480, Note_on_c, 0, 52, 0
5, 42480, Note_on_c, 0, 51, 56
5, 42600, Note_on_c, 0, 51, 0
5, 42600, Note_on_c, 0, 52, 55
5, 42720, Note_on_c, 0, 52, 0
5, 42720, Note_on_c, 0, 33, 0
5, 42720, Note_on_c, 0, 53, 54
5, 42720, Note_on_c, 0, 45, 54
5, 42840, Note_on_c, 0, 53, 0
5, 42840, Note_on_c, 0, 54, 52
5, 42960, Note_on_c, 0, 54, 0
5, 42960, Note_on_c, 0, 55, 51
5, 43080, Note_on_c, 0, 55, 0
5, 43080, Note_on_c, 0, 56, 50
5, 43200, Note_on_c, 0, 56, 0
5, 43200, Note_on_c, 0, 45, 0
5, 43200, Note_on_c, 0, 45, 48
5, 43200, Note_on_c, 0, 57, 48
5, 43680, Note_on_c, 0, 57, 0
5, 43680, Note_on_c, 0, 45, 0
5, 44160, Note_on_c, 0, 33, 53
5, 44640, Note_on_c, 0, 33, 0
5, 45120, Note_on_c, 0, 33, 56
5, 45600, Note_on_c, 0, 33, 0
5, 46080, Note_on_c, 0, 45, 61
5, 48000, Note_on_c, 0, 45, 0
5, 48000, Note_on_c, 0, 33, 59
5, 49920, Note_on_c, 0, 33, 0
5, 49920, Note_on_c, 0, 38, 57
5, 50400, Note_on_c, 0, 38, 0
5, 50880, Note_on_c, 0, 31, 56
5, 51360, Note_on_c, 0, 31, 0
5, 51840, Note_on_c, 0, 33, 55
5, 52320, Note_on_c, 0, 33, 0
5, 52800, Note_on_c, 0, 33, 54
5, 53280, Note_on_c, 0, 33, 0
5, 53280, Note_on_c, 0, 33, 54
5, 53760, Note_on_c, 0, 33, 0
5, 53760, Note_on_c, 0, 38, 56
5, 53880, Note_on_c, 0, 45, 57
5, 53958, Note_on_c, 0, 45, 0
5, 54000, Note_on_c, 0, 47, 57
5, 54078, Note_on_c, 0, 47, 0
5, 54120, Note_on_c, 0, 49, 58
5, 54198, Note_on_c, 0, 49, 0
5, 54240, Note_on_c, 0, 38, 0
5, 54240, Note_on_c, 0, 50, 59
5, 54318, Note_on_c, 0, 50, 0
5, 54360, Note_on_c, 0, 52, 60
5, 54438, Note_on_c, 0, 52, 0
5, 54480, Note_on_c, 0, 54, 61
5, 54558, Note_on_c, 0, 54, 0
5, 54600, Note_on_c, 0, 55, 61
5, 54678, Note_on_c, 0, 55, 0
5, 54720, Note_on_c, 0, 57, 64
5, 55200, Note_on_c, 0, 38, 60
5, 55680, Note_on_c, 0, 38, 0
5, 55680, Note_on_c, 0, 40, 60
5, 55758, Note_on_c, 0, 57, 0
5, 55800, Note_on_c, 0, 45, 61
5, 55878, Note_on_c, 0, 45, 0
5, 55920, Note_on_c, 0, 47, 62
5, 55998, Note_on_c, 0, 47, 0
5, 56040, Note_on_c, 0, 49, 62
5, 56118, Note_on_c, 0, 49, 0
5, 56160, Note_on_c, 0, 40, 0
5, 56160, Note_on_c, 0, 50, 63
5, 56238, Note_on_c, 0, 50, 0
5, 56280, Note_on_c, 0, 52, 64
5, 56358, Note_on_c, 0, 52, 0
5, 56400, Note_on_c, 0, 54, 64
5, 56478, Note_on_c, 0, 54, 0
5, 56520, Note_on_c, 0, 55, 65
5, 56598, Note_on_c, 0, 55, 0
5, 56640, Note_on_c, 0, 57, 68
5, 57120, Note_on_c, 0, 40, 63
5, 57600, Note_on_c, 0, 40, 0
5, 57600, Note_on_c, 0, 42, 62
5, 57678, Note_on_c, 0, 57, 0
5, 57720, Note_on_c, 0, 50, 63
5, 57798, Note_on_c, 0, 50, 0
5, 57840, Note_on_c, 0, 52, 63
5, 57918, Note_on_c, 0, 52, 0
5, 57960, Note_on_c, 0, 54, 64
5, 58038, Note_on_c, 0, 54, 0
5, 58080, Note_on_c, 0, 42, 0
5, 58080, Note_on_c, 0, 55, 65
5, 58158, Note_on_c, 0, 55, 0
5, 58200, Note_on_c, 0, 57, 66
5, 58278, Note_on_c, 0, 57, 0
5, 58320, Note_on_c, 0, 59, 66
5, 58398, Note_on_c, 0, 59, 0
5, 58440, Note_on_c, 0, 61, 67
5, 58518, Note_on_c, 0, 61, 0
5, 58560, Note_on_c, 0, 62, 70
5, 59040, Note_on_c, 0, 62, 0
5, 59040, Note_on_c, 0, 63, 72
5, 59040, Note_on_c, 0, 42, 72
5, 59040, Note_on_c, 0, 30, 72
5, 59520, Note_on_c, 0, 30, 0
5, 59520, Note_on_c, 0, 42, 0
5, 59520, Note_on_c, 0, 63, 0
5, 59520, Note_on_c, 0, 43, 67
5, 59520, Note_on_c, 0, 31, 67
5, 59520, Note_on_c, 0, 64, 67
5, 60000, Note_on_c, 0, 64, 0
5, 60000, Note_on_c, 0, 31, 0
5, 60000, Note_on_c, 0, 43, 0
5, 60000, Note_on_c, 0, 64, 67
5, 60480, Note_on_c, 0, 64, 0
5, 60480, Note_on_c, 0, 45, 65
5, 60480, Note_on_c, 0, 33, 65
5, 60960, Note_on_c, 0, 33, 0
5, 60960, Note_on_c, 0, 45, 0
5, 61440, Note_on_c, 0, 38, 60
5, 61920, Note_on_c, 0, 45, 58
5, 62880, Note_on_c, 0, 45, 0
5, 62880, Note_on_c, 0, 38, 0
5, 63360, Note_on_c, 0, 38, 55
5, 63600, Note_on_c, 0, 38, 0
5, 64080, Note_on_c, 0, 38, 55
5, 64200, Note_on_c, 0, 38, 0
5, 64320, Note_on_c, 0, 38, 56
5, 64560, Note_on_c, 0, 38, 0
5, 65040, Note_on_c, 0, 38, 57
5, 65160, Note_on_c, 0, 38, 0
5, 65280, Note_on_c, 0, 38, 57
5, 65520, Note_on_c, 0, 38, 0
5, 66000, Note_on_c, 0, 50, 58
5, 66120, Note_on_c, 0, 50, 0
5, 66240, Note_on_c, 0, 38, 58
5, 66480, Note_on_c, 0, 38, 0
5, 67200, Note_on_c, 0, 50, 60
5, 67440, Note_on_c, 0, 50, 0
5, 67920, Note_on_c, 0, 50, 61
5, 68040, Note_on_c, 0, 50, 0
5, 68160, Note_on_c, 0, 47, 61
5, 68400, Note_on_c, 0, 47, 0
5, 68880, Note_on_c, 0, 47, 62
5, 69000, Note_on_c, 0, 47, 0
5, 69120, Note_on_c, 0, 44, 62
5, 69360, Note_on_c, 0, 44, 0
5, 69840, Note_on_c, 0, 44, 63
5, 69960, Note_on_c, 0, 44, 0
5, 70080, Note_on_c, 0, 45, 63
5, 70320, Note_on_c, 0, 45, 0
5, 70800, Note_on_c, 0, 38, 64
5, 70920, Note_on_c, 0, 38, 0
5, 71040, Note_on_c, 0, 40, 65
5, 71280, Note_on_c, 0, 40, 0
5, 71760, Note_on_c, 0, 40, 66
5, 71880, Note_on_c, 0, 40, 0
5, 72000, Note_on_c, 0, 40, 66
5, 72240, Note_on_c, 0, 40, 0
5, 72720, Note_on_c, 0, 40, 67
5, 72840, Note_on_c, 0, 40, 0
5, 73080, Note_on_c, 0, 33, 66
5, 73200, Note_on_c, 0, 33, 0
5, 73200, Note_on_c, 0, 35, 65
5, 73320, Note_on_c, 0, 35, 0
5, 73320, Note_on_c, 0, 37, 64
5, 73440, Note_on_c, 0, 37, 0
5, 73440, Note_on_c, 0, 38, 63
5, 73560, Note_on_c, 0, 38, 0
5, 73560, Note_on_c, 0, 40, 62
5, 73680, Note_on_c, 0, 40, 0
5, 73680, Note_on_c, 0, 42, 61
5, 73800, Note_on_c, 0, 42, 0
5, 73800, Note_on_c, 0, 44, 60
5, 73920, Note_on_c, 0, 44, 0
5, 73920, Note_on_c, 0, 45, 59
5, 74400, Note_on_c, 0, 45, 0
5, 74880, Note_on_c, 0, 33, 54
5, 75120, Note_on_c, 0, 33, 0
5, 75600, Note_on_c, 0, 33, 55
5, 75720, Note_on_c, 0, 33, 0
5, 75840, Note_on_c, 0, 37, 55
5, 76080, Note_on_c, 0, 37, 0
5, 76560, Note_on_c, 0, 37, 56
5, 76680, Note_on_c, 0, 37, 0
5, 76800, Note_on_c, 0, 40, 57
5, 77040, Note_on_c, 0, 40, 0
5, 77520, Note_on_c, 0, 40, 58
5, 77640, Note_on_c, 0, 40, 0
5, 77760, Note_on_c, 0, 43, 58
5, 78000, Note_on_c, 0, 43, 0
5, 78480, Note_on_c, 0, 43, 60
5, 78600, Note_on_c, 0, 43, 0
5, 78720, Note_on_c, 0, 33, 65
5, 80640, Note_on_c, 0, 33, 0
5, 80640, Note_on_c, 0, 38, 63
5, 80880, Note_on_c, 0, 38, 0
5, 81360, Note_on_c, 0, 38, 62
5, 81480, Note_on_c, 0, 38, 0
5, 81600, Note_on_c, 0, 43, 62
5, 81600, Note_on_c, 0, 31, 62
5, 81840, Note_on_c, 0, 31, 0
5, 81840, Note_on_c, 0, 43, 0
5, 82320, Note_on_c, 0, 43, 60
5, 82320, Note_on_c, 0, 31, 60
5, 82440, Note_on_c, 0, 31, 0
5, 82440, Note_on_c, 0, 43, 0
5, 82560, Note_on_c, 0, 45, 60
5, 82560, Note_on_c, 0, 33, 60
5, 82800, Note_on_c, 0, 33, 0
5, 82800, Note_on_c, 0, 45, 0
5, 83280, Note_on_c, 0, 45, 59
5, 83400, Note_on_c, 0, 45, 0
5, 83520, Note_on_c, 0, 33, 58
5, 83760, Note_on_c, 0, 33, 0
5, 84240, Note_on_c, 0, 33, 57
5, 84360, Note_on_c, 0, 33, 0
5, 84480, Note_on_c, 0, 38, 58
5, 84720, Note_on_c, 0, 38, 0
5, 85200, Note_on_c, 0, 45, 59
5, 85320, Note_on_c, 0, 45, 0
5, 85440, Note_on_c, 0, 38, 60
5, 85680, Note_on_c, 0, 38, 0
5, 86160, Note_on_c, 0, 45, 61
5, 86280, Note_on_c, 0, 45, 0
5, 86400, Note_on_c, 0, 40, 62
5, 86640, Note_on_c, 0, 40, 0
5, 87120, Note_on_c, 0, 45, 63
5, 87240, Note_on_c, 0, 45, 0
5, 87360, Note_on_c, 0, 40, 64
5, 87600, Note_on_c, 0, 40, 0
5, 88080, Note_on_c, 0, 43, 65
5, 88200, Note_on_c, 0, 43, 0
5, 88320, Note_on_c, 0, 42, 66
5, 88560, Note_on_c, 0, 42, 0
5, 89040, Note_on_c, 0, 50, 67
5, 89160, Note_on_c, 0, 50, 0
5, 89280, Note_on_c, 0, 42, 68
5, 89520, Note_on_c, 0, 42, 0
5, 90000, Note_on_c, 0, 54, 69
5, 90000, Note_on_c, 0, 57, 69
5, 90120, Note_on_c, 0, 57, 0
5, 90120, Note_on_c, 0, 54, 0
5, 90240, Note_on_c, 0, 55, 70
5, 90240, Note_on_c, 0, 59, 70
5, 90480, Note_on_c, 0, 59, 0
5, 90480, Note_on_c, 0, 55, 0
5, 90960, Note_on_c, 0, 43, 71
5, 91080, Note_on_c, 0, 43, 0
5, 91200, Note_on_c, 0, 45, 72
5, 91440, Note_on_c, 0, 45, 0
5, 91920, Note_on_c, 0, 33, 73
5, 92040, Note_on_c, 0, 33, 0
5, 92160, Note_on_c, 0, 38, 77
5, 92640, Note_on_c, 0, 38, 0
5, 92640, Note_on_c, 0, 38, 70
5, 93120, Note_on_c, 0, 38, 0
5, 93120, Note_on_c, 0, 38, 63
5, 93472, Note_on_c, 0, 38, 0
5, 94080, Note_on_c, 0, 50, 57
5, 95040, Note_on_c, 0, 50, 0
5, 95040, Note_on_c, 0, 46, 65
5, 96000, Note_on_c, 0, 46, 0
5, 96000, Note_on_c, 0, 47, 57
5, 96960, Note_on_c, 0, 47, 0
5, 101280, Note_on_c, 0, 38, 64
5, 101760, Note_on_c, 0, 38, 0
5, 101760, Note_on_c, 0, 40, 65
5, 103200, Note_on_c, 0, 40, 0
5, 103200, Note_on_c, 0, 40, 62
5, 103680, Note_on_c, 0, 40, 0
5, 103680, Note_on_c, 0, 45, 61
5, 104160, Note_on_c, 0, 45, 0
5, 104160, Note_on_c, 0, 55, 65
5, 104400, Note_on_c, 0, 55, 0
5, 104400, Note_on_c, 0, 54, 62
5, 104640, Note_on_c, 0, 54, 0
5, 104640, Note_on_c, 0, 52, 61
5, 104880, Note_on_c, 0, 52, 0
5, 104880, Note_on_c, 0, 50, 59
5, 105120, Note_on_c, 0, 50, 0
5, 105120, Note_on_c, 0, 49, 57
5, 105360, Note_on_c, 0, 49, 0
5, 105360, Note_on_c, 0, 47, 56
5, 105600, Note_on_c, 0, 47, 0
5, 105600, Note_on_c, 0, 45, 54
5, 106080, Note_on_c, 0, 45, 0
5, 106560, Note_on_c, 0, 57, 58
5, 106800, Note_on_c, 0, 57, 0
5, 106800, Note_on_c, 0, 59, 60
5, 107040, Note_on_c, 0, 59, 0
5, 107040, Note_on_c, 0, 61, 61
5, 107280, Note_on_c, 0, 61, 0
5, 107280, Note_on_c, 0, 62, 63
5, 107520, Note_on_c, 0, 62, 0
5, 107520, Note_on_c, 0, 64, 67
5, 108000, Note_on_c, 0, 64, 0
5, 108000, Note_on_c, 0, 55, 66
5, 108240, Note_on_c, 0, 55, 0
5, 108240, Note_on_c, 0, 54, 66
5, 108480, Note_on_c, 0, 54, 0
5, 108480, Note_on_c, 0, 52, 65
5, 108720, Note_on_c, 0, 52, 0
5, 108720, Note_on_c, 0, 50, 65
5, 108960, Note_on_c, 0, 50, 0
5, 108960, Note_on_c, 0, 49, 64
5, 109200, Note_on_c, 0, 49, 0
5, 109200, Note_on_c, 0, 47, 63
5, 109440, Note_on_c, 0, 47, 0
5, 109440, Note_on_c, 0, 45, 63
5, 109920, Note_on_c, 0, 45, 0
5, 109920, Note_on_c, 0, 45, 62
5, 110400, Note_on_c, 0, 45, 0
5, 110400, Note_on_c, 0, 47, 60
5, 110880, Note_on_c, 0, 47, 0
5, 110880, Note_on_c, 0, 49, 59
5, 111120, Note_on_c, 0, 49, 0
5, 111120, Note_on_c, 0, 45, 58
5, 111360, Note_on_c, 0, 45, 0
5, 111360, Note_on_c, 0, 50, 58
5, 111840, Note_on_c, 0, 50, 0
5, 111840, Note_on_c, 0, 38, 57
5, 112320, Note_on_c, 0, 38, 0
5, 114240, Note_on_c, 0, 45, 53
5, 114720, Note_on_c, 0, 45, 0
5, 114720, Note_on_c, 0, 45, 52
5, 115200, Note_on_c, 0, 45, 0
5, 115200, Note_on_c, 0, 50, 51
5, 115440, Note_on_c, 0, 50, 0
5, 116400, Note_on_c, 0, 42, 63
5, 116556, Note_on_c, 0, 42, 0
5, 116640, Note_on_c, 0, 42, 64
5, 116796, Note_on_c, 0, 42, 0
5, 116880, Note_on_c, 0, 42, 65
5, 117036, Note_on_c, 0, 42, 0
5, 117120, Note_on_c, 0, 40, 71
5, 117600, Note_on_c, 0, 40, 0
5, 117600, Note_on_c, 0, 40, 67
5, 117840, Note_on_c, 0, 40, 0
5, 118320, Note_on_c, 0, 43, 67
5, 118476, Note_on_c, 0, 43, 0
5, 118560, Note_on_c, 0, 43, 70
5, 118716, Note_on_c, 0, 43, 0
5, 118800, Note_on_c, 0, 43, 73
5, 118956, Note_on_c, 0, 43, 0
5, 119040, Note_on_c, 0, 42, 78
5, 120240, Note_on_c, 0, 42, 0
5, 120240, Note_on_c, 0, 45, 77
5, 120480, Note_on_c, 0, 45, 0
5, 120480, Note_on_c, 0, 43, 78
5, 120720, Note_on_c, 0, 43, 0
5, 120720, Note_on_c, 0, 42, 79
5, 120960, Note_on_c, 0, 42, 0
5, 120960, Note_on_c, 0, 40, 80
5, 121200, Note_on_c, 0, 40, 0
5, 121200, Note_on_c, 0, 31, 81
5, 121680, Note_on_c, 0, 31, 0
5, 121680, Note_on_c, 0, 33, 89
5, 122160, Note_on_c, 0, 33, 0
5, 122160, Note_on_c, 0, 33, 86
5, 122400, Note_on_c, 0, 33, 0
5, 122400, Note_on_c, 0, 33, 81
5, 122640, Note_on_c, 0, 33, 0
5, 122640, Note_on_c, 0, 33, 75
5, 122880, Note_on_c, 0, 33, 0
5, 122880, Note_on_c, 0, 38, 70
5, 123120, Note_on_c, 0, 38, 0
5, 123120, Note_on_c, 0, 38, 62
5, 123360, Note_on_c, 0, 38, 0
5, 123360, Note_on_c, 0, 38, 58
5, 123600, Note_on_c, 0, 38, 0
5, 123600, Note_on_c, 0, 38, 55
5, 123840, Note_on_c, 0, 38, 0
5, 123840, Note_on_c, 0, 38, 51
5, 124080, Note_on_c, 0, 38, 0
5, 124320, Note_on_c, 0, 38, 74
5, 124424, Note_on_c, 0, 38, 0
5, 124480, Note_on_c, 0, 42, 74
5, 124584, Note_on_c, 0, 42, 0
5, 124640, Note_on_c, 0, 45, 74
5, 124740, Note_on_c, 0, 52, 74
5, 124744, Note_on_c, 0, 45, 0
5, 124800, Note_on_c, 0, 52, 0
5, 124800, Note_on_c, 0, 50, 74
5, 124904, Note_on_c, 0, 50, 0
5, 124960, Note_on_c, 0, 49, 74
5, 125064, Note_on_c, 0, 49, 0
5, 125120, Note_on_c, 0, 50, 74
5, 125224, Note_on_c, 0, 50, 0
5, 125280, Note_on_c, 0, 45, 75
5, 125384, Note_on_c, 0, 45, 0
5, 125440, Note_on_c, 0, 50, 75
5, 125544, Note_on_c, 0, 50, 0
5, 125600, Note_on_c, 0, 52, 75
5, 125704, Note_on_c, 0, 52, 0
5, 125760, Note_on_c, 0, 54, 75
5, 125864, Note_on_c, 0, 54, 0
5, 125920, Note_on_c, 0, 50, 75
5, 126024, Note_on_c, 0, 50, 0
5, 126080, Note_on_c, 0, 45, 75
5, 126184, Note_on_c, 0, 45, 0
5, 126240, Note_on_c, 0, 43, 75
5, 126344, Note_on_c, 0, 43, 0
5, 126400, Note_on_c, 0, 49, 76
5, 126504, Note_on_c, 0, 49, 0
5, 126560, Note_on_c, 0, 52, 76
5, 126664, Note_on_c, 0, 52, 0
5, 126720, Note_on_c, 0, 42, 76
5, 126824, Note_on_c, 0, 42, 0
5, 126880, Note_on_c, 0, 45, 76
5, 126984, Note_on_c, 0, 45, 0
5, 127040, Note_on_c, 0, 52, 76
5, 127144, Note_on_c, 0, 52, 0
5, 127200, Note_on_c, 0, 42, 76
5, 127304, Note_on_c, 0, 42, 0
5, 127360, Note_on_c, 0, 45, 76
5, 127464, Note_on_c, 0, 45, 0
5, 127520, Note_on_c, 0, 50, 77
5, 127624, Note_on_c, 0, 50, 0
5, 127680, Note_on_c, 0, 40, 77
5, 127784, Note_on_c, 0, 40, 0
5, 127840, Note_on_c, 0, 43, 77
5, 127944, Note_on_c, 0, 43, 0
5, 128000, Note_on_c, 0, 50, 77
5, 128104, Note_on_c, 0, 50, 0
5, 128160, Note_on_c, 0, 40, 77
5, 128264, Note_on_c, 0, 40, 0
5, 128320, Note_on_c, 0, 43, 77
5, 128424, Note_on_c, 0, 43, 0
5, 128480, Note_on_c, 0, 49, 78
5, 128584, Note_on_c, 0, 49, 0
5, 128640, Note_on_c, 0, 38, 78
5, 128744, Note_on_c, 0, 38, 0
5, 128800, Note_on_c, 0, 49, 78
5, 128904, Note_on_c, 0, 49, 0
5, 128960, Note_on_c, 0, 50, 78
5, 129064, Note_on_c, 0, 50, 0
5, 129120, Note_on_c, 0, 47, 78
5, 129224, Note_on_c, 0, 47, 0
5, 129280, Note_on_c, 0, 50, 78
5, 129384, Note_on_c, 0, 50, 0
5, 129440, Note_on_c, 0, 54, 78
5, 129544, Note_on_c, 0, 54, 0
5, 129600, Note_on_c, 0, 59, 79
5, 129704, Note_on_c, 0, 59, 0
5, 129760, Note_on_c, 0, 58, 79
5, 129864, Note_on_c, 0, 58, 0
5, 129920, Note_on_c, 0, 59, 79
5, 130024, Note_on_c, 0, 59, 0
5, 130080, Note_on_c, 0, 47, 79
5, 130184, Note_on_c, 0, 47, 0
5, 130240, Note_on_c, 0, 59, 79
5, 130344, Note_on_c, 0, 59, 0
5, 130400, Note_on_c, 0, 57, 79
5, 130504, Note_on_c, 0, 57, 0
5, 130560, Note_on_c, 0, 56, 80
5, 130664, Note_on_c, 0, 56, 0
5, 130720, Note_on_c, 0, 57, 80
5, 130824, Note_on_c, 0, 57, 0
5, 130880, Note_on_c, 0, 56, 80
5, 130984, Note_on_c, 0, 56, 0
5, 131040, Note_on_c, 0, 54, 80
5, 131144, Note_on_c, 0, 54, 0
5, 131200, Note_on_c, 0, 52, 80
5, 131304, Note_on_c, 0, 52, 0
5, 131360, Note_on_c, 0, 50, 80
5, 131464, Note_on_c, 0, 50, 0
5, 131520, Note_on_c, 0, 49, 80
5, 131624, Note_on_c, 0, 49, 0
5, 131680, Note_on_c, 0, 47, 81
5, 131784, Note_on_c, 0, 47, 0
5, 131840, Note_on_c, 0, 45, 81
5, 131944, Note_on_c, 0, 45, 0
5, 132000, Note_on_c, 0, 38, 81
5, 132104, Note_on_c, 0, 38, 0
5, 132160, Note_on_c, 0, 42, 81
5, 132264, Note_on_c, 0, 42, 0
5, 132320, Note_on_c, 0, 47, 81
5, 132424, Note_on_c, 0, 47, 0
5, 132480, Note_on_c, 0, 40, 81
5, 132584, Note_on_c, 0, 40, 0
5, 132640, Note_on_c, 0, 45, 82
5, 132744, Note_on_c, 0, 45, 0
5, 132800, Note_on_c, 0, 49, 82
5, 132904, Note_on_c, 0, 49, 0
5, 132960, Note_on_c, 0, 52, 82
5, 133064, Note_on_c, 0, 52, 0
5, 133120, Note_on_c, 0, 52, 82
5, 133224, Note_on_c, 0, 52, 0
5, 133280, Note_on_c, 0, 52, 82
5, 133384, Note_on_c, 0, 52, 0
5, 133440, Note_on_c, 0, 40, 82
5, 133544, Note_on_c, 0, 40, 0
5, 133600, Note_on_c, 0, 40, 82
5, 133704, Note_on_c, 0, 40, 0
5, 133760, Note_on_c, 0, 40, 83
5, 133864, Note_on_c, 0, 40, 0
5, 133920, Note_on_c, 0, 40, 83
5, 134024, Note_on_c, 0, 40, 0
5, 134080, Note_on_c, 0, 40, 83
5, 134184, Note_on_c, 0, 40, 0
5, 134240, Note_on_c, 0, 40, 83
5, 134344, Note_on_c, 0, 40, 0
5, 134400, Note_on_c, 0, 33, 83
5, 134712, Note_on_c, 0, 33, 0
5, 135840, Note_on_c, 0, 33, 74
5, 135944, Note_on_c, 0, 33, 0
5, 136000, Note_on_c, 0, 37, 74
5, 136104, Note_on_c, 0, 37, 0
5, 136160, Note_on_c, 0, 40, 74
5, 136264, Note_on_c, 0, 40, 0
5, 136320, Note_on_c, 0, 45, 72
5, 136424, Note_on_c, 0, 45, 0
5, 136480, Note_on_c, 0, 49, 72
5, 136584, Note_on_c, 0, 49, 0
5, 136640, Note_on_c, 0, 52, 72
5, 136744, Note_on_c, 0, 52, 0
5, 136800, Note_on_c, 0, 55, 72
5, 136904, Note_on_c, 0, 55, 0
5, 136960, Note_on_c, 0, 55, 72
5, 137064, Note_on_c, 0, 55, 0
5, 137120, Note_on_c, 0, 55, 73
5, 137224, Note_on_c, 0, 55, 0
5, 137280, Note_on_c, 0, 55, 73
5, 137384, Note_on_c, 0, 55, 0
5, 137440, Note_on_c, 0, 55, 73
5, 137544, Note_on_c, 0, 55, 0
5, 137600, Note_on_c, 0, 55, 73
5, 137704, Note_on_c, 0, 55, 0
5, 137760, Note_on_c, 0, 57, 73
5, 137760, Note_on_c, 0, 55, 73
5, 137864, Note_on_c, 0, 55, 0
5, 137864, Note_on_c, 0, 57, 0
5, 137920, Note_on_c, 0, 54, 74
5, 138024, Note_on_c, 0, 54, 0
5, 138080, Note_on_c, 0, 52, 74
5, 138184, Note_on_c, 0, 52, 0
5, 138240, Note_on_c, 0, 50, 74
5, 138344, Note_on_c, 0, 50, 0
5, 138400, Note_on_c, 0, 49, 74
5, 138504, Note_on_c, 0, 49, 0
5, 138560, Note_on_c, 0, 47, 74
5, 138664, Note_on_c, 0, 47, 0
5, 138720, Note_on_c, 0, 45, 75
5, 138824, Note_on_c, 0, 45, 0
5, 138880, Note_on_c, 0, 43, 75
5, 138984, Note_on_c, 0, 43, 0
5, 139040, Note_on_c, 0, 42, 75
5, 139144, Note_on_c, 0, 42, 0
5, 139200, Note_on_c, 0, 40, 75
5, 139304, Note_on_c, 0, 40, 0
5, 139360, Note_on_c, 0, 38, 75
5, 139464, Note_on_c, 0, 38, 0
5, 139520, Note_on_c, 0, 37, 76
5, 139624, Note_on_c, 0, 37, 0
5, 139680, Note_on_c, 0, 35, 76
5, 139784, Note_on_c, 0, 35, 0
5, 139840, Note_on_c, 0, 33, 76
5, 139944, Note_on_c, 0, 33, 0
5, 140000, Note_on_c, 0, 33, 76
5, 140104, Note_on_c, 0, 33, 0
5, 140160, Note_on_c, 0, 33, 76
5, 140264, Note_on_c, 0, 33, 0
5, 140320, Note_on_c, 0, 45, 77
5, 140424, Note_on_c, 0, 45, 0
5, 140480, Note_on_c, 0, 45, 77
5, 140584, Note_on_c, 0, 45, 0
5, 140640, Note_on_c, 0, 45, 77
5, 140744, Note_on_c, 0, 45, 0
5, 140800, Note_on_c, 0, 45, 77
5, 140904, Note_on_c, 0, 45, 0
5, 140960, Note_on_c, 0, 45, 77
5, 141064, Note_on_c, 0, 45, 0
5, 141120, Note_on_c, 0, 33, 78
5, 141224, Note_on_c, 0, 33, 0
5, 141280, Note_on_c, 0, 45, 78
5, 141384, Note_on_c, 0, 45, 0
5, 141440, Note_on_c, 0, 45, 78
5, 141544, Note_on_c, 0, 45, 0
5, 141600, Note_on_c, 0, 45, 78
5, 141704, Note_on_c, 0, 45, 0
5, 141760, Note_on_c, 0, 47, 78
5, 141864, Note_on_c, 0, 47, 0
5, 141920, Note_on_c, 0, 49, 78
5, 142024, Note_on_c, 0, 49, 0
5, 142080, Note_on_c, 0, 50, 88
5, 142184, Note_on_c, 0, 50, 0
5, 142240, Note_on_c, 0, 38, 81
5, 142344, Note_on_c, 0, 38, 0
5, 142400, Note_on_c, 0, 38, 79
5, 142504, Note_on_c, 0, 38, 0
5, 142560, Note_on_c, 0, 38, 79
5, 142664, Note_on_c, 0, 38, 0
5, 142720, Note_on_c, 0, 40, 79
5, 142824, Note_on_c, 0, 40, 0
5, 142880, Note_on_c, 0, 42, 80
5, 142984, Note_on_c, 0, 42, 0
5, 143040, Note_on_c, 0, 31, 92
5, 143144, Note_on_c, 0, 31, 0
5, 143200, Note_on_c, 0, 43, 80
5, 143304, Note_on_c, 0, 43, 0
5, 143360, Note_on_c, 0, 43, 80
5, 143464, Note_on_c, 0, 43, 0
5, 143520, Note_on_c, 0, 43, 80
5, 143624, Note_on_c, 0, 43, 0
5, 143680, Note_on_c, 0, 43, 81
5, 143784, Note_on_c, 0, 43, 0
5, 143840, Note_on_c, 0, 43, 81
5, 143944, Note_on_c, 0, 43, 0
5, 144000, Note_on_c, 0, 32, 93
5, 144104, Note_on_c, 0, 32, 0
5, 144160, Note_on_c, 0, 44, 81
5, 144264, Note_on_c, 0, 44, 0
5, 144320, Note_on_c, 0, 44, 81
5, 144424, Note_on_c, 0, 44, 0
5, 144480, Note_on_c, 0, 33, 82
5, 144584, Note_on_c, 0, 33, 0
5, 144640, Note_on_c, 0, 45, 82
5, 144744, Note_on_c, 0, 45, 0
5, 144800, Note_on_c, 0, 45, 82
5, 144904, Note_on_c, 0, 45, 0
5, 144960, Note_on_c, 0, 33, 95
5, 145064, Note_on_c, 0, 33, 0
5, 145120, Note_on_c, 0, 45, 82
5, 145224, Note_on_c, 0, 45, 0
5, 145280, Note_on_c, 0, 45, 83
5, 145384, Note_on_c, 0, 45, 0
5, 145440, Note_on_c, 0, 33, 83
5, 145544, Note_on_c, 0, 33, 0
5, 145600, Note_on_c, 0, 45, 83
5, 145704, Note_on_c, 0, 45, 0
5, 145760, Note_on_c, 0, 45, 83
5, 145864, Note_on_c, 0, 45, 0
5, 145920, Note_on_c, 0, 38, 83
5, 146024, Note_on_c, 0, 38, 0
5, 148000, Note_on_c, 0, 55, 74
5, 148104, Note_on_c, 0, 55, 0
5, 148160, Note_on_c, 0, 54, 74
5, 148264, Note_on_c, 0, 54, 0
5, 148320, Note_on_c, 0, 52, 75
5, 148424, Note_on_c, 0, 52, 0
5, 148480, Note_on_c, 0, 52, 75
5, 148640, Note_on_c, 0, 52, 0
5, 148640, Note_on_c, 0, 50, 75
5, 148744, Note_on_c, 0, 50, 0
5, 148800, Note_on_c, 0, 49, 75
5, 148904, Note_on_c, 0, 49, 0
5, 148960, Note_on_c, 0, 49, 75
5, 149120, Note_on_c, 0, 49, 0
5, 149120, Note_on_c, 0, 47, 76
5, 149224, Note_on_c, 0, 47, 0
5, 149280, Note_on_c, 0, 45, 76
5, 149384, Note_on_c, 0, 45, 0
5, 149440, Note_on_c, 0, 45, 76
5, 149600, Note_on_c, 0, 45, 0
5, 149600, Note_on_c, 0, 43, 76
5, 149704, Note_on_c, 0, 43, 0
5, 149760, Note_on_c, 0, 42, 76
5, 149864, Note_on_c, 0, 42, 0
5, 149920, Note_on_c, 0, 45, 77
5, 150024, Note_on_c, 0, 45, 0
5, 150080, Note_on_c, 0, 43, 77
5, 150184, Note_on_c, 0, 43, 0
5, 150240, Note_on_c, 0, 42, 77
5, 150344, Note_on_c, 0, 42, 0
5, 150400, Note_on_c, 0, 42, 77
5, 150504, Note_on_c, 0, 42, 0
5, 150560, Note_on_c, 0, 40, 77
5, 150664, Note_on_c, 0, 40, 0
5, 150720, Note_on_c, 0, 39, 78
5, 150824, Note_on_c, 0, 39, 0
5, 150880, Note_on_c, 0, 35, 78
5, 150984, Note_on_c, 0, 35, 0
5, 151040, Note_on_c, 0, 35, 78
5, 151144, Note_on_c, 0, 35, 0
5, 151200, Note_on_c, 0, 35, 78
5, 151304, Note_on_c, 0, 35, 0
5, 151360, Note_on_c, 0, 37, 78
5, 151464, Note_on_c, 0, 37, 0
5, 151520, Note_on_c, 0, 39, 79
5, 151624, Note_on_c, 0, 39, 0
5, 151680, Note_on_c, 0, 40, 79
5, 151784, Note_on_c, 0, 40, 0
5, 151840, Note_on_c, 0, 40, 79
5, 151944, Note_on_c, 0, 40, 0
5, 152000, Note_on_c, 0, 40, 79
5, 152104, Note_on_c, 0, 40, 0
5, 152160, Note_on_c, 0, 40, 80
5, 152264, Note_on_c, 0, 40, 0
5, 152320, Note_on_c, 0, 42, 80
5, 152424, Note_on_c, 0, 42, 0
5, 152480, Note_on_c, 0, 43, 80
5, 152584, Note_on_c, 0, 43, 0
5, 152640, Note_on_c, 0, 45, 80
5, 152744, Note_on_c, 0, 45, 0
5, 152800, Note_on_c, 0, 33, 80
5, 152904, Note_on_c, 0, 33, 0
5, 152960, Note_on_c, 0, 33, 81
5, 153064, Note_on_c, 0, 33, 0
5, 153120, Note_on_c, 0, 33, 81
5, 153432, Note_on_c, 0, 33, 0
5, 153760, Note_on_c, 0, 38, 79
5, 153864, Note_on_c, 0, 38, 0
5, 153920, Note_on_c, 0, 50, 77
5, 154024, Note_on_c, 0, 50, 0
5, 154080, Note_on_c, 0, 50, 75
5, 154184, Note_on_c, 0, 50, 0
5, 154240, Note_on_c, 0, 50, 74
5, 154344, Note_on_c, 0, 50, 0
5, 154400, Note_on_c, 0, 50, 72
5, 154504, Note_on_c, 0, 50, 0
5, 154560, Note_on_c, 0, 50, 70
5, 154800, Note_on_c, 0, 50, 0
5, 155040, Control_c, 0, 7, 97
5, 155520, Note_on_c, 0, 38, 46
5, 155760, Note_on_c, 0, 38, 0
5, 155760, Note_on_c, 0, 38, 48
5, 156000, Note_on_c, 0, 38, 0
5, 156000, Note_on_c, 0, 38, 49
5, 156240, Note_on_c, 0, 38, 0
5, 156240, Note_on_c, 0, 38, 50
5, 156480, Note_on_c, 0, 38, 0
5, 156480, Note_on_c, 0, 38, 51
5, 156720, Note_on_c, 0, 38, 0
5, 156720, Note_on_c, 0, 38, 53
5, 156960, Note_on_c, 0, 38, 0
5, 156960, Note_on_c, 0, 38, 54
5, 157200, Note_on_c, 0, 38, 0
5, 157200, Note_on_c, 0, 38, 55
5, 157440, Note_on_c, 0, 38, 0
5, 157440, Note_on_c, 0, 38, 57
5, 157680, Note_on_c, 0, 38, 0
5, 157680, Note_on_c, 0, 38, 57
5, 157920, Note_on_c, 0, 38, 0
5, 157920, Note_on_c, 0, 38, 56
5, 158160, Note_on_c, 0, 38, 0
5, 158160, Note_on_c, 0, 38, 56
5, 158400, Note_on_c, 0, 38, 0
5, 158400, Note_on_c, 0, 38, 55
5, 158640, Note_on_c, 0, 38, 0
5, 158640, Note_on_c, 0, 38, 55
5, 158880, Note_on_c, 0, 38, 0
5, 158880, Note_on_c, 0, 38, 54
5, 159120, Note_on_c, 0, 38, 0
5, 159120, Note_on_c, 0, 38, 54
5, 159360, Note_on_c, 0, 38, 0
5, 159360, Note_on_c, 0, 38, 54
5, 159600, Note_on_c, 0, 38, 0
5, 159600, Note_on_c, 0, 38, 53
5, 159840, Note_on_c, 0, 38, 0
5, 159840, Note_on_c, 0, 38, 53
5, 160080, Note_on_c, 0, 38, 0
5, 160080, Note_on_c, 0, 38, 52
5, 160320, Note_on_c, 0, 38, 0
5, 160320, Note_on_c, 0, 34, 51
5, 160560, Note_on_c, 0, 34, 0
5, 160560, Note_on_c, 0, 34, 54
5, 160800, Note_on_c, 0, 34, 0
5, 160800, Note_on_c, 0, 33, 56
5, 161040, Note_on_c, 0, 33, 0
5, 161040, Note_on_c, 0, 33, 58
5, 161280, Note_on_c, 0, 33, 0
5, 161280, Note_on_c, 0, 32, 60
5, 161520, Note_on_c, 0, 32, 0
5, 161520, Note_on_c, 0, 32, 63
5, 161760, Note_on_c, 0, 32, 0
5, 161760, Note_on_c, 0, 32, 68
5, 162000, Note_on_c, 0, 32, 0
5, 162000, Note_on_c, 0, 32, 63
5, 162240, Note_on_c, 0, 32, 0
5, 162240, Note_on_c, 0, 33, 63
5, 162480, Note_on_c, 0, 33, 0
5, 162480, Note_on_c, 0, 33, 63
5, 162720, Note_on_c, 0, 33, 0
5, 162720, Note_on_c, 0, 38, 62
5, 162960, Note_on_c, 0, 38, 0
5, 162960, Note_on_c, 0, 38, 62
5, 163200, Note_on_c, 0, 38, 0
5, 163200, Note_on_c, 0, 39, 62
5, 163440, Note_on_c, 0, 39, 0
5, 163440, Note_on_c, 0, 39, 61
5, 163680, Note_on_c, 0, 39, 0
5, 163680, Note_on_c, 0, 40, 61
5, 163920, Note_on_c, 0, 40, 0
5, 163920, Note_on_c, 0, 40, 61
5, 164160, Note_on_c, 0, 40, 0
5, 164160, Note_on_c, 0, 40, 60
5, 164400, Note_on_c, 0, 40, 0
5, 164400, Note_on_c, 0, 40, 60
5, 164640, Note_on_c, 0, 40, 0
5, 164640, Note_on_c, 0, 40, 60
5, 164880, Note_on_c, 0, 40, 0
5, 164880, Note_on_c, 0, 40, 60
5, 165120, Note_on_c, 0, 40, 0
5, 165120, Note_on_c, 0, 33, 59
5, 165360, Note_on_c, 0, 45, 59
5, 165600, Note_on_c, 0, 45, 0
5, 165600, Note_on_c, 0, 45, 59
5, 165840, Note_on_c, 0, 45, 0
5, 165840, Note_on_c, 0, 45, 58
5, 166080, Note_on_c, 0, 45, 0
5, 166080, Note_on_c, 0, 45, 58
5, 166320, Note_on_c, 0, 45, 0
5, 166320, Note_on_c, 0, 45, 58
5, 166560, Note_on_c, 0, 45, 0
5, 166560, Note_on_c, 0, 45, 57
5, 166800, Note_on_c, 0, 45, 0
5, 166800, Note_on_c, 0, 45, 57
5, 167040, Note_on_c, 0, 45, 0
5, 167040, Note_on_c, 0, 33, 0
5, 167040, Note_on_c, 0, 33, 57
5, 167280, Note_on_c, 0, 33, 0
5, 167280, Note_on_c, 0, 33, 56
5, 167520, Note_on_c, 0, 33, 0
5, 167520, Note_on_c, 0, 33, 56
5, 167760, Note_on_c, 0, 33, 0
5, 167760, Note_on_c, 0, 33, 56
5, 168000, Note_on_c, 0, 33, 0
5, 168000, Note_on_c, 0, 33, 55
5, 168240, Note_on_c, 0, 33, 0
5, 168240, Note_on_c, 0, 33, 55
5, 168480, Note_on_c, 0, 33, 0
5, 168480, Note_on_c, 0, 33, 55
5, 168720, Note_on_c, 0, 33, 0
5, 168720, Note_on_c, 0, 33, 54
5, 168960, Note_on_c, 0, 33, 0
5, 168960, Note_on_c, 0, 33, 54
5, 169200, Note_on_c, 0, 33, 0
5, 169200, Note_on_c, 0, 33, 54
5, 169440, Note_on_c, 0, 33, 0
5, 169440, Note_on_c, 0, 33, 53
5, 169680, Note_on_c, 0, 33, 0
5, 169680, Note_on_c, 0, 33, 53
5, 169920, Note_on_c, 0, 33, 0
5, 169920, Note_on_c, 0, 33, 54
5, 170160, Note_on_c, 0, 33, 0
5, 170160, Note_on_c, 0, 33, 54
5, 170400, Note_on_c, 0, 33, 0
5, 170400, Note_on_c, 0, 33, 55
5, 170640, Note_on_c, 0, 33, 0
5, 170640, Note_on_c, 0, 33, 55
5, 170880, Note_on_c, 0, 33, 0
5, 170880, Note_on_c, 0, 33, 56
5, 171120, Note_on_c, 0, 33, 0
5, 171120, Note_on_c, 0, 33, 56
5, 171360, Note_on_c, 0, 33, 0
5, 171360, Note_on_c, 0, 33, 56
5, 171600, Note_on_c, 0, 33, 0
5, 171600, Note_on_c, 0, 33, 57
5, 171840, Note_on_c, 0, 33, 0
5, 171840, Note_on_c, 0, 35, 57
5, 172080, Note_on_c, 0, 35, 0
5, 172080, Note_on_c, 0, 35, 58
5, 172320, Note_on_c, 0, 35, 0
5, 172320, Note_on_c, 0, 37, 58
5, 172560, Note_on_c, 0, 37, 0
5, 172560, Note_on_c, 0, 37, 59
5, 172800, Note_on_c, 0, 37, 0
5, 172800, Note_on_c, 0, 38, 58
5, 173040, Note_on_c, 0, 38, 0
5, 173040, Note_on_c, 0, 38, 59
5, 173280, Note_on_c, 0, 38, 0
5, 173280, Note_on_c, 0, 38, 61
5, 173520, Note_on_c, 0, 38, 0
5, 173520, Note_on_c, 0, 38, 62
5, 173760, Note_on_c, 0, 38, 0
5, 173760, Note_on_c, 0, 31, 63
5, 174000, Note_on_c, 0, 31, 0
5, 174000, Note_on_c, 0, 31, 64
5, 174240, Note_on_c, 0, 31, 0
5, 174240, Note_on_c, 0, 31, 66
5, 174480, Note_on_c, 0, 31, 0
5, 174480, Note_on_c, 0, 31, 67
5, 174720, Note_on_c, 0, 31, 0
5, 174720, Note_on_c, 0, 32, 74
5, 174960, Note_on_c, 0, 32, 0
5, 174960, Note_on_c, 0, 32, 64
5, 175200, Note_on_c, 0, 32, 0
5, 175200, Note_on_c, 0, 32, 63
5, 175440, Note_on_c, 0, 32, 0
5, 175440, Note_on_c, 0, 32, 61
5, 175680, Note_on_c, 0, 32, 0
5, 175680, Note_on_c, 0, 33, 59
5, 175920, Note_on_c, 0, 33, 0
5, 175920, Note_on_c, 0, 33, 57
5, 176160, Note_on_c, 0, 33, 0
5, 176160, Note_on_c, 0, 33, 56
5, 176400, Note_on_c, 0, 33, 0
5, 176400, Note_on_c, 0, 33, 54
5, 176640, Note_on_c, 0, 33, 0
5, 176640, Control_c, 0, 7, 122
5, 176640, Note_on_c, 0, 38, 52
5, 177280, Note_on_c, 0, 41, 57
5, 177285, Note_on_c, 0, 38, 0
5, 177440, Note_on_c, 0, 41, 0
5, 177440, Note_on_c, 0, 45, 57
5, 177600, Note_on_c, 0, 45, 0
5, 177600, Note_on_c, 0, 50, 58
5, 178560, Note_on_c, 0, 50, 0
5, 178560, Note_on_c, 0, 40, 60
5, 179182, Note_on_c, 0, 40, 0
5, 179200, Note_on_c, 0, 43, 61
5, 179360, Note_on_c, 0, 43, 0
5, 179360, Note_on_c, 0, 49, 61
5, 179520, Note_on_c, 0, 49, 0
5, 179520, Note_on_c, 0, 52, 62
5, 180480, Note_on_c, 0, 52, 0
5, 180480, Note_on_c, 0, 41, 64
5, 181120, Note_on_c, 0, 45, 65
5, 181147, Note_on_c, 0, 41, 0
5, 181280, Note_on_c, 0, 45, 0
5, 181280, Note_on_c, 0, 50, 65
5, 181440, Note_on_c, 0, 50, 0
5, 181440, Note_on_c, 0, 53, 65
5, 181920, Note_on_c, 0, 53, 0
5, 181920, Note_on_c, 0, 54, 66
5, 182400, Note_on_c, 0, 54, 0
5, 182400, Note_on_c, 0, 55, 69
5, 182880, Note_on_c, 0, 55, 0
5, 182880, Note_on_c, 0, 43, 67
5, 183360, Note_on_c, 0, 43, 0
5, 183360, Note_on_c, 0, 45, 64
5, 183840, Note_on_c, 0, 45, 0
5, 183840, Note_on_c, 0, 33, 62
5, 184320, Note_on_c, 0, 33, 0
5, 184320, Note_on_c, 0, 38, 61
5, 184800, Note_on_c, 0, 38, 0
5, 184800, Note_on_c, 0, 38, 57
5, 185280, Note_on_c, 0, 38, 0
5, 185280, Note_on_c, 0, 38, 54
5, 185760, Note_on_c, 0, 38, 0
5, 186240, Control_c, 0, 7, 122
5, 191040, Note_on_c, 0, 55, 60
5, 191160, Note_on_c, 0, 55, 0
5, 191160, Note_on_c, 0, 57, 60
5, 191280, Note_on_c, 0, 57, 0
5, 191280, Note_on_c, 0, 55, 60
5, 191400, Note_on_c, 0, 55, 0
5, 191400, Note_on_c, 0, 57, 59
5, 191520, Note_on_c, 0, 57, 0
5, 191520, Note_on_c, 0, 50, 59
5, 191640, Note_on_c, 0, 50, 0
5, 191760, Note_on_c, 0, 50, 58
5, 191880, Note_on_c, 0, 50, 0
5, 195120, Note_on_c, 0, 49, 56
5, 195240, Note_on_c, 0, 49, 0
5, 195360, Note_on_c, 0, 51, 55
5, 195480, Note_on_c, 0, 51, 0
5, 195600, Note_on_c, 0, 51, 54
5, 195720, Note_on_c, 0, 51, 0
5, 195840, Note_on_c, 0, 52, 54
5, 196320, Note_on_c, 0, 52, 0
5, 196320, Note_on_c, 0, 40, 56
5, 196800, Note_on_c, 0, 40, 0
5, 197280, Note_on_c, 0, 40, 61
5, 197760, Note_on_c, 0, 40, 0
5, 197760, Note_on_c, 0, 33, 65
5, 198840, Note_on_c, 0, 33, 0
5, 198840, Note_on_c, 0, 45, 60
5, 198960, Note_on_c, 0, 45, 0
5, 198960, Note_on_c, 0, 43, 59
5, 199080, Note_on_c, 0, 43, 0
5, 199080, Note_on_c, 0, 42, 59
5, 199200, Note_on_c, 0, 42, 0
5, 199200, Note_on_c, 0, 40, 58
5, 199320, Note_on_c, 0, 40, 0
5, 199320, Note_on_c, 0, 38, 57
5, 199440, Note_on_c, 0, 38, 0
5, 199440, Note_on_c, 0, 37, 57
5, 199560, Note_on_c, 0, 37, 0
5, 199560, Note_on_c, 0, 35, 58
5, 199680, Note_on_c, 0, 35, 0
5, 199680, Note_on_c, 0, 33, 58
5, 200160, Note_on_c, 0, 33, 0
5, 202560, Note_on_c, 0, 33, 60
5, 202680, Note_on_c, 0, 33, 0
5, 202680, Note_on_c, 0, 37, 60
5, 202800, Note_on_c, 0, 37, 0
5, 202800, Note_on_c, 0, 40, 61
5, 202920, Note_on_c, 0, 40, 0
5, 202920, Note_on_c, 0, 37, 61
5, 203040, Note_on_c, 0, 37, 0
5, 203040, Note_on_c, 0, 45, 61
5, 203160, Note_on_c, 0, 45, 0
5, 203280, Note_on_c, 0, 45, 61
5, 203400, Note_on_c, 0, 45, 0
5, 203520, Note_on_c, 0, 45, 61
5, 205080, Note_on_c, 0, 45, 0
5, 205080, Note_on_c, 0, 33, 54
5, 205200, Note_on_c, 0, 33, 0
5, 205200, Note_on_c, 0, 35, 53
5, 205320, Note_on_c, 0, 35, 0
5, 205320, Note_on_c, 0, 37, 53
5, 205440, Note_on_c, 0, 37, 0
5, 205440, Note_on_c, 0, 38, 52
5, 205560, Note_on_c, 0, 38, 0
5, 205560, Note_on_c, 0, 42, 52
5, 205680, Note_on_c, 0, 42, 0
5, 205680, Note_on_c, 0, 45, 52
5, 205800, Note_on_c, 0, 45, 0
5, 205800, Note_on_c, 0, 42, 52
5, 205920, Note_on_c, 0, 42, 0
5, 205920, Note_on_c, 0, 50, 53
5, 206040, Note_on_c, 0, 50, 0
5, 206160, Note_on_c, 0, 50, 53
5, 206280, Note_on_c, 0, 50, 0
5, 206400, Note_on_c, 0, 43, 60
5, 207360, Note_on_c, 0, 43, 0
5, 207360, Note_on_c, 0, 33, 64
5, 207480, Note_on_c, 0, 33, 0
5, 207480, Note_on_c, 0, 38, 57
5, 207600, Note_on_c, 0, 38, 0
5, 207600, Note_on_c, 0, 42, 57
5, 207720, Note_on_c, 0, 42, 0
5, 207720, Note_on_c, 0, 38, 57
5, 207840, Note_on_c, 0, 38, 0
5, 207840, Note_on_c, 0, 45, 57
5, 207960, Note_on_c, 0, 45, 0
5, 208080, Note_on_c, 0, 45, 58
5, 208200, Note_on_c, 0, 45, 0
5, 208320, Note_on_c, 0, 45, 66
5, 209280, Note_on_c, 0, 45, 0
5, 209280, Note_on_c, 0, 38, 61
5, 209760, Note_on_c, 0, 38, 0
5, 210480, Note_on_c, 0, 50, 64
5, 210600, Note_on_c, 0, 50, 0
5, 210720, Note_on_c, 0, 50, 65
5, 210840, Note_on_c, 0, 50, 0
5, 210960, Note_on_c, 0, 50, 65
5, 211080, Note_on_c, 0, 50, 0
5, 211200, Note_on_c, 0, 40, 66
5, 211680, Note_on_c, 0, 40, 0
5, 212400, Note_on_c, 0, 52, 69
5, 212520, Note_on_c, 0, 52, 0
5, 212640, Note_on_c, 0, 52, 69
5, 212760, Note_on_c, 0, 52, 0
5, 212880, Note_on_c, 0, 52, 70
5, 213000, Note_on_c, 0, 52, 0
5, 213120, Note_on_c, 0, 42, 70
5, 213600, Note_on_c, 0, 42, 0
5, 214320, Note_on_c, 0, 54, 73
5, 214440, Note_on_c, 0, 54, 0
5, 214560, Note_on_c, 0, 54, 74
5, 214680, Note_on_c, 0, 54, 0
5, 214800, Note_on_c, 0, 54, 75
5, 214920, Note_on_c, 0, 54, 0
5, 215040, Note_on_c, 0, 55, 74
5, 215520, Note_on_c, 0, 55, 0
5, 215520, Note_on_c, 0, 43, 69
5, 216000, Note_on_c, 0, 43, 0
5, 216000, Note_on_c, 0, 45, 64
5, 216480, Note_on_c, 0, 45, 0
5, 216480, Note_on_c, 0, 33, 59
5, 216960, Note_on_c, 0, 33, 0
5, 216960, Note_on_c, 0, 38, 54
5, 217080, Note_on_c, 0, 38, 0
5, 217080, Note_on_c, 0, 42, 54
5, 217200, Note_on_c, 0, 42, 0
5, 217200, Note_on_c, 0, 45, 55
5, 217320, Note_on_c, 0, 45, 0
5, 217320, Note_on_c, 0, 42, 55
5, 217440, Note_on_c, 0, 42, 0
5, 217440, Note_on_c, 0, 50, 55
5, 217560, Note_on_c, 0, 50, 0
5, 217680, Note_on_c, 0, 50, 56
5, 217800, Note_on_c, 0, 50, 0
5, 217920, Note_on_c, 0, 50, 57
5, 218880, Note_on_c, 0, 50, 0
5, 218880, Note_on_c, 0, 40, 60
5, 219000, Note_on_c, 0, 40, 0
5, 219000, Note_on_c, 0, 43, 61
5, 219120, Note_on_c, 0, 43, 0
5, 219120, Note_on_c, 0, 49, 61
5, 219240, Note_on_c, 0, 49, 0
5, 219240, Note_on_c, 0, 43, 61
5, 219360, Note_on_c, 0, 43, 0
5, 219360, Note_on_c, 0, 52, 62
5, 219480, Note_on_c, 0, 52, 0
5, 219600, Note_on_c, 0, 52, 63
5, 219720, Note_on_c, 0, 52, 0
5, 219840, Note_on_c, 0, 52, 63
5, 220800, Note_on_c, 0, 52, 0
5, 220800, Note_on_c, 0, 42, 67
5, 220920, Note_on_c, 0, 42, 0
5, 220920, Note_on_c, 0, 45, 67
5, 221040, Note_on_c, 0, 45, 0
5, 221040, Note_on_c, 0, 48, 68
5, 221160, Note_on_c, 0, 48, 0
5, 221160, Note_on_c, 0, 51, 68
5, 221280, Note_on_c, 0, 51, 0
5, 221280, Note_on_c, 0, 54, 68
5, 221400, Note_on_c, 0, 54, 0
5, 221520, Note_on_c, 0, 54, 69
5, 221640, Note_on_c, 0, 54, 0
5, 221760, Note_on_c, 0, 54, 70
5, 222720, Note_on_c, 0, 54, 0
5, 222720, Note_on_c, 0, 55, 77
5, 223200, Note_on_c, 0, 55, 0
5, 223200, Note_on_c, 0, 43, 72
5, 223680, Note_on_c, 0, 43, 0
5, 223680, Note_on_c, 0, 45, 68
5, 224160, Note_on_c, 0, 45, 0
5, 224160, Note_on_c, 0, 33, 63
5, 224640, Note_on_c, 0, 33, 0
5, 224640, Note_on_c, 0, 38, 58
5, 225120, Note_on_c, 0, 38, 0
5, 225600, Note_on_c, 0, 35, 60
5, 225600, Note_on_c, 0, 47, 60
5, 226080, Note_on_c, 0, 47, 0
5, 226080, Note_on_c, 0, 35, 0
5, 226560, Note_on_c, 0, 31, 61
5, 226560, Note_on_c, 0, 43, 61
5, 227040, Note_on_c, 0, 43, 0
5, 227040, Note_on_c, 0, 31, 0
5, 227520, Note_on_c, 0, 45, 62
5, 227520, Note_on_c, 0, 33, 62
5, 228000, Note_on_c, 0, 33, 0
5, 228000, Note_on_c, 0, 45, 0
5, 228480, Note_on_c, 0, 38, 64
5, 228960, Note_on_c, 0, 38, 0
5, 228960, Note_on_c, 0, 50, 65
5, 229440, Note_on_c, 0, 50, 0
5, 229440, Note_on_c, 0, 35, 65
5, 229920, Note_on_c, 0, 35, 0
5, 229920, Note_on_c, 0, 47, 66
5, 230400, Note_on_c, 0, 47, 0
5, 230400, Note_on_c, 0, 31, 67
5, 230880, Note_on_c, 0, 31, 0
5, 230880, Note_on_c, 0, 43, 67
5, 231360, Note_on_c, 0, 43, 0
5, 231360, Note_on_c, 0, 33, 68
5, 231840, Note_on_c, 0, 33, 0
5, 231840, Note_on_c, 0, 45, 69
5, 232320, Note_on_c, 0, 45, 0
5, 232320, Note_on_c, 0, 38, 70
5, 232560, Note_on_c, 0, 50, 70
5, 232800, Note_on_c, 0, 50, 0
5, 232800, Note_on_c, 0, 38, 0
5, 232800, Note_on_c, 0, 38, 70
5, 233040, Note_on_c, 0, 50, 71
5, 233280, Note_on_c, 0, 50, 0
5, 233280, Note_on_c, 0, 38, 0
5, 233280, Note_on_c, 0, 35, 71
5, 233520, Note_on_c, 0, 47, 71
5, 233760, Note_on_c, 0, 47, 0
5, 233760, Note_on_c, 0, 35, 0
5, 233760, Note_on_c, 0, 35, 72
5, 234000, Note_on_c, 0, 47, 72
5, 234240, Note_on_c, 0, 47, 0
5, 234240, Note_on_c, 0, 35, 0
5, 234240, Note_on_c, 0, 31, 80
5, 234240, Note_on_c, 0, 43, 80
5, 236160, Note_on_c, 0, 43, 0
5, 236160, Note_on_c, 0, 31, 0
5, 236160, Note_on_c, 0, 33, 73
5, 236160, Note_on_c, 0, 45, 73
5, 238080, Note_on_c, 0, 45, 0
5, 238080, Note_on_c, 0, 33, 0
5, 238080, Note_on_c, 0, 38, 63
5, 238560, Note_on_c, 0, 38, 0
5, 239040, Note_on_c, 0, 45, 65
5, 240000, Note_on_c, 0, 45, 0
5, 240000, Note_on_c, 0, 45, 60
5, 240960, Note_on_c, 0, 45, 0
5, 240960, Note_on_c, 0, 45, 69
5, 241680, Note_on_c, 0, 49, 62
5, 241920, Note_on_c, 0, 49, 0
5, 241920, Note_on_c, 0, 45, 0
5, 241920, Note_on_c, 0, 38, 60
5, 242400, Note_on_c, 0, 38, 0
5, 242400, Note_on_c, 0, 38, 62
5, 243000, Note_on_c, 0, 38, 0
5, 243000, Note_on_c, 0, 37, 60
5, 243120, Note_on_c, 0, 37, 0
5, 243120, Note_on_c, 0, 35, 61
5, 243240, Note_on_c, 0, 35, 0
5, 243240, Note_on_c, 0, 33, 61
5, 243360, Note_on_c, 0, 33, 0
5, 243360, Note_on_c, 0, 32, 61
5, 243480, Note_on_c, 0, 32, 0
5, 243480, Note_on_c, 0, 33, 60
5, 243600, Note_on_c, 0, 33, 0
5, 243600, Note_on_c, 0, 35, 59
5, 243720, Note_on_c, 0, 35, 0
5, 243720, Note_on_c, 0, 37, 58
5, 243840, Note_on_c, 0, 37, 0
5, 243840, Note_on_c, 0, 38, 58
5, 243960, Note_on_c, 0, 38, 0
5, 243960, Note_on_c, 0, 40, 58
5, 244080, Note_on_c, 0, 40, 0
5, 244080, Note_on_c, 0, 42, 58
5, 244200, Note_on_c, 0, 42, 0
5, 244200, Note_on_c, 0, 43, 59
5, 244320, Note_on_c, 0, 43, 0
5, 244320, Note_on_c, 0, 45, 59
5, 244440, Note_on_c, 0, 45, 0
5, 244560, Note_on_c, 0, 45, 60
5, 244680, Note_on_c, 0, 45, 0
5, 244800, Note_on_c, 0, 33, 65
5, 244800, Note_on_c, 0, 45, 65
5, 245760, Note_on_c, 0, 45, 0
5, 245760, Note_on_c, 0, 33, 0
5, 245760, Note_on_c, 0, 38, 56
5, 245760, Note_on_c, 0, 50, 56
5, 247680, Note_on_c, 0, 50, 0
5, 247680, Note_on_c, 0, 38, 0
5, 247680, Note_on_c, 0, 38, 56
5, 247680, Note_on_c, 0, 50, 56
5, 249600, Note_on_c, 0, 50, 0
5, 249600, Note_on_c, 0, 38, 0
5, 249600, Note_on_c, 0, 38, 54
5, 250800, Note_on_c, 0, 38, 0
5, 250800, Note_on_c, 0, 50, 52
5, 251040, Note_on_c, 0, 50, 0
5, 251040, Note_on_c, 0, 45, 50
5, 251280, Note_on_c, 0, 45, 0
5, 251280, Note_on_c, 0, 42, 47
5, 251520, Note_on_c, 0, 42, 0
5, 251520, Note_on_c, 0, 38, 45
5, 252000, Note_on_c, 0, 38, 0
5, 252000, End_track
0, 0, End_of_file
