0, 0, Header, 1, 6, 240
1, 0, Start_track
1, 0, Title_t, "POULENC, Francis - 'Les Soirees de Nazelles II' Le coeur sur la main, Seq Richard Summers"
1, 0, Copyright_t, "Adaptation for Disklavier pianos, by: Robert C. Kuhmann (c) 2012."
1, 0, Time_signature, 4, 2, 24, 8
1, 0, Key_signature, 0, "major"
1, 0, Tempo, 500000
1, 0, End_track
2, 0, Start_track
2, 0, Title_t, "Le coeur sur la main"
2, 0, Program_c, 0, 0
2, 0, Control_c, 0, 7, 115
2, 21, Note_on_c, 0, 67, 54
2, 26, Note_on_c, 0, 55, 50
2, 35, Control_c, 0, 64, 127
2, 738, Note_on_c, 0, 55, 0
2, 738, Note_on_c, 0, 67, 0
2, 1383, Note_on_c, 0, 67, 37
2, 1386, Note_on_c, 0, 55, 33
2, 1561, Note_on_c, 0, 55, 0
2, 1561, Note_on_c, 0, 67, 0
2, 1715, Note_on_c, 0, 55, 43
2, 1722, Note_on_c, 0, 67, 38
2, 1826, Note_on_c, 0, 55, 0
2, 1831, Note_on_c, 0, 67, 0
2, 1948, Note_on_c, 0, 55, 42
2, 1955, Note_on_c, 0, 67, 40
2, 2035, Note_on_c, 0, 55, 0
2, 2047, Note_on_c, 0, 67, 0
2, 2158, Note_on_c, 0, 67, 45
2, 2162, Note_on_c, 0, 55, 41
2, 2246, Note_on_c, 0, 55, 0
2, 2251, Note_on_c, 0, 67, 0
2, 2392, Note_on_c, 0, 55, 38
2, 2392, Note_on_c, 0, 67, 37
2, 2468, Note_on_c, 0, 55, 0
2, 2473, Note_on_c, 0, 67, 0
2, 2757, Note_on_c, 0, 51, 39
2, 2761, Note_on_c, 0, 36, 34
2, 2767, Note_on_c, 0, 67, 36
2, 2767, Note_on_c, 0, 63, 45
2, 2767, Note_on_c, 0, 55, 34
2, 2772, Note_on_c, 0, 44, 50
2, 2785, Note_on_c, 0, 60, 35
2, 2806, Control_c, 0, 64, 0
2, 2882, Control_c, 0, 64, 127
2, 3035, Note_on_c, 0, 55, 0
2, 3056, Note_on_c, 0, 60, 0
2, 3065, Note_on_c, 0, 63, 0
2, 3075, Note_on_c, 0, 67, 0
2, 3208, Note_on_c, 0, 36, 0
2, 3267, Note_on_c, 0, 44, 0
2, 3277, Note_on_c, 0, 67, 39
2, 3283, Note_on_c, 0, 63, 42
2, 3285, Note_on_c, 0, 60, 36
2, 3325, Note_on_c, 0, 51, 0
2, 3433, Note_on_c, 0, 60, 0
2, 3443, Note_on_c, 0, 63, 0
2, 3446, Note_on_c, 0, 67, 0
2, 3580, Note_on_c, 0, 63, 41
2, 3585, Note_on_c, 0, 60, 36
2, 3590, Note_on_c, 0, 67, 38
2, 3603, Note_on_c, 0, 56, 42
2, 3680, Note_on_c, 0, 60, 0
2, 3695, Note_on_c, 0, 63, 0
2, 3697, Note_on_c, 0, 67, 0
2, 3842, Note_on_c, 0, 56, 0
2, 3843, Note_on_c, 0, 58, 49
2, 3843, Note_on_c, 0, 63, 42
2, 3852, Note_on_c, 0, 67, 37
2, 3856, Note_on_c, 0, 60, 35
2, 3897, Note_on_c, 0, 60, 0
2, 3917, Note_on_c, 0, 63, 0
2, 3925, Note_on_c, 0, 67, 0
2, 3993, Note_on_c, 0, 58, 0
2, 4060, Note_on_c, 0, 59, 49
2, 4062, Note_on_c, 0, 63, 42
2, 4065, Note_on_c, 0, 67, 35
2, 4067, Note_on_c, 0, 60, 36
2, 4102, Note_on_c, 0, 60, 0
2, 4118, Note_on_c, 0, 63, 0
2, 4122, Note_on_c, 0, 59, 0
2, 4123, Note_on_c, 0, 67, 0
2, 4243, Note_on_c, 0, 60, 55
2, 4262, Note_on_c, 0, 67, 40
2, 4262, Note_on_c, 0, 63, 43
2, 4318, Note_on_c, 0, 63, 0
2, 4318, Note_on_c, 0, 60, 0
2, 4322, Note_on_c, 0, 67, 0
2, 4542, Note_on_c, 0, 60, 43
2, 4556, Note_on_c, 0, 67, 41
2, 4561, Note_on_c, 0, 63, 43
2, 4581, Control_c, 0, 64, 0
2, 4625, Control_c, 0, 64, 127
2, 4700, Note_on_c, 0, 63, 0
2, 4716, Note_on_c, 0, 67, 0
2, 4806, Note_on_c, 0, 60, 0
2, 4991, Note_on_c, 0, 67, 33
2, 5005, Note_on_c, 0, 60, 30
2, 5011, Note_on_c, 0, 63, 36
2, 5078, Note_on_c, 0, 63, 0
2, 5082, Note_on_c, 0, 60, 0
2, 5087, Note_on_c, 0, 67, 0
2, 5212, Note_on_c, 0, 67, 31
2, 5218, Note_on_c, 0, 60, 30
2, 5218, Note_on_c, 0, 63, 38
2, 5283, Note_on_c, 0, 63, 0
2, 5290, Note_on_c, 0, 60, 0
2, 5291, Note_on_c, 0, 67, 0
2, 5418, Note_on_c, 0, 60, 28
2, 5420, Note_on_c, 0, 67, 31
2, 5425, Note_on_c, 0, 63, 35
2, 5507, Note_on_c, 0, 63, 0
2, 5516, Note_on_c, 0, 60, 0
2, 5520, Note_on_c, 0, 67, 0
2, 5613, Note_on_c, 0, 55, 46
2, 5622, Note_on_c, 0, 67, 31
2, 5625, Note_on_c, 0, 60, 28
2, 5627, Note_on_c, 0, 63, 37
2, 5682, Note_on_c, 0, 63, 0
2, 5690, Note_on_c, 0, 60, 0
2, 5700, Note_on_c, 0, 67, 0
2, 5797, Note_on_c, 0, 55, 0
2, 5818, Note_on_c, 0, 67, 36
2, 5820, Note_on_c, 0, 56, 40
2, 5821, Note_on_c, 0, 60, 28
2, 5823, Note_on_c, 0, 63, 38
2, 5873, Note_on_c, 0, 63, 0
2, 5880, Note_on_c, 0, 60, 0
2, 5888, Note_on_c, 0, 67, 0
2, 6008, Note_on_c, 0, 56, 0
2, 6020, Note_on_c, 0, 67, 34
2, 6020, Note_on_c, 0, 58, 38
2, 6021, Note_on_c, 0, 60, 29
2, 6028, Note_on_c, 0, 63, 37
2, 6102, Note_on_c, 0, 63, 0
2, 6111, Note_on_c, 0, 60, 0
2, 6120, Note_on_c, 0, 67, 0
2, 6201, Note_on_c, 0, 58, 0
2, 6220, Note_on_c, 0, 67, 30
2, 6225, Note_on_c, 0, 60, 29
2, 6228, Note_on_c, 0, 63, 37
2, 6231, Note_on_c, 0, 53, 46
2, 6291, Note_on_c, 0, 63, 0
2, 6296, Note_on_c, 0, 60, 0
2, 6311, Note_on_c, 0, 67, 0
2, 6398, Note_on_c, 0, 53, 0
2, 6407, Note_on_c, 0, 67, 34
2, 6411, Note_on_c, 0, 60, 29
2, 6412, Note_on_c, 0, 56, 50
2, 6420, Note_on_c, 0, 63, 39
2, 6481, Note_on_c, 0, 63, 0
2, 6483, Note_on_c, 0, 56, 0
2, 6493, Note_on_c, 0, 60, 0
2, 6506, Note_on_c, 0, 67, 0
2, 6596, Note_on_c, 0, 60, 38
2, 6598, Note_on_c, 0, 55, 50
2, 6598, Note_on_c, 0, 67, 38
2, 6610, Note_on_c, 0, 63, 40
2, 6682, Note_on_c, 0, 63, 0
2, 6688, Note_on_c, 0, 60, 0
2, 6692, Note_on_c, 0, 67, 0
2, 6768, Note_on_c, 0, 55, 0
2, 6782, Note_on_c, 0, 53, 53
2, 6792, Note_on_c, 0, 60, 30
2, 6793, Note_on_c, 0, 67, 41
2, 6796, Note_on_c, 0, 63, 44
2, 6865, Note_on_c, 0, 63, 0
2, 6865, Note_on_c, 0, 60, 0
2, 6871, Note_on_c, 0, 67, 0
2, 6987, Note_on_c, 0, 53, 0
2, 6991, Note_on_c, 0, 67, 38
2, 6996, Note_on_c, 0, 48, 46
2, 6998, Note_on_c, 0, 60, 28
2, 7003, Note_on_c, 0, 63, 37
2, 7096, Note_on_c, 0, 60, 0
2, 7111, Note_on_c, 0, 63, 0
2, 7112, Note_on_c, 0, 67, 0
2, 7278, Note_on_c, 0, 67, 34
2, 7286, Note_on_c, 0, 60, 31
2, 7290, Note_on_c, 0, 48, 0
2, 7290, Note_on_c, 0, 63, 42
2, 7307, Note_on_c, 0, 51, 48
2, 7313, Control_c, 0, 64, 0
2, 7362, Control_c, 0, 64, 127
2, 7388, Note_on_c, 0, 67, 0
2, 7426, Note_on_c, 0, 63, 0
2, 7450, Note_on_c, 0, 60, 0
2, 7571, Note_on_c, 0, 68, 53
2, 7583, Note_on_c, 0, 60, 42
2, 7590, Note_on_c, 0, 63, 45
2, 7647, Note_on_c, 0, 63, 0
2, 7678, Note_on_c, 0, 60, 0
2, 7683, Note_on_c, 0, 68, 0
2, 7787, Note_on_c, 0, 70, 62
2, 7800, Note_on_c, 0, 60, 48
2, 7810, Note_on_c, 0, 63, 48
2, 7830, Note_on_c, 0, 63, 0
2, 7848, Note_on_c, 0, 60, 0
2, 7856, Note_on_c, 0, 70, 0
2, 8016, Note_on_c, 0, 51, 0
2, 8045, Note_on_c, 0, 72, 56
2, 8048, Note_on_c, 0, 63, 43
2, 8051, Note_on_c, 0, 60, 33
2, 8061, Note_on_c, 0, 44, 37
2, 8078, Control_c, 0, 64, 0
2, 8136, Control_c, 0, 64, 127
2, 8185, Note_on_c, 0, 72, 0
2, 8188, Note_on_c, 0, 60, 0
2, 8195, Note_on_c, 0, 63, 0
2, 8261, Note_on_c, 0, 63, 49
2, 8267, Note_on_c, 0, 60, 46
2, 8271, Note_on_c, 0, 67, 52
2, 8326, Note_on_c, 0, 63, 0
2, 8333, Note_on_c, 0, 60, 0
2, 8343, Note_on_c, 0, 67, 0
2, 8448, Note_on_c, 0, 70, 55
2, 8452, Note_on_c, 0, 44, 0
2, 8463, Note_on_c, 0, 60, 37
2, 8463, Note_on_c, 0, 63, 45
2, 8505, Note_on_c, 0, 60, 0
2, 8508, Note_on_c, 0, 63, 0
2, 8527, Note_on_c, 0, 70, 0
2, 8625, Note_on_c, 0, 68, 47
2, 8635, Note_on_c, 0, 63, 40
2, 8637, Note_on_c, 0, 60, 35
2, 8638, Note_on_c, 0, 43, 44
2, 8656, Control_c, 0, 64, 0
2, 8695, Control_c, 0, 64, 127
2, 8702, Note_on_c, 0, 68, 0
2, 8713, Note_on_c, 0, 60, 0
2, 8726, Note_on_c, 0, 63, 0
2, 8817, Note_on_c, 0, 65, 51
2, 8823, Note_on_c, 0, 60, 38
2, 8828, Note_on_c, 0, 63, 44
2, 8850, Note_on_c, 0, 65, 0
2, 8853, Note_on_c, 0, 63, 0
2, 8867, Note_on_c, 0, 60, 0
2, 9008, Note_on_c, 0, 55, 36
2, 9012, Note_on_c, 0, 60, 47
2, 9062, Note_on_c, 0, 60, 0
2, 9068, Note_on_c, 0, 55, 0
2, 9261, Note_on_c, 0, 63, 50
2, 9261, Note_on_c, 0, 55, 37
2, 9268, Note_on_c, 0, 60, 41
2, 9402, Note_on_c, 0, 60, 0
2, 9403, Note_on_c, 0, 55, 0
2, 9490, Note_on_c, 0, 43, 0
2, 9521, Note_on_c, 0, 60, 45
2, 9522, Note_on_c, 0, 55, 39
2, 9525, Note_on_c, 0, 48, 47
2, 9615, Note_on_c, 0, 55, 0
2, 9617, Note_on_c, 0, 60, 0
2, 9726, Note_on_c, 0, 48, 0
2, 9741, Note_on_c, 0, 55, 40
2, 9742, Note_on_c, 0, 51, 52
2, 9745, Note_on_c, 0, 60, 47
2, 9776, Note_on_c, 0, 55, 0
2, 9796, Note_on_c, 0, 60, 0
2, 9907, Note_on_c, 0, 51, 0
2, 9917, Note_on_c, 0, 55, 63
2, 9917, Note_on_c, 0, 60, 49
2, 9957, Note_on_c, 0, 60, 0
2, 10098, Note_on_c, 0, 56, 72
2, 10103, Note_on_c, 0, 55, 0
2, 10103, Note_on_c, 0, 60, 46
2, 10121, Note_on_c, 0, 60, 0
2, 10281, Note_on_c, 0, 60, 74
2, 10283, Note_on_c, 0, 56, 0
2, 10291, Note_on_c, 0, 63, 0
2, 10538, Note_on_c, 0, 60, 0
2, 10545, Note_on_c, 0, 62, 71
2, 10580, Control_c, 0, 64, 0
2, 10628, Control_c, 0, 64, 127
2, 10762, Note_on_c, 0, 67, 59
2, 10767, Note_on_c, 0, 63, 49
2, 10823, Note_on_c, 0, 63, 0
2, 10840, Note_on_c, 0, 67, 0
2, 10970, Note_on_c, 0, 68, 64
2, 10971, Note_on_c, 0, 63, 54
2, 10990, Note_on_c, 0, 63, 0
2, 11003, Note_on_c, 0, 68, 0
2, 11193, Note_on_c, 0, 72, 64
2, 11207, Note_on_c, 0, 68, 50
2, 11207, Note_on_c, 0, 63, 46
2, 11440, Note_on_c, 0, 75, 61
2, 11451, Control_c, 0, 64, 0
2, 11455, Note_on_c, 0, 60, 50
2, 11480, Control_c, 0, 64, 127
2, 11506, Note_on_c, 0, 62, 0
2, 11517, Note_on_c, 0, 72, 0
2, 11550, Note_on_c, 0, 68, 0
2, 11560, Note_on_c, 0, 75, 0
2, 11610, Note_on_c, 0, 63, 0
2, 11750, Note_on_c, 0, 77, 60
2, 11850, Note_on_c, 0, 77, 0
2, 12168, Note_on_c, 0, 79, 59
2, 12186, Note_on_c, 0, 60, 0
2, 12186, Note_on_c, 0, 68, 32
2, 12193, Note_on_c, 0, 71, 57
2, 12196, Note_on_c, 0, 59, 39
2, 12211, Control_c, 0, 64, 0
2, 12297, Control_c, 0, 64, 127
2, 12646, Note_on_c, 0, 71, 0
2, 12716, Note_on_c, 0, 68, 0
2, 12765, Note_on_c, 0, 77, 59
2, 12781, Note_on_c, 0, 60, 33
2, 12862, Note_on_c, 0, 59, 0
2, 12980, Note_on_c, 0, 60, 0
2, 12986, Note_on_c, 0, 71, 56
2, 12987, Note_on_c, 0, 77, 0
2, 12988, Note_on_c, 0, 62, 50
2, 13005, Note_on_c, 0, 79, 0
2, 13063, Note_on_c, 0, 62, 0
2, 13087, Note_on_c, 0, 71, 0
2, 13236, Note_on_c, 0, 68, 35
2, 13246, Note_on_c, 0, 74, 48
2, 13247, Note_on_c, 0, 67, 43
2, 13248, Note_on_c, 0, 71, 45
2, 13251, Control_c, 0, 64, 0
2, 13265, Control_c, 0, 64, 127
2, 13441, Note_on_c, 0, 71, 0
2, 13450, Note_on_c, 0, 68, 0
2, 13558, Note_on_c, 0, 68, 44
2, 13562, Note_on_c, 0, 65, 53
2, 13567, Note_on_c, 0, 71, 47
2, 13571, Note_on_c, 0, 67, 0
2, 13648, Note_on_c, 0, 71, 0
2, 13651, Note_on_c, 0, 68, 0
2, 13746, Note_on_c, 0, 65, 0
2, 13762, Note_on_c, 0, 68, 44
2, 13763, Note_on_c, 0, 71, 43
2, 13767, Note_on_c, 0, 59, 44
2, 13805, Note_on_c, 0, 71, 0
2, 13815, Note_on_c, 0, 68, 0
2, 13957, Note_on_c, 0, 59, 0
2, 13961, Note_on_c, 0, 60, 42
2, 13962, Control_c, 0, 64, 0
2, 13972, Note_on_c, 0, 63, 42
2, 13975, Note_on_c, 0, 68, 44
2, 14025, Control_c, 0, 64, 127
2, 14050, Note_on_c, 0, 74, 0
2, 14067, Note_on_c, 0, 63, 0
2, 14072, Note_on_c, 0, 68, 0
2, 14145, Note_on_c, 0, 75, 68
2, 14156, Note_on_c, 0, 63, 48
2, 14173, Note_on_c, 0, 68, 39
2, 14180, Note_on_c, 0, 63, 0
2, 14195, Note_on_c, 0, 68, 0
2, 14235, Note_on_c, 0, 75, 0
2, 14325, Note_on_c, 0, 60, 0
2, 14333, Note_on_c, 0, 72, 62
2, 14335, Note_on_c, 0, 68, 58
2, 14335, Note_on_c, 0, 63, 52
2, 14360, Note_on_c, 0, 63, 0
2, 14365, Note_on_c, 0, 72, 0
2, 14367, Note_on_c, 0, 68, 0
2, 14556, Note_on_c, 0, 51, 53
2, 14558, Note_on_c, 0, 64, 58
2, 14560, Note_on_c, 0, 55, 44
2, 14560, Note_on_c, 0, 61, 53
2, 14573, Control_c, 0, 64, 0
2, 14636, Control_c, 0, 64, 127
2, 14683, Note_on_c, 0, 55, 0
2, 14686, Note_on_c, 0, 61, 0
2, 14692, Note_on_c, 0, 64, 0
2, 14812, Note_on_c, 0, 65, 54
2, 14817, Note_on_c, 0, 55, 50
2, 14818, Note_on_c, 0, 61, 49
2, 14836, Note_on_c, 0, 55, 0
2, 14837, Note_on_c, 0, 61, 0
2, 14861, Note_on_c, 0, 51, 0
2, 14863, Note_on_c, 0, 65, 0
2, 15031, Note_on_c, 0, 60, 53
2, 15042, Note_on_c, 0, 39, 44
2, 15050, Note_on_c, 0, 64, 49
2, 15055, Control_c, 0, 64, 0
2, 15071, Note_on_c, 0, 67, 58
2, 15083, Note_on_c, 0, 72, 60
2, 15136, Control_c, 0, 64, 127
2, 15143, Note_on_c, 0, 64, 0
2, 15177, Note_on_c, 0, 67, 0
2, 15183, Note_on_c, 0, 72, 0
2, 15183, Note_on_c, 0, 60, 0
2, 15185, Note_on_c, 0, 39, 0
2, 15377, Note_on_c, 0, 67, 53
2, 15386, Note_on_c, 0, 55, 39
2, 15386, Note_on_c, 0, 62, 56
2, 15386, Note_on_c, 0, 59, 45
2, 15401, Note_on_c, 0, 44, 35
2, 15410, Note_on_c, 0, 32, 34
2, 15430, Control_c, 0, 64, 0
2, 15502, Control_c, 0, 64, 127
2, 15637, Note_on_c, 0, 32, 0
2, 15661, Note_on_c, 0, 44, 0
2, 15678, Note_on_c, 0, 59, 0
2, 15680, Note_on_c, 0, 55, 0
2, 15690, Note_on_c, 0, 62, 0
2, 15777, Note_on_c, 0, 62, 46
2, 15781, Note_on_c, 0, 59, 45
2, 15783, Note_on_c, 0, 55, 38
2, 15806, Note_on_c, 0, 50, 37
2, 15875, Note_on_c, 0, 59, 0
2, 15886, Note_on_c, 0, 55, 0
2, 15886, Note_on_c, 0, 62, 0
2, 15968, Note_on_c, 0, 50, 0
2, 15971, Note_on_c, 0, 59, 47
2, 15972, Note_on_c, 0, 55, 42
2, 15973, Note_on_c, 0, 51, 55
2, 15975, Note_on_c, 0, 62, 49
2, 16007, Note_on_c, 0, 51, 0
2, 16023, Note_on_c, 0, 59, 0
2, 16027, Note_on_c, 0, 67, 0
2, 16030, Note_on_c, 0, 62, 0
2, 16031, Note_on_c, 0, 55, 0
2, 16138, Note_on_c, 0, 63, 68
2, 16141, Note_on_c, 0, 65, 63
2, 16146, Note_on_c, 0, 56, 55
2, 16147, Control_c, 0, 64, 0
2, 16152, Note_on_c, 0, 53, 46
2, 16152, Note_on_c, 0, 60, 51
2, 16180, Control_c, 0, 64, 127
2, 16268, Note_on_c, 0, 60, 0
2, 16305, Note_on_c, 0, 63, 0
2, 16307, Note_on_c, 0, 56, 0
2, 16335, Note_on_c, 0, 63, 43
2, 16346, Note_on_c, 0, 58, 50
2, 16352, Note_on_c, 0, 60, 39
2, 16388, Note_on_c, 0, 60, 0
2, 16408, Note_on_c, 0, 53, 0
2, 16420, Note_on_c, 0, 63, 0
2, 16463, Note_on_c, 0, 58, 0
2, 16526, Note_on_c, 0, 63, 48
2, 16526, Note_on_c, 0, 60, 45
2, 16532, Note_on_c, 0, 50, 46
2, 16585, Note_on_c, 0, 60, 0
2, 16595, Note_on_c, 0, 63, 0
2, 16702, Note_on_c, 0, 50, 0
2, 16750, Note_on_c, 0, 51, 44
2, 16750, Note_on_c, 0, 63, 50
2, 16751, Note_on_c, 0, 65, 0
2, 16758, Note_on_c, 0, 60, 40
2, 16772, Control_c, 0, 64, 0
2, 16785, Note_on_c, 0, 60, 0
2, 16810, Note_on_c, 0, 63, 0
2, 16811, Control_c, 0, 64, 127
2, 16947, Note_on_c, 0, 72, 69
2, 16956, Note_on_c, 0, 68, 52
2, 16961, Note_on_c, 0, 63, 44
2, 16973, Note_on_c, 0, 68, 0
2, 16978, Note_on_c, 0, 63, 0
2, 17005, Note_on_c, 0, 72, 0
2, 17148, Note_on_c, 0, 75, 69
2, 17158, Note_on_c, 0, 63, 50
2, 17173, Note_on_c, 0, 68, 34
2, 17176, Note_on_c, 0, 63, 0
2, 17190, Note_on_c, 0, 68, 0
2, 17197, Note_on_c, 0, 75, 0
2, 17351, Note_on_c, 0, 67, 64
2, 17360, Note_on_c, 0, 64, 52
2, 17360, Note_on_c, 0, 61, 49
2, 17381, Note_on_c, 0, 64, 0
2, 17383, Note_on_c, 0, 61, 0
2, 17397, Note_on_c, 0, 67, 0
2, 17592, Note_on_c, 0, 72, 59
2, 17627, Note_on_c, 0, 72, 0
2, 17630, Note_on_c, 0, 51, 0
2, 17830, Note_on_c, 0, 64, 56
2, 17833, Note_on_c, 0, 61, 50
2, 17841, Note_on_c, 0, 39, 45
2, 17883, Note_on_c, 0, 39, 0
2, 17891, Note_on_c, 0, 61, 0
2, 17906, Note_on_c, 0, 64, 0
2, 18123, Note_on_c, 0, 67, 49
2, 18136, Note_on_c, 0, 44, 40
2, 18142, Note_on_c, 0, 55, 35
2, 18145, Note_on_c, 0, 62, 48
2, 18147, Note_on_c, 0, 32, 34
2, 18147, Note_on_c, 0, 59, 45
2, 18162, Control_c, 0, 64, 0
2, 18216, Control_c, 0, 64, 127
2, 18220, Note_on_c, 0, 32, 0
2, 18250, Note_on_c, 0, 44, 0
2, 18315, Note_on_c, 0, 55, 0
2, 18320, Note_on_c, 0, 59, 0
2, 18337, Note_on_c, 0, 62, 0
2, 18383, Note_on_c, 0, 59, 53
2, 18388, Note_on_c, 0, 50, 52
2, 18391, Note_on_c, 0, 62, 46
2, 18397, Note_on_c, 0, 55, 47
2, 18422, Note_on_c, 0, 55, 0
2, 18436, Note_on_c, 0, 59, 0
2, 18450, Note_on_c, 0, 62, 0
2, 18560, Note_on_c, 0, 50, 0
2, 18570, Note_on_c, 0, 55, 49
2, 18571, Note_on_c, 0, 51, 70
2, 18571, Note_on_c, 0, 62, 60
2, 18571, Note_on_c, 0, 59, 55
2, 18597, Note_on_c, 0, 55, 0
2, 18603, Note_on_c, 0, 67, 0
2, 18603, Note_on_c, 0, 59, 0
2, 18612, Note_on_c, 0, 62, 0
2, 18711, Note_on_c, 0, 51, 0
2, 18741, Note_on_c, 0, 63, 71
2, 18743, Note_on_c, 0, 65, 63
2, 18747, Note_on_c, 0, 53, 59
2, 18751, Note_on_c, 0, 60, 55
2, 18847, Note_on_c, 0, 53, 0
2, 18852, Note_on_c, 0, 60, 0
2, 18883, Note_on_c, 0, 63, 0
2, 18912, Note_on_c, 0, 55, 67
2, 18915, Note_on_c, 0, 63, 52
2, 18923, Note_on_c, 0, 53, 52
2, 18923, Note_on_c, 0, 60, 52
2, 18932, Control_c, 0, 64, 0
2, 18961, Control_c, 0, 64, 127
2, 18975, Note_on_c, 0, 60, 0
2, 19003, Note_on_c, 0, 63, 0
2, 19008, Note_on_c, 0, 53, 0
2, 19086, Note_on_c, 0, 63, 78
2, 19090, Note_on_c, 0, 55, 0
2, 19090, Note_on_c, 0, 60, 61
2, 19091, Note_on_c, 0, 56, 71
2, 19106, Note_on_c, 0, 60, 0
2, 19110, Note_on_c, 0, 65, 0
2, 19125, Note_on_c, 0, 63, 0
2, 19125, Note_on_c, 0, 56, 0
2, 19300, Note_on_c, 0, 72, 79
2, 19302, Note_on_c, 0, 56, 68
2, 19302, Control_c, 0, 64, 0
2, 19305, Note_on_c, 0, 62, 68
2, 19305, Note_on_c, 0, 65, 72
2, 19351, Control_c, 0, 64, 127
2, 19403, Note_on_c, 0, 56, 0
2, 19406, Note_on_c, 0, 62, 0
2, 19410, Note_on_c, 0, 58, 57
2, 19423, Note_on_c, 0, 65, 0
2, 19462, Note_on_c, 0, 58, 0
2, 19470, Note_on_c, 0, 56, 63
2, 19486, Note_on_c, 0, 62, 62
2, 19488, Note_on_c, 0, 65, 69
2, 19518, Note_on_c, 0, 56, 0
2, 19523, Note_on_c, 0, 58, 58
2, 19526, Note_on_c, 0, 65, 0
2, 19526, Note_on_c, 0, 62, 0
2, 19556, Note_on_c, 0, 58, 0
2, 19565, Note_on_c, 0, 56, 62
2, 19606, Note_on_c, 0, 65, 67
2, 19608, Note_on_c, 0, 62, 62
2, 19610, Note_on_c, 0, 56, 0
2, 19620, Note_on_c, 0, 58, 64
2, 19626, Note_on_c, 0, 62, 0
2, 19642, Note_on_c, 0, 65, 0
2, 19658, Note_on_c, 0, 58, 0
2, 19658, Note_on_c, 0, 56, 59
2, 19667, Note_on_c, 0, 72, 0
2, 19718, Note_on_c, 0, 55, 68
2, 19720, Note_on_c, 0, 56, 0
2, 19761, Note_on_c, 0, 56, 69
2, 19775, Note_on_c, 0, 55, 0
2, 19790, Note_on_c, 0, 58, 59
2, 19812, Note_on_c, 0, 56, 0
2, 19831, Note_on_c, 0, 59, 93
2, 19837, Note_on_c, 0, 74, 86
2, 19838, Note_on_c, 0, 58, 0
2, 19838, Note_on_c, 0, 68, 63
2, 19838, Note_on_c, 0, 65, 67
2, 19842, Control_c, 0, 64, 0
2, 19918, Control_c, 0, 64, 127
2, 19992, Note_on_c, 0, 65, 0
2, 20000, Note_on_c, 0, 68, 0
2, 20070, Note_on_c, 0, 68, 52
2, 20070, Note_on_c, 0, 65, 58
2, 20125, Note_on_c, 0, 68, 0
2, 20142, Note_on_c, 0, 65, 0
2, 20235, Note_on_c, 0, 65, 51
2, 20235, Note_on_c, 0, 68, 49
2, 20293, Note_on_c, 0, 68, 0
2, 20303, Note_on_c, 0, 65, 0
2, 20398, Note_on_c, 0, 68, 50
2, 20412, Note_on_c, 0, 65, 55
2, 20435, Note_on_c, 0, 74, 0
2, 20456, Note_on_c, 0, 68, 0
2, 20473, Note_on_c, 0, 65, 0
2, 20567, Note_on_c, 0, 75, 74
2, 20570, Note_on_c, 0, 60, 58
2, 20572, Note_on_c, 0, 68, 52
2, 20577, Control_c, 0, 64, 0
2, 20578, Note_on_c, 0, 59, 0
2, 20582, Note_on_c, 0, 65, 50
2, 20587, Control_c, 0, 64, 127
2, 20672, Note_on_c, 0, 68, 0
2, 20682, Note_on_c, 0, 65, 0
2, 20687, Note_on_c, 0, 75, 0
2, 20768, Note_on_c, 0, 60, 0
2, 20775, Note_on_c, 0, 68, 49
2, 20775, Note_on_c, 0, 74, 68
2, 20780, Control_c, 0, 64, 0
2, 20780, Note_on_c, 0, 65, 55
2, 20783, Note_on_c, 0, 59, 49
2, 20808, Control_c, 0, 64, 127
2, 20816, Note_on_c, 0, 65, 0
2, 20825, Note_on_c, 0, 68, 0
2, 20846, Note_on_c, 0, 74, 0
2, 21033, Note_on_c, 0, 62, 42
2, 21036, Note_on_c, 0, 77, 64
2, 21038, Note_on_c, 0, 68, 50
2, 21042, Note_on_c, 0, 59, 0
2, 21048, Note_on_c, 0, 71, 55
2, 21048, Control_c, 0, 64, 0
2, 21121, Control_c, 0, 64, 127
2, 21180, Note_on_c, 0, 71, 0
2, 21186, Note_on_c, 0, 68, 0
2, 21278, Note_on_c, 0, 68, 36
2, 21293, Note_on_c, 0, 71, 47
2, 21375, Note_on_c, 0, 71, 0
2, 21383, Note_on_c, 0, 68, 0
2, 21505, Note_on_c, 0, 62, 0
2, 21568, Note_on_c, 0, 68, 39
2, 21573, Note_on_c, 0, 71, 43
2, 21651, Note_on_c, 0, 71, 0
2, 21660, Note_on_c, 0, 77, 0
2, 21680, Note_on_c, 0, 68, 0
2, 22000, Note_on_c, 0, 58, 32
2, 22002, Note_on_c, 0, 70, 47
2, 22006, Control_c, 0, 64, 0
2, 22007, Note_on_c, 0, 66, 36
2, 22008, Note_on_c, 0, 49, 42
2, 22098, Control_c, 0, 64, 127
2, 22130, Note_on_c, 0, 66, 0
2, 22136, Note_on_c, 0, 70, 0
2, 22196, Note_on_c, 0, 49, 0
2, 22213, Note_on_c, 0, 58, 0
2, 22725, Note_on_c, 0, 85, 56
2, 22725, Note_on_c, 0, 94, 47
2, 22726, Note_on_c, 0, 90, 50
2, 22728, Note_on_c, 0, 61, 32
2, 22731, Note_on_c, 0, 70, 35
2, 22731, Note_on_c, 0, 82, 38
2, 22731, Note_on_c, 0, 66, 41
2, 22826, Note_on_c, 0, 61, 0
2, 22848, Note_on_c, 0, 82, 0
2, 22848, Note_on_c, 0, 66, 0
2, 22853, Note_on_c, 0, 94, 0
2, 22853, Note_on_c, 0, 70, 0
2, 22866, Note_on_c, 0, 90, 0
2, 22882, Note_on_c, 0, 85, 0
2, 23016, Note_on_c, 0, 70, 47
2, 23023, Note_on_c, 0, 80, 55
2, 23026, Note_on_c, 0, 92, 52
2, 23051, Note_on_c, 0, 70, 0
2, 23062, Note_on_c, 0, 92, 0
2, 23063, Note_on_c, 0, 80, 0
2, 23243, Note_on_c, 0, 90, 50
2, 23243, Note_on_c, 0, 70, 47
2, 23246, Note_on_c, 0, 78, 50
2, 23253, Note_on_c, 0, 82, 49
2, 23257, Note_on_c, 0, 85, 55
2, 23270, Note_on_c, 0, 70, 0
2, 23291, Note_on_c, 0, 90, 0
2, 23292, Note_on_c, 0, 78, 0
2, 23296, Note_on_c, 0, 85, 0
2, 23301, Note_on_c, 0, 82, 0
2, 23452, Note_on_c, 0, 73, 65
2, 23452, Note_on_c, 0, 85, 70
2, 23473, Note_on_c, 0, 66, 55
2, 23500, Note_on_c, 0, 66, 0
2, 23510, Note_on_c, 0, 85, 0
2, 23510, Note_on_c, 0, 73, 0
2, 23646, Note_on_c, 0, 70, 62
2, 23646, Note_on_c, 0, 61, 56
2, 23648, Note_on_c, 0, 82, 62
2, 23680, Note_on_c, 0, 70, 0
2, 23701, Note_on_c, 0, 82, 0
2, 23705, Note_on_c, 0, 61, 0
2, 23913, Note_on_c, 0, 75, 53
2, 23916, Note_on_c, 0, 87, 52
2, 23932, Note_on_c, 0, 58, 48
2, 23932, Control_c, 0, 64, 0
2, 23938, Note_on_c, 0, 48, 47
2, 23980, Control_c, 0, 64, 127
2, 24016, Note_on_c, 0, 48, 0
2, 24041, Note_on_c, 0, 87, 0
2, 24055, Note_on_c, 0, 75, 0
2, 24056, Note_on_c, 0, 58, 0
2, 24213, Note_on_c, 0, 70, 46
2, 24220, Note_on_c, 0, 78, 44
2, 24220, Note_on_c, 0, 75, 45
2, 24220, Note_on_c, 0, 63, 50
2, 24237, Note_on_c, 0, 58, 34
2, 24310, Note_on_c, 0, 63, 0
2, 24318, Note_on_c, 0, 58, 0
2, 24326, Note_on_c, 0, 70, 0
2, 24328, Note_on_c, 0, 75, 0
2, 24338, Note_on_c, 0, 78, 0
2, 24406, Note_on_c, 0, 78, 52
2, 24407, Note_on_c, 0, 63, 53
2, 24407, Note_on_c, 0, 58, 45
2, 24408, Note_on_c, 0, 70, 58
2, 24411, Note_on_c, 0, 75, 50
2, 24466, Note_on_c, 0, 78, 0
2, 24483, Note_on_c, 0, 58, 0
2, 24490, Note_on_c, 0, 70, 0
2, 24501, Note_on_c, 0, 63, 0
2, 24512, Note_on_c, 0, 75, 0
2, 24585, Note_on_c, 0, 82, 62
2, 24590, Note_on_c, 0, 75, 55
2, 24596, Note_on_c, 0, 78, 58
2, 24603, Note_on_c, 0, 66, 46
2, 24606, Note_on_c, 0, 63, 49
2, 24657, Note_on_c, 0, 66, 0
2, 24680, Note_on_c, 0, 63, 0
2, 24683, Note_on_c, 0, 78, 0
2, 24692, Note_on_c, 0, 75, 0
2, 24695, Note_on_c, 0, 82, 0
2, 24786, Note_on_c, 0, 63, 57
2, 24791, Note_on_c, 0, 70, 49
2, 24791, Note_on_c, 0, 75, 53
2, 24792, Note_on_c, 0, 78, 50
2, 24796, Note_on_c, 0, 58, 43
2, 24830, Note_on_c, 0, 63, 0
2, 24833, Note_on_c, 0, 58, 0
2, 24841, Note_on_c, 0, 70, 0
2, 24842, Note_on_c, 0, 78, 0
2, 24845, Note_on_c, 0, 75, 0
2, 24990, Note_on_c, 0, 63, 50
2, 24993, Note_on_c, 0, 75, 45
2, 24995, Note_on_c, 0, 58, 45
2, 25000, Note_on_c, 0, 70, 42
2, 25000, Note_on_c, 0, 78, 38
2, 25013, Note_on_c, 0, 63, 0
2, 25022, Note_on_c, 0, 58, 0
2, 25043, Note_on_c, 0, 75, 0
2, 25048, Note_on_c, 0, 70, 0
2, 25050, Note_on_c, 0, 78, 0
2, 25316, Note_on_c, 0, 49, 44
2, 25328, Note_on_c, 0, 81, 40
2, 25331, Note_on_c, 0, 73, 34
2, 25337, Control_c, 0, 64, 0
2, 25341, Note_on_c, 0, 57, 40
2, 25346, Note_on_c, 0, 76, 45
2, 25351, Note_on_c, 0, 69, 36
2, 25413, Control_c, 0, 64, 127
2, 25426, Note_on_c, 0, 73, 0
2, 25432, Note_on_c, 0, 69, 0
2, 25438, Note_on_c, 0, 76, 0
2, 25457, Note_on_c, 0, 81, 0
2, 25467, Note_on_c, 0, 49, 0
2, 25482, Note_on_c, 0, 57, 0
2, 25731, Note_on_c, 0, 88, 50
2, 25735, Note_on_c, 0, 76, 40
2, 25741, Note_on_c, 0, 61, 38
2, 25743, Note_on_c, 0, 81, 43
2, 26021, Note_on_c, 0, 87, 66
2, 26038, Note_on_c, 0, 63, 41
2, 26161, Note_on_c, 0, 81, 0
2, 26220, Note_on_c, 0, 61, 0
2, 26240, Note_on_c, 0, 85, 79
2, 26243, Note_on_c, 0, 64, 59
2, 26250, Note_on_c, 0, 63, 0
2, 26256, Note_on_c, 0, 88, 0
2, 26390, Note_on_c, 0, 76, 0
2, 26445, Note_on_c, 0, 81, 73
2, 26446, Note_on_c, 0, 68, 48
2, 26462, Note_on_c, 0, 87, 0
2, 26468, Note_on_c, 0, 64, 0
2, 26543, Note_on_c, 0, 85, 0
2, 26625, Note_on_c, 0, 68, 0
2, 26651, Note_on_c, 0, 76, 71
2, 26653, Note_on_c, 0, 81, 0
2, 26658, Note_on_c, 0, 69, 51
2, 26936, Note_on_c, 0, 80, 69
2, 26938, Note_on_c, 0, 70, 48
2, 26956, Note_on_c, 0, 69, 0
2, 26956, Note_on_c, 0, 76, 0
2, 26972, Control_c, 0, 64, 0
2, 27011, Control_c, 0, 64, 127
2, 27272, Note_on_c, 0, 73, 38
2, 27272, Note_on_c, 0, 76, 43
2, 27358, Note_on_c, 0, 73, 0
2, 27373, Note_on_c, 0, 76, 0
2, 27531, Note_on_c, 0, 73, 34
2, 27537, Note_on_c, 0, 76, 36
2, 27638, Note_on_c, 0, 80, 0
2, 27833, Note_on_c, 0, 73, 0
2, 27843, Note_on_c, 0, 79, 45
2, 27846, Note_on_c, 0, 76, 0
2, 28205, Note_on_c, 0, 73, 32
2, 28216, Note_on_c, 0, 76, 39
2, 28353, Note_on_c, 0, 76, 0
2, 28355, Note_on_c, 0, 73, 0
2, 28721, Note_on_c, 0, 73, 29
2, 28730, Note_on_c, 0, 76, 29
2, 28872, Note_on_c, 0, 76, 0
2, 28875, Note_on_c, 0, 73, 0
2, 28905, Note_on_c, 0, 79, 0
2, 28988, Note_on_c, 0, 70, 0
2, 29575, Note_on_c, 0, 89, 51
2, 29577, Note_on_c, 0, 85, 41
2, 29578, Note_on_c, 0, 32, 40
2, 29581, Control_c, 0, 64, 0
2, 29585, Note_on_c, 0, 82, 36
2, 29585, Note_on_c, 0, 44, 34
2, 29587, Note_on_c, 0, 77, 41
2, 29638, Control_c, 0, 64, 127
2, 29658, Note_on_c, 0, 85, 0
2, 29660, Note_on_c, 0, 82, 0
2, 29660, Note_on_c, 0, 89, 0
2, 29661, Note_on_c, 0, 32, 0
2, 29673, Note_on_c, 0, 77, 0
2, 29678, Note_on_c, 0, 44, 0
2, 29887, Note_on_c, 0, 73, 50
2, 29888, Note_on_c, 0, 70, 42
2, 29888, Note_on_c, 0, 78, 47
2, 29896, Note_on_c, 0, 56, 48
2, 29900, Note_on_c, 0, 51, 45
2, 29912, Note_on_c, 0, 61, 31
2, 29920, Note_on_c, 0, 51, 0
2, 29927, Note_on_c, 0, 56, 0
2, 29931, Note_on_c, 0, 61, 0
2, 29932, Note_on_c, 0, 73, 0
2, 29932, Note_on_c, 0, 70, 0
2, 29946, Note_on_c, 0, 78, 0
2, 30110, Note_on_c, 0, 61, 47
2, 30111, Note_on_c, 0, 73, 49
2, 30112, Note_on_c, 0, 56, 37
2, 30113, Note_on_c, 0, 82, 48
2, 30120, Note_on_c, 0, 66, 32
2, 30120, Note_on_c, 0, 78, 43
2, 30135, Note_on_c, 0, 56, 0
2, 30136, Note_on_c, 0, 61, 0
2, 30145, Note_on_c, 0, 66, 0
2, 30150, Note_on_c, 0, 73, 0
2, 30152, Note_on_c, 0, 78, 0
2, 30163, Note_on_c, 0, 82, 0
2, 30350, Note_on_c, 0, 75, 44
2, 30350, Note_on_c, 0, 78, 45
2, 30355, Note_on_c, 0, 66, 42
2, 30355, Control_c, 0, 64, 0
2, 30358, Note_on_c, 0, 70, 30
2, 30358, Note_on_c, 0, 87, 39
2, 30365, Note_on_c, 0, 61, 38
2, 30366, Note_on_c, 0, 82, 44
2, 30398, Control_c, 0, 64, 127
2, 30471, Note_on_c, 0, 75, 0
2, 30472, Note_on_c, 0, 61, 0
2, 30486, Note_on_c, 0, 87, 0
2, 30530, Note_on_c, 0, 82, 0
2, 30627, Note_on_c, 0, 82, 30
2, 30635, Note_on_c, 0, 85, 42
2, 30643, Note_on_c, 0, 73, 35
2, 30648, Note_on_c, 0, 60, 31
2, 30653, Control_c, 0, 64, 0
2, 30777, Note_on_c, 0, 70, 0
2, 30781, Note_on_c, 0, 85, 0
2, 30835, Note_on_c, 0, 60, 0
2, 30837, Note_on_c, 0, 73, 0
2, 30841, Control_c, 0, 64, 127
2, 30846, Note_on_c, 0, 78, 0
2, 30852, Note_on_c, 0, 66, 0
2, 30867, Note_on_c, 0, 82, 0
2, 31027, Note_on_c, 0, 84, 53
2, 31028, Note_on_c, 0, 72, 62
2, 31046, Note_on_c, 0, 72, 0
2, 31063, Note_on_c, 0, 84, 0
2, 31182, Control_c, 0, 64, 0
2, 31195, Note_on_c, 0, 87, 59
2, 31198, Note_on_c, 0, 75, 49
2, 31203, Note_on_c, 0, 80, 50
2, 31211, Note_on_c, 0, 37, 48
2, 31245, Control_c, 0, 64, 127
2, 31251, Note_on_c, 0, 75, 0
2, 31252, Note_on_c, 0, 87, 0
2, 31252, Note_on_c, 0, 80, 0
2, 31261, Note_on_c, 0, 37, 0
2, 31457, Note_on_c, 0, 77, 56
2, 31462, Note_on_c, 0, 68, 47
2, 31463, Note_on_c, 0, 61, 48
2, 31465, Note_on_c, 0, 73, 47
2, 31470, Note_on_c, 0, 56, 49
2, 31476, Note_on_c, 0, 53, 45
2, 31495, Note_on_c, 0, 53, 0
2, 31497, Note_on_c, 0, 68, 0
2, 31497, Note_on_c, 0, 73, 0
2, 31501, Note_on_c, 0, 56, 0
2, 31503, Note_on_c, 0, 61, 0
2, 31512, Note_on_c, 0, 77, 0
2, 31637, Note_on_c, 0, 61, 47
2, 31641, Note_on_c, 0, 80, 57
2, 31641, Note_on_c, 0, 73, 55
2, 31651, Note_on_c, 0, 56, 47
2, 31652, Note_on_c, 0, 65, 53
2, 31655, Note_on_c, 0, 77, 54
2, 31668, Note_on_c, 0, 56, 0
2, 31675, Note_on_c, 0, 65, 0
2, 31680, Note_on_c, 0, 77, 0
2, 31682, Note_on_c, 0, 61, 0
2, 31682, Note_on_c, 0, 73, 0
2, 31703, Note_on_c, 0, 80, 0
2, 31842, Note_on_c, 0, 85, 55
2, 31847, Note_on_c, 0, 73, 45
2, 31851, Note_on_c, 0, 80, 49
2, 31851, Control_c, 0, 64, 0
2, 31852, Note_on_c, 0, 77, 51
2, 31855, Note_on_c, 0, 65, 44
2, 31860, Note_on_c, 0, 68, 39
2, 31861, Note_on_c, 0, 61, 42
2, 31890, Control_c, 0, 64, 127
2, 31948, Note_on_c, 0, 65, 0
2, 31960, Note_on_c, 0, 61, 0
2, 31972, Note_on_c, 0, 68, 0
2, 31973, Note_on_c, 0, 77, 0
2, 31976, Note_on_c, 0, 73, 0
2, 31982, Note_on_c, 0, 85, 0
2, 31992, Note_on_c, 0, 80, 0
2, 32123, Note_on_c, 0, 68, 34
2, 32130, Note_on_c, 0, 80, 41
2, 32132, Note_on_c, 0, 65, 43
2, 32135, Note_on_c, 0, 84, 39
2, 32138, Note_on_c, 0, 60, 33
2, 32145, Control_c, 0, 64, 0
2, 32151, Note_on_c, 0, 72, 33
2, 32155, Note_on_c, 0, 77, 28
2, 32202, Control_c, 0, 64, 127
2, 32237, Note_on_c, 0, 68, 0
2, 32243, Note_on_c, 0, 84, 0
2, 32246, Note_on_c, 0, 72, 0
2, 32263, Note_on_c, 0, 77, 0
2, 32266, Note_on_c, 0, 80, 0
2, 32266, Note_on_c, 0, 65, 0
2, 32286, Note_on_c, 0, 60, 0
2, 32361, Control_c, 0, 64, 0
2, 32477, Control_c, 0, 64, 127
2, 32518, Note_on_c, 0, 82, 48
2, 32521, Note_on_c, 0, 42, 48
2, 32523, Note_on_c, 0, 70, 46
2, 32536, Note_on_c, 0, 30, 32
2, 32546, Note_on_c, 0, 70, 0
2, 32560, Note_on_c, 0, 42, 0
2, 32561, Note_on_c, 0, 30, 0
2, 32566, Note_on_c, 0, 82, 0
2, 32673, Control_c, 0, 64, 0
2, 32680, Note_on_c, 0, 85, 71
2, 32688, Note_on_c, 0, 73, 57
2, 32688, Note_on_c, 0, 41, 57
2, 32691, Note_on_c, 0, 29, 52
2, 32722, Note_on_c, 0, 29, 0
2, 32727, Control_c, 0, 64, 127
2, 32731, Note_on_c, 0, 85, 0
2, 32737, Note_on_c, 0, 73, 0
2, 32740, Note_on_c, 0, 41, 0
2, 32913, Note_on_c, 0, 70, 50
2, 32913, Note_on_c, 0, 78, 53
2, 32916, Note_on_c, 0, 75, 52
2, 32935, Note_on_c, 0, 53, 47
2, 32938, Note_on_c, 0, 58, 43
2, 32942, Note_on_c, 0, 63, 32
2, 32952, Note_on_c, 0, 53, 0
2, 32972, Note_on_c, 0, 58, 0
2, 32975, Note_on_c, 0, 63, 0
2, 32982, Note_on_c, 0, 70, 0
2, 32990, Note_on_c, 0, 75, 0
2, 33011, Note_on_c, 0, 78, 0
2, 33108, Note_on_c, 0, 78, 56
2, 33112, Note_on_c, 0, 75, 56
2, 33115, Note_on_c, 0, 70, 49
2, 33121, Note_on_c, 0, 63, 55
2, 33127, Note_on_c, 0, 66, 37
2, 33137, Note_on_c, 0, 70, 0
2, 33148, Note_on_c, 0, 66, 0
2, 33152, Note_on_c, 0, 78, 0
2, 33156, Note_on_c, 0, 63, 0
2, 33166, Note_on_c, 0, 75, 0
2, 33328, Note_on_c, 0, 66, 41
2, 33332, Note_on_c, 0, 75, 46
2, 33335, Note_on_c, 0, 84, 50
2, 33341, Note_on_c, 0, 78, 47
2, 33347, Note_on_c, 0, 72, 33
2, 33347, Control_c, 0, 64, 0
2, 33351, Note_on_c, 0, 60, 33
2, 33351, Note_on_c, 0, 69, 33
2, 33352, Control_c, 0, 64, 127
2, 33415, Note_on_c, 0, 84, 0
2, 33420, Note_on_c, 0, 72, 0
2, 33462, Note_on_c, 0, 75, 0
2, 33466, Note_on_c, 0, 78, 0
2, 33583, Note_on_c, 0, 69, 0
2, 33607, Note_on_c, 0, 75, 40
2, 33623, Note_on_c, 0, 70, 32
2, 33630, Note_on_c, 0, 78, 32
2, 33722, Note_on_c, 0, 66, 0
2, 33746, Note_on_c, 0, 60, 0
2, 33756, Note_on_c, 0, 70, 0
2, 33758, Note_on_c, 0, 75, 0
2, 33765, Note_on_c, 0, 78, 0
2, 33988, Note_on_c, 0, 81, 57
2, 33992, Note_on_c, 0, 69, 50
2, 34022, Note_on_c, 0, 69, 0
2, 34030, Note_on_c, 0, 81, 0
2, 34185, Control_c, 0, 64, 0
2, 34198, Note_on_c, 0, 72, 43
2, 34205, Note_on_c, 0, 80, 47
2, 34210, Note_on_c, 0, 84, 47
2, 34211, Note_on_c, 0, 34, 38
2, 34215, Note_on_c, 0, 77, 44
2, 34220, Note_on_c, 0, 46, 37
2, 34238, Note_on_c, 0, 84, 0
2, 34246, Note_on_c, 0, 77, 0
2, 34247, Control_c, 0, 64, 127
2, 34250, Note_on_c, 0, 80, 0
2, 34258, Note_on_c, 0, 34, 0
2, 34261, Note_on_c, 0, 72, 0
2, 34278, Note_on_c, 0, 46, 0
2, 34413, Note_on_c, 0, 73, 59
2, 34417, Note_on_c, 0, 68, 47
2, 34421, Note_on_c, 0, 65, 50
2, 34470, Note_on_c, 0, 65, 0
2, 34470, Note_on_c, 0, 68, 0
2, 34492, Note_on_c, 0, 73, 0
2, 34500, Note_on_c, 0, 56, 44
2, 34552, Note_on_c, 0, 56, 0
2, 34556, Note_on_c, 0, 61, 53
2, 34591, Note_on_c, 0, 61, 0
2, 34636, Note_on_c, 0, 56, 45
2, 34638, Note_on_c, 0, 77, 56
2, 34640, Note_on_c, 0, 70, 47
2, 34651, Note_on_c, 0, 73, 49
2, 34677, Note_on_c, 0, 70, 0
2, 34690, Note_on_c, 0, 73, 0
2, 34693, Note_on_c, 0, 58, 45
2, 34697, Note_on_c, 0, 77, 0
2, 34706, Note_on_c, 0, 56, 0
2, 34761, Note_on_c, 0, 61, 50
2, 34767, Note_on_c, 0, 58, 0
2, 34855, Note_on_c, 0, 61, 0
2, 34862, Note_on_c, 0, 65, 39
2, 34880, Note_on_c, 0, 82, 54
2, 34898, Note_on_c, 0, 73, 35
2, 34898, Note_on_c, 0, 77, 54
2, 34921, Control_c, 0, 64, 0
2, 34945, Note_on_c, 0, 70, 13
2, 34973, Control_c, 0, 64, 127
2, 35046, Note_on_c, 0, 73, 0
2, 35057, Note_on_c, 0, 77, 0
2, 35087, Note_on_c, 0, 82, 0
2, 35091, Note_on_c, 0, 70, 0
2, 35153, Note_on_c, 0, 65, 0
2, 35177, Note_on_c, 0, 82, 69
2, 35182, Note_on_c, 0, 70, 58
2, 35257, Control_c, 0, 64, 0
2, 35301, Control_c, 0, 64, 127
2, 35322, Note_on_c, 0, 82, 0
2, 35327, Note_on_c, 0, 70, 0
2, 35425, Note_on_c, 0, 83, 70
2, 35428, Note_on_c, 0, 71, 62
2, 35488, Note_on_c, 0, 71, 0
2, 35503, Note_on_c, 0, 83, 0
2, 35778, Note_on_c, 0, 84, 48
2, 35781, Note_on_c, 0, 80, 47
2, 35785, Note_on_c, 0, 72, 37
2, 35790, Note_on_c, 0, 51, 39
2, 35791, Note_on_c, 0, 75, 47
2, 35797, Note_on_c, 0, 60, 33
2, 35801, Control_c, 0, 64, 0
2, 35907, Control_c, 0, 64, 127
2, 35967, Note_on_c, 0, 75, 0
2, 35993, Note_on_c, 0, 80, 0
2, 36078, Note_on_c, 0, 84, 0
2, 36113, Note_on_c, 0, 75, 43
2, 36118, Note_on_c, 0, 80, 49
2, 36133, Note_on_c, 0, 75, 0
2, 36141, Note_on_c, 0, 72, 0
2, 36150, Note_on_c, 0, 80, 0
2, 36166, Note_on_c, 0, 51, 0
2, 36188, Note_on_c, 0, 60, 0
2, 36346, Note_on_c, 0, 89, 81
2, 36377, Note_on_c, 0, 62, 37
2, 36663, Note_on_c, 0, 62, 0
2, 36663, Note_on_c, 0, 87, 72
2, 36682, Note_on_c, 0, 63, 50
2, 36690, Note_on_c, 0, 89, 0
2, 36882, Note_on_c, 0, 63, 0
2, 36887, Note_on_c, 0, 79, 60
2, 36898, Note_on_c, 0, 68, 45
2, 36940, Note_on_c, 0, 87, 0
2, 37100, Note_on_c, 0, 68, 0
2, 37107, Note_on_c, 0, 80, 64
2, 37107, Note_on_c, 0, 63, 53
2, 37117, Note_on_c, 0, 79, 0
2, 37146, Note_on_c, 0, 80, 0
2, 37148, Note_on_c, 0, 63, 0
2, 37402, Note_on_c, 0, 82, 58
2, 37406, Note_on_c, 0, 68, 43
2, 37410, Note_on_c, 0, 73, 54
2, 37417, Control_c, 0, 64, 0
2, 37420, Note_on_c, 0, 77, 59
2, 37423, Note_on_c, 0, 63, 42
2, 37425, Note_on_c, 0, 51, 43
2, 37508, Control_c, 0, 64, 127
2, 37543, Note_on_c, 0, 82, 0
2, 37552, Note_on_c, 0, 77, 0
2, 37553, Note_on_c, 0, 68, 0
2, 37557, Note_on_c, 0, 73, 0
2, 37677, Note_on_c, 0, 73, 59
2, 37683, Note_on_c, 0, 65, 63
2, 37767, Note_on_c, 0, 65, 0
2, 37813, Note_on_c, 0, 73, 0
2, 37945, Note_on_c, 0, 77, 56
2, 37953, Note_on_c, 0, 68, 46
2, 38106, Note_on_c, 0, 68, 0
2, 38157, Note_on_c, 0, 77, 0
2, 38262, Note_on_c, 0, 76, 54
2, 38275, Note_on_c, 0, 67, 44
2, 38398, Note_on_c, 0, 67, 0
2, 38446, Note_on_c, 0, 76, 0
2, 38483, Note_on_c, 0, 63, 0
2, 38647, Note_on_c, 0, 64, 42
2, 38647, Note_on_c, 0, 73, 49
2, 38812, Note_on_c, 0, 64, 0
2, 38871, Note_on_c, 0, 73, 0
2, 39185, Note_on_c, 0, 70, 43
2, 39196, Note_on_c, 0, 61, 35
2, 39320, Note_on_c, 0, 51, 0
2, 39341, Note_on_c, 0, 61, 0
2, 39833, Note_on_c, 0, 70, 0
2, 39966, Note_on_c, 0, 77, 59
2, 39972, Note_on_c, 0, 44, 35
2, 39977, Note_on_c, 0, 32, 37
2, 39987, Control_c, 0, 64, 0
2, 40045, Control_c, 0, 64, 127
2, 40063, Note_on_c, 0, 32, 0
2, 40086, Note_on_c, 0, 77, 0
2, 40091, Note_on_c, 0, 44, 0
2, 40312, Note_on_c, 0, 70, 42
2, 40320, Note_on_c, 0, 61, 34
2, 40326, Note_on_c, 0, 50, 50
2, 40338, Note_on_c, 0, 66, 41
2, 40408, Note_on_c, 0, 66, 0
2, 40410, Note_on_c, 0, 61, 0
2, 40415, Note_on_c, 0, 70, 0
2, 40531, Note_on_c, 0, 70, 46
2, 40533, Note_on_c, 0, 50, 0
2, 40541, Note_on_c, 0, 61, 43
2, 40541, Note_on_c, 0, 51, 54
2, 40551, Note_on_c, 0, 66, 41
2, 40575, Note_on_c, 0, 70, 0
2, 40580, Note_on_c, 0, 61, 0
2, 40607, Note_on_c, 0, 66, 0
2, 40666, Note_on_c, 0, 51, 0
2, 40747, Note_on_c, 0, 75, 64
2, 40753, Note_on_c, 0, 70, 43
2, 40756, Note_on_c, 0, 53, 46
2, 40763, Note_on_c, 0, 60, 21
2, 40766, Control_c, 0, 64, 0
2, 40805, Control_c, 0, 64, 127
2, 40858, Note_on_c, 0, 75, 0
2, 40867, Note_on_c, 0, 60, 0
2, 40910, Note_on_c, 0, 70, 0
2, 40982, Control_c, 0, 64, 0
2, 40987, Note_on_c, 0, 73, 57
2, 41013, Note_on_c, 0, 54, 34
2, 41065, Note_on_c, 0, 53, 0
2, 41113, Note_on_c, 0, 54, 0
2, 41121, Note_on_c, 0, 73, 0
2, 41286, Control_c, 0, 64, 127
2, 41310, Note_on_c, 0, 56, 55
2, 41315, Note_on_c, 0, 72, 50
2, 41326, Note_on_c, 0, 56, 0
2, 41448, Note_on_c, 0, 72, 0
2, 41460, Note_on_c, 0, 75, 62
2, 41482, Control_c, 0, 64, 0
2, 41521, Control_c, 0, 64, 127
2, 41655, Note_on_c, 0, 56, 58
2, 41666, Note_on_c, 0, 68, 44
2, 41672, Note_on_c, 0, 65, 31
2, 41722, Note_on_c, 0, 65, 0
2, 41722, Note_on_c, 0, 68, 0
2, 41836, Note_on_c, 0, 68, 43
2, 41838, Note_on_c, 0, 75, 0
2, 41850, Note_on_c, 0, 65, 44
2, 41851, Note_on_c, 0, 56, 0
2, 41853, Note_on_c, 0, 58, 54
2, 41898, Note_on_c, 0, 58, 0
2, 41900, Note_on_c, 0, 68, 0
2, 41915, Note_on_c, 0, 65, 0
2, 42047, Note_on_c, 0, 73, 56
2, 42047, Note_on_c, 0, 60, 38
2, 42048, Note_on_c, 0, 65, 42
2, 42051, Note_on_c, 0, 68, 41
2, 42257, Note_on_c, 0, 73, 0
2, 42277, Control_c, 0, 64, 0
2, 42280, Note_on_c, 0, 72, 44
2, 42291, Note_on_c, 0, 61, 37
2, 42311, Note_on_c, 0, 60, 0
2, 42412, Note_on_c, 0, 68, 0
2, 42412, Note_on_c, 0, 65, 0
2, 42445, Note_on_c, 0, 72, 0
2, 42446, Note_on_c, 0, 61, 0
2, 42561, Control_c, 0, 64, 127
2, 42595, Note_on_c, 0, 63, 52
2, 42601, Note_on_c, 0, 70, 58
2, 42611, Note_on_c, 0, 63, 0
2, 42731, Note_on_c, 0, 70, 0
2, 42742, Note_on_c, 0, 73, 72
2, 42755, Note_on_c, 0, 29, 55
2, 42796, Note_on_c, 0, 29, 0
2, 42952, Note_on_c, 0, 63, 44
2, 42957, Note_on_c, 0, 66, 52
2, 42971, Note_on_c, 0, 58, 38
2, 43073, Note_on_c, 0, 58, 0
2, 43103, Note_on_c, 0, 73, 0
2, 43157, Note_on_c, 0, 65, 51
2, 43205, Note_on_c, 0, 66, 0
2, 43373, Note_on_c, 0, 72, 51
2, 43416, Note_on_c, 0, 63, 0
2, 43418, Note_on_c, 0, 65, 0
2, 43568, Note_on_c, 0, 72, 0
2, 43602, Note_on_c, 0, 70, 49
2, 43605, Control_c, 0, 64, 0
2, 43736, Note_on_c, 0, 70, 0
2, 43968, Note_on_c, 0, 69, 48
2, 44157, Note_on_c, 0, 72, 52
2, 44157, Note_on_c, 0, 34, 40
2, 44171, Note_on_c, 0, 69, 0
2, 44201, Control_c, 0, 64, 127
2, 44238, Note_on_c, 0, 34, 0
2, 44395, Note_on_c, 0, 61, 38
2, 44396, Note_on_c, 0, 65, 46
2, 44400, Note_on_c, 0, 56, 41
2, 44466, Note_on_c, 0, 61, 0
2, 44468, Note_on_c, 0, 65, 0
2, 44598, Note_on_c, 0, 61, 39
2, 44598, Note_on_c, 0, 65, 45
2, 44602, Note_on_c, 0, 58, 35
2, 44727, Note_on_c, 0, 72, 0
2, 44727, Note_on_c, 0, 56, 0
2, 44770, Note_on_c, 0, 58, 0
2, 44791, Note_on_c, 0, 61, 0
2, 44822, Note_on_c, 0, 65, 0
2, 44836, Note_on_c, 0, 70, 49
2, 45065, Note_on_c, 0, 61, 36
2, 45077, Note_on_c, 0, 65, 40
2, 45117, Note_on_c, 0, 70, 0
2, 45130, Control_c, 0, 64, 0
2, 45132, Note_on_c, 0, 61, 0
2, 45135, Note_on_c, 0, 65, 0
2, 45398, Note_on_c, 0, 70, 50
2, 45715, Note_on_c, 0, 71, 53
2, 45732, Note_on_c, 0, 47, 42
2, 45788, Control_c, 0, 64, 127
2, 45813, Note_on_c, 0, 70, 0
2, 45962, Note_on_c, 0, 68, 43
2, 45967, Note_on_c, 0, 64, 44
2, 45976, Note_on_c, 0, 56, 38
2, 46005, Note_on_c, 0, 64, 0
2, 46005, Note_on_c, 0, 71, 0
2, 46020, Note_on_c, 0, 47, 0
2, 46020, Note_on_c, 0, 68, 0
2, 46171, Note_on_c, 0, 80, 69
2, 46178, Note_on_c, 0, 56, 0
2, 46183, Note_on_c, 0, 59, 49
2, 46227, Note_on_c, 0, 59, 0
2, 46368, Note_on_c, 0, 61, 46
2, 46370, Note_on_c, 0, 68, 54
2, 46372, Note_on_c, 0, 78, 63
2, 46535, Note_on_c, 0, 68, 0
2, 46555, Note_on_c, 0, 76, 72
2, 46567, Note_on_c, 0, 64, 45
2, 46568, Note_on_c, 0, 80, 0
2, 46572, Note_on_c, 0, 61, 0
2, 46630, Note_on_c, 0, 78, 0
2, 46672, Note_on_c, 0, 64, 0
2, 46716, Note_on_c, 0, 73, 68
2, 46721, Note_on_c, 0, 58, 46
2, 46725, Note_on_c, 0, 67, 58
2, 46735, Note_on_c, 0, 76, 0
2, 46758, Note_on_c, 0, 73, 0
2, 46758, Note_on_c, 0, 67, 0
2, 46768, Note_on_c, 0, 58, 0
2, 46951, Note_on_c, 0, 73, 74
2, 46956, Note_on_c, 0, 57, 52
2, 47006, Control_c, 0, 64, 0
2, 47058, Control_c, 0, 64, 127
2, 47155, Note_on_c, 0, 66, 54
2, 47157, Note_on_c, 0, 63, 52
2, 47207, Note_on_c, 0, 63, 0
2, 47217, Note_on_c, 0, 66, 0
2, 47308, Note_on_c, 0, 66, 55
2, 47311, Note_on_c, 0, 63, 53
2, 47420, Note_on_c, 0, 63, 0
2, 47446, Note_on_c, 0, 66, 0
2, 47463, Note_on_c, 0, 71, 75
2, 47473, Note_on_c, 0, 73, 0
2, 47516, Note_on_c, 0, 57, 0
2, 47628, Note_on_c, 0, 66, 66
2, 47632, Note_on_c, 0, 63, 61
2, 47650, Note_on_c, 0, 71, 0
2, 47668, Note_on_c, 0, 63, 0
2, 47682, Note_on_c, 0, 66, 0
2, 47781, Note_on_c, 0, 63, 67
2, 47783, Note_on_c, 0, 66, 66
2, 47798, Note_on_c, 0, 63, 0
2, 47800, Note_on_c, 0, 66, 0
2, 47925, Control_c, 0, 64, 0
2, 47947, Note_on_c, 0, 47, 104
2, 47968, Control_c, 0, 64, 127
2, 47987, Note_on_c, 0, 47, 0
2, 48152, Note_on_c, 0, 59, 70
2, 48157, Note_on_c, 0, 62, 84
2, 48157, Note_on_c, 0, 95, 109
2, 48160, Note_on_c, 0, 86, 100
2, 48160, Note_on_c, 0, 91, 102
2, 48160, Note_on_c, 0, 83, 95
2, 48225, Note_on_c, 0, 95, 0
2, 48230, Note_on_c, 0, 83, 0
2, 48233, Note_on_c, 0, 86, 0
2, 48241, Note_on_c, 0, 91, 0
2, 48350, Note_on_c, 0, 59, 0
2, 48367, Note_on_c, 0, 93, 104
2, 48367, Note_on_c, 0, 81, 100
2, 48372, Note_on_c, 0, 67, 96
2, 48376, Note_on_c, 0, 62, 0
2, 48420, Note_on_c, 0, 93, 0
2, 48425, Note_on_c, 0, 81, 0
2, 48520, Note_on_c, 0, 67, 0
2, 48520, Note_on_c, 0, 79, 89
2, 48520, Note_on_c, 0, 62, 96
2, 48521, Note_on_c, 0, 91, 107
2, 48556, Note_on_c, 0, 79, 0
2, 48563, Note_on_c, 0, 91, 0
2, 48650, Note_on_c, 0, 62, 0
2, 48650, Note_on_c, 0, 78, 101
2, 48652, Note_on_c, 0, 71, 86
2, 48655, Note_on_c, 0, 90, 93
2, 48685, Note_on_c, 0, 78, 0
2, 48693, Note_on_c, 0, 90, 0
2, 48771, Note_on_c, 0, 67, 100
2, 48775, Note_on_c, 0, 77, 107
2, 48776, Note_on_c, 0, 89, 100
2, 48791, Note_on_c, 0, 71, 0
2, 48798, Note_on_c, 0, 77, 0
2, 48802, Note_on_c, 0, 89, 0
2, 48891, Note_on_c, 0, 74, 107
2, 48891, Note_on_c, 0, 86, 109
2, 48912, Note_on_c, 0, 74, 0
2, 48913, Note_on_c, 0, 86, 0
2, 48918, Note_on_c, 0, 67, 0
2, 49016, Note_on_c, 0, 83, 102
2, 49016, Note_on_c, 0, 71, 107
2, 49040, Note_on_c, 0, 71, 0
2, 49041, Note_on_c, 0, 83, 0
2, 49148, Note_on_c, 0, 67, 113
2, 49148, Note_on_c, 0, 79, 96
2, 49175, Note_on_c, 0, 67, 0
2, 49183, Note_on_c, 0, 79, 0
2, 49278, Note_on_c, 0, 66, 103
2, 49281, Note_on_c, 0, 78, 96
2, 49312, Note_on_c, 0, 66, 0
2, 49318, Note_on_c, 0, 78, 0
2, 49458, Note_on_c, 0, 65, 104
2, 49458, Note_on_c, 0, 77, 109
2, 49481, Note_on_c, 0, 65, 0
2, 49487, Note_on_c, 0, 77, 0
2, 49667, Note_on_c, 0, 62, 109
2, 49668, Note_on_c, 0, 74, 109
2, 49690, Note_on_c, 0, 74, 0
2, 49690, Note_on_c, 0, 62, 0
2, 49960, Control_c, 0, 64, 0
2, 49971, Note_on_c, 0, 65, 96
2, 49973, Note_on_c, 0, 58, 98
2, 49973, Note_on_c, 0, 61, 101
2, 49973, Note_on_c, 0, 53, 107
2, 49975, Note_on_c, 0, 39, 110
2, 49975, Note_on_c, 0, 27, 87
2, 50017, Control_c, 0, 64, 127
2, 50037, Note_on_c, 0, 27, 0
2, 50051, Note_on_c, 0, 39, 0
2, 50092, Note_on_c, 0, 65, 0
2, 50098, Note_on_c, 0, 53, 0
2, 50135, Note_on_c, 0, 61, 0
2, 50157, Note_on_c, 0, 58, 0
2, 50206, Note_on_c, 0, 54, 91
2, 50208, Note_on_c, 0, 58, 89
2, 50210, Note_on_c, 0, 61, 93
2, 50248, Note_on_c, 0, 61, 0
2, 50263, Note_on_c, 0, 58, 0
2, 50268, Note_on_c, 0, 54, 0
2, 50316, Note_on_c, 0, 58, 98
2, 50321, Note_on_c, 0, 61, 92
2, 50350, Note_on_c, 0, 61, 0
2, 50351, Note_on_c, 0, 58, 0
2, 50472, Note_on_c, 0, 66, 103
2, 50475, Note_on_c, 0, 77, 100
2, 50476, Note_on_c, 0, 70, 98
2, 50476, Note_on_c, 0, 73, 98
2, 50477, Note_on_c, 0, 65, 102
2, 50603, Note_on_c, 0, 70, 0
2, 50605, Note_on_c, 0, 73, 0
2, 50640, Note_on_c, 0, 70, 83
2, 50642, Note_on_c, 0, 73, 80
2, 50645, Note_on_c, 0, 66, 0
2, 50667, Note_on_c, 0, 77, 0
2, 50671, Note_on_c, 0, 65, 0
2, 50693, Note_on_c, 0, 70, 0
2, 50693, Note_on_c, 0, 73, 0
2, 50857, Note_on_c, 0, 70, 87
2, 50858, Note_on_c, 0, 65, 98
2, 50858, Note_on_c, 0, 77, 81
2, 50860, Note_on_c, 0, 73, 81
2, 50878, Note_on_c, 0, 70, 0
2, 50883, Control_c, 0, 64, 0
2, 50885, Note_on_c, 0, 73, 0
2, 50891, Note_on_c, 0, 65, 0
2, 50891, Note_on_c, 0, 44, 107
2, 50892, Note_on_c, 0, 32, 93
2, 50896, Note_on_c, 0, 65, 72
2, 50898, Note_on_c, 0, 73, 84
2, 50898, Note_on_c, 0, 70, 103
2, 50918, Control_c, 0, 64, 127
2, 50942, Note_on_c, 0, 77, 0
2, 50948, Note_on_c, 0, 65, 0
2, 50950, Note_on_c, 0, 70, 0
2, 50951, Note_on_c, 0, 73, 0
2, 50962, Note_on_c, 0, 32, 0
2, 50976, Note_on_c, 0, 44, 0
2, 51136, Note_on_c, 0, 58, 66
2, 51137, Note_on_c, 0, 66, 62
2, 51137, Note_on_c, 0, 61, 69
2, 51141, Note_on_c, 0, 54, 71
2, 51145, Note_on_c, 0, 51, 69
2, 51212, Note_on_c, 0, 61, 0
2, 51212, Note_on_c, 0, 58, 0
2, 51215, Note_on_c, 0, 51, 0
2, 51220, Note_on_c, 0, 66, 0
2, 51223, Note_on_c, 0, 54, 0
2, 51275, Note_on_c, 0, 61, 71
2, 51277, Note_on_c, 0, 66, 62
2, 51277, Note_on_c, 0, 58, 64
2, 51285, Note_on_c, 0, 54, 69
2, 51286, Note_on_c, 0, 51, 63
2, 51311, Note_on_c, 0, 51, 0
2, 51317, Note_on_c, 0, 58, 0
2, 51317, Note_on_c, 0, 54, 0
2, 51318, Note_on_c, 0, 61, 0
2, 51323, Note_on_c, 0, 66, 0
2, 51378, Note_on_c, 0, 54, 65
2, 51382, Note_on_c, 0, 51, 60
2, 51382, Note_on_c, 0, 58, 67
2, 51386, Note_on_c, 0, 61, 67
2, 51392, Note_on_c, 0, 66, 60
2, 51411, Note_on_c, 0, 58, 0
2, 51420, Note_on_c, 0, 61, 0
2, 51428, Note_on_c, 0, 51, 0
2, 51435, Note_on_c, 0, 54, 0
2, 51437, Note_on_c, 0, 66, 0
2, 51482, Note_on_c, 0, 58, 69
2, 51492, Note_on_c, 0, 70, 56
2, 51495, Note_on_c, 0, 66, 55
2, 51496, Note_on_c, 0, 61, 67
2, 51525, Note_on_c, 0, 58, 0
2, 51530, Note_on_c, 0, 61, 0
2, 51532, Note_on_c, 0, 66, 0
2, 51541, Note_on_c, 0, 70, 0
2, 51601, Note_on_c, 0, 61, 62
2, 51602, Note_on_c, 0, 54, 70
2, 51606, Note_on_c, 0, 66, 58
2, 51607, Note_on_c, 0, 51, 66
2, 51608, Note_on_c, 0, 58, 59
2, 51612, Note_on_c, 0, 70, 56
2, 51620, Note_on_c, 0, 61, 0
2, 51623, Note_on_c, 0, 51, 0
2, 51625, Note_on_c, 0, 58, 0
2, 51632, Note_on_c, 0, 70, 0
2, 51637, Note_on_c, 0, 54, 0
2, 51638, Note_on_c, 0, 66, 0
2, 51727, Control_c, 0, 64, 0
2, 51773, Note_on_c, 0, 44, 61
2, 51775, Note_on_c, 0, 75, 70
2, 51781, Note_on_c, 0, 63, 62
2, 51790, Control_c, 0, 64, 127
2, 51813, Note_on_c, 0, 44, 0
2, 51842, Note_on_c, 0, 63, 0
2, 51850, Note_on_c, 0, 75, 0
2, 51922, Note_on_c, 0, 61, 52
2, 51928, Note_on_c, 0, 66, 47
2, 51928, Note_on_c, 0, 58, 44
2, 51928, Note_on_c, 0, 70, 52
2, 51942, Note_on_c, 0, 54, 45
2, 51951, Note_on_c, 0, 70, 0
2, 51956, Note_on_c, 0, 66, 0
2, 51961, Note_on_c, 0, 54, 0
2, 51963, Note_on_c, 0, 58, 0
2, 51963, Note_on_c, 0, 61, 0
2, 52035, Note_on_c, 0, 61, 69
2, 52045, Note_on_c, 0, 54, 47
2, 52048, Note_on_c, 0, 70, 58
2, 52061, Note_on_c, 0, 61, 0
2, 52061, Note_on_c, 0, 58, 34
2, 52065, Note_on_c, 0, 70, 0
2, 52082, Note_on_c, 0, 54, 0
2, 52086, Note_on_c, 0, 58, 0
2, 52167, Note_on_c, 0, 77, 70
2, 52237, Note_on_c, 0, 77, 0
2, 52287, Note_on_c, 0, 66, 62
2, 52292, Note_on_c, 0, 58, 55
2, 52298, Note_on_c, 0, 56, 53
2, 52300, Note_on_c, 0, 72, 57
2, 52316, Note_on_c, 0, 56, 0
2, 52322, Note_on_c, 0, 72, 0
2, 52331, Note_on_c, 0, 58, 0
2, 52340, Note_on_c, 0, 66, 0
2, 52405, Note_on_c, 0, 80, 74
2, 52406, Note_on_c, 0, 66, 56
2, 52408, Note_on_c, 0, 58, 46
2, 52410, Note_on_c, 0, 68, 52
2, 52417, Note_on_c, 0, 56, 58
2, 52426, Note_on_c, 0, 68, 0
2, 52440, Note_on_c, 0, 66, 0
2, 52440, Note_on_c, 0, 56, 0
2, 52445, Note_on_c, 0, 58, 0
2, 52446, Note_on_c, 0, 80, 0
2, 52563, Note_on_c, 0, 49, 60
2, 52567, Note_on_c, 0, 75, 68
2, 52583, Control_c, 0, 64, 0
2, 52638, Note_on_c, 0, 49, 0
2, 52641, Control_c, 0, 64, 127
2, 52686, Note_on_c, 0, 68, 60
2, 52691, Note_on_c, 0, 65, 60
2, 52691, Note_on_c, 0, 56, 77
2, 52726, Note_on_c, 0, 56, 0
2, 52728, Note_on_c, 0, 68, 0
2, 52733, Note_on_c, 0, 65, 0
2, 52762, Note_on_c, 0, 75, 0
2, 52795, Note_on_c, 0, 56, 92
2, 52803, Note_on_c, 0, 68, 71
2, 52807, Note_on_c, 0, 65, 69
2, 52840, Note_on_c, 0, 56, 0
2, 52841, Note_on_c, 0, 68, 0
2, 52846, Note_on_c, 0, 65, 0
2, 52898, Note_on_c, 0, 56, 89
2, 52908, Note_on_c, 0, 68, 68
2, 52912, Note_on_c, 0, 65, 74
2, 52948, Note_on_c, 0, 68, 0
2, 52953, Note_on_c, 0, 65, 0
2, 52965, Note_on_c, 0, 56, 0
2, 53008, Note_on_c, 0, 58, 95
2, 53013, Note_on_c, 0, 68, 75
2, 53017, Note_on_c, 0, 65, 83
2, 53052, Note_on_c, 0, 65, 0
2, 53056, Note_on_c, 0, 58, 0
2, 53057, Note_on_c, 0, 68, 0
2, 53117, Note_on_c, 0, 68, 69
2, 53120, Note_on_c, 0, 56, 96
2, 53120, Note_on_c, 0, 65, 85
2, 53147, Note_on_c, 0, 68, 0
2, 53151, Note_on_c, 0, 65, 0
2, 53151, Note_on_c, 0, 56, 0
2, 53281, Control_c, 0, 64, 0
2, 53283, Note_on_c, 0, 60, 88
2, 53283, Note_on_c, 0, 34, 103
2, 53285, Note_on_c, 0, 22, 91
2, 53286, Note_on_c, 0, 48, 100
2, 53312, Note_on_c, 0, 34, 0
2, 53313, Note_on_c, 0, 22, 0
2, 53315, Control_c, 0, 64, 127
2, 53396, Note_on_c, 0, 60, 0
2, 53403, Note_on_c, 0, 48, 0
2, 53422, Note_on_c, 0, 53, 83
2, 53427, Note_on_c, 0, 56, 68
2, 53466, Note_on_c, 0, 56, 0
2, 53476, Note_on_c, 0, 53, 0
2, 53535, Note_on_c, 0, 53, 46
2, 53536, Note_on_c, 0, 56, 82
2, 53551, Note_on_c, 0, 53, 0
2, 53552, Note_on_c, 0, 56, 0
2, 53562, Note_on_c, 0, 55, 39
2, 53578, Note_on_c, 0, 55, 0
2, 53690, Note_on_c, 0, 67, 93
2, 53693, Note_on_c, 0, 55, 100
2, 53845, Note_on_c, 0, 60, 80
2, 53845, Note_on_c, 0, 63, 84
2, 53868, Note_on_c, 0, 55, 0
2, 53870, Note_on_c, 0, 67, 0
2, 53890, Note_on_c, 0, 60, 0
2, 53902, Note_on_c, 0, 63, 0
2, 54056, Note_on_c, 0, 55, 95
2, 54057, Note_on_c, 0, 67, 81
2, 54075, Note_on_c, 0, 67, 0
2, 54085, Note_on_c, 0, 55, 0
2, 54093, Control_c, 0, 64, 0
2, 54095, Note_on_c, 0, 34, 95
2, 54101, Note_on_c, 0, 67, 107
2, 54103, Note_on_c, 0, 55, 100
2, 54137, Note_on_c, 0, 34, 0
2, 54137, Control_c, 0, 64, 127
2, 54255, Note_on_c, 0, 55, 0
2, 54296, Note_on_c, 0, 55, 69
2, 54298, Note_on_c, 0, 56, 78
2, 54301, Note_on_c, 0, 63, 72
2, 54302, Note_on_c, 0, 60, 69
2, 54336, Note_on_c, 0, 67, 0
2, 54347, Note_on_c, 0, 60, 0
2, 54350, Note_on_c, 0, 56, 0
2, 54355, Note_on_c, 0, 63, 0
2, 54360, Note_on_c, 0, 55, 0
2, 54415, Note_on_c, 0, 56, 95
2, 54423, Note_on_c, 0, 63, 72
2, 54426, Note_on_c, 0, 55, 65
2, 54427, Note_on_c, 0, 60, 65
2, 54447, Note_on_c, 0, 55, 0
2, 54457, Note_on_c, 0, 60, 0
2, 54465, Note_on_c, 0, 63, 0
2, 54465, Note_on_c, 0, 56, 0
2, 54521, Note_on_c, 0, 56, 96
2, 54537, Note_on_c, 0, 55, 72
2, 54537, Note_on_c, 0, 63, 70
2, 54541, Note_on_c, 0, 60, 68
2, 54577, Note_on_c, 0, 55, 0
2, 54585, Note_on_c, 0, 60, 0
2, 54587, Note_on_c, 0, 63, 0
2, 54597, Note_on_c, 0, 56, 0
2, 54645, Note_on_c, 0, 58, 86
2, 54658, Note_on_c, 0, 63, 72
2, 54666, Note_on_c, 0, 60, 60
2, 54668, Note_on_c, 0, 55, 56
2, 54686, Note_on_c, 0, 55, 0
2, 54686, Note_on_c, 0, 60, 0
2, 54693, Note_on_c, 0, 58, 0
2, 54701, Note_on_c, 0, 63, 0
2, 54778, Note_on_c, 0, 63, 62
2, 54785, Note_on_c, 0, 55, 58
2, 54785, Note_on_c, 0, 56, 86
2, 54790, Note_on_c, 0, 60, 48
2, 54801, Note_on_c, 0, 55, 0
2, 54807, Note_on_c, 0, 60, 0
2, 54810, Note_on_c, 0, 63, 0
2, 54821, Note_on_c, 0, 56, 0
2, 54957, Note_on_c, 0, 77, 86
2, 54957, Note_on_c, 0, 65, 83
2, 54960, Control_c, 0, 64, 0
2, 54961, Note_on_c, 0, 46, 72
2, 54993, Control_c, 0, 64, 127
2, 55000, Note_on_c, 0, 46, 0
2, 55106, Note_on_c, 0, 68, 59
2, 55115, Note_on_c, 0, 72, 58
2, 55116, Note_on_c, 0, 60, 56
2, 55116, Note_on_c, 0, 56, 57
2, 55137, Note_on_c, 0, 60, 0
2, 55151, Note_on_c, 0, 56, 0
2, 55162, Note_on_c, 0, 68, 0
2, 55165, Note_on_c, 0, 72, 0
2, 55205, Note_on_c, 0, 77, 0
2, 55242, Note_on_c, 0, 56, 54
2, 55242, Note_on_c, 0, 68, 61
2, 55245, Note_on_c, 0, 60, 52
2, 55248, Note_on_c, 0, 72, 64
2, 55285, Note_on_c, 0, 65, 0
2, 55287, Note_on_c, 0, 68, 0
2, 55296, Note_on_c, 0, 72, 0
2, 55341, Note_on_c, 0, 60, 0
2, 55362, Note_on_c, 0, 56, 0
2, 55373, Note_on_c, 0, 79, 83
2, 55376, Note_on_c, 0, 67, 96
2, 55453, Note_on_c, 0, 79, 0
2, 55518, Note_on_c, 0, 58, 70
2, 55520, Note_on_c, 0, 68, 71
2, 55525, Note_on_c, 0, 56, 64
2, 55553, Note_on_c, 0, 67, 0
2, 55555, Note_on_c, 0, 56, 0
2, 55556, Note_on_c, 0, 58, 0
2, 55590, Note_on_c, 0, 68, 0
2, 55675, Note_on_c, 0, 70, 82
2, 55675, Note_on_c, 0, 68, 61
2, 55676, Note_on_c, 0, 56, 61
2, 55680, Note_on_c, 0, 62, 77
2, 55680, Note_on_c, 0, 58, 48
2, 55692, Note_on_c, 0, 56, 0
2, 55696, Note_on_c, 0, 62, 0
2, 55696, Note_on_c, 0, 58, 0
2, 55706, Note_on_c, 0, 68, 0
2, 55727, Note_on_c, 0, 70, 0
2, 55867, Note_on_c, 0, 75, 86
2, 55872, Note_on_c, 0, 39, 78
2, 55875, Control_c, 0, 64, 0
2, 55910, Note_on_c, 0, 39, 0
2, 55912, Control_c, 0, 64, 127
2, 56052, Note_on_c, 0, 63, 71
2, 56056, Note_on_c, 0, 67, 67
2, 56057, Note_on_c, 0, 55, 64
2, 56103, Note_on_c, 0, 63, 0
2, 56126, Note_on_c, 0, 67, 0
2, 56223, Note_on_c, 0, 67, 67
2, 56226, Note_on_c, 0, 63, 65
2, 56236, Note_on_c, 0, 58, 58
2, 56245, Note_on_c, 0, 55, 0
2, 56297, Note_on_c, 0, 63, 0
2, 56305, Note_on_c, 0, 58, 0
2, 56318, Note_on_c, 0, 67, 0
2, 56403, Note_on_c, 0, 63, 73
2, 56576, Note_on_c, 0, 63, 0
2, 56605, Note_on_c, 0, 67, 66
2, 56645, Note_on_c, 0, 75, 0
2, 56687, Note_on_c, 0, 67, 0
2, 56861, Note_on_c, 0, 70, 57
2, 56900, Note_on_c, 0, 70, 0
2, 57231, Note_on_c, 0, 82, 88
2, 57255, Note_on_c, 0, 51, 67
2, 57260, Control_c, 0, 64, 0
2, 57302, Control_c, 0, 64, 127
2, 57347, Note_on_c, 0, 51, 0
2, 57537, Note_on_c, 0, 66, 48
2, 57537, Note_on_c, 0, 78, 57
2, 57540, Note_on_c, 0, 73, 55
2, 57548, Note_on_c, 0, 70, 37
2, 57552, Note_on_c, 0, 61, 43
2, 57615, Note_on_c, 0, 73, 0
2, 57617, Note_on_c, 0, 61, 0
2, 57621, Note_on_c, 0, 66, 0
2, 57623, Note_on_c, 0, 70, 0
2, 57640, Note_on_c, 0, 78, 0
2, 57726, Note_on_c, 0, 66, 43
2, 57727, Note_on_c, 0, 73, 55
2, 57727, Note_on_c, 0, 78, 52
2, 57731, Note_on_c, 0, 70, 45
2, 57732, Note_on_c, 0, 61, 45
2, 57752, Note_on_c, 0, 73, 0
2, 57766, Note_on_c, 0, 82, 0
2, 57771, Note_on_c, 0, 78, 0
2, 57960, Note_on_c, 0, 97, 112
2, 58211, Note_on_c, 0, 85, 64
2, 58213, Note_on_c, 0, 90, 62
2, 58368, Note_on_c, 0, 97, 0
2, 58376, Note_on_c, 0, 61, 0
2, 58378, Note_on_c, 0, 85, 0
2, 58381, Note_on_c, 0, 90, 0
2, 58387, Note_on_c, 0, 66, 0
2, 58390, Note_on_c, 0, 70, 0
2, 58687, Note_on_c, 0, 97, 103
2, 58742, Note_on_c, 0, 97, 0
2, 58782, Note_on_c, 0, 97, 100
2, 58787, Note_on_c, 0, 63, 91
2, 58800, Control_c, 0, 64, 0
2, 58828, Control_c, 0, 64, 127
2, 59055, Note_on_c, 0, 85, 82
2, 59057, Note_on_c, 0, 69, 75
2, 59060, Note_on_c, 0, 90, 71
2, 59158, Note_on_c, 0, 90, 0
2, 59161, Note_on_c, 0, 85, 0
2, 59228, Note_on_c, 0, 73, 75
2, 59228, Note_on_c, 0, 90, 74
2, 59232, Note_on_c, 0, 85, 78
2, 59305, Note_on_c, 0, 85, 0
2, 59313, Note_on_c, 0, 69, 0
2, 59316, Note_on_c, 0, 90, 0
2, 59352, Note_on_c, 0, 63, 0
2, 59383, Note_on_c, 0, 85, 82
2, 59385, Note_on_c, 0, 90, 71
2, 59391, Note_on_c, 0, 75, 69
2, 59397, Note_on_c, 0, 97, 0
2, 59412, Note_on_c, 0, 73, 0
2, 59433, Note_on_c, 0, 75, 0
2, 59446, Note_on_c, 0, 85, 0
2, 59473, Note_on_c, 0, 90, 0
2, 59563, Note_on_c, 0, 95, 107
2, 59566, Note_on_c, 0, 85, 98
2, 59570, Note_on_c, 0, 78, 79
2, 59630, Note_on_c, 0, 85, 0
2, 59745, Note_on_c, 0, 95, 0
2, 59797, Note_on_c, 0, 85, 87
2, 59801, Note_on_c, 0, 93, 83
2, 59805, Note_on_c, 0, 75, 72
2, 59811, Note_on_c, 0, 78, 0
2, 59830, Note_on_c, 0, 93, 0
2, 59835, Note_on_c, 0, 85, 0
2, 59891, Note_on_c, 0, 75, 0
2, 60008, Note_on_c, 0, 90, 69
2, 60013, Note_on_c, 0, 75, 66
2, 60016, Note_on_c, 0, 81, 76
2, 60100, Note_on_c, 0, 81, 0
2, 60168, Note_on_c, 0, 90, 0
2, 60210, Note_on_c, 0, 73, 69
2, 60212, Note_on_c, 0, 75, 0
2, 60215, Note_on_c, 0, 78, 60
2, 60217, Note_on_c, 0, 87, 62
2, 60270, Note_on_c, 0, 78, 0
2, 60337, Note_on_c, 0, 87, 0
2, 60355, Note_on_c, 0, 73, 0
2, 60360, Note_on_c, 0, 69, 59
2, 60363, Note_on_c, 0, 75, 49
2, 60366, Note_on_c, 0, 85, 71
2, 60377, Note_on_c, 0, 69, 0
2, 60407, Note_on_c, 0, 85, 0
2, 60412, Note_on_c, 0, 75, 0
2, 60511, Note_on_c, 0, 73, 59
2, 60511, Note_on_c, 0, 80, 58
2, 60511, Note_on_c, 0, 66, 57
2, 60568, Note_on_c, 0, 73, 0
2, 60617, Note_on_c, 0, 80, 0
2, 60696, Note_on_c, 0, 66, 0
2, 60698, Note_on_c, 0, 83, 59
2, 60701, Note_on_c, 0, 75, 52
2, 60708, Note_on_c, 0, 69, 34
2, 60782, Note_on_c, 0, 75, 0
2, 60795, Note_on_c, 0, 69, 0
2, 60906, Note_on_c, 0, 68, 48
2, 60908, Note_on_c, 0, 81, 57
2, 60915, Note_on_c, 0, 73, 47
2, 60926, Note_on_c, 0, 83, 0
2, 61017, Note_on_c, 0, 81, 0
2, 61020, Note_on_c, 0, 73, 0
2, 61187, Note_on_c, 0, 72, 50
2, 61190, Note_on_c, 0, 77, 55
2, 61197, Note_on_c, 0, 63, 45
2, 61205, Note_on_c, 0, 68, 0
2, 61477, Note_on_c, 0, 77, 0
2, 61582, Note_on_c, 0, 73, 45
2, 61587, Note_on_c, 0, 78, 47
2, 61588, Note_on_c, 0, 65, 47
2, 61600, Note_on_c, 0, 63, 0
2, 61601, Note_on_c, 0, 72, 0
2, 62161, Note_on_c, 0, 78, 0
2, 62196, Note_on_c, 0, 73, 0
2, 62320, Note_on_c, 0, 65, 0
2, 62327, Note_on_c, 0, 75, 44
2, 62330, Note_on_c, 0, 66, 38
2, 62340, Note_on_c, 0, 81, 37
2, 63091, Note_on_c, 0, 75, 0
2, 63145, Note_on_c, 0, 81, 0
2, 63326, Note_on_c, 0, 66, 0
2, 64106, Control_c, 0, 64, 0
2, 64437, Control_c, 0, 64, 127
2, 64683, Note_on_c, 0, 89, 50
2, 64685, Note_on_c, 0, 82, 44
2, 64687, Note_on_c, 0, 85, 50
2, 64693, Note_on_c, 0, 32, 39
2, 64693, Note_on_c, 0, 77, 45
2, 64696, Note_on_c, 0, 44, 36
2, 64752, Note_on_c, 0, 32, 0
2, 64765, Note_on_c, 0, 44, 0
2, 65026, Note_on_c, 0, 89, 0
2, 65041, Note_on_c, 0, 85, 0
2, 65045, Note_on_c, 0, 82, 0
2, 65065, Note_on_c, 0, 77, 0
2, 65080, Note_on_c, 0, 51, 52
2, 65226, Note_on_c, 0, 51, 0
2, 65257, Note_on_c, 0, 56, 47
2, 65306, Note_on_c, 0, 61, 55
2, 65325, Note_on_c, 0, 56, 0
2, 65358, Note_on_c, 0, 66, 45
2, 65363, Note_on_c, 0, 61, 0
2, 65371, Note_on_c, 0, 70, 54
2, 65391, Note_on_c, 0, 66, 0
2, 65422, Note_on_c, 0, 73, 60
2, 65436, Note_on_c, 0, 70, 0
2, 65470, Note_on_c, 0, 78, 45
2, 65485, Note_on_c, 0, 73, 0
2, 65498, Note_on_c, 0, 82, 64
2, 65518, Note_on_c, 0, 78, 0
2, 65531, Note_on_c, 0, 82, 0
2, 65598, Note_on_c, 0, 61, 48
2, 65598, Note_on_c, 0, 75, 52
2, 65601, Note_on_c, 0, 70, 47
2, 65602, Note_on_c, 0, 66, 49
2, 65608, Note_on_c, 0, 87, 55
2, 65613, Note_on_c, 0, 78, 46
2, 65622, Note_on_c, 0, 82, 48
2, 65716, Note_on_c, 0, 75, 0
2, 65737, Note_on_c, 0, 87, 0
2, 65737, Note_on_c, 0, 61, 0
2, 65880, Note_on_c, 0, 85, 58
2, 65886, Note_on_c, 0, 73, 43
2, 65918, Note_on_c, 0, 60, 28
2, 65987, Note_on_c, 0, 70, 0
2, 66010, Note_on_c, 0, 85, 0
2, 66025, Note_on_c, 0, 78, 0
2, 66026, Note_on_c, 0, 73, 0
2, 66028, Note_on_c, 0, 66, 0
2, 66032, Note_on_c, 0, 60, 0
2, 66046, Note_on_c, 0, 82, 0
2, 66253, Note_on_c, 0, 84, 69
2, 66257, Note_on_c, 0, 72, 63
2, 66296, Note_on_c, 0, 72, 0
2, 66306, Note_on_c, 0, 84, 0
2, 66391, Control_c, 0, 64, 0
2, 66415, Note_on_c, 0, 37, 57
2, 66415, Note_on_c, 0, 75, 49
2, 66417, Note_on_c, 0, 87, 59
2, 66417, Note_on_c, 0, 80, 58
2, 66435, Control_c, 0, 64, 127
2, 66452, Note_on_c, 0, 37, 0
2, 66471, Note_on_c, 0, 75, 0
2, 66471, Note_on_c, 0, 87, 0
2, 66472, Note_on_c, 0, 80, 0
2, 66635, Note_on_c, 0, 53, 50
2, 66635, Note_on_c, 0, 68, 50
2, 66637, Note_on_c, 0, 73, 52
2, 66642, Note_on_c, 0, 77, 61
2, 66651, Note_on_c, 0, 61, 42
2, 66657, Note_on_c, 0, 56, 53
2, 66675, Note_on_c, 0, 56, 0
2, 66675, Note_on_c, 0, 68, 0
2, 66676, Note_on_c, 0, 53, 0
2, 66681, Note_on_c, 0, 73, 0
2, 66682, Note_on_c, 0, 61, 0
2, 66695, Note_on_c, 0, 77, 0
2, 66805, Note_on_c, 0, 61, 41
2, 66805, Note_on_c, 0, 56, 50
2, 66806, Note_on_c, 0, 80, 59
2, 66816, Note_on_c, 0, 73, 52
2, 66816, Note_on_c, 0, 65, 42
2, 66821, Note_on_c, 0, 77, 49
2, 66827, Note_on_c, 0, 56, 0
2, 66841, Note_on_c, 0, 65, 0
2, 66845, Note_on_c, 0, 61, 0
2, 66856, Note_on_c, 0, 73, 0
2, 66867, Note_on_c, 0, 80, 0
2, 66873, Note_on_c, 0, 77, 0
2, 66995, Note_on_c, 0, 85, 65
2, 67005, Note_on_c, 0, 77, 53
2, 67005, Note_on_c, 0, 65, 46
2, 67007, Note_on_c, 0, 73, 43
2, 67007, Note_on_c, 0, 80, 50
2, 67010, Note_on_c, 0, 61, 40
2, 67011, Note_on_c, 0, 68, 37
2, 67098, Note_on_c, 0, 65, 0
2, 67110, Note_on_c, 0, 61, 0
2, 67125, Note_on_c, 0, 85, 0
2, 67133, Note_on_c, 0, 73, 0
2, 67141, Note_on_c, 0, 68, 0
2, 67150, Note_on_c, 0, 77, 0
2, 67165, Note_on_c, 0, 80, 0
2, 67278, Note_on_c, 0, 84, 44
2, 67281, Note_on_c, 0, 68, 27
2, 67283, Note_on_c, 0, 72, 37
2, 67287, Note_on_c, 0, 60, 37
2, 67293, Note_on_c, 0, 65, 40
2, 67300, Note_on_c, 0, 80, 40
2, 67367, Note_on_c, 0, 68, 0
2, 67367, Note_on_c, 0, 84, 0
2, 67372, Note_on_c, 0, 80, 0
2, 67406, Note_on_c, 0, 72, 0
2, 67446, Note_on_c, 0, 65, 0
2, 67463, Note_on_c, 0, 60, 0
2, 67638, Note_on_c, 0, 70, 64
2, 67725, Control_c, 0, 64, 0
2, 67758, Note_on_c, 0, 73, 64
2, 67765, Note_on_c, 0, 29, 51
2, 67797, Control_c, 0, 64, 127
2, 67807, Note_on_c, 0, 29, 0
2, 67963, Note_on_c, 0, 58, 34
2, 67967, Note_on_c, 0, 66, 45
2, 67971, Note_on_c, 0, 63, 41
2, 68043, Note_on_c, 0, 73, 0
2, 68071, Note_on_c, 0, 66, 0
2, 68142, Note_on_c, 0, 58, 0
2, 68158, Note_on_c, 0, 57, 44
2, 68166, Note_on_c, 0, 65, 45
2, 68201, Note_on_c, 0, 70, 0
2, 68271, Note_on_c, 0, 63, 0
2, 68356, Note_on_c, 0, 57, 0
2, 68365, Note_on_c, 0, 65, 0
2, 68376, Note_on_c, 0, 72, 48
2, 68388, Note_on_c, 0, 53, 39
2, 68575, Note_on_c, 0, 53, 0
2, 68651, Note_on_c, 0, 70, 45
2, 68652, Note_on_c, 0, 72, 0
2, 68736, Note_on_c, 0, 70, 0
2, 68760, Control_c, 0, 64, 0
2, 69016, Note_on_c, 0, 69, 46
2, 69135, Control_c, 0, 64, 127
2, 69161, Note_on_c, 0, 46, 42
2, 69161, Note_on_c, 0, 72, 49
2, 69227, Note_on_c, 0, 69, 0
2, 69237, Note_on_c, 0, 46, 0
2, 69438, Note_on_c, 0, 65, 39
2, 69441, Note_on_c, 0, 56, 38
2, 69457, Note_on_c, 0, 61, 41
2, 69520, Note_on_c, 0, 65, 0
2, 69526, Note_on_c, 0, 56, 0
2, 69527, Note_on_c, 0, 61, 0
2, 69635, Note_on_c, 0, 56, 42
2, 69637, Note_on_c, 0, 65, 43
2, 69658, Note_on_c, 0, 61, 31
2, 69815, Note_on_c, 0, 72, 0
2, 69872, Note_on_c, 0, 70, 38
2, 69883, Note_on_c, 0, 65, 0
2, 69900, Note_on_c, 0, 61, 0
2, 69912, Note_on_c, 0, 56, 0
2, 69950, Note_on_c, 0, 70, 0
2, 70010, Control_c, 0, 64, 0
2, 70147, Note_on_c, 0, 65, 37
2, 70150, Note_on_c, 0, 70, 44
2, 70156, Note_on_c, 0, 56, 36
2, 70158, Note_on_c, 0, 61, 29
2, 70226, Control_c, 0, 64, 127
2, 70525, Note_on_c, 0, 71, 48
2, 70571, Note_on_c, 0, 65, 0
2, 70638, Note_on_c, 0, 70, 0
2, 70788, Note_on_c, 0, 71, 0
2, 70855, Note_on_c, 0, 61, 0
2, 70867, Note_on_c, 0, 72, 44
2, 70873, Note_on_c, 0, 51, 39
2, 70905, Control_c, 0, 64, 0
2, 70912, Note_on_c, 0, 56, 0
2, 70962, Control_c, 0, 64, 127
2, 71111, Note_on_c, 0, 68, 43
2, 71115, Note_on_c, 0, 63, 40
2, 71138, Note_on_c, 0, 72, 0
2, 71178, Note_on_c, 0, 63, 0
2, 71180, Note_on_c, 0, 68, 0
2, 71265, Note_on_c, 0, 59, 42
2, 71317, Note_on_c, 0, 63, 53
2, 71347, Note_on_c, 0, 68, 53
2, 71355, Note_on_c, 0, 63, 0
2, 71395, Note_on_c, 0, 77, 72
2, 71405, Note_on_c, 0, 68, 0
2, 71778, Note_on_c, 0, 75, 62
2, 71792, Note_on_c, 0, 60, 45
2, 71832, Note_on_c, 0, 51, 0
2, 71833, Note_on_c, 0, 59, 0
2, 71897, Note_on_c, 0, 60, 0
2, 72031, Note_on_c, 0, 67, 64
2, 72038, Note_on_c, 0, 63, 47
2, 72055, Note_on_c, 0, 77, 0
2, 72111, Note_on_c, 0, 75, 0
2, 72263, Note_on_c, 0, 68, 53
2, 72267, Note_on_c, 0, 56, 45
2, 72285, Note_on_c, 0, 63, 0
2, 72290, Note_on_c, 0, 67, 0
2, 72322, Note_on_c, 0, 68, 0
2, 72566, Note_on_c, 0, 70, 54
2, 72575, Note_on_c, 0, 61, 40
2, 72576, Note_on_c, 0, 65, 43
2, 72603, Control_c, 0, 64, 0
2, 72661, Control_c, 0, 64, 127
2, 72706, Note_on_c, 0, 61, 0
2, 72710, Note_on_c, 0, 65, 0
2, 72811, Note_on_c, 0, 61, 40
2, 72818, Note_on_c, 0, 65, 42
2, 72875, Note_on_c, 0, 61, 0
2, 72880, Note_on_c, 0, 65, 0
2, 72956, Note_on_c, 0, 56, 0
2, 72991, Note_on_c, 0, 61, 37
2, 72996, Note_on_c, 0, 65, 43
2, 73047, Note_on_c, 0, 65, 0
2, 73050, Note_on_c, 0, 61, 0
2, 73186, Note_on_c, 0, 61, 31
2, 73193, Note_on_c, 0, 64, 35
2, 73200, Note_on_c, 0, 55, 41
2, 73215, Control_c, 0, 64, 0
2, 73272, Note_on_c, 0, 64, 0
2, 73273, Note_on_c, 0, 61, 0
2, 73281, Control_c, 0, 64, 127
2, 73382, Note_on_c, 0, 61, 34
2, 73388, Note_on_c, 0, 64, 42
2, 73435, Note_on_c, 0, 61, 0
2, 73450, Note_on_c, 0, 64, 0
2, 73468, Note_on_c, 0, 70, 0
2, 73561, Note_on_c, 0, 55, 0
2, 73602, Note_on_c, 0, 71, 55
2, 73617, Note_on_c, 0, 61, 42
2, 73618, Note_on_c, 0, 64, 46
2, 73647, Note_on_c, 0, 64, 0
2, 73673, Note_on_c, 0, 61, 0
2, 73678, Note_on_c, 0, 71, 0
2, 73932, Note_on_c, 0, 72, 50
2, 73941, Note_on_c, 0, 68, 49
2, 73950, Note_on_c, 0, 51, 41
2, 73950, Note_on_c, 0, 44, 45
2, 73951, Note_on_c, 0, 36, 39
2, 73955, Note_on_c, 0, 63, 35
2, 73975, Control_c, 0, 64, 0
2, 73975, Note_on_c, 0, 60, 20
2, 74052, Note_on_c, 0, 60, 0
2, 74055, Note_on_c, 0, 63, 0
2, 74071, Control_c, 0, 64, 127
2, 74180, Note_on_c, 0, 63, 47
2, 74180, Note_on_c, 0, 60, 36
2, 74206, Note_on_c, 0, 36, 0
2, 74233, Note_on_c, 0, 44, 0
2, 74241, Note_on_c, 0, 63, 0
2, 74251, Note_on_c, 0, 51, 0
2, 74267, Note_on_c, 0, 60, 0
2, 74366, Note_on_c, 0, 60, 31
2, 74370, Note_on_c, 0, 63, 49
2, 74432, Note_on_c, 0, 60, 0
2, 74436, Note_on_c, 0, 63, 0
2, 74562, Note_on_c, 0, 60, 38
2, 74566, Note_on_c, 0, 55, 45
2, 74578, Note_on_c, 0, 63, 40
2, 74611, Note_on_c, 0, 72, 0
2, 74646, Note_on_c, 0, 68, 0
2, 74651, Note_on_c, 0, 63, 0
2, 74651, Note_on_c, 0, 60, 0
2, 74758, Note_on_c, 0, 67, 51
2, 74761, Note_on_c, 0, 63, 45
2, 74765, Note_on_c, 0, 60, 41
2, 74823, Note_on_c, 0, 63, 0
2, 74826, Note_on_c, 0, 67, 0
2, 74837, Note_on_c, 0, 60, 0
2, 74960, Note_on_c, 0, 68, 53
2, 74968, Note_on_c, 0, 60, 33
2, 75036, Note_on_c, 0, 68, 0
2, 75038, Note_on_c, 0, 60, 0
2, 75210, Note_on_c, 0, 55, 0
2, 75210, Note_on_c, 0, 63, 41
2, 75212, Note_on_c, 0, 70, 58
2, 75217, Note_on_c, 0, 60, 35
2, 75230, Note_on_c, 0, 53, 42
2, 75250, Control_c, 0, 64, 0
2, 75297, Control_c, 0, 64, 127
2, 75341, Note_on_c, 0, 60, 0
2, 75352, Note_on_c, 0, 63, 0
2, 75365, Note_on_c, 0, 70, 0
2, 75437, Note_on_c, 0, 63, 42
2, 75438, Note_on_c, 0, 60, 40
2, 75448, Note_on_c, 0, 65, 51
2, 75510, Note_on_c, 0, 63, 0
2, 75515, Note_on_c, 0, 65, 0
2, 75520, Note_on_c, 0, 60, 0
2, 75625, Note_on_c, 0, 68, 48
2, 75632, Note_on_c, 0, 60, 41
2, 75648, Note_on_c, 0, 63, 39
2, 75705, Note_on_c, 0, 60, 0
2, 75710, Note_on_c, 0, 63, 0
2, 75732, Note_on_c, 0, 68, 0
2, 75808, Note_on_c, 0, 67, 50
2, 75810, Note_on_c, 0, 53, 0
2, 75818, Note_on_c, 0, 63, 40
2, 75820, Note_on_c, 0, 56, 38
2, 75826, Note_on_c, 0, 60, 30
2, 75831, Control_c, 0, 64, 0
2, 75870, Control_c, 0, 64, 127
2, 75906, Note_on_c, 0, 60, 0
2, 75908, Note_on_c, 0, 67, 0
2, 75918, Note_on_c, 0, 63, 0
2, 76003, Note_on_c, 0, 60, 31
2, 76011, Note_on_c, 0, 65, 41
2, 76086, Note_on_c, 0, 60, 0
2, 76092, Note_on_c, 0, 65, 0
2, 76205, Note_on_c, 0, 60, 43
2, 76250, Note_on_c, 0, 60, 0
2, 76298, Note_on_c, 0, 56, 0
2, 76477, Note_on_c, 0, 55, 41
2, 76478, Note_on_c, 0, 60, 36
2, 76480, Note_on_c, 0, 63, 44
2, 76637, Note_on_c, 0, 55, 0
2, 76741, Note_on_c, 0, 55, 42
2, 76747, Note_on_c, 0, 48, 44
2, 76848, Note_on_c, 0, 55, 0
2, 76950, Note_on_c, 0, 48, 0
2, 76952, Note_on_c, 0, 55, 45
2, 76971, Note_on_c, 0, 53, 47
2, 77048, Note_on_c, 0, 55, 0
2, 77112, Note_on_c, 0, 53, 0
2, 77136, Note_on_c, 0, 55, 46
2, 77138, Note_on_c, 0, 51, 52
2, 77240, Note_on_c, 0, 55, 0
2, 77257, Note_on_c, 0, 51, 0
2, 77311, Note_on_c, 0, 55, 45
2, 77316, Note_on_c, 0, 44, 45
2, 77387, Note_on_c, 0, 55, 0
2, 77496, Note_on_c, 0, 55, 45
2, 77501, Note_on_c, 0, 44, 0
2, 77508, Note_on_c, 0, 49, 40
2, 77563, Note_on_c, 0, 49, 0
2, 77595, Note_on_c, 0, 55, 0
2, 77751, Note_on_c, 0, 55, 39
2, 77771, Note_on_c, 0, 48, 34
2, 77800, Control_c, 0, 64, 0
2, 77857, Control_c, 0, 64, 127
2, 77978, Note_on_c, 0, 44, 31
2, 78027, Note_on_c, 0, 48, 0
2, 78088, Note_on_c, 0, 60, 0
2, 78133, Note_on_c, 0, 63, 0
2, 78201, Note_on_c, 0, 55, 0
2, 78218, Note_on_c, 0, 39, 45
2, 78258, Note_on_c, 0, 44, 0
2, 78302, Note_on_c, 0, 39, 0
2, 78576, Note_on_c, 0, 67, 45
2, 78588, Note_on_c, 0, 63, 47
2, 78591, Note_on_c, 0, 55, 38
2, 78593, Note_on_c, 0, 49, 35
2, 78595, Note_on_c, 0, 34, 34
2, 78598, Note_on_c, 0, 60, 37
2, 78598, Note_on_c, 0, 43, 44
2, 78636, Control_c, 0, 64, 0
2, 78723, Control_c, 0, 64, 127
2, 78776, Note_on_c, 0, 55, 0
2, 78777, Note_on_c, 0, 60, 0
2, 78808, Note_on_c, 0, 63, 0
2, 78887, Note_on_c, 0, 63, 40
2, 78908, Note_on_c, 0, 55, 36
2, 78911, Note_on_c, 0, 60, 34
2, 78981, Note_on_c, 0, 60, 0
2, 78995, Note_on_c, 0, 63, 0
2, 78997, Note_on_c, 0, 55, 0
2, 79016, Note_on_c, 0, 34, 0
2, 79068, Note_on_c, 0, 43, 0
2, 79070, Note_on_c, 0, 49, 0
2, 79116, Note_on_c, 0, 55, 33
2, 79123, Note_on_c, 0, 63, 43
2, 79128, Note_on_c, 0, 60, 38
2, 79175, Note_on_c, 0, 55, 0
2, 79400, Note_on_c, 0, 51, 42
2, 79408, Note_on_c, 0, 36, 43
2, 79413, Note_on_c, 0, 56, 47
2, 79421, Control_c, 0, 64, 0
2, 79471, Note_on_c, 0, 60, 0
2, 79483, Control_c, 0, 64, 127
2, 79485, Note_on_c, 0, 56, 0
2, 79487, Note_on_c, 0, 63, 0
2, 79502, Note_on_c, 0, 67, 0
2, 79641, Note_on_c, 0, 68, 58
2, 79657, Note_on_c, 0, 60, 39
2, 79658, Note_on_c, 0, 63, 40
2, 79742, Note_on_c, 0, 63, 0
2, 79761, Note_on_c, 0, 68, 0
2, 79762, Note_on_c, 0, 60, 0
2, 79831, Note_on_c, 0, 70, 64
2, 79845, Note_on_c, 0, 60, 55
2, 79871, Note_on_c, 0, 60, 0
2, 79898, Note_on_c, 0, 51, 0
2, 79905, Note_on_c, 0, 70, 0
2, 80031, Note_on_c, 0, 50, 53
2, 80038, Note_on_c, 0, 72, 63
2, 80047, Note_on_c, 0, 63, 52
2, 80050, Note_on_c, 0, 60, 42
2, 80070, Control_c, 0, 64, 0
2, 80137, Control_c, 0, 64, 127
2, 80167, Note_on_c, 0, 60, 0
2, 80181, Note_on_c, 0, 72, 0
2, 80192, Note_on_c, 0, 63, 0
2, 80228, Note_on_c, 0, 63, 35
2, 80245, Note_on_c, 0, 60, 45
2, 80245, Note_on_c, 0, 67, 59
2, 80312, Note_on_c, 0, 60, 0
2, 80317, Note_on_c, 0, 67, 0
2, 80320, Note_on_c, 0, 63, 0
2, 80333, Note_on_c, 0, 50, 0
2, 80442, Note_on_c, 0, 70, 58
2, 80458, Note_on_c, 0, 60, 39
2, 80461, Note_on_c, 0, 63, 42
2, 80501, Note_on_c, 0, 60, 0
2, 80515, Note_on_c, 0, 63, 0
2, 80530, Note_on_c, 0, 70, 0
2, 80665, Note_on_c, 0, 68, 46
2, 80668, Note_on_c, 0, 63, 44
2, 80675, Note_on_c, 0, 51, 39
2, 80677, Note_on_c, 0, 60, 38
2, 80705, Control_c, 0, 64, 0
2, 80748, Control_c, 0, 64, 127
2, 80807, Note_on_c, 0, 60, 0
2, 80815, Note_on_c, 0, 68, 0
2, 80817, Note_on_c, 0, 63, 0
2, 80917, Note_on_c, 0, 65, 49
2, 80918, Note_on_c, 0, 60, 40
2, 81006, Note_on_c, 0, 60, 0
2, 81013, Note_on_c, 0, 65, 0
2, 81103, Note_on_c, 0, 51, 0
2, 81206, Note_on_c, 0, 60, 42
2, 81253, Note_on_c, 0, 60, 0
2, 81270, Note_on_c, 0, 36, 0
2, 81588, Note_on_c, 0, 66, 42
2, 81593, Note_on_c, 0, 63, 56
2, 81595, Note_on_c, 0, 54, 42
2, 81597, Note_on_c, 0, 38, 41
2, 81600, Note_on_c, 0, 26, 46
2, 81607, Note_on_c, 0, 60, 43
2, 81612, Note_on_c, 0, 58, 41
2, 81643, Control_c, 0, 64, 0
2, 81720, Control_c, 0, 64, 127
2, 81830, Note_on_c, 0, 54, 0
2, 81838, Note_on_c, 0, 58, 0
2, 81845, Note_on_c, 0, 60, 0
2, 81930, Note_on_c, 0, 63, 0
2, 81957, Note_on_c, 0, 38, 0
2, 81983, Note_on_c, 0, 63, 19
2, 81998, Note_on_c, 0, 54, 39
2, 82011, Note_on_c, 0, 58, 34
2, 82023, Note_on_c, 0, 60, 31
2, 82073, Note_on_c, 0, 54, 0
2, 82077, Note_on_c, 0, 60, 0
2, 82080, Note_on_c, 0, 58, 0
2, 82121, Note_on_c, 0, 63, 0
2, 82203, Note_on_c, 0, 26, 0
2, 82217, Note_on_c, 0, 63, 38
2, 82232, Note_on_c, 0, 54, 34
2, 82242, Note_on_c, 0, 58, 32
2, 82258, Note_on_c, 0, 60, 28
2, 82293, Note_on_c, 0, 60, 0
2, 82300, Note_on_c, 0, 58, 0
2, 82310, Note_on_c, 0, 54, 0
2, 82330, Note_on_c, 0, 63, 0
2, 82426, Note_on_c, 0, 50, 51
2, 82430, Note_on_c, 0, 63, 46
2, 82446, Note_on_c, 0, 54, 31
2, 82455, Note_on_c, 0, 60, 36
2, 82458, Note_on_c, 0, 58, 30
2, 82512, Note_on_c, 0, 58, 0
2, 82521, Note_on_c, 0, 60, 0
2, 82543, Note_on_c, 0, 54, 0
2, 82573, Note_on_c, 0, 63, 0
2, 82677, Note_on_c, 0, 63, 39
2, 82691, Note_on_c, 0, 54, 31
2, 82706, Note_on_c, 0, 58, 28
2, 82722, Note_on_c, 0, 60, 24
2, 82752, Note_on_c, 0, 60, 0
2, 82761, Note_on_c, 0, 54, 0
2, 82762, Note_on_c, 0, 58, 0
2, 82812, Note_on_c, 0, 63, 0
2, 82892, Note_on_c, 0, 63, 22
2, 82908, Note_on_c, 0, 54, 30
2, 82916, Note_on_c, 0, 58, 32
2, 82931, Note_on_c, 0, 60, 33
2, 82962, Note_on_c, 0, 50, 0
2, 82995, Note_on_c, 0, 58, 0
2, 82995, Note_on_c, 0, 60, 0
2, 83032, Note_on_c, 0, 63, 0
2, 83043, Note_on_c, 0, 54, 0
2, 83181, Note_on_c, 0, 72, 52
2, 83187, Note_on_c, 0, 63, 48
2, 83192, Note_on_c, 0, 54, 35
2, 83205, Note_on_c, 0, 60, 40
2, 83207, Note_on_c, 0, 58, 34
2, 83318, Note_on_c, 0, 54, 0
2, 83321, Note_on_c, 0, 58, 0
2, 83331, Note_on_c, 0, 60, 0
2, 83501, Note_on_c, 0, 54, 27
2, 83503, Note_on_c, 0, 58, 32
2, 83517, Note_on_c, 0, 60, 30
2, 83551, Note_on_c, 0, 72, 0
2, 83588, Note_on_c, 0, 58, 0
2, 83588, Note_on_c, 0, 60, 0
2, 83602, Note_on_c, 0, 54, 0
2, 83825, Note_on_c, 0, 54, 25
2, 83827, Note_on_c, 0, 58, 34
2, 83850, Note_on_c, 0, 60, 29
2, 83917, Note_on_c, 0, 58, 0
2, 83921, Note_on_c, 0, 60, 0
2, 83923, Note_on_c, 0, 54, 0
2, 84252, Note_on_c, 0, 62, 33
2, 84252, Note_on_c, 0, 58, 32
2, 84272, Note_on_c, 0, 60, 29
2, 84511, Note_on_c, 0, 62, 0
2, 84515, Control_c, 0, 64, 0
2, 90030, Note_on_c, 0, 58, 0
2, 90030, Note_on_c, 0, 60, 0
2, 90036, Note_on_c, 0, 63, 0
2, 90041, Note_on_c, 0, 66, 0
2, 90041, End_track
3, 0, Start_track
3, 0, Title_t, "Les Soires de Nazelles II"
3, 0, End_track
4, 0, Start_track
4, 0, Title_t, "F. Poulenc"
4, 0, End_track
5, 0, Start_track
5, 0, Title_t, "Richard Summers"
5, 0, End_track
6, 0, Start_track
6, 0, Title_t, "rsummers73@compuserve.com"
6, 0, End_track
0, 0, End_of_file
