0, 0, Header, 1, 6, 240
1, 0, Start_track
1, 0, Title_t, "POULENC, Francis - 'Tres modere' Mouvments Perpetuels II, Seq Richard Summers"
1, 0, Copyright_t, "Adaptation for Disklavier pianos, by: Robert C. Kuhmann (c) 2012."
1, 0, Time_signature, 4, 2, 24, 8
1, 0, Key_signature, 0, "major"
1, 0, Tempo, 500000
1, 0, End_track
2, 0, Start_track
2, 0, Title_t, "Très modéré"
2, 0, Program_c, 0, 0
2, 0, Control_c, 0, 7, 115
2, 110, Note_on_c, 0, 62, 58
2, 342, Note_on_c, 0, 64, 64
2, 352, Note_on_c, 0, 61, 55
2, 353, Note_on_c, 0, 62, 0
2, 555, Note_on_c, 0, 64, 0
2, 565, Note_on_c, 0, 61, 0
2, 565, Note_on_c, 0, 65, 68
2, 573, Note_on_c, 0, 60, 56
2, 790, Note_on_c, 0, 60, 0
2, 791, Note_on_c, 0, 65, 0
2, 796, Note_on_c, 0, 67, 64
2, 805, Note_on_c, 0, 58, 53
2, 1013, Note_on_c, 0, 58, 0
2, 1022, Note_on_c, 0, 67, 0
2, 1027, Note_on_c, 0, 55, 55
2, 1035, Note_on_c, 0, 69, 60
2, 1258, Note_on_c, 0, 64, 58
2, 1265, Note_on_c, 0, 58, 47
2, 1270, Note_on_c, 0, 55, 0
2, 1288, Note_on_c, 0, 69, 0
2, 1466, Note_on_c, 0, 58, 0
2, 1470, Note_on_c, 0, 62, 55
2, 1473, Note_on_c, 0, 64, 0
2, 1473, Note_on_c, 0, 57, 54
2, 1692, Note_on_c, 0, 60, 53
2, 1698, Note_on_c, 0, 57, 0
2, 1810, Note_on_c, 0, 62, 0
2, 1811, Note_on_c, 0, 60, 0
2, 1921, Note_on_c, 0, 62, 62
2, 2151, Note_on_c, 0, 64, 63
2, 2155, Note_on_c, 0, 62, 0
2, 2163, Note_on_c, 0, 61, 53
2, 2372, Note_on_c, 0, 64, 0
2, 2381, Note_on_c, 0, 65, 65
2, 2383, Note_on_c, 0, 61, 0
2, 2393, Note_on_c, 0, 60, 45
2, 2613, Note_on_c, 0, 60, 0
2, 2616, Note_on_c, 0, 67, 63
2, 2618, Note_on_c, 0, 58, 50
2, 2621, Note_on_c, 0, 65, 0
2, 2840, Note_on_c, 0, 67, 0
2, 2843, Note_on_c, 0, 58, 0
2, 2843, Note_on_c, 0, 69, 61
2, 2843, Note_on_c, 0, 55, 52
2, 2941, Note_on_c, 0, 64, 63
2, 2950, Note_on_c, 0, 69, 0
2, 3050, Note_on_c, 0, 64, 0
2, 3058, Note_on_c, 0, 58, 49
2, 3061, Note_on_c, 0, 55, 0
2, 3068, Note_on_c, 0, 69, 49
2, 3152, Note_on_c, 0, 64, 58
2, 3183, Note_on_c, 0, 69, 0
2, 3242, Note_on_c, 0, 58, 0
2, 3273, Note_on_c, 0, 57, 53
2, 3277, Note_on_c, 0, 64, 0
2, 3278, Note_on_c, 0, 62, 52
2, 3503, Note_on_c, 0, 60, 50
2, 3522, Note_on_c, 0, 57, 0
2, 3592, Note_on_c, 0, 62, 0
2, 3608, Note_on_c, 0, 60, 0
2, 3720, Note_on_c, 0, 62, 63
2, 3941, Note_on_c, 0, 62, 0
2, 3945, Note_on_c, 0, 64, 63
2, 3948, Note_on_c, 0, 61, 54
2, 4151, Note_on_c, 0, 64, 0
2, 4171, Note_on_c, 0, 61, 0
2, 4172, Note_on_c, 0, 65, 66
2, 4173, Note_on_c, 0, 60, 59
2, 4378, Note_on_c, 0, 60, 0
2, 4387, Note_on_c, 0, 65, 0
2, 4395, Note_on_c, 0, 70, 72
2, 4397, Note_on_c, 0, 58, 55
2, 4610, Note_on_c, 0, 70, 0
2, 4620, Note_on_c, 0, 76, 74
2, 4623, Note_on_c, 0, 58, 0
2, 4628, Note_on_c, 0, 55, 57
2, 4787, Control_c, 0, 64, 127
2, 4832, Note_on_c, 0, 64, 55
2, 4837, Note_on_c, 0, 55, 0
2, 4842, Note_on_c, 0, 69, 61
2, 4876, Note_on_c, 0, 76, 0
2, 4898, Note_on_c, 0, 69, 0
2, 4910, Note_on_c, 0, 64, 0
2, 5051, Note_on_c, 0, 65, 52
2, 5070, Note_on_c, 0, 57, 55
2, 5096, Control_c, 0, 64, 0
2, 5177, Control_c, 0, 64, 127
2, 5286, Note_on_c, 0, 58, 59
2, 5295, Note_on_c, 0, 57, 0
2, 5308, Note_on_c, 0, 65, 0
2, 5332, Note_on_c, 0, 58, 0
2, 5498, Note_on_c, 0, 62, 59
2, 5523, Control_c, 0, 64, 0
2, 5708, Note_on_c, 0, 62, 0
2, 5710, Note_on_c, 0, 61, 55
2, 5715, Note_on_c, 0, 64, 65
2, 5912, Note_on_c, 0, 64, 0
2, 5943, Note_on_c, 0, 65, 66
2, 5947, Note_on_c, 0, 61, 0
2, 5951, Note_on_c, 0, 60, 53
2, 6166, Note_on_c, 0, 60, 0
2, 6168, Note_on_c, 0, 65, 0
2, 6171, Note_on_c, 0, 58, 58
2, 6175, Note_on_c, 0, 70, 70
2, 6386, Note_on_c, 0, 70, 0
2, 6395, Note_on_c, 0, 58, 0
2, 6395, Note_on_c, 0, 76, 78
2, 6406, Note_on_c, 0, 55, 59
2, 6442, Control_c, 0, 64, 127
2, 6510, Note_on_c, 0, 69, 63
2, 6513, Note_on_c, 0, 76, 0
2, 6578, Note_on_c, 0, 69, 0
2, 6617, Note_on_c, 0, 76, 71
2, 6626, Note_on_c, 0, 64, 57
2, 6630, Note_on_c, 0, 55, 0
2, 6712, Note_on_c, 0, 69, 64
2, 6713, Note_on_c, 0, 64, 0
2, 6718, Note_on_c, 0, 76, 0
2, 6732, Note_on_c, 0, 69, 0
2, 6840, Note_on_c, 0, 65, 64
2, 6852, Note_on_c, 0, 57, 55
2, 6905, Control_c, 0, 64, 0
2, 6977, Control_c, 0, 64, 127
2, 7077, Note_on_c, 0, 58, 55
2, 7078, Note_on_c, 0, 65, 0
2, 7113, Note_on_c, 0, 57, 0
2, 7137, Note_on_c, 0, 58, 0
2, 7278, Note_on_c, 0, 62, 61
2, 7313, Note_on_c, 0, 64, 64
2, 7323, Control_c, 0, 64, 0
2, 7336, Note_on_c, 0, 62, 0
2, 7511, Control_c, 0, 64, 127
2, 7520, Note_on_c, 0, 61, 53
2, 7595, Note_on_c, 0, 64, 0
2, 7716, Note_on_c, 0, 62, 60
2, 7721, Note_on_c, 0, 61, 0
2, 7743, Note_on_c, 0, 60, 48
2, 7756, Note_on_c, 0, 64, 64
2, 7760, Note_on_c, 0, 62, 0
2, 7813, Control_c, 0, 64, 0
2, 7891, Control_c, 0, 64, 127
2, 7978, Note_on_c, 0, 60, 0
2, 7980, Note_on_c, 0, 58, 50
2, 8017, Note_on_c, 0, 64, 0
2, 8115, Note_on_c, 0, 58, 0
2, 8163, Note_on_c, 0, 62, 55
2, 8180, Control_c, 0, 64, 0
2, 8186, Note_on_c, 0, 55, 48
2, 8197, Note_on_c, 0, 64, 67
2, 8216, Note_on_c, 0, 62, 0
2, 8232, Control_c, 0, 64, 127
2, 8263, Note_on_c, 0, 55, 0
2, 8277, Note_on_c, 0, 64, 0
2, 8422, Note_on_c, 0, 64, 56
2, 8425, Note_on_c, 0, 69, 62
2, 8485, Note_on_c, 0, 64, 0
2, 8522, Note_on_c, 0, 69, 0
2, 8647, Note_on_c, 0, 65, 61
2, 8665, Control_c, 0, 64, 0
2, 8668, Note_on_c, 0, 57, 59
2, 8737, Control_c, 0, 64, 127
2, 8785, Note_on_c, 0, 65, 0
2, 8852, Note_on_c, 0, 57, 0
2, 8885, Note_on_c, 0, 58, 59
2, 8940, Note_on_c, 0, 58, 0
2, 9101, Note_on_c, 0, 62, 61
2, 9113, Note_on_c, 0, 64, 57
2, 9127, Control_c, 0, 64, 0
2, 9171, Control_c, 0, 64, 127
2, 9176, Note_on_c, 0, 62, 0
2, 9205, Note_on_c, 0, 62, 42
2, 9208, Note_on_c, 0, 64, 0
2, 9263, Note_on_c, 0, 62, 0
2, 9320, Note_on_c, 0, 64, 64
2, 9336, Note_on_c, 0, 61, 55
2, 9377, Note_on_c, 0, 61, 0
2, 9408, Note_on_c, 0, 64, 0
2, 9408, Note_on_c, 0, 62, 58
2, 9500, Note_on_c, 0, 62, 0
2, 9533, Note_on_c, 0, 60, 54
2, 9535, Note_on_c, 0, 64, 59
2, 9560, Control_c, 0, 64, 0
2, 9580, Control_c, 0, 64, 127
2, 9626, Note_on_c, 0, 60, 0
2, 9650, Note_on_c, 0, 64, 0
2, 9750, Note_on_c, 0, 58, 57
2, 9752, Note_on_c, 0, 62, 58
2, 9828, Note_on_c, 0, 58, 0
2, 9841, Note_on_c, 0, 62, 0
2, 9968, Control_c, 0, 64, 0
2, 9976, Note_on_c, 0, 64, 61
2, 9985, Note_on_c, 0, 55, 54
2, 10017, Control_c, 0, 64, 127
2, 10047, Note_on_c, 0, 55, 0
2, 10052, Note_on_c, 0, 64, 0
2, 10202, Note_on_c, 0, 64, 57
2, 10220, Note_on_c, 0, 69, 57
2, 10267, Note_on_c, 0, 64, 0
2, 10308, Note_on_c, 0, 69, 0
2, 10438, Note_on_c, 0, 65, 63
2, 10445, Note_on_c, 0, 57, 54
2, 10450, Control_c, 0, 64, 0
2, 10507, Control_c, 0, 64, 127
2, 10546, Note_on_c, 0, 65, 0
2, 10596, Note_on_c, 0, 57, 0
2, 10673, Note_on_c, 0, 58, 55
2, 10746, Note_on_c, 0, 58, 0
2, 10765, Note_on_c, 0, 62, 64
2, 10883, Note_on_c, 0, 62, 0
2, 10903, Note_on_c, 0, 64, 68
2, 10911, Note_on_c, 0, 58, 58
2, 10917, Control_c, 0, 64, 0
2, 10965, Control_c, 0, 64, 127
2, 11073, Note_on_c, 0, 58, 0
2, 11112, Note_on_c, 0, 50, 64
2, 11141, Note_on_c, 0, 50, 0
2, 11197, Note_on_c, 0, 64, 0
2, 11263, Note_on_c, 0, 62, 65
2, 11325, Note_on_c, 0, 52, 62
2, 11326, Note_on_c, 0, 64, 70
2, 11341, Note_on_c, 0, 62, 0
2, 11365, Control_c, 0, 64, 0
2, 11398, Control_c, 0, 64, 127
2, 11513, Note_on_c, 0, 52, 0
2, 11527, Note_on_c, 0, 43, 62
2, 11548, Note_on_c, 0, 64, 0
2, 11598, Note_on_c, 0, 43, 0
2, 11707, Note_on_c, 0, 62, 63
2, 11716, Note_on_c, 0, 50, 63
2, 11742, Note_on_c, 0, 64, 70
2, 11757, Note_on_c, 0, 50, 0
2, 11763, Note_on_c, 0, 62, 0
2, 11943, Note_on_c, 0, 64, 0
2, 11953, Note_on_c, 0, 36, 63
2, 11953, Note_on_c, 0, 69, 68
2, 12016, Note_on_c, 0, 36, 0
2, 12100, Note_on_c, 0, 69, 0
2, 12182, Note_on_c, 0, 65, 67
2, 12191, Note_on_c, 0, 38, 56
2, 12283, Note_on_c, 0, 65, 0
2, 12333, Note_on_c, 0, 38, 0
2, 12393, Note_on_c, 0, 58, 55
2, 12396, Note_on_c, 0, 53, 48
2, 12446, Note_on_c, 0, 58, 0
2, 12456, Note_on_c, 0, 53, 0
2, 12597, Note_on_c, 0, 64, 71
2, 12600, Note_on_c, 0, 58, 62
2, 12600, Control_c, 0, 64, 0
2, 12625, Control_c, 0, 64, 127
2, 12697, Note_on_c, 0, 62, 68
2, 12712, Note_on_c, 0, 64, 0
2, 12751, Note_on_c, 0, 58, 0
2, 12791, Note_on_c, 0, 62, 0
2, 12793, Note_on_c, 0, 64, 67
2, 12798, Note_on_c, 0, 50, 61
2, 12837, Note_on_c, 0, 50, 0
2, 12885, Note_on_c, 0, 62, 74
2, 12902, Note_on_c, 0, 64, 0
2, 13000, Note_on_c, 0, 52, 67
2, 13002, Note_on_c, 0, 64, 74
2, 13006, Note_on_c, 0, 62, 0
2, 13201, Note_on_c, 0, 52, 0
2, 13210, Note_on_c, 0, 62, 79
2, 13215, Note_on_c, 0, 43, 60
2, 13236, Note_on_c, 0, 64, 0
2, 13361, Note_on_c, 0, 43, 0
2, 13407, Note_on_c, 0, 62, 0
2, 13428, Control_c, 0, 64, 0
2, 13431, Note_on_c, 0, 50, 69
2, 13431, Note_on_c, 0, 64, 76
2, 13442, Control_c, 0, 64, 127
2, 13478, Note_on_c, 0, 50, 0
2, 13650, Note_on_c, 0, 36, 58
2, 13655, Note_on_c, 0, 69, 68
2, 13667, Note_on_c, 0, 64, 0
2, 13721, Note_on_c, 0, 36, 0
2, 13875, Note_on_c, 0, 69, 0
2, 13890, Note_on_c, 0, 65, 65
2, 13895, Note_on_c, 0, 38, 54
2, 13905, Control_c, 0, 64, 0
2, 13943, Control_c, 0, 64, 127
2, 13967, Note_on_c, 0, 65, 0
2, 13995, Note_on_c, 0, 38, 0
2, 14111, Note_on_c, 0, 53, 58
2, 14113, Note_on_c, 0, 58, 54
2, 14147, Note_on_c, 0, 53, 0
2, 14151, Note_on_c, 0, 58, 0
2, 14351, Note_on_c, 0, 74, 62
2, 14366, Note_on_c, 0, 58, 52
2, 14386, Control_c, 0, 64, 0
2, 14396, Note_on_c, 0, 76, 62
2, 14411, Note_on_c, 0, 74, 0
2, 14457, Control_c, 0, 64, 127
2, 14575, Note_on_c, 0, 58, 0
2, 14601, Note_on_c, 0, 50, 53
2, 14656, Note_on_c, 0, 50, 0
2, 14662, Note_on_c, 0, 76, 0
2, 14786, Note_on_c, 0, 74, 56
2, 14821, Note_on_c, 0, 52, 56
2, 14831, Note_on_c, 0, 76, 60
2, 14861, Note_on_c, 0, 74, 0
2, 14987, Note_on_c, 0, 76, 0
2, 15008, Note_on_c, 0, 52, 0
2, 15027, Note_on_c, 0, 43, 60
2, 15195, Note_on_c, 0, 43, 0
2, 15245, Note_on_c, 0, 50, 58
2, 15245, Note_on_c, 0, 76, 59
2, 15246, Note_on_c, 0, 74, 63
2, 15292, Note_on_c, 0, 50, 0
2, 15436, Note_on_c, 0, 74, 0
2, 15442, Note_on_c, 0, 76, 0
2, 15456, Note_on_c, 0, 88, 62
2, 15458, Note_on_c, 0, 36, 57
2, 15472, Note_on_c, 0, 86, 62
2, 15542, Note_on_c, 0, 36, 0
2, 15685, Note_on_c, 0, 76, 59
2, 15687, Note_on_c, 0, 88, 0
2, 15688, Note_on_c, 0, 74, 63
2, 15690, Note_on_c, 0, 38, 53
2, 15702, Note_on_c, 0, 86, 0
2, 15742, Note_on_c, 0, 76, 0
2, 15753, Note_on_c, 0, 74, 0
2, 15777, Note_on_c, 0, 38, 0
2, 15903, Note_on_c, 0, 65, 58
2, 15912, Note_on_c, 0, 70, 59
2, 15955, Note_on_c, 0, 70, 0
2, 15955, Note_on_c, 0, 65, 0
2, 16126, Note_on_c, 0, 58, 55
2, 16130, Note_on_c, 0, 76, 56
2, 16130, Note_on_c, 0, 74, 59
2, 16312, Note_on_c, 0, 74, 0
2, 16318, Note_on_c, 0, 76, 0
2, 16321, Note_on_c, 0, 58, 0
2, 16338, Note_on_c, 0, 88, 57
2, 16341, Note_on_c, 0, 86, 57
2, 16341, Note_on_c, 0, 50, 58
2, 16393, Note_on_c, 0, 50, 0
2, 16545, Note_on_c, 0, 86, 0
2, 16550, Note_on_c, 0, 88, 0
2, 16562, Note_on_c, 0, 52, 61
2, 16567, Note_on_c, 0, 76, 49
2, 16567, Note_on_c, 0, 74, 54
2, 16762, Note_on_c, 0, 74, 0
2, 16768, Note_on_c, 0, 76, 0
2, 16782, Note_on_c, 0, 88, 56
2, 16792, Note_on_c, 0, 43, 49
2, 16793, Note_on_c, 0, 52, 0
2, 16796, Note_on_c, 0, 86, 58
2, 16977, Note_on_c, 0, 43, 0
2, 16985, Note_on_c, 0, 86, 0
2, 16988, Note_on_c, 0, 88, 0
2, 17003, Note_on_c, 0, 76, 52
2, 17003, Note_on_c, 0, 74, 57
2, 17012, Note_on_c, 0, 50, 64
2, 17050, Note_on_c, 0, 50, 0
2, 17231, Note_on_c, 0, 74, 0
2, 17237, Note_on_c, 0, 76, 0
2, 17241, Note_on_c, 0, 36, 59
2, 17248, Note_on_c, 0, 86, 64
2, 17248, Note_on_c, 0, 88, 56
2, 17313, Note_on_c, 0, 36, 0
2, 17407, Note_on_c, 0, 88, 0
2, 17465, Note_on_c, 0, 38, 55
2, 17465, Note_on_c, 0, 76, 52
2, 17467, Note_on_c, 0, 74, 57
2, 17486, Note_on_c, 0, 86, 0
2, 17491, Note_on_c, 0, 38, 0
2, 17513, Note_on_c, 0, 76, 0
2, 17523, Note_on_c, 0, 74, 0
2, 17698, Note_on_c, 0, 65, 52
2, 17703, Note_on_c, 0, 70, 57
2, 17737, Note_on_c, 0, 70, 0
2, 17740, Note_on_c, 0, 65, 0
2, 17955, Note_on_c, 0, 64, 58
2, 17980, Control_c, 0, 67, 127
2, 17987, Note_on_c, 0, 55, 45
2, 17990, Control_c, 0, 64, 0
2, 18006, Note_on_c, 0, 76, 72
2, 18056, Control_c, 0, 64, 127
2, 18157, Note_on_c, 0, 64, 0
2, 18206, Note_on_c, 0, 76, 0
2, 18222, Note_on_c, 0, 58, 58
2, 18235, Note_on_c, 0, 55, 0
2, 18401, Note_on_c, 0, 58, 0
2, 18423, Note_on_c, 0, 69, 59
2, 18438, Note_on_c, 0, 57, 54
2, 18463, Note_on_c, 0, 81, 65
2, 18616, Note_on_c, 0, 69, 0
2, 18670, Note_on_c, 0, 57, 0
2, 18675, Note_on_c, 0, 60, 56
2, 18685, Note_on_c, 0, 81, 0
2, 18882, Note_on_c, 0, 76, 61
2, 18893, Note_on_c, 0, 60, 0
2, 18896, Note_on_c, 0, 58, 52
2, 18923, Note_on_c, 0, 88, 69
2, 19111, Note_on_c, 0, 76, 0
2, 19128, Note_on_c, 0, 58, 0
2, 19130, Note_on_c, 0, 62, 57
2, 19160, Note_on_c, 0, 88, 0
2, 19345, Note_on_c, 0, 81, 63
2, 19352, Note_on_c, 0, 62, 0
2, 19358, Note_on_c, 0, 60, 56
2, 19388, Note_on_c, 0, 93, 70
2, 19522, Note_on_c, 0, 93, 0
2, 19536, Note_on_c, 0, 81, 0
2, 19610, Note_on_c, 0, 64, 53
2, 19648, Note_on_c, 0, 60, 0
2, 19808, Note_on_c, 0, 76, 59
2, 19815, Note_on_c, 0, 64, 0
2, 19821, Note_on_c, 0, 58, 52
2, 19848, Note_on_c, 0, 88, 70
2, 19947, Note_on_c, 0, 76, 0
2, 19998, Note_on_c, 0, 88, 0
2, 20062, Note_on_c, 0, 62, 58
2, 20072, Note_on_c, 0, 58, 0
2, 20271, Note_on_c, 0, 62, 0
2, 20280, Note_on_c, 0, 69, 48
2, 20301, Note_on_c, 0, 57, 50
2, 20307, Note_on_c, 0, 81, 66
2, 20385, Note_on_c, 0, 69, 0
2, 20458, Note_on_c, 0, 81, 0
2, 20513, Note_on_c, 0, 57, 0
2, 20525, Note_on_c, 0, 60, 55
2, 20578, Note_on_c, 0, 60, 0
2, 20720, Note_on_c, 0, 64, 60
2, 20745, Note_on_c, 0, 55, 49
2, 20765, Note_on_c, 0, 76, 71
2, 20866, Note_on_c, 0, 64, 0
2, 20940, Note_on_c, 0, 76, 0
2, 20980, Note_on_c, 0, 58, 50
2, 21001, Note_on_c, 0, 55, 0
2, 21167, Note_on_c, 0, 58, 0
2, 21177, Note_on_c, 0, 69, 59
2, 21190, Note_on_c, 0, 57, 59
2, 21220, Note_on_c, 0, 81, 66
2, 21245, Note_on_c, 0, 69, 0
2, 21425, Note_on_c, 0, 57, 0
2, 21430, Note_on_c, 0, 81, 0
2, 21435, Note_on_c, 0, 60, 55
2, 21633, Note_on_c, 0, 76, 65
2, 21645, Note_on_c, 0, 58, 57
2, 21648, Note_on_c, 0, 60, 0
2, 21673, Note_on_c, 0, 88, 72
2, 21760, Note_on_c, 0, 76, 0
2, 21885, Note_on_c, 0, 58, 0
2, 21890, Note_on_c, 0, 88, 0
2, 21902, Note_on_c, 0, 62, 50
2, 22100, Note_on_c, 0, 81, 64
2, 22101, Note_on_c, 0, 62, 0
2, 22108, Note_on_c, 0, 60, 54
2, 22146, Note_on_c, 0, 93, 74
2, 22215, Note_on_c, 0, 81, 0
2, 22261, Note_on_c, 0, 93, 0
2, 22360, Note_on_c, 0, 64, 53
2, 22386, Note_on_c, 0, 60, 0
2, 22558, Note_on_c, 0, 64, 0
2, 22558, Note_on_c, 0, 76, 64
2, 22570, Note_on_c, 0, 58, 49
2, 22610, Note_on_c, 0, 88, 65
2, 22717, Note_on_c, 0, 88, 0
2, 22725, Note_on_c, 0, 76, 0
2, 22810, Note_on_c, 0, 62, 54
2, 22833, Note_on_c, 0, 58, 0
2, 23022, Note_on_c, 0, 69, 56
2, 23023, Note_on_c, 0, 62, 0
2, 23063, Note_on_c, 0, 81, 61
2, 23108, Note_on_c, 0, 57, 43
2, 23152, Note_on_c, 0, 69, 0
2, 23191, Note_on_c, 0, 81, 0
2, 23281, Note_on_c, 0, 60, 53
2, 23287, Note_on_c, 0, 57, 0
2, 23343, Note_on_c, 0, 60, 0
2, 23450, Control_c, 0, 67, 0
2, 23513, Note_on_c, 0, 62, 64
2, 23526, Control_c, 0, 64, 0
2, 23720, Note_on_c, 0, 62, 0
2, 23727, Note_on_c, 0, 64, 63
2, 23745, Note_on_c, 0, 61, 50
2, 23937, Note_on_c, 0, 64, 0
2, 23955, Note_on_c, 0, 65, 61
2, 23957, Note_on_c, 0, 60, 55
2, 23960, Note_on_c, 0, 61, 0
2, 24167, Note_on_c, 0, 60, 0
2, 24178, Note_on_c, 0, 65, 0
2, 24190, Note_on_c, 0, 67, 59
2, 24193, Note_on_c, 0, 58, 55
2, 24420, Note_on_c, 0, 58, 0
2, 24420, Note_on_c, 0, 67, 0
2, 24422, Note_on_c, 0, 69, 59
2, 24432, Note_on_c, 0, 55, 51
2, 24635, Note_on_c, 0, 55, 0
2, 24648, Note_on_c, 0, 64, 57
2, 24652, Note_on_c, 0, 58, 50
2, 24686, Note_on_c, 0, 69, 0
2, 24700, Note_on_c, 0, 58, 0
2, 24865, Note_on_c, 0, 62, 50
2, 24870, Note_on_c, 0, 57, 55
2, 24893, Note_on_c, 0, 64, 0
2, 25097, Note_on_c, 0, 60, 52
2, 25120, Note_on_c, 0, 57, 0
2, 25183, Note_on_c, 0, 62, 0
2, 25185, Note_on_c, 0, 60, 0
2, 25320, Note_on_c, 0, 62, 60
2, 25552, Note_on_c, 0, 64, 63
2, 25553, Note_on_c, 0, 62, 0
2, 25555, Note_on_c, 0, 61, 51
2, 25753, Note_on_c, 0, 64, 0
2, 25768, Note_on_c, 0, 65, 67
2, 25771, Note_on_c, 0, 61, 0
2, 25772, Note_on_c, 0, 60, 50
2, 25970, Note_on_c, 0, 60, 0
2, 25988, Note_on_c, 0, 65, 0
2, 25988, Note_on_c, 0, 67, 60
2, 25993, Note_on_c, 0, 58, 52
2, 26193, Note_on_c, 0, 67, 0
2, 26208, Note_on_c, 0, 58, 0
2, 26208, Note_on_c, 0, 69, 58
2, 26217, Note_on_c, 0, 55, 50
2, 26305, Note_on_c, 0, 64, 64
2, 26322, Note_on_c, 0, 69, 0
2, 26407, Note_on_c, 0, 64, 0
2, 26418, Note_on_c, 0, 55, 0
2, 26427, Note_on_c, 0, 69, 58
2, 26427, Note_on_c, 0, 58, 49
2, 26475, Note_on_c, 0, 58, 0
2, 26512, Note_on_c, 0, 64, 54
2, 26568, Note_on_c, 0, 69, 0
2, 26637, Note_on_c, 0, 62, 52
2, 26642, Note_on_c, 0, 57, 53
2, 26671, Note_on_c, 0, 64, 0
2, 26850, Note_on_c, 0, 60, 54
2, 26867, Note_on_c, 0, 57, 0
2, 26937, Note_on_c, 0, 60, 0
2, 26941, Note_on_c, 0, 62, 0
2, 27071, Note_on_c, 0, 62, 65
2, 27282, Note_on_c, 0, 62, 0
2, 27291, Note_on_c, 0, 61, 50
2, 27291, Note_on_c, 0, 64, 71
2, 27482, Note_on_c, 0, 64, 0
2, 27492, Note_on_c, 0, 61, 0
2, 27508, Note_on_c, 0, 60, 55
2, 27511, Note_on_c, 0, 65, 67
2, 27723, Note_on_c, 0, 60, 0
2, 27728, Note_on_c, 0, 58, 56
2, 27732, Note_on_c, 0, 70, 69
2, 27733, Note_on_c, 0, 65, 0
2, 27950, Note_on_c, 0, 76, 75
2, 27951, Note_on_c, 0, 70, 0
2, 27962, Note_on_c, 0, 58, 0
2, 27965, Note_on_c, 0, 55, 56
2, 28035, Control_c, 0, 64, 127
2, 28148, Note_on_c, 0, 55, 0
2, 28177, Note_on_c, 0, 64, 49
2, 28180, Note_on_c, 0, 69, 68
2, 28198, Note_on_c, 0, 76, 0
2, 28235, Note_on_c, 0, 69, 0
2, 28243, Note_on_c, 0, 64, 0
2, 28408, Note_on_c, 0, 57, 57
2, 28411, Note_on_c, 0, 65, 56
2, 28448, Control_c, 0, 64, 0
2, 28501, Control_c, 0, 64, 127
2, 28628, Note_on_c, 0, 57, 0
2, 28628, Note_on_c, 0, 58, 57
2, 28663, Note_on_c, 0, 65, 0
2, 28677, Note_on_c, 0, 58, 0
2, 28838, Note_on_c, 0, 62, 56
2, 28876, Control_c, 0, 64, 0
2, 29061, Note_on_c, 0, 61, 52
2, 29063, Note_on_c, 0, 62, 0
2, 29065, Note_on_c, 0, 64, 61
2, 29243, Note_on_c, 0, 64, 0
2, 29272, Note_on_c, 0, 65, 66
2, 29287, Note_on_c, 0, 61, 0
2, 29290, Note_on_c, 0, 60, 52
2, 29491, Note_on_c, 0, 58, 57
2, 29493, Note_on_c, 0, 65, 0
2, 29495, Note_on_c, 0, 70, 67
2, 29501, Note_on_c, 0, 60, 0
2, 29678, Note_on_c, 0, 70, 0
2, 29702, Note_on_c, 0, 58, 0
2, 29702, Note_on_c, 0, 76, 70
2, 29711, Note_on_c, 0, 55, 58
2, 29800, Control_c, 0, 64, 127
2, 29813, Note_on_c, 0, 69, 70
2, 29828, Note_on_c, 0, 76, 0
2, 29907, Note_on_c, 0, 69, 0
2, 29911, Note_on_c, 0, 55, 0
2, 29920, Note_on_c, 0, 76, 73
2, 29927, Note_on_c, 0, 64, 55
2, 30012, Note_on_c, 0, 69, 66
2, 30025, Note_on_c, 0, 76, 0
2, 30027, Note_on_c, 0, 64, 0
2, 30045, Note_on_c, 0, 69, 0
2, 30156, Note_on_c, 0, 65, 58
2, 30167, Note_on_c, 0, 57, 51
2, 30228, Control_c, 0, 64, 0
2, 30286, Control_c, 0, 64, 127
2, 30380, Note_on_c, 0, 65, 0
2, 30393, Note_on_c, 0, 58, 58
2, 30423, Note_on_c, 0, 57, 0
2, 30458, Note_on_c, 0, 58, 0
2, 30596, Note_on_c, 0, 62, 62
2, 30618, Control_c, 0, 64, 0
2, 30631, Note_on_c, 0, 64, 66
2, 30652, Note_on_c, 0, 62, 0
2, 30835, Control_c, 0, 64, 127
2, 30861, Note_on_c, 0, 61, 49
2, 30917, Note_on_c, 0, 64, 0
2, 31031, Note_on_c, 0, 61, 0
2, 31045, Note_on_c, 0, 62, 59
2, 31067, Note_on_c, 0, 60, 50
2, 31085, Control_c, 0, 64, 0
2, 31090, Note_on_c, 0, 64, 62
2, 31098, Note_on_c, 0, 62, 0
2, 31137, Control_c, 0, 64, 127
2, 31276, Note_on_c, 0, 64, 0
2, 31288, Note_on_c, 0, 60, 0
2, 31303, Note_on_c, 0, 58, 52
2, 31371, Note_on_c, 0, 58, 0
2, 31481, Note_on_c, 0, 62, 58
2, 31513, Control_c, 0, 64, 0
2, 31522, Note_on_c, 0, 55, 49
2, 31528, Note_on_c, 0, 64, 68
2, 31550, Note_on_c, 0, 62, 0
2, 31566, Control_c, 0, 64, 127
2, 31585, Note_on_c, 0, 55, 0
2, 31600, Note_on_c, 0, 64, 0
2, 31737, Note_on_c, 0, 69, 66
2, 31740, Note_on_c, 0, 64, 58
2, 31800, Note_on_c, 0, 64, 0
2, 31823, Note_on_c, 0, 69, 0
2, 31962, Note_on_c, 0, 65, 63
2, 31970, Control_c, 0, 64, 0
2, 31975, Note_on_c, 0, 57, 53
2, 32027, Control_c, 0, 64, 127
2, 32093, Note_on_c, 0, 65, 0
2, 32131, Note_on_c, 0, 57, 0
2, 32195, Note_on_c, 0, 58, 53
2, 32251, Note_on_c, 0, 58, 0
2, 32397, Note_on_c, 0, 62, 63
2, 32401, Note_on_c, 0, 64, 66
2, 32402, Control_c, 0, 64, 0
2, 32440, Note_on_c, 0, 62, 0
2, 32446, Control_c, 0, 64, 127
2, 32501, Note_on_c, 0, 62, 64
2, 32512, Note_on_c, 0, 64, 0
2, 32592, Note_on_c, 0, 62, 0
2, 32607, Note_on_c, 0, 64, 62
2, 32610, Note_on_c, 0, 61, 60
2, 32651, Note_on_c, 0, 61, 0
2, 32700, Note_on_c, 0, 62, 63
2, 32707, Note_on_c, 0, 64, 0
2, 32796, Note_on_c, 0, 62, 0
2, 32811, Note_on_c, 0, 64, 62
2, 32815, Note_on_c, 0, 60, 55
2, 32826, Control_c, 0, 64, 0
2, 32855, Control_c, 0, 64, 127
2, 32892, Note_on_c, 0, 60, 0
2, 32935, Note_on_c, 0, 64, 0
2, 33033, Note_on_c, 0, 62, 63
2, 33035, Note_on_c, 0, 58, 53
2, 33100, Note_on_c, 0, 62, 0
2, 33103, Note_on_c, 0, 58, 0
2, 33250, Control_c, 0, 64, 0
2, 33260, Note_on_c, 0, 64, 64
2, 33262, Note_on_c, 0, 55, 55
2, 33292, Control_c, 0, 64, 127
2, 33328, Note_on_c, 0, 55, 0
2, 33345, Note_on_c, 0, 64, 0
2, 33485, Note_on_c, 0, 69, 67
2, 33487, Note_on_c, 0, 64, 57
2, 33545, Note_on_c, 0, 64, 0
2, 33575, Note_on_c, 0, 69, 0
2, 33717, Note_on_c, 0, 65, 61
2, 33726, Note_on_c, 0, 57, 56
2, 33726, Control_c, 0, 64, 0
2, 33773, Control_c, 0, 64, 127
2, 33825, Note_on_c, 0, 65, 0
2, 33848, Note_on_c, 0, 57, 0
2, 33948, Note_on_c, 0, 58, 53
2, 34025, Note_on_c, 0, 58, 0
2, 34051, Note_on_c, 0, 62, 57
2, 34151, Note_on_c, 0, 62, 0
2, 34153, Control_c, 0, 64, 0
2, 34167, Note_on_c, 0, 64, 67
2, 34168, Note_on_c, 0, 58, 58
2, 34217, Control_c, 0, 64, 127
2, 34325, Note_on_c, 0, 58, 0
2, 34387, Note_on_c, 0, 50, 61
2, 34420, Note_on_c, 0, 64, 0
2, 34422, Note_on_c, 0, 50, 0
2, 34562, Note_on_c, 0, 62, 57
2, 34590, Note_on_c, 0, 52, 63
2, 34605, Note_on_c, 0, 64, 69
2, 34616, Note_on_c, 0, 62, 0
2, 34621, Control_c, 0, 64, 0
2, 34650, Control_c, 0, 64, 127
2, 34791, Note_on_c, 0, 52, 0
2, 34817, Note_on_c, 0, 43, 58
2, 34823, Note_on_c, 0, 64, 0
2, 34880, Note_on_c, 0, 43, 0
2, 35000, Note_on_c, 0, 62, 71
2, 35013, Note_on_c, 0, 50, 63
2, 35042, Note_on_c, 0, 64, 80
2, 35053, Note_on_c, 0, 62, 0
2, 35058, Note_on_c, 0, 50, 0
2, 35171, Note_on_c, 0, 64, 0
2, 35258, Note_on_c, 0, 36, 61
2, 35260, Note_on_c, 0, 69, 66
2, 35312, Note_on_c, 0, 36, 0
2, 35430, Note_on_c, 0, 69, 0
2, 35483, Note_on_c, 0, 65, 72
2, 35492, Note_on_c, 0, 38, 56
2, 35516, Control_c, 0, 64, 0
2, 35550, Control_c, 0, 64, 127
2, 35607, Note_on_c, 0, 65, 0
2, 35631, Note_on_c, 0, 38, 0
2, 35702, Note_on_c, 0, 53, 55
2, 35708, Note_on_c, 0, 58, 54
2, 35753, Note_on_c, 0, 58, 0
2, 35757, Note_on_c, 0, 53, 0
2, 35912, Note_on_c, 0, 64, 66
2, 35916, Note_on_c, 0, 58, 60
2, 35943, Control_c, 0, 64, 0
2, 35967, Control_c, 0, 64, 127
2, 36005, Note_on_c, 0, 62, 71
2, 36017, Note_on_c, 0, 64, 0
2, 36033, Note_on_c, 0, 58, 0
2, 36107, Note_on_c, 0, 62, 0
2, 36111, Note_on_c, 0, 64, 68
2, 36113, Note_on_c, 0, 50, 63
2, 36152, Note_on_c, 0, 50, 0
2, 36203, Note_on_c, 0, 62, 75
2, 36220, Note_on_c, 0, 64, 0
2, 36316, Note_on_c, 0, 62, 0
2, 36316, Note_on_c, 0, 64, 71
2, 36317, Note_on_c, 0, 52, 67
2, 36501, Note_on_c, 0, 52, 0
2, 36520, Note_on_c, 0, 62, 71
2, 36523, Note_on_c, 0, 43, 59
2, 36546, Note_on_c, 0, 64, 0
2, 36673, Note_on_c, 0, 43, 0
2, 36712, Note_on_c, 0, 62, 0
2, 36741, Note_on_c, 0, 50, 63
2, 36746, Note_on_c, 0, 64, 71
2, 36776, Note_on_c, 0, 50, 0
2, 36908, Note_on_c, 0, 64, 0
2, 36957, Note_on_c, 0, 36, 61
2, 36965, Note_on_c, 0, 69, 70
2, 37017, Note_on_c, 0, 36, 0
2, 37117, Note_on_c, 0, 69, 0
2, 37201, Note_on_c, 0, 65, 64
2, 37207, Note_on_c, 0, 38, 57
2, 37228, Control_c, 0, 64, 0
2, 37262, Control_c, 0, 64, 127
2, 37280, Note_on_c, 0, 65, 0
2, 37302, Note_on_c, 0, 38, 0
2, 37408, Note_on_c, 0, 53, 62
2, 37417, Note_on_c, 0, 58, 57
2, 37450, Note_on_c, 0, 53, 0
2, 37455, Note_on_c, 0, 58, 0
2, 37613, Note_on_c, 0, 74, 68
2, 37625, Note_on_c, 0, 58, 62
2, 37642, Note_on_c, 0, 74, 0
2, 37646, Note_on_c, 0, 76, 72
2, 37657, Control_c, 0, 64, 0
2, 37705, Control_c, 0, 64, 127
2, 37818, Note_on_c, 0, 58, 0
2, 37860, Note_on_c, 0, 50, 59
2, 37896, Note_on_c, 0, 50, 0
2, 37906, Note_on_c, 0, 76, 0
2, 38048, Note_on_c, 0, 74, 58
2, 38071, Note_on_c, 0, 52, 59
2, 38093, Note_on_c, 0, 76, 57
2, 38126, Note_on_c, 0, 74, 0
2, 38225, Note_on_c, 0, 76, 0
2, 38263, Note_on_c, 0, 52, 0
2, 38277, Note_on_c, 0, 43, 55
2, 38423, Note_on_c, 0, 43, 0
2, 38491, Note_on_c, 0, 50, 59
2, 38495, Note_on_c, 0, 76, 52
2, 38495, Note_on_c, 0, 74, 56
2, 38546, Note_on_c, 0, 50, 0
2, 38655, Note_on_c, 0, 74, 0
2, 38660, Note_on_c, 0, 76, 0
2, 38707, Note_on_c, 0, 88, 60
2, 38710, Note_on_c, 0, 36, 58
2, 38723, Note_on_c, 0, 86, 59
2, 38790, Note_on_c, 0, 36, 0
2, 38905, Note_on_c, 0, 88, 0
2, 38925, Note_on_c, 0, 38, 53
2, 38930, Note_on_c, 0, 76, 56
2, 38930, Note_on_c, 0, 74, 60
2, 38937, Note_on_c, 0, 86, 0
2, 38980, Note_on_c, 0, 76, 0
2, 38991, Note_on_c, 0, 74, 0
2, 39106, Note_on_c, 0, 38, 0
2, 39150, Note_on_c, 0, 65, 60
2, 39162, Note_on_c, 0, 70, 54
2, 39205, Note_on_c, 0, 70, 0
2, 39205, Note_on_c, 0, 65, 0
2, 39367, Note_on_c, 0, 76, 58
2, 39372, Note_on_c, 0, 74, 59
2, 39378, Note_on_c, 0, 58, 54
2, 39565, Note_on_c, 0, 74, 0
2, 39570, Note_on_c, 0, 58, 0
2, 39575, Note_on_c, 0, 76, 0
2, 39593, Note_on_c, 0, 88, 64
2, 39596, Note_on_c, 0, 50, 63
2, 39598, Note_on_c, 0, 86, 62
2, 39640, Note_on_c, 0, 50, 0
2, 39790, Note_on_c, 0, 88, 0
2, 39792, Note_on_c, 0, 86, 0
2, 39807, Note_on_c, 0, 52, 60
2, 39812, Note_on_c, 0, 76, 50
2, 39812, Note_on_c, 0, 74, 56
2, 40012, Note_on_c, 0, 74, 0
2, 40017, Note_on_c, 0, 76, 0
2, 40025, Note_on_c, 0, 52, 0
2, 40030, Note_on_c, 0, 43, 56
2, 40031, Note_on_c, 0, 88, 57
2, 40041, Note_on_c, 0, 86, 58
2, 40193, Note_on_c, 0, 43, 0
2, 40241, Note_on_c, 0, 86, 0
2, 40251, Note_on_c, 0, 88, 0
2, 40252, Note_on_c, 0, 50, 60
2, 40261, Note_on_c, 0, 76, 49
2, 40261, Note_on_c, 0, 74, 54
2, 40287, Note_on_c, 0, 50, 0
2, 40457, Note_on_c, 0, 74, 0
2, 40466, Note_on_c, 0, 76, 0
2, 40485, Note_on_c, 0, 88, 55
2, 40487, Note_on_c, 0, 36, 48
2, 40501, Note_on_c, 0, 86, 56
2, 40566, Note_on_c, 0, 36, 0
2, 40700, Note_on_c, 0, 88, 0
2, 40722, Note_on_c, 0, 76, 48
2, 40722, Note_on_c, 0, 74, 51
2, 40728, Note_on_c, 0, 38, 51
2, 40752, Note_on_c, 0, 86, 0
2, 40777, Note_on_c, 0, 76, 0
2, 40793, Note_on_c, 0, 74, 0
2, 40800, Note_on_c, 0, 38, 0
2, 40956, Note_on_c, 0, 65, 56
2, 40972, Note_on_c, 0, 70, 53
2, 41013, Note_on_c, 0, 65, 0
2, 41015, Note_on_c, 0, 70, 0
2, 41192, Control_c, 0, 67, 127
2, 41200, Note_on_c, 0, 64, 62
2, 41218, Note_on_c, 0, 55, 53
2, 41246, Control_c, 0, 64, 0
2, 41250, Note_on_c, 0, 76, 66
2, 41283, Control_c, 0, 64, 127
2, 41401, Note_on_c, 0, 64, 0
2, 41450, Note_on_c, 0, 76, 0
2, 41460, Note_on_c, 0, 55, 0
2, 41460, Note_on_c, 0, 58, 58
2, 41637, Note_on_c, 0, 58, 0
2, 41661, Note_on_c, 0, 69, 59
2, 41678, Note_on_c, 0, 57, 57
2, 41701, Note_on_c, 0, 81, 63
2, 41831, Note_on_c, 0, 69, 0
2, 41886, Note_on_c, 0, 57, 0
2, 41902, Note_on_c, 0, 81, 0
2, 41906, Note_on_c, 0, 60, 57
2, 42101, Note_on_c, 0, 76, 60
2, 42120, Note_on_c, 0, 60, 0
2, 42128, Note_on_c, 0, 58, 49
2, 42148, Note_on_c, 0, 88, 63
2, 42305, Note_on_c, 0, 76, 0
2, 42360, Note_on_c, 0, 62, 56
2, 42367, Note_on_c, 0, 58, 0
2, 42371, Note_on_c, 0, 88, 0
2, 42556, Note_on_c, 0, 81, 61
2, 42568, Note_on_c, 0, 62, 0
2, 42580, Note_on_c, 0, 60, 49
2, 42602, Note_on_c, 0, 93, 68
2, 42696, Note_on_c, 0, 81, 0
2, 42735, Note_on_c, 0, 93, 0
2, 42811, Note_on_c, 0, 64, 56
2, 42860, Note_on_c, 0, 60, 0
2, 43010, Note_on_c, 0, 76, 63
2, 43018, Note_on_c, 0, 58, 54
2, 43023, Note_on_c, 0, 64, 0
2, 43046, Note_on_c, 0, 88, 68
2, 43148, Note_on_c, 0, 76, 0
2, 43162, Note_on_c, 0, 88, 0
2, 43247, Note_on_c, 0, 58, 0
2, 43255, Note_on_c, 0, 62, 55
2, 43458, Note_on_c, 0, 69, 57
2, 43465, Note_on_c, 0, 62, 0
2, 43483, Note_on_c, 0, 57, 53
2, 43490, Note_on_c, 0, 81, 65
2, 43597, Note_on_c, 0, 69, 0
2, 43613, Note_on_c, 0, 81, 0
2, 43700, Note_on_c, 0, 57, 0
2, 43703, Note_on_c, 0, 60, 55
2, 43758, Note_on_c, 0, 60, 0
2, 43907, Note_on_c, 0, 64, 56
2, 43931, Note_on_c, 0, 55, 51
2, 43955, Note_on_c, 0, 76, 66
2, 44102, Note_on_c, 0, 64, 0
2, 44157, Note_on_c, 0, 76, 0
2, 44178, Note_on_c, 0, 58, 54
2, 44203, Note_on_c, 0, 55, 0
2, 44357, Note_on_c, 0, 58, 0
2, 44381, Note_on_c, 0, 69, 57
2, 44395, Note_on_c, 0, 57, 56
2, 44418, Note_on_c, 0, 81, 66
2, 44526, Note_on_c, 0, 69, 0
2, 44597, Note_on_c, 0, 81, 0
2, 44623, Note_on_c, 0, 57, 0
2, 44637, Note_on_c, 0, 60, 54
2, 44815, Note_on_c, 0, 76, 61
2, 44837, Note_on_c, 0, 60, 0
2, 44837, Note_on_c, 0, 58, 56
2, 44850, Note_on_c, 0, 88, 69
2, 44983, Note_on_c, 0, 76, 0
2, 45063, Note_on_c, 0, 58, 0
2, 45067, Note_on_c, 0, 88, 0
2, 45078, Note_on_c, 0, 62, 57
2, 45285, Note_on_c, 0, 81, 58
2, 45290, Note_on_c, 0, 62, 0
2, 45292, Note_on_c, 0, 60, 54
2, 45318, Note_on_c, 0, 93, 77
2, 45422, Note_on_c, 0, 81, 0
2, 45472, Note_on_c, 0, 93, 0
2, 45545, Note_on_c, 0, 64, 52
2, 45568, Note_on_c, 0, 60, 0
2, 45738, Note_on_c, 0, 76, 59
2, 45751, Note_on_c, 0, 58, 51
2, 45752, Note_on_c, 0, 64, 0
2, 45778, Note_on_c, 0, 88, 66
2, 45898, Note_on_c, 0, 88, 0
2, 45898, Note_on_c, 0, 76, 0
2, 45985, Note_on_c, 0, 58, 0
2, 45987, Note_on_c, 0, 62, 54
2, 46185, Note_on_c, 0, 69, 58
2, 46188, Note_on_c, 0, 62, 0
2, 46210, Note_on_c, 0, 57, 54
2, 46221, Note_on_c, 0, 81, 65
2, 46333, Note_on_c, 0, 81, 0
2, 46363, Note_on_c, 0, 69, 0
2, 46433, Note_on_c, 0, 57, 0
2, 46441, Note_on_c, 0, 60, 54
2, 46505, Note_on_c, 0, 60, 0
2, 46557, Control_c, 0, 67, 0
2, 46685, Note_on_c, 0, 62, 61
2, 46721, Control_c, 0, 64, 0
2, 46922, Note_on_c, 0, 64, 62
2, 46931, Note_on_c, 0, 61, 52
2, 46936, Note_on_c, 0, 62, 0
2, 47168, Note_on_c, 0, 64, 0
2, 47187, Note_on_c, 0, 65, 54
2, 47192, Note_on_c, 0, 60, 52
2, 47196, Note_on_c, 0, 61, 0
2, 47481, Note_on_c, 0, 60, 0
2, 47491, Note_on_c, 0, 67, 62
2, 47497, Note_on_c, 0, 58, 50
2, 47517, Note_on_c, 0, 65, 0
2, 47867, Note_on_c, 0, 67, 0
2, 47868, Note_on_c, 0, 69, 56
2, 47875, Note_on_c, 0, 55, 50
2, 47880, Note_on_c, 0, 58, 0
2, 48273, Note_on_c, 0, 55, 0
2, 48277, Note_on_c, 0, 64, 56
2, 48281, Note_on_c, 0, 58, 42
2, 48315, Note_on_c, 0, 69, 0
2, 48747, Note_on_c, 0, 62, 48
2, 48756, Note_on_c, 0, 57, 54
2, 48757, Note_on_c, 0, 58, 0
2, 48783, Note_on_c, 0, 64, 0
2, 49412, Note_on_c, 0, 60, 45
2, 49482, Control_c, 0, 64, 127
2, 49522, Note_on_c, 0, 57, 0
2, 49620, Note_on_c, 0, 60, 0
2, 49910, Control_c, 0, 67, 127
2, 50097, Control_c, 0, 64, 0
2, 50378, Note_on_c, 0, 43, 76
2, 50387, Note_on_c, 0, 31, 61
2, 50396, Note_on_c, 0, 43, 0
2, 50410, Note_on_c, 0, 31, 0
2, 50552, Note_on_c, 0, 62, 0
2, 50560, Note_on_c, 0, 64, 57
2, 50576, Note_on_c, 0, 64, 0
2, 50605, Note_on_c, 0, 65, 68
2, 50621, Note_on_c, 0, 65, 0
2, 50633, Note_on_c, 0, 67, 68
2, 50650, Note_on_c, 0, 67, 0
2, 50668, Note_on_c, 0, 69, 66
2, 50685, Note_on_c, 0, 69, 0
2, 50698, Note_on_c, 0, 71, 64
2, 50715, Note_on_c, 0, 71, 0
2, 50735, Note_on_c, 0, 72, 67
2, 50751, Note_on_c, 0, 72, 0
2, 50765, Note_on_c, 0, 74, 66
2, 50781, Note_on_c, 0, 74, 0
2, 50793, Note_on_c, 0, 76, 67
2, 50810, Note_on_c, 0, 76, 0
2, 50827, Note_on_c, 0, 77, 70
2, 50843, Note_on_c, 0, 77, 0
2, 50851, Note_on_c, 0, 79, 66
2, 50868, Note_on_c, 0, 79, 0
2, 50878, Note_on_c, 0, 81, 63
2, 50895, Note_on_c, 0, 81, 0
2, 50907, Note_on_c, 0, 83, 67
2, 50925, Note_on_c, 0, 83, 0
2, 50933, Note_on_c, 0, 84, 70
2, 50951, Note_on_c, 0, 84, 0
2, 50960, Note_on_c, 0, 86, 77
2, 50976, Note_on_c, 0, 86, 0
2, 50983, Note_on_c, 0, 88, 75
2, 51000, Note_on_c, 0, 88, 0
2, 51012, Note_on_c, 0, 89, 73
2, 51028, Note_on_c, 0, 89, 0
2, 51037, Note_on_c, 0, 91, 77
2, 51053, Note_on_c, 0, 91, 0
2, 51061, Note_on_c, 0, 93, 82
2, 51077, Note_on_c, 0, 93, 0
2, 51085, Note_on_c, 0, 95, 85
2, 51101, Note_on_c, 0, 95, 0
2, 51108, Note_on_c, 0, 96, 81
2, 51125, Note_on_c, 0, 96, 0
2, 51130, Note_on_c, 0, 98, 85
2, 51145, Note_on_c, 0, 36, 67
2, 51146, Note_on_c, 0, 98, 0
2, 51148, Note_on_c, 0, 24, 70
2, 51182, Note_on_c, 0, 36, 0
2, 51183, Note_on_c, 0, 24, 0
2, 51466, Note_on_c, 0, 92, 72
2, 51503, Note_on_c, 0, 94, 63
2, 51516, Note_on_c, 0, 92, 0
2, 51528, Note_on_c, 0, 94, 0
2, 54868, Control_c, 0, 67, 0
2, 54868, End_track
3, 0, Start_track
3, 0, Title_t, "Mouvments Perpétuels II"
3, 0, End_track
4, 0, Start_track
4, 0, Title_t, "F. Poulenc"
4, 0, End_track
5, 0, Start_track
5, 0, Title_t, "Richard Summers"
5, 0, End_track
6, 0, Start_track
6, 0, Title_t, "rsummers73@compuserve.com"
6, 0, End_track
0, 0, End_of_file
