0, 0, Header, 1, 6, 240
1, 0, Start_track
1, 0, Title_t, "POULENC, Francis - 'Pastorale' Trois Pieces I, Seq Richard Summers"
1, 0, Copyright_t, "Adaptation for Disklavier pianos, by: Robert C. Kuhmann (c) 2012."
1, 0, Time_signature, 4, 2, 24, 8
1, 0, Key_signature, 0, "major"
1, 0, Tempo, 500000
1, 0, End_track
2, 0, Start_track
2, 0, Title_t, "Pastorale"
2, 0, Program_c, 0, 0
2, 0, Control_c, 0, 7, 115
2, 91, Control_c, 0, 64, 127
2, 130, Note_on_c, 0, 36, 42
2, 322, Note_on_c, 0, 42, 43
2, 427, Note_on_c, 0, 52, 47
2, 518, Note_on_c, 0, 62, 47
2, 591, Note_on_c, 0, 70, 50
2, 682, Note_on_c, 0, 75, 70
2, 693, Note_on_c, 0, 66, 54
2, 706, Note_on_c, 0, 70, 0
2, 1007, Note_on_c, 0, 75, 0
2, 1285, Note_on_c, 0, 74, 56
2, 1311, Note_on_c, 0, 62, 0
2, 1333, Note_on_c, 0, 66, 0
2, 1822, Note_on_c, 0, 67, 34
2, 1827, Note_on_c, 0, 74, 0
2, 2057, Note_on_c, 0, 73, 45
2, 2076, Note_on_c, 0, 67, 0
2, 2146, Note_on_c, 0, 73, 0
2, 2177, Note_on_c, 0, 74, 41
2, 2245, Note_on_c, 0, 73, 50
2, 2262, Note_on_c, 0, 74, 0
2, 2298, Note_on_c, 0, 72, 49
2, 2317, Note_on_c, 0, 73, 0
2, 2358, Note_on_c, 0, 71, 44
2, 2377, Note_on_c, 0, 72, 0
2, 2435, Note_on_c, 0, 74, 40
2, 2472, Note_on_c, 0, 71, 0
2, 2605, Note_on_c, 0, 70, 45
2, 2605, Note_on_c, 0, 68, 34
2, 2660, Note_on_c, 0, 74, 0
2, 2832, Note_on_c, 0, 68, 0
2, 2937, Note_on_c, 0, 71, 49
2, 2952, Note_on_c, 0, 70, 0
2, 3230, Note_on_c, 0, 72, 49
2, 3231, Note_on_c, 0, 71, 0
2, 3441, Note_on_c, 0, 72, 0
2, 3445, Note_on_c, 0, 74, 51
2, 3491, Note_on_c, 0, 67, 46
2, 3512, Note_on_c, 0, 73, 58
2, 3558, Note_on_c, 0, 74, 0
2, 3731, Note_on_c, 0, 73, 0
2, 3861, Note_on_c, 0, 72, 42
2, 3977, Note_on_c, 0, 72, 0
2, 4228, Note_on_c, 0, 67, 0
2, 4296, Note_on_c, 0, 71, 37
2, 4441, Note_on_c, 0, 36, 0
2, 4463, Note_on_c, 0, 52, 0
2, 4476, Note_on_c, 0, 42, 0
2, 4536, Note_on_c, 0, 71, 0
2, 4821, Note_on_c, 0, 36, 35
2, 4833, Control_c, 0, 64, 0
2, 4926, Control_c, 0, 64, 127
2, 5062, Note_on_c, 0, 42, 43
2, 5161, Note_on_c, 0, 52, 45
2, 5240, Note_on_c, 0, 62, 53
2, 5303, Note_on_c, 0, 70, 52
2, 5397, Note_on_c, 0, 75, 71
2, 5401, Note_on_c, 0, 70, 0
2, 5407, Note_on_c, 0, 66, 45
2, 5697, Note_on_c, 0, 75, 0
2, 5883, Note_on_c, 0, 62, 0
2, 5933, Note_on_c, 0, 74, 47
2, 5973, Note_on_c, 0, 66, 0
2, 6370, Note_on_c, 0, 67, 40
2, 6376, Note_on_c, 0, 74, 0
2, 6596, Note_on_c, 0, 73, 40
2, 6617, Note_on_c, 0, 67, 0
2, 6677, Note_on_c, 0, 73, 0
2, 6710, Note_on_c, 0, 74, 36
2, 6771, Note_on_c, 0, 73, 50
2, 6805, Note_on_c, 0, 74, 0
2, 6832, Note_on_c, 0, 72, 51
2, 6857, Note_on_c, 0, 73, 0
2, 6886, Note_on_c, 0, 71, 48
2, 6900, Note_on_c, 0, 72, 0
2, 6965, Note_on_c, 0, 74, 39
2, 6976, Note_on_c, 0, 71, 0
2, 7093, Note_on_c, 0, 70, 43
2, 7095, Note_on_c, 0, 68, 32
2, 7151, Note_on_c, 0, 74, 0
2, 7885, Note_on_c, 0, 68, 0
2, 7941, Note_on_c, 0, 67, 34
2, 8242, Note_on_c, 0, 70, 0
2, 8257, Note_on_c, 0, 36, 0
2, 8300, Note_on_c, 0, 42, 0
2, 8373, Note_on_c, 0, 52, 0
2, 8411, Note_on_c, 0, 67, 0
2, 8927, Note_on_c, 0, 75, 54
2, 8950, Note_on_c, 0, 66, 39
2, 8950, Note_on_c, 0, 58, 35
2, 8952, Control_c, 0, 64, 0
2, 8952, Note_on_c, 0, 48, 42
2, 8956, Note_on_c, 0, 63, 34
2, 8960, Note_on_c, 0, 70, 39
2, 9140, Control_c, 0, 64, 127
2, 9243, Note_on_c, 0, 75, 0
2, 9425, Note_on_c, 0, 66, 0
2, 9530, Note_on_c, 0, 70, 0
2, 9688, Note_on_c, 0, 63, 0
2, 9725, Note_on_c, 0, 74, 53
2, 9917, Note_on_c, 0, 58, 0
2, 9950, Note_on_c, 0, 48, 0
2, 9972, Note_on_c, 0, 74, 0
2, 10042, Note_on_c, 0, 73, 66
2, 10157, Note_on_c, 0, 73, 0
2, 10298, Note_on_c, 0, 72, 63
2, 10310, Note_on_c, 0, 67, 59
2, 10315, Note_on_c, 0, 51, 48
2, 10320, Note_on_c, 0, 61, 44
2, 10327, Note_on_c, 0, 57, 36
2, 10333, Control_c, 0, 64, 0
2, 10415, Control_c, 0, 64, 127
2, 10611, Note_on_c, 0, 75, 66
2, 10645, Note_on_c, 0, 67, 0
2, 10656, Note_on_c, 0, 51, 0
2, 10671, Note_on_c, 0, 57, 0
2, 10682, Note_on_c, 0, 72, 0
2, 10718, Note_on_c, 0, 61, 0
2, 10727, Note_on_c, 0, 75, 0
2, 11018, Note_on_c, 0, 70, 50
2, 11021, Note_on_c, 0, 65, 32
2, 11032, Note_on_c, 0, 56, 32
2, 11037, Note_on_c, 0, 59, 39
2, 11042, Note_on_c, 0, 50, 36
2, 11050, Control_c, 0, 64, 0
2, 11161, Control_c, 0, 64, 127
2, 11211, Note_on_c, 0, 59, 0
2, 11255, Note_on_c, 0, 65, 0
2, 11292, Note_on_c, 0, 70, 0
2, 11606, Note_on_c, 0, 82, 52
2, 11633, Note_on_c, 0, 82, 0
2, 11645, Note_on_c, 0, 83, 49
2, 11672, Note_on_c, 0, 82, 53
2, 11675, Note_on_c, 0, 83, 0
2, 11802, Note_on_c, 0, 56, 0
2, 12180, Note_on_c, 0, 82, 0
2, 12272, Note_on_c, 0, 58, 34
2, 12388, Note_on_c, 0, 80, 47
2, 12442, Note_on_c, 0, 80, 0
2, 12461, Note_on_c, 0, 82, 42
2, 12528, Note_on_c, 0, 82, 0
2, 12537, Note_on_c, 0, 79, 52
2, 12595, Note_on_c, 0, 79, 0
2, 12600, Note_on_c, 0, 80, 46
2, 12648, Note_on_c, 0, 80, 0
2, 12667, Note_on_c, 0, 76, 49
2, 12716, Note_on_c, 0, 76, 0
2, 12723, Note_on_c, 0, 77, 52
2, 12758, Note_on_c, 0, 79, 46
2, 12777, Note_on_c, 0, 77, 0
2, 12810, Note_on_c, 0, 80, 58
2, 12816, Note_on_c, 0, 79, 0
2, 12913, Note_on_c, 0, 82, 48
2, 12926, Note_on_c, 0, 80, 0
2, 12930, Note_on_c, 0, 59, 36
2, 12942, Note_on_c, 0, 58, 0
2, 12970, Control_c, 0, 64, 0
2, 13046, Control_c, 0, 64, 127
2, 13195, Note_on_c, 0, 82, 0
2, 13243, Note_on_c, 0, 50, 0
2, 13266, Note_on_c, 0, 59, 0
2, 13761, Note_on_c, 0, 75, 57
2, 13768, Control_c, 0, 64, 0
2, 13776, Note_on_c, 0, 58, 35
2, 13782, Note_on_c, 0, 66, 43
2, 13782, Note_on_c, 0, 63, 34
2, 13785, Note_on_c, 0, 48, 41
2, 13788, Note_on_c, 0, 70, 47
2, 14013, Control_c, 0, 64, 127
2, 14183, Note_on_c, 0, 75, 0
2, 14321, Note_on_c, 0, 66, 0
2, 14348, Note_on_c, 0, 70, 0
2, 14508, Note_on_c, 0, 74, 60
2, 14658, Note_on_c, 0, 63, 0
2, 14775, Note_on_c, 0, 58, 0
2, 14825, Note_on_c, 0, 73, 71
2, 14843, Note_on_c, 0, 74, 0
2, 14945, Note_on_c, 0, 48, 0
2, 14995, Note_on_c, 0, 73, 0
2, 15102, Note_on_c, 0, 72, 65
2, 15112, Note_on_c, 0, 61, 48
2, 15116, Note_on_c, 0, 69, 61
2, 15121, Note_on_c, 0, 55, 43
2, 15123, Note_on_c, 0, 51, 46
2, 15135, Control_c, 0, 64, 0
2, 15226, Control_c, 0, 64, 127
2, 15355, Note_on_c, 0, 61, 0
2, 15356, Note_on_c, 0, 69, 0
2, 15381, Note_on_c, 0, 55, 0
2, 15385, Note_on_c, 0, 72, 0
2, 15401, Note_on_c, 0, 51, 0
2, 15460, Note_on_c, 0, 75, 67
2, 15563, Note_on_c, 0, 75, 0
2, 15897, Note_on_c, 0, 59, 37
2, 15897, Note_on_c, 0, 65, 36
2, 15900, Note_on_c, 0, 70, 44
2, 15905, Note_on_c, 0, 54, 37
2, 15913, Note_on_c, 0, 39, 39
2, 15928, Control_c, 0, 64, 0
2, 15933, Note_on_c, 0, 44, 31
2, 16140, Control_c, 0, 64, 127
2, 16282, Note_on_c, 0, 39, 0
2, 16355, Note_on_c, 0, 44, 0
2, 16616, Note_on_c, 0, 54, 0
2, 16673, Note_on_c, 0, 58, 38
2, 16732, Note_on_c, 0, 65, 0
2, 16745, Note_on_c, 0, 59, 0
2, 17363, Note_on_c, 0, 59, 31
2, 17377, Note_on_c, 0, 58, 0
2, 17451, Note_on_c, 0, 70, 0
2, 17736, Note_on_c, 0, 68, 36
2, 17837, Note_on_c, 0, 68, 0
2, 18083, Note_on_c, 0, 68, 37
2, 18113, Note_on_c, 0, 70, 43
2, 18117, Note_on_c, 0, 68, 0
2, 18117, Note_on_c, 0, 64, 33
2, 18148, Note_on_c, 0, 68, 27
2, 18172, Note_on_c, 0, 70, 0
2, 18180, Control_c, 0, 64, 0
2, 18315, Control_c, 0, 64, 127
2, 18558, Note_on_c, 0, 68, 0
2, 18616, Note_on_c, 0, 67, 44
2, 18657, Note_on_c, 0, 67, 0
2, 18667, Note_on_c, 0, 68, 50
2, 18688, Note_on_c, 0, 64, 0
2, 18723, Note_on_c, 0, 70, 45
2, 18736, Note_on_c, 0, 68, 0
2, 18751, Note_on_c, 0, 70, 0
2, 18768, Note_on_c, 0, 71, 45
2, 18816, Note_on_c, 0, 68, 41
2, 18840, Note_on_c, 0, 71, 0
2, 18858, Note_on_c, 0, 63, 30
2, 18863, Control_c, 0, 64, 0
2, 18992, Control_c, 0, 64, 127
2, 19198, Note_on_c, 0, 59, 0
2, 19511, Note_on_c, 0, 59, 31
2, 19556, Note_on_c, 0, 63, 0
2, 19570, Note_on_c, 0, 68, 0
2, 19783, Note_on_c, 0, 67, 37
2, 20045, Note_on_c, 0, 67, 0
2, 20057, Note_on_c, 0, 68, 47
2, 20102, Note_on_c, 0, 68, 0
2, 20107, Note_on_c, 0, 70, 45
2, 20127, Note_on_c, 0, 65, 44
2, 20142, Control_c, 0, 64, 0
2, 20145, Note_on_c, 0, 68, 47
2, 20161, Note_on_c, 0, 70, 0
2, 20230, Control_c, 0, 64, 127
2, 20511, Note_on_c, 0, 65, 0
2, 20531, Note_on_c, 0, 68, 0
2, 20582, Note_on_c, 0, 67, 41
2, 20626, Note_on_c, 0, 68, 49
2, 20628, Note_on_c, 0, 67, 0
2, 20673, Note_on_c, 0, 70, 45
2, 20687, Note_on_c, 0, 68, 0
2, 20696, Note_on_c, 0, 70, 0
2, 20713, Note_on_c, 0, 71, 43
2, 20732, Note_on_c, 0, 64, 38
2, 20761, Note_on_c, 0, 68, 46
2, 20768, Control_c, 0, 64, 0
2, 20778, Note_on_c, 0, 71, 0
2, 20893, Control_c, 0, 64, 127
2, 21300, Note_on_c, 0, 64, 0
2, 21311, Note_on_c, 0, 63, 45
2, 21575, Note_on_c, 0, 67, 52
2, 21602, Note_on_c, 0, 68, 0
2, 21886, Note_on_c, 0, 62, 49
2, 21890, Note_on_c, 0, 66, 52
2, 21922, Control_c, 0, 64, 0
2, 21947, Note_on_c, 0, 67, 0
2, 22015, Control_c, 0, 64, 127
2, 22148, Note_on_c, 0, 63, 0
2, 22182, Note_on_c, 0, 70, 57
2, 22213, Note_on_c, 0, 66, 0
2, 22245, Note_on_c, 0, 62, 0
2, 22368, Note_on_c, 0, 70, 0
2, 22456, Note_on_c, 0, 69, 44
2, 22490, Note_on_c, 0, 69, 0
2, 22493, Note_on_c, 0, 70, 48
2, 22498, Note_on_c, 0, 63, 42
2, 22510, Control_c, 0, 64, 0
2, 22540, Note_on_c, 0, 69, 54
2, 22568, Note_on_c, 0, 70, 0
2, 22616, Control_c, 0, 64, 127
2, 22878, Note_on_c, 0, 65, 51
2, 23213, Note_on_c, 0, 65, 0
2, 23218, Note_on_c, 0, 64, 44
2, 23223, Note_on_c, 0, 62, 35
2, 23236, Control_c, 0, 64, 0
2, 23256, Note_on_c, 0, 63, 0
2, 23260, Note_on_c, 0, 69, 0
2, 23322, Control_c, 0, 64, 127
2, 23860, Note_on_c, 0, 62, 0
2, 23931, Note_on_c, 0, 63, 43
2, 23933, Control_c, 0, 64, 0
2, 23938, Note_on_c, 0, 61, 31
2, 23948, Note_on_c, 0, 64, 0
2, 23951, Note_on_c, 0, 59, 0
2, 24112, Control_c, 0, 64, 127
2, 24312, Note_on_c, 0, 66, 35
2, 24336, Note_on_c, 0, 63, 0
2, 24732, Note_on_c, 0, 63, 37
2, 24738, Note_on_c, 0, 60, 35
2, 24768, Note_on_c, 0, 66, 0
2, 24776, Note_on_c, 0, 61, 0
2, 24776, Control_c, 0, 64, 0
2, 24786, Note_on_c, 0, 70, 38
2, 24843, Note_on_c, 0, 70, 0
2, 25590, Note_on_c, 0, 60, 0
2, 25595, Note_on_c, 0, 59, 31
2, 25863, Control_c, 0, 64, 127
2, 26002, Note_on_c, 0, 59, 0
2, 26111, Note_on_c, 0, 63, 0
2, 26713, Note_on_c, 0, 36, 35
2, 26720, Control_c, 0, 64, 0
2, 26835, Control_c, 0, 64, 127
2, 26940, Note_on_c, 0, 42, 43
2, 27036, Note_on_c, 0, 52, 44
2, 27116, Note_on_c, 0, 62, 47
2, 27177, Note_on_c, 0, 70, 52
2, 27287, Note_on_c, 0, 75, 67
2, 27291, Note_on_c, 0, 66, 52
2, 27313, Note_on_c, 0, 70, 0
2, 27557, Note_on_c, 0, 75, 0
2, 27738, Note_on_c, 0, 62, 0
2, 27815, Note_on_c, 0, 66, 0
2, 27816, Note_on_c, 0, 74, 52
2, 28008, Note_on_c, 0, 52, 0
2, 28052, Note_on_c, 0, 36, 0
2, 28088, Note_on_c, 0, 42, 0
2, 28277, Note_on_c, 0, 67, 45
2, 28281, Note_on_c, 0, 74, 0
2, 28477, Note_on_c, 0, 67, 0
2, 28482, Note_on_c, 0, 73, 49
2, 28546, Note_on_c, 0, 73, 0
2, 28568, Note_on_c, 0, 74, 31
2, 28622, Note_on_c, 0, 73, 52
2, 28657, Note_on_c, 0, 74, 0
2, 28688, Note_on_c, 0, 72, 47
2, 28692, Note_on_c, 0, 73, 0
2, 28738, Note_on_c, 0, 71, 38
2, 28746, Note_on_c, 0, 72, 0
2, 28812, Note_on_c, 0, 74, 39
2, 28821, Note_on_c, 0, 71, 0
2, 28986, Note_on_c, 0, 70, 47
2, 28988, Note_on_c, 0, 68, 40
2, 29086, Note_on_c, 0, 74, 0
2, 29182, Note_on_c, 0, 68, 0
2, 29318, Note_on_c, 0, 71, 52
2, 29335, Note_on_c, 0, 70, 0
2, 29592, Note_on_c, 0, 71, 0
2, 29603, Note_on_c, 0, 72, 46
2, 29827, Note_on_c, 0, 72, 0
2, 29836, Note_on_c, 0, 74, 47
2, 29876, Note_on_c, 0, 67, 42
2, 29900, Note_on_c, 0, 73, 61
2, 29965, Note_on_c, 0, 74, 0
2, 30113, Note_on_c, 0, 73, 0
2, 30240, Note_on_c, 0, 72, 57
2, 30365, Note_on_c, 0, 72, 0
2, 30558, Note_on_c, 0, 71, 59
2, 30567, Note_on_c, 0, 67, 0
2, 30657, Note_on_c, 0, 71, 0
2, 30941, Note_on_c, 0, 75, 59
2, 30952, Note_on_c, 0, 70, 61
2, 30958, Note_on_c, 0, 66, 48
2, 30960, Note_on_c, 0, 54, 44
2, 30961, Note_on_c, 0, 63, 44
2, 30963, Note_on_c, 0, 58, 32
2, 30963, Note_on_c, 0, 48, 43
2, 30978, Control_c, 0, 64, 0
2, 31108, Control_c, 0, 64, 127
2, 31351, Note_on_c, 0, 63, 0
2, 31752, Note_on_c, 0, 70, 0
2, 31755, Note_on_c, 0, 63, 59
2, 31756, Note_on_c, 0, 66, 0
2, 31796, Note_on_c, 0, 63, 0
2, 31805, Note_on_c, 0, 75, 0
2, 31935, Note_on_c, 0, 48, 0
2, 32023, Note_on_c, 0, 54, 0
2, 32055, Note_on_c, 0, 58, 0
2, 32132, Note_on_c, 0, 76, 74
2, 32412, Note_on_c, 0, 76, 0
2, 32487, Note_on_c, 0, 73, 64
2, 32490, Note_on_c, 0, 77, 74
2, 32500, Note_on_c, 0, 51, 47
2, 32500, Note_on_c, 0, 62, 50
2, 32500, Note_on_c, 0, 69, 59
2, 32508, Note_on_c, 0, 57, 51
2, 32522, Control_c, 0, 64, 0
2, 32542, Control_c, 0, 64, 127
2, 32651, Note_on_c, 0, 62, 0
2, 32823, Note_on_c, 0, 77, 0
2, 32857, Note_on_c, 0, 81, 74
2, 32862, Note_on_c, 0, 61, 55
2, 32867, Note_on_c, 0, 73, 0
2, 33026, Note_on_c, 0, 61, 0
2, 33230, Note_on_c, 0, 51, 0
2, 33233, Note_on_c, 0, 80, 69
2, 33240, Note_on_c, 0, 57, 0
2, 33245, Note_on_c, 0, 60, 30
2, 33255, Note_on_c, 0, 56, 47
2, 33307, Note_on_c, 0, 81, 0
2, 33630, Note_on_c, 0, 76, 60
2, 33698, Note_on_c, 0, 80, 0
2, 33721, Note_on_c, 0, 76, 0
2, 33731, Note_on_c, 0, 60, 0
2, 33760, Note_on_c, 0, 69, 0
2, 33778, Note_on_c, 0, 56, 0
2, 34103, Note_on_c, 0, 75, 50
2, 34112, Note_on_c, 0, 58, 31
2, 34121, Note_on_c, 0, 54, 43
2, 34125, Note_on_c, 0, 63, 32
2, 34125, Note_on_c, 0, 66, 40
2, 34130, Note_on_c, 0, 70, 47
2, 34133, Note_on_c, 0, 48, 41
2, 34140, Control_c, 0, 64, 0
2, 34346, Control_c, 0, 64, 127
2, 34498, Note_on_c, 0, 48, 0
2, 34521, Note_on_c, 0, 58, 0
2, 34563, Note_on_c, 0, 63, 0
2, 34811, Note_on_c, 0, 70, 0
2, 34837, Note_on_c, 0, 66, 0
2, 34843, Note_on_c, 0, 75, 0
2, 34875, Note_on_c, 0, 63, 52
2, 34938, Note_on_c, 0, 63, 0
2, 35116, Note_on_c, 0, 54, 0
2, 35231, Note_on_c, 0, 64, 70
2, 35551, Note_on_c, 0, 64, 0
2, 35578, Note_on_c, 0, 61, 60
2, 35583, Note_on_c, 0, 65, 64
2, 35595, Note_on_c, 0, 54, 41
2, 35597, Note_on_c, 0, 44, 45
2, 35598, Note_on_c, 0, 57, 51
2, 35626, Control_c, 0, 64, 0
2, 35683, Control_c, 0, 64, 127
2, 35792, Note_on_c, 0, 65, 0
2, 35935, Note_on_c, 0, 57, 0
2, 35941, Note_on_c, 0, 69, 72
2, 35968, Note_on_c, 0, 61, 0
2, 36032, Note_on_c, 0, 54, 0
2, 36065, Note_on_c, 0, 69, 0
2, 36306, Note_on_c, 0, 68, 71
2, 36311, Note_on_c, 0, 57, 48
2, 36313, Note_on_c, 0, 59, 72
2, 36707, Note_on_c, 0, 57, 0
2, 36721, Note_on_c, 0, 64, 78
2, 36773, Note_on_c, 0, 44, 0
2, 36786, Note_on_c, 0, 68, 0
2, 36808, Note_on_c, 0, 64, 0
2, 36831, Note_on_c, 0, 59, 0
2, 37110, Note_on_c, 0, 25, 52
2, 37156, Note_on_c, 0, 37, 68
2, 37182, Note_on_c, 0, 59, 61
2, 37187, Note_on_c, 0, 56, 62
2, 37188, Note_on_c, 0, 52, 43
2, 37193, Note_on_c, 0, 63, 72
2, 37286, Control_c, 0, 64, 0
2, 37362, Control_c, 0, 64, 127
2, 37597, Note_on_c, 0, 25, 0
2, 37636, Note_on_c, 0, 37, 0
2, 37978, Note_on_c, 0, 59, 0
2, 38005, Note_on_c, 0, 52, 0
2, 38021, Note_on_c, 0, 44, 57
2, 38030, Note_on_c, 0, 56, 0
2, 38033, Note_on_c, 0, 63, 0
2, 38386, Note_on_c, 0, 64, 67
2, 38750, Note_on_c, 0, 64, 0
2, 38757, Note_on_c, 0, 66, 63
2, 38758, Note_on_c, 0, 52, 50
2, 38766, Note_on_c, 0, 63, 58
2, 38767, Note_on_c, 0, 59, 60
2, 38835, Note_on_c, 0, 44, 0
2, 38900, Note_on_c, 0, 66, 0
2, 38945, Note_on_c, 0, 59, 0
2, 38980, Note_on_c, 0, 63, 0
2, 39166, Note_on_c, 0, 68, 79
2, 39480, Note_on_c, 0, 68, 0
2, 39515, Note_on_c, 0, 70, 75
2, 39517, Note_on_c, 0, 66, 62
2, 39521, Note_on_c, 0, 63, 62
2, 39523, Note_on_c, 0, 59, 64
2, 39528, Note_on_c, 0, 52, 0
2, 39632, Note_on_c, 0, 66, 0
2, 39635, Note_on_c, 0, 63, 0
2, 39653, Note_on_c, 0, 70, 0
2, 39917, Note_on_c, 0, 71, 85
2, 39981, Note_on_c, 0, 59, 0
2, 40037, Note_on_c, 0, 71, 0
2, 40502, Note_on_c, 0, 68, 32
2, 40506, Note_on_c, 0, 75, 35
2, 40508, Note_on_c, 0, 83, 47
2, 40510, Note_on_c, 0, 71, 33
2, 40511, Note_on_c, 0, 80, 40
2, 40512, Note_on_c, 0, 63, 44
2, 40512, Note_on_c, 0, 64, 38
2, 40562, Control_c, 0, 64, 0
2, 40667, Control_c, 0, 64, 127
2, 40882, Note_on_c, 0, 63, 0
2, 41277, Note_on_c, 0, 59, 42
2, 41288, Control_c, 0, 64, 0
2, 41346, Control_c, 0, 64, 127
2, 41562, Note_on_c, 0, 64, 0
2, 41893, Note_on_c, 0, 64, 44
2, 41912, Note_on_c, 0, 59, 0
2, 42012, Note_on_c, 0, 68, 0
2, 42156, Note_on_c, 0, 63, 46
2, 42161, Note_on_c, 0, 64, 0
2, 42173, Control_c, 0, 64, 0
2, 42251, Control_c, 0, 64, 127
2, 42912, Note_on_c, 0, 63, 0
2, 42988, Note_on_c, 0, 71, 0
2, 42991, Note_on_c, 0, 60, 32
2, 42996, Note_on_c, 0, 75, 0
2, 42996, Control_c, 0, 64, 0
2, 43013, Note_on_c, 0, 83, 0
2, 43023, Note_on_c, 0, 80, 0
2, 43097, Control_c, 0, 64, 127
2, 43390, Note_on_c, 0, 60, 0
2, 43701, Note_on_c, 0, 72, 44
2, 43917, Note_on_c, 0, 72, 0
2, 43928, Note_on_c, 0, 59, 37
2, 43935, Note_on_c, 0, 71, 40
2, 43935, Note_on_c, 0, 64, 30
2, 43941, Note_on_c, 0, 55, 37
2, 43943, Note_on_c, 0, 60, 34
2, 43953, Control_c, 0, 64, 0
2, 44050, Control_c, 0, 64, 127
2, 44365, Note_on_c, 0, 55, 0
2, 44377, Note_on_c, 0, 59, 0
2, 44396, Note_on_c, 0, 60, 0
2, 44398, Note_on_c, 0, 64, 0
2, 44477, Note_on_c, 0, 76, 62
2, 44512, Note_on_c, 0, 71, 0
2, 44647, Note_on_c, 0, 83, 64
2, 44656, Note_on_c, 0, 60, 40
2, 44660, Note_on_c, 0, 64, 35
2, 44661, Note_on_c, 0, 52, 41
2, 44667, Note_on_c, 0, 76, 0
2, 44882, Note_on_c, 0, 52, 0
2, 44978, Note_on_c, 0, 60, 0
2, 45052, Note_on_c, 0, 64, 0
2, 45066, Note_on_c, 0, 83, 0
2, 45131, Note_on_c, 0, 71, 57
2, 45346, Note_on_c, 0, 70, 46
2, 45348, Note_on_c, 0, 64, 30
2, 45348, Note_on_c, 0, 60, 38
2, 45353, Note_on_c, 0, 55, 35
2, 45373, Note_on_c, 0, 71, 0
2, 45382, Control_c, 0, 64, 0
2, 45445, Control_c, 0, 64, 127
2, 45586, Note_on_c, 0, 55, 0
2, 45636, Note_on_c, 0, 60, 0
2, 45712, Note_on_c, 0, 64, 0
2, 46082, Note_on_c, 0, 58, 37
2, 46086, Note_on_c, 0, 67, 33
2, 46087, Note_on_c, 0, 60, 34
2, 46090, Control_c, 0, 64, 0
2, 46176, Control_c, 0, 64, 127
2, 46312, Note_on_c, 0, 70, 0
2, 46341, Note_on_c, 0, 67, 0
2, 46367, Note_on_c, 0, 60, 0
2, 46386, Note_on_c, 0, 58, 0
2, 46645, Note_on_c, 0, 70, 49
2, 46840, Control_c, 0, 64, 0
2, 46840, Note_on_c, 0, 71, 56
2, 46843, Note_on_c, 0, 64, 33
2, 46843, Note_on_c, 0, 59, 42
2, 46851, Note_on_c, 0, 70, 0
2, 46851, Note_on_c, 0, 55, 37
2, 46855, Note_on_c, 0, 60, 35
2, 46956, Control_c, 0, 64, 127
2, 47205, Note_on_c, 0, 76, 63
2, 47282, Note_on_c, 0, 55, 0
2, 47287, Note_on_c, 0, 59, 0
2, 47320, Note_on_c, 0, 60, 0
2, 47328, Note_on_c, 0, 64, 0
2, 47350, Note_on_c, 0, 71, 0
2, 47381, Note_on_c, 0, 79, 65
2, 47566, Note_on_c, 0, 76, 0
2, 47593, Note_on_c, 0, 83, 56
2, 47597, Note_on_c, 0, 52, 39
2, 47598, Note_on_c, 0, 60, 41
2, 47601, Note_on_c, 0, 79, 0
2, 47601, Note_on_c, 0, 64, 37
2, 47605, Control_c, 0, 64, 0
2, 47677, Control_c, 0, 64, 127
2, 47917, Note_on_c, 0, 52, 0
2, 47956, Note_on_c, 0, 60, 0
2, 47958, Note_on_c, 0, 79, 50
2, 47973, Note_on_c, 0, 64, 0
2, 48005, Note_on_c, 0, 83, 0
2, 48105, Note_on_c, 0, 79, 0
2, 48116, Note_on_c, 0, 71, 56
2, 48333, Note_on_c, 0, 70, 45
2, 48342, Note_on_c, 0, 64, 26
2, 48346, Note_on_c, 0, 71, 0
2, 48348, Note_on_c, 0, 55, 33
2, 48351, Note_on_c, 0, 60, 33
2, 48361, Control_c, 0, 64, 0
2, 48437, Control_c, 0, 64, 127
2, 48590, Note_on_c, 0, 55, 0
2, 48622, Note_on_c, 0, 60, 0
2, 48640, Note_on_c, 0, 64, 0
2, 49062, Note_on_c, 0, 67, 29
2, 49066, Note_on_c, 0, 58, 34
2, 49070, Note_on_c, 0, 60, 34
2, 49077, Control_c, 0, 64, 0
2, 49155, Control_c, 0, 64, 127
2, 49321, Note_on_c, 0, 70, 0
2, 49332, Note_on_c, 0, 67, 0
2, 49468, Note_on_c, 0, 58, 0
2, 49470, Note_on_c, 0, 60, 0
2, 49605, Note_on_c, 0, 67, 46
2, 49837, Note_on_c, 0, 68, 47
2, 49840, Note_on_c, 0, 55, 38
2, 49842, Note_on_c, 0, 60, 29
2, 49852, Control_c, 0, 64, 0
2, 49858, Note_on_c, 0, 56, 36
2, 49882, Note_on_c, 0, 67, 0
2, 49933, Control_c, 0, 64, 127
2, 50050, Note_on_c, 0, 68, 0
2, 50168, Note_on_c, 0, 60, 0
2, 50171, Note_on_c, 0, 55, 0
2, 50201, Note_on_c, 0, 56, 0
2, 50362, Note_on_c, 0, 67, 56
2, 50561, Note_on_c, 0, 72, 60
2, 50568, Note_on_c, 0, 67, 0
2, 50573, Note_on_c, 0, 63, 37
2, 50582, Note_on_c, 0, 48, 39
2, 50582, Note_on_c, 0, 56, 34
2, 50597, Control_c, 0, 64, 0
2, 50665, Control_c, 0, 64, 127
2, 50902, Note_on_c, 0, 63, 0
2, 50953, Note_on_c, 0, 48, 0
2, 51110, Note_on_c, 0, 56, 0
2, 51110, Note_on_c, 0, 79, 57
2, 51126, Note_on_c, 0, 72, 0
2, 51328, Note_on_c, 0, 79, 0
2, 51336, Note_on_c, 0, 78, 46
2, 51345, Note_on_c, 0, 51, 34
2, 51350, Note_on_c, 0, 60, 27
2, 51357, Note_on_c, 0, 56, 36
2, 51367, Control_c, 0, 64, 0
2, 51455, Control_c, 0, 64, 127
2, 51745, Note_on_c, 0, 51, 0
2, 51798, Note_on_c, 0, 60, 0
2, 51806, Note_on_c, 0, 56, 0
2, 52107, Note_on_c, 0, 60, 28
2, 52108, Control_c, 0, 64, 0
2, 52111, Note_on_c, 0, 56, 34
2, 52112, Note_on_c, 0, 54, 37
2, 52195, Control_c, 0, 64, 127
2, 52415, Note_on_c, 0, 78, 0
2, 52468, Note_on_c, 0, 54, 0
2, 52498, Note_on_c, 0, 60, 0
2, 52567, Note_on_c, 0, 56, 0
2, 52666, Note_on_c, 0, 72, 61
2, 52901, Note_on_c, 0, 72, 0
2, 52902, Note_on_c, 0, 79, 53
2, 52912, Control_c, 0, 64, 0
2, 52916, Note_on_c, 0, 56, 34
2, 52918, Note_on_c, 0, 55, 39
2, 52921, Note_on_c, 0, 60, 26
2, 52988, Control_c, 0, 64, 127
2, 53190, Note_on_c, 0, 60, 0
2, 53192, Note_on_c, 0, 55, 0
2, 53225, Note_on_c, 0, 56, 0
2, 53461, Note_on_c, 0, 72, 51
2, 53508, Note_on_c, 0, 79, 0
2, 53658, Note_on_c, 0, 48, 39
2, 53661, Note_on_c, 0, 63, 34
2, 53670, Note_on_c, 0, 56, 35
2, 53681, Note_on_c, 0, 75, 50
2, 53691, Control_c, 0, 64, 0
2, 53700, Note_on_c, 0, 72, 0
2, 53792, Control_c, 0, 64, 127
2, 54008, Note_on_c, 0, 63, 0
2, 54058, Note_on_c, 0, 48, 0
2, 54105, Note_on_c, 0, 75, 0
2, 54253, Note_on_c, 0, 67, 50
2, 54263, Note_on_c, 0, 56, 0
2, 54462, Note_on_c, 0, 67, 0
2, 54482, Note_on_c, 0, 66, 45
2, 54488, Note_on_c, 0, 51, 31
2, 54498, Note_on_c, 0, 60, 26
2, 54501, Note_on_c, 0, 56, 36
2, 54518, Control_c, 0, 64, 0
2, 54610, Control_c, 0, 64, 127
2, 54846, Note_on_c, 0, 51, 0
2, 54872, Note_on_c, 0, 60, 0
2, 54926, Note_on_c, 0, 56, 0
2, 55257, Note_on_c, 0, 54, 35
2, 55260, Control_c, 0, 64, 0
2, 55262, Note_on_c, 0, 60, 27
2, 55267, Note_on_c, 0, 56, 34
2, 55336, Control_c, 0, 64, 127
2, 55386, Note_on_c, 0, 66, 0
2, 55501, Note_on_c, 0, 54, 0
2, 55503, Note_on_c, 0, 60, 0
2, 55503, Note_on_c, 0, 56, 0
2, 55653, Note_on_c, 0, 76, 48
2, 55843, Note_on_c, 0, 83, 48
2, 55850, Note_on_c, 0, 76, 0
2, 56120, Note_on_c, 0, 88, 42
2, 56121, Control_c, 0, 64, 0
2, 56127, Note_on_c, 0, 59, 33
2, 56131, Note_on_c, 0, 64, 28
2, 56137, Note_on_c, 0, 60, 29
2, 56137, Note_on_c, 0, 55, 30
2, 56148, Note_on_c, 0, 83, 0
2, 56227, Control_c, 0, 64, 127
2, 56477, Note_on_c, 0, 55, 0
2, 56488, Note_on_c, 0, 59, 0
2, 56491, Note_on_c, 0, 83, 50
2, 56527, Note_on_c, 0, 60, 0
2, 56531, Note_on_c, 0, 64, 0
2, 56657, Note_on_c, 0, 83, 0
2, 56662, Note_on_c, 0, 76, 49
2, 56853, Note_on_c, 0, 76, 0
2, 56860, Note_on_c, 0, 83, 43
2, 56867, Note_on_c, 0, 64, 28
2, 56870, Note_on_c, 0, 52, 36
2, 56875, Note_on_c, 0, 60, 30
2, 56891, Control_c, 0, 64, 0
2, 56928, Note_on_c, 0, 88, 0
2, 56943, Control_c, 0, 64, 127
2, 57010, Note_on_c, 0, 83, 0
2, 57213, Note_on_c, 0, 71, 47
2, 57262, Note_on_c, 0, 52, 0
2, 57297, Note_on_c, 0, 60, 0
2, 57313, Note_on_c, 0, 64, 0
2, 57387, Note_on_c, 0, 71, 0
2, 57393, Note_on_c, 0, 77, 50
2, 57592, Note_on_c, 0, 77, 0
2, 57611, Note_on_c, 0, 76, 52
2, 57622, Note_on_c, 0, 64, 31
2, 57630, Note_on_c, 0, 60, 38
2, 57636, Note_on_c, 0, 55, 37
2, 57641, Control_c, 0, 64, 0
2, 57737, Control_c, 0, 64, 127
2, 57967, Note_on_c, 0, 55, 0
2, 57971, Note_on_c, 0, 64, 0
2, 57998, Note_on_c, 0, 60, 0
2, 58367, Note_on_c, 0, 76, 0
2, 58383, Note_on_c, 0, 64, 41
2, 58386, Note_on_c, 0, 59, 41
2, 58393, Note_on_c, 0, 60, 36
2, 58435, Control_c, 0, 64, 0
2, 58497, Control_c, 0, 64, 127
2, 58717, Note_on_c, 0, 76, 61
2, 58827, Note_on_c, 0, 59, 0
2, 58843, Note_on_c, 0, 60, 0
2, 58845, Note_on_c, 0, 64, 0
2, 58886, Note_on_c, 0, 83, 68
2, 58897, Note_on_c, 0, 76, 0
2, 59106, Note_on_c, 0, 88, 60
2, 59112, Note_on_c, 0, 59, 47
2, 59115, Note_on_c, 0, 83, 0
2, 59118, Note_on_c, 0, 64, 33
2, 59123, Note_on_c, 0, 55, 40
2, 59125, Note_on_c, 0, 60, 39
2, 59147, Control_c, 0, 64, 0
2, 59205, Control_c, 0, 64, 127
2, 59447, Note_on_c, 0, 83, 70
2, 59467, Note_on_c, 0, 55, 0
2, 59476, Note_on_c, 0, 59, 0
2, 59530, Note_on_c, 0, 64, 0
2, 59537, Note_on_c, 0, 60, 0
2, 59603, Note_on_c, 0, 76, 68
2, 59621, Note_on_c, 0, 83, 0
2, 59670, Note_on_c, 0, 88, 0
2, 59792, Note_on_c, 0, 83, 74
2, 59813, Note_on_c, 0, 64, 30
2, 59815, Note_on_c, 0, 76, 0
2, 59815, Note_on_c, 0, 60, 37
2, 59817, Note_on_c, 0, 52, 42
2, 59850, Control_c, 0, 64, 0
2, 59912, Control_c, 0, 64, 127
2, 60141, Note_on_c, 0, 83, 0
2, 60145, Note_on_c, 0, 76, 71
2, 60215, Note_on_c, 0, 52, 0
2, 60266, Note_on_c, 0, 60, 0
2, 60313, Note_on_c, 0, 76, 0
2, 60327, Note_on_c, 0, 89, 81
2, 60337, Note_on_c, 0, 64, 0
2, 60590, Note_on_c, 0, 88, 70
2, 60605, Note_on_c, 0, 64, 38
2, 60612, Note_on_c, 0, 60, 41
2, 60621, Note_on_c, 0, 55, 36
2, 60638, Control_c, 0, 64, 0
2, 60645, Note_on_c, 0, 89, 0
2, 60711, Control_c, 0, 64, 127
2, 60938, Note_on_c, 0, 55, 0
2, 60970, Note_on_c, 0, 60, 0
2, 60977, Note_on_c, 0, 64, 0
2, 61370, Note_on_c, 0, 67, 37
2, 61380, Note_on_c, 0, 60, 36
2, 61383, Control_c, 0, 64, 0
2, 61387, Note_on_c, 0, 59, 39
2, 61451, Control_c, 0, 64, 127
2, 61537, Note_on_c, 0, 88, 0
2, 61561, Note_on_c, 0, 67, 0
2, 61662, Note_on_c, 0, 59, 0
2, 61685, Note_on_c, 0, 60, 0
2, 61955, Note_on_c, 0, 64, 46
2, 62188, Note_on_c, 0, 64, 0
2, 62195, Note_on_c, 0, 67, 48
2, 62203, Note_on_c, 0, 59, 30
2, 62210, Note_on_c, 0, 55, 44
2, 62216, Note_on_c, 0, 53, 47
2, 62216, Control_c, 0, 64, 0
2, 62288, Control_c, 0, 64, 127
2, 62466, Note_on_c, 0, 59, 0
2, 62496, Note_on_c, 0, 55, 0
2, 62521, Note_on_c, 0, 53, 0
2, 62735, Note_on_c, 0, 64, 48
2, 62742, Note_on_c, 0, 67, 0
2, 62945, Note_on_c, 0, 67, 46
2, 62950, Note_on_c, 0, 43, 37
2, 62950, Note_on_c, 0, 31, 36
2, 62966, Note_on_c, 0, 64, 0
2, 63018, Note_on_c, 0, 31, 0
2, 63021, Note_on_c, 0, 43, 0
2, 63473, Note_on_c, 0, 71, 55
2, 63490, Note_on_c, 0, 67, 0
2, 63680, Note_on_c, 0, 59, 34
2, 63680, Note_on_c, 0, 67, 50
2, 63687, Note_on_c, 0, 55, 44
2, 63687, Note_on_c, 0, 53, 38
2, 63748, Note_on_c, 0, 71, 0
2, 64212, Note_on_c, 0, 53, 0
2, 64408, Note_on_c, 0, 52, 45
2, 64676, Note_on_c, 0, 67, 0
2, 64755, Note_on_c, 0, 52, 0
2, 64763, Note_on_c, 0, 59, 0
2, 64797, Note_on_c, 0, 55, 0
2, 64940, Note_on_c, 0, 64, 57
2, 65108, Note_on_c, 0, 64, 0
2, 65136, Note_on_c, 0, 71, 56
2, 65151, Control_c, 0, 64, 0
2, 65155, Note_on_c, 0, 59, 34
2, 65160, Note_on_c, 0, 53, 41
2, 65163, Note_on_c, 0, 55, 43
2, 65228, Control_c, 0, 64, 127
2, 65440, Note_on_c, 0, 59, 0
2, 65473, Note_on_c, 0, 55, 0
2, 65493, Note_on_c, 0, 53, 0
2, 65670, Note_on_c, 0, 67, 49
2, 65677, Note_on_c, 0, 71, 0
2, 65867, Note_on_c, 0, 43, 44
2, 65871, Note_on_c, 0, 31, 37
2, 65872, Note_on_c, 0, 71, 49
2, 65887, Note_on_c, 0, 67, 0
2, 65952, Note_on_c, 0, 31, 0
2, 65967, Note_on_c, 0, 43, 0
2, 66420, Note_on_c, 0, 77, 69
2, 66446, Note_on_c, 0, 71, 0
2, 66640, Note_on_c, 0, 76, 67
2, 66641, Note_on_c, 0, 55, 40
2, 66647, Note_on_c, 0, 53, 40
2, 66661, Note_on_c, 0, 64, 34
2, 66665, Note_on_c, 0, 59, 36
2, 66691, Note_on_c, 0, 77, 0
2, 66930, Note_on_c, 0, 53, 0
2, 67376, Note_on_c, 0, 52, 39
2, 67451, Note_on_c, 0, 76, 0
2, 67557, Note_on_c, 0, 64, 0
2, 67621, Note_on_c, 0, 59, 0
2, 67648, Note_on_c, 0, 55, 0
2, 67650, Note_on_c, 0, 52, 0
2, 67907, Note_on_c, 0, 71, 47
2, 68196, Note_on_c, 0, 51, 36
2, 68210, Note_on_c, 0, 74, 48
2, 68211, Note_on_c, 0, 58, 30
2, 68221, Control_c, 0, 64, 0
2, 68225, Note_on_c, 0, 50, 34
2, 68243, Note_on_c, 0, 71, 0
2, 68317, Control_c, 0, 64, 127
2, 68532, Note_on_c, 0, 58, 0
2, 68540, Note_on_c, 0, 50, 0
2, 68568, Note_on_c, 0, 51, 0
2, 68741, Note_on_c, 0, 62, 47
2, 68957, Note_on_c, 0, 43, 33
2, 68960, Note_on_c, 0, 31, 33
2, 68968, Note_on_c, 0, 67, 44
2, 69038, Note_on_c, 0, 62, 0
2, 69140, Note_on_c, 0, 31, 0
2, 69186, Note_on_c, 0, 43, 0
2, 69521, Note_on_c, 0, 70, 47
2, 69548, Note_on_c, 0, 67, 0
2, 69731, Note_on_c, 0, 51, 37
2, 69737, Note_on_c, 0, 67, 44
2, 69745, Note_on_c, 0, 62, 28
2, 69747, Note_on_c, 0, 70, 0
2, 69752, Note_on_c, 0, 58, 37
2, 69765, Control_c, 0, 64, 0
2, 69832, Control_c, 0, 64, 127
2, 70043, Note_on_c, 0, 51, 0
2, 70453, Note_on_c, 0, 50, 40
2, 70640, Note_on_c, 0, 67, 0
2, 70677, Note_on_c, 0, 74, 0
2, 70801, Note_on_c, 0, 62, 0
2, 70933, Note_on_c, 0, 58, 0
2, 70957, Note_on_c, 0, 50, 0
2, 71017, Note_on_c, 0, 62, 47
2, 71275, Note_on_c, 0, 62, 0
2, 71285, Note_on_c, 0, 73, 49
2, 71288, Note_on_c, 0, 58, 34
2, 71292, Note_on_c, 0, 51, 36
2, 71310, Control_c, 0, 64, 0
2, 71376, Control_c, 0, 64, 127
2, 71683, Note_on_c, 0, 58, 0
2, 71766, Note_on_c, 0, 51, 0
2, 71815, Note_on_c, 0, 73, 0
2, 71830, Note_on_c, 0, 61, 39
2, 72046, Note_on_c, 0, 43, 34
2, 72055, Note_on_c, 0, 65, 43
2, 72057, Note_on_c, 0, 31, 31
2, 72083, Control_c, 0, 64, 0
2, 72112, Control_c, 0, 64, 127
2, 72335, Note_on_c, 0, 61, 0
2, 72375, Note_on_c, 0, 31, 0
2, 72446, Note_on_c, 0, 43, 0
2, 72598, Note_on_c, 0, 65, 0
2, 72601, Note_on_c, 0, 70, 45
2, 72815, Note_on_c, 0, 67, 33
2, 72818, Note_on_c, 0, 58, 34
2, 72840, Note_on_c, 0, 70, 0
2, 73361, Note_on_c, 0, 67, 0
2, 73448, Note_on_c, 0, 58, 0
2, 73508, Note_on_c, 0, 50, 42
2, 73763, Note_on_c, 0, 50, 0
2, 73995, Note_on_c, 0, 58, 44
2, 74177, Note_on_c, 0, 49, 46
2, 74183, Note_on_c, 0, 53, 40
2, 74186, Control_c, 0, 64, 0
2, 74240, Control_c, 0, 64, 127
2, 74266, Note_on_c, 0, 58, 0
2, 74583, Note_on_c, 0, 60, 62
2, 74608, Note_on_c, 0, 53, 0
2, 74703, Note_on_c, 0, 60, 0
2, 74725, Note_on_c, 0, 61, 64
2, 74738, Note_on_c, 0, 53, 50
2, 74740, Control_c, 0, 64, 0
2, 74740, Note_on_c, 0, 46, 47
2, 74745, Note_on_c, 0, 57, 48
2, 74753, Note_on_c, 0, 49, 0
2, 74787, Control_c, 0, 64, 127
2, 74825, Note_on_c, 0, 57, 0
2, 74866, Note_on_c, 0, 61, 0
2, 74883, Note_on_c, 0, 53, 0
2, 75081, Note_on_c, 0, 63, 74
2, 75142, Note_on_c, 0, 63, 0
2, 75210, Note_on_c, 0, 64, 73
2, 75211, Control_c, 0, 64, 0
2, 75212, Note_on_c, 0, 42, 54
2, 75220, Note_on_c, 0, 55, 65
2, 75221, Note_on_c, 0, 60, 62
2, 75241, Note_on_c, 0, 46, 0
2, 75255, Control_c, 0, 64, 127
2, 75303, Note_on_c, 0, 64, 0
2, 75326, Note_on_c, 0, 60, 0
2, 75327, Note_on_c, 0, 55, 0
2, 75447, Note_on_c, 0, 42, 0
2, 75547, Note_on_c, 0, 67, 80
2, 75611, Note_on_c, 0, 67, 0
2, 75660, Note_on_c, 0, 66, 68
2, 75662, Note_on_c, 0, 52, 70
2, 75663, Control_c, 0, 64, 0
2, 75670, Note_on_c, 0, 58, 66
2, 75671, Note_on_c, 0, 61, 77
2, 75721, Control_c, 0, 64, 127
2, 75808, Note_on_c, 0, 58, 0
2, 75815, Note_on_c, 0, 61, 0
2, 75842, Note_on_c, 0, 66, 0
2, 75925, Note_on_c, 0, 52, 0
2, 75966, Note_on_c, 0, 54, 71
2, 76078, Note_on_c, 0, 73, 87
2, 76083, Note_on_c, 0, 69, 90
2, 76086, Note_on_c, 0, 64, 84
2, 76087, Note_on_c, 0, 55, 89
2, 76091, Control_c, 0, 64, 0
2, 76137, Note_on_c, 0, 54, 0
2, 76145, Control_c, 0, 64, 127
2, 76213, Note_on_c, 0, 64, 0
2, 76225, Note_on_c, 0, 69, 0
2, 76245, Note_on_c, 0, 73, 0
2, 76383, Note_on_c, 0, 55, 0
2, 76412, Note_on_c, 0, 57, 85
2, 76515, Note_on_c, 0, 76, 90
2, 76517, Note_on_c, 0, 72, 92
2, 76520, Control_c, 0, 64, 0
2, 76523, Note_on_c, 0, 67, 86
2, 76528, Note_on_c, 0, 58, 79
2, 76562, Note_on_c, 0, 57, 0
2, 76567, Control_c, 0, 64, 127
2, 76651, Note_on_c, 0, 67, 0
2, 76663, Note_on_c, 0, 72, 0
2, 76685, Note_on_c, 0, 76, 0
2, 76756, Note_on_c, 0, 58, 0
2, 76821, Note_on_c, 0, 61, 86
2, 76911, Note_on_c, 0, 61, 0
2, 76967, Note_on_c, 0, 75, 91
2, 76968, Note_on_c, 0, 60, 88
2, 76968, Note_on_c, 0, 79, 92
2, 76972, Control_c, 0, 64, 0
2, 76972, Note_on_c, 0, 70, 88
2, 77010, Control_c, 0, 64, 127
2, 77061, Note_on_c, 0, 70, 0
2, 77090, Note_on_c, 0, 79, 0
2, 77090, Note_on_c, 0, 75, 0
2, 77153, Note_on_c, 0, 60, 0
2, 77635, Note_on_c, 0, 88, 50
2, 77636, Control_c, 0, 64, 0
2, 77640, Note_on_c, 0, 78, 39
2, 77640, Note_on_c, 0, 76, 42
2, 77642, Note_on_c, 0, 82, 52
2, 77646, Note_on_c, 0, 60, 45
2, 77647, Note_on_c, 0, 58, 42
2, 77677, Note_on_c, 0, 66, 30
2, 78122, Control_c, 0, 64, 127
2, 78642, Note_on_c, 0, 66, 0
2, 78792, Note_on_c, 0, 78, 0
2, 79138, Note_on_c, 0, 79, 31
2, 79161, Note_on_c, 0, 64, 35
2, 80221, Note_on_c, 0, 88, 0
2, 80237, Note_on_c, 0, 82, 0
2, 80242, Note_on_c, 0, 79, 0
2, 80301, Note_on_c, 0, 76, 0
2, 80353, Note_on_c, 0, 58, 0
2, 80463, Note_on_c, 0, 60, 0
2, 80475, Note_on_c, 0, 64, 0
2, 81750, Control_c, 0, 64, 0
2, 82533, Note_on_c, 0, 52, 39
2, 82540, Note_on_c, 0, 42, 33
2, 82541, Note_on_c, 0, 70, 39
2, 82543, Note_on_c, 0, 76, 43
2, 82547, Note_on_c, 0, 68, 35
2, 82552, Note_on_c, 0, 36, 35
2, 82557, Note_on_c, 0, 62, 37
2, 82561, Note_on_c, 0, 64, 33
2, 82765, Control_c, 0, 64, 127
2, 82923, Note_on_c, 0, 62, 0
2, 82927, Note_on_c, 0, 64, 0
2, 82956, Note_on_c, 0, 68, 0
2, 82963, Note_on_c, 0, 70, 0
2, 83382, Note_on_c, 0, 76, 0
2, 83415, Note_on_c, 0, 67, 33
2, 83626, Note_on_c, 0, 75, 43
2, 83647, Note_on_c, 0, 67, 0
2, 83717, Note_on_c, 0, 75, 0
2, 83738, Note_on_c, 0, 76, 38
2, 83823, Note_on_c, 0, 76, 0
2, 83830, Note_on_c, 0, 74, 46
2, 83882, Note_on_c, 0, 74, 0
2, 83890, Note_on_c, 0, 76, 50
2, 83962, Note_on_c, 0, 73, 53
2, 83997, Note_on_c, 0, 76, 0
2, 84051, Note_on_c, 0, 72, 53
2, 84077, Note_on_c, 0, 73, 0
2, 84118, Note_on_c, 0, 72, 0
2, 84127, Note_on_c, 0, 71, 62
2, 84281, Note_on_c, 0, 71, 0
2, 84288, Note_on_c, 0, 70, 55
2, 84291, Note_on_c, 0, 68, 41
2, 84540, Note_on_c, 0, 68, 0
2, 84557, Note_on_c, 0, 71, 53
2, 84565, Note_on_c, 0, 70, 0
2, 84810, Note_on_c, 0, 71, 0
2, 84828, Note_on_c, 0, 72, 45
2, 85020, Note_on_c, 0, 72, 0
2, 85038, Note_on_c, 0, 73, 50
2, 85072, Note_on_c, 0, 73, 0
2, 85097, Note_on_c, 0, 74, 42
2, 85120, Note_on_c, 0, 67, 39
2, 85146, Note_on_c, 0, 73, 53
2, 85200, Note_on_c, 0, 74, 0
2, 85432, Note_on_c, 0, 72, 49
2, 85482, Note_on_c, 0, 73, 0
2, 85483, Note_on_c, 0, 67, 0
2, 85542, Note_on_c, 0, 72, 0
2, 85855, Note_on_c, 0, 71, 36
2, 85965, Note_on_c, 0, 71, 0
2, 86010, Note_on_c, 0, 36, 0
2, 86028, Note_on_c, 0, 52, 0
2, 86042, Note_on_c, 0, 42, 0
2, 86433, Note_on_c, 0, 76, 44
2, 86446, Note_on_c, 0, 70, 38
2, 86447, Note_on_c, 0, 52, 30
2, 86447, Note_on_c, 0, 42, 39
2, 86456, Note_on_c, 0, 68, 34
2, 86458, Note_on_c, 0, 36, 34
2, 86460, Note_on_c, 0, 62, 39
2, 86462, Note_on_c, 0, 64, 33
2, 86468, Control_c, 0, 64, 0
2, 86728, Control_c, 0, 64, 127
2, 86921, Note_on_c, 0, 62, 0
2, 86925, Note_on_c, 0, 64, 0
2, 86932, Note_on_c, 0, 68, 0
2, 86957, Note_on_c, 0, 70, 0
2, 87343, Note_on_c, 0, 76, 0
2, 87358, Note_on_c, 0, 67, 35
2, 87566, Note_on_c, 0, 75, 43
2, 87605, Note_on_c, 0, 67, 0
2, 87647, Note_on_c, 0, 75, 0
2, 87656, Note_on_c, 0, 76, 47
2, 87750, Note_on_c, 0, 76, 0
2, 87756, Note_on_c, 0, 74, 43
2, 87801, Note_on_c, 0, 74, 0
2, 87816, Note_on_c, 0, 76, 51
2, 87891, Note_on_c, 0, 73, 58
2, 87925, Note_on_c, 0, 76, 0
2, 87968, Note_on_c, 0, 72, 53
2, 88015, Note_on_c, 0, 73, 0
2, 88051, Note_on_c, 0, 72, 0
2, 88057, Note_on_c, 0, 71, 51
2, 88270, Note_on_c, 0, 70, 43
2, 88271, Note_on_c, 0, 68, 38
2, 88297, Note_on_c, 0, 71, 0
2, 89096, Note_on_c, 0, 68, 0
2, 89158, Note_on_c, 0, 67, 37
2, 89321, Note_on_c, 0, 70, 0
2, 89426, Note_on_c, 0, 36, 0
2, 89441, Note_on_c, 0, 67, 0
2, 89477, Note_on_c, 0, 42, 0
2, 89521, Note_on_c, 0, 52, 0
2, 90103, Note_on_c, 0, 75, 60
2, 90113, Note_on_c, 0, 66, 48
2, 90116, Note_on_c, 0, 58, 37
2, 90118, Note_on_c, 0, 70, 50
2, 90127, Note_on_c, 0, 48, 44
2, 90127, Note_on_c, 0, 63, 43
2, 90130, Control_c, 0, 64, 0
2, 90303, Control_c, 0, 64, 127
2, 90487, Note_on_c, 0, 75, 0
2, 90668, Note_on_c, 0, 66, 0
2, 90696, Note_on_c, 0, 70, 0
2, 90825, Note_on_c, 0, 63, 0
2, 90963, Note_on_c, 0, 74, 50
2, 91243, Note_on_c, 0, 74, 0
2, 91300, Note_on_c, 0, 73, 59
2, 91308, Note_on_c, 0, 58, 0
2, 91397, Note_on_c, 0, 48, 0
2, 91445, Note_on_c, 0, 73, 0
2, 91602, Note_on_c, 0, 72, 63
2, 91613, Note_on_c, 0, 67, 49
2, 91621, Note_on_c, 0, 61, 44
2, 91627, Note_on_c, 0, 51, 43
2, 91628, Note_on_c, 0, 57, 39
2, 91703, Control_c, 0, 64, 0
2, 91746, Control_c, 0, 64, 127
2, 91932, Note_on_c, 0, 75, 63
2, 91996, Note_on_c, 0, 57, 0
2, 91996, Note_on_c, 0, 67, 0
2, 92016, Note_on_c, 0, 72, 0
2, 92050, Note_on_c, 0, 75, 0
2, 92062, Note_on_c, 0, 51, 0
2, 92062, Note_on_c, 0, 61, 0
2, 92338, Note_on_c, 0, 65, 33
2, 92341, Note_on_c, 0, 56, 35
2, 92342, Note_on_c, 0, 70, 52
2, 92357, Note_on_c, 0, 59, 35
2, 92358, Note_on_c, 0, 50, 37
2, 92391, Control_c, 0, 64, 0
2, 92477, Control_c, 0, 64, 127
2, 92607, Note_on_c, 0, 59, 0
2, 92623, Note_on_c, 0, 65, 0
2, 92651, Note_on_c, 0, 70, 0
2, 92680, Note_on_c, 0, 56, 0
2, 92717, Note_on_c, 0, 50, 0
2, 93327, Note_on_c, 0, 70, 32
2, 93328, Note_on_c, 0, 68, 29
2, 93333, Note_on_c, 0, 74, 44
2, 93336, Note_on_c, 0, 52, 29
2, 93338, Note_on_c, 0, 42, 32
2, 93348, Note_on_c, 0, 36, 29
2, 93350, Note_on_c, 0, 62, 30
2, 93357, Note_on_c, 0, 64, 25
2, 93367, Control_c, 0, 64, 0
2, 93603, Control_c, 0, 64, 127
2, 93770, Note_on_c, 0, 62, 0
2, 93771, Note_on_c, 0, 64, 0
2, 93831, Note_on_c, 0, 70, 0
2, 93941, Note_on_c, 0, 68, 0
2, 94146, Note_on_c, 0, 74, 0
2, 94192, Note_on_c, 0, 64, 38
2, 94366, Note_on_c, 0, 64, 0
2, 94418, Note_on_c, 0, 73, 44
2, 94522, Note_on_c, 0, 73, 0
2, 94535, Note_on_c, 0, 74, 44
2, 94606, Note_on_c, 0, 73, 47
2, 94632, Note_on_c, 0, 74, 0
2, 94665, Note_on_c, 0, 72, 49
2, 94696, Note_on_c, 0, 73, 0
2, 94726, Note_on_c, 0, 71, 39
2, 94741, Note_on_c, 0, 72, 0
2, 94813, Note_on_c, 0, 74, 35
2, 94847, Note_on_c, 0, 71, 0
2, 94942, Note_on_c, 0, 68, 30
2, 94962, Note_on_c, 0, 70, 32
2, 95025, Note_on_c, 0, 74, 0
2, 95712, Note_on_c, 0, 68, 0
2, 95733, Note_on_c, 0, 67, 30
2, 95805, Note_on_c, 0, 70, 0
2, 95895, Note_on_c, 0, 67, 0
2, 96012, Note_on_c, 0, 36, 0
2, 96050, Note_on_c, 0, 42, 0
2, 96108, Note_on_c, 0, 52, 0
2, 96201, Control_c, 0, 64, 0
2, 96611, Note_on_c, 0, 90, 44
2, 96626, Note_on_c, 0, 66, 36
2, 96847, Note_on_c, 0, 66, 0
2, 96856, Note_on_c, 0, 89, 51
2, 96860, Note_on_c, 0, 65, 39
2, 96860, Control_c, 0, 64, 127
2, 96866, Note_on_c, 0, 90, 0
2, 97032, Note_on_c, 0, 89, 0
2, 97273, Note_on_c, 0, 65, 0
2, 97490, Note_on_c, 0, 77, 44
2, 97663, Note_on_c, 0, 77, 0
2, 97678, Note_on_c, 0, 64, 33
2, 97685, Note_on_c, 0, 76, 43
2, 97952, Note_on_c, 0, 76, 0
2, 98276, Note_on_c, 0, 88, 45
2, 98422, Note_on_c, 0, 64, 0
2, 98478, Note_on_c, 0, 88, 0
2, 98497, Note_on_c, 0, 87, 41
2, 98511, Note_on_c, 0, 63, 28
2, 98940, Note_on_c, 0, 63, 0
2, 99332, Note_on_c, 0, 66, 32
2, 99555, Note_on_c, 0, 66, 0
2, 99635, Note_on_c, 0, 87, 0
2, 99961, Note_on_c, 0, 86, 48
2, 99968, Note_on_c, 0, 62, 29
2, 100160, Note_on_c, 0, 62, 0
2, 100188, Note_on_c, 0, 85, 56
2, 100210, Note_on_c, 0, 86, 0
2, 100218, Note_on_c, 0, 61, 34
2, 100391, Note_on_c, 0, 85, 0
2, 100870, Note_on_c, 0, 73, 40
2, 101027, Note_on_c, 0, 61, 0
2, 101053, Note_on_c, 0, 72, 47
2, 101068, Note_on_c, 0, 60, 33
2, 101082, Note_on_c, 0, 73, 0
2, 101280, Note_on_c, 0, 72, 0
2, 101703, Note_on_c, 0, 84, 43
2, 101901, Note_on_c, 0, 84, 0
2, 101907, Note_on_c, 0, 83, 44
2, 101921, Note_on_c, 0, 60, 0
2, 101932, Note_on_c, 0, 59, 31
2, 102593, Note_on_c, 0, 59, 0
2, 102771, Note_on_c, 0, 61, 34
2, 102920, Note_on_c, 0, 61, 0
2, 102932, Note_on_c, 0, 83, 0
2, 103297, Control_c, 0, 67, 127
2, 104063, Note_on_c, 0, 36, 45
2, 104065, Note_on_c, 0, 51, 45
2, 104067, Note_on_c, 0, 54, 45
2, 104068, Note_on_c, 0, 24, 45
2, 104070, Note_on_c, 0, 58, 45
2, 104072, Control_c, 0, 64, 0
2, 104332, Control_c, 0, 64, 127
2, 104607, Note_on_c, 0, 51, 0
2, 104676, Note_on_c, 0, 24, 0
2, 104678, Note_on_c, 0, 54, 0
2, 104726, Note_on_c, 0, 58, 0
2, 104752, Note_on_c, 0, 36, 0
2, 105835, Note_on_c, 0, 82, 55
2, 105837, Note_on_c, 0, 75, 52
2, 109266, Note_on_c, 0, 75, 0
2, 109271, Note_on_c, 0, 82, 0
2, 109316, Control_c, 0, 64, 0
2, 109321, Control_c, 0, 67, 0
2, 109321, End_track
3, 0, Start_track
3, 0, Title_t, "Trois Pièces I"
3, 0, End_track
4, 0, Start_track
4, 0, Title_t, "F. Poulenc"
4, 0, End_track
5, 0, Start_track
5, 0, Title_t, "Richard Summers"
5, 0, End_track
6, 0, Start_track
6, 0, Title_t, "rsummers73@compuserve.com"
6, 0, End_track
0, 0, End_of_file
