0, 0, Header, 1, 3, 360
1, 0, Start_track
1, 0, Title_t, "untitled"
1, 0, Time_signature, 2, 1, 48, 8
1, 0, Key_signature, 0, "major"
1, 0, Tempo, 600000
1, 172, Tempo, 394737
1, 188640, Tempo, 416667
1, 188820, Tempo, 427533
1, 189000, Tempo, 438982
1, 189180, Tempo, 451060
1, 189360, Tempo, 463822
1, 189540, Tempo, 477327
1, 189720, Tempo, 490196
1, 189900, Tempo, 506842
1, 190080, Time_signature, 2, 2, 24, 8
1, 190080, Tempo, 523013
1, 190260, Tempo, 540249
1, 190440, Tempo, 558659
1, 190620, Tempo, 578369
1, 190800, Time_signature, 2, 1, 48, 8
1, 190800, Tempo, 600000
1, 192240, Tempo, 394737
1, 192312, Tempo, 394737
1, 192384, Tempo, 394737
1, 192455, Tempo, 394737
1, 192527, Tempo, 394737
1, 192599, Tempo, 394737
1, 192671, Tempo, 394737
1, 192742, Tempo, 394737
1, 192814, Tempo, 394737
1, 192885, Tempo, 394737
1, 192957, Tempo, 394737
1, 224280, Tempo, 418644
1, 226800, Tempo, 394737
1, 226980, Tempo, 395465
1, 227160, Tempo, 396197
1, 227340, Tempo, 396930
1, 227520, Tempo, 397667
1, 227700, Tempo, 398406
1, 227880, Tempo, 399148
1, 228060, Tempo, 398936
1, 228240, Tempo, 400641
1, 228420, Tempo, 401391
1, 228600, Tempo, 402145
1, 228780, Tempo, 402901
1, 228960, Tempo, 403660
1, 229140, Tempo, 404422
1, 229320, Tempo, 403226
1, 229500, Tempo, 405954
1, 229680, Tempo, 406725
1, 229860, Tempo, 407498
1, 230040, Tempo, 408274
1, 230220, Tempo, 409054
1, 230400, Tempo, 409836
1, 230580, Tempo, 407609
1, 230760, Tempo, 411410
1, 230940, Tempo, 412201
1, 231120, Tempo, 412996
1, 231300, Tempo, 413793
1, 231480, Tempo, 414594
1, 231660, Tempo, 415397
1, 231840, Tempo, 412088
1, 232020, Tempo, 417014
1, 232200, Tempo, 417827
1, 232560, Tempo, 419463
1, 232740, Tempo, 420286
1, 232920, Tempo, 421112
1, 233100, Tempo, 421941
1, 233280, Tempo, 422773
1, 233460, Tempo, 423609
1, 233640, Tempo, 424448
1, 233820, Tempo, 425291
1, 234000, Tempo, 426136
1, 234180, Tempo, 426985
1, 234360, Tempo, 427838
1, 234540, Tempo, 428694
1, 234720, Tempo, 429553
1, 234900, Tempo, 430416
1, 235080, Tempo, 431282
1, 235260, Tempo, 432152
1, 235440, Tempo, 433025
1, 235620, Tempo, 433902
1, 235800, Tempo, 434783
1, 235980, Tempo, 435667
1, 236160, Tempo, 436554
1, 236340, Tempo, 437445
1, 238205, Tempo, 3750000
1, 238250, Tempo, 250000
1, 238275, Tempo, 3750000
1, 238320, Tempo, 250000
1, 239645, Tempo, 3750000
1, 239690, Tempo, 250000
1, 239715, Tempo, 3750000
1, 239760, Time_signature, 3, 2, 24, 8
1, 239760, Key_signature, 1, "major"
1, 239760, Tempo, 250000
1, 312120, Tempo, 238095
1, 312210, Tempo, 239234
1, 312300, Tempo, 240385
1, 312390, Tempo, 241546
1, 312480, Tempo, 242718
1, 312570, Tempo, 243902
1, 312660, Tempo, 245098
1, 312750, Tempo, 246305
1, 312840, Tempo, 247525
1, 312930, Tempo, 248756
1, 313020, Tempo, 250000
1, 314280, Tempo, 250000
1, 314460, Tempo, 250000
1, 314640, Tempo, 250000
1, 314820, Tempo, 250000
1, 315000, Tempo, 250000
1, 315180, Tempo, 250000
1, 315360, Tempo, 250000
1, 315540, Tempo, 250000
1, 315720, Tempo, 250000
1, 315900, Tempo, 250000
1, 316080, Tempo, 250000
1, 316260, Tempo, 250000
1, 316440, Tempo, 250000
1, 316620, Tempo, 250000
1, 316800, Tempo, 250000
1, 316980, Tempo, 250000
1, 317160, Tempo, 250000
1, 317340, Tempo, 250000
1, 317520, Tempo, 250000
1, 317700, Tempo, 250000
1, 317880, Tempo, 250000
1, 318060, Tempo, 250000
1, 318240, Tempo, 250000
1, 318420, Tempo, 250000
1, 318600, Tempo, 250000
1, 318780, Tempo, 250000
1, 318960, Tempo, 250000
1, 319140, Tempo, 250000
1, 319320, Tempo, 250000
1, 319500, Tempo, 250000
1, 319679, Tempo, 250000
1, 319680, Tempo, 250000
1, 319860, Tempo, 250000
1, 320040, Tempo, 250000
1, 320220, Tempo, 250000
1, 320400, Tempo, 250000
1, 320580, Tempo, 250000
1, 320760, Tempo, 250000
1, 320940, Tempo, 250000
1, 321120, Tempo, 250000
1, 321300, Tempo, 250000
1, 321480, Tempo, 250000
1, 321660, Tempo, 250000
1, 321840, Tempo, 250000
1, 322020, Tempo, 250000
1, 322200, Tempo, 250000
1, 322380, Tempo, 250000
1, 322560, Tempo, 250000
1, 322920, Tempo, 250000
1, 323100, Tempo, 250000
1, 323280, Tempo, 250000
1, 323460, Tempo, 250000
1, 323640, Tempo, 250000
1, 323820, Tempo, 250000
1, 324000, Tempo, 250000
1, 324180, Tempo, 250000
1, 324540, Tempo, 250000
1, 324720, Tempo, 250000
1, 324900, Tempo, 250000
1, 325080, Tempo, 250000
1, 325260, Tempo, 250000
1, 325620, Tempo, 250000
1, 325800, Tempo, 250000
1, 325980, Tempo, 250000
1, 326160, Tempo, 250000
1, 326340, Tempo, 250000
1, 326700, Tempo, 250000
1, 326880, Tempo, 250000
1, 327060, Tempo, 250000
1, 327240, Tempo, 250000
1, 327420, Tempo, 250000
1, 327600, Tempo, 250000
1, 327780, Tempo, 250000
1, 327960, Tempo, 250000
1, 328140, Tempo, 250000
1, 328320, Tempo, 250000
1, 328500, Tempo, 250000
1, 328680, Tempo, 250000
1, 328860, Tempo, 250000
1, 329040, Tempo, 250000
1, 329220, Tempo, 250000
1, 329400, Tempo, 250000
1, 329580, Tempo, 250000
1, 329760, Tempo, 250000
1, 329940, Tempo, 250000
1, 330120, Tempo, 250000
1, 330300, Tempo, 250000
1, 330480, Tempo, 250000
1, 330660, Tempo, 250000
1, 330840, Tempo, 250000
1, 331020, Tempo, 250000
1, 331200, Tempo, 250000
1, 331380, Tempo, 250000
1, 331560, Tempo, 250000
1, 331740, Tempo, 250000
1, 331920, Tempo, 250000
1, 332100, Tempo, 250000
1, 332280, Tempo, 250000
1, 332460, Tempo, 250000
1, 332640, Tempo, 250000
1, 332820, Tempo, 250000
1, 333000, Tempo, 250000
1, 333180, Tempo, 250000
1, 333360, Tempo, 250000
1, 333540, Tempo, 250000
1, 333720, Tempo, 250000
1, 333900, Tempo, 250000
1, 334080, Tempo, 250000
1, 334260, Tempo, 250000
1, 334440, Tempo, 250000
1, 334620, Tempo, 250000
1, 334800, Tempo, 250000
1, 334980, Tempo, 250000
1, 335160, Tempo, 250000
1, 335340, Tempo, 250000
1, 335520, Tempo, 250000
1, 335700, Tempo, 250000
1, 335880, Tempo, 250000
1, 336060, Tempo, 250000
1, 336240, Tempo, 250000
1, 336420, Tempo, 250000
1, 336600, Tempo, 250000
1, 336780, Tempo, 250000
1, 336960, Tempo, 250000
1, 337140, Tempo, 250000
1, 337320, Tempo, 250000
1, 337500, Tempo, 250000
1, 337680, Tempo, 250000
1, 337860, Tempo, 250000
1, 338040, Tempo, 250000
1, 338220, Tempo, 250000
1, 338400, Tempo, 250000
1, 338580, Tempo, 250000
1, 338760, Tempo, 250000
1, 338940, Tempo, 250000
1, 339120, Tempo, 250000
1, 339300, Tempo, 250000
1, 339480, Tempo, 250000
1, 339660, Tempo, 250000
1, 339840, Tempo, 250000
1, 340020, Tempo, 250000
1, 340200, Tempo, 250000
1, 340380, Tempo, 250000
1, 340560, Tempo, 250000
1, 340740, Tempo, 250000
1, 340920, Tempo, 250000
1, 341100, Tempo, 250000
1, 341280, Tempo, 250000
1, 341460, Tempo, 250000
1, 341640, Tempo, 250000
1, 341820, Tempo, 250000
1, 342000, Tempo, 250000
1, 342180, Tempo, 250000
1, 342360, Tempo, 250000
1, 342540, Tempo, 250000
1, 342720, Tempo, 250000
1, 342900, Tempo, 250000
1, 343080, Tempo, 250000
1, 343260, Tempo, 250000
1, 343439, Tempo, 250000
1, 343440, Tempo, 250000
1, 343620, Tempo, 250000
1, 343800, Tempo, 250000
1, 343980, Tempo, 250000
1, 344160, Tempo, 250000
1, 344340, Tempo, 250000
1, 344520, Tempo, 250000
1, 344700, Tempo, 250000
1, 344880, Tempo, 250000
1, 345060, Tempo, 250000
1, 345240, Tempo, 250000
1, 345420, Tempo, 250000
1, 345600, Tempo, 250000
1, 345780, Tempo, 250000
1, 345960, Tempo, 250000
1, 346140, Tempo, 250000
1, 346320, Tempo, 250000
1, 346500, Tempo, 250000
1, 346680, Tempo, 250000
1, 346860, Tempo, 250000
1, 347220, Tempo, 250000
1, 347400, Tempo, 250000
1, 347580, Tempo, 250000
1, 347760, Tempo, 250000
1, 347940, Tempo, 249501
1, 348120, Tempo, 249004
1, 348300, Tempo, 248509
1, 348480, Tempo, 248016
1, 348660, Tempo, 247525
1, 348840, Tempo, 247036
1, 349020, Tempo, 246548
1, 349200, Tempo, 246063
1, 349380, Tempo, 245580
1, 349560, Tempo, 245098
1, 349740, Tempo, 244618
1, 349920, Tempo, 244141
1, 350100, Tempo, 241546
1, 350280, Tempo, 243191
1, 350460, Tempo, 242718
1, 350640, Tempo, 242248
1, 350820, Tempo, 241779
1, 351000, Tempo, 241313
1, 351180, Tempo, 239808
1, 351360, Tempo, 240385
1, 351540, Tempo, 239923
1, 351720, Tempo, 239464
1, 351900, Tempo, 239006
1, 352080, Tempo, 238095
1, 402840, Tempo, 263158
1, 403020, Tempo, 263852
1, 403200, Tempo, 269687
1, 403380, Tempo, 273075
1, 403560, Tempo, 276549
1, 403740, Tempo, 280112
1, 403920, Tempo, 263158
1, 404100, Tempo, 267308
1, 404280, Tempo, 271592
1, 404460, Tempo, 276014
1, 404640, Tempo, 280584
1, 404820, Tempo, 285307
1, 405000, Tempo, 290192
1, 405180, Tempo, 295247
1, 405360, Tempo, 300481
1, 405540, Tempo, 305904
1, 405720, Tempo, 311526
1, 405900, Tempo, 316456
1, 406079, Tempo, 224921
1, 406080, Tempo, 323415
1, 406260, Tempo, 329707
1, 406440, Tempo, 336247
1, 406620, Tempo, 343053
1, 406800, Tempo, 350140
1, 406980, Tempo, 357526
1, 407160, Tempo, 365230
1, 407340, Tempo, 373274
1, 407520, Tempo, 381679
1, 407700, Tempo, 390472
1, 407880, Tempo, 400000
1, 408240, Key_signature, -3, "major"
1, 408353, Tempo, 400000
1, 408793, Tempo, 277778
1, 520560, Tempo, 277778
1, 520740, Tempo, 283166
1, 520920, Tempo, 288767
1, 521100, Tempo, 294594
1, 521280, Tempo, 300661
1, 521460, Tempo, 306984
1, 521640, Tempo, 313578
1, 521820, Tempo, 320461
1, 522000, Tempo, 325733
1, 522180, Tempo, 335177
1, 522360, Tempo, 343053
1, 522540, Tempo, 351309
1, 522720, Tempo, 359971
1, 522900, Tempo, 369072
1, 523080, Tempo, 378644
1, 523260, Tempo, 388727
1, 523440, Tempo, 400000
1, 523800, Tempo, 400000
1, 523872, Tempo, 416667
1, 523944, Tempo, 434783
1, 524015, Tempo, 454545
1, 524087, Tempo, 476190
1, 524159, Tempo, 500000
1, 524231, Tempo, 526316
1, 524302, Tempo, 555556
1, 524374, Tempo, 588235
1, 524445, Tempo, 625000
1, 524517, Tempo, 666667
1, 524880, Tempo, 277778
1, 524952, Tempo, 277778
1, 525024, Tempo, 277778
1, 525095, Tempo, 277778
1, 525167, Tempo, 277778
1, 525239, Tempo, 277778
1, 525311, Tempo, 277778
1, 525382, Tempo, 277778
1, 525454, Tempo, 277778
1, 525525, Tempo, 277778
1, 525597, Tempo, 277778
1, 538920, Tempo, 277778
1, 553140, Tempo, 272331
1, 553500, Tempo, 271003
1, 557280, Tempo, 277778
1, 557460, Tempo, 277085
1, 557640, Tempo, 276396
1, 557820, Tempo, 275710
1, 558000, Tempo, 275028
1, 558180, Tempo, 274348
1, 558360, Tempo, 271003
1, 558540, Tempo, 273000
1, 558900, Tempo, 271665
1, 559260, Tempo, 270343
1, 559440, Tempo, 269687
1, 559620, Tempo, 269034
1, 559800, Tempo, 268384
1, 559980, Tempo, 267738
1, 560160, Tempo, 267094
1, 560520, Tempo, 265816
1, 560700, Tempo, 265182
1, 560880, Tempo, 264550
1, 561060, Tempo, 263922
1, 561240, Tempo, 263296
1, 561420, Tempo, 262674
1, 561600, Tempo, 260824
1, 561780, Tempo, 261438
1, 562140, Tempo, 260213
1, 562320, Tempo, 258398
1, 562500, Tempo, 259000
1, 562680, Tempo, 258398
1, 563040, Tempo, 257202
1, 563220, Tempo, 256608
1, 563400, Tempo, 256016
1, 563580, Tempo, 255428
1, 563760, Tempo, 254842
1, 563940, Tempo, 254259
1, 564120, Tempo, 253678
1, 564300, Tempo, 252525
1, 564480, Tempo, 252525
1, 564660, Tempo, 251953
1, 564840, Tempo, 251383
1, 565020, Tempo, 250815
1, 565200, Tempo, 250250
1, 565380, Tempo, 249688
1, 565560, Tempo, 249128
1, 565740, Tempo, 248571
1, 565920, Tempo, 248016
1, 566100, Tempo, 247463
1, 566280, Tempo, 246914
1, 566460, Tempo, 246366
1, 566640, Tempo, 245821
1, 566820, Tempo, 245278
1, 567000, Tempo, 244738
1, 567180, Tempo, 244200
1, 567360, Tempo, 241546
1, 567540, Tempo, 243132
1, 567720, Tempo, 242601
1, 567900, Tempo, 242072
1, 568080, Tempo, 241546
1, 568260, Tempo, 241022
1, 568440, Tempo, 240500
1, 568620, Tempo, 239981
1, 568800, Tempo, 239464
1, 568980, Tempo, 238949
1, 569160, Tempo, 238436
1, 569340, Tempo, 236407
1, 569520, Tempo, 237417
1, 569700, Tempo, 236911
1, 569880, Tempo, 235294
1, 570240, Key_signature, 1, "major"
1, 570240, Tempo, 238095
1, 570330, Tempo, 238095
1, 570420, Tempo, 238095
1, 570510, Tempo, 238095
1, 570600, Tempo, 238095
1, 570690, Tempo, 238095
1, 570780, Tempo, 238095
1, 570870, Tempo, 238095
1, 570960, Tempo, 238095
1, 571050, Tempo, 238095
1, 571140, Tempo, 238095
1, 577800, Tempo, 333333
1, 577890, Tempo, 338983
1, 577980, Tempo, 344828
1, 578070, Tempo, 350877
1, 578160, Tempo, 357143
1, 578250, Tempo, 363636
1, 578340, Tempo, 370370
1, 578430, Tempo, 377358
1, 578520, Tempo, 384615
1, 578610, Tempo, 392157
1, 578700, Tempo, 400000
1, 578880, Tempo, 238095
1, 578970, Tempo, 238095
1, 579060, Tempo, 238095
1, 579150, Tempo, 238095
1, 579240, Tempo, 238095
1, 579330, Tempo, 238095
1, 579420, Tempo, 238095
1, 579510, Tempo, 238095
1, 579600, Tempo, 238095
1, 579690, Tempo, 238095
1, 579780, Tempo, 238095
1, 582120, Tempo, 333333
1, 582210, Tempo, 338983
1, 582300, Tempo, 344828
1, 582390, Tempo, 350877
1, 582480, Tempo, 357143
1, 582570, Tempo, 363636
1, 582660, Tempo, 370370
1, 582750, Tempo, 377358
1, 582840, Tempo, 384615
1, 582930, Tempo, 392157
1, 583020, Tempo, 400000
1, 583200, Tempo, 238095
1, 583290, Tempo, 238095
1, 583380, Tempo, 238095
1, 583470, Tempo, 238095
1, 583560, Tempo, 238095
1, 583650, Tempo, 238095
1, 583740, Tempo, 238095
1, 583830, Tempo, 238095
1, 583920, Tempo, 238095
1, 584010, Tempo, 238095
1, 584100, Tempo, 238095
1, 586440, Tempo, 333333
1, 586530, Tempo, 338983
1, 586620, Tempo, 344828
1, 586710, Tempo, 350877
1, 586800, Tempo, 357143
1, 586890, Tempo, 363636
1, 586980, Tempo, 370370
1, 587070, Tempo, 377358
1, 587160, Tempo, 384615
1, 587250, Tempo, 392157
1, 587340, Tempo, 400000
1, 587520, Tempo, 333333
1, 587700, Tempo, 325733
1, 587880, Tempo, 318471
1, 588060, Tempo, 316857
1, 588240, Tempo, 311721
1, 588420, Tempo, 306748
1, 588600, Tempo, 301932
1, 588780, Tempo, 297265
1, 588960, Tempo, 292740
1, 589140, Tempo, 288351
1, 589320, Tempo, 284091
1, 589500, Tempo, 279955
1, 589680, Tempo, 275938
1, 589860, Tempo, 272035
1, 590040, Tempo, 268240
1, 590220, Tempo, 264550
1, 590400, Tempo, 260960
1, 590580, Tempo, 257467
1, 590760, Tempo, 254065
1, 590940, Tempo, 250752
1, 591120, Tempo, 247525
1, 591300, Tempo, 244379
1, 591480, Tempo, 241313
1, 591660, Tempo, 238095
1, 591840, Tempo, 238095
1, 591930, Tempo, 238095
1, 592020, Tempo, 238095
1, 592110, Tempo, 238095
1, 592200, Tempo, 238095
1, 592290, Tempo, 238095
1, 592380, Tempo, 238095
1, 592470, Tempo, 238095
1, 592560, Tempo, 238095
1, 592650, Tempo, 238095
1, 592740, Tempo, 238095
1, 655560, Tempo, 238095
1, 655632, Tempo, 239234
1, 655704, Tempo, 240385
1, 655775, Tempo, 241546
1, 655847, Tempo, 242718
1, 655919, Tempo, 243902
1, 655991, Tempo, 245098
1, 656062, Tempo, 246305
1, 656134, Tempo, 247525
1, 656205, Tempo, 248756
1, 656277, Tempo, 250000
1, 656640, Tempo, 250000
1, 656820, Tempo, 250000
1, 657000, Tempo, 250000
1, 657180, Tempo, 250000
1, 657360, Tempo, 250000
1, 657540, Tempo, 250000
1, 657720, Tempo, 250000
1, 657900, Tempo, 250000
1, 658080, Tempo, 250000
1, 658260, Tempo, 250000
1, 658440, Tempo, 250000
1, 658620, Tempo, 250000
1, 658800, Tempo, 250000
1, 658980, Tempo, 250000
1, 659160, Tempo, 250000
1, 659340, Tempo, 250000
1, 659520, Tempo, 250000
1, 659700, Tempo, 250000
1, 659880, Tempo, 250000
1, 660060, Tempo, 250000
1, 660240, Tempo, 250000
1, 660420, Tempo, 250000
1, 660600, Tempo, 250000
1, 660780, Tempo, 250000
1, 660960, Tempo, 250000
1, 661140, Tempo, 250000
1, 661320, Tempo, 250000
1, 661500, Tempo, 250000
1, 661680, Tempo, 250000
1, 661860, Tempo, 250000
1, 662040, Tempo, 250000
1, 662220, Tempo, 250000
1, 662400, Tempo, 250000
1, 662580, Tempo, 250000
1, 662760, Tempo, 250000
1, 662940, Tempo, 250000
1, 663120, Tempo, 250000
1, 663300, Tempo, 250000
1, 663480, Tempo, 250000
1, 663660, Tempo, 250000
1, 663840, Tempo, 250000
1, 664020, Tempo, 250000
1, 664200, Tempo, 250000
1, 664380, Tempo, 250000
1, 664560, Tempo, 250000
1, 664740, Tempo, 250000
1, 664920, Tempo, 250000
1, 665100, Tempo, 250000
1, 665280, Tempo, 250000
1, 665460, Tempo, 250000
1, 665640, Tempo, 250000
1, 665820, Tempo, 250000
1, 666000, Tempo, 250000
1, 666180, Tempo, 250000
1, 666360, Tempo, 250000
1, 666540, Tempo, 250000
1, 666720, Tempo, 250000
1, 666900, Tempo, 250000
1, 667080, Tempo, 250000
1, 667260, Tempo, 250000
1, 667440, Tempo, 250000
1, 667620, Tempo, 250000
1, 667800, Tempo, 250000
1, 667980, Tempo, 250000
1, 668160, Tempo, 250000
1, 668340, Tempo, 250000
1, 668520, Tempo, 250000
1, 668700, Tempo, 250000
1, 668880, Tempo, 250000
1, 669060, Tempo, 250000
1, 669240, Tempo, 250000
1, 669420, Tempo, 250000
1, 669600, Tempo, 250000
1, 669780, Tempo, 250000
1, 669960, Tempo, 250000
1, 670140, Tempo, 250000
1, 670320, Tempo, 250000
1, 670500, Tempo, 250000
1, 670680, Tempo, 250000
1, 670860, Tempo, 250000
1, 671040, Tempo, 250000
1, 671220, Tempo, 250000
1, 671400, Tempo, 250000
1, 671580, Tempo, 250000
1, 671760, Tempo, 250000
1, 671940, Tempo, 250000
1, 672120, Tempo, 250000
1, 672300, Tempo, 250000
1, 672480, Tempo, 250000
1, 672660, Tempo, 250000
1, 672840, Tempo, 250000
1, 673020, Tempo, 250000
1, 673200, Tempo, 250000
1, 673380, Tempo, 250000
1, 673560, Tempo, 250000
1, 673740, Tempo, 250000
1, 673920, Tempo, 250000
1, 674100, Tempo, 250000
1, 674280, Tempo, 250000
1, 674460, Tempo, 250000
1, 674640, Tempo, 250000
1, 674820, Tempo, 250000
1, 675000, Tempo, 250000
1, 675180, Tempo, 250000
1, 675360, Tempo, 250000
1, 675540, Tempo, 250000
1, 675720, Tempo, 250000
1, 675900, Tempo, 250000
1, 676080, Tempo, 250000
1, 676260, Tempo, 250000
1, 676440, Tempo, 250000
1, 676620, Tempo, 250000
1, 676800, Tempo, 250000
1, 676980, Tempo, 250000
1, 677160, Tempo, 250000
1, 677340, Tempo, 250000
1, 677520, Tempo, 250000
1, 677700, Tempo, 250000
1, 677880, Tempo, 250000
1, 678060, Tempo, 250000
1, 678240, Tempo, 250000
1, 678420, Tempo, 250000
1, 678600, Tempo, 250000
1, 678780, Tempo, 250000
1, 678960, Tempo, 250000
1, 679140, Tempo, 250000
1, 679320, Tempo, 250000
1, 679500, Tempo, 250000
1, 679680, Tempo, 250000
1, 679860, Tempo, 250000
1, 680040, Tempo, 250000
1, 680220, Tempo, 250000
1, 680400, Tempo, 250000
1, 680580, Tempo, 250000
1, 680760, Tempo, 250000
1, 680940, Tempo, 250000
1, 681120, Tempo, 250000
1, 681300, Tempo, 250000
1, 681480, Tempo, 250000
1, 681660, Tempo, 250000
1, 681840, Tempo, 250000
1, 682020, Tempo, 250000
1, 682200, Tempo, 250000
1, 682380, Tempo, 250000
1, 682560, Tempo, 250000
1, 682740, Tempo, 250000
1, 682920, Tempo, 250000
1, 683100, Tempo, 250000
1, 683280, Tempo, 250000
1, 683460, Tempo, 250000
1, 683640, Tempo, 250000
1, 683820, Tempo, 250000
1, 684000, Tempo, 250000
1, 684180, Tempo, 250000
1, 684360, Tempo, 250000
1, 684540, Tempo, 250000
1, 684720, Tempo, 250000
1, 684900, Tempo, 250000
1, 685080, Tempo, 250000
1, 685260, Tempo, 250000
1, 685440, Tempo, 250000
1, 685620, Tempo, 250000
1, 685800, Tempo, 250000
1, 685980, Tempo, 250000
1, 686160, Tempo, 250000
1, 686340, Tempo, 250000
1, 686520, Tempo, 250000
1, 686700, Tempo, 250000
1, 686880, Tempo, 250000
1, 687060, Tempo, 250000
1, 687240, Tempo, 250000
1, 687420, Tempo, 250000
1, 687600, Tempo, 250000
1, 687780, Tempo, 250000
1, 687960, Tempo, 250000
1, 688140, Tempo, 250000
1, 688320, Tempo, 250000
1, 688500, Tempo, 250000
1, 688680, Tempo, 250000
1, 688860, Tempo, 250000
1, 689040, Tempo, 250000
1, 689220, Tempo, 250000
1, 689400, Tempo, 250000
1, 689580, Tempo, 250000
1, 689760, Tempo, 250000
1, 689940, Tempo, 250000
1, 690120, Tempo, 250000
1, 690300, Tempo, 250000
1, 690480, Tempo, 250000
1, 690660, Tempo, 250000
1, 690840, Tempo, 250000
1, 691020, Tempo, 250000
1, 691200, Tempo, 250000
1, 691380, Tempo, 249501
1, 691560, Tempo, 249004
1, 691740, Tempo, 248509
1, 691920, Tempo, 248016
1, 692100, Tempo, 247525
1, 692280, Tempo, 247036
1, 692460, Tempo, 246548
1, 692640, Tempo, 246063
1, 692820, Tempo, 245580
1, 693000, Tempo, 245098
1, 693180, Tempo, 244618
1, 693360, Tempo, 244141
1, 693540, Tempo, 241546
1, 693720, Tempo, 243191
1, 693900, Tempo, 242718
1, 694080, Tempo, 242248
1, 694260, Tempo, 241779
1, 694440, Tempo, 241313
1, 694620, Tempo, 239808
1, 694800, Tempo, 240385
1, 694980, Tempo, 239923
1, 695160, Tempo, 239464
1, 695340, Tempo, 239006
1, 695520, Tempo, 238095
1, 771400, Tempo, 3750000
1, 771445, Tempo, 250000
1, 774360, Time_signature, 6, 3, 12, 8
1, 774360, Key_signature, -4, "major"
1, 774360, Tempo, 909091
1, 819720, Key_signature, 4, "major"
1, 867239, Tempo, 851064
1, 867240, Key_signature, -4, "major"
1, 888840, Tempo, 800000
1, 902880, Tempo, 800000
1, 902970, Tempo, 804829
1, 903060, Tempo, 809717
1, 903150, Tempo, 814664
1, 903240, Tempo, 819672
1, 903330, Tempo, 824742
1, 903420, Tempo, 829876
1, 903510, Tempo, 835073
1, 903600, Tempo, 840336
1, 903690, Tempo, 845666
1, 903780, Tempo, 851064
1, 903960, Tempo, 851064
1, 904061, Tempo, 856531
1, 904163, Tempo, 862069
1, 904264, Tempo, 867679
1, 904365, Tempo, 873362
1, 904466, Tempo, 879121
1, 904568, Tempo, 884956
1, 904669, Tempo, 890869
1, 904770, Tempo, 896861
1, 904871, Tempo, 902935
1, 904973, Tempo, 909091
1, 905040, Tempo, 909091
1, 905130, Tempo, 909091
1, 905220, Tempo, 909091
1, 905310, Tempo, 909091
1, 905400, Tempo, 909091
1, 905490, Tempo, 909091
1, 905580, Tempo, 909091
1, 905670, Tempo, 909091
1, 905760, Tempo, 909091
1, 905850, Tempo, 909091
1, 905940, Tempo, 909091
1, 906120, Tempo, 909091
1, 906210, Tempo, 909091
1, 906300, Tempo, 909091
1, 906390, Tempo, 909091
1, 906480, Tempo, 909091
1, 906570, Tempo, 909091
1, 906660, Tempo, 909091
1, 906750, Tempo, 909091
1, 906840, Tempo, 909091
1, 906930, Tempo, 909091
1, 907020, Tempo, 909091
1, 926640, Tempo, 909091
1, 926730, Tempo, 938967
1, 926820, Tempo, 970874
1, 926910, Tempo, 1005025
1, 927000, Tempo, 1041667
1, 927090, Tempo, 1081081
1, 927180, Tempo, 1123596
1, 927270, Tempo, 1169591
1, 927360, Tempo, 1219512
1, 927450, Tempo, 1273885
1, 927540, Tempo, 1333333
1, 930960, Key_signature, -3, "major"
1, 930960, Tempo, 208333
1, 1041120, Key_signature, -6, "major"
1, 1125900, Tempo, 208333
1, 1126080, Tempo, 210837
1, 1126260, Tempo, 213402
1, 1126440, Tempo, 216029
1, 1126620, Tempo, 218723
1, 1126800, Tempo, 221484
1, 1126980, Tempo, 224316
1, 1127160, Tempo, 226757
1, 1127340, Tempo, 230203
1, 1127520, Tempo, 233263
1, 1127700, Tempo, 236407
1, 1127880, Tempo, 239636
1, 1128060, Tempo, 242954
1, 1128240, Tempo, 246366
1, 1128420, Tempo, 250000
1, 1128600, Tempo, 208333
1, 1128690, Tempo, 208333
1, 1128780, Tempo, 208333
1, 1128870, Tempo, 208333
1, 1128960, Tempo, 208333
1, 1129050, Tempo, 208333
1, 1129140, Tempo, 208333
1, 1129230, Tempo, 208333
1, 1129320, Tempo, 208333
1, 1129410, Tempo, 208333
1, 1129500, Tempo, 208333
1, 1179360, Key_signature, -3, "major"
1, 1428300, Tempo, 208333
1, 1428444, Tempo, 211864
1, 1428587, Tempo, 215517
1, 1428731, Tempo, 219298
1, 1428874, Tempo, 223214
1, 1429017, Tempo, 227273
1, 1429161, Tempo, 231481
1, 1429304, Tempo, 235849
1, 1429448, Tempo, 240385
1, 1429591, Tempo, 245098
1, 1429734, Tempo, 250000
1, 1429920, Tempo, 250000
1, 1430010, Tempo, 245098
1, 1430100, Tempo, 240385
1, 1430190, Tempo, 235849
1, 1430280, Tempo, 231481
1, 1430370, Tempo, 227273
1, 1430460, Tempo, 223214
1, 1430550, Tempo, 219298
1, 1430640, Tempo, 215517
1, 1430730, Tempo, 211864
1, 1430820, Tempo, 208333
1, 1559520, Tempo, 208333
1, 1559700, Tempo, 211528
1, 1559880, Tempo, 214823
1, 1560060, Tempo, 218221
1, 1560240, Tempo, 221729
1, 1560420, Tempo, 225352
1, 1560600, Tempo, 229095
1, 1560780, Tempo, 232964
1, 1560960, Tempo, 236967
1, 1561140, Tempo, 241109
1, 1561320, Tempo, 245399
1, 1561500, Tempo, 250000
1, 1561500, End_track
2, 0, Start_track
2, 0, Title_t, "Piano"
2, 0, Control_c, 0, 0, 0
2, 0, Control_c, 0, 7, 105
2, 0, Control_c, 0, 10, 54
2, 0, Control_c, 0, 91, 72
2, 0, Control_c, 0, 91, 72
2, 0, Control_c, 0, 10, 60
2, 0, Control_c, 0, 32, 0
2, 1, Program_c, 0, 0
2, 360, Note_on_c, 0, 69, 74
2, 360, Note_on_c, 0, 76, 73
2, 360, Note_on_c, 0, 79, 72
2, 360, Note_on_c, 0, 81, 73
2, 360, Note_on_c, 0, 45, 72
2, 360, Note_on_c, 0, 52, 71
2, 360, Note_on_c, 0, 55, 72
2, 360, Note_on_c, 0, 57, 71
2, 685, Note_on_c, 0, 57, 0
2, 685, Note_on_c, 0, 69, 0
2, 685, Note_on_c, 0, 45, 0
2, 685, Note_on_c, 0, 76, 0
2, 685, Note_on_c, 0, 79, 0
2, 685, Note_on_c, 0, 81, 0
2, 685, Note_on_c, 0, 52, 0
2, 685, Note_on_c, 0, 55, 0
2, 720, Note_on_c, 0, 69, 79
2, 720, Note_on_c, 0, 74, 81
2, 720, Note_on_c, 0, 77, 79
2, 720, Note_on_c, 0, 81, 79
2, 720, Note_on_c, 0, 45, 78
2, 720, Note_on_c, 0, 50, 81
2, 720, Note_on_c, 0, 53, 80
2, 720, Note_on_c, 0, 57, 78
2, 1045, Note_on_c, 0, 57, 0
2, 1045, Note_on_c, 0, 69, 0
2, 1045, Note_on_c, 0, 45, 0
2, 1045, Note_on_c, 0, 74, 0
2, 1045, Note_on_c, 0, 77, 0
2, 1045, Note_on_c, 0, 81, 0
2, 1045, Note_on_c, 0, 50, 0
2, 1045, Note_on_c, 0, 53, 0
2, 1080, Note_on_c, 0, 64, 70
2, 1080, Note_on_c, 0, 70, 70
2, 1080, Note_on_c, 0, 74, 71
2, 1080, Note_on_c, 0, 76, 70
2, 1080, Note_on_c, 0, 43, 75
2, 1080, Note_on_c, 0, 50, 76
2, 1080, Note_on_c, 0, 55, 77
2, 1405, Note_on_c, 0, 55, 0
2, 1405, Note_on_c, 0, 43, 0
2, 1405, Note_on_c, 0, 70, 0
2, 1405, Note_on_c, 0, 74, 0
2, 1405, Note_on_c, 0, 64, 0
2, 1405, Note_on_c, 0, 50, 0
2, 1405, Note_on_c, 0, 76, 0
2, 1440, Note_on_c, 0, 67, 88
2, 1440, Note_on_c, 0, 69, 90
2, 1440, Note_on_c, 0, 73, 89
2, 1440, Note_on_c, 0, 79, 88
2, 1440, Note_on_c, 0, 45, 83
2, 1440, Note_on_c, 0, 49, 82
2, 1440, Note_on_c, 0, 55, 81
2, 1765, Note_on_c, 0, 55, 0
2, 1765, Note_on_c, 0, 45, 0
2, 1765, Note_on_c, 0, 69, 0
2, 1765, Note_on_c, 0, 73, 0
2, 1765, Note_on_c, 0, 67, 0
2, 1765, Note_on_c, 0, 49, 0
2, 1765, Note_on_c, 0, 79, 0
2, 1800, Note_on_c, 0, 62, 73
2, 1800, Note_on_c, 0, 69, 70
2, 1800, Note_on_c, 0, 74, 73
2, 1800, Note_on_c, 0, 41, 76
2, 1800, Note_on_c, 0, 53, 77
2, 2125, Note_on_c, 0, 53, 0
2, 2125, Note_on_c, 0, 74, 0
2, 2125, Note_on_c, 0, 62, 0
2, 2125, Note_on_c, 0, 69, 0
2, 2125, Note_on_c, 0, 41, 0
2, 2160, Note_on_c, 0, 65, 85
2, 2160, Note_on_c, 0, 68, 86
2, 2160, Note_on_c, 0, 72, 85
2, 2160, Note_on_c, 0, 77, 85
2, 2160, Note_on_c, 0, 38, 74
2, 2160, Note_on_c, 0, 50, 72
2, 2485, Note_on_c, 0, 50, 0
2, 2485, Note_on_c, 0, 68, 0
2, 2485, Note_on_c, 0, 72, 0
2, 2485, Note_on_c, 0, 65, 0
2, 2485, Note_on_c, 0, 38, 0
2, 2485, Note_on_c, 0, 77, 0
2, 2520, Note_on_c, 0, 59, 71
2, 2520, Note_on_c, 0, 65, 70
2, 2520, Note_on_c, 0, 67, 71
2, 2520, Note_on_c, 0, 71, 71
2, 2520, Note_on_c, 0, 43, 90
2, 2520, Note_on_c, 0, 50, 90
2, 2520, Note_on_c, 0, 55, 91
2, 2845, Note_on_c, 0, 55, 0
2, 2845, Note_on_c, 0, 43, 0
2, 2845, Note_on_c, 0, 65, 0
2, 2845, Note_on_c, 0, 67, 0
2, 2845, Note_on_c, 0, 59, 0
2, 2845, Note_on_c, 0, 50, 0
2, 2845, Note_on_c, 0, 71, 0
2, 2880, Note_on_c, 0, 62, 88
2, 2880, Note_on_c, 0, 64, 89
2, 2880, Note_on_c, 0, 71, 88
2, 2880, Note_on_c, 0, 74, 90
2, 2880, Note_on_c, 0, 44, 88
2, 2880, Note_on_c, 0, 52, 88
2, 2880, Note_on_c, 0, 56, 87
2, 3205, Note_on_c, 0, 56, 0
2, 3205, Note_on_c, 0, 44, 0
2, 3205, Note_on_c, 0, 64, 0
2, 3205, Note_on_c, 0, 71, 0
2, 3205, Note_on_c, 0, 62, 0
2, 3205, Note_on_c, 0, 52, 0
2, 3205, Note_on_c, 0, 74, 0
2, 3240, Note_on_c, 0, 64, 80
2, 3240, Note_on_c, 0, 69, 79
2, 3240, Note_on_c, 0, 72, 77
2, 3240, Note_on_c, 0, 45, 83
2, 3240, Note_on_c, 0, 57, 85
2, 3403, Note_on_c, 0, 72, 0
2, 3403, Note_on_c, 0, 64, 0
2, 3403, Note_on_c, 0, 69, 0
2, 3420, Note_on_c, 0, 71, 77
2, 3565, Note_on_c, 0, 45, 0
2, 3565, Note_on_c, 0, 57, 0
2, 3583, Note_on_c, 0, 71, 0
2, 3600, Note_on_c, 0, 60, 76
2, 3600, Note_on_c, 0, 63, 76
2, 3600, Note_on_c, 0, 69, 79
2, 3600, Note_on_c, 0, 43, 77
2, 3600, Note_on_c, 0, 55, 75
2, 3763, Note_on_c, 0, 69, 0
2, 3763, Note_on_c, 0, 60, 0
2, 3763, Note_on_c, 0, 63, 0
2, 3780, Note_on_c, 0, 71, 85
2, 3925, Note_on_c, 0, 43, 0
2, 3925, Note_on_c, 0, 55, 0
2, 3943, Note_on_c, 0, 71, 0
2, 3960, Note_on_c, 0, 62, 87
2, 3960, Note_on_c, 0, 69, 86
2, 3960, Note_on_c, 0, 72, 86
2, 3960, Note_on_c, 0, 42, 75
2, 3960, Note_on_c, 0, 54, 75
2, 4285, Note_on_c, 0, 54, 0
2, 4285, Note_on_c, 0, 72, 0
2, 4285, Note_on_c, 0, 62, 0
2, 4285, Note_on_c, 0, 69, 0
2, 4285, Note_on_c, 0, 42, 0
2, 4320, Note_on_c, 0, 59, 76
2, 4320, Note_on_c, 0, 62, 74
2, 4320, Note_on_c, 0, 67, 74
2, 4320, Note_on_c, 0, 41, 81
2, 4320, Note_on_c, 0, 53, 80
2, 4645, Note_on_c, 0, 53, 0
2, 4645, Note_on_c, 0, 67, 0
2, 4645, Note_on_c, 0, 59, 0
2, 4645, Note_on_c, 0, 62, 0
2, 4645, Note_on_c, 0, 41, 0
2, 4680, Note_on_c, 0, 57, 84
2, 4680, Note_on_c, 0, 60, 84
2, 4680, Note_on_c, 0, 67, 84
2, 4680, Note_on_c, 0, 69, 85
2, 4680, Note_on_c, 0, 40, 74
2, 4680, Note_on_c, 0, 45, 76
2, 4680, Note_on_c, 0, 48, 76
2, 4680, Note_on_c, 0, 52, 75
2, 5005, Note_on_c, 0, 52, 0
2, 5005, Note_on_c, 0, 57, 0
2, 5005, Note_on_c, 0, 40, 0
2, 5005, Note_on_c, 0, 60, 0
2, 5005, Note_on_c, 0, 67, 0
2, 5005, Note_on_c, 0, 69, 0
2, 5005, Note_on_c, 0, 45, 0
2, 5005, Note_on_c, 0, 48, 0
2, 5040, Note_on_c, 0, 60, 90
2, 5040, Note_on_c, 0, 65, 91
2, 5040, Note_on_c, 0, 69, 92
2, 5040, Note_on_c, 0, 74, 90
2, 5040, Note_on_c, 0, 38, 74
2, 5040, Note_on_c, 0, 45, 75
2, 5040, Note_on_c, 0, 50, 76
2, 5365, Note_on_c, 0, 50, 0
2, 5365, Note_on_c, 0, 38, 0
2, 5365, Note_on_c, 0, 65, 0
2, 5365, Note_on_c, 0, 69, 0
2, 5365, Note_on_c, 0, 60, 0
2, 5365, Note_on_c, 0, 45, 0
2, 5365, Note_on_c, 0, 74, 0
2, 5400, Note_on_c, 0, 65, 93
2, 5400, Note_on_c, 0, 67, 90
2, 5400, Note_on_c, 0, 71, 90
2, 5400, Note_on_c, 0, 74, 92
2, 5400, Note_on_c, 0, 79, 93
2, 5400, Note_on_c, 0, 43, 90
2, 5400, Note_on_c, 0, 47, 91
2, 5400, Note_on_c, 0, 50, 91
2, 5400, Note_on_c, 0, 55, 91
2, 5725, Note_on_c, 0, 55, 0
2, 5725, Note_on_c, 0, 74, 0
2, 5725, Note_on_c, 0, 65, 0
2, 5725, Note_on_c, 0, 79, 0
2, 5725, Note_on_c, 0, 67, 0
2, 5725, Note_on_c, 0, 71, 0
2, 5725, Note_on_c, 0, 47, 0
2, 5725, Note_on_c, 0, 43, 0
2, 5725, Note_on_c, 0, 50, 0
2, 5760, Note_on_c, 0, 60, 72
2, 5760, Note_on_c, 0, 64, 72
2, 5760, Note_on_c, 0, 67, 71
2, 5760, Note_on_c, 0, 72, 71
2, 5760, Note_on_c, 0, 36, 70
2, 5760, Note_on_c, 0, 40, 71
2, 5760, Note_on_c, 0, 43, 74
2, 5760, Note_on_c, 0, 48, 72
2, 6085, Note_on_c, 0, 48, 0
2, 6085, Note_on_c, 0, 60, 0
2, 6085, Note_on_c, 0, 36, 0
2, 6085, Note_on_c, 0, 64, 0
2, 6085, Note_on_c, 0, 67, 0
2, 6085, Note_on_c, 0, 72, 0
2, 6085, Note_on_c, 0, 40, 0
2, 6085, Note_on_c, 0, 43, 0
2, 6120, Note_on_c, 0, 64, 81
2, 6120, Note_on_c, 0, 67, 83
2, 6120, Note_on_c, 0, 72, 83
2, 6283, Note_on_c, 0, 72, 0
2, 6283, Note_on_c, 0, 67, 0
2, 6283, Note_on_c, 0, 64, 0
2, 6300, Note_on_c, 0, 65, 86
2, 6300, Note_on_c, 0, 67, 83
2, 6300, Note_on_c, 0, 72, 87
2, 6300, Note_on_c, 0, 74, 87
2, 6463, Note_on_c, 0, 74, 0
2, 6463, Note_on_c, 0, 65, 0
2, 6463, Note_on_c, 0, 67, 0
2, 6463, Note_on_c, 0, 72, 0
2, 6480, Note_on_c, 0, 64, 111
2, 6480, Note_on_c, 0, 67, 113
2, 6480, Note_on_c, 0, 72, 114
2, 6480, Note_on_c, 0, 76, 114
2, 6660, Note_on_c, 0, 43, 75
2, 6660, Note_on_c, 0, 55, 73
2, 6823, Note_on_c, 0, 55, 0
2, 6823, Note_on_c, 0, 43, 0
2, 6840, Note_on_c, 0, 45, 88
2, 6840, Note_on_c, 0, 57, 87
2, 7003, Note_on_c, 0, 57, 0
2, 7003, Note_on_c, 0, 45, 0
2, 7020, Note_on_c, 0, 47, 87
2, 7020, Note_on_c, 0, 59, 85
2, 7183, Note_on_c, 0, 59, 0
2, 7183, Note_on_c, 0, 47, 0
2, 7200, Note_on_c, 0, 48, 114
2, 7200, Note_on_c, 0, 60, 115
2, 7525, Note_on_c, 0, 72, 0
2, 7525, Note_on_c, 0, 76, 0
2, 7525, Note_on_c, 0, 64, 0
2, 7525, Note_on_c, 0, 67, 0
2, 7560, Note_on_c, 0, 64, 75
2, 7560, Note_on_c, 0, 67, 74
2, 7560, Note_on_c, 0, 72, 77
2, 7723, Note_on_c, 0, 72, 0
2, 7723, Note_on_c, 0, 64, 0
2, 7723, Note_on_c, 0, 67, 0
2, 7740, Note_on_c, 0, 65, 83
2, 7740, Note_on_c, 0, 67, 85
2, 7740, Note_on_c, 0, 72, 84
2, 7740, Note_on_c, 0, 74, 83
2, 7903, Note_on_c, 0, 74, 0
2, 7903, Note_on_c, 0, 67, 0
2, 7903, Note_on_c, 0, 65, 0
2, 7903, Note_on_c, 0, 72, 0
2, 7920, Note_on_c, 0, 64, 87
2, 7920, Note_on_c, 0, 67, 89
2, 7920, Note_on_c, 0, 72, 90
2, 7920, Note_on_c, 0, 76, 91
2, 8083, Note_on_c, 0, 76, 0
2, 8083, Note_on_c, 0, 48, 0
2, 8083, Note_on_c, 0, 64, 0
2, 8083, Note_on_c, 0, 60, 0
2, 8083, Note_on_c, 0, 72, 0
2, 8083, Note_on_c, 0, 67, 0
2, 8100, Note_on_c, 0, 65, 85
2, 8100, Note_on_c, 0, 72, 87
2, 8100, Note_on_c, 0, 77, 85
2, 8100, Note_on_c, 0, 50, 87
2, 8100, Note_on_c, 0, 62, 84
2, 8263, Note_on_c, 0, 62, 0
2, 8263, Note_on_c, 0, 77, 0
2, 8263, Note_on_c, 0, 65, 0
2, 8263, Note_on_c, 0, 72, 0
2, 8263, Note_on_c, 0, 50, 0
2, 8280, Note_on_c, 0, 67, 89
2, 8280, Note_on_c, 0, 72, 91
2, 8280, Note_on_c, 0, 79, 91
2, 8280, Note_on_c, 0, 52, 89
2, 8280, Note_on_c, 0, 64, 90
2, 8443, Note_on_c, 0, 64, 0
2, 8443, Note_on_c, 0, 79, 0
2, 8443, Note_on_c, 0, 67, 0
2, 8443, Note_on_c, 0, 72, 0
2, 8443, Note_on_c, 0, 52, 0
2, 8460, Note_on_c, 0, 69, 75
2, 8460, Note_on_c, 0, 72, 75
2, 8460, Note_on_c, 0, 77, 76
2, 8460, Note_on_c, 0, 53, 86
2, 8460, Note_on_c, 0, 65, 86
2, 8623, Note_on_c, 0, 65, 0
2, 8623, Note_on_c, 0, 77, 0
2, 8623, Note_on_c, 0, 69, 0
2, 8623, Note_on_c, 0, 72, 0
2, 8623, Note_on_c, 0, 53, 0
2, 8640, Note_on_c, 0, 64, 79
2, 8640, Note_on_c, 0, 72, 78
2, 8640, Note_on_c, 0, 76, 81
2, 8640, Note_on_c, 0, 55, 88
2, 8640, Note_on_c, 0, 67, 88
2, 8803, Note_on_c, 0, 76, 0
2, 8803, Note_on_c, 0, 64, 0
2, 8803, Note_on_c, 0, 72, 0
2, 8820, Note_on_c, 0, 65, 77
2, 8820, Note_on_c, 0, 71, 74
2, 8820, Note_on_c, 0, 74, 74
2, 8965, Note_on_c, 0, 55, 0
2, 8965, Note_on_c, 0, 67, 0
2, 8983, Note_on_c, 0, 71, 0
2, 8983, Note_on_c, 0, 65, 0
2, 8983, Note_on_c, 0, 74, 0
2, 9000, Note_on_c, 0, 64, 77
2, 9000, Note_on_c, 0, 69, 78
2, 9000, Note_on_c, 0, 72, 77
2, 9000, Note_on_c, 0, 43, 59
2, 9000, Note_on_c, 0, 55, 61
2, 9163, Note_on_c, 0, 72, 0
2, 9163, Note_on_c, 0, 64, 0
2, 9163, Note_on_c, 0, 69, 0
2, 9180, Note_on_c, 0, 65, 86
2, 9180, Note_on_c, 0, 71, 86
2, 9180, Note_on_c, 0, 74, 85
2, 9325, Note_on_c, 0, 43, 0
2, 9325, Note_on_c, 0, 55, 0
2, 9343, Note_on_c, 0, 71, 0
2, 9343, Note_on_c, 0, 65, 0
2, 9343, Note_on_c, 0, 74, 0
2, 9360, Note_on_c, 0, 64, 84
2, 9360, Note_on_c, 0, 67, 85
2, 9360, Note_on_c, 0, 72, 84
2, 9360, Note_on_c, 0, 76, 87
2, 9360, Note_on_c, 0, 48, 91
2, 9360, Note_on_c, 0, 60, 91
2, 9523, Note_on_c, 0, 60, 0
2, 9523, Note_on_c, 0, 48, 0
2, 9540, Note_on_c, 0, 50, 85
2, 9540, Note_on_c, 0, 62, 87
2, 9685, Note_on_c, 0, 72, 0
2, 9685, Note_on_c, 0, 76, 0
2, 9685, Note_on_c, 0, 64, 0
2, 9685, Note_on_c, 0, 67, 0
2, 9703, Note_on_c, 0, 62, 0
2, 9703, Note_on_c, 0, 50, 0
2, 9720, Note_on_c, 0, 60, 77
2, 9720, Note_on_c, 0, 67, 74
2, 9720, Note_on_c, 0, 72, 76
2, 9720, Note_on_c, 0, 52, 89
2, 9720, Note_on_c, 0, 64, 87
2, 9883, Note_on_c, 0, 64, 0
2, 9883, Note_on_c, 0, 72, 0
2, 9883, Note_on_c, 0, 60, 0
2, 9883, Note_on_c, 0, 67, 0
2, 9883, Note_on_c, 0, 52, 0
2, 9900, Note_on_c, 0, 62, 74
2, 9900, Note_on_c, 0, 67, 77
2, 9900, Note_on_c, 0, 71, 77
2, 9900, Note_on_c, 0, 50, 77
2, 9900, Note_on_c, 0, 62, 78
2, 10063, Note_on_c, 0, 62, 0
2, 10063, Note_on_c, 0, 71, 0
2, 10063, Note_on_c, 0, 62, 0
2, 10063, Note_on_c, 0, 67, 0
2, 10063, Note_on_c, 0, 50, 0
2, 10080, Note_on_c, 0, 64, 77
2, 10080, Note_on_c, 0, 67, 79
2, 10080, Note_on_c, 0, 69, 78
2, 10080, Note_on_c, 0, 48, 79
2, 10080, Note_on_c, 0, 60, 77
2, 10243, Note_on_c, 0, 60, 0
2, 10243, Note_on_c, 0, 69, 0
2, 10243, Note_on_c, 0, 64, 0
2, 10243, Note_on_c, 0, 67, 0
2, 10243, Note_on_c, 0, 48, 0
2, 10260, Note_on_c, 0, 62, 86
2, 10260, Note_on_c, 0, 67, 87
2, 10260, Note_on_c, 0, 71, 84
2, 10260, Note_on_c, 0, 47, 78
2, 10260, Note_on_c, 0, 59, 78
2, 10423, Note_on_c, 0, 59, 0
2, 10423, Note_on_c, 0, 71, 0
2, 10423, Note_on_c, 0, 62, 0
2, 10423, Note_on_c, 0, 67, 0
2, 10423, Note_on_c, 0, 47, 0
2, 10440, Note_on_c, 0, 60, 111
2, 10440, Note_on_c, 0, 62, 112
2, 10440, Note_on_c, 0, 66, 112
2, 10440, Note_on_c, 0, 72, 110
2, 10440, Note_on_c, 0, 45, 98
2, 10440, Note_on_c, 0, 57, 96
2, 10765, Note_on_c, 0, 57, 0
2, 10765, Note_on_c, 0, 62, 0
2, 10765, Note_on_c, 0, 66, 0
2, 10765, Note_on_c, 0, 60, 0
2, 10765, Note_on_c, 0, 45, 0
2, 10765, Note_on_c, 0, 72, 0
2, 10800, Note_on_c, 0, 62, 114
2, 10800, Note_on_c, 0, 65, 114
2, 10800, Note_on_c, 0, 67, 117
2, 10800, Note_on_c, 0, 74, 116
2, 10800, Note_on_c, 0, 47, 112
2, 10800, Note_on_c, 0, 59, 113
2, 10963, Note_on_c, 0, 74, 0
2, 10963, Note_on_c, 0, 67, 0
2, 10963, Note_on_c, 0, 62, 0
2, 10963, Note_on_c, 0, 65, 0
2, 10980, Note_on_c, 0, 62, 66
2, 10980, Note_on_c, 0, 65, 67
2, 10980, Note_on_c, 0, 67, 66
2, 11125, Note_on_c, 0, 59, 0
2, 11125, Note_on_c, 0, 47, 0
2, 11143, Note_on_c, 0, 65, 0
2, 11143, Note_on_c, 0, 62, 0
2, 11143, Note_on_c, 0, 67, 0
2, 11160, Note_on_c, 0, 60, 86
2, 11160, Note_on_c, 0, 65, 86
2, 11160, Note_on_c, 0, 69, 88
2, 11160, Note_on_c, 0, 45, 78
2, 11160, Note_on_c, 0, 57, 79
2, 11323, Note_on_c, 0, 57, 0
2, 11323, Note_on_c, 0, 69, 0
2, 11323, Note_on_c, 0, 60, 0
2, 11323, Note_on_c, 0, 65, 0
2, 11323, Note_on_c, 0, 45, 0
2, 11340, Note_on_c, 0, 62, 86
2, 11340, Note_on_c, 0, 65, 84
2, 11340, Note_on_c, 0, 71, 87
2, 11340, Note_on_c, 0, 43, 74
2, 11340, Note_on_c, 0, 55, 76
2, 11503, Note_on_c, 0, 55, 0
2, 11503, Note_on_c, 0, 71, 0
2, 11503, Note_on_c, 0, 62, 0
2, 11503, Note_on_c, 0, 65, 0
2, 11503, Note_on_c, 0, 43, 0
2, 11520, Note_on_c, 0, 64, 114
2, 11520, Note_on_c, 0, 67, 115
2, 11520, Note_on_c, 0, 72, 114
2, 11520, Note_on_c, 0, 48, 121
2, 11520, Note_on_c, 0, 60, 123
2, 11845, Note_on_c, 0, 72, 0
2, 11845, Note_on_c, 0, 64, 0
2, 11845, Note_on_c, 0, 67, 0
2, 11880, Note_on_c, 0, 64, 86
2, 11880, Note_on_c, 0, 67, 83
2, 11880, Note_on_c, 0, 72, 86
2, 12043, Note_on_c, 0, 72, 0
2, 12043, Note_on_c, 0, 64, 0
2, 12043, Note_on_c, 0, 67, 0
2, 12060, Note_on_c, 0, 65, 84
2, 12060, Note_on_c, 0, 67, 86
2, 12060, Note_on_c, 0, 72, 87
2, 12060, Note_on_c, 0, 74, 85
2, 12223, Note_on_c, 0, 74, 0
2, 12223, Note_on_c, 0, 67, 0
2, 12223, Note_on_c, 0, 65, 0
2, 12223, Note_on_c, 0, 72, 0
2, 12240, Note_on_c, 0, 64, 112
2, 12240, Note_on_c, 0, 67, 113
2, 12240, Note_on_c, 0, 72, 114
2, 12240, Note_on_c, 0, 76, 113
2, 12403, Note_on_c, 0, 60, 0
2, 12403, Note_on_c, 0, 48, 0
2, 12420, Note_on_c, 0, 43, 70
2, 12420, Note_on_c, 0, 55, 72
2, 12583, Note_on_c, 0, 55, 0
2, 12583, Note_on_c, 0, 43, 0
2, 12600, Note_on_c, 0, 45, 84
2, 12600, Note_on_c, 0, 57, 86
2, 12763, Note_on_c, 0, 57, 0
2, 12763, Note_on_c, 0, 45, 0
2, 12780, Note_on_c, 0, 47, 87
2, 12780, Note_on_c, 0, 59, 85
2, 12943, Note_on_c, 0, 59, 0
2, 12943, Note_on_c, 0, 47, 0
2, 12960, Note_on_c, 0, 48, 115
2, 12960, Note_on_c, 0, 60, 115
2, 13285, Note_on_c, 0, 64, 0
2, 13285, Note_on_c, 0, 72, 0
2, 13285, Note_on_c, 0, 67, 0
2, 13285, Note_on_c, 0, 76, 0
2, 13320, Note_on_c, 0, 64, 76
2, 13320, Note_on_c, 0, 67, 76
2, 13320, Note_on_c, 0, 72, 77
2, 13483, Note_on_c, 0, 72, 0
2, 13483, Note_on_c, 0, 64, 0
2, 13483, Note_on_c, 0, 67, 0
2, 13500, Note_on_c, 0, 65, 84
2, 13500, Note_on_c, 0, 67, 85
2, 13500, Note_on_c, 0, 72, 84
2, 13500, Note_on_c, 0, 74, 85
2, 13610, Note_on_c, 0, 60, 0
2, 13610, Note_on_c, 0, 48, 0
2, 13663, Note_on_c, 0, 72, 0
2, 13663, Note_on_c, 0, 67, 0
2, 13663, Note_on_c, 0, 74, 0
2, 13663, Note_on_c, 0, 65, 0
2, 13680, Note_on_c, 0, 64, 91
2, 13680, Note_on_c, 0, 67, 90
2, 13680, Note_on_c, 0, 72, 90
2, 13680, Note_on_c, 0, 76, 88
2, 13680, Note_on_c, 0, 48, 82
2, 13680, Note_on_c, 0, 60, 80
2, 13843, Note_on_c, 0, 60, 0
2, 13843, Note_on_c, 0, 67, 0
2, 13843, Note_on_c, 0, 72, 0
2, 13843, Note_on_c, 0, 64, 0
2, 13843, Note_on_c, 0, 48, 0
2, 13843, Note_on_c, 0, 76, 0
2, 13860, Note_on_c, 0, 65, 86
2, 13860, Note_on_c, 0, 72, 84
2, 13860, Note_on_c, 0, 77, 87
2, 13860, Note_on_c, 0, 50, 86
2, 13860, Note_on_c, 0, 62, 84
2, 14023, Note_on_c, 0, 62, 0
2, 14023, Note_on_c, 0, 77, 0
2, 14023, Note_on_c, 0, 65, 0
2, 14023, Note_on_c, 0, 72, 0
2, 14023, Note_on_c, 0, 50, 0
2, 14040, Note_on_c, 0, 67, 89
2, 14040, Note_on_c, 0, 72, 89
2, 14040, Note_on_c, 0, 79, 88
2, 14040, Note_on_c, 0, 52, 89
2, 14040, Note_on_c, 0, 64, 90
2, 14203, Note_on_c, 0, 64, 0
2, 14203, Note_on_c, 0, 79, 0
2, 14203, Note_on_c, 0, 67, 0
2, 14203, Note_on_c, 0, 72, 0
2, 14203, Note_on_c, 0, 52, 0
2, 14220, Note_on_c, 0, 67, 74
2, 14220, Note_on_c, 0, 71, 75
2, 14220, Note_on_c, 0, 77, 78
2, 14220, Note_on_c, 0, 50, 78
2, 14220, Note_on_c, 0, 62, 74
2, 14383, Note_on_c, 0, 62, 0
2, 14383, Note_on_c, 0, 77, 0
2, 14383, Note_on_c, 0, 67, 0
2, 14383, Note_on_c, 0, 71, 0
2, 14383, Note_on_c, 0, 50, 0
2, 14400, Note_on_c, 0, 67, 78
2, 14400, Note_on_c, 0, 72, 79
2, 14400, Note_on_c, 0, 76, 78
2, 14400, Note_on_c, 0, 48, 80
2, 14400, Note_on_c, 0, 60, 77
2, 14563, Note_on_c, 0, 60, 0
2, 14563, Note_on_c, 0, 48, 0
2, 14580, Note_on_c, 0, 47, 76
2, 14580, Note_on_c, 0, 59, 76
2, 14725, Note_on_c, 0, 67, 0
2, 14725, Note_on_c, 0, 76, 0
2, 14725, Note_on_c, 0, 72, 0
2, 14743, Note_on_c, 0, 47, 0
2, 14743, Note_on_c, 0, 59, 0
2, 14760, Note_on_c, 0, 64, 84
2, 14760, Note_on_c, 0, 72, 81
2, 14760, Note_on_c, 0, 76, 81
2, 14760, Note_on_c, 0, 45, 75
2, 14760, Note_on_c, 0, 57, 75
2, 14923, Note_on_c, 0, 76, 0
2, 14923, Note_on_c, 0, 64, 0
2, 14923, Note_on_c, 0, 72, 0
2, 14940, Note_on_c, 0, 66, 87
2, 14940, Note_on_c, 0, 72, 84
2, 14940, Note_on_c, 0, 76, 85
2, 14940, Note_on_c, 0, 78, 84
2, 15085, Note_on_c, 0, 45, 0
2, 15085, Note_on_c, 0, 57, 0
2, 15103, Note_on_c, 0, 76, 0
2, 15103, Note_on_c, 0, 72, 0
2, 15103, Note_on_c, 0, 78, 0
2, 15103, Note_on_c, 0, 66, 0
2, 15120, Note_on_c, 0, 67, 87
2, 15120, Note_on_c, 0, 71, 89
2, 15120, Note_on_c, 0, 76, 89
2, 15120, Note_on_c, 0, 79, 89
2, 15120, Note_on_c, 0, 47, 89
2, 15120, Note_on_c, 0, 59, 88
2, 15283, Note_on_c, 0, 59, 0
2, 15283, Note_on_c, 0, 71, 0
2, 15283, Note_on_c, 0, 76, 0
2, 15283, Note_on_c, 0, 67, 0
2, 15283, Note_on_c, 0, 47, 0
2, 15283, Note_on_c, 0, 79, 0
2, 15300, Note_on_c, 0, 69, 87
2, 15300, Note_on_c, 0, 72, 85
2, 15300, Note_on_c, 0, 76, 84
2, 15300, Note_on_c, 0, 81, 85
2, 15300, Note_on_c, 0, 45, 78
2, 15300, Note_on_c, 0, 57, 77
2, 15463, Note_on_c, 0, 57, 0
2, 15463, Note_on_c, 0, 72, 0
2, 15463, Note_on_c, 0, 76, 0
2, 15463, Note_on_c, 0, 69, 0
2, 15463, Note_on_c, 0, 45, 0
2, 15463, Note_on_c, 0, 81, 0
2, 15480, Note_on_c, 0, 71, 112
2, 15480, Note_on_c, 0, 75, 111
2, 15480, Note_on_c, 0, 81, 113
2, 15480, Note_on_c, 0, 83, 114
2, 15480, Note_on_c, 0, 43, 78
2, 15480, Note_on_c, 0, 55, 77
2, 15643, Note_on_c, 0, 55, 0
2, 15643, Note_on_c, 0, 43, 0
2, 15660, Note_on_c, 0, 42, 75
2, 15660, Note_on_c, 0, 54, 78
2, 15805, Note_on_c, 0, 81, 0
2, 15805, Note_on_c, 0, 83, 0
2, 15805, Note_on_c, 0, 71, 0
2, 15805, Note_on_c, 0, 75, 0
2, 15823, Note_on_c, 0, 54, 0
2, 15823, Note_on_c, 0, 42, 0
2, 15840, Note_on_c, 0, 67, 100
2, 15840, Note_on_c, 0, 71, 98
2, 15840, Note_on_c, 0, 76, 97
2, 15840, Note_on_c, 0, 79, 97
2, 15840, Note_on_c, 0, 40, 100
2, 15840, Note_on_c, 0, 52, 101
2, 16165, Note_on_c, 0, 52, 0
2, 16165, Note_on_c, 0, 71, 0
2, 16165, Note_on_c, 0, 76, 0
2, 16165, Note_on_c, 0, 67, 0
2, 16165, Note_on_c, 0, 40, 0
2, 16165, Note_on_c, 0, 79, 0
2, 16200, Note_on_c, 0, 52, 105
2, 16200, Note_on_c, 0, 64, 104
2, 16363, Note_on_c, 0, 64, 0
2, 16363, Note_on_c, 0, 52, 0
2, 16380, Note_on_c, 0, 54, 87
2, 16380, Note_on_c, 0, 66, 91
2, 16543, Note_on_c, 0, 66, 0
2, 16543, Note_on_c, 0, 54, 0
2, 16560, Note_on_c, 0, 55, 113
2, 16560, Note_on_c, 0, 67, 113
2, 16740, Note_on_c, 0, 61, 73
2, 16740, Note_on_c, 0, 69, 74
2, 16885, Note_on_c, 0, 67, 0
2, 16885, Note_on_c, 0, 55, 0
2, 16903, Note_on_c, 0, 61, 0
2, 16903, Note_on_c, 0, 69, 0
2, 16920, Note_on_c, 0, 62, 87
2, 16920, Note_on_c, 0, 69, 86
2, 16920, Note_on_c, 0, 71, 86
2, 16920, Note_on_c, 0, 53, 78
2, 16920, Note_on_c, 0, 65, 78
2, 17083, Note_on_c, 0, 65, 0
2, 17083, Note_on_c, 0, 71, 0
2, 17083, Note_on_c, 0, 62, 0
2, 17083, Note_on_c, 0, 69, 0
2, 17083, Note_on_c, 0, 53, 0
2, 17100, Note_on_c, 0, 67, 84
2, 17100, Note_on_c, 0, 69, 86
2, 17100, Note_on_c, 0, 73, 85
2, 17100, Note_on_c, 0, 52, 77
2, 17100, Note_on_c, 0, 64, 76
2, 17263, Note_on_c, 0, 64, 0
2, 17263, Note_on_c, 0, 73, 0
2, 17263, Note_on_c, 0, 67, 0
2, 17263, Note_on_c, 0, 69, 0
2, 17263, Note_on_c, 0, 52, 0
2, 17280, Note_on_c, 0, 65, 115
2, 17280, Note_on_c, 0, 69, 115
2, 17280, Note_on_c, 0, 74, 115
2, 17280, Note_on_c, 0, 50, 100
2, 17280, Note_on_c, 0, 62, 102
2, 17605, Note_on_c, 0, 62, 0
2, 17605, Note_on_c, 0, 50, 0
2, 17640, Note_on_c, 0, 45, 72
2, 17640, Note_on_c, 0, 57, 74
2, 17748, Note_on_c, 0, 57, 0
2, 17748, Note_on_c, 0, 45, 0
2, 17760, Note_on_c, 0, 47, 83
2, 17760, Note_on_c, 0, 59, 84
2, 17868, Note_on_c, 0, 59, 0
2, 17868, Note_on_c, 0, 47, 0
2, 17879, Note_on_c, 0, 49, 86
2, 17879, Note_on_c, 0, 61, 84
2, 17989, Note_on_c, 0, 61, 0
2, 17989, Note_on_c, 0, 49, 0
2, 18000, Note_on_c, 0, 50, 112
2, 18000, Note_on_c, 0, 62, 109
2, 18163, Note_on_c, 0, 74, 0
2, 18163, Note_on_c, 0, 65, 0
2, 18163, Note_on_c, 0, 69, 0
2, 18180, Note_on_c, 0, 64, 76
2, 18180, Note_on_c, 0, 69, 79
2, 18180, Note_on_c, 0, 73, 78
2, 18343, Note_on_c, 0, 73, 0
2, 18343, Note_on_c, 0, 64, 0
2, 18343, Note_on_c, 0, 69, 0
2, 18360, Note_on_c, 0, 65, 84
2, 18360, Note_on_c, 0, 69, 84
2, 18360, Note_on_c, 0, 74, 86
2, 18523, Note_on_c, 0, 74, 0
2, 18523, Note_on_c, 0, 65, 0
2, 18523, Note_on_c, 0, 69, 0
2, 18540, Note_on_c, 0, 67, 86
2, 18540, Note_on_c, 0, 69, 83
2, 18540, Note_on_c, 0, 74, 85
2, 18540, Note_on_c, 0, 76, 83
2, 18703, Note_on_c, 0, 76, 0
2, 18703, Note_on_c, 0, 69, 0
2, 18703, Note_on_c, 0, 67, 0
2, 18703, Note_on_c, 0, 74, 0
2, 18720, Note_on_c, 0, 65, 115
2, 18720, Note_on_c, 0, 69, 115
2, 18720, Note_on_c, 0, 74, 114
2, 18720, Note_on_c, 0, 77, 114
2, 19045, Note_on_c, 0, 62, 0
2, 19045, Note_on_c, 0, 50, 0
2, 19080, Note_on_c, 0, 50, 82
2, 19080, Note_on_c, 0, 62, 84
2, 19243, Note_on_c, 0, 62, 0
2, 19243, Note_on_c, 0, 50, 0
2, 19260, Note_on_c, 0, 52, 86
2, 19260, Note_on_c, 0, 64, 86
2, 19423, Note_on_c, 0, 64, 0
2, 19423, Note_on_c, 0, 52, 0
2, 19440, Note_on_c, 0, 53, 88
2, 19440, Note_on_c, 0, 65, 87
2, 19603, Note_on_c, 0, 53, 0
2, 19603, Note_on_c, 0, 65, 0
2, 19620, Note_on_c, 0, 55, 85
2, 19620, Note_on_c, 0, 67, 85
2, 19730, Note_on_c, 0, 77, 0
2, 19730, Note_on_c, 0, 74, 0
2, 19730, Note_on_c, 0, 69, 0
2, 19730, Note_on_c, 0, 65, 0
2, 19783, Note_on_c, 0, 67, 0
2, 19783, Note_on_c, 0, 55, 0
2, 19800, Note_on_c, 0, 65, 76
2, 19800, Note_on_c, 0, 74, 79
2, 19800, Note_on_c, 0, 57, 89
2, 19800, Note_on_c, 0, 69, 91
2, 19963, Note_on_c, 0, 69, 0
2, 19963, Note_on_c, 0, 65, 0
2, 19963, Note_on_c, 0, 74, 0
2, 19963, Note_on_c, 0, 57, 0
2, 19980, Note_on_c, 0, 70, 86
2, 19980, Note_on_c, 0, 74, 83
2, 19980, Note_on_c, 0, 76, 85
2, 19980, Note_on_c, 0, 55, 74
2, 19980, Note_on_c, 0, 67, 77
2, 20143, Note_on_c, 0, 67, 0
2, 20143, Note_on_c, 0, 76, 0
2, 20143, Note_on_c, 0, 70, 0
2, 20143, Note_on_c, 0, 74, 0
2, 20143, Note_on_c, 0, 55, 0
2, 20160, Note_on_c, 0, 69, 89
2, 20160, Note_on_c, 0, 74, 89
2, 20160, Note_on_c, 0, 77, 89
2, 20160, Note_on_c, 0, 53, 77
2, 20160, Note_on_c, 0, 65, 79
2, 20323, Note_on_c, 0, 65, 0
2, 20323, Note_on_c, 0, 77, 0
2, 20323, Note_on_c, 0, 69, 0
2, 20323, Note_on_c, 0, 74, 0
2, 20323, Note_on_c, 0, 53, 0
2, 20340, Note_on_c, 0, 70, 86
2, 20340, Note_on_c, 0, 74, 85
2, 20340, Note_on_c, 0, 79, 84
2, 20340, Note_on_c, 0, 52, 74
2, 20340, Note_on_c, 0, 64, 77
2, 20503, Note_on_c, 0, 64, 0
2, 20503, Note_on_c, 0, 79, 0
2, 20503, Note_on_c, 0, 70, 0
2, 20503, Note_on_c, 0, 74, 0
2, 20503, Note_on_c, 0, 52, 0
2, 20520, Note_on_c, 0, 72, 89
2, 20520, Note_on_c, 0, 74, 89
2, 20520, Note_on_c, 0, 81, 89
2, 20520, Note_on_c, 0, 50, 77
2, 20520, Note_on_c, 0, 62, 80
2, 20683, Note_on_c, 0, 62, 0
2, 20683, Note_on_c, 0, 81, 0
2, 20683, Note_on_c, 0, 72, 0
2, 20683, Note_on_c, 0, 74, 0
2, 20683, Note_on_c, 0, 50, 0
2, 20700, Note_on_c, 0, 70, 76
2, 20700, Note_on_c, 0, 74, 76
2, 20700, Note_on_c, 0, 79, 75
2, 20700, Note_on_c, 0, 52, 85
2, 20700, Note_on_c, 0, 64, 84
2, 20863, Note_on_c, 0, 64, 0
2, 20863, Note_on_c, 0, 79, 0
2, 20863, Note_on_c, 0, 70, 0
2, 20863, Note_on_c, 0, 74, 0
2, 20863, Note_on_c, 0, 52, 0
2, 20880, Note_on_c, 0, 69, 79
2, 20880, Note_on_c, 0, 74, 79
2, 20880, Note_on_c, 0, 77, 76
2, 20880, Note_on_c, 0, 53, 89
2, 20880, Note_on_c, 0, 65, 88
2, 21043, Note_on_c, 0, 77, 0
2, 21043, Note_on_c, 0, 69, 0
2, 21043, Note_on_c, 0, 74, 0
2, 21060, Note_on_c, 0, 76, 78
2, 21205, Note_on_c, 0, 53, 0
2, 21205, Note_on_c, 0, 65, 0
2, 21223, Note_on_c, 0, 76, 0
2, 21240, Note_on_c, 0, 65, 100
2, 21240, Note_on_c, 0, 71, 98
2, 21240, Note_on_c, 0, 74, 100
2, 21240, Note_on_c, 0, 55, 111
2, 21240, Note_on_c, 0, 67, 112
2, 21565, Note_on_c, 0, 67, 0
2, 21565, Note_on_c, 0, 74, 0
2, 21565, Note_on_c, 0, 65, 0
2, 21565, Note_on_c, 0, 71, 0
2, 21565, Note_on_c, 0, 55, 0
2, 21600, Note_on_c, 0, 64, 114
2, 21600, Note_on_c, 0, 67, 115
2, 21600, Note_on_c, 0, 72, 113
2, 21600, Note_on_c, 0, 76, 114
2, 21600, Note_on_c, 0, 48, 93
2, 21600, Note_on_c, 0, 52, 90
2, 21600, Note_on_c, 0, 55, 92
2, 21600, Note_on_c, 0, 60, 93
2, 21925, Note_on_c, 0, 60, 0
2, 21925, Note_on_c, 0, 64, 0
2, 21925, Note_on_c, 0, 48, 0
2, 21925, Note_on_c, 0, 67, 0
2, 21925, Note_on_c, 0, 72, 0
2, 21925, Note_on_c, 0, 76, 0
2, 21925, Note_on_c, 0, 52, 0
2, 21925, Note_on_c, 0, 55, 0
2, 21960, Note_on_c, 0, 64, 74
2, 21960, Note_on_c, 0, 67, 76
2, 21960, Note_on_c, 0, 72, 77
2, 22123, Note_on_c, 0, 72, 0
2, 22123, Note_on_c, 0, 67, 0
2, 22123, Note_on_c, 0, 64, 0
2, 22140, Note_on_c, 0, 65, 85
2, 22140, Note_on_c, 0, 67, 86
2, 22140, Note_on_c, 0, 72, 84
2, 22140, Note_on_c, 0, 74, 84
2, 22303, Note_on_c, 0, 74, 0
2, 22303, Note_on_c, 0, 65, 0
2, 22303, Note_on_c, 0, 67, 0
2, 22303, Note_on_c, 0, 72, 0
2, 22320, Note_on_c, 0, 64, 112
2, 22320, Note_on_c, 0, 67, 114
2, 22320, Note_on_c, 0, 72, 114
2, 22320, Note_on_c, 0, 76, 111
2, 22500, Note_on_c, 0, 43, 72
2, 22500, Note_on_c, 0, 55, 74
2, 22663, Note_on_c, 0, 55, 0
2, 22663, Note_on_c, 0, 43, 0
2, 22680, Note_on_c, 0, 45, 88
2, 22680, Note_on_c, 0, 57, 87
2, 22807, Note_on_c, 0, 72, 0
2, 22807, Note_on_c, 0, 76, 0
2, 22807, Note_on_c, 0, 64, 0
2, 22807, Note_on_c, 0, 67, 0
2, 22843, Note_on_c, 0, 57, 0
2, 22843, Note_on_c, 0, 45, 0
2, 22860, Note_on_c, 0, 63, 77
2, 22860, Note_on_c, 0, 67, 78
2, 22860, Note_on_c, 0, 75, 76
2, 22860, Note_on_c, 0, 47, 86
2, 22860, Note_on_c, 0, 59, 88
2, 23023, Note_on_c, 0, 59, 0
2, 23023, Note_on_c, 0, 75, 0
2, 23023, Note_on_c, 0, 63, 0
2, 23023, Note_on_c, 0, 67, 0
2, 23023, Note_on_c, 0, 47, 0
2, 23040, Note_on_c, 0, 64, 86
2, 23040, Note_on_c, 0, 67, 85
2, 23040, Note_on_c, 0, 72, 85
2, 23040, Note_on_c, 0, 76, 88
2, 23040, Note_on_c, 0, 48, 90
2, 23040, Note_on_c, 0, 60, 86
2, 23203, Note_on_c, 0, 76, 0
2, 23203, Note_on_c, 0, 72, 0
2, 23203, Note_on_c, 0, 64, 0
2, 23203, Note_on_c, 0, 67, 0
2, 23220, Note_on_c, 0, 69, 86
2, 23220, Note_on_c, 0, 76, 85
2, 23220, Note_on_c, 0, 78, 87
2, 23383, Note_on_c, 0, 78, 0
2, 23383, Note_on_c, 0, 69, 0
2, 23383, Note_on_c, 0, 76, 0
2, 23400, Note_on_c, 0, 70, 111
2, 23400, Note_on_c, 0, 76, 113
2, 23400, Note_on_c, 0, 79, 112
2, 23527, Note_on_c, 0, 60, 0
2, 23527, Note_on_c, 0, 48, 0
2, 23580, Note_on_c, 0, 48, 83
2, 23580, Note_on_c, 0, 60, 82
2, 23743, Note_on_c, 0, 60, 0
2, 23743, Note_on_c, 0, 48, 0
2, 23760, Note_on_c, 0, 49, 109
2, 23760, Note_on_c, 0, 61, 110
2, 23923, Note_on_c, 0, 79, 0
2, 23923, Note_on_c, 0, 76, 0
2, 23923, Note_on_c, 0, 70, 0
2, 23940, Note_on_c, 0, 69, 78
2, 23940, Note_on_c, 0, 76, 78
2, 23940, Note_on_c, 0, 78, 78
2, 24103, Note_on_c, 0, 78, 0
2, 24103, Note_on_c, 0, 69, 0
2, 24103, Note_on_c, 0, 76, 0
2, 24120, Note_on_c, 0, 70, 88
2, 24120, Note_on_c, 0, 76, 87
2, 24120, Note_on_c, 0, 79, 84
2, 24247, Note_on_c, 0, 49, 0
2, 24247, Note_on_c, 0, 61, 0
2, 24283, Note_on_c, 0, 76, 0
2, 24283, Note_on_c, 0, 70, 0
2, 24283, Note_on_c, 0, 79, 0
2, 24300, Note_on_c, 0, 69, 85
2, 24300, Note_on_c, 0, 73, 83
2, 24300, Note_on_c, 0, 79, 87
2, 24300, Note_on_c, 0, 81, 84
2, 24300, Note_on_c, 0, 52, 87
2, 24300, Note_on_c, 0, 64, 88
2, 24463, Note_on_c, 0, 64, 0
2, 24463, Note_on_c, 0, 73, 0
2, 24463, Note_on_c, 0, 79, 0
2, 24463, Note_on_c, 0, 69, 0
2, 24463, Note_on_c, 0, 52, 0
2, 24463, Note_on_c, 0, 81, 0
2, 24480, Note_on_c, 0, 71, 115
2, 24480, Note_on_c, 0, 74, 115
2, 24480, Note_on_c, 0, 79, 115
2, 24480, Note_on_c, 0, 83, 115
2, 24480, Note_on_c, 0, 50, 104
2, 24480, Note_on_c, 0, 62, 105
2, 24805, Note_on_c, 0, 62, 0
2, 24805, Note_on_c, 0, 74, 0
2, 24805, Note_on_c, 0, 79, 0
2, 24805, Note_on_c, 0, 71, 0
2, 24805, Note_on_c, 0, 50, 0
2, 24805, Note_on_c, 0, 83, 0
2, 24840, Note_on_c, 0, 67, 77
2, 24840, Note_on_c, 0, 74, 76
2, 24840, Note_on_c, 0, 79, 78
2, 24840, Note_on_c, 0, 50, 77
2, 24840, Note_on_c, 0, 55, 77
2, 24840, Note_on_c, 0, 59, 77
2, 25003, Note_on_c, 0, 59, 0
2, 25003, Note_on_c, 0, 74, 0
2, 25003, Note_on_c, 0, 79, 0
2, 25003, Note_on_c, 0, 67, 0
2, 25003, Note_on_c, 0, 55, 0
2, 25003, Note_on_c, 0, 50, 0
2, 25020, Note_on_c, 0, 69, 84
2, 25020, Note_on_c, 0, 74, 84
2, 25020, Note_on_c, 0, 81, 86
2, 25020, Note_on_c, 0, 50, 79
2, 25020, Note_on_c, 0, 57, 80
2, 25020, Note_on_c, 0, 59, 77
2, 25183, Note_on_c, 0, 59, 0
2, 25183, Note_on_c, 0, 74, 0
2, 25183, Note_on_c, 0, 81, 0
2, 25183, Note_on_c, 0, 69, 0
2, 25183, Note_on_c, 0, 57, 0
2, 25183, Note_on_c, 0, 50, 0
2, 25200, Note_on_c, 0, 71, 89
2, 25200, Note_on_c, 0, 74, 87
2, 25200, Note_on_c, 0, 79, 88
2, 25200, Note_on_c, 0, 83, 87
2, 25200, Note_on_c, 0, 50, 85
2, 25200, Note_on_c, 0, 55, 82
2, 25200, Note_on_c, 0, 59, 84
2, 25363, Note_on_c, 0, 59, 0
2, 25363, Note_on_c, 0, 50, 0
2, 25363, Note_on_c, 0, 74, 0
2, 25363, Note_on_c, 0, 79, 0
2, 25363, Note_on_c, 0, 71, 0
2, 25363, Note_on_c, 0, 55, 0
2, 25363, Note_on_c, 0, 83, 0
2, 25380, Note_on_c, 0, 74, 89
2, 25380, Note_on_c, 0, 79, 90
2, 25380, Note_on_c, 0, 83, 87
2, 25380, Note_on_c, 0, 86, 86
2, 25380, Note_on_c, 0, 50, 81
2, 25380, Note_on_c, 0, 55, 82
2, 25380, Note_on_c, 0, 59, 81
2, 25543, Note_on_c, 0, 59, 0
2, 25543, Note_on_c, 0, 50, 0
2, 25543, Note_on_c, 0, 79, 0
2, 25543, Note_on_c, 0, 83, 0
2, 25543, Note_on_c, 0, 74, 0
2, 25543, Note_on_c, 0, 55, 0
2, 25543, Note_on_c, 0, 86, 0
2, 25560, Note_on_c, 0, 76, 88
2, 25560, Note_on_c, 0, 79, 91
2, 25560, Note_on_c, 0, 83, 87
2, 25560, Note_on_c, 0, 88, 89
2, 25560, Note_on_c, 0, 52, 85
2, 25560, Note_on_c, 0, 55, 82
2, 25560, Note_on_c, 0, 59, 83
2, 25723, Note_on_c, 0, 59, 0
2, 25723, Note_on_c, 0, 52, 0
2, 25723, Note_on_c, 0, 79, 0
2, 25723, Note_on_c, 0, 83, 0
2, 25723, Note_on_c, 0, 76, 0
2, 25723, Note_on_c, 0, 55, 0
2, 25723, Note_on_c, 0, 88, 0
2, 25740, Note_on_c, 0, 78, 85
2, 25740, Note_on_c, 0, 83, 88
2, 25740, Note_on_c, 0, 86, 84
2, 25740, Note_on_c, 0, 90, 87
2, 25740, Note_on_c, 0, 54, 88
2, 25740, Note_on_c, 0, 59, 88
2, 25740, Note_on_c, 0, 62, 86
2, 25903, Note_on_c, 0, 62, 0
2, 25903, Note_on_c, 0, 54, 0
2, 25903, Note_on_c, 0, 83, 0
2, 25903, Note_on_c, 0, 86, 0
2, 25903, Note_on_c, 0, 78, 0
2, 25903, Note_on_c, 0, 59, 0
2, 25903, Note_on_c, 0, 90, 0
2, 25920, Note_on_c, 0, 79, 90
2, 25920, Note_on_c, 0, 83, 89
2, 25920, Note_on_c, 0, 86, 90
2, 25920, Note_on_c, 0, 91, 89
2, 25920, Note_on_c, 0, 55, 90
2, 25920, Note_on_c, 0, 59, 88
2, 25920, Note_on_c, 0, 64, 89
2, 26083, Note_on_c, 0, 64, 0
2, 26083, Note_on_c, 0, 55, 0
2, 26083, Note_on_c, 0, 83, 0
2, 26083, Note_on_c, 0, 86, 0
2, 26083, Note_on_c, 0, 79, 0
2, 26083, Note_on_c, 0, 59, 0
2, 26083, Note_on_c, 0, 91, 0
2, 26100, Note_on_c, 0, 81, 84
2, 26100, Note_on_c, 0, 86, 84
2, 26100, Note_on_c, 0, 93, 85
2, 26100, Note_on_c, 0, 57, 90
2, 26100, Note_on_c, 0, 62, 89
2, 26100, Note_on_c, 0, 69, 91
2, 26263, Note_on_c, 0, 69, 0
2, 26263, Note_on_c, 0, 86, 0
2, 26263, Note_on_c, 0, 93, 0
2, 26263, Note_on_c, 0, 81, 0
2, 26263, Note_on_c, 0, 62, 0
2, 26263, Note_on_c, 0, 57, 0
2, 26280, Note_on_c, 0, 83, 112
2, 26280, Note_on_c, 0, 86, 115
2, 26280, Note_on_c, 0, 91, 113
2, 26280, Note_on_c, 0, 95, 115
2, 26280, Note_on_c, 0, 59, 115
2, 26280, Note_on_c, 0, 62, 114
2, 26280, Note_on_c, 0, 67, 114
2, 26280, Note_on_c, 0, 71, 115
2, 26803, Note_on_c, 0, 71, 0
2, 26803, Note_on_c, 0, 83, 0
2, 26803, Note_on_c, 0, 59, 0
2, 26803, Note_on_c, 0, 86, 0
2, 26803, Note_on_c, 0, 91, 0
2, 26803, Note_on_c, 0, 95, 0
2, 26803, Note_on_c, 0, 62, 0
2, 26803, Note_on_c, 0, 67, 0
2, 26820, Note_on_c, 0, 78, 70
2, 26820, Note_on_c, 0, 83, 70
2, 26820, Note_on_c, 0, 86, 69
2, 26820, Note_on_c, 0, 90, 71
2, 26820, Note_on_c, 0, 55, 68
2, 26820, Note_on_c, 0, 59, 71
2, 26820, Note_on_c, 0, 66, 69
2, 26983, Note_on_c, 0, 66, 0
2, 26983, Note_on_c, 0, 55, 0
2, 26983, Note_on_c, 0, 83, 0
2, 26983, Note_on_c, 0, 86, 0
2, 26983, Note_on_c, 0, 78, 0
2, 26983, Note_on_c, 0, 59, 0
2, 26983, Note_on_c, 0, 90, 0
2, 27000, Note_on_c, 0, 76, 96
2, 27000, Note_on_c, 0, 79, 98
2, 27000, Note_on_c, 0, 83, 97
2, 27000, Note_on_c, 0, 88, 95
2, 27000, Note_on_c, 0, 55, 97
2, 27000, Note_on_c, 0, 59, 96
2, 27000, Note_on_c, 0, 64, 96
2, 27523, Note_on_c, 0, 64, 0
2, 27523, Note_on_c, 0, 55, 0
2, 27523, Note_on_c, 0, 79, 0
2, 27523, Note_on_c, 0, 83, 0
2, 27523, Note_on_c, 0, 76, 0
2, 27523, Note_on_c, 0, 59, 0
2, 27523, Note_on_c, 0, 88, 0
2, 27540, Note_on_c, 0, 71, 72
2, 27540, Note_on_c, 0, 83, 69
2, 27540, Note_on_c, 0, 59, 70
2, 27703, Note_on_c, 0, 59, 0
2, 27703, Note_on_c, 0, 83, 0
2, 27703, Note_on_c, 0, 71, 0
2, 27720, Note_on_c, 0, 69, 76
2, 27720, Note_on_c, 0, 72, 79
2, 27720, Note_on_c, 0, 78, 76
2, 27720, Note_on_c, 0, 81, 75
2, 27720, Note_on_c, 0, 50, 85
2, 27720, Note_on_c, 0, 54, 86
2, 27720, Note_on_c, 0, 60, 84
2, 27883, Note_on_c, 0, 60, 0
2, 27883, Note_on_c, 0, 50, 0
2, 27883, Note_on_c, 0, 72, 0
2, 27883, Note_on_c, 0, 78, 0
2, 27883, Note_on_c, 0, 69, 0
2, 27883, Note_on_c, 0, 54, 0
2, 27883, Note_on_c, 0, 81, 0
2, 27900, Note_on_c, 0, 71, 85
2, 27900, Note_on_c, 0, 83, 84
2, 27900, Note_on_c, 0, 59, 78
2, 28063, Note_on_c, 0, 59, 0
2, 28063, Note_on_c, 0, 83, 0
2, 28063, Note_on_c, 0, 71, 0
2, 28080, Note_on_c, 0, 67, 99
2, 28080, Note_on_c, 0, 71, 97
2, 28080, Note_on_c, 0, 74, 100
2, 28080, Note_on_c, 0, 79, 99
2, 28080, Note_on_c, 0, 55, 104
2, 28080, Note_on_c, 0, 59, 105
2, 28405, Note_on_c, 0, 59, 0
2, 28405, Note_on_c, 0, 71, 0
2, 28405, Note_on_c, 0, 74, 0
2, 28405, Note_on_c, 0, 67, 0
2, 28405, Note_on_c, 0, 55, 0
2, 28405, Note_on_c, 0, 79, 0
2, 28440, Note_on_c, 0, 62, 61
2, 28440, Note_on_c, 0, 50, 83
2, 28440, Note_on_c, 0, 53, 83
2, 28440, Note_on_c, 0, 59, 83
2, 28529, Note_on_c, 0, 59, 0
2, 28529, Note_on_c, 0, 62, 0
2, 28529, Note_on_c, 0, 50, 0
2, 28529, Note_on_c, 0, 53, 0
2, 28620, Note_on_c, 0, 64, 83
2, 28620, Note_on_c, 0, 50, 79
2, 28620, Note_on_c, 0, 53, 81
2, 28620, Note_on_c, 0, 59, 81
2, 28709, Note_on_c, 0, 59, 0
2, 28709, Note_on_c, 0, 64, 0
2, 28709, Note_on_c, 0, 50, 0
2, 28709, Note_on_c, 0, 53, 0
2, 28800, Note_on_c, 0, 65, 86
2, 28800, Note_on_c, 0, 50, 83
2, 28800, Note_on_c, 0, 53, 83
2, 28800, Note_on_c, 0, 59, 84
2, 28889, Note_on_c, 0, 59, 0
2, 28889, Note_on_c, 0, 65, 0
2, 28889, Note_on_c, 0, 50, 0
2, 28889, Note_on_c, 0, 53, 0
2, 28980, Note_on_c, 0, 67, 86
2, 28980, Note_on_c, 0, 50, 82
2, 28980, Note_on_c, 0, 53, 82
2, 28980, Note_on_c, 0, 59, 79
2, 29069, Note_on_c, 0, 59, 0
2, 29069, Note_on_c, 0, 67, 0
2, 29069, Note_on_c, 0, 50, 0
2, 29069, Note_on_c, 0, 53, 0
2, 29160, Note_on_c, 0, 69, 91
2, 29160, Note_on_c, 0, 50, 83
2, 29160, Note_on_c, 0, 53, 82
2, 29160, Note_on_c, 0, 59, 85
2, 29249, Note_on_c, 0, 59, 0
2, 29249, Note_on_c, 0, 69, 0
2, 29249, Note_on_c, 0, 50, 0
2, 29249, Note_on_c, 0, 53, 0
2, 29340, Note_on_c, 0, 67, 74
2, 29340, Note_on_c, 0, 50, 82
2, 29340, Note_on_c, 0, 53, 80
2, 29340, Note_on_c, 0, 59, 81
2, 29429, Note_on_c, 0, 59, 0
2, 29429, Note_on_c, 0, 67, 0
2, 29429, Note_on_c, 0, 50, 0
2, 29429, Note_on_c, 0, 53, 0
2, 29520, Note_on_c, 0, 65, 80
2, 29520, Note_on_c, 0, 50, 85
2, 29520, Note_on_c, 0, 53, 85
2, 29520, Note_on_c, 0, 59, 83
2, 29609, Note_on_c, 0, 59, 0
2, 29609, Note_on_c, 0, 65, 0
2, 29609, Note_on_c, 0, 50, 0
2, 29609, Note_on_c, 0, 53, 0
2, 29700, Note_on_c, 0, 64, 77
2, 29700, Note_on_c, 0, 50, 81
2, 29700, Note_on_c, 0, 53, 80
2, 29700, Note_on_c, 0, 59, 81
2, 29789, Note_on_c, 0, 59, 0
2, 29789, Note_on_c, 0, 64, 0
2, 29789, Note_on_c, 0, 50, 0
2, 29789, Note_on_c, 0, 53, 0
2, 29880, Note_on_c, 0, 62, 78
2, 29880, Note_on_c, 0, 50, 86
2, 29880, Note_on_c, 0, 53, 86
2, 29880, Note_on_c, 0, 59, 83
2, 29969, Note_on_c, 0, 59, 0
2, 29969, Note_on_c, 0, 62, 0
2, 29969, Note_on_c, 0, 50, 0
2, 29969, Note_on_c, 0, 53, 0
2, 30060, Note_on_c, 0, 64, 85
2, 30060, Note_on_c, 0, 50, 79
2, 30060, Note_on_c, 0, 53, 81
2, 30060, Note_on_c, 0, 59, 81
2, 30149, Note_on_c, 0, 59, 0
2, 30149, Note_on_c, 0, 64, 0
2, 30149, Note_on_c, 0, 50, 0
2, 30149, Note_on_c, 0, 53, 0
2, 30240, Note_on_c, 0, 65, 82
2, 30240, Note_on_c, 0, 50, 84
2, 30240, Note_on_c, 0, 53, 84
2, 30240, Note_on_c, 0, 59, 84
2, 30329, Note_on_c, 0, 59, 0
2, 30329, Note_on_c, 0, 53, 0
2, 30329, Note_on_c, 0, 50, 0
2, 30420, Note_on_c, 0, 50, 82
2, 30420, Note_on_c, 0, 53, 79
2, 30420, Note_on_c, 0, 59, 83
2, 30509, Note_on_c, 0, 59, 0
2, 30509, Note_on_c, 0, 53, 0
2, 30509, Note_on_c, 0, 50, 0
2, 30600, Note_on_c, 0, 65, 0
2, 30600, Note_on_c, 0, 70, 73
2, 30600, Note_on_c, 0, 62, 77
2, 30600, Note_on_c, 0, 50, 80
2, 30600, Note_on_c, 0, 53, 80
2, 30600, Note_on_c, 0, 58, 80
2, 30689, Note_on_c, 0, 58, 0
2, 30689, Note_on_c, 0, 50, 0
2, 30689, Note_on_c, 0, 53, 0
2, 30689, Note_on_c, 0, 62, 0
2, 30780, Note_on_c, 0, 64, 84
2, 30780, Note_on_c, 0, 50, 80
2, 30780, Note_on_c, 0, 53, 80
2, 30780, Note_on_c, 0, 58, 79
2, 30869, Note_on_c, 0, 58, 0
2, 30869, Note_on_c, 0, 50, 0
2, 30869, Note_on_c, 0, 53, 0
2, 30869, Note_on_c, 0, 64, 0
2, 30925, Note_on_c, 0, 70, 0
2, 30960, Note_on_c, 0, 71, 82
2, 30960, Note_on_c, 0, 65, 87
2, 30960, Note_on_c, 0, 50, 88
2, 30960, Note_on_c, 0, 53, 89
2, 30960, Note_on_c, 0, 59, 88
2, 31049, Note_on_c, 0, 59, 0
2, 31049, Note_on_c, 0, 50, 0
2, 31049, Note_on_c, 0, 53, 0
2, 31049, Note_on_c, 0, 65, 0
2, 31140, Note_on_c, 0, 67, 85
2, 31140, Note_on_c, 0, 50, 80
2, 31140, Note_on_c, 0, 53, 80
2, 31140, Note_on_c, 0, 59, 81
2, 31229, Note_on_c, 0, 59, 0
2, 31229, Note_on_c, 0, 50, 0
2, 31229, Note_on_c, 0, 53, 0
2, 31229, Note_on_c, 0, 67, 0
2, 31320, Note_on_c, 0, 69, 87
2, 31320, Note_on_c, 0, 50, 86
2, 31320, Note_on_c, 0, 53, 84
2, 31320, Note_on_c, 0, 59, 84
2, 31409, Note_on_c, 0, 59, 0
2, 31409, Note_on_c, 0, 50, 0
2, 31409, Note_on_c, 0, 53, 0
2, 31409, Note_on_c, 0, 69, 0
2, 31500, Note_on_c, 0, 67, 75
2, 31500, Note_on_c, 0, 50, 80
2, 31500, Note_on_c, 0, 53, 82
2, 31500, Note_on_c, 0, 59, 82
2, 31589, Note_on_c, 0, 59, 0
2, 31589, Note_on_c, 0, 50, 0
2, 31589, Note_on_c, 0, 53, 0
2, 31589, Note_on_c, 0, 67, 0
2, 31680, Note_on_c, 0, 65, 84
2, 31680, Note_on_c, 0, 50, 84
2, 31680, Note_on_c, 0, 53, 85
2, 31680, Note_on_c, 0, 59, 82
2, 31769, Note_on_c, 0, 59, 0
2, 31769, Note_on_c, 0, 50, 0
2, 31769, Note_on_c, 0, 53, 0
2, 31860, Note_on_c, 0, 50, 82
2, 31860, Note_on_c, 0, 53, 79
2, 31860, Note_on_c, 0, 59, 81
2, 31949, Note_on_c, 0, 59, 0
2, 31949, Note_on_c, 0, 50, 0
2, 31949, Note_on_c, 0, 53, 0
2, 32040, Note_on_c, 0, 65, 0
2, 32040, Note_on_c, 0, 67, 88
2, 32040, Note_on_c, 0, 50, 86
2, 32040, Note_on_c, 0, 53, 83
2, 32040, Note_on_c, 0, 59, 84
2, 32129, Note_on_c, 0, 59, 0
2, 32129, Note_on_c, 0, 50, 0
2, 32129, Note_on_c, 0, 53, 0
2, 32129, Note_on_c, 0, 67, 0
2, 32220, Note_on_c, 0, 65, 75
2, 32220, Note_on_c, 0, 50, 79
2, 32220, Note_on_c, 0, 53, 82
2, 32220, Note_on_c, 0, 59, 80
2, 32309, Note_on_c, 0, 59, 0
2, 32309, Note_on_c, 0, 50, 0
2, 32309, Note_on_c, 0, 53, 0
2, 32309, Note_on_c, 0, 65, 0
2, 32400, Note_on_c, 0, 64, 81
2, 32400, Note_on_c, 0, 52, 84
2, 32400, Note_on_c, 0, 55, 84
2, 32400, Note_on_c, 0, 59, 85
2, 32489, Note_on_c, 0, 59, 0
2, 32489, Note_on_c, 0, 52, 0
2, 32489, Note_on_c, 0, 55, 0
2, 32489, Note_on_c, 0, 64, 0
2, 32580, Note_on_c, 0, 65, 81
2, 32580, Note_on_c, 0, 52, 81
2, 32580, Note_on_c, 0, 55, 83
2, 32580, Note_on_c, 0, 59, 81
2, 32669, Note_on_c, 0, 59, 0
2, 32669, Note_on_c, 0, 52, 0
2, 32669, Note_on_c, 0, 55, 0
2, 32669, Note_on_c, 0, 65, 0
2, 32760, Note_on_c, 0, 67, 91
2, 32760, Note_on_c, 0, 52, 85
2, 32760, Note_on_c, 0, 55, 85
2, 32760, Note_on_c, 0, 59, 83
2, 32849, Note_on_c, 0, 59, 0
2, 32849, Note_on_c, 0, 52, 0
2, 32849, Note_on_c, 0, 55, 0
2, 32940, Note_on_c, 0, 52, 83
2, 32940, Note_on_c, 0, 55, 79
2, 32940, Note_on_c, 0, 59, 79
2, 33029, Note_on_c, 0, 59, 0
2, 33029, Note_on_c, 0, 52, 0
2, 33029, Note_on_c, 0, 55, 0
2, 33050, Note_on_c, 0, 71, 0
2, 33120, Note_on_c, 0, 72, 88
2, 33120, Note_on_c, 0, 52, 86
2, 33120, Note_on_c, 0, 55, 88
2, 33120, Note_on_c, 0, 60, 88
2, 33209, Note_on_c, 0, 60, 0
2, 33209, Note_on_c, 0, 52, 0
2, 33209, Note_on_c, 0, 55, 0
2, 33300, Note_on_c, 0, 52, 81
2, 33300, Note_on_c, 0, 55, 80
2, 33300, Note_on_c, 0, 60, 83
2, 33389, Note_on_c, 0, 60, 0
2, 33389, Note_on_c, 0, 52, 0
2, 33389, Note_on_c, 0, 55, 0
2, 33445, Note_on_c, 0, 67, 0
2, 33480, Note_on_c, 0, 64, 76
2, 33480, Note_on_c, 0, 52, 84
2, 33480, Note_on_c, 0, 55, 86
2, 33480, Note_on_c, 0, 60, 85
2, 33569, Note_on_c, 0, 60, 0
2, 33569, Note_on_c, 0, 52, 0
2, 33569, Note_on_c, 0, 55, 0
2, 33569, Note_on_c, 0, 64, 0
2, 33660, Note_on_c, 0, 65, 82
2, 33660, Note_on_c, 0, 52, 81
2, 33660, Note_on_c, 0, 55, 81
2, 33660, Note_on_c, 0, 60, 82
2, 33749, Note_on_c, 0, 60, 0
2, 33749, Note_on_c, 0, 52, 0
2, 33749, Note_on_c, 0, 55, 0
2, 33749, Note_on_c, 0, 65, 0
2, 33770, Note_on_c, 0, 72, 0
2, 33840, Note_on_c, 0, 73, 86
2, 33840, Note_on_c, 0, 67, 89
2, 33840, Note_on_c, 0, 52, 87
2, 33840, Note_on_c, 0, 55, 88
2, 33840, Note_on_c, 0, 61, 89
2, 33929, Note_on_c, 0, 61, 0
2, 33929, Note_on_c, 0, 52, 0
2, 33929, Note_on_c, 0, 55, 0
2, 33929, Note_on_c, 0, 67, 0
2, 34020, Note_on_c, 0, 69, 84
2, 34020, Note_on_c, 0, 52, 82
2, 34020, Note_on_c, 0, 55, 81
2, 34020, Note_on_c, 0, 61, 82
2, 34109, Note_on_c, 0, 61, 0
2, 34109, Note_on_c, 0, 52, 0
2, 34109, Note_on_c, 0, 55, 0
2, 34109, Note_on_c, 0, 69, 0
2, 34200, Note_on_c, 0, 70, 88
2, 34200, Note_on_c, 0, 52, 86
2, 34200, Note_on_c, 0, 55, 83
2, 34200, Note_on_c, 0, 61, 85
2, 34289, Note_on_c, 0, 61, 0
2, 34289, Note_on_c, 0, 52, 0
2, 34289, Note_on_c, 0, 55, 0
2, 34289, Note_on_c, 0, 70, 0
2, 34380, Note_on_c, 0, 69, 78
2, 34380, Note_on_c, 0, 52, 81
2, 34380, Note_on_c, 0, 55, 79
2, 34380, Note_on_c, 0, 61, 83
2, 34469, Note_on_c, 0, 61, 0
2, 34469, Note_on_c, 0, 52, 0
2, 34469, Note_on_c, 0, 55, 0
2, 34469, Note_on_c, 0, 69, 0
2, 34560, Note_on_c, 0, 67, 79
2, 34560, Note_on_c, 0, 52, 83
2, 34560, Note_on_c, 0, 55, 84
2, 34560, Note_on_c, 0, 61, 85
2, 34649, Note_on_c, 0, 61, 0
2, 34649, Note_on_c, 0, 52, 0
2, 34649, Note_on_c, 0, 55, 0
2, 34649, Note_on_c, 0, 67, 0
2, 34740, Note_on_c, 0, 65, 77
2, 34740, Note_on_c, 0, 52, 82
2, 34740, Note_on_c, 0, 55, 80
2, 34740, Note_on_c, 0, 61, 79
2, 34829, Note_on_c, 0, 61, 0
2, 34829, Note_on_c, 0, 52, 0
2, 34829, Note_on_c, 0, 55, 0
2, 34829, Note_on_c, 0, 65, 0
2, 34920, Note_on_c, 0, 64, 78
2, 34920, Note_on_c, 0, 52, 82
2, 34920, Note_on_c, 0, 55, 83
2, 34920, Note_on_c, 0, 61, 84
2, 35009, Note_on_c, 0, 61, 0
2, 35009, Note_on_c, 0, 52, 0
2, 35009, Note_on_c, 0, 55, 0
2, 35009, Note_on_c, 0, 64, 0
2, 35100, Note_on_c, 0, 65, 85
2, 35100, Note_on_c, 0, 52, 82
2, 35100, Note_on_c, 0, 55, 82
2, 35100, Note_on_c, 0, 61, 79
2, 35189, Note_on_c, 0, 61, 0
2, 35189, Note_on_c, 0, 52, 0
2, 35189, Note_on_c, 0, 55, 0
2, 35189, Note_on_c, 0, 65, 0
2, 35280, Note_on_c, 0, 67, 92
2, 35280, Note_on_c, 0, 52, 84
2, 35280, Note_on_c, 0, 55, 82
2, 35280, Note_on_c, 0, 61, 83
2, 35369, Note_on_c, 0, 61, 0
2, 35369, Note_on_c, 0, 52, 0
2, 35369, Note_on_c, 0, 55, 0
2, 35460, Note_on_c, 0, 52, 82
2, 35460, Note_on_c, 0, 55, 82
2, 35460, Note_on_c, 0, 61, 80
2, 35549, Note_on_c, 0, 61, 0
2, 35549, Note_on_c, 0, 52, 0
2, 35549, Note_on_c, 0, 55, 0
2, 35570, Note_on_c, 0, 73, 0
2, 35640, Note_on_c, 0, 67, 0
2, 35640, Note_on_c, 0, 72, 78
2, 35640, Note_on_c, 0, 62, 75
2, 35640, Note_on_c, 0, 52, 81
2, 35640, Note_on_c, 0, 55, 80
2, 35640, Note_on_c, 0, 60, 80
2, 35729, Note_on_c, 0, 60, 0
2, 35729, Note_on_c, 0, 52, 0
2, 35729, Note_on_c, 0, 55, 0
2, 35729, Note_on_c, 0, 62, 0
2, 35820, Note_on_c, 0, 64, 81
2, 35820, Note_on_c, 0, 53, 80
2, 35820, Note_on_c, 0, 57, 79
2, 35820, Note_on_c, 0, 60, 82
2, 35909, Note_on_c, 0, 60, 0
2, 35909, Note_on_c, 0, 53, 0
2, 35909, Note_on_c, 0, 57, 0
2, 35909, Note_on_c, 0, 64, 0
2, 35965, Note_on_c, 0, 72, 0
2, 36000, Note_on_c, 0, 73, 85
2, 36000, Note_on_c, 0, 67, 88
2, 36000, Note_on_c, 0, 52, 89
2, 36000, Note_on_c, 0, 55, 88
2, 36000, Note_on_c, 0, 61, 86
2, 36089, Note_on_c, 0, 67, 0
2, 36163, Note_on_c, 0, 55, 0
2, 36163, Note_on_c, 0, 61, 0
2, 36163, Note_on_c, 0, 52, 0
2, 36180, Note_on_c, 0, 65, 75
2, 36180, Note_on_c, 0, 52, 80
2, 36180, Note_on_c, 0, 55, 79
2, 36180, Note_on_c, 0, 61, 81
2, 36269, Note_on_c, 0, 65, 0
2, 36343, Note_on_c, 0, 55, 0
2, 36343, Note_on_c, 0, 61, 0
2, 36343, Note_on_c, 0, 52, 0
2, 36360, Note_on_c, 0, 64, 78
2, 36360, Note_on_c, 0, 52, 82
2, 36360, Note_on_c, 0, 55, 84
2, 36360, Note_on_c, 0, 61, 86
2, 36449, Note_on_c, 0, 64, 0
2, 36523, Note_on_c, 0, 55, 0
2, 36523, Note_on_c, 0, 61, 0
2, 36523, Note_on_c, 0, 52, 0
2, 36540, Note_on_c, 0, 65, 85
2, 36540, Note_on_c, 0, 52, 81
2, 36540, Note_on_c, 0, 55, 82
2, 36540, Note_on_c, 0, 61, 81
2, 36629, Note_on_c, 0, 65, 0
2, 36703, Note_on_c, 0, 55, 0
2, 36703, Note_on_c, 0, 61, 0
2, 36703, Note_on_c, 0, 52, 0
2, 36720, Note_on_c, 0, 67, 97
2, 36720, Note_on_c, 0, 52, 83
2, 36720, Note_on_c, 0, 55, 84
2, 36720, Note_on_c, 0, 61, 85
2, 36883, Note_on_c, 0, 61, 0
2, 36883, Note_on_c, 0, 52, 0
2, 36883, Note_on_c, 0, 55, 0
2, 36900, Note_on_c, 0, 52, 82
2, 36900, Note_on_c, 0, 55, 82
2, 36900, Note_on_c, 0, 61, 80
2, 37010, Note_on_c, 0, 73, 0
2, 37063, Note_on_c, 0, 55, 0
2, 37063, Note_on_c, 0, 61, 0
2, 37063, Note_on_c, 0, 52, 0
2, 37080, Note_on_c, 0, 67, 0
2, 37080, Note_on_c, 0, 73, 80
2, 37080, Note_on_c, 0, 69, 91
2, 37080, Note_on_c, 0, 52, 84
2, 37080, Note_on_c, 0, 55, 85
2, 37080, Note_on_c, 0, 61, 85
2, 37169, Note_on_c, 0, 69, 0
2, 37243, Note_on_c, 0, 55, 0
2, 37243, Note_on_c, 0, 61, 0
2, 37243, Note_on_c, 0, 52, 0
2, 37260, Note_on_c, 0, 67, 75
2, 37260, Note_on_c, 0, 52, 83
2, 37260, Note_on_c, 0, 55, 83
2, 37260, Note_on_c, 0, 61, 83
2, 37349, Note_on_c, 0, 67, 0
2, 37405, Note_on_c, 0, 73, 0
2, 37423, Note_on_c, 0, 55, 0
2, 37423, Note_on_c, 0, 52, 0
2, 37423, Note_on_c, 0, 61, 0
2, 37440, Note_on_c, 0, 65, 87
2, 37440, Note_on_c, 0, 74, 88
2, 37440, Note_on_c, 0, 53, 87
2, 37440, Note_on_c, 0, 57, 87
2, 37440, Note_on_c, 0, 62, 89
2, 37529, Note_on_c, 0, 62, 0
2, 37529, Note_on_c, 0, 53, 0
2, 37529, Note_on_c, 0, 65, 0
2, 37529, Note_on_c, 0, 74, 0
2, 37529, Note_on_c, 0, 57, 0
2, 37620, Note_on_c, 0, 45, 73
2, 37620, Note_on_c, 0, 57, 71
2, 37709, Note_on_c, 0, 57, 0
2, 37709, Note_on_c, 0, 45, 0
2, 37800, Note_on_c, 0, 62, 77
2, 37800, Note_on_c, 0, 65, 77
2, 37800, Note_on_c, 0, 70, 76
2, 37800, Note_on_c, 0, 46, 90
2, 37800, Note_on_c, 0, 58, 91
2, 37963, Note_on_c, 0, 70, 0
2, 37963, Note_on_c, 0, 62, 0
2, 37963, Note_on_c, 0, 65, 0
2, 37980, Note_on_c, 0, 63, 84
2, 37980, Note_on_c, 0, 65, 83
2, 37980, Note_on_c, 0, 70, 83
2, 37980, Note_on_c, 0, 72, 85
2, 38143, Note_on_c, 0, 72, 0
2, 38143, Note_on_c, 0, 65, 0
2, 38143, Note_on_c, 0, 63, 0
2, 38143, Note_on_c, 0, 70, 0
2, 38160, Note_on_c, 0, 62, 84
2, 38160, Note_on_c, 0, 65, 85
2, 38160, Note_on_c, 0, 70, 87
2, 38160, Note_on_c, 0, 74, 87
2, 38323, Note_on_c, 0, 58, 0
2, 38323, Note_on_c, 0, 46, 0
2, 38340, Note_on_c, 0, 41, 70
2, 38340, Note_on_c, 0, 53, 72
2, 38503, Note_on_c, 0, 53, 0
2, 38503, Note_on_c, 0, 41, 0
2, 38520, Note_on_c, 0, 43, 85
2, 38520, Note_on_c, 0, 55, 86
2, 38683, Note_on_c, 0, 55, 0
2, 38683, Note_on_c, 0, 43, 0
2, 38700, Note_on_c, 0, 45, 84
2, 38700, Note_on_c, 0, 57, 85
2, 38863, Note_on_c, 0, 57, 0
2, 38863, Note_on_c, 0, 45, 0
2, 38880, Note_on_c, 0, 46, 88
2, 38880, Note_on_c, 0, 58, 88
2, 39043, Note_on_c, 0, 62, 0
2, 39043, Note_on_c, 0, 70, 0
2, 39043, Note_on_c, 0, 65, 0
2, 39043, Note_on_c, 0, 74, 0
2, 39060, Note_on_c, 0, 64, 78
2, 39060, Note_on_c, 0, 70, 79
2, 39060, Note_on_c, 0, 73, 75
2, 39223, Note_on_c, 0, 73, 0
2, 39223, Note_on_c, 0, 64, 0
2, 39223, Note_on_c, 0, 70, 0
2, 39240, Note_on_c, 0, 65, 88
2, 39240, Note_on_c, 0, 70, 88
2, 39240, Note_on_c, 0, 74, 86
2, 39403, Note_on_c, 0, 74, 0
2, 39403, Note_on_c, 0, 65, 0
2, 39403, Note_on_c, 0, 70, 0
2, 39420, Note_on_c, 0, 67, 84
2, 39420, Note_on_c, 0, 74, 85
2, 39420, Note_on_c, 0, 76, 85
2, 39583, Note_on_c, 0, 76, 0
2, 39583, Note_on_c, 0, 67, 0
2, 39583, Note_on_c, 0, 74, 0
2, 39600, Note_on_c, 0, 65, 84
2, 39600, Note_on_c, 0, 74, 85
2, 39600, Note_on_c, 0, 77, 84
2, 39763, Note_on_c, 0, 58, 0
2, 39763, Note_on_c, 0, 46, 0
2, 39780, Note_on_c, 0, 45, 76
2, 39780, Note_on_c, 0, 57, 77
2, 39943, Note_on_c, 0, 57, 0
2, 39943, Note_on_c, 0, 45, 0
2, 39960, Note_on_c, 0, 47, 89
2, 39960, Note_on_c, 0, 59, 86
2, 40123, Note_on_c, 0, 59, 0
2, 40123, Note_on_c, 0, 47, 0
2, 40140, Note_on_c, 0, 49, 84
2, 40140, Note_on_c, 0, 61, 86
2, 40303, Note_on_c, 0, 61, 0
2, 40303, Note_on_c, 0, 49, 0
2, 40320, Note_on_c, 0, 50, 88
2, 40320, Note_on_c, 0, 62, 87
2, 40483, Note_on_c, 0, 77, 0
2, 40483, Note_on_c, 0, 74, 0
2, 40483, Note_on_c, 0, 65, 0
2, 40500, Note_on_c, 0, 67, 76
2, 40500, Note_on_c, 0, 74, 78
2, 40500, Note_on_c, 0, 76, 78
2, 40645, Note_on_c, 0, 50, 0
2, 40645, Note_on_c, 0, 62, 0
2, 40663, Note_on_c, 0, 74, 0
2, 40663, Note_on_c, 0, 67, 0
2, 40663, Note_on_c, 0, 76, 0
2, 40680, Note_on_c, 0, 69, 85
2, 40680, Note_on_c, 0, 74, 86
2, 40680, Note_on_c, 0, 77, 86
2, 40680, Note_on_c, 0, 50, 80
2, 40680, Note_on_c, 0, 62, 82
2, 40843, Note_on_c, 0, 62, 0
2, 40843, Note_on_c, 0, 77, 0
2, 40843, Note_on_c, 0, 69, 0
2, 40843, Note_on_c, 0, 74, 0
2, 40843, Note_on_c, 0, 50, 0
2, 40860, Note_on_c, 0, 67, 86
2, 40860, Note_on_c, 0, 74, 85
2, 40860, Note_on_c, 0, 79, 86
2, 40860, Note_on_c, 0, 52, 80
2, 40860, Note_on_c, 0, 55, 83
2, 40860, Note_on_c, 0, 62, 81
2, 41023, Note_on_c, 0, 62, 0
2, 41023, Note_on_c, 0, 74, 0
2, 41023, Note_on_c, 0, 79, 0
2, 41023, Note_on_c, 0, 67, 0
2, 41023, Note_on_c, 0, 55, 0
2, 41023, Note_on_c, 0, 52, 0
2, 41040, Note_on_c, 0, 69, 89
2, 41040, Note_on_c, 0, 74, 87
2, 41040, Note_on_c, 0, 81, 89
2, 41040, Note_on_c, 0, 53, 83
2, 41040, Note_on_c, 0, 57, 84
2, 41040, Note_on_c, 0, 62, 82
2, 41203, Note_on_c, 0, 81, 0
2, 41203, Note_on_c, 0, 69, 0
2, 41203, Note_on_c, 0, 74, 0
2, 41220, Note_on_c, 0, 67, 77
2, 41220, Note_on_c, 0, 79, 76
2, 41365, Note_on_c, 0, 53, 0
2, 41365, Note_on_c, 0, 62, 0
2, 41365, Note_on_c, 0, 57, 0
2, 41383, Note_on_c, 0, 67, 0
2, 41383, Note_on_c, 0, 79, 0
2, 41400, Note_on_c, 0, 69, 89
2, 41400, Note_on_c, 0, 73, 87
2, 41400, Note_on_c, 0, 79, 90
2, 41400, Note_on_c, 0, 81, 89
2, 41400, Note_on_c, 0, 52, 75
2, 41400, Note_on_c, 0, 55, 76
2, 41400, Note_on_c, 0, 61, 78
2, 41563, Note_on_c, 0, 81, 0
2, 41563, Note_on_c, 0, 79, 0
2, 41563, Note_on_c, 0, 69, 0
2, 41563, Note_on_c, 0, 73, 0
2, 41580, Note_on_c, 0, 71, 86
2, 41580, Note_on_c, 0, 83, 85
2, 41725, Note_on_c, 0, 61, 0
2, 41725, Note_on_c, 0, 55, 0
2, 41725, Note_on_c, 0, 52, 0
2, 41743, Note_on_c, 0, 71, 0
2, 41743, Note_on_c, 0, 83, 0
2, 41760, Note_on_c, 0, 72, 86
2, 41760, Note_on_c, 0, 77, 88
2, 41760, Note_on_c, 0, 81, 86
2, 41760, Note_on_c, 0, 84, 88
2, 41760, Note_on_c, 0, 50, 78
2, 41760, Note_on_c, 0, 53, 79
2, 41760, Note_on_c, 0, 57, 78
2, 41760, Note_on_c, 0, 60, 77
2, 41923, Note_on_c, 0, 84, 0
2, 41923, Note_on_c, 0, 81, 0
2, 41923, Note_on_c, 0, 72, 0
2, 41923, Note_on_c, 0, 77, 0
2, 41940, Note_on_c, 0, 74, 86
2, 41940, Note_on_c, 0, 86, 88
2, 42085, Note_on_c, 0, 50, 0
2, 42085, Note_on_c, 0, 57, 0
2, 42085, Note_on_c, 0, 60, 0
2, 42085, Note_on_c, 0, 53, 0
2, 42103, Note_on_c, 0, 86, 0
2, 42103, Note_on_c, 0, 74, 0
2, 42120, Note_on_c, 0, 76, 91
2, 42120, Note_on_c, 0, 80, 87
2, 42120, Note_on_c, 0, 88, 89
2, 42120, Note_on_c, 0, 48, 86
2, 42120, Note_on_c, 0, 53, 87
2, 42120, Note_on_c, 0, 56, 87
2, 42120, Note_on_c, 0, 62, 87
2, 42283, Note_on_c, 0, 88, 0
2, 42283, Note_on_c, 0, 76, 0
2, 42283, Note_on_c, 0, 80, 0
2, 42300, Note_on_c, 0, 77, 86
2, 42300, Note_on_c, 0, 89, 83
2, 42445, Note_on_c, 0, 53, 0
2, 42445, Note_on_c, 0, 62, 0
2, 42445, Note_on_c, 0, 48, 0
2, 42445, Note_on_c, 0, 56, 0
2, 42463, Note_on_c, 0, 89, 0
2, 42463, Note_on_c, 0, 77, 0
2, 42480, Note_on_c, 0, 79, 89
2, 42480, Note_on_c, 0, 86, 88
2, 42480, Note_on_c, 0, 89, 89
2, 42480, Note_on_c, 0, 91, 90
2, 42480, Note_on_c, 0, 47, 85
2, 42480, Note_on_c, 0, 53, 84
2, 42480, Note_on_c, 0, 55, 86
2, 42480, Note_on_c, 0, 62, 84
2, 42643, Note_on_c, 0, 62, 0
2, 42643, Note_on_c, 0, 79, 0
2, 42643, Note_on_c, 0, 47, 0
2, 42643, Note_on_c, 0, 86, 0
2, 42643, Note_on_c, 0, 89, 0
2, 42643, Note_on_c, 0, 91, 0
2, 42643, Note_on_c, 0, 53, 0
2, 42643, Note_on_c, 0, 55, 0
2, 42660, Note_on_c, 0, 67, 58
2, 42660, Note_on_c, 0, 79, 58
2, 42660, Note_on_c, 0, 45, 72
2, 42660, Note_on_c, 0, 57, 71
2, 42823, Note_on_c, 0, 57, 0
2, 42823, Note_on_c, 0, 67, 0
2, 42823, Note_on_c, 0, 79, 0
2, 42823, Note_on_c, 0, 45, 0
2, 42840, Note_on_c, 0, 69, 87
2, 42840, Note_on_c, 0, 74, 86
2, 42840, Note_on_c, 0, 77, 85
2, 42840, Note_on_c, 0, 81, 85
2, 42840, Note_on_c, 0, 43, 75
2, 42840, Note_on_c, 0, 55, 77
2, 43003, Note_on_c, 0, 81, 0
2, 43003, Note_on_c, 0, 77, 0
2, 43003, Note_on_c, 0, 69, 0
2, 43003, Note_on_c, 0, 74, 0
2, 43020, Note_on_c, 0, 71, 84
2, 43020, Note_on_c, 0, 83, 86
2, 43165, Note_on_c, 0, 55, 0
2, 43165, Note_on_c, 0, 43, 0
2, 43183, Note_on_c, 0, 71, 0
2, 43183, Note_on_c, 0, 83, 0
2, 43200, Note_on_c, 0, 72, 86
2, 43200, Note_on_c, 0, 76, 90
2, 43200, Note_on_c, 0, 79, 89
2, 43200, Note_on_c, 0, 84, 88
2, 43200, Note_on_c, 0, 48, 91
2, 43200, Note_on_c, 0, 52, 92
2, 43200, Note_on_c, 0, 55, 91
2, 43200, Note_on_c, 0, 60, 92
2, 43525, Note_on_c, 0, 60, 0
2, 43525, Note_on_c, 0, 72, 0
2, 43525, Note_on_c, 0, 48, 0
2, 43525, Note_on_c, 0, 76, 0
2, 43525, Note_on_c, 0, 79, 0
2, 43525, Note_on_c, 0, 84, 0
2, 43525, Note_on_c, 0, 52, 0
2, 43525, Note_on_c, 0, 55, 0
2, 43560, Note_on_c, 0, 64, 63
2, 43560, Note_on_c, 0, 67, 63
2, 43560, Note_on_c, 0, 72, 63
2, 43723, Note_on_c, 0, 72, 0
2, 43723, Note_on_c, 0, 67, 0
2, 43723, Note_on_c, 0, 64, 0
2, 43740, Note_on_c, 0, 65, 82
2, 43740, Note_on_c, 0, 67, 81
2, 43740, Note_on_c, 0, 72, 81
2, 43740, Note_on_c, 0, 74, 83
2, 43903, Note_on_c, 0, 74, 0
2, 43903, Note_on_c, 0, 65, 0
2, 43903, Note_on_c, 0, 67, 0
2, 43903, Note_on_c, 0, 72, 0
2, 43920, Note_on_c, 0, 64, 111
2, 43920, Note_on_c, 0, 67, 113
2, 43920, Note_on_c, 0, 72, 112
2, 43920, Note_on_c, 0, 76, 113
2, 44100, Note_on_c, 0, 43, 71
2, 44100, Note_on_c, 0, 55, 73
2, 44263, Note_on_c, 0, 55, 0
2, 44263, Note_on_c, 0, 43, 0
2, 44280, Note_on_c, 0, 45, 87
2, 44280, Note_on_c, 0, 57, 87
2, 44443, Note_on_c, 0, 57, 0
2, 44443, Note_on_c, 0, 45, 0
2, 44460, Note_on_c, 0, 47, 85
2, 44460, Note_on_c, 0, 59, 85
2, 44623, Note_on_c, 0, 59, 0
2, 44623, Note_on_c, 0, 47, 0
2, 44640, Note_on_c, 0, 48, 116
2, 44640, Note_on_c, 0, 60, 115
2, 44965, Note_on_c, 0, 72, 0
2, 44965, Note_on_c, 0, 76, 0
2, 44965, Note_on_c, 0, 64, 0
2, 44965, Note_on_c, 0, 67, 0
2, 45000, Note_on_c, 0, 64, 75
2, 45000, Note_on_c, 0, 67, 74
2, 45000, Note_on_c, 0, 72, 75
2, 45163, Note_on_c, 0, 72, 0
2, 45163, Note_on_c, 0, 64, 0
2, 45163, Note_on_c, 0, 67, 0
2, 45180, Note_on_c, 0, 65, 82
2, 45180, Note_on_c, 0, 67, 85
2, 45180, Note_on_c, 0, 72, 83
2, 45180, Note_on_c, 0, 74, 83
2, 45343, Note_on_c, 0, 74, 0
2, 45343, Note_on_c, 0, 67, 0
2, 45343, Note_on_c, 0, 65, 0
2, 45343, Note_on_c, 0, 72, 0
2, 45360, Note_on_c, 0, 64, 91
2, 45360, Note_on_c, 0, 67, 91
2, 45360, Note_on_c, 0, 72, 90
2, 45360, Note_on_c, 0, 76, 89
2, 45523, Note_on_c, 0, 76, 0
2, 45523, Note_on_c, 0, 48, 0
2, 45523, Note_on_c, 0, 64, 0
2, 45523, Note_on_c, 0, 60, 0
2, 45523, Note_on_c, 0, 72, 0
2, 45523, Note_on_c, 0, 67, 0
2, 45540, Note_on_c, 0, 65, 84
2, 45540, Note_on_c, 0, 72, 86
2, 45540, Note_on_c, 0, 77, 86
2, 45540, Note_on_c, 0, 50, 84
2, 45540, Note_on_c, 0, 62, 84
2, 45703, Note_on_c, 0, 62, 0
2, 45703, Note_on_c, 0, 77, 0
2, 45703, Note_on_c, 0, 65, 0
2, 45703, Note_on_c, 0, 72, 0
2, 45703, Note_on_c, 0, 50, 0
2, 45720, Note_on_c, 0, 67, 90
2, 45720, Note_on_c, 0, 72, 88
2, 45720, Note_on_c, 0, 79, 88
2, 45720, Note_on_c, 0, 52, 91
2, 45720, Note_on_c, 0, 64, 89
2, 45883, Note_on_c, 0, 64, 0
2, 45883, Note_on_c, 0, 79, 0
2, 45883, Note_on_c, 0, 67, 0
2, 45883, Note_on_c, 0, 72, 0
2, 45883, Note_on_c, 0, 52, 0
2, 45900, Note_on_c, 0, 69, 78
2, 45900, Note_on_c, 0, 72, 77
2, 45900, Note_on_c, 0, 77, 74
2, 45900, Note_on_c, 0, 53, 84
2, 45900, Note_on_c, 0, 65, 85
2, 46063, Note_on_c, 0, 65, 0
2, 46063, Note_on_c, 0, 77, 0
2, 46063, Note_on_c, 0, 69, 0
2, 46063, Note_on_c, 0, 72, 0
2, 46063, Note_on_c, 0, 53, 0
2, 46080, Note_on_c, 0, 64, 80
2, 46080, Note_on_c, 0, 72, 80
2, 46080, Note_on_c, 0, 76, 79
2, 46080, Note_on_c, 0, 55, 88
2, 46080, Note_on_c, 0, 67, 89
2, 46243, Note_on_c, 0, 76, 0
2, 46243, Note_on_c, 0, 64, 0
2, 46243, Note_on_c, 0, 72, 0
2, 46260, Note_on_c, 0, 65, 75
2, 46260, Note_on_c, 0, 71, 77
2, 46260, Note_on_c, 0, 74, 75
2, 46405, Note_on_c, 0, 55, 0
2, 46405, Note_on_c, 0, 67, 0
2, 46423, Note_on_c, 0, 71, 0
2, 46423, Note_on_c, 0, 65, 0
2, 46423, Note_on_c, 0, 74, 0
2, 46440, Note_on_c, 0, 64, 79
2, 46440, Note_on_c, 0, 69, 80
2, 46440, Note_on_c, 0, 72, 79
2, 46440, Note_on_c, 0, 43, 62
2, 46440, Note_on_c, 0, 55, 59
2, 46603, Note_on_c, 0, 72, 0
2, 46603, Note_on_c, 0, 64, 0
2, 46603, Note_on_c, 0, 69, 0
2, 46620, Note_on_c, 0, 65, 84
2, 46620, Note_on_c, 0, 71, 87
2, 46620, Note_on_c, 0, 74, 85
2, 46765, Note_on_c, 0, 43, 0
2, 46765, Note_on_c, 0, 55, 0
2, 46783, Note_on_c, 0, 71, 0
2, 46783, Note_on_c, 0, 65, 0
2, 46783, Note_on_c, 0, 74, 0
2, 46800, Note_on_c, 0, 64, 87
2, 46800, Note_on_c, 0, 67, 88
2, 46800, Note_on_c, 0, 72, 85
2, 46800, Note_on_c, 0, 76, 87
2, 46800, Note_on_c, 0, 48, 91
2, 46800, Note_on_c, 0, 60, 88
2, 46963, Note_on_c, 0, 60, 0
2, 46963, Note_on_c, 0, 48, 0
2, 46980, Note_on_c, 0, 50, 88
2, 46980, Note_on_c, 0, 62, 84
2, 47125, Note_on_c, 0, 72, 0
2, 47125, Note_on_c, 0, 76, 0
2, 47125, Note_on_c, 0, 64, 0
2, 47125, Note_on_c, 0, 67, 0
2, 47143, Note_on_c, 0, 62, 0
2, 47143, Note_on_c, 0, 50, 0
2, 47160, Note_on_c, 0, 60, 76
2, 47160, Note_on_c, 0, 67, 75
2, 47160, Note_on_c, 0, 72, 75
2, 47160, Note_on_c, 0, 52, 90
2, 47160, Note_on_c, 0, 64, 87
2, 47323, Note_on_c, 0, 64, 0
2, 47323, Note_on_c, 0, 72, 0
2, 47323, Note_on_c, 0, 60, 0
2, 47323, Note_on_c, 0, 67, 0
2, 47323, Note_on_c, 0, 52, 0
2, 47340, Note_on_c, 0, 62, 76
2, 47340, Note_on_c, 0, 67, 75
2, 47340, Note_on_c, 0, 71, 76
2, 47340, Note_on_c, 0, 50, 78
2, 47340, Note_on_c, 0, 62, 77
2, 47503, Note_on_c, 0, 62, 0
2, 47503, Note_on_c, 0, 71, 0
2, 47503, Note_on_c, 0, 62, 0
2, 47503, Note_on_c, 0, 67, 0
2, 47503, Note_on_c, 0, 50, 0
2, 47520, Note_on_c, 0, 64, 79
2, 47520, Note_on_c, 0, 67, 76
2, 47520, Note_on_c, 0, 69, 79
2, 47520, Note_on_c, 0, 48, 77
2, 47520, Note_on_c, 0, 60, 76
2, 47683, Note_on_c, 0, 60, 0
2, 47683, Note_on_c, 0, 69, 0
2, 47683, Note_on_c, 0, 64, 0
2, 47683, Note_on_c, 0, 67, 0
2, 47683, Note_on_c, 0, 48, 0
2, 47700, Note_on_c, 0, 62, 86
2, 47700, Note_on_c, 0, 67, 85
2, 47700, Note_on_c, 0, 71, 84
2, 47700, Note_on_c, 0, 47, 75
2, 47700, Note_on_c, 0, 59, 78
2, 47863, Note_on_c, 0, 59, 0
2, 47863, Note_on_c, 0, 71, 0
2, 47863, Note_on_c, 0, 62, 0
2, 47863, Note_on_c, 0, 67, 0
2, 47863, Note_on_c, 0, 47, 0
2, 47880, Note_on_c, 0, 60, 86
2, 47880, Note_on_c, 0, 62, 85
2, 47880, Note_on_c, 0, 66, 86
2, 47880, Note_on_c, 0, 72, 87
2, 47880, Note_on_c, 0, 45, 74
2, 47880, Note_on_c, 0, 57, 75
2, 48205, Note_on_c, 0, 57, 0
2, 48205, Note_on_c, 0, 62, 0
2, 48205, Note_on_c, 0, 66, 0
2, 48205, Note_on_c, 0, 60, 0
2, 48205, Note_on_c, 0, 45, 0
2, 48205, Note_on_c, 0, 72, 0
2, 48240, Note_on_c, 0, 62, 87
2, 48240, Note_on_c, 0, 65, 87
2, 48240, Note_on_c, 0, 67, 89
2, 48240, Note_on_c, 0, 74, 89
2, 48240, Note_on_c, 0, 47, 87
2, 48240, Note_on_c, 0, 59, 86
2, 48403, Note_on_c, 0, 74, 0
2, 48403, Note_on_c, 0, 67, 0
2, 48403, Note_on_c, 0, 62, 0
2, 48403, Note_on_c, 0, 65, 0
2, 48420, Note_on_c, 0, 62, 66
2, 48420, Note_on_c, 0, 65, 65
2, 48420, Note_on_c, 0, 67, 66
2, 48565, Note_on_c, 0, 59, 0
2, 48565, Note_on_c, 0, 47, 0
2, 48583, Note_on_c, 0, 65, 0
2, 48583, Note_on_c, 0, 62, 0
2, 48583, Note_on_c, 0, 67, 0
2, 48600, Note_on_c, 0, 60, 87
2, 48600, Note_on_c, 0, 65, 84
2, 48600, Note_on_c, 0, 69, 86
2, 48600, Note_on_c, 0, 45, 79
2, 48600, Note_on_c, 0, 57, 79
2, 48763, Note_on_c, 0, 57, 0
2, 48763, Note_on_c, 0, 69, 0
2, 48763, Note_on_c, 0, 60, 0
2, 48763, Note_on_c, 0, 65, 0
2, 48763, Note_on_c, 0, 45, 0
2, 48780, Note_on_c, 0, 62, 85
2, 48780, Note_on_c, 0, 65, 84
2, 48780, Note_on_c, 0, 71, 84
2, 48780, Note_on_c, 0, 43, 74
2, 48780, Note_on_c, 0, 55, 76
2, 48943, Note_on_c, 0, 55, 0
2, 48943, Note_on_c, 0, 71, 0
2, 48943, Note_on_c, 0, 62, 0
2, 48943, Note_on_c, 0, 65, 0
2, 48943, Note_on_c, 0, 43, 0
2, 48960, Note_on_c, 0, 64, 89
2, 48960, Note_on_c, 0, 67, 89
2, 48960, Note_on_c, 0, 72, 88
2, 48960, Note_on_c, 0, 48, 91
2, 48960, Note_on_c, 0, 60, 94
2, 49285, Note_on_c, 0, 72, 0
2, 49285, Note_on_c, 0, 64, 0
2, 49285, Note_on_c, 0, 67, 0
2, 49320, Note_on_c, 0, 64, 86
2, 49320, Note_on_c, 0, 67, 84
2, 49320, Note_on_c, 0, 72, 84
2, 49483, Note_on_c, 0, 72, 0
2, 49483, Note_on_c, 0, 64, 0
2, 49483, Note_on_c, 0, 67, 0
2, 49500, Note_on_c, 0, 65, 83
2, 49500, Note_on_c, 0, 67, 83
2, 49500, Note_on_c, 0, 72, 85
2, 49500, Note_on_c, 0, 74, 86
2, 49663, Note_on_c, 0, 74, 0
2, 49663, Note_on_c, 0, 67, 0
2, 49663, Note_on_c, 0, 65, 0
2, 49663, Note_on_c, 0, 72, 0
2, 49680, Note_on_c, 0, 64, 114
2, 49680, Note_on_c, 0, 67, 112
2, 49680, Note_on_c, 0, 72, 111
2, 49680, Note_on_c, 0, 76, 113
2, 49843, Note_on_c, 0, 60, 0
2, 49843, Note_on_c, 0, 48, 0
2, 49860, Note_on_c, 0, 43, 71
2, 49860, Note_on_c, 0, 55, 71
2, 50023, Note_on_c, 0, 55, 0
2, 50023, Note_on_c, 0, 43, 0
2, 50040, Note_on_c, 0, 45, 85
2, 50040, Note_on_c, 0, 57, 85
2, 50203, Note_on_c, 0, 57, 0
2, 50203, Note_on_c, 0, 45, 0
2, 50220, Note_on_c, 0, 47, 85
2, 50220, Note_on_c, 0, 59, 86
2, 50383, Note_on_c, 0, 59, 0
2, 50383, Note_on_c, 0, 47, 0
2, 50400, Note_on_c, 0, 48, 113
2, 50400, Note_on_c, 0, 60, 115
2, 50725, Note_on_c, 0, 64, 0
2, 50725, Note_on_c, 0, 72, 0
2, 50725, Note_on_c, 0, 67, 0
2, 50725, Note_on_c, 0, 76, 0
2, 50760, Note_on_c, 0, 64, 76
2, 50760, Note_on_c, 0, 67, 73
2, 50760, Note_on_c, 0, 72, 77
2, 50923, Note_on_c, 0, 72, 0
2, 50923, Note_on_c, 0, 64, 0
2, 50923, Note_on_c, 0, 67, 0
2, 50940, Note_on_c, 0, 65, 83
2, 50940, Note_on_c, 0, 67, 83
2, 50940, Note_on_c, 0, 72, 84
2, 50940, Note_on_c, 0, 74, 86
2, 51103, Note_on_c, 0, 74, 0
2, 51103, Note_on_c, 0, 67, 0
2, 51103, Note_on_c, 0, 65, 0
2, 51103, Note_on_c, 0, 72, 0
2, 51120, Note_on_c, 0, 64, 88
2, 51120, Note_on_c, 0, 67, 90
2, 51120, Note_on_c, 0, 72, 88
2, 51120, Note_on_c, 0, 76, 89
2, 51283, Note_on_c, 0, 76, 0
2, 51283, Note_on_c, 0, 48, 0
2, 51283, Note_on_c, 0, 64, 0
2, 51283, Note_on_c, 0, 60, 0
2, 51283, Note_on_c, 0, 72, 0
2, 51283, Note_on_c, 0, 67, 0
2, 51300, Note_on_c, 0, 65, 85
2, 51300, Note_on_c, 0, 72, 84
2, 51300, Note_on_c, 0, 77, 83
2, 51300, Note_on_c, 0, 50, 84
2, 51300, Note_on_c, 0, 62, 87
2, 51463, Note_on_c, 0, 62, 0
2, 51463, Note_on_c, 0, 77, 0
2, 51463, Note_on_c, 0, 65, 0
2, 51463, Note_on_c, 0, 72, 0
2, 51463, Note_on_c, 0, 50, 0
2, 51480, Note_on_c, 0, 67, 89
2, 51480, Note_on_c, 0, 72, 89
2, 51480, Note_on_c, 0, 79, 87
2, 51480, Note_on_c, 0, 52, 89
2, 51480, Note_on_c, 0, 64, 88
2, 51643, Note_on_c, 0, 64, 0
2, 51643, Note_on_c, 0, 79, 0
2, 51643, Note_on_c, 0, 67, 0
2, 51643, Note_on_c, 0, 72, 0
2, 51643, Note_on_c, 0, 52, 0
2, 51660, Note_on_c, 0, 67, 77
2, 51660, Note_on_c, 0, 71, 77
2, 51660, Note_on_c, 0, 77, 76
2, 51660, Note_on_c, 0, 50, 75
2, 51660, Note_on_c, 0, 62, 74
2, 51823, Note_on_c, 0, 62, 0
2, 51823, Note_on_c, 0, 77, 0
2, 51823, Note_on_c, 0, 67, 0
2, 51823, Note_on_c, 0, 71, 0
2, 51823, Note_on_c, 0, 50, 0
2, 51840, Note_on_c, 0, 67, 78
2, 51840, Note_on_c, 0, 72, 80
2, 51840, Note_on_c, 0, 76, 79
2, 51840, Note_on_c, 0, 48, 80
2, 51840, Note_on_c, 0, 60, 77
2, 52003, Note_on_c, 0, 60, 0
2, 52003, Note_on_c, 0, 48, 0
2, 52020, Note_on_c, 0, 46, 73
2, 52020, Note_on_c, 0, 58, 75
2, 52165, Note_on_c, 0, 67, 0
2, 52165, Note_on_c, 0, 76, 0
2, 52165, Note_on_c, 0, 72, 0
2, 52183, Note_on_c, 0, 46, 0
2, 52183, Note_on_c, 0, 58, 0
2, 52200, Note_on_c, 0, 65, 85
2, 52200, Note_on_c, 0, 72, 86
2, 52200, Note_on_c, 0, 77, 86
2, 52200, Note_on_c, 0, 45, 78
2, 52200, Note_on_c, 0, 57, 80
2, 52363, Note_on_c, 0, 57, 0
2, 52363, Note_on_c, 0, 77, 0
2, 52363, Note_on_c, 0, 65, 0
2, 52363, Note_on_c, 0, 72, 0
2, 52363, Note_on_c, 0, 45, 0
2, 52380, Note_on_c, 0, 70, 84
2, 52380, Note_on_c, 0, 72, 84
2, 52380, Note_on_c, 0, 76, 87
2, 52380, Note_on_c, 0, 79, 86
2, 52380, Note_on_c, 0, 43, 76
2, 52380, Note_on_c, 0, 55, 76
2, 52543, Note_on_c, 0, 55, 0
2, 52543, Note_on_c, 0, 72, 0
2, 52543, Note_on_c, 0, 76, 0
2, 52543, Note_on_c, 0, 70, 0
2, 52543, Note_on_c, 0, 43, 0
2, 52543, Note_on_c, 0, 79, 0
2, 52560, Note_on_c, 0, 69, 87
2, 52560, Note_on_c, 0, 72, 90
2, 52560, Note_on_c, 0, 77, 87
2, 52560, Note_on_c, 0, 81, 88
2, 52560, Note_on_c, 0, 41, 76
2, 52560, Note_on_c, 0, 53, 74
2, 52723, Note_on_c, 0, 81, 0
2, 52723, Note_on_c, 0, 77, 0
2, 52723, Note_on_c, 0, 69, 0
2, 52723, Note_on_c, 0, 72, 0
2, 52740, Note_on_c, 0, 74, 83
2, 52740, Note_on_c, 0, 77, 85
2, 52740, Note_on_c, 0, 82, 86
2, 52885, Note_on_c, 0, 53, 0
2, 52885, Note_on_c, 0, 41, 0
2, 52903, Note_on_c, 0, 77, 0
2, 52903, Note_on_c, 0, 74, 0
2, 52903, Note_on_c, 0, 82, 0
2, 52920, Note_on_c, 0, 75, 115
2, 52920, Note_on_c, 0, 77, 116
2, 52920, Note_on_c, 0, 81, 116
2, 52920, Note_on_c, 0, 84, 117
2, 52920, Note_on_c, 0, 53, 103
2, 52920, Note_on_c, 0, 65, 104
2, 53083, Note_on_c, 0, 65, 0
2, 53083, Note_on_c, 0, 53, 0
2, 53100, Note_on_c, 0, 55, 90
2, 53100, Note_on_c, 0, 67, 90
2, 53263, Note_on_c, 0, 67, 0
2, 53263, Note_on_c, 0, 55, 0
2, 53280, Note_on_c, 0, 53, 81
2, 53280, Note_on_c, 0, 65, 79
2, 53443, Note_on_c, 0, 84, 0
2, 53443, Note_on_c, 0, 81, 0
2, 53443, Note_on_c, 0, 75, 0
2, 53443, Note_on_c, 0, 77, 0
2, 53460, Note_on_c, 0, 74, 75
2, 53460, Note_on_c, 0, 77, 76
2, 53460, Note_on_c, 0, 82, 78
2, 53623, Note_on_c, 0, 82, 0
2, 53623, Note_on_c, 0, 74, 0
2, 53623, Note_on_c, 0, 77, 0
2, 53640, Note_on_c, 0, 72, 78
2, 53640, Note_on_c, 0, 77, 79
2, 53640, Note_on_c, 0, 81, 77
2, 53803, Note_on_c, 0, 81, 0
2, 53803, Note_on_c, 0, 72, 0
2, 53803, Note_on_c, 0, 77, 0
2, 53820, Note_on_c, 0, 70, 77
2, 53820, Note_on_c, 0, 77, 73
2, 53820, Note_on_c, 0, 79, 74
2, 53983, Note_on_c, 0, 79, 0
2, 53983, Note_on_c, 0, 70, 0
2, 53983, Note_on_c, 0, 77, 0
2, 54000, Note_on_c, 0, 69, 89
2, 54000, Note_on_c, 0, 72, 88
2, 54000, Note_on_c, 0, 77, 88
2, 54000, Note_on_c, 0, 81, 86
2, 54163, Note_on_c, 0, 81, 0
2, 54163, Note_on_c, 0, 72, 0
2, 54163, Note_on_c, 0, 69, 0
2, 54163, Note_on_c, 0, 77, 0
2, 54180, Note_on_c, 0, 71, 88
2, 54180, Note_on_c, 0, 83, 85
2, 54290, Note_on_c, 0, 53, 0
2, 54290, Note_on_c, 0, 65, 0
2, 54343, Note_on_c, 0, 71, 0
2, 54343, Note_on_c, 0, 83, 0
2, 54360, Note_on_c, 0, 72, 88
2, 54360, Note_on_c, 0, 75, 88
2, 54360, Note_on_c, 0, 81, 88
2, 54360, Note_on_c, 0, 84, 89
2, 54360, Note_on_c, 0, 54, 82
2, 54360, Note_on_c, 0, 66, 84
2, 54523, Note_on_c, 0, 84, 0
2, 54523, Note_on_c, 0, 81, 0
2, 54523, Note_on_c, 0, 72, 0
2, 54523, Note_on_c, 0, 75, 0
2, 54540, Note_on_c, 0, 74, 88
2, 54540, Note_on_c, 0, 86, 85
2, 54685, Note_on_c, 0, 66, 0
2, 54685, Note_on_c, 0, 54, 0
2, 54703, Note_on_c, 0, 74, 0
2, 54703, Note_on_c, 0, 86, 0
2, 54720, Note_on_c, 0, 76, 115
2, 54720, Note_on_c, 0, 79, 114
2, 54720, Note_on_c, 0, 84, 116
2, 54720, Note_on_c, 0, 88, 116
2, 54720, Note_on_c, 0, 55, 114
2, 54720, Note_on_c, 0, 60, 111
2, 54720, Note_on_c, 0, 64, 115
2, 54720, Note_on_c, 0, 67, 113
2, 55045, Note_on_c, 0, 67, 0
2, 55045, Note_on_c, 0, 76, 0
2, 55045, Note_on_c, 0, 55, 0
2, 55045, Note_on_c, 0, 79, 0
2, 55045, Note_on_c, 0, 84, 0
2, 55045, Note_on_c, 0, 88, 0
2, 55045, Note_on_c, 0, 60, 0
2, 55045, Note_on_c, 0, 64, 0
2, 55080, Note_on_c, 0, 72, 77
2, 55080, Note_on_c, 0, 79, 75
2, 55080, Note_on_c, 0, 84, 77
2, 55080, Note_on_c, 0, 55, 77
2, 55080, Note_on_c, 0, 60, 77
2, 55080, Note_on_c, 0, 64, 79
2, 55243, Note_on_c, 0, 64, 0
2, 55243, Note_on_c, 0, 79, 0
2, 55243, Note_on_c, 0, 84, 0
2, 55243, Note_on_c, 0, 72, 0
2, 55243, Note_on_c, 0, 60, 0
2, 55243, Note_on_c, 0, 55, 0
2, 55260, Note_on_c, 0, 74, 84
2, 55260, Note_on_c, 0, 79, 85
2, 55260, Note_on_c, 0, 86, 84
2, 55260, Note_on_c, 0, 55, 79
2, 55260, Note_on_c, 0, 62, 79
2, 55260, Note_on_c, 0, 64, 80
2, 55423, Note_on_c, 0, 64, 0
2, 55423, Note_on_c, 0, 79, 0
2, 55423, Note_on_c, 0, 86, 0
2, 55423, Note_on_c, 0, 74, 0
2, 55423, Note_on_c, 0, 62, 0
2, 55423, Note_on_c, 0, 55, 0
2, 55440, Note_on_c, 0, 76, 90
2, 55440, Note_on_c, 0, 79, 91
2, 55440, Note_on_c, 0, 84, 90
2, 55440, Note_on_c, 0, 88, 90
2, 55440, Note_on_c, 0, 55, 83
2, 55440, Note_on_c, 0, 60, 83
2, 55440, Note_on_c, 0, 64, 82
2, 55603, Note_on_c, 0, 64, 0
2, 55603, Note_on_c, 0, 55, 0
2, 55603, Note_on_c, 0, 79, 0
2, 55603, Note_on_c, 0, 84, 0
2, 55603, Note_on_c, 0, 76, 0
2, 55603, Note_on_c, 0, 60, 0
2, 55603, Note_on_c, 0, 88, 0
2, 55620, Note_on_c, 0, 79, 65
2, 55620, Note_on_c, 0, 84, 63
2, 55620, Note_on_c, 0, 88, 63
2, 55620, Note_on_c, 0, 91, 62
2, 55620, Note_on_c, 0, 55, 82
2, 55620, Note_on_c, 0, 60, 81
2, 55620, Note_on_c, 0, 64, 80
2, 55783, Note_on_c, 0, 64, 0
2, 55783, Note_on_c, 0, 55, 0
2, 55783, Note_on_c, 0, 84, 0
2, 55783, Note_on_c, 0, 88, 0
2, 55783, Note_on_c, 0, 79, 0
2, 55783, Note_on_c, 0, 60, 0
2, 55783, Note_on_c, 0, 91, 0
2, 55800, Note_on_c, 0, 81, 87
2, 55800, Note_on_c, 0, 84, 83
2, 55800, Note_on_c, 0, 88, 86
2, 55800, Note_on_c, 0, 93, 84
2, 55800, Note_on_c, 0, 57, 86
2, 55800, Note_on_c, 0, 60, 84
2, 55800, Note_on_c, 0, 64, 85
2, 55963, Note_on_c, 0, 64, 0
2, 55963, Note_on_c, 0, 57, 0
2, 55963, Note_on_c, 0, 84, 0
2, 55963, Note_on_c, 0, 88, 0
2, 55963, Note_on_c, 0, 81, 0
2, 55963, Note_on_c, 0, 60, 0
2, 55963, Note_on_c, 0, 93, 0
2, 55980, Note_on_c, 0, 83, 85
2, 55980, Note_on_c, 0, 88, 86
2, 55980, Note_on_c, 0, 91, 86
2, 55980, Note_on_c, 0, 95, 85
2, 55980, Note_on_c, 0, 59, 87
2, 55980, Note_on_c, 0, 64, 85
2, 55980, Note_on_c, 0, 67, 86
2, 56143, Note_on_c, 0, 67, 0
2, 56143, Note_on_c, 0, 59, 0
2, 56143, Note_on_c, 0, 88, 0
2, 56143, Note_on_c, 0, 91, 0
2, 56143, Note_on_c, 0, 83, 0
2, 56143, Note_on_c, 0, 64, 0
2, 56143, Note_on_c, 0, 95, 0
2, 56160, Note_on_c, 0, 84, 90
2, 56160, Note_on_c, 0, 88, 87
2, 56160, Note_on_c, 0, 91, 87
2, 56160, Note_on_c, 0, 96, 88
2, 56160, Note_on_c, 0, 60, 85
2, 56160, Note_on_c, 0, 64, 87
2, 56160, Note_on_c, 0, 67, 86
2, 56323, Note_on_c, 0, 67, 0
2, 56323, Note_on_c, 0, 60, 0
2, 56323, Note_on_c, 0, 88, 0
2, 56323, Note_on_c, 0, 91, 0
2, 56323, Note_on_c, 0, 84, 0
2, 56323, Note_on_c, 0, 64, 0
2, 56323, Note_on_c, 0, 96, 0
2, 56340, Note_on_c, 0, 86, 85
2, 56340, Note_on_c, 0, 91, 86
2, 56340, Note_on_c, 0, 98, 86
2, 56340, Note_on_c, 0, 62, 95
2, 56340, Note_on_c, 0, 67, 93
2, 56340, Note_on_c, 0, 74, 93
2, 56503, Note_on_c, 0, 74, 0
2, 56503, Note_on_c, 0, 91, 0
2, 56503, Note_on_c, 0, 98, 0
2, 56503, Note_on_c, 0, 86, 0
2, 56503, Note_on_c, 0, 67, 0
2, 56503, Note_on_c, 0, 62, 0
2, 56520, Note_on_c, 0, 88, 111
2, 56520, Note_on_c, 0, 91, 115
2, 56520, Note_on_c, 0, 96, 113
2, 56520, Note_on_c, 0, 100, 113
2, 56520, Note_on_c, 0, 64, 113
2, 56520, Note_on_c, 0, 67, 116
2, 56520, Note_on_c, 0, 72, 114
2, 56520, Note_on_c, 0, 76, 113
2, 57043, Note_on_c, 0, 76, 0
2, 57043, Note_on_c, 0, 88, 0
2, 57043, Note_on_c, 0, 64, 0
2, 57043, Note_on_c, 0, 91, 0
2, 57043, Note_on_c, 0, 96, 0
2, 57043, Note_on_c, 0, 100, 0
2, 57043, Note_on_c, 0, 67, 0
2, 57043, Note_on_c, 0, 72, 0
2, 57060, Note_on_c, 0, 83, 71
2, 57060, Note_on_c, 0, 88, 72
2, 57060, Note_on_c, 0, 91, 71
2, 57060, Note_on_c, 0, 95, 69
2, 57060, Note_on_c, 0, 60, 72
2, 57060, Note_on_c, 0, 64, 68
2, 57060, Note_on_c, 0, 71, 69
2, 57223, Note_on_c, 0, 71, 0
2, 57223, Note_on_c, 0, 60, 0
2, 57223, Note_on_c, 0, 88, 0
2, 57223, Note_on_c, 0, 91, 0
2, 57223, Note_on_c, 0, 83, 0
2, 57223, Note_on_c, 0, 64, 0
2, 57223, Note_on_c, 0, 95, 0
2, 57240, Note_on_c, 0, 81, 95
2, 57240, Note_on_c, 0, 84, 96
2, 57240, Note_on_c, 0, 88, 97
2, 57240, Note_on_c, 0, 93, 96
2, 57240, Note_on_c, 0, 60, 96
2, 57240, Note_on_c, 0, 64, 97
2, 57240, Note_on_c, 0, 69, 96
2, 57763, Note_on_c, 0, 69, 0
2, 57763, Note_on_c, 0, 60, 0
2, 57763, Note_on_c, 0, 84, 0
2, 57763, Note_on_c, 0, 88, 0
2, 57763, Note_on_c, 0, 81, 0
2, 57763, Note_on_c, 0, 64, 0
2, 57763, Note_on_c, 0, 93, 0
2, 57780, Note_on_c, 0, 76, 94
2, 57780, Note_on_c, 0, 88, 94
2, 57780, Note_on_c, 0, 64, 69
2, 57943, Note_on_c, 0, 64, 0
2, 57943, Note_on_c, 0, 88, 0
2, 57943, Note_on_c, 0, 76, 0
2, 57960, Note_on_c, 0, 74, 81
2, 57960, Note_on_c, 0, 77, 80
2, 57960, Note_on_c, 0, 83, 80
2, 57960, Note_on_c, 0, 86, 82
2, 57960, Note_on_c, 0, 55, 86
2, 57960, Note_on_c, 0, 59, 84
2, 57960, Note_on_c, 0, 65, 85
2, 58123, Note_on_c, 0, 65, 0
2, 58123, Note_on_c, 0, 55, 0
2, 58123, Note_on_c, 0, 77, 0
2, 58123, Note_on_c, 0, 83, 0
2, 58123, Note_on_c, 0, 74, 0
2, 58123, Note_on_c, 0, 59, 0
2, 58123, Note_on_c, 0, 86, 0
2, 58140, Note_on_c, 0, 76, 84
2, 58140, Note_on_c, 0, 88, 85
2, 58140, Note_on_c, 0, 64, 77
2, 58303, Note_on_c, 0, 64, 0
2, 58303, Note_on_c, 0, 88, 0
2, 58303, Note_on_c, 0, 76, 0
2, 58320, Note_on_c, 0, 72, 97
2, 58320, Note_on_c, 0, 76, 97
2, 58320, Note_on_c, 0, 79, 95
2, 58320, Note_on_c, 0, 84, 95
2, 58320, Note_on_c, 0, 55, 106
2, 58320, Note_on_c, 0, 60, 106
2, 58320, Note_on_c, 0, 64, 104
2, 58645, Note_on_c, 0, 64, 0
2, 58645, Note_on_c, 0, 55, 0
2, 58645, Note_on_c, 0, 76, 0
2, 58645, Note_on_c, 0, 79, 0
2, 58645, Note_on_c, 0, 72, 0
2, 58645, Note_on_c, 0, 60, 0
2, 58645, Note_on_c, 0, 84, 0
2, 58680, Note_on_c, 0, 50, 76
2, 58680, Note_on_c, 0, 38, 76
2, 58769, Note_on_c, 0, 38, 0
2, 58769, Note_on_c, 0, 50, 0
2, 58860, Note_on_c, 0, 52, 82
2, 58860, Note_on_c, 0, 40, 82
2, 58949, Note_on_c, 0, 40, 0
2, 58949, Note_on_c, 0, 52, 0
2, 59040, Note_on_c, 0, 33, 64
2, 59040, Note_on_c, 0, 45, 62
2, 59365, Note_on_c, 0, 45, 0
2, 59365, Note_on_c, 0, 33, 0
2, 59400, Note_on_c, 0, 57, 75
2, 59400, Note_on_c, 0, 41, 88
2, 59400, Note_on_c, 0, 50, 86
2, 59563, Note_on_c, 0, 57, 0
2, 59580, Note_on_c, 0, 62, 90
2, 59725, Note_on_c, 0, 50, 0
2, 59725, Note_on_c, 0, 41, 0
2, 59743, Note_on_c, 0, 62, 0
2, 59760, Note_on_c, 0, 52, 84
2, 59760, Note_on_c, 0, 57, 88
2, 59760, Note_on_c, 0, 64, 87
2, 59760, Note_on_c, 0, 36, 73
2, 59760, Note_on_c, 0, 45, 72
2, 60085, Note_on_c, 0, 45, 0
2, 60085, Note_on_c, 0, 64, 0
2, 60085, Note_on_c, 0, 52, 0
2, 60085, Note_on_c, 0, 57, 0
2, 60085, Note_on_c, 0, 36, 0
2, 60120, Note_on_c, 0, 53, 69
2, 60120, Note_on_c, 0, 57, 69
2, 60120, Note_on_c, 0, 38, 80
2, 60120, Note_on_c, 0, 45, 79
2, 60283, Note_on_c, 0, 57, 0
2, 60283, Note_on_c, 0, 53, 0
2, 60300, Note_on_c, 0, 59, 82
2, 60445, Note_on_c, 0, 38, 0
2, 60445, Note_on_c, 0, 45, 0
2, 60463, Note_on_c, 0, 59, 0
2, 60480, Note_on_c, 0, 52, 89
2, 60480, Note_on_c, 0, 57, 88
2, 60480, Note_on_c, 0, 60, 87
2, 60480, Note_on_c, 0, 33, 84
2, 60480, Note_on_c, 0, 45, 82
2, 60643, Note_on_c, 0, 60, 0
2, 60643, Note_on_c, 0, 52, 0
2, 60643, Note_on_c, 0, 57, 0
2, 60660, Note_on_c, 0, 59, 77
2, 60805, Note_on_c, 0, 33, 0
2, 60805, Note_on_c, 0, 45, 0
2, 60823, Note_on_c, 0, 59, 0
2, 60840, Note_on_c, 0, 52, 87
2, 60840, Note_on_c, 0, 57, 86
2, 60840, Note_on_c, 0, 60, 86
2, 60840, Note_on_c, 0, 36, 85
2, 60840, Note_on_c, 0, 48, 87
2, 61003, Note_on_c, 0, 60, 0
2, 61003, Note_on_c, 0, 52, 0
2, 61003, Note_on_c, 0, 57, 0
2, 61020, Note_on_c, 0, 62, 85
2, 61165, Note_on_c, 0, 36, 0
2, 61165, Note_on_c, 0, 48, 0
2, 61183, Note_on_c, 0, 62, 0
2, 61200, Note_on_c, 0, 57, 89
2, 61200, Note_on_c, 0, 62, 90
2, 61200, Note_on_c, 0, 64, 88
2, 61200, Note_on_c, 0, 38, 85
2, 61200, Note_on_c, 0, 50, 87
2, 61363, Note_on_c, 0, 64, 0
2, 61363, Note_on_c, 0, 57, 0
2, 61363, Note_on_c, 0, 62, 0
2, 61380, Note_on_c, 0, 65, 87
2, 61525, Note_on_c, 0, 38, 0
2, 61525, Note_on_c, 0, 50, 0
2, 61543, Note_on_c, 0, 65, 0
2, 61560, Note_on_c, 0, 62, 91
2, 61560, Note_on_c, 0, 64, 94
2, 61560, Note_on_c, 0, 69, 91
2, 61560, Note_on_c, 0, 40, 86
2, 61560, Note_on_c, 0, 52, 88
2, 61723, Note_on_c, 0, 69, 0
2, 61723, Note_on_c, 0, 62, 0
2, 61723, Note_on_c, 0, 64, 0
2, 61740, Note_on_c, 0, 68, 80
2, 61885, Note_on_c, 0, 40, 0
2, 61885, Note_on_c, 0, 52, 0
2, 61903, Note_on_c, 0, 68, 0
2, 61920, Note_on_c, 0, 60, 87
2, 61920, Note_on_c, 0, 64, 88
2, 61920, Note_on_c, 0, 69, 89
2, 61920, Note_on_c, 0, 45, 84
2, 61920, Note_on_c, 0, 52, 84
2, 62245, Note_on_c, 0, 52, 0
2, 62245, Note_on_c, 0, 69, 0
2, 62245, Note_on_c, 0, 60, 0
2, 62245, Note_on_c, 0, 64, 0
2, 62245, Note_on_c, 0, 45, 0
2, 62280, Note_on_c, 0, 57, 62
2, 62280, Note_on_c, 0, 41, 78
2, 62280, Note_on_c, 0, 50, 75
2, 62443, Note_on_c, 0, 57, 0
2, 62460, Note_on_c, 0, 57, 75
2, 62605, Note_on_c, 0, 50, 0
2, 62605, Note_on_c, 0, 41, 0
2, 62623, Note_on_c, 0, 57, 0
2, 62640, Note_on_c, 0, 57, 78
2, 62640, Note_on_c, 0, 40, 76
2, 62640, Note_on_c, 0, 48, 77
2, 62965, Note_on_c, 0, 48, 0
2, 62965, Note_on_c, 0, 40, 0
2, 62965, Note_on_c, 0, 57, 0
2, 63000, Note_on_c, 0, 53, 85
2, 63000, Note_on_c, 0, 57, 84
2, 63000, Note_on_c, 0, 38, 72
2, 63000, Note_on_c, 0, 45, 73
2, 63163, Note_on_c, 0, 57, 0
2, 63163, Note_on_c, 0, 53, 0
2, 63180, Note_on_c, 0, 59, 85
2, 63325, Note_on_c, 0, 38, 0
2, 63325, Note_on_c, 0, 45, 0
2, 63343, Note_on_c, 0, 59, 0
2, 63360, Note_on_c, 0, 52, 86
2, 63360, Note_on_c, 0, 57, 87
2, 63360, Note_on_c, 0, 60, 87
2, 63360, Note_on_c, 0, 36, 83
2, 63360, Note_on_c, 0, 45, 80
2, 63523, Note_on_c, 0, 60, 0
2, 63523, Note_on_c, 0, 52, 0
2, 63523, Note_on_c, 0, 57, 0
2, 63540, Note_on_c, 0, 59, 79
2, 63685, Note_on_c, 0, 36, 0
2, 63685, Note_on_c, 0, 45, 0
2, 63703, Note_on_c, 0, 59, 0
2, 63720, Note_on_c, 0, 52, 88
2, 63720, Note_on_c, 0, 57, 87
2, 63720, Note_on_c, 0, 60, 87
2, 63720, Note_on_c, 0, 35, 87
2, 63720, Note_on_c, 0, 47, 85
2, 63883, Note_on_c, 0, 60, 0
2, 63883, Note_on_c, 0, 52, 0
2, 63883, Note_on_c, 0, 57, 0
2, 63900, Note_on_c, 0, 62, 88
2, 64045, Note_on_c, 0, 35, 0
2, 64045, Note_on_c, 0, 47, 0
2, 64063, Note_on_c, 0, 62, 0
2, 64080, Note_on_c, 0, 55, 90
2, 64080, Note_on_c, 0, 60, 90
2, 64080, Note_on_c, 0, 64, 90
2, 64080, Note_on_c, 0, 33, 75
2, 64080, Note_on_c, 0, 45, 76
2, 64243, Note_on_c, 0, 64, 0
2, 64243, Note_on_c, 0, 55, 0
2, 64243, Note_on_c, 0, 60, 0
2, 64260, Note_on_c, 0, 62, 76
2, 64405, Note_on_c, 0, 33, 0
2, 64405, Note_on_c, 0, 45, 0
2, 64423, Note_on_c, 0, 62, 0
2, 64440, Note_on_c, 0, 54, 89
2, 64440, Note_on_c, 0, 60, 86
2, 64440, Note_on_c, 0, 64, 88
2, 64440, Note_on_c, 0, 38, 91
2, 64440, Note_on_c, 0, 50, 92
2, 64603, Note_on_c, 0, 64, 0
2, 64603, Note_on_c, 0, 54, 0
2, 64603, Note_on_c, 0, 60, 0
2, 64620, Note_on_c, 0, 66, 87
2, 64765, Note_on_c, 0, 38, 0
2, 64765, Note_on_c, 0, 50, 0
2, 64783, Note_on_c, 0, 66, 0
2, 64800, Note_on_c, 0, 59, 87
2, 64800, Note_on_c, 0, 62, 86
2, 64800, Note_on_c, 0, 67, 90
2, 64800, Note_on_c, 0, 31, 72
2, 64800, Note_on_c, 0, 43, 73
2, 64963, Note_on_c, 0, 67, 0
2, 64963, Note_on_c, 0, 59, 0
2, 64963, Note_on_c, 0, 62, 0
2, 64980, Note_on_c, 0, 55, 59
2, 65125, Note_on_c, 0, 31, 0
2, 65125, Note_on_c, 0, 43, 0
2, 65143, Note_on_c, 0, 55, 0
2, 65160, Note_on_c, 0, 52, 80
2, 65160, Note_on_c, 0, 55, 80
2, 65160, Note_on_c, 0, 36, 88
2, 65160, Note_on_c, 0, 48, 90
2, 65323, Note_on_c, 0, 55, 0
2, 65323, Note_on_c, 0, 52, 0
2, 65340, Note_on_c, 0, 60, 91
2, 65485, Note_on_c, 0, 36, 0
2, 65485, Note_on_c, 0, 48, 0
2, 65503, Note_on_c, 0, 60, 0
2, 65520, Note_on_c, 0, 50, 86
2, 65520, Note_on_c, 0, 55, 86
2, 65520, Note_on_c, 0, 59, 88
2, 65520, Note_on_c, 0, 62, 88
2, 65520, Note_on_c, 0, 31, 72
2, 65520, Note_on_c, 0, 43, 71
2, 65845, Note_on_c, 0, 43, 0
2, 65845, Note_on_c, 0, 55, 0
2, 65845, Note_on_c, 0, 59, 0
2, 65845, Note_on_c, 0, 50, 0
2, 65845, Note_on_c, 0, 31, 0
2, 65845, Note_on_c, 0, 62, 0
2, 65880, Note_on_c, 0, 55, 89
2, 65880, Note_on_c, 0, 59, 90
2, 65880, Note_on_c, 0, 64, 90
2, 65880, Note_on_c, 0, 40, 94
2, 65880, Note_on_c, 0, 52, 98
2, 66043, Note_on_c, 0, 64, 0
2, 66043, Note_on_c, 0, 55, 0
2, 66043, Note_on_c, 0, 59, 0
2, 66060, Note_on_c, 0, 66, 87
2, 66205, Note_on_c, 0, 40, 0
2, 66205, Note_on_c, 0, 52, 0
2, 66223, Note_on_c, 0, 66, 0
2, 66240, Note_on_c, 0, 55, 88
2, 66240, Note_on_c, 0, 62, 89
2, 66240, Note_on_c, 0, 67, 87
2, 66240, Note_on_c, 0, 35, 78
2, 66240, Note_on_c, 0, 47, 77
2, 66403, Note_on_c, 0, 67, 0
2, 66403, Note_on_c, 0, 55, 0
2, 66403, Note_on_c, 0, 62, 0
2, 66420, Note_on_c, 0, 69, 87
2, 66565, Note_on_c, 0, 35, 0
2, 66565, Note_on_c, 0, 47, 0
2, 66583, Note_on_c, 0, 69, 0
2, 66600, Note_on_c, 0, 62, 88
2, 66600, Note_on_c, 0, 67, 89
2, 66600, Note_on_c, 0, 71, 90
2, 66600, Note_on_c, 0, 43, 95
2, 66600, Note_on_c, 0, 55, 92
2, 66763, Note_on_c, 0, 71, 0
2, 66763, Note_on_c, 0, 62, 0
2, 66763, Note_on_c, 0, 67, 0
2, 66780, Note_on_c, 0, 72, 84
2, 66925, Note_on_c, 0, 43, 0
2, 66925, Note_on_c, 0, 55, 0
2, 66943, Note_on_c, 0, 72, 0
2, 66960, Note_on_c, 0, 62, 87
2, 66960, Note_on_c, 0, 69, 91
2, 66960, Note_on_c, 0, 74, 90
2, 66960, Note_on_c, 0, 42, 77
2, 66960, Note_on_c, 0, 54, 78
2, 67123, Note_on_c, 0, 74, 0
2, 67123, Note_on_c, 0, 62, 0
2, 67123, Note_on_c, 0, 69, 0
2, 67140, Note_on_c, 0, 76, 85
2, 67285, Note_on_c, 0, 42, 0
2, 67285, Note_on_c, 0, 54, 0
2, 67303, Note_on_c, 0, 76, 0
2, 67320, Note_on_c, 0, 66, 90
2, 67320, Note_on_c, 0, 72, 88
2, 67320, Note_on_c, 0, 78, 88
2, 67320, Note_on_c, 0, 38, 71
2, 67320, Note_on_c, 0, 50, 72
2, 67483, Note_on_c, 0, 78, 0
2, 67483, Note_on_c, 0, 66, 0
2, 67483, Note_on_c, 0, 72, 0
2, 67500, Note_on_c, 0, 74, 73
2, 67645, Note_on_c, 0, 38, 0
2, 67645, Note_on_c, 0, 50, 0
2, 67663, Note_on_c, 0, 74, 0
2, 67680, Note_on_c, 0, 67, 91
2, 67680, Note_on_c, 0, 71, 91
2, 67680, Note_on_c, 0, 79, 91
2, 67680, Note_on_c, 0, 43, 98
2, 67680, Note_on_c, 0, 50, 100
2, 67680, Note_on_c, 0, 59, 99
2, 68005, Note_on_c, 0, 59, 0
2, 68005, Note_on_c, 0, 71, 0
2, 68005, Note_on_c, 0, 79, 0
2, 68005, Note_on_c, 0, 67, 0
2, 68005, Note_on_c, 0, 50, 0
2, 68005, Note_on_c, 0, 43, 0
2, 68040, Note_on_c, 0, 71, 78
2, 68040, Note_on_c, 0, 76, 78
2, 68040, Note_on_c, 0, 64, 102
2, 68040, Note_on_c, 0, 67, 101
2, 68129, Note_on_c, 0, 67, 0
2, 68129, Note_on_c, 0, 71, 0
2, 68129, Note_on_c, 0, 76, 0
2, 68129, Note_on_c, 0, 64, 0
2, 68220, Note_on_c, 0, 71, 79
2, 68220, Note_on_c, 0, 76, 80
2, 68220, Note_on_c, 0, 64, 84
2, 68220, Note_on_c, 0, 67, 83
2, 68309, Note_on_c, 0, 67, 0
2, 68309, Note_on_c, 0, 71, 0
2, 68309, Note_on_c, 0, 76, 0
2, 68309, Note_on_c, 0, 64, 0
2, 68400, Note_on_c, 0, 71, 93
2, 68400, Note_on_c, 0, 79, 94
2, 68400, Note_on_c, 0, 55, 87
2, 68400, Note_on_c, 0, 62, 89
2, 68400, Note_on_c, 0, 67, 87
2, 68760, Note_on_c, 0, 67, 0
2, 68760, Note_on_c, 0, 55, 0
2, 68760, Note_on_c, 0, 71, 0
2, 68760, Note_on_c, 0, 79, 0
2, 68760, Note_on_c, 0, 62, 0
2, 68760, Note_on_c, 0, 69, 73
2, 68760, Note_on_c, 0, 74, 74
2, 68760, Note_on_c, 0, 62, 80
2, 68760, Note_on_c, 0, 66, 81
2, 68849, Note_on_c, 0, 66, 0
2, 68849, Note_on_c, 0, 69, 0
2, 68849, Note_on_c, 0, 74, 0
2, 68849, Note_on_c, 0, 62, 0
2, 68940, Note_on_c, 0, 69, 80
2, 68940, Note_on_c, 0, 74, 80
2, 68940, Note_on_c, 0, 62, 80
2, 68940, Note_on_c, 0, 66, 80
2, 69029, Note_on_c, 0, 66, 0
2, 69029, Note_on_c, 0, 69, 0
2, 69029, Note_on_c, 0, 74, 0
2, 69029, Note_on_c, 0, 62, 0
2, 69120, Note_on_c, 0, 71, 101
2, 69120, Note_on_c, 0, 79, 98
2, 69120, Note_on_c, 0, 55, 91
2, 69120, Note_on_c, 0, 62, 92
2, 69120, Note_on_c, 0, 67, 93
2, 69480, Note_on_c, 0, 67, 0
2, 69480, Note_on_c, 0, 55, 0
2, 69480, Note_on_c, 0, 71, 0
2, 69480, Note_on_c, 0, 79, 0
2, 69480, Note_on_c, 0, 62, 0
2, 69480, Note_on_c, 0, 67, 73
2, 69480, Note_on_c, 0, 72, 74
2, 69480, Note_on_c, 0, 60, 78
2, 69480, Note_on_c, 0, 64, 78
2, 69569, Note_on_c, 0, 64, 0
2, 69569, Note_on_c, 0, 67, 0
2, 69569, Note_on_c, 0, 72, 0
2, 69569, Note_on_c, 0, 60, 0
2, 69660, Note_on_c, 0, 67, 80
2, 69660, Note_on_c, 0, 72, 78
2, 69660, Note_on_c, 0, 60, 82
2, 69660, Note_on_c, 0, 64, 80
2, 69749, Note_on_c, 0, 64, 0
2, 69749, Note_on_c, 0, 67, 0
2, 69749, Note_on_c, 0, 72, 0
2, 69749, Note_on_c, 0, 60, 0
2, 69840, Note_on_c, 0, 68, 93
2, 69840, Note_on_c, 0, 72, 94
2, 69840, Note_on_c, 0, 76, 96
2, 69840, Note_on_c, 0, 52, 75
2, 69840, Note_on_c, 0, 62, 75
2, 70165, Note_on_c, 0, 62, 0
2, 70165, Note_on_c, 0, 52, 0
2, 70200, Note_on_c, 0, 68, 0
2, 70200, Note_on_c, 0, 72, 0
2, 70200, Note_on_c, 0, 76, 0
2, 70200, Note_on_c, 0, 62, 63
2, 70200, Note_on_c, 0, 64, 66
2, 70200, Note_on_c, 0, 52, 73
2, 70200, Note_on_c, 0, 56, 72
2, 70289, Note_on_c, 0, 56, 0
2, 70289, Note_on_c, 0, 62, 0
2, 70289, Note_on_c, 0, 64, 0
2, 70289, Note_on_c, 0, 52, 0
2, 70380, Note_on_c, 0, 62, 75
2, 70380, Note_on_c, 0, 64, 77
2, 70380, Note_on_c, 0, 52, 78
2, 70380, Note_on_c, 0, 56, 79
2, 70469, Note_on_c, 0, 56, 0
2, 70469, Note_on_c, 0, 62, 0
2, 70469, Note_on_c, 0, 64, 0
2, 70469, Note_on_c, 0, 52, 0
2, 70560, Note_on_c, 0, 60, 94
2, 70560, Note_on_c, 0, 69, 94
2, 70560, Note_on_c, 0, 45, 88
2, 70560, Note_on_c, 0, 52, 87
2, 70560, Note_on_c, 0, 57, 86
2, 70737, Note_on_c, 0, 57, 0
2, 70737, Note_on_c, 0, 45, 0
2, 70737, Note_on_c, 0, 60, 0
2, 70737, Note_on_c, 0, 69, 0
2, 70737, Note_on_c, 0, 52, 0
2, 70920, Note_on_c, 0, 62, 83
2, 70920, Note_on_c, 0, 69, 84
2, 70920, Note_on_c, 0, 53, 82
2, 70920, Note_on_c, 0, 57, 82
2, 71083, Note_on_c, 0, 57, 0
2, 71083, Note_on_c, 0, 62, 0
2, 71083, Note_on_c, 0, 69, 0
2, 71083, Note_on_c, 0, 53, 0
2, 71100, Note_on_c, 0, 72, 86
2, 71100, Note_on_c, 0, 62, 92
2, 71263, Note_on_c, 0, 62, 0
2, 71263, Note_on_c, 0, 72, 0
2, 71280, Note_on_c, 0, 69, 90
2, 71280, Note_on_c, 0, 76, 91
2, 71280, Note_on_c, 0, 52, 85
2, 71280, Note_on_c, 0, 57, 86
2, 71280, Note_on_c, 0, 64, 87
2, 71605, Note_on_c, 0, 64, 0
2, 71605, Note_on_c, 0, 52, 0
2, 71605, Note_on_c, 0, 69, 0
2, 71605, Note_on_c, 0, 76, 0
2, 71605, Note_on_c, 0, 57, 0
2, 71640, Note_on_c, 0, 65, 73
2, 71640, Note_on_c, 0, 69, 73
2, 71640, Note_on_c, 0, 53, 69
2, 71640, Note_on_c, 0, 57, 69
2, 71803, Note_on_c, 0, 57, 0
2, 71803, Note_on_c, 0, 65, 0
2, 71803, Note_on_c, 0, 69, 0
2, 71803, Note_on_c, 0, 53, 0
2, 71820, Note_on_c, 0, 71, 84
2, 71820, Note_on_c, 0, 59, 84
2, 71983, Note_on_c, 0, 59, 0
2, 71983, Note_on_c, 0, 71, 0
2, 72000, Note_on_c, 0, 64, 86
2, 72000, Note_on_c, 0, 69, 86
2, 72000, Note_on_c, 0, 72, 86
2, 72000, Note_on_c, 0, 52, 89
2, 72000, Note_on_c, 0, 57, 86
2, 72000, Note_on_c, 0, 60, 85
2, 72163, Note_on_c, 0, 60, 0
2, 72163, Note_on_c, 0, 69, 0
2, 72163, Note_on_c, 0, 72, 0
2, 72163, Note_on_c, 0, 64, 0
2, 72163, Note_on_c, 0, 57, 0
2, 72163, Note_on_c, 0, 52, 0
2, 72180, Note_on_c, 0, 71, 79
2, 72180, Note_on_c, 0, 59, 78
2, 72343, Note_on_c, 0, 59, 0
2, 72343, Note_on_c, 0, 71, 0
2, 72360, Note_on_c, 0, 64, 80
2, 72360, Note_on_c, 0, 69, 79
2, 72360, Note_on_c, 0, 52, 81
2, 72360, Note_on_c, 0, 57, 81
2, 72523, Note_on_c, 0, 57, 0
2, 72523, Note_on_c, 0, 64, 0
2, 72523, Note_on_c, 0, 69, 0
2, 72523, Note_on_c, 0, 52, 0
2, 72540, Note_on_c, 0, 71, 84
2, 72540, Note_on_c, 0, 59, 86
2, 72703, Note_on_c, 0, 59, 0
2, 72703, Note_on_c, 0, 71, 0
2, 72720, Note_on_c, 0, 65, 78
2, 72720, Note_on_c, 0, 69, 78
2, 72720, Note_on_c, 0, 53, 78
2, 72720, Note_on_c, 0, 57, 80
2, 72883, Note_on_c, 0, 57, 0
2, 72883, Note_on_c, 0, 65, 0
2, 72883, Note_on_c, 0, 69, 0
2, 72883, Note_on_c, 0, 53, 0
2, 72900, Note_on_c, 0, 68, 77
2, 72900, Note_on_c, 0, 56, 74
2, 73063, Note_on_c, 0, 56, 0
2, 73063, Note_on_c, 0, 68, 0
2, 73080, Note_on_c, 0, 62, 78
2, 73080, Note_on_c, 0, 66, 80
2, 73080, Note_on_c, 0, 52, 78
2, 73080, Note_on_c, 0, 54, 80
2, 73243, Note_on_c, 0, 54, 0
2, 73243, Note_on_c, 0, 62, 0
2, 73243, Note_on_c, 0, 66, 0
2, 73243, Note_on_c, 0, 52, 0
2, 73260, Note_on_c, 0, 68, 86
2, 73260, Note_on_c, 0, 56, 84
2, 73423, Note_on_c, 0, 56, 0
2, 73423, Note_on_c, 0, 68, 0
2, 73440, Note_on_c, 0, 60, 89
2, 73440, Note_on_c, 0, 69, 89
2, 73440, Note_on_c, 0, 45, 87
2, 73440, Note_on_c, 0, 52, 88
2, 73440, Note_on_c, 0, 57, 87
2, 73617, Note_on_c, 0, 57, 0
2, 73617, Note_on_c, 0, 45, 0
2, 73617, Note_on_c, 0, 60, 0
2, 73617, Note_on_c, 0, 69, 0
2, 73617, Note_on_c, 0, 52, 0
2, 73800, Note_on_c, 0, 69, 104
2, 73800, Note_on_c, 0, 77, 105
2, 73800, Note_on_c, 0, 81, 105
2, 73800, Note_on_c, 0, 53, 97
2, 73800, Note_on_c, 0, 57, 97
2, 73800, Note_on_c, 0, 65, 99
2, 73963, Note_on_c, 0, 65, 0
2, 73963, Note_on_c, 0, 77, 0
2, 73963, Note_on_c, 0, 81, 0
2, 73963, Note_on_c, 0, 69, 0
2, 73963, Note_on_c, 0, 57, 0
2, 73963, Note_on_c, 0, 53, 0
2, 73980, Note_on_c, 0, 69, 86
2, 73980, Note_on_c, 0, 81, 86
2, 73980, Note_on_c, 0, 57, 68
2, 74143, Note_on_c, 0, 57, 0
2, 74143, Note_on_c, 0, 81, 0
2, 74143, Note_on_c, 0, 69, 0
2, 74160, Note_on_c, 0, 69, 80
2, 74160, Note_on_c, 0, 76, 81
2, 74160, Note_on_c, 0, 81, 81
2, 74160, Note_on_c, 0, 52, 90
2, 74160, Note_on_c, 0, 57, 92
2, 74160, Note_on_c, 0, 64, 93
2, 74485, Note_on_c, 0, 64, 0
2, 74485, Note_on_c, 0, 76, 0
2, 74485, Note_on_c, 0, 81, 0
2, 74485, Note_on_c, 0, 69, 0
2, 74485, Note_on_c, 0, 57, 0
2, 74485, Note_on_c, 0, 52, 0
2, 74520, Note_on_c, 0, 62, 63
2, 74520, Note_on_c, 0, 65, 62
2, 74520, Note_on_c, 0, 69, 63
2, 74520, Note_on_c, 0, 50, 72
2, 74520, Note_on_c, 0, 53, 73
2, 74520, Note_on_c, 0, 57, 72
2, 74683, Note_on_c, 0, 57, 0
2, 74683, Note_on_c, 0, 65, 0
2, 74683, Note_on_c, 0, 69, 0
2, 74683, Note_on_c, 0, 62, 0
2, 74683, Note_on_c, 0, 53, 0
2, 74683, Note_on_c, 0, 50, 0
2, 74700, Note_on_c, 0, 71, 80
2, 74700, Note_on_c, 0, 59, 83
2, 74863, Note_on_c, 0, 59, 0
2, 74863, Note_on_c, 0, 71, 0
2, 74880, Note_on_c, 0, 64, 86
2, 74880, Note_on_c, 0, 69, 88
2, 74880, Note_on_c, 0, 72, 87
2, 74880, Note_on_c, 0, 52, 88
2, 74880, Note_on_c, 0, 57, 85
2, 74880, Note_on_c, 0, 60, 88
2, 75043, Note_on_c, 0, 60, 0
2, 75043, Note_on_c, 0, 69, 0
2, 75043, Note_on_c, 0, 72, 0
2, 75043, Note_on_c, 0, 64, 0
2, 75043, Note_on_c, 0, 57, 0
2, 75043, Note_on_c, 0, 52, 0
2, 75060, Note_on_c, 0, 71, 77
2, 75060, Note_on_c, 0, 59, 78
2, 75223, Note_on_c, 0, 59, 0
2, 75223, Note_on_c, 0, 71, 0
2, 75240, Note_on_c, 0, 64, 85
2, 75240, Note_on_c, 0, 69, 87
2, 75240, Note_on_c, 0, 72, 85
2, 75240, Note_on_c, 0, 52, 86
2, 75240, Note_on_c, 0, 57, 89
2, 75240, Note_on_c, 0, 60, 87
2, 75403, Note_on_c, 0, 60, 0
2, 75403, Note_on_c, 0, 69, 0
2, 75403, Note_on_c, 0, 72, 0
2, 75403, Note_on_c, 0, 64, 0
2, 75403, Note_on_c, 0, 57, 0
2, 75403, Note_on_c, 0, 52, 0
2, 75420, Note_on_c, 0, 74, 86
2, 75420, Note_on_c, 0, 62, 84
2, 75583, Note_on_c, 0, 62, 0
2, 75583, Note_on_c, 0, 74, 0
2, 75600, Note_on_c, 0, 69, 88
2, 75600, Note_on_c, 0, 71, 86
2, 75600, Note_on_c, 0, 75, 88
2, 75600, Note_on_c, 0, 57, 89
2, 75600, Note_on_c, 0, 59, 89
2, 75600, Note_on_c, 0, 63, 87
2, 75763, Note_on_c, 0, 63, 0
2, 75763, Note_on_c, 0, 71, 0
2, 75763, Note_on_c, 0, 75, 0
2, 75763, Note_on_c, 0, 69, 0
2, 75763, Note_on_c, 0, 59, 0
2, 75763, Note_on_c, 0, 57, 0
2, 75780, Note_on_c, 0, 71, 72
2, 75780, Note_on_c, 0, 59, 71
2, 75943, Note_on_c, 0, 59, 0
2, 75943, Note_on_c, 0, 71, 0
2, 75960, Note_on_c, 0, 66, 87
2, 75960, Note_on_c, 0, 69, 89
2, 75960, Note_on_c, 0, 73, 86
2, 75960, Note_on_c, 0, 57, 86
2, 75960, Note_on_c, 0, 61, 89
2, 76123, Note_on_c, 0, 61, 0
2, 76123, Note_on_c, 0, 73, 0
2, 76123, Note_on_c, 0, 66, 0
2, 76123, Note_on_c, 0, 69, 0
2, 76123, Note_on_c, 0, 57, 0
2, 76140, Note_on_c, 0, 75, 87
2, 76140, Note_on_c, 0, 63, 85
2, 76303, Note_on_c, 0, 63, 0
2, 76303, Note_on_c, 0, 75, 0
2, 76320, Note_on_c, 0, 67, 87
2, 76320, Note_on_c, 0, 71, 89
2, 76320, Note_on_c, 0, 76, 89
2, 76320, Note_on_c, 0, 55, 86
2, 76320, Note_on_c, 0, 59, 87
2, 76320, Note_on_c, 0, 64, 86
2, 76483, Note_on_c, 0, 64, 0
2, 76483, Note_on_c, 0, 71, 0
2, 76483, Note_on_c, 0, 76, 0
2, 76483, Note_on_c, 0, 67, 0
2, 76483, Note_on_c, 0, 59, 0
2, 76483, Note_on_c, 0, 55, 0
2, 76500, Note_on_c, 0, 76, 83
2, 76500, Note_on_c, 0, 64, 83
2, 76663, Note_on_c, 0, 64, 0
2, 76663, Note_on_c, 0, 76, 0
2, 76680, Note_on_c, 0, 69, 83
2, 76680, Note_on_c, 0, 72, 85
2, 76680, Note_on_c, 0, 76, 85
2, 76680, Note_on_c, 0, 57, 83
2, 76680, Note_on_c, 0, 60, 83
2, 76680, Note_on_c, 0, 64, 85
2, 76843, Note_on_c, 0, 64, 0
2, 76843, Note_on_c, 0, 72, 0
2, 76843, Note_on_c, 0, 76, 0
2, 76843, Note_on_c, 0, 69, 0
2, 76843, Note_on_c, 0, 60, 0
2, 76843, Note_on_c, 0, 57, 0
2, 76860, Note_on_c, 0, 81, 92
2, 76860, Note_on_c, 0, 69, 89
2, 77023, Note_on_c, 0, 69, 0
2, 77023, Note_on_c, 0, 81, 0
2, 77040, Note_on_c, 0, 71, 88
2, 77040, Note_on_c, 0, 76, 87
2, 77040, Note_on_c, 0, 83, 86
2, 77040, Note_on_c, 0, 59, 79
2, 77040, Note_on_c, 0, 64, 78
2, 77040, Note_on_c, 0, 67, 78
2, 77365, Note_on_c, 0, 67, 0
2, 77365, Note_on_c, 0, 76, 0
2, 77365, Note_on_c, 0, 83, 0
2, 77365, Note_on_c, 0, 71, 0
2, 77365, Note_on_c, 0, 64, 0
2, 77365, Note_on_c, 0, 59, 0
2, 77400, Note_on_c, 0, 67, 64
2, 77400, Note_on_c, 0, 72, 64
2, 77400, Note_on_c, 0, 52, 69
2, 77400, Note_on_c, 0, 55, 71
2, 77400, Note_on_c, 0, 60, 69
2, 77563, Note_on_c, 0, 60, 0
2, 77563, Note_on_c, 0, 52, 0
2, 77563, Note_on_c, 0, 67, 0
2, 77563, Note_on_c, 0, 72, 0
2, 77563, Note_on_c, 0, 55, 0
2, 77580, Note_on_c, 0, 74, 82
2, 77580, Note_on_c, 0, 62, 85
2, 77743, Note_on_c, 0, 62, 0
2, 77743, Note_on_c, 0, 74, 0
2, 77760, Note_on_c, 0, 71, 87
2, 77760, Note_on_c, 0, 76, 87
2, 77760, Note_on_c, 0, 55, 87
2, 77760, Note_on_c, 0, 59, 86
2, 77760, Note_on_c, 0, 64, 89
2, 77923, Note_on_c, 0, 64, 0
2, 77923, Note_on_c, 0, 55, 0
2, 77923, Note_on_c, 0, 71, 0
2, 77923, Note_on_c, 0, 76, 0
2, 77923, Note_on_c, 0, 59, 0
2, 77940, Note_on_c, 0, 78, 87
2, 77940, Note_on_c, 0, 66, 85
2, 78103, Note_on_c, 0, 66, 0
2, 78103, Note_on_c, 0, 78, 0
2, 78120, Note_on_c, 0, 71, 86
2, 78120, Note_on_c, 0, 76, 88
2, 78120, Note_on_c, 0, 79, 88
2, 78120, Note_on_c, 0, 59, 90
2, 78120, Note_on_c, 0, 64, 90
2, 78120, Note_on_c, 0, 67, 89
2, 78283, Note_on_c, 0, 67, 0
2, 78283, Note_on_c, 0, 76, 0
2, 78283, Note_on_c, 0, 79, 0
2, 78283, Note_on_c, 0, 71, 0
2, 78283, Note_on_c, 0, 64, 0
2, 78283, Note_on_c, 0, 59, 0
2, 78300, Note_on_c, 0, 81, 88
2, 78300, Note_on_c, 0, 69, 84
2, 78463, Note_on_c, 0, 69, 0
2, 78463, Note_on_c, 0, 81, 0
2, 78480, Note_on_c, 0, 75, 88
2, 78480, Note_on_c, 0, 81, 88
2, 78480, Note_on_c, 0, 83, 89
2, 78480, Note_on_c, 0, 63, 88
2, 78480, Note_on_c, 0, 69, 87
2, 78480, Note_on_c, 0, 71, 89
2, 78643, Note_on_c, 0, 71, 0
2, 78643, Note_on_c, 0, 81, 0
2, 78643, Note_on_c, 0, 83, 0
2, 78643, Note_on_c, 0, 75, 0
2, 78643, Note_on_c, 0, 69, 0
2, 78643, Note_on_c, 0, 63, 0
2, 78660, Note_on_c, 0, 85, 84
2, 78660, Note_on_c, 0, 73, 87
2, 78823, Note_on_c, 0, 73, 0
2, 78823, Note_on_c, 0, 85, 0
2, 78840, Note_on_c, 0, 75, 89
2, 78840, Note_on_c, 0, 81, 90
2, 78840, Note_on_c, 0, 87, 89
2, 78840, Note_on_c, 0, 59, 80
2, 78840, Note_on_c, 0, 63, 77
2, 78840, Note_on_c, 0, 71, 78
2, 79003, Note_on_c, 0, 71, 0
2, 79003, Note_on_c, 0, 81, 0
2, 79003, Note_on_c, 0, 87, 0
2, 79003, Note_on_c, 0, 75, 0
2, 79003, Note_on_c, 0, 63, 0
2, 79003, Note_on_c, 0, 59, 0
2, 79020, Note_on_c, 0, 83, 75
2, 79020, Note_on_c, 0, 71, 81
2, 79183, Note_on_c, 0, 71, 0
2, 79183, Note_on_c, 0, 83, 0
2, 79200, Note_on_c, 0, 76, 99
2, 79200, Note_on_c, 0, 79, 100
2, 79200, Note_on_c, 0, 88, 100
2, 79200, Note_on_c, 0, 59, 81
2, 79200, Note_on_c, 0, 64, 82
2, 79200, Note_on_c, 0, 67, 81
2, 79560, Note_on_c, 0, 67, 0
2, 79560, Note_on_c, 0, 79, 0
2, 79560, Note_on_c, 0, 88, 0
2, 79560, Note_on_c, 0, 76, 0
2, 79560, Note_on_c, 0, 64, 0
2, 79560, Note_on_c, 0, 59, 0
2, 79560, Note_on_c, 0, 72, 76
2, 79560, Note_on_c, 0, 76, 75
2, 79560, Note_on_c, 0, 84, 78
2, 79560, Note_on_c, 0, 55, 75
2, 79560, Note_on_c, 0, 60, 75
2, 79560, Note_on_c, 0, 64, 74
2, 79649, Note_on_c, 0, 64, 0
2, 79649, Note_on_c, 0, 76, 0
2, 79649, Note_on_c, 0, 84, 0
2, 79649, Note_on_c, 0, 72, 0
2, 79649, Note_on_c, 0, 60, 0
2, 79649, Note_on_c, 0, 55, 0
2, 79740, Note_on_c, 0, 72, 81
2, 79740, Note_on_c, 0, 76, 80
2, 79740, Note_on_c, 0, 84, 80
2, 79740, Note_on_c, 0, 55, 77
2, 79740, Note_on_c, 0, 60, 78
2, 79740, Note_on_c, 0, 64, 78
2, 79829, Note_on_c, 0, 64, 0
2, 79829, Note_on_c, 0, 76, 0
2, 79829, Note_on_c, 0, 84, 0
2, 79829, Note_on_c, 0, 72, 0
2, 79829, Note_on_c, 0, 60, 0
2, 79829, Note_on_c, 0, 55, 0
2, 79920, Note_on_c, 0, 76, 97
2, 79920, Note_on_c, 0, 79, 95
2, 79920, Note_on_c, 0, 88, 94
2, 79920, Note_on_c, 0, 59, 95
2, 79920, Note_on_c, 0, 64, 94
2, 79920, Note_on_c, 0, 67, 95
2, 80280, Note_on_c, 0, 67, 0
2, 80280, Note_on_c, 0, 79, 0
2, 80280, Note_on_c, 0, 88, 0
2, 80280, Note_on_c, 0, 76, 0
2, 80280, Note_on_c, 0, 64, 0
2, 80280, Note_on_c, 0, 59, 0
2, 80280, Note_on_c, 0, 71, 76
2, 80280, Note_on_c, 0, 75, 77
2, 80280, Note_on_c, 0, 81, 76
2, 80280, Note_on_c, 0, 83, 75
2, 80280, Note_on_c, 0, 59, 76
2, 80280, Note_on_c, 0, 63, 75
2, 80369, Note_on_c, 0, 63, 0
2, 80369, Note_on_c, 0, 75, 0
2, 80369, Note_on_c, 0, 81, 0
2, 80369, Note_on_c, 0, 71, 0
2, 80369, Note_on_c, 0, 59, 0
2, 80369, Note_on_c, 0, 83, 0
2, 80460, Note_on_c, 0, 71, 78
2, 80460, Note_on_c, 0, 75, 79
2, 80460, Note_on_c, 0, 81, 78
2, 80460, Note_on_c, 0, 83, 79
2, 80460, Note_on_c, 0, 59, 78
2, 80460, Note_on_c, 0, 63, 78
2, 80549, Note_on_c, 0, 63, 0
2, 80549, Note_on_c, 0, 75, 0
2, 80549, Note_on_c, 0, 81, 0
2, 80549, Note_on_c, 0, 71, 0
2, 80549, Note_on_c, 0, 59, 0
2, 80549, Note_on_c, 0, 83, 0
2, 80640, Note_on_c, 0, 76, 100
2, 80640, Note_on_c, 0, 79, 101
2, 80640, Note_on_c, 0, 88, 99
2, 80640, Note_on_c, 0, 55, 98
2, 80640, Note_on_c, 0, 59, 97
2, 80640, Note_on_c, 0, 64, 99
2, 80640, Note_on_c, 0, 67, 100
2, 81000, Note_on_c, 0, 67, 0
2, 81000, Note_on_c, 0, 59, 0
2, 81000, Note_on_c, 0, 79, 0
2, 81000, Note_on_c, 0, 88, 0
2, 81000, Note_on_c, 0, 76, 0
2, 81000, Note_on_c, 0, 64, 0
2, 81000, Note_on_c, 0, 55, 0
2, 81000, Note_on_c, 0, 71, 68
2, 81000, Note_on_c, 0, 76, 68
2, 81000, Note_on_c, 0, 79, 68
2, 81000, Note_on_c, 0, 59, 86
2, 81000, Note_on_c, 0, 64, 85
2, 81000, Note_on_c, 0, 67, 85
2, 81163, Note_on_c, 0, 67, 0
2, 81163, Note_on_c, 0, 76, 0
2, 81163, Note_on_c, 0, 79, 0
2, 81163, Note_on_c, 0, 71, 0
2, 81163, Note_on_c, 0, 64, 0
2, 81163, Note_on_c, 0, 59, 0
2, 81180, Note_on_c, 0, 81, 84
2, 81180, Note_on_c, 0, 69, 85
2, 81343, Note_on_c, 0, 69, 0
2, 81343, Note_on_c, 0, 81, 0
2, 81360, Note_on_c, 0, 79, 88
2, 81360, Note_on_c, 0, 83, 88
2, 81360, Note_on_c, 0, 67, 87
2, 81360, Note_on_c, 0, 71, 89
2, 81523, Note_on_c, 0, 71, 0
2, 81523, Note_on_c, 0, 79, 0
2, 81523, Note_on_c, 0, 83, 0
2, 81523, Note_on_c, 0, 67, 0
2, 81540, Note_on_c, 0, 85, 87
2, 81540, Note_on_c, 0, 73, 85
2, 81703, Note_on_c, 0, 73, 0
2, 81703, Note_on_c, 0, 85, 0
2, 81720, Note_on_c, 0, 83, 87
2, 81720, Note_on_c, 0, 87, 88
2, 81720, Note_on_c, 0, 71, 89
2, 81720, Note_on_c, 0, 75, 90
2, 81883, Note_on_c, 0, 75, 0
2, 81883, Note_on_c, 0, 83, 0
2, 81883, Note_on_c, 0, 87, 0
2, 81883, Note_on_c, 0, 71, 0
2, 81900, Note_on_c, 0, 88, 85
2, 81900, Note_on_c, 0, 76, 83
2, 82063, Note_on_c, 0, 76, 0
2, 82063, Note_on_c, 0, 88, 0
2, 82080, Note_on_c, 0, 77, 87
2, 82080, Note_on_c, 0, 81, 86
2, 82080, Note_on_c, 0, 89, 87
2, 82080, Note_on_c, 0, 65, 72
2, 82080, Note_on_c, 0, 69, 69
2, 82405, Note_on_c, 0, 69, 0
2, 82405, Note_on_c, 0, 89, 0
2, 82405, Note_on_c, 0, 77, 0
2, 82405, Note_on_c, 0, 81, 0
2, 82405, Note_on_c, 0, 65, 0
2, 82440, Note_on_c, 0, 65, 73
2, 82529, Note_on_c, 0, 65, 0
2, 82620, Note_on_c, 0, 64, 75
2, 82709, Note_on_c, 0, 64, 0
2, 82800, Note_on_c, 0, 65, 75
2, 82800, Note_on_c, 0, 69, 72
2, 82800, Note_on_c, 0, 77, 72
2, 82800, Note_on_c, 0, 62, 77
2, 82889, Note_on_c, 0, 62, 0
2, 82980, Note_on_c, 0, 60, 75
2, 83069, Note_on_c, 0, 60, 0
2, 83160, Note_on_c, 0, 62, 88
2, 83249, Note_on_c, 0, 62, 0
2, 83340, Note_on_c, 0, 64, 86
2, 83429, Note_on_c, 0, 64, 0
2, 83450, Note_on_c, 0, 77, 0
2, 83450, Note_on_c, 0, 69, 0
2, 83450, Note_on_c, 0, 65, 0
2, 83520, Note_on_c, 0, 67, 92
2, 83520, Note_on_c, 0, 74, 92
2, 83520, Note_on_c, 0, 79, 94
2, 83520, Note_on_c, 0, 55, 80
2, 83520, Note_on_c, 0, 62, 79
2, 83609, Note_on_c, 0, 62, 0
2, 83609, Note_on_c, 0, 55, 0
2, 83700, Note_on_c, 0, 64, 87
2, 83789, Note_on_c, 0, 64, 0
2, 83880, Note_on_c, 0, 62, 77
2, 83969, Note_on_c, 0, 62, 0
2, 84060, Note_on_c, 0, 59, 75
2, 84149, Note_on_c, 0, 59, 0
2, 84240, Note_on_c, 0, 57, 78
2, 84329, Note_on_c, 0, 57, 0
2, 84420, Note_on_c, 0, 60, 87
2, 84509, Note_on_c, 0, 60, 0
2, 84600, Note_on_c, 0, 59, 83
2, 84689, Note_on_c, 0, 59, 0
2, 84780, Note_on_c, 0, 57, 75
2, 84869, Note_on_c, 0, 57, 0
2, 84960, Note_on_c, 0, 74, 0
2, 84960, Note_on_c, 0, 76, 83
2, 84960, Note_on_c, 0, 55, 96
2, 84960, Note_on_c, 0, 59, 96
2, 84960, Note_on_c, 0, 64, 96
2, 85137, Note_on_c, 0, 64, 0
2, 85137, Note_on_c, 0, 55, 0
2, 85137, Note_on_c, 0, 59, 0
2, 85320, Note_on_c, 0, 67, 92
2, 85409, Note_on_c, 0, 67, 0
2, 85500, Note_on_c, 0, 65, 78
2, 85589, Note_on_c, 0, 65, 0
2, 85610, Note_on_c, 0, 67, 0
2, 85610, Note_on_c, 0, 76, 0
2, 85610, Note_on_c, 0, 79, 0
2, 85680, Note_on_c, 0, 69, 93
2, 85680, Note_on_c, 0, 81, 92
2, 85680, Note_on_c, 0, 64, 77
2, 85769, Note_on_c, 0, 64, 0
2, 85860, Note_on_c, 0, 65, 85
2, 85949, Note_on_c, 0, 65, 0
2, 86040, Note_on_c, 0, 81, 0
2, 86040, Note_on_c, 0, 69, 0
2, 86040, Note_on_c, 0, 70, 92
2, 86040, Note_on_c, 0, 82, 93
2, 86040, Note_on_c, 0, 67, 88
2, 86129, Note_on_c, 0, 67, 0
2, 86220, Note_on_c, 0, 65, 78
2, 86309, Note_on_c, 0, 65, 0
2, 86400, Note_on_c, 0, 82, 0
2, 86400, Note_on_c, 0, 70, 0
2, 86400, Note_on_c, 0, 69, 86
2, 86400, Note_on_c, 0, 76, 87
2, 86400, Note_on_c, 0, 81, 87
2, 86400, Note_on_c, 0, 57, 80
2, 86400, Note_on_c, 0, 64, 78
2, 86489, Note_on_c, 0, 64, 0
2, 86489, Note_on_c, 0, 57, 0
2, 86580, Note_on_c, 0, 65, 82
2, 86669, Note_on_c, 0, 65, 0
2, 86760, Note_on_c, 0, 64, 79
2, 86849, Note_on_c, 0, 64, 0
2, 86940, Note_on_c, 0, 61, 73
2, 87029, Note_on_c, 0, 61, 0
2, 87120, Note_on_c, 0, 59, 78
2, 87209, Note_on_c, 0, 59, 0
2, 87300, Note_on_c, 0, 62, 85
2, 87389, Note_on_c, 0, 62, 0
2, 87480, Note_on_c, 0, 61, 80
2, 87569, Note_on_c, 0, 61, 0
2, 87660, Note_on_c, 0, 57, 71
2, 87749, Note_on_c, 0, 57, 0
2, 87840, Note_on_c, 0, 76, 0
2, 87840, Note_on_c, 0, 72, 84
2, 87840, Note_on_c, 0, 57, 88
2, 87840, Note_on_c, 0, 60, 89
2, 88017, Note_on_c, 0, 60, 0
2, 88017, Note_on_c, 0, 57, 0
2, 88200, Note_on_c, 0, 69, 99
2, 88289, Note_on_c, 0, 69, 0
2, 88380, Note_on_c, 0, 67, 78
2, 88469, Note_on_c, 0, 67, 0
2, 88560, Note_on_c, 0, 67, 82
2, 88649, Note_on_c, 0, 67, 0
2, 88740, Note_on_c, 0, 65, 74
2, 88829, Note_on_c, 0, 65, 0
2, 88850, Note_on_c, 0, 69, 0
2, 88850, Note_on_c, 0, 72, 0
2, 88850, Note_on_c, 0, 81, 0
2, 88920, Note_on_c, 0, 69, 82
2, 88920, Note_on_c, 0, 81, 80
2, 88920, Note_on_c, 0, 65, 84
2, 89009, Note_on_c, 0, 65, 0
2, 89100, Note_on_c, 0, 67, 84
2, 89189, Note_on_c, 0, 67, 0
2, 89245, Note_on_c, 0, 81, 0
2, 89245, Note_on_c, 0, 69, 0
2, 89280, Note_on_c, 0, 71, 89
2, 89280, Note_on_c, 0, 77, 88
2, 89280, Note_on_c, 0, 83, 86
2, 89280, Note_on_c, 0, 65, 80
2, 89369, Note_on_c, 0, 65, 0
2, 89460, Note_on_c, 0, 64, 76
2, 89549, Note_on_c, 0, 64, 0
2, 89640, Note_on_c, 0, 62, 78
2, 89729, Note_on_c, 0, 62, 0
2, 89820, Note_on_c, 0, 65, 85
2, 89909, Note_on_c, 0, 65, 0
2, 90000, Note_on_c, 0, 64, 82
2, 90089, Note_on_c, 0, 64, 0
2, 90180, Note_on_c, 0, 62, 77
2, 90269, Note_on_c, 0, 62, 0
2, 90290, Note_on_c, 0, 83, 0
2, 90290, Note_on_c, 0, 77, 0
2, 90290, Note_on_c, 0, 71, 0
2, 90360, Note_on_c, 0, 72, 83
2, 90360, Note_on_c, 0, 77, 86
2, 90360, Note_on_c, 0, 84, 85
2, 90360, Note_on_c, 0, 60, 77
2, 90449, Note_on_c, 0, 60, 0
2, 90540, Note_on_c, 0, 57, 75
2, 90629, Note_on_c, 0, 57, 0
2, 90685, Note_on_c, 0, 84, 0
2, 90685, Note_on_c, 0, 77, 0
2, 90685, Note_on_c, 0, 72, 0
2, 90720, Note_on_c, 0, 71, 80
2, 90720, Note_on_c, 0, 77, 79
2, 90720, Note_on_c, 0, 83, 82
2, 90720, Note_on_c, 0, 55, 99
2, 90720, Note_on_c, 0, 59, 97
2, 90720, Note_on_c, 0, 65, 99
2, 90897, Note_on_c, 0, 65, 0
2, 90897, Note_on_c, 0, 55, 0
2, 90897, Note_on_c, 0, 59, 0
2, 91080, Note_on_c, 0, 71, 97
2, 91169, Note_on_c, 0, 71, 0
2, 91260, Note_on_c, 0, 69, 76
2, 91349, Note_on_c, 0, 69, 0
2, 91440, Note_on_c, 0, 67, 77
2, 91529, Note_on_c, 0, 67, 0
2, 91620, Note_on_c, 0, 69, 86
2, 91709, Note_on_c, 0, 69, 0
2, 91800, Note_on_c, 0, 67, 78
2, 91889, Note_on_c, 0, 67, 0
2, 91980, Note_on_c, 0, 65, 75
2, 92069, Note_on_c, 0, 65, 0
2, 92160, Note_on_c, 0, 55, 80
2, 92160, Note_on_c, 0, 59, 81
2, 92160, Note_on_c, 0, 64, 79
2, 92249, Note_on_c, 0, 64, 0
2, 92249, Note_on_c, 0, 55, 0
2, 92249, Note_on_c, 0, 59, 0
2, 92340, Note_on_c, 0, 65, 83
2, 92429, Note_on_c, 0, 65, 0
2, 92520, Note_on_c, 0, 67, 90
2, 92609, Note_on_c, 0, 67, 0
2, 92700, Note_on_c, 0, 65, 78
2, 92789, Note_on_c, 0, 65, 0
2, 92810, Note_on_c, 0, 83, 0
2, 92810, Note_on_c, 0, 71, 0
2, 92810, Note_on_c, 0, 77, 0
2, 92880, Note_on_c, 0, 69, 75
2, 92880, Note_on_c, 0, 81, 76
2, 92880, Note_on_c, 0, 76, 96
2, 92880, Note_on_c, 0, 64, 79
2, 92969, Note_on_c, 0, 64, 0
2, 93060, Note_on_c, 0, 65, 85
2, 93149, Note_on_c, 0, 65, 0
2, 93205, Note_on_c, 0, 81, 0
2, 93205, Note_on_c, 0, 69, 0
2, 93240, Note_on_c, 0, 67, 73
2, 93240, Note_on_c, 0, 79, 77
2, 93240, Note_on_c, 0, 64, 82
2, 93329, Note_on_c, 0, 64, 0
2, 93420, Note_on_c, 0, 62, 76
2, 93509, Note_on_c, 0, 62, 0
2, 93530, Note_on_c, 0, 76, 0
2, 93565, Note_on_c, 0, 79, 0
2, 93565, Note_on_c, 0, 67, 0
2, 93600, Note_on_c, 0, 69, 89
2, 93600, Note_on_c, 0, 76, 88
2, 93600, Note_on_c, 0, 81, 87
2, 93600, Note_on_c, 0, 55, 78
2, 93600, Note_on_c, 0, 57, 79
2, 93600, Note_on_c, 0, 61, 80
2, 93777, Note_on_c, 0, 61, 0
2, 93777, Note_on_c, 0, 55, 0
2, 93777, Note_on_c, 0, 57, 0
2, 93960, Note_on_c, 0, 69, 98
2, 94049, Note_on_c, 0, 69, 0
2, 94140, Note_on_c, 0, 67, 76
2, 94229, Note_on_c, 0, 67, 0
2, 94320, Note_on_c, 0, 65, 79
2, 94409, Note_on_c, 0, 65, 0
2, 94500, Note_on_c, 0, 67, 83
2, 94589, Note_on_c, 0, 67, 0
2, 94680, Note_on_c, 0, 65, 78
2, 94769, Note_on_c, 0, 65, 0
2, 94860, Note_on_c, 0, 64, 77
2, 94949, Note_on_c, 0, 64, 0
2, 94970, Note_on_c, 0, 69, 0
2, 94970, Note_on_c, 0, 81, 0
2, 94970, Note_on_c, 0, 76, 0
2, 95040, Note_on_c, 0, 70, 89
2, 95040, Note_on_c, 0, 76, 87
2, 95040, Note_on_c, 0, 82, 87
2, 95040, Note_on_c, 0, 55, 79
2, 95040, Note_on_c, 0, 58, 78
2, 95040, Note_on_c, 0, 62, 77
2, 95129, Note_on_c, 0, 62, 0
2, 95129, Note_on_c, 0, 55, 0
2, 95129, Note_on_c, 0, 58, 0
2, 95220, Note_on_c, 0, 64, 85
2, 95309, Note_on_c, 0, 64, 0
2, 95400, Note_on_c, 0, 61, 80
2, 95489, Note_on_c, 0, 61, 0
2, 95580, Note_on_c, 0, 64, 86
2, 95669, Note_on_c, 0, 64, 0
2, 95690, Note_on_c, 0, 70, 0
2, 95690, Note_on_c, 0, 82, 0
2, 95760, Note_on_c, 0, 69, 77
2, 95760, Note_on_c, 0, 81, 79
2, 95760, Note_on_c, 0, 55, 79
2, 95760, Note_on_c, 0, 57, 81
2, 95760, Note_on_c, 0, 62, 78
2, 95849, Note_on_c, 0, 62, 0
2, 95849, Note_on_c, 0, 55, 0
2, 95849, Note_on_c, 0, 57, 0
2, 95940, Note_on_c, 0, 64, 87
2, 96029, Note_on_c, 0, 64, 0
2, 96120, Note_on_c, 0, 61, 77
2, 96209, Note_on_c, 0, 61, 0
2, 96300, Note_on_c, 0, 57, 70
2, 96389, Note_on_c, 0, 57, 0
2, 96410, Note_on_c, 0, 69, 0
2, 96410, Note_on_c, 0, 81, 0
2, 96410, Note_on_c, 0, 76, 0
2, 96480, Note_on_c, 0, 69, 83
2, 96480, Note_on_c, 0, 76, 85
2, 96480, Note_on_c, 0, 81, 86
2, 96480, Note_on_c, 0, 53, 98
2, 96480, Note_on_c, 0, 57, 99
2, 96480, Note_on_c, 0, 65, 97
2, 96657, Note_on_c, 0, 65, 0
2, 96657, Note_on_c, 0, 53, 0
2, 96657, Note_on_c, 0, 57, 0
2, 96840, Note_on_c, 0, 65, 86
2, 96929, Note_on_c, 0, 65, 0
2, 97020, Note_on_c, 0, 64, 79
2, 97109, Note_on_c, 0, 64, 0
2, 97200, Note_on_c, 0, 62, 78
2, 97289, Note_on_c, 0, 62, 0
2, 97380, Note_on_c, 0, 65, 86
2, 97469, Note_on_c, 0, 65, 0
2, 97560, Note_on_c, 0, 64, 80
2, 97649, Note_on_c, 0, 64, 0
2, 97740, Note_on_c, 0, 62, 78
2, 97829, Note_on_c, 0, 62, 0
2, 97850, Note_on_c, 0, 69, 0
2, 97850, Note_on_c, 0, 81, 0
2, 97850, Note_on_c, 0, 76, 0
2, 97920, Note_on_c, 0, 68, 81
2, 97920, Note_on_c, 0, 80, 79
2, 97920, Note_on_c, 0, 74, 84
2, 97920, Note_on_c, 0, 56, 78
2, 97920, Note_on_c, 0, 59, 77
2, 98009, Note_on_c, 0, 59, 0
2, 98009, Note_on_c, 0, 56, 0
2, 98100, Note_on_c, 0, 65, 91
2, 98189, Note_on_c, 0, 65, 0
2, 98280, Note_on_c, 0, 64, 81
2, 98369, Note_on_c, 0, 64, 0
2, 98460, Note_on_c, 0, 62, 77
2, 98549, Note_on_c, 0, 62, 0
2, 98570, Note_on_c, 0, 74, 0
2, 98640, Note_on_c, 0, 76, 85
2, 98640, Note_on_c, 0, 60, 79
2, 98729, Note_on_c, 0, 60, 0
2, 98820, Note_on_c, 0, 64, 86
2, 98909, Note_on_c, 0, 64, 0
2, 99000, Note_on_c, 0, 62, 78
2, 99089, Note_on_c, 0, 62, 0
2, 99180, Note_on_c, 0, 59, 71
2, 99269, Note_on_c, 0, 59, 0
2, 99290, Note_on_c, 0, 76, 0
2, 99290, Note_on_c, 0, 80, 0
2, 99290, Note_on_c, 0, 68, 0
2, 99360, Note_on_c, 0, 69, 85
2, 99360, Note_on_c, 0, 81, 87
2, 99360, Note_on_c, 0, 76, 85
2, 99360, Note_on_c, 0, 57, 92
2, 99360, Note_on_c, 0, 64, 91
2, 99537, Note_on_c, 0, 64, 0
2, 99537, Note_on_c, 0, 57, 0
2, 99720, Note_on_c, 0, 64, 86
2, 99809, Note_on_c, 0, 64, 0
2, 99900, Note_on_c, 0, 62, 74
2, 99989, Note_on_c, 0, 62, 0
2, 100080, Note_on_c, 0, 60, 79
2, 100169, Note_on_c, 0, 60, 0
2, 100260, Note_on_c, 0, 64, 89
2, 100349, Note_on_c, 0, 64, 0
2, 100370, Note_on_c, 0, 69, 0
2, 100370, Note_on_c, 0, 81, 0
2, 100440, Note_on_c, 0, 67, 77
2, 100440, Note_on_c, 0, 79, 76
2, 100440, Note_on_c, 0, 60, 76
2, 100529, Note_on_c, 0, 60, 0
2, 100620, Note_on_c, 0, 59, 74
2, 100709, Note_on_c, 0, 59, 0
2, 100730, Note_on_c, 0, 76, 0
2, 100765, Note_on_c, 0, 79, 0
2, 100765, Note_on_c, 0, 67, 0
2, 100800, Note_on_c, 0, 66, 78
2, 100800, Note_on_c, 0, 72, 77
2, 100800, Note_on_c, 0, 78, 81
2, 100800, Note_on_c, 0, 54, 77
2, 100800, Note_on_c, 0, 57, 78
2, 100889, Note_on_c, 0, 57, 0
2, 100889, Note_on_c, 0, 54, 0
2, 100980, Note_on_c, 0, 59, 85
2, 101069, Note_on_c, 0, 59, 0
2, 101160, Note_on_c, 0, 62, 90
2, 101249, Note_on_c, 0, 62, 0
2, 101340, Note_on_c, 0, 60, 76
2, 101429, Note_on_c, 0, 60, 0
2, 101520, Note_on_c, 0, 57, 77
2, 101609, Note_on_c, 0, 57, 0
2, 101700, Note_on_c, 0, 59, 83
2, 101789, Note_on_c, 0, 59, 0
2, 101880, Note_on_c, 0, 60, 88
2, 101969, Note_on_c, 0, 60, 0
2, 102060, Note_on_c, 0, 50, 65
2, 102149, Note_on_c, 0, 50, 0
2, 102170, Note_on_c, 0, 78, 0
2, 102170, Note_on_c, 0, 72, 0
2, 102170, Note_on_c, 0, 66, 0
2, 102240, Note_on_c, 0, 67, 84
2, 102240, Note_on_c, 0, 72, 87
2, 102240, Note_on_c, 0, 79, 87
2, 102240, Note_on_c, 0, 52, 96
2, 102240, Note_on_c, 0, 55, 99
2, 102240, Note_on_c, 0, 60, 96
2, 102565, Note_on_c, 0, 60, 0
2, 102565, Note_on_c, 0, 52, 0
2, 102565, Note_on_c, 0, 55, 0
2, 102600, Note_on_c, 0, 60, 88
2, 102689, Note_on_c, 0, 60, 0
2, 102780, Note_on_c, 0, 62, 84
2, 102869, Note_on_c, 0, 62, 0
2, 102960, Note_on_c, 0, 64, 89
2, 103049, Note_on_c, 0, 64, 0
2, 103140, Note_on_c, 0, 62, 74
2, 103229, Note_on_c, 0, 62, 0
2, 103320, Note_on_c, 0, 60, 79
2, 103409, Note_on_c, 0, 60, 0
2, 103500, Note_on_c, 0, 59, 74
2, 103589, Note_on_c, 0, 59, 0
2, 103610, Note_on_c, 0, 67, 0
2, 103610, Note_on_c, 0, 79, 0
2, 103610, Note_on_c, 0, 72, 0
2, 103680, Note_on_c, 0, 67, 61
2, 103680, Note_on_c, 0, 60, 84
2, 103769, Note_on_c, 0, 60, 0
2, 103860, Note_on_c, 0, 59, 77
2, 103949, Note_on_c, 0, 59, 0
2, 104040, Note_on_c, 0, 60, 87
2, 104129, Note_on_c, 0, 60, 0
2, 104220, Note_on_c, 0, 62, 84
2, 104309, Note_on_c, 0, 62, 0
2, 104400, Note_on_c, 0, 59, 77
2, 104489, Note_on_c, 0, 59, 0
2, 104580, Note_on_c, 0, 57, 75
2, 104669, Note_on_c, 0, 57, 0
2, 104760, Note_on_c, 0, 59, 87
2, 104849, Note_on_c, 0, 59, 0
2, 104940, Note_on_c, 0, 60, 84
2, 105029, Note_on_c, 0, 60, 0
2, 105050, Note_on_c, 0, 67, 0
2, 105120, Note_on_c, 0, 60, 83
2, 105297, Note_on_c, 0, 60, 0
2, 105480, Note_on_c, 0, 57, 75
2, 105480, Note_on_c, 0, 60, 77
2, 105480, Note_on_c, 0, 41, 69
2, 105480, Note_on_c, 0, 53, 67
2, 105643, Note_on_c, 0, 60, 0
2, 105643, Note_on_c, 0, 57, 0
2, 105660, Note_on_c, 0, 65, 90
2, 105805, Note_on_c, 0, 41, 0
2, 105805, Note_on_c, 0, 53, 0
2, 105823, Note_on_c, 0, 65, 0
2, 105840, Note_on_c, 0, 55, 87
2, 105840, Note_on_c, 0, 60, 88
2, 105840, Note_on_c, 0, 67, 88
2, 105840, Note_on_c, 0, 40, 74
2, 105840, Note_on_c, 0, 52, 75
2, 106165, Note_on_c, 0, 52, 0
2, 106165, Note_on_c, 0, 67, 0
2, 106165, Note_on_c, 0, 55, 0
2, 106165, Note_on_c, 0, 60, 0
2, 106165, Note_on_c, 0, 40, 0
2, 106200, Note_on_c, 0, 60, 91
2, 106200, Note_on_c, 0, 65, 88
2, 106200, Note_on_c, 0, 69, 88
2, 106200, Note_on_c, 0, 38, 75
2, 106200, Note_on_c, 0, 50, 75
2, 106363, Note_on_c, 0, 69, 0
2, 106363, Note_on_c, 0, 60, 0
2, 106363, Note_on_c, 0, 65, 0
2, 106380, Note_on_c, 0, 71, 87
2, 106525, Note_on_c, 0, 38, 0
2, 106525, Note_on_c, 0, 50, 0
2, 106543, Note_on_c, 0, 71, 0
2, 106560, Note_on_c, 0, 60, 89
2, 106560, Note_on_c, 0, 64, 87
2, 106560, Note_on_c, 0, 72, 88
2, 106560, Note_on_c, 0, 36, 80
2, 106560, Note_on_c, 0, 48, 79
2, 106723, Note_on_c, 0, 72, 0
2, 106723, Note_on_c, 0, 60, 0
2, 106723, Note_on_c, 0, 64, 0
2, 106740, Note_on_c, 0, 71, 80
2, 106885, Note_on_c, 0, 36, 0
2, 106885, Note_on_c, 0, 48, 0
2, 106903, Note_on_c, 0, 71, 0
2, 106920, Note_on_c, 0, 60, 79
2, 106920, Note_on_c, 0, 67, 77
2, 106920, Note_on_c, 0, 69, 80
2, 106920, Note_on_c, 0, 40, 87
2, 106920, Note_on_c, 0, 52, 87
2, 107083, Note_on_c, 0, 69, 0
2, 107083, Note_on_c, 0, 60, 0
2, 107083, Note_on_c, 0, 67, 0
2, 107100, Note_on_c, 0, 72, 86
2, 107245, Note_on_c, 0, 40, 0
2, 107245, Note_on_c, 0, 52, 0
2, 107263, Note_on_c, 0, 72, 0
2, 107280, Note_on_c, 0, 62, 81
2, 107280, Note_on_c, 0, 67, 82
2, 107280, Note_on_c, 0, 71, 81
2, 107280, Note_on_c, 0, 43, 89
2, 107280, Note_on_c, 0, 55, 88
2, 107443, Note_on_c, 0, 71, 0
2, 107443, Note_on_c, 0, 62, 0
2, 107443, Note_on_c, 0, 67, 0
2, 107460, Note_on_c, 0, 69, 77
2, 107605, Note_on_c, 0, 43, 0
2, 107605, Note_on_c, 0, 55, 0
2, 107623, Note_on_c, 0, 69, 0
2, 107640, Note_on_c, 0, 59, 79
2, 107640, Note_on_c, 0, 64, 80
2, 107640, Note_on_c, 0, 67, 79
2, 107640, Note_on_c, 0, 40, 74
2, 107640, Note_on_c, 0, 52, 75
2, 107803, Note_on_c, 0, 67, 0
2, 107803, Note_on_c, 0, 59, 0
2, 107803, Note_on_c, 0, 64, 0
2, 107820, Note_on_c, 0, 71, 87
2, 107965, Note_on_c, 0, 40, 0
2, 107965, Note_on_c, 0, 52, 0
2, 107983, Note_on_c, 0, 71, 0
2, 108000, Note_on_c, 0, 60, 80
2, 108000, Note_on_c, 0, 69, 80
2, 108000, Note_on_c, 0, 45, 93
2, 108000, Note_on_c, 0, 52, 92
2, 108000, Note_on_c, 0, 57, 93
2, 108325, Note_on_c, 0, 57, 0
2, 108325, Note_on_c, 0, 45, 0
2, 108325, Note_on_c, 0, 60, 0
2, 108325, Note_on_c, 0, 69, 0
2, 108325, Note_on_c, 0, 52, 0
2, 108360, Note_on_c, 0, 60, 85
2, 108360, Note_on_c, 0, 69, 84
2, 108360, Note_on_c, 0, 48, 85
2, 108360, Note_on_c, 0, 57, 85
2, 108523, Note_on_c, 0, 57, 0
2, 108523, Note_on_c, 0, 60, 0
2, 108523, Note_on_c, 0, 69, 0
2, 108523, Note_on_c, 0, 48, 0
2, 108540, Note_on_c, 0, 69, 80
2, 108540, Note_on_c, 0, 57, 80
2, 108703, Note_on_c, 0, 57, 0
2, 108703, Note_on_c, 0, 69, 0
2, 108720, Note_on_c, 0, 60, 85
2, 108720, Note_on_c, 0, 69, 86
2, 108720, Note_on_c, 0, 48, 85
2, 108720, Note_on_c, 0, 57, 85
2, 108883, Note_on_c, 0, 57, 0
2, 108883, Note_on_c, 0, 60, 0
2, 108883, Note_on_c, 0, 69, 0
2, 108883, Note_on_c, 0, 48, 0
2, 108900, Note_on_c, 0, 71, 84
2, 108900, Note_on_c, 0, 59, 85
2, 109063, Note_on_c, 0, 59, 0
2, 109063, Note_on_c, 0, 71, 0
2, 109080, Note_on_c, 0, 65, 89
2, 109080, Note_on_c, 0, 69, 88
2, 109080, Note_on_c, 0, 72, 87
2, 109080, Note_on_c, 0, 53, 87
2, 109080, Note_on_c, 0, 57, 89
2, 109080, Note_on_c, 0, 60, 90
2, 109243, Note_on_c, 0, 60, 0
2, 109243, Note_on_c, 0, 69, 0
2, 109243, Note_on_c, 0, 72, 0
2, 109243, Note_on_c, 0, 65, 0
2, 109243, Note_on_c, 0, 57, 0
2, 109243, Note_on_c, 0, 53, 0
2, 109260, Note_on_c, 0, 74, 85
2, 109260, Note_on_c, 0, 62, 87
2, 109423, Note_on_c, 0, 62, 0
2, 109423, Note_on_c, 0, 74, 0
2, 109440, Note_on_c, 0, 69, 89
2, 109440, Note_on_c, 0, 76, 89
2, 109440, Note_on_c, 0, 52, 88
2, 109440, Note_on_c, 0, 57, 89
2, 109440, Note_on_c, 0, 64, 87
2, 109603, Note_on_c, 0, 64, 0
2, 109603, Note_on_c, 0, 52, 0
2, 109603, Note_on_c, 0, 69, 0
2, 109603, Note_on_c, 0, 76, 0
2, 109603, Note_on_c, 0, 57, 0
2, 109620, Note_on_c, 0, 78, 87
2, 109620, Note_on_c, 0, 66, 86
2, 109783, Note_on_c, 0, 66, 0
2, 109783, Note_on_c, 0, 78, 0
2, 109800, Note_on_c, 0, 72, 89
2, 109800, Note_on_c, 0, 76, 90
2, 109800, Note_on_c, 0, 80, 91
2, 109800, Note_on_c, 0, 60, 91
2, 109800, Note_on_c, 0, 64, 88
2, 109800, Note_on_c, 0, 68, 90
2, 109963, Note_on_c, 0, 68, 0
2, 109963, Note_on_c, 0, 76, 0
2, 109963, Note_on_c, 0, 80, 0
2, 109963, Note_on_c, 0, 72, 0
2, 109963, Note_on_c, 0, 64, 0
2, 109963, Note_on_c, 0, 60, 0
2, 109980, Note_on_c, 0, 81, 85
2, 109980, Note_on_c, 0, 69, 84
2, 110143, Note_on_c, 0, 69, 0
2, 110143, Note_on_c, 0, 81, 0
2, 110160, Note_on_c, 0, 76, 87
2, 110160, Note_on_c, 0, 83, 89
2, 110160, Note_on_c, 0, 59, 91
2, 110160, Note_on_c, 0, 64, 90
2, 110160, Note_on_c, 0, 71, 88
2, 110323, Note_on_c, 0, 71, 0
2, 110323, Note_on_c, 0, 59, 0
2, 110323, Note_on_c, 0, 76, 0
2, 110323, Note_on_c, 0, 83, 0
2, 110323, Note_on_c, 0, 64, 0
2, 110340, Note_on_c, 0, 85, 85
2, 110340, Note_on_c, 0, 73, 86
2, 110503, Note_on_c, 0, 73, 0
2, 110503, Note_on_c, 0, 85, 0
2, 110520, Note_on_c, 0, 75, 91
2, 110520, Note_on_c, 0, 81, 88
2, 110520, Note_on_c, 0, 87, 88
2, 110520, Note_on_c, 0, 59, 79
2, 110520, Note_on_c, 0, 63, 78
2, 110520, Note_on_c, 0, 71, 81
2, 110683, Note_on_c, 0, 71, 0
2, 110683, Note_on_c, 0, 81, 0
2, 110683, Note_on_c, 0, 87, 0
2, 110683, Note_on_c, 0, 75, 0
2, 110683, Note_on_c, 0, 63, 0
2, 110683, Note_on_c, 0, 59, 0
2, 110700, Note_on_c, 0, 83, 73
2, 110700, Note_on_c, 0, 71, 81
2, 110863, Note_on_c, 0, 71, 0
2, 110863, Note_on_c, 0, 83, 0
2, 110880, Note_on_c, 0, 76, 120
2, 110880, Note_on_c, 0, 80, 121
2, 110880, Note_on_c, 0, 88, 118
2, 110880, Note_on_c, 0, 64, 110
2, 110880, Note_on_c, 0, 71, 110
2, 111205, Note_on_c, 0, 71, 0
2, 111205, Note_on_c, 0, 88, 0
2, 111205, Note_on_c, 0, 76, 0
2, 111205, Note_on_c, 0, 80, 0
2, 111205, Note_on_c, 0, 64, 0
2, 111240, Note_on_c, 0, 81, 86
2, 111240, Note_on_c, 0, 88, 83
2, 111240, Note_on_c, 0, 72, 90
2, 111240, Note_on_c, 0, 76, 92
2, 111403, Note_on_c, 0, 88, 0
2, 111403, Note_on_c, 0, 81, 0
2, 111420, Note_on_c, 0, 93, 91
2, 111565, Note_on_c, 0, 72, 0
2, 111565, Note_on_c, 0, 76, 0
2, 111583, Note_on_c, 0, 93, 0
2, 111600, Note_on_c, 0, 83, 88
2, 111600, Note_on_c, 0, 88, 86
2, 111600, Note_on_c, 0, 95, 88
2, 111600, Note_on_c, 0, 71, 89
2, 111600, Note_on_c, 0, 76, 90
2, 111600, Note_on_c, 0, 80, 92
2, 111925, Note_on_c, 0, 80, 0
2, 111925, Note_on_c, 0, 88, 0
2, 111925, Note_on_c, 0, 95, 0
2, 111925, Note_on_c, 0, 83, 0
2, 111925, Note_on_c, 0, 76, 0
2, 111925, Note_on_c, 0, 71, 0
2, 111960, Note_on_c, 0, 75, 63
2, 111960, Note_on_c, 0, 81, 64
2, 111960, Note_on_c, 0, 83, 66
2, 111960, Note_on_c, 0, 59, 70
2, 111960, Note_on_c, 0, 66, 69
2, 111960, Note_on_c, 0, 71, 68
2, 112049, Note_on_c, 0, 71, 0
2, 112049, Note_on_c, 0, 81, 0
2, 112049, Note_on_c, 0, 83, 0
2, 112049, Note_on_c, 0, 75, 0
2, 112049, Note_on_c, 0, 66, 0
2, 112049, Note_on_c, 0, 59, 0
2, 112140, Note_on_c, 0, 75, 77
2, 112140, Note_on_c, 0, 81, 78
2, 112140, Note_on_c, 0, 83, 77
2, 112140, Note_on_c, 0, 59, 77
2, 112140, Note_on_c, 0, 66, 78
2, 112140, Note_on_c, 0, 71, 76
2, 112229, Note_on_c, 0, 71, 0
2, 112229, Note_on_c, 0, 81, 0
2, 112229, Note_on_c, 0, 83, 0
2, 112229, Note_on_c, 0, 75, 0
2, 112229, Note_on_c, 0, 66, 0
2, 112229, Note_on_c, 0, 59, 0
2, 112320, Note_on_c, 0, 76, 98
2, 112320, Note_on_c, 0, 80, 101
2, 112320, Note_on_c, 0, 88, 99
2, 112320, Note_on_c, 0, 64, 91
2, 112320, Note_on_c, 0, 71, 89
2, 112680, Note_on_c, 0, 71, 0
2, 112680, Note_on_c, 0, 88, 0
2, 112680, Note_on_c, 0, 76, 0
2, 112680, Note_on_c, 0, 80, 0
2, 112680, Note_on_c, 0, 64, 0
2, 112680, Note_on_c, 0, 69, 65
2, 112680, Note_on_c, 0, 76, 63
2, 112680, Note_on_c, 0, 60, 67
2, 112680, Note_on_c, 0, 64, 65
2, 112843, Note_on_c, 0, 76, 0
2, 112843, Note_on_c, 0, 69, 0
2, 112860, Note_on_c, 0, 81, 86
2, 113005, Note_on_c, 0, 60, 0
2, 113005, Note_on_c, 0, 64, 0
2, 113023, Note_on_c, 0, 81, 0
2, 113040, Note_on_c, 0, 71, 84
2, 113040, Note_on_c, 0, 76, 84
2, 113040, Note_on_c, 0, 83, 86
2, 113040, Note_on_c, 0, 59, 87
2, 113040, Note_on_c, 0, 64, 86
2, 113040, Note_on_c, 0, 68, 87
2, 113365, Note_on_c, 0, 68, 0
2, 113365, Note_on_c, 0, 76, 0
2, 113365, Note_on_c, 0, 83, 0
2, 113365, Note_on_c, 0, 71, 0
2, 113365, Note_on_c, 0, 64, 0
2, 113365, Note_on_c, 0, 59, 0
2, 113400, Note_on_c, 0, 63, 63
2, 113400, Note_on_c, 0, 69, 64
2, 113400, Note_on_c, 0, 71, 62
2, 113400, Note_on_c, 0, 47, 67
2, 113400, Note_on_c, 0, 54, 66
2, 113400, Note_on_c, 0, 59, 69
2, 113563, Note_on_c, 0, 59, 0
2, 113563, Note_on_c, 0, 69, 0
2, 113563, Note_on_c, 0, 71, 0
2, 113563, Note_on_c, 0, 63, 0
2, 113563, Note_on_c, 0, 54, 0
2, 113563, Note_on_c, 0, 47, 0
2, 113580, Note_on_c, 0, 63, 76
2, 113580, Note_on_c, 0, 69, 76
2, 113580, Note_on_c, 0, 71, 76
2, 113580, Note_on_c, 0, 47, 78
2, 113580, Note_on_c, 0, 54, 79
2, 113580, Note_on_c, 0, 59, 78
2, 113743, Note_on_c, 0, 59, 0
2, 113743, Note_on_c, 0, 69, 0
2, 113743, Note_on_c, 0, 71, 0
2, 113743, Note_on_c, 0, 63, 0
2, 113743, Note_on_c, 0, 54, 0
2, 113743, Note_on_c, 0, 47, 0
2, 113760, Note_on_c, 0, 64, 102
2, 113760, Note_on_c, 0, 68, 98
2, 113760, Note_on_c, 0, 76, 99
2, 113760, Note_on_c, 0, 52, 90
2, 113760, Note_on_c, 0, 59, 89
2, 114120, Note_on_c, 0, 59, 0
2, 114120, Note_on_c, 0, 76, 0
2, 114120, Note_on_c, 0, 64, 0
2, 114120, Note_on_c, 0, 68, 0
2, 114120, Note_on_c, 0, 52, 0
2, 114120, Note_on_c, 0, 64, 65
2, 114120, Note_on_c, 0, 52, 71
2, 114209, Note_on_c, 0, 52, 0
2, 114209, Note_on_c, 0, 64, 0
2, 114300, Note_on_c, 0, 64, 76
2, 114300, Note_on_c, 0, 52, 78
2, 114389, Note_on_c, 0, 52, 0
2, 114389, Note_on_c, 0, 64, 0
2, 114480, Note_on_c, 0, 64, 88
2, 114480, Note_on_c, 0, 52, 88
2, 114840, Note_on_c, 0, 52, 0
2, 114840, Note_on_c, 0, 64, 0
2, 114840, Note_on_c, 0, 64, 82
2, 114840, Note_on_c, 0, 52, 84
2, 114929, Note_on_c, 0, 52, 0
2, 114929, Note_on_c, 0, 64, 0
2, 115020, Note_on_c, 0, 64, 81
2, 115020, Note_on_c, 0, 52, 80
2, 115109, Note_on_c, 0, 52, 0
2, 115109, Note_on_c, 0, 64, 0
2, 115200, Note_on_c, 0, 64, 86
2, 115200, Note_on_c, 0, 52, 90
2, 115525, Note_on_c, 0, 64, 0
2, 115560, Note_on_c, 0, 52, 0
2, 115560, Note_on_c, 0, 52, 85
2, 115560, Note_on_c, 0, 64, 82
2, 115649, Note_on_c, 0, 64, 0
2, 115649, Note_on_c, 0, 52, 0
2, 115740, Note_on_c, 0, 52, 80
2, 115740, Note_on_c, 0, 64, 82
2, 115829, Note_on_c, 0, 64, 0
2, 115829, Note_on_c, 0, 52, 0
2, 115920, Note_on_c, 0, 52, 86
2, 115920, Note_on_c, 0, 64, 88
2, 116280, Note_on_c, 0, 64, 0
2, 116280, Note_on_c, 0, 52, 0
2, 116280, Note_on_c, 0, 52, 84
2, 116280, Note_on_c, 0, 64, 86
2, 116369, Note_on_c, 0, 64, 0
2, 116369, Note_on_c, 0, 52, 0
2, 116460, Note_on_c, 0, 52, 82
2, 116460, Note_on_c, 0, 64, 81
2, 116549, Note_on_c, 0, 64, 0
2, 116549, Note_on_c, 0, 52, 0
2, 116640, Note_on_c, 0, 52, 92
2, 116640, Note_on_c, 0, 64, 89
2, 116640, Note_on_c, 0, 60, 99
2, 117000, Note_on_c, 0, 64, 0
2, 117000, Note_on_c, 0, 52, 0
2, 117000, Note_on_c, 0, 52, 82
2, 117000, Note_on_c, 0, 64, 83
2, 117089, Note_on_c, 0, 64, 0
2, 117089, Note_on_c, 0, 52, 0
2, 117180, Note_on_c, 0, 52, 83
2, 117180, Note_on_c, 0, 64, 80
2, 117269, Note_on_c, 0, 64, 0
2, 117269, Note_on_c, 0, 52, 0
2, 117360, Note_on_c, 0, 52, 89
2, 117360, Note_on_c, 0, 64, 86
2, 117720, Note_on_c, 0, 64, 0
2, 117720, Note_on_c, 0, 52, 0
2, 117720, Note_on_c, 0, 52, 84
2, 117720, Note_on_c, 0, 64, 83
2, 117809, Note_on_c, 0, 64, 0
2, 117809, Note_on_c, 0, 52, 0
2, 117900, Note_on_c, 0, 52, 80
2, 117900, Note_on_c, 0, 64, 81
2, 117989, Note_on_c, 0, 64, 0
2, 117989, Note_on_c, 0, 52, 0
2, 118080, Note_on_c, 0, 52, 90
2, 118080, Note_on_c, 0, 64, 91
2, 118440, Note_on_c, 0, 64, 0
2, 118440, Note_on_c, 0, 52, 0
2, 118440, Note_on_c, 0, 52, 83
2, 118440, Note_on_c, 0, 64, 85
2, 118529, Note_on_c, 0, 64, 0
2, 118529, Note_on_c, 0, 52, 0
2, 118620, Note_on_c, 0, 52, 79
2, 118620, Note_on_c, 0, 64, 82
2, 118709, Note_on_c, 0, 64, 0
2, 118709, Note_on_c, 0, 52, 0
2, 118800, Note_on_c, 0, 52, 88
2, 118800, Note_on_c, 0, 64, 86
2, 119160, Note_on_c, 0, 64, 0
2, 119160, Note_on_c, 0, 52, 0
2, 119160, Note_on_c, 0, 52, 83
2, 119160, Note_on_c, 0, 64, 83
2, 119249, Note_on_c, 0, 64, 0
2, 119249, Note_on_c, 0, 52, 0
2, 119340, Note_on_c, 0, 52, 83
2, 119340, Note_on_c, 0, 64, 80
2, 119429, Note_on_c, 0, 64, 0
2, 119429, Note_on_c, 0, 52, 0
2, 119450, Note_on_c, 0, 60, 0
2, 119520, Note_on_c, 0, 52, 90
2, 119520, Note_on_c, 0, 64, 88
2, 119520, Note_on_c, 0, 57, 89
2, 119520, Note_on_c, 0, 60, 92
2, 119880, Note_on_c, 0, 64, 0
2, 119880, Note_on_c, 0, 52, 0
2, 119880, Note_on_c, 0, 52, 82
2, 119880, Note_on_c, 0, 64, 85
2, 119969, Note_on_c, 0, 64, 0
2, 119969, Note_on_c, 0, 52, 0
2, 120060, Note_on_c, 0, 52, 80
2, 120060, Note_on_c, 0, 64, 79
2, 120149, Note_on_c, 0, 64, 0
2, 120149, Note_on_c, 0, 52, 0
2, 120240, Note_on_c, 0, 52, 87
2, 120240, Note_on_c, 0, 64, 86
2, 120600, Note_on_c, 0, 64, 0
2, 120600, Note_on_c, 0, 52, 0
2, 120600, Note_on_c, 0, 52, 85
2, 120600, Note_on_c, 0, 64, 82
2, 120689, Note_on_c, 0, 64, 0
2, 120689, Note_on_c, 0, 52, 0
2, 120780, Note_on_c, 0, 52, 83
2, 120780, Note_on_c, 0, 64, 80
2, 120869, Note_on_c, 0, 64, 0
2, 120869, Note_on_c, 0, 52, 0
2, 120960, Note_on_c, 0, 52, 92
2, 120960, Note_on_c, 0, 64, 90
2, 121320, Note_on_c, 0, 64, 0
2, 121320, Note_on_c, 0, 52, 0
2, 121320, Note_on_c, 0, 52, 86
2, 121320, Note_on_c, 0, 64, 82
2, 121409, Note_on_c, 0, 64, 0
2, 121409, Note_on_c, 0, 52, 0
2, 121500, Note_on_c, 0, 52, 81
2, 121500, Note_on_c, 0, 64, 81
2, 121589, Note_on_c, 0, 64, 0
2, 121589, Note_on_c, 0, 52, 0
2, 121680, Note_on_c, 0, 53, 91
2, 121680, Note_on_c, 0, 65, 91
2, 122040, Note_on_c, 0, 65, 0
2, 122040, Note_on_c, 0, 53, 0
2, 122040, Note_on_c, 0, 53, 83
2, 122040, Note_on_c, 0, 65, 82
2, 122129, Note_on_c, 0, 65, 0
2, 122129, Note_on_c, 0, 53, 0
2, 122220, Note_on_c, 0, 53, 81
2, 122220, Note_on_c, 0, 65, 83
2, 122309, Note_on_c, 0, 65, 0
2, 122309, Note_on_c, 0, 53, 0
2, 122330, Note_on_c, 0, 57, 0
2, 122330, Note_on_c, 0, 60, 0
2, 122400, Note_on_c, 0, 54, 95
2, 122400, Note_on_c, 0, 66, 91
2, 122400, Note_on_c, 0, 56, 85
2, 122400, Note_on_c, 0, 60, 86
2, 122760, Note_on_c, 0, 66, 0
2, 122760, Note_on_c, 0, 54, 0
2, 122760, Note_on_c, 0, 54, 85
2, 122760, Note_on_c, 0, 66, 84
2, 122849, Note_on_c, 0, 66, 0
2, 122849, Note_on_c, 0, 54, 0
2, 122940, Note_on_c, 0, 54, 81
2, 122940, Note_on_c, 0, 66, 82
2, 123029, Note_on_c, 0, 66, 0
2, 123029, Note_on_c, 0, 54, 0
2, 123120, Note_on_c, 0, 54, 89
2, 123120, Note_on_c, 0, 66, 88
2, 123480, Note_on_c, 0, 66, 0
2, 123480, Note_on_c, 0, 54, 0
2, 123480, Note_on_c, 0, 54, 85
2, 123480, Note_on_c, 0, 66, 85
2, 123569, Note_on_c, 0, 66, 0
2, 123569, Note_on_c, 0, 54, 0
2, 123660, Note_on_c, 0, 54, 79
2, 123660, Note_on_c, 0, 66, 81
2, 123749, Note_on_c, 0, 66, 0
2, 123749, Note_on_c, 0, 54, 0
2, 123840, Note_on_c, 0, 54, 92
2, 123840, Note_on_c, 0, 66, 91
2, 124200, Note_on_c, 0, 66, 0
2, 124200, Note_on_c, 0, 54, 0
2, 124200, Note_on_c, 0, 54, 86
2, 124200, Note_on_c, 0, 66, 86
2, 124289, Note_on_c, 0, 66, 0
2, 124289, Note_on_c, 0, 54, 0
2, 124380, Note_on_c, 0, 54, 83
2, 124380, Note_on_c, 0, 66, 80
2, 124469, Note_on_c, 0, 66, 0
2, 124469, Note_on_c, 0, 54, 0
2, 124560, Note_on_c, 0, 54, 83
2, 124560, Note_on_c, 0, 66, 79
2, 124850, Note_on_c, 0, 56, 0
2, 124850, Note_on_c, 0, 60, 0
2, 124885, Note_on_c, 0, 54, 0
2, 124885, Note_on_c, 0, 66, 0
2, 124920, Note_on_c, 0, 66, 95
2, 124920, Note_on_c, 0, 72, 96
2, 124920, Note_on_c, 0, 54, 82
2, 124920, Note_on_c, 0, 60, 82
2, 125083, Note_on_c, 0, 60, 0
2, 125083, Note_on_c, 0, 66, 0
2, 125083, Note_on_c, 0, 72, 0
2, 125083, Note_on_c, 0, 54, 0
2, 125100, Note_on_c, 0, 66, 88
2, 125100, Note_on_c, 0, 72, 87
2, 125100, Note_on_c, 0, 73, 86
2, 125100, Note_on_c, 0, 54, 84
2, 125100, Note_on_c, 0, 60, 85
2, 125100, Note_on_c, 0, 61, 83
2, 125263, Note_on_c, 0, 61, 0
2, 125263, Note_on_c, 0, 72, 0
2, 125263, Note_on_c, 0, 73, 0
2, 125263, Note_on_c, 0, 66, 0
2, 125263, Note_on_c, 0, 60, 0
2, 125263, Note_on_c, 0, 54, 0
2, 125280, Note_on_c, 0, 66, 86
2, 125280, Note_on_c, 0, 72, 88
2, 125280, Note_on_c, 0, 74, 89
2, 125280, Note_on_c, 0, 54, 87
2, 125280, Note_on_c, 0, 60, 87
2, 125280, Note_on_c, 0, 62, 88
2, 125605, Note_on_c, 0, 62, 0
2, 125605, Note_on_c, 0, 72, 0
2, 125605, Note_on_c, 0, 74, 0
2, 125605, Note_on_c, 0, 66, 0
2, 125605, Note_on_c, 0, 60, 0
2, 125605, Note_on_c, 0, 54, 0
2, 125640, Note_on_c, 0, 66, 80
2, 125640, Note_on_c, 0, 72, 79
2, 125640, Note_on_c, 0, 74, 82
2, 125640, Note_on_c, 0, 54, 82
2, 125640, Note_on_c, 0, 60, 80
2, 125640, Note_on_c, 0, 62, 81
2, 125803, Note_on_c, 0, 62, 0
2, 125803, Note_on_c, 0, 72, 0
2, 125803, Note_on_c, 0, 74, 0
2, 125803, Note_on_c, 0, 66, 0
2, 125803, Note_on_c, 0, 60, 0
2, 125803, Note_on_c, 0, 54, 0
2, 125820, Note_on_c, 0, 67, 85
2, 125820, Note_on_c, 0, 72, 87
2, 125820, Note_on_c, 0, 76, 84
2, 125820, Note_on_c, 0, 55, 84
2, 125820, Note_on_c, 0, 60, 86
2, 125820, Note_on_c, 0, 64, 84
2, 125983, Note_on_c, 0, 64, 0
2, 125983, Note_on_c, 0, 72, 0
2, 125983, Note_on_c, 0, 76, 0
2, 125983, Note_on_c, 0, 67, 0
2, 125983, Note_on_c, 0, 60, 0
2, 125983, Note_on_c, 0, 55, 0
2, 126000, Note_on_c, 0, 69, 112
2, 126000, Note_on_c, 0, 72, 112
2, 126000, Note_on_c, 0, 78, 111
2, 126000, Note_on_c, 0, 57, 113
2, 126000, Note_on_c, 0, 60, 113
2, 126000, Note_on_c, 0, 66, 113
2, 127045, Note_on_c, 0, 66, 0
2, 127045, Note_on_c, 0, 72, 0
2, 127045, Note_on_c, 0, 78, 0
2, 127045, Note_on_c, 0, 69, 0
2, 127045, Note_on_c, 0, 60, 0
2, 127045, Note_on_c, 0, 57, 0
2, 127080, Note_on_c, 0, 66, 77
2, 127080, Note_on_c, 0, 72, 74
2, 127080, Note_on_c, 0, 74, 74
2, 127080, Note_on_c, 0, 54, 76
2, 127080, Note_on_c, 0, 60, 75
2, 127080, Note_on_c, 0, 62, 75
2, 127243, Note_on_c, 0, 62, 0
2, 127243, Note_on_c, 0, 72, 0
2, 127243, Note_on_c, 0, 74, 0
2, 127243, Note_on_c, 0, 66, 0
2, 127243, Note_on_c, 0, 60, 0
2, 127243, Note_on_c, 0, 54, 0
2, 127260, Note_on_c, 0, 67, 86
2, 127260, Note_on_c, 0, 72, 84
2, 127260, Note_on_c, 0, 76, 85
2, 127260, Note_on_c, 0, 55, 84
2, 127260, Note_on_c, 0, 60, 85
2, 127260, Note_on_c, 0, 64, 84
2, 127423, Note_on_c, 0, 64, 0
2, 127423, Note_on_c, 0, 72, 0
2, 127423, Note_on_c, 0, 76, 0
2, 127423, Note_on_c, 0, 67, 0
2, 127423, Note_on_c, 0, 60, 0
2, 127423, Note_on_c, 0, 55, 0
2, 127440, Note_on_c, 0, 69, 115
2, 127440, Note_on_c, 0, 72, 113
2, 127440, Note_on_c, 0, 78, 114
2, 127440, Note_on_c, 0, 57, 112
2, 127440, Note_on_c, 0, 60, 115
2, 127440, Note_on_c, 0, 66, 115
2, 128323, Note_on_c, 0, 66, 0
2, 128323, Note_on_c, 0, 72, 0
2, 128323, Note_on_c, 0, 78, 0
2, 128323, Note_on_c, 0, 69, 0
2, 128323, Note_on_c, 0, 60, 0
2, 128323, Note_on_c, 0, 57, 0
2, 128340, Note_on_c, 0, 73, 71
2, 128340, Note_on_c, 0, 61, 69
2, 128503, Note_on_c, 0, 61, 0
2, 128503, Note_on_c, 0, 73, 0
2, 128520, Note_on_c, 0, 66, 85
2, 128520, Note_on_c, 0, 72, 86
2, 128520, Note_on_c, 0, 74, 87
2, 128520, Note_on_c, 0, 54, 85
2, 128520, Note_on_c, 0, 60, 84
2, 128520, Note_on_c, 0, 62, 84
2, 128683, Note_on_c, 0, 62, 0
2, 128683, Note_on_c, 0, 72, 0
2, 128683, Note_on_c, 0, 74, 0
2, 128683, Note_on_c, 0, 66, 0
2, 128683, Note_on_c, 0, 60, 0
2, 128683, Note_on_c, 0, 54, 0
2, 128700, Note_on_c, 0, 67, 86
2, 128700, Note_on_c, 0, 72, 85
2, 128700, Note_on_c, 0, 76, 86
2, 128700, Note_on_c, 0, 55, 87
2, 128700, Note_on_c, 0, 60, 85
2, 128700, Note_on_c, 0, 64, 85
2, 128863, Note_on_c, 0, 64, 0
2, 128863, Note_on_c, 0, 72, 0
2, 128863, Note_on_c, 0, 76, 0
2, 128863, Note_on_c, 0, 67, 0
2, 128863, Note_on_c, 0, 60, 0
2, 128863, Note_on_c, 0, 55, 0
2, 128880, Note_on_c, 0, 69, 116
2, 128880, Note_on_c, 0, 72, 118
2, 128880, Note_on_c, 0, 78, 116
2, 128880, Note_on_c, 0, 57, 116
2, 128880, Note_on_c, 0, 60, 117
2, 128880, Note_on_c, 0, 66, 118
2, 129043, Note_on_c, 0, 66, 0
2, 129043, Note_on_c, 0, 72, 0
2, 129043, Note_on_c, 0, 78, 0
2, 129043, Note_on_c, 0, 69, 0
2, 129043, Note_on_c, 0, 60, 0
2, 129043, Note_on_c, 0, 57, 0
2, 129060, Note_on_c, 0, 73, 69
2, 129060, Note_on_c, 0, 61, 70
2, 129223, Note_on_c, 0, 61, 0
2, 129223, Note_on_c, 0, 73, 0
2, 129240, Note_on_c, 0, 66, 85
2, 129240, Note_on_c, 0, 72, 85
2, 129240, Note_on_c, 0, 74, 87
2, 129240, Note_on_c, 0, 54, 85
2, 129240, Note_on_c, 0, 60, 87
2, 129240, Note_on_c, 0, 62, 86
2, 129403, Note_on_c, 0, 62, 0
2, 129403, Note_on_c, 0, 72, 0
2, 129403, Note_on_c, 0, 74, 0
2, 129403, Note_on_c, 0, 66, 0
2, 129403, Note_on_c, 0, 60, 0
2, 129403, Note_on_c, 0, 54, 0
2, 129420, Note_on_c, 0, 67, 85
2, 129420, Note_on_c, 0, 72, 84
2, 129420, Note_on_c, 0, 76, 87
2, 129420, Note_on_c, 0, 55, 85
2, 129420, Note_on_c, 0, 60, 86
2, 129420, Note_on_c, 0, 64, 86
2, 129583, Note_on_c, 0, 64, 0
2, 129583, Note_on_c, 0, 72, 0
2, 129583, Note_on_c, 0, 76, 0
2, 129583, Note_on_c, 0, 67, 0
2, 129583, Note_on_c, 0, 60, 0
2, 129583, Note_on_c, 0, 55, 0
2, 129600, Note_on_c, 0, 69, 90
2, 129600, Note_on_c, 0, 72, 88
2, 129600, Note_on_c, 0, 78, 88
2, 129600, Note_on_c, 0, 57, 90
2, 129600, Note_on_c, 0, 60, 91
2, 129600, Note_on_c, 0, 66, 89
2, 129763, Note_on_c, 0, 66, 0
2, 129763, Note_on_c, 0, 72, 0
2, 129763, Note_on_c, 0, 78, 0
2, 129763, Note_on_c, 0, 69, 0
2, 129763, Note_on_c, 0, 60, 0
2, 129763, Note_on_c, 0, 57, 0
2, 129780, Note_on_c, 0, 73, 73
2, 129780, Note_on_c, 0, 61, 71
2, 129943, Note_on_c, 0, 61, 0
2, 129943, Note_on_c, 0, 73, 0
2, 129960, Note_on_c, 0, 66, 86
2, 129960, Note_on_c, 0, 72, 85
2, 129960, Note_on_c, 0, 74, 84
2, 129960, Note_on_c, 0, 54, 84
2, 129960, Note_on_c, 0, 60, 87
2, 129960, Note_on_c, 0, 62, 87
2, 130123, Note_on_c, 0, 62, 0
2, 130123, Note_on_c, 0, 72, 0
2, 130123, Note_on_c, 0, 74, 0
2, 130123, Note_on_c, 0, 66, 0
2, 130123, Note_on_c, 0, 60, 0
2, 130123, Note_on_c, 0, 54, 0
2, 130140, Note_on_c, 0, 67, 84
2, 130140, Note_on_c, 0, 72, 84
2, 130140, Note_on_c, 0, 76, 85
2, 130140, Note_on_c, 0, 55, 87
2, 130140, Note_on_c, 0, 60, 84
2, 130140, Note_on_c, 0, 64, 86
2, 130303, Note_on_c, 0, 64, 0
2, 130303, Note_on_c, 0, 72, 0
2, 130303, Note_on_c, 0, 76, 0
2, 130303, Note_on_c, 0, 67, 0
2, 130303, Note_on_c, 0, 60, 0
2, 130303, Note_on_c, 0, 55, 0
2, 130320, Note_on_c, 0, 69, 87
2, 130320, Note_on_c, 0, 72, 88
2, 130320, Note_on_c, 0, 78, 89
2, 130320, Note_on_c, 0, 57, 91
2, 130320, Note_on_c, 0, 60, 87
2, 130320, Note_on_c, 0, 66, 89
2, 130483, Note_on_c, 0, 66, 0
2, 130483, Note_on_c, 0, 72, 0
2, 130483, Note_on_c, 0, 78, 0
2, 130483, Note_on_c, 0, 69, 0
2, 130483, Note_on_c, 0, 60, 0
2, 130483, Note_on_c, 0, 57, 0
2, 130500, Note_on_c, 0, 74, 73
2, 130500, Note_on_c, 0, 62, 75
2, 130663, Note_on_c, 0, 62, 0
2, 130663, Note_on_c, 0, 74, 0
2, 130680, Note_on_c, 0, 69, 87
2, 130680, Note_on_c, 0, 72, 88
2, 130680, Note_on_c, 0, 76, 86
2, 130680, Note_on_c, 0, 57, 86
2, 130680, Note_on_c, 0, 60, 88
2, 130680, Note_on_c, 0, 64, 88
2, 130843, Note_on_c, 0, 64, 0
2, 130843, Note_on_c, 0, 72, 0
2, 130843, Note_on_c, 0, 76, 0
2, 130843, Note_on_c, 0, 69, 0
2, 130843, Note_on_c, 0, 60, 0
2, 130843, Note_on_c, 0, 57, 0
2, 130860, Note_on_c, 0, 69, 86
2, 130860, Note_on_c, 0, 72, 85
2, 130860, Note_on_c, 0, 78, 85
2, 130860, Note_on_c, 0, 57, 86
2, 130860, Note_on_c, 0, 60, 85
2, 130860, Note_on_c, 0, 66, 85
2, 131023, Note_on_c, 0, 66, 0
2, 131023, Note_on_c, 0, 72, 0
2, 131023, Note_on_c, 0, 78, 0
2, 131023, Note_on_c, 0, 69, 0
2, 131023, Note_on_c, 0, 60, 0
2, 131023, Note_on_c, 0, 57, 0
2, 131040, Note_on_c, 0, 67, 90
2, 131040, Note_on_c, 0, 72, 87
2, 131040, Note_on_c, 0, 76, 88
2, 131040, Note_on_c, 0, 79, 87
2, 131040, Note_on_c, 0, 55, 79
2, 131040, Note_on_c, 0, 60, 80
2, 131040, Note_on_c, 0, 64, 79
2, 131203, Note_on_c, 0, 64, 0
2, 131203, Note_on_c, 0, 55, 0
2, 131203, Note_on_c, 0, 72, 0
2, 131203, Note_on_c, 0, 76, 0
2, 131203, Note_on_c, 0, 67, 0
2, 131203, Note_on_c, 0, 60, 0
2, 131203, Note_on_c, 0, 79, 0
2, 131400, Note_on_c, 0, 69, 72
2, 131400, Note_on_c, 0, 76, 71
2, 131400, Note_on_c, 0, 79, 74
2, 131400, Note_on_c, 0, 81, 75
2, 131400, Note_on_c, 0, 45, 72
2, 131400, Note_on_c, 0, 52, 72
2, 131400, Note_on_c, 0, 55, 75
2, 131400, Note_on_c, 0, 57, 73
2, 131725, Note_on_c, 0, 57, 0
2, 131725, Note_on_c, 0, 69, 0
2, 131725, Note_on_c, 0, 45, 0
2, 131725, Note_on_c, 0, 76, 0
2, 131725, Note_on_c, 0, 79, 0
2, 131725, Note_on_c, 0, 81, 0
2, 131725, Note_on_c, 0, 52, 0
2, 131725, Note_on_c, 0, 55, 0
2, 131760, Note_on_c, 0, 69, 80
2, 131760, Note_on_c, 0, 74, 81
2, 131760, Note_on_c, 0, 77, 79
2, 131760, Note_on_c, 0, 81, 81
2, 131760, Note_on_c, 0, 45, 78
2, 131760, Note_on_c, 0, 50, 80
2, 131760, Note_on_c, 0, 53, 78
2, 131760, Note_on_c, 0, 57, 81
2, 132085, Note_on_c, 0, 57, 0
2, 132085, Note_on_c, 0, 69, 0
2, 132085, Note_on_c, 0, 45, 0
2, 132085, Note_on_c, 0, 74, 0
2, 132085, Note_on_c, 0, 77, 0
2, 132085, Note_on_c, 0, 81, 0
2, 132085, Note_on_c, 0, 50, 0
2, 132085, Note_on_c, 0, 53, 0
2, 132120, Note_on_c, 0, 64, 72
2, 132120, Note_on_c, 0, 70, 72
2, 132120, Note_on_c, 0, 74, 71
2, 132120, Note_on_c, 0, 76, 69
2, 132120, Note_on_c, 0, 43, 75
2, 132120, Note_on_c, 0, 50, 75
2, 132120, Note_on_c, 0, 55, 77
2, 132445, Note_on_c, 0, 55, 0
2, 132445, Note_on_c, 0, 43, 0
2, 132445, Note_on_c, 0, 70, 0
2, 132445, Note_on_c, 0, 74, 0
2, 132445, Note_on_c, 0, 64, 0
2, 132445, Note_on_c, 0, 50, 0
2, 132445, Note_on_c, 0, 76, 0
2, 132480, Note_on_c, 0, 67, 90
2, 132480, Note_on_c, 0, 69, 88
2, 132480, Note_on_c, 0, 73, 86
2, 132480, Note_on_c, 0, 79, 88
2, 132480, Note_on_c, 0, 45, 83
2, 132480, Note_on_c, 0, 49, 81
2, 132480, Note_on_c, 0, 55, 82
2, 132805, Note_on_c, 0, 55, 0
2, 132805, Note_on_c, 0, 45, 0
2, 132805, Note_on_c, 0, 69, 0
2, 132805, Note_on_c, 0, 73, 0
2, 132805, Note_on_c, 0, 67, 0
2, 132805, Note_on_c, 0, 49, 0
2, 132805, Note_on_c, 0, 79, 0
2, 132840, Note_on_c, 0, 62, 71
2, 132840, Note_on_c, 0, 69, 69
2, 132840, Note_on_c, 0, 74, 70
2, 132840, Note_on_c, 0, 41, 76
2, 132840, Note_on_c, 0, 53, 78
2, 133165, Note_on_c, 0, 53, 0
2, 133165, Note_on_c, 0, 74, 0
2, 133165, Note_on_c, 0, 62, 0
2, 133165, Note_on_c, 0, 69, 0
2, 133165, Note_on_c, 0, 41, 0
2, 133200, Note_on_c, 0, 65, 84
2, 133200, Note_on_c, 0, 68, 86
2, 133200, Note_on_c, 0, 72, 85
2, 133200, Note_on_c, 0, 77, 86
2, 133200, Note_on_c, 0, 38, 72
2, 133200, Note_on_c, 0, 50, 71
2, 133525, Note_on_c, 0, 50, 0
2, 133525, Note_on_c, 0, 68, 0
2, 133525, Note_on_c, 0, 72, 0
2, 133525, Note_on_c, 0, 65, 0
2, 133525, Note_on_c, 0, 38, 0
2, 133525, Note_on_c, 0, 77, 0
2, 133560, Note_on_c, 0, 59, 68
2, 133560, Note_on_c, 0, 65, 70
2, 133560, Note_on_c, 0, 67, 69
2, 133560, Note_on_c, 0, 71, 71
2, 133560, Note_on_c, 0, 43, 91
2, 133560, Note_on_c, 0, 50, 87
2, 133560, Note_on_c, 0, 55, 89
2, 133885, Note_on_c, 0, 55, 0
2, 133885, Note_on_c, 0, 43, 0
2, 133885, Note_on_c, 0, 65, 0
2, 133885, Note_on_c, 0, 67, 0
2, 133885, Note_on_c, 0, 59, 0
2, 133885, Note_on_c, 0, 50, 0
2, 133885, Note_on_c, 0, 71, 0
2, 133920, Note_on_c, 0, 62, 88
2, 133920, Note_on_c, 0, 64, 90
2, 133920, Note_on_c, 0, 71, 90
2, 133920, Note_on_c, 0, 74, 90
2, 133920, Note_on_c, 0, 44, 89
2, 133920, Note_on_c, 0, 52, 88
2, 133920, Note_on_c, 0, 56, 88
2, 134245, Note_on_c, 0, 56, 0
2, 134245, Note_on_c, 0, 44, 0
2, 134245, Note_on_c, 0, 64, 0
2, 134245, Note_on_c, 0, 71, 0
2, 134245, Note_on_c, 0, 62, 0
2, 134245, Note_on_c, 0, 52, 0
2, 134245, Note_on_c, 0, 74, 0
2, 134280, Note_on_c, 0, 64, 78
2, 134280, Note_on_c, 0, 69, 77
2, 134280, Note_on_c, 0, 72, 77
2, 134280, Note_on_c, 0, 45, 86
2, 134280, Note_on_c, 0, 57, 86
2, 134443, Note_on_c, 0, 72, 0
2, 134443, Note_on_c, 0, 64, 0
2, 134443, Note_on_c, 0, 69, 0
2, 134460, Note_on_c, 0, 71, 75
2, 134605, Note_on_c, 0, 45, 0
2, 134605, Note_on_c, 0, 57, 0
2, 134623, Note_on_c, 0, 71, 0
2, 134640, Note_on_c, 0, 60, 76
2, 134640, Note_on_c, 0, 63, 78
2, 134640, Note_on_c, 0, 69, 79
2, 134640, Note_on_c, 0, 43, 75
2, 134640, Note_on_c, 0, 55, 77
2, 134803, Note_on_c, 0, 69, 0
2, 134803, Note_on_c, 0, 60, 0
2, 134803, Note_on_c, 0, 63, 0
2, 134820, Note_on_c, 0, 71, 84
2, 134965, Note_on_c, 0, 43, 0
2, 134965, Note_on_c, 0, 55, 0
2, 134983, Note_on_c, 0, 71, 0
2, 135000, Note_on_c, 0, 62, 89
2, 135000, Note_on_c, 0, 69, 86
2, 135000, Note_on_c, 0, 72, 88
2, 135000, Note_on_c, 0, 42, 78
2, 135000, Note_on_c, 0, 54, 76
2, 135325, Note_on_c, 0, 54, 0
2, 135325, Note_on_c, 0, 72, 0
2, 135325, Note_on_c, 0, 62, 0
2, 135325, Note_on_c, 0, 69, 0
2, 135325, Note_on_c, 0, 42, 0
2, 135360, Note_on_c, 0, 59, 73
2, 135360, Note_on_c, 0, 62, 75
2, 135360, Note_on_c, 0, 67, 74
2, 135360, Note_on_c, 0, 41, 80
2, 135360, Note_on_c, 0, 53, 78
2, 135685, Note_on_c, 0, 53, 0
2, 135685, Note_on_c, 0, 67, 0
2, 135685, Note_on_c, 0, 59, 0
2, 135685, Note_on_c, 0, 62, 0
2, 135685, Note_on_c, 0, 41, 0
2, 135720, Note_on_c, 0, 57, 82
2, 135720, Note_on_c, 0, 60, 85
2, 135720, Note_on_c, 0, 67, 84
2, 135720, Note_on_c, 0, 69, 81
2, 135720, Note_on_c, 0, 40, 77
2, 135720, Note_on_c, 0, 45, 77
2, 135720, Note_on_c, 0, 48, 75
2, 135720, Note_on_c, 0, 52, 75
2, 136045, Note_on_c, 0, 52, 0
2, 136045, Note_on_c, 0, 57, 0
2, 136045, Note_on_c, 0, 40, 0
2, 136045, Note_on_c, 0, 60, 0
2, 136045, Note_on_c, 0, 67, 0
2, 136045, Note_on_c, 0, 69, 0
2, 136045, Note_on_c, 0, 45, 0
2, 136045, Note_on_c, 0, 48, 0
2, 136080, Note_on_c, 0, 60, 93
2, 136080, Note_on_c, 0, 65, 91
2, 136080, Note_on_c, 0, 69, 91
2, 136080, Note_on_c, 0, 74, 90
2, 136080, Note_on_c, 0, 38, 75
2, 136080, Note_on_c, 0, 45, 76
2, 136080, Note_on_c, 0, 50, 73
2, 136405, Note_on_c, 0, 50, 0
2, 136405, Note_on_c, 0, 38, 0
2, 136405, Note_on_c, 0, 65, 0
2, 136405, Note_on_c, 0, 69, 0
2, 136405, Note_on_c, 0, 60, 0
2, 136405, Note_on_c, 0, 45, 0
2, 136405, Note_on_c, 0, 74, 0
2, 136440, Note_on_c, 0, 65, 92
2, 136440, Note_on_c, 0, 67, 94
2, 136440, Note_on_c, 0, 71, 90
2, 136440, Note_on_c, 0, 74, 92
2, 136440, Note_on_c, 0, 79, 94
2, 136440, Note_on_c, 0, 43, 91
2, 136440, Note_on_c, 0, 47, 88
2, 136440, Note_on_c, 0, 50, 91
2, 136440, Note_on_c, 0, 55, 92
2, 136765, Note_on_c, 0, 55, 0
2, 136765, Note_on_c, 0, 74, 0
2, 136765, Note_on_c, 0, 65, 0
2, 136765, Note_on_c, 0, 79, 0
2, 136765, Note_on_c, 0, 67, 0
2, 136765, Note_on_c, 0, 71, 0
2, 136765, Note_on_c, 0, 47, 0
2, 136765, Note_on_c, 0, 43, 0
2, 136765, Note_on_c, 0, 50, 0
2, 136800, Note_on_c, 0, 60, 71
2, 136800, Note_on_c, 0, 64, 73
2, 136800, Note_on_c, 0, 67, 74
2, 136800, Note_on_c, 0, 72, 74
2, 136800, Note_on_c, 0, 36, 70
2, 136800, Note_on_c, 0, 40, 71
2, 136800, Note_on_c, 0, 43, 71
2, 136800, Note_on_c, 0, 48, 71
2, 137125, Note_on_c, 0, 48, 0
2, 137125, Note_on_c, 0, 60, 0
2, 137125, Note_on_c, 0, 36, 0
2, 137125, Note_on_c, 0, 64, 0
2, 137125, Note_on_c, 0, 67, 0
2, 137125, Note_on_c, 0, 72, 0
2, 137125, Note_on_c, 0, 40, 0
2, 137125, Note_on_c, 0, 43, 0
2, 137160, Note_on_c, 0, 64, 83
2, 137160, Note_on_c, 0, 67, 80
2, 137160, Note_on_c, 0, 72, 82
2, 137323, Note_on_c, 0, 72, 0
2, 137323, Note_on_c, 0, 67, 0
2, 137323, Note_on_c, 0, 64, 0
2, 137340, Note_on_c, 0, 65, 84
2, 137340, Note_on_c, 0, 67, 86
2, 137340, Note_on_c, 0, 72, 87
2, 137340, Note_on_c, 0, 74, 85
2, 137503, Note_on_c, 0, 74, 0
2, 137503, Note_on_c, 0, 65, 0
2, 137503, Note_on_c, 0, 67, 0
2, 137503, Note_on_c, 0, 72, 0
2, 137520, Note_on_c, 0, 64, 114
2, 137520, Note_on_c, 0, 67, 115
2, 137520, Note_on_c, 0, 72, 115
2, 137520, Note_on_c, 0, 76, 112
2, 137700, Note_on_c, 0, 43, 73
2, 137700, Note_on_c, 0, 55, 74
2, 137863, Note_on_c, 0, 55, 0
2, 137863, Note_on_c, 0, 43, 0
2, 137880, Note_on_c, 0, 45, 86
2, 137880, Note_on_c, 0, 57, 85
2, 138043, Note_on_c, 0, 57, 0
2, 138043, Note_on_c, 0, 45, 0
2, 138060, Note_on_c, 0, 47, 87
2, 138060, Note_on_c, 0, 59, 84
2, 138223, Note_on_c, 0, 59, 0
2, 138223, Note_on_c, 0, 47, 0
2, 138240, Note_on_c, 0, 48, 113
2, 138240, Note_on_c, 0, 60, 115
2, 138565, Note_on_c, 0, 72, 0
2, 138565, Note_on_c, 0, 76, 0
2, 138565, Note_on_c, 0, 64, 0
2, 138565, Note_on_c, 0, 67, 0
2, 138600, Note_on_c, 0, 64, 75
2, 138600, Note_on_c, 0, 67, 75
2, 138600, Note_on_c, 0, 72, 73
2, 138763, Note_on_c, 0, 72, 0
2, 138763, Note_on_c, 0, 64, 0
2, 138763, Note_on_c, 0, 67, 0
2, 138780, Note_on_c, 0, 65, 86
2, 138780, Note_on_c, 0, 67, 84
2, 138780, Note_on_c, 0, 72, 86
2, 138780, Note_on_c, 0, 74, 85
2, 138943, Note_on_c, 0, 74, 0
2, 138943, Note_on_c, 0, 67, 0
2, 138943, Note_on_c, 0, 65, 0
2, 138943, Note_on_c, 0, 72, 0
2, 138960, Note_on_c, 0, 64, 89
2, 138960, Note_on_c, 0, 67, 89
2, 138960, Note_on_c, 0, 72, 89
2, 138960, Note_on_c, 0, 76, 88
2, 139123, Note_on_c, 0, 76, 0
2, 139123, Note_on_c, 0, 48, 0
2, 139123, Note_on_c, 0, 64, 0
2, 139123, Note_on_c, 0, 60, 0
2, 139123, Note_on_c, 0, 72, 0
2, 139123, Note_on_c, 0, 67, 0
2, 139140, Note_on_c, 0, 65, 85
2, 139140, Note_on_c, 0, 72, 83
2, 139140, Note_on_c, 0, 77, 83
2, 139140, Note_on_c, 0, 50, 86
2, 139140, Note_on_c, 0, 62, 87
2, 139303, Note_on_c, 0, 62, 0
2, 139303, Note_on_c, 0, 77, 0
2, 139303, Note_on_c, 0, 65, 0
2, 139303, Note_on_c, 0, 72, 0
2, 139303, Note_on_c, 0, 50, 0
2, 139320, Note_on_c, 0, 67, 91
2, 139320, Note_on_c, 0, 72, 90
2, 139320, Note_on_c, 0, 79, 90
2, 139320, Note_on_c, 0, 52, 87
2, 139320, Note_on_c, 0, 64, 88
2, 139483, Note_on_c, 0, 64, 0
2, 139483, Note_on_c, 0, 79, 0
2, 139483, Note_on_c, 0, 67, 0
2, 139483, Note_on_c, 0, 72, 0
2, 139483, Note_on_c, 0, 52, 0
2, 139500, Note_on_c, 0, 69, 76
2, 139500, Note_on_c, 0, 72, 77
2, 139500, Note_on_c, 0, 77, 77
2, 139500, Note_on_c, 0, 53, 85
2, 139500, Note_on_c, 0, 65, 84
2, 139663, Note_on_c, 0, 65, 0
2, 139663, Note_on_c, 0, 77, 0
2, 139663, Note_on_c, 0, 69, 0
2, 139663, Note_on_c, 0, 72, 0
2, 139663, Note_on_c, 0, 53, 0
2, 139680, Note_on_c, 0, 64, 80
2, 139680, Note_on_c, 0, 72, 81
2, 139680, Note_on_c, 0, 76, 80
2, 139680, Note_on_c, 0, 55, 90
2, 139680, Note_on_c, 0, 67, 90
2, 139843, Note_on_c, 0, 76, 0
2, 139843, Note_on_c, 0, 64, 0
2, 139843, Note_on_c, 0, 72, 0
2, 139860, Note_on_c, 0, 65, 75
2, 139860, Note_on_c, 0, 71, 74
2, 139860, Note_on_c, 0, 74, 73
2, 140005, Note_on_c, 0, 55, 0
2, 140005, Note_on_c, 0, 67, 0
2, 140023, Note_on_c, 0, 71, 0
2, 140023, Note_on_c, 0, 65, 0
2, 140023, Note_on_c, 0, 74, 0
2, 140040, Note_on_c, 0, 64, 77
2, 140040, Note_on_c, 0, 69, 78
2, 140040, Note_on_c, 0, 72, 80
2, 140040, Note_on_c, 0, 43, 58
2, 140040, Note_on_c, 0, 55, 61
2, 140203, Note_on_c, 0, 72, 0
2, 140203, Note_on_c, 0, 64, 0
2, 140203, Note_on_c, 0, 69, 0
2, 140220, Note_on_c, 0, 65, 83
2, 140220, Note_on_c, 0, 71, 86
2, 140220, Note_on_c, 0, 74, 86
2, 140365, Note_on_c, 0, 43, 0
2, 140365, Note_on_c, 0, 55, 0
2, 140383, Note_on_c, 0, 71, 0
2, 140383, Note_on_c, 0, 65, 0
2, 140383, Note_on_c, 0, 74, 0
2, 140400, Note_on_c, 0, 64, 87
2, 140400, Note_on_c, 0, 67, 85
2, 140400, Note_on_c, 0, 72, 85
2, 140400, Note_on_c, 0, 76, 85
2, 140400, Note_on_c, 0, 48, 88
2, 140400, Note_on_c, 0, 60, 91
2, 140563, Note_on_c, 0, 60, 0
2, 140563, Note_on_c, 0, 48, 0
2, 140580, Note_on_c, 0, 50, 88
2, 140580, Note_on_c, 0, 62, 88
2, 140725, Note_on_c, 0, 72, 0
2, 140725, Note_on_c, 0, 76, 0
2, 140725, Note_on_c, 0, 64, 0
2, 140725, Note_on_c, 0, 67, 0
2, 140743, Note_on_c, 0, 62, 0
2, 140743, Note_on_c, 0, 50, 0
2, 140760, Note_on_c, 0, 60, 75
2, 140760, Note_on_c, 0, 67, 77
2, 140760, Note_on_c, 0, 72, 77
2, 140760, Note_on_c, 0, 52, 90
2, 140760, Note_on_c, 0, 64, 89
2, 140923, Note_on_c, 0, 64, 0
2, 140923, Note_on_c, 0, 72, 0
2, 140923, Note_on_c, 0, 60, 0
2, 140923, Note_on_c, 0, 67, 0
2, 140923, Note_on_c, 0, 52, 0
2, 140940, Note_on_c, 0, 62, 76
2, 140940, Note_on_c, 0, 67, 76
2, 140940, Note_on_c, 0, 71, 78
2, 140940, Note_on_c, 0, 50, 74
2, 140940, Note_on_c, 0, 62, 77
2, 141103, Note_on_c, 0, 62, 0
2, 141103, Note_on_c, 0, 71, 0
2, 141103, Note_on_c, 0, 62, 0
2, 141103, Note_on_c, 0, 67, 0
2, 141103, Note_on_c, 0, 50, 0
2, 141120, Note_on_c, 0, 64, 79
2, 141120, Note_on_c, 0, 67, 77
2, 141120, Note_on_c, 0, 69, 77
2, 141120, Note_on_c, 0, 48, 76
2, 141120, Note_on_c, 0, 60, 80
2, 141283, Note_on_c, 0, 60, 0
2, 141283, Note_on_c, 0, 69, 0
2, 141283, Note_on_c, 0, 64, 0
2, 141283, Note_on_c, 0, 67, 0
2, 141283, Note_on_c, 0, 48, 0
2, 141300, Note_on_c, 0, 62, 85
2, 141300, Note_on_c, 0, 67, 84
2, 141300, Note_on_c, 0, 71, 87
2, 141300, Note_on_c, 0, 47, 78
2, 141300, Note_on_c, 0, 59, 78
2, 141463, Note_on_c, 0, 59, 0
2, 141463, Note_on_c, 0, 71, 0
2, 141463, Note_on_c, 0, 62, 0
2, 141463, Note_on_c, 0, 67, 0
2, 141463, Note_on_c, 0, 47, 0
2, 141480, Note_on_c, 0, 60, 110
2, 141480, Note_on_c, 0, 62, 109
2, 141480, Note_on_c, 0, 66, 112
2, 141480, Note_on_c, 0, 72, 111
2, 141480, Note_on_c, 0, 45, 97
2, 141480, Note_on_c, 0, 57, 97
2, 141805, Note_on_c, 0, 57, 0
2, 141805, Note_on_c, 0, 62, 0
2, 141805, Note_on_c, 0, 66, 0
2, 141805, Note_on_c, 0, 60, 0
2, 141805, Note_on_c, 0, 45, 0
2, 141805, Note_on_c, 0, 72, 0
2, 141840, Note_on_c, 0, 62, 116
2, 141840, Note_on_c, 0, 65, 118
2, 141840, Note_on_c, 0, 67, 118
2, 141840, Note_on_c, 0, 74, 118
2, 141840, Note_on_c, 0, 47, 113
2, 141840, Note_on_c, 0, 59, 113
2, 142003, Note_on_c, 0, 74, 0
2, 142003, Note_on_c, 0, 67, 0
2, 142003, Note_on_c, 0, 62, 0
2, 142003, Note_on_c, 0, 65, 0
2, 142020, Note_on_c, 0, 62, 68
2, 142020, Note_on_c, 0, 65, 68
2, 142020, Note_on_c, 0, 67, 66
2, 142165, Note_on_c, 0, 59, 0
2, 142165, Note_on_c, 0, 47, 0
2, 142183, Note_on_c, 0, 65, 0
2, 142183, Note_on_c, 0, 62, 0
2, 142183, Note_on_c, 0, 67, 0
2, 142200, Note_on_c, 0, 60, 86
2, 142200, Note_on_c, 0, 65, 88
2, 142200, Note_on_c, 0, 69, 87
2, 142200, Note_on_c, 0, 45, 77
2, 142200, Note_on_c, 0, 57, 79
2, 142363, Note_on_c, 0, 57, 0
2, 142363, Note_on_c, 0, 69, 0
2, 142363, Note_on_c, 0, 60, 0
2, 142363, Note_on_c, 0, 65, 0
2, 142363, Note_on_c, 0, 45, 0
2, 142380, Note_on_c, 0, 62, 85
2, 142380, Note_on_c, 0, 65, 86
2, 142380, Note_on_c, 0, 71, 84
2, 142380, Note_on_c, 0, 43, 76
2, 142380, Note_on_c, 0, 55, 75
2, 142543, Note_on_c, 0, 55, 0
2, 142543, Note_on_c, 0, 71, 0
2, 142543, Note_on_c, 0, 62, 0
2, 142543, Note_on_c, 0, 65, 0
2, 142543, Note_on_c, 0, 43, 0
2, 142560, Note_on_c, 0, 64, 115
2, 142560, Note_on_c, 0, 67, 114
2, 142560, Note_on_c, 0, 72, 112
2, 142560, Note_on_c, 0, 48, 122
2, 142560, Note_on_c, 0, 60, 120
2, 142885, Note_on_c, 0, 72, 0
2, 142885, Note_on_c, 0, 64, 0
2, 142885, Note_on_c, 0, 67, 0
2, 142920, Note_on_c, 0, 64, 85
2, 142920, Note_on_c, 0, 67, 82
2, 142920, Note_on_c, 0, 72, 85
2, 143083, Note_on_c, 0, 72, 0
2, 143083, Note_on_c, 0, 64, 0
2, 143083, Note_on_c, 0, 67, 0
2, 143100, Note_on_c, 0, 65, 84
2, 143100, Note_on_c, 0, 67, 87
2, 143100, Note_on_c, 0, 72, 86
2, 143100, Note_on_c, 0, 74, 84
2, 143263, Note_on_c, 0, 74, 0
2, 143263, Note_on_c, 0, 67, 0
2, 143263, Note_on_c, 0, 65, 0
2, 143263, Note_on_c, 0, 72, 0
2, 143280, Note_on_c, 0, 64, 113
2, 143280, Note_on_c, 0, 67, 113
2, 143280, Note_on_c, 0, 72, 115
2, 143280, Note_on_c, 0, 76, 114
2, 143443, Note_on_c, 0, 60, 0
2, 143443, Note_on_c, 0, 48, 0
2, 143460, Note_on_c, 0, 43, 71
2, 143460, Note_on_c, 0, 55, 70
2, 143623, Note_on_c, 0, 55, 0
2, 143623, Note_on_c, 0, 43, 0
2, 143640, Note_on_c, 0, 45, 88
2, 143640, Note_on_c, 0, 57, 85
2, 143803, Note_on_c, 0, 57, 0
2, 143803, Note_on_c, 0, 45, 0
2, 143820, Note_on_c, 0, 47, 87
2, 143820, Note_on_c, 0, 59, 85
2, 143983, Note_on_c, 0, 59, 0
2, 143983, Note_on_c, 0, 47, 0
2, 144000, Note_on_c, 0, 48, 113
2, 144000, Note_on_c, 0, 60, 114
2, 144325, Note_on_c, 0, 64, 0
2, 144325, Note_on_c, 0, 72, 0
2, 144325, Note_on_c, 0, 67, 0
2, 144325, Note_on_c, 0, 76, 0
2, 144360, Note_on_c, 0, 64, 75
2, 144360, Note_on_c, 0, 67, 73
2, 144360, Note_on_c, 0, 72, 77
2, 144523, Note_on_c, 0, 72, 0
2, 144523, Note_on_c, 0, 64, 0
2, 144523, Note_on_c, 0, 67, 0
2, 144540, Note_on_c, 0, 65, 85
2, 144540, Note_on_c, 0, 67, 86
2, 144540, Note_on_c, 0, 72, 85
2, 144540, Note_on_c, 0, 74, 83
2, 144703, Note_on_c, 0, 74, 0
2, 144703, Note_on_c, 0, 67, 0
2, 144703, Note_on_c, 0, 65, 0
2, 144703, Note_on_c, 0, 72, 0
2, 144720, Note_on_c, 0, 64, 88
2, 144720, Note_on_c, 0, 67, 90
2, 144720, Note_on_c, 0, 72, 88
2, 144720, Note_on_c, 0, 76, 90
2, 144883, Note_on_c, 0, 76, 0
2, 144883, Note_on_c, 0, 48, 0
2, 144883, Note_on_c, 0, 64, 0
2, 144883, Note_on_c, 0, 60, 0
2, 144883, Note_on_c, 0, 72, 0
2, 144883, Note_on_c, 0, 67, 0
2, 144900, Note_on_c, 0, 65, 84
2, 144900, Note_on_c, 0, 72, 86
2, 144900, Note_on_c, 0, 77, 84
2, 144900, Note_on_c, 0, 50, 84
2, 144900, Note_on_c, 0, 62, 86
2, 145063, Note_on_c, 0, 62, 0
2, 145063, Note_on_c, 0, 77, 0
2, 145063, Note_on_c, 0, 65, 0
2, 145063, Note_on_c, 0, 72, 0
2, 145063, Note_on_c, 0, 50, 0
2, 145080, Note_on_c, 0, 67, 87
2, 145080, Note_on_c, 0, 72, 90
2, 145080, Note_on_c, 0, 79, 90
2, 145080, Note_on_c, 0, 52, 90
2, 145080, Note_on_c, 0, 64, 90
2, 145243, Note_on_c, 0, 64, 0
2, 145243, Note_on_c, 0, 79, 0
2, 145243, Note_on_c, 0, 67, 0
2, 145243, Note_on_c, 0, 72, 0
2, 145243, Note_on_c, 0, 52, 0
2, 145260, Note_on_c, 0, 67, 74
2, 145260, Note_on_c, 0, 71, 77
2, 145260, Note_on_c, 0, 77, 76
2, 145260, Note_on_c, 0, 50, 75
2, 145260, Note_on_c, 0, 62, 75
2, 145423, Note_on_c, 0, 62, 0
2, 145423, Note_on_c, 0, 77, 0
2, 145423, Note_on_c, 0, 67, 0
2, 145423, Note_on_c, 0, 71, 0
2, 145423, Note_on_c, 0, 50, 0
2, 145440, Note_on_c, 0, 67, 79
2, 145440, Note_on_c, 0, 72, 79
2, 145440, Note_on_c, 0, 76, 78
2, 145440, Note_on_c, 0, 48, 80
2, 145440, Note_on_c, 0, 60, 77
2, 145603, Note_on_c, 0, 60, 0
2, 145603, Note_on_c, 0, 48, 0
2, 145620, Note_on_c, 0, 47, 76
2, 145620, Note_on_c, 0, 59, 77
2, 145765, Note_on_c, 0, 67, 0
2, 145765, Note_on_c, 0, 76, 0
2, 145765, Note_on_c, 0, 72, 0
2, 145783, Note_on_c, 0, 47, 0
2, 145783, Note_on_c, 0, 59, 0
2, 145800, Note_on_c, 0, 64, 83
2, 145800, Note_on_c, 0, 72, 82
2, 145800, Note_on_c, 0, 76, 83
2, 145800, Note_on_c, 0, 45, 76
2, 145800, Note_on_c, 0, 57, 76
2, 145963, Note_on_c, 0, 76, 0
2, 145963, Note_on_c, 0, 64, 0
2, 145963, Note_on_c, 0, 72, 0
2, 145980, Note_on_c, 0, 66, 85
2, 145980, Note_on_c, 0, 72, 86
2, 145980, Note_on_c, 0, 76, 84
2, 145980, Note_on_c, 0, 78, 84
2, 146125, Note_on_c, 0, 45, 0
2, 146125, Note_on_c, 0, 57, 0
2, 146143, Note_on_c, 0, 76, 0
2, 146143, Note_on_c, 0, 72, 0
2, 146143, Note_on_c, 0, 78, 0
2, 146143, Note_on_c, 0, 66, 0
2, 146160, Note_on_c, 0, 67, 86
2, 146160, Note_on_c, 0, 71, 89
2, 146160, Note_on_c, 0, 76, 87
2, 146160, Note_on_c, 0, 79, 87
2, 146160, Note_on_c, 0, 47, 90
2, 146160, Note_on_c, 0, 59, 89
2, 146323, Note_on_c, 0, 59, 0
2, 146323, Note_on_c, 0, 71, 0
2, 146323, Note_on_c, 0, 76, 0
2, 146323, Note_on_c, 0, 67, 0
2, 146323, Note_on_c, 0, 47, 0
2, 146323, Note_on_c, 0, 79, 0
2, 146340, Note_on_c, 0, 69, 87
2, 146340, Note_on_c, 0, 72, 85
2, 146340, Note_on_c, 0, 76, 84
2, 146340, Note_on_c, 0, 81, 87
2, 146340, Note_on_c, 0, 45, 78
2, 146340, Note_on_c, 0, 57, 78
2, 146503, Note_on_c, 0, 57, 0
2, 146503, Note_on_c, 0, 72, 0
2, 146503, Note_on_c, 0, 76, 0
2, 146503, Note_on_c, 0, 69, 0
2, 146503, Note_on_c, 0, 45, 0
2, 146503, Note_on_c, 0, 81, 0
2, 146520, Note_on_c, 0, 71, 115
2, 146520, Note_on_c, 0, 75, 111
2, 146520, Note_on_c, 0, 81, 111
2, 146520, Note_on_c, 0, 83, 114
2, 146520, Note_on_c, 0, 43, 80
2, 146520, Note_on_c, 0, 55, 77
2, 146683, Note_on_c, 0, 55, 0
2, 146683, Note_on_c, 0, 43, 0
2, 146700, Note_on_c, 0, 42, 75
2, 146700, Note_on_c, 0, 54, 74
2, 146845, Note_on_c, 0, 81, 0
2, 146845, Note_on_c, 0, 83, 0
2, 146845, Note_on_c, 0, 71, 0
2, 146845, Note_on_c, 0, 75, 0
2, 146863, Note_on_c, 0, 54, 0
2, 146863, Note_on_c, 0, 42, 0
2, 146880, Note_on_c, 0, 67, 75
2, 146880, Note_on_c, 0, 71, 77
2, 146880, Note_on_c, 0, 76, 76
2, 146880, Note_on_c, 0, 79, 77
2, 146880, Note_on_c, 0, 40, 100
2, 146880, Note_on_c, 0, 52, 99
2, 147205, Note_on_c, 0, 52, 0
2, 147205, Note_on_c, 0, 71, 0
2, 147205, Note_on_c, 0, 76, 0
2, 147205, Note_on_c, 0, 67, 0
2, 147205, Note_on_c, 0, 40, 0
2, 147205, Note_on_c, 0, 79, 0
2, 147240, Note_on_c, 0, 52, 106
2, 147240, Note_on_c, 0, 64, 103
2, 147403, Note_on_c, 0, 64, 0
2, 147403, Note_on_c, 0, 52, 0
2, 147420, Note_on_c, 0, 54, 87
2, 147420, Note_on_c, 0, 66, 88
2, 147583, Note_on_c, 0, 66, 0
2, 147583, Note_on_c, 0, 54, 0
2, 147600, Note_on_c, 0, 55, 110
2, 147600, Note_on_c, 0, 67, 113
2, 147780, Note_on_c, 0, 61, 71
2, 147780, Note_on_c, 0, 69, 73
2, 147925, Note_on_c, 0, 67, 0
2, 147925, Note_on_c, 0, 55, 0
2, 147943, Note_on_c, 0, 61, 0
2, 147943, Note_on_c, 0, 69, 0
2, 147960, Note_on_c, 0, 62, 88
2, 147960, Note_on_c, 0, 69, 89
2, 147960, Note_on_c, 0, 71, 86
2, 147960, Note_on_c, 0, 53, 81
2, 147960, Note_on_c, 0, 65, 78
2, 148123, Note_on_c, 0, 65, 0
2, 148123, Note_on_c, 0, 71, 0
2, 148123, Note_on_c, 0, 62, 0
2, 148123, Note_on_c, 0, 69, 0
2, 148123, Note_on_c, 0, 53, 0
2, 148140, Note_on_c, 0, 67, 87
2, 148140, Note_on_c, 0, 69, 86
2, 148140, Note_on_c, 0, 73, 88
2, 148140, Note_on_c, 0, 52, 77
2, 148140, Note_on_c, 0, 64, 76
2, 148303, Note_on_c, 0, 64, 0
2, 148303, Note_on_c, 0, 73, 0
2, 148303, Note_on_c, 0, 67, 0
2, 148303, Note_on_c, 0, 69, 0
2, 148303, Note_on_c, 0, 52, 0
2, 148320, Note_on_c, 0, 65, 112
2, 148320, Note_on_c, 0, 69, 116
2, 148320, Note_on_c, 0, 74, 112
2, 148320, Note_on_c, 0, 50, 101
2, 148320, Note_on_c, 0, 62, 99
2, 148645, Note_on_c, 0, 62, 0
2, 148645, Note_on_c, 0, 50, 0
2, 148680, Note_on_c, 0, 45, 75
2, 148680, Note_on_c, 0, 57, 74
2, 148788, Note_on_c, 0, 57, 0
2, 148788, Note_on_c, 0, 45, 0
2, 148800, Note_on_c, 0, 47, 84
2, 148800, Note_on_c, 0, 59, 82
2, 148908, Note_on_c, 0, 59, 0
2, 148908, Note_on_c, 0, 47, 0
2, 148919, Note_on_c, 0, 49, 87
2, 148919, Note_on_c, 0, 61, 86
2, 149029, Note_on_c, 0, 61, 0
2, 149029, Note_on_c, 0, 49, 0
2, 149040, Note_on_c, 0, 50, 85
2, 149040, Note_on_c, 0, 62, 86
2, 149203, Note_on_c, 0, 74, 0
2, 149203, Note_on_c, 0, 65, 0
2, 149203, Note_on_c, 0, 69, 0
2, 149220, Note_on_c, 0, 64, 78
2, 149220, Note_on_c, 0, 69, 78
2, 149220, Note_on_c, 0, 73, 78
2, 149383, Note_on_c, 0, 73, 0
2, 149383, Note_on_c, 0, 64, 0
2, 149383, Note_on_c, 0, 69, 0
2, 149400, Note_on_c, 0, 65, 86
2, 149400, Note_on_c, 0, 69, 85
2, 149400, Note_on_c, 0, 74, 86
2, 149563, Note_on_c, 0, 74, 0
2, 149563, Note_on_c, 0, 65, 0
2, 149563, Note_on_c, 0, 69, 0
2, 149580, Note_on_c, 0, 67, 85
2, 149580, Note_on_c, 0, 69, 83
2, 149580, Note_on_c, 0, 74, 87
2, 149580, Note_on_c, 0, 76, 84
2, 149743, Note_on_c, 0, 76, 0
2, 149743, Note_on_c, 0, 69, 0
2, 149743, Note_on_c, 0, 67, 0
2, 149743, Note_on_c, 0, 74, 0
2, 149760, Note_on_c, 0, 65, 114
2, 149760, Note_on_c, 0, 69, 116
2, 149760, Note_on_c, 0, 74, 113
2, 149760, Note_on_c, 0, 77, 114
2, 150085, Note_on_c, 0, 62, 0
2, 150085, Note_on_c, 0, 50, 0
2, 150120, Note_on_c, 0, 50, 83
2, 150120, Note_on_c, 0, 62, 85
2, 150283, Note_on_c, 0, 62, 0
2, 150283, Note_on_c, 0, 50, 0
2, 150300, Note_on_c, 0, 52, 85
2, 150300, Note_on_c, 0, 64, 84
2, 150463, Note_on_c, 0, 64, 0
2, 150463, Note_on_c, 0, 52, 0
2, 150480, Note_on_c, 0, 53, 88
2, 150480, Note_on_c, 0, 65, 88
2, 150643, Note_on_c, 0, 53, 0
2, 150643, Note_on_c, 0, 65, 0
2, 150660, Note_on_c, 0, 55, 85
2, 150660, Note_on_c, 0, 67, 88
2, 150770, Note_on_c, 0, 77, 0
2, 150770, Note_on_c, 0, 74, 0
2, 150770, Note_on_c, 0, 69, 0
2, 150770, Note_on_c, 0, 65, 0
2, 150823, Note_on_c, 0, 67, 0
2, 150823, Note_on_c, 0, 55, 0
2, 150840, Note_on_c, 0, 65, 79
2, 150840, Note_on_c, 0, 74, 77
2, 150840, Note_on_c, 0, 57, 88
2, 150840, Note_on_c, 0, 69, 87
2, 151003, Note_on_c, 0, 69, 0
2, 151003, Note_on_c, 0, 65, 0
2, 151003, Note_on_c, 0, 74, 0
2, 151003, Note_on_c, 0, 57, 0
2, 151020, Note_on_c, 0, 70, 87
2, 151020, Note_on_c, 0, 74, 86
2, 151020, Note_on_c, 0, 76, 84
2, 151020, Note_on_c, 0, 55, 75
2, 151020, Note_on_c, 0, 67, 75
2, 151183, Note_on_c, 0, 67, 0
2, 151183, Note_on_c, 0, 76, 0
2, 151183, Note_on_c, 0, 70, 0
2, 151183, Note_on_c, 0, 74, 0
2, 151183, Note_on_c, 0, 55, 0
2, 151200, Note_on_c, 0, 69, 89
2, 151200, Note_on_c, 0, 74, 87
2, 151200, Note_on_c, 0, 77, 86
2, 151200, Note_on_c, 0, 53, 78
2, 151200, Note_on_c, 0, 65, 78
2, 151363, Note_on_c, 0, 65, 0
2, 151363, Note_on_c, 0, 77, 0
2, 151363, Note_on_c, 0, 69, 0
2, 151363, Note_on_c, 0, 74, 0
2, 151363, Note_on_c, 0, 53, 0
2, 151380, Note_on_c, 0, 70, 88
2, 151380, Note_on_c, 0, 74, 87
2, 151380, Note_on_c, 0, 79, 88
2, 151380, Note_on_c, 0, 52, 77
2, 151380, Note_on_c, 0, 64, 75
2, 151543, Note_on_c, 0, 64, 0
2, 151543, Note_on_c, 0, 79, 0
2, 151543, Note_on_c, 0, 70, 0
2, 151543, Note_on_c, 0, 74, 0
2, 151543, Note_on_c, 0, 52, 0
2, 151560, Note_on_c, 0, 72, 90
2, 151560, Note_on_c, 0, 74, 89
2, 151560, Note_on_c, 0, 81, 88
2, 151560, Note_on_c, 0, 50, 80
2, 151560, Note_on_c, 0, 62, 79
2, 151723, Note_on_c, 0, 62, 0
2, 151723, Note_on_c, 0, 81, 0
2, 151723, Note_on_c, 0, 72, 0
2, 151723, Note_on_c, 0, 74, 0
2, 151723, Note_on_c, 0, 50, 0
2, 151740, Note_on_c, 0, 70, 74
2, 151740, Note_on_c, 0, 74, 77
2, 151740, Note_on_c, 0, 79, 78
2, 151740, Note_on_c, 0, 52, 86
2, 151740, Note_on_c, 0, 64, 85
2, 151903, Note_on_c, 0, 64, 0
2, 151903, Note_on_c, 0, 79, 0
2, 151903, Note_on_c, 0, 70, 0
2, 151903, Note_on_c, 0, 74, 0
2, 151903, Note_on_c, 0, 52, 0
2, 151920, Note_on_c, 0, 69, 78
2, 151920, Note_on_c, 0, 74, 79
2, 151920, Note_on_c, 0, 77, 79
2, 151920, Note_on_c, 0, 53, 87
2, 151920, Note_on_c, 0, 65, 87
2, 152083, Note_on_c, 0, 77, 0
2, 152083, Note_on_c, 0, 69, 0
2, 152083, Note_on_c, 0, 74, 0
2, 152100, Note_on_c, 0, 76, 77
2, 152245, Note_on_c, 0, 53, 0
2, 152245, Note_on_c, 0, 65, 0
2, 152263, Note_on_c, 0, 76, 0
2, 152280, Note_on_c, 0, 65, 98
2, 152280, Note_on_c, 0, 71, 100
2, 152280, Note_on_c, 0, 74, 96
2, 152280, Note_on_c, 0, 55, 115
2, 152280, Note_on_c, 0, 67, 111
2, 152605, Note_on_c, 0, 67, 0
2, 152605, Note_on_c, 0, 74, 0
2, 152605, Note_on_c, 0, 65, 0
2, 152605, Note_on_c, 0, 71, 0
2, 152605, Note_on_c, 0, 55, 0
2, 152640, Note_on_c, 0, 64, 116
2, 152640, Note_on_c, 0, 67, 116
2, 152640, Note_on_c, 0, 72, 115
2, 152640, Note_on_c, 0, 76, 115
2, 152640, Note_on_c, 0, 48, 90
2, 152640, Note_on_c, 0, 52, 91
2, 152640, Note_on_c, 0, 55, 93
2, 152640, Note_on_c, 0, 60, 92
2, 152965, Note_on_c, 0, 60, 0
2, 152965, Note_on_c, 0, 64, 0
2, 152965, Note_on_c, 0, 48, 0
2, 152965, Note_on_c, 0, 67, 0
2, 152965, Note_on_c, 0, 72, 0
2, 152965, Note_on_c, 0, 76, 0
2, 152965, Note_on_c, 0, 52, 0
2, 152965, Note_on_c, 0, 55, 0
2, 153000, Note_on_c, 0, 64, 76
2, 153000, Note_on_c, 0, 67, 76
2, 153000, Note_on_c, 0, 72, 76
2, 153163, Note_on_c, 0, 72, 0
2, 153163, Note_on_c, 0, 67, 0
2, 153163, Note_on_c, 0, 64, 0
2, 153180, Note_on_c, 0, 65, 83
2, 153180, Note_on_c, 0, 67, 83
2, 153180, Note_on_c, 0, 72, 83
2, 153180, Note_on_c, 0, 74, 84
2, 153343, Note_on_c, 0, 74, 0
2, 153343, Note_on_c, 0, 65, 0
2, 153343, Note_on_c, 0, 67, 0
2, 153343, Note_on_c, 0, 72, 0
2, 153360, Note_on_c, 0, 64, 113
2, 153360, Note_on_c, 0, 67, 113
2, 153360, Note_on_c, 0, 72, 111
2, 153360, Note_on_c, 0, 76, 111
2, 153540, Note_on_c, 0, 43, 73
2, 153540, Note_on_c, 0, 55, 73
2, 153703, Note_on_c, 0, 55, 0
2, 153703, Note_on_c, 0, 43, 0
2, 153720, Note_on_c, 0, 45, 87
2, 153720, Note_on_c, 0, 57, 89
2, 153847, Note_on_c, 0, 72, 0
2, 153847, Note_on_c, 0, 76, 0
2, 153847, Note_on_c, 0, 64, 0
2, 153847, Note_on_c, 0, 67, 0
2, 153883, Note_on_c, 0, 57, 0
2, 153883, Note_on_c, 0, 45, 0
2, 153900, Note_on_c, 0, 63, 77
2, 153900, Note_on_c, 0, 67, 77
2, 153900, Note_on_c, 0, 75, 78
2, 153900, Note_on_c, 0, 47, 87
2, 153900, Note_on_c, 0, 59, 85
2, 154063, Note_on_c, 0, 59, 0
2, 154063, Note_on_c, 0, 75, 0
2, 154063, Note_on_c, 0, 63, 0
2, 154063, Note_on_c, 0, 67, 0
2, 154063, Note_on_c, 0, 47, 0
2, 154080, Note_on_c, 0, 64, 85
2, 154080, Note_on_c, 0, 67, 86
2, 154080, Note_on_c, 0, 72, 89
2, 154080, Note_on_c, 0, 76, 87
2, 154080, Note_on_c, 0, 48, 114
2, 154080, Note_on_c, 0, 60, 114
2, 154243, Note_on_c, 0, 76, 0
2, 154243, Note_on_c, 0, 72, 0
2, 154243, Note_on_c, 0, 64, 0
2, 154243, Note_on_c, 0, 67, 0
2, 154260, Note_on_c, 0, 69, 87
2, 154260, Note_on_c, 0, 76, 85
2, 154260, Note_on_c, 0, 78, 88
2, 154423, Note_on_c, 0, 78, 0
2, 154423, Note_on_c, 0, 69, 0
2, 154423, Note_on_c, 0, 76, 0
2, 154440, Note_on_c, 0, 70, 110
2, 154440, Note_on_c, 0, 76, 110
2, 154440, Note_on_c, 0, 79, 112
2, 154567, Note_on_c, 0, 60, 0
2, 154567, Note_on_c, 0, 48, 0
2, 154620, Note_on_c, 0, 48, 82
2, 154620, Note_on_c, 0, 60, 80
2, 154783, Note_on_c, 0, 60, 0
2, 154783, Note_on_c, 0, 48, 0
2, 154800, Note_on_c, 0, 49, 85
2, 154800, Note_on_c, 0, 61, 82
2, 154963, Note_on_c, 0, 79, 0
2, 154963, Note_on_c, 0, 76, 0
2, 154963, Note_on_c, 0, 70, 0
2, 154980, Note_on_c, 0, 69, 78
2, 154980, Note_on_c, 0, 76, 77
2, 154980, Note_on_c, 0, 78, 78
2, 155143, Note_on_c, 0, 78, 0
2, 155143, Note_on_c, 0, 69, 0
2, 155143, Note_on_c, 0, 76, 0
2, 155160, Note_on_c, 0, 70, 88
2, 155160, Note_on_c, 0, 76, 84
2, 155160, Note_on_c, 0, 79, 86
2, 155287, Note_on_c, 0, 49, 0
2, 155287, Note_on_c, 0, 61, 0
2, 155323, Note_on_c, 0, 76, 0
2, 155323, Note_on_c, 0, 70, 0
2, 155323, Note_on_c, 0, 79, 0
2, 155340, Note_on_c, 0, 69, 87
2, 155340, Note_on_c, 0, 73, 84
2, 155340, Note_on_c, 0, 79, 83
2, 155340, Note_on_c, 0, 81, 87
2, 155340, Note_on_c, 0, 52, 90
2, 155340, Note_on_c, 0, 64, 86
2, 155503, Note_on_c, 0, 64, 0
2, 155503, Note_on_c, 0, 73, 0
2, 155503, Note_on_c, 0, 79, 0
2, 155503, Note_on_c, 0, 69, 0
2, 155503, Note_on_c, 0, 52, 0
2, 155503, Note_on_c, 0, 81, 0
2, 155520, Note_on_c, 0, 71, 117
2, 155520, Note_on_c, 0, 74, 115
2, 155520, Note_on_c, 0, 79, 114
2, 155520, Note_on_c, 0, 83, 116
2, 155520, Note_on_c, 0, 50, 104
2, 155520, Note_on_c, 0, 62, 103
2, 155845, Note_on_c, 0, 62, 0
2, 155845, Note_on_c, 0, 74, 0
2, 155845, Note_on_c, 0, 79, 0
2, 155845, Note_on_c, 0, 71, 0
2, 155845, Note_on_c, 0, 50, 0
2, 155845, Note_on_c, 0, 83, 0
2, 155880, Note_on_c, 0, 67, 76
2, 155880, Note_on_c, 0, 74, 77
2, 155880, Note_on_c, 0, 79, 74
2, 155880, Note_on_c, 0, 50, 78
2, 155880, Note_on_c, 0, 55, 76
2, 155880, Note_on_c, 0, 59, 76
2, 156043, Note_on_c, 0, 59, 0
2, 156043, Note_on_c, 0, 74, 0
2, 156043, Note_on_c, 0, 79, 0
2, 156043, Note_on_c, 0, 67, 0
2, 156043, Note_on_c, 0, 55, 0
2, 156043, Note_on_c, 0, 50, 0
2, 156060, Note_on_c, 0, 69, 84
2, 156060, Note_on_c, 0, 74, 85
2, 156060, Note_on_c, 0, 81, 83
2, 156060, Note_on_c, 0, 50, 81
2, 156060, Note_on_c, 0, 57, 78
2, 156060, Note_on_c, 0, 59, 81
2, 156223, Note_on_c, 0, 59, 0
2, 156223, Note_on_c, 0, 74, 0
2, 156223, Note_on_c, 0, 81, 0
2, 156223, Note_on_c, 0, 69, 0
2, 156223, Note_on_c, 0, 57, 0
2, 156223, Note_on_c, 0, 50, 0
2, 156240, Note_on_c, 0, 71, 91
2, 156240, Note_on_c, 0, 74, 89
2, 156240, Note_on_c, 0, 79, 89
2, 156240, Note_on_c, 0, 83, 88
2, 156240, Note_on_c, 0, 50, 86
2, 156240, Note_on_c, 0, 55, 82
2, 156240, Note_on_c, 0, 59, 84
2, 156403, Note_on_c, 0, 59, 0
2, 156403, Note_on_c, 0, 50, 0
2, 156403, Note_on_c, 0, 74, 0
2, 156403, Note_on_c, 0, 79, 0
2, 156403, Note_on_c, 0, 71, 0
2, 156403, Note_on_c, 0, 55, 0
2, 156403, Note_on_c, 0, 83, 0
2, 156420, Note_on_c, 0, 74, 86
2, 156420, Note_on_c, 0, 79, 88
2, 156420, Note_on_c, 0, 83, 88
2, 156420, Note_on_c, 0, 86, 87
2, 156420, Note_on_c, 0, 50, 81
2, 156420, Note_on_c, 0, 55, 80
2, 156420, Note_on_c, 0, 59, 80
2, 156583, Note_on_c, 0, 59, 0
2, 156583, Note_on_c, 0, 50, 0
2, 156583, Note_on_c, 0, 79, 0
2, 156583, Note_on_c, 0, 83, 0
2, 156583, Note_on_c, 0, 74, 0
2, 156583, Note_on_c, 0, 55, 0
2, 156583, Note_on_c, 0, 86, 0
2, 156600, Note_on_c, 0, 76, 89
2, 156600, Note_on_c, 0, 79, 88
2, 156600, Note_on_c, 0, 83, 89
2, 156600, Note_on_c, 0, 88, 88
2, 156600, Note_on_c, 0, 52, 85
2, 156600, Note_on_c, 0, 55, 84
2, 156600, Note_on_c, 0, 59, 85
2, 156763, Note_on_c, 0, 59, 0
2, 156763, Note_on_c, 0, 52, 0
2, 156763, Note_on_c, 0, 79, 0
2, 156763, Note_on_c, 0, 83, 0
2, 156763, Note_on_c, 0, 76, 0
2, 156763, Note_on_c, 0, 55, 0
2, 156763, Note_on_c, 0, 88, 0
2, 156780, Note_on_c, 0, 78, 86
2, 156780, Note_on_c, 0, 83, 86
2, 156780, Note_on_c, 0, 86, 86
2, 156780, Note_on_c, 0, 90, 86
2, 156780, Note_on_c, 0, 54, 87
2, 156780, Note_on_c, 0, 59, 88
2, 156780, Note_on_c, 0, 62, 87
2, 156943, Note_on_c, 0, 62, 0
2, 156943, Note_on_c, 0, 54, 0
2, 156943, Note_on_c, 0, 83, 0
2, 156943, Note_on_c, 0, 86, 0
2, 156943, Note_on_c, 0, 78, 0
2, 156943, Note_on_c, 0, 59, 0
2, 156943, Note_on_c, 0, 90, 0
2, 156960, Note_on_c, 0, 79, 89
2, 156960, Note_on_c, 0, 83, 88
2, 156960, Note_on_c, 0, 86, 89
2, 156960, Note_on_c, 0, 91, 87
2, 156960, Note_on_c, 0, 55, 89
2, 156960, Note_on_c, 0, 59, 88
2, 156960, Note_on_c, 0, 64, 88
2, 157123, Note_on_c, 0, 64, 0
2, 157123, Note_on_c, 0, 55, 0
2, 157123, Note_on_c, 0, 83, 0
2, 157123, Note_on_c, 0, 86, 0
2, 157123, Note_on_c, 0, 79, 0
2, 157123, Note_on_c, 0, 59, 0
2, 157123, Note_on_c, 0, 91, 0
2, 157140, Note_on_c, 0, 81, 84
2, 157140, Note_on_c, 0, 86, 84
2, 157140, Note_on_c, 0, 93, 85
2, 157140, Note_on_c, 0, 57, 90
2, 157140, Note_on_c, 0, 62, 92
2, 157140, Note_on_c, 0, 69, 91
2, 157303, Note_on_c, 0, 69, 0
2, 157303, Note_on_c, 0, 86, 0
2, 157303, Note_on_c, 0, 93, 0
2, 157303, Note_on_c, 0, 81, 0
2, 157303, Note_on_c, 0, 62, 0
2, 157303, Note_on_c, 0, 57, 0
2, 157320, Note_on_c, 0, 83, 111
2, 157320, Note_on_c, 0, 86, 114
2, 157320, Note_on_c, 0, 91, 113
2, 157320, Note_on_c, 0, 95, 112
2, 157320, Note_on_c, 0, 59, 114
2, 157320, Note_on_c, 0, 62, 113
2, 157320, Note_on_c, 0, 67, 112
2, 157320, Note_on_c, 0, 71, 113
2, 157843, Note_on_c, 0, 71, 0
2, 157843, Note_on_c, 0, 83, 0
2, 157843, Note_on_c, 0, 59, 0
2, 157843, Note_on_c, 0, 86, 0
2, 157843, Note_on_c, 0, 91, 0
2, 157843, Note_on_c, 0, 95, 0
2, 157843, Note_on_c, 0, 62, 0
2, 157843, Note_on_c, 0, 67, 0
2, 157860, Note_on_c, 0, 78, 69
2, 157860, Note_on_c, 0, 83, 70
2, 157860, Note_on_c, 0, 86, 70
2, 157860, Note_on_c, 0, 90, 70
2, 157860, Note_on_c, 0, 55, 69
2, 157860, Note_on_c, 0, 59, 71
2, 157860, Note_on_c, 0, 66, 70
2, 158023, Note_on_c, 0, 66, 0
2, 158023, Note_on_c, 0, 55, 0
2, 158023, Note_on_c, 0, 83, 0
2, 158023, Note_on_c, 0, 86, 0
2, 158023, Note_on_c, 0, 78, 0
2, 158023, Note_on_c, 0, 59, 0
2, 158023, Note_on_c, 0, 90, 0
2, 158040, Note_on_c, 0, 76, 98
2, 158040, Note_on_c, 0, 79, 98
2, 158040, Note_on_c, 0, 83, 96
2, 158040, Note_on_c, 0, 88, 98
2, 158040, Note_on_c, 0, 55, 95
2, 158040, Note_on_c, 0, 59, 96
2, 158040, Note_on_c, 0, 64, 97
2, 158563, Note_on_c, 0, 64, 0
2, 158563, Note_on_c, 0, 55, 0
2, 158563, Note_on_c, 0, 79, 0
2, 158563, Note_on_c, 0, 83, 0
2, 158563, Note_on_c, 0, 76, 0
2, 158563, Note_on_c, 0, 59, 0
2, 158563, Note_on_c, 0, 88, 0
2, 158580, Note_on_c, 0, 71, 72
2, 158580, Note_on_c, 0, 83, 70
2, 158580, Note_on_c, 0, 59, 71
2, 158743, Note_on_c, 0, 59, 0
2, 158743, Note_on_c, 0, 83, 0
2, 158743, Note_on_c, 0, 71, 0
2, 158760, Note_on_c, 0, 69, 78
2, 158760, Note_on_c, 0, 72, 79
2, 158760, Note_on_c, 0, 78, 77
2, 158760, Note_on_c, 0, 81, 77
2, 158760, Note_on_c, 0, 50, 87
2, 158760, Note_on_c, 0, 54, 85
2, 158760, Note_on_c, 0, 60, 84
2, 158923, Note_on_c, 0, 60, 0
2, 158923, Note_on_c, 0, 50, 0
2, 158923, Note_on_c, 0, 72, 0
2, 158923, Note_on_c, 0, 78, 0
2, 158923, Note_on_c, 0, 69, 0
2, 158923, Note_on_c, 0, 54, 0
2, 158923, Note_on_c, 0, 81, 0
2, 158940, Note_on_c, 0, 71, 83
2, 158940, Note_on_c, 0, 83, 84
2, 158940, Note_on_c, 0, 59, 79
2, 159103, Note_on_c, 0, 59, 0
2, 159103, Note_on_c, 0, 83, 0
2, 159103, Note_on_c, 0, 71, 0
2, 159120, Note_on_c, 0, 67, 96
2, 159120, Note_on_c, 0, 71, 99
2, 159120, Note_on_c, 0, 74, 100
2, 159120, Note_on_c, 0, 79, 97
2, 159120, Note_on_c, 0, 55, 104
2, 159120, Note_on_c, 0, 59, 103
2, 159445, Note_on_c, 0, 59, 0
2, 159445, Note_on_c, 0, 71, 0
2, 159445, Note_on_c, 0, 74, 0
2, 159445, Note_on_c, 0, 67, 0
2, 159445, Note_on_c, 0, 55, 0
2, 159445, Note_on_c, 0, 79, 0
2, 159480, Note_on_c, 0, 62, 61
2, 159480, Note_on_c, 0, 50, 82
2, 159480, Note_on_c, 0, 53, 83
2, 159480, Note_on_c, 0, 59, 85
2, 159569, Note_on_c, 0, 59, 0
2, 159569, Note_on_c, 0, 62, 0
2, 159569, Note_on_c, 0, 50, 0
2, 159569, Note_on_c, 0, 53, 0
2, 159660, Note_on_c, 0, 64, 80
2, 159660, Note_on_c, 0, 50, 80
2, 159660, Note_on_c, 0, 53, 81
2, 159660, Note_on_c, 0, 59, 82
2, 159749, Note_on_c, 0, 59, 0
2, 159749, Note_on_c, 0, 64, 0
2, 159749, Note_on_c, 0, 50, 0
2, 159749, Note_on_c, 0, 53, 0
2, 159840, Note_on_c, 0, 65, 87
2, 159840, Note_on_c, 0, 50, 85
2, 159840, Note_on_c, 0, 53, 86
2, 159840, Note_on_c, 0, 59, 86
2, 159929, Note_on_c, 0, 59, 0
2, 159929, Note_on_c, 0, 65, 0
2, 159929, Note_on_c, 0, 50, 0
2, 159929, Note_on_c, 0, 53, 0
2, 160020, Note_on_c, 0, 67, 87
2, 160020, Note_on_c, 0, 50, 80
2, 160020, Note_on_c, 0, 53, 81
2, 160020, Note_on_c, 0, 59, 82
2, 160109, Note_on_c, 0, 59, 0
2, 160109, Note_on_c, 0, 67, 0
2, 160109, Note_on_c, 0, 50, 0
2, 160109, Note_on_c, 0, 53, 0
2, 160200, Note_on_c, 0, 69, 89
2, 160200, Note_on_c, 0, 50, 83
2, 160200, Note_on_c, 0, 53, 84
2, 160200, Note_on_c, 0, 59, 83
2, 160289, Note_on_c, 0, 59, 0
2, 160289, Note_on_c, 0, 69, 0
2, 160289, Note_on_c, 0, 50, 0
2, 160289, Note_on_c, 0, 53, 0
2, 160380, Note_on_c, 0, 67, 77
2, 160380, Note_on_c, 0, 50, 82
2, 160380, Note_on_c, 0, 53, 80
2, 160380, Note_on_c, 0, 59, 82
2, 160469, Note_on_c, 0, 59, 0
2, 160469, Note_on_c, 0, 67, 0
2, 160469, Note_on_c, 0, 50, 0
2, 160469, Note_on_c, 0, 53, 0
2, 160560, Note_on_c, 0, 65, 79
2, 160560, Note_on_c, 0, 50, 83
2, 160560, Note_on_c, 0, 53, 84
2, 160560, Note_on_c, 0, 59, 85
2, 160649, Note_on_c, 0, 59, 0
2, 160649, Note_on_c, 0, 65, 0
2, 160649, Note_on_c, 0, 50, 0
2, 160649, Note_on_c, 0, 53, 0
2, 160740, Note_on_c, 0, 64, 75
2, 160740, Note_on_c, 0, 50, 79
2, 160740, Note_on_c, 0, 53, 79
2, 160740, Note_on_c, 0, 59, 82
2, 160829, Note_on_c, 0, 59, 0
2, 160829, Note_on_c, 0, 64, 0
2, 160829, Note_on_c, 0, 50, 0
2, 160829, Note_on_c, 0, 53, 0
2, 160920, Note_on_c, 0, 62, 76
2, 160920, Note_on_c, 0, 50, 85
2, 160920, Note_on_c, 0, 53, 85
2, 160920, Note_on_c, 0, 59, 84
2, 161009, Note_on_c, 0, 59, 0
2, 161009, Note_on_c, 0, 62, 0
2, 161009, Note_on_c, 0, 50, 0
2, 161009, Note_on_c, 0, 53, 0
2, 161100, Note_on_c, 0, 64, 85
2, 161100, Note_on_c, 0, 50, 82
2, 161100, Note_on_c, 0, 53, 82
2, 161100, Note_on_c, 0, 59, 82
2, 161189, Note_on_c, 0, 59, 0
2, 161189, Note_on_c, 0, 64, 0
2, 161189, Note_on_c, 0, 50, 0
2, 161189, Note_on_c, 0, 53, 0
2, 161280, Note_on_c, 0, 65, 67
2, 161280, Note_on_c, 0, 50, 83
2, 161280, Note_on_c, 0, 53, 82
2, 161280, Note_on_c, 0, 59, 84
2, 161369, Note_on_c, 0, 59, 0
2, 161369, Note_on_c, 0, 53, 0
2, 161369, Note_on_c, 0, 50, 0
2, 161460, Note_on_c, 0, 50, 80
2, 161460, Note_on_c, 0, 53, 80
2, 161460, Note_on_c, 0, 59, 80
2, 161549, Note_on_c, 0, 59, 0
2, 161549, Note_on_c, 0, 53, 0
2, 161549, Note_on_c, 0, 50, 0
2, 161640, Note_on_c, 0, 65, 0
2, 161640, Note_on_c, 0, 70, 73
2, 161640, Note_on_c, 0, 62, 73
2, 161640, Note_on_c, 0, 50, 80
2, 161640, Note_on_c, 0, 53, 81
2, 161640, Note_on_c, 0, 58, 79
2, 161729, Note_on_c, 0, 58, 0
2, 161729, Note_on_c, 0, 50, 0
2, 161729, Note_on_c, 0, 53, 0
2, 161729, Note_on_c, 0, 62, 0
2, 161820, Note_on_c, 0, 64, 82
2, 161820, Note_on_c, 0, 50, 79
2, 161820, Note_on_c, 0, 53, 82
2, 161820, Note_on_c, 0, 58, 80
2, 161909, Note_on_c, 0, 58, 0
2, 161909, Note_on_c, 0, 50, 0
2, 161909, Note_on_c, 0, 53, 0
2, 161909, Note_on_c, 0, 64, 0
2, 161965, Note_on_c, 0, 70, 0
2, 162000, Note_on_c, 0, 71, 82
2, 162000, Note_on_c, 0, 65, 86
2, 162000, Note_on_c, 0, 50, 88
2, 162000, Note_on_c, 0, 53, 87
2, 162000, Note_on_c, 0, 59, 87
2, 162089, Note_on_c, 0, 59, 0
2, 162089, Note_on_c, 0, 50, 0
2, 162089, Note_on_c, 0, 53, 0
2, 162089, Note_on_c, 0, 65, 0
2, 162180, Note_on_c, 0, 67, 86
2, 162180, Note_on_c, 0, 50, 80
2, 162180, Note_on_c, 0, 53, 81
2, 162180, Note_on_c, 0, 59, 81
2, 162269, Note_on_c, 0, 59, 0
2, 162269, Note_on_c, 0, 50, 0
2, 162269, Note_on_c, 0, 53, 0
2, 162269, Note_on_c, 0, 67, 0
2, 162360, Note_on_c, 0, 69, 88
2, 162360, Note_on_c, 0, 50, 85
2, 162360, Note_on_c, 0, 53, 84
2, 162360, Note_on_c, 0, 59, 84
2, 162449, Note_on_c, 0, 59, 0
2, 162449, Note_on_c, 0, 50, 0
2, 162449, Note_on_c, 0, 53, 0
2, 162449, Note_on_c, 0, 69, 0
2, 162540, Note_on_c, 0, 67, 77
2, 162540, Note_on_c, 0, 50, 81
2, 162540, Note_on_c, 0, 53, 82
2, 162540, Note_on_c, 0, 59, 82
2, 162629, Note_on_c, 0, 59, 0
2, 162629, Note_on_c, 0, 50, 0
2, 162629, Note_on_c, 0, 53, 0
2, 162629, Note_on_c, 0, 67, 0
2, 162720, Note_on_c, 0, 65, 82
2, 162720, Note_on_c, 0, 50, 82
2, 162720, Note_on_c, 0, 53, 84
2, 162720, Note_on_c, 0, 59, 82
2, 162809, Note_on_c, 0, 59, 0
2, 162809, Note_on_c, 0, 50, 0
2, 162809, Note_on_c, 0, 53, 0
2, 162900, Note_on_c, 0, 50, 82
2, 162900, Note_on_c, 0, 53, 81
2, 162900, Note_on_c, 0, 59, 82
2, 162989, Note_on_c, 0, 59, 0
2, 162989, Note_on_c, 0, 50, 0
2, 162989, Note_on_c, 0, 53, 0
2, 163080, Note_on_c, 0, 65, 0
2, 163080, Note_on_c, 0, 67, 89
2, 163080, Note_on_c, 0, 50, 85
2, 163080, Note_on_c, 0, 53, 83
2, 163080, Note_on_c, 0, 59, 84
2, 163169, Note_on_c, 0, 59, 0
2, 163169, Note_on_c, 0, 50, 0
2, 163169, Note_on_c, 0, 53, 0
2, 163169, Note_on_c, 0, 67, 0
2, 163260, Note_on_c, 0, 65, 77
2, 163260, Note_on_c, 0, 50, 81
2, 163260, Note_on_c, 0, 53, 82
2, 163260, Note_on_c, 0, 59, 79
2, 163349, Note_on_c, 0, 59, 0
2, 163349, Note_on_c, 0, 50, 0
2, 163349, Note_on_c, 0, 53, 0
2, 163349, Note_on_c, 0, 65, 0
2, 163440, Note_on_c, 0, 64, 78
2, 163440, Note_on_c, 0, 52, 84
2, 163440, Note_on_c, 0, 55, 84
2, 163440, Note_on_c, 0, 59, 83
2, 163529, Note_on_c, 0, 59, 0
2, 163529, Note_on_c, 0, 52, 0
2, 163529, Note_on_c, 0, 55, 0
2, 163529, Note_on_c, 0, 64, 0
2, 163620, Note_on_c, 0, 65, 81
2, 163620, Note_on_c, 0, 52, 83
2, 163620, Note_on_c, 0, 55, 82
2, 163620, Note_on_c, 0, 59, 80
2, 163709, Note_on_c, 0, 59, 0
2, 163709, Note_on_c, 0, 52, 0
2, 163709, Note_on_c, 0, 55, 0
2, 163709, Note_on_c, 0, 65, 0
2, 163800, Note_on_c, 0, 67, 91
2, 163800, Note_on_c, 0, 52, 85
2, 163800, Note_on_c, 0, 55, 83
2, 163800, Note_on_c, 0, 59, 83
2, 163889, Note_on_c, 0, 59, 0
2, 163889, Note_on_c, 0, 52, 0
2, 163889, Note_on_c, 0, 55, 0
2, 163980, Note_on_c, 0, 52, 82
2, 163980, Note_on_c, 0, 55, 83
2, 163980, Note_on_c, 0, 59, 79
2, 164069, Note_on_c, 0, 59, 0
2, 164069, Note_on_c, 0, 52, 0
2, 164069, Note_on_c, 0, 55, 0
2, 164090, Note_on_c, 0, 71, 0
2, 164160, Note_on_c, 0, 72, 86
2, 164160, Note_on_c, 0, 52, 88
2, 164160, Note_on_c, 0, 55, 88
2, 164160, Note_on_c, 0, 60, 88
2, 164249, Note_on_c, 0, 60, 0
2, 164249, Note_on_c, 0, 52, 0
2, 164249, Note_on_c, 0, 55, 0
2, 164340, Note_on_c, 0, 52, 79
2, 164340, Note_on_c, 0, 55, 83
2, 164340, Note_on_c, 0, 60, 83
2, 164429, Note_on_c, 0, 60, 0
2, 164429, Note_on_c, 0, 52, 0
2, 164429, Note_on_c, 0, 55, 0
2, 164485, Note_on_c, 0, 67, 0
2, 164520, Note_on_c, 0, 64, 79
2, 164520, Note_on_c, 0, 52, 83
2, 164520, Note_on_c, 0, 55, 84
2, 164520, Note_on_c, 0, 60, 86
2, 164609, Note_on_c, 0, 60, 0
2, 164609, Note_on_c, 0, 52, 0
2, 164609, Note_on_c, 0, 55, 0
2, 164609, Note_on_c, 0, 64, 0
2, 164700, Note_on_c, 0, 65, 85
2, 164700, Note_on_c, 0, 52, 81
2, 164700, Note_on_c, 0, 55, 81
2, 164700, Note_on_c, 0, 60, 82
2, 164789, Note_on_c, 0, 60, 0
2, 164789, Note_on_c, 0, 52, 0
2, 164789, Note_on_c, 0, 55, 0
2, 164789, Note_on_c, 0, 65, 0
2, 164810, Note_on_c, 0, 72, 0
2, 164880, Note_on_c, 0, 73, 85
2, 164880, Note_on_c, 0, 67, 89
2, 164880, Note_on_c, 0, 52, 87
2, 164880, Note_on_c, 0, 55, 88
2, 164880, Note_on_c, 0, 61, 88
2, 164969, Note_on_c, 0, 61, 0
2, 164969, Note_on_c, 0, 52, 0
2, 164969, Note_on_c, 0, 55, 0
2, 164969, Note_on_c, 0, 67, 0
2, 165060, Note_on_c, 0, 69, 87
2, 165060, Note_on_c, 0, 52, 83
2, 165060, Note_on_c, 0, 55, 80
2, 165060, Note_on_c, 0, 61, 81
2, 165149, Note_on_c, 0, 61, 0
2, 165149, Note_on_c, 0, 52, 0
2, 165149, Note_on_c, 0, 55, 0
2, 165149, Note_on_c, 0, 69, 0
2, 165240, Note_on_c, 0, 70, 87
2, 165240, Note_on_c, 0, 52, 83
2, 165240, Note_on_c, 0, 55, 84
2, 165240, Note_on_c, 0, 61, 84
2, 165329, Note_on_c, 0, 61, 0
2, 165329, Note_on_c, 0, 52, 0
2, 165329, Note_on_c, 0, 55, 0
2, 165329, Note_on_c, 0, 70, 0
2, 165420, Note_on_c, 0, 69, 79
2, 165420, Note_on_c, 0, 52, 79
2, 165420, Note_on_c, 0, 55, 82
2, 165420, Note_on_c, 0, 61, 81
2, 165509, Note_on_c, 0, 61, 0
2, 165509, Note_on_c, 0, 52, 0
2, 165509, Note_on_c, 0, 55, 0
2, 165509, Note_on_c, 0, 69, 0
2, 165600, Note_on_c, 0, 67, 79
2, 165600, Note_on_c, 0, 52, 83
2, 165600, Note_on_c, 0, 55, 85
2, 165600, Note_on_c, 0, 61, 84
2, 165689, Note_on_c, 0, 61, 0
2, 165689, Note_on_c, 0, 52, 0
2, 165689, Note_on_c, 0, 55, 0
2, 165689, Note_on_c, 0, 67, 0
2, 165780, Note_on_c, 0, 65, 73
2, 165780, Note_on_c, 0, 52, 79
2, 165780, Note_on_c, 0, 55, 80
2, 165780, Note_on_c, 0, 61, 82
2, 165869, Note_on_c, 0, 61, 0
2, 165869, Note_on_c, 0, 52, 0
2, 165869, Note_on_c, 0, 55, 0
2, 165869, Note_on_c, 0, 65, 0
2, 165960, Note_on_c, 0, 64, 79
2, 165960, Note_on_c, 0, 52, 84
2, 165960, Note_on_c, 0, 55, 83
2, 165960, Note_on_c, 0, 61, 84
2, 166049, Note_on_c, 0, 61, 0
2, 166049, Note_on_c, 0, 52, 0
2, 166049, Note_on_c, 0, 55, 0
2, 166049, Note_on_c, 0, 64, 0
2, 166140, Note_on_c, 0, 65, 84
2, 166140, Note_on_c, 0, 52, 83
2, 166140, Note_on_c, 0, 55, 79
2, 166140, Note_on_c, 0, 61, 81
2, 166229, Note_on_c, 0, 61, 0
2, 166229, Note_on_c, 0, 52, 0
2, 166229, Note_on_c, 0, 55, 0
2, 166229, Note_on_c, 0, 65, 0
2, 166320, Note_on_c, 0, 67, 94
2, 166320, Note_on_c, 0, 52, 86
2, 166320, Note_on_c, 0, 55, 85
2, 166320, Note_on_c, 0, 61, 84
2, 166409, Note_on_c, 0, 61, 0
2, 166409, Note_on_c, 0, 52, 0
2, 166409, Note_on_c, 0, 55, 0
2, 166500, Note_on_c, 0, 52, 80
2, 166500, Note_on_c, 0, 55, 80
2, 166500, Note_on_c, 0, 61, 81
2, 166589, Note_on_c, 0, 61, 0
2, 166589, Note_on_c, 0, 52, 0
2, 166589, Note_on_c, 0, 55, 0
2, 166610, Note_on_c, 0, 73, 0
2, 166680, Note_on_c, 0, 67, 0
2, 166680, Note_on_c, 0, 72, 78
2, 166680, Note_on_c, 0, 62, 73
2, 166680, Note_on_c, 0, 52, 79
2, 166680, Note_on_c, 0, 55, 80
2, 166680, Note_on_c, 0, 60, 80
2, 166769, Note_on_c, 0, 60, 0
2, 166769, Note_on_c, 0, 52, 0
2, 166769, Note_on_c, 0, 55, 0
2, 166769, Note_on_c, 0, 62, 0
2, 166860, Note_on_c, 0, 64, 82
2, 166860, Note_on_c, 0, 53, 80
2, 166860, Note_on_c, 0, 57, 81
2, 166860, Note_on_c, 0, 60, 80
2, 166949, Note_on_c, 0, 60, 0
2, 166949, Note_on_c, 0, 53, 0
2, 166949, Note_on_c, 0, 57, 0
2, 166949, Note_on_c, 0, 64, 0
2, 167005, Note_on_c, 0, 72, 0
2, 167040, Note_on_c, 0, 73, 86
2, 167040, Note_on_c, 0, 67, 92
2, 167040, Note_on_c, 0, 52, 89
2, 167040, Note_on_c, 0, 55, 88
2, 167040, Note_on_c, 0, 61, 87
2, 167129, Note_on_c, 0, 61, 0
2, 167129, Note_on_c, 0, 52, 0
2, 167129, Note_on_c, 0, 55, 0
2, 167129, Note_on_c, 0, 67, 0
2, 167220, Note_on_c, 0, 65, 77
2, 167220, Note_on_c, 0, 52, 82
2, 167220, Note_on_c, 0, 55, 80
2, 167220, Note_on_c, 0, 61, 82
2, 167309, Note_on_c, 0, 61, 0
2, 167309, Note_on_c, 0, 52, 0
2, 167309, Note_on_c, 0, 55, 0
2, 167309, Note_on_c, 0, 65, 0
2, 167400, Note_on_c, 0, 64, 77
2, 167400, Note_on_c, 0, 52, 86
2, 167400, Note_on_c, 0, 55, 83
2, 167400, Note_on_c, 0, 61, 85
2, 167489, Note_on_c, 0, 61, 0
2, 167489, Note_on_c, 0, 52, 0
2, 167489, Note_on_c, 0, 55, 0
2, 167489, Note_on_c, 0, 64, 0
2, 167580, Note_on_c, 0, 65, 84
2, 167580, Note_on_c, 0, 52, 82
2, 167580, Note_on_c, 0, 55, 79
2, 167580, Note_on_c, 0, 61, 82
2, 167669, Note_on_c, 0, 61, 0
2, 167669, Note_on_c, 0, 52, 0
2, 167669, Note_on_c, 0, 55, 0
2, 167669, Note_on_c, 0, 65, 0
2, 167760, Note_on_c, 0, 67, 93
2, 167760, Note_on_c, 0, 52, 85
2, 167760, Note_on_c, 0, 55, 83
2, 167760, Note_on_c, 0, 61, 83
2, 167849, Note_on_c, 0, 61, 0
2, 167849, Note_on_c, 0, 52, 0
2, 167849, Note_on_c, 0, 55, 0
2, 167940, Note_on_c, 0, 52, 82
2, 167940, Note_on_c, 0, 55, 80
2, 167940, Note_on_c, 0, 61, 80
2, 168029, Note_on_c, 0, 61, 0
2, 168029, Note_on_c, 0, 52, 0
2, 168029, Note_on_c, 0, 55, 0
2, 168050, Note_on_c, 0, 73, 0
2, 168120, Note_on_c, 0, 67, 0
2, 168120, Note_on_c, 0, 73, 79
2, 168120, Note_on_c, 0, 69, 90
2, 168120, Note_on_c, 0, 52, 85
2, 168120, Note_on_c, 0, 55, 85
2, 168120, Note_on_c, 0, 61, 83
2, 168209, Note_on_c, 0, 61, 0
2, 168209, Note_on_c, 0, 52, 0
2, 168209, Note_on_c, 0, 55, 0
2, 168209, Note_on_c, 0, 69, 0
2, 168300, Note_on_c, 0, 67, 78
2, 168300, Note_on_c, 0, 52, 81
2, 168300, Note_on_c, 0, 55, 80
2, 168300, Note_on_c, 0, 61, 81
2, 168389, Note_on_c, 0, 61, 0
2, 168389, Note_on_c, 0, 52, 0
2, 168389, Note_on_c, 0, 55, 0
2, 168389, Note_on_c, 0, 67, 0
2, 168445, Note_on_c, 0, 73, 0
2, 168480, Note_on_c, 0, 65, 88
2, 168480, Note_on_c, 0, 74, 85
2, 168480, Note_on_c, 0, 53, 89
2, 168480, Note_on_c, 0, 57, 85
2, 168480, Note_on_c, 0, 62, 86
2, 168569, Note_on_c, 0, 62, 0
2, 168569, Note_on_c, 0, 53, 0
2, 168569, Note_on_c, 0, 65, 0
2, 168569, Note_on_c, 0, 74, 0
2, 168569, Note_on_c, 0, 57, 0
2, 168660, Note_on_c, 0, 45, 72
2, 168660, Note_on_c, 0, 57, 71
2, 168749, Note_on_c, 0, 57, 0
2, 168749, Note_on_c, 0, 45, 0
2, 168840, Note_on_c, 0, 62, 78
2, 168840, Note_on_c, 0, 65, 76
2, 168840, Note_on_c, 0, 70, 78
2, 168840, Note_on_c, 0, 46, 85
2, 168840, Note_on_c, 0, 58, 86
2, 169003, Note_on_c, 0, 70, 0
2, 169003, Note_on_c, 0, 62, 0
2, 169003, Note_on_c, 0, 65, 0
2, 169020, Note_on_c, 0, 63, 83
2, 169020, Note_on_c, 0, 65, 83
2, 169020, Note_on_c, 0, 70, 84
2, 169020, Note_on_c, 0, 72, 83
2, 169183, Note_on_c, 0, 72, 0
2, 169183, Note_on_c, 0, 65, 0
2, 169183, Note_on_c, 0, 63, 0
2, 169183, Note_on_c, 0, 70, 0
2, 169200, Note_on_c, 0, 62, 87
2, 169200, Note_on_c, 0, 65, 87
2, 169200, Note_on_c, 0, 70, 86
2, 169200, Note_on_c, 0, 74, 86
2, 169363, Note_on_c, 0, 58, 0
2, 169363, Note_on_c, 0, 46, 0
2, 169380, Note_on_c, 0, 41, 70
2, 169380, Note_on_c, 0, 53, 69
2, 169543, Note_on_c, 0, 53, 0
2, 169543, Note_on_c, 0, 41, 0
2, 169560, Note_on_c, 0, 43, 87
2, 169560, Note_on_c, 0, 55, 87
2, 169723, Note_on_c, 0, 55, 0
2, 169723, Note_on_c, 0, 43, 0
2, 169740, Note_on_c, 0, 45, 84
2, 169740, Note_on_c, 0, 57, 85
2, 169903, Note_on_c, 0, 57, 0
2, 169903, Note_on_c, 0, 45, 0
2, 169920, Note_on_c, 0, 46, 90
2, 169920, Note_on_c, 0, 58, 87
2, 170083, Note_on_c, 0, 62, 0
2, 170083, Note_on_c, 0, 70, 0
2, 170083, Note_on_c, 0, 65, 0
2, 170083, Note_on_c, 0, 74, 0
2, 170100, Note_on_c, 0, 64, 76
2, 170100, Note_on_c, 0, 70, 78
2, 170100, Note_on_c, 0, 73, 76
2, 170263, Note_on_c, 0, 73, 0
2, 170263, Note_on_c, 0, 64, 0
2, 170263, Note_on_c, 0, 70, 0
2, 170280, Note_on_c, 0, 65, 86
2, 170280, Note_on_c, 0, 70, 88
2, 170280, Note_on_c, 0, 74, 88
2, 170443, Note_on_c, 0, 74, 0
2, 170443, Note_on_c, 0, 65, 0
2, 170443, Note_on_c, 0, 70, 0
2, 170460, Note_on_c, 0, 67, 84
2, 170460, Note_on_c, 0, 74, 84
2, 170460, Note_on_c, 0, 76, 84
2, 170623, Note_on_c, 0, 76, 0
2, 170623, Note_on_c, 0, 67, 0
2, 170623, Note_on_c, 0, 74, 0
2, 170640, Note_on_c, 0, 65, 84
2, 170640, Note_on_c, 0, 74, 84
2, 170640, Note_on_c, 0, 77, 84
2, 170803, Note_on_c, 0, 58, 0
2, 170803, Note_on_c, 0, 46, 0
2, 170820, Note_on_c, 0, 45, 77
2, 170820, Note_on_c, 0, 57, 78
2, 170983, Note_on_c, 0, 57, 0
2, 170983, Note_on_c, 0, 45, 0
2, 171000, Note_on_c, 0, 47, 89
2, 171000, Note_on_c, 0, 59, 87
2, 171163, Note_on_c, 0, 59, 0
2, 171163, Note_on_c, 0, 47, 0
2, 171180, Note_on_c, 0, 49, 86
2, 171180, Note_on_c, 0, 61, 88
2, 171343, Note_on_c, 0, 61, 0
2, 171343, Note_on_c, 0, 49, 0
2, 171360, Note_on_c, 0, 50, 89
2, 171360, Note_on_c, 0, 62, 88
2, 171523, Note_on_c, 0, 77, 0
2, 171523, Note_on_c, 0, 74, 0
2, 171523, Note_on_c, 0, 65, 0
2, 171540, Note_on_c, 0, 67, 77
2, 171540, Note_on_c, 0, 74, 77
2, 171540, Note_on_c, 0, 76, 75
2, 171685, Note_on_c, 0, 50, 0
2, 171685, Note_on_c, 0, 62, 0
2, 171703, Note_on_c, 0, 74, 0
2, 171703, Note_on_c, 0, 67, 0
2, 171703, Note_on_c, 0, 76, 0
2, 171720, Note_on_c, 0, 69, 85
2, 171720, Note_on_c, 0, 74, 87
2, 171720, Note_on_c, 0, 77, 84
2, 171720, Note_on_c, 0, 50, 83
2, 171720, Note_on_c, 0, 62, 79
2, 171883, Note_on_c, 0, 62, 0
2, 171883, Note_on_c, 0, 77, 0
2, 171883, Note_on_c, 0, 69, 0
2, 171883, Note_on_c, 0, 74, 0
2, 171883, Note_on_c, 0, 50, 0
2, 171900, Note_on_c, 0, 67, 85
2, 171900, Note_on_c, 0, 74, 85
2, 171900, Note_on_c, 0, 79, 86
2, 171900, Note_on_c, 0, 52, 81
2, 171900, Note_on_c, 0, 55, 82
2, 171900, Note_on_c, 0, 62, 82
2, 172063, Note_on_c, 0, 62, 0
2, 172063, Note_on_c, 0, 74, 0
2, 172063, Note_on_c, 0, 79, 0
2, 172063, Note_on_c, 0, 67, 0
2, 172063, Note_on_c, 0, 55, 0
2, 172063, Note_on_c, 0, 52, 0
2, 172080, Note_on_c, 0, 69, 88
2, 172080, Note_on_c, 0, 74, 87
2, 172080, Note_on_c, 0, 81, 88
2, 172080, Note_on_c, 0, 53, 84
2, 172080, Note_on_c, 0, 57, 83
2, 172080, Note_on_c, 0, 62, 86
2, 172243, Note_on_c, 0, 81, 0
2, 172243, Note_on_c, 0, 69, 0
2, 172243, Note_on_c, 0, 74, 0
2, 172260, Note_on_c, 0, 67, 77
2, 172260, Note_on_c, 0, 79, 76
2, 172405, Note_on_c, 0, 53, 0
2, 172405, Note_on_c, 0, 62, 0
2, 172405, Note_on_c, 0, 57, 0
2, 172423, Note_on_c, 0, 67, 0
2, 172423, Note_on_c, 0, 79, 0
2, 172440, Note_on_c, 0, 69, 88
2, 172440, Note_on_c, 0, 73, 89
2, 172440, Note_on_c, 0, 79, 87
2, 172440, Note_on_c, 0, 81, 86
2, 172440, Note_on_c, 0, 52, 75
2, 172440, Note_on_c, 0, 55, 79
2, 172440, Note_on_c, 0, 61, 75
2, 172603, Note_on_c, 0, 81, 0
2, 172603, Note_on_c, 0, 79, 0
2, 172603, Note_on_c, 0, 69, 0
2, 172603, Note_on_c, 0, 73, 0
2, 172620, Note_on_c, 0, 71, 87
2, 172620, Note_on_c, 0, 83, 87
2, 172765, Note_on_c, 0, 61, 0
2, 172765, Note_on_c, 0, 55, 0
2, 172765, Note_on_c, 0, 52, 0
2, 172783, Note_on_c, 0, 71, 0
2, 172783, Note_on_c, 0, 83, 0
2, 172800, Note_on_c, 0, 72, 90
2, 172800, Note_on_c, 0, 77, 89
2, 172800, Note_on_c, 0, 81, 86
2, 172800, Note_on_c, 0, 84, 90
2, 172800, Note_on_c, 0, 50, 77
2, 172800, Note_on_c, 0, 53, 78
2, 172800, Note_on_c, 0, 57, 78
2, 172800, Note_on_c, 0, 60, 81
2, 172963, Note_on_c, 0, 84, 0
2, 172963, Note_on_c, 0, 81, 0
2, 172963, Note_on_c, 0, 72, 0
2, 172963, Note_on_c, 0, 77, 0
2, 172980, Note_on_c, 0, 74, 87
2, 172980, Note_on_c, 0, 86, 85
2, 173125, Note_on_c, 0, 50, 0
2, 173125, Note_on_c, 0, 57, 0
2, 173125, Note_on_c, 0, 60, 0
2, 173125, Note_on_c, 0, 53, 0
2, 173143, Note_on_c, 0, 86, 0
2, 173143, Note_on_c, 0, 74, 0
2, 173160, Note_on_c, 0, 76, 91
2, 173160, Note_on_c, 0, 80, 88
2, 173160, Note_on_c, 0, 88, 87
2, 173160, Note_on_c, 0, 48, 84
2, 173160, Note_on_c, 0, 53, 87
2, 173160, Note_on_c, 0, 56, 84
2, 173160, Note_on_c, 0, 62, 86
2, 173323, Note_on_c, 0, 88, 0
2, 173323, Note_on_c, 0, 76, 0
2, 173323, Note_on_c, 0, 80, 0
2, 173340, Note_on_c, 0, 77, 84
2, 173340, Note_on_c, 0, 89, 84
2, 173485, Note_on_c, 0, 53, 0
2, 173485, Note_on_c, 0, 62, 0
2, 173485, Note_on_c, 0, 48, 0
2, 173485, Note_on_c, 0, 56, 0
2, 173503, Note_on_c, 0, 89, 0
2, 173503, Note_on_c, 0, 77, 0
2, 173520, Note_on_c, 0, 79, 89
2, 173520, Note_on_c, 0, 86, 90
2, 173520, Note_on_c, 0, 89, 90
2, 173520, Note_on_c, 0, 91, 89
2, 173520, Note_on_c, 0, 47, 86
2, 173520, Note_on_c, 0, 53, 84
2, 173520, Note_on_c, 0, 55, 85
2, 173520, Note_on_c, 0, 62, 85
2, 173683, Note_on_c, 0, 62, 0
2, 173683, Note_on_c, 0, 79, 0
2, 173683, Note_on_c, 0, 47, 0
2, 173683, Note_on_c, 0, 86, 0
2, 173683, Note_on_c, 0, 89, 0
2, 173683, Note_on_c, 0, 91, 0
2, 173683, Note_on_c, 0, 53, 0
2, 173683, Note_on_c, 0, 55, 0
2, 173700, Note_on_c, 0, 67, 60
2, 173700, Note_on_c, 0, 79, 58
2, 173700, Note_on_c, 0, 45, 68
2, 173700, Note_on_c, 0, 57, 72
2, 173863, Note_on_c, 0, 57, 0
2, 173863, Note_on_c, 0, 67, 0
2, 173863, Note_on_c, 0, 79, 0
2, 173863, Note_on_c, 0, 45, 0
2, 173880, Note_on_c, 0, 69, 87
2, 173880, Note_on_c, 0, 74, 83
2, 173880, Note_on_c, 0, 77, 86
2, 173880, Note_on_c, 0, 81, 87
2, 173880, Note_on_c, 0, 43, 75
2, 173880, Note_on_c, 0, 55, 77
2, 174043, Note_on_c, 0, 81, 0
2, 174043, Note_on_c, 0, 77, 0
2, 174043, Note_on_c, 0, 69, 0
2, 174043, Note_on_c, 0, 74, 0
2, 174060, Note_on_c, 0, 71, 83
2, 174060, Note_on_c, 0, 83, 84
2, 174205, Note_on_c, 0, 55, 0
2, 174205, Note_on_c, 0, 43, 0
2, 174223, Note_on_c, 0, 71, 0
2, 174223, Note_on_c, 0, 83, 0
2, 174240, Note_on_c, 0, 72, 86
2, 174240, Note_on_c, 0, 76, 88
2, 174240, Note_on_c, 0, 79, 87
2, 174240, Note_on_c, 0, 84, 88
2, 174240, Note_on_c, 0, 48, 93
2, 174240, Note_on_c, 0, 52, 91
2, 174240, Note_on_c, 0, 55, 93
2, 174240, Note_on_c, 0, 60, 93
2, 174565, Note_on_c, 0, 60, 0
2, 174565, Note_on_c, 0, 72, 0
2, 174565, Note_on_c, 0, 48, 0
2, 174565, Note_on_c, 0, 76, 0
2, 174565, Note_on_c, 0, 79, 0
2, 174565, Note_on_c, 0, 84, 0
2, 174565, Note_on_c, 0, 52, 0
2, 174565, Note_on_c, 0, 55, 0
2, 174600, Note_on_c, 0, 72, 83
2, 174600, Note_on_c, 0, 76, 84
2, 174600, Note_on_c, 0, 84, 83
2, 174600, Note_on_c, 0, 52, 86
2, 174600, Note_on_c, 0, 55, 84
2, 174600, Note_on_c, 0, 60, 83
2, 174763, Note_on_c, 0, 60, 0
2, 174763, Note_on_c, 0, 76, 0
2, 174763, Note_on_c, 0, 84, 0
2, 174763, Note_on_c, 0, 72, 0
2, 174763, Note_on_c, 0, 55, 0
2, 174763, Note_on_c, 0, 52, 0
2, 174780, Note_on_c, 0, 74, 86
2, 174780, Note_on_c, 0, 77, 84
2, 174780, Note_on_c, 0, 86, 86
2, 174780, Note_on_c, 0, 53, 87
2, 174780, Note_on_c, 0, 55, 84
2, 174780, Note_on_c, 0, 62, 86
2, 174943, Note_on_c, 0, 62, 0
2, 174943, Note_on_c, 0, 77, 0
2, 174943, Note_on_c, 0, 86, 0
2, 174943, Note_on_c, 0, 74, 0
2, 174943, Note_on_c, 0, 55, 0
2, 174943, Note_on_c, 0, 53, 0
2, 174960, Note_on_c, 0, 76, 115
2, 174960, Note_on_c, 0, 79, 114
2, 174960, Note_on_c, 0, 84, 112
2, 174960, Note_on_c, 0, 88, 111
2, 174960, Note_on_c, 0, 52, 127
2, 174960, Note_on_c, 0, 55, 127
2, 174960, Note_on_c, 0, 60, 127
2, 174960, Note_on_c, 0, 64, 127
2, 175140, Note_on_c, 0, 55, 117
2, 175303, Note_on_c, 0, 55, 0
2, 175320, Note_on_c, 0, 57, 96
2, 175483, Note_on_c, 0, 57, 0
2, 175500, Note_on_c, 0, 59, 110
2, 175610, Note_on_c, 0, 55, 0
2, 175610, Note_on_c, 0, 64, 0
2, 175610, Note_on_c, 0, 60, 0
2, 175610, Note_on_c, 0, 52, 0
2, 175663, Note_on_c, 0, 59, 0
2, 175680, Note_on_c, 0, 60, 112
2, 176005, Note_on_c, 0, 60, 0
2, 176005, Note_on_c, 0, 79, 0
2, 176005, Note_on_c, 0, 88, 0
2, 176005, Note_on_c, 0, 76, 0
2, 176005, Note_on_c, 0, 84, 0
2, 176040, Note_on_c, 0, 72, 73
2, 176040, Note_on_c, 0, 76, 75
2, 176040, Note_on_c, 0, 84, 74
2, 176040, Note_on_c, 0, 52, 83
2, 176040, Note_on_c, 0, 55, 83
2, 176040, Note_on_c, 0, 60, 84
2, 176203, Note_on_c, 0, 60, 0
2, 176203, Note_on_c, 0, 76, 0
2, 176203, Note_on_c, 0, 84, 0
2, 176203, Note_on_c, 0, 72, 0
2, 176203, Note_on_c, 0, 55, 0
2, 176203, Note_on_c, 0, 52, 0
2, 176220, Note_on_c, 0, 74, 84
2, 176220, Note_on_c, 0, 77, 82
2, 176220, Note_on_c, 0, 86, 83
2, 176220, Note_on_c, 0, 53, 83
2, 176220, Note_on_c, 0, 55, 83
2, 176220, Note_on_c, 0, 62, 85
2, 176383, Note_on_c, 0, 62, 0
2, 176383, Note_on_c, 0, 77, 0
2, 176383, Note_on_c, 0, 86, 0
2, 176383, Note_on_c, 0, 74, 0
2, 176383, Note_on_c, 0, 55, 0
2, 176383, Note_on_c, 0, 53, 0
2, 176400, Note_on_c, 0, 76, 87
2, 176400, Note_on_c, 0, 79, 87
2, 176400, Note_on_c, 0, 88, 89
2, 176400, Note_on_c, 0, 55, 89
2, 176400, Note_on_c, 0, 60, 90
2, 176400, Note_on_c, 0, 64, 90
2, 176563, Note_on_c, 0, 64, 0
2, 176563, Note_on_c, 0, 79, 0
2, 176563, Note_on_c, 0, 88, 0
2, 176563, Note_on_c, 0, 76, 0
2, 176563, Note_on_c, 0, 60, 0
2, 176563, Note_on_c, 0, 55, 0
2, 176580, Note_on_c, 0, 77, 87
2, 176580, Note_on_c, 0, 81, 84
2, 176580, Note_on_c, 0, 89, 86
2, 176580, Note_on_c, 0, 57, 86
2, 176580, Note_on_c, 0, 60, 86
2, 176580, Note_on_c, 0, 65, 84
2, 176743, Note_on_c, 0, 65, 0
2, 176743, Note_on_c, 0, 81, 0
2, 176743, Note_on_c, 0, 89, 0
2, 176743, Note_on_c, 0, 77, 0
2, 176743, Note_on_c, 0, 60, 0
2, 176743, Note_on_c, 0, 57, 0
2, 176760, Note_on_c, 0, 79, 91
2, 176760, Note_on_c, 0, 82, 91
2, 176760, Note_on_c, 0, 91, 87
2, 176760, Note_on_c, 0, 58, 89
2, 176760, Note_on_c, 0, 60, 91
2, 176760, Note_on_c, 0, 67, 89
2, 176923, Note_on_c, 0, 67, 0
2, 176923, Note_on_c, 0, 82, 0
2, 176923, Note_on_c, 0, 91, 0
2, 176923, Note_on_c, 0, 79, 0
2, 176923, Note_on_c, 0, 60, 0
2, 176923, Note_on_c, 0, 58, 0
2, 176940, Note_on_c, 0, 77, 77
2, 176940, Note_on_c, 0, 81, 78
2, 176940, Note_on_c, 0, 89, 75
2, 176940, Note_on_c, 0, 57, 77
2, 176940, Note_on_c, 0, 60, 76
2, 176940, Note_on_c, 0, 65, 77
2, 177103, Note_on_c, 0, 65, 0
2, 177103, Note_on_c, 0, 81, 0
2, 177103, Note_on_c, 0, 89, 0
2, 177103, Note_on_c, 0, 77, 0
2, 177103, Note_on_c, 0, 60, 0
2, 177103, Note_on_c, 0, 57, 0
2, 177120, Note_on_c, 0, 76, 79
2, 177120, Note_on_c, 0, 79, 77
2, 177120, Note_on_c, 0, 84, 81
2, 177120, Note_on_c, 0, 88, 79
2, 177120, Note_on_c, 0, 55, 77
2, 177120, Note_on_c, 0, 60, 77
2, 177120, Note_on_c, 0, 64, 77
2, 177445, Note_on_c, 0, 64, 0
2, 177445, Note_on_c, 0, 55, 0
2, 177445, Note_on_c, 0, 79, 0
2, 177445, Note_on_c, 0, 84, 0
2, 177445, Note_on_c, 0, 76, 0
2, 177445, Note_on_c, 0, 60, 0
2, 177445, Note_on_c, 0, 88, 0
2, 177480, Note_on_c, 0, 77, 62
2, 177480, Note_on_c, 0, 81, 62
2, 177480, Note_on_c, 0, 89, 63
2, 177480, Note_on_c, 0, 57, 87
2, 177480, Note_on_c, 0, 60, 86
2, 177480, Note_on_c, 0, 65, 86
2, 177643, Note_on_c, 0, 65, 0
2, 177643, Note_on_c, 0, 81, 0
2, 177643, Note_on_c, 0, 89, 0
2, 177643, Note_on_c, 0, 77, 0
2, 177643, Note_on_c, 0, 60, 0
2, 177643, Note_on_c, 0, 57, 0
2, 177660, Note_on_c, 0, 79, 83
2, 177660, Note_on_c, 0, 82, 81
2, 177660, Note_on_c, 0, 91, 84
2, 177660, Note_on_c, 0, 58, 84
2, 177660, Note_on_c, 0, 60, 87
2, 177660, Note_on_c, 0, 67, 83
2, 177823, Note_on_c, 0, 67, 0
2, 177823, Note_on_c, 0, 82, 0
2, 177823, Note_on_c, 0, 91, 0
2, 177823, Note_on_c, 0, 79, 0
2, 177823, Note_on_c, 0, 60, 0
2, 177823, Note_on_c, 0, 58, 0
2, 177840, Note_on_c, 0, 81, 87
2, 177840, Note_on_c, 0, 84, 87
2, 177840, Note_on_c, 0, 93, 90
2, 177840, Note_on_c, 0, 60, 87
2, 177840, Note_on_c, 0, 65, 89
2, 177840, Note_on_c, 0, 69, 88
2, 178003, Note_on_c, 0, 69, 0
2, 178003, Note_on_c, 0, 84, 0
2, 178003, Note_on_c, 0, 93, 0
2, 178003, Note_on_c, 0, 81, 0
2, 178003, Note_on_c, 0, 65, 0
2, 178003, Note_on_c, 0, 60, 0
2, 178020, Note_on_c, 0, 82, 86
2, 178020, Note_on_c, 0, 86, 83
2, 178020, Note_on_c, 0, 94, 83
2, 178020, Note_on_c, 0, 62, 87
2, 178020, Note_on_c, 0, 65, 85
2, 178020, Note_on_c, 0, 70, 86
2, 178183, Note_on_c, 0, 70, 0
2, 178183, Note_on_c, 0, 86, 0
2, 178183, Note_on_c, 0, 94, 0
2, 178183, Note_on_c, 0, 82, 0
2, 178183, Note_on_c, 0, 65, 0
2, 178183, Note_on_c, 0, 62, 0
2, 178200, Note_on_c, 0, 84, 116
2, 178200, Note_on_c, 0, 87, 115
2, 178200, Note_on_c, 0, 96, 116
2, 178200, Note_on_c, 0, 63, 114
2, 178200, Note_on_c, 0, 65, 118
2, 178200, Note_on_c, 0, 72, 116
2, 178560, Note_on_c, 0, 69, 85
2, 178723, Note_on_c, 0, 69, 0
2, 178723, Note_on_c, 0, 65, 0
2, 178723, Note_on_c, 0, 87, 0
2, 178723, Note_on_c, 0, 96, 0
2, 178723, Note_on_c, 0, 84, 0
2, 178723, Note_on_c, 0, 72, 0
2, 178723, Note_on_c, 0, 63, 0
2, 178740, Note_on_c, 0, 82, 75
2, 178740, Note_on_c, 0, 86, 78
2, 178740, Note_on_c, 0, 94, 75
2, 178740, Note_on_c, 0, 62, 76
2, 178740, Note_on_c, 0, 65, 75
2, 178740, Note_on_c, 0, 70, 74
2, 178903, Note_on_c, 0, 70, 0
2, 178903, Note_on_c, 0, 86, 0
2, 178903, Note_on_c, 0, 94, 0
2, 178903, Note_on_c, 0, 82, 0
2, 178903, Note_on_c, 0, 65, 0
2, 178903, Note_on_c, 0, 62, 0
2, 178920, Note_on_c, 0, 81, 80
2, 178920, Note_on_c, 0, 84, 79
2, 178920, Note_on_c, 0, 93, 78
2, 178920, Note_on_c, 0, 60, 80
2, 178920, Note_on_c, 0, 65, 78
2, 178920, Note_on_c, 0, 69, 78
2, 179083, Note_on_c, 0, 69, 0
2, 179083, Note_on_c, 0, 84, 0
2, 179083, Note_on_c, 0, 93, 0
2, 179083, Note_on_c, 0, 81, 0
2, 179083, Note_on_c, 0, 65, 0
2, 179083, Note_on_c, 0, 60, 0
2, 179100, Note_on_c, 0, 79, 74
2, 179100, Note_on_c, 0, 82, 75
2, 179100, Note_on_c, 0, 91, 74
2, 179100, Note_on_c, 0, 58, 77
2, 179100, Note_on_c, 0, 65, 77
2, 179100, Note_on_c, 0, 67, 74
2, 179263, Note_on_c, 0, 67, 0
2, 179263, Note_on_c, 0, 82, 0
2, 179263, Note_on_c, 0, 91, 0
2, 179263, Note_on_c, 0, 79, 0
2, 179263, Note_on_c, 0, 65, 0
2, 179263, Note_on_c, 0, 58, 0
2, 179280, Note_on_c, 0, 81, 89
2, 179280, Note_on_c, 0, 84, 89
2, 179280, Note_on_c, 0, 93, 87
2, 179280, Note_on_c, 0, 60, 90
2, 179280, Note_on_c, 0, 65, 88
2, 179280, Note_on_c, 0, 69, 89
2, 179443, Note_on_c, 0, 69, 0
2, 179443, Note_on_c, 0, 84, 0
2, 179443, Note_on_c, 0, 93, 0
2, 179443, Note_on_c, 0, 81, 0
2, 179443, Note_on_c, 0, 65, 0
2, 179443, Note_on_c, 0, 60, 0
2, 179460, Note_on_c, 0, 83, 86
2, 179460, Note_on_c, 0, 95, 86
2, 179460, Note_on_c, 0, 71, 85
2, 179623, Note_on_c, 0, 71, 0
2, 179623, Note_on_c, 0, 95, 0
2, 179623, Note_on_c, 0, 83, 0
2, 179640, Note_on_c, 0, 84, 88
2, 179640, Note_on_c, 0, 87, 86
2, 179640, Note_on_c, 0, 93, 89
2, 179640, Note_on_c, 0, 96, 90
2, 179640, Note_on_c, 0, 60, 86
2, 179640, Note_on_c, 0, 63, 88
2, 179640, Note_on_c, 0, 69, 87
2, 179640, Note_on_c, 0, 72, 88
2, 179803, Note_on_c, 0, 72, 0
2, 179803, Note_on_c, 0, 84, 0
2, 179803, Note_on_c, 0, 60, 0
2, 179803, Note_on_c, 0, 87, 0
2, 179803, Note_on_c, 0, 93, 0
2, 179803, Note_on_c, 0, 96, 0
2, 179803, Note_on_c, 0, 63, 0
2, 179803, Note_on_c, 0, 69, 0
2, 179820, Note_on_c, 0, 83, 78
2, 179820, Note_on_c, 0, 95, 77
2, 179820, Note_on_c, 0, 59, 80
2, 179820, Note_on_c, 0, 71, 77
2, 179983, Note_on_c, 0, 71, 0
2, 179983, Note_on_c, 0, 83, 0
2, 179983, Note_on_c, 0, 95, 0
2, 179983, Note_on_c, 0, 59, 0
2, 180000, Note_on_c, 0, 84, 113
2, 180000, Note_on_c, 0, 88, 113
2, 180000, Note_on_c, 0, 91, 111
2, 180000, Note_on_c, 0, 96, 113
2, 180000, Note_on_c, 0, 60, 113
2, 180000, Note_on_c, 0, 64, 115
2, 180000, Note_on_c, 0, 67, 113
2, 180000, Note_on_c, 0, 72, 113
2, 180325, Note_on_c, 0, 72, 0
2, 180325, Note_on_c, 0, 84, 0
2, 180325, Note_on_c, 0, 60, 0
2, 180325, Note_on_c, 0, 88, 0
2, 180325, Note_on_c, 0, 91, 0
2, 180325, Note_on_c, 0, 96, 0
2, 180325, Note_on_c, 0, 64, 0
2, 180325, Note_on_c, 0, 67, 0
2, 180360, Note_on_c, 0, 72, 82
2, 180360, Note_on_c, 0, 79, 83
2, 180360, Note_on_c, 0, 84, 82
2, 180360, Note_on_c, 0, 55, 68
2, 180360, Note_on_c, 0, 60, 70
2, 180360, Note_on_c, 0, 64, 67
2, 180523, Note_on_c, 0, 64, 0
2, 180523, Note_on_c, 0, 79, 0
2, 180523, Note_on_c, 0, 84, 0
2, 180523, Note_on_c, 0, 72, 0
2, 180523, Note_on_c, 0, 60, 0
2, 180523, Note_on_c, 0, 55, 0
2, 180540, Note_on_c, 0, 74, 84
2, 180540, Note_on_c, 0, 79, 85
2, 180540, Note_on_c, 0, 86, 85
2, 180540, Note_on_c, 0, 55, 78
2, 180540, Note_on_c, 0, 62, 77
2, 180540, Note_on_c, 0, 64, 78
2, 180703, Note_on_c, 0, 64, 0
2, 180703, Note_on_c, 0, 79, 0
2, 180703, Note_on_c, 0, 86, 0
2, 180703, Note_on_c, 0, 74, 0
2, 180703, Note_on_c, 0, 62, 0
2, 180703, Note_on_c, 0, 55, 0
2, 180720, Note_on_c, 0, 76, 89
2, 180720, Note_on_c, 0, 79, 90
2, 180720, Note_on_c, 0, 84, 90
2, 180720, Note_on_c, 0, 88, 87
2, 180720, Note_on_c, 0, 55, 84
2, 180720, Note_on_c, 0, 60, 85
2, 180720, Note_on_c, 0, 64, 84
2, 180883, Note_on_c, 0, 64, 0
2, 180883, Note_on_c, 0, 55, 0
2, 180883, Note_on_c, 0, 79, 0
2, 180883, Note_on_c, 0, 84, 0
2, 180883, Note_on_c, 0, 76, 0
2, 180883, Note_on_c, 0, 60, 0
2, 180883, Note_on_c, 0, 88, 0
2, 180900, Note_on_c, 0, 79, 64
2, 180900, Note_on_c, 0, 84, 64
2, 180900, Note_on_c, 0, 88, 65
2, 180900, Note_on_c, 0, 91, 62
2, 180900, Note_on_c, 0, 55, 81
2, 180900, Note_on_c, 0, 60, 81
2, 180900, Note_on_c, 0, 64, 81
2, 181063, Note_on_c, 0, 64, 0
2, 181063, Note_on_c, 0, 55, 0
2, 181063, Note_on_c, 0, 84, 0
2, 181063, Note_on_c, 0, 88, 0
2, 181063, Note_on_c, 0, 79, 0
2, 181063, Note_on_c, 0, 60, 0
2, 181063, Note_on_c, 0, 91, 0
2, 181080, Note_on_c, 0, 81, 83
2, 181080, Note_on_c, 0, 84, 85
2, 181080, Note_on_c, 0, 88, 86
2, 181080, Note_on_c, 0, 93, 86
2, 181080, Note_on_c, 0, 57, 85
2, 181080, Note_on_c, 0, 60, 82
2, 181080, Note_on_c, 0, 64, 86
2, 181243, Note_on_c, 0, 64, 0
2, 181243, Note_on_c, 0, 57, 0
2, 181243, Note_on_c, 0, 84, 0
2, 181243, Note_on_c, 0, 88, 0
2, 181243, Note_on_c, 0, 81, 0
2, 181243, Note_on_c, 0, 60, 0
2, 181243, Note_on_c, 0, 93, 0
2, 181260, Note_on_c, 0, 83, 84
2, 181260, Note_on_c, 0, 88, 83
2, 181260, Note_on_c, 0, 91, 83
2, 181260, Note_on_c, 0, 95, 84
2, 181260, Note_on_c, 0, 59, 87
2, 181260, Note_on_c, 0, 64, 85
2, 181260, Note_on_c, 0, 67, 87
2, 181423, Note_on_c, 0, 67, 0
2, 181423, Note_on_c, 0, 59, 0
2, 181423, Note_on_c, 0, 88, 0
2, 181423, Note_on_c, 0, 91, 0
2, 181423, Note_on_c, 0, 83, 0
2, 181423, Note_on_c, 0, 64, 0
2, 181423, Note_on_c, 0, 95, 0
2, 181440, Note_on_c, 0, 84, 90
2, 181440, Note_on_c, 0, 88, 87
2, 181440, Note_on_c, 0, 91, 86
2, 181440, Note_on_c, 0, 96, 86
2, 181440, Note_on_c, 0, 60, 87
2, 181440, Note_on_c, 0, 64, 84
2, 181440, Note_on_c, 0, 67, 87
2, 181603, Note_on_c, 0, 67, 0
2, 181603, Note_on_c, 0, 60, 0
2, 181603, Note_on_c, 0, 88, 0
2, 181603, Note_on_c, 0, 91, 0
2, 181603, Note_on_c, 0, 84, 0
2, 181603, Note_on_c, 0, 64, 0
2, 181603, Note_on_c, 0, 96, 0
2, 181620, Note_on_c, 0, 86, 85
2, 181620, Note_on_c, 0, 91, 86
2, 181620, Note_on_c, 0, 98, 88
2, 181620, Note_on_c, 0, 62, 95
2, 181620, Note_on_c, 0, 67, 93
2, 181620, Note_on_c, 0, 74, 95
2, 181783, Note_on_c, 0, 74, 0
2, 181783, Note_on_c, 0, 91, 0
2, 181783, Note_on_c, 0, 98, 0
2, 181783, Note_on_c, 0, 86, 0
2, 181783, Note_on_c, 0, 67, 0
2, 181783, Note_on_c, 0, 62, 0
2, 181800, Note_on_c, 0, 88, 113
2, 181800, Note_on_c, 0, 91, 111
2, 181800, Note_on_c, 0, 96, 112
2, 181800, Note_on_c, 0, 100, 113
2, 181800, Note_on_c, 0, 64, 116
2, 181800, Note_on_c, 0, 67, 116
2, 181800, Note_on_c, 0, 72, 114
2, 181800, Note_on_c, 0, 76, 115
2, 182323, Note_on_c, 0, 76, 0
2, 182323, Note_on_c, 0, 88, 0
2, 182323, Note_on_c, 0, 64, 0
2, 182323, Note_on_c, 0, 91, 0
2, 182323, Note_on_c, 0, 96, 0
2, 182323, Note_on_c, 0, 100, 0
2, 182323, Note_on_c, 0, 67, 0
2, 182323, Note_on_c, 0, 72, 0
2, 182340, Note_on_c, 0, 83, 70
2, 182340, Note_on_c, 0, 88, 71
2, 182340, Note_on_c, 0, 91, 71
2, 182340, Note_on_c, 0, 95, 69
2, 182340, Note_on_c, 0, 60, 71
2, 182340, Note_on_c, 0, 64, 71
2, 182340, Note_on_c, 0, 71, 68
2, 182503, Note_on_c, 0, 71, 0
2, 182503, Note_on_c, 0, 60, 0
2, 182503, Note_on_c, 0, 88, 0
2, 182503, Note_on_c, 0, 91, 0
2, 182503, Note_on_c, 0, 83, 0
2, 182503, Note_on_c, 0, 64, 0
2, 182503, Note_on_c, 0, 95, 0
2, 182520, Note_on_c, 0, 81, 97
2, 182520, Note_on_c, 0, 84, 97
2, 182520, Note_on_c, 0, 88, 96
2, 182520, Note_on_c, 0, 93, 96
2, 182520, Note_on_c, 0, 60, 98
2, 182520, Note_on_c, 0, 64, 96
2, 182520, Note_on_c, 0, 69, 96
2, 183043, Note_on_c, 0, 69, 0
2, 183043, Note_on_c, 0, 60, 0
2, 183043, Note_on_c, 0, 84, 0
2, 183043, Note_on_c, 0, 88, 0
2, 183043, Note_on_c, 0, 81, 0
2, 183043, Note_on_c, 0, 64, 0
2, 183043, Note_on_c, 0, 93, 0
2, 183060, Note_on_c, 0, 79, 77
2, 183060, Note_on_c, 0, 84, 75
2, 183060, Note_on_c, 0, 91, 76
2, 183060, Note_on_c, 0, 59, 75
2, 183060, Note_on_c, 0, 60, 75
2, 183060, Note_on_c, 0, 64, 75
2, 183060, Note_on_c, 0, 67, 78
2, 183223, Note_on_c, 0, 67, 0
2, 183223, Note_on_c, 0, 60, 0
2, 183223, Note_on_c, 0, 84, 0
2, 183223, Note_on_c, 0, 91, 0
2, 183223, Note_on_c, 0, 79, 0
2, 183223, Note_on_c, 0, 64, 0
2, 183223, Note_on_c, 0, 59, 0
2, 183240, Note_on_c, 0, 77, 76
2, 183240, Note_on_c, 0, 84, 79
2, 183240, Note_on_c, 0, 89, 79
2, 183240, Note_on_c, 0, 57, 78
2, 183240, Note_on_c, 0, 60, 78
2, 183240, Note_on_c, 0, 65, 77
2, 183403, Note_on_c, 0, 65, 0
2, 183403, Note_on_c, 0, 84, 0
2, 183403, Note_on_c, 0, 89, 0
2, 183403, Note_on_c, 0, 77, 0
2, 183403, Note_on_c, 0, 60, 0
2, 183403, Note_on_c, 0, 57, 0
2, 183420, Note_on_c, 0, 79, 83
2, 183420, Note_on_c, 0, 86, 87
2, 183420, Note_on_c, 0, 91, 86
2, 183420, Note_on_c, 0, 59, 85
2, 183420, Note_on_c, 0, 62, 84
2, 183420, Note_on_c, 0, 67, 86
2, 183583, Note_on_c, 0, 67, 0
2, 183583, Note_on_c, 0, 86, 0
2, 183583, Note_on_c, 0, 91, 0
2, 183583, Note_on_c, 0, 79, 0
2, 183583, Note_on_c, 0, 62, 0
2, 183583, Note_on_c, 0, 59, 0
2, 183600, Note_on_c, 0, 76, 80
2, 183600, Note_on_c, 0, 84, 78
2, 183600, Note_on_c, 0, 88, 79
2, 183600, Note_on_c, 0, 60, 78
2, 183600, Note_on_c, 0, 64, 79
2, 183763, Note_on_c, 0, 64, 0
2, 183763, Note_on_c, 0, 88, 0
2, 183763, Note_on_c, 0, 76, 0
2, 183763, Note_on_c, 0, 84, 0
2, 183763, Note_on_c, 0, 60, 0
2, 183780, Note_on_c, 0, 83, 92
2, 183780, Note_on_c, 0, 88, 95
2, 183780, Note_on_c, 0, 91, 93
2, 183780, Note_on_c, 0, 95, 92
2, 183780, Note_on_c, 0, 62, 95
2, 183780, Note_on_c, 0, 64, 92
2, 183780, Note_on_c, 0, 67, 94
2, 183780, Note_on_c, 0, 71, 94
2, 183943, Note_on_c, 0, 71, 0
2, 183943, Note_on_c, 0, 83, 0
2, 183943, Note_on_c, 0, 62, 0
2, 183943, Note_on_c, 0, 88, 0
2, 183943, Note_on_c, 0, 91, 0
2, 183943, Note_on_c, 0, 95, 0
2, 183943, Note_on_c, 0, 64, 0
2, 183943, Note_on_c, 0, 67, 0
2, 183960, Note_on_c, 0, 84, 112
2, 183960, Note_on_c, 0, 88, 115
2, 183960, Note_on_c, 0, 93, 114
2, 183960, Note_on_c, 0, 96, 115
2, 183960, Note_on_c, 0, 60, 116
2, 183960, Note_on_c, 0, 64, 115
2, 183960, Note_on_c, 0, 69, 117
2, 183960, Note_on_c, 0, 72, 118
2, 184483, Note_on_c, 0, 72, 0
2, 184483, Note_on_c, 0, 84, 0
2, 184483, Note_on_c, 0, 60, 0
2, 184483, Note_on_c, 0, 88, 0
2, 184483, Note_on_c, 0, 93, 0
2, 184483, Note_on_c, 0, 96, 0
2, 184483, Note_on_c, 0, 64, 0
2, 184483, Note_on_c, 0, 69, 0
2, 184500, Note_on_c, 0, 79, 68
2, 184500, Note_on_c, 0, 84, 72
2, 184500, Note_on_c, 0, 88, 70
2, 184500, Note_on_c, 0, 91, 69
2, 184500, Note_on_c, 0, 59, 70
2, 184500, Note_on_c, 0, 60, 71
2, 184500, Note_on_c, 0, 64, 70
2, 184500, Note_on_c, 0, 67, 70
2, 184663, Note_on_c, 0, 67, 0
2, 184663, Note_on_c, 0, 79, 0
2, 184663, Note_on_c, 0, 59, 0
2, 184663, Note_on_c, 0, 84, 0
2, 184663, Note_on_c, 0, 88, 0
2, 184663, Note_on_c, 0, 91, 0
2, 184663, Note_on_c, 0, 60, 0
2, 184663, Note_on_c, 0, 64, 0
2, 184680, Note_on_c, 0, 77, 101
2, 184680, Note_on_c, 0, 84, 98
2, 184680, Note_on_c, 0, 89, 100
2, 184680, Note_on_c, 0, 57, 101
2, 184680, Note_on_c, 0, 60, 100
2, 184680, Note_on_c, 0, 65, 100
2, 185203, Note_on_c, 0, 65, 0
2, 185203, Note_on_c, 0, 84, 0
2, 185203, Note_on_c, 0, 89, 0
2, 185203, Note_on_c, 0, 77, 0
2, 185203, Note_on_c, 0, 60, 0
2, 185203, Note_on_c, 0, 57, 0
2, 185220, Note_on_c, 0, 76, 78
2, 185220, Note_on_c, 0, 84, 75
2, 185220, Note_on_c, 0, 88, 78
2, 185220, Note_on_c, 0, 55, 78
2, 185220, Note_on_c, 0, 60, 78
2, 185220, Note_on_c, 0, 64, 76
2, 185383, Note_on_c, 0, 64, 0
2, 185383, Note_on_c, 0, 84, 0
2, 185383, Note_on_c, 0, 88, 0
2, 185383, Note_on_c, 0, 76, 0
2, 185383, Note_on_c, 0, 60, 0
2, 185383, Note_on_c, 0, 55, 0
2, 185400, Note_on_c, 0, 74, 74
2, 185400, Note_on_c, 0, 84, 73
2, 185400, Note_on_c, 0, 86, 75
2, 185400, Note_on_c, 0, 53, 79
2, 185400, Note_on_c, 0, 60, 78
2, 185400, Note_on_c, 0, 62, 77
2, 185563, Note_on_c, 0, 62, 0
2, 185563, Note_on_c, 0, 84, 0
2, 185563, Note_on_c, 0, 86, 0
2, 185563, Note_on_c, 0, 74, 0
2, 185563, Note_on_c, 0, 60, 0
2, 185563, Note_on_c, 0, 53, 0
2, 185580, Note_on_c, 0, 76, 83
2, 185580, Note_on_c, 0, 84, 83
2, 185580, Note_on_c, 0, 88, 83
2, 185580, Note_on_c, 0, 55, 85
2, 185580, Note_on_c, 0, 60, 83
2, 185580, Note_on_c, 0, 64, 85
2, 185743, Note_on_c, 0, 64, 0
2, 185743, Note_on_c, 0, 84, 0
2, 185743, Note_on_c, 0, 88, 0
2, 185743, Note_on_c, 0, 76, 0
2, 185743, Note_on_c, 0, 60, 0
2, 185743, Note_on_c, 0, 55, 0
2, 185760, Note_on_c, 0, 72, 78
2, 185760, Note_on_c, 0, 79, 77
2, 185760, Note_on_c, 0, 84, 75
2, 185760, Note_on_c, 0, 52, 77
2, 185760, Note_on_c, 0, 55, 77
2, 185760, Note_on_c, 0, 60, 77
2, 185923, Note_on_c, 0, 60, 0
2, 185923, Note_on_c, 0, 79, 0
2, 185923, Note_on_c, 0, 84, 0
2, 185923, Note_on_c, 0, 72, 0
2, 185923, Note_on_c, 0, 55, 0
2, 185923, Note_on_c, 0, 52, 0
2, 185940, Note_on_c, 0, 79, 91
2, 185940, Note_on_c, 0, 84, 93
2, 185940, Note_on_c, 0, 88, 93
2, 185940, Note_on_c, 0, 91, 93
2, 185940, Note_on_c, 0, 59, 91
2, 185940, Note_on_c, 0, 60, 94
2, 185940, Note_on_c, 0, 64, 94
2, 185940, Note_on_c, 0, 67, 91
2, 186103, Note_on_c, 0, 67, 0
2, 186103, Note_on_c, 0, 79, 0
2, 186103, Note_on_c, 0, 59, 0
2, 186103, Note_on_c, 0, 84, 0
2, 186103, Note_on_c, 0, 88, 0
2, 186103, Note_on_c, 0, 91, 0
2, 186103, Note_on_c, 0, 60, 0
2, 186103, Note_on_c, 0, 64, 0
2, 186120, Note_on_c, 0, 81, 112
2, 186120, Note_on_c, 0, 84, 114
2, 186120, Note_on_c, 0, 89, 115
2, 186120, Note_on_c, 0, 93, 114
2, 186120, Note_on_c, 0, 57, 113
2, 186120, Note_on_c, 0, 60, 116
2, 186120, Note_on_c, 0, 65, 115
2, 186120, Note_on_c, 0, 69, 114
2, 186643, Note_on_c, 0, 69, 0
2, 186643, Note_on_c, 0, 81, 0
2, 186643, Note_on_c, 0, 57, 0
2, 186643, Note_on_c, 0, 84, 0
2, 186643, Note_on_c, 0, 89, 0
2, 186643, Note_on_c, 0, 93, 0
2, 186643, Note_on_c, 0, 60, 0
2, 186643, Note_on_c, 0, 65, 0
2, 186660, Note_on_c, 0, 76, 92
2, 186660, Note_on_c, 0, 81, 95
2, 186660, Note_on_c, 0, 84, 96
2, 186660, Note_on_c, 0, 88, 93
2, 186660, Note_on_c, 0, 53, 69
2, 186660, Note_on_c, 0, 57, 71
2, 186660, Note_on_c, 0, 60, 69
2, 186660, Note_on_c, 0, 64, 70
2, 186823, Note_on_c, 0, 64, 0
2, 186823, Note_on_c, 0, 76, 0
2, 186823, Note_on_c, 0, 53, 0
2, 186823, Note_on_c, 0, 81, 0
2, 186823, Note_on_c, 0, 84, 0
2, 186823, Note_on_c, 0, 88, 0
2, 186823, Note_on_c, 0, 57, 0
2, 186823, Note_on_c, 0, 60, 0
2, 186840, Note_on_c, 0, 74, 101
2, 186840, Note_on_c, 0, 81, 101
2, 186840, Note_on_c, 0, 84, 101
2, 186840, Note_on_c, 0, 86, 102
2, 186840, Note_on_c, 0, 53, 96
2, 186840, Note_on_c, 0, 57, 98
2, 186840, Note_on_c, 0, 60, 96
2, 186840, Note_on_c, 0, 62, 98
2, 187363, Note_on_c, 0, 62, 0
2, 187363, Note_on_c, 0, 74, 0
2, 187363, Note_on_c, 0, 53, 0
2, 187363, Note_on_c, 0, 81, 0
2, 187363, Note_on_c, 0, 84, 0
2, 187363, Note_on_c, 0, 86, 0
2, 187363, Note_on_c, 0, 57, 0
2, 187363, Note_on_c, 0, 60, 0
2, 187380, Note_on_c, 0, 72, 77
2, 187380, Note_on_c, 0, 77, 75
2, 187380, Note_on_c, 0, 81, 76
2, 187380, Note_on_c, 0, 84, 77
2, 187380, Note_on_c, 0, 52, 75
2, 187380, Note_on_c, 0, 53, 76
2, 187380, Note_on_c, 0, 57, 75
2, 187380, Note_on_c, 0, 60, 77
2, 187543, Note_on_c, 0, 60, 0
2, 187543, Note_on_c, 0, 72, 0
2, 187543, Note_on_c, 0, 52, 0
2, 187543, Note_on_c, 0, 77, 0
2, 187543, Note_on_c, 0, 81, 0
2, 187543, Note_on_c, 0, 84, 0
2, 187543, Note_on_c, 0, 53, 0
2, 187543, Note_on_c, 0, 57, 0
2, 187560, Note_on_c, 0, 71, 79
2, 187560, Note_on_c, 0, 77, 77
2, 187560, Note_on_c, 0, 81, 79
2, 187560, Note_on_c, 0, 83, 78
2, 187560, Note_on_c, 0, 50, 81
2, 187560, Note_on_c, 0, 53, 80
2, 187560, Note_on_c, 0, 57, 77
2, 187560, Note_on_c, 0, 59, 80
2, 187723, Note_on_c, 0, 59, 0
2, 187723, Note_on_c, 0, 71, 0
2, 187723, Note_on_c, 0, 50, 0
2, 187723, Note_on_c, 0, 77, 0
2, 187723, Note_on_c, 0, 81, 0
2, 187723, Note_on_c, 0, 83, 0
2, 187723, Note_on_c, 0, 53, 0
2, 187723, Note_on_c, 0, 57, 0
2, 187740, Note_on_c, 0, 72, 84
2, 187740, Note_on_c, 0, 77, 83
2, 187740, Note_on_c, 0, 81, 81
2, 187740, Note_on_c, 0, 84, 82
2, 187740, Note_on_c, 0, 52, 85
2, 187740, Note_on_c, 0, 53, 81
2, 187740, Note_on_c, 0, 57, 82
2, 187740, Note_on_c, 0, 60, 82
2, 187903, Note_on_c, 0, 60, 0
2, 187903, Note_on_c, 0, 72, 0
2, 187903, Note_on_c, 0, 52, 0
2, 187903, Note_on_c, 0, 77, 0
2, 187903, Note_on_c, 0, 81, 0
2, 187903, Note_on_c, 0, 84, 0
2, 187903, Note_on_c, 0, 53, 0
2, 187903, Note_on_c, 0, 57, 0
2, 187920, Note_on_c, 0, 69, 78
2, 187920, Note_on_c, 0, 77, 75
2, 187920, Note_on_c, 0, 81, 76
2, 187920, Note_on_c, 0, 53, 78
2, 187920, Note_on_c, 0, 57, 76
2, 188083, Note_on_c, 0, 57, 0
2, 188083, Note_on_c, 0, 81, 0
2, 188083, Note_on_c, 0, 69, 0
2, 188083, Note_on_c, 0, 77, 0
2, 188083, Note_on_c, 0, 53, 0
2, 188100, Note_on_c, 0, 76, 92
2, 188100, Note_on_c, 0, 81, 92
2, 188100, Note_on_c, 0, 84, 92
2, 188100, Note_on_c, 0, 88, 92
2, 188100, Note_on_c, 0, 55, 95
2, 188100, Note_on_c, 0, 57, 93
2, 188100, Note_on_c, 0, 60, 93
2, 188100, Note_on_c, 0, 64, 94
2, 188263, Note_on_c, 0, 64, 0
2, 188263, Note_on_c, 0, 76, 0
2, 188263, Note_on_c, 0, 55, 0
2, 188263, Note_on_c, 0, 81, 0
2, 188263, Note_on_c, 0, 84, 0
2, 188263, Note_on_c, 0, 88, 0
2, 188263, Note_on_c, 0, 57, 0
2, 188263, Note_on_c, 0, 60, 0
2, 188280, Note_on_c, 0, 77, 113
2, 188280, Note_on_c, 0, 81, 115
2, 188280, Note_on_c, 0, 86, 114
2, 188280, Note_on_c, 0, 89, 115
2, 188280, Note_on_c, 0, 53, 115
2, 188280, Note_on_c, 0, 57, 114
2, 188280, Note_on_c, 0, 62, 113
2, 188280, Note_on_c, 0, 65, 115
2, 188605, Note_on_c, 0, 65, 0
2, 188605, Note_on_c, 0, 77, 0
2, 188605, Note_on_c, 0, 53, 0
2, 188605, Note_on_c, 0, 81, 0
2, 188605, Note_on_c, 0, 86, 0
2, 188605, Note_on_c, 0, 89, 0
2, 188605, Note_on_c, 0, 57, 0
2, 188605, Note_on_c, 0, 62, 0
2, 188640, Note_on_c, 0, 74, 101
2, 188640, Note_on_c, 0, 77, 100
2, 188640, Note_on_c, 0, 81, 101
2, 188640, Note_on_c, 0, 86, 103
2, 188640, Note_on_c, 0, 53, 100
2, 188640, Note_on_c, 0, 57, 101
2, 188640, Note_on_c, 0, 62, 103
2, 188965, Note_on_c, 0, 62, 0
2, 188965, Note_on_c, 0, 53, 0
2, 188965, Note_on_c, 0, 77, 0
2, 188965, Note_on_c, 0, 81, 0
2, 188965, Note_on_c, 0, 74, 0
2, 188965, Note_on_c, 0, 57, 0
2, 188965, Note_on_c, 0, 86, 0
2, 189000, Note_on_c, 0, 72, 100
2, 189000, Note_on_c, 0, 77, 98
2, 189000, Note_on_c, 0, 81, 99
2, 189000, Note_on_c, 0, 84, 99
2, 189000, Note_on_c, 0, 52, 99
2, 189000, Note_on_c, 0, 53, 96
2, 189000, Note_on_c, 0, 57, 98
2, 189000, Note_on_c, 0, 60, 99
2, 189325, Note_on_c, 0, 60, 0
2, 189325, Note_on_c, 0, 72, 0
2, 189325, Note_on_c, 0, 52, 0
2, 189325, Note_on_c, 0, 77, 0
2, 189325, Note_on_c, 0, 81, 0
2, 189325, Note_on_c, 0, 84, 0
2, 189325, Note_on_c, 0, 53, 0
2, 189325, Note_on_c, 0, 57, 0
2, 189360, Note_on_c, 0, 69, 100
2, 189360, Note_on_c, 0, 72, 101
2, 189360, Note_on_c, 0, 77, 99
2, 189360, Note_on_c, 0, 81, 98
2, 189360, Note_on_c, 0, 50, 109
2, 189360, Note_on_c, 0, 53, 107
2, 189360, Note_on_c, 0, 57, 109
2, 189360, Note_on_c, 0, 60, 107
2, 189523, Note_on_c, 0, 81, 0
2, 189523, Note_on_c, 0, 77, 0
2, 189523, Note_on_c, 0, 69, 0
2, 189523, Note_on_c, 0, 72, 0
2, 189540, Note_on_c, 0, 64, 91
2, 189540, Note_on_c, 0, 76, 92
2, 189685, Note_on_c, 0, 50, 0
2, 189685, Note_on_c, 0, 57, 0
2, 189685, Note_on_c, 0, 60, 0
2, 189685, Note_on_c, 0, 53, 0
2, 189703, Note_on_c, 0, 76, 0
2, 189703, Note_on_c, 0, 64, 0
2, 189720, Note_on_c, 0, 65, 107
2, 189720, Note_on_c, 0, 69, 109
2, 189720, Note_on_c, 0, 74, 110
2, 189720, Note_on_c, 0, 77, 108
2, 189720, Note_on_c, 0, 48, 111
2, 189720, Note_on_c, 0, 53, 111
2, 189720, Note_on_c, 0, 57, 114
2, 189720, Note_on_c, 0, 62, 111
2, 190045, Note_on_c, 0, 62, 0
2, 190045, Note_on_c, 0, 65, 0
2, 190045, Note_on_c, 0, 48, 0
2, 190045, Note_on_c, 0, 69, 0
2, 190045, Note_on_c, 0, 74, 0
2, 190045, Note_on_c, 0, 77, 0
2, 190045, Note_on_c, 0, 53, 0
2, 190045, Note_on_c, 0, 57, 0
2, 190080, Note_on_c, 0, 59, 95
2, 190080, Note_on_c, 0, 65, 91
2, 190080, Note_on_c, 0, 71, 92
2, 190080, Note_on_c, 0, 43, 86
2, 190080, Note_on_c, 0, 53, 89
2, 190567, Note_on_c, 0, 53, 0
2, 190567, Note_on_c, 0, 71, 0
2, 190567, Note_on_c, 0, 59, 0
2, 190567, Note_on_c, 0, 65, 0
2, 190567, Note_on_c, 0, 43, 0
2, 190620, Note_on_c, 0, 60, 110
2, 190620, Note_on_c, 0, 72, 106
2, 190620, Note_on_c, 0, 48, 88
2, 190783, Note_on_c, 0, 48, 0
2, 190783, Note_on_c, 0, 72, 0
2, 190783, Note_on_c, 0, 60, 0
2, 190800, Note_on_c, 0, 60, 110
2, 190800, Note_on_c, 0, 64, 110
2, 190800, Note_on_c, 0, 72, 111
2, 190800, Note_on_c, 0, 36, 115
2, 190800, Note_on_c, 0, 43, 114
2, 190800, Note_on_c, 0, 48, 116
2, 190800, Note_on_c, 0, 52, 115
2, 191160, Note_on_c, 0, 36, 51
2, 191323, Note_on_c, 0, 36, 0
2, 191340, Note_on_c, 0, 36, 51
2, 191503, Note_on_c, 0, 36, 0
2, 191520, Note_on_c, 0, 36, 52
2, 191845, Note_on_c, 0, 36, 0
2, 191880, Note_on_c, 0, 36, 54
2, 192170, Note_on_c, 0, 36, 0
2, 192170, Note_on_c, 0, 43, 0
2, 192170, Note_on_c, 0, 48, 0
2, 192170, Note_on_c, 0, 52, 0
2, 192565, Note_on_c, 0, 72, 0
2, 192565, Note_on_c, 0, 36, 0
2, 192565, Note_on_c, 0, 64, 0
2, 192565, Note_on_c, 0, 60, 0
2, 192600, Note_on_c, 0, 36, 52
2, 192960, Note_on_c, 0, 67, 78
2, 192960, Note_on_c, 0, 71, 79
2, 192960, Note_on_c, 0, 74, 78
2, 192960, Note_on_c, 0, 79, 78
2, 192960, Note_on_c, 0, 55, 52
2, 192960, Note_on_c, 0, 59, 51
2, 192960, Note_on_c, 0, 62, 52
2, 192960, Note_on_c, 0, 65, 53
2, 193250, Note_on_c, 0, 36, 0
2, 193320, Note_on_c, 0, 36, 54
2, 193680, Note_on_c, 0, 79, 0
2, 193680, Note_on_c, 0, 65, 0
2, 193680, Note_on_c, 0, 62, 0
2, 193680, Note_on_c, 0, 55, 0
2, 193680, Note_on_c, 0, 71, 0
2, 193680, Note_on_c, 0, 74, 0
2, 193680, Note_on_c, 0, 67, 0
2, 193680, Note_on_c, 0, 59, 0
2, 193680, Note_on_c, 0, 69, 92
2, 193680, Note_on_c, 0, 72, 95
2, 193680, Note_on_c, 0, 76, 91
2, 193680, Note_on_c, 0, 81, 95
2, 193680, Note_on_c, 0, 55, 57
2, 193680, Note_on_c, 0, 57, 58
2, 193680, Note_on_c, 0, 60, 57
2, 193680, Note_on_c, 0, 64, 58
2, 194005, Note_on_c, 0, 36, 0
2, 194040, Note_on_c, 0, 36, 53
2, 194400, Note_on_c, 0, 81, 0
2, 194400, Note_on_c, 0, 64, 0
2, 194400, Note_on_c, 0, 60, 0
2, 194400, Note_on_c, 0, 55, 0
2, 194400, Note_on_c, 0, 72, 0
2, 194400, Note_on_c, 0, 76, 0
2, 194400, Note_on_c, 0, 69, 0
2, 194400, Note_on_c, 0, 57, 0
2, 194400, Note_on_c, 0, 71, 91
2, 194400, Note_on_c, 0, 74, 90
2, 194400, Note_on_c, 0, 77, 91
2, 194400, Note_on_c, 0, 79, 93
2, 194400, Note_on_c, 0, 83, 92
2, 194400, Note_on_c, 0, 55, 61
2, 194400, Note_on_c, 0, 59, 62
2, 194400, Note_on_c, 0, 62, 61
2, 194400, Note_on_c, 0, 65, 63
2, 194690, Note_on_c, 0, 36, 0
2, 194760, Note_on_c, 0, 36, 54
2, 195120, Note_on_c, 0, 77, 0
2, 195120, Note_on_c, 0, 65, 0
2, 195120, Note_on_c, 0, 79, 0
2, 195120, Note_on_c, 0, 59, 0
2, 195120, Note_on_c, 0, 83, 0
2, 195120, Note_on_c, 0, 74, 0
2, 195120, Note_on_c, 0, 62, 0
2, 195120, Note_on_c, 0, 71, 0
2, 195120, Note_on_c, 0, 55, 0
2, 195120, Note_on_c, 0, 72, 96
2, 195120, Note_on_c, 0, 76, 94
2, 195120, Note_on_c, 0, 79, 93
2, 195120, Note_on_c, 0, 81, 95
2, 195120, Note_on_c, 0, 84, 93
2, 195120, Note_on_c, 0, 55, 63
2, 195120, Note_on_c, 0, 57, 63
2, 195120, Note_on_c, 0, 60, 63
2, 195120, Note_on_c, 0, 64, 65
2, 195120, Note_on_c, 0, 67, 66
2, 195445, Note_on_c, 0, 36, 0
2, 195480, Note_on_c, 0, 36, 51
2, 195840, Note_on_c, 0, 60, 0
2, 195840, Note_on_c, 0, 67, 0
2, 195840, Note_on_c, 0, 79, 0
2, 195840, Note_on_c, 0, 81, 0
2, 195840, Note_on_c, 0, 57, 0
2, 195840, Note_on_c, 0, 84, 0
2, 195840, Note_on_c, 0, 76, 0
2, 195840, Note_on_c, 0, 64, 0
2, 195840, Note_on_c, 0, 72, 0
2, 195840, Note_on_c, 0, 55, 0
2, 195840, Note_on_c, 0, 74, 94
2, 195840, Note_on_c, 0, 77, 91
2, 195840, Note_on_c, 0, 79, 94
2, 195840, Note_on_c, 0, 83, 94
2, 195840, Note_on_c, 0, 86, 91
2, 195840, Note_on_c, 0, 55, 59
2, 195840, Note_on_c, 0, 59, 60
2, 195840, Note_on_c, 0, 62, 59
2, 195840, Note_on_c, 0, 65, 60
2, 195840, Note_on_c, 0, 67, 59
2, 196130, Note_on_c, 0, 36, 0
2, 196200, Note_on_c, 0, 36, 53
2, 196525, Note_on_c, 0, 36, 0
2, 196560, Note_on_c, 0, 65, 0
2, 196560, Note_on_c, 0, 79, 0
2, 196560, Note_on_c, 0, 83, 0
2, 196560, Note_on_c, 0, 74, 0
2, 196560, Note_on_c, 0, 86, 0
2, 196560, Note_on_c, 0, 77, 0
2, 196560, Note_on_c, 0, 67, 0
2, 196560, Note_on_c, 0, 59, 0
2, 196560, Note_on_c, 0, 55, 0
2, 196560, Note_on_c, 0, 62, 0
2, 196560, Note_on_c, 0, 72, 86
2, 196560, Note_on_c, 0, 76, 87
2, 196560, Note_on_c, 0, 79, 85
2, 196560, Note_on_c, 0, 84, 83
2, 196560, Note_on_c, 0, 55, 63
2, 196560, Note_on_c, 0, 60, 61
2, 196560, Note_on_c, 0, 64, 64
2, 196560, Note_on_c, 0, 67, 62
2, 196560, Note_on_c, 0, 36, 55
2, 196885, Note_on_c, 0, 36, 0
2, 196920, Note_on_c, 0, 36, 54
2, 197570, Note_on_c, 0, 36, 0
2, 197640, Note_on_c, 0, 36, 57
2, 197803, Note_on_c, 0, 36, 0
2, 197820, Note_on_c, 0, 36, 54
2, 197983, Note_on_c, 0, 36, 0
2, 198000, Note_on_c, 0, 36, 57
2, 198325, Note_on_c, 0, 36, 0
2, 198325, Note_on_c, 0, 64, 0
2, 198325, Note_on_c, 0, 72, 0
2, 198325, Note_on_c, 0, 55, 0
2, 198325, Note_on_c, 0, 76, 0
2, 198325, Note_on_c, 0, 79, 0
2, 198325, Note_on_c, 0, 67, 0
2, 198325, Note_on_c, 0, 60, 0
2, 198325, Note_on_c, 0, 84, 0
2, 198360, Note_on_c, 0, 36, 53
2, 198720, Note_on_c, 0, 64, 80
2, 198720, Note_on_c, 0, 67, 79
2, 198720, Note_on_c, 0, 72, 78
2, 198720, Note_on_c, 0, 76, 78
2, 198720, Note_on_c, 0, 52, 55
2, 198720, Note_on_c, 0, 55, 53
2, 198720, Note_on_c, 0, 60, 52
2, 199010, Note_on_c, 0, 36, 0
2, 199080, Note_on_c, 0, 36, 53
2, 199440, Note_on_c, 0, 64, 0
2, 199440, Note_on_c, 0, 60, 0
2, 199440, Note_on_c, 0, 52, 0
2, 199440, Note_on_c, 0, 67, 0
2, 199440, Note_on_c, 0, 72, 0
2, 199440, Note_on_c, 0, 76, 0
2, 199440, Note_on_c, 0, 55, 0
2, 199440, Note_on_c, 0, 65, 91
2, 199440, Note_on_c, 0, 68, 91
2, 199440, Note_on_c, 0, 72, 93
2, 199440, Note_on_c, 0, 74, 91
2, 199440, Note_on_c, 0, 77, 93
2, 199440, Note_on_c, 0, 53, 63
2, 199440, Note_on_c, 0, 56, 65
2, 199440, Note_on_c, 0, 60, 64
2, 199440, Note_on_c, 0, 62, 64
2, 199765, Note_on_c, 0, 36, 0
2, 199800, Note_on_c, 0, 36, 55
2, 200160, Note_on_c, 0, 72, 0
2, 200160, Note_on_c, 0, 62, 0
2, 200160, Note_on_c, 0, 74, 0
2, 200160, Note_on_c, 0, 56, 0
2, 200160, Note_on_c, 0, 77, 0
2, 200160, Note_on_c, 0, 68, 0
2, 200160, Note_on_c, 0, 60, 0
2, 200160, Note_on_c, 0, 65, 0
2, 200160, Note_on_c, 0, 53, 0
2, 200160, Note_on_c, 0, 66, 91
2, 200160, Note_on_c, 0, 69, 90
2, 200160, Note_on_c, 0, 72, 91
2, 200160, Note_on_c, 0, 75, 90
2, 200160, Note_on_c, 0, 78, 92
2, 200160, Note_on_c, 0, 54, 62
2, 200160, Note_on_c, 0, 56, 61
2, 200160, Note_on_c, 0, 60, 60
2, 200160, Note_on_c, 0, 63, 63
2, 200450, Note_on_c, 0, 36, 0
2, 200520, Note_on_c, 0, 36, 53
2, 200880, Note_on_c, 0, 72, 0
2, 200880, Note_on_c, 0, 63, 0
2, 200880, Note_on_c, 0, 75, 0
2, 200880, Note_on_c, 0, 56, 0
2, 200880, Note_on_c, 0, 78, 0
2, 200880, Note_on_c, 0, 69, 0
2, 200880, Note_on_c, 0, 60, 0
2, 200880, Note_on_c, 0, 66, 0
2, 200880, Note_on_c, 0, 54, 0
2, 200880, Note_on_c, 0, 67, 93
2, 200880, Note_on_c, 0, 70, 95
2, 200880, Note_on_c, 0, 72, 94
2, 200880, Note_on_c, 0, 76, 95
2, 200880, Note_on_c, 0, 79, 94
2, 200880, Note_on_c, 0, 55, 65
2, 200880, Note_on_c, 0, 58, 66
2, 200880, Note_on_c, 0, 60, 63
2, 200880, Note_on_c, 0, 64, 64
2, 201205, Note_on_c, 0, 36, 0
2, 201240, Note_on_c, 0, 36, 53
2, 201600, Note_on_c, 0, 72, 0
2, 201600, Note_on_c, 0, 64, 0
2, 201600, Note_on_c, 0, 76, 0
2, 201600, Note_on_c, 0, 58, 0
2, 201600, Note_on_c, 0, 79, 0
2, 201600, Note_on_c, 0, 70, 0
2, 201600, Note_on_c, 0, 60, 0
2, 201600, Note_on_c, 0, 67, 0
2, 201600, Note_on_c, 0, 55, 0
2, 201600, Note_on_c, 0, 68, 89
2, 201600, Note_on_c, 0, 70, 93
2, 201600, Note_on_c, 0, 74, 93
2, 201600, Note_on_c, 0, 77, 90
2, 201600, Note_on_c, 0, 80, 89
2, 201600, Note_on_c, 0, 53, 61
2, 201600, Note_on_c, 0, 56, 60
2, 201600, Note_on_c, 0, 59, 60
2, 201600, Note_on_c, 0, 62, 63
2, 201600, Note_on_c, 0, 65, 63
2, 201890, Note_on_c, 0, 36, 0
2, 201960, Note_on_c, 0, 36, 54
2, 202320, Note_on_c, 0, 59, 0
2, 202320, Note_on_c, 0, 65, 0
2, 202320, Note_on_c, 0, 74, 0
2, 202320, Note_on_c, 0, 77, 0
2, 202320, Note_on_c, 0, 56, 0
2, 202320, Note_on_c, 0, 80, 0
2, 202320, Note_on_c, 0, 70, 0
2, 202320, Note_on_c, 0, 62, 0
2, 202320, Note_on_c, 0, 68, 0
2, 202320, Note_on_c, 0, 53, 0
2, 202320, Note_on_c, 0, 67, 88
2, 202320, Note_on_c, 0, 72, 85
2, 202320, Note_on_c, 0, 76, 84
2, 202320, Note_on_c, 0, 79, 85
2, 202320, Note_on_c, 0, 52, 59
2, 202320, Note_on_c, 0, 55, 61
2, 202320, Note_on_c, 0, 60, 59
2, 202320, Note_on_c, 0, 64, 58
2, 202645, Note_on_c, 0, 36, 0
2, 202680, Note_on_c, 0, 36, 55
2, 203330, Note_on_c, 0, 36, 0
2, 203400, Note_on_c, 0, 36, 55
2, 203563, Note_on_c, 0, 36, 0
2, 203580, Note_on_c, 0, 36, 54
2, 203743, Note_on_c, 0, 36, 0
2, 203760, Note_on_c, 0, 36, 58
2, 204085, Note_on_c, 0, 36, 0
2, 204085, Note_on_c, 0, 60, 0
2, 204085, Note_on_c, 0, 67, 0
2, 204085, Note_on_c, 0, 52, 0
2, 204085, Note_on_c, 0, 72, 0
2, 204085, Note_on_c, 0, 76, 0
2, 204085, Note_on_c, 0, 64, 0
2, 204085, Note_on_c, 0, 55, 0
2, 204085, Note_on_c, 0, 79, 0
2, 204120, Note_on_c, 0, 36, 54
2, 204480, Note_on_c, 0, 55, 76
2, 204480, Note_on_c, 0, 59, 80
2, 204480, Note_on_c, 0, 62, 77
2, 204480, Note_on_c, 0, 67, 78
2, 204480, Note_on_c, 0, 43, 49
2, 204480, Note_on_c, 0, 53, 47
2, 204770, Note_on_c, 0, 36, 0
2, 204840, Note_on_c, 0, 36, 54
2, 205130, Note_on_c, 0, 43, 0
2, 205130, Note_on_c, 0, 53, 0
2, 205200, Note_on_c, 0, 67, 0
2, 205200, Note_on_c, 0, 62, 0
2, 205200, Note_on_c, 0, 55, 0
2, 205200, Note_on_c, 0, 59, 0
2, 205200, Note_on_c, 0, 57, 94
2, 205200, Note_on_c, 0, 60, 93
2, 205200, Note_on_c, 0, 64, 93
2, 205200, Note_on_c, 0, 69, 92
2, 205200, Note_on_c, 0, 43, 54
2, 205200, Note_on_c, 0, 52, 52
2, 205525, Note_on_c, 0, 36, 0
2, 205560, Note_on_c, 0, 36, 51
2, 206210, Note_on_c, 0, 36, 0
2, 206280, Note_on_c, 0, 36, 56
2, 206443, Note_on_c, 0, 36, 0
2, 206460, Note_on_c, 0, 36, 52
2, 206623, Note_on_c, 0, 36, 0
2, 206640, Note_on_c, 0, 36, 55
2, 206965, Note_on_c, 0, 36, 0
2, 206965, Note_on_c, 0, 43, 0
2, 206965, Note_on_c, 0, 60, 0
2, 206965, Note_on_c, 0, 64, 0
2, 206965, Note_on_c, 0, 57, 0
2, 206965, Note_on_c, 0, 52, 0
2, 206965, Note_on_c, 0, 69, 0
2, 207000, Note_on_c, 0, 36, 54
2, 207360, Note_on_c, 0, 55, 76
2, 207360, Note_on_c, 0, 59, 77
2, 207360, Note_on_c, 0, 62, 79
2, 207360, Note_on_c, 0, 67, 79
2, 207360, Note_on_c, 0, 43, 49
2, 207360, Note_on_c, 0, 53, 47
2, 207650, Note_on_c, 0, 36, 0
2, 207720, Note_on_c, 0, 36, 54
2, 208010, Note_on_c, 0, 43, 0
2, 208010, Note_on_c, 0, 53, 0
2, 208080, Note_on_c, 0, 67, 0
2, 208080, Note_on_c, 0, 62, 0
2, 208080, Note_on_c, 0, 55, 0
2, 208080, Note_on_c, 0, 59, 0
2, 208080, Note_on_c, 0, 57, 95
2, 208080, Note_on_c, 0, 60, 94
2, 208080, Note_on_c, 0, 64, 93
2, 208080, Note_on_c, 0, 69, 94
2, 208080, Note_on_c, 0, 42, 54
2, 208080, Note_on_c, 0, 52, 54
2, 208405, Note_on_c, 0, 36, 0
2, 208440, Note_on_c, 0, 36, 51
2, 209090, Note_on_c, 0, 36, 0
2, 209160, Note_on_c, 0, 36, 54
2, 209323, Note_on_c, 0, 36, 0
2, 209340, Note_on_c, 0, 36, 54
2, 209450, Note_on_c, 0, 42, 0
2, 209450, Note_on_c, 0, 52, 0
2, 209503, Note_on_c, 0, 36, 0
2, 209520, Note_on_c, 0, 64, 0
2, 209520, Note_on_c, 0, 57, 0
2, 209520, Note_on_c, 0, 60, 0
2, 209520, Note_on_c, 0, 69, 0
2, 209520, Note_on_c, 0, 56, 84
2, 209520, Note_on_c, 0, 60, 87
2, 209520, Note_on_c, 0, 62, 85
2, 209520, Note_on_c, 0, 68, 86
2, 209520, Note_on_c, 0, 41, 58
2, 209520, Note_on_c, 0, 50, 59
2, 209520, Note_on_c, 0, 36, 56
2, 209845, Note_on_c, 0, 36, 0
2, 209880, Note_on_c, 0, 36, 51
2, 210530, Note_on_c, 0, 36, 0
2, 210600, Note_on_c, 0, 36, 51
2, 210960, Note_on_c, 0, 50, 0
2, 210960, Note_on_c, 0, 68, 0
2, 210960, Note_on_c, 0, 60, 0
2, 210960, Note_on_c, 0, 62, 0
2, 210960, Note_on_c, 0, 56, 0
2, 210960, Note_on_c, 0, 41, 0
2, 210960, Note_on_c, 0, 55, 87
2, 210960, Note_on_c, 0, 60, 84
2, 210960, Note_on_c, 0, 64, 87
2, 210960, Note_on_c, 0, 67, 84
2, 210960, Note_on_c, 0, 43, 64
2, 210960, Note_on_c, 0, 52, 65
2, 211285, Note_on_c, 0, 36, 0
2, 211320, Note_on_c, 0, 36, 55
2, 211680, Note_on_c, 0, 43, 0
2, 211680, Note_on_c, 0, 67, 0
2, 211680, Note_on_c, 0, 60, 0
2, 211680, Note_on_c, 0, 64, 0
2, 211680, Note_on_c, 0, 55, 0
2, 211680, Note_on_c, 0, 52, 0
2, 211680, Note_on_c, 0, 54, 83
2, 211680, Note_on_c, 0, 56, 83
2, 211680, Note_on_c, 0, 60, 80
2, 211680, Note_on_c, 0, 63, 81
2, 211680, Note_on_c, 0, 66, 84
2, 211680, Note_on_c, 0, 44, 57
2, 211680, Note_on_c, 0, 51, 55
2, 211970, Note_on_c, 0, 36, 0
2, 212040, Note_on_c, 0, 36, 55
2, 212400, Note_on_c, 0, 54, 0
2, 212400, Note_on_c, 0, 51, 0
2, 212400, Note_on_c, 0, 66, 0
2, 212400, Note_on_c, 0, 56, 0
2, 212400, Note_on_c, 0, 60, 0
2, 212400, Note_on_c, 0, 63, 0
2, 212400, Note_on_c, 0, 44, 0
2, 212400, Note_on_c, 0, 53, 84
2, 212400, Note_on_c, 0, 60, 86
2, 212400, Note_on_c, 0, 62, 86
2, 212400, Note_on_c, 0, 65, 84
2, 212400, Note_on_c, 0, 56, 63
2, 212400, Note_on_c, 0, 44, 61
2, 212400, Note_on_c, 0, 50, 57
2, 212725, Note_on_c, 0, 36, 0
2, 212760, Note_on_c, 0, 36, 54
2, 213050, Note_on_c, 0, 56, 0
2, 213120, Note_on_c, 0, 44, 0
2, 213120, Note_on_c, 0, 55, 72
2, 213120, Note_on_c, 0, 43, 52
2, 213410, Note_on_c, 0, 36, 0
2, 213480, Note_on_c, 0, 36, 53
2, 213770, Note_on_c, 0, 43, 0
2, 213770, Note_on_c, 0, 50, 0
2, 213770, Note_on_c, 0, 55, 0
2, 213840, Note_on_c, 0, 60, 0
2, 213840, Note_on_c, 0, 62, 0
2, 213840, Note_on_c, 0, 53, 0
2, 213840, Note_on_c, 0, 65, 0
2, 213840, Note_on_c, 0, 52, 80
2, 213840, Note_on_c, 0, 55, 79
2, 213840, Note_on_c, 0, 60, 81
2, 213840, Note_on_c, 0, 64, 81
2, 213840, Note_on_c, 0, 43, 54
2, 213840, Note_on_c, 0, 48, 54
2, 215280, Note_on_c, 0, 36, 54
2, 215605, Note_on_c, 0, 48, 0
2, 215605, Note_on_c, 0, 60, 0
2, 215605, Note_on_c, 0, 64, 0
2, 215605, Note_on_c, 0, 52, 0
2, 215605, Note_on_c, 0, 55, 0
2, 215605, Note_on_c, 0, 36, 0
2, 215605, Note_on_c, 0, 43, 0
2, 216180, Note_on_c, 0, 55, 74
2, 216180, Note_on_c, 0, 43, 48
2, 216269, Note_on_c, 0, 43, 0
2, 216269, Note_on_c, 0, 55, 0
2, 216360, Note_on_c, 0, 57, 88
2, 216360, Note_on_c, 0, 45, 56
2, 216449, Note_on_c, 0, 45, 0
2, 216449, Note_on_c, 0, 57, 0
2, 216540, Note_on_c, 0, 59, 86
2, 216540, Note_on_c, 0, 47, 54
2, 216629, Note_on_c, 0, 47, 0
2, 216629, Note_on_c, 0, 59, 0
2, 216720, Note_on_c, 0, 60, 89
2, 216720, Note_on_c, 0, 48, 60
2, 216897, Note_on_c, 0, 48, 0
2, 216897, Note_on_c, 0, 60, 0
2, 217080, Note_on_c, 0, 60, 85
2, 217080, Note_on_c, 0, 48, 57
2, 217169, Note_on_c, 0, 48, 0
2, 217169, Note_on_c, 0, 60, 0
2, 217260, Note_on_c, 0, 62, 86
2, 217260, Note_on_c, 0, 50, 57
2, 217349, Note_on_c, 0, 50, 0
2, 217349, Note_on_c, 0, 62, 0
2, 217440, Note_on_c, 0, 64, 91
2, 217440, Note_on_c, 0, 52, 62
2, 218160, Note_on_c, 0, 52, 0
2, 218160, Note_on_c, 0, 64, 0
2, 218880, Note_on_c, 0, 52, 75
2, 218880, Note_on_c, 0, 40, 51
2, 218969, Note_on_c, 0, 40, 0
2, 218969, Note_on_c, 0, 52, 0
2, 219060, Note_on_c, 0, 53, 85
2, 219060, Note_on_c, 0, 41, 53
2, 219149, Note_on_c, 0, 41, 0
2, 219149, Note_on_c, 0, 53, 0
2, 219240, Note_on_c, 0, 55, 88
2, 219240, Note_on_c, 0, 43, 58
2, 219417, Note_on_c, 0, 43, 0
2, 219417, Note_on_c, 0, 55, 0
2, 219600, Note_on_c, 0, 57, 90
2, 219600, Note_on_c, 0, 45, 58
2, 219777, Note_on_c, 0, 45, 0
2, 219777, Note_on_c, 0, 57, 0
2, 219960, Note_on_c, 0, 57, 83
2, 219960, Note_on_c, 0, 45, 57
2, 220049, Note_on_c, 0, 45, 0
2, 220049, Note_on_c, 0, 57, 0
2, 220140, Note_on_c, 0, 59, 84
2, 220140, Note_on_c, 0, 47, 57
2, 220229, Note_on_c, 0, 47, 0
2, 220229, Note_on_c, 0, 59, 0
2, 220320, Note_on_c, 0, 60, 92
2, 220320, Note_on_c, 0, 48, 61
2, 221365, Note_on_c, 0, 48, 0
2, 221365, Note_on_c, 0, 60, 0
2, 221400, Note_on_c, 0, 60, 84
2, 221400, Note_on_c, 0, 48, 55
2, 221489, Note_on_c, 0, 48, 0
2, 221489, Note_on_c, 0, 60, 0
2, 221580, Note_on_c, 0, 60, 80
2, 221580, Note_on_c, 0, 48, 53
2, 221669, Note_on_c, 0, 48, 0
2, 221669, Note_on_c, 0, 60, 0
2, 221760, Note_on_c, 0, 60, 81
2, 221760, Note_on_c, 0, 48, 54
2, 221937, Note_on_c, 0, 48, 0
2, 221937, Note_on_c, 0, 60, 0
2, 222120, Note_on_c, 0, 58, 75
2, 222120, Note_on_c, 0, 46, 48
2, 222297, Note_on_c, 0, 46, 0
2, 222297, Note_on_c, 0, 58, 0
2, 222480, Note_on_c, 0, 60, 90
2, 222480, Note_on_c, 0, 48, 57
2, 222657, Note_on_c, 0, 48, 0
2, 222657, Note_on_c, 0, 60, 0
2, 222840, Note_on_c, 0, 55, 71
2, 222840, Note_on_c, 0, 43, 47
2, 223017, Note_on_c, 0, 43, 0
2, 223017, Note_on_c, 0, 55, 0
2, 223200, Note_on_c, 0, 60, 94
2, 223200, Note_on_c, 0, 48, 63
2, 224245, Note_on_c, 0, 48, 0
2, 224245, Note_on_c, 0, 60, 0
2, 224280, Note_on_c, 0, 55, 71
2, 224280, Note_on_c, 0, 43, 46
2, 224457, Note_on_c, 0, 43, 0
2, 224457, Note_on_c, 0, 55, 0
2, 224640, Note_on_c, 0, 60, 90
2, 224640, Note_on_c, 0, 48, 59
2, 224817, Note_on_c, 0, 48, 0
2, 224817, Note_on_c, 0, 60, 0
2, 225000, Note_on_c, 0, 50, 62
2, 225000, Note_on_c, 0, 38, 44
2, 225177, Note_on_c, 0, 38, 0
2, 225177, Note_on_c, 0, 50, 0
2, 225360, Note_on_c, 0, 48, 105
2, 225360, Note_on_c, 0, 52, 106
2, 225360, Note_on_c, 0, 60, 104
2, 225360, Note_on_c, 0, 36, 66
2, 225360, Note_on_c, 0, 43, 68
2, 227450, Note_on_c, 0, 43, 0
2, 227450, Note_on_c, 0, 48, 0
2, 227450, Note_on_c, 0, 52, 0
2, 227450, Note_on_c, 0, 36, 0
2, 227450, Note_on_c, 0, 60, 0
2, 227520, Note_on_c, 0, 50, 74
2, 227520, Note_on_c, 0, 53, 75
2, 227520, Note_on_c, 0, 55, 77
2, 227520, Note_on_c, 0, 36, 61
2, 227520, Note_on_c, 0, 43, 60
2, 228240, Note_on_c, 0, 43, 0
2, 228240, Note_on_c, 0, 50, 0
2, 228240, Note_on_c, 0, 53, 0
2, 228240, Note_on_c, 0, 36, 0
2, 228240, Note_on_c, 0, 55, 0
2, 228240, Note_on_c, 0, 48, 98
2, 228240, Note_on_c, 0, 52, 96
2, 228240, Note_on_c, 0, 60, 99
2, 228240, Note_on_c, 0, 36, 54
2, 228240, Note_on_c, 0, 43, 58
2, 230330, Note_on_c, 0, 43, 0
2, 230330, Note_on_c, 0, 48, 0
2, 230330, Note_on_c, 0, 52, 0
2, 230330, Note_on_c, 0, 36, 0
2, 230330, Note_on_c, 0, 60, 0
2, 230400, Note_on_c, 0, 50, 74
2, 230400, Note_on_c, 0, 53, 78
2, 230400, Note_on_c, 0, 55, 76
2, 230400, Note_on_c, 0, 36, 61
2, 230400, Note_on_c, 0, 43, 61
2, 231120, Note_on_c, 0, 43, 0
2, 231120, Note_on_c, 0, 50, 0
2, 231120, Note_on_c, 0, 53, 0
2, 231120, Note_on_c, 0, 36, 0
2, 231120, Note_on_c, 0, 55, 0
2, 231120, Note_on_c, 0, 48, 97
2, 231120, Note_on_c, 0, 52, 96
2, 231120, Note_on_c, 0, 60, 96
2, 231120, Note_on_c, 0, 36, 61
2, 231120, Note_on_c, 0, 43, 61
2, 232560, Note_on_c, 0, 43, 0
2, 232560, Note_on_c, 0, 48, 0
2, 232560, Note_on_c, 0, 52, 0
2, 232560, Note_on_c, 0, 36, 0
2, 232560, Note_on_c, 0, 60, 0
2, 232560, Note_on_c, 0, 48, 85
2, 232560, Note_on_c, 0, 52, 84
2, 232560, Note_on_c, 0, 60, 85
2, 232560, Note_on_c, 0, 36, 57
2, 232560, Note_on_c, 0, 43, 57
2, 233210, Note_on_c, 0, 43, 0
2, 233210, Note_on_c, 0, 48, 0
2, 233210, Note_on_c, 0, 52, 0
2, 233210, Note_on_c, 0, 36, 0
2, 233210, Note_on_c, 0, 60, 0
2, 233280, Note_on_c, 0, 48, 79
2, 233280, Note_on_c, 0, 52, 79
2, 233280, Note_on_c, 0, 60, 81
2, 233280, Note_on_c, 0, 36, 51
2, 233280, Note_on_c, 0, 43, 54
2, 233930, Note_on_c, 0, 43, 0
2, 233930, Note_on_c, 0, 48, 0
2, 233930, Note_on_c, 0, 52, 0
2, 233930, Note_on_c, 0, 36, 0
2, 233930, Note_on_c, 0, 60, 0
2, 234000, Note_on_c, 0, 48, 83
2, 234000, Note_on_c, 0, 52, 86
2, 234000, Note_on_c, 0, 60, 85
2, 234000, Note_on_c, 0, 36, 54
2, 234000, Note_on_c, 0, 43, 54
2, 235370, Note_on_c, 0, 43, 0
2, 235370, Note_on_c, 0, 48, 0
2, 235370, Note_on_c, 0, 52, 0
2, 235370, Note_on_c, 0, 36, 0
2, 235370, Note_on_c, 0, 60, 0
2, 235440, Note_on_c, 0, 48, 83
2, 235440, Note_on_c, 0, 52, 85
2, 235440, Note_on_c, 0, 60, 83
2, 235440, Note_on_c, 0, 36, 54
2, 235440, Note_on_c, 0, 43, 54
2, 236810, Note_on_c, 0, 43, 0
2, 236810, Note_on_c, 0, 48, 0
2, 236810, Note_on_c, 0, 52, 0
2, 236810, Note_on_c, 0, 36, 0
2, 236810, Note_on_c, 0, 60, 0
2, 236880, Note_on_c, 0, 60, 113
2, 236880, Note_on_c, 0, 64, 111
2, 236880, Note_on_c, 0, 72, 111
2, 236880, Note_on_c, 0, 36, 69
2, 236880, Note_on_c, 0, 43, 71
2, 236880, Note_on_c, 0, 48, 69
2, 238320, Note_on_c, 0, 48, 0
2, 238320, Note_on_c, 0, 72, 0
2, 238320, Note_on_c, 0, 60, 0
2, 238320, Note_on_c, 0, 64, 0
2, 238320, Note_on_c, 0, 36, 0
2, 238320, Note_on_c, 0, 43, 0
2, 240120, Note_on_c, 0, 62, 75
2, 240283, Note_on_c, 0, 62, 0
2, 240300, Note_on_c, 0, 61, 75
2, 240463, Note_on_c, 0, 61, 0
2, 240480, Note_on_c, 0, 62, 88
2, 240643, Note_on_c, 0, 62, 0
2, 240660, Note_on_c, 0, 61, 79
2, 240823, Note_on_c, 0, 61, 0
2, 240840, Note_on_c, 0, 62, 84
2, 241003, Note_on_c, 0, 62, 0
2, 241020, Note_on_c, 0, 61, 76
2, 241183, Note_on_c, 0, 61, 0
2, 241200, Note_on_c, 0, 62, 85
2, 241363, Note_on_c, 0, 62, 0
2, 241380, Note_on_c, 0, 61, 78
2, 241543, Note_on_c, 0, 61, 0
2, 241560, Note_on_c, 0, 62, 87
2, 241723, Note_on_c, 0, 62, 0
2, 241740, Note_on_c, 0, 61, 79
2, 241903, Note_on_c, 0, 61, 0
2, 241920, Note_on_c, 0, 62, 85
2, 242083, Note_on_c, 0, 62, 0
2, 242100, Note_on_c, 0, 61, 78
2, 242263, Note_on_c, 0, 61, 0
2, 242280, Note_on_c, 0, 62, 86
2, 242443, Note_on_c, 0, 62, 0
2, 242460, Note_on_c, 0, 61, 77
2, 242623, Note_on_c, 0, 61, 0
2, 242640, Note_on_c, 0, 62, 85
2, 242803, Note_on_c, 0, 62, 0
2, 242820, Note_on_c, 0, 61, 78
2, 242983, Note_on_c, 0, 61, 0
2, 243000, Note_on_c, 0, 62, 85
2, 243163, Note_on_c, 0, 62, 0
2, 243180, Note_on_c, 0, 61, 75
2, 243343, Note_on_c, 0, 61, 0
2, 243360, Note_on_c, 0, 62, 84
2, 243523, Note_on_c, 0, 62, 0
2, 243540, Note_on_c, 0, 61, 76
2, 243703, Note_on_c, 0, 61, 0
2, 243720, Note_on_c, 0, 62, 86
2, 243883, Note_on_c, 0, 62, 0
2, 243900, Note_on_c, 0, 61, 76
2, 244063, Note_on_c, 0, 61, 0
2, 244080, Note_on_c, 0, 62, 86
2, 244243, Note_on_c, 0, 62, 0
2, 244260, Note_on_c, 0, 61, 76
2, 244423, Note_on_c, 0, 61, 0
2, 244440, Note_on_c, 0, 62, 85
2, 244603, Note_on_c, 0, 62, 0
2, 244620, Note_on_c, 0, 61, 78
2, 244783, Note_on_c, 0, 61, 0
2, 244800, Note_on_c, 0, 62, 86
2, 244963, Note_on_c, 0, 62, 0
2, 244980, Note_on_c, 0, 61, 77
2, 245143, Note_on_c, 0, 61, 0
2, 245160, Note_on_c, 0, 62, 87
2, 245323, Note_on_c, 0, 62, 0
2, 245340, Note_on_c, 0, 61, 78
2, 245503, Note_on_c, 0, 61, 0
2, 245520, Note_on_c, 0, 62, 86
2, 245683, Note_on_c, 0, 62, 0
2, 245700, Note_on_c, 0, 61, 78
2, 245863, Note_on_c, 0, 61, 0
2, 245880, Note_on_c, 0, 62, 84
2, 246043, Note_on_c, 0, 62, 0
2, 246060, Note_on_c, 0, 61, 78
2, 246223, Note_on_c, 0, 61, 0
2, 246240, Note_on_c, 0, 62, 84
2, 246403, Note_on_c, 0, 62, 0
2, 246420, Note_on_c, 0, 61, 79
2, 246583, Note_on_c, 0, 61, 0
2, 246600, Note_on_c, 0, 62, 85
2, 246763, Note_on_c, 0, 62, 0
2, 246780, Note_on_c, 0, 61, 77
2, 246943, Note_on_c, 0, 61, 0
2, 246960, Note_on_c, 0, 62, 86
2, 247123, Note_on_c, 0, 62, 0
2, 247140, Note_on_c, 0, 61, 78
2, 247303, Note_on_c, 0, 61, 0
2, 247320, Note_on_c, 0, 62, 88
2, 247483, Note_on_c, 0, 62, 0
2, 247500, Note_on_c, 0, 61, 78
2, 247663, Note_on_c, 0, 61, 0
2, 247680, Note_on_c, 0, 62, 87
2, 247843, Note_on_c, 0, 62, 0
2, 247860, Note_on_c, 0, 61, 76
2, 248023, Note_on_c, 0, 61, 0
2, 248040, Note_on_c, 0, 62, 85
2, 248203, Note_on_c, 0, 62, 0
2, 248220, Note_on_c, 0, 66, 91
2, 248383, Note_on_c, 0, 66, 0
2, 248400, Note_on_c, 0, 71, 94
2, 248563, Note_on_c, 0, 71, 0
2, 248580, Note_on_c, 0, 64, 69
2, 248743, Note_on_c, 0, 64, 0
2, 248760, Note_on_c, 0, 62, 76
2, 248760, Note_on_c, 0, 55, 50
2, 248760, Note_on_c, 0, 59, 50
2, 248923, Note_on_c, 0, 62, 0
2, 248937, Note_on_c, 0, 59, 0
2, 248937, Note_on_c, 0, 55, 0
2, 248940, Note_on_c, 0, 69, 92
2, 249103, Note_on_c, 0, 69, 0
2, 249120, Note_on_c, 0, 71, 89
2, 249120, Note_on_c, 0, 55, 51
2, 249120, Note_on_c, 0, 59, 52
2, 249283, Note_on_c, 0, 71, 0
2, 249297, Note_on_c, 0, 59, 0
2, 249297, Note_on_c, 0, 55, 0
2, 249300, Note_on_c, 0, 66, 71
2, 249463, Note_on_c, 0, 66, 0
2, 249480, Note_on_c, 0, 67, 86
2, 249643, Note_on_c, 0, 67, 0
2, 249660, Note_on_c, 0, 69, 86
2, 249823, Note_on_c, 0, 69, 0
2, 249840, Note_on_c, 0, 71, 88
2, 249840, Note_on_c, 0, 55, 46
2, 249840, Note_on_c, 0, 59, 48
2, 250003, Note_on_c, 0, 71, 0
2, 250017, Note_on_c, 0, 59, 0
2, 250017, Note_on_c, 0, 55, 0
2, 250020, Note_on_c, 0, 69, 77
2, 250183, Note_on_c, 0, 69, 0
2, 250200, Note_on_c, 0, 67, 79
2, 250200, Note_on_c, 0, 55, 52
2, 250200, Note_on_c, 0, 59, 54
2, 250363, Note_on_c, 0, 67, 0
2, 250377, Note_on_c, 0, 59, 0
2, 250377, Note_on_c, 0, 55, 0
2, 250380, Note_on_c, 0, 69, 84
2, 250543, Note_on_c, 0, 69, 0
2, 250560, Note_on_c, 0, 71, 89
2, 250723, Note_on_c, 0, 71, 0
2, 250740, Note_on_c, 0, 62, 62
2, 250903, Note_on_c, 0, 62, 0
2, 250920, Note_on_c, 0, 67, 90
2, 250920, Note_on_c, 0, 55, 49
2, 250920, Note_on_c, 0, 59, 47
2, 251083, Note_on_c, 0, 67, 0
2, 251097, Note_on_c, 0, 59, 0
2, 251097, Note_on_c, 0, 55, 0
2, 251100, Note_on_c, 0, 69, 88
2, 251263, Note_on_c, 0, 69, 0
2, 251280, Note_on_c, 0, 71, 87
2, 251280, Note_on_c, 0, 55, 50
2, 251280, Note_on_c, 0, 59, 51
2, 251443, Note_on_c, 0, 71, 0
2, 251457, Note_on_c, 0, 59, 0
2, 251457, Note_on_c, 0, 55, 0
2, 251460, Note_on_c, 0, 66, 71
2, 251623, Note_on_c, 0, 66, 0
2, 251640, Note_on_c, 0, 67, 85
2, 251803, Note_on_c, 0, 67, 0
2, 251820, Note_on_c, 0, 71, 90
2, 251983, Note_on_c, 0, 71, 0
2, 252000, Note_on_c, 0, 79, 101
2, 252000, Note_on_c, 0, 55, 47
2, 252000, Note_on_c, 0, 59, 50
2, 252163, Note_on_c, 0, 79, 0
2, 252177, Note_on_c, 0, 59, 0
2, 252177, Note_on_c, 0, 55, 0
2, 252180, Note_on_c, 0, 71, 68
2, 252343, Note_on_c, 0, 71, 0
2, 252360, Note_on_c, 0, 67, 71
2, 252360, Note_on_c, 0, 55, 52
2, 252360, Note_on_c, 0, 59, 51
2, 252523, Note_on_c, 0, 67, 0
2, 252537, Note_on_c, 0, 59, 0
2, 252537, Note_on_c, 0, 55, 0
2, 252540, Note_on_c, 0, 72, 89
2, 252703, Note_on_c, 0, 72, 0
2, 252720, Note_on_c, 0, 71, 83
2, 252883, Note_on_c, 0, 71, 0
2, 252900, Note_on_c, 0, 67, 71
2, 253063, Note_on_c, 0, 67, 0
2, 253080, Note_on_c, 0, 69, 85
2, 253080, Note_on_c, 0, 55, 50
2, 253080, Note_on_c, 0, 59, 48
2, 253243, Note_on_c, 0, 69, 0
2, 253257, Note_on_c, 0, 59, 0
2, 253257, Note_on_c, 0, 55, 0
2, 253260, Note_on_c, 0, 67, 74
2, 253423, Note_on_c, 0, 67, 0
2, 253440, Note_on_c, 0, 71, 90
2, 253440, Note_on_c, 0, 55, 53
2, 253440, Note_on_c, 0, 59, 52
2, 253603, Note_on_c, 0, 71, 0
2, 253617, Note_on_c, 0, 59, 0
2, 253617, Note_on_c, 0, 55, 0
2, 253620, Note_on_c, 0, 66, 73
2, 253783, Note_on_c, 0, 66, 0
2, 253800, Note_on_c, 0, 67, 85
2, 253963, Note_on_c, 0, 67, 0
2, 253980, Note_on_c, 0, 66, 77
2, 254143, Note_on_c, 0, 66, 0
2, 254160, Note_on_c, 0, 71, 92
2, 254160, Note_on_c, 0, 55, 46
2, 254160, Note_on_c, 0, 59, 46
2, 254323, Note_on_c, 0, 71, 0
2, 254337, Note_on_c, 0, 59, 0
2, 254337, Note_on_c, 0, 55, 0
2, 254340, Note_on_c, 0, 64, 68
2, 254503, Note_on_c, 0, 64, 0
2, 254520, Note_on_c, 0, 62, 78
2, 254520, Note_on_c, 0, 55, 52
2, 254520, Note_on_c, 0, 59, 52
2, 254683, Note_on_c, 0, 62, 0
2, 254697, Note_on_c, 0, 59, 0
2, 254697, Note_on_c, 0, 55, 0
2, 254700, Note_on_c, 0, 69, 93
2, 254863, Note_on_c, 0, 69, 0
2, 254880, Note_on_c, 0, 71, 91
2, 255043, Note_on_c, 0, 71, 0
2, 255060, Note_on_c, 0, 67, 74
2, 255223, Note_on_c, 0, 67, 0
2, 255240, Note_on_c, 0, 69, 89
2, 255240, Note_on_c, 0, 55, 50
2, 255240, Note_on_c, 0, 59, 49
2, 255403, Note_on_c, 0, 69, 0
2, 255417, Note_on_c, 0, 59, 0
2, 255417, Note_on_c, 0, 55, 0
2, 255420, Note_on_c, 0, 67, 77
2, 255583, Note_on_c, 0, 67, 0
2, 255600, Note_on_c, 0, 71, 89
2, 255600, Note_on_c, 0, 55, 50
2, 255600, Note_on_c, 0, 59, 50
2, 255763, Note_on_c, 0, 71, 0
2, 255777, Note_on_c, 0, 59, 0
2, 255777, Note_on_c, 0, 55, 0
2, 255780, Note_on_c, 0, 69, 75
2, 255943, Note_on_c, 0, 69, 0
2, 255960, Note_on_c, 0, 71, 86
2, 256123, Note_on_c, 0, 71, 0
2, 256140, Note_on_c, 0, 79, 96
2, 256303, Note_on_c, 0, 79, 0
2, 256320, Note_on_c, 0, 83, 94
2, 256320, Note_on_c, 0, 55, 46
2, 256320, Note_on_c, 0, 59, 49
2, 256320, Note_on_c, 0, 64, 48
2, 256483, Note_on_c, 0, 83, 0
2, 256497, Note_on_c, 0, 59, 0
2, 256497, Note_on_c, 0, 64, 0
2, 256497, Note_on_c, 0, 55, 0
2, 256500, Note_on_c, 0, 79, 76
2, 256663, Note_on_c, 0, 79, 0
2, 256680, Note_on_c, 0, 71, 69
2, 256680, Note_on_c, 0, 59, 58
2, 256680, Note_on_c, 0, 64, 57
2, 256680, Note_on_c, 0, 67, 55
2, 256843, Note_on_c, 0, 71, 0
2, 256857, Note_on_c, 0, 64, 0
2, 256857, Note_on_c, 0, 67, 0
2, 256857, Note_on_c, 0, 59, 0
2, 256860, Note_on_c, 0, 81, 96
2, 257023, Note_on_c, 0, 81, 0
2, 257040, Note_on_c, 0, 79, 103
2, 257040, Note_on_c, 0, 83, 104
2, 257040, Note_on_c, 0, 62, 61
2, 257040, Note_on_c, 0, 67, 62
2, 257040, Note_on_c, 0, 71, 62
2, 257217, Note_on_c, 0, 71, 0
2, 257217, Note_on_c, 0, 79, 0
2, 257217, Note_on_c, 0, 83, 0
2, 257217, Note_on_c, 0, 62, 0
2, 257217, Note_on_c, 0, 67, 0
2, 257400, Note_on_c, 0, 76, 73
2, 257400, Note_on_c, 0, 64, 46
2, 257563, Note_on_c, 0, 64, 0
2, 257563, Note_on_c, 0, 76, 0
2, 257580, Note_on_c, 0, 74, 75
2, 257580, Note_on_c, 0, 67, 55
2, 257743, Note_on_c, 0, 67, 0
2, 257743, Note_on_c, 0, 74, 0
2, 257760, Note_on_c, 0, 81, 84
2, 257760, Note_on_c, 0, 81, 96
2, 257760, Note_on_c, 0, 69, 54
2, 257923, Note_on_c, 0, 81, 0
2, 257940, Note_on_c, 0, 78, 76
2, 258085, Note_on_c, 0, 69, 0
2, 258085, Note_on_c, 0, 81, 0
2, 258103, Note_on_c, 0, 78, 0
2, 258120, Note_on_c, 0, 76, 78
2, 258120, Note_on_c, 0, 62, 48
2, 258283, Note_on_c, 0, 62, 0
2, 258283, Note_on_c, 0, 76, 0
2, 258300, Note_on_c, 0, 74, 73
2, 258300, Note_on_c, 0, 66, 55
2, 258463, Note_on_c, 0, 66, 0
2, 258463, Note_on_c, 0, 74, 0
2, 258480, Note_on_c, 0, 79, 77
2, 258480, Note_on_c, 0, 79, 94
2, 258480, Note_on_c, 0, 67, 53
2, 258643, Note_on_c, 0, 79, 0
2, 258660, Note_on_c, 0, 76, 75
2, 258805, Note_on_c, 0, 67, 0
2, 258805, Note_on_c, 0, 79, 0
2, 258823, Note_on_c, 0, 76, 0
2, 258840, Note_on_c, 0, 74, 78
2, 258840, Note_on_c, 0, 62, 48
2, 259003, Note_on_c, 0, 62, 0
2, 259003, Note_on_c, 0, 74, 0
2, 259020, Note_on_c, 0, 71, 75
2, 259020, Note_on_c, 0, 64, 56
2, 259183, Note_on_c, 0, 64, 0
2, 259183, Note_on_c, 0, 71, 0
2, 259200, Note_on_c, 0, 78, 79
2, 259200, Note_on_c, 0, 78, 98
2, 259200, Note_on_c, 0, 66, 60
2, 259363, Note_on_c, 0, 78, 0
2, 259380, Note_on_c, 0, 74, 74
2, 259525, Note_on_c, 0, 66, 0
2, 259525, Note_on_c, 0, 78, 0
2, 259543, Note_on_c, 0, 74, 0
2, 259560, Note_on_c, 0, 71, 76
2, 259560, Note_on_c, 0, 59, 48
2, 259723, Note_on_c, 0, 59, 0
2, 259723, Note_on_c, 0, 71, 0
2, 259740, Note_on_c, 0, 67, 69
2, 259740, Note_on_c, 0, 62, 54
2, 259903, Note_on_c, 0, 62, 0
2, 259903, Note_on_c, 0, 67, 0
2, 259920, Note_on_c, 0, 76, 77
2, 259920, Note_on_c, 0, 76, 98
2, 259920, Note_on_c, 0, 64, 56
2, 260083, Note_on_c, 0, 76, 0
2, 260100, Note_on_c, 0, 72, 74
2, 260245, Note_on_c, 0, 64, 0
2, 260245, Note_on_c, 0, 76, 0
2, 260263, Note_on_c, 0, 72, 0
2, 260280, Note_on_c, 0, 71, 79
2, 260280, Note_on_c, 0, 59, 48
2, 260443, Note_on_c, 0, 59, 0
2, 260443, Note_on_c, 0, 71, 0
2, 260460, Note_on_c, 0, 67, 71
2, 260460, Note_on_c, 0, 60, 54
2, 260623, Note_on_c, 0, 60, 0
2, 260623, Note_on_c, 0, 67, 0
2, 260640, Note_on_c, 0, 74, 75
2, 260640, Note_on_c, 0, 74, 97
2, 260640, Note_on_c, 0, 62, 56
2, 260803, Note_on_c, 0, 74, 0
2, 260820, Note_on_c, 0, 71, 77
2, 260965, Note_on_c, 0, 62, 0
2, 260965, Note_on_c, 0, 74, 0
2, 260983, Note_on_c, 0, 71, 0
2, 261000, Note_on_c, 0, 69, 80
2, 261000, Note_on_c, 0, 59, 53
2, 261163, Note_on_c, 0, 59, 0
2, 261163, Note_on_c, 0, 69, 0
2, 261180, Note_on_c, 0, 67, 75
2, 261180, Note_on_c, 0, 60, 55
2, 261343, Note_on_c, 0, 60, 0
2, 261343, Note_on_c, 0, 67, 0
2, 261360, Note_on_c, 0, 74, 84
2, 261360, Note_on_c, 0, 74, 99
2, 261360, Note_on_c, 0, 62, 61
2, 261523, Note_on_c, 0, 74, 0
2, 261540, Note_on_c, 0, 71, 76
2, 261685, Note_on_c, 0, 62, 0
2, 261685, Note_on_c, 0, 74, 0
2, 261703, Note_on_c, 0, 71, 0
2, 261720, Note_on_c, 0, 69, 79
2, 261720, Note_on_c, 0, 59, 51
2, 261883, Note_on_c, 0, 69, 0
2, 261900, Note_on_c, 0, 67, 76
2, 262045, Note_on_c, 0, 59, 0
2, 262063, Note_on_c, 0, 67, 0
2, 262080, Note_on_c, 0, 72, 76
2, 262080, Note_on_c, 0, 72, 93
2, 262080, Note_on_c, 0, 60, 52
2, 262243, Note_on_c, 0, 72, 0
2, 262260, Note_on_c, 0, 69, 75
2, 262405, Note_on_c, 0, 60, 0
2, 262405, Note_on_c, 0, 72, 0
2, 262423, Note_on_c, 0, 69, 0
2, 262440, Note_on_c, 0, 67, 79
2, 262440, Note_on_c, 0, 57, 53
2, 262603, Note_on_c, 0, 67, 0
2, 262620, Note_on_c, 0, 64, 72
2, 262765, Note_on_c, 0, 57, 0
2, 262783, Note_on_c, 0, 64, 0
2, 262800, Note_on_c, 0, 71, 75
2, 262800, Note_on_c, 0, 71, 94
2, 262800, Note_on_c, 0, 59, 56
2, 262963, Note_on_c, 0, 71, 0
2, 262980, Note_on_c, 0, 67, 74
2, 263125, Note_on_c, 0, 59, 0
2, 263125, Note_on_c, 0, 71, 0
2, 263143, Note_on_c, 0, 67, 0
2, 263160, Note_on_c, 0, 66, 77
2, 263160, Note_on_c, 0, 55, 48
2, 263323, Note_on_c, 0, 66, 0
2, 263340, Note_on_c, 0, 64, 74
2, 263485, Note_on_c, 0, 55, 0
2, 263503, Note_on_c, 0, 64, 0
2, 263520, Note_on_c, 0, 71, 83
2, 263520, Note_on_c, 0, 71, 97
2, 263520, Note_on_c, 0, 59, 61
2, 263683, Note_on_c, 0, 71, 0
2, 263700, Note_on_c, 0, 67, 75
2, 263845, Note_on_c, 0, 71, 0
2, 263863, Note_on_c, 0, 67, 0
2, 263880, Note_on_c, 0, 66, 79
2, 264043, Note_on_c, 0, 66, 0
2, 264060, Note_on_c, 0, 64, 74
2, 264170, Note_on_c, 0, 59, 0
2, 264223, Note_on_c, 0, 64, 0
2, 264240, Note_on_c, 0, 72, 86
2, 264240, Note_on_c, 0, 72, 99
2, 264240, Note_on_c, 0, 57, 50
2, 264403, Note_on_c, 0, 72, 0
2, 264420, Note_on_c, 0, 64, 66
2, 264565, Note_on_c, 0, 72, 0
2, 264583, Note_on_c, 0, 64, 0
2, 264600, Note_on_c, 0, 62, 77
2, 264763, Note_on_c, 0, 62, 0
2, 264780, Note_on_c, 0, 60, 74
2, 264925, Note_on_c, 0, 57, 0
2, 264943, Note_on_c, 0, 60, 0
2, 264960, Note_on_c, 0, 71, 76
2, 264960, Note_on_c, 0, 71, 103
2, 264960, Note_on_c, 0, 62, 57
2, 265123, Note_on_c, 0, 71, 0
2, 265140, Note_on_c, 0, 66, 75
2, 265285, Note_on_c, 0, 71, 0
2, 265303, Note_on_c, 0, 66, 0
2, 265320, Note_on_c, 0, 64, 79
2, 265483, Note_on_c, 0, 64, 0
2, 265500, Note_on_c, 0, 62, 76
2, 265610, Note_on_c, 0, 62, 0
2, 265663, Note_on_c, 0, 62, 0
2, 265680, Note_on_c, 0, 71, 85
2, 265843, Note_on_c, 0, 71, 0
2, 265860, Note_on_c, 0, 67, 72
2, 266023, Note_on_c, 0, 67, 0
2, 266040, Note_on_c, 0, 69, 89
2, 266040, Note_on_c, 0, 55, 49
2, 266040, Note_on_c, 0, 59, 47
2, 266203, Note_on_c, 0, 69, 0
2, 266217, Note_on_c, 0, 59, 0
2, 266217, Note_on_c, 0, 55, 0
2, 266220, Note_on_c, 0, 67, 77
2, 266383, Note_on_c, 0, 67, 0
2, 266400, Note_on_c, 0, 71, 91
2, 266400, Note_on_c, 0, 55, 51
2, 266400, Note_on_c, 0, 59, 50
2, 266563, Note_on_c, 0, 71, 0
2, 266577, Note_on_c, 0, 59, 0
2, 266577, Note_on_c, 0, 55, 0
2, 266580, Note_on_c, 0, 66, 72
2, 266743, Note_on_c, 0, 66, 0
2, 266760, Note_on_c, 0, 67, 85
2, 266923, Note_on_c, 0, 67, 0
2, 266940, Note_on_c, 0, 66, 78
2, 267103, Note_on_c, 0, 66, 0
2, 267120, Note_on_c, 0, 71, 94
2, 267120, Note_on_c, 0, 55, 50
2, 267120, Note_on_c, 0, 59, 47
2, 267283, Note_on_c, 0, 71, 0
2, 267297, Note_on_c, 0, 59, 0
2, 267297, Note_on_c, 0, 55, 0
2, 267300, Note_on_c, 0, 65, 72
2, 267463, Note_on_c, 0, 65, 0
2, 267480, Note_on_c, 0, 67, 85
2, 267480, Note_on_c, 0, 55, 51
2, 267480, Note_on_c, 0, 59, 53
2, 267643, Note_on_c, 0, 67, 0
2, 267657, Note_on_c, 0, 59, 0
2, 267657, Note_on_c, 0, 55, 0
2, 267660, Note_on_c, 0, 69, 83
2, 267823, Note_on_c, 0, 69, 0
2, 267840, Note_on_c, 0, 71, 89
2, 268003, Note_on_c, 0, 71, 0
2, 268020, Note_on_c, 0, 67, 71
2, 268183, Note_on_c, 0, 67, 0
2, 268200, Note_on_c, 0, 64, 77
2, 268200, Note_on_c, 0, 55, 46
2, 268200, Note_on_c, 0, 59, 47
2, 268363, Note_on_c, 0, 64, 0
2, 268377, Note_on_c, 0, 59, 0
2, 268377, Note_on_c, 0, 55, 0
2, 268380, Note_on_c, 0, 67, 85
2, 268543, Note_on_c, 0, 67, 0
2, 268560, Note_on_c, 0, 71, 91
2, 268560, Note_on_c, 0, 55, 53
2, 268560, Note_on_c, 0, 59, 53
2, 268723, Note_on_c, 0, 71, 0
2, 268737, Note_on_c, 0, 59, 0
2, 268737, Note_on_c, 0, 55, 0
2, 268740, Note_on_c, 0, 66, 74
2, 268903, Note_on_c, 0, 66, 0
2, 268920, Note_on_c, 0, 67, 84
2, 269083, Note_on_c, 0, 67, 0
2, 269100, Note_on_c, 0, 71, 91
2, 269263, Note_on_c, 0, 71, 0
2, 269280, Note_on_c, 0, 79, 99
2, 269280, Note_on_c, 0, 55, 48
2, 269280, Note_on_c, 0, 59, 48
2, 269443, Note_on_c, 0, 79, 0
2, 269457, Note_on_c, 0, 59, 0
2, 269457, Note_on_c, 0, 55, 0
2, 269460, Note_on_c, 0, 71, 69
2, 269623, Note_on_c, 0, 71, 0
2, 269640, Note_on_c, 0, 67, 75
2, 269640, Note_on_c, 0, 55, 51
2, 269640, Note_on_c, 0, 59, 50
2, 269803, Note_on_c, 0, 67, 0
2, 269817, Note_on_c, 0, 59, 0
2, 269817, Note_on_c, 0, 55, 0
2, 269820, Note_on_c, 0, 69, 81
2, 269983, Note_on_c, 0, 69, 0
2, 270000, Note_on_c, 0, 71, 87
2, 270163, Note_on_c, 0, 71, 0
2, 270180, Note_on_c, 0, 64, 67
2, 270343, Note_on_c, 0, 64, 0
2, 270360, Note_on_c, 0, 62, 76
2, 270360, Note_on_c, 0, 55, 47
2, 270360, Note_on_c, 0, 59, 48
2, 270523, Note_on_c, 0, 62, 0
2, 270537, Note_on_c, 0, 59, 0
2, 270537, Note_on_c, 0, 55, 0
2, 270540, Note_on_c, 0, 69, 94
2, 270703, Note_on_c, 0, 69, 0
2, 270720, Note_on_c, 0, 71, 89
2, 270720, Note_on_c, 0, 55, 50
2, 270720, Note_on_c, 0, 59, 53
2, 270883, Note_on_c, 0, 71, 0
2, 270897, Note_on_c, 0, 59, 0
2, 270897, Note_on_c, 0, 55, 0
2, 270900, Note_on_c, 0, 66, 72
2, 271063, Note_on_c, 0, 66, 0
2, 271080, Note_on_c, 0, 67, 86
2, 271243, Note_on_c, 0, 67, 0
2, 271260, Note_on_c, 0, 69, 83
2, 271423, Note_on_c, 0, 69, 0
2, 271440, Note_on_c, 0, 71, 87
2, 271440, Note_on_c, 0, 55, 47
2, 271440, Note_on_c, 0, 59, 48
2, 271603, Note_on_c, 0, 71, 0
2, 271617, Note_on_c, 0, 59, 0
2, 271617, Note_on_c, 0, 55, 0
2, 271620, Note_on_c, 0, 69, 76
2, 271783, Note_on_c, 0, 69, 0
2, 271800, Note_on_c, 0, 67, 77
2, 271800, Note_on_c, 0, 55, 53
2, 271800, Note_on_c, 0, 59, 53
2, 271963, Note_on_c, 0, 67, 0
2, 271977, Note_on_c, 0, 59, 0
2, 271977, Note_on_c, 0, 55, 0
2, 271980, Note_on_c, 0, 69, 84
2, 272143, Note_on_c, 0, 69, 0
2, 272160, Note_on_c, 0, 71, 91
2, 272323, Note_on_c, 0, 71, 0
2, 272340, Note_on_c, 0, 62, 63
2, 272503, Note_on_c, 0, 62, 0
2, 272520, Note_on_c, 0, 67, 90
2, 272520, Note_on_c, 0, 55, 46
2, 272520, Note_on_c, 0, 59, 48
2, 272683, Note_on_c, 0, 67, 0
2, 272697, Note_on_c, 0, 59, 0
2, 272697, Note_on_c, 0, 55, 0
2, 272700, Note_on_c, 0, 69, 84
2, 272863, Note_on_c, 0, 69, 0
2, 272880, Note_on_c, 0, 71, 88
2, 272880, Note_on_c, 0, 55, 53
2, 272880, Note_on_c, 0, 59, 52
2, 273043, Note_on_c, 0, 71, 0
2, 273057, Note_on_c, 0, 59, 0
2, 273057, Note_on_c, 0, 55, 0
2, 273060, Note_on_c, 0, 69, 77
2, 273223, Note_on_c, 0, 69, 0
2, 273240, Note_on_c, 0, 71, 86
2, 273403, Note_on_c, 0, 71, 0
2, 273420, Note_on_c, 0, 79, 95
2, 273583, Note_on_c, 0, 79, 0
2, 273600, Note_on_c, 0, 83, 96
2, 273600, Note_on_c, 0, 55, 47
2, 273600, Note_on_c, 0, 59, 47
2, 273763, Note_on_c, 0, 83, 0
2, 273777, Note_on_c, 0, 59, 0
2, 273777, Note_on_c, 0, 55, 0
2, 273780, Note_on_c, 0, 79, 75
2, 273943, Note_on_c, 0, 79, 0
2, 273960, Note_on_c, 0, 71, 69
2, 273960, Note_on_c, 0, 59, 62
2, 273960, Note_on_c, 0, 67, 61
2, 274123, Note_on_c, 0, 71, 0
2, 274137, Note_on_c, 0, 67, 0
2, 274137, Note_on_c, 0, 59, 0
2, 274140, Note_on_c, 0, 81, 96
2, 274303, Note_on_c, 0, 81, 0
2, 274320, Note_on_c, 0, 79, 102
2, 274320, Note_on_c, 0, 83, 106
2, 274320, Note_on_c, 0, 61, 64
2, 274320, Note_on_c, 0, 67, 64
2, 274320, Note_on_c, 0, 71, 62
2, 274497, Note_on_c, 0, 71, 0
2, 274497, Note_on_c, 0, 79, 0
2, 274497, Note_on_c, 0, 83, 0
2, 274497, Note_on_c, 0, 61, 0
2, 274497, Note_on_c, 0, 67, 0
2, 274680, Note_on_c, 0, 76, 73
2, 274680, Note_on_c, 0, 64, 47
2, 274843, Note_on_c, 0, 64, 0
2, 274843, Note_on_c, 0, 76, 0
2, 274860, Note_on_c, 0, 74, 75
2, 274860, Note_on_c, 0, 67, 57
2, 275023, Note_on_c, 0, 67, 0
2, 275023, Note_on_c, 0, 74, 0
2, 275040, Note_on_c, 0, 81, 83
2, 275040, Note_on_c, 0, 81, 95
2, 275040, Note_on_c, 0, 69, 55
2, 275203, Note_on_c, 0, 81, 0
2, 275220, Note_on_c, 0, 78, 76
2, 275365, Note_on_c, 0, 69, 0
2, 275365, Note_on_c, 0, 81, 0
2, 275383, Note_on_c, 0, 78, 0
2, 275400, Note_on_c, 0, 76, 78
2, 275400, Note_on_c, 0, 62, 47
2, 275563, Note_on_c, 0, 62, 0
2, 275563, Note_on_c, 0, 76, 0
2, 275580, Note_on_c, 0, 71, 69
2, 275580, Note_on_c, 0, 66, 56
2, 275743, Note_on_c, 0, 66, 0
2, 275743, Note_on_c, 0, 71, 0
2, 275760, Note_on_c, 0, 79, 76
2, 275760, Note_on_c, 0, 79, 97
2, 275760, Note_on_c, 0, 67, 57
2, 275923, Note_on_c, 0, 79, 0
2, 275940, Note_on_c, 0, 76, 75
2, 276085, Note_on_c, 0, 67, 0
2, 276085, Note_on_c, 0, 79, 0
2, 276103, Note_on_c, 0, 76, 0
2, 276120, Note_on_c, 0, 74, 77
2, 276120, Note_on_c, 0, 62, 52
2, 276283, Note_on_c, 0, 62, 0
2, 276283, Note_on_c, 0, 74, 0
2, 276300, Note_on_c, 0, 71, 74
2, 276300, Note_on_c, 0, 64, 52
2, 276463, Note_on_c, 0, 64, 0
2, 276463, Note_on_c, 0, 71, 0
2, 276480, Note_on_c, 0, 78, 78
2, 276480, Note_on_c, 0, 78, 97
2, 276480, Note_on_c, 0, 66, 57
2, 276643, Note_on_c, 0, 78, 0
2, 276660, Note_on_c, 0, 74, 76
2, 276805, Note_on_c, 0, 66, 0
2, 276805, Note_on_c, 0, 78, 0
2, 276823, Note_on_c, 0, 74, 0
2, 276840, Note_on_c, 0, 73, 81
2, 276840, Note_on_c, 0, 61, 48
2, 277003, Note_on_c, 0, 61, 0
2, 277003, Note_on_c, 0, 73, 0
2, 277020, Note_on_c, 0, 71, 74
2, 277020, Note_on_c, 0, 62, 55
2, 277183, Note_on_c, 0, 62, 0
2, 277183, Note_on_c, 0, 71, 0
2, 277200, Note_on_c, 0, 76, 76
2, 277200, Note_on_c, 0, 76, 93
2, 277200, Note_on_c, 0, 64, 57
2, 277363, Note_on_c, 0, 76, 0
2, 277380, Note_on_c, 0, 74, 79
2, 277525, Note_on_c, 0, 64, 0
2, 277525, Note_on_c, 0, 76, 0
2, 277543, Note_on_c, 0, 74, 0
2, 277560, Note_on_c, 0, 73, 80
2, 277560, Note_on_c, 0, 59, 50
2, 277723, Note_on_c, 0, 59, 0
2, 277723, Note_on_c, 0, 73, 0
2, 277740, Note_on_c, 0, 71, 75
2, 277740, Note_on_c, 0, 61, 54
2, 277903, Note_on_c, 0, 61, 0
2, 277903, Note_on_c, 0, 71, 0
2, 277920, Note_on_c, 0, 74, 76
2, 277920, Note_on_c, 0, 74, 90
2, 277920, Note_on_c, 0, 62, 54
2, 278083, Note_on_c, 0, 74, 0
2, 278100, Note_on_c, 0, 71, 74
2, 278245, Note_on_c, 0, 62, 0
2, 278245, Note_on_c, 0, 74, 0
2, 278263, Note_on_c, 0, 71, 0
2, 278280, Note_on_c, 0, 69, 78
2, 278280, Note_on_c, 0, 62, 54
2, 278443, Note_on_c, 0, 62, 0
2, 278443, Note_on_c, 0, 69, 0
2, 278460, Note_on_c, 0, 67, 74
2, 278460, Note_on_c, 0, 64, 57
2, 278623, Note_on_c, 0, 64, 0
2, 278623, Note_on_c, 0, 67, 0
2, 278640, Note_on_c, 0, 79, 91
2, 278640, Note_on_c, 0, 79, 103
2, 278640, Note_on_c, 0, 67, 60
2, 278803, Note_on_c, 0, 79, 0
2, 278820, Note_on_c, 0, 76, 79
2, 278965, Note_on_c, 0, 67, 0
2, 278965, Note_on_c, 0, 79, 0
2, 278983, Note_on_c, 0, 76, 0
2, 279000, Note_on_c, 0, 74, 79
2, 279000, Note_on_c, 0, 62, 51
2, 279163, Note_on_c, 0, 62, 0
2, 279163, Note_on_c, 0, 74, 0
2, 279180, Note_on_c, 0, 73, 75
2, 279180, Note_on_c, 0, 64, 54
2, 279343, Note_on_c, 0, 64, 0
2, 279343, Note_on_c, 0, 73, 0
2, 279360, Note_on_c, 0, 78, 77
2, 279360, Note_on_c, 0, 78, 92
2, 279360, Note_on_c, 0, 66, 55
2, 279523, Note_on_c, 0, 78, 0
2, 279540, Note_on_c, 0, 73, 73
2, 279685, Note_on_c, 0, 66, 0
2, 279685, Note_on_c, 0, 78, 0
2, 279703, Note_on_c, 0, 73, 0
2, 279720, Note_on_c, 0, 71, 78
2, 279720, Note_on_c, 0, 61, 51
2, 279883, Note_on_c, 0, 61, 0
2, 279883, Note_on_c, 0, 71, 0
2, 279900, Note_on_c, 0, 70, 78
2, 279900, Note_on_c, 0, 62, 53
2, 280063, Note_on_c, 0, 62, 0
2, 280063, Note_on_c, 0, 70, 0
2, 280080, Note_on_c, 0, 76, 74
2, 280080, Note_on_c, 0, 76, 93
2, 280080, Note_on_c, 0, 64, 54
2, 280243, Note_on_c, 0, 76, 0
2, 280260, Note_on_c, 0, 71, 74
2, 280405, Note_on_c, 0, 64, 0
2, 280405, Note_on_c, 0, 76, 0
2, 280423, Note_on_c, 0, 71, 0
2, 280440, Note_on_c, 0, 70, 78
2, 280440, Note_on_c, 0, 61, 53
2, 280603, Note_on_c, 0, 61, 0
2, 280603, Note_on_c, 0, 70, 0
2, 280620, Note_on_c, 0, 67, 72
2, 280620, Note_on_c, 0, 62, 54
2, 280783, Note_on_c, 0, 62, 0
2, 280783, Note_on_c, 0, 67, 0
2, 280800, Note_on_c, 0, 76, 82
2, 280800, Note_on_c, 0, 76, 100
2, 280800, Note_on_c, 0, 64, 58
2, 280963, Note_on_c, 0, 76, 0
2, 280980, Note_on_c, 0, 71, 73
2, 281125, Note_on_c, 0, 64, 0
2, 281125, Note_on_c, 0, 76, 0
2, 281143, Note_on_c, 0, 71, 0
2, 281160, Note_on_c, 0, 70, 77
2, 281160, Note_on_c, 0, 58, 48
2, 281323, Note_on_c, 0, 58, 0
2, 281323, Note_on_c, 0, 70, 0
2, 281340, Note_on_c, 0, 67, 71
2, 281340, Note_on_c, 0, 61, 57
2, 281503, Note_on_c, 0, 61, 0
2, 281503, Note_on_c, 0, 67, 0
2, 281520, Note_on_c, 0, 74, 74
2, 281520, Note_on_c, 0, 74, 98
2, 281520, Note_on_c, 0, 62, 57
2, 281683, Note_on_c, 0, 74, 0
2, 281700, Note_on_c, 0, 69, 72
2, 281845, Note_on_c, 0, 62, 0
2, 281845, Note_on_c, 0, 74, 0
2, 281863, Note_on_c, 0, 69, 0
2, 281880, Note_on_c, 0, 68, 78
2, 281880, Note_on_c, 0, 59, 51
2, 282043, Note_on_c, 0, 59, 0
2, 282043, Note_on_c, 0, 68, 0
2, 282060, Note_on_c, 0, 64, 71
2, 282060, Note_on_c, 0, 60, 55
2, 282223, Note_on_c, 0, 60, 0
2, 282223, Note_on_c, 0, 64, 0
2, 282240, Note_on_c, 0, 76, 87
2, 282240, Note_on_c, 0, 76, 104
2, 282240, Note_on_c, 0, 62, 57
2, 282403, Note_on_c, 0, 76, 0
2, 282420, Note_on_c, 0, 74, 79
2, 282565, Note_on_c, 0, 62, 0
2, 282565, Note_on_c, 0, 76, 0
2, 282583, Note_on_c, 0, 74, 0
2, 282600, Note_on_c, 0, 72, 78
2, 282600, Note_on_c, 0, 60, 53
2, 282763, Note_on_c, 0, 60, 0
2, 282763, Note_on_c, 0, 72, 0
2, 282780, Note_on_c, 0, 74, 86
2, 282780, Note_on_c, 0, 62, 54
2, 282943, Note_on_c, 0, 62, 0
2, 282943, Note_on_c, 0, 74, 0
2, 282960, Note_on_c, 0, 76, 85
2, 282960, Note_on_c, 0, 64, 59
2, 283123, Note_on_c, 0, 76, 0
2, 283140, Note_on_c, 0, 72, 73
2, 283285, Note_on_c, 0, 64, 0
2, 283303, Note_on_c, 0, 72, 0
2, 283320, Note_on_c, 0, 74, 89
2, 283320, Note_on_c, 0, 52, 51
2, 283320, Note_on_c, 0, 57, 51
2, 283320, Note_on_c, 0, 64, 53
2, 283483, Note_on_c, 0, 74, 0
2, 283497, Note_on_c, 0, 57, 0
2, 283497, Note_on_c, 0, 64, 0
2, 283497, Note_on_c, 0, 52, 0
2, 283500, Note_on_c, 0, 72, 77
2, 283663, Note_on_c, 0, 72, 0
2, 283680, Note_on_c, 0, 76, 91
2, 283680, Note_on_c, 0, 52, 53
2, 283680, Note_on_c, 0, 57, 54
2, 283680, Note_on_c, 0, 64, 53
2, 283843, Note_on_c, 0, 76, 0
2, 283857, Note_on_c, 0, 57, 0
2, 283857, Note_on_c, 0, 64, 0
2, 283857, Note_on_c, 0, 52, 0
2, 283860, Note_on_c, 0, 71, 71
2, 284023, Note_on_c, 0, 71, 0
2, 284040, Note_on_c, 0, 72, 87
2, 284203, Note_on_c, 0, 72, 0
2, 284220, Note_on_c, 0, 71, 75
2, 284383, Note_on_c, 0, 71, 0
2, 284400, Note_on_c, 0, 76, 92
2, 284400, Note_on_c, 0, 50, 49
2, 284400, Note_on_c, 0, 62, 50
2, 284400, Note_on_c, 0, 64, 49
2, 284563, Note_on_c, 0, 76, 0
2, 284577, Note_on_c, 0, 62, 0
2, 284577, Note_on_c, 0, 64, 0
2, 284577, Note_on_c, 0, 50, 0
2, 284580, Note_on_c, 0, 69, 70
2, 284743, Note_on_c, 0, 69, 0
2, 284760, Note_on_c, 0, 71, 87
2, 284760, Note_on_c, 0, 50, 51
2, 284760, Note_on_c, 0, 62, 51
2, 284760, Note_on_c, 0, 64, 53
2, 284923, Note_on_c, 0, 71, 0
2, 284937, Note_on_c, 0, 62, 0
2, 284937, Note_on_c, 0, 64, 0
2, 284937, Note_on_c, 0, 50, 0
2, 284940, Note_on_c, 0, 74, 87
2, 285103, Note_on_c, 0, 74, 0
2, 285120, Note_on_c, 0, 76, 90
2, 285283, Note_on_c, 0, 76, 0
2, 285300, Note_on_c, 0, 72, 73
2, 285463, Note_on_c, 0, 72, 0
2, 285480, Note_on_c, 0, 74, 88
2, 285480, Note_on_c, 0, 52, 46
2, 285480, Note_on_c, 0, 57, 47
2, 285480, Note_on_c, 0, 64, 49
2, 285643, Note_on_c, 0, 74, 0
2, 285657, Note_on_c, 0, 57, 0
2, 285657, Note_on_c, 0, 64, 0
2, 285657, Note_on_c, 0, 52, 0
2, 285660, Note_on_c, 0, 72, 76
2, 285823, Note_on_c, 0, 72, 0
2, 285840, Note_on_c, 0, 76, 92
2, 285840, Note_on_c, 0, 52, 50
2, 285840, Note_on_c, 0, 57, 53
2, 285840, Note_on_c, 0, 64, 51
2, 286003, Note_on_c, 0, 76, 0
2, 286017, Note_on_c, 0, 57, 0
2, 286017, Note_on_c, 0, 64, 0
2, 286017, Note_on_c, 0, 52, 0
2, 286020, Note_on_c, 0, 74, 77
2, 286183, Note_on_c, 0, 74, 0
2, 286200, Note_on_c, 0, 76, 87
2, 286363, Note_on_c, 0, 76, 0
2, 286380, Note_on_c, 0, 78, 86
2, 286543, Note_on_c, 0, 78, 0
2, 286560, Note_on_c, 0, 79, 89
2, 286560, Note_on_c, 0, 55, 47
2, 286560, Note_on_c, 0, 60, 48
2, 286560, Note_on_c, 0, 64, 48
2, 286723, Note_on_c, 0, 79, 0
2, 286737, Note_on_c, 0, 60, 0
2, 286737, Note_on_c, 0, 64, 0
2, 286737, Note_on_c, 0, 55, 0
2, 286740, Note_on_c, 0, 76, 74
2, 286903, Note_on_c, 0, 76, 0
2, 286920, Note_on_c, 0, 74, 77
2, 286920, Note_on_c, 0, 57, 55
2, 286920, Note_on_c, 0, 60, 55
2, 286920, Note_on_c, 0, 66, 56
2, 287083, Note_on_c, 0, 74, 0
2, 287097, Note_on_c, 0, 60, 0
2, 287097, Note_on_c, 0, 66, 0
2, 287097, Note_on_c, 0, 57, 0
2, 287100, Note_on_c, 0, 78, 86
2, 287263, Note_on_c, 0, 78, 0
2, 287280, Note_on_c, 0, 79, 86
2, 287280, Note_on_c, 0, 59, 58
2, 287280, Note_on_c, 0, 62, 59
2, 287280, Note_on_c, 0, 67, 59
2, 287443, Note_on_c, 0, 79, 0
2, 287457, Note_on_c, 0, 62, 0
2, 287457, Note_on_c, 0, 67, 0
2, 287457, Note_on_c, 0, 59, 0
2, 287460, Note_on_c, 0, 71, 65
2, 287623, Note_on_c, 0, 71, 0
2, 287640, Note_on_c, 0, 72, 86
2, 287640, Note_on_c, 0, 50, 46
2, 287640, Note_on_c, 0, 55, 48
2, 287640, Note_on_c, 0, 62, 46
2, 287803, Note_on_c, 0, 72, 0
2, 287817, Note_on_c, 0, 55, 0
2, 287817, Note_on_c, 0, 62, 0
2, 287817, Note_on_c, 0, 50, 0
2, 287820, Note_on_c, 0, 71, 78
2, 287983, Note_on_c, 0, 71, 0
2, 288000, Note_on_c, 0, 74, 89
2, 288000, Note_on_c, 0, 50, 50
2, 288000, Note_on_c, 0, 55, 51
2, 288000, Note_on_c, 0, 62, 51
2, 288163, Note_on_c, 0, 74, 0
2, 288177, Note_on_c, 0, 55, 0
2, 288177, Note_on_c, 0, 62, 0
2, 288177, Note_on_c, 0, 50, 0
2, 288180, Note_on_c, 0, 69, 73
2, 288343, Note_on_c, 0, 69, 0
2, 288360, Note_on_c, 0, 71, 87
2, 288523, Note_on_c, 0, 71, 0
2, 288540, Note_on_c, 0, 69, 76
2, 288703, Note_on_c, 0, 69, 0
2, 288720, Note_on_c, 0, 74, 94
2, 288720, Note_on_c, 0, 50, 47
2, 288720, Note_on_c, 0, 60, 48
2, 288720, Note_on_c, 0, 62, 47
2, 288883, Note_on_c, 0, 74, 0
2, 288897, Note_on_c, 0, 60, 0
2, 288897, Note_on_c, 0, 62, 0
2, 288897, Note_on_c, 0, 50, 0
2, 288900, Note_on_c, 0, 67, 68
2, 289063, Note_on_c, 0, 67, 0
2, 289080, Note_on_c, 0, 66, 77
2, 289080, Note_on_c, 0, 50, 53
2, 289080, Note_on_c, 0, 60, 51
2, 289080, Note_on_c, 0, 62, 50
2, 289243, Note_on_c, 0, 66, 0
2, 289257, Note_on_c, 0, 60, 0
2, 289257, Note_on_c, 0, 62, 0
2, 289257, Note_on_c, 0, 50, 0
2, 289260, Note_on_c, 0, 72, 93
2, 289423, Note_on_c, 0, 72, 0
2, 289440, Note_on_c, 0, 74, 89
2, 289603, Note_on_c, 0, 74, 0
2, 289620, Note_on_c, 0, 67, 67
2, 289783, Note_on_c, 0, 67, 0
2, 289800, Note_on_c, 0, 69, 85
2, 289800, Note_on_c, 0, 50, 50
2, 289800, Note_on_c, 0, 55, 47
2, 289800, Note_on_c, 0, 62, 48
2, 289963, Note_on_c, 0, 69, 0
2, 289977, Note_on_c, 0, 55, 0
2, 289977, Note_on_c, 0, 62, 0
2, 289977, Note_on_c, 0, 50, 0
2, 289980, Note_on_c, 0, 67, 77
2, 290143, Note_on_c, 0, 67, 0
2, 290160, Note_on_c, 0, 74, 98
2, 290160, Note_on_c, 0, 50, 51
2, 290160, Note_on_c, 0, 55, 51
2, 290160, Note_on_c, 0, 62, 54
2, 290323, Note_on_c, 0, 74, 0
2, 290337, Note_on_c, 0, 55, 0
2, 290337, Note_on_c, 0, 62, 0
2, 290337, Note_on_c, 0, 50, 0
2, 290340, Note_on_c, 0, 69, 72
2, 290503, Note_on_c, 0, 69, 0
2, 290520, Note_on_c, 0, 71, 86
2, 290683, Note_on_c, 0, 71, 0
2, 290700, Note_on_c, 0, 74, 86
2, 290863, Note_on_c, 0, 74, 0
2, 290880, Note_on_c, 0, 78, 91
2, 290880, Note_on_c, 0, 55, 47
2, 290880, Note_on_c, 0, 59, 50
2, 290880, Note_on_c, 0, 66, 50
2, 291043, Note_on_c, 0, 78, 0
2, 291057, Note_on_c, 0, 59, 0
2, 291057, Note_on_c, 0, 66, 0
2, 291057, Note_on_c, 0, 55, 0
2, 291060, Note_on_c, 0, 69, 66
2, 291223, Note_on_c, 0, 69, 0
2, 291240, Note_on_c, 0, 71, 84
2, 291240, Note_on_c, 0, 55, 50
2, 291240, Note_on_c, 0, 59, 49
2, 291240, Note_on_c, 0, 64, 50
2, 291403, Note_on_c, 0, 71, 0
2, 291417, Note_on_c, 0, 59, 0
2, 291417, Note_on_c, 0, 64, 0
2, 291417, Note_on_c, 0, 55, 0
2, 291420, Note_on_c, 0, 76, 90
2, 291583, Note_on_c, 0, 76, 0
2, 291600, Note_on_c, 0, 78, 91
2, 291763, Note_on_c, 0, 78, 0
2, 291780, Note_on_c, 0, 73, 74
2, 291943, Note_on_c, 0, 73, 0
2, 291960, Note_on_c, 0, 74, 85
2, 291960, Note_on_c, 0, 54, 46
2, 291960, Note_on_c, 0, 57, 50
2, 291960, Note_on_c, 0, 62, 48
2, 292123, Note_on_c, 0, 74, 0
2, 292137, Note_on_c, 0, 57, 0
2, 292137, Note_on_c, 0, 62, 0
2, 292137, Note_on_c, 0, 54, 0
2, 292140, Note_on_c, 0, 76, 83
2, 292303, Note_on_c, 0, 76, 0
2, 292320, Note_on_c, 0, 78, 89
2, 292320, Note_on_c, 0, 57, 58
2, 292320, Note_on_c, 0, 62, 56
2, 292320, Note_on_c, 0, 66, 56
2, 292483, Note_on_c, 0, 78, 0
2, 292497, Note_on_c, 0, 62, 0
2, 292497, Note_on_c, 0, 66, 0
2, 292497, Note_on_c, 0, 57, 0
2, 292500, Note_on_c, 0, 76, 78
2, 292663, Note_on_c, 0, 76, 0
2, 292680, Note_on_c, 0, 78, 87
2, 292843, Note_on_c, 0, 78, 0
2, 292860, Note_on_c, 0, 81, 89
2, 293023, Note_on_c, 0, 81, 0
2, 293040, Note_on_c, 0, 83, 89
2, 293040, Note_on_c, 0, 54, 46
2, 293040, Note_on_c, 0, 57, 50
2, 293040, Note_on_c, 0, 63, 48
2, 293203, Note_on_c, 0, 83, 0
2, 293217, Note_on_c, 0, 57, 0
2, 293217, Note_on_c, 0, 63, 0
2, 293217, Note_on_c, 0, 54, 0
2, 293220, Note_on_c, 0, 78, 69
2, 293383, Note_on_c, 0, 78, 0
2, 293400, Note_on_c, 0, 79, 83
2, 293400, Note_on_c, 0, 57, 56
2, 293400, Note_on_c, 0, 63, 54
2, 293400, Note_on_c, 0, 66, 57
2, 293563, Note_on_c, 0, 79, 0
2, 293577, Note_on_c, 0, 63, 0
2, 293577, Note_on_c, 0, 66, 0
2, 293577, Note_on_c, 0, 57, 0
2, 293580, Note_on_c, 0, 81, 83
2, 293743, Note_on_c, 0, 81, 0
2, 293760, Note_on_c, 0, 83, 88
2, 293923, Note_on_c, 0, 83, 0
2, 293940, Note_on_c, 0, 78, 72
2, 294103, Note_on_c, 0, 78, 0
2, 294120, Note_on_c, 0, 79, 86
2, 294120, Note_on_c, 0, 55, 50
2, 294120, Note_on_c, 0, 59, 47
2, 294120, Note_on_c, 0, 64, 49
2, 294283, Note_on_c, 0, 79, 0
2, 294297, Note_on_c, 0, 59, 0
2, 294297, Note_on_c, 0, 64, 0
2, 294297, Note_on_c, 0, 55, 0
2, 294300, Note_on_c, 0, 81, 87
2, 294463, Note_on_c, 0, 81, 0
2, 294480, Note_on_c, 0, 83, 91
2, 294480, Note_on_c, 0, 59, 57
2, 294480, Note_on_c, 0, 64, 55
2, 294480, Note_on_c, 0, 67, 56
2, 294643, Note_on_c, 0, 83, 0
2, 294657, Note_on_c, 0, 64, 0
2, 294657, Note_on_c, 0, 67, 0
2, 294657, Note_on_c, 0, 59, 0
2, 294660, Note_on_c, 0, 81, 76
2, 294823, Note_on_c, 0, 81, 0
2, 294840, Note_on_c, 0, 83, 89
2, 295003, Note_on_c, 0, 83, 0
2, 295020, Note_on_c, 0, 86, 90
2, 295183, Note_on_c, 0, 86, 0
2, 295200, Note_on_c, 0, 90, 93
2, 295200, Note_on_c, 0, 56, 47
2, 295200, Note_on_c, 0, 62, 50
2, 295200, Note_on_c, 0, 66, 47
2, 295363, Note_on_c, 0, 90, 0
2, 295377, Note_on_c, 0, 62, 0
2, 295377, Note_on_c, 0, 66, 0
2, 295377, Note_on_c, 0, 56, 0
2, 295380, Note_on_c, 0, 85, 74
2, 295543, Note_on_c, 0, 85, 0
2, 295560, Note_on_c, 0, 83, 79
2, 295560, Note_on_c, 0, 62, 56
2, 295560, Note_on_c, 0, 66, 59
2, 295560, Note_on_c, 0, 71, 57
2, 295723, Note_on_c, 0, 83, 0
2, 295737, Note_on_c, 0, 66, 0
2, 295737, Note_on_c, 0, 71, 0
2, 295737, Note_on_c, 0, 62, 0
2, 295740, Note_on_c, 0, 88, 89
2, 295903, Note_on_c, 0, 88, 0
2, 295920, Note_on_c, 0, 86, 90
2, 295920, Note_on_c, 0, 90, 89
2, 295920, Note_on_c, 0, 54, 49
2, 295920, Note_on_c, 0, 62, 51
2, 295920, Note_on_c, 0, 66, 50
2, 296097, Note_on_c, 0, 66, 0
2, 296097, Note_on_c, 0, 54, 0
2, 296097, Note_on_c, 0, 62, 0
2, 296245, Note_on_c, 0, 86, 0
2, 296245, Note_on_c, 0, 90, 0
2, 296280, Note_on_c, 0, 83, 70
2, 296280, Note_on_c, 0, 74, 64
2, 296443, Note_on_c, 0, 74, 0
2, 296443, Note_on_c, 0, 83, 0
2, 296460, Note_on_c, 0, 81, 73
2, 296460, Note_on_c, 0, 73, 53
2, 296623, Note_on_c, 0, 73, 0
2, 296623, Note_on_c, 0, 81, 0
2, 296640, Note_on_c, 0, 88, 123
2, 296640, Note_on_c, 0, 76, 85
2, 296803, Note_on_c, 0, 76, 0
2, 296803, Note_on_c, 0, 88, 0
2, 296820, Note_on_c, 0, 83, 71
2, 296820, Note_on_c, 0, 71, 48
2, 296983, Note_on_c, 0, 71, 0
2, 296983, Note_on_c, 0, 83, 0
2, 297000, Note_on_c, 0, 81, 79
2, 297000, Note_on_c, 0, 73, 57
2, 297163, Note_on_c, 0, 73, 0
2, 297163, Note_on_c, 0, 81, 0
2, 297180, Note_on_c, 0, 79, 75
2, 297180, Note_on_c, 0, 71, 48
2, 297343, Note_on_c, 0, 71, 0
2, 297343, Note_on_c, 0, 79, 0
2, 297360, Note_on_c, 0, 86, 126
2, 297360, Note_on_c, 0, 74, 84
2, 297523, Note_on_c, 0, 74, 0
2, 297523, Note_on_c, 0, 86, 0
2, 297540, Note_on_c, 0, 81, 72
2, 297540, Note_on_c, 0, 69, 47
2, 297703, Note_on_c, 0, 69, 0
2, 297703, Note_on_c, 0, 81, 0
2, 297720, Note_on_c, 0, 79, 77
2, 297720, Note_on_c, 0, 71, 55
2, 297883, Note_on_c, 0, 71, 0
2, 297883, Note_on_c, 0, 79, 0
2, 297900, Note_on_c, 0, 78, 74
2, 297900, Note_on_c, 0, 69, 50
2, 298063, Note_on_c, 0, 69, 0
2, 298063, Note_on_c, 0, 78, 0
2, 298080, Note_on_c, 0, 85, 126
2, 298080, Note_on_c, 0, 73, 89
2, 298243, Note_on_c, 0, 73, 0
2, 298243, Note_on_c, 0, 85, 0
2, 298260, Note_on_c, 0, 79, 72
2, 298260, Note_on_c, 0, 67, 44
2, 298423, Note_on_c, 0, 67, 0
2, 298423, Note_on_c, 0, 79, 0
2, 298440, Note_on_c, 0, 78, 80
2, 298440, Note_on_c, 0, 69, 57
2, 298603, Note_on_c, 0, 69, 0
2, 298603, Note_on_c, 0, 78, 0
2, 298620, Note_on_c, 0, 74, 71
2, 298620, Note_on_c, 0, 66, 46
2, 298783, Note_on_c, 0, 66, 0
2, 298783, Note_on_c, 0, 74, 0
2, 298800, Note_on_c, 0, 83, 127
2, 298800, Note_on_c, 0, 71, 85
2, 298963, Note_on_c, 0, 71, 0
2, 298963, Note_on_c, 0, 83, 0
2, 298980, Note_on_c, 0, 78, 71
2, 298980, Note_on_c, 0, 66, 46
2, 299143, Note_on_c, 0, 66, 0
2, 299143, Note_on_c, 0, 78, 0
2, 299160, Note_on_c, 0, 76, 78
2, 299160, Note_on_c, 0, 67, 55
2, 299323, Note_on_c, 0, 67, 0
2, 299323, Note_on_c, 0, 76, 0
2, 299340, Note_on_c, 0, 74, 75
2, 299340, Note_on_c, 0, 66, 50
2, 299503, Note_on_c, 0, 66, 0
2, 299503, Note_on_c, 0, 74, 0
2, 299520, Note_on_c, 0, 81, 125
2, 299520, Note_on_c, 0, 69, 86
2, 299683, Note_on_c, 0, 69, 0
2, 299683, Note_on_c, 0, 81, 0
2, 299700, Note_on_c, 0, 74, 67
2, 299700, Note_on_c, 0, 62, 45
2, 299863, Note_on_c, 0, 62, 0
2, 299863, Note_on_c, 0, 74, 0
2, 299880, Note_on_c, 0, 73, 79
2, 299880, Note_on_c, 0, 64, 57
2, 300043, Note_on_c, 0, 64, 0
2, 300043, Note_on_c, 0, 73, 0
2, 300060, Note_on_c, 0, 71, 76
2, 300060, Note_on_c, 0, 62, 48
2, 300223, Note_on_c, 0, 62, 0
2, 300223, Note_on_c, 0, 71, 0
2, 300240, Note_on_c, 0, 86, 127
2, 300240, Note_on_c, 0, 74, 99
2, 300403, Note_on_c, 0, 74, 0
2, 300403, Note_on_c, 0, 86, 0
2, 300420, Note_on_c, 0, 79, 72
2, 300420, Note_on_c, 0, 67, 44
2, 300583, Note_on_c, 0, 67, 0
2, 300583, Note_on_c, 0, 79, 0
2, 300600, Note_on_c, 0, 78, 79
2, 300600, Note_on_c, 0, 69, 59
2, 300763, Note_on_c, 0, 69, 0
2, 300763, Note_on_c, 0, 78, 0
2, 300780, Note_on_c, 0, 76, 75
2, 300780, Note_on_c, 0, 67, 50
2, 300943, Note_on_c, 0, 67, 0
2, 300943, Note_on_c, 0, 76, 0
2, 300960, Note_on_c, 0, 85, 127
2, 300960, Note_on_c, 0, 73, 90
2, 301123, Note_on_c, 0, 73, 0
2, 301123, Note_on_c, 0, 85, 0
2, 301140, Note_on_c, 0, 79, 71
2, 301140, Note_on_c, 0, 67, 47
2, 301303, Note_on_c, 0, 67, 0
2, 301303, Note_on_c, 0, 79, 0
2, 301320, Note_on_c, 0, 78, 77
2, 301320, Note_on_c, 0, 69, 58
2, 301483, Note_on_c, 0, 69, 0
2, 301483, Note_on_c, 0, 78, 0
2, 301500, Note_on_c, 0, 76, 74
2, 301500, Note_on_c, 0, 67, 48
2, 301663, Note_on_c, 0, 67, 0
2, 301663, Note_on_c, 0, 76, 0
2, 301680, Note_on_c, 0, 83, 126
2, 301680, Note_on_c, 0, 71, 86
2, 301843, Note_on_c, 0, 71, 0
2, 301843, Note_on_c, 0, 83, 0
2, 301860, Note_on_c, 0, 78, 73
2, 301860, Note_on_c, 0, 66, 48
2, 302023, Note_on_c, 0, 66, 0
2, 302023, Note_on_c, 0, 78, 0
2, 302040, Note_on_c, 0, 76, 79
2, 302040, Note_on_c, 0, 67, 56
2, 302203, Note_on_c, 0, 67, 0
2, 302203, Note_on_c, 0, 76, 0
2, 302220, Note_on_c, 0, 74, 75
2, 302220, Note_on_c, 0, 71, 59
2, 302383, Note_on_c, 0, 71, 0
2, 302383, Note_on_c, 0, 74, 0
2, 302400, Note_on_c, 0, 81, 125
2, 302400, Note_on_c, 0, 69, 76
2, 302563, Note_on_c, 0, 69, 0
2, 302563, Note_on_c, 0, 81, 0
2, 302580, Note_on_c, 0, 76, 73
2, 302580, Note_on_c, 0, 64, 45
2, 302743, Note_on_c, 0, 64, 0
2, 302743, Note_on_c, 0, 76, 0
2, 302760, Note_on_c, 0, 74, 77
2, 302760, Note_on_c, 0, 67, 59
2, 302923, Note_on_c, 0, 67, 0
2, 302923, Note_on_c, 0, 74, 0
2, 302940, Note_on_c, 0, 73, 78
2, 302940, Note_on_c, 0, 69, 58
2, 303103, Note_on_c, 0, 69, 0
2, 303103, Note_on_c, 0, 73, 0
2, 303120, Note_on_c, 0, 79, 125
2, 303120, Note_on_c, 0, 71, 85
2, 303283, Note_on_c, 0, 71, 0
2, 303283, Note_on_c, 0, 79, 0
2, 303300, Note_on_c, 0, 74, 71
2, 303300, Note_on_c, 0, 64, 46
2, 303463, Note_on_c, 0, 64, 0
2, 303463, Note_on_c, 0, 74, 0
2, 303480, Note_on_c, 0, 73, 80
2, 303480, Note_on_c, 0, 66, 57
2, 303643, Note_on_c, 0, 66, 0
2, 303643, Note_on_c, 0, 73, 0
2, 303660, Note_on_c, 0, 71, 76
2, 303660, Note_on_c, 0, 67, 55
2, 303823, Note_on_c, 0, 67, 0
2, 303823, Note_on_c, 0, 71, 0
2, 303840, Note_on_c, 0, 81, 127
2, 303840, Note_on_c, 0, 69, 86
2, 304003, Note_on_c, 0, 81, 0
2, 304020, Note_on_c, 0, 76, 72
2, 304165, Note_on_c, 0, 69, 0
2, 304183, Note_on_c, 0, 76, 0
2, 304200, Note_on_c, 0, 74, 76
2, 304200, Note_on_c, 0, 71, 58
2, 304363, Note_on_c, 0, 71, 0
2, 304363, Note_on_c, 0, 74, 0
2, 304380, Note_on_c, 0, 73, 76
2, 304380, Note_on_c, 0, 69, 51
2, 304543, Note_on_c, 0, 69, 0
2, 304543, Note_on_c, 0, 73, 0
2, 304560, Note_on_c, 0, 74, 106
2, 304560, Note_on_c, 0, 86, 104
2, 304560, Note_on_c, 0, 57, 50
2, 304560, Note_on_c, 0, 62, 53
2, 304560, Note_on_c, 0, 66, 52
2, 304885, Note_on_c, 0, 66, 0
2, 304885, Note_on_c, 0, 74, 0
2, 304885, Note_on_c, 0, 86, 0
2, 304885, Note_on_c, 0, 57, 0
2, 304885, Note_on_c, 0, 62, 0
2, 304920, Note_on_c, 0, 62, 65
2, 305083, Note_on_c, 0, 62, 0
2, 305100, Note_on_c, 0, 61, 74
2, 305263, Note_on_c, 0, 61, 0
2, 305280, Note_on_c, 0, 62, 86
2, 305443, Note_on_c, 0, 62, 0
2, 305460, Note_on_c, 0, 61, 77
2, 305623, Note_on_c, 0, 61, 0
2, 305640, Note_on_c, 0, 62, 85
2, 305803, Note_on_c, 0, 62, 0
2, 305820, Note_on_c, 0, 61, 79
2, 305983, Note_on_c, 0, 61, 0
2, 306000, Note_on_c, 0, 62, 85
2, 306163, Note_on_c, 0, 62, 0
2, 306180, Note_on_c, 0, 61, 76
2, 306343, Note_on_c, 0, 61, 0
2, 306360, Note_on_c, 0, 62, 87
2, 306523, Note_on_c, 0, 62, 0
2, 306540, Note_on_c, 0, 61, 79
2, 306703, Note_on_c, 0, 61, 0
2, 306720, Note_on_c, 0, 62, 85
2, 306883, Note_on_c, 0, 62, 0
2, 306900, Note_on_c, 0, 61, 75
2, 307063, Note_on_c, 0, 61, 0
2, 307080, Note_on_c, 0, 62, 88
2, 307243, Note_on_c, 0, 62, 0
2, 307260, Note_on_c, 0, 61, 78
2, 307423, Note_on_c, 0, 61, 0
2, 307440, Note_on_c, 0, 62, 87
2, 307603, Note_on_c, 0, 62, 0
2, 307620, Note_on_c, 0, 61, 77
2, 307783, Note_on_c, 0, 61, 0
2, 307800, Note_on_c, 0, 62, 84
2, 307963, Note_on_c, 0, 62, 0
2, 307980, Note_on_c, 0, 61, 77
2, 308143, Note_on_c, 0, 61, 0
2, 308160, Note_on_c, 0, 62, 88
2, 308323, Note_on_c, 0, 62, 0
2, 308340, Note_on_c, 0, 61, 75
2, 308503, Note_on_c, 0, 61, 0
2, 308520, Note_on_c, 0, 62, 85
2, 308683, Note_on_c, 0, 62, 0
2, 308700, Note_on_c, 0, 60, 61
2, 308863, Note_on_c, 0, 60, 0
2, 308880, Note_on_c, 0, 59, 75
2, 309205, Note_on_c, 0, 59, 0
2, 309240, Note_on_c, 0, 59, 77
2, 309403, Note_on_c, 0, 59, 0
2, 309420, Note_on_c, 0, 58, 74
2, 309583, Note_on_c, 0, 58, 0
2, 309600, Note_on_c, 0, 59, 85
2, 309763, Note_on_c, 0, 59, 0
2, 309780, Note_on_c, 0, 58, 77
2, 309943, Note_on_c, 0, 58, 0
2, 309960, Note_on_c, 0, 59, 85
2, 310123, Note_on_c, 0, 59, 0
2, 310140, Note_on_c, 0, 58, 76
2, 310303, Note_on_c, 0, 58, 0
2, 310320, Note_on_c, 0, 59, 86
2, 310483, Note_on_c, 0, 59, 0
2, 310500, Note_on_c, 0, 58, 79
2, 310663, Note_on_c, 0, 58, 0
2, 310680, Note_on_c, 0, 59, 86
2, 310843, Note_on_c, 0, 59, 0
2, 310860, Note_on_c, 0, 58, 77
2, 311023, Note_on_c, 0, 58, 0
2, 311040, Note_on_c, 0, 59, 84
2, 311203, Note_on_c, 0, 59, 0
2, 311220, Note_on_c, 0, 58, 76
2, 311383, Note_on_c, 0, 58, 0
2, 311400, Note_on_c, 0, 59, 88
2, 311563, Note_on_c, 0, 59, 0
2, 311580, Note_on_c, 0, 58, 78
2, 311743, Note_on_c, 0, 58, 0
2, 311760, Note_on_c, 0, 59, 85
2, 311923, Note_on_c, 0, 59, 0
2, 311940, Note_on_c, 0, 58, 78
2, 312103, Note_on_c, 0, 58, 0
2, 312120, Note_on_c, 0, 59, 85
2, 312283, Note_on_c, 0, 59, 0
2, 312300, Note_on_c, 0, 58, 76
2, 312463, Note_on_c, 0, 58, 0
2, 312480, Note_on_c, 0, 59, 85
2, 312643, Note_on_c, 0, 59, 0
2, 312660, Note_on_c, 0, 58, 78
2, 312823, Note_on_c, 0, 58, 0
2, 312840, Note_on_c, 0, 59, 85
2, 313003, Note_on_c, 0, 59, 0
2, 313020, Note_on_c, 0, 58, 76
2, 313183, Note_on_c, 0, 58, 0
2, 313200, Note_on_c, 0, 59, 87
2, 313380, Note_on_c, 0, 59, 47
2, 313525, Note_on_c, 0, 59, 0
2, 313543, Note_on_c, 0, 59, 0
2, 313560, Note_on_c, 0, 55, 48
2, 313723, Note_on_c, 0, 55, 0
2, 313740, Note_on_c, 0, 59, 55
2, 313903, Note_on_c, 0, 59, 0
2, 313920, Note_on_c, 0, 64, 62
2, 314083, Note_on_c, 0, 64, 0
2, 314100, Note_on_c, 0, 59, 47
2, 314263, Note_on_c, 0, 59, 0
2, 314280, Note_on_c, 0, 67, 66
2, 314443, Note_on_c, 0, 67, 0
2, 314460, Note_on_c, 0, 64, 51
2, 314623, Note_on_c, 0, 64, 0
2, 314640, Note_on_c, 0, 67, 74
2, 314640, Note_on_c, 0, 71, 72
2, 314640, Note_on_c, 0, 59, 51
2, 314803, Note_on_c, 0, 59, 0
2, 314820, Note_on_c, 0, 64, 57
2, 314983, Note_on_c, 0, 64, 0
2, 315000, Note_on_c, 0, 59, 51
2, 315127, Note_on_c, 0, 71, 0
2, 315127, Note_on_c, 0, 67, 0
2, 315163, Note_on_c, 0, 59, 0
2, 315180, Note_on_c, 0, 66, 73
2, 315180, Note_on_c, 0, 69, 74
2, 315180, Note_on_c, 0, 55, 45
2, 315343, Note_on_c, 0, 55, 0
2, 315343, Note_on_c, 0, 69, 0
2, 315343, Note_on_c, 0, 66, 0
2, 315360, Note_on_c, 0, 67, 87
2, 315360, Note_on_c, 0, 71, 89
2, 315537, Note_on_c, 0, 71, 0
2, 315537, Note_on_c, 0, 67, 0
2, 315540, Note_on_c, 0, 59, 49
2, 315703, Note_on_c, 0, 59, 0
2, 315720, Note_on_c, 0, 55, 49
2, 315883, Note_on_c, 0, 55, 0
2, 315900, Note_on_c, 0, 59, 56
2, 316063, Note_on_c, 0, 59, 0
2, 316080, Note_on_c, 0, 67, 80
2, 316080, Note_on_c, 0, 71, 79
2, 316080, Note_on_c, 0, 66, 66
2, 316243, Note_on_c, 0, 66, 0
2, 316260, Note_on_c, 0, 59, 44
2, 316423, Note_on_c, 0, 59, 0
2, 316440, Note_on_c, 0, 67, 63
2, 316603, Note_on_c, 0, 67, 0
2, 316620, Note_on_c, 0, 64, 52
2, 316765, Note_on_c, 0, 67, 0
2, 316765, Note_on_c, 0, 71, 0
2, 316783, Note_on_c, 0, 64, 0
2, 316800, Note_on_c, 0, 79, 100
2, 316800, Note_on_c, 0, 83, 100
2, 316800, Note_on_c, 0, 59, 47
2, 316963, Note_on_c, 0, 59, 0
2, 316980, Note_on_c, 0, 64, 59
2, 317143, Note_on_c, 0, 64, 0
2, 317160, Note_on_c, 0, 59, 51
2, 317287, Note_on_c, 0, 83, 0
2, 317287, Note_on_c, 0, 79, 0
2, 317323, Note_on_c, 0, 59, 0
2, 317340, Note_on_c, 0, 78, 78
2, 317340, Note_on_c, 0, 81, 80
2, 317340, Note_on_c, 0, 55, 48
2, 317503, Note_on_c, 0, 55, 0
2, 317503, Note_on_c, 0, 81, 0
2, 317503, Note_on_c, 0, 78, 0
2, 317520, Note_on_c, 0, 79, 89
2, 317520, Note_on_c, 0, 83, 88
2, 317697, Note_on_c, 0, 83, 0
2, 317697, Note_on_c, 0, 79, 0
2, 317700, Note_on_c, 0, 59, 47
2, 317863, Note_on_c, 0, 59, 0
2, 317880, Note_on_c, 0, 55, 51
2, 318043, Note_on_c, 0, 55, 0
2, 318060, Note_on_c, 0, 59, 56
2, 318223, Note_on_c, 0, 59, 0
2, 318240, Note_on_c, 0, 79, 80
2, 318240, Note_on_c, 0, 83, 76
2, 318240, Note_on_c, 0, 64, 64
2, 318403, Note_on_c, 0, 64, 0
2, 318420, Note_on_c, 0, 59, 46
2, 318583, Note_on_c, 0, 59, 0
2, 318600, Note_on_c, 0, 67, 65
2, 318763, Note_on_c, 0, 67, 0
2, 318780, Note_on_c, 0, 64, 49
2, 318925, Note_on_c, 0, 83, 0
2, 318925, Note_on_c, 0, 79, 0
2, 318943, Note_on_c, 0, 64, 0
2, 318960, Note_on_c, 0, 67, 60
2, 318960, Note_on_c, 0, 71, 60
2, 318960, Note_on_c, 0, 59, 47
2, 319123, Note_on_c, 0, 59, 0
2, 319140, Note_on_c, 0, 64, 57
2, 319303, Note_on_c, 0, 64, 0
2, 319320, Note_on_c, 0, 59, 51
2, 319447, Note_on_c, 0, 71, 0
2, 319447, Note_on_c, 0, 67, 0
2, 319483, Note_on_c, 0, 59, 0
2, 319500, Note_on_c, 0, 66, 74
2, 319500, Note_on_c, 0, 69, 71
2, 319500, Note_on_c, 0, 55, 48
2, 319663, Note_on_c, 0, 55, 0
2, 319663, Note_on_c, 0, 69, 0
2, 319663, Note_on_c, 0, 66, 0
2, 319680, Note_on_c, 0, 67, 88
2, 319680, Note_on_c, 0, 71, 89
2, 319857, Note_on_c, 0, 71, 0
2, 319857, Note_on_c, 0, 67, 0
2, 319860, Note_on_c, 0, 59, 46
2, 320023, Note_on_c, 0, 59, 0
2, 320040, Note_on_c, 0, 55, 51
2, 320203, Note_on_c, 0, 55, 0
2, 320220, Note_on_c, 0, 59, 58
2, 320383, Note_on_c, 0, 59, 0
2, 320400, Note_on_c, 0, 67, 80
2, 320400, Note_on_c, 0, 71, 77
2, 320400, Note_on_c, 0, 62, 60
2, 320563, Note_on_c, 0, 62, 0
2, 320580, Note_on_c, 0, 59, 47
2, 320743, Note_on_c, 0, 59, 0
2, 320760, Note_on_c, 0, 67, 64
2, 320923, Note_on_c, 0, 67, 0
2, 320940, Note_on_c, 0, 62, 47
2, 321085, Note_on_c, 0, 67, 0
2, 321085, Note_on_c, 0, 71, 0
2, 321103, Note_on_c, 0, 62, 0
2, 321120, Note_on_c, 0, 79, 101
2, 321120, Note_on_c, 0, 83, 102
2, 321120, Note_on_c, 0, 59, 52
2, 321283, Note_on_c, 0, 59, 0
2, 321300, Note_on_c, 0, 62, 58
2, 321463, Note_on_c, 0, 62, 0
2, 321480, Note_on_c, 0, 59, 50
2, 321607, Note_on_c, 0, 83, 0
2, 321607, Note_on_c, 0, 79, 0
2, 321643, Note_on_c, 0, 59, 0
2, 321660, Note_on_c, 0, 78, 78
2, 321660, Note_on_c, 0, 81, 79
2, 321660, Note_on_c, 0, 55, 48
2, 321823, Note_on_c, 0, 55, 0
2, 321823, Note_on_c, 0, 81, 0
2, 321823, Note_on_c, 0, 78, 0
2, 321840, Note_on_c, 0, 79, 88
2, 321840, Note_on_c, 0, 83, 89
2, 322017, Note_on_c, 0, 83, 0
2, 322017, Note_on_c, 0, 79, 0
2, 322020, Note_on_c, 0, 59, 47
2, 322183, Note_on_c, 0, 59, 0
2, 322200, Note_on_c, 0, 55, 48
2, 322363, Note_on_c, 0, 55, 0
2, 322380, Note_on_c, 0, 59, 57
2, 322543, Note_on_c, 0, 59, 0
2, 322560, Note_on_c, 0, 79, 80
2, 322560, Note_on_c, 0, 83, 77
2, 322560, Note_on_c, 0, 65, 64
2, 322723, Note_on_c, 0, 65, 0
2, 322740, Note_on_c, 0, 59, 49
2, 322903, Note_on_c, 0, 59, 0
2, 322920, Note_on_c, 0, 67, 65
2, 323083, Note_on_c, 0, 67, 0
2, 323100, Note_on_c, 0, 65, 51
2, 323245, Note_on_c, 0, 83, 0
2, 323245, Note_on_c, 0, 79, 0
2, 323263, Note_on_c, 0, 65, 0
2, 323280, Note_on_c, 0, 67, 61
2, 323280, Note_on_c, 0, 71, 59
2, 323280, Note_on_c, 0, 59, 48
2, 323443, Note_on_c, 0, 59, 0
2, 323460, Note_on_c, 0, 65, 58
2, 323623, Note_on_c, 0, 65, 0
2, 323640, Note_on_c, 0, 59, 48
2, 323767, Note_on_c, 0, 71, 0
2, 323767, Note_on_c, 0, 67, 0
2, 323803, Note_on_c, 0, 59, 0
2, 323820, Note_on_c, 0, 69, 73
2, 323820, Note_on_c, 0, 55, 46
2, 323983, Note_on_c, 0, 55, 0
2, 323983, Note_on_c, 0, 69, 0
2, 324000, Note_on_c, 0, 67, 88
2, 324000, Note_on_c, 0, 71, 86
2, 324177, Note_on_c, 0, 71, 0
2, 324177, Note_on_c, 0, 67, 0
2, 324180, Note_on_c, 0, 59, 49
2, 324343, Note_on_c, 0, 59, 0
2, 324360, Note_on_c, 0, 55, 51
2, 324523, Note_on_c, 0, 55, 0
2, 324540, Note_on_c, 0, 59, 57
2, 324703, Note_on_c, 0, 59, 0
2, 324720, Note_on_c, 0, 67, 79
2, 324720, Note_on_c, 0, 71, 78
2, 324720, Note_on_c, 0, 65, 63
2, 324883, Note_on_c, 0, 65, 0
2, 324900, Note_on_c, 0, 59, 48
2, 325063, Note_on_c, 0, 59, 0
2, 325080, Note_on_c, 0, 67, 63
2, 325243, Note_on_c, 0, 67, 0
2, 325260, Note_on_c, 0, 65, 50
2, 325405, Note_on_c, 0, 67, 0
2, 325405, Note_on_c, 0, 71, 0
2, 325423, Note_on_c, 0, 65, 0
2, 325440, Note_on_c, 0, 71, 102
2, 325440, Note_on_c, 0, 79, 101
2, 325440, Note_on_c, 0, 83, 102
2, 325440, Note_on_c, 0, 59, 49
2, 325603, Note_on_c, 0, 59, 0
2, 325620, Note_on_c, 0, 65, 59
2, 325783, Note_on_c, 0, 65, 0
2, 325800, Note_on_c, 0, 59, 48
2, 325927, Note_on_c, 0, 83, 0
2, 325927, Note_on_c, 0, 79, 0
2, 325927, Note_on_c, 0, 71, 0
2, 325963, Note_on_c, 0, 59, 0
2, 325980, Note_on_c, 0, 69, 80
2, 325980, Note_on_c, 0, 81, 77
2, 325980, Note_on_c, 0, 55, 45
2, 326143, Note_on_c, 0, 55, 0
2, 326143, Note_on_c, 0, 81, 0
2, 326143, Note_on_c, 0, 69, 0
2, 326160, Note_on_c, 0, 71, 96
2, 326160, Note_on_c, 0, 76, 96
2, 326160, Note_on_c, 0, 79, 94
2, 326160, Note_on_c, 0, 83, 97
2, 326160, Note_on_c, 0, 59, 69
2, 326160, Note_on_c, 0, 64, 69
2, 326160, Note_on_c, 0, 67, 69
2, 326810, Note_on_c, 0, 67, 0
2, 326810, Note_on_c, 0, 64, 0
2, 326810, Note_on_c, 0, 59, 0
2, 326880, Note_on_c, 0, 71, 0
2, 326880, Note_on_c, 0, 76, 0
2, 326880, Note_on_c, 0, 79, 0
2, 326880, Note_on_c, 0, 83, 0
2, 326880, Note_on_c, 0, 74, 93
2, 326880, Note_on_c, 0, 76, 92
2, 326880, Note_on_c, 0, 79, 94
2, 326880, Note_on_c, 0, 86, 93
2, 326880, Note_on_c, 0, 62, 59
2, 326880, Note_on_c, 0, 64, 61
2, 326880, Note_on_c, 0, 67, 63
2, 327565, Note_on_c, 0, 67, 0
2, 327565, Note_on_c, 0, 64, 0
2, 327565, Note_on_c, 0, 86, 0
2, 327565, Note_on_c, 0, 74, 0
2, 327565, Note_on_c, 0, 76, 0
2, 327565, Note_on_c, 0, 79, 0
2, 327565, Note_on_c, 0, 62, 0
2, 327600, Note_on_c, 0, 72, 82
2, 327600, Note_on_c, 0, 76, 81
2, 327600, Note_on_c, 0, 79, 82
2, 327600, Note_on_c, 0, 84, 82
2, 327600, Note_on_c, 0, 60, 61
2, 327600, Note_on_c, 0, 64, 58
2, 327600, Note_on_c, 0, 67, 60
2, 328320, Note_on_c, 0, 67, 0
2, 328320, Note_on_c, 0, 64, 0
2, 328320, Note_on_c, 0, 84, 0
2, 328320, Note_on_c, 0, 72, 0
2, 328320, Note_on_c, 0, 76, 0
2, 328320, Note_on_c, 0, 79, 0
2, 328320, Note_on_c, 0, 60, 0
2, 328320, Note_on_c, 0, 75, 75
2, 328320, Note_on_c, 0, 79, 72
2, 328320, Note_on_c, 0, 71, 96
2, 328320, Note_on_c, 0, 83, 98
2, 328320, Note_on_c, 0, 63, 58
2, 328320, Note_on_c, 0, 67, 56
2, 328320, Note_on_c, 0, 59, 61
2, 328320, Note_on_c, 0, 59, 51
2, 328645, Note_on_c, 0, 59, 0
2, 328645, Note_on_c, 0, 71, 0
2, 328645, Note_on_c, 0, 59, 0
2, 328645, Note_on_c, 0, 83, 0
2, 328680, Note_on_c, 0, 69, 75
2, 328680, Note_on_c, 0, 81, 77
2, 328680, Note_on_c, 0, 57, 50
2, 329005, Note_on_c, 0, 57, 0
2, 329005, Note_on_c, 0, 81, 0
2, 329005, Note_on_c, 0, 69, 0
2, 329040, Note_on_c, 0, 67, 76
2, 329040, Note_on_c, 0, 79, 75
2, 329040, Note_on_c, 0, 55, 51
2, 329365, Note_on_c, 0, 55, 0
2, 329365, Note_on_c, 0, 67, 0
2, 329365, Note_on_c, 0, 79, 0
2, 329400, Note_on_c, 0, 69, 89
2, 329400, Note_on_c, 0, 81, 89
2, 329400, Note_on_c, 0, 57, 59
2, 329725, Note_on_c, 0, 57, 0
2, 329725, Note_on_c, 0, 81, 0
2, 329725, Note_on_c, 0, 69, 0
2, 329760, Note_on_c, 0, 67, 75
2, 329760, Note_on_c, 0, 79, 78
2, 329760, Note_on_c, 0, 55, 52
2, 330085, Note_on_c, 0, 55, 0
2, 330085, Note_on_c, 0, 79, 0
2, 330085, Note_on_c, 0, 67, 0
2, 330120, Note_on_c, 0, 69, 85
2, 330120, Note_on_c, 0, 81, 84
2, 330120, Note_on_c, 0, 57, 54
2, 330410, Note_on_c, 0, 67, 0
2, 330410, Note_on_c, 0, 75, 0
2, 330410, Note_on_c, 0, 63, 0
2, 330410, Note_on_c, 0, 79, 0
2, 330445, Note_on_c, 0, 81, 0
2, 330445, Note_on_c, 0, 57, 0
2, 330445, Note_on_c, 0, 69, 0
2, 330480, Note_on_c, 0, 71, 92
2, 330480, Note_on_c, 0, 76, 91
2, 330480, Note_on_c, 0, 79, 93
2, 330480, Note_on_c, 0, 83, 90
2, 330480, Note_on_c, 0, 59, 55
2, 330480, Note_on_c, 0, 64, 57
2, 330480, Note_on_c, 0, 67, 55
2, 330840, Note_on_c, 0, 55, 68
2, 331003, Note_on_c, 0, 55, 0
2, 331020, Note_on_c, 0, 59, 61
2, 331183, Note_on_c, 0, 59, 0
2, 331200, Note_on_c, 0, 64, 64
2, 331363, Note_on_c, 0, 64, 0
2, 331380, Note_on_c, 0, 59, 46
2, 331490, Note_on_c, 0, 79, 0
2, 331490, Note_on_c, 0, 64, 0
2, 331490, Note_on_c, 0, 59, 0
2, 331490, Note_on_c, 0, 83, 0
2, 331490, Note_on_c, 0, 71, 0
2, 331490, Note_on_c, 0, 76, 0
2, 331490, Note_on_c, 0, 67, 0
2, 331543, Note_on_c, 0, 59, 0
2, 331560, Note_on_c, 0, 67, 57
2, 331723, Note_on_c, 0, 67, 0
2, 331740, Note_on_c, 0, 64, 47
2, 331903, Note_on_c, 0, 64, 0
2, 331920, Note_on_c, 0, 67, 71
2, 331920, Note_on_c, 0, 71, 71
2, 331920, Note_on_c, 0, 59, 47
2, 332083, Note_on_c, 0, 59, 0
2, 332100, Note_on_c, 0, 64, 57
2, 332263, Note_on_c, 0, 64, 0
2, 332280, Note_on_c, 0, 59, 49
2, 332407, Note_on_c, 0, 71, 0
2, 332407, Note_on_c, 0, 67, 0
2, 332443, Note_on_c, 0, 59, 0
2, 332460, Note_on_c, 0, 66, 74
2, 332460, Note_on_c, 0, 69, 77
2, 332460, Note_on_c, 0, 55, 46
2, 332623, Note_on_c, 0, 55, 0
2, 332623, Note_on_c, 0, 69, 0
2, 332623, Note_on_c, 0, 66, 0
2, 332640, Note_on_c, 0, 67, 86
2, 332640, Note_on_c, 0, 71, 87
2, 332817, Note_on_c, 0, 71, 0
2, 332817, Note_on_c, 0, 67, 0
2, 332820, Note_on_c, 0, 59, 49
2, 332983, Note_on_c, 0, 59, 0
2, 333000, Note_on_c, 0, 55, 51
2, 333163, Note_on_c, 0, 55, 0
2, 333180, Note_on_c, 0, 59, 58
2, 333343, Note_on_c, 0, 59, 0
2, 333360, Note_on_c, 0, 67, 76
2, 333360, Note_on_c, 0, 71, 77
2, 333360, Note_on_c, 0, 66, 64
2, 333523, Note_on_c, 0, 66, 0
2, 333540, Note_on_c, 0, 59, 45
2, 333703, Note_on_c, 0, 59, 0
2, 333720, Note_on_c, 0, 67, 63
2, 333883, Note_on_c, 0, 67, 0
2, 333900, Note_on_c, 0, 64, 52
2, 334045, Note_on_c, 0, 67, 0
2, 334045, Note_on_c, 0, 71, 0
2, 334063, Note_on_c, 0, 64, 0
2, 334080, Note_on_c, 0, 79, 103
2, 334080, Note_on_c, 0, 83, 100
2, 334080, Note_on_c, 0, 59, 49
2, 334243, Note_on_c, 0, 59, 0
2, 334260, Note_on_c, 0, 64, 58
2, 334423, Note_on_c, 0, 64, 0
2, 334440, Note_on_c, 0, 59, 51
2, 334567, Note_on_c, 0, 83, 0
2, 334567, Note_on_c, 0, 79, 0
2, 334603, Note_on_c, 0, 59, 0
2, 334620, Note_on_c, 0, 78, 78
2, 334620, Note_on_c, 0, 81, 80
2, 334620, Note_on_c, 0, 64, 57
2, 334783, Note_on_c, 0, 64, 0
2, 334783, Note_on_c, 0, 81, 0
2, 334783, Note_on_c, 0, 78, 0
2, 334800, Note_on_c, 0, 79, 88
2, 334800, Note_on_c, 0, 83, 87
2, 334977, Note_on_c, 0, 83, 0
2, 334977, Note_on_c, 0, 79, 0
2, 334980, Note_on_c, 0, 59, 48
2, 335143, Note_on_c, 0, 59, 0
2, 335160, Note_on_c, 0, 55, 50
2, 335323, Note_on_c, 0, 55, 0
2, 335340, Note_on_c, 0, 59, 56
2, 335503, Note_on_c, 0, 59, 0
2, 335520, Note_on_c, 0, 79, 78
2, 335520, Note_on_c, 0, 83, 80
2, 335520, Note_on_c, 0, 62, 59
2, 335683, Note_on_c, 0, 62, 0
2, 335700, Note_on_c, 0, 59, 47
2, 335863, Note_on_c, 0, 59, 0
2, 335880, Note_on_c, 0, 65, 61
2, 336043, Note_on_c, 0, 65, 0
2, 336060, Note_on_c, 0, 62, 49
2, 336205, Note_on_c, 0, 83, 0
2, 336205, Note_on_c, 0, 79, 0
2, 336223, Note_on_c, 0, 62, 0
2, 336240, Note_on_c, 0, 83, 80
2, 336240, Note_on_c, 0, 91, 80
2, 336240, Note_on_c, 0, 95, 80
2, 336240, Note_on_c, 0, 59, 51
2, 336403, Note_on_c, 0, 59, 0
2, 336420, Note_on_c, 0, 62, 55
2, 336583, Note_on_c, 0, 62, 0
2, 336600, Note_on_c, 0, 59, 51
2, 336727, Note_on_c, 0, 95, 0
2, 336727, Note_on_c, 0, 91, 0
2, 336727, Note_on_c, 0, 83, 0
2, 336763, Note_on_c, 0, 59, 0
2, 336780, Note_on_c, 0, 81, 74
2, 336780, Note_on_c, 0, 89, 78
2, 336780, Note_on_c, 0, 93, 78
2, 336780, Note_on_c, 0, 55, 47
2, 336943, Note_on_c, 0, 55, 0
2, 336943, Note_on_c, 0, 89, 0
2, 336943, Note_on_c, 0, 93, 0
2, 336943, Note_on_c, 0, 81, 0
2, 336960, Note_on_c, 0, 83, 90
2, 336960, Note_on_c, 0, 91, 89
2, 336960, Note_on_c, 0, 95, 87
2, 337137, Note_on_c, 0, 95, 0
2, 337137, Note_on_c, 0, 91, 0
2, 337137, Note_on_c, 0, 83, 0
2, 337140, Note_on_c, 0, 59, 47
2, 337303, Note_on_c, 0, 59, 0
2, 337320, Note_on_c, 0, 55, 49
2, 337483, Note_on_c, 0, 55, 0
2, 337500, Note_on_c, 0, 59, 57
2, 337663, Note_on_c, 0, 59, 0
2, 337680, Note_on_c, 0, 83, 78
2, 337680, Note_on_c, 0, 91, 78
2, 337680, Note_on_c, 0, 95, 80
2, 337680, Note_on_c, 0, 62, 58
2, 337843, Note_on_c, 0, 62, 0
2, 337860, Note_on_c, 0, 59, 48
2, 338023, Note_on_c, 0, 59, 0
2, 338040, Note_on_c, 0, 65, 62
2, 338203, Note_on_c, 0, 65, 0
2, 338220, Note_on_c, 0, 62, 48
2, 338365, Note_on_c, 0, 83, 0
2, 338365, Note_on_c, 0, 71, 5
2, 338365, Note_on_c, 0, 71, 0
2, 338365, Note_on_c, 0, 79, 5
2, 338365, Note_on_c, 0, 79, 0
2, 338383, Note_on_c, 0, 62, 0
2, 338400, Note_on_c, 0, 79, 79
2, 338400, Note_on_c, 0, 83, 80
2, 338400, Note_on_c, 0, 59, 52
2, 338563, Note_on_c, 0, 59, 0
2, 338580, Note_on_c, 0, 62, 57
2, 338743, Note_on_c, 0, 62, 0
2, 338760, Note_on_c, 0, 59, 53
2, 338887, Note_on_c, 0, 83, 0
2, 338887, Note_on_c, 0, 79, 0
2, 338923, Note_on_c, 0, 59, 0
2, 338940, Note_on_c, 0, 81, 77
2, 338940, Note_on_c, 0, 55, 49
2, 339103, Note_on_c, 0, 55, 0
2, 339103, Note_on_c, 0, 81, 0
2, 339120, Note_on_c, 0, 80, 87
2, 339120, Note_on_c, 0, 83, 88
2, 339297, Note_on_c, 0, 83, 0
2, 339297, Note_on_c, 0, 80, 0
2, 339300, Note_on_c, 0, 59, 47
2, 339463, Note_on_c, 0, 59, 0
2, 339480, Note_on_c, 0, 56, 49
2, 339643, Note_on_c, 0, 56, 0
2, 339660, Note_on_c, 0, 59, 56
2, 339823, Note_on_c, 0, 59, 0
2, 339840, Note_on_c, 0, 80, 77
2, 339840, Note_on_c, 0, 83, 76
2, 339840, Note_on_c, 0, 62, 61
2, 340003, Note_on_c, 0, 62, 0
2, 340020, Note_on_c, 0, 59, 48
2, 340183, Note_on_c, 0, 59, 0
2, 340200, Note_on_c, 0, 64, 61
2, 340363, Note_on_c, 0, 64, 0
2, 340380, Note_on_c, 0, 62, 52
2, 340525, Note_on_c, 0, 80, 0
2, 340525, Note_on_c, 0, 83, 0
2, 340543, Note_on_c, 0, 62, 0
2, 340560, Note_on_c, 0, 68, 60
2, 340560, Note_on_c, 0, 71, 62
2, 340560, Note_on_c, 0, 59, 50
2, 340723, Note_on_c, 0, 59, 0
2, 340740, Note_on_c, 0, 62, 57
2, 340903, Note_on_c, 0, 62, 0
2, 340920, Note_on_c, 0, 59, 51
2, 341047, Note_on_c, 0, 71, 0
2, 341047, Note_on_c, 0, 68, 0
2, 341083, Note_on_c, 0, 59, 0
2, 341100, Note_on_c, 0, 66, 71
2, 341100, Note_on_c, 0, 69, 71
2, 341100, Note_on_c, 0, 52, 46
2, 341263, Note_on_c, 0, 52, 0
2, 341263, Note_on_c, 0, 66, 0
2, 341263, Note_on_c, 0, 69, 0
2, 341280, Note_on_c, 0, 68, 88
2, 341280, Note_on_c, 0, 71, 87
2, 341457, Note_on_c, 0, 71, 0
2, 341457, Note_on_c, 0, 68, 0
2, 341460, Note_on_c, 0, 59, 47
2, 341623, Note_on_c, 0, 59, 0
2, 341640, Note_on_c, 0, 56, 52
2, 341803, Note_on_c, 0, 56, 0
2, 341820, Note_on_c, 0, 59, 58
2, 341983, Note_on_c, 0, 59, 0
2, 342000, Note_on_c, 0, 68, 77
2, 342000, Note_on_c, 0, 71, 78
2, 342000, Note_on_c, 0, 62, 60
2, 342163, Note_on_c, 0, 62, 0
2, 342180, Note_on_c, 0, 59, 48
2, 342343, Note_on_c, 0, 59, 0
2, 342360, Note_on_c, 0, 64, 61
2, 342523, Note_on_c, 0, 64, 0
2, 342540, Note_on_c, 0, 62, 49
2, 342685, Note_on_c, 0, 68, 0
2, 342685, Note_on_c, 0, 71, 0
2, 342703, Note_on_c, 0, 62, 0
2, 342720, Note_on_c, 0, 71, 100
2, 342720, Note_on_c, 0, 80, 101
2, 342720, Note_on_c, 0, 83, 102
2, 342720, Note_on_c, 0, 59, 50
2, 342883, Note_on_c, 0, 59, 0
2, 342900, Note_on_c, 0, 62, 55
2, 343063, Note_on_c, 0, 62, 0
2, 343080, Note_on_c, 0, 59, 53
2, 343207, Note_on_c, 0, 83, 0
2, 343207, Note_on_c, 0, 71, 0
2, 343207, Note_on_c, 0, 80, 0
2, 343243, Note_on_c, 0, 59, 0
2, 343260, Note_on_c, 0, 69, 80
2, 343260, Note_on_c, 0, 81, 77
2, 343260, Note_on_c, 0, 52, 45
2, 343423, Note_on_c, 0, 52, 0
2, 343423, Note_on_c, 0, 69, 0
2, 343423, Note_on_c, 0, 81, 0
2, 343440, Note_on_c, 0, 71, 94
2, 343440, Note_on_c, 0, 76, 97
2, 343440, Note_on_c, 0, 81, 94
2, 343440, Note_on_c, 0, 83, 96
2, 343440, Note_on_c, 0, 59, 67
2, 343440, Note_on_c, 0, 64, 67
2, 344090, Note_on_c, 0, 64, 0
2, 344090, Note_on_c, 0, 59, 0
2, 344160, Note_on_c, 0, 71, 0
2, 344160, Note_on_c, 0, 76, 0
2, 344160, Note_on_c, 0, 83, 0
2, 344160, Note_on_c, 0, 81, 0
2, 344160, Note_on_c, 0, 74, 94
2, 344160, Note_on_c, 0, 76, 93
2, 344160, Note_on_c, 0, 81, 93
2, 344160, Note_on_c, 0, 86, 93
2, 344160, Note_on_c, 0, 62, 69
2, 344160, Note_on_c, 0, 64, 67
2, 344160, Note_on_c, 0, 69, 70
2, 344845, Note_on_c, 0, 69, 0
2, 344845, Note_on_c, 0, 64, 0
2, 344845, Note_on_c, 0, 86, 0
2, 344845, Note_on_c, 0, 74, 0
2, 344845, Note_on_c, 0, 76, 0
2, 344845, Note_on_c, 0, 62, 0
2, 344845, Note_on_c, 0, 81, 0
2, 344880, Note_on_c, 0, 72, 82
2, 344880, Note_on_c, 0, 76, 81
2, 344880, Note_on_c, 0, 81, 82
2, 344880, Note_on_c, 0, 84, 81
2, 344880, Note_on_c, 0, 60, 58
2, 344880, Note_on_c, 0, 64, 58
2, 344880, Note_on_c, 0, 69, 58
2, 345600, Note_on_c, 0, 69, 0
2, 345600, Note_on_c, 0, 64, 0
2, 345600, Note_on_c, 0, 84, 0
2, 345600, Note_on_c, 0, 72, 0
2, 345600, Note_on_c, 0, 76, 0
2, 345600, Note_on_c, 0, 60, 0
2, 345600, Note_on_c, 0, 81, 0
2, 345600, Note_on_c, 0, 75, 73
2, 345600, Note_on_c, 0, 79, 71
2, 345600, Note_on_c, 0, 71, 115
2, 345600, Note_on_c, 0, 83, 114
2, 345600, Note_on_c, 0, 63, 54
2, 345600, Note_on_c, 0, 67, 53
2, 345600, Note_on_c, 0, 59, 59
2, 345600, Note_on_c, 0, 59, 58
2, 345925, Note_on_c, 0, 59, 0
2, 345925, Note_on_c, 0, 59, 0
2, 345925, Note_on_c, 0, 83, 0
2, 345925, Note_on_c, 0, 71, 0
2, 345960, Note_on_c, 0, 69, 77
2, 345960, Note_on_c, 0, 81, 77
2, 345960, Note_on_c, 0, 57, 48
2, 346285, Note_on_c, 0, 57, 0
2, 346285, Note_on_c, 0, 81, 0
2, 346285, Note_on_c, 0, 69, 0
2, 346320, Note_on_c, 0, 67, 75
2, 346320, Note_on_c, 0, 79, 77
2, 346320, Note_on_c, 0, 55, 51
2, 346645, Note_on_c, 0, 55, 0
2, 346645, Note_on_c, 0, 67, 0
2, 346645, Note_on_c, 0, 79, 0
2, 346680, Note_on_c, 0, 69, 88
2, 346680, Note_on_c, 0, 81, 89
2, 346680, Note_on_c, 0, 57, 58
2, 347005, Note_on_c, 0, 57, 0
2, 347005, Note_on_c, 0, 81, 0
2, 347005, Note_on_c, 0, 69, 0
2, 347040, Note_on_c, 0, 67, 74
2, 347040, Note_on_c, 0, 79, 74
2, 347040, Note_on_c, 0, 55, 50
2, 347365, Note_on_c, 0, 55, 0
2, 347365, Note_on_c, 0, 79, 0
2, 347365, Note_on_c, 0, 67, 0
2, 347400, Note_on_c, 0, 69, 84
2, 347400, Note_on_c, 0, 81, 86
2, 347400, Note_on_c, 0, 57, 56
2, 347690, Note_on_c, 0, 63, 0
2, 347690, Note_on_c, 0, 67, 0
2, 347690, Note_on_c, 0, 79, 0
2, 347690, Note_on_c, 0, 75, 0
2, 347725, Note_on_c, 0, 81, 0
2, 347725, Note_on_c, 0, 69, 0
2, 347725, Note_on_c, 0, 57, 0
2, 347760, Note_on_c, 0, 71, 93
2, 347760, Note_on_c, 0, 76, 93
2, 347760, Note_on_c, 0, 80, 93
2, 347760, Note_on_c, 0, 83, 93
2, 347760, Note_on_c, 0, 59, 59
2, 347760, Note_on_c, 0, 64, 60
2, 347760, Note_on_c, 0, 68, 59
2, 348120, Note_on_c, 0, 56, 46
2, 348283, Note_on_c, 0, 56, 0
2, 348300, Note_on_c, 0, 59, 56
2, 348410, Note_on_c, 0, 83, 0
2, 348410, Note_on_c, 0, 71, 0
2, 348410, Note_on_c, 0, 80, 0
2, 348410, Note_on_c, 0, 76, 0
2, 348463, Note_on_c, 0, 59, 0
2, 348480, Note_on_c, 0, 76, 86
2, 348480, Note_on_c, 0, 80, 87
2, 348480, Note_on_c, 0, 83, 86
2, 348480, Note_on_c, 0, 64, 63
2, 348643, Note_on_c, 0, 64, 0
2, 348660, Note_on_c, 0, 59, 48
2, 348770, Note_on_c, 0, 64, 0
2, 348770, Note_on_c, 0, 59, 0
2, 348770, Note_on_c, 0, 68, 0
2, 348823, Note_on_c, 0, 59, 0
2, 348840, Note_on_c, 0, 68, 56
2, 349003, Note_on_c, 0, 68, 0
2, 349020, Note_on_c, 0, 64, 46
2, 349165, Note_on_c, 0, 80, 0
2, 349165, Note_on_c, 0, 83, 0
2, 349165, Note_on_c, 0, 76, 0
2, 349183, Note_on_c, 0, 64, 0
2, 349200, Note_on_c, 0, 76, 81
2, 349200, Note_on_c, 0, 80, 82
2, 349200, Note_on_c, 0, 83, 82
2, 349200, Note_on_c, 0, 59, 46
2, 349363, Note_on_c, 0, 59, 0
2, 349380, Note_on_c, 0, 64, 58
2, 349543, Note_on_c, 0, 64, 0
2, 349560, Note_on_c, 0, 59, 48
2, 349687, Note_on_c, 0, 83, 0
2, 349687, Note_on_c, 0, 76, 0
2, 349687, Note_on_c, 0, 80, 0
2, 349723, Note_on_c, 0, 59, 0
2, 349740, Note_on_c, 0, 76, 80
2, 349740, Note_on_c, 0, 80, 81
2, 349740, Note_on_c, 0, 83, 81
2, 349740, Note_on_c, 0, 56, 46
2, 349903, Note_on_c, 0, 56, 0
2, 349903, Note_on_c, 0, 80, 0
2, 349903, Note_on_c, 0, 76, 0
2, 349903, Note_on_c, 0, 83, 0
2, 349920, Note_on_c, 0, 76, 84
2, 349920, Note_on_c, 0, 80, 86
2, 349920, Note_on_c, 0, 83, 85
2, 350100, Note_on_c, 0, 59, 50
2, 350245, Note_on_c, 0, 83, 0
2, 350245, Note_on_c, 0, 76, 0
2, 350245, Note_on_c, 0, 80, 0
2, 350263, Note_on_c, 0, 59, 0
2, 350280, Note_on_c, 0, 56, 50
2, 350443, Note_on_c, 0, 56, 0
2, 350460, Note_on_c, 0, 59, 57
2, 350623, Note_on_c, 0, 59, 0
2, 350640, Note_on_c, 0, 76, 74
2, 350640, Note_on_c, 0, 80, 71
2, 350640, Note_on_c, 0, 83, 74
2, 350640, Note_on_c, 0, 64, 60
2, 350803, Note_on_c, 0, 64, 0
2, 350820, Note_on_c, 0, 59, 47
2, 350983, Note_on_c, 0, 59, 0
2, 351000, Note_on_c, 0, 68, 66
2, 351163, Note_on_c, 0, 68, 0
2, 351180, Note_on_c, 0, 64, 49
2, 351325, Note_on_c, 0, 80, 0
2, 351325, Note_on_c, 0, 76, 0
2, 351325, Note_on_c, 0, 83, 0
2, 351343, Note_on_c, 0, 64, 0
2, 351360, Note_on_c, 0, 76, 83
2, 351360, Note_on_c, 0, 80, 82
2, 351360, Note_on_c, 0, 83, 81
2, 351360, Note_on_c, 0, 59, 50
2, 351523, Note_on_c, 0, 59, 0
2, 351540, Note_on_c, 0, 64, 60
2, 351703, Note_on_c, 0, 64, 0
2, 351720, Note_on_c, 0, 59, 51
2, 351847, Note_on_c, 0, 83, 0
2, 351847, Note_on_c, 0, 76, 0
2, 351847, Note_on_c, 0, 80, 0
2, 351883, Note_on_c, 0, 59, 0
2, 351900, Note_on_c, 0, 76, 80
2, 351900, Note_on_c, 0, 80, 82
2, 351900, Note_on_c, 0, 83, 80
2, 351900, Note_on_c, 0, 56, 47
2, 352063, Note_on_c, 0, 56, 0
2, 352063, Note_on_c, 0, 80, 0
2, 352063, Note_on_c, 0, 76, 0
2, 352063, Note_on_c, 0, 83, 0
2, 352080, Note_on_c, 0, 76, 86
2, 352080, Note_on_c, 0, 80, 86
2, 352080, Note_on_c, 0, 83, 84
2, 352405, Note_on_c, 0, 83, 0
2, 352405, Note_on_c, 0, 76, 0
2, 352405, Note_on_c, 0, 80, 0
2, 352800, Note_on_c, 0, 64, 72
2, 352800, Note_on_c, 0, 68, 74
2, 352800, Note_on_c, 0, 71, 72
2, 352800, Note_on_c, 0, 47, 50
2, 352800, Note_on_c, 0, 52, 48
2, 352800, Note_on_c, 0, 56, 48
2, 352800, Note_on_c, 0, 59, 50
2, 353485, Note_on_c, 0, 59, 0
2, 353485, Note_on_c, 0, 56, 0
2, 353485, Note_on_c, 0, 47, 0
2, 353485, Note_on_c, 0, 64, 0
2, 353485, Note_on_c, 0, 68, 0
2, 353485, Note_on_c, 0, 52, 0
2, 353485, Note_on_c, 0, 71, 0
2, 353520, Note_on_c, 0, 68, 90
2, 353520, Note_on_c, 0, 71, 92
2, 353520, Note_on_c, 0, 76, 92
2, 353520, Note_on_c, 0, 52, 60
2, 353520, Note_on_c, 0, 56, 59
2, 353520, Note_on_c, 0, 59, 59
2, 353520, Note_on_c, 0, 64, 59
2, 354170, Note_on_c, 0, 64, 0
2, 354170, Note_on_c, 0, 59, 0
2, 354170, Note_on_c, 0, 52, 0
2, 354170, Note_on_c, 0, 68, 0
2, 354170, Note_on_c, 0, 71, 0
2, 354170, Note_on_c, 0, 56, 0
2, 354170, Note_on_c, 0, 76, 0
2, 354240, Note_on_c, 0, 71, 95
2, 354240, Note_on_c, 0, 76, 93
2, 354240, Note_on_c, 0, 80, 95
2, 354240, Note_on_c, 0, 56, 63
2, 354240, Note_on_c, 0, 59, 64
2, 354240, Note_on_c, 0, 64, 62
2, 354240, Note_on_c, 0, 68, 64
2, 354890, Note_on_c, 0, 68, 0
2, 354890, Note_on_c, 0, 64, 0
2, 354890, Note_on_c, 0, 56, 0
2, 354890, Note_on_c, 0, 71, 0
2, 354890, Note_on_c, 0, 76, 0
2, 354890, Note_on_c, 0, 59, 0
2, 354890, Note_on_c, 0, 80, 0
2, 354960, Note_on_c, 0, 71, 89
2, 354960, Note_on_c, 0, 76, 90
2, 354960, Note_on_c, 0, 80, 88
2, 354960, Note_on_c, 0, 83, 87
2, 354960, Note_on_c, 0, 59, 55
2, 354960, Note_on_c, 0, 64, 53
2, 354960, Note_on_c, 0, 68, 55
2, 355645, Note_on_c, 0, 68, 0
2, 355645, Note_on_c, 0, 64, 0
2, 355645, Note_on_c, 0, 83, 0
2, 355645, Note_on_c, 0, 71, 0
2, 355645, Note_on_c, 0, 76, 0
2, 355645, Note_on_c, 0, 59, 0
2, 355645, Note_on_c, 0, 80, 0
2, 355680, Note_on_c, 0, 76, 93
2, 355680, Note_on_c, 0, 80, 93
2, 355680, Note_on_c, 0, 83, 92
2, 355680, Note_on_c, 0, 88, 90
2, 355680, Note_on_c, 0, 59, 58
2, 355680, Note_on_c, 0, 64, 56
2, 355680, Note_on_c, 0, 68, 58
2, 355680, Note_on_c, 0, 71, 56
2, 356330, Note_on_c, 0, 71, 0
2, 356330, Note_on_c, 0, 59, 0
2, 356330, Note_on_c, 0, 68, 0
2, 356330, Note_on_c, 0, 88, 0
2, 356330, Note_on_c, 0, 76, 0
2, 356330, Note_on_c, 0, 80, 0
2, 356330, Note_on_c, 0, 64, 0
2, 356330, Note_on_c, 0, 83, 0
2, 356400, Note_on_c, 0, 80, 121
2, 356400, Note_on_c, 0, 82, 121
2, 356400, Note_on_c, 0, 85, 120
2, 356400, Note_on_c, 0, 88, 122
2, 356400, Note_on_c, 0, 92, 122
2, 356400, Note_on_c, 0, 58, 74
2, 356400, Note_on_c, 0, 61, 73
2, 356400, Note_on_c, 0, 64, 74
2, 356400, Note_on_c, 0, 68, 75
2, 357410, Note_on_c, 0, 68, 0
2, 357410, Note_on_c, 0, 61, 0
2, 357410, Note_on_c, 0, 92, 0
2, 357410, Note_on_c, 0, 88, 0
2, 357410, Note_on_c, 0, 80, 0
2, 357410, Note_on_c, 0, 58, 0
2, 357410, Note_on_c, 0, 82, 0
2, 357410, Note_on_c, 0, 85, 0
2, 357410, Note_on_c, 0, 64, 0
2, 357480, Note_on_c, 0, 78, 85
2, 357480, Note_on_c, 0, 90, 87
2, 357480, Note_on_c, 0, 82, 103
2, 357480, Note_on_c, 0, 85, 103
2, 357480, Note_on_c, 0, 58, 60
2, 357480, Note_on_c, 0, 61, 59
2, 357480, Note_on_c, 0, 66, 59
2, 358200, Note_on_c, 0, 66, 0
2, 358200, Note_on_c, 0, 61, 0
2, 358200, Note_on_c, 0, 90, 0
2, 358200, Note_on_c, 0, 78, 0
2, 358200, Note_on_c, 0, 58, 0
2, 358200, Note_on_c, 0, 76, 77
2, 358200, Note_on_c, 0, 88, 77
2, 358200, Note_on_c, 0, 64, 50
2, 358490, Note_on_c, 0, 82, 0
2, 358490, Note_on_c, 0, 85, 0
2, 358525, Note_on_c, 0, 88, 0
2, 358525, Note_on_c, 0, 64, 0
2, 358525, Note_on_c, 0, 76, 0
2, 358560, Note_on_c, 0, 73, 81
2, 358560, Note_on_c, 0, 76, 82
2, 358560, Note_on_c, 0, 80, 83
2, 358560, Note_on_c, 0, 85, 83
2, 358560, Note_on_c, 0, 47, 55
2, 358560, Note_on_c, 0, 52, 56
2, 358560, Note_on_c, 0, 56, 55
2, 358560, Note_on_c, 0, 61, 55
2, 359280, Note_on_c, 0, 61, 0
2, 359280, Note_on_c, 0, 47, 0
2, 359280, Note_on_c, 0, 56, 0
2, 359280, Note_on_c, 0, 85, 0
2, 359280, Note_on_c, 0, 73, 0
2, 359280, Note_on_c, 0, 76, 0
2, 359280, Note_on_c, 0, 52, 0
2, 359280, Note_on_c, 0, 80, 0
2, 359280, Note_on_c, 0, 70, 77
2, 359280, Note_on_c, 0, 76, 78
2, 359280, Note_on_c, 0, 80, 80
2, 359280, Note_on_c, 0, 82, 77
2, 359280, Note_on_c, 0, 47, 54
2, 359280, Note_on_c, 0, 52, 51
2, 359280, Note_on_c, 0, 56, 53
2, 359280, Note_on_c, 0, 58, 54
2, 359965, Note_on_c, 0, 58, 0
2, 359965, Note_on_c, 0, 47, 0
2, 359965, Note_on_c, 0, 56, 0
2, 359965, Note_on_c, 0, 82, 0
2, 359965, Note_on_c, 0, 70, 0
2, 359965, Note_on_c, 0, 76, 0
2, 359965, Note_on_c, 0, 52, 0
2, 359965, Note_on_c, 0, 80, 0
2, 360000, Note_on_c, 0, 73, 93
2, 360000, Note_on_c, 0, 76, 93
2, 360000, Note_on_c, 0, 80, 92
2, 360000, Note_on_c, 0, 85, 95
2, 360000, Note_on_c, 0, 47, 63
2, 360000, Note_on_c, 0, 52, 65
2, 360000, Note_on_c, 0, 56, 64
2, 360000, Note_on_c, 0, 61, 62
2, 360360, Note_on_c, 0, 61, 0
2, 360360, Note_on_c, 0, 47, 0
2, 360360, Note_on_c, 0, 56, 0
2, 360360, Note_on_c, 0, 85, 0
2, 360360, Note_on_c, 0, 73, 0
2, 360360, Note_on_c, 0, 76, 0
2, 360360, Note_on_c, 0, 52, 0
2, 360360, Note_on_c, 0, 80, 0
2, 360360, Note_on_c, 0, 71, 84
2, 360360, Note_on_c, 0, 76, 85
2, 360360, Note_on_c, 0, 80, 84
2, 360360, Note_on_c, 0, 83, 84
2, 360360, Note_on_c, 0, 47, 58
2, 360360, Note_on_c, 0, 52, 54
2, 360360, Note_on_c, 0, 56, 56
2, 360360, Note_on_c, 0, 59, 57
2, 360720, Note_on_c, 0, 59, 0
2, 360720, Note_on_c, 0, 47, 0
2, 360720, Note_on_c, 0, 56, 0
2, 360720, Note_on_c, 0, 83, 0
2, 360720, Note_on_c, 0, 71, 0
2, 360720, Note_on_c, 0, 76, 0
2, 360720, Note_on_c, 0, 52, 0
2, 360720, Note_on_c, 0, 80, 0
2, 360720, Note_on_c, 0, 68, 98
2, 360720, Note_on_c, 0, 70, 98
2, 360720, Note_on_c, 0, 73, 97
2, 360720, Note_on_c, 0, 76, 100
2, 360720, Note_on_c, 0, 80, 98
2, 360720, Note_on_c, 0, 49, 88
2, 360720, Note_on_c, 0, 56, 89
2, 360720, Note_on_c, 0, 58, 89
2, 360720, Note_on_c, 0, 64, 91
2, 361730, Note_on_c, 0, 64, 0
2, 361730, Note_on_c, 0, 56, 0
2, 361730, Note_on_c, 0, 80, 0
2, 361730, Note_on_c, 0, 76, 0
2, 361730, Note_on_c, 0, 68, 0
2, 361730, Note_on_c, 0, 49, 0
2, 361730, Note_on_c, 0, 70, 0
2, 361730, Note_on_c, 0, 73, 0
2, 361730, Note_on_c, 0, 58, 0
2, 361800, Note_on_c, 0, 66, 81
2, 361800, Note_on_c, 0, 78, 84
2, 361800, Note_on_c, 0, 70, 68
2, 361800, Note_on_c, 0, 73, 65
2, 361800, Note_on_c, 0, 54, 45
2, 361800, Note_on_c, 0, 57, 65
2, 361800, Note_on_c, 0, 60, 64
2, 362450, Note_on_c, 0, 54, 0
2, 362520, Note_on_c, 0, 78, 0
2, 362520, Note_on_c, 0, 66, 0
2, 362520, Note_on_c, 0, 64, 74
2, 362520, Note_on_c, 0, 76, 74
2, 362520, Note_on_c, 0, 52, 44
2, 362810, Note_on_c, 0, 73, 0
2, 362810, Note_on_c, 0, 70, 0
2, 362845, Note_on_c, 0, 52, 0
2, 362845, Note_on_c, 0, 64, 0
2, 362845, Note_on_c, 0, 76, 0
2, 362880, Note_on_c, 0, 57, 0
2, 362880, Note_on_c, 0, 60, 0
2, 362880, Note_on_c, 0, 61, 83
2, 362880, Note_on_c, 0, 73, 81
2, 362880, Note_on_c, 0, 64, 71
2, 362880, Note_on_c, 0, 68, 72
2, 362880, Note_on_c, 0, 47, 46
2, 362880, Note_on_c, 0, 40, 51
2, 362880, Note_on_c, 0, 56, 50
2, 363530, Note_on_c, 0, 47, 0
2, 363600, Note_on_c, 0, 73, 0
2, 363600, Note_on_c, 0, 61, 0
2, 363600, Note_on_c, 0, 58, 79
2, 363600, Note_on_c, 0, 70, 79
2, 363600, Note_on_c, 0, 46, 56
2, 363890, Note_on_c, 0, 40, 0
2, 363960, Note_on_c, 0, 40, 56
2, 364285, Note_on_c, 0, 40, 0
2, 364285, Note_on_c, 0, 70, 0
2, 364285, Note_on_c, 0, 46, 0
2, 364285, Note_on_c, 0, 56, 0
2, 364285, Note_on_c, 0, 64, 0
2, 364285, Note_on_c, 0, 58, 0
2, 364285, Note_on_c, 0, 68, 0
2, 364320, Note_on_c, 0, 61, 92
2, 364320, Note_on_c, 0, 73, 93
2, 364320, Note_on_c, 0, 64, 80
2, 364320, Note_on_c, 0, 68, 81
2, 364320, Note_on_c, 0, 49, 56
2, 364320, Note_on_c, 0, 40, 53
2, 364320, Note_on_c, 0, 56, 53
2, 364645, Note_on_c, 0, 49, 0
2, 364680, Note_on_c, 0, 73, 0
2, 364680, Note_on_c, 0, 61, 0
2, 364680, Note_on_c, 0, 59, 83
2, 364680, Note_on_c, 0, 71, 82
2, 364680, Note_on_c, 0, 47, 50
2, 364970, Note_on_c, 0, 40, 0
2, 364970, Note_on_c, 0, 56, 0
2, 364970, Note_on_c, 0, 68, 0
2, 364970, Note_on_c, 0, 64, 0
2, 365005, Note_on_c, 0, 47, 0
2, 365040, Note_on_c, 0, 71, 0
2, 365040, Note_on_c, 0, 59, 0
2, 365040, Note_on_c, 0, 26, 44
2, 365040, Note_on_c, 0, 38, 45
2, 365400, Note_on_c, 0, 43, 77
2, 365563, Note_on_c, 0, 43, 0
2, 365580, Note_on_c, 0, 45, 83
2, 365743, Note_on_c, 0, 45, 0
2, 365760, Note_on_c, 0, 47, 88
2, 365923, Note_on_c, 0, 47, 0
2, 365940, Note_on_c, 0, 48, 86
2, 366103, Note_on_c, 0, 48, 0
2, 366120, Note_on_c, 0, 50, 88
2, 366283, Note_on_c, 0, 50, 0
2, 366300, Note_on_c, 0, 47, 76
2, 366463, Note_on_c, 0, 47, 0
2, 366480, Note_on_c, 0, 48, 84
2, 366643, Note_on_c, 0, 48, 0
2, 366660, Note_on_c, 0, 50, 86
2, 366823, Note_on_c, 0, 50, 0
2, 366840, Note_on_c, 0, 52, 90
2, 367003, Note_on_c, 0, 52, 0
2, 367020, Note_on_c, 0, 54, 88
2, 367183, Note_on_c, 0, 54, 0
2, 367200, Note_on_c, 0, 55, 88
2, 367363, Note_on_c, 0, 55, 0
2, 367380, Note_on_c, 0, 51, 71
2, 367543, Note_on_c, 0, 51, 0
2, 367560, Note_on_c, 0, 52, 87
2, 367723, Note_on_c, 0, 52, 0
2, 367740, Note_on_c, 0, 54, 87
2, 367903, Note_on_c, 0, 54, 0
2, 367920, Note_on_c, 0, 55, 89
2, 368083, Note_on_c, 0, 55, 0
2, 368100, Note_on_c, 0, 57, 85
2, 368263, Note_on_c, 0, 57, 0
2, 368280, Note_on_c, 0, 59, 87
2, 368443, Note_on_c, 0, 59, 0
2, 368460, Note_on_c, 0, 54, 69
2, 368623, Note_on_c, 0, 54, 0
2, 368640, Note_on_c, 0, 55, 83
2, 368803, Note_on_c, 0, 55, 0
2, 368820, Note_on_c, 0, 57, 86
2, 368983, Note_on_c, 0, 57, 0
2, 369000, Note_on_c, 0, 59, 87
2, 369163, Note_on_c, 0, 59, 0
2, 369180, Note_on_c, 0, 62, 89
2, 369290, Note_on_c, 0, 26, 0
2, 369290, Note_on_c, 0, 38, 0
2, 369343, Note_on_c, 0, 62, 0
2, 369360, Note_on_c, 0, 64, 87
2, 369360, Note_on_c, 0, 38, 54
2, 369523, Note_on_c, 0, 64, 0
2, 369540, Note_on_c, 0, 52, 58
2, 369685, Note_on_c, 0, 38, 0
2, 369703, Note_on_c, 0, 52, 0
2, 369720, Note_on_c, 0, 54, 85
2, 369720, Note_on_c, 0, 60, 66
2, 369720, Note_on_c, 0, 64, 65
2, 369883, Note_on_c, 0, 54, 0
2, 369897, Note_on_c, 0, 60, 0
2, 369897, Note_on_c, 0, 64, 0
2, 369900, Note_on_c, 0, 55, 85
2, 370063, Note_on_c, 0, 55, 0
2, 370080, Note_on_c, 0, 57, 90
2, 370080, Note_on_c, 0, 60, 56
2, 370080, Note_on_c, 0, 64, 54
2, 370243, Note_on_c, 0, 57, 0
2, 370257, Note_on_c, 0, 60, 0
2, 370257, Note_on_c, 0, 64, 0
2, 370260, Note_on_c, 0, 59, 84
2, 370423, Note_on_c, 0, 59, 0
2, 370440, Note_on_c, 0, 60, 89
2, 370603, Note_on_c, 0, 60, 0
2, 370620, Note_on_c, 0, 55, 72
2, 370783, Note_on_c, 0, 55, 0
2, 370800, Note_on_c, 0, 57, 87
2, 370800, Note_on_c, 0, 60, 50
2, 370800, Note_on_c, 0, 64, 47
2, 370963, Note_on_c, 0, 57, 0
2, 370977, Note_on_c, 0, 60, 0
2, 370977, Note_on_c, 0, 64, 0
2, 370980, Note_on_c, 0, 59, 86
2, 371143, Note_on_c, 0, 59, 0
2, 371160, Note_on_c, 0, 60, 90
2, 371160, Note_on_c, 0, 55, 53
2, 371160, Note_on_c, 0, 64, 52
2, 371323, Note_on_c, 0, 60, 0
2, 371337, Note_on_c, 0, 55, 0
2, 371337, Note_on_c, 0, 64, 0
2, 371340, Note_on_c, 0, 62, 84
2, 371503, Note_on_c, 0, 62, 0
2, 371520, Note_on_c, 0, 64, 91
2, 371683, Note_on_c, 0, 64, 0
2, 371700, Note_on_c, 0, 59, 70
2, 371863, Note_on_c, 0, 59, 0
2, 371880, Note_on_c, 0, 60, 83
2, 371880, Note_on_c, 0, 57, 47
2, 372043, Note_on_c, 0, 60, 0
2, 372057, Note_on_c, 0, 57, 0
2, 372060, Note_on_c, 0, 62, 87
2, 372223, Note_on_c, 0, 62, 0
2, 372240, Note_on_c, 0, 63, 87
2, 372240, Note_on_c, 0, 57, 55
2, 372240, Note_on_c, 0, 60, 55
2, 372403, Note_on_c, 0, 63, 0
2, 372417, Note_on_c, 0, 57, 0
2, 372417, Note_on_c, 0, 60, 0
2, 372420, Note_on_c, 0, 66, 88
2, 372583, Note_on_c, 0, 66, 0
2, 372600, Note_on_c, 0, 67, 88
2, 372763, Note_on_c, 0, 67, 0
2, 372780, Note_on_c, 0, 60, 68
2, 372943, Note_on_c, 0, 60, 0
2, 372960, Note_on_c, 0, 62, 87
2, 372960, Note_on_c, 0, 57, 49
2, 372960, Note_on_c, 0, 60, 48
2, 373123, Note_on_c, 0, 62, 0
2, 373137, Note_on_c, 0, 57, 0
2, 373137, Note_on_c, 0, 60, 0
2, 373140, Note_on_c, 0, 64, 87
2, 373303, Note_on_c, 0, 64, 0
2, 373320, Note_on_c, 0, 66, 90
2, 373320, Note_on_c, 0, 50, 53
2, 373320, Note_on_c, 0, 57, 54
2, 373320, Note_on_c, 0, 60, 51
2, 373483, Note_on_c, 0, 66, 0
2, 373497, Note_on_c, 0, 57, 0
2, 373497, Note_on_c, 0, 50, 0
2, 373497, Note_on_c, 0, 60, 0
2, 373500, Note_on_c, 0, 67, 85
2, 373663, Note_on_c, 0, 67, 0
2, 373680, Note_on_c, 0, 71, 90
2, 373843, Note_on_c, 0, 71, 0
2, 373860, Note_on_c, 0, 64, 67
2, 374023, Note_on_c, 0, 64, 0
2, 374040, Note_on_c, 0, 62, 78
2, 374040, Note_on_c, 0, 55, 49
2, 374040, Note_on_c, 0, 59, 49
2, 374203, Note_on_c, 0, 62, 0
2, 374217, Note_on_c, 0, 55, 0
2, 374217, Note_on_c, 0, 59, 0
2, 374220, Note_on_c, 0, 69, 94
2, 374383, Note_on_c, 0, 69, 0
2, 374400, Note_on_c, 0, 71, 90
2, 374400, Note_on_c, 0, 55, 53
2, 374400, Note_on_c, 0, 59, 52
2, 374563, Note_on_c, 0, 71, 0
2, 374577, Note_on_c, 0, 55, 0
2, 374577, Note_on_c, 0, 59, 0
2, 374580, Note_on_c, 0, 66, 73
2, 374743, Note_on_c, 0, 66, 0
2, 374760, Note_on_c, 0, 67, 87
2, 374923, Note_on_c, 0, 67, 0
2, 374940, Note_on_c, 0, 69, 85
2, 375103, Note_on_c, 0, 69, 0
2, 375120, Note_on_c, 0, 71, 87
2, 375120, Note_on_c, 0, 55, 46
2, 375120, Note_on_c, 0, 59, 49
2, 375283, Note_on_c, 0, 71, 0
2, 375297, Note_on_c, 0, 55, 0
2, 375297, Note_on_c, 0, 59, 0
2, 375300, Note_on_c, 0, 69, 76
2, 375463, Note_on_c, 0, 69, 0
2, 375480, Note_on_c, 0, 67, 76
2, 375480, Note_on_c, 0, 55, 51
2, 375480, Note_on_c, 0, 59, 52
2, 375643, Note_on_c, 0, 67, 0
2, 375657, Note_on_c, 0, 55, 0
2, 375657, Note_on_c, 0, 59, 0
2, 375660, Note_on_c, 0, 69, 87
2, 375823, Note_on_c, 0, 69, 0
2, 375840, Note_on_c, 0, 71, 88
2, 376003, Note_on_c, 0, 71, 0
2, 376020, Note_on_c, 0, 62, 62
2, 376183, Note_on_c, 0, 62, 0
2, 376200, Note_on_c, 0, 67, 92
2, 376200, Note_on_c, 0, 55, 47
2, 376200, Note_on_c, 0, 59, 46
2, 376363, Note_on_c, 0, 67, 0
2, 376377, Note_on_c, 0, 55, 0
2, 376377, Note_on_c, 0, 59, 0
2, 376380, Note_on_c, 0, 69, 87
2, 376543, Note_on_c, 0, 69, 0
2, 376560, Note_on_c, 0, 71, 87
2, 376560, Note_on_c, 0, 55, 53
2, 376560, Note_on_c, 0, 59, 52
2, 376723, Note_on_c, 0, 71, 0
2, 376737, Note_on_c, 0, 55, 0
2, 376737, Note_on_c, 0, 59, 0
2, 376740, Note_on_c, 0, 66, 73
2, 376903, Note_on_c, 0, 66, 0
2, 376920, Note_on_c, 0, 67, 87
2, 377083, Note_on_c, 0, 67, 0
2, 377100, Note_on_c, 0, 71, 89
2, 377263, Note_on_c, 0, 71, 0
2, 377280, Note_on_c, 0, 79, 101
2, 377280, Note_on_c, 0, 55, 47
2, 377280, Note_on_c, 0, 59, 50
2, 377443, Note_on_c, 0, 79, 0
2, 377457, Note_on_c, 0, 55, 0
2, 377457, Note_on_c, 0, 59, 0
2, 377460, Note_on_c, 0, 71, 70
2, 377623, Note_on_c, 0, 71, 0
2, 377640, Note_on_c, 0, 67, 75
2, 377640, Note_on_c, 0, 55, 51
2, 377640, Note_on_c, 0, 59, 51
2, 377803, Note_on_c, 0, 67, 0
2, 377817, Note_on_c, 0, 55, 0
2, 377817, Note_on_c, 0, 59, 0
2, 377820, Note_on_c, 0, 72, 89
2, 377983, Note_on_c, 0, 72, 0
2, 378000, Note_on_c, 0, 71, 81
2, 378163, Note_on_c, 0, 71, 0
2, 378180, Note_on_c, 0, 67, 71
2, 378343, Note_on_c, 0, 67, 0
2, 378360, Note_on_c, 0, 69, 86
2, 378360, Note_on_c, 0, 55, 47
2, 378360, Note_on_c, 0, 59, 46
2, 378523, Note_on_c, 0, 69, 0
2, 378537, Note_on_c, 0, 55, 0
2, 378537, Note_on_c, 0, 59, 0
2, 378540, Note_on_c, 0, 67, 75
2, 378703, Note_on_c, 0, 67, 0
2, 378720, Note_on_c, 0, 71, 92
2, 378720, Note_on_c, 0, 55, 54
2, 378720, Note_on_c, 0, 59, 53
2, 378883, Note_on_c, 0, 71, 0
2, 378897, Note_on_c, 0, 55, 0
2, 378897, Note_on_c, 0, 59, 0
2, 378900, Note_on_c, 0, 66, 71
2, 379063, Note_on_c, 0, 66, 0
2, 379080, Note_on_c, 0, 67, 88
2, 379243, Note_on_c, 0, 67, 0
2, 379260, Note_on_c, 0, 66, 79
2, 379423, Note_on_c, 0, 66, 0
2, 379440, Note_on_c, 0, 71, 91
2, 379440, Note_on_c, 0, 55, 48
2, 379440, Note_on_c, 0, 59, 47
2, 379603, Note_on_c, 0, 71, 0
2, 379617, Note_on_c, 0, 55, 0
2, 379617, Note_on_c, 0, 59, 0
2, 379620, Note_on_c, 0, 64, 69
2, 379783, Note_on_c, 0, 64, 0
2, 379800, Note_on_c, 0, 62, 76
2, 379800, Note_on_c, 0, 55, 53
2, 379800, Note_on_c, 0, 59, 52
2, 379963, Note_on_c, 0, 62, 0
2, 379977, Note_on_c, 0, 55, 0
2, 379977, Note_on_c, 0, 59, 0
2, 379980, Note_on_c, 0, 69, 95
2, 380143, Note_on_c, 0, 69, 0
2, 380160, Note_on_c, 0, 71, 92
2, 380323, Note_on_c, 0, 71, 0
2, 380340, Note_on_c, 0, 67, 74
2, 380503, Note_on_c, 0, 67, 0
2, 380520, Note_on_c, 0, 69, 87
2, 380520, Note_on_c, 0, 55, 47
2, 380520, Note_on_c, 0, 59, 50
2, 380683, Note_on_c, 0, 69, 0
2, 380697, Note_on_c, 0, 55, 0
2, 380697, Note_on_c, 0, 59, 0
2, 380700, Note_on_c, 0, 67, 76
2, 380863, Note_on_c, 0, 67, 0
2, 380880, Note_on_c, 0, 71, 90
2, 380880, Note_on_c, 0, 55, 51
2, 380880, Note_on_c, 0, 59, 53
2, 381043, Note_on_c, 0, 71, 0
2, 381057, Note_on_c, 0, 55, 0
2, 381057, Note_on_c, 0, 59, 0
2, 381060, Note_on_c, 0, 69, 77
2, 381223, Note_on_c, 0, 69, 0
2, 381240, Note_on_c, 0, 67, 79
2, 381403, Note_on_c, 0, 67, 0
2, 381420, Note_on_c, 0, 79, 100
2, 381583, Note_on_c, 0, 79, 0
2, 381600, Note_on_c, 0, 83, 93
2, 381600, Note_on_c, 0, 55, 49
2, 381600, Note_on_c, 0, 59, 49
2, 381600, Note_on_c, 0, 64, 47
2, 381763, Note_on_c, 0, 83, 0
2, 381777, Note_on_c, 0, 59, 0
2, 381777, Note_on_c, 0, 55, 0
2, 381777, Note_on_c, 0, 64, 0
2, 381780, Note_on_c, 0, 79, 74
2, 381943, Note_on_c, 0, 79, 0
2, 381960, Note_on_c, 0, 71, 66
2, 381960, Note_on_c, 0, 59, 54
2, 381960, Note_on_c, 0, 64, 54
2, 381960, Note_on_c, 0, 67, 56
2, 382123, Note_on_c, 0, 71, 0
2, 382137, Note_on_c, 0, 64, 0
2, 382137, Note_on_c, 0, 59, 0
2, 382137, Note_on_c, 0, 67, 0
2, 382140, Note_on_c, 0, 81, 97
2, 382303, Note_on_c, 0, 81, 0
2, 382320, Note_on_c, 0, 79, 103
2, 382320, Note_on_c, 0, 83, 104
2, 382320, Note_on_c, 0, 62, 62
2, 382320, Note_on_c, 0, 67, 60
2, 382320, Note_on_c, 0, 71, 61
2, 382497, Note_on_c, 0, 71, 0
2, 382497, Note_on_c, 0, 67, 0
2, 382497, Note_on_c, 0, 83, 0
2, 382497, Note_on_c, 0, 79, 0
2, 382497, Note_on_c, 0, 62, 0
2, 382680, Note_on_c, 0, 76, 73
2, 382680, Note_on_c, 0, 64, 47
2, 382843, Note_on_c, 0, 64, 0
2, 382843, Note_on_c, 0, 76, 0
2, 382860, Note_on_c, 0, 74, 75
2, 382860, Note_on_c, 0, 67, 57
2, 383023, Note_on_c, 0, 67, 0
2, 383023, Note_on_c, 0, 74, 0
2, 383040, Note_on_c, 0, 81, 84
2, 383040, Note_on_c, 0, 81, 96
2, 383040, Note_on_c, 0, 69, 56
2, 383203, Note_on_c, 0, 81, 0
2, 383220, Note_on_c, 0, 78, 76
2, 383365, Note_on_c, 0, 81, 0
2, 383365, Note_on_c, 0, 69, 0
2, 383383, Note_on_c, 0, 78, 0
2, 383400, Note_on_c, 0, 76, 79
2, 383400, Note_on_c, 0, 62, 49
2, 383563, Note_on_c, 0, 62, 0
2, 383563, Note_on_c, 0, 76, 0
2, 383580, Note_on_c, 0, 74, 73
2, 383580, Note_on_c, 0, 66, 55
2, 383743, Note_on_c, 0, 66, 0
2, 383743, Note_on_c, 0, 74, 0
2, 383760, Note_on_c, 0, 79, 76
2, 383760, Note_on_c, 0, 79, 94
2, 383760, Note_on_c, 0, 67, 55
2, 383923, Note_on_c, 0, 79, 0
2, 383940, Note_on_c, 0, 76, 77
2, 384085, Note_on_c, 0, 79, 0
2, 384085, Note_on_c, 0, 67, 0
2, 384103, Note_on_c, 0, 76, 0
2, 384120, Note_on_c, 0, 74, 78
2, 384120, Note_on_c, 0, 62, 49
2, 384283, Note_on_c, 0, 62, 0
2, 384283, Note_on_c, 0, 74, 0
2, 384300, Note_on_c, 0, 71, 74
2, 384300, Note_on_c, 0, 64, 54
2, 384463, Note_on_c, 0, 64, 0
2, 384463, Note_on_c, 0, 71, 0
2, 384480, Note_on_c, 0, 78, 79
2, 384480, Note_on_c, 0, 78, 96
2, 384480, Note_on_c, 0, 66, 57
2, 384643, Note_on_c, 0, 78, 0
2, 384660, Note_on_c, 0, 74, 76
2, 384805, Note_on_c, 0, 78, 0
2, 384805, Note_on_c, 0, 66, 0
2, 384823, Note_on_c, 0, 74, 0
2, 384840, Note_on_c, 0, 71, 76
2, 384840, Note_on_c, 0, 59, 48
2, 385003, Note_on_c, 0, 59, 0
2, 385003, Note_on_c, 0, 71, 0
2, 385020, Note_on_c, 0, 67, 69
2, 385020, Note_on_c, 0, 62, 57
2, 385183, Note_on_c, 0, 62, 0
2, 385183, Note_on_c, 0, 67, 0
2, 385200, Note_on_c, 0, 76, 73
2, 385200, Note_on_c, 0, 76, 100
2, 385200, Note_on_c, 0, 64, 57
2, 385363, Note_on_c, 0, 76, 0
2, 385380, Note_on_c, 0, 72, 74
2, 385525, Note_on_c, 0, 76, 0
2, 385525, Note_on_c, 0, 64, 0
2, 385543, Note_on_c, 0, 72, 0
2, 385560, Note_on_c, 0, 71, 77
2, 385560, Note_on_c, 0, 59, 52
2, 385723, Note_on_c, 0, 59, 0
2, 385723, Note_on_c, 0, 71, 0
2, 385740, Note_on_c, 0, 67, 72
2, 385740, Note_on_c, 0, 60, 55
2, 385903, Note_on_c, 0, 60, 0
2, 385903, Note_on_c, 0, 67, 0
2, 385920, Note_on_c, 0, 74, 73
2, 385920, Note_on_c, 0, 74, 96
2, 385920, Note_on_c, 0, 62, 56
2, 386083, Note_on_c, 0, 74, 0
2, 386100, Note_on_c, 0, 71, 77
2, 386245, Note_on_c, 0, 74, 0
2, 386245, Note_on_c, 0, 62, 0
2, 386263, Note_on_c, 0, 71, 0
2, 386280, Note_on_c, 0, 74, 88
2, 386280, Note_on_c, 0, 59, 63
2, 386280, Note_on_c, 0, 62, 61
2, 386280, Note_on_c, 0, 67, 62
2, 386443, Note_on_c, 0, 74, 0
2, 386457, Note_on_c, 0, 62, 0
2, 386457, Note_on_c, 0, 59, 0
2, 386457, Note_on_c, 0, 67, 0
2, 386460, Note_on_c, 0, 79, 90
2, 386623, Note_on_c, 0, 79, 0
2, 386640, Note_on_c, 0, 83, 96
2, 386640, Note_on_c, 0, 61, 61
2, 386640, Note_on_c, 0, 67, 63
2, 386640, Note_on_c, 0, 71, 62
2, 386817, Note_on_c, 0, 71, 0
2, 386817, Note_on_c, 0, 61, 0
2, 386817, Note_on_c, 0, 83, 0
2, 386817, Note_on_c, 0, 67, 0
2, 387000, Note_on_c, 0, 76, 72
2, 387000, Note_on_c, 0, 64, 49
2, 387163, Note_on_c, 0, 64, 0
2, 387163, Note_on_c, 0, 76, 0
2, 387180, Note_on_c, 0, 71, 70
2, 387180, Note_on_c, 0, 67, 56
2, 387343, Note_on_c, 0, 67, 0
2, 387343, Note_on_c, 0, 71, 0
2, 387360, Note_on_c, 0, 81, 96
2, 387360, Note_on_c, 0, 81, 100
2, 387360, Note_on_c, 0, 69, 54
2, 387523, Note_on_c, 0, 81, 0
2, 387540, Note_on_c, 0, 78, 77
2, 387685, Note_on_c, 0, 81, 0
2, 387685, Note_on_c, 0, 69, 0
2, 387703, Note_on_c, 0, 78, 0
2, 387720, Note_on_c, 0, 76, 77
2, 387720, Note_on_c, 0, 64, 52
2, 387883, Note_on_c, 0, 64, 0
2, 387883, Note_on_c, 0, 76, 0
2, 387900, Note_on_c, 0, 71, 69
2, 387900, Note_on_c, 0, 66, 52
2, 388063, Note_on_c, 0, 66, 0
2, 388063, Note_on_c, 0, 71, 0
2, 388080, Note_on_c, 0, 79, 79
2, 388080, Note_on_c, 0, 79, 98
2, 388080, Note_on_c, 0, 67, 55
2, 388243, Note_on_c, 0, 79, 0
2, 388260, Note_on_c, 0, 76, 77
2, 388405, Note_on_c, 0, 79, 0
2, 388405, Note_on_c, 0, 67, 0
2, 388423, Note_on_c, 0, 76, 0
2, 388440, Note_on_c, 0, 74, 76
2, 388440, Note_on_c, 0, 62, 51
2, 388603, Note_on_c, 0, 62, 0
2, 388603, Note_on_c, 0, 74, 0
2, 388620, Note_on_c, 0, 71, 74
2, 388620, Note_on_c, 0, 64, 54
2, 388783, Note_on_c, 0, 64, 0
2, 388783, Note_on_c, 0, 71, 0
2, 388800, Note_on_c, 0, 78, 80
2, 388800, Note_on_c, 0, 78, 97
2, 388800, Note_on_c, 0, 66, 59
2, 388963, Note_on_c, 0, 78, 0
2, 388980, Note_on_c, 0, 74, 76
2, 389125, Note_on_c, 0, 78, 0
2, 389125, Note_on_c, 0, 66, 0
2, 389143, Note_on_c, 0, 74, 0
2, 389160, Note_on_c, 0, 73, 77
2, 389160, Note_on_c, 0, 61, 49
2, 389323, Note_on_c, 0, 61, 0
2, 389323, Note_on_c, 0, 73, 0
2, 389340, Note_on_c, 0, 71, 76
2, 389340, Note_on_c, 0, 62, 54
2, 389503, Note_on_c, 0, 62, 0
2, 389503, Note_on_c, 0, 71, 0
2, 389520, Note_on_c, 0, 76, 75
2, 389520, Note_on_c, 0, 76, 91
2, 389520, Note_on_c, 0, 64, 55
2, 389683, Note_on_c, 0, 76, 0
2, 389700, Note_on_c, 0, 74, 78
2, 389845, Note_on_c, 0, 76, 0
2, 389845, Note_on_c, 0, 64, 0
2, 389863, Note_on_c, 0, 74, 0
2, 389880, Note_on_c, 0, 73, 80
2, 389880, Note_on_c, 0, 59, 52
2, 390043, Note_on_c, 0, 59, 0
2, 390043, Note_on_c, 0, 73, 0
2, 390060, Note_on_c, 0, 71, 74
2, 390060, Note_on_c, 0, 61, 54
2, 390223, Note_on_c, 0, 61, 0
2, 390223, Note_on_c, 0, 71, 0
2, 390240, Note_on_c, 0, 74, 74
2, 390240, Note_on_c, 0, 74, 87
2, 390240, Note_on_c, 0, 62, 55
2, 390403, Note_on_c, 0, 74, 0
2, 390420, Note_on_c, 0, 79, 92
2, 390565, Note_on_c, 0, 74, 0
2, 390565, Note_on_c, 0, 62, 0
2, 390583, Note_on_c, 0, 79, 0
2, 390600, Note_on_c, 0, 83, 93
2, 390600, Note_on_c, 0, 59, 63
2, 390600, Note_on_c, 0, 62, 63
2, 390600, Note_on_c, 0, 67, 61
2, 390763, Note_on_c, 0, 83, 0
2, 390777, Note_on_c, 0, 62, 0
2, 390777, Note_on_c, 0, 59, 0
2, 390777, Note_on_c, 0, 67, 0
2, 390780, Note_on_c, 0, 86, 90
2, 390943, Note_on_c, 0, 86, 0
2, 390960, Note_on_c, 0, 91, 127
2, 390960, Note_on_c, 0, 95, 127
2, 391123, Note_on_c, 0, 91, 0
2, 391123, Note_on_c, 0, 95, 0
2, 391140, Note_on_c, 0, 90, 72
2, 391303, Note_on_c, 0, 90, 0
2, 391320, Note_on_c, 0, 88, 79
2, 391320, Note_on_c, 0, 71, 48
2, 391320, Note_on_c, 0, 79, 48
2, 391320, Note_on_c, 0, 83, 49
2, 391483, Note_on_c, 0, 88, 0
2, 391500, Note_on_c, 0, 85, 75
2, 391645, Note_on_c, 0, 79, 0
2, 391645, Note_on_c, 0, 71, 0
2, 391645, Note_on_c, 0, 83, 0
2, 391663, Note_on_c, 0, 85, 0
2, 391680, Note_on_c, 0, 90, 99
2, 391680, Note_on_c, 0, 93, 97
2, 391680, Note_on_c, 0, 69, 48
2, 391680, Note_on_c, 0, 78, 49
2, 391680, Note_on_c, 0, 81, 50
2, 391843, Note_on_c, 0, 93, 0
2, 391843, Note_on_c, 0, 90, 0
2, 391860, Note_on_c, 0, 88, 73
2, 392005, Note_on_c, 0, 69, 0
2, 392005, Note_on_c, 0, 81, 0
2, 392005, Note_on_c, 0, 78, 0
2, 392023, Note_on_c, 0, 88, 0
2, 392040, Note_on_c, 0, 86, 77
2, 392203, Note_on_c, 0, 86, 0
2, 392220, Note_on_c, 0, 85, 76
2, 392383, Note_on_c, 0, 85, 0
2, 392400, Note_on_c, 0, 88, 124
2, 392400, Note_on_c, 0, 91, 124
2, 392400, Note_on_c, 0, 67, 48
2, 392400, Note_on_c, 0, 73, 46
2, 392400, Note_on_c, 0, 76, 49
2, 392400, Note_on_c, 0, 79, 48
2, 392563, Note_on_c, 0, 88, 0
2, 392563, Note_on_c, 0, 91, 0
2, 392580, Note_on_c, 0, 85, 69
2, 392725, Note_on_c, 0, 76, 0
2, 392725, Note_on_c, 0, 79, 0
2, 392725, Note_on_c, 0, 67, 0
2, 392725, Note_on_c, 0, 73, 0
2, 392743, Note_on_c, 0, 85, 0
2, 392760, Note_on_c, 0, 83, 76
2, 392760, Note_on_c, 0, 67, 49
2, 392760, Note_on_c, 0, 73, 50
2, 392760, Note_on_c, 0, 76, 49
2, 392923, Note_on_c, 0, 83, 0
2, 392940, Note_on_c, 0, 81, 76
2, 393085, Note_on_c, 0, 73, 0
2, 393085, Note_on_c, 0, 67, 0
2, 393085, Note_on_c, 0, 76, 0
2, 393103, Note_on_c, 0, 81, 0
2, 393120, Note_on_c, 0, 86, 127
2, 393120, Note_on_c, 0, 90, 127
2, 393283, Note_on_c, 0, 90, 0
2, 393283, Note_on_c, 0, 86, 0
2, 393300, Note_on_c, 0, 83, 70
2, 393463, Note_on_c, 0, 83, 0
2, 393480, Note_on_c, 0, 81, 77
2, 393480, Note_on_c, 0, 66, 48
2, 393480, Note_on_c, 0, 74, 50
2, 393480, Note_on_c, 0, 78, 50
2, 393643, Note_on_c, 0, 81, 0
2, 393657, Note_on_c, 0, 74, 0
2, 393657, Note_on_c, 0, 66, 0
2, 393657, Note_on_c, 0, 78, 0
2, 393660, Note_on_c, 0, 79, 74
2, 393823, Note_on_c, 0, 79, 0
2, 393840, Note_on_c, 0, 85, 127
2, 393840, Note_on_c, 0, 88, 127
2, 393840, Note_on_c, 0, 64, 49
2, 393840, Note_on_c, 0, 73, 48
2, 393840, Note_on_c, 0, 76, 49
2, 394003, Note_on_c, 0, 88, 0
2, 394003, Note_on_c, 0, 85, 0
2, 394017, Note_on_c, 0, 64, 0
2, 394017, Note_on_c, 0, 76, 0
2, 394017, Note_on_c, 0, 73, 0
2, 394020, Note_on_c, 0, 83, 75
2, 394183, Note_on_c, 0, 83, 0
2, 394200, Note_on_c, 0, 81, 77
2, 394363, Note_on_c, 0, 81, 0
2, 394380, Note_on_c, 0, 79, 75
2, 394543, Note_on_c, 0, 79, 0
2, 394560, Note_on_c, 0, 83, 126
2, 394560, Note_on_c, 0, 86, 127
2, 394560, Note_on_c, 0, 62, 50
2, 394560, Note_on_c, 0, 67, 47
2, 394560, Note_on_c, 0, 71, 50
2, 394560, Note_on_c, 0, 74, 48
2, 394723, Note_on_c, 0, 86, 0
2, 394723, Note_on_c, 0, 83, 0
2, 394737, Note_on_c, 0, 71, 0
2, 394737, Note_on_c, 0, 62, 0
2, 394737, Note_on_c, 0, 74, 0
2, 394737, Note_on_c, 0, 67, 0
2, 394740, Note_on_c, 0, 79, 70
2, 394903, Note_on_c, 0, 79, 0
2, 394920, Note_on_c, 0, 78, 78
2, 394920, Note_on_c, 0, 62, 48
2, 394920, Note_on_c, 0, 67, 46
2, 394920, Note_on_c, 0, 71, 46
2, 395083, Note_on_c, 0, 78, 0
2, 395097, Note_on_c, 0, 67, 0
2, 395097, Note_on_c, 0, 62, 0
2, 395097, Note_on_c, 0, 71, 0
2, 395100, Note_on_c, 0, 76, 75
2, 395263, Note_on_c, 0, 76, 0
2, 395280, Note_on_c, 0, 83, 107
2, 395280, Note_on_c, 0, 86, 110
2, 395460, Note_on_c, 0, 86, 0
2, 395460, Note_on_c, 0, 83, 0
2, 395460, Note_on_c, 0, 79, 71
2, 395623, Note_on_c, 0, 79, 0
2, 395640, Note_on_c, 0, 78, 77
2, 395640, Note_on_c, 0, 60, 46
2, 395640, Note_on_c, 0, 66, 49
2, 395640, Note_on_c, 0, 69, 50
2, 395803, Note_on_c, 0, 78, 0
2, 395817, Note_on_c, 0, 66, 0
2, 395817, Note_on_c, 0, 60, 0
2, 395817, Note_on_c, 0, 69, 0
2, 395820, Note_on_c, 0, 76, 73
2, 395983, Note_on_c, 0, 76, 0
2, 396000, Note_on_c, 0, 81, 103
2, 396000, Note_on_c, 0, 84, 105
2, 396000, Note_on_c, 0, 60, 48
2, 396000, Note_on_c, 0, 64, 47
2, 396000, Note_on_c, 0, 67, 50
2, 396177, Note_on_c, 0, 67, 0
2, 396177, Note_on_c, 0, 64, 0
2, 396177, Note_on_c, 0, 60, 0
2, 396180, Note_on_c, 0, 81, 0
2, 396180, Note_on_c, 0, 84, 0
2, 396180, Note_on_c, 0, 79, 73
2, 396343, Note_on_c, 0, 79, 0
2, 396360, Note_on_c, 0, 78, 79
2, 396523, Note_on_c, 0, 78, 0
2, 396540, Note_on_c, 0, 76, 74
2, 396703, Note_on_c, 0, 76, 0
2, 396720, Note_on_c, 0, 79, 103
2, 396720, Note_on_c, 0, 83, 106
2, 396720, Note_on_c, 0, 55, 50
2, 396720, Note_on_c, 0, 60, 48
2, 396720, Note_on_c, 0, 64, 48
2, 396897, Note_on_c, 0, 64, 0
2, 396897, Note_on_c, 0, 60, 0
2, 396897, Note_on_c, 0, 55, 0
2, 396900, Note_on_c, 0, 79, 0
2, 396900, Note_on_c, 0, 83, 0
2, 396900, Note_on_c, 0, 76, 71
2, 397063, Note_on_c, 0, 76, 0
2, 397080, Note_on_c, 0, 74, 76
2, 397080, Note_on_c, 0, 55, 53
2, 397080, Note_on_c, 0, 57, 54
2, 397080, Note_on_c, 0, 64, 53
2, 397243, Note_on_c, 0, 74, 0
2, 397257, Note_on_c, 0, 57, 0
2, 397257, Note_on_c, 0, 55, 0
2, 397257, Note_on_c, 0, 64, 0
2, 397260, Note_on_c, 0, 72, 73
2, 397423, Note_on_c, 0, 72, 0
2, 397440, Note_on_c, 0, 71, 79
2, 397603, Note_on_c, 0, 71, 0
2, 397620, Note_on_c, 0, 72, 81
2, 397783, Note_on_c, 0, 72, 0
2, 397800, Note_on_c, 0, 76, 92
2, 397800, Note_on_c, 0, 57, 49
2, 397800, Note_on_c, 0, 60, 48
2, 397963, Note_on_c, 0, 76, 0
2, 397977, Note_on_c, 0, 57, 0
2, 397977, Note_on_c, 0, 60, 0
2, 397980, Note_on_c, 0, 78, 87
2, 398143, Note_on_c, 0, 78, 0
2, 398160, Note_on_c, 0, 79, 73
2, 398160, Note_on_c, 0, 79, 80
2, 398160, Note_on_c, 0, 57, 57
2, 398160, Note_on_c, 0, 60, 56
2, 398160, Note_on_c, 0, 64, 58
2, 398323, Note_on_c, 0, 79, 0
2, 398337, Note_on_c, 0, 64, 0
2, 398337, Note_on_c, 0, 57, 0
2, 398337, Note_on_c, 0, 60, 0
2, 398340, Note_on_c, 0, 76, 70
2, 398485, Note_on_c, 0, 79, 0
2, 398503, Note_on_c, 0, 76, 0
2, 398520, Note_on_c, 0, 74, 77
2, 398683, Note_on_c, 0, 74, 0
2, 398700, Note_on_c, 0, 72, 76
2, 398863, Note_on_c, 0, 72, 0
2, 398880, Note_on_c, 0, 78, 83
2, 398880, Note_on_c, 0, 78, 96
2, 398880, Note_on_c, 0, 57, 49
2, 398880, Note_on_c, 0, 60, 47
2, 398880, Note_on_c, 0, 66, 48
2, 399043, Note_on_c, 0, 78, 0
2, 399057, Note_on_c, 0, 66, 0
2, 399057, Note_on_c, 0, 57, 0
2, 399057, Note_on_c, 0, 60, 0
2, 399060, Note_on_c, 0, 74, 72
2, 399205, Note_on_c, 0, 78, 0
2, 399223, Note_on_c, 0, 74, 0
2, 399240, Note_on_c, 0, 72, 79
2, 399240, Note_on_c, 0, 57, 49
2, 399240, Note_on_c, 0, 60, 46
2, 399240, Note_on_c, 0, 62, 48
2, 399403, Note_on_c, 0, 72, 0
2, 399417, Note_on_c, 0, 60, 0
2, 399417, Note_on_c, 0, 57, 0
2, 399417, Note_on_c, 0, 62, 0
2, 399420, Note_on_c, 0, 69, 73
2, 399583, Note_on_c, 0, 69, 0
2, 399600, Note_on_c, 0, 71, 88
2, 399600, Note_on_c, 0, 79, 86
2, 399600, Note_on_c, 0, 55, 63
2, 399600, Note_on_c, 0, 59, 62
2, 399600, Note_on_c, 0, 62, 59
2, 399600, Note_on_c, 0, 67, 60
2, 399777, Note_on_c, 0, 67, 0
2, 399777, Note_on_c, 0, 62, 0
2, 399777, Note_on_c, 0, 59, 0
2, 399777, Note_on_c, 0, 55, 0
2, 399925, Note_on_c, 0, 71, 0
2, 399925, Note_on_c, 0, 79, 0
2, 399960, Note_on_c, 0, 67, 62
2, 400123, Note_on_c, 0, 67, 0
2, 400140, Note_on_c, 0, 66, 71
2, 400303, Note_on_c, 0, 66, 0
2, 400320, Note_on_c, 0, 67, 85
2, 400483, Note_on_c, 0, 67, 0
2, 400500, Note_on_c, 0, 66, 77
2, 400663, Note_on_c, 0, 66, 0
2, 400680, Note_on_c, 0, 67, 86
2, 400843, Note_on_c, 0, 67, 0
2, 400860, Note_on_c, 0, 66, 75
2, 401023, Note_on_c, 0, 66, 0
2, 401040, Note_on_c, 0, 67, 87
2, 401203, Note_on_c, 0, 67, 0
2, 401220, Note_on_c, 0, 66, 76
2, 401383, Note_on_c, 0, 66, 0
2, 401400, Note_on_c, 0, 67, 86
2, 401563, Note_on_c, 0, 67, 0
2, 401580, Note_on_c, 0, 66, 75
2, 401743, Note_on_c, 0, 66, 0
2, 401760, Note_on_c, 0, 67, 88
2, 401923, Note_on_c, 0, 67, 0
2, 401940, Note_on_c, 0, 66, 78
2, 402103, Note_on_c, 0, 66, 0
2, 402120, Note_on_c, 0, 67, 88
2, 402283, Note_on_c, 0, 67, 0
2, 402300, Note_on_c, 0, 66, 77
2, 402463, Note_on_c, 0, 66, 0
2, 402480, Note_on_c, 0, 67, 86
2, 402643, Note_on_c, 0, 67, 0
2, 402660, Note_on_c, 0, 66, 77
2, 402823, Note_on_c, 0, 66, 0
2, 402840, Note_on_c, 0, 67, 87
2, 403003, Note_on_c, 0, 67, 0
2, 403020, Note_on_c, 0, 66, 75
2, 403183, Note_on_c, 0, 66, 0
2, 403200, Note_on_c, 0, 67, 85
2, 403363, Note_on_c, 0, 67, 0
2, 403380, Note_on_c, 0, 66, 76
2, 403543, Note_on_c, 0, 66, 0
2, 403560, Note_on_c, 0, 67, 84
2, 403723, Note_on_c, 0, 67, 0
2, 403740, Note_on_c, 0, 66, 75
2, 403903, Note_on_c, 0, 66, 0
2, 403920, Note_on_c, 0, 67, 87
2, 403920, Note_on_c, 0, 74, 51
2, 403920, Note_on_c, 0, 79, 50
2, 403920, Note_on_c, 0, 83, 51
2, 404245, Note_on_c, 0, 67, 0
2, 404280, Note_on_c, 0, 55, 63
2, 404443, Note_on_c, 0, 55, 0
2, 404460, Note_on_c, 0, 54, 74
2, 404623, Note_on_c, 0, 54, 0
2, 404640, Note_on_c, 0, 55, 86
2, 404803, Note_on_c, 0, 55, 0
2, 404820, Note_on_c, 0, 54, 79
2, 404983, Note_on_c, 0, 54, 0
2, 405000, Note_on_c, 0, 55, 86
2, 405163, Note_on_c, 0, 55, 0
2, 405180, Note_on_c, 0, 54, 75
2, 405343, Note_on_c, 0, 54, 0
2, 405360, Note_on_c, 0, 55, 88
2, 405523, Note_on_c, 0, 55, 0
2, 405540, Note_on_c, 0, 54, 78
2, 405703, Note_on_c, 0, 54, 0
2, 405720, Note_on_c, 0, 55, 86
2, 405883, Note_on_c, 0, 55, 0
2, 405900, Note_on_c, 0, 54, 75
2, 406063, Note_on_c, 0, 54, 0
2, 406080, Note_on_c, 0, 55, 87
2, 406243, Note_on_c, 0, 55, 0
2, 406260, Note_on_c, 0, 54, 78
2, 406423, Note_on_c, 0, 54, 0
2, 406440, Note_on_c, 0, 55, 86
2, 406603, Note_on_c, 0, 55, 0
2, 406620, Note_on_c, 0, 54, 76
2, 406783, Note_on_c, 0, 54, 0
2, 406800, Note_on_c, 0, 55, 85
2, 406963, Note_on_c, 0, 55, 0
2, 406980, Note_on_c, 0, 54, 78
2, 407143, Note_on_c, 0, 54, 0
2, 407160, Note_on_c, 0, 55, 88
2, 407323, Note_on_c, 0, 55, 0
2, 407340, Note_on_c, 0, 54, 76
2, 407503, Note_on_c, 0, 54, 0
2, 407520, Note_on_c, 0, 55, 85
2, 407683, Note_on_c, 0, 55, 0
2, 407700, Note_on_c, 0, 54, 78
2, 407863, Note_on_c, 0, 54, 0
2, 407880, Note_on_c, 0, 55, 85
2, 408057, Note_on_c, 0, 55, 0
2, 408205, Note_on_c, 0, 83, 0
2, 408205, Note_on_c, 0, 74, 0
2, 408205, Note_on_c, 0, 79, 0
2, 408240, Note_on_c, 0, 63, 96
2, 408240, Note_on_c, 0, 51, 42
2, 408890, Note_on_c, 0, 51, 0
2, 408890, Note_on_c, 0, 63, 0
2, 408960, Note_on_c, 0, 62, 81
2, 408960, Note_on_c, 0, 50, 46
2, 409645, Note_on_c, 0, 50, 0
2, 409645, Note_on_c, 0, 62, 0
2, 409680, Note_on_c, 0, 63, 85
2, 409680, Note_on_c, 0, 51, 56
2, 410330, Note_on_c, 0, 51, 0
2, 410330, Note_on_c, 0, 63, 0
2, 410400, Note_on_c, 0, 60, 79
2, 410400, Note_on_c, 0, 48, 51
2, 411805, Note_on_c, 0, 48, 0
2, 411805, Note_on_c, 0, 60, 0
2, 411840, Note_on_c, 0, 63, 87
2, 411840, Note_on_c, 0, 51, 55
2, 413210, Note_on_c, 0, 51, 0
2, 413210, Note_on_c, 0, 63, 0
2, 413280, Note_on_c, 0, 62, 75
2, 413280, Note_on_c, 0, 50, 49
2, 413965, Note_on_c, 0, 50, 0
2, 413965, Note_on_c, 0, 62, 0
2, 414000, Note_on_c, 0, 63, 82
2, 414000, Note_on_c, 0, 51, 53
2, 414650, Note_on_c, 0, 51, 0
2, 414650, Note_on_c, 0, 63, 0
2, 414720, Note_on_c, 0, 59, 76
2, 414720, Note_on_c, 0, 47, 52
2, 416125, Note_on_c, 0, 47, 0
2, 416125, Note_on_c, 0, 59, 0
2, 416160, Note_on_c, 0, 63, 88
2, 416160, Note_on_c, 0, 51, 59
2, 417530, Note_on_c, 0, 51, 0
2, 417530, Note_on_c, 0, 63, 0
2, 417600, Note_on_c, 0, 58, 71
2, 417600, Note_on_c, 0, 46, 47
2, 418285, Note_on_c, 0, 46, 0
2, 418285, Note_on_c, 0, 58, 0
2, 418320, Note_on_c, 0, 63, 91
2, 418320, Note_on_c, 0, 51, 58
2, 418970, Note_on_c, 0, 51, 0
2, 418970, Note_on_c, 0, 63, 0
2, 419040, Note_on_c, 0, 65, 92
2, 419040, Note_on_c, 0, 53, 60
2, 419690, Note_on_c, 0, 53, 0
2, 419690, Note_on_c, 0, 65, 0
2, 419760, Note_on_c, 0, 67, 84
2, 419760, Note_on_c, 0, 55, 55
2, 420445, Note_on_c, 0, 55, 0
2, 420445, Note_on_c, 0, 67, 0
2, 420480, Note_on_c, 0, 70, 86
2, 420480, Note_on_c, 0, 58, 58
2, 421130, Note_on_c, 0, 58, 0
2, 421130, Note_on_c, 0, 70, 0
2, 421200, Note_on_c, 0, 72, 87
2, 421200, Note_on_c, 0, 60, 60
2, 422605, Note_on_c, 0, 60, 0
2, 422605, Note_on_c, 0, 72, 0
2, 422640, Note_on_c, 0, 70, 76
2, 422640, Note_on_c, 0, 58, 51
2, 423290, Note_on_c, 0, 58, 0
2, 423290, Note_on_c, 0, 70, 0
2, 423360, Note_on_c, 0, 67, 74
2, 423360, Note_on_c, 0, 55, 50
2, 424010, Note_on_c, 0, 55, 0
2, 424010, Note_on_c, 0, 67, 0
2, 424080, Note_on_c, 0, 68, 82
2, 424080, Note_on_c, 0, 56, 55
2, 424765, Note_on_c, 0, 56, 0
2, 424765, Note_on_c, 0, 68, 0
2, 424800, Note_on_c, 0, 67, 75
2, 424800, Note_on_c, 0, 55, 52
2, 425450, Note_on_c, 0, 55, 0
2, 425450, Note_on_c, 0, 67, 0
2, 425520, Note_on_c, 0, 63, 75
2, 425520, Note_on_c, 0, 51, 48
2, 426170, Note_on_c, 0, 51, 0
2, 426170, Note_on_c, 0, 63, 0
2, 426240, Note_on_c, 0, 62, 78
2, 426240, Note_on_c, 0, 50, 51
2, 426925, Note_on_c, 0, 50, 0
2, 426925, Note_on_c, 0, 62, 0
2, 426960, Note_on_c, 0, 61, 75
2, 426960, Note_on_c, 0, 49, 51
2, 427610, Note_on_c, 0, 49, 0
2, 427610, Note_on_c, 0, 61, 0
2, 427680, Note_on_c, 0, 60, 80
2, 427680, Note_on_c, 0, 48, 53
2, 428330, Note_on_c, 0, 48, 0
2, 428330, Note_on_c, 0, 60, 0
2, 428400, Note_on_c, 0, 51, 64
2, 428400, Note_on_c, 0, 63, 66
2, 429120, Note_on_c, 0, 75, 72
2, 429120, Note_on_c, 0, 79, 71
2, 429297, Note_on_c, 0, 79, 0
2, 429297, Note_on_c, 0, 75, 0
2, 429660, Note_on_c, 0, 75, 73
2, 429660, Note_on_c, 0, 79, 72
2, 429749, Note_on_c, 0, 79, 0
2, 429749, Note_on_c, 0, 75, 0
2, 429840, Note_on_c, 0, 75, 81
2, 429840, Note_on_c, 0, 79, 81
2, 430017, Note_on_c, 0, 79, 0
2, 430017, Note_on_c, 0, 75, 0
2, 430490, Note_on_c, 0, 51, 0
2, 430490, Note_on_c, 0, 63, 0
2, 430560, Note_on_c, 0, 62, 73
2, 430560, Note_on_c, 0, 50, 38
2, 431245, Note_on_c, 0, 50, 0
2, 431245, Note_on_c, 0, 62, 0
2, 431280, Note_on_c, 0, 61, 78
2, 431280, Note_on_c, 0, 49, 52
2, 431930, Note_on_c, 0, 49, 0
2, 431930, Note_on_c, 0, 61, 0
2, 432000, Note_on_c, 0, 59, 76
2, 432000, Note_on_c, 0, 47, 52
2, 432650, Note_on_c, 0, 47, 0
2, 432650, Note_on_c, 0, 59, 0
2, 432720, Note_on_c, 0, 51, 66
2, 432720, Note_on_c, 0, 63, 64
2, 433440, Note_on_c, 0, 75, 74
2, 433440, Note_on_c, 0, 79, 72
2, 433617, Note_on_c, 0, 79, 0
2, 433617, Note_on_c, 0, 75, 0
2, 433980, Note_on_c, 0, 75, 72
2, 433980, Note_on_c, 0, 79, 71
2, 434069, Note_on_c, 0, 79, 0
2, 434069, Note_on_c, 0, 75, 0
2, 434160, Note_on_c, 0, 75, 81
2, 434160, Note_on_c, 0, 79, 82
2, 434337, Note_on_c, 0, 79, 0
2, 434337, Note_on_c, 0, 75, 0
2, 434810, Note_on_c, 0, 51, 0
2, 434810, Note_on_c, 0, 63, 0
2, 434880, Note_on_c, 0, 58, 72
2, 434880, Note_on_c, 0, 46, 39
2, 435565, Note_on_c, 0, 46, 0
2, 435565, Note_on_c, 0, 58, 0
2, 435600, Note_on_c, 0, 63, 90
2, 435600, Note_on_c, 0, 51, 60
2, 436250, Note_on_c, 0, 51, 0
2, 436250, Note_on_c, 0, 63, 0
2, 436320, Note_on_c, 0, 65, 88
2, 436320, Note_on_c, 0, 53, 61
2, 436970, Note_on_c, 0, 53, 0
2, 436970, Note_on_c, 0, 65, 0
2, 437040, Note_on_c, 0, 67, 87
2, 437040, Note_on_c, 0, 55, 57
2, 437725, Note_on_c, 0, 55, 0
2, 437725, Note_on_c, 0, 67, 0
2, 437760, Note_on_c, 0, 70, 87
2, 437760, Note_on_c, 0, 58, 57
2, 438410, Note_on_c, 0, 58, 0
2, 438410, Note_on_c, 0, 70, 0
2, 438480, Note_on_c, 0, 72, 89
2, 438480, Note_on_c, 0, 60, 57
2, 439885, Note_on_c, 0, 60, 0
2, 439885, Note_on_c, 0, 72, 0
2, 439920, Note_on_c, 0, 70, 78
2, 439920, Note_on_c, 0, 58, 49
2, 440570, Note_on_c, 0, 58, 0
2, 440570, Note_on_c, 0, 70, 0
2, 440640, Note_on_c, 0, 72, 90
2, 440640, Note_on_c, 0, 60, 57
2, 441290, Note_on_c, 0, 60, 0
2, 441290, Note_on_c, 0, 72, 0
2, 441360, Note_on_c, 0, 74, 86
2, 441360, Note_on_c, 0, 62, 55
2, 442045, Note_on_c, 0, 62, 0
2, 442045, Note_on_c, 0, 74, 0
2, 442080, Note_on_c, 0, 77, 87
2, 442080, Note_on_c, 0, 65, 59
2, 442730, Note_on_c, 0, 65, 0
2, 442730, Note_on_c, 0, 77, 0
2, 442800, Note_on_c, 0, 79, 91
2, 442800, Note_on_c, 0, 67, 60
2, 443450, Note_on_c, 0, 67, 0
2, 443450, Note_on_c, 0, 79, 0
2, 443520, Note_on_c, 0, 78, 79
2, 443520, Note_on_c, 0, 66, 53
2, 444205, Note_on_c, 0, 66, 0
2, 444205, Note_on_c, 0, 78, 0
2, 444240, Note_on_c, 0, 77, 79
2, 444240, Note_on_c, 0, 65, 52
2, 444890, Note_on_c, 0, 65, 0
2, 444890, Note_on_c, 0, 77, 0
2, 444960, Note_on_c, 0, 75, 76
2, 444960, Note_on_c, 0, 63, 52
2, 447770, Note_on_c, 0, 63, 0
2, 447770, Note_on_c, 0, 75, 0
2, 447840, Note_on_c, 0, 70, 71
2, 447840, Note_on_c, 0, 58, 48
2, 448525, Note_on_c, 0, 58, 0
2, 448525, Note_on_c, 0, 70, 0
2, 448560, Note_on_c, 0, 71, 84
2, 448560, Note_on_c, 0, 59, 54
2, 449210, Note_on_c, 0, 59, 0
2, 449210, Note_on_c, 0, 71, 0
2, 449280, Note_on_c, 0, 72, 88
2, 449280, Note_on_c, 0, 60, 57
2, 452090, Note_on_c, 0, 60, 0
2, 452090, Note_on_c, 0, 72, 0
2, 452160, Note_on_c, 0, 67, 71
2, 452160, Note_on_c, 0, 55, 47
2, 452845, Note_on_c, 0, 55, 0
2, 452845, Note_on_c, 0, 67, 0
2, 452880, Note_on_c, 0, 68, 85
2, 452880, Note_on_c, 0, 56, 55
2, 453530, Note_on_c, 0, 56, 0
2, 453530, Note_on_c, 0, 68, 0
2, 453600, Note_on_c, 0, 70, 91
2, 453600, Note_on_c, 0, 58, 59
2, 454250, Note_on_c, 0, 58, 0
2, 454250, Note_on_c, 0, 70, 0
2, 454320, Note_on_c, 0, 71, 83
2, 454320, Note_on_c, 0, 59, 57
2, 455005, Note_on_c, 0, 59, 0
2, 455005, Note_on_c, 0, 71, 0
2, 455040, Note_on_c, 0, 75, 91
2, 455040, Note_on_c, 0, 63, 59
2, 455690, Note_on_c, 0, 63, 0
2, 455690, Note_on_c, 0, 75, 0
2, 455760, Note_on_c, 0, 70, 75
2, 455760, Note_on_c, 0, 58, 49
2, 457165, Note_on_c, 0, 58, 0
2, 457165, Note_on_c, 0, 70, 0
2, 457200, Note_on_c, 0, 68, 75
2, 457200, Note_on_c, 0, 56, 49
2, 457850, Note_on_c, 0, 56, 0
2, 457850, Note_on_c, 0, 68, 0
2, 457920, Note_on_c, 0, 68, 84
2, 457920, Note_on_c, 0, 56, 57
2, 458570, Note_on_c, 0, 56, 0
2, 458570, Note_on_c, 0, 68, 0
2, 458640, Note_on_c, 0, 67, 76
2, 458640, Note_on_c, 0, 55, 50
2, 459325, Note_on_c, 0, 55, 0
2, 459325, Note_on_c, 0, 67, 0
2, 459360, Note_on_c, 0, 56, 82
2, 459360, Note_on_c, 0, 68, 84
2, 460010, Note_on_c, 0, 68, 0
2, 460010, Note_on_c, 0, 56, 0
2, 460080, Note_on_c, 0, 55, 82
2, 460080, Note_on_c, 0, 67, 80
2, 460080, Note_on_c, 0, 27, 52
2, 460080, Note_on_c, 0, 39, 52
2, 460257, Note_on_c, 0, 39, 0
2, 460257, Note_on_c, 0, 27, 0
2, 460440, Note_on_c, 0, 46, 61
2, 460617, Note_on_c, 0, 46, 0
2, 460800, Note_on_c, 0, 55, 65
2, 460977, Note_on_c, 0, 55, 0
2, 461090, Note_on_c, 0, 67, 0
2, 461090, Note_on_c, 0, 55, 0
2, 461160, Note_on_c, 0, 58, 62
2, 461337, Note_on_c, 0, 58, 0
2, 461520, Note_on_c, 0, 79, 76
2, 461520, Note_on_c, 0, 55, 50
2, 461683, Note_on_c, 0, 79, 0
2, 461697, Note_on_c, 0, 55, 0
2, 461700, Note_on_c, 0, 77, 73
2, 461863, Note_on_c, 0, 77, 0
2, 461880, Note_on_c, 0, 75, 77
2, 461880, Note_on_c, 0, 46, 41
2, 462043, Note_on_c, 0, 75, 0
2, 462057, Note_on_c, 0, 46, 0
2, 462060, Note_on_c, 0, 77, 84
2, 462223, Note_on_c, 0, 77, 0
2, 462240, Note_on_c, 0, 75, 81
2, 462240, Note_on_c, 0, 39, 44
2, 462403, Note_on_c, 0, 75, 0
2, 462417, Note_on_c, 0, 39, 0
2, 462420, Note_on_c, 0, 72, 74
2, 462583, Note_on_c, 0, 72, 0
2, 462600, Note_on_c, 0, 68, 74
2, 462600, Note_on_c, 0, 48, 61
2, 462763, Note_on_c, 0, 68, 0
2, 462777, Note_on_c, 0, 48, 0
2, 462780, Note_on_c, 0, 67, 76
2, 462943, Note_on_c, 0, 67, 0
2, 462960, Note_on_c, 0, 63, 75
2, 462960, Note_on_c, 0, 55, 64
2, 463123, Note_on_c, 0, 63, 0
2, 463137, Note_on_c, 0, 55, 0
2, 463140, Note_on_c, 0, 62, 76
2, 463303, Note_on_c, 0, 62, 0
2, 463320, Note_on_c, 0, 60, 66
2, 463497, Note_on_c, 0, 60, 0
2, 463500, Note_on_c, 0, 63, 73
2, 463663, Note_on_c, 0, 63, 0
2, 463680, Note_on_c, 0, 67, 92
2, 463680, Note_on_c, 0, 55, 49
2, 463843, Note_on_c, 0, 67, 0
2, 463857, Note_on_c, 0, 55, 0
2, 463860, Note_on_c, 0, 72, 92
2, 464023, Note_on_c, 0, 72, 0
2, 464040, Note_on_c, 0, 75, 91
2, 464040, Note_on_c, 0, 48, 43
2, 464203, Note_on_c, 0, 75, 0
2, 464217, Note_on_c, 0, 48, 0
2, 464220, Note_on_c, 0, 79, 90
2, 464383, Note_on_c, 0, 79, 0
2, 464400, Note_on_c, 0, 75, 76
2, 464400, Note_on_c, 0, 27, 42
2, 464400, Note_on_c, 0, 39, 44
2, 464577, Note_on_c, 0, 39, 0
2, 464577, Note_on_c, 0, 27, 0
2, 464725, Note_on_c, 0, 75, 0
2, 464760, Note_on_c, 0, 46, 58
2, 464937, Note_on_c, 0, 46, 0
2, 465120, Note_on_c, 0, 55, 63
2, 465297, Note_on_c, 0, 55, 0
2, 465480, Note_on_c, 0, 58, 62
2, 465657, Note_on_c, 0, 58, 0
2, 465840, Note_on_c, 0, 79, 76
2, 465840, Note_on_c, 0, 55, 49
2, 466003, Note_on_c, 0, 79, 0
2, 466017, Note_on_c, 0, 55, 0
2, 466020, Note_on_c, 0, 77, 75
2, 466183, Note_on_c, 0, 77, 0
2, 466200, Note_on_c, 0, 75, 80
2, 466200, Note_on_c, 0, 46, 40
2, 466363, Note_on_c, 0, 75, 0
2, 466377, Note_on_c, 0, 46, 0
2, 466380, Note_on_c, 0, 77, 85
2, 466543, Note_on_c, 0, 77, 0
2, 466560, Note_on_c, 0, 75, 79
2, 466560, Note_on_c, 0, 39, 43
2, 466723, Note_on_c, 0, 75, 0
2, 466737, Note_on_c, 0, 39, 0
2, 466740, Note_on_c, 0, 71, 74
2, 466903, Note_on_c, 0, 71, 0
2, 466920, Note_on_c, 0, 68, 77
2, 466920, Note_on_c, 0, 47, 59
2, 467083, Note_on_c, 0, 68, 0
2, 467097, Note_on_c, 0, 47, 0
2, 467100, Note_on_c, 0, 67, 75
2, 467263, Note_on_c, 0, 67, 0
2, 467280, Note_on_c, 0, 63, 74
2, 467280, Note_on_c, 0, 55, 64
2, 467443, Note_on_c, 0, 63, 0
2, 467457, Note_on_c, 0, 55, 0
2, 467460, Note_on_c, 0, 62, 75
2, 467623, Note_on_c, 0, 62, 0
2, 467640, Note_on_c, 0, 59, 63
2, 467817, Note_on_c, 0, 59, 0
2, 467820, Note_on_c, 0, 63, 75
2, 467983, Note_on_c, 0, 63, 0
2, 468000, Note_on_c, 0, 67, 90
2, 468000, Note_on_c, 0, 55, 47
2, 468163, Note_on_c, 0, 67, 0
2, 468177, Note_on_c, 0, 55, 0
2, 468180, Note_on_c, 0, 71, 89
2, 468343, Note_on_c, 0, 71, 0
2, 468360, Note_on_c, 0, 75, 94
2, 468360, Note_on_c, 0, 47, 43
2, 468523, Note_on_c, 0, 75, 0
2, 468537, Note_on_c, 0, 47, 0
2, 468540, Note_on_c, 0, 79, 90
2, 468703, Note_on_c, 0, 79, 0
2, 468720, Note_on_c, 0, 75, 77
2, 468720, Note_on_c, 0, 27, 44
2, 468720, Note_on_c, 0, 39, 42
2, 468897, Note_on_c, 0, 39, 0
2, 468897, Note_on_c, 0, 27, 0
2, 469045, Note_on_c, 0, 75, 0
2, 469080, Note_on_c, 0, 67, 66
2, 469080, Note_on_c, 0, 46, 59
2, 469243, Note_on_c, 0, 67, 0
2, 469257, Note_on_c, 0, 46, 0
2, 469260, Note_on_c, 0, 65, 72
2, 469423, Note_on_c, 0, 65, 0
2, 469440, Note_on_c, 0, 63, 78
2, 469440, Note_on_c, 0, 55, 64
2, 469603, Note_on_c, 0, 63, 0
2, 469617, Note_on_c, 0, 55, 0
2, 469620, Note_on_c, 0, 62, 77
2, 469783, Note_on_c, 0, 62, 0
2, 469800, Note_on_c, 0, 63, 87
2, 469800, Note_on_c, 0, 58, 61
2, 469963, Note_on_c, 0, 63, 0
2, 469977, Note_on_c, 0, 58, 0
2, 469980, Note_on_c, 0, 67, 87
2, 470143, Note_on_c, 0, 67, 0
2, 470160, Note_on_c, 0, 70, 92
2, 470160, Note_on_c, 0, 55, 51
2, 470323, Note_on_c, 0, 70, 0
2, 470337, Note_on_c, 0, 55, 0
2, 470340, Note_on_c, 0, 68, 75
2, 470503, Note_on_c, 0, 68, 0
2, 470520, Note_on_c, 0, 67, 79
2, 470520, Note_on_c, 0, 46, 41
2, 470683, Note_on_c, 0, 67, 0
2, 470697, Note_on_c, 0, 46, 0
2, 470700, Note_on_c, 0, 65, 77
2, 470863, Note_on_c, 0, 65, 0
2, 470880, Note_on_c, 0, 65, 84
2, 470880, Note_on_c, 0, 31, 49
2, 470880, Note_on_c, 0, 43, 49
2, 471043, Note_on_c, 0, 65, 0
2, 471057, Note_on_c, 0, 31, 0
2, 471057, Note_on_c, 0, 43, 0
2, 471060, Note_on_c, 0, 63, 76
2, 471223, Note_on_c, 0, 63, 0
2, 471240, Note_on_c, 0, 62, 78
2, 471240, Note_on_c, 0, 51, 60
2, 471403, Note_on_c, 0, 62, 0
2, 471417, Note_on_c, 0, 51, 0
2, 471420, Note_on_c, 0, 63, 85
2, 471583, Note_on_c, 0, 63, 0
2, 471600, Note_on_c, 0, 67, 92
2, 471600, Note_on_c, 0, 58, 62
2, 471763, Note_on_c, 0, 67, 0
2, 471777, Note_on_c, 0, 58, 0
2, 471780, Note_on_c, 0, 63, 71
2, 471943, Note_on_c, 0, 63, 0
2, 471960, Note_on_c, 0, 67, 90
2, 471960, Note_on_c, 0, 63, 65
2, 472123, Note_on_c, 0, 67, 0
2, 472137, Note_on_c, 0, 63, 0
2, 472140, Note_on_c, 0, 70, 88
2, 472303, Note_on_c, 0, 70, 0
2, 472320, Note_on_c, 0, 75, 95
2, 472320, Note_on_c, 0, 58, 49
2, 472483, Note_on_c, 0, 75, 0
2, 472497, Note_on_c, 0, 58, 0
2, 472500, Note_on_c, 0, 74, 79
2, 472663, Note_on_c, 0, 74, 0
2, 472680, Note_on_c, 0, 72, 81
2, 472680, Note_on_c, 0, 51, 43
2, 472843, Note_on_c, 0, 72, 0
2, 472857, Note_on_c, 0, 51, 0
2, 472860, Note_on_c, 0, 70, 77
2, 473023, Note_on_c, 0, 70, 0
2, 473040, Note_on_c, 0, 72, 89
2, 473040, Note_on_c, 0, 29, 42
2, 473040, Note_on_c, 0, 41, 44
2, 473203, Note_on_c, 0, 72, 0
2, 473217, Note_on_c, 0, 29, 0
2, 473217, Note_on_c, 0, 41, 0
2, 473220, Note_on_c, 0, 70, 76
2, 473383, Note_on_c, 0, 70, 0
2, 473400, Note_on_c, 0, 68, 77
2, 473400, Note_on_c, 0, 51, 60
2, 473563, Note_on_c, 0, 68, 0
2, 473577, Note_on_c, 0, 51, 0
2, 473580, Note_on_c, 0, 67, 76
2, 473743, Note_on_c, 0, 67, 0
2, 473760, Note_on_c, 0, 68, 86
2, 473760, Note_on_c, 0, 60, 67
2, 473923, Note_on_c, 0, 68, 0
2, 473937, Note_on_c, 0, 60, 0
2, 473940, Note_on_c, 0, 70, 83
2, 474103, Note_on_c, 0, 70, 0
2, 474120, Note_on_c, 0, 72, 91
2, 474120, Note_on_c, 0, 63, 62
2, 474283, Note_on_c, 0, 72, 0
2, 474297, Note_on_c, 0, 63, 0
2, 474300, Note_on_c, 0, 70, 74
2, 474463, Note_on_c, 0, 70, 0
2, 474480, Note_on_c, 0, 72, 89
2, 474480, Note_on_c, 0, 60, 51
2, 474643, Note_on_c, 0, 72, 0
2, 474657, Note_on_c, 0, 60, 0
2, 474660, Note_on_c, 0, 75, 88
2, 474823, Note_on_c, 0, 75, 0
2, 474840, Note_on_c, 0, 79, 91
2, 474840, Note_on_c, 0, 51, 42
2, 475003, Note_on_c, 0, 79, 0
2, 475017, Note_on_c, 0, 51, 0
2, 475020, Note_on_c, 0, 80, 87
2, 475183, Note_on_c, 0, 80, 0
2, 475200, Note_on_c, 0, 79, 80
2, 475200, Note_on_c, 0, 34, 41
2, 475363, Note_on_c, 0, 79, 0
2, 475377, Note_on_c, 0, 34, 0
2, 475380, Note_on_c, 0, 74, 69
2, 475543, Note_on_c, 0, 74, 0
2, 475560, Note_on_c, 0, 72, 78
2, 475560, Note_on_c, 0, 46, 63
2, 475723, Note_on_c, 0, 72, 0
2, 475737, Note_on_c, 0, 46, 0
2, 475740, Note_on_c, 0, 75, 87
2, 475903, Note_on_c, 0, 75, 0
2, 475920, Note_on_c, 0, 74, 79
2, 475920, Note_on_c, 0, 56, 65
2, 476083, Note_on_c, 0, 74, 0
2, 476097, Note_on_c, 0, 56, 0
2, 476100, Note_on_c, 0, 72, 74
2, 476263, Note_on_c, 0, 72, 0
2, 476280, Note_on_c, 0, 70, 77
2, 476280, Note_on_c, 0, 62, 65
2, 476443, Note_on_c, 0, 70, 0
2, 476457, Note_on_c, 0, 62, 0
2, 476460, Note_on_c, 0, 72, 87
2, 476623, Note_on_c, 0, 72, 0
2, 476640, Note_on_c, 0, 70, 81
2, 476640, Note_on_c, 0, 56, 48
2, 476803, Note_on_c, 0, 70, 0
2, 476817, Note_on_c, 0, 56, 0
2, 476820, Note_on_c, 0, 72, 83
2, 476983, Note_on_c, 0, 72, 0
2, 477000, Note_on_c, 0, 70, 80
2, 477000, Note_on_c, 0, 46, 39
2, 477163, Note_on_c, 0, 70, 0
2, 477177, Note_on_c, 0, 46, 0
2, 477180, Note_on_c, 0, 68, 73
2, 477343, Note_on_c, 0, 68, 0
2, 477360, Note_on_c, 0, 67, 77
2, 477360, Note_on_c, 0, 27, 45
2, 477360, Note_on_c, 0, 39, 45
2, 477523, Note_on_c, 0, 67, 0
2, 477537, Note_on_c, 0, 27, 0
2, 477537, Note_on_c, 0, 39, 0
2, 477540, Note_on_c, 0, 65, 77
2, 477703, Note_on_c, 0, 65, 0
2, 477720, Note_on_c, 0, 63, 80
2, 477720, Note_on_c, 0, 46, 57
2, 477883, Note_on_c, 0, 63, 0
2, 477897, Note_on_c, 0, 46, 0
2, 477900, Note_on_c, 0, 65, 83
2, 478063, Note_on_c, 0, 65, 0
2, 478080, Note_on_c, 0, 67, 87
2, 478080, Note_on_c, 0, 55, 63
2, 478257, Note_on_c, 0, 55, 0
2, 478405, Note_on_c, 0, 67, 0
2, 478440, Note_on_c, 0, 58, 60
2, 478617, Note_on_c, 0, 58, 0
2, 478800, Note_on_c, 0, 79, 74
2, 478800, Note_on_c, 0, 55, 51
2, 478963, Note_on_c, 0, 79, 0
2, 478977, Note_on_c, 0, 55, 0
2, 478980, Note_on_c, 0, 77, 76
2, 479143, Note_on_c, 0, 77, 0
2, 479160, Note_on_c, 0, 75, 78
2, 479160, Note_on_c, 0, 46, 43
2, 479323, Note_on_c, 0, 75, 0
2, 479337, Note_on_c, 0, 46, 0
2, 479340, Note_on_c, 0, 77, 85
2, 479503, Note_on_c, 0, 77, 0
2, 479520, Note_on_c, 0, 75, 79
2, 479520, Note_on_c, 0, 39, 44
2, 479683, Note_on_c, 0, 75, 0
2, 479697, Note_on_c, 0, 39, 0
2, 479700, Note_on_c, 0, 72, 71
2, 479863, Note_on_c, 0, 72, 0
2, 479880, Note_on_c, 0, 68, 74
2, 479880, Note_on_c, 0, 48, 62
2, 480043, Note_on_c, 0, 68, 0
2, 480057, Note_on_c, 0, 48, 0
2, 480060, Note_on_c, 0, 67, 75
2, 480223, Note_on_c, 0, 67, 0
2, 480240, Note_on_c, 0, 63, 76
2, 480240, Note_on_c, 0, 55, 64
2, 480403, Note_on_c, 0, 63, 0
2, 480417, Note_on_c, 0, 55, 0
2, 480420, Note_on_c, 0, 62, 78
2, 480583, Note_on_c, 0, 62, 0
2, 480600, Note_on_c, 0, 60, 66
2, 480777, Note_on_c, 0, 60, 0
2, 480780, Note_on_c, 0, 63, 72
2, 480943, Note_on_c, 0, 63, 0
2, 480960, Note_on_c, 0, 67, 92
2, 480960, Note_on_c, 0, 55, 48
2, 481123, Note_on_c, 0, 67, 0
2, 481137, Note_on_c, 0, 55, 0
2, 481140, Note_on_c, 0, 72, 90
2, 481303, Note_on_c, 0, 72, 0
2, 481320, Note_on_c, 0, 75, 91
2, 481320, Note_on_c, 0, 48, 45
2, 481483, Note_on_c, 0, 75, 0
2, 481497, Note_on_c, 0, 48, 0
2, 481500, Note_on_c, 0, 79, 90
2, 481663, Note_on_c, 0, 79, 0
2, 481680, Note_on_c, 0, 75, 79
2, 481680, Note_on_c, 0, 27, 43
2, 481680, Note_on_c, 0, 39, 43
2, 481857, Note_on_c, 0, 39, 0
2, 481857, Note_on_c, 0, 27, 0
2, 482005, Note_on_c, 0, 75, 0
2, 482040, Note_on_c, 0, 46, 61
2, 482217, Note_on_c, 0, 46, 0
2, 482400, Note_on_c, 0, 55, 62
2, 482577, Note_on_c, 0, 55, 0
2, 482760, Note_on_c, 0, 58, 61
2, 482937, Note_on_c, 0, 58, 0
2, 483120, Note_on_c, 0, 79, 76
2, 483120, Note_on_c, 0, 55, 48
2, 483283, Note_on_c, 0, 79, 0
2, 483297, Note_on_c, 0, 55, 0
2, 483300, Note_on_c, 0, 77, 74
2, 483463, Note_on_c, 0, 77, 0
2, 483480, Note_on_c, 0, 75, 77
2, 483480, Note_on_c, 0, 46, 42
2, 483643, Note_on_c, 0, 75, 0
2, 483657, Note_on_c, 0, 46, 0
2, 483660, Note_on_c, 0, 77, 86
2, 483823, Note_on_c, 0, 77, 0
2, 483840, Note_on_c, 0, 75, 80
2, 483840, Note_on_c, 0, 39, 46
2, 484003, Note_on_c, 0, 75, 0
2, 484017, Note_on_c, 0, 39, 0
2, 484020, Note_on_c, 0, 71, 74
2, 484183, Note_on_c, 0, 71, 0
2, 484200, Note_on_c, 0, 68, 75
2, 484200, Note_on_c, 0, 47, 60
2, 484363, Note_on_c, 0, 68, 0
2, 484377, Note_on_c, 0, 47, 0
2, 484380, Note_on_c, 0, 67, 76
2, 484543, Note_on_c, 0, 67, 0
2, 484560, Note_on_c, 0, 63, 74
2, 484560, Note_on_c, 0, 55, 64
2, 484723, Note_on_c, 0, 63, 0
2, 484737, Note_on_c, 0, 55, 0
2, 484740, Note_on_c, 0, 62, 77
2, 484903, Note_on_c, 0, 62, 0
2, 484920, Note_on_c, 0, 59, 62
2, 485097, Note_on_c, 0, 59, 0
2, 485100, Note_on_c, 0, 63, 72
2, 485263, Note_on_c, 0, 63, 0
2, 485280, Note_on_c, 0, 67, 93
2, 485280, Note_on_c, 0, 55, 47
2, 485443, Note_on_c, 0, 67, 0
2, 485457, Note_on_c, 0, 55, 0
2, 485460, Note_on_c, 0, 71, 89
2, 485623, Note_on_c, 0, 71, 0
2, 485640, Note_on_c, 0, 75, 94
2, 485640, Note_on_c, 0, 47, 41
2, 485803, Note_on_c, 0, 75, 0
2, 485817, Note_on_c, 0, 47, 0
2, 485820, Note_on_c, 0, 79, 90
2, 485983, Note_on_c, 0, 79, 0
2, 486000, Note_on_c, 0, 74, 74
2, 486000, Note_on_c, 0, 31, 48
2, 486000, Note_on_c, 0, 43, 49
2, 486177, Note_on_c, 0, 43, 0
2, 486177, Note_on_c, 0, 31, 0
2, 486325, Note_on_c, 0, 74, 0
2, 486360, Note_on_c, 0, 50, 59
2, 486537, Note_on_c, 0, 50, 0
2, 486720, Note_on_c, 0, 59, 65
2, 486897, Note_on_c, 0, 59, 0
2, 487080, Note_on_c, 0, 62, 62
2, 487257, Note_on_c, 0, 62, 0
2, 487440, Note_on_c, 0, 83, 77
2, 487440, Note_on_c, 0, 59, 50
2, 487603, Note_on_c, 0, 83, 0
2, 487617, Note_on_c, 0, 59, 0
2, 487620, Note_on_c, 0, 81, 77
2, 487783, Note_on_c, 0, 81, 0
2, 487800, Note_on_c, 0, 79, 78
2, 487800, Note_on_c, 0, 50, 43
2, 487963, Note_on_c, 0, 79, 0
2, 487977, Note_on_c, 0, 50, 0
2, 487980, Note_on_c, 0, 81, 86
2, 488143, Note_on_c, 0, 81, 0
2, 488160, Note_on_c, 0, 79, 78
2, 488160, Note_on_c, 0, 43, 44
2, 488323, Note_on_c, 0, 79, 0
2, 488337, Note_on_c, 0, 43, 0
2, 488340, Note_on_c, 0, 76, 72
2, 488503, Note_on_c, 0, 76, 0
2, 488520, Note_on_c, 0, 71, 72
2, 488520, Note_on_c, 0, 52, 63
2, 488683, Note_on_c, 0, 71, 0
2, 488697, Note_on_c, 0, 52, 0
2, 488700, Note_on_c, 0, 67, 70
2, 488863, Note_on_c, 0, 67, 0
2, 488880, Note_on_c, 0, 66, 79
2, 488880, Note_on_c, 0, 59, 64
2, 489043, Note_on_c, 0, 66, 0
2, 489057, Note_on_c, 0, 59, 0
2, 489060, Note_on_c, 0, 67, 85
2, 489223, Note_on_c, 0, 67, 0
2, 489240, Note_on_c, 0, 64, 63
2, 489417, Note_on_c, 0, 64, 0
2, 489420, Note_on_c, 0, 67, 75
2, 489583, Note_on_c, 0, 67, 0
2, 489600, Note_on_c, 0, 71, 89
2, 489600, Note_on_c, 0, 55, 45
2, 489763, Note_on_c, 0, 71, 0
2, 489777, Note_on_c, 0, 55, 0
2, 489780, Note_on_c, 0, 76, 93
2, 489943, Note_on_c, 0, 76, 0
2, 489960, Note_on_c, 0, 79, 91
2, 489960, Note_on_c, 0, 48, 44
2, 490123, Note_on_c, 0, 79, 0
2, 490137, Note_on_c, 0, 48, 0
2, 490140, Note_on_c, 0, 83, 90
2, 490303, Note_on_c, 0, 83, 0
2, 490320, Note_on_c, 0, 79, 78
2, 490320, Note_on_c, 0, 31, 49
2, 490320, Note_on_c, 0, 43, 47
2, 490497, Note_on_c, 0, 43, 0
2, 490497, Note_on_c, 0, 31, 0
2, 490645, Note_on_c, 0, 79, 0
2, 490680, Note_on_c, 0, 50, 61
2, 490857, Note_on_c, 0, 50, 0
2, 491040, Note_on_c, 0, 59, 63
2, 491217, Note_on_c, 0, 59, 0
2, 491400, Note_on_c, 0, 62, 60
2, 491577, Note_on_c, 0, 62, 0
2, 491760, Note_on_c, 0, 83, 75
2, 491760, Note_on_c, 0, 59, 50
2, 491923, Note_on_c, 0, 83, 0
2, 491937, Note_on_c, 0, 59, 0
2, 491940, Note_on_c, 0, 80, 74
2, 492103, Note_on_c, 0, 80, 0
2, 492120, Note_on_c, 0, 79, 78
2, 492120, Note_on_c, 0, 50, 42
2, 492283, Note_on_c, 0, 79, 0
2, 492297, Note_on_c, 0, 50, 0
2, 492300, Note_on_c, 0, 80, 84
2, 492463, Note_on_c, 0, 80, 0
2, 492480, Note_on_c, 0, 79, 81
2, 492480, Note_on_c, 0, 32, 46
2, 492480, Note_on_c, 0, 44, 45
2, 492643, Note_on_c, 0, 79, 0
2, 492657, Note_on_c, 0, 32, 0
2, 492657, Note_on_c, 0, 44, 0
2, 492660, Note_on_c, 0, 75, 73
2, 492823, Note_on_c, 0, 75, 0
2, 492840, Note_on_c, 0, 71, 74
2, 492840, Note_on_c, 0, 51, 62
2, 493003, Note_on_c, 0, 71, 0
2, 493017, Note_on_c, 0, 51, 0
2, 493020, Note_on_c, 0, 67, 70
2, 493183, Note_on_c, 0, 67, 0
2, 493200, Note_on_c, 0, 65, 75
2, 493200, Note_on_c, 0, 59, 62
2, 493363, Note_on_c, 0, 65, 0
2, 493377, Note_on_c, 0, 59, 0
2, 493380, Note_on_c, 0, 67, 83
2, 493543, Note_on_c, 0, 67, 0
2, 493560, Note_on_c, 0, 63, 64
2, 493737, Note_on_c, 0, 63, 0
2, 493740, Note_on_c, 0, 65, 73
2, 493903, Note_on_c, 0, 65, 0
2, 493920, Note_on_c, 0, 67, 87
2, 493920, Note_on_c, 0, 59, 48
2, 494083, Note_on_c, 0, 67, 0
2, 494097, Note_on_c, 0, 59, 0
2, 494100, Note_on_c, 0, 71, 91
2, 494263, Note_on_c, 0, 71, 0
2, 494280, Note_on_c, 0, 75, 91
2, 494280, Note_on_c, 0, 51, 40
2, 494443, Note_on_c, 0, 75, 0
2, 494457, Note_on_c, 0, 51, 0
2, 494460, Note_on_c, 0, 79, 90
2, 494623, Note_on_c, 0, 79, 0
2, 494640, Note_on_c, 0, 75, 79
2, 494640, Note_on_c, 0, 31, 43
2, 494640, Note_on_c, 0, 43, 45
2, 494817, Note_on_c, 0, 43, 0
2, 494817, Note_on_c, 0, 31, 0
2, 494965, Note_on_c, 0, 75, 0
2, 495000, Note_on_c, 0, 67, 67
2, 495000, Note_on_c, 0, 51, 66
2, 495000, Note_on_c, 0, 58, 64
2, 495163, Note_on_c, 0, 67, 0
2, 495177, Note_on_c, 0, 51, 0
2, 495177, Note_on_c, 0, 58, 0
2, 495180, Note_on_c, 0, 65, 71
2, 495343, Note_on_c, 0, 65, 0
2, 495360, Note_on_c, 0, 63, 78
2, 495360, Note_on_c, 0, 51, 53
2, 495360, Note_on_c, 0, 58, 56
2, 495523, Note_on_c, 0, 63, 0
2, 495537, Note_on_c, 0, 51, 0
2, 495537, Note_on_c, 0, 58, 0
2, 495540, Note_on_c, 0, 62, 76
2, 495703, Note_on_c, 0, 62, 0
2, 495720, Note_on_c, 0, 63, 85
2, 495883, Note_on_c, 0, 63, 0
2, 495900, Note_on_c, 0, 67, 90
2, 496063, Note_on_c, 0, 67, 0
2, 496080, Note_on_c, 0, 70, 91
2, 496080, Note_on_c, 0, 51, 48
2, 496080, Note_on_c, 0, 58, 48
2, 496080, Note_on_c, 0, 63, 50
2, 496243, Note_on_c, 0, 70, 0
2, 496257, Note_on_c, 0, 58, 0
2, 496257, Note_on_c, 0, 51, 0
2, 496257, Note_on_c, 0, 63, 0
2, 496260, Note_on_c, 0, 68, 78
2, 496423, Note_on_c, 0, 68, 0
2, 496440, Note_on_c, 0, 67, 78
2, 496440, Note_on_c, 0, 51, 46
2, 496440, Note_on_c, 0, 58, 43
2, 496603, Note_on_c, 0, 67, 0
2, 496617, Note_on_c, 0, 51, 0
2, 496617, Note_on_c, 0, 58, 0
2, 496620, Note_on_c, 0, 65, 75
2, 496783, Note_on_c, 0, 65, 0
2, 496800, Note_on_c, 0, 65, 81
2, 496963, Note_on_c, 0, 65, 0
2, 496980, Note_on_c, 0, 63, 76
2, 497143, Note_on_c, 0, 63, 0
2, 497160, Note_on_c, 0, 62, 80
2, 497160, Note_on_c, 0, 51, 47
2, 497160, Note_on_c, 0, 58, 48
2, 497323, Note_on_c, 0, 62, 0
2, 497337, Note_on_c, 0, 51, 0
2, 497337, Note_on_c, 0, 58, 0
2, 497340, Note_on_c, 0, 63, 85
2, 497503, Note_on_c, 0, 63, 0
2, 497520, Note_on_c, 0, 67, 93
2, 497520, Note_on_c, 0, 51, 50
2, 497520, Note_on_c, 0, 58, 52
2, 497683, Note_on_c, 0, 67, 0
2, 497697, Note_on_c, 0, 51, 0
2, 497697, Note_on_c, 0, 58, 0
2, 497700, Note_on_c, 0, 63, 74
2, 497863, Note_on_c, 0, 63, 0
2, 497880, Note_on_c, 0, 67, 90
2, 498043, Note_on_c, 0, 67, 0
2, 498060, Note_on_c, 0, 70, 90
2, 498223, Note_on_c, 0, 70, 0
2, 498240, Note_on_c, 0, 74, 93
2, 498240, Note_on_c, 0, 51, 49
2, 498240, Note_on_c, 0, 58, 48
2, 498240, Note_on_c, 0, 63, 48
2, 498403, Note_on_c, 0, 74, 0
2, 498417, Note_on_c, 0, 58, 0
2, 498417, Note_on_c, 0, 51, 0
2, 498417, Note_on_c, 0, 63, 0
2, 498420, Note_on_c, 0, 72, 79
2, 498583, Note_on_c, 0, 72, 0
2, 498600, Note_on_c, 0, 70, 81
2, 498600, Note_on_c, 0, 51, 45
2, 498600, Note_on_c, 0, 58, 45
2, 498763, Note_on_c, 0, 70, 0
2, 498777, Note_on_c, 0, 51, 0
2, 498777, Note_on_c, 0, 58, 0
2, 498780, Note_on_c, 0, 68, 77
2, 498943, Note_on_c, 0, 68, 0
2, 498960, Note_on_c, 0, 72, 91
2, 499123, Note_on_c, 0, 72, 0
2, 499140, Note_on_c, 0, 70, 78
2, 499303, Note_on_c, 0, 70, 0
2, 499320, Note_on_c, 0, 68, 79
2, 499320, Note_on_c, 0, 51, 50
2, 499320, Note_on_c, 0, 60, 47
2, 499320, Note_on_c, 0, 63, 46
2, 499483, Note_on_c, 0, 68, 0
2, 499497, Note_on_c, 0, 60, 0
2, 499497, Note_on_c, 0, 51, 0
2, 499497, Note_on_c, 0, 63, 0
2, 499500, Note_on_c, 0, 67, 77
2, 499663, Note_on_c, 0, 67, 0
2, 499680, Note_on_c, 0, 68, 87
2, 499680, Note_on_c, 0, 51, 54
2, 499680, Note_on_c, 0, 60, 53
2, 499680, Note_on_c, 0, 63, 52
2, 499843, Note_on_c, 0, 68, 0
2, 499857, Note_on_c, 0, 60, 0
2, 499857, Note_on_c, 0, 51, 0
2, 499857, Note_on_c, 0, 63, 0
2, 499860, Note_on_c, 0, 70, 84
2, 500023, Note_on_c, 0, 70, 0
2, 500040, Note_on_c, 0, 72, 89
2, 500203, Note_on_c, 0, 72, 0
2, 500220, Note_on_c, 0, 70, 77
2, 500383, Note_on_c, 0, 70, 0
2, 500400, Note_on_c, 0, 72, 86
2, 500400, Note_on_c, 0, 60, 49
2, 500400, Note_on_c, 0, 63, 50
2, 500563, Note_on_c, 0, 72, 0
2, 500577, Note_on_c, 0, 60, 0
2, 500577, Note_on_c, 0, 63, 0
2, 500580, Note_on_c, 0, 75, 87
2, 500743, Note_on_c, 0, 75, 0
2, 500760, Note_on_c, 0, 79, 94
2, 500760, Note_on_c, 0, 51, 48
2, 500760, Note_on_c, 0, 60, 48
2, 500923, Note_on_c, 0, 79, 0
2, 500937, Note_on_c, 0, 51, 0
2, 500937, Note_on_c, 0, 60, 0
2, 500940, Note_on_c, 0, 80, 86
2, 501103, Note_on_c, 0, 80, 0
2, 501120, Note_on_c, 0, 79, 81
2, 501283, Note_on_c, 0, 79, 0
2, 501300, Note_on_c, 0, 74, 69
2, 501463, Note_on_c, 0, 74, 0
2, 501480, Note_on_c, 0, 72, 79
2, 501480, Note_on_c, 0, 56, 49
2, 501480, Note_on_c, 0, 58, 50
2, 501480, Note_on_c, 0, 62, 50
2, 501643, Note_on_c, 0, 72, 0
2, 501657, Note_on_c, 0, 58, 0
2, 501657, Note_on_c, 0, 56, 0
2, 501657, Note_on_c, 0, 62, 0
2, 501660, Note_on_c, 0, 75, 85
2, 501823, Note_on_c, 0, 75, 0
2, 501840, Note_on_c, 0, 74, 82
2, 501840, Note_on_c, 0, 56, 51
2, 501840, Note_on_c, 0, 58, 53
2, 501840, Note_on_c, 0, 62, 52
2, 502003, Note_on_c, 0, 74, 0
2, 502017, Note_on_c, 0, 58, 0
2, 502017, Note_on_c, 0, 56, 0
2, 502017, Note_on_c, 0, 62, 0
2, 502020, Note_on_c, 0, 72, 76
2, 502183, Note_on_c, 0, 72, 0
2, 502200, Note_on_c, 0, 70, 78
2, 502363, Note_on_c, 0, 70, 0
2, 502380, Note_on_c, 0, 72, 86
2, 502543, Note_on_c, 0, 72, 0
2, 502560, Note_on_c, 0, 70, 80
2, 502560, Note_on_c, 0, 58, 48
2, 502560, Note_on_c, 0, 62, 47
2, 502560, Note_on_c, 0, 68, 49
2, 502723, Note_on_c, 0, 70, 0
2, 502737, Note_on_c, 0, 62, 0
2, 502737, Note_on_c, 0, 58, 0
2, 502737, Note_on_c, 0, 68, 0
2, 502740, Note_on_c, 0, 72, 85
2, 502903, Note_on_c, 0, 72, 0
2, 502920, Note_on_c, 0, 70, 80
2, 502920, Note_on_c, 0, 56, 46
2, 502920, Note_on_c, 0, 58, 45
2, 502920, Note_on_c, 0, 62, 44
2, 503083, Note_on_c, 0, 70, 0
2, 503097, Note_on_c, 0, 58, 0
2, 503097, Note_on_c, 0, 56, 0
2, 503097, Note_on_c, 0, 62, 0
2, 503100, Note_on_c, 0, 68, 76
2, 503263, Note_on_c, 0, 68, 0
2, 503280, Note_on_c, 0, 70, 90
2, 503280, Note_on_c, 0, 50, 77
2, 503280, Note_on_c, 0, 55, 77
2, 503280, Note_on_c, 0, 58, 79
2, 503280, Note_on_c, 0, 62, 80
2, 503605, Note_on_c, 0, 70, 0
2, 503640, Note_on_c, 0, 70, 84
2, 503767, Note_on_c, 0, 62, 0
2, 503767, Note_on_c, 0, 50, 0
2, 503767, Note_on_c, 0, 55, 0
2, 503767, Note_on_c, 0, 58, 0
2, 503803, Note_on_c, 0, 70, 0
2, 503820, Note_on_c, 0, 68, 75
2, 503820, Note_on_c, 0, 50, 79
2, 503820, Note_on_c, 0, 55, 79
2, 503820, Note_on_c, 0, 58, 80
2, 503820, Note_on_c, 0, 62, 78
2, 503983, Note_on_c, 0, 62, 0
2, 503983, Note_on_c, 0, 58, 0
2, 503983, Note_on_c, 0, 50, 0
2, 503983, Note_on_c, 0, 68, 0
2, 503983, Note_on_c, 0, 55, 0
2, 504000, Note_on_c, 0, 67, 78
2, 504000, Note_on_c, 0, 50, 79
2, 504000, Note_on_c, 0, 55, 80
2, 504000, Note_on_c, 0, 58, 81
2, 504000, Note_on_c, 0, 62, 81
2, 504163, Note_on_c, 0, 67, 0
2, 504180, Note_on_c, 0, 66, 78
2, 504325, Note_on_c, 0, 62, 0
2, 504325, Note_on_c, 0, 50, 0
2, 504325, Note_on_c, 0, 55, 0
2, 504325, Note_on_c, 0, 58, 0
2, 504343, Note_on_c, 0, 66, 0
2, 504360, Note_on_c, 0, 67, 86
2, 504523, Note_on_c, 0, 67, 0
2, 504540, Note_on_c, 0, 70, 89
2, 504703, Note_on_c, 0, 70, 0
2, 504720, Note_on_c, 0, 74, 92
2, 504720, Note_on_c, 0, 55, 46
2, 504720, Note_on_c, 0, 58, 46
2, 504720, Note_on_c, 0, 62, 49
2, 504883, Note_on_c, 0, 74, 0
2, 504897, Note_on_c, 0, 58, 0
2, 504897, Note_on_c, 0, 55, 0
2, 504897, Note_on_c, 0, 62, 0
2, 504900, Note_on_c, 0, 72, 78
2, 505063, Note_on_c, 0, 72, 0
2, 505080, Note_on_c, 0, 70, 80
2, 505080, Note_on_c, 0, 50, 46
2, 505080, Note_on_c, 0, 55, 48
2, 505080, Note_on_c, 0, 58, 48
2, 505243, Note_on_c, 0, 70, 0
2, 505257, Note_on_c, 0, 55, 0
2, 505257, Note_on_c, 0, 50, 0
2, 505257, Note_on_c, 0, 58, 0
2, 505260, Note_on_c, 0, 72, 85
2, 505423, Note_on_c, 0, 72, 0
2, 505440, Note_on_c, 0, 70, 79
2, 505603, Note_on_c, 0, 70, 0
2, 505620, Note_on_c, 0, 68, 74
2, 505783, Note_on_c, 0, 68, 0
2, 505800, Note_on_c, 0, 67, 78
2, 505800, Note_on_c, 0, 51, 47
2, 505800, Note_on_c, 0, 60, 46
2, 505800, Note_on_c, 0, 63, 46
2, 505963, Note_on_c, 0, 67, 0
2, 505977, Note_on_c, 0, 60, 0
2, 505977, Note_on_c, 0, 51, 0
2, 505977, Note_on_c, 0, 63, 0
2, 505980, Note_on_c, 0, 68, 83
2, 506143, Note_on_c, 0, 68, 0
2, 506160, Note_on_c, 0, 72, 93
2, 506160, Note_on_c, 0, 51, 53
2, 506160, Note_on_c, 0, 60, 50
2, 506160, Note_on_c, 0, 63, 52
2, 506323, Note_on_c, 0, 72, 0
2, 506337, Note_on_c, 0, 60, 0
2, 506337, Note_on_c, 0, 51, 0
2, 506337, Note_on_c, 0, 63, 0
2, 506340, Note_on_c, 0, 70, 77
2, 506503, Note_on_c, 0, 70, 0
2, 506520, Note_on_c, 0, 72, 88
2, 506683, Note_on_c, 0, 72, 0
2, 506700, Note_on_c, 0, 75, 88
2, 506863, Note_on_c, 0, 75, 0
2, 506880, Note_on_c, 0, 80, 95
2, 506880, Note_on_c, 0, 60, 47
2, 506880, Note_on_c, 0, 63, 47
2, 506880, Note_on_c, 0, 68, 46
2, 507043, Note_on_c, 0, 80, 0
2, 507057, Note_on_c, 0, 63, 0
2, 507057, Note_on_c, 0, 60, 0
2, 507057, Note_on_c, 0, 68, 0
2, 507060, Note_on_c, 0, 79, 79
2, 507223, Note_on_c, 0, 79, 0
2, 507240, Note_on_c, 0, 77, 78
2, 507240, Note_on_c, 0, 56, 44
2, 507240, Note_on_c, 0, 60, 47
2, 507240, Note_on_c, 0, 63, 47
2, 507403, Note_on_c, 0, 77, 0
2, 507417, Note_on_c, 0, 60, 0
2, 507417, Note_on_c, 0, 56, 0
2, 507417, Note_on_c, 0, 63, 0
2, 507420, Note_on_c, 0, 75, 75
2, 507583, Note_on_c, 0, 75, 0
2, 507600, Note_on_c, 0, 77, 89
2, 507763, Note_on_c, 0, 77, 0
2, 507780, Note_on_c, 0, 75, 77
2, 507943, Note_on_c, 0, 75, 0
2, 507960, Note_on_c, 0, 72, 75
2, 507960, Note_on_c, 0, 60, 48
2, 507960, Note_on_c, 0, 63, 46
2, 507960, Note_on_c, 0, 68, 48
2, 508123, Note_on_c, 0, 72, 0
2, 508137, Note_on_c, 0, 63, 0
2, 508137, Note_on_c, 0, 60, 0
2, 508137, Note_on_c, 0, 68, 0
2, 508140, Note_on_c, 0, 70, 77
2, 508303, Note_on_c, 0, 70, 0
2, 508320, Note_on_c, 0, 72, 88
2, 508320, Note_on_c, 0, 60, 52
2, 508320, Note_on_c, 0, 63, 52
2, 508320, Note_on_c, 0, 68, 54
2, 508483, Note_on_c, 0, 72, 0
2, 508497, Note_on_c, 0, 63, 0
2, 508497, Note_on_c, 0, 60, 0
2, 508497, Note_on_c, 0, 68, 0
2, 508500, Note_on_c, 0, 75, 86
2, 508663, Note_on_c, 0, 75, 0
2, 508680, Note_on_c, 0, 77, 90
2, 508843, Note_on_c, 0, 77, 0
2, 508860, Note_on_c, 0, 75, 75
2, 509023, Note_on_c, 0, 75, 0
2, 509040, Note_on_c, 0, 77, 89
2, 509040, Note_on_c, 0, 63, 47
2, 509040, Note_on_c, 0, 68, 49
2, 509040, Note_on_c, 0, 72, 47
2, 509203, Note_on_c, 0, 77, 0
2, 509217, Note_on_c, 0, 68, 0
2, 509217, Note_on_c, 0, 63, 0
2, 509217, Note_on_c, 0, 72, 0
2, 509220, Note_on_c, 0, 80, 86
2, 509383, Note_on_c, 0, 80, 0
2, 509400, Note_on_c, 0, 84, 92
2, 509400, Note_on_c, 0, 60, 45
2, 509400, Note_on_c, 0, 63, 47
2, 509400, Note_on_c, 0, 68, 47
2, 509563, Note_on_c, 0, 84, 0
2, 509577, Note_on_c, 0, 63, 0
2, 509577, Note_on_c, 0, 60, 0
2, 509577, Note_on_c, 0, 68, 0
2, 509580, Note_on_c, 0, 85, 87
2, 509743, Note_on_c, 0, 85, 0
2, 509760, Note_on_c, 0, 84, 79
2, 509923, Note_on_c, 0, 84, 0
2, 509940, Note_on_c, 0, 80, 72
2, 510103, Note_on_c, 0, 80, 0
2, 510120, Note_on_c, 0, 79, 78
2, 510120, Note_on_c, 0, 56, 48
2, 510120, Note_on_c, 0, 58, 49
2, 510120, Note_on_c, 0, 64, 48
2, 510283, Note_on_c, 0, 79, 0
2, 510297, Note_on_c, 0, 58, 0
2, 510297, Note_on_c, 0, 56, 0
2, 510297, Note_on_c, 0, 64, 0
2, 510300, Note_on_c, 0, 82, 86
2, 510463, Note_on_c, 0, 82, 0
2, 510480, Note_on_c, 0, 80, 81
2, 510480, Note_on_c, 0, 56, 50
2, 510480, Note_on_c, 0, 58, 54
2, 510480, Note_on_c, 0, 64, 51
2, 510643, Note_on_c, 0, 80, 0
2, 510657, Note_on_c, 0, 58, 0
2, 510657, Note_on_c, 0, 56, 0
2, 510657, Note_on_c, 0, 64, 0
2, 510660, Note_on_c, 0, 78, 75
2, 510823, Note_on_c, 0, 78, 0
2, 510840, Note_on_c, 0, 76, 78
2, 511003, Note_on_c, 0, 76, 0
2, 511020, Note_on_c, 0, 78, 85
2, 511183, Note_on_c, 0, 78, 0
2, 511200, Note_on_c, 0, 76, 78
2, 511200, Note_on_c, 0, 58, 48
2, 511200, Note_on_c, 0, 64, 46
2, 511200, Note_on_c, 0, 68, 49
2, 511363, Note_on_c, 0, 76, 0
2, 511377, Note_on_c, 0, 64, 0
2, 511377, Note_on_c, 0, 58, 0
2, 511377, Note_on_c, 0, 68, 0
2, 511380, Note_on_c, 0, 78, 83
2, 511543, Note_on_c, 0, 78, 0
2, 511560, Note_on_c, 0, 76, 80
2, 511560, Note_on_c, 0, 56, 47
2, 511560, Note_on_c, 0, 58, 48
2, 511560, Note_on_c, 0, 64, 48
2, 511723, Note_on_c, 0, 76, 0
2, 511737, Note_on_c, 0, 58, 0
2, 511737, Note_on_c, 0, 56, 0
2, 511737, Note_on_c, 0, 64, 0
2, 511740, Note_on_c, 0, 75, 78
2, 511903, Note_on_c, 0, 75, 0
2, 511920, Note_on_c, 0, 75, 85
2, 511920, Note_on_c, 0, 51, 74
2, 511920, Note_on_c, 0, 56, 74
2, 511920, Note_on_c, 0, 63, 76
2, 512245, Note_on_c, 0, 75, 0
2, 512280, Note_on_c, 0, 75, 84
2, 512407, Note_on_c, 0, 56, 0
2, 512407, Note_on_c, 0, 51, 0
2, 512407, Note_on_c, 0, 63, 0
2, 512443, Note_on_c, 0, 75, 0
2, 512460, Note_on_c, 0, 72, 74
2, 512460, Note_on_c, 0, 51, 78
2, 512460, Note_on_c, 0, 56, 78
2, 512460, Note_on_c, 0, 63, 78
2, 512623, Note_on_c, 0, 63, 0
2, 512623, Note_on_c, 0, 51, 0
2, 512623, Note_on_c, 0, 72, 0
2, 512623, Note_on_c, 0, 56, 0
2, 512640, Note_on_c, 0, 70, 77
2, 512640, Note_on_c, 0, 51, 82
2, 512640, Note_on_c, 0, 56, 79
2, 512640, Note_on_c, 0, 63, 83
2, 512803, Note_on_c, 0, 70, 0
2, 512820, Note_on_c, 0, 72, 83
2, 512965, Note_on_c, 0, 56, 0
2, 512965, Note_on_c, 0, 51, 0
2, 512965, Note_on_c, 0, 63, 0
2, 512983, Note_on_c, 0, 72, 0
2, 513000, Note_on_c, 0, 70, 81
2, 513163, Note_on_c, 0, 70, 0
2, 513180, Note_on_c, 0, 68, 76
2, 513343, Note_on_c, 0, 68, 0
2, 513360, Note_on_c, 0, 63, 72
2, 513360, Note_on_c, 0, 56, 47
2, 513360, Note_on_c, 0, 60, 50
2, 513523, Note_on_c, 0, 63, 0
2, 513537, Note_on_c, 0, 56, 0
2, 513537, Note_on_c, 0, 60, 0
2, 513540, Note_on_c, 0, 68, 89
2, 513703, Note_on_c, 0, 68, 0
2, 513720, Note_on_c, 0, 70, 87
2, 513720, Note_on_c, 0, 51, 46
2, 513720, Note_on_c, 0, 56, 47
2, 513883, Note_on_c, 0, 70, 0
2, 513897, Note_on_c, 0, 51, 0
2, 513897, Note_on_c, 0, 56, 0
2, 513900, Note_on_c, 0, 72, 88
2, 514063, Note_on_c, 0, 72, 0
2, 514080, Note_on_c, 0, 75, 93
2, 514243, Note_on_c, 0, 75, 0
2, 514260, Note_on_c, 0, 79, 91
2, 514423, Note_on_c, 0, 79, 0
2, 514440, Note_on_c, 0, 82, 92
2, 514440, Note_on_c, 0, 55, 50
2, 514440, Note_on_c, 0, 58, 48
2, 514440, Note_on_c, 0, 63, 46
2, 514603, Note_on_c, 0, 82, 0
2, 514617, Note_on_c, 0, 58, 0
2, 514617, Note_on_c, 0, 55, 0
2, 514617, Note_on_c, 0, 63, 0
2, 514620, Note_on_c, 0, 79, 76
2, 514783, Note_on_c, 0, 79, 0
2, 514800, Note_on_c, 0, 77, 78
2, 514800, Note_on_c, 0, 55, 54
2, 514800, Note_on_c, 0, 58, 54
2, 514800, Note_on_c, 0, 63, 52
2, 514963, Note_on_c, 0, 77, 0
2, 514977, Note_on_c, 0, 58, 0
2, 514977, Note_on_c, 0, 55, 0
2, 514977, Note_on_c, 0, 63, 0
2, 514980, Note_on_c, 0, 79, 84
2, 515143, Note_on_c, 0, 79, 0
2, 515160, Note_on_c, 0, 77, 77
2, 515323, Note_on_c, 0, 77, 0
2, 515340, Note_on_c, 0, 75, 75
2, 515503, Note_on_c, 0, 75, 0
2, 515520, Note_on_c, 0, 70, 70
2, 515520, Note_on_c, 0, 58, 49
2, 515520, Note_on_c, 0, 63, 47
2, 515697, Note_on_c, 0, 63, 0
2, 515697, Note_on_c, 0, 58, 0
2, 515845, Note_on_c, 0, 70, 0
2, 515880, Note_on_c, 0, 75, 94
2, 515880, Note_on_c, 0, 51, 44
2, 515880, Note_on_c, 0, 58, 45
2, 516043, Note_on_c, 0, 75, 0
2, 516057, Note_on_c, 0, 51, 0
2, 516057, Note_on_c, 0, 58, 0
2, 516060, Note_on_c, 0, 82, 97
2, 516223, Note_on_c, 0, 82, 0
2, 516240, Note_on_c, 0, 84, 91
2, 516240, Note_on_c, 0, 51, 89
2, 516240, Note_on_c, 0, 55, 87
2, 516240, Note_on_c, 0, 60, 89
2, 516240, Note_on_c, 0, 63, 89
2, 516565, Note_on_c, 0, 84, 0
2, 516600, Note_on_c, 0, 87, 90
2, 516727, Note_on_c, 0, 63, 0
2, 516727, Note_on_c, 0, 51, 0
2, 516727, Note_on_c, 0, 55, 0
2, 516727, Note_on_c, 0, 60, 0
2, 516763, Note_on_c, 0, 87, 0
2, 516780, Note_on_c, 0, 86, 77
2, 516780, Note_on_c, 0, 51, 78
2, 516780, Note_on_c, 0, 55, 80
2, 516780, Note_on_c, 0, 60, 79
2, 516780, Note_on_c, 0, 63, 78
2, 516943, Note_on_c, 0, 63, 0
2, 516943, Note_on_c, 0, 60, 0
2, 516943, Note_on_c, 0, 51, 0
2, 516943, Note_on_c, 0, 86, 0
2, 516943, Note_on_c, 0, 55, 0
2, 516960, Note_on_c, 0, 84, 77
2, 516960, Note_on_c, 0, 51, 79
2, 516960, Note_on_c, 0, 55, 80
2, 516960, Note_on_c, 0, 60, 83
2, 516960, Note_on_c, 0, 63, 81
2, 517123, Note_on_c, 0, 84, 0
2, 517140, Note_on_c, 0, 86, 83
2, 517285, Note_on_c, 0, 63, 0
2, 517285, Note_on_c, 0, 51, 0
2, 517285, Note_on_c, 0, 55, 0
2, 517285, Note_on_c, 0, 60, 0
2, 517303, Note_on_c, 0, 86, 0
2, 517320, Note_on_c, 0, 84, 79
2, 517483, Note_on_c, 0, 84, 0
2, 517500, Note_on_c, 0, 79, 72
2, 517663, Note_on_c, 0, 79, 0
2, 517680, Note_on_c, 0, 77, 78
2, 517680, Note_on_c, 0, 67, 50
2, 517680, Note_on_c, 0, 72, 47
2, 517843, Note_on_c, 0, 77, 0
2, 517857, Note_on_c, 0, 67, 0
2, 517857, Note_on_c, 0, 72, 0
2, 517860, Note_on_c, 0, 79, 82
2, 518023, Note_on_c, 0, 79, 0
2, 518040, Note_on_c, 0, 77, 78
2, 518040, Note_on_c, 0, 60, 45
2, 518040, Note_on_c, 0, 67, 44
2, 518203, Note_on_c, 0, 77, 0
2, 518217, Note_on_c, 0, 60, 0
2, 518217, Note_on_c, 0, 67, 0
2, 518220, Note_on_c, 0, 75, 77
2, 518383, Note_on_c, 0, 75, 0
2, 518400, Note_on_c, 0, 72, 78
2, 518400, Note_on_c, 0, 51, 71
2, 518400, Note_on_c, 0, 56, 73
2, 518400, Note_on_c, 0, 60, 72
2, 518400, Note_on_c, 0, 63, 73
2, 518563, Note_on_c, 0, 72, 0
2, 518580, Note_on_c, 0, 70, 75
2, 518743, Note_on_c, 0, 70, 0
2, 518760, Note_on_c, 0, 72, 87
2, 518887, Note_on_c, 0, 63, 0
2, 518887, Note_on_c, 0, 51, 0
2, 518887, Note_on_c, 0, 56, 0
2, 518887, Note_on_c, 0, 60, 0
2, 518923, Note_on_c, 0, 72, 0
2, 518940, Note_on_c, 0, 75, 86
2, 518940, Note_on_c, 0, 51, 78
2, 518940, Note_on_c, 0, 56, 78
2, 518940, Note_on_c, 0, 60, 76
2, 518940, Note_on_c, 0, 63, 78
2, 519103, Note_on_c, 0, 63, 0
2, 519103, Note_on_c, 0, 60, 0
2, 519103, Note_on_c, 0, 51, 0
2, 519103, Note_on_c, 0, 75, 0
2, 519103, Note_on_c, 0, 56, 0
2, 519120, Note_on_c, 0, 77, 88
2, 519120, Note_on_c, 0, 51, 80
2, 519120, Note_on_c, 0, 56, 81
2, 519120, Note_on_c, 0, 60, 79
2, 519120, Note_on_c, 0, 63, 83
2, 519283, Note_on_c, 0, 77, 0
2, 519300, Note_on_c, 0, 75, 77
2, 519445, Note_on_c, 0, 63, 0
2, 519445, Note_on_c, 0, 51, 0
2, 519445, Note_on_c, 0, 56, 0
2, 519445, Note_on_c, 0, 60, 0
2, 519463, Note_on_c, 0, 75, 0
2, 519480, Note_on_c, 0, 77, 87
2, 519643, Note_on_c, 0, 77, 0
2, 519660, Note_on_c, 0, 80, 88
2, 519823, Note_on_c, 0, 80, 0
2, 519840, Note_on_c, 0, 84, 92
2, 519840, Note_on_c, 0, 63, 49
2, 519840, Note_on_c, 0, 68, 49
2, 519840, Note_on_c, 0, 72, 48
2, 520003, Note_on_c, 0, 84, 0
2, 520017, Note_on_c, 0, 68, 0
2, 520017, Note_on_c, 0, 63, 0
2, 520017, Note_on_c, 0, 72, 0
2, 520020, Note_on_c, 0, 82, 78
2, 520183, Note_on_c, 0, 82, 0
2, 520200, Note_on_c, 0, 84, 88
2, 520200, Note_on_c, 0, 60, 46
2, 520200, Note_on_c, 0, 63, 45
2, 520200, Note_on_c, 0, 68, 49
2, 520363, Note_on_c, 0, 84, 0
2, 520377, Note_on_c, 0, 63, 0
2, 520377, Note_on_c, 0, 60, 0
2, 520377, Note_on_c, 0, 68, 0
2, 520380, Note_on_c, 0, 86, 85
2, 520543, Note_on_c, 0, 86, 0
2, 520560, Note_on_c, 0, 87, 87
2, 520560, Note_on_c, 0, 51, 68
2, 520560, Note_on_c, 0, 55, 68
2, 520560, Note_on_c, 0, 60, 69
2, 520560, Note_on_c, 0, 63, 67
2, 520723, Note_on_c, 0, 87, 0
2, 520740, Note_on_c, 0, 86, 79
2, 520903, Note_on_c, 0, 86, 0
2, 520920, Note_on_c, 0, 84, 79
2, 521047, Note_on_c, 0, 63, 0
2, 521047, Note_on_c, 0, 51, 0
2, 521047, Note_on_c, 0, 55, 0
2, 521047, Note_on_c, 0, 60, 0
2, 521083, Note_on_c, 0, 84, 0
2, 521100, Note_on_c, 0, 87, 85
2, 521100, Note_on_c, 0, 51, 75
2, 521100, Note_on_c, 0, 55, 77
2, 521100, Note_on_c, 0, 60, 77
2, 521100, Note_on_c, 0, 63, 75
2, 521263, Note_on_c, 0, 63, 0
2, 521263, Note_on_c, 0, 60, 0
2, 521263, Note_on_c, 0, 51, 0
2, 521263, Note_on_c, 0, 87, 0
2, 521263, Note_on_c, 0, 55, 0
2, 521280, Note_on_c, 0, 84, 77
2, 521280, Note_on_c, 0, 51, 79
2, 521280, Note_on_c, 0, 55, 80
2, 521280, Note_on_c, 0, 60, 82
2, 521280, Note_on_c, 0, 63, 83
2, 521443, Note_on_c, 0, 84, 0
2, 521460, Note_on_c, 0, 82, 73
2, 521605, Note_on_c, 0, 63, 0
2, 521605, Note_on_c, 0, 51, 0
2, 521605, Note_on_c, 0, 55, 0
2, 521605, Note_on_c, 0, 60, 0
2, 521623, Note_on_c, 0, 82, 0
2, 521640, Note_on_c, 0, 80, 76
2, 521803, Note_on_c, 0, 80, 0
2, 521820, Note_on_c, 0, 84, 86
2, 521983, Note_on_c, 0, 84, 0
2, 522000, Note_on_c, 0, 82, 80
2, 522000, Note_on_c, 0, 63, 49
2, 522000, Note_on_c, 0, 67, 48
2, 522000, Note_on_c, 0, 72, 47
2, 522163, Note_on_c, 0, 82, 0
2, 522177, Note_on_c, 0, 67, 0
2, 522177, Note_on_c, 0, 63, 0
2, 522177, Note_on_c, 0, 72, 0
2, 522180, Note_on_c, 0, 80, 75
2, 522343, Note_on_c, 0, 80, 0
2, 522360, Note_on_c, 0, 79, 78
2, 522360, Note_on_c, 0, 60, 44
2, 522360, Note_on_c, 0, 63, 47
2, 522360, Note_on_c, 0, 67, 45
2, 522523, Note_on_c, 0, 79, 0
2, 522537, Note_on_c, 0, 63, 0
2, 522537, Note_on_c, 0, 60, 0
2, 522537, Note_on_c, 0, 67, 0
2, 522540, Note_on_c, 0, 77, 76
2, 522703, Note_on_c, 0, 77, 0
2, 522720, Note_on_c, 0, 75, 77
2, 522720, Note_on_c, 0, 56, 82
2, 522720, Note_on_c, 0, 60, 81
2, 522720, Note_on_c, 0, 63, 83
2, 522720, Note_on_c, 0, 68, 84
2, 522883, Note_on_c, 0, 75, 0
2, 522900, Note_on_c, 0, 79, 87
2, 523063, Note_on_c, 0, 79, 0
2, 523080, Note_on_c, 0, 80, 88
2, 523207, Note_on_c, 0, 68, 0
2, 523207, Note_on_c, 0, 56, 0
2, 523207, Note_on_c, 0, 60, 0
2, 523207, Note_on_c, 0, 63, 0
2, 523243, Note_on_c, 0, 80, 0
2, 523260, Note_on_c, 0, 84, 88
2, 523260, Note_on_c, 0, 56, 77
2, 523260, Note_on_c, 0, 60, 78
2, 523260, Note_on_c, 0, 63, 80
2, 523260, Note_on_c, 0, 68, 80
2, 523423, Note_on_c, 0, 68, 0
2, 523423, Note_on_c, 0, 63, 0
2, 523423, Note_on_c, 0, 56, 0
2, 523423, Note_on_c, 0, 84, 0
2, 523423, Note_on_c, 0, 60, 0
2, 523440, Note_on_c, 0, 87, 93
2, 523440, Note_on_c, 0, 56, 79
2, 523440, Note_on_c, 0, 60, 79
2, 523440, Note_on_c, 0, 63, 76
2, 523440, Note_on_c, 0, 68, 76
2, 523603, Note_on_c, 0, 87, 0
2, 523620, Note_on_c, 0, 91, 88
2, 523765, Note_on_c, 0, 68, 0
2, 523765, Note_on_c, 0, 56, 0
2, 523765, Note_on_c, 0, 60, 0
2, 523765, Note_on_c, 0, 63, 0
2, 523783, Note_on_c, 0, 91, 0
2, 523800, Note_on_c, 0, 72, 91
2, 523800, Note_on_c, 0, 75, 95
2, 523800, Note_on_c, 0, 80, 91
2, 523800, Note_on_c, 0, 84, 93
2, 523800, Note_on_c, 0, 60, 87
2, 523800, Note_on_c, 0, 63, 90
2, 523800, Note_on_c, 0, 68, 87
2, 523800, Note_on_c, 0, 72, 88
2, 524043, Note_on_c, 0, 72, 0
2, 524043, Note_on_c, 0, 60, 0
2, 524043, Note_on_c, 0, 68, 0
2, 524043, Note_on_c, 0, 84, 0
2, 524043, Note_on_c, 0, 72, 0
2, 524043, Note_on_c, 0, 75, 0
2, 524043, Note_on_c, 0, 63, 0
2, 524043, Note_on_c, 0, 80, 0
2, 524070, Note_on_c, 0, 72, 102
2, 524070, Note_on_c, 0, 75, 102
2, 524070, Note_on_c, 0, 80, 102
2, 524070, Note_on_c, 0, 84, 104
2, 524070, Note_on_c, 0, 60, 78
2, 524070, Note_on_c, 0, 63, 77
2, 524070, Note_on_c, 0, 68, 77
2, 524070, Note_on_c, 0, 72, 80
2, 524152, Note_on_c, 0, 72, 0
2, 524152, Note_on_c, 0, 60, 0
2, 524152, Note_on_c, 0, 68, 0
2, 524152, Note_on_c, 0, 84, 0
2, 524152, Note_on_c, 0, 72, 0
2, 524152, Note_on_c, 0, 75, 0
2, 524152, Note_on_c, 0, 63, 0
2, 524152, Note_on_c, 0, 80, 0
2, 524160, Note_on_c, 0, 72, 106
2, 524160, Note_on_c, 0, 75, 106
2, 524160, Note_on_c, 0, 80, 104
2, 524160, Note_on_c, 0, 84, 105
2, 524160, Note_on_c, 0, 60, 77
2, 524160, Note_on_c, 0, 63, 79
2, 524160, Note_on_c, 0, 68, 78
2, 524160, Note_on_c, 0, 72, 78
2, 524485, Note_on_c, 0, 72, 0
2, 524485, Note_on_c, 0, 60, 0
2, 524485, Note_on_c, 0, 68, 0
2, 524485, Note_on_c, 0, 84, 0
2, 524485, Note_on_c, 0, 72, 0
2, 524485, Note_on_c, 0, 75, 0
2, 524485, Note_on_c, 0, 63, 0
2, 524485, Note_on_c, 0, 80, 0
2, 524880, Note_on_c, 0, 39, 50
2, 525205, Note_on_c, 0, 39, 0
2, 525240, Note_on_c, 0, 46, 60
2, 525565, Note_on_c, 0, 46, 0
2, 525600, Note_on_c, 0, 55, 64
2, 525925, Note_on_c, 0, 55, 0
2, 525960, Note_on_c, 0, 58, 60
2, 526285, Note_on_c, 0, 58, 0
2, 526320, Note_on_c, 0, 79, 75
2, 526320, Note_on_c, 0, 55, 51
2, 526483, Note_on_c, 0, 79, 0
2, 526500, Note_on_c, 0, 77, 75
2, 526645, Note_on_c, 0, 55, 0
2, 526663, Note_on_c, 0, 77, 0
2, 526680, Note_on_c, 0, 75, 80
2, 526680, Note_on_c, 0, 46, 42
2, 526843, Note_on_c, 0, 75, 0
2, 526860, Note_on_c, 0, 77, 86
2, 527005, Note_on_c, 0, 46, 0
2, 527023, Note_on_c, 0, 77, 0
2, 527040, Note_on_c, 0, 79, 88
2, 527040, Note_on_c, 0, 39, 46
2, 527203, Note_on_c, 0, 79, 0
2, 527220, Note_on_c, 0, 75, 73
2, 527365, Note_on_c, 0, 39, 0
2, 527383, Note_on_c, 0, 75, 0
2, 527400, Note_on_c, 0, 72, 78
2, 527400, Note_on_c, 0, 48, 61
2, 527563, Note_on_c, 0, 72, 0
2, 527580, Note_on_c, 0, 67, 70
2, 527725, Note_on_c, 0, 48, 0
2, 527743, Note_on_c, 0, 67, 0
2, 527760, Note_on_c, 0, 65, 75
2, 527760, Note_on_c, 0, 55, 63
2, 527923, Note_on_c, 0, 65, 0
2, 527940, Note_on_c, 0, 63, 74
2, 528085, Note_on_c, 0, 55, 0
2, 528103, Note_on_c, 0, 63, 0
2, 528120, Note_on_c, 0, 60, 65
2, 528300, Note_on_c, 0, 63, 71
2, 528445, Note_on_c, 0, 60, 0
2, 528463, Note_on_c, 0, 63, 0
2, 528480, Note_on_c, 0, 67, 91
2, 528480, Note_on_c, 0, 55, 49
2, 528643, Note_on_c, 0, 67, 0
2, 528660, Note_on_c, 0, 72, 91
2, 528805, Note_on_c, 0, 55, 0
2, 528823, Note_on_c, 0, 72, 0
2, 528840, Note_on_c, 0, 75, 93
2, 528840, Note_on_c, 0, 48, 44
2, 529003, Note_on_c, 0, 75, 0
2, 529020, Note_on_c, 0, 77, 86
2, 529165, Note_on_c, 0, 48, 0
2, 529183, Note_on_c, 0, 77, 0
2, 529200, Note_on_c, 0, 39, 43
2, 529525, Note_on_c, 0, 39, 0
2, 529560, Note_on_c, 0, 79, 72
2, 529560, Note_on_c, 0, 49, 61
2, 529885, Note_on_c, 0, 49, 0
2, 529885, Note_on_c, 0, 79, 0
2, 529920, Note_on_c, 0, 55, 62
2, 530245, Note_on_c, 0, 55, 0
2, 530280, Note_on_c, 0, 61, 66
2, 530605, Note_on_c, 0, 61, 0
2, 530640, Note_on_c, 0, 79, 74
2, 530640, Note_on_c, 0, 55, 48
2, 530803, Note_on_c, 0, 79, 0
2, 530820, Note_on_c, 0, 77, 77
2, 530965, Note_on_c, 0, 55, 0
2, 530983, Note_on_c, 0, 77, 0
2, 531000, Note_on_c, 0, 75, 79
2, 531000, Note_on_c, 0, 49, 44
2, 531163, Note_on_c, 0, 75, 0
2, 531180, Note_on_c, 0, 77, 86
2, 531325, Note_on_c, 0, 49, 0
2, 531343, Note_on_c, 0, 77, 0
2, 531360, Note_on_c, 0, 78, 89
2, 531360, Note_on_c, 0, 39, 42
2, 531523, Note_on_c, 0, 78, 0
2, 531540, Note_on_c, 0, 75, 74
2, 531685, Note_on_c, 0, 39, 0
2, 531703, Note_on_c, 0, 75, 0
2, 531720, Note_on_c, 0, 72, 76
2, 531720, Note_on_c, 0, 48, 62
2, 531883, Note_on_c, 0, 72, 0
2, 531900, Note_on_c, 0, 69, 74
2, 532045, Note_on_c, 0, 48, 0
2, 532063, Note_on_c, 0, 69, 0
2, 532080, Note_on_c, 0, 66, 77
2, 532080, Note_on_c, 0, 54, 63
2, 532243, Note_on_c, 0, 66, 0
2, 532260, Note_on_c, 0, 63, 75
2, 532405, Note_on_c, 0, 54, 0
2, 532423, Note_on_c, 0, 63, 0
2, 532440, Note_on_c, 0, 62, 78
2, 532440, Note_on_c, 0, 57, 65
2, 532440, Note_on_c, 0, 60, 67
2, 532603, Note_on_c, 0, 62, 0
2, 532620, Note_on_c, 0, 63, 82
2, 532765, Note_on_c, 0, 57, 0
2, 532765, Note_on_c, 0, 60, 0
2, 532783, Note_on_c, 0, 63, 0
2, 532800, Note_on_c, 0, 66, 89
2, 532800, Note_on_c, 0, 54, 47
2, 532963, Note_on_c, 0, 66, 0
2, 532980, Note_on_c, 0, 68, 85
2, 533125, Note_on_c, 0, 54, 0
2, 533143, Note_on_c, 0, 68, 0
2, 533160, Note_on_c, 0, 72, 92
2, 533160, Note_on_c, 0, 48, 46
2, 533323, Note_on_c, 0, 72, 0
2, 533340, Note_on_c, 0, 75, 90
2, 533485, Note_on_c, 0, 48, 0
2, 533503, Note_on_c, 0, 75, 0
2, 533520, Note_on_c, 0, 78, 92
2, 533520, Note_on_c, 0, 39, 43
2, 533845, Note_on_c, 0, 39, 0
2, 533845, Note_on_c, 0, 78, 0
2, 533880, Note_on_c, 0, 48, 62
2, 534205, Note_on_c, 0, 48, 0
2, 534240, Note_on_c, 0, 54, 61
2, 534565, Note_on_c, 0, 54, 0
2, 534600, Note_on_c, 0, 56, 64
2, 534600, Note_on_c, 0, 60, 64
2, 534925, Note_on_c, 0, 60, 0
2, 534925, Note_on_c, 0, 56, 0
2, 534960, Note_on_c, 0, 75, 75
2, 534960, Note_on_c, 0, 54, 46
2, 535123, Note_on_c, 0, 75, 0
2, 535140, Note_on_c, 0, 74, 78
2, 535285, Note_on_c, 0, 54, 0
2, 535303, Note_on_c, 0, 74, 0
2, 535320, Note_on_c, 0, 72, 79
2, 535320, Note_on_c, 0, 48, 44
2, 535483, Note_on_c, 0, 72, 0
2, 535500, Note_on_c, 0, 74, 85
2, 535645, Note_on_c, 0, 48, 0
2, 535663, Note_on_c, 0, 74, 0
2, 535680, Note_on_c, 0, 75, 89
2, 535680, Note_on_c, 0, 39, 45
2, 535843, Note_on_c, 0, 75, 0
2, 535860, Note_on_c, 0, 72, 75
2, 536005, Note_on_c, 0, 39, 0
2, 536023, Note_on_c, 0, 72, 0
2, 536040, Note_on_c, 0, 69, 78
2, 536040, Note_on_c, 0, 48, 61
2, 536203, Note_on_c, 0, 69, 0
2, 536220, Note_on_c, 0, 65, 70
2, 536365, Note_on_c, 0, 48, 0
2, 536383, Note_on_c, 0, 65, 0
2, 536400, Note_on_c, 0, 63, 77
2, 536400, Note_on_c, 0, 53, 61
2, 536563, Note_on_c, 0, 63, 0
2, 536580, Note_on_c, 0, 60, 73
2, 536725, Note_on_c, 0, 53, 0
2, 536743, Note_on_c, 0, 60, 0
2, 536760, Note_on_c, 0, 59, 77
2, 536760, Note_on_c, 0, 57, 61
2, 536923, Note_on_c, 0, 59, 0
2, 536940, Note_on_c, 0, 60, 84
2, 537085, Note_on_c, 0, 57, 0
2, 537103, Note_on_c, 0, 60, 0
2, 537120, Note_on_c, 0, 63, 89
2, 537120, Note_on_c, 0, 53, 49
2, 537283, Note_on_c, 0, 63, 0
2, 537300, Note_on_c, 0, 65, 87
2, 537445, Note_on_c, 0, 53, 0
2, 537463, Note_on_c, 0, 65, 0
2, 537480, Note_on_c, 0, 68, 91
2, 537480, Note_on_c, 0, 48, 44
2, 537643, Note_on_c, 0, 68, 0
2, 537660, Note_on_c, 0, 72, 90
2, 537805, Note_on_c, 0, 48, 0
2, 537823, Note_on_c, 0, 72, 0
2, 537840, Note_on_c, 0, 71, 84
2, 537840, Note_on_c, 0, 39, 43
2, 538003, Note_on_c, 0, 71, 0
2, 538020, Note_on_c, 0, 68, 75
2, 538165, Note_on_c, 0, 39, 0
2, 538183, Note_on_c, 0, 68, 0
2, 538200, Note_on_c, 0, 64, 74
2, 538200, Note_on_c, 0, 47, 61
2, 538363, Note_on_c, 0, 64, 0
2, 538380, Note_on_c, 0, 62, 73
2, 538525, Note_on_c, 0, 47, 0
2, 538543, Note_on_c, 0, 62, 0
2, 538560, Note_on_c, 0, 59, 75
2, 538560, Note_on_c, 0, 52, 60
2, 538723, Note_on_c, 0, 59, 0
2, 538740, Note_on_c, 0, 56, 74
2, 538885, Note_on_c, 0, 52, 0
2, 538903, Note_on_c, 0, 56, 0
2, 538920, Note_on_c, 0, 55, 81
2, 539083, Note_on_c, 0, 55, 0
2, 539100, Note_on_c, 0, 56, 81
2, 539263, Note_on_c, 0, 56, 0
2, 539280, Note_on_c, 0, 59, 90
2, 539280, Note_on_c, 0, 52, 50
2, 539443, Note_on_c, 0, 59, 0
2, 539460, Note_on_c, 0, 62, 86
2, 539605, Note_on_c, 0, 52, 0
2, 539623, Note_on_c, 0, 62, 0
2, 539640, Note_on_c, 0, 64, 90
2, 539640, Note_on_c, 0, 47, 46
2, 539803, Note_on_c, 0, 64, 0
2, 539820, Note_on_c, 0, 68, 88
2, 539965, Note_on_c, 0, 47, 0
2, 539983, Note_on_c, 0, 68, 0
2, 540000, Note_on_c, 0, 67, 80
2, 540000, Note_on_c, 0, 39, 47
2, 540325, Note_on_c, 0, 39, 0
2, 540325, Note_on_c, 0, 67, 0
2, 540360, Note_on_c, 0, 46, 59
2, 540685, Note_on_c, 0, 46, 0
2, 540720, Note_on_c, 0, 51, 58
2, 541045, Note_on_c, 0, 51, 0
2, 541080, Note_on_c, 0, 55, 62
2, 541405, Note_on_c, 0, 55, 0
2, 541440, Note_on_c, 0, 51, 47
2, 541765, Note_on_c, 0, 51, 0
2, 541800, Note_on_c, 0, 46, 44
2, 542125, Note_on_c, 0, 46, 0
2, 542160, Note_on_c, 0, 63, 83
2, 542160, Note_on_c, 0, 67, 81
2, 542160, Note_on_c, 0, 71, 80
2, 542160, Note_on_c, 0, 75, 80
2, 542160, Note_on_c, 0, 39, 45
2, 542485, Note_on_c, 0, 39, 0
2, 542520, Note_on_c, 0, 55, 63
2, 542845, Note_on_c, 0, 55, 0
2, 542880, Note_on_c, 0, 75, 0
2, 542880, Note_on_c, 0, 67, 0
2, 542880, Note_on_c, 0, 63, 0
2, 542880, Note_on_c, 0, 71, 0
2, 542880, Note_on_c, 0, 62, 80
2, 542880, Note_on_c, 0, 67, 82
2, 542880, Note_on_c, 0, 71, 82
2, 542880, Note_on_c, 0, 74, 82
2, 542880, Note_on_c, 0, 59, 61
2, 543205, Note_on_c, 0, 59, 0
2, 543240, Note_on_c, 0, 67, 67
2, 543565, Note_on_c, 0, 67, 0
2, 543565, Note_on_c, 0, 74, 0
2, 543565, Note_on_c, 0, 67, 0
2, 543565, Note_on_c, 0, 62, 0
2, 543565, Note_on_c, 0, 71, 0
2, 543600, Note_on_c, 0, 63, 89
2, 543600, Note_on_c, 0, 67, 90
2, 543600, Note_on_c, 0, 71, 89
2, 543600, Note_on_c, 0, 75, 91
2, 543600, Note_on_c, 0, 59, 44
2, 543925, Note_on_c, 0, 59, 0
2, 543960, Note_on_c, 0, 55, 45
2, 544285, Note_on_c, 0, 55, 0
2, 544320, Note_on_c, 0, 75, 0
2, 544320, Note_on_c, 0, 67, 0
2, 544320, Note_on_c, 0, 63, 0
2, 544320, Note_on_c, 0, 71, 0
2, 544320, Note_on_c, 0, 63, 84
2, 544320, Note_on_c, 0, 67, 86
2, 544320, Note_on_c, 0, 72, 82
2, 544320, Note_on_c, 0, 75, 84
2, 544320, Note_on_c, 0, 39, 41
2, 544645, Note_on_c, 0, 39, 0
2, 544680, Note_on_c, 0, 55, 64
2, 545005, Note_on_c, 0, 55, 0
2, 545040, Note_on_c, 0, 60, 63
2, 545365, Note_on_c, 0, 60, 0
2, 545400, Note_on_c, 0, 67, 65
2, 545725, Note_on_c, 0, 67, 0
2, 545760, Note_on_c, 0, 60, 48
2, 546085, Note_on_c, 0, 60, 0
2, 546120, Note_on_c, 0, 55, 45
2, 546445, Note_on_c, 0, 55, 0
2, 546480, Note_on_c, 0, 51, 49
2, 546805, Note_on_c, 0, 51, 0
2, 546840, Note_on_c, 0, 55, 57
2, 547130, Note_on_c, 0, 67, 0
2, 547130, Note_on_c, 0, 63, 0
2, 547130, Note_on_c, 0, 72, 0
2, 547130, Note_on_c, 0, 75, 0
2, 547165, Note_on_c, 0, 55, 0
2, 547200, Note_on_c, 0, 63, 75
2, 547200, Note_on_c, 0, 67, 72
2, 547200, Note_on_c, 0, 72, 75
2, 547200, Note_on_c, 0, 61, 59
2, 547525, Note_on_c, 0, 61, 0
2, 547560, Note_on_c, 0, 67, 63
2, 547885, Note_on_c, 0, 67, 0
2, 547885, Note_on_c, 0, 72, 0
2, 547885, Note_on_c, 0, 63, 0
2, 547885, Note_on_c, 0, 67, 0
2, 547920, Note_on_c, 0, 63, 77
2, 547920, Note_on_c, 0, 67, 76
2, 547920, Note_on_c, 0, 71, 77
2, 547920, Note_on_c, 0, 61, 45
2, 548245, Note_on_c, 0, 61, 0
2, 548280, Note_on_c, 0, 55, 44
2, 548570, Note_on_c, 0, 67, 0
2, 548570, Note_on_c, 0, 63, 0
2, 548570, Note_on_c, 0, 71, 0
2, 548605, Note_on_c, 0, 55, 0
2, 548640, Note_on_c, 0, 60, 86
2, 548640, Note_on_c, 0, 63, 85
2, 548640, Note_on_c, 0, 66, 87
2, 548640, Note_on_c, 0, 69, 87
2, 548640, Note_on_c, 0, 72, 87
2, 548640, Note_on_c, 0, 39, 41
2, 548965, Note_on_c, 0, 39, 0
2, 549000, Note_on_c, 0, 54, 62
2, 549325, Note_on_c, 0, 54, 0
2, 549360, Note_on_c, 0, 60, 60
2, 549685, Note_on_c, 0, 60, 0
2, 549720, Note_on_c, 0, 66, 67
2, 550045, Note_on_c, 0, 66, 0
2, 550080, Note_on_c, 0, 60, 47
2, 550405, Note_on_c, 0, 60, 0
2, 550440, Note_on_c, 0, 54, 46
2, 550730, Note_on_c, 0, 66, 0
2, 550730, Note_on_c, 0, 60, 0
2, 550730, Note_on_c, 0, 72, 0
2, 550730, Note_on_c, 0, 69, 0
2, 550730, Note_on_c, 0, 63, 0
2, 550765, Note_on_c, 0, 54, 0
2, 550800, Note_on_c, 0, 60, 74
2, 550800, Note_on_c, 0, 63, 74
2, 550800, Note_on_c, 0, 68, 76
2, 550800, Note_on_c, 0, 51, 49
2, 551125, Note_on_c, 0, 51, 0
2, 551160, Note_on_c, 0, 54, 56
2, 551450, Note_on_c, 0, 63, 0
2, 551450, Note_on_c, 0, 60, 0
2, 551450, Note_on_c, 0, 68, 0
2, 551485, Note_on_c, 0, 54, 0
2, 551520, Note_on_c, 0, 63, 78
2, 551520, Note_on_c, 0, 67, 75
2, 551520, Note_on_c, 0, 60, 60
2, 551845, Note_on_c, 0, 60, 0
2, 551880, Note_on_c, 0, 63, 61
2, 552205, Note_on_c, 0, 63, 0
2, 552205, Note_on_c, 0, 67, 0
2, 552205, Note_on_c, 0, 63, 0
2, 552240, Note_on_c, 0, 63, 78
2, 552240, Note_on_c, 0, 66, 78
2, 552240, Note_on_c, 0, 60, 50
2, 552565, Note_on_c, 0, 60, 0
2, 552600, Note_on_c, 0, 54, 44
2, 552890, Note_on_c, 0, 63, 0
2, 552890, Note_on_c, 0, 66, 0
2, 552925, Note_on_c, 0, 54, 0
2, 552960, Note_on_c, 0, 57, 80
2, 552960, Note_on_c, 0, 60, 78
2, 552960, Note_on_c, 0, 65, 80
2, 552960, Note_on_c, 0, 39, 44
2, 553285, Note_on_c, 0, 39, 0
2, 553320, Note_on_c, 0, 53, 64
2, 553645, Note_on_c, 0, 53, 0
2, 553680, Note_on_c, 0, 57, 60
2, 554005, Note_on_c, 0, 57, 0
2, 554040, Note_on_c, 0, 60, 60
2, 554365, Note_on_c, 0, 60, 0
2, 554400, Note_on_c, 0, 57, 47
2, 554725, Note_on_c, 0, 57, 0
2, 554760, Note_on_c, 0, 53, 47
2, 555050, Note_on_c, 0, 60, 0
2, 555050, Note_on_c, 0, 65, 0
2, 555050, Note_on_c, 0, 57, 0
2, 555085, Note_on_c, 0, 53, 0
2, 555120, Note_on_c, 0, 56, 82
2, 555120, Note_on_c, 0, 64, 79
2, 555120, Note_on_c, 0, 39, 44
2, 555445, Note_on_c, 0, 39, 0
2, 555480, Note_on_c, 0, 52, 64
2, 555805, Note_on_c, 0, 52, 0
2, 555840, Note_on_c, 0, 56, 60
2, 556165, Note_on_c, 0, 56, 0
2, 556200, Note_on_c, 0, 59, 62
2, 556525, Note_on_c, 0, 59, 0
2, 556525, Note_on_c, 0, 56, 0
2, 556525, Note_on_c, 0, 64, 0
2, 556560, Note_on_c, 0, 56, 74
2, 556560, Note_on_c, 0, 62, 77
2, 556560, Note_on_c, 0, 56, 50
2, 556885, Note_on_c, 0, 56, 0
2, 556920, Note_on_c, 0, 52, 49
2, 557210, Note_on_c, 0, 62, 0
2, 557210, Note_on_c, 0, 56, 0
2, 557245, Note_on_c, 0, 52, 0
2, 557280, Note_on_c, 0, 55, 85
2, 557280, Note_on_c, 0, 63, 86
2, 557280, Note_on_c, 0, 39, 55
2, 557280, Note_on_c, 0, 46, 54
2, 557280, Note_on_c, 0, 51, 52
2, 557605, Note_on_c, 0, 51, 0
2, 557605, Note_on_c, 0, 46, 0
2, 557605, Note_on_c, 0, 63, 0
2, 557605, Note_on_c, 0, 55, 0
2, 557605, Note_on_c, 0, 39, 0
2, 557640, Note_on_c, 0, 63, 84
2, 557640, Note_on_c, 0, 51, 54
2, 557803, Note_on_c, 0, 51, 0
2, 557803, Note_on_c, 0, 63, 0
2, 557820, Note_on_c, 0, 62, 79
2, 557820, Note_on_c, 0, 50, 51
2, 557983, Note_on_c, 0, 50, 0
2, 557983, Note_on_c, 0, 62, 0
2, 558000, Note_on_c, 0, 63, 85
2, 558000, Note_on_c, 0, 51, 57
2, 558163, Note_on_c, 0, 51, 0
2, 558163, Note_on_c, 0, 63, 0
2, 558180, Note_on_c, 0, 62, 75
2, 558180, Note_on_c, 0, 50, 52
2, 558343, Note_on_c, 0, 50, 0
2, 558343, Note_on_c, 0, 62, 0
2, 558360, Note_on_c, 0, 63, 86
2, 558360, Note_on_c, 0, 51, 56
2, 558523, Note_on_c, 0, 51, 0
2, 558523, Note_on_c, 0, 63, 0
2, 558540, Note_on_c, 0, 62, 77
2, 558540, Note_on_c, 0, 50, 51
2, 558703, Note_on_c, 0, 50, 0
2, 558703, Note_on_c, 0, 62, 0
2, 558720, Note_on_c, 0, 63, 87
2, 558720, Note_on_c, 0, 51, 56
2, 558883, Note_on_c, 0, 51, 0
2, 558883, Note_on_c, 0, 63, 0
2, 558900, Note_on_c, 0, 62, 79
2, 558900, Note_on_c, 0, 50, 49
2, 559063, Note_on_c, 0, 50, 0
2, 559063, Note_on_c, 0, 62, 0
2, 559080, Note_on_c, 0, 63, 86
2, 559080, Note_on_c, 0, 51, 57
2, 559243, Note_on_c, 0, 51, 0
2, 559243, Note_on_c, 0, 63, 0
2, 559260, Note_on_c, 0, 62, 78
2, 559260, Note_on_c, 0, 50, 52
2, 559423, Note_on_c, 0, 50, 0
2, 559423, Note_on_c, 0, 62, 0
2, 559440, Note_on_c, 0, 63, 87
2, 559440, Note_on_c, 0, 51, 56
2, 559603, Note_on_c, 0, 51, 0
2, 559603, Note_on_c, 0, 63, 0
2, 559620, Note_on_c, 0, 62, 78
2, 559620, Note_on_c, 0, 50, 50
2, 559783, Note_on_c, 0, 50, 0
2, 559783, Note_on_c, 0, 62, 0
2, 559800, Note_on_c, 0, 63, 84
2, 559800, Note_on_c, 0, 51, 58
2, 559963, Note_on_c, 0, 51, 0
2, 559963, Note_on_c, 0, 63, 0
2, 559980, Note_on_c, 0, 62, 78
2, 559980, Note_on_c, 0, 50, 51
2, 560143, Note_on_c, 0, 50, 0
2, 560143, Note_on_c, 0, 62, 0
2, 560160, Note_on_c, 0, 63, 87
2, 560160, Note_on_c, 0, 51, 57
2, 560323, Note_on_c, 0, 51, 0
2, 560323, Note_on_c, 0, 63, 0
2, 560340, Note_on_c, 0, 62, 78
2, 560340, Note_on_c, 0, 50, 52
2, 560503, Note_on_c, 0, 50, 0
2, 560503, Note_on_c, 0, 62, 0
2, 560520, Note_on_c, 0, 63, 84
2, 560520, Note_on_c, 0, 51, 57
2, 560683, Note_on_c, 0, 51, 0
2, 560683, Note_on_c, 0, 63, 0
2, 560700, Note_on_c, 0, 62, 77
2, 560700, Note_on_c, 0, 50, 48
2, 560863, Note_on_c, 0, 50, 0
2, 560863, Note_on_c, 0, 62, 0
2, 560880, Note_on_c, 0, 63, 86
2, 560880, Note_on_c, 0, 51, 57
2, 561043, Note_on_c, 0, 51, 0
2, 561043, Note_on_c, 0, 63, 0
2, 561060, Note_on_c, 0, 62, 78
2, 561060, Note_on_c, 0, 50, 51
2, 561223, Note_on_c, 0, 50, 0
2, 561223, Note_on_c, 0, 62, 0
2, 561240, Note_on_c, 0, 63, 84
2, 561240, Note_on_c, 0, 51, 57
2, 561565, Note_on_c, 0, 51, 0
2, 561565, Note_on_c, 0, 63, 0
2, 561600, Note_on_c, 0, 53, 92
2, 561600, Note_on_c, 0, 55, 92
2, 561600, Note_on_c, 0, 59, 93
2, 561600, Note_on_c, 0, 63, 91
2, 561600, Note_on_c, 0, 67, 92
2, 561600, Note_on_c, 0, 31, 46
2, 561600, Note_on_c, 0, 43, 47
2, 562610, Note_on_c, 0, 43, 0
2, 562610, Note_on_c, 0, 31, 0
2, 562610, Note_on_c, 0, 63, 0
2, 562610, Note_on_c, 0, 53, 0
2, 562610, Note_on_c, 0, 55, 0
2, 562610, Note_on_c, 0, 67, 0
2, 562610, Note_on_c, 0, 59, 0
2, 563040, Note_on_c, 0, 75, 72
2, 563040, Note_on_c, 0, 63, 48
2, 563527, Note_on_c, 0, 63, 0
2, 563527, Note_on_c, 0, 75, 0
2, 563580, Note_on_c, 0, 74, 74
2, 563580, Note_on_c, 0, 62, 51
2, 563743, Note_on_c, 0, 62, 0
2, 563743, Note_on_c, 0, 74, 0
2, 563760, Note_on_c, 0, 75, 86
2, 563760, Note_on_c, 0, 63, 55
2, 563937, Note_on_c, 0, 63, 0
2, 563937, Note_on_c, 0, 75, 0
2, 564480, Note_on_c, 0, 75, 94
2, 564480, Note_on_c, 0, 63, 70
2, 565165, Note_on_c, 0, 63, 0
2, 565165, Note_on_c, 0, 75, 0
2, 565200, Note_on_c, 0, 75, 81
2, 565200, Note_on_c, 0, 63, 53
2, 565687, Note_on_c, 0, 63, 0
2, 565687, Note_on_c, 0, 75, 0
2, 565740, Note_on_c, 0, 74, 79
2, 565740, Note_on_c, 0, 62, 50
2, 565903, Note_on_c, 0, 62, 0
2, 565903, Note_on_c, 0, 74, 0
2, 565920, Note_on_c, 0, 75, 87
2, 565920, Note_on_c, 0, 63, 59
2, 566097, Note_on_c, 0, 63, 0
2, 566097, Note_on_c, 0, 75, 0
2, 566280, Note_on_c, 0, 87, 103
2, 566280, Note_on_c, 0, 63, 57
2, 566443, Note_on_c, 0, 63, 0
2, 566443, Note_on_c, 0, 87, 0
2, 566460, Note_on_c, 0, 86, 79
2, 566460, Note_on_c, 0, 62, 49
2, 566623, Note_on_c, 0, 62, 0
2, 566623, Note_on_c, 0, 86, 0
2, 566640, Note_on_c, 0, 87, 87
2, 566640, Note_on_c, 0, 63, 56
2, 566803, Note_on_c, 0, 63, 0
2, 566803, Note_on_c, 0, 87, 0
2, 566820, Note_on_c, 0, 86, 76
2, 566820, Note_on_c, 0, 62, 49
2, 566983, Note_on_c, 0, 62, 0
2, 566983, Note_on_c, 0, 86, 0
2, 567000, Note_on_c, 0, 87, 88
2, 567000, Note_on_c, 0, 63, 58
2, 567163, Note_on_c, 0, 63, 0
2, 567163, Note_on_c, 0, 87, 0
2, 567180, Note_on_c, 0, 86, 78
2, 567180, Note_on_c, 0, 62, 50
2, 567343, Note_on_c, 0, 62, 0
2, 567343, Note_on_c, 0, 86, 0
2, 567360, Note_on_c, 0, 87, 87
2, 567360, Note_on_c, 0, 63, 56
2, 567523, Note_on_c, 0, 63, 0
2, 567523, Note_on_c, 0, 87, 0
2, 567540, Note_on_c, 0, 86, 77
2, 567540, Note_on_c, 0, 62, 48
2, 567703, Note_on_c, 0, 62, 0
2, 567703, Note_on_c, 0, 86, 0
2, 567720, Note_on_c, 0, 87, 86
2, 567720, Note_on_c, 0, 63, 58
2, 567883, Note_on_c, 0, 63, 0
2, 567883, Note_on_c, 0, 87, 0
2, 567900, Note_on_c, 0, 87, 82
2, 567900, Note_on_c, 0, 63, 53
2, 568063, Note_on_c, 0, 63, 0
2, 568063, Note_on_c, 0, 87, 0
2, 568080, Note_on_c, 0, 87, 85
2, 568080, Note_on_c, 0, 63, 56
2, 568405, Note_on_c, 0, 63, 0
2, 568405, Note_on_c, 0, 87, 0
2, 568440, Note_on_c, 0, 87, 85
2, 568440, Note_on_c, 0, 75, 68
2, 568603, Note_on_c, 0, 75, 0
2, 568603, Note_on_c, 0, 87, 0
2, 568620, Note_on_c, 0, 86, 77
2, 568620, Note_on_c, 0, 74, 55
2, 568783, Note_on_c, 0, 74, 0
2, 568783, Note_on_c, 0, 86, 0
2, 568800, Note_on_c, 0, 87, 87
2, 568800, Note_on_c, 0, 75, 58
2, 568963, Note_on_c, 0, 75, 0
2, 568963, Note_on_c, 0, 87, 0
2, 568980, Note_on_c, 0, 86, 78
2, 568980, Note_on_c, 0, 74, 50
2, 569143, Note_on_c, 0, 74, 0
2, 569143, Note_on_c, 0, 86, 0
2, 569160, Note_on_c, 0, 87, 88
2, 569160, Note_on_c, 0, 75, 60
2, 569323, Note_on_c, 0, 75, 0
2, 569323, Note_on_c, 0, 87, 0
2, 569340, Note_on_c, 0, 86, 78
2, 569340, Note_on_c, 0, 74, 52
2, 569503, Note_on_c, 0, 74, 0
2, 569503, Note_on_c, 0, 86, 0
2, 569520, Note_on_c, 0, 87, 87
2, 569520, Note_on_c, 0, 75, 56
2, 569683, Note_on_c, 0, 75, 0
2, 569683, Note_on_c, 0, 87, 0
2, 569700, Note_on_c, 0, 86, 75
2, 569700, Note_on_c, 0, 74, 52
2, 569863, Note_on_c, 0, 74, 0
2, 569863, Note_on_c, 0, 86, 0
2, 569880, Note_on_c, 0, 87, 87
2, 569880, Note_on_c, 0, 75, 57
2, 570205, Note_on_c, 0, 75, 0
2, 570205, Note_on_c, 0, 87, 0
2, 570240, Note_on_c, 0, 81, 96
2, 570240, Note_on_c, 0, 83, 99
2, 570240, Note_on_c, 0, 87, 97
2, 570240, Note_on_c, 0, 90, 100
2, 570240, Note_on_c, 0, 95, 99
2, 570240, Note_on_c, 0, 54, 44
2, 570240, Note_on_c, 0, 57, 47
2, 570240, Note_on_c, 0, 59, 44
2, 570240, Note_on_c, 0, 63, 46
2, 570240, Note_on_c, 0, 66, 45
2, 570565, Note_on_c, 0, 66, 0
2, 570565, Note_on_c, 0, 87, 0
2, 570565, Note_on_c, 0, 57, 0
2, 570565, Note_on_c, 0, 90, 0
2, 570565, Note_on_c, 0, 95, 0
2, 570565, Note_on_c, 0, 81, 0
2, 570565, Note_on_c, 0, 54, 0
2, 570565, Note_on_c, 0, 83, 0
2, 570565, Note_on_c, 0, 59, 0
2, 570565, Note_on_c, 0, 63, 0
2, 570600, Note_on_c, 0, 59, 65
2, 570763, Note_on_c, 0, 59, 0
2, 570780, Note_on_c, 0, 58, 72
2, 570943, Note_on_c, 0, 58, 0
2, 570960, Note_on_c, 0, 59, 86
2, 571123, Note_on_c, 0, 59, 0
2, 571140, Note_on_c, 0, 58, 76
2, 571303, Note_on_c, 0, 58, 0
2, 571320, Note_on_c, 0, 59, 87
2, 571483, Note_on_c, 0, 59, 0
2, 571500, Note_on_c, 0, 58, 77
2, 571663, Note_on_c, 0, 58, 0
2, 571680, Note_on_c, 0, 59, 86
2, 571843, Note_on_c, 0, 59, 0
2, 571860, Note_on_c, 0, 58, 77
2, 572023, Note_on_c, 0, 58, 0
2, 572040, Note_on_c, 0, 59, 88
2, 572203, Note_on_c, 0, 59, 0
2, 572220, Note_on_c, 0, 58, 76
2, 572383, Note_on_c, 0, 58, 0
2, 572400, Note_on_c, 0, 59, 86
2, 572563, Note_on_c, 0, 59, 0
2, 572580, Note_on_c, 0, 58, 75
2, 572743, Note_on_c, 0, 58, 0
2, 572760, Note_on_c, 0, 59, 87
2, 572923, Note_on_c, 0, 59, 0
2, 572940, Note_on_c, 0, 58, 78
2, 573103, Note_on_c, 0, 58, 0
2, 573120, Note_on_c, 0, 59, 84
2, 573283, Note_on_c, 0, 59, 0
2, 573300, Note_on_c, 0, 58, 79
2, 573463, Note_on_c, 0, 58, 0
2, 573480, Note_on_c, 0, 59, 87
2, 573643, Note_on_c, 0, 59, 0
2, 573660, Note_on_c, 0, 58, 77
2, 573823, Note_on_c, 0, 58, 0
2, 573840, Note_on_c, 0, 59, 88
2, 574003, Note_on_c, 0, 59, 0
2, 574020, Note_on_c, 0, 58, 76
2, 574183, Note_on_c, 0, 58, 0
2, 574200, Note_on_c, 0, 59, 88
2, 574525, Note_on_c, 0, 59, 0
2, 574560, Note_on_c, 0, 71, 106
2, 574723, Note_on_c, 0, 71, 0
2, 574740, Note_on_c, 0, 68, 76
2, 574903, Note_on_c, 0, 68, 0
2, 574920, Note_on_c, 0, 62, 72
2, 574920, Note_on_c, 0, 56, 50
2, 574920, Note_on_c, 0, 59, 48
2, 575083, Note_on_c, 0, 62, 0
2, 575097, Note_on_c, 0, 56, 0
2, 575097, Note_on_c, 0, 59, 0
2, 575100, Note_on_c, 0, 68, 90
2, 575263, Note_on_c, 0, 68, 0
2, 575280, Note_on_c, 0, 71, 91
2, 575280, Note_on_c, 0, 56, 52
2, 575280, Note_on_c, 0, 59, 51
2, 575443, Note_on_c, 0, 71, 0
2, 575457, Note_on_c, 0, 56, 0
2, 575457, Note_on_c, 0, 59, 0
2, 575460, Note_on_c, 0, 68, 75
2, 575623, Note_on_c, 0, 68, 0
2, 575640, Note_on_c, 0, 62, 70
2, 575803, Note_on_c, 0, 62, 0
2, 575820, Note_on_c, 0, 68, 92
2, 575983, Note_on_c, 0, 68, 0
2, 576000, Note_on_c, 0, 71, 90
2, 576000, Note_on_c, 0, 56, 48
2, 576000, Note_on_c, 0, 59, 49
2, 576163, Note_on_c, 0, 71, 0
2, 576177, Note_on_c, 0, 56, 0
2, 576177, Note_on_c, 0, 59, 0
2, 576180, Note_on_c, 0, 68, 75
2, 576343, Note_on_c, 0, 68, 0
2, 576360, Note_on_c, 0, 62, 70
2, 576360, Note_on_c, 0, 57, 52
2, 576360, Note_on_c, 0, 59, 52
2, 576523, Note_on_c, 0, 62, 0
2, 576537, Note_on_c, 0, 57, 0
2, 576537, Note_on_c, 0, 59, 0
2, 576540, Note_on_c, 0, 69, 91
2, 576703, Note_on_c, 0, 69, 0
2, 576720, Note_on_c, 0, 71, 88
2, 576883, Note_on_c, 0, 71, 0
2, 576900, Note_on_c, 0, 68, 75
2, 577063, Note_on_c, 0, 68, 0
2, 577080, Note_on_c, 0, 62, 70
2, 577080, Note_on_c, 0, 56, 46
2, 577080, Note_on_c, 0, 59, 49
2, 577243, Note_on_c, 0, 62, 0
2, 577257, Note_on_c, 0, 56, 0
2, 577257, Note_on_c, 0, 59, 0
2, 577260, Note_on_c, 0, 68, 89
2, 577423, Note_on_c, 0, 68, 0
2, 577440, Note_on_c, 0, 71, 90
2, 577440, Note_on_c, 0, 56, 53
2, 577440, Note_on_c, 0, 59, 51
2, 577603, Note_on_c, 0, 71, 0
2, 577617, Note_on_c, 0, 56, 0
2, 577617, Note_on_c, 0, 59, 0
2, 577620, Note_on_c, 0, 68, 77
2, 577783, Note_on_c, 0, 68, 0
2, 577800, Note_on_c, 0, 71, 90
2, 577963, Note_on_c, 0, 71, 0
2, 577980, Note_on_c, 0, 74, 90
2, 578143, Note_on_c, 0, 74, 0
2, 578160, Note_on_c, 0, 77, 90
2, 578160, Note_on_c, 0, 59, 46
2, 578160, Note_on_c, 0, 62, 48
2, 578160, Note_on_c, 0, 69, 48
2, 578337, Note_on_c, 0, 69, 0
2, 578337, Note_on_c, 0, 59, 0
2, 578337, Note_on_c, 0, 77, 0
2, 578337, Note_on_c, 0, 62, 0
2, 578700, Note_on_c, 0, 72, 74
2, 578863, Note_on_c, 0, 72, 0
2, 578880, Note_on_c, 0, 71, 80
2, 579043, Note_on_c, 0, 71, 0
2, 579060, Note_on_c, 0, 68, 75
2, 579223, Note_on_c, 0, 68, 0
2, 579240, Note_on_c, 0, 62, 72
2, 579240, Note_on_c, 0, 56, 47
2, 579240, Note_on_c, 0, 59, 50
2, 579403, Note_on_c, 0, 62, 0
2, 579417, Note_on_c, 0, 56, 0
2, 579417, Note_on_c, 0, 59, 0
2, 579420, Note_on_c, 0, 68, 90
2, 579583, Note_on_c, 0, 68, 0
2, 579600, Note_on_c, 0, 71, 91
2, 579600, Note_on_c, 0, 56, 54
2, 579600, Note_on_c, 0, 59, 53
2, 579763, Note_on_c, 0, 71, 0
2, 579777, Note_on_c, 0, 56, 0
2, 579777, Note_on_c, 0, 59, 0
2, 579780, Note_on_c, 0, 68, 76
2, 579943, Note_on_c, 0, 68, 0
2, 579960, Note_on_c, 0, 62, 72
2, 580123, Note_on_c, 0, 62, 0
2, 580140, Note_on_c, 0, 68, 92
2, 580303, Note_on_c, 0, 68, 0
2, 580320, Note_on_c, 0, 71, 92
2, 580320, Note_on_c, 0, 56, 47
2, 580320, Note_on_c, 0, 59, 48
2, 580483, Note_on_c, 0, 71, 0
2, 580497, Note_on_c, 0, 56, 0
2, 580497, Note_on_c, 0, 59, 0
2, 580500, Note_on_c, 0, 68, 75
2, 580663, Note_on_c, 0, 68, 0
2, 580680, Note_on_c, 0, 62, 73
2, 580680, Note_on_c, 0, 57, 53
2, 580680, Note_on_c, 0, 59, 54
2, 580843, Note_on_c, 0, 62, 0
2, 580857, Note_on_c, 0, 57, 0
2, 580857, Note_on_c, 0, 59, 0
2, 580860, Note_on_c, 0, 69, 90
2, 581023, Note_on_c, 0, 69, 0
2, 581040, Note_on_c, 0, 71, 90
2, 581203, Note_on_c, 0, 71, 0
2, 581220, Note_on_c, 0, 68, 75
2, 581383, Note_on_c, 0, 68, 0
2, 581400, Note_on_c, 0, 62, 73
2, 581400, Note_on_c, 0, 56, 48
2, 581400, Note_on_c, 0, 59, 48
2, 581563, Note_on_c, 0, 62, 0
2, 581577, Note_on_c, 0, 56, 0
2, 581577, Note_on_c, 0, 59, 0
2, 581580, Note_on_c, 0, 68, 91
2, 581743, Note_on_c, 0, 68, 0
2, 581760, Note_on_c, 0, 71, 94
2, 581760, Note_on_c, 0, 56, 52
2, 581760, Note_on_c, 0, 59, 54
2, 581923, Note_on_c, 0, 71, 0
2, 581937, Note_on_c, 0, 56, 0
2, 581937, Note_on_c, 0, 59, 0
2, 581940, Note_on_c, 0, 68, 76
2, 582103, Note_on_c, 0, 68, 0
2, 582120, Note_on_c, 0, 71, 88
2, 582283, Note_on_c, 0, 71, 0
2, 582300, Note_on_c, 0, 74, 89
2, 582463, Note_on_c, 0, 74, 0
2, 582480, Note_on_c, 0, 76, 89
2, 582480, Note_on_c, 0, 62, 48
2, 582480, Note_on_c, 0, 64, 48
2, 582480, Note_on_c, 0, 68, 47
2, 582657, Note_on_c, 0, 68, 0
2, 582657, Note_on_c, 0, 62, 0
2, 582657, Note_on_c, 0, 76, 0
2, 582657, Note_on_c, 0, 64, 0
2, 583020, Note_on_c, 0, 71, 74
2, 583183, Note_on_c, 0, 71, 0
2, 583200, Note_on_c, 0, 71, 81
2, 583363, Note_on_c, 0, 71, 0
2, 583380, Note_on_c, 0, 67, 71
2, 583543, Note_on_c, 0, 67, 0
2, 583560, Note_on_c, 0, 62, 74
2, 583560, Note_on_c, 0, 55, 46
2, 583560, Note_on_c, 0, 59, 47
2, 583723, Note_on_c, 0, 62, 0
2, 583737, Note_on_c, 0, 55, 0
2, 583737, Note_on_c, 0, 59, 0
2, 583740, Note_on_c, 0, 67, 87
2, 583903, Note_on_c, 0, 67, 0
2, 583920, Note_on_c, 0, 71, 92
2, 583920, Note_on_c, 0, 55, 52
2, 583920, Note_on_c, 0, 59, 51
2, 584083, Note_on_c, 0, 71, 0
2, 584097, Note_on_c, 0, 55, 0
2, 584097, Note_on_c, 0, 59, 0
2, 584100, Note_on_c, 0, 67, 75
2, 584263, Note_on_c, 0, 67, 0
2, 584280, Note_on_c, 0, 62, 72
2, 584443, Note_on_c, 0, 62, 0
2, 584460, Note_on_c, 0, 67, 87
2, 584623, Note_on_c, 0, 67, 0
2, 584640, Note_on_c, 0, 71, 94
2, 584640, Note_on_c, 0, 55, 47
2, 584640, Note_on_c, 0, 59, 47
2, 584803, Note_on_c, 0, 71, 0
2, 584817, Note_on_c, 0, 55, 0
2, 584817, Note_on_c, 0, 59, 0
2, 584820, Note_on_c, 0, 67, 73
2, 584983, Note_on_c, 0, 67, 0
2, 585000, Note_on_c, 0, 62, 71
2, 585000, Note_on_c, 0, 55, 50
2, 585000, Note_on_c, 0, 59, 53
2, 585163, Note_on_c, 0, 62, 0
2, 585177, Note_on_c, 0, 55, 0
2, 585177, Note_on_c, 0, 59, 0
2, 585180, Note_on_c, 0, 69, 92
2, 585343, Note_on_c, 0, 69, 0
2, 585360, Note_on_c, 0, 71, 92
2, 585523, Note_on_c, 0, 71, 0
2, 585540, Note_on_c, 0, 67, 71
2, 585703, Note_on_c, 0, 67, 0
2, 585720, Note_on_c, 0, 62, 71
2, 585720, Note_on_c, 0, 55, 49
2, 585720, Note_on_c, 0, 59, 49
2, 585883, Note_on_c, 0, 62, 0
2, 585897, Note_on_c, 0, 55, 0
2, 585897, Note_on_c, 0, 59, 0
2, 585900, Note_on_c, 0, 67, 90
2, 586063, Note_on_c, 0, 67, 0
2, 586080, Note_on_c, 0, 71, 93
2, 586080, Note_on_c, 0, 55, 50
2, 586080, Note_on_c, 0, 59, 53
2, 586243, Note_on_c, 0, 71, 0
2, 586257, Note_on_c, 0, 55, 0
2, 586257, Note_on_c, 0, 59, 0
2, 586260, Note_on_c, 0, 62, 65
2, 586423, Note_on_c, 0, 62, 0
2, 586440, Note_on_c, 0, 67, 91
2, 586603, Note_on_c, 0, 67, 0
2, 586620, Note_on_c, 0, 71, 90
2, 586783, Note_on_c, 0, 71, 0
2, 586800, Note_on_c, 0, 74, 92
2, 586800, Note_on_c, 0, 59, 46
2, 586800, Note_on_c, 0, 62, 49
2, 586800, Note_on_c, 0, 67, 49
2, 586977, Note_on_c, 0, 67, 0
2, 586977, Note_on_c, 0, 59, 0
2, 586977, Note_on_c, 0, 74, 0
2, 586977, Note_on_c, 0, 62, 0
2, 587340, Note_on_c, 0, 71, 71
2, 587503, Note_on_c, 0, 71, 0
2, 587520, Note_on_c, 0, 71, 80
2, 587683, Note_on_c, 0, 71, 0
2, 587700, Note_on_c, 0, 67, 73
2, 587863, Note_on_c, 0, 67, 0
2, 587880, Note_on_c, 0, 64, 76
2, 587880, Note_on_c, 0, 52, 49
2, 587880, Note_on_c, 0, 55, 48
2, 587880, Note_on_c, 0, 60, 50
2, 588043, Note_on_c, 0, 64, 0
2, 588057, Note_on_c, 0, 55, 0
2, 588057, Note_on_c, 0, 52, 0
2, 588057, Note_on_c, 0, 60, 0
2, 588060, Note_on_c, 0, 67, 87
2, 588223, Note_on_c, 0, 67, 0
2, 588240, Note_on_c, 0, 71, 92
2, 588240, Note_on_c, 0, 52, 51
2, 588240, Note_on_c, 0, 55, 50
2, 588240, Note_on_c, 0, 60, 51
2, 588403, Note_on_c, 0, 71, 0
2, 588417, Note_on_c, 0, 55, 0
2, 588417, Note_on_c, 0, 52, 0
2, 588417, Note_on_c, 0, 60, 0
2, 588420, Note_on_c, 0, 67, 72
2, 588583, Note_on_c, 0, 67, 0
2, 588600, Note_on_c, 0, 64, 77
2, 588763, Note_on_c, 0, 64, 0
2, 588780, Note_on_c, 0, 67, 84
2, 588943, Note_on_c, 0, 67, 0
2, 588960, Note_on_c, 0, 71, 93
2, 588960, Note_on_c, 0, 52, 47
2, 588960, Note_on_c, 0, 55, 48
2, 588960, Note_on_c, 0, 60, 49
2, 589123, Note_on_c, 0, 71, 0
2, 589137, Note_on_c, 0, 55, 0
2, 589137, Note_on_c, 0, 52, 0
2, 589137, Note_on_c, 0, 60, 0
2, 589140, Note_on_c, 0, 67, 74
2, 589303, Note_on_c, 0, 67, 0
2, 589320, Note_on_c, 0, 64, 75
2, 589320, Note_on_c, 0, 52, 52
2, 589320, Note_on_c, 0, 55, 51
2, 589320, Note_on_c, 0, 60, 50
2, 589483, Note_on_c, 0, 64, 0
2, 589497, Note_on_c, 0, 55, 0
2, 589497, Note_on_c, 0, 52, 0
2, 589497, Note_on_c, 0, 60, 0
2, 589500, Note_on_c, 0, 69, 91
2, 589663, Note_on_c, 0, 69, 0
2, 589680, Note_on_c, 0, 71, 88
2, 589843, Note_on_c, 0, 71, 0
2, 589860, Note_on_c, 0, 66, 71
2, 590023, Note_on_c, 0, 66, 0
2, 590040, Note_on_c, 0, 62, 74
2, 590040, Note_on_c, 0, 50, 47
2, 590040, Note_on_c, 0, 54, 47
2, 590040, Note_on_c, 0, 60, 48
2, 590203, Note_on_c, 0, 62, 0
2, 590217, Note_on_c, 0, 54, 0
2, 590217, Note_on_c, 0, 50, 0
2, 590217, Note_on_c, 0, 60, 0
2, 590220, Note_on_c, 0, 66, 88
2, 590383, Note_on_c, 0, 66, 0
2, 590400, Note_on_c, 0, 71, 95
2, 590400, Note_on_c, 0, 50, 52
2, 590400, Note_on_c, 0, 54, 51
2, 590400, Note_on_c, 0, 60, 53
2, 590563, Note_on_c, 0, 71, 0
2, 590577, Note_on_c, 0, 54, 0
2, 590577, Note_on_c, 0, 50, 0
2, 590577, Note_on_c, 0, 60, 0
2, 590580, Note_on_c, 0, 66, 71
2, 590743, Note_on_c, 0, 66, 0
2, 590760, Note_on_c, 0, 62, 74
2, 590923, Note_on_c, 0, 62, 0
2, 590940, Note_on_c, 0, 66, 87
2, 591103, Note_on_c, 0, 66, 0
2, 591120, Note_on_c, 0, 71, 95
2, 591120, Note_on_c, 0, 50, 47
2, 591120, Note_on_c, 0, 54, 49
2, 591120, Note_on_c, 0, 60, 47
2, 591283, Note_on_c, 0, 71, 0
2, 591297, Note_on_c, 0, 54, 0
2, 591297, Note_on_c, 0, 50, 0
2, 591297, Note_on_c, 0, 60, 0
2, 591300, Note_on_c, 0, 66, 71
2, 591463, Note_on_c, 0, 66, 0
2, 591480, Note_on_c, 0, 62, 73
2, 591480, Note_on_c, 0, 50, 53
2, 591480, Note_on_c, 0, 54, 54
2, 591480, Note_on_c, 0, 60, 54
2, 591643, Note_on_c, 0, 62, 0
2, 591657, Note_on_c, 0, 54, 0
2, 591657, Note_on_c, 0, 50, 0
2, 591657, Note_on_c, 0, 60, 0
2, 591660, Note_on_c, 0, 69, 92
2, 591823, Note_on_c, 0, 69, 0
2, 591840, Note_on_c, 0, 71, 89
2, 592003, Note_on_c, 0, 71, 0
2, 592020, Note_on_c, 0, 64, 67
2, 592183, Note_on_c, 0, 64, 0
2, 592200, Note_on_c, 0, 62, 76
2, 592200, Note_on_c, 0, 55, 47
2, 592200, Note_on_c, 0, 59, 49
2, 592363, Note_on_c, 0, 62, 0
2, 592377, Note_on_c, 0, 55, 0
2, 592377, Note_on_c, 0, 59, 0
2, 592380, Note_on_c, 0, 69, 91
2, 592543, Note_on_c, 0, 69, 0
2, 592560, Note_on_c, 0, 71, 91
2, 592560, Note_on_c, 0, 55, 53
2, 592560, Note_on_c, 0, 59, 51
2, 592723, Note_on_c, 0, 71, 0
2, 592737, Note_on_c, 0, 55, 0
2, 592737, Note_on_c, 0, 59, 0
2, 592740, Note_on_c, 0, 66, 71
2, 592903, Note_on_c, 0, 66, 0
2, 592920, Note_on_c, 0, 67, 84
2, 593083, Note_on_c, 0, 67, 0
2, 593100, Note_on_c, 0, 69, 85
2, 593263, Note_on_c, 0, 69, 0
2, 593280, Note_on_c, 0, 71, 89
2, 593280, Note_on_c, 0, 55, 47
2, 593280, Note_on_c, 0, 59, 48
2, 593443, Note_on_c, 0, 71, 0
2, 593457, Note_on_c, 0, 55, 0
2, 593457, Note_on_c, 0, 59, 0
2, 593460, Note_on_c, 0, 69, 76
2, 593623, Note_on_c, 0, 69, 0
2, 593640, Note_on_c, 0, 67, 78
2, 593640, Note_on_c, 0, 55, 50
2, 593640, Note_on_c, 0, 59, 50
2, 593803, Note_on_c, 0, 67, 0
2, 593817, Note_on_c, 0, 55, 0
2, 593817, Note_on_c, 0, 59, 0
2, 593820, Note_on_c, 0, 69, 85
2, 593983, Note_on_c, 0, 69, 0
2, 594000, Note_on_c, 0, 71, 89
2, 594163, Note_on_c, 0, 71, 0
2, 594180, Note_on_c, 0, 62, 66
2, 594343, Note_on_c, 0, 62, 0
2, 594360, Note_on_c, 0, 67, 90
2, 594360, Note_on_c, 0, 55, 50
2, 594360, Note_on_c, 0, 59, 47
2, 594523, Note_on_c, 0, 67, 0
2, 594537, Note_on_c, 0, 55, 0
2, 594537, Note_on_c, 0, 59, 0
2, 594540, Note_on_c, 0, 69, 84
2, 594703, Note_on_c, 0, 69, 0
2, 594720, Note_on_c, 0, 71, 88
2, 594720, Note_on_c, 0, 55, 54
2, 594720, Note_on_c, 0, 59, 54
2, 594883, Note_on_c, 0, 71, 0
2, 594897, Note_on_c, 0, 55, 0
2, 594897, Note_on_c, 0, 59, 0
2, 594900, Note_on_c, 0, 66, 70
2, 595063, Note_on_c, 0, 66, 0
2, 595080, Note_on_c, 0, 67, 85
2, 595243, Note_on_c, 0, 67, 0
2, 595260, Note_on_c, 0, 71, 89
2, 595423, Note_on_c, 0, 71, 0
2, 595440, Note_on_c, 0, 79, 98
2, 595440, Note_on_c, 0, 55, 46
2, 595440, Note_on_c, 0, 59, 49
2, 595603, Note_on_c, 0, 79, 0
2, 595617, Note_on_c, 0, 55, 0
2, 595617, Note_on_c, 0, 59, 0
2, 595620, Note_on_c, 0, 71, 68
2, 595783, Note_on_c, 0, 71, 0
2, 595800, Note_on_c, 0, 67, 71
2, 595800, Note_on_c, 0, 55, 53
2, 595800, Note_on_c, 0, 59, 51
2, 595963, Note_on_c, 0, 67, 0
2, 595977, Note_on_c, 0, 55, 0
2, 595977, Note_on_c, 0, 59, 0
2, 595980, Note_on_c, 0, 72, 88
2, 596143, Note_on_c, 0, 72, 0
2, 596160, Note_on_c, 0, 71, 80
2, 596323, Note_on_c, 0, 71, 0
2, 596340, Note_on_c, 0, 67, 71
2, 596503, Note_on_c, 0, 67, 0
2, 596520, Note_on_c, 0, 69, 87
2, 596520, Note_on_c, 0, 55, 47
2, 596520, Note_on_c, 0, 59, 48
2, 596683, Note_on_c, 0, 69, 0
2, 596697, Note_on_c, 0, 55, 0
2, 596697, Note_on_c, 0, 59, 0
2, 596700, Note_on_c, 0, 67, 75
2, 596863, Note_on_c, 0, 67, 0
2, 596880, Note_on_c, 0, 71, 89
2, 596880, Note_on_c, 0, 55, 51
2, 596880, Note_on_c, 0, 59, 53
2, 597043, Note_on_c, 0, 71, 0
2, 597057, Note_on_c, 0, 55, 0
2, 597057, Note_on_c, 0, 59, 0
2, 597060, Note_on_c, 0, 66, 74
2, 597223, Note_on_c, 0, 66, 0
2, 597240, Note_on_c, 0, 67, 85
2, 597403, Note_on_c, 0, 67, 0
2, 597420, Note_on_c, 0, 66, 76
2, 597583, Note_on_c, 0, 66, 0
2, 597600, Note_on_c, 0, 71, 92
2, 597600, Note_on_c, 0, 55, 48
2, 597600, Note_on_c, 0, 59, 48
2, 597763, Note_on_c, 0, 71, 0
2, 597777, Note_on_c, 0, 55, 0
2, 597777, Note_on_c, 0, 59, 0
2, 597780, Note_on_c, 0, 64, 70
2, 597943, Note_on_c, 0, 64, 0
2, 597960, Note_on_c, 0, 62, 78
2, 597960, Note_on_c, 0, 55, 51
2, 597960, Note_on_c, 0, 59, 51
2, 598123, Note_on_c, 0, 62, 0
2, 598137, Note_on_c, 0, 55, 0
2, 598137, Note_on_c, 0, 59, 0
2, 598140, Note_on_c, 0, 69, 92
2, 598303, Note_on_c, 0, 69, 0
2, 598320, Note_on_c, 0, 71, 91
2, 598483, Note_on_c, 0, 71, 0
2, 598500, Note_on_c, 0, 67, 74
2, 598663, Note_on_c, 0, 67, 0
2, 598680, Note_on_c, 0, 69, 89
2, 598680, Note_on_c, 0, 55, 49
2, 598680, Note_on_c, 0, 59, 49
2, 598843, Note_on_c, 0, 69, 0
2, 598857, Note_on_c, 0, 55, 0
2, 598857, Note_on_c, 0, 59, 0
2, 598860, Note_on_c, 0, 67, 76
2, 599023, Note_on_c, 0, 67, 0
2, 599040, Note_on_c, 0, 71, 91
2, 599040, Note_on_c, 0, 55, 53
2, 599040, Note_on_c, 0, 59, 50
2, 599203, Note_on_c, 0, 71, 0
2, 599217, Note_on_c, 0, 55, 0
2, 599217, Note_on_c, 0, 59, 0
2, 599220, Note_on_c, 0, 69, 75
2, 599383, Note_on_c, 0, 69, 0
2, 599400, Note_on_c, 0, 71, 89
2, 599563, Note_on_c, 0, 71, 0
2, 599580, Note_on_c, 0, 79, 95
2, 599743, Note_on_c, 0, 79, 0
2, 599760, Note_on_c, 0, 83, 95
2, 599760, Note_on_c, 0, 55, 48
2, 599760, Note_on_c, 0, 59, 48
2, 599760, Note_on_c, 0, 64, 50
2, 599923, Note_on_c, 0, 83, 0
2, 599937, Note_on_c, 0, 59, 0
2, 599937, Note_on_c, 0, 55, 0
2, 599937, Note_on_c, 0, 64, 0
2, 599940, Note_on_c, 0, 79, 72
2, 600103, Note_on_c, 0, 79, 0
2, 600120, Note_on_c, 0, 71, 69
2, 600120, Note_on_c, 0, 59, 57
2, 600120, Note_on_c, 0, 64, 56
2, 600120, Note_on_c, 0, 67, 55
2, 600283, Note_on_c, 0, 71, 0
2, 600297, Note_on_c, 0, 64, 0
2, 600297, Note_on_c, 0, 59, 0
2, 600297, Note_on_c, 0, 67, 0
2, 600300, Note_on_c, 0, 81, 95
2, 600463, Note_on_c, 0, 81, 0
2, 600480, Note_on_c, 0, 79, 104
2, 600480, Note_on_c, 0, 83, 103
2, 600480, Note_on_c, 0, 62, 60
2, 600480, Note_on_c, 0, 67, 59
2, 600480, Note_on_c, 0, 71, 61
2, 600657, Note_on_c, 0, 71, 0
2, 600657, Note_on_c, 0, 67, 0
2, 600657, Note_on_c, 0, 83, 0
2, 600657, Note_on_c, 0, 79, 0
2, 600657, Note_on_c, 0, 62, 0
2, 600840, Note_on_c, 0, 76, 75
2, 600840, Note_on_c, 0, 64, 49
2, 601003, Note_on_c, 0, 64, 0
2, 601003, Note_on_c, 0, 76, 0
2, 601020, Note_on_c, 0, 74, 76
2, 601020, Note_on_c, 0, 67, 55
2, 601183, Note_on_c, 0, 67, 0
2, 601183, Note_on_c, 0, 74, 0
2, 601200, Note_on_c, 0, 81, 72
2, 601200, Note_on_c, 0, 81, 95
2, 601200, Note_on_c, 0, 69, 57
2, 601363, Note_on_c, 0, 81, 0
2, 601380, Note_on_c, 0, 78, 76
2, 601525, Note_on_c, 0, 81, 0
2, 601525, Note_on_c, 0, 69, 0
2, 601543, Note_on_c, 0, 78, 0
2, 601560, Note_on_c, 0, 76, 76
2, 601560, Note_on_c, 0, 62, 45
2, 601723, Note_on_c, 0, 62, 0
2, 601723, Note_on_c, 0, 76, 0
2, 601740, Note_on_c, 0, 74, 76
2, 601740, Note_on_c, 0, 66, 57
2, 601903, Note_on_c, 0, 66, 0
2, 601903, Note_on_c, 0, 74, 0
2, 601920, Note_on_c, 0, 79, 73
2, 601920, Note_on_c, 0, 79, 93
2, 601920, Note_on_c, 0, 67, 54
2, 602083, Note_on_c, 0, 79, 0
2, 602100, Note_on_c, 0, 76, 78
2, 602245, Note_on_c, 0, 79, 0
2, 602245, Note_on_c, 0, 67, 0
2, 602263, Note_on_c, 0, 76, 0
2, 602280, Note_on_c, 0, 74, 79
2, 602280, Note_on_c, 0, 62, 52
2, 602443, Note_on_c, 0, 62, 0
2, 602443, Note_on_c, 0, 74, 0
2, 602460, Note_on_c, 0, 71, 72
2, 602460, Note_on_c, 0, 64, 54
2, 602623, Note_on_c, 0, 64, 0
2, 602623, Note_on_c, 0, 71, 0
2, 602640, Note_on_c, 0, 78, 77
2, 602640, Note_on_c, 0, 78, 95
2, 602640, Note_on_c, 0, 66, 61
2, 602803, Note_on_c, 0, 78, 0
2, 602820, Note_on_c, 0, 74, 72
2, 602965, Note_on_c, 0, 78, 0
2, 602965, Note_on_c, 0, 66, 0
2, 602983, Note_on_c, 0, 74, 0
2, 603000, Note_on_c, 0, 71, 75
2, 603000, Note_on_c, 0, 59, 47
2, 603163, Note_on_c, 0, 59, 0
2, 603163, Note_on_c, 0, 71, 0
2, 603180, Note_on_c, 0, 67, 72
2, 603180, Note_on_c, 0, 62, 55
2, 603343, Note_on_c, 0, 62, 0
2, 603343, Note_on_c, 0, 67, 0
2, 603360, Note_on_c, 0, 76, 71
2, 603360, Note_on_c, 0, 76, 96
2, 603360, Note_on_c, 0, 64, 57
2, 603523, Note_on_c, 0, 76, 0
2, 603540, Note_on_c, 0, 72, 75
2, 603685, Note_on_c, 0, 76, 0
2, 603685, Note_on_c, 0, 64, 0
2, 603703, Note_on_c, 0, 72, 0
2, 603720, Note_on_c, 0, 71, 80
2, 603720, Note_on_c, 0, 59, 51
2, 603883, Note_on_c, 0, 59, 0
2, 603883, Note_on_c, 0, 71, 0
2, 603900, Note_on_c, 0, 67, 73
2, 603900, Note_on_c, 0, 60, 55
2, 604063, Note_on_c, 0, 60, 0
2, 604063, Note_on_c, 0, 67, 0
2, 604080, Note_on_c, 0, 74, 73
2, 604080, Note_on_c, 0, 74, 96
2, 604080, Note_on_c, 0, 62, 58
2, 604243, Note_on_c, 0, 74, 0
2, 604260, Note_on_c, 0, 71, 78
2, 604405, Note_on_c, 0, 74, 0
2, 604405, Note_on_c, 0, 62, 0
2, 604423, Note_on_c, 0, 71, 0
2, 604440, Note_on_c, 0, 69, 79
2, 604440, Note_on_c, 0, 59, 53
2, 604603, Note_on_c, 0, 59, 0
2, 604603, Note_on_c, 0, 69, 0
2, 604620, Note_on_c, 0, 67, 74
2, 604620, Note_on_c, 0, 60, 55
2, 604783, Note_on_c, 0, 60, 0
2, 604783, Note_on_c, 0, 67, 0
2, 604800, Note_on_c, 0, 74, 77
2, 604800, Note_on_c, 0, 74, 95
2, 604800, Note_on_c, 0, 62, 60
2, 604963, Note_on_c, 0, 74, 0
2, 604980, Note_on_c, 0, 71, 76
2, 605125, Note_on_c, 0, 74, 0
2, 605125, Note_on_c, 0, 62, 0
2, 605143, Note_on_c, 0, 71, 0
2, 605160, Note_on_c, 0, 69, 80
2, 605160, Note_on_c, 0, 59, 50
2, 605323, Note_on_c, 0, 69, 0
2, 605340, Note_on_c, 0, 67, 74
2, 605485, Note_on_c, 0, 59, 0
2, 605503, Note_on_c, 0, 67, 0
2, 605520, Note_on_c, 0, 72, 74
2, 605520, Note_on_c, 0, 72, 94
2, 605520, Note_on_c, 0, 60, 55
2, 605683, Note_on_c, 0, 72, 0
2, 605700, Note_on_c, 0, 69, 74
2, 605845, Note_on_c, 0, 72, 0
2, 605845, Note_on_c, 0, 60, 0
2, 605863, Note_on_c, 0, 69, 0
2, 605880, Note_on_c, 0, 67, 77
2, 605880, Note_on_c, 0, 57, 50
2, 606043, Note_on_c, 0, 67, 0
2, 606060, Note_on_c, 0, 64, 73
2, 606205, Note_on_c, 0, 57, 0
2, 606223, Note_on_c, 0, 64, 0
2, 606240, Note_on_c, 0, 71, 75
2, 606240, Note_on_c, 0, 71, 94
2, 606240, Note_on_c, 0, 59, 54
2, 606403, Note_on_c, 0, 71, 0
2, 606420, Note_on_c, 0, 67, 75
2, 606565, Note_on_c, 0, 71, 0
2, 606565, Note_on_c, 0, 59, 0
2, 606583, Note_on_c, 0, 67, 0
2, 606600, Note_on_c, 0, 66, 78
2, 606600, Note_on_c, 0, 55, 47
2, 606763, Note_on_c, 0, 66, 0
2, 606780, Note_on_c, 0, 64, 77
2, 606925, Note_on_c, 0, 55, 0
2, 606943, Note_on_c, 0, 64, 0
2, 606960, Note_on_c, 0, 71, 77
2, 606960, Note_on_c, 0, 71, 95
2, 606960, Note_on_c, 0, 59, 61
2, 607123, Note_on_c, 0, 71, 0
2, 607140, Note_on_c, 0, 67, 75
2, 607285, Note_on_c, 0, 71, 0
2, 607303, Note_on_c, 0, 67, 0
2, 607320, Note_on_c, 0, 66, 80
2, 607483, Note_on_c, 0, 66, 0
2, 607500, Note_on_c, 0, 64, 73
2, 607610, Note_on_c, 0, 59, 0
2, 607663, Note_on_c, 0, 64, 0
2, 607680, Note_on_c, 0, 72, 74
2, 607680, Note_on_c, 0, 72, 100
2, 607680, Note_on_c, 0, 57, 51
2, 607843, Note_on_c, 0, 72, 0
2, 607860, Note_on_c, 0, 64, 66
2, 608005, Note_on_c, 0, 72, 0
2, 608023, Note_on_c, 0, 64, 0
2, 608040, Note_on_c, 0, 62, 79
2, 608203, Note_on_c, 0, 62, 0
2, 608220, Note_on_c, 0, 60, 77
2, 608365, Note_on_c, 0, 57, 0
2, 608383, Note_on_c, 0, 60, 0
2, 608400, Note_on_c, 0, 71, 75
2, 608400, Note_on_c, 0, 71, 102
2, 608400, Note_on_c, 0, 62, 59
2, 608563, Note_on_c, 0, 71, 0
2, 608580, Note_on_c, 0, 66, 73
2, 608725, Note_on_c, 0, 71, 0
2, 608743, Note_on_c, 0, 66, 0
2, 608760, Note_on_c, 0, 64, 77
2, 608923, Note_on_c, 0, 64, 0
2, 608940, Note_on_c, 0, 62, 74
2, 609050, Note_on_c, 0, 62, 0
2, 609103, Note_on_c, 0, 62, 0
2, 609120, Note_on_c, 0, 71, 77
2, 609283, Note_on_c, 0, 71, 0
2, 609300, Note_on_c, 0, 67, 71
2, 609463, Note_on_c, 0, 67, 0
2, 609480, Note_on_c, 0, 69, 84
2, 609480, Note_on_c, 0, 55, 50
2, 609480, Note_on_c, 0, 59, 47
2, 609643, Note_on_c, 0, 69, 0
2, 609657, Note_on_c, 0, 55, 0
2, 609657, Note_on_c, 0, 59, 0
2, 609660, Note_on_c, 0, 67, 76
2, 609823, Note_on_c, 0, 67, 0
2, 609840, Note_on_c, 0, 71, 92
2, 609840, Note_on_c, 0, 55, 51
2, 609840, Note_on_c, 0, 59, 53
2, 610003, Note_on_c, 0, 71, 0
2, 610017, Note_on_c, 0, 55, 0
2, 610017, Note_on_c, 0, 59, 0
2, 610020, Note_on_c, 0, 66, 72
2, 610183, Note_on_c, 0, 66, 0
2, 610200, Note_on_c, 0, 67, 85
2, 610363, Note_on_c, 0, 67, 0
2, 610380, Note_on_c, 0, 66, 77
2, 610543, Note_on_c, 0, 66, 0
2, 610560, Note_on_c, 0, 71, 93
2, 610560, Note_on_c, 0, 55, 47
2, 610560, Note_on_c, 0, 59, 49
2, 610723, Note_on_c, 0, 71, 0
2, 610737, Note_on_c, 0, 55, 0
2, 610737, Note_on_c, 0, 59, 0
2, 610740, Note_on_c, 0, 65, 68
2, 610903, Note_on_c, 0, 65, 0
2, 610920, Note_on_c, 0, 67, 84
2, 610920, Note_on_c, 0, 55, 52
2, 610920, Note_on_c, 0, 59, 50
2, 611083, Note_on_c, 0, 67, 0
2, 611097, Note_on_c, 0, 55, 0
2, 611097, Note_on_c, 0, 59, 0
2, 611100, Note_on_c, 0, 69, 84
2, 611263, Note_on_c, 0, 69, 0
2, 611280, Note_on_c, 0, 71, 88
2, 611443, Note_on_c, 0, 71, 0
2, 611460, Note_on_c, 0, 67, 74
2, 611623, Note_on_c, 0, 67, 0
2, 611640, Note_on_c, 0, 64, 75
2, 611640, Note_on_c, 0, 55, 46
2, 611640, Note_on_c, 0, 59, 46
2, 611803, Note_on_c, 0, 64, 0
2, 611817, Note_on_c, 0, 55, 0
2, 611817, Note_on_c, 0, 59, 0
2, 611820, Note_on_c, 0, 67, 86
2, 611983, Note_on_c, 0, 67, 0
2, 612000, Note_on_c, 0, 71, 94
2, 612000, Note_on_c, 0, 55, 53
2, 612000, Note_on_c, 0, 59, 54
2, 612163, Note_on_c, 0, 71, 0
2, 612177, Note_on_c, 0, 55, 0
2, 612177, Note_on_c, 0, 59, 0
2, 612180, Note_on_c, 0, 66, 73
2, 612343, Note_on_c, 0, 66, 0
2, 612360, Note_on_c, 0, 67, 87
2, 612523, Note_on_c, 0, 67, 0
2, 612540, Note_on_c, 0, 71, 88
2, 612703, Note_on_c, 0, 71, 0
2, 612720, Note_on_c, 0, 79, 100
2, 612720, Note_on_c, 0, 55, 47
2, 612720, Note_on_c, 0, 59, 47
2, 612883, Note_on_c, 0, 79, 0
2, 612897, Note_on_c, 0, 55, 0
2, 612897, Note_on_c, 0, 59, 0
2, 612900, Note_on_c, 0, 71, 68
2, 613063, Note_on_c, 0, 71, 0
2, 613080, Note_on_c, 0, 67, 74
2, 613080, Note_on_c, 0, 55, 51
2, 613080, Note_on_c, 0, 59, 53
2, 613243, Note_on_c, 0, 67, 0
2, 613257, Note_on_c, 0, 55, 0
2, 613257, Note_on_c, 0, 59, 0
2, 613260, Note_on_c, 0, 69, 83
2, 613423, Note_on_c, 0, 69, 0
2, 613440, Note_on_c, 0, 71, 90
2, 613603, Note_on_c, 0, 71, 0
2, 613620, Note_on_c, 0, 64, 66
2, 613783, Note_on_c, 0, 64, 0
2, 613800, Note_on_c, 0, 62, 76
2, 613800, Note_on_c, 0, 55, 50
2, 613800, Note_on_c, 0, 59, 50
2, 613963, Note_on_c, 0, 62, 0
2, 613977, Note_on_c, 0, 55, 0
2, 613977, Note_on_c, 0, 59, 0
2, 613980, Note_on_c, 0, 69, 91
2, 614143, Note_on_c, 0, 69, 0
2, 614160, Note_on_c, 0, 71, 91
2, 614160, Note_on_c, 0, 55, 51
2, 614160, Note_on_c, 0, 59, 50
2, 614323, Note_on_c, 0, 71, 0
2, 614337, Note_on_c, 0, 55, 0
2, 614337, Note_on_c, 0, 59, 0
2, 614340, Note_on_c, 0, 66, 74
2, 614503, Note_on_c, 0, 66, 0
2, 614520, Note_on_c, 0, 67, 88
2, 614683, Note_on_c, 0, 67, 0
2, 614700, Note_on_c, 0, 69, 86
2, 614863, Note_on_c, 0, 69, 0
2, 614880, Note_on_c, 0, 71, 91
2, 614880, Note_on_c, 0, 55, 49
2, 614880, Note_on_c, 0, 59, 46
2, 615043, Note_on_c, 0, 71, 0
2, 615057, Note_on_c, 0, 55, 0
2, 615057, Note_on_c, 0, 59, 0
2, 615060, Note_on_c, 0, 69, 78
2, 615223, Note_on_c, 0, 69, 0
2, 615240, Note_on_c, 0, 67, 78
2, 615240, Note_on_c, 0, 55, 52
2, 615240, Note_on_c, 0, 59, 53
2, 615403, Note_on_c, 0, 67, 0
2, 615417, Note_on_c, 0, 55, 0
2, 615417, Note_on_c, 0, 59, 0
2, 615420, Note_on_c, 0, 69, 87
2, 615583, Note_on_c, 0, 69, 0
2, 615600, Note_on_c, 0, 71, 87
2, 615763, Note_on_c, 0, 71, 0
2, 615780, Note_on_c, 0, 62, 63
2, 615943, Note_on_c, 0, 62, 0
2, 615960, Note_on_c, 0, 67, 90
2, 615960, Note_on_c, 0, 55, 47
2, 615960, Note_on_c, 0, 59, 48
2, 616123, Note_on_c, 0, 67, 0
2, 616137, Note_on_c, 0, 55, 0
2, 616137, Note_on_c, 0, 59, 0
2, 616140, Note_on_c, 0, 69, 84
2, 616303, Note_on_c, 0, 69, 0
2, 616320, Note_on_c, 0, 71, 88
2, 616320, Note_on_c, 0, 55, 51
2, 616320, Note_on_c, 0, 59, 54
2, 616483, Note_on_c, 0, 71, 0
2, 616497, Note_on_c, 0, 55, 0
2, 616497, Note_on_c, 0, 59, 0
2, 616500, Note_on_c, 0, 69, 76
2, 616663, Note_on_c, 0, 69, 0
2, 616680, Note_on_c, 0, 71, 89
2, 616843, Note_on_c, 0, 71, 0
2, 616860, Note_on_c, 0, 79, 95
2, 617023, Note_on_c, 0, 79, 0
2, 617040, Note_on_c, 0, 83, 92
2, 617040, Note_on_c, 0, 55, 46
2, 617040, Note_on_c, 0, 59, 46
2, 617203, Note_on_c, 0, 83, 0
2, 617217, Note_on_c, 0, 55, 0
2, 617217, Note_on_c, 0, 59, 0
2, 617220, Note_on_c, 0, 79, 74
2, 617383, Note_on_c, 0, 79, 0
2, 617400, Note_on_c, 0, 71, 68
2, 617400, Note_on_c, 0, 59, 60
2, 617400, Note_on_c, 0, 67, 59
2, 617563, Note_on_c, 0, 71, 0
2, 617577, Note_on_c, 0, 59, 0
2, 617577, Note_on_c, 0, 67, 0
2, 617580, Note_on_c, 0, 81, 93
2, 617743, Note_on_c, 0, 81, 0
2, 617760, Note_on_c, 0, 79, 102
2, 617760, Note_on_c, 0, 83, 105
2, 617760, Note_on_c, 0, 61, 60
2, 617760, Note_on_c, 0, 67, 62
2, 617760, Note_on_c, 0, 71, 64
2, 617937, Note_on_c, 0, 71, 0
2, 617937, Note_on_c, 0, 67, 0
2, 617937, Note_on_c, 0, 83, 0
2, 617937, Note_on_c, 0, 79, 0
2, 617937, Note_on_c, 0, 61, 0
2, 618120, Note_on_c, 0, 76, 73
2, 618120, Note_on_c, 0, 64, 48
2, 618283, Note_on_c, 0, 64, 0
2, 618283, Note_on_c, 0, 76, 0
2, 618300, Note_on_c, 0, 74, 73
2, 618300, Note_on_c, 0, 67, 55
2, 618463, Note_on_c, 0, 67, 0
2, 618463, Note_on_c, 0, 74, 0
2, 618480, Note_on_c, 0, 81, 74
2, 618480, Note_on_c, 0, 81, 96
2, 618480, Note_on_c, 0, 69, 56
2, 618643, Note_on_c, 0, 81, 0
2, 618660, Note_on_c, 0, 78, 76
2, 618805, Note_on_c, 0, 81, 0
2, 618805, Note_on_c, 0, 69, 0
2, 618823, Note_on_c, 0, 78, 0
2, 618840, Note_on_c, 0, 76, 77
2, 618840, Note_on_c, 0, 62, 49
2, 619003, Note_on_c, 0, 62, 0
2, 619003, Note_on_c, 0, 76, 0
2, 619020, Note_on_c, 0, 71, 71
2, 619020, Note_on_c, 0, 66, 56
2, 619183, Note_on_c, 0, 66, 0
2, 619183, Note_on_c, 0, 71, 0
2, 619200, Note_on_c, 0, 79, 74
2, 619200, Note_on_c, 0, 79, 96
2, 619200, Note_on_c, 0, 67, 55
2, 619363, Note_on_c, 0, 79, 0
2, 619380, Note_on_c, 0, 76, 77
2, 619525, Note_on_c, 0, 79, 0
2, 619525, Note_on_c, 0, 67, 0
2, 619543, Note_on_c, 0, 76, 0
2, 619560, Note_on_c, 0, 74, 77
2, 619560, Note_on_c, 0, 62, 49
2, 619723, Note_on_c, 0, 62, 0
2, 619723, Note_on_c, 0, 74, 0
2, 619740, Note_on_c, 0, 71, 73
2, 619740, Note_on_c, 0, 64, 54
2, 619903, Note_on_c, 0, 64, 0
2, 619903, Note_on_c, 0, 71, 0
2, 619920, Note_on_c, 0, 78, 75
2, 619920, Note_on_c, 0, 78, 97
2, 619920, Note_on_c, 0, 66, 60
2, 620083, Note_on_c, 0, 78, 0
2, 620100, Note_on_c, 0, 74, 73
2, 620245, Note_on_c, 0, 78, 0
2, 620245, Note_on_c, 0, 66, 0
2, 620263, Note_on_c, 0, 74, 0
2, 620280, Note_on_c, 0, 73, 78
2, 620280, Note_on_c, 0, 61, 49
2, 620443, Note_on_c, 0, 61, 0
2, 620443, Note_on_c, 0, 73, 0
2, 620460, Note_on_c, 0, 71, 74
2, 620460, Note_on_c, 0, 62, 53
2, 620623, Note_on_c, 0, 62, 0
2, 620623, Note_on_c, 0, 71, 0
2, 620640, Note_on_c, 0, 76, 72
2, 620640, Note_on_c, 0, 76, 93
2, 620640, Note_on_c, 0, 64, 57
2, 620803, Note_on_c, 0, 76, 0
2, 620820, Note_on_c, 0, 74, 77
2, 620965, Note_on_c, 0, 76, 0
2, 620965, Note_on_c, 0, 64, 0
2, 620983, Note_on_c, 0, 74, 0
2, 621000, Note_on_c, 0, 73, 79
2, 621000, Note_on_c, 0, 59, 51
2, 621163, Note_on_c, 0, 59, 0
2, 621163, Note_on_c, 0, 73, 0
2, 621180, Note_on_c, 0, 71, 75
2, 621180, Note_on_c, 0, 61, 56
2, 621343, Note_on_c, 0, 61, 0
2, 621343, Note_on_c, 0, 71, 0
2, 621360, Note_on_c, 0, 74, 75
2, 621360, Note_on_c, 0, 74, 91
2, 621360, Note_on_c, 0, 62, 54
2, 621523, Note_on_c, 0, 74, 0
2, 621540, Note_on_c, 0, 71, 74
2, 621685, Note_on_c, 0, 74, 0
2, 621685, Note_on_c, 0, 62, 0
2, 621703, Note_on_c, 0, 71, 0
2, 621720, Note_on_c, 0, 69, 80
2, 621720, Note_on_c, 0, 62, 56
2, 621883, Note_on_c, 0, 62, 0
2, 621883, Note_on_c, 0, 69, 0
2, 621900, Note_on_c, 0, 67, 75
2, 621900, Note_on_c, 0, 64, 54
2, 622063, Note_on_c, 0, 64, 0
2, 622063, Note_on_c, 0, 67, 0
2, 622080, Note_on_c, 0, 79, 77
2, 622080, Note_on_c, 0, 79, 102
2, 622080, Note_on_c, 0, 67, 61
2, 622243, Note_on_c, 0, 79, 0
2, 622260, Note_on_c, 0, 76, 79
2, 622405, Note_on_c, 0, 79, 0
2, 622405, Note_on_c, 0, 67, 0
2, 622423, Note_on_c, 0, 76, 0
2, 622440, Note_on_c, 0, 74, 79
2, 622440, Note_on_c, 0, 62, 50
2, 622603, Note_on_c, 0, 62, 0
2, 622603, Note_on_c, 0, 74, 0
2, 622620, Note_on_c, 0, 73, 78
2, 622620, Note_on_c, 0, 64, 57
2, 622783, Note_on_c, 0, 64, 0
2, 622783, Note_on_c, 0, 73, 0
2, 622800, Note_on_c, 0, 78, 74
2, 622800, Note_on_c, 0, 78, 92
2, 622800, Note_on_c, 0, 66, 56
2, 622963, Note_on_c, 0, 78, 0
2, 622980, Note_on_c, 0, 73, 71
2, 623125, Note_on_c, 0, 78, 0
2, 623125, Note_on_c, 0, 66, 0
2, 623143, Note_on_c, 0, 73, 0
2, 623160, Note_on_c, 0, 71, 78
2, 623160, Note_on_c, 0, 61, 51
2, 623323, Note_on_c, 0, 61, 0
2, 623323, Note_on_c, 0, 71, 0
2, 623340, Note_on_c, 0, 70, 77
2, 623340, Note_on_c, 0, 62, 54
2, 623503, Note_on_c, 0, 62, 0
2, 623503, Note_on_c, 0, 70, 0
2, 623520, Note_on_c, 0, 76, 74
2, 623520, Note_on_c, 0, 76, 94
2, 623520, Note_on_c, 0, 64, 58
2, 623683, Note_on_c, 0, 76, 0
2, 623700, Note_on_c, 0, 71, 74
2, 623845, Note_on_c, 0, 76, 0
2, 623845, Note_on_c, 0, 64, 0
2, 623863, Note_on_c, 0, 71, 0
2, 623880, Note_on_c, 0, 70, 78
2, 623880, Note_on_c, 0, 61, 52
2, 624043, Note_on_c, 0, 61, 0
2, 624043, Note_on_c, 0, 70, 0
2, 624060, Note_on_c, 0, 67, 75
2, 624060, Note_on_c, 0, 62, 53
2, 624223, Note_on_c, 0, 62, 0
2, 624223, Note_on_c, 0, 67, 0
2, 624240, Note_on_c, 0, 76, 75
2, 624240, Note_on_c, 0, 76, 99
2, 624240, Note_on_c, 0, 64, 59
2, 624403, Note_on_c, 0, 76, 0
2, 624420, Note_on_c, 0, 71, 74
2, 624565, Note_on_c, 0, 76, 0
2, 624565, Note_on_c, 0, 64, 0
2, 624583, Note_on_c, 0, 71, 0
2, 624600, Note_on_c, 0, 70, 78
2, 624600, Note_on_c, 0, 58, 47
2, 624763, Note_on_c, 0, 58, 0
2, 624763, Note_on_c, 0, 70, 0
2, 624780, Note_on_c, 0, 67, 72
2, 624780, Note_on_c, 0, 61, 54
2, 624943, Note_on_c, 0, 61, 0
2, 624943, Note_on_c, 0, 67, 0
2, 624960, Note_on_c, 0, 74, 74
2, 624960, Note_on_c, 0, 74, 95
2, 624960, Note_on_c, 0, 62, 55
2, 625123, Note_on_c, 0, 74, 0
2, 625140, Note_on_c, 0, 69, 70
2, 625285, Note_on_c, 0, 74, 0
2, 625285, Note_on_c, 0, 62, 0
2, 625303, Note_on_c, 0, 69, 0
2, 625320, Note_on_c, 0, 68, 79
2, 625320, Note_on_c, 0, 59, 52
2, 625483, Note_on_c, 0, 59, 0
2, 625483, Note_on_c, 0, 68, 0
2, 625500, Note_on_c, 0, 64, 74
2, 625500, Note_on_c, 0, 60, 53
2, 625663, Note_on_c, 0, 60, 0
2, 625663, Note_on_c, 0, 64, 0
2, 625680, Note_on_c, 0, 76, 74
2, 625680, Note_on_c, 0, 76, 102
2, 625680, Note_on_c, 0, 62, 56
2, 625843, Note_on_c, 0, 76, 0
2, 625860, Note_on_c, 0, 74, 78
2, 626005, Note_on_c, 0, 76, 0
2, 626005, Note_on_c, 0, 62, 0
2, 626023, Note_on_c, 0, 74, 0
2, 626040, Note_on_c, 0, 72, 79
2, 626040, Note_on_c, 0, 60, 52
2, 626203, Note_on_c, 0, 60, 0
2, 626203, Note_on_c, 0, 72, 0
2, 626220, Note_on_c, 0, 74, 87
2, 626220, Note_on_c, 0, 62, 55
2, 626383, Note_on_c, 0, 62, 0
2, 626383, Note_on_c, 0, 74, 0
2, 626400, Note_on_c, 0, 76, 76
2, 626400, Note_on_c, 0, 64, 60
2, 626563, Note_on_c, 0, 76, 0
2, 626580, Note_on_c, 0, 72, 70
2, 626725, Note_on_c, 0, 64, 0
2, 626743, Note_on_c, 0, 72, 0
2, 626760, Note_on_c, 0, 74, 85
2, 626760, Note_on_c, 0, 52, 52
2, 626760, Note_on_c, 0, 57, 54
2, 626760, Note_on_c, 0, 64, 54
2, 626923, Note_on_c, 0, 74, 0
2, 626937, Note_on_c, 0, 57, 0
2, 626937, Note_on_c, 0, 52, 0
2, 626937, Note_on_c, 0, 64, 0
2, 626940, Note_on_c, 0, 72, 75
2, 627103, Note_on_c, 0, 72, 0
2, 627120, Note_on_c, 0, 76, 90
2, 627120, Note_on_c, 0, 52, 54
2, 627120, Note_on_c, 0, 57, 51
2, 627120, Note_on_c, 0, 64, 52
2, 627283, Note_on_c, 0, 76, 0
2, 627297, Note_on_c, 0, 57, 0
2, 627297, Note_on_c, 0, 52, 0
2, 627297, Note_on_c, 0, 64, 0
2, 627300, Note_on_c, 0, 71, 71
2, 627463, Note_on_c, 0, 71, 0
2, 627480, Note_on_c, 0, 72, 86
2, 627643, Note_on_c, 0, 72, 0
2, 627660, Note_on_c, 0, 71, 78
2, 627823, Note_on_c, 0, 71, 0
2, 627840, Note_on_c, 0, 76, 92
2, 627840, Note_on_c, 0, 50, 47
2, 627840, Note_on_c, 0, 62, 49
2, 627840, Note_on_c, 0, 64, 48
2, 628003, Note_on_c, 0, 76, 0
2, 628017, Note_on_c, 0, 62, 0
2, 628017, Note_on_c, 0, 50, 0
2, 628017, Note_on_c, 0, 64, 0
2, 628020, Note_on_c, 0, 69, 71
2, 628183, Note_on_c, 0, 69, 0
2, 628200, Note_on_c, 0, 71, 85
2, 628200, Note_on_c, 0, 50, 51
2, 628200, Note_on_c, 0, 62, 53
2, 628200, Note_on_c, 0, 64, 54
2, 628363, Note_on_c, 0, 71, 0
2, 628377, Note_on_c, 0, 62, 0
2, 628377, Note_on_c, 0, 50, 0
2, 628377, Note_on_c, 0, 64, 0
2, 628380, Note_on_c, 0, 74, 87
2, 628543, Note_on_c, 0, 74, 0
2, 628560, Note_on_c, 0, 76, 87
2, 628723, Note_on_c, 0, 76, 0
2, 628740, Note_on_c, 0, 72, 72
2, 628903, Note_on_c, 0, 72, 0
2, 628920, Note_on_c, 0, 74, 87
2, 628920, Note_on_c, 0, 52, 48
2, 628920, Note_on_c, 0, 57, 47
2, 628920, Note_on_c, 0, 64, 47
2, 629083, Note_on_c, 0, 74, 0
2, 629097, Note_on_c, 0, 57, 0
2, 629097, Note_on_c, 0, 52, 0
2, 629097, Note_on_c, 0, 64, 0
2, 629100, Note_on_c, 0, 72, 77
2, 629263, Note_on_c, 0, 72, 0
2, 629280, Note_on_c, 0, 76, 93
2, 629280, Note_on_c, 0, 52, 50
2, 629280, Note_on_c, 0, 57, 53
2, 629280, Note_on_c, 0, 64, 52
2, 629443, Note_on_c, 0, 76, 0
2, 629457, Note_on_c, 0, 57, 0
2, 629457, Note_on_c, 0, 52, 0
2, 629457, Note_on_c, 0, 64, 0
2, 629460, Note_on_c, 0, 74, 76
2, 629623, Note_on_c, 0, 74, 0
2, 629640, Note_on_c, 0, 76, 88
2, 629803, Note_on_c, 0, 76, 0
2, 629820, Note_on_c, 0, 78, 87
2, 629983, Note_on_c, 0, 78, 0
2, 630000, Note_on_c, 0, 79, 87
2, 630000, Note_on_c, 0, 55, 48
2, 630000, Note_on_c, 0, 60, 50
2, 630000, Note_on_c, 0, 64, 50
2, 630163, Note_on_c, 0, 79, 0
2, 630177, Note_on_c, 0, 60, 0
2, 630177, Note_on_c, 0, 55, 0
2, 630177, Note_on_c, 0, 64, 0
2, 630180, Note_on_c, 0, 76, 76
2, 630343, Note_on_c, 0, 76, 0
2, 630360, Note_on_c, 0, 74, 77
2, 630360, Note_on_c, 0, 57, 55
2, 630360, Note_on_c, 0, 60, 54
2, 630360, Note_on_c, 0, 66, 54
2, 630523, Note_on_c, 0, 74, 0
2, 630537, Note_on_c, 0, 60, 0
2, 630537, Note_on_c, 0, 57, 0
2, 630537, Note_on_c, 0, 66, 0
2, 630540, Note_on_c, 0, 78, 89
2, 630703, Note_on_c, 0, 78, 0
2, 630720, Note_on_c, 0, 79, 90
2, 630720, Note_on_c, 0, 59, 58
2, 630720, Note_on_c, 0, 62, 58
2, 630720, Note_on_c, 0, 67, 58
2, 630883, Note_on_c, 0, 79, 0
2, 630897, Note_on_c, 0, 62, 0
2, 630897, Note_on_c, 0, 59, 0
2, 630897, Note_on_c, 0, 67, 0
2, 630900, Note_on_c, 0, 71, 68
2, 631063, Note_on_c, 0, 71, 0
2, 631080, Note_on_c, 0, 72, 86
2, 631080, Note_on_c, 0, 50, 45
2, 631080, Note_on_c, 0, 55, 47
2, 631080, Note_on_c, 0, 62, 48
2, 631243, Note_on_c, 0, 72, 0
2, 631257, Note_on_c, 0, 55, 0
2, 631257, Note_on_c, 0, 50, 0
2, 631257, Note_on_c, 0, 62, 0
2, 631260, Note_on_c, 0, 71, 79
2, 631423, Note_on_c, 0, 71, 0
2, 631440, Note_on_c, 0, 74, 89
2, 631440, Note_on_c, 0, 50, 53
2, 631440, Note_on_c, 0, 55, 52
2, 631440, Note_on_c, 0, 62, 50
2, 631603, Note_on_c, 0, 74, 0
2, 631617, Note_on_c, 0, 55, 0
2, 631617, Note_on_c, 0, 50, 0
2, 631617, Note_on_c, 0, 62, 0
2, 631620, Note_on_c, 0, 69, 73
2, 631783, Note_on_c, 0, 69, 0
2, 631800, Note_on_c, 0, 71, 85
2, 631963, Note_on_c, 0, 71, 0
2, 631980, Note_on_c, 0, 69, 77
2, 632143, Note_on_c, 0, 69, 0
2, 632160, Note_on_c, 0, 74, 93
2, 632160, Note_on_c, 0, 50, 49
2, 632160, Note_on_c, 0, 60, 50
2, 632160, Note_on_c, 0, 62, 48
2, 632323, Note_on_c, 0, 74, 0
2, 632337, Note_on_c, 0, 60, 0
2, 632337, Note_on_c, 0, 50, 0
2, 632337, Note_on_c, 0, 62, 0
2, 632340, Note_on_c, 0, 67, 69
2, 632503, Note_on_c, 0, 67, 0
2, 632520, Note_on_c, 0, 66, 76
2, 632520, Note_on_c, 0, 50, 50
2, 632520, Note_on_c, 0, 60, 52
2, 632520, Note_on_c, 0, 62, 51
2, 632683, Note_on_c, 0, 66, 0
2, 632697, Note_on_c, 0, 60, 0
2, 632697, Note_on_c, 0, 50, 0
2, 632697, Note_on_c, 0, 62, 0
2, 632700, Note_on_c, 0, 72, 91
2, 632863, Note_on_c, 0, 72, 0
2, 632880, Note_on_c, 0, 74, 89
2, 633043, Note_on_c, 0, 74, 0
2, 633060, Note_on_c, 0, 67, 68
2, 633223, Note_on_c, 0, 67, 0
2, 633240, Note_on_c, 0, 69, 84
2, 633240, Note_on_c, 0, 50, 48
2, 633240, Note_on_c, 0, 55, 46
2, 633240, Note_on_c, 0, 62, 46
2, 633403, Note_on_c, 0, 69, 0
2, 633417, Note_on_c, 0, 55, 0
2, 633417, Note_on_c, 0, 50, 0
2, 633417, Note_on_c, 0, 62, 0
2, 633420, Note_on_c, 0, 67, 76
2, 633583, Note_on_c, 0, 67, 0
2, 633600, Note_on_c, 0, 74, 97
2, 633600, Note_on_c, 0, 50, 52
2, 633600, Note_on_c, 0, 55, 54
2, 633600, Note_on_c, 0, 62, 52
2, 633763, Note_on_c, 0, 74, 0
2, 633777, Note_on_c, 0, 55, 0
2, 633777, Note_on_c, 0, 50, 0
2, 633777, Note_on_c, 0, 62, 0
2, 633780, Note_on_c, 0, 69, 72
2, 633943, Note_on_c, 0, 69, 0
2, 633960, Note_on_c, 0, 71, 86
2, 634123, Note_on_c, 0, 71, 0
2, 634140, Note_on_c, 0, 74, 86
2, 634303, Note_on_c, 0, 74, 0
2, 634320, Note_on_c, 0, 78, 91
2, 634320, Note_on_c, 0, 55, 49
2, 634320, Note_on_c, 0, 59, 47
2, 634320, Note_on_c, 0, 66, 49
2, 634483, Note_on_c, 0, 78, 0
2, 634497, Note_on_c, 0, 59, 0
2, 634497, Note_on_c, 0, 55, 0
2, 634497, Note_on_c, 0, 66, 0
2, 634500, Note_on_c, 0, 69, 66
2, 634663, Note_on_c, 0, 69, 0
2, 634680, Note_on_c, 0, 71, 87
2, 634680, Note_on_c, 0, 55, 47
2, 634680, Note_on_c, 0, 59, 49
2, 634680, Note_on_c, 0, 64, 49
2, 634843, Note_on_c, 0, 71, 0
2, 634857, Note_on_c, 0, 59, 0
2, 634857, Note_on_c, 0, 55, 0
2, 634857, Note_on_c, 0, 64, 0
2, 634860, Note_on_c, 0, 76, 90
2, 635023, Note_on_c, 0, 76, 0
2, 635040, Note_on_c, 0, 78, 88
2, 635203, Note_on_c, 0, 78, 0
2, 635220, Note_on_c, 0, 73, 73
2, 635383, Note_on_c, 0, 73, 0
2, 635400, Note_on_c, 0, 74, 85
2, 635400, Note_on_c, 0, 54, 46
2, 635400, Note_on_c, 0, 57, 48
2, 635400, Note_on_c, 0, 62, 47
2, 635563, Note_on_c, 0, 74, 0
2, 635577, Note_on_c, 0, 57, 0
2, 635577, Note_on_c, 0, 54, 0
2, 635577, Note_on_c, 0, 62, 0
2, 635580, Note_on_c, 0, 76, 85
2, 635743, Note_on_c, 0, 76, 0
2, 635760, Note_on_c, 0, 78, 89
2, 635760, Note_on_c, 0, 57, 55
2, 635760, Note_on_c, 0, 62, 58
2, 635760, Note_on_c, 0, 66, 59
2, 635923, Note_on_c, 0, 78, 0
2, 635937, Note_on_c, 0, 62, 0
2, 635937, Note_on_c, 0, 57, 0
2, 635937, Note_on_c, 0, 66, 0
2, 635940, Note_on_c, 0, 76, 75
2, 636103, Note_on_c, 0, 76, 0
2, 636120, Note_on_c, 0, 78, 87
2, 636283, Note_on_c, 0, 78, 0
2, 636300, Note_on_c, 0, 81, 86
2, 636463, Note_on_c, 0, 81, 0
2, 636480, Note_on_c, 0, 83, 88
2, 636480, Note_on_c, 0, 54, 47
2, 636480, Note_on_c, 0, 57, 49
2, 636480, Note_on_c, 0, 63, 46
2, 636643, Note_on_c, 0, 83, 0
2, 636657, Note_on_c, 0, 57, 0
2, 636657, Note_on_c, 0, 54, 0
2, 636657, Note_on_c, 0, 63, 0
2, 636660, Note_on_c, 0, 78, 69
2, 636823, Note_on_c, 0, 78, 0
2, 636840, Note_on_c, 0, 79, 84
2, 636840, Note_on_c, 0, 57, 55
2, 636840, Note_on_c, 0, 63, 56
2, 636840, Note_on_c, 0, 66, 55
2, 637003, Note_on_c, 0, 79, 0
2, 637017, Note_on_c, 0, 63, 0
2, 637017, Note_on_c, 0, 57, 0
2, 637017, Note_on_c, 0, 66, 0
2, 637020, Note_on_c, 0, 81, 86
2, 637183, Note_on_c, 0, 81, 0
2, 637200, Note_on_c, 0, 83, 91
2, 637363, Note_on_c, 0, 83, 0
2, 637380, Note_on_c, 0, 78, 70
2, 637543, Note_on_c, 0, 78, 0
2, 637560, Note_on_c, 0, 79, 84
2, 637560, Note_on_c, 0, 55, 47
2, 637560, Note_on_c, 0, 59, 48
2, 637560, Note_on_c, 0, 64, 48
2, 637723, Note_on_c, 0, 79, 0
2, 637737, Note_on_c, 0, 59, 0
2, 637737, Note_on_c, 0, 55, 0
2, 637737, Note_on_c, 0, 64, 0
2, 637740, Note_on_c, 0, 81, 83
2, 637903, Note_on_c, 0, 81, 0
2, 637920, Note_on_c, 0, 83, 88
2, 637920, Note_on_c, 0, 59, 55
2, 637920, Note_on_c, 0, 64, 55
2, 637920, Note_on_c, 0, 67, 58
2, 638083, Note_on_c, 0, 83, 0
2, 638097, Note_on_c, 0, 64, 0
2, 638097, Note_on_c, 0, 59, 0
2, 638097, Note_on_c, 0, 67, 0
2, 638100, Note_on_c, 0, 81, 76
2, 638263, Note_on_c, 0, 81, 0
2, 638280, Note_on_c, 0, 83, 87
2, 638443, Note_on_c, 0, 83, 0
2, 638460, Note_on_c, 0, 86, 89
2, 638623, Note_on_c, 0, 86, 0
2, 638640, Note_on_c, 0, 90, 93
2, 638640, Note_on_c, 0, 56, 47
2, 638640, Note_on_c, 0, 62, 47
2, 638640, Note_on_c, 0, 66, 50
2, 638803, Note_on_c, 0, 90, 0
2, 638817, Note_on_c, 0, 62, 0
2, 638817, Note_on_c, 0, 56, 0
2, 638817, Note_on_c, 0, 66, 0
2, 638820, Note_on_c, 0, 85, 71
2, 638983, Note_on_c, 0, 85, 0
2, 639000, Note_on_c, 0, 83, 80
2, 639000, Note_on_c, 0, 62, 58
2, 639000, Note_on_c, 0, 66, 56
2, 639000, Note_on_c, 0, 71, 58
2, 639163, Note_on_c, 0, 83, 0
2, 639177, Note_on_c, 0, 66, 0
2, 639177, Note_on_c, 0, 62, 0
2, 639177, Note_on_c, 0, 71, 0
2, 639180, Note_on_c, 0, 88, 91
2, 639343, Note_on_c, 0, 88, 0
2, 639360, Note_on_c, 0, 86, 89
2, 639360, Note_on_c, 0, 90, 90
2, 639360, Note_on_c, 0, 54, 49
2, 639360, Note_on_c, 0, 62, 48
2, 639360, Note_on_c, 0, 66, 49
2, 639537, Note_on_c, 0, 66, 0
2, 639537, Note_on_c, 0, 62, 0
2, 639537, Note_on_c, 0, 54, 0
2, 639685, Note_on_c, 0, 86, 0
2, 639685, Note_on_c, 0, 90, 0
2, 639720, Note_on_c, 0, 83, 72
2, 639720, Note_on_c, 0, 74, 65
2, 639883, Note_on_c, 0, 74, 0
2, 639883, Note_on_c, 0, 83, 0
2, 639900, Note_on_c, 0, 81, 74
2, 639900, Note_on_c, 0, 73, 50
2, 640063, Note_on_c, 0, 73, 0
2, 640063, Note_on_c, 0, 81, 0
2, 640080, Note_on_c, 0, 88, 126
2, 640080, Note_on_c, 0, 76, 83
2, 640243, Note_on_c, 0, 76, 0
2, 640243, Note_on_c, 0, 88, 0
2, 640260, Note_on_c, 0, 83, 72
2, 640260, Note_on_c, 0, 71, 46
2, 640423, Note_on_c, 0, 71, 0
2, 640423, Note_on_c, 0, 83, 0
2, 640440, Note_on_c, 0, 81, 77
2, 640440, Note_on_c, 0, 73, 56
2, 640603, Note_on_c, 0, 73, 0
2, 640603, Note_on_c, 0, 81, 0
2, 640620, Note_on_c, 0, 79, 75
2, 640620, Note_on_c, 0, 71, 49
2, 640783, Note_on_c, 0, 71, 0
2, 640783, Note_on_c, 0, 79, 0
2, 640800, Note_on_c, 0, 86, 127
2, 640800, Note_on_c, 0, 74, 84
2, 640963, Note_on_c, 0, 74, 0
2, 640963, Note_on_c, 0, 86, 0
2, 640980, Note_on_c, 0, 81, 72
2, 640980, Note_on_c, 0, 69, 48
2, 641143, Note_on_c, 0, 69, 0
2, 641143, Note_on_c, 0, 81, 0
2, 641160, Note_on_c, 0, 79, 77
2, 641160, Note_on_c, 0, 71, 57
2, 641323, Note_on_c, 0, 71, 0
2, 641323, Note_on_c, 0, 79, 0
2, 641340, Note_on_c, 0, 78, 75
2, 641340, Note_on_c, 0, 69, 49
2, 641503, Note_on_c, 0, 69, 0
2, 641503, Note_on_c, 0, 78, 0
2, 641520, Note_on_c, 0, 85, 125
2, 641520, Note_on_c, 0, 73, 90
2, 641683, Note_on_c, 0, 73, 0
2, 641683, Note_on_c, 0, 85, 0
2, 641700, Note_on_c, 0, 79, 72
2, 641700, Note_on_c, 0, 67, 44
2, 641863, Note_on_c, 0, 67, 0
2, 641863, Note_on_c, 0, 79, 0
2, 641880, Note_on_c, 0, 78, 79
2, 641880, Note_on_c, 0, 69, 56
2, 642043, Note_on_c, 0, 69, 0
2, 642043, Note_on_c, 0, 78, 0
2, 642060, Note_on_c, 0, 74, 72
2, 642060, Note_on_c, 0, 66, 48
2, 642223, Note_on_c, 0, 66, 0
2, 642223, Note_on_c, 0, 74, 0
2, 642240, Note_on_c, 0, 83, 127
2, 642240, Note_on_c, 0, 71, 86
2, 642403, Note_on_c, 0, 71, 0
2, 642403, Note_on_c, 0, 83, 0
2, 642420, Note_on_c, 0, 78, 71
2, 642420, Note_on_c, 0, 66, 48
2, 642583, Note_on_c, 0, 66, 0
2, 642583, Note_on_c, 0, 78, 0
2, 642600, Note_on_c, 0, 76, 78
2, 642600, Note_on_c, 0, 67, 56
2, 642763, Note_on_c, 0, 67, 0
2, 642763, Note_on_c, 0, 76, 0
2, 642780, Note_on_c, 0, 74, 74
2, 642780, Note_on_c, 0, 66, 50
2, 642943, Note_on_c, 0, 66, 0
2, 642943, Note_on_c, 0, 74, 0
2, 642960, Note_on_c, 0, 81, 127
2, 642960, Note_on_c, 0, 69, 85
2, 643123, Note_on_c, 0, 69, 0
2, 643123, Note_on_c, 0, 81, 0
2, 643140, Note_on_c, 0, 74, 70
2, 643140, Note_on_c, 0, 62, 43
2, 643303, Note_on_c, 0, 62, 0
2, 643303, Note_on_c, 0, 74, 0
2, 643320, Note_on_c, 0, 73, 79
2, 643320, Note_on_c, 0, 64, 57
2, 643483, Note_on_c, 0, 64, 0
2, 643483, Note_on_c, 0, 73, 0
2, 643500, Note_on_c, 0, 71, 75
2, 643500, Note_on_c, 0, 62, 50
2, 643663, Note_on_c, 0, 62, 0
2, 643663, Note_on_c, 0, 71, 0
2, 643680, Note_on_c, 0, 86, 127
2, 643680, Note_on_c, 0, 74, 98
2, 643843, Note_on_c, 0, 74, 0
2, 643843, Note_on_c, 0, 86, 0
2, 643860, Note_on_c, 0, 79, 72
2, 643860, Note_on_c, 0, 67, 45
2, 644023, Note_on_c, 0, 67, 0
2, 644023, Note_on_c, 0, 79, 0
2, 644040, Note_on_c, 0, 78, 77
2, 644040, Note_on_c, 0, 69, 58
2, 644203, Note_on_c, 0, 69, 0
2, 644203, Note_on_c, 0, 78, 0
2, 644220, Note_on_c, 0, 76, 73
2, 644220, Note_on_c, 0, 67, 49
2, 644383, Note_on_c, 0, 67, 0
2, 644383, Note_on_c, 0, 76, 0
2, 644400, Note_on_c, 0, 85, 127
2, 644400, Note_on_c, 0, 73, 90
2, 644563, Note_on_c, 0, 73, 0
2, 644563, Note_on_c, 0, 85, 0
2, 644580, Note_on_c, 0, 79, 74
2, 644580, Note_on_c, 0, 67, 47
2, 644743, Note_on_c, 0, 67, 0
2, 644743, Note_on_c, 0, 79, 0
2, 644760, Note_on_c, 0, 78, 79
2, 644760, Note_on_c, 0, 69, 58
2, 644923, Note_on_c, 0, 69, 0
2, 644923, Note_on_c, 0, 78, 0
2, 644940, Note_on_c, 0, 76, 73
2, 644940, Note_on_c, 0, 67, 50
2, 645103, Note_on_c, 0, 67, 0
2, 645103, Note_on_c, 0, 76, 0
2, 645120, Note_on_c, 0, 83, 127
2, 645120, Note_on_c, 0, 71, 85
2, 645283, Note_on_c, 0, 71, 0
2, 645283, Note_on_c, 0, 83, 0
2, 645300, Note_on_c, 0, 78, 74
2, 645300, Note_on_c, 0, 66, 48
2, 645463, Note_on_c, 0, 66, 0
2, 645463, Note_on_c, 0, 78, 0
2, 645480, Note_on_c, 0, 76, 78
2, 645480, Note_on_c, 0, 67, 57
2, 645643, Note_on_c, 0, 67, 0
2, 645643, Note_on_c, 0, 76, 0
2, 645660, Note_on_c, 0, 74, 74
2, 645660, Note_on_c, 0, 71, 58
2, 645823, Note_on_c, 0, 71, 0
2, 645823, Note_on_c, 0, 74, 0
2, 645840, Note_on_c, 0, 81, 125
2, 645840, Note_on_c, 0, 69, 75
2, 646003, Note_on_c, 0, 69, 0
2, 646003, Note_on_c, 0, 81, 0
2, 646020, Note_on_c, 0, 76, 72
2, 646020, Note_on_c, 0, 64, 45
2, 646183, Note_on_c, 0, 64, 0
2, 646183, Note_on_c, 0, 76, 0
2, 646200, Note_on_c, 0, 74, 78
2, 646200, Note_on_c, 0, 67, 60
2, 646363, Note_on_c, 0, 67, 0
2, 646363, Note_on_c, 0, 74, 0
2, 646380, Note_on_c, 0, 73, 74
2, 646380, Note_on_c, 0, 69, 56
2, 646543, Note_on_c, 0, 69, 0
2, 646543, Note_on_c, 0, 73, 0
2, 646560, Note_on_c, 0, 79, 121
2, 646560, Note_on_c, 0, 71, 88
2, 646723, Note_on_c, 0, 71, 0
2, 646723, Note_on_c, 0, 79, 0
2, 646740, Note_on_c, 0, 74, 73
2, 646740, Note_on_c, 0, 64, 43
2, 646903, Note_on_c, 0, 64, 0
2, 646903, Note_on_c, 0, 74, 0
2, 646920, Note_on_c, 0, 73, 77
2, 646920, Note_on_c, 0, 66, 58
2, 647083, Note_on_c, 0, 66, 0
2, 647083, Note_on_c, 0, 73, 0
2, 647100, Note_on_c, 0, 71, 77
2, 647100, Note_on_c, 0, 67, 56
2, 647263, Note_on_c, 0, 67, 0
2, 647263, Note_on_c, 0, 71, 0
2, 647280, Note_on_c, 0, 81, 127
2, 647280, Note_on_c, 0, 69, 87
2, 647443, Note_on_c, 0, 81, 0
2, 647460, Note_on_c, 0, 76, 75
2, 647605, Note_on_c, 0, 69, 0
2, 647623, Note_on_c, 0, 76, 0
2, 647640, Note_on_c, 0, 74, 78
2, 647640, Note_on_c, 0, 71, 58
2, 647803, Note_on_c, 0, 71, 0
2, 647803, Note_on_c, 0, 74, 0
2, 647820, Note_on_c, 0, 73, 77
2, 647820, Note_on_c, 0, 69, 50
2, 647983, Note_on_c, 0, 69, 0
2, 647983, Note_on_c, 0, 73, 0
2, 648000, Note_on_c, 0, 74, 104
2, 648000, Note_on_c, 0, 86, 105
2, 648000, Note_on_c, 0, 57, 51
2, 648000, Note_on_c, 0, 62, 51
2, 648000, Note_on_c, 0, 66, 51
2, 648325, Note_on_c, 0, 66, 0
2, 648325, Note_on_c, 0, 62, 0
2, 648325, Note_on_c, 0, 86, 0
2, 648325, Note_on_c, 0, 74, 0
2, 648325, Note_on_c, 0, 57, 0
2, 649440, Note_on_c, 0, 62, 72
2, 649927, Note_on_c, 0, 62, 0
2, 649980, Note_on_c, 0, 61, 76
2, 650143, Note_on_c, 0, 61, 0
2, 650160, Note_on_c, 0, 62, 85
2, 650337, Note_on_c, 0, 62, 0
2, 650880, Note_on_c, 0, 62, 95
2, 651565, Note_on_c, 0, 62, 0
2, 651600, Note_on_c, 0, 62, 80
2, 652087, Note_on_c, 0, 62, 0
2, 652140, Note_on_c, 0, 61, 78
2, 652303, Note_on_c, 0, 61, 0
2, 652320, Note_on_c, 0, 62, 86
2, 652645, Note_on_c, 0, 62, 0
2, 652680, Note_on_c, 0, 38, 46
2, 652680, Note_on_c, 0, 50, 47
2, 652857, Note_on_c, 0, 50, 0
2, 652857, Note_on_c, 0, 38, 0
2, 653040, Note_on_c, 0, 55, 75
2, 653040, Note_on_c, 0, 60, 72
2, 653040, Note_on_c, 0, 63, 74
2, 653217, Note_on_c, 0, 63, 0
2, 653217, Note_on_c, 0, 55, 0
2, 653217, Note_on_c, 0, 60, 0
2, 653400, Note_on_c, 0, 38, 49
2, 653400, Note_on_c, 0, 50, 50
2, 653577, Note_on_c, 0, 50, 0
2, 653577, Note_on_c, 0, 38, 0
2, 653760, Note_on_c, 0, 57, 72
2, 653760, Note_on_c, 0, 60, 73
2, 653760, Note_on_c, 0, 66, 74
2, 653937, Note_on_c, 0, 66, 0
2, 653937, Note_on_c, 0, 57, 0
2, 653937, Note_on_c, 0, 60, 0
2, 654120, Note_on_c, 0, 38, 49
2, 654120, Note_on_c, 0, 50, 48
2, 654297, Note_on_c, 0, 50, 0
2, 654297, Note_on_c, 0, 38, 0
2, 654480, Note_on_c, 0, 58, 75
2, 654480, Note_on_c, 0, 63, 74
2, 654480, Note_on_c, 0, 67, 75
2, 654657, Note_on_c, 0, 67, 0
2, 654657, Note_on_c, 0, 58, 0
2, 654657, Note_on_c, 0, 63, 0
2, 654840, Note_on_c, 0, 38, 48
2, 654840, Note_on_c, 0, 50, 46
2, 655017, Note_on_c, 0, 50, 0
2, 655017, Note_on_c, 0, 38, 0
2, 655200, Note_on_c, 0, 60, 73
2, 655200, Note_on_c, 0, 66, 73
2, 655200, Note_on_c, 0, 69, 74
2, 655377, Note_on_c, 0, 69, 0
2, 655377, Note_on_c, 0, 60, 0
2, 655377, Note_on_c, 0, 66, 0
2, 655560, Note_on_c, 0, 38, 50
2, 655560, Note_on_c, 0, 50, 51
2, 655737, Note_on_c, 0, 50, 0
2, 655737, Note_on_c, 0, 38, 0
2, 655920, Note_on_c, 0, 60, 72
2, 655920, Note_on_c, 0, 66, 73
2, 655920, Note_on_c, 0, 70, 74
2, 656097, Note_on_c, 0, 70, 0
2, 656097, Note_on_c, 0, 60, 0
2, 656097, Note_on_c, 0, 66, 0
2, 656280, Note_on_c, 0, 38, 46
2, 656280, Note_on_c, 0, 50, 49
2, 656457, Note_on_c, 0, 50, 0
2, 656457, Note_on_c, 0, 38, 0
2, 656640, Note_on_c, 0, 62, 82
2, 656640, Note_on_c, 0, 58, 59
2, 656640, Note_on_c, 0, 62, 60
2, 656640, Note_on_c, 0, 43, 51
2, 656640, Note_on_c, 0, 50, 50
2, 657720, Note_on_c, 0, 62, 0
2, 657720, Note_on_c, 0, 70, 102
2, 658800, Note_on_c, 0, 70, 0
2, 658800, Note_on_c, 0, 69, 88
2, 659880, Note_on_c, 0, 69, 0
2, 659880, Note_on_c, 0, 67, 83
2, 660410, Note_on_c, 0, 58, 0
2, 660410, Note_on_c, 0, 62, 0
2, 660600, Note_on_c, 0, 67, 0
2, 660600, Note_on_c, 0, 62, 69
2, 660890, Note_on_c, 0, 50, 0
2, 660890, Note_on_c, 0, 43, 0
2, 660925, Note_on_c, 0, 62, 0
2, 660960, Note_on_c, 0, 65, 89
2, 660960, Note_on_c, 0, 58, 56
2, 660960, Note_on_c, 0, 62, 56
2, 660960, Note_on_c, 0, 43, 55
2, 660960, Note_on_c, 0, 50, 56
2, 661970, Note_on_c, 0, 65, 0
2, 662040, Note_on_c, 0, 69, 93
2, 663050, Note_on_c, 0, 69, 0
2, 663120, Note_on_c, 0, 67, 80
2, 664130, Note_on_c, 0, 67, 0
2, 664200, Note_on_c, 0, 65, 78
2, 664730, Note_on_c, 0, 58, 0
2, 664730, Note_on_c, 0, 62, 0
2, 664850, Note_on_c, 0, 65, 0
2, 664920, Note_on_c, 0, 58, 65
2, 665210, Note_on_c, 0, 50, 0
2, 665210, Note_on_c, 0, 43, 0
2, 665245, Note_on_c, 0, 58, 0
2, 665280, Note_on_c, 0, 62, 90
2, 665280, Note_on_c, 0, 56, 57
2, 665280, Note_on_c, 0, 62, 55
2, 665280, Note_on_c, 0, 46, 49
2, 666290, Note_on_c, 0, 62, 0
2, 666360, Note_on_c, 0, 67, 94
2, 667370, Note_on_c, 0, 67, 0
2, 667440, Note_on_c, 0, 65, 82
2, 667970, Note_on_c, 0, 62, 0
2, 668450, Note_on_c, 0, 65, 0
2, 668520, Note_on_c, 0, 62, 75
2, 669050, Note_on_c, 0, 56, 0
2, 669170, Note_on_c, 0, 62, 0
2, 669240, Note_on_c, 0, 58, 72
2, 669530, Note_on_c, 0, 46, 0
2, 669600, Note_on_c, 0, 58, 0
2, 669600, Note_on_c, 0, 58, 70
2, 669600, Note_on_c, 0, 67, 70
2, 669600, Note_on_c, 0, 39, 50
2, 669600, Note_on_c, 0, 51, 50
2, 669780, Note_on_c, 0, 70, 74
2, 669780, Note_on_c, 0, 58, 49
2, 669943, Note_on_c, 0, 70, 0
2, 669943, Note_on_c, 0, 58, 0
2, 669960, Note_on_c, 0, 79, 99
2, 669960, Note_on_c, 0, 67, 64
2, 670123, Note_on_c, 0, 79, 0
2, 670123, Note_on_c, 0, 67, 0
2, 670140, Note_on_c, 0, 82, 90
2, 670140, Note_on_c, 0, 70, 58
2, 670303, Note_on_c, 0, 70, 0
2, 670303, Note_on_c, 0, 82, 0
2, 670320, Note_on_c, 0, 79, 77
2, 670320, Note_on_c, 0, 67, 53
2, 670483, Note_on_c, 0, 79, 0
2, 670483, Note_on_c, 0, 67, 0
2, 670500, Note_on_c, 0, 82, 85
2, 670500, Note_on_c, 0, 70, 56
2, 670610, Note_on_c, 0, 58, 0
2, 670610, Note_on_c, 0, 67, 0
2, 670610, Note_on_c, 0, 51, 0
2, 670610, Note_on_c, 0, 39, 0
2, 670663, Note_on_c, 0, 82, 0
2, 670663, Note_on_c, 0, 70, 0
2, 670680, Note_on_c, 0, 84, 89
2, 670680, Note_on_c, 0, 72, 60
2, 670843, Note_on_c, 0, 72, 0
2, 670843, Note_on_c, 0, 84, 0
2, 670860, Note_on_c, 0, 82, 76
2, 670860, Note_on_c, 0, 70, 48
2, 671023, Note_on_c, 0, 70, 0
2, 671023, Note_on_c, 0, 82, 0
2, 671040, Note_on_c, 0, 79, 75
2, 671040, Note_on_c, 0, 67, 53
2, 671203, Note_on_c, 0, 67, 0
2, 671203, Note_on_c, 0, 79, 0
2, 671220, Note_on_c, 0, 82, 88
2, 671220, Note_on_c, 0, 70, 57
2, 671383, Note_on_c, 0, 70, 0
2, 671383, Note_on_c, 0, 82, 0
2, 671400, Note_on_c, 0, 79, 78
2, 671400, Note_on_c, 0, 67, 51
2, 671563, Note_on_c, 0, 67, 0
2, 671563, Note_on_c, 0, 79, 0
2, 671580, Note_on_c, 0, 70, 62
2, 671580, Note_on_c, 0, 58, 41
2, 671743, Note_on_c, 0, 58, 0
2, 671743, Note_on_c, 0, 70, 0
2, 671760, Note_on_c, 0, 39, 47
2, 671760, Note_on_c, 0, 51, 48
2, 671940, Note_on_c, 0, 58, 71
2, 672103, Note_on_c, 0, 58, 0
2, 672120, Note_on_c, 0, 66, 98
2, 672283, Note_on_c, 0, 66, 0
2, 672300, Note_on_c, 0, 70, 92
2, 672463, Note_on_c, 0, 70, 0
2, 672480, Note_on_c, 0, 66, 76
2, 672643, Note_on_c, 0, 66, 0
2, 672660, Note_on_c, 0, 70, 90
2, 672770, Note_on_c, 0, 51, 0
2, 672823, Note_on_c, 0, 70, 0
2, 672840, Note_on_c, 0, 72, 88
2, 672840, Note_on_c, 0, 52, 59
2, 673003, Note_on_c, 0, 72, 0
2, 673020, Note_on_c, 0, 70, 75
2, 673183, Note_on_c, 0, 70, 0
2, 673200, Note_on_c, 0, 66, 75
2, 673363, Note_on_c, 0, 66, 0
2, 673380, Note_on_c, 0, 70, 87
2, 673543, Note_on_c, 0, 70, 0
2, 673560, Note_on_c, 0, 66, 74
2, 673723, Note_on_c, 0, 66, 0
2, 673740, Note_on_c, 0, 60, 68
2, 673850, Note_on_c, 0, 39, 0
2, 673850, Note_on_c, 0, 52, 0
2, 673903, Note_on_c, 0, 60, 0
2, 673920, Note_on_c, 0, 62, 85
2, 673920, Note_on_c, 0, 58, 68
2, 673920, Note_on_c, 0, 62, 69
2, 673920, Note_on_c, 0, 43, 59
2, 673920, Note_on_c, 0, 50, 60
2, 674930, Note_on_c, 0, 62, 0
2, 675000, Note_on_c, 0, 70, 98
2, 676010, Note_on_c, 0, 70, 0
2, 676080, Note_on_c, 0, 69, 84
2, 677090, Note_on_c, 0, 69, 0
2, 677160, Note_on_c, 0, 67, 81
2, 677810, Note_on_c, 0, 67, 0
2, 677880, Note_on_c, 0, 60, 68
2, 678170, Note_on_c, 0, 50, 0
2, 678170, Note_on_c, 0, 58, 0
2, 678170, Note_on_c, 0, 43, 0
2, 678205, Note_on_c, 0, 60, 0
2, 678240, Note_on_c, 0, 62, 85
2, 678240, Note_on_c, 0, 56, 60
2, 678240, Note_on_c, 0, 46, 51
2, 679250, Note_on_c, 0, 62, 0
2, 679320, Note_on_c, 0, 68, 97
2, 680330, Note_on_c, 0, 68, 0
2, 680400, Note_on_c, 0, 67, 82
2, 680930, Note_on_c, 0, 62, 0
2, 681410, Note_on_c, 0, 67, 0
2, 681480, Note_on_c, 0, 65, 80
2, 682010, Note_on_c, 0, 56, 0
2, 682130, Note_on_c, 0, 65, 0
2, 682200, Note_on_c, 0, 60, 69
2, 682490, Note_on_c, 0, 46, 0
2, 682525, Note_on_c, 0, 60, 0
2, 682560, Note_on_c, 0, 62, 88
2, 682560, Note_on_c, 0, 55, 62
2, 682560, Note_on_c, 0, 59, 64
2, 682560, Note_on_c, 0, 62, 64
2, 682560, Note_on_c, 0, 43, 62
2, 682560, Note_on_c, 0, 50, 62
2, 683090, Note_on_c, 0, 55, 0
2, 683570, Note_on_c, 0, 62, 0
2, 683640, Note_on_c, 0, 67, 93
2, 684650, Note_on_c, 0, 67, 0
2, 684720, Note_on_c, 0, 65, 81
2, 685250, Note_on_c, 0, 62, 0
2, 685730, Note_on_c, 0, 65, 0
2, 685800, Note_on_c, 0, 62, 75
2, 686330, Note_on_c, 0, 59, 0
2, 686450, Note_on_c, 0, 62, 0
2, 686520, Note_on_c, 0, 55, 65
2, 686810, Note_on_c, 0, 43, 0
2, 686810, Note_on_c, 0, 50, 0
2, 686845, Note_on_c, 0, 55, 0
2, 686880, Note_on_c, 0, 60, 80
2, 686880, Note_on_c, 0, 67, 81
2, 686880, Note_on_c, 0, 48, 52
2, 687060, Note_on_c, 0, 67, 73
2, 687060, Note_on_c, 0, 55, 47
2, 687223, Note_on_c, 0, 55, 0
2, 687223, Note_on_c, 0, 67, 0
2, 687240, Note_on_c, 0, 72, 91
2, 687240, Note_on_c, 0, 60, 59
2, 687403, Note_on_c, 0, 72, 0
2, 687403, Note_on_c, 0, 60, 0
2, 687420, Note_on_c, 0, 79, 94
2, 687420, Note_on_c, 0, 67, 63
2, 687583, Note_on_c, 0, 79, 0
2, 687583, Note_on_c, 0, 67, 0
2, 687600, Note_on_c, 0, 72, 72
2, 687600, Note_on_c, 0, 60, 50
2, 687763, Note_on_c, 0, 72, 0
2, 687763, Note_on_c, 0, 60, 0
2, 687780, Note_on_c, 0, 79, 91
2, 687780, Note_on_c, 0, 67, 61
2, 687890, Note_on_c, 0, 60, 0
2, 687890, Note_on_c, 0, 67, 0
2, 687890, Note_on_c, 0, 36, 0
2, 687890, Note_on_c, 0, 48, 0
2, 687943, Note_on_c, 0, 79, 0
2, 687943, Note_on_c, 0, 67, 0
2, 687960, Note_on_c, 0, 80, 89
2, 687960, Note_on_c, 0, 68, 60
2, 688123, Note_on_c, 0, 68, 0
2, 688123, Note_on_c, 0, 80, 0
2, 688140, Note_on_c, 0, 79, 78
2, 688140, Note_on_c, 0, 67, 49
2, 688303, Note_on_c, 0, 67, 0
2, 688303, Note_on_c, 0, 79, 0
2, 688320, Note_on_c, 0, 75, 74
2, 688320, Note_on_c, 0, 63, 49
2, 688483, Note_on_c, 0, 63, 0
2, 688483, Note_on_c, 0, 75, 0
2, 688500, Note_on_c, 0, 79, 88
2, 688500, Note_on_c, 0, 67, 58
2, 688663, Note_on_c, 0, 67, 0
2, 688663, Note_on_c, 0, 79, 0
2, 688680, Note_on_c, 0, 75, 77
2, 688680, Note_on_c, 0, 63, 53
2, 688843, Note_on_c, 0, 63, 0
2, 688843, Note_on_c, 0, 75, 0
2, 688860, Note_on_c, 0, 67, 64
2, 688860, Note_on_c, 0, 55, 43
2, 689023, Note_on_c, 0, 55, 0
2, 689023, Note_on_c, 0, 67, 0
2, 689040, Note_on_c, 0, 39, 46
2, 689040, Note_on_c, 0, 51, 45
2, 689220, Note_on_c, 0, 58, 75
2, 689383, Note_on_c, 0, 58, 0
2, 689400, Note_on_c, 0, 63, 91
2, 689563, Note_on_c, 0, 63, 0
2, 689580, Note_on_c, 0, 66, 87
2, 689743, Note_on_c, 0, 66, 0
2, 689760, Note_on_c, 0, 63, 78
2, 689923, Note_on_c, 0, 63, 0
2, 689940, Note_on_c, 0, 66, 88
2, 690103, Note_on_c, 0, 66, 0
2, 690120, Note_on_c, 0, 68, 89
2, 690283, Note_on_c, 0, 68, 0
2, 690300, Note_on_c, 0, 66, 76
2, 690463, Note_on_c, 0, 66, 0
2, 690480, Note_on_c, 0, 63, 77
2, 690643, Note_on_c, 0, 63, 0
2, 690660, Note_on_c, 0, 66, 87
2, 690823, Note_on_c, 0, 66, 0
2, 690840, Note_on_c, 0, 63, 79
2, 691003, Note_on_c, 0, 63, 0
2, 691020, Note_on_c, 0, 58, 69
2, 691130, Note_on_c, 0, 51, 0
2, 691130, Note_on_c, 0, 39, 0
2, 691183, Note_on_c, 0, 58, 0
2, 691200, Note_on_c, 0, 59, 67
2, 691200, Note_on_c, 0, 62, 68
2, 691200, Note_on_c, 0, 43, 58
2, 691200, Note_on_c, 0, 50, 56
2, 691920, Note_on_c, 0, 67, 74
2, 691920, Note_on_c, 0, 71, 74
2, 691920, Note_on_c, 0, 74, 71
2, 692605, Note_on_c, 0, 74, 0
2, 692605, Note_on_c, 0, 71, 0
2, 692605, Note_on_c, 0, 67, 0
2, 692640, Note_on_c, 0, 67, 82
2, 692640, Note_on_c, 0, 71, 81
2, 692640, Note_on_c, 0, 74, 79
2, 693127, Note_on_c, 0, 74, 0
2, 693127, Note_on_c, 0, 71, 0
2, 693127, Note_on_c, 0, 67, 0
2, 693180, Note_on_c, 0, 67, 80
2, 693180, Note_on_c, 0, 71, 80
2, 693180, Note_on_c, 0, 74, 82
2, 693343, Note_on_c, 0, 74, 0
2, 693343, Note_on_c, 0, 71, 0
2, 693343, Note_on_c, 0, 67, 0
2, 693360, Note_on_c, 0, 67, 85
2, 693360, Note_on_c, 0, 71, 85
2, 693360, Note_on_c, 0, 74, 85
2, 693685, Note_on_c, 0, 74, 0
2, 693685, Note_on_c, 0, 71, 0
2, 693685, Note_on_c, 0, 67, 0
2, 694080, Note_on_c, 0, 67, 72
2, 694080, Note_on_c, 0, 71, 72
2, 694080, Note_on_c, 0, 74, 74
2, 694765, Note_on_c, 0, 74, 0
2, 694765, Note_on_c, 0, 71, 0
2, 694765, Note_on_c, 0, 67, 0
2, 694800, Note_on_c, 0, 67, 82
2, 694800, Note_on_c, 0, 71, 81
2, 694800, Note_on_c, 0, 74, 79
2, 695287, Note_on_c, 0, 74, 0
2, 695287, Note_on_c, 0, 71, 0
2, 695287, Note_on_c, 0, 67, 0
2, 695340, Note_on_c, 0, 67, 81
2, 695340, Note_on_c, 0, 71, 79
2, 695340, Note_on_c, 0, 74, 82
2, 695503, Note_on_c, 0, 74, 0
2, 695503, Note_on_c, 0, 71, 0
2, 695503, Note_on_c, 0, 67, 0
2, 695520, Note_on_c, 0, 67, 82
2, 695520, Note_on_c, 0, 71, 86
2, 695520, Note_on_c, 0, 74, 85
2, 695520, Note_on_c, 0, 59, 49
2, 695845, Note_on_c, 0, 59, 0
2, 695845, Note_on_c, 0, 59, 0
2, 695845, Note_on_c, 0, 62, 0
2, 695845, Note_on_c, 0, 74, 0
2, 695845, Note_on_c, 0, 50, 0
2, 695845, Note_on_c, 0, 67, 0
2, 695845, Note_on_c, 0, 71, 0
2, 695845, Note_on_c, 0, 43, 0
2, 696240, Note_on_c, 0, 67, 75
2, 696240, Note_on_c, 0, 71, 74
2, 696240, Note_on_c, 0, 74, 75
2, 696240, Note_on_c, 0, 50, 49
2, 696240, Note_on_c, 0, 55, 49
2, 696240, Note_on_c, 0, 59, 48
2, 696240, Note_on_c, 0, 62, 50
2, 696925, Note_on_c, 0, 62, 0
2, 696925, Note_on_c, 0, 71, 0
2, 696925, Note_on_c, 0, 59, 0
2, 696925, Note_on_c, 0, 74, 0
2, 696925, Note_on_c, 0, 55, 0
2, 696925, Note_on_c, 0, 67, 0
2, 696925, Note_on_c, 0, 50, 0
2, 696960, Note_on_c, 0, 71, 91
2, 696960, Note_on_c, 0, 74, 92
2, 696960, Note_on_c, 0, 79, 92
2, 696960, Note_on_c, 0, 55, 58
2, 696960, Note_on_c, 0, 59, 59
2, 696960, Note_on_c, 0, 62, 59
2, 696960, Note_on_c, 0, 67, 61
2, 697610, Note_on_c, 0, 67, 0
2, 697610, Note_on_c, 0, 74, 0
2, 697610, Note_on_c, 0, 62, 0
2, 697610, Note_on_c, 0, 79, 0
2, 697610, Note_on_c, 0, 59, 0
2, 697610, Note_on_c, 0, 71, 0
2, 697610, Note_on_c, 0, 55, 0
2, 697680, Note_on_c, 0, 74, 93
2, 697680, Note_on_c, 0, 79, 93
2, 697680, Note_on_c, 0, 83, 95
2, 697680, Note_on_c, 0, 59, 64
2, 697680, Note_on_c, 0, 62, 61
2, 697680, Note_on_c, 0, 67, 61
2, 697680, Note_on_c, 0, 71, 64
2, 698330, Note_on_c, 0, 71, 0
2, 698330, Note_on_c, 0, 79, 0
2, 698330, Note_on_c, 0, 67, 0
2, 698330, Note_on_c, 0, 83, 0
2, 698330, Note_on_c, 0, 62, 0
2, 698330, Note_on_c, 0, 74, 0
2, 698330, Note_on_c, 0, 59, 0
2, 698400, Note_on_c, 0, 74, 91
2, 698400, Note_on_c, 0, 79, 87
2, 698400, Note_on_c, 0, 83, 91
2, 698400, Note_on_c, 0, 86, 89
2, 698400, Note_on_c, 0, 62, 56
2, 698400, Note_on_c, 0, 67, 53
2, 698400, Note_on_c, 0, 71, 55
2, 699085, Note_on_c, 0, 71, 0
2, 699085, Note_on_c, 0, 79, 0
2, 699085, Note_on_c, 0, 67, 0
2, 699085, Note_on_c, 0, 83, 0
2, 699085, Note_on_c, 0, 62, 0
2, 699085, Note_on_c, 0, 74, 0
2, 699085, Note_on_c, 0, 86, 0
2, 699120, Note_on_c, 0, 79, 92
2, 699120, Note_on_c, 0, 83, 92
2, 699120, Note_on_c, 0, 86, 93
2, 699120, Note_on_c, 0, 91, 93
2, 699120, Note_on_c, 0, 62, 55
2, 699120, Note_on_c, 0, 67, 56
2, 699120, Note_on_c, 0, 71, 55
2, 699120, Note_on_c, 0, 74, 56
2, 699770, Note_on_c, 0, 74, 0
2, 699770, Note_on_c, 0, 79, 0
2, 699770, Note_on_c, 0, 83, 0
2, 699770, Note_on_c, 0, 71, 0
2, 699770, Note_on_c, 0, 91, 0
2, 699770, Note_on_c, 0, 62, 0
2, 699770, Note_on_c, 0, 67, 0
2, 699770, Note_on_c, 0, 86, 0
2, 699840, Note_on_c, 0, 83, 91
2, 699840, Note_on_c, 0, 85, 91
2, 699840, Note_on_c, 0, 88, 92
2, 699840, Note_on_c, 0, 91, 91
2, 699840, Note_on_c, 0, 95, 93
2, 699840, Note_on_c, 0, 61, 77
2, 699840, Note_on_c, 0, 64, 74
2, 699840, Note_on_c, 0, 67, 74
2, 699840, Note_on_c, 0, 71, 76
2, 700850, Note_on_c, 0, 71, 0
2, 700850, Note_on_c, 0, 61, 0
2, 700850, Note_on_c, 0, 83, 0
2, 700850, Note_on_c, 0, 85, 0
2, 700850, Note_on_c, 0, 91, 0
2, 700850, Note_on_c, 0, 67, 0
2, 700850, Note_on_c, 0, 88, 0
2, 700850, Note_on_c, 0, 64, 0
2, 700850, Note_on_c, 0, 95, 0
2, 700920, Note_on_c, 0, 81, 81
2, 700920, Note_on_c, 0, 93, 83
2, 700920, Note_on_c, 0, 85, 102
2, 700920, Note_on_c, 0, 88, 100
2, 700920, Note_on_c, 0, 61, 58
2, 700920, Note_on_c, 0, 64, 60
2, 700920, Note_on_c, 0, 69, 56
2, 701640, Note_on_c, 0, 69, 0
2, 701640, Note_on_c, 0, 81, 0
2, 701640, Note_on_c, 0, 64, 0
2, 701640, Note_on_c, 0, 61, 0
2, 701640, Note_on_c, 0, 93, 0
2, 701640, Note_on_c, 0, 79, 75
2, 701640, Note_on_c, 0, 91, 73
2, 701640, Note_on_c, 0, 67, 49
2, 701930, Note_on_c, 0, 85, 0
2, 701930, Note_on_c, 0, 88, 0
2, 701965, Note_on_c, 0, 91, 0
2, 701965, Note_on_c, 0, 79, 0
2, 701965, Note_on_c, 0, 67, 0
2, 702000, Note_on_c, 0, 76, 108
2, 702000, Note_on_c, 0, 79, 108
2, 702000, Note_on_c, 0, 83, 106
2, 702000, Note_on_c, 0, 88, 106
2, 702000, Note_on_c, 0, 50, 57
2, 702000, Note_on_c, 0, 55, 57
2, 702000, Note_on_c, 0, 59, 56
2, 702000, Note_on_c, 0, 64, 55
2, 702720, Note_on_c, 0, 64, 0
2, 702720, Note_on_c, 0, 76, 0
2, 702720, Note_on_c, 0, 79, 0
2, 702720, Note_on_c, 0, 59, 0
2, 702720, Note_on_c, 0, 83, 0
2, 702720, Note_on_c, 0, 50, 0
2, 702720, Note_on_c, 0, 55, 0
2, 702720, Note_on_c, 0, 88, 0
2, 702720, Note_on_c, 0, 73, 82
2, 702720, Note_on_c, 0, 79, 84
2, 702720, Note_on_c, 0, 83, 81
2, 702720, Note_on_c, 0, 85, 82
2, 702720, Note_on_c, 0, 50, 53
2, 702720, Note_on_c, 0, 55, 54
2, 702720, Note_on_c, 0, 59, 51
2, 702720, Note_on_c, 0, 61, 55
2, 703405, Note_on_c, 0, 61, 0
2, 703405, Note_on_c, 0, 73, 0
2, 703405, Note_on_c, 0, 79, 0
2, 703405, Note_on_c, 0, 59, 0
2, 703405, Note_on_c, 0, 83, 0
2, 703405, Note_on_c, 0, 50, 0
2, 703405, Note_on_c, 0, 55, 0
2, 703405, Note_on_c, 0, 85, 0
2, 703440, Note_on_c, 0, 76, 95
2, 703440, Note_on_c, 0, 79, 95
2, 703440, Note_on_c, 0, 83, 94
2, 703440, Note_on_c, 0, 88, 94
2, 703440, Note_on_c, 0, 50, 62
2, 703440, Note_on_c, 0, 55, 62
2, 703440, Note_on_c, 0, 59, 63
2, 703440, Note_on_c, 0, 64, 64
2, 703800, Note_on_c, 0, 64, 0
2, 703800, Note_on_c, 0, 76, 0
2, 703800, Note_on_c, 0, 79, 0
2, 703800, Note_on_c, 0, 59, 0
2, 703800, Note_on_c, 0, 83, 0
2, 703800, Note_on_c, 0, 50, 0
2, 703800, Note_on_c, 0, 55, 0
2, 703800, Note_on_c, 0, 88, 0
2, 703800, Note_on_c, 0, 74, 84
2, 703800, Note_on_c, 0, 79, 84
2, 703800, Note_on_c, 0, 83, 83
2, 703800, Note_on_c, 0, 86, 85
2, 703800, Note_on_c, 0, 50, 55
2, 703800, Note_on_c, 0, 55, 55
2, 703800, Note_on_c, 0, 59, 55
2, 703800, Note_on_c, 0, 62, 57
2, 704160, Note_on_c, 0, 62, 0
2, 704160, Note_on_c, 0, 74, 0
2, 704160, Note_on_c, 0, 79, 0
2, 704160, Note_on_c, 0, 59, 0
2, 704160, Note_on_c, 0, 83, 0
2, 704160, Note_on_c, 0, 50, 0
2, 704160, Note_on_c, 0, 55, 0
2, 704160, Note_on_c, 0, 86, 0
2, 704160, Note_on_c, 0, 71, 100
2, 704160, Note_on_c, 0, 73, 100
2, 704160, Note_on_c, 0, 76, 98
2, 704160, Note_on_c, 0, 79, 98
2, 704160, Note_on_c, 0, 83, 101
2, 704160, Note_on_c, 0, 52, 92
2, 704160, Note_on_c, 0, 59, 90
2, 704160, Note_on_c, 0, 61, 90
2, 704160, Note_on_c, 0, 67, 90
2, 705170, Note_on_c, 0, 67, 0
2, 705170, Note_on_c, 0, 52, 0
2, 705170, Note_on_c, 0, 71, 0
2, 705170, Note_on_c, 0, 73, 0
2, 705170, Note_on_c, 0, 61, 0
2, 705170, Note_on_c, 0, 76, 0
2, 705170, Note_on_c, 0, 83, 0
2, 705170, Note_on_c, 0, 59, 0
2, 705170, Note_on_c, 0, 79, 0
2, 705240, Note_on_c, 0, 69, 83
2, 705240, Note_on_c, 0, 81, 84
2, 705240, Note_on_c, 0, 73, 86
2, 705240, Note_on_c, 0, 76, 88
2, 705240, Note_on_c, 0, 57, 44
2, 705240, Note_on_c, 0, 61, 67
2, 705240, Note_on_c, 0, 64, 64
2, 705890, Note_on_c, 0, 57, 0
2, 705960, Note_on_c, 0, 69, 0
2, 705960, Note_on_c, 0, 81, 0
2, 705960, Note_on_c, 0, 67, 80
2, 705960, Note_on_c, 0, 79, 80
2, 705960, Note_on_c, 0, 55, 46
2, 706250, Note_on_c, 0, 73, 0
2, 706250, Note_on_c, 0, 76, 0
2, 706285, Note_on_c, 0, 55, 0
2, 706320, Note_on_c, 0, 67, 0
2, 706320, Note_on_c, 0, 79, 0
2, 706320, Note_on_c, 0, 61, 0
2, 706320, Note_on_c, 0, 64, 0
2, 706320, Note_on_c, 0, 64, 81
2, 706320, Note_on_c, 0, 76, 83
2, 706320, Note_on_c, 0, 67, 73
2, 706320, Note_on_c, 0, 71, 73
2, 706320, Note_on_c, 0, 50, 49
2, 706320, Note_on_c, 0, 43, 66
2, 706320, Note_on_c, 0, 59, 69
2, 706970, Note_on_c, 0, 50, 0
2, 707040, Note_on_c, 0, 64, 0
2, 707040, Note_on_c, 0, 76, 0
2, 707040, Note_on_c, 0, 61, 78
2, 707040, Note_on_c, 0, 73, 79
2, 707040, Note_on_c, 0, 49, 57
2, 707725, Note_on_c, 0, 49, 0
2, 707725, Note_on_c, 0, 59, 0
2, 707725, Note_on_c, 0, 73, 0
2, 707725, Note_on_c, 0, 71, 0
2, 707725, Note_on_c, 0, 61, 0
2, 707725, Note_on_c, 0, 67, 0
2, 707725, Note_on_c, 0, 43, 0
2, 707760, Note_on_c, 0, 64, 94
2, 707760, Note_on_c, 0, 76, 94
2, 707760, Note_on_c, 0, 67, 82
2, 707760, Note_on_c, 0, 71, 81
2, 707760, Note_on_c, 0, 52, 55
2, 707760, Note_on_c, 0, 43, 55
2, 707760, Note_on_c, 0, 59, 52
2, 708085, Note_on_c, 0, 52, 0
2, 708120, Note_on_c, 0, 64, 0
2, 708120, Note_on_c, 0, 76, 0
2, 708120, Note_on_c, 0, 62, 85
2, 708120, Note_on_c, 0, 74, 84
2, 708120, Note_on_c, 0, 50, 50
2, 708410, Note_on_c, 0, 43, 0
2, 708410, Note_on_c, 0, 59, 0
2, 708410, Note_on_c, 0, 67, 0
2, 708410, Note_on_c, 0, 71, 0
2, 708445, Note_on_c, 0, 50, 0
2, 708480, Note_on_c, 0, 74, 0
2, 708480, Note_on_c, 0, 62, 0
2, 708480, Note_on_c, 0, 28, 42
2, 708480, Note_on_c, 0, 40, 42
2, 708840, Note_on_c, 0, 43, 77
2, 709003, Note_on_c, 0, 43, 0
2, 709020, Note_on_c, 0, 45, 83
2, 709183, Note_on_c, 0, 45, 0
2, 709200, Note_on_c, 0, 47, 91
2, 709363, Note_on_c, 0, 47, 0
2, 709380, Note_on_c, 0, 48, 86
2, 709543, Note_on_c, 0, 48, 0
2, 709560, Note_on_c, 0, 49, 88
2, 709723, Note_on_c, 0, 49, 0
2, 709740, Note_on_c, 0, 47, 78
2, 709903, Note_on_c, 0, 47, 0
2, 709920, Note_on_c, 0, 49, 86
2, 710083, Note_on_c, 0, 49, 0
2, 710100, Note_on_c, 0, 51, 85
2, 710263, Note_on_c, 0, 51, 0
2, 710280, Note_on_c, 0, 52, 87
2, 710443, Note_on_c, 0, 52, 0
2, 710460, Note_on_c, 0, 54, 88
2, 710570, Note_on_c, 0, 28, 0
2, 710570, Note_on_c, 0, 40, 0
2, 710623, Note_on_c, 0, 54, 0
2, 710640, Note_on_c, 0, 55, 88
2, 710640, Note_on_c, 0, 26, 52
2, 710640, Note_on_c, 0, 38, 51
2, 710803, Note_on_c, 0, 55, 0
2, 710820, Note_on_c, 0, 51, 74
2, 710983, Note_on_c, 0, 51, 0
2, 711000, Note_on_c, 0, 52, 87
2, 711163, Note_on_c, 0, 52, 0
2, 711180, Note_on_c, 0, 54, 85
2, 711343, Note_on_c, 0, 54, 0
2, 711360, Note_on_c, 0, 55, 89
2, 711523, Note_on_c, 0, 55, 0
2, 711540, Note_on_c, 0, 57, 87
2, 711703, Note_on_c, 0, 57, 0
2, 711720, Note_on_c, 0, 59, 91
2, 711883, Note_on_c, 0, 59, 0
2, 711900, Note_on_c, 0, 54, 72
2, 712063, Note_on_c, 0, 54, 0
2, 712080, Note_on_c, 0, 55, 86
2, 712243, Note_on_c, 0, 55, 0
2, 712260, Note_on_c, 0, 57, 87
2, 712423, Note_on_c, 0, 57, 0
2, 712440, Note_on_c, 0, 59, 89
2, 712603, Note_on_c, 0, 59, 0
2, 712620, Note_on_c, 0, 62, 90
2, 712730, Note_on_c, 0, 26, 0
2, 712730, Note_on_c, 0, 38, 0
2, 712783, Note_on_c, 0, 62, 0
2, 712800, Note_on_c, 0, 64, 88
2, 712800, Note_on_c, 0, 38, 54
2, 712963, Note_on_c, 0, 64, 0
2, 712980, Note_on_c, 0, 62, 75
2, 713125, Note_on_c, 0, 38, 0
2, 713143, Note_on_c, 0, 62, 0
2, 713160, Note_on_c, 0, 64, 89
2, 713160, Note_on_c, 0, 60, 67
2, 713160, Note_on_c, 0, 64, 66
2, 713323, Note_on_c, 0, 64, 0
2, 713337, Note_on_c, 0, 60, 0
2, 713337, Note_on_c, 0, 64, 0
2, 713340, Note_on_c, 0, 67, 87
2, 713503, Note_on_c, 0, 67, 0
2, 713520, Note_on_c, 0, 69, 91
2, 713520, Note_on_c, 0, 60, 56
2, 713520, Note_on_c, 0, 64, 56
2, 713683, Note_on_c, 0, 69, 0
2, 713697, Note_on_c, 0, 60, 0
2, 713697, Note_on_c, 0, 64, 0
2, 713700, Note_on_c, 0, 71, 86
2, 713863, Note_on_c, 0, 71, 0
2, 713880, Note_on_c, 0, 72, 88
2, 714043, Note_on_c, 0, 72, 0
2, 714060, Note_on_c, 0, 67, 69
2, 714223, Note_on_c, 0, 67, 0
2, 714240, Note_on_c, 0, 69, 85
2, 714240, Note_on_c, 0, 57, 46
2, 714240, Note_on_c, 0, 60, 47
2, 714240, Note_on_c, 0, 64, 48
2, 714403, Note_on_c, 0, 69, 0
2, 714417, Note_on_c, 0, 60, 0
2, 714417, Note_on_c, 0, 57, 0
2, 714417, Note_on_c, 0, 64, 0
2, 714420, Note_on_c, 0, 71, 83
2, 714583, Note_on_c, 0, 71, 0
2, 714600, Note_on_c, 0, 72, 90
2, 714600, Note_on_c, 0, 57, 54
2, 714600, Note_on_c, 0, 60, 51
2, 714600, Note_on_c, 0, 64, 52
2, 714763, Note_on_c, 0, 72, 0
2, 714777, Note_on_c, 0, 60, 0
2, 714777, Note_on_c, 0, 57, 0
2, 714777, Note_on_c, 0, 64, 0
2, 714780, Note_on_c, 0, 74, 88
2, 714943, Note_on_c, 0, 74, 0
2, 714960, Note_on_c, 0, 76, 87
2, 715123, Note_on_c, 0, 76, 0
2, 715140, Note_on_c, 0, 71, 71
2, 715303, Note_on_c, 0, 71, 0
2, 715320, Note_on_c, 0, 72, 85
2, 715320, Note_on_c, 0, 57, 47
2, 715320, Note_on_c, 0, 60, 50
2, 715320, Note_on_c, 0, 67, 50
2, 715483, Note_on_c, 0, 72, 0
2, 715497, Note_on_c, 0, 60, 0
2, 715497, Note_on_c, 0, 57, 0
2, 715497, Note_on_c, 0, 67, 0
2, 715500, Note_on_c, 0, 74, 85
2, 715663, Note_on_c, 0, 74, 0
2, 715680, Note_on_c, 0, 75, 87
2, 715680, Note_on_c, 0, 57, 52
2, 715680, Note_on_c, 0, 60, 51
2, 715680, Note_on_c, 0, 67, 52
2, 715843, Note_on_c, 0, 75, 0
2, 715857, Note_on_c, 0, 60, 0
2, 715857, Note_on_c, 0, 57, 0
2, 715857, Note_on_c, 0, 67, 0
2, 715860, Note_on_c, 0, 78, 89
2, 716023, Note_on_c, 0, 78, 0
2, 716040, Note_on_c, 0, 79, 89
2, 716203, Note_on_c, 0, 79, 0
2, 716220, Note_on_c, 0, 81, 87
2, 716383, Note_on_c, 0, 81, 0
2, 716400, Note_on_c, 0, 83, 87
2, 716400, Note_on_c, 0, 57, 49
2, 716400, Note_on_c, 0, 60, 48
2, 716400, Note_on_c, 0, 66, 49
2, 716563, Note_on_c, 0, 83, 0
2, 716577, Note_on_c, 0, 60, 0
2, 716577, Note_on_c, 0, 57, 0
2, 716577, Note_on_c, 0, 66, 0
2, 716580, Note_on_c, 0, 84, 85
2, 716743, Note_on_c, 0, 84, 0
2, 716760, Note_on_c, 0, 85, 87
2, 716760, Note_on_c, 0, 57, 51
2, 716760, Note_on_c, 0, 60, 50
2, 716760, Note_on_c, 0, 66, 51
2, 716923, Note_on_c, 0, 85, 0
2, 716937, Note_on_c, 0, 60, 0
2, 716937, Note_on_c, 0, 57, 0
2, 716937, Note_on_c, 0, 66, 0
2, 716940, Note_on_c, 0, 86, 86
2, 717103, Note_on_c, 0, 86, 0
2, 717120, Note_on_c, 0, 79, 94
2, 717120, Note_on_c, 0, 83, 93
2, 717120, Note_on_c, 0, 86, 93
2, 717120, Note_on_c, 0, 91, 93
2, 717120, Note_on_c, 0, 31, 43
2, 717120, Note_on_c, 0, 43, 42
2, 717445, Note_on_c, 0, 43, 0
2, 717445, Note_on_c, 0, 31, 0
2, 717480, Note_on_c, 0, 50, 58
2, 717770, Note_on_c, 0, 91, 0
2, 717770, Note_on_c, 0, 83, 0
2, 717770, Note_on_c, 0, 79, 0
2, 717770, Note_on_c, 0, 86, 0
2, 717805, Note_on_c, 0, 50, 0
2, 717840, Note_on_c, 0, 78, 77
2, 717840, Note_on_c, 0, 83, 80
2, 717840, Note_on_c, 0, 86, 80
2, 717840, Note_on_c, 0, 90, 80
2, 717840, Note_on_c, 0, 59, 65
2, 718165, Note_on_c, 0, 59, 0
2, 718200, Note_on_c, 0, 62, 62
2, 718525, Note_on_c, 0, 62, 0
2, 718525, Note_on_c, 0, 90, 0
2, 718525, Note_on_c, 0, 83, 0
2, 718525, Note_on_c, 0, 78, 0
2, 718525, Note_on_c, 0, 86, 0
2, 718560, Note_on_c, 0, 79, 82
2, 718560, Note_on_c, 0, 83, 82
2, 718560, Note_on_c, 0, 86, 85
2, 718560, Note_on_c, 0, 91, 83
2, 718560, Note_on_c, 0, 59, 48
2, 718885, Note_on_c, 0, 59, 0
2, 718920, Note_on_c, 0, 50, 44
2, 719210, Note_on_c, 0, 91, 0
2, 719210, Note_on_c, 0, 83, 0
2, 719210, Note_on_c, 0, 79, 0
2, 719210, Note_on_c, 0, 86, 0
2, 719245, Note_on_c, 0, 50, 0
2, 719280, Note_on_c, 0, 79, 83
2, 719280, Note_on_c, 0, 83, 84
2, 719280, Note_on_c, 0, 88, 86
2, 719280, Note_on_c, 0, 91, 85
2, 719280, Note_on_c, 0, 43, 46
2, 719605, Note_on_c, 0, 43, 0
2, 719640, Note_on_c, 0, 52, 61
2, 719965, Note_on_c, 0, 52, 0
2, 720000, Note_on_c, 0, 59, 61
2, 720325, Note_on_c, 0, 59, 0
2, 720360, Note_on_c, 0, 64, 65
2, 720685, Note_on_c, 0, 64, 0
2, 720720, Note_on_c, 0, 59, 48
2, 721045, Note_on_c, 0, 59, 0
2, 721080, Note_on_c, 0, 52, 42
2, 721405, Note_on_c, 0, 52, 0
2, 721440, Note_on_c, 0, 43, 42
2, 721765, Note_on_c, 0, 43, 0
2, 721800, Note_on_c, 0, 53, 63
2, 722090, Note_on_c, 0, 91, 0
2, 722090, Note_on_c, 0, 83, 0
2, 722090, Note_on_c, 0, 79, 0
2, 722090, Note_on_c, 0, 88, 0
2, 722125, Note_on_c, 0, 53, 0
2, 722160, Note_on_c, 0, 76, 75
2, 722160, Note_on_c, 0, 79, 74
2, 722160, Note_on_c, 0, 83, 76
2, 722160, Note_on_c, 0, 88, 74
2, 722160, Note_on_c, 0, 59, 63
2, 722485, Note_on_c, 0, 59, 0
2, 722520, Note_on_c, 0, 65, 67
2, 722845, Note_on_c, 0, 65, 0
2, 722845, Note_on_c, 0, 88, 0
2, 722845, Note_on_c, 0, 79, 0
2, 722845, Note_on_c, 0, 76, 0
2, 722845, Note_on_c, 0, 83, 0
2, 722880, Note_on_c, 0, 75, 76
2, 722880, Note_on_c, 0, 79, 76
2, 722880, Note_on_c, 0, 83, 75
2, 722880, Note_on_c, 0, 87, 77
2, 722880, Note_on_c, 0, 59, 47
2, 723205, Note_on_c, 0, 59, 0
2, 723240, Note_on_c, 0, 53, 44
2, 723530, Note_on_c, 0, 83, 0
2, 723530, Note_on_c, 0, 79, 0
2, 723530, Note_on_c, 0, 75, 0
2, 723530, Note_on_c, 0, 87, 0
2, 723565, Note_on_c, 0, 53, 0
2, 723600, Note_on_c, 0, 76, 87
2, 723600, Note_on_c, 0, 79, 87
2, 723600, Note_on_c, 0, 82, 85
2, 723600, Note_on_c, 0, 85, 86
2, 723600, Note_on_c, 0, 88, 86
2, 723600, Note_on_c, 0, 43, 44
2, 723925, Note_on_c, 0, 43, 0
2, 723960, Note_on_c, 0, 52, 61
2, 724285, Note_on_c, 0, 52, 0
2, 724320, Note_on_c, 0, 58, 61
2, 724645, Note_on_c, 0, 58, 0
2, 724680, Note_on_c, 0, 61, 66
2, 724680, Note_on_c, 0, 64, 65
2, 725005, Note_on_c, 0, 64, 0
2, 725005, Note_on_c, 0, 61, 0
2, 725040, Note_on_c, 0, 58, 46
2, 725365, Note_on_c, 0, 58, 0
2, 725400, Note_on_c, 0, 52, 46
2, 725690, Note_on_c, 0, 79, 0
2, 725690, Note_on_c, 0, 88, 0
2, 725690, Note_on_c, 0, 82, 0
2, 725690, Note_on_c, 0, 76, 0
2, 725690, Note_on_c, 0, 85, 0
2, 725725, Note_on_c, 0, 52, 0
2, 725760, Note_on_c, 0, 72, 74
2, 725760, Note_on_c, 0, 76, 76
2, 725760, Note_on_c, 0, 79, 76
2, 725760, Note_on_c, 0, 84, 75
2, 725760, Note_on_c, 0, 43, 45
2, 726085, Note_on_c, 0, 43, 0
2, 726120, Note_on_c, 0, 52, 60
2, 726410, Note_on_c, 0, 79, 0
2, 726410, Note_on_c, 0, 76, 0
2, 726410, Note_on_c, 0, 72, 0
2, 726410, Note_on_c, 0, 84, 0
2, 726445, Note_on_c, 0, 52, 0
2, 726480, Note_on_c, 0, 71, 77
2, 726480, Note_on_c, 0, 76, 75
2, 726480, Note_on_c, 0, 79, 77
2, 726480, Note_on_c, 0, 83, 76
2, 726480, Note_on_c, 0, 55, 58
2, 726805, Note_on_c, 0, 55, 0
2, 726840, Note_on_c, 0, 60, 62
2, 727165, Note_on_c, 0, 60, 0
2, 727165, Note_on_c, 0, 83, 0
2, 727165, Note_on_c, 0, 76, 0
2, 727165, Note_on_c, 0, 71, 0
2, 727165, Note_on_c, 0, 79, 0
2, 727200, Note_on_c, 0, 70, 77
2, 727200, Note_on_c, 0, 76, 77
2, 727200, Note_on_c, 0, 79, 76
2, 727200, Note_on_c, 0, 82, 78
2, 727200, Note_on_c, 0, 55, 49
2, 727525, Note_on_c, 0, 55, 0
2, 727560, Note_on_c, 0, 52, 48
2, 727850, Note_on_c, 0, 79, 0
2, 727850, Note_on_c, 0, 76, 0
2, 727850, Note_on_c, 0, 70, 0
2, 727850, Note_on_c, 0, 82, 0
2, 727885, Note_on_c, 0, 52, 0
2, 727920, Note_on_c, 0, 69, 78
2, 727920, Note_on_c, 0, 73, 78
2, 727920, Note_on_c, 0, 76, 79
2, 727920, Note_on_c, 0, 79, 79
2, 727920, Note_on_c, 0, 81, 78
2, 727920, Note_on_c, 0, 43, 42
2, 728245, Note_on_c, 0, 43, 0
2, 728280, Note_on_c, 0, 52, 60
2, 728605, Note_on_c, 0, 52, 0
2, 728640, Note_on_c, 0, 57, 61
2, 728965, Note_on_c, 0, 57, 0
2, 729000, Note_on_c, 0, 61, 61
2, 729325, Note_on_c, 0, 61, 0
2, 729360, Note_on_c, 0, 57, 48
2, 729685, Note_on_c, 0, 57, 0
2, 729720, Note_on_c, 0, 52, 44
2, 730010, Note_on_c, 0, 81, 0
2, 730010, Note_on_c, 0, 73, 0
2, 730010, Note_on_c, 0, 76, 0
2, 730010, Note_on_c, 0, 69, 0
2, 730010, Note_on_c, 0, 79, 0
2, 730045, Note_on_c, 0, 52, 0
2, 730080, Note_on_c, 0, 68, 81
2, 730080, Note_on_c, 0, 72, 81
2, 730080, Note_on_c, 0, 75, 80
2, 730080, Note_on_c, 0, 80, 81
2, 730080, Note_on_c, 0, 43, 45
2, 730405, Note_on_c, 0, 43, 0
2, 730440, Note_on_c, 0, 51, 61
2, 730765, Note_on_c, 0, 51, 0
2, 730800, Note_on_c, 0, 56, 60
2, 731125, Note_on_c, 0, 56, 0
2, 731160, Note_on_c, 0, 60, 64
2, 731485, Note_on_c, 0, 60, 0
2, 731485, Note_on_c, 0, 80, 0
2, 731485, Note_on_c, 0, 72, 0
2, 731485, Note_on_c, 0, 68, 0
2, 731485, Note_on_c, 0, 75, 0
2, 731520, Note_on_c, 0, 66, 78
2, 731520, Note_on_c, 0, 72, 78
2, 731520, Note_on_c, 0, 78, 75
2, 731520, Note_on_c, 0, 56, 50
2, 731845, Note_on_c, 0, 56, 0
2, 731880, Note_on_c, 0, 51, 45
2, 732170, Note_on_c, 0, 72, 0
2, 732170, Note_on_c, 0, 66, 0
2, 732170, Note_on_c, 0, 78, 0
2, 732205, Note_on_c, 0, 51, 0
2, 732240, Note_on_c, 0, 67, 86
2, 732240, Note_on_c, 0, 71, 85
2, 732240, Note_on_c, 0, 79, 87
2, 732240, Note_on_c, 0, 43, 52
2, 732240, Note_on_c, 0, 50, 53
2, 732565, Note_on_c, 0, 50, 0
2, 732565, Note_on_c, 0, 43, 0
2, 732600, Note_on_c, 0, 69, 74
2, 732600, Note_on_c, 0, 50, 63
2, 732600, Note_on_c, 0, 59, 64
2, 732763, Note_on_c, 0, 69, 0
2, 732777, Note_on_c, 0, 59, 0
2, 732777, Note_on_c, 0, 50, 0
2, 732780, Note_on_c, 0, 67, 76
2, 732943, Note_on_c, 0, 67, 0
2, 732960, Note_on_c, 0, 71, 90
2, 732960, Note_on_c, 0, 50, 53
2, 732960, Note_on_c, 0, 59, 54
2, 733123, Note_on_c, 0, 71, 0
2, 733137, Note_on_c, 0, 59, 0
2, 733137, Note_on_c, 0, 50, 0
2, 733140, Note_on_c, 0, 67, 74
2, 733250, Note_on_c, 0, 67, 0
2, 733250, Note_on_c, 0, 79, 0
2, 733250, Note_on_c, 0, 71, 0
2, 733303, Note_on_c, 0, 67, 0
2, 733320, Note_on_c, 0, 69, 67
2, 733483, Note_on_c, 0, 69, 0
2, 733500, Note_on_c, 0, 67, 75
2, 733663, Note_on_c, 0, 67, 0
2, 733680, Note_on_c, 0, 71, 90
2, 733680, Note_on_c, 0, 50, 47
2, 733680, Note_on_c, 0, 59, 48
2, 733843, Note_on_c, 0, 71, 0
2, 733857, Note_on_c, 0, 50, 0
2, 733857, Note_on_c, 0, 59, 0
2, 733860, Note_on_c, 0, 67, 75
2, 734023, Note_on_c, 0, 67, 0
2, 734040, Note_on_c, 0, 71, 90
2, 734040, Note_on_c, 0, 50, 51
2, 734040, Note_on_c, 0, 59, 51
2, 734203, Note_on_c, 0, 71, 0
2, 734217, Note_on_c, 0, 50, 0
2, 734217, Note_on_c, 0, 59, 0
2, 734220, Note_on_c, 0, 67, 73
2, 734383, Note_on_c, 0, 67, 0
2, 734400, Note_on_c, 0, 71, 92
2, 734563, Note_on_c, 0, 71, 0
2, 734580, Note_on_c, 0, 67, 72
2, 734743, Note_on_c, 0, 67, 0
2, 734760, Note_on_c, 0, 69, 86
2, 734760, Note_on_c, 0, 51, 46
2, 734760, Note_on_c, 0, 59, 48
2, 734923, Note_on_c, 0, 69, 0
2, 734937, Note_on_c, 0, 51, 0
2, 734937, Note_on_c, 0, 59, 0
2, 734940, Note_on_c, 0, 67, 76
2, 735103, Note_on_c, 0, 67, 0
2, 735120, Note_on_c, 0, 71, 89
2, 735120, Note_on_c, 0, 51, 53
2, 735120, Note_on_c, 0, 59, 51
2, 735283, Note_on_c, 0, 71, 0
2, 735297, Note_on_c, 0, 51, 0
2, 735297, Note_on_c, 0, 59, 0
2, 735300, Note_on_c, 0, 67, 72
2, 735463, Note_on_c, 0, 67, 0
2, 735480, Note_on_c, 0, 69, 86
2, 735643, Note_on_c, 0, 69, 0
2, 735660, Note_on_c, 0, 67, 76
2, 735823, Note_on_c, 0, 67, 0
2, 735840, Note_on_c, 0, 71, 91
2, 735840, Note_on_c, 0, 51, 49
2, 735840, Note_on_c, 0, 59, 47
2, 736003, Note_on_c, 0, 71, 0
2, 736017, Note_on_c, 0, 51, 0
2, 736017, Note_on_c, 0, 59, 0
2, 736020, Note_on_c, 0, 67, 73
2, 736183, Note_on_c, 0, 67, 0
2, 736200, Note_on_c, 0, 69, 89
2, 736200, Note_on_c, 0, 51, 51
2, 736200, Note_on_c, 0, 59, 52
2, 736363, Note_on_c, 0, 69, 0
2, 736377, Note_on_c, 0, 51, 0
2, 736377, Note_on_c, 0, 59, 0
2, 736380, Note_on_c, 0, 67, 75
2, 736543, Note_on_c, 0, 67, 0
2, 736560, Note_on_c, 0, 71, 93
2, 736723, Note_on_c, 0, 71, 0
2, 736740, Note_on_c, 0, 67, 73
2, 736903, Note_on_c, 0, 67, 0
2, 736920, Note_on_c, 0, 69, 87
2, 736920, Note_on_c, 0, 52, 49
2, 736920, Note_on_c, 0, 59, 49
2, 737083, Note_on_c, 0, 69, 0
2, 737097, Note_on_c, 0, 52, 0
2, 737097, Note_on_c, 0, 59, 0
2, 737100, Note_on_c, 0, 67, 76
2, 737263, Note_on_c, 0, 67, 0
2, 737280, Note_on_c, 0, 71, 90
2, 737280, Note_on_c, 0, 52, 54
2, 737280, Note_on_c, 0, 59, 52
2, 737443, Note_on_c, 0, 71, 0
2, 737457, Note_on_c, 0, 52, 0
2, 737457, Note_on_c, 0, 59, 0
2, 737460, Note_on_c, 0, 69, 78
2, 737623, Note_on_c, 0, 69, 0
2, 737640, Note_on_c, 0, 71, 87
2, 737803, Note_on_c, 0, 71, 0
2, 737820, Note_on_c, 0, 79, 98
2, 737983, Note_on_c, 0, 79, 0
2, 738000, Note_on_c, 0, 83, 95
2, 738000, Note_on_c, 0, 52, 49
2, 738000, Note_on_c, 0, 59, 49
2, 738163, Note_on_c, 0, 83, 0
2, 738177, Note_on_c, 0, 52, 0
2, 738177, Note_on_c, 0, 59, 0
2, 738180, Note_on_c, 0, 79, 72
2, 738343, Note_on_c, 0, 79, 0
2, 738360, Note_on_c, 0, 71, 69
2, 738360, Note_on_c, 0, 52, 53
2, 738360, Note_on_c, 0, 59, 51
2, 738523, Note_on_c, 0, 71, 0
2, 738537, Note_on_c, 0, 52, 0
2, 738537, Note_on_c, 0, 59, 0
2, 738540, Note_on_c, 0, 81, 94
2, 738703, Note_on_c, 0, 81, 0
2, 738720, Note_on_c, 0, 83, 93
2, 739045, Note_on_c, 0, 83, 0
2, 739080, Note_on_c, 0, 69, 64
2, 739080, Note_on_c, 0, 53, 50
2, 739080, Note_on_c, 0, 59, 48
2, 739243, Note_on_c, 0, 69, 0
2, 739257, Note_on_c, 0, 53, 0
2, 739257, Note_on_c, 0, 59, 0
2, 739260, Note_on_c, 0, 67, 72
2, 739423, Note_on_c, 0, 67, 0
2, 739440, Note_on_c, 0, 71, 91
2, 739440, Note_on_c, 0, 53, 51
2, 739440, Note_on_c, 0, 59, 51
2, 739603, Note_on_c, 0, 71, 0
2, 739617, Note_on_c, 0, 53, 0
2, 739617, Note_on_c, 0, 59, 0
2, 739620, Note_on_c, 0, 67, 74
2, 739783, Note_on_c, 0, 67, 0
2, 739800, Note_on_c, 0, 69, 87
2, 739963, Note_on_c, 0, 69, 0
2, 739980, Note_on_c, 0, 67, 75
2, 740143, Note_on_c, 0, 67, 0
2, 740160, Note_on_c, 0, 71, 90
2, 740160, Note_on_c, 0, 53, 49
2, 740160, Note_on_c, 0, 59, 47
2, 740323, Note_on_c, 0, 71, 0
2, 740337, Note_on_c, 0, 53, 0
2, 740337, Note_on_c, 0, 59, 0
2, 740340, Note_on_c, 0, 67, 74
2, 740503, Note_on_c, 0, 67, 0
2, 740520, Note_on_c, 0, 69, 88
2, 740520, Note_on_c, 0, 53, 53
2, 740520, Note_on_c, 0, 59, 50
2, 740683, Note_on_c, 0, 69, 0
2, 740697, Note_on_c, 0, 53, 0
2, 740697, Note_on_c, 0, 59, 0
2, 740700, Note_on_c, 0, 67, 76
2, 740863, Note_on_c, 0, 67, 0
2, 740880, Note_on_c, 0, 70, 91
2, 741043, Note_on_c, 0, 70, 0
2, 741060, Note_on_c, 0, 67, 77
2, 741223, Note_on_c, 0, 67, 0
2, 741240, Note_on_c, 0, 69, 89
2, 741240, Note_on_c, 0, 52, 47
2, 741240, Note_on_c, 0, 55, 48
2, 741240, Note_on_c, 0, 61, 50
2, 741403, Note_on_c, 0, 69, 0
2, 741417, Note_on_c, 0, 55, 0
2, 741417, Note_on_c, 0, 52, 0
2, 741417, Note_on_c, 0, 61, 0
2, 741420, Note_on_c, 0, 67, 76
2, 741583, Note_on_c, 0, 67, 0
2, 741600, Note_on_c, 0, 70, 89
2, 741600, Note_on_c, 0, 52, 53
2, 741600, Note_on_c, 0, 55, 52
2, 741600, Note_on_c, 0, 61, 50
2, 741763, Note_on_c, 0, 70, 0
2, 741777, Note_on_c, 0, 55, 0
2, 741777, Note_on_c, 0, 52, 0
2, 741777, Note_on_c, 0, 61, 0
2, 741780, Note_on_c, 0, 67, 75
2, 741943, Note_on_c, 0, 67, 0
2, 741960, Note_on_c, 0, 70, 88
2, 742123, Note_on_c, 0, 70, 0
2, 742140, Note_on_c, 0, 78, 96
2, 742303, Note_on_c, 0, 78, 0
2, 742320, Note_on_c, 0, 79, 89
2, 742320, Note_on_c, 0, 52, 47
2, 742320, Note_on_c, 0, 55, 50
2, 742320, Note_on_c, 0, 61, 49
2, 742483, Note_on_c, 0, 79, 0
2, 742497, Note_on_c, 0, 55, 0
2, 742497, Note_on_c, 0, 52, 0
2, 742497, Note_on_c, 0, 61, 0
2, 742500, Note_on_c, 0, 70, 66
2, 742663, Note_on_c, 0, 70, 0
2, 742680, Note_on_c, 0, 67, 72
2, 742680, Note_on_c, 0, 52, 52
2, 742680, Note_on_c, 0, 55, 53
2, 742680, Note_on_c, 0, 61, 53
2, 742843, Note_on_c, 0, 67, 0
2, 742857, Note_on_c, 0, 55, 0
2, 742857, Note_on_c, 0, 52, 0
2, 742857, Note_on_c, 0, 61, 0
2, 742860, Note_on_c, 0, 78, 100
2, 743023, Note_on_c, 0, 78, 0
2, 743040, Note_on_c, 0, 79, 90
2, 743365, Note_on_c, 0, 79, 0
2, 743400, Note_on_c, 0, 66, 64
2, 743400, Note_on_c, 0, 52, 48
2, 743400, Note_on_c, 0, 55, 49
2, 743400, Note_on_c, 0, 60, 50
2, 743563, Note_on_c, 0, 66, 0
2, 743577, Note_on_c, 0, 55, 0
2, 743577, Note_on_c, 0, 52, 0
2, 743577, Note_on_c, 0, 60, 0
2, 743580, Note_on_c, 0, 64, 73
2, 743743, Note_on_c, 0, 64, 0
2, 743760, Note_on_c, 0, 67, 88
2, 743760, Note_on_c, 0, 52, 50
2, 743760, Note_on_c, 0, 55, 51
2, 743760, Note_on_c, 0, 60, 51
2, 743923, Note_on_c, 0, 67, 0
2, 743937, Note_on_c, 0, 55, 0
2, 743937, Note_on_c, 0, 52, 0
2, 743937, Note_on_c, 0, 60, 0
2, 743940, Note_on_c, 0, 64, 76
2, 744103, Note_on_c, 0, 64, 0
2, 744120, Note_on_c, 0, 66, 87
2, 744283, Note_on_c, 0, 66, 0
2, 744300, Note_on_c, 0, 64, 75
2, 744463, Note_on_c, 0, 64, 0
2, 744480, Note_on_c, 0, 67, 91
2, 744480, Note_on_c, 0, 52, 48
2, 744480, Note_on_c, 0, 55, 46
2, 744480, Note_on_c, 0, 60, 49
2, 744643, Note_on_c, 0, 67, 0
2, 744657, Note_on_c, 0, 55, 0
2, 744657, Note_on_c, 0, 52, 0
2, 744657, Note_on_c, 0, 60, 0
2, 744660, Note_on_c, 0, 64, 76
2, 744823, Note_on_c, 0, 64, 0
2, 744840, Note_on_c, 0, 66, 87
2, 744840, Note_on_c, 0, 52, 52
2, 744840, Note_on_c, 0, 55, 50
2, 744840, Note_on_c, 0, 60, 54
2, 745003, Note_on_c, 0, 66, 0
2, 745017, Note_on_c, 0, 55, 0
2, 745017, Note_on_c, 0, 52, 0
2, 745017, Note_on_c, 0, 60, 0
2, 745020, Note_on_c, 0, 64, 78
2, 745183, Note_on_c, 0, 64, 0
2, 745200, Note_on_c, 0, 67, 89
2, 745363, Note_on_c, 0, 67, 0
2, 745380, Note_on_c, 0, 64, 77
2, 745543, Note_on_c, 0, 64, 0
2, 745560, Note_on_c, 0, 61, 77
2, 745560, Note_on_c, 0, 52, 49
2, 745560, Note_on_c, 0, 57, 49
2, 745723, Note_on_c, 0, 61, 0
2, 745737, Note_on_c, 0, 52, 0
2, 745737, Note_on_c, 0, 57, 0
2, 745740, Note_on_c, 0, 63, 82
2, 745903, Note_on_c, 0, 63, 0
2, 745920, Note_on_c, 0, 64, 87
2, 745920, Note_on_c, 0, 52, 58
2, 745920, Note_on_c, 0, 57, 57
2, 745920, Note_on_c, 0, 61, 56
2, 746083, Note_on_c, 0, 64, 0
2, 746097, Note_on_c, 0, 57, 0
2, 746097, Note_on_c, 0, 52, 0
2, 746097, Note_on_c, 0, 61, 0
2, 746100, Note_on_c, 0, 66, 87
2, 746263, Note_on_c, 0, 66, 0
2, 746280, Note_on_c, 0, 67, 89
2, 746443, Note_on_c, 0, 67, 0
2, 746460, Note_on_c, 0, 66, 77
2, 746623, Note_on_c, 0, 66, 0
2, 746640, Note_on_c, 0, 67, 87
2, 746640, Note_on_c, 0, 52, 46
2, 746640, Note_on_c, 0, 57, 49
2, 746640, Note_on_c, 0, 61, 49
2, 746803, Note_on_c, 0, 67, 0
2, 746817, Note_on_c, 0, 57, 0
2, 746817, Note_on_c, 0, 52, 0
2, 746817, Note_on_c, 0, 61, 0
2, 746820, Note_on_c, 0, 69, 87
2, 746983, Note_on_c, 0, 69, 0
2, 747000, Note_on_c, 0, 73, 94
2, 747000, Note_on_c, 0, 52, 52
2, 747000, Note_on_c, 0, 57, 53
2, 747000, Note_on_c, 0, 61, 52
2, 747163, Note_on_c, 0, 73, 0
2, 747177, Note_on_c, 0, 57, 0
2, 747177, Note_on_c, 0, 52, 0
2, 747177, Note_on_c, 0, 61, 0
2, 747180, Note_on_c, 0, 76, 88
2, 747343, Note_on_c, 0, 76, 0
2, 747360, Note_on_c, 0, 66, 67
2, 747523, Note_on_c, 0, 66, 0
2, 747540, Note_on_c, 0, 63, 72
2, 747703, Note_on_c, 0, 63, 0
2, 747720, Note_on_c, 0, 60, 73
2, 747720, Note_on_c, 0, 51, 46
2, 747720, Note_on_c, 0, 56, 49
2, 747883, Note_on_c, 0, 60, 0
2, 747897, Note_on_c, 0, 51, 0
2, 747897, Note_on_c, 0, 56, 0
2, 747900, Note_on_c, 0, 62, 84
2, 748063, Note_on_c, 0, 62, 0
2, 748080, Note_on_c, 0, 63, 90
2, 748080, Note_on_c, 0, 51, 55
2, 748080, Note_on_c, 0, 56, 57
2, 748080, Note_on_c, 0, 60, 56
2, 748243, Note_on_c, 0, 63, 0
2, 748257, Note_on_c, 0, 56, 0
2, 748257, Note_on_c, 0, 51, 0
2, 748257, Note_on_c, 0, 60, 0
2, 748260, Note_on_c, 0, 66, 87
2, 748423, Note_on_c, 0, 66, 0
2, 748440, Note_on_c, 0, 66, 84
2, 748603, Note_on_c, 0, 66, 0
2, 748620, Note_on_c, 0, 65, 78
2, 748783, Note_on_c, 0, 65, 0
2, 748800, Note_on_c, 0, 66, 85
2, 748800, Note_on_c, 0, 51, 46
2, 748800, Note_on_c, 0, 56, 46
2, 748800, Note_on_c, 0, 60, 46
2, 748963, Note_on_c, 0, 66, 0
2, 748977, Note_on_c, 0, 56, 0
2, 748977, Note_on_c, 0, 51, 0
2, 748977, Note_on_c, 0, 60, 0
2, 748980, Note_on_c, 0, 68, 85
2, 749143, Note_on_c, 0, 68, 0
2, 749160, Note_on_c, 0, 72, 92
2, 749160, Note_on_c, 0, 51, 53
2, 749160, Note_on_c, 0, 56, 52
2, 749160, Note_on_c, 0, 60, 51
2, 749323, Note_on_c, 0, 72, 0
2, 749337, Note_on_c, 0, 56, 0
2, 749337, Note_on_c, 0, 51, 0
2, 749337, Note_on_c, 0, 60, 0
2, 749340, Note_on_c, 0, 75, 89
2, 749503, Note_on_c, 0, 75, 0
2, 749520, Note_on_c, 0, 67, 69
2, 749520, Note_on_c, 0, 50, 52
2, 749520, Note_on_c, 0, 59, 54
2, 749697, Note_on_c, 0, 59, 0
2, 749697, Note_on_c, 0, 50, 0
2, 749845, Note_on_c, 0, 67, 0
2, 750960, Note_on_c, 0, 67, 75
2, 751447, Note_on_c, 0, 67, 0
2, 751500, Note_on_c, 0, 66, 76
2, 751663, Note_on_c, 0, 66, 0
2, 751680, Note_on_c, 0, 67, 87
2, 751857, Note_on_c, 0, 67, 0
2, 752400, Note_on_c, 0, 67, 79
2, 753085, Note_on_c, 0, 67, 0
2, 753120, Note_on_c, 0, 67, 81
2, 753607, Note_on_c, 0, 67, 0
2, 753660, Note_on_c, 0, 66, 78
2, 753823, Note_on_c, 0, 66, 0
2, 753840, Note_on_c, 0, 67, 87
2, 753840, Note_on_c, 0, 67, 55
2, 754165, Note_on_c, 0, 67, 0
2, 754200, Note_on_c, 0, 67, 83
2, 754363, Note_on_c, 0, 67, 0
2, 754380, Note_on_c, 0, 71, 88
2, 754543, Note_on_c, 0, 71, 0
2, 754560, Note_on_c, 0, 67, 0
2, 754560, Note_on_c, 0, 67, 75
2, 754560, Note_on_c, 0, 66, 57
2, 754723, Note_on_c, 0, 67, 0
2, 754740, Note_on_c, 0, 71, 87
2, 754903, Note_on_c, 0, 71, 0
2, 754920, Note_on_c, 0, 67, 77
2, 755083, Note_on_c, 0, 67, 0
2, 755100, Note_on_c, 0, 71, 89
2, 755245, Note_on_c, 0, 66, 0
2, 755263, Note_on_c, 0, 71, 0
2, 755280, Note_on_c, 0, 67, 76
2, 755280, Note_on_c, 0, 64, 54
2, 755443, Note_on_c, 0, 67, 0
2, 755460, Note_on_c, 0, 71, 86
2, 755623, Note_on_c, 0, 71, 0
2, 755640, Note_on_c, 0, 67, 76
2, 755803, Note_on_c, 0, 67, 0
2, 755820, Note_on_c, 0, 71, 86
2, 755983, Note_on_c, 0, 71, 0
2, 756000, Note_on_c, 0, 64, 0
2, 756000, Note_on_c, 0, 67, 76
2, 756000, Note_on_c, 0, 61, 57
2, 756163, Note_on_c, 0, 67, 0
2, 756180, Note_on_c, 0, 71, 89
2, 756343, Note_on_c, 0, 71, 0
2, 756360, Note_on_c, 0, 67, 76
2, 756523, Note_on_c, 0, 67, 0
2, 756540, Note_on_c, 0, 71, 90
2, 756703, Note_on_c, 0, 71, 0
2, 756720, Note_on_c, 0, 61, 0
2, 756720, Note_on_c, 0, 67, 75
2, 756720, Note_on_c, 0, 64, 62
2, 756883, Note_on_c, 0, 67, 0
2, 756900, Note_on_c, 0, 71, 89
2, 757063, Note_on_c, 0, 71, 0
2, 757080, Note_on_c, 0, 67, 76
2, 757243, Note_on_c, 0, 67, 0
2, 757260, Note_on_c, 0, 71, 89
2, 757405, Note_on_c, 0, 64, 0
2, 757423, Note_on_c, 0, 71, 0
2, 757440, Note_on_c, 0, 67, 76
2, 757440, Note_on_c, 0, 62, 57
2, 757603, Note_on_c, 0, 67, 0
2, 757620, Note_on_c, 0, 71, 89
2, 757783, Note_on_c, 0, 71, 0
2, 757800, Note_on_c, 0, 67, 77
2, 757963, Note_on_c, 0, 67, 0
2, 757980, Note_on_c, 0, 71, 89
2, 758143, Note_on_c, 0, 71, 0
2, 758160, Note_on_c, 0, 62, 0
2, 758160, Note_on_c, 0, 79, 100
2, 758160, Note_on_c, 0, 59, 51
2, 758323, Note_on_c, 0, 79, 0
2, 758340, Note_on_c, 0, 83, 91
2, 758503, Note_on_c, 0, 83, 0
2, 758520, Note_on_c, 0, 79, 75
2, 758683, Note_on_c, 0, 79, 0
2, 758700, Note_on_c, 0, 83, 87
2, 758863, Note_on_c, 0, 83, 0
2, 758880, Note_on_c, 0, 79, 77
2, 759043, Note_on_c, 0, 79, 0
2, 759060, Note_on_c, 0, 83, 89
2, 759223, Note_on_c, 0, 83, 0
2, 759240, Note_on_c, 0, 79, 74
2, 759403, Note_on_c, 0, 79, 0
2, 759420, Note_on_c, 0, 83, 89
2, 759583, Note_on_c, 0, 83, 0
2, 759600, Note_on_c, 0, 79, 75
2, 759763, Note_on_c, 0, 79, 0
2, 759780, Note_on_c, 0, 83, 89
2, 759943, Note_on_c, 0, 83, 0
2, 759960, Note_on_c, 0, 79, 78
2, 760123, Note_on_c, 0, 79, 0
2, 760140, Note_on_c, 0, 83, 89
2, 760303, Note_on_c, 0, 83, 0
2, 760320, Note_on_c, 0, 79, 75
2, 760320, Note_on_c, 0, 50, 48
2, 760320, Note_on_c, 0, 55, 49
2, 760483, Note_on_c, 0, 79, 0
2, 760500, Note_on_c, 0, 83, 88
2, 760645, Note_on_c, 0, 50, 0
2, 760645, Note_on_c, 0, 55, 0
2, 760663, Note_on_c, 0, 83, 0
2, 760680, Note_on_c, 0, 79, 75
2, 760843, Note_on_c, 0, 79, 0
2, 760860, Note_on_c, 0, 83, 90
2, 761023, Note_on_c, 0, 83, 0
2, 761040, Note_on_c, 0, 79, 75
2, 761203, Note_on_c, 0, 79, 0
2, 761220, Note_on_c, 0, 83, 88
2, 761383, Note_on_c, 0, 83, 0
2, 761400, Note_on_c, 0, 79, 75
2, 761563, Note_on_c, 0, 79, 0
2, 761580, Note_on_c, 0, 83, 88
2, 761743, Note_on_c, 0, 83, 0
2, 761760, Note_on_c, 0, 79, 77
2, 761923, Note_on_c, 0, 79, 0
2, 761940, Note_on_c, 0, 83, 89
2, 762103, Note_on_c, 0, 83, 0
2, 762120, Note_on_c, 0, 79, 77
2, 762283, Note_on_c, 0, 79, 0
2, 762300, Note_on_c, 0, 83, 88
2, 762410, Note_on_c, 0, 59, 0
2, 762463, Note_on_c, 0, 83, 0
2, 762480, Note_on_c, 0, 95, 108
2, 762643, Note_on_c, 0, 95, 0
2, 762660, Note_on_c, 0, 91, 72
2, 762823, Note_on_c, 0, 91, 0
2, 762840, Note_on_c, 0, 83, 67
2, 763003, Note_on_c, 0, 83, 0
2, 763020, Note_on_c, 0, 93, 97
2, 763183, Note_on_c, 0, 93, 0
2, 763200, Note_on_c, 0, 95, 117
2, 763363, Note_on_c, 0, 95, 0
2, 763380, Note_on_c, 0, 91, 73
2, 763543, Note_on_c, 0, 91, 0
2, 763560, Note_on_c, 0, 83, 66
2, 763723, Note_on_c, 0, 83, 0
2, 763740, Note_on_c, 0, 93, 94
2, 763903, Note_on_c, 0, 93, 0
2, 763920, Note_on_c, 0, 95, 116
2, 764083, Note_on_c, 0, 95, 0
2, 764100, Note_on_c, 0, 91, 71
2, 764263, Note_on_c, 0, 91, 0
2, 764280, Note_on_c, 0, 83, 67
2, 764443, Note_on_c, 0, 83, 0
2, 764460, Note_on_c, 0, 93, 93
2, 764623, Note_on_c, 0, 93, 0
2, 764640, Note_on_c, 0, 95, 118
2, 764803, Note_on_c, 0, 95, 0
2, 764820, Note_on_c, 0, 91, 75
2, 764983, Note_on_c, 0, 91, 0
2, 765000, Note_on_c, 0, 83, 68
2, 765163, Note_on_c, 0, 83, 0
2, 765180, Note_on_c, 0, 93, 96
2, 765343, Note_on_c, 0, 93, 0
2, 765360, Note_on_c, 0, 95, 119
2, 765523, Note_on_c, 0, 95, 0
2, 765540, Note_on_c, 0, 91, 71
2, 765703, Note_on_c, 0, 91, 0
2, 765720, Note_on_c, 0, 83, 68
2, 765883, Note_on_c, 0, 83, 0
2, 765900, Note_on_c, 0, 93, 95
2, 766063, Note_on_c, 0, 93, 0
2, 766080, Note_on_c, 0, 95, 116
2, 766243, Note_on_c, 0, 95, 0
2, 766260, Note_on_c, 0, 91, 73
2, 766423, Note_on_c, 0, 91, 0
2, 766440, Note_on_c, 0, 83, 66
2, 766603, Note_on_c, 0, 83, 0
2, 766620, Note_on_c, 0, 93, 94
2, 766783, Note_on_c, 0, 93, 0
2, 766800, Note_on_c, 0, 95, 76
2, 767125, Note_on_c, 0, 95, 0
2, 767160, Note_on_c, 0, 91, 44
2, 767323, Note_on_c, 0, 91, 0
2, 767340, Note_on_c, 0, 95, 47
2, 767503, Note_on_c, 0, 95, 0
2, 767520, Note_on_c, 0, 91, 39
2, 767845, Note_on_c, 0, 91, 0
2, 767880, Note_on_c, 0, 91, 45
2, 768043, Note_on_c, 0, 91, 0
2, 768060, Note_on_c, 0, 95, 49
2, 768223, Note_on_c, 0, 95, 0
2, 768240, Note_on_c, 0, 91, 40
2, 768565, Note_on_c, 0, 91, 0
2, 768600, Note_on_c, 0, 91, 44
2, 768763, Note_on_c, 0, 91, 0
2, 768780, Note_on_c, 0, 95, 47
2, 768943, Note_on_c, 0, 95, 0
2, 768960, Note_on_c, 0, 91, 44
2, 769285, Note_on_c, 0, 91, 0
2, 769320, Note_on_c, 0, 91, 44
2, 769483, Note_on_c, 0, 91, 0
2, 769500, Note_on_c, 0, 95, 47
2, 769663, Note_on_c, 0, 95, 0
2, 769680, Note_on_c, 0, 91, 40
2, 770005, Note_on_c, 0, 91, 0
2, 770040, Note_on_c, 0, 91, 46
2, 770203, Note_on_c, 0, 91, 0
2, 770220, Note_on_c, 0, 95, 49
2, 770383, Note_on_c, 0, 95, 0
2, 770400, Note_on_c, 0, 91, 38
2, 770725, Note_on_c, 0, 91, 0
2, 770760, Note_on_c, 0, 91, 44
2, 770923, Note_on_c, 0, 91, 0
2, 770940, Note_on_c, 0, 95, 47
2, 771103, Note_on_c, 0, 95, 0
2, 771120, Note_on_c, 0, 91, 41
2, 771445, Note_on_c, 0, 91, 0
2, 776700, Note_on_c, 0, 51, 38
2, 776863, Note_on_c, 0, 51, 0
2, 776880, Note_on_c, 0, 53, 43
2, 777043, Note_on_c, 0, 53, 0
2, 777060, Note_on_c, 0, 55, 48
2, 777223, Note_on_c, 0, 55, 0
2, 777240, Note_on_c, 0, 56, 45
2, 777403, Note_on_c, 0, 56, 0
2, 777420, Note_on_c, 0, 58, 44
2, 777583, Note_on_c, 0, 58, 0
2, 777600, Note_on_c, 0, 60, 47
2, 777763, Note_on_c, 0, 60, 0
2, 777780, Note_on_c, 0, 53, 37
2, 777943, Note_on_c, 0, 53, 0
2, 777960, Note_on_c, 0, 55, 45
2, 778123, Note_on_c, 0, 55, 0
2, 778140, Note_on_c, 0, 56, 45
2, 778303, Note_on_c, 0, 56, 0
2, 778320, Note_on_c, 0, 58, 46
2, 778483, Note_on_c, 0, 58, 0
2, 778500, Note_on_c, 0, 60, 46
2, 778663, Note_on_c, 0, 60, 0
2, 778680, Note_on_c, 0, 65, 49
2, 778680, Note_on_c, 0, 60, 49
2, 778680, Note_on_c, 0, 54, 50
2, 778680, Note_on_c, 0, 56, 51
2, 779005, Note_on_c, 0, 65, 0
2, 779040, Note_on_c, 0, 63, 42
2, 779167, Note_on_c, 0, 54, 0
2, 779167, Note_on_c, 0, 60, 0
2, 779167, Note_on_c, 0, 56, 0
2, 779220, Note_on_c, 0, 56, 46
2, 779220, Note_on_c, 0, 53, 48
2, 779383, Note_on_c, 0, 63, 0
2, 779400, Note_on_c, 0, 60, 40
2, 779545, Note_on_c, 0, 53, 0
2, 779563, Note_on_c, 0, 60, 0
2, 779580, Note_on_c, 0, 58, 39
2, 779580, Note_on_c, 0, 52, 50
2, 779707, Note_on_c, 0, 56, 0
2, 779743, Note_on_c, 0, 58, 0
2, 779743, Note_on_c, 0, 52, 0
2, 779760, Note_on_c, 0, 60, 62
2, 779760, Note_on_c, 0, 51, 59
2, 779760, Note_on_c, 0, 56, 62
2, 779850, Note_on_c, 0, 75, 38
2, 779932, Note_on_c, 0, 75, 0
2, 779940, Note_on_c, 0, 77, 46
2, 780022, Note_on_c, 0, 77, 0
2, 780030, Note_on_c, 0, 79, 46
2, 780112, Note_on_c, 0, 79, 0
2, 780120, Note_on_c, 0, 80, 45
2, 780202, Note_on_c, 0, 80, 0
2, 780210, Note_on_c, 0, 82, 46
2, 780247, Note_on_c, 0, 51, 0
2, 780292, Note_on_c, 0, 82, 0
2, 780300, Note_on_c, 0, 84, 48
2, 780300, Note_on_c, 0, 51, 57
2, 780463, Note_on_c, 0, 51, 0
2, 780463, Note_on_c, 0, 60, 0
2, 780463, Note_on_c, 0, 56, 0
2, 780463, Note_on_c, 0, 84, 0
2, 780660, Note_on_c, 0, 56, 47
2, 780660, Note_on_c, 0, 60, 50
2, 780660, Note_on_c, 0, 65, 48
2, 780749, Note_on_c, 0, 65, 0
2, 780749, Note_on_c, 0, 56, 0
2, 780749, Note_on_c, 0, 60, 0
2, 780840, Note_on_c, 0, 56, 51
2, 780840, Note_on_c, 0, 60, 51
2, 780840, Note_on_c, 0, 63, 54
2, 780929, Note_on_c, 0, 63, 0
2, 780929, Note_on_c, 0, 56, 0
2, 780929, Note_on_c, 0, 60, 0
2, 781020, Note_on_c, 0, 51, 40
2, 781183, Note_on_c, 0, 51, 0
2, 781200, Note_on_c, 0, 53, 44
2, 781363, Note_on_c, 0, 53, 0
2, 781380, Note_on_c, 0, 55, 48
2, 781543, Note_on_c, 0, 55, 0
2, 781560, Note_on_c, 0, 56, 45
2, 781723, Note_on_c, 0, 56, 0
2, 781740, Note_on_c, 0, 58, 45
2, 781903, Note_on_c, 0, 58, 0
2, 781920, Note_on_c, 0, 60, 46
2, 782245, Note_on_c, 0, 60, 0
2, 782280, Note_on_c, 0, 55, 38
2, 782443, Note_on_c, 0, 55, 0
2, 782460, Note_on_c, 0, 56, 46
2, 782623, Note_on_c, 0, 56, 0
2, 782640, Note_on_c, 0, 58, 47
2, 782803, Note_on_c, 0, 58, 0
2, 782820, Note_on_c, 0, 60, 46
2, 782983, Note_on_c, 0, 60, 0
2, 783000, Note_on_c, 0, 68, 55
2, 783000, Note_on_c, 0, 60, 50
2, 783000, Note_on_c, 0, 63, 50
2, 783000, Note_on_c, 0, 55, 51
2, 783325, Note_on_c, 0, 68, 0
2, 783360, Note_on_c, 0, 67, 44
2, 783487, Note_on_c, 0, 63, 0
2, 783487, Note_on_c, 0, 60, 0
2, 783540, Note_on_c, 0, 65, 56
2, 783703, Note_on_c, 0, 67, 0
2, 783720, Note_on_c, 0, 63, 37
2, 783883, Note_on_c, 0, 63, 0
2, 783900, Note_on_c, 0, 62, 41
2, 784010, Note_on_c, 0, 55, 0
2, 784027, Note_on_c, 0, 65, 0
2, 784063, Note_on_c, 0, 62, 0
2, 784080, Note_on_c, 0, 63, 54
2, 784080, Note_on_c, 0, 55, 56
2, 784170, Note_on_c, 0, 67, 38
2, 784252, Note_on_c, 0, 67, 0
2, 784260, Note_on_c, 0, 69, 44
2, 784342, Note_on_c, 0, 69, 0
2, 784350, Note_on_c, 0, 71, 46
2, 784432, Note_on_c, 0, 71, 0
2, 784440, Note_on_c, 0, 72, 44
2, 784522, Note_on_c, 0, 72, 0
2, 784530, Note_on_c, 0, 74, 46
2, 784567, Note_on_c, 0, 55, 0
2, 784612, Note_on_c, 0, 74, 0
2, 784620, Note_on_c, 0, 75, 50
2, 784620, Note_on_c, 0, 53, 54
2, 784620, Note_on_c, 0, 57, 54
2, 784702, Note_on_c, 0, 75, 0
2, 784710, Note_on_c, 0, 65, 35
2, 784783, Note_on_c, 0, 63, 0
2, 784792, Note_on_c, 0, 65, 0
2, 784800, Note_on_c, 0, 67, 45
2, 784800, Note_on_c, 0, 61, 55
2, 784882, Note_on_c, 0, 67, 0
2, 784890, Note_on_c, 0, 69, 44
2, 784972, Note_on_c, 0, 69, 0
2, 784980, Note_on_c, 0, 61, 0
2, 784980, Note_on_c, 0, 70, 43
2, 784980, Note_on_c, 0, 60, 54
2, 785062, Note_on_c, 0, 70, 0
2, 785070, Note_on_c, 0, 72, 44
2, 785107, Note_on_c, 0, 53, 0
2, 785107, Note_on_c, 0, 57, 0
2, 785152, Note_on_c, 0, 72, 0
2, 785160, Note_on_c, 0, 60, 0
2, 785160, Note_on_c, 0, 73, 48
2, 785160, Note_on_c, 0, 53, 57
2, 785160, Note_on_c, 0, 61, 59
2, 785323, Note_on_c, 0, 73, 0
2, 785485, Note_on_c, 0, 53, 0
2, 785485, Note_on_c, 0, 61, 0
2, 785520, Note_on_c, 0, 65, 41
2, 785700, Note_on_c, 0, 53, 50
2, 785863, Note_on_c, 0, 65, 0
2, 785880, Note_on_c, 0, 61, 36
2, 786043, Note_on_c, 0, 61, 0
2, 786060, Note_on_c, 0, 60, 39
2, 786223, Note_on_c, 0, 60, 0
2, 786240, Note_on_c, 0, 58, 43
2, 786483, Note_on_c, 0, 58, 0
2, 786510, Note_on_c, 0, 60, 46
2, 786592, Note_on_c, 0, 60, 0
2, 786600, Note_on_c, 0, 61, 44
2, 786727, Note_on_c, 0, 53, 0
2, 786763, Note_on_c, 0, 61, 0
2, 786780, Note_on_c, 0, 63, 47
2, 786780, Note_on_c, 0, 61, 49
2, 786780, Note_on_c, 0, 55, 58
2, 786943, Note_on_c, 0, 55, 0
2, 786943, Note_on_c, 0, 63, 0
2, 786960, Note_on_c, 0, 65, 45
2, 786960, Note_on_c, 0, 56, 56
2, 787123, Note_on_c, 0, 56, 0
2, 787123, Note_on_c, 0, 65, 0
2, 787140, Note_on_c, 0, 67, 46
2, 787140, Note_on_c, 0, 58, 57
2, 787267, Note_on_c, 0, 61, 0
2, 787303, Note_on_c, 0, 67, 0
2, 787303, Note_on_c, 0, 58, 0
2, 787320, Note_on_c, 0, 68, 50
2, 787320, Note_on_c, 0, 63, 57
2, 787320, Note_on_c, 0, 60, 58
2, 787645, Note_on_c, 0, 60, 0
2, 787645, Note_on_c, 0, 68, 0
2, 787645, Note_on_c, 0, 63, 0
2, 787680, Note_on_c, 0, 63, 39
2, 787680, Note_on_c, 0, 60, 50
2, 787680, Note_on_c, 0, 56, 49
2, 787843, Note_on_c, 0, 56, 0
2, 787843, Note_on_c, 0, 60, 0
2, 787860, Note_on_c, 0, 56, 47
2, 787860, Note_on_c, 0, 54, 50
2, 788023, Note_on_c, 0, 54, 0
2, 788023, Note_on_c, 0, 63, 0
2, 788040, Note_on_c, 0, 60, 40
2, 788040, Note_on_c, 0, 53, 50
2, 788203, Note_on_c, 0, 53, 0
2, 788203, Note_on_c, 0, 60, 0
2, 788220, Note_on_c, 0, 58, 41
2, 788220, Note_on_c, 0, 52, 51
2, 788383, Note_on_c, 0, 52, 0
2, 788383, Note_on_c, 0, 58, 0
2, 788400, Note_on_c, 0, 60, 48
2, 788400, Note_on_c, 0, 51, 54
2, 788725, Note_on_c, 0, 51, 0
2, 788725, Note_on_c, 0, 60, 0
2, 788760, Note_on_c, 0, 62, 46
2, 788760, Note_on_c, 0, 53, 55
2, 788887, Note_on_c, 0, 56, 0
2, 788923, Note_on_c, 0, 62, 0
2, 788923, Note_on_c, 0, 53, 0
2, 788940, Note_on_c, 0, 63, 47
2, 788940, Note_on_c, 0, 60, 56
2, 788940, Note_on_c, 0, 54, 59
2, 789103, Note_on_c, 0, 54, 0
2, 789103, Note_on_c, 0, 63, 0
2, 789120, Note_on_c, 0, 65, 44
2, 789120, Note_on_c, 0, 53, 51
2, 789283, Note_on_c, 0, 53, 0
2, 789283, Note_on_c, 0, 65, 0
2, 789300, Note_on_c, 0, 66, 46
2, 789300, Note_on_c, 0, 51, 51
2, 789427, Note_on_c, 0, 60, 0
2, 789463, Note_on_c, 0, 66, 0
2, 789463, Note_on_c, 0, 51, 0
2, 789480, Note_on_c, 0, 67, 49
2, 789480, Note_on_c, 0, 63, 60
2, 789480, Note_on_c, 0, 55, 62
2, 789643, Note_on_c, 0, 67, 0
2, 789660, Note_on_c, 0, 58, 32
2, 789823, Note_on_c, 0, 58, 0
2, 789840, Note_on_c, 0, 60, 44
2, 789967, Note_on_c, 0, 63, 0
2, 790003, Note_on_c, 0, 60, 0
2, 790020, Note_on_c, 0, 62, 49
2, 790020, Note_on_c, 0, 58, 47
2, 790183, Note_on_c, 0, 62, 0
2, 790200, Note_on_c, 0, 63, 46
2, 790363, Note_on_c, 0, 63, 0
2, 790380, Note_on_c, 0, 65, 46
2, 790490, Note_on_c, 0, 55, 0
2, 790507, Note_on_c, 0, 58, 0
2, 790543, Note_on_c, 0, 65, 0
2, 790560, Note_on_c, 0, 67, 48
2, 790560, Note_on_c, 0, 60, 60
2, 790560, Note_on_c, 0, 63, 59
2, 790560, Note_on_c, 0, 57, 61
2, 790885, Note_on_c, 0, 67, 0
2, 790920, Note_on_c, 0, 62, 37
2, 791047, Note_on_c, 0, 63, 0
2, 791047, Note_on_c, 0, 60, 0
2, 791083, Note_on_c, 0, 62, 0
2, 791100, Note_on_c, 0, 63, 47
2, 791100, Note_on_c, 0, 60, 48
2, 791263, Note_on_c, 0, 63, 0
2, 791280, Note_on_c, 0, 65, 44
2, 791443, Note_on_c, 0, 65, 0
2, 791460, Note_on_c, 0, 67, 46
2, 791570, Note_on_c, 0, 57, 0
2, 791587, Note_on_c, 0, 60, 0
2, 791623, Note_on_c, 0, 67, 0
2, 791640, Note_on_c, 0, 72, 49
2, 791640, Note_on_c, 0, 58, 62
2, 791640, Note_on_c, 0, 63, 66
2, 791640, Note_on_c, 0, 67, 66
2, 791965, Note_on_c, 0, 72, 0
2, 792000, Note_on_c, 0, 70, 40
2, 792127, Note_on_c, 0, 63, 0
2, 792127, Note_on_c, 0, 58, 0
2, 792127, Note_on_c, 0, 67, 0
2, 792180, Note_on_c, 0, 62, 47
2, 792180, Note_on_c, 0, 56, 51
2, 792343, Note_on_c, 0, 62, 0
2, 792343, Note_on_c, 0, 70, 0
2, 792360, Note_on_c, 0, 67, 39
2, 792360, Note_on_c, 0, 58, 47
2, 792523, Note_on_c, 0, 67, 0
2, 792540, Note_on_c, 0, 65, 39
2, 792667, Note_on_c, 0, 56, 0
2, 792685, Note_on_c, 0, 58, 0
2, 792703, Note_on_c, 0, 65, 0
2, 792720, Note_on_c, 0, 67, 49
2, 792720, Note_on_c, 0, 55, 62
2, 792720, Note_on_c, 0, 58, 61
2, 792720, Note_on_c, 0, 63, 61
2, 793045, Note_on_c, 0, 67, 0
2, 793080, Note_on_c, 0, 65, 40
2, 793207, Note_on_c, 0, 58, 0
2, 793207, Note_on_c, 0, 55, 0
2, 793207, Note_on_c, 0, 63, 0
2, 793243, Note_on_c, 0, 65, 0
2, 793260, Note_on_c, 0, 63, 47
2, 793260, Note_on_c, 0, 55, 50
2, 793260, Note_on_c, 0, 58, 52
2, 793423, Note_on_c, 0, 58, 0
2, 793423, Note_on_c, 0, 55, 0
2, 793440, Note_on_c, 0, 63, 0
2, 793440, Note_on_c, 0, 61, 46
2, 793440, Note_on_c, 0, 53, 48
2, 793440, Note_on_c, 0, 56, 48
2, 793603, Note_on_c, 0, 56, 0
2, 793603, Note_on_c, 0, 53, 0
2, 793620, Note_on_c, 0, 61, 0
2, 793620, Note_on_c, 0, 63, 51
2, 793620, Note_on_c, 0, 51, 58
2, 793620, Note_on_c, 0, 61, 58
2, 793783, Note_on_c, 0, 61, 0
2, 793783, Note_on_c, 0, 51, 0
2, 793800, Note_on_c, 0, 63, 0
2, 793800, Note_on_c, 0, 51, 42
2, 793800, Note_on_c, 0, 56, 44
2, 793800, Note_on_c, 0, 60, 44
2, 793800, Note_on_c, 0, 32, 43
2, 793800, Note_on_c, 0, 44, 45
2, 793963, Note_on_c, 0, 44, 0
2, 793963, Note_on_c, 0, 60, 0
2, 793963, Note_on_c, 0, 56, 0
2, 793963, Note_on_c, 0, 51, 0
2, 793963, Note_on_c, 0, 32, 0
2, 793980, Note_on_c, 0, 51, 60
2, 794062, Note_on_c, 0, 51, 0
2, 794070, Note_on_c, 0, 60, 63
2, 794152, Note_on_c, 0, 60, 0
2, 794160, Note_on_c, 0, 51, 44
2, 794242, Note_on_c, 0, 51, 0
2, 794250, Note_on_c, 0, 60, 62
2, 794332, Note_on_c, 0, 60, 0
2, 794340, Note_on_c, 0, 72, 45
2, 794340, Note_on_c, 0, 63, 61
2, 794422, Note_on_c, 0, 63, 0
2, 794430, Note_on_c, 0, 60, 50
2, 794512, Note_on_c, 0, 60, 0
2, 794520, Note_on_c, 0, 51, 43
2, 794602, Note_on_c, 0, 51, 0
2, 794610, Note_on_c, 0, 60, 63
2, 794692, Note_on_c, 0, 60, 0
2, 794700, Note_on_c, 0, 52, 44
2, 794782, Note_on_c, 0, 52, 0
2, 794790, Note_on_c, 0, 60, 61
2, 794872, Note_on_c, 0, 60, 0
2, 794880, Note_on_c, 0, 72, 0
2, 794880, Note_on_c, 0, 70, 50
2, 794880, Note_on_c, 0, 44, 43
2, 795043, Note_on_c, 0, 44, 0
2, 795060, Note_on_c, 0, 53, 63
2, 795142, Note_on_c, 0, 53, 0
2, 795150, Note_on_c, 0, 60, 64
2, 795232, Note_on_c, 0, 60, 0
2, 795240, Note_on_c, 0, 53, 45
2, 795322, Note_on_c, 0, 53, 0
2, 795330, Note_on_c, 0, 60, 59
2, 795412, Note_on_c, 0, 60, 0
2, 795420, Note_on_c, 0, 70, 0
2, 795420, Note_on_c, 0, 68, 47
2, 795420, Note_on_c, 0, 65, 64
2, 795502, Note_on_c, 0, 65, 0
2, 795510, Note_on_c, 0, 60, 45
2, 795592, Note_on_c, 0, 60, 0
2, 795600, Note_on_c, 0, 55, 44
2, 795682, Note_on_c, 0, 55, 0
2, 795690, Note_on_c, 0, 60, 60
2, 795772, Note_on_c, 0, 60, 0
2, 795780, Note_on_c, 0, 53, 43
2, 795862, Note_on_c, 0, 53, 0
2, 795870, Note_on_c, 0, 60, 61
2, 795952, Note_on_c, 0, 60, 0
2, 795960, Note_on_c, 0, 44, 42
2, 796042, Note_on_c, 0, 44, 0
2, 796050, Note_on_c, 0, 54, 62
2, 796132, Note_on_c, 0, 54, 0
2, 796140, Note_on_c, 0, 60, 64
2, 796222, Note_on_c, 0, 60, 0
2, 796230, Note_on_c, 0, 54, 49
2, 796312, Note_on_c, 0, 54, 0
2, 796320, Note_on_c, 0, 60, 58
2, 796402, Note_on_c, 0, 60, 0
2, 796410, Note_on_c, 0, 56, 47
2, 796492, Note_on_c, 0, 56, 0
2, 796500, Note_on_c, 0, 68, 0
2, 796500, Note_on_c, 0, 63, 36
2, 796500, Note_on_c, 0, 53, 51
2, 796582, Note_on_c, 0, 53, 0
2, 796590, Note_on_c, 0, 56, 58
2, 796672, Note_on_c, 0, 56, 0
2, 796680, Note_on_c, 0, 65, 65
2, 796762, Note_on_c, 0, 65, 0
2, 796770, Note_on_c, 0, 56, 45
2, 796825, Note_on_c, 0, 63, 0
2, 796852, Note_on_c, 0, 56, 0
2, 796860, Note_on_c, 0, 61, 39
2, 796860, Note_on_c, 0, 56, 58
2, 796860, Note_on_c, 0, 64, 60
2, 796942, Note_on_c, 0, 64, 0
2, 796942, Note_on_c, 0, 56, 0
2, 796950, Note_on_c, 0, 52, 43
2, 797023, Note_on_c, 0, 61, 0
2, 797032, Note_on_c, 0, 52, 0
2, 797040, Note_on_c, 0, 60, 41
2, 797040, Note_on_c, 0, 63, 41
2, 797040, Note_on_c, 0, 44, 45
2, 797122, Note_on_c, 0, 44, 0
2, 797130, Note_on_c, 0, 51, 60
2, 797212, Note_on_c, 0, 51, 0
2, 797220, Note_on_c, 0, 65, 39
2, 797220, Note_on_c, 0, 60, 66
2, 797302, Note_on_c, 0, 65, 0
2, 797302, Note_on_c, 0, 60, 0
2, 797310, Note_on_c, 0, 67, 43
2, 797310, Note_on_c, 0, 63, 58
2, 797392, Note_on_c, 0, 67, 0
2, 797392, Note_on_c, 0, 63, 0
2, 797400, Note_on_c, 0, 68, 44
2, 797400, Note_on_c, 0, 68, 58
2, 797482, Note_on_c, 0, 68, 0
2, 797482, Note_on_c, 0, 68, 0
2, 797490, Note_on_c, 0, 70, 47
2, 797490, Note_on_c, 0, 65, 50
2, 797572, Note_on_c, 0, 65, 0
2, 797572, Note_on_c, 0, 70, 0
2, 797580, Note_on_c, 0, 72, 49
2, 797580, Note_on_c, 0, 67, 59
2, 797662, Note_on_c, 0, 67, 0
2, 797662, Note_on_c, 0, 72, 0
2, 797670, Note_on_c, 0, 75, 46
2, 797670, Note_on_c, 0, 65, 49
2, 797752, Note_on_c, 0, 65, 0
2, 797752, Note_on_c, 0, 75, 0
2, 797760, Note_on_c, 0, 77, 46
2, 797760, Note_on_c, 0, 63, 51
2, 797842, Note_on_c, 0, 77, 0
2, 797842, Note_on_c, 0, 63, 0
2, 797850, Note_on_c, 0, 79, 45
2, 797850, Note_on_c, 0, 60, 46
2, 797932, Note_on_c, 0, 79, 0
2, 797932, Note_on_c, 0, 60, 0
2, 797940, Note_on_c, 0, 80, 44
2, 797940, Note_on_c, 0, 56, 46
2, 798022, Note_on_c, 0, 56, 0
2, 798022, Note_on_c, 0, 80, 0
2, 798030, Note_on_c, 0, 82, 45
2, 798030, Note_on_c, 0, 51, 46
2, 798050, Note_on_c, 0, 63, 0
2, 798050, Note_on_c, 0, 60, 0
2, 798112, Note_on_c, 0, 82, 0
2, 798112, Note_on_c, 0, 51, 0
2, 798120, Note_on_c, 0, 84, 47
2, 798120, Note_on_c, 0, 32, 43
2, 798283, Note_on_c, 0, 32, 0
2, 798283, Note_on_c, 0, 84, 0
2, 798300, Note_on_c, 0, 51, 61
2, 798382, Note_on_c, 0, 51, 0
2, 798390, Note_on_c, 0, 60, 64
2, 798472, Note_on_c, 0, 60, 0
2, 798480, Note_on_c, 0, 51, 45
2, 798562, Note_on_c, 0, 51, 0
2, 798570, Note_on_c, 0, 60, 63
2, 798652, Note_on_c, 0, 60, 0
2, 798660, Note_on_c, 0, 72, 44
2, 798660, Note_on_c, 0, 63, 61
2, 798742, Note_on_c, 0, 63, 0
2, 798750, Note_on_c, 0, 60, 49
2, 798832, Note_on_c, 0, 60, 0
2, 798840, Note_on_c, 0, 51, 41
2, 798922, Note_on_c, 0, 51, 0
2, 798930, Note_on_c, 0, 60, 60
2, 799012, Note_on_c, 0, 60, 0
2, 799020, Note_on_c, 0, 51, 46
2, 799102, Note_on_c, 0, 51, 0
2, 799110, Note_on_c, 0, 43, 41
2, 799192, Note_on_c, 0, 43, 0
2, 799200, Note_on_c, 0, 72, 0
2, 799200, Note_on_c, 0, 70, 48
2, 799200, Note_on_c, 0, 41, 52
2, 799363, Note_on_c, 0, 41, 0
2, 799380, Note_on_c, 0, 50, 64
2, 799462, Note_on_c, 0, 50, 0
2, 799470, Note_on_c, 0, 60, 65
2, 799552, Note_on_c, 0, 60, 0
2, 799560, Note_on_c, 0, 53, 44
2, 799642, Note_on_c, 0, 53, 0
2, 799650, Note_on_c, 0, 60, 59
2, 799732, Note_on_c, 0, 60, 0
2, 799740, Note_on_c, 0, 70, 0
2, 799740, Note_on_c, 0, 68, 46
2, 799740, Note_on_c, 0, 65, 64
2, 799822, Note_on_c, 0, 65, 0
2, 799830, Note_on_c, 0, 60, 46
2, 799912, Note_on_c, 0, 60, 0
2, 799920, Note_on_c, 0, 53, 43
2, 800002, Note_on_c, 0, 53, 0
2, 800010, Note_on_c, 0, 60, 61
2, 800092, Note_on_c, 0, 60, 0
2, 800100, Note_on_c, 0, 53, 43
2, 800182, Note_on_c, 0, 53, 0
2, 800190, Note_on_c, 0, 50, 47
2, 800272, Note_on_c, 0, 50, 0
2, 800280, Note_on_c, 0, 63, 45
2, 800280, Note_on_c, 0, 43, 56
2, 800280, Note_on_c, 0, 51, 56
2, 800362, Note_on_c, 0, 51, 0
2, 800362, Note_on_c, 0, 43, 0
2, 800370, Note_on_c, 0, 55, 60
2, 800452, Note_on_c, 0, 55, 0
2, 800460, Note_on_c, 0, 59, 58
2, 800542, Note_on_c, 0, 59, 0
2, 800550, Note_on_c, 0, 60, 56
2, 800605, Note_on_c, 0, 68, 0
2, 800632, Note_on_c, 0, 60, 0
2, 800640, Note_on_c, 0, 67, 47
2, 800640, Note_on_c, 0, 62, 58
2, 800722, Note_on_c, 0, 62, 0
2, 800730, Note_on_c, 0, 63, 56
2, 800767, Note_on_c, 0, 63, 0
2, 800812, Note_on_c, 0, 63, 0
2, 800820, Note_on_c, 0, 55, 47
2, 800902, Note_on_c, 0, 55, 0
2, 800910, Note_on_c, 0, 59, 58
2, 800983, Note_on_c, 0, 67, 0
2, 800992, Note_on_c, 0, 59, 0
2, 801000, Note_on_c, 0, 65, 47
2, 801000, Note_on_c, 0, 67, 60
2, 801082, Note_on_c, 0, 67, 0
2, 801090, Note_on_c, 0, 59, 47
2, 801172, Note_on_c, 0, 59, 0
2, 801180, Note_on_c, 0, 55, 46
2, 801262, Note_on_c, 0, 55, 0
2, 801270, Note_on_c, 0, 59, 58
2, 801352, Note_on_c, 0, 59, 0
2, 801360, Note_on_c, 0, 65, 0
2, 801360, Note_on_c, 0, 55, 45
2, 801360, Note_on_c, 0, 60, 42
2, 801360, Note_on_c, 0, 63, 42
2, 801360, Note_on_c, 0, 36, 48
2, 801360, Note_on_c, 0, 48, 48
2, 801450, Note_on_c, 0, 55, 48
2, 801523, Note_on_c, 0, 48, 0
2, 801523, Note_on_c, 0, 60, 0
2, 801523, Note_on_c, 0, 63, 0
2, 801523, Note_on_c, 0, 55, 0
2, 801523, Note_on_c, 0, 36, 0
2, 801532, Note_on_c, 0, 55, 0
2, 801540, Note_on_c, 0, 57, 54
2, 801622, Note_on_c, 0, 57, 0
2, 801630, Note_on_c, 0, 59, 58
2, 801712, Note_on_c, 0, 59, 0
2, 801720, Note_on_c, 0, 60, 54
2, 801802, Note_on_c, 0, 60, 0
2, 801810, Note_on_c, 0, 62, 57
2, 801892, Note_on_c, 0, 62, 0
2, 801900, Note_on_c, 0, 63, 57
2, 801990, Note_on_c, 0, 67, 39
2, 802063, Note_on_c, 0, 63, 0
2, 802072, Note_on_c, 0, 67, 0
2, 802080, Note_on_c, 0, 69, 43
2, 802162, Note_on_c, 0, 69, 0
2, 802170, Note_on_c, 0, 71, 46
2, 802252, Note_on_c, 0, 71, 0
2, 802260, Note_on_c, 0, 72, 46
2, 802342, Note_on_c, 0, 72, 0
2, 802350, Note_on_c, 0, 74, 47
2, 802432, Note_on_c, 0, 74, 0
2, 802440, Note_on_c, 0, 75, 48
2, 802603, Note_on_c, 0, 75, 0
2, 802620, Note_on_c, 0, 80, 47
2, 802620, Note_on_c, 0, 68, 46
2, 802783, Note_on_c, 0, 68, 0
2, 802783, Note_on_c, 0, 80, 0
2, 802800, Note_on_c, 0, 79, 40
2, 802800, Note_on_c, 0, 67, 51
2, 802963, Note_on_c, 0, 67, 0
2, 802963, Note_on_c, 0, 79, 0
2, 802980, Note_on_c, 0, 79, 45
2, 802980, Note_on_c, 0, 67, 56
2, 803143, Note_on_c, 0, 67, 0
2, 803143, Note_on_c, 0, 79, 0
2, 803160, Note_on_c, 0, 75, 37
2, 803160, Note_on_c, 0, 63, 48
2, 803323, Note_on_c, 0, 63, 0
2, 803323, Note_on_c, 0, 75, 0
2, 803340, Note_on_c, 0, 74, 39
2, 803340, Note_on_c, 0, 62, 50
2, 803503, Note_on_c, 0, 62, 0
2, 803503, Note_on_c, 0, 74, 0
2, 803520, Note_on_c, 0, 75, 46
2, 803520, Note_on_c, 0, 63, 56
2, 803845, Note_on_c, 0, 63, 0
2, 803845, Note_on_c, 0, 75, 0
2, 803880, Note_on_c, 0, 74, 41
2, 803880, Note_on_c, 0, 62, 50
2, 804043, Note_on_c, 0, 62, 0
2, 804043, Note_on_c, 0, 74, 0
2, 804060, Note_on_c, 0, 72, 44
2, 804060, Note_on_c, 0, 60, 54
2, 804223, Note_on_c, 0, 60, 0
2, 804223, Note_on_c, 0, 72, 0
2, 804240, Note_on_c, 0, 74, 47
2, 804240, Note_on_c, 0, 62, 53
2, 804403, Note_on_c, 0, 62, 0
2, 804403, Note_on_c, 0, 74, 0
2, 804420, Note_on_c, 0, 75, 44
2, 804420, Note_on_c, 0, 63, 57
2, 804583, Note_on_c, 0, 63, 0
2, 804583, Note_on_c, 0, 75, 0
2, 804600, Note_on_c, 0, 79, 51
2, 804600, Note_on_c, 0, 67, 60
2, 804763, Note_on_c, 0, 67, 0
2, 804763, Note_on_c, 0, 79, 0
2, 804780, Note_on_c, 0, 77, 43
2, 804780, Note_on_c, 0, 65, 51
2, 804943, Note_on_c, 0, 65, 0
2, 804943, Note_on_c, 0, 77, 0
2, 804960, Note_on_c, 0, 79, 44
2, 804960, Note_on_c, 0, 67, 56
2, 805123, Note_on_c, 0, 67, 0
2, 805123, Note_on_c, 0, 79, 0
2, 805140, Note_on_c, 0, 77, 44
2, 805140, Note_on_c, 0, 65, 55
2, 805303, Note_on_c, 0, 65, 0
2, 805303, Note_on_c, 0, 77, 0
2, 805320, Note_on_c, 0, 74, 39
2, 805320, Note_on_c, 0, 62, 46
2, 805483, Note_on_c, 0, 62, 0
2, 805483, Note_on_c, 0, 74, 0
2, 805500, Note_on_c, 0, 72, 40
2, 805500, Note_on_c, 0, 60, 49
2, 805663, Note_on_c, 0, 60, 0
2, 805663, Note_on_c, 0, 72, 0
2, 805680, Note_on_c, 0, 62, 46
2, 805680, Note_on_c, 0, 74, 48
2, 805770, Note_on_c, 0, 43, 50
2, 805852, Note_on_c, 0, 43, 0
2, 805860, Note_on_c, 0, 50, 59
2, 805942, Note_on_c, 0, 50, 0
2, 805950, Note_on_c, 0, 55, 61
2, 806032, Note_on_c, 0, 55, 0
2, 806040, Note_on_c, 0, 59, 61
2, 806122, Note_on_c, 0, 59, 0
2, 806130, Note_on_c, 0, 60, 55
2, 806167, Note_on_c, 0, 74, 0
2, 806167, Note_on_c, 0, 62, 0
2, 806212, Note_on_c, 0, 60, 0
2, 806220, Note_on_c, 0, 62, 55
2, 806302, Note_on_c, 0, 62, 0
2, 806310, Note_on_c, 0, 65, 39
2, 806392, Note_on_c, 0, 65, 0
2, 806400, Note_on_c, 0, 67, 42
2, 806482, Note_on_c, 0, 67, 0
2, 806490, Note_on_c, 0, 69, 43
2, 806572, Note_on_c, 0, 69, 0
2, 806580, Note_on_c, 0, 70, 46
2, 806662, Note_on_c, 0, 70, 0
2, 806670, Note_on_c, 0, 72, 44
2, 806752, Note_on_c, 0, 72, 0
2, 806760, Note_on_c, 0, 73, 48
2, 806923, Note_on_c, 0, 73, 0
2, 806940, Note_on_c, 0, 78, 55
2, 806940, Note_on_c, 0, 66, 52
2, 807120, Note_on_c, 0, 66, 0
2, 807120, Note_on_c, 0, 78, 0
2, 807120, Note_on_c, 0, 77, 47
2, 807120, Note_on_c, 0, 65, 55
2, 807300, Note_on_c, 0, 65, 0
2, 807300, Note_on_c, 0, 77, 0
2, 807300, Note_on_c, 0, 77, 51
2, 807300, Note_on_c, 0, 65, 61
2, 807480, Note_on_c, 0, 65, 0
2, 807480, Note_on_c, 0, 77, 0
2, 807480, Note_on_c, 0, 73, 38
2, 807480, Note_on_c, 0, 61, 45
2, 807643, Note_on_c, 0, 61, 0
2, 807643, Note_on_c, 0, 73, 0
2, 807660, Note_on_c, 0, 72, 39
2, 807660, Note_on_c, 0, 60, 51
2, 807823, Note_on_c, 0, 60, 0
2, 807823, Note_on_c, 0, 72, 0
2, 807840, Note_on_c, 0, 73, 46
2, 807840, Note_on_c, 0, 61, 55
2, 808165, Note_on_c, 0, 61, 0
2, 808165, Note_on_c, 0, 73, 0
2, 808200, Note_on_c, 0, 72, 42
2, 808200, Note_on_c, 0, 60, 51
2, 808363, Note_on_c, 0, 60, 0
2, 808363, Note_on_c, 0, 72, 0
2, 808380, Note_on_c, 0, 70, 44
2, 808380, Note_on_c, 0, 58, 54
2, 808543, Note_on_c, 0, 58, 0
2, 808543, Note_on_c, 0, 70, 0
2, 808560, Note_on_c, 0, 72, 44
2, 808560, Note_on_c, 0, 60, 54
2, 808723, Note_on_c, 0, 60, 0
2, 808723, Note_on_c, 0, 72, 0
2, 808740, Note_on_c, 0, 73, 45
2, 808740, Note_on_c, 0, 61, 55
2, 808903, Note_on_c, 0, 61, 0
2, 808903, Note_on_c, 0, 73, 0
2, 808920, Note_on_c, 0, 77, 52
2, 808920, Note_on_c, 0, 65, 61
2, 809083, Note_on_c, 0, 65, 0
2, 809083, Note_on_c, 0, 77, 0
2, 809100, Note_on_c, 0, 75, 42
2, 809100, Note_on_c, 0, 63, 51
2, 809263, Note_on_c, 0, 63, 0
2, 809263, Note_on_c, 0, 75, 0
2, 809280, Note_on_c, 0, 77, 44
2, 809280, Note_on_c, 0, 65, 57
2, 809443, Note_on_c, 0, 65, 0
2, 809443, Note_on_c, 0, 77, 0
2, 809460, Note_on_c, 0, 75, 43
2, 809460, Note_on_c, 0, 63, 55
2, 809623, Note_on_c, 0, 63, 0
2, 809623, Note_on_c, 0, 75, 0
2, 809640, Note_on_c, 0, 72, 40
2, 809640, Note_on_c, 0, 60, 48
2, 809803, Note_on_c, 0, 60, 0
2, 809803, Note_on_c, 0, 72, 0
2, 809820, Note_on_c, 0, 70, 41
2, 809820, Note_on_c, 0, 58, 48
2, 809983, Note_on_c, 0, 58, 0
2, 809983, Note_on_c, 0, 70, 0
2, 810000, Note_on_c, 0, 60, 46
2, 810000, Note_on_c, 0, 72, 48
2, 810090, Note_on_c, 0, 41, 48
2, 810172, Note_on_c, 0, 41, 0
2, 810180, Note_on_c, 0, 48, 61
2, 810262, Note_on_c, 0, 48, 0
2, 810270, Note_on_c, 0, 53, 60
2, 810352, Note_on_c, 0, 53, 0
2, 810360, Note_on_c, 0, 57, 61
2, 810442, Note_on_c, 0, 57, 0
2, 810450, Note_on_c, 0, 58, 57
2, 810487, Note_on_c, 0, 72, 0
2, 810487, Note_on_c, 0, 60, 0
2, 810532, Note_on_c, 0, 58, 0
2, 810540, Note_on_c, 0, 60, 58
2, 810622, Note_on_c, 0, 60, 0
2, 810630, Note_on_c, 0, 63, 40
2, 810712, Note_on_c, 0, 63, 0
2, 810720, Note_on_c, 0, 65, 46
2, 810802, Note_on_c, 0, 65, 0
2, 810810, Note_on_c, 0, 69, 48
2, 810892, Note_on_c, 0, 69, 0
2, 810900, Note_on_c, 0, 70, 46
2, 810982, Note_on_c, 0, 70, 0
2, 810990, Note_on_c, 0, 72, 44
2, 811072, Note_on_c, 0, 72, 0
2, 811080, Note_on_c, 0, 73, 48
2, 811080, Note_on_c, 0, 34, 51
2, 811080, Note_on_c, 0, 46, 53
2, 811243, Note_on_c, 0, 46, 0
2, 811243, Note_on_c, 0, 73, 0
2, 811243, Note_on_c, 0, 34, 0
2, 811260, Note_on_c, 0, 53, 31
2, 811342, Note_on_c, 0, 53, 0
2, 811350, Note_on_c, 0, 58, 47
2, 811432, Note_on_c, 0, 58, 0
2, 811440, Note_on_c, 0, 61, 46
2, 811522, Note_on_c, 0, 61, 0
2, 811530, Note_on_c, 0, 55, 37
2, 811612, Note_on_c, 0, 55, 0
2, 811620, Note_on_c, 0, 57, 47
2, 811620, Note_on_c, 0, 41, 53
2, 811702, Note_on_c, 0, 57, 0
2, 811710, Note_on_c, 0, 63, 48
2, 811783, Note_on_c, 0, 41, 0
2, 811792, Note_on_c, 0, 63, 0
2, 811800, Note_on_c, 0, 53, 33
2, 811882, Note_on_c, 0, 53, 0
2, 811890, Note_on_c, 0, 57, 45
2, 811972, Note_on_c, 0, 57, 0
2, 811980, Note_on_c, 0, 63, 50
2, 812062, Note_on_c, 0, 63, 0
2, 812070, Note_on_c, 0, 65, 45
2, 812152, Note_on_c, 0, 65, 0
2, 812160, Note_on_c, 0, 63, 43
2, 812160, Note_on_c, 0, 34, 50
2, 812160, Note_on_c, 0, 46, 52
2, 812242, Note_on_c, 0, 63, 0
2, 812250, Note_on_c, 0, 60, 37
2, 812323, Note_on_c, 0, 34, 0
2, 812323, Note_on_c, 0, 46, 0
2, 812332, Note_on_c, 0, 60, 0
2, 812340, Note_on_c, 0, 61, 45
2, 812422, Note_on_c, 0, 61, 0
2, 812430, Note_on_c, 0, 70, 49
2, 812512, Note_on_c, 0, 70, 0
2, 812520, Note_on_c, 0, 65, 38
2, 812602, Note_on_c, 0, 65, 0
2, 812610, Note_on_c, 0, 73, 47
2, 812692, Note_on_c, 0, 73, 0
2, 812700, Note_on_c, 0, 72, 43
2, 812700, Note_on_c, 0, 39, 51
2, 812700, Note_on_c, 0, 51, 51
2, 812782, Note_on_c, 0, 72, 0
2, 812790, Note_on_c, 0, 67, 36
2, 812863, Note_on_c, 0, 39, 0
2, 812863, Note_on_c, 0, 51, 0
2, 812872, Note_on_c, 0, 67, 0
2, 812880, Note_on_c, 0, 68, 41
2, 812962, Note_on_c, 0, 68, 0
2, 812970, Note_on_c, 0, 77, 49
2, 813052, Note_on_c, 0, 77, 0
2, 813060, Note_on_c, 0, 75, 43
2, 813142, Note_on_c, 0, 75, 0
2, 813150, Note_on_c, 0, 73, 41
2, 813232, Note_on_c, 0, 73, 0
2, 813240, Note_on_c, 0, 72, 45
2, 813240, Note_on_c, 0, 32, 53
2, 813240, Note_on_c, 0, 44, 51
2, 813322, Note_on_c, 0, 72, 0
2, 813330, Note_on_c, 0, 51, 32
2, 813403, Note_on_c, 0, 32, 0
2, 813403, Note_on_c, 0, 44, 0
2, 813412, Note_on_c, 0, 51, 0
2, 813420, Note_on_c, 0, 53, 42
2, 813502, Note_on_c, 0, 53, 0
2, 813510, Note_on_c, 0, 55, 43
2, 813592, Note_on_c, 0, 55, 0
2, 813600, Note_on_c, 0, 56, 44
2, 813682, Note_on_c, 0, 56, 0
2, 813690, Note_on_c, 0, 58, 47
2, 813772, Note_on_c, 0, 58, 0
2, 813780, Note_on_c, 0, 60, 48
2, 813862, Note_on_c, 0, 60, 0
2, 813870, Note_on_c, 0, 63, 48
2, 813952, Note_on_c, 0, 63, 0
2, 813960, Note_on_c, 0, 65, 43
2, 814042, Note_on_c, 0, 65, 0
2, 814050, Note_on_c, 0, 67, 45
2, 814132, Note_on_c, 0, 67, 0
2, 814140, Note_on_c, 0, 68, 47
2, 814222, Note_on_c, 0, 68, 0
2, 814230, Note_on_c, 0, 70, 45
2, 814312, Note_on_c, 0, 70, 0
2, 814320, Note_on_c, 0, 75, 52
2, 814320, Note_on_c, 0, 32, 52
2, 814320, Note_on_c, 0, 44, 53
2, 814483, Note_on_c, 0, 44, 0
2, 814483, Note_on_c, 0, 75, 0
2, 814483, Note_on_c, 0, 32, 0
2, 814500, Note_on_c, 0, 51, 35
2, 814582, Note_on_c, 0, 51, 0
2, 814590, Note_on_c, 0, 55, 44
2, 814672, Note_on_c, 0, 55, 0
2, 814680, Note_on_c, 0, 56, 46
2, 814762, Note_on_c, 0, 56, 0
2, 814770, Note_on_c, 0, 60, 48
2, 814852, Note_on_c, 0, 60, 0
2, 814860, Note_on_c, 0, 65, 51
2, 814860, Note_on_c, 0, 38, 49
2, 814860, Note_on_c, 0, 50, 49
2, 814942, Note_on_c, 0, 65, 0
2, 814950, Note_on_c, 0, 60, 37
2, 815023, Note_on_c, 0, 38, 0
2, 815023, Note_on_c, 0, 50, 0
2, 815032, Note_on_c, 0, 60, 0
2, 815040, Note_on_c, 0, 58, 40
2, 815122, Note_on_c, 0, 58, 0
2, 815130, Note_on_c, 0, 60, 45
2, 815212, Note_on_c, 0, 60, 0
2, 815220, Note_on_c, 0, 56, 38
2, 815302, Note_on_c, 0, 56, 0
2, 815310, Note_on_c, 0, 60, 45
2, 815392, Note_on_c, 0, 60, 0
2, 815400, Note_on_c, 0, 39, 50
2, 815400, Note_on_c, 0, 51, 50
2, 815563, Note_on_c, 0, 51, 0
2, 815563, Note_on_c, 0, 39, 0
2, 815940, Note_on_c, 0, 77, 45
2, 816480, Note_on_c, 0, 77, 0
2, 816480, Note_on_c, 0, 75, 47
2, 816480, Note_on_c, 0, 39, 52
2, 816480, Note_on_c, 0, 51, 49
2, 816643, Note_on_c, 0, 51, 0
2, 816643, Note_on_c, 0, 39, 0
2, 817020, Note_on_c, 0, 75, 0
2, 817020, Note_on_c, 0, 73, 45
2, 817560, Note_on_c, 0, 56, 44
2, 817560, Note_on_c, 0, 27, 49
2, 817560, Note_on_c, 0, 39, 51
2, 817642, Note_on_c, 0, 56, 0
2, 817642, Note_on_c, 0, 73, 0
2, 817650, Note_on_c, 0, 61, 32
2, 817732, Note_on_c, 0, 61, 0
2, 817740, Note_on_c, 0, 63, 44
2, 817822, Note_on_c, 0, 63, 0
2, 817830, Note_on_c, 0, 65, 46
2, 817912, Note_on_c, 0, 65, 0
2, 817920, Note_on_c, 0, 68, 48
2, 818002, Note_on_c, 0, 68, 0
2, 818010, Note_on_c, 0, 72, 49
2, 818047, Note_on_c, 0, 27, 0
2, 818047, Note_on_c, 0, 39, 0
2, 818092, Note_on_c, 0, 72, 0
2, 818100, Note_on_c, 0, 73, 47
2, 818100, Note_on_c, 0, 39, 67
2, 818100, Note_on_c, 0, 51, 64
2, 818182, Note_on_c, 0, 73, 0
2, 818190, Note_on_c, 0, 75, 45
2, 818272, Note_on_c, 0, 75, 0
2, 818280, Note_on_c, 0, 77, 45
2, 818362, Note_on_c, 0, 77, 0
2, 818370, Note_on_c, 0, 79, 46
2, 818452, Note_on_c, 0, 79, 0
2, 818460, Note_on_c, 0, 80, 47
2, 818542, Note_on_c, 0, 80, 0
2, 818550, Note_on_c, 0, 82, 44
2, 818587, Note_on_c, 0, 39, 0
2, 818587, Note_on_c, 0, 51, 0
2, 818632, Note_on_c, 0, 82, 0
2, 818640, Note_on_c, 0, 80, 44
2, 818640, Note_on_c, 0, 32, 44
2, 818722, Note_on_c, 0, 32, 0
2, 818730, Note_on_c, 0, 44, 65
2, 818803, Note_on_c, 0, 80, 0
2, 818812, Note_on_c, 0, 44, 0
2, 818820, Note_on_c, 0, 51, 65
2, 818902, Note_on_c, 0, 51, 0
2, 818910, Note_on_c, 0, 44, 48
2, 818992, Note_on_c, 0, 44, 0
2, 819000, Note_on_c, 0, 51, 58
2, 819082, Note_on_c, 0, 51, 0
2, 819090, Note_on_c, 0, 56, 61
2, 819172, Note_on_c, 0, 56, 0
2, 819180, Note_on_c, 0, 60, 61
2, 819262, Note_on_c, 0, 60, 0
2, 819270, Note_on_c, 0, 61, 56
2, 819352, Note_on_c, 0, 61, 0
2, 819360, Note_on_c, 0, 63, 55
2, 819442, Note_on_c, 0, 63, 0
2, 819450, Note_on_c, 0, 64, 54
2, 819532, Note_on_c, 0, 64, 0
2, 819540, Note_on_c, 0, 66, 57
2, 819622, Note_on_c, 0, 66, 0
2, 819630, Note_on_c, 0, 68, 56
2, 819712, Note_on_c, 0, 68, 0
2, 819720, Note_on_c, 0, 69, 42
2, 820045, Note_on_c, 0, 69, 0
2, 820080, Note_on_c, 0, 68, 41
2, 820423, Note_on_c, 0, 68, 0
2, 820440, Note_on_c, 0, 68, 42
2, 820603, Note_on_c, 0, 68, 0
2, 820620, Note_on_c, 0, 66, 38
2, 820783, Note_on_c, 0, 66, 0
2, 820800, Note_on_c, 0, 68, 49
2, 821125, Note_on_c, 0, 68, 0
2, 821160, Note_on_c, 0, 63, 37
2, 821323, Note_on_c, 0, 63, 0
2, 821340, Note_on_c, 0, 64, 47
2, 821503, Note_on_c, 0, 64, 0
2, 821520, Note_on_c, 0, 66, 43
2, 821683, Note_on_c, 0, 66, 0
2, 821700, Note_on_c, 0, 68, 44
2, 821863, Note_on_c, 0, 68, 0
2, 821880, Note_on_c, 0, 69, 48
2, 821880, Note_on_c, 0, 61, 52
2, 821880, Note_on_c, 0, 64, 50
2, 822205, Note_on_c, 0, 69, 0
2, 822240, Note_on_c, 0, 68, 40
2, 822583, Note_on_c, 0, 68, 0
2, 822600, Note_on_c, 0, 68, 45
2, 822763, Note_on_c, 0, 68, 0
2, 822780, Note_on_c, 0, 66, 42
2, 822890, Note_on_c, 0, 61, 0
2, 822890, Note_on_c, 0, 64, 0
2, 822943, Note_on_c, 0, 66, 0
2, 822960, Note_on_c, 0, 68, 47
2, 822960, Note_on_c, 0, 60, 53
2, 822960, Note_on_c, 0, 63, 54
2, 823285, Note_on_c, 0, 68, 0
2, 823320, Note_on_c, 0, 63, 38
2, 823483, Note_on_c, 0, 63, 0
2, 823500, Note_on_c, 0, 64, 45
2, 823663, Note_on_c, 0, 64, 0
2, 823680, Note_on_c, 0, 66, 46
2, 823843, Note_on_c, 0, 66, 0
2, 823860, Note_on_c, 0, 68, 44
2, 823970, Note_on_c, 0, 60, 0
2, 823970, Note_on_c, 0, 63, 0
2, 824023, Note_on_c, 0, 68, 0
2, 824040, Note_on_c, 0, 69, 47
2, 824040, Note_on_c, 0, 59, 52
2, 824040, Note_on_c, 0, 62, 53
2, 824365, Note_on_c, 0, 69, 0
2, 824400, Note_on_c, 0, 68, 42
2, 824743, Note_on_c, 0, 68, 0
2, 824760, Note_on_c, 0, 68, 45
2, 824923, Note_on_c, 0, 68, 0
2, 824940, Note_on_c, 0, 66, 41
2, 825050, Note_on_c, 0, 59, 0
2, 825050, Note_on_c, 0, 62, 0
2, 825103, Note_on_c, 0, 66, 0
2, 825120, Note_on_c, 0, 65, 48
2, 825120, Note_on_c, 0, 68, 47
2, 825120, Note_on_c, 0, 59, 41
2, 825120, Note_on_c, 0, 61, 44
2, 825120, Note_on_c, 0, 37, 40
2, 825120, Note_on_c, 0, 49, 44
2, 825445, Note_on_c, 0, 68, 0
2, 825445, Note_on_c, 0, 65, 0
2, 825480, Note_on_c, 0, 61, 34
2, 825643, Note_on_c, 0, 61, 0
2, 825660, Note_on_c, 0, 63, 47
2, 825823, Note_on_c, 0, 63, 0
2, 825840, Note_on_c, 0, 65, 44
2, 826003, Note_on_c, 0, 65, 0
2, 826020, Note_on_c, 0, 68, 46
2, 826130, Note_on_c, 0, 37, 0
2, 826130, Note_on_c, 0, 49, 0
2, 826130, Note_on_c, 0, 59, 0
2, 826130, Note_on_c, 0, 61, 0
2, 826183, Note_on_c, 0, 68, 0
2, 826200, Note_on_c, 0, 69, 50
2, 826200, Note_on_c, 0, 57, 48
2, 826200, Note_on_c, 0, 61, 49
2, 826200, Note_on_c, 0, 64, 49
2, 826200, Note_on_c, 0, 42, 51
2, 826200, Note_on_c, 0, 49, 54
2, 826525, Note_on_c, 0, 69, 0
2, 826560, Note_on_c, 0, 68, 43
2, 826903, Note_on_c, 0, 68, 0
2, 826920, Note_on_c, 0, 68, 43
2, 827083, Note_on_c, 0, 68, 0
2, 827100, Note_on_c, 0, 66, 39
2, 827210, Note_on_c, 0, 49, 0
2, 827210, Note_on_c, 0, 61, 0
2, 827210, Note_on_c, 0, 64, 0
2, 827210, Note_on_c, 0, 57, 0
2, 827210, Note_on_c, 0, 42, 0
2, 827263, Note_on_c, 0, 66, 0
2, 827280, Note_on_c, 0, 63, 46
2, 827280, Note_on_c, 0, 68, 50
2, 827280, Note_on_c, 0, 57, 41
2, 827280, Note_on_c, 0, 59, 43
2, 827280, Note_on_c, 0, 35, 51
2, 827280, Note_on_c, 0, 47, 51
2, 827443, Note_on_c, 0, 68, 0
2, 827443, Note_on_c, 0, 63, 0
2, 827460, Note_on_c, 0, 59, 36
2, 827623, Note_on_c, 0, 59, 0
2, 827640, Note_on_c, 0, 61, 41
2, 827803, Note_on_c, 0, 61, 0
2, 827820, Note_on_c, 0, 63, 48
2, 827983, Note_on_c, 0, 63, 0
2, 828000, Note_on_c, 0, 66, 46
2, 828163, Note_on_c, 0, 66, 0
2, 828180, Note_on_c, 0, 68, 43
2, 828290, Note_on_c, 0, 59, 0
2, 828290, Note_on_c, 0, 47, 0
2, 828290, Note_on_c, 0, 57, 0
2, 828290, Note_on_c, 0, 35, 0
2, 828343, Note_on_c, 0, 68, 0
2, 828360, Note_on_c, 0, 69, 53
2, 828360, Note_on_c, 0, 57, 48
2, 828360, Note_on_c, 0, 61, 47
2, 828360, Note_on_c, 0, 40, 56
2, 828360, Note_on_c, 0, 49, 59
2, 829370, Note_on_c, 0, 49, 0
2, 829370, Note_on_c, 0, 61, 0
2, 829370, Note_on_c, 0, 57, 0
2, 829370, Note_on_c, 0, 40, 0
2, 829440, Note_on_c, 0, 69, 0
2, 829440, Note_on_c, 0, 68, 50
2, 829440, Note_on_c, 0, 56, 43
2, 829440, Note_on_c, 0, 59, 45
2, 829440, Note_on_c, 0, 40, 59
2, 829440, Note_on_c, 0, 52, 61
2, 829927, Note_on_c, 0, 52, 0
2, 829927, Note_on_c, 0, 59, 0
2, 829927, Note_on_c, 0, 56, 0
2, 829927, Note_on_c, 0, 40, 0
2, 829980, Note_on_c, 0, 68, 0
2, 829980, Note_on_c, 0, 66, 47
2, 829980, Note_on_c, 0, 59, 43
2, 829980, Note_on_c, 0, 38, 49
2, 829980, Note_on_c, 0, 50, 49
2, 830467, Note_on_c, 0, 50, 0
2, 830467, Note_on_c, 0, 59, 0
2, 830467, Note_on_c, 0, 38, 0
2, 830520, Note_on_c, 0, 66, 0
2, 830520, Note_on_c, 0, 59, 53
2, 830520, Note_on_c, 0, 65, 55
2, 830520, Note_on_c, 0, 68, 53
2, 830520, Note_on_c, 0, 37, 53
2, 830520, Note_on_c, 0, 49, 49
2, 830579, Note_on_c, 0, 83, 40
2, 830634, Note_on_c, 0, 83, 0
2, 830640, Note_on_c, 0, 85, 46
2, 830694, Note_on_c, 0, 85, 0
2, 830700, Note_on_c, 0, 86, 46
2, 830754, Note_on_c, 0, 86, 0
2, 830759, Note_on_c, 0, 88, 45
2, 830790, Note_on_c, 0, 68, 47
2, 830790, Note_on_c, 0, 74, 50
2, 830790, Note_on_c, 0, 78, 48
2, 830814, Note_on_c, 0, 88, 0
2, 830820, Note_on_c, 0, 86, 40
2, 830835, Note_on_c, 0, 68, 0
2, 830835, Note_on_c, 0, 78, 0
2, 830835, Note_on_c, 0, 74, 0
2, 830874, Note_on_c, 0, 86, 0
2, 830880, Note_on_c, 0, 85, 40
2, 830880, Note_on_c, 0, 68, 52
2, 830880, Note_on_c, 0, 71, 48
2, 830880, Note_on_c, 0, 77, 51
2, 830934, Note_on_c, 0, 85, 0
2, 830939, Note_on_c, 0, 86, 43
2, 830969, Note_on_c, 0, 68, 0
2, 830969, Note_on_c, 0, 77, 0
2, 830969, Note_on_c, 0, 71, 0
2, 830994, Note_on_c, 0, 86, 0
2, 831000, Note_on_c, 0, 85, 42
2, 831054, Note_on_c, 0, 85, 0
2, 831060, Note_on_c, 0, 83, 44
2, 831114, Note_on_c, 0, 83, 0
2, 831119, Note_on_c, 0, 85, 43
2, 831150, Note_on_c, 0, 71, 48
2, 831150, Note_on_c, 0, 74, 46
2, 831174, Note_on_c, 0, 85, 0
2, 831180, Note_on_c, 0, 83, 41
2, 831195, Note_on_c, 0, 74, 0
2, 831195, Note_on_c, 0, 71, 0
2, 831234, Note_on_c, 0, 83, 0
2, 831240, Note_on_c, 0, 81, 40
2, 831240, Note_on_c, 0, 71, 48
2, 831240, Note_on_c, 0, 73, 49
2, 831294, Note_on_c, 0, 81, 0
2, 831299, Note_on_c, 0, 76, 37
2, 831329, Note_on_c, 0, 73, 0
2, 831329, Note_on_c, 0, 71, 0
2, 831354, Note_on_c, 0, 76, 0
2, 831360, Note_on_c, 0, 77, 42
2, 831414, Note_on_c, 0, 77, 0
2, 831420, Note_on_c, 0, 78, 42
2, 831474, Note_on_c, 0, 78, 0
2, 831479, Note_on_c, 0, 77, 39
2, 831510, Note_on_c, 0, 66, 50
2, 831510, Note_on_c, 0, 68, 49
2, 831510, Note_on_c, 0, 71, 49
2, 831530, Note_on_c, 0, 65, 0
2, 831530, Note_on_c, 0, 68, 0
2, 831530, Note_on_c, 0, 59, 0
2, 831530, Note_on_c, 0, 49, 0
2, 831530, Note_on_c, 0, 37, 0
2, 831534, Note_on_c, 0, 77, 0
2, 831540, Note_on_c, 0, 78, 44
2, 831555, Note_on_c, 0, 68, 0
2, 831555, Note_on_c, 0, 71, 0
2, 831555, Note_on_c, 0, 66, 0
2, 831594, Note_on_c, 0, 78, 0
2, 831600, Note_on_c, 0, 80, 47
2, 831600, Note_on_c, 0, 65, 57
2, 831600, Note_on_c, 0, 68, 56
2, 831600, Note_on_c, 0, 71, 55
2, 831654, Note_on_c, 0, 80, 0
2, 831659, Note_on_c, 0, 77, 41
2, 831689, Note_on_c, 0, 68, 0
2, 831689, Note_on_c, 0, 65, 0
2, 831689, Note_on_c, 0, 71, 0
2, 831714, Note_on_c, 0, 77, 0
2, 831720, Note_on_c, 0, 78, 43
2, 831774, Note_on_c, 0, 78, 0
2, 831780, Note_on_c, 0, 80, 47
2, 831834, Note_on_c, 0, 80, 0
2, 831839, Note_on_c, 0, 81, 45
2, 831870, Note_on_c, 0, 65, 48
2, 831870, Note_on_c, 0, 71, 48
2, 831870, Note_on_c, 0, 73, 48
2, 831894, Note_on_c, 0, 81, 0
2, 831900, Note_on_c, 0, 80, 41
2, 831915, Note_on_c, 0, 71, 0
2, 831915, Note_on_c, 0, 65, 0
2, 831915, Note_on_c, 0, 73, 0
2, 831954, Note_on_c, 0, 80, 0
2, 831960, Note_on_c, 0, 78, 41
2, 831960, Note_on_c, 0, 66, 57
2, 831960, Note_on_c, 0, 73, 58
2, 832014, Note_on_c, 0, 78, 0
2, 832019, Note_on_c, 0, 80, 47
2, 832050, Note_on_c, 0, 66, 0
2, 832050, Note_on_c, 0, 73, 0
2, 832050, Note_on_c, 0, 61, 39
2, 832074, Note_on_c, 0, 80, 0
2, 832080, Note_on_c, 0, 78, 42
2, 832132, Note_on_c, 0, 61, 0
2, 832134, Note_on_c, 0, 78, 0
2, 832140, Note_on_c, 0, 77, 43
2, 832140, Note_on_c, 0, 68, 76
2, 832140, Note_on_c, 0, 73, 75
2, 832194, Note_on_c, 0, 77, 0
2, 832199, Note_on_c, 0, 78, 42
2, 832230, Note_on_c, 0, 68, 0
2, 832230, Note_on_c, 0, 73, 0
2, 832230, Note_on_c, 0, 61, 41
2, 832254, Note_on_c, 0, 78, 0
2, 832260, Note_on_c, 0, 77, 39
2, 832312, Note_on_c, 0, 61, 0
2, 832314, Note_on_c, 0, 77, 0
2, 832320, Note_on_c, 0, 77, 42
2, 832374, Note_on_c, 0, 77, 0
2, 832379, Note_on_c, 0, 77, 44
2, 832410, Note_on_c, 0, 61, 48
2, 832410, Note_on_c, 0, 69, 49
2, 832434, Note_on_c, 0, 77, 0
2, 832440, Note_on_c, 0, 76, 40
2, 832455, Note_on_c, 0, 61, 0
2, 832455, Note_on_c, 0, 69, 0
2, 832494, Note_on_c, 0, 76, 0
2, 832500, Note_on_c, 0, 74, 41
2, 832500, Note_on_c, 0, 62, 55
2, 832500, Note_on_c, 0, 68, 55
2, 832554, Note_on_c, 0, 74, 0
2, 832559, Note_on_c, 0, 76, 46
2, 832590, Note_on_c, 0, 62, 0
2, 832590, Note_on_c, 0, 68, 0
2, 832590, Note_on_c, 0, 59, 44
2, 832614, Note_on_c, 0, 76, 0
2, 832620, Note_on_c, 0, 74, 39
2, 832672, Note_on_c, 0, 59, 0
2, 832674, Note_on_c, 0, 74, 0
2, 832680, Note_on_c, 0, 73, 44
2, 832680, Note_on_c, 0, 57, 64
2, 832680, Note_on_c, 0, 64, 66
2, 832680, Note_on_c, 0, 69, 63
2, 832734, Note_on_c, 0, 73, 0
2, 832739, Note_on_c, 0, 76, 47
2, 832769, Note_on_c, 0, 64, 0
2, 832769, Note_on_c, 0, 57, 0
2, 832769, Note_on_c, 0, 69, 0
2, 832794, Note_on_c, 0, 76, 0
2, 832800, Note_on_c, 0, 78, 46
2, 832854, Note_on_c, 0, 78, 0
2, 832860, Note_on_c, 0, 80, 45
2, 832914, Note_on_c, 0, 80, 0
2, 832919, Note_on_c, 0, 81, 46
2, 832950, Note_on_c, 0, 61, 48
2, 832950, Note_on_c, 0, 64, 47
2, 832950, Note_on_c, 0, 71, 47
2, 832974, Note_on_c, 0, 81, 0
2, 832980, Note_on_c, 0, 80, 40
2, 832995, Note_on_c, 0, 64, 0
2, 832995, Note_on_c, 0, 61, 0
2, 832995, Note_on_c, 0, 71, 0
2, 833034, Note_on_c, 0, 80, 0
2, 833040, Note_on_c, 0, 78, 39
2, 833040, Note_on_c, 0, 61, 47
2, 833040, Note_on_c, 0, 64, 49
2, 833040, Note_on_c, 0, 69, 47
2, 833094, Note_on_c, 0, 78, 0
2, 833099, Note_on_c, 0, 80, 43
2, 833129, Note_on_c, 0, 64, 0
2, 833129, Note_on_c, 0, 61, 0
2, 833129, Note_on_c, 0, 69, 0
2, 833154, Note_on_c, 0, 80, 0
2, 833160, Note_on_c, 0, 78, 40
2, 833214, Note_on_c, 0, 78, 0
2, 833220, Note_on_c, 0, 77, 43
2, 833274, Note_on_c, 0, 77, 0
2, 833279, Note_on_c, 0, 78, 44
2, 833310, Note_on_c, 0, 59, 47
2, 833310, Note_on_c, 0, 62, 50
2, 833310, Note_on_c, 0, 69, 49
2, 833334, Note_on_c, 0, 78, 0
2, 833340, Note_on_c, 0, 77, 43
2, 833355, Note_on_c, 0, 62, 0
2, 833355, Note_on_c, 0, 59, 0
2, 833355, Note_on_c, 0, 69, 0
2, 833394, Note_on_c, 0, 77, 0
2, 833400, Note_on_c, 0, 76, 38
2, 833400, Note_on_c, 0, 59, 51
2, 833400, Note_on_c, 0, 62, 49
2, 833400, Note_on_c, 0, 68, 49
2, 833454, Note_on_c, 0, 76, 0
2, 833459, Note_on_c, 0, 77, 43
2, 833489, Note_on_c, 0, 62, 0
2, 833489, Note_on_c, 0, 59, 0
2, 833489, Note_on_c, 0, 68, 0
2, 833514, Note_on_c, 0, 77, 0
2, 833520, Note_on_c, 0, 76, 39
2, 833574, Note_on_c, 0, 76, 0
2, 833580, Note_on_c, 0, 74, 42
2, 833634, Note_on_c, 0, 74, 0
2, 833639, Note_on_c, 0, 76, 44
2, 833670, Note_on_c, 0, 62, 46
2, 833670, Note_on_c, 0, 65, 47
2, 833694, Note_on_c, 0, 76, 0
2, 833700, Note_on_c, 0, 74, 39
2, 833715, Note_on_c, 0, 62, 0
2, 833715, Note_on_c, 0, 65, 0
2, 833754, Note_on_c, 0, 74, 0
2, 833760, Note_on_c, 0, 73, 43
2, 833760, Note_on_c, 0, 57, 53
2, 833760, Note_on_c, 0, 64, 52
2, 833814, Note_on_c, 0, 73, 0
2, 833819, Note_on_c, 0, 68, 36
2, 833849, Note_on_c, 0, 57, 0
2, 833849, Note_on_c, 0, 64, 0
2, 833874, Note_on_c, 0, 68, 0
2, 833880, Note_on_c, 0, 69, 44
2, 833934, Note_on_c, 0, 69, 0
2, 833940, Note_on_c, 0, 71, 45
2, 833994, Note_on_c, 0, 71, 0
2, 833999, Note_on_c, 0, 73, 46
2, 834030, Note_on_c, 0, 61, 47
2, 834030, Note_on_c, 0, 68, 47
2, 834054, Note_on_c, 0, 73, 0
2, 834060, Note_on_c, 0, 71, 40
2, 834075, Note_on_c, 0, 61, 0
2, 834075, Note_on_c, 0, 68, 0
2, 834114, Note_on_c, 0, 71, 0
2, 834120, Note_on_c, 0, 69, 39
2, 834120, Note_on_c, 0, 61, 54
2, 834120, Note_on_c, 0, 66, 55
2, 834174, Note_on_c, 0, 69, 0
2, 834179, Note_on_c, 0, 71, 44
2, 834210, Note_on_c, 0, 61, 0
2, 834210, Note_on_c, 0, 66, 0
2, 834210, Note_on_c, 0, 57, 43
2, 834234, Note_on_c, 0, 71, 0
2, 834240, Note_on_c, 0, 69, 42
2, 834292, Note_on_c, 0, 57, 0
2, 834294, Note_on_c, 0, 69, 0
2, 834300, Note_on_c, 0, 68, 43
2, 834300, Note_on_c, 0, 61, 69
2, 834300, Note_on_c, 0, 64, 71
2, 834354, Note_on_c, 0, 68, 0
2, 834359, Note_on_c, 0, 69, 44
2, 834390, Note_on_c, 0, 61, 0
2, 834390, Note_on_c, 0, 64, 0
2, 834390, Note_on_c, 0, 52, 43
2, 834414, Note_on_c, 0, 69, 0
2, 834420, Note_on_c, 0, 68, 41
2, 834472, Note_on_c, 0, 52, 0
2, 834474, Note_on_c, 0, 68, 0
2, 834480, Note_on_c, 0, 66, 41
2, 834534, Note_on_c, 0, 66, 0
2, 834539, Note_on_c, 0, 68, 46
2, 834570, Note_on_c, 0, 57, 47
2, 834570, Note_on_c, 0, 61, 50
2, 834594, Note_on_c, 0, 68, 0
2, 834600, Note_on_c, 0, 66, 42
2, 834615, Note_on_c, 0, 57, 0
2, 834615, Note_on_c, 0, 61, 0
2, 834654, Note_on_c, 0, 66, 0
2, 834660, Note_on_c, 0, 65, 42
2, 834660, Note_on_c, 0, 56, 59
2, 834660, Note_on_c, 0, 61, 57
2, 834714, Note_on_c, 0, 65, 0
2, 834719, Note_on_c, 0, 66, 44
2, 834750, Note_on_c, 0, 56, 0
2, 834750, Note_on_c, 0, 61, 0
2, 834750, Note_on_c, 0, 49, 39
2, 834774, Note_on_c, 0, 66, 0
2, 834780, Note_on_c, 0, 65, 42
2, 834832, Note_on_c, 0, 49, 0
2, 834834, Note_on_c, 0, 65, 0
2, 834840, Note_on_c, 0, 61, 40
2, 834840, Note_on_c, 0, 52, 66
2, 834840, Note_on_c, 0, 59, 68
2, 835003, Note_on_c, 0, 59, 0
2, 835003, Note_on_c, 0, 52, 0
2, 835020, Note_on_c, 0, 71, 39
2, 835183, Note_on_c, 0, 71, 0
2, 835200, Note_on_c, 0, 73, 43
2, 835327, Note_on_c, 0, 61, 0
2, 835363, Note_on_c, 0, 73, 0
2, 835380, Note_on_c, 0, 74, 47
2, 835380, Note_on_c, 0, 65, 46
2, 835380, Note_on_c, 0, 59, 49
2, 835380, Note_on_c, 0, 49, 49
2, 835543, Note_on_c, 0, 74, 0
2, 835560, Note_on_c, 0, 76, 46
2, 835705, Note_on_c, 0, 65, 0
2, 835723, Note_on_c, 0, 76, 0
2, 835740, Note_on_c, 0, 74, 39
2, 835740, Note_on_c, 0, 66, 44
2, 835903, Note_on_c, 0, 66, 0
2, 835903, Note_on_c, 0, 74, 0
2, 835920, Note_on_c, 0, 73, 41
2, 835920, Note_on_c, 0, 65, 45
2, 836083, Note_on_c, 0, 73, 0
2, 836100, Note_on_c, 0, 68, 36
2, 836245, Note_on_c, 0, 59, 0
2, 836245, Note_on_c, 0, 65, 0
2, 836263, Note_on_c, 0, 68, 0
2, 836280, Note_on_c, 0, 69, 41
2, 836280, Note_on_c, 0, 66, 44
2, 836280, Note_on_c, 0, 57, 51
2, 836443, Note_on_c, 0, 57, 0
2, 836443, Note_on_c, 0, 69, 0
2, 836443, Note_on_c, 0, 66, 0
2, 836460, Note_on_c, 0, 71, 47
2, 836460, Note_on_c, 0, 65, 43
2, 836460, Note_on_c, 0, 56, 53
2, 836623, Note_on_c, 0, 56, 0
2, 836623, Note_on_c, 0, 71, 0
2, 836640, Note_on_c, 0, 69, 40
2, 836640, Note_on_c, 0, 57, 53
2, 836803, Note_on_c, 0, 57, 0
2, 836803, Note_on_c, 0, 69, 0
2, 836820, Note_on_c, 0, 71, 47
2, 836820, Note_on_c, 0, 56, 50
2, 836930, Note_on_c, 0, 49, 0
2, 836947, Note_on_c, 0, 65, 0
2, 836983, Note_on_c, 0, 71, 0
2, 836983, Note_on_c, 0, 56, 0
2, 837000, Note_on_c, 0, 73, 46
2, 837000, Note_on_c, 0, 66, 46
2, 837000, Note_on_c, 0, 57, 56
2, 837000, Note_on_c, 0, 49, 56
2, 837163, Note_on_c, 0, 57, 0
2, 837180, Note_on_c, 0, 59, 56
2, 837325, Note_on_c, 0, 66, 0
2, 837325, Note_on_c, 0, 73, 0
2, 837343, Note_on_c, 0, 59, 0
2, 837360, Note_on_c, 0, 66, 36
2, 837360, Note_on_c, 0, 66, 42
2, 837360, Note_on_c, 0, 57, 50
2, 837523, Note_on_c, 0, 57, 0
2, 837523, Note_on_c, 0, 66, 0
2, 837540, Note_on_c, 0, 68, 49
2, 837540, Note_on_c, 0, 62, 64
2, 837703, Note_on_c, 0, 62, 0
2, 837703, Note_on_c, 0, 68, 0
2, 837720, Note_on_c, 0, 69, 43
2, 837720, Note_on_c, 0, 61, 50
2, 837883, Note_on_c, 0, 61, 0
2, 837883, Note_on_c, 0, 69, 0
2, 837900, Note_on_c, 0, 71, 46
2, 837900, Note_on_c, 0, 59, 51
2, 838010, Note_on_c, 0, 49, 0
2, 838027, Note_on_c, 0, 66, 0
2, 838063, Note_on_c, 0, 71, 0
2, 838063, Note_on_c, 0, 59, 0
2, 838080, Note_on_c, 0, 66, 50
2, 838080, Note_on_c, 0, 73, 53
2, 838080, Note_on_c, 0, 49, 50
2, 838080, Note_on_c, 0, 57, 53
2, 838260, Note_on_c, 0, 73, 41
2, 838260, Note_on_c, 0, 85, 39
2, 838349, Note_on_c, 0, 85, 0
2, 838349, Note_on_c, 0, 73, 0
2, 838440, Note_on_c, 0, 75, 45
2, 838440, Note_on_c, 0, 87, 44
2, 838529, Note_on_c, 0, 87, 0
2, 838529, Note_on_c, 0, 75, 0
2, 838567, Note_on_c, 0, 73, 0
2, 838567, Note_on_c, 0, 49, 0
2, 838567, Note_on_c, 0, 66, 0
2, 838567, Note_on_c, 0, 57, 0
2, 838620, Note_on_c, 0, 77, 49
2, 838620, Note_on_c, 0, 89, 48
2, 838620, Note_on_c, 0, 35, 41
2, 838620, Note_on_c, 0, 47, 40
2, 838709, Note_on_c, 0, 89, 0
2, 838709, Note_on_c, 0, 77, 0
2, 838800, Note_on_c, 0, 78, 44
2, 838800, Note_on_c, 0, 90, 45
2, 838889, Note_on_c, 0, 90, 0
2, 838889, Note_on_c, 0, 78, 0
2, 838980, Note_on_c, 0, 80, 46
2, 838980, Note_on_c, 0, 92, 46
2, 839069, Note_on_c, 0, 92, 0
2, 839069, Note_on_c, 0, 80, 0
2, 839107, Note_on_c, 0, 35, 0
2, 839107, Note_on_c, 0, 47, 0
2, 839160, Note_on_c, 0, 81, 48
2, 839160, Note_on_c, 0, 93, 50
2, 839160, Note_on_c, 0, 33, 52
2, 839160, Note_on_c, 0, 45, 50
2, 839249, Note_on_c, 0, 93, 0
2, 839249, Note_on_c, 0, 81, 0
2, 839340, Note_on_c, 0, 52, 31
2, 839503, Note_on_c, 0, 52, 0
2, 839520, Note_on_c, 0, 54, 44
2, 839683, Note_on_c, 0, 54, 0
2, 839700, Note_on_c, 0, 56, 44
2, 839863, Note_on_c, 0, 56, 0
2, 839880, Note_on_c, 0, 57, 47
2, 840043, Note_on_c, 0, 57, 0
2, 840060, Note_on_c, 0, 59, 46
2, 840170, Note_on_c, 0, 33, 0
2, 840170, Note_on_c, 0, 45, 0
2, 840223, Note_on_c, 0, 59, 0
2, 840240, Note_on_c, 0, 61, 48
2, 840240, Note_on_c, 0, 52, 42
2, 840240, Note_on_c, 0, 56, 44
2, 840240, Note_on_c, 0, 33, 54
2, 840240, Note_on_c, 0, 45, 55
2, 840565, Note_on_c, 0, 61, 0
2, 840600, Note_on_c, 0, 59, 40
2, 840763, Note_on_c, 0, 59, 0
2, 840780, Note_on_c, 0, 61, 47
2, 840943, Note_on_c, 0, 61, 0
2, 840960, Note_on_c, 0, 62, 45
2, 841123, Note_on_c, 0, 62, 0
2, 841140, Note_on_c, 0, 61, 43
2, 841250, Note_on_c, 0, 45, 0
2, 841250, Note_on_c, 0, 56, 0
2, 841250, Note_on_c, 0, 52, 0
2, 841250, Note_on_c, 0, 33, 0
2, 841303, Note_on_c, 0, 61, 0
2, 841320, Note_on_c, 0, 64, 48
2, 841320, Note_on_c, 0, 54, 42
2, 841320, Note_on_c, 0, 58, 36
2, 841320, Note_on_c, 0, 38, 63
2, 841320, Note_on_c, 0, 50, 61
2, 841645, Note_on_c, 0, 64, 0
2, 841680, Note_on_c, 0, 66, 46
2, 841807, Note_on_c, 0, 58, 0
2, 841843, Note_on_c, 0, 66, 0
2, 841860, Note_on_c, 0, 66, 47
2, 841860, Note_on_c, 0, 59, 42
2, 842023, Note_on_c, 0, 66, 0
2, 842040, Note_on_c, 0, 64, 38
2, 842185, Note_on_c, 0, 59, 0
2, 842203, Note_on_c, 0, 64, 0
2, 842220, Note_on_c, 0, 66, 45
2, 842330, Note_on_c, 0, 50, 0
2, 842330, Note_on_c, 0, 54, 0
2, 842330, Note_on_c, 0, 38, 0
2, 842383, Note_on_c, 0, 66, 0
2, 842400, Note_on_c, 0, 69, 50
2, 842400, Note_on_c, 0, 62, 54
2, 842400, Note_on_c, 0, 35, 52
2, 842400, Note_on_c, 0, 47, 53
2, 842725, Note_on_c, 0, 69, 0
2, 842760, Note_on_c, 0, 71, 45
2, 842923, Note_on_c, 0, 71, 0
2, 842940, Note_on_c, 0, 71, 44
2, 843103, Note_on_c, 0, 71, 0
2, 843120, Note_on_c, 0, 69, 41
2, 843283, Note_on_c, 0, 69, 0
2, 843300, Note_on_c, 0, 71, 45
2, 843410, Note_on_c, 0, 47, 0
2, 843410, Note_on_c, 0, 62, 0
2, 843410, Note_on_c, 0, 35, 0
2, 843463, Note_on_c, 0, 71, 0
2, 843480, Note_on_c, 0, 58, 49
2, 843480, Note_on_c, 0, 30, 48
2, 843480, Note_on_c, 0, 42, 48
2, 843521, Note_on_c, 0, 61, 47
2, 843562, Note_on_c, 0, 64, 46
2, 843602, Note_on_c, 0, 73, 48
2, 843643, Note_on_c, 0, 73, 0
2, 843643, Note_on_c, 0, 64, 0
2, 843643, Note_on_c, 0, 42, 0
2, 843643, Note_on_c, 0, 30, 0
2, 843643, Note_on_c, 0, 58, 0
2, 843643, Note_on_c, 0, 61, 0
2, 843660, Note_on_c, 0, 64, 34
2, 843742, Note_on_c, 0, 64, 0
2, 843750, Note_on_c, 0, 66, 43
2, 843832, Note_on_c, 0, 66, 0
2, 843840, Note_on_c, 0, 67, 45
2, 843922, Note_on_c, 0, 67, 0
2, 843930, Note_on_c, 0, 69, 46
2, 844012, Note_on_c, 0, 69, 0
2, 844020, Note_on_c, 0, 67, 42
2, 844102, Note_on_c, 0, 67, 0
2, 844110, Note_on_c, 0, 69, 44
2, 844192, Note_on_c, 0, 69, 0
2, 844200, Note_on_c, 0, 66, 40
2, 844282, Note_on_c, 0, 66, 0
2, 844290, Note_on_c, 0, 67, 44
2, 844372, Note_on_c, 0, 67, 0
2, 844380, Note_on_c, 0, 64, 40
2, 844462, Note_on_c, 0, 64, 0
2, 844470, Note_on_c, 0, 67, 44
2, 844552, Note_on_c, 0, 67, 0
2, 844560, Note_on_c, 0, 66, 45
2, 844642, Note_on_c, 0, 66, 0
2, 844650, Note_on_c, 0, 67, 43
2, 844732, Note_on_c, 0, 67, 0
2, 844740, Note_on_c, 0, 66, 42
2, 844822, Note_on_c, 0, 66, 0
2, 844830, Note_on_c, 0, 67, 42
2, 844912, Note_on_c, 0, 67, 0
2, 844920, Note_on_c, 0, 61, 37
2, 845002, Note_on_c, 0, 61, 0
2, 845010, Note_on_c, 0, 67, 48
2, 845092, Note_on_c, 0, 67, 0
2, 845100, Note_on_c, 0, 62, 41
2, 845182, Note_on_c, 0, 62, 0
2, 845190, Note_on_c, 0, 66, 47
2, 845272, Note_on_c, 0, 66, 0
2, 845280, Note_on_c, 0, 64, 42
2, 845362, Note_on_c, 0, 64, 0
2, 845370, Note_on_c, 0, 67, 47
2, 845452, Note_on_c, 0, 67, 0
2, 845460, Note_on_c, 0, 66, 43
2, 845542, Note_on_c, 0, 66, 0
2, 845550, Note_on_c, 0, 67, 45
2, 845632, Note_on_c, 0, 67, 0
2, 845640, Note_on_c, 0, 67, 47
2, 845722, Note_on_c, 0, 67, 0
2, 845730, Note_on_c, 0, 69, 45
2, 845812, Note_on_c, 0, 69, 0
2, 845820, Note_on_c, 0, 67, 39
2, 845902, Note_on_c, 0, 67, 0
2, 845910, Note_on_c, 0, 69, 45
2, 845992, Note_on_c, 0, 69, 0
2, 846000, Note_on_c, 0, 66, 40
2, 846082, Note_on_c, 0, 66, 0
2, 846090, Note_on_c, 0, 67, 46
2, 846172, Note_on_c, 0, 67, 0
2, 846180, Note_on_c, 0, 66, 42
2, 846180, Note_on_c, 0, 71, 52
2, 846180, Note_on_c, 0, 83, 53
2, 846262, Note_on_c, 0, 66, 0
2, 846269, Note_on_c, 0, 71, 0
2, 846269, Note_on_c, 0, 83, 0
2, 846270, Note_on_c, 0, 67, 44
2, 846352, Note_on_c, 0, 67, 0
2, 846360, Note_on_c, 0, 66, 40
2, 846442, Note_on_c, 0, 66, 0
2, 846450, Note_on_c, 0, 67, 46
2, 846532, Note_on_c, 0, 67, 0
2, 846540, Note_on_c, 0, 64, 38
2, 846622, Note_on_c, 0, 64, 0
2, 846630, Note_on_c, 0, 67, 44
2, 846712, Note_on_c, 0, 67, 0
2, 846720, Note_on_c, 0, 66, 43
2, 846802, Note_on_c, 0, 66, 0
2, 846810, Note_on_c, 0, 67, 45
2, 846892, Note_on_c, 0, 67, 0
2, 846900, Note_on_c, 0, 66, 41
2, 846900, Note_on_c, 0, 73, 50
2, 846900, Note_on_c, 0, 85, 47
2, 846982, Note_on_c, 0, 66, 0
2, 846989, Note_on_c, 0, 73, 0
2, 846989, Note_on_c, 0, 85, 0
2, 846990, Note_on_c, 0, 67, 45
2, 847072, Note_on_c, 0, 67, 0
2, 847080, Note_on_c, 0, 61, 37
2, 847162, Note_on_c, 0, 61, 0
2, 847170, Note_on_c, 0, 67, 47
2, 847252, Note_on_c, 0, 67, 0
2, 847260, Note_on_c, 0, 62, 42
2, 847342, Note_on_c, 0, 62, 0
2, 847350, Note_on_c, 0, 66, 46
2, 847432, Note_on_c, 0, 66, 0
2, 847440, Note_on_c, 0, 64, 42
2, 847522, Note_on_c, 0, 64, 0
2, 847530, Note_on_c, 0, 67, 45
2, 847612, Note_on_c, 0, 67, 0
2, 847620, Note_on_c, 0, 66, 41
2, 847702, Note_on_c, 0, 66, 0
2, 847710, Note_on_c, 0, 67, 45
2, 847792, Note_on_c, 0, 67, 0
2, 847800, Note_on_c, 0, 67, 44
2, 847882, Note_on_c, 0, 67, 0
2, 847890, Note_on_c, 0, 69, 45
2, 847972, Note_on_c, 0, 69, 0
2, 847980, Note_on_c, 0, 67, 40
2, 848062, Note_on_c, 0, 67, 0
2, 848070, Note_on_c, 0, 69, 46
2, 848152, Note_on_c, 0, 69, 0
2, 848160, Note_on_c, 0, 66, 41
2, 848242, Note_on_c, 0, 66, 0
2, 848250, Note_on_c, 0, 67, 46
2, 848332, Note_on_c, 0, 67, 0
2, 848340, Note_on_c, 0, 66, 42
2, 848340, Note_on_c, 0, 69, 53
2, 848340, Note_on_c, 0, 81, 49
2, 848422, Note_on_c, 0, 66, 0
2, 848429, Note_on_c, 0, 69, 0
2, 848429, Note_on_c, 0, 81, 0
2, 848430, Note_on_c, 0, 67, 44
2, 848512, Note_on_c, 0, 67, 0
2, 848520, Note_on_c, 0, 66, 43
2, 848602, Note_on_c, 0, 66, 0
2, 848610, Note_on_c, 0, 67, 42
2, 848692, Note_on_c, 0, 67, 0
2, 848700, Note_on_c, 0, 64, 39
2, 848782, Note_on_c, 0, 64, 0
2, 848790, Note_on_c, 0, 67, 46
2, 848872, Note_on_c, 0, 67, 0
2, 848880, Note_on_c, 0, 66, 46
2, 848962, Note_on_c, 0, 66, 0
2, 848970, Note_on_c, 0, 67, 46
2, 849052, Note_on_c, 0, 67, 0
2, 849060, Note_on_c, 0, 66, 40
2, 849060, Note_on_c, 0, 71, 50
2, 849060, Note_on_c, 0, 83, 50
2, 849142, Note_on_c, 0, 66, 0
2, 849149, Note_on_c, 0, 71, 0
2, 849149, Note_on_c, 0, 83, 0
2, 849150, Note_on_c, 0, 67, 44
2, 849232, Note_on_c, 0, 67, 0
2, 849240, Note_on_c, 0, 59, 33
2, 849322, Note_on_c, 0, 59, 0
2, 849330, Note_on_c, 0, 67, 49
2, 849412, Note_on_c, 0, 67, 0
2, 849420, Note_on_c, 0, 61, 42
2, 849502, Note_on_c, 0, 61, 0
2, 849510, Note_on_c, 0, 66, 46
2, 849592, Note_on_c, 0, 66, 0
2, 849600, Note_on_c, 0, 63, 39
2, 849682, Note_on_c, 0, 63, 0
2, 849690, Note_on_c, 0, 67, 47
2, 849772, Note_on_c, 0, 67, 0
2, 849780, Note_on_c, 0, 66, 42
2, 849862, Note_on_c, 0, 66, 0
2, 849870, Note_on_c, 0, 67, 45
2, 849952, Note_on_c, 0, 67, 0
2, 849960, Note_on_c, 0, 67, 50
2, 850042, Note_on_c, 0, 67, 0
2, 850050, Note_on_c, 0, 69, 55
2, 850132, Note_on_c, 0, 69, 0
2, 850140, Note_on_c, 0, 74, 38
2, 850140, Note_on_c, 0, 67, 50
2, 850222, Note_on_c, 0, 67, 0
2, 850230, Note_on_c, 0, 69, 55
2, 850303, Note_on_c, 0, 74, 0
2, 850312, Note_on_c, 0, 69, 0
2, 850320, Note_on_c, 0, 71, 37
2, 850320, Note_on_c, 0, 66, 50
2, 850402, Note_on_c, 0, 66, 0
2, 850410, Note_on_c, 0, 67, 56
2, 850483, Note_on_c, 0, 71, 0
2, 850492, Note_on_c, 0, 67, 0
2, 850500, Note_on_c, 0, 73, 45
2, 850500, Note_on_c, 0, 66, 54
2, 850582, Note_on_c, 0, 66, 0
2, 850590, Note_on_c, 0, 67, 55
2, 850663, Note_on_c, 0, 73, 0
2, 850672, Note_on_c, 0, 67, 0
2, 850680, Note_on_c, 0, 74, 45
2, 850680, Note_on_c, 0, 66, 51
2, 850762, Note_on_c, 0, 66, 0
2, 850770, Note_on_c, 0, 67, 54
2, 850843, Note_on_c, 0, 74, 0
2, 850852, Note_on_c, 0, 67, 0
2, 850860, Note_on_c, 0, 76, 45
2, 850860, Note_on_c, 0, 64, 47
2, 850942, Note_on_c, 0, 64, 0
2, 850950, Note_on_c, 0, 67, 57
2, 851023, Note_on_c, 0, 76, 0
2, 851032, Note_on_c, 0, 67, 0
2, 851040, Note_on_c, 0, 78, 49
2, 851040, Note_on_c, 0, 69, 56
2, 851040, Note_on_c, 0, 66, 56
2, 851122, Note_on_c, 0, 66, 0
2, 851130, Note_on_c, 0, 67, 55
2, 851212, Note_on_c, 0, 67, 0
2, 851220, Note_on_c, 0, 66, 51
2, 851302, Note_on_c, 0, 66, 0
2, 851310, Note_on_c, 0, 57, 42
2, 851365, Note_on_c, 0, 78, 0
2, 851392, Note_on_c, 0, 57, 0
2, 851400, Note_on_c, 0, 79, 44
2, 851400, Note_on_c, 0, 59, 56
2, 851482, Note_on_c, 0, 59, 0
2, 851490, Note_on_c, 0, 62, 58
2, 851563, Note_on_c, 0, 79, 0
2, 851572, Note_on_c, 0, 62, 0
2, 851580, Note_on_c, 0, 78, 43
2, 851580, Note_on_c, 0, 61, 52
2, 851662, Note_on_c, 0, 61, 0
2, 851670, Note_on_c, 0, 62, 54
2, 851743, Note_on_c, 0, 78, 0
2, 851752, Note_on_c, 0, 62, 0
2, 851760, Note_on_c, 0, 76, 41
2, 851760, Note_on_c, 0, 64, 58
2, 851842, Note_on_c, 0, 64, 0
2, 851850, Note_on_c, 0, 66, 56
2, 851923, Note_on_c, 0, 76, 0
2, 851932, Note_on_c, 0, 66, 0
2, 851940, Note_on_c, 0, 74, 40
2, 851940, Note_on_c, 0, 66, 53
2, 852022, Note_on_c, 0, 66, 0
2, 852030, Note_on_c, 0, 67, 57
2, 852050, Note_on_c, 0, 69, 0
2, 852103, Note_on_c, 0, 74, 0
2, 852112, Note_on_c, 0, 67, 0
2, 852120, Note_on_c, 0, 71, 43
2, 852120, Note_on_c, 0, 67, 49
2, 852120, Note_on_c, 0, 71, 47
2, 852120, Note_on_c, 0, 67, 57
2, 852202, Note_on_c, 0, 67, 0
2, 852210, Note_on_c, 0, 66, 51
2, 852292, Note_on_c, 0, 66, 0
2, 852300, Note_on_c, 0, 64, 48
2, 852382, Note_on_c, 0, 64, 0
2, 852390, Note_on_c, 0, 62, 48
2, 852445, Note_on_c, 0, 71, 0
2, 852472, Note_on_c, 0, 62, 0
2, 852480, Note_on_c, 0, 73, 45
2, 852480, Note_on_c, 0, 64, 57
2, 852562, Note_on_c, 0, 64, 0
2, 852570, Note_on_c, 0, 62, 49
2, 852643, Note_on_c, 0, 73, 0
2, 852652, Note_on_c, 0, 62, 0
2, 852660, Note_on_c, 0, 74, 45
2, 852660, Note_on_c, 0, 59, 49
2, 852742, Note_on_c, 0, 59, 0
2, 852750, Note_on_c, 0, 55, 48
2, 852832, Note_on_c, 0, 55, 0
2, 852840, Note_on_c, 0, 54, 48
2, 852922, Note_on_c, 0, 54, 0
2, 852930, Note_on_c, 0, 52, 51
2, 852985, Note_on_c, 0, 74, 0
2, 853012, Note_on_c, 0, 52, 0
2, 853020, Note_on_c, 0, 76, 44
2, 853020, Note_on_c, 0, 50, 50
2, 853102, Note_on_c, 0, 50, 0
2, 853110, Note_on_c, 0, 47, 50
2, 853130, Note_on_c, 0, 67, 0
2, 853130, Note_on_c, 0, 71, 0
2, 853183, Note_on_c, 0, 76, 0
2, 853192, Note_on_c, 0, 47, 0
2, 853200, Note_on_c, 0, 64, 46
2, 853200, Note_on_c, 0, 76, 48
2, 853200, Note_on_c, 0, 69, 45
2, 853200, Note_on_c, 0, 45, 53
2, 853282, Note_on_c, 0, 45, 0
2, 853290, Note_on_c, 0, 38, 44
2, 853372, Note_on_c, 0, 38, 0
2, 853380, Note_on_c, 0, 45, 62
2, 853443, Note_on_c, 0, 76, 0
2, 853443, Note_on_c, 0, 64, 0
2, 853462, Note_on_c, 0, 45, 0
2, 853470, Note_on_c, 0, 66, 46
2, 853470, Note_on_c, 0, 78, 46
2, 853470, Note_on_c, 0, 50, 60
2, 853552, Note_on_c, 0, 50, 0
2, 853560, Note_on_c, 0, 54, 61
2, 853642, Note_on_c, 0, 54, 0
2, 853650, Note_on_c, 0, 57, 58
2, 853687, Note_on_c, 0, 69, 0
2, 853713, Note_on_c, 0, 78, 0
2, 853713, Note_on_c, 0, 66, 0
2, 853732, Note_on_c, 0, 57, 0
2, 853740, Note_on_c, 0, 67, 47
2, 853740, Note_on_c, 0, 79, 49
2, 853740, Note_on_c, 0, 73, 47
2, 853740, Note_on_c, 0, 55, 52
2, 853740, Note_on_c, 0, 55, 63
2, 853822, Note_on_c, 0, 55, 0
2, 853830, Note_on_c, 0, 61, 60
2, 853912, Note_on_c, 0, 61, 0
2, 853920, Note_on_c, 0, 64, 60
2, 853983, Note_on_c, 0, 55, 0
2, 853983, Note_on_c, 0, 67, 0
2, 853983, Note_on_c, 0, 79, 0
2, 854002, Note_on_c, 0, 64, 0
2, 854010, Note_on_c, 0, 68, 44
2, 854010, Note_on_c, 0, 80, 45
2, 854010, Note_on_c, 0, 56, 43
2, 854010, Note_on_c, 0, 56, 56
2, 854092, Note_on_c, 0, 56, 0
2, 854100, Note_on_c, 0, 61, 58
2, 854182, Note_on_c, 0, 61, 0
2, 854190, Note_on_c, 0, 64, 56
2, 854227, Note_on_c, 0, 73, 0
2, 854253, Note_on_c, 0, 80, 0
2, 854253, Note_on_c, 0, 68, 0
2, 854253, Note_on_c, 0, 56, 0
2, 854272, Note_on_c, 0, 64, 0
2, 854280, Note_on_c, 0, 68, 46
2, 854280, Note_on_c, 0, 72, 46
2, 854280, Note_on_c, 0, 80, 45
2, 854280, Note_on_c, 0, 63, 58
2, 854280, Note_on_c, 0, 66, 57
2, 854443, Note_on_c, 0, 66, 0
2, 854443, Note_on_c, 0, 80, 0
2, 854443, Note_on_c, 0, 72, 0
2, 854443, Note_on_c, 0, 68, 0
2, 854443, Note_on_c, 0, 63, 0
2, 854460, Note_on_c, 0, 78, 42
2, 854623, Note_on_c, 0, 78, 0
2, 854640, Note_on_c, 0, 80, 43
2, 854803, Note_on_c, 0, 80, 0
2, 854820, Note_on_c, 0, 81, 47
2, 854983, Note_on_c, 0, 81, 0
2, 855000, Note_on_c, 0, 83, 46
2, 855000, Note_on_c, 0, 51, 46
2, 855163, Note_on_c, 0, 51, 0
2, 855163, Note_on_c, 0, 83, 0
2, 855180, Note_on_c, 0, 81, 40
2, 855180, Note_on_c, 0, 54, 54
2, 855343, Note_on_c, 0, 54, 0
2, 855343, Note_on_c, 0, 81, 0
2, 855360, Note_on_c, 0, 80, 44
2, 855360, Note_on_c, 0, 44, 59
2, 855360, Note_on_c, 0, 56, 61
2, 855523, Note_on_c, 0, 80, 0
2, 855540, Note_on_c, 0, 75, 36
2, 855703, Note_on_c, 0, 75, 0
2, 855720, Note_on_c, 0, 76, 42
2, 855883, Note_on_c, 0, 76, 0
2, 855900, Note_on_c, 0, 78, 49
2, 856063, Note_on_c, 0, 78, 0
2, 856080, Note_on_c, 0, 76, 40
2, 856243, Note_on_c, 0, 76, 0
2, 856260, Note_on_c, 0, 78, 47
2, 856370, Note_on_c, 0, 44, 0
2, 856370, Note_on_c, 0, 56, 0
2, 856423, Note_on_c, 0, 78, 0
2, 856440, Note_on_c, 0, 80, 48
2, 856440, Note_on_c, 0, 32, 42
2, 856440, Note_on_c, 0, 44, 43
2, 856765, Note_on_c, 0, 32, 0
2, 856765, Note_on_c, 0, 80, 0
2, 856800, Note_on_c, 0, 71, 35
2, 856800, Note_on_c, 0, 56, 63
2, 856963, Note_on_c, 0, 56, 0
2, 856963, Note_on_c, 0, 71, 0
2, 856980, Note_on_c, 0, 72, 44
2, 856980, Note_on_c, 0, 54, 49
2, 857143, Note_on_c, 0, 72, 0
2, 857160, Note_on_c, 0, 75, 47
2, 857323, Note_on_c, 0, 75, 0
2, 857340, Note_on_c, 0, 78, 46
2, 857467, Note_on_c, 0, 54, 0
2, 857467, Note_on_c, 0, 44, 0
2, 857503, Note_on_c, 0, 78, 0
2, 857520, Note_on_c, 0, 68, 47
2, 857520, Note_on_c, 0, 71, 48
2, 857520, Note_on_c, 0, 80, 48
2, 857520, Note_on_c, 0, 44, 60
2, 857520, Note_on_c, 0, 52, 64
2, 857520, Note_on_c, 0, 59, 62
2, 857700, Note_on_c, 0, 71, 39
2, 857700, Note_on_c, 0, 83, 38
2, 857789, Note_on_c, 0, 83, 0
2, 857789, Note_on_c, 0, 71, 0
2, 857880, Note_on_c, 0, 73, 45
2, 857880, Note_on_c, 0, 85, 43
2, 857969, Note_on_c, 0, 85, 0
2, 857969, Note_on_c, 0, 73, 0
2, 858060, Note_on_c, 0, 75, 49
2, 858060, Note_on_c, 0, 87, 49
2, 858149, Note_on_c, 0, 87, 0
2, 858149, Note_on_c, 0, 75, 0
2, 858240, Note_on_c, 0, 76, 44
2, 858240, Note_on_c, 0, 88, 46
2, 858329, Note_on_c, 0, 88, 0
2, 858329, Note_on_c, 0, 76, 0
2, 858420, Note_on_c, 0, 78, 45
2, 858420, Note_on_c, 0, 90, 47
2, 858509, Note_on_c, 0, 90, 0
2, 858509, Note_on_c, 0, 78, 0
2, 858530, Note_on_c, 0, 80, 0
2, 858530, Note_on_c, 0, 68, 0
2, 858530, Note_on_c, 0, 44, 0
2, 858530, Note_on_c, 0, 59, 0
2, 858530, Note_on_c, 0, 71, 0
2, 858530, Note_on_c, 0, 52, 0
2, 858600, Note_on_c, 0, 80, 57
2, 858600, Note_on_c, 0, 92, 56
2, 858600, Note_on_c, 0, 44, 58
2, 858600, Note_on_c, 0, 51, 60
2, 858600, Note_on_c, 0, 54, 59
2, 858600, Note_on_c, 0, 60, 59
2, 858654, Note_on_c, 0, 92, 0
2, 858654, Note_on_c, 0, 80, 0
2, 858659, Note_on_c, 0, 66, 36
2, 858714, Note_on_c, 0, 66, 0
2, 858720, Note_on_c, 0, 68, 44
2, 858763, Note_on_c, 0, 54, 0
2, 858763, Note_on_c, 0, 60, 0
2, 858763, Note_on_c, 0, 44, 0
2, 858763, Note_on_c, 0, 51, 0
2, 858774, Note_on_c, 0, 68, 0
2, 858780, Note_on_c, 0, 69, 43
2, 858834, Note_on_c, 0, 69, 0
2, 858839, Note_on_c, 0, 71, 47
2, 858894, Note_on_c, 0, 71, 0
2, 858900, Note_on_c, 0, 69, 39
2, 858954, Note_on_c, 0, 69, 0
2, 858960, Note_on_c, 0, 68, 39
2, 859014, Note_on_c, 0, 68, 0
2, 859019, Note_on_c, 0, 69, 45
2, 859074, Note_on_c, 0, 69, 0
2, 859080, Note_on_c, 0, 68, 39
2, 859134, Note_on_c, 0, 68, 0
2, 859140, Note_on_c, 0, 66, 42
2, 859194, Note_on_c, 0, 66, 0
2, 859199, Note_on_c, 0, 68, 44
2, 859254, Note_on_c, 0, 68, 0
2, 859260, Note_on_c, 0, 69, 45
2, 859314, Note_on_c, 0, 69, 0
2, 859320, Note_on_c, 0, 66, 40
2, 859320, Note_on_c, 0, 63, 49
2, 859320, Note_on_c, 0, 75, 47
2, 859374, Note_on_c, 0, 66, 0
2, 859379, Note_on_c, 0, 68, 47
2, 859434, Note_on_c, 0, 68, 0
2, 859440, Note_on_c, 0, 66, 39
2, 859483, Note_on_c, 0, 75, 0
2, 859483, Note_on_c, 0, 63, 0
2, 859494, Note_on_c, 0, 66, 0
2, 859500, Note_on_c, 0, 61, 38
2, 859500, Note_on_c, 0, 66, 58
2, 859500, Note_on_c, 0, 78, 58
2, 859554, Note_on_c, 0, 61, 0
2, 859559, Note_on_c, 0, 63, 43
2, 859614, Note_on_c, 0, 63, 0
2, 859620, Note_on_c, 0, 61, 40
2, 859663, Note_on_c, 0, 78, 0
2, 859663, Note_on_c, 0, 66, 0
2, 859674, Note_on_c, 0, 61, 0
2, 859680, Note_on_c, 0, 60, 44
2, 859680, Note_on_c, 0, 68, 58
2, 859680, Note_on_c, 0, 80, 60
2, 859734, Note_on_c, 0, 60, 0
2, 859739, Note_on_c, 0, 61, 45
2, 859794, Note_on_c, 0, 61, 0
2, 859800, Note_on_c, 0, 63, 45
2, 859843, Note_on_c, 0, 80, 0
2, 859854, Note_on_c, 0, 63, 0
2, 859860, Note_on_c, 0, 66, 44
2, 859860, Note_on_c, 0, 66, 38
2, 859860, Note_on_c, 0, 78, 50
2, 859914, Note_on_c, 0, 66, 0
2, 859919, Note_on_c, 0, 64, 42
2, 859974, Note_on_c, 0, 64, 0
2, 859980, Note_on_c, 0, 63, 39
2, 860023, Note_on_c, 0, 78, 0
2, 860023, Note_on_c, 0, 68, 0
2, 860023, Note_on_c, 0, 66, 0
2, 860034, Note_on_c, 0, 63, 0
2, 860040, Note_on_c, 0, 61, 42
2, 860040, Note_on_c, 0, 68, 54
2, 860040, Note_on_c, 0, 80, 57
2, 860094, Note_on_c, 0, 61, 0
2, 860099, Note_on_c, 0, 63, 47
2, 860154, Note_on_c, 0, 63, 0
2, 860160, Note_on_c, 0, 61, 41
2, 860203, Note_on_c, 0, 80, 0
2, 860203, Note_on_c, 0, 68, 0
2, 860214, Note_on_c, 0, 61, 0
2, 860220, Note_on_c, 0, 60, 42
2, 860220, Note_on_c, 0, 68, 55
2, 860220, Note_on_c, 0, 80, 56
2, 860274, Note_on_c, 0, 60, 0
2, 860279, Note_on_c, 0, 61, 46
2, 860334, Note_on_c, 0, 61, 0
2, 860340, Note_on_c, 0, 60, 39
2, 860383, Note_on_c, 0, 80, 0
2, 860383, Note_on_c, 0, 68, 0
2, 860394, Note_on_c, 0, 60, 0
2, 860400, Note_on_c, 0, 61, 43
2, 860400, Note_on_c, 0, 69, 55
2, 860400, Note_on_c, 0, 81, 53
2, 860454, Note_on_c, 0, 61, 0
2, 860459, Note_on_c, 0, 60, 43
2, 860514, Note_on_c, 0, 60, 0
2, 860520, Note_on_c, 0, 61, 43
2, 860563, Note_on_c, 0, 81, 0
2, 860563, Note_on_c, 0, 69, 0
2, 860574, Note_on_c, 0, 61, 0
2, 860580, Note_on_c, 0, 60, 39
2, 860580, Note_on_c, 0, 68, 51
2, 860580, Note_on_c, 0, 80, 50
2, 860634, Note_on_c, 0, 60, 0
2, 860639, Note_on_c, 0, 61, 43
2, 860694, Note_on_c, 0, 61, 0
2, 860700, Note_on_c, 0, 60, 42
2, 860743, Note_on_c, 0, 80, 0
2, 860743, Note_on_c, 0, 68, 0
2, 860754, Note_on_c, 0, 60, 0
2, 860760, Note_on_c, 0, 61, 46
2, 860760, Note_on_c, 0, 68, 54
2, 860760, Note_on_c, 0, 80, 54
2, 860814, Note_on_c, 0, 61, 0
2, 860819, Note_on_c, 0, 63, 46
2, 860874, Note_on_c, 0, 63, 0
2, 860880, Note_on_c, 0, 64, 45
2, 860923, Note_on_c, 0, 80, 0
2, 860923, Note_on_c, 0, 68, 0
2, 860934, Note_on_c, 0, 64, 0
2, 860940, Note_on_c, 0, 69, 48
2, 860940, Note_on_c, 0, 63, 47
2, 860940, Note_on_c, 0, 75, 45
2, 860994, Note_on_c, 0, 69, 0
2, 860999, Note_on_c, 0, 71, 46
2, 861054, Note_on_c, 0, 71, 0
2, 861060, Note_on_c, 0, 69, 42
2, 861103, Note_on_c, 0, 75, 0
2, 861103, Note_on_c, 0, 63, 0
2, 861114, Note_on_c, 0, 69, 0
2, 861120, Note_on_c, 0, 68, 41
2, 861120, Note_on_c, 0, 64, 54
2, 861120, Note_on_c, 0, 76, 56
2, 861174, Note_on_c, 0, 68, 0
2, 861179, Note_on_c, 0, 69, 43
2, 861234, Note_on_c, 0, 69, 0
2, 861240, Note_on_c, 0, 68, 42
2, 861283, Note_on_c, 0, 76, 0
2, 861283, Note_on_c, 0, 64, 0
2, 861294, Note_on_c, 0, 68, 0
2, 861300, Note_on_c, 0, 66, 45
2, 861300, Note_on_c, 0, 66, 59
2, 861300, Note_on_c, 0, 78, 60
2, 861354, Note_on_c, 0, 66, 0
2, 861359, Note_on_c, 0, 68, 43
2, 861414, Note_on_c, 0, 68, 0
2, 861420, Note_on_c, 0, 66, 40
2, 861474, Note_on_c, 0, 66, 0
2, 861480, Note_on_c, 0, 64, 39
2, 861534, Note_on_c, 0, 64, 0
2, 861539, Note_on_c, 0, 66, 45
2, 861594, Note_on_c, 0, 66, 0
2, 861600, Note_on_c, 0, 64, 38
2, 861654, Note_on_c, 0, 64, 0
2, 861660, Note_on_c, 0, 63, 41
2, 861714, Note_on_c, 0, 63, 0
2, 861719, Note_on_c, 0, 64, 45
2, 861774, Note_on_c, 0, 64, 0
2, 861780, Note_on_c, 0, 63, 40
2, 861787, Note_on_c, 0, 66, 0
2, 861787, Note_on_c, 0, 78, 0
2, 861834, Note_on_c, 0, 63, 0
2, 861840, Note_on_c, 0, 61, 44
2, 861840, Note_on_c, 0, 68, 57
2, 861840, Note_on_c, 0, 80, 59
2, 861894, Note_on_c, 0, 61, 0
2, 861899, Note_on_c, 0, 63, 43
2, 861954, Note_on_c, 0, 63, 0
2, 861960, Note_on_c, 0, 64, 46
2, 862014, Note_on_c, 0, 64, 0
2, 862020, Note_on_c, 0, 66, 46
2, 862074, Note_on_c, 0, 66, 0
2, 862079, Note_on_c, 0, 68, 46
2, 862134, Note_on_c, 0, 68, 0
2, 862140, Note_on_c, 0, 66, 39
2, 862194, Note_on_c, 0, 66, 0
2, 862200, Note_on_c, 0, 64, 41
2, 862254, Note_on_c, 0, 64, 0
2, 862259, Note_on_c, 0, 66, 44
2, 862314, Note_on_c, 0, 66, 0
2, 862320, Note_on_c, 0, 64, 38
2, 862374, Note_on_c, 0, 64, 0
2, 862380, Note_on_c, 0, 63, 44
2, 862380, Note_on_c, 0, 51, 49
2, 862380, Note_on_c, 0, 56, 48
2, 862434, Note_on_c, 0, 63, 0
2, 862439, Note_on_c, 0, 64, 46
2, 862494, Note_on_c, 0, 64, 0
2, 862500, Note_on_c, 0, 63, 42
2, 862543, Note_on_c, 0, 51, 0
2, 862554, Note_on_c, 0, 63, 0
2, 862560, Note_on_c, 0, 61, 39
2, 862560, Note_on_c, 0, 49, 49
2, 862614, Note_on_c, 0, 61, 0
2, 862619, Note_on_c, 0, 63, 44
2, 862674, Note_on_c, 0, 63, 0
2, 862680, Note_on_c, 0, 61, 42
2, 862723, Note_on_c, 0, 49, 0
2, 862734, Note_on_c, 0, 61, 0
2, 862740, Note_on_c, 0, 60, 38
2, 862740, Note_on_c, 0, 48, 50
2, 862794, Note_on_c, 0, 60, 0
2, 862799, Note_on_c, 0, 61, 43
2, 862850, Note_on_c, 0, 68, 0
2, 862850, Note_on_c, 0, 80, 0
2, 862854, Note_on_c, 0, 61, 0
2, 862860, Note_on_c, 0, 60, 39
2, 862867, Note_on_c, 0, 56, 0
2, 862903, Note_on_c, 0, 48, 0
2, 862914, Note_on_c, 0, 60, 0
2, 862920, Note_on_c, 0, 59, 42
2, 862920, Note_on_c, 0, 47, 41
2, 862920, Note_on_c, 0, 52, 42
2, 862920, Note_on_c, 0, 56, 43
2, 863083, Note_on_c, 0, 56, 0
2, 863083, Note_on_c, 0, 47, 0
2, 863083, Note_on_c, 0, 59, 0
2, 863083, Note_on_c, 0, 52, 0
2, 863100, Note_on_c, 0, 56, 51
2, 863159, Note_on_c, 0, 71, 38
2, 863182, Note_on_c, 0, 56, 0
2, 863190, Note_on_c, 0, 47, 40
2, 863214, Note_on_c, 0, 71, 0
2, 863220, Note_on_c, 0, 76, 45
2, 863272, Note_on_c, 0, 47, 0
2, 863274, Note_on_c, 0, 76, 0
2, 863280, Note_on_c, 0, 80, 46
2, 863280, Note_on_c, 0, 76, 40
2, 863280, Note_on_c, 0, 64, 63
2, 863280, Note_on_c, 0, 68, 65
2, 863334, Note_on_c, 0, 80, 0
2, 863339, Note_on_c, 0, 81, 45
2, 863362, Note_on_c, 0, 64, 0
2, 863362, Note_on_c, 0, 68, 0
2, 863370, Note_on_c, 0, 56, 42
2, 863394, Note_on_c, 0, 81, 0
2, 863400, Note_on_c, 0, 80, 43
2, 863443, Note_on_c, 0, 76, 0
2, 863452, Note_on_c, 0, 56, 0
2, 863454, Note_on_c, 0, 80, 0
2, 863460, Note_on_c, 0, 78, 42
2, 863460, Note_on_c, 0, 75, 44
2, 863460, Note_on_c, 0, 63, 64
2, 863460, Note_on_c, 0, 66, 64
2, 863514, Note_on_c, 0, 78, 0
2, 863519, Note_on_c, 0, 80, 44
2, 863542, Note_on_c, 0, 63, 0
2, 863542, Note_on_c, 0, 66, 0
2, 863550, Note_on_c, 0, 56, 43
2, 863574, Note_on_c, 0, 80, 0
2, 863580, Note_on_c, 0, 78, 39
2, 863623, Note_on_c, 0, 75, 0
2, 863632, Note_on_c, 0, 56, 0
2, 863634, Note_on_c, 0, 78, 0
2, 863640, Note_on_c, 0, 76, 40
2, 863640, Note_on_c, 0, 73, 41
2, 863640, Note_on_c, 0, 61, 59
2, 863640, Note_on_c, 0, 64, 59
2, 863694, Note_on_c, 0, 76, 0
2, 863699, Note_on_c, 0, 78, 45
2, 863722, Note_on_c, 0, 61, 0
2, 863722, Note_on_c, 0, 64, 0
2, 863730, Note_on_c, 0, 56, 45
2, 863754, Note_on_c, 0, 78, 0
2, 863760, Note_on_c, 0, 76, 42
2, 863803, Note_on_c, 0, 73, 0
2, 863812, Note_on_c, 0, 56, 0
2, 863814, Note_on_c, 0, 76, 0
2, 863820, Note_on_c, 0, 75, 41
2, 863820, Note_on_c, 0, 72, 39
2, 863820, Note_on_c, 0, 60, 61
2, 863820, Note_on_c, 0, 63, 59
2, 863874, Note_on_c, 0, 75, 0
2, 863879, Note_on_c, 0, 76, 42
2, 863902, Note_on_c, 0, 60, 0
2, 863902, Note_on_c, 0, 63, 0
2, 863910, Note_on_c, 0, 56, 44
2, 863934, Note_on_c, 0, 76, 0
2, 863940, Note_on_c, 0, 75, 39
2, 863983, Note_on_c, 0, 72, 0
2, 863992, Note_on_c, 0, 56, 0
2, 863994, Note_on_c, 0, 75, 0
2, 864000, Note_on_c, 0, 74, 42
2, 864000, Note_on_c, 0, 71, 44
2, 864000, Note_on_c, 0, 59, 63
2, 864000, Note_on_c, 0, 62, 61
2, 864054, Note_on_c, 0, 74, 0
2, 864082, Note_on_c, 0, 59, 0
2, 864082, Note_on_c, 0, 62, 0
2, 864090, Note_on_c, 0, 56, 47
2, 864120, Note_on_c, 0, 81, 39
2, 864163, Note_on_c, 0, 71, 0
2, 864172, Note_on_c, 0, 56, 0
2, 864174, Note_on_c, 0, 81, 0
2, 864180, Note_on_c, 0, 83, 43
2, 864180, Note_on_c, 0, 80, 50
2, 864180, Note_on_c, 0, 68, 66
2, 864180, Note_on_c, 0, 71, 63
2, 864234, Note_on_c, 0, 83, 0
2, 864239, Note_on_c, 0, 85, 46
2, 864262, Note_on_c, 0, 68, 0
2, 864262, Note_on_c, 0, 71, 0
2, 864270, Note_on_c, 0, 62, 44
2, 864294, Note_on_c, 0, 85, 0
2, 864300, Note_on_c, 0, 83, 39
2, 864343, Note_on_c, 0, 80, 0
2, 864352, Note_on_c, 0, 62, 0
2, 864354, Note_on_c, 0, 83, 0
2, 864360, Note_on_c, 0, 81, 40
2, 864360, Note_on_c, 0, 78, 41
2, 864360, Note_on_c, 0, 66, 61
2, 864360, Note_on_c, 0, 69, 60
2, 864414, Note_on_c, 0, 81, 0
2, 864419, Note_on_c, 0, 83, 47
2, 864442, Note_on_c, 0, 66, 0
2, 864442, Note_on_c, 0, 69, 0
2, 864450, Note_on_c, 0, 62, 43
2, 864474, Note_on_c, 0, 83, 0
2, 864480, Note_on_c, 0, 81, 40
2, 864523, Note_on_c, 0, 78, 0
2, 864532, Note_on_c, 0, 62, 0
2, 864534, Note_on_c, 0, 81, 0
2, 864540, Note_on_c, 0, 80, 44
2, 864540, Note_on_c, 0, 76, 42
2, 864540, Note_on_c, 0, 62, 61
2, 864540, Note_on_c, 0, 68, 61
2, 864594, Note_on_c, 0, 80, 0
2, 864599, Note_on_c, 0, 81, 43
2, 864622, Note_on_c, 0, 62, 0
2, 864622, Note_on_c, 0, 68, 0
2, 864630, Note_on_c, 0, 59, 42
2, 864654, Note_on_c, 0, 81, 0
2, 864660, Note_on_c, 0, 80, 42
2, 864703, Note_on_c, 0, 76, 0
2, 864712, Note_on_c, 0, 59, 0
2, 864714, Note_on_c, 0, 80, 0
2, 864720, Note_on_c, 0, 78, 41
2, 864720, Note_on_c, 0, 74, 40
2, 864720, Note_on_c, 0, 62, 61
2, 864720, Note_on_c, 0, 66, 59
2, 864774, Note_on_c, 0, 78, 0
2, 864779, Note_on_c, 0, 80, 44
2, 864802, Note_on_c, 0, 62, 0
2, 864802, Note_on_c, 0, 66, 0
2, 864810, Note_on_c, 0, 59, 43
2, 864834, Note_on_c, 0, 80, 0
2, 864840, Note_on_c, 0, 78, 39
2, 864883, Note_on_c, 0, 74, 0
2, 864892, Note_on_c, 0, 59, 0
2, 864894, Note_on_c, 0, 78, 0
2, 864900, Note_on_c, 0, 74, 37
2, 864900, Note_on_c, 0, 71, 39
2, 864900, Note_on_c, 0, 59, 56
2, 864900, Note_on_c, 0, 62, 56
2, 864954, Note_on_c, 0, 74, 0
2, 864959, Note_on_c, 0, 76, 45
2, 864982, Note_on_c, 0, 59, 0
2, 864982, Note_on_c, 0, 62, 0
2, 864990, Note_on_c, 0, 56, 45
2, 865014, Note_on_c, 0, 76, 0
2, 865020, Note_on_c, 0, 74, 38
2, 865063, Note_on_c, 0, 71, 0
2, 865072, Note_on_c, 0, 56, 0
2, 865074, Note_on_c, 0, 74, 0
2, 865080, Note_on_c, 0, 73, 43
2, 865080, Note_on_c, 0, 71, 44
2, 865080, Note_on_c, 0, 59, 61
2, 865080, Note_on_c, 0, 61, 61
2, 865134, Note_on_c, 0, 73, 0
2, 865162, Note_on_c, 0, 59, 0
2, 865162, Note_on_c, 0, 61, 0
2, 865170, Note_on_c, 0, 53, 42
2, 865200, Note_on_c, 0, 83, 40
2, 865243, Note_on_c, 0, 71, 0
2, 865252, Note_on_c, 0, 53, 0
2, 865254, Note_on_c, 0, 83, 0
2, 865260, Note_on_c, 0, 85, 46
2, 865260, Note_on_c, 0, 81, 49
2, 865260, Note_on_c, 0, 69, 64
2, 865260, Note_on_c, 0, 73, 64
2, 865314, Note_on_c, 0, 85, 0
2, 865319, Note_on_c, 0, 86, 46
2, 865342, Note_on_c, 0, 69, 0
2, 865342, Note_on_c, 0, 73, 0
2, 865350, Note_on_c, 0, 61, 42
2, 865374, Note_on_c, 0, 86, 0
2, 865380, Note_on_c, 0, 85, 43
2, 865423, Note_on_c, 0, 81, 0
2, 865432, Note_on_c, 0, 61, 0
2, 865434, Note_on_c, 0, 85, 0
2, 865440, Note_on_c, 0, 83, 40
2, 865440, Note_on_c, 0, 80, 42
2, 865440, Note_on_c, 0, 68, 63
2, 865440, Note_on_c, 0, 71, 63
2, 865494, Note_on_c, 0, 83, 0
2, 865499, Note_on_c, 0, 85, 45
2, 865522, Note_on_c, 0, 68, 0
2, 865522, Note_on_c, 0, 71, 0
2, 865530, Note_on_c, 0, 61, 42
2, 865554, Note_on_c, 0, 85, 0
2, 865560, Note_on_c, 0, 83, 39
2, 865603, Note_on_c, 0, 80, 0
2, 865612, Note_on_c, 0, 61, 0
2, 865614, Note_on_c, 0, 83, 0
2, 865620, Note_on_c, 0, 81, 43
2, 865620, Note_on_c, 0, 78, 43
2, 865620, Note_on_c, 0, 66, 63
2, 865620, Note_on_c, 0, 69, 64
2, 865674, Note_on_c, 0, 81, 0
2, 865679, Note_on_c, 0, 83, 44
2, 865702, Note_on_c, 0, 66, 0
2, 865702, Note_on_c, 0, 69, 0
2, 865710, Note_on_c, 0, 61, 43
2, 865734, Note_on_c, 0, 83, 0
2, 865740, Note_on_c, 0, 81, 41
2, 865783, Note_on_c, 0, 78, 0
2, 865792, Note_on_c, 0, 61, 0
2, 865794, Note_on_c, 0, 81, 0
2, 865800, Note_on_c, 0, 80, 41
2, 865800, Note_on_c, 0, 73, 39
2, 865800, Note_on_c, 0, 61, 60
2, 865800, Note_on_c, 0, 68, 61
2, 865854, Note_on_c, 0, 80, 0
2, 865859, Note_on_c, 0, 81, 43
2, 865882, Note_on_c, 0, 61, 0
2, 865882, Note_on_c, 0, 68, 0
2, 865890, Note_on_c, 0, 59, 43
2, 865914, Note_on_c, 0, 81, 0
2, 865920, Note_on_c, 0, 80, 40
2, 865963, Note_on_c, 0, 73, 0
2, 865972, Note_on_c, 0, 59, 0
2, 865974, Note_on_c, 0, 80, 0
2, 865980, Note_on_c, 0, 78, 40
2, 865980, Note_on_c, 0, 73, 43
2, 865980, Note_on_c, 0, 61, 60
2, 865980, Note_on_c, 0, 66, 59
2, 866034, Note_on_c, 0, 78, 0
2, 866039, Note_on_c, 0, 80, 46
2, 866062, Note_on_c, 0, 61, 0
2, 866062, Note_on_c, 0, 66, 0
2, 866070, Note_on_c, 0, 57, 41
2, 866094, Note_on_c, 0, 80, 0
2, 866100, Note_on_c, 0, 78, 41
2, 866143, Note_on_c, 0, 73, 0
2, 866152, Note_on_c, 0, 57, 0
2, 866154, Note_on_c, 0, 78, 0
2, 866160, Note_on_c, 0, 76, 42
2, 866160, Note_on_c, 0, 61, 59
2, 866214, Note_on_c, 0, 76, 0
2, 866219, Note_on_c, 0, 78, 44
2, 866242, Note_on_c, 0, 61, 0
2, 866250, Note_on_c, 0, 69, 61
2, 866274, Note_on_c, 0, 78, 0
2, 866280, Note_on_c, 0, 76, 40
2, 866332, Note_on_c, 0, 69, 0
2, 866334, Note_on_c, 0, 76, 0
2, 866340, Note_on_c, 0, 75, 40
2, 866340, Note_on_c, 0, 63, 47
2, 866394, Note_on_c, 0, 75, 0
2, 866399, Note_on_c, 0, 76, 43
2, 866422, Note_on_c, 0, 63, 0
2, 866430, Note_on_c, 0, 69, 57
2, 866454, Note_on_c, 0, 76, 0
2, 866460, Note_on_c, 0, 75, 40
2, 866512, Note_on_c, 0, 69, 0
2, 866514, Note_on_c, 0, 75, 0
2, 866520, Note_on_c, 0, 73, 38
2, 866520, Note_on_c, 0, 64, 47
2, 866574, Note_on_c, 0, 73, 0
2, 866579, Note_on_c, 0, 75, 46
2, 866602, Note_on_c, 0, 64, 0
2, 866610, Note_on_c, 0, 69, 58
2, 866634, Note_on_c, 0, 75, 0
2, 866640, Note_on_c, 0, 73, 41
2, 866692, Note_on_c, 0, 69, 0
2, 866694, Note_on_c, 0, 73, 0
2, 866700, Note_on_c, 0, 75, 48
2, 866700, Note_on_c, 0, 63, 48
2, 866754, Note_on_c, 0, 75, 0
2, 866759, Note_on_c, 0, 76, 46
2, 866782, Note_on_c, 0, 63, 0
2, 866790, Note_on_c, 0, 69, 60
2, 866814, Note_on_c, 0, 76, 0
2, 866820, Note_on_c, 0, 75, 40
2, 866872, Note_on_c, 0, 69, 0
2, 866874, Note_on_c, 0, 75, 0
2, 866880, Note_on_c, 0, 73, 38
2, 866880, Note_on_c, 0, 64, 47
2, 866934, Note_on_c, 0, 73, 0
2, 866939, Note_on_c, 0, 75, 44
2, 866962, Note_on_c, 0, 64, 0
2, 866970, Note_on_c, 0, 69, 57
2, 866994, Note_on_c, 0, 75, 0
2, 867000, Note_on_c, 0, 73, 42
2, 867052, Note_on_c, 0, 69, 0
2, 867054, Note_on_c, 0, 73, 0
2, 867060, Note_on_c, 0, 75, 46
2, 867060, Note_on_c, 0, 63, 47
2, 867114, Note_on_c, 0, 75, 0
2, 867119, Note_on_c, 0, 73, 38
2, 867142, Note_on_c, 0, 63, 0
2, 867150, Note_on_c, 0, 69, 58
2, 867174, Note_on_c, 0, 73, 0
2, 867180, Note_on_c, 0, 75, 43
2, 867232, Note_on_c, 0, 69, 0
2, 867234, Note_on_c, 0, 75, 0
2, 867240, Note_on_c, 0, 72, 45
2, 867240, Note_on_c, 0, 56, 69
2, 867240, Note_on_c, 0, 63, 70
2, 867240, Note_on_c, 0, 68, 66
2, 867403, Note_on_c, 0, 68, 0
2, 867403, Note_on_c, 0, 56, 0
2, 867403, Note_on_c, 0, 72, 0
2, 867403, Note_on_c, 0, 63, 0
2, 867420, Note_on_c, 0, 60, 38
2, 867420, Note_on_c, 0, 72, 40
2, 867420, Note_on_c, 0, 68, 42
2, 867420, Note_on_c, 0, 72, 42
2, 867420, Note_on_c, 0, 48, 47
2, 867420, Note_on_c, 0, 56, 43
2, 867420, Note_on_c, 0, 60, 46
2, 867583, Note_on_c, 0, 48, 0
2, 867583, Note_on_c, 0, 60, 0
2, 867583, Note_on_c, 0, 72, 0
2, 867600, Note_on_c, 0, 62, 44
2, 867600, Note_on_c, 0, 74, 46
2, 867600, Note_on_c, 0, 50, 53
2, 867763, Note_on_c, 0, 50, 0
2, 867763, Note_on_c, 0, 74, 0
2, 867763, Note_on_c, 0, 62, 0
2, 867780, Note_on_c, 0, 63, 48
2, 867780, Note_on_c, 0, 75, 49
2, 867780, Note_on_c, 0, 51, 58
2, 867943, Note_on_c, 0, 51, 0
2, 867943, Note_on_c, 0, 60, 0
2, 867943, Note_on_c, 0, 75, 0
2, 867943, Note_on_c, 0, 56, 0
2, 867943, Note_on_c, 0, 63, 0
2, 867943, Note_on_c, 0, 68, 0
2, 867943, Note_on_c, 0, 72, 0
2, 867960, Note_on_c, 0, 65, 44
2, 867960, Note_on_c, 0, 77, 47
2, 867960, Note_on_c, 0, 68, 42
2, 867960, Note_on_c, 0, 72, 42
2, 867960, Note_on_c, 0, 53, 56
2, 867960, Note_on_c, 0, 56, 53
2, 867960, Note_on_c, 0, 60, 54
2, 868123, Note_on_c, 0, 53, 0
2, 868123, Note_on_c, 0, 65, 0
2, 868123, Note_on_c, 0, 77, 0
2, 868140, Note_on_c, 0, 67, 44
2, 868140, Note_on_c, 0, 79, 45
2, 868140, Note_on_c, 0, 55, 56
2, 868285, Note_on_c, 0, 56, 0
2, 868285, Note_on_c, 0, 60, 0
2, 868285, Note_on_c, 0, 68, 0
2, 868285, Note_on_c, 0, 72, 0
2, 868303, Note_on_c, 0, 55, 0
2, 868303, Note_on_c, 0, 79, 0
2, 868303, Note_on_c, 0, 67, 0
2, 868320, Note_on_c, 0, 68, 49
2, 868320, Note_on_c, 0, 80, 48
2, 868320, Note_on_c, 0, 72, 48
2, 868320, Note_on_c, 0, 74, 48
2, 868320, Note_on_c, 0, 56, 57
2, 868320, Note_on_c, 0, 60, 60
2, 868320, Note_on_c, 0, 62, 58
2, 868483, Note_on_c, 0, 62, 0
2, 868483, Note_on_c, 0, 80, 0
2, 868483, Note_on_c, 0, 60, 0
2, 868483, Note_on_c, 0, 72, 0
2, 868483, Note_on_c, 0, 56, 0
2, 868483, Note_on_c, 0, 68, 0
2, 868483, Note_on_c, 0, 74, 0
2, 868500, Note_on_c, 0, 62, 37
2, 868500, Note_on_c, 0, 74, 36
2, 868500, Note_on_c, 0, 68, 41
2, 868500, Note_on_c, 0, 72, 42
2, 868500, Note_on_c, 0, 50, 44
2, 868500, Note_on_c, 0, 56, 49
2, 868500, Note_on_c, 0, 60, 51
2, 868663, Note_on_c, 0, 50, 0
2, 868663, Note_on_c, 0, 62, 0
2, 868663, Note_on_c, 0, 74, 0
2, 868680, Note_on_c, 0, 64, 44
2, 868680, Note_on_c, 0, 76, 44
2, 868680, Note_on_c, 0, 52, 54
2, 868843, Note_on_c, 0, 52, 0
2, 868843, Note_on_c, 0, 76, 0
2, 868843, Note_on_c, 0, 64, 0
2, 868860, Note_on_c, 0, 65, 47
2, 868860, Note_on_c, 0, 77, 47
2, 868860, Note_on_c, 0, 53, 59
2, 869023, Note_on_c, 0, 53, 0
2, 869023, Note_on_c, 0, 60, 0
2, 869023, Note_on_c, 0, 77, 0
2, 869023, Note_on_c, 0, 56, 0
2, 869023, Note_on_c, 0, 65, 0
2, 869023, Note_on_c, 0, 68, 0
2, 869023, Note_on_c, 0, 72, 0
2, 869040, Note_on_c, 0, 67, 45
2, 869040, Note_on_c, 0, 79, 44
2, 869040, Note_on_c, 0, 72, 48
2, 869040, Note_on_c, 0, 77, 47
2, 869040, Note_on_c, 0, 55, 56
2, 869040, Note_on_c, 0, 60, 61
2, 869040, Note_on_c, 0, 65, 57
2, 869203, Note_on_c, 0, 55, 0
2, 869203, Note_on_c, 0, 67, 0
2, 869203, Note_on_c, 0, 79, 0
2, 869220, Note_on_c, 0, 68, 43
2, 869220, Note_on_c, 0, 80, 46
2, 869220, Note_on_c, 0, 56, 53
2, 869365, Note_on_c, 0, 60, 0
2, 869365, Note_on_c, 0, 65, 0
2, 869365, Note_on_c, 0, 72, 0
2, 869365, Note_on_c, 0, 77, 0
2, 869383, Note_on_c, 0, 56, 0
2, 869383, Note_on_c, 0, 80, 0
2, 869383, Note_on_c, 0, 68, 0
2, 869400, Note_on_c, 0, 72, 48
2, 869400, Note_on_c, 0, 84, 48
2, 869400, Note_on_c, 0, 75, 51
2, 869400, Note_on_c, 0, 80, 49
2, 869400, Note_on_c, 0, 60, 62
2, 869400, Note_on_c, 0, 63, 62
2, 869400, Note_on_c, 0, 68, 60
2, 869563, Note_on_c, 0, 68, 0
2, 869563, Note_on_c, 0, 84, 0
2, 869563, Note_on_c, 0, 63, 0
2, 869563, Note_on_c, 0, 75, 0
2, 869563, Note_on_c, 0, 60, 0
2, 869563, Note_on_c, 0, 72, 0
2, 869563, Note_on_c, 0, 80, 0
2, 869580, Note_on_c, 0, 68, 40
2, 869580, Note_on_c, 0, 80, 40
2, 869580, Note_on_c, 0, 72, 37
2, 869580, Note_on_c, 0, 75, 39
2, 869580, Note_on_c, 0, 56, 47
2, 869580, Note_on_c, 0, 51, 46
2, 869580, Note_on_c, 0, 60, 43
2, 869743, Note_on_c, 0, 56, 0
2, 869743, Note_on_c, 0, 68, 0
2, 869743, Note_on_c, 0, 80, 0
2, 869760, Note_on_c, 0, 70, 45
2, 869760, Note_on_c, 0, 82, 45
2, 869760, Note_on_c, 0, 58, 54
2, 869905, Note_on_c, 0, 51, 0
2, 869905, Note_on_c, 0, 60, 0
2, 869905, Note_on_c, 0, 72, 0
2, 869905, Note_on_c, 0, 75, 0
2, 869923, Note_on_c, 0, 58, 0
2, 869923, Note_on_c, 0, 82, 0
2, 869923, Note_on_c, 0, 70, 0
2, 869940, Note_on_c, 0, 71, 49
2, 869940, Note_on_c, 0, 83, 48
2, 869940, Note_on_c, 0, 75, 46
2, 869940, Note_on_c, 0, 59, 58
2, 869940, Note_on_c, 0, 51, 42
2, 870103, Note_on_c, 0, 51, 0
2, 870103, Note_on_c, 0, 75, 0
2, 870103, Note_on_c, 0, 83, 0
2, 870103, Note_on_c, 0, 71, 0
2, 870103, Note_on_c, 0, 59, 0
2, 870120, Note_on_c, 0, 72, 47
2, 870120, Note_on_c, 0, 84, 47
2, 870120, Note_on_c, 0, 75, 49
2, 870120, Note_on_c, 0, 79, 46
2, 870120, Note_on_c, 0, 60, 56
2, 870120, Note_on_c, 0, 51, 56
2, 870120, Note_on_c, 0, 55, 57
2, 870283, Note_on_c, 0, 60, 0
2, 870283, Note_on_c, 0, 72, 0
2, 870283, Note_on_c, 0, 84, 0
2, 870300, Note_on_c, 0, 74, 44
2, 870300, Note_on_c, 0, 86, 44
2, 870300, Note_on_c, 0, 62, 55
2, 870445, Note_on_c, 0, 51, 0
2, 870445, Note_on_c, 0, 55, 0
2, 870445, Note_on_c, 0, 75, 0
2, 870445, Note_on_c, 0, 79, 0
2, 870463, Note_on_c, 0, 62, 0
2, 870463, Note_on_c, 0, 86, 0
2, 870463, Note_on_c, 0, 74, 0
2, 870480, Note_on_c, 0, 75, 49
2, 870480, Note_on_c, 0, 87, 46
2, 870480, Note_on_c, 0, 77, 49
2, 870480, Note_on_c, 0, 83, 50
2, 870480, Note_on_c, 0, 63, 59
2, 870480, Note_on_c, 0, 53, 62
2, 870480, Note_on_c, 0, 59, 61
2, 870643, Note_on_c, 0, 59, 0
2, 870643, Note_on_c, 0, 87, 0
2, 870643, Note_on_c, 0, 53, 0
2, 870643, Note_on_c, 0, 77, 0
2, 870643, Note_on_c, 0, 63, 0
2, 870643, Note_on_c, 0, 75, 0
2, 870643, Note_on_c, 0, 83, 0
2, 870660, Note_on_c, 0, 68, 37
2, 870660, Note_on_c, 0, 80, 36
2, 870660, Note_on_c, 0, 75, 36
2, 870660, Note_on_c, 0, 77, 39
2, 870660, Note_on_c, 0, 56, 45
2, 870660, Note_on_c, 0, 53, 46
2, 870823, Note_on_c, 0, 56, 0
2, 870823, Note_on_c, 0, 68, 0
2, 870823, Note_on_c, 0, 80, 0
2, 870840, Note_on_c, 0, 70, 43
2, 870840, Note_on_c, 0, 82, 43
2, 870840, Note_on_c, 0, 58, 56
2, 871003, Note_on_c, 0, 58, 0
2, 871003, Note_on_c, 0, 82, 0
2, 871003, Note_on_c, 0, 70, 0
2, 871020, Note_on_c, 0, 71, 48
2, 871020, Note_on_c, 0, 83, 47
2, 871020, Note_on_c, 0, 59, 57
2, 871183, Note_on_c, 0, 59, 0
2, 871183, Note_on_c, 0, 83, 0
2, 871183, Note_on_c, 0, 77, 0
2, 871183, Note_on_c, 0, 53, 0
2, 871183, Note_on_c, 0, 75, 0
2, 871183, Note_on_c, 0, 71, 0
2, 871200, Note_on_c, 0, 74, 48
2, 871200, Note_on_c, 0, 86, 44
2, 871200, Note_on_c, 0, 79, 48
2, 871200, Note_on_c, 0, 84, 50
2, 871200, Note_on_c, 0, 62, 58
2, 871200, Note_on_c, 0, 55, 59
2, 871200, Note_on_c, 0, 60, 62
2, 871363, Note_on_c, 0, 62, 0
2, 871363, Note_on_c, 0, 74, 0
2, 871363, Note_on_c, 0, 86, 0
2, 871380, Note_on_c, 0, 75, 47
2, 871380, Note_on_c, 0, 87, 44
2, 871380, Note_on_c, 0, 63, 55
2, 871525, Note_on_c, 0, 55, 0
2, 871525, Note_on_c, 0, 60, 0
2, 871525, Note_on_c, 0, 79, 0
2, 871525, Note_on_c, 0, 84, 0
2, 871543, Note_on_c, 0, 63, 0
2, 871543, Note_on_c, 0, 87, 0
2, 871543, Note_on_c, 0, 75, 0
2, 871560, Note_on_c, 0, 79, 50
2, 871560, Note_on_c, 0, 91, 51
2, 871560, Note_on_c, 0, 82, 52
2, 871560, Note_on_c, 0, 87, 50
2, 871560, Note_on_c, 0, 67, 60
2, 871560, Note_on_c, 0, 55, 60
2, 871560, Note_on_c, 0, 58, 59
2, 871560, Note_on_c, 0, 63, 61
2, 871723, Note_on_c, 0, 63, 0
2, 871723, Note_on_c, 0, 58, 0
2, 871723, Note_on_c, 0, 67, 0
2, 871723, Note_on_c, 0, 79, 0
2, 871723, Note_on_c, 0, 82, 0
2, 871723, Note_on_c, 0, 91, 0
2, 871723, Note_on_c, 0, 55, 0
2, 871723, Note_on_c, 0, 87, 0
2, 871740, Note_on_c, 0, 70, 35
2, 871740, Note_on_c, 0, 82, 36
2, 871740, Note_on_c, 0, 75, 36
2, 871740, Note_on_c, 0, 79, 36
2, 871740, Note_on_c, 0, 58, 42
2, 871740, Note_on_c, 0, 55, 47
2, 871740, Note_on_c, 0, 58, 46
2, 871903, Note_on_c, 0, 58, 0
2, 871903, Note_on_c, 0, 70, 0
2, 871903, Note_on_c, 0, 82, 0
2, 871920, Note_on_c, 0, 72, 42
2, 871920, Note_on_c, 0, 84, 45
2, 871920, Note_on_c, 0, 60, 53
2, 872065, Note_on_c, 0, 55, 0
2, 872065, Note_on_c, 0, 58, 0
2, 872065, Note_on_c, 0, 75, 0
2, 872065, Note_on_c, 0, 79, 0
2, 872083, Note_on_c, 0, 60, 0
2, 872083, Note_on_c, 0, 84, 0
2, 872083, Note_on_c, 0, 72, 0
2, 872100, Note_on_c, 0, 74, 50
2, 872100, Note_on_c, 0, 86, 46
2, 872100, Note_on_c, 0, 79, 47
2, 872100, Note_on_c, 0, 82, 50
2, 872100, Note_on_c, 0, 62, 60
2, 872100, Note_on_c, 0, 55, 53
2, 872100, Note_on_c, 0, 58, 54
2, 872263, Note_on_c, 0, 62, 0
2, 872263, Note_on_c, 0, 74, 0
2, 872263, Note_on_c, 0, 86, 0
2, 872280, Note_on_c, 0, 75, 45
2, 872280, Note_on_c, 0, 87, 44
2, 872280, Note_on_c, 0, 63, 55
2, 872425, Note_on_c, 0, 55, 0
2, 872425, Note_on_c, 0, 58, 0
2, 872425, Note_on_c, 0, 79, 0
2, 872425, Note_on_c, 0, 82, 0
2, 872443, Note_on_c, 0, 63, 0
2, 872443, Note_on_c, 0, 87, 0
2, 872443, Note_on_c, 0, 75, 0
2, 872460, Note_on_c, 0, 77, 47
2, 872460, Note_on_c, 0, 89, 47
2, 872460, Note_on_c, 0, 82, 49
2, 872460, Note_on_c, 0, 87, 47
2, 872460, Note_on_c, 0, 65, 57
2, 872460, Note_on_c, 0, 55, 60
2, 872460, Note_on_c, 0, 58, 58
2, 872460, Note_on_c, 0, 63, 59
2, 872623, Note_on_c, 0, 63, 0
2, 872623, Note_on_c, 0, 77, 0
2, 872623, Note_on_c, 0, 89, 0
2, 872623, Note_on_c, 0, 58, 0
2, 872623, Note_on_c, 0, 82, 0
2, 872623, Note_on_c, 0, 65, 0
2, 872623, Note_on_c, 0, 55, 0
2, 872623, Note_on_c, 0, 87, 0
2, 872640, Note_on_c, 0, 79, 47
2, 872640, Note_on_c, 0, 91, 50
2, 872640, Note_on_c, 0, 86, 49
2, 872640, Note_on_c, 0, 89, 48
2, 872640, Note_on_c, 0, 67, 57
2, 872640, Note_on_c, 0, 55, 62
2, 872640, Note_on_c, 0, 62, 59
2, 872640, Note_on_c, 0, 65, 62
2, 872803, Note_on_c, 0, 65, 0
2, 872803, Note_on_c, 0, 62, 0
2, 872803, Note_on_c, 0, 67, 0
2, 872803, Note_on_c, 0, 79, 0
2, 872803, Note_on_c, 0, 86, 0
2, 872803, Note_on_c, 0, 91, 0
2, 872803, Note_on_c, 0, 55, 0
2, 872803, Note_on_c, 0, 89, 0
2, 872820, Note_on_c, 0, 71, 37
2, 872820, Note_on_c, 0, 83, 35
2, 872820, Note_on_c, 0, 77, 36
2, 872820, Note_on_c, 0, 79, 34
2, 872820, Note_on_c, 0, 59, 43
2, 872820, Note_on_c, 0, 55, 43
2, 872983, Note_on_c, 0, 59, 0
2, 872983, Note_on_c, 0, 71, 0
2, 872983, Note_on_c, 0, 83, 0
2, 873000, Note_on_c, 0, 72, 42
2, 873000, Note_on_c, 0, 84, 41
2, 873000, Note_on_c, 0, 60, 53
2, 873145, Note_on_c, 0, 55, 0
2, 873145, Note_on_c, 0, 77, 0
2, 873145, Note_on_c, 0, 79, 0
2, 873163, Note_on_c, 0, 72, 0
2, 873163, Note_on_c, 0, 60, 0
2, 873163, Note_on_c, 0, 84, 0
2, 873180, Note_on_c, 0, 74, 47
2, 873180, Note_on_c, 0, 86, 48
2, 873180, Note_on_c, 0, 79, 46
2, 873180, Note_on_c, 0, 83, 44
2, 873180, Note_on_c, 0, 62, 61
2, 873180, Note_on_c, 0, 55, 55
2, 873180, Note_on_c, 0, 59, 55
2, 873343, Note_on_c, 0, 62, 0
2, 873343, Note_on_c, 0, 74, 0
2, 873343, Note_on_c, 0, 86, 0
2, 873360, Note_on_c, 0, 75, 46
2, 873360, Note_on_c, 0, 87, 44
2, 873360, Note_on_c, 0, 63, 56
2, 873505, Note_on_c, 0, 55, 0
2, 873505, Note_on_c, 0, 59, 0
2, 873505, Note_on_c, 0, 79, 0
2, 873505, Note_on_c, 0, 83, 0
2, 873523, Note_on_c, 0, 63, 0
2, 873523, Note_on_c, 0, 87, 0
2, 873523, Note_on_c, 0, 75, 0
2, 873540, Note_on_c, 0, 77, 44
2, 873540, Note_on_c, 0, 89, 44
2, 873540, Note_on_c, 0, 83, 44
2, 873540, Note_on_c, 0, 65, 55
2, 873540, Note_on_c, 0, 55, 54
2, 873540, Note_on_c, 0, 59, 53
2, 873703, Note_on_c, 0, 59, 0
2, 873703, Note_on_c, 0, 55, 0
2, 873703, Note_on_c, 0, 83, 0
2, 873703, Note_on_c, 0, 89, 0
2, 873703, Note_on_c, 0, 77, 0
2, 873703, Note_on_c, 0, 65, 0
2, 873720, Note_on_c, 0, 79, 49
2, 873720, Note_on_c, 0, 91, 50
2, 873720, Note_on_c, 0, 81, 51
2, 873720, Note_on_c, 0, 87, 50
2, 873720, Note_on_c, 0, 55, 59
2, 873720, Note_on_c, 0, 67, 59
2, 873720, Note_on_c, 0, 57, 62
2, 873720, Note_on_c, 0, 63, 61
2, 873883, Note_on_c, 0, 67, 0
2, 873883, Note_on_c, 0, 55, 0
2, 873883, Note_on_c, 0, 79, 0
2, 873883, Note_on_c, 0, 91, 0
2, 873900, Note_on_c, 0, 78, 42
2, 873900, Note_on_c, 0, 90, 42
2, 873900, Note_on_c, 0, 54, 49
2, 873900, Note_on_c, 0, 66, 49
2, 874063, Note_on_c, 0, 66, 0
2, 874063, Note_on_c, 0, 54, 0
2, 874063, Note_on_c, 0, 78, 0
2, 874063, Note_on_c, 0, 90, 0
2, 874080, Note_on_c, 0, 79, 43
2, 874080, Note_on_c, 0, 91, 44
2, 874080, Note_on_c, 0, 55, 53
2, 874080, Note_on_c, 0, 67, 57
2, 874207, Note_on_c, 0, 87, 0
2, 874207, Note_on_c, 0, 63, 0
2, 874207, Note_on_c, 0, 81, 0
2, 874207, Note_on_c, 0, 57, 0
2, 874243, Note_on_c, 0, 91, 0
2, 874243, Note_on_c, 0, 55, 0
2, 874243, Note_on_c, 0, 67, 0
2, 874243, Note_on_c, 0, 79, 0
2, 874260, Note_on_c, 0, 79, 45
2, 874260, Note_on_c, 0, 91, 45
2, 874260, Note_on_c, 0, 82, 43
2, 874260, Note_on_c, 0, 88, 44
2, 874260, Note_on_c, 0, 55, 56
2, 874260, Note_on_c, 0, 67, 55
2, 874260, Note_on_c, 0, 58, 56
2, 874260, Note_on_c, 0, 64, 58
2, 874423, Note_on_c, 0, 67, 0
2, 874423, Note_on_c, 0, 55, 0
2, 874423, Note_on_c, 0, 79, 0
2, 874423, Note_on_c, 0, 91, 0
2, 874440, Note_on_c, 0, 78, 41
2, 874440, Note_on_c, 0, 90, 43
2, 874440, Note_on_c, 0, 54, 48
2, 874440, Note_on_c, 0, 66, 51
2, 874603, Note_on_c, 0, 66, 0
2, 874603, Note_on_c, 0, 54, 0
2, 874603, Note_on_c, 0, 78, 0
2, 874603, Note_on_c, 0, 90, 0
2, 874620, Note_on_c, 0, 79, 45
2, 874620, Note_on_c, 0, 91, 42
2, 874620, Note_on_c, 0, 55, 52
2, 874620, Note_on_c, 0, 67, 52
2, 874747, Note_on_c, 0, 88, 0
2, 874747, Note_on_c, 0, 64, 0
2, 874747, Note_on_c, 0, 82, 0
2, 874747, Note_on_c, 0, 58, 0
2, 874783, Note_on_c, 0, 91, 0
2, 874783, Note_on_c, 0, 55, 0
2, 874783, Note_on_c, 0, 67, 0
2, 874783, Note_on_c, 0, 79, 0
2, 874800, Note_on_c, 0, 79, 46
2, 874800, Note_on_c, 0, 91, 45
2, 874800, Note_on_c, 0, 82, 50
2, 874800, Note_on_c, 0, 89, 48
2, 874800, Note_on_c, 0, 55, 56
2, 874800, Note_on_c, 0, 67, 57
2, 874800, Note_on_c, 0, 59, 57
2, 874800, Note_on_c, 0, 65, 59
2, 874963, Note_on_c, 0, 67, 0
2, 874963, Note_on_c, 0, 55, 0
2, 874963, Note_on_c, 0, 79, 0
2, 874963, Note_on_c, 0, 91, 0
2, 874980, Note_on_c, 0, 78, 40
2, 874980, Note_on_c, 0, 90, 40
2, 874980, Note_on_c, 0, 54, 50
2, 874980, Note_on_c, 0, 66, 52
2, 875143, Note_on_c, 0, 66, 0
2, 875143, Note_on_c, 0, 54, 0
2, 875143, Note_on_c, 0, 78, 0
2, 875143, Note_on_c, 0, 90, 0
2, 875160, Note_on_c, 0, 79, 44
2, 875160, Note_on_c, 0, 91, 45
2, 875160, Note_on_c, 0, 55, 53
2, 875160, Note_on_c, 0, 67, 53
2, 875287, Note_on_c, 0, 89, 0
2, 875287, Note_on_c, 0, 65, 0
2, 875287, Note_on_c, 0, 82, 0
2, 875287, Note_on_c, 0, 59, 0
2, 875323, Note_on_c, 0, 91, 0
2, 875323, Note_on_c, 0, 55, 0
2, 875323, Note_on_c, 0, 67, 0
2, 875323, Note_on_c, 0, 79, 0
2, 875340, Note_on_c, 0, 79, 45
2, 875340, Note_on_c, 0, 91, 44
2, 875340, Note_on_c, 0, 82, 43
2, 875340, Note_on_c, 0, 85, 43
2, 875340, Note_on_c, 0, 89, 41
2, 875340, Note_on_c, 0, 55, 57
2, 875340, Note_on_c, 0, 67, 56
2, 875340, Note_on_c, 0, 58, 55
2, 875340, Note_on_c, 0, 61, 53
2, 875340, Note_on_c, 0, 65, 55
2, 875503, Note_on_c, 0, 67, 0
2, 875503, Note_on_c, 0, 55, 0
2, 875503, Note_on_c, 0, 79, 0
2, 875503, Note_on_c, 0, 91, 0
2, 875520, Note_on_c, 0, 77, 38
2, 875520, Note_on_c, 0, 89, 39
2, 875520, Note_on_c, 0, 53, 51
2, 875520, Note_on_c, 0, 65, 48
2, 875683, Note_on_c, 0, 53, 0
2, 875683, Note_on_c, 0, 77, 0
2, 875683, Note_on_c, 0, 65, 0
2, 875683, Note_on_c, 0, 89, 0
2, 875700, Note_on_c, 0, 79, 46
2, 875700, Note_on_c, 0, 91, 46
2, 875700, Note_on_c, 0, 55, 57
2, 875700, Note_on_c, 0, 67, 54
2, 875827, Note_on_c, 0, 85, 0
2, 875827, Note_on_c, 0, 89, 0
2, 875827, Note_on_c, 0, 58, 0
2, 875827, Note_on_c, 0, 61, 0
2, 875827, Note_on_c, 0, 65, 0
2, 875827, Note_on_c, 0, 82, 0
2, 875863, Note_on_c, 0, 91, 0
2, 875863, Note_on_c, 0, 79, 0
2, 875863, Note_on_c, 0, 55, 0
2, 875863, Note_on_c, 0, 67, 0
2, 875880, Note_on_c, 0, 80, 46
2, 875880, Note_on_c, 0, 85, 50
2, 875880, Note_on_c, 0, 89, 47
2, 875880, Note_on_c, 0, 92, 49
2, 875880, Note_on_c, 0, 56, 58
2, 875880, Note_on_c, 0, 61, 56
2, 875880, Note_on_c, 0, 65, 57
2, 875880, Note_on_c, 0, 68, 56
2, 876043, Note_on_c, 0, 68, 0
2, 876043, Note_on_c, 0, 80, 0
2, 876043, Note_on_c, 0, 85, 0
2, 876043, Note_on_c, 0, 65, 0
2, 876043, Note_on_c, 0, 89, 0
2, 876043, Note_on_c, 0, 56, 0
2, 876043, Note_on_c, 0, 61, 0
2, 876043, Note_on_c, 0, 92, 0
2, 876060, Control_c, 0, 64, 127
2, 876060, Note_on_c, 0, 44, 41
2, 876060, Note_on_c, 0, 49, 41
2, 876060, Note_on_c, 0, 53, 41
2, 876060, Note_on_c, 0, 56, 40
2, 876114, Note_on_c, 0, 56, 0
2, 876114, Note_on_c, 0, 49, 0
2, 876114, Note_on_c, 0, 44, 0
2, 876114, Note_on_c, 0, 53, 0
2, 876119, Note_on_c, 0, 61, 37
2, 876119, Note_on_c, 0, 65, 39
2, 876119, Note_on_c, 0, 68, 39
2, 876174, Note_on_c, 0, 68, 0
2, 876174, Note_on_c, 0, 61, 0
2, 876174, Note_on_c, 0, 65, 0
2, 876180, Note_on_c, 0, 61, 43
2, 876180, Note_on_c, 0, 65, 41
2, 876180, Note_on_c, 0, 68, 42
2, 876234, Note_on_c, 0, 68, 0
2, 876234, Note_on_c, 0, 61, 0
2, 876234, Note_on_c, 0, 65, 0
2, 876240, Note_on_c, 0, 46, 48
2, 876240, Note_on_c, 0, 49, 50
2, 876240, Note_on_c, 0, 53, 46
2, 876240, Note_on_c, 0, 58, 50
2, 876294, Note_on_c, 0, 58, 0
2, 876294, Note_on_c, 0, 49, 0
2, 876294, Note_on_c, 0, 46, 0
2, 876294, Note_on_c, 0, 53, 0
2, 876299, Note_on_c, 0, 61, 39
2, 876299, Note_on_c, 0, 65, 39
2, 876299, Note_on_c, 0, 70, 38
2, 876354, Note_on_c, 0, 70, 0
2, 876354, Note_on_c, 0, 61, 0
2, 876354, Note_on_c, 0, 65, 0
2, 876360, Note_on_c, 0, 61, 41
2, 876360, Note_on_c, 0, 65, 42
2, 876360, Note_on_c, 0, 70, 43
2, 876414, Note_on_c, 0, 70, 0
2, 876414, Note_on_c, 0, 61, 0
2, 876414, Note_on_c, 0, 65, 0
2, 876420, Note_on_c, 0, 48, 51
2, 876420, Note_on_c, 0, 53, 49
2, 876420, Note_on_c, 0, 56, 53
2, 876420, Note_on_c, 0, 60, 51
2, 876474, Note_on_c, 0, 60, 0
2, 876474, Note_on_c, 0, 53, 0
2, 876474, Note_on_c, 0, 48, 0
2, 876474, Note_on_c, 0, 56, 0
2, 876479, Note_on_c, 0, 65, 38
2, 876479, Note_on_c, 0, 68, 40
2, 876479, Note_on_c, 0, 72, 38
2, 876534, Note_on_c, 0, 72, 0
2, 876534, Note_on_c, 0, 65, 0
2, 876534, Note_on_c, 0, 68, 0
2, 876540, Note_on_c, 0, 65, 41
2, 876540, Note_on_c, 0, 68, 43
2, 876540, Note_on_c, 0, 72, 43
2, 876594, Note_on_c, 0, 72, 0
2, 876594, Note_on_c, 0, 65, 0
2, 876594, Note_on_c, 0, 68, 0
2, 876600, Note_on_c, 0, 49, 48
2, 876600, Note_on_c, 0, 53, 47
2, 876600, Note_on_c, 0, 56, 48
2, 876600, Note_on_c, 0, 61, 48
2, 876654, Note_on_c, 0, 61, 0
2, 876654, Note_on_c, 0, 53, 0
2, 876654, Note_on_c, 0, 49, 0
2, 876654, Note_on_c, 0, 56, 0
2, 876659, Note_on_c, 0, 65, 38
2, 876659, Note_on_c, 0, 68, 37
2, 876659, Note_on_c, 0, 73, 37
2, 876714, Note_on_c, 0, 73, 0
2, 876714, Note_on_c, 0, 65, 0
2, 876714, Note_on_c, 0, 68, 0
2, 876720, Note_on_c, 0, 65, 41
2, 876720, Note_on_c, 0, 68, 44
2, 876720, Note_on_c, 0, 73, 43
2, 876774, Note_on_c, 0, 73, 0
2, 876774, Note_on_c, 0, 65, 0
2, 876774, Note_on_c, 0, 68, 0
2, 876780, Note_on_c, 0, 51, 49
2, 876780, Note_on_c, 0, 53, 49
2, 876780, Note_on_c, 0, 56, 46
2, 876780, Note_on_c, 0, 60, 50
2, 876834, Note_on_c, 0, 60, 0
2, 876834, Note_on_c, 0, 53, 0
2, 876834, Note_on_c, 0, 51, 0
2, 876834, Note_on_c, 0, 56, 0
2, 876839, Note_on_c, 0, 65, 39
2, 876839, Note_on_c, 0, 68, 39
2, 876839, Note_on_c, 0, 75, 38
2, 876894, Note_on_c, 0, 75, 0
2, 876894, Note_on_c, 0, 65, 0
2, 876894, Note_on_c, 0, 68, 0
2, 876900, Note_on_c, 0, 65, 44
2, 876900, Note_on_c, 0, 68, 44
2, 876900, Note_on_c, 0, 75, 44
2, 876900, Control_c, 0, 64, 0
2, 876954, Note_on_c, 0, 75, 0
2, 876954, Note_on_c, 0, 65, 0
2, 876954, Note_on_c, 0, 68, 0
2, 876960, Control_c, 0, 64, 127
2, 876960, Note_on_c, 0, 53, 52
2, 876960, Note_on_c, 0, 56, 51
2, 876960, Note_on_c, 0, 65, 50
2, 877014, Note_on_c, 0, 65, 0
2, 877014, Note_on_c, 0, 53, 0
2, 877014, Note_on_c, 0, 56, 0
2, 877019, Note_on_c, 0, 65, 39
2, 877019, Note_on_c, 0, 68, 37
2, 877019, Note_on_c, 0, 77, 39
2, 877074, Note_on_c, 0, 77, 0
2, 877074, Note_on_c, 0, 65, 0
2, 877074, Note_on_c, 0, 68, 0
2, 877080, Note_on_c, 0, 65, 42
2, 877080, Note_on_c, 0, 68, 40
2, 877080, Note_on_c, 0, 77, 41
2, 877134, Note_on_c, 0, 77, 0
2, 877134, Note_on_c, 0, 65, 0
2, 877134, Note_on_c, 0, 68, 0
2, 877140, Note_on_c, 0, 56, 49
2, 877140, Note_on_c, 0, 61, 47
2, 877140, Note_on_c, 0, 65, 47
2, 877140, Note_on_c, 0, 68, 49
2, 877194, Note_on_c, 0, 68, 0
2, 877194, Note_on_c, 0, 61, 0
2, 877194, Note_on_c, 0, 56, 0
2, 877194, Note_on_c, 0, 65, 0
2, 877199, Note_on_c, 0, 73, 43
2, 877199, Note_on_c, 0, 77, 42
2, 877199, Note_on_c, 0, 80, 41
2, 877254, Note_on_c, 0, 80, 0
2, 877254, Note_on_c, 0, 73, 0
2, 877254, Note_on_c, 0, 77, 0
2, 877260, Note_on_c, 0, 73, 41
2, 877260, Note_on_c, 0, 77, 43
2, 877260, Note_on_c, 0, 80, 41
2, 877314, Note_on_c, 0, 80, 0
2, 877314, Note_on_c, 0, 73, 0
2, 877314, Note_on_c, 0, 77, 0
2, 877320, Note_on_c, 0, 58, 50
2, 877320, Note_on_c, 0, 61, 46
2, 877320, Note_on_c, 0, 65, 47
2, 877320, Note_on_c, 0, 70, 47
2, 877374, Note_on_c, 0, 70, 0
2, 877374, Note_on_c, 0, 61, 0
2, 877374, Note_on_c, 0, 58, 0
2, 877374, Note_on_c, 0, 65, 0
2, 877379, Note_on_c, 0, 73, 40
2, 877379, Note_on_c, 0, 77, 39
2, 877379, Note_on_c, 0, 82, 39
2, 877434, Note_on_c, 0, 82, 0
2, 877434, Note_on_c, 0, 73, 0
2, 877434, Note_on_c, 0, 77, 0
2, 877440, Note_on_c, 0, 73, 40
2, 877440, Note_on_c, 0, 77, 44
2, 877440, Note_on_c, 0, 82, 42
2, 877494, Note_on_c, 0, 82, 0
2, 877494, Note_on_c, 0, 73, 0
2, 877494, Note_on_c, 0, 77, 0
2, 877500, Note_on_c, 0, 60, 51
2, 877500, Note_on_c, 0, 65, 50
2, 877500, Note_on_c, 0, 68, 49
2, 877500, Note_on_c, 0, 72, 51
2, 877554, Note_on_c, 0, 72, 0
2, 877554, Note_on_c, 0, 65, 0
2, 877554, Note_on_c, 0, 60, 0
2, 877554, Note_on_c, 0, 68, 0
2, 877559, Note_on_c, 0, 77, 39
2, 877559, Note_on_c, 0, 80, 38
2, 877559, Note_on_c, 0, 84, 40
2, 877614, Note_on_c, 0, 84, 0
2, 877614, Note_on_c, 0, 77, 0
2, 877614, Note_on_c, 0, 80, 0
2, 877620, Note_on_c, 0, 77, 43
2, 877620, Note_on_c, 0, 80, 44
2, 877620, Note_on_c, 0, 84, 41
2, 877674, Note_on_c, 0, 84, 0
2, 877674, Note_on_c, 0, 77, 0
2, 877674, Note_on_c, 0, 80, 0
2, 877680, Note_on_c, 0, 61, 49
2, 877680, Note_on_c, 0, 65, 47
2, 877680, Note_on_c, 0, 68, 49
2, 877680, Note_on_c, 0, 73, 47
2, 877734, Note_on_c, 0, 73, 0
2, 877734, Note_on_c, 0, 65, 0
2, 877734, Note_on_c, 0, 61, 0
2, 877734, Note_on_c, 0, 68, 0
2, 877739, Note_on_c, 0, 77, 41
2, 877739, Note_on_c, 0, 80, 40
2, 877739, Note_on_c, 0, 85, 37
2, 877794, Note_on_c, 0, 85, 0
2, 877794, Note_on_c, 0, 77, 0
2, 877794, Note_on_c, 0, 80, 0
2, 877800, Note_on_c, 0, 77, 41
2, 877800, Note_on_c, 0, 80, 43
2, 877800, Note_on_c, 0, 85, 43
2, 877854, Note_on_c, 0, 85, 0
2, 877854, Note_on_c, 0, 77, 0
2, 877854, Note_on_c, 0, 80, 0
2, 877860, Note_on_c, 0, 63, 46
2, 877860, Note_on_c, 0, 68, 46
2, 877860, Note_on_c, 0, 75, 49
2, 877914, Note_on_c, 0, 75, 0
2, 877914, Note_on_c, 0, 63, 0
2, 877914, Note_on_c, 0, 68, 0
2, 877919, Note_on_c, 0, 77, 40
2, 877919, Note_on_c, 0, 80, 40
2, 877919, Note_on_c, 0, 87, 38
2, 877974, Note_on_c, 0, 87, 0
2, 877974, Note_on_c, 0, 77, 0
2, 877974, Note_on_c, 0, 80, 0
2, 877980, Note_on_c, 0, 77, 40
2, 877980, Note_on_c, 0, 80, 43
2, 877980, Note_on_c, 0, 87, 43
2, 877980, Control_c, 0, 64, 0
2, 878034, Note_on_c, 0, 87, 0
2, 878034, Note_on_c, 0, 77, 0
2, 878034, Note_on_c, 0, 80, 0
2, 878040, Control_c, 0, 64, 127
2, 878040, Note_on_c, 0, 53, 52
2, 878040, Note_on_c, 0, 56, 52
2, 878040, Note_on_c, 0, 61, 50
2, 878040, Note_on_c, 0, 65, 51
2, 878094, Note_on_c, 0, 65, 0
2, 878094, Note_on_c, 0, 56, 0
2, 878094, Note_on_c, 0, 53, 0
2, 878094, Note_on_c, 0, 61, 0
2, 878099, Note_on_c, 0, 77, 43
2, 878099, Note_on_c, 0, 80, 41
2, 878099, Note_on_c, 0, 85, 41
2, 878099, Note_on_c, 0, 89, 42
2, 878154, Note_on_c, 0, 89, 0
2, 878154, Note_on_c, 0, 80, 0
2, 878154, Note_on_c, 0, 77, 0
2, 878154, Note_on_c, 0, 85, 0
2, 878160, Note_on_c, 0, 77, 44
2, 878160, Note_on_c, 0, 80, 40
2, 878160, Note_on_c, 0, 85, 41
2, 878160, Note_on_c, 0, 89, 42
2, 878214, Note_on_c, 0, 89, 0
2, 878214, Note_on_c, 0, 80, 0
2, 878214, Note_on_c, 0, 77, 0
2, 878214, Note_on_c, 0, 85, 0
2, 878220, Note_on_c, 0, 53, 48
2, 878220, Note_on_c, 0, 56, 49
2, 878220, Note_on_c, 0, 61, 46
2, 878220, Note_on_c, 0, 65, 49
2, 878274, Note_on_c, 0, 65, 0
2, 878274, Note_on_c, 0, 56, 0
2, 878274, Note_on_c, 0, 53, 0
2, 878274, Note_on_c, 0, 61, 0
2, 878279, Note_on_c, 0, 68, 40
2, 878279, Note_on_c, 0, 73, 42
2, 878279, Note_on_c, 0, 77, 41
2, 878279, Note_on_c, 0, 80, 42
2, 878334, Note_on_c, 0, 80, 0
2, 878334, Note_on_c, 0, 73, 0
2, 878334, Note_on_c, 0, 68, 0
2, 878334, Note_on_c, 0, 77, 0
2, 878340, Note_on_c, 0, 68, 42
2, 878340, Note_on_c, 0, 73, 42
2, 878340, Note_on_c, 0, 77, 43
2, 878340, Note_on_c, 0, 80, 40
2, 878394, Note_on_c, 0, 80, 0
2, 878394, Note_on_c, 0, 73, 0
2, 878394, Note_on_c, 0, 68, 0
2, 878394, Note_on_c, 0, 77, 0
2, 878400, Note_on_c, 0, 53, 48
2, 878400, Note_on_c, 0, 58, 49
2, 878400, Note_on_c, 0, 61, 46
2, 878400, Note_on_c, 0, 65, 47
2, 878454, Note_on_c, 0, 65, 0
2, 878454, Note_on_c, 0, 58, 0
2, 878454, Note_on_c, 0, 53, 0
2, 878454, Note_on_c, 0, 61, 0
2, 878459, Note_on_c, 0, 70, 38
2, 878459, Note_on_c, 0, 73, 39
2, 878459, Note_on_c, 0, 77, 38
2, 878459, Note_on_c, 0, 82, 41
2, 878514, Note_on_c, 0, 82, 0
2, 878514, Note_on_c, 0, 73, 0
2, 878514, Note_on_c, 0, 70, 0
2, 878514, Note_on_c, 0, 77, 0
2, 878520, Note_on_c, 0, 70, 41
2, 878520, Note_on_c, 0, 73, 43
2, 878520, Note_on_c, 0, 77, 40
2, 878520, Note_on_c, 0, 82, 43
2, 878574, Note_on_c, 0, 82, 0
2, 878574, Note_on_c, 0, 73, 0
2, 878574, Note_on_c, 0, 70, 0
2, 878574, Note_on_c, 0, 77, 0
2, 878580, Note_on_c, 0, 53, 52
2, 878580, Note_on_c, 0, 56, 50
2, 878580, Note_on_c, 0, 60, 53
2, 878580, Note_on_c, 0, 65, 52
2, 878634, Note_on_c, 0, 65, 0
2, 878634, Note_on_c, 0, 56, 0
2, 878634, Note_on_c, 0, 53, 0
2, 878634, Note_on_c, 0, 60, 0
2, 878639, Note_on_c, 0, 72, 39
2, 878639, Note_on_c, 0, 77, 41
2, 878639, Note_on_c, 0, 80, 41
2, 878639, Note_on_c, 0, 84, 40
2, 878694, Note_on_c, 0, 84, 0
2, 878694, Note_on_c, 0, 77, 0
2, 878694, Note_on_c, 0, 72, 0
2, 878694, Note_on_c, 0, 80, 0
2, 878700, Note_on_c, 0, 72, 44
2, 878700, Note_on_c, 0, 77, 44
2, 878700, Note_on_c, 0, 80, 40
2, 878700, Note_on_c, 0, 84, 43
2, 878754, Note_on_c, 0, 84, 0
2, 878754, Note_on_c, 0, 77, 0
2, 878754, Note_on_c, 0, 72, 0
2, 878754, Note_on_c, 0, 80, 0
2, 878760, Note_on_c, 0, 53, 46
2, 878760, Note_on_c, 0, 56, 47
2, 878760, Note_on_c, 0, 61, 49
2, 878760, Note_on_c, 0, 65, 49
2, 878814, Note_on_c, 0, 65, 0
2, 878814, Note_on_c, 0, 56, 0
2, 878814, Note_on_c, 0, 53, 0
2, 878814, Note_on_c, 0, 61, 0
2, 878819, Note_on_c, 0, 73, 38
2, 878819, Note_on_c, 0, 77, 39
2, 878819, Note_on_c, 0, 80, 39
2, 878819, Note_on_c, 0, 85, 39
2, 878874, Note_on_c, 0, 85, 0
2, 878874, Note_on_c, 0, 77, 0
2, 878874, Note_on_c, 0, 73, 0
2, 878874, Note_on_c, 0, 80, 0
2, 878880, Note_on_c, 0, 73, 43
2, 878880, Note_on_c, 0, 77, 42
2, 878880, Note_on_c, 0, 80, 41
2, 878880, Note_on_c, 0, 85, 43
2, 878934, Note_on_c, 0, 85, 0
2, 878934, Note_on_c, 0, 77, 0
2, 878934, Note_on_c, 0, 73, 0
2, 878934, Note_on_c, 0, 80, 0
2, 878940, Note_on_c, 0, 53, 50
2, 878940, Note_on_c, 0, 56, 47
2, 878940, Note_on_c, 0, 63, 46
2, 878940, Note_on_c, 0, 65, 48
2, 878994, Note_on_c, 0, 65, 0
2, 878994, Note_on_c, 0, 56, 0
2, 878994, Note_on_c, 0, 53, 0
2, 878994, Note_on_c, 0, 63, 0
2, 878999, Note_on_c, 0, 75, 39
2, 878999, Note_on_c, 0, 80, 39
2, 878999, Note_on_c, 0, 87, 39
2, 879054, Note_on_c, 0, 87, 0
2, 879054, Note_on_c, 0, 75, 0
2, 879054, Note_on_c, 0, 80, 0
2, 879060, Note_on_c, 0, 75, 40
2, 879060, Note_on_c, 0, 80, 43
2, 879060, Note_on_c, 0, 87, 43
2, 879060, Control_c, 0, 64, 0
2, 879114, Note_on_c, 0, 87, 0
2, 879114, Note_on_c, 0, 75, 0
2, 879114, Note_on_c, 0, 80, 0
2, 879120, Control_c, 0, 64, 127
2, 879120, Note_on_c, 0, 53, 53
2, 879120, Note_on_c, 0, 56, 53
2, 879120, Note_on_c, 0, 65, 50
2, 879174, Note_on_c, 0, 65, 0
2, 879174, Note_on_c, 0, 53, 0
2, 879174, Note_on_c, 0, 56, 0
2, 879179, Note_on_c, 0, 77, 42
2, 879179, Note_on_c, 0, 80, 42
2, 879179, Note_on_c, 0, 89, 41
2, 879234, Note_on_c, 0, 89, 0
2, 879234, Note_on_c, 0, 77, 0
2, 879234, Note_on_c, 0, 80, 0
2, 879240, Note_on_c, 0, 77, 40
2, 879240, Note_on_c, 0, 80, 42
2, 879240, Note_on_c, 0, 89, 42
2, 879294, Note_on_c, 0, 89, 0
2, 879294, Note_on_c, 0, 77, 0
2, 879294, Note_on_c, 0, 80, 0
2, 879300, Note_on_c, 0, 56, 47
2, 879300, Note_on_c, 0, 61, 48
2, 879300, Note_on_c, 0, 65, 48
2, 879300, Note_on_c, 0, 68, 47
2, 879354, Note_on_c, 0, 68, 0
2, 879354, Note_on_c, 0, 61, 0
2, 879354, Note_on_c, 0, 56, 0
2, 879354, Note_on_c, 0, 65, 0
2, 879359, Note_on_c, 0, 80, 43
2, 879359, Note_on_c, 0, 85, 42
2, 879359, Note_on_c, 0, 89, 44
2, 879359, Note_on_c, 0, 92, 42
2, 879414, Note_on_c, 0, 92, 0
2, 879414, Note_on_c, 0, 85, 0
2, 879414, Note_on_c, 0, 80, 0
2, 879414, Note_on_c, 0, 89, 0
2, 879420, Note_on_c, 0, 80, 42
2, 879420, Note_on_c, 0, 85, 41
2, 879420, Note_on_c, 0, 89, 43
2, 879420, Note_on_c, 0, 92, 41
2, 879474, Note_on_c, 0, 92, 0
2, 879474, Note_on_c, 0, 85, 0
2, 879474, Note_on_c, 0, 80, 0
2, 879474, Note_on_c, 0, 89, 0
2, 879480, Note_on_c, 0, 58, 47
2, 879480, Note_on_c, 0, 61, 48
2, 879480, Note_on_c, 0, 65, 48
2, 879480, Note_on_c, 0, 70, 49
2, 879534, Note_on_c, 0, 70, 0
2, 879534, Note_on_c, 0, 61, 0
2, 879534, Note_on_c, 0, 58, 0
2, 879534, Note_on_c, 0, 65, 0
2, 879539, Note_on_c, 0, 82, 37
2, 879539, Note_on_c, 0, 85, 39
2, 879539, Note_on_c, 0, 89, 40
2, 879539, Note_on_c, 0, 94, 39
2, 879594, Note_on_c, 0, 94, 0
2, 879594, Note_on_c, 0, 85, 0
2, 879594, Note_on_c, 0, 82, 0
2, 879594, Note_on_c, 0, 89, 0
2, 879600, Note_on_c, 0, 82, 41
2, 879600, Note_on_c, 0, 85, 41
2, 879600, Note_on_c, 0, 89, 40
2, 879600, Note_on_c, 0, 94, 43
2, 879654, Note_on_c, 0, 94, 0
2, 879654, Note_on_c, 0, 85, 0
2, 879654, Note_on_c, 0, 82, 0
2, 879654, Note_on_c, 0, 89, 0
2, 879660, Note_on_c, 0, 60, 52
2, 879660, Note_on_c, 0, 65, 51
2, 879660, Note_on_c, 0, 68, 51
2, 879660, Note_on_c, 0, 72, 51
2, 879714, Note_on_c, 0, 72, 0
2, 879714, Note_on_c, 0, 65, 0
2, 879714, Note_on_c, 0, 60, 0
2, 879714, Note_on_c, 0, 68, 0
2, 879719, Note_on_c, 0, 84, 38
2, 879719, Note_on_c, 0, 89, 40
2, 879719, Note_on_c, 0, 92, 40
2, 879719, Note_on_c, 0, 96, 38
2, 879774, Note_on_c, 0, 96, 0
2, 879774, Note_on_c, 0, 89, 0
2, 879774, Note_on_c, 0, 84, 0
2, 879774, Note_on_c, 0, 92, 0
2, 879780, Note_on_c, 0, 84, 41
2, 879780, Note_on_c, 0, 89, 41
2, 879780, Note_on_c, 0, 92, 40
2, 879780, Note_on_c, 0, 96, 41
2, 879834, Note_on_c, 0, 96, 0
2, 879834, Note_on_c, 0, 89, 0
2, 879834, Note_on_c, 0, 84, 0
2, 879834, Note_on_c, 0, 92, 0
2, 879840, Note_on_c, 0, 61, 50
2, 879840, Note_on_c, 0, 65, 49
2, 879840, Note_on_c, 0, 68, 49
2, 879840, Note_on_c, 0, 73, 48
2, 879894, Note_on_c, 0, 73, 0
2, 879894, Note_on_c, 0, 65, 0
2, 879894, Note_on_c, 0, 61, 0
2, 879894, Note_on_c, 0, 68, 0
2, 879899, Note_on_c, 0, 85, 41
2, 879899, Note_on_c, 0, 89, 39
2, 879899, Note_on_c, 0, 92, 40
2, 879899, Note_on_c, 0, 97, 41
2, 879954, Note_on_c, 0, 97, 0
2, 879954, Note_on_c, 0, 89, 0
2, 879954, Note_on_c, 0, 85, 0
2, 879954, Note_on_c, 0, 92, 0
2, 879960, Note_on_c, 0, 85, 41
2, 879960, Note_on_c, 0, 89, 44
2, 879960, Note_on_c, 0, 92, 41
2, 879960, Note_on_c, 0, 97, 42
2, 880014, Note_on_c, 0, 97, 0
2, 880014, Note_on_c, 0, 89, 0
2, 880014, Note_on_c, 0, 85, 0
2, 880014, Note_on_c, 0, 92, 0
2, 880020, Note_on_c, 0, 63, 49
2, 880020, Note_on_c, 0, 68, 47
2, 880020, Note_on_c, 0, 75, 49
2, 880074, Note_on_c, 0, 75, 0
2, 880074, Note_on_c, 0, 63, 0
2, 880074, Note_on_c, 0, 68, 0
2, 880079, Note_on_c, 0, 87, 40
2, 880079, Note_on_c, 0, 92, 40
2, 880079, Note_on_c, 0, 99, 39
2, 880134, Note_on_c, 0, 99, 0
2, 880134, Note_on_c, 0, 87, 0
2, 880134, Note_on_c, 0, 92, 0
2, 880140, Note_on_c, 0, 87, 43
2, 880140, Note_on_c, 0, 92, 41
2, 880140, Note_on_c, 0, 99, 43
2, 880140, Control_c, 0, 64, 0
2, 880194, Note_on_c, 0, 99, 0
2, 880194, Note_on_c, 0, 87, 0
2, 880194, Note_on_c, 0, 92, 0
2, 880200, Note_on_c, 0, 89, 48
2, 880200, Note_on_c, 0, 92, 47
2, 880200, Note_on_c, 0, 97, 49
2, 880200, Note_on_c, 0, 101, 47
2, 880200, Note_on_c, 0, 65, 52
2, 880200, Note_on_c, 0, 68, 49
2, 880200, Note_on_c, 0, 73, 51
2, 880200, Note_on_c, 0, 77, 50
2, 880363, Note_on_c, 0, 77, 0
2, 880363, Note_on_c, 0, 89, 0
2, 880363, Note_on_c, 0, 92, 0
2, 880363, Note_on_c, 0, 73, 0
2, 880363, Note_on_c, 0, 97, 0
2, 880363, Note_on_c, 0, 65, 0
2, 880363, Note_on_c, 0, 68, 0
2, 880363, Note_on_c, 0, 101, 0
2, 880560, Note_on_c, 0, 42, 48
2, 880560, Note_on_c, 0, 46, 49
2, 880723, Note_on_c, 0, 46, 0
2, 880723, Note_on_c, 0, 42, 0
2, 880740, Note_on_c, 0, 37, 50
2, 880740, Note_on_c, 0, 44, 50
2, 880822, Note_on_c, 0, 44, 0
2, 880822, Note_on_c, 0, 37, 0
2, 880830, Note_on_c, 0, 48, 38
2, 880912, Note_on_c, 0, 48, 0
2, 880920, Note_on_c, 0, 49, 45
2, 881002, Note_on_c, 0, 49, 0
2, 881010, Note_on_c, 0, 51, 45
2, 881092, Note_on_c, 0, 51, 0
2, 881100, Note_on_c, 0, 53, 43
2, 881182, Note_on_c, 0, 53, 0
2, 881190, Note_on_c, 0, 54, 45
2, 881272, Note_on_c, 0, 54, 0
2, 881280, Note_on_c, 0, 56, 47
2, 881362, Note_on_c, 0, 56, 0
2, 881640, Note_on_c, 0, 51, 50
2, 881640, Note_on_c, 0, 54, 49
2, 881803, Note_on_c, 0, 54, 0
2, 881803, Note_on_c, 0, 51, 0
2, 881820, Note_on_c, 0, 53, 56
2, 881820, Note_on_c, 0, 56, 56
2, 881902, Note_on_c, 0, 56, 0
2, 881902, Note_on_c, 0, 53, 0
2, 881910, Note_on_c, 0, 56, 38
2, 881992, Note_on_c, 0, 56, 0
2, 882000, Note_on_c, 0, 58, 45
2, 882082, Note_on_c, 0, 58, 0
2, 882090, Note_on_c, 0, 60, 46
2, 882172, Note_on_c, 0, 60, 0
2, 882180, Note_on_c, 0, 61, 46
2, 882262, Note_on_c, 0, 61, 0
2, 882270, Note_on_c, 0, 63, 43
2, 882352, Note_on_c, 0, 63, 0
2, 882360, Note_on_c, 0, 65, 49
2, 882442, Note_on_c, 0, 65, 0
2, 882540, Note_on_c, 0, 43, 46
2, 882540, Note_on_c, 0, 46, 46
2, 882703, Note_on_c, 0, 46, 0
2, 882703, Note_on_c, 0, 43, 0
2, 882720, Note_on_c, 0, 42, 51
2, 882720, Note_on_c, 0, 45, 51
2, 882883, Note_on_c, 0, 45, 0
2, 882883, Note_on_c, 0, 42, 0
2, 882900, Note_on_c, 0, 37, 51
2, 882900, Note_on_c, 0, 44, 55
2, 882982, Note_on_c, 0, 44, 0
2, 882982, Note_on_c, 0, 37, 0
2, 882990, Note_on_c, 0, 48, 39
2, 883072, Note_on_c, 0, 48, 0
2, 883080, Note_on_c, 0, 49, 44
2, 883162, Note_on_c, 0, 49, 0
2, 883170, Note_on_c, 0, 51, 46
2, 883252, Note_on_c, 0, 51, 0
2, 883260, Note_on_c, 0, 53, 45
2, 883342, Note_on_c, 0, 53, 0
2, 883350, Note_on_c, 0, 54, 46
2, 883432, Note_on_c, 0, 54, 0
2, 883440, Note_on_c, 0, 56, 47
2, 883522, Note_on_c, 0, 56, 0
2, 883620, Note_on_c, 0, 51, 38
2, 883620, Note_on_c, 0, 54, 40
2, 883783, Note_on_c, 0, 54, 0
2, 883783, Note_on_c, 0, 51, 0
2, 883800, Note_on_c, 0, 52, 43
2, 883800, Note_on_c, 0, 55, 43
2, 883963, Note_on_c, 0, 55, 0
2, 883963, Note_on_c, 0, 52, 0
2, 883980, Note_on_c, 0, 53, 44
2, 883980, Note_on_c, 0, 56, 45
2, 883980, Note_on_c, 0, 68, 50
2, 884062, Note_on_c, 0, 56, 0
2, 884062, Note_on_c, 0, 53, 0
2, 884070, Note_on_c, 0, 56, 44
2, 884152, Note_on_c, 0, 56, 0
2, 884160, Note_on_c, 0, 58, 43
2, 884242, Note_on_c, 0, 58, 0
2, 884250, Note_on_c, 0, 60, 43
2, 884332, Note_on_c, 0, 60, 0
2, 884340, Note_on_c, 0, 61, 43
2, 884422, Note_on_c, 0, 61, 0
2, 884430, Note_on_c, 0, 63, 45
2, 884512, Note_on_c, 0, 63, 0
2, 884520, Note_on_c, 0, 64, 50
2, 884602, Note_on_c, 0, 64, 0
2, 884610, Note_on_c, 0, 64, 44
2, 884692, Note_on_c, 0, 64, 0
2, 884700, Note_on_c, 0, 70, 48
2, 884782, Note_on_c, 0, 70, 0
2, 884790, Note_on_c, 0, 73, 49
2, 884872, Note_on_c, 0, 73, 0
2, 884880, Note_on_c, 0, 75, 44
2, 884962, Note_on_c, 0, 75, 0
2, 884970, Note_on_c, 0, 76, 46
2, 885007, Note_on_c, 0, 68, 0
2, 885052, Note_on_c, 0, 76, 0
2, 885060, Note_on_c, 0, 75, 44
2, 885060, Note_on_c, 0, 67, 55
2, 885142, Note_on_c, 0, 75, 0
2, 885150, Note_on_c, 0, 63, 31
2, 885232, Note_on_c, 0, 63, 0
2, 885240, Note_on_c, 0, 70, 46
2, 885322, Note_on_c, 0, 70, 0
2, 885330, Note_on_c, 0, 72, 46
2, 885412, Note_on_c, 0, 72, 0
2, 885420, Note_on_c, 0, 73, 45
2, 885502, Note_on_c, 0, 73, 0
2, 885510, Note_on_c, 0, 75, 45
2, 885592, Note_on_c, 0, 75, 0
2, 885600, Note_on_c, 0, 67, 0
2, 885600, Note_on_c, 0, 72, 42
2, 885600, Note_on_c, 0, 67, 56
2, 885682, Note_on_c, 0, 72, 0
2, 885690, Note_on_c, 0, 60, 30
2, 885763, Note_on_c, 0, 67, 0
2, 885772, Note_on_c, 0, 60, 0
2, 885780, Note_on_c, 0, 68, 46
2, 885780, Note_on_c, 0, 68, 61
2, 885862, Note_on_c, 0, 68, 0
2, 885870, Note_on_c, 0, 70, 44
2, 885952, Note_on_c, 0, 70, 0
2, 885960, Note_on_c, 0, 68, 0
2, 885960, Note_on_c, 0, 72, 47
2, 885960, Note_on_c, 0, 67, 55
2, 886042, Note_on_c, 0, 72, 0
2, 886050, Note_on_c, 0, 67, 0
2, 886050, Note_on_c, 0, 73, 46
2, 886050, Note_on_c, 0, 65, 54
2, 886132, Note_on_c, 0, 73, 0
2, 886140, Note_on_c, 0, 65, 0
2, 886140, Note_on_c, 0, 72, 43
2, 886140, Note_on_c, 0, 65, 59
2, 886222, Note_on_c, 0, 72, 0
2, 886230, Note_on_c, 0, 60, 31
2, 886312, Note_on_c, 0, 60, 0
2, 886320, Note_on_c, 0, 67, 46
2, 886402, Note_on_c, 0, 67, 0
2, 886410, Note_on_c, 0, 68, 45
2, 886492, Note_on_c, 0, 68, 0
2, 886500, Note_on_c, 0, 70, 46
2, 886582, Note_on_c, 0, 70, 0
2, 886590, Note_on_c, 0, 72, 46
2, 886672, Note_on_c, 0, 72, 0
2, 886680, Note_on_c, 0, 68, 43
2, 886762, Note_on_c, 0, 68, 0
2, 886770, Note_on_c, 0, 67, 40
2, 886852, Note_on_c, 0, 67, 0
2, 886860, Note_on_c, 0, 68, 44
2, 886942, Note_on_c, 0, 68, 0
2, 886950, Note_on_c, 0, 70, 46
2, 887032, Note_on_c, 0, 70, 0
2, 887040, Note_on_c, 0, 67, 42
2, 887122, Note_on_c, 0, 67, 0
2, 887130, Note_on_c, 0, 68, 43
2, 887167, Note_on_c, 0, 65, 0
2, 887212, Note_on_c, 0, 68, 0
2, 887220, Note_on_c, 0, 60, 37
2, 887220, Note_on_c, 0, 63, 55
2, 887302, Note_on_c, 0, 60, 0
2, 887310, Note_on_c, 0, 56, 38
2, 887392, Note_on_c, 0, 56, 0
2, 887400, Note_on_c, 0, 60, 46
2, 887482, Note_on_c, 0, 60, 0
2, 887490, Note_on_c, 0, 63, 45
2, 887572, Note_on_c, 0, 63, 0
2, 887580, Note_on_c, 0, 65, 44
2, 887662, Note_on_c, 0, 65, 0
2, 887670, Note_on_c, 0, 67, 46
2, 887752, Note_on_c, 0, 67, 0
2, 887760, Note_on_c, 0, 63, 0
2, 887760, Note_on_c, 0, 68, 48
2, 887760, Note_on_c, 0, 62, 58
2, 887842, Note_on_c, 0, 68, 0
2, 887850, Note_on_c, 0, 56, 30
2, 887932, Note_on_c, 0, 56, 0
2, 887940, Note_on_c, 0, 58, 45
2, 888022, Note_on_c, 0, 58, 0
2, 888030, Note_on_c, 0, 62, 48
2, 888112, Note_on_c, 0, 62, 0
2, 888120, Note_on_c, 0, 65, 44
2, 888202, Note_on_c, 0, 65, 0
2, 888210, Note_on_c, 0, 68, 45
2, 888292, Note_on_c, 0, 68, 0
2, 888300, Note_on_c, 0, 62, 0
2, 888300, Note_on_c, 0, 68, 46
2, 888300, Note_on_c, 0, 61, 56
2, 888382, Note_on_c, 0, 68, 0
2, 888390, Note_on_c, 0, 70, 46
2, 888472, Note_on_c, 0, 70, 0
2, 888480, Note_on_c, 0, 63, 34
2, 888562, Note_on_c, 0, 63, 0
2, 888570, Note_on_c, 0, 65, 46
2, 888652, Note_on_c, 0, 65, 0
2, 888660, Note_on_c, 0, 67, 44
2, 888714, Note_on_c, 0, 67, 0
2, 888719, Note_on_c, 0, 68, 46
2, 888774, Note_on_c, 0, 68, 0
2, 888780, Note_on_c, 0, 70, 45
2, 888834, Note_on_c, 0, 70, 0
2, 888840, Note_on_c, 0, 61, 0
2, 888840, Note_on_c, 0, 72, 49
2, 888840, Note_on_c, 0, 80, 67
2, 889003, Note_on_c, 0, 80, 0
2, 889003, Note_on_c, 0, 72, 0
2, 889020, Note_on_c, 0, 63, 35
2, 889020, Note_on_c, 0, 56, 43
2, 889074, Note_on_c, 0, 56, 0
2, 889074, Note_on_c, 0, 63, 0
2, 889079, Note_on_c, 0, 60, 39
2, 889079, Note_on_c, 0, 51, 42
2, 889134, Note_on_c, 0, 51, 0
2, 889134, Note_on_c, 0, 60, 0
2, 889140, Note_on_c, 0, 63, 45
2, 889140, Note_on_c, 0, 56, 59
2, 889194, Note_on_c, 0, 56, 0
2, 889194, Note_on_c, 0, 63, 0
2, 889200, Note_on_c, 0, 65, 44
2, 889200, Note_on_c, 0, 60, 58
2, 889254, Note_on_c, 0, 60, 0
2, 889254, Note_on_c, 0, 65, 0
2, 889259, Note_on_c, 0, 63, 39
2, 889259, Note_on_c, 0, 56, 49
2, 889314, Note_on_c, 0, 56, 0
2, 889314, Note_on_c, 0, 63, 0
2, 889320, Note_on_c, 0, 65, 45
2, 889320, Note_on_c, 0, 60, 55
2, 889374, Note_on_c, 0, 60, 0
2, 889374, Note_on_c, 0, 65, 0
2, 889380, Note_on_c, 0, 67, 50
2, 889380, Note_on_c, 0, 63, 60
2, 889434, Note_on_c, 0, 63, 0
2, 889434, Note_on_c, 0, 67, 0
2, 889439, Note_on_c, 0, 65, 39
2, 889439, Note_on_c, 0, 60, 49
2, 889494, Note_on_c, 0, 60, 0
2, 889494, Note_on_c, 0, 65, 0
2, 889500, Note_on_c, 0, 67, 46
2, 889500, Note_on_c, 0, 63, 57
2, 889554, Note_on_c, 0, 63, 0
2, 889554, Note_on_c, 0, 67, 0
2, 889560, Note_on_c, 0, 68, 45
2, 889560, Note_on_c, 0, 65, 58
2, 889614, Note_on_c, 0, 65, 0
2, 889614, Note_on_c, 0, 68, 0
2, 889619, Note_on_c, 0, 67, 40
2, 889619, Note_on_c, 0, 63, 52
2, 889674, Note_on_c, 0, 63, 0
2, 889674, Note_on_c, 0, 67, 0
2, 889680, Note_on_c, 0, 68, 43
2, 889680, Note_on_c, 0, 65, 53
2, 889734, Note_on_c, 0, 65, 0
2, 889734, Note_on_c, 0, 68, 0
2, 889740, Note_on_c, 0, 70, 45
2, 889740, Note_on_c, 0, 63, 52
2, 889794, Note_on_c, 0, 63, 0
2, 889794, Note_on_c, 0, 70, 0
2, 889799, Note_on_c, 0, 68, 38
2, 889799, Note_on_c, 0, 60, 48
2, 889854, Note_on_c, 0, 60, 0
2, 889854, Note_on_c, 0, 68, 0
2, 889860, Note_on_c, 0, 70, 44
2, 889860, Note_on_c, 0, 63, 54
2, 889914, Note_on_c, 0, 63, 0
2, 889914, Note_on_c, 0, 70, 0
2, 889920, Note_on_c, 0, 72, 49
2, 889920, Note_on_c, 0, 80, 68
2, 889974, Note_on_c, 0, 72, 0
2, 889979, Note_on_c, 0, 70, 39
2, 890034, Note_on_c, 0, 70, 0
2, 890040, Note_on_c, 0, 72, 44
2, 890083, Note_on_c, 0, 80, 0
2, 890094, Note_on_c, 0, 72, 0
2, 890100, Note_on_c, 0, 63, 32
2, 890100, Note_on_c, 0, 56, 41
2, 890154, Note_on_c, 0, 56, 0
2, 890154, Note_on_c, 0, 63, 0
2, 890159, Note_on_c, 0, 60, 40
2, 890159, Note_on_c, 0, 51, 45
2, 890214, Note_on_c, 0, 51, 0
2, 890214, Note_on_c, 0, 60, 0
2, 890220, Note_on_c, 0, 63, 43
2, 890220, Note_on_c, 0, 56, 56
2, 890274, Note_on_c, 0, 56, 0
2, 890274, Note_on_c, 0, 63, 0
2, 890280, Note_on_c, 0, 65, 46
2, 890280, Note_on_c, 0, 60, 60
2, 890334, Note_on_c, 0, 60, 0
2, 890334, Note_on_c, 0, 65, 0
2, 890339, Note_on_c, 0, 63, 38
2, 890339, Note_on_c, 0, 56, 50
2, 890394, Note_on_c, 0, 56, 0
2, 890394, Note_on_c, 0, 63, 0
2, 890400, Note_on_c, 0, 65, 44
2, 890400, Note_on_c, 0, 60, 56
2, 890454, Note_on_c, 0, 60, 0
2, 890454, Note_on_c, 0, 65, 0
2, 890460, Note_on_c, 0, 67, 49
2, 890460, Note_on_c, 0, 63, 59
2, 890514, Note_on_c, 0, 63, 0
2, 890514, Note_on_c, 0, 67, 0
2, 890519, Note_on_c, 0, 65, 41
2, 890519, Note_on_c, 0, 60, 48
2, 890574, Note_on_c, 0, 60, 0
2, 890574, Note_on_c, 0, 65, 0
2, 890580, Note_on_c, 0, 67, 46
2, 890580, Note_on_c, 0, 63, 56
2, 890634, Note_on_c, 0, 63, 0
2, 890634, Note_on_c, 0, 67, 0
2, 890640, Note_on_c, 0, 68, 44
2, 890640, Note_on_c, 0, 60, 48
2, 890694, Note_on_c, 0, 60, 0
2, 890694, Note_on_c, 0, 68, 0
2, 890699, Note_on_c, 0, 67, 41
2, 890699, Note_on_c, 0, 63, 56
2, 890754, Note_on_c, 0, 63, 0
2, 890754, Note_on_c, 0, 67, 0
2, 890760, Note_on_c, 0, 68, 43
2, 890760, Note_on_c, 0, 60, 47
2, 890814, Note_on_c, 0, 60, 0
2, 890814, Note_on_c, 0, 68, 0
2, 890820, Note_on_c, 0, 72, 45
2, 890820, Note_on_c, 0, 63, 55
2, 890874, Note_on_c, 0, 63, 0
2, 890874, Note_on_c, 0, 72, 0
2, 890879, Note_on_c, 0, 70, 41
2, 890879, Note_on_c, 0, 60, 48
2, 890934, Note_on_c, 0, 60, 0
2, 890934, Note_on_c, 0, 70, 0
2, 890940, Note_on_c, 0, 72, 46
2, 890940, Note_on_c, 0, 63, 54
2, 890994, Note_on_c, 0, 63, 0
2, 890994, Note_on_c, 0, 72, 0
2, 891000, Note_on_c, 0, 77, 50
2, 891000, Note_on_c, 0, 68, 63
2, 891054, Note_on_c, 0, 68, 0
2, 891054, Note_on_c, 0, 77, 0
2, 891059, Note_on_c, 0, 75, 41
2, 891059, Note_on_c, 0, 66, 50
2, 891114, Note_on_c, 0, 66, 0
2, 891114, Note_on_c, 0, 75, 0
2, 891120, Note_on_c, 0, 77, 43
2, 891120, Note_on_c, 0, 68, 56
2, 891174, Note_on_c, 0, 68, 0
2, 891174, Note_on_c, 0, 77, 0
2, 891180, Note_on_c, 0, 75, 39
2, 891180, Note_on_c, 0, 66, 48
2, 891234, Note_on_c, 0, 66, 0
2, 891234, Note_on_c, 0, 75, 0
2, 891239, Note_on_c, 0, 77, 44
2, 891239, Note_on_c, 0, 68, 56
2, 891294, Note_on_c, 0, 68, 0
2, 891294, Note_on_c, 0, 77, 0
2, 891300, Note_on_c, 0, 75, 39
2, 891300, Note_on_c, 0, 66, 51
2, 891354, Note_on_c, 0, 66, 0
2, 891354, Note_on_c, 0, 75, 0
2, 891360, Note_on_c, 0, 77, 44
2, 891360, Note_on_c, 0, 68, 54
2, 891414, Note_on_c, 0, 68, 0
2, 891414, Note_on_c, 0, 77, 0
2, 891419, Note_on_c, 0, 75, 39
2, 891419, Note_on_c, 0, 66, 50
2, 891474, Note_on_c, 0, 66, 0
2, 891474, Note_on_c, 0, 75, 0
2, 891480, Note_on_c, 0, 77, 46
2, 891480, Note_on_c, 0, 68, 55
2, 891534, Note_on_c, 0, 68, 0
2, 891534, Note_on_c, 0, 77, 0
2, 891540, Note_on_c, 0, 75, 42
2, 891540, Note_on_c, 0, 65, 54
2, 891594, Note_on_c, 0, 65, 0
2, 891594, Note_on_c, 0, 75, 0
2, 891599, Note_on_c, 0, 72, 41
2, 891599, Note_on_c, 0, 63, 49
2, 891654, Note_on_c, 0, 63, 0
2, 891654, Note_on_c, 0, 72, 0
2, 891660, Note_on_c, 0, 75, 47
2, 891660, Note_on_c, 0, 65, 55
2, 891714, Note_on_c, 0, 65, 0
2, 891714, Note_on_c, 0, 75, 0
2, 891720, Note_on_c, 0, 72, 39
2, 891720, Note_on_c, 0, 63, 50
2, 891774, Note_on_c, 0, 63, 0
2, 891774, Note_on_c, 0, 72, 0
2, 891779, Note_on_c, 0, 68, 37
2, 891779, Note_on_c, 0, 60, 49
2, 891834, Note_on_c, 0, 60, 0
2, 891834, Note_on_c, 0, 68, 0
2, 891840, Note_on_c, 0, 72, 47
2, 891840, Note_on_c, 0, 63, 55
2, 891894, Note_on_c, 0, 63, 0
2, 891894, Note_on_c, 0, 72, 0
2, 891900, Note_on_c, 0, 70, 40
2, 891900, Note_on_c, 0, 61, 48
2, 891954, Note_on_c, 0, 61, 0
2, 891954, Note_on_c, 0, 70, 0
2, 891959, Note_on_c, 0, 68, 40
2, 891959, Note_on_c, 0, 60, 49
2, 892014, Note_on_c, 0, 60, 0
2, 892014, Note_on_c, 0, 68, 0
2, 892020, Note_on_c, 0, 70, 44
2, 892020, Note_on_c, 0, 61, 55
2, 892074, Note_on_c, 0, 61, 0
2, 892074, Note_on_c, 0, 70, 0
2, 892080, Note_on_c, 0, 72, 46
2, 892080, Note_on_c, 0, 56, 60
2, 892080, Note_on_c, 0, 63, 60
2, 892243, Note_on_c, 0, 63, 0
2, 892243, Note_on_c, 0, 72, 0
2, 892243, Note_on_c, 0, 56, 0
2, 892260, Note_on_c, 0, 75, 46
2, 892260, Note_on_c, 0, 68, 58
2, 892314, Note_on_c, 0, 68, 0
2, 892314, Note_on_c, 0, 75, 0
2, 892319, Note_on_c, 0, 72, 39
2, 892319, Note_on_c, 0, 63, 49
2, 892374, Note_on_c, 0, 63, 0
2, 892374, Note_on_c, 0, 72, 0
2, 892380, Note_on_c, 0, 75, 46
2, 892434, Note_on_c, 0, 75, 0
2, 892440, Note_on_c, 0, 77, 46
2, 892440, Note_on_c, 0, 68, 48
2, 892494, Note_on_c, 0, 68, 0
2, 892494, Note_on_c, 0, 77, 0
2, 892499, Note_on_c, 0, 75, 38
2, 892499, Note_on_c, 0, 63, 44
2, 892554, Note_on_c, 0, 63, 0
2, 892554, Note_on_c, 0, 75, 0
2, 892560, Note_on_c, 0, 77, 43
2, 892560, Note_on_c, 0, 68, 60
2, 892614, Note_on_c, 0, 68, 0
2, 892614, Note_on_c, 0, 77, 0
2, 892620, Note_on_c, 0, 79, 49
2, 892620, Note_on_c, 0, 70, 59
2, 892674, Note_on_c, 0, 70, 0
2, 892674, Note_on_c, 0, 79, 0
2, 892679, Note_on_c, 0, 77, 41
2, 892679, Note_on_c, 0, 68, 49
2, 892734, Note_on_c, 0, 68, 0
2, 892734, Note_on_c, 0, 77, 0
2, 892740, Note_on_c, 0, 79, 45
2, 892740, Note_on_c, 0, 70, 55
2, 892794, Note_on_c, 0, 70, 0
2, 892794, Note_on_c, 0, 79, 0
2, 892800, Note_on_c, 0, 80, 43
2, 892800, Note_on_c, 0, 72, 55
2, 892854, Note_on_c, 0, 72, 0
2, 892854, Note_on_c, 0, 80, 0
2, 892859, Note_on_c, 0, 79, 41
2, 892859, Note_on_c, 0, 70, 51
2, 892914, Note_on_c, 0, 70, 0
2, 892914, Note_on_c, 0, 79, 0
2, 892920, Note_on_c, 0, 80, 42
2, 892920, Note_on_c, 0, 72, 56
2, 892974, Note_on_c, 0, 72, 0
2, 892974, Note_on_c, 0, 80, 0
2, 892980, Note_on_c, 0, 82, 45
2, 892980, Note_on_c, 0, 75, 56
2, 893034, Note_on_c, 0, 75, 0
2, 893034, Note_on_c, 0, 82, 0
2, 893039, Note_on_c, 0, 80, 40
2, 893039, Note_on_c, 0, 72, 51
2, 893094, Note_on_c, 0, 72, 0
2, 893094, Note_on_c, 0, 80, 0
2, 893100, Note_on_c, 0, 82, 44
2, 893100, Note_on_c, 0, 75, 55
2, 893154, Note_on_c, 0, 75, 0
2, 893154, Note_on_c, 0, 82, 0
2, 893160, Note_on_c, 0, 84, 47
2, 893160, Note_on_c, 0, 80, 60
2, 893323, Note_on_c, 0, 80, 0
2, 893323, Note_on_c, 0, 84, 0
2, 893340, Note_on_c, 0, 63, 33
2, 893340, Note_on_c, 0, 56, 42
2, 893394, Note_on_c, 0, 56, 0
2, 893394, Note_on_c, 0, 63, 0
2, 893399, Note_on_c, 0, 60, 39
2, 893399, Note_on_c, 0, 51, 44
2, 893454, Note_on_c, 0, 51, 0
2, 893454, Note_on_c, 0, 60, 0
2, 893460, Note_on_c, 0, 63, 47
2, 893460, Note_on_c, 0, 56, 59
2, 893514, Note_on_c, 0, 56, 0
2, 893514, Note_on_c, 0, 63, 0
2, 893520, Note_on_c, 0, 65, 46
2, 893520, Note_on_c, 0, 60, 59
2, 893574, Note_on_c, 0, 60, 0
2, 893574, Note_on_c, 0, 65, 0
2, 893579, Note_on_c, 0, 63, 38
2, 893579, Note_on_c, 0, 56, 49
2, 893634, Note_on_c, 0, 56, 0
2, 893634, Note_on_c, 0, 63, 0
2, 893640, Note_on_c, 0, 65, 46
2, 893640, Note_on_c, 0, 60, 56
2, 893694, Note_on_c, 0, 60, 0
2, 893694, Note_on_c, 0, 65, 0
2, 893700, Note_on_c, 0, 67, 46
2, 893700, Note_on_c, 0, 63, 62
2, 893754, Note_on_c, 0, 63, 0
2, 893754, Note_on_c, 0, 67, 0
2, 893759, Note_on_c, 0, 65, 41
2, 893759, Note_on_c, 0, 60, 51
2, 893814, Note_on_c, 0, 60, 0
2, 893814, Note_on_c, 0, 65, 0
2, 893820, Note_on_c, 0, 67, 44
2, 893820, Note_on_c, 0, 63, 54
2, 893874, Note_on_c, 0, 63, 0
2, 893874, Note_on_c, 0, 67, 0
2, 893880, Note_on_c, 0, 68, 45
2, 893880, Note_on_c, 0, 65, 57
2, 893934, Note_on_c, 0, 65, 0
2, 893934, Note_on_c, 0, 68, 0
2, 893939, Note_on_c, 0, 67, 40
2, 893939, Note_on_c, 0, 63, 50
2, 893994, Note_on_c, 0, 63, 0
2, 893994, Note_on_c, 0, 67, 0
2, 894000, Note_on_c, 0, 68, 45
2, 894000, Note_on_c, 0, 65, 56
2, 894054, Note_on_c, 0, 65, 0
2, 894054, Note_on_c, 0, 68, 0
2, 894060, Note_on_c, 0, 70, 43
2, 894060, Note_on_c, 0, 63, 50
2, 894114, Note_on_c, 0, 63, 0
2, 894114, Note_on_c, 0, 70, 0
2, 894119, Note_on_c, 0, 68, 38
2, 894119, Note_on_c, 0, 60, 49
2, 894174, Note_on_c, 0, 60, 0
2, 894174, Note_on_c, 0, 68, 0
2, 894180, Note_on_c, 0, 70, 46
2, 894180, Note_on_c, 0, 63, 55
2, 894234, Note_on_c, 0, 63, 0
2, 894234, Note_on_c, 0, 70, 0
2, 894240, Note_on_c, 0, 72, 49
2, 894240, Note_on_c, 0, 62, 60
2, 894240, Note_on_c, 0, 65, 61
2, 894294, Note_on_c, 0, 72, 0
2, 894299, Note_on_c, 0, 70, 38
2, 894354, Note_on_c, 0, 70, 0
2, 894360, Note_on_c, 0, 72, 45
2, 894403, Note_on_c, 0, 65, 0
2, 894403, Note_on_c, 0, 62, 0
2, 894414, Note_on_c, 0, 72, 0
2, 894420, Note_on_c, 0, 64, 34
2, 894420, Note_on_c, 0, 60, 48
2, 894474, Note_on_c, 0, 60, 0
2, 894474, Note_on_c, 0, 64, 0
2, 894479, Note_on_c, 0, 62, 39
2, 894479, Note_on_c, 0, 56, 47
2, 894534, Note_on_c, 0, 56, 0
2, 894534, Note_on_c, 0, 62, 0
2, 894540, Note_on_c, 0, 64, 43
2, 894540, Note_on_c, 0, 60, 57
2, 894594, Note_on_c, 0, 60, 0
2, 894594, Note_on_c, 0, 64, 0
2, 894600, Note_on_c, 0, 65, 47
2, 894600, Note_on_c, 0, 56, 47
2, 894654, Note_on_c, 0, 56, 0
2, 894654, Note_on_c, 0, 65, 0
2, 894659, Note_on_c, 0, 64, 43
2, 894659, Note_on_c, 0, 60, 58
2, 894714, Note_on_c, 0, 60, 0
2, 894714, Note_on_c, 0, 64, 0
2, 894720, Note_on_c, 0, 65, 44
2, 894720, Note_on_c, 0, 56, 48
2, 894774, Note_on_c, 0, 56, 0
2, 894774, Note_on_c, 0, 65, 0
2, 894780, Note_on_c, 0, 67, 47
2, 894780, Note_on_c, 0, 60, 61
2, 894834, Note_on_c, 0, 67, 0
2, 894839, Note_on_c, 0, 65, 39
2, 894894, Note_on_c, 0, 65, 0
2, 894900, Note_on_c, 0, 67, 46
2, 894943, Note_on_c, 0, 60, 0
2, 894954, Note_on_c, 0, 67, 0
2, 894960, Note_on_c, 0, 68, 46
2, 894960, Note_on_c, 0, 60, 54
2, 895014, Note_on_c, 0, 60, 0
2, 895014, Note_on_c, 0, 68, 0
2, 895019, Note_on_c, 0, 67, 40
2, 895019, Note_on_c, 0, 65, 60
2, 895074, Note_on_c, 0, 65, 0
2, 895074, Note_on_c, 0, 67, 0
2, 895080, Note_on_c, 0, 68, 44
2, 895080, Note_on_c, 0, 60, 48
2, 895134, Note_on_c, 0, 60, 0
2, 895134, Note_on_c, 0, 68, 0
2, 895140, Note_on_c, 0, 72, 46
2, 895140, Note_on_c, 0, 65, 59
2, 895194, Note_on_c, 0, 65, 0
2, 895194, Note_on_c, 0, 72, 0
2, 895199, Note_on_c, 0, 68, 37
2, 895199, Note_on_c, 0, 60, 46
2, 895254, Note_on_c, 0, 60, 0
2, 895254, Note_on_c, 0, 68, 0
2, 895260, Note_on_c, 0, 72, 46
2, 895260, Note_on_c, 0, 65, 58
2, 895314, Note_on_c, 0, 65, 0
2, 895314, Note_on_c, 0, 72, 0
2, 895320, Note_on_c, 0, 80, 54
2, 895320, Note_on_c, 0, 72, 66
2, 895374, Note_on_c, 0, 72, 0
2, 895374, Note_on_c, 0, 80, 0
2, 895379, Note_on_c, 0, 79, 40
2, 895379, Note_on_c, 0, 70, 50
2, 895434, Note_on_c, 0, 70, 0
2, 895434, Note_on_c, 0, 79, 0
2, 895440, Note_on_c, 0, 80, 42
2, 895440, Note_on_c, 0, 72, 56
2, 895494, Note_on_c, 0, 72, 0
2, 895494, Note_on_c, 0, 80, 0
2, 895500, Note_on_c, 0, 79, 41
2, 895500, Note_on_c, 0, 70, 51
2, 895554, Note_on_c, 0, 70, 0
2, 895554, Note_on_c, 0, 79, 0
2, 895559, Note_on_c, 0, 80, 44
2, 895559, Note_on_c, 0, 72, 56
2, 895614, Note_on_c, 0, 72, 0
2, 895614, Note_on_c, 0, 80, 0
2, 895620, Note_on_c, 0, 79, 41
2, 895620, Note_on_c, 0, 70, 50
2, 895674, Note_on_c, 0, 70, 0
2, 895674, Note_on_c, 0, 79, 0
2, 895680, Note_on_c, 0, 80, 43
2, 895680, Note_on_c, 0, 72, 57
2, 895734, Note_on_c, 0, 72, 0
2, 895734, Note_on_c, 0, 80, 0
2, 895739, Note_on_c, 0, 79, 41
2, 895739, Note_on_c, 0, 70, 50
2, 895794, Note_on_c, 0, 70, 0
2, 895794, Note_on_c, 0, 79, 0
2, 895800, Note_on_c, 0, 80, 44
2, 895800, Note_on_c, 0, 72, 56
2, 895854, Note_on_c, 0, 72, 0
2, 895854, Note_on_c, 0, 80, 0
2, 895860, Note_on_c, 0, 79, 42
2, 895860, Note_on_c, 0, 70, 52
2, 895914, Note_on_c, 0, 70, 0
2, 895914, Note_on_c, 0, 79, 0
2, 895919, Note_on_c, 0, 77, 41
2, 895919, Note_on_c, 0, 68, 50
2, 895974, Note_on_c, 0, 68, 0
2, 895974, Note_on_c, 0, 77, 0
2, 895980, Note_on_c, 0, 79, 46
2, 896034, Note_on_c, 0, 79, 0
2, 896040, Note_on_c, 0, 75, 40
2, 896040, Note_on_c, 0, 67, 46
2, 896094, Note_on_c, 0, 67, 0
2, 896094, Note_on_c, 0, 75, 0
2, 896099, Note_on_c, 0, 74, 40
2, 896099, Note_on_c, 0, 65, 49
2, 896154, Note_on_c, 0, 65, 0
2, 896154, Note_on_c, 0, 74, 0
2, 896160, Note_on_c, 0, 75, 43
2, 896160, Note_on_c, 0, 67, 56
2, 896214, Note_on_c, 0, 67, 0
2, 896214, Note_on_c, 0, 75, 0
2, 896220, Note_on_c, 0, 74, 43
2, 896220, Note_on_c, 0, 65, 51
2, 896274, Note_on_c, 0, 65, 0
2, 896274, Note_on_c, 0, 74, 0
2, 896279, Note_on_c, 0, 71, 40
2, 896279, Note_on_c, 0, 62, 48
2, 896334, Note_on_c, 0, 62, 0
2, 896334, Note_on_c, 0, 71, 0
2, 896340, Note_on_c, 0, 74, 46
2, 896340, Note_on_c, 0, 65, 54
2, 896394, Note_on_c, 0, 65, 0
2, 896394, Note_on_c, 0, 74, 0
2, 896400, Note_on_c, 0, 72, 42
2, 896400, Note_on_c, 0, 60, 59
2, 896400, Note_on_c, 0, 67, 61
2, 896563, Note_on_c, 0, 67, 0
2, 896563, Note_on_c, 0, 72, 0
2, 896563, Note_on_c, 0, 60, 0
2, 896580, Note_on_c, 0, 79, 51
2, 896580, Note_on_c, 0, 72, 57
2, 896634, Note_on_c, 0, 72, 0
2, 896634, Note_on_c, 0, 79, 0
2, 896639, Note_on_c, 0, 75, 41
2, 896639, Note_on_c, 0, 67, 45
2, 896694, Note_on_c, 0, 67, 0
2, 896694, Note_on_c, 0, 75, 0
2, 896700, Note_on_c, 0, 79, 48
2, 896700, Note_on_c, 0, 72, 58
2, 896754, Note_on_c, 0, 72, 0
2, 896754, Note_on_c, 0, 79, 0
2, 896760, Note_on_c, 0, 80, 44
2, 896760, Note_on_c, 0, 68, 50
2, 896814, Note_on_c, 0, 68, 0
2, 896814, Note_on_c, 0, 80, 0
2, 896819, Note_on_c, 0, 79, 39
2, 896819, Note_on_c, 0, 72, 59
2, 896874, Note_on_c, 0, 72, 0
2, 896874, Note_on_c, 0, 79, 0
2, 896880, Note_on_c, 0, 80, 46
2, 896880, Note_on_c, 0, 68, 46
2, 896934, Note_on_c, 0, 68, 0
2, 896934, Note_on_c, 0, 80, 0
2, 896940, Note_on_c, 0, 81, 47
2, 896940, Note_on_c, 0, 72, 60
2, 896994, Note_on_c, 0, 72, 0
2, 896994, Note_on_c, 0, 81, 0
2, 896999, Note_on_c, 0, 79, 38
2, 896999, Note_on_c, 0, 69, 50
2, 897054, Note_on_c, 0, 69, 0
2, 897054, Note_on_c, 0, 79, 0
2, 897060, Note_on_c, 0, 81, 45
2, 897060, Note_on_c, 0, 72, 57
2, 897114, Note_on_c, 0, 72, 0
2, 897114, Note_on_c, 0, 81, 0
2, 897120, Note_on_c, 0, 82, 44
2, 897120, Note_on_c, 0, 73, 53
2, 897174, Note_on_c, 0, 73, 0
2, 897174, Note_on_c, 0, 82, 0
2, 897179, Note_on_c, 0, 81, 39
2, 897179, Note_on_c, 0, 72, 50
2, 897234, Note_on_c, 0, 72, 0
2, 897234, Note_on_c, 0, 81, 0
2, 897240, Note_on_c, 0, 82, 45
2, 897240, Note_on_c, 0, 73, 54
2, 897294, Note_on_c, 0, 73, 0
2, 897294, Note_on_c, 0, 82, 0
2, 897300, Note_on_c, 0, 84, 45
2, 897300, Note_on_c, 0, 75, 57
2, 897354, Note_on_c, 0, 75, 0
2, 897354, Note_on_c, 0, 84, 0
2, 897359, Note_on_c, 0, 82, 42
2, 897359, Note_on_c, 0, 73, 50
2, 897414, Note_on_c, 0, 73, 0
2, 897414, Note_on_c, 0, 82, 0
2, 897420, Note_on_c, 0, 84, 44
2, 897420, Note_on_c, 0, 75, 57
2, 897474, Note_on_c, 0, 75, 0
2, 897474, Note_on_c, 0, 84, 0
2, 897480, Note_on_c, 0, 85, 48
2, 897480, Note_on_c, 0, 70, 57
2, 897480, Note_on_c, 0, 77, 59
2, 897643, Note_on_c, 0, 77, 0
2, 897643, Note_on_c, 0, 85, 0
2, 897643, Note_on_c, 0, 70, 0
2, 897660, Note_on_c, 0, 78, 36
2, 897660, Note_on_c, 0, 70, 47
2, 897714, Note_on_c, 0, 70, 0
2, 897714, Note_on_c, 0, 78, 0
2, 897719, Note_on_c, 0, 77, 39
2, 897719, Note_on_c, 0, 73, 55
2, 897774, Note_on_c, 0, 73, 0
2, 897774, Note_on_c, 0, 77, 0
2, 897780, Note_on_c, 0, 78, 45
2, 897780, Note_on_c, 0, 70, 50
2, 897834, Note_on_c, 0, 70, 0
2, 897834, Note_on_c, 0, 78, 0
2, 897840, Note_on_c, 0, 77, 42
2, 897840, Note_on_c, 0, 73, 57
2, 897894, Note_on_c, 0, 73, 0
2, 897894, Note_on_c, 0, 77, 0
2, 897899, Note_on_c, 0, 78, 46
2, 897899, Note_on_c, 0, 70, 49
2, 897954, Note_on_c, 0, 70, 0
2, 897954, Note_on_c, 0, 78, 0
2, 897960, Note_on_c, 0, 77, 41
2, 898014, Note_on_c, 0, 77, 0
2, 898020, Note_on_c, 0, 77, 45
2, 898020, Note_on_c, 0, 69, 51
2, 898074, Note_on_c, 0, 69, 0
2, 898074, Note_on_c, 0, 77, 0
2, 898079, Note_on_c, 0, 75, 41
2, 898079, Note_on_c, 0, 65, 48
2, 898134, Note_on_c, 0, 65, 0
2, 898134, Note_on_c, 0, 75, 0
2, 898140, Note_on_c, 0, 77, 47
2, 898194, Note_on_c, 0, 77, 0
2, 898200, Note_on_c, 0, 73, 39
2, 898200, Note_on_c, 0, 65, 48
2, 898254, Note_on_c, 0, 65, 0
2, 898254, Note_on_c, 0, 73, 0
2, 898259, Note_on_c, 0, 75, 43
2, 898259, Note_on_c, 0, 63, 50
2, 898314, Note_on_c, 0, 63, 0
2, 898314, Note_on_c, 0, 75, 0
2, 898320, Note_on_c, 0, 73, 41
2, 898320, Note_on_c, 0, 65, 57
2, 898374, Note_on_c, 0, 65, 0
2, 898374, Note_on_c, 0, 73, 0
2, 898380, Note_on_c, 0, 72, 40
2, 898380, Note_on_c, 0, 63, 51
2, 898434, Note_on_c, 0, 63, 0
2, 898434, Note_on_c, 0, 72, 0
2, 898439, Note_on_c, 0, 73, 45
2, 898439, Note_on_c, 0, 61, 51
2, 898494, Note_on_c, 0, 61, 0
2, 898494, Note_on_c, 0, 73, 0
2, 898500, Note_on_c, 0, 72, 39
2, 898500, Note_on_c, 0, 63, 54
2, 898554, Note_on_c, 0, 63, 0
2, 898554, Note_on_c, 0, 72, 0
2, 898560, Note_on_c, 0, 70, 43
2, 898560, Note_on_c, 0, 58, 54
2, 898560, Note_on_c, 0, 61, 54
2, 898614, Note_on_c, 0, 70, 0
2, 898619, Note_on_c, 0, 69, 39
2, 898674, Note_on_c, 0, 69, 0
2, 898680, Note_on_c, 0, 70, 44
2, 898723, Note_on_c, 0, 61, 0
2, 898723, Note_on_c, 0, 58, 0
2, 898734, Note_on_c, 0, 70, 0
2, 898740, Note_on_c, 0, 72, 47
2, 898740, Note_on_c, 0, 65, 60
2, 898794, Note_on_c, 0, 65, 0
2, 898794, Note_on_c, 0, 72, 0
2, 898799, Note_on_c, 0, 70, 40
2, 898799, Note_on_c, 0, 61, 48
2, 898854, Note_on_c, 0, 61, 0
2, 898854, Note_on_c, 0, 70, 0
2, 898860, Note_on_c, 0, 72, 47
2, 898860, Note_on_c, 0, 65, 57
2, 898914, Note_on_c, 0, 65, 0
2, 898914, Note_on_c, 0, 72, 0
2, 898920, Note_on_c, 0, 73, 44
2, 898920, Note_on_c, 0, 70, 62
2, 898974, Note_on_c, 0, 70, 0
2, 898974, Note_on_c, 0, 73, 0
2, 898979, Note_on_c, 0, 72, 40
2, 898979, Note_on_c, 0, 65, 46
2, 899034, Note_on_c, 0, 65, 0
2, 899034, Note_on_c, 0, 72, 0
2, 899040, Note_on_c, 0, 73, 43
2, 899040, Note_on_c, 0, 70, 58
2, 899094, Note_on_c, 0, 70, 0
2, 899094, Note_on_c, 0, 73, 0
2, 899100, Note_on_c, 0, 75, 48
2, 899100, Note_on_c, 0, 67, 53
2, 899154, Note_on_c, 0, 67, 0
2, 899154, Note_on_c, 0, 75, 0
2, 899159, Note_on_c, 0, 73, 39
2, 899159, Note_on_c, 0, 65, 50
2, 899214, Note_on_c, 0, 65, 0
2, 899214, Note_on_c, 0, 73, 0
2, 899220, Note_on_c, 0, 75, 46
2, 899220, Note_on_c, 0, 67, 53
2, 899274, Note_on_c, 0, 67, 0
2, 899274, Note_on_c, 0, 75, 0
2, 899280, Note_on_c, 0, 77, 45
2, 899280, Note_on_c, 0, 68, 54
2, 899334, Note_on_c, 0, 68, 0
2, 899334, Note_on_c, 0, 77, 0
2, 899339, Note_on_c, 0, 75, 41
2, 899339, Note_on_c, 0, 67, 53
2, 899394, Note_on_c, 0, 67, 0
2, 899394, Note_on_c, 0, 75, 0
2, 899400, Note_on_c, 0, 77, 45
2, 899400, Note_on_c, 0, 68, 55
2, 899454, Note_on_c, 0, 68, 0
2, 899454, Note_on_c, 0, 77, 0
2, 899460, Note_on_c, 0, 79, 44
2, 899460, Note_on_c, 0, 70, 55
2, 899514, Note_on_c, 0, 70, 0
2, 899514, Note_on_c, 0, 79, 0
2, 899519, Note_on_c, 0, 77, 38
2, 899519, Note_on_c, 0, 68, 49
2, 899574, Note_on_c, 0, 68, 0
2, 899574, Note_on_c, 0, 77, 0
2, 899580, Note_on_c, 0, 79, 46
2, 899580, Note_on_c, 0, 70, 54
2, 899634, Note_on_c, 0, 70, 0
2, 899634, Note_on_c, 0, 79, 0
2, 899640, Note_on_c, 0, 80, 47
2, 899640, Note_on_c, 0, 72, 58
2, 899803, Note_on_c, 0, 72, 0
2, 899803, Note_on_c, 0, 80, 0
2, 899820, Note_on_c, 0, 77, 38
2, 899820, Note_on_c, 0, 68, 49
2, 899874, Note_on_c, 0, 68, 0
2, 899874, Note_on_c, 0, 77, 0
2, 899879, Note_on_c, 0, 75, 40
2, 899879, Note_on_c, 0, 72, 59
2, 899934, Note_on_c, 0, 72, 0
2, 899934, Note_on_c, 0, 75, 0
2, 899940, Note_on_c, 0, 77, 45
2, 899940, Note_on_c, 0, 68, 49
2, 899994, Note_on_c, 0, 68, 0
2, 899994, Note_on_c, 0, 77, 0
2, 900000, Note_on_c, 0, 75, 40
2, 900000, Note_on_c, 0, 72, 57
2, 900054, Note_on_c, 0, 72, 0
2, 900054, Note_on_c, 0, 75, 0
2, 900059, Note_on_c, 0, 77, 43
2, 900059, Note_on_c, 0, 68, 48
2, 900114, Note_on_c, 0, 68, 0
2, 900114, Note_on_c, 0, 77, 0
2, 900120, Note_on_c, 0, 75, 41
2, 900174, Note_on_c, 0, 75, 0
2, 900180, Note_on_c, 0, 75, 45
2, 900180, Note_on_c, 0, 68, 50
2, 900234, Note_on_c, 0, 68, 0
2, 900234, Note_on_c, 0, 75, 0
2, 900239, Note_on_c, 0, 73, 41
2, 900239, Note_on_c, 0, 65, 46
2, 900294, Note_on_c, 0, 65, 0
2, 900294, Note_on_c, 0, 73, 0
2, 900300, Note_on_c, 0, 75, 45
2, 900354, Note_on_c, 0, 75, 0
2, 900360, Note_on_c, 0, 72, 39
2, 900360, Note_on_c, 0, 63, 46
2, 900414, Note_on_c, 0, 63, 0
2, 900414, Note_on_c, 0, 72, 0
2, 900419, Note_on_c, 0, 73, 46
2, 900419, Note_on_c, 0, 65, 55
2, 900474, Note_on_c, 0, 65, 0
2, 900474, Note_on_c, 0, 73, 0
2, 900480, Note_on_c, 0, 72, 41
2, 900480, Note_on_c, 0, 63, 51
2, 900534, Note_on_c, 0, 63, 0
2, 900534, Note_on_c, 0, 72, 0
2, 900540, Note_on_c, 0, 70, 40
2, 900540, Note_on_c, 0, 61, 51
2, 900594, Note_on_c, 0, 61, 0
2, 900594, Note_on_c, 0, 70, 0
2, 900599, Note_on_c, 0, 72, 44
2, 900599, Note_on_c, 0, 63, 57
2, 900654, Note_on_c, 0, 63, 0
2, 900654, Note_on_c, 0, 72, 0
2, 900660, Note_on_c, 0, 70, 38
2, 900660, Note_on_c, 0, 61, 51
2, 900714, Note_on_c, 0, 61, 0
2, 900714, Note_on_c, 0, 70, 0
2, 900720, Note_on_c, 0, 72, 48
2, 900720, Note_on_c, 0, 56, 57
2, 900720, Note_on_c, 0, 63, 58
2, 900883, Note_on_c, 0, 63, 0
2, 900883, Note_on_c, 0, 72, 0
2, 900883, Note_on_c, 0, 56, 0
2, 900900, Note_on_c, 0, 63, 34
2, 900900, Note_on_c, 0, 56, 47
2, 900954, Note_on_c, 0, 56, 0
2, 900954, Note_on_c, 0, 63, 0
2, 900959, Note_on_c, 0, 60, 39
2, 900959, Note_on_c, 0, 51, 46
2, 901014, Note_on_c, 0, 51, 0
2, 901014, Note_on_c, 0, 60, 0
2, 901020, Note_on_c, 0, 63, 43
2, 901020, Note_on_c, 0, 56, 57
2, 901074, Note_on_c, 0, 56, 0
2, 901074, Note_on_c, 0, 63, 0
2, 901080, Note_on_c, 0, 65, 43
2, 901080, Note_on_c, 0, 60, 59
2, 901134, Note_on_c, 0, 60, 0
2, 901134, Note_on_c, 0, 65, 0
2, 901139, Note_on_c, 0, 63, 42
2, 901139, Note_on_c, 0, 56, 47
2, 901194, Note_on_c, 0, 56, 0
2, 901194, Note_on_c, 0, 63, 0
2, 901200, Note_on_c, 0, 65, 45
2, 901200, Note_on_c, 0, 60, 57
2, 901254, Note_on_c, 0, 60, 0
2, 901254, Note_on_c, 0, 65, 0
2, 901260, Note_on_c, 0, 67, 47
2, 901260, Note_on_c, 0, 56, 53
2, 901314, Note_on_c, 0, 67, 0
2, 901319, Note_on_c, 0, 65, 39
2, 901374, Note_on_c, 0, 65, 0
2, 901380, Note_on_c, 0, 67, 44
2, 901423, Note_on_c, 0, 56, 0
2, 901434, Note_on_c, 0, 67, 0
2, 901440, Note_on_c, 0, 68, 45
2, 901440, Note_on_c, 0, 60, 58
2, 901494, Note_on_c, 0, 60, 0
2, 901494, Note_on_c, 0, 68, 0
2, 901499, Note_on_c, 0, 67, 41
2, 901499, Note_on_c, 0, 65, 60
2, 901554, Note_on_c, 0, 65, 0
2, 901554, Note_on_c, 0, 67, 0
2, 901560, Note_on_c, 0, 68, 42
2, 901560, Note_on_c, 0, 60, 46
2, 901614, Note_on_c, 0, 60, 0
2, 901614, Note_on_c, 0, 68, 0
2, 901620, Note_on_c, 0, 70, 46
2, 901620, Note_on_c, 0, 58, 48
2, 901674, Note_on_c, 0, 58, 0
2, 901674, Note_on_c, 0, 70, 0
2, 901679, Note_on_c, 0, 68, 40
2, 901679, Note_on_c, 0, 65, 62
2, 901734, Note_on_c, 0, 65, 0
2, 901734, Note_on_c, 0, 68, 0
2, 901740, Note_on_c, 0, 70, 45
2, 901740, Note_on_c, 0, 58, 46
2, 901794, Note_on_c, 0, 58, 0
2, 901794, Note_on_c, 0, 70, 0
2, 901800, Note_on_c, 0, 72, 47
2, 901800, Note_on_c, 0, 60, 62
2, 901800, Note_on_c, 0, 63, 63
2, 901963, Note_on_c, 0, 63, 0
2, 901963, Note_on_c, 0, 72, 0
2, 901963, Note_on_c, 0, 60, 0
2, 901980, Note_on_c, 0, 68, 40
2, 901980, Note_on_c, 0, 60, 53
2, 902034, Note_on_c, 0, 60, 0
2, 902034, Note_on_c, 0, 68, 0
2, 902039, Note_on_c, 0, 67, 39
2, 902039, Note_on_c, 0, 56, 48
2, 902094, Note_on_c, 0, 56, 0
2, 902094, Note_on_c, 0, 67, 0
2, 902100, Note_on_c, 0, 68, 46
2, 902100, Note_on_c, 0, 60, 55
2, 902154, Note_on_c, 0, 60, 0
2, 902154, Note_on_c, 0, 68, 0
2, 902160, Note_on_c, 0, 70, 46
2, 902160, Note_on_c, 0, 63, 56
2, 902214, Note_on_c, 0, 63, 0
2, 902214, Note_on_c, 0, 70, 0
2, 902219, Note_on_c, 0, 68, 38
2, 902219, Note_on_c, 0, 60, 47
2, 902274, Note_on_c, 0, 60, 0
2, 902274, Note_on_c, 0, 68, 0
2, 902280, Note_on_c, 0, 70, 45
2, 902280, Note_on_c, 0, 63, 58
2, 902334, Note_on_c, 0, 63, 0
2, 902334, Note_on_c, 0, 70, 0
2, 902340, Note_on_c, 0, 72, 47
2, 902340, Note_on_c, 0, 68, 61
2, 902394, Note_on_c, 0, 68, 0
2, 902394, Note_on_c, 0, 72, 0
2, 902399, Note_on_c, 0, 70, 40
2, 902399, Note_on_c, 0, 63, 47
2, 902454, Note_on_c, 0, 63, 0
2, 902454, Note_on_c, 0, 70, 0
2, 902460, Note_on_c, 0, 72, 44
2, 902460, Note_on_c, 0, 68, 58
2, 902514, Note_on_c, 0, 68, 0
2, 902514, Note_on_c, 0, 72, 0
2, 902520, Note_on_c, 0, 73, 47
2, 902520, Note_on_c, 0, 63, 45
2, 902574, Note_on_c, 0, 63, 0
2, 902574, Note_on_c, 0, 73, 0
2, 902579, Note_on_c, 0, 72, 43
2, 902579, Note_on_c, 0, 68, 57
2, 902634, Note_on_c, 0, 68, 0
2, 902634, Note_on_c, 0, 72, 0
2, 902640, Note_on_c, 0, 73, 43
2, 902640, Note_on_c, 0, 63, 49
2, 902694, Note_on_c, 0, 63, 0
2, 902694, Note_on_c, 0, 73, 0
2, 902700, Note_on_c, 0, 75, 45
2, 902700, Note_on_c, 0, 68, 58
2, 902754, Note_on_c, 0, 68, 0
2, 902754, Note_on_c, 0, 75, 0
2, 902759, Note_on_c, 0, 73, 41
2, 902759, Note_on_c, 0, 63, 45
2, 902814, Note_on_c, 0, 63, 0
2, 902814, Note_on_c, 0, 73, 0
2, 902820, Note_on_c, 0, 75, 44
2, 902820, Note_on_c, 0, 68, 59
2, 902874, Note_on_c, 0, 68, 0
2, 902874, Note_on_c, 0, 75, 0
2, 902880, Note_on_c, 0, 77, 47
2, 902880, Note_on_c, 0, 65, 61
2, 902880, Note_on_c, 0, 69, 59
2, 902934, Note_on_c, 0, 77, 0
2, 902939, Note_on_c, 0, 75, 40
2, 902994, Note_on_c, 0, 75, 0
2, 903000, Note_on_c, 0, 77, 45
2, 903043, Note_on_c, 0, 69, 0
2, 903043, Note_on_c, 0, 65, 0
2, 903054, Note_on_c, 0, 77, 0
2, 903060, Note_on_c, 0, 69, 36
2, 903060, Note_on_c, 0, 63, 47
2, 903114, Note_on_c, 0, 69, 0
2, 903119, Note_on_c, 0, 67, 39
2, 903174, Note_on_c, 0, 67, 0
2, 903180, Note_on_c, 0, 69, 43
2, 903223, Note_on_c, 0, 63, 0
2, 903234, Note_on_c, 0, 69, 0
2, 903240, Note_on_c, 0, 70, 45
2, 903240, Note_on_c, 0, 61, 47
2, 903294, Note_on_c, 0, 61, 0
2, 903294, Note_on_c, 0, 70, 0
2, 903299, Note_on_c, 0, 69, 43
2, 903299, Note_on_c, 0, 65, 58
2, 903354, Note_on_c, 0, 65, 0
2, 903354, Note_on_c, 0, 69, 0
2, 903360, Note_on_c, 0, 70, 45
2, 903360, Note_on_c, 0, 61, 49
2, 903414, Note_on_c, 0, 61, 0
2, 903414, Note_on_c, 0, 70, 0
2, 903420, Note_on_c, 0, 72, 47
2, 903420, Note_on_c, 0, 63, 60
2, 903474, Note_on_c, 0, 63, 0
2, 903474, Note_on_c, 0, 72, 0
2, 903479, Note_on_c, 0, 70, 38
2, 903479, Note_on_c, 0, 65, 57
2, 903534, Note_on_c, 0, 65, 0
2, 903534, Note_on_c, 0, 70, 0
2, 903540, Note_on_c, 0, 72, 47
2, 903540, Note_on_c, 0, 63, 48
2, 903594, Note_on_c, 0, 63, 0
2, 903594, Note_on_c, 0, 72, 0
2, 903600, Note_on_c, 0, 73, 45
2, 903600, Note_on_c, 0, 65, 56
2, 903654, Note_on_c, 0, 65, 0
2, 903654, Note_on_c, 0, 73, 0
2, 903659, Note_on_c, 0, 72, 40
2, 903659, Note_on_c, 0, 70, 59
2, 903714, Note_on_c, 0, 70, 0
2, 903714, Note_on_c, 0, 72, 0
2, 903720, Note_on_c, 0, 73, 42
2, 903720, Note_on_c, 0, 65, 45
2, 903774, Note_on_c, 0, 65, 0
2, 903774, Note_on_c, 0, 73, 0
2, 903780, Note_on_c, 0, 77, 47
2, 903780, Note_on_c, 0, 70, 58
2, 903834, Note_on_c, 0, 70, 0
2, 903834, Note_on_c, 0, 77, 0
2, 903839, Note_on_c, 0, 73, 38
2, 903839, Note_on_c, 0, 65, 45
2, 903894, Note_on_c, 0, 65, 0
2, 903894, Note_on_c, 0, 73, 0
2, 903900, Note_on_c, 0, 77, 44
2, 903900, Note_on_c, 0, 70, 59
2, 903954, Note_on_c, 0, 70, 0
2, 903954, Note_on_c, 0, 77, 0
2, 903960, Note_on_c, 0, 85, 53
2, 903960, Note_on_c, 0, 73, 61
2, 904014, Note_on_c, 0, 73, 0
2, 904014, Note_on_c, 0, 85, 0
2, 904019, Note_on_c, 0, 84, 43
2, 904019, Note_on_c, 0, 77, 59
2, 904074, Note_on_c, 0, 77, 0
2, 904074, Note_on_c, 0, 84, 0
2, 904080, Note_on_c, 0, 85, 44
2, 904080, Note_on_c, 0, 73, 46
2, 904134, Note_on_c, 0, 73, 0
2, 904134, Note_on_c, 0, 85, 0
2, 904140, Note_on_c, 0, 84, 43
2, 904140, Note_on_c, 0, 77, 58
2, 904194, Note_on_c, 0, 77, 0
2, 904194, Note_on_c, 0, 84, 0
2, 904199, Note_on_c, 0, 85, 42
2, 904199, Note_on_c, 0, 73, 50
2, 904254, Note_on_c, 0, 73, 0
2, 904254, Note_on_c, 0, 85, 0
2, 904260, Note_on_c, 0, 84, 40
2, 904260, Note_on_c, 0, 77, 56
2, 904314, Note_on_c, 0, 77, 0
2, 904314, Note_on_c, 0, 84, 0
2, 904320, Note_on_c, 0, 85, 44
2, 904320, Note_on_c, 0, 73, 46
2, 904374, Note_on_c, 0, 73, 0
2, 904374, Note_on_c, 0, 85, 0
2, 904379, Note_on_c, 0, 84, 41
2, 904379, Note_on_c, 0, 77, 55
2, 904434, Note_on_c, 0, 77, 0
2, 904434, Note_on_c, 0, 84, 0
2, 904440, Note_on_c, 0, 85, 44
2, 904440, Note_on_c, 0, 73, 48
2, 904494, Note_on_c, 0, 73, 0
2, 904494, Note_on_c, 0, 85, 0
2, 904500, Note_on_c, 0, 84, 46
2, 904500, Note_on_c, 0, 72, 52
2, 904554, Note_on_c, 0, 72, 0
2, 904554, Note_on_c, 0, 84, 0
2, 904559, Note_on_c, 0, 82, 39
2, 904559, Note_on_c, 0, 73, 54
2, 904614, Note_on_c, 0, 73, 0
2, 904614, Note_on_c, 0, 82, 0
2, 904620, Note_on_c, 0, 84, 43
2, 904620, Note_on_c, 0, 72, 50
2, 904674, Note_on_c, 0, 72, 0
2, 904674, Note_on_c, 0, 84, 0
2, 904680, Note_on_c, 0, 77, 35
2, 904680, Note_on_c, 0, 70, 49
2, 904734, Note_on_c, 0, 70, 0
2, 904734, Note_on_c, 0, 77, 0
2, 904739, Note_on_c, 0, 79, 45
2, 904739, Note_on_c, 0, 73, 56
2, 904794, Note_on_c, 0, 73, 0
2, 904794, Note_on_c, 0, 79, 0
2, 904800, Note_on_c, 0, 77, 41
2, 904800, Note_on_c, 0, 70, 49
2, 904854, Note_on_c, 0, 70, 0
2, 904854, Note_on_c, 0, 77, 0
2, 904860, Note_on_c, 0, 75, 40
2, 904860, Note_on_c, 0, 67, 47
2, 904914, Note_on_c, 0, 67, 0
2, 904914, Note_on_c, 0, 75, 0
2, 904919, Note_on_c, 0, 77, 45
2, 904919, Note_on_c, 0, 70, 58
2, 904974, Note_on_c, 0, 70, 0
2, 904974, Note_on_c, 0, 77, 0
2, 904980, Note_on_c, 0, 75, 39
2, 904980, Note_on_c, 0, 67, 50
2, 905034, Note_on_c, 0, 67, 0
2, 905034, Note_on_c, 0, 75, 0
2, 905040, Note_on_c, 0, 80, 52
2, 905040, Note_on_c, 0, 68, 61
2, 905040, Note_on_c, 0, 72, 63
2, 905203, Note_on_c, 0, 72, 0
2, 905203, Note_on_c, 0, 80, 0
2, 905203, Note_on_c, 0, 68, 0
2, 905220, Note_on_c, 0, 72, 43
2, 905220, Note_on_c, 0, 80, 43
2, 905383, Note_on_c, 0, 80, 0
2, 905383, Note_on_c, 0, 72, 0
2, 905400, Note_on_c, 0, 75, 46
2, 905400, Note_on_c, 0, 82, 44
2, 905563, Note_on_c, 0, 82, 0
2, 905563, Note_on_c, 0, 75, 0
2, 905580, Note_on_c, 0, 80, 48
2, 905580, Note_on_c, 0, 84, 48
2, 905743, Note_on_c, 0, 84, 0
2, 905743, Note_on_c, 0, 80, 0
2, 905760, Note_on_c, 0, 82, 44
2, 905760, Note_on_c, 0, 85, 45
2, 905923, Note_on_c, 0, 85, 0
2, 905923, Note_on_c, 0, 82, 0
2, 905940, Note_on_c, 0, 84, 44
2, 905940, Note_on_c, 0, 87, 45
2, 906103, Note_on_c, 0, 87, 0
2, 906103, Note_on_c, 0, 84, 0
2, 906120, Note_on_c, 0, 85, 47
2, 906120, Note_on_c, 0, 88, 47
2, 906120, Note_on_c, 0, 55, 67
2, 906120, Note_on_c, 0, 58, 70
2, 906120, Note_on_c, 0, 61, 70
2, 906120, Note_on_c, 0, 64, 70
2, 906120, Note_on_c, 0, 70, 69
2, 906283, Note_on_c, 0, 88, 0
2, 906283, Note_on_c, 0, 85, 0
2, 906300, Note_on_c, 0, 79, 43
2, 906300, Note_on_c, 0, 87, 41
2, 906463, Note_on_c, 0, 87, 0
2, 906463, Note_on_c, 0, 79, 0
2, 906480, Note_on_c, 0, 85, 45
2, 906480, Note_on_c, 0, 88, 45
2, 906660, Note_on_c, 0, 32, 50
2, 906823, Note_on_c, 0, 32, 0
2, 906823, Note_on_c, 0, 88, 0
2, 906823, Note_on_c, 0, 85, 0
2, 906840, Note_on_c, 0, 82, 40
2, 906840, Note_on_c, 0, 85, 40
2, 906840, Note_on_c, 0, 52, 64
2, 907003, Note_on_c, 0, 52, 0
2, 907003, Note_on_c, 0, 85, 0
2, 907003, Note_on_c, 0, 82, 0
2, 907020, Note_on_c, 0, 79, 40
2, 907020, Note_on_c, 0, 84, 40
2, 907020, Note_on_c, 0, 55, 68
2, 907020, Note_on_c, 0, 63, 69
2, 907074, Note_on_c, 0, 63, 0
2, 907074, Note_on_c, 0, 55, 0
2, 907079, Note_on_c, 0, 61, 50
2, 907134, Note_on_c, 0, 61, 0
2, 907140, Note_on_c, 0, 63, 56
2, 907183, Note_on_c, 0, 79, 0
2, 907183, Note_on_c, 0, 84, 0
2, 907194, Note_on_c, 0, 63, 0
2, 907200, Note_on_c, 0, 70, 0
2, 907200, Note_on_c, 0, 58, 0
2, 907200, Note_on_c, 0, 55, 0
2, 907200, Note_on_c, 0, 61, 0
2, 907200, Note_on_c, 0, 64, 0
2, 907200, Note_on_c, 0, 82, 47
2, 907200, Note_on_c, 0, 85, 46
2, 907200, Note_on_c, 0, 64, 59
2, 907200, Note_on_c, 0, 61, 44
2, 907363, Note_on_c, 0, 61, 0
2, 907363, Note_on_c, 0, 82, 0
2, 907363, Note_on_c, 0, 85, 0
2, 907380, Note_on_c, 0, 73, 36
2, 907380, Note_on_c, 0, 76, 36
2, 907380, Note_on_c, 0, 67, 59
2, 907543, Note_on_c, 0, 67, 0
2, 907543, Note_on_c, 0, 73, 0
2, 907543, Note_on_c, 0, 76, 0
2, 907560, Note_on_c, 0, 76, 45
2, 907560, Note_on_c, 0, 79, 45
2, 907560, Note_on_c, 0, 58, 41
2, 907723, Note_on_c, 0, 58, 0
2, 907723, Note_on_c, 0, 76, 0
2, 907723, Note_on_c, 0, 79, 0
2, 907740, Note_on_c, 0, 79, 48
2, 907740, Note_on_c, 0, 82, 49
2, 907903, Note_on_c, 0, 82, 0
2, 907903, Note_on_c, 0, 79, 0
2, 907920, Note_on_c, 0, 76, 46
2, 907920, Note_on_c, 0, 84, 45
2, 907920, Note_on_c, 0, 52, 47
2, 908083, Note_on_c, 0, 52, 0
2, 908083, Note_on_c, 0, 76, 0
2, 908083, Note_on_c, 0, 84, 0
2, 908100, Note_on_c, 0, 79, 44
2, 908100, Note_on_c, 0, 85, 45
2, 908100, Note_on_c, 0, 44, 44
2, 908210, Note_on_c, 0, 64, 0
2, 908263, Note_on_c, 0, 85, 0
2, 908263, Note_on_c, 0, 79, 0
2, 908263, Note_on_c, 0, 44, 0
2, 908280, Note_on_c, 0, 84, 49
2, 908280, Note_on_c, 0, 87, 46
2, 908280, Note_on_c, 0, 54, 73
2, 908280, Note_on_c, 0, 57, 74
2, 908280, Note_on_c, 0, 60, 73
2, 908280, Note_on_c, 0, 63, 73
2, 908280, Note_on_c, 0, 69, 75
2, 908443, Note_on_c, 0, 87, 0
2, 908443, Note_on_c, 0, 84, 0
2, 908460, Note_on_c, 0, 78, 42
2, 908460, Note_on_c, 0, 86, 42
2, 908623, Note_on_c, 0, 86, 0
2, 908623, Note_on_c, 0, 78, 0
2, 908640, Note_on_c, 0, 84, 42
2, 908640, Note_on_c, 0, 87, 43
2, 908820, Note_on_c, 0, 32, 51
2, 908983, Note_on_c, 0, 32, 0
2, 908983, Note_on_c, 0, 87, 0
2, 908983, Note_on_c, 0, 84, 0
2, 909000, Note_on_c, 0, 75, 41
2, 909000, Note_on_c, 0, 84, 39
2, 909000, Note_on_c, 0, 51, 65
2, 909163, Note_on_c, 0, 51, 0
2, 909163, Note_on_c, 0, 84, 0
2, 909163, Note_on_c, 0, 75, 0
2, 909180, Note_on_c, 0, 78, 40
2, 909180, Note_on_c, 0, 83, 42
2, 909180, Note_on_c, 0, 54, 69
2, 909180, Note_on_c, 0, 62, 67
2, 909234, Note_on_c, 0, 62, 0
2, 909234, Note_on_c, 0, 54, 0
2, 909239, Note_on_c, 0, 61, 51
2, 909294, Note_on_c, 0, 61, 0
2, 909300, Note_on_c, 0, 62, 54
2, 909343, Note_on_c, 0, 78, 0
2, 909343, Note_on_c, 0, 83, 0
2, 909354, Note_on_c, 0, 62, 0
2, 909360, Note_on_c, 0, 69, 0
2, 909360, Note_on_c, 0, 57, 0
2, 909360, Note_on_c, 0, 54, 0
2, 909360, Note_on_c, 0, 63, 0
2, 909360, Note_on_c, 0, 60, 0
2, 909360, Note_on_c, 0, 75, 47
2, 909360, Note_on_c, 0, 84, 46
2, 909360, Note_on_c, 0, 63, 59
2, 909360, Note_on_c, 0, 60, 47
2, 909523, Note_on_c, 0, 60, 0
2, 909523, Note_on_c, 0, 75, 0
2, 909523, Note_on_c, 0, 84, 0
2, 909540, Note_on_c, 0, 72, 34
2, 909540, Note_on_c, 0, 75, 34
2, 909540, Note_on_c, 0, 66, 59
2, 909703, Note_on_c, 0, 66, 0
2, 909703, Note_on_c, 0, 72, 0
2, 909703, Note_on_c, 0, 75, 0
2, 909720, Note_on_c, 0, 75, 45
2, 909720, Note_on_c, 0, 78, 44
2, 909720, Note_on_c, 0, 54, 40
2, 909883, Note_on_c, 0, 54, 0
2, 909883, Note_on_c, 0, 75, 0
2, 909883, Note_on_c, 0, 78, 0
2, 909900, Note_on_c, 0, 72, 46
2, 909900, Note_on_c, 0, 80, 47
2, 909900, Note_on_c, 0, 56, 60
2, 909900, Note_on_c, 0, 60, 60
2, 909900, Note_on_c, 0, 68, 74
2, 910063, Note_on_c, 0, 60, 0
2, 910063, Note_on_c, 0, 72, 0
2, 910063, Note_on_c, 0, 80, 0
2, 910063, Note_on_c, 0, 56, 0
2, 910080, Note_on_c, 0, 75, 44
2, 910080, Note_on_c, 0, 82, 45
2, 910080, Note_on_c, 0, 51, 42
2, 910243, Note_on_c, 0, 51, 0
2, 910243, Note_on_c, 0, 75, 0
2, 910243, Note_on_c, 0, 82, 0
2, 910260, Note_on_c, 0, 80, 43
2, 910260, Note_on_c, 0, 84, 46
2, 910260, Note_on_c, 0, 44, 44
2, 910370, Note_on_c, 0, 63, 0
2, 910423, Note_on_c, 0, 84, 0
2, 910423, Note_on_c, 0, 80, 0
2, 910423, Note_on_c, 0, 44, 0
2, 910440, Note_on_c, 0, 68, 0
2, 910440, Note_on_c, 0, 82, 47
2, 910440, Note_on_c, 0, 85, 47
2, 910440, Note_on_c, 0, 52, 75
2, 910440, Note_on_c, 0, 55, 75
2, 910440, Note_on_c, 0, 58, 73
2, 910440, Note_on_c, 0, 61, 73
2, 910440, Note_on_c, 0, 67, 72
2, 910603, Note_on_c, 0, 85, 0
2, 910603, Note_on_c, 0, 82, 0
2, 910620, Note_on_c, 0, 76, 42
2, 910620, Note_on_c, 0, 84, 41
2, 910783, Note_on_c, 0, 84, 0
2, 910783, Note_on_c, 0, 76, 0
2, 910800, Note_on_c, 0, 82, 43
2, 910800, Note_on_c, 0, 85, 45
2, 910980, Note_on_c, 0, 32, 52
2, 911143, Note_on_c, 0, 32, 0
2, 911143, Note_on_c, 0, 85, 0
2, 911143, Note_on_c, 0, 82, 0
2, 911160, Note_on_c, 0, 79, 39
2, 911160, Note_on_c, 0, 82, 40
2, 911160, Note_on_c, 0, 52, 64
2, 911323, Note_on_c, 0, 82, 0
2, 911323, Note_on_c, 0, 79, 0
2, 911323, Note_on_c, 0, 52, 0
2, 911340, Note_on_c, 0, 76, 39
2, 911340, Note_on_c, 0, 81, 41
2, 911340, Note_on_c, 0, 55, 65
2, 911340, Note_on_c, 0, 60, 64
2, 911394, Note_on_c, 0, 60, 0
2, 911394, Note_on_c, 0, 55, 0
2, 911399, Note_on_c, 0, 58, 52
2, 911454, Note_on_c, 0, 58, 0
2, 911460, Note_on_c, 0, 60, 56
2, 911503, Note_on_c, 0, 76, 0
2, 911503, Note_on_c, 0, 81, 0
2, 911514, Note_on_c, 0, 60, 0
2, 911520, Note_on_c, 0, 61, 0
2, 911520, Note_on_c, 0, 67, 0
2, 911520, Note_on_c, 0, 55, 0
2, 911520, Note_on_c, 0, 58, 0
2, 911520, Note_on_c, 0, 52, 0
2, 911520, Note_on_c, 0, 79, 45
2, 911520, Note_on_c, 0, 82, 46
2, 911520, Note_on_c, 0, 61, 57
2, 911520, Note_on_c, 0, 58, 46
2, 911683, Note_on_c, 0, 58, 0
2, 911683, Note_on_c, 0, 79, 0
2, 911683, Note_on_c, 0, 82, 0
2, 911700, Note_on_c, 0, 70, 35
2, 911700, Note_on_c, 0, 73, 34
2, 911700, Note_on_c, 0, 64, 58
2, 911863, Note_on_c, 0, 64, 0
2, 911863, Note_on_c, 0, 70, 0
2, 911863, Note_on_c, 0, 73, 0
2, 911880, Note_on_c, 0, 73, 44
2, 911880, Note_on_c, 0, 76, 43
2, 911880, Note_on_c, 0, 55, 45
2, 912043, Note_on_c, 0, 55, 0
2, 912043, Note_on_c, 0, 73, 0
2, 912043, Note_on_c, 0, 76, 0
2, 912060, Note_on_c, 0, 76, 50
2, 912060, Note_on_c, 0, 79, 48
2, 912223, Note_on_c, 0, 79, 0
2, 912223, Note_on_c, 0, 76, 0
2, 912240, Note_on_c, 0, 79, 45
2, 912240, Note_on_c, 0, 82, 46
2, 912240, Note_on_c, 0, 52, 49
2, 912403, Note_on_c, 0, 52, 0
2, 912403, Note_on_c, 0, 79, 0
2, 912403, Note_on_c, 0, 82, 0
2, 912420, Note_on_c, 0, 76, 45
2, 912420, Note_on_c, 0, 84, 46
2, 912420, Note_on_c, 0, 44, 42
2, 912530, Note_on_c, 0, 61, 0
2, 912583, Note_on_c, 0, 84, 0
2, 912583, Note_on_c, 0, 76, 0
2, 912583, Note_on_c, 0, 44, 0
2, 912600, Note_on_c, 0, 81, 47
2, 912600, Note_on_c, 0, 85, 49
2, 912600, Note_on_c, 0, 51, 73
2, 912600, Note_on_c, 0, 54, 74
2, 912600, Note_on_c, 0, 57, 73
2, 912600, Note_on_c, 0, 61, 72
2, 912600, Note_on_c, 0, 66, 72
2, 912763, Note_on_c, 0, 85, 0
2, 912763, Note_on_c, 0, 81, 0
2, 912780, Note_on_c, 0, 78, 43
2, 912780, Note_on_c, 0, 84, 41
2, 912943, Note_on_c, 0, 84, 0
2, 912943, Note_on_c, 0, 78, 0
2, 912960, Note_on_c, 0, 81, 44
2, 912960, Note_on_c, 0, 85, 45
2, 913140, Note_on_c, 0, 32, 53
2, 913303, Note_on_c, 0, 32, 0
2, 913303, Note_on_c, 0, 85, 0
2, 913303, Note_on_c, 0, 81, 0
2, 913320, Note_on_c, 0, 78, 39
2, 913320, Note_on_c, 0, 81, 38
2, 913320, Note_on_c, 0, 51, 63
2, 913483, Note_on_c, 0, 81, 0
2, 913483, Note_on_c, 0, 78, 0
2, 913483, Note_on_c, 0, 51, 0
2, 913500, Note_on_c, 0, 75, 42
2, 913500, Note_on_c, 0, 80, 42
2, 913500, Note_on_c, 0, 54, 66
2, 913500, Note_on_c, 0, 60, 64
2, 913554, Note_on_c, 0, 60, 0
2, 913554, Note_on_c, 0, 54, 0
2, 913559, Note_on_c, 0, 59, 51
2, 913614, Note_on_c, 0, 59, 0
2, 913620, Note_on_c, 0, 60, 54
2, 913663, Note_on_c, 0, 75, 0
2, 913663, Note_on_c, 0, 80, 0
2, 913674, Note_on_c, 0, 60, 0
2, 913680, Note_on_c, 0, 61, 0
2, 913680, Note_on_c, 0, 66, 0
2, 913680, Note_on_c, 0, 54, 0
2, 913680, Note_on_c, 0, 51, 0
2, 913680, Note_on_c, 0, 57, 0
2, 913680, Note_on_c, 0, 78, 47
2, 913680, Note_on_c, 0, 81, 48
2, 913680, Note_on_c, 0, 61, 58
2, 913680, Note_on_c, 0, 57, 45
2, 913843, Note_on_c, 0, 57, 0
2, 913843, Note_on_c, 0, 78, 0
2, 913843, Note_on_c, 0, 81, 0
2, 913860, Note_on_c, 0, 69, 34
2, 913860, Note_on_c, 0, 73, 34
2, 913860, Note_on_c, 0, 63, 60
2, 914023, Note_on_c, 0, 63, 0
2, 914023, Note_on_c, 0, 69, 0
2, 914023, Note_on_c, 0, 73, 0
2, 914040, Note_on_c, 0, 66, 42
2, 914040, Note_on_c, 0, 75, 44
2, 914040, Note_on_c, 0, 54, 44
2, 914203, Note_on_c, 0, 54, 0
2, 914203, Note_on_c, 0, 66, 0
2, 914203, Note_on_c, 0, 75, 0
2, 914220, Note_on_c, 0, 75, 49
2, 914220, Note_on_c, 0, 77, 48
2, 914383, Note_on_c, 0, 77, 0
2, 914383, Note_on_c, 0, 75, 0
2, 914400, Note_on_c, 0, 73, 46
2, 914400, Note_on_c, 0, 78, 43
2, 914400, Note_on_c, 0, 57, 47
2, 914563, Note_on_c, 0, 57, 0
2, 914563, Note_on_c, 0, 78, 0
2, 914580, Note_on_c, 0, 81, 45
2, 914580, Note_on_c, 0, 51, 45
2, 914690, Note_on_c, 0, 61, 0
2, 914743, Note_on_c, 0, 81, 0
2, 914743, Note_on_c, 0, 73, 0
2, 914743, Note_on_c, 0, 51, 0
2, 914760, Note_on_c, 0, 80, 50
2, 914760, Note_on_c, 0, 84, 50
2, 914760, Note_on_c, 0, 50, 77
2, 914760, Note_on_c, 0, 53, 75
2, 914760, Note_on_c, 0, 56, 75
2, 914760, Note_on_c, 0, 60, 74
2, 914760, Note_on_c, 0, 65, 76
2, 914923, Note_on_c, 0, 84, 0
2, 914923, Note_on_c, 0, 80, 0
2, 914940, Note_on_c, 0, 79, 43
2, 914940, Note_on_c, 0, 82, 42
2, 915103, Note_on_c, 0, 82, 0
2, 915103, Note_on_c, 0, 79, 0
2, 915120, Note_on_c, 0, 80, 46
2, 915120, Note_on_c, 0, 84, 43
2, 915300, Note_on_c, 0, 32, 50
2, 915463, Note_on_c, 0, 32, 0
2, 915463, Note_on_c, 0, 84, 0
2, 915463, Note_on_c, 0, 80, 0
2, 915480, Note_on_c, 0, 77, 39
2, 915480, Note_on_c, 0, 80, 38
2, 915480, Note_on_c, 0, 50, 65
2, 915643, Note_on_c, 0, 80, 0
2, 915643, Note_on_c, 0, 50, 0
2, 915660, Note_on_c, 0, 79, 42
2, 915660, Note_on_c, 0, 58, 64
2, 915714, Note_on_c, 0, 58, 0
2, 915719, Note_on_c, 0, 56, 51
2, 915774, Note_on_c, 0, 56, 0
2, 915780, Note_on_c, 0, 58, 57
2, 915823, Note_on_c, 0, 77, 0
2, 915823, Note_on_c, 0, 79, 0
2, 915834, Note_on_c, 0, 58, 0
2, 915840, Note_on_c, 0, 60, 0
2, 915840, Note_on_c, 0, 53, 0
2, 915840, Note_on_c, 0, 50, 0
2, 915840, Note_on_c, 0, 56, 0
2, 915840, Note_on_c, 0, 65, 0
2, 915840, Note_on_c, 0, 77, 48
2, 915840, Note_on_c, 0, 80, 45
2, 915840, Note_on_c, 0, 60, 87
2, 915840, Note_on_c, 0, 56, 45
2, 916003, Note_on_c, 0, 80, 0
2, 916003, Note_on_c, 0, 77, 0
2, 916020, Note_on_c, 0, 68, 35
2, 916020, Note_on_c, 0, 72, 35
2, 916183, Note_on_c, 0, 72, 0
2, 916183, Note_on_c, 0, 68, 0
2, 916200, Note_on_c, 0, 72, 46
2, 916200, Note_on_c, 0, 76, 46
2, 916363, Note_on_c, 0, 76, 0
2, 916363, Note_on_c, 0, 72, 0
2, 916380, Note_on_c, 0, 68, 49
2, 916380, Note_on_c, 0, 77, 48
2, 916543, Note_on_c, 0, 77, 0
2, 916543, Note_on_c, 0, 68, 0
2, 916560, Note_on_c, 0, 72, 44
2, 916560, Note_on_c, 0, 79, 43
2, 916723, Note_on_c, 0, 79, 0
2, 916740, Note_on_c, 0, 80, 44
2, 916850, Note_on_c, 0, 56, 0
2, 916850, Note_on_c, 0, 60, 0
2, 916903, Note_on_c, 0, 72, 0
2, 916903, Note_on_c, 0, 80, 0
2, 916920, Note_on_c, 0, 80, 50
2, 916920, Note_on_c, 0, 84, 49
2, 916920, Note_on_c, 0, 50, 68
2, 916920, Note_on_c, 0, 56, 69
2, 916920, Note_on_c, 0, 60, 69
2, 916920, Note_on_c, 0, 64, 69
2, 917083, Note_on_c, 0, 84, 0
2, 917083, Note_on_c, 0, 80, 0
2, 917100, Note_on_c, 0, 79, 39
2, 917100, Note_on_c, 0, 82, 42
2, 917263, Note_on_c, 0, 82, 0
2, 917263, Note_on_c, 0, 79, 0
2, 917280, Note_on_c, 0, 80, 46
2, 917280, Note_on_c, 0, 84, 44
2, 917460, Note_on_c, 0, 32, 51
2, 917623, Note_on_c, 0, 32, 0
2, 917623, Note_on_c, 0, 84, 0
2, 917623, Note_on_c, 0, 80, 0
2, 917640, Note_on_c, 0, 76, 38
2, 917640, Note_on_c, 0, 80, 38
2, 917640, Note_on_c, 0, 50, 66
2, 917803, Note_on_c, 0, 80, 0
2, 917803, Note_on_c, 0, 50, 0
2, 917820, Note_on_c, 0, 79, 41
2, 917820, Note_on_c, 0, 58, 63
2, 917874, Note_on_c, 0, 58, 0
2, 917879, Note_on_c, 0, 56, 51
2, 917934, Note_on_c, 0, 56, 0
2, 917940, Note_on_c, 0, 58, 56
2, 917983, Note_on_c, 0, 79, 0
2, 917983, Note_on_c, 0, 76, 0
2, 917994, Note_on_c, 0, 58, 0
2, 918000, Note_on_c, 0, 64, 0
2, 918000, Note_on_c, 0, 50, 0
2, 918000, Note_on_c, 0, 60, 0
2, 918000, Note_on_c, 0, 56, 0
2, 918000, Note_on_c, 0, 76, 48
2, 918000, Note_on_c, 0, 80, 45
2, 918000, Note_on_c, 0, 56, 85
2, 918000, Note_on_c, 0, 60, 85
2, 918163, Note_on_c, 0, 80, 0
2, 918163, Note_on_c, 0, 76, 0
2, 918180, Note_on_c, 0, 68, 37
2, 918180, Note_on_c, 0, 72, 35
2, 918343, Note_on_c, 0, 72, 0
2, 918343, Note_on_c, 0, 68, 0
2, 918360, Note_on_c, 0, 72, 44
2, 918360, Note_on_c, 0, 76, 47
2, 918703, Note_on_c, 0, 76, 0
2, 918703, Note_on_c, 0, 72, 0
2, 918720, Note_on_c, 0, 67, 47
2, 918720, Note_on_c, 0, 72, 47
2, 918720, Note_on_c, 0, 79, 45
2, 918883, Note_on_c, 0, 79, 0
2, 918883, Note_on_c, 0, 67, 0
2, 918900, Note_on_c, 0, 68, 44
2, 918900, Note_on_c, 0, 80, 47
2, 919010, Note_on_c, 0, 56, 0
2, 919010, Note_on_c, 0, 60, 0
2, 919063, Note_on_c, 0, 68, 0
2, 919063, Note_on_c, 0, 72, 0
2, 919063, Note_on_c, 0, 80, 0
2, 919080, Note_on_c, 0, 87, 55
2, 919080, Note_on_c, 0, 84, 41
2, 919080, Note_on_c, 0, 68, 67
2, 919080, Note_on_c, 0, 75, 71
2, 919134, Note_on_c, 0, 87, 0
2, 919139, Note_on_c, 0, 88, 46
2, 919194, Note_on_c, 0, 88, 0
2, 919200, Note_on_c, 0, 87, 39
2, 919254, Note_on_c, 0, 87, 0
2, 919260, Note_on_c, 0, 88, 45
2, 919314, Note_on_c, 0, 88, 0
2, 919319, Note_on_c, 0, 87, 42
2, 919374, Note_on_c, 0, 87, 0
2, 919380, Note_on_c, 0, 88, 42
2, 919434, Note_on_c, 0, 88, 0
2, 919440, Note_on_c, 0, 87, 40
2, 919494, Note_on_c, 0, 87, 0
2, 919499, Note_on_c, 0, 88, 42
2, 919554, Note_on_c, 0, 88, 0
2, 919560, Note_on_c, 0, 87, 41
2, 919614, Note_on_c, 0, 87, 0
2, 919620, Note_on_c, 0, 92, 51
2, 919674, Note_on_c, 0, 92, 0
2, 919679, Note_on_c, 0, 88, 38
2, 919734, Note_on_c, 0, 88, 0
2, 919740, Note_on_c, 0, 87, 40
2, 919794, Note_on_c, 0, 87, 0
2, 919800, Note_on_c, 0, 88, 43
2, 919854, Note_on_c, 0, 88, 0
2, 919859, Note_on_c, 0, 87, 39
2, 919914, Note_on_c, 0, 87, 0
2, 919920, Note_on_c, 0, 85, 40
2, 919945, Note_on_c, 0, 75, 0
2, 919945, Note_on_c, 0, 68, 0
2, 919974, Note_on_c, 0, 85, 0
2, 919980, Note_on_c, 0, 87, 44
2, 919980, Note_on_c, 0, 68, 52
2, 919980, Note_on_c, 0, 75, 53
2, 920025, Note_on_c, 0, 75, 0
2, 920025, Note_on_c, 0, 68, 0
2, 920034, Note_on_c, 0, 87, 0
2, 920039, Note_on_c, 0, 85, 41
2, 920070, Note_on_c, 0, 68, 53
2, 920070, Note_on_c, 0, 75, 53
2, 920090, Note_on_c, 0, 84, 0
2, 920094, Note_on_c, 0, 85, 0
2, 920100, Note_on_c, 0, 84, 41
2, 920115, Note_on_c, 0, 68, 0
2, 920115, Note_on_c, 0, 75, 0
2, 920160, Note_on_c, 0, 87, 48
2, 920160, Note_on_c, 0, 84, 46
2, 920160, Note_on_c, 0, 68, 56
2, 920160, Note_on_c, 0, 75, 55
2, 920214, Note_on_c, 0, 87, 0
2, 920219, Note_on_c, 0, 88, 45
2, 920274, Note_on_c, 0, 88, 0
2, 920280, Note_on_c, 0, 87, 39
2, 920334, Note_on_c, 0, 87, 0
2, 920340, Note_on_c, 0, 88, 43
2, 920394, Note_on_c, 0, 88, 0
2, 920399, Note_on_c, 0, 87, 41
2, 920454, Note_on_c, 0, 87, 0
2, 920460, Note_on_c, 0, 88, 44
2, 920514, Note_on_c, 0, 88, 0
2, 920520, Note_on_c, 0, 87, 40
2, 920574, Note_on_c, 0, 87, 0
2, 920579, Note_on_c, 0, 88, 46
2, 920634, Note_on_c, 0, 88, 0
2, 920640, Note_on_c, 0, 87, 39
2, 920647, Note_on_c, 0, 75, 0
2, 920647, Note_on_c, 0, 84, 0
2, 920647, Note_on_c, 0, 68, 0
2, 920694, Note_on_c, 0, 87, 0
2, 920700, Note_on_c, 0, 88, 45
2, 920700, Note_on_c, 0, 73, 57
2, 920700, Note_on_c, 0, 76, 58
2, 920754, Note_on_c, 0, 88, 0
2, 920759, Note_on_c, 0, 85, 41
2, 920814, Note_on_c, 0, 85, 0
2, 920863, Note_on_c, 0, 76, 0
2, 920863, Note_on_c, 0, 73, 0
2, 920874, Note_on_c, 0, 84, 0
2, 920880, Note_on_c, 0, 87, 45
2, 920934, Note_on_c, 0, 87, 0
2, 920939, Note_on_c, 0, 85, 40
2, 920994, Note_on_c, 0, 85, 0
2, 921000, Note_on_c, 0, 84, 38
2, 921054, Note_on_c, 0, 84, 0
2, 921060, Note_on_c, 0, 85, 44
2, 921114, Note_on_c, 0, 85, 0
2, 921119, Note_on_c, 0, 84, 43
2, 921174, Note_on_c, 0, 84, 0
2, 921180, Note_on_c, 0, 82, 39
2, 921234, Note_on_c, 0, 82, 0
2, 921240, Note_on_c, 0, 80, 48
2, 921240, Note_on_c, 0, 84, 47
2, 921240, Note_on_c, 0, 32, 50
2, 921240, Note_on_c, 0, 44, 49
2, 921329, Note_on_c, 0, 44, 0
2, 921329, Note_on_c, 0, 32, 0
2, 921420, Note_on_c, 0, 60, 40
2, 921420, Note_on_c, 0, 68, 39
2, 921420, Note_on_c, 0, 51, 64
2, 921420, Note_on_c, 0, 56, 65
2, 921509, Note_on_c, 0, 56, 0
2, 921509, Note_on_c, 0, 51, 0
2, 921509, Note_on_c, 0, 60, 0
2, 921509, Note_on_c, 0, 68, 0
2, 921600, Note_on_c, 0, 68, 48
2, 921600, Note_on_c, 0, 72, 46
2, 921600, Note_on_c, 0, 56, 61
2, 921600, Note_on_c, 0, 60, 61
2, 921689, Note_on_c, 0, 60, 0
2, 921689, Note_on_c, 0, 56, 0
2, 921689, Note_on_c, 0, 68, 0
2, 921689, Note_on_c, 0, 72, 0
2, 921770, Note_on_c, 0, 80, 0
2, 921770, Note_on_c, 0, 84, 0
2, 921780, Note_on_c, 0, 72, 61
2, 921780, Note_on_c, 0, 80, 62
2, 921780, Note_on_c, 0, 63, 69
2, 921780, Note_on_c, 0, 68, 69
2, 922320, Note_on_c, 0, 68, 0
2, 922320, Note_on_c, 0, 80, 0
2, 922320, Note_on_c, 0, 72, 0
2, 922320, Note_on_c, 0, 63, 0
2, 922320, Note_on_c, 0, 32, 46
2, 922320, Note_on_c, 0, 44, 45
2, 922409, Note_on_c, 0, 44, 0
2, 922409, Note_on_c, 0, 32, 0
2, 922500, Note_on_c, 0, 60, 39
2, 922500, Note_on_c, 0, 68, 40
2, 922500, Note_on_c, 0, 51, 62
2, 922500, Note_on_c, 0, 56, 64
2, 922589, Note_on_c, 0, 56, 0
2, 922589, Note_on_c, 0, 51, 0
2, 922663, Note_on_c, 0, 60, 0
2, 922663, Note_on_c, 0, 68, 0
2, 922680, Note_on_c, 0, 68, 46
2, 922680, Note_on_c, 0, 72, 46
2, 922680, Note_on_c, 0, 56, 60
2, 922680, Note_on_c, 0, 60, 59
2, 922769, Note_on_c, 0, 60, 0
2, 922769, Note_on_c, 0, 56, 0
2, 922843, Note_on_c, 0, 68, 0
2, 922843, Note_on_c, 0, 72, 0
2, 922860, Note_on_c, 0, 67, 43
2, 922860, Note_on_c, 0, 73, 46
2, 922860, Note_on_c, 0, 64, 60
2, 923347, Note_on_c, 0, 64, 0
2, 923347, Note_on_c, 0, 67, 0
2, 923347, Note_on_c, 0, 73, 0
2, 923400, Note_on_c, 0, 68, 42
2, 923400, Note_on_c, 0, 72, 44
2, 923400, Note_on_c, 0, 56, 56
2, 923400, Note_on_c, 0, 60, 53
2, 923400, Note_on_c, 0, 63, 55
2, 923563, Note_on_c, 0, 63, 0
2, 923563, Note_on_c, 0, 56, 0
2, 923563, Note_on_c, 0, 72, 0
2, 923563, Note_on_c, 0, 68, 0
2, 923563, Note_on_c, 0, 60, 0
2, 923940, Note_on_c, 0, 51, 43
2, 924183, Note_on_c, 0, 51, 0
2, 924210, Note_on_c, 0, 53, 46
2, 924453, Note_on_c, 0, 53, 0
2, 924480, Note_on_c, 0, 55, 47
2, 924723, Note_on_c, 0, 55, 0
2, 924750, Note_on_c, 0, 56, 45
2, 924993, Note_on_c, 0, 56, 0
2, 925020, Note_on_c, 0, 58, 47
2, 925263, Note_on_c, 0, 58, 0
2, 925290, Note_on_c, 0, 60, 43
2, 925533, Note_on_c, 0, 60, 0
2, 925560, Note_on_c, 0, 65, 52
2, 926883, Note_on_c, 0, 65, 0
2, 926910, Note_on_c, 0, 63, 41
2, 927153, Note_on_c, 0, 63, 0
2, 927180, Note_on_c, 0, 60, 40
2, 927180, Note_on_c, 0, 39, 48
2, 927505, Note_on_c, 0, 60, 0
2, 927540, Note_on_c, 0, 58, 38
2, 927667, Note_on_c, 0, 39, 0
2, 927703, Note_on_c, 0, 58, 0
2, 927720, Note_on_c, 0, 60, 35
2, 927720, Note_on_c, 0, 32, 44
2, 928260, Note_on_c, 0, 72, 40
2, 928260, Note_on_c, 0, 80, 39
2, 928260, Note_on_c, 0, 56, 50
2, 928260, Note_on_c, 0, 63, 50
2, 928260, Note_on_c, 0, 68, 50
2, 928730, Note_on_c, 0, 32, 0
2, 928730, Note_on_c, 0, 60, 0
2, 928747, Note_on_c, 0, 63, 0
2, 928747, Note_on_c, 0, 80, 0
2, 928747, Note_on_c, 0, 68, 0
2, 928747, Note_on_c, 0, 72, 0
2, 928747, Note_on_c, 0, 56, 0
2, 933660, Note_on_c, 0, 36, 46
2, 934147, Note_on_c, 0, 36, 0
2, 934200, Note_on_c, 0, 38, 57
2, 934687, Note_on_c, 0, 38, 0
2, 934740, Note_on_c, 0, 43, 46
2, 934740, Note_on_c, 0, 48, 43
2, 934740, Note_on_c, 0, 55, 44
2, 934740, Note_on_c, 0, 39, 58
2, 934903, Note_on_c, 0, 39, 0
2, 934920, Note_on_c, 0, 38, 53
2, 935083, Note_on_c, 0, 38, 0
2, 935100, Note_on_c, 0, 39, 55
2, 935263, Note_on_c, 0, 39, 0
2, 935280, Note_on_c, 0, 41, 59
2, 935767, Note_on_c, 0, 41, 0
2, 935820, Note_on_c, 0, 43, 55
2, 936307, Note_on_c, 0, 43, 0
2, 936360, Note_on_c, 0, 44, 59
2, 936847, Note_on_c, 0, 44, 0
2, 936847, Note_on_c, 0, 43, 0
2, 936847, Note_on_c, 0, 48, 0
2, 936847, Note_on_c, 0, 55, 0
2, 936900, Note_on_c, 0, 48, 54
2, 936900, Note_on_c, 0, 51, 56
2, 936900, Note_on_c, 0, 60, 55
2, 936900, Note_on_c, 0, 46, 60
2, 937063, Note_on_c, 0, 46, 0
2, 937080, Note_on_c, 0, 44, 51
2, 937243, Note_on_c, 0, 44, 0
2, 937260, Note_on_c, 0, 46, 54
2, 937423, Note_on_c, 0, 46, 0
2, 937440, Note_on_c, 0, 48, 57
2, 937927, Note_on_c, 0, 48, 0
2, 937980, Note_on_c, 0, 47, 51
2, 938450, Note_on_c, 0, 60, 0
2, 938450, Note_on_c, 0, 51, 0
2, 938450, Note_on_c, 0, 48, 0
2, 938467, Note_on_c, 0, 47, 0
2, 938520, Note_on_c, 0, 56, 41
2, 938520, Note_on_c, 0, 51, 55
2, 938520, Note_on_c, 0, 63, 55
2, 938520, Note_on_c, 0, 48, 57
2, 938683, Note_on_c, 0, 48, 0
2, 938700, Note_on_c, 0, 47, 50
2, 938863, Note_on_c, 0, 47, 0
2, 938880, Note_on_c, 0, 48, 54
2, 939007, Note_on_c, 0, 56, 0
2, 939043, Note_on_c, 0, 48, 0
2, 939060, Note_on_c, 0, 58, 44
2, 939060, Note_on_c, 0, 50, 57
2, 939547, Note_on_c, 0, 50, 0
2, 939547, Note_on_c, 0, 58, 0
2, 939600, Note_on_c, 0, 51, 0
2, 939600, Note_on_c, 0, 60, 50
2, 939600, Note_on_c, 0, 51, 45
2, 939600, Note_on_c, 0, 51, 60
2, 939763, Note_on_c, 0, 51, 0
2, 939780, Note_on_c, 0, 48, 48
2, 939943, Note_on_c, 0, 48, 0
2, 939960, Note_on_c, 0, 50, 54
2, 940087, Note_on_c, 0, 51, 0
2, 940087, Note_on_c, 0, 63, 0
2, 940087, Note_on_c, 0, 60, 0
2, 940123, Note_on_c, 0, 50, 0
2, 940140, Note_on_c, 0, 60, 43
2, 940140, Note_on_c, 0, 55, 51
2, 940140, Note_on_c, 0, 67, 53
2, 940140, Note_on_c, 0, 51, 56
2, 940627, Note_on_c, 0, 51, 0
2, 940627, Note_on_c, 0, 60, 0
2, 940680, Note_on_c, 0, 61, 46
2, 940680, Note_on_c, 0, 52, 59
2, 940843, Note_on_c, 0, 52, 0
2, 940860, Note_on_c, 0, 51, 52
2, 941023, Note_on_c, 0, 51, 0
2, 941040, Note_on_c, 0, 52, 57
2, 941167, Note_on_c, 0, 61, 0
2, 941167, Note_on_c, 0, 67, 0
2, 941167, Note_on_c, 0, 55, 0
2, 941203, Note_on_c, 0, 52, 0
2, 941220, Note_on_c, 0, 62, 47
2, 941220, Note_on_c, 0, 56, 50
2, 941220, Note_on_c, 0, 60, 53
2, 941220, Note_on_c, 0, 68, 50
2, 941220, Note_on_c, 0, 53, 56
2, 941707, Note_on_c, 0, 53, 0
2, 941707, Note_on_c, 0, 62, 0
2, 941760, Note_on_c, 0, 63, 47
2, 941760, Note_on_c, 0, 54, 57
2, 941923, Note_on_c, 0, 54, 0
2, 941940, Note_on_c, 0, 53, 52
2, 942103, Note_on_c, 0, 53, 0
2, 942120, Note_on_c, 0, 54, 57
2, 942247, Note_on_c, 0, 63, 0
2, 942247, Note_on_c, 0, 56, 0
2, 942247, Note_on_c, 0, 68, 0
2, 942247, Note_on_c, 0, 60, 0
2, 942283, Note_on_c, 0, 54, 0
2, 942300, Note_on_c, 0, 64, 45
2, 942300, Note_on_c, 0, 60, 55
2, 942300, Note_on_c, 0, 72, 53
2, 942300, Note_on_c, 0, 55, 57
2, 942463, Note_on_c, 0, 55, 0
2, 942480, Note_on_c, 0, 54, 49
2, 942643, Note_on_c, 0, 54, 0
2, 942660, Note_on_c, 0, 55, 56
2, 942787, Note_on_c, 0, 64, 0
2, 942823, Note_on_c, 0, 55, 0
2, 942840, Note_on_c, 0, 65, 47
2, 942840, Note_on_c, 0, 56, 56
2, 943003, Note_on_c, 0, 56, 0
2, 943020, Note_on_c, 0, 55, 51
2, 943183, Note_on_c, 0, 55, 0
2, 943200, Note_on_c, 0, 56, 56
2, 943327, Note_on_c, 0, 65, 0
2, 943327, Note_on_c, 0, 72, 0
2, 943327, Note_on_c, 0, 60, 0
2, 943363, Note_on_c, 0, 56, 0
2, 943380, Note_on_c, 0, 66, 45
2, 943380, Note_on_c, 0, 63, 52
2, 943380, Note_on_c, 0, 72, 51
2, 943380, Note_on_c, 0, 75, 53
2, 943380, Note_on_c, 0, 58, 61
2, 943380, Note_on_c, 0, 60, 49
2, 943543, Note_on_c, 0, 58, 0
2, 943560, Note_on_c, 0, 57, 51
2, 943723, Note_on_c, 0, 57, 0
2, 943740, Note_on_c, 0, 56, 48
2, 943867, Note_on_c, 0, 66, 0
2, 943903, Note_on_c, 0, 56, 0
2, 943920, Note_on_c, 0, 67, 49
2, 943920, Note_on_c, 0, 55, 59
2, 943920, Note_on_c, 0, 60, 61
2, 944083, Note_on_c, 0, 55, 0
2, 944083, Note_on_c, 0, 67, 0
2, 944083, Note_on_c, 0, 72, 0
2, 944083, Note_on_c, 0, 75, 0
2, 944083, Note_on_c, 0, 63, 0
2, 944083, Note_on_c, 0, 60, 0
2, 944460, Note_on_c, 0, 48, 50
2, 944460, Note_on_c, 0, 51, 50
2, 944460, Note_on_c, 0, 55, 47
2, 944640, Note_on_c, 0, 63, 40
2, 944640, Note_on_c, 0, 66, 37
2, 944785, Note_on_c, 0, 55, 0
2, 944785, Note_on_c, 0, 48, 0
2, 944785, Note_on_c, 0, 51, 0
2, 944803, Note_on_c, 0, 66, 0
2, 944803, Note_on_c, 0, 63, 0
2, 944820, Note_on_c, 0, 60, 44
2, 944820, Note_on_c, 0, 67, 45
2, 944983, Note_on_c, 0, 67, 0
2, 944983, Note_on_c, 0, 60, 0
2, 945000, Note_on_c, 0, 48, 51
2, 945000, Note_on_c, 0, 51, 50
2, 945000, Note_on_c, 0, 57, 53
2, 945177, Note_on_c, 0, 57, 0
2, 945177, Note_on_c, 0, 48, 0
2, 945177, Note_on_c, 0, 51, 0
2, 945180, Note_on_c, 0, 63, 41
2, 945180, Note_on_c, 0, 68, 39
2, 945343, Note_on_c, 0, 68, 0
2, 945343, Note_on_c, 0, 63, 0
2, 945360, Note_on_c, 0, 60, 45
2, 945360, Note_on_c, 0, 69, 43
2, 945523, Note_on_c, 0, 69, 0
2, 945523, Note_on_c, 0, 60, 0
2, 945540, Note_on_c, 0, 50, 48
2, 945540, Note_on_c, 0, 55, 47
2, 945540, Note_on_c, 0, 59, 48
2, 945717, Note_on_c, 0, 59, 0
2, 945717, Note_on_c, 0, 50, 0
2, 945717, Note_on_c, 0, 55, 0
2, 945720, Note_on_c, 0, 67, 41
2, 945720, Note_on_c, 0, 70, 38
2, 945883, Note_on_c, 0, 70, 0
2, 945883, Note_on_c, 0, 67, 0
2, 945900, Note_on_c, 0, 62, 45
2, 945900, Note_on_c, 0, 71, 44
2, 946063, Note_on_c, 0, 71, 0
2, 946063, Note_on_c, 0, 62, 0
2, 946080, Note_on_c, 0, 51, 51
2, 946080, Note_on_c, 0, 55, 49
2, 946080, Note_on_c, 0, 60, 53
2, 946257, Note_on_c, 0, 55, 0
2, 946257, Note_on_c, 0, 51, 0
2, 946257, Note_on_c, 0, 60, 0
2, 946260, Note_on_c, 0, 67, 37
2, 946260, Note_on_c, 0, 71, 39
2, 946423, Note_on_c, 0, 71, 0
2, 946423, Note_on_c, 0, 67, 0
2, 946440, Note_on_c, 0, 63, 42
2, 946440, Note_on_c, 0, 72, 42
2, 946603, Note_on_c, 0, 72, 0
2, 946603, Note_on_c, 0, 63, 0
2, 946620, Note_on_c, 0, 50, 49
2, 946620, Note_on_c, 0, 55, 49
2, 946620, Note_on_c, 0, 62, 48
2, 946797, Note_on_c, 0, 62, 0
2, 946797, Note_on_c, 0, 50, 0
2, 946797, Note_on_c, 0, 55, 0
2, 946800, Note_on_c, 0, 67, 39
2, 946800, Note_on_c, 0, 71, 40
2, 946963, Note_on_c, 0, 71, 0
2, 946963, Note_on_c, 0, 67, 0
2, 946980, Note_on_c, 0, 62, 47
2, 946980, Note_on_c, 0, 74, 46
2, 947143, Note_on_c, 0, 74, 0
2, 947143, Note_on_c, 0, 62, 0
2, 947160, Note_on_c, 0, 51, 50
2, 947160, Note_on_c, 0, 55, 50
2, 947160, Note_on_c, 0, 61, 51
2, 947160, Note_on_c, 0, 63, 50
2, 947337, Note_on_c, 0, 63, 0
2, 947337, Note_on_c, 0, 55, 0
2, 947337, Note_on_c, 0, 51, 0
2, 947337, Note_on_c, 0, 61, 0
2, 947340, Note_on_c, 0, 67, 41
2, 947340, Note_on_c, 0, 73, 38
2, 947503, Note_on_c, 0, 73, 0
2, 947503, Note_on_c, 0, 67, 0
2, 947520, Note_on_c, 0, 63, 45
2, 947520, Note_on_c, 0, 75, 42
2, 947683, Note_on_c, 0, 75, 0
2, 947683, Note_on_c, 0, 63, 0
2, 947700, Note_on_c, 0, 52, 46
2, 947700, Note_on_c, 0, 55, 47
2, 947700, Note_on_c, 0, 61, 48
2, 947700, Note_on_c, 0, 64, 48
2, 947877, Note_on_c, 0, 64, 0
2, 947877, Note_on_c, 0, 55, 0
2, 947877, Note_on_c, 0, 52, 0
2, 947877, Note_on_c, 0, 61, 0
2, 947880, Note_on_c, 0, 67, 39
2, 947880, Note_on_c, 0, 73, 39
2, 948043, Note_on_c, 0, 73, 0
2, 948043, Note_on_c, 0, 67, 0
2, 948060, Note_on_c, 0, 64, 44
2, 948060, Note_on_c, 0, 76, 45
2, 948223, Note_on_c, 0, 76, 0
2, 948223, Note_on_c, 0, 64, 0
2, 948240, Note_on_c, 0, 53, 50
2, 948240, Note_on_c, 0, 56, 50
2, 948240, Note_on_c, 0, 60, 52
2, 948240, Note_on_c, 0, 65, 51
2, 948417, Note_on_c, 0, 65, 0
2, 948417, Note_on_c, 0, 53, 0
2, 948417, Note_on_c, 0, 60, 0
2, 948417, Note_on_c, 0, 56, 0
2, 948420, Note_on_c, 0, 72, 37
2, 948420, Note_on_c, 0, 76, 37
2, 948583, Note_on_c, 0, 76, 0
2, 948583, Note_on_c, 0, 72, 0
2, 948600, Note_on_c, 0, 68, 45
2, 948600, Note_on_c, 0, 77, 46
2, 948763, Note_on_c, 0, 77, 0
2, 948763, Note_on_c, 0, 68, 0
2, 948780, Note_on_c, 0, 55, 48
2, 948780, Note_on_c, 0, 60, 50
2, 948780, Note_on_c, 0, 67, 50
2, 948957, Note_on_c, 0, 67, 0
2, 948957, Note_on_c, 0, 60, 0
2, 948957, Note_on_c, 0, 55, 0
2, 948960, Note_on_c, 0, 72, 37
2, 948960, Note_on_c, 0, 76, 37
2, 949123, Note_on_c, 0, 76, 0
2, 949123, Note_on_c, 0, 72, 0
2, 949140, Note_on_c, 0, 67, 46
2, 949140, Note_on_c, 0, 79, 45
2, 949303, Note_on_c, 0, 79, 0
2, 949303, Note_on_c, 0, 67, 0
2, 949320, Note_on_c, 0, 56, 50
2, 949320, Note_on_c, 0, 60, 49
2, 949320, Note_on_c, 0, 66, 51
2, 949320, Note_on_c, 0, 68, 51
2, 949497, Note_on_c, 0, 68, 0
2, 949497, Note_on_c, 0, 56, 0
2, 949497, Note_on_c, 0, 60, 0
2, 949497, Note_on_c, 0, 66, 0
2, 949500, Note_on_c, 0, 72, 37
2, 949500, Note_on_c, 0, 78, 39
2, 949663, Note_on_c, 0, 78, 0
2, 949663, Note_on_c, 0, 72, 0
2, 949680, Note_on_c, 0, 68, 44
2, 949680, Note_on_c, 0, 80, 44
2, 949843, Note_on_c, 0, 80, 0
2, 949843, Note_on_c, 0, 68, 0
2, 949860, Note_on_c, 0, 57, 49
2, 949860, Note_on_c, 0, 60, 50
2, 949860, Note_on_c, 0, 66, 49
2, 949860, Note_on_c, 0, 69, 49
2, 950037, Note_on_c, 0, 69, 0
2, 950037, Note_on_c, 0, 57, 0
2, 950037, Note_on_c, 0, 60, 0
2, 950037, Note_on_c, 0, 66, 0
2, 950040, Note_on_c, 0, 72, 38
2, 950040, Note_on_c, 0, 78, 37
2, 950203, Note_on_c, 0, 78, 0
2, 950203, Note_on_c, 0, 72, 0
2, 950220, Note_on_c, 0, 69, 46
2, 950220, Note_on_c, 0, 81, 43
2, 950383, Note_on_c, 0, 81, 0
2, 950383, Note_on_c, 0, 69, 0
2, 950400, Note_on_c, 0, 72, 51
2, 950400, Note_on_c, 0, 74, 49
2, 950400, Note_on_c, 0, 77, 48
2, 950400, Note_on_c, 0, 80, 50
2, 950400, Note_on_c, 0, 84, 48
2, 950400, Note_on_c, 0, 56, 51
2, 950400, Note_on_c, 0, 60, 52
2, 950400, Note_on_c, 0, 65, 50
2, 950400, Note_on_c, 0, 68, 51
2, 950577, Note_on_c, 0, 68, 0
2, 950577, Note_on_c, 0, 56, 0
2, 950577, Note_on_c, 0, 60, 0
2, 950577, Note_on_c, 0, 65, 0
2, 950725, Note_on_c, 0, 84, 0
2, 950725, Note_on_c, 0, 74, 0
2, 950725, Note_on_c, 0, 77, 0
2, 950725, Note_on_c, 0, 72, 0
2, 950725, Note_on_c, 0, 80, 0
2, 951480, Note_on_c, 0, 71, 44
2, 951480, Note_on_c, 0, 74, 41
2, 951480, Note_on_c, 0, 77, 42
2, 951480, Note_on_c, 0, 79, 41
2, 951480, Note_on_c, 0, 83, 43
2, 951480, Note_on_c, 0, 55, 53
2, 951480, Note_on_c, 0, 59, 51
2, 951480, Note_on_c, 0, 65, 52
2, 951480, Note_on_c, 0, 67, 50
2, 951805, Note_on_c, 0, 67, 0
2, 951805, Note_on_c, 0, 59, 0
2, 951805, Note_on_c, 0, 83, 0
2, 951805, Note_on_c, 0, 79, 0
2, 951805, Note_on_c, 0, 71, 0
2, 951805, Note_on_c, 0, 55, 0
2, 951805, Note_on_c, 0, 74, 0
2, 951805, Note_on_c, 0, 77, 0
2, 951805, Note_on_c, 0, 65, 0
2, 955260, Note_on_c, 0, 67, 43
2, 955260, Note_on_c, 0, 72, 40
2, 955260, Note_on_c, 0, 75, 43
2, 955260, Note_on_c, 0, 79, 42
2, 955260, Note_on_c, 0, 55, 50
2, 955260, Note_on_c, 0, 60, 51
2, 955260, Note_on_c, 0, 63, 51
2, 955349, Note_on_c, 0, 63, 0
2, 955349, Note_on_c, 0, 60, 0
2, 955349, Note_on_c, 0, 55, 0
2, 955349, Note_on_c, 0, 67, 0
2, 955349, Note_on_c, 0, 72, 0
2, 955349, Note_on_c, 0, 79, 0
2, 955349, Note_on_c, 0, 75, 0
2, 955800, Note_on_c, 0, 68, 42
2, 955800, Note_on_c, 0, 72, 44
2, 955800, Note_on_c, 0, 77, 42
2, 955800, Note_on_c, 0, 80, 43
2, 955800, Note_on_c, 0, 56, 53
2, 955800, Note_on_c, 0, 60, 53
2, 955800, Note_on_c, 0, 65, 49
2, 955889, Note_on_c, 0, 65, 0
2, 955889, Note_on_c, 0, 60, 0
2, 955889, Note_on_c, 0, 56, 0
2, 955889, Note_on_c, 0, 68, 0
2, 955889, Note_on_c, 0, 72, 0
2, 955889, Note_on_c, 0, 80, 0
2, 955889, Note_on_c, 0, 77, 0
2, 956340, Note_on_c, 0, 70, 43
2, 956340, Note_on_c, 0, 72, 42
2, 956340, Note_on_c, 0, 79, 43
2, 956340, Note_on_c, 0, 82, 40
2, 956340, Note_on_c, 0, 58, 50
2, 956340, Note_on_c, 0, 60, 50
2, 956340, Note_on_c, 0, 67, 50
2, 956429, Note_on_c, 0, 67, 0
2, 956429, Note_on_c, 0, 60, 0
2, 956429, Note_on_c, 0, 58, 0
2, 956429, Note_on_c, 0, 70, 0
2, 956429, Note_on_c, 0, 72, 0
2, 956429, Note_on_c, 0, 82, 0
2, 956429, Note_on_c, 0, 79, 0
2, 956880, Note_on_c, 0, 67, 43
2, 956880, Note_on_c, 0, 72, 41
2, 956880, Note_on_c, 0, 75, 42
2, 956880, Note_on_c, 0, 79, 41
2, 956880, Note_on_c, 0, 55, 52
2, 956880, Note_on_c, 0, 60, 50
2, 956880, Note_on_c, 0, 63, 52
2, 956969, Note_on_c, 0, 63, 0
2, 956969, Note_on_c, 0, 60, 0
2, 956969, Note_on_c, 0, 55, 0
2, 956969, Note_on_c, 0, 67, 0
2, 956969, Note_on_c, 0, 72, 0
2, 956969, Note_on_c, 0, 79, 0
2, 956969, Note_on_c, 0, 75, 0
2, 957420, Note_on_c, 0, 67, 40
2, 957420, Note_on_c, 0, 72, 43
2, 957420, Note_on_c, 0, 75, 43
2, 957420, Note_on_c, 0, 55, 51
2, 957420, Note_on_c, 0, 60, 49
2, 957420, Note_on_c, 0, 63, 51
2, 957509, Note_on_c, 0, 63, 0
2, 957509, Note_on_c, 0, 55, 0
2, 957509, Note_on_c, 0, 67, 0
2, 957509, Note_on_c, 0, 72, 0
2, 957509, Note_on_c, 0, 60, 0
2, 957509, Note_on_c, 0, 75, 0
2, 957960, Note_on_c, 0, 65, 43
2, 957960, Note_on_c, 0, 68, 44
2, 957960, Note_on_c, 0, 74, 43
2, 957960, Note_on_c, 0, 53, 52
2, 957960, Note_on_c, 0, 56, 52
2, 957960, Note_on_c, 0, 62, 51
2, 958049, Note_on_c, 0, 62, 0
2, 958049, Note_on_c, 0, 65, 0
2, 958049, Note_on_c, 0, 56, 0
2, 958049, Note_on_c, 0, 68, 0
2, 958049, Note_on_c, 0, 53, 0
2, 958049, Note_on_c, 0, 74, 0
2, 958500, Note_on_c, 0, 62, 41
2, 958500, Note_on_c, 0, 65, 40
2, 958500, Note_on_c, 0, 71, 42
2, 958500, Note_on_c, 0, 50, 49
2, 958500, Note_on_c, 0, 53, 52
2, 958500, Note_on_c, 0, 59, 51
2, 958589, Note_on_c, 0, 59, 0
2, 958589, Note_on_c, 0, 62, 0
2, 958589, Note_on_c, 0, 53, 0
2, 958589, Note_on_c, 0, 65, 0
2, 958589, Note_on_c, 0, 50, 0
2, 958589, Note_on_c, 0, 71, 0
2, 959040, Note_on_c, 0, 63, 40
2, 959040, Note_on_c, 0, 67, 41
2, 959040, Note_on_c, 0, 72, 41
2, 959040, Note_on_c, 0, 51, 50
2, 959040, Note_on_c, 0, 55, 50
2, 959040, Note_on_c, 0, 60, 49
2, 959129, Note_on_c, 0, 55, 0
2, 959129, Note_on_c, 0, 51, 0
2, 959129, Note_on_c, 0, 63, 0
2, 959129, Note_on_c, 0, 67, 0
2, 959129, Note_on_c, 0, 60, 0
2, 959129, Note_on_c, 0, 72, 0
2, 959580, Note_on_c, 0, 55, 47
2, 959580, Note_on_c, 0, 60, 47
2, 959580, Note_on_c, 0, 63, 47
2, 959580, Note_on_c, 0, 67, 49
2, 959760, Note_on_c, 0, 75, 41
2, 959760, Note_on_c, 0, 79, 38
2, 959905, Note_on_c, 0, 67, 0
2, 959905, Note_on_c, 0, 60, 0
2, 959905, Note_on_c, 0, 63, 0
2, 959905, Note_on_c, 0, 55, 0
2, 959923, Note_on_c, 0, 75, 0
2, 959923, Note_on_c, 0, 79, 0
2, 959940, Note_on_c, 0, 72, 35
2, 960103, Note_on_c, 0, 72, 0
2, 960120, Note_on_c, 0, 56, 53
2, 960120, Note_on_c, 0, 60, 53
2, 960120, Note_on_c, 0, 65, 50
2, 960120, Note_on_c, 0, 68, 51
2, 960300, Note_on_c, 0, 77, 39
2, 960300, Note_on_c, 0, 80, 40
2, 960445, Note_on_c, 0, 68, 0
2, 960445, Note_on_c, 0, 60, 0
2, 960445, Note_on_c, 0, 65, 0
2, 960445, Note_on_c, 0, 56, 0
2, 960463, Note_on_c, 0, 77, 0
2, 960463, Note_on_c, 0, 80, 0
2, 960480, Note_on_c, 0, 72, 33
2, 960643, Note_on_c, 0, 72, 0
2, 960660, Note_on_c, 0, 58, 49
2, 960660, Note_on_c, 0, 60, 47
2, 960660, Note_on_c, 0, 67, 46
2, 960660, Note_on_c, 0, 70, 49
2, 960840, Note_on_c, 0, 79, 37
2, 960840, Note_on_c, 0, 82, 41
2, 960985, Note_on_c, 0, 70, 0
2, 960985, Note_on_c, 0, 60, 0
2, 960985, Note_on_c, 0, 67, 0
2, 960985, Note_on_c, 0, 58, 0
2, 961003, Note_on_c, 0, 79, 0
2, 961003, Note_on_c, 0, 82, 0
2, 961020, Note_on_c, 0, 72, 33
2, 961183, Note_on_c, 0, 72, 0
2, 961200, Note_on_c, 0, 55, 50
2, 961200, Note_on_c, 0, 60, 49
2, 961200, Note_on_c, 0, 63, 49
2, 961200, Note_on_c, 0, 67, 53
2, 961380, Note_on_c, 0, 75, 38
2, 961380, Note_on_c, 0, 79, 40
2, 961525, Note_on_c, 0, 67, 0
2, 961525, Note_on_c, 0, 60, 0
2, 961525, Note_on_c, 0, 63, 0
2, 961525, Note_on_c, 0, 55, 0
2, 961543, Note_on_c, 0, 75, 0
2, 961543, Note_on_c, 0, 79, 0
2, 961560, Note_on_c, 0, 72, 35
2, 961723, Note_on_c, 0, 72, 0
2, 961740, Note_on_c, 0, 55, 47
2, 961740, Note_on_c, 0, 60, 49
2, 961740, Note_on_c, 0, 63, 50
2, 961920, Note_on_c, 0, 72, 39
2, 961920, Note_on_c, 0, 75, 38
2, 962065, Note_on_c, 0, 63, 0
2, 962065, Note_on_c, 0, 60, 0
2, 962065, Note_on_c, 0, 55, 0
2, 962083, Note_on_c, 0, 75, 0
2, 962083, Note_on_c, 0, 72, 0
2, 962100, Note_on_c, 0, 67, 35
2, 962263, Note_on_c, 0, 67, 0
2, 962280, Note_on_c, 0, 53, 51
2, 962280, Note_on_c, 0, 56, 51
2, 962280, Note_on_c, 0, 62, 51
2, 962460, Note_on_c, 0, 68, 40
2, 962460, Note_on_c, 0, 74, 41
2, 962605, Note_on_c, 0, 62, 0
2, 962605, Note_on_c, 0, 53, 0
2, 962605, Note_on_c, 0, 56, 0
2, 962623, Note_on_c, 0, 74, 0
2, 962623, Note_on_c, 0, 68, 0
2, 962640, Note_on_c, 0, 65, 35
2, 962803, Note_on_c, 0, 65, 0
2, 962820, Note_on_c, 0, 50, 49
2, 962820, Note_on_c, 0, 53, 50
2, 962820, Note_on_c, 0, 59, 47
2, 963000, Note_on_c, 0, 65, 37
2, 963000, Note_on_c, 0, 71, 39
2, 963145, Note_on_c, 0, 59, 0
2, 963145, Note_on_c, 0, 50, 0
2, 963145, Note_on_c, 0, 53, 0
2, 963163, Note_on_c, 0, 71, 0
2, 963163, Note_on_c, 0, 65, 0
2, 963180, Note_on_c, 0, 62, 35
2, 963343, Note_on_c, 0, 62, 0
2, 963360, Note_on_c, 0, 51, 50
2, 963360, Note_on_c, 0, 55, 52
2, 963360, Note_on_c, 0, 60, 51
2, 963540, Note_on_c, 0, 67, 39
2, 963540, Note_on_c, 0, 72, 40
2, 963685, Note_on_c, 0, 55, 0
2, 963685, Note_on_c, 0, 51, 0
2, 963685, Note_on_c, 0, 60, 0
2, 963703, Note_on_c, 0, 72, 0
2, 963703, Note_on_c, 0, 67, 0
2, 963720, Note_on_c, 0, 63, 34
2, 963883, Note_on_c, 0, 63, 0
2, 963900, Note_on_c, 0, 67, 49
2, 963900, Note_on_c, 0, 72, 51
2, 963900, Note_on_c, 0, 51, 46
2, 963900, Note_on_c, 0, 55, 48
2, 963900, Note_on_c, 0, 60, 48
2, 964225, Note_on_c, 0, 55, 0
2, 964225, Note_on_c, 0, 67, 0
2, 964225, Note_on_c, 0, 72, 0
2, 964225, Note_on_c, 0, 60, 0
2, 964225, Note_on_c, 0, 51, 0
2, 964260, Note_on_c, 0, 74, 45
2, 964260, Note_on_c, 0, 62, 54
2, 964423, Note_on_c, 0, 62, 0
2, 964423, Note_on_c, 0, 74, 0
2, 964440, Note_on_c, 0, 67, 50
2, 964440, Note_on_c, 0, 72, 48
2, 964440, Note_on_c, 0, 75, 49
2, 964440, Note_on_c, 0, 55, 58
2, 964440, Note_on_c, 0, 60, 58
2, 964440, Note_on_c, 0, 63, 59
2, 964603, Note_on_c, 0, 63, 0
2, 964603, Note_on_c, 0, 55, 0
2, 964603, Note_on_c, 0, 67, 0
2, 964603, Note_on_c, 0, 72, 0
2, 964603, Note_on_c, 0, 60, 0
2, 964603, Note_on_c, 0, 75, 0
2, 964980, Note_on_c, 0, 68, 42
2, 964980, Note_on_c, 0, 72, 41
2, 964980, Note_on_c, 0, 77, 41
2, 964980, Note_on_c, 0, 56, 50
2, 964980, Note_on_c, 0, 60, 51
2, 964980, Note_on_c, 0, 65, 51
2, 965069, Note_on_c, 0, 65, 0
2, 965069, Note_on_c, 0, 56, 0
2, 965069, Note_on_c, 0, 68, 0
2, 965069, Note_on_c, 0, 72, 0
2, 965069, Note_on_c, 0, 60, 0
2, 965069, Note_on_c, 0, 77, 0
2, 965520, Note_on_c, 0, 69, 43
2, 965520, Note_on_c, 0, 72, 40
2, 965520, Note_on_c, 0, 75, 41
2, 965520, Note_on_c, 0, 57, 50
2, 965520, Note_on_c, 0, 60, 51
2, 965520, Note_on_c, 0, 63, 53
2, 965609, Note_on_c, 0, 63, 0
2, 965609, Note_on_c, 0, 57, 0
2, 965609, Note_on_c, 0, 69, 0
2, 965609, Note_on_c, 0, 72, 0
2, 965609, Note_on_c, 0, 60, 0
2, 965609, Note_on_c, 0, 75, 0
2, 966060, Note_on_c, 0, 63, 40
2, 966060, Note_on_c, 0, 69, 43
2, 966060, Note_on_c, 0, 72, 42
2, 966060, Note_on_c, 0, 51, 51
2, 966060, Note_on_c, 0, 57, 53
2, 966060, Note_on_c, 0, 60, 49
2, 966149, Note_on_c, 0, 57, 0
2, 966149, Note_on_c, 0, 51, 0
2, 966149, Note_on_c, 0, 63, 0
2, 966149, Note_on_c, 0, 69, 0
2, 966149, Note_on_c, 0, 60, 0
2, 966149, Note_on_c, 0, 72, 0
2, 966600, Note_on_c, 0, 65, 44
2, 966600, Note_on_c, 0, 71, 43
2, 966600, Note_on_c, 0, 74, 41
2, 966600, Note_on_c, 0, 53, 51
2, 966600, Note_on_c, 0, 59, 50
2, 966600, Note_on_c, 0, 62, 52
2, 966689, Note_on_c, 0, 62, 0
2, 966689, Note_on_c, 0, 65, 0
2, 966689, Note_on_c, 0, 59, 0
2, 966689, Note_on_c, 0, 71, 0
2, 966689, Note_on_c, 0, 53, 0
2, 966689, Note_on_c, 0, 74, 0
2, 967140, Note_on_c, 0, 62, 44
2, 967140, Note_on_c, 0, 65, 43
2, 967140, Note_on_c, 0, 71, 40
2, 967140, Note_on_c, 0, 50, 50
2, 967140, Note_on_c, 0, 53, 51
2, 967140, Note_on_c, 0, 59, 49
2, 967229, Note_on_c, 0, 59, 0
2, 967229, Note_on_c, 0, 62, 0
2, 967229, Note_on_c, 0, 53, 0
2, 967229, Note_on_c, 0, 65, 0
2, 967229, Note_on_c, 0, 50, 0
2, 967229, Note_on_c, 0, 71, 0
2, 967680, Note_on_c, 0, 63, 44
2, 967680, Note_on_c, 0, 67, 41
2, 967680, Note_on_c, 0, 72, 44
2, 967680, Note_on_c, 0, 51, 52
2, 967680, Note_on_c, 0, 55, 51
2, 967680, Note_on_c, 0, 60, 52
2, 967769, Note_on_c, 0, 55, 0
2, 967769, Note_on_c, 0, 51, 0
2, 967769, Note_on_c, 0, 63, 0
2, 967769, Note_on_c, 0, 67, 0
2, 967769, Note_on_c, 0, 60, 0
2, 967769, Note_on_c, 0, 72, 0
2, 968220, Note_on_c, 0, 51, 50
2, 968220, Note_on_c, 0, 55, 50
2, 968220, Note_on_c, 0, 60, 47
2, 968400, Note_on_c, 0, 63, 38
2, 968400, Note_on_c, 0, 72, 39
2, 968545, Note_on_c, 0, 55, 0
2, 968545, Note_on_c, 0, 51, 0
2, 968545, Note_on_c, 0, 60, 0
2, 968563, Note_on_c, 0, 72, 0
2, 968563, Note_on_c, 0, 63, 0
2, 968580, Note_on_c, 0, 67, 43
2, 968580, Note_on_c, 0, 74, 44
2, 968580, Note_on_c, 0, 62, 57
2, 968743, Note_on_c, 0, 62, 0
2, 968743, Note_on_c, 0, 67, 0
2, 968743, Note_on_c, 0, 74, 0
2, 968760, Note_on_c, 0, 55, 57
2, 968760, Note_on_c, 0, 60, 59
2, 968760, Note_on_c, 0, 63, 56
2, 968940, Note_on_c, 0, 72, 38
2, 968940, Note_on_c, 0, 75, 40
2, 969085, Note_on_c, 0, 63, 0
2, 969085, Note_on_c, 0, 60, 0
2, 969085, Note_on_c, 0, 55, 0
2, 969103, Note_on_c, 0, 75, 0
2, 969103, Note_on_c, 0, 72, 0
2, 969120, Note_on_c, 0, 67, 32
2, 969283, Note_on_c, 0, 67, 0
2, 969300, Note_on_c, 0, 56, 50
2, 969300, Note_on_c, 0, 60, 49
2, 969300, Note_on_c, 0, 65, 50
2, 969480, Note_on_c, 0, 72, 40
2, 969480, Note_on_c, 0, 77, 41
2, 969625, Note_on_c, 0, 65, 0
2, 969625, Note_on_c, 0, 60, 0
2, 969625, Note_on_c, 0, 56, 0
2, 969643, Note_on_c, 0, 77, 0
2, 969643, Note_on_c, 0, 72, 0
2, 969660, Note_on_c, 0, 68, 34
2, 969823, Note_on_c, 0, 68, 0
2, 969840, Note_on_c, 0, 56, 49
2, 969840, Note_on_c, 0, 60, 53
2, 969840, Note_on_c, 0, 63, 51
2, 970020, Note_on_c, 0, 72, 38
2, 970020, Note_on_c, 0, 75, 38
2, 970165, Note_on_c, 0, 63, 0
2, 970165, Note_on_c, 0, 60, 0
2, 970165, Note_on_c, 0, 56, 0
2, 970183, Note_on_c, 0, 75, 0
2, 970183, Note_on_c, 0, 72, 0
2, 970200, Note_on_c, 0, 68, 33
2, 970363, Note_on_c, 0, 68, 0
2, 970380, Note_on_c, 0, 57, 46
2, 970380, Note_on_c, 0, 60, 48
2, 970560, Note_on_c, 0, 69, 40
2, 970560, Note_on_c, 0, 72, 41
2, 970705, Note_on_c, 0, 57, 0
2, 970705, Note_on_c, 0, 60, 0
2, 970723, Note_on_c, 0, 69, 0
2, 970723, Note_on_c, 0, 72, 0
2, 970740, Note_on_c, 0, 62, 33
2, 970903, Note_on_c, 0, 62, 0
2, 970920, Note_on_c, 0, 50, 53
2, 970920, Note_on_c, 0, 57, 51
2, 970920, Note_on_c, 0, 60, 50
2, 970920, Note_on_c, 0, 62, 50
2, 971100, Note_on_c, 0, 69, 38
2, 971100, Note_on_c, 0, 72, 38
2, 971100, Note_on_c, 0, 74, 40
2, 971245, Note_on_c, 0, 62, 0
2, 971245, Note_on_c, 0, 50, 0
2, 971245, Note_on_c, 0, 60, 0
2, 971245, Note_on_c, 0, 57, 0
2, 971263, Note_on_c, 0, 69, 0
2, 971263, Note_on_c, 0, 72, 0
2, 971263, Note_on_c, 0, 74, 0
2, 971280, Note_on_c, 0, 62, 34
2, 971443, Note_on_c, 0, 62, 0
2, 971460, Note_on_c, 0, 55, 47
2, 971460, Note_on_c, 0, 59, 46
2, 971640, Note_on_c, 0, 65, 38
2, 971640, Note_on_c, 0, 71, 37
2, 971785, Note_on_c, 0, 59, 0
2, 971785, Note_on_c, 0, 55, 0
2, 971803, Note_on_c, 0, 65, 0
2, 971803, Note_on_c, 0, 71, 0
2, 971820, Note_on_c, 0, 62, 32
2, 971983, Note_on_c, 0, 62, 0
2, 972000, Note_on_c, 0, 48, 53
2, 972000, Note_on_c, 0, 51, 51
2, 972000, Note_on_c, 0, 55, 53
2, 972000, Note_on_c, 0, 60, 50
2, 972180, Note_on_c, 0, 67, 38
2, 972180, Note_on_c, 0, 72, 40
2, 972325, Note_on_c, 0, 55, 0
2, 972325, Note_on_c, 0, 48, 0
2, 972325, Note_on_c, 0, 60, 0
2, 972325, Note_on_c, 0, 51, 0
2, 972343, Note_on_c, 0, 72, 0
2, 972343, Note_on_c, 0, 67, 0
2, 972360, Note_on_c, 0, 63, 33
2, 972523, Note_on_c, 0, 63, 0
2, 972900, Note_on_c, 0, 55, 41
2, 972900, Note_on_c, 0, 43, 50
2, 973063, Note_on_c, 0, 43, 0
2, 973063, Note_on_c, 0, 55, 0
2, 973080, Note_on_c, 0, 48, 59
2, 973080, Note_on_c, 0, 36, 66
2, 975170, Note_on_c, 0, 36, 0
2, 975170, Note_on_c, 0, 48, 0
2, 975240, Note_on_c, 0, 65, 88
2, 975240, Note_on_c, 0, 41, 101
2, 975240, Note_on_c, 0, 53, 100
2, 975727, Note_on_c, 0, 53, 0
2, 975727, Note_on_c, 0, 65, 0
2, 975727, Note_on_c, 0, 41, 0
2, 975780, Note_on_c, 0, 67, 74
2, 975780, Note_on_c, 0, 43, 84
2, 975780, Note_on_c, 0, 55, 83
2, 976267, Note_on_c, 0, 55, 0
2, 976267, Note_on_c, 0, 67, 0
2, 976267, Note_on_c, 0, 43, 0
2, 976320, Note_on_c, 0, 60, 66
2, 976320, Note_on_c, 0, 72, 65
2, 976320, Note_on_c, 0, 36, 60
2, 976320, Note_on_c, 0, 48, 58
2, 977220, Note_on_c, 0, 55, 41
2, 977220, Note_on_c, 0, 43, 46
2, 977330, Note_on_c, 0, 48, 0
2, 977330, Note_on_c, 0, 60, 0
2, 977330, Note_on_c, 0, 36, 0
2, 977330, Note_on_c, 0, 72, 0
2, 977383, Note_on_c, 0, 55, 0
2, 977383, Note_on_c, 0, 43, 0
2, 977400, Note_on_c, 0, 48, 38
2, 977400, Note_on_c, 0, 36, 44
2, 977887, Note_on_c, 0, 36, 0
2, 977887, Note_on_c, 0, 48, 0
2, 977940, Note_on_c, 0, 43, 39
2, 977940, Note_on_c, 0, 31, 50
2, 978103, Note_on_c, 0, 31, 0
2, 978103, Note_on_c, 0, 43, 0
2, 978120, Note_on_c, 0, 44, 43
2, 978120, Note_on_c, 0, 32, 53
2, 978283, Note_on_c, 0, 32, 0
2, 978283, Note_on_c, 0, 44, 0
2, 978300, Note_on_c, 0, 43, 39
2, 978300, Note_on_c, 0, 31, 49
2, 978463, Note_on_c, 0, 31, 0
2, 978463, Note_on_c, 0, 43, 0
2, 978480, Note_on_c, 0, 24, 61
2, 978480, Note_on_c, 0, 36, 61
2, 978643, Note_on_c, 0, 36, 0
2, 978643, Note_on_c, 0, 24, 0
2, 979020, Note_on_c, 0, 51, 61
2, 979020, Note_on_c, 0, 27, 70
2, 979020, Note_on_c, 0, 39, 70
2, 979507, Note_on_c, 0, 39, 0
2, 979507, Note_on_c, 0, 51, 0
2, 979507, Note_on_c, 0, 27, 0
2, 979560, Note_on_c, 0, 53, 75
2, 979560, Note_on_c, 0, 29, 83
2, 979560, Note_on_c, 0, 41, 82
2, 980047, Note_on_c, 0, 41, 0
2, 980047, Note_on_c, 0, 53, 0
2, 980047, Note_on_c, 0, 29, 0
2, 980100, Note_on_c, 0, 55, 73
2, 980100, Note_on_c, 0, 31, 82
2, 980100, Note_on_c, 0, 43, 81
2, 980587, Note_on_c, 0, 43, 0
2, 980587, Note_on_c, 0, 55, 0
2, 980587, Note_on_c, 0, 31, 0
2, 980640, Note_on_c, 0, 48, 35
2, 980640, Note_on_c, 0, 60, 33
2, 980640, Note_on_c, 0, 24, 67
2, 980640, Note_on_c, 0, 36, 68
2, 981180, Note_on_c, 0, 70, 43
2, 981343, Note_on_c, 0, 70, 0
2, 981360, Note_on_c, 0, 68, 41
2, 981523, Note_on_c, 0, 68, 0
2, 981540, Note_on_c, 0, 67, 40
2, 981650, Note_on_c, 0, 36, 0
2, 981650, Note_on_c, 0, 60, 0
2, 981650, Note_on_c, 0, 48, 0
2, 981650, Note_on_c, 0, 24, 0
2, 981703, Note_on_c, 0, 67, 0
2, 981720, Note_on_c, 0, 60, 37
2, 981720, Note_on_c, 0, 60, 45
2, 981720, Note_on_c, 0, 51, 69
2, 981720, Note_on_c, 0, 44, 50
2, 981883, Note_on_c, 0, 60, 0
2, 981900, Note_on_c, 0, 63, 45
2, 982063, Note_on_c, 0, 63, 0
2, 982080, Note_on_c, 0, 72, 51
2, 982243, Note_on_c, 0, 72, 0
2, 982260, Note_on_c, 0, 68, 43
2, 982423, Note_on_c, 0, 68, 0
2, 982440, Note_on_c, 0, 67, 42
2, 982603, Note_on_c, 0, 67, 0
2, 982620, Note_on_c, 0, 65, 42
2, 982730, Note_on_c, 0, 60, 0
2, 982730, Note_on_c, 0, 44, 0
2, 982783, Note_on_c, 0, 65, 0
2, 982800, Note_on_c, 0, 58, 38
2, 982800, Note_on_c, 0, 58, 44
2, 982800, Note_on_c, 0, 43, 51
2, 982963, Note_on_c, 0, 58, 0
2, 982980, Note_on_c, 0, 63, 46
2, 983143, Note_on_c, 0, 63, 0
2, 983160, Note_on_c, 0, 70, 51
2, 983323, Note_on_c, 0, 70, 0
2, 983340, Note_on_c, 0, 67, 43
2, 983503, Note_on_c, 0, 67, 0
2, 983520, Note_on_c, 0, 65, 39
2, 983683, Note_on_c, 0, 65, 0
2, 983700, Note_on_c, 0, 63, 41
2, 983810, Note_on_c, 0, 58, 0
2, 983810, Note_on_c, 0, 51, 0
2, 983810, Note_on_c, 0, 43, 0
2, 983863, Note_on_c, 0, 63, 0
2, 983880, Note_on_c, 0, 56, 38
2, 983880, Note_on_c, 0, 56, 42
2, 983880, Note_on_c, 0, 48, 50
2, 983880, Note_on_c, 0, 41, 52
2, 984043, Note_on_c, 0, 56, 0
2, 984060, Note_on_c, 0, 62, 46
2, 984223, Note_on_c, 0, 62, 0
2, 984240, Note_on_c, 0, 68, 50
2, 984403, Note_on_c, 0, 68, 0
2, 984420, Note_on_c, 0, 65, 44
2, 984583, Note_on_c, 0, 65, 0
2, 984600, Note_on_c, 0, 63, 39
2, 984763, Note_on_c, 0, 63, 0
2, 984780, Note_on_c, 0, 62, 39
2, 984890, Note_on_c, 0, 56, 0
2, 984890, Note_on_c, 0, 41, 0
2, 984943, Note_on_c, 0, 62, 0
2, 984960, Note_on_c, 0, 55, 37
2, 984960, Note_on_c, 0, 55, 42
2, 984960, Note_on_c, 0, 39, 53
2, 985123, Note_on_c, 0, 55, 0
2, 985140, Note_on_c, 0, 60, 46
2, 985303, Note_on_c, 0, 60, 0
2, 985320, Note_on_c, 0, 67, 51
2, 985483, Note_on_c, 0, 67, 0
2, 985500, Note_on_c, 0, 63, 45
2, 985663, Note_on_c, 0, 63, 0
2, 985680, Note_on_c, 0, 62, 38
2, 985843, Note_on_c, 0, 62, 0
2, 985860, Note_on_c, 0, 60, 42
2, 985970, Note_on_c, 0, 39, 0
2, 985970, Note_on_c, 0, 48, 0
2, 985970, Note_on_c, 0, 55, 0
2, 986023, Note_on_c, 0, 60, 0
2, 986040, Note_on_c, 0, 59, 44
2, 986040, Note_on_c, 0, 59, 48
2, 986040, Note_on_c, 0, 38, 44
2, 986203, Note_on_c, 0, 59, 0
2, 986220, Note_on_c, 0, 65, 46
2, 986383, Note_on_c, 0, 65, 0
2, 986400, Note_on_c, 0, 67, 46
2, 986527, Note_on_c, 0, 38, 0
2, 986527, Note_on_c, 0, 59, 0
2, 986563, Note_on_c, 0, 67, 0
2, 986580, Note_on_c, 0, 57, 36
2, 986580, Note_on_c, 0, 57, 42
2, 986580, Note_on_c, 0, 36, 47
2, 986743, Note_on_c, 0, 57, 0
2, 986760, Note_on_c, 0, 63, 48
2, 986923, Note_on_c, 0, 63, 0
2, 986940, Note_on_c, 0, 67, 46
2, 987067, Note_on_c, 0, 36, 0
2, 987067, Note_on_c, 0, 57, 0
2, 987103, Note_on_c, 0, 67, 0
2, 987120, Note_on_c, 0, 65, 44
2, 987120, Note_on_c, 0, 43, 63
2, 987120, Note_on_c, 0, 35, 48
2, 987283, Note_on_c, 0, 65, 0
2, 987300, Note_on_c, 0, 55, 33
2, 987300, Note_on_c, 0, 55, 39
2, 987463, Note_on_c, 0, 55, 0
2, 987480, Note_on_c, 0, 67, 51
2, 987607, Note_on_c, 0, 35, 0
2, 987625, Note_on_c, 0, 55, 0
2, 987643, Note_on_c, 0, 67, 0
2, 987660, Note_on_c, 0, 65, 46
2, 987660, Note_on_c, 0, 38, 56
2, 987823, Note_on_c, 0, 65, 0
2, 987840, Note_on_c, 0, 63, 39
2, 988003, Note_on_c, 0, 63, 0
2, 988020, Note_on_c, 0, 62, 39
2, 988147, Note_on_c, 0, 38, 0
2, 988183, Note_on_c, 0, 62, 0
2, 988200, Note_on_c, 0, 63, 48
2, 988200, Note_on_c, 0, 36, 60
2, 988363, Note_on_c, 0, 63, 0
2, 988380, Note_on_c, 0, 54, 33
2, 988380, Note_on_c, 0, 54, 42
2, 988543, Note_on_c, 0, 54, 0
2, 988560, Note_on_c, 0, 65, 50
2, 988705, Note_on_c, 0, 54, 0
2, 988723, Note_on_c, 0, 65, 0
2, 988740, Note_on_c, 0, 63, 46
2, 988903, Note_on_c, 0, 63, 0
2, 988920, Note_on_c, 0, 62, 39
2, 989083, Note_on_c, 0, 62, 0
2, 989100, Note_on_c, 0, 60, 39
2, 989210, Note_on_c, 0, 43, 0
2, 989263, Note_on_c, 0, 60, 0
2, 989280, Note_on_c, 0, 36, 0
2, 989280, Note_on_c, 0, 59, 47
2, 989280, Note_on_c, 0, 62, 49
2, 989280, Note_on_c, 0, 31, 58
2, 989280, Note_on_c, 0, 43, 56
2, 989443, Note_on_c, 0, 43, 0
2, 989443, Note_on_c, 0, 62, 0
2, 989443, Note_on_c, 0, 59, 0
2, 989443, Note_on_c, 0, 31, 0
2, 989820, Note_on_c, 0, 79, 39
2, 989820, Note_on_c, 0, 91, 37
2, 989820, Note_on_c, 0, 31, 49
2, 989820, Note_on_c, 0, 43, 49
2, 990307, Note_on_c, 0, 43, 0
2, 990307, Note_on_c, 0, 79, 0
2, 990307, Note_on_c, 0, 91, 0
2, 990307, Note_on_c, 0, 31, 0
2, 990360, Note_on_c, 0, 75, 62
2, 990360, Note_on_c, 0, 87, 65
2, 990360, Note_on_c, 0, 27, 59
2, 990360, Note_on_c, 0, 39, 58
2, 990900, Note_on_c, 0, 71, 40
2, 990900, Note_on_c, 0, 75, 38
2, 990900, Note_on_c, 0, 79, 38
2, 990900, Note_on_c, 0, 83, 39
2, 990900, Note_on_c, 0, 51, 47
2, 990900, Note_on_c, 0, 55, 46
2, 990900, Note_on_c, 0, 59, 49
2, 991370, Note_on_c, 0, 39, 0
2, 991370, Note_on_c, 0, 75, 0
2, 991370, Note_on_c, 0, 27, 0
2, 991370, Note_on_c, 0, 87, 0
2, 991387, Note_on_c, 0, 79, 0
2, 991387, Note_on_c, 0, 59, 0
2, 991387, Note_on_c, 0, 75, 0
2, 991387, Note_on_c, 0, 71, 0
2, 991387, Note_on_c, 0, 51, 0
2, 991387, Note_on_c, 0, 83, 0
2, 991387, Note_on_c, 0, 55, 0
2, 991440, Note_on_c, 0, 70, 44
2, 991440, Note_on_c, 0, 75, 46
2, 991440, Note_on_c, 0, 79, 46
2, 991440, Note_on_c, 0, 82, 44
2, 991440, Note_on_c, 0, 49, 76
2, 991440, Note_on_c, 0, 51, 77
2, 991440, Note_on_c, 0, 55, 77
2, 991440, Note_on_c, 0, 58, 76
2, 992450, Note_on_c, 0, 58, 0
2, 992450, Note_on_c, 0, 49, 0
2, 992450, Note_on_c, 0, 55, 0
2, 992450, Note_on_c, 0, 51, 0
2, 992520, Note_on_c, 0, 70, 0
2, 992520, Note_on_c, 0, 75, 0
2, 992520, Note_on_c, 0, 82, 0
2, 992520, Note_on_c, 0, 79, 0
2, 992520, Note_on_c, 0, 68, 49
2, 992520, Note_on_c, 0, 71, 49
2, 992520, Note_on_c, 0, 75, 47
2, 992520, Note_on_c, 0, 80, 50
2, 992520, Note_on_c, 0, 47, 60
2, 992520, Note_on_c, 0, 51, 57
2, 992520, Note_on_c, 0, 56, 57
2, 993600, Note_on_c, 0, 56, 0
2, 993600, Note_on_c, 0, 51, 0
2, 993600, Note_on_c, 0, 80, 0
2, 993600, Note_on_c, 0, 68, 0
2, 993600, Note_on_c, 0, 71, 0
2, 993600, Note_on_c, 0, 47, 0
2, 993600, Note_on_c, 0, 75, 0
2, 993600, Note_on_c, 0, 67, 48
2, 993600, Note_on_c, 0, 70, 49
2, 993600, Note_on_c, 0, 75, 50
2, 993600, Note_on_c, 0, 79, 48
2, 993600, Note_on_c, 0, 46, 68
2, 993600, Note_on_c, 0, 51, 68
2, 993600, Note_on_c, 0, 55, 71
2, 994140, Note_on_c, 0, 75, 39
2, 994140, Note_on_c, 0, 87, 39
2, 994140, Note_on_c, 0, 27, 48
2, 994140, Note_on_c, 0, 39, 50
2, 994610, Note_on_c, 0, 55, 0
2, 994610, Note_on_c, 0, 51, 0
2, 994610, Note_on_c, 0, 46, 0
2, 994627, Note_on_c, 0, 75, 0
2, 994627, Note_on_c, 0, 39, 0
2, 994627, Note_on_c, 0, 87, 0
2, 994627, Note_on_c, 0, 27, 0
2, 994680, Note_on_c, 0, 79, 0
2, 994680, Note_on_c, 0, 67, 0
2, 994680, Note_on_c, 0, 70, 0
2, 994680, Note_on_c, 0, 75, 0
2, 994680, Note_on_c, 0, 72, 79
2, 994680, Note_on_c, 0, 84, 79
2, 994680, Note_on_c, 0, 24, 62
2, 994680, Note_on_c, 0, 36, 64
2, 995220, Note_on_c, 0, 68, 38
2, 995220, Note_on_c, 0, 72, 39
2, 995220, Note_on_c, 0, 75, 41
2, 995220, Note_on_c, 0, 80, 38
2, 995220, Note_on_c, 0, 48, 48
2, 995220, Note_on_c, 0, 51, 49
2, 995220, Note_on_c, 0, 56, 49
2, 995690, Note_on_c, 0, 36, 0
2, 995690, Note_on_c, 0, 72, 0
2, 995690, Note_on_c, 0, 24, 0
2, 995690, Note_on_c, 0, 84, 0
2, 995707, Note_on_c, 0, 75, 0
2, 995707, Note_on_c, 0, 56, 0
2, 995707, Note_on_c, 0, 72, 0
2, 995707, Note_on_c, 0, 68, 0
2, 995707, Note_on_c, 0, 48, 0
2, 995707, Note_on_c, 0, 80, 0
2, 995707, Note_on_c, 0, 51, 0
2, 995760, Note_on_c, 0, 67, 46
2, 995760, Note_on_c, 0, 72, 45
2, 995760, Note_on_c, 0, 75, 47
2, 995760, Note_on_c, 0, 79, 46
2, 995760, Note_on_c, 0, 46, 53
2, 995760, Note_on_c, 0, 48, 55
2, 995760, Note_on_c, 0, 51, 52
2, 995760, Note_on_c, 0, 55, 54
2, 996770, Note_on_c, 0, 55, 0
2, 996770, Note_on_c, 0, 46, 0
2, 996770, Note_on_c, 0, 51, 0
2, 996770, Note_on_c, 0, 48, 0
2, 996840, Note_on_c, 0, 67, 0
2, 996840, Note_on_c, 0, 72, 0
2, 996840, Note_on_c, 0, 79, 0
2, 996840, Note_on_c, 0, 75, 0
2, 996840, Note_on_c, 0, 65, 45
2, 996840, Note_on_c, 0, 68, 44
2, 996840, Note_on_c, 0, 72, 44
2, 996840, Note_on_c, 0, 77, 44
2, 996840, Note_on_c, 0, 44, 52
2, 996840, Note_on_c, 0, 48, 53
2, 996840, Note_on_c, 0, 53, 51
2, 997850, Note_on_c, 0, 53, 0
2, 997850, Note_on_c, 0, 48, 0
2, 997850, Note_on_c, 0, 77, 0
2, 997850, Note_on_c, 0, 65, 0
2, 997850, Note_on_c, 0, 68, 0
2, 997850, Note_on_c, 0, 44, 0
2, 997850, Note_on_c, 0, 72, 0
2, 997920, Note_on_c, 0, 60, 0
2, 997920, Note_on_c, 0, 63, 42
2, 997920, Note_on_c, 0, 67, 42
2, 997920, Note_on_c, 0, 72, 45
2, 997920, Note_on_c, 0, 75, 43
2, 997920, Note_on_c, 0, 43, 54
2, 997920, Note_on_c, 0, 48, 53
2, 997920, Note_on_c, 0, 51, 52
2, 998407, Note_on_c, 0, 51, 0
2, 998407, Note_on_c, 0, 67, 0
2, 998407, Note_on_c, 0, 48, 0
2, 998407, Note_on_c, 0, 72, 0
2, 998407, Note_on_c, 0, 43, 0
2, 998407, Note_on_c, 0, 63, 0
2, 998407, Note_on_c, 0, 75, 0
2, 998460, Note_on_c, 0, 65, 35
2, 998460, Note_on_c, 0, 65, 33
2, 998460, Note_on_c, 0, 49, 50
2, 998460, Note_on_c, 0, 41, 47
2, 998623, Note_on_c, 0, 65, 0
2, 998640, Note_on_c, 0, 58, 32
2, 998703, Note_on_c, 0, 49, 0
2, 998730, Note_on_c, 0, 48, 49
2, 998785, Note_on_c, 0, 65, 0
2, 998803, Note_on_c, 0, 58, 0
2, 998820, Note_on_c, 0, 56, 39
2, 998973, Note_on_c, 0, 48, 0
2, 998983, Note_on_c, 0, 56, 0
2, 999000, Note_on_c, 0, 67, 53
2, 999000, Note_on_c, 0, 67, 44
2, 999000, Note_on_c, 0, 48, 57
2, 999163, Note_on_c, 0, 67, 0
2, 999180, Note_on_c, 0, 60, 39
2, 999325, Note_on_c, 0, 67, 0
2, 999343, Note_on_c, 0, 60, 0
2, 999360, Note_on_c, 0, 58, 41
2, 999487, Note_on_c, 0, 41, 0
2, 999487, Note_on_c, 0, 48, 0
2, 999523, Note_on_c, 0, 58, 0
2, 999540, Note_on_c, 0, 68, 53
2, 999540, Note_on_c, 0, 68, 44
2, 999540, Note_on_c, 0, 49, 59
2, 999540, Note_on_c, 0, 41, 54
2, 999703, Note_on_c, 0, 68, 0
2, 999720, Note_on_c, 0, 60, 36
2, 999783, Note_on_c, 0, 49, 0
2, 999810, Note_on_c, 0, 48, 50
2, 999865, Note_on_c, 0, 68, 0
2, 999883, Note_on_c, 0, 60, 0
2, 999900, Note_on_c, 0, 58, 40
2, 1000053, Note_on_c, 0, 48, 0
2, 1000063, Note_on_c, 0, 58, 0
2, 1000080, Note_on_c, 0, 65, 52
2, 1000080, Note_on_c, 0, 65, 42
2, 1000080, Note_on_c, 0, 48, 57
2, 1000243, Note_on_c, 0, 65, 0
2, 1000260, Note_on_c, 0, 58, 36
2, 1000405, Note_on_c, 0, 65, 0
2, 1000423, Note_on_c, 0, 58, 0
2, 1000440, Note_on_c, 0, 56, 37
2, 1000567, Note_on_c, 0, 41, 0
2, 1000567, Note_on_c, 0, 48, 0
2, 1000603, Note_on_c, 0, 56, 0
2, 1000620, Note_on_c, 0, 68, 57
2, 1000620, Note_on_c, 0, 68, 44
2, 1000620, Note_on_c, 0, 48, 55
2, 1000620, Note_on_c, 0, 41, 52
2, 1000783, Note_on_c, 0, 68, 0
2, 1000800, Note_on_c, 0, 65, 41
2, 1000863, Note_on_c, 0, 48, 0
2, 1000890, Note_on_c, 0, 49, 55
2, 1000945, Note_on_c, 0, 68, 0
2, 1000963, Note_on_c, 0, 65, 0
2, 1000980, Note_on_c, 0, 56, 33
2, 1001133, Note_on_c, 0, 49, 0
2, 1001143, Note_on_c, 0, 56, 0
2, 1001160, Note_on_c, 0, 70, 52
2, 1001160, Note_on_c, 0, 70, 49
2, 1001160, Note_on_c, 0, 48, 56
2, 1001323, Note_on_c, 0, 70, 0
2, 1001340, Note_on_c, 0, 64, 39
2, 1001485, Note_on_c, 0, 70, 0
2, 1001503, Note_on_c, 0, 64, 0
2, 1001520, Note_on_c, 0, 58, 35
2, 1001647, Note_on_c, 0, 41, 0
2, 1001647, Note_on_c, 0, 48, 0
2, 1001683, Note_on_c, 0, 58, 0
2, 1001700, Note_on_c, 0, 72, 55
2, 1001700, Note_on_c, 0, 72, 45
2, 1001700, Note_on_c, 0, 48, 57
2, 1001700, Note_on_c, 0, 41, 53
2, 1001863, Note_on_c, 0, 72, 0
2, 1001880, Note_on_c, 0, 64, 36
2, 1001943, Note_on_c, 0, 48, 0
2, 1001970, Note_on_c, 0, 49, 54
2, 1002025, Note_on_c, 0, 72, 0
2, 1002043, Note_on_c, 0, 64, 0
2, 1002060, Note_on_c, 0, 60, 37
2, 1002213, Note_on_c, 0, 49, 0
2, 1002223, Note_on_c, 0, 60, 0
2, 1002240, Note_on_c, 0, 68, 50
2, 1002240, Note_on_c, 0, 68, 41
2, 1002240, Note_on_c, 0, 41, 53
2, 1002240, Note_on_c, 0, 48, 52
2, 1002403, Note_on_c, 0, 68, 0
2, 1002420, Note_on_c, 0, 65, 40
2, 1002565, Note_on_c, 0, 68, 0
2, 1002565, Note_on_c, 0, 41, 0
2, 1002565, Note_on_c, 0, 48, 0
2, 1002583, Note_on_c, 0, 65, 0
2, 1002600, Note_on_c, 0, 60, 36
2, 1002763, Note_on_c, 0, 60, 0
2, 1002780, Note_on_c, 0, 62, 82
2, 1002780, Note_on_c, 0, 68, 84
2, 1002780, Note_on_c, 0, 72, 83
2, 1002780, Note_on_c, 0, 41, 71
2, 1002780, Note_on_c, 0, 48, 71
2, 1002780, Note_on_c, 0, 56, 69
2, 1003267, Note_on_c, 0, 56, 0
2, 1003267, Note_on_c, 0, 62, 0
2, 1003267, Note_on_c, 0, 48, 0
2, 1003267, Note_on_c, 0, 72, 0
2, 1003267, Note_on_c, 0, 41, 0
2, 1003267, Note_on_c, 0, 68, 0
2, 1003320, Note_on_c, 0, 68, 44
2, 1003320, Note_on_c, 0, 68, 44
2, 1003320, Note_on_c, 0, 50, 46
2, 1003483, Note_on_c, 0, 68, 0
2, 1003500, Note_on_c, 0, 65, 39
2, 1003645, Note_on_c, 0, 68, 0
2, 1003663, Note_on_c, 0, 65, 0
2, 1003680, Note_on_c, 0, 60, 35
2, 1003807, Note_on_c, 0, 50, 0
2, 1003843, Note_on_c, 0, 60, 0
2, 1003860, Note_on_c, 0, 62, 54
2, 1003860, Note_on_c, 0, 68, 50
2, 1003860, Note_on_c, 0, 72, 52
2, 1003860, Note_on_c, 0, 41, 85
2, 1003860, Note_on_c, 0, 48, 86
2, 1003860, Note_on_c, 0, 56, 87
2, 1004347, Note_on_c, 0, 56, 0
2, 1004347, Note_on_c, 0, 62, 0
2, 1004347, Note_on_c, 0, 48, 0
2, 1004347, Note_on_c, 0, 72, 0
2, 1004347, Note_on_c, 0, 41, 0
2, 1004347, Note_on_c, 0, 68, 0
2, 1004400, Note_on_c, 0, 68, 41
2, 1004400, Note_on_c, 0, 68, 48
2, 1004400, Note_on_c, 0, 50, 48
2, 1004563, Note_on_c, 0, 68, 0
2, 1004580, Note_on_c, 0, 65, 38
2, 1004725, Note_on_c, 0, 68, 0
2, 1004743, Note_on_c, 0, 65, 0
2, 1004760, Note_on_c, 0, 60, 37
2, 1004887, Note_on_c, 0, 50, 0
2, 1004923, Note_on_c, 0, 60, 0
2, 1004940, Note_on_c, 0, 62, 51
2, 1004940, Note_on_c, 0, 68, 53
2, 1004940, Note_on_c, 0, 72, 51
2, 1004940, Note_on_c, 0, 41, 88
2, 1004940, Note_on_c, 0, 48, 88
2, 1004940, Note_on_c, 0, 56, 88
2, 1005427, Note_on_c, 0, 56, 0
2, 1005427, Note_on_c, 0, 62, 0
2, 1005427, Note_on_c, 0, 48, 0
2, 1005427, Note_on_c, 0, 72, 0
2, 1005427, Note_on_c, 0, 41, 0
2, 1005427, Note_on_c, 0, 68, 0
2, 1005480, Note_on_c, 0, 68, 42
2, 1005480, Note_on_c, 0, 68, 47
2, 1005480, Note_on_c, 0, 50, 50
2, 1005643, Note_on_c, 0, 68, 0
2, 1005660, Note_on_c, 0, 65, 37
2, 1005805, Note_on_c, 0, 68, 0
2, 1005823, Note_on_c, 0, 65, 0
2, 1005840, Note_on_c, 0, 60, 38
2, 1005967, Note_on_c, 0, 50, 0
2, 1006020, Note_on_c, 0, 68, 52
2, 1006020, Note_on_c, 0, 72, 53
2, 1006020, Note_on_c, 0, 32, 43
2, 1006020, Note_on_c, 0, 39, 43
2, 1006020, Note_on_c, 0, 44, 43
2, 1007047, Note_on_c, 0, 72, 0
2, 1007047, Note_on_c, 0, 60, 0
2, 1007047, Note_on_c, 0, 68, 0
2, 1007100, Note_on_c, 0, 51, 30
2, 1007587, Note_on_c, 0, 51, 0
2, 1007640, Note_on_c, 0, 56, 48
2, 1008127, Note_on_c, 0, 56, 0
2, 1008180, Note_on_c, 0, 60, 46
2, 1009207, Note_on_c, 0, 60, 0
2, 1009260, Note_on_c, 0, 50, 46
2, 1009260, Note_on_c, 0, 62, 44
2, 1009747, Note_on_c, 0, 62, 0
2, 1009747, Note_on_c, 0, 50, 0
2, 1009800, Note_on_c, 0, 51, 47
2, 1009800, Note_on_c, 0, 63, 47
2, 1010287, Note_on_c, 0, 63, 0
2, 1010287, Note_on_c, 0, 51, 0
2, 1010340, Note_on_c, 0, 56, 47
2, 1010340, Note_on_c, 0, 68, 50
2, 1010827, Note_on_c, 0, 68, 0
2, 1010827, Note_on_c, 0, 56, 0
2, 1010880, Note_on_c, 0, 60, 53
2, 1010880, Note_on_c, 0, 72, 49
2, 1011205, Note_on_c, 0, 39, 0
2, 1011205, Note_on_c, 0, 44, 0
2, 1011205, Note_on_c, 0, 32, 0
2, 1011367, Note_on_c, 0, 72, 0
2, 1011367, Note_on_c, 0, 60, 0
2, 1011420, Note_on_c, 0, 62, 47
2, 1011420, Note_on_c, 0, 68, 48
2, 1011420, Note_on_c, 0, 72, 47
2, 1011420, Note_on_c, 0, 74, 46
2, 1011420, Note_on_c, 0, 50, 50
2, 1011420, Note_on_c, 0, 56, 50
2, 1011420, Note_on_c, 0, 60, 47
2, 1011745, Note_on_c, 0, 60, 0
2, 1011745, Note_on_c, 0, 56, 0
2, 1011745, Note_on_c, 0, 74, 0
2, 1011745, Note_on_c, 0, 62, 0
2, 1011745, Note_on_c, 0, 68, 0
2, 1011745, Note_on_c, 0, 50, 0
2, 1011745, Note_on_c, 0, 72, 0
2, 1011960, Note_on_c, 0, 63, 41
2, 1011960, Note_on_c, 0, 68, 44
2, 1011960, Note_on_c, 0, 72, 41
2, 1011960, Note_on_c, 0, 75, 43
2, 1011960, Note_on_c, 0, 51, 53
2, 1011960, Note_on_c, 0, 56, 50
2, 1011960, Note_on_c, 0, 60, 50
2, 1012123, Note_on_c, 0, 60, 0
2, 1012123, Note_on_c, 0, 56, 0
2, 1012123, Note_on_c, 0, 51, 0
2, 1012285, Note_on_c, 0, 63, 0
2, 1012285, Note_on_c, 0, 68, 0
2, 1012285, Note_on_c, 0, 75, 0
2, 1012285, Note_on_c, 0, 72, 0
2, 1012500, Note_on_c, 0, 60, 44
2, 1012500, Note_on_c, 0, 63, 42
2, 1012500, Note_on_c, 0, 68, 41
2, 1012500, Note_on_c, 0, 72, 43
2, 1012500, Note_on_c, 0, 48, 52
2, 1012500, Note_on_c, 0, 51, 53
2, 1012500, Note_on_c, 0, 56, 50
2, 1012663, Note_on_c, 0, 56, 0
2, 1012663, Note_on_c, 0, 51, 0
2, 1012663, Note_on_c, 0, 48, 0
2, 1012825, Note_on_c, 0, 60, 0
2, 1012825, Note_on_c, 0, 63, 0
2, 1012825, Note_on_c, 0, 72, 0
2, 1012825, Note_on_c, 0, 68, 0
2, 1013040, Note_on_c, 0, 60, 40
2, 1013040, Note_on_c, 0, 63, 42
2, 1013040, Note_on_c, 0, 68, 42
2, 1013040, Note_on_c, 0, 44, 49
2, 1013040, Note_on_c, 0, 48, 50
2, 1013040, Note_on_c, 0, 51, 51
2, 1013040, Note_on_c, 0, 56, 49
2, 1013203, Note_on_c, 0, 56, 0
2, 1013203, Note_on_c, 0, 51, 0
2, 1013203, Note_on_c, 0, 44, 0
2, 1013203, Note_on_c, 0, 48, 0
2, 1013365, Note_on_c, 0, 63, 0
2, 1013365, Note_on_c, 0, 60, 0
2, 1013365, Note_on_c, 0, 68, 0
2, 1013580, Note_on_c, 0, 56, 42
2, 1013580, Note_on_c, 0, 60, 44
2, 1013580, Note_on_c, 0, 63, 42
2, 1013580, Note_on_c, 0, 39, 52
2, 1013580, Note_on_c, 0, 44, 53
2, 1013580, Note_on_c, 0, 48, 51
2, 1013580, Note_on_c, 0, 51, 51
2, 1013743, Note_on_c, 0, 51, 0
2, 1013743, Note_on_c, 0, 48, 0
2, 1013743, Note_on_c, 0, 39, 0
2, 1013743, Note_on_c, 0, 44, 0
2, 1013905, Note_on_c, 0, 60, 0
2, 1013905, Note_on_c, 0, 56, 0
2, 1013905, Note_on_c, 0, 63, 0
2, 1014120, Note_on_c, 0, 56, 41
2, 1014120, Note_on_c, 0, 60, 40
2, 1014120, Note_on_c, 0, 65, 41
2, 1014120, Note_on_c, 0, 41, 50
2, 1014120, Note_on_c, 0, 53, 52
2, 1014283, Note_on_c, 0, 53, 0
2, 1014283, Note_on_c, 0, 65, 0
2, 1014283, Note_on_c, 0, 56, 0
2, 1014283, Note_on_c, 0, 41, 0
2, 1014283, Note_on_c, 0, 60, 0
2, 1014660, Note_on_c, 0, 59, 44
2, 1014660, Note_on_c, 0, 65, 41
2, 1014660, Note_on_c, 0, 67, 42
2, 1014660, Note_on_c, 0, 43, 51
2, 1014660, Note_on_c, 0, 55, 52
2, 1014823, Note_on_c, 0, 55, 0
2, 1014823, Note_on_c, 0, 43, 0
2, 1014985, Note_on_c, 0, 65, 0
2, 1014985, Note_on_c, 0, 59, 0
2, 1014985, Note_on_c, 0, 67, 0
2, 1015200, Note_on_c, 0, 60, 78
2, 1015200, Note_on_c, 0, 72, 76
2, 1015200, Note_on_c, 0, 36, 65
2, 1015200, Note_on_c, 0, 48, 65
2, 1015740, Note_on_c, 0, 55, 49
2, 1015740, Note_on_c, 0, 60, 49
2, 1015740, Note_on_c, 0, 63, 49
2, 1015740, Note_on_c, 0, 67, 50
2, 1015920, Note_on_c, 0, 84, 41
2, 1015920, Note_on_c, 0, 87, 38
2, 1015920, Note_on_c, 0, 91, 41
2, 1016065, Note_on_c, 0, 67, 0
2, 1016065, Note_on_c, 0, 63, 0
2, 1016065, Note_on_c, 0, 55, 0
2, 1016065, Note_on_c, 0, 60, 0
2, 1016083, Note_on_c, 0, 91, 0
2, 1016083, Note_on_c, 0, 87, 0
2, 1016083, Note_on_c, 0, 84, 0
2, 1016100, Note_on_c, 0, 79, 31
2, 1016210, Note_on_c, 0, 60, 0
2, 1016210, Note_on_c, 0, 48, 0
2, 1016210, Note_on_c, 0, 36, 0
2, 1016210, Note_on_c, 0, 72, 0
2, 1016263, Note_on_c, 0, 79, 0
2, 1016280, Note_on_c, 0, 56, 51
2, 1016280, Note_on_c, 0, 60, 52
2, 1016280, Note_on_c, 0, 65, 50
2, 1016280, Note_on_c, 0, 68, 51
2, 1016460, Note_on_c, 0, 84, 40
2, 1016460, Note_on_c, 0, 89, 38
2, 1016460, Note_on_c, 0, 92, 39
2, 1016605, Note_on_c, 0, 68, 0
2, 1016605, Note_on_c, 0, 56, 0
2, 1016605, Note_on_c, 0, 65, 0
2, 1016605, Note_on_c, 0, 60, 0
2, 1016623, Note_on_c, 0, 89, 0
2, 1016623, Note_on_c, 0, 84, 0
2, 1016623, Note_on_c, 0, 92, 0
2, 1016640, Note_on_c, 0, 80, 31
2, 1016803, Note_on_c, 0, 80, 0
2, 1016820, Note_on_c, 0, 58, 48
2, 1016820, Note_on_c, 0, 60, 47
2, 1016820, Note_on_c, 0, 67, 48
2, 1016820, Note_on_c, 0, 70, 47
2, 1017000, Note_on_c, 0, 84, 38
2, 1017000, Note_on_c, 0, 91, 39
2, 1017000, Note_on_c, 0, 94, 38
2, 1017145, Note_on_c, 0, 70, 0
2, 1017145, Note_on_c, 0, 58, 0
2, 1017145, Note_on_c, 0, 67, 0
2, 1017145, Note_on_c, 0, 60, 0
2, 1017163, Note_on_c, 0, 91, 0
2, 1017163, Note_on_c, 0, 84, 0
2, 1017163, Note_on_c, 0, 94, 0
2, 1017180, Note_on_c, 0, 82, 30
2, 1017343, Note_on_c, 0, 82, 0
2, 1017360, Note_on_c, 0, 55, 51
2, 1017360, Note_on_c, 0, 60, 52
2, 1017360, Note_on_c, 0, 63, 51
2, 1017360, Note_on_c, 0, 67, 50
2, 1017540, Note_on_c, 0, 84, 38
2, 1017540, Note_on_c, 0, 87, 38
2, 1017540, Note_on_c, 0, 91, 40
2, 1017685, Note_on_c, 0, 67, 0
2, 1017685, Note_on_c, 0, 55, 0
2, 1017685, Note_on_c, 0, 63, 0
2, 1017685, Note_on_c, 0, 60, 0
2, 1017703, Note_on_c, 0, 87, 0
2, 1017703, Note_on_c, 0, 84, 0
2, 1017703, Note_on_c, 0, 91, 0
2, 1017720, Note_on_c, 0, 79, 33
2, 1017883, Note_on_c, 0, 79, 0
2, 1017900, Note_on_c, 0, 55, 46
2, 1017900, Note_on_c, 0, 60, 47
2, 1017900, Note_on_c, 0, 63, 48
2, 1018080, Note_on_c, 0, 79, 40
2, 1018080, Note_on_c, 0, 84, 41
2, 1018080, Note_on_c, 0, 87, 38
2, 1018225, Note_on_c, 0, 63, 0
2, 1018225, Note_on_c, 0, 55, 0
2, 1018225, Note_on_c, 0, 60, 0
2, 1018243, Note_on_c, 0, 84, 0
2, 1018243, Note_on_c, 0, 87, 0
2, 1018243, Note_on_c, 0, 79, 0
2, 1018260, Note_on_c, 0, 75, 33
2, 1018423, Note_on_c, 0, 75, 0
2, 1018440, Note_on_c, 0, 53, 51
2, 1018440, Note_on_c, 0, 56, 53
2, 1018440, Note_on_c, 0, 62, 52
2, 1018620, Note_on_c, 0, 77, 39
2, 1018620, Note_on_c, 0, 80, 37
2, 1018620, Note_on_c, 0, 86, 41
2, 1018765, Note_on_c, 0, 62, 0
2, 1018765, Note_on_c, 0, 53, 0
2, 1018765, Note_on_c, 0, 56, 0
2, 1018783, Note_on_c, 0, 80, 0
2, 1018783, Note_on_c, 0, 86, 0
2, 1018783, Note_on_c, 0, 77, 0
2, 1018800, Note_on_c, 0, 74, 34
2, 1018963, Note_on_c, 0, 74, 0
2, 1018980, Note_on_c, 0, 50, 50
2, 1018980, Note_on_c, 0, 53, 47
2, 1018980, Note_on_c, 0, 59, 46
2, 1019160, Note_on_c, 0, 74, 38
2, 1019160, Note_on_c, 0, 77, 40
2, 1019160, Note_on_c, 0, 83, 39
2, 1019305, Note_on_c, 0, 59, 0
2, 1019305, Note_on_c, 0, 50, 0
2, 1019305, Note_on_c, 0, 53, 0
2, 1019323, Note_on_c, 0, 77, 0
2, 1019323, Note_on_c, 0, 83, 0
2, 1019323, Note_on_c, 0, 74, 0
2, 1019340, Note_on_c, 0, 71, 33
2, 1019503, Note_on_c, 0, 71, 0
2, 1019520, Note_on_c, 0, 51, 50
2, 1019520, Note_on_c, 0, 55, 49
2, 1019520, Note_on_c, 0, 60, 49
2, 1019700, Note_on_c, 0, 75, 37
2, 1019700, Note_on_c, 0, 79, 37
2, 1019700, Note_on_c, 0, 84, 39
2, 1019845, Note_on_c, 0, 60, 0
2, 1019845, Note_on_c, 0, 51, 0
2, 1019845, Note_on_c, 0, 55, 0
2, 1019863, Note_on_c, 0, 79, 0
2, 1019863, Note_on_c, 0, 84, 0
2, 1019863, Note_on_c, 0, 75, 0
2, 1019880, Note_on_c, 0, 72, 33
2, 1020043, Note_on_c, 0, 72, 0
2, 1020060, Note_on_c, 0, 43, 47
2, 1020060, Note_on_c, 0, 48, 46
2, 1020060, Note_on_c, 0, 51, 47
2, 1020060, Note_on_c, 0, 55, 48
2, 1020240, Note_on_c, 0, 72, 39
2, 1020240, Note_on_c, 0, 75, 40
2, 1020240, Note_on_c, 0, 79, 37
2, 1020385, Note_on_c, 0, 55, 0
2, 1020385, Note_on_c, 0, 43, 0
2, 1020385, Note_on_c, 0, 51, 0
2, 1020385, Note_on_c, 0, 48, 0
2, 1020403, Note_on_c, 0, 75, 0
2, 1020403, Note_on_c, 0, 72, 0
2, 1020403, Note_on_c, 0, 79, 0
2, 1020420, Note_on_c, 0, 67, 34
2, 1020583, Note_on_c, 0, 67, 0
2, 1020600, Note_on_c, 0, 44, 49
2, 1020600, Note_on_c, 0, 48, 52
2, 1020600, Note_on_c, 0, 53, 50
2, 1020600, Note_on_c, 0, 56, 53
2, 1020780, Note_on_c, 0, 72, 37
2, 1020780, Note_on_c, 0, 77, 40
2, 1020780, Note_on_c, 0, 80, 41
2, 1020925, Note_on_c, 0, 56, 0
2, 1020925, Note_on_c, 0, 44, 0
2, 1020925, Note_on_c, 0, 53, 0
2, 1020925, Note_on_c, 0, 48, 0
2, 1020943, Note_on_c, 0, 77, 0
2, 1020943, Note_on_c, 0, 72, 0
2, 1020943, Note_on_c, 0, 80, 0
2, 1020960, Note_on_c, 0, 68, 33
2, 1021123, Note_on_c, 0, 68, 0
2, 1021140, Note_on_c, 0, 46, 50
2, 1021140, Note_on_c, 0, 48, 50
2, 1021140, Note_on_c, 0, 55, 47
2, 1021140, Note_on_c, 0, 58, 47
2, 1021320, Note_on_c, 0, 72, 39
2, 1021320, Note_on_c, 0, 79, 37
2, 1021320, Note_on_c, 0, 82, 41
2, 1021465, Note_on_c, 0, 58, 0
2, 1021465, Note_on_c, 0, 46, 0
2, 1021465, Note_on_c, 0, 55, 0
2, 1021465, Note_on_c, 0, 48, 0
2, 1021483, Note_on_c, 0, 79, 0
2, 1021483, Note_on_c, 0, 72, 0
2, 1021483, Note_on_c, 0, 82, 0
2, 1021500, Note_on_c, 0, 70, 31
2, 1021663, Note_on_c, 0, 70, 0
2, 1021680, Note_on_c, 0, 43, 52
2, 1021680, Note_on_c, 0, 48, 51
2, 1021680, Note_on_c, 0, 51, 51
2, 1021680, Note_on_c, 0, 55, 49
2, 1021860, Note_on_c, 0, 72, 40
2, 1021860, Note_on_c, 0, 75, 39
2, 1021860, Note_on_c, 0, 79, 40
2, 1022005, Note_on_c, 0, 55, 0
2, 1022005, Note_on_c, 0, 43, 0
2, 1022005, Note_on_c, 0, 51, 0
2, 1022005, Note_on_c, 0, 48, 0
2, 1022023, Note_on_c, 0, 75, 0
2, 1022023, Note_on_c, 0, 72, 0
2, 1022023, Note_on_c, 0, 79, 0
2, 1022040, Note_on_c, 0, 67, 31
2, 1022203, Note_on_c, 0, 67, 0
2, 1022220, Note_on_c, 0, 43, 49
2, 1022220, Note_on_c, 0, 48, 48
2, 1022220, Note_on_c, 0, 51, 47
2, 1022400, Note_on_c, 0, 67, 38
2, 1022400, Note_on_c, 0, 72, 39
2, 1022400, Note_on_c, 0, 75, 40
2, 1022545, Note_on_c, 0, 51, 0
2, 1022545, Note_on_c, 0, 43, 0
2, 1022545, Note_on_c, 0, 48, 0
2, 1022563, Note_on_c, 0, 72, 0
2, 1022563, Note_on_c, 0, 75, 0
2, 1022563, Note_on_c, 0, 67, 0
2, 1022580, Note_on_c, 0, 63, 30
2, 1022743, Note_on_c, 0, 63, 0
2, 1022760, Note_on_c, 0, 48, 51
2, 1022760, Note_on_c, 0, 53, 50
2, 1022760, Note_on_c, 0, 56, 50
2, 1022940, Note_on_c, 0, 65, 39
2, 1022940, Note_on_c, 0, 68, 39
2, 1022940, Note_on_c, 0, 74, 39
2, 1023085, Note_on_c, 0, 56, 0
2, 1023085, Note_on_c, 0, 48, 0
2, 1023085, Note_on_c, 0, 53, 0
2, 1023103, Note_on_c, 0, 68, 0
2, 1023103, Note_on_c, 0, 74, 0
2, 1023103, Note_on_c, 0, 65, 0
2, 1023120, Note_on_c, 0, 62, 31
2, 1023283, Note_on_c, 0, 62, 0
2, 1023300, Note_on_c, 0, 50, 48
2, 1023300, Note_on_c, 0, 53, 49
2, 1023300, Note_on_c, 0, 55, 48
2, 1023480, Note_on_c, 0, 62, 37
2, 1023480, Note_on_c, 0, 65, 37
2, 1023480, Note_on_c, 0, 71, 38
2, 1023625, Note_on_c, 0, 55, 0
2, 1023625, Note_on_c, 0, 50, 0
2, 1023625, Note_on_c, 0, 53, 0
2, 1023643, Note_on_c, 0, 65, 0
2, 1023643, Note_on_c, 0, 71, 0
2, 1023643, Note_on_c, 0, 62, 0
2, 1023660, Note_on_c, 0, 59, 30
2, 1023823, Note_on_c, 0, 59, 0
2, 1023840, Note_on_c, 0, 48, 51
2, 1023840, Note_on_c, 0, 51, 50
2, 1023840, Note_on_c, 0, 55, 51
2, 1024020, Note_on_c, 0, 63, 40
2, 1024020, Note_on_c, 0, 67, 37
2, 1024020, Note_on_c, 0, 72, 39
2, 1024165, Note_on_c, 0, 55, 0
2, 1024165, Note_on_c, 0, 48, 0
2, 1024165, Note_on_c, 0, 51, 0
2, 1024183, Note_on_c, 0, 67, 0
2, 1024183, Note_on_c, 0, 72, 0
2, 1024183, Note_on_c, 0, 63, 0
2, 1024200, Note_on_c, 0, 60, 32
2, 1024363, Note_on_c, 0, 60, 0
2, 1024380, Note_on_c, 0, 34, 48
2, 1024380, Note_on_c, 0, 46, 49
2, 1024557, Note_on_c, 0, 46, 0
2, 1024557, Note_on_c, 0, 34, 0
2, 1024740, Note_on_c, 0, 48, 39
2, 1024740, Note_on_c, 0, 51, 40
2, 1024740, Note_on_c, 0, 60, 39
2, 1024903, Note_on_c, 0, 60, 0
2, 1024903, Note_on_c, 0, 48, 0
2, 1024903, Note_on_c, 0, 51, 0
2, 1024920, Note_on_c, 0, 32, 51
2, 1024920, Note_on_c, 0, 44, 52
2, 1025097, Note_on_c, 0, 44, 0
2, 1025097, Note_on_c, 0, 32, 0
2, 1025280, Note_on_c, 0, 48, 40
2, 1025280, Note_on_c, 0, 51, 38
2, 1025280, Note_on_c, 0, 60, 40
2, 1025443, Note_on_c, 0, 60, 0
2, 1025443, Note_on_c, 0, 48, 0
2, 1025443, Note_on_c, 0, 51, 0
2, 1025460, Note_on_c, 0, 31, 69
2, 1025460, Note_on_c, 0, 43, 69
2, 1025637, Note_on_c, 0, 43, 0
2, 1025637, Note_on_c, 0, 31, 0
2, 1026000, Note_on_c, 0, 36, 52
2, 1026177, Note_on_c, 0, 36, 0
2, 1026360, Note_on_c, 0, 48, 40
2, 1026360, Note_on_c, 0, 51, 38
2, 1026360, Note_on_c, 0, 60, 41
2, 1026523, Note_on_c, 0, 60, 0
2, 1026523, Note_on_c, 0, 48, 0
2, 1026523, Note_on_c, 0, 51, 0
2, 1026540, Note_on_c, 0, 34, 48
2, 1026540, Note_on_c, 0, 46, 48
2, 1026717, Note_on_c, 0, 46, 0
2, 1026717, Note_on_c, 0, 34, 0
2, 1026900, Note_on_c, 0, 48, 38
2, 1026900, Note_on_c, 0, 51, 37
2, 1026900, Note_on_c, 0, 60, 40
2, 1027063, Note_on_c, 0, 60, 0
2, 1027063, Note_on_c, 0, 48, 0
2, 1027063, Note_on_c, 0, 51, 0
2, 1027080, Note_on_c, 0, 32, 51
2, 1027080, Note_on_c, 0, 44, 52
2, 1027257, Note_on_c, 0, 44, 0
2, 1027257, Note_on_c, 0, 32, 0
2, 1027440, Note_on_c, 0, 48, 38
2, 1027440, Note_on_c, 0, 51, 40
2, 1027440, Note_on_c, 0, 60, 39
2, 1027603, Note_on_c, 0, 60, 0
2, 1027603, Note_on_c, 0, 48, 0
2, 1027603, Note_on_c, 0, 51, 0
2, 1027620, Note_on_c, 0, 31, 70
2, 1027620, Note_on_c, 0, 43, 72
2, 1027945, Note_on_c, 0, 43, 0
2, 1027945, Note_on_c, 0, 31, 0
2, 1028160, Note_on_c, 0, 36, 53
2, 1028337, Note_on_c, 0, 36, 0
2, 1028700, Note_on_c, 0, 55, 38
2, 1028700, Note_on_c, 0, 60, 38
2, 1028700, Note_on_c, 0, 63, 40
2, 1028700, Note_on_c, 0, 36, 48
2, 1028700, Note_on_c, 0, 48, 49
2, 1028877, Note_on_c, 0, 48, 0
2, 1028877, Note_on_c, 0, 36, 0
2, 1028877, Note_on_c, 0, 60, 0
2, 1028877, Note_on_c, 0, 55, 0
2, 1028877, Note_on_c, 0, 63, 0
2, 1029240, Note_on_c, 0, 53, 41
2, 1029240, Note_on_c, 0, 60, 42
2, 1029240, Note_on_c, 0, 63, 41
2, 1029240, Note_on_c, 0, 65, 43
2, 1029240, Note_on_c, 0, 33, 49
2, 1029240, Note_on_c, 0, 45, 51
2, 1029417, Note_on_c, 0, 45, 0
2, 1029417, Note_on_c, 0, 53, 0
2, 1029417, Note_on_c, 0, 33, 0
2, 1029417, Note_on_c, 0, 60, 0
2, 1029417, Note_on_c, 0, 65, 0
2, 1029417, Note_on_c, 0, 63, 0
2, 1029780, Note_on_c, 0, 55, 38
2, 1029780, Note_on_c, 0, 60, 37
2, 1029780, Note_on_c, 0, 63, 37
2, 1029780, Note_on_c, 0, 36, 49
2, 1029780, Note_on_c, 0, 48, 48
2, 1029957, Note_on_c, 0, 48, 0
2, 1029957, Note_on_c, 0, 36, 0
2, 1030267, Note_on_c, 0, 60, 0
2, 1030267, Note_on_c, 0, 55, 0
2, 1030267, Note_on_c, 0, 63, 0
2, 1030320, Note_on_c, 0, 53, 45
2, 1030320, Note_on_c, 0, 60, 47
2, 1030320, Note_on_c, 0, 63, 47
2, 1030320, Note_on_c, 0, 65, 46
2, 1030320, Note_on_c, 0, 32, 51
2, 1030320, Note_on_c, 0, 44, 51
2, 1030497, Note_on_c, 0, 44, 0
2, 1030497, Note_on_c, 0, 53, 0
2, 1030497, Note_on_c, 0, 32, 0
2, 1030497, Note_on_c, 0, 60, 0
2, 1030497, Note_on_c, 0, 65, 0
2, 1030497, Note_on_c, 0, 63, 0
2, 1030860, Note_on_c, 0, 59, 39
2, 1030860, Note_on_c, 0, 65, 39
2, 1030860, Note_on_c, 0, 67, 40
2, 1030860, Note_on_c, 0, 31, 46
2, 1030860, Note_on_c, 0, 43, 48
2, 1031037, Note_on_c, 0, 43, 0
2, 1031037, Note_on_c, 0, 31, 0
2, 1031037, Note_on_c, 0, 65, 0
2, 1031037, Note_on_c, 0, 59, 0
2, 1031037, Note_on_c, 0, 67, 0
2, 1031400, Note_on_c, 0, 60, 40
2, 1031400, Note_on_c, 0, 63, 42
2, 1031400, Note_on_c, 0, 72, 42
2, 1031400, Note_on_c, 0, 36, 52
2, 1031400, Note_on_c, 0, 48, 50
2, 1031577, Note_on_c, 0, 48, 0
2, 1031577, Note_on_c, 0, 36, 0
2, 1031725, Note_on_c, 0, 63, 0
2, 1031725, Note_on_c, 0, 60, 0
2, 1031725, Note_on_c, 0, 72, 0
2, 1032480, Note_on_c, 0, 55, 42
2, 1032480, Note_on_c, 0, 31, 71
2, 1032480, Note_on_c, 0, 43, 75
2, 1033490, Note_on_c, 0, 43, 0
2, 1033490, Note_on_c, 0, 55, 0
2, 1033490, Note_on_c, 0, 31, 0
2, 1033560, Note_on_c, 0, 62, 85
2, 1033560, Note_on_c, 0, 65, 85
2, 1033560, Note_on_c, 0, 67, 87
2, 1033560, Note_on_c, 0, 71, 86
2, 1033560, Note_on_c, 0, 50, 97
2, 1033560, Note_on_c, 0, 53, 101
2, 1033560, Note_on_c, 0, 55, 100
2, 1033560, Note_on_c, 0, 59, 99
2, 1033885, Note_on_c, 0, 59, 0
2, 1033885, Note_on_c, 0, 50, 0
2, 1033885, Note_on_c, 0, 55, 0
2, 1033885, Note_on_c, 0, 71, 0
2, 1033885, Note_on_c, 0, 62, 0
2, 1033885, Note_on_c, 0, 65, 0
2, 1033885, Note_on_c, 0, 53, 0
2, 1033885, Note_on_c, 0, 67, 0
2, 1033920, Note_on_c, 0, 63, 71
2, 1033920, Note_on_c, 0, 66, 73
2, 1033920, Note_on_c, 0, 69, 75
2, 1033920, Note_on_c, 0, 72, 75
2, 1033920, Note_on_c, 0, 51, 85
2, 1033920, Note_on_c, 0, 54, 84
2, 1033920, Note_on_c, 0, 57, 85
2, 1033920, Note_on_c, 0, 60, 86
2, 1034263, Note_on_c, 0, 60, 0
2, 1034263, Note_on_c, 0, 51, 0
2, 1034263, Note_on_c, 0, 57, 0
2, 1034263, Note_on_c, 0, 72, 0
2, 1034263, Note_on_c, 0, 63, 0
2, 1034263, Note_on_c, 0, 66, 0
2, 1034263, Note_on_c, 0, 54, 0
2, 1034263, Note_on_c, 0, 69, 0
2, 1034280, Note_on_c, 0, 64, 71
2, 1034280, Note_on_c, 0, 67, 70
2, 1034280, Note_on_c, 0, 70, 70
2, 1034280, Note_on_c, 0, 73, 69
2, 1034280, Note_on_c, 0, 52, 81
2, 1034280, Note_on_c, 0, 55, 79
2, 1034280, Note_on_c, 0, 58, 80
2, 1034280, Note_on_c, 0, 61, 82
2, 1034605, Note_on_c, 0, 61, 0
2, 1034605, Note_on_c, 0, 52, 0
2, 1034605, Note_on_c, 0, 58, 0
2, 1034605, Note_on_c, 0, 73, 0
2, 1034605, Note_on_c, 0, 64, 0
2, 1034605, Note_on_c, 0, 67, 0
2, 1034605, Note_on_c, 0, 55, 0
2, 1034605, Note_on_c, 0, 70, 0
2, 1034640, Note_on_c, 0, 65, 46
2, 1034640, Note_on_c, 0, 67, 49
2, 1034640, Note_on_c, 0, 71, 46
2, 1034640, Note_on_c, 0, 74, 50
2, 1034640, Note_on_c, 0, 53, 58
2, 1034640, Note_on_c, 0, 55, 58
2, 1034640, Note_on_c, 0, 59, 58
2, 1034640, Note_on_c, 0, 62, 57
2, 1036730, Note_on_c, 0, 62, 0
2, 1036730, Note_on_c, 0, 53, 0
2, 1036730, Note_on_c, 0, 59, 0
2, 1036730, Note_on_c, 0, 74, 0
2, 1036730, Note_on_c, 0, 65, 0
2, 1036730, Note_on_c, 0, 67, 0
2, 1036730, Note_on_c, 0, 55, 0
2, 1036730, Note_on_c, 0, 71, 0
2, 1036800, Note_on_c, 0, 31, 42
2, 1036800, Note_on_c, 0, 43, 43
2, 1036977, Note_on_c, 0, 43, 0
2, 1036977, Note_on_c, 0, 31, 0
2, 1037160, Note_on_c, 0, 50, 39
2, 1037160, Note_on_c, 0, 53, 41
2, 1037160, Note_on_c, 0, 55, 40
2, 1037160, Note_on_c, 0, 59, 38
2, 1037337, Note_on_c, 0, 59, 0
2, 1037337, Note_on_c, 0, 53, 0
2, 1037337, Note_on_c, 0, 50, 0
2, 1037337, Note_on_c, 0, 55, 0
2, 1037520, Note_on_c, 0, 50, 41
2, 1037520, Note_on_c, 0, 53, 41
2, 1037520, Note_on_c, 0, 55, 44
2, 1037520, Note_on_c, 0, 59, 42
2, 1037697, Note_on_c, 0, 59, 0
2, 1037697, Note_on_c, 0, 53, 0
2, 1037697, Note_on_c, 0, 50, 0
2, 1037697, Note_on_c, 0, 55, 0
2, 1037880, Note_on_c, 0, 53, 48
2, 1037880, Note_on_c, 0, 53, 46
2, 1037880, Note_on_c, 0, 57, 46
2, 1037880, Note_on_c, 0, 60, 49
2, 1038057, Note_on_c, 0, 60, 0
2, 1038057, Note_on_c, 0, 53, 0
2, 1038057, Note_on_c, 0, 53, 0
2, 1038057, Note_on_c, 0, 57, 0
2, 1038240, Note_on_c, 0, 31, 49
2, 1038240, Note_on_c, 0, 43, 48
2, 1038417, Note_on_c, 0, 43, 0
2, 1038417, Note_on_c, 0, 31, 0
2, 1038600, Note_on_c, 0, 31, 52
2, 1038600, Note_on_c, 0, 43, 53
2, 1038777, Note_on_c, 0, 43, 0
2, 1038777, Note_on_c, 0, 31, 0
2, 1038960, Note_on_c, 0, 52, 41
2, 1038960, Note_on_c, 0, 55, 41
2, 1038960, Note_on_c, 0, 58, 41
2, 1038960, Note_on_c, 0, 61, 40
2, 1039137, Note_on_c, 0, 61, 0
2, 1039137, Note_on_c, 0, 55, 0
2, 1039137, Note_on_c, 0, 52, 0
2, 1039137, Note_on_c, 0, 58, 0
2, 1039320, Note_on_c, 0, 31, 48
2, 1039320, Note_on_c, 0, 43, 50
2, 1039497, Note_on_c, 0, 43, 0
2, 1039497, Note_on_c, 0, 31, 0
2, 1039680, Note_on_c, 0, 31, 52
2, 1039680, Note_on_c, 0, 43, 51
2, 1039857, Note_on_c, 0, 43, 0
2, 1039857, Note_on_c, 0, 31, 0
2, 1040040, Note_on_c, 0, 53, 41
2, 1040040, Note_on_c, 0, 55, 42
2, 1040040, Note_on_c, 0, 59, 43
2, 1040040, Note_on_c, 0, 62, 43
2, 1040217, Note_on_c, 0, 62, 0
2, 1040217, Note_on_c, 0, 55, 0
2, 1040217, Note_on_c, 0, 53, 0
2, 1040217, Note_on_c, 0, 59, 0
2, 1040400, Note_on_c, 0, 31, 47
2, 1040400, Note_on_c, 0, 43, 46
2, 1040577, Note_on_c, 0, 43, 0
2, 1040577, Note_on_c, 0, 31, 0
2, 1040760, Note_on_c, 0, 31, 53
2, 1040760, Note_on_c, 0, 43, 53
2, 1040937, Note_on_c, 0, 43, 0
2, 1040937, Note_on_c, 0, 31, 0
2, 1041120, Note_on_c, 0, 46, 101
2, 1041120, Note_on_c, 0, 58, 102
2, 1041120, Note_on_c, 0, 22, 45
2, 1041120, Note_on_c, 0, 34, 45
2, 1042130, Note_on_c, 0, 34, 0
2, 1042130, Note_on_c, 0, 58, 0
2, 1042130, Note_on_c, 0, 46, 0
2, 1042130, Note_on_c, 0, 22, 0
2, 1042200, Note_on_c, 0, 65, 64
2, 1042200, Note_on_c, 0, 68, 66
2, 1042200, Note_on_c, 0, 70, 63
2, 1042200, Note_on_c, 0, 74, 66
2, 1042200, Note_on_c, 0, 53, 90
2, 1042200, Note_on_c, 0, 56, 92
2, 1042200, Note_on_c, 0, 58, 93
2, 1042200, Note_on_c, 0, 62, 91
2, 1042525, Note_on_c, 0, 62, 0
2, 1042525, Note_on_c, 0, 53, 0
2, 1042525, Note_on_c, 0, 58, 0
2, 1042525, Note_on_c, 0, 74, 0
2, 1042525, Note_on_c, 0, 65, 0
2, 1042525, Note_on_c, 0, 68, 0
2, 1042525, Note_on_c, 0, 56, 0
2, 1042525, Note_on_c, 0, 70, 0
2, 1042560, Note_on_c, 0, 66, 67
2, 1042560, Note_on_c, 0, 69, 68
2, 1042560, Note_on_c, 0, 72, 70
2, 1042560, Note_on_c, 0, 75, 67
2, 1042560, Note_on_c, 0, 54, 83
2, 1042560, Note_on_c, 0, 57, 83
2, 1042560, Note_on_c, 0, 60, 84
2, 1042560, Note_on_c, 0, 63, 83
2, 1042903, Note_on_c, 0, 63, 0
2, 1042903, Note_on_c, 0, 54, 0
2, 1042903, Note_on_c, 0, 60, 0
2, 1042903, Note_on_c, 0, 75, 0
2, 1042903, Note_on_c, 0, 66, 0
2, 1042903, Note_on_c, 0, 69, 0
2, 1042903, Note_on_c, 0, 57, 0
2, 1042903, Note_on_c, 0, 72, 0
2, 1042920, Note_on_c, 0, 67, 70
2, 1042920, Note_on_c, 0, 70, 69
2, 1042920, Note_on_c, 0, 73, 69
2, 1042920, Note_on_c, 0, 76, 68
2, 1042920, Note_on_c, 0, 55, 83
2, 1042920, Note_on_c, 0, 58, 79
2, 1042920, Note_on_c, 0, 61, 80
2, 1042920, Note_on_c, 0, 64, 83
2, 1043245, Note_on_c, 0, 64, 0
2, 1043245, Note_on_c, 0, 55, 0
2, 1043245, Note_on_c, 0, 61, 0
2, 1043245, Note_on_c, 0, 76, 0
2, 1043245, Note_on_c, 0, 67, 0
2, 1043245, Note_on_c, 0, 70, 0
2, 1043245, Note_on_c, 0, 58, 0
2, 1043245, Note_on_c, 0, 73, 0
2, 1043280, Note_on_c, 0, 68, 72
2, 1043280, Note_on_c, 0, 70, 73
2, 1043280, Note_on_c, 0, 74, 75
2, 1043280, Note_on_c, 0, 77, 72
2, 1043280, Note_on_c, 0, 56, 85
2, 1043280, Note_on_c, 0, 58, 82
2, 1043280, Note_on_c, 0, 62, 85
2, 1043280, Note_on_c, 0, 65, 82
2, 1045370, Note_on_c, 0, 65, 0
2, 1045370, Note_on_c, 0, 56, 0
2, 1045370, Note_on_c, 0, 62, 0
2, 1045370, Note_on_c, 0, 77, 0
2, 1045370, Note_on_c, 0, 68, 0
2, 1045370, Note_on_c, 0, 70, 0
2, 1045370, Note_on_c, 0, 58, 0
2, 1045370, Note_on_c, 0, 74, 0
2, 1045440, Note_on_c, 0, 34, 43
2, 1045440, Note_on_c, 0, 46, 40
2, 1045617, Note_on_c, 0, 46, 0
2, 1045617, Note_on_c, 0, 34, 0
2, 1045800, Note_on_c, 0, 53, 39
2, 1045800, Note_on_c, 0, 56, 40
2, 1045800, Note_on_c, 0, 58, 40
2, 1045800, Note_on_c, 0, 62, 38
2, 1045977, Note_on_c, 0, 62, 0
2, 1045977, Note_on_c, 0, 56, 0
2, 1045977, Note_on_c, 0, 53, 0
2, 1045977, Note_on_c, 0, 58, 0
2, 1046160, Note_on_c, 0, 53, 42
2, 1046160, Note_on_c, 0, 56, 40
2, 1046160, Note_on_c, 0, 58, 41
2, 1046160, Note_on_c, 0, 62, 41
2, 1046337, Note_on_c, 0, 62, 0
2, 1046337, Note_on_c, 0, 56, 0
2, 1046337, Note_on_c, 0, 53, 0
2, 1046337, Note_on_c, 0, 58, 0
2, 1046520, Note_on_c, 0, 54, 47
2, 1046520, Note_on_c, 0, 57, 48
2, 1046520, Note_on_c, 0, 60, 46
2, 1046520, Note_on_c, 0, 63, 48
2, 1046697, Note_on_c, 0, 63, 0
2, 1046697, Note_on_c, 0, 57, 0
2, 1046697, Note_on_c, 0, 54, 0
2, 1046697, Note_on_c, 0, 60, 0
2, 1046880, Note_on_c, 0, 34, 47
2, 1046880, Note_on_c, 0, 46, 50
2, 1047057, Note_on_c, 0, 46, 0
2, 1047057, Note_on_c, 0, 34, 0
2, 1047240, Note_on_c, 0, 34, 53
2, 1047240, Note_on_c, 0, 46, 51
2, 1047417, Note_on_c, 0, 46, 0
2, 1047417, Note_on_c, 0, 34, 0
2, 1047600, Note_on_c, 0, 55, 41
2, 1047600, Note_on_c, 0, 58, 40
2, 1047600, Note_on_c, 0, 61, 41
2, 1047600, Note_on_c, 0, 64, 41
2, 1047777, Note_on_c, 0, 64, 0
2, 1047777, Note_on_c, 0, 58, 0
2, 1047777, Note_on_c, 0, 55, 0
2, 1047777, Note_on_c, 0, 61, 0
2, 1047960, Note_on_c, 0, 34, 49
2, 1047960, Note_on_c, 0, 46, 48
2, 1048137, Note_on_c, 0, 46, 0
2, 1048137, Note_on_c, 0, 34, 0
2, 1048320, Note_on_c, 0, 34, 51
2, 1048320, Note_on_c, 0, 46, 53
2, 1048497, Note_on_c, 0, 46, 0
2, 1048497, Note_on_c, 0, 34, 0
2, 1048680, Note_on_c, 0, 56, 42
2, 1048680, Note_on_c, 0, 58, 41
2, 1048680, Note_on_c, 0, 62, 42
2, 1048680, Note_on_c, 0, 65, 43
2, 1048857, Note_on_c, 0, 65, 0
2, 1048857, Note_on_c, 0, 58, 0
2, 1048857, Note_on_c, 0, 56, 0
2, 1048857, Note_on_c, 0, 62, 0
2, 1049040, Note_on_c, 0, 34, 47
2, 1049040, Note_on_c, 0, 46, 47
2, 1049217, Note_on_c, 0, 46, 0
2, 1049217, Note_on_c, 0, 34, 0
2, 1049400, Note_on_c, 0, 34, 53
2, 1049400, Note_on_c, 0, 46, 52
2, 1049577, Note_on_c, 0, 46, 0
2, 1049577, Note_on_c, 0, 34, 0
2, 1049760, Note_on_c, 0, 66, 64
2, 1049760, Note_on_c, 0, 70, 64
2, 1049760, Note_on_c, 0, 75, 65
2, 1049760, Note_on_c, 0, 78, 64
2, 1049760, Note_on_c, 0, 51, 99
2, 1049760, Note_on_c, 0, 54, 101
2, 1049760, Note_on_c, 0, 58, 101
2, 1049760, Note_on_c, 0, 63, 101
2, 1050770, Note_on_c, 0, 63, 0
2, 1050770, Note_on_c, 0, 51, 0
2, 1050770, Note_on_c, 0, 58, 0
2, 1050770, Note_on_c, 0, 78, 0
2, 1050770, Note_on_c, 0, 66, 0
2, 1050770, Note_on_c, 0, 70, 0
2, 1050770, Note_on_c, 0, 54, 0
2, 1050770, Note_on_c, 0, 75, 0
2, 1050840, Note_on_c, 0, 65, 65
2, 1050840, Note_on_c, 0, 70, 67
2, 1050840, Note_on_c, 0, 73, 68
2, 1050840, Note_on_c, 0, 77, 66
2, 1050840, Note_on_c, 0, 46, 80
2, 1050840, Note_on_c, 0, 53, 77
2, 1050840, Note_on_c, 0, 61, 80
2, 1051850, Note_on_c, 0, 61, 0
2, 1051850, Note_on_c, 0, 53, 0
2, 1051850, Note_on_c, 0, 77, 0
2, 1051850, Note_on_c, 0, 65, 0
2, 1051850, Note_on_c, 0, 70, 0
2, 1051850, Note_on_c, 0, 46, 0
2, 1051850, Note_on_c, 0, 73, 0
2, 1051920, Note_on_c, 0, 64, 69
2, 1051920, Note_on_c, 0, 68, 66
2, 1051920, Note_on_c, 0, 73, 66
2, 1051920, Note_on_c, 0, 76, 65
2, 1051920, Note_on_c, 0, 49, 81
2, 1051920, Note_on_c, 0, 52, 81
2, 1051920, Note_on_c, 0, 56, 82
2, 1051920, Note_on_c, 0, 61, 81
2, 1052930, Note_on_c, 0, 61, 0
2, 1052930, Note_on_c, 0, 49, 0
2, 1052930, Note_on_c, 0, 56, 0
2, 1052930, Note_on_c, 0, 76, 0
2, 1052930, Note_on_c, 0, 64, 0
2, 1052930, Note_on_c, 0, 68, 0
2, 1052930, Note_on_c, 0, 52, 0
2, 1052930, Note_on_c, 0, 73, 0
2, 1053000, Note_on_c, 0, 63, 69
2, 1053000, Note_on_c, 0, 68, 69
2, 1053000, Note_on_c, 0, 75, 65
2, 1053000, Note_on_c, 0, 44, 78
2, 1053000, Note_on_c, 0, 51, 74
2, 1053000, Note_on_c, 0, 59, 78
2, 1054567, Note_on_c, 0, 59, 0
2, 1054567, Note_on_c, 0, 63, 0
2, 1054567, Note_on_c, 0, 51, 0
2, 1054567, Note_on_c, 0, 68, 0
2, 1054567, Note_on_c, 0, 44, 0
2, 1054567, Note_on_c, 0, 75, 0
2, 1054620, Note_on_c, 0, 62, 64
2, 1054620, Note_on_c, 0, 66, 66
2, 1054620, Note_on_c, 0, 71, 66
2, 1054620, Note_on_c, 0, 74, 64
2, 1054620, Note_on_c, 0, 47, 78
2, 1054620, Note_on_c, 0, 50, 77
2, 1054620, Note_on_c, 0, 54, 79
2, 1054620, Note_on_c, 0, 59, 79
2, 1055647, Note_on_c, 0, 59, 0
2, 1055647, Note_on_c, 0, 47, 0
2, 1055647, Note_on_c, 0, 54, 0
2, 1055647, Note_on_c, 0, 74, 0
2, 1055647, Note_on_c, 0, 62, 0
2, 1055647, Note_on_c, 0, 66, 0
2, 1055647, Note_on_c, 0, 50, 0
2, 1055647, Note_on_c, 0, 71, 0
2, 1055700, Note_on_c, 0, 61, 64
2, 1055700, Note_on_c, 0, 66, 65
2, 1055700, Note_on_c, 0, 70, 64
2, 1055700, Note_on_c, 0, 73, 66
2, 1055700, Note_on_c, 0, 42, 75
2, 1055700, Note_on_c, 0, 49, 74
2, 1055700, Note_on_c, 0, 58, 75
2, 1055877, Note_on_c, 0, 58, 0
2, 1055877, Note_on_c, 0, 49, 0
2, 1055877, Note_on_c, 0, 73, 0
2, 1055877, Note_on_c, 0, 61, 0
2, 1055877, Note_on_c, 0, 66, 0
2, 1055877, Note_on_c, 0, 42, 0
2, 1055877, Note_on_c, 0, 70, 0
2, 1056240, Note_on_c, 0, 60, 67
2, 1056240, Note_on_c, 0, 66, 69
2, 1056240, Note_on_c, 0, 70, 69
2, 1056240, Note_on_c, 0, 72, 71
2, 1056240, Note_on_c, 0, 39, 81
2, 1056240, Note_on_c, 0, 48, 80
2, 1056240, Note_on_c, 0, 54, 79
2, 1057807, Note_on_c, 0, 54, 0
2, 1057807, Note_on_c, 0, 48, 0
2, 1057807, Note_on_c, 0, 72, 0
2, 1057807, Note_on_c, 0, 60, 0
2, 1057807, Note_on_c, 0, 66, 0
2, 1057807, Note_on_c, 0, 39, 0
2, 1057807, Note_on_c, 0, 70, 0
2, 1057860, Note_on_c, 0, 61, 68
2, 1057860, Note_on_c, 0, 66, 69
2, 1057860, Note_on_c, 0, 70, 71
2, 1057860, Note_on_c, 0, 73, 71
2, 1057860, Note_on_c, 0, 42, 84
2, 1057860, Note_on_c, 0, 49, 84
2, 1057860, Note_on_c, 0, 58, 85
2, 1058037, Note_on_c, 0, 58, 0
2, 1058037, Note_on_c, 0, 49, 0
2, 1058037, Note_on_c, 0, 73, 0
2, 1058037, Note_on_c, 0, 61, 0
2, 1058037, Note_on_c, 0, 66, 0
2, 1058037, Note_on_c, 0, 42, 0
2, 1058037, Note_on_c, 0, 70, 0
2, 1058400, Note_on_c, 0, 60, 68
2, 1058400, Note_on_c, 0, 66, 71
2, 1058400, Note_on_c, 0, 70, 67
2, 1058400, Note_on_c, 0, 72, 68
2, 1058400, Note_on_c, 0, 39, 81
2, 1058400, Note_on_c, 0, 48, 80
2, 1058400, Note_on_c, 0, 54, 81
2, 1059480, Note_on_c, 0, 54, 0
2, 1059480, Note_on_c, 0, 48, 0
2, 1059480, Note_on_c, 0, 72, 0
2, 1059480, Note_on_c, 0, 60, 0
2, 1059480, Note_on_c, 0, 66, 0
2, 1059480, Note_on_c, 0, 39, 0
2, 1059480, Note_on_c, 0, 70, 0
2, 1059480, Note_on_c, 0, 59, 50
2, 1059480, Note_on_c, 0, 62, 51
2, 1059480, Note_on_c, 0, 66, 51
2, 1059480, Note_on_c, 0, 71, 47
2, 1059480, Note_on_c, 0, 38, 62
2, 1059480, Note_on_c, 0, 47, 63
2, 1059480, Note_on_c, 0, 54, 63
2, 1060560, Note_on_c, 0, 54, 0
2, 1060560, Note_on_c, 0, 47, 0
2, 1060560, Note_on_c, 0, 71, 0
2, 1060560, Note_on_c, 0, 59, 0
2, 1060560, Note_on_c, 0, 62, 0
2, 1060560, Note_on_c, 0, 38, 0
2, 1060560, Note_on_c, 0, 66, 0
2, 1060560, Note_on_c, 0, 58, 50
2, 1060560, Note_on_c, 0, 63, 51
2, 1060560, Note_on_c, 0, 66, 50
2, 1060560, Note_on_c, 0, 70, 47
2, 1060560, Note_on_c, 0, 39, 61
2, 1060560, Note_on_c, 0, 46, 60
2, 1060560, Note_on_c, 0, 54, 62
2, 1062127, Note_on_c, 0, 54, 0
2, 1062127, Note_on_c, 0, 46, 0
2, 1062127, Note_on_c, 0, 70, 0
2, 1062127, Note_on_c, 0, 58, 0
2, 1062127, Note_on_c, 0, 63, 0
2, 1062127, Note_on_c, 0, 39, 0
2, 1062127, Note_on_c, 0, 66, 0
2, 1062180, Note_on_c, 0, 65, 39
2, 1062343, Note_on_c, 0, 65, 0
2, 1062360, Note_on_c, 0, 70, 45
2, 1062523, Note_on_c, 0, 70, 0
2, 1062540, Note_on_c, 0, 65, 39
2, 1062703, Note_on_c, 0, 65, 0
2, 1062720, Note_on_c, 0, 63, 43
2, 1062883, Note_on_c, 0, 63, 0
2, 1063080, Note_on_c, 0, 63, 40
2, 1063243, Note_on_c, 0, 63, 0
2, 1063260, Note_on_c, 0, 65, 46
2, 1063423, Note_on_c, 0, 65, 0
2, 1063440, Note_on_c, 0, 70, 47
2, 1063603, Note_on_c, 0, 70, 0
2, 1063620, Note_on_c, 0, 65, 38
2, 1063783, Note_on_c, 0, 65, 0
2, 1063800, Note_on_c, 0, 63, 42
2, 1063963, Note_on_c, 0, 63, 0
2, 1064160, Note_on_c, 0, 63, 38
2, 1064323, Note_on_c, 0, 63, 0
2, 1064340, Note_on_c, 0, 64, 49
2, 1064503, Note_on_c, 0, 64, 0
2, 1064520, Note_on_c, 0, 70, 48
2, 1064683, Note_on_c, 0, 70, 0
2, 1064700, Note_on_c, 0, 64, 36
2, 1064863, Note_on_c, 0, 64, 0
2, 1064880, Note_on_c, 0, 59, 80
2, 1064880, Note_on_c, 0, 63, 78
2, 1064880, Note_on_c, 0, 68, 81
2, 1064880, Note_on_c, 0, 71, 79
2, 1064880, Note_on_c, 0, 44, 74
2, 1064880, Note_on_c, 0, 51, 74
2, 1064880, Note_on_c, 0, 56, 73
2, 1065890, Note_on_c, 0, 56, 0
2, 1065890, Note_on_c, 0, 51, 0
2, 1065890, Note_on_c, 0, 71, 0
2, 1065890, Note_on_c, 0, 59, 0
2, 1065890, Note_on_c, 0, 63, 0
2, 1065890, Note_on_c, 0, 44, 0
2, 1065890, Note_on_c, 0, 68, 0
2, 1065960, Note_on_c, 0, 58, 70
2, 1065960, Note_on_c, 0, 63, 71
2, 1065960, Note_on_c, 0, 66, 68
2, 1065960, Note_on_c, 0, 70, 67
2, 1065960, Note_on_c, 0, 39, 74
2, 1065960, Note_on_c, 0, 46, 73
2, 1065960, Note_on_c, 0, 54, 75
2, 1066970, Note_on_c, 0, 54, 0
2, 1066970, Note_on_c, 0, 46, 0
2, 1066970, Note_on_c, 0, 70, 0
2, 1066970, Note_on_c, 0, 58, 0
2, 1066970, Note_on_c, 0, 63, 0
2, 1066970, Note_on_c, 0, 39, 0
2, 1066970, Note_on_c, 0, 66, 0
2, 1067040, Note_on_c, 0, 57, 66
2, 1067040, Note_on_c, 0, 61, 68
2, 1067040, Note_on_c, 0, 66, 68
2, 1067040, Note_on_c, 0, 69, 67
2, 1067040, Note_on_c, 0, 42, 79
2, 1067040, Note_on_c, 0, 49, 80
2, 1067040, Note_on_c, 0, 54, 80
2, 1068050, Note_on_c, 0, 54, 0
2, 1068050, Note_on_c, 0, 49, 0
2, 1068050, Note_on_c, 0, 69, 0
2, 1068050, Note_on_c, 0, 57, 0
2, 1068050, Note_on_c, 0, 61, 0
2, 1068050, Note_on_c, 0, 42, 0
2, 1068050, Note_on_c, 0, 66, 0
2, 1068120, Note_on_c, 0, 56, 66
2, 1068120, Note_on_c, 0, 61, 69
2, 1068120, Note_on_c, 0, 68, 65
2, 1068120, Note_on_c, 0, 37, 75
2, 1068120, Note_on_c, 0, 44, 75
2, 1068120, Note_on_c, 0, 52, 75
2, 1069687, Note_on_c, 0, 52, 0
2, 1069687, Note_on_c, 0, 56, 0
2, 1069687, Note_on_c, 0, 44, 0
2, 1069687, Note_on_c, 0, 61, 0
2, 1069687, Note_on_c, 0, 37, 0
2, 1069687, Note_on_c, 0, 68, 0
2, 1069740, Note_on_c, 0, 55, 65
2, 1069740, Note_on_c, 0, 59, 67
2, 1069740, Note_on_c, 0, 64, 67
2, 1069740, Note_on_c, 0, 67, 65
2, 1069740, Note_on_c, 0, 40, 77
2, 1069740, Note_on_c, 0, 47, 78
2, 1069740, Note_on_c, 0, 52, 79
2, 1070767, Note_on_c, 0, 52, 0
2, 1070767, Note_on_c, 0, 47, 0
2, 1070767, Note_on_c, 0, 67, 0
2, 1070767, Note_on_c, 0, 55, 0
2, 1070767, Note_on_c, 0, 59, 0
2, 1070767, Note_on_c, 0, 40, 0
2, 1070767, Note_on_c, 0, 64, 0
2, 1070820, Note_on_c, 0, 54, 66
2, 1070820, Note_on_c, 0, 59, 65
2, 1070820, Note_on_c, 0, 63, 65
2, 1070820, Note_on_c, 0, 66, 67
2, 1070820, Note_on_c, 0, 35, 73
2, 1070820, Note_on_c, 0, 42, 74
2, 1070820, Note_on_c, 0, 51, 74
2, 1070997, Note_on_c, 0, 51, 0
2, 1070997, Note_on_c, 0, 42, 0
2, 1070997, Note_on_c, 0, 66, 0
2, 1070997, Note_on_c, 0, 54, 0
2, 1070997, Note_on_c, 0, 59, 0
2, 1070997, Note_on_c, 0, 35, 0
2, 1070997, Note_on_c, 0, 63, 0
2, 1071360, Note_on_c, 0, 53, 67
2, 1071360, Note_on_c, 0, 59, 71
2, 1071360, Note_on_c, 0, 63, 70
2, 1071360, Note_on_c, 0, 65, 69
2, 1071360, Note_on_c, 0, 32, 78
2, 1071360, Note_on_c, 0, 39, 80
2, 1071360, Note_on_c, 0, 47, 78
2, 1072927, Note_on_c, 0, 47, 0
2, 1072927, Note_on_c, 0, 39, 0
2, 1072927, Note_on_c, 0, 65, 0
2, 1072927, Note_on_c, 0, 53, 0
2, 1072927, Note_on_c, 0, 59, 0
2, 1072927, Note_on_c, 0, 32, 0
2, 1072927, Note_on_c, 0, 63, 0
2, 1072980, Note_on_c, 0, 54, 69
2, 1072980, Note_on_c, 0, 59, 70
2, 1072980, Note_on_c, 0, 63, 68
2, 1072980, Note_on_c, 0, 66, 72
2, 1072980, Note_on_c, 0, 35, 86
2, 1072980, Note_on_c, 0, 42, 84
2, 1072980, Note_on_c, 0, 51, 83
2, 1073157, Note_on_c, 0, 51, 0
2, 1073157, Note_on_c, 0, 42, 0
2, 1073157, Note_on_c, 0, 66, 0
2, 1073157, Note_on_c, 0, 54, 0
2, 1073157, Note_on_c, 0, 59, 0
2, 1073157, Note_on_c, 0, 35, 0
2, 1073157, Note_on_c, 0, 63, 0
2, 1073520, Note_on_c, 0, 53, 69
2, 1073520, Note_on_c, 0, 59, 69
2, 1073520, Note_on_c, 0, 63, 71
2, 1073520, Note_on_c, 0, 65, 69
2, 1073520, Note_on_c, 0, 32, 78
2, 1073520, Note_on_c, 0, 39, 79
2, 1073520, Note_on_c, 0, 47, 80
2, 1074600, Note_on_c, 0, 47, 0
2, 1074600, Note_on_c, 0, 39, 0
2, 1074600, Note_on_c, 0, 65, 0
2, 1074600, Note_on_c, 0, 53, 0
2, 1074600, Note_on_c, 0, 59, 0
2, 1074600, Note_on_c, 0, 32, 0
2, 1074600, Note_on_c, 0, 63, 0
2, 1074600, Note_on_c, 0, 52, 71
2, 1074600, Note_on_c, 0, 55, 72
2, 1074600, Note_on_c, 0, 59, 73
2, 1074600, Note_on_c, 0, 64, 71
2, 1074600, Note_on_c, 0, 31, 86
2, 1074600, Note_on_c, 0, 40, 86
2, 1074600, Note_on_c, 0, 47, 85
2, 1075680, Note_on_c, 0, 47, 0
2, 1075680, Note_on_c, 0, 40, 0
2, 1075680, Note_on_c, 0, 64, 0
2, 1075680, Note_on_c, 0, 52, 0
2, 1075680, Note_on_c, 0, 55, 0
2, 1075680, Note_on_c, 0, 31, 0
2, 1075680, Note_on_c, 0, 59, 0
2, 1075680, Note_on_c, 0, 51, 47
2, 1075680, Note_on_c, 0, 56, 47
2, 1075680, Note_on_c, 0, 59, 47
2, 1075680, Note_on_c, 0, 63, 50
2, 1075680, Note_on_c, 0, 32, 64
2, 1075680, Note_on_c, 0, 39, 62
2, 1075680, Note_on_c, 0, 47, 64
2, 1077247, Note_on_c, 0, 47, 0
2, 1077247, Note_on_c, 0, 39, 0
2, 1077247, Note_on_c, 0, 63, 0
2, 1077247, Note_on_c, 0, 51, 0
2, 1077247, Note_on_c, 0, 56, 0
2, 1077247, Note_on_c, 0, 32, 0
2, 1077247, Note_on_c, 0, 59, 0
2, 1077300, Note_on_c, 0, 58, 39
2, 1077463, Note_on_c, 0, 58, 0
2, 1077480, Note_on_c, 0, 63, 46
2, 1077643, Note_on_c, 0, 63, 0
2, 1077660, Note_on_c, 0, 58, 40
2, 1077823, Note_on_c, 0, 58, 0
2, 1077840, Note_on_c, 0, 56, 44
2, 1078003, Note_on_c, 0, 56, 0
2, 1078200, Note_on_c, 0, 56, 38
2, 1078363, Note_on_c, 0, 56, 0
2, 1078380, Note_on_c, 0, 58, 47
2, 1078543, Note_on_c, 0, 58, 0
2, 1078560, Note_on_c, 0, 63, 49
2, 1078723, Note_on_c, 0, 63, 0
2, 1078740, Note_on_c, 0, 58, 38
2, 1078903, Note_on_c, 0, 58, 0
2, 1078920, Note_on_c, 0, 56, 42
2, 1079083, Note_on_c, 0, 56, 0
2, 1079280, Note_on_c, 0, 68, 40
2, 1079443, Note_on_c, 0, 68, 0
2, 1079460, Note_on_c, 0, 70, 48
2, 1079623, Note_on_c, 0, 70, 0
2, 1079640, Note_on_c, 0, 71, 44
2, 1079803, Note_on_c, 0, 71, 0
2, 1079820, Note_on_c, 0, 68, 41
2, 1079983, Note_on_c, 0, 68, 0
2, 1080000, Note_on_c, 0, 70, 53
2, 1080000, Note_on_c, 0, 58, 56
2, 1080180, Note_on_c, 0, 70, 0
2, 1080180, Note_on_c, 0, 71, 46
2, 1080343, Note_on_c, 0, 71, 0
2, 1080360, Note_on_c, 0, 70, 40
2, 1080523, Note_on_c, 0, 70, 0
2, 1080540, Note_on_c, 0, 71, 48
2, 1080703, Note_on_c, 0, 71, 0
2, 1080720, Note_on_c, 0, 70, 40
2, 1080883, Note_on_c, 0, 70, 0
2, 1080900, Note_on_c, 0, 71, 45
2, 1081063, Note_on_c, 0, 71, 0
2, 1081080, Note_on_c, 0, 70, 44
2, 1081243, Note_on_c, 0, 70, 0
2, 1081260, Note_on_c, 0, 71, 44
2, 1081423, Note_on_c, 0, 71, 0
2, 1081440, Note_on_c, 0, 68, 40
2, 1081567, Note_on_c, 0, 58, 0
2, 1081603, Note_on_c, 0, 68, 0
2, 1081620, Note_on_c, 0, 70, 47
2, 1081620, Note_on_c, 0, 56, 52
2, 1081783, Note_on_c, 0, 70, 0
2, 1081800, Note_on_c, 0, 71, 47
2, 1081963, Note_on_c, 0, 71, 0
2, 1081980, Note_on_c, 0, 74, 45
2, 1082107, Note_on_c, 0, 56, 0
2, 1082143, Note_on_c, 0, 74, 0
2, 1082160, Note_on_c, 0, 70, 46
2, 1082160, Note_on_c, 0, 58, 64
2, 1082340, Note_on_c, 0, 70, 0
2, 1082340, Note_on_c, 0, 71, 44
2, 1082503, Note_on_c, 0, 71, 0
2, 1082520, Note_on_c, 0, 70, 43
2, 1082683, Note_on_c, 0, 70, 0
2, 1082700, Note_on_c, 0, 71, 48
2, 1082863, Note_on_c, 0, 71, 0
2, 1082880, Note_on_c, 0, 70, 39
2, 1083043, Note_on_c, 0, 70, 0
2, 1083060, Note_on_c, 0, 71, 44
2, 1083223, Note_on_c, 0, 71, 0
2, 1083240, Note_on_c, 0, 70, 43
2, 1083403, Note_on_c, 0, 70, 0
2, 1083420, Note_on_c, 0, 71, 43
2, 1083583, Note_on_c, 0, 71, 0
2, 1083600, Note_on_c, 0, 68, 41
2, 1083727, Note_on_c, 0, 58, 0
2, 1083763, Note_on_c, 0, 68, 0
2, 1083780, Note_on_c, 0, 70, 47
2, 1083780, Note_on_c, 0, 56, 50
2, 1083943, Note_on_c, 0, 70, 0
2, 1083960, Note_on_c, 0, 71, 45
2, 1084123, Note_on_c, 0, 71, 0
2, 1084140, Note_on_c, 0, 75, 47
2, 1084267, Note_on_c, 0, 56, 0
2, 1084303, Note_on_c, 0, 75, 0
2, 1084320, Note_on_c, 0, 70, 46
2, 1084320, Note_on_c, 0, 58, 65
2, 1084500, Note_on_c, 0, 70, 0
2, 1084500, Note_on_c, 0, 71, 42
2, 1084663, Note_on_c, 0, 71, 0
2, 1084680, Note_on_c, 0, 70, 40
2, 1084843, Note_on_c, 0, 70, 0
2, 1084860, Note_on_c, 0, 71, 46
2, 1085023, Note_on_c, 0, 71, 0
2, 1085040, Note_on_c, 0, 70, 39
2, 1085203, Note_on_c, 0, 70, 0
2, 1085220, Note_on_c, 0, 71, 42
2, 1085383, Note_on_c, 0, 71, 0
2, 1085400, Note_on_c, 0, 70, 45
2, 1085563, Note_on_c, 0, 70, 0
2, 1085580, Note_on_c, 0, 71, 44
2, 1085743, Note_on_c, 0, 71, 0
2, 1085760, Note_on_c, 0, 68, 38
2, 1085887, Note_on_c, 0, 58, 0
2, 1085923, Note_on_c, 0, 68, 0
2, 1085940, Note_on_c, 0, 70, 45
2, 1085940, Note_on_c, 0, 56, 48
2, 1086103, Note_on_c, 0, 70, 0
2, 1086120, Note_on_c, 0, 71, 45
2, 1086283, Note_on_c, 0, 71, 0
2, 1086300, Note_on_c, 0, 74, 47
2, 1086427, Note_on_c, 0, 56, 0
2, 1086463, Note_on_c, 0, 74, 0
2, 1086480, Note_on_c, 0, 70, 47
2, 1086480, Note_on_c, 0, 58, 66
2, 1086660, Note_on_c, 0, 70, 0
2, 1086660, Note_on_c, 0, 71, 45
2, 1086823, Note_on_c, 0, 71, 0
2, 1086840, Note_on_c, 0, 70, 40
2, 1087003, Note_on_c, 0, 70, 0
2, 1087020, Note_on_c, 0, 71, 48
2, 1087183, Note_on_c, 0, 71, 0
2, 1087200, Note_on_c, 0, 70, 40
2, 1087363, Note_on_c, 0, 70, 0
2, 1087380, Note_on_c, 0, 71, 45
2, 1087543, Note_on_c, 0, 71, 0
2, 1087560, Note_on_c, 0, 70, 44
2, 1087723, Note_on_c, 0, 70, 0
2, 1087740, Note_on_c, 0, 71, 43
2, 1087903, Note_on_c, 0, 71, 0
2, 1087920, Note_on_c, 0, 68, 40
2, 1088047, Note_on_c, 0, 58, 0
2, 1088083, Note_on_c, 0, 68, 0
2, 1088100, Note_on_c, 0, 70, 49
2, 1088100, Note_on_c, 0, 56, 50
2, 1088263, Note_on_c, 0, 70, 0
2, 1088280, Note_on_c, 0, 71, 43
2, 1088443, Note_on_c, 0, 71, 0
2, 1088460, Note_on_c, 0, 75, 49
2, 1088587, Note_on_c, 0, 56, 0
2, 1088623, Note_on_c, 0, 75, 0
2, 1088640, Note_on_c, 0, 70, 39
2, 1088640, Note_on_c, 0, 58, 64
2, 1088803, Note_on_c, 0, 70, 0
2, 1088820, Note_on_c, 0, 71, 42
2, 1088983, Note_on_c, 0, 71, 0
2, 1089000, Note_on_c, 0, 70, 40
2, 1089163, Note_on_c, 0, 70, 0
2, 1089180, Note_on_c, 0, 71, 45
2, 1089343, Note_on_c, 0, 71, 0
2, 1089360, Note_on_c, 0, 70, 39
2, 1089523, Note_on_c, 0, 70, 0
2, 1089540, Note_on_c, 0, 71, 45
2, 1089703, Note_on_c, 0, 71, 0
2, 1089720, Note_on_c, 0, 70, 45
2, 1089883, Note_on_c, 0, 70, 0
2, 1089900, Note_on_c, 0, 71, 44
2, 1090063, Note_on_c, 0, 71, 0
2, 1090080, Note_on_c, 0, 70, 42
2, 1090243, Note_on_c, 0, 70, 0
2, 1090260, Note_on_c, 0, 71, 48
2, 1090423, Note_on_c, 0, 71, 0
2, 1090440, Note_on_c, 0, 70, 41
2, 1090603, Note_on_c, 0, 70, 0
2, 1090620, Note_on_c, 0, 71, 43
2, 1090783, Note_on_c, 0, 71, 0
2, 1090800, Note_on_c, 0, 70, 44
2, 1090963, Note_on_c, 0, 70, 0
2, 1090980, Note_on_c, 0, 71, 42
2, 1091143, Note_on_c, 0, 71, 0
2, 1091160, Note_on_c, 0, 70, 42
2, 1091323, Note_on_c, 0, 70, 0
2, 1091340, Note_on_c, 0, 71, 48
2, 1091503, Note_on_c, 0, 71, 0
2, 1091520, Note_on_c, 0, 70, 39
2, 1091683, Note_on_c, 0, 70, 0
2, 1091700, Note_on_c, 0, 71, 43
2, 1091863, Note_on_c, 0, 71, 0
2, 1091880, Note_on_c, 0, 70, 44
2, 1092043, Note_on_c, 0, 70, 0
2, 1092060, Note_on_c, 0, 71, 43
2, 1092223, Note_on_c, 0, 71, 0
2, 1092240, Note_on_c, 0, 70, 42
2, 1092403, Note_on_c, 0, 70, 0
2, 1092420, Note_on_c, 0, 71, 46
2, 1092583, Note_on_c, 0, 71, 0
2, 1092600, Note_on_c, 0, 70, 43
2, 1092763, Note_on_c, 0, 70, 0
2, 1092780, Note_on_c, 0, 71, 42
2, 1092890, Note_on_c, 0, 58, 0
2, 1092943, Note_on_c, 0, 71, 0
2, 1092960, Note_on_c, 0, 70, 43
2, 1093123, Note_on_c, 0, 70, 0
2, 1093140, Note_on_c, 0, 71, 43
2, 1093303, Note_on_c, 0, 71, 0
2, 1093320, Note_on_c, 0, 70, 40
2, 1093483, Note_on_c, 0, 70, 0
2, 1093500, Note_on_c, 0, 73, 49
2, 1093663, Note_on_c, 0, 73, 0
2, 1093680, Note_on_c, 0, 71, 38
2, 1093843, Note_on_c, 0, 71, 0
2, 1093860, Note_on_c, 0, 70, 41
2, 1094023, Note_on_c, 0, 70, 0
2, 1094040, Note_on_c, 0, 70, 43
2, 1094203, Note_on_c, 0, 70, 0
2, 1094220, Note_on_c, 0, 70, 44
2, 1094383, Note_on_c, 0, 70, 0
2, 1094400, Note_on_c, 0, 70, 44
2, 1094563, Note_on_c, 0, 70, 0
2, 1094580, Note_on_c, 0, 70, 46
2, 1094743, Note_on_c, 0, 70, 0
2, 1094760, Note_on_c, 0, 70, 42
2, 1094923, Note_on_c, 0, 70, 0
2, 1094940, Note_on_c, 0, 70, 45
2, 1095103, Note_on_c, 0, 70, 0
2, 1095120, Note_on_c, 0, 70, 45
2, 1095283, Note_on_c, 0, 70, 0
2, 1095300, Note_on_c, 0, 71, 43
2, 1095463, Note_on_c, 0, 71, 0
2, 1095480, Note_on_c, 0, 70, 41
2, 1095643, Note_on_c, 0, 70, 0
2, 1095660, Note_on_c, 0, 68, 44
2, 1095823, Note_on_c, 0, 68, 0
2, 1095840, Note_on_c, 0, 70, 45
2, 1096003, Note_on_c, 0, 70, 0
2, 1096020, Note_on_c, 0, 68, 42
2, 1096183, Note_on_c, 0, 68, 0
2, 1096200, Note_on_c, 0, 71, 47
2, 1096363, Note_on_c, 0, 71, 0
2, 1096380, Note_on_c, 0, 70, 43
2, 1096543, Note_on_c, 0, 70, 0
2, 1096560, Note_on_c, 0, 68, 40
2, 1096723, Note_on_c, 0, 68, 0
2, 1096740, Note_on_c, 0, 68, 43
2, 1096903, Note_on_c, 0, 68, 0
2, 1096920, Note_on_c, 0, 68, 44
2, 1097083, Note_on_c, 0, 68, 0
2, 1097100, Note_on_c, 0, 68, 43
2, 1097263, Note_on_c, 0, 68, 0
2, 1097280, Note_on_c, 0, 68, 46
2, 1097443, Note_on_c, 0, 68, 0
2, 1097460, Note_on_c, 0, 70, 47
2, 1097623, Note_on_c, 0, 70, 0
2, 1097640, Note_on_c, 0, 68, 39
2, 1097803, Note_on_c, 0, 68, 0
2, 1097820, Note_on_c, 0, 66, 42
2, 1097983, Note_on_c, 0, 66, 0
2, 1098000, Note_on_c, 0, 68, 46
2, 1098163, Note_on_c, 0, 68, 0
2, 1098180, Note_on_c, 0, 66, 41
2, 1098343, Note_on_c, 0, 66, 0
2, 1098360, Note_on_c, 0, 70, 49
2, 1098523, Note_on_c, 0, 70, 0
2, 1098540, Note_on_c, 0, 68, 40
2, 1098703, Note_on_c, 0, 68, 0
2, 1098720, Note_on_c, 0, 66, 40
2, 1098883, Note_on_c, 0, 66, 0
2, 1098900, Note_on_c, 0, 66, 41
2, 1099063, Note_on_c, 0, 66, 0
2, 1099080, Note_on_c, 0, 66, 41
2, 1099243, Note_on_c, 0, 66, 0
2, 1099260, Note_on_c, 0, 68, 45
2, 1099423, Note_on_c, 0, 68, 0
2, 1099440, Note_on_c, 0, 70, 48
2, 1099603, Note_on_c, 0, 70, 0
2, 1099620, Note_on_c, 0, 68, 40
2, 1099783, Note_on_c, 0, 68, 0
2, 1099800, Note_on_c, 0, 66, 40
2, 1099963, Note_on_c, 0, 66, 0
2, 1099980, Note_on_c, 0, 66, 40
2, 1100143, Note_on_c, 0, 66, 0
2, 1100160, Note_on_c, 0, 66, 42
2, 1100323, Note_on_c, 0, 66, 0
2, 1100340, Note_on_c, 0, 68, 46
2, 1100503, Note_on_c, 0, 68, 0
2, 1100520, Note_on_c, 0, 70, 77
2, 1100683, Note_on_c, 0, 70, 0
2, 1101060, Note_on_c, 0, 70, 38
2, 1101223, Note_on_c, 0, 70, 0
2, 1101240, Note_on_c, 0, 71, 43
2, 1101403, Note_on_c, 0, 71, 0
2, 1101420, Note_on_c, 0, 70, 39
2, 1101583, Note_on_c, 0, 70, 0
2, 1101600, Note_on_c, 0, 70, 45
2, 1101763, Note_on_c, 0, 70, 0
2, 1101780, Note_on_c, 0, 71, 43
2, 1101943, Note_on_c, 0, 71, 0
2, 1101960, Note_on_c, 0, 70, 41
2, 1102123, Note_on_c, 0, 70, 0
2, 1102140, Note_on_c, 0, 73, 50
2, 1102303, Note_on_c, 0, 73, 0
2, 1102320, Note_on_c, 0, 71, 41
2, 1102483, Note_on_c, 0, 71, 0
2, 1102500, Note_on_c, 0, 70, 39
2, 1102663, Note_on_c, 0, 70, 0
2, 1102680, Note_on_c, 0, 70, 45
2, 1102843, Note_on_c, 0, 70, 0
2, 1102860, Note_on_c, 0, 70, 44
2, 1103023, Note_on_c, 0, 70, 0
2, 1103040, Note_on_c, 0, 70, 44
2, 1103203, Note_on_c, 0, 70, 0
2, 1103220, Note_on_c, 0, 70, 45
2, 1103383, Note_on_c, 0, 70, 0
2, 1103400, Note_on_c, 0, 70, 42
2, 1103563, Note_on_c, 0, 70, 0
2, 1103580, Note_on_c, 0, 70, 42
2, 1103743, Note_on_c, 0, 70, 0
2, 1103760, Note_on_c, 0, 70, 48
2, 1103923, Note_on_c, 0, 70, 0
2, 1103940, Note_on_c, 0, 71, 43
2, 1104103, Note_on_c, 0, 71, 0
2, 1104120, Note_on_c, 0, 70, 43
2, 1104283, Note_on_c, 0, 70, 0
2, 1104300, Note_on_c, 0, 68, 42
2, 1104463, Note_on_c, 0, 68, 0
2, 1104480, Note_on_c, 0, 70, 47
2, 1104643, Note_on_c, 0, 70, 0
2, 1104660, Note_on_c, 0, 68, 41
2, 1104823, Note_on_c, 0, 68, 0
2, 1104840, Note_on_c, 0, 71, 48
2, 1105003, Note_on_c, 0, 71, 0
2, 1105020, Note_on_c, 0, 70, 43
2, 1105183, Note_on_c, 0, 70, 0
2, 1105200, Note_on_c, 0, 68, 38
2, 1105363, Note_on_c, 0, 68, 0
2, 1105380, Note_on_c, 0, 68, 43
2, 1105543, Note_on_c, 0, 68, 0
2, 1105560, Note_on_c, 0, 68, 42
2, 1105723, Note_on_c, 0, 68, 0
2, 1105740, Note_on_c, 0, 68, 42
2, 1105903, Note_on_c, 0, 68, 0
2, 1105920, Note_on_c, 0, 68, 47
2, 1106083, Note_on_c, 0, 68, 0
2, 1106100, Note_on_c, 0, 70, 45
2, 1106263, Note_on_c, 0, 70, 0
2, 1106280, Note_on_c, 0, 68, 40
2, 1106443, Note_on_c, 0, 68, 0
2, 1106460, Note_on_c, 0, 66, 42
2, 1106623, Note_on_c, 0, 66, 0
2, 1106640, Note_on_c, 0, 68, 43
2, 1106803, Note_on_c, 0, 68, 0
2, 1106820, Note_on_c, 0, 66, 38
2, 1106983, Note_on_c, 0, 66, 0
2, 1107000, Note_on_c, 0, 70, 50
2, 1107163, Note_on_c, 0, 70, 0
2, 1107180, Note_on_c, 0, 68, 40
2, 1107343, Note_on_c, 0, 68, 0
2, 1107360, Note_on_c, 0, 66, 40
2, 1107523, Note_on_c, 0, 66, 0
2, 1107540, Note_on_c, 0, 66, 42
2, 1107703, Note_on_c, 0, 66, 0
2, 1107720, Note_on_c, 0, 66, 44
2, 1107883, Note_on_c, 0, 66, 0
2, 1107900, Note_on_c, 0, 68, 47
2, 1108063, Note_on_c, 0, 68, 0
2, 1108080, Note_on_c, 0, 70, 48
2, 1108243, Note_on_c, 0, 70, 0
2, 1108260, Note_on_c, 0, 68, 40
2, 1108423, Note_on_c, 0, 68, 0
2, 1108440, Note_on_c, 0, 66, 39
2, 1108603, Note_on_c, 0, 66, 0
2, 1108620, Note_on_c, 0, 66, 42
2, 1108783, Note_on_c, 0, 66, 0
2, 1108800, Note_on_c, 0, 66, 43
2, 1108963, Note_on_c, 0, 66, 0
2, 1108980, Note_on_c, 0, 68, 47
2, 1109143, Note_on_c, 0, 68, 0
2, 1109160, Note_on_c, 0, 70, 75
2, 1109323, Note_on_c, 0, 70, 0
2, 1110240, Note_on_c, 0, 58, 41
2, 1110403, Note_on_c, 0, 58, 0
2, 1110420, Note_on_c, 0, 57, 41
2, 1110583, Note_on_c, 0, 57, 0
2, 1110600, Note_on_c, 0, 58, 43
2, 1110763, Note_on_c, 0, 58, 0
2, 1110780, Note_on_c, 0, 61, 48
2, 1110943, Note_on_c, 0, 61, 0
2, 1110960, Note_on_c, 0, 59, 41
2, 1111123, Note_on_c, 0, 59, 0
2, 1111140, Note_on_c, 0, 58, 41
2, 1111303, Note_on_c, 0, 58, 0
2, 1111320, Note_on_c, 0, 58, 44
2, 1111483, Note_on_c, 0, 58, 0
2, 1111500, Note_on_c, 0, 59, 43
2, 1111663, Note_on_c, 0, 59, 0
2, 1111680, Note_on_c, 0, 60, 46
2, 1111843, Note_on_c, 0, 60, 0
2, 1111860, Note_on_c, 0, 61, 45
2, 1112023, Note_on_c, 0, 61, 0
2, 1112040, Note_on_c, 0, 61, 41
2, 1112203, Note_on_c, 0, 61, 0
2, 1112220, Note_on_c, 0, 61, 42
2, 1112383, Note_on_c, 0, 61, 0
2, 1112400, Note_on_c, 0, 61, 48
2, 1112563, Note_on_c, 0, 61, 0
2, 1112580, Note_on_c, 0, 58, 40
2, 1112743, Note_on_c, 0, 58, 0
2, 1112760, Note_on_c, 0, 61, 45
2, 1112923, Note_on_c, 0, 61, 0
2, 1112940, Note_on_c, 0, 62, 50
2, 1113103, Note_on_c, 0, 62, 0
2, 1113120, Note_on_c, 0, 63, 47
2, 1113283, Note_on_c, 0, 63, 0
2, 1113300, Note_on_c, 0, 65, 46
2, 1113463, Note_on_c, 0, 65, 0
2, 1113480, Note_on_c, 0, 66, 48
2, 1113805, Note_on_c, 0, 66, 0
2, 1114020, Note_on_c, 0, 63, 44
2, 1114183, Note_on_c, 0, 63, 0
2, 1114200, Note_on_c, 0, 64, 45
2, 1114363, Note_on_c, 0, 64, 0
2, 1114380, Note_on_c, 0, 65, 45
2, 1114543, Note_on_c, 0, 65, 0
2, 1114560, Note_on_c, 0, 66, 48
2, 1114723, Note_on_c, 0, 66, 0
2, 1114740, Note_on_c, 0, 66, 42
2, 1114903, Note_on_c, 0, 66, 0
2, 1114920, Note_on_c, 0, 66, 43
2, 1115083, Note_on_c, 0, 66, 0
2, 1115100, Note_on_c, 0, 65, 40
2, 1115263, Note_on_c, 0, 65, 0
2, 1115280, Note_on_c, 0, 68, 44
2, 1115443, Note_on_c, 0, 68, 0
2, 1115460, Note_on_c, 0, 70, 46
2, 1115623, Note_on_c, 0, 70, 0
2, 1115640, Note_on_c, 0, 66, 43
2, 1115803, Note_on_c, 0, 66, 0
2, 1115820, Note_on_c, 0, 65, 40
2, 1115983, Note_on_c, 0, 65, 0
2, 1116000, Note_on_c, 0, 66, 43
2, 1116163, Note_on_c, 0, 66, 0
2, 1116180, Note_on_c, 0, 67, 46
2, 1116343, Note_on_c, 0, 67, 0
2, 1116360, Note_on_c, 0, 70, 47
2, 1116523, Note_on_c, 0, 70, 0
2, 1116540, Note_on_c, 0, 71, 45
2, 1116703, Note_on_c, 0, 71, 0
2, 1116720, Note_on_c, 0, 68, 41
2, 1116883, Note_on_c, 0, 68, 0
2, 1116900, Note_on_c, 0, 67, 40
2, 1117063, Note_on_c, 0, 67, 0
2, 1117080, Note_on_c, 0, 68, 44
2, 1117243, Note_on_c, 0, 68, 0
2, 1117260, Note_on_c, 0, 70, 48
2, 1117423, Note_on_c, 0, 70, 0
2, 1117440, Note_on_c, 0, 73, 47
2, 1117603, Note_on_c, 0, 73, 0
2, 1117620, Note_on_c, 0, 75, 45
2, 1117783, Note_on_c, 0, 75, 0
2, 1117800, Note_on_c, 0, 71, 42
2, 1117963, Note_on_c, 0, 71, 0
2, 1117980, Note_on_c, 0, 70, 42
2, 1118143, Note_on_c, 0, 70, 0
2, 1118160, Note_on_c, 0, 71, 44
2, 1118323, Note_on_c, 0, 71, 0
2, 1118340, Note_on_c, 0, 73, 48
2, 1118503, Note_on_c, 0, 73, 0
2, 1118520, Note_on_c, 0, 75, 46
2, 1118683, Note_on_c, 0, 75, 0
2, 1118700, Note_on_c, 0, 73, 41
2, 1118863, Note_on_c, 0, 73, 0
2, 1118880, Note_on_c, 0, 71, 44
2, 1119043, Note_on_c, 0, 71, 0
2, 1119420, Note_on_c, 0, 66, 41
2, 1119583, Note_on_c, 0, 66, 0
2, 1119600, Note_on_c, 0, 64, 41
2, 1119763, Note_on_c, 0, 64, 0
2, 1119780, Note_on_c, 0, 63, 42
2, 1119943, Note_on_c, 0, 63, 0
2, 1119960, Note_on_c, 0, 63, 44
2, 1120123, Note_on_c, 0, 63, 0
2, 1120140, Note_on_c, 0, 64, 44
2, 1120303, Note_on_c, 0, 64, 0
2, 1120320, Note_on_c, 0, 65, 45
2, 1120483, Note_on_c, 0, 65, 0
2, 1120500, Note_on_c, 0, 66, 47
2, 1120663, Note_on_c, 0, 66, 0
2, 1120680, Note_on_c, 0, 66, 45
2, 1120843, Note_on_c, 0, 66, 0
2, 1120860, Note_on_c, 0, 66, 44
2, 1121023, Note_on_c, 0, 66, 0
2, 1121040, Note_on_c, 0, 66, 46
2, 1121203, Note_on_c, 0, 66, 0
2, 1121220, Note_on_c, 0, 63, 41
2, 1121383, Note_on_c, 0, 63, 0
2, 1121400, Note_on_c, 0, 66, 47
2, 1121563, Note_on_c, 0, 66, 0
2, 1121580, Note_on_c, 0, 67, 46
2, 1121743, Note_on_c, 0, 67, 0
2, 1121760, Note_on_c, 0, 68, 45
2, 1121923, Note_on_c, 0, 68, 0
2, 1121940, Note_on_c, 0, 70, 46
2, 1122103, Note_on_c, 0, 70, 0
2, 1122120, Note_on_c, 0, 71, 49
2, 1122445, Note_on_c, 0, 71, 0
2, 1122660, Note_on_c, 0, 68, 42
2, 1122823, Note_on_c, 0, 68, 0
2, 1122840, Note_on_c, 0, 69, 46
2, 1123003, Note_on_c, 0, 69, 0
2, 1123020, Note_on_c, 0, 70, 43
2, 1123183, Note_on_c, 0, 70, 0
2, 1123200, Note_on_c, 0, 71, 50
2, 1123363, Note_on_c, 0, 71, 0
2, 1123380, Note_on_c, 0, 70, 42
2, 1123543, Note_on_c, 0, 70, 0
2, 1123560, Note_on_c, 0, 71, 43
2, 1123723, Note_on_c, 0, 71, 0
2, 1123740, Note_on_c, 0, 72, 49
2, 1123903, Note_on_c, 0, 72, 0
2, 1123920, Note_on_c, 0, 75, 45
2, 1124083, Note_on_c, 0, 75, 0
2, 1124100, Note_on_c, 0, 77, 45
2, 1124263, Note_on_c, 0, 77, 0
2, 1124280, Note_on_c, 0, 74, 45
2, 1124443, Note_on_c, 0, 74, 0
2, 1124460, Note_on_c, 0, 72, 41
2, 1124623, Note_on_c, 0, 72, 0
2, 1124640, Note_on_c, 0, 74, 45
2, 1124803, Note_on_c, 0, 74, 0
2, 1124820, Note_on_c, 0, 75, 46
2, 1124983, Note_on_c, 0, 75, 0
2, 1125000, Note_on_c, 0, 77, 46
2, 1125163, Note_on_c, 0, 77, 0
2, 1125180, Note_on_c, 0, 78, 46
2, 1125343, Note_on_c, 0, 78, 0
2, 1125360, Note_on_c, 0, 77, 43
2, 1125523, Note_on_c, 0, 77, 0
2, 1125540, Note_on_c, 0, 75, 40
2, 1125703, Note_on_c, 0, 75, 0
2, 1125720, Note_on_c, 0, 77, 46
2, 1125883, Note_on_c, 0, 77, 0
2, 1125900, Note_on_c, 0, 78, 48
2, 1126063, Note_on_c, 0, 78, 0
2, 1126080, Note_on_c, 0, 80, 45
2, 1126243, Note_on_c, 0, 80, 0
2, 1126260, Note_on_c, 0, 78, 41
2, 1126423, Note_on_c, 0, 78, 0
2, 1126440, Note_on_c, 0, 77, 43
2, 1126603, Note_on_c, 0, 77, 0
2, 1126620, Note_on_c, 0, 70, 34
2, 1126783, Note_on_c, 0, 70, 0
2, 1126800, Note_on_c, 0, 72, 42
2, 1126963, Note_on_c, 0, 72, 0
2, 1126980, Note_on_c, 0, 74, 48
2, 1127143, Note_on_c, 0, 74, 0
2, 1127160, Note_on_c, 0, 72, 42
2, 1127323, Note_on_c, 0, 72, 0
2, 1127340, Note_on_c, 0, 74, 44
2, 1127503, Note_on_c, 0, 74, 0
2, 1127520, Note_on_c, 0, 75, 47
2, 1127683, Note_on_c, 0, 75, 0
2, 1127700, Note_on_c, 0, 76, 50
2, 1127880, Note_on_c, 0, 76, 0
2, 1127880, Note_on_c, 0, 75, 48
2, 1128060, Note_on_c, 0, 75, 0
2, 1128060, Note_on_c, 0, 78, 55
2, 1128240, Note_on_c, 0, 78, 0
2, 1128240, Note_on_c, 0, 76, 47
2, 1128420, Note_on_c, 0, 76, 0
2, 1128420, Note_on_c, 0, 75, 45
2, 1128600, Note_on_c, 0, 75, 0
2, 1128600, Note_on_c, 0, 75, 47
2, 1128763, Note_on_c, 0, 75, 0
2, 1128780, Note_on_c, 0, 75, 42
2, 1128943, Note_on_c, 0, 75, 0
2, 1128960, Note_on_c, 0, 75, 44
2, 1129123, Note_on_c, 0, 75, 0
2, 1129140, Note_on_c, 0, 75, 45
2, 1129303, Note_on_c, 0, 75, 0
2, 1129320, Note_on_c, 0, 75, 44
2, 1129483, Note_on_c, 0, 75, 0
2, 1129500, Note_on_c, 0, 75, 43
2, 1129663, Note_on_c, 0, 75, 0
2, 1129680, Note_on_c, 0, 75, 45
2, 1129843, Note_on_c, 0, 75, 0
2, 1129860, Note_on_c, 0, 76, 43
2, 1130023, Note_on_c, 0, 76, 0
2, 1130040, Note_on_c, 0, 75, 41
2, 1130203, Note_on_c, 0, 75, 0
2, 1130220, Note_on_c, 0, 73, 45
2, 1130383, Note_on_c, 0, 73, 0
2, 1130400, Note_on_c, 0, 75, 45
2, 1130563, Note_on_c, 0, 75, 0
2, 1130580, Note_on_c, 0, 73, 38
2, 1130743, Note_on_c, 0, 73, 0
2, 1130760, Note_on_c, 0, 76, 48
2, 1130923, Note_on_c, 0, 76, 0
2, 1130940, Note_on_c, 0, 75, 41
2, 1131103, Note_on_c, 0, 75, 0
2, 1131120, Note_on_c, 0, 73, 39
2, 1131283, Note_on_c, 0, 73, 0
2, 1131300, Note_on_c, 0, 73, 43
2, 1131463, Note_on_c, 0, 73, 0
2, 1131480, Note_on_c, 0, 73, 44
2, 1131643, Note_on_c, 0, 73, 0
2, 1131660, Note_on_c, 0, 73, 44
2, 1131823, Note_on_c, 0, 73, 0
2, 1131840, Note_on_c, 0, 73, 45
2, 1132003, Note_on_c, 0, 73, 0
2, 1132020, Note_on_c, 0, 75, 46
2, 1132183, Note_on_c, 0, 75, 0
2, 1132200, Note_on_c, 0, 73, 42
2, 1132363, Note_on_c, 0, 73, 0
2, 1132380, Note_on_c, 0, 71, 44
2, 1132543, Note_on_c, 0, 71, 0
2, 1132560, Note_on_c, 0, 73, 46
2, 1132723, Note_on_c, 0, 73, 0
2, 1132740, Note_on_c, 0, 71, 40
2, 1132903, Note_on_c, 0, 71, 0
2, 1132920, Note_on_c, 0, 75, 50
2, 1133083, Note_on_c, 0, 75, 0
2, 1133100, Note_on_c, 0, 73, 41
2, 1133263, Note_on_c, 0, 73, 0
2, 1133280, Note_on_c, 0, 71, 39
2, 1133443, Note_on_c, 0, 71, 0
2, 1133460, Note_on_c, 0, 71, 41
2, 1133623, Note_on_c, 0, 71, 0
2, 1133640, Note_on_c, 0, 71, 43
2, 1133803, Note_on_c, 0, 71, 0
2, 1133820, Note_on_c, 0, 73, 45
2, 1133983, Note_on_c, 0, 73, 0
2, 1134000, Note_on_c, 0, 75, 49
2, 1134163, Note_on_c, 0, 75, 0
2, 1134180, Note_on_c, 0, 73, 39
2, 1134343, Note_on_c, 0, 73, 0
2, 1134360, Note_on_c, 0, 71, 40
2, 1134523, Note_on_c, 0, 71, 0
2, 1134540, Note_on_c, 0, 71, 44
2, 1134703, Note_on_c, 0, 71, 0
2, 1134720, Note_on_c, 0, 71, 44
2, 1134883, Note_on_c, 0, 71, 0
2, 1134900, Note_on_c, 0, 73, 46
2, 1135063, Note_on_c, 0, 73, 0
2, 1135080, Note_on_c, 0, 75, 46
2, 1135243, Note_on_c, 0, 75, 0
2, 1135620, Note_on_c, 0, 70, 37
2, 1135783, Note_on_c, 0, 70, 0
2, 1135800, Note_on_c, 0, 71, 42
2, 1135963, Note_on_c, 0, 71, 0
2, 1135980, Note_on_c, 0, 70, 42
2, 1136143, Note_on_c, 0, 70, 0
2, 1136160, Note_on_c, 0, 70, 46
2, 1136323, Note_on_c, 0, 70, 0
2, 1136340, Note_on_c, 0, 71, 43
2, 1136503, Note_on_c, 0, 71, 0
2, 1136520, Note_on_c, 0, 70, 42
2, 1136683, Note_on_c, 0, 70, 0
2, 1136700, Note_on_c, 0, 73, 48
2, 1136863, Note_on_c, 0, 73, 0
2, 1136880, Note_on_c, 0, 71, 41
2, 1137043, Note_on_c, 0, 71, 0
2, 1137060, Note_on_c, 0, 70, 39
2, 1137223, Note_on_c, 0, 70, 0
2, 1137240, Note_on_c, 0, 70, 45
2, 1137403, Note_on_c, 0, 70, 0
2, 1137420, Note_on_c, 0, 70, 45
2, 1137583, Note_on_c, 0, 70, 0
2, 1137600, Note_on_c, 0, 70, 41
2, 1137763, Note_on_c, 0, 70, 0
2, 1137780, Note_on_c, 0, 70, 46
2, 1137943, Note_on_c, 0, 70, 0
2, 1137960, Note_on_c, 0, 70, 43
2, 1138123, Note_on_c, 0, 70, 0
2, 1138140, Note_on_c, 0, 70, 41
2, 1138303, Note_on_c, 0, 70, 0
2, 1138320, Note_on_c, 0, 70, 46
2, 1138483, Note_on_c, 0, 70, 0
2, 1138500, Note_on_c, 0, 71, 44
2, 1138663, Note_on_c, 0, 71, 0
2, 1138680, Note_on_c, 0, 70, 39
2, 1138843, Note_on_c, 0, 70, 0
2, 1138860, Note_on_c, 0, 68, 44
2, 1139023, Note_on_c, 0, 68, 0
2, 1139040, Note_on_c, 0, 70, 47
2, 1139203, Note_on_c, 0, 70, 0
2, 1139220, Note_on_c, 0, 68, 39
2, 1139383, Note_on_c, 0, 68, 0
2, 1139400, Note_on_c, 0, 71, 50
2, 1139563, Note_on_c, 0, 71, 0
2, 1139580, Note_on_c, 0, 70, 39
2, 1139743, Note_on_c, 0, 70, 0
2, 1139760, Note_on_c, 0, 68, 42
2, 1139923, Note_on_c, 0, 68, 0
2, 1139940, Note_on_c, 0, 68, 40
2, 1140103, Note_on_c, 0, 68, 0
2, 1140120, Note_on_c, 0, 68, 44
2, 1140283, Note_on_c, 0, 68, 0
2, 1140300, Note_on_c, 0, 68, 44
2, 1140463, Note_on_c, 0, 68, 0
2, 1140480, Note_on_c, 0, 68, 47
2, 1140643, Note_on_c, 0, 68, 0
2, 1140660, Note_on_c, 0, 70, 46
2, 1140823, Note_on_c, 0, 70, 0
2, 1140840, Note_on_c, 0, 68, 40
2, 1141003, Note_on_c, 0, 68, 0
2, 1141020, Note_on_c, 0, 66, 42
2, 1141183, Note_on_c, 0, 66, 0
2, 1141200, Note_on_c, 0, 68, 44
2, 1141363, Note_on_c, 0, 68, 0
2, 1141380, Note_on_c, 0, 66, 38
2, 1141543, Note_on_c, 0, 66, 0
2, 1141560, Note_on_c, 0, 70, 51
2, 1141723, Note_on_c, 0, 70, 0
2, 1141740, Note_on_c, 0, 68, 39
2, 1141903, Note_on_c, 0, 68, 0
2, 1141920, Note_on_c, 0, 66, 39
2, 1142083, Note_on_c, 0, 66, 0
2, 1142100, Note_on_c, 0, 66, 44
2, 1142263, Note_on_c, 0, 66, 0
2, 1142280, Note_on_c, 0, 66, 42
2, 1142443, Note_on_c, 0, 66, 0
2, 1142460, Note_on_c, 0, 68, 47
2, 1142623, Note_on_c, 0, 68, 0
2, 1142640, Note_on_c, 0, 68, 46
2, 1142803, Note_on_c, 0, 68, 0
2, 1142820, Note_on_c, 0, 66, 41
2, 1142983, Note_on_c, 0, 66, 0
2, 1143000, Note_on_c, 0, 64, 39
2, 1143163, Note_on_c, 0, 64, 0
2, 1143180, Note_on_c, 0, 64, 40
2, 1143343, Note_on_c, 0, 64, 0
2, 1143360, Note_on_c, 0, 64, 43
2, 1143523, Note_on_c, 0, 64, 0
2, 1143540, Note_on_c, 0, 64, 44
2, 1143703, Note_on_c, 0, 64, 0
2, 1143720, Note_on_c, 0, 61, 41
2, 1143883, Note_on_c, 0, 61, 0
2, 1143900, Note_on_c, 0, 59, 42
2, 1144063, Note_on_c, 0, 59, 0
2, 1144080, Note_on_c, 0, 58, 40
2, 1144243, Note_on_c, 0, 58, 0
2, 1144260, Note_on_c, 0, 58, 44
2, 1144423, Note_on_c, 0, 58, 0
2, 1144440, Note_on_c, 0, 58, 45
2, 1144603, Note_on_c, 0, 58, 0
2, 1144620, Note_on_c, 0, 58, 42
2, 1144783, Note_on_c, 0, 58, 0
2, 1144800, Note_on_c, 0, 58, 46
2, 1144963, Note_on_c, 0, 58, 0
2, 1144980, Note_on_c, 0, 59, 45
2, 1145143, Note_on_c, 0, 59, 0
2, 1145160, Note_on_c, 0, 58, 41
2, 1145323, Note_on_c, 0, 58, 0
2, 1145340, Note_on_c, 0, 61, 50
2, 1145503, Note_on_c, 0, 61, 0
2, 1145520, Note_on_c, 0, 59, 42
2, 1145683, Note_on_c, 0, 59, 0
2, 1145700, Note_on_c, 0, 58, 42
2, 1145863, Note_on_c, 0, 58, 0
2, 1145880, Note_on_c, 0, 58, 44
2, 1146043, Note_on_c, 0, 58, 0
2, 1146060, Note_on_c, 0, 58, 44
2, 1146223, Note_on_c, 0, 58, 0
2, 1146240, Note_on_c, 0, 58, 44
2, 1146403, Note_on_c, 0, 58, 0
2, 1146420, Note_on_c, 0, 58, 47
2, 1146583, Note_on_c, 0, 58, 0
2, 1146600, Note_on_c, 0, 58, 43
2, 1146763, Note_on_c, 0, 58, 0
2, 1146780, Note_on_c, 0, 58, 45
2, 1146943, Note_on_c, 0, 58, 0
2, 1146960, Note_on_c, 0, 58, 45
2, 1147123, Note_on_c, 0, 58, 0
2, 1147140, Note_on_c, 0, 59, 45
2, 1147303, Note_on_c, 0, 59, 0
2, 1147320, Note_on_c, 0, 58, 39
2, 1147483, Note_on_c, 0, 58, 0
2, 1147500, Note_on_c, 0, 61, 50
2, 1147663, Note_on_c, 0, 61, 0
2, 1147680, Note_on_c, 0, 59, 41
2, 1147843, Note_on_c, 0, 59, 0
2, 1147860, Note_on_c, 0, 58, 41
2, 1148023, Note_on_c, 0, 58, 0
2, 1148040, Note_on_c, 0, 58, 47
2, 1148203, Note_on_c, 0, 58, 0
2, 1148220, Note_on_c, 0, 58, 45
2, 1148383, Note_on_c, 0, 58, 0
2, 1148400, Note_on_c, 0, 58, 44
2, 1148563, Note_on_c, 0, 58, 0
2, 1148580, Note_on_c, 0, 58, 45
2, 1148743, Note_on_c, 0, 58, 0
2, 1148760, Note_on_c, 0, 58, 42
2, 1148923, Note_on_c, 0, 58, 0
2, 1148940, Note_on_c, 0, 58, 42
2, 1149103, Note_on_c, 0, 58, 0
2, 1149120, Note_on_c, 0, 58, 45
2, 1149283, Note_on_c, 0, 58, 0
2, 1149300, Note_on_c, 0, 54, 37
2, 1149463, Note_on_c, 0, 54, 0
2, 1149480, Note_on_c, 0, 56, 43
2, 1149643, Note_on_c, 0, 56, 0
2, 1149660, Note_on_c, 0, 58, 48
2, 1149823, Note_on_c, 0, 58, 0
2, 1149840, Note_on_c, 0, 63, 49
2, 1150003, Note_on_c, 0, 63, 0
2, 1150020, Note_on_c, 0, 54, 34
2, 1150183, Note_on_c, 0, 54, 0
2, 1150200, Note_on_c, 0, 58, 48
2, 1150363, Note_on_c, 0, 58, 0
2, 1150380, Note_on_c, 0, 54, 40
2, 1150543, Note_on_c, 0, 54, 0
2, 1150560, Note_on_c, 0, 56, 45
2, 1150723, Note_on_c, 0, 56, 0
2, 1150740, Note_on_c, 0, 58, 47
2, 1150903, Note_on_c, 0, 58, 0
2, 1150920, Note_on_c, 0, 64, 50
2, 1151083, Note_on_c, 0, 64, 0
2, 1151100, Note_on_c, 0, 54, 33
2, 1151263, Note_on_c, 0, 54, 0
2, 1151280, Note_on_c, 0, 57, 46
2, 1151443, Note_on_c, 0, 57, 0
2, 1151460, Note_on_c, 0, 54, 39
2, 1151623, Note_on_c, 0, 54, 0
2, 1151640, Note_on_c, 0, 56, 47
2, 1151803, Note_on_c, 0, 56, 0
2, 1151820, Note_on_c, 0, 57, 47
2, 1151983, Note_on_c, 0, 57, 0
2, 1152000, Note_on_c, 0, 63, 48
2, 1152163, Note_on_c, 0, 63, 0
2, 1152180, Note_on_c, 0, 54, 35
2, 1152343, Note_on_c, 0, 54, 0
2, 1152360, Note_on_c, 0, 58, 47
2, 1152523, Note_on_c, 0, 58, 0
2, 1152540, Note_on_c, 0, 56, 40
2, 1152703, Note_on_c, 0, 56, 0
2, 1152720, Note_on_c, 0, 57, 46
2, 1152883, Note_on_c, 0, 57, 0
2, 1152900, Note_on_c, 0, 58, 46
2, 1153063, Note_on_c, 0, 58, 0
2, 1153080, Note_on_c, 0, 62, 46
2, 1153243, Note_on_c, 0, 62, 0
2, 1153260, Note_on_c, 0, 56, 37
2, 1153423, Note_on_c, 0, 56, 0
2, 1153440, Note_on_c, 0, 46, 36
2, 1153603, Note_on_c, 0, 46, 0
2, 1153620, Note_on_c, 0, 47, 44
2, 1153783, Note_on_c, 0, 47, 0
2, 1153800, Note_on_c, 0, 46, 42
2, 1153963, Note_on_c, 0, 46, 0
2, 1153980, Note_on_c, 0, 49, 47
2, 1154143, Note_on_c, 0, 49, 0
2, 1154160, Note_on_c, 0, 47, 41
2, 1154323, Note_on_c, 0, 47, 0
2, 1154340, Note_on_c, 0, 46, 40
2, 1154503, Note_on_c, 0, 46, 0
2, 1154520, Note_on_c, 0, 46, 45
2, 1154683, Note_on_c, 0, 46, 0
2, 1154700, Note_on_c, 0, 46, 42
2, 1154863, Note_on_c, 0, 46, 0
2, 1154880, Note_on_c, 0, 46, 45
2, 1155043, Note_on_c, 0, 46, 0
2, 1155060, Note_on_c, 0, 47, 44
2, 1155223, Note_on_c, 0, 47, 0
2, 1155240, Note_on_c, 0, 46, 43
2, 1155403, Note_on_c, 0, 46, 0
2, 1155420, Note_on_c, 0, 46, 44
2, 1155583, Note_on_c, 0, 46, 0
2, 1155600, Note_on_c, 0, 46, 45
2, 1155763, Note_on_c, 0, 46, 0
2, 1155780, Note_on_c, 0, 47, 43
2, 1155943, Note_on_c, 0, 47, 0
2, 1155960, Note_on_c, 0, 46, 41
2, 1156123, Note_on_c, 0, 46, 0
2, 1156140, Note_on_c, 0, 49, 49
2, 1156303, Note_on_c, 0, 49, 0
2, 1156320, Note_on_c, 0, 47, 40
2, 1156483, Note_on_c, 0, 47, 0
2, 1156500, Note_on_c, 0, 46, 39
2, 1156663, Note_on_c, 0, 46, 0
2, 1156680, Note_on_c, 0, 46, 45
2, 1156843, Note_on_c, 0, 46, 0
2, 1156860, Note_on_c, 0, 46, 43
2, 1157023, Note_on_c, 0, 46, 0
2, 1157040, Note_on_c, 0, 46, 42
2, 1157203, Note_on_c, 0, 46, 0
2, 1157220, Note_on_c, 0, 47, 45
2, 1157383, Note_on_c, 0, 47, 0
2, 1157400, Note_on_c, 0, 46, 40
2, 1157563, Note_on_c, 0, 46, 0
2, 1157580, Note_on_c, 0, 46, 45
2, 1157743, Note_on_c, 0, 46, 0
2, 1157760, Note_on_c, 0, 46, 46
2, 1157923, Note_on_c, 0, 46, 0
2, 1157940, Note_on_c, 0, 54, 49
2, 1158103, Note_on_c, 0, 54, 0
2, 1158120, Note_on_c, 0, 56, 48
2, 1158283, Note_on_c, 0, 56, 0
2, 1158300, Note_on_c, 0, 58, 47
2, 1158463, Note_on_c, 0, 58, 0
2, 1158480, Note_on_c, 0, 63, 48
2, 1158643, Note_on_c, 0, 63, 0
2, 1158660, Note_on_c, 0, 54, 34
2, 1158823, Note_on_c, 0, 54, 0
2, 1158840, Note_on_c, 0, 47, 37
2, 1159003, Note_on_c, 0, 47, 0
2, 1159020, Note_on_c, 0, 54, 49
2, 1159183, Note_on_c, 0, 54, 0
2, 1159200, Note_on_c, 0, 56, 46
2, 1159363, Note_on_c, 0, 56, 0
2, 1159380, Note_on_c, 0, 57, 47
2, 1159543, Note_on_c, 0, 57, 0
2, 1159560, Note_on_c, 0, 63, 51
2, 1159723, Note_on_c, 0, 63, 0
2, 1159740, Note_on_c, 0, 54, 36
2, 1159903, Note_on_c, 0, 54, 0
2, 1159920, Note_on_c, 0, 53, 44
2, 1160083, Note_on_c, 0, 53, 0
2, 1160100, Note_on_c, 0, 56, 46
2, 1160263, Note_on_c, 0, 56, 0
2, 1160280, Note_on_c, 0, 58, 44
2, 1160443, Note_on_c, 0, 58, 0
2, 1160460, Note_on_c, 0, 59, 47
2, 1160623, Note_on_c, 0, 59, 0
2, 1160640, Note_on_c, 0, 63, 49
2, 1160803, Note_on_c, 0, 63, 0
2, 1160820, Note_on_c, 0, 56, 35
2, 1160983, Note_on_c, 0, 56, 0
2, 1161000, Note_on_c, 0, 46, 34
2, 1161163, Note_on_c, 0, 46, 0
2, 1161180, Note_on_c, 0, 56, 49
2, 1161343, Note_on_c, 0, 56, 0
2, 1161360, Note_on_c, 0, 57, 47
2, 1161523, Note_on_c, 0, 57, 0
2, 1161540, Note_on_c, 0, 58, 48
2, 1161703, Note_on_c, 0, 58, 0
2, 1161720, Note_on_c, 0, 62, 46
2, 1161883, Note_on_c, 0, 62, 0
2, 1161900, Note_on_c, 0, 56, 37
2, 1162063, Note_on_c, 0, 56, 0
2, 1162080, Note_on_c, 0, 58, 49
2, 1162080, Note_on_c, 0, 63, 50
2, 1162080, Note_on_c, 0, 51, 50
2, 1162080, Note_on_c, 0, 54, 51
2, 1163090, Note_on_c, 0, 54, 0
2, 1163090, Note_on_c, 0, 63, 0
2, 1163090, Note_on_c, 0, 58, 0
2, 1163090, Note_on_c, 0, 51, 0
2, 1163160, Note_on_c, 0, 58, 51
2, 1163160, Note_on_c, 0, 63, 51
2, 1163160, Note_on_c, 0, 66, 50
2, 1163160, Note_on_c, 0, 49, 54
2, 1163160, Note_on_c, 0, 51, 54
2, 1163160, Note_on_c, 0, 54, 54
2, 1164170, Note_on_c, 0, 54, 0
2, 1164170, Note_on_c, 0, 58, 0
2, 1164170, Note_on_c, 0, 51, 0
2, 1164170, Note_on_c, 0, 63, 0
2, 1164170, Note_on_c, 0, 49, 0
2, 1164170, Note_on_c, 0, 66, 0
2, 1164240, Note_on_c, 0, 58, 51
2, 1164240, Note_on_c, 0, 63, 49
2, 1164240, Note_on_c, 0, 66, 51
2, 1164240, Note_on_c, 0, 70, 52
2, 1164240, Note_on_c, 0, 48, 57
2, 1164240, Note_on_c, 0, 51, 56
2, 1164240, Note_on_c, 0, 54, 56
2, 1165250, Note_on_c, 0, 54, 0
2, 1165250, Note_on_c, 0, 51, 0
2, 1165250, Note_on_c, 0, 70, 0
2, 1165250, Note_on_c, 0, 58, 0
2, 1165250, Note_on_c, 0, 63, 0
2, 1165250, Note_on_c, 0, 48, 0
2, 1165250, Note_on_c, 0, 66, 0
2, 1165320, Note_on_c, 0, 59, 50
2, 1165320, Note_on_c, 0, 62, 48
2, 1165320, Note_on_c, 0, 66, 48
2, 1165320, Note_on_c, 0, 71, 50
2, 1165320, Note_on_c, 0, 47, 57
2, 1165320, Note_on_c, 0, 50, 55
2, 1165320, Note_on_c, 0, 54, 54
2, 1166330, Note_on_c, 0, 54, 0
2, 1166330, Note_on_c, 0, 50, 0
2, 1166330, Note_on_c, 0, 71, 0
2, 1166330, Note_on_c, 0, 59, 0
2, 1166330, Note_on_c, 0, 62, 0
2, 1166330, Note_on_c, 0, 47, 0
2, 1166330, Note_on_c, 0, 66, 0
2, 1166400, Note_on_c, 0, 62, 51
2, 1166400, Note_on_c, 0, 65, 49
2, 1166400, Note_on_c, 0, 70, 50
2, 1166400, Note_on_c, 0, 74, 49
2, 1166400, Note_on_c, 0, 46, 63
2, 1166400, Note_on_c, 0, 50, 63
2, 1166400, Note_on_c, 0, 53, 61
2, 1166400, Note_on_c, 0, 58, 62
2, 1167410, Note_on_c, 0, 58, 0
2, 1167410, Note_on_c, 0, 46, 0
2, 1167410, Note_on_c, 0, 53, 0
2, 1167410, Note_on_c, 0, 74, 0
2, 1167410, Note_on_c, 0, 62, 0
2, 1167410, Note_on_c, 0, 65, 0
2, 1167410, Note_on_c, 0, 50, 0
2, 1167410, Note_on_c, 0, 70, 0
2, 1167480, Note_on_c, 0, 63, 47
2, 1167480, Note_on_c, 0, 68, 49
2, 1167480, Note_on_c, 0, 71, 48
2, 1167480, Note_on_c, 0, 75, 48
2, 1167480, Note_on_c, 0, 51, 60
2, 1167480, Note_on_c, 0, 56, 58
2, 1167480, Note_on_c, 0, 59, 60
2, 1168490, Note_on_c, 0, 59, 0
2, 1168490, Note_on_c, 0, 56, 0
2, 1168490, Note_on_c, 0, 75, 0
2, 1168490, Note_on_c, 0, 63, 0
2, 1168490, Note_on_c, 0, 68, 0
2, 1168490, Note_on_c, 0, 51, 0
2, 1168490, Note_on_c, 0, 71, 0
2, 1168560, Note_on_c, 0, 66, 47
2, 1168560, Note_on_c, 0, 71, 51
2, 1168560, Note_on_c, 0, 75, 47
2, 1168560, Note_on_c, 0, 78, 49
2, 1168560, Note_on_c, 0, 51, 54
2, 1168560, Note_on_c, 0, 54, 57
2, 1168560, Note_on_c, 0, 59, 55
2, 1169570, Note_on_c, 0, 59, 0
2, 1169570, Note_on_c, 0, 54, 0
2, 1169570, Note_on_c, 0, 78, 0
2, 1169570, Note_on_c, 0, 66, 0
2, 1169570, Note_on_c, 0, 71, 0
2, 1169570, Note_on_c, 0, 51, 0
2, 1169570, Note_on_c, 0, 75, 0
2, 1169640, Note_on_c, 0, 69, 48
2, 1169640, Note_on_c, 0, 72, 48
2, 1169640, Note_on_c, 0, 75, 49
2, 1169640, Note_on_c, 0, 77, 50
2, 1169640, Note_on_c, 0, 81, 47
2, 1169640, Note_on_c, 0, 53, 62
2, 1169640, Note_on_c, 0, 57, 60
2, 1169640, Note_on_c, 0, 60, 62
2, 1169640, Note_on_c, 0, 63, 62
2, 1170650, Note_on_c, 0, 63, 0
2, 1170650, Note_on_c, 0, 57, 0
2, 1170650, Note_on_c, 0, 81, 0
2, 1170650, Note_on_c, 0, 77, 0
2, 1170650, Note_on_c, 0, 69, 0
2, 1170650, Note_on_c, 0, 53, 0
2, 1170650, Note_on_c, 0, 72, 0
2, 1170650, Note_on_c, 0, 75, 0
2, 1170650, Note_on_c, 0, 60, 0
2, 1170720, Note_on_c, 0, 70, 50
2, 1170720, Note_on_c, 0, 75, 47
2, 1170720, Note_on_c, 0, 78, 47
2, 1170720, Note_on_c, 0, 82, 49
2, 1170720, Note_on_c, 0, 54, 58
2, 1170720, Note_on_c, 0, 58, 58
2, 1170720, Note_on_c, 0, 63, 59
2, 1170720, Note_on_c, 0, 66, 61
2, 1171207, Note_on_c, 0, 66, 0
2, 1171207, Note_on_c, 0, 54, 0
2, 1171207, Note_on_c, 0, 63, 0
2, 1171207, Note_on_c, 0, 82, 0
2, 1171207, Note_on_c, 0, 70, 0
2, 1171207, Note_on_c, 0, 75, 0
2, 1171207, Note_on_c, 0, 58, 0
2, 1171207, Note_on_c, 0, 78, 0
2, 1171260, Note_on_c, 0, 70, 43
2, 1171260, Note_on_c, 0, 75, 42
2, 1171260, Note_on_c, 0, 78, 43
2, 1171260, Note_on_c, 0, 82, 43
2, 1171260, Note_on_c, 0, 66, 55
2, 1171349, Note_on_c, 0, 82, 0
2, 1171349, Note_on_c, 0, 70, 0
2, 1171349, Note_on_c, 0, 75, 0
2, 1171349, Note_on_c, 0, 78, 0
2, 1171423, Note_on_c, 0, 66, 0
2, 1171440, Note_on_c, 0, 65, 49
2, 1171603, Note_on_c, 0, 65, 0
2, 1171620, Note_on_c, 0, 63, 47
2, 1171783, Note_on_c, 0, 63, 0
2, 1171800, Note_on_c, 0, 71, 42
2, 1171800, Note_on_c, 0, 75, 41
2, 1171800, Note_on_c, 0, 78, 41
2, 1171800, Note_on_c, 0, 83, 44
2, 1171800, Note_on_c, 0, 66, 61
2, 1171889, Note_on_c, 0, 83, 0
2, 1171889, Note_on_c, 0, 71, 0
2, 1171889, Note_on_c, 0, 75, 0
2, 1171889, Note_on_c, 0, 78, 0
2, 1171963, Note_on_c, 0, 66, 0
2, 1171980, Note_on_c, 0, 65, 51
2, 1172143, Note_on_c, 0, 65, 0
2, 1172160, Note_on_c, 0, 63, 49
2, 1172323, Note_on_c, 0, 63, 0
2, 1172340, Note_on_c, 0, 73, 40
2, 1172340, Note_on_c, 0, 75, 40
2, 1172340, Note_on_c, 0, 78, 43
2, 1172340, Note_on_c, 0, 85, 40
2, 1172340, Note_on_c, 0, 70, 66
2, 1172429, Note_on_c, 0, 85, 0
2, 1172429, Note_on_c, 0, 73, 0
2, 1172429, Note_on_c, 0, 75, 0
2, 1172429, Note_on_c, 0, 78, 0
2, 1172503, Note_on_c, 0, 70, 0
2, 1172520, Note_on_c, 0, 68, 52
2, 1172683, Note_on_c, 0, 68, 0
2, 1172700, Note_on_c, 0, 66, 49
2, 1172863, Note_on_c, 0, 66, 0
2, 1172880, Note_on_c, 0, 70, 42
2, 1172880, Note_on_c, 0, 75, 42
2, 1172880, Note_on_c, 0, 78, 42
2, 1172880, Note_on_c, 0, 82, 43
2, 1172880, Note_on_c, 0, 66, 53
2, 1172969, Note_on_c, 0, 82, 0
2, 1172969, Note_on_c, 0, 70, 0
2, 1172969, Note_on_c, 0, 75, 0
2, 1172969, Note_on_c, 0, 78, 0
2, 1173043, Note_on_c, 0, 66, 0
2, 1173060, Note_on_c, 0, 65, 52
2, 1173223, Note_on_c, 0, 65, 0
2, 1173240, Note_on_c, 0, 63, 51
2, 1173403, Note_on_c, 0, 63, 0
2, 1173420, Note_on_c, 0, 70, 40
2, 1173420, Note_on_c, 0, 75, 39
2, 1173420, Note_on_c, 0, 78, 38
2, 1173420, Note_on_c, 0, 82, 40
2, 1173420, Note_on_c, 0, 66, 59
2, 1173509, Note_on_c, 0, 82, 0
2, 1173509, Note_on_c, 0, 70, 0
2, 1173509, Note_on_c, 0, 75, 0
2, 1173509, Note_on_c, 0, 78, 0
2, 1173583, Note_on_c, 0, 66, 0
2, 1173600, Note_on_c, 0, 65, 50
2, 1173763, Note_on_c, 0, 65, 0
2, 1173780, Note_on_c, 0, 63, 50
2, 1173943, Note_on_c, 0, 63, 0
2, 1173960, Note_on_c, 0, 71, 42
2, 1173960, Note_on_c, 0, 75, 43
2, 1173960, Note_on_c, 0, 78, 42
2, 1173960, Note_on_c, 0, 83, 41
2, 1173960, Note_on_c, 0, 66, 60
2, 1174049, Note_on_c, 0, 83, 0
2, 1174049, Note_on_c, 0, 71, 0
2, 1174049, Note_on_c, 0, 75, 0
2, 1174049, Note_on_c, 0, 78, 0
2, 1174123, Note_on_c, 0, 66, 0
2, 1174140, Note_on_c, 0, 65, 49
2, 1174303, Note_on_c, 0, 65, 0
2, 1174320, Note_on_c, 0, 63, 50
2, 1174483, Note_on_c, 0, 63, 0
2, 1174500, Note_on_c, 0, 73, 39
2, 1174500, Note_on_c, 0, 75, 41
2, 1174500, Note_on_c, 0, 78, 37
2, 1174500, Note_on_c, 0, 85, 40
2, 1174500, Note_on_c, 0, 70, 65
2, 1174589, Note_on_c, 0, 85, 0
2, 1174589, Note_on_c, 0, 73, 0
2, 1174589, Note_on_c, 0, 75, 0
2, 1174589, Note_on_c, 0, 78, 0
2, 1174663, Note_on_c, 0, 70, 0
2, 1174680, Note_on_c, 0, 68, 51
2, 1174843, Note_on_c, 0, 68, 0
2, 1174860, Note_on_c, 0, 66, 51
2, 1175023, Note_on_c, 0, 66, 0
2, 1175040, Note_on_c, 0, 70, 44
2, 1175040, Note_on_c, 0, 75, 41
2, 1175040, Note_on_c, 0, 78, 44
2, 1175040, Note_on_c, 0, 82, 41
2, 1175040, Note_on_c, 0, 66, 54
2, 1175129, Note_on_c, 0, 82, 0
2, 1175129, Note_on_c, 0, 70, 0
2, 1175129, Note_on_c, 0, 75, 0
2, 1175129, Note_on_c, 0, 78, 0
2, 1175203, Note_on_c, 0, 66, 0
2, 1175220, Note_on_c, 0, 65, 49
2, 1175383, Note_on_c, 0, 65, 0
2, 1175400, Note_on_c, 0, 63, 49
2, 1175563, Note_on_c, 0, 63, 0
2, 1175580, Note_on_c, 0, 71, 40
2, 1175580, Note_on_c, 0, 78, 38
2, 1175580, Note_on_c, 0, 83, 39
2, 1175580, Note_on_c, 0, 59, 51
2, 1175743, Note_on_c, 0, 59, 0
2, 1175760, Note_on_c, 0, 63, 59
2, 1175905, Note_on_c, 0, 78, 0
2, 1175905, Note_on_c, 0, 71, 0
2, 1175905, Note_on_c, 0, 83, 0
2, 1175923, Note_on_c, 0, 63, 0
2, 1175940, Note_on_c, 0, 85, 44
2, 1175940, Note_on_c, 0, 65, 57
2, 1176103, Note_on_c, 0, 65, 0
2, 1176103, Note_on_c, 0, 85, 0
2, 1176120, Note_on_c, 0, 70, 41
2, 1176120, Note_on_c, 0, 78, 42
2, 1176120, Note_on_c, 0, 82, 44
2, 1176120, Note_on_c, 0, 66, 59
2, 1176283, Note_on_c, 0, 66, 0
2, 1176297, Note_on_c, 0, 78, 0
2, 1176297, Note_on_c, 0, 70, 0
2, 1176297, Note_on_c, 0, 82, 0
2, 1176300, Note_on_c, 0, 65, 49
2, 1176463, Note_on_c, 0, 65, 0
2, 1176480, Note_on_c, 0, 63, 52
2, 1176643, Note_on_c, 0, 63, 0
2, 1176660, Note_on_c, 0, 71, 38
2, 1176660, Note_on_c, 0, 78, 37
2, 1176660, Note_on_c, 0, 83, 38
2, 1176660, Note_on_c, 0, 59, 50
2, 1176823, Note_on_c, 0, 59, 0
2, 1176840, Note_on_c, 0, 63, 58
2, 1176985, Note_on_c, 0, 78, 0
2, 1176985, Note_on_c, 0, 71, 0
2, 1176985, Note_on_c, 0, 83, 0
2, 1177003, Note_on_c, 0, 63, 0
2, 1177020, Note_on_c, 0, 85, 43
2, 1177020, Note_on_c, 0, 65, 56
2, 1177183, Note_on_c, 0, 65, 0
2, 1177183, Note_on_c, 0, 85, 0
2, 1177200, Note_on_c, 0, 70, 42
2, 1177200, Note_on_c, 0, 78, 44
2, 1177200, Note_on_c, 0, 82, 44
2, 1177200, Note_on_c, 0, 66, 57
2, 1177363, Note_on_c, 0, 66, 0
2, 1177377, Note_on_c, 0, 78, 0
2, 1177377, Note_on_c, 0, 70, 0
2, 1177377, Note_on_c, 0, 82, 0
2, 1177380, Note_on_c, 0, 65, 50
2, 1177543, Note_on_c, 0, 65, 0
2, 1177560, Note_on_c, 0, 63, 48
2, 1177723, Note_on_c, 0, 63, 0
2, 1177740, Note_on_c, 0, 71, 38
2, 1177740, Note_on_c, 0, 78, 38
2, 1177740, Note_on_c, 0, 83, 39
2, 1177740, Note_on_c, 0, 59, 52
2, 1177903, Note_on_c, 0, 59, 0
2, 1177920, Note_on_c, 0, 63, 55
2, 1178065, Note_on_c, 0, 78, 0
2, 1178065, Note_on_c, 0, 71, 0
2, 1178065, Note_on_c, 0, 83, 0
2, 1178083, Note_on_c, 0, 63, 0
2, 1178100, Note_on_c, 0, 85, 42
2, 1178100, Note_on_c, 0, 65, 54
2, 1178263, Note_on_c, 0, 65, 0
2, 1178263, Note_on_c, 0, 85, 0
2, 1178280, Note_on_c, 0, 70, 41
2, 1178280, Note_on_c, 0, 78, 43
2, 1178280, Note_on_c, 0, 82, 45
2, 1178280, Note_on_c, 0, 66, 57
2, 1178443, Note_on_c, 0, 66, 0
2, 1178457, Note_on_c, 0, 78, 0
2, 1178457, Note_on_c, 0, 70, 0
2, 1178457, Note_on_c, 0, 82, 0
2, 1178460, Note_on_c, 0, 65, 52
2, 1178623, Note_on_c, 0, 65, 0
2, 1178640, Note_on_c, 0, 63, 48
2, 1178803, Note_on_c, 0, 63, 0
2, 1178820, Note_on_c, 0, 72, 38
2, 1178820, Note_on_c, 0, 75, 38
2, 1178820, Note_on_c, 0, 78, 39
2, 1178820, Note_on_c, 0, 84, 40
2, 1178820, Note_on_c, 0, 60, 51
2, 1178983, Note_on_c, 0, 60, 0
2, 1178983, Note_on_c, 0, 84, 0
2, 1178983, Note_on_c, 0, 75, 0
2, 1178983, Note_on_c, 0, 72, 0
2, 1178983, Note_on_c, 0, 78, 0
2, 1179360, Note_on_c, 0, 73, 41
2, 1179360, Note_on_c, 0, 77, 41
2, 1179360, Note_on_c, 0, 80, 43
2, 1179360, Note_on_c, 0, 85, 42
2, 1179360, Note_on_c, 0, 61, 51
2, 1179360, Note_on_c, 0, 65, 49
2, 1179360, Note_on_c, 0, 68, 52
2, 1179523, Note_on_c, 0, 68, 0
2, 1179523, Note_on_c, 0, 65, 0
2, 1179523, Note_on_c, 0, 85, 0
2, 1179523, Note_on_c, 0, 73, 0
2, 1179523, Note_on_c, 0, 77, 0
2, 1179523, Note_on_c, 0, 61, 0
2, 1179523, Note_on_c, 0, 80, 0
2, 1179900, Note_on_c, 0, 61, 42
2, 1179900, Note_on_c, 0, 61, 34
2, 1179900, Note_on_c, 0, 49, 47
2, 1180063, Note_on_c, 0, 61, 0
2, 1180080, Note_on_c, 0, 56, 37
2, 1180243, Note_on_c, 0, 56, 0
2, 1180260, Note_on_c, 0, 53, 36
2, 1180387, Note_on_c, 0, 49, 0
2, 1180387, Note_on_c, 0, 61, 0
2, 1180423, Note_on_c, 0, 53, 0
2, 1180440, Note_on_c, 0, 61, 53
2, 1180440, Note_on_c, 0, 61, 43
2, 1180440, Note_on_c, 0, 49, 56
2, 1180603, Note_on_c, 0, 61, 0
2, 1180620, Note_on_c, 0, 56, 41
2, 1180783, Note_on_c, 0, 56, 0
2, 1180800, Note_on_c, 0, 53, 40
2, 1180927, Note_on_c, 0, 49, 0
2, 1180927, Note_on_c, 0, 61, 0
2, 1180963, Note_on_c, 0, 53, 0
2, 1180980, Note_on_c, 0, 63, 55
2, 1180980, Note_on_c, 0, 63, 44
2, 1180980, Note_on_c, 0, 51, 58
2, 1181143, Note_on_c, 0, 63, 0
2, 1181160, Note_on_c, 0, 56, 37
2, 1181323, Note_on_c, 0, 56, 0
2, 1181340, Note_on_c, 0, 54, 40
2, 1181467, Note_on_c, 0, 51, 0
2, 1181467, Note_on_c, 0, 63, 0
2, 1181503, Note_on_c, 0, 54, 0
2, 1181520, Note_on_c, 0, 65, 85
2, 1181520, Note_on_c, 0, 65, 77
2, 1181520, Note_on_c, 0, 53, 86
2, 1181683, Note_on_c, 0, 65, 0
2, 1181700, Note_on_c, 0, 61, 39
2, 1181863, Note_on_c, 0, 61, 0
2, 1181880, Note_on_c, 0, 56, 38
2, 1182007, Note_on_c, 0, 53, 0
2, 1182007, Note_on_c, 0, 65, 0
2, 1182043, Note_on_c, 0, 56, 0
2, 1182060, Note_on_c, 0, 61, 50
2, 1182060, Note_on_c, 0, 61, 37
2, 1182060, Note_on_c, 0, 49, 48
2, 1182223, Note_on_c, 0, 61, 0
2, 1182240, Note_on_c, 0, 56, 38
2, 1182403, Note_on_c, 0, 56, 0
2, 1182420, Note_on_c, 0, 53, 37
2, 1182547, Note_on_c, 0, 49, 0
2, 1182547, Note_on_c, 0, 61, 0
2, 1182583, Note_on_c, 0, 53, 0
2, 1182600, Note_on_c, 0, 61, 51
2, 1182600, Note_on_c, 0, 61, 43
2, 1182600, Note_on_c, 0, 49, 56
2, 1182763, Note_on_c, 0, 61, 0
2, 1182780, Note_on_c, 0, 56, 41
2, 1182943, Note_on_c, 0, 56, 0
2, 1182960, Note_on_c, 0, 53, 41
2, 1183087, Note_on_c, 0, 49, 0
2, 1183087, Note_on_c, 0, 61, 0
2, 1183123, Note_on_c, 0, 53, 0
2, 1183140, Note_on_c, 0, 63, 54
2, 1183140, Note_on_c, 0, 63, 46
2, 1183140, Note_on_c, 0, 51, 55
2, 1183303, Note_on_c, 0, 63, 0
2, 1183320, Note_on_c, 0, 56, 37
2, 1183483, Note_on_c, 0, 56, 0
2, 1183500, Note_on_c, 0, 54, 40
2, 1183627, Note_on_c, 0, 51, 0
2, 1183627, Note_on_c, 0, 63, 0
2, 1183663, Note_on_c, 0, 54, 0
2, 1183680, Note_on_c, 0, 65, 84
2, 1183680, Note_on_c, 0, 65, 74
2, 1183680, Note_on_c, 0, 53, 87
2, 1183843, Note_on_c, 0, 65, 0
2, 1183860, Note_on_c, 0, 61, 42
2, 1184023, Note_on_c, 0, 61, 0
2, 1184040, Note_on_c, 0, 56, 37
2, 1184167, Note_on_c, 0, 53, 0
2, 1184167, Note_on_c, 0, 65, 0
2, 1184203, Note_on_c, 0, 56, 0
2, 1184220, Note_on_c, 0, 61, 49
2, 1184220, Note_on_c, 0, 61, 39
2, 1184220, Note_on_c, 0, 49, 50
2, 1184383, Note_on_c, 0, 61, 0
2, 1184400, Note_on_c, 0, 56, 38
2, 1184563, Note_on_c, 0, 56, 0
2, 1184580, Note_on_c, 0, 53, 40
2, 1184707, Note_on_c, 0, 49, 0
2, 1184707, Note_on_c, 0, 61, 0
2, 1184743, Note_on_c, 0, 53, 0
2, 1184760, Note_on_c, 0, 61, 51
2, 1184760, Note_on_c, 0, 61, 43
2, 1184760, Note_on_c, 0, 49, 56
2, 1184923, Note_on_c, 0, 61, 0
2, 1184940, Note_on_c, 0, 56, 40
2, 1185103, Note_on_c, 0, 56, 0
2, 1185120, Note_on_c, 0, 53, 38
2, 1185247, Note_on_c, 0, 49, 0
2, 1185247, Note_on_c, 0, 61, 0
2, 1185283, Note_on_c, 0, 53, 0
2, 1185300, Note_on_c, 0, 63, 52
2, 1185300, Note_on_c, 0, 63, 45
2, 1185300, Note_on_c, 0, 51, 57
2, 1185463, Note_on_c, 0, 63, 0
2, 1185480, Note_on_c, 0, 56, 38
2, 1185643, Note_on_c, 0, 56, 0
2, 1185660, Note_on_c, 0, 54, 41
2, 1185787, Note_on_c, 0, 51, 0
2, 1185787, Note_on_c, 0, 63, 0
2, 1185823, Note_on_c, 0, 54, 0
2, 1185840, Note_on_c, 0, 65, 56
2, 1185840, Note_on_c, 0, 65, 47
2, 1185840, Note_on_c, 0, 53, 59
2, 1186003, Note_on_c, 0, 65, 0
2, 1186020, Note_on_c, 0, 61, 39
2, 1186183, Note_on_c, 0, 61, 0
2, 1186200, Note_on_c, 0, 56, 37
2, 1186327, Note_on_c, 0, 53, 0
2, 1186327, Note_on_c, 0, 65, 0
2, 1186363, Note_on_c, 0, 56, 0
2, 1186380, Note_on_c, 0, 66, 55
2, 1186380, Note_on_c, 0, 66, 44
2, 1186380, Note_on_c, 0, 54, 54
2, 1186543, Note_on_c, 0, 66, 0
2, 1186560, Note_on_c, 0, 63, 43
2, 1186723, Note_on_c, 0, 63, 0
2, 1186740, Note_on_c, 0, 61, 39
2, 1186867, Note_on_c, 0, 54, 0
2, 1186867, Note_on_c, 0, 66, 0
2, 1186903, Note_on_c, 0, 61, 0
2, 1186920, Note_on_c, 0, 67, 53
2, 1186920, Note_on_c, 0, 67, 50
2, 1186920, Note_on_c, 0, 55, 59
2, 1187083, Note_on_c, 0, 67, 0
2, 1187100, Note_on_c, 0, 64, 39
2, 1187263, Note_on_c, 0, 64, 0
2, 1187280, Note_on_c, 0, 61, 38
2, 1187407, Note_on_c, 0, 55, 0
2, 1187407, Note_on_c, 0, 67, 0
2, 1187443, Note_on_c, 0, 61, 0
2, 1187460, Note_on_c, 0, 68, 53
2, 1187460, Note_on_c, 0, 68, 47
2, 1187460, Note_on_c, 0, 56, 54
2, 1187623, Note_on_c, 0, 68, 0
2, 1187640, Note_on_c, 0, 65, 40
2, 1187803, Note_on_c, 0, 65, 0
2, 1187820, Note_on_c, 0, 60, 37
2, 1187947, Note_on_c, 0, 56, 0
2, 1187947, Note_on_c, 0, 68, 0
2, 1187983, Note_on_c, 0, 60, 0
2, 1188000, Note_on_c, 0, 61, 53
2, 1188000, Note_on_c, 0, 65, 55
2, 1188000, Note_on_c, 0, 73, 56
2, 1188000, Note_on_c, 0, 49, 56
2, 1188000, Note_on_c, 0, 56, 58
2, 1188163, Note_on_c, 0, 56, 0
2, 1188163, Note_on_c, 0, 49, 0
2, 1188163, Note_on_c, 0, 65, 0
2, 1188163, Note_on_c, 0, 61, 0
2, 1188163, Note_on_c, 0, 73, 0
2, 1188540, Note_on_c, 0, 61, 41
2, 1188540, Note_on_c, 0, 61, 36
2, 1188540, Note_on_c, 0, 49, 48
2, 1188703, Note_on_c, 0, 61, 0
2, 1188720, Note_on_c, 0, 56, 36
2, 1188883, Note_on_c, 0, 56, 0
2, 1188900, Note_on_c, 0, 53, 37
2, 1189027, Note_on_c, 0, 49, 0
2, 1189027, Note_on_c, 0, 61, 0
2, 1189063, Note_on_c, 0, 53, 0
2, 1189080, Note_on_c, 0, 61, 51
2, 1189080, Note_on_c, 0, 61, 42
2, 1189080, Note_on_c, 0, 49, 56
2, 1189243, Note_on_c, 0, 61, 0
2, 1189260, Note_on_c, 0, 56, 39
2, 1189423, Note_on_c, 0, 56, 0
2, 1189440, Note_on_c, 0, 53, 39
2, 1189567, Note_on_c, 0, 49, 0
2, 1189567, Note_on_c, 0, 61, 0
2, 1189603, Note_on_c, 0, 53, 0
2, 1189620, Note_on_c, 0, 63, 55
2, 1189620, Note_on_c, 0, 63, 44
2, 1189620, Note_on_c, 0, 51, 56
2, 1189783, Note_on_c, 0, 63, 0
2, 1189800, Note_on_c, 0, 56, 38
2, 1189963, Note_on_c, 0, 56, 0
2, 1189980, Note_on_c, 0, 54, 38
2, 1190107, Note_on_c, 0, 51, 0
2, 1190107, Note_on_c, 0, 63, 0
2, 1190143, Note_on_c, 0, 54, 0
2, 1190160, Note_on_c, 0, 65, 85
2, 1190160, Note_on_c, 0, 65, 76
2, 1190160, Note_on_c, 0, 53, 85
2, 1190323, Note_on_c, 0, 65, 0
2, 1190340, Note_on_c, 0, 61, 40
2, 1190503, Note_on_c, 0, 61, 0
2, 1190520, Note_on_c, 0, 56, 37
2, 1190647, Note_on_c, 0, 53, 0
2, 1190647, Note_on_c, 0, 65, 0
2, 1190683, Note_on_c, 0, 56, 0
2, 1190700, Note_on_c, 0, 61, 51
2, 1190700, Note_on_c, 0, 61, 39
2, 1190700, Note_on_c, 0, 49, 49
2, 1190863, Note_on_c, 0, 61, 0
2, 1190880, Note_on_c, 0, 56, 37
2, 1191043, Note_on_c, 0, 56, 0
2, 1191060, Note_on_c, 0, 53, 38
2, 1191187, Note_on_c, 0, 49, 0
2, 1191187, Note_on_c, 0, 61, 0
2, 1191223, Note_on_c, 0, 53, 0
2, 1191240, Note_on_c, 0, 61, 51
2, 1191240, Note_on_c, 0, 61, 46
2, 1191240, Note_on_c, 0, 49, 53
2, 1191403, Note_on_c, 0, 61, 0
2, 1191420, Note_on_c, 0, 56, 38
2, 1191583, Note_on_c, 0, 56, 0
2, 1191600, Note_on_c, 0, 53, 39
2, 1191727, Note_on_c, 0, 49, 0
2, 1191727, Note_on_c, 0, 61, 0
2, 1191763, Note_on_c, 0, 53, 0
2, 1191780, Note_on_c, 0, 63, 53
2, 1191780, Note_on_c, 0, 63, 46
2, 1191780, Note_on_c, 0, 51, 58
2, 1191943, Note_on_c, 0, 63, 0
2, 1191960, Note_on_c, 0, 56, 38
2, 1192123, Note_on_c, 0, 56, 0
2, 1192140, Note_on_c, 0, 54, 40
2, 1192267, Note_on_c, 0, 51, 0
2, 1192267, Note_on_c, 0, 63, 0
2, 1192303, Note_on_c, 0, 54, 0
2, 1192320, Note_on_c, 0, 65, 86
2, 1192320, Note_on_c, 0, 65, 75
2, 1192320, Note_on_c, 0, 53, 85
2, 1192483, Note_on_c, 0, 65, 0
2, 1192500, Note_on_c, 0, 61, 38
2, 1192663, Note_on_c, 0, 61, 0
2, 1192680, Note_on_c, 0, 56, 38
2, 1192807, Note_on_c, 0, 53, 0
2, 1192807, Note_on_c, 0, 65, 0
2, 1192843, Note_on_c, 0, 56, 0
2, 1192860, Note_on_c, 0, 61, 49
2, 1192860, Note_on_c, 0, 61, 40
2, 1192860, Note_on_c, 0, 49, 47
2, 1193023, Note_on_c, 0, 61, 0
2, 1193040, Note_on_c, 0, 56, 37
2, 1193203, Note_on_c, 0, 56, 0
2, 1193220, Note_on_c, 0, 53, 39
2, 1193347, Note_on_c, 0, 49, 0
2, 1193347, Note_on_c, 0, 61, 0
2, 1193383, Note_on_c, 0, 53, 0
2, 1193400, Note_on_c, 0, 61, 50
2, 1193400, Note_on_c, 0, 61, 44
2, 1193400, Note_on_c, 0, 49, 55
2, 1193563, Note_on_c, 0, 61, 0
2, 1193580, Note_on_c, 0, 56, 38
2, 1193743, Note_on_c, 0, 56, 0
2, 1193760, Note_on_c, 0, 53, 38
2, 1193887, Note_on_c, 0, 49, 0
2, 1193887, Note_on_c, 0, 61, 0
2, 1193923, Note_on_c, 0, 53, 0
2, 1193940, Note_on_c, 0, 63, 55
2, 1193940, Note_on_c, 0, 63, 47
2, 1193940, Note_on_c, 0, 51, 56
2, 1194103, Note_on_c, 0, 63, 0
2, 1194120, Note_on_c, 0, 56, 36
2, 1194283, Note_on_c, 0, 56, 0
2, 1194300, Note_on_c, 0, 54, 40
2, 1194427, Note_on_c, 0, 51, 0
2, 1194427, Note_on_c, 0, 63, 0
2, 1194463, Note_on_c, 0, 54, 0
2, 1194480, Note_on_c, 0, 65, 54
2, 1194480, Note_on_c, 0, 65, 46
2, 1194480, Note_on_c, 0, 53, 59
2, 1194643, Note_on_c, 0, 65, 0
2, 1194660, Note_on_c, 0, 61, 42
2, 1194823, Note_on_c, 0, 61, 0
2, 1194840, Note_on_c, 0, 56, 36
2, 1194967, Note_on_c, 0, 53, 0
2, 1194967, Note_on_c, 0, 65, 0
2, 1195003, Note_on_c, 0, 56, 0
2, 1195020, Note_on_c, 0, 65, 52
2, 1195020, Note_on_c, 0, 65, 43
2, 1195020, Note_on_c, 0, 53, 53
2, 1195183, Note_on_c, 0, 65, 0
2, 1195200, Note_on_c, 0, 61, 41
2, 1195363, Note_on_c, 0, 61, 0
2, 1195380, Note_on_c, 0, 56, 36
2, 1195507, Note_on_c, 0, 53, 0
2, 1195507, Note_on_c, 0, 65, 0
2, 1195543, Note_on_c, 0, 56, 0
2, 1195560, Note_on_c, 0, 65, 53
2, 1195560, Note_on_c, 0, 65, 47
2, 1195560, Note_on_c, 0, 53, 57
2, 1195723, Note_on_c, 0, 65, 0
2, 1195740, Note_on_c, 0, 61, 42
2, 1195903, Note_on_c, 0, 61, 0
2, 1195920, Note_on_c, 0, 58, 38
2, 1196047, Note_on_c, 0, 53, 0
2, 1196047, Note_on_c, 0, 65, 0
2, 1196083, Note_on_c, 0, 58, 0
2, 1196100, Note_on_c, 0, 67, 55
2, 1196100, Note_on_c, 0, 67, 46
2, 1196100, Note_on_c, 0, 55, 56
2, 1196263, Note_on_c, 0, 67, 0
2, 1196280, Note_on_c, 0, 63, 41
2, 1196443, Note_on_c, 0, 63, 0
2, 1196460, Note_on_c, 0, 61, 41
2, 1196587, Note_on_c, 0, 55, 0
2, 1196587, Note_on_c, 0, 67, 0
2, 1196623, Note_on_c, 0, 61, 0
2, 1196640, Note_on_c, 0, 68, 50
2, 1196640, Note_on_c, 0, 56, 59
2, 1196640, Note_on_c, 0, 56, 69
2, 1196803, Note_on_c, 0, 56, 0
2, 1196820, Note_on_c, 0, 60, 57
2, 1196983, Note_on_c, 0, 60, 0
2, 1197000, Note_on_c, 0, 63, 58
2, 1197127, Note_on_c, 0, 56, 0
2, 1197127, Note_on_c, 0, 68, 0
2, 1197163, Note_on_c, 0, 63, 0
2, 1197180, Note_on_c, 0, 68, 46
2, 1197180, Note_on_c, 0, 56, 48
2, 1197180, Note_on_c, 0, 56, 53
2, 1197343, Note_on_c, 0, 56, 0
2, 1197360, Note_on_c, 0, 60, 56
2, 1197523, Note_on_c, 0, 60, 0
2, 1197540, Note_on_c, 0, 63, 56
2, 1197667, Note_on_c, 0, 56, 0
2, 1197667, Note_on_c, 0, 68, 0
2, 1197703, Note_on_c, 0, 63, 0
2, 1197720, Note_on_c, 0, 68, 45
2, 1197720, Note_on_c, 0, 56, 48
2, 1197720, Note_on_c, 0, 56, 57
2, 1197883, Note_on_c, 0, 56, 0
2, 1197900, Note_on_c, 0, 60, 55
2, 1198063, Note_on_c, 0, 60, 0
2, 1198080, Note_on_c, 0, 63, 58
2, 1198207, Note_on_c, 0, 56, 0
2, 1198207, Note_on_c, 0, 68, 0
2, 1198243, Note_on_c, 0, 63, 0
2, 1198260, Note_on_c, 0, 70, 45
2, 1198260, Note_on_c, 0, 58, 49
2, 1198260, Note_on_c, 0, 58, 55
2, 1198423, Note_on_c, 0, 58, 0
2, 1198440, Note_on_c, 0, 61, 54
2, 1198603, Note_on_c, 0, 61, 0
2, 1198620, Note_on_c, 0, 63, 54
2, 1198747, Note_on_c, 0, 58, 0
2, 1198747, Note_on_c, 0, 70, 0
2, 1198783, Note_on_c, 0, 63, 0
2, 1198800, Note_on_c, 0, 72, 76
2, 1198800, Note_on_c, 0, 60, 75
2, 1198800, Note_on_c, 0, 60, 87
2, 1198963, Note_on_c, 0, 60, 0
2, 1198980, Note_on_c, 0, 63, 56
2, 1199143, Note_on_c, 0, 63, 0
2, 1199160, Note_on_c, 0, 60, 49
2, 1199287, Note_on_c, 0, 60, 0
2, 1199287, Note_on_c, 0, 72, 0
2, 1199323, Note_on_c, 0, 60, 0
2, 1199340, Note_on_c, 0, 68, 41
2, 1199340, Note_on_c, 0, 56, 48
2, 1199340, Note_on_c, 0, 56, 47
2, 1199503, Note_on_c, 0, 56, 0
2, 1199520, Note_on_c, 0, 60, 59
2, 1199683, Note_on_c, 0, 60, 0
2, 1199700, Note_on_c, 0, 63, 56
2, 1199827, Note_on_c, 0, 56, 0
2, 1199827, Note_on_c, 0, 68, 0
2, 1199863, Note_on_c, 0, 63, 0
2, 1199880, Note_on_c, 0, 68, 46
2, 1199880, Note_on_c, 0, 56, 47
2, 1199880, Note_on_c, 0, 56, 55
2, 1200043, Note_on_c, 0, 56, 0
2, 1200060, Note_on_c, 0, 60, 55
2, 1200223, Note_on_c, 0, 60, 0
2, 1200240, Note_on_c, 0, 63, 55
2, 1200367, Note_on_c, 0, 56, 0
2, 1200367, Note_on_c, 0, 68, 0
2, 1200403, Note_on_c, 0, 63, 0
2, 1200420, Note_on_c, 0, 70, 47
2, 1200420, Note_on_c, 0, 58, 48
2, 1200420, Note_on_c, 0, 58, 55
2, 1200583, Note_on_c, 0, 58, 0
2, 1200600, Note_on_c, 0, 61, 54
2, 1200763, Note_on_c, 0, 61, 0
2, 1200780, Note_on_c, 0, 63, 55
2, 1200907, Note_on_c, 0, 58, 0
2, 1200907, Note_on_c, 0, 70, 0
2, 1200943, Note_on_c, 0, 63, 0
2, 1200960, Note_on_c, 0, 72, 76
2, 1200960, Note_on_c, 0, 60, 77
2, 1200960, Note_on_c, 0, 60, 86
2, 1201123, Note_on_c, 0, 60, 0
2, 1201140, Note_on_c, 0, 63, 58
2, 1201303, Note_on_c, 0, 63, 0
2, 1201320, Note_on_c, 0, 60, 50
2, 1201447, Note_on_c, 0, 60, 0
2, 1201447, Note_on_c, 0, 72, 0
2, 1201483, Note_on_c, 0, 60, 0
2, 1201500, Note_on_c, 0, 68, 40
2, 1201500, Note_on_c, 0, 56, 50
2, 1201500, Note_on_c, 0, 56, 47
2, 1201663, Note_on_c, 0, 56, 0
2, 1201680, Note_on_c, 0, 60, 55
2, 1201843, Note_on_c, 0, 60, 0
2, 1201860, Note_on_c, 0, 63, 55
2, 1201987, Note_on_c, 0, 56, 0
2, 1201987, Note_on_c, 0, 68, 0
2, 1202023, Note_on_c, 0, 63, 0
2, 1202040, Note_on_c, 0, 68, 44
2, 1202040, Note_on_c, 0, 56, 49
2, 1202040, Note_on_c, 0, 56, 56
2, 1202203, Note_on_c, 0, 56, 0
2, 1202220, Note_on_c, 0, 60, 59
2, 1202383, Note_on_c, 0, 60, 0
2, 1202400, Note_on_c, 0, 63, 59
2, 1202527, Note_on_c, 0, 56, 0
2, 1202527, Note_on_c, 0, 68, 0
2, 1202563, Note_on_c, 0, 63, 0
2, 1202580, Note_on_c, 0, 70, 43
2, 1202580, Note_on_c, 0, 58, 50
2, 1202580, Note_on_c, 0, 58, 56
2, 1202743, Note_on_c, 0, 58, 0
2, 1202760, Note_on_c, 0, 61, 56
2, 1202923, Note_on_c, 0, 61, 0
2, 1202940, Note_on_c, 0, 63, 54
2, 1203067, Note_on_c, 0, 58, 0
2, 1203067, Note_on_c, 0, 70, 0
2, 1203103, Note_on_c, 0, 63, 0
2, 1203120, Note_on_c, 0, 72, 50
2, 1203120, Note_on_c, 0, 72, 52
2, 1203120, Note_on_c, 0, 60, 50
2, 1203283, Note_on_c, 0, 72, 0
2, 1203300, Note_on_c, 0, 68, 40
2, 1203463, Note_on_c, 0, 68, 0
2, 1203480, Note_on_c, 0, 63, 39
2, 1203607, Note_on_c, 0, 60, 0
2, 1203607, Note_on_c, 0, 72, 0
2, 1203643, Note_on_c, 0, 63, 0
2, 1203660, Note_on_c, 0, 73, 56
2, 1203660, Note_on_c, 0, 73, 47
2, 1203660, Note_on_c, 0, 61, 55
2, 1203823, Note_on_c, 0, 73, 0
2, 1203840, Note_on_c, 0, 70, 42
2, 1204003, Note_on_c, 0, 70, 0
2, 1204020, Note_on_c, 0, 68, 42
2, 1204147, Note_on_c, 0, 61, 0
2, 1204147, Note_on_c, 0, 73, 0
2, 1204183, Note_on_c, 0, 68, 0
2, 1204200, Note_on_c, 0, 74, 52
2, 1204200, Note_on_c, 0, 74, 50
2, 1204200, Note_on_c, 0, 62, 57
2, 1204363, Note_on_c, 0, 74, 0
2, 1204380, Note_on_c, 0, 71, 38
2, 1204543, Note_on_c, 0, 71, 0
2, 1204560, Note_on_c, 0, 68, 38
2, 1204687, Note_on_c, 0, 62, 0
2, 1204687, Note_on_c, 0, 74, 0
2, 1204723, Note_on_c, 0, 68, 0
2, 1204740, Note_on_c, 0, 75, 51
2, 1204740, Note_on_c, 0, 75, 45
2, 1204740, Note_on_c, 0, 63, 57
2, 1204903, Note_on_c, 0, 75, 0
2, 1204920, Note_on_c, 0, 72, 41
2, 1205083, Note_on_c, 0, 72, 0
2, 1205100, Note_on_c, 0, 67, 38
2, 1205227, Note_on_c, 0, 63, 0
2, 1205227, Note_on_c, 0, 75, 0
2, 1205263, Note_on_c, 0, 67, 0
2, 1205280, Note_on_c, 0, 68, 56
2, 1205280, Note_on_c, 0, 72, 54
2, 1205280, Note_on_c, 0, 80, 55
2, 1205280, Note_on_c, 0, 51, 58
2, 1205280, Note_on_c, 0, 56, 55
2, 1205280, Note_on_c, 0, 60, 58
2, 1205280, Note_on_c, 0, 63, 56
2, 1205443, Note_on_c, 0, 63, 0
2, 1205443, Note_on_c, 0, 60, 0
2, 1205443, Note_on_c, 0, 51, 0
2, 1205443, Note_on_c, 0, 68, 0
2, 1205443, Note_on_c, 0, 72, 0
2, 1205443, Note_on_c, 0, 56, 0
2, 1205443, Note_on_c, 0, 80, 0
2, 1205820, Note_on_c, 0, 68, 37
2, 1205820, Note_on_c, 0, 56, 50
2, 1205820, Note_on_c, 0, 56, 48
2, 1205983, Note_on_c, 0, 56, 0
2, 1206000, Note_on_c, 0, 60, 59
2, 1206163, Note_on_c, 0, 60, 0
2, 1206180, Note_on_c, 0, 63, 56
2, 1206307, Note_on_c, 0, 56, 0
2, 1206307, Note_on_c, 0, 68, 0
2, 1206343, Note_on_c, 0, 63, 0
2, 1206360, Note_on_c, 0, 68, 46
2, 1206360, Note_on_c, 0, 56, 48
2, 1206360, Note_on_c, 0, 56, 55
2, 1206523, Note_on_c, 0, 56, 0
2, 1206540, Note_on_c, 0, 60, 59
2, 1206703, Note_on_c, 0, 60, 0
2, 1206720, Note_on_c, 0, 63, 56
2, 1206847, Note_on_c, 0, 56, 0
2, 1206847, Note_on_c, 0, 68, 0
2, 1206883, Note_on_c, 0, 63, 0
2, 1206900, Note_on_c, 0, 70, 46
2, 1206900, Note_on_c, 0, 58, 51
2, 1206900, Note_on_c, 0, 58, 56
2, 1207063, Note_on_c, 0, 58, 0
2, 1207080, Note_on_c, 0, 61, 54
2, 1207243, Note_on_c, 0, 61, 0
2, 1207260, Note_on_c, 0, 63, 55
2, 1207387, Note_on_c, 0, 58, 0
2, 1207387, Note_on_c, 0, 70, 0
2, 1207423, Note_on_c, 0, 63, 0
2, 1207440, Note_on_c, 0, 72, 75
2, 1207440, Note_on_c, 0, 60, 77
2, 1207440, Note_on_c, 0, 60, 88
2, 1207603, Note_on_c, 0, 60, 0
2, 1207620, Note_on_c, 0, 63, 55
2, 1207783, Note_on_c, 0, 63, 0
2, 1207800, Note_on_c, 0, 60, 49
2, 1207927, Note_on_c, 0, 60, 0
2, 1207927, Note_on_c, 0, 72, 0
2, 1207963, Note_on_c, 0, 60, 0
2, 1207980, Note_on_c, 0, 68, 39
2, 1207980, Note_on_c, 0, 56, 51
2, 1207980, Note_on_c, 0, 56, 46
2, 1208143, Note_on_c, 0, 56, 0
2, 1208160, Note_on_c, 0, 60, 56
2, 1208323, Note_on_c, 0, 60, 0
2, 1208340, Note_on_c, 0, 63, 57
2, 1208467, Note_on_c, 0, 56, 0
2, 1208467, Note_on_c, 0, 68, 0
2, 1208503, Note_on_c, 0, 63, 0
2, 1208520, Note_on_c, 0, 68, 44
2, 1208520, Note_on_c, 0, 56, 49
2, 1208520, Note_on_c, 0, 56, 54
2, 1208683, Note_on_c, 0, 56, 0
2, 1208700, Note_on_c, 0, 60, 58
2, 1208863, Note_on_c, 0, 60, 0
2, 1208880, Note_on_c, 0, 63, 59
2, 1209007, Note_on_c, 0, 56, 0
2, 1209007, Note_on_c, 0, 68, 0
2, 1209043, Note_on_c, 0, 63, 0
2, 1209060, Note_on_c, 0, 70, 47
2, 1209060, Note_on_c, 0, 58, 51
2, 1209060, Note_on_c, 0, 58, 55
2, 1209223, Note_on_c, 0, 58, 0
2, 1209240, Note_on_c, 0, 61, 56
2, 1209403, Note_on_c, 0, 61, 0
2, 1209420, Note_on_c, 0, 63, 54
2, 1209547, Note_on_c, 0, 58, 0
2, 1209547, Note_on_c, 0, 70, 0
2, 1209583, Note_on_c, 0, 63, 0
2, 1209600, Note_on_c, 0, 72, 76
2, 1209600, Note_on_c, 0, 60, 74
2, 1209600, Note_on_c, 0, 60, 87
2, 1209763, Note_on_c, 0, 60, 0
2, 1209780, Note_on_c, 0, 63, 54
2, 1209943, Note_on_c, 0, 63, 0
2, 1209960, Note_on_c, 0, 60, 49
2, 1210087, Note_on_c, 0, 60, 0
2, 1210087, Note_on_c, 0, 72, 0
2, 1210123, Note_on_c, 0, 60, 0
2, 1210140, Note_on_c, 0, 68, 37
2, 1210140, Note_on_c, 0, 56, 49
2, 1210140, Note_on_c, 0, 56, 48
2, 1210303, Note_on_c, 0, 56, 0
2, 1210320, Note_on_c, 0, 60, 56
2, 1210483, Note_on_c, 0, 60, 0
2, 1210500, Note_on_c, 0, 63, 58
2, 1210627, Note_on_c, 0, 56, 0
2, 1210627, Note_on_c, 0, 68, 0
2, 1210663, Note_on_c, 0, 63, 0
2, 1210680, Note_on_c, 0, 68, 47
2, 1210680, Note_on_c, 0, 56, 47
2, 1210680, Note_on_c, 0, 56, 56
2, 1210843, Note_on_c, 0, 56, 0
2, 1210860, Note_on_c, 0, 60, 57
2, 1211023, Note_on_c, 0, 60, 0
2, 1211040, Note_on_c, 0, 63, 58
2, 1211167, Note_on_c, 0, 56, 0
2, 1211167, Note_on_c, 0, 68, 0
2, 1211203, Note_on_c, 0, 63, 0
2, 1211220, Note_on_c, 0, 70, 45
2, 1211220, Note_on_c, 0, 58, 51
2, 1211220, Note_on_c, 0, 58, 55
2, 1211383, Note_on_c, 0, 58, 0
2, 1211400, Note_on_c, 0, 61, 58
2, 1211563, Note_on_c, 0, 61, 0
2, 1211580, Note_on_c, 0, 63, 57
2, 1211707, Note_on_c, 0, 58, 0
2, 1211707, Note_on_c, 0, 70, 0
2, 1211743, Note_on_c, 0, 63, 0
2, 1211760, Note_on_c, 0, 72, 48
2, 1211760, Note_on_c, 0, 72, 42
2, 1211760, Note_on_c, 0, 60, 54
2, 1211923, Note_on_c, 0, 72, 0
2, 1211940, Note_on_c, 0, 68, 40
2, 1212103, Note_on_c, 0, 68, 0
2, 1212120, Note_on_c, 0, 63, 39
2, 1212247, Note_on_c, 0, 60, 0
2, 1212247, Note_on_c, 0, 72, 0
2, 1212283, Note_on_c, 0, 63, 0
2, 1212300, Note_on_c, 0, 75, 57
2, 1212300, Note_on_c, 0, 75, 46
2, 1212300, Note_on_c, 0, 67, 64
2, 1212300, Note_on_c, 0, 67, 63
2, 1212463, Note_on_c, 0, 67, 0
2, 1212463, Note_on_c, 0, 75, 0
2, 1212480, Note_on_c, 0, 72, 40
2, 1212480, Note_on_c, 0, 63, 50
2, 1212643, Note_on_c, 0, 63, 0
2, 1212643, Note_on_c, 0, 72, 0
2, 1212660, Note_on_c, 0, 68, 37
2, 1212660, Note_on_c, 0, 60, 48
2, 1212787, Note_on_c, 0, 67, 0
2, 1212787, Note_on_c, 0, 75, 0
2, 1212823, Note_on_c, 0, 68, 0
2, 1212823, Note_on_c, 0, 60, 0
2, 1212840, Note_on_c, 0, 80, 53
2, 1212840, Note_on_c, 0, 80, 51
2, 1212840, Note_on_c, 0, 66, 62
2, 1212840, Note_on_c, 0, 66, 57
2, 1213003, Note_on_c, 0, 66, 0
2, 1213003, Note_on_c, 0, 80, 0
2, 1213020, Note_on_c, 0, 75, 38
2, 1213020, Note_on_c, 0, 63, 52
2, 1213183, Note_on_c, 0, 63, 0
2, 1213183, Note_on_c, 0, 75, 0
2, 1213200, Note_on_c, 0, 72, 39
2, 1213200, Note_on_c, 0, 60, 47
2, 1213327, Note_on_c, 0, 66, 0
2, 1213327, Note_on_c, 0, 80, 0
2, 1213363, Note_on_c, 0, 72, 0
2, 1213363, Note_on_c, 0, 60, 0
2, 1213380, Note_on_c, 0, 84, 53
2, 1213380, Note_on_c, 0, 84, 46
2, 1213380, Note_on_c, 0, 65, 63
2, 1213380, Note_on_c, 0, 65, 50
2, 1213543, Note_on_c, 0, 65, 0
2, 1213543, Note_on_c, 0, 84, 0
2, 1213560, Note_on_c, 0, 80, 40
2, 1213560, Note_on_c, 0, 63, 50
2, 1213723, Note_on_c, 0, 63, 0
2, 1213723, Note_on_c, 0, 80, 0
2, 1213740, Note_on_c, 0, 72, 34
2, 1213740, Note_on_c, 0, 60, 47
2, 1213867, Note_on_c, 0, 65, 0
2, 1213867, Note_on_c, 0, 84, 0
2, 1213903, Note_on_c, 0, 72, 0
2, 1213903, Note_on_c, 0, 60, 0
2, 1213920, Note_on_c, 0, 41, 0
2, 1213920, Note_on_c, 0, 80, 57
2, 1213920, Note_on_c, 0, 84, 55
2, 1213920, Note_on_c, 0, 60, 59
2, 1214083, Note_on_c, 0, 84, 0
2, 1214083, Note_on_c, 0, 80, 0
2, 1214460, Note_on_c, 0, 85, 42
2, 1214460, Note_on_c, 0, 52, 47
2, 1214460, Note_on_c, 0, 56, 46
2, 1214623, Note_on_c, 0, 85, 0
2, 1214640, Note_on_c, 0, 84, 39
2, 1214803, Note_on_c, 0, 84, 0
2, 1214820, Note_on_c, 0, 85, 42
2, 1214947, Note_on_c, 0, 56, 0
2, 1214947, Note_on_c, 0, 52, 0
2, 1214983, Note_on_c, 0, 85, 0
2, 1215000, Note_on_c, 0, 60, 0
2, 1215000, Note_on_c, 0, 84, 43
2, 1215000, Note_on_c, 0, 64, 66
2, 1215163, Note_on_c, 0, 84, 0
2, 1215180, Note_on_c, 0, 82, 38
2, 1215343, Note_on_c, 0, 82, 0
2, 1215360, Note_on_c, 0, 84, 47
2, 1215523, Note_on_c, 0, 84, 0
2, 1215540, Note_on_c, 0, 82, 44
2, 1215540, Note_on_c, 0, 52, 49
2, 1215540, Note_on_c, 0, 56, 48
2, 1215703, Note_on_c, 0, 82, 0
2, 1215720, Note_on_c, 0, 80, 41
2, 1215883, Note_on_c, 0, 80, 0
2, 1215900, Note_on_c, 0, 82, 47
2, 1216027, Note_on_c, 0, 56, 0
2, 1216027, Note_on_c, 0, 52, 0
2, 1216063, Note_on_c, 0, 82, 0
2, 1216080, Note_on_c, 0, 64, 0
2, 1216080, Note_on_c, 0, 84, 48
2, 1216080, Note_on_c, 0, 68, 67
2, 1216243, Note_on_c, 0, 84, 0
2, 1216620, Note_on_c, 0, 85, 42
2, 1216620, Note_on_c, 0, 56, 48
2, 1216620, Note_on_c, 0, 60, 49
2, 1216783, Note_on_c, 0, 85, 0
2, 1216800, Note_on_c, 0, 84, 41
2, 1216963, Note_on_c, 0, 84, 0
2, 1216980, Note_on_c, 0, 85, 43
2, 1217107, Note_on_c, 0, 60, 0
2, 1217107, Note_on_c, 0, 56, 0
2, 1217143, Note_on_c, 0, 85, 0
2, 1217160, Note_on_c, 0, 68, 0
2, 1217160, Note_on_c, 0, 84, 42
2, 1217160, Note_on_c, 0, 72, 69
2, 1217323, Note_on_c, 0, 84, 0
2, 1217340, Note_on_c, 0, 82, 42
2, 1217503, Note_on_c, 0, 82, 0
2, 1217520, Note_on_c, 0, 84, 44
2, 1217683, Note_on_c, 0, 84, 0
2, 1217700, Note_on_c, 0, 82, 41
2, 1217700, Note_on_c, 0, 60, 47
2, 1217700, Note_on_c, 0, 63, 48
2, 1217863, Note_on_c, 0, 82, 0
2, 1217880, Note_on_c, 0, 80, 42
2, 1218043, Note_on_c, 0, 80, 0
2, 1218060, Note_on_c, 0, 82, 44
2, 1218187, Note_on_c, 0, 63, 0
2, 1218187, Note_on_c, 0, 60, 0
2, 1218223, Note_on_c, 0, 82, 0
2, 1218240, Note_on_c, 0, 72, 0
2, 1218240, Note_on_c, 0, 84, 47
2, 1218240, Note_on_c, 0, 76, 71
2, 1218403, Note_on_c, 0, 84, 0
2, 1218600, Note_on_c, 0, 84, 39
2, 1218763, Note_on_c, 0, 84, 0
2, 1218780, Note_on_c, 0, 85, 46
2, 1218780, Note_on_c, 0, 64, 46
2, 1218780, Note_on_c, 0, 68, 46
2, 1218943, Note_on_c, 0, 85, 0
2, 1218960, Note_on_c, 0, 84, 42
2, 1219123, Note_on_c, 0, 84, 0
2, 1219140, Note_on_c, 0, 85, 43
2, 1219267, Note_on_c, 0, 68, 0
2, 1219267, Note_on_c, 0, 64, 0
2, 1219303, Note_on_c, 0, 85, 0
2, 1219320, Note_on_c, 0, 76, 0
2, 1219320, Note_on_c, 0, 84, 44
2, 1219320, Note_on_c, 0, 72, 59
2, 1219483, Note_on_c, 0, 84, 0
2, 1219500, Note_on_c, 0, 82, 39
2, 1219663, Note_on_c, 0, 82, 0
2, 1219680, Note_on_c, 0, 84, 43
2, 1219843, Note_on_c, 0, 84, 0
2, 1219860, Note_on_c, 0, 82, 43
2, 1219860, Note_on_c, 0, 60, 48
2, 1219860, Note_on_c, 0, 64, 47
2, 1220023, Note_on_c, 0, 82, 0
2, 1220040, Note_on_c, 0, 80, 40
2, 1220203, Note_on_c, 0, 80, 0
2, 1220220, Note_on_c, 0, 82, 43
2, 1220347, Note_on_c, 0, 64, 0
2, 1220347, Note_on_c, 0, 60, 0
2, 1220383, Note_on_c, 0, 82, 0
2, 1220400, Note_on_c, 0, 72, 0
2, 1220400, Note_on_c, 0, 84, 48
2, 1220400, Note_on_c, 0, 68, 55
2, 1220563, Note_on_c, 0, 84, 0
2, 1220760, Note_on_c, 0, 84, 40
2, 1220923, Note_on_c, 0, 84, 0
2, 1220940, Note_on_c, 0, 85, 49
2, 1220940, Note_on_c, 0, 56, 47
2, 1220940, Note_on_c, 0, 63, 50
2, 1221103, Note_on_c, 0, 85, 0
2, 1221120, Note_on_c, 0, 84, 42
2, 1221283, Note_on_c, 0, 84, 0
2, 1221300, Note_on_c, 0, 85, 42
2, 1221427, Note_on_c, 0, 63, 0
2, 1221427, Note_on_c, 0, 56, 0
2, 1221463, Note_on_c, 0, 85, 0
2, 1221480, Note_on_c, 0, 68, 0
2, 1221480, Note_on_c, 0, 84, 45
2, 1221480, Note_on_c, 0, 63, 55
2, 1221643, Note_on_c, 0, 84, 0
2, 1221660, Note_on_c, 0, 82, 39
2, 1221823, Note_on_c, 0, 82, 0
2, 1221840, Note_on_c, 0, 84, 46
2, 1222003, Note_on_c, 0, 84, 0
2, 1222020, Note_on_c, 0, 82, 44
2, 1222020, Note_on_c, 0, 51, 47
2, 1222020, Note_on_c, 0, 56, 49
2, 1222183, Note_on_c, 0, 82, 0
2, 1222200, Note_on_c, 0, 80, 41
2, 1222363, Note_on_c, 0, 80, 0
2, 1222380, Note_on_c, 0, 82, 43
2, 1222507, Note_on_c, 0, 56, 0
2, 1222507, Note_on_c, 0, 51, 0
2, 1222543, Note_on_c, 0, 82, 0
2, 1222560, Note_on_c, 0, 63, 0
2, 1222560, Note_on_c, 0, 84, 48
2, 1222560, Note_on_c, 0, 60, 55
2, 1222723, Note_on_c, 0, 84, 0
2, 1222740, Note_on_c, 0, 85, 46
2, 1222903, Note_on_c, 0, 85, 0
2, 1222920, Note_on_c, 0, 84, 40
2, 1223083, Note_on_c, 0, 84, 0
2, 1223100, Note_on_c, 0, 85, 49
2, 1223100, Note_on_c, 0, 52, 50
2, 1223100, Note_on_c, 0, 56, 50
2, 1223263, Note_on_c, 0, 85, 0
2, 1223280, Note_on_c, 0, 84, 39
2, 1223443, Note_on_c, 0, 84, 0
2, 1223460, Note_on_c, 0, 85, 46
2, 1223587, Note_on_c, 0, 56, 0
2, 1223587, Note_on_c, 0, 52, 0
2, 1223623, Note_on_c, 0, 85, 0
2, 1223640, Note_on_c, 0, 60, 0
2, 1223640, Note_on_c, 0, 84, 44
2, 1223640, Note_on_c, 0, 64, 66
2, 1223803, Note_on_c, 0, 84, 0
2, 1223820, Note_on_c, 0, 82, 42
2, 1223983, Note_on_c, 0, 82, 0
2, 1224000, Note_on_c, 0, 84, 45
2, 1224163, Note_on_c, 0, 84, 0
2, 1224180, Note_on_c, 0, 92, 53
2, 1224180, Note_on_c, 0, 52, 48
2, 1224180, Note_on_c, 0, 56, 47
2, 1224343, Note_on_c, 0, 92, 0
2, 1224360, Note_on_c, 0, 84, 38
2, 1224523, Note_on_c, 0, 84, 0
2, 1224540, Note_on_c, 0, 82, 40
2, 1224667, Note_on_c, 0, 56, 0
2, 1224667, Note_on_c, 0, 52, 0
2, 1224703, Note_on_c, 0, 82, 0
2, 1224720, Note_on_c, 0, 64, 0
2, 1224720, Note_on_c, 0, 84, 48
2, 1224720, Note_on_c, 0, 68, 67
2, 1224883, Note_on_c, 0, 84, 0
2, 1224900, Note_on_c, 0, 85, 46
2, 1225063, Note_on_c, 0, 85, 0
2, 1225080, Note_on_c, 0, 84, 43
2, 1225243, Note_on_c, 0, 84, 0
2, 1225260, Note_on_c, 0, 85, 46
2, 1225260, Note_on_c, 0, 56, 47
2, 1225260, Note_on_c, 0, 60, 49
2, 1225423, Note_on_c, 0, 85, 0
2, 1225440, Note_on_c, 0, 84, 43
2, 1225603, Note_on_c, 0, 84, 0
2, 1225620, Note_on_c, 0, 85, 42
2, 1225747, Note_on_c, 0, 60, 0
2, 1225747, Note_on_c, 0, 56, 0
2, 1225783, Note_on_c, 0, 85, 0
2, 1225800, Note_on_c, 0, 68, 0
2, 1225800, Note_on_c, 0, 84, 46
2, 1225800, Note_on_c, 0, 72, 69
2, 1225963, Note_on_c, 0, 84, 0
2, 1225980, Note_on_c, 0, 82, 40
2, 1226143, Note_on_c, 0, 82, 0
2, 1226160, Note_on_c, 0, 84, 45
2, 1226323, Note_on_c, 0, 84, 0
2, 1226340, Note_on_c, 0, 92, 53
2, 1226340, Note_on_c, 0, 60, 47
2, 1226340, Note_on_c, 0, 63, 48
2, 1226503, Note_on_c, 0, 92, 0
2, 1226520, Note_on_c, 0, 84, 35
2, 1226683, Note_on_c, 0, 84, 0
2, 1226700, Note_on_c, 0, 82, 38
2, 1226827, Note_on_c, 0, 63, 0
2, 1226827, Note_on_c, 0, 60, 0
2, 1226863, Note_on_c, 0, 82, 0
2, 1226880, Note_on_c, 0, 72, 0
2, 1226880, Note_on_c, 0, 84, 49
2, 1226880, Note_on_c, 0, 76, 70
2, 1227043, Note_on_c, 0, 84, 0
2, 1227060, Note_on_c, 0, 85, 43
2, 1227223, Note_on_c, 0, 85, 0
2, 1227240, Note_on_c, 0, 84, 42
2, 1227403, Note_on_c, 0, 84, 0
2, 1227420, Note_on_c, 0, 85, 45
2, 1227420, Note_on_c, 0, 64, 49
2, 1227420, Note_on_c, 0, 68, 46
2, 1227583, Note_on_c, 0, 85, 0
2, 1227600, Note_on_c, 0, 84, 41
2, 1227763, Note_on_c, 0, 84, 0
2, 1227780, Note_on_c, 0, 85, 45
2, 1227907, Note_on_c, 0, 68, 0
2, 1227907, Note_on_c, 0, 64, 0
2, 1227943, Note_on_c, 0, 85, 0
2, 1227960, Note_on_c, 0, 76, 0
2, 1227960, Note_on_c, 0, 84, 45
2, 1227960, Note_on_c, 0, 72, 56
2, 1228123, Note_on_c, 0, 84, 0
2, 1228140, Note_on_c, 0, 82, 38
2, 1228303, Note_on_c, 0, 82, 0
2, 1228320, Note_on_c, 0, 84, 46
2, 1228483, Note_on_c, 0, 84, 0
2, 1228500, Note_on_c, 0, 92, 52
2, 1228500, Note_on_c, 0, 60, 49
2, 1228500, Note_on_c, 0, 64, 49
2, 1228663, Note_on_c, 0, 92, 0
2, 1228680, Note_on_c, 0, 84, 38
2, 1228843, Note_on_c, 0, 84, 0
2, 1228860, Note_on_c, 0, 82, 41
2, 1228987, Note_on_c, 0, 64, 0
2, 1228987, Note_on_c, 0, 60, 0
2, 1229023, Note_on_c, 0, 82, 0
2, 1229040, Note_on_c, 0, 72, 0
2, 1229040, Note_on_c, 0, 84, 49
2, 1229040, Note_on_c, 0, 68, 56
2, 1229203, Note_on_c, 0, 84, 0
2, 1229220, Note_on_c, 0, 85, 44
2, 1229383, Note_on_c, 0, 85, 0
2, 1229400, Note_on_c, 0, 84, 41
2, 1229563, Note_on_c, 0, 84, 0
2, 1229580, Note_on_c, 0, 85, 47
2, 1229580, Note_on_c, 0, 56, 49
2, 1229580, Note_on_c, 0, 60, 46
2, 1229743, Note_on_c, 0, 85, 0
2, 1229760, Note_on_c, 0, 84, 41
2, 1229923, Note_on_c, 0, 84, 0
2, 1229940, Note_on_c, 0, 85, 43
2, 1230067, Note_on_c, 0, 60, 0
2, 1230067, Note_on_c, 0, 56, 0
2, 1230103, Note_on_c, 0, 85, 0
2, 1230120, Note_on_c, 0, 68, 0
2, 1230120, Note_on_c, 0, 84, 46
2, 1230120, Note_on_c, 0, 63, 52
2, 1230283, Note_on_c, 0, 84, 0
2, 1230300, Note_on_c, 0, 82, 39
2, 1230463, Note_on_c, 0, 82, 0
2, 1230480, Note_on_c, 0, 84, 45
2, 1230643, Note_on_c, 0, 84, 0
2, 1230660, Note_on_c, 0, 92, 52
2, 1230660, Note_on_c, 0, 51, 48
2, 1230660, Note_on_c, 0, 56, 49
2, 1230823, Note_on_c, 0, 92, 0
2, 1230840, Note_on_c, 0, 84, 34
2, 1231003, Note_on_c, 0, 84, 0
2, 1231020, Note_on_c, 0, 86, 45
2, 1231147, Note_on_c, 0, 56, 0
2, 1231147, Note_on_c, 0, 51, 0
2, 1231183, Note_on_c, 0, 86, 0
2, 1231200, Note_on_c, 0, 63, 0
2, 1231200, Note_on_c, 0, 84, 48
2, 1231200, Note_on_c, 0, 88, 47
2, 1231200, Note_on_c, 0, 64, 64
2, 1231363, Note_on_c, 0, 88, 0
2, 1231363, Note_on_c, 0, 84, 0
2, 1231740, Note_on_c, 0, 89, 42
2, 1231740, Note_on_c, 0, 56, 46
2, 1231740, Note_on_c, 0, 60, 50
2, 1231903, Note_on_c, 0, 89, 0
2, 1231920, Note_on_c, 0, 88, 40
2, 1232083, Note_on_c, 0, 88, 0
2, 1232100, Note_on_c, 0, 89, 46
2, 1232227, Note_on_c, 0, 60, 0
2, 1232227, Note_on_c, 0, 56, 0
2, 1232263, Note_on_c, 0, 89, 0
2, 1232280, Note_on_c, 0, 64, 0
2, 1232280, Note_on_c, 0, 88, 45
2, 1232280, Note_on_c, 0, 68, 69
2, 1232443, Note_on_c, 0, 88, 0
2, 1232460, Note_on_c, 0, 86, 39
2, 1232623, Note_on_c, 0, 86, 0
2, 1232640, Note_on_c, 0, 88, 45
2, 1232803, Note_on_c, 0, 88, 0
2, 1232820, Note_on_c, 0, 86, 43
2, 1232820, Note_on_c, 0, 56, 48
2, 1232820, Note_on_c, 0, 60, 49
2, 1232983, Note_on_c, 0, 86, 0
2, 1233000, Note_on_c, 0, 84, 42
2, 1233163, Note_on_c, 0, 84, 0
2, 1233180, Note_on_c, 0, 86, 46
2, 1233307, Note_on_c, 0, 60, 0
2, 1233307, Note_on_c, 0, 56, 0
2, 1233343, Note_on_c, 0, 86, 0
2, 1233360, Note_on_c, 0, 68, 0
2, 1233360, Note_on_c, 0, 84, 48
2, 1233360, Note_on_c, 0, 88, 49
2, 1233360, Note_on_c, 0, 72, 69
2, 1233523, Note_on_c, 0, 88, 0
2, 1233523, Note_on_c, 0, 84, 0
2, 1233900, Note_on_c, 0, 89, 42
2, 1233900, Note_on_c, 0, 60, 49
2, 1233900, Note_on_c, 0, 64, 48
2, 1234063, Note_on_c, 0, 89, 0
2, 1234080, Note_on_c, 0, 88, 40
2, 1234243, Note_on_c, 0, 88, 0
2, 1234260, Note_on_c, 0, 89, 42
2, 1234387, Note_on_c, 0, 64, 0
2, 1234387, Note_on_c, 0, 60, 0
2, 1234423, Note_on_c, 0, 89, 0
2, 1234440, Note_on_c, 0, 72, 0
2, 1234440, Note_on_c, 0, 88, 43
2, 1234440, Note_on_c, 0, 76, 71
2, 1234603, Note_on_c, 0, 88, 0
2, 1234620, Note_on_c, 0, 86, 42
2, 1234783, Note_on_c, 0, 86, 0
2, 1234800, Note_on_c, 0, 88, 44
2, 1234963, Note_on_c, 0, 88, 0
2, 1234980, Note_on_c, 0, 86, 43
2, 1234980, Note_on_c, 0, 64, 47
2, 1234980, Note_on_c, 0, 67, 47
2, 1235143, Note_on_c, 0, 86, 0
2, 1235160, Note_on_c, 0, 84, 40
2, 1235323, Note_on_c, 0, 84, 0
2, 1235340, Note_on_c, 0, 86, 47
2, 1235467, Note_on_c, 0, 67, 0
2, 1235467, Note_on_c, 0, 64, 0
2, 1235503, Note_on_c, 0, 86, 0
2, 1235520, Note_on_c, 0, 76, 0
2, 1235520, Note_on_c, 0, 84, 48
2, 1235520, Note_on_c, 0, 88, 49
2, 1235520, Note_on_c, 0, 80, 67
2, 1235683, Note_on_c, 0, 88, 0
2, 1235683, Note_on_c, 0, 84, 0
2, 1235880, Note_on_c, 0, 88, 37
2, 1236043, Note_on_c, 0, 88, 0
2, 1236060, Note_on_c, 0, 89, 47
2, 1236060, Note_on_c, 0, 68, 46
2, 1236060, Note_on_c, 0, 72, 49
2, 1236223, Note_on_c, 0, 89, 0
2, 1236240, Note_on_c, 0, 88, 43
2, 1236403, Note_on_c, 0, 88, 0
2, 1236420, Note_on_c, 0, 89, 45
2, 1236547, Note_on_c, 0, 72, 0
2, 1236547, Note_on_c, 0, 68, 0
2, 1236583, Note_on_c, 0, 89, 0
2, 1236600, Note_on_c, 0, 80, 0
2, 1236600, Note_on_c, 0, 88, 44
2, 1236600, Note_on_c, 0, 76, 57
2, 1236763, Note_on_c, 0, 88, 0
2, 1236780, Note_on_c, 0, 86, 40
2, 1236943, Note_on_c, 0, 86, 0
2, 1236960, Note_on_c, 0, 88, 46
2, 1237123, Note_on_c, 0, 88, 0
2, 1237140, Note_on_c, 0, 86, 45
2, 1237140, Note_on_c, 0, 64, 49
2, 1237140, Note_on_c, 0, 68, 46
2, 1237303, Note_on_c, 0, 86, 0
2, 1237320, Note_on_c, 0, 84, 41
2, 1237483, Note_on_c, 0, 84, 0
2, 1237500, Note_on_c, 0, 86, 47
2, 1237627, Note_on_c, 0, 68, 0
2, 1237627, Note_on_c, 0, 64, 0
2, 1237663, Note_on_c, 0, 86, 0
2, 1237680, Note_on_c, 0, 76, 0
2, 1237680, Note_on_c, 0, 84, 46
2, 1237680, Note_on_c, 0, 88, 47
2, 1237680, Note_on_c, 0, 72, 55
2, 1237843, Note_on_c, 0, 88, 0
2, 1237843, Note_on_c, 0, 84, 0
2, 1238040, Note_on_c, 0, 88, 41
2, 1238203, Note_on_c, 0, 88, 0
2, 1238220, Note_on_c, 0, 89, 49
2, 1238220, Note_on_c, 0, 60, 49
2, 1238220, Note_on_c, 0, 67, 47
2, 1238383, Note_on_c, 0, 89, 0
2, 1238400, Note_on_c, 0, 88, 40
2, 1238563, Note_on_c, 0, 88, 0
2, 1238580, Note_on_c, 0, 89, 43
2, 1238707, Note_on_c, 0, 67, 0
2, 1238707, Note_on_c, 0, 60, 0
2, 1238743, Note_on_c, 0, 89, 0
2, 1238760, Note_on_c, 0, 72, 0
2, 1238760, Note_on_c, 0, 88, 43
2, 1238760, Note_on_c, 0, 67, 54
2, 1238923, Note_on_c, 0, 88, 0
2, 1238940, Note_on_c, 0, 86, 41
2, 1239103, Note_on_c, 0, 86, 0
2, 1239120, Note_on_c, 0, 88, 45
2, 1239283, Note_on_c, 0, 88, 0
2, 1239300, Note_on_c, 0, 86, 43
2, 1239300, Note_on_c, 0, 55, 47
2, 1239300, Note_on_c, 0, 60, 48
2, 1239463, Note_on_c, 0, 86, 0
2, 1239480, Note_on_c, 0, 84, 39
2, 1239643, Note_on_c, 0, 84, 0
2, 1239660, Note_on_c, 0, 86, 46
2, 1239787, Note_on_c, 0, 60, 0
2, 1239787, Note_on_c, 0, 55, 0
2, 1239823, Note_on_c, 0, 86, 0
2, 1239840, Note_on_c, 0, 67, 0
2, 1239840, Note_on_c, 0, 88, 48
2, 1239840, Note_on_c, 0, 64, 57
2, 1240003, Note_on_c, 0, 88, 0
2, 1240020, Note_on_c, 0, 89, 45
2, 1240183, Note_on_c, 0, 89, 0
2, 1240200, Note_on_c, 0, 88, 40
2, 1240363, Note_on_c, 0, 88, 0
2, 1240380, Note_on_c, 0, 89, 47
2, 1240380, Note_on_c, 0, 56, 47
2, 1240380, Note_on_c, 0, 60, 46
2, 1240543, Note_on_c, 0, 89, 0
2, 1240560, Note_on_c, 0, 88, 39
2, 1240723, Note_on_c, 0, 88, 0
2, 1240740, Note_on_c, 0, 89, 44
2, 1240867, Note_on_c, 0, 60, 0
2, 1240867, Note_on_c, 0, 56, 0
2, 1240903, Note_on_c, 0, 89, 0
2, 1240920, Note_on_c, 0, 64, 0
2, 1240920, Note_on_c, 0, 88, 42
2, 1240920, Note_on_c, 0, 68, 66
2, 1241083, Note_on_c, 0, 88, 0
2, 1241100, Note_on_c, 0, 86, 39
2, 1241263, Note_on_c, 0, 86, 0
2, 1241280, Note_on_c, 0, 88, 43
2, 1241443, Note_on_c, 0, 88, 0
2, 1241460, Note_on_c, 0, 96, 52
2, 1241460, Note_on_c, 0, 56, 47
2, 1241460, Note_on_c, 0, 60, 47
2, 1241623, Note_on_c, 0, 96, 0
2, 1241640, Note_on_c, 0, 88, 37
2, 1241803, Note_on_c, 0, 88, 0
2, 1241820, Note_on_c, 0, 86, 38
2, 1241947, Note_on_c, 0, 60, 0
2, 1241947, Note_on_c, 0, 56, 0
2, 1241983, Note_on_c, 0, 86, 0
2, 1242000, Note_on_c, 0, 68, 0
2, 1242000, Note_on_c, 0, 88, 45
2, 1242000, Note_on_c, 0, 72, 67
2, 1242163, Note_on_c, 0, 88, 0
2, 1242180, Note_on_c, 0, 89, 44
2, 1242343, Note_on_c, 0, 89, 0
2, 1242360, Note_on_c, 0, 88, 39
2, 1242523, Note_on_c, 0, 88, 0
2, 1242540, Note_on_c, 0, 89, 47
2, 1242540, Note_on_c, 0, 60, 48
2, 1242540, Note_on_c, 0, 64, 47
2, 1242703, Note_on_c, 0, 89, 0
2, 1242720, Note_on_c, 0, 88, 39
2, 1242883, Note_on_c, 0, 88, 0
2, 1242900, Note_on_c, 0, 89, 46
2, 1243027, Note_on_c, 0, 64, 0
2, 1243027, Note_on_c, 0, 60, 0
2, 1243063, Note_on_c, 0, 89, 0
2, 1243080, Note_on_c, 0, 72, 0
2, 1243080, Note_on_c, 0, 88, 45
2, 1243080, Note_on_c, 0, 76, 70
2, 1243243, Note_on_c, 0, 88, 0
2, 1243260, Note_on_c, 0, 86, 42
2, 1243423, Note_on_c, 0, 86, 0
2, 1243440, Note_on_c, 0, 88, 44
2, 1243603, Note_on_c, 0, 88, 0
2, 1243620, Note_on_c, 0, 96, 54
2, 1243620, Note_on_c, 0, 64, 47
2, 1243620, Note_on_c, 0, 67, 47
2, 1243783, Note_on_c, 0, 96, 0
2, 1243800, Note_on_c, 0, 88, 37
2, 1243963, Note_on_c, 0, 88, 0
2, 1243980, Note_on_c, 0, 86, 40
2, 1244107, Note_on_c, 0, 67, 0
2, 1244107, Note_on_c, 0, 64, 0
2, 1244143, Note_on_c, 0, 86, 0
2, 1244160, Note_on_c, 0, 76, 0
2, 1244160, Note_on_c, 0, 88, 49
2, 1244160, Note_on_c, 0, 80, 70
2, 1244323, Note_on_c, 0, 88, 0
2, 1244340, Note_on_c, 0, 89, 45
2, 1244503, Note_on_c, 0, 89, 0
2, 1244520, Note_on_c, 0, 88, 40
2, 1244683, Note_on_c, 0, 88, 0
2, 1244700, Note_on_c, 0, 89, 46
2, 1244700, Note_on_c, 0, 68, 48
2, 1244700, Note_on_c, 0, 72, 48
2, 1244863, Note_on_c, 0, 89, 0
2, 1244880, Note_on_c, 0, 88, 39
2, 1245043, Note_on_c, 0, 88, 0
2, 1245060, Note_on_c, 0, 89, 43
2, 1245187, Note_on_c, 0, 72, 0
2, 1245187, Note_on_c, 0, 68, 0
2, 1245223, Note_on_c, 0, 89, 0
2, 1245240, Note_on_c, 0, 80, 0
2, 1245240, Note_on_c, 0, 88, 44
2, 1245240, Note_on_c, 0, 76, 57
2, 1245403, Note_on_c, 0, 88, 0
2, 1245420, Note_on_c, 0, 86, 39
2, 1245583, Note_on_c, 0, 86, 0
2, 1245600, Note_on_c, 0, 88, 44
2, 1245763, Note_on_c, 0, 88, 0
2, 1245780, Note_on_c, 0, 96, 54
2, 1245780, Note_on_c, 0, 64, 48
2, 1245780, Note_on_c, 0, 68, 48
2, 1245943, Note_on_c, 0, 96, 0
2, 1245960, Note_on_c, 0, 88, 38
2, 1246123, Note_on_c, 0, 88, 0
2, 1246140, Note_on_c, 0, 86, 38
2, 1246267, Note_on_c, 0, 68, 0
2, 1246267, Note_on_c, 0, 64, 0
2, 1246303, Note_on_c, 0, 86, 0
2, 1246320, Note_on_c, 0, 76, 0
2, 1246320, Note_on_c, 0, 88, 48
2, 1246320, Note_on_c, 0, 72, 54
2, 1246483, Note_on_c, 0, 88, 0
2, 1246500, Note_on_c, 0, 89, 46
2, 1246663, Note_on_c, 0, 89, 0
2, 1246680, Note_on_c, 0, 88, 40
2, 1246843, Note_on_c, 0, 88, 0
2, 1246860, Note_on_c, 0, 89, 46
2, 1246860, Note_on_c, 0, 60, 48
2, 1246860, Note_on_c, 0, 64, 48
2, 1247023, Note_on_c, 0, 89, 0
2, 1247040, Note_on_c, 0, 88, 41
2, 1247203, Note_on_c, 0, 88, 0
2, 1247220, Note_on_c, 0, 89, 44
2, 1247347, Note_on_c, 0, 64, 0
2, 1247347, Note_on_c, 0, 60, 0
2, 1247383, Note_on_c, 0, 89, 0
2, 1247400, Note_on_c, 0, 72, 0
2, 1247400, Note_on_c, 0, 88, 45
2, 1247400, Note_on_c, 0, 67, 51
2, 1247563, Note_on_c, 0, 88, 0
2, 1247580, Note_on_c, 0, 86, 41
2, 1247743, Note_on_c, 0, 86, 0
2, 1247760, Note_on_c, 0, 88, 47
2, 1247923, Note_on_c, 0, 88, 0
2, 1247940, Note_on_c, 0, 96, 51
2, 1247940, Note_on_c, 0, 55, 47
2, 1247940, Note_on_c, 0, 60, 47
2, 1248103, Note_on_c, 0, 96, 0
2, 1248120, Note_on_c, 0, 88, 37
2, 1248283, Note_on_c, 0, 88, 0
2, 1248300, Note_on_c, 0, 84, 36
2, 1248427, Note_on_c, 0, 60, 0
2, 1248427, Note_on_c, 0, 55, 0
2, 1248463, Note_on_c, 0, 84, 0
2, 1248480, Note_on_c, 0, 67, 0
2, 1248480, Note_on_c, 0, 96, 53
2, 1248480, Note_on_c, 0, 96, 46
2, 1248480, Note_on_c, 0, 72, 61
2, 1248480, Note_on_c, 0, 72, 69
2, 1248643, Note_on_c, 0, 72, 0
2, 1248643, Note_on_c, 0, 96, 0
2, 1248660, Note_on_c, 0, 87, 35
2, 1248660, Note_on_c, 0, 63, 45
2, 1248823, Note_on_c, 0, 63, 0
2, 1248823, Note_on_c, 0, 87, 0
2, 1248840, Note_on_c, 0, 84, 39
2, 1248840, Note_on_c, 0, 60, 47
2, 1248967, Note_on_c, 0, 96, 0
2, 1248967, Note_on_c, 0, 72, 0
2, 1249003, Note_on_c, 0, 84, 0
2, 1249003, Note_on_c, 0, 60, 0
2, 1249020, Note_on_c, 0, 92, 51
2, 1249020, Note_on_c, 0, 92, 37
2, 1249020, Note_on_c, 0, 68, 65
2, 1249020, Note_on_c, 0, 68, 48
2, 1249183, Note_on_c, 0, 68, 0
2, 1249183, Note_on_c, 0, 92, 0
2, 1249200, Note_on_c, 0, 84, 38
2, 1249200, Note_on_c, 0, 60, 44
2, 1249363, Note_on_c, 0, 60, 0
2, 1249363, Note_on_c, 0, 84, 0
2, 1249380, Note_on_c, 0, 80, 36
2, 1249380, Note_on_c, 0, 56, 47
2, 1249507, Note_on_c, 0, 92, 0
2, 1249507, Note_on_c, 0, 68, 0
2, 1249543, Note_on_c, 0, 80, 0
2, 1249543, Note_on_c, 0, 56, 0
2, 1249560, Note_on_c, 0, 92, 55
2, 1249560, Note_on_c, 0, 92, 44
2, 1249560, Note_on_c, 0, 68, 69
2, 1249560, Note_on_c, 0, 68, 56
2, 1249723, Note_on_c, 0, 68, 0
2, 1249723, Note_on_c, 0, 92, 0
2, 1249740, Note_on_c, 0, 84, 37
2, 1249740, Note_on_c, 0, 60, 45
2, 1249903, Note_on_c, 0, 60, 0
2, 1249903, Note_on_c, 0, 84, 0
2, 1249920, Note_on_c, 0, 80, 37
2, 1249920, Note_on_c, 0, 56, 47
2, 1250047, Note_on_c, 0, 92, 0
2, 1250047, Note_on_c, 0, 68, 0
2, 1250083, Note_on_c, 0, 80, 0
2, 1250083, Note_on_c, 0, 56, 0
2, 1250100, Note_on_c, 0, 94, 56
2, 1250100, Note_on_c, 0, 94, 44
2, 1250100, Note_on_c, 0, 70, 69
2, 1250100, Note_on_c, 0, 70, 56
2, 1250263, Note_on_c, 0, 70, 0
2, 1250263, Note_on_c, 0, 94, 0
2, 1250280, Note_on_c, 0, 85, 35
2, 1250280, Note_on_c, 0, 61, 44
2, 1250443, Note_on_c, 0, 61, 0
2, 1250443, Note_on_c, 0, 85, 0
2, 1250460, Note_on_c, 0, 82, 40
2, 1250460, Note_on_c, 0, 58, 48
2, 1250587, Note_on_c, 0, 94, 0
2, 1250587, Note_on_c, 0, 70, 0
2, 1250623, Note_on_c, 0, 82, 0
2, 1250623, Note_on_c, 0, 58, 0
2, 1250640, Note_on_c, 0, 96, 54
2, 1250640, Note_on_c, 0, 96, 48
2, 1250640, Note_on_c, 0, 72, 69
2, 1250640, Note_on_c, 0, 72, 60
2, 1250803, Note_on_c, 0, 72, 0
2, 1250803, Note_on_c, 0, 96, 0
2, 1250820, Note_on_c, 0, 87, 38
2, 1250820, Note_on_c, 0, 63, 45
2, 1250983, Note_on_c, 0, 63, 0
2, 1250983, Note_on_c, 0, 87, 0
2, 1251000, Note_on_c, 0, 84, 39
2, 1251000, Note_on_c, 0, 60, 48
2, 1251127, Note_on_c, 0, 96, 0
2, 1251127, Note_on_c, 0, 72, 0
2, 1251163, Note_on_c, 0, 84, 0
2, 1251163, Note_on_c, 0, 60, 0
2, 1251180, Note_on_c, 0, 92, 53
2, 1251180, Note_on_c, 0, 92, 38
2, 1251180, Note_on_c, 0, 68, 65
2, 1251180, Note_on_c, 0, 68, 50
2, 1251343, Note_on_c, 0, 68, 0
2, 1251343, Note_on_c, 0, 92, 0
2, 1251360, Note_on_c, 0, 84, 35
2, 1251360, Note_on_c, 0, 60, 46
2, 1251523, Note_on_c, 0, 60, 0
2, 1251523, Note_on_c, 0, 84, 0
2, 1251540, Note_on_c, 0, 80, 39
2, 1251540, Note_on_c, 0, 56, 44
2, 1251667, Note_on_c, 0, 92, 0
2, 1251667, Note_on_c, 0, 68, 0
2, 1251703, Note_on_c, 0, 80, 0
2, 1251703, Note_on_c, 0, 56, 0
2, 1251720, Note_on_c, 0, 92, 55
2, 1251720, Note_on_c, 0, 92, 46
2, 1251720, Note_on_c, 0, 68, 67
2, 1251720, Note_on_c, 0, 68, 54
2, 1251883, Note_on_c, 0, 68, 0
2, 1251883, Note_on_c, 0, 92, 0
2, 1251900, Note_on_c, 0, 84, 35
2, 1251900, Note_on_c, 0, 60, 43
2, 1252063, Note_on_c, 0, 60, 0
2, 1252063, Note_on_c, 0, 84, 0
2, 1252080, Note_on_c, 0, 80, 38
2, 1252080, Note_on_c, 0, 56, 45
2, 1252207, Note_on_c, 0, 92, 0
2, 1252207, Note_on_c, 0, 68, 0
2, 1252243, Note_on_c, 0, 80, 0
2, 1252243, Note_on_c, 0, 56, 0
2, 1252260, Note_on_c, 0, 94, 55
2, 1252260, Note_on_c, 0, 94, 45
2, 1252260, Note_on_c, 0, 70, 69
2, 1252260, Note_on_c, 0, 70, 54
2, 1252423, Note_on_c, 0, 70, 0
2, 1252423, Note_on_c, 0, 94, 0
2, 1252440, Note_on_c, 0, 85, 35
2, 1252440, Note_on_c, 0, 61, 44
2, 1252603, Note_on_c, 0, 61, 0
2, 1252603, Note_on_c, 0, 85, 0
2, 1252620, Note_on_c, 0, 82, 38
2, 1252620, Note_on_c, 0, 58, 49
2, 1252747, Note_on_c, 0, 94, 0
2, 1252747, Note_on_c, 0, 70, 0
2, 1252783, Note_on_c, 0, 82, 0
2, 1252783, Note_on_c, 0, 58, 0
2, 1252800, Note_on_c, 0, 96, 54
2, 1252800, Note_on_c, 0, 96, 49
2, 1252800, Note_on_c, 0, 72, 66
2, 1252800, Note_on_c, 0, 72, 57
2, 1252963, Note_on_c, 0, 72, 0
2, 1252963, Note_on_c, 0, 96, 0
2, 1252980, Note_on_c, 0, 89, 37
2, 1252980, Note_on_c, 0, 65, 44
2, 1253143, Note_on_c, 0, 65, 0
2, 1253143, Note_on_c, 0, 89, 0
2, 1253160, Note_on_c, 0, 84, 38
2, 1253160, Note_on_c, 0, 60, 46
2, 1253287, Note_on_c, 0, 96, 0
2, 1253287, Note_on_c, 0, 72, 0
2, 1253323, Note_on_c, 0, 84, 0
2, 1253323, Note_on_c, 0, 60, 0
2, 1253340, Note_on_c, 0, 92, 53
2, 1253340, Note_on_c, 0, 92, 38
2, 1253340, Note_on_c, 0, 68, 66
2, 1253340, Note_on_c, 0, 68, 46
2, 1253503, Note_on_c, 0, 68, 0
2, 1253503, Note_on_c, 0, 92, 0
2, 1253520, Note_on_c, 0, 89, 39
2, 1253520, Note_on_c, 0, 65, 49
2, 1253683, Note_on_c, 0, 65, 0
2, 1253683, Note_on_c, 0, 89, 0
2, 1253700, Note_on_c, 0, 80, 35
2, 1253700, Note_on_c, 0, 56, 42
2, 1253827, Note_on_c, 0, 92, 0
2, 1253827, Note_on_c, 0, 68, 0
2, 1253863, Note_on_c, 0, 80, 0
2, 1253863, Note_on_c, 0, 56, 0
2, 1253880, Note_on_c, 0, 92, 56
2, 1253880, Note_on_c, 0, 92, 46
2, 1253880, Note_on_c, 0, 68, 67
2, 1253880, Note_on_c, 0, 68, 55
2, 1254043, Note_on_c, 0, 68, 0
2, 1254043, Note_on_c, 0, 92, 0
2, 1254060, Note_on_c, 0, 89, 40
2, 1254060, Note_on_c, 0, 65, 49
2, 1254223, Note_on_c, 0, 65, 0
2, 1254223, Note_on_c, 0, 89, 0
2, 1254240, Note_on_c, 0, 80, 34
2, 1254240, Note_on_c, 0, 56, 41
2, 1254367, Note_on_c, 0, 92, 0
2, 1254367, Note_on_c, 0, 68, 0
2, 1254403, Note_on_c, 0, 80, 0
2, 1254403, Note_on_c, 0, 56, 0
2, 1254420, Note_on_c, 0, 94, 53
2, 1254420, Note_on_c, 0, 94, 45
2, 1254420, Note_on_c, 0, 70, 65
2, 1254420, Note_on_c, 0, 70, 55
2, 1254583, Note_on_c, 0, 70, 0
2, 1254583, Note_on_c, 0, 94, 0
2, 1254600, Note_on_c, 0, 89, 39
2, 1254600, Note_on_c, 0, 65, 49
2, 1254763, Note_on_c, 0, 65, 0
2, 1254763, Note_on_c, 0, 89, 0
2, 1254780, Note_on_c, 0, 82, 36
2, 1254780, Note_on_c, 0, 58, 44
2, 1254907, Note_on_c, 0, 94, 0
2, 1254907, Note_on_c, 0, 70, 0
2, 1254943, Note_on_c, 0, 82, 0
2, 1254943, Note_on_c, 0, 58, 0
2, 1254960, Note_on_c, 0, 96, 54
2, 1254960, Note_on_c, 0, 96, 49
2, 1254960, Note_on_c, 0, 72, 67
2, 1254960, Note_on_c, 0, 72, 60
2, 1255123, Note_on_c, 0, 72, 0
2, 1255123, Note_on_c, 0, 96, 0
2, 1255140, Note_on_c, 0, 89, 36
2, 1255140, Note_on_c, 0, 65, 46
2, 1255303, Note_on_c, 0, 65, 0
2, 1255303, Note_on_c, 0, 89, 0
2, 1255320, Note_on_c, 0, 84, 36
2, 1255320, Note_on_c, 0, 60, 43
2, 1255447, Note_on_c, 0, 96, 0
2, 1255447, Note_on_c, 0, 72, 0
2, 1255483, Note_on_c, 0, 84, 0
2, 1255483, Note_on_c, 0, 60, 0
2, 1255500, Note_on_c, 0, 92, 52
2, 1255500, Note_on_c, 0, 92, 38
2, 1255500, Note_on_c, 0, 68, 65
2, 1255500, Note_on_c, 0, 68, 49
2, 1255663, Note_on_c, 0, 68, 0
2, 1255663, Note_on_c, 0, 92, 0
2, 1255680, Note_on_c, 0, 89, 42
2, 1255680, Note_on_c, 0, 65, 51
2, 1255843, Note_on_c, 0, 65, 0
2, 1255843, Note_on_c, 0, 89, 0
2, 1255860, Note_on_c, 0, 80, 34
2, 1255860, Note_on_c, 0, 56, 44
2, 1255987, Note_on_c, 0, 92, 0
2, 1255987, Note_on_c, 0, 68, 0
2, 1256023, Note_on_c, 0, 80, 0
2, 1256023, Note_on_c, 0, 56, 0
2, 1256040, Note_on_c, 0, 92, 55
2, 1256040, Note_on_c, 0, 92, 44
2, 1256040, Note_on_c, 0, 68, 68
2, 1256040, Note_on_c, 0, 68, 55
2, 1256203, Note_on_c, 0, 68, 0
2, 1256203, Note_on_c, 0, 92, 0
2, 1256220, Note_on_c, 0, 89, 42
2, 1256220, Note_on_c, 0, 65, 49
2, 1256383, Note_on_c, 0, 65, 0
2, 1256383, Note_on_c, 0, 89, 0
2, 1256400, Note_on_c, 0, 80, 33
2, 1256400, Note_on_c, 0, 56, 44
2, 1256527, Note_on_c, 0, 92, 0
2, 1256527, Note_on_c, 0, 68, 0
2, 1256563, Note_on_c, 0, 80, 0
2, 1256563, Note_on_c, 0, 56, 0
2, 1256580, Note_on_c, 0, 94, 53
2, 1256580, Note_on_c, 0, 94, 47
2, 1256580, Note_on_c, 0, 70, 68
2, 1256580, Note_on_c, 0, 70, 55
2, 1256743, Note_on_c, 0, 70, 0
2, 1256743, Note_on_c, 0, 94, 0
2, 1256760, Note_on_c, 0, 89, 37
2, 1256760, Note_on_c, 0, 65, 48
2, 1256923, Note_on_c, 0, 65, 0
2, 1256923, Note_on_c, 0, 89, 0
2, 1256940, Note_on_c, 0, 82, 34
2, 1256940, Note_on_c, 0, 58, 42
2, 1257067, Note_on_c, 0, 94, 0
2, 1257067, Note_on_c, 0, 70, 0
2, 1257103, Note_on_c, 0, 82, 0
2, 1257103, Note_on_c, 0, 58, 0
2, 1257120, Note_on_c, 0, 96, 54
2, 1257120, Note_on_c, 0, 60, 67
2, 1257120, Note_on_c, 0, 65, 69
2, 1257120, Note_on_c, 0, 72, 67
2, 1257283, Note_on_c, 0, 72, 0
2, 1257283, Note_on_c, 0, 60, 0
2, 1257283, Note_on_c, 0, 96, 0
2, 1257283, Note_on_c, 0, 65, 0
2, 1257300, Note_on_c, 0, 89, 39
2, 1257463, Note_on_c, 0, 89, 0
2, 1257480, Note_on_c, 0, 88, 39
2, 1257643, Note_on_c, 0, 88, 0
2, 1257660, Note_on_c, 0, 89, 48
2, 1257660, Note_on_c, 0, 53, 47
2, 1257660, Note_on_c, 0, 56, 48
2, 1257660, Note_on_c, 0, 60, 47
2, 1257660, Note_on_c, 0, 65, 49
2, 1257823, Note_on_c, 0, 89, 0
2, 1257840, Note_on_c, 0, 91, 47
2, 1258003, Note_on_c, 0, 91, 0
2, 1258020, Note_on_c, 0, 89, 40
2, 1258183, Note_on_c, 0, 89, 0
2, 1258200, Note_on_c, 0, 92, 48
2, 1258363, Note_on_c, 0, 92, 0
2, 1258380, Note_on_c, 0, 84, 33
2, 1258543, Note_on_c, 0, 84, 0
2, 1258560, Note_on_c, 0, 83, 41
2, 1258687, Note_on_c, 0, 65, 0
2, 1258687, Note_on_c, 0, 53, 0
2, 1258687, Note_on_c, 0, 60, 0
2, 1258687, Note_on_c, 0, 56, 0
2, 1258723, Note_on_c, 0, 83, 0
2, 1258740, Note_on_c, 0, 84, 46
2, 1258740, Note_on_c, 0, 68, 66
2, 1258740, Note_on_c, 0, 72, 65
2, 1258740, Note_on_c, 0, 77, 64
2, 1258740, Note_on_c, 0, 80, 67
2, 1258903, Note_on_c, 0, 84, 0
2, 1258920, Note_on_c, 0, 85, 43
2, 1259083, Note_on_c, 0, 85, 0
2, 1259100, Note_on_c, 0, 84, 43
2, 1259263, Note_on_c, 0, 84, 0
2, 1259280, Note_on_c, 0, 89, 54
2, 1259443, Note_on_c, 0, 89, 0
2, 1259443, Note_on_c, 0, 80, 0
2, 1259443, Note_on_c, 0, 72, 0
2, 1259443, Note_on_c, 0, 68, 0
2, 1259443, Note_on_c, 0, 77, 0
2, 1259460, Note_on_c, 0, 80, 36
2, 1259623, Note_on_c, 0, 80, 0
2, 1259640, Note_on_c, 0, 79, 39
2, 1259803, Note_on_c, 0, 79, 0
2, 1259820, Note_on_c, 0, 80, 46
2, 1259820, Note_on_c, 0, 65, 47
2, 1259820, Note_on_c, 0, 68, 49
2, 1259820, Note_on_c, 0, 72, 47
2, 1259820, Note_on_c, 0, 77, 48
2, 1259983, Note_on_c, 0, 80, 0
2, 1260000, Note_on_c, 0, 82, 43
2, 1260163, Note_on_c, 0, 82, 0
2, 1260180, Note_on_c, 0, 79, 42
2, 1260343, Note_on_c, 0, 79, 0
2, 1260360, Note_on_c, 0, 84, 48
2, 1260523, Note_on_c, 0, 84, 0
2, 1260523, Note_on_c, 0, 77, 0
2, 1260523, Note_on_c, 0, 68, 0
2, 1260523, Note_on_c, 0, 65, 0
2, 1260523, Note_on_c, 0, 72, 0
2, 1260540, Note_on_c, 0, 77, 35
2, 1260703, Note_on_c, 0, 77, 0
2, 1260720, Note_on_c, 0, 76, 41
2, 1260883, Note_on_c, 0, 76, 0
2, 1260900, Note_on_c, 0, 77, 49
2, 1260900, Note_on_c, 0, 60, 48
2, 1260900, Note_on_c, 0, 65, 48
2, 1260900, Note_on_c, 0, 68, 47
2, 1260900, Note_on_c, 0, 72, 48
2, 1261063, Note_on_c, 0, 77, 0
2, 1261080, Note_on_c, 0, 79, 46
2, 1261243, Note_on_c, 0, 79, 0
2, 1261260, Note_on_c, 0, 77, 40
2, 1261423, Note_on_c, 0, 77, 0
2, 1261440, Note_on_c, 0, 80, 48
2, 1261603, Note_on_c, 0, 80, 0
2, 1261603, Note_on_c, 0, 72, 0
2, 1261603, Note_on_c, 0, 65, 0
2, 1261603, Note_on_c, 0, 60, 0
2, 1261603, Note_on_c, 0, 68, 0
2, 1261620, Note_on_c, 0, 72, 34
2, 1261783, Note_on_c, 0, 72, 0
2, 1261800, Note_on_c, 0, 71, 41
2, 1261963, Note_on_c, 0, 71, 0
2, 1261980, Note_on_c, 0, 72, 47
2, 1261980, Note_on_c, 0, 56, 48
2, 1261980, Note_on_c, 0, 60, 49
2, 1261980, Note_on_c, 0, 65, 50
2, 1261980, Note_on_c, 0, 68, 48
2, 1262143, Note_on_c, 0, 72, 0
2, 1262160, Note_on_c, 0, 74, 45
2, 1262323, Note_on_c, 0, 74, 0
2, 1262340, Note_on_c, 0, 72, 39
2, 1262503, Note_on_c, 0, 72, 0
2, 1262520, Note_on_c, 0, 77, 51
2, 1262683, Note_on_c, 0, 77, 0
2, 1262683, Note_on_c, 0, 68, 0
2, 1262683, Note_on_c, 0, 60, 0
2, 1262683, Note_on_c, 0, 56, 0
2, 1262683, Note_on_c, 0, 65, 0
2, 1262700, Note_on_c, 0, 68, 35
2, 1262863, Note_on_c, 0, 68, 0
2, 1262880, Note_on_c, 0, 67, 39
2, 1263043, Note_on_c, 0, 67, 0
2, 1263060, Note_on_c, 0, 68, 46
2, 1263060, Note_on_c, 0, 53, 49
2, 1263060, Note_on_c, 0, 56, 48
2, 1263060, Note_on_c, 0, 60, 46
2, 1263060, Note_on_c, 0, 65, 48
2, 1263223, Note_on_c, 0, 68, 0
2, 1263240, Note_on_c, 0, 70, 46
2, 1263403, Note_on_c, 0, 70, 0
2, 1263420, Note_on_c, 0, 67, 42
2, 1263583, Note_on_c, 0, 67, 0
2, 1263600, Note_on_c, 0, 72, 49
2, 1263763, Note_on_c, 0, 72, 0
2, 1263763, Note_on_c, 0, 65, 0
2, 1263763, Note_on_c, 0, 56, 0
2, 1263763, Note_on_c, 0, 53, 0
2, 1263763, Note_on_c, 0, 60, 0
2, 1263780, Note_on_c, 0, 63, 35
2, 1263943, Note_on_c, 0, 63, 0
2, 1263960, Note_on_c, 0, 62, 38
2, 1264123, Note_on_c, 0, 62, 0
2, 1264140, Note_on_c, 0, 63, 49
2, 1264140, Note_on_c, 0, 48, 47
2, 1264140, Note_on_c, 0, 51, 47
2, 1264140, Note_on_c, 0, 56, 49
2, 1264140, Note_on_c, 0, 60, 50
2, 1264303, Note_on_c, 0, 63, 0
2, 1264320, Note_on_c, 0, 65, 46
2, 1264483, Note_on_c, 0, 65, 0
2, 1264500, Note_on_c, 0, 63, 40
2, 1264663, Note_on_c, 0, 63, 0
2, 1264680, Note_on_c, 0, 68, 50
2, 1264843, Note_on_c, 0, 68, 0
2, 1264843, Note_on_c, 0, 60, 0
2, 1264843, Note_on_c, 0, 51, 0
2, 1264843, Note_on_c, 0, 48, 0
2, 1264843, Note_on_c, 0, 56, 0
2, 1264860, Note_on_c, 0, 60, 34
2, 1265023, Note_on_c, 0, 60, 0
2, 1265040, Note_on_c, 0, 59, 42
2, 1265203, Note_on_c, 0, 59, 0
2, 1265220, Note_on_c, 0, 60, 49
2, 1265220, Note_on_c, 0, 48, 48
2, 1265220, Note_on_c, 0, 51, 49
2, 1265220, Note_on_c, 0, 56, 48
2, 1265383, Note_on_c, 0, 60, 0
2, 1265400, Note_on_c, 0, 62, 45
2, 1265563, Note_on_c, 0, 62, 0
2, 1265580, Note_on_c, 0, 60, 41
2, 1265707, Note_on_c, 0, 56, 0
2, 1265707, Note_on_c, 0, 48, 0
2, 1265707, Note_on_c, 0, 51, 0
2, 1265743, Note_on_c, 0, 60, 0
2, 1265760, Note_on_c, 0, 60, 55
2, 1265760, Note_on_c, 0, 63, 57
2, 1265760, Note_on_c, 0, 67, 57
2, 1265760, Note_on_c, 0, 72, 55
2, 1265760, Note_on_c, 0, 43, 53
2, 1265760, Note_on_c, 0, 48, 51
2, 1265760, Note_on_c, 0, 51, 53
2, 1265760, Note_on_c, 0, 55, 55
2, 1265923, Note_on_c, 0, 55, 0
2, 1265923, Note_on_c, 0, 60, 0
2, 1265923, Note_on_c, 0, 63, 0
2, 1265923, Note_on_c, 0, 51, 0
2, 1265923, Note_on_c, 0, 67, 0
2, 1265923, Note_on_c, 0, 43, 0
2, 1265923, Note_on_c, 0, 48, 0
2, 1265923, Note_on_c, 0, 72, 0
2, 1266300, Note_on_c, 0, 31, 53
2, 1266300, Note_on_c, 0, 43, 51
2, 1267327, Note_on_c, 0, 43, 0
2, 1267327, Note_on_c, 0, 31, 0
2, 1267380, Note_on_c, 0, 31, 52
2, 1267380, Note_on_c, 0, 43, 54
2, 1267646, Note_on_c, 0, 43, 0
2, 1267646, Note_on_c, 0, 31, 0
2, 1267920, Note_on_c, 0, 31, 56
2, 1267920, Note_on_c, 0, 43, 57
2, 1268097, Note_on_c, 0, 43, 0
2, 1268097, Note_on_c, 0, 31, 0
2, 1268460, Note_on_c, 0, 31, 53
2, 1268460, Note_on_c, 0, 43, 51
2, 1269487, Note_on_c, 0, 43, 0
2, 1269487, Note_on_c, 0, 31, 0
2, 1269540, Note_on_c, 0, 43, 58
2, 1269703, Note_on_c, 0, 43, 0
2, 1269720, Note_on_c, 0, 31, 39
2, 1269883, Note_on_c, 0, 31, 0
2, 1269900, Note_on_c, 0, 43, 64
2, 1270080, Note_on_c, 0, 31, 57
2, 1270620, Note_on_c, 0, 55, 43
2, 1270783, Note_on_c, 0, 55, 0
2, 1270800, Note_on_c, 0, 53, 41
2, 1270963, Note_on_c, 0, 53, 0
2, 1270980, Note_on_c, 0, 55, 44
2, 1271143, Note_on_c, 0, 55, 0
2, 1271160, Note_on_c, 0, 56, 50
2, 1271485, Note_on_c, 0, 56, 0
2, 1271520, Note_on_c, 0, 56, 44
2, 1271683, Note_on_c, 0, 56, 0
2, 1271700, Note_on_c, 0, 58, 44
2, 1272025, Note_on_c, 0, 58, 0
2, 1272060, Note_on_c, 0, 58, 42
2, 1272223, Note_on_c, 0, 58, 0
2, 1272240, Note_on_c, 0, 55, 47
2, 1272780, Note_on_c, 0, 55, 0
2, 1272780, Note_on_c, 0, 51, 39
2, 1273105, Note_on_c, 0, 51, 0
2, 1273140, Note_on_c, 0, 51, 43
2, 1273303, Note_on_c, 0, 51, 0
2, 1273320, Note_on_c, 0, 50, 45
2, 1273645, Note_on_c, 0, 50, 0
2, 1273680, Note_on_c, 0, 50, 43
2, 1273843, Note_on_c, 0, 50, 0
2, 1273860, Note_on_c, 0, 47, 37
2, 1274185, Note_on_c, 0, 47, 0
2, 1274220, Note_on_c, 0, 47, 43
2, 1274330, Note_on_c, 0, 43, 0
2, 1274330, Note_on_c, 0, 31, 0
2, 1274383, Note_on_c, 0, 47, 0
2, 1274400, Note_on_c, 0, 48, 46
2, 1274400, Note_on_c, 0, 31, 43
2, 1274725, Note_on_c, 0, 48, 0
2, 1274760, Note_on_c, 0, 47, 39
2, 1274923, Note_on_c, 0, 47, 0
2, 1274940, Note_on_c, 0, 48, 48
2, 1275103, Note_on_c, 0, 48, 0
2, 1275120, Note_on_c, 0, 47, 40
2, 1275283, Note_on_c, 0, 47, 0
2, 1275300, Note_on_c, 0, 48, 45
2, 1275463, Note_on_c, 0, 48, 0
2, 1275480, Note_on_c, 0, 50, 49
2, 1275805, Note_on_c, 0, 50, 0
2, 1275840, Note_on_c, 0, 50, 44
2, 1276003, Note_on_c, 0, 50, 0
2, 1276020, Note_on_c, 0, 51, 44
2, 1276345, Note_on_c, 0, 51, 0
2, 1276380, Note_on_c, 0, 51, 42
2, 1276543, Note_on_c, 0, 51, 0
2, 1276560, Note_on_c, 0, 48, 41
2, 1276885, Note_on_c, 0, 48, 0
2, 1276920, Note_on_c, 0, 48, 43
2, 1277083, Note_on_c, 0, 48, 0
2, 1277100, Note_on_c, 0, 43, 38
2, 1277425, Note_on_c, 0, 43, 0
2, 1277460, Note_on_c, 0, 43, 40
2, 1277623, Note_on_c, 0, 43, 0
2, 1277640, Note_on_c, 0, 41, 41
2, 1277965, Note_on_c, 0, 41, 0
2, 1278000, Note_on_c, 0, 41, 40
2, 1278163, Note_on_c, 0, 41, 0
2, 1278180, Note_on_c, 0, 38, 40
2, 1278505, Note_on_c, 0, 38, 0
2, 1278540, Note_on_c, 0, 38, 42
2, 1278650, Note_on_c, 0, 31, 0
2, 1278703, Note_on_c, 0, 38, 0
2, 1278720, Note_on_c, 0, 31, 98
2, 1278720, Note_on_c, 0, 43, 99
2, 1280160, Note_on_c, 0, 48, 39
2, 1280249, Note_on_c, 0, 48, 0
2, 1280340, Note_on_c, 0, 48, 48
2, 1281146, Note_on_c, 0, 48, 0
2, 1281420, Note_on_c, 0, 55, 47
2, 1281583, Note_on_c, 0, 55, 0
2, 1281780, Note_on_c, 0, 55, 40
2, 1281943, Note_on_c, 0, 55, 0
2, 1281960, Note_on_c, 0, 56, 48
2, 1282123, Note_on_c, 0, 56, 0
2, 1282140, Note_on_c, 0, 55, 42
2, 1282303, Note_on_c, 0, 55, 0
2, 1282320, Note_on_c, 0, 56, 42
2, 1282483, Note_on_c, 0, 56, 0
2, 1282500, Note_on_c, 0, 55, 39
2, 1283203, Note_on_c, 0, 55, 0
2, 1283580, Note_on_c, 0, 64, 41
2, 1283580, Note_on_c, 0, 70, 43
2, 1283580, Note_on_c, 0, 72, 42
2, 1283823, Note_on_c, 0, 72, 0
2, 1283823, Note_on_c, 0, 64, 0
2, 1283823, Note_on_c, 0, 70, 0
2, 1283850, Note_on_c, 0, 65, 42
2, 1283850, Note_on_c, 0, 70, 45
2, 1283850, Note_on_c, 0, 74, 45
2, 1284093, Note_on_c, 0, 74, 0
2, 1284093, Note_on_c, 0, 65, 0
2, 1284093, Note_on_c, 0, 70, 0
2, 1284120, Note_on_c, 0, 67, 47
2, 1284120, Note_on_c, 0, 70, 49
2, 1284120, Note_on_c, 0, 76, 48
2, 1284254, Note_on_c, 0, 76, 0
2, 1284254, Note_on_c, 0, 67, 0
2, 1284254, Note_on_c, 0, 70, 0
2, 1284390, Note_on_c, 0, 67, 43
2, 1284390, Note_on_c, 0, 70, 41
2, 1284390, Note_on_c, 0, 76, 41
2, 1284524, Note_on_c, 0, 76, 0
2, 1284524, Note_on_c, 0, 67, 0
2, 1284524, Note_on_c, 0, 70, 0
2, 1284660, Note_on_c, 0, 67, 45
2, 1284660, Note_on_c, 0, 70, 46
2, 1284660, Note_on_c, 0, 76, 45
2, 1284794, Note_on_c, 0, 76, 0
2, 1284794, Note_on_c, 0, 67, 0
2, 1284794, Note_on_c, 0, 70, 0
2, 1284930, Note_on_c, 0, 68, 45
2, 1284930, Note_on_c, 0, 70, 45
2, 1284930, Note_on_c, 0, 77, 42
2, 1285064, Note_on_c, 0, 77, 0
2, 1285064, Note_on_c, 0, 68, 0
2, 1285064, Note_on_c, 0, 70, 0
2, 1285200, Note_on_c, 0, 67, 43
2, 1285200, Note_on_c, 0, 70, 44
2, 1285200, Note_on_c, 0, 76, 43
2, 1285334, Note_on_c, 0, 76, 0
2, 1285334, Note_on_c, 0, 67, 0
2, 1285334, Note_on_c, 0, 70, 0
2, 1285470, Note_on_c, 0, 67, 41
2, 1285470, Note_on_c, 0, 70, 45
2, 1285470, Note_on_c, 0, 76, 43
2, 1285604, Note_on_c, 0, 76, 0
2, 1285604, Note_on_c, 0, 67, 0
2, 1285604, Note_on_c, 0, 70, 0
2, 1285740, Note_on_c, 0, 67, 47
2, 1285740, Note_on_c, 0, 70, 46
2, 1285740, Note_on_c, 0, 76, 46
2, 1285874, Note_on_c, 0, 76, 0
2, 1285874, Note_on_c, 0, 67, 0
2, 1285874, Note_on_c, 0, 70, 0
2, 1286010, Note_on_c, 0, 64, 37
2, 1286010, Note_on_c, 0, 70, 40
2, 1286010, Note_on_c, 0, 72, 37
2, 1286144, Note_on_c, 0, 72, 0
2, 1286144, Note_on_c, 0, 64, 0
2, 1286144, Note_on_c, 0, 70, 0
2, 1286280, Note_on_c, 0, 65, 45
2, 1286280, Note_on_c, 0, 70, 47
2, 1286280, Note_on_c, 0, 73, 46
2, 1286414, Note_on_c, 0, 73, 0
2, 1286414, Note_on_c, 0, 65, 0
2, 1286414, Note_on_c, 0, 70, 0
2, 1286550, Note_on_c, 0, 65, 41
2, 1286550, Note_on_c, 0, 70, 43
2, 1286550, Note_on_c, 0, 73, 43
2, 1286684, Note_on_c, 0, 73, 0
2, 1286684, Note_on_c, 0, 65, 0
2, 1286684, Note_on_c, 0, 70, 0
2, 1286820, Note_on_c, 0, 65, 46
2, 1286820, Note_on_c, 0, 70, 47
2, 1286820, Note_on_c, 0, 73, 47
2, 1286954, Note_on_c, 0, 73, 0
2, 1286954, Note_on_c, 0, 65, 0
2, 1286954, Note_on_c, 0, 70, 0
2, 1287090, Note_on_c, 0, 61, 40
2, 1287090, Note_on_c, 0, 70, 38
2, 1287224, Note_on_c, 0, 70, 0
2, 1287224, Note_on_c, 0, 61, 0
2, 1287360, Note_on_c, 0, 64, 48
2, 1287360, Note_on_c, 0, 70, 49
2, 1287360, Note_on_c, 0, 72, 49
2, 1287523, Note_on_c, 0, 72, 0
2, 1287523, Note_on_c, 0, 64, 0
2, 1287523, Note_on_c, 0, 70, 0
2, 1288980, Note_on_c, 0, 55, 38
2, 1289450, Note_on_c, 0, 31, 0
2, 1289450, Note_on_c, 0, 43, 0
2, 1289467, Note_on_c, 0, 55, 0
2, 1289520, Note_on_c, 0, 56, 48
2, 1290007, Note_on_c, 0, 56, 0
2, 1290060, Note_on_c, 0, 53, 39
2, 1290547, Note_on_c, 0, 53, 0
2, 1290600, Note_on_c, 0, 52, 42
2, 1291087, Note_on_c, 0, 52, 0
2, 1291140, Note_on_c, 0, 48, 40
2, 1291627, Note_on_c, 0, 48, 0
2, 1291680, Note_on_c, 0, 49, 53
2, 1292690, Note_on_c, 0, 49, 0
2, 1292760, Note_on_c, 0, 48, 53
2, 1293770, Note_on_c, 0, 48, 0
2, 1293840, Note_on_c, 0, 44, 50
2, 1294850, Note_on_c, 0, 44, 0
2, 1294920, Note_on_c, 0, 43, 53
2, 1295930, Note_on_c, 0, 43, 0
2, 1296000, Note_on_c, 0, 41, 52
2, 1296163, Note_on_c, 0, 41, 0
2, 1296540, Note_on_c, 0, 65, 44
2, 1296540, Note_on_c, 0, 67, 42
2, 1296540, Note_on_c, 0, 58, 49
2, 1296703, Note_on_c, 0, 58, 0
2, 1296703, Note_on_c, 0, 65, 0
2, 1296703, Note_on_c, 0, 67, 0
2, 1297080, Note_on_c, 0, 65, 42
2, 1297080, Note_on_c, 0, 68, 41
2, 1297080, Note_on_c, 0, 60, 50
2, 1297243, Note_on_c, 0, 60, 0
2, 1297243, Note_on_c, 0, 65, 0
2, 1297243, Note_on_c, 0, 68, 0
2, 1297620, Note_on_c, 0, 65, 43
2, 1297620, Note_on_c, 0, 70, 44
2, 1297620, Note_on_c, 0, 61, 50
2, 1297783, Note_on_c, 0, 61, 0
2, 1297783, Note_on_c, 0, 65, 0
2, 1297783, Note_on_c, 0, 70, 0
2, 1298160, Note_on_c, 0, 65, 41
2, 1298160, Note_on_c, 0, 68, 43
2, 1298160, Note_on_c, 0, 60, 50
2, 1298323, Note_on_c, 0, 60, 0
2, 1298323, Note_on_c, 0, 65, 0
2, 1298323, Note_on_c, 0, 68, 0
2, 1298700, Note_on_c, 0, 65, 43
2, 1298700, Note_on_c, 0, 56, 51
2, 1298700, Note_on_c, 0, 60, 51
2, 1298863, Note_on_c, 0, 60, 0
2, 1298863, Note_on_c, 0, 65, 0
2, 1298863, Note_on_c, 0, 56, 0
2, 1299240, Note_on_c, 0, 65, 42
2, 1299240, Note_on_c, 0, 67, 42
2, 1299240, Note_on_c, 0, 58, 52
2, 1299403, Note_on_c, 0, 58, 0
2, 1299403, Note_on_c, 0, 65, 0
2, 1299403, Note_on_c, 0, 67, 0
2, 1299780, Note_on_c, 0, 64, 40
2, 1299780, Note_on_c, 0, 55, 52
2, 1299780, Note_on_c, 0, 58, 52
2, 1299943, Note_on_c, 0, 58, 0
2, 1299943, Note_on_c, 0, 64, 0
2, 1299943, Note_on_c, 0, 55, 0
2, 1300320, Note_on_c, 0, 65, 41
2, 1300320, Note_on_c, 0, 56, 50
2, 1300320, Note_on_c, 0, 60, 49
2, 1300483, Note_on_c, 0, 60, 0
2, 1300483, Note_on_c, 0, 65, 0
2, 1300483, Note_on_c, 0, 56, 0
2, 1300860, Note_on_c, 0, 81, 43
2, 1300860, Note_on_c, 0, 57, 53
2, 1301023, Note_on_c, 0, 57, 0
2, 1301023, Note_on_c, 0, 81, 0
2, 1301040, Note_on_c, 0, 82, 45
2, 1301040, Note_on_c, 0, 58, 55
2, 1301203, Note_on_c, 0, 58, 0
2, 1301203, Note_on_c, 0, 82, 0
2, 1301220, Note_on_c, 0, 84, 45
2, 1301220, Note_on_c, 0, 60, 56
2, 1301383, Note_on_c, 0, 60, 0
2, 1301383, Note_on_c, 0, 84, 0
2, 1301400, Note_on_c, 0, 86, 74
2, 1301400, Note_on_c, 0, 62, 85
2, 1301563, Note_on_c, 0, 62, 0
2, 1301563, Note_on_c, 0, 86, 0
2, 1301580, Note_on_c, 0, 87, 46
2, 1301580, Note_on_c, 0, 63, 54
2, 1301743, Note_on_c, 0, 63, 0
2, 1301743, Note_on_c, 0, 87, 0
2, 1301760, Note_on_c, 0, 86, 42
2, 1301760, Note_on_c, 0, 62, 53
2, 1301923, Note_on_c, 0, 62, 0
2, 1301923, Note_on_c, 0, 86, 0
2, 1301940, Note_on_c, 0, 84, 43
2, 1301940, Note_on_c, 0, 60, 54
2, 1302103, Note_on_c, 0, 60, 0
2, 1302103, Note_on_c, 0, 84, 0
2, 1302120, Note_on_c, 0, 82, 41
2, 1302120, Note_on_c, 0, 58, 48
2, 1302283, Note_on_c, 0, 58, 0
2, 1302283, Note_on_c, 0, 82, 0
2, 1302300, Note_on_c, 0, 84, 46
2, 1302300, Note_on_c, 0, 60, 54
2, 1302463, Note_on_c, 0, 60, 0
2, 1302463, Note_on_c, 0, 84, 0
2, 1302480, Note_on_c, 0, 86, 76
2, 1302480, Note_on_c, 0, 62, 86
2, 1302643, Note_on_c, 0, 62, 0
2, 1302643, Note_on_c, 0, 86, 0
2, 1302660, Note_on_c, 0, 87, 44
2, 1302660, Note_on_c, 0, 63, 57
2, 1302823, Note_on_c, 0, 63, 0
2, 1302823, Note_on_c, 0, 87, 0
2, 1302840, Note_on_c, 0, 86, 41
2, 1302840, Note_on_c, 0, 62, 52
2, 1303003, Note_on_c, 0, 62, 0
2, 1303003, Note_on_c, 0, 86, 0
2, 1303020, Note_on_c, 0, 84, 44
2, 1303020, Note_on_c, 0, 60, 54
2, 1303183, Note_on_c, 0, 60, 0
2, 1303183, Note_on_c, 0, 84, 0
2, 1303200, Note_on_c, 0, 81, 39
2, 1303200, Note_on_c, 0, 57, 48
2, 1303363, Note_on_c, 0, 57, 0
2, 1303363, Note_on_c, 0, 81, 0
2, 1303380, Note_on_c, 0, 82, 46
2, 1303380, Note_on_c, 0, 58, 53
2, 1303543, Note_on_c, 0, 58, 0
2, 1303543, Note_on_c, 0, 82, 0
2, 1303560, Note_on_c, 0, 84, 74
2, 1303560, Note_on_c, 0, 60, 83
2, 1303723, Note_on_c, 0, 60, 0
2, 1303723, Note_on_c, 0, 84, 0
2, 1303740, Note_on_c, 0, 86, 46
2, 1303740, Note_on_c, 0, 62, 55
2, 1303903, Note_on_c, 0, 62, 0
2, 1303903, Note_on_c, 0, 86, 0
2, 1303920, Note_on_c, 0, 84, 41
2, 1303920, Note_on_c, 0, 60, 51
2, 1304083, Note_on_c, 0, 60, 0
2, 1304083, Note_on_c, 0, 84, 0
2, 1304100, Note_on_c, 0, 82, 41
2, 1304100, Note_on_c, 0, 58, 54
2, 1304263, Note_on_c, 0, 58, 0
2, 1304263, Note_on_c, 0, 82, 0
2, 1304280, Note_on_c, 0, 81, 39
2, 1304280, Note_on_c, 0, 57, 51
2, 1304443, Note_on_c, 0, 57, 0
2, 1304443, Note_on_c, 0, 81, 0
2, 1304460, Note_on_c, 0, 84, 46
2, 1304460, Note_on_c, 0, 60, 56
2, 1304623, Note_on_c, 0, 60, 0
2, 1304623, Note_on_c, 0, 84, 0
2, 1304640, Note_on_c, 0, 86, 76
2, 1304640, Note_on_c, 0, 62, 86
2, 1304803, Note_on_c, 0, 62, 0
2, 1304803, Note_on_c, 0, 86, 0
2, 1305180, Note_on_c, 0, 31, 49
2, 1305180, Note_on_c, 0, 43, 49
2, 1305720, Note_on_c, 0, 53, 43
2, 1305883, Note_on_c, 0, 53, 0
2, 1305900, Note_on_c, 0, 54, 43
2, 1306063, Note_on_c, 0, 54, 0
2, 1306080, Note_on_c, 0, 55, 42
2, 1306207, Note_on_c, 0, 43, 0
2, 1306207, Note_on_c, 0, 31, 0
2, 1306243, Note_on_c, 0, 55, 0
2, 1306260, Note_on_c, 0, 56, 73
2, 1306260, Note_on_c, 0, 31, 52
2, 1306260, Note_on_c, 0, 43, 55
2, 1306963, Note_on_c, 0, 56, 0
2, 1306980, Note_on_c, 0, 55, 40
2, 1307143, Note_on_c, 0, 55, 0
2, 1307160, Note_on_c, 0, 56, 43
2, 1307287, Note_on_c, 0, 43, 0
2, 1307287, Note_on_c, 0, 31, 0
2, 1307323, Note_on_c, 0, 56, 0
2, 1307340, Note_on_c, 0, 55, 44
2, 1307340, Note_on_c, 0, 31, 54
2, 1307340, Note_on_c, 0, 43, 54
2, 1308043, Note_on_c, 0, 55, 0
2, 1308060, Note_on_c, 0, 54, 40
2, 1308223, Note_on_c, 0, 54, 0
2, 1308240, Note_on_c, 0, 55, 45
2, 1308367, Note_on_c, 0, 43, 0
2, 1308367, Note_on_c, 0, 31, 0
2, 1308403, Note_on_c, 0, 55, 0
2, 1308420, Note_on_c, 0, 54, 43
2, 1308420, Note_on_c, 0, 31, 54
2, 1308420, Note_on_c, 0, 43, 53
2, 1308583, Note_on_c, 0, 54, 0
2, 1308600, Note_on_c, 0, 53, 42
2, 1308763, Note_on_c, 0, 53, 0
2, 1308780, Note_on_c, 0, 54, 45
2, 1308943, Note_on_c, 0, 54, 0
2, 1308960, Note_on_c, 0, 55, 47
2, 1309123, Note_on_c, 0, 55, 0
2, 1309447, Note_on_c, 0, 43, 0
2, 1309447, Note_on_c, 0, 31, 0
2, 1309500, Note_on_c, 0, 74, 42
2, 1309500, Note_on_c, 0, 53, 66
2, 1309500, Note_on_c, 0, 59, 67
2, 1309500, Note_on_c, 0, 65, 67
2, 1309663, Note_on_c, 0, 74, 0
2, 1309680, Note_on_c, 0, 72, 40
2, 1309843, Note_on_c, 0, 72, 0
2, 1309860, Note_on_c, 0, 74, 46
2, 1310023, Note_on_c, 0, 74, 0
2, 1310040, Note_on_c, 0, 75, 46
2, 1310365, Note_on_c, 0, 75, 0
2, 1310400, Note_on_c, 0, 75, 43
2, 1310527, Note_on_c, 0, 65, 0
2, 1310527, Note_on_c, 0, 53, 0
2, 1310527, Note_on_c, 0, 59, 0
2, 1310563, Note_on_c, 0, 75, 0
2, 1310580, Note_on_c, 0, 77, 44
2, 1310580, Note_on_c, 0, 53, 52
2, 1310580, Note_on_c, 0, 56, 53
2, 1310580, Note_on_c, 0, 60, 52
2, 1310580, Note_on_c, 0, 65, 53
2, 1310905, Note_on_c, 0, 77, 0
2, 1310940, Note_on_c, 0, 77, 44
2, 1311103, Note_on_c, 0, 77, 0
2, 1311120, Note_on_c, 0, 74, 42
2, 1311445, Note_on_c, 0, 74, 0
2, 1311480, Note_on_c, 0, 74, 44
2, 1311607, Note_on_c, 0, 60, 0
2, 1311607, Note_on_c, 0, 56, 0
2, 1311607, Note_on_c, 0, 53, 0
2, 1311607, Note_on_c, 0, 65, 0
2, 1311643, Note_on_c, 0, 74, 0
2, 1311660, Note_on_c, 0, 71, 41
2, 1311660, Note_on_c, 0, 53, 53
2, 1311660, Note_on_c, 0, 59, 55
2, 1311660, Note_on_c, 0, 65, 54
2, 1311823, Note_on_c, 0, 71, 0
2, 1311840, Note_on_c, 0, 72, 43
2, 1312003, Note_on_c, 0, 72, 0
2, 1312020, Note_on_c, 0, 71, 40
2, 1312183, Note_on_c, 0, 71, 0
2, 1312200, Note_on_c, 0, 72, 47
2, 1312525, Note_on_c, 0, 72, 0
2, 1312560, Note_on_c, 0, 72, 42
2, 1312687, Note_on_c, 0, 65, 0
2, 1312687, Note_on_c, 0, 53, 0
2, 1312687, Note_on_c, 0, 59, 0
2, 1312723, Note_on_c, 0, 72, 0
2, 1312740, Note_on_c, 0, 69, 43
2, 1312740, Note_on_c, 0, 54, 54
2, 1312740, Note_on_c, 0, 60, 56
2, 1312740, Note_on_c, 0, 66, 54
2, 1312903, Note_on_c, 0, 69, 0
2, 1312920, Note_on_c, 0, 71, 44
2, 1313083, Note_on_c, 0, 71, 0
2, 1313100, Note_on_c, 0, 69, 40
2, 1313227, Note_on_c, 0, 66, 0
2, 1313227, Note_on_c, 0, 54, 0
2, 1313227, Note_on_c, 0, 60, 0
2, 1313263, Note_on_c, 0, 69, 0
2, 1313280, Note_on_c, 0, 67, 47
2, 1313280, Note_on_c, 0, 71, 49
2, 1313280, Note_on_c, 0, 55, 45
2, 1313280, Note_on_c, 0, 59, 47
2, 1313443, Note_on_c, 0, 59, 0
2, 1313443, Note_on_c, 0, 71, 0
2, 1313443, Note_on_c, 0, 67, 0
2, 1313443, Note_on_c, 0, 55, 0
2, 1313820, Note_on_c, 0, 51, 40
2, 1313820, Note_on_c, 0, 58, 39
2, 1313820, Note_on_c, 0, 31, 47
2, 1313983, Note_on_c, 0, 31, 0
2, 1313983, Note_on_c, 0, 51, 0
2, 1313983, Note_on_c, 0, 58, 0
2, 1314180, Note_on_c, 0, 51, 39
2, 1314180, Note_on_c, 0, 58, 37
2, 1314180, Note_on_c, 0, 43, 49
2, 1314343, Note_on_c, 0, 43, 0
2, 1314343, Note_on_c, 0, 51, 0
2, 1314343, Note_on_c, 0, 58, 0
2, 1314360, Note_on_c, 0, 51, 47
2, 1314360, Note_on_c, 0, 58, 44
2, 1314360, Note_on_c, 0, 31, 43
2, 1314523, Note_on_c, 0, 31, 0
2, 1314523, Note_on_c, 0, 51, 0
2, 1314523, Note_on_c, 0, 58, 0
2, 1314720, Note_on_c, 0, 51, 38
2, 1314720, Note_on_c, 0, 58, 39
2, 1314720, Note_on_c, 0, 43, 49
2, 1314883, Note_on_c, 0, 43, 0
2, 1314883, Note_on_c, 0, 51, 0
2, 1314883, Note_on_c, 0, 58, 0
2, 1314900, Note_on_c, 0, 51, 47
2, 1314900, Note_on_c, 0, 58, 44
2, 1314900, Note_on_c, 0, 31, 43
2, 1315063, Note_on_c, 0, 31, 0
2, 1315063, Note_on_c, 0, 51, 0
2, 1315063, Note_on_c, 0, 58, 0
2, 1315260, Note_on_c, 0, 51, 40
2, 1315260, Note_on_c, 0, 58, 40
2, 1315260, Note_on_c, 0, 43, 48
2, 1315423, Note_on_c, 0, 43, 0
2, 1315423, Note_on_c, 0, 51, 0
2, 1315423, Note_on_c, 0, 58, 0
2, 1315440, Note_on_c, 0, 51, 43
2, 1315440, Note_on_c, 0, 58, 44
2, 1315440, Note_on_c, 0, 31, 41
2, 1315603, Note_on_c, 0, 31, 0
2, 1315603, Note_on_c, 0, 51, 0
2, 1315603, Note_on_c, 0, 58, 0
2, 1315800, Note_on_c, 0, 51, 39
2, 1315800, Note_on_c, 0, 58, 40
2, 1315800, Note_on_c, 0, 43, 47
2, 1315963, Note_on_c, 0, 43, 0
2, 1315963, Note_on_c, 0, 51, 0
2, 1315963, Note_on_c, 0, 58, 0
2, 1315980, Note_on_c, 0, 51, 46
2, 1315980, Note_on_c, 0, 58, 47
2, 1315980, Note_on_c, 0, 31, 42
2, 1316143, Note_on_c, 0, 31, 0
2, 1316143, Note_on_c, 0, 51, 0
2, 1316143, Note_on_c, 0, 58, 0
2, 1316340, Note_on_c, 0, 51, 39
2, 1316340, Note_on_c, 0, 58, 38
2, 1316340, Note_on_c, 0, 43, 48
2, 1316503, Note_on_c, 0, 43, 0
2, 1316503, Note_on_c, 0, 51, 0
2, 1316503, Note_on_c, 0, 58, 0
2, 1316520, Note_on_c, 0, 50, 45
2, 1316520, Note_on_c, 0, 58, 46
2, 1316520, Note_on_c, 0, 31, 42
2, 1316683, Note_on_c, 0, 31, 0
2, 1316683, Note_on_c, 0, 50, 0
2, 1316683, Note_on_c, 0, 58, 0
2, 1316880, Note_on_c, 0, 50, 38
2, 1316880, Note_on_c, 0, 58, 39
2, 1316880, Note_on_c, 0, 43, 50
2, 1317043, Note_on_c, 0, 43, 0
2, 1317043, Note_on_c, 0, 50, 0
2, 1317043, Note_on_c, 0, 58, 0
2, 1317060, Note_on_c, 0, 50, 43
2, 1317060, Note_on_c, 0, 58, 46
2, 1317060, Note_on_c, 0, 31, 42
2, 1317223, Note_on_c, 0, 31, 0
2, 1317223, Note_on_c, 0, 50, 0
2, 1317223, Note_on_c, 0, 58, 0
2, 1317420, Note_on_c, 0, 50, 39
2, 1317420, Note_on_c, 0, 58, 40
2, 1317420, Note_on_c, 0, 43, 50
2, 1317583, Note_on_c, 0, 43, 0
2, 1317583, Note_on_c, 0, 50, 0
2, 1317583, Note_on_c, 0, 58, 0
2, 1317600, Note_on_c, 0, 51, 46
2, 1317600, Note_on_c, 0, 58, 46
2, 1317600, Note_on_c, 0, 31, 40
2, 1317763, Note_on_c, 0, 31, 0
2, 1317763, Note_on_c, 0, 51, 0
2, 1317763, Note_on_c, 0, 58, 0
2, 1318140, Note_on_c, 0, 64, 42
2, 1318140, Note_on_c, 0, 69, 42
2, 1318140, Note_on_c, 0, 52, 53
2, 1318140, Note_on_c, 0, 61, 51
2, 1318383, Note_on_c, 0, 61, 0
2, 1318383, Note_on_c, 0, 69, 0
2, 1318383, Note_on_c, 0, 64, 0
2, 1318383, Note_on_c, 0, 52, 0
2, 1318410, Note_on_c, 0, 64, 43
2, 1318410, Note_on_c, 0, 71, 45
2, 1318410, Note_on_c, 0, 52, 55
2, 1318410, Note_on_c, 0, 62, 53
2, 1318653, Note_on_c, 0, 62, 0
2, 1318653, Note_on_c, 0, 71, 0
2, 1318653, Note_on_c, 0, 64, 0
2, 1318653, Note_on_c, 0, 52, 0
2, 1318680, Note_on_c, 0, 69, 48
2, 1318680, Note_on_c, 0, 73, 47
2, 1318680, Note_on_c, 0, 52, 59
2, 1318680, Note_on_c, 0, 61, 61
2, 1318680, Note_on_c, 0, 64, 60
2, 1318814, Note_on_c, 0, 64, 0
2, 1318814, Note_on_c, 0, 52, 0
2, 1318814, Note_on_c, 0, 73, 0
2, 1318814, Note_on_c, 0, 69, 0
2, 1318814, Note_on_c, 0, 61, 0
2, 1318950, Note_on_c, 0, 69, 41
2, 1318950, Note_on_c, 0, 73, 42
2, 1318950, Note_on_c, 0, 52, 52
2, 1318950, Note_on_c, 0, 61, 52
2, 1318950, Note_on_c, 0, 64, 55
2, 1319084, Note_on_c, 0, 64, 0
2, 1319084, Note_on_c, 0, 52, 0
2, 1319084, Note_on_c, 0, 73, 0
2, 1319084, Note_on_c, 0, 69, 0
2, 1319084, Note_on_c, 0, 61, 0
2, 1319220, Note_on_c, 0, 69, 45
2, 1319220, Note_on_c, 0, 73, 45
2, 1319220, Note_on_c, 0, 52, 57
2, 1319220, Note_on_c, 0, 61, 54
2, 1319220, Note_on_c, 0, 64, 56
2, 1319354, Note_on_c, 0, 64, 0
2, 1319354, Note_on_c, 0, 52, 0
2, 1319354, Note_on_c, 0, 73, 0
2, 1319354, Note_on_c, 0, 69, 0
2, 1319354, Note_on_c, 0, 61, 0
2, 1319490, Note_on_c, 0, 69, 44
2, 1319490, Note_on_c, 0, 74, 46
2, 1319490, Note_on_c, 0, 53, 53
2, 1319490, Note_on_c, 0, 62, 57
2, 1319490, Note_on_c, 0, 65, 56
2, 1319624, Note_on_c, 0, 65, 0
2, 1319624, Note_on_c, 0, 53, 0
2, 1319624, Note_on_c, 0, 74, 0
2, 1319624, Note_on_c, 0, 69, 0
2, 1319624, Note_on_c, 0, 62, 0
2, 1319760, Note_on_c, 0, 69, 44
2, 1319760, Note_on_c, 0, 73, 43
2, 1319760, Note_on_c, 0, 52, 52
2, 1319760, Note_on_c, 0, 61, 52
2, 1319760, Note_on_c, 0, 64, 53
2, 1319894, Note_on_c, 0, 64, 0
2, 1319894, Note_on_c, 0, 52, 0
2, 1319894, Note_on_c, 0, 73, 0
2, 1319894, Note_on_c, 0, 69, 0
2, 1319894, Note_on_c, 0, 61, 0
2, 1320030, Note_on_c, 0, 69, 42
2, 1320030, Note_on_c, 0, 73, 44
2, 1320030, Note_on_c, 0, 52, 54
2, 1320030, Note_on_c, 0, 61, 53
2, 1320030, Note_on_c, 0, 64, 51
2, 1320164, Note_on_c, 0, 64, 0
2, 1320164, Note_on_c, 0, 52, 0
2, 1320164, Note_on_c, 0, 73, 0
2, 1320164, Note_on_c, 0, 69, 0
2, 1320164, Note_on_c, 0, 61, 0
2, 1320300, Note_on_c, 0, 69, 45
2, 1320300, Note_on_c, 0, 73, 47
2, 1320300, Note_on_c, 0, 52, 54
2, 1320300, Note_on_c, 0, 61, 56
2, 1320300, Note_on_c, 0, 64, 58
2, 1320434, Note_on_c, 0, 64, 0
2, 1320434, Note_on_c, 0, 52, 0
2, 1320434, Note_on_c, 0, 73, 0
2, 1320434, Note_on_c, 0, 69, 0
2, 1320434, Note_on_c, 0, 61, 0
2, 1320570, Note_on_c, 0, 64, 38
2, 1320570, Note_on_c, 0, 69, 39
2, 1320570, Note_on_c, 0, 52, 50
2, 1320570, Note_on_c, 0, 57, 47
2, 1320570, Note_on_c, 0, 61, 46
2, 1320704, Note_on_c, 0, 61, 0
2, 1320704, Note_on_c, 0, 52, 0
2, 1320704, Note_on_c, 0, 69, 0
2, 1320704, Note_on_c, 0, 64, 0
2, 1320704, Note_on_c, 0, 57, 0
2, 1320840, Note_on_c, 0, 67, 46
2, 1320840, Note_on_c, 0, 70, 45
2, 1320840, Note_on_c, 0, 52, 55
2, 1320840, Note_on_c, 0, 58, 57
2, 1320840, Note_on_c, 0, 62, 55
2, 1320974, Note_on_c, 0, 62, 0
2, 1320974, Note_on_c, 0, 52, 0
2, 1320974, Note_on_c, 0, 70, 0
2, 1320974, Note_on_c, 0, 67, 0
2, 1320974, Note_on_c, 0, 58, 0
2, 1321110, Note_on_c, 0, 67, 41
2, 1321110, Note_on_c, 0, 70, 45
2, 1321110, Note_on_c, 0, 52, 53
2, 1321110, Note_on_c, 0, 58, 54
2, 1321110, Note_on_c, 0, 62, 52
2, 1321244, Note_on_c, 0, 62, 0
2, 1321244, Note_on_c, 0, 52, 0
2, 1321244, Note_on_c, 0, 70, 0
2, 1321244, Note_on_c, 0, 67, 0
2, 1321244, Note_on_c, 0, 58, 0
2, 1321380, Note_on_c, 0, 67, 48
2, 1321380, Note_on_c, 0, 70, 47
2, 1321380, Note_on_c, 0, 52, 56
2, 1321380, Note_on_c, 0, 58, 55
2, 1321380, Note_on_c, 0, 62, 58
2, 1321514, Note_on_c, 0, 62, 0
2, 1321514, Note_on_c, 0, 52, 0
2, 1321514, Note_on_c, 0, 70, 0
2, 1321514, Note_on_c, 0, 67, 0
2, 1321514, Note_on_c, 0, 58, 0
2, 1321650, Note_on_c, 0, 62, 38
2, 1321650, Note_on_c, 0, 67, 39
2, 1321650, Note_on_c, 0, 52, 48
2, 1321650, Note_on_c, 0, 55, 47
2, 1321650, Note_on_c, 0, 58, 49
2, 1321784, Note_on_c, 0, 58, 0
2, 1321784, Note_on_c, 0, 52, 0
2, 1321784, Note_on_c, 0, 67, 0
2, 1321784, Note_on_c, 0, 62, 0
2, 1321784, Note_on_c, 0, 55, 0
2, 1321920, Note_on_c, 0, 64, 48
2, 1321920, Note_on_c, 0, 69, 49
2, 1321920, Note_on_c, 0, 52, 59
2, 1321920, Note_on_c, 0, 57, 57
2, 1321920, Note_on_c, 0, 61, 58
2, 1322083, Note_on_c, 0, 61, 0
2, 1322083, Note_on_c, 0, 52, 0
2, 1322083, Note_on_c, 0, 69, 0
2, 1322083, Note_on_c, 0, 64, 0
2, 1322083, Note_on_c, 0, 57, 0
2, 1322460, Note_on_c, 0, 70, 41
2, 1322460, Note_on_c, 0, 77, 43
2, 1322460, Note_on_c, 0, 82, 43
2, 1322460, Note_on_c, 0, 50, 49
2, 1322460, Note_on_c, 0, 53, 50
2, 1322460, Note_on_c, 0, 58, 53
2, 1322703, Note_on_c, 0, 58, 0
2, 1322703, Note_on_c, 0, 53, 0
2, 1322703, Note_on_c, 0, 82, 0
2, 1322703, Note_on_c, 0, 77, 0
2, 1322703, Note_on_c, 0, 70, 0
2, 1322703, Note_on_c, 0, 50, 0
2, 1322730, Note_on_c, 0, 70, 42
2, 1322730, Note_on_c, 0, 77, 43
2, 1322730, Note_on_c, 0, 82, 43
2, 1322730, Note_on_c, 0, 50, 51
2, 1322730, Note_on_c, 0, 53, 53
2, 1322730, Note_on_c, 0, 58, 53
2, 1322973, Note_on_c, 0, 58, 0
2, 1322973, Note_on_c, 0, 53, 0
2, 1322973, Note_on_c, 0, 82, 0
2, 1322973, Note_on_c, 0, 77, 0
2, 1322973, Note_on_c, 0, 70, 0
2, 1322973, Note_on_c, 0, 50, 0
2, 1323000, Note_on_c, 0, 72, 46
2, 1323000, Note_on_c, 0, 77, 48
2, 1323000, Note_on_c, 0, 84, 47
2, 1323000, Note_on_c, 0, 50, 60
2, 1323000, Note_on_c, 0, 53, 57
2, 1323000, Note_on_c, 0, 60, 59
2, 1323243, Note_on_c, 0, 60, 0
2, 1323243, Note_on_c, 0, 53, 0
2, 1323243, Note_on_c, 0, 84, 0
2, 1323243, Note_on_c, 0, 77, 0
2, 1323243, Note_on_c, 0, 72, 0
2, 1323243, Note_on_c, 0, 50, 0
2, 1323270, Note_on_c, 0, 72, 42
2, 1323270, Note_on_c, 0, 77, 45
2, 1323270, Note_on_c, 0, 84, 43
2, 1323270, Note_on_c, 0, 50, 55
2, 1323270, Note_on_c, 0, 53, 52
2, 1323270, Note_on_c, 0, 60, 51
2, 1323513, Note_on_c, 0, 60, 0
2, 1323513, Note_on_c, 0, 53, 0
2, 1323513, Note_on_c, 0, 84, 0
2, 1323513, Note_on_c, 0, 77, 0
2, 1323513, Note_on_c, 0, 72, 0
2, 1323513, Note_on_c, 0, 50, 0
2, 1323540, Note_on_c, 0, 74, 48
2, 1323540, Note_on_c, 0, 77, 50
2, 1323540, Note_on_c, 0, 86, 50
2, 1323540, Note_on_c, 0, 50, 58
2, 1323540, Note_on_c, 0, 53, 57
2, 1323540, Note_on_c, 0, 62, 57
2, 1323783, Note_on_c, 0, 62, 0
2, 1323783, Note_on_c, 0, 53, 0
2, 1323783, Note_on_c, 0, 86, 0
2, 1323783, Note_on_c, 0, 77, 0
2, 1323783, Note_on_c, 0, 74, 0
2, 1323783, Note_on_c, 0, 50, 0
2, 1323810, Note_on_c, 0, 74, 43
2, 1323810, Note_on_c, 0, 77, 41
2, 1323810, Note_on_c, 0, 86, 43
2, 1323810, Note_on_c, 0, 50, 52
2, 1323810, Note_on_c, 0, 53, 54
2, 1323810, Note_on_c, 0, 62, 54
2, 1324053, Note_on_c, 0, 62, 0
2, 1324053, Note_on_c, 0, 53, 0
2, 1324053, Note_on_c, 0, 86, 0
2, 1324053, Note_on_c, 0, 77, 0
2, 1324053, Note_on_c, 0, 74, 0
2, 1324053, Note_on_c, 0, 50, 0
2, 1324080, Note_on_c, 0, 70, 42
2, 1324080, Note_on_c, 0, 77, 42
2, 1324080, Note_on_c, 0, 82, 43
2, 1324080, Note_on_c, 0, 50, 49
2, 1324080, Note_on_c, 0, 53, 49
2, 1324080, Note_on_c, 0, 58, 50
2, 1324323, Note_on_c, 0, 58, 0
2, 1324323, Note_on_c, 0, 53, 0
2, 1324323, Note_on_c, 0, 82, 0
2, 1324323, Note_on_c, 0, 77, 0
2, 1324323, Note_on_c, 0, 70, 0
2, 1324323, Note_on_c, 0, 50, 0
2, 1324350, Note_on_c, 0, 70, 42
2, 1324350, Note_on_c, 0, 77, 41
2, 1324350, Note_on_c, 0, 82, 42
2, 1324350, Note_on_c, 0, 50, 53
2, 1324350, Note_on_c, 0, 53, 53
2, 1324350, Note_on_c, 0, 58, 53
2, 1324593, Note_on_c, 0, 58, 0
2, 1324593, Note_on_c, 0, 53, 0
2, 1324593, Note_on_c, 0, 82, 0
2, 1324593, Note_on_c, 0, 77, 0
2, 1324593, Note_on_c, 0, 70, 0
2, 1324593, Note_on_c, 0, 50, 0
2, 1324620, Note_on_c, 0, 71, 47
2, 1324620, Note_on_c, 0, 77, 48
2, 1324620, Note_on_c, 0, 83, 46
2, 1324620, Note_on_c, 0, 50, 57
2, 1324620, Note_on_c, 0, 53, 56
2, 1324620, Note_on_c, 0, 59, 59
2, 1324863, Note_on_c, 0, 59, 0
2, 1324863, Note_on_c, 0, 53, 0
2, 1324863, Note_on_c, 0, 83, 0
2, 1324863, Note_on_c, 0, 77, 0
2, 1324863, Note_on_c, 0, 71, 0
2, 1324863, Note_on_c, 0, 50, 0
2, 1324890, Note_on_c, 0, 71, 42
2, 1324890, Note_on_c, 0, 77, 45
2, 1324890, Note_on_c, 0, 83, 41
2, 1324890, Note_on_c, 0, 50, 51
2, 1324890, Note_on_c, 0, 53, 53
2, 1324890, Note_on_c, 0, 59, 54
2, 1325133, Note_on_c, 0, 59, 0
2, 1325133, Note_on_c, 0, 53, 0
2, 1325133, Note_on_c, 0, 83, 0
2, 1325133, Note_on_c, 0, 77, 0
2, 1325133, Note_on_c, 0, 71, 0
2, 1325133, Note_on_c, 0, 50, 0
2, 1325160, Note_on_c, 0, 72, 48
2, 1325160, Note_on_c, 0, 77, 45
2, 1325160, Note_on_c, 0, 84, 47
2, 1325160, Note_on_c, 0, 50, 58
2, 1325160, Note_on_c, 0, 53, 58
2, 1325160, Note_on_c, 0, 60, 57
2, 1325403, Note_on_c, 0, 60, 0
2, 1325403, Note_on_c, 0, 53, 0
2, 1325403, Note_on_c, 0, 84, 0
2, 1325403, Note_on_c, 0, 77, 0
2, 1325403, Note_on_c, 0, 72, 0
2, 1325403, Note_on_c, 0, 50, 0
2, 1325430, Note_on_c, 0, 72, 44
2, 1325430, Note_on_c, 0, 77, 42
2, 1325430, Note_on_c, 0, 84, 43
2, 1325430, Note_on_c, 0, 50, 53
2, 1325430, Note_on_c, 0, 53, 52
2, 1325430, Note_on_c, 0, 60, 54
2, 1325673, Note_on_c, 0, 60, 0
2, 1325673, Note_on_c, 0, 53, 0
2, 1325673, Note_on_c, 0, 84, 0
2, 1325673, Note_on_c, 0, 77, 0
2, 1325673, Note_on_c, 0, 72, 0
2, 1325673, Note_on_c, 0, 50, 0
2, 1325700, Note_on_c, 0, 74, 47
2, 1325700, Note_on_c, 0, 77, 46
2, 1325700, Note_on_c, 0, 86, 46
2, 1325700, Note_on_c, 0, 50, 60
2, 1325700, Note_on_c, 0, 53, 59
2, 1325700, Note_on_c, 0, 62, 58
2, 1325943, Note_on_c, 0, 62, 0
2, 1325943, Note_on_c, 0, 53, 0
2, 1325943, Note_on_c, 0, 86, 0
2, 1325943, Note_on_c, 0, 77, 0
2, 1325943, Note_on_c, 0, 74, 0
2, 1325943, Note_on_c, 0, 50, 0
2, 1325970, Note_on_c, 0, 74, 44
2, 1325970, Note_on_c, 0, 77, 44
2, 1325970, Note_on_c, 0, 86, 43
2, 1325970, Note_on_c, 0, 50, 52
2, 1325970, Note_on_c, 0, 53, 55
2, 1325970, Note_on_c, 0, 62, 53
2, 1326213, Note_on_c, 0, 62, 0
2, 1326213, Note_on_c, 0, 53, 0
2, 1326213, Note_on_c, 0, 86, 0
2, 1326213, Note_on_c, 0, 77, 0
2, 1326213, Note_on_c, 0, 74, 0
2, 1326213, Note_on_c, 0, 50, 0
2, 1326240, Note_on_c, 0, 72, 44
2, 1326240, Note_on_c, 0, 76, 43
2, 1326240, Note_on_c, 0, 84, 44
2, 1326240, Note_on_c, 0, 52, 52
2, 1326240, Note_on_c, 0, 58, 52
2, 1326240, Note_on_c, 0, 60, 53
2, 1326403, Note_on_c, 0, 60, 0
2, 1326403, Note_on_c, 0, 58, 0
2, 1326403, Note_on_c, 0, 84, 0
2, 1326403, Note_on_c, 0, 76, 0
2, 1326403, Note_on_c, 0, 72, 0
2, 1326403, Note_on_c, 0, 52, 0
2, 1326780, Note_on_c, 0, 72, 42
2, 1326780, Note_on_c, 0, 82, 41
2, 1326780, Note_on_c, 0, 84, 43
2, 1326780, Note_on_c, 0, 52, 52
2, 1326780, Note_on_c, 0, 58, 51
2, 1326780, Note_on_c, 0, 60, 52
2, 1327023, Note_on_c, 0, 60, 0
2, 1327023, Note_on_c, 0, 58, 0
2, 1327023, Note_on_c, 0, 84, 0
2, 1327023, Note_on_c, 0, 82, 0
2, 1327023, Note_on_c, 0, 72, 0
2, 1327023, Note_on_c, 0, 52, 0
2, 1327050, Note_on_c, 0, 72, 41
2, 1327050, Note_on_c, 0, 82, 44
2, 1327050, Note_on_c, 0, 84, 42
2, 1327050, Note_on_c, 0, 52, 50
2, 1327050, Note_on_c, 0, 58, 53
2, 1327050, Note_on_c, 0, 60, 54
2, 1327293, Note_on_c, 0, 60, 0
2, 1327293, Note_on_c, 0, 58, 0
2, 1327293, Note_on_c, 0, 84, 0
2, 1327293, Note_on_c, 0, 82, 0
2, 1327293, Note_on_c, 0, 72, 0
2, 1327293, Note_on_c, 0, 52, 0
2, 1327320, Note_on_c, 0, 74, 47
2, 1327320, Note_on_c, 0, 82, 49
2, 1327320, Note_on_c, 0, 86, 47
2, 1327320, Note_on_c, 0, 52, 59
2, 1327320, Note_on_c, 0, 58, 61
2, 1327320, Note_on_c, 0, 62, 59
2, 1327563, Note_on_c, 0, 62, 0
2, 1327563, Note_on_c, 0, 58, 0
2, 1327563, Note_on_c, 0, 86, 0
2, 1327563, Note_on_c, 0, 82, 0
2, 1327563, Note_on_c, 0, 74, 0
2, 1327563, Note_on_c, 0, 52, 0
2, 1327590, Note_on_c, 0, 74, 44
2, 1327590, Note_on_c, 0, 82, 44
2, 1327590, Note_on_c, 0, 86, 43
2, 1327590, Note_on_c, 0, 52, 53
2, 1327590, Note_on_c, 0, 58, 53
2, 1327590, Note_on_c, 0, 62, 51
2, 1327833, Note_on_c, 0, 62, 0
2, 1327833, Note_on_c, 0, 58, 0
2, 1327833, Note_on_c, 0, 86, 0
2, 1327833, Note_on_c, 0, 82, 0
2, 1327833, Note_on_c, 0, 74, 0
2, 1327833, Note_on_c, 0, 52, 0
2, 1327860, Note_on_c, 0, 76, 47
2, 1327860, Note_on_c, 0, 82, 50
2, 1327860, Note_on_c, 0, 88, 49
2, 1327860, Note_on_c, 0, 52, 60
2, 1327860, Note_on_c, 0, 58, 60
2, 1327860, Note_on_c, 0, 64, 58
2, 1328103, Note_on_c, 0, 64, 0
2, 1328103, Note_on_c, 0, 58, 0
2, 1328103, Note_on_c, 0, 88, 0
2, 1328103, Note_on_c, 0, 82, 0
2, 1328103, Note_on_c, 0, 76, 0
2, 1328103, Note_on_c, 0, 52, 0
2, 1328130, Note_on_c, 0, 76, 44
2, 1328130, Note_on_c, 0, 82, 43
2, 1328130, Note_on_c, 0, 88, 43
2, 1328130, Note_on_c, 0, 52, 55
2, 1328130, Note_on_c, 0, 58, 53
2, 1328130, Note_on_c, 0, 64, 53
2, 1328373, Note_on_c, 0, 64, 0
2, 1328373, Note_on_c, 0, 58, 0
2, 1328373, Note_on_c, 0, 88, 0
2, 1328373, Note_on_c, 0, 82, 0
2, 1328373, Note_on_c, 0, 76, 0
2, 1328373, Note_on_c, 0, 52, 0
2, 1328400, Note_on_c, 0, 72, 41
2, 1328400, Note_on_c, 0, 82, 41
2, 1328400, Note_on_c, 0, 84, 42
2, 1328400, Note_on_c, 0, 52, 50
2, 1328400, Note_on_c, 0, 58, 51
2, 1328400, Note_on_c, 0, 60, 51
2, 1328643, Note_on_c, 0, 60, 0
2, 1328643, Note_on_c, 0, 58, 0
2, 1328643, Note_on_c, 0, 84, 0
2, 1328643, Note_on_c, 0, 82, 0
2, 1328643, Note_on_c, 0, 72, 0
2, 1328643, Note_on_c, 0, 52, 0
2, 1328670, Note_on_c, 0, 72, 41
2, 1328670, Note_on_c, 0, 82, 43
2, 1328670, Note_on_c, 0, 84, 43
2, 1328670, Note_on_c, 0, 52, 53
2, 1328670, Note_on_c, 0, 58, 53
2, 1328670, Note_on_c, 0, 60, 53
2, 1328913, Note_on_c, 0, 60, 0
2, 1328913, Note_on_c, 0, 58, 0
2, 1328913, Note_on_c, 0, 84, 0
2, 1328913, Note_on_c, 0, 82, 0
2, 1328913, Note_on_c, 0, 72, 0
2, 1328913, Note_on_c, 0, 52, 0
2, 1328940, Note_on_c, 0, 73, 45
2, 1328940, Note_on_c, 0, 82, 47
2, 1328940, Note_on_c, 0, 85, 48
2, 1328940, Note_on_c, 0, 52, 58
2, 1328940, Note_on_c, 0, 58, 56
2, 1328940, Note_on_c, 0, 61, 57
2, 1329183, Note_on_c, 0, 61, 0
2, 1329183, Note_on_c, 0, 58, 0
2, 1329183, Note_on_c, 0, 85, 0
2, 1329183, Note_on_c, 0, 82, 0
2, 1329183, Note_on_c, 0, 73, 0
2, 1329183, Note_on_c, 0, 52, 0
2, 1329210, Note_on_c, 0, 73, 44
2, 1329210, Note_on_c, 0, 82, 44
2, 1329210, Note_on_c, 0, 85, 41
2, 1329210, Note_on_c, 0, 52, 53
2, 1329210, Note_on_c, 0, 58, 53
2, 1329210, Note_on_c, 0, 61, 51
2, 1329453, Note_on_c, 0, 61, 0
2, 1329453, Note_on_c, 0, 58, 0
2, 1329453, Note_on_c, 0, 85, 0
2, 1329453, Note_on_c, 0, 82, 0
2, 1329453, Note_on_c, 0, 73, 0
2, 1329453, Note_on_c, 0, 52, 0
2, 1329480, Note_on_c, 0, 74, 48
2, 1329480, Note_on_c, 0, 81, 47
2, 1329480, Note_on_c, 0, 86, 46
2, 1329480, Note_on_c, 0, 52, 60
2, 1329480, Note_on_c, 0, 57, 58
2, 1329480, Note_on_c, 0, 62, 60
2, 1329723, Note_on_c, 0, 62, 0
2, 1329723, Note_on_c, 0, 57, 0
2, 1329723, Note_on_c, 0, 86, 0
2, 1329723, Note_on_c, 0, 81, 0
2, 1329723, Note_on_c, 0, 74, 0
2, 1329723, Note_on_c, 0, 52, 0
2, 1329750, Note_on_c, 0, 74, 42
2, 1329750, Note_on_c, 0, 81, 44
2, 1329750, Note_on_c, 0, 86, 43
2, 1329750, Note_on_c, 0, 52, 54
2, 1329750, Note_on_c, 0, 57, 54
2, 1329750, Note_on_c, 0, 62, 52
2, 1329993, Note_on_c, 0, 62, 0
2, 1329993, Note_on_c, 0, 57, 0
2, 1329993, Note_on_c, 0, 86, 0
2, 1329993, Note_on_c, 0, 81, 0
2, 1329993, Note_on_c, 0, 74, 0
2, 1329993, Note_on_c, 0, 52, 0
2, 1330020, Note_on_c, 0, 76, 50
2, 1330020, Note_on_c, 0, 81, 46
2, 1330020, Note_on_c, 0, 85, 48
2, 1330020, Note_on_c, 0, 88, 48
2, 1330020, Note_on_c, 0, 52, 58
2, 1330020, Note_on_c, 0, 57, 60
2, 1330020, Note_on_c, 0, 61, 58
2, 1330020, Note_on_c, 0, 64, 57
2, 1330263, Note_on_c, 0, 64, 0
2, 1330263, Note_on_c, 0, 76, 0
2, 1330263, Note_on_c, 0, 81, 0
2, 1330263, Note_on_c, 0, 61, 0
2, 1330263, Note_on_c, 0, 85, 0
2, 1330263, Note_on_c, 0, 52, 0
2, 1330263, Note_on_c, 0, 57, 0
2, 1330263, Note_on_c, 0, 88, 0
2, 1330290, Note_on_c, 0, 76, 41
2, 1330290, Note_on_c, 0, 81, 44
2, 1330290, Note_on_c, 0, 85, 43
2, 1330290, Note_on_c, 0, 88, 43
2, 1330290, Note_on_c, 0, 52, 55
2, 1330290, Note_on_c, 0, 57, 53
2, 1330290, Note_on_c, 0, 61, 53
2, 1330290, Note_on_c, 0, 64, 54
2, 1330533, Note_on_c, 0, 64, 0
2, 1330533, Note_on_c, 0, 76, 0
2, 1330533, Note_on_c, 0, 81, 0
2, 1330533, Note_on_c, 0, 61, 0
2, 1330533, Note_on_c, 0, 85, 0
2, 1330533, Note_on_c, 0, 52, 0
2, 1330533, Note_on_c, 0, 57, 0
2, 1330533, Note_on_c, 0, 88, 0
2, 1330560, Note_on_c, 0, 74, 43
2, 1330560, Note_on_c, 0, 81, 43
2, 1330560, Note_on_c, 0, 86, 43
2, 1330560, Note_on_c, 0, 54, 53
2, 1330560, Note_on_c, 0, 57, 53
2, 1330560, Note_on_c, 0, 62, 53
2, 1330723, Note_on_c, 0, 62, 0
2, 1330723, Note_on_c, 0, 57, 0
2, 1330723, Note_on_c, 0, 86, 0
2, 1330723, Note_on_c, 0, 81, 0
2, 1330723, Note_on_c, 0, 74, 0
2, 1330723, Note_on_c, 0, 54, 0
2, 1331100, Note_on_c, 0, 74, 43
2, 1331100, Note_on_c, 0, 81, 42
2, 1331100, Note_on_c, 0, 86, 43
2, 1331100, Note_on_c, 0, 54, 49
2, 1331100, Note_on_c, 0, 57, 53
2, 1331100, Note_on_c, 0, 62, 52
2, 1331343, Note_on_c, 0, 62, 0
2, 1331343, Note_on_c, 0, 57, 0
2, 1331343, Note_on_c, 0, 86, 0
2, 1331343, Note_on_c, 0, 81, 0
2, 1331343, Note_on_c, 0, 74, 0
2, 1331343, Note_on_c, 0, 54, 0
2, 1331370, Note_on_c, 0, 74, 41
2, 1331370, Note_on_c, 0, 81, 42
2, 1331370, Note_on_c, 0, 86, 43
2, 1331370, Note_on_c, 0, 54, 54
2, 1331370, Note_on_c, 0, 57, 50
2, 1331370, Note_on_c, 0, 62, 54
2, 1331613, Note_on_c, 0, 62, 0
2, 1331613, Note_on_c, 0, 57, 0
2, 1331613, Note_on_c, 0, 86, 0
2, 1331613, Note_on_c, 0, 81, 0
2, 1331613, Note_on_c, 0, 74, 0
2, 1331613, Note_on_c, 0, 54, 0
2, 1331640, Note_on_c, 0, 76, 47
2, 1331640, Note_on_c, 0, 81, 50
2, 1331640, Note_on_c, 0, 88, 46
2, 1331640, Note_on_c, 0, 54, 58
2, 1331640, Note_on_c, 0, 57, 60
2, 1331640, Note_on_c, 0, 64, 60
2, 1331883, Note_on_c, 0, 64, 0
2, 1331883, Note_on_c, 0, 57, 0
2, 1331883, Note_on_c, 0, 88, 0
2, 1331883, Note_on_c, 0, 81, 0
2, 1331883, Note_on_c, 0, 76, 0
2, 1331883, Note_on_c, 0, 54, 0
2, 1331910, Note_on_c, 0, 76, 43
2, 1331910, Note_on_c, 0, 81, 43
2, 1331910, Note_on_c, 0, 88, 43
2, 1331910, Note_on_c, 0, 54, 54
2, 1331910, Note_on_c, 0, 57, 53
2, 1331910, Note_on_c, 0, 64, 51
2, 1332153, Note_on_c, 0, 64, 0
2, 1332153, Note_on_c, 0, 57, 0
2, 1332153, Note_on_c, 0, 88, 0
2, 1332153, Note_on_c, 0, 81, 0
2, 1332153, Note_on_c, 0, 76, 0
2, 1332153, Note_on_c, 0, 54, 0
2, 1332180, Note_on_c, 0, 78, 49
2, 1332180, Note_on_c, 0, 81, 50
2, 1332180, Note_on_c, 0, 90, 47
2, 1332180, Note_on_c, 0, 54, 58
2, 1332180, Note_on_c, 0, 57, 61
2, 1332180, Note_on_c, 0, 66, 58
2, 1332423, Note_on_c, 0, 66, 0
2, 1332423, Note_on_c, 0, 57, 0
2, 1332423, Note_on_c, 0, 90, 0
2, 1332423, Note_on_c, 0, 81, 0
2, 1332423, Note_on_c, 0, 78, 0
2, 1332423, Note_on_c, 0, 54, 0
2, 1332450, Note_on_c, 0, 78, 42
2, 1332450, Note_on_c, 0, 81, 42
2, 1332450, Note_on_c, 0, 90, 44
2, 1332450, Note_on_c, 0, 54, 51
2, 1332450, Note_on_c, 0, 57, 52
2, 1332450, Note_on_c, 0, 66, 51
2, 1332693, Note_on_c, 0, 66, 0
2, 1332693, Note_on_c, 0, 57, 0
2, 1332693, Note_on_c, 0, 90, 0
2, 1332693, Note_on_c, 0, 81, 0
2, 1332693, Note_on_c, 0, 78, 0
2, 1332693, Note_on_c, 0, 54, 0
2, 1332720, Note_on_c, 0, 74, 41
2, 1332720, Note_on_c, 0, 81, 40
2, 1332720, Note_on_c, 0, 86, 40
2, 1332720, Note_on_c, 0, 54, 48
2, 1332720, Note_on_c, 0, 57, 51
2, 1332720, Note_on_c, 0, 62, 49
2, 1332963, Note_on_c, 0, 62, 0
2, 1332963, Note_on_c, 0, 57, 0
2, 1332963, Note_on_c, 0, 86, 0
2, 1332963, Note_on_c, 0, 81, 0
2, 1332963, Note_on_c, 0, 74, 0
2, 1332963, Note_on_c, 0, 54, 0
2, 1332990, Note_on_c, 0, 74, 42
2, 1332990, Note_on_c, 0, 81, 44
2, 1332990, Note_on_c, 0, 86, 44
2, 1332990, Note_on_c, 0, 54, 51
2, 1332990, Note_on_c, 0, 57, 51
2, 1332990, Note_on_c, 0, 62, 53
2, 1333233, Note_on_c, 0, 62, 0
2, 1333233, Note_on_c, 0, 57, 0
2, 1333233, Note_on_c, 0, 86, 0
2, 1333233, Note_on_c, 0, 81, 0
2, 1333233, Note_on_c, 0, 74, 0
2, 1333233, Note_on_c, 0, 54, 0
2, 1333260, Note_on_c, 0, 75, 46
2, 1333260, Note_on_c, 0, 82, 46
2, 1333260, Note_on_c, 0, 87, 46
2, 1333260, Note_on_c, 0, 54, 58
2, 1333260, Note_on_c, 0, 58, 59
2, 1333260, Note_on_c, 0, 63, 56
2, 1333503, Note_on_c, 0, 63, 0
2, 1333503, Note_on_c, 0, 58, 0
2, 1333503, Note_on_c, 0, 87, 0
2, 1333503, Note_on_c, 0, 82, 0
2, 1333503, Note_on_c, 0, 75, 0
2, 1333503, Note_on_c, 0, 54, 0
2, 1333530, Note_on_c, 0, 75, 44
2, 1333530, Note_on_c, 0, 82, 41
2, 1333530, Note_on_c, 0, 87, 44
2, 1333530, Note_on_c, 0, 54, 51
2, 1333530, Note_on_c, 0, 58, 52
2, 1333530, Note_on_c, 0, 63, 52
2, 1333773, Note_on_c, 0, 63, 0
2, 1333773, Note_on_c, 0, 58, 0
2, 1333773, Note_on_c, 0, 87, 0
2, 1333773, Note_on_c, 0, 82, 0
2, 1333773, Note_on_c, 0, 75, 0
2, 1333773, Note_on_c, 0, 54, 0
2, 1333800, Note_on_c, 0, 77, 48
2, 1333800, Note_on_c, 0, 82, 48
2, 1333800, Note_on_c, 0, 87, 48
2, 1333800, Note_on_c, 0, 89, 47
2, 1333800, Note_on_c, 0, 54, 60
2, 1333800, Note_on_c, 0, 58, 61
2, 1333800, Note_on_c, 0, 63, 61
2, 1333800, Note_on_c, 0, 65, 58
2, 1334043, Note_on_c, 0, 65, 0
2, 1334043, Note_on_c, 0, 77, 0
2, 1334043, Note_on_c, 0, 82, 0
2, 1334043, Note_on_c, 0, 63, 0
2, 1334043, Note_on_c, 0, 87, 0
2, 1334043, Note_on_c, 0, 54, 0
2, 1334043, Note_on_c, 0, 58, 0
2, 1334043, Note_on_c, 0, 89, 0
2, 1334070, Note_on_c, 0, 77, 42
2, 1334070, Note_on_c, 0, 82, 42
2, 1334070, Note_on_c, 0, 87, 42
2, 1334070, Note_on_c, 0, 89, 42
2, 1334070, Note_on_c, 0, 54, 51
2, 1334070, Note_on_c, 0, 58, 55
2, 1334070, Note_on_c, 0, 63, 55
2, 1334070, Note_on_c, 0, 65, 53
2, 1334313, Note_on_c, 0, 65, 0
2, 1334313, Note_on_c, 0, 77, 0
2, 1334313, Note_on_c, 0, 82, 0
2, 1334313, Note_on_c, 0, 63, 0
2, 1334313, Note_on_c, 0, 87, 0
2, 1334313, Note_on_c, 0, 54, 0
2, 1334313, Note_on_c, 0, 58, 0
2, 1334313, Note_on_c, 0, 89, 0
2, 1334340, Note_on_c, 0, 78, 48
2, 1334340, Note_on_c, 0, 82, 46
2, 1334340, Note_on_c, 0, 87, 45
2, 1334340, Note_on_c, 0, 90, 46
2, 1334340, Note_on_c, 0, 54, 56
2, 1334340, Note_on_c, 0, 58, 56
2, 1334340, Note_on_c, 0, 63, 60
2, 1334340, Note_on_c, 0, 66, 58
2, 1334583, Note_on_c, 0, 66, 0
2, 1334583, Note_on_c, 0, 78, 0
2, 1334583, Note_on_c, 0, 82, 0
2, 1334583, Note_on_c, 0, 63, 0
2, 1334583, Note_on_c, 0, 87, 0
2, 1334583, Note_on_c, 0, 54, 0
2, 1334583, Note_on_c, 0, 58, 0
2, 1334583, Note_on_c, 0, 90, 0
2, 1334610, Note_on_c, 0, 78, 43
2, 1334610, Note_on_c, 0, 82, 44
2, 1334610, Note_on_c, 0, 87, 42
2, 1334610, Note_on_c, 0, 90, 43
2, 1334610, Note_on_c, 0, 54, 54
2, 1334610, Note_on_c, 0, 58, 53
2, 1334610, Note_on_c, 0, 63, 55
2, 1334610, Note_on_c, 0, 66, 52
2, 1334853, Note_on_c, 0, 66, 0
2, 1334853, Note_on_c, 0, 78, 0
2, 1334853, Note_on_c, 0, 82, 0
2, 1334853, Note_on_c, 0, 63, 0
2, 1334853, Note_on_c, 0, 87, 0
2, 1334853, Note_on_c, 0, 54, 0
2, 1334853, Note_on_c, 0, 58, 0
2, 1334853, Note_on_c, 0, 90, 0
2, 1334880, Note_on_c, 0, 75, 43
2, 1334880, Note_on_c, 0, 82, 43
2, 1334880, Note_on_c, 0, 87, 41
2, 1334880, Note_on_c, 0, 54, 51
2, 1334880, Note_on_c, 0, 58, 50
2, 1334880, Note_on_c, 0, 63, 49
2, 1335123, Note_on_c, 0, 63, 0
2, 1335123, Note_on_c, 0, 58, 0
2, 1335123, Note_on_c, 0, 87, 0
2, 1335123, Note_on_c, 0, 82, 0
2, 1335123, Note_on_c, 0, 75, 0
2, 1335123, Note_on_c, 0, 54, 0
2, 1335150, Note_on_c, 0, 75, 42
2, 1335150, Note_on_c, 0, 82, 42
2, 1335150, Note_on_c, 0, 87, 43
2, 1335150, Note_on_c, 0, 54, 51
2, 1335150, Note_on_c, 0, 58, 53
2, 1335150, Note_on_c, 0, 63, 52
2, 1335393, Note_on_c, 0, 63, 0
2, 1335393, Note_on_c, 0, 58, 0
2, 1335393, Note_on_c, 0, 87, 0
2, 1335393, Note_on_c, 0, 82, 0
2, 1335393, Note_on_c, 0, 75, 0
2, 1335393, Note_on_c, 0, 54, 0
2, 1335420, Note_on_c, 0, 75, 46
2, 1335420, Note_on_c, 0, 84, 44
2, 1335420, Note_on_c, 0, 87, 45
2, 1335420, Note_on_c, 0, 54, 56
2, 1335420, Note_on_c, 0, 60, 55
2, 1335420, Note_on_c, 0, 63, 58
2, 1335663, Note_on_c, 0, 63, 0
2, 1335663, Note_on_c, 0, 60, 0
2, 1335663, Note_on_c, 0, 87, 0
2, 1335663, Note_on_c, 0, 84, 0
2, 1335663, Note_on_c, 0, 75, 0
2, 1335663, Note_on_c, 0, 54, 0
2, 1335690, Note_on_c, 0, 75, 42
2, 1335690, Note_on_c, 0, 84, 43
2, 1335690, Note_on_c, 0, 87, 42
2, 1335690, Note_on_c, 0, 54, 52
2, 1335690, Note_on_c, 0, 60, 53
2, 1335690, Note_on_c, 0, 63, 51
2, 1335933, Note_on_c, 0, 63, 0
2, 1335933, Note_on_c, 0, 60, 0
2, 1335933, Note_on_c, 0, 87, 0
2, 1335933, Note_on_c, 0, 84, 0
2, 1335933, Note_on_c, 0, 75, 0
2, 1335933, Note_on_c, 0, 54, 0
2, 1335960, Note_on_c, 0, 77, 48
2, 1335960, Note_on_c, 0, 84, 46
2, 1335960, Note_on_c, 0, 87, 48
2, 1335960, Note_on_c, 0, 89, 49
2, 1335960, Note_on_c, 0, 54, 57
2, 1335960, Note_on_c, 0, 60, 58
2, 1335960, Note_on_c, 0, 63, 58
2, 1335960, Note_on_c, 0, 65, 58
2, 1336203, Note_on_c, 0, 65, 0
2, 1336203, Note_on_c, 0, 77, 0
2, 1336203, Note_on_c, 0, 84, 0
2, 1336203, Note_on_c, 0, 63, 0
2, 1336203, Note_on_c, 0, 87, 0
2, 1336203, Note_on_c, 0, 54, 0
2, 1336203, Note_on_c, 0, 60, 0
2, 1336203, Note_on_c, 0, 89, 0
2, 1336230, Note_on_c, 0, 77, 42
2, 1336230, Note_on_c, 0, 84, 43
2, 1336230, Note_on_c, 0, 87, 44
2, 1336230, Note_on_c, 0, 89, 43
2, 1336230, Note_on_c, 0, 54, 51
2, 1336230, Note_on_c, 0, 60, 53
2, 1336230, Note_on_c, 0, 63, 53
2, 1336230, Note_on_c, 0, 65, 51
2, 1336473, Note_on_c, 0, 65, 0
2, 1336473, Note_on_c, 0, 77, 0
2, 1336473, Note_on_c, 0, 84, 0
2, 1336473, Note_on_c, 0, 63, 0
2, 1336473, Note_on_c, 0, 87, 0
2, 1336473, Note_on_c, 0, 54, 0
2, 1336473, Note_on_c, 0, 60, 0
2, 1336473, Note_on_c, 0, 89, 0
2, 1336500, Note_on_c, 0, 78, 49
2, 1336500, Note_on_c, 0, 84, 48
2, 1336500, Note_on_c, 0, 87, 46
2, 1336500, Note_on_c, 0, 90, 47
2, 1336500, Note_on_c, 0, 54, 57
2, 1336500, Note_on_c, 0, 60, 57
2, 1336500, Note_on_c, 0, 63, 57
2, 1336500, Note_on_c, 0, 66, 59
2, 1336743, Note_on_c, 0, 66, 0
2, 1336743, Note_on_c, 0, 78, 0
2, 1336743, Note_on_c, 0, 84, 0
2, 1336743, Note_on_c, 0, 63, 0
2, 1336743, Note_on_c, 0, 87, 0
2, 1336743, Note_on_c, 0, 54, 0
2, 1336743, Note_on_c, 0, 60, 0
2, 1336743, Note_on_c, 0, 90, 0
2, 1336770, Note_on_c, 0, 78, 41
2, 1336770, Note_on_c, 0, 84, 45
2, 1336770, Note_on_c, 0, 87, 43
2, 1336770, Note_on_c, 0, 90, 42
2, 1336770, Note_on_c, 0, 54, 52
2, 1336770, Note_on_c, 0, 60, 53
2, 1336770, Note_on_c, 0, 63, 55
2, 1336770, Note_on_c, 0, 66, 53
2, 1337013, Note_on_c, 0, 66, 0
2, 1337013, Note_on_c, 0, 78, 0
2, 1337013, Note_on_c, 0, 84, 0
2, 1337013, Note_on_c, 0, 63, 0
2, 1337013, Note_on_c, 0, 87, 0
2, 1337013, Note_on_c, 0, 54, 0
2, 1337013, Note_on_c, 0, 60, 0
2, 1337013, Note_on_c, 0, 90, 0
2, 1337040, Note_on_c, 0, 74, 43
2, 1337040, Note_on_c, 0, 84, 41
2, 1337040, Note_on_c, 0, 86, 40
2, 1337040, Note_on_c, 0, 54, 51
2, 1337040, Note_on_c, 0, 60, 50
2, 1337040, Note_on_c, 0, 62, 52
2, 1337283, Note_on_c, 0, 62, 0
2, 1337283, Note_on_c, 0, 60, 0
2, 1337283, Note_on_c, 0, 86, 0
2, 1337283, Note_on_c, 0, 84, 0
2, 1337283, Note_on_c, 0, 74, 0
2, 1337283, Note_on_c, 0, 54, 0
2, 1337310, Note_on_c, 0, 74, 44
2, 1337310, Note_on_c, 0, 84, 43
2, 1337310, Note_on_c, 0, 86, 42
2, 1337310, Note_on_c, 0, 54, 51
2, 1337310, Note_on_c, 0, 60, 51
2, 1337310, Note_on_c, 0, 62, 52
2, 1337553, Note_on_c, 0, 62, 0
2, 1337553, Note_on_c, 0, 60, 0
2, 1337553, Note_on_c, 0, 86, 0
2, 1337553, Note_on_c, 0, 84, 0
2, 1337553, Note_on_c, 0, 74, 0
2, 1337553, Note_on_c, 0, 54, 0
2, 1337580, Note_on_c, 0, 75, 45
2, 1337580, Note_on_c, 0, 84, 49
2, 1337580, Note_on_c, 0, 87, 45
2, 1337580, Note_on_c, 0, 54, 60
2, 1337580, Note_on_c, 0, 60, 58
2, 1337580, Note_on_c, 0, 63, 59
2, 1337823, Note_on_c, 0, 63, 0
2, 1337823, Note_on_c, 0, 60, 0
2, 1337823, Note_on_c, 0, 87, 0
2, 1337823, Note_on_c, 0, 84, 0
2, 1337823, Note_on_c, 0, 75, 0
2, 1337823, Note_on_c, 0, 54, 0
2, 1337850, Note_on_c, 0, 75, 44
2, 1337850, Note_on_c, 0, 84, 43
2, 1337850, Note_on_c, 0, 87, 43
2, 1337850, Note_on_c, 0, 54, 53
2, 1337850, Note_on_c, 0, 60, 53
2, 1337850, Note_on_c, 0, 63, 54
2, 1338093, Note_on_c, 0, 63, 0
2, 1338093, Note_on_c, 0, 60, 0
2, 1338093, Note_on_c, 0, 87, 0
2, 1338093, Note_on_c, 0, 84, 0
2, 1338093, Note_on_c, 0, 75, 0
2, 1338093, Note_on_c, 0, 54, 0
2, 1338120, Note_on_c, 0, 77, 47
2, 1338120, Note_on_c, 0, 84, 49
2, 1338120, Note_on_c, 0, 87, 48
2, 1338120, Note_on_c, 0, 89, 48
2, 1338120, Note_on_c, 0, 54, 58
2, 1338120, Note_on_c, 0, 60, 60
2, 1338120, Note_on_c, 0, 63, 58
2, 1338120, Note_on_c, 0, 65, 59
2, 1338363, Note_on_c, 0, 65, 0
2, 1338363, Note_on_c, 0, 77, 0
2, 1338363, Note_on_c, 0, 84, 0
2, 1338363, Note_on_c, 0, 63, 0
2, 1338363, Note_on_c, 0, 87, 0
2, 1338363, Note_on_c, 0, 54, 0
2, 1338363, Note_on_c, 0, 60, 0
2, 1338363, Note_on_c, 0, 89, 0
2, 1338390, Note_on_c, 0, 77, 43
2, 1338390, Note_on_c, 0, 84, 44
2, 1338390, Note_on_c, 0, 87, 43
2, 1338390, Note_on_c, 0, 89, 41
2, 1338390, Note_on_c, 0, 54, 53
2, 1338390, Note_on_c, 0, 60, 54
2, 1338390, Note_on_c, 0, 63, 54
2, 1338390, Note_on_c, 0, 65, 54
2, 1338633, Note_on_c, 0, 65, 0
2, 1338633, Note_on_c, 0, 77, 0
2, 1338633, Note_on_c, 0, 84, 0
2, 1338633, Note_on_c, 0, 63, 0
2, 1338633, Note_on_c, 0, 87, 0
2, 1338633, Note_on_c, 0, 54, 0
2, 1338633, Note_on_c, 0, 60, 0
2, 1338633, Note_on_c, 0, 89, 0
2, 1338660, Note_on_c, 0, 78, 45
2, 1338660, Note_on_c, 0, 84, 48
2, 1338660, Note_on_c, 0, 87, 49
2, 1338660, Note_on_c, 0, 90, 48
2, 1338660, Note_on_c, 0, 54, 58
2, 1338660, Note_on_c, 0, 60, 60
2, 1338660, Note_on_c, 0, 63, 57
2, 1338660, Note_on_c, 0, 66, 56
2, 1338903, Note_on_c, 0, 66, 0
2, 1338903, Note_on_c, 0, 78, 0
2, 1338903, Note_on_c, 0, 84, 0
2, 1338903, Note_on_c, 0, 63, 0
2, 1338903, Note_on_c, 0, 87, 0
2, 1338903, Note_on_c, 0, 54, 0
2, 1338903, Note_on_c, 0, 60, 0
2, 1338903, Note_on_c, 0, 90, 0
2, 1338930, Note_on_c, 0, 78, 42
2, 1338930, Note_on_c, 0, 84, 44
2, 1338930, Note_on_c, 0, 87, 43
2, 1338930, Note_on_c, 0, 90, 44
2, 1338930, Note_on_c, 0, 54, 51
2, 1338930, Note_on_c, 0, 60, 53
2, 1338930, Note_on_c, 0, 63, 53
2, 1338930, Note_on_c, 0, 66, 51
2, 1339173, Note_on_c, 0, 66, 0
2, 1339173, Note_on_c, 0, 78, 0
2, 1339173, Note_on_c, 0, 84, 0
2, 1339173, Note_on_c, 0, 63, 0
2, 1339173, Note_on_c, 0, 87, 0
2, 1339173, Note_on_c, 0, 54, 0
2, 1339173, Note_on_c, 0, 60, 0
2, 1339173, Note_on_c, 0, 90, 0
2, 1339200, Note_on_c, 0, 74, 43
2, 1339200, Note_on_c, 0, 84, 40
2, 1339200, Note_on_c, 0, 86, 42
2, 1339200, Note_on_c, 0, 54, 50
2, 1339200, Note_on_c, 0, 60, 51
2, 1339200, Note_on_c, 0, 62, 49
2, 1339363, Note_on_c, 0, 62, 0
2, 1339363, Note_on_c, 0, 60, 0
2, 1339363, Note_on_c, 0, 86, 0
2, 1339363, Note_on_c, 0, 84, 0
2, 1339363, Note_on_c, 0, 74, 0
2, 1339363, Note_on_c, 0, 54, 0
2, 1339740, Note_on_c, 0, 76, 44
2, 1339740, Note_on_c, 0, 84, 41
2, 1339740, Note_on_c, 0, 88, 40
2, 1339740, Note_on_c, 0, 54, 51
2, 1339740, Note_on_c, 0, 60, 50
2, 1339740, Note_on_c, 0, 64, 49
2, 1339983, Note_on_c, 0, 64, 0
2, 1339983, Note_on_c, 0, 60, 0
2, 1339983, Note_on_c, 0, 88, 0
2, 1339983, Note_on_c, 0, 84, 0
2, 1339983, Note_on_c, 0, 76, 0
2, 1339983, Note_on_c, 0, 54, 0
2, 1340010, Note_on_c, 0, 76, 44
2, 1340010, Note_on_c, 0, 84, 43
2, 1340010, Note_on_c, 0, 88, 44
2, 1340010, Note_on_c, 0, 54, 50
2, 1340010, Note_on_c, 0, 60, 52
2, 1340010, Note_on_c, 0, 64, 52
2, 1340253, Note_on_c, 0, 64, 0
2, 1340253, Note_on_c, 0, 60, 0
2, 1340253, Note_on_c, 0, 88, 0
2, 1340253, Note_on_c, 0, 84, 0
2, 1340253, Note_on_c, 0, 76, 0
2, 1340253, Note_on_c, 0, 54, 0
2, 1340280, Note_on_c, 0, 78, 47
2, 1340280, Note_on_c, 0, 84, 48
2, 1340280, Note_on_c, 0, 90, 48
2, 1340280, Note_on_c, 0, 54, 57
2, 1340280, Note_on_c, 0, 60, 58
2, 1340280, Note_on_c, 0, 66, 58
2, 1340523, Note_on_c, 0, 66, 0
2, 1340523, Note_on_c, 0, 60, 0
2, 1340523, Note_on_c, 0, 90, 0
2, 1340523, Note_on_c, 0, 84, 0
2, 1340523, Note_on_c, 0, 78, 0
2, 1340523, Note_on_c, 0, 54, 0
2, 1340550, Note_on_c, 0, 78, 43
2, 1340550, Note_on_c, 0, 84, 41
2, 1340550, Note_on_c, 0, 90, 44
2, 1340550, Note_on_c, 0, 54, 53
2, 1340550, Note_on_c, 0, 60, 54
2, 1340550, Note_on_c, 0, 66, 54
2, 1340793, Note_on_c, 0, 66, 0
2, 1340793, Note_on_c, 0, 60, 0
2, 1340793, Note_on_c, 0, 90, 0
2, 1340793, Note_on_c, 0, 84, 0
2, 1340793, Note_on_c, 0, 78, 0
2, 1340793, Note_on_c, 0, 54, 0
2, 1340820, Note_on_c, 0, 74, 40
2, 1340820, Note_on_c, 0, 84, 41
2, 1340820, Note_on_c, 0, 86, 43
2, 1340820, Note_on_c, 0, 54, 50
2, 1340820, Note_on_c, 0, 60, 49
2, 1340820, Note_on_c, 0, 62, 50
2, 1341063, Note_on_c, 0, 62, 0
2, 1341063, Note_on_c, 0, 60, 0
2, 1341063, Note_on_c, 0, 86, 0
2, 1341063, Note_on_c, 0, 84, 0
2, 1341063, Note_on_c, 0, 74, 0
2, 1341063, Note_on_c, 0, 54, 0
2, 1341090, Note_on_c, 0, 74, 43
2, 1341090, Note_on_c, 0, 84, 43
2, 1341090, Note_on_c, 0, 86, 44
2, 1341090, Note_on_c, 0, 54, 52
2, 1341090, Note_on_c, 0, 60, 53
2, 1341090, Note_on_c, 0, 62, 50
2, 1341333, Note_on_c, 0, 62, 0
2, 1341333, Note_on_c, 0, 60, 0
2, 1341333, Note_on_c, 0, 86, 0
2, 1341333, Note_on_c, 0, 84, 0
2, 1341333, Note_on_c, 0, 74, 0
2, 1341333, Note_on_c, 0, 54, 0
2, 1341360, Note_on_c, 0, 76, 49
2, 1341360, Note_on_c, 0, 84, 48
2, 1341360, Note_on_c, 0, 88, 49
2, 1341360, Note_on_c, 0, 54, 61
2, 1341360, Note_on_c, 0, 60, 58
2, 1341360, Note_on_c, 0, 64, 58
2, 1341603, Note_on_c, 0, 64, 0
2, 1341603, Note_on_c, 0, 60, 0
2, 1341603, Note_on_c, 0, 88, 0
2, 1341603, Note_on_c, 0, 84, 0
2, 1341603, Note_on_c, 0, 76, 0
2, 1341603, Note_on_c, 0, 54, 0
2, 1341630, Note_on_c, 0, 76, 41
2, 1341630, Note_on_c, 0, 84, 45
2, 1341630, Note_on_c, 0, 88, 43
2, 1341630, Note_on_c, 0, 54, 51
2, 1341630, Note_on_c, 0, 60, 52
2, 1341630, Note_on_c, 0, 64, 54
2, 1341873, Note_on_c, 0, 64, 0
2, 1341873, Note_on_c, 0, 60, 0
2, 1341873, Note_on_c, 0, 88, 0
2, 1341873, Note_on_c, 0, 84, 0
2, 1341873, Note_on_c, 0, 76, 0
2, 1341873, Note_on_c, 0, 54, 0
2, 1341900, Note_on_c, 0, 78, 49
2, 1341900, Note_on_c, 0, 84, 46
2, 1341900, Note_on_c, 0, 90, 49
2, 1341900, Note_on_c, 0, 54, 60
2, 1341900, Note_on_c, 0, 60, 58
2, 1341900, Note_on_c, 0, 66, 59
2, 1342143, Note_on_c, 0, 66, 0
2, 1342143, Note_on_c, 0, 60, 0
2, 1342143, Note_on_c, 0, 90, 0
2, 1342143, Note_on_c, 0, 84, 0
2, 1342143, Note_on_c, 0, 78, 0
2, 1342143, Note_on_c, 0, 54, 0
2, 1342170, Note_on_c, 0, 78, 43
2, 1342170, Note_on_c, 0, 84, 44
2, 1342170, Note_on_c, 0, 90, 43
2, 1342170, Note_on_c, 0, 54, 52
2, 1342170, Note_on_c, 0, 60, 54
2, 1342170, Note_on_c, 0, 66, 55
2, 1342413, Note_on_c, 0, 66, 0
2, 1342413, Note_on_c, 0, 60, 0
2, 1342413, Note_on_c, 0, 90, 0
2, 1342413, Note_on_c, 0, 84, 0
2, 1342413, Note_on_c, 0, 78, 0
2, 1342413, Note_on_c, 0, 54, 0
2, 1342440, Note_on_c, 0, 74, 42
2, 1342440, Note_on_c, 0, 84, 39
2, 1342440, Note_on_c, 0, 86, 42
2, 1342440, Note_on_c, 0, 54, 52
2, 1342440, Note_on_c, 0, 60, 49
2, 1342440, Note_on_c, 0, 62, 49
2, 1342683, Note_on_c, 0, 62, 0
2, 1342683, Note_on_c, 0, 60, 0
2, 1342683, Note_on_c, 0, 86, 0
2, 1342683, Note_on_c, 0, 84, 0
2, 1342683, Note_on_c, 0, 74, 0
2, 1342683, Note_on_c, 0, 54, 0
2, 1342710, Note_on_c, 0, 74, 43
2, 1342710, Note_on_c, 0, 84, 43
2, 1342710, Note_on_c, 0, 86, 41
2, 1342710, Note_on_c, 0, 54, 52
2, 1342710, Note_on_c, 0, 60, 52
2, 1342710, Note_on_c, 0, 62, 51
2, 1342953, Note_on_c, 0, 62, 0
2, 1342953, Note_on_c, 0, 60, 0
2, 1342953, Note_on_c, 0, 86, 0
2, 1342953, Note_on_c, 0, 84, 0
2, 1342953, Note_on_c, 0, 74, 0
2, 1342953, Note_on_c, 0, 54, 0
2, 1342980, Note_on_c, 0, 78, 49
2, 1342980, Note_on_c, 0, 84, 48
2, 1342980, Note_on_c, 0, 90, 51
2, 1342980, Note_on_c, 0, 54, 63
2, 1342980, Note_on_c, 0, 60, 60
2, 1342980, Note_on_c, 0, 66, 60
2, 1343223, Note_on_c, 0, 66, 0
2, 1343223, Note_on_c, 0, 60, 0
2, 1343223, Note_on_c, 0, 90, 0
2, 1343223, Note_on_c, 0, 84, 0
2, 1343223, Note_on_c, 0, 78, 0
2, 1343223, Note_on_c, 0, 54, 0
2, 1343250, Note_on_c, 0, 78, 42
2, 1343250, Note_on_c, 0, 84, 45
2, 1343250, Note_on_c, 0, 90, 42
2, 1343250, Note_on_c, 0, 54, 53
2, 1343250, Note_on_c, 0, 60, 53
2, 1343250, Note_on_c, 0, 66, 54
2, 1343493, Note_on_c, 0, 66, 0
2, 1343493, Note_on_c, 0, 60, 0
2, 1343493, Note_on_c, 0, 90, 0
2, 1343493, Note_on_c, 0, 84, 0
2, 1343493, Note_on_c, 0, 78, 0
2, 1343493, Note_on_c, 0, 54, 0
2, 1343520, Note_on_c, 0, 79, 35
2, 1343520, Note_on_c, 0, 84, 37
2, 1343520, Note_on_c, 0, 88, 35
2, 1343520, Note_on_c, 0, 91, 36
2, 1343520, Note_on_c, 0, 55, 57
2, 1343520, Note_on_c, 0, 60, 56
2, 1343520, Note_on_c, 0, 64, 58
2, 1343520, Note_on_c, 0, 67, 59
2, 1343683, Note_on_c, 0, 67, 0
2, 1343683, Note_on_c, 0, 79, 0
2, 1343683, Note_on_c, 0, 84, 0
2, 1343683, Note_on_c, 0, 64, 0
2, 1343683, Note_on_c, 0, 91, 0
2, 1343683, Note_on_c, 0, 55, 0
2, 1343683, Note_on_c, 0, 60, 0
2, 1343683, Note_on_c, 0, 88, 0
2, 1344060, Note_on_c, 0, 79, 42
2, 1344060, Note_on_c, 0, 84, 41
2, 1344060, Note_on_c, 0, 88, 40
2, 1344060, Note_on_c, 0, 91, 43
2, 1344060, Note_on_c, 0, 55, 53
2, 1344060, Note_on_c, 0, 60, 53
2, 1344060, Note_on_c, 0, 64, 49
2, 1344060, Note_on_c, 0, 67, 51
2, 1344303, Note_on_c, 0, 67, 0
2, 1344303, Note_on_c, 0, 79, 0
2, 1344303, Note_on_c, 0, 84, 0
2, 1344303, Note_on_c, 0, 64, 0
2, 1344303, Note_on_c, 0, 91, 0
2, 1344303, Note_on_c, 0, 55, 0
2, 1344303, Note_on_c, 0, 60, 0
2, 1344303, Note_on_c, 0, 88, 0
2, 1344330, Note_on_c, 0, 79, 42
2, 1344330, Note_on_c, 0, 84, 43
2, 1344330, Note_on_c, 0, 88, 42
2, 1344330, Note_on_c, 0, 91, 44
2, 1344330, Note_on_c, 0, 55, 51
2, 1344330, Note_on_c, 0, 60, 52
2, 1344330, Note_on_c, 0, 64, 52
2, 1344330, Note_on_c, 0, 67, 54
2, 1344573, Note_on_c, 0, 67, 0
2, 1344573, Note_on_c, 0, 79, 0
2, 1344573, Note_on_c, 0, 84, 0
2, 1344573, Note_on_c, 0, 64, 0
2, 1344573, Note_on_c, 0, 91, 0
2, 1344573, Note_on_c, 0, 55, 0
2, 1344573, Note_on_c, 0, 60, 0
2, 1344573, Note_on_c, 0, 88, 0
2, 1344600, Note_on_c, 0, 80, 47
2, 1344600, Note_on_c, 0, 84, 45
2, 1344600, Note_on_c, 0, 88, 47
2, 1344600, Note_on_c, 0, 92, 47
2, 1344600, Note_on_c, 0, 56, 57
2, 1344600, Note_on_c, 0, 60, 59
2, 1344600, Note_on_c, 0, 64, 59
2, 1344600, Note_on_c, 0, 68, 57
2, 1344843, Note_on_c, 0, 68, 0
2, 1344843, Note_on_c, 0, 80, 0
2, 1344843, Note_on_c, 0, 84, 0
2, 1344843, Note_on_c, 0, 64, 0
2, 1344843, Note_on_c, 0, 88, 0
2, 1344843, Note_on_c, 0, 56, 0
2, 1344843, Note_on_c, 0, 60, 0
2, 1344843, Note_on_c, 0, 92, 0
2, 1344870, Note_on_c, 0, 80, 41
2, 1344870, Note_on_c, 0, 84, 42
2, 1344870, Note_on_c, 0, 88, 41
2, 1344870, Note_on_c, 0, 92, 44
2, 1344870, Note_on_c, 0, 56, 54
2, 1344870, Note_on_c, 0, 60, 55
2, 1344870, Note_on_c, 0, 64, 53
2, 1344870, Note_on_c, 0, 68, 52
2, 1345113, Note_on_c, 0, 68, 0
2, 1345113, Note_on_c, 0, 80, 0
2, 1345113, Note_on_c, 0, 84, 0
2, 1345113, Note_on_c, 0, 64, 0
2, 1345113, Note_on_c, 0, 88, 0
2, 1345113, Note_on_c, 0, 56, 0
2, 1345113, Note_on_c, 0, 60, 0
2, 1345113, Note_on_c, 0, 92, 0
2, 1345140, Note_on_c, 0, 82, 49
2, 1345140, Note_on_c, 0, 84, 47
2, 1345140, Note_on_c, 0, 88, 47
2, 1345140, Note_on_c, 0, 94, 47
2, 1345140, Note_on_c, 0, 58, 58
2, 1345140, Note_on_c, 0, 60, 58
2, 1345140, Note_on_c, 0, 64, 57
2, 1345140, Note_on_c, 0, 70, 58
2, 1345383, Note_on_c, 0, 70, 0
2, 1345383, Note_on_c, 0, 82, 0
2, 1345383, Note_on_c, 0, 84, 0
2, 1345383, Note_on_c, 0, 64, 0
2, 1345383, Note_on_c, 0, 88, 0
2, 1345383, Note_on_c, 0, 58, 0
2, 1345383, Note_on_c, 0, 60, 0
2, 1345383, Note_on_c, 0, 94, 0
2, 1345410, Note_on_c, 0, 82, 42
2, 1345410, Note_on_c, 0, 84, 44
2, 1345410, Note_on_c, 0, 88, 45
2, 1345410, Note_on_c, 0, 94, 45
2, 1345410, Note_on_c, 0, 58, 54
2, 1345410, Note_on_c, 0, 60, 55
2, 1345410, Note_on_c, 0, 64, 51
2, 1345410, Note_on_c, 0, 70, 52
2, 1345653, Note_on_c, 0, 70, 0
2, 1345653, Note_on_c, 0, 82, 0
2, 1345653, Note_on_c, 0, 84, 0
2, 1345653, Note_on_c, 0, 64, 0
2, 1345653, Note_on_c, 0, 88, 0
2, 1345653, Note_on_c, 0, 58, 0
2, 1345653, Note_on_c, 0, 60, 0
2, 1345653, Note_on_c, 0, 94, 0
2, 1345680, Note_on_c, 0, 79, 44
2, 1345680, Note_on_c, 0, 84, 43
2, 1345680, Note_on_c, 0, 87, 40
2, 1345680, Note_on_c, 0, 91, 40
2, 1345680, Note_on_c, 0, 55, 52
2, 1345680, Note_on_c, 0, 60, 50
2, 1345680, Note_on_c, 0, 63, 50
2, 1345680, Note_on_c, 0, 67, 51
2, 1345843, Note_on_c, 0, 67, 0
2, 1345843, Note_on_c, 0, 79, 0
2, 1345843, Note_on_c, 0, 84, 0
2, 1345843, Note_on_c, 0, 63, 0
2, 1345843, Note_on_c, 0, 91, 0
2, 1345843, Note_on_c, 0, 55, 0
2, 1345843, Note_on_c, 0, 60, 0
2, 1345843, Note_on_c, 0, 87, 0
2, 1346220, Note_on_c, 0, 79, 41
2, 1346220, Note_on_c, 0, 84, 43
2, 1346220, Note_on_c, 0, 87, 44
2, 1346220, Note_on_c, 0, 91, 43
2, 1346220, Note_on_c, 0, 55, 52
2, 1346220, Note_on_c, 0, 60, 51
2, 1346220, Note_on_c, 0, 63, 53
2, 1346220, Note_on_c, 0, 67, 51
2, 1346463, Note_on_c, 0, 67, 0
2, 1346463, Note_on_c, 0, 79, 0
2, 1346463, Note_on_c, 0, 84, 0
2, 1346463, Note_on_c, 0, 63, 0
2, 1346463, Note_on_c, 0, 91, 0
2, 1346463, Note_on_c, 0, 55, 0
2, 1346463, Note_on_c, 0, 60, 0
2, 1346463, Note_on_c, 0, 87, 0
2, 1346490, Note_on_c, 0, 79, 40
2, 1346490, Note_on_c, 0, 84, 43
2, 1346490, Note_on_c, 0, 87, 42
2, 1346490, Note_on_c, 0, 91, 43
2, 1346490, Note_on_c, 0, 55, 54
2, 1346490, Note_on_c, 0, 60, 54
2, 1346490, Note_on_c, 0, 63, 52
2, 1346490, Note_on_c, 0, 67, 51
2, 1346733, Note_on_c, 0, 67, 0
2, 1346733, Note_on_c, 0, 79, 0
2, 1346733, Note_on_c, 0, 84, 0
2, 1346733, Note_on_c, 0, 63, 0
2, 1346733, Note_on_c, 0, 91, 0
2, 1346733, Note_on_c, 0, 55, 0
2, 1346733, Note_on_c, 0, 60, 0
2, 1346733, Note_on_c, 0, 87, 0
2, 1346760, Note_on_c, 0, 80, 47
2, 1346760, Note_on_c, 0, 84, 46
2, 1346760, Note_on_c, 0, 87, 49
2, 1346760, Note_on_c, 0, 92, 49
2, 1346760, Note_on_c, 0, 56, 59
2, 1346760, Note_on_c, 0, 60, 57
2, 1346760, Note_on_c, 0, 63, 57
2, 1346760, Note_on_c, 0, 68, 57
2, 1347003, Note_on_c, 0, 68, 0
2, 1347003, Note_on_c, 0, 80, 0
2, 1347003, Note_on_c, 0, 84, 0
2, 1347003, Note_on_c, 0, 63, 0
2, 1347003, Note_on_c, 0, 87, 0
2, 1347003, Note_on_c, 0, 56, 0
2, 1347003, Note_on_c, 0, 60, 0
2, 1347003, Note_on_c, 0, 92, 0
2, 1347030, Note_on_c, 0, 80, 43
2, 1347030, Note_on_c, 0, 84, 44
2, 1347030, Note_on_c, 0, 87, 43
2, 1347030, Note_on_c, 0, 92, 43
2, 1347030, Note_on_c, 0, 56, 51
2, 1347030, Note_on_c, 0, 60, 54
2, 1347030, Note_on_c, 0, 63, 51
2, 1347030, Note_on_c, 0, 68, 53
2, 1347273, Note_on_c, 0, 68, 0
2, 1347273, Note_on_c, 0, 80, 0
2, 1347273, Note_on_c, 0, 84, 0
2, 1347273, Note_on_c, 0, 63, 0
2, 1347273, Note_on_c, 0, 87, 0
2, 1347273, Note_on_c, 0, 56, 0
2, 1347273, Note_on_c, 0, 60, 0
2, 1347273, Note_on_c, 0, 92, 0
2, 1347300, Note_on_c, 0, 82, 49
2, 1347300, Note_on_c, 0, 84, 48
2, 1347300, Note_on_c, 0, 87, 49
2, 1347300, Note_on_c, 0, 94, 47
2, 1347300, Note_on_c, 0, 58, 57
2, 1347300, Note_on_c, 0, 60, 59
2, 1347300, Note_on_c, 0, 63, 60
2, 1347300, Note_on_c, 0, 70, 61
2, 1347543, Note_on_c, 0, 70, 0
2, 1347543, Note_on_c, 0, 82, 0
2, 1347543, Note_on_c, 0, 84, 0
2, 1347543, Note_on_c, 0, 63, 0
2, 1347543, Note_on_c, 0, 87, 0
2, 1347543, Note_on_c, 0, 58, 0
2, 1347543, Note_on_c, 0, 60, 0
2, 1347543, Note_on_c, 0, 94, 0
2, 1347570, Note_on_c, 0, 82, 45
2, 1347570, Note_on_c, 0, 84, 43
2, 1347570, Note_on_c, 0, 87, 41
2, 1347570, Note_on_c, 0, 94, 45
2, 1347570, Note_on_c, 0, 58, 52
2, 1347570, Note_on_c, 0, 60, 55
2, 1347570, Note_on_c, 0, 63, 51
2, 1347570, Note_on_c, 0, 70, 54
2, 1347813, Note_on_c, 0, 70, 0
2, 1347813, Note_on_c, 0, 82, 0
2, 1347813, Note_on_c, 0, 84, 0
2, 1347813, Note_on_c, 0, 63, 0
2, 1347813, Note_on_c, 0, 87, 0
2, 1347813, Note_on_c, 0, 58, 0
2, 1347813, Note_on_c, 0, 60, 0
2, 1347813, Note_on_c, 0, 94, 0
2, 1347840, Note_on_c, 0, 79, 40
2, 1347840, Note_on_c, 0, 84, 43
2, 1347840, Note_on_c, 0, 86, 43
2, 1347840, Note_on_c, 0, 91, 40
2, 1347840, Note_on_c, 0, 55, 50
2, 1347840, Note_on_c, 0, 60, 53
2, 1347840, Note_on_c, 0, 62, 51
2, 1347840, Note_on_c, 0, 67, 50
2, 1348003, Note_on_c, 0, 67, 0
2, 1348003, Note_on_c, 0, 79, 0
2, 1348003, Note_on_c, 0, 84, 0
2, 1348003, Note_on_c, 0, 62, 0
2, 1348003, Note_on_c, 0, 91, 0
2, 1348003, Note_on_c, 0, 55, 0
2, 1348003, Note_on_c, 0, 60, 0
2, 1348003, Note_on_c, 0, 86, 0
2, 1348380, Note_on_c, 0, 80, 42
2, 1348380, Note_on_c, 0, 84, 43
2, 1348380, Note_on_c, 0, 86, 44
2, 1348380, Note_on_c, 0, 92, 42
2, 1348380, Note_on_c, 0, 56, 50
2, 1348380, Note_on_c, 0, 60, 50
2, 1348380, Note_on_c, 0, 62, 51
2, 1348380, Note_on_c, 0, 68, 50
2, 1348623, Note_on_c, 0, 68, 0
2, 1348623, Note_on_c, 0, 80, 0
2, 1348623, Note_on_c, 0, 84, 0
2, 1348623, Note_on_c, 0, 62, 0
2, 1348623, Note_on_c, 0, 86, 0
2, 1348623, Note_on_c, 0, 56, 0
2, 1348623, Note_on_c, 0, 60, 0
2, 1348623, Note_on_c, 0, 92, 0
2, 1348650, Note_on_c, 0, 80, 44
2, 1348650, Note_on_c, 0, 84, 40
2, 1348650, Note_on_c, 0, 86, 43
2, 1348650, Note_on_c, 0, 92, 44
2, 1348650, Note_on_c, 0, 56, 50
2, 1348650, Note_on_c, 0, 60, 53
2, 1348650, Note_on_c, 0, 62, 52
2, 1348650, Note_on_c, 0, 68, 54
2, 1348893, Note_on_c, 0, 68, 0
2, 1348893, Note_on_c, 0, 80, 0
2, 1348893, Note_on_c, 0, 84, 0
2, 1348893, Note_on_c, 0, 62, 0
2, 1348893, Note_on_c, 0, 86, 0
2, 1348893, Note_on_c, 0, 56, 0
2, 1348893, Note_on_c, 0, 60, 0
2, 1348893, Note_on_c, 0, 92, 0
2, 1348920, Note_on_c, 0, 79, 43
2, 1348920, Note_on_c, 0, 84, 46
2, 1348920, Note_on_c, 0, 86, 42
2, 1348920, Note_on_c, 0, 91, 43
2, 1348920, Note_on_c, 0, 55, 54
2, 1348920, Note_on_c, 0, 60, 52
2, 1348920, Note_on_c, 0, 62, 53
2, 1348920, Note_on_c, 0, 67, 53
2, 1349083, Note_on_c, 0, 67, 0
2, 1349083, Note_on_c, 0, 79, 0
2, 1349083, Note_on_c, 0, 84, 0
2, 1349083, Note_on_c, 0, 62, 0
2, 1349083, Note_on_c, 0, 91, 0
2, 1349083, Note_on_c, 0, 55, 0
2, 1349083, Note_on_c, 0, 60, 0
2, 1349083, Note_on_c, 0, 86, 0
2, 1349460, Note_on_c, 0, 80, 43
2, 1349460, Note_on_c, 0, 84, 40
2, 1349460, Note_on_c, 0, 86, 42
2, 1349460, Note_on_c, 0, 92, 40
2, 1349460, Note_on_c, 0, 56, 51
2, 1349460, Note_on_c, 0, 60, 51
2, 1349460, Note_on_c, 0, 62, 52
2, 1349460, Note_on_c, 0, 68, 50
2, 1349703, Note_on_c, 0, 68, 0
2, 1349703, Note_on_c, 0, 80, 0
2, 1349703, Note_on_c, 0, 84, 0
2, 1349703, Note_on_c, 0, 62, 0
2, 1349703, Note_on_c, 0, 86, 0
2, 1349703, Note_on_c, 0, 56, 0
2, 1349703, Note_on_c, 0, 60, 0
2, 1349703, Note_on_c, 0, 92, 0
2, 1349730, Note_on_c, 0, 80, 42
2, 1349730, Note_on_c, 0, 84, 41
2, 1349730, Note_on_c, 0, 86, 42
2, 1349730, Note_on_c, 0, 92, 42
2, 1349730, Note_on_c, 0, 56, 53
2, 1349730, Note_on_c, 0, 60, 50
2, 1349730, Note_on_c, 0, 62, 51
2, 1349730, Note_on_c, 0, 68, 53
2, 1349973, Note_on_c, 0, 68, 0
2, 1349973, Note_on_c, 0, 80, 0
2, 1349973, Note_on_c, 0, 84, 0
2, 1349973, Note_on_c, 0, 62, 0
2, 1349973, Note_on_c, 0, 86, 0
2, 1349973, Note_on_c, 0, 56, 0
2, 1349973, Note_on_c, 0, 60, 0
2, 1349973, Note_on_c, 0, 92, 0
2, 1350000, Note_on_c, 0, 79, 43
2, 1350000, Note_on_c, 0, 83, 43
2, 1350000, Note_on_c, 0, 86, 42
2, 1350000, Note_on_c, 0, 91, 43
2, 1350000, Note_on_c, 0, 55, 55
2, 1350000, Note_on_c, 0, 59, 52
2, 1350000, Note_on_c, 0, 62, 54
2, 1350000, Note_on_c, 0, 67, 55
2, 1350163, Note_on_c, 0, 67, 0
2, 1350163, Note_on_c, 0, 79, 0
2, 1350163, Note_on_c, 0, 83, 0
2, 1350163, Note_on_c, 0, 62, 0
2, 1350163, Note_on_c, 0, 91, 0
2, 1350163, Note_on_c, 0, 55, 0
2, 1350163, Note_on_c, 0, 59, 0
2, 1350163, Note_on_c, 0, 86, 0
2, 1350540, Note_on_c, 0, 80, 43
2, 1350540, Note_on_c, 0, 83, 43
2, 1350540, Note_on_c, 0, 86, 42
2, 1350540, Note_on_c, 0, 92, 43
2, 1350540, Note_on_c, 0, 56, 50
2, 1350540, Note_on_c, 0, 59, 50
2, 1350540, Note_on_c, 0, 62, 50
2, 1350540, Note_on_c, 0, 68, 49
2, 1350783, Note_on_c, 0, 68, 0
2, 1350783, Note_on_c, 0, 80, 0
2, 1350783, Note_on_c, 0, 83, 0
2, 1350783, Note_on_c, 0, 62, 0
2, 1350783, Note_on_c, 0, 86, 0
2, 1350783, Note_on_c, 0, 56, 0
2, 1350783, Note_on_c, 0, 59, 0
2, 1350783, Note_on_c, 0, 92, 0
2, 1350810, Note_on_c, 0, 80, 41
2, 1350810, Note_on_c, 0, 83, 43
2, 1350810, Note_on_c, 0, 86, 41
2, 1350810, Note_on_c, 0, 92, 42
2, 1350810, Note_on_c, 0, 56, 51
2, 1350810, Note_on_c, 0, 59, 54
2, 1350810, Note_on_c, 0, 62, 50
2, 1350810, Note_on_c, 0, 68, 51
2, 1351053, Note_on_c, 0, 68, 0
2, 1351053, Note_on_c, 0, 80, 0
2, 1351053, Note_on_c, 0, 83, 0
2, 1351053, Note_on_c, 0, 62, 0
2, 1351053, Note_on_c, 0, 86, 0
2, 1351053, Note_on_c, 0, 56, 0
2, 1351053, Note_on_c, 0, 59, 0
2, 1351053, Note_on_c, 0, 92, 0
2, 1351080, Note_on_c, 0, 79, 43
2, 1351080, Note_on_c, 0, 83, 42
2, 1351080, Note_on_c, 0, 86, 43
2, 1351080, Note_on_c, 0, 91, 46
2, 1351080, Note_on_c, 0, 55, 52
2, 1351080, Note_on_c, 0, 59, 53
2, 1351080, Note_on_c, 0, 62, 54
2, 1351080, Note_on_c, 0, 67, 54
2, 1351243, Note_on_c, 0, 67, 0
2, 1351243, Note_on_c, 0, 79, 0
2, 1351243, Note_on_c, 0, 83, 0
2, 1351243, Note_on_c, 0, 62, 0
2, 1351243, Note_on_c, 0, 91, 0
2, 1351243, Note_on_c, 0, 55, 0
2, 1351243, Note_on_c, 0, 59, 0
2, 1351243, Note_on_c, 0, 86, 0
2, 1351620, Note_on_c, 0, 80, 44
2, 1351620, Note_on_c, 0, 83, 43
2, 1351620, Note_on_c, 0, 86, 41
2, 1351620, Note_on_c, 0, 92, 41
2, 1351620, Note_on_c, 0, 56, 50
2, 1351620, Note_on_c, 0, 59, 50
2, 1351620, Note_on_c, 0, 62, 53
2, 1351620, Note_on_c, 0, 68, 53
2, 1351863, Note_on_c, 0, 68, 0
2, 1351863, Note_on_c, 0, 80, 0
2, 1351863, Note_on_c, 0, 83, 0
2, 1351863, Note_on_c, 0, 62, 0
2, 1351863, Note_on_c, 0, 86, 0
2, 1351863, Note_on_c, 0, 56, 0
2, 1351863, Note_on_c, 0, 59, 0
2, 1351863, Note_on_c, 0, 92, 0
2, 1351890, Note_on_c, 0, 80, 43
2, 1351890, Note_on_c, 0, 83, 42
2, 1351890, Note_on_c, 0, 86, 44
2, 1351890, Note_on_c, 0, 92, 43
2, 1351890, Note_on_c, 0, 56, 51
2, 1351890, Note_on_c, 0, 59, 52
2, 1351890, Note_on_c, 0, 62, 53
2, 1351890, Note_on_c, 0, 68, 52
2, 1352133, Note_on_c, 0, 68, 0
2, 1352133, Note_on_c, 0, 80, 0
2, 1352133, Note_on_c, 0, 83, 0
2, 1352133, Note_on_c, 0, 62, 0
2, 1352133, Note_on_c, 0, 86, 0
2, 1352133, Note_on_c, 0, 56, 0
2, 1352133, Note_on_c, 0, 59, 0
2, 1352133, Note_on_c, 0, 92, 0
2, 1352160, Note_on_c, 0, 79, 42
2, 1352160, Note_on_c, 0, 84, 46
2, 1352160, Note_on_c, 0, 87, 45
2, 1352160, Note_on_c, 0, 91, 46
2, 1352160, Note_on_c, 0, 55, 54
2, 1352160, Note_on_c, 0, 60, 55
2, 1352160, Note_on_c, 0, 63, 53
2, 1352160, Note_on_c, 0, 67, 53
2, 1352323, Note_on_c, 0, 67, 0
2, 1352323, Note_on_c, 0, 79, 0
2, 1352323, Note_on_c, 0, 84, 0
2, 1352323, Note_on_c, 0, 63, 0
2, 1352323, Note_on_c, 0, 91, 0
2, 1352323, Note_on_c, 0, 55, 0
2, 1352323, Note_on_c, 0, 60, 0
2, 1352323, Note_on_c, 0, 87, 0
2, 1352700, Note_on_c, 0, 55, 48
2, 1352880, Note_on_c, 0, 79, 40
2, 1353025, Note_on_c, 0, 55, 0
2, 1353043, Note_on_c, 0, 79, 0
2, 1353060, Note_on_c, 0, 67, 30
2, 1353223, Note_on_c, 0, 67, 0
2, 1353240, Note_on_c, 0, 67, 49
2, 1353420, Note_on_c, 0, 91, 38
2, 1353565, Note_on_c, 0, 67, 0
2, 1353583, Note_on_c, 0, 91, 0
2, 1353600, Note_on_c, 0, 79, 33
2, 1353763, Note_on_c, 0, 79, 0
2, 1353780, Note_on_c, 0, 68, 68
2, 1353943, Note_on_c, 0, 68, 0
2, 1353960, Note_on_c, 0, 92, 40
2, 1354123, Note_on_c, 0, 92, 0
2, 1354140, Note_on_c, 0, 82, 44
2, 1354140, Note_on_c, 0, 94, 46
2, 1354140, Note_on_c, 0, 70, 70
2, 1354303, Note_on_c, 0, 70, 0
2, 1354303, Note_on_c, 0, 82, 0
2, 1354303, Note_on_c, 0, 94, 0
2, 1354320, Note_on_c, 0, 67, 72
2, 1354500, Note_on_c, 0, 91, 60
2, 1354645, Note_on_c, 0, 67, 0
2, 1354663, Note_on_c, 0, 91, 0
2, 1354680, Note_on_c, 0, 79, 31
2, 1354843, Note_on_c, 0, 79, 0
2, 1354860, Note_on_c, 0, 55, 50
2, 1355040, Note_on_c, 0, 79, 38
2, 1355185, Note_on_c, 0, 55, 0
2, 1355203, Note_on_c, 0, 79, 0
2, 1355220, Note_on_c, 0, 67, 33
2, 1355383, Note_on_c, 0, 67, 0
2, 1355400, Note_on_c, 0, 67, 51
2, 1355580, Note_on_c, 0, 91, 41
2, 1355725, Note_on_c, 0, 67, 0
2, 1355743, Note_on_c, 0, 91, 0
2, 1355760, Note_on_c, 0, 79, 31
2, 1355923, Note_on_c, 0, 79, 0
2, 1355940, Note_on_c, 0, 68, 70
2, 1356103, Note_on_c, 0, 68, 0
2, 1356120, Note_on_c, 0, 92, 38
2, 1356283, Note_on_c, 0, 92, 0
2, 1356300, Note_on_c, 0, 82, 44
2, 1356300, Note_on_c, 0, 94, 46
2, 1356300, Note_on_c, 0, 70, 72
2, 1356463, Note_on_c, 0, 70, 0
2, 1356463, Note_on_c, 0, 82, 0
2, 1356463, Note_on_c, 0, 94, 0
2, 1356480, Note_on_c, 0, 67, 73
2, 1356660, Note_on_c, 0, 91, 61
2, 1356805, Note_on_c, 0, 67, 0
2, 1356823, Note_on_c, 0, 91, 0
2, 1356840, Note_on_c, 0, 79, 31
2, 1357003, Note_on_c, 0, 79, 0
2, 1357020, Note_on_c, 0, 68, 70
2, 1357183, Note_on_c, 0, 68, 0
2, 1357200, Note_on_c, 0, 92, 37
2, 1357363, Note_on_c, 0, 92, 0
2, 1357380, Note_on_c, 0, 82, 45
2, 1357380, Note_on_c, 0, 94, 44
2, 1357380, Note_on_c, 0, 70, 72
2, 1357543, Note_on_c, 0, 70, 0
2, 1357543, Note_on_c, 0, 82, 0
2, 1357543, Note_on_c, 0, 94, 0
2, 1357560, Note_on_c, 0, 67, 73
2, 1357740, Note_on_c, 0, 91, 63
2, 1357885, Note_on_c, 0, 67, 0
2, 1357903, Note_on_c, 0, 91, 0
2, 1357920, Note_on_c, 0, 79, 31
2, 1358083, Note_on_c, 0, 79, 0
2, 1358100, Note_on_c, 0, 67, 71
2, 1358280, Note_on_c, 0, 91, 63
2, 1358343, Note_on_c, 0, 67, 0
2, 1358370, Note_on_c, 0, 67, 77
2, 1358443, Note_on_c, 0, 91, 0
2, 1358460, Note_on_c, 0, 79, 33
2, 1358613, Note_on_c, 0, 67, 0
2, 1358623, Note_on_c, 0, 79, 0
2, 1358640, Note_on_c, 0, 63, 72
2, 1358820, Note_on_c, 0, 87, 62
2, 1358965, Note_on_c, 0, 63, 0
2, 1358983, Note_on_c, 0, 87, 0
2, 1359000, Note_on_c, 0, 75, 33
2, 1359163, Note_on_c, 0, 75, 0
2, 1359180, Note_on_c, 0, 51, 48
2, 1359360, Note_on_c, 0, 75, 38
2, 1359505, Note_on_c, 0, 51, 0
2, 1359523, Note_on_c, 0, 75, 0
2, 1359540, Note_on_c, 0, 63, 31
2, 1359703, Note_on_c, 0, 63, 0
2, 1359720, Note_on_c, 0, 63, 51
2, 1359900, Note_on_c, 0, 87, 39
2, 1360045, Note_on_c, 0, 63, 0
2, 1360063, Note_on_c, 0, 87, 0
2, 1360080, Note_on_c, 0, 75, 31
2, 1360243, Note_on_c, 0, 75, 0
2, 1360260, Note_on_c, 0, 67, 74
2, 1360440, Note_on_c, 0, 91, 61
2, 1360503, Note_on_c, 0, 67, 0
2, 1360530, Note_on_c, 0, 67, 77
2, 1360603, Note_on_c, 0, 91, 0
2, 1360620, Note_on_c, 0, 79, 31
2, 1360773, Note_on_c, 0, 67, 0
2, 1360783, Note_on_c, 0, 79, 0
2, 1360800, Note_on_c, 0, 63, 73
2, 1360980, Note_on_c, 0, 87, 60
2, 1361125, Note_on_c, 0, 63, 0
2, 1361143, Note_on_c, 0, 87, 0
2, 1361160, Note_on_c, 0, 75, 30
2, 1361323, Note_on_c, 0, 75, 0
2, 1361340, Note_on_c, 0, 51, 48
2, 1361520, Note_on_c, 0, 75, 38
2, 1361665, Note_on_c, 0, 51, 0
2, 1361683, Note_on_c, 0, 75, 0
2, 1361700, Note_on_c, 0, 63, 34
2, 1361863, Note_on_c, 0, 63, 0
2, 1361880, Note_on_c, 0, 63, 71
2, 1362060, Note_on_c, 0, 87, 61
2, 1362205, Note_on_c, 0, 63, 0
2, 1362223, Note_on_c, 0, 87, 0
2, 1362240, Note_on_c, 0, 75, 34
2, 1362403, Note_on_c, 0, 75, 0
2, 1362420, Note_on_c, 0, 51, 50
2, 1362600, Note_on_c, 0, 75, 38
2, 1362745, Note_on_c, 0, 51, 0
2, 1362763, Note_on_c, 0, 75, 0
2, 1362780, Note_on_c, 0, 63, 30
2, 1362943, Note_on_c, 0, 63, 0
2, 1362960, Note_on_c, 0, 60, 74
2, 1363140, Note_on_c, 0, 84, 38
2, 1363285, Note_on_c, 0, 60, 0
2, 1363303, Note_on_c, 0, 84, 0
2, 1363320, Note_on_c, 0, 72, 34
2, 1363483, Note_on_c, 0, 72, 0
2, 1363500, Note_on_c, 0, 48, 50
2, 1363680, Note_on_c, 0, 72, 38
2, 1363825, Note_on_c, 0, 48, 0
2, 1363843, Note_on_c, 0, 72, 0
2, 1363860, Note_on_c, 0, 60, 31
2, 1364023, Note_on_c, 0, 60, 0
2, 1364040, Note_on_c, 0, 60, 52
2, 1364220, Note_on_c, 0, 84, 40
2, 1364365, Note_on_c, 0, 60, 0
2, 1364383, Note_on_c, 0, 84, 0
2, 1364400, Note_on_c, 0, 72, 31
2, 1364563, Note_on_c, 0, 72, 0
2, 1364580, Note_on_c, 0, 62, 49
2, 1364743, Note_on_c, 0, 62, 0
2, 1364760, Note_on_c, 0, 86, 39
2, 1364923, Note_on_c, 0, 86, 0
2, 1364940, Note_on_c, 0, 75, 44
2, 1364940, Note_on_c, 0, 87, 43
2, 1364940, Note_on_c, 0, 63, 48
2, 1365103, Note_on_c, 0, 63, 0
2, 1365103, Note_on_c, 0, 75, 0
2, 1365103, Note_on_c, 0, 87, 0
2, 1365120, Note_on_c, 0, 60, 52
2, 1365300, Note_on_c, 0, 84, 39
2, 1365445, Note_on_c, 0, 60, 0
2, 1365463, Note_on_c, 0, 84, 0
2, 1365480, Note_on_c, 0, 72, 30
2, 1365643, Note_on_c, 0, 72, 0
2, 1365660, Note_on_c, 0, 62, 49
2, 1365823, Note_on_c, 0, 62, 0
2, 1365840, Note_on_c, 0, 86, 41
2, 1366003, Note_on_c, 0, 86, 0
2, 1366020, Note_on_c, 0, 75, 42
2, 1366020, Note_on_c, 0, 87, 42
2, 1366020, Note_on_c, 0, 63, 48
2, 1366183, Note_on_c, 0, 63, 0
2, 1366183, Note_on_c, 0, 75, 0
2, 1366183, Note_on_c, 0, 87, 0
2, 1366200, Note_on_c, 0, 60, 50
2, 1366380, Note_on_c, 0, 84, 40
2, 1366525, Note_on_c, 0, 60, 0
2, 1366543, Note_on_c, 0, 84, 0
2, 1366560, Note_on_c, 0, 72, 34
2, 1366723, Note_on_c, 0, 72, 0
2, 1366740, Note_on_c, 0, 61, 69
2, 1366903, Note_on_c, 0, 61, 0
2, 1366920, Note_on_c, 0, 85, 39
2, 1367083, Note_on_c, 0, 85, 0
2, 1367100, Note_on_c, 0, 75, 45
2, 1367100, Note_on_c, 0, 87, 43
2, 1367100, Note_on_c, 0, 63, 71
2, 1367263, Note_on_c, 0, 63, 0
2, 1367263, Note_on_c, 0, 75, 0
2, 1367263, Note_on_c, 0, 87, 0
2, 1367280, Note_on_c, 0, 60, 75
2, 1367460, Note_on_c, 0, 84, 61
2, 1367605, Note_on_c, 0, 60, 0
2, 1367623, Note_on_c, 0, 84, 0
2, 1367640, Note_on_c, 0, 72, 31
2, 1367803, Note_on_c, 0, 72, 0
2, 1367820, Note_on_c, 0, 48, 47
2, 1368000, Note_on_c, 0, 72, 39
2, 1368145, Note_on_c, 0, 48, 0
2, 1368163, Note_on_c, 0, 72, 0
2, 1368180, Note_on_c, 0, 60, 34
2, 1368343, Note_on_c, 0, 60, 0
2, 1368360, Note_on_c, 0, 60, 49
2, 1368540, Note_on_c, 0, 84, 40
2, 1368685, Note_on_c, 0, 60, 0
2, 1368703, Note_on_c, 0, 84, 0
2, 1368720, Note_on_c, 0, 72, 30
2, 1368883, Note_on_c, 0, 72, 0
2, 1368900, Note_on_c, 0, 61, 72
2, 1369063, Note_on_c, 0, 61, 0
2, 1369080, Note_on_c, 0, 85, 41
2, 1369243, Note_on_c, 0, 85, 0
2, 1369260, Note_on_c, 0, 75, 43
2, 1369260, Note_on_c, 0, 87, 45
2, 1369260, Note_on_c, 0, 63, 69
2, 1369423, Note_on_c, 0, 63, 0
2, 1369423, Note_on_c, 0, 75, 0
2, 1369423, Note_on_c, 0, 87, 0
2, 1369440, Note_on_c, 0, 60, 71
2, 1369620, Note_on_c, 0, 84, 62
2, 1369765, Note_on_c, 0, 60, 0
2, 1369783, Note_on_c, 0, 84, 0
2, 1369800, Note_on_c, 0, 72, 31
2, 1369963, Note_on_c, 0, 72, 0
2, 1369980, Note_on_c, 0, 48, 48
2, 1370160, Note_on_c, 0, 72, 38
2, 1370305, Note_on_c, 0, 48, 0
2, 1370323, Note_on_c, 0, 72, 0
2, 1370340, Note_on_c, 0, 60, 31
2, 1370503, Note_on_c, 0, 60, 0
2, 1370520, Note_on_c, 0, 60, 50
2, 1370700, Note_on_c, 0, 84, 39
2, 1370845, Note_on_c, 0, 60, 0
2, 1370863, Note_on_c, 0, 84, 0
2, 1370880, Note_on_c, 0, 72, 30
2, 1371043, Note_on_c, 0, 72, 0
2, 1371060, Note_on_c, 0, 61, 72
2, 1371223, Note_on_c, 0, 61, 0
2, 1371240, Note_on_c, 0, 85, 38
2, 1371403, Note_on_c, 0, 85, 0
2, 1371420, Note_on_c, 0, 75, 45
2, 1371420, Note_on_c, 0, 87, 45
2, 1371420, Note_on_c, 0, 63, 68
2, 1371583, Note_on_c, 0, 63, 0
2, 1371583, Note_on_c, 0, 75, 0
2, 1371583, Note_on_c, 0, 87, 0
2, 1371600, Note_on_c, 0, 60, 74
2, 1371780, Note_on_c, 0, 84, 59
2, 1371925, Note_on_c, 0, 60, 0
2, 1371943, Note_on_c, 0, 84, 0
2, 1371960, Note_on_c, 0, 72, 33
2, 1372123, Note_on_c, 0, 72, 0
2, 1372140, Note_on_c, 0, 61, 71
2, 1372303, Note_on_c, 0, 61, 0
2, 1372320, Note_on_c, 0, 85, 39
2, 1372483, Note_on_c, 0, 85, 0
2, 1372500, Note_on_c, 0, 75, 44
2, 1372500, Note_on_c, 0, 87, 44
2, 1372500, Note_on_c, 0, 63, 68
2, 1372663, Note_on_c, 0, 63, 0
2, 1372663, Note_on_c, 0, 75, 0
2, 1372663, Note_on_c, 0, 87, 0
2, 1372680, Note_on_c, 0, 60, 71
2, 1372860, Note_on_c, 0, 84, 60
2, 1373005, Note_on_c, 0, 60, 0
2, 1373023, Note_on_c, 0, 84, 0
2, 1373040, Note_on_c, 0, 72, 34
2, 1373203, Note_on_c, 0, 72, 0
2, 1373220, Note_on_c, 0, 60, 74
2, 1373400, Note_on_c, 0, 84, 60
2, 1373463, Note_on_c, 0, 60, 0
2, 1373490, Note_on_c, 0, 60, 78
2, 1373563, Note_on_c, 0, 84, 0
2, 1373580, Note_on_c, 0, 72, 32
2, 1373733, Note_on_c, 0, 60, 0
2, 1373743, Note_on_c, 0, 72, 0
2, 1373760, Note_on_c, 0, 56, 72
2, 1373940, Note_on_c, 0, 80, 59
2, 1374085, Note_on_c, 0, 56, 0
2, 1374103, Note_on_c, 0, 80, 0
2, 1374120, Note_on_c, 0, 68, 31
2, 1374283, Note_on_c, 0, 68, 0
2, 1374300, Note_on_c, 0, 44, 47
2, 1374480, Note_on_c, 0, 68, 38
2, 1374625, Note_on_c, 0, 44, 0
2, 1374643, Note_on_c, 0, 68, 0
2, 1374660, Note_on_c, 0, 56, 33
2, 1374823, Note_on_c, 0, 56, 0
2, 1374840, Note_on_c, 0, 56, 50
2, 1375020, Note_on_c, 0, 80, 39
2, 1375165, Note_on_c, 0, 56, 0
2, 1375183, Note_on_c, 0, 80, 0
2, 1375200, Note_on_c, 0, 68, 33
2, 1375363, Note_on_c, 0, 68, 0
2, 1375380, Note_on_c, 0, 60, 75
2, 1375560, Note_on_c, 0, 84, 61
2, 1375623, Note_on_c, 0, 60, 0
2, 1375650, Note_on_c, 0, 60, 77
2, 1375723, Note_on_c, 0, 84, 0
2, 1375740, Note_on_c, 0, 72, 33
2, 1375893, Note_on_c, 0, 60, 0
2, 1375903, Note_on_c, 0, 72, 0
2, 1375920, Note_on_c, 0, 56, 72
2, 1376100, Note_on_c, 0, 80, 61
2, 1376245, Note_on_c, 0, 56, 0
2, 1376263, Note_on_c, 0, 80, 0
2, 1376280, Note_on_c, 0, 68, 32
2, 1376443, Note_on_c, 0, 68, 0
2, 1376460, Note_on_c, 0, 44, 48
2, 1376640, Note_on_c, 0, 68, 38
2, 1376785, Note_on_c, 0, 44, 0
2, 1376803, Note_on_c, 0, 68, 0
2, 1376820, Note_on_c, 0, 56, 31
2, 1376983, Note_on_c, 0, 56, 0
2, 1377000, Note_on_c, 0, 56, 71
2, 1377180, Note_on_c, 0, 80, 60
2, 1377325, Note_on_c, 0, 56, 0
2, 1377343, Note_on_c, 0, 80, 0
2, 1377360, Note_on_c, 0, 68, 32
2, 1377523, Note_on_c, 0, 68, 0
2, 1377540, Note_on_c, 0, 44, 47
2, 1377720, Note_on_c, 0, 68, 40
2, 1377865, Note_on_c, 0, 44, 0
2, 1377883, Note_on_c, 0, 68, 0
2, 1377900, Note_on_c, 0, 56, 33
2, 1378063, Note_on_c, 0, 56, 0
2, 1378080, Note_on_c, 0, 53, 51
2, 1378260, Note_on_c, 0, 77, 41
2, 1378405, Note_on_c, 0, 53, 0
2, 1378423, Note_on_c, 0, 77, 0
2, 1378440, Note_on_c, 0, 65, 34
2, 1378603, Note_on_c, 0, 65, 0
2, 1378620, Note_on_c, 0, 41, 46
2, 1378800, Note_on_c, 0, 65, 38
2, 1378945, Note_on_c, 0, 41, 0
2, 1378963, Note_on_c, 0, 65, 0
2, 1378980, Note_on_c, 0, 53, 31
2, 1379143, Note_on_c, 0, 53, 0
2, 1379160, Note_on_c, 0, 53, 49
2, 1379340, Note_on_c, 0, 77, 38
2, 1379485, Note_on_c, 0, 53, 0
2, 1379503, Note_on_c, 0, 77, 0
2, 1379520, Note_on_c, 0, 65, 32
2, 1379683, Note_on_c, 0, 65, 0
2, 1379700, Note_on_c, 0, 55, 49
2, 1379863, Note_on_c, 0, 55, 0
2, 1379880, Note_on_c, 0, 79, 39
2, 1380043, Note_on_c, 0, 79, 0
2, 1380060, Note_on_c, 0, 68, 42
2, 1380060, Note_on_c, 0, 80, 44
2, 1380060, Note_on_c, 0, 56, 48
2, 1380223, Note_on_c, 0, 56, 0
2, 1380223, Note_on_c, 0, 68, 0
2, 1380223, Note_on_c, 0, 80, 0
2, 1380240, Note_on_c, 0, 53, 51
2, 1380420, Note_on_c, 0, 77, 40
2, 1380565, Note_on_c, 0, 53, 0
2, 1380583, Note_on_c, 0, 77, 0
2, 1380600, Note_on_c, 0, 65, 31
2, 1380763, Note_on_c, 0, 65, 0
2, 1380780, Note_on_c, 0, 55, 49
2, 1380943, Note_on_c, 0, 55, 0
2, 1380960, Note_on_c, 0, 79, 38
2, 1381123, Note_on_c, 0, 79, 0
2, 1381140, Note_on_c, 0, 68, 43
2, 1381140, Note_on_c, 0, 80, 45
2, 1381140, Note_on_c, 0, 56, 49
2, 1381303, Note_on_c, 0, 56, 0
2, 1381303, Note_on_c, 0, 68, 0
2, 1381303, Note_on_c, 0, 80, 0
2, 1381320, Note_on_c, 0, 53, 52
2, 1381500, Note_on_c, 0, 77, 37
2, 1381645, Note_on_c, 0, 53, 0
2, 1381663, Note_on_c, 0, 77, 0
2, 1381680, Note_on_c, 0, 65, 31
2, 1381843, Note_on_c, 0, 65, 0
2, 1381860, Note_on_c, 0, 41, 48
2, 1382185, Note_on_c, 0, 41, 0
2, 1382400, Note_on_c, 0, 67, 46
2, 1382400, Note_on_c, 0, 43, 49
2, 1382400, Note_on_c, 0, 55, 50
2, 1382725, Note_on_c, 0, 55, 0
2, 1382725, Note_on_c, 0, 43, 0
2, 1382940, Note_on_c, 0, 59, 38
2, 1382940, Note_on_c, 0, 62, 40
2, 1383265, Note_on_c, 0, 62, 0
2, 1383265, Note_on_c, 0, 59, 0
2, 1383480, Note_on_c, 0, 44, 52
2, 1383480, Note_on_c, 0, 56, 50
2, 1383805, Note_on_c, 0, 56, 0
2, 1383805, Note_on_c, 0, 44, 0
2, 1383967, Note_on_c, 0, 67, 0
2, 1384020, Note_on_c, 0, 65, 41
2, 1384020, Note_on_c, 0, 59, 38
2, 1384020, Note_on_c, 0, 63, 39
2, 1384345, Note_on_c, 0, 63, 0
2, 1384345, Note_on_c, 0, 59, 0
2, 1384507, Note_on_c, 0, 65, 0
2, 1384560, Note_on_c, 0, 67, 56
2, 1384560, Note_on_c, 0, 39, 51
2, 1384560, Note_on_c, 0, 51, 51
2, 1384885, Note_on_c, 0, 51, 0
2, 1384885, Note_on_c, 0, 39, 0
2, 1385100, Note_on_c, 0, 55, 40
2, 1385100, Note_on_c, 0, 58, 41
2, 1385100, Note_on_c, 0, 63, 39
2, 1385425, Note_on_c, 0, 63, 0
2, 1385425, Note_on_c, 0, 55, 0
2, 1385425, Note_on_c, 0, 58, 0
2, 1385640, Note_on_c, 0, 32, 73
2, 1385640, Note_on_c, 0, 44, 72
2, 1385965, Note_on_c, 0, 44, 0
2, 1385965, Note_on_c, 0, 32, 0
2, 1386127, Note_on_c, 0, 67, 0
2, 1386180, Note_on_c, 0, 65, 42
2, 1386180, Note_on_c, 0, 60, 38
2, 1386180, Note_on_c, 0, 62, 39
2, 1386505, Note_on_c, 0, 62, 0
2, 1386505, Note_on_c, 0, 60, 0
2, 1386667, Note_on_c, 0, 65, 0
2, 1386720, Note_on_c, 0, 67, 55
2, 1386720, Note_on_c, 0, 36, 53
2, 1386720, Note_on_c, 0, 48, 52
2, 1387045, Note_on_c, 0, 48, 0
2, 1387045, Note_on_c, 0, 36, 0
2, 1387260, Note_on_c, 0, 55, 39
2, 1387260, Note_on_c, 0, 60, 39
2, 1387260, Note_on_c, 0, 63, 39
2, 1387585, Note_on_c, 0, 63, 0
2, 1387585, Note_on_c, 0, 55, 0
2, 1387585, Note_on_c, 0, 60, 0
2, 1387800, Note_on_c, 0, 44, 50
2, 1387800, Note_on_c, 0, 56, 53
2, 1388125, Note_on_c, 0, 56, 0
2, 1388125, Note_on_c, 0, 44, 0
2, 1388287, Note_on_c, 0, 67, 0
2, 1388340, Note_on_c, 0, 65, 39
2, 1388340, Note_on_c, 0, 59, 40
2, 1388340, Note_on_c, 0, 63, 38
2, 1388665, Note_on_c, 0, 63, 0
2, 1388665, Note_on_c, 0, 59, 0
2, 1388827, Note_on_c, 0, 65, 0
2, 1388880, Note_on_c, 0, 67, 54
2, 1388880, Note_on_c, 0, 39, 50
2, 1388880, Note_on_c, 0, 51, 50
2, 1389205, Note_on_c, 0, 51, 0
2, 1389205, Note_on_c, 0, 39, 0
2, 1389420, Note_on_c, 0, 55, 38
2, 1389420, Note_on_c, 0, 58, 39
2, 1389420, Note_on_c, 0, 63, 40
2, 1389745, Note_on_c, 0, 63, 0
2, 1389745, Note_on_c, 0, 55, 0
2, 1389745, Note_on_c, 0, 58, 0
2, 1389960, Note_on_c, 0, 38, 73
2, 1389960, Note_on_c, 0, 50, 73
2, 1390285, Note_on_c, 0, 50, 0
2, 1390285, Note_on_c, 0, 38, 0
2, 1390447, Note_on_c, 0, 67, 0
2, 1390500, Note_on_c, 0, 65, 42
2, 1390500, Note_on_c, 0, 56, 38
2, 1390500, Note_on_c, 0, 60, 37
2, 1390825, Note_on_c, 0, 60, 0
2, 1390825, Note_on_c, 0, 56, 0
2, 1390987, Note_on_c, 0, 65, 0
2, 1391040, Note_on_c, 0, 67, 53
2, 1391040, Note_on_c, 0, 31, 49
2, 1391040, Note_on_c, 0, 43, 52
2, 1391365, Note_on_c, 0, 43, 0
2, 1391365, Note_on_c, 0, 31, 0
2, 1391580, Note_on_c, 0, 55, 40
2, 1391580, Note_on_c, 0, 59, 40
2, 1391905, Note_on_c, 0, 59, 0
2, 1391905, Note_on_c, 0, 55, 0
2, 1392445, Note_on_c, 0, 67, 0
2, 1392660, Note_on_c, 0, 62, 38
2, 1392660, Note_on_c, 0, 65, 37
2, 1392837, Note_on_c, 0, 65, 0
2, 1392837, Note_on_c, 0, 62, 0
2, 1393200, Note_on_c, 0, 63, 43
2, 1393200, Note_on_c, 0, 67, 40
2, 1393377, Note_on_c, 0, 67, 0
2, 1393377, Note_on_c, 0, 63, 0
2, 1393740, Note_on_c, 0, 65, 37
2, 1393740, Note_on_c, 0, 68, 40
2, 1393917, Note_on_c, 0, 68, 0
2, 1393917, Note_on_c, 0, 65, 0
2, 1394280, Note_on_c, 0, 67, 44
2, 1394280, Note_on_c, 0, 71, 42
2, 1394457, Note_on_c, 0, 71, 0
2, 1394457, Note_on_c, 0, 67, 0
2, 1394820, Note_on_c, 0, 71, 38
2, 1394820, Note_on_c, 0, 74, 38
2, 1394997, Note_on_c, 0, 74, 0
2, 1394997, Note_on_c, 0, 71, 0
2, 1395360, Note_on_c, 0, 72, 46
2, 1395360, Note_on_c, 0, 75, 48
2, 1395360, Note_on_c, 0, 48, 50
2, 1395360, Note_on_c, 0, 55, 50
2, 1395360, Note_on_c, 0, 63, 49
2, 1395685, Note_on_c, 0, 63, 0
2, 1395685, Note_on_c, 0, 48, 0
2, 1395685, Note_on_c, 0, 55, 0
2, 1395900, Note_on_c, 0, 63, 37
2, 1395900, Note_on_c, 0, 67, 37
2, 1396225, Note_on_c, 0, 67, 0
2, 1396225, Note_on_c, 0, 63, 0
2, 1396440, Note_on_c, 0, 75, 0
2, 1396440, Note_on_c, 0, 72, 0
2, 1396440, Note_on_c, 0, 70, 47
2, 1396440, Note_on_c, 0, 74, 49
2, 1396440, Note_on_c, 0, 43, 49
2, 1396440, Note_on_c, 0, 50, 50
2, 1396440, Note_on_c, 0, 58, 52
2, 1396765, Note_on_c, 0, 58, 0
2, 1396765, Note_on_c, 0, 43, 0
2, 1396765, Note_on_c, 0, 50, 0
2, 1396980, Note_on_c, 0, 62, 40
2, 1396980, Note_on_c, 0, 67, 38
2, 1397305, Note_on_c, 0, 67, 0
2, 1397305, Note_on_c, 0, 62, 0
2, 1397520, Note_on_c, 0, 46, 51
2, 1397520, Note_on_c, 0, 53, 50
2, 1397520, Note_on_c, 0, 62, 52
2, 1397845, Note_on_c, 0, 62, 0
2, 1397845, Note_on_c, 0, 46, 0
2, 1397845, Note_on_c, 0, 53, 0
2, 1398060, Note_on_c, 0, 62, 40
2, 1398060, Note_on_c, 0, 65, 38
2, 1398385, Note_on_c, 0, 65, 0
2, 1398385, Note_on_c, 0, 62, 0
2, 1398530, Note_on_c, 0, 74, 0
2, 1398530, Note_on_c, 0, 70, 0
2, 1398600, Note_on_c, 0, 68, 49
2, 1398600, Note_on_c, 0, 72, 49
2, 1398600, Note_on_c, 0, 41, 51
2, 1398600, Note_on_c, 0, 48, 50
2, 1398600, Note_on_c, 0, 56, 52
2, 1398925, Note_on_c, 0, 56, 0
2, 1398925, Note_on_c, 0, 41, 0
2, 1398925, Note_on_c, 0, 48, 0
2, 1399140, Note_on_c, 0, 60, 40
2, 1399140, Note_on_c, 0, 65, 39
2, 1399465, Note_on_c, 0, 65, 0
2, 1399465, Note_on_c, 0, 60, 0
2, 1399680, Note_on_c, 0, 44, 51
2, 1399680, Note_on_c, 0, 51, 51
2, 1399680, Note_on_c, 0, 60, 50
2, 1400005, Note_on_c, 0, 60, 0
2, 1400005, Note_on_c, 0, 44, 0
2, 1400005, Note_on_c, 0, 51, 0
2, 1400220, Note_on_c, 0, 60, 39
2, 1400220, Note_on_c, 0, 63, 39
2, 1400545, Note_on_c, 0, 63, 0
2, 1400545, Note_on_c, 0, 60, 0
2, 1400690, Note_on_c, 0, 72, 0
2, 1400690, Note_on_c, 0, 68, 0
2, 1400760, Note_on_c, 0, 67, 48
2, 1400760, Note_on_c, 0, 70, 49
2, 1400760, Note_on_c, 0, 39, 52
2, 1400760, Note_on_c, 0, 46, 51
2, 1400760, Note_on_c, 0, 55, 49
2, 1401085, Note_on_c, 0, 55, 0
2, 1401085, Note_on_c, 0, 39, 0
2, 1401085, Note_on_c, 0, 46, 0
2, 1401300, Note_on_c, 0, 58, 39
2, 1401300, Note_on_c, 0, 63, 37
2, 1401625, Note_on_c, 0, 63, 0
2, 1401625, Note_on_c, 0, 58, 0
2, 1401840, Note_on_c, 0, 70, 0
2, 1401840, Note_on_c, 0, 67, 0
2, 1401840, Note_on_c, 0, 67, 47
2, 1401840, Note_on_c, 0, 69, 47
2, 1401840, Note_on_c, 0, 36, 50
2, 1401840, Note_on_c, 0, 43, 53
2, 1401840, Note_on_c, 0, 51, 49
2, 1402165, Note_on_c, 0, 51, 0
2, 1402165, Note_on_c, 0, 36, 0
2, 1402165, Note_on_c, 0, 43, 0
2, 1402380, Note_on_c, 0, 57, 37
2, 1402380, Note_on_c, 0, 63, 37
2, 1402705, Note_on_c, 0, 63, 0
2, 1402705, Note_on_c, 0, 57, 0
2, 1402920, Note_on_c, 0, 69, 0
2, 1402920, Note_on_c, 0, 67, 0
2, 1402920, Note_on_c, 0, 67, 54
2, 1402920, Note_on_c, 0, 70, 51
2, 1402920, Note_on_c, 0, 43, 52
2, 1402920, Note_on_c, 0, 50, 49
2, 1402920, Note_on_c, 0, 58, 51
2, 1403245, Note_on_c, 0, 58, 0
2, 1403245, Note_on_c, 0, 43, 0
2, 1403245, Note_on_c, 0, 50, 0
2, 1403460, Note_on_c, 0, 58, 37
2, 1403460, Note_on_c, 0, 62, 38
2, 1403785, Note_on_c, 0, 62, 0
2, 1403785, Note_on_c, 0, 58, 0
2, 1404000, Note_on_c, 0, 70, 0
2, 1404000, Note_on_c, 0, 67, 0
2, 1404000, Note_on_c, 0, 72, 58
2, 1404000, Note_on_c, 0, 75, 57
2, 1404000, Note_on_c, 0, 48, 50
2, 1404000, Note_on_c, 0, 55, 49
2, 1404000, Note_on_c, 0, 63, 50
2, 1404325, Note_on_c, 0, 63, 0
2, 1404325, Note_on_c, 0, 48, 0
2, 1404325, Note_on_c, 0, 55, 0
2, 1404540, Note_on_c, 0, 63, 39
2, 1404540, Note_on_c, 0, 67, 38
2, 1404865, Note_on_c, 0, 67, 0
2, 1404865, Note_on_c, 0, 63, 0
2, 1405080, Note_on_c, 0, 75, 0
2, 1405080, Note_on_c, 0, 72, 0
2, 1405080, Note_on_c, 0, 70, 51
2, 1405080, Note_on_c, 0, 74, 51
2, 1405080, Note_on_c, 0, 43, 50
2, 1405080, Note_on_c, 0, 50, 50
2, 1405080, Note_on_c, 0, 58, 50
2, 1405405, Note_on_c, 0, 58, 0
2, 1405405, Note_on_c, 0, 43, 0
2, 1405405, Note_on_c, 0, 50, 0
2, 1405620, Note_on_c, 0, 62, 39
2, 1405620, Note_on_c, 0, 67, 37
2, 1405945, Note_on_c, 0, 67, 0
2, 1405945, Note_on_c, 0, 62, 0
2, 1406160, Note_on_c, 0, 46, 53
2, 1406160, Note_on_c, 0, 53, 53
2, 1406160, Note_on_c, 0, 62, 50
2, 1406485, Note_on_c, 0, 62, 0
2, 1406485, Note_on_c, 0, 46, 0
2, 1406485, Note_on_c, 0, 53, 0
2, 1406700, Note_on_c, 0, 62, 40
2, 1406700, Note_on_c, 0, 65, 39
2, 1407025, Note_on_c, 0, 65, 0
2, 1407025, Note_on_c, 0, 62, 0
2, 1407170, Note_on_c, 0, 74, 0
2, 1407170, Note_on_c, 0, 70, 0
2, 1407240, Note_on_c, 0, 68, 47
2, 1407240, Note_on_c, 0, 72, 49
2, 1407240, Note_on_c, 0, 41, 49
2, 1407240, Note_on_c, 0, 48, 50
2, 1407240, Note_on_c, 0, 56, 50
2, 1407565, Note_on_c, 0, 56, 0
2, 1407565, Note_on_c, 0, 41, 0
2, 1407565, Note_on_c, 0, 48, 0
2, 1407780, Note_on_c, 0, 60, 40
2, 1407780, Note_on_c, 0, 65, 38
2, 1408105, Note_on_c, 0, 65, 0
2, 1408105, Note_on_c, 0, 60, 0
2, 1408320, Note_on_c, 0, 44, 50
2, 1408320, Note_on_c, 0, 51, 49
2, 1408320, Note_on_c, 0, 60, 51
2, 1408645, Note_on_c, 0, 60, 0
2, 1408645, Note_on_c, 0, 44, 0
2, 1408645, Note_on_c, 0, 51, 0
2, 1408860, Note_on_c, 0, 60, 41
2, 1408860, Note_on_c, 0, 63, 38
2, 1409185, Note_on_c, 0, 63, 0
2, 1409185, Note_on_c, 0, 60, 0
2, 1409330, Note_on_c, 0, 72, 0
2, 1409330, Note_on_c, 0, 68, 0
2, 1409400, Note_on_c, 0, 67, 47
2, 1409400, Note_on_c, 0, 70, 50
2, 1409400, Note_on_c, 0, 39, 52
2, 1409400, Note_on_c, 0, 46, 51
2, 1409400, Note_on_c, 0, 55, 50
2, 1409725, Note_on_c, 0, 55, 0
2, 1409725, Note_on_c, 0, 39, 0
2, 1409725, Note_on_c, 0, 46, 0
2, 1409940, Note_on_c, 0, 58, 40
2, 1409940, Note_on_c, 0, 63, 38
2, 1410265, Note_on_c, 0, 63, 0
2, 1410265, Note_on_c, 0, 58, 0
2, 1410480, Note_on_c, 0, 70, 0
2, 1410480, Note_on_c, 0, 67, 0
2, 1410480, Note_on_c, 0, 67, 49
2, 1410480, Note_on_c, 0, 69, 50
2, 1410480, Note_on_c, 0, 36, 50
2, 1410480, Note_on_c, 0, 43, 53
2, 1410480, Note_on_c, 0, 51, 52
2, 1410805, Note_on_c, 0, 51, 0
2, 1410805, Note_on_c, 0, 36, 0
2, 1410805, Note_on_c, 0, 43, 0
2, 1411020, Note_on_c, 0, 57, 38
2, 1411020, Note_on_c, 0, 63, 39
2, 1411345, Note_on_c, 0, 63, 0
2, 1411345, Note_on_c, 0, 57, 0
2, 1411560, Note_on_c, 0, 69, 0
2, 1411560, Note_on_c, 0, 67, 0
2, 1411560, Note_on_c, 0, 67, 52
2, 1411560, Note_on_c, 0, 70, 51
2, 1411560, Note_on_c, 0, 43, 50
2, 1411560, Note_on_c, 0, 50, 53
2, 1411560, Note_on_c, 0, 58, 50
2, 1411885, Note_on_c, 0, 58, 0
2, 1411885, Note_on_c, 0, 43, 0
2, 1411885, Note_on_c, 0, 50, 0
2, 1412100, Note_on_c, 0, 58, 38
2, 1412100, Note_on_c, 0, 62, 40
2, 1412425, Note_on_c, 0, 62, 0
2, 1412425, Note_on_c, 0, 58, 0
2, 1412640, Note_on_c, 0, 70, 0
2, 1412640, Note_on_c, 0, 67, 0
2, 1412640, Note_on_c, 0, 67, 50
2, 1412640, Note_on_c, 0, 41, 50
2, 1412640, Note_on_c, 0, 53, 53
2, 1412965, Note_on_c, 0, 53, 0
2, 1412965, Note_on_c, 0, 41, 0
2, 1413180, Note_on_c, 0, 55, 40
2, 1413180, Note_on_c, 0, 58, 41
2, 1413180, Note_on_c, 0, 62, 38
2, 1413505, Note_on_c, 0, 62, 0
2, 1413505, Note_on_c, 0, 55, 0
2, 1413505, Note_on_c, 0, 58, 0
2, 1413720, Note_on_c, 0, 39, 53
2, 1413720, Note_on_c, 0, 51, 50
2, 1414045, Note_on_c, 0, 51, 0
2, 1414045, Note_on_c, 0, 39, 0
2, 1414260, Note_on_c, 0, 55, 38
2, 1414260, Note_on_c, 0, 58, 40
2, 1414260, Note_on_c, 0, 63, 39
2, 1414585, Note_on_c, 0, 63, 0
2, 1414585, Note_on_c, 0, 55, 0
2, 1414585, Note_on_c, 0, 58, 0
2, 1414730, Note_on_c, 0, 67, 0
2, 1414800, Note_on_c, 0, 65, 41
2, 1414800, Note_on_c, 0, 38, 53
2, 1414800, Note_on_c, 0, 50, 51
2, 1415125, Note_on_c, 0, 50, 0
2, 1415125, Note_on_c, 0, 38, 0
2, 1415340, Note_on_c, 0, 55, 39
2, 1415340, Note_on_c, 0, 59, 37
2, 1415665, Note_on_c, 0, 59, 0
2, 1415665, Note_on_c, 0, 55, 0
2, 1415810, Note_on_c, 0, 65, 0
2, 1415880, Note_on_c, 0, 67, 47
2, 1415880, Note_on_c, 0, 36, 52
2, 1415880, Note_on_c, 0, 48, 51
2, 1416205, Note_on_c, 0, 48, 0
2, 1416205, Note_on_c, 0, 36, 0
2, 1416420, Note_on_c, 0, 55, 39
2, 1416420, Note_on_c, 0, 60, 38
2, 1416420, Note_on_c, 0, 63, 39
2, 1416745, Note_on_c, 0, 63, 0
2, 1416745, Note_on_c, 0, 55, 0
2, 1416745, Note_on_c, 0, 60, 0
2, 1416960, Note_on_c, 0, 33, 50
2, 1416960, Note_on_c, 0, 45, 50
2, 1417285, Note_on_c, 0, 45, 0
2, 1417285, Note_on_c, 0, 33, 0
2, 1417500, Note_on_c, 0, 55, 38
2, 1417500, Note_on_c, 0, 62, 39
2, 1417500, Note_on_c, 0, 65, 41
2, 1417500, Note_on_c, 0, 35, 49
2, 1417500, Note_on_c, 0, 47, 49
2, 1417825, Note_on_c, 0, 47, 0
2, 1417825, Note_on_c, 0, 35, 0
2, 1417825, Note_on_c, 0, 62, 0
2, 1417825, Note_on_c, 0, 55, 0
2, 1417825, Note_on_c, 0, 65, 0
2, 1418040, Note_on_c, 0, 36, 50
2, 1418040, Note_on_c, 0, 48, 52
2, 1418365, Note_on_c, 0, 48, 0
2, 1418365, Note_on_c, 0, 67, 0
2, 1418365, Note_on_c, 0, 36, 0
2, 1418580, Note_on_c, 0, 68, 39
2, 1418580, Note_on_c, 0, 56, 40
2, 1418580, Note_on_c, 0, 60, 38
2, 1418580, Note_on_c, 0, 64, 38
2, 1418905, Note_on_c, 0, 64, 0
2, 1418905, Note_on_c, 0, 56, 0
2, 1418905, Note_on_c, 0, 60, 0
2, 1419067, Note_on_c, 0, 68, 0
2, 1419120, Note_on_c, 0, 70, 48
2, 1419120, Note_on_c, 0, 38, 51
2, 1419120, Note_on_c, 0, 50, 52
2, 1419445, Note_on_c, 0, 50, 0
2, 1419445, Note_on_c, 0, 38, 0
2, 1419660, Note_on_c, 0, 58, 39
2, 1419660, Note_on_c, 0, 60, 38
2, 1419660, Note_on_c, 0, 67, 39
2, 1419660, Note_on_c, 0, 40, 47
2, 1419660, Note_on_c, 0, 52, 50
2, 1419985, Note_on_c, 0, 52, 0
2, 1419985, Note_on_c, 0, 40, 0
2, 1419985, Note_on_c, 0, 60, 0
2, 1419985, Note_on_c, 0, 58, 0
2, 1419985, Note_on_c, 0, 67, 0
2, 1420130, Note_on_c, 0, 70, 0
2, 1420200, Note_on_c, 0, 68, 43
2, 1420200, Note_on_c, 0, 41, 49
2, 1420200, Note_on_c, 0, 53, 51
2, 1420525, Note_on_c, 0, 53, 0
2, 1420525, Note_on_c, 0, 68, 0
2, 1420525, Note_on_c, 0, 41, 0
2, 1420740, Note_on_c, 0, 70, 41
2, 1420740, Note_on_c, 0, 60, 40
2, 1420740, Note_on_c, 0, 65, 38
2, 1421065, Note_on_c, 0, 65, 0
2, 1421065, Note_on_c, 0, 60, 0
2, 1421227, Note_on_c, 0, 70, 0
2, 1421280, Note_on_c, 0, 72, 54
2, 1421280, Note_on_c, 0, 48, 51
2, 1421605, Note_on_c, 0, 48, 0
2, 1421820, Note_on_c, 0, 60, 38
2, 1421820, Note_on_c, 0, 65, 41
2, 1421820, Note_on_c, 0, 68, 38
2, 1422145, Note_on_c, 0, 68, 0
2, 1422145, Note_on_c, 0, 60, 0
2, 1422145, Note_on_c, 0, 65, 0
2, 1422360, Note_on_c, 0, 44, 52
2, 1422360, Note_on_c, 0, 56, 50
2, 1422685, Note_on_c, 0, 56, 0
2, 1422685, Note_on_c, 0, 44, 0
2, 1422900, Note_on_c, 0, 60, 39
2, 1422900, Note_on_c, 0, 65, 40
2, 1423225, Note_on_c, 0, 65, 0
2, 1423225, Note_on_c, 0, 60, 0
2, 1423370, Note_on_c, 0, 72, 0
2, 1423440, Note_on_c, 0, 70, 41
2, 1423440, Note_on_c, 0, 43, 50
2, 1423440, Note_on_c, 0, 55, 49
2, 1423765, Note_on_c, 0, 55, 0
2, 1423765, Note_on_c, 0, 43, 0
2, 1423980, Note_on_c, 0, 60, 38
2, 1423980, Note_on_c, 0, 64, 41
2, 1424305, Note_on_c, 0, 64, 0
2, 1424305, Note_on_c, 0, 60, 0
2, 1424450, Note_on_c, 0, 70, 0
2, 1424520, Note_on_c, 0, 72, 47
2, 1424520, Note_on_c, 0, 41, 50
2, 1424520, Note_on_c, 0, 53, 50
2, 1424845, Note_on_c, 0, 53, 0
2, 1424845, Note_on_c, 0, 41, 0
2, 1425060, Note_on_c, 0, 60, 39
2, 1425060, Note_on_c, 0, 65, 37
2, 1425060, Note_on_c, 0, 68, 39
2, 1425385, Note_on_c, 0, 68, 0
2, 1425385, Note_on_c, 0, 60, 0
2, 1425385, Note_on_c, 0, 65, 0
2, 1425600, Note_on_c, 0, 41, 50
2, 1425600, Note_on_c, 0, 53, 53
2, 1425925, Note_on_c, 0, 53, 0
2, 1425925, Note_on_c, 0, 72, 0
2, 1425925, Note_on_c, 0, 41, 0
2, 1426140, Note_on_c, 0, 75, 38
2, 1426140, Note_on_c, 0, 63, 41
2, 1426140, Note_on_c, 0, 69, 39
2, 1426140, Note_on_c, 0, 72, 38
2, 1426140, Note_on_c, 0, 42, 47
2, 1426140, Note_on_c, 0, 54, 47
2, 1426465, Note_on_c, 0, 54, 0
2, 1426465, Note_on_c, 0, 42, 0
2, 1426465, Note_on_c, 0, 69, 0
2, 1426465, Note_on_c, 0, 63, 0
2, 1426465, Note_on_c, 0, 72, 0
2, 1426627, Note_on_c, 0, 75, 0
2, 1426680, Note_on_c, 0, 74, 43
2, 1426680, Note_on_c, 0, 43, 50
2, 1426680, Note_on_c, 0, 55, 53
2, 1427005, Note_on_c, 0, 55, 0
2, 1427005, Note_on_c, 0, 43, 0
2, 1427220, Note_on_c, 0, 63, 39
2, 1427220, Note_on_c, 0, 67, 37
2, 1427220, Note_on_c, 0, 72, 41
2, 1427545, Note_on_c, 0, 72, 0
2, 1427545, Note_on_c, 0, 63, 0
2, 1427545, Note_on_c, 0, 67, 0
2, 1427760, Note_on_c, 0, 62, 44
2, 1427760, Note_on_c, 0, 67, 42
2, 1427760, Note_on_c, 0, 71, 42
2, 1428085, Note_on_c, 0, 71, 0
2, 1428085, Note_on_c, 0, 62, 0
2, 1428085, Note_on_c, 0, 67, 0
2, 1428247, Note_on_c, 0, 74, 0
2, 1428300, Note_on_c, 0, 75, 52
2, 1428300, Note_on_c, 0, 60, 49
2, 1428625, Note_on_c, 0, 60, 0
2, 1428840, Note_on_c, 0, 75, 0
2, 1428840, Note_on_c, 0, 77, 53
2, 1428840, Note_on_c, 0, 59, 51
2, 1429165, Note_on_c, 0, 59, 0
2, 1429380, Note_on_c, 0, 77, 0
2, 1429380, Note_on_c, 0, 79, 52
2, 1429380, Note_on_c, 0, 67, 39
2, 1429380, Note_on_c, 0, 74, 39
2, 1429705, Note_on_c, 0, 74, 0
2, 1429705, Note_on_c, 0, 67, 0
2, 1429920, Note_on_c, 0, 79, 0
2, 1429920, Note_on_c, 0, 77, 56
2, 1429920, Note_on_c, 0, 80, 54
2, 1429920, Note_on_c, 0, 53, 50
2, 1429920, Note_on_c, 0, 60, 50
2, 1429920, Note_on_c, 0, 68, 49
2, 1430245, Note_on_c, 0, 68, 0
2, 1430245, Note_on_c, 0, 53, 0
2, 1430245, Note_on_c, 0, 60, 0
2, 1430460, Note_on_c, 0, 68, 39
2, 1430460, Note_on_c, 0, 72, 39
2, 1430785, Note_on_c, 0, 72, 0
2, 1430785, Note_on_c, 0, 68, 0
2, 1431000, Note_on_c, 0, 80, 0
2, 1431000, Note_on_c, 0, 77, 0
2, 1431000, Note_on_c, 0, 75, 51
2, 1431000, Note_on_c, 0, 79, 50
2, 1431000, Note_on_c, 0, 48, 52
2, 1431000, Note_on_c, 0, 55, 53
2, 1431000, Note_on_c, 0, 63, 50
2, 1431325, Note_on_c, 0, 63, 0
2, 1431325, Note_on_c, 0, 48, 0
2, 1431325, Note_on_c, 0, 55, 0
2, 1431540, Note_on_c, 0, 67, 38
2, 1431540, Note_on_c, 0, 72, 40
2, 1431865, Note_on_c, 0, 72, 0
2, 1431865, Note_on_c, 0, 67, 0
2, 1432080, Note_on_c, 0, 51, 52
2, 1432080, Note_on_c, 0, 58, 52
2, 1432080, Note_on_c, 0, 67, 52
2, 1432405, Note_on_c, 0, 67, 0
2, 1432405, Note_on_c, 0, 51, 0
2, 1432405, Note_on_c, 0, 58, 0
2, 1432620, Note_on_c, 0, 67, 38
2, 1432620, Note_on_c, 0, 70, 38
2, 1432945, Note_on_c, 0, 70, 0
2, 1432945, Note_on_c, 0, 67, 0
2, 1433090, Note_on_c, 0, 79, 0
2, 1433090, Note_on_c, 0, 75, 0
2, 1433160, Note_on_c, 0, 73, 50
2, 1433160, Note_on_c, 0, 77, 51
2, 1433160, Note_on_c, 0, 46, 49
2, 1433160, Note_on_c, 0, 53, 50
2, 1433160, Note_on_c, 0, 61, 53
2, 1433485, Note_on_c, 0, 61, 0
2, 1433485, Note_on_c, 0, 46, 0
2, 1433485, Note_on_c, 0, 53, 0
2, 1433700, Note_on_c, 0, 65, 41
2, 1433700, Note_on_c, 0, 70, 40
2, 1434025, Note_on_c, 0, 70, 0
2, 1434025, Note_on_c, 0, 65, 0
2, 1434240, Note_on_c, 0, 49, 52
2, 1434240, Note_on_c, 0, 56, 52
2, 1434240, Note_on_c, 0, 65, 52
2, 1434565, Note_on_c, 0, 65, 0
2, 1434565, Note_on_c, 0, 49, 0
2, 1434565, Note_on_c, 0, 56, 0
2, 1434780, Note_on_c, 0, 70, 40
2, 1434780, Note_on_c, 0, 74, 37
2, 1435105, Note_on_c, 0, 74, 0
2, 1435105, Note_on_c, 0, 70, 0
2, 1435250, Note_on_c, 0, 77, 0
2, 1435250, Note_on_c, 0, 73, 0
2, 1435320, Note_on_c, 0, 72, 48
2, 1435320, Note_on_c, 0, 75, 47
2, 1435320, Note_on_c, 0, 44, 51
2, 1435320, Note_on_c, 0, 51, 52
2, 1435320, Note_on_c, 0, 60, 52
2, 1435645, Note_on_c, 0, 60, 0
2, 1435645, Note_on_c, 0, 44, 0
2, 1435645, Note_on_c, 0, 51, 0
2, 1435860, Note_on_c, 0, 63, 39
2, 1435860, Note_on_c, 0, 68, 40
2, 1436185, Note_on_c, 0, 68, 0
2, 1436185, Note_on_c, 0, 63, 0
2, 1436400, Note_on_c, 0, 75, 0
2, 1436400, Note_on_c, 0, 72, 0
2, 1436400, Note_on_c, 0, 72, 51
2, 1436400, Note_on_c, 0, 74, 49
2, 1436400, Note_on_c, 0, 41, 51
2, 1436400, Note_on_c, 0, 48, 51
2, 1436400, Note_on_c, 0, 56, 50
2, 1436725, Note_on_c, 0, 56, 0
2, 1436725, Note_on_c, 0, 41, 0
2, 1436725, Note_on_c, 0, 48, 0
2, 1436940, Note_on_c, 0, 62, 38
2, 1436940, Note_on_c, 0, 68, 40
2, 1437265, Note_on_c, 0, 68, 0
2, 1437265, Note_on_c, 0, 62, 0
2, 1437480, Note_on_c, 0, 74, 0
2, 1437480, Note_on_c, 0, 72, 0
2, 1437480, Note_on_c, 0, 72, 53
2, 1437480, Note_on_c, 0, 75, 55
2, 1437480, Note_on_c, 0, 48, 51
2, 1437480, Note_on_c, 0, 55, 52
2, 1437480, Note_on_c, 0, 63, 49
2, 1437805, Note_on_c, 0, 63, 0
2, 1437805, Note_on_c, 0, 48, 0
2, 1437805, Note_on_c, 0, 55, 0
2, 1438020, Note_on_c, 0, 63, 41
2, 1438020, Note_on_c, 0, 67, 40
2, 1438345, Note_on_c, 0, 67, 0
2, 1438345, Note_on_c, 0, 63, 0
2, 1438560, Note_on_c, 0, 75, 0
2, 1438560, Note_on_c, 0, 72, 0
2, 1438560, Note_on_c, 0, 72, 52
2, 1438560, Note_on_c, 0, 75, 52
2, 1438560, Note_on_c, 0, 48, 50
2, 1438560, Note_on_c, 0, 55, 51
2, 1438560, Note_on_c, 0, 63, 50
2, 1438885, Note_on_c, 0, 63, 0
2, 1438885, Note_on_c, 0, 48, 0
2, 1438885, Note_on_c, 0, 55, 0
2, 1439100, Note_on_c, 0, 63, 37
2, 1439100, Note_on_c, 0, 67, 39
2, 1439425, Note_on_c, 0, 67, 0
2, 1439425, Note_on_c, 0, 63, 0
2, 1439640, Note_on_c, 0, 75, 0
2, 1439640, Note_on_c, 0, 72, 0
2, 1439640, Note_on_c, 0, 70, 50
2, 1439640, Note_on_c, 0, 74, 48
2, 1439640, Note_on_c, 0, 43, 50
2, 1439640, Note_on_c, 0, 50, 50
2, 1439640, Note_on_c, 0, 58, 52
2, 1439965, Note_on_c, 0, 58, 0
2, 1439965, Note_on_c, 0, 43, 0
2, 1439965, Note_on_c, 0, 50, 0
2, 1440180, Note_on_c, 0, 62, 39
2, 1440180, Note_on_c, 0, 67, 41
2, 1440505, Note_on_c, 0, 67, 0
2, 1440505, Note_on_c, 0, 62, 0
2, 1440720, Note_on_c, 0, 46, 51
2, 1440720, Note_on_c, 0, 53, 51
2, 1440720, Note_on_c, 0, 62, 49
2, 1441045, Note_on_c, 0, 62, 0
2, 1441045, Note_on_c, 0, 46, 0
2, 1441045, Note_on_c, 0, 53, 0
2, 1441260, Note_on_c, 0, 62, 41
2, 1441260, Note_on_c, 0, 65, 38
2, 1441585, Note_on_c, 0, 65, 0
2, 1441585, Note_on_c, 0, 62, 0
2, 1441730, Note_on_c, 0, 74, 0
2, 1441730, Note_on_c, 0, 70, 0
2, 1441800, Note_on_c, 0, 68, 50
2, 1441800, Note_on_c, 0, 72, 49
2, 1441800, Note_on_c, 0, 41, 50
2, 1441800, Note_on_c, 0, 48, 53
2, 1441800, Note_on_c, 0, 56, 50
2, 1442125, Note_on_c, 0, 56, 0
2, 1442125, Note_on_c, 0, 41, 0
2, 1442125, Note_on_c, 0, 48, 0
2, 1442340, Note_on_c, 0, 60, 38
2, 1442340, Note_on_c, 0, 65, 38
2, 1442665, Note_on_c, 0, 65, 0
2, 1442665, Note_on_c, 0, 60, 0
2, 1442880, Note_on_c, 0, 44, 52
2, 1442880, Note_on_c, 0, 51, 50
2, 1442880, Note_on_c, 0, 60, 51
2, 1443205, Note_on_c, 0, 60, 0
2, 1443205, Note_on_c, 0, 44, 0
2, 1443205, Note_on_c, 0, 51, 0
2, 1443420, Note_on_c, 0, 60, 41
2, 1443420, Note_on_c, 0, 63, 39
2, 1443745, Note_on_c, 0, 63, 0
2, 1443745, Note_on_c, 0, 60, 0
2, 1443890, Note_on_c, 0, 72, 0
2, 1443890, Note_on_c, 0, 68, 0
2, 1443960, Note_on_c, 0, 67, 50
2, 1443960, Note_on_c, 0, 70, 50
2, 1443960, Note_on_c, 0, 39, 49
2, 1443960, Note_on_c, 0, 46, 49
2, 1443960, Note_on_c, 0, 55, 52
2, 1444285, Note_on_c, 0, 55, 0
2, 1444285, Note_on_c, 0, 39, 0
2, 1444285, Note_on_c, 0, 46, 0
2, 1444500, Note_on_c, 0, 58, 39
2, 1444500, Note_on_c, 0, 63, 37
2, 1444825, Note_on_c, 0, 63, 0
2, 1444825, Note_on_c, 0, 58, 0
2, 1445040, Note_on_c, 0, 70, 0
2, 1445040, Note_on_c, 0, 67, 0
2, 1445040, Note_on_c, 0, 67, 50
2, 1445040, Note_on_c, 0, 69, 51
2, 1445040, Note_on_c, 0, 36, 49
2, 1445040, Note_on_c, 0, 43, 51
2, 1445040, Note_on_c, 0, 51, 52
2, 1445365, Note_on_c, 0, 51, 0
2, 1445365, Note_on_c, 0, 36, 0
2, 1445365, Note_on_c, 0, 43, 0
2, 1445580, Note_on_c, 0, 57, 40
2, 1445580, Note_on_c, 0, 63, 37
2, 1445905, Note_on_c, 0, 63, 0
2, 1445905, Note_on_c, 0, 57, 0
2, 1446120, Note_on_c, 0, 69, 0
2, 1446120, Note_on_c, 0, 67, 0
2, 1446120, Note_on_c, 0, 67, 52
2, 1446120, Note_on_c, 0, 70, 52
2, 1446120, Note_on_c, 0, 43, 53
2, 1446120, Note_on_c, 0, 50, 50
2, 1446120, Note_on_c, 0, 58, 52
2, 1446445, Note_on_c, 0, 58, 0
2, 1446445, Note_on_c, 0, 43, 0
2, 1446445, Note_on_c, 0, 50, 0
2, 1446660, Note_on_c, 0, 58, 37
2, 1446660, Note_on_c, 0, 62, 40
2, 1446985, Note_on_c, 0, 62, 0
2, 1446985, Note_on_c, 0, 58, 0
2, 1447200, Note_on_c, 0, 70, 0
2, 1447200, Note_on_c, 0, 67, 0
2, 1447200, Note_on_c, 0, 67, 51
2, 1447200, Note_on_c, 0, 70, 50
2, 1447200, Note_on_c, 0, 40, 51
2, 1447200, Note_on_c, 0, 48, 53
2, 1447200, Note_on_c, 0, 55, 51
2, 1447525, Note_on_c, 0, 55, 0
2, 1447525, Note_on_c, 0, 40, 0
2, 1447525, Note_on_c, 0, 48, 0
2, 1447740, Note_on_c, 0, 58, 39
2, 1447740, Note_on_c, 0, 60, 38
2, 1448065, Note_on_c, 0, 60, 0
2, 1448065, Note_on_c, 0, 58, 0
2, 1448280, Note_on_c, 0, 70, 0
2, 1448280, Note_on_c, 0, 67, 0
2, 1448280, Note_on_c, 0, 65, 50
2, 1448280, Note_on_c, 0, 68, 48
2, 1448280, Note_on_c, 0, 41, 52
2, 1448280, Note_on_c, 0, 48, 49
2, 1448280, Note_on_c, 0, 56, 52
2, 1448605, Note_on_c, 0, 56, 0
2, 1448605, Note_on_c, 0, 41, 0
2, 1448605, Note_on_c, 0, 48, 0
2, 1448820, Note_on_c, 0, 56, 40
2, 1448820, Note_on_c, 0, 60, 39
2, 1449145, Note_on_c, 0, 60, 0
2, 1449145, Note_on_c, 0, 56, 0
2, 1449360, Note_on_c, 0, 38, 53
2, 1449360, Note_on_c, 0, 46, 51
2, 1449360, Note_on_c, 0, 53, 53
2, 1449685, Note_on_c, 0, 53, 0
2, 1449685, Note_on_c, 0, 38, 0
2, 1449685, Note_on_c, 0, 46, 0
2, 1449900, Note_on_c, 0, 56, 40
2, 1449900, Note_on_c, 0, 58, 39
2, 1450225, Note_on_c, 0, 58, 0
2, 1450225, Note_on_c, 0, 56, 0
2, 1450370, Note_on_c, 0, 68, 0
2, 1450370, Note_on_c, 0, 65, 0
2, 1450440, Note_on_c, 0, 63, 50
2, 1450440, Note_on_c, 0, 67, 48
2, 1450440, Note_on_c, 0, 39, 53
2, 1450440, Note_on_c, 0, 46, 51
2, 1450440, Note_on_c, 0, 55, 53
2, 1450765, Note_on_c, 0, 55, 0
2, 1450765, Note_on_c, 0, 39, 0
2, 1450765, Note_on_c, 0, 46, 0
2, 1450980, Note_on_c, 0, 55, 39
2, 1450980, Note_on_c, 0, 58, 37
2, 1451305, Note_on_c, 0, 58, 0
2, 1451305, Note_on_c, 0, 55, 0
2, 1451520, Note_on_c, 0, 36, 50
2, 1451520, Note_on_c, 0, 44, 51
2, 1451520, Note_on_c, 0, 51, 52
2, 1451845, Note_on_c, 0, 51, 0
2, 1451845, Note_on_c, 0, 36, 0
2, 1451845, Note_on_c, 0, 44, 0
2, 1452060, Note_on_c, 0, 55, 39
2, 1452060, Note_on_c, 0, 56, 39
2, 1452385, Note_on_c, 0, 56, 0
2, 1452385, Note_on_c, 0, 55, 0
2, 1452530, Note_on_c, 0, 67, 0
2, 1452530, Note_on_c, 0, 63, 0
2, 1452600, Note_on_c, 0, 61, 47
2, 1452600, Note_on_c, 0, 65, 49
2, 1452600, Note_on_c, 0, 37, 43
2, 1452600, Note_on_c, 0, 49, 41
2, 1452925, Note_on_c, 0, 49, 0
2, 1452925, Note_on_c, 0, 37, 0
2, 1453140, Note_on_c, 0, 53, 47
2, 1453140, Note_on_c, 0, 56, 48
2, 1453140, Note_on_c, 0, 36, 50
2, 1453140, Note_on_c, 0, 48, 47
2, 1453465, Note_on_c, 0, 48, 0
2, 1453465, Note_on_c, 0, 36, 0
2, 1453465, Note_on_c, 0, 53, 0
2, 1453465, Note_on_c, 0, 56, 0
2, 1453680, Note_on_c, 0, 61, 0
2, 1453680, Note_on_c, 0, 62, 52
2, 1453680, Note_on_c, 0, 35, 50
2, 1453680, Note_on_c, 0, 47, 50
2, 1454005, Note_on_c, 0, 47, 0
2, 1454005, Note_on_c, 0, 35, 0
2, 1454220, Note_on_c, 0, 53, 47
2, 1454220, Note_on_c, 0, 55, 47
2, 1454545, Note_on_c, 0, 55, 0
2, 1454545, Note_on_c, 0, 53, 0
2, 1454760, Note_on_c, 0, 62, 0
2, 1454760, Note_on_c, 0, 65, 0
2, 1454760, Note_on_c, 0, 60, 48
2, 1454760, Note_on_c, 0, 63, 49
2, 1454760, Note_on_c, 0, 36, 49
2, 1454760, Note_on_c, 0, 48, 49
2, 1455085, Note_on_c, 0, 48, 0
2, 1455085, Note_on_c, 0, 36, 0
2, 1455300, Note_on_c, 0, 51, 49
2, 1455300, Note_on_c, 0, 55, 50
2, 1455625, Note_on_c, 0, 55, 0
2, 1455625, Note_on_c, 0, 51, 0
2, 1455840, Note_on_c, 0, 63, 0
2, 1455840, Note_on_c, 0, 60, 0
2, 1455840, Note_on_c, 0, 58, 50
2, 1455840, Note_on_c, 0, 61, 48
2, 1455840, Note_on_c, 0, 29, 49
2, 1455840, Note_on_c, 0, 41, 52
2, 1456165, Note_on_c, 0, 41, 0
2, 1456165, Note_on_c, 0, 29, 0
2, 1456380, Note_on_c, 0, 49, 41
2, 1456380, Note_on_c, 0, 53, 38
2, 1456705, Note_on_c, 0, 53, 0
2, 1456705, Note_on_c, 0, 49, 0
2, 1456920, Note_on_c, 0, 58, 0
2, 1456920, Note_on_c, 0, 57, 51
2, 1456920, Note_on_c, 0, 41, 49
2, 1457245, Note_on_c, 0, 41, 0
2, 1457460, Note_on_c, 0, 49, 38
2, 1457460, Note_on_c, 0, 53, 41
2, 1457460, Note_on_c, 0, 29, 46
2, 1457785, Note_on_c, 0, 29, 0
2, 1457785, Note_on_c, 0, 49, 0
2, 1457785, Note_on_c, 0, 53, 0
2, 1458000, Note_on_c, 0, 57, 0
2, 1458000, Note_on_c, 0, 56, 50
2, 1458000, Note_on_c, 0, 59, 48
2, 1458000, Note_on_c, 0, 31, 51
2, 1458000, Note_on_c, 0, 43, 52
2, 1458325, Note_on_c, 0, 43, 0
2, 1458325, Note_on_c, 0, 31, 0
2, 1458540, Note_on_c, 0, 50, 41
2, 1458540, Note_on_c, 0, 53, 37
2, 1458865, Note_on_c, 0, 53, 0
2, 1458865, Note_on_c, 0, 50, 0
2, 1459080, Note_on_c, 0, 56, 0
2, 1459080, Note_on_c, 0, 55, 51
2, 1459080, Note_on_c, 0, 43, 51
2, 1459405, Note_on_c, 0, 43, 0
2, 1459620, Note_on_c, 0, 50, 37
2, 1459620, Note_on_c, 0, 53, 38
2, 1459620, Note_on_c, 0, 31, 48
2, 1459945, Note_on_c, 0, 31, 0
2, 1459945, Note_on_c, 0, 53, 0
2, 1459945, Note_on_c, 0, 50, 0
2, 1460160, Note_on_c, 0, 55, 0
2, 1460160, Note_on_c, 0, 59, 0
2, 1460160, Note_on_c, 0, 60, 53
2, 1460160, Note_on_c, 0, 36, 53
2, 1460160, Note_on_c, 0, 43, 49
2, 1460485, Note_on_c, 0, 43, 0
2, 1460485, Note_on_c, 0, 36, 0
2, 1460700, Note_on_c, 0, 48, 39
2, 1460700, Note_on_c, 0, 51, 39
2, 1461025, Note_on_c, 0, 51, 0
2, 1461025, Note_on_c, 0, 48, 0
2, 1461780, Note_on_c, 0, 60, 0
2, 1461780, Note_on_c, 0, 62, 46
2, 1461780, Note_on_c, 0, 53, 38
2, 1461780, Note_on_c, 0, 59, 39
2, 1461780, Note_on_c, 0, 31, 49
2, 1461780, Note_on_c, 0, 43, 49
2, 1462105, Note_on_c, 0, 43, 0
2, 1462105, Note_on_c, 0, 31, 0
2, 1462105, Note_on_c, 0, 53, 0
2, 1462105, Note_on_c, 0, 62, 0
2, 1462105, Note_on_c, 0, 59, 0
2, 1462140, Note_on_c, 0, 63, 45
2, 1462303, Note_on_c, 0, 63, 0
2, 1462320, Note_on_c, 0, 60, 48
2, 1462320, Note_on_c, 0, 36, 52
2, 1462320, Note_on_c, 0, 43, 52
2, 1462645, Note_on_c, 0, 43, 0
2, 1462645, Note_on_c, 0, 36, 0
2, 1462860, Note_on_c, 0, 48, 40
2, 1462860, Note_on_c, 0, 51, 37
2, 1463185, Note_on_c, 0, 51, 0
2, 1463185, Note_on_c, 0, 48, 0
2, 1463940, Note_on_c, 0, 60, 0
2, 1463940, Note_on_c, 0, 62, 46
2, 1463940, Note_on_c, 0, 53, 39
2, 1463940, Note_on_c, 0, 59, 38
2, 1463940, Note_on_c, 0, 31, 47
2, 1463940, Note_on_c, 0, 43, 47
2, 1464265, Note_on_c, 0, 43, 0
2, 1464265, Note_on_c, 0, 31, 0
2, 1464265, Note_on_c, 0, 53, 0
2, 1464265, Note_on_c, 0, 62, 0
2, 1464265, Note_on_c, 0, 59, 0
2, 1464300, Note_on_c, 0, 63, 45
2, 1464463, Note_on_c, 0, 63, 0
2, 1464480, Note_on_c, 0, 60, 45
2, 1464480, Note_on_c, 0, 36, 50
2, 1464480, Note_on_c, 0, 48, 50
2, 1464805, Note_on_c, 0, 48, 0
2, 1464805, Note_on_c, 0, 36, 0
2, 1465020, Note_on_c, 0, 51, 46
2, 1465020, Note_on_c, 0, 55, 49
2, 1465345, Note_on_c, 0, 55, 0
2, 1465345, Note_on_c, 0, 51, 0
2, 1465490, Note_on_c, 0, 60, 0
2, 1465560, Note_on_c, 0, 63, 57
2, 1465560, Note_on_c, 0, 34, 50
2, 1465560, Note_on_c, 0, 46, 51
2, 1465885, Note_on_c, 0, 46, 0
2, 1465885, Note_on_c, 0, 34, 0
2, 1466100, Note_on_c, 0, 55, 47
2, 1466100, Note_on_c, 0, 61, 46
2, 1466425, Note_on_c, 0, 55, 0
2, 1466425, Note_on_c, 0, 61, 0
2, 1466640, Note_on_c, 0, 63, 0
2, 1466640, Note_on_c, 0, 68, 56
2, 1466640, Note_on_c, 0, 32, 51
2, 1466640, Note_on_c, 0, 44, 50
2, 1466965, Note_on_c, 0, 44, 0
2, 1466965, Note_on_c, 0, 32, 0
2, 1467180, Note_on_c, 0, 54, 47
2, 1467180, Note_on_c, 0, 60, 49
2, 1467505, Note_on_c, 0, 60, 0
2, 1467505, Note_on_c, 0, 54, 0
2, 1467720, Note_on_c, 0, 68, 0
2, 1467720, Note_on_c, 0, 63, 47
2, 1467720, Note_on_c, 0, 31, 52
2, 1467720, Note_on_c, 0, 43, 49
2, 1468045, Note_on_c, 0, 43, 0
2, 1468045, Note_on_c, 0, 31, 0
2, 1468260, Note_on_c, 0, 53, 47
2, 1468260, Note_on_c, 0, 59, 48
2, 1468585, Note_on_c, 0, 59, 0
2, 1468585, Note_on_c, 0, 53, 0
2, 1468800, Note_on_c, 0, 63, 0
2, 1468800, Note_on_c, 0, 60, 46
2, 1468800, Note_on_c, 0, 36, 50
2, 1468800, Note_on_c, 0, 43, 51
2, 1469125, Note_on_c, 0, 43, 0
2, 1469125, Note_on_c, 0, 36, 0
2, 1469340, Note_on_c, 0, 48, 39
2, 1469340, Note_on_c, 0, 51, 40
2, 1469665, Note_on_c, 0, 51, 0
2, 1469665, Note_on_c, 0, 48, 0
2, 1469880, Note_on_c, 0, 60, 0
2, 1469880, Note_on_c, 0, 60, 43
2, 1469880, Note_on_c, 0, 36, 52
2, 1469880, Note_on_c, 0, 43, 50
2, 1470043, Note_on_c, 0, 60, 0
2, 1470060, Note_on_c, 0, 59, 40
2, 1470205, Note_on_c, 0, 36, 0
2, 1470205, Note_on_c, 0, 43, 0
2, 1470223, Note_on_c, 0, 59, 0
2, 1470240, Note_on_c, 0, 60, 44
2, 1470403, Note_on_c, 0, 60, 0
2, 1470420, Note_on_c, 0, 62, 46
2, 1470420, Note_on_c, 0, 53, 40
2, 1470420, Note_on_c, 0, 59, 41
2, 1470420, Note_on_c, 0, 31, 50
2, 1470420, Note_on_c, 0, 43, 47
2, 1470745, Note_on_c, 0, 43, 0
2, 1470745, Note_on_c, 0, 31, 0
2, 1470745, Note_on_c, 0, 53, 0
2, 1470745, Note_on_c, 0, 62, 0
2, 1470745, Note_on_c, 0, 59, 0
2, 1470780, Note_on_c, 0, 63, 45
2, 1470943, Note_on_c, 0, 63, 0
2, 1470960, Note_on_c, 0, 60, 47
2, 1470960, Note_on_c, 0, 36, 49
2, 1470960, Note_on_c, 0, 43, 50
2, 1471285, Note_on_c, 0, 43, 0
2, 1471285, Note_on_c, 0, 36, 0
2, 1471500, Note_on_c, 0, 48, 39
2, 1471500, Note_on_c, 0, 51, 37
2, 1471825, Note_on_c, 0, 51, 0
2, 1471825, Note_on_c, 0, 48, 0
2, 1472040, Note_on_c, 0, 60, 0
2, 1472040, Note_on_c, 0, 60, 44
2, 1472040, Note_on_c, 0, 36, 50
2, 1472040, Note_on_c, 0, 43, 51
2, 1472203, Note_on_c, 0, 60, 0
2, 1472220, Note_on_c, 0, 59, 41
2, 1472365, Note_on_c, 0, 36, 0
2, 1472365, Note_on_c, 0, 43, 0
2, 1472383, Note_on_c, 0, 59, 0
2, 1472400, Note_on_c, 0, 60, 43
2, 1472563, Note_on_c, 0, 60, 0
2, 1472580, Note_on_c, 0, 62, 46
2, 1472580, Note_on_c, 0, 53, 40
2, 1472580, Note_on_c, 0, 59, 39
2, 1472580, Note_on_c, 0, 31, 46
2, 1472580, Note_on_c, 0, 43, 47
2, 1472757, Note_on_c, 0, 43, 0
2, 1472757, Note_on_c, 0, 31, 0
2, 1472905, Note_on_c, 0, 53, 0
2, 1472905, Note_on_c, 0, 62, 0
2, 1472905, Note_on_c, 0, 59, 0
2, 1472940, Note_on_c, 0, 63, 46
2, 1473103, Note_on_c, 0, 63, 0
2, 1473120, Note_on_c, 0, 60, 49
2, 1473120, Note_on_c, 0, 36, 52
2, 1473120, Note_on_c, 0, 43, 52
2, 1473445, Note_on_c, 0, 43, 0
2, 1473445, Note_on_c, 0, 36, 0
2, 1473660, Note_on_c, 0, 48, 48
2, 1473660, Note_on_c, 0, 51, 47
2, 1473930, Note_on_c, 0, 34, 48
2, 1473985, Note_on_c, 0, 51, 0
2, 1473985, Note_on_c, 0, 48, 0
2, 1474173, Note_on_c, 0, 34, 0
2, 1474200, Note_on_c, 0, 60, 0
2, 1474200, Note_on_c, 0, 63, 56
2, 1474200, Note_on_c, 0, 32, 66
2, 1474200, Note_on_c, 0, 44, 65
2, 1474525, Note_on_c, 0, 44, 0
2, 1474525, Note_on_c, 0, 32, 0
2, 1474740, Note_on_c, 0, 54, 49
2, 1474740, Note_on_c, 0, 60, 49
2, 1475010, Note_on_c, 0, 39, 49
2, 1475065, Note_on_c, 0, 60, 0
2, 1475065, Note_on_c, 0, 54, 0
2, 1475253, Note_on_c, 0, 39, 0
2, 1475280, Note_on_c, 0, 63, 0
2, 1475280, Note_on_c, 0, 68, 60
2, 1475280, Note_on_c, 0, 38, 54
2, 1475605, Note_on_c, 0, 38, 0
2, 1475820, Note_on_c, 0, 53, 46
2, 1475820, Note_on_c, 0, 60, 50
2, 1476090, Note_on_c, 0, 32, 49
2, 1476145, Note_on_c, 0, 60, 0
2, 1476145, Note_on_c, 0, 53, 0
2, 1476333, Note_on_c, 0, 32, 0
2, 1476360, Note_on_c, 0, 68, 0
2, 1476360, Note_on_c, 0, 63, 45
2, 1476360, Note_on_c, 0, 31, 67
2, 1476360, Note_on_c, 0, 43, 69
2, 1476685, Note_on_c, 0, 43, 0
2, 1476685, Note_on_c, 0, 31, 0
2, 1476900, Note_on_c, 0, 53, 49
2, 1476900, Note_on_c, 0, 59, 48
2, 1477225, Note_on_c, 0, 59, 0
2, 1477225, Note_on_c, 0, 53, 0
2, 1477440, Note_on_c, 0, 63, 0
2, 1477440, Note_on_c, 0, 61, 0
2, 1477620, Note_on_c, 0, 60, 39
2, 1477620, Note_on_c, 0, 48, 50
2, 1477783, Note_on_c, 0, 48, 0
2, 1477783, Note_on_c, 0, 60, 0
2, 1477800, Note_on_c, 0, 62, 45
2, 1477800, Note_on_c, 0, 50, 54
2, 1477963, Note_on_c, 0, 50, 0
2, 1477963, Note_on_c, 0, 62, 0
2, 1477980, Note_on_c, 0, 63, 45
2, 1477980, Note_on_c, 0, 51, 54
2, 1478305, Note_on_c, 0, 51, 0
2, 1478305, Note_on_c, 0, 63, 0
2, 1478340, Note_on_c, 0, 62, 42
2, 1478340, Note_on_c, 0, 50, 49
2, 1478503, Note_on_c, 0, 50, 0
2, 1478503, Note_on_c, 0, 62, 0
2, 1478520, Note_on_c, 0, 63, 48
2, 1478520, Note_on_c, 0, 51, 57
2, 1478683, Note_on_c, 0, 51, 0
2, 1478683, Note_on_c, 0, 63, 0
2, 1478700, Note_on_c, 0, 65, 43
2, 1478700, Note_on_c, 0, 53, 57
2, 1478863, Note_on_c, 0, 53, 0
2, 1478863, Note_on_c, 0, 65, 0
2, 1478880, Note_on_c, 0, 66, 46
2, 1478880, Note_on_c, 0, 54, 55
2, 1479043, Note_on_c, 0, 54, 0
2, 1479043, Note_on_c, 0, 66, 0
2, 1479060, Note_on_c, 0, 67, 47
2, 1479060, Note_on_c, 0, 55, 56
2, 1479385, Note_on_c, 0, 55, 0
2, 1479385, Note_on_c, 0, 67, 0
2, 1479420, Note_on_c, 0, 65, 41
2, 1479420, Note_on_c, 0, 53, 52
2, 1479583, Note_on_c, 0, 53, 0
2, 1479583, Note_on_c, 0, 65, 0
2, 1479600, Note_on_c, 0, 67, 49
2, 1479600, Note_on_c, 0, 55, 58
2, 1479763, Note_on_c, 0, 55, 0
2, 1479763, Note_on_c, 0, 67, 0
2, 1479780, Note_on_c, 0, 68, 46
2, 1479780, Note_on_c, 0, 56, 55
2, 1479943, Note_on_c, 0, 56, 0
2, 1479943, Note_on_c, 0, 68, 0
2, 1479960, Note_on_c, 0, 69, 43
2, 1479960, Note_on_c, 0, 57, 54
2, 1480123, Note_on_c, 0, 57, 0
2, 1480123, Note_on_c, 0, 69, 0
2, 1480140, Note_on_c, 0, 70, 47
2, 1480140, Note_on_c, 0, 58, 56
2, 1480465, Note_on_c, 0, 58, 0
2, 1480465, Note_on_c, 0, 70, 0
2, 1480500, Note_on_c, 0, 67, 38
2, 1480500, Note_on_c, 0, 55, 50
2, 1480663, Note_on_c, 0, 55, 0
2, 1480663, Note_on_c, 0, 67, 0
2, 1480680, Note_on_c, 0, 68, 47
2, 1480680, Note_on_c, 0, 56, 56
2, 1480843, Note_on_c, 0, 56, 0
2, 1480843, Note_on_c, 0, 68, 0
2, 1480860, Note_on_c, 0, 70, 46
2, 1480860, Note_on_c, 0, 58, 58
2, 1481023, Note_on_c, 0, 58, 0
2, 1481023, Note_on_c, 0, 70, 0
2, 1481040, Note_on_c, 0, 71, 46
2, 1481040, Note_on_c, 0, 59, 57
2, 1481203, Note_on_c, 0, 59, 0
2, 1481203, Note_on_c, 0, 71, 0
2, 1481220, Note_on_c, 0, 72, 44
2, 1481220, Note_on_c, 0, 60, 54
2, 1481545, Note_on_c, 0, 60, 0
2, 1481545, Note_on_c, 0, 72, 0
2, 1481580, Note_on_c, 0, 72, 43
2, 1481580, Note_on_c, 0, 60, 52
2, 1481743, Note_on_c, 0, 60, 0
2, 1481743, Note_on_c, 0, 72, 0
2, 1481760, Note_on_c, 0, 73, 48
2, 1481760, Note_on_c, 0, 61, 56
2, 1481923, Note_on_c, 0, 61, 0
2, 1481923, Note_on_c, 0, 73, 0
2, 1481940, Note_on_c, 0, 75, 46
2, 1481940, Note_on_c, 0, 63, 56
2, 1482103, Note_on_c, 0, 63, 0
2, 1482103, Note_on_c, 0, 75, 0
2, 1482120, Note_on_c, 0, 76, 45
2, 1482120, Note_on_c, 0, 64, 54
2, 1482283, Note_on_c, 0, 64, 0
2, 1482283, Note_on_c, 0, 76, 0
2, 1482300, Note_on_c, 0, 77, 46
2, 1482300, Note_on_c, 0, 65, 58
2, 1482463, Note_on_c, 0, 65, 0
2, 1482463, Note_on_c, 0, 77, 0
2, 1482480, Note_on_c, 0, 75, 41
2, 1482480, Note_on_c, 0, 63, 51
2, 1482643, Note_on_c, 0, 63, 0
2, 1482643, Note_on_c, 0, 75, 0
2, 1482660, Note_on_c, 0, 77, 45
2, 1482660, Note_on_c, 0, 65, 56
2, 1482823, Note_on_c, 0, 65, 0
2, 1482823, Note_on_c, 0, 77, 0
2, 1482840, Note_on_c, 0, 74, 42
2, 1482840, Note_on_c, 0, 62, 53
2, 1483003, Note_on_c, 0, 62, 0
2, 1483003, Note_on_c, 0, 74, 0
2, 1483020, Note_on_c, 0, 75, 45
2, 1483020, Note_on_c, 0, 63, 52
2, 1483183, Note_on_c, 0, 63, 0
2, 1483183, Note_on_c, 0, 75, 0
2, 1483200, Note_on_c, 0, 77, 46
2, 1483200, Note_on_c, 0, 65, 54
2, 1483363, Note_on_c, 0, 65, 0
2, 1483363, Note_on_c, 0, 77, 0
2, 1483380, Note_on_c, 0, 79, 46
2, 1483380, Note_on_c, 0, 67, 60
2, 1483543, Note_on_c, 0, 67, 0
2, 1483543, Note_on_c, 0, 79, 0
2, 1483560, Note_on_c, 0, 77, 40
2, 1483560, Note_on_c, 0, 65, 49
2, 1483723, Note_on_c, 0, 65, 0
2, 1483723, Note_on_c, 0, 77, 0
2, 1483740, Note_on_c, 0, 79, 47
2, 1483740, Note_on_c, 0, 67, 53
2, 1483903, Note_on_c, 0, 67, 0
2, 1483903, Note_on_c, 0, 79, 0
2, 1483920, Note_on_c, 0, 80, 46
2, 1483920, Note_on_c, 0, 68, 58
2, 1484083, Note_on_c, 0, 68, 0
2, 1484083, Note_on_c, 0, 80, 0
2, 1484100, Note_on_c, 0, 79, 42
2, 1484100, Note_on_c, 0, 67, 52
2, 1484263, Note_on_c, 0, 67, 0
2, 1484263, Note_on_c, 0, 79, 0
2, 1484280, Note_on_c, 0, 80, 42
2, 1484280, Note_on_c, 0, 68, 54
2, 1484443, Note_on_c, 0, 68, 0
2, 1484443, Note_on_c, 0, 80, 0
2, 1484460, Note_on_c, 0, 82, 49
2, 1484460, Note_on_c, 0, 70, 58
2, 1484623, Note_on_c, 0, 70, 0
2, 1484623, Note_on_c, 0, 82, 0
2, 1484640, Note_on_c, 0, 80, 42
2, 1484640, Note_on_c, 0, 68, 49
2, 1484803, Note_on_c, 0, 68, 0
2, 1484803, Note_on_c, 0, 80, 0
2, 1484820, Note_on_c, 0, 82, 46
2, 1484820, Note_on_c, 0, 70, 53
2, 1484983, Note_on_c, 0, 70, 0
2, 1484983, Note_on_c, 0, 82, 0
2, 1485000, Note_on_c, 0, 83, 48
2, 1485000, Note_on_c, 0, 71, 57
2, 1485163, Note_on_c, 0, 71, 0
2, 1485163, Note_on_c, 0, 83, 0
2, 1485180, Note_on_c, 0, 82, 43
2, 1485180, Note_on_c, 0, 70, 52
2, 1485343, Note_on_c, 0, 70, 0
2, 1485343, Note_on_c, 0, 82, 0
2, 1485360, Note_on_c, 0, 83, 43
2, 1485360, Note_on_c, 0, 71, 57
2, 1485523, Note_on_c, 0, 71, 0
2, 1485523, Note_on_c, 0, 83, 0
2, 1485540, Note_on_c, 0, 84, 49
2, 1485540, Note_on_c, 0, 72, 58
2, 1485703, Note_on_c, 0, 72, 0
2, 1485703, Note_on_c, 0, 84, 0
2, 1485720, Note_on_c, 0, 83, 42
2, 1485720, Note_on_c, 0, 71, 52
2, 1485883, Note_on_c, 0, 71, 0
2, 1485883, Note_on_c, 0, 83, 0
2, 1485900, Note_on_c, 0, 84, 45
2, 1485900, Note_on_c, 0, 72, 54
2, 1486063, Note_on_c, 0, 72, 0
2, 1486063, Note_on_c, 0, 84, 0
2, 1486080, Note_on_c, 0, 91, 80
2, 1486080, Note_on_c, 0, 67, 65
2, 1486080, Note_on_c, 0, 79, 64
2, 1486243, Note_on_c, 0, 91, 0
2, 1486260, Note_on_c, 0, 89, 43
2, 1486423, Note_on_c, 0, 89, 0
2, 1486440, Note_on_c, 0, 86, 38
2, 1486567, Note_on_c, 0, 79, 0
2, 1486567, Note_on_c, 0, 67, 0
2, 1486603, Note_on_c, 0, 86, 0
2, 1486620, Note_on_c, 0, 84, 43
2, 1486620, Note_on_c, 0, 72, 49
2, 1486783, Note_on_c, 0, 72, 0
2, 1486783, Note_on_c, 0, 84, 0
2, 1486800, Note_on_c, 0, 82, 40
2, 1486800, Note_on_c, 0, 70, 46
2, 1486963, Note_on_c, 0, 70, 0
2, 1486963, Note_on_c, 0, 82, 0
2, 1486980, Note_on_c, 0, 80, 41
2, 1486980, Note_on_c, 0, 68, 48
2, 1487143, Note_on_c, 0, 68, 0
2, 1487143, Note_on_c, 0, 80, 0
2, 1487160, Note_on_c, 0, 79, 44
2, 1487160, Note_on_c, 0, 67, 54
2, 1487323, Note_on_c, 0, 67, 0
2, 1487323, Note_on_c, 0, 79, 0
2, 1487340, Note_on_c, 0, 80, 44
2, 1487340, Note_on_c, 0, 68, 55
2, 1487503, Note_on_c, 0, 68, 0
2, 1487503, Note_on_c, 0, 80, 0
2, 1487520, Note_on_c, 0, 79, 42
2, 1487520, Note_on_c, 0, 67, 49
2, 1487683, Note_on_c, 0, 67, 0
2, 1487683, Note_on_c, 0, 79, 0
2, 1487700, Note_on_c, 0, 77, 43
2, 1487700, Note_on_c, 0, 65, 50
2, 1487863, Note_on_c, 0, 65, 0
2, 1487863, Note_on_c, 0, 77, 0
2, 1487880, Note_on_c, 0, 75, 41
2, 1487880, Note_on_c, 0, 63, 51
2, 1488043, Note_on_c, 0, 63, 0
2, 1488043, Note_on_c, 0, 75, 0
2, 1488060, Note_on_c, 0, 74, 39
2, 1488060, Note_on_c, 0, 62, 51
2, 1488223, Note_on_c, 0, 62, 0
2, 1488223, Note_on_c, 0, 74, 0
2, 1488240, Note_on_c, 0, 72, 43
2, 1488240, Note_on_c, 0, 60, 52
2, 1488403, Note_on_c, 0, 60, 0
2, 1488403, Note_on_c, 0, 72, 0
2, 1488600, Note_on_c, 0, 72, 37
2, 1488763, Note_on_c, 0, 72, 0
2, 1488780, Note_on_c, 0, 72, 45
2, 1488943, Note_on_c, 0, 72, 0
2, 1488960, Note_on_c, 0, 70, 41
2, 1489123, Note_on_c, 0, 70, 0
2, 1489140, Note_on_c, 0, 72, 44
2, 1489303, Note_on_c, 0, 72, 0
2, 1489320, Note_on_c, 0, 75, 48
2, 1489320, Note_on_c, 0, 63, 56
2, 1489483, Note_on_c, 0, 75, 0
2, 1489500, Note_on_c, 0, 73, 39
2, 1489663, Note_on_c, 0, 73, 0
2, 1489680, Note_on_c, 0, 72, 39
2, 1489843, Note_on_c, 0, 72, 0
2, 1489860, Note_on_c, 0, 72, 46
2, 1490023, Note_on_c, 0, 72, 0
2, 1490040, Note_on_c, 0, 70, 39
2, 1490203, Note_on_c, 0, 70, 0
2, 1490220, Note_on_c, 0, 72, 44
2, 1490383, Note_on_c, 0, 72, 0
2, 1490400, Note_on_c, 0, 63, 0
2, 1490400, Note_on_c, 0, 69, 42
2, 1490400, Note_on_c, 0, 60, 50
2, 1490563, Note_on_c, 0, 69, 0
2, 1490580, Note_on_c, 0, 70, 46
2, 1490743, Note_on_c, 0, 70, 0
2, 1490760, Note_on_c, 0, 72, 44
2, 1490923, Note_on_c, 0, 72, 0
2, 1490940, Note_on_c, 0, 72, 48
2, 1491103, Note_on_c, 0, 72, 0
2, 1491300, Note_on_c, 0, 72, 41
2, 1491410, Note_on_c, 0, 60, 0
2, 1491463, Note_on_c, 0, 72, 0
2, 1491480, Note_on_c, 0, 75, 48
2, 1491480, Note_on_c, 0, 63, 66
2, 1491643, Note_on_c, 0, 75, 0
2, 1491660, Note_on_c, 0, 73, 41
2, 1491823, Note_on_c, 0, 73, 0
2, 1491840, Note_on_c, 0, 72, 40
2, 1492003, Note_on_c, 0, 72, 0
2, 1492020, Note_on_c, 0, 72, 44
2, 1492183, Note_on_c, 0, 72, 0
2, 1492200, Note_on_c, 0, 68, 38
2, 1492363, Note_on_c, 0, 68, 0
2, 1492380, Note_on_c, 0, 70, 43
2, 1492543, Note_on_c, 0, 70, 0
2, 1492560, Note_on_c, 0, 63, 0
2, 1492560, Note_on_c, 0, 67, 42
2, 1492560, Note_on_c, 0, 60, 51
2, 1492723, Note_on_c, 0, 67, 0
2, 1492740, Note_on_c, 0, 68, 44
2, 1492903, Note_on_c, 0, 68, 0
2, 1492920, Note_on_c, 0, 70, 44
2, 1493083, Note_on_c, 0, 70, 0
2, 1493100, Note_on_c, 0, 72, 48
2, 1493425, Note_on_c, 0, 72, 0
2, 1493460, Note_on_c, 0, 72, 43
2, 1493570, Note_on_c, 0, 60, 0
2, 1493623, Note_on_c, 0, 72, 0
2, 1493640, Note_on_c, 0, 70, 65
2, 1493640, Note_on_c, 0, 58, 74
2, 1493965, Note_on_c, 0, 70, 0
2, 1494000, Note_on_c, 0, 72, 44
2, 1494127, Note_on_c, 0, 58, 0
2, 1494163, Note_on_c, 0, 72, 0
2, 1494180, Note_on_c, 0, 66, 39
2, 1494180, Note_on_c, 0, 54, 48
2, 1494343, Note_on_c, 0, 66, 0
2, 1494360, Note_on_c, 0, 70, 46
2, 1494523, Note_on_c, 0, 70, 0
2, 1494540, Note_on_c, 0, 72, 46
2, 1494667, Note_on_c, 0, 54, 0
2, 1494703, Note_on_c, 0, 72, 0
2, 1494720, Note_on_c, 0, 70, 68
2, 1494720, Note_on_c, 0, 58, 85
2, 1495045, Note_on_c, 0, 70, 0
2, 1495080, Note_on_c, 0, 72, 44
2, 1495207, Note_on_c, 0, 58, 0
2, 1495243, Note_on_c, 0, 72, 0
2, 1495260, Note_on_c, 0, 65, 40
2, 1495260, Note_on_c, 0, 53, 47
2, 1495423, Note_on_c, 0, 65, 0
2, 1495440, Note_on_c, 0, 70, 45
2, 1495603, Note_on_c, 0, 70, 0
2, 1495620, Note_on_c, 0, 72, 46
2, 1495747, Note_on_c, 0, 53, 0
2, 1495783, Note_on_c, 0, 72, 0
2, 1495800, Note_on_c, 0, 70, 66
2, 1495800, Note_on_c, 0, 58, 88
2, 1496125, Note_on_c, 0, 70, 0
2, 1496160, Note_on_c, 0, 72, 46
2, 1496287, Note_on_c, 0, 58, 0
2, 1496323, Note_on_c, 0, 72, 0
2, 1496340, Note_on_c, 0, 64, 39
2, 1496340, Note_on_c, 0, 52, 46
2, 1496503, Note_on_c, 0, 64, 0
2, 1496520, Note_on_c, 0, 70, 47
2, 1496683, Note_on_c, 0, 70, 0
2, 1496700, Note_on_c, 0, 72, 44
2, 1496827, Note_on_c, 0, 52, 0
2, 1496863, Note_on_c, 0, 72, 0
2, 1496880, Note_on_c, 0, 70, 42
2, 1496880, Note_on_c, 0, 58, 88
2, 1497043, Note_on_c, 0, 70, 0
2, 1497060, Note_on_c, 0, 72, 43
2, 1497223, Note_on_c, 0, 72, 0
2, 1497240, Note_on_c, 0, 63, 33
2, 1497367, Note_on_c, 0, 58, 0
2, 1497403, Note_on_c, 0, 63, 0
2, 1497420, Note_on_c, 0, 68, 51
2, 1497420, Note_on_c, 0, 51, 45
2, 1497583, Note_on_c, 0, 68, 0
2, 1497600, Note_on_c, 0, 70, 44
2, 1497763, Note_on_c, 0, 70, 0
2, 1497780, Note_on_c, 0, 72, 46
2, 1497907, Note_on_c, 0, 51, 0
2, 1497943, Note_on_c, 0, 72, 0
2, 1497960, Note_on_c, 0, 72, 46
2, 1497960, Note_on_c, 0, 60, 65
2, 1498123, Note_on_c, 0, 60, 0
2, 1498123, Note_on_c, 0, 72, 0
2, 1498140, Note_on_c, 0, 73, 45
2, 1498140, Note_on_c, 0, 61, 58
2, 1498303, Note_on_c, 0, 61, 0
2, 1498303, Note_on_c, 0, 73, 0
2, 1498320, Note_on_c, 0, 75, 46
2, 1498320, Note_on_c, 0, 63, 58
2, 1498483, Note_on_c, 0, 63, 0
2, 1498483, Note_on_c, 0, 75, 0
2, 1498500, Note_on_c, 0, 77, 47
2, 1498500, Note_on_c, 0, 65, 57
2, 1498663, Note_on_c, 0, 65, 0
2, 1498663, Note_on_c, 0, 77, 0
2, 1498680, Note_on_c, 0, 75, 40
2, 1498680, Note_on_c, 0, 63, 51
2, 1498843, Note_on_c, 0, 63, 0
2, 1498843, Note_on_c, 0, 75, 0
2, 1498860, Note_on_c, 0, 77, 44
2, 1498860, Note_on_c, 0, 65, 54
2, 1499023, Note_on_c, 0, 65, 0
2, 1499023, Note_on_c, 0, 77, 0
2, 1499040, Note_on_c, 0, 71, 41
2, 1499040, Note_on_c, 0, 59, 49
2, 1499365, Note_on_c, 0, 59, 0
2, 1499365, Note_on_c, 0, 71, 0
2, 1499400, Note_on_c, 0, 70, 41
2, 1499563, Note_on_c, 0, 70, 0
2, 1499580, Note_on_c, 0, 71, 48
2, 1499580, Note_on_c, 0, 59, 52
2, 1499743, Note_on_c, 0, 59, 0
2, 1499743, Note_on_c, 0, 71, 0
2, 1499760, Note_on_c, 0, 68, 38
2, 1499760, Note_on_c, 0, 56, 48
2, 1499923, Note_on_c, 0, 56, 0
2, 1499923, Note_on_c, 0, 68, 0
2, 1499940, Note_on_c, 0, 70, 45
2, 1499940, Note_on_c, 0, 58, 55
2, 1500103, Note_on_c, 0, 58, 0
2, 1500103, Note_on_c, 0, 70, 0
2, 1500120, Note_on_c, 0, 71, 49
2, 1500120, Note_on_c, 0, 59, 57
2, 1500283, Note_on_c, 0, 59, 0
2, 1500283, Note_on_c, 0, 71, 0
2, 1500300, Note_on_c, 0, 72, 46
2, 1500300, Note_on_c, 0, 60, 54
2, 1500463, Note_on_c, 0, 60, 0
2, 1500463, Note_on_c, 0, 72, 0
2, 1500480, Note_on_c, 0, 74, 47
2, 1500480, Note_on_c, 0, 62, 56
2, 1500643, Note_on_c, 0, 62, 0
2, 1500643, Note_on_c, 0, 74, 0
2, 1500660, Note_on_c, 0, 75, 47
2, 1500660, Note_on_c, 0, 63, 59
2, 1500823, Note_on_c, 0, 63, 0
2, 1500823, Note_on_c, 0, 75, 0
2, 1500840, Note_on_c, 0, 74, 40
2, 1501003, Note_on_c, 0, 74, 0
2, 1501020, Note_on_c, 0, 75, 45
2, 1501183, Note_on_c, 0, 75, 0
2, 1501200, Note_on_c, 0, 63, 74
2, 1501363, Note_on_c, 0, 63, 0
2, 1501380, Note_on_c, 0, 60, 48
2, 1501543, Note_on_c, 0, 60, 0
2, 1501560, Note_on_c, 0, 63, 56
2, 1501723, Note_on_c, 0, 63, 0
2, 1501740, Note_on_c, 0, 65, 86
2, 1501903, Note_on_c, 0, 65, 0
2, 1501920, Note_on_c, 0, 63, 49
2, 1502083, Note_on_c, 0, 63, 0
2, 1502100, Note_on_c, 0, 65, 55
2, 1502263, Note_on_c, 0, 65, 0
2, 1502280, Note_on_c, 0, 67, 59
2, 1502605, Note_on_c, 0, 67, 0
2, 1502640, Note_on_c, 0, 68, 40
2, 1502803, Note_on_c, 0, 68, 0
2, 1502820, Note_on_c, 0, 67, 44
2, 1502820, Note_on_c, 0, 65, 47
2, 1502983, Note_on_c, 0, 67, 0
2, 1503000, Note_on_c, 0, 68, 43
2, 1503145, Note_on_c, 0, 65, 0
2, 1503163, Note_on_c, 0, 68, 0
2, 1503180, Note_on_c, 0, 67, 42
2, 1503343, Note_on_c, 0, 67, 0
2, 1503360, Note_on_c, 0, 72, 48
2, 1503360, Note_on_c, 0, 60, 51
2, 1503360, Note_on_c, 0, 63, 50
2, 1503685, Note_on_c, 0, 63, 0
2, 1503685, Note_on_c, 0, 72, 0
2, 1503685, Note_on_c, 0, 60, 0
2, 1503720, Note_on_c, 0, 84, 55
2, 1503883, Note_on_c, 0, 84, 0
2, 1503900, Note_on_c, 0, 84, 49
2, 1504063, Note_on_c, 0, 84, 0
2, 1504080, Note_on_c, 0, 82, 39
2, 1504243, Note_on_c, 0, 82, 0
2, 1504260, Note_on_c, 0, 84, 47
2, 1504423, Note_on_c, 0, 84, 0
2, 1504440, Note_on_c, 0, 87, 49
2, 1504440, Note_on_c, 0, 70, 57
2, 1504603, Note_on_c, 0, 87, 0
2, 1504620, Note_on_c, 0, 85, 42
2, 1504783, Note_on_c, 0, 85, 0
2, 1504800, Note_on_c, 0, 84, 41
2, 1504963, Note_on_c, 0, 84, 0
2, 1504980, Note_on_c, 0, 84, 43
2, 1504980, Note_on_c, 0, 58, 50
2, 1504980, Note_on_c, 0, 60, 47
2, 1504980, Note_on_c, 0, 66, 50
2, 1505143, Note_on_c, 0, 84, 0
2, 1505160, Note_on_c, 0, 82, 42
2, 1505305, Note_on_c, 0, 60, 0
2, 1505305, Note_on_c, 0, 58, 0
2, 1505305, Note_on_c, 0, 66, 0
2, 1505323, Note_on_c, 0, 82, 0
2, 1505340, Note_on_c, 0, 84, 44
2, 1505503, Note_on_c, 0, 84, 0
2, 1505520, Note_on_c, 0, 70, 0
2, 1505520, Note_on_c, 0, 81, 44
2, 1505520, Note_on_c, 0, 69, 56
2, 1505683, Note_on_c, 0, 81, 0
2, 1505700, Note_on_c, 0, 82, 42
2, 1505863, Note_on_c, 0, 82, 0
2, 1505880, Note_on_c, 0, 84, 44
2, 1506043, Note_on_c, 0, 84, 0
2, 1506060, Note_on_c, 0, 84, 45
2, 1506060, Note_on_c, 0, 57, 48
2, 1506060, Note_on_c, 0, 60, 49
2, 1506060, Note_on_c, 0, 65, 48
2, 1506385, Note_on_c, 0, 65, 0
2, 1506385, Note_on_c, 0, 57, 0
2, 1506385, Note_on_c, 0, 84, 0
2, 1506385, Note_on_c, 0, 60, 0
2, 1506420, Note_on_c, 0, 84, 41
2, 1506583, Note_on_c, 0, 84, 0
2, 1506600, Note_on_c, 0, 69, 0
2, 1506600, Note_on_c, 0, 87, 48
2, 1506600, Note_on_c, 0, 68, 60
2, 1506763, Note_on_c, 0, 87, 0
2, 1506780, Note_on_c, 0, 85, 40
2, 1506943, Note_on_c, 0, 85, 0
2, 1506960, Note_on_c, 0, 84, 42
2, 1507123, Note_on_c, 0, 84, 0
2, 1507140, Note_on_c, 0, 84, 45
2, 1507140, Note_on_c, 0, 56, 47
2, 1507140, Note_on_c, 0, 60, 46
2, 1507140, Note_on_c, 0, 63, 46
2, 1507303, Note_on_c, 0, 84, 0
2, 1507320, Note_on_c, 0, 82, 40
2, 1507465, Note_on_c, 0, 60, 0
2, 1507465, Note_on_c, 0, 56, 0
2, 1507465, Note_on_c, 0, 63, 0
2, 1507483, Note_on_c, 0, 82, 0
2, 1507500, Note_on_c, 0, 84, 47
2, 1507663, Note_on_c, 0, 84, 0
2, 1507680, Note_on_c, 0, 68, 0
2, 1507680, Note_on_c, 0, 79, 40
2, 1507680, Note_on_c, 0, 70, 65
2, 1507843, Note_on_c, 0, 79, 0
2, 1507860, Note_on_c, 0, 80, 43
2, 1508023, Note_on_c, 0, 80, 0
2, 1508040, Note_on_c, 0, 82, 47
2, 1508203, Note_on_c, 0, 82, 0
2, 1508220, Note_on_c, 0, 84, 46
2, 1508220, Note_on_c, 0, 55, 47
2, 1508220, Note_on_c, 0, 60, 49
2, 1508220, Note_on_c, 0, 63, 48
2, 1508545, Note_on_c, 0, 63, 0
2, 1508545, Note_on_c, 0, 55, 0
2, 1508545, Note_on_c, 0, 84, 0
2, 1508545, Note_on_c, 0, 60, 0
2, 1508580, Note_on_c, 0, 84, 41
2, 1508743, Note_on_c, 0, 84, 0
2, 1508760, Note_on_c, 0, 70, 0
2, 1508760, Note_on_c, 0, 82, 69
2, 1508760, Note_on_c, 0, 66, 73
2, 1509085, Note_on_c, 0, 82, 0
2, 1509120, Note_on_c, 0, 84, 47
2, 1509283, Note_on_c, 0, 84, 0
2, 1509300, Note_on_c, 0, 78, 40
2, 1509300, Note_on_c, 0, 54, 49
2, 1509300, Note_on_c, 0, 60, 49
2, 1509463, Note_on_c, 0, 78, 0
2, 1509480, Note_on_c, 0, 82, 45
2, 1509625, Note_on_c, 0, 54, 0
2, 1509625, Note_on_c, 0, 60, 0
2, 1509643, Note_on_c, 0, 82, 0
2, 1509660, Note_on_c, 0, 84, 44
2, 1509770, Note_on_c, 0, 66, 0
2, 1509823, Note_on_c, 0, 84, 0
2, 1509840, Note_on_c, 0, 82, 67
2, 1509840, Note_on_c, 0, 65, 75
2, 1510165, Note_on_c, 0, 82, 0
2, 1510200, Note_on_c, 0, 84, 44
2, 1510363, Note_on_c, 0, 84, 0
2, 1510380, Note_on_c, 0, 77, 38
2, 1510380, Note_on_c, 0, 53, 50
2, 1510380, Note_on_c, 0, 60, 50
2, 1510543, Note_on_c, 0, 77, 0
2, 1510560, Note_on_c, 0, 82, 44
2, 1510705, Note_on_c, 0, 53, 0
2, 1510705, Note_on_c, 0, 60, 0
2, 1510723, Note_on_c, 0, 82, 0
2, 1510740, Note_on_c, 0, 84, 45
2, 1510850, Note_on_c, 0, 65, 0
2, 1510903, Note_on_c, 0, 84, 0
2, 1510920, Note_on_c, 0, 82, 66
2, 1510920, Note_on_c, 0, 64, 75
2, 1511245, Note_on_c, 0, 82, 0
2, 1511280, Note_on_c, 0, 84, 46
2, 1511443, Note_on_c, 0, 84, 0
2, 1511460, Note_on_c, 0, 76, 36
2, 1511460, Note_on_c, 0, 52, 48
2, 1511460, Note_on_c, 0, 60, 46
2, 1511623, Note_on_c, 0, 76, 0
2, 1511640, Note_on_c, 0, 82, 47
2, 1511785, Note_on_c, 0, 52, 0
2, 1511785, Note_on_c, 0, 60, 0
2, 1511803, Note_on_c, 0, 82, 0
2, 1511820, Note_on_c, 0, 84, 47
2, 1511930, Note_on_c, 0, 64, 0
2, 1511983, Note_on_c, 0, 84, 0
2, 1512000, Note_on_c, 0, 82, 69
2, 1512000, Note_on_c, 0, 63, 77
2, 1512163, Note_on_c, 0, 82, 0
2, 1512180, Note_on_c, 0, 84, 46
2, 1512343, Note_on_c, 0, 84, 0
2, 1512360, Note_on_c, 0, 75, 34
2, 1512523, Note_on_c, 0, 75, 0
2, 1512540, Note_on_c, 0, 80, 49
2, 1512540, Note_on_c, 0, 51, 48
2, 1512540, Note_on_c, 0, 56, 49
2, 1512540, Note_on_c, 0, 60, 47
2, 1512703, Note_on_c, 0, 80, 0
2, 1512720, Note_on_c, 0, 82, 47
2, 1512865, Note_on_c, 0, 56, 0
2, 1512865, Note_on_c, 0, 51, 0
2, 1512865, Note_on_c, 0, 60, 0
2, 1512883, Note_on_c, 0, 82, 0
2, 1512900, Note_on_c, 0, 84, 43
2, 1513010, Note_on_c, 0, 63, 0
2, 1513063, Note_on_c, 0, 84, 0
2, 1513080, Note_on_c, 0, 84, 47
2, 1513080, Note_on_c, 0, 72, 67
2, 1513243, Note_on_c, 0, 72, 0
2, 1513243, Note_on_c, 0, 84, 0
2, 1513260, Note_on_c, 0, 85, 45
2, 1513260, Note_on_c, 0, 73, 59
2, 1513423, Note_on_c, 0, 73, 0
2, 1513423, Note_on_c, 0, 85, 0
2, 1513440, Note_on_c, 0, 87, 44
2, 1513440, Note_on_c, 0, 75, 55
2, 1513603, Note_on_c, 0, 75, 0
2, 1513603, Note_on_c, 0, 87, 0
2, 1513620, Note_on_c, 0, 89, 47
2, 1513620, Note_on_c, 0, 77, 57
2, 1513783, Note_on_c, 0, 77, 0
2, 1513783, Note_on_c, 0, 89, 0
2, 1513800, Note_on_c, 0, 87, 39
2, 1513800, Note_on_c, 0, 75, 49
2, 1513963, Note_on_c, 0, 75, 0
2, 1513963, Note_on_c, 0, 87, 0
2, 1513980, Note_on_c, 0, 89, 44
2, 1513980, Note_on_c, 0, 77, 54
2, 1514143, Note_on_c, 0, 77, 0
2, 1514143, Note_on_c, 0, 89, 0
2, 1514160, Note_on_c, 0, 83, 41
2, 1514160, Note_on_c, 0, 71, 47
2, 1514485, Note_on_c, 0, 71, 0
2, 1514485, Note_on_c, 0, 83, 0
2, 1514520, Note_on_c, 0, 81, 38
2, 1514520, Note_on_c, 0, 69, 48
2, 1514683, Note_on_c, 0, 69, 0
2, 1514683, Note_on_c, 0, 81, 0
2, 1514700, Note_on_c, 0, 83, 46
2, 1514700, Note_on_c, 0, 71, 58
2, 1514863, Note_on_c, 0, 71, 0
2, 1514863, Note_on_c, 0, 83, 0
2, 1514880, Note_on_c, 0, 84, 45
2, 1514880, Note_on_c, 0, 72, 55
2, 1515043, Note_on_c, 0, 72, 0
2, 1515043, Note_on_c, 0, 84, 0
2, 1515060, Note_on_c, 0, 86, 45
2, 1515060, Note_on_c, 0, 74, 56
2, 1515223, Note_on_c, 0, 74, 0
2, 1515223, Note_on_c, 0, 86, 0
2, 1515240, Note_on_c, 0, 86, 45
2, 1515240, Note_on_c, 0, 74, 58
2, 1515403, Note_on_c, 0, 74, 0
2, 1515403, Note_on_c, 0, 86, 0
2, 1515420, Note_on_c, 0, 87, 45
2, 1515420, Note_on_c, 0, 75, 55
2, 1515583, Note_on_c, 0, 75, 0
2, 1515583, Note_on_c, 0, 87, 0
2, 1515600, Note_on_c, 0, 89, 47
2, 1515600, Note_on_c, 0, 77, 58
2, 1515763, Note_on_c, 0, 77, 0
2, 1515763, Note_on_c, 0, 89, 0
2, 1515780, Note_on_c, 0, 91, 47
2, 1515780, Note_on_c, 0, 79, 57
2, 1515943, Note_on_c, 0, 79, 0
2, 1515943, Note_on_c, 0, 91, 0
2, 1515960, Note_on_c, 0, 89, 40
2, 1515960, Note_on_c, 0, 77, 51
2, 1516123, Note_on_c, 0, 77, 0
2, 1516123, Note_on_c, 0, 89, 0
2, 1516140, Note_on_c, 0, 91, 46
2, 1516140, Note_on_c, 0, 79, 56
2, 1516303, Note_on_c, 0, 79, 0
2, 1516303, Note_on_c, 0, 91, 0
2, 1516320, Note_on_c, 0, 85, 41
2, 1516320, Note_on_c, 0, 73, 48
2, 1516645, Note_on_c, 0, 73, 0
2, 1516645, Note_on_c, 0, 85, 0
2, 1516680, Note_on_c, 0, 84, 41
2, 1516680, Note_on_c, 0, 72, 49
2, 1516843, Note_on_c, 0, 72, 0
2, 1516843, Note_on_c, 0, 84, 0
2, 1516860, Note_on_c, 0, 85, 48
2, 1516860, Note_on_c, 0, 73, 58
2, 1517023, Note_on_c, 0, 73, 0
2, 1517023, Note_on_c, 0, 85, 0
2, 1517040, Note_on_c, 0, 86, 45
2, 1517040, Note_on_c, 0, 74, 57
2, 1517203, Note_on_c, 0, 74, 0
2, 1517203, Note_on_c, 0, 86, 0
2, 1517220, Note_on_c, 0, 88, 47
2, 1517220, Note_on_c, 0, 76, 57
2, 1517383, Note_on_c, 0, 76, 0
2, 1517383, Note_on_c, 0, 88, 0
2, 1517400, Note_on_c, 0, 88, 48
2, 1517400, Note_on_c, 0, 76, 55
2, 1517563, Note_on_c, 0, 76, 0
2, 1517563, Note_on_c, 0, 88, 0
2, 1517580, Note_on_c, 0, 89, 45
2, 1517580, Note_on_c, 0, 77, 55
2, 1517743, Note_on_c, 0, 77, 0
2, 1517743, Note_on_c, 0, 89, 0
2, 1517760, Note_on_c, 0, 91, 43
2, 1517760, Note_on_c, 0, 79, 57
2, 1517923, Note_on_c, 0, 79, 0
2, 1517923, Note_on_c, 0, 91, 0
2, 1517940, Note_on_c, 0, 92, 48
2, 1517940, Note_on_c, 0, 80, 58
2, 1518103, Note_on_c, 0, 80, 0
2, 1518103, Note_on_c, 0, 92, 0
2, 1518120, Note_on_c, 0, 91, 40
2, 1518120, Note_on_c, 0, 79, 49
2, 1518283, Note_on_c, 0, 79, 0
2, 1518283, Note_on_c, 0, 91, 0
2, 1518300, Note_on_c, 0, 92, 46
2, 1518300, Note_on_c, 0, 80, 56
2, 1518463, Note_on_c, 0, 80, 0
2, 1518463, Note_on_c, 0, 92, 0
2, 1518480, Note_on_c, 0, 87, 43
2, 1518480, Note_on_c, 0, 75, 51
2, 1518643, Note_on_c, 0, 75, 0
2, 1518643, Note_on_c, 0, 87, 0
2, 1518660, Note_on_c, 0, 86, 39
2, 1518660, Note_on_c, 0, 74, 48
2, 1518823, Note_on_c, 0, 74, 0
2, 1518823, Note_on_c, 0, 86, 0
2, 1518840, Note_on_c, 0, 87, 44
2, 1518840, Note_on_c, 0, 75, 54
2, 1519003, Note_on_c, 0, 75, 0
2, 1519003, Note_on_c, 0, 87, 0
2, 1519020, Note_on_c, 0, 89, 46
2, 1519020, Note_on_c, 0, 77, 58
2, 1519183, Note_on_c, 0, 77, 0
2, 1519183, Note_on_c, 0, 89, 0
2, 1519200, Note_on_c, 0, 87, 38
2, 1519200, Note_on_c, 0, 75, 48
2, 1519363, Note_on_c, 0, 75, 0
2, 1519363, Note_on_c, 0, 87, 0
2, 1519380, Note_on_c, 0, 89, 43
2, 1519380, Note_on_c, 0, 77, 55
2, 1519543, Note_on_c, 0, 77, 0
2, 1519543, Note_on_c, 0, 89, 0
2, 1519560, Note_on_c, 0, 91, 47
2, 1519560, Note_on_c, 0, 79, 58
2, 1519723, Note_on_c, 0, 79, 0
2, 1519723, Note_on_c, 0, 91, 0
2, 1519920, Note_on_c, 0, 80, 39
2, 1519920, Note_on_c, 0, 68, 48
2, 1520083, Note_on_c, 0, 68, 0
2, 1520083, Note_on_c, 0, 80, 0
2, 1520100, Note_on_c, 0, 79, 44
2, 1520100, Note_on_c, 0, 67, 52
2, 1520263, Note_on_c, 0, 67, 0
2, 1520263, Note_on_c, 0, 79, 0
2, 1520280, Note_on_c, 0, 80, 44
2, 1520280, Note_on_c, 0, 68, 53
2, 1520443, Note_on_c, 0, 68, 0
2, 1520443, Note_on_c, 0, 80, 0
2, 1520460, Note_on_c, 0, 79, 42
2, 1520460, Note_on_c, 0, 67, 51
2, 1520623, Note_on_c, 0, 67, 0
2, 1520623, Note_on_c, 0, 79, 0
2, 1520640, Note_on_c, 0, 72, 48
2, 1520640, Note_on_c, 0, 84, 49
2, 1520640, Note_on_c, 0, 60, 47
2, 1520803, Note_on_c, 0, 60, 0
2, 1520803, Note_on_c, 0, 72, 0
2, 1520803, Note_on_c, 0, 84, 0
2, 1521180, Note_on_c, 0, 60, 42
2, 1521180, Note_on_c, 0, 63, 42
2, 1521180, Note_on_c, 0, 68, 41
2, 1521180, Note_on_c, 0, 56, 49
2, 1521423, Note_on_c, 0, 56, 0
2, 1521423, Note_on_c, 0, 63, 0
2, 1521423, Note_on_c, 0, 60, 0
2, 1521423, Note_on_c, 0, 68, 0
2, 1521450, Note_on_c, 0, 70, 42
2, 1521450, Note_on_c, 0, 58, 54
2, 1521693, Note_on_c, 0, 58, 0
2, 1521693, Note_on_c, 0, 70, 0
2, 1521720, Note_on_c, 0, 60, 45
2, 1521720, Note_on_c, 0, 63, 44
2, 1521720, Note_on_c, 0, 67, 42
2, 1521720, Note_on_c, 0, 55, 52
2, 1522045, Note_on_c, 0, 55, 0
2, 1522045, Note_on_c, 0, 63, 0
2, 1522045, Note_on_c, 0, 60, 0
2, 1522045, Note_on_c, 0, 67, 0
2, 1522260, Note_on_c, 0, 59, 37
2, 1522260, Note_on_c, 0, 65, 38
2, 1522260, Note_on_c, 0, 67, 41
2, 1522260, Note_on_c, 0, 43, 46
2, 1522260, Note_on_c, 0, 55, 49
2, 1522437, Note_on_c, 0, 55, 0
2, 1522437, Note_on_c, 0, 67, 0
2, 1522437, Note_on_c, 0, 65, 0
2, 1522437, Note_on_c, 0, 59, 0
2, 1522437, Note_on_c, 0, 43, 0
2, 1522800, Note_on_c, 0, 60, 41
2, 1522800, Note_on_c, 0, 63, 41
2, 1522800, Note_on_c, 0, 72, 40
2, 1522800, Note_on_c, 0, 36, 49
2, 1522800, Note_on_c, 0, 48, 53
2, 1522977, Note_on_c, 0, 48, 0
2, 1522977, Note_on_c, 0, 72, 0
2, 1522977, Note_on_c, 0, 63, 0
2, 1522977, Note_on_c, 0, 60, 0
2, 1522977, Note_on_c, 0, 36, 0
2, 1523340, Note_on_c, 0, 60, 40
2, 1523340, Note_on_c, 0, 63, 43
2, 1523340, Note_on_c, 0, 68, 41
2, 1523340, Note_on_c, 0, 56, 50
2, 1523583, Note_on_c, 0, 56, 0
2, 1523583, Note_on_c, 0, 63, 0
2, 1523583, Note_on_c, 0, 60, 0
2, 1523583, Note_on_c, 0, 68, 0
2, 1523610, Note_on_c, 0, 70, 44
2, 1523610, Note_on_c, 0, 58, 54
2, 1523853, Note_on_c, 0, 58, 0
2, 1523853, Note_on_c, 0, 70, 0
2, 1523880, Note_on_c, 0, 60, 42
2, 1523880, Note_on_c, 0, 63, 45
2, 1523880, Note_on_c, 0, 67, 41
2, 1523880, Note_on_c, 0, 55, 54
2, 1524205, Note_on_c, 0, 55, 0
2, 1524205, Note_on_c, 0, 63, 0
2, 1524205, Note_on_c, 0, 60, 0
2, 1524205, Note_on_c, 0, 67, 0
2, 1524420, Note_on_c, 0, 59, 40
2, 1524420, Note_on_c, 0, 63, 43
2, 1524420, Note_on_c, 0, 65, 44
2, 1524420, Note_on_c, 0, 43, 50
2, 1524420, Note_on_c, 0, 50, 51
2, 1524554, Note_on_c, 0, 50, 0
2, 1524554, Note_on_c, 0, 65, 0
2, 1524554, Note_on_c, 0, 63, 0
2, 1524554, Note_on_c, 0, 59, 0
2, 1524554, Note_on_c, 0, 43, 0
2, 1524690, Note_on_c, 0, 59, 40
2, 1524690, Note_on_c, 0, 63, 42
2, 1524690, Note_on_c, 0, 65, 40
2, 1524690, Note_on_c, 0, 43, 51
2, 1524690, Note_on_c, 0, 50, 54
2, 1524824, Note_on_c, 0, 50, 0
2, 1524824, Note_on_c, 0, 65, 0
2, 1524824, Note_on_c, 0, 63, 0
2, 1524824, Note_on_c, 0, 59, 0
2, 1524824, Note_on_c, 0, 43, 0
2, 1524960, Note_on_c, 0, 60, 53
2, 1524960, Note_on_c, 0, 63, 54
2, 1524960, Note_on_c, 0, 72, 50
2, 1524960, Note_on_c, 0, 36, 54
2, 1524960, Note_on_c, 0, 48, 54
2, 1525285, Note_on_c, 0, 48, 0
2, 1525285, Note_on_c, 0, 72, 0
2, 1525285, Note_on_c, 0, 63, 0
2, 1525285, Note_on_c, 0, 60, 0
2, 1525285, Note_on_c, 0, 36, 0
2, 1525500, Note_on_c, 0, 56, 39
2, 1525500, Note_on_c, 0, 63, 41
2, 1525500, Note_on_c, 0, 66, 41
2, 1525500, Note_on_c, 0, 68, 40
2, 1525500, Note_on_c, 0, 36, 49
2, 1525500, Note_on_c, 0, 48, 49
2, 1525677, Note_on_c, 0, 48, 0
2, 1525677, Note_on_c, 0, 36, 0
2, 1525677, Note_on_c, 0, 66, 0
2, 1525677, Note_on_c, 0, 63, 0
2, 1525677, Note_on_c, 0, 56, 0
2, 1525677, Note_on_c, 0, 68, 0
2, 1526040, Note_on_c, 0, 56, 41
2, 1526040, Note_on_c, 0, 61, 44
2, 1526040, Note_on_c, 0, 65, 43
2, 1526040, Note_on_c, 0, 68, 41
2, 1526040, Note_on_c, 0, 37, 52
2, 1526040, Note_on_c, 0, 49, 52
2, 1526217, Note_on_c, 0, 68, 0
2, 1526217, Note_on_c, 0, 61, 0
2, 1526217, Note_on_c, 0, 56, 0
2, 1526217, Note_on_c, 0, 65, 0
2, 1526365, Note_on_c, 0, 37, 0
2, 1526365, Note_on_c, 0, 49, 0
2, 1526580, Note_on_c, 0, 56, 39
2, 1526580, Note_on_c, 0, 60, 37
2, 1526580, Note_on_c, 0, 63, 40
2, 1526580, Note_on_c, 0, 68, 39
2, 1526580, Note_on_c, 0, 39, 46
2, 1526580, Note_on_c, 0, 51, 47
2, 1526757, Note_on_c, 0, 51, 0
2, 1526757, Note_on_c, 0, 39, 0
2, 1526757, Note_on_c, 0, 63, 0
2, 1526757, Note_on_c, 0, 60, 0
2, 1526757, Note_on_c, 0, 56, 0
2, 1526757, Note_on_c, 0, 68, 0
2, 1527120, Note_on_c, 0, 56, 43
2, 1527120, Note_on_c, 0, 61, 42
2, 1527120, Note_on_c, 0, 68, 44
2, 1527120, Note_on_c, 0, 40, 52
2, 1527120, Note_on_c, 0, 52, 52
2, 1527297, Note_on_c, 0, 68, 0
2, 1527297, Note_on_c, 0, 61, 0
2, 1527297, Note_on_c, 0, 56, 0
2, 1527445, Note_on_c, 0, 40, 0
2, 1527445, Note_on_c, 0, 52, 0
2, 1527660, Note_on_c, 0, 56, 61
2, 1527660, Note_on_c, 0, 60, 62
2, 1527660, Note_on_c, 0, 62, 63
2, 1527660, Note_on_c, 0, 68, 60
2, 1527660, Note_on_c, 0, 41, 69
2, 1527660, Note_on_c, 0, 53, 69
2, 1528687, Note_on_c, 0, 53, 0
2, 1528687, Note_on_c, 0, 41, 0
2, 1528687, Note_on_c, 0, 62, 0
2, 1528687, Note_on_c, 0, 60, 0
2, 1528687, Note_on_c, 0, 56, 0
2, 1528687, Note_on_c, 0, 68, 0
2, 1528740, Note_on_c, 0, 59, 66
2, 1528740, Note_on_c, 0, 65, 66
2, 1528740, Note_on_c, 0, 67, 63
2, 1528740, Note_on_c, 0, 43, 82
2, 1528740, Note_on_c, 0, 55, 80
2, 1528917, Note_on_c, 0, 67, 0
2, 1528917, Note_on_c, 0, 65, 0
2, 1528917, Note_on_c, 0, 59, 0
2, 1529065, Note_on_c, 0, 43, 0
2, 1529065, Note_on_c, 0, 55, 0
2, 1529280, Note_on_c, 0, 60, 63
2, 1529280, Note_on_c, 0, 63, 64
2, 1529280, Note_on_c, 0, 72, 62
2, 1529280, Note_on_c, 0, 36, 71
2, 1529280, Note_on_c, 0, 48, 72
2, 1529457, Note_on_c, 0, 48, 0
2, 1529457, Note_on_c, 0, 72, 0
2, 1529457, Note_on_c, 0, 63, 0
2, 1529457, Note_on_c, 0, 60, 0
2, 1529457, Note_on_c, 0, 36, 0
2, 1529820, Note_on_c, 0, 96, 41
2, 1529820, Note_on_c, 0, 72, 53
2, 1529983, Note_on_c, 0, 72, 0
2, 1529983, Note_on_c, 0, 96, 0
2, 1530000, Note_on_c, 0, 95, 40
2, 1530000, Note_on_c, 0, 71, 50
2, 1530163, Note_on_c, 0, 71, 0
2, 1530163, Note_on_c, 0, 95, 0
2, 1530180, Note_on_c, 0, 96, 45
2, 1530180, Note_on_c, 0, 72, 52
2, 1530343, Note_on_c, 0, 72, 0
2, 1530343, Note_on_c, 0, 96, 0
2, 1530360, Note_on_c, 0, 99, 50
2, 1530360, Note_on_c, 0, 79, 66
2, 1530523, Note_on_c, 0, 79, 0
2, 1530523, Note_on_c, 0, 99, 0
2, 1530540, Note_on_c, 0, 98, 42
2, 1530540, Note_on_c, 0, 77, 51
2, 1530703, Note_on_c, 0, 77, 0
2, 1530703, Note_on_c, 0, 98, 0
2, 1530720, Note_on_c, 0, 96, 40
2, 1530720, Note_on_c, 0, 75, 50
2, 1530883, Note_on_c, 0, 75, 0
2, 1530883, Note_on_c, 0, 96, 0
2, 1530900, Note_on_c, 0, 93, 41
2, 1530900, Note_on_c, 0, 77, 60
2, 1531063, Note_on_c, 0, 77, 0
2, 1531063, Note_on_c, 0, 93, 0
2, 1531080, Note_on_c, 0, 95, 44
2, 1531080, Note_on_c, 0, 75, 49
2, 1531243, Note_on_c, 0, 75, 0
2, 1531243, Note_on_c, 0, 95, 0
2, 1531260, Note_on_c, 0, 98, 44
2, 1531260, Note_on_c, 0, 74, 49
2, 1531423, Note_on_c, 0, 74, 0
2, 1531423, Note_on_c, 0, 98, 0
2, 1531440, Note_on_c, 0, 96, 44
2, 1531440, Note_on_c, 0, 72, 58
2, 1531440, Note_on_c, 0, 75, 55
2, 1531603, Note_on_c, 0, 75, 0
2, 1531603, Note_on_c, 0, 96, 0
2, 1531603, Note_on_c, 0, 72, 0
2, 1531800, Note_on_c, 0, 91, 38
2, 1531800, Note_on_c, 0, 67, 47
2, 1531963, Note_on_c, 0, 67, 0
2, 1531963, Note_on_c, 0, 91, 0
2, 1531980, Note_on_c, 0, 96, 51
2, 1531980, Note_on_c, 0, 72, 62
2, 1532143, Note_on_c, 0, 72, 0
2, 1532143, Note_on_c, 0, 96, 0
2, 1532160, Note_on_c, 0, 95, 43
2, 1532160, Note_on_c, 0, 71, 51
2, 1532323, Note_on_c, 0, 71, 0
2, 1532323, Note_on_c, 0, 95, 0
2, 1532340, Note_on_c, 0, 96, 43
2, 1532340, Note_on_c, 0, 72, 56
2, 1532503, Note_on_c, 0, 72, 0
2, 1532503, Note_on_c, 0, 96, 0
2, 1532520, Note_on_c, 0, 99, 47
2, 1532520, Note_on_c, 0, 79, 65
2, 1532683, Note_on_c, 0, 79, 0
2, 1532683, Note_on_c, 0, 99, 0
2, 1532700, Note_on_c, 0, 98, 43
2, 1532700, Note_on_c, 0, 77, 52
2, 1532863, Note_on_c, 0, 77, 0
2, 1532863, Note_on_c, 0, 98, 0
2, 1532880, Note_on_c, 0, 96, 42
2, 1532880, Note_on_c, 0, 75, 49
2, 1533043, Note_on_c, 0, 75, 0
2, 1533043, Note_on_c, 0, 96, 0
2, 1533060, Note_on_c, 0, 93, 43
2, 1533060, Note_on_c, 0, 77, 58
2, 1533223, Note_on_c, 0, 77, 0
2, 1533223, Note_on_c, 0, 93, 0
2, 1533240, Note_on_c, 0, 95, 42
2, 1533240, Note_on_c, 0, 75, 48
2, 1533403, Note_on_c, 0, 75, 0
2, 1533403, Note_on_c, 0, 95, 0
2, 1533420, Note_on_c, 0, 98, 47
2, 1533420, Note_on_c, 0, 74, 51
2, 1533583, Note_on_c, 0, 74, 0
2, 1533583, Note_on_c, 0, 98, 0
2, 1533600, Note_on_c, 0, 96, 43
2, 1533600, Note_on_c, 0, 72, 55
2, 1533600, Note_on_c, 0, 75, 55
2, 1533763, Note_on_c, 0, 75, 0
2, 1533763, Note_on_c, 0, 96, 0
2, 1533763, Note_on_c, 0, 72, 0
2, 1534140, Note_on_c, 0, 68, 49
2, 1534140, Note_on_c, 0, 72, 46
2, 1534320, Note_on_c, 0, 84, 40
2, 1534320, Note_on_c, 0, 92, 39
2, 1534465, Note_on_c, 0, 72, 0
2, 1534465, Note_on_c, 0, 68, 0
2, 1534483, Note_on_c, 0, 84, 0
2, 1534483, Note_on_c, 0, 92, 0
2, 1534500, Note_on_c, 0, 80, 31
2, 1534663, Note_on_c, 0, 80, 0
2, 1534680, Note_on_c, 0, 68, 51
2, 1534680, Note_on_c, 0, 73, 52
2, 1534860, Note_on_c, 0, 85, 39
2, 1534860, Note_on_c, 0, 92, 38
2, 1535005, Note_on_c, 0, 73, 0
2, 1535005, Note_on_c, 0, 68, 0
2, 1535023, Note_on_c, 0, 85, 0
2, 1535023, Note_on_c, 0, 92, 0
2, 1535040, Note_on_c, 0, 80, 31
2, 1535203, Note_on_c, 0, 80, 0
2, 1535220, Note_on_c, 0, 69, 49
2, 1535220, Note_on_c, 0, 73, 49
2, 1535400, Note_on_c, 0, 85, 40
2, 1535400, Note_on_c, 0, 93, 37
2, 1535545, Note_on_c, 0, 73, 0
2, 1535545, Note_on_c, 0, 69, 0
2, 1535563, Note_on_c, 0, 85, 0
2, 1535563, Note_on_c, 0, 93, 0
2, 1535580, Note_on_c, 0, 81, 32
2, 1535743, Note_on_c, 0, 81, 0
2, 1535760, Note_on_c, 0, 69, 52
2, 1535760, Note_on_c, 0, 73, 52
2, 1535940, Note_on_c, 0, 85, 39
2, 1535940, Note_on_c, 0, 93, 39
2, 1536085, Note_on_c, 0, 73, 0
2, 1536085, Note_on_c, 0, 69, 0
2, 1536103, Note_on_c, 0, 85, 0
2, 1536103, Note_on_c, 0, 93, 0
2, 1536120, Note_on_c, 0, 81, 33
2, 1536283, Note_on_c, 0, 81, 0
2, 1536300, Note_on_c, 0, 80, 68
2, 1536480, Note_on_c, 0, 104, 61
2, 1536625, Note_on_c, 0, 80, 0
2, 1536643, Note_on_c, 0, 104, 0
2, 1536660, Note_on_c, 0, 92, 31
2, 1536823, Note_on_c, 0, 92, 0
2, 1536840, Note_on_c, 0, 68, 73
2, 1537020, Note_on_c, 0, 92, 60
2, 1537165, Note_on_c, 0, 68, 0
2, 1537183, Note_on_c, 0, 92, 0
2, 1537200, Note_on_c, 0, 80, 32
2, 1537363, Note_on_c, 0, 80, 0
2, 1537380, Note_on_c, 0, 55, 69
2, 1537380, Note_on_c, 0, 62, 68
2, 1537380, Note_on_c, 0, 65, 70
2, 1537380, Note_on_c, 0, 67, 71
2, 1537560, Note_on_c, 0, 83, 61
2, 1537560, Note_on_c, 0, 91, 61
2, 1537705, Note_on_c, 0, 67, 0
2, 1537705, Note_on_c, 0, 62, 0
2, 1537705, Note_on_c, 0, 55, 0
2, 1537705, Note_on_c, 0, 65, 0
2, 1537723, Note_on_c, 0, 83, 0
2, 1537723, Note_on_c, 0, 91, 0
2, 1537740, Note_on_c, 0, 79, 49
2, 1537903, Note_on_c, 0, 79, 0
2, 1537920, Note_on_c, 0, 84, 87
2, 1537920, Note_on_c, 0, 87, 84
2, 1537920, Note_on_c, 0, 91, 87
2, 1537920, Note_on_c, 0, 96, 85
2, 1537920, Note_on_c, 0, 60, 74
2, 1537920, Note_on_c, 0, 63, 72
2, 1537920, Note_on_c, 0, 67, 71
2, 1538245, Note_on_c, 0, 67, 0
2, 1538245, Note_on_c, 0, 84, 0
2, 1538245, Note_on_c, 0, 63, 0
2, 1538245, Note_on_c, 0, 87, 0
2, 1538245, Note_on_c, 0, 91, 0
2, 1538245, Note_on_c, 0, 60, 0
2, 1538245, Note_on_c, 0, 96, 0
2, 1538460, Note_on_c, 0, 55, 69
2, 1538460, Note_on_c, 0, 60, 72
2, 1538460, Note_on_c, 0, 63, 69
2, 1538460, Note_on_c, 0, 67, 70
2, 1538640, Note_on_c, 0, 84, 37
2, 1538640, Note_on_c, 0, 87, 37
2, 1538640, Note_on_c, 0, 91, 41
2, 1538785, Note_on_c, 0, 67, 0
2, 1538785, Note_on_c, 0, 60, 0
2, 1538785, Note_on_c, 0, 55, 0
2, 1538785, Note_on_c, 0, 63, 0
2, 1538803, Note_on_c, 0, 91, 0
2, 1538803, Note_on_c, 0, 87, 0
2, 1538803, Note_on_c, 0, 84, 0
2, 1538820, Note_on_c, 0, 79, 33
2, 1538983, Note_on_c, 0, 79, 0
2, 1539000, Note_on_c, 0, 56, 50
2, 1539000, Note_on_c, 0, 60, 52
2, 1539000, Note_on_c, 0, 65, 52
2, 1539000, Note_on_c, 0, 68, 50
2, 1539180, Note_on_c, 0, 84, 40
2, 1539180, Note_on_c, 0, 89, 41
2, 1539180, Note_on_c, 0, 92, 38
2, 1539325, Note_on_c, 0, 68, 0
2, 1539325, Note_on_c, 0, 60, 0
2, 1539325, Note_on_c, 0, 56, 0
2, 1539325, Note_on_c, 0, 65, 0
2, 1539343, Note_on_c, 0, 92, 0
2, 1539343, Note_on_c, 0, 89, 0
2, 1539343, Note_on_c, 0, 84, 0
2, 1539360, Note_on_c, 0, 80, 32
2, 1539523, Note_on_c, 0, 80, 0
2, 1539540, Note_on_c, 0, 58, 47
2, 1539540, Note_on_c, 0, 60, 48
2, 1539540, Note_on_c, 0, 67, 46
2, 1539540, Note_on_c, 0, 70, 49
2, 1539720, Note_on_c, 0, 84, 40
2, 1539720, Note_on_c, 0, 91, 39
2, 1539720, Note_on_c, 0, 94, 41
2, 1539865, Note_on_c, 0, 70, 0
2, 1539865, Note_on_c, 0, 60, 0
2, 1539865, Note_on_c, 0, 58, 0
2, 1539865, Note_on_c, 0, 67, 0
2, 1539883, Note_on_c, 0, 91, 0
2, 1539883, Note_on_c, 0, 94, 0
2, 1539883, Note_on_c, 0, 84, 0
2, 1539900, Note_on_c, 0, 82, 31
2, 1540063, Note_on_c, 0, 82, 0
2, 1540080, Note_on_c, 0, 55, 50
2, 1540080, Note_on_c, 0, 60, 51
2, 1540080, Note_on_c, 0, 63, 49
2, 1540080, Note_on_c, 0, 67, 50
2, 1540260, Note_on_c, 0, 84, 41
2, 1540260, Note_on_c, 0, 87, 41
2, 1540260, Note_on_c, 0, 91, 40
2, 1540405, Note_on_c, 0, 67, 0
2, 1540405, Note_on_c, 0, 60, 0
2, 1540405, Note_on_c, 0, 55, 0
2, 1540405, Note_on_c, 0, 63, 0
2, 1540423, Note_on_c, 0, 91, 0
2, 1540423, Note_on_c, 0, 87, 0
2, 1540423, Note_on_c, 0, 84, 0
2, 1540440, Note_on_c, 0, 79, 32
2, 1540603, Note_on_c, 0, 79, 0
2, 1540620, Note_on_c, 0, 51, 49
2, 1540620, Note_on_c, 0, 55, 48
2, 1540620, Note_on_c, 0, 60, 46
2, 1540620, Note_on_c, 0, 63, 48
2, 1540800, Note_on_c, 0, 79, 39
2, 1540800, Note_on_c, 0, 84, 41
2, 1540800, Note_on_c, 0, 87, 37
2, 1540945, Note_on_c, 0, 63, 0
2, 1540945, Note_on_c, 0, 55, 0
2, 1540945, Note_on_c, 0, 51, 0
2, 1540945, Note_on_c, 0, 60, 0
2, 1540963, Note_on_c, 0, 87, 0
2, 1540963, Note_on_c, 0, 84, 0
2, 1540963, Note_on_c, 0, 79, 0
2, 1540980, Note_on_c, 0, 75, 31
2, 1541143, Note_on_c, 0, 75, 0
2, 1541160, Note_on_c, 0, 48, 51
2, 1541160, Note_on_c, 0, 51, 52
2, 1541160, Note_on_c, 0, 55, 49
2, 1541160, Note_on_c, 0, 60, 50
2, 1541340, Note_on_c, 0, 75, 38
2, 1541340, Note_on_c, 0, 79, 41
2, 1541340, Note_on_c, 0, 84, 41
2, 1541485, Note_on_c, 0, 60, 0
2, 1541485, Note_on_c, 0, 51, 0
2, 1541485, Note_on_c, 0, 48, 0
2, 1541485, Note_on_c, 0, 55, 0
2, 1541503, Note_on_c, 0, 84, 0
2, 1541503, Note_on_c, 0, 79, 0
2, 1541503, Note_on_c, 0, 75, 0
2, 1541520, Note_on_c, 0, 72, 34
2, 1541683, Note_on_c, 0, 72, 0
2, 1541700, Note_on_c, 0, 44, 48
2, 1541700, Note_on_c, 0, 48, 49
2, 1541700, Note_on_c, 0, 51, 50
2, 1541700, Note_on_c, 0, 56, 48
2, 1541880, Note_on_c, 0, 72, 37
2, 1541880, Note_on_c, 0, 75, 40
2, 1541880, Note_on_c, 0, 80, 38
2, 1542025, Note_on_c, 0, 56, 0
2, 1542025, Note_on_c, 0, 48, 0
2, 1542025, Note_on_c, 0, 44, 0
2, 1542025, Note_on_c, 0, 51, 0
2, 1542043, Note_on_c, 0, 80, 0
2, 1542043, Note_on_c, 0, 75, 0
2, 1542043, Note_on_c, 0, 72, 0
2, 1542060, Note_on_c, 0, 68, 30
2, 1542223, Note_on_c, 0, 68, 0
2, 1542240, Note_on_c, 0, 43, 51
2, 1542240, Note_on_c, 0, 48, 53
2, 1542240, Note_on_c, 0, 51, 51
2, 1542240, Note_on_c, 0, 55, 50
2, 1542420, Note_on_c, 0, 72, 38
2, 1542420, Note_on_c, 0, 75, 37
2, 1542420, Note_on_c, 0, 79, 40
2, 1542565, Note_on_c, 0, 55, 0
2, 1542565, Note_on_c, 0, 48, 0
2, 1542565, Note_on_c, 0, 43, 0
2, 1542565, Note_on_c, 0, 51, 0
2, 1542583, Note_on_c, 0, 79, 0
2, 1542583, Note_on_c, 0, 75, 0
2, 1542583, Note_on_c, 0, 72, 0
2, 1542600, Note_on_c, 0, 67, 33
2, 1542763, Note_on_c, 0, 67, 0
2, 1542780, Note_on_c, 0, 43, 46
2, 1542780, Note_on_c, 0, 48, 48
2, 1542780, Note_on_c, 0, 51, 47
2, 1542780, Note_on_c, 0, 55, 46
2, 1542960, Note_on_c, 0, 72, 37
2, 1542960, Note_on_c, 0, 75, 37
2, 1542960, Note_on_c, 0, 79, 38
2, 1543105, Note_on_c, 0, 55, 0
2, 1543105, Note_on_c, 0, 48, 0
2, 1543105, Note_on_c, 0, 43, 0
2, 1543105, Note_on_c, 0, 51, 0
2, 1543123, Note_on_c, 0, 79, 0
2, 1543123, Note_on_c, 0, 75, 0
2, 1543123, Note_on_c, 0, 72, 0
2, 1543140, Note_on_c, 0, 67, 30
2, 1543303, Note_on_c, 0, 67, 0
2, 1543320, Note_on_c, 0, 44, 50
2, 1543320, Note_on_c, 0, 48, 51
2, 1543320, Note_on_c, 0, 53, 52
2, 1543320, Note_on_c, 0, 56, 51
2, 1543500, Note_on_c, 0, 72, 38
2, 1543500, Note_on_c, 0, 77, 39
2, 1543500, Note_on_c, 0, 80, 39
2, 1543645, Note_on_c, 0, 56, 0
2, 1543645, Note_on_c, 0, 48, 0
2, 1543645, Note_on_c, 0, 44, 0
2, 1543645, Note_on_c, 0, 53, 0
2, 1543663, Note_on_c, 0, 80, 0
2, 1543663, Note_on_c, 0, 77, 0
2, 1543663, Note_on_c, 0, 72, 0
2, 1543680, Note_on_c, 0, 68, 31
2, 1543843, Note_on_c, 0, 68, 0
2, 1543860, Note_on_c, 0, 46, 50
2, 1543860, Note_on_c, 0, 48, 46
2, 1543860, Note_on_c, 0, 55, 49
2, 1543860, Note_on_c, 0, 58, 48
2, 1544040, Note_on_c, 0, 72, 38
2, 1544040, Note_on_c, 0, 79, 41
2, 1544040, Note_on_c, 0, 82, 39
2, 1544185, Note_on_c, 0, 58, 0
2, 1544185, Note_on_c, 0, 48, 0
2, 1544185, Note_on_c, 0, 46, 0
2, 1544185, Note_on_c, 0, 55, 0
2, 1544203, Note_on_c, 0, 82, 0
2, 1544203, Note_on_c, 0, 79, 0
2, 1544203, Note_on_c, 0, 72, 0
2, 1544220, Note_on_c, 0, 70, 30
2, 1544383, Note_on_c, 0, 70, 0
2, 1544400, Note_on_c, 0, 43, 50
2, 1544400, Note_on_c, 0, 48, 52
2, 1544400, Note_on_c, 0, 51, 52
2, 1544400, Note_on_c, 0, 55, 53
2, 1544580, Note_on_c, 0, 72, 38
2, 1544580, Note_on_c, 0, 75, 39
2, 1544580, Note_on_c, 0, 79, 38
2, 1544725, Note_on_c, 0, 55, 0
2, 1544725, Note_on_c, 0, 48, 0
2, 1544725, Note_on_c, 0, 43, 0
2, 1544725, Note_on_c, 0, 51, 0
2, 1544743, Note_on_c, 0, 79, 0
2, 1544743, Note_on_c, 0, 75, 0
2, 1544743, Note_on_c, 0, 72, 0
2, 1544760, Note_on_c, 0, 67, 32
2, 1544923, Note_on_c, 0, 67, 0
2, 1544940, Note_on_c, 0, 43, 46
2, 1544940, Note_on_c, 0, 48, 47
2, 1544940, Note_on_c, 0, 51, 49
2, 1545120, Note_on_c, 0, 67, 38
2, 1545120, Note_on_c, 0, 72, 39
2, 1545120, Note_on_c, 0, 75, 39
2, 1545265, Note_on_c, 0, 51, 0
2, 1545265, Note_on_c, 0, 48, 0
2, 1545265, Note_on_c, 0, 43, 0
2, 1545283, Note_on_c, 0, 67, 0
2, 1545283, Note_on_c, 0, 75, 0
2, 1545283, Note_on_c, 0, 72, 0
2, 1545300, Note_on_c, 0, 63, 32
2, 1545463, Note_on_c, 0, 63, 0
2, 1545480, Note_on_c, 0, 43, 50
2, 1545480, Note_on_c, 0, 48, 49
2, 1545480, Note_on_c, 0, 51, 51
2, 1545660, Note_on_c, 0, 63, 39
2, 1545660, Note_on_c, 0, 67, 40
2, 1545660, Note_on_c, 0, 72, 40
2, 1545805, Note_on_c, 0, 51, 0
2, 1545805, Note_on_c, 0, 48, 0
2, 1545805, Note_on_c, 0, 43, 0
2, 1545823, Note_on_c, 0, 63, 0
2, 1545823, Note_on_c, 0, 72, 0
2, 1545823, Note_on_c, 0, 67, 0
2, 1545840, Note_on_c, 0, 60, 31
2, 1546003, Note_on_c, 0, 60, 0
2, 1546020, Note_on_c, 0, 44, 49
2, 1546020, Note_on_c, 0, 48, 49
2, 1546020, Note_on_c, 0, 51, 49
2, 1546200, Note_on_c, 0, 60, 39
2, 1546200, Note_on_c, 0, 63, 39
2, 1546200, Note_on_c, 0, 68, 40
2, 1546345, Note_on_c, 0, 51, 0
2, 1546345, Note_on_c, 0, 48, 0
2, 1546345, Note_on_c, 0, 44, 0
2, 1546363, Note_on_c, 0, 60, 0
2, 1546363, Note_on_c, 0, 68, 0
2, 1546363, Note_on_c, 0, 63, 0
2, 1546380, Note_on_c, 0, 56, 31
2, 1546543, Note_on_c, 0, 56, 0
2, 1546560, Note_on_c, 0, 43, 50
2, 1546560, Note_on_c, 0, 48, 53
2, 1546560, Note_on_c, 0, 51, 51
2, 1546740, Note_on_c, 0, 60, 38
2, 1546740, Note_on_c, 0, 63, 38
2, 1546740, Note_on_c, 0, 67, 40
2, 1546885, Note_on_c, 0, 51, 0
2, 1546885, Note_on_c, 0, 48, 0
2, 1546885, Note_on_c, 0, 43, 0
2, 1546903, Note_on_c, 0, 60, 0
2, 1546903, Note_on_c, 0, 67, 0
2, 1546903, Note_on_c, 0, 63, 0
2, 1546920, Note_on_c, 0, 55, 32
2, 1547083, Note_on_c, 0, 55, 0
2, 1547100, Note_on_c, 0, 43, 47
2, 1547100, Note_on_c, 0, 48, 50
2, 1547100, Note_on_c, 0, 51, 49
2, 1547280, Note_on_c, 0, 60, 41
2, 1547280, Note_on_c, 0, 63, 38
2, 1547280, Note_on_c, 0, 67, 39
2, 1547425, Note_on_c, 0, 51, 0
2, 1547425, Note_on_c, 0, 48, 0
2, 1547425, Note_on_c, 0, 43, 0
2, 1547443, Note_on_c, 0, 60, 0
2, 1547443, Note_on_c, 0, 67, 0
2, 1547443, Note_on_c, 0, 63, 0
2, 1547460, Note_on_c, 0, 55, 33
2, 1547623, Note_on_c, 0, 55, 0
2, 1547640, Note_on_c, 0, 44, 52
2, 1547640, Note_on_c, 0, 48, 52
2, 1547640, Note_on_c, 0, 51, 51
2, 1547820, Note_on_c, 0, 60, 38
2, 1547820, Note_on_c, 0, 63, 41
2, 1547820, Note_on_c, 0, 68, 39
2, 1547965, Note_on_c, 0, 51, 0
2, 1547965, Note_on_c, 0, 48, 0
2, 1547965, Note_on_c, 0, 44, 0
2, 1547983, Note_on_c, 0, 60, 0
2, 1547983, Note_on_c, 0, 68, 0
2, 1547983, Note_on_c, 0, 63, 0
2, 1548000, Note_on_c, 0, 56, 33
2, 1548163, Note_on_c, 0, 56, 0
2, 1548180, Note_on_c, 0, 46, 48
2, 1548180, Note_on_c, 0, 48, 48
2, 1548180, Note_on_c, 0, 51, 47
2, 1548360, Note_on_c, 0, 60, 41
2, 1548360, Note_on_c, 0, 63, 40
2, 1548360, Note_on_c, 0, 70, 40
2, 1548505, Note_on_c, 0, 51, 0
2, 1548505, Note_on_c, 0, 48, 0
2, 1548505, Note_on_c, 0, 46, 0
2, 1548523, Note_on_c, 0, 60, 0
2, 1548523, Note_on_c, 0, 70, 0
2, 1548523, Note_on_c, 0, 63, 0
2, 1548540, Note_on_c, 0, 58, 34
2, 1548703, Note_on_c, 0, 58, 0
2, 1548720, Note_on_c, 0, 43, 51
2, 1548720, Note_on_c, 0, 48, 53
2, 1548720, Note_on_c, 0, 51, 49
2, 1548900, Note_on_c, 0, 60, 38
2, 1548900, Note_on_c, 0, 63, 37
2, 1548900, Note_on_c, 0, 67, 39
2, 1549045, Note_on_c, 0, 51, 0
2, 1549045, Note_on_c, 0, 48, 0
2, 1549045, Note_on_c, 0, 43, 0
2, 1549063, Note_on_c, 0, 60, 0
2, 1549063, Note_on_c, 0, 67, 0
2, 1549063, Note_on_c, 0, 63, 0
2, 1549080, Note_on_c, 0, 55, 34
2, 1549243, Note_on_c, 0, 55, 0
2, 1549260, Note_on_c, 0, 43, 47
2, 1549260, Note_on_c, 0, 48, 47
2, 1549260, Note_on_c, 0, 51, 48
2, 1549440, Note_on_c, 0, 60, 40
2, 1549440, Note_on_c, 0, 63, 41
2, 1549440, Note_on_c, 0, 67, 38
2, 1549585, Note_on_c, 0, 51, 0
2, 1549585, Note_on_c, 0, 48, 0
2, 1549585, Note_on_c, 0, 43, 0
2, 1549603, Note_on_c, 0, 60, 0
2, 1549603, Note_on_c, 0, 67, 0
2, 1549603, Note_on_c, 0, 63, 0
2, 1549620, Note_on_c, 0, 55, 32
2, 1549783, Note_on_c, 0, 55, 0
2, 1549800, Note_on_c, 0, 44, 50
2, 1549800, Note_on_c, 0, 48, 50
2, 1549800, Note_on_c, 0, 51, 51
2, 1549980, Note_on_c, 0, 60, 38
2, 1549980, Note_on_c, 0, 63, 38
2, 1549980, Note_on_c, 0, 68, 39
2, 1550125, Note_on_c, 0, 51, 0
2, 1550125, Note_on_c, 0, 48, 0
2, 1550125, Note_on_c, 0, 44, 0
2, 1550143, Note_on_c, 0, 60, 0
2, 1550143, Note_on_c, 0, 68, 0
2, 1550143, Note_on_c, 0, 63, 0
2, 1550160, Note_on_c, 0, 56, 32
2, 1550323, Note_on_c, 0, 56, 0
2, 1550340, Note_on_c, 0, 46, 49
2, 1550340, Note_on_c, 0, 48, 50
2, 1550340, Note_on_c, 0, 51, 47
2, 1550520, Note_on_c, 0, 60, 39
2, 1550520, Note_on_c, 0, 63, 40
2, 1550520, Note_on_c, 0, 70, 38
2, 1550665, Note_on_c, 0, 51, 0
2, 1550665, Note_on_c, 0, 48, 0
2, 1550665, Note_on_c, 0, 46, 0
2, 1550683, Note_on_c, 0, 60, 0
2, 1550683, Note_on_c, 0, 70, 0
2, 1550683, Note_on_c, 0, 63, 0
2, 1550700, Note_on_c, 0, 58, 31
2, 1550863, Note_on_c, 0, 58, 0
2, 1550880, Note_on_c, 0, 43, 49
2, 1550880, Note_on_c, 0, 48, 50
2, 1550880, Note_on_c, 0, 51, 51
2, 1551060, Note_on_c, 0, 60, 37
2, 1551060, Note_on_c, 0, 63, 39
2, 1551060, Note_on_c, 0, 67, 40
2, 1551205, Note_on_c, 0, 51, 0
2, 1551205, Note_on_c, 0, 48, 0
2, 1551205, Note_on_c, 0, 43, 0
2, 1551223, Note_on_c, 0, 60, 0
2, 1551223, Note_on_c, 0, 67, 0
2, 1551223, Note_on_c, 0, 63, 0
2, 1551240, Note_on_c, 0, 55, 32
2, 1551403, Note_on_c, 0, 55, 0
2, 1551420, Note_on_c, 0, 44, 48
2, 1551420, Note_on_c, 0, 48, 48
2, 1551420, Note_on_c, 0, 51, 50
2, 1551600, Note_on_c, 0, 60, 41
2, 1551600, Note_on_c, 0, 63, 39
2, 1551600, Note_on_c, 0, 68, 38
2, 1551745, Note_on_c, 0, 51, 0
2, 1551745, Note_on_c, 0, 48, 0
2, 1551745, Note_on_c, 0, 44, 0
2, 1551763, Note_on_c, 0, 60, 0
2, 1551763, Note_on_c, 0, 68, 0
2, 1551763, Note_on_c, 0, 63, 0
2, 1551780, Note_on_c, 0, 56, 32
2, 1551943, Note_on_c, 0, 56, 0
2, 1551960, Note_on_c, 0, 43, 50
2, 1551960, Note_on_c, 0, 48, 50
2, 1551960, Note_on_c, 0, 51, 51
2, 1552140, Note_on_c, 0, 60, 38
2, 1552140, Note_on_c, 0, 63, 41
2, 1552140, Note_on_c, 0, 67, 39
2, 1552285, Note_on_c, 0, 51, 0
2, 1552285, Note_on_c, 0, 48, 0
2, 1552285, Note_on_c, 0, 43, 0
2, 1552303, Note_on_c, 0, 60, 0
2, 1552303, Note_on_c, 0, 67, 0
2, 1552303, Note_on_c, 0, 63, 0
2, 1552320, Note_on_c, 0, 55, 31
2, 1552483, Note_on_c, 0, 55, 0
2, 1552500, Note_on_c, 0, 44, 50
2, 1552500, Note_on_c, 0, 48, 47
2, 1552500, Note_on_c, 0, 51, 46
2, 1552680, Note_on_c, 0, 60, 39
2, 1552680, Note_on_c, 0, 63, 39
2, 1552680, Note_on_c, 0, 68, 39
2, 1552825, Note_on_c, 0, 51, 0
2, 1552825, Note_on_c, 0, 48, 0
2, 1552825, Note_on_c, 0, 44, 0
2, 1552843, Note_on_c, 0, 60, 0
2, 1552843, Note_on_c, 0, 68, 0
2, 1552843, Note_on_c, 0, 63, 0
2, 1552860, Note_on_c, 0, 56, 34
2, 1553023, Note_on_c, 0, 56, 0
2, 1553040, Note_on_c, 0, 43, 51
2, 1553040, Note_on_c, 0, 48, 50
2, 1553040, Note_on_c, 0, 51, 51
2, 1553220, Note_on_c, 0, 60, 40
2, 1553220, Note_on_c, 0, 63, 39
2, 1553220, Note_on_c, 0, 67, 37
2, 1553365, Note_on_c, 0, 51, 0
2, 1553365, Note_on_c, 0, 48, 0
2, 1553365, Note_on_c, 0, 43, 0
2, 1553383, Note_on_c, 0, 60, 0
2, 1553383, Note_on_c, 0, 67, 0
2, 1553383, Note_on_c, 0, 63, 0
2, 1553400, Note_on_c, 0, 55, 33
2, 1553563, Note_on_c, 0, 55, 0
2, 1553580, Note_on_c, 0, 44, 47
2, 1553580, Note_on_c, 0, 48, 48
2, 1553580, Note_on_c, 0, 51, 49
2, 1553760, Note_on_c, 0, 60, 39
2, 1553760, Note_on_c, 0, 63, 37
2, 1553760, Note_on_c, 0, 68, 38
2, 1553905, Note_on_c, 0, 51, 0
2, 1553905, Note_on_c, 0, 48, 0
2, 1553905, Note_on_c, 0, 44, 0
2, 1553923, Note_on_c, 0, 60, 0
2, 1553923, Note_on_c, 0, 68, 0
2, 1553923, Note_on_c, 0, 63, 0
2, 1553940, Note_on_c, 0, 56, 31
2, 1554103, Note_on_c, 0, 56, 0
2, 1554120, Note_on_c, 0, 43, 50
2, 1554120, Note_on_c, 0, 48, 53
2, 1554120, Note_on_c, 0, 51, 49
2, 1554300, Note_on_c, 0, 60, 40
2, 1554300, Note_on_c, 0, 63, 39
2, 1554300, Note_on_c, 0, 67, 39
2, 1554445, Note_on_c, 0, 51, 0
2, 1554445, Note_on_c, 0, 48, 0
2, 1554445, Note_on_c, 0, 43, 0
2, 1554463, Note_on_c, 0, 60, 0
2, 1554463, Note_on_c, 0, 67, 0
2, 1554463, Note_on_c, 0, 63, 0
2, 1554480, Note_on_c, 0, 55, 32
2, 1554643, Note_on_c, 0, 55, 0
2, 1554660, Note_on_c, 0, 44, 47
2, 1554660, Note_on_c, 0, 48, 49
2, 1554660, Note_on_c, 0, 51, 48
2, 1554840, Note_on_c, 0, 60, 40
2, 1554840, Note_on_c, 0, 63, 39
2, 1554840, Note_on_c, 0, 68, 37
2, 1554985, Note_on_c, 0, 51, 0
2, 1554985, Note_on_c, 0, 48, 0
2, 1554985, Note_on_c, 0, 44, 0
2, 1555003, Note_on_c, 0, 60, 0
2, 1555003, Note_on_c, 0, 68, 0
2, 1555003, Note_on_c, 0, 63, 0
2, 1555020, Note_on_c, 0, 56, 34
2, 1555183, Note_on_c, 0, 56, 0
2, 1555200, Note_on_c, 0, 55, 53
2, 1555200, Note_on_c, 0, 60, 52
2, 1555200, Note_on_c, 0, 63, 53
2, 1555200, Note_on_c, 0, 67, 53
2, 1555200, Note_on_c, 0, 43, 49
2, 1555200, Note_on_c, 0, 48, 50
2, 1555200, Note_on_c, 0, 51, 52
2, 1555363, Note_on_c, 0, 51, 0
2, 1555363, Note_on_c, 0, 60, 0
2, 1555363, Note_on_c, 0, 48, 0
2, 1555363, Note_on_c, 0, 63, 0
2, 1555363, Note_on_c, 0, 43, 0
2, 1555363, Note_on_c, 0, 55, 0
2, 1555363, Note_on_c, 0, 67, 0
2, 1555740, Note_on_c, 0, 75, 43
2, 1555740, Note_on_c, 0, 79, 40
2, 1555740, Note_on_c, 0, 84, 41
2, 1555740, Note_on_c, 0, 87, 41
2, 1555740, Note_on_c, 0, 51, 51
2, 1555740, Note_on_c, 0, 55, 53
2, 1555740, Note_on_c, 0, 60, 52
2, 1555740, Note_on_c, 0, 63, 51
2, 1555983, Note_on_c, 0, 63, 0
2, 1555983, Note_on_c, 0, 75, 0
2, 1555983, Note_on_c, 0, 79, 0
2, 1555983, Note_on_c, 0, 60, 0
2, 1555983, Note_on_c, 0, 84, 0
2, 1555983, Note_on_c, 0, 51, 0
2, 1555983, Note_on_c, 0, 55, 0
2, 1555983, Note_on_c, 0, 87, 0
2, 1556010, Note_on_c, 0, 75, 42
2, 1556010, Note_on_c, 0, 79, 42
2, 1556010, Note_on_c, 0, 84, 43
2, 1556010, Note_on_c, 0, 87, 42
2, 1556010, Note_on_c, 0, 51, 51
2, 1556010, Note_on_c, 0, 55, 52
2, 1556010, Note_on_c, 0, 60, 53
2, 1556010, Note_on_c, 0, 63, 53
2, 1556253, Note_on_c, 0, 63, 0
2, 1556253, Note_on_c, 0, 75, 0
2, 1556253, Note_on_c, 0, 79, 0
2, 1556253, Note_on_c, 0, 60, 0
2, 1556253, Note_on_c, 0, 84, 0
2, 1556253, Note_on_c, 0, 51, 0
2, 1556253, Note_on_c, 0, 55, 0
2, 1556253, Note_on_c, 0, 87, 0
2, 1556280, Note_on_c, 0, 75, 45
2, 1556280, Note_on_c, 0, 79, 48
2, 1556280, Note_on_c, 0, 84, 48
2, 1556280, Note_on_c, 0, 87, 47
2, 1556280, Note_on_c, 0, 51, 54
2, 1556280, Note_on_c, 0, 55, 55
2, 1556280, Note_on_c, 0, 60, 57
2, 1556280, Note_on_c, 0, 63, 56
2, 1556767, Note_on_c, 0, 63, 0
2, 1556767, Note_on_c, 0, 75, 0
2, 1556767, Note_on_c, 0, 79, 0
2, 1556767, Note_on_c, 0, 60, 0
2, 1556767, Note_on_c, 0, 84, 0
2, 1556767, Note_on_c, 0, 51, 0
2, 1556767, Note_on_c, 0, 55, 0
2, 1556767, Note_on_c, 0, 87, 0
2, 1556820, Note_on_c, 0, 75, 46
2, 1556820, Note_on_c, 0, 79, 48
2, 1556820, Note_on_c, 0, 84, 45
2, 1556820, Note_on_c, 0, 87, 45
2, 1556820, Note_on_c, 0, 51, 54
2, 1556820, Note_on_c, 0, 55, 56
2, 1556820, Note_on_c, 0, 60, 55
2, 1556820, Note_on_c, 0, 63, 56
2, 1557063, Note_on_c, 0, 63, 0
2, 1557063, Note_on_c, 0, 75, 0
2, 1557063, Note_on_c, 0, 79, 0
2, 1557063, Note_on_c, 0, 60, 0
2, 1557063, Note_on_c, 0, 84, 0
2, 1557063, Note_on_c, 0, 51, 0
2, 1557063, Note_on_c, 0, 55, 0
2, 1557063, Note_on_c, 0, 87, 0
2, 1557090, Note_on_c, 0, 75, 44
2, 1557090, Note_on_c, 0, 79, 43
2, 1557090, Note_on_c, 0, 84, 43
2, 1557090, Note_on_c, 0, 87, 45
2, 1557090, Note_on_c, 0, 51, 54
2, 1557090, Note_on_c, 0, 55, 53
2, 1557090, Note_on_c, 0, 60, 53
2, 1557090, Note_on_c, 0, 63, 52
2, 1557333, Note_on_c, 0, 63, 0
2, 1557333, Note_on_c, 0, 75, 0
2, 1557333, Note_on_c, 0, 79, 0
2, 1557333, Note_on_c, 0, 60, 0
2, 1557333, Note_on_c, 0, 84, 0
2, 1557333, Note_on_c, 0, 51, 0
2, 1557333, Note_on_c, 0, 55, 0
2, 1557333, Note_on_c, 0, 87, 0
2, 1557360, Note_on_c, 0, 75, 47
2, 1557360, Note_on_c, 0, 79, 46
2, 1557360, Note_on_c, 0, 84, 48
2, 1557360, Note_on_c, 0, 87, 46
2, 1557360, Note_on_c, 0, 51, 56
2, 1557360, Note_on_c, 0, 55, 55
2, 1557360, Note_on_c, 0, 60, 58
2, 1557360, Note_on_c, 0, 63, 55
2, 1557847, Note_on_c, 0, 63, 0
2, 1557847, Note_on_c, 0, 75, 0
2, 1557847, Note_on_c, 0, 79, 0
2, 1557847, Note_on_c, 0, 60, 0
2, 1557847, Note_on_c, 0, 84, 0
2, 1557847, Note_on_c, 0, 51, 0
2, 1557847, Note_on_c, 0, 55, 0
2, 1557847, Note_on_c, 0, 87, 0
2, 1557900, Note_on_c, 0, 75, 45
2, 1557900, Note_on_c, 0, 79, 48
2, 1557900, Note_on_c, 0, 84, 45
2, 1557900, Note_on_c, 0, 87, 45
2, 1557900, Note_on_c, 0, 51, 56
2, 1557900, Note_on_c, 0, 55, 56
2, 1557900, Note_on_c, 0, 60, 56
2, 1557900, Note_on_c, 0, 63, 56
2, 1558143, Note_on_c, 0, 63, 0
2, 1558143, Note_on_c, 0, 75, 0
2, 1558143, Note_on_c, 0, 79, 0
2, 1558143, Note_on_c, 0, 60, 0
2, 1558143, Note_on_c, 0, 84, 0
2, 1558143, Note_on_c, 0, 51, 0
2, 1558143, Note_on_c, 0, 55, 0
2, 1558143, Note_on_c, 0, 87, 0
2, 1558170, Note_on_c, 0, 75, 45
2, 1558170, Note_on_c, 0, 79, 41
2, 1558170, Note_on_c, 0, 84, 41
2, 1558170, Note_on_c, 0, 87, 45
2, 1558170, Note_on_c, 0, 51, 52
2, 1558170, Note_on_c, 0, 55, 53
2, 1558170, Note_on_c, 0, 60, 53
2, 1558170, Note_on_c, 0, 63, 53
2, 1558413, Note_on_c, 0, 63, 0
2, 1558413, Note_on_c, 0, 75, 0
2, 1558413, Note_on_c, 0, 79, 0
2, 1558413, Note_on_c, 0, 60, 0
2, 1558413, Note_on_c, 0, 84, 0
2, 1558413, Note_on_c, 0, 51, 0
2, 1558413, Note_on_c, 0, 55, 0
2, 1558413, Note_on_c, 0, 87, 0
2, 1558440, Note_on_c, 0, 75, 47
2, 1558440, Note_on_c, 0, 79, 44
2, 1558440, Note_on_c, 0, 84, 47
2, 1558440, Note_on_c, 0, 87, 45
2, 1558440, Note_on_c, 0, 51, 54
2, 1558440, Note_on_c, 0, 55, 56
2, 1558440, Note_on_c, 0, 60, 55
2, 1558440, Note_on_c, 0, 63, 56
2, 1558683, Note_on_c, 0, 63, 0
2, 1558683, Note_on_c, 0, 75, 0
2, 1558683, Note_on_c, 0, 79, 0
2, 1558683, Note_on_c, 0, 60, 0
2, 1558683, Note_on_c, 0, 84, 0
2, 1558683, Note_on_c, 0, 51, 0
2, 1558683, Note_on_c, 0, 55, 0
2, 1558683, Note_on_c, 0, 87, 0
2, 1558710, Note_on_c, 0, 75, 43
2, 1558710, Note_on_c, 0, 79, 44
2, 1558710, Note_on_c, 0, 84, 41
2, 1558710, Note_on_c, 0, 87, 41
2, 1558710, Note_on_c, 0, 51, 53
2, 1558710, Note_on_c, 0, 55, 54
2, 1558710, Note_on_c, 0, 60, 53
2, 1558710, Note_on_c, 0, 63, 55
2, 1558953, Note_on_c, 0, 63, 0
2, 1558953, Note_on_c, 0, 75, 0
2, 1558953, Note_on_c, 0, 79, 0
2, 1558953, Note_on_c, 0, 60, 0
2, 1558953, Note_on_c, 0, 84, 0
2, 1558953, Note_on_c, 0, 51, 0
2, 1558953, Note_on_c, 0, 55, 0
2, 1558953, Note_on_c, 0, 87, 0
2, 1558980, Note_on_c, 0, 75, 46
2, 1558980, Note_on_c, 0, 79, 48
2, 1558980, Note_on_c, 0, 84, 48
2, 1558980, Note_on_c, 0, 87, 44
2, 1558980, Note_on_c, 0, 51, 56
2, 1558980, Note_on_c, 0, 55, 58
2, 1558980, Note_on_c, 0, 60, 57
2, 1558980, Note_on_c, 0, 63, 54
2, 1559223, Note_on_c, 0, 63, 0
2, 1559223, Note_on_c, 0, 75, 0
2, 1559223, Note_on_c, 0, 79, 0
2, 1559223, Note_on_c, 0, 60, 0
2, 1559223, Note_on_c, 0, 84, 0
2, 1559223, Note_on_c, 0, 51, 0
2, 1559223, Note_on_c, 0, 55, 0
2, 1559223, Note_on_c, 0, 87, 0
2, 1559250, Note_on_c, 0, 75, 45
2, 1559250, Note_on_c, 0, 79, 42
2, 1559250, Note_on_c, 0, 84, 43
2, 1559250, Note_on_c, 0, 87, 42
2, 1559250, Note_on_c, 0, 51, 54
2, 1559250, Note_on_c, 0, 55, 53
2, 1559250, Note_on_c, 0, 60, 52
2, 1559250, Note_on_c, 0, 63, 53
2, 1559493, Note_on_c, 0, 63, 0
2, 1559493, Note_on_c, 0, 75, 0
2, 1559493, Note_on_c, 0, 79, 0
2, 1559493, Note_on_c, 0, 60, 0
2, 1559493, Note_on_c, 0, 84, 0
2, 1559493, Note_on_c, 0, 51, 0
2, 1559493, Note_on_c, 0, 55, 0
2, 1559493, Note_on_c, 0, 87, 0
2, 1559520, Note_on_c, 0, 75, 46
2, 1559520, Note_on_c, 0, 79, 46
2, 1559520, Note_on_c, 0, 84, 48
2, 1559520, Note_on_c, 0, 87, 44
2, 1559520, Note_on_c, 0, 51, 54
2, 1559520, Note_on_c, 0, 55, 57
2, 1559520, Note_on_c, 0, 60, 56
2, 1559520, Note_on_c, 0, 63, 57
2, 1560007, Note_on_c, 0, 63, 0
2, 1560007, Note_on_c, 0, 75, 0
2, 1560007, Note_on_c, 0, 79, 0
2, 1560007, Note_on_c, 0, 60, 0
2, 1560007, Note_on_c, 0, 84, 0
2, 1560007, Note_on_c, 0, 51, 0
2, 1560007, Note_on_c, 0, 55, 0
2, 1560007, Note_on_c, 0, 87, 0
2, 1560060, Note_on_c, 0, 43, 33
2, 1560060, Note_on_c, 0, 31, 43
2, 1560223, Note_on_c, 0, 31, 0
2, 1560223, Note_on_c, 0, 43, 0
2, 1560240, Note_on_c, 0, 44, 42
2, 1560240, Note_on_c, 0, 32, 54
2, 1560403, Note_on_c, 0, 32, 0
2, 1560403, Note_on_c, 0, 44, 0
2, 1560420, Note_on_c, 0, 43, 42
2, 1560420, Note_on_c, 0, 31, 48
2, 1560583, Note_on_c, 0, 31, 0
2, 1560583, Note_on_c, 0, 43, 0
2, 1560600, Note_on_c, 0, 44, 45
2, 1560600, Note_on_c, 0, 32, 58
2, 1560763, Note_on_c, 0, 32, 0
2, 1560763, Note_on_c, 0, 44, 0
2, 1560780, Note_on_c, 0, 43, 42
2, 1560780, Note_on_c, 0, 31, 52
2, 1560943, Note_on_c, 0, 31, 0
2, 1560943, Note_on_c, 0, 43, 0
2, 1560960, Note_on_c, 0, 44, 45
2, 1560960, Note_on_c, 0, 32, 55
2, 1561123, Note_on_c, 0, 32, 0
2, 1561123, Note_on_c, 0, 44, 0
2, 1561140, Note_on_c, 0, 43, 43
2, 1561140, Note_on_c, 0, 31, 53
2, 1561303, Note_on_c, 0, 31, 0
2, 1561303, Note_on_c, 0, 43, 0
2, 1561320, Note_on_c, 0, 44, 44
2, 1561320, Note_on_c, 0, 32, 52
2, 1561483, Note_on_c, 0, 32, 0
2, 1561483, Note_on_c, 0, 44, 0
2, 1561500, Note_on_c, 0, 43, 42
2, 1561500, Note_on_c, 0, 31, 52
2, 1561663, Note_on_c, 0, 31, 0
2, 1561663, Note_on_c, 0, 43, 0
2, 1561680, Note_on_c, 0, 48, 78
2, 1561680, Note_on_c, 0, 24, 89
2, 1561680, Note_on_c, 0, 36, 92
2, 1563770, Note_on_c, 0, 36, 0
2, 1563770, Note_on_c, 0, 48, 0
2, 1563770, Note_on_c, 0, 24, 0
2, 1563771, Note_on_c, 0, 95, 0
2, 1563771, Note_on_c, 0, 91, 0
2, 1563771, End_track
3, 0, Start_track
3, 0, Title_t, "Piano"
3, 0, Control_c, 0, 0, 0
3, 0, Control_c, 0, 7, 105
3, 0, Control_c, 0, 10, 73
3, 0, Control_c, 0, 91, 72
3, 0, Control_c, 0, 91, 72
3, 0, Control_c, 0, 10, 60
3, 0, Control_c, 0, 32, 0
3, 1, Program_c, 0, 0
3, 360, Note_on_c, 0, 57, 71
3, 360, Note_on_c, 0, 64, 71
3, 360, Note_on_c, 0, 67, 74
3, 360, Note_on_c, 0, 69, 72
3, 360, Note_on_c, 0, 25, 72
3, 360, Note_on_c, 0, 37, 73
3, 685, Note_on_c, 0, 37, 0
3, 685, Note_on_c, 0, 64, 0
3, 685, Note_on_c, 0, 67, 0
3, 685, Note_on_c, 0, 57, 0
3, 685, Note_on_c, 0, 25, 0
3, 685, Note_on_c, 0, 69, 0
3, 720, Note_on_c, 0, 57, 80
3, 720, Note_on_c, 0, 62, 80
3, 720, Note_on_c, 0, 65, 77
3, 720, Note_on_c, 0, 69, 78
3, 720, Note_on_c, 0, 26, 85
3, 720, Note_on_c, 0, 38, 82
3, 1045, Note_on_c, 0, 38, 0
3, 1045, Note_on_c, 0, 62, 0
3, 1045, Note_on_c, 0, 65, 0
3, 1045, Note_on_c, 0, 57, 0
3, 1045, Note_on_c, 0, 26, 0
3, 1045, Note_on_c, 0, 69, 0
3, 1080, Note_on_c, 0, 52, 69
3, 1080, Note_on_c, 0, 58, 71
3, 1080, Note_on_c, 0, 62, 69
3, 1080, Note_on_c, 0, 64, 68
3, 1080, Note_on_c, 0, 31, 92
3, 1080, Note_on_c, 0, 43, 90
3, 1405, Note_on_c, 0, 43, 0
3, 1405, Note_on_c, 0, 58, 0
3, 1405, Note_on_c, 0, 62, 0
3, 1405, Note_on_c, 0, 52, 0
3, 1405, Note_on_c, 0, 31, 0
3, 1405, Note_on_c, 0, 64, 0
3, 1440, Note_on_c, 0, 55, 89
3, 1440, Note_on_c, 0, 57, 90
3, 1440, Note_on_c, 0, 61, 87
3, 1440, Note_on_c, 0, 67, 86
3, 1440, Note_on_c, 0, 28, 78
3, 1440, Note_on_c, 0, 40, 80
3, 1765, Note_on_c, 0, 40, 0
3, 1765, Note_on_c, 0, 57, 0
3, 1765, Note_on_c, 0, 61, 0
3, 1765, Note_on_c, 0, 55, 0
3, 1765, Note_on_c, 0, 28, 0
3, 1765, Note_on_c, 0, 67, 0
3, 1800, Note_on_c, 0, 50, 72
3, 1800, Note_on_c, 0, 57, 70
3, 1800, Note_on_c, 0, 62, 71
3, 1800, Note_on_c, 0, 29, 84
3, 1800, Note_on_c, 0, 41, 82
3, 2125, Note_on_c, 0, 41, 0
3, 2125, Note_on_c, 0, 62, 0
3, 2125, Note_on_c, 0, 50, 0
3, 2125, Note_on_c, 0, 57, 0
3, 2125, Note_on_c, 0, 29, 0
3, 2160, Note_on_c, 0, 53, 86
3, 2160, Note_on_c, 0, 56, 86
3, 2160, Note_on_c, 0, 60, 85
3, 2160, Note_on_c, 0, 65, 85
3, 2160, Note_on_c, 0, 26, 76
3, 2160, Note_on_c, 0, 38, 73
3, 2485, Note_on_c, 0, 38, 0
3, 2485, Note_on_c, 0, 56, 0
3, 2485, Note_on_c, 0, 60, 0
3, 2485, Note_on_c, 0, 53, 0
3, 2485, Note_on_c, 0, 26, 0
3, 2485, Note_on_c, 0, 65, 0
3, 2520, Note_on_c, 0, 50, 69
3, 2520, Note_on_c, 0, 53, 69
3, 2520, Note_on_c, 0, 59, 69
3, 2520, Note_on_c, 0, 31, 87
3, 2520, Note_on_c, 0, 43, 88
3, 2845, Note_on_c, 0, 43, 0
3, 2845, Note_on_c, 0, 59, 0
3, 2845, Note_on_c, 0, 50, 0
3, 2845, Note_on_c, 0, 53, 0
3, 2845, Note_on_c, 0, 31, 0
3, 2880, Note_on_c, 0, 52, 88
3, 2880, Note_on_c, 0, 59, 86
3, 2880, Note_on_c, 0, 62, 89
3, 2880, Note_on_c, 0, 32, 87
3, 2880, Note_on_c, 0, 44, 89
3, 3205, Note_on_c, 0, 44, 0
3, 3205, Note_on_c, 0, 62, 0
3, 3205, Note_on_c, 0, 52, 0
3, 3205, Note_on_c, 0, 59, 0
3, 3205, Note_on_c, 0, 32, 0
3, 3240, Note_on_c, 0, 52, 80
3, 3240, Note_on_c, 0, 57, 80
3, 3240, Note_on_c, 0, 60, 77
3, 3240, Note_on_c, 0, 33, 84
3, 3240, Note_on_c, 0, 45, 85
3, 3403, Note_on_c, 0, 60, 0
3, 3403, Note_on_c, 0, 52, 0
3, 3403, Note_on_c, 0, 57, 0
3, 3420, Note_on_c, 0, 59, 76
3, 3565, Note_on_c, 0, 33, 0
3, 3565, Note_on_c, 0, 45, 0
3, 3583, Note_on_c, 0, 59, 0
3, 3600, Note_on_c, 0, 48, 80
3, 3600, Note_on_c, 0, 51, 79
3, 3600, Note_on_c, 0, 57, 79
3, 3600, Note_on_c, 0, 31, 76
3, 3600, Note_on_c, 0, 43, 77
3, 3763, Note_on_c, 0, 57, 0
3, 3763, Note_on_c, 0, 48, 0
3, 3763, Note_on_c, 0, 51, 0
3, 3780, Note_on_c, 0, 59, 83
3, 3925, Note_on_c, 0, 31, 0
3, 3925, Note_on_c, 0, 43, 0
3, 3943, Note_on_c, 0, 59, 0
3, 3960, Note_on_c, 0, 50, 86
3, 3960, Note_on_c, 0, 57, 86
3, 3960, Note_on_c, 0, 60, 86
3, 3960, Note_on_c, 0, 30, 76
3, 3960, Note_on_c, 0, 42, 78
3, 4285, Note_on_c, 0, 42, 0
3, 4285, Note_on_c, 0, 60, 0
3, 4285, Note_on_c, 0, 50, 0
3, 4285, Note_on_c, 0, 57, 0
3, 4285, Note_on_c, 0, 30, 0
3, 4320, Note_on_c, 0, 50, 89
3, 4320, Note_on_c, 0, 55, 89
3, 4320, Note_on_c, 0, 59, 88
3, 4320, Note_on_c, 0, 62, 89
3, 4320, Note_on_c, 0, 29, 78
3, 4320, Note_on_c, 0, 41, 79
3, 4645, Note_on_c, 0, 41, 0
3, 4645, Note_on_c, 0, 55, 0
3, 4645, Note_on_c, 0, 59, 0
3, 4645, Note_on_c, 0, 50, 0
3, 4645, Note_on_c, 0, 29, 0
3, 4645, Note_on_c, 0, 62, 0
3, 4680, Note_on_c, 0, 55, 92
3, 4680, Note_on_c, 0, 57, 90
3, 4680, Note_on_c, 0, 60, 92
3, 4680, Note_on_c, 0, 67, 90
3, 4680, Note_on_c, 0, 28, 78
3, 4680, Note_on_c, 0, 40, 78
3, 5005, Note_on_c, 0, 40, 0
3, 5005, Note_on_c, 0, 57, 0
3, 5005, Note_on_c, 0, 60, 0
3, 5005, Note_on_c, 0, 55, 0
3, 5005, Note_on_c, 0, 28, 0
3, 5005, Note_on_c, 0, 67, 0
3, 5040, Note_on_c, 0, 57, 86
3, 5040, Note_on_c, 0, 60, 88
3, 5040, Note_on_c, 0, 65, 87
3, 5040, Note_on_c, 0, 69, 88
3, 5040, Note_on_c, 0, 26, 77
3, 5040, Note_on_c, 0, 38, 74
3, 5365, Note_on_c, 0, 38, 0
3, 5365, Note_on_c, 0, 60, 0
3, 5365, Note_on_c, 0, 65, 0
3, 5365, Note_on_c, 0, 57, 0
3, 5365, Note_on_c, 0, 26, 0
3, 5365, Note_on_c, 0, 69, 0
3, 5400, Note_on_c, 0, 59, 86
3, 5400, Note_on_c, 0, 65, 87
3, 5400, Note_on_c, 0, 67, 86
3, 5400, Note_on_c, 0, 71, 86
3, 5400, Note_on_c, 0, 31, 89
3, 5400, Note_on_c, 0, 43, 90
3, 5725, Note_on_c, 0, 43, 0
3, 5725, Note_on_c, 0, 65, 0
3, 5725, Note_on_c, 0, 67, 0
3, 5725, Note_on_c, 0, 59, 0
3, 5725, Note_on_c, 0, 31, 0
3, 5725, Note_on_c, 0, 71, 0
3, 5760, Note_on_c, 0, 60, 87
3, 5760, Note_on_c, 0, 64, 89
3, 5760, Note_on_c, 0, 67, 89
3, 5760, Note_on_c, 0, 72, 86
3, 5760, Note_on_c, 0, 24, 74
3, 5760, Note_on_c, 0, 36, 72
3, 6085, Note_on_c, 0, 36, 0
3, 6085, Note_on_c, 0, 64, 0
3, 6085, Note_on_c, 0, 67, 0
3, 6085, Note_on_c, 0, 60, 0
3, 6085, Note_on_c, 0, 24, 0
3, 6085, Note_on_c, 0, 72, 0
3, 6120, Note_on_c, 0, 52, 62
3, 6120, Note_on_c, 0, 55, 64
3, 6120, Note_on_c, 0, 60, 61
3, 6283, Note_on_c, 0, 60, 0
3, 6283, Note_on_c, 0, 55, 0
3, 6283, Note_on_c, 0, 52, 0
3, 6300, Note_on_c, 0, 53, 83
3, 6300, Note_on_c, 0, 55, 82
3, 6300, Note_on_c, 0, 60, 83
3, 6300, Note_on_c, 0, 62, 84
3, 6463, Note_on_c, 0, 62, 0
3, 6463, Note_on_c, 0, 53, 0
3, 6463, Note_on_c, 0, 55, 0
3, 6463, Note_on_c, 0, 60, 0
3, 6480, Note_on_c, 0, 52, 84
3, 6480, Note_on_c, 0, 55, 86
3, 6480, Note_on_c, 0, 60, 84
3, 6480, Note_on_c, 0, 64, 84
3, 6660, Note_on_c, 0, 31, 71
3, 6660, Note_on_c, 0, 43, 72
3, 6823, Note_on_c, 0, 43, 0
3, 6823, Note_on_c, 0, 31, 0
3, 6840, Note_on_c, 0, 33, 87
3, 6840, Note_on_c, 0, 45, 86
3, 7003, Note_on_c, 0, 45, 0
3, 7003, Note_on_c, 0, 33, 0
3, 7020, Note_on_c, 0, 35, 85
3, 7020, Note_on_c, 0, 47, 85
3, 7183, Note_on_c, 0, 47, 0
3, 7183, Note_on_c, 0, 35, 0
3, 7200, Note_on_c, 0, 36, 113
3, 7200, Note_on_c, 0, 48, 115
3, 7525, Note_on_c, 0, 60, 0
3, 7525, Note_on_c, 0, 64, 0
3, 7525, Note_on_c, 0, 52, 0
3, 7525, Note_on_c, 0, 55, 0
3, 7560, Note_on_c, 0, 52, 77
3, 7560, Note_on_c, 0, 55, 75
3, 7560, Note_on_c, 0, 60, 77
3, 7723, Note_on_c, 0, 60, 0
3, 7723, Note_on_c, 0, 52, 0
3, 7723, Note_on_c, 0, 55, 0
3, 7740, Note_on_c, 0, 53, 83
3, 7740, Note_on_c, 0, 55, 84
3, 7740, Note_on_c, 0, 60, 83
3, 7740, Note_on_c, 0, 62, 83
3, 7903, Note_on_c, 0, 62, 0
3, 7903, Note_on_c, 0, 55, 0
3, 7903, Note_on_c, 0, 53, 0
3, 7903, Note_on_c, 0, 60, 0
3, 7920, Note_on_c, 0, 52, 88
3, 7920, Note_on_c, 0, 55, 88
3, 7920, Note_on_c, 0, 60, 91
3, 7920, Note_on_c, 0, 64, 90
3, 8083, Note_on_c, 0, 64, 0
3, 8083, Note_on_c, 0, 36, 0
3, 8083, Note_on_c, 0, 52, 0
3, 8083, Note_on_c, 0, 48, 0
3, 8083, Note_on_c, 0, 60, 0
3, 8083, Note_on_c, 0, 55, 0
3, 8100, Note_on_c, 0, 53, 85
3, 8100, Note_on_c, 0, 60, 85
3, 8100, Note_on_c, 0, 65, 86
3, 8100, Note_on_c, 0, 38, 85
3, 8100, Note_on_c, 0, 50, 86
3, 8263, Note_on_c, 0, 50, 0
3, 8263, Note_on_c, 0, 65, 0
3, 8263, Note_on_c, 0, 53, 0
3, 8263, Note_on_c, 0, 60, 0
3, 8263, Note_on_c, 0, 38, 0
3, 8280, Note_on_c, 0, 55, 90
3, 8280, Note_on_c, 0, 60, 88
3, 8280, Note_on_c, 0, 67, 91
3, 8280, Note_on_c, 0, 40, 88
3, 8280, Note_on_c, 0, 52, 90
3, 8443, Note_on_c, 0, 52, 0
3, 8443, Note_on_c, 0, 67, 0
3, 8443, Note_on_c, 0, 55, 0
3, 8443, Note_on_c, 0, 60, 0
3, 8443, Note_on_c, 0, 40, 0
3, 8460, Note_on_c, 0, 57, 75
3, 8460, Note_on_c, 0, 60, 77
3, 8460, Note_on_c, 0, 65, 75
3, 8460, Note_on_c, 0, 41, 83
3, 8460, Note_on_c, 0, 53, 84
3, 8623, Note_on_c, 0, 53, 0
3, 8623, Note_on_c, 0, 65, 0
3, 8623, Note_on_c, 0, 57, 0
3, 8623, Note_on_c, 0, 60, 0
3, 8623, Note_on_c, 0, 41, 0
3, 8640, Note_on_c, 0, 52, 79
3, 8640, Note_on_c, 0, 60, 79
3, 8640, Note_on_c, 0, 64, 80
3, 8640, Note_on_c, 0, 43, 91
3, 8640, Note_on_c, 0, 55, 87
3, 8803, Note_on_c, 0, 64, 0
3, 8803, Note_on_c, 0, 52, 0
3, 8803, Note_on_c, 0, 60, 0
3, 8820, Note_on_c, 0, 53, 77
3, 8820, Note_on_c, 0, 59, 74
3, 8820, Note_on_c, 0, 62, 77
3, 8965, Note_on_c, 0, 43, 0
3, 8965, Note_on_c, 0, 55, 0
3, 8983, Note_on_c, 0, 59, 0
3, 8983, Note_on_c, 0, 53, 0
3, 8983, Note_on_c, 0, 62, 0
3, 9000, Note_on_c, 0, 52, 78
3, 9000, Note_on_c, 0, 57, 79
3, 9000, Note_on_c, 0, 60, 79
3, 9000, Note_on_c, 0, 31, 62
3, 9000, Note_on_c, 0, 43, 61
3, 9163, Note_on_c, 0, 60, 0
3, 9163, Note_on_c, 0, 52, 0
3, 9163, Note_on_c, 0, 57, 0
3, 9180, Note_on_c, 0, 53, 84
3, 9180, Note_on_c, 0, 59, 86
3, 9180, Note_on_c, 0, 62, 84
3, 9325, Note_on_c, 0, 31, 0
3, 9325, Note_on_c, 0, 43, 0
3, 9343, Note_on_c, 0, 59, 0
3, 9343, Note_on_c, 0, 53, 0
3, 9343, Note_on_c, 0, 62, 0
3, 9360, Note_on_c, 0, 52, 85
3, 9360, Note_on_c, 0, 55, 85
3, 9360, Note_on_c, 0, 60, 87
3, 9360, Note_on_c, 0, 64, 86
3, 9360, Note_on_c, 0, 36, 91
3, 9360, Note_on_c, 0, 48, 92
3, 9523, Note_on_c, 0, 48, 0
3, 9523, Note_on_c, 0, 36, 0
3, 9540, Note_on_c, 0, 38, 85
3, 9540, Note_on_c, 0, 50, 85
3, 9685, Note_on_c, 0, 60, 0
3, 9685, Note_on_c, 0, 64, 0
3, 9685, Note_on_c, 0, 52, 0
3, 9685, Note_on_c, 0, 55, 0
3, 9703, Note_on_c, 0, 50, 0
3, 9703, Note_on_c, 0, 38, 0
3, 9720, Note_on_c, 0, 48, 76
3, 9720, Note_on_c, 0, 55, 77
3, 9720, Note_on_c, 0, 60, 76
3, 9720, Note_on_c, 0, 40, 90
3, 9720, Note_on_c, 0, 52, 91
3, 9883, Note_on_c, 0, 52, 0
3, 9883, Note_on_c, 0, 60, 0
3, 9883, Note_on_c, 0, 48, 0
3, 9883, Note_on_c, 0, 55, 0
3, 9883, Note_on_c, 0, 40, 0
3, 9900, Note_on_c, 0, 50, 77
3, 9900, Note_on_c, 0, 55, 76
3, 9900, Note_on_c, 0, 59, 77
3, 9900, Note_on_c, 0, 38, 77
3, 9900, Note_on_c, 0, 50, 77
3, 10063, Note_on_c, 0, 50, 0
3, 10063, Note_on_c, 0, 59, 0
3, 10063, Note_on_c, 0, 50, 0
3, 10063, Note_on_c, 0, 55, 0
3, 10063, Note_on_c, 0, 38, 0
3, 10080, Note_on_c, 0, 52, 79
3, 10080, Note_on_c, 0, 55, 79
3, 10080, Note_on_c, 0, 57, 77
3, 10080, Note_on_c, 0, 36, 78
3, 10080, Note_on_c, 0, 48, 80
3, 10243, Note_on_c, 0, 48, 0
3, 10243, Note_on_c, 0, 57, 0
3, 10243, Note_on_c, 0, 52, 0
3, 10243, Note_on_c, 0, 55, 0
3, 10243, Note_on_c, 0, 36, 0
3, 10260, Note_on_c, 0, 50, 86
3, 10260, Note_on_c, 0, 55, 86
3, 10260, Note_on_c, 0, 59, 84
3, 10260, Note_on_c, 0, 35, 78
3, 10260, Note_on_c, 0, 47, 77
3, 10423, Note_on_c, 0, 47, 0
3, 10423, Note_on_c, 0, 59, 0
3, 10423, Note_on_c, 0, 50, 0
3, 10423, Note_on_c, 0, 55, 0
3, 10423, Note_on_c, 0, 35, 0
3, 10440, Note_on_c, 0, 48, 111
3, 10440, Note_on_c, 0, 50, 111
3, 10440, Note_on_c, 0, 54, 112
3, 10440, Note_on_c, 0, 60, 112
3, 10440, Note_on_c, 0, 33, 99
3, 10440, Note_on_c, 0, 45, 96
3, 10765, Note_on_c, 0, 45, 0
3, 10765, Note_on_c, 0, 50, 0
3, 10765, Note_on_c, 0, 54, 0
3, 10765, Note_on_c, 0, 48, 0
3, 10765, Note_on_c, 0, 33, 0
3, 10765, Note_on_c, 0, 60, 0
3, 10800, Note_on_c, 0, 50, 116
3, 10800, Note_on_c, 0, 53, 114
3, 10800, Note_on_c, 0, 55, 115
3, 10800, Note_on_c, 0, 62, 115
3, 10800, Note_on_c, 0, 35, 111
3, 10800, Note_on_c, 0, 47, 111
3, 10963, Note_on_c, 0, 62, 0
3, 10963, Note_on_c, 0, 55, 0
3, 10963, Note_on_c, 0, 50, 0
3, 10963, Note_on_c, 0, 53, 0
3, 10980, Note_on_c, 0, 50, 66
3, 10980, Note_on_c, 0, 53, 67
3, 10980, Note_on_c, 0, 55, 69
3, 11125, Note_on_c, 0, 47, 0
3, 11125, Note_on_c, 0, 35, 0
3, 11143, Note_on_c, 0, 53, 0
3, 11143, Note_on_c, 0, 50, 0
3, 11143, Note_on_c, 0, 55, 0
3, 11160, Note_on_c, 0, 48, 84
3, 11160, Note_on_c, 0, 53, 86
3, 11160, Note_on_c, 0, 57, 85
3, 11160, Note_on_c, 0, 33, 78
3, 11160, Note_on_c, 0, 45, 78
3, 11323, Note_on_c, 0, 45, 0
3, 11323, Note_on_c, 0, 57, 0
3, 11323, Note_on_c, 0, 48, 0
3, 11323, Note_on_c, 0, 53, 0
3, 11323, Note_on_c, 0, 33, 0
3, 11340, Note_on_c, 0, 50, 86
3, 11340, Note_on_c, 0, 53, 86
3, 11340, Note_on_c, 0, 59, 86
3, 11340, Note_on_c, 0, 31, 76
3, 11340, Note_on_c, 0, 43, 74
3, 11503, Note_on_c, 0, 43, 0
3, 11503, Note_on_c, 0, 59, 0
3, 11503, Note_on_c, 0, 50, 0
3, 11503, Note_on_c, 0, 53, 0
3, 11503, Note_on_c, 0, 31, 0
3, 11520, Note_on_c, 0, 52, 112
3, 11520, Note_on_c, 0, 55, 113
3, 11520, Note_on_c, 0, 60, 113
3, 11520, Note_on_c, 0, 36, 122
3, 11520, Note_on_c, 0, 48, 122
3, 11845, Note_on_c, 0, 60, 0
3, 11845, Note_on_c, 0, 52, 0
3, 11845, Note_on_c, 0, 55, 0
3, 11880, Note_on_c, 0, 52, 84
3, 11880, Note_on_c, 0, 55, 83
3, 11880, Note_on_c, 0, 60, 84
3, 12043, Note_on_c, 0, 60, 0
3, 12043, Note_on_c, 0, 52, 0
3, 12043, Note_on_c, 0, 55, 0
3, 12060, Note_on_c, 0, 53, 85
3, 12060, Note_on_c, 0, 55, 86
3, 12060, Note_on_c, 0, 60, 85
3, 12060, Note_on_c, 0, 62, 87
3, 12223, Note_on_c, 0, 62, 0
3, 12223, Note_on_c, 0, 55, 0
3, 12223, Note_on_c, 0, 53, 0
3, 12223, Note_on_c, 0, 60, 0
3, 12240, Note_on_c, 0, 52, 112
3, 12240, Note_on_c, 0, 55, 114
3, 12240, Note_on_c, 0, 60, 112
3, 12240, Note_on_c, 0, 64, 112
3, 12403, Note_on_c, 0, 48, 0
3, 12403, Note_on_c, 0, 36, 0
3, 12420, Note_on_c, 0, 31, 70
3, 12420, Note_on_c, 0, 43, 71
3, 12583, Note_on_c, 0, 43, 0
3, 12583, Note_on_c, 0, 31, 0
3, 12600, Note_on_c, 0, 33, 88
3, 12600, Note_on_c, 0, 45, 86
3, 12763, Note_on_c, 0, 45, 0
3, 12763, Note_on_c, 0, 33, 0
3, 12780, Note_on_c, 0, 35, 85
3, 12780, Note_on_c, 0, 47, 84
3, 12943, Note_on_c, 0, 47, 0
3, 12943, Note_on_c, 0, 35, 0
3, 12960, Note_on_c, 0, 36, 114
3, 12960, Note_on_c, 0, 48, 113
3, 13285, Note_on_c, 0, 52, 0
3, 13285, Note_on_c, 0, 60, 0
3, 13285, Note_on_c, 0, 55, 0
3, 13285, Note_on_c, 0, 64, 0
3, 13320, Note_on_c, 0, 52, 76
3, 13320, Note_on_c, 0, 55, 77
3, 13320, Note_on_c, 0, 60, 75
3, 13483, Note_on_c, 0, 60, 0
3, 13483, Note_on_c, 0, 52, 0
3, 13483, Note_on_c, 0, 55, 0
3, 13500, Note_on_c, 0, 53, 83
3, 13500, Note_on_c, 0, 55, 83
3, 13500, Note_on_c, 0, 60, 83
3, 13500, Note_on_c, 0, 62, 83
3, 13610, Note_on_c, 0, 48, 0
3, 13610, Note_on_c, 0, 36, 0
3, 13663, Note_on_c, 0, 60, 0
3, 13663, Note_on_c, 0, 55, 0
3, 13663, Note_on_c, 0, 62, 0
3, 13663, Note_on_c, 0, 53, 0
3, 13680, Note_on_c, 0, 52, 90
3, 13680, Note_on_c, 0, 55, 89
3, 13680, Note_on_c, 0, 60, 88
3, 13680, Note_on_c, 0, 64, 90
3, 13680, Note_on_c, 0, 36, 81
3, 13680, Note_on_c, 0, 48, 81
3, 13843, Note_on_c, 0, 48, 0
3, 13843, Note_on_c, 0, 55, 0
3, 13843, Note_on_c, 0, 60, 0
3, 13843, Note_on_c, 0, 52, 0
3, 13843, Note_on_c, 0, 36, 0
3, 13843, Note_on_c, 0, 64, 0
3, 13860, Note_on_c, 0, 53, 85
3, 13860, Note_on_c, 0, 60, 83
3, 13860, Note_on_c, 0, 65, 84
3, 13860, Note_on_c, 0, 38, 83
3, 13860, Note_on_c, 0, 50, 85
3, 14023, Note_on_c, 0, 50, 0
3, 14023, Note_on_c, 0, 65, 0
3, 14023, Note_on_c, 0, 53, 0
3, 14023, Note_on_c, 0, 60, 0
3, 14023, Note_on_c, 0, 38, 0
3, 14040, Note_on_c, 0, 55, 89
3, 14040, Note_on_c, 0, 60, 90
3, 14040, Note_on_c, 0, 67, 89
3, 14040, Note_on_c, 0, 40, 90
3, 14040, Note_on_c, 0, 52, 89
3, 14203, Note_on_c, 0, 52, 0
3, 14203, Note_on_c, 0, 67, 0
3, 14203, Note_on_c, 0, 55, 0
3, 14203, Note_on_c, 0, 60, 0
3, 14203, Note_on_c, 0, 40, 0
3, 14220, Note_on_c, 0, 55, 74
3, 14220, Note_on_c, 0, 59, 77
3, 14220, Note_on_c, 0, 65, 77
3, 14220, Note_on_c, 0, 38, 77
3, 14220, Note_on_c, 0, 50, 75
3, 14383, Note_on_c, 0, 50, 0
3, 14383, Note_on_c, 0, 65, 0
3, 14383, Note_on_c, 0, 55, 0
3, 14383, Note_on_c, 0, 59, 0
3, 14383, Note_on_c, 0, 38, 0
3, 14400, Note_on_c, 0, 55, 79
3, 14400, Note_on_c, 0, 60, 80
3, 14400, Note_on_c, 0, 64, 78
3, 14400, Note_on_c, 0, 36, 78
3, 14400, Note_on_c, 0, 48, 77
3, 14563, Note_on_c, 0, 48, 0
3, 14563, Note_on_c, 0, 36, 0
3, 14580, Note_on_c, 0, 35, 76
3, 14580, Note_on_c, 0, 47, 76
3, 14725, Note_on_c, 0, 55, 0
3, 14725, Note_on_c, 0, 64, 0
3, 14725, Note_on_c, 0, 60, 0
3, 14743, Note_on_c, 0, 35, 0
3, 14743, Note_on_c, 0, 47, 0
3, 14760, Note_on_c, 0, 52, 84
3, 14760, Note_on_c, 0, 60, 82
3, 14760, Note_on_c, 0, 64, 85
3, 14760, Note_on_c, 0, 33, 76
3, 14760, Note_on_c, 0, 45, 75
3, 14923, Note_on_c, 0, 64, 0
3, 14923, Note_on_c, 0, 52, 0
3, 14923, Note_on_c, 0, 60, 0
3, 14940, Note_on_c, 0, 54, 86
3, 14940, Note_on_c, 0, 60, 84
3, 14940, Note_on_c, 0, 64, 84
3, 14940, Note_on_c, 0, 66, 86
3, 15085, Note_on_c, 0, 33, 0
3, 15085, Note_on_c, 0, 45, 0
3, 15103, Note_on_c, 0, 64, 0
3, 15103, Note_on_c, 0, 60, 0
3, 15103, Note_on_c, 0, 66, 0
3, 15103, Note_on_c, 0, 54, 0
3, 15120, Note_on_c, 0, 55, 88
3, 15120, Note_on_c, 0, 59, 86
3, 15120, Note_on_c, 0, 64, 89
3, 15120, Note_on_c, 0, 67, 89
3, 15120, Note_on_c, 0, 35, 89
3, 15120, Note_on_c, 0, 47, 88
3, 15283, Note_on_c, 0, 47, 0
3, 15283, Note_on_c, 0, 59, 0
3, 15283, Note_on_c, 0, 64, 0
3, 15283, Note_on_c, 0, 55, 0
3, 15283, Note_on_c, 0, 35, 0
3, 15283, Note_on_c, 0, 67, 0
3, 15300, Note_on_c, 0, 57, 85
3, 15300, Note_on_c, 0, 60, 86
3, 15300, Note_on_c, 0, 64, 85
3, 15300, Note_on_c, 0, 69, 86
3, 15300, Note_on_c, 0, 33, 76
3, 15300, Note_on_c, 0, 45, 75
3, 15463, Note_on_c, 0, 45, 0
3, 15463, Note_on_c, 0, 60, 0
3, 15463, Note_on_c, 0, 64, 0
3, 15463, Note_on_c, 0, 57, 0
3, 15463, Note_on_c, 0, 33, 0
3, 15463, Note_on_c, 0, 69, 0
3, 15480, Note_on_c, 0, 59, 115
3, 15480, Note_on_c, 0, 63, 114
3, 15480, Note_on_c, 0, 69, 113
3, 15480, Note_on_c, 0, 71, 114
3, 15480, Note_on_c, 0, 31, 77
3, 15480, Note_on_c, 0, 43, 77
3, 15643, Note_on_c, 0, 43, 0
3, 15643, Note_on_c, 0, 31, 0
3, 15660, Note_on_c, 0, 30, 77
3, 15660, Note_on_c, 0, 42, 75
3, 15805, Note_on_c, 0, 69, 0
3, 15805, Note_on_c, 0, 71, 0
3, 15805, Note_on_c, 0, 59, 0
3, 15805, Note_on_c, 0, 63, 0
3, 15823, Note_on_c, 0, 42, 0
3, 15823, Note_on_c, 0, 30, 0
3, 15840, Note_on_c, 0, 55, 97
3, 15840, Note_on_c, 0, 59, 98
3, 15840, Note_on_c, 0, 64, 96
3, 15840, Note_on_c, 0, 67, 99
3, 15840, Note_on_c, 0, 28, 101
3, 15840, Note_on_c, 0, 40, 99
3, 16165, Note_on_c, 0, 40, 0
3, 16165, Note_on_c, 0, 59, 0
3, 16165, Note_on_c, 0, 64, 0
3, 16165, Note_on_c, 0, 55, 0
3, 16165, Note_on_c, 0, 28, 0
3, 16165, Note_on_c, 0, 67, 0
3, 16200, Note_on_c, 0, 40, 104
3, 16200, Note_on_c, 0, 52, 103
3, 16363, Note_on_c, 0, 52, 0
3, 16363, Note_on_c, 0, 40, 0
3, 16380, Note_on_c, 0, 42, 90
3, 16380, Note_on_c, 0, 54, 91
3, 16543, Note_on_c, 0, 54, 0
3, 16543, Note_on_c, 0, 42, 0
3, 16560, Note_on_c, 0, 43, 113
3, 16560, Note_on_c, 0, 55, 111
3, 16740, Note_on_c, 0, 49, 73
3, 16740, Note_on_c, 0, 57, 71
3, 16885, Note_on_c, 0, 55, 0
3, 16885, Note_on_c, 0, 43, 0
3, 16903, Note_on_c, 0, 49, 0
3, 16903, Note_on_c, 0, 57, 0
3, 16920, Note_on_c, 0, 50, 87
3, 16920, Note_on_c, 0, 57, 88
3, 16920, Note_on_c, 0, 59, 89
3, 16920, Note_on_c, 0, 41, 78
3, 16920, Note_on_c, 0, 53, 78
3, 17083, Note_on_c, 0, 53, 0
3, 17083, Note_on_c, 0, 59, 0
3, 17083, Note_on_c, 0, 50, 0
3, 17083, Note_on_c, 0, 57, 0
3, 17083, Note_on_c, 0, 41, 0
3, 17100, Note_on_c, 0, 55, 87
3, 17100, Note_on_c, 0, 57, 86
3, 17100, Note_on_c, 0, 61, 84
3, 17100, Note_on_c, 0, 40, 75
3, 17100, Note_on_c, 0, 52, 74
3, 17263, Note_on_c, 0, 52, 0
3, 17263, Note_on_c, 0, 61, 0
3, 17263, Note_on_c, 0, 55, 0
3, 17263, Note_on_c, 0, 57, 0
3, 17263, Note_on_c, 0, 40, 0
3, 17280, Note_on_c, 0, 53, 114
3, 17280, Note_on_c, 0, 57, 112
3, 17280, Note_on_c, 0, 62, 115
3, 17280, Note_on_c, 0, 38, 102
3, 17280, Note_on_c, 0, 50, 101
3, 17605, Note_on_c, 0, 50, 0
3, 17605, Note_on_c, 0, 38, 0
3, 17640, Note_on_c, 0, 33, 72
3, 17640, Note_on_c, 0, 45, 73
3, 17748, Note_on_c, 0, 45, 0
3, 17748, Note_on_c, 0, 33, 0
3, 17760, Note_on_c, 0, 35, 85
3, 17760, Note_on_c, 0, 47, 85
3, 17868, Note_on_c, 0, 47, 0
3, 17868, Note_on_c, 0, 35, 0
3, 17879, Note_on_c, 0, 37, 84
3, 17879, Note_on_c, 0, 49, 84
3, 17989, Note_on_c, 0, 49, 0
3, 17989, Note_on_c, 0, 37, 0
3, 18000, Note_on_c, 0, 38, 113
3, 18000, Note_on_c, 0, 50, 111
3, 18163, Note_on_c, 0, 62, 0
3, 18163, Note_on_c, 0, 53, 0
3, 18163, Note_on_c, 0, 57, 0
3, 18180, Note_on_c, 0, 52, 79
3, 18180, Note_on_c, 0, 57, 75
3, 18180, Note_on_c, 0, 61, 78
3, 18343, Note_on_c, 0, 61, 0
3, 18343, Note_on_c, 0, 52, 0
3, 18343, Note_on_c, 0, 57, 0
3, 18360, Note_on_c, 0, 53, 87
3, 18360, Note_on_c, 0, 57, 86
3, 18360, Note_on_c, 0, 62, 84
3, 18523, Note_on_c, 0, 62, 0
3, 18523, Note_on_c, 0, 53, 0
3, 18523, Note_on_c, 0, 57, 0
3, 18540, Note_on_c, 0, 55, 85
3, 18540, Note_on_c, 0, 57, 84
3, 18540, Note_on_c, 0, 62, 84
3, 18540, Note_on_c, 0, 64, 87
3, 18703, Note_on_c, 0, 64, 0
3, 18703, Note_on_c, 0, 57, 0
3, 18703, Note_on_c, 0, 55, 0
3, 18703, Note_on_c, 0, 62, 0
3, 18720, Note_on_c, 0, 53, 113
3, 18720, Note_on_c, 0, 57, 114
3, 18720, Note_on_c, 0, 62, 113
3, 18720, Note_on_c, 0, 65, 113
3, 19045, Note_on_c, 0, 50, 0
3, 19045, Note_on_c, 0, 38, 0
3, 19080, Note_on_c, 0, 38, 83
3, 19080, Note_on_c, 0, 50, 82
3, 19243, Note_on_c, 0, 50, 0
3, 19243, Note_on_c, 0, 38, 0
3, 19260, Note_on_c, 0, 40, 85
3, 19260, Note_on_c, 0, 52, 86
3, 19423, Note_on_c, 0, 52, 0
3, 19423, Note_on_c, 0, 40, 0
3, 19440, Note_on_c, 0, 41, 90
3, 19440, Note_on_c, 0, 53, 87
3, 19603, Note_on_c, 0, 41, 0
3, 19603, Note_on_c, 0, 53, 0
3, 19620, Note_on_c, 0, 43, 87
3, 19620, Note_on_c, 0, 55, 85
3, 19730, Note_on_c, 0, 65, 0
3, 19730, Note_on_c, 0, 62, 0
3, 19730, Note_on_c, 0, 57, 0
3, 19730, Note_on_c, 0, 53, 0
3, 19783, Note_on_c, 0, 55, 0
3, 19783, Note_on_c, 0, 43, 0
3, 19800, Note_on_c, 0, 53, 79
3, 19800, Note_on_c, 0, 62, 79
3, 19800, Note_on_c, 0, 45, 88
3, 19800, Note_on_c, 0, 57, 89
3, 19963, Note_on_c, 0, 57, 0
3, 19963, Note_on_c, 0, 53, 0
3, 19963, Note_on_c, 0, 62, 0
3, 19963, Note_on_c, 0, 45, 0
3, 19980, Note_on_c, 0, 58, 87
3, 19980, Note_on_c, 0, 62, 83
3, 19980, Note_on_c, 0, 64, 87
3, 19980, Note_on_c, 0, 43, 76
3, 19980, Note_on_c, 0, 55, 75
3, 20143, Note_on_c, 0, 55, 0
3, 20143, Note_on_c, 0, 64, 0
3, 20143, Note_on_c, 0, 58, 0
3, 20143, Note_on_c, 0, 62, 0
3, 20143, Note_on_c, 0, 43, 0
3, 20160, Note_on_c, 0, 57, 89
3, 20160, Note_on_c, 0, 62, 88
3, 20160, Note_on_c, 0, 65, 88
3, 20160, Note_on_c, 0, 41, 77
3, 20160, Note_on_c, 0, 53, 79
3, 20323, Note_on_c, 0, 53, 0
3, 20323, Note_on_c, 0, 65, 0
3, 20323, Note_on_c, 0, 57, 0
3, 20323, Note_on_c, 0, 62, 0
3, 20323, Note_on_c, 0, 41, 0
3, 20340, Note_on_c, 0, 58, 87
3, 20340, Note_on_c, 0, 62, 86
3, 20340, Note_on_c, 0, 67, 84
3, 20340, Note_on_c, 0, 40, 76
3, 20340, Note_on_c, 0, 52, 75
3, 20503, Note_on_c, 0, 52, 0
3, 20503, Note_on_c, 0, 67, 0
3, 20503, Note_on_c, 0, 58, 0
3, 20503, Note_on_c, 0, 62, 0
3, 20503, Note_on_c, 0, 40, 0
3, 20520, Note_on_c, 0, 60, 89
3, 20520, Note_on_c, 0, 62, 87
3, 20520, Note_on_c, 0, 69, 88
3, 20520, Note_on_c, 0, 38, 79
3, 20520, Note_on_c, 0, 50, 79
3, 20683, Note_on_c, 0, 50, 0
3, 20683, Note_on_c, 0, 69, 0
3, 20683, Note_on_c, 0, 60, 0
3, 20683, Note_on_c, 0, 62, 0
3, 20683, Note_on_c, 0, 38, 0
3, 20700, Note_on_c, 0, 58, 76
3, 20700, Note_on_c, 0, 62, 77
3, 20700, Note_on_c, 0, 67, 74
3, 20700, Note_on_c, 0, 40, 83
3, 20700, Note_on_c, 0, 52, 85
3, 20863, Note_on_c, 0, 52, 0
3, 20863, Note_on_c, 0, 67, 0
3, 20863, Note_on_c, 0, 58, 0
3, 20863, Note_on_c, 0, 62, 0
3, 20863, Note_on_c, 0, 40, 0
3, 20880, Note_on_c, 0, 57, 76
3, 20880, Note_on_c, 0, 62, 79
3, 20880, Note_on_c, 0, 65, 77
3, 20880, Note_on_c, 0, 41, 88
3, 20880, Note_on_c, 0, 53, 87
3, 21043, Note_on_c, 0, 65, 0
3, 21043, Note_on_c, 0, 57, 0
3, 21043, Note_on_c, 0, 62, 0
3, 21060, Note_on_c, 0, 64, 75
3, 21205, Note_on_c, 0, 41, 0
3, 21205, Note_on_c, 0, 53, 0
3, 21223, Note_on_c, 0, 64, 0
3, 21240, Note_on_c, 0, 53, 100
3, 21240, Note_on_c, 0, 59, 98
3, 21240, Note_on_c, 0, 62, 98
3, 21240, Note_on_c, 0, 43, 111
3, 21240, Note_on_c, 0, 55, 114
3, 21565, Note_on_c, 0, 55, 0
3, 21565, Note_on_c, 0, 62, 0
3, 21565, Note_on_c, 0, 53, 0
3, 21565, Note_on_c, 0, 59, 0
3, 21565, Note_on_c, 0, 43, 0
3, 21600, Note_on_c, 0, 52, 113
3, 21600, Note_on_c, 0, 55, 114
3, 21600, Note_on_c, 0, 60, 115
3, 21600, Note_on_c, 0, 64, 114
3, 21600, Note_on_c, 0, 36, 92
3, 21600, Note_on_c, 0, 48, 91
3, 21925, Note_on_c, 0, 48, 0
3, 21925, Note_on_c, 0, 55, 0
3, 21925, Note_on_c, 0, 60, 0
3, 21925, Note_on_c, 0, 52, 0
3, 21925, Note_on_c, 0, 36, 0
3, 21925, Note_on_c, 0, 64, 0
3, 21960, Note_on_c, 0, 52, 74
3, 21960, Note_on_c, 0, 55, 78
3, 21960, Note_on_c, 0, 60, 74
3, 22123, Note_on_c, 0, 60, 0
3, 22123, Note_on_c, 0, 55, 0
3, 22123, Note_on_c, 0, 52, 0
3, 22140, Note_on_c, 0, 53, 84
3, 22140, Note_on_c, 0, 55, 83
3, 22140, Note_on_c, 0, 60, 82
3, 22140, Note_on_c, 0, 62, 84
3, 22303, Note_on_c, 0, 62, 0
3, 22303, Note_on_c, 0, 53, 0
3, 22303, Note_on_c, 0, 55, 0
3, 22303, Note_on_c, 0, 60, 0
3, 22320, Note_on_c, 0, 52, 112
3, 22320, Note_on_c, 0, 55, 112
3, 22320, Note_on_c, 0, 60, 112
3, 22320, Note_on_c, 0, 64, 113
3, 22500, Note_on_c, 0, 31, 74
3, 22500, Note_on_c, 0, 43, 72
3, 22663, Note_on_c, 0, 43, 0
3, 22663, Note_on_c, 0, 31, 0
3, 22680, Note_on_c, 0, 33, 86
3, 22680, Note_on_c, 0, 45, 87
3, 22807, Note_on_c, 0, 60, 0
3, 22807, Note_on_c, 0, 64, 0
3, 22807, Note_on_c, 0, 52, 0
3, 22807, Note_on_c, 0, 55, 0
3, 22843, Note_on_c, 0, 45, 0
3, 22843, Note_on_c, 0, 33, 0
3, 22860, Note_on_c, 0, 51, 79
3, 22860, Note_on_c, 0, 55, 77
3, 22860, Note_on_c, 0, 63, 79
3, 22860, Note_on_c, 0, 35, 86
3, 22860, Note_on_c, 0, 47, 86
3, 23023, Note_on_c, 0, 47, 0
3, 23023, Note_on_c, 0, 63, 0
3, 23023, Note_on_c, 0, 51, 0
3, 23023, Note_on_c, 0, 55, 0
3, 23023, Note_on_c, 0, 35, 0
3, 23040, Note_on_c, 0, 52, 88
3, 23040, Note_on_c, 0, 55, 89
3, 23040, Note_on_c, 0, 60, 87
3, 23040, Note_on_c, 0, 64, 87
3, 23040, Note_on_c, 0, 36, 114
3, 23040, Note_on_c, 0, 48, 115
3, 23203, Note_on_c, 0, 64, 0
3, 23203, Note_on_c, 0, 60, 0
3, 23203, Note_on_c, 0, 52, 0
3, 23203, Note_on_c, 0, 55, 0
3, 23220, Note_on_c, 0, 57, 85
3, 23220, Note_on_c, 0, 64, 87
3, 23220, Note_on_c, 0, 66, 87
3, 23383, Note_on_c, 0, 66, 0
3, 23383, Note_on_c, 0, 57, 0
3, 23383, Note_on_c, 0, 64, 0
3, 23400, Note_on_c, 0, 58, 112
3, 23400, Note_on_c, 0, 64, 111
3, 23400, Note_on_c, 0, 67, 112
3, 23527, Note_on_c, 0, 48, 0
3, 23527, Note_on_c, 0, 36, 0
3, 23580, Note_on_c, 0, 36, 80
3, 23580, Note_on_c, 0, 48, 81
3, 23743, Note_on_c, 0, 48, 0
3, 23743, Note_on_c, 0, 36, 0
3, 23760, Note_on_c, 0, 37, 111
3, 23760, Note_on_c, 0, 49, 108
3, 23923, Note_on_c, 0, 67, 0
3, 23923, Note_on_c, 0, 64, 0
3, 23923, Note_on_c, 0, 58, 0
3, 23940, Note_on_c, 0, 57, 76
3, 23940, Note_on_c, 0, 64, 77
3, 23940, Note_on_c, 0, 66, 75
3, 24103, Note_on_c, 0, 66, 0
3, 24103, Note_on_c, 0, 57, 0
3, 24103, Note_on_c, 0, 64, 0
3, 24120, Note_on_c, 0, 58, 85
3, 24120, Note_on_c, 0, 64, 88
3, 24120, Note_on_c, 0, 67, 85
3, 24247, Note_on_c, 0, 37, 0
3, 24247, Note_on_c, 0, 49, 0
3, 24283, Note_on_c, 0, 64, 0
3, 24283, Note_on_c, 0, 58, 0
3, 24283, Note_on_c, 0, 67, 0
3, 24300, Note_on_c, 0, 57, 84
3, 24300, Note_on_c, 0, 61, 87
3, 24300, Note_on_c, 0, 67, 84
3, 24300, Note_on_c, 0, 69, 86
3, 24300, Note_on_c, 0, 40, 89
3, 24300, Note_on_c, 0, 52, 88
3, 24463, Note_on_c, 0, 52, 0
3, 24463, Note_on_c, 0, 61, 0
3, 24463, Note_on_c, 0, 67, 0
3, 24463, Note_on_c, 0, 57, 0
3, 24463, Note_on_c, 0, 40, 0
3, 24463, Note_on_c, 0, 69, 0
3, 24480, Note_on_c, 0, 59, 117
3, 24480, Note_on_c, 0, 62, 115
3, 24480, Note_on_c, 0, 67, 115
3, 24480, Note_on_c, 0, 71, 115
3, 24480, Note_on_c, 0, 38, 102
3, 24480, Note_on_c, 0, 50, 105
3, 24805, Note_on_c, 0, 71, 0
3, 24805, Note_on_c, 0, 67, 0
3, 24805, Note_on_c, 0, 59, 0
3, 24805, Note_on_c, 0, 62, 0
3, 24840, Note_on_c, 0, 59, 77
3, 24840, Note_on_c, 0, 62, 75
3, 24840, Note_on_c, 0, 67, 75
3, 25003, Note_on_c, 0, 67, 0
3, 25003, Note_on_c, 0, 59, 0
3, 25003, Note_on_c, 0, 62, 0
3, 25020, Note_on_c, 0, 59, 86
3, 25020, Note_on_c, 0, 62, 83
3, 25020, Note_on_c, 0, 69, 85
3, 25183, Note_on_c, 0, 69, 0
3, 25183, Note_on_c, 0, 59, 0
3, 25183, Note_on_c, 0, 62, 0
3, 25200, Note_on_c, 0, 62, 88
3, 25200, Note_on_c, 0, 67, 88
3, 25200, Note_on_c, 0, 71, 88
3, 25363, Note_on_c, 0, 71, 0
3, 25363, Note_on_c, 0, 62, 0
3, 25363, Note_on_c, 0, 67, 0
3, 25380, Note_on_c, 0, 62, 89
3, 25380, Note_on_c, 0, 67, 87
3, 25380, Note_on_c, 0, 71, 89
3, 25380, Note_on_c, 0, 74, 90
3, 25490, Note_on_c, 0, 50, 0
3, 25490, Note_on_c, 0, 38, 0
3, 25543, Note_on_c, 0, 71, 0
3, 25543, Note_on_c, 0, 67, 0
3, 25543, Note_on_c, 0, 74, 0
3, 25543, Note_on_c, 0, 62, 0
3, 25560, Note_on_c, 0, 64, 89
3, 25560, Note_on_c, 0, 67, 88
3, 25560, Note_on_c, 0, 71, 90
3, 25560, Note_on_c, 0, 76, 89
3, 25560, Note_on_c, 0, 43, 91
3, 25560, Note_on_c, 0, 55, 91
3, 25723, Note_on_c, 0, 76, 0
3, 25723, Note_on_c, 0, 71, 0
3, 25723, Note_on_c, 0, 64, 0
3, 25723, Note_on_c, 0, 67, 0
3, 25740, Note_on_c, 0, 66, 84
3, 25740, Note_on_c, 0, 71, 87
3, 25740, Note_on_c, 0, 74, 85
3, 25740, Note_on_c, 0, 78, 87
3, 25903, Note_on_c, 0, 78, 0
3, 25903, Note_on_c, 0, 71, 0
3, 25903, Note_on_c, 0, 66, 0
3, 25903, Note_on_c, 0, 74, 0
3, 25920, Note_on_c, 0, 67, 86
3, 25920, Note_on_c, 0, 71, 87
3, 25920, Note_on_c, 0, 74, 88
3, 25920, Note_on_c, 0, 79, 88
3, 26083, Note_on_c, 0, 79, 0
3, 26083, Note_on_c, 0, 71, 0
3, 26083, Note_on_c, 0, 67, 0
3, 26083, Note_on_c, 0, 74, 0
3, 26100, Note_on_c, 0, 69, 87
3, 26100, Note_on_c, 0, 74, 85
3, 26100, Note_on_c, 0, 81, 88
3, 26245, Note_on_c, 0, 55, 0
3, 26245, Note_on_c, 0, 43, 0
3, 26263, Note_on_c, 0, 74, 0
3, 26263, Note_on_c, 0, 69, 0
3, 26263, Note_on_c, 0, 81, 0
3, 26280, Note_on_c, 0, 71, 113
3, 26280, Note_on_c, 0, 74, 113
3, 26280, Note_on_c, 0, 79, 113
3, 26280, Note_on_c, 0, 83, 113
3, 26280, Note_on_c, 0, 42, 81
3, 26280, Note_on_c, 0, 54, 80
3, 26443, Note_on_c, 0, 54, 0
3, 26443, Note_on_c, 0, 42, 0
3, 26460, Note_on_c, 0, 40, 73
3, 26460, Note_on_c, 0, 52, 74
3, 26623, Note_on_c, 0, 52, 0
3, 26623, Note_on_c, 0, 40, 0
3, 26640, Note_on_c, 0, 38, 96
3, 26640, Note_on_c, 0, 50, 99
3, 27127, Note_on_c, 0, 50, 0
3, 27127, Note_on_c, 0, 38, 0
3, 27163, Note_on_c, 0, 79, 0
3, 27163, Note_on_c, 0, 71, 0
3, 27163, Note_on_c, 0, 74, 0
3, 27163, Note_on_c, 0, 83, 0
3, 27180, Note_on_c, 0, 62, 79
3, 27180, Note_on_c, 0, 67, 79
3, 27180, Note_on_c, 0, 71, 77
3, 27180, Note_on_c, 0, 40, 112
3, 27180, Note_on_c, 0, 52, 113
3, 27343, Note_on_c, 0, 52, 0
3, 27343, Note_on_c, 0, 71, 0
3, 27343, Note_on_c, 0, 62, 0
3, 27343, Note_on_c, 0, 67, 0
3, 27343, Note_on_c, 0, 40, 0
3, 27360, Note_on_c, 0, 60, 110
3, 27360, Note_on_c, 0, 67, 108
3, 27360, Note_on_c, 0, 72, 109
3, 27360, Note_on_c, 0, 33, 89
3, 27360, Note_on_c, 0, 45, 91
3, 27685, Note_on_c, 0, 45, 0
3, 27685, Note_on_c, 0, 72, 0
3, 27685, Note_on_c, 0, 60, 0
3, 27685, Note_on_c, 0, 67, 0
3, 27685, Note_on_c, 0, 33, 0
3, 27720, Note_on_c, 0, 60, 111
3, 27720, Note_on_c, 0, 62, 110
3, 27720, Note_on_c, 0, 66, 111
3, 27720, Note_on_c, 0, 74, 113
3, 27720, Note_on_c, 0, 36, 111
3, 27720, Note_on_c, 0, 48, 109
3, 28045, Note_on_c, 0, 48, 0
3, 28045, Note_on_c, 0, 62, 0
3, 28045, Note_on_c, 0, 66, 0
3, 28045, Note_on_c, 0, 60, 0
3, 28045, Note_on_c, 0, 36, 0
3, 28045, Note_on_c, 0, 74, 0
3, 28080, Note_on_c, 0, 59, 97
3, 28080, Note_on_c, 0, 62, 100
3, 28080, Note_on_c, 0, 67, 98
3, 28080, Note_on_c, 0, 71, 99
3, 28080, Note_on_c, 0, 31, 91
3, 28080, Note_on_c, 0, 43, 93
3, 28405, Note_on_c, 0, 43, 0
3, 28405, Note_on_c, 0, 62, 0
3, 28405, Note_on_c, 0, 67, 0
3, 28405, Note_on_c, 0, 59, 0
3, 28405, Note_on_c, 0, 31, 0
3, 28405, Note_on_c, 0, 71, 0
3, 28440, Note_on_c, 0, 31, 82
3, 28440, Note_on_c, 0, 43, 81
3, 28529, Note_on_c, 0, 43, 0
3, 28529, Note_on_c, 0, 31, 0
3, 28620, Note_on_c, 0, 31, 81
3, 28620, Note_on_c, 0, 43, 79
3, 28709, Note_on_c, 0, 43, 0
3, 28709, Note_on_c, 0, 31, 0
3, 28800, Note_on_c, 0, 31, 83
3, 28800, Note_on_c, 0, 43, 83
3, 28889, Note_on_c, 0, 43, 0
3, 28889, Note_on_c, 0, 31, 0
3, 28980, Note_on_c, 0, 31, 82
3, 28980, Note_on_c, 0, 43, 81
3, 29069, Note_on_c, 0, 43, 0
3, 29069, Note_on_c, 0, 31, 0
3, 29160, Note_on_c, 0, 57, 75
3, 29160, Note_on_c, 0, 31, 83
3, 29160, Note_on_c, 0, 43, 83
3, 29249, Note_on_c, 0, 43, 0
3, 29249, Note_on_c, 0, 31, 0
3, 29249, Note_on_c, 0, 57, 0
3, 29340, Note_on_c, 0, 58, 83
3, 29340, Note_on_c, 0, 31, 81
3, 29340, Note_on_c, 0, 43, 82
3, 29429, Note_on_c, 0, 43, 0
3, 29429, Note_on_c, 0, 31, 0
3, 29429, Note_on_c, 0, 58, 0
3, 29520, Note_on_c, 0, 50, 109
3, 29520, Note_on_c, 0, 53, 110
3, 29520, Note_on_c, 0, 59, 108
3, 29520, Note_on_c, 0, 31, 82
3, 29520, Note_on_c, 0, 43, 85
3, 29609, Note_on_c, 0, 43, 0
3, 29609, Note_on_c, 0, 31, 0
3, 29700, Note_on_c, 0, 31, 81
3, 29700, Note_on_c, 0, 43, 82
3, 29789, Note_on_c, 0, 43, 0
3, 29789, Note_on_c, 0, 31, 0
3, 29880, Note_on_c, 0, 31, 86
3, 29880, Note_on_c, 0, 43, 83
3, 29969, Note_on_c, 0, 43, 0
3, 29969, Note_on_c, 0, 31, 0
3, 30060, Note_on_c, 0, 31, 82
3, 30060, Note_on_c, 0, 43, 83
3, 30149, Note_on_c, 0, 43, 0
3, 30149, Note_on_c, 0, 31, 0
3, 30170, Note_on_c, 0, 53, 0
3, 30240, Note_on_c, 0, 53, 85
3, 30240, Note_on_c, 0, 31, 84
3, 30240, Note_on_c, 0, 43, 86
3, 30329, Note_on_c, 0, 43, 0
3, 30329, Note_on_c, 0, 31, 0
3, 30420, Note_on_c, 0, 31, 83
3, 30420, Note_on_c, 0, 43, 82
3, 30509, Note_on_c, 0, 43, 0
3, 30509, Note_on_c, 0, 31, 0
3, 30565, Note_on_c, 0, 53, 0
3, 30565, Note_on_c, 0, 59, 0
3, 30565, Note_on_c, 0, 50, 0
3, 30600, Note_on_c, 0, 50, 82
3, 30600, Note_on_c, 0, 53, 82
3, 30600, Note_on_c, 0, 58, 82
3, 30600, Note_on_c, 0, 31, 83
3, 30600, Note_on_c, 0, 43, 83
3, 30689, Note_on_c, 0, 43, 0
3, 30689, Note_on_c, 0, 31, 0
3, 30780, Note_on_c, 0, 31, 82
3, 30780, Note_on_c, 0, 43, 82
3, 30869, Note_on_c, 0, 43, 0
3, 30869, Note_on_c, 0, 31, 0
3, 30960, Note_on_c, 0, 58, 0
3, 30960, Note_on_c, 0, 53, 0
3, 30960, Note_on_c, 0, 50, 0
3, 30960, Note_on_c, 0, 50, 92
3, 30960, Note_on_c, 0, 53, 92
3, 30960, Note_on_c, 0, 59, 89
3, 30960, Note_on_c, 0, 31, 86
3, 30960, Note_on_c, 0, 43, 84
3, 31049, Note_on_c, 0, 43, 0
3, 31049, Note_on_c, 0, 31, 0
3, 31140, Note_on_c, 0, 31, 83
3, 31140, Note_on_c, 0, 43, 83
3, 31229, Note_on_c, 0, 43, 0
3, 31229, Note_on_c, 0, 31, 0
3, 31320, Note_on_c, 0, 31, 83
3, 31320, Note_on_c, 0, 43, 85
3, 31409, Note_on_c, 0, 43, 0
3, 31409, Note_on_c, 0, 31, 0
3, 31500, Note_on_c, 0, 31, 83
3, 31500, Note_on_c, 0, 43, 81
3, 31589, Note_on_c, 0, 43, 0
3, 31589, Note_on_c, 0, 31, 0
3, 31680, Note_on_c, 0, 59, 0
3, 31680, Note_on_c, 0, 53, 0
3, 31680, Note_on_c, 0, 50, 0
3, 31680, Note_on_c, 0, 31, 86
3, 31680, Note_on_c, 0, 43, 83
3, 31769, Note_on_c, 0, 43, 0
3, 31769, Note_on_c, 0, 31, 0
3, 31860, Note_on_c, 0, 62, 74
3, 31860, Note_on_c, 0, 74, 71
3, 31860, Note_on_c, 0, 31, 81
3, 31860, Note_on_c, 0, 43, 82
3, 31949, Note_on_c, 0, 43, 0
3, 31949, Note_on_c, 0, 62, 0
3, 31949, Note_on_c, 0, 74, 0
3, 31949, Note_on_c, 0, 31, 0
3, 32040, Note_on_c, 0, 64, 87
3, 32040, Note_on_c, 0, 76, 88
3, 32040, Note_on_c, 0, 31, 86
3, 32040, Note_on_c, 0, 43, 85
3, 32129, Note_on_c, 0, 43, 0
3, 32129, Note_on_c, 0, 64, 0
3, 32129, Note_on_c, 0, 76, 0
3, 32129, Note_on_c, 0, 31, 0
3, 32220, Note_on_c, 0, 65, 85
3, 32220, Note_on_c, 0, 77, 85
3, 32220, Note_on_c, 0, 31, 81
3, 32220, Note_on_c, 0, 43, 79
3, 32309, Note_on_c, 0, 43, 0
3, 32309, Note_on_c, 0, 65, 0
3, 32309, Note_on_c, 0, 77, 0
3, 32309, Note_on_c, 0, 31, 0
3, 32400, Note_on_c, 0, 67, 91
3, 32400, Note_on_c, 0, 76, 91
3, 32400, Note_on_c, 0, 79, 91
3, 32400, Note_on_c, 0, 31, 84
3, 32400, Note_on_c, 0, 43, 86
3, 32489, Note_on_c, 0, 43, 0
3, 32489, Note_on_c, 0, 31, 0
3, 32580, Note_on_c, 0, 31, 82
3, 32580, Note_on_c, 0, 43, 81
3, 32669, Note_on_c, 0, 43, 0
3, 32669, Note_on_c, 0, 31, 0
3, 32760, Note_on_c, 0, 79, 0
3, 32760, Note_on_c, 0, 76, 0
3, 32760, Note_on_c, 0, 67, 0
3, 32760, Note_on_c, 0, 55, 63
3, 32760, Note_on_c, 0, 31, 86
3, 32760, Note_on_c, 0, 43, 82
3, 32849, Note_on_c, 0, 43, 0
3, 32849, Note_on_c, 0, 31, 0
3, 32849, Note_on_c, 0, 55, 0
3, 32940, Note_on_c, 0, 55, 78
3, 32940, Note_on_c, 0, 31, 82
3, 32940, Note_on_c, 0, 43, 81
3, 33029, Note_on_c, 0, 43, 0
3, 33029, Note_on_c, 0, 31, 0
3, 33029, Note_on_c, 0, 55, 0
3, 33120, Note_on_c, 0, 55, 83
3, 33120, Note_on_c, 0, 31, 86
3, 33120, Note_on_c, 0, 43, 83
3, 33209, Note_on_c, 0, 43, 0
3, 33209, Note_on_c, 0, 31, 0
3, 33209, Note_on_c, 0, 55, 0
3, 33300, Note_on_c, 0, 57, 87
3, 33300, Note_on_c, 0, 31, 80
3, 33300, Note_on_c, 0, 43, 81
3, 33389, Note_on_c, 0, 43, 0
3, 33389, Note_on_c, 0, 31, 0
3, 33389, Note_on_c, 0, 57, 0
3, 33480, Note_on_c, 0, 55, 91
3, 33480, Note_on_c, 0, 58, 90
3, 33480, Note_on_c, 0, 31, 83
3, 33480, Note_on_c, 0, 43, 84
3, 33569, Note_on_c, 0, 43, 0
3, 33569, Note_on_c, 0, 31, 0
3, 33660, Note_on_c, 0, 31, 81
3, 33660, Note_on_c, 0, 43, 83
3, 33749, Note_on_c, 0, 43, 0
3, 33749, Note_on_c, 0, 31, 0
3, 33840, Note_on_c, 0, 31, 85
3, 33840, Note_on_c, 0, 43, 84
3, 33929, Note_on_c, 0, 43, 0
3, 33929, Note_on_c, 0, 31, 0
3, 34020, Note_on_c, 0, 31, 82
3, 34020, Note_on_c, 0, 43, 82
3, 34109, Note_on_c, 0, 43, 0
3, 34109, Note_on_c, 0, 31, 0
3, 34200, Note_on_c, 0, 31, 84
3, 34200, Note_on_c, 0, 43, 85
3, 34289, Note_on_c, 0, 43, 0
3, 34289, Note_on_c, 0, 31, 0
3, 34380, Note_on_c, 0, 31, 82
3, 34380, Note_on_c, 0, 43, 82
3, 34469, Note_on_c, 0, 43, 0
3, 34469, Note_on_c, 0, 31, 0
3, 34560, Note_on_c, 0, 58, 0
3, 34560, Note_on_c, 0, 55, 0
3, 34560, Note_on_c, 0, 31, 84
3, 34560, Note_on_c, 0, 43, 84
3, 34649, Note_on_c, 0, 43, 0
3, 34649, Note_on_c, 0, 31, 0
3, 34740, Note_on_c, 0, 32, 83
3, 34740, Note_on_c, 0, 44, 82
3, 34829, Note_on_c, 0, 44, 0
3, 34829, Note_on_c, 0, 32, 0
3, 34920, Note_on_c, 0, 33, 87
3, 34920, Note_on_c, 0, 45, 88
3, 35083, Note_on_c, 0, 45, 0
3, 35083, Note_on_c, 0, 33, 0
3, 35100, Note_on_c, 0, 33, 81
3, 35100, Note_on_c, 0, 45, 79
3, 35263, Note_on_c, 0, 45, 0
3, 35263, Note_on_c, 0, 33, 0
3, 35280, Note_on_c, 0, 52, 76
3, 35280, Note_on_c, 0, 64, 78
3, 35280, Note_on_c, 0, 33, 86
3, 35280, Note_on_c, 0, 45, 83
3, 35369, Note_on_c, 0, 64, 0
3, 35369, Note_on_c, 0, 52, 0
3, 35443, Note_on_c, 0, 33, 0
3, 35443, Note_on_c, 0, 45, 0
3, 35460, Note_on_c, 0, 53, 84
3, 35460, Note_on_c, 0, 65, 85
3, 35460, Note_on_c, 0, 33, 82
3, 35460, Note_on_c, 0, 45, 81
3, 35549, Note_on_c, 0, 65, 0
3, 35549, Note_on_c, 0, 53, 0
3, 35623, Note_on_c, 0, 33, 0
3, 35623, Note_on_c, 0, 45, 0
3, 35640, Note_on_c, 0, 55, 87
3, 35640, Note_on_c, 0, 67, 88
3, 35640, Note_on_c, 0, 33, 85
3, 35640, Note_on_c, 0, 45, 84
3, 35729, Note_on_c, 0, 67, 0
3, 35729, Note_on_c, 0, 55, 0
3, 35803, Note_on_c, 0, 33, 0
3, 35803, Note_on_c, 0, 45, 0
3, 35820, Note_on_c, 0, 57, 85
3, 35820, Note_on_c, 0, 69, 85
3, 35820, Note_on_c, 0, 33, 82
3, 35820, Note_on_c, 0, 45, 80
3, 35909, Note_on_c, 0, 69, 0
3, 35909, Note_on_c, 0, 57, 0
3, 35983, Note_on_c, 0, 33, 0
3, 35983, Note_on_c, 0, 45, 0
3, 36000, Note_on_c, 0, 58, 89
3, 36000, Note_on_c, 0, 70, 88
3, 36000, Note_on_c, 0, 33, 85
3, 36000, Note_on_c, 0, 45, 85
3, 36163, Note_on_c, 0, 45, 0
3, 36163, Note_on_c, 0, 33, 0
3, 36180, Note_on_c, 0, 33, 82
3, 36180, Note_on_c, 0, 45, 82
3, 36343, Note_on_c, 0, 45, 0
3, 36343, Note_on_c, 0, 33, 0
3, 36360, Note_on_c, 0, 33, 83
3, 36360, Note_on_c, 0, 45, 83
3, 36523, Note_on_c, 0, 45, 0
3, 36523, Note_on_c, 0, 33, 0
3, 36540, Note_on_c, 0, 33, 82
3, 36540, Note_on_c, 0, 45, 80
3, 36703, Note_on_c, 0, 45, 0
3, 36703, Note_on_c, 0, 33, 0
3, 36720, Note_on_c, 0, 33, 83
3, 36720, Note_on_c, 0, 45, 84
3, 36883, Note_on_c, 0, 45, 0
3, 36883, Note_on_c, 0, 33, 0
3, 36900, Note_on_c, 0, 33, 82
3, 36900, Note_on_c, 0, 45, 81
3, 37010, Note_on_c, 0, 70, 0
3, 37010, Note_on_c, 0, 58, 0
3, 37063, Note_on_c, 0, 33, 0
3, 37063, Note_on_c, 0, 45, 0
3, 37080, Note_on_c, 0, 57, 78
3, 37080, Note_on_c, 0, 69, 76
3, 37080, Note_on_c, 0, 33, 83
3, 37080, Note_on_c, 0, 45, 83
3, 37243, Note_on_c, 0, 45, 0
3, 37243, Note_on_c, 0, 33, 0
3, 37260, Note_on_c, 0, 33, 81
3, 37260, Note_on_c, 0, 45, 81
3, 37423, Note_on_c, 0, 45, 0
3, 37423, Note_on_c, 0, 33, 0
3, 37440, Note_on_c, 0, 33, 84
3, 37440, Note_on_c, 0, 45, 84
3, 37603, Note_on_c, 0, 45, 0
3, 37603, Note_on_c, 0, 57, 0
3, 37603, Note_on_c, 0, 69, 0
3, 37603, Note_on_c, 0, 33, 0
3, 37620, Note_on_c, 0, 33, 81
3, 37620, Note_on_c, 0, 45, 82
3, 37783, Note_on_c, 0, 45, 0
3, 37783, Note_on_c, 0, 33, 0
3, 37800, Note_on_c, 0, 50, 76
3, 37800, Note_on_c, 0, 53, 75
3, 37800, Note_on_c, 0, 58, 76
3, 37800, Note_on_c, 0, 34, 85
3, 37800, Note_on_c, 0, 46, 82
3, 37963, Note_on_c, 0, 58, 0
3, 37963, Note_on_c, 0, 50, 0
3, 37963, Note_on_c, 0, 53, 0
3, 37980, Note_on_c, 0, 51, 83
3, 37980, Note_on_c, 0, 53, 84
3, 37980, Note_on_c, 0, 58, 86
3, 37980, Note_on_c, 0, 60, 84
3, 38143, Note_on_c, 0, 60, 0
3, 38143, Note_on_c, 0, 53, 0
3, 38143, Note_on_c, 0, 51, 0
3, 38143, Note_on_c, 0, 58, 0
3, 38160, Note_on_c, 0, 50, 86
3, 38160, Note_on_c, 0, 53, 86
3, 38160, Note_on_c, 0, 58, 88
3, 38160, Note_on_c, 0, 62, 86
3, 38323, Note_on_c, 0, 46, 0
3, 38323, Note_on_c, 0, 34, 0
3, 38340, Note_on_c, 0, 29, 69
3, 38340, Note_on_c, 0, 41, 69
3, 38503, Note_on_c, 0, 41, 0
3, 38503, Note_on_c, 0, 29, 0
3, 38520, Note_on_c, 0, 31, 86
3, 38520, Note_on_c, 0, 43, 87
3, 38683, Note_on_c, 0, 43, 0
3, 38683, Note_on_c, 0, 31, 0
3, 38700, Note_on_c, 0, 33, 85
3, 38700, Note_on_c, 0, 45, 85
3, 38863, Note_on_c, 0, 45, 0
3, 38863, Note_on_c, 0, 33, 0
3, 38880, Note_on_c, 0, 34, 86
3, 38880, Note_on_c, 0, 46, 87
3, 39043, Note_on_c, 0, 50, 0
3, 39043, Note_on_c, 0, 58, 0
3, 39043, Note_on_c, 0, 53, 0
3, 39043, Note_on_c, 0, 62, 0
3, 39060, Note_on_c, 0, 52, 77
3, 39060, Note_on_c, 0, 58, 77
3, 39060, Note_on_c, 0, 61, 76
3, 39223, Note_on_c, 0, 61, 0
3, 39223, Note_on_c, 0, 52, 0
3, 39223, Note_on_c, 0, 58, 0
3, 39240, Note_on_c, 0, 53, 85
3, 39240, Note_on_c, 0, 58, 84
3, 39240, Note_on_c, 0, 62, 85
3, 39403, Note_on_c, 0, 62, 0
3, 39403, Note_on_c, 0, 53, 0
3, 39403, Note_on_c, 0, 58, 0
3, 39420, Note_on_c, 0, 55, 85
3, 39420, Note_on_c, 0, 62, 83
3, 39420, Note_on_c, 0, 64, 86
3, 39583, Note_on_c, 0, 64, 0
3, 39583, Note_on_c, 0, 55, 0
3, 39583, Note_on_c, 0, 62, 0
3, 39600, Note_on_c, 0, 53, 87
3, 39600, Note_on_c, 0, 62, 86
3, 39600, Note_on_c, 0, 65, 86
3, 39763, Note_on_c, 0, 46, 0
3, 39763, Note_on_c, 0, 34, 0
3, 39780, Note_on_c, 0, 33, 76
3, 39780, Note_on_c, 0, 45, 78
3, 39943, Note_on_c, 0, 45, 0
3, 39943, Note_on_c, 0, 33, 0
3, 39960, Note_on_c, 0, 35, 89
3, 39960, Note_on_c, 0, 47, 86
3, 40123, Note_on_c, 0, 47, 0
3, 40123, Note_on_c, 0, 35, 0
3, 40140, Note_on_c, 0, 37, 86
3, 40140, Note_on_c, 0, 49, 87
3, 40303, Note_on_c, 0, 49, 0
3, 40303, Note_on_c, 0, 37, 0
3, 40320, Note_on_c, 0, 38, 89
3, 40320, Note_on_c, 0, 50, 89
3, 40483, Note_on_c, 0, 65, 0
3, 40483, Note_on_c, 0, 62, 0
3, 40483, Note_on_c, 0, 53, 0
3, 40500, Note_on_c, 0, 55, 77
3, 40500, Note_on_c, 0, 62, 78
3, 40500, Note_on_c, 0, 64, 75
3, 40645, Note_on_c, 0, 38, 0
3, 40645, Note_on_c, 0, 50, 0
3, 40663, Note_on_c, 0, 62, 0
3, 40663, Note_on_c, 0, 55, 0
3, 40663, Note_on_c, 0, 64, 0
3, 40680, Note_on_c, 0, 57, 86
3, 40680, Note_on_c, 0, 62, 87
3, 40680, Note_on_c, 0, 65, 84
3, 40680, Note_on_c, 0, 38, 83
3, 40680, Note_on_c, 0, 50, 83
3, 40843, Note_on_c, 0, 50, 0
3, 40843, Note_on_c, 0, 65, 0
3, 40843, Note_on_c, 0, 57, 0
3, 40843, Note_on_c, 0, 62, 0
3, 40843, Note_on_c, 0, 38, 0
3, 40860, Note_on_c, 0, 55, 83
3, 40860, Note_on_c, 0, 62, 85
3, 40860, Note_on_c, 0, 67, 85
3, 40860, Note_on_c, 0, 40, 85
3, 40860, Note_on_c, 0, 52, 86
3, 41023, Note_on_c, 0, 52, 0
3, 41023, Note_on_c, 0, 67, 0
3, 41023, Note_on_c, 0, 55, 0
3, 41023, Note_on_c, 0, 62, 0
3, 41023, Note_on_c, 0, 40, 0
3, 41040, Note_on_c, 0, 57, 88
3, 41040, Note_on_c, 0, 62, 90
3, 41040, Note_on_c, 0, 69, 88
3, 41040, Note_on_c, 0, 41, 83
3, 41040, Note_on_c, 0, 53, 83
3, 41203, Note_on_c, 0, 69, 0
3, 41203, Note_on_c, 0, 57, 0
3, 41203, Note_on_c, 0, 62, 0
3, 41220, Note_on_c, 0, 55, 75
3, 41220, Note_on_c, 0, 67, 76
3, 41365, Note_on_c, 0, 41, 0
3, 41365, Note_on_c, 0, 53, 0
3, 41383, Note_on_c, 0, 55, 0
3, 41383, Note_on_c, 0, 67, 0
3, 41400, Note_on_c, 0, 57, 89
3, 41400, Note_on_c, 0, 61, 88
3, 41400, Note_on_c, 0, 67, 89
3, 41400, Note_on_c, 0, 69, 88
3, 41400, Note_on_c, 0, 40, 77
3, 41400, Note_on_c, 0, 52, 77
3, 41563, Note_on_c, 0, 69, 0
3, 41563, Note_on_c, 0, 67, 0
3, 41563, Note_on_c, 0, 57, 0
3, 41563, Note_on_c, 0, 61, 0
3, 41580, Note_on_c, 0, 59, 88
3, 41580, Note_on_c, 0, 71, 86
3, 41725, Note_on_c, 0, 52, 0
3, 41725, Note_on_c, 0, 40, 0
3, 41743, Note_on_c, 0, 59, 0
3, 41743, Note_on_c, 0, 71, 0
3, 41760, Note_on_c, 0, 60, 87
3, 41760, Note_on_c, 0, 65, 88
3, 41760, Note_on_c, 0, 69, 87
3, 41760, Note_on_c, 0, 72, 86
3, 41760, Note_on_c, 0, 38, 81
3, 41760, Note_on_c, 0, 50, 79
3, 41923, Note_on_c, 0, 72, 0
3, 41923, Note_on_c, 0, 69, 0
3, 41923, Note_on_c, 0, 60, 0
3, 41923, Note_on_c, 0, 65, 0
3, 41940, Note_on_c, 0, 62, 86
3, 41940, Note_on_c, 0, 74, 88
3, 42085, Note_on_c, 0, 50, 0
3, 42085, Note_on_c, 0, 38, 0
3, 42103, Note_on_c, 0, 62, 0
3, 42103, Note_on_c, 0, 74, 0
3, 42120, Note_on_c, 0, 64, 88
3, 42120, Note_on_c, 0, 68, 87
3, 42120, Note_on_c, 0, 76, 89
3, 42120, Note_on_c, 0, 36, 76
3, 42120, Note_on_c, 0, 48, 74
3, 42283, Note_on_c, 0, 76, 0
3, 42283, Note_on_c, 0, 64, 0
3, 42283, Note_on_c, 0, 68, 0
3, 42300, Note_on_c, 0, 65, 84
3, 42300, Note_on_c, 0, 77, 85
3, 42445, Note_on_c, 0, 36, 0
3, 42445, Note_on_c, 0, 48, 0
3, 42463, Note_on_c, 0, 65, 0
3, 42463, Note_on_c, 0, 77, 0
3, 42480, Note_on_c, 0, 67, 90
3, 42480, Note_on_c, 0, 74, 88
3, 42480, Note_on_c, 0, 77, 89
3, 42480, Note_on_c, 0, 79, 89
3, 42480, Note_on_c, 0, 35, 80
3, 42480, Note_on_c, 0, 47, 79
3, 42643, Note_on_c, 0, 47, 0
3, 42643, Note_on_c, 0, 74, 0
3, 42643, Note_on_c, 0, 77, 0
3, 42643, Note_on_c, 0, 67, 0
3, 42643, Note_on_c, 0, 35, 0
3, 42643, Note_on_c, 0, 79, 0
3, 42660, Note_on_c, 0, 55, 62
3, 42660, Note_on_c, 0, 67, 58
3, 42660, Note_on_c, 0, 33, 76
3, 42660, Note_on_c, 0, 45, 76
3, 42823, Note_on_c, 0, 45, 0
3, 42823, Note_on_c, 0, 55, 0
3, 42823, Note_on_c, 0, 67, 0
3, 42823, Note_on_c, 0, 33, 0
3, 42840, Note_on_c, 0, 57, 86
3, 42840, Note_on_c, 0, 62, 86
3, 42840, Note_on_c, 0, 65, 86
3, 42840, Note_on_c, 0, 69, 86
3, 42840, Note_on_c, 0, 31, 77
3, 42840, Note_on_c, 0, 43, 73
3, 43003, Note_on_c, 0, 69, 0
3, 43003, Note_on_c, 0, 65, 0
3, 43003, Note_on_c, 0, 57, 0
3, 43003, Note_on_c, 0, 62, 0
3, 43020, Note_on_c, 0, 59, 87
3, 43020, Note_on_c, 0, 71, 86
3, 43165, Note_on_c, 0, 43, 0
3, 43165, Note_on_c, 0, 31, 0
3, 43183, Note_on_c, 0, 59, 0
3, 43183, Note_on_c, 0, 71, 0
3, 43200, Note_on_c, 0, 60, 88
3, 43200, Note_on_c, 0, 64, 89
3, 43200, Note_on_c, 0, 67, 90
3, 43200, Note_on_c, 0, 72, 89
3, 43200, Note_on_c, 0, 36, 95
3, 43200, Note_on_c, 0, 48, 94
3, 43525, Note_on_c, 0, 48, 0
3, 43525, Note_on_c, 0, 64, 0
3, 43525, Note_on_c, 0, 67, 0
3, 43525, Note_on_c, 0, 60, 0
3, 43525, Note_on_c, 0, 36, 0
3, 43525, Note_on_c, 0, 72, 0
3, 43560, Note_on_c, 0, 52, 64
3, 43560, Note_on_c, 0, 55, 61
3, 43560, Note_on_c, 0, 60, 64
3, 43723, Note_on_c, 0, 60, 0
3, 43723, Note_on_c, 0, 55, 0
3, 43723, Note_on_c, 0, 52, 0
3, 43740, Note_on_c, 0, 53, 81
3, 43740, Note_on_c, 0, 55, 83
3, 43740, Note_on_c, 0, 60, 81
3, 43740, Note_on_c, 0, 62, 81
3, 43903, Note_on_c, 0, 62, 0
3, 43903, Note_on_c, 0, 53, 0
3, 43903, Note_on_c, 0, 55, 0
3, 43903, Note_on_c, 0, 60, 0
3, 43920, Note_on_c, 0, 52, 114
3, 43920, Note_on_c, 0, 55, 113
3, 43920, Note_on_c, 0, 60, 112
3, 43920, Note_on_c, 0, 64, 111
3, 44100, Note_on_c, 0, 31, 75
3, 44100, Note_on_c, 0, 43, 73
3, 44263, Note_on_c, 0, 43, 0
3, 44263, Note_on_c, 0, 31, 0
3, 44280, Note_on_c, 0, 33, 88
3, 44280, Note_on_c, 0, 45, 87
3, 44443, Note_on_c, 0, 45, 0
3, 44443, Note_on_c, 0, 33, 0
3, 44460, Note_on_c, 0, 35, 87
3, 44460, Note_on_c, 0, 47, 86
3, 44623, Note_on_c, 0, 47, 0
3, 44623, Note_on_c, 0, 35, 0
3, 44640, Note_on_c, 0, 36, 114
3, 44640, Note_on_c, 0, 48, 115
3, 44965, Note_on_c, 0, 60, 0
3, 44965, Note_on_c, 0, 64, 0
3, 44965, Note_on_c, 0, 52, 0
3, 44965, Note_on_c, 0, 55, 0
3, 45000, Note_on_c, 0, 52, 77
3, 45000, Note_on_c, 0, 55, 75
3, 45000, Note_on_c, 0, 60, 75
3, 45163, Note_on_c, 0, 60, 0
3, 45163, Note_on_c, 0, 52, 0
3, 45163, Note_on_c, 0, 55, 0
3, 45180, Note_on_c, 0, 53, 82
3, 45180, Note_on_c, 0, 55, 83
3, 45180, Note_on_c, 0, 60, 85
3, 45180, Note_on_c, 0, 62, 84
3, 45343, Note_on_c, 0, 62, 0
3, 45343, Note_on_c, 0, 55, 0
3, 45343, Note_on_c, 0, 53, 0
3, 45343, Note_on_c, 0, 60, 0
3, 45360, Note_on_c, 0, 52, 88
3, 45360, Note_on_c, 0, 55, 88
3, 45360, Note_on_c, 0, 60, 90
3, 45360, Note_on_c, 0, 64, 91
3, 45523, Note_on_c, 0, 64, 0
3, 45523, Note_on_c, 0, 36, 0
3, 45523, Note_on_c, 0, 52, 0
3, 45523, Note_on_c, 0, 48, 0
3, 45523, Note_on_c, 0, 60, 0
3, 45523, Note_on_c, 0, 55, 0
3, 45540, Note_on_c, 0, 53, 86
3, 45540, Note_on_c, 0, 60, 87
3, 45540, Note_on_c, 0, 65, 84
3, 45540, Note_on_c, 0, 38, 83
3, 45540, Note_on_c, 0, 50, 86
3, 45703, Note_on_c, 0, 50, 0
3, 45703, Note_on_c, 0, 65, 0
3, 45703, Note_on_c, 0, 53, 0
3, 45703, Note_on_c, 0, 60, 0
3, 45703, Note_on_c, 0, 38, 0
3, 45720, Note_on_c, 0, 55, 88
3, 45720, Note_on_c, 0, 60, 89
3, 45720, Note_on_c, 0, 67, 88
3, 45720, Note_on_c, 0, 40, 89
3, 45720, Note_on_c, 0, 52, 90
3, 45883, Note_on_c, 0, 52, 0
3, 45883, Note_on_c, 0, 67, 0
3, 45883, Note_on_c, 0, 55, 0
3, 45883, Note_on_c, 0, 60, 0
3, 45883, Note_on_c, 0, 40, 0
3, 45900, Note_on_c, 0, 57, 74
3, 45900, Note_on_c, 0, 60, 75
3, 45900, Note_on_c, 0, 65, 77
3, 45900, Note_on_c, 0, 41, 84
3, 45900, Note_on_c, 0, 53, 85
3, 46063, Note_on_c, 0, 53, 0
3, 46063, Note_on_c, 0, 65, 0
3, 46063, Note_on_c, 0, 57, 0
3, 46063, Note_on_c, 0, 60, 0
3, 46063, Note_on_c, 0, 41, 0
3, 46080, Note_on_c, 0, 52, 78
3, 46080, Note_on_c, 0, 60, 78
3, 46080, Note_on_c, 0, 64, 79
3, 46080, Note_on_c, 0, 43, 88
3, 46080, Note_on_c, 0, 55, 88
3, 46243, Note_on_c, 0, 64, 0
3, 46243, Note_on_c, 0, 52, 0
3, 46243, Note_on_c, 0, 60, 0
3, 46260, Note_on_c, 0, 53, 75
3, 46260, Note_on_c, 0, 59, 74
3, 46260, Note_on_c, 0, 62, 75
3, 46405, Note_on_c, 0, 43, 0
3, 46405, Note_on_c, 0, 55, 0
3, 46423, Note_on_c, 0, 59, 0
3, 46423, Note_on_c, 0, 53, 0
3, 46423, Note_on_c, 0, 62, 0
3, 46440, Note_on_c, 0, 52, 77
3, 46440, Note_on_c, 0, 57, 79
3, 46440, Note_on_c, 0, 60, 80
3, 46440, Note_on_c, 0, 31, 59
3, 46440, Note_on_c, 0, 43, 60
3, 46603, Note_on_c, 0, 60, 0
3, 46603, Note_on_c, 0, 52, 0
3, 46603, Note_on_c, 0, 57, 0
3, 46620, Note_on_c, 0, 53, 87
3, 46620, Note_on_c, 0, 59, 84
3, 46620, Note_on_c, 0, 62, 83
3, 46765, Note_on_c, 0, 31, 0
3, 46765, Note_on_c, 0, 43, 0
3, 46783, Note_on_c, 0, 59, 0
3, 46783, Note_on_c, 0, 53, 0
3, 46783, Note_on_c, 0, 62, 0
3, 46800, Note_on_c, 0, 52, 86
3, 46800, Note_on_c, 0, 55, 87
3, 46800, Note_on_c, 0, 60, 88
3, 46800, Note_on_c, 0, 64, 84
3, 46800, Note_on_c, 0, 36, 89
3, 46800, Note_on_c, 0, 48, 89
3, 46963, Note_on_c, 0, 48, 0
3, 46963, Note_on_c, 0, 36, 0
3, 46980, Note_on_c, 0, 38, 87
3, 46980, Note_on_c, 0, 50, 87
3, 47125, Note_on_c, 0, 60, 0
3, 47125, Note_on_c, 0, 64, 0
3, 47125, Note_on_c, 0, 52, 0
3, 47125, Note_on_c, 0, 55, 0
3, 47143, Note_on_c, 0, 50, 0
3, 47143, Note_on_c, 0, 38, 0
3, 47160, Note_on_c, 0, 48, 78
3, 47160, Note_on_c, 0, 55, 75
3, 47160, Note_on_c, 0, 60, 78
3, 47160, Note_on_c, 0, 40, 87
3, 47160, Note_on_c, 0, 52, 89
3, 47323, Note_on_c, 0, 52, 0
3, 47323, Note_on_c, 0, 60, 0
3, 47323, Note_on_c, 0, 48, 0
3, 47323, Note_on_c, 0, 55, 0
3, 47323, Note_on_c, 0, 40, 0
3, 47340, Note_on_c, 0, 50, 77
3, 47340, Note_on_c, 0, 55, 74
3, 47340, Note_on_c, 0, 59, 78
3, 47340, Note_on_c, 0, 38, 78
3, 47340, Note_on_c, 0, 50, 77
3, 47503, Note_on_c, 0, 50, 0
3, 47503, Note_on_c, 0, 59, 0
3, 47503, Note_on_c, 0, 50, 0
3, 47503, Note_on_c, 0, 55, 0
3, 47503, Note_on_c, 0, 38, 0
3, 47520, Note_on_c, 0, 52, 77
3, 47520, Note_on_c, 0, 55, 79
3, 47520, Note_on_c, 0, 57, 78
3, 47520, Note_on_c, 0, 36, 76
3, 47520, Note_on_c, 0, 48, 77
3, 47683, Note_on_c, 0, 48, 0
3, 47683, Note_on_c, 0, 57, 0
3, 47683, Note_on_c, 0, 52, 0
3, 47683, Note_on_c, 0, 55, 0
3, 47683, Note_on_c, 0, 36, 0
3, 47700, Note_on_c, 0, 50, 85
3, 47700, Note_on_c, 0, 55, 86
3, 47700, Note_on_c, 0, 59, 84
3, 47700, Note_on_c, 0, 35, 74
3, 47700, Note_on_c, 0, 47, 77
3, 47863, Note_on_c, 0, 47, 0
3, 47863, Note_on_c, 0, 59, 0
3, 47863, Note_on_c, 0, 50, 0
3, 47863, Note_on_c, 0, 55, 0
3, 47863, Note_on_c, 0, 35, 0
3, 47880, Note_on_c, 0, 48, 87
3, 47880, Note_on_c, 0, 50, 85
3, 47880, Note_on_c, 0, 54, 83
3, 47880, Note_on_c, 0, 60, 86
3, 47880, Note_on_c, 0, 33, 75
3, 47880, Note_on_c, 0, 45, 73
3, 48205, Note_on_c, 0, 45, 0
3, 48205, Note_on_c, 0, 50, 0
3, 48205, Note_on_c, 0, 54, 0
3, 48205, Note_on_c, 0, 48, 0
3, 48205, Note_on_c, 0, 33, 0
3, 48205, Note_on_c, 0, 60, 0
3, 48240, Note_on_c, 0, 50, 87
3, 48240, Note_on_c, 0, 53, 87
3, 48240, Note_on_c, 0, 55, 89
3, 48240, Note_on_c, 0, 62, 87
3, 48240, Note_on_c, 0, 35, 86
3, 48240, Note_on_c, 0, 47, 87
3, 48403, Note_on_c, 0, 62, 0
3, 48403, Note_on_c, 0, 55, 0
3, 48403, Note_on_c, 0, 50, 0
3, 48403, Note_on_c, 0, 53, 0
3, 48420, Note_on_c, 0, 50, 68
3, 48420, Note_on_c, 0, 53, 68
3, 48420, Note_on_c, 0, 55, 69
3, 48565, Note_on_c, 0, 47, 0
3, 48565, Note_on_c, 0, 35, 0
3, 48583, Note_on_c, 0, 53, 0
3, 48583, Note_on_c, 0, 50, 0
3, 48583, Note_on_c, 0, 55, 0
3, 48600, Note_on_c, 0, 48, 85
3, 48600, Note_on_c, 0, 53, 84
3, 48600, Note_on_c, 0, 57, 86
3, 48600, Note_on_c, 0, 33, 79
3, 48600, Note_on_c, 0, 45, 80
3, 48763, Note_on_c, 0, 45, 0
3, 48763, Note_on_c, 0, 57, 0
3, 48763, Note_on_c, 0, 48, 0
3, 48763, Note_on_c, 0, 53, 0
3, 48763, Note_on_c, 0, 33, 0
3, 48780, Note_on_c, 0, 50, 84
3, 48780, Note_on_c, 0, 53, 86
3, 48780, Note_on_c, 0, 59, 87
3, 48780, Note_on_c, 0, 31, 74
3, 48780, Note_on_c, 0, 43, 76
3, 48943, Note_on_c, 0, 43, 0
3, 48943, Note_on_c, 0, 59, 0
3, 48943, Note_on_c, 0, 50, 0
3, 48943, Note_on_c, 0, 53, 0
3, 48943, Note_on_c, 0, 31, 0
3, 48960, Note_on_c, 0, 52, 89
3, 48960, Note_on_c, 0, 55, 88
3, 48960, Note_on_c, 0, 60, 90
3, 48960, Note_on_c, 0, 36, 92
3, 48960, Note_on_c, 0, 48, 94
3, 49285, Note_on_c, 0, 60, 0
3, 49285, Note_on_c, 0, 52, 0
3, 49285, Note_on_c, 0, 55, 0
3, 49320, Note_on_c, 0, 52, 85
3, 49320, Note_on_c, 0, 55, 83
3, 49320, Note_on_c, 0, 60, 83
3, 49483, Note_on_c, 0, 60, 0
3, 49483, Note_on_c, 0, 52, 0
3, 49483, Note_on_c, 0, 55, 0
3, 49500, Note_on_c, 0, 53, 86
3, 49500, Note_on_c, 0, 55, 86
3, 49500, Note_on_c, 0, 60, 86
3, 49500, Note_on_c, 0, 62, 83
3, 49663, Note_on_c, 0, 62, 0
3, 49663, Note_on_c, 0, 55, 0
3, 49663, Note_on_c, 0, 53, 0
3, 49663, Note_on_c, 0, 60, 0
3, 49680, Note_on_c, 0, 52, 115
3, 49680, Note_on_c, 0, 55, 112
3, 49680, Note_on_c, 0, 60, 114
3, 49680, Note_on_c, 0, 64, 112
3, 49843, Note_on_c, 0, 48, 0
3, 49843, Note_on_c, 0, 36, 0
3, 49860, Note_on_c, 0, 31, 71
3, 49860, Note_on_c, 0, 43, 69
3, 50023, Note_on_c, 0, 43, 0
3, 50023, Note_on_c, 0, 31, 0
3, 50040, Note_on_c, 0, 33, 84
3, 50040, Note_on_c, 0, 45, 87
3, 50203, Note_on_c, 0, 45, 0
3, 50203, Note_on_c, 0, 33, 0
3, 50220, Note_on_c, 0, 35, 85
3, 50220, Note_on_c, 0, 47, 86
3, 50383, Note_on_c, 0, 47, 0
3, 50383, Note_on_c, 0, 35, 0
3, 50400, Note_on_c, 0, 36, 114
3, 50400, Note_on_c, 0, 48, 115
3, 50725, Note_on_c, 0, 52, 0
3, 50725, Note_on_c, 0, 60, 0
3, 50725, Note_on_c, 0, 55, 0
3, 50725, Note_on_c, 0, 64, 0
3, 50760, Note_on_c, 0, 52, 76
3, 50760, Note_on_c, 0, 55, 75
3, 50760, Note_on_c, 0, 60, 75
3, 50923, Note_on_c, 0, 60, 0
3, 50923, Note_on_c, 0, 52, 0
3, 50923, Note_on_c, 0, 55, 0
3, 50940, Note_on_c, 0, 53, 83
3, 50940, Note_on_c, 0, 55, 84
3, 50940, Note_on_c, 0, 60, 83
3, 50940, Note_on_c, 0, 62, 83
3, 51103, Note_on_c, 0, 62, 0
3, 51103, Note_on_c, 0, 55, 0
3, 51103, Note_on_c, 0, 53, 0
3, 51103, Note_on_c, 0, 60, 0
3, 51120, Note_on_c, 0, 52, 88
3, 51120, Note_on_c, 0, 55, 88
3, 51120, Note_on_c, 0, 60, 90
3, 51120, Note_on_c, 0, 64, 88
3, 51283, Note_on_c, 0, 64, 0
3, 51283, Note_on_c, 0, 36, 0
3, 51283, Note_on_c, 0, 52, 0
3, 51283, Note_on_c, 0, 48, 0
3, 51283, Note_on_c, 0, 60, 0
3, 51283, Note_on_c, 0, 55, 0
3, 51300, Note_on_c, 0, 53, 86
3, 51300, Note_on_c, 0, 60, 84
3, 51300, Note_on_c, 0, 65, 86
3, 51300, Note_on_c, 0, 38, 85
3, 51300, Note_on_c, 0, 50, 83
3, 51463, Note_on_c, 0, 50, 0
3, 51463, Note_on_c, 0, 65, 0
3, 51463, Note_on_c, 0, 53, 0
3, 51463, Note_on_c, 0, 60, 0
3, 51463, Note_on_c, 0, 38, 0
3, 51480, Note_on_c, 0, 55, 89
3, 51480, Note_on_c, 0, 60, 89
3, 51480, Note_on_c, 0, 67, 89
3, 51480, Note_on_c, 0, 40, 89
3, 51480, Note_on_c, 0, 52, 90
3, 51643, Note_on_c, 0, 52, 0
3, 51643, Note_on_c, 0, 67, 0
3, 51643, Note_on_c, 0, 55, 0
3, 51643, Note_on_c, 0, 60, 0
3, 51643, Note_on_c, 0, 40, 0
3, 51660, Note_on_c, 0, 55, 77
3, 51660, Note_on_c, 0, 59, 77
3, 51660, Note_on_c, 0, 65, 75
3, 51660, Note_on_c, 0, 38, 76
3, 51660, Note_on_c, 0, 50, 75
3, 51823, Note_on_c, 0, 50, 0
3, 51823, Note_on_c, 0, 65, 0
3, 51823, Note_on_c, 0, 55, 0
3, 51823, Note_on_c, 0, 59, 0
3, 51823, Note_on_c, 0, 38, 0
3, 51840, Note_on_c, 0, 45, 65
3, 51840, Note_on_c, 0, 50, 66
3, 51840, Note_on_c, 0, 55, 65
3, 51840, Note_on_c, 0, 36, 79
3, 51840, Note_on_c, 0, 48, 77
3, 52003, Note_on_c, 0, 48, 0
3, 52003, Note_on_c, 0, 36, 0
3, 52020, Note_on_c, 0, 34, 75
3, 52020, Note_on_c, 0, 46, 76
3, 52165, Note_on_c, 0, 45, 0
3, 52165, Note_on_c, 0, 55, 0
3, 52165, Note_on_c, 0, 50, 0
3, 52183, Note_on_c, 0, 34, 0
3, 52183, Note_on_c, 0, 46, 0
3, 52200, Note_on_c, 0, 53, 99
3, 52200, Note_on_c, 0, 60, 99
3, 52200, Note_on_c, 0, 65, 99
3, 52200, Note_on_c, 0, 33, 81
3, 52200, Note_on_c, 0, 45, 79
3, 52363, Note_on_c, 0, 45, 0
3, 52363, Note_on_c, 0, 65, 0
3, 52363, Note_on_c, 0, 53, 0
3, 52363, Note_on_c, 0, 60, 0
3, 52363, Note_on_c, 0, 33, 0
3, 52380, Note_on_c, 0, 58, 86
3, 52380, Note_on_c, 0, 60, 89
3, 52380, Note_on_c, 0, 64, 87
3, 52380, Note_on_c, 0, 67, 86
3, 52380, Note_on_c, 0, 31, 74
3, 52380, Note_on_c, 0, 43, 74
3, 52543, Note_on_c, 0, 43, 0
3, 52543, Note_on_c, 0, 60, 0
3, 52543, Note_on_c, 0, 64, 0
3, 52543, Note_on_c, 0, 58, 0
3, 52543, Note_on_c, 0, 31, 0
3, 52543, Note_on_c, 0, 67, 0
3, 52560, Note_on_c, 0, 57, 91
3, 52560, Note_on_c, 0, 60, 89
3, 52560, Note_on_c, 0, 65, 90
3, 52560, Note_on_c, 0, 69, 90
3, 52560, Note_on_c, 0, 29, 73
3, 52560, Note_on_c, 0, 41, 73
3, 52723, Note_on_c, 0, 69, 0
3, 52723, Note_on_c, 0, 65, 0
3, 52723, Note_on_c, 0, 57, 0
3, 52723, Note_on_c, 0, 60, 0
3, 52740, Note_on_c, 0, 62, 86
3, 52740, Note_on_c, 0, 65, 86
3, 52740, Note_on_c, 0, 70, 83
3, 52885, Note_on_c, 0, 41, 0
3, 52885, Note_on_c, 0, 29, 0
3, 52903, Note_on_c, 0, 65, 0
3, 52903, Note_on_c, 0, 62, 0
3, 52903, Note_on_c, 0, 70, 0
3, 52920, Note_on_c, 0, 63, 114
3, 52920, Note_on_c, 0, 65, 114
3, 52920, Note_on_c, 0, 69, 114
3, 52920, Note_on_c, 0, 72, 114
3, 52920, Note_on_c, 0, 41, 102
3, 52920, Note_on_c, 0, 53, 105
3, 53083, Note_on_c, 0, 53, 0
3, 53083, Note_on_c, 0, 41, 0
3, 53100, Note_on_c, 0, 43, 89
3, 53100, Note_on_c, 0, 55, 89
3, 53263, Note_on_c, 0, 55, 0
3, 53263, Note_on_c, 0, 43, 0
3, 53280, Note_on_c, 0, 41, 81
3, 53280, Note_on_c, 0, 53, 82
3, 53443, Note_on_c, 0, 72, 0
3, 53443, Note_on_c, 0, 69, 0
3, 53443, Note_on_c, 0, 63, 0
3, 53443, Note_on_c, 0, 65, 0
3, 53460, Note_on_c, 0, 62, 76
3, 53460, Note_on_c, 0, 65, 77
3, 53460, Note_on_c, 0, 70, 78
3, 53623, Note_on_c, 0, 70, 0
3, 53623, Note_on_c, 0, 62, 0
3, 53623, Note_on_c, 0, 65, 0
3, 53640, Note_on_c, 0, 60, 80
3, 53640, Note_on_c, 0, 65, 79
3, 53640, Note_on_c, 0, 69, 78
3, 53803, Note_on_c, 0, 69, 0
3, 53803, Note_on_c, 0, 60, 0
3, 53803, Note_on_c, 0, 65, 0
3, 53820, Note_on_c, 0, 58, 73
3, 53820, Note_on_c, 0, 65, 76
3, 53820, Note_on_c, 0, 67, 76
3, 53983, Note_on_c, 0, 67, 0
3, 53983, Note_on_c, 0, 58, 0
3, 53983, Note_on_c, 0, 65, 0
3, 54000, Note_on_c, 0, 57, 87
3, 54000, Note_on_c, 0, 60, 90
3, 54000, Note_on_c, 0, 65, 88
3, 54000, Note_on_c, 0, 69, 86
3, 54163, Note_on_c, 0, 69, 0
3, 54163, Note_on_c, 0, 60, 0
3, 54163, Note_on_c, 0, 57, 0
3, 54163, Note_on_c, 0, 65, 0
3, 54180, Note_on_c, 0, 59, 85
3, 54180, Note_on_c, 0, 71, 84
3, 54290, Note_on_c, 0, 41, 0
3, 54290, Note_on_c, 0, 53, 0
3, 54343, Note_on_c, 0, 59, 0
3, 54343, Note_on_c, 0, 71, 0
3, 54360, Note_on_c, 0, 60, 88
3, 54360, Note_on_c, 0, 63, 87
3, 54360, Note_on_c, 0, 69, 89
3, 54360, Note_on_c, 0, 72, 86
3, 54360, Note_on_c, 0, 42, 82
3, 54360, Note_on_c, 0, 54, 84
3, 54523, Note_on_c, 0, 72, 0
3, 54523, Note_on_c, 0, 69, 0
3, 54523, Note_on_c, 0, 60, 0
3, 54523, Note_on_c, 0, 63, 0
3, 54540, Note_on_c, 0, 62, 85
3, 54540, Note_on_c, 0, 74, 85
3, 54685, Note_on_c, 0, 54, 0
3, 54685, Note_on_c, 0, 42, 0
3, 54703, Note_on_c, 0, 62, 0
3, 54703, Note_on_c, 0, 74, 0
3, 54720, Note_on_c, 0, 64, 114
3, 54720, Note_on_c, 0, 67, 118
3, 54720, Note_on_c, 0, 72, 115
3, 54720, Note_on_c, 0, 76, 114
3, 54720, Note_on_c, 0, 43, 113
3, 54720, Note_on_c, 0, 48, 113
3, 54720, Note_on_c, 0, 52, 114
3, 54720, Note_on_c, 0, 55, 113
3, 55045, Note_on_c, 0, 55, 0
3, 55045, Note_on_c, 0, 64, 0
3, 55045, Note_on_c, 0, 43, 0
3, 55045, Note_on_c, 0, 67, 0
3, 55045, Note_on_c, 0, 72, 0
3, 55045, Note_on_c, 0, 76, 0
3, 55045, Note_on_c, 0, 48, 0
3, 55045, Note_on_c, 0, 52, 0
3, 55080, Note_on_c, 0, 64, 75
3, 55080, Note_on_c, 0, 67, 76
3, 55080, Note_on_c, 0, 72, 75
3, 55243, Note_on_c, 0, 72, 0
3, 55243, Note_on_c, 0, 67, 0
3, 55243, Note_on_c, 0, 64, 0
3, 55260, Note_on_c, 0, 64, 82
3, 55260, Note_on_c, 0, 67, 85
3, 55260, Note_on_c, 0, 74, 85
3, 55423, Note_on_c, 0, 74, 0
3, 55423, Note_on_c, 0, 67, 0
3, 55423, Note_on_c, 0, 64, 0
3, 55440, Note_on_c, 0, 67, 88
3, 55440, Note_on_c, 0, 72, 90
3, 55440, Note_on_c, 0, 76, 89
3, 55603, Note_on_c, 0, 76, 0
3, 55603, Note_on_c, 0, 72, 0
3, 55603, Note_on_c, 0, 67, 0
3, 55620, Note_on_c, 0, 67, 87
3, 55620, Note_on_c, 0, 72, 88
3, 55620, Note_on_c, 0, 76, 89
3, 55620, Note_on_c, 0, 79, 88
3, 55783, Note_on_c, 0, 79, 0
3, 55783, Note_on_c, 0, 67, 0
3, 55783, Note_on_c, 0, 72, 0
3, 55783, Note_on_c, 0, 76, 0
3, 55800, Note_on_c, 0, 69, 90
3, 55800, Note_on_c, 0, 72, 89
3, 55800, Note_on_c, 0, 76, 91
3, 55800, Note_on_c, 0, 81, 91
3, 55800, Note_on_c, 0, 36, 74
3, 55800, Note_on_c, 0, 48, 73
3, 55963, Note_on_c, 0, 81, 0
3, 55963, Note_on_c, 0, 76, 0
3, 55963, Note_on_c, 0, 69, 0
3, 55963, Note_on_c, 0, 72, 0
3, 55980, Note_on_c, 0, 71, 88
3, 55980, Note_on_c, 0, 76, 86
3, 55980, Note_on_c, 0, 79, 87
3, 55980, Note_on_c, 0, 83, 85
3, 56143, Note_on_c, 0, 83, 0
3, 56143, Note_on_c, 0, 76, 0
3, 56143, Note_on_c, 0, 71, 0
3, 56143, Note_on_c, 0, 79, 0
3, 56160, Note_on_c, 0, 72, 89
3, 56160, Note_on_c, 0, 76, 88
3, 56160, Note_on_c, 0, 79, 87
3, 56160, Note_on_c, 0, 84, 86
3, 56323, Note_on_c, 0, 84, 0
3, 56323, Note_on_c, 0, 76, 0
3, 56323, Note_on_c, 0, 72, 0
3, 56323, Note_on_c, 0, 79, 0
3, 56340, Note_on_c, 0, 74, 84
3, 56340, Note_on_c, 0, 79, 86
3, 56340, Note_on_c, 0, 86, 87
3, 56485, Note_on_c, 0, 48, 0
3, 56485, Note_on_c, 0, 36, 0
3, 56503, Note_on_c, 0, 79, 0
3, 56503, Note_on_c, 0, 74, 0
3, 56503, Note_on_c, 0, 86, 0
3, 56520, Note_on_c, 0, 76, 114
3, 56520, Note_on_c, 0, 79, 111
3, 56520, Note_on_c, 0, 84, 111
3, 56520, Note_on_c, 0, 88, 112
3, 56520, Note_on_c, 0, 35, 78
3, 56520, Note_on_c, 0, 47, 79
3, 56683, Note_on_c, 0, 47, 0
3, 56683, Note_on_c, 0, 35, 0
3, 56700, Note_on_c, 0, 33, 76
3, 56700, Note_on_c, 0, 45, 76
3, 56863, Note_on_c, 0, 45, 0
3, 56863, Note_on_c, 0, 33, 0
3, 56880, Note_on_c, 0, 31, 102
3, 56880, Note_on_c, 0, 43, 101
3, 57367, Note_on_c, 0, 43, 0
3, 57367, Note_on_c, 0, 31, 0
3, 57403, Note_on_c, 0, 84, 0
3, 57403, Note_on_c, 0, 76, 0
3, 57403, Note_on_c, 0, 79, 0
3, 57403, Note_on_c, 0, 88, 0
3, 57420, Note_on_c, 0, 67, 60
3, 57420, Note_on_c, 0, 72, 62
3, 57420, Note_on_c, 0, 76, 62
3, 57420, Note_on_c, 0, 45, 127
3, 57420, Note_on_c, 0, 57, 127
3, 57583, Note_on_c, 0, 57, 0
3, 57583, Note_on_c, 0, 76, 0
3, 57583, Note_on_c, 0, 67, 0
3, 57583, Note_on_c, 0, 72, 0
3, 57583, Note_on_c, 0, 45, 0
3, 57600, Note_on_c, 0, 65, 109
3, 57600, Note_on_c, 0, 72, 110
3, 57600, Note_on_c, 0, 77, 109
3, 57600, Note_on_c, 0, 38, 93
3, 57600, Note_on_c, 0, 50, 95
3, 57925, Note_on_c, 0, 50, 0
3, 57925, Note_on_c, 0, 77, 0
3, 57925, Note_on_c, 0, 65, 0
3, 57925, Note_on_c, 0, 72, 0
3, 57925, Note_on_c, 0, 38, 0
3, 57960, Note_on_c, 0, 65, 111
3, 57960, Note_on_c, 0, 67, 111
3, 57960, Note_on_c, 0, 71, 111
3, 57960, Note_on_c, 0, 74, 114
3, 57960, Note_on_c, 0, 79, 114
3, 57960, Note_on_c, 0, 43, 115
3, 57960, Note_on_c, 0, 55, 118
3, 58285, Note_on_c, 0, 55, 0
3, 58285, Note_on_c, 0, 79, 0
3, 58285, Note_on_c, 0, 67, 0
3, 58285, Note_on_c, 0, 71, 0
3, 58285, Note_on_c, 0, 65, 0
3, 58285, Note_on_c, 0, 43, 0
3, 58285, Note_on_c, 0, 74, 0
3, 58320, Note_on_c, 0, 64, 98
3, 58320, Note_on_c, 0, 67, 97
3, 58320, Note_on_c, 0, 72, 100
3, 58320, Note_on_c, 0, 76, 96
3, 58320, Note_on_c, 0, 36, 91
3, 58320, Note_on_c, 0, 48, 87
3, 58645, Note_on_c, 0, 48, 0
3, 58645, Note_on_c, 0, 67, 0
3, 58645, Note_on_c, 0, 72, 0
3, 58645, Note_on_c, 0, 64, 0
3, 58645, Note_on_c, 0, 36, 0
3, 58645, Note_on_c, 0, 76, 0
3, 59040, Note_on_c, 0, 69, 77
3, 59040, Note_on_c, 0, 57, 75
3, 60050, Note_on_c, 0, 57, 0
3, 60050, Note_on_c, 0, 69, 0
3, 60120, Note_on_c, 0, 74, 88
3, 60120, Note_on_c, 0, 62, 91
3, 60445, Note_on_c, 0, 62, 0
3, 60445, Note_on_c, 0, 74, 0
3, 60480, Note_on_c, 0, 76, 89
3, 60480, Note_on_c, 0, 64, 88
3, 61130, Note_on_c, 0, 64, 0
3, 61130, Note_on_c, 0, 76, 0
3, 61200, Note_on_c, 0, 71, 72
3, 61200, Note_on_c, 0, 59, 72
3, 61525, Note_on_c, 0, 59, 0
3, 61525, Note_on_c, 0, 71, 0
3, 61560, Note_on_c, 0, 72, 84
3, 61560, Note_on_c, 0, 60, 82
3, 61885, Note_on_c, 0, 60, 0
3, 61885, Note_on_c, 0, 72, 0
3, 61920, Note_on_c, 0, 69, 78
3, 61920, Note_on_c, 0, 57, 78
3, 64010, Note_on_c, 0, 57, 0
3, 64010, Note_on_c, 0, 69, 0
3, 64080, Note_on_c, 0, 67, 75
3, 64080, Note_on_c, 0, 55, 76
3, 64405, Note_on_c, 0, 55, 0
3, 64405, Note_on_c, 0, 67, 0
3, 64440, Note_on_c, 0, 66, 77
3, 64440, Note_on_c, 0, 54, 76
3, 64765, Note_on_c, 0, 54, 0
3, 64765, Note_on_c, 0, 66, 0
3, 64800, Note_on_c, 0, 67, 85
3, 64800, Note_on_c, 0, 55, 86
3, 65125, Note_on_c, 0, 55, 0
3, 65125, Note_on_c, 0, 67, 0
3, 65160, Note_on_c, 0, 69, 83
3, 65160, Note_on_c, 0, 57, 83
3, 65485, Note_on_c, 0, 57, 0
3, 65485, Note_on_c, 0, 69, 0
3, 65520, Note_on_c, 0, 71, 84
3, 65520, Note_on_c, 0, 59, 85
3, 66890, Note_on_c, 0, 59, 0
3, 66890, Note_on_c, 0, 71, 0
3, 66960, Note_on_c, 0, 69, 74
3, 66960, Note_on_c, 0, 57, 77
3, 67285, Note_on_c, 0, 57, 0
3, 67285, Note_on_c, 0, 69, 0
3, 67320, Note_on_c, 0, 72, 86
3, 67320, Note_on_c, 0, 60, 85
3, 67645, Note_on_c, 0, 60, 0
3, 67645, Note_on_c, 0, 72, 0
3, 67680, Note_on_c, 0, 71, 80
3, 67680, Note_on_c, 0, 59, 79
3, 68690, Note_on_c, 0, 59, 0
3, 68690, Note_on_c, 0, 71, 0
3, 68760, Note_on_c, 0, 69, 77
3, 68760, Note_on_c, 0, 57, 74
3, 69085, Note_on_c, 0, 57, 0
3, 69085, Note_on_c, 0, 69, 0
3, 69120, Note_on_c, 0, 71, 87
3, 69120, Note_on_c, 0, 59, 87
3, 69445, Note_on_c, 0, 59, 0
3, 69445, Note_on_c, 0, 71, 0
3, 69480, Note_on_c, 0, 72, 83
3, 69480, Note_on_c, 0, 60, 84
3, 69805, Note_on_c, 0, 60, 0
3, 69805, Note_on_c, 0, 72, 0
3, 69840, Note_on_c, 0, 74, 84
3, 69840, Note_on_c, 0, 62, 85
3, 70165, Note_on_c, 0, 62, 0
3, 70165, Note_on_c, 0, 74, 0
3, 70200, Note_on_c, 0, 76, 87
3, 70200, Note_on_c, 0, 64, 86
3, 70525, Note_on_c, 0, 64, 0
3, 70525, Note_on_c, 0, 76, 0
3, 70560, Note_on_c, 0, 57, 69
3, 70560, Note_on_c, 0, 69, 69
3, 70920, Note_on_c, 0, 41, 73
3, 70920, Note_on_c, 0, 53, 75
3, 71210, Note_on_c, 0, 69, 0
3, 71210, Note_on_c, 0, 57, 0
3, 71245, Note_on_c, 0, 41, 0
3, 71245, Note_on_c, 0, 53, 0
3, 71280, Note_on_c, 0, 57, 78
3, 71280, Note_on_c, 0, 69, 78
3, 71280, Note_on_c, 0, 36, 68
3, 71280, Note_on_c, 0, 48, 68
3, 71605, Note_on_c, 0, 48, 0
3, 71605, Note_on_c, 0, 57, 0
3, 71605, Note_on_c, 0, 69, 0
3, 71605, Note_on_c, 0, 36, 0
3, 71640, Note_on_c, 0, 62, 91
3, 71640, Note_on_c, 0, 74, 89
3, 71640, Note_on_c, 0, 38, 82
3, 71640, Note_on_c, 0, 50, 83
3, 71965, Note_on_c, 0, 50, 0
3, 71965, Note_on_c, 0, 62, 0
3, 71965, Note_on_c, 0, 74, 0
3, 71965, Note_on_c, 0, 38, 0
3, 72000, Note_on_c, 0, 64, 89
3, 72000, Note_on_c, 0, 76, 88
3, 72000, Note_on_c, 0, 33, 74
3, 72000, Note_on_c, 0, 45, 73
3, 72325, Note_on_c, 0, 45, 0
3, 72325, Note_on_c, 0, 33, 0
3, 72360, Note_on_c, 0, 36, 87
3, 72360, Note_on_c, 0, 48, 86
3, 72650, Note_on_c, 0, 76, 0
3, 72650, Note_on_c, 0, 64, 0
3, 72685, Note_on_c, 0, 36, 0
3, 72685, Note_on_c, 0, 48, 0
3, 72720, Note_on_c, 0, 59, 73
3, 72720, Note_on_c, 0, 71, 70
3, 72720, Note_on_c, 0, 38, 85
3, 72720, Note_on_c, 0, 50, 85
3, 73045, Note_on_c, 0, 50, 0
3, 73045, Note_on_c, 0, 59, 0
3, 73045, Note_on_c, 0, 71, 0
3, 73045, Note_on_c, 0, 38, 0
3, 73080, Note_on_c, 0, 60, 82
3, 73080, Note_on_c, 0, 72, 82
3, 73080, Note_on_c, 0, 40, 86
3, 73080, Note_on_c, 0, 52, 88
3, 73405, Note_on_c, 0, 52, 0
3, 73405, Note_on_c, 0, 60, 0
3, 73405, Note_on_c, 0, 72, 0
3, 73405, Note_on_c, 0, 40, 0
3, 73440, Note_on_c, 0, 57, 79
3, 73440, Note_on_c, 0, 69, 76
3, 73440, Note_on_c, 0, 45, 71
3, 73765, Note_on_c, 0, 45, 0
3, 73800, Note_on_c, 0, 38, 88
3, 73800, Note_on_c, 0, 50, 87
3, 74125, Note_on_c, 0, 50, 0
3, 74125, Note_on_c, 0, 38, 0
3, 74160, Note_on_c, 0, 36, 78
3, 74160, Note_on_c, 0, 48, 78
3, 74485, Note_on_c, 0, 48, 0
3, 74485, Note_on_c, 0, 36, 0
3, 74520, Note_on_c, 0, 35, 75
3, 74520, Note_on_c, 0, 47, 74
3, 74845, Note_on_c, 0, 47, 0
3, 74845, Note_on_c, 0, 35, 0
3, 74880, Note_on_c, 0, 33, 78
3, 74880, Note_on_c, 0, 45, 78
3, 75205, Note_on_c, 0, 45, 0
3, 75205, Note_on_c, 0, 33, 0
3, 75240, Note_on_c, 0, 30, 73
3, 75240, Note_on_c, 0, 42, 73
3, 75530, Note_on_c, 0, 69, 0
3, 75530, Note_on_c, 0, 57, 0
3, 75565, Note_on_c, 0, 30, 0
3, 75565, Note_on_c, 0, 42, 0
3, 75600, Note_on_c, 0, 55, 74
3, 75600, Note_on_c, 0, 67, 75
3, 75600, Note_on_c, 0, 35, 88
3, 75600, Note_on_c, 0, 47, 89
3, 75925, Note_on_c, 0, 47, 0
3, 75925, Note_on_c, 0, 55, 0
3, 75925, Note_on_c, 0, 67, 0
3, 75925, Note_on_c, 0, 35, 0
3, 75960, Note_on_c, 0, 54, 76
3, 75960, Note_on_c, 0, 66, 76
3, 75960, Note_on_c, 0, 35, 59
3, 76285, Note_on_c, 0, 35, 0
3, 76285, Note_on_c, 0, 66, 0
3, 76285, Note_on_c, 0, 54, 0
3, 76320, Note_on_c, 0, 52, 77
3, 76320, Note_on_c, 0, 64, 79
3, 76320, Note_on_c, 0, 40, 92
3, 76645, Note_on_c, 0, 40, 0
3, 76645, Note_on_c, 0, 64, 0
3, 76645, Note_on_c, 0, 52, 0
3, 76680, Note_on_c, 0, 54, 85
3, 76680, Note_on_c, 0, 66, 86
3, 76680, Note_on_c, 0, 33, 91
3, 76680, Note_on_c, 0, 45, 91
3, 77005, Note_on_c, 0, 45, 0
3, 77005, Note_on_c, 0, 54, 0
3, 77005, Note_on_c, 0, 66, 0
3, 77005, Note_on_c, 0, 33, 0
3, 77040, Note_on_c, 0, 55, 84
3, 77040, Note_on_c, 0, 67, 85
3, 77040, Note_on_c, 0, 40, 96
3, 77040, Note_on_c, 0, 52, 97
3, 77365, Note_on_c, 0, 52, 0
3, 77365, Note_on_c, 0, 40, 0
3, 77400, Note_on_c, 0, 36, 76
3, 77400, Note_on_c, 0, 48, 75
3, 77725, Note_on_c, 0, 48, 0
3, 77725, Note_on_c, 0, 36, 0
3, 77760, Note_on_c, 0, 43, 73
3, 78085, Note_on_c, 0, 43, 0
3, 78120, Note_on_c, 0, 40, 95
3, 78120, Note_on_c, 0, 52, 93
3, 78410, Note_on_c, 0, 67, 0
3, 78410, Note_on_c, 0, 55, 0
3, 78445, Note_on_c, 0, 40, 0
3, 78445, Note_on_c, 0, 52, 0
3, 78480, Note_on_c, 0, 54, 78
3, 78480, Note_on_c, 0, 66, 79
3, 78480, Note_on_c, 0, 47, 74
3, 78805, Note_on_c, 0, 47, 0
3, 78840, Note_on_c, 0, 35, 78
3, 78840, Note_on_c, 0, 47, 79
3, 79130, Note_on_c, 0, 66, 0
3, 79130, Note_on_c, 0, 54, 0
3, 79165, Note_on_c, 0, 35, 0
3, 79165, Note_on_c, 0, 47, 0
3, 79200, Note_on_c, 0, 55, 87
3, 79200, Note_on_c, 0, 67, 88
3, 79200, Note_on_c, 0, 28, 69
3, 79200, Note_on_c, 0, 40, 72
3, 79525, Note_on_c, 0, 40, 0
3, 79525, Note_on_c, 0, 28, 0
3, 79560, Note_on_c, 0, 48, 94
3, 79885, Note_on_c, 0, 48, 0
3, 79920, Note_on_c, 0, 28, 66
3, 79920, Note_on_c, 0, 40, 68
3, 80245, Note_on_c, 0, 40, 0
3, 80245, Note_on_c, 0, 28, 0
3, 80280, Note_on_c, 0, 47, 93
3, 80605, Note_on_c, 0, 47, 0
3, 80640, Note_on_c, 0, 28, 73
3, 80640, Note_on_c, 0, 40, 74
3, 80965, Note_on_c, 0, 40, 0
3, 80965, Note_on_c, 0, 55, 0
3, 80965, Note_on_c, 0, 67, 0
3, 80965, Note_on_c, 0, 28, 0
3, 81000, Note_on_c, 0, 52, 76
3, 81000, Note_on_c, 0, 64, 76
3, 81325, Note_on_c, 0, 64, 0
3, 81325, Note_on_c, 0, 52, 0
3, 81360, Note_on_c, 0, 54, 84
3, 81360, Note_on_c, 0, 66, 85
3, 81685, Note_on_c, 0, 66, 0
3, 81685, Note_on_c, 0, 54, 0
3, 81720, Note_on_c, 0, 55, 83
3, 81720, Note_on_c, 0, 67, 85
3, 82045, Note_on_c, 0, 67, 0
3, 82045, Note_on_c, 0, 55, 0
3, 82080, Note_on_c, 0, 57, 88
3, 82080, Note_on_c, 0, 69, 89
3, 82080, Note_on_c, 0, 65, 75
3, 82080, Note_on_c, 0, 38, 50
3, 82080, Note_on_c, 0, 45, 49
3, 82405, Note_on_c, 0, 45, 0
3, 82405, Note_on_c, 0, 38, 0
3, 82440, Note_on_c, 0, 53, 69
3, 82440, Note_on_c, 0, 57, 68
3, 82529, Note_on_c, 0, 53, 0
3, 82529, Note_on_c, 0, 57, 0
3, 82620, Note_on_c, 0, 53, 57
3, 82620, Note_on_c, 0, 57, 55
3, 82709, Note_on_c, 0, 53, 0
3, 82709, Note_on_c, 0, 57, 0
3, 82800, Note_on_c, 0, 53, 58
3, 82800, Note_on_c, 0, 57, 60
3, 83090, Note_on_c, 0, 69, 0
3, 83090, Note_on_c, 0, 57, 0
3, 83160, Note_on_c, 0, 53, 0
3, 83160, Note_on_c, 0, 57, 0
3, 83160, Note_on_c, 0, 59, 85
3, 83160, Note_on_c, 0, 71, 87
3, 83160, Note_on_c, 0, 47, 45
3, 83160, Note_on_c, 0, 50, 46
3, 83249, Note_on_c, 0, 50, 0
3, 83249, Note_on_c, 0, 47, 0
3, 83340, Note_on_c, 0, 47, 53
3, 83340, Note_on_c, 0, 50, 53
3, 83429, Note_on_c, 0, 50, 0
3, 83429, Note_on_c, 0, 47, 0
3, 83450, Note_on_c, 0, 65, 0
3, 83485, Note_on_c, 0, 71, 0
3, 83485, Note_on_c, 0, 59, 0
3, 83520, Note_on_c, 0, 60, 88
3, 83520, Note_on_c, 0, 72, 87
3, 83520, Note_on_c, 0, 65, 83
3, 83520, Note_on_c, 0, 43, 65
3, 83520, Note_on_c, 0, 50, 67
3, 83520, Note_on_c, 0, 53, 65
3, 83845, Note_on_c, 0, 72, 0
3, 83845, Note_on_c, 0, 60, 0
3, 83880, Note_on_c, 0, 50, 0
3, 83880, Note_on_c, 0, 43, 0
3, 83880, Note_on_c, 0, 53, 0
3, 83880, Note_on_c, 0, 59, 77
3, 83880, Note_on_c, 0, 71, 78
3, 83880, Note_on_c, 0, 53, 66
3, 83880, Note_on_c, 0, 55, 65
3, 83880, Note_on_c, 0, 62, 66
3, 83969, Note_on_c, 0, 62, 0
3, 83969, Note_on_c, 0, 53, 0
3, 83969, Note_on_c, 0, 55, 0
3, 84060, Note_on_c, 0, 53, 56
3, 84060, Note_on_c, 0, 55, 54
3, 84060, Note_on_c, 0, 62, 53
3, 84149, Note_on_c, 0, 62, 0
3, 84149, Note_on_c, 0, 53, 0
3, 84149, Note_on_c, 0, 55, 0
3, 84205, Note_on_c, 0, 71, 0
3, 84205, Note_on_c, 0, 59, 0
3, 84240, Note_on_c, 0, 57, 76
3, 84240, Note_on_c, 0, 69, 75
3, 84240, Note_on_c, 0, 53, 61
3, 84240, Note_on_c, 0, 55, 64
3, 84240, Note_on_c, 0, 62, 63
3, 84565, Note_on_c, 0, 69, 0
3, 84565, Note_on_c, 0, 57, 0
3, 84600, Note_on_c, 0, 53, 0
3, 84600, Note_on_c, 0, 55, 0
3, 84600, Note_on_c, 0, 62, 0
3, 84600, Note_on_c, 0, 59, 83
3, 84600, Note_on_c, 0, 71, 85
3, 84600, Note_on_c, 0, 43, 46
3, 84600, Note_on_c, 0, 53, 47
3, 84600, Note_on_c, 0, 55, 47
3, 84689, Note_on_c, 0, 55, 0
3, 84689, Note_on_c, 0, 43, 0
3, 84689, Note_on_c, 0, 53, 0
3, 84780, Note_on_c, 0, 43, 51
3, 84780, Note_on_c, 0, 53, 50
3, 84780, Note_on_c, 0, 55, 49
3, 84869, Note_on_c, 0, 55, 0
3, 84869, Note_on_c, 0, 43, 0
3, 84869, Note_on_c, 0, 53, 0
3, 84890, Note_on_c, 0, 65, 0
3, 84925, Note_on_c, 0, 71, 0
3, 84925, Note_on_c, 0, 59, 0
3, 84960, Note_on_c, 0, 64, 94
3, 84960, Note_on_c, 0, 76, 95
3, 84960, Note_on_c, 0, 67, 87
3, 84960, Note_on_c, 0, 40, 49
3, 84960, Note_on_c, 0, 47, 50
3, 85320, Note_on_c, 0, 47, 0
3, 85320, Note_on_c, 0, 40, 0
3, 85320, Note_on_c, 0, 55, 66
3, 85320, Note_on_c, 0, 59, 66
3, 85409, Note_on_c, 0, 59, 0
3, 85409, Note_on_c, 0, 55, 0
3, 85500, Note_on_c, 0, 55, 54
3, 85500, Note_on_c, 0, 59, 54
3, 85589, Note_on_c, 0, 59, 0
3, 85589, Note_on_c, 0, 55, 0
3, 85680, Note_on_c, 0, 55, 57
3, 85680, Note_on_c, 0, 58, 57
3, 85970, Note_on_c, 0, 64, 0
3, 85970, Note_on_c, 0, 76, 0
3, 86040, Note_on_c, 0, 55, 0
3, 86040, Note_on_c, 0, 58, 0
3, 86040, Note_on_c, 0, 62, 77
3, 86040, Note_on_c, 0, 74, 78
3, 86040, Note_on_c, 0, 52, 51
3, 86040, Note_on_c, 0, 55, 51
3, 86129, Note_on_c, 0, 55, 0
3, 86129, Note_on_c, 0, 52, 0
3, 86220, Note_on_c, 0, 52, 52
3, 86220, Note_on_c, 0, 55, 54
3, 86309, Note_on_c, 0, 55, 0
3, 86309, Note_on_c, 0, 52, 0
3, 86330, Note_on_c, 0, 67, 0
3, 86365, Note_on_c, 0, 74, 0
3, 86365, Note_on_c, 0, 62, 0
3, 86400, Note_on_c, 0, 61, 81
3, 86400, Note_on_c, 0, 73, 78
3, 86400, Note_on_c, 0, 67, 85
3, 86400, Note_on_c, 0, 45, 62
3, 86400, Note_on_c, 0, 52, 62
3, 86400, Note_on_c, 0, 55, 60
3, 86760, Note_on_c, 0, 55, 0
3, 86760, Note_on_c, 0, 45, 0
3, 86760, Note_on_c, 0, 52, 0
3, 86760, Note_on_c, 0, 55, 65
3, 86760, Note_on_c, 0, 57, 67
3, 86760, Note_on_c, 0, 64, 65
3, 86849, Note_on_c, 0, 64, 0
3, 86849, Note_on_c, 0, 55, 0
3, 86849, Note_on_c, 0, 57, 0
3, 86940, Note_on_c, 0, 55, 52
3, 86940, Note_on_c, 0, 57, 54
3, 86940, Note_on_c, 0, 64, 54
3, 87029, Note_on_c, 0, 64, 0
3, 87029, Note_on_c, 0, 55, 0
3, 87029, Note_on_c, 0, 57, 0
3, 87050, Note_on_c, 0, 67, 0
3, 87050, Note_on_c, 0, 73, 0
3, 87050, Note_on_c, 0, 61, 0
3, 87120, Note_on_c, 0, 62, 83
3, 87120, Note_on_c, 0, 74, 85
3, 87120, Note_on_c, 0, 67, 82
3, 87120, Note_on_c, 0, 55, 59
3, 87120, Note_on_c, 0, 57, 59
3, 87120, Note_on_c, 0, 64, 58
3, 87445, Note_on_c, 0, 74, 0
3, 87445, Note_on_c, 0, 62, 0
3, 87480, Note_on_c, 0, 57, 0
3, 87480, Note_on_c, 0, 55, 0
3, 87480, Note_on_c, 0, 64, 0
3, 87480, Note_on_c, 0, 64, 84
3, 87480, Note_on_c, 0, 76, 84
3, 87480, Note_on_c, 0, 45, 48
3, 87480, Note_on_c, 0, 55, 47
3, 87480, Note_on_c, 0, 57, 46
3, 87569, Note_on_c, 0, 57, 0
3, 87569, Note_on_c, 0, 45, 0
3, 87569, Note_on_c, 0, 55, 0
3, 87660, Note_on_c, 0, 45, 52
3, 87660, Note_on_c, 0, 55, 49
3, 87660, Note_on_c, 0, 57, 53
3, 87749, Note_on_c, 0, 57, 0
3, 87749, Note_on_c, 0, 45, 0
3, 87749, Note_on_c, 0, 55, 0
3, 87770, Note_on_c, 0, 67, 0
3, 87805, Note_on_c, 0, 76, 0
3, 87805, Note_on_c, 0, 64, 0
3, 87840, Note_on_c, 0, 64, 83
3, 87840, Note_on_c, 0, 76, 82
3, 87840, Note_on_c, 0, 69, 94
3, 87840, Note_on_c, 0, 72, 93
3, 87840, Note_on_c, 0, 41, 51
3, 87840, Note_on_c, 0, 48, 49
3, 88165, Note_on_c, 0, 76, 0
3, 88165, Note_on_c, 0, 64, 0
3, 88200, Note_on_c, 0, 41, 0
3, 88200, Note_on_c, 0, 48, 0
3, 88200, Note_on_c, 0, 65, 83
3, 88200, Note_on_c, 0, 77, 84
3, 88200, Note_on_c, 0, 57, 66
3, 88200, Note_on_c, 0, 60, 65
3, 88289, Note_on_c, 0, 60, 0
3, 88289, Note_on_c, 0, 57, 0
3, 88380, Note_on_c, 0, 57, 53
3, 88380, Note_on_c, 0, 60, 53
3, 88469, Note_on_c, 0, 60, 0
3, 88469, Note_on_c, 0, 57, 0
3, 88525, Note_on_c, 0, 77, 0
3, 88525, Note_on_c, 0, 65, 0
3, 88560, Note_on_c, 0, 67, 85
3, 88560, Note_on_c, 0, 79, 86
3, 88560, Note_on_c, 0, 57, 58
3, 88560, Note_on_c, 0, 60, 60
3, 88850, Note_on_c, 0, 72, 0
3, 88850, Note_on_c, 0, 69, 0
3, 88885, Note_on_c, 0, 79, 0
3, 88885, Note_on_c, 0, 67, 0
3, 88920, Note_on_c, 0, 60, 0
3, 88920, Note_on_c, 0, 57, 0
3, 88920, Note_on_c, 0, 69, 87
3, 88920, Note_on_c, 0, 81, 88
3, 88920, Note_on_c, 0, 72, 83
3, 88920, Note_on_c, 0, 40, 44
3, 88920, Note_on_c, 0, 48, 42
3, 89009, Note_on_c, 0, 48, 0
3, 89009, Note_on_c, 0, 40, 0
3, 89100, Note_on_c, 0, 40, 51
3, 89100, Note_on_c, 0, 48, 51
3, 89189, Note_on_c, 0, 48, 0
3, 89189, Note_on_c, 0, 40, 0
3, 89245, Note_on_c, 0, 72, 0
3, 89245, Note_on_c, 0, 81, 0
3, 89245, Note_on_c, 0, 69, 0
3, 89280, Note_on_c, 0, 71, 90
3, 89280, Note_on_c, 0, 83, 89
3, 89280, Note_on_c, 0, 72, 94
3, 89280, Note_on_c, 0, 77, 93
3, 89280, Note_on_c, 0, 38, 68
3, 89280, Note_on_c, 0, 48, 66
3, 89280, Note_on_c, 0, 53, 66
3, 89640, Note_on_c, 0, 53, 0
3, 89640, Note_on_c, 0, 38, 0
3, 89640, Note_on_c, 0, 48, 0
3, 89640, Note_on_c, 0, 53, 68
3, 89640, Note_on_c, 0, 57, 66
3, 89640, Note_on_c, 0, 62, 67
3, 89729, Note_on_c, 0, 62, 0
3, 89729, Note_on_c, 0, 53, 0
3, 89729, Note_on_c, 0, 57, 0
3, 89820, Note_on_c, 0, 53, 55
3, 89820, Note_on_c, 0, 57, 54
3, 89820, Note_on_c, 0, 62, 55
3, 89909, Note_on_c, 0, 62, 0
3, 89909, Note_on_c, 0, 53, 0
3, 89909, Note_on_c, 0, 57, 0
3, 90000, Note_on_c, 0, 53, 57
3, 90000, Note_on_c, 0, 57, 58
3, 90000, Note_on_c, 0, 62, 58
3, 90290, Note_on_c, 0, 72, 0
3, 90290, Note_on_c, 0, 77, 0
3, 90290, Note_on_c, 0, 71, 0
3, 90290, Note_on_c, 0, 83, 0
3, 90360, Note_on_c, 0, 62, 0
3, 90360, Note_on_c, 0, 53, 0
3, 90360, Note_on_c, 0, 57, 0
3, 90360, Note_on_c, 0, 69, 77
3, 90360, Note_on_c, 0, 81, 76
3, 90360, Note_on_c, 0, 72, 83
3, 90360, Note_on_c, 0, 77, 80
3, 90360, Note_on_c, 0, 50, 46
3, 90360, Note_on_c, 0, 53, 45
3, 90449, Note_on_c, 0, 53, 0
3, 90449, Note_on_c, 0, 50, 0
3, 90540, Note_on_c, 0, 50, 50
3, 90540, Note_on_c, 0, 53, 52
3, 90629, Note_on_c, 0, 53, 0
3, 90629, Note_on_c, 0, 50, 0
3, 90685, Note_on_c, 0, 77, 0
3, 90685, Note_on_c, 0, 69, 0
3, 90685, Note_on_c, 0, 81, 0
3, 90685, Note_on_c, 0, 72, 0
3, 90720, Note_on_c, 0, 67, 79
3, 90720, Note_on_c, 0, 79, 79
3, 90720, Note_on_c, 0, 71, 84
3, 90720, Note_on_c, 0, 77, 84
3, 90720, Note_on_c, 0, 43, 60
3, 90720, Note_on_c, 0, 50, 62
3, 90720, Note_on_c, 0, 53, 62
3, 91045, Note_on_c, 0, 79, 0
3, 91045, Note_on_c, 0, 67, 0
3, 91080, Note_on_c, 0, 50, 0
3, 91080, Note_on_c, 0, 43, 0
3, 91080, Note_on_c, 0, 53, 0
3, 91080, Note_on_c, 0, 65, 75
3, 91080, Note_on_c, 0, 77, 73
3, 91080, Note_on_c, 0, 53, 63
3, 91080, Note_on_c, 0, 55, 62
3, 91080, Note_on_c, 0, 59, 64
3, 91169, Note_on_c, 0, 59, 0
3, 91169, Note_on_c, 0, 53, 0
3, 91169, Note_on_c, 0, 55, 0
3, 91260, Note_on_c, 0, 53, 53
3, 91260, Note_on_c, 0, 55, 52
3, 91260, Note_on_c, 0, 59, 54
3, 91349, Note_on_c, 0, 59, 0
3, 91349, Note_on_c, 0, 53, 0
3, 91349, Note_on_c, 0, 55, 0
3, 91405, Note_on_c, 0, 65, 0
3, 91405, Note_on_c, 0, 77, 0
3, 91440, Note_on_c, 0, 64, 76
3, 91440, Note_on_c, 0, 76, 75
3, 91440, Note_on_c, 0, 53, 58
3, 91440, Note_on_c, 0, 55, 60
3, 91440, Note_on_c, 0, 59, 59
3, 91765, Note_on_c, 0, 76, 0
3, 91765, Note_on_c, 0, 64, 0
3, 91800, Note_on_c, 0, 55, 0
3, 91800, Note_on_c, 0, 53, 0
3, 91800, Note_on_c, 0, 59, 0
3, 91800, Note_on_c, 0, 65, 84
3, 91800, Note_on_c, 0, 77, 82
3, 91800, Note_on_c, 0, 43, 51
3, 91800, Note_on_c, 0, 53, 50
3, 91800, Note_on_c, 0, 55, 49
3, 91889, Note_on_c, 0, 55, 0
3, 91889, Note_on_c, 0, 43, 0
3, 91889, Note_on_c, 0, 53, 0
3, 91980, Note_on_c, 0, 43, 53
3, 91980, Note_on_c, 0, 53, 51
3, 91980, Note_on_c, 0, 55, 54
3, 92069, Note_on_c, 0, 55, 0
3, 92069, Note_on_c, 0, 43, 0
3, 92069, Note_on_c, 0, 53, 0
3, 92090, Note_on_c, 0, 77, 0
3, 92090, Note_on_c, 0, 71, 0
3, 92125, Note_on_c, 0, 65, 0
3, 92125, Note_on_c, 0, 77, 0
3, 92160, Note_on_c, 0, 67, 87
3, 92160, Note_on_c, 0, 79, 88
3, 92160, Note_on_c, 0, 71, 80
3, 92160, Note_on_c, 0, 76, 80
3, 92160, Note_on_c, 0, 40, 49
3, 92160, Note_on_c, 0, 47, 50
3, 92520, Note_on_c, 0, 47, 0
3, 92520, Note_on_c, 0, 40, 0
3, 92520, Note_on_c, 0, 55, 69
3, 92520, Note_on_c, 0, 59, 65
3, 92609, Note_on_c, 0, 59, 0
3, 92609, Note_on_c, 0, 55, 0
3, 92700, Note_on_c, 0, 55, 52
3, 92700, Note_on_c, 0, 59, 52
3, 92789, Note_on_c, 0, 59, 0
3, 92789, Note_on_c, 0, 55, 0
3, 92880, Note_on_c, 0, 55, 58
3, 92880, Note_on_c, 0, 59, 61
3, 93170, Note_on_c, 0, 71, 0
3, 93170, Note_on_c, 0, 76, 0
3, 93170, Note_on_c, 0, 67, 0
3, 93170, Note_on_c, 0, 79, 0
3, 93240, Note_on_c, 0, 59, 0
3, 93240, Note_on_c, 0, 55, 0
3, 93240, Note_on_c, 0, 59, 65
3, 93240, Note_on_c, 0, 71, 65
3, 93240, Note_on_c, 0, 67, 64
3, 93240, Note_on_c, 0, 52, 52
3, 93240, Note_on_c, 0, 55, 48
3, 93329, Note_on_c, 0, 55, 0
3, 93329, Note_on_c, 0, 52, 0
3, 93420, Note_on_c, 0, 52, 54
3, 93420, Note_on_c, 0, 55, 51
3, 93509, Note_on_c, 0, 55, 0
3, 93509, Note_on_c, 0, 52, 0
3, 93565, Note_on_c, 0, 67, 0
3, 93565, Note_on_c, 0, 71, 0
3, 93565, Note_on_c, 0, 59, 0
3, 93600, Note_on_c, 0, 61, 88
3, 93600, Note_on_c, 0, 73, 86
3, 93600, Note_on_c, 0, 67, 79
3, 93600, Note_on_c, 0, 45, 63
3, 93600, Note_on_c, 0, 52, 62
3, 93600, Note_on_c, 0, 55, 62
3, 93960, Note_on_c, 0, 55, 0
3, 93960, Note_on_c, 0, 45, 0
3, 93960, Note_on_c, 0, 52, 0
3, 93960, Note_on_c, 0, 55, 59
3, 93960, Note_on_c, 0, 57, 59
3, 94049, Note_on_c, 0, 57, 0
3, 94049, Note_on_c, 0, 55, 0
3, 94140, Note_on_c, 0, 55, 55
3, 94140, Note_on_c, 0, 57, 52
3, 94229, Note_on_c, 0, 57, 0
3, 94229, Note_on_c, 0, 55, 0
3, 94320, Note_on_c, 0, 55, 58
3, 94320, Note_on_c, 0, 57, 58
3, 94610, Note_on_c, 0, 61, 0
3, 94610, Note_on_c, 0, 73, 0
3, 94680, Note_on_c, 0, 57, 0
3, 94680, Note_on_c, 0, 55, 0
3, 94680, Note_on_c, 0, 62, 85
3, 94680, Note_on_c, 0, 74, 85
3, 94680, Note_on_c, 0, 45, 53
3, 94680, Note_on_c, 0, 55, 53
3, 94769, Note_on_c, 0, 55, 0
3, 94769, Note_on_c, 0, 45, 0
3, 94860, Note_on_c, 0, 45, 52
3, 94860, Note_on_c, 0, 55, 52
3, 94949, Note_on_c, 0, 55, 0
3, 94949, Note_on_c, 0, 45, 0
3, 94970, Note_on_c, 0, 67, 0
3, 95005, Note_on_c, 0, 74, 0
3, 95005, Note_on_c, 0, 62, 0
3, 95040, Note_on_c, 0, 62, 83
3, 95040, Note_on_c, 0, 74, 86
3, 95040, Note_on_c, 0, 67, 82
3, 95040, Note_on_c, 0, 45, 61
3, 95040, Note_on_c, 0, 55, 64
3, 95365, Note_on_c, 0, 74, 0
3, 95365, Note_on_c, 0, 62, 0
3, 95400, Note_on_c, 0, 45, 0
3, 95400, Note_on_c, 0, 55, 0
3, 95400, Note_on_c, 0, 61, 78
3, 95400, Note_on_c, 0, 73, 75
3, 95400, Note_on_c, 0, 55, 68
3, 95400, Note_on_c, 0, 58, 66
3, 95400, Note_on_c, 0, 64, 67
3, 95489, Note_on_c, 0, 64, 0
3, 95489, Note_on_c, 0, 55, 0
3, 95489, Note_on_c, 0, 58, 0
3, 95580, Note_on_c, 0, 55, 56
3, 95580, Note_on_c, 0, 58, 53
3, 95580, Note_on_c, 0, 64, 54
3, 95669, Note_on_c, 0, 64, 0
3, 95669, Note_on_c, 0, 55, 0
3, 95669, Note_on_c, 0, 58, 0
3, 95690, Note_on_c, 0, 67, 0
3, 95725, Note_on_c, 0, 73, 0
3, 95725, Note_on_c, 0, 61, 0
3, 95760, Note_on_c, 0, 62, 81
3, 95760, Note_on_c, 0, 74, 82
3, 95760, Note_on_c, 0, 69, 85
3, 95760, Note_on_c, 0, 55, 59
3, 95760, Note_on_c, 0, 57, 57
3, 95760, Note_on_c, 0, 64, 57
3, 96085, Note_on_c, 0, 74, 0
3, 96085, Note_on_c, 0, 62, 0
3, 96120, Note_on_c, 0, 57, 0
3, 96120, Note_on_c, 0, 55, 0
3, 96120, Note_on_c, 0, 64, 0
3, 96120, Note_on_c, 0, 64, 86
3, 96120, Note_on_c, 0, 76, 84
3, 96120, Note_on_c, 0, 45, 49
3, 96120, Note_on_c, 0, 55, 46
3, 96120, Note_on_c, 0, 57, 46
3, 96209, Note_on_c, 0, 57, 0
3, 96209, Note_on_c, 0, 45, 0
3, 96209, Note_on_c, 0, 55, 0
3, 96300, Note_on_c, 0, 45, 51
3, 96300, Note_on_c, 0, 55, 53
3, 96300, Note_on_c, 0, 57, 52
3, 96389, Note_on_c, 0, 57, 0
3, 96389, Note_on_c, 0, 45, 0
3, 96389, Note_on_c, 0, 55, 0
3, 96410, Note_on_c, 0, 69, 0
3, 96445, Note_on_c, 0, 76, 0
3, 96445, Note_on_c, 0, 64, 0
3, 96480, Note_on_c, 0, 64, 83
3, 96480, Note_on_c, 0, 76, 85
3, 96480, Note_on_c, 0, 69, 84
3, 96480, Note_on_c, 0, 38, 46
3, 96480, Note_on_c, 0, 45, 48
3, 96805, Note_on_c, 0, 76, 0
3, 96805, Note_on_c, 0, 64, 0
3, 96840, Note_on_c, 0, 38, 0
3, 96840, Note_on_c, 0, 45, 0
3, 96840, Note_on_c, 0, 65, 84
3, 96840, Note_on_c, 0, 77, 83
3, 96840, Note_on_c, 0, 53, 67
3, 96840, Note_on_c, 0, 57, 66
3, 96929, Note_on_c, 0, 57, 0
3, 96929, Note_on_c, 0, 53, 0
3, 97020, Note_on_c, 0, 53, 55
3, 97020, Note_on_c, 0, 57, 54
3, 97109, Note_on_c, 0, 57, 0
3, 97109, Note_on_c, 0, 53, 0
3, 97130, Note_on_c, 0, 69, 0
3, 97165, Note_on_c, 0, 77, 0
3, 97165, Note_on_c, 0, 65, 0
3, 97200, Note_on_c, 0, 69, 90
3, 97200, Note_on_c, 0, 81, 88
3, 97200, Note_on_c, 0, 74, 93
3, 97200, Note_on_c, 0, 53, 61
3, 97200, Note_on_c, 0, 57, 59
3, 97525, Note_on_c, 0, 81, 0
3, 97525, Note_on_c, 0, 69, 0
3, 97560, Note_on_c, 0, 53, 0
3, 97560, Note_on_c, 0, 57, 0
3, 97560, Note_on_c, 0, 67, 75
3, 97560, Note_on_c, 0, 79, 77
3, 97560, Note_on_c, 0, 38, 42
3, 97560, Note_on_c, 0, 45, 40
3, 97649, Note_on_c, 0, 45, 0
3, 97649, Note_on_c, 0, 38, 0
3, 97740, Note_on_c, 0, 38, 51
3, 97740, Note_on_c, 0, 45, 50
3, 97829, Note_on_c, 0, 45, 0
3, 97829, Note_on_c, 0, 38, 0
3, 97850, Note_on_c, 0, 74, 0
3, 97885, Note_on_c, 0, 79, 0
3, 97885, Note_on_c, 0, 67, 0
3, 97920, Note_on_c, 0, 65, 79
3, 97920, Note_on_c, 0, 77, 79
3, 97920, Note_on_c, 0, 68, 86
3, 97920, Note_on_c, 0, 74, 85
3, 97920, Note_on_c, 0, 40, 69
3, 97920, Note_on_c, 0, 50, 70
3, 98280, Note_on_c, 0, 50, 0
3, 98280, Note_on_c, 0, 40, 0
3, 98280, Note_on_c, 0, 52, 71
3, 98280, Note_on_c, 0, 56, 71
3, 98280, Note_on_c, 0, 62, 70
3, 98369, Note_on_c, 0, 62, 0
3, 98369, Note_on_c, 0, 52, 0
3, 98369, Note_on_c, 0, 56, 0
3, 98460, Note_on_c, 0, 52, 55
3, 98460, Note_on_c, 0, 56, 54
3, 98460, Note_on_c, 0, 62, 54
3, 98549, Note_on_c, 0, 62, 0
3, 98549, Note_on_c, 0, 52, 0
3, 98549, Note_on_c, 0, 56, 0
3, 98570, Note_on_c, 0, 65, 0
3, 98570, Note_on_c, 0, 77, 0
3, 98640, Note_on_c, 0, 64, 75
3, 98640, Note_on_c, 0, 76, 77
3, 98640, Note_on_c, 0, 52, 61
3, 98640, Note_on_c, 0, 56, 59
3, 98640, Note_on_c, 0, 62, 58
3, 98965, Note_on_c, 0, 76, 0
3, 98965, Note_on_c, 0, 64, 0
3, 99000, Note_on_c, 0, 56, 0
3, 99000, Note_on_c, 0, 52, 0
3, 99000, Note_on_c, 0, 62, 0
3, 99000, Note_on_c, 0, 62, 74
3, 99000, Note_on_c, 0, 74, 74
3, 99000, Note_on_c, 0, 40, 42
3, 99000, Note_on_c, 0, 52, 45
3, 99089, Note_on_c, 0, 52, 0
3, 99089, Note_on_c, 0, 40, 0
3, 99180, Note_on_c, 0, 40, 51
3, 99180, Note_on_c, 0, 52, 49
3, 99269, Note_on_c, 0, 52, 0
3, 99269, Note_on_c, 0, 40, 0
3, 99290, Note_on_c, 0, 74, 0
3, 99290, Note_on_c, 0, 68, 0
3, 99325, Note_on_c, 0, 62, 0
3, 99325, Note_on_c, 0, 74, 0
3, 99360, Note_on_c, 0, 59, 78
3, 99360, Note_on_c, 0, 71, 77
3, 99360, Note_on_c, 0, 64, 74
3, 99360, Note_on_c, 0, 69, 72
3, 99360, Note_on_c, 0, 45, 63
3, 99360, Note_on_c, 0, 52, 64
3, 99685, Note_on_c, 0, 71, 0
3, 99685, Note_on_c, 0, 59, 0
3, 99720, Note_on_c, 0, 45, 0
3, 99720, Note_on_c, 0, 52, 0
3, 99720, Note_on_c, 0, 60, 83
3, 99720, Note_on_c, 0, 72, 85
3, 99720, Note_on_c, 0, 52, 62
3, 99720, Note_on_c, 0, 57, 60
3, 99809, Note_on_c, 0, 57, 0
3, 99809, Note_on_c, 0, 52, 0
3, 99900, Note_on_c, 0, 52, 52
3, 99900, Note_on_c, 0, 57, 52
3, 99989, Note_on_c, 0, 57, 0
3, 99989, Note_on_c, 0, 52, 0
3, 100010, Note_on_c, 0, 69, 0
3, 100010, Note_on_c, 0, 64, 0
3, 100045, Note_on_c, 0, 60, 0
3, 100045, Note_on_c, 0, 72, 0
3, 100080, Note_on_c, 0, 64, 87
3, 100080, Note_on_c, 0, 76, 90
3, 100080, Note_on_c, 0, 67, 83
3, 100080, Note_on_c, 0, 72, 86
3, 100080, Note_on_c, 0, 52, 63
3, 100080, Note_on_c, 0, 57, 62
3, 100080, Note_on_c, 0, 60, 63
3, 100440, Note_on_c, 0, 60, 0
3, 100440, Note_on_c, 0, 52, 0
3, 100440, Note_on_c, 0, 57, 0
3, 100440, Note_on_c, 0, 45, 48
3, 100440, Note_on_c, 0, 52, 49
3, 100529, Note_on_c, 0, 52, 0
3, 100529, Note_on_c, 0, 45, 0
3, 100620, Note_on_c, 0, 45, 51
3, 100620, Note_on_c, 0, 52, 51
3, 100709, Note_on_c, 0, 52, 0
3, 100709, Note_on_c, 0, 45, 0
3, 100730, Note_on_c, 0, 67, 0
3, 100730, Note_on_c, 0, 72, 0
3, 100800, Note_on_c, 0, 66, 85
3, 100800, Note_on_c, 0, 72, 82
3, 100800, Note_on_c, 0, 38, 47
3, 100800, Note_on_c, 0, 45, 46
3, 101125, Note_on_c, 0, 45, 0
3, 101125, Note_on_c, 0, 76, 0
3, 101125, Note_on_c, 0, 64, 0
3, 101125, Note_on_c, 0, 38, 0
3, 101160, Note_on_c, 0, 62, 76
3, 101160, Note_on_c, 0, 74, 76
3, 101160, Note_on_c, 0, 50, 65
3, 101160, Note_on_c, 0, 54, 68
3, 101160, Note_on_c, 0, 60, 67
3, 101249, Note_on_c, 0, 60, 0
3, 101249, Note_on_c, 0, 50, 0
3, 101249, Note_on_c, 0, 54, 0
3, 101340, Note_on_c, 0, 50, 56
3, 101340, Note_on_c, 0, 54, 55
3, 101340, Note_on_c, 0, 60, 54
3, 101429, Note_on_c, 0, 60, 0
3, 101429, Note_on_c, 0, 50, 0
3, 101429, Note_on_c, 0, 54, 0
3, 101485, Note_on_c, 0, 74, 0
3, 101485, Note_on_c, 0, 62, 0
3, 101520, Note_on_c, 0, 60, 75
3, 101520, Note_on_c, 0, 72, 77
3, 101520, Note_on_c, 0, 50, 52
3, 101520, Note_on_c, 0, 57, 55
3, 101845, Note_on_c, 0, 60, 0
3, 101845, Note_on_c, 0, 72, 0
3, 101880, Note_on_c, 0, 50, 0
3, 101880, Note_on_c, 0, 57, 0
3, 101880, Note_on_c, 0, 57, 72
3, 101880, Note_on_c, 0, 69, 74
3, 101880, Note_on_c, 0, 38, 45
3, 101880, Note_on_c, 0, 50, 45
3, 101969, Note_on_c, 0, 50, 0
3, 101969, Note_on_c, 0, 38, 0
3, 102060, Note_on_c, 0, 38, 51
3, 102060, Note_on_c, 0, 50, 51
3, 102149, Note_on_c, 0, 50, 0
3, 102149, Note_on_c, 0, 38, 0
3, 102170, Note_on_c, 0, 66, 0
3, 102170, Note_on_c, 0, 72, 0
3, 102205, Note_on_c, 0, 57, 0
3, 102205, Note_on_c, 0, 69, 0
3, 102240, Note_on_c, 0, 71, 88
3, 102240, Note_on_c, 0, 60, 62
3, 102240, Note_on_c, 0, 31, 47
3, 102240, Note_on_c, 0, 43, 47
3, 102565, Note_on_c, 0, 43, 0
3, 102565, Note_on_c, 0, 31, 0
3, 102565, Note_on_c, 0, 71, 0
3, 102600, Note_on_c, 0, 69, 76
3, 102600, Note_on_c, 0, 52, 67
3, 102600, Note_on_c, 0, 55, 65
3, 102689, Note_on_c, 0, 55, 0
3, 102689, Note_on_c, 0, 52, 0
3, 102780, Note_on_c, 0, 52, 54
3, 102780, Note_on_c, 0, 55, 55
3, 102869, Note_on_c, 0, 55, 0
3, 102869, Note_on_c, 0, 52, 0
3, 102925, Note_on_c, 0, 69, 0
3, 102960, Note_on_c, 0, 67, 74
3, 102960, Note_on_c, 0, 52, 57
3, 102960, Note_on_c, 0, 55, 59
3, 103320, Note_on_c, 0, 55, 0
3, 103320, Note_on_c, 0, 52, 0
3, 103320, Note_on_c, 0, 43, 50
3, 103320, Note_on_c, 0, 52, 51
3, 103409, Note_on_c, 0, 52, 0
3, 103409, Note_on_c, 0, 43, 0
3, 103500, Note_on_c, 0, 43, 53
3, 103500, Note_on_c, 0, 52, 50
3, 103589, Note_on_c, 0, 52, 0
3, 103589, Note_on_c, 0, 43, 0
3, 103680, Note_on_c, 0, 43, 65
3, 103680, Note_on_c, 0, 53, 66
3, 104005, Note_on_c, 0, 67, 0
3, 104040, Note_on_c, 0, 53, 0
3, 104040, Note_on_c, 0, 43, 0
3, 104040, Note_on_c, 0, 65, 75
3, 104040, Note_on_c, 0, 53, 57
3, 104040, Note_on_c, 0, 55, 61
3, 104129, Note_on_c, 0, 55, 0
3, 104129, Note_on_c, 0, 53, 0
3, 104220, Note_on_c, 0, 53, 51
3, 104220, Note_on_c, 0, 55, 53
3, 104309, Note_on_c, 0, 55, 0
3, 104309, Note_on_c, 0, 53, 0
3, 104330, Note_on_c, 0, 60, 0
3, 104365, Note_on_c, 0, 65, 0
3, 104400, Note_on_c, 0, 64, 75
3, 104400, Note_on_c, 0, 59, 78
3, 104400, Note_on_c, 0, 53, 54
3, 104400, Note_on_c, 0, 55, 52
3, 104577, Note_on_c, 0, 55, 0
3, 104577, Note_on_c, 0, 53, 0
3, 104725, Note_on_c, 0, 64, 0
3, 104760, Note_on_c, 0, 62, 75
3, 104760, Note_on_c, 0, 43, 53
3, 104760, Note_on_c, 0, 53, 55
3, 104937, Note_on_c, 0, 53, 0
3, 104937, Note_on_c, 0, 43, 0
3, 105050, Note_on_c, 0, 59, 0
3, 105085, Note_on_c, 0, 62, 0
3, 105120, Note_on_c, 0, 60, 78
3, 105120, Note_on_c, 0, 48, 47
3, 106130, Note_on_c, 0, 48, 0
3, 106130, Note_on_c, 0, 60, 0
3, 106200, Note_on_c, 0, 65, 89
3, 106200, Note_on_c, 0, 53, 57
3, 106525, Note_on_c, 0, 53, 0
3, 106525, Note_on_c, 0, 65, 0
3, 106560, Note_on_c, 0, 67, 89
3, 106560, Note_on_c, 0, 55, 61
3, 107210, Note_on_c, 0, 55, 0
3, 107210, Note_on_c, 0, 67, 0
3, 107280, Note_on_c, 0, 62, 71
3, 107280, Note_on_c, 0, 50, 45
3, 107605, Note_on_c, 0, 50, 0
3, 107605, Note_on_c, 0, 62, 0
3, 107640, Note_on_c, 0, 64, 85
3, 107640, Note_on_c, 0, 52, 53
3, 107965, Note_on_c, 0, 52, 0
3, 107965, Note_on_c, 0, 64, 0
3, 108000, Note_on_c, 0, 48, 76
3, 108000, Note_on_c, 0, 60, 78
3, 108360, Note_on_c, 0, 41, 47
3, 108360, Note_on_c, 0, 53, 49
3, 108685, Note_on_c, 0, 53, 0
3, 108685, Note_on_c, 0, 41, 0
3, 108720, Note_on_c, 0, 40, 48
3, 108720, Note_on_c, 0, 52, 48
3, 109045, Note_on_c, 0, 52, 0
3, 109045, Note_on_c, 0, 40, 0
3, 109080, Note_on_c, 0, 38, 50
3, 109080, Note_on_c, 0, 50, 49
3, 109405, Note_on_c, 0, 50, 0
3, 109405, Note_on_c, 0, 38, 0
3, 109440, Note_on_c, 0, 48, 62
3, 109440, Note_on_c, 0, 36, 43
3, 109765, Note_on_c, 0, 36, 0
3, 109800, Note_on_c, 0, 35, 64
3, 109800, Note_on_c, 0, 47, 67
3, 109963, Note_on_c, 0, 47, 0
3, 109963, Note_on_c, 0, 35, 0
3, 109980, Note_on_c, 0, 33, 51
3, 109980, Note_on_c, 0, 45, 53
3, 110090, Note_on_c, 0, 60, 0
3, 110090, Note_on_c, 0, 48, 0
3, 110143, Note_on_c, 0, 33, 0
3, 110143, Note_on_c, 0, 45, 0
3, 110160, Note_on_c, 0, 59, 79
3, 110160, Note_on_c, 0, 47, 73
3, 110160, Note_on_c, 0, 32, 49
3, 110160, Note_on_c, 0, 44, 50
3, 110485, Note_on_c, 0, 44, 0
3, 110485, Note_on_c, 0, 59, 0
3, 110485, Note_on_c, 0, 32, 0
3, 110520, Note_on_c, 0, 57, 75
3, 110520, Note_on_c, 0, 30, 48
3, 110520, Note_on_c, 0, 42, 48
3, 110810, Note_on_c, 0, 47, 0
3, 110845, Note_on_c, 0, 30, 0
3, 110845, Note_on_c, 0, 42, 0
3, 110845, Note_on_c, 0, 57, 0
3, 110880, Note_on_c, 0, 56, 80
3, 110880, Note_on_c, 0, 47, 83
3, 110880, Note_on_c, 0, 28, 50
3, 110880, Note_on_c, 0, 40, 53
3, 111205, Note_on_c, 0, 56, 0
3, 111240, Note_on_c, 0, 57, 83
3, 111565, Note_on_c, 0, 57, 0
3, 111600, Note_on_c, 0, 59, 83
3, 113760, Note_on_c, 0, 59, 105
3, 114085, Note_on_c, 0, 59, 0
3, 114085, Note_on_c, 0, 40, 0
3, 114085, Note_on_c, 0, 28, 0
3, 114085, Note_on_c, 0, 47, 0
3, 115200, Note_on_c, 0, 48, 0
3, 115200, Note_on_c, 0, 59, 0
3, 116100, Note_on_c, 0, 44, 74
3, 116100, Note_on_c, 0, 32, 47
3, 116189, Note_on_c, 0, 32, 0
3, 116189, Note_on_c, 0, 44, 0
3, 116280, Note_on_c, 0, 45, 87
3, 116280, Note_on_c, 0, 33, 57
3, 116369, Note_on_c, 0, 33, 0
3, 116369, Note_on_c, 0, 45, 0
3, 116460, Note_on_c, 0, 47, 84
3, 116460, Note_on_c, 0, 35, 55
3, 116549, Note_on_c, 0, 35, 0
3, 116549, Note_on_c, 0, 47, 0
3, 116640, Note_on_c, 0, 48, 86
3, 116640, Note_on_c, 0, 36, 58
3, 116817, Note_on_c, 0, 36, 0
3, 116817, Note_on_c, 0, 48, 0
3, 117720, Note_on_c, 0, 45, 76
3, 117720, Note_on_c, 0, 33, 52
3, 117809, Note_on_c, 0, 33, 0
3, 117809, Note_on_c, 0, 45, 0
3, 117900, Note_on_c, 0, 47, 86
3, 117900, Note_on_c, 0, 35, 54
3, 117989, Note_on_c, 0, 35, 0
3, 117989, Note_on_c, 0, 47, 0
3, 118080, Note_on_c, 0, 48, 88
3, 118080, Note_on_c, 0, 36, 56
3, 118257, Note_on_c, 0, 36, 0
3, 118257, Note_on_c, 0, 48, 0
3, 118980, Note_on_c, 0, 44, 71
3, 118980, Note_on_c, 0, 32, 50
3, 119143, Note_on_c, 0, 32, 0
3, 119143, Note_on_c, 0, 44, 0
3, 119160, Note_on_c, 0, 45, 88
3, 119160, Note_on_c, 0, 33, 57
3, 119323, Note_on_c, 0, 33, 0
3, 119323, Note_on_c, 0, 45, 0
3, 119340, Note_on_c, 0, 47, 85
3, 119340, Note_on_c, 0, 35, 56
3, 119503, Note_on_c, 0, 35, 0
3, 119503, Note_on_c, 0, 47, 0
3, 119520, Note_on_c, 0, 48, 87
3, 119520, Note_on_c, 0, 36, 59
3, 119683, Note_on_c, 0, 36, 0
3, 119683, Note_on_c, 0, 48, 0
3, 119700, Note_on_c, 0, 50, 86
3, 119700, Note_on_c, 0, 38, 58
3, 119863, Note_on_c, 0, 38, 0
3, 119863, Note_on_c, 0, 50, 0
3, 119880, Note_on_c, 0, 52, 90
3, 119880, Note_on_c, 0, 40, 60
3, 120043, Note_on_c, 0, 40, 0
3, 120043, Note_on_c, 0, 52, 0
3, 120060, Note_on_c, 0, 50, 75
3, 120060, Note_on_c, 0, 38, 50
3, 120223, Note_on_c, 0, 38, 0
3, 120223, Note_on_c, 0, 50, 0
3, 120240, Note_on_c, 0, 48, 75
3, 120240, Note_on_c, 0, 36, 49
3, 120565, Note_on_c, 0, 36, 0
3, 120565, Note_on_c, 0, 48, 0
3, 120600, Note_on_c, 0, 45, 77
3, 120600, Note_on_c, 0, 33, 52
3, 120763, Note_on_c, 0, 33, 0
3, 120763, Note_on_c, 0, 45, 0
3, 120780, Note_on_c, 0, 47, 84
3, 120780, Note_on_c, 0, 35, 54
3, 120943, Note_on_c, 0, 35, 0
3, 120943, Note_on_c, 0, 47, 0
3, 120960, Note_on_c, 0, 48, 86
3, 120960, Note_on_c, 0, 36, 57
3, 121285, Note_on_c, 0, 36, 0
3, 121285, Note_on_c, 0, 48, 0
3, 121320, Note_on_c, 0, 45, 78
3, 121320, Note_on_c, 0, 33, 52
3, 121483, Note_on_c, 0, 33, 0
3, 121483, Note_on_c, 0, 45, 0
3, 121500, Note_on_c, 0, 47, 84
3, 121500, Note_on_c, 0, 35, 53
3, 121663, Note_on_c, 0, 35, 0
3, 121663, Note_on_c, 0, 47, 0
3, 121680, Note_on_c, 0, 48, 88
3, 121680, Note_on_c, 0, 36, 57
3, 121843, Note_on_c, 0, 36, 0
3, 121843, Note_on_c, 0, 48, 0
3, 121860, Note_on_c, 0, 50, 87
3, 121860, Note_on_c, 0, 38, 56
3, 122023, Note_on_c, 0, 38, 0
3, 122023, Note_on_c, 0, 50, 0
3, 122040, Note_on_c, 0, 51, 90
3, 122040, Note_on_c, 0, 39, 58
3, 122203, Note_on_c, 0, 39, 0
3, 122203, Note_on_c, 0, 51, 0
3, 122220, Note_on_c, 0, 50, 76
3, 122220, Note_on_c, 0, 38, 51
3, 122383, Note_on_c, 0, 38, 0
3, 122383, Note_on_c, 0, 50, 0
3, 122400, Note_on_c, 0, 48, 80
3, 122400, Note_on_c, 0, 36, 52
3, 122563, Note_on_c, 0, 36, 0
3, 122563, Note_on_c, 0, 48, 0
3, 122580, Note_on_c, 0, 46, 77
3, 122580, Note_on_c, 0, 34, 49
3, 122743, Note_on_c, 0, 34, 0
3, 122743, Note_on_c, 0, 46, 0
3, 122760, Note_on_c, 0, 44, 78
3, 122760, Note_on_c, 0, 32, 54
3, 122923, Note_on_c, 0, 32, 0
3, 122923, Note_on_c, 0, 44, 0
3, 122940, Note_on_c, 0, 46, 87
3, 122940, Note_on_c, 0, 34, 56
3, 123103, Note_on_c, 0, 34, 0
3, 123103, Note_on_c, 0, 46, 0
3, 123120, Note_on_c, 0, 48, 88
3, 123120, Note_on_c, 0, 36, 57
3, 123445, Note_on_c, 0, 36, 0
3, 123445, Note_on_c, 0, 48, 0
3, 123480, Note_on_c, 0, 44, 75
3, 123480, Note_on_c, 0, 32, 51
3, 123643, Note_on_c, 0, 32, 0
3, 123643, Note_on_c, 0, 44, 0
3, 123660, Note_on_c, 0, 46, 83
3, 123660, Note_on_c, 0, 34, 53
3, 123823, Note_on_c, 0, 34, 0
3, 123823, Note_on_c, 0, 46, 0
3, 123840, Note_on_c, 0, 48, 87
3, 123840, Note_on_c, 0, 36, 57
3, 124003, Note_on_c, 0, 36, 0
3, 124003, Note_on_c, 0, 48, 0
3, 124020, Note_on_c, 0, 50, 87
3, 124020, Note_on_c, 0, 38, 55
3, 124183, Note_on_c, 0, 38, 0
3, 124183, Note_on_c, 0, 50, 0
3, 124200, Note_on_c, 0, 51, 88
3, 124200, Note_on_c, 0, 39, 60
3, 124363, Note_on_c, 0, 39, 0
3, 124363, Note_on_c, 0, 51, 0
3, 124380, Note_on_c, 0, 50, 80
3, 124380, Note_on_c, 0, 38, 50
3, 124543, Note_on_c, 0, 38, 0
3, 124543, Note_on_c, 0, 50, 0
3, 124560, Note_on_c, 0, 48, 79
3, 124560, Note_on_c, 0, 36, 51
3, 124723, Note_on_c, 0, 36, 0
3, 124723, Note_on_c, 0, 48, 0
3, 124740, Note_on_c, 0, 46, 75
3, 124740, Note_on_c, 0, 34, 49
3, 124903, Note_on_c, 0, 34, 0
3, 124903, Note_on_c, 0, 46, 0
3, 124920, Note_on_c, 0, 44, 77
3, 124920, Note_on_c, 0, 32, 51
3, 125245, Note_on_c, 0, 32, 0
3, 125245, Note_on_c, 0, 44, 0
3, 125280, Note_on_c, 0, 54, 127
3, 125280, Note_on_c, 0, 60, 127
3, 125280, Note_on_c, 0, 38, 99
3, 125280, Note_on_c, 0, 45, 100
3, 126163, Note_on_c, 0, 45, 0
3, 126163, Note_on_c, 0, 54, 0
3, 126163, Note_on_c, 0, 60, 0
3, 126163, Note_on_c, 0, 38, 0
3, 126180, Note_on_c, 0, 54, 77
3, 126180, Note_on_c, 0, 59, 77
3, 126180, Note_on_c, 0, 38, 51
3, 126180, Note_on_c, 0, 45, 53
3, 126343, Note_on_c, 0, 45, 0
3, 126343, Note_on_c, 0, 54, 0
3, 126343, Note_on_c, 0, 59, 0
3, 126343, Note_on_c, 0, 38, 0
3, 126360, Note_on_c, 0, 54, 88
3, 126360, Note_on_c, 0, 60, 88
3, 126360, Note_on_c, 0, 38, 54
3, 126360, Note_on_c, 0, 45, 55
3, 126523, Note_on_c, 0, 45, 0
3, 126523, Note_on_c, 0, 54, 0
3, 126523, Note_on_c, 0, 60, 0
3, 126523, Note_on_c, 0, 38, 0
3, 126540, Note_on_c, 0, 54, 86
3, 126540, Note_on_c, 0, 61, 87
3, 126540, Note_on_c, 0, 38, 53
3, 126540, Note_on_c, 0, 45, 52
3, 126703, Note_on_c, 0, 45, 0
3, 126703, Note_on_c, 0, 54, 0
3, 126703, Note_on_c, 0, 61, 0
3, 126703, Note_on_c, 0, 38, 0
3, 126720, Note_on_c, 0, 54, 115
3, 126720, Note_on_c, 0, 60, 114
3, 126720, Note_on_c, 0, 62, 112
3, 126720, Note_on_c, 0, 38, 81
3, 126720, Note_on_c, 0, 45, 81
3, 127603, Note_on_c, 0, 45, 0
3, 127603, Note_on_c, 0, 62, 0
3, 127603, Note_on_c, 0, 54, 0
3, 127603, Note_on_c, 0, 60, 0
3, 127603, Note_on_c, 0, 38, 0
3, 127620, Note_on_c, 0, 54, 73
3, 127620, Note_on_c, 0, 59, 72
3, 127620, Note_on_c, 0, 38, 54
3, 127620, Note_on_c, 0, 45, 53
3, 127783, Note_on_c, 0, 45, 0
3, 127783, Note_on_c, 0, 54, 0
3, 127783, Note_on_c, 0, 59, 0
3, 127783, Note_on_c, 0, 38, 0
3, 127800, Note_on_c, 0, 54, 85
3, 127800, Note_on_c, 0, 60, 87
3, 127800, Note_on_c, 0, 38, 56
3, 127800, Note_on_c, 0, 45, 54
3, 127963, Note_on_c, 0, 45, 0
3, 127963, Note_on_c, 0, 54, 0
3, 127963, Note_on_c, 0, 60, 0
3, 127963, Note_on_c, 0, 38, 0
3, 127980, Note_on_c, 0, 54, 85
3, 127980, Note_on_c, 0, 61, 82
3, 127980, Note_on_c, 0, 38, 54
3, 127980, Note_on_c, 0, 45, 55
3, 128143, Note_on_c, 0, 45, 0
3, 128143, Note_on_c, 0, 54, 0
3, 128143, Note_on_c, 0, 61, 0
3, 128143, Note_on_c, 0, 38, 0
3, 128160, Note_on_c, 0, 54, 113
3, 128160, Note_on_c, 0, 60, 115
3, 128160, Note_on_c, 0, 62, 115
3, 128160, Note_on_c, 0, 38, 82
3, 128160, Note_on_c, 0, 45, 81
3, 128647, Note_on_c, 0, 45, 0
3, 128647, Note_on_c, 0, 62, 0
3, 128647, Note_on_c, 0, 54, 0
3, 128647, Note_on_c, 0, 60, 0
3, 128647, Note_on_c, 0, 38, 0
3, 128700, Note_on_c, 0, 55, 90
3, 128700, Note_on_c, 0, 60, 91
3, 128700, Note_on_c, 0, 64, 90
3, 128700, Note_on_c, 0, 67, 91
3, 128700, Note_on_c, 0, 33, 53
3, 128700, Note_on_c, 0, 45, 52
3, 128863, Note_on_c, 0, 45, 0
3, 128863, Note_on_c, 0, 60, 0
3, 128863, Note_on_c, 0, 64, 0
3, 128863, Note_on_c, 0, 55, 0
3, 128863, Note_on_c, 0, 33, 0
3, 128863, Note_on_c, 0, 67, 0
3, 128880, Note_on_c, 0, 54, 105
3, 128880, Note_on_c, 0, 60, 103
3, 128880, Note_on_c, 0, 62, 101
3, 128880, Note_on_c, 0, 66, 105
3, 128880, Note_on_c, 0, 38, 78
3, 128880, Note_on_c, 0, 45, 79
3, 129367, Note_on_c, 0, 45, 0
3, 129367, Note_on_c, 0, 60, 0
3, 129367, Note_on_c, 0, 62, 0
3, 129367, Note_on_c, 0, 54, 0
3, 129367, Note_on_c, 0, 38, 0
3, 129367, Note_on_c, 0, 66, 0
3, 129420, Note_on_c, 0, 55, 83
3, 129420, Note_on_c, 0, 60, 86
3, 129420, Note_on_c, 0, 64, 84
3, 129420, Note_on_c, 0, 67, 85
3, 129420, Note_on_c, 0, 33, 53
3, 129420, Note_on_c, 0, 45, 54
3, 129583, Note_on_c, 0, 45, 0
3, 129583, Note_on_c, 0, 60, 0
3, 129583, Note_on_c, 0, 64, 0
3, 129583, Note_on_c, 0, 55, 0
3, 129583, Note_on_c, 0, 33, 0
3, 129583, Note_on_c, 0, 67, 0
3, 129600, Note_on_c, 0, 54, 82
3, 129600, Note_on_c, 0, 60, 79
3, 129600, Note_on_c, 0, 62, 82
3, 129600, Note_on_c, 0, 66, 79
3, 129600, Note_on_c, 0, 38, 56
3, 129600, Note_on_c, 0, 45, 54
3, 130087, Note_on_c, 0, 45, 0
3, 130087, Note_on_c, 0, 60, 0
3, 130087, Note_on_c, 0, 62, 0
3, 130087, Note_on_c, 0, 54, 0
3, 130087, Note_on_c, 0, 38, 0
3, 130087, Note_on_c, 0, 66, 0
3, 130140, Note_on_c, 0, 55, 85
3, 130140, Note_on_c, 0, 60, 84
3, 130140, Note_on_c, 0, 64, 85
3, 130140, Note_on_c, 0, 67, 83
3, 130140, Note_on_c, 0, 33, 55
3, 130140, Note_on_c, 0, 45, 53
3, 130303, Note_on_c, 0, 45, 0
3, 130303, Note_on_c, 0, 60, 0
3, 130303, Note_on_c, 0, 64, 0
3, 130303, Note_on_c, 0, 55, 0
3, 130303, Note_on_c, 0, 33, 0
3, 130303, Note_on_c, 0, 67, 0
3, 130320, Note_on_c, 0, 54, 77
3, 130320, Note_on_c, 0, 60, 79
3, 130320, Note_on_c, 0, 62, 78
3, 130320, Note_on_c, 0, 66, 77
3, 130320, Note_on_c, 0, 38, 53
3, 130320, Note_on_c, 0, 45, 55
3, 130807, Note_on_c, 0, 45, 0
3, 130807, Note_on_c, 0, 60, 0
3, 130807, Note_on_c, 0, 62, 0
3, 130807, Note_on_c, 0, 54, 0
3, 130807, Note_on_c, 0, 38, 0
3, 130807, Note_on_c, 0, 66, 0
3, 130860, Note_on_c, 0, 54, 83
3, 130860, Note_on_c, 0, 60, 81
3, 130860, Note_on_c, 0, 66, 82
3, 130860, Note_on_c, 0, 38, 54
3, 130860, Note_on_c, 0, 45, 55
3, 131023, Note_on_c, 0, 45, 0
3, 131023, Note_on_c, 0, 66, 0
3, 131023, Note_on_c, 0, 54, 0
3, 131023, Note_on_c, 0, 60, 0
3, 131023, Note_on_c, 0, 38, 0
3, 131040, Note_on_c, 0, 55, 89
3, 131040, Note_on_c, 0, 60, 87
3, 131040, Note_on_c, 0, 64, 87
3, 131040, Note_on_c, 0, 67, 88
3, 131040, Note_on_c, 0, 31, 52
3, 131040, Note_on_c, 0, 43, 54
3, 131203, Note_on_c, 0, 43, 0
3, 131203, Note_on_c, 0, 60, 0
3, 131203, Note_on_c, 0, 64, 0
3, 131203, Note_on_c, 0, 55, 0
3, 131203, Note_on_c, 0, 31, 0
3, 131203, Note_on_c, 0, 67, 0
3, 131400, Note_on_c, 0, 57, 73
3, 131400, Note_on_c, 0, 64, 74
3, 131400, Note_on_c, 0, 67, 75
3, 131400, Note_on_c, 0, 69, 75
3, 131400, Note_on_c, 0, 25, 47
3, 131400, Note_on_c, 0, 37, 47
3, 131725, Note_on_c, 0, 37, 0
3, 131725, Note_on_c, 0, 64, 0
3, 131725, Note_on_c, 0, 67, 0
3, 131725, Note_on_c, 0, 57, 0
3, 131725, Note_on_c, 0, 25, 0
3, 131725, Note_on_c, 0, 69, 0
3, 131760, Note_on_c, 0, 57, 77
3, 131760, Note_on_c, 0, 62, 80
3, 131760, Note_on_c, 0, 65, 80
3, 131760, Note_on_c, 0, 69, 79
3, 131760, Note_on_c, 0, 26, 55
3, 131760, Note_on_c, 0, 38, 52
3, 132085, Note_on_c, 0, 38, 0
3, 132085, Note_on_c, 0, 62, 0
3, 132085, Note_on_c, 0, 65, 0
3, 132085, Note_on_c, 0, 57, 0
3, 132085, Note_on_c, 0, 26, 0
3, 132085, Note_on_c, 0, 69, 0
3, 132120, Note_on_c, 0, 52, 72
3, 132120, Note_on_c, 0, 58, 69
3, 132120, Note_on_c, 0, 62, 69
3, 132120, Note_on_c, 0, 64, 69
3, 132120, Note_on_c, 0, 31, 57
3, 132120, Note_on_c, 0, 43, 58
3, 132445, Note_on_c, 0, 43, 0
3, 132445, Note_on_c, 0, 58, 0
3, 132445, Note_on_c, 0, 62, 0
3, 132445, Note_on_c, 0, 52, 0
3, 132445, Note_on_c, 0, 31, 0
3, 132445, Note_on_c, 0, 64, 0
3, 132480, Note_on_c, 0, 55, 86
3, 132480, Note_on_c, 0, 57, 89
3, 132480, Note_on_c, 0, 61, 86
3, 132480, Note_on_c, 0, 67, 86
3, 132480, Note_on_c, 0, 28, 53
3, 132480, Note_on_c, 0, 40, 51
3, 132805, Note_on_c, 0, 40, 0
3, 132805, Note_on_c, 0, 57, 0
3, 132805, Note_on_c, 0, 61, 0
3, 132805, Note_on_c, 0, 55, 0
3, 132805, Note_on_c, 0, 28, 0
3, 132805, Note_on_c, 0, 67, 0
3, 132840, Note_on_c, 0, 50, 70
3, 132840, Note_on_c, 0, 57, 70
3, 132840, Note_on_c, 0, 62, 72
3, 132840, Note_on_c, 0, 29, 53
3, 132840, Note_on_c, 0, 41, 54
3, 133165, Note_on_c, 0, 41, 0
3, 133165, Note_on_c, 0, 62, 0
3, 133165, Note_on_c, 0, 50, 0
3, 133165, Note_on_c, 0, 57, 0
3, 133165, Note_on_c, 0, 29, 0
3, 133200, Note_on_c, 0, 53, 86
3, 133200, Note_on_c, 0, 56, 87
3, 133200, Note_on_c, 0, 60, 87
3, 133200, Note_on_c, 0, 65, 84
3, 133200, Note_on_c, 0, 26, 48
3, 133200, Note_on_c, 0, 38, 47
3, 133525, Note_on_c, 0, 38, 0
3, 133525, Note_on_c, 0, 56, 0
3, 133525, Note_on_c, 0, 60, 0
3, 133525, Note_on_c, 0, 53, 0
3, 133525, Note_on_c, 0, 26, 0
3, 133525, Note_on_c, 0, 65, 0
3, 133560, Note_on_c, 0, 50, 68
3, 133560, Note_on_c, 0, 53, 68
3, 133560, Note_on_c, 0, 59, 71
3, 133560, Note_on_c, 0, 31, 58
3, 133560, Note_on_c, 0, 43, 59
3, 133885, Note_on_c, 0, 43, 0
3, 133885, Note_on_c, 0, 59, 0
3, 133885, Note_on_c, 0, 50, 0
3, 133885, Note_on_c, 0, 53, 0
3, 133885, Note_on_c, 0, 31, 0
3, 133920, Note_on_c, 0, 52, 89
3, 133920, Note_on_c, 0, 59, 89
3, 133920, Note_on_c, 0, 62, 88
3, 133920, Note_on_c, 0, 32, 61
3, 133920, Note_on_c, 0, 44, 58
3, 134245, Note_on_c, 0, 44, 0
3, 134245, Note_on_c, 0, 62, 0
3, 134245, Note_on_c, 0, 52, 0
3, 134245, Note_on_c, 0, 59, 0
3, 134245, Note_on_c, 0, 32, 0
3, 134280, Note_on_c, 0, 52, 78
3, 134280, Note_on_c, 0, 57, 78
3, 134280, Note_on_c, 0, 60, 81
3, 134280, Note_on_c, 0, 33, 56
3, 134280, Note_on_c, 0, 45, 53
3, 134443, Note_on_c, 0, 60, 0
3, 134443, Note_on_c, 0, 52, 0
3, 134443, Note_on_c, 0, 57, 0
3, 134460, Note_on_c, 0, 59, 78
3, 134605, Note_on_c, 0, 33, 0
3, 134605, Note_on_c, 0, 45, 0
3, 134623, Note_on_c, 0, 59, 0
3, 134640, Note_on_c, 0, 48, 78
3, 134640, Note_on_c, 0, 51, 79
3, 134640, Note_on_c, 0, 57, 77
3, 134640, Note_on_c, 0, 31, 51
3, 134640, Note_on_c, 0, 43, 48
3, 134803, Note_on_c, 0, 57, 0
3, 134803, Note_on_c, 0, 48, 0
3, 134803, Note_on_c, 0, 51, 0
3, 134820, Note_on_c, 0, 59, 83
3, 134965, Note_on_c, 0, 31, 0
3, 134965, Note_on_c, 0, 43, 0
3, 134983, Note_on_c, 0, 59, 0
3, 135000, Note_on_c, 0, 50, 87
3, 135000, Note_on_c, 0, 57, 86
3, 135000, Note_on_c, 0, 60, 83
3, 135000, Note_on_c, 0, 30, 51
3, 135000, Note_on_c, 0, 42, 50
3, 135325, Note_on_c, 0, 42, 0
3, 135325, Note_on_c, 0, 60, 0
3, 135325, Note_on_c, 0, 50, 0
3, 135325, Note_on_c, 0, 57, 0
3, 135325, Note_on_c, 0, 30, 0
3, 135360, Note_on_c, 0, 50, 89
3, 135360, Note_on_c, 0, 55, 87
3, 135360, Note_on_c, 0, 59, 89
3, 135360, Note_on_c, 0, 62, 90
3, 135360, Note_on_c, 0, 29, 52
3, 135360, Note_on_c, 0, 41, 53
3, 135685, Note_on_c, 0, 41, 0
3, 135685, Note_on_c, 0, 55, 0
3, 135685, Note_on_c, 0, 59, 0
3, 135685, Note_on_c, 0, 50, 0
3, 135685, Note_on_c, 0, 29, 0
3, 135685, Note_on_c, 0, 62, 0
3, 135720, Note_on_c, 0, 55, 91
3, 135720, Note_on_c, 0, 57, 90
3, 135720, Note_on_c, 0, 60, 90
3, 135720, Note_on_c, 0, 67, 92
3, 135720, Note_on_c, 0, 28, 49
3, 135720, Note_on_c, 0, 40, 49
3, 136045, Note_on_c, 0, 40, 0
3, 136045, Note_on_c, 0, 57, 0
3, 136045, Note_on_c, 0, 60, 0
3, 136045, Note_on_c, 0, 55, 0
3, 136045, Note_on_c, 0, 28, 0
3, 136045, Note_on_c, 0, 67, 0
3, 136080, Note_on_c, 0, 57, 88
3, 136080, Note_on_c, 0, 60, 86
3, 136080, Note_on_c, 0, 65, 88
3, 136080, Note_on_c, 0, 69, 85
3, 136080, Note_on_c, 0, 26, 50
3, 136080, Note_on_c, 0, 38, 49
3, 136405, Note_on_c, 0, 38, 0
3, 136405, Note_on_c, 0, 60, 0
3, 136405, Note_on_c, 0, 65, 0
3, 136405, Note_on_c, 0, 57, 0
3, 136405, Note_on_c, 0, 26, 0
3, 136405, Note_on_c, 0, 69, 0
3, 136440, Note_on_c, 0, 59, 88
3, 136440, Note_on_c, 0, 65, 85
3, 136440, Note_on_c, 0, 67, 87
3, 136440, Note_on_c, 0, 71, 87
3, 136440, Note_on_c, 0, 31, 60
3, 136440, Note_on_c, 0, 43, 58
3, 136765, Note_on_c, 0, 43, 0
3, 136765, Note_on_c, 0, 65, 0
3, 136765, Note_on_c, 0, 67, 0
3, 136765, Note_on_c, 0, 59, 0
3, 136765, Note_on_c, 0, 31, 0
3, 136765, Note_on_c, 0, 71, 0
3, 136800, Note_on_c, 0, 60, 89
3, 136800, Note_on_c, 0, 64, 89
3, 136800, Note_on_c, 0, 67, 87
3, 136800, Note_on_c, 0, 72, 89
3, 136800, Note_on_c, 0, 24, 50
3, 136800, Note_on_c, 0, 36, 49
3, 137125, Note_on_c, 0, 36, 0
3, 137125, Note_on_c, 0, 64, 0
3, 137125, Note_on_c, 0, 67, 0
3, 137125, Note_on_c, 0, 60, 0
3, 137125, Note_on_c, 0, 24, 0
3, 137125, Note_on_c, 0, 72, 0
3, 137160, Note_on_c, 0, 52, 62
3, 137160, Note_on_c, 0, 55, 65
3, 137160, Note_on_c, 0, 60, 61
3, 137323, Note_on_c, 0, 60, 0
3, 137323, Note_on_c, 0, 55, 0
3, 137323, Note_on_c, 0, 52, 0
3, 137340, Note_on_c, 0, 53, 80
3, 137340, Note_on_c, 0, 55, 83
3, 137340, Note_on_c, 0, 60, 83
3, 137340, Note_on_c, 0, 62, 84
3, 137503, Note_on_c, 0, 62, 0
3, 137503, Note_on_c, 0, 53, 0
3, 137503, Note_on_c, 0, 55, 0
3, 137503, Note_on_c, 0, 60, 0
3, 137520, Note_on_c, 0, 52, 111
3, 137520, Note_on_c, 0, 55, 112
3, 137520, Note_on_c, 0, 60, 114
3, 137520, Note_on_c, 0, 64, 110
3, 137700, Note_on_c, 0, 31, 46
3, 137700, Note_on_c, 0, 43, 49
3, 137863, Note_on_c, 0, 43, 0
3, 137863, Note_on_c, 0, 31, 0
3, 137880, Note_on_c, 0, 33, 57
3, 137880, Note_on_c, 0, 45, 59
3, 138043, Note_on_c, 0, 45, 0
3, 138043, Note_on_c, 0, 33, 0
3, 138060, Note_on_c, 0, 35, 55
3, 138060, Note_on_c, 0, 47, 55
3, 138223, Note_on_c, 0, 47, 0
3, 138223, Note_on_c, 0, 35, 0
3, 138240, Note_on_c, 0, 36, 84
3, 138240, Note_on_c, 0, 48, 85
3, 138565, Note_on_c, 0, 60, 0
3, 138565, Note_on_c, 0, 64, 0
3, 138565, Note_on_c, 0, 52, 0
3, 138565, Note_on_c, 0, 55, 0
3, 138600, Note_on_c, 0, 52, 75
3, 138600, Note_on_c, 0, 55, 74
3, 138600, Note_on_c, 0, 60, 75
3, 138763, Note_on_c, 0, 60, 0
3, 138763, Note_on_c, 0, 52, 0
3, 138763, Note_on_c, 0, 55, 0
3, 138780, Note_on_c, 0, 53, 86
3, 138780, Note_on_c, 0, 55, 83
3, 138780, Note_on_c, 0, 60, 85
3, 138780, Note_on_c, 0, 62, 84
3, 138943, Note_on_c, 0, 62, 0
3, 138943, Note_on_c, 0, 55, 0
3, 138943, Note_on_c, 0, 53, 0
3, 138943, Note_on_c, 0, 60, 0
3, 138960, Note_on_c, 0, 52, 90
3, 138960, Note_on_c, 0, 55, 90
3, 138960, Note_on_c, 0, 60, 91
3, 138960, Note_on_c, 0, 64, 87
3, 139123, Note_on_c, 0, 64, 0
3, 139123, Note_on_c, 0, 36, 0
3, 139123, Note_on_c, 0, 52, 0
3, 139123, Note_on_c, 0, 48, 0
3, 139123, Note_on_c, 0, 60, 0
3, 139123, Note_on_c, 0, 55, 0
3, 139140, Note_on_c, 0, 53, 86
3, 139140, Note_on_c, 0, 60, 87
3, 139140, Note_on_c, 0, 65, 84
3, 139140, Note_on_c, 0, 38, 57
3, 139140, Note_on_c, 0, 50, 54
3, 139303, Note_on_c, 0, 50, 0
3, 139303, Note_on_c, 0, 65, 0
3, 139303, Note_on_c, 0, 53, 0
3, 139303, Note_on_c, 0, 60, 0
3, 139303, Note_on_c, 0, 38, 0
3, 139320, Note_on_c, 0, 55, 89
3, 139320, Note_on_c, 0, 60, 88
3, 139320, Note_on_c, 0, 67, 88
3, 139320, Note_on_c, 0, 40, 61
3, 139320, Note_on_c, 0, 52, 58
3, 139483, Note_on_c, 0, 52, 0
3, 139483, Note_on_c, 0, 67, 0
3, 139483, Note_on_c, 0, 55, 0
3, 139483, Note_on_c, 0, 60, 0
3, 139483, Note_on_c, 0, 40, 0
3, 139500, Note_on_c, 0, 57, 77
3, 139500, Note_on_c, 0, 60, 76
3, 139500, Note_on_c, 0, 65, 77
3, 139500, Note_on_c, 0, 41, 57
3, 139500, Note_on_c, 0, 53, 54
3, 139663, Note_on_c, 0, 53, 0
3, 139663, Note_on_c, 0, 65, 0
3, 139663, Note_on_c, 0, 57, 0
3, 139663, Note_on_c, 0, 60, 0
3, 139663, Note_on_c, 0, 41, 0
3, 139680, Note_on_c, 0, 52, 79
3, 139680, Note_on_c, 0, 60, 80
3, 139680, Note_on_c, 0, 64, 80
3, 139680, Note_on_c, 0, 43, 58
3, 139680, Note_on_c, 0, 55, 58
3, 139843, Note_on_c, 0, 64, 0
3, 139843, Note_on_c, 0, 52, 0
3, 139843, Note_on_c, 0, 60, 0
3, 139860, Note_on_c, 0, 53, 74
3, 139860, Note_on_c, 0, 59, 75
3, 139860, Note_on_c, 0, 62, 73
3, 140005, Note_on_c, 0, 43, 0
3, 140005, Note_on_c, 0, 55, 0
3, 140023, Note_on_c, 0, 59, 0
3, 140023, Note_on_c, 0, 53, 0
3, 140023, Note_on_c, 0, 62, 0
3, 140040, Note_on_c, 0, 52, 76
3, 140040, Note_on_c, 0, 57, 78
3, 140040, Note_on_c, 0, 60, 79
3, 140040, Note_on_c, 0, 31, 39
3, 140040, Note_on_c, 0, 43, 42
3, 140203, Note_on_c, 0, 60, 0
3, 140203, Note_on_c, 0, 52, 0
3, 140203, Note_on_c, 0, 57, 0
3, 140220, Note_on_c, 0, 53, 84
3, 140220, Note_on_c, 0, 59, 84
3, 140220, Note_on_c, 0, 62, 87
3, 140365, Note_on_c, 0, 31, 0
3, 140365, Note_on_c, 0, 43, 0
3, 140383, Note_on_c, 0, 59, 0
3, 140383, Note_on_c, 0, 53, 0
3, 140383, Note_on_c, 0, 62, 0
3, 140400, Note_on_c, 0, 52, 86
3, 140400, Note_on_c, 0, 55, 84
3, 140400, Note_on_c, 0, 60, 87
3, 140400, Note_on_c, 0, 64, 86
3, 140400, Note_on_c, 0, 36, 59
3, 140400, Note_on_c, 0, 48, 58
3, 140563, Note_on_c, 0, 48, 0
3, 140563, Note_on_c, 0, 36, 0
3, 140580, Note_on_c, 0, 38, 57
3, 140580, Note_on_c, 0, 50, 55
3, 140725, Note_on_c, 0, 60, 0
3, 140725, Note_on_c, 0, 64, 0
3, 140725, Note_on_c, 0, 52, 0
3, 140725, Note_on_c, 0, 55, 0
3, 140743, Note_on_c, 0, 50, 0
3, 140743, Note_on_c, 0, 38, 0
3, 140760, Note_on_c, 0, 48, 76
3, 140760, Note_on_c, 0, 55, 75
3, 140760, Note_on_c, 0, 60, 78
3, 140760, Note_on_c, 0, 40, 60
3, 140760, Note_on_c, 0, 52, 59
3, 140923, Note_on_c, 0, 52, 0
3, 140923, Note_on_c, 0, 60, 0
3, 140923, Note_on_c, 0, 48, 0
3, 140923, Note_on_c, 0, 55, 0
3, 140923, Note_on_c, 0, 40, 0
3, 140940, Note_on_c, 0, 50, 75
3, 140940, Note_on_c, 0, 55, 74
3, 140940, Note_on_c, 0, 59, 78
3, 140940, Note_on_c, 0, 38, 51
3, 140940, Note_on_c, 0, 50, 52
3, 141103, Note_on_c, 0, 50, 0
3, 141103, Note_on_c, 0, 59, 0
3, 141103, Note_on_c, 0, 50, 0
3, 141103, Note_on_c, 0, 55, 0
3, 141103, Note_on_c, 0, 38, 0
3, 141120, Note_on_c, 0, 52, 77
3, 141120, Note_on_c, 0, 55, 79
3, 141120, Note_on_c, 0, 57, 78
3, 141120, Note_on_c, 0, 36, 51
3, 141120, Note_on_c, 0, 48, 54
3, 141283, Note_on_c, 0, 48, 0
3, 141283, Note_on_c, 0, 57, 0
3, 141283, Note_on_c, 0, 52, 0
3, 141283, Note_on_c, 0, 55, 0
3, 141283, Note_on_c, 0, 36, 0
3, 141300, Note_on_c, 0, 50, 87
3, 141300, Note_on_c, 0, 55, 87
3, 141300, Note_on_c, 0, 59, 86
3, 141300, Note_on_c, 0, 35, 48
3, 141300, Note_on_c, 0, 47, 49
3, 141463, Note_on_c, 0, 47, 0
3, 141463, Note_on_c, 0, 59, 0
3, 141463, Note_on_c, 0, 50, 0
3, 141463, Note_on_c, 0, 55, 0
3, 141463, Note_on_c, 0, 35, 0
3, 141480, Note_on_c, 0, 48, 110
3, 141480, Note_on_c, 0, 50, 111
3, 141480, Note_on_c, 0, 54, 110
3, 141480, Note_on_c, 0, 60, 113
3, 141480, Note_on_c, 0, 33, 70
3, 141480, Note_on_c, 0, 45, 74
3, 141805, Note_on_c, 0, 45, 0
3, 141805, Note_on_c, 0, 50, 0
3, 141805, Note_on_c, 0, 54, 0
3, 141805, Note_on_c, 0, 48, 0
3, 141805, Note_on_c, 0, 33, 0
3, 141805, Note_on_c, 0, 60, 0
3, 141840, Note_on_c, 0, 50, 116
3, 141840, Note_on_c, 0, 53, 116
3, 141840, Note_on_c, 0, 55, 115
3, 141840, Note_on_c, 0, 62, 116
3, 141840, Note_on_c, 0, 35, 80
3, 141840, Note_on_c, 0, 47, 82
3, 142003, Note_on_c, 0, 62, 0
3, 142003, Note_on_c, 0, 55, 0
3, 142003, Note_on_c, 0, 50, 0
3, 142003, Note_on_c, 0, 53, 0
3, 142020, Note_on_c, 0, 50, 66
3, 142020, Note_on_c, 0, 53, 65
3, 142020, Note_on_c, 0, 55, 69
3, 142165, Note_on_c, 0, 47, 0
3, 142165, Note_on_c, 0, 35, 0
3, 142183, Note_on_c, 0, 53, 0
3, 142183, Note_on_c, 0, 50, 0
3, 142183, Note_on_c, 0, 55, 0
3, 142200, Note_on_c, 0, 48, 84
3, 142200, Note_on_c, 0, 53, 86
3, 142200, Note_on_c, 0, 57, 86
3, 142200, Note_on_c, 0, 33, 53
3, 142200, Note_on_c, 0, 45, 51
3, 142363, Note_on_c, 0, 45, 0
3, 142363, Note_on_c, 0, 57, 0
3, 142363, Note_on_c, 0, 48, 0
3, 142363, Note_on_c, 0, 53, 0
3, 142363, Note_on_c, 0, 33, 0
3, 142380, Note_on_c, 0, 50, 85
3, 142380, Note_on_c, 0, 53, 87
3, 142380, Note_on_c, 0, 59, 86
3, 142380, Note_on_c, 0, 31, 48
3, 142380, Note_on_c, 0, 43, 48
3, 142543, Note_on_c, 0, 43, 0
3, 142543, Note_on_c, 0, 59, 0
3, 142543, Note_on_c, 0, 50, 0
3, 142543, Note_on_c, 0, 53, 0
3, 142543, Note_on_c, 0, 31, 0
3, 142560, Note_on_c, 0, 52, 114
3, 142560, Note_on_c, 0, 55, 113
3, 142560, Note_on_c, 0, 60, 113
3, 142560, Note_on_c, 0, 36, 91
3, 142560, Note_on_c, 0, 48, 89
3, 142885, Note_on_c, 0, 60, 0
3, 142885, Note_on_c, 0, 52, 0
3, 142885, Note_on_c, 0, 55, 0
3, 142920, Note_on_c, 0, 52, 85
3, 142920, Note_on_c, 0, 55, 82
3, 142920, Note_on_c, 0, 60, 85
3, 143083, Note_on_c, 0, 60, 0
3, 143083, Note_on_c, 0, 52, 0
3, 143083, Note_on_c, 0, 55, 0
3, 143100, Note_on_c, 0, 53, 84
3, 143100, Note_on_c, 0, 55, 87
3, 143100, Note_on_c, 0, 60, 86
3, 143100, Note_on_c, 0, 62, 84
3, 143263, Note_on_c, 0, 62, 0
3, 143263, Note_on_c, 0, 55, 0
3, 143263, Note_on_c, 0, 53, 0
3, 143263, Note_on_c, 0, 60, 0
3, 143280, Note_on_c, 0, 52, 114
3, 143280, Note_on_c, 0, 55, 114
3, 143280, Note_on_c, 0, 60, 113
3, 143280, Note_on_c, 0, 64, 114
3, 143443, Note_on_c, 0, 48, 0
3, 143443, Note_on_c, 0, 36, 0
3, 143460, Note_on_c, 0, 31, 46
3, 143460, Note_on_c, 0, 43, 47
3, 143623, Note_on_c, 0, 43, 0
3, 143623, Note_on_c, 0, 31, 0
3, 143640, Note_on_c, 0, 33, 56
3, 143640, Note_on_c, 0, 45, 58
3, 143803, Note_on_c, 0, 45, 0
3, 143803, Note_on_c, 0, 33, 0
3, 143820, Note_on_c, 0, 35, 56
3, 143820, Note_on_c, 0, 47, 57
3, 143983, Note_on_c, 0, 47, 0
3, 143983, Note_on_c, 0, 35, 0
3, 144000, Note_on_c, 0, 36, 82
3, 144000, Note_on_c, 0, 48, 84
3, 144325, Note_on_c, 0, 52, 0
3, 144325, Note_on_c, 0, 60, 0
3, 144325, Note_on_c, 0, 55, 0
3, 144325, Note_on_c, 0, 64, 0
3, 144360, Note_on_c, 0, 52, 74
3, 144360, Note_on_c, 0, 55, 76
3, 144360, Note_on_c, 0, 60, 75
3, 144523, Note_on_c, 0, 60, 0
3, 144523, Note_on_c, 0, 52, 0
3, 144523, Note_on_c, 0, 55, 0
3, 144540, Note_on_c, 0, 53, 82
3, 144540, Note_on_c, 0, 55, 86
3, 144540, Note_on_c, 0, 60, 84
3, 144540, Note_on_c, 0, 62, 83
3, 144703, Note_on_c, 0, 62, 0
3, 144703, Note_on_c, 0, 55, 0
3, 144703, Note_on_c, 0, 53, 0
3, 144703, Note_on_c, 0, 60, 0
3, 144720, Note_on_c, 0, 52, 88
3, 144720, Note_on_c, 0, 55, 88
3, 144720, Note_on_c, 0, 60, 88
3, 144720, Note_on_c, 0, 64, 88
3, 144883, Note_on_c, 0, 64, 0
3, 144883, Note_on_c, 0, 36, 0
3, 144883, Note_on_c, 0, 52, 0
3, 144883, Note_on_c, 0, 48, 0
3, 144883, Note_on_c, 0, 60, 0
3, 144883, Note_on_c, 0, 55, 0
3, 144900, Note_on_c, 0, 53, 86
3, 144900, Note_on_c, 0, 60, 85
3, 144900, Note_on_c, 0, 65, 85
3, 144900, Note_on_c, 0, 38, 57
3, 144900, Note_on_c, 0, 50, 55
3, 145063, Note_on_c, 0, 50, 0
3, 145063, Note_on_c, 0, 65, 0
3, 145063, Note_on_c, 0, 53, 0
3, 145063, Note_on_c, 0, 60, 0
3, 145063, Note_on_c, 0, 38, 0
3, 145080, Note_on_c, 0, 55, 87
3, 145080, Note_on_c, 0, 60, 90
3, 145080, Note_on_c, 0, 67, 89
3, 145080, Note_on_c, 0, 40, 58
3, 145080, Note_on_c, 0, 52, 60
3, 145243, Note_on_c, 0, 52, 0
3, 145243, Note_on_c, 0, 67, 0
3, 145243, Note_on_c, 0, 55, 0
3, 145243, Note_on_c, 0, 60, 0
3, 145243, Note_on_c, 0, 40, 0
3, 145260, Note_on_c, 0, 55, 77
3, 145260, Note_on_c, 0, 59, 76
3, 145260, Note_on_c, 0, 65, 77
3, 145260, Note_on_c, 0, 38, 48
3, 145260, Note_on_c, 0, 50, 52
3, 145423, Note_on_c, 0, 50, 0
3, 145423, Note_on_c, 0, 65, 0
3, 145423, Note_on_c, 0, 55, 0
3, 145423, Note_on_c, 0, 59, 0
3, 145423, Note_on_c, 0, 38, 0
3, 145440, Note_on_c, 0, 55, 81
3, 145440, Note_on_c, 0, 60, 79
3, 145440, Note_on_c, 0, 64, 80
3, 145440, Note_on_c, 0, 36, 50
3, 145440, Note_on_c, 0, 48, 54
3, 145603, Note_on_c, 0, 48, 0
3, 145603, Note_on_c, 0, 36, 0
3, 145620, Note_on_c, 0, 35, 50
3, 145620, Note_on_c, 0, 47, 51
3, 145765, Note_on_c, 0, 55, 0
3, 145765, Note_on_c, 0, 64, 0
3, 145765, Note_on_c, 0, 60, 0
3, 145783, Note_on_c, 0, 35, 0
3, 145783, Note_on_c, 0, 47, 0
3, 145800, Note_on_c, 0, 52, 82
3, 145800, Note_on_c, 0, 60, 83
3, 145800, Note_on_c, 0, 64, 85
3, 145800, Note_on_c, 0, 33, 51
3, 145800, Note_on_c, 0, 45, 49
3, 145963, Note_on_c, 0, 64, 0
3, 145963, Note_on_c, 0, 52, 0
3, 145963, Note_on_c, 0, 60, 0
3, 145980, Note_on_c, 0, 54, 85
3, 145980, Note_on_c, 0, 60, 84
3, 145980, Note_on_c, 0, 64, 84
3, 145980, Note_on_c, 0, 66, 85
3, 146125, Note_on_c, 0, 33, 0
3, 146125, Note_on_c, 0, 45, 0
3, 146143, Note_on_c, 0, 64, 0
3, 146143, Note_on_c, 0, 60, 0
3, 146143, Note_on_c, 0, 66, 0
3, 146143, Note_on_c, 0, 54, 0
3, 146160, Note_on_c, 0, 55, 87
3, 146160, Note_on_c, 0, 59, 88
3, 146160, Note_on_c, 0, 64, 88
3, 146160, Note_on_c, 0, 67, 87
3, 146160, Note_on_c, 0, 35, 58
3, 146160, Note_on_c, 0, 47, 58
3, 146323, Note_on_c, 0, 47, 0
3, 146323, Note_on_c, 0, 59, 0
3, 146323, Note_on_c, 0, 64, 0
3, 146323, Note_on_c, 0, 55, 0
3, 146323, Note_on_c, 0, 35, 0
3, 146323, Note_on_c, 0, 67, 0
3, 146340, Note_on_c, 0, 57, 87
3, 146340, Note_on_c, 0, 60, 87
3, 146340, Note_on_c, 0, 64, 87
3, 146340, Note_on_c, 0, 69, 86
3, 146340, Note_on_c, 0, 33, 51
3, 146340, Note_on_c, 0, 45, 52
3, 146503, Note_on_c, 0, 45, 0
3, 146503, Note_on_c, 0, 60, 0
3, 146503, Note_on_c, 0, 64, 0
3, 146503, Note_on_c, 0, 57, 0
3, 146503, Note_on_c, 0, 33, 0
3, 146503, Note_on_c, 0, 69, 0
3, 146520, Note_on_c, 0, 59, 114
3, 146520, Note_on_c, 0, 63, 112
3, 146520, Note_on_c, 0, 69, 111
3, 146520, Note_on_c, 0, 71, 113
3, 146520, Note_on_c, 0, 31, 50
3, 146520, Note_on_c, 0, 43, 54
3, 146683, Note_on_c, 0, 43, 0
3, 146683, Note_on_c, 0, 31, 0
3, 146700, Note_on_c, 0, 30, 52
3, 146700, Note_on_c, 0, 42, 51
3, 146845, Note_on_c, 0, 69, 0
3, 146845, Note_on_c, 0, 71, 0
3, 146845, Note_on_c, 0, 59, 0
3, 146845, Note_on_c, 0, 63, 0
3, 146863, Note_on_c, 0, 42, 0
3, 146863, Note_on_c, 0, 30, 0
3, 146880, Note_on_c, 0, 55, 99
3, 146880, Note_on_c, 0, 59, 99
3, 146880, Note_on_c, 0, 64, 96
3, 146880, Note_on_c, 0, 67, 99
3, 146880, Note_on_c, 0, 28, 73
3, 146880, Note_on_c, 0, 40, 76
3, 147205, Note_on_c, 0, 40, 0
3, 147205, Note_on_c, 0, 59, 0
3, 147205, Note_on_c, 0, 64, 0
3, 147205, Note_on_c, 0, 55, 0
3, 147205, Note_on_c, 0, 28, 0
3, 147205, Note_on_c, 0, 67, 0
3, 147240, Note_on_c, 0, 40, 69
3, 147240, Note_on_c, 0, 52, 67
3, 147403, Note_on_c, 0, 52, 0
3, 147403, Note_on_c, 0, 40, 0
3, 147420, Note_on_c, 0, 42, 57
3, 147420, Note_on_c, 0, 54, 59
3, 147583, Note_on_c, 0, 54, 0
3, 147583, Note_on_c, 0, 42, 0
3, 147600, Note_on_c, 0, 43, 84
3, 147600, Note_on_c, 0, 55, 83
3, 147780, Note_on_c, 0, 49, 72
3, 147780, Note_on_c, 0, 57, 72
3, 147925, Note_on_c, 0, 55, 0
3, 147925, Note_on_c, 0, 43, 0
3, 147943, Note_on_c, 0, 49, 0
3, 147943, Note_on_c, 0, 57, 0
3, 147960, Note_on_c, 0, 50, 87
3, 147960, Note_on_c, 0, 57, 89
3, 147960, Note_on_c, 0, 59, 85
3, 147960, Note_on_c, 0, 41, 52
3, 147960, Note_on_c, 0, 53, 52
3, 148123, Note_on_c, 0, 53, 0
3, 148123, Note_on_c, 0, 59, 0
3, 148123, Note_on_c, 0, 50, 0
3, 148123, Note_on_c, 0, 57, 0
3, 148123, Note_on_c, 0, 41, 0
3, 148140, Note_on_c, 0, 55, 86
3, 148140, Note_on_c, 0, 57, 84
3, 148140, Note_on_c, 0, 61, 88
3, 148140, Note_on_c, 0, 40, 51
3, 148140, Note_on_c, 0, 52, 50
3, 148303, Note_on_c, 0, 52, 0
3, 148303, Note_on_c, 0, 61, 0
3, 148303, Note_on_c, 0, 55, 0
3, 148303, Note_on_c, 0, 57, 0
3, 148303, Note_on_c, 0, 40, 0
3, 148320, Note_on_c, 0, 53, 115
3, 148320, Note_on_c, 0, 57, 112
3, 148320, Note_on_c, 0, 62, 116
3, 148320, Note_on_c, 0, 38, 77
3, 148320, Note_on_c, 0, 50, 73
3, 148645, Note_on_c, 0, 50, 0
3, 148645, Note_on_c, 0, 38, 0
3, 148680, Note_on_c, 0, 33, 50
3, 148680, Note_on_c, 0, 45, 51
3, 148788, Note_on_c, 0, 45, 0
3, 148788, Note_on_c, 0, 33, 0
3, 148800, Note_on_c, 0, 35, 54
3, 148800, Note_on_c, 0, 47, 53
3, 148908, Note_on_c, 0, 47, 0
3, 148908, Note_on_c, 0, 35, 0
3, 148919, Note_on_c, 0, 37, 56
3, 148919, Note_on_c, 0, 49, 55
3, 149029, Note_on_c, 0, 49, 0
3, 149029, Note_on_c, 0, 37, 0
3, 149040, Note_on_c, 0, 38, 53
3, 149040, Note_on_c, 0, 50, 55
3, 149203, Note_on_c, 0, 62, 0
3, 149203, Note_on_c, 0, 53, 0
3, 149203, Note_on_c, 0, 57, 0
3, 149220, Note_on_c, 0, 52, 78
3, 149220, Note_on_c, 0, 57, 77
3, 149220, Note_on_c, 0, 61, 75
3, 149383, Note_on_c, 0, 61, 0
3, 149383, Note_on_c, 0, 52, 0
3, 149383, Note_on_c, 0, 57, 0
3, 149400, Note_on_c, 0, 53, 85
3, 149400, Note_on_c, 0, 57, 86
3, 149400, Note_on_c, 0, 62, 84
3, 149563, Note_on_c, 0, 62, 0
3, 149563, Note_on_c, 0, 53, 0
3, 149563, Note_on_c, 0, 57, 0
3, 149580, Note_on_c, 0, 55, 85
3, 149580, Note_on_c, 0, 57, 85
3, 149580, Note_on_c, 0, 62, 83
3, 149580, Note_on_c, 0, 64, 83
3, 149743, Note_on_c, 0, 64, 0
3, 149743, Note_on_c, 0, 57, 0
3, 149743, Note_on_c, 0, 55, 0
3, 149743, Note_on_c, 0, 62, 0
3, 149760, Note_on_c, 0, 53, 115
3, 149760, Note_on_c, 0, 57, 116
3, 149760, Note_on_c, 0, 62, 113
3, 149760, Note_on_c, 0, 65, 116
3, 150085, Note_on_c, 0, 50, 0
3, 150085, Note_on_c, 0, 38, 0
3, 150120, Note_on_c, 0, 38, 56
3, 150120, Note_on_c, 0, 50, 54
3, 150283, Note_on_c, 0, 50, 0
3, 150283, Note_on_c, 0, 38, 0
3, 150300, Note_on_c, 0, 40, 56
3, 150300, Note_on_c, 0, 52, 56
3, 150463, Note_on_c, 0, 52, 0
3, 150463, Note_on_c, 0, 40, 0
3, 150480, Note_on_c, 0, 41, 58
3, 150480, Note_on_c, 0, 53, 59
3, 150643, Note_on_c, 0, 41, 0
3, 150643, Note_on_c, 0, 53, 0
3, 150660, Note_on_c, 0, 43, 56
3, 150660, Note_on_c, 0, 55, 58
3, 150770, Note_on_c, 0, 65, 0
3, 150770, Note_on_c, 0, 62, 0
3, 150770, Note_on_c, 0, 57, 0
3, 150770, Note_on_c, 0, 53, 0
3, 150823, Note_on_c, 0, 55, 0
3, 150823, Note_on_c, 0, 43, 0
3, 150840, Note_on_c, 0, 53, 76
3, 150840, Note_on_c, 0, 62, 77
3, 150840, Note_on_c, 0, 45, 59
3, 150840, Note_on_c, 0, 57, 58
3, 151003, Note_on_c, 0, 57, 0
3, 151003, Note_on_c, 0, 53, 0
3, 151003, Note_on_c, 0, 62, 0
3, 151003, Note_on_c, 0, 45, 0
3, 151020, Note_on_c, 0, 58, 84
3, 151020, Note_on_c, 0, 62, 84
3, 151020, Note_on_c, 0, 64, 84
3, 151020, Note_on_c, 0, 43, 49
3, 151020, Note_on_c, 0, 55, 51
3, 151183, Note_on_c, 0, 55, 0
3, 151183, Note_on_c, 0, 64, 0
3, 151183, Note_on_c, 0, 58, 0
3, 151183, Note_on_c, 0, 62, 0
3, 151183, Note_on_c, 0, 43, 0
3, 151200, Note_on_c, 0, 57, 88
3, 151200, Note_on_c, 0, 62, 88
3, 151200, Note_on_c, 0, 65, 89
3, 151200, Note_on_c, 0, 41, 53
3, 151200, Note_on_c, 0, 53, 51
3, 151363, Note_on_c, 0, 53, 0
3, 151363, Note_on_c, 0, 65, 0
3, 151363, Note_on_c, 0, 57, 0
3, 151363, Note_on_c, 0, 62, 0
3, 151363, Note_on_c, 0, 41, 0
3, 151380, Note_on_c, 0, 58, 86
3, 151380, Note_on_c, 0, 62, 85
3, 151380, Note_on_c, 0, 67, 87
3, 151380, Note_on_c, 0, 40, 50
3, 151380, Note_on_c, 0, 52, 50
3, 151543, Note_on_c, 0, 52, 0
3, 151543, Note_on_c, 0, 67, 0
3, 151543, Note_on_c, 0, 58, 0
3, 151543, Note_on_c, 0, 62, 0
3, 151543, Note_on_c, 0, 40, 0
3, 151560, Note_on_c, 0, 60, 88
3, 151560, Note_on_c, 0, 62, 89
3, 151560, Note_on_c, 0, 69, 88
3, 151560, Note_on_c, 0, 38, 50
3, 151560, Note_on_c, 0, 50, 50
3, 151723, Note_on_c, 0, 50, 0
3, 151723, Note_on_c, 0, 69, 0
3, 151723, Note_on_c, 0, 60, 0
3, 151723, Note_on_c, 0, 62, 0
3, 151723, Note_on_c, 0, 38, 0
3, 151740, Note_on_c, 0, 58, 76
3, 151740, Note_on_c, 0, 62, 76
3, 151740, Note_on_c, 0, 67, 76
3, 151740, Note_on_c, 0, 40, 54
3, 151740, Note_on_c, 0, 52, 56
3, 151903, Note_on_c, 0, 52, 0
3, 151903, Note_on_c, 0, 67, 0
3, 151903, Note_on_c, 0, 58, 0
3, 151903, Note_on_c, 0, 62, 0
3, 151903, Note_on_c, 0, 40, 0
3, 151920, Note_on_c, 0, 57, 77
3, 151920, Note_on_c, 0, 62, 77
3, 151920, Note_on_c, 0, 65, 76
3, 151920, Note_on_c, 0, 41, 58
3, 151920, Note_on_c, 0, 53, 56
3, 152083, Note_on_c, 0, 65, 0
3, 152083, Note_on_c, 0, 57, 0
3, 152083, Note_on_c, 0, 62, 0
3, 152100, Note_on_c, 0, 64, 74
3, 152245, Note_on_c, 0, 41, 0
3, 152245, Note_on_c, 0, 53, 0
3, 152263, Note_on_c, 0, 64, 0
3, 152280, Note_on_c, 0, 53, 97
3, 152280, Note_on_c, 0, 59, 99
3, 152280, Note_on_c, 0, 62, 98
3, 152280, Note_on_c, 0, 43, 83
3, 152280, Note_on_c, 0, 55, 84
3, 152605, Note_on_c, 0, 55, 0
3, 152605, Note_on_c, 0, 62, 0
3, 152605, Note_on_c, 0, 53, 0
3, 152605, Note_on_c, 0, 59, 0
3, 152605, Note_on_c, 0, 43, 0
3, 152640, Note_on_c, 0, 52, 113
3, 152640, Note_on_c, 0, 55, 114
3, 152640, Note_on_c, 0, 60, 112
3, 152640, Note_on_c, 0, 64, 115
3, 152640, Note_on_c, 0, 36, 68
3, 152640, Note_on_c, 0, 48, 68
3, 152965, Note_on_c, 0, 48, 0
3, 152965, Note_on_c, 0, 55, 0
3, 152965, Note_on_c, 0, 60, 0
3, 152965, Note_on_c, 0, 52, 0
3, 152965, Note_on_c, 0, 36, 0
3, 152965, Note_on_c, 0, 64, 0
3, 153000, Note_on_c, 0, 52, 77
3, 153000, Note_on_c, 0, 55, 77
3, 153000, Note_on_c, 0, 60, 78
3, 153163, Note_on_c, 0, 60, 0
3, 153163, Note_on_c, 0, 55, 0
3, 153163, Note_on_c, 0, 52, 0
3, 153180, Note_on_c, 0, 53, 83
3, 153180, Note_on_c, 0, 55, 86
3, 153180, Note_on_c, 0, 60, 84
3, 153180, Note_on_c, 0, 62, 83
3, 153343, Note_on_c, 0, 62, 0
3, 153343, Note_on_c, 0, 53, 0
3, 153343, Note_on_c, 0, 55, 0
3, 153343, Note_on_c, 0, 60, 0
3, 153360, Note_on_c, 0, 52, 112
3, 153360, Note_on_c, 0, 55, 115
3, 153360, Note_on_c, 0, 60, 112
3, 153360, Note_on_c, 0, 64, 112
3, 153540, Note_on_c, 0, 31, 49
3, 153540, Note_on_c, 0, 43, 50
3, 153703, Note_on_c, 0, 43, 0
3, 153703, Note_on_c, 0, 31, 0
3, 153720, Note_on_c, 0, 33, 59
3, 153720, Note_on_c, 0, 45, 59
3, 153847, Note_on_c, 0, 60, 0
3, 153847, Note_on_c, 0, 64, 0
3, 153847, Note_on_c, 0, 52, 0
3, 153847, Note_on_c, 0, 55, 0
3, 153883, Note_on_c, 0, 45, 0
3, 153883, Note_on_c, 0, 33, 0
3, 153900, Note_on_c, 0, 51, 77
3, 153900, Note_on_c, 0, 55, 78
3, 153900, Note_on_c, 0, 63, 79
3, 153900, Note_on_c, 0, 35, 56
3, 153900, Note_on_c, 0, 47, 58
3, 154063, Note_on_c, 0, 47, 0
3, 154063, Note_on_c, 0, 63, 0
3, 154063, Note_on_c, 0, 51, 0
3, 154063, Note_on_c, 0, 55, 0
3, 154063, Note_on_c, 0, 35, 0
3, 154080, Note_on_c, 0, 52, 86
3, 154080, Note_on_c, 0, 55, 89
3, 154080, Note_on_c, 0, 60, 89
3, 154080, Note_on_c, 0, 64, 87
3, 154080, Note_on_c, 0, 36, 85
3, 154080, Note_on_c, 0, 48, 85
3, 154243, Note_on_c, 0, 64, 0
3, 154243, Note_on_c, 0, 60, 0
3, 154243, Note_on_c, 0, 52, 0
3, 154243, Note_on_c, 0, 55, 0
3, 154260, Note_on_c, 0, 57, 87
3, 154260, Note_on_c, 0, 64, 84
3, 154260, Note_on_c, 0, 66, 84
3, 154423, Note_on_c, 0, 66, 0
3, 154423, Note_on_c, 0, 57, 0
3, 154423, Note_on_c, 0, 64, 0
3, 154440, Note_on_c, 0, 58, 110
3, 154440, Note_on_c, 0, 64, 111
3, 154440, Note_on_c, 0, 67, 110
3, 154567, Note_on_c, 0, 48, 0
3, 154567, Note_on_c, 0, 36, 0
3, 154620, Note_on_c, 0, 36, 54
3, 154620, Note_on_c, 0, 48, 52
3, 154783, Note_on_c, 0, 48, 0
3, 154783, Note_on_c, 0, 36, 0
3, 154800, Note_on_c, 0, 37, 82
3, 154800, Note_on_c, 0, 49, 80
3, 154963, Note_on_c, 0, 67, 0
3, 154963, Note_on_c, 0, 64, 0
3, 154963, Note_on_c, 0, 58, 0
3, 154980, Note_on_c, 0, 57, 76
3, 154980, Note_on_c, 0, 64, 77
3, 154980, Note_on_c, 0, 66, 75
3, 155143, Note_on_c, 0, 66, 0
3, 155143, Note_on_c, 0, 57, 0
3, 155143, Note_on_c, 0, 64, 0
3, 155160, Note_on_c, 0, 58, 85
3, 155160, Note_on_c, 0, 64, 86
3, 155160, Note_on_c, 0, 67, 86
3, 155287, Note_on_c, 0, 37, 0
3, 155287, Note_on_c, 0, 49, 0
3, 155323, Note_on_c, 0, 64, 0
3, 155323, Note_on_c, 0, 58, 0
3, 155323, Note_on_c, 0, 67, 0
3, 155340, Note_on_c, 0, 57, 87
3, 155340, Note_on_c, 0, 61, 85
3, 155340, Note_on_c, 0, 67, 86
3, 155340, Note_on_c, 0, 69, 86
3, 155340, Note_on_c, 0, 40, 58
3, 155340, Note_on_c, 0, 52, 56
3, 155503, Note_on_c, 0, 52, 0
3, 155503, Note_on_c, 0, 61, 0
3, 155503, Note_on_c, 0, 67, 0
3, 155503, Note_on_c, 0, 57, 0
3, 155503, Note_on_c, 0, 40, 0
3, 155503, Note_on_c, 0, 69, 0
3, 155520, Note_on_c, 0, 59, 115
3, 155520, Note_on_c, 0, 62, 116
3, 155520, Note_on_c, 0, 67, 117
3, 155520, Note_on_c, 0, 71, 115
3, 155520, Note_on_c, 0, 38, 76
3, 155520, Note_on_c, 0, 50, 77
3, 155845, Note_on_c, 0, 71, 0
3, 155845, Note_on_c, 0, 67, 0
3, 155845, Note_on_c, 0, 59, 0
3, 155845, Note_on_c, 0, 62, 0
3, 155880, Note_on_c, 0, 59, 75
3, 155880, Note_on_c, 0, 62, 75
3, 155880, Note_on_c, 0, 67, 76
3, 156043, Note_on_c, 0, 67, 0
3, 156043, Note_on_c, 0, 59, 0
3, 156043, Note_on_c, 0, 62, 0
3, 156060, Note_on_c, 0, 59, 83
3, 156060, Note_on_c, 0, 62, 84
3, 156060, Note_on_c, 0, 69, 85
3, 156223, Note_on_c, 0, 69, 0
3, 156223, Note_on_c, 0, 59, 0
3, 156223, Note_on_c, 0, 62, 0
3, 156240, Note_on_c, 0, 62, 91
3, 156240, Note_on_c, 0, 67, 90
3, 156240, Note_on_c, 0, 71, 90
3, 156403, Note_on_c, 0, 71, 0
3, 156403, Note_on_c, 0, 62, 0
3, 156403, Note_on_c, 0, 67, 0
3, 156420, Note_on_c, 0, 62, 89
3, 156420, Note_on_c, 0, 67, 89
3, 156420, Note_on_c, 0, 71, 89
3, 156420, Note_on_c, 0, 74, 88
3, 156530, Note_on_c, 0, 50, 0
3, 156530, Note_on_c, 0, 38, 0
3, 156583, Note_on_c, 0, 71, 0
3, 156583, Note_on_c, 0, 67, 0
3, 156583, Note_on_c, 0, 74, 0
3, 156583, Note_on_c, 0, 62, 0
3, 156600, Note_on_c, 0, 64, 91
3, 156600, Note_on_c, 0, 67, 90
3, 156600, Note_on_c, 0, 71, 88
3, 156600, Note_on_c, 0, 76, 91
3, 156600, Note_on_c, 0, 43, 61
3, 156600, Note_on_c, 0, 55, 59
3, 156763, Note_on_c, 0, 76, 0
3, 156763, Note_on_c, 0, 71, 0
3, 156763, Note_on_c, 0, 64, 0
3, 156763, Note_on_c, 0, 67, 0
3, 156780, Note_on_c, 0, 66, 84
3, 156780, Note_on_c, 0, 71, 85
3, 156780, Note_on_c, 0, 74, 87
3, 156780, Note_on_c, 0, 78, 85
3, 156943, Note_on_c, 0, 78, 0
3, 156943, Note_on_c, 0, 71, 0
3, 156943, Note_on_c, 0, 66, 0
3, 156943, Note_on_c, 0, 74, 0
3, 156960, Note_on_c, 0, 67, 90
3, 156960, Note_on_c, 0, 71, 88
3, 156960, Note_on_c, 0, 74, 88
3, 156960, Note_on_c, 0, 79, 88
3, 157123, Note_on_c, 0, 79, 0
3, 157123, Note_on_c, 0, 71, 0
3, 157123, Note_on_c, 0, 67, 0
3, 157123, Note_on_c, 0, 74, 0
3, 157140, Note_on_c, 0, 69, 86
3, 157140, Note_on_c, 0, 74, 87
3, 157140, Note_on_c, 0, 81, 84
3, 157285, Note_on_c, 0, 55, 0
3, 157285, Note_on_c, 0, 43, 0
3, 157303, Note_on_c, 0, 74, 0
3, 157303, Note_on_c, 0, 69, 0
3, 157303, Note_on_c, 0, 81, 0
3, 157320, Note_on_c, 0, 71, 113
3, 157320, Note_on_c, 0, 74, 113
3, 157320, Note_on_c, 0, 79, 115
3, 157320, Note_on_c, 0, 83, 115
3, 157320, Note_on_c, 0, 42, 51
3, 157320, Note_on_c, 0, 54, 51
3, 157483, Note_on_c, 0, 54, 0
3, 157483, Note_on_c, 0, 42, 0
3, 157500, Note_on_c, 0, 40, 49
3, 157500, Note_on_c, 0, 52, 50
3, 157663, Note_on_c, 0, 52, 0
3, 157663, Note_on_c, 0, 40, 0
3, 157680, Note_on_c, 0, 38, 71
3, 157680, Note_on_c, 0, 50, 73
3, 158167, Note_on_c, 0, 50, 0
3, 158167, Note_on_c, 0, 38, 0
3, 158203, Note_on_c, 0, 79, 0
3, 158203, Note_on_c, 0, 71, 0
3, 158203, Note_on_c, 0, 74, 0
3, 158203, Note_on_c, 0, 83, 0
3, 158220, Note_on_c, 0, 62, 77
3, 158220, Note_on_c, 0, 67, 77
3, 158220, Note_on_c, 0, 71, 79
3, 158220, Note_on_c, 0, 40, 81
3, 158220, Note_on_c, 0, 52, 79
3, 158383, Note_on_c, 0, 52, 0
3, 158383, Note_on_c, 0, 71, 0
3, 158383, Note_on_c, 0, 62, 0
3, 158383, Note_on_c, 0, 67, 0
3, 158383, Note_on_c, 0, 40, 0
3, 158400, Note_on_c, 0, 60, 108
3, 158400, Note_on_c, 0, 67, 107
3, 158400, Note_on_c, 0, 72, 108
3, 158400, Note_on_c, 0, 33, 69
3, 158400, Note_on_c, 0, 45, 68
3, 158725, Note_on_c, 0, 45, 0
3, 158725, Note_on_c, 0, 72, 0
3, 158725, Note_on_c, 0, 60, 0
3, 158725, Note_on_c, 0, 67, 0
3, 158725, Note_on_c, 0, 33, 0
3, 158760, Note_on_c, 0, 60, 114
3, 158760, Note_on_c, 0, 62, 111
3, 158760, Note_on_c, 0, 66, 111
3, 158760, Note_on_c, 0, 74, 113
3, 158760, Note_on_c, 0, 36, 80
3, 158760, Note_on_c, 0, 48, 83
3, 159085, Note_on_c, 0, 48, 0
3, 159085, Note_on_c, 0, 62, 0
3, 159085, Note_on_c, 0, 66, 0
3, 159085, Note_on_c, 0, 60, 0
3, 159085, Note_on_c, 0, 36, 0
3, 159085, Note_on_c, 0, 74, 0
3, 159120, Note_on_c, 0, 59, 100
3, 159120, Note_on_c, 0, 62, 99
3, 159120, Note_on_c, 0, 67, 98
3, 159120, Note_on_c, 0, 71, 97
3, 159120, Note_on_c, 0, 31, 69
3, 159120, Note_on_c, 0, 43, 67
3, 159445, Note_on_c, 0, 43, 0
3, 159445, Note_on_c, 0, 62, 0
3, 159445, Note_on_c, 0, 67, 0
3, 159445, Note_on_c, 0, 59, 0
3, 159445, Note_on_c, 0, 31, 0
3, 159445, Note_on_c, 0, 71, 0
3, 159480, Note_on_c, 0, 31, 55
3, 159480, Note_on_c, 0, 43, 55
3, 159569, Note_on_c, 0, 43, 0
3, 159569, Note_on_c, 0, 31, 0
3, 159660, Note_on_c, 0, 31, 52
3, 159660, Note_on_c, 0, 43, 54
3, 159749, Note_on_c, 0, 43, 0
3, 159749, Note_on_c, 0, 31, 0
3, 159840, Note_on_c, 0, 31, 56
3, 159840, Note_on_c, 0, 43, 57
3, 159929, Note_on_c, 0, 43, 0
3, 159929, Note_on_c, 0, 31, 0
3, 160020, Note_on_c, 0, 31, 51
3, 160020, Note_on_c, 0, 43, 51
3, 160109, Note_on_c, 0, 43, 0
3, 160109, Note_on_c, 0, 31, 0
3, 160200, Note_on_c, 0, 57, 77
3, 160200, Note_on_c, 0, 31, 55
3, 160200, Note_on_c, 0, 43, 57
3, 160289, Note_on_c, 0, 43, 0
3, 160289, Note_on_c, 0, 31, 0
3, 160289, Note_on_c, 0, 57, 0
3, 160380, Note_on_c, 0, 58, 83
3, 160380, Note_on_c, 0, 31, 51
3, 160380, Note_on_c, 0, 43, 52
3, 160469, Note_on_c, 0, 43, 0
3, 160469, Note_on_c, 0, 31, 0
3, 160469, Note_on_c, 0, 58, 0
3, 160560, Note_on_c, 0, 50, 112
3, 160560, Note_on_c, 0, 53, 112
3, 160560, Note_on_c, 0, 59, 109
3, 160560, Note_on_c, 0, 31, 58
3, 160560, Note_on_c, 0, 43, 55
3, 160649, Note_on_c, 0, 43, 0
3, 160649, Note_on_c, 0, 31, 0
3, 160740, Note_on_c, 0, 31, 53
3, 160740, Note_on_c, 0, 43, 53
3, 160829, Note_on_c, 0, 43, 0
3, 160829, Note_on_c, 0, 31, 0
3, 160920, Note_on_c, 0, 31, 56
3, 160920, Note_on_c, 0, 43, 58
3, 161009, Note_on_c, 0, 43, 0
3, 161009, Note_on_c, 0, 31, 0
3, 161100, Note_on_c, 0, 31, 55
3, 161100, Note_on_c, 0, 43, 51
3, 161189, Note_on_c, 0, 43, 0
3, 161189, Note_on_c, 0, 31, 0
3, 161210, Note_on_c, 0, 53, 0
3, 161280, Note_on_c, 0, 53, 83
3, 161280, Note_on_c, 0, 31, 56
3, 161280, Note_on_c, 0, 43, 54
3, 161369, Note_on_c, 0, 43, 0
3, 161369, Note_on_c, 0, 31, 0
3, 161460, Note_on_c, 0, 31, 54
3, 161460, Note_on_c, 0, 43, 53
3, 161549, Note_on_c, 0, 43, 0
3, 161549, Note_on_c, 0, 31, 0
3, 161605, Note_on_c, 0, 53, 0
3, 161605, Note_on_c, 0, 59, 0
3, 161605, Note_on_c, 0, 50, 0
3, 161640, Note_on_c, 0, 50, 84
3, 161640, Note_on_c, 0, 53, 83
3, 161640, Note_on_c, 0, 58, 83
3, 161640, Note_on_c, 0, 31, 54
3, 161640, Note_on_c, 0, 43, 54
3, 161729, Note_on_c, 0, 43, 0
3, 161729, Note_on_c, 0, 31, 0
3, 161820, Note_on_c, 0, 31, 51
3, 161820, Note_on_c, 0, 43, 53
3, 161909, Note_on_c, 0, 43, 0
3, 161909, Note_on_c, 0, 31, 0
3, 162000, Note_on_c, 0, 58, 0
3, 162000, Note_on_c, 0, 53, 0
3, 162000, Note_on_c, 0, 50, 0
3, 162000, Note_on_c, 0, 50, 91
3, 162000, Note_on_c, 0, 53, 90
3, 162000, Note_on_c, 0, 59, 88
3, 162000, Note_on_c, 0, 31, 55
3, 162000, Note_on_c, 0, 43, 58
3, 162089, Note_on_c, 0, 43, 0
3, 162089, Note_on_c, 0, 31, 0
3, 162180, Note_on_c, 0, 31, 51
3, 162180, Note_on_c, 0, 43, 52
3, 162269, Note_on_c, 0, 43, 0
3, 162269, Note_on_c, 0, 31, 0
3, 162360, Note_on_c, 0, 31, 56
3, 162360, Note_on_c, 0, 43, 56
3, 162449, Note_on_c, 0, 43, 0
3, 162449, Note_on_c, 0, 31, 0
3, 162540, Note_on_c, 0, 31, 54
3, 162540, Note_on_c, 0, 43, 54
3, 162629, Note_on_c, 0, 43, 0
3, 162629, Note_on_c, 0, 31, 0
3, 162720, Note_on_c, 0, 59, 0
3, 162720, Note_on_c, 0, 53, 0
3, 162720, Note_on_c, 0, 50, 0
3, 162720, Note_on_c, 0, 31, 54
3, 162720, Note_on_c, 0, 43, 55
3, 162809, Note_on_c, 0, 43, 0
3, 162809, Note_on_c, 0, 31, 0
3, 162900, Note_on_c, 0, 62, 74
3, 162900, Note_on_c, 0, 74, 71
3, 162900, Note_on_c, 0, 31, 51
3, 162900, Note_on_c, 0, 43, 51
3, 162989, Note_on_c, 0, 43, 0
3, 162989, Note_on_c, 0, 62, 0
3, 162989, Note_on_c, 0, 74, 0
3, 162989, Note_on_c, 0, 31, 0
3, 163080, Note_on_c, 0, 64, 85
3, 163080, Note_on_c, 0, 76, 86
3, 163080, Note_on_c, 0, 31, 55
3, 163080, Note_on_c, 0, 43, 57
3, 163169, Note_on_c, 0, 43, 0
3, 163169, Note_on_c, 0, 64, 0
3, 163169, Note_on_c, 0, 76, 0
3, 163169, Note_on_c, 0, 31, 0
3, 163260, Note_on_c, 0, 65, 84
3, 163260, Note_on_c, 0, 77, 85
3, 163260, Note_on_c, 0, 31, 53
3, 163260, Note_on_c, 0, 43, 52
3, 163349, Note_on_c, 0, 43, 0
3, 163349, Note_on_c, 0, 65, 0
3, 163349, Note_on_c, 0, 77, 0
3, 163349, Note_on_c, 0, 31, 0
3, 163440, Note_on_c, 0, 67, 113
3, 163440, Note_on_c, 0, 76, 112
3, 163440, Note_on_c, 0, 79, 115
3, 163440, Note_on_c, 0, 31, 56
3, 163440, Note_on_c, 0, 43, 54
3, 163529, Note_on_c, 0, 43, 0
3, 163529, Note_on_c, 0, 31, 0
3, 163620, Note_on_c, 0, 31, 53
3, 163620, Note_on_c, 0, 43, 52
3, 163709, Note_on_c, 0, 43, 0
3, 163709, Note_on_c, 0, 31, 0
3, 163765, Note_on_c, 0, 79, 0
3, 163765, Note_on_c, 0, 76, 0
3, 163765, Note_on_c, 0, 67, 0
3, 163800, Note_on_c, 0, 55, 62
3, 163800, Note_on_c, 0, 31, 57
3, 163800, Note_on_c, 0, 43, 55
3, 163889, Note_on_c, 0, 43, 0
3, 163889, Note_on_c, 0, 31, 0
3, 163889, Note_on_c, 0, 55, 0
3, 163980, Note_on_c, 0, 55, 77
3, 163980, Note_on_c, 0, 31, 53
3, 163980, Note_on_c, 0, 43, 53
3, 164069, Note_on_c, 0, 43, 0
3, 164069, Note_on_c, 0, 31, 0
3, 164069, Note_on_c, 0, 55, 0
3, 164160, Note_on_c, 0, 55, 84
3, 164160, Note_on_c, 0, 31, 56
3, 164160, Note_on_c, 0, 43, 56
3, 164249, Note_on_c, 0, 43, 0
3, 164249, Note_on_c, 0, 31, 0
3, 164249, Note_on_c, 0, 55, 0
3, 164340, Note_on_c, 0, 57, 86
3, 164340, Note_on_c, 0, 31, 54
3, 164340, Note_on_c, 0, 43, 52
3, 164429, Note_on_c, 0, 43, 0
3, 164429, Note_on_c, 0, 31, 0
3, 164429, Note_on_c, 0, 57, 0
3, 164520, Note_on_c, 0, 55, 112
3, 164520, Note_on_c, 0, 58, 110
3, 164520, Note_on_c, 0, 31, 56
3, 164520, Note_on_c, 0, 43, 58
3, 164609, Note_on_c, 0, 43, 0
3, 164609, Note_on_c, 0, 31, 0
3, 164700, Note_on_c, 0, 31, 53
3, 164700, Note_on_c, 0, 43, 54
3, 164789, Note_on_c, 0, 43, 0
3, 164789, Note_on_c, 0, 31, 0
3, 164880, Note_on_c, 0, 31, 57
3, 164880, Note_on_c, 0, 43, 55
3, 164969, Note_on_c, 0, 43, 0
3, 164969, Note_on_c, 0, 31, 0
3, 165060, Note_on_c, 0, 31, 54
3, 165060, Note_on_c, 0, 43, 51
3, 165149, Note_on_c, 0, 43, 0
3, 165149, Note_on_c, 0, 31, 0
3, 165240, Note_on_c, 0, 31, 56
3, 165240, Note_on_c, 0, 43, 56
3, 165329, Note_on_c, 0, 43, 0
3, 165329, Note_on_c, 0, 31, 0
3, 165420, Note_on_c, 0, 31, 53
3, 165420, Note_on_c, 0, 43, 53
3, 165509, Note_on_c, 0, 43, 0
3, 165509, Note_on_c, 0, 31, 0
3, 165530, Note_on_c, 0, 58, 0
3, 165530, Note_on_c, 0, 55, 0
3, 165600, Note_on_c, 0, 31, 57
3, 165600, Note_on_c, 0, 43, 55
3, 165689, Note_on_c, 0, 43, 0
3, 165689, Note_on_c, 0, 31, 0
3, 165780, Note_on_c, 0, 32, 55
3, 165780, Note_on_c, 0, 44, 54
3, 165869, Note_on_c, 0, 44, 0
3, 165869, Note_on_c, 0, 32, 0
3, 165960, Note_on_c, 0, 33, 58
3, 165960, Note_on_c, 0, 45, 57
3, 166049, Note_on_c, 0, 45, 0
3, 166049, Note_on_c, 0, 33, 0
3, 166140, Note_on_c, 0, 33, 55
3, 166140, Note_on_c, 0, 45, 51
3, 166229, Note_on_c, 0, 45, 0
3, 166229, Note_on_c, 0, 33, 0
3, 166320, Note_on_c, 0, 52, 77
3, 166320, Note_on_c, 0, 64, 78
3, 166320, Note_on_c, 0, 33, 55
3, 166320, Note_on_c, 0, 45, 55
3, 166409, Note_on_c, 0, 45, 0
3, 166409, Note_on_c, 0, 52, 0
3, 166409, Note_on_c, 0, 64, 0
3, 166409, Note_on_c, 0, 33, 0
3, 166500, Note_on_c, 0, 53, 84
3, 166500, Note_on_c, 0, 65, 83
3, 166500, Note_on_c, 0, 33, 55
3, 166500, Note_on_c, 0, 45, 55
3, 166589, Note_on_c, 0, 45, 0
3, 166589, Note_on_c, 0, 53, 0
3, 166589, Note_on_c, 0, 65, 0
3, 166589, Note_on_c, 0, 33, 0
3, 166680, Note_on_c, 0, 55, 88
3, 166680, Note_on_c, 0, 67, 90
3, 166680, Note_on_c, 0, 33, 56
3, 166680, Note_on_c, 0, 45, 54
3, 166769, Note_on_c, 0, 45, 0
3, 166769, Note_on_c, 0, 55, 0
3, 166769, Note_on_c, 0, 67, 0
3, 166769, Note_on_c, 0, 33, 0
3, 166860, Note_on_c, 0, 57, 86
3, 166860, Note_on_c, 0, 69, 87
3, 166860, Note_on_c, 0, 33, 54
3, 166860, Note_on_c, 0, 45, 53
3, 166949, Note_on_c, 0, 45, 0
3, 166949, Note_on_c, 0, 57, 0
3, 166949, Note_on_c, 0, 69, 0
3, 166949, Note_on_c, 0, 33, 0
3, 167040, Note_on_c, 0, 58, 114
3, 167040, Note_on_c, 0, 70, 116
3, 167040, Note_on_c, 0, 33, 58
3, 167040, Note_on_c, 0, 45, 55
3, 167129, Note_on_c, 0, 45, 0
3, 167129, Note_on_c, 0, 33, 0
3, 167220, Note_on_c, 0, 33, 53
3, 167220, Note_on_c, 0, 45, 55
3, 167309, Note_on_c, 0, 45, 0
3, 167309, Note_on_c, 0, 33, 0
3, 167400, Note_on_c, 0, 33, 57
3, 167400, Note_on_c, 0, 45, 57
3, 167489, Note_on_c, 0, 45, 0
3, 167489, Note_on_c, 0, 33, 0
3, 167580, Note_on_c, 0, 33, 51
3, 167580, Note_on_c, 0, 45, 54
3, 167669, Note_on_c, 0, 45, 0
3, 167669, Note_on_c, 0, 33, 0
3, 167760, Note_on_c, 0, 33, 56
3, 167760, Note_on_c, 0, 45, 56
3, 167849, Note_on_c, 0, 45, 0
3, 167849, Note_on_c, 0, 33, 0
3, 167940, Note_on_c, 0, 33, 51
3, 167940, Note_on_c, 0, 45, 52
3, 168029, Note_on_c, 0, 45, 0
3, 168029, Note_on_c, 0, 33, 0
3, 168050, Note_on_c, 0, 70, 0
3, 168050, Note_on_c, 0, 58, 0
3, 168120, Note_on_c, 0, 57, 76
3, 168120, Note_on_c, 0, 69, 77
3, 168120, Note_on_c, 0, 33, 56
3, 168120, Note_on_c, 0, 45, 58
3, 168209, Note_on_c, 0, 45, 0
3, 168209, Note_on_c, 0, 33, 0
3, 168300, Note_on_c, 0, 33, 53
3, 168300, Note_on_c, 0, 45, 52
3, 168389, Note_on_c, 0, 45, 0
3, 168389, Note_on_c, 0, 33, 0
3, 168480, Note_on_c, 0, 33, 58
3, 168480, Note_on_c, 0, 45, 55
3, 168643, Note_on_c, 0, 45, 0
3, 168643, Note_on_c, 0, 57, 0
3, 168643, Note_on_c, 0, 69, 0
3, 168643, Note_on_c, 0, 33, 0
3, 168660, Note_on_c, 0, 33, 52
3, 168660, Note_on_c, 0, 45, 52
3, 168823, Note_on_c, 0, 45, 0
3, 168823, Note_on_c, 0, 33, 0
3, 168840, Note_on_c, 0, 50, 76
3, 168840, Note_on_c, 0, 53, 77
3, 168840, Note_on_c, 0, 58, 74
3, 168840, Note_on_c, 0, 34, 54
3, 168840, Note_on_c, 0, 46, 53
3, 169003, Note_on_c, 0, 58, 0
3, 169003, Note_on_c, 0, 50, 0
3, 169003, Note_on_c, 0, 53, 0
3, 169020, Note_on_c, 0, 51, 83
3, 169020, Note_on_c, 0, 53, 86
3, 169020, Note_on_c, 0, 58, 83
3, 169020, Note_on_c, 0, 60, 85
3, 169183, Note_on_c, 0, 60, 0
3, 169183, Note_on_c, 0, 53, 0
3, 169183, Note_on_c, 0, 51, 0
3, 169183, Note_on_c, 0, 58, 0
3, 169200, Note_on_c, 0, 50, 85
3, 169200, Note_on_c, 0, 53, 88
3, 169200, Note_on_c, 0, 58, 86
3, 169200, Note_on_c, 0, 62, 84
3, 169363, Note_on_c, 0, 46, 0
3, 169363, Note_on_c, 0, 34, 0
3, 169380, Note_on_c, 0, 29, 47
3, 169380, Note_on_c, 0, 41, 48
3, 169543, Note_on_c, 0, 41, 0
3, 169543, Note_on_c, 0, 29, 0
3, 169560, Note_on_c, 0, 31, 56
3, 169560, Note_on_c, 0, 43, 56
3, 169723, Note_on_c, 0, 43, 0
3, 169723, Note_on_c, 0, 31, 0
3, 169740, Note_on_c, 0, 33, 54
3, 169740, Note_on_c, 0, 45, 56
3, 169903, Note_on_c, 0, 45, 0
3, 169903, Note_on_c, 0, 33, 0
3, 169920, Note_on_c, 0, 34, 59
3, 169920, Note_on_c, 0, 46, 58
3, 170083, Note_on_c, 0, 50, 0
3, 170083, Note_on_c, 0, 58, 0
3, 170083, Note_on_c, 0, 53, 0
3, 170083, Note_on_c, 0, 62, 0
3, 170100, Note_on_c, 0, 52, 76
3, 170100, Note_on_c, 0, 58, 77
3, 170100, Note_on_c, 0, 61, 75
3, 170263, Note_on_c, 0, 61, 0
3, 170263, Note_on_c, 0, 52, 0
3, 170263, Note_on_c, 0, 58, 0
3, 170280, Note_on_c, 0, 53, 85
3, 170280, Note_on_c, 0, 58, 87
3, 170280, Note_on_c, 0, 62, 87
3, 170443, Note_on_c, 0, 62, 0
3, 170443, Note_on_c, 0, 53, 0
3, 170443, Note_on_c, 0, 58, 0
3, 170460, Note_on_c, 0, 55, 86
3, 170460, Note_on_c, 0, 62, 86
3, 170460, Note_on_c, 0, 64, 85
3, 170623, Note_on_c, 0, 64, 0
3, 170623, Note_on_c, 0, 55, 0
3, 170623, Note_on_c, 0, 62, 0
3, 170640, Note_on_c, 0, 53, 87
3, 170640, Note_on_c, 0, 62, 84
3, 170640, Note_on_c, 0, 65, 87
3, 170803, Note_on_c, 0, 46, 0
3, 170803, Note_on_c, 0, 34, 0
3, 170820, Note_on_c, 0, 33, 49
3, 170820, Note_on_c, 0, 45, 51
3, 170983, Note_on_c, 0, 45, 0
3, 170983, Note_on_c, 0, 33, 0
3, 171000, Note_on_c, 0, 35, 59
3, 171000, Note_on_c, 0, 47, 60
3, 171163, Note_on_c, 0, 47, 0
3, 171163, Note_on_c, 0, 35, 0
3, 171180, Note_on_c, 0, 37, 55
3, 171180, Note_on_c, 0, 49, 56
3, 171343, Note_on_c, 0, 49, 0
3, 171343, Note_on_c, 0, 37, 0
3, 171360, Note_on_c, 0, 38, 60
3, 171360, Note_on_c, 0, 50, 59
3, 171523, Note_on_c, 0, 65, 0
3, 171523, Note_on_c, 0, 62, 0
3, 171523, Note_on_c, 0, 53, 0
3, 171540, Note_on_c, 0, 55, 78
3, 171540, Note_on_c, 0, 62, 77
3, 171540, Note_on_c, 0, 64, 78
3, 171685, Note_on_c, 0, 38, 0
3, 171685, Note_on_c, 0, 50, 0
3, 171703, Note_on_c, 0, 62, 0
3, 171703, Note_on_c, 0, 55, 0
3, 171703, Note_on_c, 0, 64, 0
3, 171720, Note_on_c, 0, 57, 84
3, 171720, Note_on_c, 0, 62, 84
3, 171720, Note_on_c, 0, 65, 88
3, 171720, Note_on_c, 0, 38, 58
3, 171720, Note_on_c, 0, 50, 57
3, 171883, Note_on_c, 0, 50, 0
3, 171883, Note_on_c, 0, 65, 0
3, 171883, Note_on_c, 0, 57, 0
3, 171883, Note_on_c, 0, 62, 0
3, 171883, Note_on_c, 0, 38, 0
3, 171900, Note_on_c, 0, 55, 86
3, 171900, Note_on_c, 0, 62, 86
3, 171900, Note_on_c, 0, 67, 84
3, 171900, Note_on_c, 0, 40, 56
3, 171900, Note_on_c, 0, 52, 58
3, 172063, Note_on_c, 0, 52, 0
3, 172063, Note_on_c, 0, 67, 0
3, 172063, Note_on_c, 0, 55, 0
3, 172063, Note_on_c, 0, 62, 0
3, 172063, Note_on_c, 0, 40, 0
3, 172080, Note_on_c, 0, 57, 88
3, 172080, Note_on_c, 0, 62, 88
3, 172080, Note_on_c, 0, 69, 90
3, 172080, Note_on_c, 0, 41, 55
3, 172080, Note_on_c, 0, 53, 55
3, 172243, Note_on_c, 0, 69, 0
3, 172243, Note_on_c, 0, 57, 0
3, 172243, Note_on_c, 0, 62, 0
3, 172260, Note_on_c, 0, 55, 76
3, 172260, Note_on_c, 0, 67, 77
3, 172405, Note_on_c, 0, 41, 0
3, 172405, Note_on_c, 0, 53, 0
3, 172423, Note_on_c, 0, 55, 0
3, 172423, Note_on_c, 0, 67, 0
3, 172440, Note_on_c, 0, 57, 87
3, 172440, Note_on_c, 0, 61, 87
3, 172440, Note_on_c, 0, 67, 88
3, 172440, Note_on_c, 0, 69, 89
3, 172440, Note_on_c, 0, 40, 49
3, 172440, Note_on_c, 0, 52, 51
3, 172603, Note_on_c, 0, 69, 0
3, 172603, Note_on_c, 0, 67, 0
3, 172603, Note_on_c, 0, 57, 0
3, 172603, Note_on_c, 0, 61, 0
3, 172620, Note_on_c, 0, 59, 85
3, 172620, Note_on_c, 0, 71, 86
3, 172765, Note_on_c, 0, 52, 0
3, 172765, Note_on_c, 0, 40, 0
3, 172783, Note_on_c, 0, 59, 0
3, 172783, Note_on_c, 0, 71, 0
3, 172800, Note_on_c, 0, 60, 87
3, 172800, Note_on_c, 0, 65, 86
3, 172800, Note_on_c, 0, 69, 88
3, 172800, Note_on_c, 0, 72, 89
3, 172800, Note_on_c, 0, 38, 54
3, 172800, Note_on_c, 0, 50, 53
3, 172963, Note_on_c, 0, 72, 0
3, 172963, Note_on_c, 0, 69, 0
3, 172963, Note_on_c, 0, 60, 0
3, 172963, Note_on_c, 0, 65, 0
3, 172980, Note_on_c, 0, 62, 87
3, 172980, Note_on_c, 0, 74, 87
3, 173125, Note_on_c, 0, 50, 0
3, 173125, Note_on_c, 0, 38, 0
3, 173143, Note_on_c, 0, 62, 0
3, 173143, Note_on_c, 0, 74, 0
3, 173160, Note_on_c, 0, 64, 89
3, 173160, Note_on_c, 0, 68, 90
3, 173160, Note_on_c, 0, 76, 88
3, 173160, Note_on_c, 0, 36, 49
3, 173160, Note_on_c, 0, 48, 50
3, 173323, Note_on_c, 0, 76, 0
3, 173323, Note_on_c, 0, 64, 0
3, 173323, Note_on_c, 0, 68, 0
3, 173340, Note_on_c, 0, 65, 86
3, 173340, Note_on_c, 0, 77, 83
3, 173485, Note_on_c, 0, 36, 0
3, 173485, Note_on_c, 0, 48, 0
3, 173503, Note_on_c, 0, 65, 0
3, 173503, Note_on_c, 0, 77, 0
3, 173520, Note_on_c, 0, 67, 89
3, 173520, Note_on_c, 0, 74, 90
3, 173520, Note_on_c, 0, 77, 87
3, 173520, Note_on_c, 0, 79, 90
3, 173520, Note_on_c, 0, 35, 53
3, 173520, Note_on_c, 0, 47, 51
3, 173683, Note_on_c, 0, 47, 0
3, 173683, Note_on_c, 0, 74, 0
3, 173683, Note_on_c, 0, 77, 0
3, 173683, Note_on_c, 0, 67, 0
3, 173683, Note_on_c, 0, 35, 0
3, 173683, Note_on_c, 0, 79, 0
3, 173700, Note_on_c, 0, 55, 58
3, 173700, Note_on_c, 0, 67, 59
3, 173700, Note_on_c, 0, 33, 50
3, 173700, Note_on_c, 0, 45, 50
3, 173863, Note_on_c, 0, 45, 0
3, 173863, Note_on_c, 0, 55, 0
3, 173863, Note_on_c, 0, 67, 0
3, 173863, Note_on_c, 0, 33, 0
3, 173880, Note_on_c, 0, 57, 86
3, 173880, Note_on_c, 0, 62, 84
3, 173880, Note_on_c, 0, 65, 85
3, 173880, Note_on_c, 0, 69, 87
3, 173880, Note_on_c, 0, 31, 50
3, 173880, Note_on_c, 0, 43, 49
3, 174043, Note_on_c, 0, 69, 0
3, 174043, Note_on_c, 0, 65, 0
3, 174043, Note_on_c, 0, 57, 0
3, 174043, Note_on_c, 0, 62, 0
3, 174060, Note_on_c, 0, 59, 84
3, 174060, Note_on_c, 0, 71, 86
3, 174205, Note_on_c, 0, 43, 0
3, 174205, Note_on_c, 0, 31, 0
3, 174223, Note_on_c, 0, 59, 0
3, 174223, Note_on_c, 0, 71, 0
3, 174240, Note_on_c, 0, 60, 89
3, 174240, Note_on_c, 0, 64, 89
3, 174240, Note_on_c, 0, 67, 87
3, 174240, Note_on_c, 0, 72, 86
3, 174240, Note_on_c, 0, 36, 60
3, 174240, Note_on_c, 0, 48, 63
3, 174565, Note_on_c, 0, 48, 0
3, 174565, Note_on_c, 0, 64, 0
3, 174565, Note_on_c, 0, 67, 0
3, 174565, Note_on_c, 0, 60, 0
3, 174565, Note_on_c, 0, 36, 0
3, 174565, Note_on_c, 0, 72, 0
3, 174600, Note_on_c, 0, 64, 82
3, 174600, Note_on_c, 0, 67, 84
3, 174600, Note_on_c, 0, 72, 83
3, 174763, Note_on_c, 0, 72, 0
3, 174763, Note_on_c, 0, 67, 0
3, 174763, Note_on_c, 0, 64, 0
3, 174780, Note_on_c, 0, 65, 84
3, 174780, Note_on_c, 0, 67, 85
3, 174780, Note_on_c, 0, 72, 86
3, 174780, Note_on_c, 0, 74, 84
3, 174943, Note_on_c, 0, 74, 0
3, 174943, Note_on_c, 0, 65, 0
3, 174943, Note_on_c, 0, 67, 0
3, 174943, Note_on_c, 0, 72, 0
3, 174960, Note_on_c, 0, 64, 112
3, 174960, Note_on_c, 0, 67, 113
3, 174960, Note_on_c, 0, 72, 115
3, 174960, Note_on_c, 0, 76, 113
3, 175140, Note_on_c, 0, 31, 46
3, 175140, Note_on_c, 0, 43, 46
3, 175303, Note_on_c, 0, 43, 0
3, 175303, Note_on_c, 0, 31, 0
3, 175320, Note_on_c, 0, 33, 57
3, 175320, Note_on_c, 0, 45, 58
3, 175483, Note_on_c, 0, 45, 0
3, 175483, Note_on_c, 0, 33, 0
3, 175500, Note_on_c, 0, 35, 56
3, 175500, Note_on_c, 0, 47, 55
3, 175663, Note_on_c, 0, 47, 0
3, 175663, Note_on_c, 0, 35, 0
3, 175680, Note_on_c, 0, 36, 84
3, 175680, Note_on_c, 0, 48, 84
3, 176005, Note_on_c, 0, 72, 0
3, 176005, Note_on_c, 0, 76, 0
3, 176005, Note_on_c, 0, 64, 0
3, 176005, Note_on_c, 0, 67, 0
3, 176040, Note_on_c, 0, 64, 74
3, 176040, Note_on_c, 0, 67, 73
3, 176040, Note_on_c, 0, 72, 74
3, 176203, Note_on_c, 0, 72, 0
3, 176203, Note_on_c, 0, 64, 0
3, 176203, Note_on_c, 0, 67, 0
3, 176220, Note_on_c, 0, 65, 85
3, 176220, Note_on_c, 0, 67, 85
3, 176220, Note_on_c, 0, 74, 84
3, 176383, Note_on_c, 0, 74, 0
3, 176383, Note_on_c, 0, 65, 0
3, 176383, Note_on_c, 0, 67, 0
3, 176400, Note_on_c, 0, 67, 90
3, 176400, Note_on_c, 0, 72, 89
3, 176400, Note_on_c, 0, 76, 87
3, 176563, Note_on_c, 0, 76, 0
3, 176563, Note_on_c, 0, 67, 0
3, 176563, Note_on_c, 0, 72, 0
3, 176580, Note_on_c, 0, 69, 85
3, 176580, Note_on_c, 0, 72, 85
3, 176580, Note_on_c, 0, 77, 86
3, 176690, Note_on_c, 0, 48, 0
3, 176690, Note_on_c, 0, 36, 0
3, 176743, Note_on_c, 0, 72, 0
3, 176743, Note_on_c, 0, 69, 0
3, 176743, Note_on_c, 0, 77, 0
3, 176760, Note_on_c, 0, 70, 91
3, 176760, Note_on_c, 0, 72, 88
3, 176760, Note_on_c, 0, 79, 89
3, 176760, Note_on_c, 0, 41, 58
3, 176760, Note_on_c, 0, 53, 60
3, 176923, Note_on_c, 0, 79, 0
3, 176923, Note_on_c, 0, 70, 0
3, 176923, Note_on_c, 0, 72, 0
3, 176940, Note_on_c, 0, 69, 77
3, 176940, Note_on_c, 0, 72, 77
3, 176940, Note_on_c, 0, 77, 75
3, 177085, Note_on_c, 0, 41, 0
3, 177085, Note_on_c, 0, 53, 0
3, 177103, Note_on_c, 0, 72, 0
3, 177103, Note_on_c, 0, 69, 0
3, 177103, Note_on_c, 0, 77, 0
3, 177120, Note_on_c, 0, 67, 78
3, 177120, Note_on_c, 0, 72, 80
3, 177120, Note_on_c, 0, 76, 80
3, 177120, Note_on_c, 0, 48, 65
3, 177120, Note_on_c, 0, 60, 66
3, 177283, Note_on_c, 0, 60, 0
3, 177283, Note_on_c, 0, 48, 0
3, 177300, Note_on_c, 0, 46, 52
3, 177300, Note_on_c, 0, 58, 49
3, 177445, Note_on_c, 0, 67, 0
3, 177445, Note_on_c, 0, 76, 0
3, 177445, Note_on_c, 0, 72, 0
3, 177463, Note_on_c, 0, 46, 0
3, 177463, Note_on_c, 0, 58, 0
3, 177480, Note_on_c, 0, 69, 87
3, 177480, Note_on_c, 0, 72, 84
3, 177480, Note_on_c, 0, 77, 85
3, 177480, Note_on_c, 0, 45, 52
3, 177480, Note_on_c, 0, 57, 51
3, 177643, Note_on_c, 0, 57, 0
3, 177643, Note_on_c, 0, 77, 0
3, 177643, Note_on_c, 0, 69, 0
3, 177643, Note_on_c, 0, 72, 0
3, 177643, Note_on_c, 0, 45, 0
3, 177660, Note_on_c, 0, 70, 86
3, 177660, Note_on_c, 0, 72, 87
3, 177660, Note_on_c, 0, 79, 86
3, 177660, Note_on_c, 0, 43, 47
3, 177660, Note_on_c, 0, 55, 50
3, 177823, Note_on_c, 0, 55, 0
3, 177823, Note_on_c, 0, 79, 0
3, 177823, Note_on_c, 0, 70, 0
3, 177823, Note_on_c, 0, 72, 0
3, 177823, Note_on_c, 0, 43, 0
3, 177840, Note_on_c, 0, 72, 90
3, 177840, Note_on_c, 0, 77, 91
3, 177840, Note_on_c, 0, 81, 89
3, 177840, Note_on_c, 0, 41, 49
3, 177840, Note_on_c, 0, 53, 51
3, 178003, Note_on_c, 0, 81, 0
3, 178003, Note_on_c, 0, 72, 0
3, 178003, Note_on_c, 0, 77, 0
3, 178020, Note_on_c, 0, 74, 84
3, 178020, Note_on_c, 0, 77, 84
3, 178020, Note_on_c, 0, 82, 85
3, 178165, Note_on_c, 0, 41, 0
3, 178165, Note_on_c, 0, 53, 0
3, 178183, Note_on_c, 0, 77, 0
3, 178183, Note_on_c, 0, 74, 0
3, 178183, Note_on_c, 0, 82, 0
3, 178200, Note_on_c, 0, 75, 117
3, 178200, Note_on_c, 0, 77, 115
3, 178200, Note_on_c, 0, 81, 117
3, 178200, Note_on_c, 0, 84, 118
3, 178200, Note_on_c, 0, 53, 67
3, 178200, Note_on_c, 0, 65, 66
3, 178363, Note_on_c, 0, 65, 0
3, 178363, Note_on_c, 0, 53, 0
3, 178380, Note_on_c, 0, 55, 57
3, 178380, Note_on_c, 0, 67, 57
3, 178543, Note_on_c, 0, 67, 0
3, 178543, Note_on_c, 0, 55, 0
3, 178560, Note_on_c, 0, 53, 54
3, 178560, Note_on_c, 0, 65, 54
3, 178723, Note_on_c, 0, 84, 0
3, 178723, Note_on_c, 0, 81, 0
3, 178723, Note_on_c, 0, 75, 0
3, 178723, Note_on_c, 0, 77, 0
3, 178740, Note_on_c, 0, 74, 75
3, 178740, Note_on_c, 0, 77, 74
3, 178740, Note_on_c, 0, 82, 74
3, 178903, Note_on_c, 0, 82, 0
3, 178903, Note_on_c, 0, 74, 0
3, 178903, Note_on_c, 0, 77, 0
3, 178920, Note_on_c, 0, 72, 77
3, 178920, Note_on_c, 0, 77, 81
3, 178920, Note_on_c, 0, 81, 77
3, 179083, Note_on_c, 0, 81, 0
3, 179083, Note_on_c, 0, 72, 0
3, 179083, Note_on_c, 0, 77, 0
3, 179100, Note_on_c, 0, 70, 75
3, 179100, Note_on_c, 0, 77, 77
3, 179100, Note_on_c, 0, 79, 77
3, 179210, Note_on_c, 0, 65, 0
3, 179210, Note_on_c, 0, 53, 0
3, 179263, Note_on_c, 0, 77, 0
3, 179263, Note_on_c, 0, 70, 0
3, 179263, Note_on_c, 0, 79, 0
3, 179280, Note_on_c, 0, 69, 89
3, 179280, Note_on_c, 0, 72, 90
3, 179280, Note_on_c, 0, 77, 88
3, 179280, Note_on_c, 0, 81, 88
3, 179280, Note_on_c, 0, 41, 39
3, 179280, Note_on_c, 0, 53, 37
3, 179443, Note_on_c, 0, 81, 0
3, 179443, Note_on_c, 0, 77, 0
3, 179443, Note_on_c, 0, 69, 0
3, 179443, Note_on_c, 0, 72, 0
3, 179460, Note_on_c, 0, 71, 85
3, 179460, Note_on_c, 0, 83, 86
3, 179605, Note_on_c, 0, 53, 0
3, 179605, Note_on_c, 0, 41, 0
3, 179623, Note_on_c, 0, 71, 0
3, 179623, Note_on_c, 0, 83, 0
3, 179640, Note_on_c, 0, 72, 88
3, 179640, Note_on_c, 0, 75, 89
3, 179640, Note_on_c, 0, 81, 86
3, 179640, Note_on_c, 0, 84, 89
3, 179640, Note_on_c, 0, 42, 53
3, 179640, Note_on_c, 0, 54, 52
3, 179803, Note_on_c, 0, 84, 0
3, 179803, Note_on_c, 0, 81, 0
3, 179803, Note_on_c, 0, 72, 0
3, 179803, Note_on_c, 0, 75, 0
3, 179820, Note_on_c, 0, 71, 79
3, 179820, Note_on_c, 0, 83, 79
3, 179965, Note_on_c, 0, 54, 0
3, 179965, Note_on_c, 0, 42, 0
3, 179983, Note_on_c, 0, 71, 0
3, 179983, Note_on_c, 0, 83, 0
3, 180000, Note_on_c, 0, 72, 112
3, 180000, Note_on_c, 0, 76, 113
3, 180000, Note_on_c, 0, 79, 113
3, 180000, Note_on_c, 0, 84, 113
3, 180000, Note_on_c, 0, 43, 86
3, 180000, Note_on_c, 0, 55, 85
3, 180325, Note_on_c, 0, 55, 0
3, 180325, Note_on_c, 0, 76, 0
3, 180325, Note_on_c, 0, 79, 0
3, 180325, Note_on_c, 0, 72, 0
3, 180325, Note_on_c, 0, 43, 0
3, 180325, Note_on_c, 0, 84, 0
3, 180360, Note_on_c, 0, 64, 63
3, 180360, Note_on_c, 0, 67, 64
3, 180360, Note_on_c, 0, 72, 62
3, 180523, Note_on_c, 0, 72, 0
3, 180523, Note_on_c, 0, 67, 0
3, 180523, Note_on_c, 0, 64, 0
3, 180540, Note_on_c, 0, 64, 80
3, 180540, Note_on_c, 0, 67, 81
3, 180540, Note_on_c, 0, 74, 82
3, 180703, Note_on_c, 0, 74, 0
3, 180703, Note_on_c, 0, 67, 0
3, 180703, Note_on_c, 0, 64, 0
3, 180720, Note_on_c, 0, 67, 87
3, 180720, Note_on_c, 0, 72, 88
3, 180720, Note_on_c, 0, 76, 88
3, 180883, Note_on_c, 0, 76, 0
3, 180883, Note_on_c, 0, 72, 0
3, 180883, Note_on_c, 0, 67, 0
3, 180900, Note_on_c, 0, 67, 87
3, 180900, Note_on_c, 0, 72, 88
3, 180900, Note_on_c, 0, 76, 87
3, 180900, Note_on_c, 0, 79, 87
3, 181063, Note_on_c, 0, 79, 0
3, 181063, Note_on_c, 0, 67, 0
3, 181063, Note_on_c, 0, 72, 0
3, 181063, Note_on_c, 0, 76, 0
3, 181080, Note_on_c, 0, 69, 90
3, 181080, Note_on_c, 0, 72, 89
3, 181080, Note_on_c, 0, 76, 90
3, 181080, Note_on_c, 0, 81, 91
3, 181080, Note_on_c, 0, 36, 47
3, 181080, Note_on_c, 0, 48, 48
3, 181243, Note_on_c, 0, 81, 0
3, 181243, Note_on_c, 0, 76, 0
3, 181243, Note_on_c, 0, 69, 0
3, 181243, Note_on_c, 0, 72, 0
3, 181260, Note_on_c, 0, 71, 85
3, 181260, Note_on_c, 0, 76, 86
3, 181260, Note_on_c, 0, 79, 88
3, 181260, Note_on_c, 0, 83, 86
3, 181423, Note_on_c, 0, 83, 0
3, 181423, Note_on_c, 0, 76, 0
3, 181423, Note_on_c, 0, 71, 0
3, 181423, Note_on_c, 0, 79, 0
3, 181440, Note_on_c, 0, 72, 90
3, 181440, Note_on_c, 0, 76, 89
3, 181440, Note_on_c, 0, 79, 87
3, 181440, Note_on_c, 0, 84, 88
3, 181603, Note_on_c, 0, 84, 0
3, 181603, Note_on_c, 0, 76, 0
3, 181603, Note_on_c, 0, 72, 0
3, 181603, Note_on_c, 0, 79, 0
3, 181620, Note_on_c, 0, 74, 88
3, 181620, Note_on_c, 0, 79, 86
3, 181620, Note_on_c, 0, 86, 88
3, 181765, Note_on_c, 0, 48, 0
3, 181765, Note_on_c, 0, 36, 0
3, 181783, Note_on_c, 0, 79, 0
3, 181783, Note_on_c, 0, 74, 0
3, 181783, Note_on_c, 0, 86, 0
3, 181800, Note_on_c, 0, 76, 114
3, 181800, Note_on_c, 0, 79, 113
3, 181800, Note_on_c, 0, 84, 112
3, 181800, Note_on_c, 0, 88, 114
3, 181800, Note_on_c, 0, 35, 77
3, 181800, Note_on_c, 0, 47, 78
3, 181963, Note_on_c, 0, 47, 0
3, 181963, Note_on_c, 0, 35, 0
3, 181980, Note_on_c, 0, 33, 71
3, 181980, Note_on_c, 0, 45, 74
3, 182125, Note_on_c, 0, 84, 0
3, 182125, Note_on_c, 0, 88, 0
3, 182125, Note_on_c, 0, 76, 0
3, 182125, Note_on_c, 0, 79, 0
3, 182143, Note_on_c, 0, 45, 0
3, 182143, Note_on_c, 0, 33, 0
3, 182160, Note_on_c, 0, 31, 71
3, 182160, Note_on_c, 0, 43, 71
3, 182700, Note_on_c, 0, 52, 95
3, 182700, Note_on_c, 0, 64, 96
3, 182810, Note_on_c, 0, 43, 0
3, 182810, Note_on_c, 0, 31, 0
3, 182863, Note_on_c, 0, 52, 0
3, 182863, Note_on_c, 0, 64, 0
3, 182880, Note_on_c, 0, 53, 110
3, 182880, Note_on_c, 0, 65, 114
3, 182880, Note_on_c, 0, 31, 56
3, 182880, Note_on_c, 0, 43, 55
3, 183367, Note_on_c, 0, 65, 0
3, 183367, Note_on_c, 0, 53, 0
3, 183420, Note_on_c, 0, 55, 113
3, 183420, Note_on_c, 0, 67, 112
3, 183583, Note_on_c, 0, 67, 0
3, 183583, Note_on_c, 0, 55, 0
3, 183600, Note_on_c, 0, 48, 90
3, 183600, Note_on_c, 0, 60, 87
3, 184087, Note_on_c, 0, 60, 0
3, 184087, Note_on_c, 0, 48, 0
3, 184140, Note_on_c, 0, 50, 108
3, 184140, Note_on_c, 0, 62, 108
3, 184250, Note_on_c, 0, 31, 0
3, 184250, Note_on_c, 0, 43, 0
3, 184303, Note_on_c, 0, 50, 0
3, 184303, Note_on_c, 0, 62, 0
3, 184320, Note_on_c, 0, 52, 114
3, 184320, Note_on_c, 0, 64, 115
3, 184320, Note_on_c, 0, 31, 56
3, 184320, Note_on_c, 0, 43, 54
3, 184807, Note_on_c, 0, 64, 0
3, 184807, Note_on_c, 0, 52, 0
3, 184860, Note_on_c, 0, 53, 110
3, 184860, Note_on_c, 0, 65, 112
3, 185023, Note_on_c, 0, 65, 0
3, 185023, Note_on_c, 0, 53, 0
3, 185040, Note_on_c, 0, 55, 112
3, 185040, Note_on_c, 0, 67, 114
3, 186085, Note_on_c, 0, 67, 0
3, 186085, Note_on_c, 0, 55, 0
3, 186300, Note_on_c, 0, 48, 94
3, 186300, Note_on_c, 0, 60, 94
3, 186410, Note_on_c, 0, 31, 0
3, 186410, Note_on_c, 0, 43, 0
3, 186463, Note_on_c, 0, 48, 0
3, 186463, Note_on_c, 0, 60, 0
3, 186480, Note_on_c, 0, 50, 111
3, 186480, Note_on_c, 0, 62, 109
3, 186480, Note_on_c, 0, 31, 55
3, 186480, Note_on_c, 0, 43, 54
3, 186967, Note_on_c, 0, 62, 0
3, 186967, Note_on_c, 0, 50, 0
3, 187020, Note_on_c, 0, 52, 115
3, 187020, Note_on_c, 0, 64, 111
3, 187183, Note_on_c, 0, 64, 0
3, 187183, Note_on_c, 0, 52, 0
3, 187200, Note_on_c, 0, 53, 114
3, 187200, Note_on_c, 0, 65, 112
3, 188083, Note_on_c, 0, 65, 0
3, 188083, Note_on_c, 0, 53, 0
3, 188100, Note_on_c, 0, 55, 112
3, 188100, Note_on_c, 0, 67, 114
3, 188263, Note_on_c, 0, 67, 0
3, 188263, Note_on_c, 0, 55, 0
3, 188280, Note_on_c, 0, 57, 114
3, 188280, Note_on_c, 0, 69, 115
3, 188443, Note_on_c, 0, 69, 0
3, 188443, Note_on_c, 0, 57, 0
3, 188460, Note_on_c, 0, 59, 113
3, 188460, Note_on_c, 0, 71, 111
3, 188570, Note_on_c, 0, 31, 0
3, 188570, Note_on_c, 0, 43, 0
3, 188623, Note_on_c, 0, 59, 0
3, 188623, Note_on_c, 0, 71, 0
3, 188640, Note_on_c, 0, 60, 113
3, 188640, Note_on_c, 0, 65, 115
3, 188640, Note_on_c, 0, 69, 114
3, 188640, Note_on_c, 0, 72, 115
3, 188640, Note_on_c, 0, 31, 57
3, 188640, Note_on_c, 0, 43, 55
3, 188803, Note_on_c, 0, 72, 0
3, 188803, Note_on_c, 0, 69, 0
3, 188803, Note_on_c, 0, 60, 0
3, 188803, Note_on_c, 0, 65, 0
3, 188820, Note_on_c, 0, 59, 101
3, 188820, Note_on_c, 0, 71, 103
3, 188965, Note_on_c, 0, 43, 0
3, 188965, Note_on_c, 0, 31, 0
3, 188983, Note_on_c, 0, 59, 0
3, 188983, Note_on_c, 0, 71, 0
3, 189000, Note_on_c, 0, 57, 102
3, 189000, Note_on_c, 0, 60, 100
3, 189000, Note_on_c, 0, 65, 101
3, 189000, Note_on_c, 0, 69, 101
3, 189000, Note_on_c, 0, 31, 55
3, 189000, Note_on_c, 0, 43, 52
3, 189163, Note_on_c, 0, 69, 0
3, 189163, Note_on_c, 0, 65, 0
3, 189163, Note_on_c, 0, 57, 0
3, 189163, Note_on_c, 0, 60, 0
3, 189180, Note_on_c, 0, 55, 99
3, 189180, Note_on_c, 0, 67, 97
3, 189325, Note_on_c, 0, 43, 0
3, 189325, Note_on_c, 0, 31, 0
3, 189343, Note_on_c, 0, 55, 0
3, 189343, Note_on_c, 0, 67, 0
3, 189360, Note_on_c, 0, 53, 101
3, 189360, Note_on_c, 0, 57, 101
3, 189360, Note_on_c, 0, 60, 100
3, 189360, Note_on_c, 0, 65, 101
3, 189360, Note_on_c, 0, 31, 51
3, 189360, Note_on_c, 0, 43, 51
3, 189523, Note_on_c, 0, 65, 0
3, 189523, Note_on_c, 0, 60, 0
3, 189523, Note_on_c, 0, 53, 0
3, 189523, Note_on_c, 0, 57, 0
3, 189540, Note_on_c, 0, 52, 100
3, 189540, Note_on_c, 0, 64, 101
3, 189685, Note_on_c, 0, 43, 0
3, 189685, Note_on_c, 0, 31, 0
3, 189703, Note_on_c, 0, 52, 0
3, 189703, Note_on_c, 0, 64, 0
3, 189720, Note_on_c, 0, 50, 103
3, 189720, Note_on_c, 0, 53, 103
3, 189720, Note_on_c, 0, 57, 101
3, 189720, Note_on_c, 0, 62, 99
3, 189720, Note_on_c, 0, 31, 5
3, 189720, Note_on_c, 0, 31, 0
3, 189720, Note_on_c, 0, 31, 54
3, 189720, Note_on_c, 0, 43, 54
3, 189883, Note_on_c, 0, 57, 0
3, 189883, Note_on_c, 0, 62, 0
3, 189883, Note_on_c, 0, 50, 0
3, 189883, Note_on_c, 0, 53, 0
3, 189900, Note_on_c, 0, 47, 5
3, 189900, Note_on_c, 0, 47, 0
3, 189900, Note_on_c, 0, 48, 109
3, 189900, Note_on_c, 0, 60, 110
3, 190045, Note_on_c, 0, 43, 0
3, 190045, Note_on_c, 0, 31, 0
3, 190046, Note_on_c, 0, 47, 73
3, 190046, Note_on_c, 0, 59, 72
3, 190063, Note_on_c, 0, 48, 0
3, 190063, Note_on_c, 0, 60, 0
3, 190080, Note_on_c, 0, 59, 0
3, 190080, Note_on_c, 0, 65, 127
3, 190080, Note_on_c, 0, 69, 127
3, 190080, Note_on_c, 0, 59, 98
3, 190080, Note_on_c, 0, 43, 5
3, 190080, Note_on_c, 0, 43, 0
3, 190080, Note_on_c, 0, 53, 100
3, 190080, Note_on_c, 0, 57, 100
3, 190243, Note_on_c, 0, 57, 0
3, 190243, Note_on_c, 0, 65, 0
3, 190243, Note_on_c, 0, 69, 0
3, 190243, Note_on_c, 0, 53, 0
3, 190260, Note_on_c, 0, 65, 105
3, 190260, Note_on_c, 0, 68, 107
3, 190260, Note_on_c, 0, 53, 79
3, 190260, Note_on_c, 0, 56, 80
3, 190423, Note_on_c, 0, 56, 0
3, 190423, Note_on_c, 0, 68, 0
3, 190423, Note_on_c, 0, 65, 0
3, 190423, Note_on_c, 0, 53, 0
3, 190440, Note_on_c, 0, 64, 106
3, 190440, Note_on_c, 0, 67, 104
3, 190440, Note_on_c, 0, 52, 77
3, 190440, Note_on_c, 0, 55, 78
3, 190603, Note_on_c, 0, 55, 0
3, 190603, Note_on_c, 0, 67, 0
3, 190603, Note_on_c, 0, 64, 0
3, 190603, Note_on_c, 0, 52, 0
3, 190620, Note_on_c, 0, 62, 96
3, 190620, Note_on_c, 0, 65, 96
3, 190620, Note_on_c, 0, 50, 71
3, 190620, Note_on_c, 0, 53, 74
3, 190730, Note_on_c, 0, 59, 0
3, 190783, Note_on_c, 0, 62, 0
3, 190783, Note_on_c, 0, 65, 0
3, 190783, Note_on_c, 0, 50, 0
3, 190783, Note_on_c, 0, 53, 0
3, 190800, Note_on_c, 0, 52, 80
3, 190800, Note_on_c, 0, 55, 80
3, 190800, Note_on_c, 0, 60, 79
3, 190800, Note_on_c, 0, 64, 81
3, 190800, Note_on_c, 0, 24, 42
3, 190800, Note_on_c, 0, 36, 41
3, 192565, Note_on_c, 0, 36, 0
3, 192565, Note_on_c, 0, 64, 0
3, 192565, Note_on_c, 0, 52, 0
3, 192565, Note_on_c, 0, 55, 0
3, 192565, Note_on_c, 0, 60, 0
3, 192565, Note_on_c, 0, 24, 0
3, 193140, Note_on_c, 0, 91, 74
3, 193140, Note_on_c, 0, 67, 50
3, 193303, Note_on_c, 0, 67, 0
3, 193303, Note_on_c, 0, 91, 0
3, 193320, Note_on_c, 0, 93, 85
3, 193320, Note_on_c, 0, 69, 60
3, 193483, Note_on_c, 0, 69, 0
3, 193483, Note_on_c, 0, 93, 0
3, 193500, Note_on_c, 0, 95, 87
3, 193500, Note_on_c, 0, 71, 54
3, 193663, Note_on_c, 0, 71, 0
3, 193663, Note_on_c, 0, 95, 0
3, 193680, Note_on_c, 0, 96, 86
3, 193680, Note_on_c, 0, 72, 60
3, 193843, Note_on_c, 0, 72, 0
3, 193843, Note_on_c, 0, 96, 0
3, 193860, Note_on_c, 0, 95, 78
3, 193860, Note_on_c, 0, 71, 49
3, 194023, Note_on_c, 0, 71, 0
3, 194023, Note_on_c, 0, 95, 0
3, 194040, Note_on_c, 0, 96, 89
3, 194040, Note_on_c, 0, 72, 58
3, 194203, Note_on_c, 0, 72, 0
3, 194203, Note_on_c, 0, 96, 0
3, 194220, Note_on_c, 0, 100, 90
3, 194220, Note_on_c, 0, 76, 60
3, 194383, Note_on_c, 0, 76, 0
3, 194383, Note_on_c, 0, 100, 0
3, 194400, Note_on_c, 0, 103, 92
3, 194400, Note_on_c, 0, 79, 61
3, 194563, Note_on_c, 0, 79, 0
3, 194563, Note_on_c, 0, 103, 0
3, 194580, Note_on_c, 0, 91, 60
3, 194580, Note_on_c, 0, 67, 41
3, 194743, Note_on_c, 0, 67, 0
3, 194743, Note_on_c, 0, 91, 0
3, 194760, Note_on_c, 0, 93, 84
3, 194760, Note_on_c, 0, 69, 55
3, 194923, Note_on_c, 0, 69, 0
3, 194923, Note_on_c, 0, 93, 0
3, 194940, Note_on_c, 0, 91, 78
3, 194940, Note_on_c, 0, 67, 50
3, 195103, Note_on_c, 0, 67, 0
3, 195103, Note_on_c, 0, 91, 0
3, 195120, Note_on_c, 0, 93, 89
3, 195120, Note_on_c, 0, 69, 58
3, 195283, Note_on_c, 0, 69, 0
3, 195283, Note_on_c, 0, 93, 0
3, 195300, Note_on_c, 0, 93, 81
3, 195300, Note_on_c, 0, 69, 51
3, 195463, Note_on_c, 0, 69, 0
3, 195463, Note_on_c, 0, 93, 0
3, 195480, Note_on_c, 0, 91, 79
3, 195480, Note_on_c, 0, 67, 55
3, 195643, Note_on_c, 0, 67, 0
3, 195643, Note_on_c, 0, 91, 0
3, 195660, Note_on_c, 0, 93, 83
3, 195660, Note_on_c, 0, 69, 56
3, 195823, Note_on_c, 0, 69, 0
3, 195823, Note_on_c, 0, 93, 0
3, 195840, Note_on_c, 0, 95, 89
3, 195840, Note_on_c, 0, 71, 60
3, 196003, Note_on_c, 0, 71, 0
3, 196003, Note_on_c, 0, 95, 0
3, 196020, Note_on_c, 0, 91, 75
3, 196020, Note_on_c, 0, 67, 50
3, 196183, Note_on_c, 0, 67, 0
3, 196183, Note_on_c, 0, 91, 0
3, 196200, Note_on_c, 0, 93, 88
3, 196200, Note_on_c, 0, 69, 58
3, 196363, Note_on_c, 0, 69, 0
3, 196363, Note_on_c, 0, 93, 0
3, 196380, Note_on_c, 0, 95, 87
3, 196380, Note_on_c, 0, 71, 56
3, 196543, Note_on_c, 0, 71, 0
3, 196543, Note_on_c, 0, 95, 0
3, 196560, Note_on_c, 0, 96, 86
3, 196560, Note_on_c, 0, 72, 56
3, 196885, Note_on_c, 0, 72, 0
3, 196885, Note_on_c, 0, 96, 0
3, 196920, Note_on_c, 0, 96, 84
3, 196920, Note_on_c, 0, 72, 54
3, 197083, Note_on_c, 0, 72, 0
3, 197083, Note_on_c, 0, 96, 0
3, 197100, Note_on_c, 0, 98, 86
3, 197100, Note_on_c, 0, 74, 54
3, 197263, Note_on_c, 0, 74, 0
3, 197263, Note_on_c, 0, 98, 0
3, 197280, Note_on_c, 0, 100, 87
3, 197280, Note_on_c, 0, 76, 56
3, 197605, Note_on_c, 0, 76, 0
3, 197605, Note_on_c, 0, 100, 0
3, 198900, Note_on_c, 0, 84, 72
3, 198900, Note_on_c, 0, 60, 49
3, 199063, Note_on_c, 0, 60, 0
3, 199063, Note_on_c, 0, 84, 0
3, 199080, Note_on_c, 0, 86, 86
3, 199080, Note_on_c, 0, 62, 59
3, 199243, Note_on_c, 0, 62, 0
3, 199243, Note_on_c, 0, 86, 0
3, 199260, Note_on_c, 0, 88, 87
3, 199260, Note_on_c, 0, 64, 56
3, 199423, Note_on_c, 0, 64, 0
3, 199423, Note_on_c, 0, 88, 0
3, 199440, Note_on_c, 0, 89, 87
3, 199440, Note_on_c, 0, 65, 59
3, 199603, Note_on_c, 0, 65, 0
3, 199603, Note_on_c, 0, 89, 0
3, 199620, Note_on_c, 0, 88, 80
3, 199620, Note_on_c, 0, 64, 51
3, 199783, Note_on_c, 0, 64, 0
3, 199783, Note_on_c, 0, 88, 0
3, 199800, Note_on_c, 0, 89, 87
3, 199800, Note_on_c, 0, 65, 57
3, 199963, Note_on_c, 0, 65, 0
3, 199963, Note_on_c, 0, 89, 0
3, 199980, Note_on_c, 0, 92, 89
3, 199980, Note_on_c, 0, 68, 58
3, 200143, Note_on_c, 0, 68, 0
3, 200143, Note_on_c, 0, 92, 0
3, 200160, Note_on_c, 0, 96, 95
3, 200160, Note_on_c, 0, 72, 61
3, 200323, Note_on_c, 0, 72, 0
3, 200323, Note_on_c, 0, 96, 0
3, 200340, Note_on_c, 0, 84, 60
3, 200340, Note_on_c, 0, 60, 42
3, 200503, Note_on_c, 0, 60, 0
3, 200503, Note_on_c, 0, 84, 0
3, 200520, Note_on_c, 0, 84, 80
3, 200520, Note_on_c, 0, 60, 51
3, 200683, Note_on_c, 0, 60, 0
3, 200683, Note_on_c, 0, 84, 0
3, 200700, Note_on_c, 0, 86, 86
3, 200700, Note_on_c, 0, 62, 57
3, 200863, Note_on_c, 0, 62, 0
3, 200863, Note_on_c, 0, 86, 0
3, 200880, Note_on_c, 0, 88, 87
3, 200880, Note_on_c, 0, 64, 57
3, 201043, Note_on_c, 0, 64, 0
3, 201043, Note_on_c, 0, 88, 0
3, 201060, Note_on_c, 0, 84, 72
3, 201060, Note_on_c, 0, 60, 49
3, 201223, Note_on_c, 0, 60, 0
3, 201223, Note_on_c, 0, 84, 0
3, 201240, Note_on_c, 0, 86, 89
3, 201240, Note_on_c, 0, 62, 59
3, 201403, Note_on_c, 0, 62, 0
3, 201403, Note_on_c, 0, 86, 0
3, 201420, Note_on_c, 0, 88, 86
3, 201420, Note_on_c, 0, 64, 57
3, 201583, Note_on_c, 0, 64, 0
3, 201583, Note_on_c, 0, 88, 0
3, 201600, Note_on_c, 0, 89, 86
3, 201600, Note_on_c, 0, 65, 59
3, 201763, Note_on_c, 0, 65, 0
3, 201763, Note_on_c, 0, 89, 0
3, 201780, Note_on_c, 0, 83, 68
3, 201780, Note_on_c, 0, 59, 43
3, 201943, Note_on_c, 0, 59, 0
3, 201943, Note_on_c, 0, 83, 0
3, 201960, Note_on_c, 0, 84, 87
3, 201960, Note_on_c, 0, 60, 57
3, 202123, Note_on_c, 0, 60, 0
3, 202123, Note_on_c, 0, 84, 0
3, 202140, Note_on_c, 0, 86, 84
3, 202140, Note_on_c, 0, 62, 58
3, 202303, Note_on_c, 0, 62, 0
3, 202303, Note_on_c, 0, 86, 0
3, 202320, Note_on_c, 0, 88, 90
3, 202320, Note_on_c, 0, 64, 59
3, 202645, Note_on_c, 0, 64, 0
3, 202645, Note_on_c, 0, 88, 0
3, 202680, Note_on_c, 0, 88, 83
3, 202680, Note_on_c, 0, 64, 54
3, 202843, Note_on_c, 0, 64, 0
3, 202843, Note_on_c, 0, 88, 0
3, 202860, Note_on_c, 0, 89, 85
3, 202860, Note_on_c, 0, 65, 55
3, 203023, Note_on_c, 0, 65, 0
3, 203023, Note_on_c, 0, 89, 0
3, 203040, Note_on_c, 0, 91, 87
3, 203040, Note_on_c, 0, 67, 56
3, 203365, Note_on_c, 0, 67, 0
3, 203365, Note_on_c, 0, 91, 0
3, 204660, Note_on_c, 0, 67, 71
3, 204660, Note_on_c, 0, 55, 48
3, 204823, Note_on_c, 0, 55, 0
3, 204823, Note_on_c, 0, 67, 0
3, 204840, Note_on_c, 0, 69, 86
3, 204840, Note_on_c, 0, 57, 56
3, 205003, Note_on_c, 0, 57, 0
3, 205003, Note_on_c, 0, 69, 0
3, 205020, Note_on_c, 0, 71, 87
3, 205020, Note_on_c, 0, 59, 58
3, 205183, Note_on_c, 0, 59, 0
3, 205183, Note_on_c, 0, 71, 0
3, 205200, Note_on_c, 0, 72, 89
3, 205200, Note_on_c, 0, 60, 59
3, 205525, Note_on_c, 0, 60, 0
3, 205525, Note_on_c, 0, 72, 0
3, 205560, Note_on_c, 0, 72, 86
3, 205560, Note_on_c, 0, 60, 57
3, 205723, Note_on_c, 0, 60, 0
3, 205723, Note_on_c, 0, 72, 0
3, 205740, Note_on_c, 0, 74, 85
3, 205740, Note_on_c, 0, 62, 57
3, 205903, Note_on_c, 0, 62, 0
3, 205903, Note_on_c, 0, 74, 0
3, 205920, Note_on_c, 0, 76, 91
3, 205920, Note_on_c, 0, 64, 60
3, 206640, Note_on_c, 0, 64, 0
3, 206640, Note_on_c, 0, 76, 0
3, 207540, Note_on_c, 0, 64, 72
3, 207540, Note_on_c, 0, 52, 48
3, 207703, Note_on_c, 0, 52, 0
3, 207703, Note_on_c, 0, 64, 0
3, 207720, Note_on_c, 0, 65, 87
3, 207720, Note_on_c, 0, 53, 56
3, 207883, Note_on_c, 0, 53, 0
3, 207883, Note_on_c, 0, 65, 0
3, 207900, Note_on_c, 0, 67, 84
3, 207900, Note_on_c, 0, 55, 57
3, 208063, Note_on_c, 0, 55, 0
3, 208063, Note_on_c, 0, 67, 0
3, 208080, Note_on_c, 0, 69, 88
3, 208080, Note_on_c, 0, 57, 58
3, 208405, Note_on_c, 0, 57, 0
3, 208405, Note_on_c, 0, 69, 0
3, 208440, Note_on_c, 0, 69, 83
3, 208440, Note_on_c, 0, 57, 55
3, 208603, Note_on_c, 0, 57, 0
3, 208603, Note_on_c, 0, 69, 0
3, 208620, Note_on_c, 0, 71, 83
3, 208620, Note_on_c, 0, 59, 56
3, 208783, Note_on_c, 0, 59, 0
3, 208783, Note_on_c, 0, 71, 0
3, 208800, Note_on_c, 0, 72, 93
3, 208800, Note_on_c, 0, 60, 61
3, 209845, Note_on_c, 0, 60, 0
3, 209845, Note_on_c, 0, 72, 0
3, 209880, Note_on_c, 0, 72, 85
3, 209880, Note_on_c, 0, 60, 54
3, 210043, Note_on_c, 0, 60, 0
3, 210043, Note_on_c, 0, 72, 0
3, 210060, Note_on_c, 0, 72, 79
3, 210060, Note_on_c, 0, 60, 52
3, 210223, Note_on_c, 0, 60, 0
3, 210223, Note_on_c, 0, 72, 0
3, 210240, Note_on_c, 0, 72, 82
3, 210240, Note_on_c, 0, 60, 52
3, 211285, Note_on_c, 0, 60, 0
3, 211285, Note_on_c, 0, 72, 0
3, 211320, Note_on_c, 0, 70, 77
3, 211320, Note_on_c, 0, 58, 48
3, 211497, Note_on_c, 0, 58, 0
3, 211497, Note_on_c, 0, 70, 0
3, 211680, Note_on_c, 0, 72, 87
3, 211680, Note_on_c, 0, 60, 54
3, 212725, Note_on_c, 0, 60, 0
3, 212725, Note_on_c, 0, 72, 0
3, 212760, Note_on_c, 0, 68, 78
3, 212760, Note_on_c, 0, 56, 54
3, 213023, Note_on_c, 0, 56, 0
3, 213023, Note_on_c, 0, 68, 0
3, 213120, Note_on_c, 0, 72, 92
3, 213120, Note_on_c, 0, 60, 65
3, 213383, Note_on_c, 0, 60, 0
3, 213383, Note_on_c, 0, 72, 0
3, 213480, Note_on_c, 0, 67, 78
3, 213480, Note_on_c, 0, 55, 51
3, 213743, Note_on_c, 0, 55, 0
3, 213743, Note_on_c, 0, 67, 0
3, 213840, Note_on_c, 0, 60, 98
3, 213840, Note_on_c, 0, 72, 98
3, 214200, Control_c, 0, 64, 127
3, 214200, Note_on_c, 0, 36, 50
3, 214363, Note_on_c, 0, 36, 0
3, 214380, Note_on_c, 0, 36, 52
3, 214543, Note_on_c, 0, 36, 0
3, 214560, Note_on_c, 0, 36, 53
3, 214885, Note_on_c, 0, 36, 0
3, 214920, Note_on_c, 0, 36, 55
3, 215280, Note_on_c, 0, 36, 52
3, 215605, Note_on_c, 0, 36, 0
3, 215605, Note_on_c, 0, 72, 0
3, 215605, Note_on_c, 0, 60, 0
3, 216000, Note_on_c, 0, 50, 76
3, 216000, Note_on_c, 0, 55, 76
3, 216000, Control_c, 0, 64, 0
3, 216000, Note_on_c, 0, 43, 52
3, 216000, Note_on_c, 0, 47, 53
3, 216290, Note_on_c, 0, 36, 0
3, 216360, Note_on_c, 0, 36, 52
3, 216720, Note_on_c, 0, 43, 0
3, 216720, Note_on_c, 0, 47, 0
3, 216720, Note_on_c, 0, 55, 0
3, 216720, Note_on_c, 0, 50, 0
3, 216720, Note_on_c, 0, 52, 93
3, 216720, Note_on_c, 0, 57, 92
3, 216720, Note_on_c, 0, 43, 64
3, 216720, Note_on_c, 0, 48, 65
3, 217045, Note_on_c, 0, 36, 0
3, 217080, Control_c, 0, 64, 127
3, 217080, Note_on_c, 0, 36, 52
3, 217730, Note_on_c, 0, 36, 0
3, 217800, Note_on_c, 0, 36, 54
3, 217963, Note_on_c, 0, 36, 0
3, 217980, Note_on_c, 0, 36, 55
3, 218143, Note_on_c, 0, 36, 0
3, 218160, Note_on_c, 0, 36, 56
3, 218485, Note_on_c, 0, 36, 0
3, 218485, Note_on_c, 0, 52, 0
3, 218485, Note_on_c, 0, 57, 0
3, 218485, Note_on_c, 0, 43, 0
3, 218485, Note_on_c, 0, 48, 0
3, 218520, Note_on_c, 0, 36, 53
3, 218880, Note_on_c, 0, 50, 77
3, 218880, Note_on_c, 0, 55, 80
3, 218880, Control_c, 0, 64, 0
3, 218880, Note_on_c, 0, 43, 52
3, 218880, Note_on_c, 0, 47, 52
3, 219170, Note_on_c, 0, 36, 0
3, 219240, Note_on_c, 0, 36, 55
3, 219600, Note_on_c, 0, 43, 0
3, 219600, Note_on_c, 0, 47, 0
3, 219600, Note_on_c, 0, 55, 0
3, 219600, Note_on_c, 0, 50, 0
3, 219600, Note_on_c, 0, 52, 94
3, 219600, Note_on_c, 0, 57, 92
3, 219600, Note_on_c, 0, 42, 65
3, 219600, Note_on_c, 0, 48, 63
3, 219925, Note_on_c, 0, 36, 0
3, 219960, Note_on_c, 0, 36, 53
3, 220610, Note_on_c, 0, 36, 0
3, 220680, Note_on_c, 0, 36, 54
3, 221005, Note_on_c, 0, 36, 0
3, 221040, Note_on_c, 0, 52, 0
3, 221040, Note_on_c, 0, 57, 0
3, 221040, Note_on_c, 0, 42, 0
3, 221040, Note_on_c, 0, 48, 0
3, 221040, Note_on_c, 0, 50, 83
3, 221040, Note_on_c, 0, 56, 80
3, 221040, Note_on_c, 0, 41, 58
3, 221040, Note_on_c, 0, 48, 56
3, 221040, Note_on_c, 0, 36, 54
3, 221365, Note_on_c, 0, 36, 0
3, 221400, Note_on_c, 0, 36, 55
3, 222050, Note_on_c, 0, 36, 0
3, 222120, Note_on_c, 0, 36, 51
3, 222410, Note_on_c, 0, 48, 0
3, 222410, Note_on_c, 0, 41, 0
3, 222410, Note_on_c, 0, 56, 0
3, 222410, Note_on_c, 0, 50, 0
3, 222480, Note_on_c, 0, 52, 81
3, 222480, Note_on_c, 0, 55, 78
3, 222480, Note_on_c, 0, 43, 56
3, 222480, Note_on_c, 0, 48, 58
3, 222805, Note_on_c, 0, 36, 0
3, 222840, Note_on_c, 0, 36, 52
3, 223130, Note_on_c, 0, 52, 0
3, 223130, Note_on_c, 0, 43, 0
3, 223130, Note_on_c, 0, 55, 0
3, 223130, Note_on_c, 0, 48, 0
3, 223200, Note_on_c, 0, 51, 84
3, 223200, Note_on_c, 0, 56, 84
3, 223200, Note_on_c, 0, 44, 52
3, 223200, Note_on_c, 0, 48, 55
3, 223490, Note_on_c, 0, 36, 0
3, 223560, Note_on_c, 0, 36, 54
3, 223850, Note_on_c, 0, 51, 0
3, 223850, Note_on_c, 0, 44, 0
3, 223850, Note_on_c, 0, 56, 0
3, 223850, Note_on_c, 0, 48, 0
3, 223920, Note_on_c, 0, 50, 79
3, 223920, Note_on_c, 0, 53, 76
3, 223920, Note_on_c, 0, 44, 55
3, 223920, Note_on_c, 0, 48, 55
3, 224245, Note_on_c, 0, 36, 0
3, 224280, Note_on_c, 0, 36, 54
3, 225290, Note_on_c, 0, 50, 0
3, 225290, Note_on_c, 0, 44, 0
3, 225290, Note_on_c, 0, 53, 0
3, 225290, Note_on_c, 0, 48, 0
3, 225360, Note_on_c, 0, 48, 77
3, 225360, Note_on_c, 0, 52, 80
3, 225360, Note_on_c, 0, 36, 62
3, 225360, Note_on_c, 0, 43, 64
3, 225685, Note_on_c, 0, 43, 0
3, 225685, Note_on_c, 0, 36, 0
3, 225685, Note_on_c, 0, 48, 0
3, 225685, Note_on_c, 0, 52, 0
3, 225720, Note_on_c, 0, 48, 76
3, 225720, Note_on_c, 0, 36, 46
3, 225883, Note_on_c, 0, 48, 0
3, 225883, Note_on_c, 0, 36, 0
3, 225900, Note_on_c, 0, 48, 80
3, 225900, Note_on_c, 0, 36, 51
3, 226063, Note_on_c, 0, 48, 0
3, 226063, Note_on_c, 0, 36, 0
3, 226080, Note_on_c, 0, 48, 80
3, 226080, Note_on_c, 0, 36, 52
3, 226405, Note_on_c, 0, 48, 0
3, 226405, Note_on_c, 0, 36, 0
3, 226440, Note_on_c, 0, 48, 80
3, 226440, Note_on_c, 0, 36, 53
3, 226765, Note_on_c, 0, 48, 0
3, 226765, Note_on_c, 0, 36, 0
3, 227160, Note_on_c, 0, 48, 71
3, 227160, Note_on_c, 0, 36, 47
3, 227485, Note_on_c, 0, 48, 0
3, 227485, Note_on_c, 0, 36, 0
3, 227700, Note_on_c, 0, 43, 75
3, 227700, Note_on_c, 0, 31, 46
3, 227863, Note_on_c, 0, 31, 0
3, 227863, Note_on_c, 0, 43, 0
3, 227880, Note_on_c, 0, 45, 87
3, 227880, Note_on_c, 0, 33, 56
3, 228043, Note_on_c, 0, 33, 0
3, 228043, Note_on_c, 0, 45, 0
3, 228060, Note_on_c, 0, 47, 86
3, 228060, Note_on_c, 0, 35, 54
3, 228223, Note_on_c, 0, 35, 0
3, 228223, Note_on_c, 0, 47, 0
3, 228240, Note_on_c, 0, 48, 90
3, 228240, Note_on_c, 0, 36, 58
3, 228565, Note_on_c, 0, 48, 0
3, 228565, Note_on_c, 0, 36, 0
3, 228600, Note_on_c, 0, 48, 86
3, 228600, Control_c, 0, 64, 127
3, 228600, Note_on_c, 0, 36, 55
3, 228763, Note_on_c, 0, 48, 0
3, 228763, Note_on_c, 0, 36, 0
3, 228780, Note_on_c, 0, 48, 82
3, 228780, Note_on_c, 0, 36, 54
3, 228943, Note_on_c, 0, 48, 0
3, 228943, Note_on_c, 0, 36, 0
3, 228960, Note_on_c, 0, 48, 82
3, 228960, Note_on_c, 0, 36, 53
3, 229285, Note_on_c, 0, 48, 0
3, 229285, Note_on_c, 0, 36, 0
3, 229320, Note_on_c, 0, 48, 80
3, 229320, Note_on_c, 0, 36, 52
3, 229645, Note_on_c, 0, 48, 0
3, 229645, Note_on_c, 0, 36, 0
3, 230040, Note_on_c, 0, 48, 72
3, 230040, Note_on_c, 0, 36, 48
3, 230365, Note_on_c, 0, 48, 0
3, 230365, Note_on_c, 0, 36, 0
3, 230400, Control_c, 0, 64, 0
3, 230580, Note_on_c, 0, 43, 75
3, 230580, Note_on_c, 0, 31, 49
3, 230743, Note_on_c, 0, 31, 0
3, 230743, Note_on_c, 0, 43, 0
3, 230760, Note_on_c, 0, 45, 86
3, 230760, Note_on_c, 0, 33, 57
3, 230923, Note_on_c, 0, 33, 0
3, 230923, Note_on_c, 0, 45, 0
3, 230940, Note_on_c, 0, 47, 88
3, 230940, Note_on_c, 0, 35, 56
3, 231103, Note_on_c, 0, 35, 0
3, 231103, Note_on_c, 0, 47, 0
3, 231120, Note_on_c, 0, 48, 86
3, 231120, Note_on_c, 0, 36, 57
3, 231445, Note_on_c, 0, 48, 0
3, 231445, Note_on_c, 0, 36, 0
3, 231480, Note_on_c, 0, 48, 82
3, 231480, Control_c, 0, 64, 127
3, 231480, Note_on_c, 0, 36, 57
3, 231643, Note_on_c, 0, 48, 0
3, 231643, Note_on_c, 0, 36, 0
3, 231660, Note_on_c, 0, 48, 82
3, 231660, Note_on_c, 0, 36, 53
3, 231823, Note_on_c, 0, 48, 0
3, 231823, Note_on_c, 0, 36, 0
3, 231840, Note_on_c, 0, 48, 81
3, 231840, Note_on_c, 0, 36, 52
3, 232165, Note_on_c, 0, 48, 0
3, 232165, Note_on_c, 0, 36, 0
3, 232200, Note_on_c, 0, 48, 80
3, 232200, Note_on_c, 0, 36, 54
3, 232525, Note_on_c, 0, 48, 0
3, 232525, Note_on_c, 0, 36, 0
3, 232920, Note_on_c, 0, 48, 74
3, 232920, Note_on_c, 0, 36, 49
3, 233245, Note_on_c, 0, 48, 0
3, 233245, Note_on_c, 0, 36, 0
3, 233280, Control_c, 0, 64, 0
3, 233460, Note_on_c, 0, 43, 74
3, 233460, Note_on_c, 0, 31, 46
3, 233623, Note_on_c, 0, 31, 0
3, 233623, Note_on_c, 0, 43, 0
3, 233640, Note_on_c, 0, 45, 88
3, 233640, Note_on_c, 0, 33, 56
3, 233803, Note_on_c, 0, 33, 0
3, 233803, Note_on_c, 0, 45, 0
3, 233820, Note_on_c, 0, 47, 84
3, 233820, Note_on_c, 0, 35, 55
3, 233983, Note_on_c, 0, 35, 0
3, 233983, Note_on_c, 0, 47, 0
3, 234000, Note_on_c, 0, 48, 89
3, 234000, Note_on_c, 0, 36, 59
3, 234325, Note_on_c, 0, 48, 0
3, 234325, Note_on_c, 0, 36, 0
3, 234360, Note_on_c, 0, 48, 86
3, 234360, Control_c, 0, 64, 127
3, 234360, Note_on_c, 0, 36, 58
3, 234523, Note_on_c, 0, 48, 0
3, 234523, Note_on_c, 0, 36, 0
3, 234540, Note_on_c, 0, 48, 82
3, 234540, Note_on_c, 0, 36, 52
3, 234703, Note_on_c, 0, 48, 0
3, 234703, Note_on_c, 0, 36, 0
3, 234720, Note_on_c, 0, 48, 82
3, 234720, Note_on_c, 0, 36, 52
3, 235045, Note_on_c, 0, 48, 0
3, 235045, Note_on_c, 0, 36, 0
3, 235080, Note_on_c, 0, 48, 82
3, 235080, Note_on_c, 0, 36, 52
3, 235405, Note_on_c, 0, 48, 0
3, 235405, Note_on_c, 0, 36, 0
3, 235800, Note_on_c, 0, 48, 73
3, 235800, Note_on_c, 0, 36, 47
3, 236125, Note_on_c, 0, 48, 0
3, 236125, Note_on_c, 0, 36, 0
3, 236520, Note_on_c, 0, 48, 71
3, 236520, Note_on_c, 0, 36, 49
3, 236520, Control_c, 0, 64, 0
3, 236845, Note_on_c, 0, 48, 0
3, 236845, Note_on_c, 0, 36, 0
3, 236880, Note_on_c, 0, 52, 104
3, 236880, Note_on_c, 0, 55, 104
3, 236880, Note_on_c, 0, 60, 102
3, 236880, Note_on_c, 0, 64, 103
3, 236880, Note_on_c, 0, 24, 42
3, 236880, Note_on_c, 0, 36, 42
3, 238250, Note_on_c, 0, 24, 0
3, 238250, Note_on_c, 0, 55, 0
3, 238250, Note_on_c, 0, 60, 0
3, 238250, Note_on_c, 0, 36, 0
3, 238250, Note_on_c, 0, 52, 0
3, 238250, Note_on_c, 0, 64, 0
3, 239760, Note_on_c, 0, 74, 75
3, 239760, Note_on_c, 0, 86, 76
3, 239760, Note_on_c, 0, 38, 49
3, 239760, Note_on_c, 0, 50, 51
3, 240085, Note_on_c, 0, 50, 0
3, 240085, Note_on_c, 0, 86, 0
3, 240085, Note_on_c, 0, 74, 0
3, 240085, Note_on_c, 0, 38, 0
3, 241200, Note_on_c, 0, 62, 72
3, 241687, Note_on_c, 0, 62, 0
3, 241740, Note_on_c, 0, 61, 77
3, 241903, Note_on_c, 0, 61, 0
3, 241920, Note_on_c, 0, 62, 85
3, 242097, Note_on_c, 0, 62, 0
3, 242640, Note_on_c, 0, 62, 97
3, 243325, Note_on_c, 0, 62, 0
3, 243360, Note_on_c, 0, 62, 81
3, 243847, Note_on_c, 0, 62, 0
3, 243900, Note_on_c, 0, 61, 78
3, 244063, Note_on_c, 0, 61, 0
3, 244080, Note_on_c, 0, 62, 87
3, 244405, Note_on_c, 0, 62, 0
3, 244440, Note_on_c, 0, 38, 47
3, 244440, Note_on_c, 0, 50, 49
3, 244617, Note_on_c, 0, 50, 0
3, 244617, Note_on_c, 0, 38, 0
3, 244800, Note_on_c, 0, 54, 74
3, 244800, Note_on_c, 0, 60, 74
3, 244800, Note_on_c, 0, 62, 71
3, 244977, Note_on_c, 0, 62, 0
3, 244977, Note_on_c, 0, 54, 0
3, 244977, Note_on_c, 0, 60, 0
3, 245160, Note_on_c, 0, 38, 52
3, 245160, Note_on_c, 0, 50, 52
3, 245337, Note_on_c, 0, 50, 0
3, 245337, Note_on_c, 0, 38, 0
3, 245520, Note_on_c, 0, 55, 72
3, 245520, Note_on_c, 0, 60, 72
3, 245520, Note_on_c, 0, 64, 72
3, 245697, Note_on_c, 0, 64, 0
3, 245697, Note_on_c, 0, 55, 0
3, 245697, Note_on_c, 0, 60, 0
3, 245880, Note_on_c, 0, 38, 47
3, 245880, Note_on_c, 0, 50, 49
3, 246057, Note_on_c, 0, 50, 0
3, 246057, Note_on_c, 0, 38, 0
3, 246240, Note_on_c, 0, 56, 76
3, 246240, Note_on_c, 0, 60, 78
3, 246240, Note_on_c, 0, 65, 74
3, 246417, Note_on_c, 0, 65, 0
3, 246417, Note_on_c, 0, 56, 0
3, 246417, Note_on_c, 0, 60, 0
3, 246600, Note_on_c, 0, 38, 49
3, 246600, Note_on_c, 0, 50, 48
3, 246777, Note_on_c, 0, 50, 0
3, 246777, Note_on_c, 0, 38, 0
3, 246960, Note_on_c, 0, 57, 73
3, 246960, Note_on_c, 0, 60, 71
3, 246960, Note_on_c, 0, 66, 74
3, 247137, Note_on_c, 0, 66, 0
3, 247137, Note_on_c, 0, 57, 0
3, 247137, Note_on_c, 0, 60, 0
3, 247320, Note_on_c, 0, 38, 49
3, 247320, Note_on_c, 0, 50, 49
3, 247497, Note_on_c, 0, 50, 0
3, 247497, Note_on_c, 0, 38, 0
3, 247680, Note_on_c, 0, 60, 72
3, 247680, Note_on_c, 0, 62, 71
3, 247680, Note_on_c, 0, 66, 73
3, 247857, Note_on_c, 0, 66, 0
3, 247857, Note_on_c, 0, 60, 0
3, 247857, Note_on_c, 0, 62, 0
3, 248040, Note_on_c, 0, 38, 46
3, 248040, Note_on_c, 0, 50, 46
3, 248217, Note_on_c, 0, 50, 0
3, 248217, Note_on_c, 0, 38, 0
3, 248400, Note_on_c, 0, 67, 76
3, 248400, Note_on_c, 0, 31, 44
3, 248400, Note_on_c, 0, 43, 47
3, 248563, Note_on_c, 0, 67, 0
3, 248577, Note_on_c, 0, 31, 0
3, 248577, Note_on_c, 0, 43, 0
3, 248580, Note_on_c, 0, 60, 66
3, 248743, Note_on_c, 0, 60, 0
3, 248760, Note_on_c, 0, 59, 76
3, 248923, Note_on_c, 0, 59, 0
3, 248940, Note_on_c, 0, 66, 96
3, 249103, Note_on_c, 0, 66, 0
3, 249120, Note_on_c, 0, 67, 90
3, 249283, Note_on_c, 0, 67, 0
3, 249300, Note_on_c, 0, 63, 75
3, 249463, Note_on_c, 0, 63, 0
3, 249480, Note_on_c, 0, 64, 87
3, 249480, Note_on_c, 0, 37, 53
3, 249480, Note_on_c, 0, 49, 50
3, 249643, Note_on_c, 0, 64, 0
3, 249657, Note_on_c, 0, 37, 0
3, 249657, Note_on_c, 0, 49, 0
3, 249660, Note_on_c, 0, 66, 85
3, 249823, Note_on_c, 0, 66, 0
3, 249840, Note_on_c, 0, 67, 89
3, 250003, Note_on_c, 0, 67, 0
3, 250020, Note_on_c, 0, 66, 78
3, 250183, Note_on_c, 0, 66, 0
3, 250200, Note_on_c, 0, 64, 78
3, 250363, Note_on_c, 0, 64, 0
3, 250380, Note_on_c, 0, 66, 85
3, 250543, Note_on_c, 0, 66, 0
3, 250560, Note_on_c, 0, 67, 87
3, 250560, Note_on_c, 0, 38, 50
3, 250560, Note_on_c, 0, 50, 49
3, 250723, Note_on_c, 0, 67, 0
3, 250737, Note_on_c, 0, 38, 0
3, 250737, Note_on_c, 0, 50, 0
3, 250740, Note_on_c, 0, 59, 65
3, 250903, Note_on_c, 0, 59, 0
3, 250920, Note_on_c, 0, 64, 92
3, 251083, Note_on_c, 0, 64, 0
3, 251100, Note_on_c, 0, 66, 86
3, 251263, Note_on_c, 0, 66, 0
3, 251280, Note_on_c, 0, 67, 87
3, 251443, Note_on_c, 0, 67, 0
3, 251460, Note_on_c, 0, 60, 67
3, 251623, Note_on_c, 0, 60, 0
3, 251640, Note_on_c, 0, 59, 79
3, 251640, Note_on_c, 0, 39, 49
3, 251640, Note_on_c, 0, 51, 53
3, 251803, Note_on_c, 0, 59, 0
3, 251817, Note_on_c, 0, 39, 0
3, 251817, Note_on_c, 0, 51, 0
3, 251820, Note_on_c, 0, 67, 95
3, 251983, Note_on_c, 0, 67, 0
3, 252000, Note_on_c, 0, 71, 94
3, 252163, Note_on_c, 0, 71, 0
3, 252180, Note_on_c, 0, 67, 72
3, 252343, Note_on_c, 0, 67, 0
3, 252360, Note_on_c, 0, 59, 66
3, 252523, Note_on_c, 0, 59, 0
3, 252540, Note_on_c, 0, 69, 93
3, 252703, Note_on_c, 0, 69, 0
3, 252720, Note_on_c, 0, 67, 82
3, 252720, Note_on_c, 0, 40, 53
3, 252720, Note_on_c, 0, 52, 49
3, 252883, Note_on_c, 0, 67, 0
3, 252897, Note_on_c, 0, 40, 0
3, 252897, Note_on_c, 0, 52, 0
3, 252900, Note_on_c, 0, 64, 75
3, 253063, Note_on_c, 0, 64, 0
3, 253080, Note_on_c, 0, 66, 87
3, 253243, Note_on_c, 0, 66, 0
3, 253260, Note_on_c, 0, 64, 77
3, 253423, Note_on_c, 0, 64, 0
3, 253440, Note_on_c, 0, 67, 88
3, 253603, Note_on_c, 0, 67, 0
3, 253620, Note_on_c, 0, 62, 69
3, 253783, Note_on_c, 0, 62, 0
3, 253800, Note_on_c, 0, 64, 85
3, 253800, Note_on_c, 0, 35, 53
3, 253800, Note_on_c, 0, 47, 50
3, 253963, Note_on_c, 0, 64, 0
3, 253977, Note_on_c, 0, 35, 0
3, 253977, Note_on_c, 0, 47, 0
3, 253980, Note_on_c, 0, 62, 75
3, 254143, Note_on_c, 0, 62, 0
3, 254160, Note_on_c, 0, 67, 93
3, 254323, Note_on_c, 0, 67, 0
3, 254340, Note_on_c, 0, 60, 69
3, 254503, Note_on_c, 0, 60, 0
3, 254520, Note_on_c, 0, 59, 79
3, 254683, Note_on_c, 0, 59, 0
3, 254700, Note_on_c, 0, 66, 92
3, 254863, Note_on_c, 0, 66, 0
3, 254880, Note_on_c, 0, 67, 87
3, 254880, Note_on_c, 0, 36, 52
3, 254880, Note_on_c, 0, 48, 52
3, 255043, Note_on_c, 0, 67, 0
3, 255057, Note_on_c, 0, 48, 0
3, 255057, Note_on_c, 0, 36, 0
3, 255060, Note_on_c, 0, 64, 74
3, 255223, Note_on_c, 0, 64, 0
3, 255240, Note_on_c, 0, 66, 89
3, 255403, Note_on_c, 0, 66, 0
3, 255420, Note_on_c, 0, 64, 77
3, 255583, Note_on_c, 0, 64, 0
3, 255600, Note_on_c, 0, 67, 89
3, 255763, Note_on_c, 0, 67, 0
3, 255780, Note_on_c, 0, 66, 78
3, 255943, Note_on_c, 0, 66, 0
3, 255960, Note_on_c, 0, 67, 88
3, 255960, Note_on_c, 0, 37, 50
3, 255960, Note_on_c, 0, 49, 50
3, 256123, Note_on_c, 0, 67, 0
3, 256137, Note_on_c, 0, 37, 0
3, 256137, Note_on_c, 0, 49, 0
3, 256140, Note_on_c, 0, 71, 88
3, 256303, Note_on_c, 0, 71, 0
3, 256320, Note_on_c, 0, 79, 100
3, 256483, Note_on_c, 0, 79, 0
3, 256500, Note_on_c, 0, 71, 70
3, 256663, Note_on_c, 0, 71, 0
3, 256680, Note_on_c, 0, 67, 73
3, 256843, Note_on_c, 0, 67, 0
3, 256860, Note_on_c, 0, 78, 99
3, 257023, Note_on_c, 0, 78, 0
3, 257040, Note_on_c, 0, 71, 103
3, 257040, Note_on_c, 0, 79, 103
3, 257040, Note_on_c, 0, 38, 49
3, 257040, Note_on_c, 0, 50, 52
3, 257217, Note_on_c, 0, 50, 0
3, 257217, Note_on_c, 0, 79, 0
3, 257217, Note_on_c, 0, 71, 0
3, 257217, Note_on_c, 0, 38, 0
3, 257400, Note_on_c, 0, 72, 73
3, 257400, Note_on_c, 0, 59, 63
3, 257400, Note_on_c, 0, 64, 64
3, 257400, Note_on_c, 0, 67, 64
3, 257563, Note_on_c, 0, 72, 0
3, 257577, Note_on_c, 0, 64, 0
3, 257577, Note_on_c, 0, 59, 0
3, 257577, Note_on_c, 0, 67, 0
3, 257580, Note_on_c, 0, 71, 77
3, 257743, Note_on_c, 0, 71, 0
3, 257760, Note_on_c, 0, 78, 85
3, 257760, Note_on_c, 0, 78, 99
3, 257760, Note_on_c, 0, 59, 54
3, 257760, Note_on_c, 0, 62, 55
3, 257760, Note_on_c, 0, 66, 53
3, 257923, Note_on_c, 0, 78, 0
3, 257937, Note_on_c, 0, 62, 0
3, 257937, Note_on_c, 0, 59, 0
3, 257937, Note_on_c, 0, 66, 0
3, 257940, Note_on_c, 0, 74, 74
3, 258085, Note_on_c, 0, 78, 0
3, 258103, Note_on_c, 0, 74, 0
3, 258120, Note_on_c, 0, 72, 76
3, 258283, Note_on_c, 0, 72, 0
3, 258300, Note_on_c, 0, 71, 75
3, 258463, Note_on_c, 0, 71, 0
3, 258480, Note_on_c, 0, 76, 76
3, 258480, Note_on_c, 0, 76, 92
3, 258480, Note_on_c, 0, 55, 46
3, 258480, Note_on_c, 0, 60, 48
3, 258480, Note_on_c, 0, 64, 46
3, 258643, Note_on_c, 0, 76, 0
3, 258657, Note_on_c, 0, 60, 0
3, 258657, Note_on_c, 0, 55, 0
3, 258657, Note_on_c, 0, 64, 0
3, 258660, Note_on_c, 0, 72, 73
3, 258805, Note_on_c, 0, 76, 0
3, 258823, Note_on_c, 0, 72, 0
3, 258840, Note_on_c, 0, 71, 81
3, 258840, Note_on_c, 0, 55, 48
3, 258840, Note_on_c, 0, 59, 47
3, 258840, Note_on_c, 0, 62, 51
3, 259003, Note_on_c, 0, 71, 0
3, 259017, Note_on_c, 0, 59, 0
3, 259017, Note_on_c, 0, 55, 0
3, 259017, Note_on_c, 0, 62, 0
3, 259020, Note_on_c, 0, 67, 73
3, 259183, Note_on_c, 0, 67, 0
3, 259200, Note_on_c, 0, 74, 79
3, 259200, Note_on_c, 0, 74, 98
3, 259363, Note_on_c, 0, 74, 0
3, 259380, Note_on_c, 0, 71, 77
3, 259525, Note_on_c, 0, 74, 0
3, 259543, Note_on_c, 0, 71, 0
3, 259560, Note_on_c, 0, 67, 77
3, 259560, Note_on_c, 0, 55, 47
3, 259560, Note_on_c, 0, 59, 49
3, 259560, Note_on_c, 0, 62, 50
3, 259723, Note_on_c, 0, 67, 0
3, 259737, Note_on_c, 0, 59, 0
3, 259737, Note_on_c, 0, 55, 0
3, 259737, Note_on_c, 0, 62, 0
3, 259740, Note_on_c, 0, 64, 75
3, 259903, Note_on_c, 0, 64, 0
3, 259920, Note_on_c, 0, 72, 74
3, 259920, Note_on_c, 0, 72, 98
3, 259920, Note_on_c, 0, 55, 50
3, 259920, Note_on_c, 0, 60, 48
3, 260083, Note_on_c, 0, 72, 0
3, 260097, Note_on_c, 0, 55, 0
3, 260097, Note_on_c, 0, 60, 0
3, 260100, Note_on_c, 0, 69, 77
3, 260245, Note_on_c, 0, 72, 0
3, 260263, Note_on_c, 0, 69, 0
3, 260280, Note_on_c, 0, 67, 79
3, 260280, Note_on_c, 0, 40, 46
3, 260280, Note_on_c, 0, 52, 48
3, 260443, Note_on_c, 0, 67, 0
3, 260457, Note_on_c, 0, 40, 0
3, 260457, Note_on_c, 0, 52, 0
3, 260460, Note_on_c, 0, 64, 74
3, 260623, Note_on_c, 0, 64, 0
3, 260640, Note_on_c, 0, 71, 78
3, 260640, Note_on_c, 0, 71, 97
3, 260640, Note_on_c, 0, 55, 58
3, 260640, Note_on_c, 0, 59, 60
3, 260803, Note_on_c, 0, 71, 0
3, 260817, Note_on_c, 0, 55, 0
3, 260817, Note_on_c, 0, 59, 0
3, 260820, Note_on_c, 0, 67, 75
3, 260965, Note_on_c, 0, 71, 0
3, 260983, Note_on_c, 0, 67, 0
3, 261000, Note_on_c, 0, 66, 81
3, 261000, Note_on_c, 0, 52, 47
3, 261000, Note_on_c, 0, 55, 47
3, 261163, Note_on_c, 0, 66, 0
3, 261177, Note_on_c, 0, 52, 0
3, 261177, Note_on_c, 0, 55, 0
3, 261180, Note_on_c, 0, 64, 76
3, 261343, Note_on_c, 0, 64, 0
3, 261360, Note_on_c, 0, 71, 82
3, 261360, Note_on_c, 0, 71, 96
3, 261360, Note_on_c, 0, 33, 43
3, 261360, Note_on_c, 0, 45, 46
3, 261523, Note_on_c, 0, 71, 0
3, 261537, Note_on_c, 0, 33, 0
3, 261537, Note_on_c, 0, 45, 0
3, 261540, Note_on_c, 0, 67, 77
3, 261685, Note_on_c, 0, 71, 0
3, 261703, Note_on_c, 0, 67, 0
3, 261720, Note_on_c, 0, 66, 81
3, 261720, Note_on_c, 0, 52, 62
3, 261720, Note_on_c, 0, 59, 64
3, 261720, Note_on_c, 0, 62, 63
3, 261883, Note_on_c, 0, 66, 0
3, 261897, Note_on_c, 0, 59, 0
3, 261897, Note_on_c, 0, 52, 0
3, 261897, Note_on_c, 0, 62, 0
3, 261900, Note_on_c, 0, 64, 74
3, 262063, Note_on_c, 0, 64, 0
3, 262080, Note_on_c, 0, 69, 75
3, 262080, Note_on_c, 0, 69, 92
3, 262080, Note_on_c, 0, 52, 49
3, 262080, Note_on_c, 0, 57, 52
3, 262080, Note_on_c, 0, 60, 51
3, 262243, Note_on_c, 0, 69, 0
3, 262257, Note_on_c, 0, 57, 0
3, 262257, Note_on_c, 0, 52, 0
3, 262257, Note_on_c, 0, 60, 0
3, 262260, Note_on_c, 0, 66, 77
3, 262405, Note_on_c, 0, 69, 0
3, 262423, Note_on_c, 0, 66, 0
3, 262440, Note_on_c, 0, 64, 76
3, 262603, Note_on_c, 0, 64, 0
3, 262620, Note_on_c, 0, 60, 70
3, 262783, Note_on_c, 0, 60, 0
3, 262800, Note_on_c, 0, 67, 76
3, 262800, Note_on_c, 0, 67, 96
3, 262800, Note_on_c, 0, 52, 49
3, 262800, Note_on_c, 0, 55, 46
3, 262800, Note_on_c, 0, 59, 48
3, 262963, Note_on_c, 0, 67, 0
3, 262977, Note_on_c, 0, 55, 0
3, 262977, Note_on_c, 0, 52, 0
3, 262977, Note_on_c, 0, 59, 0
3, 262980, Note_on_c, 0, 64, 77
3, 263125, Note_on_c, 0, 67, 0
3, 263143, Note_on_c, 0, 64, 0
3, 263160, Note_on_c, 0, 62, 77
3, 263160, Note_on_c, 0, 52, 45
3, 263160, Note_on_c, 0, 55, 47
3, 263323, Note_on_c, 0, 62, 0
3, 263337, Note_on_c, 0, 52, 0
3, 263337, Note_on_c, 0, 55, 0
3, 263340, Note_on_c, 0, 60, 73
3, 263503, Note_on_c, 0, 60, 0
3, 263520, Note_on_c, 0, 67, 82
3, 263520, Note_on_c, 0, 67, 95
3, 263520, Note_on_c, 0, 38, 50
3, 263520, Note_on_c, 0, 50, 50
3, 263683, Note_on_c, 0, 67, 0
3, 263697, Note_on_c, 0, 38, 0
3, 263697, Note_on_c, 0, 50, 0
3, 263700, Note_on_c, 0, 64, 75
3, 263845, Note_on_c, 0, 67, 0
3, 263863, Note_on_c, 0, 64, 0
3, 263880, Note_on_c, 0, 62, 77
3, 263880, Note_on_c, 0, 55, 64
3, 263880, Note_on_c, 0, 59, 61
3, 264043, Note_on_c, 0, 62, 0
3, 264057, Note_on_c, 0, 55, 0
3, 264057, Note_on_c, 0, 59, 0
3, 264060, Note_on_c, 0, 60, 75
3, 264223, Note_on_c, 0, 60, 0
3, 264240, Note_on_c, 0, 64, 73
3, 264240, Note_on_c, 0, 64, 90
3, 264240, Note_on_c, 0, 55, 53
3, 264240, Note_on_c, 0, 57, 51
3, 264403, Note_on_c, 0, 64, 0
3, 264417, Note_on_c, 0, 55, 0
3, 264417, Note_on_c, 0, 57, 0
3, 264420, Note_on_c, 0, 60, 71
3, 264565, Note_on_c, 0, 64, 0
3, 264583, Note_on_c, 0, 60, 0
3, 264600, Note_on_c, 0, 59, 78
3, 264600, Note_on_c, 0, 50, 45
3, 264763, Note_on_c, 0, 59, 0
3, 264777, Note_on_c, 0, 50, 0
3, 264780, Note_on_c, 0, 57, 76
3, 264943, Note_on_c, 0, 57, 0
3, 264960, Note_on_c, 0, 66, 82
3, 264960, Note_on_c, 0, 66, 102
3, 264960, Note_on_c, 0, 60, 61
3, 265123, Note_on_c, 0, 66, 0
3, 265137, Note_on_c, 0, 60, 0
3, 265140, Note_on_c, 0, 62, 76
3, 265285, Note_on_c, 0, 66, 0
3, 265303, Note_on_c, 0, 62, 0
3, 265320, Note_on_c, 0, 61, 80
3, 265320, Note_on_c, 0, 50, 49
3, 265320, Note_on_c, 0, 57, 50
3, 265483, Note_on_c, 0, 61, 0
3, 265497, Note_on_c, 0, 50, 0
3, 265497, Note_on_c, 0, 57, 0
3, 265500, Note_on_c, 0, 60, 77
3, 265663, Note_on_c, 0, 60, 0
3, 265680, Note_on_c, 0, 67, 88
3, 265680, Note_on_c, 0, 31, 42
3, 265680, Note_on_c, 0, 43, 43
3, 265843, Note_on_c, 0, 67, 0
3, 265857, Note_on_c, 0, 31, 0
3, 265857, Note_on_c, 0, 43, 0
3, 265860, Note_on_c, 0, 64, 74
3, 266023, Note_on_c, 0, 64, 0
3, 266040, Note_on_c, 0, 66, 90
3, 266203, Note_on_c, 0, 66, 0
3, 266220, Note_on_c, 0, 64, 77
3, 266383, Note_on_c, 0, 64, 0
3, 266400, Note_on_c, 0, 67, 87
3, 266563, Note_on_c, 0, 67, 0
3, 266580, Note_on_c, 0, 62, 72
3, 266743, Note_on_c, 0, 62, 0
3, 266760, Note_on_c, 0, 64, 86
3, 266760, Note_on_c, 0, 35, 52
3, 266760, Note_on_c, 0, 47, 50
3, 266923, Note_on_c, 0, 64, 0
3, 266937, Note_on_c, 0, 35, 0
3, 266937, Note_on_c, 0, 47, 0
3, 266940, Note_on_c, 0, 62, 75
3, 267103, Note_on_c, 0, 62, 0
3, 267120, Note_on_c, 0, 67, 93
3, 267283, Note_on_c, 0, 67, 0
3, 267300, Note_on_c, 0, 62, 73
3, 267463, Note_on_c, 0, 62, 0
3, 267480, Note_on_c, 0, 64, 87
3, 267643, Note_on_c, 0, 64, 0
3, 267660, Note_on_c, 0, 65, 84
3, 267823, Note_on_c, 0, 65, 0
3, 267840, Note_on_c, 0, 67, 91
3, 267840, Note_on_c, 0, 36, 52
3, 267840, Note_on_c, 0, 48, 51
3, 268003, Note_on_c, 0, 67, 0
3, 268017, Note_on_c, 0, 48, 0
3, 268017, Note_on_c, 0, 36, 0
3, 268020, Note_on_c, 0, 64, 76
3, 268183, Note_on_c, 0, 64, 0
3, 268200, Note_on_c, 0, 60, 74
3, 268363, Note_on_c, 0, 60, 0
3, 268380, Note_on_c, 0, 64, 90
3, 268543, Note_on_c, 0, 64, 0
3, 268560, Note_on_c, 0, 67, 91
3, 268723, Note_on_c, 0, 67, 0
3, 268740, Note_on_c, 0, 63, 72
3, 268903, Note_on_c, 0, 63, 0
3, 268920, Note_on_c, 0, 64, 85
3, 268920, Note_on_c, 0, 37, 49
3, 268920, Note_on_c, 0, 49, 51
3, 269083, Note_on_c, 0, 64, 0
3, 269097, Note_on_c, 0, 37, 0
3, 269097, Note_on_c, 0, 49, 0
3, 269100, Note_on_c, 0, 67, 89
3, 269263, Note_on_c, 0, 67, 0
3, 269280, Note_on_c, 0, 71, 92
3, 269443, Note_on_c, 0, 71, 0
3, 269460, Note_on_c, 0, 67, 75
3, 269623, Note_on_c, 0, 67, 0
3, 269640, Note_on_c, 0, 59, 68
3, 269803, Note_on_c, 0, 59, 0
3, 269820, Note_on_c, 0, 66, 92
3, 269983, Note_on_c, 0, 66, 0
3, 270000, Note_on_c, 0, 67, 89
3, 270000, Note_on_c, 0, 38, 51
3, 270000, Note_on_c, 0, 50, 51
3, 270163, Note_on_c, 0, 67, 0
3, 270177, Note_on_c, 0, 38, 0
3, 270177, Note_on_c, 0, 50, 0
3, 270180, Note_on_c, 0, 60, 69
3, 270343, Note_on_c, 0, 60, 0
3, 270360, Note_on_c, 0, 59, 77
3, 270523, Note_on_c, 0, 59, 0
3, 270540, Note_on_c, 0, 66, 93
3, 270703, Note_on_c, 0, 66, 0
3, 270720, Note_on_c, 0, 67, 89
3, 270883, Note_on_c, 0, 67, 0
3, 270900, Note_on_c, 0, 63, 75
3, 271063, Note_on_c, 0, 63, 0
3, 271080, Note_on_c, 0, 64, 85
3, 271080, Note_on_c, 0, 37, 52
3, 271080, Note_on_c, 0, 49, 49
3, 271243, Note_on_c, 0, 64, 0
3, 271257, Note_on_c, 0, 37, 0
3, 271257, Note_on_c, 0, 49, 0
3, 271260, Note_on_c, 0, 66, 84
3, 271423, Note_on_c, 0, 66, 0
3, 271440, Note_on_c, 0, 67, 87
3, 271603, Note_on_c, 0, 67, 0
3, 271620, Note_on_c, 0, 66, 80
3, 271783, Note_on_c, 0, 66, 0
3, 271800, Note_on_c, 0, 64, 81
3, 271963, Note_on_c, 0, 64, 0
3, 271980, Note_on_c, 0, 66, 86
3, 272143, Note_on_c, 0, 66, 0
3, 272160, Note_on_c, 0, 67, 86
3, 272160, Note_on_c, 0, 38, 50
3, 272160, Note_on_c, 0, 50, 52
3, 272323, Note_on_c, 0, 67, 0
3, 272337, Note_on_c, 0, 38, 0
3, 272337, Note_on_c, 0, 50, 0
3, 272340, Note_on_c, 0, 59, 66
3, 272503, Note_on_c, 0, 59, 0
3, 272520, Note_on_c, 0, 64, 92
3, 272683, Note_on_c, 0, 64, 0
3, 272700, Note_on_c, 0, 66, 84
3, 272863, Note_on_c, 0, 66, 0
3, 272880, Note_on_c, 0, 67, 89
3, 273043, Note_on_c, 0, 67, 0
3, 273060, Note_on_c, 0, 66, 79
3, 273223, Note_on_c, 0, 66, 0
3, 273240, Note_on_c, 0, 67, 86
3, 273240, Note_on_c, 0, 39, 52
3, 273240, Note_on_c, 0, 51, 51
3, 273403, Note_on_c, 0, 67, 0
3, 273417, Note_on_c, 0, 39, 0
3, 273417, Note_on_c, 0, 51, 0
3, 273420, Note_on_c, 0, 71, 90
3, 273583, Note_on_c, 0, 71, 0
3, 273600, Note_on_c, 0, 79, 100
3, 273763, Note_on_c, 0, 79, 0
3, 273780, Note_on_c, 0, 71, 68
3, 273943, Note_on_c, 0, 71, 0
3, 273960, Note_on_c, 0, 67, 72
3, 274123, Note_on_c, 0, 67, 0
3, 274140, Note_on_c, 0, 78, 97
3, 274303, Note_on_c, 0, 78, 0
3, 274320, Note_on_c, 0, 71, 103
3, 274320, Note_on_c, 0, 79, 103
3, 274320, Note_on_c, 0, 40, 51
3, 274320, Note_on_c, 0, 52, 52
3, 274497, Note_on_c, 0, 52, 0
3, 274497, Note_on_c, 0, 79, 0
3, 274497, Note_on_c, 0, 71, 0
3, 274497, Note_on_c, 0, 40, 0
3, 274680, Note_on_c, 0, 73, 75
3, 274680, Note_on_c, 0, 59, 63
3, 274680, Note_on_c, 0, 61, 64
3, 274680, Note_on_c, 0, 67, 63
3, 274843, Note_on_c, 0, 73, 0
3, 274857, Note_on_c, 0, 61, 0
3, 274857, Note_on_c, 0, 59, 0
3, 274857, Note_on_c, 0, 67, 0
3, 274860, Note_on_c, 0, 67, 66
3, 275023, Note_on_c, 0, 67, 0
3, 275040, Note_on_c, 0, 78, 85
3, 275040, Note_on_c, 0, 78, 100
3, 275040, Note_on_c, 0, 59, 53
3, 275040, Note_on_c, 0, 61, 53
3, 275040, Note_on_c, 0, 66, 52
3, 275203, Note_on_c, 0, 78, 0
3, 275217, Note_on_c, 0, 61, 0
3, 275217, Note_on_c, 0, 59, 0
3, 275217, Note_on_c, 0, 66, 0
3, 275220, Note_on_c, 0, 74, 77
3, 275365, Note_on_c, 0, 78, 0
3, 275383, Note_on_c, 0, 74, 0
3, 275400, Note_on_c, 0, 73, 79
3, 275563, Note_on_c, 0, 73, 0
3, 275580, Note_on_c, 0, 67, 68
3, 275743, Note_on_c, 0, 67, 0
3, 275760, Note_on_c, 0, 76, 76
3, 275760, Note_on_c, 0, 76, 96
3, 275760, Note_on_c, 0, 55, 48
3, 275760, Note_on_c, 0, 59, 50
3, 275760, Note_on_c, 0, 64, 49
3, 275923, Note_on_c, 0, 76, 0
3, 275937, Note_on_c, 0, 59, 0
3, 275937, Note_on_c, 0, 55, 0
3, 275937, Note_on_c, 0, 64, 0
3, 275940, Note_on_c, 0, 73, 76
3, 276085, Note_on_c, 0, 76, 0
3, 276103, Note_on_c, 0, 73, 0
3, 276120, Note_on_c, 0, 71, 78
3, 276120, Note_on_c, 0, 55, 50
3, 276120, Note_on_c, 0, 59, 49
3, 276120, Note_on_c, 0, 62, 48
3, 276283, Note_on_c, 0, 71, 0
3, 276297, Note_on_c, 0, 59, 0
3, 276297, Note_on_c, 0, 55, 0
3, 276297, Note_on_c, 0, 62, 0
3, 276300, Note_on_c, 0, 67, 70
3, 276463, Note_on_c, 0, 67, 0
3, 276480, Note_on_c, 0, 74, 77
3, 276480, Note_on_c, 0, 74, 98
3, 276480, Note_on_c, 0, 40, 43
3, 276480, Note_on_c, 0, 52, 45
3, 276643, Note_on_c, 0, 74, 0
3, 276657, Note_on_c, 0, 40, 0
3, 276657, Note_on_c, 0, 52, 0
3, 276660, Note_on_c, 0, 71, 76
3, 276805, Note_on_c, 0, 74, 0
3, 276823, Note_on_c, 0, 71, 0
3, 276840, Note_on_c, 0, 69, 79
3, 276840, Note_on_c, 0, 55, 64
3, 276840, Note_on_c, 0, 62, 66
3, 276840, Note_on_c, 0, 66, 64
3, 277003, Note_on_c, 0, 69, 0
3, 277017, Note_on_c, 0, 62, 0
3, 277017, Note_on_c, 0, 55, 0
3, 277017, Note_on_c, 0, 66, 0
3, 277020, Note_on_c, 0, 67, 76
3, 277183, Note_on_c, 0, 67, 0
3, 277200, Note_on_c, 0, 72, 74
3, 277200, Note_on_c, 0, 73, 96
3, 277200, Note_on_c, 0, 55, 52
3, 277200, Note_on_c, 0, 61, 51
3, 277200, Note_on_c, 0, 64, 49
3, 277363, Note_on_c, 0, 73, 0
3, 277377, Note_on_c, 0, 61, 0
3, 277377, Note_on_c, 0, 55, 0
3, 277377, Note_on_c, 0, 64, 0
3, 277380, Note_on_c, 0, 71, 77
3, 277525, Note_on_c, 0, 72, 0
3, 277543, Note_on_c, 0, 71, 0
3, 277560, Note_on_c, 0, 69, 78
3, 277723, Note_on_c, 0, 69, 0
3, 277740, Note_on_c, 0, 67, 77
3, 277903, Note_on_c, 0, 67, 0
3, 277920, Note_on_c, 0, 71, 75
3, 277920, Note_on_c, 0, 71, 91
3, 277920, Note_on_c, 0, 55, 46
3, 277920, Note_on_c, 0, 59, 48
3, 277920, Note_on_c, 0, 62, 47
3, 278083, Note_on_c, 0, 71, 0
3, 278097, Note_on_c, 0, 59, 0
3, 278097, Note_on_c, 0, 55, 0
3, 278097, Note_on_c, 0, 62, 0
3, 278100, Note_on_c, 0, 67, 73
3, 278245, Note_on_c, 0, 71, 0
3, 278263, Note_on_c, 0, 67, 0
3, 278280, Note_on_c, 0, 66, 80
3, 278280, Note_on_c, 0, 55, 49
3, 278280, Note_on_c, 0, 59, 50
3, 278443, Note_on_c, 0, 66, 0
3, 278457, Note_on_c, 0, 55, 0
3, 278457, Note_on_c, 0, 59, 0
3, 278460, Note_on_c, 0, 64, 77
3, 278623, Note_on_c, 0, 64, 0
3, 278640, Note_on_c, 0, 76, 94
3, 278640, Note_on_c, 0, 76, 103
3, 278640, Note_on_c, 0, 42, 50
3, 278640, Note_on_c, 0, 54, 49
3, 278803, Note_on_c, 0, 76, 0
3, 278817, Note_on_c, 0, 42, 0
3, 278817, Note_on_c, 0, 54, 0
3, 278820, Note_on_c, 0, 73, 77
3, 278965, Note_on_c, 0, 76, 0
3, 278983, Note_on_c, 0, 73, 0
3, 279000, Note_on_c, 0, 71, 79
3, 279000, Note_on_c, 0, 59, 62
3, 279000, Note_on_c, 0, 64, 64
3, 279163, Note_on_c, 0, 71, 0
3, 279177, Note_on_c, 0, 59, 0
3, 279177, Note_on_c, 0, 64, 0
3, 279180, Note_on_c, 0, 67, 73
3, 279343, Note_on_c, 0, 67, 0
3, 279360, Note_on_c, 0, 74, 78
3, 279360, Note_on_c, 0, 74, 94
3, 279360, Note_on_c, 0, 58, 54
3, 279360, Note_on_c, 0, 64, 55
3, 279523, Note_on_c, 0, 74, 0
3, 279537, Note_on_c, 0, 58, 0
3, 279537, Note_on_c, 0, 64, 0
3, 279540, Note_on_c, 0, 70, 75
3, 279685, Note_on_c, 0, 74, 0
3, 279703, Note_on_c, 0, 70, 0
3, 279720, Note_on_c, 0, 67, 75
3, 279883, Note_on_c, 0, 67, 0
3, 279900, Note_on_c, 0, 66, 76
3, 280063, Note_on_c, 0, 66, 0
3, 280080, Note_on_c, 0, 73, 75
3, 280080, Note_on_c, 0, 73, 96
3, 280080, Note_on_c, 0, 52, 50
3, 280080, Note_on_c, 0, 59, 49
3, 280080, Note_on_c, 0, 61, 46
3, 280243, Note_on_c, 0, 73, 0
3, 280257, Note_on_c, 0, 59, 0
3, 280257, Note_on_c, 0, 52, 0
3, 280257, Note_on_c, 0, 61, 0
3, 280260, Note_on_c, 0, 67, 70
3, 280405, Note_on_c, 0, 73, 0
3, 280423, Note_on_c, 0, 67, 0
3, 280440, Note_on_c, 0, 66, 76
3, 280440, Note_on_c, 0, 52, 52
3, 280440, Note_on_c, 0, 58, 50
3, 280440, Note_on_c, 0, 61, 51
3, 280603, Note_on_c, 0, 66, 0
3, 280617, Note_on_c, 0, 58, 0
3, 280617, Note_on_c, 0, 52, 0
3, 280617, Note_on_c, 0, 61, 0
3, 280620, Note_on_c, 0, 64, 73
3, 280783, Note_on_c, 0, 64, 0
3, 280800, Note_on_c, 0, 73, 84
3, 280800, Note_on_c, 0, 73, 99
3, 280800, Note_on_c, 0, 35, 41
3, 280800, Note_on_c, 0, 47, 41
3, 280963, Note_on_c, 0, 73, 0
3, 280977, Note_on_c, 0, 35, 0
3, 280977, Note_on_c, 0, 47, 0
3, 280980, Note_on_c, 0, 67, 74
3, 281125, Note_on_c, 0, 73, 0
3, 281143, Note_on_c, 0, 67, 0
3, 281160, Note_on_c, 0, 66, 79
3, 281160, Note_on_c, 0, 54, 61
3, 281160, Note_on_c, 0, 58, 63
3, 281323, Note_on_c, 0, 66, 0
3, 281337, Note_on_c, 0, 54, 0
3, 281337, Note_on_c, 0, 58, 0
3, 281340, Note_on_c, 0, 64, 76
3, 281503, Note_on_c, 0, 64, 0
3, 281520, Note_on_c, 0, 71, 75
3, 281520, Note_on_c, 0, 71, 95
3, 281520, Note_on_c, 0, 54, 55
3, 281520, Note_on_c, 0, 59, 55
3, 281683, Note_on_c, 0, 71, 0
3, 281697, Note_on_c, 0, 54, 0
3, 281697, Note_on_c, 0, 59, 0
3, 281700, Note_on_c, 0, 66, 71
3, 281845, Note_on_c, 0, 71, 0
3, 281863, Note_on_c, 0, 66, 0
3, 281880, Note_on_c, 0, 64, 76
3, 281880, Note_on_c, 0, 40, 49
3, 281880, Note_on_c, 0, 52, 49
3, 282043, Note_on_c, 0, 64, 0
3, 282057, Note_on_c, 0, 40, 0
3, 282057, Note_on_c, 0, 52, 0
3, 282060, Note_on_c, 0, 62, 77
3, 282223, Note_on_c, 0, 62, 0
3, 282240, Note_on_c, 0, 64, 68
3, 282240, Note_on_c, 0, 64, 89
3, 282240, Note_on_c, 0, 56, 59
3, 282240, Note_on_c, 0, 59, 62
3, 282403, Note_on_c, 0, 64, 0
3, 282417, Note_on_c, 0, 56, 0
3, 282417, Note_on_c, 0, 59, 0
3, 282420, Note_on_c, 0, 68, 90
3, 282565, Note_on_c, 0, 64, 0
3, 282583, Note_on_c, 0, 68, 0
3, 282600, Note_on_c, 0, 69, 87
3, 282600, Note_on_c, 0, 52, 43
3, 282763, Note_on_c, 0, 69, 0
3, 282777, Note_on_c, 0, 52, 0
3, 282780, Note_on_c, 0, 71, 87
3, 282943, Note_on_c, 0, 71, 0
3, 282960, Note_on_c, 0, 72, 95
3, 282960, Note_on_c, 0, 33, 47
3, 282960, Note_on_c, 0, 45, 45
3, 283123, Note_on_c, 0, 72, 0
3, 283137, Note_on_c, 0, 33, 0
3, 283137, Note_on_c, 0, 45, 0
3, 283140, Note_on_c, 0, 69, 77
3, 283303, Note_on_c, 0, 69, 0
3, 283320, Note_on_c, 0, 71, 87
3, 283483, Note_on_c, 0, 71, 0
3, 283500, Note_on_c, 0, 69, 78
3, 283663, Note_on_c, 0, 69, 0
3, 283680, Note_on_c, 0, 72, 89
3, 283843, Note_on_c, 0, 72, 0
3, 283860, Note_on_c, 0, 68, 73
3, 284023, Note_on_c, 0, 68, 0
3, 284040, Note_on_c, 0, 69, 86
3, 284040, Note_on_c, 0, 40, 51
3, 284040, Note_on_c, 0, 52, 50
3, 284203, Note_on_c, 0, 69, 0
3, 284217, Note_on_c, 0, 40, 0
3, 284217, Note_on_c, 0, 52, 0
3, 284220, Note_on_c, 0, 68, 79
3, 284383, Note_on_c, 0, 68, 0
3, 284400, Note_on_c, 0, 72, 90
3, 284563, Note_on_c, 0, 72, 0
3, 284580, Note_on_c, 0, 66, 70
3, 284743, Note_on_c, 0, 66, 0
3, 284760, Note_on_c, 0, 68, 85
3, 284923, Note_on_c, 0, 68, 0
3, 284940, Note_on_c, 0, 71, 88
3, 285103, Note_on_c, 0, 71, 0
3, 285120, Note_on_c, 0, 72, 88
3, 285120, Note_on_c, 0, 45, 52
3, 285120, Note_on_c, 0, 57, 52
3, 285283, Note_on_c, 0, 72, 0
3, 285297, Note_on_c, 0, 45, 0
3, 285297, Note_on_c, 0, 57, 0
3, 285300, Note_on_c, 0, 69, 74
3, 285463, Note_on_c, 0, 69, 0
3, 285480, Note_on_c, 0, 71, 87
3, 285643, Note_on_c, 0, 71, 0
3, 285660, Note_on_c, 0, 69, 78
3, 285823, Note_on_c, 0, 69, 0
3, 285840, Note_on_c, 0, 72, 91
3, 286003, Note_on_c, 0, 72, 0
3, 286020, Note_on_c, 0, 71, 79
3, 286183, Note_on_c, 0, 71, 0
3, 286200, Note_on_c, 0, 72, 85
3, 286200, Note_on_c, 0, 38, 52
3, 286200, Note_on_c, 0, 50, 50
3, 286363, Note_on_c, 0, 72, 0
3, 286377, Note_on_c, 0, 38, 0
3, 286377, Note_on_c, 0, 50, 0
3, 286380, Note_on_c, 0, 74, 86
3, 286543, Note_on_c, 0, 74, 0
3, 286560, Note_on_c, 0, 76, 91
3, 286723, Note_on_c, 0, 76, 0
3, 286740, Note_on_c, 0, 71, 71
3, 286903, Note_on_c, 0, 71, 0
3, 286920, Note_on_c, 0, 72, 87
3, 287083, Note_on_c, 0, 72, 0
3, 287100, Note_on_c, 0, 74, 85
3, 287263, Note_on_c, 0, 74, 0
3, 287280, Note_on_c, 0, 71, 77
3, 287280, Note_on_c, 0, 31, 52
3, 287280, Note_on_c, 0, 43, 51
3, 287443, Note_on_c, 0, 71, 0
3, 287457, Note_on_c, 0, 31, 0
3, 287457, Note_on_c, 0, 43, 0
3, 287460, Note_on_c, 0, 62, 62
3, 287623, Note_on_c, 0, 62, 0
3, 287640, Note_on_c, 0, 64, 87
3, 287803, Note_on_c, 0, 64, 0
3, 287820, Note_on_c, 0, 62, 76
3, 287983, Note_on_c, 0, 62, 0
3, 288000, Note_on_c, 0, 71, 102
3, 288163, Note_on_c, 0, 71, 0
3, 288180, Note_on_c, 0, 60, 62
3, 288343, Note_on_c, 0, 60, 0
3, 288360, Note_on_c, 0, 62, 87
3, 288360, Note_on_c, 0, 38, 50
3, 288360, Note_on_c, 0, 50, 52
3, 288523, Note_on_c, 0, 62, 0
3, 288537, Note_on_c, 0, 38, 0
3, 288537, Note_on_c, 0, 50, 0
3, 288540, Note_on_c, 0, 60, 75
3, 288703, Note_on_c, 0, 60, 0
3, 288720, Note_on_c, 0, 71, 103
3, 288883, Note_on_c, 0, 71, 0
3, 288900, Note_on_c, 0, 64, 68
3, 289063, Note_on_c, 0, 64, 0
3, 289080, Note_on_c, 0, 62, 79
3, 289243, Note_on_c, 0, 62, 0
3, 289260, Note_on_c, 0, 69, 91
3, 289423, Note_on_c, 0, 69, 0
3, 289440, Note_on_c, 0, 71, 89
3, 289440, Note_on_c, 0, 43, 51
3, 289440, Note_on_c, 0, 55, 52
3, 289603, Note_on_c, 0, 71, 0
3, 289617, Note_on_c, 0, 43, 0
3, 289617, Note_on_c, 0, 55, 0
3, 289620, Note_on_c, 0, 59, 62
3, 289783, Note_on_c, 0, 59, 0
3, 289800, Note_on_c, 0, 60, 85
3, 289963, Note_on_c, 0, 60, 0
3, 289980, Note_on_c, 0, 59, 78
3, 290143, Note_on_c, 0, 59, 0
3, 290160, Note_on_c, 0, 71, 104
3, 290323, Note_on_c, 0, 71, 0
3, 290340, Note_on_c, 0, 66, 74
3, 290503, Note_on_c, 0, 66, 0
3, 290520, Note_on_c, 0, 67, 87
3, 290520, Note_on_c, 0, 40, 52
3, 290520, Note_on_c, 0, 52, 52
3, 290683, Note_on_c, 0, 67, 0
3, 290697, Note_on_c, 0, 40, 0
3, 290697, Note_on_c, 0, 52, 0
3, 290700, Note_on_c, 0, 71, 91
3, 290863, Note_on_c, 0, 71, 0
3, 290880, Note_on_c, 0, 74, 92
3, 291043, Note_on_c, 0, 74, 0
3, 291060, Note_on_c, 0, 66, 66
3, 291223, Note_on_c, 0, 66, 0
3, 291240, Note_on_c, 0, 67, 83
3, 291403, Note_on_c, 0, 67, 0
3, 291420, Note_on_c, 0, 71, 88
3, 291583, Note_on_c, 0, 71, 0
3, 291600, Note_on_c, 0, 74, 92
3, 291600, Note_on_c, 0, 33, 50
3, 291600, Note_on_c, 0, 45, 51
3, 291763, Note_on_c, 0, 74, 0
3, 291780, Note_on_c, 0, 64, 62
3, 291925, Note_on_c, 0, 33, 0
3, 291925, Note_on_c, 0, 45, 0
3, 291943, Note_on_c, 0, 64, 0
3, 291960, Note_on_c, 0, 66, 84
3, 292123, Note_on_c, 0, 66, 0
3, 292140, Note_on_c, 0, 69, 87
3, 292303, Note_on_c, 0, 69, 0
3, 292320, Note_on_c, 0, 74, 96
3, 292483, Note_on_c, 0, 74, 0
3, 292500, Note_on_c, 0, 69, 71
3, 292663, Note_on_c, 0, 69, 0
3, 292680, Note_on_c, 0, 74, 90
3, 292680, Note_on_c, 0, 33, 51
3, 292680, Note_on_c, 0, 45, 49
3, 292843, Note_on_c, 0, 74, 0
3, 292860, Note_on_c, 0, 78, 88
3, 293005, Note_on_c, 0, 33, 0
3, 293005, Note_on_c, 0, 45, 0
3, 293023, Note_on_c, 0, 78, 0
3, 293040, Note_on_c, 0, 79, 90
3, 293203, Note_on_c, 0, 79, 0
3, 293220, Note_on_c, 0, 75, 72
3, 293383, Note_on_c, 0, 75, 0
3, 293400, Note_on_c, 0, 76, 88
3, 293563, Note_on_c, 0, 76, 0
3, 293580, Note_on_c, 0, 78, 85
3, 293743, Note_on_c, 0, 78, 0
3, 293760, Note_on_c, 0, 79, 89
3, 293760, Note_on_c, 0, 33, 52
3, 293760, Note_on_c, 0, 45, 52
3, 293923, Note_on_c, 0, 79, 0
3, 293940, Note_on_c, 0, 71, 65
3, 294085, Note_on_c, 0, 33, 0
3, 294085, Note_on_c, 0, 45, 0
3, 294103, Note_on_c, 0, 71, 0
3, 294120, Note_on_c, 0, 76, 90
3, 294283, Note_on_c, 0, 76, 0
3, 294300, Note_on_c, 0, 78, 85
3, 294463, Note_on_c, 0, 78, 0
3, 294480, Note_on_c, 0, 79, 88
3, 294643, Note_on_c, 0, 79, 0
3, 294660, Note_on_c, 0, 78, 78
3, 294823, Note_on_c, 0, 78, 0
3, 294840, Note_on_c, 0, 79, 87
3, 294840, Note_on_c, 0, 33, 51
3, 294840, Note_on_c, 0, 45, 50
3, 295003, Note_on_c, 0, 79, 0
3, 295020, Note_on_c, 0, 83, 90
3, 295165, Note_on_c, 0, 33, 0
3, 295165, Note_on_c, 0, 45, 0
3, 295183, Note_on_c, 0, 83, 0
3, 295200, Note_on_c, 0, 86, 92
3, 295363, Note_on_c, 0, 86, 0
3, 295380, Note_on_c, 0, 81, 71
3, 295543, Note_on_c, 0, 81, 0
3, 295560, Note_on_c, 0, 80, 78
3, 295723, Note_on_c, 0, 80, 0
3, 295740, Note_on_c, 0, 85, 90
3, 295903, Note_on_c, 0, 85, 0
3, 295920, Note_on_c, 0, 78, 106
3, 295920, Note_on_c, 0, 86, 105
3, 295920, Note_on_c, 0, 33, 52
3, 295920, Note_on_c, 0, 45, 51
3, 296097, Note_on_c, 0, 45, 0
3, 296097, Note_on_c, 0, 86, 0
3, 296097, Note_on_c, 0, 78, 0
3, 296097, Note_on_c, 0, 33, 0
3, 296280, Note_on_c, 0, 78, 70
3, 296280, Note_on_c, 0, 54, 67
3, 296280, Note_on_c, 0, 62, 66
3, 296280, Note_on_c, 0, 66, 66
3, 296443, Note_on_c, 0, 78, 0
3, 296457, Note_on_c, 0, 62, 0
3, 296457, Note_on_c, 0, 54, 0
3, 296457, Note_on_c, 0, 66, 0
3, 296460, Note_on_c, 0, 76, 75
3, 296623, Note_on_c, 0, 76, 0
3, 296640, Note_on_c, 0, 73, 98
3, 296640, Note_on_c, 0, 54, 53
3, 296640, Note_on_c, 0, 57, 54
3, 296640, Note_on_c, 0, 66, 55
3, 296803, Note_on_c, 0, 73, 0
3, 296817, Note_on_c, 0, 57, 0
3, 296817, Note_on_c, 0, 54, 0
3, 296817, Note_on_c, 0, 66, 0
3, 296820, Note_on_c, 0, 74, 81
3, 296983, Note_on_c, 0, 74, 0
3, 297000, Note_on_c, 0, 76, 86
3, 297163, Note_on_c, 0, 76, 0
3, 297180, Note_on_c, 0, 74, 74
3, 297343, Note_on_c, 0, 74, 0
3, 297360, Note_on_c, 0, 71, 98
3, 297360, Note_on_c, 0, 54, 47
3, 297360, Note_on_c, 0, 62, 48
3, 297360, Note_on_c, 0, 66, 49
3, 297523, Note_on_c, 0, 71, 0
3, 297537, Note_on_c, 0, 62, 0
3, 297537, Note_on_c, 0, 54, 0
3, 297537, Note_on_c, 0, 66, 0
3, 297540, Note_on_c, 0, 73, 85
3, 297703, Note_on_c, 0, 73, 0
3, 297720, Note_on_c, 0, 74, 89
3, 297720, Note_on_c, 0, 54, 47
3, 297720, Note_on_c, 0, 57, 48
3, 297720, Note_on_c, 0, 62, 47
3, 297883, Note_on_c, 0, 74, 0
3, 297897, Note_on_c, 0, 57, 0
3, 297897, Note_on_c, 0, 54, 0
3, 297897, Note_on_c, 0, 62, 0
3, 297900, Note_on_c, 0, 73, 78
3, 298063, Note_on_c, 0, 73, 0
3, 298080, Note_on_c, 0, 69, 99
3, 298080, Note_on_c, 0, 45, 41
3, 298243, Note_on_c, 0, 69, 0
3, 298257, Note_on_c, 0, 45, 0
3, 298260, Note_on_c, 0, 71, 82
3, 298423, Note_on_c, 0, 71, 0
3, 298440, Note_on_c, 0, 74, 90
3, 298440, Note_on_c, 0, 54, 63
3, 298440, Note_on_c, 0, 57, 63
3, 298440, Note_on_c, 0, 62, 62
3, 298603, Note_on_c, 0, 74, 0
3, 298617, Note_on_c, 0, 57, 0
3, 298617, Note_on_c, 0, 54, 0
3, 298617, Note_on_c, 0, 62, 0
3, 298620, Note_on_c, 0, 69, 74
3, 298783, Note_on_c, 0, 69, 0
3, 298800, Note_on_c, 0, 67, 100
3, 298800, Note_on_c, 0, 55, 54
3, 298800, Note_on_c, 0, 59, 54
3, 298800, Note_on_c, 0, 62, 54
3, 298963, Note_on_c, 0, 67, 0
3, 298977, Note_on_c, 0, 59, 0
3, 298977, Note_on_c, 0, 55, 0
3, 298977, Note_on_c, 0, 62, 0
3, 298980, Note_on_c, 0, 69, 87
3, 299143, Note_on_c, 0, 69, 0
3, 299160, Note_on_c, 0, 71, 88
3, 299323, Note_on_c, 0, 71, 0
3, 299340, Note_on_c, 0, 69, 76
3, 299503, Note_on_c, 0, 69, 0
3, 299520, Note_on_c, 0, 66, 79
3, 299520, Note_on_c, 0, 54, 47
3, 299520, Note_on_c, 0, 57, 48
3, 299520, Note_on_c, 0, 62, 47
3, 299697, Note_on_c, 0, 62, 0
3, 299697, Note_on_c, 0, 54, 0
3, 299697, Note_on_c, 0, 57, 0
3, 299845, Note_on_c, 0, 66, 0
3, 299880, Note_on_c, 0, 69, 84
3, 299880, Note_on_c, 0, 54, 46
3, 299880, Note_on_c, 0, 57, 47
3, 300043, Note_on_c, 0, 69, 0
3, 300057, Note_on_c, 0, 54, 0
3, 300057, Note_on_c, 0, 57, 0
3, 300060, Note_on_c, 0, 66, 73
3, 300223, Note_on_c, 0, 66, 0
3, 300240, Note_on_c, 0, 71, 119
3, 300240, Note_on_c, 0, 33, 42
3, 300240, Note_on_c, 0, 45, 41
3, 300403, Note_on_c, 0, 71, 0
3, 300417, Note_on_c, 0, 33, 0
3, 300417, Note_on_c, 0, 45, 0
3, 300420, Note_on_c, 0, 73, 85
3, 300583, Note_on_c, 0, 73, 0
3, 300600, Note_on_c, 0, 74, 88
3, 300600, Note_on_c, 0, 55, 61
3, 300600, Note_on_c, 0, 59, 64
3, 300600, Note_on_c, 0, 62, 63
3, 300777, Note_on_c, 0, 62, 0
3, 300777, Note_on_c, 0, 55, 0
3, 300777, Note_on_c, 0, 59, 0
3, 300925, Note_on_c, 0, 74, 0
3, 300960, Note_on_c, 0, 69, 97
3, 300960, Note_on_c, 0, 55, 54
3, 300960, Note_on_c, 0, 57, 54
3, 300960, Note_on_c, 0, 61, 53
3, 301123, Note_on_c, 0, 69, 0
3, 301140, Note_on_c, 0, 71, 83
3, 301285, Note_on_c, 0, 57, 0
3, 301285, Note_on_c, 0, 55, 0
3, 301285, Note_on_c, 0, 61, 0
3, 301303, Note_on_c, 0, 71, 0
3, 301320, Note_on_c, 0, 73, 89
3, 301645, Note_on_c, 0, 73, 0
3, 301680, Note_on_c, 0, 67, 95
3, 301680, Note_on_c, 0, 55, 48
3, 301680, Note_on_c, 0, 59, 46
3, 301843, Note_on_c, 0, 67, 0
3, 301857, Note_on_c, 0, 55, 0
3, 301857, Note_on_c, 0, 59, 0
3, 301860, Note_on_c, 0, 69, 82
3, 302023, Note_on_c, 0, 69, 0
3, 302040, Note_on_c, 0, 71, 88
3, 302040, Note_on_c, 0, 55, 52
3, 302040, Note_on_c, 0, 59, 52
3, 302217, Note_on_c, 0, 59, 0
3, 302217, Note_on_c, 0, 55, 0
3, 302365, Note_on_c, 0, 71, 0
3, 302400, Note_on_c, 0, 66, 99
3, 302400, Note_on_c, 0, 45, 40
3, 302563, Note_on_c, 0, 66, 0
3, 302577, Note_on_c, 0, 45, 0
3, 302580, Note_on_c, 0, 67, 82
3, 302743, Note_on_c, 0, 67, 0
3, 302760, Note_on_c, 0, 69, 90
3, 302760, Note_on_c, 0, 55, 62
3, 302760, Note_on_c, 0, 57, 63
3, 302760, Note_on_c, 0, 64, 64
3, 302937, Note_on_c, 0, 64, 0
3, 302937, Note_on_c, 0, 55, 0
3, 302937, Note_on_c, 0, 57, 0
3, 303085, Note_on_c, 0, 69, 0
3, 303120, Note_on_c, 0, 67, 95
3, 303120, Note_on_c, 0, 55, 49
3, 303120, Note_on_c, 0, 59, 51
3, 303120, Note_on_c, 0, 62, 52
3, 303283, Note_on_c, 0, 67, 0
3, 303297, Note_on_c, 0, 59, 0
3, 303297, Note_on_c, 0, 55, 0
3, 303297, Note_on_c, 0, 62, 0
3, 303300, Note_on_c, 0, 71, 87
3, 303463, Note_on_c, 0, 71, 0
3, 303480, Note_on_c, 0, 69, 86
3, 303643, Note_on_c, 0, 69, 0
3, 303660, Note_on_c, 0, 67, 75
3, 303823, Note_on_c, 0, 67, 0
3, 303840, Note_on_c, 0, 69, 114
3, 303840, Note_on_c, 0, 73, 114
3, 303840, Note_on_c, 0, 55, 46
3, 303840, Note_on_c, 0, 57, 48
3, 303840, Note_on_c, 0, 61, 49
3, 304017, Note_on_c, 0, 61, 0
3, 304017, Note_on_c, 0, 55, 0
3, 304017, Note_on_c, 0, 57, 0
3, 304165, Note_on_c, 0, 69, 0
3, 304165, Note_on_c, 0, 73, 0
3, 304200, Note_on_c, 0, 64, 73
3, 304200, Note_on_c, 0, 67, 73
3, 304200, Note_on_c, 0, 55, 48
3, 304200, Note_on_c, 0, 57, 48
3, 304363, Note_on_c, 0, 67, 0
3, 304363, Note_on_c, 0, 64, 0
3, 304377, Note_on_c, 0, 55, 0
3, 304377, Note_on_c, 0, 57, 0
3, 304380, Note_on_c, 0, 69, 84
3, 304543, Note_on_c, 0, 69, 0
3, 304560, Note_on_c, 0, 62, 94
3, 304560, Note_on_c, 0, 66, 95
3, 304560, Note_on_c, 0, 74, 95
3, 304560, Note_on_c, 0, 38, 46
3, 304560, Note_on_c, 0, 50, 44
3, 304885, Note_on_c, 0, 50, 0
3, 304885, Note_on_c, 0, 74, 0
3, 304885, Note_on_c, 0, 66, 0
3, 304885, Note_on_c, 0, 62, 0
3, 304885, Note_on_c, 0, 38, 0
3, 306000, Note_on_c, 0, 62, 72
3, 306487, Note_on_c, 0, 62, 0
3, 306540, Note_on_c, 0, 61, 77
3, 306703, Note_on_c, 0, 61, 0
3, 306720, Note_on_c, 0, 62, 85
3, 306897, Note_on_c, 0, 62, 0
3, 307440, Note_on_c, 0, 62, 95
3, 308125, Note_on_c, 0, 62, 0
3, 308160, Note_on_c, 0, 62, 82
3, 308647, Note_on_c, 0, 62, 0
3, 308700, Note_on_c, 0, 60, 74
3, 308863, Note_on_c, 0, 60, 0
3, 308880, Note_on_c, 0, 59, 78
3, 309205, Note_on_c, 0, 59, 0
3, 309240, Note_on_c, 0, 35, 47
3, 309240, Note_on_c, 0, 47, 48
3, 309417, Note_on_c, 0, 35, 0
3, 309417, Note_on_c, 0, 47, 0
3, 309600, Note_on_c, 0, 52, 74
3, 309600, Note_on_c, 0, 57, 73
3, 309600, Note_on_c, 0, 60, 74
3, 309777, Note_on_c, 0, 60, 0
3, 309777, Note_on_c, 0, 52, 0
3, 309777, Note_on_c, 0, 57, 0
3, 309960, Note_on_c, 0, 35, 52
3, 309960, Note_on_c, 0, 47, 53
3, 310137, Note_on_c, 0, 35, 0
3, 310137, Note_on_c, 0, 47, 0
3, 310320, Note_on_c, 0, 54, 71
3, 310320, Note_on_c, 0, 57, 72
3, 310320, Note_on_c, 0, 63, 72
3, 310497, Note_on_c, 0, 63, 0
3, 310497, Note_on_c, 0, 54, 0
3, 310497, Note_on_c, 0, 57, 0
3, 310680, Note_on_c, 0, 35, 47
3, 310680, Note_on_c, 0, 47, 47
3, 310857, Note_on_c, 0, 35, 0
3, 310857, Note_on_c, 0, 47, 0
3, 311040, Note_on_c, 0, 55, 78
3, 311040, Note_on_c, 0, 60, 75
3, 311040, Note_on_c, 0, 64, 77
3, 311217, Note_on_c, 0, 64, 0
3, 311217, Note_on_c, 0, 55, 0
3, 311217, Note_on_c, 0, 60, 0
3, 311400, Note_on_c, 0, 35, 47
3, 311400, Note_on_c, 0, 47, 47
3, 311577, Note_on_c, 0, 35, 0
3, 311577, Note_on_c, 0, 47, 0
3, 311760, Note_on_c, 0, 57, 74
3, 311760, Note_on_c, 0, 63, 74
3, 311760, Note_on_c, 0, 66, 74
3, 311937, Note_on_c, 0, 66, 0
3, 311937, Note_on_c, 0, 57, 0
3, 311937, Note_on_c, 0, 63, 0
3, 312120, Note_on_c, 0, 35, 53
3, 312120, Note_on_c, 0, 47, 50
3, 312297, Note_on_c, 0, 35, 0
3, 312297, Note_on_c, 0, 47, 0
3, 312480, Note_on_c, 0, 57, 75
3, 312480, Note_on_c, 0, 63, 75
3, 312480, Note_on_c, 0, 67, 74
3, 312657, Note_on_c, 0, 67, 0
3, 312657, Note_on_c, 0, 57, 0
3, 312657, Note_on_c, 0, 63, 0
3, 312840, Note_on_c, 0, 35, 49
3, 312840, Note_on_c, 0, 47, 46
3, 313017, Note_on_c, 0, 35, 0
3, 313017, Note_on_c, 0, 47, 0
3, 313200, Note_on_c, 0, 59, 81
3, 313200, Note_on_c, 0, 55, 67
3, 313200, Note_on_c, 0, 59, 67
3, 313200, Note_on_c, 0, 40, 66
3, 313200, Note_on_c, 0, 47, 69
3, 314280, Note_on_c, 0, 59, 0
3, 314280, Note_on_c, 0, 67, 103
3, 315360, Note_on_c, 0, 67, 0
3, 315360, Note_on_c, 0, 66, 87
3, 316440, Note_on_c, 0, 66, 0
3, 316440, Note_on_c, 0, 64, 85
3, 316970, Note_on_c, 0, 59, 0
3, 316970, Note_on_c, 0, 55, 0
3, 317160, Note_on_c, 0, 64, 0
3, 317160, Note_on_c, 0, 59, 71
3, 317450, Note_on_c, 0, 40, 0
3, 317450, Note_on_c, 0, 47, 0
3, 317485, Note_on_c, 0, 59, 0
3, 317520, Note_on_c, 0, 62, 90
3, 317520, Note_on_c, 0, 55, 57
3, 317520, Note_on_c, 0, 59, 57
3, 317520, Note_on_c, 0, 40, 57
3, 317520, Note_on_c, 0, 47, 56
3, 318530, Note_on_c, 0, 62, 0
3, 318600, Note_on_c, 0, 66, 92
3, 319610, Note_on_c, 0, 66, 0
3, 319680, Note_on_c, 0, 64, 81
3, 320690, Note_on_c, 0, 64, 0
3, 320760, Note_on_c, 0, 62, 78
3, 321290, Note_on_c, 0, 59, 0
3, 321290, Note_on_c, 0, 55, 0
3, 321410, Note_on_c, 0, 62, 0
3, 321480, Note_on_c, 0, 55, 67
3, 321770, Note_on_c, 0, 40, 0
3, 321770, Note_on_c, 0, 47, 0
3, 321805, Note_on_c, 0, 55, 0
3, 321840, Note_on_c, 0, 59, 90
3, 321840, Note_on_c, 0, 53, 57
3, 321840, Note_on_c, 0, 59, 56
3, 321840, Note_on_c, 0, 43, 50
3, 322850, Note_on_c, 0, 59, 0
3, 322920, Note_on_c, 0, 64, 96
3, 323930, Note_on_c, 0, 64, 0
3, 324000, Note_on_c, 0, 62, 82
3, 324530, Note_on_c, 0, 59, 0
3, 325010, Note_on_c, 0, 62, 0
3, 325080, Note_on_c, 0, 59, 76
3, 325610, Note_on_c, 0, 53, 0
3, 325730, Note_on_c, 0, 59, 0
3, 325800, Note_on_c, 0, 55, 71
3, 326090, Note_on_c, 0, 43, 0
3, 326160, Note_on_c, 0, 55, 0
3, 326160, Note_on_c, 0, 55, 75
3, 326160, Note_on_c, 0, 64, 75
3, 326160, Note_on_c, 0, 36, 50
3, 326160, Note_on_c, 0, 48, 53
3, 326340, Note_on_c, 0, 67, 74
3, 326340, Note_on_c, 0, 55, 49
3, 326503, Note_on_c, 0, 67, 0
3, 326503, Note_on_c, 0, 55, 0
3, 326520, Note_on_c, 0, 76, 101
3, 326520, Note_on_c, 0, 64, 63
3, 326683, Note_on_c, 0, 76, 0
3, 326683, Note_on_c, 0, 64, 0
3, 326700, Note_on_c, 0, 79, 88
3, 326700, Note_on_c, 0, 67, 57
3, 326863, Note_on_c, 0, 67, 0
3, 326863, Note_on_c, 0, 79, 0
3, 326880, Note_on_c, 0, 76, 78
3, 326880, Note_on_c, 0, 64, 53
3, 327043, Note_on_c, 0, 76, 0
3, 327043, Note_on_c, 0, 64, 0
3, 327060, Note_on_c, 0, 79, 85
3, 327060, Note_on_c, 0, 67, 54
3, 327170, Note_on_c, 0, 55, 0
3, 327170, Note_on_c, 0, 64, 0
3, 327170, Note_on_c, 0, 48, 0
3, 327170, Note_on_c, 0, 36, 0
3, 327223, Note_on_c, 0, 79, 0
3, 327223, Note_on_c, 0, 67, 0
3, 327240, Note_on_c, 0, 81, 87
3, 327240, Note_on_c, 0, 69, 59
3, 327403, Note_on_c, 0, 69, 0
3, 327403, Note_on_c, 0, 81, 0
3, 327420, Note_on_c, 0, 79, 77
3, 327420, Note_on_c, 0, 67, 50
3, 327583, Note_on_c, 0, 67, 0
3, 327583, Note_on_c, 0, 79, 0
3, 327600, Note_on_c, 0, 76, 78
3, 327600, Note_on_c, 0, 64, 49
3, 327763, Note_on_c, 0, 64, 0
3, 327763, Note_on_c, 0, 76, 0
3, 327780, Note_on_c, 0, 79, 86
3, 327780, Note_on_c, 0, 67, 55
3, 327943, Note_on_c, 0, 67, 0
3, 327943, Note_on_c, 0, 79, 0
3, 327960, Note_on_c, 0, 76, 76
3, 327960, Note_on_c, 0, 64, 51
3, 328123, Note_on_c, 0, 64, 0
3, 328123, Note_on_c, 0, 76, 0
3, 328140, Note_on_c, 0, 67, 62
3, 328140, Note_on_c, 0, 55, 41
3, 328303, Note_on_c, 0, 55, 0
3, 328303, Note_on_c, 0, 67, 0
3, 328320, Note_on_c, 0, 36, 49
3, 328320, Note_on_c, 0, 48, 49
3, 328500, Note_on_c, 0, 55, 73
3, 328663, Note_on_c, 0, 55, 0
3, 328680, Note_on_c, 0, 63, 96
3, 328843, Note_on_c, 0, 63, 0
3, 328860, Note_on_c, 0, 67, 93
3, 329023, Note_on_c, 0, 67, 0
3, 329040, Note_on_c, 0, 63, 76
3, 329203, Note_on_c, 0, 63, 0
3, 329220, Note_on_c, 0, 67, 88
3, 329383, Note_on_c, 0, 67, 0
3, 329400, Note_on_c, 0, 69, 88
3, 329563, Note_on_c, 0, 69, 0
3, 329580, Note_on_c, 0, 67, 78
3, 329743, Note_on_c, 0, 67, 0
3, 329760, Note_on_c, 0, 63, 74
3, 329923, Note_on_c, 0, 63, 0
3, 329940, Note_on_c, 0, 67, 87
3, 330103, Note_on_c, 0, 67, 0
3, 330120, Note_on_c, 0, 63, 75
3, 330283, Note_on_c, 0, 63, 0
3, 330300, Note_on_c, 0, 57, 68
3, 330410, Note_on_c, 0, 48, 0
3, 330410, Note_on_c, 0, 36, 0
3, 330463, Note_on_c, 0, 57, 0
3, 330480, Note_on_c, 0, 59, 88
3, 330480, Note_on_c, 0, 55, 69
3, 330480, Note_on_c, 0, 59, 66
3, 330480, Note_on_c, 0, 40, 59
3, 330480, Note_on_c, 0, 47, 60
3, 331490, Note_on_c, 0, 59, 0
3, 331560, Note_on_c, 0, 67, 99
3, 332570, Note_on_c, 0, 67, 0
3, 332640, Note_on_c, 0, 66, 83
3, 333650, Note_on_c, 0, 66, 0
3, 333720, Note_on_c, 0, 64, 78
3, 334370, Note_on_c, 0, 64, 0
3, 334440, Note_on_c, 0, 57, 64
3, 334730, Note_on_c, 0, 40, 0
3, 334730, Note_on_c, 0, 55, 0
3, 334730, Note_on_c, 0, 47, 0
3, 334765, Note_on_c, 0, 57, 0
3, 334800, Note_on_c, 0, 59, 88
3, 334800, Note_on_c, 0, 53, 58
3, 334800, Note_on_c, 0, 43, 50
3, 335810, Note_on_c, 0, 59, 0
3, 335880, Note_on_c, 0, 65, 94
3, 336890, Note_on_c, 0, 65, 0
3, 336960, Note_on_c, 0, 64, 82
3, 337490, Note_on_c, 0, 59, 0
3, 337970, Note_on_c, 0, 64, 0
3, 338040, Note_on_c, 0, 62, 78
3, 338570, Note_on_c, 0, 53, 0
3, 338690, Note_on_c, 0, 62, 0
3, 338760, Note_on_c, 0, 57, 71
3, 339050, Note_on_c, 0, 43, 0
3, 339085, Note_on_c, 0, 57, 0
3, 339120, Note_on_c, 0, 59, 85
3, 339120, Note_on_c, 0, 52, 62
3, 339120, Note_on_c, 0, 56, 64
3, 339120, Note_on_c, 0, 59, 63
3, 339120, Note_on_c, 0, 40, 61
3, 339120, Note_on_c, 0, 47, 59
3, 339650, Note_on_c, 0, 52, 0
3, 340130, Note_on_c, 0, 59, 0
3, 340200, Note_on_c, 0, 64, 94
3, 341210, Note_on_c, 0, 64, 0
3, 341280, Note_on_c, 0, 62, 79
3, 341810, Note_on_c, 0, 59, 0
3, 342290, Note_on_c, 0, 62, 0
3, 342360, Note_on_c, 0, 59, 76
3, 342890, Note_on_c, 0, 56, 0
3, 343010, Note_on_c, 0, 59, 0
3, 343080, Note_on_c, 0, 52, 66
3, 343370, Note_on_c, 0, 47, 0
3, 343370, Note_on_c, 0, 40, 0
3, 343405, Note_on_c, 0, 52, 0
3, 343440, Note_on_c, 0, 57, 83
3, 343440, Note_on_c, 0, 64, 83
3, 343440, Note_on_c, 0, 33, 52
3, 343440, Note_on_c, 0, 45, 50
3, 343620, Note_on_c, 0, 64, 71
3, 343620, Note_on_c, 0, 52, 49
3, 343783, Note_on_c, 0, 52, 0
3, 343783, Note_on_c, 0, 64, 0
3, 343800, Note_on_c, 0, 69, 92
3, 343800, Note_on_c, 0, 57, 59
3, 343963, Note_on_c, 0, 69, 0
3, 343963, Note_on_c, 0, 57, 0
3, 343980, Note_on_c, 0, 76, 97
3, 343980, Note_on_c, 0, 64, 61
3, 344143, Note_on_c, 0, 76, 0
3, 344143, Note_on_c, 0, 64, 0
3, 344160, Note_on_c, 0, 69, 74
3, 344160, Note_on_c, 0, 57, 49
3, 344323, Note_on_c, 0, 69, 0
3, 344323, Note_on_c, 0, 57, 0
3, 344340, Note_on_c, 0, 76, 93
3, 344340, Note_on_c, 0, 64, 60
3, 344450, Note_on_c, 0, 57, 0
3, 344450, Note_on_c, 0, 64, 0
3, 344450, Note_on_c, 0, 33, 0
3, 344450, Note_on_c, 0, 45, 0
3, 344503, Note_on_c, 0, 76, 0
3, 344503, Note_on_c, 0, 64, 0
3, 344520, Note_on_c, 0, 77, 90
3, 344520, Note_on_c, 0, 65, 58
3, 344683, Note_on_c, 0, 65, 0
3, 344683, Note_on_c, 0, 77, 0
3, 344700, Note_on_c, 0, 76, 78
3, 344700, Note_on_c, 0, 64, 51
3, 344863, Note_on_c, 0, 64, 0
3, 344863, Note_on_c, 0, 76, 0
3, 344880, Note_on_c, 0, 72, 76
3, 344880, Note_on_c, 0, 60, 49
3, 345043, Note_on_c, 0, 60, 0
3, 345043, Note_on_c, 0, 72, 0
3, 345060, Note_on_c, 0, 76, 89
3, 345060, Note_on_c, 0, 64, 58
3, 345223, Note_on_c, 0, 64, 0
3, 345223, Note_on_c, 0, 76, 0
3, 345240, Note_on_c, 0, 72, 75
3, 345240, Note_on_c, 0, 60, 52
3, 345403, Note_on_c, 0, 60, 0
3, 345403, Note_on_c, 0, 72, 0
3, 345420, Note_on_c, 0, 64, 64
3, 345420, Note_on_c, 0, 52, 41
3, 345583, Note_on_c, 0, 52, 0
3, 345583, Note_on_c, 0, 64, 0
3, 345600, Note_on_c, 0, 33, 41
3, 345600, Note_on_c, 0, 45, 43
3, 345780, Note_on_c, 0, 55, 72
3, 345943, Note_on_c, 0, 55, 0
3, 345960, Note_on_c, 0, 60, 91
3, 346123, Note_on_c, 0, 60, 0
3, 346140, Note_on_c, 0, 63, 88
3, 346303, Note_on_c, 0, 63, 0
3, 346320, Note_on_c, 0, 60, 80
3, 346483, Note_on_c, 0, 60, 0
3, 346500, Note_on_c, 0, 63, 86
3, 346663, Note_on_c, 0, 63, 0
3, 346680, Note_on_c, 0, 66, 93
3, 346843, Note_on_c, 0, 66, 0
3, 346860, Note_on_c, 0, 63, 75
3, 347023, Note_on_c, 0, 63, 0
3, 347040, Note_on_c, 0, 60, 75
3, 347203, Note_on_c, 0, 60, 0
3, 347220, Note_on_c, 0, 63, 87
3, 347383, Note_on_c, 0, 63, 0
3, 347400, Note_on_c, 0, 60, 78
3, 347563, Note_on_c, 0, 60, 0
3, 347580, Note_on_c, 0, 55, 72
3, 347690, Note_on_c, 0, 45, 0
3, 347690, Note_on_c, 0, 33, 0
3, 347743, Note_on_c, 0, 55, 0
3, 347760, Note_on_c, 0, 56, 68
3, 347760, Note_on_c, 0, 59, 67
3, 347760, Note_on_c, 0, 40, 55
3, 347760, Note_on_c, 0, 47, 56
3, 348480, Note_on_c, 0, 64, 72
3, 348480, Note_on_c, 0, 68, 72
3, 348480, Note_on_c, 0, 71, 72
3, 349165, Note_on_c, 0, 71, 0
3, 349165, Note_on_c, 0, 68, 0
3, 349165, Note_on_c, 0, 64, 0
3, 349200, Note_on_c, 0, 64, 79
3, 349200, Note_on_c, 0, 68, 83
3, 349200, Note_on_c, 0, 71, 81
3, 349687, Note_on_c, 0, 71, 0
3, 349687, Note_on_c, 0, 68, 0
3, 349687, Note_on_c, 0, 64, 0
3, 349740, Note_on_c, 0, 64, 79
3, 349740, Note_on_c, 0, 68, 80
3, 349740, Note_on_c, 0, 71, 83
3, 349903, Note_on_c, 0, 71, 0
3, 349903, Note_on_c, 0, 68, 0
3, 349903, Note_on_c, 0, 64, 0
3, 349920, Note_on_c, 0, 64, 83
3, 349920, Note_on_c, 0, 68, 83
3, 349920, Note_on_c, 0, 71, 85
3, 350245, Note_on_c, 0, 71, 0
3, 350245, Note_on_c, 0, 68, 0
3, 350245, Note_on_c, 0, 64, 0
3, 350640, Note_on_c, 0, 64, 74
3, 350640, Note_on_c, 0, 68, 71
3, 350640, Note_on_c, 0, 71, 71
3, 351325, Note_on_c, 0, 71, 0
3, 351325, Note_on_c, 0, 68, 0
3, 351325, Note_on_c, 0, 64, 0
3, 351360, Note_on_c, 0, 64, 79
3, 351360, Note_on_c, 0, 68, 81
3, 351360, Note_on_c, 0, 71, 81
3, 351847, Note_on_c, 0, 71, 0
3, 351847, Note_on_c, 0, 68, 0
3, 351847, Note_on_c, 0, 64, 0
3, 351900, Note_on_c, 0, 64, 80
3, 351900, Note_on_c, 0, 68, 82
3, 351900, Note_on_c, 0, 71, 80
3, 352063, Note_on_c, 0, 71, 0
3, 352063, Note_on_c, 0, 68, 0
3, 352063, Note_on_c, 0, 64, 0
3, 352080, Note_on_c, 0, 64, 83
3, 352080, Note_on_c, 0, 68, 84
3, 352080, Note_on_c, 0, 71, 84
3, 352405, Note_on_c, 0, 71, 0
3, 352405, Note_on_c, 0, 59, 0
3, 352405, Note_on_c, 0, 68, 0
3, 352405, Note_on_c, 0, 40, 0
3, 352405, Note_on_c, 0, 64, 0
3, 352405, Note_on_c, 0, 56, 0
3, 352405, Note_on_c, 0, 47, 0
3, 352440, Note_on_c, 0, 80, 102
3, 352440, Note_on_c, 0, 68, 94
3, 352603, Note_on_c, 0, 68, 0
3, 352603, Note_on_c, 0, 80, 0
3, 352620, Note_on_c, 0, 78, 80
3, 352620, Note_on_c, 0, 66, 76
3, 352783, Note_on_c, 0, 66, 0
3, 352783, Note_on_c, 0, 78, 0
3, 352800, Note_on_c, 0, 76, 78
3, 352800, Note_on_c, 0, 64, 80
3, 352963, Note_on_c, 0, 64, 0
3, 352963, Note_on_c, 0, 76, 0
3, 352980, Note_on_c, 0, 75, 76
3, 352980, Note_on_c, 0, 63, 74
3, 353143, Note_on_c, 0, 63, 0
3, 353143, Note_on_c, 0, 75, 0
3, 353160, Note_on_c, 0, 76, 87
3, 353160, Note_on_c, 0, 64, 51
3, 353323, Note_on_c, 0, 64, 0
3, 353323, Note_on_c, 0, 76, 0
3, 353340, Note_on_c, 0, 75, 75
3, 353340, Note_on_c, 0, 63, 50
3, 353503, Note_on_c, 0, 63, 0
3, 353503, Note_on_c, 0, 75, 0
3, 353520, Note_on_c, 0, 73, 77
3, 353520, Note_on_c, 0, 61, 51
3, 353683, Note_on_c, 0, 61, 0
3, 353683, Note_on_c, 0, 73, 0
3, 353700, Note_on_c, 0, 71, 75
3, 353700, Note_on_c, 0, 59, 49
3, 353863, Note_on_c, 0, 59, 0
3, 353863, Note_on_c, 0, 71, 0
3, 353880, Note_on_c, 0, 73, 89
3, 353880, Note_on_c, 0, 61, 57
3, 354043, Note_on_c, 0, 61, 0
3, 354043, Note_on_c, 0, 73, 0
3, 354060, Note_on_c, 0, 71, 74
3, 354060, Note_on_c, 0, 59, 48
3, 354223, Note_on_c, 0, 59, 0
3, 354223, Note_on_c, 0, 71, 0
3, 354240, Note_on_c, 0, 68, 77
3, 354240, Note_on_c, 0, 56, 52
3, 354403, Note_on_c, 0, 56, 0
3, 354403, Note_on_c, 0, 68, 0
3, 354420, Note_on_c, 0, 71, 86
3, 354420, Note_on_c, 0, 59, 54
3, 354583, Note_on_c, 0, 59, 0
3, 354583, Note_on_c, 0, 71, 0
3, 354600, Note_on_c, 0, 68, 76
3, 354600, Note_on_c, 0, 56, 52
3, 354763, Note_on_c, 0, 56, 0
3, 354763, Note_on_c, 0, 68, 0
3, 354780, Note_on_c, 0, 66, 74
3, 354780, Note_on_c, 0, 54, 49
3, 354943, Note_on_c, 0, 54, 0
3, 354943, Note_on_c, 0, 66, 0
3, 354960, Note_on_c, 0, 64, 78
3, 354960, Note_on_c, 0, 52, 53
3, 355123, Note_on_c, 0, 52, 0
3, 355123, Note_on_c, 0, 64, 0
3, 355140, Note_on_c, 0, 68, 88
3, 355140, Note_on_c, 0, 56, 55
3, 355303, Note_on_c, 0, 56, 0
3, 355303, Note_on_c, 0, 68, 0
3, 355320, Note_on_c, 0, 64, 74
3, 355320, Note_on_c, 0, 52, 51
3, 355483, Note_on_c, 0, 52, 0
3, 355483, Note_on_c, 0, 64, 0
3, 355500, Note_on_c, 0, 63, 74
3, 355500, Note_on_c, 0, 51, 49
3, 355663, Note_on_c, 0, 51, 0
3, 355663, Note_on_c, 0, 63, 0
3, 355680, Note_on_c, 0, 61, 79
3, 355680, Note_on_c, 0, 49, 54
3, 355843, Note_on_c, 0, 49, 0
3, 355843, Note_on_c, 0, 61, 0
3, 355860, Note_on_c, 0, 64, 87
3, 355860, Note_on_c, 0, 52, 55
3, 356023, Note_on_c, 0, 52, 0
3, 356023, Note_on_c, 0, 64, 0
3, 356040, Note_on_c, 0, 61, 79
3, 356040, Note_on_c, 0, 49, 54
3, 356203, Note_on_c, 0, 49, 0
3, 356203, Note_on_c, 0, 61, 0
3, 356220, Note_on_c, 0, 59, 75
3, 356220, Note_on_c, 0, 47, 50
3, 356383, Note_on_c, 0, 59, 0
3, 356383, Note_on_c, 0, 47, 0
3, 356400, Note_on_c, 0, 28, 60
3, 356400, Note_on_c, 0, 40, 61
3, 356760, Note_on_c, 0, 56, 76
3, 356923, Note_on_c, 0, 56, 0
3, 356940, Note_on_c, 0, 58, 85
3, 357103, Note_on_c, 0, 58, 0
3, 357120, Note_on_c, 0, 59, 89
3, 357283, Note_on_c, 0, 59, 0
3, 357300, Note_on_c, 0, 60, 86
3, 357463, Note_on_c, 0, 60, 0
3, 357480, Note_on_c, 0, 61, 87
3, 357643, Note_on_c, 0, 61, 0
3, 357660, Note_on_c, 0, 56, 73
3, 357823, Note_on_c, 0, 56, 0
3, 357840, Note_on_c, 0, 58, 87
3, 358003, Note_on_c, 0, 58, 0
3, 358020, Note_on_c, 0, 60, 84
3, 358183, Note_on_c, 0, 60, 0
3, 358200, Note_on_c, 0, 61, 87
3, 358363, Note_on_c, 0, 61, 0
3, 358380, Note_on_c, 0, 63, 87
3, 358543, Note_on_c, 0, 63, 0
3, 358560, Note_on_c, 0, 64, 89
3, 358723, Note_on_c, 0, 64, 0
3, 358740, Note_on_c, 0, 59, 70
3, 358903, Note_on_c, 0, 59, 0
3, 358920, Note_on_c, 0, 61, 87
3, 359083, Note_on_c, 0, 61, 0
3, 359100, Note_on_c, 0, 63, 84
3, 359263, Note_on_c, 0, 63, 0
3, 359280, Note_on_c, 0, 64, 90
3, 359443, Note_on_c, 0, 64, 0
3, 359460, Note_on_c, 0, 66, 88
3, 359623, Note_on_c, 0, 66, 0
3, 359640, Note_on_c, 0, 68, 89
3, 359803, Note_on_c, 0, 68, 0
3, 359820, Note_on_c, 0, 66, 75
3, 359983, Note_on_c, 0, 66, 0
3, 360000, Note_on_c, 0, 64, 78
3, 360163, Note_on_c, 0, 64, 0
3, 360180, Note_on_c, 0, 63, 75
3, 360343, Note_on_c, 0, 63, 0
3, 360360, Note_on_c, 0, 64, 84
3, 360523, Note_on_c, 0, 64, 0
3, 360540, Note_on_c, 0, 66, 85
3, 360650, Note_on_c, 0, 28, 0
3, 360650, Note_on_c, 0, 40, 0
3, 360703, Note_on_c, 0, 66, 0
3, 360720, Note_on_c, 0, 68, 89
3, 360720, Note_on_c, 0, 40, 71
3, 360720, Note_on_c, 0, 52, 69
3, 361045, Note_on_c, 0, 52, 0
3, 361045, Note_on_c, 0, 68, 0
3, 361045, Note_on_c, 0, 40, 0
3, 361080, Note_on_c, 0, 68, 84
3, 361080, Note_on_c, 0, 58, 67
3, 361080, Note_on_c, 0, 61, 69
3, 361080, Note_on_c, 0, 64, 68
3, 361243, Note_on_c, 0, 68, 0
3, 361260, Note_on_c, 0, 70, 84
3, 361405, Note_on_c, 0, 61, 0
3, 361405, Note_on_c, 0, 58, 0
3, 361405, Note_on_c, 0, 64, 0
3, 361423, Note_on_c, 0, 70, 0
3, 361440, Note_on_c, 0, 71, 87
3, 361440, Note_on_c, 0, 61, 62
3, 361440, Note_on_c, 0, 64, 62
3, 361440, Note_on_c, 0, 68, 60
3, 361603, Note_on_c, 0, 71, 0
3, 361620, Note_on_c, 0, 72, 85
3, 361765, Note_on_c, 0, 64, 0
3, 361765, Note_on_c, 0, 61, 0
3, 361765, Note_on_c, 0, 68, 0
3, 361783, Note_on_c, 0, 72, 0
3, 361800, Note_on_c, 0, 73, 88
3, 361963, Note_on_c, 0, 73, 0
3, 361980, Note_on_c, 0, 68, 71
3, 362143, Note_on_c, 0, 68, 0
3, 362160, Note_on_c, 0, 70, 86
3, 362160, Note_on_c, 0, 58, 48
3, 362160, Note_on_c, 0, 61, 47
3, 362160, Note_on_c, 0, 64, 50
3, 362323, Note_on_c, 0, 70, 0
3, 362340, Note_on_c, 0, 72, 86
3, 362485, Note_on_c, 0, 61, 0
3, 362485, Note_on_c, 0, 58, 0
3, 362485, Note_on_c, 0, 64, 0
3, 362503, Note_on_c, 0, 72, 0
3, 362520, Note_on_c, 0, 73, 87
3, 362520, Note_on_c, 0, 61, 55
3, 362520, Note_on_c, 0, 64, 56
3, 362520, Note_on_c, 0, 68, 57
3, 362683, Note_on_c, 0, 73, 0
3, 362700, Note_on_c, 0, 75, 86
3, 362845, Note_on_c, 0, 64, 0
3, 362845, Note_on_c, 0, 61, 0
3, 362845, Note_on_c, 0, 68, 0
3, 362863, Note_on_c, 0, 75, 0
3, 362880, Note_on_c, 0, 76, 86
3, 363205, Note_on_c, 0, 76, 0
3, 363240, Note_on_c, 0, 73, 78
3, 363240, Note_on_c, 0, 56, 47
3, 363240, Note_on_c, 0, 59, 47
3, 363240, Note_on_c, 0, 64, 49
3, 363403, Note_on_c, 0, 73, 0
3, 363420, Note_on_c, 0, 75, 86
3, 363565, Note_on_c, 0, 59, 0
3, 363565, Note_on_c, 0, 56, 0
3, 363565, Note_on_c, 0, 64, 0
3, 363583, Note_on_c, 0, 75, 0
3, 363600, Note_on_c, 0, 76, 87
3, 363600, Note_on_c, 0, 56, 57
3, 363600, Note_on_c, 0, 64, 57
3, 363600, Note_on_c, 0, 68, 56
3, 363763, Note_on_c, 0, 76, 0
3, 363780, Note_on_c, 0, 78, 87
3, 363925, Note_on_c, 0, 64, 0
3, 363925, Note_on_c, 0, 56, 0
3, 363925, Note_on_c, 0, 68, 0
3, 363943, Note_on_c, 0, 78, 0
3, 363960, Note_on_c, 0, 80, 90
3, 364123, Note_on_c, 0, 80, 0
3, 364140, Note_on_c, 0, 78, 78
3, 364303, Note_on_c, 0, 78, 0
3, 364320, Note_on_c, 0, 80, 89
3, 364320, Note_on_c, 0, 56, 47
3, 364320, Note_on_c, 0, 59, 49
3, 364320, Note_on_c, 0, 64, 49
3, 364483, Note_on_c, 0, 80, 0
3, 364500, Note_on_c, 0, 83, 87
3, 364645, Note_on_c, 0, 59, 0
3, 364645, Note_on_c, 0, 56, 0
3, 364645, Note_on_c, 0, 64, 0
3, 364663, Note_on_c, 0, 83, 0
3, 364680, Note_on_c, 0, 76, 96
3, 364680, Note_on_c, 0, 88, 94
3, 364680, Note_on_c, 0, 56, 54
3, 364680, Note_on_c, 0, 59, 52
3, 364680, Note_on_c, 0, 64, 52
3, 364843, Note_on_c, 0, 88, 0
3, 364843, Note_on_c, 0, 76, 0
3, 364860, Note_on_c, 0, 78, 86
3, 364860, Note_on_c, 0, 90, 86
3, 365005, Note_on_c, 0, 59, 0
3, 365005, Note_on_c, 0, 56, 0
3, 365005, Note_on_c, 0, 64, 0
3, 365023, Note_on_c, 0, 90, 0
3, 365023, Note_on_c, 0, 78, 0
3, 365040, Note_on_c, 0, 79, 87
3, 365040, Note_on_c, 0, 83, 89
3, 365040, Note_on_c, 0, 86, 88
3, 365040, Note_on_c, 0, 91, 88
3, 365040, Note_on_c, 0, 55, 88
3, 365040, Note_on_c, 0, 59, 86
3, 365040, Note_on_c, 0, 62, 85
3, 365040, Note_on_c, 0, 67, 87
3, 366050, Note_on_c, 0, 67, 0
3, 366050, Note_on_c, 0, 79, 0
3, 366050, Note_on_c, 0, 83, 0
3, 366050, Note_on_c, 0, 62, 0
3, 366050, Note_on_c, 0, 86, 0
3, 366050, Note_on_c, 0, 55, 0
3, 366050, Note_on_c, 0, 59, 0
3, 366050, Note_on_c, 0, 91, 0
3, 366120, Note_on_c, 0, 78, 84
3, 366120, Note_on_c, 0, 90, 84
3, 366120, Note_on_c, 0, 83, 103
3, 366120, Note_on_c, 0, 86, 103
3, 366120, Note_on_c, 0, 55, 59
3, 366120, Note_on_c, 0, 59, 59
3, 366120, Note_on_c, 0, 62, 61
3, 366120, Note_on_c, 0, 66, 61
3, 366840, Note_on_c, 0, 66, 0
3, 366840, Note_on_c, 0, 62, 0
3, 366840, Note_on_c, 0, 55, 0
3, 366840, Note_on_c, 0, 78, 0
3, 366840, Note_on_c, 0, 59, 0
3, 366840, Note_on_c, 0, 90, 0
3, 366840, Note_on_c, 0, 76, 77
3, 366840, Note_on_c, 0, 88, 75
3, 366840, Note_on_c, 0, 64, 50
3, 367130, Note_on_c, 0, 86, 0
3, 367130, Note_on_c, 0, 83, 0
3, 367165, Note_on_c, 0, 88, 0
3, 367165, Note_on_c, 0, 76, 0
3, 367165, Note_on_c, 0, 64, 0
3, 367200, Note_on_c, 0, 73, 81
3, 367200, Note_on_c, 0, 79, 80
3, 367200, Note_on_c, 0, 83, 82
3, 367200, Note_on_c, 0, 85, 81
3, 367200, Note_on_c, 0, 50, 62
3, 367200, Note_on_c, 0, 55, 63
3, 367200, Note_on_c, 0, 59, 59
3, 367200, Note_on_c, 0, 64, 60
3, 367920, Note_on_c, 0, 64, 0
3, 367920, Note_on_c, 0, 73, 0
3, 367920, Note_on_c, 0, 79, 0
3, 367920, Note_on_c, 0, 59, 0
3, 367920, Note_on_c, 0, 83, 0
3, 367920, Note_on_c, 0, 50, 0
3, 367920, Note_on_c, 0, 55, 0
3, 367920, Note_on_c, 0, 85, 0
3, 367920, Note_on_c, 0, 76, 93
3, 367920, Note_on_c, 0, 79, 92
3, 367920, Note_on_c, 0, 83, 93
3, 367920, Note_on_c, 0, 88, 93
3, 367920, Note_on_c, 0, 50, 56
3, 367920, Note_on_c, 0, 55, 52
3, 367920, Note_on_c, 0, 59, 53
3, 367920, Note_on_c, 0, 61, 55
3, 368605, Note_on_c, 0, 61, 0
3, 368605, Note_on_c, 0, 76, 0
3, 368605, Note_on_c, 0, 79, 0
3, 368605, Note_on_c, 0, 59, 0
3, 368605, Note_on_c, 0, 83, 0
3, 368605, Note_on_c, 0, 50, 0
3, 368605, Note_on_c, 0, 55, 0
3, 368605, Note_on_c, 0, 88, 0
3, 368640, Note_on_c, 0, 74, 83
3, 368640, Note_on_c, 0, 79, 82
3, 368640, Note_on_c, 0, 83, 80
3, 368640, Note_on_c, 0, 86, 82
3, 368640, Note_on_c, 0, 50, 62
3, 368640, Note_on_c, 0, 55, 60
3, 368640, Note_on_c, 0, 59, 63
3, 368640, Note_on_c, 0, 62, 61
3, 369360, Note_on_c, 0, 62, 0
3, 369360, Note_on_c, 0, 74, 0
3, 369360, Note_on_c, 0, 79, 0
3, 369360, Note_on_c, 0, 59, 0
3, 369360, Note_on_c, 0, 83, 0
3, 369360, Note_on_c, 0, 50, 0
3, 369360, Note_on_c, 0, 55, 0
3, 369360, Note_on_c, 0, 86, 0
3, 369360, Note_on_c, 0, 71, 101
3, 369360, Note_on_c, 0, 76, 97
3, 369360, Note_on_c, 0, 79, 99
3, 369360, Note_on_c, 0, 83, 98
3, 369360, Note_on_c, 0, 50, 87
3, 369360, Note_on_c, 0, 55, 86
3, 369360, Note_on_c, 0, 60, 85
3, 369360, Note_on_c, 0, 64, 87
3, 370370, Note_on_c, 0, 64, 0
3, 370370, Note_on_c, 0, 71, 0
3, 370370, Note_on_c, 0, 76, 0
3, 370370, Note_on_c, 0, 60, 0
3, 370370, Note_on_c, 0, 79, 0
3, 370370, Note_on_c, 0, 50, 0
3, 370370, Note_on_c, 0, 55, 0
3, 370370, Note_on_c, 0, 83, 0
3, 370440, Note_on_c, 0, 69, 85
3, 370440, Note_on_c, 0, 81, 81
3, 370440, Note_on_c, 0, 72, 69
3, 370440, Note_on_c, 0, 76, 70
3, 370440, Note_on_c, 0, 50, 50
3, 370440, Note_on_c, 0, 55, 49
3, 370440, Note_on_c, 0, 60, 51
3, 371160, Note_on_c, 0, 81, 0
3, 371160, Note_on_c, 0, 69, 0
3, 371160, Note_on_c, 0, 67, 75
3, 371160, Note_on_c, 0, 79, 75
3, 371450, Note_on_c, 0, 55, 0
3, 371450, Note_on_c, 0, 60, 0
3, 371450, Note_on_c, 0, 72, 0
3, 371450, Note_on_c, 0, 76, 0
3, 371450, Note_on_c, 0, 50, 0
3, 371485, Note_on_c, 0, 67, 0
3, 371485, Note_on_c, 0, 79, 0
3, 371520, Note_on_c, 0, 64, 82
3, 371520, Note_on_c, 0, 67, 83
3, 371520, Note_on_c, 0, 72, 83
3, 371520, Note_on_c, 0, 76, 83
3, 371520, Note_on_c, 0, 50, 54
3, 371520, Note_on_c, 0, 57, 54
3, 371520, Note_on_c, 0, 60, 56
3, 372170, Note_on_c, 0, 60, 0
3, 372170, Note_on_c, 0, 57, 0
3, 372170, Note_on_c, 0, 50, 0
3, 372240, Note_on_c, 0, 72, 0
3, 372240, Note_on_c, 0, 67, 0
3, 372240, Note_on_c, 0, 64, 0
3, 372240, Note_on_c, 0, 76, 0
3, 372240, Note_on_c, 0, 63, 80
3, 372240, Note_on_c, 0, 67, 83
3, 372240, Note_on_c, 0, 72, 80
3, 372240, Note_on_c, 0, 75, 80
3, 372240, Note_on_c, 0, 38, 40
3, 372240, Note_on_c, 0, 50, 42
3, 372925, Note_on_c, 0, 50, 0
3, 372925, Note_on_c, 0, 38, 0
3, 372925, Note_on_c, 0, 72, 0
3, 372925, Note_on_c, 0, 67, 0
3, 372925, Note_on_c, 0, 63, 0
3, 372925, Note_on_c, 0, 75, 0
3, 372960, Note_on_c, 0, 62, 82
3, 372960, Note_on_c, 0, 66, 82
3, 372960, Note_on_c, 0, 72, 84
3, 372960, Note_on_c, 0, 74, 85
3, 372960, Note_on_c, 0, 50, 62
3, 372960, Note_on_c, 0, 57, 65
3, 372960, Note_on_c, 0, 60, 62
3, 373610, Note_on_c, 0, 60, 0
3, 373610, Note_on_c, 0, 57, 0
3, 373610, Note_on_c, 0, 50, 0
3, 373680, Note_on_c, 0, 72, 0
3, 373680, Note_on_c, 0, 66, 0
3, 373680, Note_on_c, 0, 62, 0
3, 373680, Note_on_c, 0, 74, 0
3, 373680, Note_on_c, 0, 67, 67
3, 373680, Note_on_c, 0, 31, 44
3, 373680, Note_on_c, 0, 43, 43
3, 373843, Note_on_c, 0, 67, 0
3, 373857, Note_on_c, 0, 31, 0
3, 373857, Note_on_c, 0, 43, 0
3, 373860, Note_on_c, 0, 60, 65
3, 374023, Note_on_c, 0, 60, 0
3, 374040, Note_on_c, 0, 59, 77
3, 374203, Note_on_c, 0, 59, 0
3, 374220, Note_on_c, 0, 66, 91
3, 374383, Note_on_c, 0, 66, 0
3, 374400, Note_on_c, 0, 67, 87
3, 374563, Note_on_c, 0, 67, 0
3, 374580, Note_on_c, 0, 63, 74
3, 374743, Note_on_c, 0, 63, 0
3, 374760, Note_on_c, 0, 64, 87
3, 374760, Note_on_c, 0, 37, 50
3, 374760, Note_on_c, 0, 49, 52
3, 374923, Note_on_c, 0, 64, 0
3, 374937, Note_on_c, 0, 37, 0
3, 374937, Note_on_c, 0, 49, 0
3, 374940, Note_on_c, 0, 66, 86
3, 375103, Note_on_c, 0, 66, 0
3, 375120, Note_on_c, 0, 67, 86
3, 375283, Note_on_c, 0, 67, 0
3, 375300, Note_on_c, 0, 66, 79
3, 375463, Note_on_c, 0, 66, 0
3, 375480, Note_on_c, 0, 64, 81
3, 375643, Note_on_c, 0, 64, 0
3, 375660, Note_on_c, 0, 66, 84
3, 375823, Note_on_c, 0, 66, 0
3, 375840, Note_on_c, 0, 67, 88
3, 375840, Note_on_c, 0, 38, 49
3, 375840, Note_on_c, 0, 50, 50
3, 376003, Note_on_c, 0, 67, 0
3, 376017, Note_on_c, 0, 38, 0
3, 376017, Note_on_c, 0, 50, 0
3, 376020, Note_on_c, 0, 59, 64
3, 376183, Note_on_c, 0, 59, 0
3, 376200, Note_on_c, 0, 64, 92
3, 376363, Note_on_c, 0, 64, 0
3, 376380, Note_on_c, 0, 66, 86
3, 376543, Note_on_c, 0, 66, 0
3, 376560, Note_on_c, 0, 67, 90
3, 376723, Note_on_c, 0, 67, 0
3, 376740, Note_on_c, 0, 60, 66
3, 376903, Note_on_c, 0, 60, 0
3, 376920, Note_on_c, 0, 59, 79
3, 376920, Note_on_c, 0, 39, 51
3, 376920, Note_on_c, 0, 51, 49
3, 377083, Note_on_c, 0, 59, 0
3, 377097, Note_on_c, 0, 39, 0
3, 377097, Note_on_c, 0, 51, 0
3, 377100, Note_on_c, 0, 67, 94
3, 377263, Note_on_c, 0, 67, 0
3, 377280, Note_on_c, 0, 71, 92
3, 377443, Note_on_c, 0, 71, 0
3, 377460, Note_on_c, 0, 67, 75
3, 377623, Note_on_c, 0, 67, 0
3, 377640, Note_on_c, 0, 59, 67
3, 377803, Note_on_c, 0, 59, 0
3, 377820, Note_on_c, 0, 69, 96
3, 377983, Note_on_c, 0, 69, 0
3, 378000, Note_on_c, 0, 67, 81
3, 378000, Note_on_c, 0, 40, 50
3, 378000, Note_on_c, 0, 52, 49
3, 378163, Note_on_c, 0, 67, 0
3, 378177, Note_on_c, 0, 40, 0
3, 378177, Note_on_c, 0, 52, 0
3, 378180, Note_on_c, 0, 64, 75
3, 378343, Note_on_c, 0, 64, 0
3, 378360, Note_on_c, 0, 66, 89
3, 378523, Note_on_c, 0, 66, 0
3, 378540, Note_on_c, 0, 64, 77
3, 378703, Note_on_c, 0, 64, 0
3, 378720, Note_on_c, 0, 67, 90
3, 378883, Note_on_c, 0, 67, 0
3, 378900, Note_on_c, 0, 62, 71
3, 379063, Note_on_c, 0, 62, 0
3, 379080, Note_on_c, 0, 64, 88
3, 379080, Note_on_c, 0, 35, 52
3, 379080, Note_on_c, 0, 47, 53
3, 379243, Note_on_c, 0, 64, 0
3, 379257, Note_on_c, 0, 35, 0
3, 379257, Note_on_c, 0, 47, 0
3, 379260, Note_on_c, 0, 62, 76
3, 379423, Note_on_c, 0, 62, 0
3, 379440, Note_on_c, 0, 67, 95
3, 379603, Note_on_c, 0, 67, 0
3, 379620, Note_on_c, 0, 60, 69
3, 379783, Note_on_c, 0, 60, 0
3, 379800, Note_on_c, 0, 59, 78
3, 379963, Note_on_c, 0, 59, 0
3, 379980, Note_on_c, 0, 66, 93
3, 380143, Note_on_c, 0, 66, 0
3, 380160, Note_on_c, 0, 67, 87
3, 380160, Note_on_c, 0, 36, 50
3, 380160, Note_on_c, 0, 48, 53
3, 380323, Note_on_c, 0, 67, 0
3, 380337, Note_on_c, 0, 48, 0
3, 380337, Note_on_c, 0, 36, 0
3, 380340, Note_on_c, 0, 64, 75
3, 380503, Note_on_c, 0, 64, 0
3, 380520, Note_on_c, 0, 66, 87
3, 380683, Note_on_c, 0, 66, 0
3, 380700, Note_on_c, 0, 64, 76
3, 380863, Note_on_c, 0, 64, 0
3, 380880, Note_on_c, 0, 67, 91
3, 381043, Note_on_c, 0, 67, 0
3, 381060, Note_on_c, 0, 66, 80
3, 381223, Note_on_c, 0, 66, 0
3, 381240, Note_on_c, 0, 67, 86
3, 381240, Note_on_c, 0, 37, 52
3, 381240, Note_on_c, 0, 49, 52
3, 381403, Note_on_c, 0, 67, 0
3, 381417, Note_on_c, 0, 37, 0
3, 381417, Note_on_c, 0, 49, 0
3, 381420, Note_on_c, 0, 71, 91
3, 381583, Note_on_c, 0, 71, 0
3, 381600, Note_on_c, 0, 79, 99
3, 381763, Note_on_c, 0, 79, 0
3, 381780, Note_on_c, 0, 71, 70
3, 381943, Note_on_c, 0, 71, 0
3, 381960, Note_on_c, 0, 67, 73
3, 382123, Note_on_c, 0, 67, 0
3, 382140, Note_on_c, 0, 78, 98
3, 382303, Note_on_c, 0, 78, 0
3, 382320, Note_on_c, 0, 71, 88
3, 382320, Note_on_c, 0, 79, 89
3, 382320, Note_on_c, 0, 38, 74
3, 382320, Note_on_c, 0, 50, 71
3, 382497, Note_on_c, 0, 79, 0
3, 382497, Note_on_c, 0, 71, 0
3, 382645, Note_on_c, 0, 38, 0
3, 382645, Note_on_c, 0, 50, 0
3, 382680, Note_on_c, 0, 72, 71
3, 382680, Note_on_c, 0, 59, 64
3, 382680, Note_on_c, 0, 64, 66
3, 382680, Note_on_c, 0, 67, 63
3, 382843, Note_on_c, 0, 72, 0
3, 382857, Note_on_c, 0, 64, 0
3, 382857, Note_on_c, 0, 59, 0
3, 382857, Note_on_c, 0, 67, 0
3, 382860, Note_on_c, 0, 71, 75
3, 383023, Note_on_c, 0, 71, 0
3, 383040, Note_on_c, 0, 78, 83
3, 383040, Note_on_c, 0, 78, 97
3, 383040, Note_on_c, 0, 59, 52
3, 383040, Note_on_c, 0, 62, 51
3, 383040, Note_on_c, 0, 66, 51
3, 383203, Note_on_c, 0, 78, 0
3, 383217, Note_on_c, 0, 62, 0
3, 383217, Note_on_c, 0, 59, 0
3, 383217, Note_on_c, 0, 66, 0
3, 383220, Note_on_c, 0, 74, 75
3, 383365, Note_on_c, 0, 78, 0
3, 383383, Note_on_c, 0, 74, 0
3, 383400, Note_on_c, 0, 72, 78
3, 383563, Note_on_c, 0, 72, 0
3, 383580, Note_on_c, 0, 71, 77
3, 383743, Note_on_c, 0, 71, 0
3, 383760, Note_on_c, 0, 76, 75
3, 383760, Note_on_c, 0, 76, 94
3, 383760, Note_on_c, 0, 55, 49
3, 383760, Note_on_c, 0, 60, 46
3, 383760, Note_on_c, 0, 64, 47
3, 383923, Note_on_c, 0, 76, 0
3, 383937, Note_on_c, 0, 60, 0
3, 383937, Note_on_c, 0, 55, 0
3, 383937, Note_on_c, 0, 64, 0
3, 383940, Note_on_c, 0, 72, 74
3, 384085, Note_on_c, 0, 76, 0
3, 384103, Note_on_c, 0, 72, 0
3, 384120, Note_on_c, 0, 71, 79
3, 384120, Note_on_c, 0, 55, 47
3, 384120, Note_on_c, 0, 59, 50
3, 384120, Note_on_c, 0, 62, 47
3, 384283, Note_on_c, 0, 71, 0
3, 384297, Note_on_c, 0, 59, 0
3, 384297, Note_on_c, 0, 55, 0
3, 384297, Note_on_c, 0, 62, 0
3, 384300, Note_on_c, 0, 67, 73
3, 384463, Note_on_c, 0, 67, 0
3, 384480, Note_on_c, 0, 74, 77
3, 384480, Note_on_c, 0, 74, 96
3, 384643, Note_on_c, 0, 74, 0
3, 384660, Note_on_c, 0, 71, 76
3, 384805, Note_on_c, 0, 74, 0
3, 384823, Note_on_c, 0, 71, 0
3, 384840, Note_on_c, 0, 67, 74
3, 384840, Note_on_c, 0, 55, 50
3, 384840, Note_on_c, 0, 59, 47
3, 384840, Note_on_c, 0, 62, 48
3, 385003, Note_on_c, 0, 67, 0
3, 385017, Note_on_c, 0, 59, 0
3, 385017, Note_on_c, 0, 55, 0
3, 385017, Note_on_c, 0, 62, 0
3, 385020, Note_on_c, 0, 64, 72
3, 385183, Note_on_c, 0, 64, 0
3, 385200, Note_on_c, 0, 72, 76
3, 385200, Note_on_c, 0, 72, 96
3, 385200, Note_on_c, 0, 55, 49
3, 385200, Note_on_c, 0, 60, 47
3, 385363, Note_on_c, 0, 72, 0
3, 385377, Note_on_c, 0, 55, 0
3, 385377, Note_on_c, 0, 60, 0
3, 385380, Note_on_c, 0, 69, 77
3, 385525, Note_on_c, 0, 72, 0
3, 385543, Note_on_c, 0, 69, 0
3, 385560, Note_on_c, 0, 67, 80
3, 385723, Note_on_c, 0, 67, 0
3, 385740, Note_on_c, 0, 64, 72
3, 385903, Note_on_c, 0, 64, 0
3, 385920, Note_on_c, 0, 71, 75
3, 385920, Note_on_c, 0, 71, 95
3, 385920, Note_on_c, 0, 50, 49
3, 385920, Note_on_c, 0, 55, 48
3, 385920, Note_on_c, 0, 59, 47
3, 386083, Note_on_c, 0, 71, 0
3, 386097, Note_on_c, 0, 55, 0
3, 386097, Note_on_c, 0, 50, 0
3, 386097, Note_on_c, 0, 59, 0
3, 386100, Note_on_c, 0, 67, 75
3, 386245, Note_on_c, 0, 71, 0
3, 386263, Note_on_c, 0, 67, 0
3, 386280, Note_on_c, 0, 71, 90
3, 386443, Note_on_c, 0, 71, 0
3, 386460, Note_on_c, 0, 74, 87
3, 386623, Note_on_c, 0, 74, 0
3, 386640, Note_on_c, 0, 71, 94
3, 386640, Note_on_c, 0, 79, 94
3, 386640, Note_on_c, 0, 40, 72
3, 386640, Note_on_c, 0, 52, 72
3, 386817, Note_on_c, 0, 79, 0
3, 386817, Note_on_c, 0, 71, 0
3, 386965, Note_on_c, 0, 40, 0
3, 386965, Note_on_c, 0, 52, 0
3, 387000, Note_on_c, 0, 73, 73
3, 387000, Note_on_c, 0, 59, 65
3, 387000, Note_on_c, 0, 61, 66
3, 387000, Note_on_c, 0, 67, 65
3, 387163, Note_on_c, 0, 73, 0
3, 387177, Note_on_c, 0, 61, 0
3, 387177, Note_on_c, 0, 59, 0
3, 387177, Note_on_c, 0, 67, 0
3, 387180, Note_on_c, 0, 67, 67
3, 387343, Note_on_c, 0, 67, 0
3, 387360, Note_on_c, 0, 78, 95
3, 387360, Note_on_c, 0, 78, 102
3, 387360, Note_on_c, 0, 59, 53
3, 387360, Note_on_c, 0, 61, 54
3, 387360, Note_on_c, 0, 66, 52
3, 387523, Note_on_c, 0, 78, 0
3, 387537, Note_on_c, 0, 61, 0
3, 387537, Note_on_c, 0, 59, 0
3, 387537, Note_on_c, 0, 66, 0
3, 387540, Note_on_c, 0, 74, 76
3, 387685, Note_on_c, 0, 78, 0
3, 387703, Note_on_c, 0, 74, 0
3, 387720, Note_on_c, 0, 73, 78
3, 387883, Note_on_c, 0, 73, 0
3, 387900, Note_on_c, 0, 67, 68
3, 388063, Note_on_c, 0, 67, 0
3, 388080, Note_on_c, 0, 76, 77
3, 388080, Note_on_c, 0, 76, 97
3, 388080, Note_on_c, 0, 55, 49
3, 388080, Note_on_c, 0, 59, 48
3, 388080, Note_on_c, 0, 64, 46
3, 388243, Note_on_c, 0, 76, 0
3, 388257, Note_on_c, 0, 59, 0
3, 388257, Note_on_c, 0, 55, 0
3, 388257, Note_on_c, 0, 64, 0
3, 388260, Note_on_c, 0, 73, 74
3, 388405, Note_on_c, 0, 76, 0
3, 388423, Note_on_c, 0, 73, 0
3, 388440, Note_on_c, 0, 71, 77
3, 388440, Note_on_c, 0, 55, 48
3, 388440, Note_on_c, 0, 59, 50
3, 388440, Note_on_c, 0, 62, 49
3, 388603, Note_on_c, 0, 71, 0
3, 388617, Note_on_c, 0, 59, 0
3, 388617, Note_on_c, 0, 55, 0
3, 388617, Note_on_c, 0, 62, 0
3, 388620, Note_on_c, 0, 67, 71
3, 388783, Note_on_c, 0, 67, 0
3, 388800, Note_on_c, 0, 74, 78
3, 388800, Note_on_c, 0, 74, 94
3, 388963, Note_on_c, 0, 74, 0
3, 388980, Note_on_c, 0, 71, 77
3, 389125, Note_on_c, 0, 74, 0
3, 389143, Note_on_c, 0, 71, 0
3, 389160, Note_on_c, 0, 69, 80
3, 389160, Note_on_c, 0, 55, 49
3, 389160, Note_on_c, 0, 62, 49
3, 389160, Note_on_c, 0, 66, 50
3, 389323, Note_on_c, 0, 69, 0
3, 389340, Note_on_c, 0, 67, 77
3, 389485, Note_on_c, 0, 62, 0
3, 389485, Note_on_c, 0, 55, 0
3, 389485, Note_on_c, 0, 66, 0
3, 389503, Note_on_c, 0, 67, 0
3, 389520, Note_on_c, 0, 72, 74
3, 389520, Note_on_c, 0, 73, 94
3, 389520, Note_on_c, 0, 55, 49
3, 389520, Note_on_c, 0, 61, 50
3, 389520, Note_on_c, 0, 64, 48
3, 389683, Note_on_c, 0, 73, 0
3, 389700, Note_on_c, 0, 71, 77
3, 389845, Note_on_c, 0, 61, 0
3, 389845, Note_on_c, 0, 55, 0
3, 389845, Note_on_c, 0, 72, 0
3, 389845, Note_on_c, 0, 64, 0
3, 389863, Note_on_c, 0, 71, 0
3, 389880, Note_on_c, 0, 69, 78
3, 390043, Note_on_c, 0, 69, 0
3, 390060, Note_on_c, 0, 67, 74
3, 390223, Note_on_c, 0, 67, 0
3, 390240, Note_on_c, 0, 71, 77
3, 390240, Note_on_c, 0, 71, 93
3, 390240, Note_on_c, 0, 55, 48
3, 390240, Note_on_c, 0, 59, 49
3, 390240, Note_on_c, 0, 62, 47
3, 390403, Note_on_c, 0, 71, 0
3, 390420, Note_on_c, 0, 74, 89
3, 390565, Note_on_c, 0, 59, 0
3, 390565, Note_on_c, 0, 55, 0
3, 390565, Note_on_c, 0, 71, 0
3, 390565, Note_on_c, 0, 62, 0
3, 390583, Note_on_c, 0, 74, 0
3, 390600, Note_on_c, 0, 79, 96
3, 390763, Note_on_c, 0, 79, 0
3, 390780, Note_on_c, 0, 74, 72
3, 390943, Note_on_c, 0, 74, 0
3, 390960, Note_on_c, 0, 79, 127
3, 390960, Note_on_c, 0, 83, 127
3, 390960, Note_on_c, 0, 33, 51
3, 390960, Note_on_c, 0, 45, 51
3, 391123, Note_on_c, 0, 83, 0
3, 391123, Note_on_c, 0, 79, 0
3, 391140, Note_on_c, 0, 74, 68
3, 391285, Note_on_c, 0, 33, 0
3, 391285, Note_on_c, 0, 45, 0
3, 391303, Note_on_c, 0, 74, 0
3, 391320, Note_on_c, 0, 73, 78
3, 391320, Note_on_c, 0, 55, 65
3, 391320, Note_on_c, 0, 61, 65
3, 391320, Note_on_c, 0, 67, 65
3, 391483, Note_on_c, 0, 73, 0
3, 391500, Note_on_c, 0, 76, 86
3, 391645, Note_on_c, 0, 61, 0
3, 391645, Note_on_c, 0, 55, 0
3, 391645, Note_on_c, 0, 67, 0
3, 391663, Note_on_c, 0, 76, 0
3, 391680, Note_on_c, 0, 78, 93
3, 391680, Note_on_c, 0, 81, 95
3, 391680, Note_on_c, 0, 55, 54
3, 391680, Note_on_c, 0, 61, 54
3, 391680, Note_on_c, 0, 66, 52
3, 391843, Note_on_c, 0, 81, 0
3, 391843, Note_on_c, 0, 78, 0
3, 391860, Note_on_c, 0, 73, 67
3, 392005, Note_on_c, 0, 61, 0
3, 392005, Note_on_c, 0, 55, 0
3, 392005, Note_on_c, 0, 66, 0
3, 392023, Note_on_c, 0, 73, 0
3, 392040, Note_on_c, 0, 71, 76
3, 392203, Note_on_c, 0, 71, 0
3, 392220, Note_on_c, 0, 73, 82
3, 392383, Note_on_c, 0, 73, 0
3, 392400, Note_on_c, 0, 76, 126
3, 392400, Note_on_c, 0, 79, 126
3, 392400, Note_on_c, 0, 55, 46
3, 392400, Note_on_c, 0, 61, 48
3, 392400, Note_on_c, 0, 64, 49
3, 392400, Note_on_c, 0, 67, 50
3, 392563, Note_on_c, 0, 79, 0
3, 392563, Note_on_c, 0, 76, 0
3, 392580, Note_on_c, 0, 69, 64
3, 392725, Note_on_c, 0, 61, 0
3, 392725, Note_on_c, 0, 67, 0
3, 392725, Note_on_c, 0, 55, 0
3, 392725, Note_on_c, 0, 64, 0
3, 392743, Note_on_c, 0, 69, 0
3, 392760, Note_on_c, 0, 67, 77
3, 392760, Note_on_c, 0, 55, 49
3, 392760, Note_on_c, 0, 61, 50
3, 392760, Note_on_c, 0, 64, 48
3, 392923, Note_on_c, 0, 67, 0
3, 392940, Note_on_c, 0, 69, 86
3, 393085, Note_on_c, 0, 61, 0
3, 393085, Note_on_c, 0, 55, 0
3, 393085, Note_on_c, 0, 64, 0
3, 393103, Note_on_c, 0, 69, 0
3, 393120, Note_on_c, 0, 74, 127
3, 393120, Note_on_c, 0, 78, 127
3, 393120, Note_on_c, 0, 33, 58
3, 393120, Note_on_c, 0, 45, 59
3, 393283, Note_on_c, 0, 78, 0
3, 393283, Note_on_c, 0, 74, 0
3, 393300, Note_on_c, 0, 67, 65
3, 393445, Note_on_c, 0, 33, 0
3, 393445, Note_on_c, 0, 45, 0
3, 393463, Note_on_c, 0, 67, 0
3, 393480, Note_on_c, 0, 66, 76
3, 393480, Note_on_c, 0, 55, 61
3, 393480, Note_on_c, 0, 59, 62
3, 393480, Note_on_c, 0, 62, 63
3, 393643, Note_on_c, 0, 66, 0
3, 393657, Note_on_c, 0, 59, 0
3, 393657, Note_on_c, 0, 55, 0
3, 393657, Note_on_c, 0, 62, 0
3, 393660, Note_on_c, 0, 67, 84
3, 393823, Note_on_c, 0, 67, 0
3, 393840, Note_on_c, 0, 73, 127
3, 393840, Note_on_c, 0, 76, 127
3, 393840, Note_on_c, 0, 55, 51
3, 393840, Note_on_c, 0, 57, 50
3, 393840, Note_on_c, 0, 61, 52
3, 394003, Note_on_c, 0, 76, 0
3, 394003, Note_on_c, 0, 73, 0
3, 394017, Note_on_c, 0, 57, 0
3, 394017, Note_on_c, 0, 55, 0
3, 394017, Note_on_c, 0, 61, 0
3, 394020, Note_on_c, 0, 67, 66
3, 394183, Note_on_c, 0, 67, 0
3, 394200, Note_on_c, 0, 66, 77
3, 394363, Note_on_c, 0, 66, 0
3, 394380, Note_on_c, 0, 67, 83
3, 394543, Note_on_c, 0, 67, 0
3, 394560, Note_on_c, 0, 71, 127
3, 394560, Note_on_c, 0, 74, 127
3, 394560, Note_on_c, 0, 55, 50
3, 394560, Note_on_c, 0, 59, 49
3, 394560, Note_on_c, 0, 62, 48
3, 394723, Note_on_c, 0, 74, 0
3, 394723, Note_on_c, 0, 71, 0
3, 394737, Note_on_c, 0, 59, 0
3, 394737, Note_on_c, 0, 55, 0
3, 394737, Note_on_c, 0, 62, 0
3, 394740, Note_on_c, 0, 64, 64
3, 394903, Note_on_c, 0, 64, 0
3, 394920, Note_on_c, 0, 66, 85
3, 394920, Note_on_c, 0, 55, 50
3, 394920, Note_on_c, 0, 59, 48
3, 395083, Note_on_c, 0, 66, 0
3, 395097, Note_on_c, 0, 55, 0
3, 395097, Note_on_c, 0, 59, 0
3, 395100, Note_on_c, 0, 67, 83
3, 395263, Note_on_c, 0, 67, 0
3, 395280, Note_on_c, 0, 71, 103
3, 395280, Note_on_c, 0, 74, 104
3, 395280, Note_on_c, 0, 38, 45
3, 395280, Note_on_c, 0, 50, 46
3, 395457, Note_on_c, 0, 50, 0
3, 395457, Note_on_c, 0, 38, 0
3, 395460, Note_on_c, 0, 71, 0
3, 395460, Note_on_c, 0, 74, 0
3, 395460, Note_on_c, 0, 64, 66
3, 395623, Note_on_c, 0, 64, 0
3, 395640, Note_on_c, 0, 66, 85
3, 395803, Note_on_c, 0, 66, 0
3, 395820, Note_on_c, 0, 67, 83
3, 395983, Note_on_c, 0, 67, 0
3, 396000, Note_on_c, 0, 69, 102
3, 396000, Note_on_c, 0, 72, 101
3, 396180, Note_on_c, 0, 72, 0
3, 396180, Note_on_c, 0, 69, 0
3, 396180, Note_on_c, 0, 64, 66
3, 396343, Note_on_c, 0, 64, 0
3, 396360, Note_on_c, 0, 66, 85
3, 396523, Note_on_c, 0, 66, 0
3, 396540, Note_on_c, 0, 67, 84
3, 396720, Note_on_c, 0, 71, 100
3, 396900, Note_on_c, 0, 71, 0
3, 396900, Note_on_c, 0, 67, 0
3, 396900, Note_on_c, 0, 60, 62
3, 397063, Note_on_c, 0, 60, 0
3, 397080, Note_on_c, 0, 62, 86
3, 397243, Note_on_c, 0, 62, 0
3, 397260, Note_on_c, 0, 64, 83
3, 397423, Note_on_c, 0, 64, 0
3, 397440, Note_on_c, 0, 67, 93
3, 397440, Note_on_c, 0, 38, 50
3, 397440, Note_on_c, 0, 50, 50
3, 397603, Note_on_c, 0, 67, 0
3, 397617, Note_on_c, 0, 38, 0
3, 397617, Note_on_c, 0, 50, 0
3, 397620, Note_on_c, 0, 64, 73
3, 397783, Note_on_c, 0, 64, 0
3, 397800, Note_on_c, 0, 72, 98
3, 397963, Note_on_c, 0, 72, 0
3, 397980, Note_on_c, 0, 67, 74
3, 398143, Note_on_c, 0, 67, 0
3, 398160, Note_on_c, 0, 76, 100
3, 398160, Note_on_c, 0, 76, 85
3, 398323, Note_on_c, 0, 76, 0
3, 398340, Note_on_c, 0, 72, 74
3, 398485, Note_on_c, 0, 76, 0
3, 398503, Note_on_c, 0, 72, 0
3, 398520, Note_on_c, 0, 71, 78
3, 398520, Note_on_c, 0, 38, 53
3, 398520, Note_on_c, 0, 50, 51
3, 398683, Note_on_c, 0, 71, 0
3, 398697, Note_on_c, 0, 38, 0
3, 398697, Note_on_c, 0, 50, 0
3, 398700, Note_on_c, 0, 69, 73
3, 398863, Note_on_c, 0, 69, 0
3, 398880, Note_on_c, 0, 74, 93
3, 398880, Note_on_c, 0, 74, 80
3, 399043, Note_on_c, 0, 74, 0
3, 399060, Note_on_c, 0, 71, 75
3, 399205, Note_on_c, 0, 74, 0
3, 399223, Note_on_c, 0, 71, 0
3, 399240, Note_on_c, 0, 69, 77
3, 399403, Note_on_c, 0, 69, 0
3, 399420, Note_on_c, 0, 66, 75
3, 399583, Note_on_c, 0, 66, 0
3, 399600, Note_on_c, 0, 67, 88
3, 399600, Note_on_c, 0, 43, 49
3, 399600, Note_on_c, 0, 50, 49
3, 399777, Note_on_c, 0, 50, 0
3, 399777, Note_on_c, 0, 67, 0
3, 399777, Note_on_c, 0, 43, 0
3, 401040, Note_on_c, 0, 67, 71
3, 401527, Note_on_c, 0, 67, 0
3, 401580, Note_on_c, 0, 66, 75
3, 401743, Note_on_c, 0, 66, 0
3, 401760, Note_on_c, 0, 67, 85
3, 401937, Note_on_c, 0, 67, 0
3, 402480, Note_on_c, 0, 67, 80
3, 403165, Note_on_c, 0, 67, 0
3, 403200, Note_on_c, 0, 67, 80
3, 403687, Note_on_c, 0, 67, 0
3, 403740, Note_on_c, 0, 66, 77
3, 403903, Note_on_c, 0, 66, 0
3, 403920, Note_on_c, 0, 67, 114
3, 403920, Note_on_c, 0, 31, 76
3, 403920, Note_on_c, 0, 43, 74
3, 404097, Note_on_c, 0, 67, 0
3, 405360, Note_on_c, 0, 55, 50
3, 405847, Note_on_c, 0, 55, 0
3, 405900, Note_on_c, 0, 54, 49
3, 406063, Note_on_c, 0, 54, 0
3, 406080, Note_on_c, 0, 55, 57
3, 406257, Note_on_c, 0, 55, 0
3, 406800, Note_on_c, 0, 55, 60
3, 407485, Note_on_c, 0, 55, 0
3, 407520, Note_on_c, 0, 55, 54
3, 408007, Note_on_c, 0, 55, 0
3, 408060, Note_on_c, 0, 54, 49
3, 408205, Note_on_c, 0, 43, 0
3, 408205, Note_on_c, 0, 31, 0
3, 408223, Note_on_c, 0, 54, 0
3, 408239, Control_c, 0, 64, 127
3, 408240, Note_on_c, 0, 55, 52
3, 408240, Note_on_c, 0, 27, 50
3, 408240, Note_on_c, 0, 39, 48
3, 408403, Note_on_c, 0, 39, 0
3, 408403, Note_on_c, 0, 55, 0
3, 408403, Note_on_c, 0, 27, 0
3, 408420, Note_on_c, 0, 46, 61
3, 408583, Note_on_c, 0, 46, 0
3, 408600, Note_on_c, 0, 51, 75
3, 408600, Note_on_c, 0, 55, 69
3, 408763, Note_on_c, 0, 55, 0
3, 408763, Note_on_c, 0, 51, 0
3, 408780, Note_on_c, 0, 55, 87
3, 408943, Note_on_c, 0, 55, 0
3, 408960, Note_on_c, 0, 58, 91
3, 409123, Note_on_c, 0, 58, 0
3, 409140, Note_on_c, 0, 67, 97
3, 409303, Note_on_c, 0, 67, 0
3, 409320, Note_on_c, 0, 46, 46
3, 409483, Note_on_c, 0, 46, 0
3, 409500, Note_on_c, 0, 55, 61
3, 409663, Note_on_c, 0, 55, 0
3, 409680, Note_on_c, 0, 58, 59
3, 409843, Note_on_c, 0, 58, 0
3, 409860, Control_c, 0, 64, 0
3, 409860, Note_on_c, 0, 55, 52
3, 410023, Note_on_c, 0, 55, 0
3, 410040, Note_on_c, 0, 63, 64
3, 410203, Note_on_c, 0, 63, 0
3, 410220, Note_on_c, 0, 70, 63
3, 410383, Note_on_c, 0, 70, 0
3, 410400, Control_c, 0, 64, 127
3, 410400, Note_on_c, 0, 39, 45
3, 410563, Note_on_c, 0, 39, 0
3, 410580, Note_on_c, 0, 48, 60
3, 410743, Note_on_c, 0, 48, 0
3, 410760, Note_on_c, 0, 51, 56
3, 410760, Note_on_c, 0, 51, 59
3, 410923, Note_on_c, 0, 51, 0
3, 410923, Note_on_c, 0, 51, 0
3, 410940, Note_on_c, 0, 55, 58
3, 411103, Note_on_c, 0, 55, 0
3, 411120, Note_on_c, 0, 60, 62
3, 411283, Note_on_c, 0, 60, 0
3, 411300, Note_on_c, 0, 67, 62
3, 411463, Note_on_c, 0, 67, 0
3, 411480, Note_on_c, 0, 60, 48
3, 411643, Note_on_c, 0, 60, 0
3, 411660, Note_on_c, 0, 68, 61
3, 411823, Note_on_c, 0, 68, 0
3, 411840, Note_on_c, 0, 67, 54
3, 412003, Note_on_c, 0, 67, 0
3, 412020, Note_on_c, 0, 63, 48
3, 412183, Note_on_c, 0, 63, 0
3, 412200, Note_on_c, 0, 72, 64
3, 412363, Note_on_c, 0, 72, 0
3, 412380, Note_on_c, 0, 75, 58
3, 412380, Control_c, 0, 64, 0
3, 412543, Note_on_c, 0, 75, 0
3, 412560, Control_c, 0, 64, 127
3, 412560, Note_on_c, 0, 39, 44
3, 412723, Note_on_c, 0, 39, 0
3, 412740, Note_on_c, 0, 48, 62
3, 412903, Note_on_c, 0, 48, 0
3, 412920, Note_on_c, 0, 51, 66
3, 412920, Note_on_c, 0, 46, 64
3, 412920, Note_on_c, 0, 55, 66
3, 413083, Note_on_c, 0, 55, 0
3, 413083, Note_on_c, 0, 51, 0
3, 413083, Note_on_c, 0, 46, 0
3, 413100, Note_on_c, 0, 55, 86
3, 413263, Note_on_c, 0, 55, 0
3, 413280, Note_on_c, 0, 58, 92
3, 413443, Note_on_c, 0, 58, 0
3, 413460, Note_on_c, 0, 67, 97
3, 413623, Note_on_c, 0, 67, 0
3, 413640, Note_on_c, 0, 46, 63
3, 413803, Note_on_c, 0, 46, 0
3, 413820, Note_on_c, 0, 55, 95
3, 413983, Note_on_c, 0, 55, 0
3, 414000, Note_on_c, 0, 58, 91
3, 414000, Control_c, 0, 64, 0
3, 414163, Note_on_c, 0, 58, 0
3, 414180, Note_on_c, 0, 55, 79
3, 414343, Note_on_c, 0, 55, 0
3, 414360, Note_on_c, 0, 63, 98
3, 414523, Note_on_c, 0, 63, 0
3, 414540, Note_on_c, 0, 70, 99
3, 414703, Note_on_c, 0, 70, 0
3, 414720, Control_c, 0, 64, 127
3, 414720, Note_on_c, 0, 39, 44
3, 414883, Note_on_c, 0, 39, 0
3, 414900, Note_on_c, 0, 47, 58
3, 415063, Note_on_c, 0, 47, 0
3, 415080, Note_on_c, 0, 51, 65
3, 415080, Note_on_c, 0, 55, 64
3, 415243, Note_on_c, 0, 55, 0
3, 415243, Note_on_c, 0, 51, 0
3, 415260, Note_on_c, 0, 55, 87
3, 415423, Note_on_c, 0, 55, 0
3, 415440, Note_on_c, 0, 59, 91
3, 415603, Note_on_c, 0, 59, 0
3, 415620, Note_on_c, 0, 67, 96
3, 415783, Note_on_c, 0, 67, 0
3, 415800, Note_on_c, 0, 59, 76
3, 415800, Control_c, 0, 64, 0
3, 415963, Note_on_c, 0, 59, 0
3, 415980, Note_on_c, 0, 68, 98
3, 416143, Note_on_c, 0, 68, 0
3, 416160, Note_on_c, 0, 67, 80
3, 416323, Note_on_c, 0, 67, 0
3, 416340, Note_on_c, 0, 63, 72
3, 416503, Note_on_c, 0, 63, 0
3, 416520, Note_on_c, 0, 71, 97
3, 416683, Note_on_c, 0, 71, 0
3, 416700, Note_on_c, 0, 75, 89
3, 416863, Note_on_c, 0, 75, 0
3, 416880, Control_c, 0, 64, 127
3, 416880, Note_on_c, 0, 39, 41
3, 417043, Note_on_c, 0, 39, 0
3, 417060, Note_on_c, 0, 47, 62
3, 417223, Note_on_c, 0, 47, 0
3, 417240, Note_on_c, 0, 51, 78
3, 417240, Note_on_c, 0, 46, 66
3, 417240, Note_on_c, 0, 55, 68
3, 417403, Note_on_c, 0, 55, 0
3, 417403, Note_on_c, 0, 51, 0
3, 417403, Note_on_c, 0, 46, 0
3, 417420, Note_on_c, 0, 36, 0
3, 417420, Note_on_c, 0, 55, 89
3, 417583, Note_on_c, 0, 55, 0
3, 417600, Note_on_c, 0, 58, 92
3, 417763, Note_on_c, 0, 58, 0
3, 417780, Note_on_c, 0, 67, 99
3, 417943, Note_on_c, 0, 67, 0
3, 417960, Note_on_c, 0, 46, 66
3, 418123, Note_on_c, 0, 46, 0
3, 418140, Note_on_c, 0, 55, 92
3, 418303, Note_on_c, 0, 55, 0
3, 418320, Note_on_c, 0, 58, 92
3, 418483, Note_on_c, 0, 58, 0
3, 418500, Note_on_c, 0, 55, 77
3, 418663, Note_on_c, 0, 55, 0
3, 418680, Note_on_c, 0, 63, 97
3, 418680, Control_c, 0, 64, 0
3, 418843, Note_on_c, 0, 63, 0
3, 418860, Note_on_c, 0, 70, 97
3, 419023, Note_on_c, 0, 70, 0
3, 419040, Note_on_c, 0, 43, 67
3, 419040, Control_c, 0, 64, 127
3, 419203, Note_on_c, 0, 43, 0
3, 419220, Note_on_c, 0, 51, 92
3, 419383, Note_on_c, 0, 51, 0
3, 419400, Note_on_c, 0, 58, 98
3, 419563, Note_on_c, 0, 58, 0
3, 419580, Note_on_c, 0, 58, 88
3, 419743, Note_on_c, 0, 58, 0
3, 419760, Note_on_c, 0, 63, 96
3, 419923, Note_on_c, 0, 63, 0
3, 419940, Note_on_c, 0, 70, 97
3, 420103, Note_on_c, 0, 70, 0
3, 420120, Note_on_c, 0, 51, 65
3, 420120, Control_c, 0, 64, 0
3, 420283, Note_on_c, 0, 51, 0
3, 420300, Note_on_c, 0, 58, 91
3, 420463, Note_on_c, 0, 58, 0
3, 420480, Note_on_c, 0, 63, 93
3, 420643, Note_on_c, 0, 63, 0
3, 420660, Note_on_c, 0, 63, 86
3, 420823, Note_on_c, 0, 63, 0
3, 420840, Note_on_c, 0, 70, 97
3, 421003, Note_on_c, 0, 70, 0
3, 421020, Note_on_c, 0, 75, 92
3, 421183, Note_on_c, 0, 75, 0
3, 421200, Note_on_c, 0, 41, 66
3, 421200, Control_c, 0, 64, 127
3, 421363, Note_on_c, 0, 41, 0
3, 421380, Note_on_c, 0, 51, 96
3, 421543, Note_on_c, 0, 51, 0
3, 421560, Note_on_c, 0, 56, 94
3, 421723, Note_on_c, 0, 56, 0
3, 421740, Note_on_c, 0, 60, 100
3, 421740, Note_on_c, 0, 63, 98
3, 421903, Note_on_c, 0, 63, 0
3, 421903, Note_on_c, 0, 60, 0
3, 421920, Note_on_c, 0, 70, 99
3, 422083, Note_on_c, 0, 70, 0
3, 422100, Note_on_c, 0, 68, 80
3, 422263, Note_on_c, 0, 68, 0
3, 422280, Note_on_c, 0, 72, 98
3, 422280, Control_c, 0, 64, 0
3, 422443, Note_on_c, 0, 72, 0
3, 422460, Note_on_c, 0, 63, 65
3, 422623, Note_on_c, 0, 63, 0
3, 422640, Note_on_c, 0, 60, 76
3, 422803, Note_on_c, 0, 60, 0
3, 422820, Note_on_c, 0, 63, 88
3, 422983, Note_on_c, 0, 63, 0
3, 423000, Note_on_c, 0, 60, 78
3, 423163, Note_on_c, 0, 60, 0
3, 423180, Note_on_c, 0, 51, 62
3, 423343, Note_on_c, 0, 51, 0
3, 423360, Note_on_c, 0, 34, 64
3, 423360, Control_c, 0, 64, 127
3, 423523, Note_on_c, 0, 34, 0
3, 423540, Note_on_c, 0, 50, 96
3, 423703, Note_on_c, 0, 50, 0
3, 423720, Note_on_c, 0, 56, 97
3, 423883, Note_on_c, 0, 56, 0
3, 423900, Note_on_c, 0, 56, 86
3, 424063, Note_on_c, 0, 56, 0
3, 424080, Note_on_c, 0, 60, 94
3, 424243, Note_on_c, 0, 60, 0
3, 424260, Note_on_c, 0, 58, 77
3, 424423, Note_on_c, 0, 58, 0
3, 424440, Note_on_c, 0, 68, 102
3, 424440, Control_c, 0, 64, 0
3, 424603, Note_on_c, 0, 68, 0
3, 424620, Note_on_c, 0, 62, 73
3, 424783, Note_on_c, 0, 62, 0
3, 424800, Note_on_c, 0, 58, 76
3, 424963, Note_on_c, 0, 58, 0
3, 424980, Note_on_c, 0, 56, 73
3, 425143, Note_on_c, 0, 56, 0
3, 425160, Note_on_c, 0, 48, 68
3, 425323, Note_on_c, 0, 48, 0
3, 425340, Note_on_c, 0, 46, 72
3, 425503, Note_on_c, 0, 46, 0
3, 425520, Control_c, 0, 64, 127
3, 425520, Note_on_c, 0, 39, 51
3, 425683, Note_on_c, 0, 39, 0
3, 425700, Note_on_c, 0, 46, 60
3, 425863, Note_on_c, 0, 46, 0
3, 425880, Note_on_c, 0, 51, 74
3, 425880, Note_on_c, 0, 55, 68
3, 426043, Note_on_c, 0, 55, 0
3, 426043, Note_on_c, 0, 51, 0
3, 426060, Note_on_c, 0, 55, 89
3, 426223, Note_on_c, 0, 55, 0
3, 426240, Note_on_c, 0, 58, 92
3, 426403, Note_on_c, 0, 58, 0
3, 426420, Note_on_c, 0, 67, 97
3, 426583, Note_on_c, 0, 67, 0
3, 426600, Note_on_c, 0, 46, 50
3, 426763, Note_on_c, 0, 46, 0
3, 426780, Note_on_c, 0, 55, 64
3, 426943, Note_on_c, 0, 55, 0
3, 426960, Note_on_c, 0, 58, 59
3, 427123, Note_on_c, 0, 58, 0
3, 427140, Note_on_c, 0, 55, 64
3, 427303, Note_on_c, 0, 55, 0
3, 427320, Note_on_c, 0, 63, 95
3, 427320, Control_c, 0, 64, 0
3, 427483, Note_on_c, 0, 63, 0
3, 427500, Note_on_c, 0, 70, 98
3, 427663, Note_on_c, 0, 70, 0
3, 427680, Control_c, 0, 64, 127
3, 427680, Note_on_c, 0, 39, 53
3, 427843, Note_on_c, 0, 39, 0
3, 427860, Note_on_c, 0, 48, 62
3, 428023, Note_on_c, 0, 48, 0
3, 428040, Note_on_c, 0, 51, 76
3, 428040, Note_on_c, 0, 55, 65
3, 428203, Note_on_c, 0, 55, 0
3, 428203, Note_on_c, 0, 51, 0
3, 428220, Note_on_c, 0, 55, 88
3, 428383, Note_on_c, 0, 55, 0
3, 428400, Note_on_c, 0, 60, 96
3, 428563, Note_on_c, 0, 60, 0
3, 428580, Note_on_c, 0, 67, 97
3, 428743, Note_on_c, 0, 67, 0
3, 428760, Note_on_c, 0, 60, 72
3, 428760, Control_c, 0, 64, 0
3, 428923, Note_on_c, 0, 60, 0
3, 428940, Note_on_c, 0, 68, 92
3, 429103, Note_on_c, 0, 68, 0
3, 429120, Note_on_c, 0, 67, 79
3, 429283, Note_on_c, 0, 67, 0
3, 429300, Note_on_c, 0, 63, 73
3, 429463, Note_on_c, 0, 63, 0
3, 429480, Note_on_c, 0, 72, 97
3, 429643, Note_on_c, 0, 72, 0
3, 429660, Note_on_c, 0, 75, 88
3, 429823, Note_on_c, 0, 75, 0
3, 429840, Control_c, 0, 64, 127
3, 429840, Note_on_c, 0, 39, 52
3, 430003, Note_on_c, 0, 39, 0
3, 430020, Note_on_c, 0, 48, 60
3, 430183, Note_on_c, 0, 48, 0
3, 430200, Note_on_c, 0, 51, 76
3, 430200, Note_on_c, 0, 46, 65
3, 430200, Note_on_c, 0, 55, 67
3, 430363, Note_on_c, 0, 55, 0
3, 430363, Note_on_c, 0, 46, 0
3, 430363, Note_on_c, 0, 51, 0
3, 430380, Note_on_c, 0, 55, 86
3, 430543, Note_on_c, 0, 55, 0
3, 430560, Note_on_c, 0, 58, 91
3, 430723, Note_on_c, 0, 58, 0
3, 430740, Note_on_c, 0, 67, 96
3, 430903, Note_on_c, 0, 67, 0
3, 430920, Note_on_c, 0, 46, 52
3, 431083, Note_on_c, 0, 46, 0
3, 431100, Note_on_c, 0, 55, 61
3, 431263, Note_on_c, 0, 55, 0
3, 431280, Note_on_c, 0, 58, 62
3, 431443, Note_on_c, 0, 58, 0
3, 431460, Note_on_c, 0, 55, 49
3, 431623, Note_on_c, 0, 55, 0
3, 431640, Note_on_c, 0, 63, 67
3, 431803, Note_on_c, 0, 63, 0
3, 431820, Note_on_c, 0, 70, 62
3, 431820, Control_c, 0, 64, 0
3, 431983, Note_on_c, 0, 70, 0
3, 432000, Control_c, 0, 64, 127
3, 432000, Note_on_c, 0, 39, 44
3, 432163, Note_on_c, 0, 39, 0
3, 432180, Note_on_c, 0, 47, 59
3, 432343, Note_on_c, 0, 47, 0
3, 432360, Note_on_c, 0, 51, 75
3, 432360, Note_on_c, 0, 55, 64
3, 432523, Note_on_c, 0, 55, 0
3, 432523, Note_on_c, 0, 51, 0
3, 432540, Note_on_c, 0, 55, 89
3, 432703, Note_on_c, 0, 55, 0
3, 432720, Note_on_c, 0, 59, 94
3, 432883, Note_on_c, 0, 59, 0
3, 432900, Note_on_c, 0, 67, 96
3, 433063, Note_on_c, 0, 67, 0
3, 433080, Note_on_c, 0, 59, 71
3, 433080, Control_c, 0, 64, 0
3, 433243, Note_on_c, 0, 59, 0
3, 433260, Note_on_c, 0, 68, 93
3, 433423, Note_on_c, 0, 68, 0
3, 433440, Note_on_c, 0, 67, 78
3, 433603, Note_on_c, 0, 67, 0
3, 433620, Note_on_c, 0, 63, 73
3, 433783, Note_on_c, 0, 63, 0
3, 433800, Note_on_c, 0, 71, 96
3, 433963, Note_on_c, 0, 71, 0
3, 433980, Note_on_c, 0, 75, 90
3, 434143, Note_on_c, 0, 75, 0
3, 434160, Control_c, 0, 64, 127
3, 434160, Note_on_c, 0, 39, 51
3, 434323, Note_on_c, 0, 39, 0
3, 434340, Note_on_c, 0, 47, 63
3, 434503, Note_on_c, 0, 47, 0
3, 434520, Note_on_c, 0, 51, 75
3, 434520, Note_on_c, 0, 46, 67
3, 434520, Note_on_c, 0, 55, 65
3, 434683, Note_on_c, 0, 55, 0
3, 434683, Note_on_c, 0, 46, 0
3, 434683, Note_on_c, 0, 51, 0
3, 434700, Note_on_c, 0, 55, 89
3, 434863, Note_on_c, 0, 55, 0
3, 434880, Note_on_c, 0, 58, 93
3, 435043, Note_on_c, 0, 58, 0
3, 435060, Note_on_c, 0, 67, 99
3, 435223, Note_on_c, 0, 67, 0
3, 435240, Note_on_c, 0, 46, 50
3, 435403, Note_on_c, 0, 46, 0
3, 435420, Note_on_c, 0, 55, 64
3, 435583, Note_on_c, 0, 55, 0
3, 435600, Note_on_c, 0, 58, 60
3, 435763, Note_on_c, 0, 58, 0
3, 435780, Note_on_c, 0, 55, 47
3, 435943, Note_on_c, 0, 55, 0
3, 435960, Note_on_c, 0, 63, 65
3, 436123, Note_on_c, 0, 63, 0
3, 436140, Note_on_c, 0, 70, 63
3, 436140, Control_c, 0, 64, 0
3, 436303, Note_on_c, 0, 70, 0
3, 436320, Control_c, 0, 64, 127
3, 436320, Note_on_c, 0, 43, 44
3, 436483, Note_on_c, 0, 43, 0
3, 436500, Note_on_c, 0, 51, 58
3, 436663, Note_on_c, 0, 51, 0
3, 436680, Note_on_c, 0, 58, 65
3, 436843, Note_on_c, 0, 58, 0
3, 436860, Note_on_c, 0, 58, 54
3, 437023, Note_on_c, 0, 58, 0
3, 437040, Note_on_c, 0, 63, 62
3, 437203, Note_on_c, 0, 63, 0
3, 437220, Note_on_c, 0, 70, 61
3, 437383, Note_on_c, 0, 70, 0
3, 437400, Note_on_c, 0, 51, 44
3, 437563, Note_on_c, 0, 51, 0
3, 437580, Note_on_c, 0, 58, 58
3, 437743, Note_on_c, 0, 58, 0
3, 437760, Note_on_c, 0, 63, 63
3, 437923, Note_on_c, 0, 63, 0
3, 437940, Note_on_c, 0, 63, 55
3, 438103, Note_on_c, 0, 63, 0
3, 438120, Note_on_c, 0, 70, 63
3, 438283, Note_on_c, 0, 70, 0
3, 438300, Note_on_c, 0, 75, 59
3, 438300, Control_c, 0, 64, 0
3, 438463, Note_on_c, 0, 75, 0
3, 438480, Control_c, 0, 64, 127
3, 438480, Note_on_c, 0, 41, 44
3, 438643, Note_on_c, 0, 41, 0
3, 438660, Note_on_c, 0, 51, 63
3, 438823, Note_on_c, 0, 51, 0
3, 438840, Note_on_c, 0, 56, 64
3, 439003, Note_on_c, 0, 56, 0
3, 439020, Note_on_c, 0, 60, 62
3, 439020, Note_on_c, 0, 63, 61
3, 439183, Note_on_c, 0, 63, 0
3, 439183, Note_on_c, 0, 60, 0
3, 439200, Note_on_c, 0, 70, 67
3, 439363, Note_on_c, 0, 70, 0
3, 439380, Note_on_c, 0, 68, 53
3, 439543, Note_on_c, 0, 68, 0
3, 439560, Note_on_c, 0, 72, 62
3, 439723, Note_on_c, 0, 72, 0
3, 439740, Note_on_c, 0, 63, 43
3, 439903, Note_on_c, 0, 63, 0
3, 439920, Note_on_c, 0, 60, 52
3, 440083, Note_on_c, 0, 60, 0
3, 440100, Note_on_c, 0, 63, 55
3, 440263, Note_on_c, 0, 63, 0
3, 440280, Note_on_c, 0, 60, 54
3, 440443, Note_on_c, 0, 60, 0
3, 440460, Note_on_c, 0, 51, 42
3, 440460, Control_c, 0, 64, 0
3, 440623, Note_on_c, 0, 51, 0
3, 440640, Control_c, 0, 64, 127
3, 440640, Note_on_c, 0, 44, 47
3, 440803, Note_on_c, 0, 44, 0
3, 440820, Note_on_c, 0, 53, 60
3, 440983, Note_on_c, 0, 53, 0
3, 441000, Note_on_c, 0, 60, 65
3, 441163, Note_on_c, 0, 60, 0
3, 441180, Note_on_c, 0, 62, 59
3, 441343, Note_on_c, 0, 62, 0
3, 441360, Note_on_c, 0, 72, 69
3, 441523, Note_on_c, 0, 72, 0
3, 441540, Note_on_c, 0, 65, 48
3, 441703, Note_on_c, 0, 65, 0
3, 441720, Note_on_c, 0, 74, 64
3, 441883, Note_on_c, 0, 74, 0
3, 441900, Note_on_c, 0, 72, 51
3, 442063, Note_on_c, 0, 72, 0
3, 442080, Note_on_c, 0, 65, 49
3, 442243, Note_on_c, 0, 65, 0
3, 442260, Note_on_c, 0, 72, 58
3, 442423, Note_on_c, 0, 72, 0
3, 442440, Note_on_c, 0, 65, 48
3, 442603, Note_on_c, 0, 65, 0
3, 442620, Note_on_c, 0, 62, 47
3, 442783, Note_on_c, 0, 62, 0
3, 442799, Control_c, 0, 64, 127
3, 442799, Control_c, 0, 64, 0
3, 442800, Note_on_c, 0, 31, 41
3, 442800, Note_on_c, 0, 43, 42
3, 442963, Note_on_c, 0, 43, 0
3, 442963, Note_on_c, 0, 31, 0
3, 442980, Note_on_c, 0, 50, 58
3, 443143, Note_on_c, 0, 50, 0
3, 443160, Note_on_c, 0, 55, 61
3, 443323, Note_on_c, 0, 55, 0
3, 443340, Note_on_c, 0, 59, 75
3, 443503, Note_on_c, 0, 59, 0
3, 443520, Note_on_c, 0, 62, 89
3, 443683, Note_on_c, 0, 62, 0
3, 443700, Note_on_c, 0, 71, 99
3, 443863, Note_on_c, 0, 71, 0
3, 443880, Note_on_c, 0, 50, 49
3, 444043, Note_on_c, 0, 50, 0
3, 444060, Note_on_c, 0, 55, 57
3, 444223, Note_on_c, 0, 55, 0
3, 444240, Note_on_c, 0, 62, 64
3, 444240, Control_c, 0, 64, 0
3, 444403, Note_on_c, 0, 62, 0
3, 444420, Note_on_c, 0, 65, 73
3, 444583, Note_on_c, 0, 65, 0
3, 444600, Note_on_c, 0, 71, 94
3, 444763, Note_on_c, 0, 71, 0
3, 444780, Note_on_c, 0, 79, 97
3, 444943, Note_on_c, 0, 79, 0
3, 444960, Control_c, 0, 64, 127
3, 444960, Note_on_c, 0, 43, 45
3, 445123, Note_on_c, 0, 43, 0
3, 445140, Note_on_c, 0, 51, 59
3, 445303, Note_on_c, 0, 51, 0
3, 445320, Note_on_c, 0, 58, 65
3, 445483, Note_on_c, 0, 58, 0
3, 445500, Note_on_c, 0, 58, 65
3, 445663, Note_on_c, 0, 58, 0
3, 445680, Note_on_c, 0, 63, 93
3, 445843, Note_on_c, 0, 63, 0
3, 445860, Note_on_c, 0, 70, 93
3, 446023, Note_on_c, 0, 70, 0
3, 446040, Note_on_c, 0, 51, 50
3, 446203, Note_on_c, 0, 51, 0
3, 446220, Note_on_c, 0, 58, 58
3, 446383, Note_on_c, 0, 58, 0
3, 446400, Note_on_c, 0, 63, 61
3, 446400, Control_c, 0, 64, 0
3, 446563, Note_on_c, 0, 63, 0
3, 446580, Note_on_c, 0, 61, 67
3, 446743, Note_on_c, 0, 61, 0
3, 446760, Note_on_c, 0, 70, 99
3, 446923, Note_on_c, 0, 70, 0
3, 446940, Note_on_c, 0, 75, 94
3, 447103, Note_on_c, 0, 75, 0
3, 447120, Control_c, 0, 64, 127
3, 447120, Note_on_c, 0, 32, 43
3, 447120, Note_on_c, 0, 44, 45
3, 447283, Note_on_c, 0, 44, 0
3, 447283, Note_on_c, 0, 32, 0
3, 447300, Note_on_c, 0, 51, 60
3, 447463, Note_on_c, 0, 51, 0
3, 447480, Note_on_c, 0, 60, 65
3, 447643, Note_on_c, 0, 60, 0
3, 447660, Note_on_c, 0, 60, 61
3, 447823, Note_on_c, 0, 60, 0
3, 447840, Note_on_c, 0, 63, 86
3, 448003, Note_on_c, 0, 63, 0
3, 448020, Note_on_c, 0, 72, 98
3, 448183, Note_on_c, 0, 72, 0
3, 448200, Note_on_c, 0, 51, 45
3, 448363, Note_on_c, 0, 51, 0
3, 448380, Note_on_c, 0, 56, 58
3, 448543, Note_on_c, 0, 56, 0
3, 448560, Note_on_c, 0, 63, 65
3, 448560, Control_c, 0, 64, 0
3, 448723, Note_on_c, 0, 63, 0
3, 448740, Note_on_c, 0, 63, 68
3, 448903, Note_on_c, 0, 63, 0
3, 448920, Note_on_c, 0, 68, 90
3, 449083, Note_on_c, 0, 68, 0
3, 449100, Note_on_c, 0, 75, 95
3, 449263, Note_on_c, 0, 75, 0
3, 449280, Control_c, 0, 64, 127
3, 449280, Note_on_c, 0, 40, 43
3, 449443, Note_on_c, 0, 40, 0
3, 449460, Note_on_c, 0, 48, 60
3, 449623, Note_on_c, 0, 48, 0
3, 449640, Note_on_c, 0, 58, 67
3, 449803, Note_on_c, 0, 58, 0
3, 449820, Note_on_c, 0, 56, 62
3, 449983, Note_on_c, 0, 56, 0
3, 450000, Note_on_c, 0, 60, 91
3, 450163, Note_on_c, 0, 60, 0
3, 450180, Note_on_c, 0, 68, 97
3, 450343, Note_on_c, 0, 68, 0
3, 450360, Note_on_c, 0, 48, 48
3, 450523, Note_on_c, 0, 48, 0
3, 450540, Note_on_c, 0, 56, 62
3, 450703, Note_on_c, 0, 56, 0
3, 450720, Note_on_c, 0, 58, 64
3, 450720, Note_on_c, 0, 64, 66
3, 450720, Control_c, 0, 64, 0
3, 450883, Note_on_c, 0, 64, 0
3, 450883, Note_on_c, 0, 58, 0
3, 450900, Note_on_c, 0, 60, 68
3, 451063, Note_on_c, 0, 60, 0
3, 451080, Note_on_c, 0, 67, 94
3, 451243, Note_on_c, 0, 67, 0
3, 451260, Note_on_c, 0, 72, 94
3, 451423, Note_on_c, 0, 72, 0
3, 451440, Control_c, 0, 64, 127
3, 451440, Note_on_c, 0, 41, 45
3, 451603, Note_on_c, 0, 41, 0
3, 451620, Note_on_c, 0, 48, 59
3, 451783, Note_on_c, 0, 48, 0
3, 451800, Note_on_c, 0, 56, 65
3, 451963, Note_on_c, 0, 56, 0
3, 451980, Note_on_c, 0, 55, 61
3, 452143, Note_on_c, 0, 55, 0
3, 452160, Note_on_c, 0, 60, 92
3, 452323, Note_on_c, 0, 60, 0
3, 452340, Note_on_c, 0, 67, 96
3, 452503, Note_on_c, 0, 67, 0
3, 452520, Note_on_c, 0, 53, 55
3, 452683, Note_on_c, 0, 53, 0
3, 452700, Note_on_c, 0, 55, 53
3, 452863, Note_on_c, 0, 55, 0
3, 452880, Note_on_c, 0, 56, 68
3, 452880, Note_on_c, 0, 65, 66
3, 453043, Note_on_c, 0, 65, 0
3, 453043, Note_on_c, 0, 56, 0
3, 453060, Note_on_c, 0, 60, 71
3, 453223, Note_on_c, 0, 60, 0
3, 453240, Note_on_c, 0, 65, 94
3, 453240, Control_c, 0, 64, 0
3, 453403, Note_on_c, 0, 65, 0
3, 453420, Note_on_c, 0, 72, 96
3, 453583, Note_on_c, 0, 72, 0
3, 453600, Control_c, 0, 64, 127
3, 453600, Note_on_c, 0, 44, 51
3, 453763, Note_on_c, 0, 44, 0
3, 453780, Note_on_c, 0, 53, 63
3, 453943, Note_on_c, 0, 53, 0
3, 453960, Note_on_c, 0, 59, 66
3, 454123, Note_on_c, 0, 59, 0
3, 454140, Note_on_c, 0, 56, 74
3, 454303, Note_on_c, 0, 56, 0
3, 454320, Note_on_c, 0, 63, 98
3, 454483, Note_on_c, 0, 63, 0
3, 454500, Note_on_c, 0, 65, 86
3, 454663, Note_on_c, 0, 65, 0
3, 454680, Note_on_c, 0, 53, 51
3, 454843, Note_on_c, 0, 53, 0
3, 454860, Note_on_c, 0, 55, 54
3, 455023, Note_on_c, 0, 55, 0
3, 455040, Note_on_c, 0, 56, 65
3, 455040, Note_on_c, 0, 63, 66
3, 455203, Note_on_c, 0, 63, 0
3, 455203, Note_on_c, 0, 56, 0
3, 455220, Note_on_c, 0, 59, 75
3, 455383, Note_on_c, 0, 59, 0
3, 455400, Note_on_c, 0, 63, 93
3, 455400, Control_c, 0, 64, 0
3, 455563, Note_on_c, 0, 63, 0
3, 455580, Note_on_c, 0, 71, 95
3, 455743, Note_on_c, 0, 71, 0
3, 455760, Control_c, 0, 64, 127
3, 455760, Note_on_c, 0, 34, 52
3, 455923, Note_on_c, 0, 34, 0
3, 455940, Note_on_c, 0, 46, 64
3, 456103, Note_on_c, 0, 46, 0
3, 456120, Note_on_c, 0, 55, 67
3, 456283, Note_on_c, 0, 55, 0
3, 456300, Note_on_c, 0, 58, 71
3, 456463, Note_on_c, 0, 58, 0
3, 456480, Note_on_c, 0, 65, 97
3, 456643, Note_on_c, 0, 65, 0
3, 456660, Note_on_c, 0, 63, 79
3, 456823, Note_on_c, 0, 63, 0
3, 456840, Note_on_c, 0, 70, 95
3, 457003, Note_on_c, 0, 70, 0
3, 457020, Note_on_c, 0, 63, 68
3, 457183, Note_on_c, 0, 63, 0
3, 457200, Note_on_c, 0, 60, 75
3, 457363, Note_on_c, 0, 60, 0
3, 457380, Note_on_c, 0, 58, 76
3, 457543, Note_on_c, 0, 58, 0
3, 457560, Note_on_c, 0, 58, 51
3, 457723, Note_on_c, 0, 58, 0
3, 457740, Note_on_c, 0, 51, 41
3, 457740, Control_c, 0, 64, 0
3, 457903, Note_on_c, 0, 51, 0
3, 457920, Control_c, 0, 64, 127
3, 457920, Note_on_c, 0, 34, 44
3, 458083, Note_on_c, 0, 34, 0
3, 458100, Note_on_c, 0, 50, 62
3, 458263, Note_on_c, 0, 50, 0
3, 458280, Note_on_c, 0, 56, 67
3, 458443, Note_on_c, 0, 56, 0
3, 458460, Note_on_c, 0, 56, 76
3, 458623, Note_on_c, 0, 56, 0
3, 458640, Note_on_c, 0, 60, 93
3, 458803, Note_on_c, 0, 60, 0
3, 458820, Note_on_c, 0, 58, 76
3, 458983, Note_on_c, 0, 58, 0
3, 459000, Note_on_c, 0, 68, 100
3, 459163, Note_on_c, 0, 68, 0
3, 459180, Note_on_c, 0, 62, 72
3, 459343, Note_on_c, 0, 62, 0
3, 459360, Note_on_c, 0, 58, 75
3, 459523, Note_on_c, 0, 58, 0
3, 459540, Note_on_c, 0, 56, 73
3, 459703, Note_on_c, 0, 56, 0
3, 459720, Note_on_c, 0, 48, 49
3, 459883, Note_on_c, 0, 48, 0
3, 459900, Note_on_c, 0, 46, 48
3, 459900, Control_c, 0, 64, 0
3, 460063, Note_on_c, 0, 46, 0
3, 460080, Note_on_c, 0, 63, 101
3, 460080, Note_on_c, 0, 67, 104
3, 460080, Note_on_c, 0, 75, 105
3, 460080, Note_on_c, 0, 39, 56
3, 460080, Note_on_c, 0, 46, 56
3, 460257, Note_on_c, 0, 46, 0
3, 460257, Note_on_c, 0, 39, 0
3, 460440, Note_on_c, 0, 55, 61
3, 460617, Note_on_c, 0, 55, 0
3, 460730, Note_on_c, 0, 75, 0
3, 460730, Note_on_c, 0, 67, 0
3, 460730, Note_on_c, 0, 63, 0
3, 460800, Note_on_c, 0, 62, 82
3, 460800, Note_on_c, 0, 67, 83
3, 460800, Note_on_c, 0, 74, 79
3, 460800, Note_on_c, 0, 58, 60
3, 460977, Note_on_c, 0, 58, 0
3, 461160, Note_on_c, 0, 67, 67
3, 461337, Note_on_c, 0, 67, 0
3, 461485, Note_on_c, 0, 74, 0
3, 461485, Note_on_c, 0, 67, 0
3, 461485, Note_on_c, 0, 62, 0
3, 461520, Note_on_c, 0, 63, 86
3, 461520, Note_on_c, 0, 67, 86
3, 461520, Note_on_c, 0, 75, 85
3, 461520, Note_on_c, 0, 58, 43
3, 461697, Note_on_c, 0, 58, 0
3, 461880, Note_on_c, 0, 55, 47
3, 462057, Note_on_c, 0, 55, 0
3, 462170, Note_on_c, 0, 75, 0
3, 462170, Note_on_c, 0, 67, 0
3, 462170, Note_on_c, 0, 63, 0
3, 462240, Note_on_c, 0, 60, 79
3, 462240, Note_on_c, 0, 67, 79
3, 462240, Note_on_c, 0, 72, 79
3, 462240, Note_on_c, 0, 39, 47
3, 462240, Note_on_c, 0, 48, 44
3, 462417, Note_on_c, 0, 48, 0
3, 462417, Note_on_c, 0, 39, 0
3, 462600, Note_on_c, 0, 55, 62
3, 462777, Note_on_c, 0, 55, 0
3, 462960, Note_on_c, 0, 60, 60
3, 463137, Note_on_c, 0, 60, 0
3, 463320, Note_on_c, 0, 67, 66
3, 463497, Note_on_c, 0, 67, 0
3, 463645, Note_on_c, 0, 60, 0
3, 463645, Note_on_c, 0, 67, 0
3, 463645, Note_on_c, 0, 72, 0
3, 463680, Note_on_c, 0, 63, 86
3, 463680, Note_on_c, 0, 67, 87
3, 463680, Note_on_c, 0, 75, 88
3, 463680, Note_on_c, 0, 60, 45
3, 463857, Note_on_c, 0, 60, 0
3, 464040, Note_on_c, 0, 55, 45
3, 464217, Note_on_c, 0, 55, 0
3, 464400, Note_on_c, 0, 39, 44
3, 464400, Note_on_c, 0, 46, 44
3, 464577, Note_on_c, 0, 46, 0
3, 464577, Note_on_c, 0, 39, 0
3, 464760, Note_on_c, 0, 55, 62
3, 464937, Note_on_c, 0, 55, 0
3, 465050, Note_on_c, 0, 75, 0
3, 465050, Note_on_c, 0, 67, 0
3, 465050, Note_on_c, 0, 63, 0
3, 465120, Note_on_c, 0, 62, 75
3, 465120, Note_on_c, 0, 67, 79
3, 465120, Note_on_c, 0, 74, 78
3, 465120, Note_on_c, 0, 58, 58
3, 465297, Note_on_c, 0, 58, 0
3, 465480, Note_on_c, 0, 67, 68
3, 465657, Note_on_c, 0, 67, 0
3, 465805, Note_on_c, 0, 74, 0
3, 465805, Note_on_c, 0, 67, 0
3, 465805, Note_on_c, 0, 62, 0
3, 465840, Note_on_c, 0, 63, 84
3, 465840, Note_on_c, 0, 67, 83
3, 465840, Note_on_c, 0, 75, 85
3, 465840, Note_on_c, 0, 58, 44
3, 466017, Note_on_c, 0, 58, 0
3, 466200, Note_on_c, 0, 55, 47
3, 466377, Note_on_c, 0, 55, 0
3, 466490, Note_on_c, 0, 75, 0
3, 466490, Note_on_c, 0, 67, 0
3, 466490, Note_on_c, 0, 63, 0
3, 466560, Note_on_c, 0, 59, 75
3, 466560, Note_on_c, 0, 67, 76
3, 466560, Note_on_c, 0, 71, 77
3, 466560, Note_on_c, 0, 39, 44
3, 466560, Note_on_c, 0, 47, 45
3, 466737, Note_on_c, 0, 39, 0
3, 466737, Note_on_c, 0, 47, 0
3, 466920, Note_on_c, 0, 55, 62
3, 467097, Note_on_c, 0, 55, 0
3, 467280, Note_on_c, 0, 59, 60
3, 467457, Note_on_c, 0, 59, 0
3, 467640, Note_on_c, 0, 67, 65
3, 467817, Note_on_c, 0, 67, 0
3, 467965, Note_on_c, 0, 59, 0
3, 467965, Note_on_c, 0, 67, 0
3, 467965, Note_on_c, 0, 71, 0
3, 468000, Note_on_c, 0, 63, 88
3, 468000, Note_on_c, 0, 67, 89
3, 468000, Note_on_c, 0, 75, 87
3, 468000, Note_on_c, 0, 59, 46
3, 468177, Note_on_c, 0, 59, 0
3, 468360, Note_on_c, 0, 55, 44
3, 468537, Note_on_c, 0, 55, 0
3, 468720, Note_on_c, 0, 39, 46
3, 468720, Note_on_c, 0, 46, 42
3, 468897, Note_on_c, 0, 46, 0
3, 468897, Note_on_c, 0, 39, 0
3, 469080, Note_on_c, 0, 55, 60
3, 469257, Note_on_c, 0, 55, 0
3, 469370, Note_on_c, 0, 75, 0
3, 469370, Note_on_c, 0, 67, 0
3, 469370, Note_on_c, 0, 63, 0
3, 469440, Note_on_c, 0, 63, 68
3, 469440, Note_on_c, 0, 70, 69
3, 469440, Note_on_c, 0, 58, 56
3, 469617, Note_on_c, 0, 58, 0
3, 469800, Note_on_c, 0, 67, 66
3, 469977, Note_on_c, 0, 67, 0
3, 470125, Note_on_c, 0, 70, 0
3, 470125, Note_on_c, 0, 63, 0
3, 470160, Note_on_c, 0, 63, 89
3, 470160, Note_on_c, 0, 70, 92
3, 470160, Note_on_c, 0, 75, 92
3, 470160, Note_on_c, 0, 58, 45
3, 470337, Note_on_c, 0, 58, 0
3, 470520, Note_on_c, 0, 55, 48
3, 470697, Note_on_c, 0, 55, 0
3, 470810, Note_on_c, 0, 75, 0
3, 470810, Note_on_c, 0, 70, 0
3, 470810, Note_on_c, 0, 63, 0
3, 470880, Note_on_c, 0, 65, 91
3, 470880, Note_on_c, 0, 70, 89
3, 470880, Note_on_c, 0, 75, 91
3, 470880, Note_on_c, 0, 77, 88
3, 470880, Note_on_c, 0, 43, 52
3, 470880, Note_on_c, 0, 51, 50
3, 471057, Note_on_c, 0, 51, 0
3, 471057, Note_on_c, 0, 43, 0
3, 471240, Note_on_c, 0, 58, 61
3, 471417, Note_on_c, 0, 58, 0
3, 471530, Note_on_c, 0, 77, 0
3, 471530, Note_on_c, 0, 70, 0
3, 471530, Note_on_c, 0, 75, 0
3, 471530, Note_on_c, 0, 65, 0
3, 471600, Note_on_c, 0, 67, 87
3, 471600, Note_on_c, 0, 70, 85
3, 471600, Note_on_c, 0, 75, 86
3, 471600, Note_on_c, 0, 79, 86
3, 471600, Note_on_c, 0, 63, 59
3, 471777, Note_on_c, 0, 63, 0
3, 471960, Note_on_c, 0, 70, 64
3, 472137, Note_on_c, 0, 70, 0
3, 472285, Note_on_c, 0, 67, 0
3, 472285, Note_on_c, 0, 75, 0
3, 472285, Note_on_c, 0, 79, 0
3, 472285, Note_on_c, 0, 70, 0
3, 472320, Note_on_c, 0, 70, 87
3, 472320, Note_on_c, 0, 75, 86
3, 472320, Note_on_c, 0, 79, 88
3, 472320, Note_on_c, 0, 82, 87
3, 472320, Note_on_c, 0, 63, 43
3, 472497, Note_on_c, 0, 63, 0
3, 472680, Note_on_c, 0, 58, 44
3, 472857, Note_on_c, 0, 58, 0
3, 472970, Note_on_c, 0, 82, 0
3, 472970, Note_on_c, 0, 75, 0
3, 472970, Note_on_c, 0, 79, 0
3, 472970, Note_on_c, 0, 70, 0
3, 473040, Note_on_c, 0, 72, 88
3, 473040, Note_on_c, 0, 75, 88
3, 473040, Note_on_c, 0, 80, 88
3, 473040, Note_on_c, 0, 84, 89
3, 473040, Note_on_c, 0, 41, 48
3, 473040, Note_on_c, 0, 51, 45
3, 473217, Note_on_c, 0, 51, 0
3, 473217, Note_on_c, 0, 41, 0
3, 473400, Note_on_c, 0, 60, 63
3, 473577, Note_on_c, 0, 60, 0
3, 473760, Note_on_c, 0, 63, 56
3, 473937, Note_on_c, 0, 63, 0
3, 474120, Note_on_c, 0, 72, 68
3, 474297, Note_on_c, 0, 72, 0
3, 474445, Note_on_c, 0, 75, 0
3, 474445, Note_on_c, 0, 80, 0
3, 474445, Note_on_c, 0, 84, 0
3, 474445, Note_on_c, 0, 72, 0
3, 474480, Note_on_c, 0, 70, 76
3, 474480, Note_on_c, 0, 75, 75
3, 474480, Note_on_c, 0, 82, 77
3, 474480, Note_on_c, 0, 63, 43
3, 474657, Note_on_c, 0, 63, 0
3, 474840, Note_on_c, 0, 60, 46
3, 475017, Note_on_c, 0, 60, 0
3, 475130, Note_on_c, 0, 82, 0
3, 475130, Note_on_c, 0, 75, 0
3, 475130, Note_on_c, 0, 70, 0
3, 475200, Note_on_c, 0, 67, 76
3, 475200, Note_on_c, 0, 70, 76
3, 475200, Note_on_c, 0, 74, 75
3, 475200, Note_on_c, 0, 79, 76
3, 475200, Note_on_c, 0, 46, 42
3, 475377, Note_on_c, 0, 46, 0
3, 475560, Note_on_c, 0, 56, 63
3, 475737, Note_on_c, 0, 56, 0
3, 475850, Note_on_c, 0, 79, 0
3, 475850, Note_on_c, 0, 70, 0
3, 475850, Note_on_c, 0, 74, 0
3, 475850, Note_on_c, 0, 67, 0
3, 475920, Note_on_c, 0, 68, 82
3, 475920, Note_on_c, 0, 70, 82
3, 475920, Note_on_c, 0, 74, 82
3, 475920, Note_on_c, 0, 80, 84
3, 475920, Note_on_c, 0, 62, 60
3, 476097, Note_on_c, 0, 62, 0
3, 476280, Note_on_c, 0, 70, 65
3, 476457, Note_on_c, 0, 70, 0
3, 476605, Note_on_c, 0, 68, 0
3, 476605, Note_on_c, 0, 74, 0
3, 476605, Note_on_c, 0, 80, 0
3, 476605, Note_on_c, 0, 70, 0
3, 476640, Note_on_c, 0, 67, 76
3, 476640, Note_on_c, 0, 70, 76
3, 476640, Note_on_c, 0, 74, 77
3, 476640, Note_on_c, 0, 79, 76
3, 476640, Note_on_c, 0, 62, 45
3, 476817, Note_on_c, 0, 62, 0
3, 477000, Note_on_c, 0, 56, 44
3, 477177, Note_on_c, 0, 56, 0
3, 477290, Note_on_c, 0, 79, 0
3, 477290, Note_on_c, 0, 70, 0
3, 477290, Note_on_c, 0, 74, 0
3, 477290, Note_on_c, 0, 67, 0
3, 477360, Note_on_c, 0, 63, 76
3, 477360, Note_on_c, 0, 67, 76
3, 477360, Note_on_c, 0, 70, 76
3, 477360, Note_on_c, 0, 75, 76
3, 477360, Note_on_c, 0, 39, 45
3, 477360, Note_on_c, 0, 46, 43
3, 477537, Note_on_c, 0, 46, 0
3, 477537, Note_on_c, 0, 39, 0
3, 477720, Note_on_c, 0, 55, 61
3, 477897, Note_on_c, 0, 55, 0
3, 478010, Note_on_c, 0, 75, 0
3, 478010, Note_on_c, 0, 67, 0
3, 478010, Note_on_c, 0, 70, 0
3, 478010, Note_on_c, 0, 63, 0
3, 478080, Note_on_c, 0, 62, 76
3, 478080, Note_on_c, 0, 67, 74
3, 478080, Note_on_c, 0, 70, 76
3, 478080, Note_on_c, 0, 74, 75
3, 478080, Note_on_c, 0, 58, 58
3, 478257, Note_on_c, 0, 58, 0
3, 478440, Note_on_c, 0, 67, 68
3, 478617, Note_on_c, 0, 67, 0
3, 478765, Note_on_c, 0, 62, 0
3, 478765, Note_on_c, 0, 70, 0
3, 478765, Note_on_c, 0, 74, 0
3, 478765, Note_on_c, 0, 67, 0
3, 478800, Note_on_c, 0, 61, 75
3, 478800, Note_on_c, 0, 67, 78
3, 478800, Note_on_c, 0, 70, 78
3, 478800, Note_on_c, 0, 73, 78
3, 478800, Note_on_c, 0, 58, 42
3, 478977, Note_on_c, 0, 58, 0
3, 479160, Note_on_c, 0, 55, 48
3, 479337, Note_on_c, 0, 55, 0
3, 479450, Note_on_c, 0, 73, 0
3, 479450, Note_on_c, 0, 67, 0
3, 479450, Note_on_c, 0, 70, 0
3, 479450, Note_on_c, 0, 61, 0
3, 479520, Note_on_c, 0, 60, 80
3, 479520, Note_on_c, 0, 63, 81
3, 479520, Note_on_c, 0, 67, 81
3, 479520, Note_on_c, 0, 72, 81
3, 479520, Note_on_c, 0, 39, 48
3, 479520, Note_on_c, 0, 48, 46
3, 479697, Note_on_c, 0, 48, 0
3, 479697, Note_on_c, 0, 39, 0
3, 479880, Note_on_c, 0, 55, 58
3, 480057, Note_on_c, 0, 55, 0
3, 480170, Note_on_c, 0, 72, 0
3, 480170, Note_on_c, 0, 63, 0
3, 480170, Note_on_c, 0, 67, 0
3, 480170, Note_on_c, 0, 60, 0
3, 480240, Note_on_c, 0, 63, 85
3, 480240, Note_on_c, 0, 67, 85
3, 480240, Note_on_c, 0, 75, 85
3, 480240, Note_on_c, 0, 60, 61
3, 480417, Note_on_c, 0, 60, 0
3, 480600, Note_on_c, 0, 67, 66
3, 480777, Note_on_c, 0, 67, 0
3, 480960, Note_on_c, 0, 79, 75
3, 480960, Note_on_c, 0, 87, 74
3, 480960, Note_on_c, 0, 91, 71
3, 480960, Note_on_c, 0, 60, 47
3, 481137, Note_on_c, 0, 60, 0
3, 481137, Note_on_c, 0, 91, 0
3, 481137, Note_on_c, 0, 79, 0
3, 481137, Note_on_c, 0, 87, 0
3, 481320, Note_on_c, 0, 55, 43
3, 481497, Note_on_c, 0, 55, 0
3, 481500, Note_on_c, 0, 79, 74
3, 481500, Note_on_c, 0, 87, 72
3, 481500, Note_on_c, 0, 91, 72
3, 481589, Note_on_c, 0, 91, 0
3, 481589, Note_on_c, 0, 79, 0
3, 481589, Note_on_c, 0, 87, 0
3, 481680, Note_on_c, 0, 79, 81
3, 481680, Note_on_c, 0, 87, 81
3, 481680, Note_on_c, 0, 91, 81
3, 481680, Note_on_c, 0, 39, 43
3, 481680, Note_on_c, 0, 46, 43
3, 481857, Note_on_c, 0, 46, 0
3, 481857, Note_on_c, 0, 39, 0
3, 481857, Note_on_c, 0, 91, 0
3, 481857, Note_on_c, 0, 79, 0
3, 481857, Note_on_c, 0, 87, 0
3, 482040, Note_on_c, 0, 55, 59
3, 482217, Note_on_c, 0, 55, 0
3, 482330, Note_on_c, 0, 67, 0
3, 482330, Note_on_c, 0, 75, 0
3, 482330, Note_on_c, 0, 63, 0
3, 482400, Note_on_c, 0, 62, 80
3, 482400, Note_on_c, 0, 67, 82
3, 482400, Note_on_c, 0, 70, 80
3, 482400, Note_on_c, 0, 74, 81
3, 482400, Note_on_c, 0, 58, 58
3, 482577, Note_on_c, 0, 58, 0
3, 482760, Note_on_c, 0, 67, 69
3, 482937, Note_on_c, 0, 67, 0
3, 483085, Note_on_c, 0, 62, 0
3, 483085, Note_on_c, 0, 70, 0
3, 483085, Note_on_c, 0, 74, 0
3, 483085, Note_on_c, 0, 67, 0
3, 483120, Note_on_c, 0, 61, 77
3, 483120, Note_on_c, 0, 67, 77
3, 483120, Note_on_c, 0, 70, 79
3, 483120, Note_on_c, 0, 73, 78
3, 483120, Note_on_c, 0, 58, 43
3, 483297, Note_on_c, 0, 58, 0
3, 483480, Note_on_c, 0, 55, 48
3, 483657, Note_on_c, 0, 55, 0
3, 483770, Note_on_c, 0, 73, 0
3, 483770, Note_on_c, 0, 67, 0
3, 483770, Note_on_c, 0, 70, 0
3, 483770, Note_on_c, 0, 61, 0
3, 483840, Note_on_c, 0, 59, 77
3, 483840, Note_on_c, 0, 63, 77
3, 483840, Note_on_c, 0, 67, 79
3, 483840, Note_on_c, 0, 71, 78
3, 483840, Note_on_c, 0, 39, 46
3, 483840, Note_on_c, 0, 47, 43
3, 484017, Note_on_c, 0, 39, 0
3, 484017, Note_on_c, 0, 47, 0
3, 484200, Note_on_c, 0, 55, 61
3, 484377, Note_on_c, 0, 55, 0
3, 484490, Note_on_c, 0, 63, 0
3, 484490, Note_on_c, 0, 67, 0
3, 484490, Note_on_c, 0, 59, 0
3, 484490, Note_on_c, 0, 71, 0
3, 484560, Note_on_c, 0, 63, 87
3, 484560, Note_on_c, 0, 67, 90
3, 484560, Note_on_c, 0, 75, 89
3, 484560, Note_on_c, 0, 59, 58
3, 484737, Note_on_c, 0, 59, 0
3, 484920, Note_on_c, 0, 67, 66
3, 485097, Note_on_c, 0, 67, 0
3, 485280, Note_on_c, 0, 79, 73
3, 485280, Note_on_c, 0, 83, 74
3, 485280, Note_on_c, 0, 91, 74
3, 485280, Note_on_c, 0, 59, 43
3, 485457, Note_on_c, 0, 59, 0
3, 485457, Note_on_c, 0, 91, 0
3, 485457, Note_on_c, 0, 79, 0
3, 485457, Note_on_c, 0, 83, 0
3, 485640, Note_on_c, 0, 55, 44
3, 485817, Note_on_c, 0, 55, 0
3, 485820, Note_on_c, 0, 79, 73
3, 485820, Note_on_c, 0, 83, 72
3, 485820, Note_on_c, 0, 91, 74
3, 485909, Note_on_c, 0, 91, 0
3, 485909, Note_on_c, 0, 79, 0
3, 485909, Note_on_c, 0, 83, 0
3, 486000, Note_on_c, 0, 79, 84
3, 486000, Note_on_c, 0, 83, 80
3, 486000, Note_on_c, 0, 91, 80
3, 486000, Note_on_c, 0, 43, 50
3, 486000, Note_on_c, 0, 50, 50
3, 486177, Note_on_c, 0, 50, 0
3, 486177, Note_on_c, 0, 43, 0
3, 486177, Note_on_c, 0, 91, 0
3, 486177, Note_on_c, 0, 79, 0
3, 486177, Note_on_c, 0, 83, 0
3, 486360, Note_on_c, 0, 59, 62
3, 486537, Note_on_c, 0, 59, 0
3, 486650, Note_on_c, 0, 67, 0
3, 486650, Note_on_c, 0, 75, 0
3, 486650, Note_on_c, 0, 63, 0
3, 486720, Note_on_c, 0, 66, 90
3, 486720, Note_on_c, 0, 71, 92
3, 486720, Note_on_c, 0, 74, 91
3, 486720, Note_on_c, 0, 78, 88
3, 486720, Note_on_c, 0, 62, 60
3, 486897, Note_on_c, 0, 62, 0
3, 487080, Note_on_c, 0, 71, 66
3, 487257, Note_on_c, 0, 71, 0
3, 487405, Note_on_c, 0, 66, 0
3, 487405, Note_on_c, 0, 74, 0
3, 487405, Note_on_c, 0, 78, 0
3, 487405, Note_on_c, 0, 71, 0
3, 487440, Note_on_c, 0, 65, 78
3, 487440, Note_on_c, 0, 71, 76
3, 487440, Note_on_c, 0, 74, 76
3, 487440, Note_on_c, 0, 77, 79
3, 487440, Note_on_c, 0, 62, 44
3, 487617, Note_on_c, 0, 62, 0
3, 487800, Note_on_c, 0, 59, 48
3, 487977, Note_on_c, 0, 59, 0
3, 488090, Note_on_c, 0, 77, 0
3, 488090, Note_on_c, 0, 71, 0
3, 488090, Note_on_c, 0, 74, 0
3, 488090, Note_on_c, 0, 65, 0
3, 488160, Note_on_c, 0, 64, 80
3, 488160, Note_on_c, 0, 67, 77
3, 488160, Note_on_c, 0, 71, 80
3, 488160, Note_on_c, 0, 76, 81
3, 488160, Note_on_c, 0, 43, 45
3, 488160, Note_on_c, 0, 52, 48
3, 488337, Note_on_c, 0, 52, 0
3, 488337, Note_on_c, 0, 43, 0
3, 488520, Note_on_c, 0, 59, 58
3, 488697, Note_on_c, 0, 59, 0
3, 488810, Note_on_c, 0, 76, 0
3, 488810, Note_on_c, 0, 67, 0
3, 488810, Note_on_c, 0, 71, 0
3, 488810, Note_on_c, 0, 64, 0
3, 488880, Note_on_c, 0, 67, 86
3, 488880, Note_on_c, 0, 71, 85
3, 488880, Note_on_c, 0, 79, 87
3, 488880, Note_on_c, 0, 64, 61
3, 489057, Note_on_c, 0, 64, 0
3, 489240, Note_on_c, 0, 71, 66
3, 489417, Note_on_c, 0, 71, 0
3, 489600, Note_on_c, 0, 83, 73
3, 489600, Note_on_c, 0, 91, 75
3, 489600, Note_on_c, 0, 95, 73
3, 489600, Note_on_c, 0, 62, 43
3, 489777, Note_on_c, 0, 62, 0
3, 489777, Note_on_c, 0, 95, 0
3, 489777, Note_on_c, 0, 83, 0
3, 489777, Note_on_c, 0, 91, 0
3, 489960, Note_on_c, 0, 59, 46
3, 490137, Note_on_c, 0, 59, 0
3, 490140, Note_on_c, 0, 83, 73
3, 490140, Note_on_c, 0, 91, 75
3, 490140, Note_on_c, 0, 95, 72
3, 490229, Note_on_c, 0, 95, 0
3, 490229, Note_on_c, 0, 83, 0
3, 490229, Note_on_c, 0, 91, 0
3, 490320, Note_on_c, 0, 83, 82
3, 490320, Note_on_c, 0, 91, 81
3, 490320, Note_on_c, 0, 95, 83
3, 490320, Note_on_c, 0, 43, 45
3, 490320, Note_on_c, 0, 50, 44
3, 490497, Note_on_c, 0, 50, 0
3, 490497, Note_on_c, 0, 43, 0
3, 490497, Note_on_c, 0, 95, 0
3, 490497, Note_on_c, 0, 83, 0
3, 490497, Note_on_c, 0, 91, 0
3, 490680, Note_on_c, 0, 59, 61
3, 490857, Note_on_c, 0, 59, 0
3, 490970, Note_on_c, 0, 71, 0
3, 490970, Note_on_c, 0, 79, 0
3, 490970, Note_on_c, 0, 67, 0
3, 491040, Note_on_c, 0, 66, 79
3, 491040, Note_on_c, 0, 71, 79
3, 491040, Note_on_c, 0, 74, 81
3, 491040, Note_on_c, 0, 78, 80
3, 491040, Note_on_c, 0, 62, 58
3, 491217, Note_on_c, 0, 62, 0
3, 491400, Note_on_c, 0, 71, 69
3, 491577, Note_on_c, 0, 71, 0
3, 491725, Note_on_c, 0, 66, 0
3, 491725, Note_on_c, 0, 74, 0
3, 491725, Note_on_c, 0, 78, 0
3, 491725, Note_on_c, 0, 71, 0
3, 491760, Note_on_c, 0, 65, 76
3, 491760, Note_on_c, 0, 71, 76
3, 491760, Note_on_c, 0, 74, 79
3, 491760, Note_on_c, 0, 77, 78
3, 491760, Note_on_c, 0, 62, 44
3, 491937, Note_on_c, 0, 62, 0
3, 492120, Note_on_c, 0, 59, 46
3, 492297, Note_on_c, 0, 59, 0
3, 492410, Note_on_c, 0, 77, 0
3, 492410, Note_on_c, 0, 71, 0
3, 492410, Note_on_c, 0, 74, 0
3, 492410, Note_on_c, 0, 65, 0
3, 492480, Note_on_c, 0, 63, 79
3, 492480, Note_on_c, 0, 71, 79
3, 492480, Note_on_c, 0, 75, 77
3, 492480, Note_on_c, 0, 44, 45
3, 492480, Note_on_c, 0, 51, 46
3, 492657, Note_on_c, 0, 51, 0
3, 492657, Note_on_c, 0, 44, 0
3, 492840, Note_on_c, 0, 59, 58
3, 493017, Note_on_c, 0, 59, 0
3, 493130, Note_on_c, 0, 75, 0
3, 493130, Note_on_c, 0, 71, 0
3, 493130, Note_on_c, 0, 63, 0
3, 493200, Note_on_c, 0, 67, 89
3, 493200, Note_on_c, 0, 71, 88
3, 493200, Note_on_c, 0, 79, 89
3, 493200, Note_on_c, 0, 63, 58
3, 493377, Note_on_c, 0, 63, 0
3, 493560, Note_on_c, 0, 71, 64
3, 493737, Note_on_c, 0, 71, 0
3, 493920, Note_on_c, 0, 79, 74
3, 493920, Note_on_c, 0, 87, 72
3, 493920, Note_on_c, 0, 91, 72
3, 493920, Note_on_c, 0, 63, 46
3, 494097, Note_on_c, 0, 63, 0
3, 494097, Note_on_c, 0, 91, 0
3, 494097, Note_on_c, 0, 79, 0
3, 494097, Note_on_c, 0, 87, 0
3, 494280, Note_on_c, 0, 59, 44
3, 494457, Note_on_c, 0, 59, 0
3, 494460, Note_on_c, 0, 79, 72
3, 494460, Note_on_c, 0, 87, 75
3, 494460, Note_on_c, 0, 91, 74
3, 494570, Note_on_c, 0, 79, 0
3, 494570, Note_on_c, 0, 71, 0
3, 494570, Note_on_c, 0, 67, 0
3, 494623, Note_on_c, 0, 79, 0
3, 494623, Note_on_c, 0, 91, 0
3, 494623, Note_on_c, 0, 87, 0
3, 494640, Note_on_c, 0, 79, 103
3, 494640, Note_on_c, 0, 86, 106
3, 494640, Note_on_c, 0, 91, 105
3, 494640, Note_on_c, 0, 43, 44
3, 494640, Note_on_c, 0, 51, 44
3, 494817, Note_on_c, 0, 91, 0
3, 494817, Note_on_c, 0, 86, 0
3, 494817, Note_on_c, 0, 79, 0
3, 494965, Note_on_c, 0, 51, 0
3, 494965, Note_on_c, 0, 43, 0
3, 495000, Note_on_c, 0, 51, 52
3, 495325, Note_on_c, 0, 51, 0
3, 495360, Note_on_c, 0, 63, 72
3, 495360, Note_on_c, 0, 70, 71
3, 495360, Note_on_c, 0, 58, 60
3, 495685, Note_on_c, 0, 58, 0
3, 495720, Note_on_c, 0, 63, 62
3, 496045, Note_on_c, 0, 63, 0
3, 496045, Note_on_c, 0, 70, 0
3, 496045, Note_on_c, 0, 63, 0
3, 496080, Note_on_c, 0, 63, 90
3, 496080, Note_on_c, 0, 70, 93
3, 496080, Note_on_c, 0, 75, 92
3, 496080, Note_on_c, 0, 58, 47
3, 496405, Note_on_c, 0, 58, 0
3, 496440, Note_on_c, 0, 51, 42
3, 496730, Note_on_c, 0, 70, 0
3, 496730, Note_on_c, 0, 75, 0
3, 496730, Note_on_c, 0, 63, 0
3, 496765, Note_on_c, 0, 51, 0
3, 496800, Note_on_c, 0, 65, 91
3, 496800, Note_on_c, 0, 70, 89
3, 496800, Note_on_c, 0, 75, 91
3, 496800, Note_on_c, 0, 77, 88
3, 496800, Note_on_c, 0, 31, 45
3, 496800, Note_on_c, 0, 43, 46
3, 497125, Note_on_c, 0, 43, 0
3, 497125, Note_on_c, 0, 31, 0
3, 497160, Note_on_c, 0, 51, 59
3, 497450, Note_on_c, 0, 65, 0
3, 497450, Note_on_c, 0, 75, 0
3, 497450, Note_on_c, 0, 70, 0
3, 497450, Note_on_c, 0, 77, 0
3, 497485, Note_on_c, 0, 51, 0
3, 497520, Note_on_c, 0, 67, 87
3, 497520, Note_on_c, 0, 70, 87
3, 497520, Note_on_c, 0, 75, 84
3, 497520, Note_on_c, 0, 79, 87
3, 497520, Note_on_c, 0, 58, 61
3, 497845, Note_on_c, 0, 58, 0
3, 497880, Note_on_c, 0, 63, 63
3, 498205, Note_on_c, 0, 63, 0
3, 498205, Note_on_c, 0, 79, 0
3, 498205, Note_on_c, 0, 70, 0
3, 498205, Note_on_c, 0, 75, 0
3, 498205, Note_on_c, 0, 67, 0
3, 498240, Note_on_c, 0, 70, 87
3, 498240, Note_on_c, 0, 75, 86
3, 498240, Note_on_c, 0, 79, 88
3, 498240, Note_on_c, 0, 82, 88
3, 498240, Note_on_c, 0, 58, 48
3, 498565, Note_on_c, 0, 58, 0
3, 498600, Note_on_c, 0, 51, 43
3, 498890, Note_on_c, 0, 70, 0
3, 498890, Note_on_c, 0, 79, 0
3, 498890, Note_on_c, 0, 75, 0
3, 498890, Note_on_c, 0, 82, 0
3, 498925, Note_on_c, 0, 51, 0
3, 498960, Note_on_c, 0, 72, 89
3, 498960, Note_on_c, 0, 75, 88
3, 498960, Note_on_c, 0, 80, 87
3, 498960, Note_on_c, 0, 84, 89
3, 498960, Note_on_c, 0, 29, 42
3, 498960, Note_on_c, 0, 41, 41
3, 499285, Note_on_c, 0, 41, 0
3, 499285, Note_on_c, 0, 29, 0
3, 499320, Note_on_c, 0, 51, 61
3, 499645, Note_on_c, 0, 51, 0
3, 499680, Note_on_c, 0, 60, 64
3, 500005, Note_on_c, 0, 60, 0
3, 500040, Note_on_c, 0, 63, 63
3, 500365, Note_on_c, 0, 63, 0
3, 500365, Note_on_c, 0, 84, 0
3, 500365, Note_on_c, 0, 75, 0
3, 500365, Note_on_c, 0, 80, 0
3, 500365, Note_on_c, 0, 72, 0
3, 500400, Note_on_c, 0, 70, 77
3, 500400, Note_on_c, 0, 72, 76
3, 500400, Note_on_c, 0, 75, 77
3, 500400, Note_on_c, 0, 82, 76
3, 500400, Note_on_c, 0, 60, 49
3, 500725, Note_on_c, 0, 60, 0
3, 500760, Note_on_c, 0, 51, 41
3, 501050, Note_on_c, 0, 70, 0
3, 501050, Note_on_c, 0, 75, 0
3, 501050, Note_on_c, 0, 72, 0
3, 501050, Note_on_c, 0, 82, 0
3, 501085, Note_on_c, 0, 51, 0
3, 501120, Note_on_c, 0, 67, 77
3, 501120, Note_on_c, 0, 70, 76
3, 501120, Note_on_c, 0, 74, 76
3, 501120, Note_on_c, 0, 79, 78
3, 501120, Note_on_c, 0, 34, 41
3, 501445, Note_on_c, 0, 34, 0
3, 501480, Note_on_c, 0, 46, 65
3, 501770, Note_on_c, 0, 67, 0
3, 501770, Note_on_c, 0, 74, 0
3, 501770, Note_on_c, 0, 70, 0
3, 501770, Note_on_c, 0, 79, 0
3, 501805, Note_on_c, 0, 46, 0
3, 501840, Note_on_c, 0, 68, 82
3, 501840, Note_on_c, 0, 70, 82
3, 501840, Note_on_c, 0, 74, 83
3, 501840, Note_on_c, 0, 80, 82
3, 501840, Note_on_c, 0, 58, 69
3, 502165, Note_on_c, 0, 58, 0
3, 502200, Note_on_c, 0, 62, 64
3, 502525, Note_on_c, 0, 62, 0
3, 502525, Note_on_c, 0, 80, 0
3, 502525, Note_on_c, 0, 70, 0
3, 502525, Note_on_c, 0, 74, 0
3, 502525, Note_on_c, 0, 68, 0
3, 502560, Note_on_c, 0, 67, 79
3, 502560, Note_on_c, 0, 70, 76
3, 502560, Note_on_c, 0, 74, 75
3, 502560, Note_on_c, 0, 79, 76
3, 502560, Note_on_c, 0, 56, 45
3, 502885, Note_on_c, 0, 56, 0
3, 502920, Note_on_c, 0, 46, 41
3, 503210, Note_on_c, 0, 67, 0
3, 503210, Note_on_c, 0, 74, 0
3, 503210, Note_on_c, 0, 70, 0
3, 503210, Note_on_c, 0, 79, 0
3, 503245, Note_on_c, 0, 46, 0
3, 503280, Note_on_c, 0, 70, 88
3, 503280, Note_on_c, 0, 74, 89
3, 503280, Note_on_c, 0, 79, 90
3, 503280, Note_on_c, 0, 82, 91
3, 503280, Note_on_c, 0, 29, 48
3, 503280, Note_on_c, 0, 41, 49
3, 503605, Note_on_c, 0, 41, 0
3, 503605, Note_on_c, 0, 29, 0
3, 503640, Note_on_c, 0, 50, 62
3, 503930, Note_on_c, 0, 70, 0
3, 503930, Note_on_c, 0, 79, 0
3, 503930, Note_on_c, 0, 74, 0
3, 503930, Note_on_c, 0, 82, 0
3, 503965, Note_on_c, 0, 50, 0
3, 504000, Note_on_c, 0, 62, 65
3, 504000, Note_on_c, 0, 67, 66
3, 504000, Note_on_c, 0, 70, 66
3, 504000, Note_on_c, 0, 74, 65
3, 504000, Note_on_c, 0, 56, 61
3, 504325, Note_on_c, 0, 56, 0
3, 504360, Note_on_c, 0, 62, 63
3, 504685, Note_on_c, 0, 62, 0
3, 504685, Note_on_c, 0, 74, 0
3, 504685, Note_on_c, 0, 67, 0
3, 504685, Note_on_c, 0, 70, 0
3, 504685, Note_on_c, 0, 62, 0
3, 504720, Note_on_c, 0, 67, 93
3, 504720, Note_on_c, 0, 70, 90
3, 504720, Note_on_c, 0, 74, 90
3, 504720, Note_on_c, 0, 79, 93
3, 504720, Note_on_c, 0, 58, 47
3, 505045, Note_on_c, 0, 58, 0
3, 505080, Note_on_c, 0, 50, 44
3, 505370, Note_on_c, 0, 67, 0
3, 505370, Note_on_c, 0, 74, 0
3, 505370, Note_on_c, 0, 70, 0
3, 505370, Note_on_c, 0, 79, 0
3, 505405, Note_on_c, 0, 50, 0
3, 505440, Note_on_c, 0, 70, 91
3, 505440, Note_on_c, 0, 75, 94
3, 505440, Note_on_c, 0, 79, 94
3, 505440, Note_on_c, 0, 82, 90
3, 505440, Note_on_c, 0, 41, 45
3, 505765, Note_on_c, 0, 41, 0
3, 505800, Note_on_c, 0, 51, 63
3, 506090, Note_on_c, 0, 70, 0
3, 506090, Note_on_c, 0, 79, 0
3, 506090, Note_on_c, 0, 75, 0
3, 506090, Note_on_c, 0, 82, 0
3, 506125, Note_on_c, 0, 51, 0
3, 506160, Note_on_c, 0, 72, 87
3, 506160, Note_on_c, 0, 75, 84
3, 506160, Note_on_c, 0, 80, 88
3, 506160, Note_on_c, 0, 84, 88
3, 506160, Note_on_c, 0, 60, 63
3, 506485, Note_on_c, 0, 60, 0
3, 506520, Note_on_c, 0, 63, 68
3, 506520, Note_on_c, 0, 68, 66
3, 506845, Note_on_c, 0, 68, 0
3, 506845, Note_on_c, 0, 72, 0
3, 506845, Note_on_c, 0, 84, 0
3, 506845, Note_on_c, 0, 75, 0
3, 506845, Note_on_c, 0, 80, 0
3, 506845, Note_on_c, 0, 63, 0
3, 506880, Note_on_c, 0, 75, 89
3, 506880, Note_on_c, 0, 80, 88
3, 506880, Note_on_c, 0, 84, 87
3, 506880, Note_on_c, 0, 87, 87
3, 506880, Note_on_c, 0, 60, 44
3, 507205, Note_on_c, 0, 60, 0
3, 507240, Note_on_c, 0, 51, 46
3, 507240, Note_on_c, 0, 56, 48
3, 507530, Note_on_c, 0, 75, 0
3, 507530, Note_on_c, 0, 84, 0
3, 507530, Note_on_c, 0, 80, 0
3, 507530, Note_on_c, 0, 87, 0
3, 507565, Note_on_c, 0, 51, 0
3, 507565, Note_on_c, 0, 56, 0
3, 507600, Note_on_c, 0, 77, 90
3, 507600, Note_on_c, 0, 80, 88
3, 507600, Note_on_c, 0, 84, 90
3, 507600, Note_on_c, 0, 89, 89
3, 507600, Note_on_c, 0, 39, 49
3, 507600, Note_on_c, 0, 51, 49
3, 507925, Note_on_c, 0, 51, 0
3, 507925, Note_on_c, 0, 39, 0
3, 507960, Note_on_c, 0, 60, 60
3, 508285, Note_on_c, 0, 60, 0
3, 508320, Note_on_c, 0, 63, 58
3, 508645, Note_on_c, 0, 63, 0
3, 508680, Note_on_c, 0, 68, 66
3, 508680, Note_on_c, 0, 72, 68
3, 509005, Note_on_c, 0, 72, 0
3, 509005, Note_on_c, 0, 77, 0
3, 509005, Note_on_c, 0, 89, 0
3, 509005, Note_on_c, 0, 80, 0
3, 509005, Note_on_c, 0, 84, 0
3, 509005, Note_on_c, 0, 68, 0
3, 509040, Note_on_c, 0, 75, 76
3, 509040, Note_on_c, 0, 80, 76
3, 509040, Note_on_c, 0, 84, 78
3, 509040, Note_on_c, 0, 87, 76
3, 509040, Note_on_c, 0, 63, 44
3, 509365, Note_on_c, 0, 63, 0
3, 509400, Note_on_c, 0, 60, 48
3, 509690, Note_on_c, 0, 75, 0
3, 509690, Note_on_c, 0, 84, 0
3, 509690, Note_on_c, 0, 80, 0
3, 509690, Note_on_c, 0, 87, 0
3, 509725, Note_on_c, 0, 60, 0
3, 509760, Note_on_c, 0, 72, 74
3, 509760, Note_on_c, 0, 76, 75
3, 509760, Note_on_c, 0, 80, 78
3, 509760, Note_on_c, 0, 84, 75
3, 509760, Note_on_c, 0, 37, 41
3, 509760, Note_on_c, 0, 49, 41
3, 510085, Note_on_c, 0, 49, 0
3, 510085, Note_on_c, 0, 37, 0
3, 510120, Note_on_c, 0, 56, 60
3, 510410, Note_on_c, 0, 72, 0
3, 510410, Note_on_c, 0, 80, 0
3, 510410, Note_on_c, 0, 76, 0
3, 510410, Note_on_c, 0, 84, 0
3, 510445, Note_on_c, 0, 56, 0
3, 510480, Note_on_c, 0, 73, 82
3, 510480, Note_on_c, 0, 76, 85
3, 510480, Note_on_c, 0, 80, 83
3, 510480, Note_on_c, 0, 85, 85
3, 510480, Note_on_c, 0, 58, 57
3, 510805, Note_on_c, 0, 58, 0
3, 510840, Note_on_c, 0, 64, 66
3, 510840, Note_on_c, 0, 68, 68
3, 511165, Note_on_c, 0, 68, 0
3, 511165, Note_on_c, 0, 73, 0
3, 511165, Note_on_c, 0, 85, 0
3, 511165, Note_on_c, 0, 76, 0
3, 511165, Note_on_c, 0, 80, 0
3, 511165, Note_on_c, 0, 64, 0
3, 511200, Note_on_c, 0, 72, 76
3, 511200, Note_on_c, 0, 77, 79
3, 511200, Note_on_c, 0, 80, 75
3, 511200, Note_on_c, 0, 84, 79
3, 511200, Note_on_c, 0, 58, 44
3, 511525, Note_on_c, 0, 58, 0
3, 511560, Note_on_c, 0, 56, 47
3, 511850, Note_on_c, 0, 72, 0
3, 511850, Note_on_c, 0, 80, 0
3, 511850, Note_on_c, 0, 77, 0
3, 511850, Note_on_c, 0, 84, 0
3, 511885, Note_on_c, 0, 56, 0
3, 511920, Note_on_c, 0, 75, 88
3, 511920, Note_on_c, 0, 80, 89
3, 511920, Note_on_c, 0, 84, 90
3, 511920, Note_on_c, 0, 87, 89
3, 511920, Note_on_c, 0, 36, 45
3, 511920, Note_on_c, 0, 48, 46
3, 512245, Note_on_c, 0, 48, 0
3, 512245, Note_on_c, 0, 36, 0
3, 512280, Note_on_c, 0, 51, 59
3, 512280, Note_on_c, 0, 56, 59
3, 512570, Note_on_c, 0, 75, 0
3, 512570, Note_on_c, 0, 84, 0
3, 512570, Note_on_c, 0, 80, 0
3, 512570, Note_on_c, 0, 87, 0
3, 512605, Note_on_c, 0, 51, 0
3, 512605, Note_on_c, 0, 56, 0
3, 512640, Note_on_c, 0, 70, 70
3, 512640, Note_on_c, 0, 75, 71
3, 512640, Note_on_c, 0, 80, 72
3, 512640, Note_on_c, 0, 82, 71
3, 512640, Note_on_c, 0, 56, 63
3, 512640, Note_on_c, 0, 63, 62
3, 512965, Note_on_c, 0, 63, 0
3, 512965, Note_on_c, 0, 56, 0
3, 513000, Note_on_c, 0, 84, 85
3, 513000, Note_on_c, 0, 63, 63
3, 513000, Note_on_c, 0, 68, 65
3, 513325, Note_on_c, 0, 68, 0
3, 513325, Note_on_c, 0, 63, 0
3, 513325, Note_on_c, 0, 70, 0
3, 513325, Note_on_c, 0, 82, 0
3, 513325, Note_on_c, 0, 75, 0
3, 513325, Note_on_c, 0, 84, 0
3, 513360, Note_on_c, 0, 72, 80
3, 513360, Note_on_c, 0, 75, 83
3, 513360, Note_on_c, 0, 84, 81
3, 513360, Note_on_c, 0, 56, 47
3, 513360, Note_on_c, 0, 60, 48
3, 513360, Note_on_c, 0, 63, 47
3, 513685, Note_on_c, 0, 63, 0
3, 513685, Note_on_c, 0, 60, 0
3, 513685, Note_on_c, 0, 56, 0
3, 513720, Note_on_c, 0, 51, 46
3, 513720, Note_on_c, 0, 56, 47
3, 513720, Note_on_c, 0, 60, 48
3, 514010, Note_on_c, 0, 80, 0
3, 514010, Note_on_c, 0, 75, 0
3, 514010, Note_on_c, 0, 72, 0
3, 514010, Note_on_c, 0, 84, 0
3, 514045, Note_on_c, 0, 56, 0
3, 514045, Note_on_c, 0, 60, 0
3, 514045, Note_on_c, 0, 51, 0
3, 514080, Note_on_c, 0, 75, 89
3, 514080, Note_on_c, 0, 79, 90
3, 514080, Note_on_c, 0, 82, 89
3, 514080, Note_on_c, 0, 87, 88
3, 514080, Note_on_c, 0, 34, 44
3, 514080, Note_on_c, 0, 46, 44
3, 514405, Note_on_c, 0, 46, 0
3, 514405, Note_on_c, 0, 34, 0
3, 514440, Note_on_c, 0, 51, 65
3, 514440, Note_on_c, 0, 58, 61
3, 514730, Note_on_c, 0, 75, 0
3, 514730, Note_on_c, 0, 82, 0
3, 514730, Note_on_c, 0, 79, 0
3, 514730, Note_on_c, 0, 87, 0
3, 514765, Note_on_c, 0, 51, 0
3, 514765, Note_on_c, 0, 58, 0
3, 514800, Note_on_c, 0, 77, 64
3, 514800, Note_on_c, 0, 82, 63
3, 514800, Note_on_c, 0, 87, 64
3, 514800, Note_on_c, 0, 89, 63
3, 514800, Note_on_c, 0, 58, 61
3, 514800, Note_on_c, 0, 63, 62
3, 515125, Note_on_c, 0, 63, 0
3, 515125, Note_on_c, 0, 58, 0
3, 515160, Note_on_c, 0, 63, 67
3, 515160, Note_on_c, 0, 70, 67
3, 515485, Note_on_c, 0, 70, 0
3, 515485, Note_on_c, 0, 77, 0
3, 515485, Note_on_c, 0, 89, 0
3, 515485, Note_on_c, 0, 82, 0
3, 515485, Note_on_c, 0, 87, 0
3, 515485, Note_on_c, 0, 63, 0
3, 515520, Note_on_c, 0, 78, 83
3, 515520, Note_on_c, 0, 82, 82
3, 515520, Note_on_c, 0, 87, 86
3, 515520, Note_on_c, 0, 90, 85
3, 515520, Note_on_c, 0, 58, 47
3, 515520, Note_on_c, 0, 63, 46
3, 515845, Note_on_c, 0, 63, 0
3, 515845, Note_on_c, 0, 58, 0
3, 515880, Note_on_c, 0, 51, 44
3, 515880, Note_on_c, 0, 58, 46
3, 516170, Note_on_c, 0, 78, 0
3, 516170, Note_on_c, 0, 87, 0
3, 516170, Note_on_c, 0, 82, 0
3, 516170, Note_on_c, 0, 90, 0
3, 516205, Note_on_c, 0, 51, 0
3, 516205, Note_on_c, 0, 58, 0
3, 516240, Note_on_c, 0, 79, 88
3, 516240, Note_on_c, 0, 84, 87
3, 516240, Note_on_c, 0, 87, 86
3, 516240, Note_on_c, 0, 91, 89
3, 516240, Note_on_c, 0, 33, 42
3, 516240, Note_on_c, 0, 45, 41
3, 516565, Note_on_c, 0, 45, 0
3, 516565, Note_on_c, 0, 33, 0
3, 516600, Note_on_c, 0, 51, 64
3, 516600, Note_on_c, 0, 56, 65
3, 516600, Note_on_c, 0, 60, 64
3, 516925, Note_on_c, 0, 60, 0
3, 516925, Note_on_c, 0, 56, 0
3, 516925, Note_on_c, 0, 51, 0
3, 516960, Note_on_c, 0, 55, 58
3, 516960, Note_on_c, 0, 60, 58
3, 516960, Note_on_c, 0, 63, 61
3, 517285, Note_on_c, 0, 63, 0
3, 517285, Note_on_c, 0, 60, 0
3, 517285, Note_on_c, 0, 55, 0
3, 517320, Note_on_c, 0, 60, 61
3, 517320, Note_on_c, 0, 63, 61
3, 517320, Note_on_c, 0, 67, 64
3, 517645, Note_on_c, 0, 67, 0
3, 517645, Note_on_c, 0, 63, 0
3, 517645, Note_on_c, 0, 79, 0
3, 517645, Note_on_c, 0, 91, 0
3, 517645, Note_on_c, 0, 84, 0
3, 517645, Note_on_c, 0, 87, 0
3, 517645, Note_on_c, 0, 60, 0
3, 517680, Note_on_c, 0, 77, 76
3, 517680, Note_on_c, 0, 79, 75
3, 517680, Note_on_c, 0, 84, 74
3, 517680, Note_on_c, 0, 89, 74
3, 517680, Note_on_c, 0, 55, 45
3, 517680, Note_on_c, 0, 60, 44
3, 518005, Note_on_c, 0, 60, 0
3, 518005, Note_on_c, 0, 55, 0
3, 518040, Note_on_c, 0, 51, 44
3, 518040, Note_on_c, 0, 55, 47
3, 518330, Note_on_c, 0, 77, 0
3, 518330, Note_on_c, 0, 84, 0
3, 518330, Note_on_c, 0, 79, 0
3, 518330, Note_on_c, 0, 89, 0
3, 518365, Note_on_c, 0, 51, 0
3, 518365, Note_on_c, 0, 55, 0
3, 518400, Note_on_c, 0, 75, 79
3, 518400, Note_on_c, 0, 80, 79
3, 518400, Note_on_c, 0, 84, 76
3, 518400, Note_on_c, 0, 87, 76
3, 518400, Note_on_c, 0, 32, 43
3, 518400, Note_on_c, 0, 44, 44
3, 518725, Note_on_c, 0, 44, 0
3, 518725, Note_on_c, 0, 32, 0
3, 518760, Note_on_c, 0, 51, 63
3, 518760, Note_on_c, 0, 56, 63
3, 518760, Note_on_c, 0, 60, 64
3, 519050, Note_on_c, 0, 75, 0
3, 519050, Note_on_c, 0, 84, 0
3, 519050, Note_on_c, 0, 80, 0
3, 519050, Note_on_c, 0, 87, 0
3, 519085, Note_on_c, 0, 56, 0
3, 519085, Note_on_c, 0, 60, 0
3, 519085, Note_on_c, 0, 51, 0
3, 519120, Note_on_c, 0, 77, 86
3, 519120, Note_on_c, 0, 80, 84
3, 519120, Note_on_c, 0, 84, 84
3, 519120, Note_on_c, 0, 89, 83
3, 519120, Note_on_c, 0, 56, 57
3, 519120, Note_on_c, 0, 60, 58
3, 519120, Note_on_c, 0, 63, 57
3, 519445, Note_on_c, 0, 63, 0
3, 519445, Note_on_c, 0, 60, 0
3, 519445, Note_on_c, 0, 56, 0
3, 519480, Note_on_c, 0, 60, 65
3, 519480, Note_on_c, 0, 63, 62
3, 519480, Note_on_c, 0, 68, 63
3, 519805, Note_on_c, 0, 68, 0
3, 519805, Note_on_c, 0, 63, 0
3, 519805, Note_on_c, 0, 77, 0
3, 519805, Note_on_c, 0, 89, 0
3, 519805, Note_on_c, 0, 80, 0
3, 519805, Note_on_c, 0, 84, 0
3, 519805, Note_on_c, 0, 60, 0
3, 519840, Note_on_c, 0, 78, 83
3, 519840, Note_on_c, 0, 80, 86
3, 519840, Note_on_c, 0, 84, 83
3, 519840, Note_on_c, 0, 87, 83
3, 519840, Note_on_c, 0, 90, 84
3, 519840, Note_on_c, 0, 56, 45
3, 519840, Note_on_c, 0, 60, 45
3, 519840, Note_on_c, 0, 63, 49
3, 520165, Note_on_c, 0, 63, 0
3, 520165, Note_on_c, 0, 60, 0
3, 520165, Note_on_c, 0, 56, 0
3, 520200, Note_on_c, 0, 51, 50
3, 520200, Note_on_c, 0, 56, 48
3, 520200, Note_on_c, 0, 60, 49
3, 520490, Note_on_c, 0, 87, 0
3, 520490, Note_on_c, 0, 84, 0
3, 520490, Note_on_c, 0, 80, 0
3, 520490, Note_on_c, 0, 90, 0
3, 520490, Note_on_c, 0, 78, 0
3, 520525, Note_on_c, 0, 56, 0
3, 520525, Note_on_c, 0, 60, 0
3, 520525, Note_on_c, 0, 51, 0
3, 520560, Note_on_c, 0, 79, 86
3, 520560, Note_on_c, 0, 84, 90
3, 520560, Note_on_c, 0, 87, 89
3, 520560, Note_on_c, 0, 91, 88
3, 520560, Note_on_c, 0, 31, 43
3, 520560, Note_on_c, 0, 43, 41
3, 520885, Note_on_c, 0, 43, 0
3, 520885, Note_on_c, 0, 31, 0
3, 520920, Note_on_c, 0, 51, 61
3, 520920, Note_on_c, 0, 55, 64
3, 520920, Note_on_c, 0, 60, 65
3, 521210, Note_on_c, 0, 79, 0
3, 521210, Note_on_c, 0, 87, 0
3, 521210, Note_on_c, 0, 84, 0
3, 521210, Note_on_c, 0, 91, 0
3, 521245, Note_on_c, 0, 55, 0
3, 521245, Note_on_c, 0, 60, 0
3, 521245, Note_on_c, 0, 51, 0
3, 521280, Note_on_c, 0, 80, 84
3, 521280, Note_on_c, 0, 84, 86
3, 521280, Note_on_c, 0, 87, 86
3, 521280, Note_on_c, 0, 92, 87
3, 521280, Note_on_c, 0, 55, 58
3, 521280, Note_on_c, 0, 60, 58
3, 521280, Note_on_c, 0, 63, 61
3, 521605, Note_on_c, 0, 63, 0
3, 521605, Note_on_c, 0, 60, 0
3, 521605, Note_on_c, 0, 55, 0
3, 521640, Note_on_c, 0, 60, 63
3, 521640, Note_on_c, 0, 63, 64
3, 521640, Note_on_c, 0, 67, 61
3, 521965, Note_on_c, 0, 67, 0
3, 521965, Note_on_c, 0, 63, 0
3, 521965, Note_on_c, 0, 80, 0
3, 521965, Note_on_c, 0, 92, 0
3, 521965, Note_on_c, 0, 84, 0
3, 521965, Note_on_c, 0, 87, 0
3, 521965, Note_on_c, 0, 60, 0
3, 522000, Note_on_c, 0, 82, 83
3, 522000, Note_on_c, 0, 84, 83
3, 522000, Note_on_c, 0, 87, 84
3, 522000, Note_on_c, 0, 94, 85
3, 522000, Note_on_c, 0, 55, 47
3, 522000, Note_on_c, 0, 60, 47
3, 522000, Note_on_c, 0, 63, 49
3, 522325, Note_on_c, 0, 63, 0
3, 522325, Note_on_c, 0, 60, 0
3, 522325, Note_on_c, 0, 55, 0
3, 522360, Note_on_c, 0, 51, 46
3, 522360, Note_on_c, 0, 55, 49
3, 522360, Note_on_c, 0, 60, 47
3, 522650, Note_on_c, 0, 82, 0
3, 522650, Note_on_c, 0, 87, 0
3, 522650, Note_on_c, 0, 84, 0
3, 522650, Note_on_c, 0, 94, 0
3, 522685, Note_on_c, 0, 55, 0
3, 522685, Note_on_c, 0, 60, 0
3, 522685, Note_on_c, 0, 51, 0
3, 522720, Note_on_c, 0, 84, 91
3, 522720, Note_on_c, 0, 87, 88
3, 522720, Note_on_c, 0, 92, 89
3, 522720, Note_on_c, 0, 96, 87
3, 522720, Note_on_c, 0, 29, 41
3, 522720, Note_on_c, 0, 41, 40
3, 523045, Note_on_c, 0, 41, 0
3, 523045, Note_on_c, 0, 29, 0
3, 523080, Note_on_c, 0, 51, 62
3, 523080, Note_on_c, 0, 56, 63
3, 523080, Note_on_c, 0, 60, 64
3, 523080, Note_on_c, 0, 63, 64
3, 523080, Note_on_c, 0, 72, 98
3, 523080, Note_on_c, 0, 75, 97
3, 523080, Note_on_c, 0, 79, 99
3, 523405, Note_on_c, 0, 79, 0
3, 523405, Note_on_c, 0, 72, 0
3, 523405, Note_on_c, 0, 60, 0
3, 523405, Note_on_c, 0, 56, 0
3, 523405, Note_on_c, 0, 63, 0
3, 523405, Note_on_c, 0, 75, 0
3, 523405, Note_on_c, 0, 51, 0
3, 523440, Note_on_c, 0, 51, 56
3, 523440, Note_on_c, 0, 56, 55
3, 523440, Note_on_c, 0, 60, 54
3, 523440, Note_on_c, 0, 63, 56
3, 523440, Note_on_c, 0, 72, 91
3, 523440, Note_on_c, 0, 75, 90
3, 523440, Note_on_c, 0, 79, 91
3, 523440, Note_on_c, 0, 84, 92
3, 523765, Note_on_c, 0, 79, 0
3, 523765, Note_on_c, 0, 72, 0
3, 523765, Note_on_c, 0, 56, 0
3, 523765, Note_on_c, 0, 63, 0
3, 523765, Note_on_c, 0, 60, 0
3, 523765, Note_on_c, 0, 75, 0
3, 523765, Note_on_c, 0, 51, 0
3, 523765, Note_on_c, 0, 84, 0
3, 523800, Note_on_c, 0, 56, 63
3, 523800, Note_on_c, 0, 60, 62
3, 523800, Note_on_c, 0, 63, 62
3, 523800, Note_on_c, 0, 68, 60
3, 523800, Note_on_c, 0, 72, 82
3, 523800, Note_on_c, 0, 75, 81
3, 523800, Note_on_c, 0, 80, 82
3, 523800, Note_on_c, 0, 84, 82
3, 524043, Note_on_c, 0, 80, 0
3, 524043, Note_on_c, 0, 72, 0
3, 524043, Note_on_c, 0, 60, 0
3, 524043, Note_on_c, 0, 68, 0
3, 524043, Note_on_c, 0, 63, 0
3, 524043, Note_on_c, 0, 75, 0
3, 524043, Note_on_c, 0, 56, 0
3, 524043, Note_on_c, 0, 84, 0
3, 524070, Note_on_c, 0, 56, 53
3, 524070, Note_on_c, 0, 60, 53
3, 524070, Note_on_c, 0, 63, 55
3, 524070, Note_on_c, 0, 68, 55
3, 524070, Note_on_c, 0, 72, 52
3, 524070, Note_on_c, 0, 75, 54
3, 524070, Note_on_c, 0, 80, 54
3, 524070, Note_on_c, 0, 84, 52
3, 524152, Note_on_c, 0, 80, 0
3, 524152, Note_on_c, 0, 72, 0
3, 524152, Note_on_c, 0, 60, 0
3, 524152, Note_on_c, 0, 68, 0
3, 524152, Note_on_c, 0, 63, 0
3, 524152, Note_on_c, 0, 75, 0
3, 524152, Note_on_c, 0, 56, 0
3, 524152, Note_on_c, 0, 84, 0
3, 524160, Note_on_c, 0, 56, 53
3, 524160, Note_on_c, 0, 60, 52
3, 524160, Note_on_c, 0, 63, 53
3, 524160, Note_on_c, 0, 68, 55
3, 524160, Note_on_c, 0, 72, 55
3, 524160, Note_on_c, 0, 75, 52
3, 524160, Note_on_c, 0, 80, 53
3, 524160, Note_on_c, 0, 84, 55
3, 524450, Note_on_c, 0, 96, 0
3, 524450, Note_on_c, 0, 84, 0
3, 524450, Note_on_c, 0, 87, 0
3, 524450, Note_on_c, 0, 92, 0
3, 524485, Note_on_c, 0, 72, 0
3, 524485, Note_on_c, 0, 63, 0
3, 524485, Note_on_c, 0, 56, 0
3, 524485, Note_on_c, 0, 60, 0
3, 524485, Note_on_c, 0, 84, 0
3, 524485, Note_on_c, 0, 80, 0
3, 524485, Note_on_c, 0, 68, 0
3, 524485, Note_on_c, 0, 75, 0
3, 524520, Note_on_c, 0, 79, 95
3, 524520, Note_on_c, 0, 91, 98
3, 524845, Note_on_c, 0, 91, 0
3, 524845, Note_on_c, 0, 79, 0
3, 524880, Note_on_c, 0, 75, 77
3, 524880, Note_on_c, 0, 79, 76
3, 524880, Note_on_c, 0, 82, 77
3, 524880, Note_on_c, 0, 87, 76
3, 524880, Note_on_c, 0, 27, 49
3, 524880, Note_on_c, 0, 39, 53
3, 525205, Note_on_c, 0, 39, 0
3, 525205, Note_on_c, 0, 27, 0
3, 525240, Note_on_c, 0, 55, 64
3, 525530, Note_on_c, 0, 75, 0
3, 525530, Note_on_c, 0, 82, 0
3, 525530, Note_on_c, 0, 79, 0
3, 525530, Note_on_c, 0, 87, 0
3, 525565, Note_on_c, 0, 55, 0
3, 525600, Note_on_c, 0, 74, 77
3, 525600, Note_on_c, 0, 79, 75
3, 525600, Note_on_c, 0, 82, 77
3, 525600, Note_on_c, 0, 86, 76
3, 525600, Note_on_c, 0, 58, 59
3, 525925, Note_on_c, 0, 58, 0
3, 525960, Note_on_c, 0, 63, 65
3, 525960, Note_on_c, 0, 67, 67
3, 526285, Note_on_c, 0, 67, 0
3, 526285, Note_on_c, 0, 74, 0
3, 526285, Note_on_c, 0, 86, 0
3, 526285, Note_on_c, 0, 79, 0
3, 526285, Note_on_c, 0, 82, 0
3, 526285, Note_on_c, 0, 63, 0
3, 526320, Note_on_c, 0, 75, 83
3, 526320, Note_on_c, 0, 79, 83
3, 526320, Note_on_c, 0, 82, 83
3, 526320, Note_on_c, 0, 87, 84
3, 526320, Note_on_c, 0, 58, 46
3, 526645, Note_on_c, 0, 58, 0
3, 526680, Note_on_c, 0, 55, 46
3, 526970, Note_on_c, 0, 75, 0
3, 526970, Note_on_c, 0, 82, 0
3, 526970, Note_on_c, 0, 79, 0
3, 526970, Note_on_c, 0, 87, 0
3, 527005, Note_on_c, 0, 55, 0
3, 527040, Note_on_c, 0, 75, 85
3, 527040, Note_on_c, 0, 79, 84
3, 527040, Note_on_c, 0, 84, 85
3, 527040, Note_on_c, 0, 87, 82
3, 527040, Note_on_c, 0, 39, 41
3, 527365, Note_on_c, 0, 39, 0
3, 527400, Note_on_c, 0, 55, 65
3, 527725, Note_on_c, 0, 55, 0
3, 527760, Note_on_c, 0, 60, 61
3, 528085, Note_on_c, 0, 60, 0
3, 528120, Note_on_c, 0, 63, 64
3, 528120, Note_on_c, 0, 67, 67
3, 528445, Note_on_c, 0, 67, 0
3, 528445, Note_on_c, 0, 63, 0
3, 528480, Note_on_c, 0, 60, 47
3, 528805, Note_on_c, 0, 60, 0
3, 528840, Note_on_c, 0, 55, 45
3, 529165, Note_on_c, 0, 55, 0
3, 529200, Note_on_c, 0, 39, 41
3, 529525, Note_on_c, 0, 39, 0
3, 529560, Note_on_c, 0, 55, 65
3, 529850, Note_on_c, 0, 75, 0
3, 529850, Note_on_c, 0, 84, 0
3, 529850, Note_on_c, 0, 79, 0
3, 529850, Note_on_c, 0, 87, 0
3, 529885, Note_on_c, 0, 55, 0
3, 529920, Note_on_c, 0, 72, 74
3, 529920, Note_on_c, 0, 75, 73
3, 529920, Note_on_c, 0, 79, 75
3, 529920, Note_on_c, 0, 84, 73
3, 529920, Note_on_c, 0, 61, 62
3, 530245, Note_on_c, 0, 61, 0
3, 530280, Note_on_c, 0, 63, 65
3, 530280, Note_on_c, 0, 67, 66
3, 530605, Note_on_c, 0, 67, 0
3, 530605, Note_on_c, 0, 72, 0
3, 530605, Note_on_c, 0, 84, 0
3, 530605, Note_on_c, 0, 75, 0
3, 530605, Note_on_c, 0, 79, 0
3, 530605, Note_on_c, 0, 63, 0
3, 530640, Note_on_c, 0, 71, 76
3, 530640, Note_on_c, 0, 75, 78
3, 530640, Note_on_c, 0, 79, 78
3, 530640, Note_on_c, 0, 83, 76
3, 530640, Note_on_c, 0, 61, 46
3, 530965, Note_on_c, 0, 61, 0
3, 531000, Note_on_c, 0, 55, 44
3, 531290, Note_on_c, 0, 71, 0
3, 531290, Note_on_c, 0, 79, 0
3, 531290, Note_on_c, 0, 75, 0
3, 531290, Note_on_c, 0, 83, 0
3, 531325, Note_on_c, 0, 55, 0
3, 531360, Note_on_c, 0, 72, 86
3, 531360, Note_on_c, 0, 75, 87
3, 531360, Note_on_c, 0, 78, 85
3, 531360, Note_on_c, 0, 81, 88
3, 531360, Note_on_c, 0, 84, 87
3, 531360, Note_on_c, 0, 39, 42
3, 531685, Note_on_c, 0, 39, 0
3, 531720, Note_on_c, 0, 54, 64
3, 532045, Note_on_c, 0, 54, 0
3, 532080, Note_on_c, 0, 60, 61
3, 532405, Note_on_c, 0, 60, 0
3, 532440, Note_on_c, 0, 63, 67
3, 532440, Note_on_c, 0, 66, 63
3, 532765, Note_on_c, 0, 66, 0
3, 532765, Note_on_c, 0, 63, 0
3, 532800, Note_on_c, 0, 60, 49
3, 533125, Note_on_c, 0, 60, 0
3, 533160, Note_on_c, 0, 54, 46
3, 533450, Note_on_c, 0, 81, 0
3, 533450, Note_on_c, 0, 78, 0
3, 533450, Note_on_c, 0, 72, 0
3, 533450, Note_on_c, 0, 75, 0
3, 533450, Note_on_c, 0, 84, 0
3, 533485, Note_on_c, 0, 54, 0
3, 533520, Note_on_c, 0, 68, 74
3, 533520, Note_on_c, 0, 72, 75
3, 533520, Note_on_c, 0, 75, 74
3, 533520, Note_on_c, 0, 80, 77
3, 533520, Note_on_c, 0, 39, 41
3, 533845, Note_on_c, 0, 39, 0
3, 533880, Note_on_c, 0, 54, 64
3, 534170, Note_on_c, 0, 68, 0
3, 534170, Note_on_c, 0, 75, 0
3, 534170, Note_on_c, 0, 72, 0
3, 534170, Note_on_c, 0, 80, 0
3, 534205, Note_on_c, 0, 54, 0
3, 534240, Note_on_c, 0, 67, 75
3, 534240, Note_on_c, 0, 72, 75
3, 534240, Note_on_c, 0, 75, 75
3, 534240, Note_on_c, 0, 79, 74
3, 534240, Note_on_c, 0, 56, 58
3, 534565, Note_on_c, 0, 56, 0
3, 534600, Note_on_c, 0, 60, 64
3, 534600, Note_on_c, 0, 63, 64
3, 534925, Note_on_c, 0, 63, 0
3, 534925, Note_on_c, 0, 67, 0
3, 534925, Note_on_c, 0, 79, 0
3, 534925, Note_on_c, 0, 72, 0
3, 534925, Note_on_c, 0, 75, 0
3, 534925, Note_on_c, 0, 60, 0
3, 534960, Note_on_c, 0, 66, 76
3, 534960, Note_on_c, 0, 72, 77
3, 534960, Note_on_c, 0, 75, 78
3, 534960, Note_on_c, 0, 78, 78
3, 534960, Note_on_c, 0, 56, 45
3, 535285, Note_on_c, 0, 56, 0
3, 535320, Note_on_c, 0, 54, 47
3, 535610, Note_on_c, 0, 66, 0
3, 535610, Note_on_c, 0, 75, 0
3, 535610, Note_on_c, 0, 72, 0
3, 535610, Note_on_c, 0, 78, 0
3, 535645, Note_on_c, 0, 54, 0
3, 535680, Note_on_c, 0, 65, 80
3, 535680, Note_on_c, 0, 69, 81
3, 535680, Note_on_c, 0, 72, 79
3, 535680, Note_on_c, 0, 75, 78
3, 535680, Note_on_c, 0, 77, 79
3, 535680, Note_on_c, 0, 39, 41
3, 536005, Note_on_c, 0, 39, 0
3, 536040, Note_on_c, 0, 53, 63
3, 536365, Note_on_c, 0, 53, 0
3, 536400, Note_on_c, 0, 57, 61
3, 536725, Note_on_c, 0, 57, 0
3, 536760, Note_on_c, 0, 60, 64
3, 536760, Note_on_c, 0, 63, 64
3, 537085, Note_on_c, 0, 63, 0
3, 537085, Note_on_c, 0, 60, 0
3, 537120, Note_on_c, 0, 57, 49
3, 537445, Note_on_c, 0, 57, 0
3, 537480, Note_on_c, 0, 53, 46
3, 537770, Note_on_c, 0, 75, 0
3, 537770, Note_on_c, 0, 72, 0
3, 537770, Note_on_c, 0, 65, 0
3, 537770, Note_on_c, 0, 69, 0
3, 537770, Note_on_c, 0, 77, 0
3, 537805, Note_on_c, 0, 53, 0
3, 537840, Note_on_c, 0, 64, 80
3, 537840, Note_on_c, 0, 68, 78
3, 537840, Note_on_c, 0, 71, 78
3, 537840, Note_on_c, 0, 76, 79
3, 537840, Note_on_c, 0, 39, 42
3, 538165, Note_on_c, 0, 39, 0
3, 538200, Note_on_c, 0, 52, 63
3, 538525, Note_on_c, 0, 52, 0
3, 538560, Note_on_c, 0, 56, 60
3, 538885, Note_on_c, 0, 56, 0
3, 538920, Note_on_c, 0, 59, 65
3, 538920, Note_on_c, 0, 62, 63
3, 539245, Note_on_c, 0, 62, 0
3, 539245, Note_on_c, 0, 64, 0
3, 539245, Note_on_c, 0, 76, 0
3, 539245, Note_on_c, 0, 68, 0
3, 539245, Note_on_c, 0, 71, 0
3, 539245, Note_on_c, 0, 59, 0
3, 539280, Note_on_c, 0, 62, 75
3, 539280, Note_on_c, 0, 68, 78
3, 539280, Note_on_c, 0, 74, 76
3, 539280, Note_on_c, 0, 56, 49
3, 539605, Note_on_c, 0, 56, 0
3, 539640, Note_on_c, 0, 52, 47
3, 539930, Note_on_c, 0, 68, 0
3, 539930, Note_on_c, 0, 74, 0
3, 539930, Note_on_c, 0, 62, 0
3, 539965, Note_on_c, 0, 52, 0
3, 540000, Note_on_c, 0, 63, 84
3, 540000, Note_on_c, 0, 67, 85
3, 540000, Note_on_c, 0, 75, 85
3, 540000, Note_on_c, 0, 39, 51
3, 540000, Note_on_c, 0, 51, 50
3, 540325, Note_on_c, 0, 51, 0
3, 540325, Note_on_c, 0, 39, 0
3, 540360, Note_on_c, 0, 55, 56
3, 540685, Note_on_c, 0, 55, 0
3, 540720, Note_on_c, 0, 58, 55
3, 541045, Note_on_c, 0, 58, 0
3, 541080, Note_on_c, 0, 63, 62
3, 541405, Note_on_c, 0, 63, 0
3, 541440, Note_on_c, 0, 58, 46
3, 541765, Note_on_c, 0, 58, 0
3, 541800, Note_on_c, 0, 55, 49
3, 542125, Note_on_c, 0, 55, 0
3, 542160, Note_on_c, 0, 39, 44
3, 542485, Note_on_c, 0, 39, 0
3, 542485, Note_on_c, 0, 63, 0
3, 542485, Note_on_c, 0, 75, 0
3, 542485, Note_on_c, 0, 67, 0
3, 542520, Note_on_c, 0, 47, 60
3, 542845, Note_on_c, 0, 47, 0
3, 542880, Note_on_c, 0, 55, 64
3, 543205, Note_on_c, 0, 55, 0
3, 543240, Note_on_c, 0, 59, 61
3, 543565, Note_on_c, 0, 59, 0
3, 543600, Note_on_c, 0, 67, 74
3, 543600, Note_on_c, 0, 55, 47
3, 543763, Note_on_c, 0, 67, 0
3, 543780, Note_on_c, 0, 65, 76
3, 543925, Note_on_c, 0, 55, 0
3, 543943, Note_on_c, 0, 65, 0
3, 543960, Note_on_c, 0, 63, 78
3, 543960, Note_on_c, 0, 47, 43
3, 544123, Note_on_c, 0, 63, 0
3, 544140, Note_on_c, 0, 65, 83
3, 544285, Note_on_c, 0, 47, 0
3, 544303, Note_on_c, 0, 65, 0
3, 544320, Note_on_c, 0, 67, 90
3, 544320, Note_on_c, 0, 39, 44
3, 544483, Note_on_c, 0, 67, 0
3, 544500, Note_on_c, 0, 63, 73
3, 544645, Note_on_c, 0, 39, 0
3, 544663, Note_on_c, 0, 63, 0
3, 544680, Note_on_c, 0, 60, 77
3, 544680, Note_on_c, 0, 48, 63
3, 544843, Note_on_c, 0, 60, 0
3, 544860, Note_on_c, 0, 62, 83
3, 545005, Note_on_c, 0, 48, 0
3, 545023, Note_on_c, 0, 62, 0
3, 545040, Note_on_c, 0, 63, 90
3, 545040, Note_on_c, 0, 55, 62
3, 545203, Note_on_c, 0, 63, 0
3, 545220, Note_on_c, 0, 59, 73
3, 545365, Note_on_c, 0, 55, 0
3, 545383, Note_on_c, 0, 59, 0
3, 545400, Note_on_c, 0, 60, 63
3, 545580, Note_on_c, 0, 63, 73
3, 545725, Note_on_c, 0, 60, 0
3, 545743, Note_on_c, 0, 63, 0
3, 545760, Note_on_c, 0, 67, 90
3, 545760, Note_on_c, 0, 55, 50
3, 545923, Note_on_c, 0, 67, 0
3, 545940, Note_on_c, 0, 72, 93
3, 546085, Note_on_c, 0, 55, 0
3, 546103, Note_on_c, 0, 72, 0
3, 546120, Note_on_c, 0, 75, 94
3, 546120, Note_on_c, 0, 48, 42
3, 546283, Note_on_c, 0, 75, 0
3, 546300, Note_on_c, 0, 77, 84
3, 546445, Note_on_c, 0, 48, 0
3, 546463, Note_on_c, 0, 77, 0
3, 546480, Note_on_c, 0, 79, 88
3, 546480, Note_on_c, 0, 39, 43
3, 546805, Note_on_c, 0, 39, 0
3, 546805, Note_on_c, 0, 79, 0
3, 546840, Note_on_c, 0, 49, 63
3, 547165, Note_on_c, 0, 49, 0
3, 547200, Note_on_c, 0, 55, 63
3, 547525, Note_on_c, 0, 55, 0
3, 547560, Note_on_c, 0, 61, 65
3, 547885, Note_on_c, 0, 61, 0
3, 547920, Note_on_c, 0, 67, 74
3, 547920, Note_on_c, 0, 55, 47
3, 548083, Note_on_c, 0, 67, 0
3, 548100, Note_on_c, 0, 65, 76
3, 548245, Note_on_c, 0, 55, 0
3, 548263, Note_on_c, 0, 65, 0
3, 548280, Note_on_c, 0, 63, 78
3, 548280, Note_on_c, 0, 49, 45
3, 548443, Note_on_c, 0, 63, 0
3, 548460, Note_on_c, 0, 65, 86
3, 548605, Note_on_c, 0, 49, 0
3, 548623, Note_on_c, 0, 65, 0
3, 548640, Note_on_c, 0, 66, 86
3, 548640, Note_on_c, 0, 39, 42
3, 548803, Note_on_c, 0, 66, 0
3, 548820, Note_on_c, 0, 63, 75
3, 548965, Note_on_c, 0, 39, 0
3, 548983, Note_on_c, 0, 63, 0
3, 549000, Note_on_c, 0, 60, 75
3, 549000, Note_on_c, 0, 48, 61
3, 549163, Note_on_c, 0, 60, 0
3, 549180, Note_on_c, 0, 62, 84
3, 549325, Note_on_c, 0, 48, 0
3, 549343, Note_on_c, 0, 62, 0
3, 549360, Note_on_c, 0, 63, 89
3, 549360, Note_on_c, 0, 54, 63
3, 549523, Note_on_c, 0, 63, 0
3, 549540, Note_on_c, 0, 59, 73
3, 549685, Note_on_c, 0, 54, 0
3, 549703, Note_on_c, 0, 59, 0
3, 549720, Note_on_c, 0, 57, 65
3, 549720, Note_on_c, 0, 60, 65
3, 549900, Note_on_c, 0, 63, 75
3, 550045, Note_on_c, 0, 60, 0
3, 550045, Note_on_c, 0, 57, 0
3, 550063, Note_on_c, 0, 63, 0
3, 550080, Note_on_c, 0, 66, 90
3, 550080, Note_on_c, 0, 54, 47
3, 550243, Note_on_c, 0, 66, 0
3, 550260, Note_on_c, 0, 69, 89
3, 550405, Note_on_c, 0, 54, 0
3, 550423, Note_on_c, 0, 69, 0
3, 550440, Note_on_c, 0, 72, 89
3, 550440, Note_on_c, 0, 48, 43
3, 550603, Note_on_c, 0, 72, 0
3, 550620, Note_on_c, 0, 75, 89
3, 550765, Note_on_c, 0, 48, 0
3, 550783, Note_on_c, 0, 75, 0
3, 550800, Note_on_c, 0, 78, 92
3, 550800, Note_on_c, 0, 39, 46
3, 551125, Note_on_c, 0, 39, 0
3, 551125, Note_on_c, 0, 78, 0
3, 551160, Note_on_c, 0, 48, 59
3, 551485, Note_on_c, 0, 48, 0
3, 551520, Note_on_c, 0, 54, 62
3, 551845, Note_on_c, 0, 54, 0
3, 551880, Note_on_c, 0, 56, 65
3, 551880, Note_on_c, 0, 60, 63
3, 552205, Note_on_c, 0, 60, 0
3, 552205, Note_on_c, 0, 56, 0
3, 552240, Note_on_c, 0, 63, 76
3, 552240, Note_on_c, 0, 54, 47
3, 552403, Note_on_c, 0, 63, 0
3, 552420, Note_on_c, 0, 62, 75
3, 552565, Note_on_c, 0, 54, 0
3, 552583, Note_on_c, 0, 62, 0
3, 552600, Note_on_c, 0, 60, 80
3, 552600, Note_on_c, 0, 48, 44
3, 552763, Note_on_c, 0, 60, 0
3, 552780, Note_on_c, 0, 62, 86
3, 552925, Note_on_c, 0, 48, 0
3, 552943, Note_on_c, 0, 62, 0
3, 552960, Note_on_c, 0, 63, 87
3, 552960, Note_on_c, 0, 39, 45
3, 553123, Note_on_c, 0, 63, 0
3, 553140, Note_on_c, 0, 60, 74
3, 553285, Note_on_c, 0, 39, 0
3, 553303, Note_on_c, 0, 60, 0
3, 553320, Note_on_c, 0, 57, 75
3, 553320, Note_on_c, 0, 48, 63
3, 553483, Note_on_c, 0, 57, 0
3, 553500, Note_on_c, 0, 59, 85
3, 553645, Note_on_c, 0, 48, 0
3, 553663, Note_on_c, 0, 59, 0
3, 553680, Note_on_c, 0, 60, 89
3, 553680, Note_on_c, 0, 53, 59
3, 553843, Note_on_c, 0, 60, 0
3, 553860, Note_on_c, 0, 62, 88
3, 554005, Note_on_c, 0, 53, 0
3, 554023, Note_on_c, 0, 62, 0
3, 554040, Note_on_c, 0, 63, 88
3, 554040, Note_on_c, 0, 57, 62
3, 554203, Note_on_c, 0, 63, 0
3, 554220, Note_on_c, 0, 62, 79
3, 554365, Note_on_c, 0, 57, 0
3, 554383, Note_on_c, 0, 62, 0
3, 554400, Note_on_c, 0, 63, 87
3, 554400, Note_on_c, 0, 53, 47
3, 554563, Note_on_c, 0, 63, 0
3, 554580, Note_on_c, 0, 65, 86
3, 554725, Note_on_c, 0, 53, 0
3, 554743, Note_on_c, 0, 65, 0
3, 554760, Note_on_c, 0, 69, 92
3, 554760, Note_on_c, 0, 48, 43
3, 554923, Note_on_c, 0, 69, 0
3, 554940, Note_on_c, 0, 72, 87
3, 555085, Note_on_c, 0, 48, 0
3, 555103, Note_on_c, 0, 72, 0
3, 555120, Note_on_c, 0, 62, 67
3, 555120, Note_on_c, 0, 39, 45
3, 555283, Note_on_c, 0, 62, 0
3, 555300, Note_on_c, 0, 59, 72
3, 555445, Note_on_c, 0, 39, 0
3, 555463, Note_on_c, 0, 59, 0
3, 555480, Note_on_c, 0, 56, 75
3, 555480, Note_on_c, 0, 47, 62
3, 555643, Note_on_c, 0, 56, 0
3, 555660, Note_on_c, 0, 58, 83
3, 555805, Note_on_c, 0, 47, 0
3, 555823, Note_on_c, 0, 58, 0
3, 555840, Note_on_c, 0, 59, 88
3, 555840, Note_on_c, 0, 52, 62
3, 556003, Note_on_c, 0, 59, 0
3, 556020, Note_on_c, 0, 61, 86
3, 556165, Note_on_c, 0, 52, 0
3, 556183, Note_on_c, 0, 61, 0
3, 556200, Note_on_c, 0, 62, 87
3, 556200, Note_on_c, 0, 56, 61
3, 556363, Note_on_c, 0, 62, 0
3, 556380, Note_on_c, 0, 61, 78
3, 556525, Note_on_c, 0, 56, 0
3, 556543, Note_on_c, 0, 61, 0
3, 556560, Note_on_c, 0, 62, 87
3, 556560, Note_on_c, 0, 52, 47
3, 556723, Note_on_c, 0, 62, 0
3, 556740, Note_on_c, 0, 64, 86
3, 556885, Note_on_c, 0, 52, 0
3, 556903, Note_on_c, 0, 64, 0
3, 556920, Note_on_c, 0, 68, 92
3, 556920, Note_on_c, 0, 47, 47
3, 557083, Note_on_c, 0, 68, 0
3, 557100, Note_on_c, 0, 71, 87
3, 557245, Note_on_c, 0, 47, 0
3, 557263, Note_on_c, 0, 71, 0
3, 557280, Note_on_c, 0, 63, 71
3, 557280, Note_on_c, 0, 39, 64
3, 557280, Note_on_c, 0, 46, 66
3, 557280, Note_on_c, 0, 55, 65
3, 557605, Note_on_c, 0, 55, 0
3, 557605, Note_on_c, 0, 39, 0
3, 557605, Note_on_c, 0, 46, 0
3, 557605, Note_on_c, 0, 63, 0
3, 558720, Note_on_c, 0, 63, 74
3, 558720, Note_on_c, 0, 51, 50
3, 559207, Note_on_c, 0, 51, 0
3, 559207, Note_on_c, 0, 63, 0
3, 559260, Note_on_c, 0, 62, 74
3, 559260, Note_on_c, 0, 50, 48
3, 559423, Note_on_c, 0, 50, 0
3, 559423, Note_on_c, 0, 62, 0
3, 559440, Note_on_c, 0, 63, 87
3, 559440, Note_on_c, 0, 51, 59
3, 559617, Note_on_c, 0, 51, 0
3, 559617, Note_on_c, 0, 63, 0
3, 560160, Note_on_c, 0, 63, 95
3, 560160, Note_on_c, 0, 51, 68
3, 560845, Note_on_c, 0, 51, 0
3, 560845, Note_on_c, 0, 63, 0
3, 560880, Note_on_c, 0, 63, 82
3, 560880, Note_on_c, 0, 51, 55
3, 561367, Note_on_c, 0, 51, 0
3, 561367, Note_on_c, 0, 63, 0
3, 561420, Note_on_c, 0, 62, 77
3, 561420, Note_on_c, 0, 50, 51
3, 561583, Note_on_c, 0, 50, 0
3, 561583, Note_on_c, 0, 62, 0
3, 561600, Note_on_c, 0, 63, 87
3, 561600, Note_on_c, 0, 51, 57
3, 561777, Note_on_c, 0, 51, 0
3, 561777, Note_on_c, 0, 63, 0
3, 561960, Note_on_c, 0, 75, 103
3, 561960, Note_on_c, 0, 63, 70
3, 562123, Note_on_c, 0, 63, 0
3, 562123, Note_on_c, 0, 75, 0
3, 562140, Note_on_c, 0, 74, 82
3, 562140, Note_on_c, 0, 62, 53
3, 562303, Note_on_c, 0, 62, 0
3, 562303, Note_on_c, 0, 74, 0
3, 562320, Note_on_c, 0, 75, 87
3, 562320, Note_on_c, 0, 63, 58
3, 562483, Note_on_c, 0, 63, 0
3, 562483, Note_on_c, 0, 75, 0
3, 562500, Note_on_c, 0, 74, 79
3, 562500, Note_on_c, 0, 62, 51
3, 562663, Note_on_c, 0, 62, 0
3, 562663, Note_on_c, 0, 74, 0
3, 562680, Note_on_c, 0, 75, 86
3, 562680, Note_on_c, 0, 63, 59
3, 562843, Note_on_c, 0, 63, 0
3, 562843, Note_on_c, 0, 75, 0
3, 562860, Note_on_c, 0, 74, 79
3, 562860, Note_on_c, 0, 62, 53
3, 563023, Note_on_c, 0, 62, 0
3, 563023, Note_on_c, 0, 74, 0
3, 563040, Note_on_c, 0, 75, 88
3, 563040, Note_on_c, 0, 63, 57
3, 563203, Note_on_c, 0, 63, 0
3, 563203, Note_on_c, 0, 75, 0
3, 563220, Note_on_c, 0, 74, 78
3, 563220, Note_on_c, 0, 62, 50
3, 563383, Note_on_c, 0, 62, 0
3, 563383, Note_on_c, 0, 74, 0
3, 563400, Note_on_c, 0, 75, 87
3, 563400, Note_on_c, 0, 63, 59
3, 563563, Note_on_c, 0, 63, 0
3, 563563, Note_on_c, 0, 75, 0
3, 563580, Note_on_c, 0, 74, 80
3, 563580, Note_on_c, 0, 62, 49
3, 563743, Note_on_c, 0, 62, 0
3, 563743, Note_on_c, 0, 74, 0
3, 563760, Note_on_c, 0, 75, 87
3, 563760, Note_on_c, 0, 63, 56
3, 563923, Note_on_c, 0, 63, 0
3, 563923, Note_on_c, 0, 75, 0
3, 563940, Note_on_c, 0, 74, 80
3, 563940, Note_on_c, 0, 62, 52
3, 564103, Note_on_c, 0, 62, 0
3, 564103, Note_on_c, 0, 74, 0
3, 564120, Note_on_c, 0, 75, 88
3, 564120, Note_on_c, 0, 63, 56
3, 564283, Note_on_c, 0, 63, 0
3, 564283, Note_on_c, 0, 75, 0
3, 564300, Note_on_c, 0, 74, 79
3, 564300, Note_on_c, 0, 62, 50
3, 564463, Note_on_c, 0, 62, 0
3, 564463, Note_on_c, 0, 74, 0
3, 564480, Note_on_c, 0, 75, 85
3, 564480, Note_on_c, 0, 63, 56
3, 564643, Note_on_c, 0, 63, 0
3, 564643, Note_on_c, 0, 75, 0
3, 564660, Note_on_c, 0, 74, 78
3, 564660, Note_on_c, 0, 62, 51
3, 564823, Note_on_c, 0, 62, 0
3, 564823, Note_on_c, 0, 74, 0
3, 564840, Note_on_c, 0, 75, 87
3, 564840, Note_on_c, 0, 63, 57
3, 565003, Note_on_c, 0, 63, 0
3, 565003, Note_on_c, 0, 75, 0
3, 565020, Note_on_c, 0, 74, 78
3, 565020, Note_on_c, 0, 62, 51
3, 565183, Note_on_c, 0, 62, 0
3, 565183, Note_on_c, 0, 74, 0
3, 565200, Note_on_c, 0, 75, 89
3, 565200, Note_on_c, 0, 63, 57
3, 565363, Note_on_c, 0, 63, 0
3, 565363, Note_on_c, 0, 75, 0
3, 565380, Note_on_c, 0, 74, 77
3, 565380, Note_on_c, 0, 62, 52
3, 565543, Note_on_c, 0, 62, 0
3, 565543, Note_on_c, 0, 74, 0
3, 565560, Note_on_c, 0, 75, 87
3, 565560, Note_on_c, 0, 63, 58
3, 565885, Note_on_c, 0, 63, 0
3, 565885, Note_on_c, 0, 75, 0
3, 565920, Note_on_c, 0, 61, 108
3, 565920, Note_on_c, 0, 63, 111
3, 565920, Note_on_c, 0, 67, 110
3, 565920, Note_on_c, 0, 75, 111
3, 565920, Note_on_c, 0, 39, 61
3, 565920, Note_on_c, 0, 51, 61
3, 566930, Note_on_c, 0, 51, 0
3, 566930, Note_on_c, 0, 75, 0
3, 566930, Note_on_c, 0, 61, 0
3, 566930, Note_on_c, 0, 63, 0
3, 566930, Note_on_c, 0, 67, 0
3, 566930, Note_on_c, 0, 39, 0
3, 567360, Note_on_c, 0, 75, 74
3, 567847, Note_on_c, 0, 75, 0
3, 567900, Note_on_c, 0, 74, 75
3, 568063, Note_on_c, 0, 74, 0
3, 568080, Note_on_c, 0, 65, 120
3, 568080, Note_on_c, 0, 67, 122
3, 568080, Note_on_c, 0, 71, 121
3, 568080, Note_on_c, 0, 75, 122
3, 568080, Note_on_c, 0, 79, 120
3, 568080, Note_on_c, 0, 43, 50
3, 568080, Note_on_c, 0, 51, 51
3, 568080, Note_on_c, 0, 59, 51
3, 569090, Note_on_c, 0, 59, 0
3, 569090, Note_on_c, 0, 71, 0
3, 569090, Note_on_c, 0, 51, 0
3, 569090, Note_on_c, 0, 75, 0
3, 569090, Note_on_c, 0, 65, 0
3, 569090, Note_on_c, 0, 67, 0
3, 569090, Note_on_c, 0, 43, 0
3, 569090, Note_on_c, 0, 79, 0
3, 569520, Note_on_c, 0, 75, 71
3, 569520, Note_on_c, 0, 87, 74
3, 570007, Note_on_c, 0, 87, 0
3, 570007, Note_on_c, 0, 75, 0
3, 570060, Note_on_c, 0, 74, 76
3, 570060, Note_on_c, 0, 86, 78
3, 570223, Note_on_c, 0, 86, 0
3, 570223, Note_on_c, 0, 74, 0
3, 570240, Note_on_c, 0, 75, 84
3, 570240, Note_on_c, 0, 78, 85
3, 570240, Note_on_c, 0, 81, 84
3, 570240, Note_on_c, 0, 83, 87
3, 570240, Note_on_c, 0, 87, 88
3, 570240, Note_on_c, 0, 35, 52
3, 570240, Note_on_c, 0, 39, 51
3, 570240, Note_on_c, 0, 42, 50
3, 570240, Note_on_c, 0, 47, 50
3, 570565, Note_on_c, 0, 42, 0
3, 570565, Note_on_c, 0, 39, 0
3, 570565, Note_on_c, 0, 81, 0
3, 570565, Note_on_c, 0, 35, 0
3, 570565, Note_on_c, 0, 83, 0
3, 570565, Note_on_c, 0, 75, 0
3, 570565, Note_on_c, 0, 78, 0
3, 570565, Note_on_c, 0, 47, 0
3, 570565, Note_on_c, 0, 87, 0
3, 570600, Note_on_c, 0, 35, 54
3, 570600, Note_on_c, 0, 47, 53
3, 570925, Note_on_c, 0, 35, 0
3, 570925, Note_on_c, 0, 47, 0
3, 570960, Note_on_c, 0, 52, 71
3, 570960, Note_on_c, 0, 57, 74
3, 570960, Note_on_c, 0, 60, 73
3, 571285, Note_on_c, 0, 60, 0
3, 571285, Note_on_c, 0, 57, 0
3, 571285, Note_on_c, 0, 52, 0
3, 571320, Note_on_c, 0, 35, 52
3, 571320, Note_on_c, 0, 47, 51
3, 571645, Note_on_c, 0, 35, 0
3, 571645, Note_on_c, 0, 47, 0
3, 571680, Note_on_c, 0, 54, 75
3, 571680, Note_on_c, 0, 57, 74
3, 571680, Note_on_c, 0, 63, 72
3, 572005, Note_on_c, 0, 63, 0
3, 572005, Note_on_c, 0, 57, 0
3, 572005, Note_on_c, 0, 54, 0
3, 572040, Note_on_c, 0, 35, 49
3, 572040, Note_on_c, 0, 47, 47
3, 572365, Note_on_c, 0, 35, 0
3, 572365, Note_on_c, 0, 47, 0
3, 572400, Note_on_c, 0, 55, 78
3, 572400, Note_on_c, 0, 60, 76
3, 572400, Note_on_c, 0, 64, 78
3, 572725, Note_on_c, 0, 64, 0
3, 572725, Note_on_c, 0, 60, 0
3, 572725, Note_on_c, 0, 55, 0
3, 572760, Note_on_c, 0, 35, 48
3, 572760, Note_on_c, 0, 47, 49
3, 573085, Note_on_c, 0, 35, 0
3, 573085, Note_on_c, 0, 47, 0
3, 573120, Note_on_c, 0, 57, 72
3, 573120, Note_on_c, 0, 63, 75
3, 573120, Note_on_c, 0, 66, 73
3, 573445, Note_on_c, 0, 66, 0
3, 573445, Note_on_c, 0, 63, 0
3, 573445, Note_on_c, 0, 57, 0
3, 573480, Note_on_c, 0, 35, 49
3, 573480, Note_on_c, 0, 47, 51
3, 573805, Note_on_c, 0, 35, 0
3, 573805, Note_on_c, 0, 47, 0
3, 573840, Note_on_c, 0, 57, 74
3, 573840, Note_on_c, 0, 63, 74
3, 573840, Note_on_c, 0, 67, 71
3, 574165, Note_on_c, 0, 67, 0
3, 574165, Note_on_c, 0, 63, 0
3, 574165, Note_on_c, 0, 57, 0
3, 574200, Note_on_c, 0, 35, 47
3, 574200, Note_on_c, 0, 47, 49
3, 574525, Note_on_c, 0, 35, 0
3, 574525, Note_on_c, 0, 47, 0
3, 574560, Note_on_c, 0, 68, 74
3, 574560, Note_on_c, 0, 40, 47
3, 574723, Note_on_c, 0, 68, 0
3, 574740, Note_on_c, 0, 62, 69
3, 574885, Note_on_c, 0, 40, 0
3, 574903, Note_on_c, 0, 62, 0
3, 574920, Note_on_c, 0, 59, 77
3, 575083, Note_on_c, 0, 59, 0
3, 575100, Note_on_c, 0, 62, 86
3, 575263, Note_on_c, 0, 62, 0
3, 575280, Note_on_c, 0, 68, 94
3, 575443, Note_on_c, 0, 68, 0
3, 575460, Note_on_c, 0, 62, 71
3, 575623, Note_on_c, 0, 62, 0
3, 575640, Note_on_c, 0, 59, 75
3, 575640, Note_on_c, 0, 40, 49
3, 575803, Note_on_c, 0, 59, 0
3, 575820, Note_on_c, 0, 62, 87
3, 575965, Note_on_c, 0, 40, 0
3, 575983, Note_on_c, 0, 62, 0
3, 576000, Note_on_c, 0, 68, 94
3, 576163, Note_on_c, 0, 68, 0
3, 576180, Note_on_c, 0, 62, 69
3, 576343, Note_on_c, 0, 62, 0
3, 576360, Note_on_c, 0, 59, 75
3, 576523, Note_on_c, 0, 59, 0
3, 576540, Note_on_c, 0, 62, 86
3, 576703, Note_on_c, 0, 62, 0
3, 576720, Note_on_c, 0, 68, 96
3, 576720, Note_on_c, 0, 40, 49
3, 576883, Note_on_c, 0, 68, 0
3, 576900, Note_on_c, 0, 62, 70
3, 577045, Note_on_c, 0, 40, 0
3, 577063, Note_on_c, 0, 62, 0
3, 577080, Note_on_c, 0, 59, 75
3, 577243, Note_on_c, 0, 59, 0
3, 577260, Note_on_c, 0, 62, 87
3, 577423, Note_on_c, 0, 62, 0
3, 577440, Note_on_c, 0, 68, 94
3, 577603, Note_on_c, 0, 68, 0
3, 577620, Note_on_c, 0, 62, 68
3, 577783, Note_on_c, 0, 62, 0
3, 577800, Note_on_c, 0, 68, 95
3, 577963, Note_on_c, 0, 68, 0
3, 577980, Note_on_c, 0, 71, 90
3, 578143, Note_on_c, 0, 71, 0
3, 578160, Note_on_c, 0, 74, 89
3, 578337, Note_on_c, 0, 74, 0
3, 578700, Note_on_c, 0, 69, 72
3, 578863, Note_on_c, 0, 69, 0
3, 578880, Note_on_c, 0, 68, 79
3, 578880, Note_on_c, 0, 40, 52
3, 579043, Note_on_c, 0, 68, 0
3, 579060, Note_on_c, 0, 62, 68
3, 579205, Note_on_c, 0, 40, 0
3, 579223, Note_on_c, 0, 62, 0
3, 579240, Note_on_c, 0, 59, 75
3, 579403, Note_on_c, 0, 59, 0
3, 579420, Note_on_c, 0, 62, 87
3, 579583, Note_on_c, 0, 62, 0
3, 579600, Note_on_c, 0, 68, 95
3, 579763, Note_on_c, 0, 68, 0
3, 579780, Note_on_c, 0, 62, 68
3, 579943, Note_on_c, 0, 62, 0
3, 579960, Note_on_c, 0, 59, 73
3, 579960, Note_on_c, 0, 40, 50
3, 580123, Note_on_c, 0, 59, 0
3, 580140, Note_on_c, 0, 62, 88
3, 580285, Note_on_c, 0, 40, 0
3, 580303, Note_on_c, 0, 62, 0
3, 580320, Note_on_c, 0, 68, 98
3, 580483, Note_on_c, 0, 68, 0
3, 580500, Note_on_c, 0, 62, 69
3, 580663, Note_on_c, 0, 62, 0
3, 580680, Note_on_c, 0, 59, 75
3, 580843, Note_on_c, 0, 59, 0
3, 580860, Note_on_c, 0, 62, 86
3, 581023, Note_on_c, 0, 62, 0
3, 581040, Note_on_c, 0, 68, 97
3, 581040, Note_on_c, 0, 40, 50
3, 581203, Note_on_c, 0, 68, 0
3, 581220, Note_on_c, 0, 62, 68
3, 581365, Note_on_c, 0, 40, 0
3, 581383, Note_on_c, 0, 62, 0
3, 581400, Note_on_c, 0, 59, 75
3, 581563, Note_on_c, 0, 59, 0
3, 581580, Note_on_c, 0, 62, 86
3, 581743, Note_on_c, 0, 62, 0
3, 581760, Note_on_c, 0, 68, 98
3, 581923, Note_on_c, 0, 68, 0
3, 581940, Note_on_c, 0, 62, 69
3, 582103, Note_on_c, 0, 62, 0
3, 582120, Note_on_c, 0, 68, 94
3, 582283, Note_on_c, 0, 68, 0
3, 582300, Note_on_c, 0, 71, 87
3, 582463, Note_on_c, 0, 71, 0
3, 582480, Note_on_c, 0, 72, 88
3, 582657, Note_on_c, 0, 72, 0
3, 583020, Note_on_c, 0, 68, 71
3, 583183, Note_on_c, 0, 68, 0
3, 583200, Note_on_c, 0, 67, 80
3, 583200, Note_on_c, 0, 40, 51
3, 583363, Note_on_c, 0, 67, 0
3, 583380, Note_on_c, 0, 62, 70
3, 583525, Note_on_c, 0, 40, 0
3, 583543, Note_on_c, 0, 62, 0
3, 583560, Note_on_c, 0, 59, 75
3, 583723, Note_on_c, 0, 59, 0
3, 583740, Note_on_c, 0, 62, 87
3, 583903, Note_on_c, 0, 62, 0
3, 583920, Note_on_c, 0, 67, 94
3, 584083, Note_on_c, 0, 67, 0
3, 584100, Note_on_c, 0, 62, 72
3, 584263, Note_on_c, 0, 62, 0
3, 584280, Note_on_c, 0, 59, 78
3, 584280, Note_on_c, 0, 40, 53
3, 584443, Note_on_c, 0, 59, 0
3, 584460, Note_on_c, 0, 62, 87
3, 584605, Note_on_c, 0, 40, 0
3, 584623, Note_on_c, 0, 62, 0
3, 584640, Note_on_c, 0, 67, 94
3, 584803, Note_on_c, 0, 67, 0
3, 584820, Note_on_c, 0, 62, 72
3, 584983, Note_on_c, 0, 62, 0
3, 585000, Note_on_c, 0, 59, 75
3, 585163, Note_on_c, 0, 59, 0
3, 585180, Note_on_c, 0, 66, 93
3, 585343, Note_on_c, 0, 66, 0
3, 585360, Note_on_c, 0, 67, 87
3, 585360, Note_on_c, 0, 40, 51
3, 585523, Note_on_c, 0, 67, 0
3, 585540, Note_on_c, 0, 62, 73
3, 585685, Note_on_c, 0, 40, 0
3, 585703, Note_on_c, 0, 62, 0
3, 585720, Note_on_c, 0, 59, 76
3, 585883, Note_on_c, 0, 59, 0
3, 585900, Note_on_c, 0, 62, 86
3, 586063, Note_on_c, 0, 62, 0
3, 586080, Note_on_c, 0, 67, 92
3, 586243, Note_on_c, 0, 67, 0
3, 586260, Note_on_c, 0, 59, 65
3, 586423, Note_on_c, 0, 59, 0
3, 586440, Note_on_c, 0, 62, 88
3, 586603, Note_on_c, 0, 62, 0
3, 586620, Note_on_c, 0, 67, 91
3, 586783, Note_on_c, 0, 67, 0
3, 586800, Note_on_c, 0, 71, 93
3, 586977, Note_on_c, 0, 71, 0
3, 587340, Note_on_c, 0, 67, 75
3, 587503, Note_on_c, 0, 67, 0
3, 587520, Note_on_c, 0, 67, 82
3, 587520, Note_on_c, 0, 33, 49
3, 587520, Note_on_c, 0, 45, 52
3, 587683, Note_on_c, 0, 67, 0
3, 587700, Note_on_c, 0, 64, 72
3, 587845, Note_on_c, 0, 45, 0
3, 587845, Note_on_c, 0, 33, 0
3, 587863, Note_on_c, 0, 64, 0
3, 587880, Note_on_c, 0, 60, 74
3, 588043, Note_on_c, 0, 60, 0
3, 588060, Note_on_c, 0, 64, 88
3, 588223, Note_on_c, 0, 64, 0
3, 588240, Note_on_c, 0, 67, 89
3, 588403, Note_on_c, 0, 67, 0
3, 588420, Note_on_c, 0, 64, 77
3, 588583, Note_on_c, 0, 64, 0
3, 588600, Note_on_c, 0, 60, 76
3, 588600, Note_on_c, 0, 33, 50
3, 588600, Note_on_c, 0, 45, 51
3, 588763, Note_on_c, 0, 60, 0
3, 588780, Note_on_c, 0, 64, 88
3, 588925, Note_on_c, 0, 45, 0
3, 588925, Note_on_c, 0, 33, 0
3, 588943, Note_on_c, 0, 64, 0
3, 588960, Note_on_c, 0, 67, 93
3, 589123, Note_on_c, 0, 67, 0
3, 589140, Note_on_c, 0, 64, 75
3, 589303, Note_on_c, 0, 64, 0
3, 589320, Note_on_c, 0, 60, 75
3, 589483, Note_on_c, 0, 60, 0
3, 589500, Note_on_c, 0, 64, 87
3, 589663, Note_on_c, 0, 64, 0
3, 589680, Note_on_c, 0, 66, 90
3, 589680, Note_on_c, 0, 38, 49
3, 589680, Note_on_c, 0, 50, 50
3, 589843, Note_on_c, 0, 66, 0
3, 589860, Note_on_c, 0, 62, 71
3, 590005, Note_on_c, 0, 50, 0
3, 590005, Note_on_c, 0, 38, 0
3, 590023, Note_on_c, 0, 62, 0
3, 590040, Note_on_c, 0, 60, 79
3, 590203, Note_on_c, 0, 60, 0
3, 590220, Note_on_c, 0, 62, 86
3, 590383, Note_on_c, 0, 62, 0
3, 590400, Note_on_c, 0, 66, 90
3, 590563, Note_on_c, 0, 66, 0
3, 590580, Note_on_c, 0, 62, 71
3, 590743, Note_on_c, 0, 62, 0
3, 590760, Note_on_c, 0, 60, 77
3, 590760, Note_on_c, 0, 38, 51
3, 590760, Note_on_c, 0, 50, 50
3, 590923, Note_on_c, 0, 60, 0
3, 590940, Note_on_c, 0, 62, 86
3, 591085, Note_on_c, 0, 50, 0
3, 591085, Note_on_c, 0, 38, 0
3, 591103, Note_on_c, 0, 62, 0
3, 591120, Note_on_c, 0, 66, 91
3, 591283, Note_on_c, 0, 66, 0
3, 591300, Note_on_c, 0, 62, 74
3, 591463, Note_on_c, 0, 62, 0
3, 591480, Note_on_c, 0, 60, 77
3, 591643, Note_on_c, 0, 60, 0
3, 591660, Note_on_c, 0, 62, 83
3, 591823, Note_on_c, 0, 62, 0
3, 591840, Note_on_c, 0, 67, 95
3, 591840, Note_on_c, 0, 31, 51
3, 591840, Note_on_c, 0, 43, 50
3, 592003, Note_on_c, 0, 67, 0
3, 592017, Note_on_c, 0, 43, 0
3, 592017, Note_on_c, 0, 31, 0
3, 592020, Note_on_c, 0, 60, 69
3, 592183, Note_on_c, 0, 60, 0
3, 592200, Note_on_c, 0, 59, 79
3, 592363, Note_on_c, 0, 59, 0
3, 592380, Note_on_c, 0, 66, 96
3, 592543, Note_on_c, 0, 66, 0
3, 592560, Note_on_c, 0, 67, 89
3, 592723, Note_on_c, 0, 67, 0
3, 592740, Note_on_c, 0, 63, 74
3, 592903, Note_on_c, 0, 63, 0
3, 592920, Note_on_c, 0, 64, 86
3, 592920, Note_on_c, 0, 37, 51
3, 592920, Note_on_c, 0, 49, 52
3, 593083, Note_on_c, 0, 64, 0
3, 593097, Note_on_c, 0, 49, 0
3, 593097, Note_on_c, 0, 37, 0
3, 593100, Note_on_c, 0, 66, 87
3, 593263, Note_on_c, 0, 66, 0
3, 593280, Note_on_c, 0, 67, 88
3, 593443, Note_on_c, 0, 67, 0
3, 593460, Note_on_c, 0, 66, 77
3, 593623, Note_on_c, 0, 66, 0
3, 593640, Note_on_c, 0, 64, 79
3, 593803, Note_on_c, 0, 64, 0
3, 593820, Note_on_c, 0, 66, 87
3, 593983, Note_on_c, 0, 66, 0
3, 594000, Note_on_c, 0, 67, 87
3, 594000, Note_on_c, 0, 38, 50
3, 594000, Note_on_c, 0, 50, 51
3, 594163, Note_on_c, 0, 67, 0
3, 594177, Note_on_c, 0, 50, 0
3, 594177, Note_on_c, 0, 38, 0
3, 594180, Note_on_c, 0, 59, 65
3, 594343, Note_on_c, 0, 59, 0
3, 594360, Note_on_c, 0, 64, 92
3, 594523, Note_on_c, 0, 64, 0
3, 594540, Note_on_c, 0, 66, 86
3, 594703, Note_on_c, 0, 66, 0
3, 594720, Note_on_c, 0, 67, 87
3, 594883, Note_on_c, 0, 67, 0
3, 594900, Note_on_c, 0, 60, 65
3, 595063, Note_on_c, 0, 60, 0
3, 595080, Note_on_c, 0, 59, 79
3, 595080, Note_on_c, 0, 39, 53
3, 595080, Note_on_c, 0, 51, 52
3, 595243, Note_on_c, 0, 59, 0
3, 595257, Note_on_c, 0, 51, 0
3, 595257, Note_on_c, 0, 39, 0
3, 595260, Note_on_c, 0, 67, 94
3, 595423, Note_on_c, 0, 67, 0
3, 595440, Note_on_c, 0, 71, 92
3, 595603, Note_on_c, 0, 71, 0
3, 595620, Note_on_c, 0, 67, 76
3, 595783, Note_on_c, 0, 67, 0
3, 595800, Note_on_c, 0, 59, 67
3, 595963, Note_on_c, 0, 59, 0
3, 595980, Note_on_c, 0, 69, 97
3, 596143, Note_on_c, 0, 69, 0
3, 596160, Note_on_c, 0, 67, 83
3, 596160, Note_on_c, 0, 40, 51
3, 596160, Note_on_c, 0, 52, 52
3, 596323, Note_on_c, 0, 67, 0
3, 596337, Note_on_c, 0, 52, 0
3, 596337, Note_on_c, 0, 40, 0
3, 596340, Note_on_c, 0, 64, 72
3, 596503, Note_on_c, 0, 64, 0
3, 596520, Note_on_c, 0, 66, 88
3, 596683, Note_on_c, 0, 66, 0
3, 596700, Note_on_c, 0, 64, 76
3, 596863, Note_on_c, 0, 64, 0
3, 596880, Note_on_c, 0, 67, 89
3, 597043, Note_on_c, 0, 67, 0
3, 597060, Note_on_c, 0, 62, 69
3, 597223, Note_on_c, 0, 62, 0
3, 597240, Note_on_c, 0, 64, 85
3, 597240, Note_on_c, 0, 35, 51
3, 597240, Note_on_c, 0, 47, 51
3, 597403, Note_on_c, 0, 64, 0
3, 597417, Note_on_c, 0, 47, 0
3, 597417, Note_on_c, 0, 35, 0
3, 597420, Note_on_c, 0, 62, 74
3, 597583, Note_on_c, 0, 62, 0
3, 597600, Note_on_c, 0, 67, 91
3, 597763, Note_on_c, 0, 67, 0
3, 597780, Note_on_c, 0, 60, 68
3, 597943, Note_on_c, 0, 60, 0
3, 597960, Note_on_c, 0, 59, 76
3, 598123, Note_on_c, 0, 59, 0
3, 598140, Note_on_c, 0, 66, 93
3, 598303, Note_on_c, 0, 66, 0
3, 598320, Note_on_c, 0, 67, 88
3, 598320, Note_on_c, 0, 36, 51
3, 598320, Note_on_c, 0, 48, 52
3, 598483, Note_on_c, 0, 67, 0
3, 598497, Note_on_c, 0, 48, 0
3, 598497, Note_on_c, 0, 36, 0
3, 598500, Note_on_c, 0, 64, 75
3, 598663, Note_on_c, 0, 64, 0
3, 598680, Note_on_c, 0, 66, 87
3, 598843, Note_on_c, 0, 66, 0
3, 598860, Note_on_c, 0, 64, 74
3, 599023, Note_on_c, 0, 64, 0
3, 599040, Note_on_c, 0, 67, 88
3, 599203, Note_on_c, 0, 67, 0
3, 599220, Note_on_c, 0, 66, 80
3, 599383, Note_on_c, 0, 66, 0
3, 599400, Note_on_c, 0, 67, 85
3, 599400, Note_on_c, 0, 37, 52
3, 599400, Note_on_c, 0, 49, 50
3, 599563, Note_on_c, 0, 67, 0
3, 599577, Note_on_c, 0, 49, 0
3, 599577, Note_on_c, 0, 37, 0
3, 599580, Note_on_c, 0, 71, 88
3, 599743, Note_on_c, 0, 71, 0
3, 599760, Note_on_c, 0, 79, 101
3, 599923, Note_on_c, 0, 79, 0
3, 599940, Note_on_c, 0, 71, 71
3, 600103, Note_on_c, 0, 71, 0
3, 600120, Note_on_c, 0, 67, 75
3, 600283, Note_on_c, 0, 67, 0
3, 600300, Note_on_c, 0, 78, 96
3, 600463, Note_on_c, 0, 78, 0
3, 600480, Note_on_c, 0, 71, 60
3, 600480, Note_on_c, 0, 79, 60
3, 600480, Note_on_c, 0, 38, 52
3, 600480, Note_on_c, 0, 50, 49
3, 600657, Note_on_c, 0, 50, 0
3, 600657, Note_on_c, 0, 79, 0
3, 600657, Note_on_c, 0, 38, 0
3, 600657, Note_on_c, 0, 71, 0
3, 600840, Note_on_c, 0, 72, 67
3, 600840, Note_on_c, 0, 59, 66
3, 600840, Note_on_c, 0, 64, 66
3, 600840, Note_on_c, 0, 67, 65
3, 601003, Note_on_c, 0, 72, 0
3, 601017, Note_on_c, 0, 64, 0
3, 601017, Note_on_c, 0, 67, 0
3, 601017, Note_on_c, 0, 59, 0
3, 601020, Note_on_c, 0, 71, 73
3, 601183, Note_on_c, 0, 71, 0
3, 601200, Note_on_c, 0, 78, 71
3, 601200, Note_on_c, 0, 78, 98
3, 601200, Note_on_c, 0, 59, 53
3, 601200, Note_on_c, 0, 62, 52
3, 601200, Note_on_c, 0, 66, 52
3, 601363, Note_on_c, 0, 78, 0
3, 601377, Note_on_c, 0, 62, 0
3, 601377, Note_on_c, 0, 59, 0
3, 601377, Note_on_c, 0, 66, 0
3, 601380, Note_on_c, 0, 74, 73
3, 601525, Note_on_c, 0, 78, 0
3, 601543, Note_on_c, 0, 74, 0
3, 601560, Note_on_c, 0, 72, 80
3, 601723, Note_on_c, 0, 72, 0
3, 601740, Note_on_c, 0, 71, 77
3, 601903, Note_on_c, 0, 71, 0
3, 601920, Note_on_c, 0, 76, 74
3, 601920, Note_on_c, 0, 76, 92
3, 601920, Note_on_c, 0, 55, 49
3, 601920, Note_on_c, 0, 60, 49
3, 601920, Note_on_c, 0, 64, 49
3, 602083, Note_on_c, 0, 76, 0
3, 602097, Note_on_c, 0, 60, 0
3, 602097, Note_on_c, 0, 55, 0
3, 602097, Note_on_c, 0, 64, 0
3, 602100, Note_on_c, 0, 72, 73
3, 602245, Note_on_c, 0, 76, 0
3, 602263, Note_on_c, 0, 72, 0
3, 602280, Note_on_c, 0, 71, 79
3, 602280, Note_on_c, 0, 55, 47
3, 602280, Note_on_c, 0, 59, 51
3, 602280, Note_on_c, 0, 62, 51
3, 602443, Note_on_c, 0, 71, 0
3, 602457, Note_on_c, 0, 59, 0
3, 602457, Note_on_c, 0, 62, 0
3, 602457, Note_on_c, 0, 55, 0
3, 602460, Note_on_c, 0, 67, 74
3, 602623, Note_on_c, 0, 67, 0
3, 602640, Note_on_c, 0, 74, 76
3, 602640, Note_on_c, 0, 74, 96
3, 602803, Note_on_c, 0, 74, 0
3, 602820, Note_on_c, 0, 71, 77
3, 602965, Note_on_c, 0, 74, 0
3, 602983, Note_on_c, 0, 71, 0
3, 603000, Note_on_c, 0, 67, 76
3, 603000, Note_on_c, 0, 55, 46
3, 603000, Note_on_c, 0, 59, 47
3, 603000, Note_on_c, 0, 62, 48
3, 603163, Note_on_c, 0, 67, 0
3, 603177, Note_on_c, 0, 59, 0
3, 603177, Note_on_c, 0, 62, 0
3, 603177, Note_on_c, 0, 55, 0
3, 603180, Note_on_c, 0, 64, 71
3, 603343, Note_on_c, 0, 64, 0
3, 603360, Note_on_c, 0, 72, 73
3, 603360, Note_on_c, 0, 72, 98
3, 603360, Note_on_c, 0, 55, 50
3, 603360, Note_on_c, 0, 60, 51
3, 603523, Note_on_c, 0, 72, 0
3, 603537, Note_on_c, 0, 55, 0
3, 603537, Note_on_c, 0, 60, 0
3, 603540, Note_on_c, 0, 69, 74
3, 603685, Note_on_c, 0, 72, 0
3, 603703, Note_on_c, 0, 69, 0
3, 603720, Note_on_c, 0, 67, 77
3, 603720, Note_on_c, 0, 40, 46
3, 603720, Note_on_c, 0, 52, 46
3, 603883, Note_on_c, 0, 67, 0
3, 603897, Note_on_c, 0, 52, 0
3, 603897, Note_on_c, 0, 40, 0
3, 603900, Note_on_c, 0, 64, 74
3, 604063, Note_on_c, 0, 64, 0
3, 604080, Note_on_c, 0, 71, 72
3, 604080, Note_on_c, 0, 71, 97
3, 604080, Note_on_c, 0, 55, 60
3, 604080, Note_on_c, 0, 59, 62
3, 604243, Note_on_c, 0, 71, 0
3, 604257, Note_on_c, 0, 55, 0
3, 604257, Note_on_c, 0, 59, 0
3, 604260, Note_on_c, 0, 67, 73
3, 604405, Note_on_c, 0, 71, 0
3, 604423, Note_on_c, 0, 67, 0
3, 604440, Note_on_c, 0, 66, 81
3, 604440, Note_on_c, 0, 52, 48
3, 604440, Note_on_c, 0, 55, 49
3, 604603, Note_on_c, 0, 66, 0
3, 604617, Note_on_c, 0, 55, 0
3, 604617, Note_on_c, 0, 52, 0
3, 604620, Note_on_c, 0, 64, 77
3, 604783, Note_on_c, 0, 64, 0
3, 604800, Note_on_c, 0, 71, 74
3, 604800, Note_on_c, 0, 71, 97
3, 604800, Note_on_c, 0, 33, 43
3, 604800, Note_on_c, 0, 45, 43
3, 604963, Note_on_c, 0, 71, 0
3, 604977, Note_on_c, 0, 33, 0
3, 604977, Note_on_c, 0, 45, 0
3, 604980, Note_on_c, 0, 67, 74
3, 605125, Note_on_c, 0, 71, 0
3, 605143, Note_on_c, 0, 67, 0
3, 605160, Note_on_c, 0, 66, 78
3, 605160, Note_on_c, 0, 52, 65
3, 605160, Note_on_c, 0, 59, 62
3, 605160, Note_on_c, 0, 62, 64
3, 605323, Note_on_c, 0, 66, 0
3, 605337, Note_on_c, 0, 59, 0
3, 605337, Note_on_c, 0, 62, 0
3, 605337, Note_on_c, 0, 52, 0
3, 605340, Note_on_c, 0, 64, 77
3, 605503, Note_on_c, 0, 64, 0
3, 605520, Note_on_c, 0, 69, 74
3, 605520, Note_on_c, 0, 69, 93
3, 605520, Note_on_c, 0, 52, 49
3, 605520, Note_on_c, 0, 57, 51
3, 605520, Note_on_c, 0, 60, 53
3, 605683, Note_on_c, 0, 69, 0
3, 605697, Note_on_c, 0, 57, 0
3, 605697, Note_on_c, 0, 52, 0
3, 605697, Note_on_c, 0, 60, 0
3, 605700, Note_on_c, 0, 66, 78
3, 605845, Note_on_c, 0, 69, 0
3, 605863, Note_on_c, 0, 66, 0
3, 605880, Note_on_c, 0, 64, 77
3, 606043, Note_on_c, 0, 64, 0
3, 606060, Note_on_c, 0, 60, 71
3, 606223, Note_on_c, 0, 60, 0
3, 606240, Note_on_c, 0, 67, 71
3, 606240, Note_on_c, 0, 67, 95
3, 606240, Note_on_c, 0, 52, 49
3, 606240, Note_on_c, 0, 55, 47
3, 606240, Note_on_c, 0, 59, 47
3, 606403, Note_on_c, 0, 67, 0
3, 606417, Note_on_c, 0, 55, 0
3, 606417, Note_on_c, 0, 52, 0
3, 606417, Note_on_c, 0, 59, 0
3, 606420, Note_on_c, 0, 64, 74
3, 606565, Note_on_c, 0, 67, 0
3, 606583, Note_on_c, 0, 64, 0
3, 606600, Note_on_c, 0, 62, 78
3, 606600, Note_on_c, 0, 52, 48
3, 606600, Note_on_c, 0, 55, 46
3, 606763, Note_on_c, 0, 62, 0
3, 606777, Note_on_c, 0, 55, 0
3, 606777, Note_on_c, 0, 52, 0
3, 606780, Note_on_c, 0, 60, 75
3, 606943, Note_on_c, 0, 60, 0
3, 606960, Note_on_c, 0, 67, 75
3, 606960, Note_on_c, 0, 67, 97
3, 606960, Note_on_c, 0, 38, 49
3, 606960, Note_on_c, 0, 50, 48
3, 607123, Note_on_c, 0, 67, 0
3, 607137, Note_on_c, 0, 38, 0
3, 607137, Note_on_c, 0, 50, 0
3, 607140, Note_on_c, 0, 64, 77
3, 607285, Note_on_c, 0, 67, 0
3, 607303, Note_on_c, 0, 64, 0
3, 607320, Note_on_c, 0, 62, 79
3, 607320, Note_on_c, 0, 55, 63
3, 607320, Note_on_c, 0, 59, 63
3, 607483, Note_on_c, 0, 62, 0
3, 607497, Note_on_c, 0, 59, 0
3, 607497, Note_on_c, 0, 55, 0
3, 607500, Note_on_c, 0, 60, 75
3, 607663, Note_on_c, 0, 60, 0
3, 607680, Note_on_c, 0, 64, 75
3, 607680, Note_on_c, 0, 64, 90
3, 607680, Note_on_c, 0, 55, 53
3, 607680, Note_on_c, 0, 57, 53
3, 607843, Note_on_c, 0, 64, 0
3, 607857, Note_on_c, 0, 55, 0
3, 607857, Note_on_c, 0, 57, 0
3, 607860, Note_on_c, 0, 60, 72
3, 608005, Note_on_c, 0, 64, 0
3, 608023, Note_on_c, 0, 60, 0
3, 608040, Note_on_c, 0, 59, 80
3, 608040, Note_on_c, 0, 50, 45
3, 608203, Note_on_c, 0, 59, 0
3, 608217, Note_on_c, 0, 50, 0
3, 608220, Note_on_c, 0, 57, 74
3, 608383, Note_on_c, 0, 57, 0
3, 608400, Note_on_c, 0, 66, 74
3, 608400, Note_on_c, 0, 66, 99
3, 608400, Note_on_c, 0, 60, 61
3, 608563, Note_on_c, 0, 66, 0
3, 608577, Note_on_c, 0, 60, 0
3, 608580, Note_on_c, 0, 62, 75
3, 608725, Note_on_c, 0, 66, 0
3, 608743, Note_on_c, 0, 62, 0
3, 608760, Note_on_c, 0, 61, 78
3, 608760, Note_on_c, 0, 50, 51
3, 608760, Note_on_c, 0, 57, 50
3, 608923, Note_on_c, 0, 61, 0
3, 608937, Note_on_c, 0, 57, 0
3, 608937, Note_on_c, 0, 50, 0
3, 608940, Note_on_c, 0, 60, 76
3, 609103, Note_on_c, 0, 60, 0
3, 609120, Note_on_c, 0, 67, 75
3, 609120, Note_on_c, 0, 31, 44
3, 609120, Note_on_c, 0, 43, 42
3, 609283, Note_on_c, 0, 67, 0
3, 609297, Note_on_c, 0, 43, 0
3, 609297, Note_on_c, 0, 31, 0
3, 609300, Note_on_c, 0, 64, 72
3, 609463, Note_on_c, 0, 64, 0
3, 609480, Note_on_c, 0, 66, 89
3, 609643, Note_on_c, 0, 66, 0
3, 609660, Note_on_c, 0, 64, 76
3, 609823, Note_on_c, 0, 64, 0
3, 609840, Note_on_c, 0, 67, 88
3, 610003, Note_on_c, 0, 67, 0
3, 610020, Note_on_c, 0, 62, 70
3, 610183, Note_on_c, 0, 62, 0
3, 610200, Note_on_c, 0, 64, 86
3, 610200, Note_on_c, 0, 35, 51
3, 610200, Note_on_c, 0, 47, 49
3, 610363, Note_on_c, 0, 64, 0
3, 610377, Note_on_c, 0, 47, 0
3, 610377, Note_on_c, 0, 35, 0
3, 610380, Note_on_c, 0, 62, 77
3, 610543, Note_on_c, 0, 62, 0
3, 610560, Note_on_c, 0, 67, 93
3, 610723, Note_on_c, 0, 67, 0
3, 610740, Note_on_c, 0, 62, 74
3, 610903, Note_on_c, 0, 62, 0
3, 610920, Note_on_c, 0, 64, 86
3, 611083, Note_on_c, 0, 64, 0
3, 611100, Note_on_c, 0, 65, 87
3, 611263, Note_on_c, 0, 65, 0
3, 611280, Note_on_c, 0, 67, 88
3, 611280, Note_on_c, 0, 36, 51
3, 611280, Note_on_c, 0, 48, 51
3, 611443, Note_on_c, 0, 67, 0
3, 611457, Note_on_c, 0, 48, 0
3, 611457, Note_on_c, 0, 36, 0
3, 611460, Note_on_c, 0, 64, 73
3, 611623, Note_on_c, 0, 64, 0
3, 611640, Note_on_c, 0, 60, 76
3, 611803, Note_on_c, 0, 60, 0
3, 611820, Note_on_c, 0, 64, 90
3, 611983, Note_on_c, 0, 64, 0
3, 612000, Note_on_c, 0, 67, 91
3, 612163, Note_on_c, 0, 67, 0
3, 612180, Note_on_c, 0, 63, 72
3, 612343, Note_on_c, 0, 63, 0
3, 612360, Note_on_c, 0, 64, 86
3, 612360, Note_on_c, 0, 37, 52
3, 612360, Note_on_c, 0, 49, 49
3, 612523, Note_on_c, 0, 64, 0
3, 612537, Note_on_c, 0, 49, 0
3, 612537, Note_on_c, 0, 37, 0
3, 612540, Note_on_c, 0, 67, 86
3, 612703, Note_on_c, 0, 67, 0
3, 612720, Note_on_c, 0, 71, 95
3, 612883, Note_on_c, 0, 71, 0
3, 612900, Note_on_c, 0, 67, 74
3, 613063, Note_on_c, 0, 67, 0
3, 613080, Note_on_c, 0, 59, 66
3, 613243, Note_on_c, 0, 59, 0
3, 613260, Note_on_c, 0, 66, 92
3, 613423, Note_on_c, 0, 66, 0
3, 613440, Note_on_c, 0, 67, 88
3, 613440, Note_on_c, 0, 38, 51
3, 613440, Note_on_c, 0, 50, 50
3, 613603, Note_on_c, 0, 67, 0
3, 613617, Note_on_c, 0, 50, 0
3, 613617, Note_on_c, 0, 38, 0
3, 613620, Note_on_c, 0, 60, 68
3, 613783, Note_on_c, 0, 60, 0
3, 613800, Note_on_c, 0, 59, 80
3, 613963, Note_on_c, 0, 59, 0
3, 613980, Note_on_c, 0, 66, 95
3, 614143, Note_on_c, 0, 66, 0
3, 614160, Note_on_c, 0, 67, 91
3, 614323, Note_on_c, 0, 67, 0
3, 614340, Note_on_c, 0, 63, 72
3, 614503, Note_on_c, 0, 63, 0
3, 614520, Note_on_c, 0, 64, 86
3, 614520, Note_on_c, 0, 37, 52
3, 614520, Note_on_c, 0, 49, 49
3, 614683, Note_on_c, 0, 64, 0
3, 614697, Note_on_c, 0, 49, 0
3, 614697, Note_on_c, 0, 37, 0
3, 614700, Note_on_c, 0, 66, 83
3, 614863, Note_on_c, 0, 66, 0
3, 614880, Note_on_c, 0, 67, 87
3, 615043, Note_on_c, 0, 67, 0
3, 615060, Note_on_c, 0, 66, 78
3, 615223, Note_on_c, 0, 66, 0
3, 615240, Note_on_c, 0, 64, 78
3, 615403, Note_on_c, 0, 64, 0
3, 615420, Note_on_c, 0, 66, 84
3, 615583, Note_on_c, 0, 66, 0
3, 615600, Note_on_c, 0, 67, 90
3, 615600, Note_on_c, 0, 38, 50
3, 615600, Note_on_c, 0, 50, 50
3, 615763, Note_on_c, 0, 67, 0
3, 615777, Note_on_c, 0, 50, 0
3, 615777, Note_on_c, 0, 38, 0
3, 615780, Note_on_c, 0, 59, 67
3, 615943, Note_on_c, 0, 59, 0
3, 615960, Note_on_c, 0, 64, 93
3, 616123, Note_on_c, 0, 64, 0
3, 616140, Note_on_c, 0, 66, 85
3, 616303, Note_on_c, 0, 66, 0
3, 616320, Note_on_c, 0, 67, 87
3, 616483, Note_on_c, 0, 67, 0
3, 616500, Note_on_c, 0, 66, 79
3, 616663, Note_on_c, 0, 66, 0
3, 616680, Note_on_c, 0, 67, 85
3, 616680, Note_on_c, 0, 39, 51
3, 616680, Note_on_c, 0, 51, 52
3, 616843, Note_on_c, 0, 67, 0
3, 616857, Note_on_c, 0, 51, 0
3, 616857, Note_on_c, 0, 39, 0
3, 616860, Note_on_c, 0, 71, 88
3, 617023, Note_on_c, 0, 71, 0
3, 617040, Note_on_c, 0, 79, 98
3, 617203, Note_on_c, 0, 79, 0
3, 617220, Note_on_c, 0, 71, 71
3, 617383, Note_on_c, 0, 71, 0
3, 617400, Note_on_c, 0, 67, 73
3, 617563, Note_on_c, 0, 67, 0
3, 617580, Note_on_c, 0, 78, 97
3, 617743, Note_on_c, 0, 78, 0
3, 617760, Note_on_c, 0, 71, 105
3, 617760, Note_on_c, 0, 79, 106
3, 617760, Note_on_c, 0, 40, 50
3, 617760, Note_on_c, 0, 52, 52
3, 617937, Note_on_c, 0, 52, 0
3, 617937, Note_on_c, 0, 79, 0
3, 617937, Note_on_c, 0, 40, 0
3, 617937, Note_on_c, 0, 71, 0
3, 618120, Note_on_c, 0, 73, 76
3, 618120, Note_on_c, 0, 59, 64
3, 618120, Note_on_c, 0, 61, 64
3, 618120, Note_on_c, 0, 67, 64
3, 618283, Note_on_c, 0, 73, 0
3, 618297, Note_on_c, 0, 61, 0
3, 618297, Note_on_c, 0, 67, 0
3, 618297, Note_on_c, 0, 59, 0
3, 618300, Note_on_c, 0, 67, 67
3, 618463, Note_on_c, 0, 67, 0
3, 618480, Note_on_c, 0, 78, 75
3, 618480, Note_on_c, 0, 78, 101
3, 618480, Note_on_c, 0, 59, 51
3, 618480, Note_on_c, 0, 61, 52
3, 618480, Note_on_c, 0, 66, 52
3, 618643, Note_on_c, 0, 78, 0
3, 618657, Note_on_c, 0, 61, 0
3, 618657, Note_on_c, 0, 59, 0
3, 618657, Note_on_c, 0, 66, 0
3, 618660, Note_on_c, 0, 74, 76
3, 618805, Note_on_c, 0, 78, 0
3, 618823, Note_on_c, 0, 74, 0
3, 618840, Note_on_c, 0, 73, 80
3, 619003, Note_on_c, 0, 73, 0
3, 619020, Note_on_c, 0, 67, 68
3, 619183, Note_on_c, 0, 67, 0
3, 619200, Note_on_c, 0, 76, 74
3, 619200, Note_on_c, 0, 76, 98
3, 619200, Note_on_c, 0, 55, 48
3, 619200, Note_on_c, 0, 59, 50
3, 619200, Note_on_c, 0, 64, 49
3, 619363, Note_on_c, 0, 76, 0
3, 619377, Note_on_c, 0, 59, 0
3, 619377, Note_on_c, 0, 55, 0
3, 619377, Note_on_c, 0, 64, 0
3, 619380, Note_on_c, 0, 73, 74
3, 619525, Note_on_c, 0, 76, 0
3, 619543, Note_on_c, 0, 73, 0
3, 619560, Note_on_c, 0, 71, 76
3, 619560, Note_on_c, 0, 55, 50
3, 619560, Note_on_c, 0, 59, 50
3, 619560, Note_on_c, 0, 62, 47
3, 619723, Note_on_c, 0, 71, 0
3, 619737, Note_on_c, 0, 59, 0
3, 619737, Note_on_c, 0, 62, 0
3, 619737, Note_on_c, 0, 55, 0
3, 619740, Note_on_c, 0, 67, 71
3, 619903, Note_on_c, 0, 67, 0
3, 619920, Note_on_c, 0, 74, 75
3, 619920, Note_on_c, 0, 74, 98
3, 619920, Note_on_c, 0, 40, 44
3, 619920, Note_on_c, 0, 52, 43
3, 620083, Note_on_c, 0, 74, 0
3, 620097, Note_on_c, 0, 40, 0
3, 620097, Note_on_c, 0, 52, 0
3, 620100, Note_on_c, 0, 71, 78
3, 620245, Note_on_c, 0, 74, 0
3, 620263, Note_on_c, 0, 71, 0
3, 620280, Note_on_c, 0, 69, 79
3, 620280, Note_on_c, 0, 55, 65
3, 620280, Note_on_c, 0, 62, 65
3, 620280, Note_on_c, 0, 66, 66
3, 620443, Note_on_c, 0, 69, 0
3, 620457, Note_on_c, 0, 62, 0
3, 620457, Note_on_c, 0, 66, 0
3, 620457, Note_on_c, 0, 55, 0
3, 620460, Note_on_c, 0, 67, 75
3, 620623, Note_on_c, 0, 67, 0
3, 620640, Note_on_c, 0, 72, 74
3, 620640, Note_on_c, 0, 73, 94
3, 620640, Note_on_c, 0, 55, 50
3, 620640, Note_on_c, 0, 61, 53
3, 620640, Note_on_c, 0, 64, 53
3, 620803, Note_on_c, 0, 73, 0
3, 620817, Note_on_c, 0, 61, 0
3, 620817, Note_on_c, 0, 55, 0
3, 620817, Note_on_c, 0, 64, 0
3, 620820, Note_on_c, 0, 71, 77
3, 620965, Note_on_c, 0, 72, 0
3, 620983, Note_on_c, 0, 71, 0
3, 621000, Note_on_c, 0, 69, 80
3, 621163, Note_on_c, 0, 69, 0
3, 621180, Note_on_c, 0, 67, 76
3, 621343, Note_on_c, 0, 67, 0
3, 621360, Note_on_c, 0, 71, 74
3, 621360, Note_on_c, 0, 71, 90
3, 621360, Note_on_c, 0, 55, 46
3, 621360, Note_on_c, 0, 59, 49
3, 621360, Note_on_c, 0, 62, 48
3, 621523, Note_on_c, 0, 71, 0
3, 621537, Note_on_c, 0, 59, 0
3, 621537, Note_on_c, 0, 55, 0
3, 621537, Note_on_c, 0, 62, 0
3, 621540, Note_on_c, 0, 67, 75
3, 621685, Note_on_c, 0, 71, 0
3, 621703, Note_on_c, 0, 67, 0
3, 621720, Note_on_c, 0, 66, 81
3, 621720, Note_on_c, 0, 55, 50
3, 621720, Note_on_c, 0, 59, 48
3, 621883, Note_on_c, 0, 66, 0
3, 621897, Note_on_c, 0, 59, 0
3, 621897, Note_on_c, 0, 55, 0
3, 621900, Note_on_c, 0, 64, 73
3, 622063, Note_on_c, 0, 64, 0
3, 622080, Note_on_c, 0, 76, 76
3, 622080, Note_on_c, 0, 76, 105
3, 622080, Note_on_c, 0, 42, 49
3, 622080, Note_on_c, 0, 54, 48
3, 622243, Note_on_c, 0, 76, 0
3, 622257, Note_on_c, 0, 42, 0
3, 622257, Note_on_c, 0, 54, 0
3, 622260, Note_on_c, 0, 73, 80
3, 622405, Note_on_c, 0, 76, 0
3, 622423, Note_on_c, 0, 73, 0
3, 622440, Note_on_c, 0, 71, 80
3, 622440, Note_on_c, 0, 59, 62
3, 622440, Note_on_c, 0, 64, 65
3, 622603, Note_on_c, 0, 71, 0
3, 622617, Note_on_c, 0, 64, 0
3, 622617, Note_on_c, 0, 59, 0
3, 622620, Note_on_c, 0, 67, 70
3, 622783, Note_on_c, 0, 67, 0
3, 622800, Note_on_c, 0, 74, 74
3, 622800, Note_on_c, 0, 74, 98
3, 622800, Note_on_c, 0, 58, 55
3, 622800, Note_on_c, 0, 64, 54
3, 622963, Note_on_c, 0, 74, 0
3, 622977, Note_on_c, 0, 58, 0
3, 622977, Note_on_c, 0, 64, 0
3, 622980, Note_on_c, 0, 70, 76
3, 623125, Note_on_c, 0, 74, 0
3, 623143, Note_on_c, 0, 70, 0
3, 623160, Note_on_c, 0, 67, 78
3, 623323, Note_on_c, 0, 67, 0
3, 623340, Note_on_c, 0, 66, 77
3, 623503, Note_on_c, 0, 66, 0
3, 623520, Note_on_c, 0, 73, 74
3, 623520, Note_on_c, 0, 73, 97
3, 623520, Note_on_c, 0, 52, 46
3, 623520, Note_on_c, 0, 59, 48
3, 623520, Note_on_c, 0, 61, 48
3, 623683, Note_on_c, 0, 73, 0
3, 623697, Note_on_c, 0, 59, 0
3, 623697, Note_on_c, 0, 52, 0
3, 623697, Note_on_c, 0, 61, 0
3, 623700, Note_on_c, 0, 67, 72
3, 623845, Note_on_c, 0, 73, 0
3, 623863, Note_on_c, 0, 67, 0
3, 623880, Note_on_c, 0, 66, 79
3, 623880, Note_on_c, 0, 52, 51
3, 623880, Note_on_c, 0, 58, 52
3, 623880, Note_on_c, 0, 61, 54
3, 624043, Note_on_c, 0, 66, 0
3, 624057, Note_on_c, 0, 58, 0
3, 624057, Note_on_c, 0, 61, 0
3, 624057, Note_on_c, 0, 52, 0
3, 624060, Note_on_c, 0, 64, 74
3, 624223, Note_on_c, 0, 64, 0
3, 624240, Note_on_c, 0, 73, 76
3, 624240, Note_on_c, 0, 73, 100
3, 624240, Note_on_c, 0, 35, 43
3, 624240, Note_on_c, 0, 47, 41
3, 624403, Note_on_c, 0, 73, 0
3, 624417, Note_on_c, 0, 35, 0
3, 624417, Note_on_c, 0, 47, 0
3, 624420, Note_on_c, 0, 67, 73
3, 624565, Note_on_c, 0, 73, 0
3, 624583, Note_on_c, 0, 67, 0
3, 624600, Note_on_c, 0, 66, 80
3, 624600, Note_on_c, 0, 54, 63
3, 624600, Note_on_c, 0, 58, 63
3, 624763, Note_on_c, 0, 66, 0
3, 624777, Note_on_c, 0, 58, 0
3, 624777, Note_on_c, 0, 54, 0
3, 624780, Note_on_c, 0, 64, 74
3, 624943, Note_on_c, 0, 64, 0
3, 624960, Note_on_c, 0, 71, 73
3, 624960, Note_on_c, 0, 71, 96
3, 624960, Note_on_c, 0, 54, 56
3, 624960, Note_on_c, 0, 59, 57
3, 625123, Note_on_c, 0, 71, 0
3, 625137, Note_on_c, 0, 54, 0
3, 625137, Note_on_c, 0, 59, 0
3, 625140, Note_on_c, 0, 66, 73
3, 625285, Note_on_c, 0, 71, 0
3, 625303, Note_on_c, 0, 66, 0
3, 625320, Note_on_c, 0, 64, 76
3, 625320, Note_on_c, 0, 40, 47
3, 625320, Note_on_c, 0, 52, 49
3, 625483, Note_on_c, 0, 64, 0
3, 625497, Note_on_c, 0, 52, 0
3, 625497, Note_on_c, 0, 40, 0
3, 625500, Note_on_c, 0, 62, 74
3, 625663, Note_on_c, 0, 62, 0
3, 625680, Note_on_c, 0, 64, 72
3, 625680, Note_on_c, 0, 64, 88
3, 625680, Note_on_c, 0, 56, 60
3, 625680, Note_on_c, 0, 59, 60
3, 625843, Note_on_c, 0, 64, 0
3, 625857, Note_on_c, 0, 56, 0
3, 625857, Note_on_c, 0, 59, 0
3, 625860, Note_on_c, 0, 68, 91
3, 626005, Note_on_c, 0, 64, 0
3, 626023, Note_on_c, 0, 68, 0
3, 626040, Note_on_c, 0, 69, 89
3, 626040, Note_on_c, 0, 52, 45
3, 626203, Note_on_c, 0, 69, 0
3, 626217, Note_on_c, 0, 52, 0
3, 626220, Note_on_c, 0, 71, 85
3, 626383, Note_on_c, 0, 71, 0
3, 626400, Note_on_c, 0, 72, 78
3, 626400, Note_on_c, 0, 33, 44
3, 626400, Note_on_c, 0, 45, 46
3, 626563, Note_on_c, 0, 72, 0
3, 626577, Note_on_c, 0, 45, 0
3, 626577, Note_on_c, 0, 33, 0
3, 626580, Note_on_c, 0, 69, 72
3, 626743, Note_on_c, 0, 69, 0
3, 626760, Note_on_c, 0, 71, 86
3, 626923, Note_on_c, 0, 71, 0
3, 626940, Note_on_c, 0, 69, 76
3, 627103, Note_on_c, 0, 69, 0
3, 627120, Note_on_c, 0, 72, 88
3, 627283, Note_on_c, 0, 72, 0
3, 627300, Note_on_c, 0, 68, 71
3, 627463, Note_on_c, 0, 68, 0
3, 627480, Note_on_c, 0, 69, 87
3, 627480, Note_on_c, 0, 40, 51
3, 627480, Note_on_c, 0, 52, 52
3, 627643, Note_on_c, 0, 69, 0
3, 627657, Note_on_c, 0, 52, 0
3, 627657, Note_on_c, 0, 40, 0
3, 627660, Note_on_c, 0, 68, 79
3, 627823, Note_on_c, 0, 68, 0
3, 627840, Note_on_c, 0, 72, 92
3, 628003, Note_on_c, 0, 72, 0
3, 628020, Note_on_c, 0, 66, 71
3, 628183, Note_on_c, 0, 66, 0
3, 628200, Note_on_c, 0, 68, 86
3, 628363, Note_on_c, 0, 68, 0
3, 628380, Note_on_c, 0, 71, 87
3, 628543, Note_on_c, 0, 71, 0
3, 628560, Note_on_c, 0, 72, 89
3, 628560, Note_on_c, 0, 45, 51
3, 628560, Note_on_c, 0, 57, 52
3, 628723, Note_on_c, 0, 72, 0
3, 628737, Note_on_c, 0, 57, 0
3, 628737, Note_on_c, 0, 45, 0
3, 628740, Note_on_c, 0, 69, 76
3, 628903, Note_on_c, 0, 69, 0
3, 628920, Note_on_c, 0, 71, 90
3, 629083, Note_on_c, 0, 71, 0
3, 629100, Note_on_c, 0, 69, 76
3, 629263, Note_on_c, 0, 69, 0
3, 629280, Note_on_c, 0, 72, 88
3, 629443, Note_on_c, 0, 72, 0
3, 629460, Note_on_c, 0, 71, 79
3, 629623, Note_on_c, 0, 71, 0
3, 629640, Note_on_c, 0, 72, 88
3, 629640, Note_on_c, 0, 38, 51
3, 629640, Note_on_c, 0, 50, 51
3, 629803, Note_on_c, 0, 72, 0
3, 629817, Note_on_c, 0, 50, 0
3, 629817, Note_on_c, 0, 38, 0
3, 629820, Note_on_c, 0, 74, 86
3, 629983, Note_on_c, 0, 74, 0
3, 630000, Note_on_c, 0, 76, 88
3, 630163, Note_on_c, 0, 76, 0
3, 630180, Note_on_c, 0, 71, 70
3, 630343, Note_on_c, 0, 71, 0
3, 630360, Note_on_c, 0, 72, 87
3, 630523, Note_on_c, 0, 72, 0
3, 630540, Note_on_c, 0, 74, 84
3, 630703, Note_on_c, 0, 74, 0
3, 630720, Note_on_c, 0, 71, 78
3, 630720, Note_on_c, 0, 31, 49
3, 630720, Note_on_c, 0, 43, 50
3, 630883, Note_on_c, 0, 71, 0
3, 630897, Note_on_c, 0, 43, 0
3, 630897, Note_on_c, 0, 31, 0
3, 630900, Note_on_c, 0, 62, 61
3, 631063, Note_on_c, 0, 62, 0
3, 631080, Note_on_c, 0, 64, 86
3, 631243, Note_on_c, 0, 64, 0
3, 631260, Note_on_c, 0, 62, 77
3, 631423, Note_on_c, 0, 62, 0
3, 631440, Note_on_c, 0, 71, 98
3, 631603, Note_on_c, 0, 71, 0
3, 631620, Note_on_c, 0, 60, 64
3, 631783, Note_on_c, 0, 60, 0
3, 631800, Note_on_c, 0, 62, 86
3, 631800, Note_on_c, 0, 38, 53
3, 631800, Note_on_c, 0, 50, 51
3, 631963, Note_on_c, 0, 62, 0
3, 631977, Note_on_c, 0, 50, 0
3, 631977, Note_on_c, 0, 38, 0
3, 631980, Note_on_c, 0, 60, 76
3, 632143, Note_on_c, 0, 60, 0
3, 632160, Note_on_c, 0, 71, 102
3, 632323, Note_on_c, 0, 71, 0
3, 632340, Note_on_c, 0, 64, 68
3, 632503, Note_on_c, 0, 64, 0
3, 632520, Note_on_c, 0, 62, 79
3, 632683, Note_on_c, 0, 62, 0
3, 632700, Note_on_c, 0, 69, 92
3, 632863, Note_on_c, 0, 69, 0
3, 632880, Note_on_c, 0, 71, 91
3, 632880, Note_on_c, 0, 43, 51
3, 632880, Note_on_c, 0, 55, 51
3, 633043, Note_on_c, 0, 71, 0
3, 633057, Note_on_c, 0, 55, 0
3, 633057, Note_on_c, 0, 43, 0
3, 633060, Note_on_c, 0, 59, 61
3, 633223, Note_on_c, 0, 59, 0
3, 633240, Note_on_c, 0, 60, 85
3, 633403, Note_on_c, 0, 60, 0
3, 633420, Note_on_c, 0, 59, 76
3, 633583, Note_on_c, 0, 59, 0
3, 633600, Note_on_c, 0, 71, 103
3, 633763, Note_on_c, 0, 71, 0
3, 633780, Note_on_c, 0, 66, 73
3, 633943, Note_on_c, 0, 66, 0
3, 633960, Note_on_c, 0, 67, 84
3, 633960, Note_on_c, 0, 40, 51
3, 633960, Note_on_c, 0, 52, 50
3, 634123, Note_on_c, 0, 67, 0
3, 634137, Note_on_c, 0, 52, 0
3, 634137, Note_on_c, 0, 40, 0
3, 634140, Note_on_c, 0, 71, 87
3, 634303, Note_on_c, 0, 71, 0
3, 634320, Note_on_c, 0, 74, 91
3, 634483, Note_on_c, 0, 74, 0
3, 634500, Note_on_c, 0, 66, 66
3, 634663, Note_on_c, 0, 66, 0
3, 634680, Note_on_c, 0, 67, 84
3, 634843, Note_on_c, 0, 67, 0
3, 634860, Note_on_c, 0, 71, 90
3, 635023, Note_on_c, 0, 71, 0
3, 635040, Note_on_c, 0, 74, 91
3, 635040, Note_on_c, 0, 33, 50
3, 635040, Note_on_c, 0, 45, 50
3, 635203, Note_on_c, 0, 74, 0
3, 635220, Note_on_c, 0, 64, 66
3, 635365, Note_on_c, 0, 45, 0
3, 635365, Note_on_c, 0, 33, 0
3, 635383, Note_on_c, 0, 64, 0
3, 635400, Note_on_c, 0, 66, 83
3, 635563, Note_on_c, 0, 66, 0
3, 635580, Note_on_c, 0, 69, 88
3, 635743, Note_on_c, 0, 69, 0
3, 635760, Note_on_c, 0, 74, 94
3, 635923, Note_on_c, 0, 74, 0
3, 635940, Note_on_c, 0, 69, 70
3, 636103, Note_on_c, 0, 69, 0
3, 636120, Note_on_c, 0, 74, 92
3, 636120, Note_on_c, 0, 33, 52
3, 636120, Note_on_c, 0, 45, 52
3, 636283, Note_on_c, 0, 74, 0
3, 636300, Note_on_c, 0, 78, 89
3, 636445, Note_on_c, 0, 45, 0
3, 636445, Note_on_c, 0, 33, 0
3, 636463, Note_on_c, 0, 78, 0
3, 636480, Note_on_c, 0, 79, 90
3, 636643, Note_on_c, 0, 79, 0
3, 636660, Note_on_c, 0, 75, 73
3, 636823, Note_on_c, 0, 75, 0
3, 636840, Note_on_c, 0, 76, 84
3, 637003, Note_on_c, 0, 76, 0
3, 637020, Note_on_c, 0, 78, 84
3, 637183, Note_on_c, 0, 78, 0
3, 637200, Note_on_c, 0, 79, 87
3, 637200, Note_on_c, 0, 33, 50
3, 637200, Note_on_c, 0, 45, 52
3, 637363, Note_on_c, 0, 79, 0
3, 637380, Note_on_c, 0, 71, 67
3, 637525, Note_on_c, 0, 45, 0
3, 637525, Note_on_c, 0, 33, 0
3, 637543, Note_on_c, 0, 71, 0
3, 637560, Note_on_c, 0, 76, 91
3, 637723, Note_on_c, 0, 76, 0
3, 637740, Note_on_c, 0, 78, 84
3, 637903, Note_on_c, 0, 78, 0
3, 637920, Note_on_c, 0, 79, 86
3, 638083, Note_on_c, 0, 79, 0
3, 638100, Note_on_c, 0, 78, 77
3, 638263, Note_on_c, 0, 78, 0
3, 638280, Note_on_c, 0, 79, 88
3, 638280, Note_on_c, 0, 33, 51
3, 638280, Note_on_c, 0, 45, 53
3, 638443, Note_on_c, 0, 79, 0
3, 638460, Note_on_c, 0, 83, 89
3, 638605, Note_on_c, 0, 45, 0
3, 638605, Note_on_c, 0, 33, 0
3, 638623, Note_on_c, 0, 83, 0
3, 638640, Note_on_c, 0, 86, 90
3, 638803, Note_on_c, 0, 86, 0
3, 638820, Note_on_c, 0, 81, 72
3, 638983, Note_on_c, 0, 81, 0
3, 639000, Note_on_c, 0, 80, 78
3, 639163, Note_on_c, 0, 80, 0
3, 639180, Note_on_c, 0, 85, 90
3, 639343, Note_on_c, 0, 85, 0
3, 639360, Note_on_c, 0, 78, 104
3, 639360, Note_on_c, 0, 86, 103
3, 639360, Note_on_c, 0, 33, 53
3, 639360, Note_on_c, 0, 45, 50
3, 639537, Note_on_c, 0, 45, 0
3, 639537, Note_on_c, 0, 86, 0
3, 639537, Note_on_c, 0, 33, 0
3, 639537, Note_on_c, 0, 78, 0
3, 639720, Note_on_c, 0, 78, 74
3, 639720, Note_on_c, 0, 54, 64
3, 639720, Note_on_c, 0, 62, 65
3, 639720, Note_on_c, 0, 66, 63
3, 639883, Note_on_c, 0, 78, 0
3, 639897, Note_on_c, 0, 62, 0
3, 639897, Note_on_c, 0, 66, 0
3, 639897, Note_on_c, 0, 54, 0
3, 639900, Note_on_c, 0, 76, 76
3, 640063, Note_on_c, 0, 76, 0
3, 640080, Note_on_c, 0, 73, 99
3, 640080, Note_on_c, 0, 54, 54
3, 640080, Note_on_c, 0, 57, 56
3, 640080, Note_on_c, 0, 66, 56
3, 640243, Note_on_c, 0, 73, 0
3, 640257, Note_on_c, 0, 57, 0
3, 640257, Note_on_c, 0, 66, 0
3, 640257, Note_on_c, 0, 54, 0
3, 640260, Note_on_c, 0, 74, 85
3, 640423, Note_on_c, 0, 74, 0
3, 640440, Note_on_c, 0, 76, 87
3, 640603, Note_on_c, 0, 76, 0
3, 640620, Note_on_c, 0, 74, 74
3, 640783, Note_on_c, 0, 74, 0
3, 640800, Note_on_c, 0, 71, 99
3, 640800, Note_on_c, 0, 54, 48
3, 640800, Note_on_c, 0, 62, 46
3, 640800, Note_on_c, 0, 66, 50
3, 640963, Note_on_c, 0, 71, 0
3, 640977, Note_on_c, 0, 62, 0
3, 640977, Note_on_c, 0, 66, 0
3, 640977, Note_on_c, 0, 54, 0
3, 640980, Note_on_c, 0, 73, 85
3, 641143, Note_on_c, 0, 73, 0
3, 641160, Note_on_c, 0, 74, 89
3, 641160, Note_on_c, 0, 54, 47
3, 641160, Note_on_c, 0, 57, 48
3, 641160, Note_on_c, 0, 62, 48
3, 641323, Note_on_c, 0, 74, 0
3, 641337, Note_on_c, 0, 57, 0
3, 641337, Note_on_c, 0, 62, 0
3, 641337, Note_on_c, 0, 54, 0
3, 641340, Note_on_c, 0, 73, 78
3, 641503, Note_on_c, 0, 73, 0
3, 641520, Note_on_c, 0, 69, 97
3, 641520, Note_on_c, 0, 45, 43
3, 641683, Note_on_c, 0, 69, 0
3, 641697, Note_on_c, 0, 45, 0
3, 641700, Note_on_c, 0, 71, 85
3, 641863, Note_on_c, 0, 71, 0
3, 641880, Note_on_c, 0, 74, 91
3, 641880, Note_on_c, 0, 54, 62
3, 641880, Note_on_c, 0, 57, 63
3, 641880, Note_on_c, 0, 62, 64
3, 642043, Note_on_c, 0, 74, 0
3, 642057, Note_on_c, 0, 57, 0
3, 642057, Note_on_c, 0, 62, 0
3, 642057, Note_on_c, 0, 54, 0
3, 642060, Note_on_c, 0, 69, 71
3, 642223, Note_on_c, 0, 69, 0
3, 642240, Note_on_c, 0, 67, 102
3, 642240, Note_on_c, 0, 55, 54
3, 642240, Note_on_c, 0, 59, 56
3, 642240, Note_on_c, 0, 62, 56
3, 642403, Note_on_c, 0, 67, 0
3, 642417, Note_on_c, 0, 59, 0
3, 642417, Note_on_c, 0, 62, 0
3, 642417, Note_on_c, 0, 55, 0
3, 642420, Note_on_c, 0, 69, 84
3, 642583, Note_on_c, 0, 69, 0
3, 642600, Note_on_c, 0, 71, 88
3, 642763, Note_on_c, 0, 71, 0
3, 642780, Note_on_c, 0, 69, 77
3, 642943, Note_on_c, 0, 69, 0
3, 642960, Note_on_c, 0, 66, 94
3, 642960, Note_on_c, 0, 54, 49
3, 642960, Note_on_c, 0, 57, 49
3, 642960, Note_on_c, 0, 62, 48
3, 643137, Note_on_c, 0, 62, 0
3, 643137, Note_on_c, 0, 54, 0
3, 643137, Note_on_c, 0, 57, 0
3, 643285, Note_on_c, 0, 66, 0
3, 643320, Note_on_c, 0, 69, 76
3, 643320, Note_on_c, 0, 54, 46
3, 643320, Note_on_c, 0, 57, 44
3, 643483, Note_on_c, 0, 69, 0
3, 643497, Note_on_c, 0, 57, 0
3, 643497, Note_on_c, 0, 54, 0
3, 643500, Note_on_c, 0, 66, 71
3, 643663, Note_on_c, 0, 66, 0
3, 643680, Note_on_c, 0, 71, 119
3, 643680, Note_on_c, 0, 33, 42
3, 643680, Note_on_c, 0, 45, 44
3, 643843, Note_on_c, 0, 71, 0
3, 643857, Note_on_c, 0, 45, 0
3, 643857, Note_on_c, 0, 33, 0
3, 643860, Note_on_c, 0, 73, 84
3, 644023, Note_on_c, 0, 73, 0
3, 644040, Note_on_c, 0, 74, 87
3, 644040, Note_on_c, 0, 55, 61
3, 644040, Note_on_c, 0, 59, 65
3, 644040, Note_on_c, 0, 62, 62
3, 644217, Note_on_c, 0, 62, 0
3, 644217, Note_on_c, 0, 55, 0
3, 644217, Note_on_c, 0, 59, 0
3, 644365, Note_on_c, 0, 74, 0
3, 644400, Note_on_c, 0, 69, 97
3, 644400, Note_on_c, 0, 55, 52
3, 644400, Note_on_c, 0, 57, 53
3, 644400, Note_on_c, 0, 61, 53
3, 644563, Note_on_c, 0, 69, 0
3, 644580, Note_on_c, 0, 71, 83
3, 644725, Note_on_c, 0, 57, 0
3, 644725, Note_on_c, 0, 61, 0
3, 644725, Note_on_c, 0, 55, 0
3, 644743, Note_on_c, 0, 71, 0
3, 644760, Note_on_c, 0, 73, 90
3, 645085, Note_on_c, 0, 73, 0
3, 645120, Note_on_c, 0, 67, 94
3, 645120, Note_on_c, 0, 55, 50
3, 645120, Note_on_c, 0, 59, 49
3, 645283, Note_on_c, 0, 67, 0
3, 645297, Note_on_c, 0, 59, 0
3, 645297, Note_on_c, 0, 55, 0
3, 645300, Note_on_c, 0, 69, 84
3, 645463, Note_on_c, 0, 69, 0
3, 645480, Note_on_c, 0, 71, 73
3, 645480, Note_on_c, 0, 55, 53
3, 645480, Note_on_c, 0, 59, 51
3, 645657, Note_on_c, 0, 59, 0
3, 645657, Note_on_c, 0, 55, 0
3, 645805, Note_on_c, 0, 71, 0
3, 645840, Note_on_c, 0, 66, 97
3, 645840, Note_on_c, 0, 45, 40
3, 646003, Note_on_c, 0, 66, 0
3, 646017, Note_on_c, 0, 45, 0
3, 646020, Note_on_c, 0, 67, 82
3, 646183, Note_on_c, 0, 67, 0
3, 646200, Note_on_c, 0, 69, 87
3, 646200, Note_on_c, 0, 55, 63
3, 646200, Note_on_c, 0, 57, 62
3, 646200, Note_on_c, 0, 64, 61
3, 646377, Note_on_c, 0, 64, 0
3, 646377, Note_on_c, 0, 55, 0
3, 646377, Note_on_c, 0, 57, 0
3, 646525, Note_on_c, 0, 69, 0
3, 646560, Note_on_c, 0, 67, 93
3, 646560, Note_on_c, 0, 55, 52
3, 646560, Note_on_c, 0, 59, 53
3, 646560, Note_on_c, 0, 62, 51
3, 646723, Note_on_c, 0, 67, 0
3, 646737, Note_on_c, 0, 59, 0
3, 646737, Note_on_c, 0, 62, 0
3, 646737, Note_on_c, 0, 55, 0
3, 646740, Note_on_c, 0, 71, 89
3, 646903, Note_on_c, 0, 71, 0
3, 646920, Note_on_c, 0, 69, 77
3, 647083, Note_on_c, 0, 69, 0
3, 647100, Note_on_c, 0, 67, 74
3, 647263, Note_on_c, 0, 67, 0
3, 647280, Note_on_c, 0, 69, 96
3, 647280, Note_on_c, 0, 73, 96
3, 647280, Note_on_c, 0, 55, 49
3, 647280, Note_on_c, 0, 57, 48
3, 647280, Note_on_c, 0, 61, 50
3, 647457, Note_on_c, 0, 61, 0
3, 647457, Note_on_c, 0, 55, 0
3, 647457, Note_on_c, 0, 57, 0
3, 647605, Note_on_c, 0, 69, 0
3, 647605, Note_on_c, 0, 73, 0
3, 647640, Note_on_c, 0, 64, 71
3, 647640, Note_on_c, 0, 67, 72
3, 647640, Note_on_c, 0, 55, 45
3, 647640, Note_on_c, 0, 57, 46
3, 647803, Note_on_c, 0, 67, 0
3, 647803, Note_on_c, 0, 64, 0
3, 647817, Note_on_c, 0, 57, 0
3, 647817, Note_on_c, 0, 55, 0
3, 647820, Note_on_c, 0, 69, 84
3, 647983, Note_on_c, 0, 69, 0
3, 648000, Note_on_c, 0, 62, 93
3, 648000, Note_on_c, 0, 66, 94
3, 648000, Note_on_c, 0, 74, 94
3, 648000, Note_on_c, 0, 38, 47
3, 648000, Note_on_c, 0, 50, 47
3, 648325, Note_on_c, 0, 50, 0
3, 648325, Note_on_c, 0, 62, 0
3, 648325, Note_on_c, 0, 66, 0
3, 648325, Note_on_c, 0, 74, 0
3, 648325, Note_on_c, 0, 38, 0
3, 648360, Note_on_c, 0, 62, 66
3, 648523, Note_on_c, 0, 62, 0
3, 648540, Note_on_c, 0, 61, 75
3, 648703, Note_on_c, 0, 61, 0
3, 648720, Note_on_c, 0, 62, 86
3, 648883, Note_on_c, 0, 62, 0
3, 648900, Note_on_c, 0, 61, 79
3, 649063, Note_on_c, 0, 61, 0
3, 649080, Note_on_c, 0, 62, 85
3, 649243, Note_on_c, 0, 62, 0
3, 649260, Note_on_c, 0, 61, 77
3, 649423, Note_on_c, 0, 61, 0
3, 649440, Note_on_c, 0, 62, 85
3, 649603, Note_on_c, 0, 62, 0
3, 649620, Note_on_c, 0, 61, 79
3, 649783, Note_on_c, 0, 61, 0
3, 649800, Note_on_c, 0, 62, 85
3, 649963, Note_on_c, 0, 62, 0
3, 649980, Note_on_c, 0, 61, 77
3, 650143, Note_on_c, 0, 61, 0
3, 650160, Note_on_c, 0, 62, 85
3, 650323, Note_on_c, 0, 62, 0
3, 650340, Note_on_c, 0, 61, 76
3, 650503, Note_on_c, 0, 61, 0
3, 650520, Note_on_c, 0, 62, 88
3, 650683, Note_on_c, 0, 62, 0
3, 650700, Note_on_c, 0, 61, 78
3, 650863, Note_on_c, 0, 61, 0
3, 650880, Note_on_c, 0, 62, 85
3, 651043, Note_on_c, 0, 62, 0
3, 651060, Note_on_c, 0, 61, 77
3, 651223, Note_on_c, 0, 61, 0
3, 651240, Note_on_c, 0, 62, 88
3, 651403, Note_on_c, 0, 62, 0
3, 651420, Note_on_c, 0, 61, 77
3, 651583, Note_on_c, 0, 61, 0
3, 651600, Note_on_c, 0, 62, 87
3, 651763, Note_on_c, 0, 62, 0
3, 651780, Note_on_c, 0, 61, 78
3, 651943, Note_on_c, 0, 61, 0
3, 651960, Note_on_c, 0, 62, 85
3, 652123, Note_on_c, 0, 62, 0
3, 652140, Note_on_c, 0, 61, 79
3, 652303, Note_on_c, 0, 61, 0
3, 652320, Note_on_c, 0, 62, 87
3, 652645, Note_on_c, 0, 62, 0
3, 652680, Note_on_c, 0, 62, 86
3, 652843, Note_on_c, 0, 62, 0
3, 652860, Note_on_c, 0, 61, 75
3, 653023, Note_on_c, 0, 61, 0
3, 653040, Note_on_c, 0, 62, 85
3, 653203, Note_on_c, 0, 62, 0
3, 653220, Note_on_c, 0, 61, 79
3, 653383, Note_on_c, 0, 61, 0
3, 653400, Note_on_c, 0, 62, 86
3, 653563, Note_on_c, 0, 62, 0
3, 653580, Note_on_c, 0, 61, 76
3, 653743, Note_on_c, 0, 61, 0
3, 653760, Note_on_c, 0, 62, 87
3, 653923, Note_on_c, 0, 62, 0
3, 653940, Note_on_c, 0, 61, 76
3, 654103, Note_on_c, 0, 61, 0
3, 654120, Note_on_c, 0, 62, 87
3, 654283, Note_on_c, 0, 62, 0
3, 654300, Note_on_c, 0, 61, 75
3, 654463, Note_on_c, 0, 61, 0
3, 654480, Note_on_c, 0, 62, 86
3, 654643, Note_on_c, 0, 62, 0
3, 654660, Note_on_c, 0, 61, 77
3, 654823, Note_on_c, 0, 61, 0
3, 654840, Note_on_c, 0, 62, 87
3, 655003, Note_on_c, 0, 62, 0
3, 655020, Note_on_c, 0, 61, 76
3, 655183, Note_on_c, 0, 61, 0
3, 655200, Note_on_c, 0, 62, 87
3, 655363, Note_on_c, 0, 62, 0
3, 655380, Note_on_c, 0, 61, 79
3, 655543, Note_on_c, 0, 61, 0
3, 655560, Note_on_c, 0, 62, 84
3, 655723, Note_on_c, 0, 62, 0
3, 655740, Note_on_c, 0, 61, 77
3, 655903, Note_on_c, 0, 61, 0
3, 655920, Note_on_c, 0, 62, 85
3, 656083, Note_on_c, 0, 62, 0
3, 656100, Note_on_c, 0, 61, 78
3, 656263, Note_on_c, 0, 61, 0
3, 656280, Note_on_c, 0, 62, 88
3, 656443, Note_on_c, 0, 62, 0
3, 656460, Note_on_c, 0, 61, 77
3, 656623, Note_on_c, 0, 61, 0
3, 656640, Note_on_c, 0, 62, 87
3, 656820, Note_on_c, 0, 62, 49
3, 656965, Note_on_c, 0, 62, 0
3, 656983, Note_on_c, 0, 62, 0
3, 657000, Note_on_c, 0, 58, 49
3, 657163, Note_on_c, 0, 58, 0
3, 657180, Note_on_c, 0, 62, 59
3, 657343, Note_on_c, 0, 62, 0
3, 657360, Note_on_c, 0, 58, 49
3, 657523, Note_on_c, 0, 58, 0
3, 657540, Note_on_c, 0, 62, 57
3, 657703, Note_on_c, 0, 62, 0
3, 657720, Note_on_c, 0, 70, 68
3, 657883, Note_on_c, 0, 70, 0
3, 657900, Note_on_c, 0, 67, 51
3, 658063, Note_on_c, 0, 67, 0
3, 658080, Note_on_c, 0, 70, 74
3, 658080, Note_on_c, 0, 74, 73
3, 658080, Note_on_c, 0, 62, 49
3, 658243, Note_on_c, 0, 62, 0
3, 658260, Note_on_c, 0, 67, 58
3, 658423, Note_on_c, 0, 67, 0
3, 658440, Note_on_c, 0, 62, 52
3, 658567, Note_on_c, 0, 74, 0
3, 658567, Note_on_c, 0, 70, 0
3, 658603, Note_on_c, 0, 62, 0
3, 658620, Note_on_c, 0, 69, 75
3, 658620, Note_on_c, 0, 72, 74
3, 658620, Note_on_c, 0, 58, 48
3, 658783, Note_on_c, 0, 58, 0
3, 658783, Note_on_c, 0, 72, 0
3, 658783, Note_on_c, 0, 69, 0
3, 658800, Note_on_c, 0, 70, 88
3, 658800, Note_on_c, 0, 74, 89
3, 658977, Note_on_c, 0, 74, 0
3, 658977, Note_on_c, 0, 70, 0
3, 658980, Note_on_c, 0, 62, 47
3, 659143, Note_on_c, 0, 62, 0
3, 659160, Note_on_c, 0, 58, 49
3, 659323, Note_on_c, 0, 58, 0
3, 659340, Note_on_c, 0, 62, 59
3, 659503, Note_on_c, 0, 62, 0
3, 659520, Note_on_c, 0, 70, 76
3, 659520, Note_on_c, 0, 74, 79
3, 659520, Note_on_c, 0, 58, 51
3, 659683, Note_on_c, 0, 58, 0
3, 659700, Note_on_c, 0, 62, 59
3, 659863, Note_on_c, 0, 62, 0
3, 659880, Note_on_c, 0, 70, 66
3, 660043, Note_on_c, 0, 70, 0
3, 660060, Note_on_c, 0, 67, 49
3, 660205, Note_on_c, 0, 70, 0
3, 660205, Note_on_c, 0, 74, 0
3, 660223, Note_on_c, 0, 67, 0
3, 660240, Note_on_c, 0, 82, 103
3, 660240, Note_on_c, 0, 86, 100
3, 660240, Note_on_c, 0, 62, 48
3, 660403, Note_on_c, 0, 62, 0
3, 660420, Note_on_c, 0, 67, 59
3, 660583, Note_on_c, 0, 67, 0
3, 660600, Note_on_c, 0, 62, 51
3, 660727, Note_on_c, 0, 86, 0
3, 660727, Note_on_c, 0, 82, 0
3, 660763, Note_on_c, 0, 62, 0
3, 660780, Note_on_c, 0, 81, 81
3, 660780, Note_on_c, 0, 84, 78
3, 660780, Note_on_c, 0, 58, 47
3, 660943, Note_on_c, 0, 58, 0
3, 660943, Note_on_c, 0, 84, 0
3, 660943, Note_on_c, 0, 81, 0
3, 660960, Note_on_c, 0, 82, 88
3, 660960, Note_on_c, 0, 86, 88
3, 661137, Note_on_c, 0, 86, 0
3, 661137, Note_on_c, 0, 82, 0
3, 661140, Note_on_c, 0, 62, 50
3, 661303, Note_on_c, 0, 62, 0
3, 661320, Note_on_c, 0, 58, 50
3, 661483, Note_on_c, 0, 58, 0
3, 661500, Note_on_c, 0, 62, 59
3, 661663, Note_on_c, 0, 62, 0
3, 661680, Note_on_c, 0, 82, 80
3, 661680, Note_on_c, 0, 86, 78
3, 661680, Note_on_c, 0, 58, 51
3, 661843, Note_on_c, 0, 58, 0
3, 661860, Note_on_c, 0, 62, 56
3, 662023, Note_on_c, 0, 62, 0
3, 662040, Note_on_c, 0, 70, 65
3, 662203, Note_on_c, 0, 70, 0
3, 662220, Note_on_c, 0, 65, 48
3, 662365, Note_on_c, 0, 86, 0
3, 662365, Note_on_c, 0, 82, 0
3, 662383, Note_on_c, 0, 65, 0
3, 662400, Note_on_c, 0, 70, 61
3, 662400, Note_on_c, 0, 74, 62
3, 662400, Note_on_c, 0, 62, 50
3, 662563, Note_on_c, 0, 62, 0
3, 662580, Note_on_c, 0, 65, 55
3, 662743, Note_on_c, 0, 65, 0
3, 662760, Note_on_c, 0, 62, 51
3, 662887, Note_on_c, 0, 74, 0
3, 662887, Note_on_c, 0, 70, 0
3, 662923, Note_on_c, 0, 62, 0
3, 662940, Note_on_c, 0, 69, 72
3, 662940, Note_on_c, 0, 72, 70
3, 662940, Note_on_c, 0, 58, 47
3, 663103, Note_on_c, 0, 58, 0
3, 663103, Note_on_c, 0, 72, 0
3, 663103, Note_on_c, 0, 69, 0
3, 663120, Note_on_c, 0, 70, 87
3, 663120, Note_on_c, 0, 74, 88
3, 663297, Note_on_c, 0, 74, 0
3, 663297, Note_on_c, 0, 70, 0
3, 663300, Note_on_c, 0, 62, 47
3, 663463, Note_on_c, 0, 62, 0
3, 663480, Note_on_c, 0, 58, 50
3, 663643, Note_on_c, 0, 58, 0
3, 663660, Note_on_c, 0, 62, 59
3, 663823, Note_on_c, 0, 62, 0
3, 663840, Note_on_c, 0, 70, 79
3, 663840, Note_on_c, 0, 74, 77
3, 663840, Note_on_c, 0, 58, 53
3, 664003, Note_on_c, 0, 58, 0
3, 664020, Note_on_c, 0, 62, 56
3, 664183, Note_on_c, 0, 62, 0
3, 664200, Note_on_c, 0, 70, 65
3, 664363, Note_on_c, 0, 70, 0
3, 664377, Note_on_c, 0, 70, 0
3, 664377, Note_on_c, 0, 74, 0
3, 664380, Note_on_c, 0, 65, 48
3, 664543, Note_on_c, 0, 65, 0
3, 664560, Note_on_c, 0, 82, 100
3, 664560, Note_on_c, 0, 86, 99
3, 664560, Note_on_c, 0, 62, 50
3, 664723, Note_on_c, 0, 62, 0
3, 664740, Note_on_c, 0, 65, 54
3, 664903, Note_on_c, 0, 65, 0
3, 664920, Note_on_c, 0, 62, 50
3, 665047, Note_on_c, 0, 86, 0
3, 665047, Note_on_c, 0, 82, 0
3, 665083, Note_on_c, 0, 62, 0
3, 665100, Note_on_c, 0, 81, 78
3, 665100, Note_on_c, 0, 84, 80
3, 665100, Note_on_c, 0, 58, 48
3, 665263, Note_on_c, 0, 58, 0
3, 665263, Note_on_c, 0, 84, 0
3, 665263, Note_on_c, 0, 81, 0
3, 665280, Note_on_c, 0, 82, 87
3, 665280, Note_on_c, 0, 86, 87
3, 665460, Note_on_c, 0, 62, 48
3, 665605, Note_on_c, 0, 86, 0
3, 665605, Note_on_c, 0, 82, 0
3, 665623, Note_on_c, 0, 62, 0
3, 665640, Note_on_c, 0, 58, 48
3, 665803, Note_on_c, 0, 58, 0
3, 665820, Note_on_c, 0, 62, 56
3, 665983, Note_on_c, 0, 62, 0
3, 666000, Note_on_c, 0, 82, 72
3, 666000, Note_on_c, 0, 86, 71
3, 666000, Note_on_c, 0, 58, 50
3, 666163, Note_on_c, 0, 58, 0
3, 666180, Note_on_c, 0, 62, 56
3, 666343, Note_on_c, 0, 62, 0
3, 666360, Note_on_c, 0, 70, 68
3, 666523, Note_on_c, 0, 70, 0
3, 666540, Note_on_c, 0, 68, 50
3, 666685, Note_on_c, 0, 86, 0
3, 666685, Note_on_c, 0, 82, 0
3, 666703, Note_on_c, 0, 68, 0
3, 666720, Note_on_c, 0, 70, 62
3, 666720, Note_on_c, 0, 74, 60
3, 666720, Note_on_c, 0, 62, 50
3, 666883, Note_on_c, 0, 62, 0
3, 666900, Note_on_c, 0, 68, 60
3, 667063, Note_on_c, 0, 68, 0
3, 667080, Note_on_c, 0, 62, 51
3, 667207, Note_on_c, 0, 74, 0
3, 667207, Note_on_c, 0, 70, 0
3, 667243, Note_on_c, 0, 62, 0
3, 667260, Note_on_c, 0, 72, 72
3, 667260, Note_on_c, 0, 58, 45
3, 667423, Note_on_c, 0, 58, 0
3, 667423, Note_on_c, 0, 72, 0
3, 667440, Note_on_c, 0, 70, 87
3, 667440, Note_on_c, 0, 74, 85
3, 667617, Note_on_c, 0, 74, 0
3, 667617, Note_on_c, 0, 70, 0
3, 667620, Note_on_c, 0, 62, 49
3, 667783, Note_on_c, 0, 62, 0
3, 667800, Note_on_c, 0, 58, 50
3, 667963, Note_on_c, 0, 58, 0
3, 667980, Note_on_c, 0, 62, 57
3, 668143, Note_on_c, 0, 62, 0
3, 668160, Note_on_c, 0, 70, 79
3, 668160, Note_on_c, 0, 74, 79
3, 668160, Note_on_c, 0, 58, 50
3, 668323, Note_on_c, 0, 58, 0
3, 668340, Note_on_c, 0, 62, 57
3, 668503, Note_on_c, 0, 62, 0
3, 668520, Note_on_c, 0, 70, 66
3, 668683, Note_on_c, 0, 70, 0
3, 668700, Note_on_c, 0, 68, 52
3, 668845, Note_on_c, 0, 70, 0
3, 668845, Note_on_c, 0, 74, 0
3, 668863, Note_on_c, 0, 68, 0
3, 668880, Note_on_c, 0, 74, 100
3, 668880, Note_on_c, 0, 82, 99
3, 668880, Note_on_c, 0, 86, 101
3, 668880, Note_on_c, 0, 62, 46
3, 669043, Note_on_c, 0, 62, 0
3, 669060, Note_on_c, 0, 68, 59
3, 669223, Note_on_c, 0, 68, 0
3, 669240, Note_on_c, 0, 62, 51
3, 669367, Note_on_c, 0, 86, 0
3, 669367, Note_on_c, 0, 82, 0
3, 669367, Note_on_c, 0, 74, 0
3, 669403, Note_on_c, 0, 62, 0
3, 669420, Note_on_c, 0, 72, 80
3, 669420, Note_on_c, 0, 84, 79
3, 669420, Note_on_c, 0, 58, 47
3, 669583, Note_on_c, 0, 58, 0
3, 669583, Note_on_c, 0, 84, 0
3, 669583, Note_on_c, 0, 72, 0
3, 669600, Note_on_c, 0, 74, 93
3, 669600, Note_on_c, 0, 79, 94
3, 669600, Note_on_c, 0, 82, 93
3, 669600, Note_on_c, 0, 86, 95
3, 669600, Note_on_c, 0, 62, 67
3, 669600, Note_on_c, 0, 67, 68
3, 669600, Note_on_c, 0, 70, 66
3, 670250, Note_on_c, 0, 70, 0
3, 670250, Note_on_c, 0, 67, 0
3, 670250, Note_on_c, 0, 62, 0
3, 670320, Note_on_c, 0, 74, 0
3, 670320, Note_on_c, 0, 79, 0
3, 670320, Note_on_c, 0, 82, 0
3, 670320, Note_on_c, 0, 86, 0
3, 670320, Note_on_c, 0, 77, 96
3, 670320, Note_on_c, 0, 79, 93
3, 670320, Note_on_c, 0, 82, 94
3, 670320, Note_on_c, 0, 89, 94
3, 670320, Note_on_c, 0, 65, 60
3, 670320, Note_on_c, 0, 67, 61
3, 670320, Note_on_c, 0, 70, 62
3, 670680, Note_on_c, 0, 62, 50
3, 671005, Note_on_c, 0, 62, 0
3, 671005, Note_on_c, 0, 82, 0
3, 671005, Note_on_c, 0, 70, 0
3, 671005, Note_on_c, 0, 89, 0
3, 671005, Note_on_c, 0, 77, 0
3, 671005, Note_on_c, 0, 79, 0
3, 671005, Note_on_c, 0, 67, 0
3, 671005, Note_on_c, 0, 65, 0
3, 671040, Note_on_c, 0, 75, 80
3, 671040, Note_on_c, 0, 79, 82
3, 671040, Note_on_c, 0, 82, 81
3, 671040, Note_on_c, 0, 87, 83
3, 671040, Note_on_c, 0, 63, 57
3, 671040, Note_on_c, 0, 67, 58
3, 671040, Note_on_c, 0, 70, 60
3, 671760, Note_on_c, 0, 70, 0
3, 671760, Note_on_c, 0, 67, 0
3, 671760, Note_on_c, 0, 87, 0
3, 671760, Note_on_c, 0, 75, 0
3, 671760, Note_on_c, 0, 79, 0
3, 671760, Note_on_c, 0, 82, 0
3, 671760, Note_on_c, 0, 63, 0
3, 671760, Note_on_c, 0, 78, 74
3, 671760, Note_on_c, 0, 82, 74
3, 671760, Note_on_c, 0, 74, 127
3, 671760, Note_on_c, 0, 86, 127
3, 671760, Note_on_c, 0, 66, 56
3, 671760, Note_on_c, 0, 70, 56
3, 671760, Note_on_c, 0, 62, 56
3, 671760, Note_on_c, 0, 62, 51
3, 672085, Note_on_c, 0, 62, 0
3, 672085, Note_on_c, 0, 74, 0
3, 672085, Note_on_c, 0, 62, 0
3, 672085, Note_on_c, 0, 86, 0
3, 672120, Note_on_c, 0, 72, 80
3, 672120, Note_on_c, 0, 84, 80
3, 672120, Note_on_c, 0, 60, 51
3, 672445, Note_on_c, 0, 60, 0
3, 672445, Note_on_c, 0, 84, 0
3, 672445, Note_on_c, 0, 72, 0
3, 672480, Note_on_c, 0, 70, 76
3, 672480, Note_on_c, 0, 82, 77
3, 672480, Note_on_c, 0, 58, 50
3, 672805, Note_on_c, 0, 58, 0
3, 672805, Note_on_c, 0, 70, 0
3, 672805, Note_on_c, 0, 82, 0
3, 672840, Note_on_c, 0, 72, 87
3, 672840, Note_on_c, 0, 84, 90
3, 672840, Note_on_c, 0, 60, 58
3, 673165, Note_on_c, 0, 60, 0
3, 673165, Note_on_c, 0, 84, 0
3, 673165, Note_on_c, 0, 72, 0
3, 673200, Note_on_c, 0, 70, 76
3, 673200, Note_on_c, 0, 82, 78
3, 673200, Note_on_c, 0, 58, 48
3, 673525, Note_on_c, 0, 58, 0
3, 673525, Note_on_c, 0, 82, 0
3, 673525, Note_on_c, 0, 70, 0
3, 673560, Note_on_c, 0, 72, 85
3, 673560, Note_on_c, 0, 84, 84
3, 673560, Note_on_c, 0, 60, 55
3, 673850, Note_on_c, 0, 70, 0
3, 673850, Note_on_c, 0, 78, 0
3, 673850, Note_on_c, 0, 66, 0
3, 673850, Note_on_c, 0, 82, 0
3, 673885, Note_on_c, 0, 84, 0
3, 673885, Note_on_c, 0, 60, 0
3, 673885, Note_on_c, 0, 72, 0
3, 673920, Note_on_c, 0, 74, 93
3, 673920, Note_on_c, 0, 79, 94
3, 673920, Note_on_c, 0, 82, 91
3, 673920, Note_on_c, 0, 86, 92
3, 673920, Note_on_c, 0, 62, 56
3, 673920, Note_on_c, 0, 67, 56
3, 673920, Note_on_c, 0, 70, 58
3, 674280, Note_on_c, 0, 58, 61
3, 674443, Note_on_c, 0, 58, 0
3, 674460, Note_on_c, 0, 62, 58
3, 674623, Note_on_c, 0, 62, 0
3, 674640, Note_on_c, 0, 58, 53
3, 674803, Note_on_c, 0, 58, 0
3, 674820, Note_on_c, 0, 62, 58
3, 674930, Note_on_c, 0, 82, 0
3, 674930, Note_on_c, 0, 70, 0
3, 674930, Note_on_c, 0, 62, 0
3, 674930, Note_on_c, 0, 86, 0
3, 674930, Note_on_c, 0, 74, 0
3, 674930, Note_on_c, 0, 79, 0
3, 674930, Note_on_c, 0, 67, 0
3, 674983, Note_on_c, 0, 62, 0
3, 675000, Note_on_c, 0, 70, 56
3, 675163, Note_on_c, 0, 70, 0
3, 675180, Note_on_c, 0, 67, 50
3, 675343, Note_on_c, 0, 67, 0
3, 675360, Note_on_c, 0, 70, 73
3, 675360, Note_on_c, 0, 74, 75
3, 675360, Note_on_c, 0, 62, 49
3, 675523, Note_on_c, 0, 62, 0
3, 675540, Note_on_c, 0, 67, 57
3, 675703, Note_on_c, 0, 67, 0
3, 675720, Note_on_c, 0, 62, 49
3, 675847, Note_on_c, 0, 74, 0
3, 675847, Note_on_c, 0, 70, 0
3, 675883, Note_on_c, 0, 62, 0
3, 675900, Note_on_c, 0, 69, 75
3, 675900, Note_on_c, 0, 72, 76
3, 675900, Note_on_c, 0, 58, 48
3, 676063, Note_on_c, 0, 58, 0
3, 676063, Note_on_c, 0, 72, 0
3, 676063, Note_on_c, 0, 69, 0
3, 676080, Note_on_c, 0, 70, 86
3, 676080, Note_on_c, 0, 74, 88
3, 676257, Note_on_c, 0, 74, 0
3, 676257, Note_on_c, 0, 70, 0
3, 676260, Note_on_c, 0, 62, 48
3, 676423, Note_on_c, 0, 62, 0
3, 676440, Note_on_c, 0, 58, 51
3, 676603, Note_on_c, 0, 58, 0
3, 676620, Note_on_c, 0, 62, 58
3, 676783, Note_on_c, 0, 62, 0
3, 676800, Note_on_c, 0, 70, 77
3, 676800, Note_on_c, 0, 74, 76
3, 676800, Note_on_c, 0, 58, 52
3, 676963, Note_on_c, 0, 58, 0
3, 676980, Note_on_c, 0, 62, 56
3, 677143, Note_on_c, 0, 62, 0
3, 677160, Note_on_c, 0, 70, 66
3, 677323, Note_on_c, 0, 70, 0
3, 677340, Note_on_c, 0, 67, 51
3, 677485, Note_on_c, 0, 70, 0
3, 677485, Note_on_c, 0, 74, 0
3, 677503, Note_on_c, 0, 67, 0
3, 677520, Note_on_c, 0, 82, 103
3, 677520, Note_on_c, 0, 86, 102
3, 677520, Note_on_c, 0, 62, 49
3, 677683, Note_on_c, 0, 62, 0
3, 677700, Note_on_c, 0, 67, 58
3, 677863, Note_on_c, 0, 67, 0
3, 677880, Note_on_c, 0, 62, 48
3, 678007, Note_on_c, 0, 86, 0
3, 678007, Note_on_c, 0, 82, 0
3, 678043, Note_on_c, 0, 62, 0
3, 678060, Note_on_c, 0, 81, 79
3, 678060, Note_on_c, 0, 84, 78
3, 678060, Note_on_c, 0, 67, 59
3, 678223, Note_on_c, 0, 67, 0
3, 678223, Note_on_c, 0, 84, 0
3, 678223, Note_on_c, 0, 81, 0
3, 678240, Note_on_c, 0, 82, 87
3, 678240, Note_on_c, 0, 86, 86
3, 678417, Note_on_c, 0, 86, 0
3, 678417, Note_on_c, 0, 82, 0
3, 678420, Note_on_c, 0, 62, 49
3, 678583, Note_on_c, 0, 62, 0
3, 678600, Note_on_c, 0, 58, 49
3, 678763, Note_on_c, 0, 58, 0
3, 678780, Note_on_c, 0, 62, 57
3, 678943, Note_on_c, 0, 62, 0
3, 678960, Note_on_c, 0, 82, 79
3, 678960, Note_on_c, 0, 86, 79
3, 678960, Note_on_c, 0, 58, 50
3, 679123, Note_on_c, 0, 58, 0
3, 679140, Note_on_c, 0, 62, 56
3, 679303, Note_on_c, 0, 62, 0
3, 679320, Note_on_c, 0, 68, 64
3, 679483, Note_on_c, 0, 68, 0
3, 679500, Note_on_c, 0, 65, 49
3, 679645, Note_on_c, 0, 86, 0
3, 679645, Note_on_c, 0, 82, 0
3, 679663, Note_on_c, 0, 65, 0
3, 679680, Note_on_c, 0, 86, 80
3, 679680, Note_on_c, 0, 94, 83
3, 679680, Note_on_c, 0, 98, 81
3, 679680, Note_on_c, 0, 62, 52
3, 679843, Note_on_c, 0, 62, 0
3, 679860, Note_on_c, 0, 65, 58
3, 680023, Note_on_c, 0, 65, 0
3, 680040, Note_on_c, 0, 62, 51
3, 680167, Note_on_c, 0, 98, 0
3, 680167, Note_on_c, 0, 94, 0
3, 680167, Note_on_c, 0, 86, 0
3, 680203, Note_on_c, 0, 62, 0
3, 680220, Note_on_c, 0, 84, 76
3, 680220, Note_on_c, 0, 92, 75
3, 680220, Note_on_c, 0, 96, 74
3, 680220, Note_on_c, 0, 58, 45
3, 680383, Note_on_c, 0, 58, 0
3, 680383, Note_on_c, 0, 92, 0
3, 680383, Note_on_c, 0, 96, 0
3, 680383, Note_on_c, 0, 84, 0
3, 680400, Note_on_c, 0, 86, 87
3, 680400, Note_on_c, 0, 94, 89
3, 680400, Note_on_c, 0, 98, 87
3, 680577, Note_on_c, 0, 98, 0
3, 680577, Note_on_c, 0, 94, 0
3, 680577, Note_on_c, 0, 86, 0
3, 680580, Note_on_c, 0, 62, 47
3, 680743, Note_on_c, 0, 62, 0
3, 680760, Note_on_c, 0, 58, 49
3, 680923, Note_on_c, 0, 58, 0
3, 680940, Note_on_c, 0, 62, 56
3, 681103, Note_on_c, 0, 62, 0
3, 681120, Note_on_c, 0, 86, 74
3, 681120, Note_on_c, 0, 94, 71
3, 681120, Note_on_c, 0, 98, 72
3, 681120, Note_on_c, 0, 58, 50
3, 681283, Note_on_c, 0, 58, 0
3, 681300, Note_on_c, 0, 62, 58
3, 681463, Note_on_c, 0, 62, 0
3, 681480, Note_on_c, 0, 68, 64
3, 681643, Note_on_c, 0, 68, 0
3, 681660, Note_on_c, 0, 65, 48
3, 681805, Note_on_c, 0, 94, 0
3, 681805, Note_on_c, 0, 98, 0
3, 681805, Note_on_c, 0, 86, 0
3, 681823, Note_on_c, 0, 65, 0
3, 681840, Note_on_c, 0, 82, 79
3, 681840, Note_on_c, 0, 86, 82
3, 681840, Note_on_c, 0, 62, 53
3, 682003, Note_on_c, 0, 62, 0
3, 682020, Note_on_c, 0, 65, 56
3, 682183, Note_on_c, 0, 65, 0
3, 682200, Note_on_c, 0, 62, 53
3, 682327, Note_on_c, 0, 86, 0
3, 682327, Note_on_c, 0, 82, 0
3, 682363, Note_on_c, 0, 62, 0
3, 682380, Note_on_c, 0, 84, 75
3, 682380, Note_on_c, 0, 65, 56
3, 682543, Note_on_c, 0, 65, 0
3, 682543, Note_on_c, 0, 84, 0
3, 682560, Note_on_c, 0, 83, 89
3, 682560, Note_on_c, 0, 86, 90
3, 682737, Note_on_c, 0, 86, 0
3, 682737, Note_on_c, 0, 83, 0
3, 682740, Note_on_c, 0, 62, 48
3, 682903, Note_on_c, 0, 62, 0
3, 682920, Note_on_c, 0, 59, 51
3, 683083, Note_on_c, 0, 59, 0
3, 683100, Note_on_c, 0, 62, 56
3, 683263, Note_on_c, 0, 62, 0
3, 683280, Note_on_c, 0, 83, 79
3, 683280, Note_on_c, 0, 86, 79
3, 683280, Note_on_c, 0, 59, 54
3, 683443, Note_on_c, 0, 59, 0
3, 683460, Note_on_c, 0, 62, 55
3, 683623, Note_on_c, 0, 62, 0
3, 683640, Note_on_c, 0, 67, 62
3, 683803, Note_on_c, 0, 67, 0
3, 683820, Note_on_c, 0, 65, 53
3, 683965, Note_on_c, 0, 86, 0
3, 683965, Note_on_c, 0, 83, 0
3, 683983, Note_on_c, 0, 65, 0
3, 684000, Note_on_c, 0, 71, 60
3, 684000, Note_on_c, 0, 74, 61
3, 684000, Note_on_c, 0, 62, 51
3, 684163, Note_on_c, 0, 62, 0
3, 684180, Note_on_c, 0, 65, 55
3, 684343, Note_on_c, 0, 65, 0
3, 684360, Note_on_c, 0, 62, 52
3, 684487, Note_on_c, 0, 74, 0
3, 684487, Note_on_c, 0, 71, 0
3, 684523, Note_on_c, 0, 62, 0
3, 684540, Note_on_c, 0, 69, 71
3, 684540, Note_on_c, 0, 72, 73
3, 684540, Note_on_c, 0, 55, 42
3, 684703, Note_on_c, 0, 55, 0
3, 684703, Note_on_c, 0, 72, 0
3, 684703, Note_on_c, 0, 69, 0
3, 684720, Note_on_c, 0, 71, 86
3, 684720, Note_on_c, 0, 74, 86
3, 684897, Note_on_c, 0, 74, 0
3, 684897, Note_on_c, 0, 71, 0
3, 684900, Note_on_c, 0, 62, 49
3, 685063, Note_on_c, 0, 62, 0
3, 685080, Note_on_c, 0, 59, 50
3, 685243, Note_on_c, 0, 59, 0
3, 685260, Note_on_c, 0, 62, 57
3, 685423, Note_on_c, 0, 62, 0
3, 685440, Note_on_c, 0, 71, 79
3, 685440, Note_on_c, 0, 74, 80
3, 685440, Note_on_c, 0, 59, 53
3, 685603, Note_on_c, 0, 59, 0
3, 685620, Note_on_c, 0, 62, 57
3, 685783, Note_on_c, 0, 62, 0
3, 685800, Note_on_c, 0, 67, 64
3, 685963, Note_on_c, 0, 67, 0
3, 685980, Note_on_c, 0, 65, 51
3, 686125, Note_on_c, 0, 74, 0
3, 686125, Note_on_c, 0, 71, 0
3, 686143, Note_on_c, 0, 65, 0
3, 686160, Note_on_c, 0, 74, 101
3, 686160, Note_on_c, 0, 83, 99
3, 686160, Note_on_c, 0, 86, 102
3, 686160, Note_on_c, 0, 62, 52
3, 686323, Note_on_c, 0, 62, 0
3, 686340, Note_on_c, 0, 65, 57
3, 686503, Note_on_c, 0, 65, 0
3, 686520, Note_on_c, 0, 62, 51
3, 686647, Note_on_c, 0, 86, 0
3, 686647, Note_on_c, 0, 83, 0
3, 686647, Note_on_c, 0, 74, 0
3, 686683, Note_on_c, 0, 62, 0
3, 686700, Note_on_c, 0, 72, 81
3, 686700, Note_on_c, 0, 84, 77
3, 686700, Note_on_c, 0, 55, 43
3, 686863, Note_on_c, 0, 55, 0
3, 686863, Note_on_c, 0, 84, 0
3, 686863, Note_on_c, 0, 72, 0
3, 686880, Note_on_c, 0, 74, 96
3, 686880, Note_on_c, 0, 79, 93
3, 686880, Note_on_c, 0, 84, 94
3, 686880, Note_on_c, 0, 86, 94
3, 686880, Note_on_c, 0, 62, 67
3, 686880, Note_on_c, 0, 67, 69
3, 687530, Note_on_c, 0, 67, 0
3, 687530, Note_on_c, 0, 62, 0
3, 687600, Note_on_c, 0, 74, 0
3, 687600, Note_on_c, 0, 79, 0
3, 687600, Note_on_c, 0, 84, 0
3, 687600, Note_on_c, 0, 86, 0
3, 687600, Note_on_c, 0, 77, 94
3, 687600, Note_on_c, 0, 79, 94
3, 687600, Note_on_c, 0, 84, 93
3, 687600, Note_on_c, 0, 89, 95
3, 687600, Note_on_c, 0, 65, 68
3, 687600, Note_on_c, 0, 67, 67
3, 687600, Note_on_c, 0, 72, 68
3, 688285, Note_on_c, 0, 72, 0
3, 688285, Note_on_c, 0, 67, 0
3, 688285, Note_on_c, 0, 89, 0
3, 688285, Note_on_c, 0, 77, 0
3, 688285, Note_on_c, 0, 79, 0
3, 688285, Note_on_c, 0, 84, 0
3, 688285, Note_on_c, 0, 65, 0
3, 688320, Note_on_c, 0, 75, 79
3, 688320, Note_on_c, 0, 79, 81
3, 688320, Note_on_c, 0, 84, 82
3, 688320, Note_on_c, 0, 87, 79
3, 688320, Note_on_c, 0, 63, 59
3, 688320, Note_on_c, 0, 67, 57
3, 688320, Note_on_c, 0, 72, 60
3, 689040, Note_on_c, 0, 72, 0
3, 689040, Note_on_c, 0, 67, 0
3, 689040, Note_on_c, 0, 87, 0
3, 689040, Note_on_c, 0, 75, 0
3, 689040, Note_on_c, 0, 79, 0
3, 689040, Note_on_c, 0, 84, 0
3, 689040, Note_on_c, 0, 63, 0
3, 689040, Note_on_c, 0, 78, 74
3, 689040, Note_on_c, 0, 82, 74
3, 689040, Note_on_c, 0, 74, 115
3, 689040, Note_on_c, 0, 86, 116
3, 689040, Note_on_c, 0, 66, 52
3, 689040, Note_on_c, 0, 70, 52
3, 689040, Note_on_c, 0, 62, 54
3, 689040, Note_on_c, 0, 62, 58
3, 689365, Note_on_c, 0, 62, 0
3, 689365, Note_on_c, 0, 74, 0
3, 689365, Note_on_c, 0, 62, 0
3, 689365, Note_on_c, 0, 86, 0
3, 689400, Note_on_c, 0, 72, 75
3, 689400, Note_on_c, 0, 84, 75
3, 689400, Note_on_c, 0, 60, 52
3, 689725, Note_on_c, 0, 60, 0
3, 689725, Note_on_c, 0, 84, 0
3, 689725, Note_on_c, 0, 72, 0
3, 689760, Note_on_c, 0, 70, 77
3, 689760, Note_on_c, 0, 82, 74
3, 689760, Note_on_c, 0, 58, 47
3, 690085, Note_on_c, 0, 58, 0
3, 690085, Note_on_c, 0, 70, 0
3, 690085, Note_on_c, 0, 82, 0
3, 690120, Note_on_c, 0, 72, 87
3, 690120, Note_on_c, 0, 84, 89
3, 690120, Note_on_c, 0, 60, 57
3, 690445, Note_on_c, 0, 60, 0
3, 690445, Note_on_c, 0, 84, 0
3, 690445, Note_on_c, 0, 72, 0
3, 690480, Note_on_c, 0, 70, 76
3, 690480, Note_on_c, 0, 82, 77
3, 690480, Note_on_c, 0, 58, 49
3, 690805, Note_on_c, 0, 58, 0
3, 690805, Note_on_c, 0, 82, 0
3, 690805, Note_on_c, 0, 70, 0
3, 690840, Note_on_c, 0, 72, 86
3, 690840, Note_on_c, 0, 84, 86
3, 690840, Note_on_c, 0, 60, 57
3, 691130, Note_on_c, 0, 70, 0
3, 691130, Note_on_c, 0, 78, 0
3, 691130, Note_on_c, 0, 66, 0
3, 691130, Note_on_c, 0, 82, 0
3, 691165, Note_on_c, 0, 84, 0
3, 691165, Note_on_c, 0, 60, 0
3, 691165, Note_on_c, 0, 72, 0
3, 691200, Note_on_c, 0, 74, 92
3, 691200, Note_on_c, 0, 79, 93
3, 691200, Note_on_c, 0, 83, 92
3, 691200, Note_on_c, 0, 86, 92
3, 691200, Note_on_c, 0, 62, 57
3, 691200, Note_on_c, 0, 67, 56
3, 691200, Note_on_c, 0, 71, 56
3, 691560, Note_on_c, 0, 59, 46
3, 691723, Note_on_c, 0, 59, 0
3, 691740, Note_on_c, 0, 62, 56
3, 691850, Note_on_c, 0, 86, 0
3, 691850, Note_on_c, 0, 83, 0
3, 691850, Note_on_c, 0, 79, 0
3, 691850, Note_on_c, 0, 74, 0
3, 691903, Note_on_c, 0, 62, 0
3, 691920, Note_on_c, 0, 79, 89
3, 691920, Note_on_c, 0, 83, 87
3, 691920, Note_on_c, 0, 86, 88
3, 691920, Note_on_c, 0, 67, 64
3, 692083, Note_on_c, 0, 67, 0
3, 692100, Note_on_c, 0, 62, 47
3, 692210, Note_on_c, 0, 67, 0
3, 692210, Note_on_c, 0, 62, 0
3, 692210, Note_on_c, 0, 71, 0
3, 692263, Note_on_c, 0, 62, 0
3, 692280, Note_on_c, 0, 71, 58
3, 692443, Note_on_c, 0, 71, 0
3, 692460, Note_on_c, 0, 67, 46
3, 692605, Note_on_c, 0, 83, 0
3, 692605, Note_on_c, 0, 79, 0
3, 692605, Note_on_c, 0, 86, 0
3, 692623, Note_on_c, 0, 67, 0
3, 692640, Note_on_c, 0, 79, 82
3, 692640, Note_on_c, 0, 83, 79
3, 692640, Note_on_c, 0, 86, 81
3, 692640, Note_on_c, 0, 62, 47
3, 692803, Note_on_c, 0, 62, 0
3, 692820, Note_on_c, 0, 67, 59
3, 692983, Note_on_c, 0, 67, 0
3, 693000, Note_on_c, 0, 62, 49
3, 693127, Note_on_c, 0, 86, 0
3, 693127, Note_on_c, 0, 83, 0
3, 693127, Note_on_c, 0, 79, 0
3, 693163, Note_on_c, 0, 62, 0
3, 693180, Note_on_c, 0, 79, 81
3, 693180, Note_on_c, 0, 83, 82
3, 693180, Note_on_c, 0, 86, 80
3, 693180, Note_on_c, 0, 59, 48
3, 693343, Note_on_c, 0, 59, 0
3, 693343, Note_on_c, 0, 83, 0
3, 693343, Note_on_c, 0, 86, 0
3, 693343, Note_on_c, 0, 79, 0
3, 693360, Note_on_c, 0, 79, 83
3, 693360, Note_on_c, 0, 83, 83
3, 693360, Note_on_c, 0, 86, 85
3, 693540, Note_on_c, 0, 62, 47
3, 693685, Note_on_c, 0, 86, 0
3, 693685, Note_on_c, 0, 83, 0
3, 693685, Note_on_c, 0, 79, 0
3, 693703, Note_on_c, 0, 62, 0
3, 693720, Note_on_c, 0, 59, 50
3, 693883, Note_on_c, 0, 59, 0
3, 693900, Note_on_c, 0, 62, 56
3, 694063, Note_on_c, 0, 62, 0
3, 694080, Note_on_c, 0, 79, 73
3, 694080, Note_on_c, 0, 83, 74
3, 694080, Note_on_c, 0, 86, 75
3, 694080, Note_on_c, 0, 67, 62
3, 694243, Note_on_c, 0, 67, 0
3, 694260, Note_on_c, 0, 62, 47
3, 694423, Note_on_c, 0, 62, 0
3, 694440, Note_on_c, 0, 71, 65
3, 694603, Note_on_c, 0, 71, 0
3, 694620, Note_on_c, 0, 67, 47
3, 694765, Note_on_c, 0, 83, 0
3, 694765, Note_on_c, 0, 86, 0
3, 694765, Note_on_c, 0, 79, 0
3, 694783, Note_on_c, 0, 67, 0
3, 694800, Note_on_c, 0, 79, 83
3, 694800, Note_on_c, 0, 83, 80
3, 694800, Note_on_c, 0, 86, 80
3, 694800, Note_on_c, 0, 62, 51
3, 694963, Note_on_c, 0, 62, 0
3, 694980, Note_on_c, 0, 67, 60
3, 695143, Note_on_c, 0, 67, 0
3, 695160, Note_on_c, 0, 62, 49
3, 695287, Note_on_c, 0, 86, 0
3, 695287, Note_on_c, 0, 83, 0
3, 695287, Note_on_c, 0, 79, 0
3, 695323, Note_on_c, 0, 62, 0
3, 695340, Note_on_c, 0, 79, 79
3, 695340, Note_on_c, 0, 83, 82
3, 695340, Note_on_c, 0, 86, 79
3, 695340, Note_on_c, 0, 59, 49
3, 695503, Note_on_c, 0, 59, 0
3, 695503, Note_on_c, 0, 83, 0
3, 695503, Note_on_c, 0, 86, 0
3, 695503, Note_on_c, 0, 79, 0
3, 695520, Note_on_c, 0, 79, 84
3, 695520, Note_on_c, 0, 83, 84
3, 695520, Note_on_c, 0, 86, 84
3, 695697, Note_on_c, 0, 86, 0
3, 695697, Note_on_c, 0, 83, 0
3, 695697, Note_on_c, 0, 79, 0
3, 695880, Note_on_c, 0, 83, 77
3, 695880, Note_on_c, 0, 71, 78
3, 696043, Note_on_c, 0, 71, 0
3, 696043, Note_on_c, 0, 83, 0
3, 696060, Note_on_c, 0, 81, 76
3, 696060, Note_on_c, 0, 69, 75
3, 696223, Note_on_c, 0, 69, 0
3, 696223, Note_on_c, 0, 81, 0
3, 696240, Note_on_c, 0, 79, 79
3, 696240, Note_on_c, 0, 67, 77
3, 696403, Note_on_c, 0, 67, 0
3, 696403, Note_on_c, 0, 79, 0
3, 696420, Note_on_c, 0, 78, 78
3, 696420, Note_on_c, 0, 66, 77
3, 696583, Note_on_c, 0, 66, 0
3, 696583, Note_on_c, 0, 78, 0
3, 696600, Note_on_c, 0, 79, 84
3, 696600, Note_on_c, 0, 67, 85
3, 696763, Note_on_c, 0, 67, 0
3, 696763, Note_on_c, 0, 79, 0
3, 696780, Note_on_c, 0, 78, 75
3, 696780, Note_on_c, 0, 66, 77
3, 696943, Note_on_c, 0, 66, 0
3, 696943, Note_on_c, 0, 78, 0
3, 696960, Note_on_c, 0, 76, 77
3, 696960, Note_on_c, 0, 64, 79
3, 697123, Note_on_c, 0, 64, 0
3, 697123, Note_on_c, 0, 76, 0
3, 697140, Note_on_c, 0, 74, 73
3, 697140, Note_on_c, 0, 62, 76
3, 697303, Note_on_c, 0, 62, 0
3, 697303, Note_on_c, 0, 74, 0
3, 697320, Note_on_c, 0, 76, 88
3, 697320, Note_on_c, 0, 64, 89
3, 697483, Note_on_c, 0, 64, 0
3, 697483, Note_on_c, 0, 76, 0
3, 697500, Note_on_c, 0, 74, 77
3, 697500, Note_on_c, 0, 62, 74
3, 697663, Note_on_c, 0, 62, 0
3, 697663, Note_on_c, 0, 74, 0
3, 697680, Note_on_c, 0, 71, 76
3, 697680, Note_on_c, 0, 59, 50
3, 697843, Note_on_c, 0, 59, 0
3, 697843, Note_on_c, 0, 71, 0
3, 697860, Note_on_c, 0, 74, 88
3, 697860, Note_on_c, 0, 62, 56
3, 698023, Note_on_c, 0, 62, 0
3, 698023, Note_on_c, 0, 74, 0
3, 698040, Note_on_c, 0, 71, 80
3, 698040, Note_on_c, 0, 59, 53
3, 698203, Note_on_c, 0, 59, 0
3, 698203, Note_on_c, 0, 71, 0
3, 698220, Note_on_c, 0, 69, 76
3, 698220, Note_on_c, 0, 57, 51
3, 698383, Note_on_c, 0, 57, 0
3, 698383, Note_on_c, 0, 69, 0
3, 698400, Note_on_c, 0, 67, 79
3, 698400, Note_on_c, 0, 55, 51
3, 698563, Note_on_c, 0, 55, 0
3, 698563, Note_on_c, 0, 67, 0
3, 698580, Note_on_c, 0, 71, 87
3, 698580, Note_on_c, 0, 59, 56
3, 698743, Note_on_c, 0, 59, 0
3, 698743, Note_on_c, 0, 71, 0
3, 698760, Note_on_c, 0, 67, 74
3, 698760, Note_on_c, 0, 55, 50
3, 698923, Note_on_c, 0, 55, 0
3, 698923, Note_on_c, 0, 67, 0
3, 698940, Note_on_c, 0, 66, 77
3, 698940, Note_on_c, 0, 54, 49
3, 699103, Note_on_c, 0, 54, 0
3, 699103, Note_on_c, 0, 66, 0
3, 699120, Note_on_c, 0, 64, 78
3, 699120, Note_on_c, 0, 52, 52
3, 699283, Note_on_c, 0, 52, 0
3, 699283, Note_on_c, 0, 64, 0
3, 699300, Note_on_c, 0, 67, 86
3, 699300, Note_on_c, 0, 55, 56
3, 699463, Note_on_c, 0, 55, 0
3, 699463, Note_on_c, 0, 67, 0
3, 699480, Note_on_c, 0, 64, 78
3, 699480, Note_on_c, 0, 52, 53
3, 699643, Note_on_c, 0, 52, 0
3, 699643, Note_on_c, 0, 64, 0
3, 699660, Note_on_c, 0, 62, 73
3, 699660, Note_on_c, 0, 50, 50
3, 699823, Note_on_c, 0, 50, 0
3, 699823, Note_on_c, 0, 62, 0
3, 699840, Note_on_c, 0, 31, 48
3, 699840, Note_on_c, 0, 43, 45
3, 700200, Note_on_c, 0, 59, 76
3, 700363, Note_on_c, 0, 59, 0
3, 700380, Note_on_c, 0, 61, 84
3, 700543, Note_on_c, 0, 61, 0
3, 700560, Note_on_c, 0, 62, 87
3, 700723, Note_on_c, 0, 62, 0
3, 700740, Note_on_c, 0, 63, 84
3, 700903, Note_on_c, 0, 63, 0
3, 700920, Note_on_c, 0, 64, 89
3, 701083, Note_on_c, 0, 64, 0
3, 701100, Note_on_c, 0, 59, 71
3, 701263, Note_on_c, 0, 59, 0
3, 701280, Note_on_c, 0, 61, 86
3, 701443, Note_on_c, 0, 61, 0
3, 701460, Note_on_c, 0, 63, 85
3, 701623, Note_on_c, 0, 63, 0
3, 701640, Note_on_c, 0, 64, 89
3, 701803, Note_on_c, 0, 64, 0
3, 701820, Note_on_c, 0, 66, 87
3, 701930, Note_on_c, 0, 43, 0
3, 701930, Note_on_c, 0, 31, 0
3, 701983, Note_on_c, 0, 66, 0
3, 702000, Note_on_c, 0, 67, 87
3, 702000, Note_on_c, 0, 31, 55
3, 702000, Note_on_c, 0, 43, 56
3, 702163, Note_on_c, 0, 67, 0
3, 702180, Note_on_c, 0, 62, 71
3, 702343, Note_on_c, 0, 62, 0
3, 702360, Note_on_c, 0, 64, 86
3, 702523, Note_on_c, 0, 64, 0
3, 702540, Note_on_c, 0, 66, 86
3, 702703, Note_on_c, 0, 66, 0
3, 702720, Note_on_c, 0, 67, 89
3, 702883, Note_on_c, 0, 67, 0
3, 702900, Note_on_c, 0, 69, 85
3, 703063, Note_on_c, 0, 69, 0
3, 703080, Note_on_c, 0, 71, 89
3, 703243, Note_on_c, 0, 71, 0
3, 703260, Note_on_c, 0, 69, 78
3, 703423, Note_on_c, 0, 69, 0
3, 703440, Note_on_c, 0, 67, 77
3, 703603, Note_on_c, 0, 67, 0
3, 703620, Note_on_c, 0, 66, 78
3, 703783, Note_on_c, 0, 66, 0
3, 703800, Note_on_c, 0, 67, 84
3, 703963, Note_on_c, 0, 67, 0
3, 703980, Note_on_c, 0, 69, 86
3, 704090, Note_on_c, 0, 43, 0
3, 704090, Note_on_c, 0, 31, 0
3, 704143, Note_on_c, 0, 69, 0
3, 704160, Note_on_c, 0, 71, 90
3, 704160, Note_on_c, 0, 43, 69
3, 704160, Note_on_c, 0, 55, 68
3, 704485, Note_on_c, 0, 55, 0
3, 704485, Note_on_c, 0, 43, 0
3, 704485, Note_on_c, 0, 71, 0
3, 704520, Note_on_c, 0, 71, 85
3, 704520, Note_on_c, 0, 61, 68
3, 704520, Note_on_c, 0, 64, 66
3, 704520, Note_on_c, 0, 67, 70
3, 704683, Note_on_c, 0, 71, 0
3, 704697, Note_on_c, 0, 64, 0
3, 704697, Note_on_c, 0, 67, 0
3, 704697, Note_on_c, 0, 61, 0
3, 704700, Note_on_c, 0, 73, 83
3, 704863, Note_on_c, 0, 73, 0
3, 704880, Note_on_c, 0, 74, 87
3, 704880, Note_on_c, 0, 64, 60
3, 704880, Note_on_c, 0, 67, 59
3, 704880, Note_on_c, 0, 71, 61
3, 705043, Note_on_c, 0, 74, 0
3, 705057, Note_on_c, 0, 67, 0
3, 705057, Note_on_c, 0, 71, 0
3, 705057, Note_on_c, 0, 64, 0
3, 705060, Note_on_c, 0, 75, 86
3, 705223, Note_on_c, 0, 75, 0
3, 705240, Note_on_c, 0, 76, 86
3, 705403, Note_on_c, 0, 76, 0
3, 705420, Note_on_c, 0, 71, 69
3, 705583, Note_on_c, 0, 71, 0
3, 705600, Note_on_c, 0, 73, 85
3, 705600, Note_on_c, 0, 61, 50
3, 705600, Note_on_c, 0, 64, 49
3, 705600, Note_on_c, 0, 67, 47
3, 705763, Note_on_c, 0, 73, 0
3, 705777, Note_on_c, 0, 64, 0
3, 705777, Note_on_c, 0, 67, 0
3, 705777, Note_on_c, 0, 61, 0
3, 705780, Note_on_c, 0, 75, 84
3, 705943, Note_on_c, 0, 75, 0
3, 705960, Note_on_c, 0, 76, 90
3, 705960, Note_on_c, 0, 64, 56
3, 705960, Note_on_c, 0, 67, 59
3, 705960, Note_on_c, 0, 71, 56
3, 706123, Note_on_c, 0, 76, 0
3, 706137, Note_on_c, 0, 67, 0
3, 706137, Note_on_c, 0, 71, 0
3, 706137, Note_on_c, 0, 64, 0
3, 706140, Note_on_c, 0, 78, 85
3, 706303, Note_on_c, 0, 78, 0
3, 706320, Note_on_c, 0, 79, 89
3, 706483, Note_on_c, 0, 79, 0
3, 706500, Note_on_c, 0, 78, 80
3, 706663, Note_on_c, 0, 78, 0
3, 706680, Note_on_c, 0, 76, 78
3, 706680, Note_on_c, 0, 59, 46
3, 706680, Note_on_c, 0, 62, 49
3, 706680, Note_on_c, 0, 67, 46
3, 706843, Note_on_c, 0, 76, 0
3, 706857, Note_on_c, 0, 62, 0
3, 706857, Note_on_c, 0, 67, 0
3, 706857, Note_on_c, 0, 59, 0
3, 706860, Note_on_c, 0, 78, 85
3, 707023, Note_on_c, 0, 78, 0
3, 707040, Note_on_c, 0, 79, 88
3, 707040, Note_on_c, 0, 59, 58
3, 707040, Note_on_c, 0, 67, 57
3, 707040, Note_on_c, 0, 71, 56
3, 707203, Note_on_c, 0, 79, 0
3, 707217, Note_on_c, 0, 67, 0
3, 707217, Note_on_c, 0, 71, 0
3, 707217, Note_on_c, 0, 59, 0
3, 707220, Note_on_c, 0, 81, 87
3, 707383, Note_on_c, 0, 81, 0
3, 707400, Note_on_c, 0, 83, 90
3, 707563, Note_on_c, 0, 83, 0
3, 707580, Note_on_c, 0, 78, 69
3, 707743, Note_on_c, 0, 78, 0
3, 707760, Note_on_c, 0, 79, 84
3, 707760, Note_on_c, 0, 59, 46
3, 707760, Note_on_c, 0, 62, 47
3, 707760, Note_on_c, 0, 67, 47
3, 707923, Note_on_c, 0, 79, 0
3, 707937, Note_on_c, 0, 62, 0
3, 707937, Note_on_c, 0, 67, 0
3, 707937, Note_on_c, 0, 59, 0
3, 707940, Note_on_c, 0, 81, 85
3, 708103, Note_on_c, 0, 81, 0
3, 708120, Note_on_c, 0, 83, 90
3, 708120, Note_on_c, 0, 59, 51
3, 708120, Note_on_c, 0, 62, 52
3, 708120, Note_on_c, 0, 67, 53
3, 708283, Note_on_c, 0, 83, 0
3, 708297, Note_on_c, 0, 62, 0
3, 708297, Note_on_c, 0, 67, 0
3, 708297, Note_on_c, 0, 59, 0
3, 708300, Note_on_c, 0, 86, 89
3, 708463, Note_on_c, 0, 86, 0
3, 708480, Note_on_c, 0, 81, 98
3, 708480, Note_on_c, 0, 85, 96
3, 708480, Note_on_c, 0, 91, 97
3, 708480, Note_on_c, 0, 93, 99
3, 708480, Note_on_c, 0, 57, 60
3, 708480, Note_on_c, 0, 61, 60
3, 708480, Note_on_c, 0, 67, 58
3, 708480, Note_on_c, 0, 69, 58
3, 709490, Note_on_c, 0, 69, 0
3, 709490, Note_on_c, 0, 91, 0
3, 709490, Note_on_c, 0, 67, 0
3, 709490, Note_on_c, 0, 93, 0
3, 709490, Note_on_c, 0, 81, 0
3, 709490, Note_on_c, 0, 85, 0
3, 709490, Note_on_c, 0, 61, 0
3, 709490, Note_on_c, 0, 57, 0
3, 709560, Note_on_c, 0, 79, 81
3, 709560, Note_on_c, 0, 81, 80
3, 709560, Note_on_c, 0, 85, 83
3, 709560, Note_on_c, 0, 91, 82
3, 709560, Note_on_c, 0, 55, 53
3, 709560, Note_on_c, 0, 57, 55
3, 709560, Note_on_c, 0, 61, 52
3, 709560, Note_on_c, 0, 67, 54
3, 710210, Note_on_c, 0, 67, 0
3, 710210, Note_on_c, 0, 85, 0
3, 710210, Note_on_c, 0, 61, 0
3, 710210, Note_on_c, 0, 91, 0
3, 710210, Note_on_c, 0, 79, 0
3, 710210, Note_on_c, 0, 81, 0
3, 710210, Note_on_c, 0, 57, 0
3, 710210, Note_on_c, 0, 55, 0
3, 710280, Note_on_c, 0, 76, 74
3, 710280, Note_on_c, 0, 88, 74
3, 710280, Note_on_c, 0, 64, 47
3, 710605, Note_on_c, 0, 64, 0
3, 710605, Note_on_c, 0, 88, 0
3, 710605, Note_on_c, 0, 76, 0
3, 710640, Note_on_c, 0, 73, 76
3, 710640, Note_on_c, 0, 79, 77
3, 710640, Note_on_c, 0, 83, 75
3, 710640, Note_on_c, 0, 85, 76
3, 710640, Note_on_c, 0, 50, 62
3, 710640, Note_on_c, 0, 55, 60
3, 710640, Note_on_c, 0, 59, 62
3, 710640, Note_on_c, 0, 64, 60
3, 711290, Note_on_c, 0, 85, 0
3, 711290, Note_on_c, 0, 83, 0
3, 711290, Note_on_c, 0, 79, 0
3, 711290, Note_on_c, 0, 73, 0
3, 711360, Note_on_c, 0, 50, 0
3, 711360, Note_on_c, 0, 59, 0
3, 711360, Note_on_c, 0, 64, 0
3, 711360, Note_on_c, 0, 55, 0
3, 711360, Note_on_c, 0, 76, 92
3, 711360, Note_on_c, 0, 79, 93
3, 711360, Note_on_c, 0, 83, 92
3, 711360, Note_on_c, 0, 88, 93
3, 711360, Note_on_c, 0, 50, 52
3, 711360, Note_on_c, 0, 55, 55
3, 711360, Note_on_c, 0, 59, 54
3, 711360, Note_on_c, 0, 61, 55
3, 712045, Note_on_c, 0, 61, 0
3, 712045, Note_on_c, 0, 83, 0
3, 712045, Note_on_c, 0, 59, 0
3, 712045, Note_on_c, 0, 88, 0
3, 712045, Note_on_c, 0, 76, 0
3, 712045, Note_on_c, 0, 79, 0
3, 712045, Note_on_c, 0, 55, 0
3, 712045, Note_on_c, 0, 50, 0
3, 712080, Note_on_c, 0, 74, 79
3, 712080, Note_on_c, 0, 79, 80
3, 712080, Note_on_c, 0, 83, 82
3, 712080, Note_on_c, 0, 86, 80
3, 712080, Note_on_c, 0, 50, 61
3, 712080, Note_on_c, 0, 55, 60
3, 712080, Note_on_c, 0, 59, 61
3, 712080, Note_on_c, 0, 62, 63
3, 712800, Note_on_c, 0, 62, 0
3, 712800, Note_on_c, 0, 83, 0
3, 712800, Note_on_c, 0, 59, 0
3, 712800, Note_on_c, 0, 86, 0
3, 712800, Note_on_c, 0, 74, 0
3, 712800, Note_on_c, 0, 79, 0
3, 712800, Note_on_c, 0, 55, 0
3, 712800, Note_on_c, 0, 50, 0
3, 712800, Note_on_c, 0, 71, 98
3, 712800, Note_on_c, 0, 76, 101
3, 712800, Note_on_c, 0, 79, 98
3, 712800, Note_on_c, 0, 83, 100
3, 712800, Note_on_c, 0, 50, 86
3, 712800, Note_on_c, 0, 55, 86
3, 712800, Note_on_c, 0, 60, 88
3, 712800, Note_on_c, 0, 64, 86
3, 713810, Note_on_c, 0, 64, 0
3, 713810, Note_on_c, 0, 79, 0
3, 713810, Note_on_c, 0, 60, 0
3, 713810, Note_on_c, 0, 83, 0
3, 713810, Note_on_c, 0, 71, 0
3, 713810, Note_on_c, 0, 76, 0
3, 713810, Note_on_c, 0, 55, 0
3, 713810, Note_on_c, 0, 50, 0
3, 713880, Note_on_c, 0, 69, 85
3, 713880, Note_on_c, 0, 81, 82
3, 713880, Note_on_c, 0, 72, 105
3, 713880, Note_on_c, 0, 76, 105
3, 713880, Note_on_c, 0, 50, 56
3, 713880, Note_on_c, 0, 55, 55
3, 713880, Note_on_c, 0, 60, 57
3, 714600, Note_on_c, 0, 81, 0
3, 714600, Note_on_c, 0, 69, 0
3, 714600, Note_on_c, 0, 67, 73
3, 714600, Note_on_c, 0, 79, 73
3, 714890, Note_on_c, 0, 76, 0
3, 714890, Note_on_c, 0, 72, 0
3, 714925, Note_on_c, 0, 79, 0
3, 714925, Note_on_c, 0, 67, 0
3, 714960, Note_on_c, 0, 55, 0
3, 714960, Note_on_c, 0, 60, 0
3, 714960, Note_on_c, 0, 50, 0
3, 714960, Note_on_c, 0, 64, 75
3, 714960, Note_on_c, 0, 67, 78
3, 714960, Note_on_c, 0, 72, 75
3, 714960, Note_on_c, 0, 76, 75
3, 714960, Note_on_c, 0, 50, 57
3, 714960, Note_on_c, 0, 57, 56
3, 714960, Note_on_c, 0, 60, 53
3, 715610, Note_on_c, 0, 60, 0
3, 715610, Note_on_c, 0, 57, 0
3, 715610, Note_on_c, 0, 76, 0
3, 715610, Note_on_c, 0, 64, 0
3, 715610, Note_on_c, 0, 67, 0
3, 715610, Note_on_c, 0, 72, 0
3, 715610, Note_on_c, 0, 50, 0
3, 715680, Note_on_c, 0, 63, 75
3, 715680, Note_on_c, 0, 67, 76
3, 715680, Note_on_c, 0, 72, 74
3, 715680, Note_on_c, 0, 75, 75
3, 715680, Note_on_c, 0, 38, 42
3, 715680, Note_on_c, 0, 50, 40
3, 716365, Note_on_c, 0, 50, 0
3, 716365, Note_on_c, 0, 75, 0
3, 716365, Note_on_c, 0, 63, 0
3, 716365, Note_on_c, 0, 67, 0
3, 716365, Note_on_c, 0, 72, 0
3, 716365, Note_on_c, 0, 38, 0
3, 716400, Note_on_c, 0, 62, 77
3, 716400, Note_on_c, 0, 66, 75
3, 716400, Note_on_c, 0, 72, 75
3, 716400, Note_on_c, 0, 74, 78
3, 716400, Note_on_c, 0, 50, 62
3, 716400, Note_on_c, 0, 57, 65
3, 716400, Note_on_c, 0, 60, 64
3, 717050, Note_on_c, 0, 60, 0
3, 717050, Note_on_c, 0, 57, 0
3, 717050, Note_on_c, 0, 74, 0
3, 717050, Note_on_c, 0, 62, 0
3, 717050, Note_on_c, 0, 66, 0
3, 717050, Note_on_c, 0, 72, 0
3, 717050, Note_on_c, 0, 50, 0
3, 717120, Note_on_c, 0, 83, 101
3, 717283, Note_on_c, 0, 83, 0
3, 717300, Note_on_c, 0, 79, 74
3, 717463, Note_on_c, 0, 79, 0
3, 717480, Note_on_c, 0, 81, 87
3, 717480, Note_on_c, 0, 59, 46
3, 717480, Note_on_c, 0, 62, 47
3, 717480, Note_on_c, 0, 71, 48
3, 717643, Note_on_c, 0, 81, 0
3, 717657, Note_on_c, 0, 62, 0
3, 717657, Note_on_c, 0, 71, 0
3, 717657, Note_on_c, 0, 59, 0
3, 717660, Note_on_c, 0, 79, 78
3, 717823, Note_on_c, 0, 79, 0
3, 717840, Note_on_c, 0, 83, 90
3, 717840, Note_on_c, 0, 59, 54
3, 717840, Note_on_c, 0, 62, 51
3, 717840, Note_on_c, 0, 71, 52
3, 718003, Note_on_c, 0, 83, 0
3, 718017, Note_on_c, 0, 62, 0
3, 718017, Note_on_c, 0, 71, 0
3, 718017, Note_on_c, 0, 59, 0
3, 718020, Note_on_c, 0, 79, 72
3, 718183, Note_on_c, 0, 79, 0
3, 718200, Note_on_c, 0, 81, 89
3, 718363, Note_on_c, 0, 81, 0
3, 718380, Note_on_c, 0, 79, 77
3, 718543, Note_on_c, 0, 79, 0
3, 718560, Note_on_c, 0, 83, 92
3, 718560, Note_on_c, 0, 59, 48
3, 718560, Note_on_c, 0, 62, 47
3, 718560, Note_on_c, 0, 71, 48
3, 718723, Note_on_c, 0, 83, 0
3, 718737, Note_on_c, 0, 62, 0
3, 718737, Note_on_c, 0, 71, 0
3, 718737, Note_on_c, 0, 59, 0
3, 718740, Note_on_c, 0, 79, 72
3, 718903, Note_on_c, 0, 79, 0
3, 718920, Note_on_c, 0, 81, 86
3, 718920, Note_on_c, 0, 59, 52
3, 718920, Note_on_c, 0, 62, 51
3, 718920, Note_on_c, 0, 71, 50
3, 719083, Note_on_c, 0, 81, 0
3, 719097, Note_on_c, 0, 62, 0
3, 719097, Note_on_c, 0, 71, 0
3, 719097, Note_on_c, 0, 59, 0
3, 719100, Note_on_c, 0, 79, 75
3, 719263, Note_on_c, 0, 79, 0
3, 719280, Note_on_c, 0, 83, 90
3, 719443, Note_on_c, 0, 83, 0
3, 719460, Note_on_c, 0, 79, 74
3, 719623, Note_on_c, 0, 79, 0
3, 719640, Note_on_c, 0, 81, 87
3, 719640, Note_on_c, 0, 59, 49
3, 719640, Note_on_c, 0, 64, 49
3, 719640, Note_on_c, 0, 71, 49
3, 719803, Note_on_c, 0, 81, 0
3, 719817, Note_on_c, 0, 64, 0
3, 719817, Note_on_c, 0, 71, 0
3, 719817, Note_on_c, 0, 59, 0
3, 719820, Note_on_c, 0, 79, 75
3, 719983, Note_on_c, 0, 79, 0
3, 720000, Note_on_c, 0, 83, 91
3, 720000, Note_on_c, 0, 59, 52
3, 720000, Note_on_c, 0, 64, 52
3, 720000, Note_on_c, 0, 71, 52
3, 720163, Note_on_c, 0, 83, 0
3, 720177, Note_on_c, 0, 64, 0
3, 720177, Note_on_c, 0, 71, 0
3, 720177, Note_on_c, 0, 59, 0
3, 720180, Note_on_c, 0, 81, 79
3, 720343, Note_on_c, 0, 81, 0
3, 720360, Note_on_c, 0, 83, 89
3, 720523, Note_on_c, 0, 83, 0
3, 720540, Note_on_c, 0, 91, 96
3, 720703, Note_on_c, 0, 91, 0
3, 720720, Note_on_c, 0, 95, 94
3, 720720, Note_on_c, 0, 59, 47
3, 720720, Note_on_c, 0, 64, 46
3, 720720, Note_on_c, 0, 71, 48
3, 720883, Note_on_c, 0, 95, 0
3, 720897, Note_on_c, 0, 64, 0
3, 720897, Note_on_c, 0, 71, 0
3, 720897, Note_on_c, 0, 59, 0
3, 720900, Note_on_c, 0, 91, 72
3, 721063, Note_on_c, 0, 91, 0
3, 721080, Note_on_c, 0, 83, 66
3, 721080, Note_on_c, 0, 59, 54
3, 721080, Note_on_c, 0, 64, 52
3, 721080, Note_on_c, 0, 71, 51
3, 721243, Note_on_c, 0, 83, 0
3, 721257, Note_on_c, 0, 64, 0
3, 721257, Note_on_c, 0, 71, 0
3, 721257, Note_on_c, 0, 59, 0
3, 721260, Note_on_c, 0, 93, 96
3, 721423, Note_on_c, 0, 93, 0
3, 721440, Note_on_c, 0, 95, 92
3, 721765, Note_on_c, 0, 95, 0
3, 721800, Note_on_c, 0, 81, 64
3, 721800, Note_on_c, 0, 59, 46
3, 721800, Note_on_c, 0, 65, 47
3, 721800, Note_on_c, 0, 71, 48
3, 721963, Note_on_c, 0, 81, 0
3, 721977, Note_on_c, 0, 65, 0
3, 721977, Note_on_c, 0, 71, 0
3, 721977, Note_on_c, 0, 59, 0
3, 721980, Note_on_c, 0, 79, 74
3, 722143, Note_on_c, 0, 79, 0
3, 722160, Note_on_c, 0, 83, 91
3, 722160, Note_on_c, 0, 59, 54
3, 722160, Note_on_c, 0, 65, 52
3, 722160, Note_on_c, 0, 71, 51
3, 722323, Note_on_c, 0, 83, 0
3, 722337, Note_on_c, 0, 65, 0
3, 722337, Note_on_c, 0, 71, 0
3, 722337, Note_on_c, 0, 59, 0
3, 722340, Note_on_c, 0, 79, 72
3, 722503, Note_on_c, 0, 79, 0
3, 722520, Note_on_c, 0, 81, 87
3, 722683, Note_on_c, 0, 81, 0
3, 722700, Note_on_c, 0, 79, 78
3, 722863, Note_on_c, 0, 79, 0
3, 722880, Note_on_c, 0, 83, 92
3, 722880, Note_on_c, 0, 59, 47
3, 722880, Note_on_c, 0, 65, 47
3, 722880, Note_on_c, 0, 71, 48
3, 723043, Note_on_c, 0, 83, 0
3, 723057, Note_on_c, 0, 65, 0
3, 723057, Note_on_c, 0, 71, 0
3, 723057, Note_on_c, 0, 59, 0
3, 723060, Note_on_c, 0, 79, 74
3, 723223, Note_on_c, 0, 79, 0
3, 723240, Note_on_c, 0, 81, 87
3, 723240, Note_on_c, 0, 59, 54
3, 723240, Note_on_c, 0, 65, 53
3, 723240, Note_on_c, 0, 71, 51
3, 723403, Note_on_c, 0, 81, 0
3, 723417, Note_on_c, 0, 65, 0
3, 723417, Note_on_c, 0, 71, 0
3, 723417, Note_on_c, 0, 59, 0
3, 723420, Note_on_c, 0, 79, 78
3, 723583, Note_on_c, 0, 79, 0
3, 723600, Note_on_c, 0, 82, 89
3, 723763, Note_on_c, 0, 82, 0
3, 723780, Note_on_c, 0, 79, 73
3, 723943, Note_on_c, 0, 79, 0
3, 723960, Note_on_c, 0, 81, 86
3, 723960, Note_on_c, 0, 58, 49
3, 723960, Note_on_c, 0, 64, 49
3, 723960, Note_on_c, 0, 70, 49
3, 724123, Note_on_c, 0, 81, 0
3, 724137, Note_on_c, 0, 64, 0
3, 724137, Note_on_c, 0, 70, 0
3, 724137, Note_on_c, 0, 58, 0
3, 724140, Note_on_c, 0, 79, 78
3, 724303, Note_on_c, 0, 79, 0
3, 724320, Note_on_c, 0, 82, 88
3, 724320, Note_on_c, 0, 58, 53
3, 724320, Note_on_c, 0, 64, 52
3, 724320, Note_on_c, 0, 70, 51
3, 724483, Note_on_c, 0, 82, 0
3, 724497, Note_on_c, 0, 64, 0
3, 724497, Note_on_c, 0, 70, 0
3, 724497, Note_on_c, 0, 58, 0
3, 724500, Note_on_c, 0, 79, 76
3, 724663, Note_on_c, 0, 79, 0
3, 724680, Note_on_c, 0, 82, 89
3, 724843, Note_on_c, 0, 82, 0
3, 724860, Note_on_c, 0, 90, 95
3, 725023, Note_on_c, 0, 90, 0
3, 725040, Note_on_c, 0, 91, 89
3, 725040, Note_on_c, 0, 58, 48
3, 725040, Note_on_c, 0, 64, 47
3, 725040, Note_on_c, 0, 70, 49
3, 725203, Note_on_c, 0, 91, 0
3, 725217, Note_on_c, 0, 64, 0
3, 725217, Note_on_c, 0, 70, 0
3, 725217, Note_on_c, 0, 58, 0
3, 725220, Note_on_c, 0, 82, 66
3, 725383, Note_on_c, 0, 82, 0
3, 725400, Note_on_c, 0, 79, 73
3, 725400, Note_on_c, 0, 58, 52
3, 725400, Note_on_c, 0, 64, 53
3, 725400, Note_on_c, 0, 70, 52
3, 725563, Note_on_c, 0, 79, 0
3, 725577, Note_on_c, 0, 64, 0
3, 725577, Note_on_c, 0, 70, 0
3, 725577, Note_on_c, 0, 58, 0
3, 725580, Note_on_c, 0, 90, 97
3, 725743, Note_on_c, 0, 90, 0
3, 725760, Note_on_c, 0, 91, 90
3, 726085, Note_on_c, 0, 91, 0
3, 726120, Note_on_c, 0, 78, 66
3, 726120, Note_on_c, 0, 60, 49
3, 726120, Note_on_c, 0, 64, 47
3, 726120, Note_on_c, 0, 67, 50
3, 726283, Note_on_c, 0, 78, 0
3, 726297, Note_on_c, 0, 64, 0
3, 726297, Note_on_c, 0, 67, 0
3, 726297, Note_on_c, 0, 60, 0
3, 726300, Note_on_c, 0, 76, 74
3, 726463, Note_on_c, 0, 76, 0
3, 726480, Note_on_c, 0, 79, 89
3, 726480, Note_on_c, 0, 60, 52
3, 726480, Note_on_c, 0, 64, 50
3, 726480, Note_on_c, 0, 67, 53
3, 726643, Note_on_c, 0, 79, 0
3, 726657, Note_on_c, 0, 64, 0
3, 726657, Note_on_c, 0, 67, 0
3, 726657, Note_on_c, 0, 60, 0
3, 726660, Note_on_c, 0, 76, 76
3, 726823, Note_on_c, 0, 76, 0
3, 726840, Note_on_c, 0, 78, 88
3, 727003, Note_on_c, 0, 78, 0
3, 727020, Note_on_c, 0, 76, 75
3, 727183, Note_on_c, 0, 76, 0
3, 727200, Note_on_c, 0, 79, 91
3, 727200, Note_on_c, 0, 60, 47
3, 727200, Note_on_c, 0, 64, 47
3, 727200, Note_on_c, 0, 67, 49
3, 727363, Note_on_c, 0, 79, 0
3, 727377, Note_on_c, 0, 64, 0
3, 727377, Note_on_c, 0, 67, 0
3, 727377, Note_on_c, 0, 60, 0
3, 727380, Note_on_c, 0, 76, 73
3, 727543, Note_on_c, 0, 76, 0
3, 727560, Note_on_c, 0, 78, 87
3, 727560, Note_on_c, 0, 60, 52
3, 727560, Note_on_c, 0, 64, 50
3, 727560, Note_on_c, 0, 67, 52
3, 727723, Note_on_c, 0, 78, 0
3, 727737, Note_on_c, 0, 64, 0
3, 727737, Note_on_c, 0, 67, 0
3, 727737, Note_on_c, 0, 60, 0
3, 727740, Note_on_c, 0, 76, 76
3, 727903, Note_on_c, 0, 76, 0
3, 727920, Note_on_c, 0, 79, 87
3, 728083, Note_on_c, 0, 79, 0
3, 728100, Note_on_c, 0, 76, 76
3, 728263, Note_on_c, 0, 76, 0
3, 728280, Note_on_c, 0, 73, 75
3, 728280, Note_on_c, 0, 61, 48
3, 728280, Note_on_c, 0, 64, 49
3, 728280, Note_on_c, 0, 69, 46
3, 728443, Note_on_c, 0, 73, 0
3, 728457, Note_on_c, 0, 64, 0
3, 728457, Note_on_c, 0, 69, 0
3, 728457, Note_on_c, 0, 61, 0
3, 728460, Note_on_c, 0, 75, 83
3, 728623, Note_on_c, 0, 75, 0
3, 728640, Note_on_c, 0, 76, 87
3, 728640, Note_on_c, 0, 61, 53
3, 728640, Note_on_c, 0, 64, 54
3, 728640, Note_on_c, 0, 69, 54
3, 728803, Note_on_c, 0, 76, 0
3, 728817, Note_on_c, 0, 64, 0
3, 728817, Note_on_c, 0, 69, 0
3, 728817, Note_on_c, 0, 61, 0
3, 728820, Note_on_c, 0, 78, 86
3, 728983, Note_on_c, 0, 78, 0
3, 729000, Note_on_c, 0, 79, 88
3, 729163, Note_on_c, 0, 79, 0
3, 729180, Note_on_c, 0, 78, 79
3, 729343, Note_on_c, 0, 78, 0
3, 729360, Note_on_c, 0, 79, 89
3, 729360, Note_on_c, 0, 61, 47
3, 729360, Note_on_c, 0, 64, 50
3, 729360, Note_on_c, 0, 69, 48
3, 729523, Note_on_c, 0, 79, 0
3, 729537, Note_on_c, 0, 64, 0
3, 729537, Note_on_c, 0, 69, 0
3, 729537, Note_on_c, 0, 61, 0
3, 729540, Note_on_c, 0, 81, 85
3, 729703, Note_on_c, 0, 81, 0
3, 729720, Note_on_c, 0, 85, 93
3, 729720, Note_on_c, 0, 61, 54
3, 729720, Note_on_c, 0, 64, 54
3, 729720, Note_on_c, 0, 69, 54
3, 729883, Note_on_c, 0, 85, 0
3, 729897, Note_on_c, 0, 64, 0
3, 729897, Note_on_c, 0, 69, 0
3, 729897, Note_on_c, 0, 61, 0
3, 729900, Note_on_c, 0, 88, 87
3, 730063, Note_on_c, 0, 88, 0
3, 730080, Note_on_c, 0, 78, 66
3, 730243, Note_on_c, 0, 78, 0
3, 730260, Note_on_c, 0, 75, 72
3, 730423, Note_on_c, 0, 75, 0
3, 730440, Note_on_c, 0, 72, 77
3, 730440, Note_on_c, 0, 60, 46
3, 730440, Note_on_c, 0, 63, 48
3, 730440, Note_on_c, 0, 68, 50
3, 730603, Note_on_c, 0, 72, 0
3, 730617, Note_on_c, 0, 63, 0
3, 730617, Note_on_c, 0, 68, 0
3, 730617, Note_on_c, 0, 60, 0
3, 730620, Note_on_c, 0, 74, 85
3, 730783, Note_on_c, 0, 74, 0
3, 730800, Note_on_c, 0, 75, 87
3, 730800, Note_on_c, 0, 60, 52
3, 730800, Note_on_c, 0, 63, 54
3, 730800, Note_on_c, 0, 68, 54
3, 730963, Note_on_c, 0, 75, 0
3, 730977, Note_on_c, 0, 63, 0
3, 730977, Note_on_c, 0, 68, 0
3, 730977, Note_on_c, 0, 60, 0
3, 730980, Note_on_c, 0, 77, 86
3, 731143, Note_on_c, 0, 77, 0
3, 731160, Note_on_c, 0, 78, 89
3, 731323, Note_on_c, 0, 78, 0
3, 731340, Note_on_c, 0, 77, 78
3, 731503, Note_on_c, 0, 77, 0
3, 731520, Note_on_c, 0, 78, 88
3, 731520, Note_on_c, 0, 60, 49
3, 731520, Note_on_c, 0, 63, 50
3, 731520, Note_on_c, 0, 68, 49
3, 731683, Note_on_c, 0, 78, 0
3, 731697, Note_on_c, 0, 63, 0
3, 731697, Note_on_c, 0, 68, 0
3, 731697, Note_on_c, 0, 60, 0
3, 731700, Note_on_c, 0, 80, 87
3, 731863, Note_on_c, 0, 80, 0
3, 731880, Note_on_c, 0, 84, 93
3, 731880, Note_on_c, 0, 60, 51
3, 731880, Note_on_c, 0, 63, 54
3, 731880, Note_on_c, 0, 68, 51
3, 732043, Note_on_c, 0, 84, 0
3, 732057, Note_on_c, 0, 63, 0
3, 732057, Note_on_c, 0, 68, 0
3, 732057, Note_on_c, 0, 60, 0
3, 732060, Note_on_c, 0, 87, 88
3, 732223, Note_on_c, 0, 87, 0
3, 732240, Note_on_c, 0, 79, 72
3, 732240, Note_on_c, 0, 59, 52
3, 732240, Note_on_c, 0, 62, 54
3, 732240, Note_on_c, 0, 67, 53
3, 732565, Note_on_c, 0, 67, 0
3, 732565, Note_on_c, 0, 59, 0
3, 732565, Note_on_c, 0, 62, 0
3, 732565, Note_on_c, 0, 79, 0
3, 732600, Note_on_c, 0, 43, 39
3, 732925, Note_on_c, 0, 43, 0
3, 732960, Note_on_c, 0, 50, 58
3, 733285, Note_on_c, 0, 50, 0
3, 733320, Note_on_c, 0, 59, 68
3, 733645, Note_on_c, 0, 59, 0
3, 733680, Note_on_c, 0, 50, 43
3, 734005, Note_on_c, 0, 50, 0
3, 734040, Note_on_c, 0, 50, 52
3, 734365, Note_on_c, 0, 50, 0
3, 734400, Note_on_c, 0, 67, 74
3, 734400, Note_on_c, 0, 71, 75
3, 734400, Note_on_c, 0, 75, 77
3, 734400, Note_on_c, 0, 79, 76
3, 734400, Note_on_c, 0, 43, 47
3, 734725, Note_on_c, 0, 43, 0
3, 734760, Note_on_c, 0, 51, 59
3, 735050, Note_on_c, 0, 67, 0
3, 735050, Note_on_c, 0, 75, 0
3, 735050, Note_on_c, 0, 71, 0
3, 735050, Note_on_c, 0, 79, 0
3, 735085, Note_on_c, 0, 51, 0
3, 735120, Note_on_c, 0, 66, 76
3, 735120, Note_on_c, 0, 71, 74
3, 735120, Note_on_c, 0, 75, 74
3, 735120, Note_on_c, 0, 78, 76
3, 735120, Note_on_c, 0, 51, 54
3, 735445, Note_on_c, 0, 51, 0
3, 735480, Note_on_c, 0, 59, 63
3, 735805, Note_on_c, 0, 59, 0
3, 735805, Note_on_c, 0, 78, 0
3, 735805, Note_on_c, 0, 71, 0
3, 735805, Note_on_c, 0, 75, 0
3, 735805, Note_on_c, 0, 66, 0
3, 735840, Note_on_c, 0, 67, 84
3, 735840, Note_on_c, 0, 71, 85
3, 735840, Note_on_c, 0, 75, 83
3, 735840, Note_on_c, 0, 79, 85
3, 735840, Note_on_c, 0, 51, 45
3, 736165, Note_on_c, 0, 51, 0
3, 736200, Note_on_c, 0, 51, 52
3, 736490, Note_on_c, 0, 67, 0
3, 736490, Note_on_c, 0, 75, 0
3, 736490, Note_on_c, 0, 71, 0
3, 736490, Note_on_c, 0, 79, 0
3, 736525, Note_on_c, 0, 51, 0
3, 736560, Note_on_c, 0, 67, 83
3, 736560, Note_on_c, 0, 71, 84
3, 736560, Note_on_c, 0, 76, 82
3, 736560, Note_on_c, 0, 79, 83
3, 736560, Note_on_c, 0, 43, 47
3, 736885, Note_on_c, 0, 43, 0
3, 736920, Note_on_c, 0, 52, 60
3, 737245, Note_on_c, 0, 52, 0
3, 737280, Note_on_c, 0, 52, 53
3, 737605, Note_on_c, 0, 52, 0
3, 737640, Note_on_c, 0, 59, 63
3, 737965, Note_on_c, 0, 59, 0
3, 738000, Note_on_c, 0, 52, 45
3, 738325, Note_on_c, 0, 52, 0
3, 738360, Note_on_c, 0, 52, 50
3, 738685, Note_on_c, 0, 52, 0
3, 738720, Note_on_c, 0, 43, 44
3, 739045, Note_on_c, 0, 43, 0
3, 739080, Note_on_c, 0, 53, 64
3, 739370, Note_on_c, 0, 67, 0
3, 739370, Note_on_c, 0, 76, 0
3, 739370, Note_on_c, 0, 71, 0
3, 739370, Note_on_c, 0, 79, 0
3, 739405, Note_on_c, 0, 53, 0
3, 739440, Note_on_c, 0, 64, 74
3, 739440, Note_on_c, 0, 67, 73
3, 739440, Note_on_c, 0, 71, 73
3, 739440, Note_on_c, 0, 76, 74
3, 739440, Note_on_c, 0, 53, 54
3, 739765, Note_on_c, 0, 53, 0
3, 739800, Note_on_c, 0, 59, 63
3, 740125, Note_on_c, 0, 59, 0
3, 740125, Note_on_c, 0, 76, 0
3, 740125, Note_on_c, 0, 67, 0
3, 740125, Note_on_c, 0, 71, 0
3, 740125, Note_on_c, 0, 64, 0
3, 740160, Note_on_c, 0, 63, 75
3, 740160, Note_on_c, 0, 67, 77
3, 740160, Note_on_c, 0, 71, 76
3, 740160, Note_on_c, 0, 75, 77
3, 740160, Note_on_c, 0, 53, 46
3, 740485, Note_on_c, 0, 53, 0
3, 740520, Note_on_c, 0, 53, 51
3, 740810, Note_on_c, 0, 63, 0
3, 740810, Note_on_c, 0, 71, 0
3, 740810, Note_on_c, 0, 67, 0
3, 740810, Note_on_c, 0, 75, 0
3, 740845, Note_on_c, 0, 53, 0
3, 740880, Note_on_c, 0, 64, 84
3, 740880, Note_on_c, 0, 67, 86
3, 740880, Note_on_c, 0, 70, 84
3, 740880, Note_on_c, 0, 73, 85
3, 740880, Note_on_c, 0, 76, 87
3, 740880, Note_on_c, 0, 43, 43
3, 741205, Note_on_c, 0, 43, 0
3, 741240, Note_on_c, 0, 52, 59
3, 741565, Note_on_c, 0, 52, 0
3, 741600, Note_on_c, 0, 52, 54
3, 741925, Note_on_c, 0, 52, 0
3, 741960, Note_on_c, 0, 58, 63
3, 742285, Note_on_c, 0, 58, 0
3, 742320, Note_on_c, 0, 52, 47
3, 742645, Note_on_c, 0, 52, 0
3, 742680, Note_on_c, 0, 52, 50
3, 742970, Note_on_c, 0, 73, 0
3, 742970, Note_on_c, 0, 70, 0
3, 742970, Note_on_c, 0, 64, 0
3, 742970, Note_on_c, 0, 67, 0
3, 742970, Note_on_c, 0, 76, 0
3, 743005, Note_on_c, 0, 52, 0
3, 743040, Note_on_c, 0, 60, 74
3, 743040, Note_on_c, 0, 64, 75
3, 743040, Note_on_c, 0, 67, 74
3, 743040, Note_on_c, 0, 72, 75
3, 743040, Note_on_c, 0, 43, 46
3, 743365, Note_on_c, 0, 43, 0
3, 743400, Note_on_c, 0, 52, 62
3, 743690, Note_on_c, 0, 60, 0
3, 743690, Note_on_c, 0, 67, 0
3, 743690, Note_on_c, 0, 64, 0
3, 743690, Note_on_c, 0, 72, 0
3, 743725, Note_on_c, 0, 52, 0
3, 743760, Note_on_c, 0, 59, 75
3, 743760, Note_on_c, 0, 64, 77
3, 743760, Note_on_c, 0, 67, 77
3, 743760, Note_on_c, 0, 71, 76
3, 743760, Note_on_c, 0, 52, 54
3, 744085, Note_on_c, 0, 52, 0
3, 744120, Note_on_c, 0, 60, 65
3, 744445, Note_on_c, 0, 60, 0
3, 744445, Note_on_c, 0, 71, 0
3, 744445, Note_on_c, 0, 64, 0
3, 744445, Note_on_c, 0, 67, 0
3, 744445, Note_on_c, 0, 59, 0
3, 744480, Note_on_c, 0, 58, 76
3, 744480, Note_on_c, 0, 64, 75
3, 744480, Note_on_c, 0, 67, 78
3, 744480, Note_on_c, 0, 70, 77
3, 744480, Note_on_c, 0, 52, 45
3, 744805, Note_on_c, 0, 52, 0
3, 744840, Note_on_c, 0, 52, 52
3, 745130, Note_on_c, 0, 58, 0
3, 745130, Note_on_c, 0, 67, 0
3, 745130, Note_on_c, 0, 64, 0
3, 745130, Note_on_c, 0, 70, 0
3, 745165, Note_on_c, 0, 52, 0
3, 745200, Note_on_c, 0, 57, 78
3, 745200, Note_on_c, 0, 61, 79
3, 745200, Note_on_c, 0, 64, 78
3, 745200, Note_on_c, 0, 67, 79
3, 745200, Note_on_c, 0, 69, 80
3, 745200, Note_on_c, 0, 43, 46
3, 745525, Note_on_c, 0, 43, 0
3, 745560, Note_on_c, 0, 52, 61
3, 745885, Note_on_c, 0, 52, 0
3, 745920, Note_on_c, 0, 52, 56
3, 746245, Note_on_c, 0, 52, 0
3, 746280, Note_on_c, 0, 61, 66
3, 746605, Note_on_c, 0, 61, 0
3, 746640, Note_on_c, 0, 52, 45
3, 746965, Note_on_c, 0, 52, 0
3, 747000, Note_on_c, 0, 52, 50
3, 747290, Note_on_c, 0, 61, 0
3, 747290, Note_on_c, 0, 67, 0
3, 747290, Note_on_c, 0, 57, 0
3, 747290, Note_on_c, 0, 64, 0
3, 747290, Note_on_c, 0, 69, 0
3, 747325, Note_on_c, 0, 52, 0
3, 747360, Note_on_c, 0, 56, 79
3, 747360, Note_on_c, 0, 60, 81
3, 747360, Note_on_c, 0, 63, 79
3, 747360, Note_on_c, 0, 68, 82
3, 747360, Note_on_c, 0, 43, 45
3, 747685, Note_on_c, 0, 43, 0
3, 747720, Note_on_c, 0, 51, 61
3, 748045, Note_on_c, 0, 51, 0
3, 748080, Note_on_c, 0, 51, 54
3, 748405, Note_on_c, 0, 51, 0
3, 748440, Note_on_c, 0, 60, 68
3, 748765, Note_on_c, 0, 60, 0
3, 748765, Note_on_c, 0, 68, 0
3, 748765, Note_on_c, 0, 60, 0
3, 748765, Note_on_c, 0, 63, 0
3, 748765, Note_on_c, 0, 56, 0
3, 748800, Note_on_c, 0, 54, 75
3, 748800, Note_on_c, 0, 60, 76
3, 748800, Note_on_c, 0, 66, 78
3, 748800, Note_on_c, 0, 51, 42
3, 749125, Note_on_c, 0, 51, 0
3, 749160, Note_on_c, 0, 51, 52
3, 749450, Note_on_c, 0, 60, 0
3, 749450, Note_on_c, 0, 66, 0
3, 749450, Note_on_c, 0, 54, 0
3, 749485, Note_on_c, 0, 51, 0
3, 749520, Note_on_c, 0, 55, 84
3, 749520, Note_on_c, 0, 59, 84
3, 749520, Note_on_c, 0, 67, 87
3, 749520, Note_on_c, 0, 43, 55
3, 749520, Note_on_c, 0, 50, 54
3, 749845, Note_on_c, 0, 50, 0
3, 749845, Note_on_c, 0, 55, 0
3, 749845, Note_on_c, 0, 59, 0
3, 749845, Note_on_c, 0, 67, 0
3, 749845, Note_on_c, 0, 43, 0
3, 749880, Note_on_c, 0, 67, 85
3, 750043, Note_on_c, 0, 67, 0
3, 750060, Note_on_c, 0, 66, 79
3, 750223, Note_on_c, 0, 66, 0
3, 750240, Note_on_c, 0, 67, 86
3, 750403, Note_on_c, 0, 67, 0
3, 750420, Note_on_c, 0, 66, 78
3, 750583, Note_on_c, 0, 66, 0
3, 750600, Note_on_c, 0, 67, 87
3, 750763, Note_on_c, 0, 67, 0
3, 750780, Note_on_c, 0, 66, 78
3, 750943, Note_on_c, 0, 66, 0
3, 750960, Note_on_c, 0, 67, 88
3, 751123, Note_on_c, 0, 67, 0
3, 751140, Note_on_c, 0, 66, 76
3, 751303, Note_on_c, 0, 66, 0
3, 751320, Note_on_c, 0, 67, 86
3, 751483, Note_on_c, 0, 67, 0
3, 751500, Note_on_c, 0, 66, 75
3, 751663, Note_on_c, 0, 66, 0
3, 751680, Note_on_c, 0, 67, 85
3, 751843, Note_on_c, 0, 67, 0
3, 751860, Note_on_c, 0, 66, 77
3, 752023, Note_on_c, 0, 66, 0
3, 752040, Note_on_c, 0, 67, 88
3, 752203, Note_on_c, 0, 67, 0
3, 752220, Note_on_c, 0, 66, 79
3, 752383, Note_on_c, 0, 66, 0
3, 752400, Note_on_c, 0, 67, 88
3, 752563, Note_on_c, 0, 67, 0
3, 752580, Note_on_c, 0, 66, 79
3, 752743, Note_on_c, 0, 66, 0
3, 752760, Note_on_c, 0, 67, 86
3, 752923, Note_on_c, 0, 67, 0
3, 752940, Note_on_c, 0, 66, 75
3, 753103, Note_on_c, 0, 66, 0
3, 753120, Note_on_c, 0, 67, 88
3, 753283, Note_on_c, 0, 67, 0
3, 753300, Note_on_c, 0, 66, 76
3, 753463, Note_on_c, 0, 66, 0
3, 753480, Note_on_c, 0, 67, 85
3, 753643, Note_on_c, 0, 67, 0
3, 753660, Note_on_c, 0, 66, 77
3, 753823, Note_on_c, 0, 66, 0
3, 753840, Note_on_c, 0, 67, 87
3, 754165, Note_on_c, 0, 67, 0
3, 754200, Note_on_c, 0, 71, 94
3, 754363, Note_on_c, 0, 71, 0
3, 754380, Note_on_c, 0, 67, 72
3, 754543, Note_on_c, 0, 67, 0
3, 754560, Note_on_c, 0, 71, 89
3, 754723, Note_on_c, 0, 71, 0
3, 754740, Note_on_c, 0, 67, 72
3, 754903, Note_on_c, 0, 67, 0
3, 754920, Note_on_c, 0, 71, 93
3, 755083, Note_on_c, 0, 71, 0
3, 755100, Note_on_c, 0, 67, 74
3, 755263, Note_on_c, 0, 67, 0
3, 755280, Note_on_c, 0, 71, 92
3, 755443, Note_on_c, 0, 71, 0
3, 755460, Note_on_c, 0, 67, 73
3, 755623, Note_on_c, 0, 67, 0
3, 755640, Note_on_c, 0, 71, 91
3, 755803, Note_on_c, 0, 71, 0
3, 755820, Note_on_c, 0, 67, 73
3, 755983, Note_on_c, 0, 67, 0
3, 756000, Note_on_c, 0, 71, 93
3, 756163, Note_on_c, 0, 71, 0
3, 756180, Note_on_c, 0, 67, 74
3, 756343, Note_on_c, 0, 67, 0
3, 756360, Note_on_c, 0, 71, 92
3, 756523, Note_on_c, 0, 71, 0
3, 756540, Note_on_c, 0, 67, 71
3, 756703, Note_on_c, 0, 67, 0
3, 756720, Note_on_c, 0, 71, 93
3, 756883, Note_on_c, 0, 71, 0
3, 756900, Note_on_c, 0, 67, 72
3, 757063, Note_on_c, 0, 67, 0
3, 757080, Note_on_c, 0, 71, 93
3, 757243, Note_on_c, 0, 71, 0
3, 757260, Note_on_c, 0, 67, 73
3, 757423, Note_on_c, 0, 67, 0
3, 757440, Note_on_c, 0, 71, 93
3, 757603, Note_on_c, 0, 71, 0
3, 757620, Note_on_c, 0, 67, 72
3, 757783, Note_on_c, 0, 67, 0
3, 757800, Note_on_c, 0, 71, 91
3, 757963, Note_on_c, 0, 71, 0
3, 757980, Note_on_c, 0, 67, 73
3, 758143, Note_on_c, 0, 67, 0
3, 758160, Note_on_c, 0, 83, 103
3, 758160, Note_on_c, 0, 40, 49
3, 758160, Note_on_c, 0, 52, 51
3, 758323, Note_on_c, 0, 83, 0
3, 758337, Note_on_c, 0, 52, 0
3, 758337, Note_on_c, 0, 40, 0
3, 758340, Note_on_c, 0, 79, 77
3, 758503, Note_on_c, 0, 79, 0
3, 758520, Note_on_c, 0, 83, 92
3, 758683, Note_on_c, 0, 83, 0
3, 758700, Note_on_c, 0, 79, 72
3, 758863, Note_on_c, 0, 79, 0
3, 758880, Note_on_c, 0, 83, 92
3, 759043, Note_on_c, 0, 83, 0
3, 759060, Note_on_c, 0, 79, 73
3, 759223, Note_on_c, 0, 79, 0
3, 759240, Note_on_c, 0, 83, 92
3, 759240, Note_on_c, 0, 38, 50
3, 759240, Note_on_c, 0, 50, 50
3, 759403, Note_on_c, 0, 83, 0
3, 759417, Note_on_c, 0, 50, 0
3, 759417, Note_on_c, 0, 38, 0
3, 759420, Note_on_c, 0, 79, 72
3, 759583, Note_on_c, 0, 79, 0
3, 759600, Note_on_c, 0, 83, 92
3, 759763, Note_on_c, 0, 83, 0
3, 759780, Note_on_c, 0, 79, 72
3, 759943, Note_on_c, 0, 79, 0
3, 759960, Note_on_c, 0, 83, 89
3, 760123, Note_on_c, 0, 83, 0
3, 760140, Note_on_c, 0, 79, 73
3, 760303, Note_on_c, 0, 79, 0
3, 760320, Note_on_c, 0, 83, 90
3, 760320, Note_on_c, 0, 31, 50
3, 760320, Note_on_c, 0, 43, 51
3, 760483, Note_on_c, 0, 83, 0
3, 760497, Note_on_c, 0, 43, 0
3, 760497, Note_on_c, 0, 31, 0
3, 760500, Note_on_c, 0, 79, 75
3, 760663, Note_on_c, 0, 79, 0
3, 760680, Note_on_c, 0, 83, 93
3, 760843, Note_on_c, 0, 83, 0
3, 760860, Note_on_c, 0, 79, 72
3, 761023, Note_on_c, 0, 79, 0
3, 761040, Note_on_c, 0, 83, 90
3, 761203, Note_on_c, 0, 83, 0
3, 761220, Note_on_c, 0, 79, 73
3, 761383, Note_on_c, 0, 79, 0
3, 761400, Note_on_c, 0, 83, 92
3, 761563, Note_on_c, 0, 83, 0
3, 761580, Note_on_c, 0, 79, 72
3, 761743, Note_on_c, 0, 79, 0
3, 761760, Note_on_c, 0, 83, 93
3, 761923, Note_on_c, 0, 83, 0
3, 761940, Note_on_c, 0, 79, 74
3, 762103, Note_on_c, 0, 79, 0
3, 762120, Note_on_c, 0, 83, 89
3, 762283, Note_on_c, 0, 83, 0
3, 762300, Note_on_c, 0, 79, 73
3, 762463, Note_on_c, 0, 79, 0
3, 762480, Note_on_c, 0, 91, 102
3, 762643, Note_on_c, 0, 91, 0
3, 762660, Note_on_c, 0, 83, 68
3, 762823, Note_on_c, 0, 83, 0
3, 762840, Note_on_c, 0, 79, 72
3, 763003, Note_on_c, 0, 79, 0
3, 763020, Note_on_c, 0, 90, 100
3, 763183, Note_on_c, 0, 90, 0
3, 763200, Note_on_c, 0, 91, 89
3, 763363, Note_on_c, 0, 91, 0
3, 763380, Note_on_c, 0, 83, 67
3, 763543, Note_on_c, 0, 83, 0
3, 763560, Note_on_c, 0, 79, 72
3, 763723, Note_on_c, 0, 79, 0
3, 763740, Note_on_c, 0, 90, 98
3, 763903, Note_on_c, 0, 90, 0
3, 763920, Note_on_c, 0, 91, 92
3, 764083, Note_on_c, 0, 91, 0
3, 764100, Note_on_c, 0, 83, 66
3, 764263, Note_on_c, 0, 83, 0
3, 764280, Note_on_c, 0, 79, 73
3, 764443, Note_on_c, 0, 79, 0
3, 764460, Note_on_c, 0, 90, 97
3, 764623, Note_on_c, 0, 90, 0
3, 764640, Note_on_c, 0, 91, 89
3, 764803, Note_on_c, 0, 91, 0
3, 764820, Note_on_c, 0, 83, 66
3, 764983, Note_on_c, 0, 83, 0
3, 765000, Note_on_c, 0, 79, 74
3, 765163, Note_on_c, 0, 79, 0
3, 765180, Note_on_c, 0, 90, 96
3, 765343, Note_on_c, 0, 90, 0
3, 765360, Note_on_c, 0, 91, 91
3, 765523, Note_on_c, 0, 91, 0
3, 765540, Note_on_c, 0, 83, 67
3, 765703, Note_on_c, 0, 83, 0
3, 765720, Note_on_c, 0, 79, 71
3, 765883, Note_on_c, 0, 79, 0
3, 765900, Note_on_c, 0, 90, 100
3, 766063, Note_on_c, 0, 90, 0
3, 766080, Note_on_c, 0, 91, 89
3, 766243, Note_on_c, 0, 91, 0
3, 766260, Note_on_c, 0, 83, 66
3, 766423, Note_on_c, 0, 83, 0
3, 766440, Note_on_c, 0, 79, 74
3, 766603, Note_on_c, 0, 79, 0
3, 766620, Note_on_c, 0, 90, 99
3, 766783, Note_on_c, 0, 90, 0
3, 766800, Note_on_c, 0, 91, 49
3, 767125, Note_on_c, 0, 91, 0
3, 767160, Note_on_c, 0, 95, 41
3, 767323, Note_on_c, 0, 95, 0
3, 767340, Note_on_c, 0, 91, 36
3, 767503, Note_on_c, 0, 91, 0
3, 767520, Note_on_c, 0, 95, 46
3, 767845, Note_on_c, 0, 95, 0
3, 767880, Note_on_c, 0, 95, 45
3, 768043, Note_on_c, 0, 95, 0
3, 768060, Note_on_c, 0, 91, 37
3, 768223, Note_on_c, 0, 91, 0
3, 768240, Note_on_c, 0, 95, 46
3, 768565, Note_on_c, 0, 95, 0
3, 768600, Note_on_c, 0, 95, 48
3, 768763, Note_on_c, 0, 95, 0
3, 768780, Note_on_c, 0, 91, 36
3, 768943, Note_on_c, 0, 91, 0
3, 768960, Note_on_c, 0, 95, 49
3, 769285, Note_on_c, 0, 95, 0
3, 769320, Note_on_c, 0, 95, 47
3, 769483, Note_on_c, 0, 95, 0
3, 769500, Note_on_c, 0, 91, 37
3, 769663, Note_on_c, 0, 91, 0
3, 769680, Note_on_c, 0, 95, 44
3, 770005, Note_on_c, 0, 95, 0
3, 770040, Note_on_c, 0, 95, 45
3, 770203, Note_on_c, 0, 95, 0
3, 770220, Note_on_c, 0, 91, 40
3, 770383, Note_on_c, 0, 91, 0
3, 770400, Note_on_c, 0, 95, 47
3, 770725, Note_on_c, 0, 95, 0
3, 770760, Note_on_c, 0, 95, 47
3, 770923, Note_on_c, 0, 95, 0
3, 770940, Note_on_c, 0, 91, 39
3, 771103, Note_on_c, 0, 91, 0
3, 771120, Note_on_c, 0, 95, 48
3, 771445, Note_on_c, 0, 95, 0
3, 774360, Control_c, 0, 64, 127
3, 774360, Note_on_c, 0, 32, 53
3, 774360, Note_on_c, 0, 44, 50
3, 774523, Note_on_c, 0, 44, 0
3, 774523, Note_on_c, 0, 32, 0
3, 774540, Note_on_c, 0, 51, 40
3, 774622, Note_on_c, 0, 51, 0
3, 774630, Note_on_c, 0, 60, 50
3, 774712, Note_on_c, 0, 60, 0
3, 774720, Note_on_c, 0, 56, 41
3, 774802, Note_on_c, 0, 56, 0
3, 774810, Note_on_c, 0, 60, 45
3, 774892, Note_on_c, 0, 60, 0
3, 774900, Note_on_c, 0, 63, 48
3, 774900, Control_c, 0, 64, 0
3, 774982, Note_on_c, 0, 63, 0
3, 774990, Note_on_c, 0, 60, 41
3, 775072, Note_on_c, 0, 60, 0
3, 775080, Note_on_c, 0, 56, 39
3, 775162, Note_on_c, 0, 56, 0
3, 775170, Note_on_c, 0, 60, 46
3, 775252, Note_on_c, 0, 60, 0
3, 775260, Note_on_c, 0, 51, 36
3, 775342, Note_on_c, 0, 51, 0
3, 775350, Note_on_c, 0, 60, 51
3, 775432, Note_on_c, 0, 60, 0
3, 775440, Control_c, 0, 64, 127
3, 775440, Note_on_c, 0, 32, 53
3, 775440, Note_on_c, 0, 44, 50
3, 775603, Note_on_c, 0, 44, 0
3, 775603, Note_on_c, 0, 32, 0
3, 775620, Note_on_c, 0, 51, 37
3, 775702, Note_on_c, 0, 51, 0
3, 775710, Note_on_c, 0, 60, 50
3, 775792, Note_on_c, 0, 60, 0
3, 775800, Note_on_c, 0, 56, 40
3, 775882, Note_on_c, 0, 56, 0
3, 775890, Note_on_c, 0, 60, 46
3, 775972, Note_on_c, 0, 60, 0
3, 775980, Note_on_c, 0, 63, 49
3, 775980, Control_c, 0, 64, 0
3, 776062, Note_on_c, 0, 63, 0
3, 776070, Note_on_c, 0, 60, 41
3, 776152, Note_on_c, 0, 60, 0
3, 776160, Note_on_c, 0, 56, 36
3, 776242, Note_on_c, 0, 56, 0
3, 776250, Note_on_c, 0, 60, 46
3, 776332, Note_on_c, 0, 60, 0
3, 776340, Note_on_c, 0, 51, 34
3, 776422, Note_on_c, 0, 51, 0
3, 776430, Note_on_c, 0, 60, 51
3, 776512, Note_on_c, 0, 60, 0
3, 776520, Control_c, 0, 64, 127
3, 776520, Note_on_c, 0, 32, 53
3, 776520, Note_on_c, 0, 44, 52
3, 776683, Note_on_c, 0, 44, 0
3, 776683, Note_on_c, 0, 32, 0
3, 776700, Note_on_c, 0, 51, 39
3, 776782, Note_on_c, 0, 51, 0
3, 776790, Note_on_c, 0, 60, 50
3, 776872, Note_on_c, 0, 60, 0
3, 776880, Note_on_c, 0, 56, 40
3, 776880, Control_c, 0, 64, 0
3, 776962, Note_on_c, 0, 56, 0
3, 776970, Note_on_c, 0, 60, 46
3, 777052, Note_on_c, 0, 60, 0
3, 777060, Note_on_c, 0, 63, 48
3, 777142, Note_on_c, 0, 63, 0
3, 777150, Note_on_c, 0, 60, 42
3, 777232, Note_on_c, 0, 60, 0
3, 777240, Note_on_c, 0, 56, 39
3, 777322, Note_on_c, 0, 56, 0
3, 777330, Note_on_c, 0, 60, 45
3, 777412, Note_on_c, 0, 60, 0
3, 777420, Note_on_c, 0, 51, 36
3, 777502, Note_on_c, 0, 51, 0
3, 777510, Note_on_c, 0, 60, 50
3, 777592, Note_on_c, 0, 60, 0
3, 777600, Control_c, 0, 64, 127
3, 777600, Note_on_c, 0, 32, 50
3, 777600, Note_on_c, 0, 44, 51
3, 777763, Note_on_c, 0, 44, 0
3, 777763, Note_on_c, 0, 32, 0
3, 777780, Note_on_c, 0, 53, 41
3, 777862, Note_on_c, 0, 53, 0
3, 777870, Note_on_c, 0, 60, 48
3, 777952, Note_on_c, 0, 60, 0
3, 777960, Note_on_c, 0, 56, 41
3, 777960, Control_c, 0, 64, 0
3, 778042, Note_on_c, 0, 56, 0
3, 778050, Note_on_c, 0, 60, 45
3, 778132, Note_on_c, 0, 60, 0
3, 778140, Note_on_c, 0, 65, 53
3, 778222, Note_on_c, 0, 65, 0
3, 778230, Note_on_c, 0, 60, 37
3, 778312, Note_on_c, 0, 60, 0
3, 778320, Note_on_c, 0, 53, 36
3, 778402, Note_on_c, 0, 53, 0
3, 778410, Note_on_c, 0, 60, 50
3, 778492, Note_on_c, 0, 60, 0
3, 778500, Note_on_c, 0, 56, 37
3, 778582, Note_on_c, 0, 56, 0
3, 778590, Note_on_c, 0, 60, 48
3, 778672, Note_on_c, 0, 60, 0
3, 778680, Control_c, 0, 64, 127
3, 778680, Note_on_c, 0, 32, 51
3, 778770, Note_on_c, 0, 53, 39
3, 778843, Note_on_c, 0, 32, 0
3, 778852, Note_on_c, 0, 53, 0
3, 778860, Note_on_c, 0, 54, 44
3, 778942, Note_on_c, 0, 54, 0
3, 778950, Note_on_c, 0, 56, 43
3, 779032, Note_on_c, 0, 56, 0
3, 779040, Note_on_c, 0, 58, 45
3, 779040, Control_c, 0, 64, 0
3, 779122, Note_on_c, 0, 58, 0
3, 779130, Note_on_c, 0, 60, 45
3, 779212, Note_on_c, 0, 60, 0
3, 779220, Note_on_c, 0, 61, 47
3, 779220, Control_c, 0, 64, 127
3, 779220, Note_on_c, 0, 44, 53
3, 779302, Note_on_c, 0, 61, 0
3, 779310, Note_on_c, 0, 63, 46
3, 779383, Note_on_c, 0, 44, 0
3, 779392, Note_on_c, 0, 63, 0
3, 779400, Note_on_c, 0, 65, 45
3, 779482, Note_on_c, 0, 65, 0
3, 779490, Note_on_c, 0, 67, 43
3, 779572, Note_on_c, 0, 67, 0
3, 779580, Note_on_c, 0, 68, 44
3, 779580, Control_c, 0, 64, 0
3, 779662, Note_on_c, 0, 68, 0
3, 779670, Note_on_c, 0, 70, 44
3, 779752, Note_on_c, 0, 70, 0
3, 779760, Note_on_c, 0, 72, 47
3, 779760, Control_c, 0, 64, 127
3, 779760, Note_on_c, 0, 32, 52
3, 779923, Note_on_c, 0, 32, 0
3, 779923, Note_on_c, 0, 72, 0
3, 780120, Control_c, 0, 64, 0
3, 780120, Note_on_c, 0, 68, 47
3, 780120, Note_on_c, 0, 72, 46
3, 780120, Note_on_c, 0, 74, 49
3, 780209, Note_on_c, 0, 74, 0
3, 780209, Note_on_c, 0, 72, 0
3, 780209, Note_on_c, 0, 68, 0
3, 780300, Note_on_c, 0, 68, 54
3, 780300, Note_on_c, 0, 72, 52
3, 780300, Note_on_c, 0, 75, 55
3, 780389, Note_on_c, 0, 75, 0
3, 780389, Note_on_c, 0, 72, 0
3, 780389, Note_on_c, 0, 68, 0
3, 780390, Note_on_c, 0, 63, 38
3, 780472, Note_on_c, 0, 63, 0
3, 780480, Note_on_c, 0, 65, 43
3, 780562, Note_on_c, 0, 65, 0
3, 780570, Note_on_c, 0, 67, 47
3, 780652, Note_on_c, 0, 67, 0
3, 780660, Note_on_c, 0, 68, 44
3, 780742, Note_on_c, 0, 68, 0
3, 780750, Note_on_c, 0, 70, 46
3, 780832, Note_on_c, 0, 70, 0
3, 780840, Note_on_c, 0, 72, 48
3, 780840, Control_c, 0, 64, 127
3, 780840, Note_on_c, 0, 32, 51
3, 780840, Note_on_c, 0, 44, 49
3, 781003, Note_on_c, 0, 44, 0
3, 781003, Note_on_c, 0, 32, 0
3, 781003, Note_on_c, 0, 72, 0
3, 781020, Note_on_c, 0, 51, 35
3, 781102, Note_on_c, 0, 51, 0
3, 781110, Note_on_c, 0, 60, 51
3, 781192, Note_on_c, 0, 60, 0
3, 781200, Note_on_c, 0, 56, 39
3, 781200, Control_c, 0, 64, 0
3, 781282, Note_on_c, 0, 56, 0
3, 781290, Note_on_c, 0, 60, 44
3, 781372, Note_on_c, 0, 60, 0
3, 781380, Note_on_c, 0, 63, 48
3, 781462, Note_on_c, 0, 63, 0
3, 781470, Note_on_c, 0, 60, 39
3, 781552, Note_on_c, 0, 60, 0
3, 781560, Note_on_c, 0, 56, 38
3, 781642, Note_on_c, 0, 56, 0
3, 781650, Note_on_c, 0, 60, 45
3, 781732, Note_on_c, 0, 60, 0
3, 781740, Note_on_c, 0, 51, 33
3, 781822, Note_on_c, 0, 51, 0
3, 781830, Note_on_c, 0, 60, 52
3, 781912, Note_on_c, 0, 60, 0
3, 781920, Control_c, 0, 64, 127
3, 781920, Note_on_c, 0, 29, 52
3, 781920, Note_on_c, 0, 41, 51
3, 782083, Note_on_c, 0, 41, 0
3, 782083, Note_on_c, 0, 29, 0
3, 782100, Note_on_c, 0, 50, 44
3, 782182, Note_on_c, 0, 50, 0
3, 782190, Note_on_c, 0, 60, 52
3, 782272, Note_on_c, 0, 60, 0
3, 782280, Note_on_c, 0, 56, 41
3, 782280, Control_c, 0, 64, 0
3, 782362, Note_on_c, 0, 56, 0
3, 782370, Note_on_c, 0, 60, 45
3, 782452, Note_on_c, 0, 60, 0
3, 782460, Note_on_c, 0, 65, 49
3, 782542, Note_on_c, 0, 65, 0
3, 782550, Note_on_c, 0, 60, 36
3, 782632, Note_on_c, 0, 60, 0
3, 782640, Note_on_c, 0, 50, 33
3, 782722, Note_on_c, 0, 50, 0
3, 782730, Note_on_c, 0, 60, 50
3, 782812, Note_on_c, 0, 60, 0
3, 782820, Note_on_c, 0, 56, 41
3, 782902, Note_on_c, 0, 56, 0
3, 782910, Note_on_c, 0, 60, 46
3, 782992, Note_on_c, 0, 60, 0
3, 783000, Control_c, 0, 64, 127
3, 783000, Note_on_c, 0, 31, 53
3, 783090, Note_on_c, 0, 55, 40
3, 783163, Note_on_c, 0, 31, 0
3, 783172, Note_on_c, 0, 55, 0
3, 783180, Note_on_c, 0, 59, 44
3, 783262, Note_on_c, 0, 59, 0
3, 783270, Note_on_c, 0, 60, 44
3, 783352, Note_on_c, 0, 60, 0
3, 783360, Note_on_c, 0, 62, 46
3, 783360, Control_c, 0, 64, 0
3, 783442, Note_on_c, 0, 62, 0
3, 783450, Note_on_c, 0, 63, 44
3, 783532, Note_on_c, 0, 63, 0
3, 783540, Note_on_c, 0, 65, 49
3, 783540, Control_c, 0, 64, 127
3, 783540, Note_on_c, 0, 43, 51
3, 783622, Note_on_c, 0, 65, 0
3, 783630, Note_on_c, 0, 67, 44
3, 783703, Note_on_c, 0, 43, 0
3, 783712, Note_on_c, 0, 67, 0
3, 783720, Note_on_c, 0, 69, 44
3, 783802, Note_on_c, 0, 69, 0
3, 783810, Note_on_c, 0, 71, 44
3, 783892, Note_on_c, 0, 71, 0
3, 783900, Note_on_c, 0, 72, 45
3, 783900, Control_c, 0, 64, 0
3, 783982, Note_on_c, 0, 72, 0
3, 783990, Note_on_c, 0, 74, 47
3, 784072, Note_on_c, 0, 74, 0
3, 784080, Note_on_c, 0, 75, 50
3, 784080, Control_c, 0, 64, 127
3, 784080, Note_on_c, 0, 36, 50
3, 784080, Note_on_c, 0, 48, 52
3, 784243, Note_on_c, 0, 48, 0
3, 784243, Note_on_c, 0, 36, 0
3, 784243, Note_on_c, 0, 75, 0
3, 784260, Note_on_c, 0, 55, 33
3, 784260, Note_on_c, 0, 62, 33
3, 784423, Note_on_c, 0, 62, 0
3, 784423, Note_on_c, 0, 55, 0
3, 784440, Note_on_c, 0, 60, 39
3, 784440, Control_c, 0, 64, 0
3, 784603, Note_on_c, 0, 60, 0
3, 784620, Control_c, 0, 64, 127
3, 784620, Note_on_c, 0, 41, 51
3, 784783, Note_on_c, 0, 41, 0
3, 784800, Note_on_c, 0, 57, 39
3, 784800, Note_on_c, 0, 65, 40
3, 784963, Note_on_c, 0, 65, 0
3, 784963, Note_on_c, 0, 57, 0
3, 784980, Note_on_c, 0, 63, 41
3, 784980, Control_c, 0, 64, 0
3, 785143, Note_on_c, 0, 63, 0
3, 785160, Note_on_c, 0, 34, 52
3, 785160, Note_on_c, 0, 46, 50
3, 785250, Note_on_c, 0, 58, 41
3, 785250, Control_c, 0, 64, 127
3, 785323, Note_on_c, 0, 46, 0
3, 785323, Note_on_c, 0, 34, 0
3, 785332, Note_on_c, 0, 58, 0
3, 785340, Note_on_c, 0, 53, 36
3, 785422, Note_on_c, 0, 53, 0
3, 785430, Note_on_c, 0, 58, 46
3, 785512, Note_on_c, 0, 58, 0
3, 785520, Note_on_c, 0, 61, 44
3, 785520, Control_c, 0, 64, 0
3, 785602, Note_on_c, 0, 61, 0
3, 785610, Note_on_c, 0, 55, 37
3, 785692, Note_on_c, 0, 55, 0
3, 785700, Note_on_c, 0, 57, 46
3, 785700, Note_on_c, 0, 41, 51
3, 785782, Note_on_c, 0, 57, 0
3, 785790, Note_on_c, 0, 63, 49
3, 785790, Control_c, 0, 64, 127
3, 785863, Note_on_c, 0, 41, 0
3, 785872, Note_on_c, 0, 63, 0
3, 785880, Note_on_c, 0, 53, 33
3, 785962, Note_on_c, 0, 53, 0
3, 785970, Note_on_c, 0, 57, 47
3, 786052, Note_on_c, 0, 57, 0
3, 786060, Note_on_c, 0, 63, 50
3, 786060, Control_c, 0, 64, 0
3, 786142, Note_on_c, 0, 63, 0
3, 786150, Note_on_c, 0, 65, 45
3, 786232, Note_on_c, 0, 65, 0
3, 786240, Note_on_c, 0, 63, 42
3, 786240, Control_c, 0, 64, 127
3, 786240, Note_on_c, 0, 34, 53
3, 786240, Note_on_c, 0, 46, 53
3, 786322, Note_on_c, 0, 63, 0
3, 786330, Note_on_c, 0, 60, 41
3, 786403, Note_on_c, 0, 46, 0
3, 786403, Note_on_c, 0, 34, 0
3, 786412, Note_on_c, 0, 60, 0
3, 786420, Note_on_c, 0, 61, 42
3, 786502, Note_on_c, 0, 61, 0
3, 786510, Note_on_c, 0, 70, 50
3, 786592, Note_on_c, 0, 70, 0
3, 786600, Note_on_c, 0, 65, 40
3, 786600, Control_c, 0, 64, 0
3, 786682, Note_on_c, 0, 65, 0
3, 786690, Note_on_c, 0, 73, 49
3, 786772, Note_on_c, 0, 73, 0
3, 786780, Note_on_c, 0, 72, 47
3, 786780, Control_c, 0, 64, 127
3, 786780, Note_on_c, 0, 39, 51
3, 786780, Note_on_c, 0, 51, 51
3, 786862, Note_on_c, 0, 72, 0
3, 786870, Note_on_c, 0, 67, 37
3, 786943, Note_on_c, 0, 51, 0
3, 786943, Note_on_c, 0, 39, 0
3, 786952, Note_on_c, 0, 67, 0
3, 786960, Note_on_c, 0, 68, 44
3, 787042, Note_on_c, 0, 68, 0
3, 787050, Note_on_c, 0, 77, 51
3, 787132, Note_on_c, 0, 77, 0
3, 787140, Note_on_c, 0, 75, 41
3, 787140, Control_c, 0, 64, 0
3, 787222, Note_on_c, 0, 75, 0
3, 787230, Note_on_c, 0, 73, 42
3, 787312, Note_on_c, 0, 73, 0
3, 787320, Note_on_c, 0, 72, 44
3, 787320, Control_c, 0, 64, 127
3, 787320, Note_on_c, 0, 32, 50
3, 787320, Note_on_c, 0, 44, 52
3, 787402, Note_on_c, 0, 72, 0
3, 787410, Note_on_c, 0, 51, 34
3, 787483, Note_on_c, 0, 44, 0
3, 787483, Note_on_c, 0, 32, 0
3, 787492, Note_on_c, 0, 51, 0
3, 787500, Note_on_c, 0, 53, 41
3, 787582, Note_on_c, 0, 53, 0
3, 787590, Note_on_c, 0, 55, 47
3, 787672, Note_on_c, 0, 55, 0
3, 787680, Note_on_c, 0, 56, 43
3, 787680, Control_c, 0, 64, 0
3, 787762, Note_on_c, 0, 56, 0
3, 787770, Note_on_c, 0, 58, 46
3, 787852, Note_on_c, 0, 58, 0
3, 787860, Note_on_c, 0, 60, 49
3, 787942, Note_on_c, 0, 60, 0
3, 787950, Note_on_c, 0, 63, 44
3, 788032, Note_on_c, 0, 63, 0
3, 788040, Note_on_c, 0, 65, 44
3, 788122, Note_on_c, 0, 65, 0
3, 788130, Note_on_c, 0, 67, 44
3, 788212, Note_on_c, 0, 67, 0
3, 788220, Note_on_c, 0, 68, 43
3, 788302, Note_on_c, 0, 68, 0
3, 788310, Note_on_c, 0, 70, 44
3, 788392, Note_on_c, 0, 70, 0
3, 788400, Note_on_c, 0, 72, 49
3, 788400, Control_c, 0, 64, 127
3, 788400, Note_on_c, 0, 32, 50
3, 788400, Note_on_c, 0, 44, 51
3, 788482, Note_on_c, 0, 72, 0
3, 788490, Note_on_c, 0, 63, 32
3, 788563, Note_on_c, 0, 44, 0
3, 788563, Note_on_c, 0, 32, 0
3, 788572, Note_on_c, 0, 63, 0
3, 788580, Note_on_c, 0, 65, 41
3, 788662, Note_on_c, 0, 65, 0
3, 788670, Note_on_c, 0, 67, 45
3, 788752, Note_on_c, 0, 67, 0
3, 788760, Note_on_c, 0, 68, 46
3, 788760, Control_c, 0, 64, 0
3, 788842, Note_on_c, 0, 68, 0
3, 788850, Note_on_c, 0, 70, 43
3, 788932, Note_on_c, 0, 70, 0
3, 788940, Note_on_c, 0, 72, 46
3, 789022, Note_on_c, 0, 72, 0
3, 789030, Note_on_c, 0, 74, 45
3, 789112, Note_on_c, 0, 74, 0
3, 789120, Note_on_c, 0, 75, 43
3, 789120, Control_c, 0, 64, 127
3, 789120, Note_on_c, 0, 33, 48
3, 789120, Note_on_c, 0, 45, 50
3, 789202, Note_on_c, 0, 75, 0
3, 789210, Note_on_c, 0, 74, 40
3, 789283, Note_on_c, 0, 45, 0
3, 789283, Note_on_c, 0, 33, 0
3, 789292, Note_on_c, 0, 74, 0
3, 789300, Note_on_c, 0, 75, 43
3, 789300, Control_c, 0, 64, 0
3, 789382, Note_on_c, 0, 75, 0
3, 789390, Note_on_c, 0, 74, 40
3, 789472, Note_on_c, 0, 74, 0
3, 789480, Note_on_c, 0, 75, 49
3, 789480, Control_c, 0, 64, 127
3, 789480, Note_on_c, 0, 34, 49
3, 789480, Note_on_c, 0, 46, 53
3, 789643, Note_on_c, 0, 46, 0
3, 789643, Note_on_c, 0, 34, 0
3, 789643, Note_on_c, 0, 75, 0
3, 789660, Note_on_c, 0, 55, 33
3, 789742, Note_on_c, 0, 55, 0
3, 789750, Note_on_c, 0, 63, 46
3, 789832, Note_on_c, 0, 63, 0
3, 789840, Note_on_c, 0, 58, 39
3, 789840, Control_c, 0, 64, 0
3, 789922, Note_on_c, 0, 58, 0
3, 789930, Note_on_c, 0, 63, 48
3, 790012, Note_on_c, 0, 63, 0
3, 790020, Note_on_c, 0, 67, 49
3, 790102, Note_on_c, 0, 67, 0
3, 790110, Note_on_c, 0, 63, 41
3, 790192, Note_on_c, 0, 63, 0
3, 790200, Note_on_c, 0, 58, 37
3, 790282, Note_on_c, 0, 58, 0
3, 790290, Note_on_c, 0, 63, 48
3, 790372, Note_on_c, 0, 63, 0
3, 790380, Note_on_c, 0, 55, 34
3, 790462, Note_on_c, 0, 55, 0
3, 790470, Note_on_c, 0, 63, 47
3, 790552, Note_on_c, 0, 63, 0
3, 790560, Control_c, 0, 64, 127
3, 790560, Note_on_c, 0, 34, 50
3, 790560, Note_on_c, 0, 46, 50
3, 790723, Note_on_c, 0, 46, 0
3, 790723, Note_on_c, 0, 34, 0
3, 790740, Note_on_c, 0, 57, 40
3, 790822, Note_on_c, 0, 57, 0
3, 790830, Note_on_c, 0, 63, 48
3, 790912, Note_on_c, 0, 63, 0
3, 790920, Note_on_c, 0, 62, 40
3, 790920, Control_c, 0, 64, 0
3, 791002, Note_on_c, 0, 62, 0
3, 791010, Note_on_c, 0, 63, 42
3, 791092, Note_on_c, 0, 63, 0
3, 791100, Note_on_c, 0, 67, 48
3, 791182, Note_on_c, 0, 67, 0
3, 791190, Note_on_c, 0, 63, 40
3, 791272, Note_on_c, 0, 63, 0
3, 791280, Note_on_c, 0, 60, 41
3, 791362, Note_on_c, 0, 60, 0
3, 791370, Note_on_c, 0, 63, 45
3, 791452, Note_on_c, 0, 63, 0
3, 791460, Note_on_c, 0, 57, 39
3, 791542, Note_on_c, 0, 57, 0
3, 791550, Note_on_c, 0, 63, 50
3, 791632, Note_on_c, 0, 63, 0
3, 791640, Note_on_c, 0, 58, 42
3, 791640, Note_on_c, 0, 34, 49
3, 791640, Note_on_c, 0, 46, 50
3, 791722, Note_on_c, 0, 58, 0
3, 791730, Note_on_c, 0, 60, 45
3, 791812, Note_on_c, 0, 60, 0
3, 791820, Note_on_c, 0, 62, 44
3, 791902, Note_on_c, 0, 62, 0
3, 791910, Note_on_c, 0, 63, 44
3, 791992, Note_on_c, 0, 63, 0
3, 792000, Note_on_c, 0, 65, 44
3, 792082, Note_on_c, 0, 65, 0
3, 792090, Note_on_c, 0, 67, 47
3, 792172, Note_on_c, 0, 67, 0
3, 792180, Note_on_c, 0, 68, 49
3, 792262, Note_on_c, 0, 68, 0
3, 792270, Note_on_c, 0, 70, 45
3, 792352, Note_on_c, 0, 70, 0
3, 792360, Note_on_c, 0, 72, 46
3, 792442, Note_on_c, 0, 72, 0
3, 792450, Note_on_c, 0, 74, 45
3, 792532, Note_on_c, 0, 74, 0
3, 792540, Note_on_c, 0, 75, 44
3, 792622, Note_on_c, 0, 75, 0
3, 792630, Note_on_c, 0, 77, 46
3, 792650, Note_on_c, 0, 46, 0
3, 792650, Note_on_c, 0, 34, 0
3, 792712, Note_on_c, 0, 77, 0
3, 792720, Note_on_c, 0, 79, 47
3, 792720, Note_on_c, 0, 39, 41
3, 792802, Note_on_c, 0, 79, 0
3, 792810, Note_on_c, 0, 70, 34
3, 792892, Note_on_c, 0, 70, 0
3, 792900, Note_on_c, 0, 67, 37
3, 792982, Note_on_c, 0, 67, 0
3, 792990, Note_on_c, 0, 63, 37
3, 793072, Note_on_c, 0, 63, 0
3, 793080, Note_on_c, 0, 58, 37
3, 793162, Note_on_c, 0, 58, 0
3, 793170, Note_on_c, 0, 60, 44
3, 793170, Note_on_c, 0, 60, 65
3, 793207, Note_on_c, 0, 39, 0
3, 793252, Note_on_c, 0, 60, 0
3, 793260, Note_on_c, 0, 61, 62
3, 793333, Note_on_c, 0, 60, 0
3, 793350, Note_on_c, 0, 63, 37
3, 793432, Note_on_c, 0, 63, 0
3, 793440, Note_on_c, 0, 65, 44
3, 793522, Note_on_c, 0, 65, 0
3, 793530, Note_on_c, 0, 67, 46
3, 793612, Note_on_c, 0, 67, 0
3, 793620, Note_on_c, 0, 68, 44
3, 793702, Note_on_c, 0, 68, 0
3, 793710, Note_on_c, 0, 70, 45
3, 793747, Note_on_c, 0, 61, 0
3, 793792, Note_on_c, 0, 70, 0
3, 793800, Note_on_c, 0, 72, 46
3, 793800, Note_on_c, 0, 60, 59
3, 793963, Note_on_c, 0, 60, 0
3, 793963, Note_on_c, 0, 72, 0
3, 793980, Note_on_c, 0, 63, 35
3, 793980, Note_on_c, 0, 51, 43
3, 794143, Note_on_c, 0, 51, 0
3, 794143, Note_on_c, 0, 63, 0
3, 794160, Note_on_c, 0, 65, 43
3, 794160, Note_on_c, 0, 53, 53
3, 794323, Note_on_c, 0, 53, 0
3, 794323, Note_on_c, 0, 65, 0
3, 794340, Note_on_c, 0, 67, 45
3, 794340, Note_on_c, 0, 55, 56
3, 794503, Note_on_c, 0, 55, 0
3, 794503, Note_on_c, 0, 67, 0
3, 794520, Note_on_c, 0, 68, 47
3, 794520, Note_on_c, 0, 56, 55
3, 794683, Note_on_c, 0, 56, 0
3, 794683, Note_on_c, 0, 68, 0
3, 794700, Note_on_c, 0, 70, 44
3, 794700, Note_on_c, 0, 58, 56
3, 794863, Note_on_c, 0, 58, 0
3, 794863, Note_on_c, 0, 70, 0
3, 794880, Note_on_c, 0, 72, 50
3, 794880, Note_on_c, 0, 60, 58
3, 795043, Note_on_c, 0, 60, 0
3, 795043, Note_on_c, 0, 72, 0
3, 795060, Note_on_c, 0, 65, 38
3, 795060, Note_on_c, 0, 53, 45
3, 795223, Note_on_c, 0, 53, 0
3, 795223, Note_on_c, 0, 65, 0
3, 795240, Note_on_c, 0, 67, 43
3, 795240, Note_on_c, 0, 55, 54
3, 795403, Note_on_c, 0, 55, 0
3, 795403, Note_on_c, 0, 67, 0
3, 795420, Note_on_c, 0, 68, 43
3, 795420, Note_on_c, 0, 56, 54
3, 795583, Note_on_c, 0, 56, 0
3, 795583, Note_on_c, 0, 68, 0
3, 795600, Note_on_c, 0, 70, 45
3, 795600, Note_on_c, 0, 58, 58
3, 795763, Note_on_c, 0, 58, 0
3, 795763, Note_on_c, 0, 70, 0
3, 795780, Note_on_c, 0, 72, 46
3, 795780, Note_on_c, 0, 60, 57
3, 795943, Note_on_c, 0, 60, 0
3, 795943, Note_on_c, 0, 72, 0
3, 795960, Note_on_c, 0, 77, 50
3, 795960, Note_on_c, 0, 66, 41
3, 795960, Note_on_c, 0, 68, 44
3, 795960, Note_on_c, 0, 72, 42
3, 795960, Note_on_c, 0, 65, 63
3, 795960, Note_on_c, 0, 54, 55
3, 795960, Note_on_c, 0, 56, 54
3, 795960, Note_on_c, 0, 60, 54
3, 796123, Note_on_c, 0, 65, 0
3, 796123, Note_on_c, 0, 77, 0
3, 796140, Note_on_c, 0, 75, 41
3, 796140, Note_on_c, 0, 63, 51
3, 796303, Note_on_c, 0, 63, 0
3, 796303, Note_on_c, 0, 75, 0
3, 796320, Note_on_c, 0, 77, 43
3, 796320, Note_on_c, 0, 65, 55
3, 796447, Note_on_c, 0, 72, 0
3, 796447, Note_on_c, 0, 60, 0
3, 796447, Note_on_c, 0, 66, 0
3, 796447, Note_on_c, 0, 54, 0
3, 796483, Note_on_c, 0, 77, 0
3, 796483, Note_on_c, 0, 65, 0
3, 796500, Note_on_c, 0, 75, 41
3, 796500, Note_on_c, 0, 65, 40
3, 796500, Note_on_c, 0, 63, 52
3, 796500, Note_on_c, 0, 53, 48
3, 796663, Note_on_c, 0, 63, 0
3, 796663, Note_on_c, 0, 75, 0
3, 796680, Note_on_c, 0, 72, 37
3, 796680, Note_on_c, 0, 60, 50
3, 796825, Note_on_c, 0, 56, 0
3, 796825, Note_on_c, 0, 65, 0
3, 796825, Note_on_c, 0, 68, 0
3, 796825, Note_on_c, 0, 53, 0
3, 796843, Note_on_c, 0, 72, 0
3, 796843, Note_on_c, 0, 60, 0
3, 796860, Note_on_c, 0, 70, 39
3, 796860, Note_on_c, 0, 64, 42
3, 796860, Note_on_c, 0, 68, 44
3, 796860, Note_on_c, 0, 58, 50
3, 796860, Note_on_c, 0, 52, 53
3, 796860, Note_on_c, 0, 56, 51
3, 797023, Note_on_c, 0, 56, 0
3, 797023, Note_on_c, 0, 58, 0
3, 797023, Note_on_c, 0, 70, 0
3, 797023, Note_on_c, 0, 64, 0
3, 797023, Note_on_c, 0, 68, 0
3, 797023, Note_on_c, 0, 52, 0
3, 797040, Note_on_c, 0, 72, 48
3, 797040, Note_on_c, 0, 63, 46
3, 797040, Note_on_c, 0, 68, 46
3, 797040, Note_on_c, 0, 60, 58
3, 797040, Note_on_c, 0, 51, 54
3, 797040, Note_on_c, 0, 56, 55
3, 798283, Note_on_c, 0, 56, 0
3, 798283, Note_on_c, 0, 60, 0
3, 798283, Note_on_c, 0, 72, 0
3, 798283, Note_on_c, 0, 63, 0
3, 798283, Note_on_c, 0, 68, 0
3, 798283, Note_on_c, 0, 51, 0
3, 798300, Note_on_c, 0, 63, 32
3, 798300, Note_on_c, 0, 51, 43
3, 798463, Note_on_c, 0, 51, 0
3, 798463, Note_on_c, 0, 63, 0
3, 798480, Note_on_c, 0, 65, 45
3, 798480, Note_on_c, 0, 53, 55
3, 798643, Note_on_c, 0, 53, 0
3, 798643, Note_on_c, 0, 65, 0
3, 798660, Note_on_c, 0, 67, 46
3, 798660, Note_on_c, 0, 63, 37
3, 798660, Note_on_c, 0, 55, 59
3, 798660, Note_on_c, 0, 51, 48
3, 798823, Note_on_c, 0, 55, 0
3, 798823, Note_on_c, 0, 67, 0
3, 798840, Note_on_c, 0, 68, 44
3, 798840, Note_on_c, 0, 56, 54
3, 799003, Note_on_c, 0, 56, 0
3, 799003, Note_on_c, 0, 68, 0
3, 799020, Note_on_c, 0, 70, 44
3, 799020, Note_on_c, 0, 58, 56
3, 799147, Note_on_c, 0, 51, 0
3, 799147, Note_on_c, 0, 63, 0
3, 799183, Note_on_c, 0, 58, 0
3, 799183, Note_on_c, 0, 70, 0
3, 799200, Note_on_c, 0, 72, 46
3, 799200, Note_on_c, 0, 62, 43
3, 799200, Note_on_c, 0, 60, 61
3, 799200, Note_on_c, 0, 50, 54
3, 799525, Note_on_c, 0, 60, 0
3, 799525, Note_on_c, 0, 72, 0
3, 799560, Note_on_c, 0, 67, 37
3, 799560, Note_on_c, 0, 55, 47
3, 799687, Note_on_c, 0, 50, 0
3, 799687, Note_on_c, 0, 62, 0
3, 799723, Note_on_c, 0, 55, 0
3, 799723, Note_on_c, 0, 67, 0
3, 799740, Note_on_c, 0, 68, 47
3, 799740, Note_on_c, 0, 65, 43
3, 799740, Note_on_c, 0, 56, 59
3, 799740, Note_on_c, 0, 53, 56
3, 799903, Note_on_c, 0, 56, 0
3, 799903, Note_on_c, 0, 68, 0
3, 799920, Note_on_c, 0, 70, 43
3, 799920, Note_on_c, 0, 58, 56
3, 800083, Note_on_c, 0, 58, 0
3, 800083, Note_on_c, 0, 70, 0
3, 800100, Note_on_c, 0, 72, 44
3, 800100, Note_on_c, 0, 60, 57
3, 800227, Note_on_c, 0, 53, 0
3, 800227, Note_on_c, 0, 65, 0
3, 800263, Note_on_c, 0, 60, 0
3, 800263, Note_on_c, 0, 72, 0
3, 800280, Note_on_c, 0, 80, 51
3, 800280, Note_on_c, 0, 72, 55
3, 800280, Note_on_c, 0, 75, 56
3, 800280, Note_on_c, 0, 68, 66
3, 800280, Note_on_c, 0, 60, 68
3, 800280, Note_on_c, 0, 63, 68
3, 800605, Note_on_c, 0, 68, 0
3, 800605, Note_on_c, 0, 80, 0
3, 800640, Note_on_c, 0, 79, 44
3, 800640, Note_on_c, 0, 67, 51
3, 800767, Note_on_c, 0, 72, 0
3, 800767, Note_on_c, 0, 60, 0
3, 800767, Note_on_c, 0, 75, 0
3, 800767, Note_on_c, 0, 63, 0
3, 800820, Note_on_c, 0, 71, 41
3, 800820, Note_on_c, 0, 59, 51
3, 800983, Note_on_c, 0, 79, 0
3, 800983, Note_on_c, 0, 67, 0
3, 801000, Note_on_c, 0, 75, 40
3, 801000, Note_on_c, 0, 63, 48
3, 801163, Note_on_c, 0, 63, 0
3, 801163, Note_on_c, 0, 75, 0
3, 801180, Note_on_c, 0, 74, 42
3, 801180, Note_on_c, 0, 62, 48
3, 801307, Note_on_c, 0, 59, 0
3, 801307, Note_on_c, 0, 71, 0
3, 801343, Note_on_c, 0, 62, 0
3, 801343, Note_on_c, 0, 74, 0
3, 801360, Note_on_c, 0, 75, 46
3, 801360, Note_on_c, 0, 72, 46
3, 801360, Note_on_c, 0, 63, 57
3, 801360, Note_on_c, 0, 60, 59
3, 801847, Note_on_c, 0, 60, 0
3, 801847, Note_on_c, 0, 72, 0
3, 801847, Note_on_c, 0, 63, 0
3, 801847, Note_on_c, 0, 75, 0
3, 801900, Note_on_c, 0, 36, 38
3, 802063, Note_on_c, 0, 36, 0
3, 802080, Note_on_c, 0, 67, 39
3, 802080, Note_on_c, 0, 63, 40
3, 802080, Note_on_c, 0, 67, 38
3, 802080, Note_on_c, 0, 55, 41
3, 802080, Note_on_c, 0, 55, 62
3, 802162, Note_on_c, 0, 55, 0
3, 802170, Note_on_c, 0, 48, 42
3, 802243, Note_on_c, 0, 67, 0
3, 802243, Note_on_c, 0, 55, 0
3, 802252, Note_on_c, 0, 48, 0
3, 802260, Note_on_c, 0, 69, 42
3, 802260, Note_on_c, 0, 57, 60
3, 802260, Note_on_c, 0, 57, 57
3, 802342, Note_on_c, 0, 57, 0
3, 802350, Note_on_c, 0, 55, 52
3, 802423, Note_on_c, 0, 69, 0
3, 802423, Note_on_c, 0, 57, 0
3, 802432, Note_on_c, 0, 55, 0
3, 802440, Note_on_c, 0, 71, 48
3, 802440, Note_on_c, 0, 59, 62
3, 802522, Note_on_c, 0, 59, 0
3, 802530, Note_on_c, 0, 55, 49
3, 802603, Note_on_c, 0, 71, 0
3, 802612, Note_on_c, 0, 55, 0
3, 802620, Note_on_c, 0, 72, 43
3, 802620, Note_on_c, 0, 60, 58
3, 802702, Note_on_c, 0, 60, 0
3, 802710, Note_on_c, 0, 55, 46
3, 802783, Note_on_c, 0, 72, 0
3, 802792, Note_on_c, 0, 55, 0
3, 802800, Note_on_c, 0, 74, 46
3, 802800, Note_on_c, 0, 62, 60
3, 802882, Note_on_c, 0, 62, 0
3, 802890, Note_on_c, 0, 55, 46
3, 802927, Note_on_c, 0, 67, 0
3, 802927, Note_on_c, 0, 63, 0
3, 802963, Note_on_c, 0, 74, 0
3, 802972, Note_on_c, 0, 55, 0
3, 802980, Note_on_c, 0, 65, 44
3, 802980, Note_on_c, 0, 71, 47
3, 802980, Note_on_c, 0, 75, 44
3, 802980, Note_on_c, 0, 63, 36
3, 803070, Note_on_c, 0, 59, 48
3, 803152, Note_on_c, 0, 59, 0
3, 803160, Note_on_c, 0, 55, 47
3, 803242, Note_on_c, 0, 55, 0
3, 803250, Note_on_c, 0, 59, 59
3, 803332, Note_on_c, 0, 59, 0
3, 803340, Note_on_c, 0, 55, 46
3, 803422, Note_on_c, 0, 55, 0
3, 803430, Note_on_c, 0, 43, 40
3, 803467, Note_on_c, 0, 63, 0
3, 803467, Note_on_c, 0, 75, 0
3, 803467, Note_on_c, 0, 71, 0
3, 803467, Note_on_c, 0, 65, 0
3, 803512, Note_on_c, 0, 43, 0
3, 803520, Note_on_c, 0, 67, 44
3, 803520, Note_on_c, 0, 72, 44
3, 803520, Note_on_c, 0, 60, 42
3, 803610, Note_on_c, 0, 36, 48
3, 803692, Note_on_c, 0, 36, 0
3, 803700, Note_on_c, 0, 55, 64
3, 803782, Note_on_c, 0, 55, 0
3, 803790, Note_on_c, 0, 60, 62
3, 803872, Note_on_c, 0, 60, 0
3, 803880, Note_on_c, 0, 65, 59
3, 803962, Note_on_c, 0, 65, 0
3, 803970, Note_on_c, 0, 55, 42
3, 804007, Note_on_c, 0, 60, 0
3, 804007, Note_on_c, 0, 72, 0
3, 804007, Note_on_c, 0, 67, 0
3, 804052, Note_on_c, 0, 55, 0
3, 804060, Note_on_c, 0, 67, 39
3, 804060, Note_on_c, 0, 67, 53
3, 804060, Note_on_c, 0, 63, 65
3, 804142, Note_on_c, 0, 63, 0
3, 804150, Note_on_c, 0, 60, 51
3, 804232, Note_on_c, 0, 60, 0
3, 804240, Note_on_c, 0, 55, 47
3, 804303, Note_on_c, 0, 67, 0
3, 804322, Note_on_c, 0, 55, 0
3, 804330, Note_on_c, 0, 69, 44
3, 804330, Note_on_c, 0, 57, 36
3, 804330, Note_on_c, 0, 60, 60
3, 804412, Note_on_c, 0, 60, 0
3, 804420, Note_on_c, 0, 55, 46
3, 804502, Note_on_c, 0, 55, 0
3, 804510, Note_on_c, 0, 48, 45
3, 804573, Note_on_c, 0, 57, 0
3, 804573, Note_on_c, 0, 69, 0
3, 804573, Note_on_c, 0, 67, 0
3, 804592, Note_on_c, 0, 48, 0
3, 804600, Note_on_c, 0, 59, 48
3, 804600, Note_on_c, 0, 71, 49
3, 804600, Note_on_c, 0, 67, 54
3, 804600, Note_on_c, 0, 43, 46
3, 804682, Note_on_c, 0, 43, 0
3, 804690, Note_on_c, 0, 50, 58
3, 804772, Note_on_c, 0, 50, 0
3, 804780, Note_on_c, 0, 55, 61
3, 804843, Note_on_c, 0, 71, 0
3, 804843, Note_on_c, 0, 59, 0
3, 804862, Note_on_c, 0, 55, 0
3, 804870, Note_on_c, 0, 60, 47
3, 804870, Note_on_c, 0, 72, 44
3, 804870, Note_on_c, 0, 50, 48
3, 804952, Note_on_c, 0, 50, 0
3, 804960, Note_on_c, 0, 55, 57
3, 805042, Note_on_c, 0, 55, 0
3, 805050, Note_on_c, 0, 62, 61
3, 805087, Note_on_c, 0, 67, 0
3, 805113, Note_on_c, 0, 72, 0
3, 805113, Note_on_c, 0, 60, 0
3, 805132, Note_on_c, 0, 62, 0
3, 805140, Note_on_c, 0, 62, 49
3, 805140, Note_on_c, 0, 74, 48
3, 805140, Note_on_c, 0, 65, 46
3, 805140, Note_on_c, 0, 68, 45
3, 805230, Note_on_c, 0, 38, 47
3, 805312, Note_on_c, 0, 38, 0
3, 805320, Note_on_c, 0, 53, 64
3, 805402, Note_on_c, 0, 53, 0
3, 805410, Note_on_c, 0, 56, 60
3, 805492, Note_on_c, 0, 56, 0
3, 805500, Note_on_c, 0, 62, 62
3, 805582, Note_on_c, 0, 62, 0
3, 805590, Note_on_c, 0, 60, 49
3, 805627, Note_on_c, 0, 74, 0
3, 805627, Note_on_c, 0, 68, 0
3, 805627, Note_on_c, 0, 65, 0
3, 805627, Note_on_c, 0, 62, 0
3, 805672, Note_on_c, 0, 60, 0
3, 805680, Note_on_c, 0, 67, 45
3, 805680, Note_on_c, 0, 71, 42
3, 805680, Note_on_c, 0, 62, 41
3, 805680, Note_on_c, 0, 59, 53
3, 805680, Note_on_c, 0, 55, 51
3, 806167, Note_on_c, 0, 55, 0
3, 806167, Note_on_c, 0, 67, 0
3, 806167, Note_on_c, 0, 71, 0
3, 806167, Note_on_c, 0, 62, 0
3, 806167, Note_on_c, 0, 59, 0
3, 806220, Note_on_c, 0, 34, 39
3, 806383, Note_on_c, 0, 34, 0
3, 806400, Note_on_c, 0, 65, 39
3, 806400, Note_on_c, 0, 61, 38
3, 806400, Note_on_c, 0, 65, 40
3, 806400, Note_on_c, 0, 53, 46
3, 806400, Note_on_c, 0, 53, 62
3, 806482, Note_on_c, 0, 53, 0
3, 806490, Note_on_c, 0, 46, 43
3, 806563, Note_on_c, 0, 65, 0
3, 806563, Note_on_c, 0, 53, 0
3, 806572, Note_on_c, 0, 46, 0
3, 806580, Note_on_c, 0, 67, 45
3, 806580, Note_on_c, 0, 55, 62
3, 806580, Note_on_c, 0, 55, 59
3, 806662, Note_on_c, 0, 55, 0
3, 806670, Note_on_c, 0, 53, 50
3, 806743, Note_on_c, 0, 67, 0
3, 806743, Note_on_c, 0, 55, 0
3, 806752, Note_on_c, 0, 53, 0
3, 806760, Note_on_c, 0, 69, 46
3, 806760, Note_on_c, 0, 57, 62
3, 806842, Note_on_c, 0, 57, 0
3, 806850, Note_on_c, 0, 53, 46
3, 806923, Note_on_c, 0, 69, 0
3, 806932, Note_on_c, 0, 53, 0
3, 806940, Note_on_c, 0, 70, 47
3, 806940, Note_on_c, 0, 58, 60
3, 807022, Note_on_c, 0, 58, 0
3, 807030, Note_on_c, 0, 53, 48
3, 807103, Note_on_c, 0, 70, 0
3, 807112, Note_on_c, 0, 53, 0
3, 807120, Note_on_c, 0, 72, 44
3, 807120, Note_on_c, 0, 60, 61
3, 807202, Note_on_c, 0, 60, 0
3, 807210, Note_on_c, 0, 53, 46
3, 807247, Note_on_c, 0, 65, 0
3, 807247, Note_on_c, 0, 61, 0
3, 807283, Note_on_c, 0, 72, 0
3, 807292, Note_on_c, 0, 53, 0
3, 807300, Note_on_c, 0, 63, 43
3, 807300, Note_on_c, 0, 69, 45
3, 807300, Note_on_c, 0, 73, 43
3, 807300, Note_on_c, 0, 61, 37
3, 807390, Note_on_c, 0, 57, 49
3, 807472, Note_on_c, 0, 57, 0
3, 807480, Note_on_c, 0, 53, 47
3, 807562, Note_on_c, 0, 53, 0
3, 807570, Note_on_c, 0, 57, 56
3, 807652, Note_on_c, 0, 57, 0
3, 807660, Note_on_c, 0, 53, 49
3, 807742, Note_on_c, 0, 53, 0
3, 807750, Note_on_c, 0, 41, 37
3, 807787, Note_on_c, 0, 61, 0
3, 807787, Note_on_c, 0, 73, 0
3, 807787, Note_on_c, 0, 69, 0
3, 807787, Note_on_c, 0, 63, 0
3, 807832, Note_on_c, 0, 41, 0
3, 807840, Note_on_c, 0, 70, 43
3, 807840, Note_on_c, 0, 58, 49
3, 807840, Note_on_c, 0, 65, 51
3, 807930, Note_on_c, 0, 34, 48
3, 808012, Note_on_c, 0, 34, 0
3, 808020, Note_on_c, 0, 53, 65
3, 808102, Note_on_c, 0, 53, 0
3, 808110, Note_on_c, 0, 58, 59
3, 808192, Note_on_c, 0, 58, 0
3, 808200, Note_on_c, 0, 63, 61
3, 808282, Note_on_c, 0, 63, 0
3, 808290, Note_on_c, 0, 53, 41
3, 808327, Note_on_c, 0, 58, 0
3, 808327, Note_on_c, 0, 65, 0
3, 808327, Note_on_c, 0, 70, 0
3, 808372, Note_on_c, 0, 53, 0
3, 808380, Note_on_c, 0, 65, 41
3, 808380, Note_on_c, 0, 65, 47
3, 808380, Note_on_c, 0, 61, 64
3, 808462, Note_on_c, 0, 61, 0
3, 808470, Note_on_c, 0, 58, 51
3, 808552, Note_on_c, 0, 58, 0
3, 808560, Note_on_c, 0, 53, 45
3, 808623, Note_on_c, 0, 65, 0
3, 808642, Note_on_c, 0, 53, 0
3, 808650, Note_on_c, 0, 67, 43
3, 808650, Note_on_c, 0, 55, 35
3, 808650, Note_on_c, 0, 58, 59
3, 808732, Note_on_c, 0, 58, 0
3, 808740, Note_on_c, 0, 53, 45
3, 808822, Note_on_c, 0, 53, 0
3, 808830, Note_on_c, 0, 46, 41
3, 808893, Note_on_c, 0, 55, 0
3, 808893, Note_on_c, 0, 67, 0
3, 808893, Note_on_c, 0, 65, 0
3, 808912, Note_on_c, 0, 46, 0
3, 808920, Note_on_c, 0, 57, 47
3, 808920, Note_on_c, 0, 69, 48
3, 808920, Note_on_c, 0, 65, 53
3, 808920, Note_on_c, 0, 41, 48
3, 809002, Note_on_c, 0, 41, 0
3, 809010, Note_on_c, 0, 48, 60
3, 809092, Note_on_c, 0, 48, 0
3, 809100, Note_on_c, 0, 53, 59
3, 809163, Note_on_c, 0, 69, 0
3, 809163, Note_on_c, 0, 57, 0
3, 809182, Note_on_c, 0, 53, 0
3, 809190, Note_on_c, 0, 58, 45
3, 809190, Note_on_c, 0, 70, 43
3, 809190, Note_on_c, 0, 48, 48
3, 809272, Note_on_c, 0, 48, 0
3, 809280, Note_on_c, 0, 53, 57
3, 809362, Note_on_c, 0, 53, 0
3, 809370, Note_on_c, 0, 60, 61
3, 809407, Note_on_c, 0, 65, 0
3, 809433, Note_on_c, 0, 70, 0
3, 809433, Note_on_c, 0, 58, 0
3, 809452, Note_on_c, 0, 60, 0
3, 809460, Note_on_c, 0, 60, 48
3, 809460, Note_on_c, 0, 72, 47
3, 809460, Note_on_c, 0, 63, 44
3, 809460, Note_on_c, 0, 66, 47
3, 809550, Note_on_c, 0, 36, 49
3, 809632, Note_on_c, 0, 36, 0
3, 809640, Note_on_c, 0, 54, 66
3, 809722, Note_on_c, 0, 54, 0
3, 809730, Note_on_c, 0, 58, 61
3, 809812, Note_on_c, 0, 58, 0
3, 809820, Note_on_c, 0, 63, 59
3, 809902, Note_on_c, 0, 63, 0
3, 809910, Note_on_c, 0, 58, 49
3, 809947, Note_on_c, 0, 60, 0
3, 809947, Note_on_c, 0, 66, 0
3, 809947, Note_on_c, 0, 72, 0
3, 809947, Note_on_c, 0, 63, 0
3, 809992, Note_on_c, 0, 58, 0
3, 810000, Note_on_c, 0, 60, 42
3, 810000, Note_on_c, 0, 65, 45
3, 810000, Note_on_c, 0, 69, 43
3, 810000, Note_on_c, 0, 53, 52
3, 810000, Note_on_c, 0, 57, 52
3, 810487, Note_on_c, 0, 57, 0
3, 810487, Note_on_c, 0, 60, 0
3, 810487, Note_on_c, 0, 65, 0
3, 810487, Note_on_c, 0, 69, 0
3, 810487, Note_on_c, 0, 53, 0
3, 810540, Note_on_c, 0, 65, 38
3, 810540, Note_on_c, 0, 63, 63
3, 810703, Note_on_c, 0, 63, 0
3, 810720, Note_on_c, 0, 61, 53
3, 810865, Note_on_c, 0, 65, 0
3, 810883, Note_on_c, 0, 61, 0
3, 810900, Note_on_c, 0, 63, 39
3, 810900, Note_on_c, 0, 60, 50
3, 811063, Note_on_c, 0, 60, 0
3, 811063, Note_on_c, 0, 63, 0
3, 811080, Control_c, 0, 64, 127
3, 811080, Note_on_c, 0, 61, 58
3, 811080, Note_on_c, 0, 53, 61
3, 811080, Note_on_c, 0, 58, 58
3, 811243, Note_on_c, 0, 58, 0
3, 811243, Note_on_c, 0, 53, 0
3, 811243, Note_on_c, 0, 61, 0
3, 811260, Note_on_c, 0, 78, 39
3, 811260, Note_on_c, 0, 70, 41
3, 811260, Note_on_c, 0, 73, 39
3, 811260, Note_on_c, 0, 66, 61
3, 811260, Note_on_c, 0, 58, 58
3, 811260, Note_on_c, 0, 61, 55
3, 811423, Note_on_c, 0, 66, 0
3, 811423, Note_on_c, 0, 78, 0
3, 811440, Note_on_c, 0, 77, 39
3, 811440, Note_on_c, 0, 65, 50
3, 811585, Note_on_c, 0, 70, 0
3, 811585, Note_on_c, 0, 58, 0
3, 811585, Note_on_c, 0, 73, 0
3, 811585, Note_on_c, 0, 61, 0
3, 811603, Note_on_c, 0, 77, 0
3, 811603, Note_on_c, 0, 65, 0
3, 811620, Note_on_c, 0, 77, 45
3, 811620, Note_on_c, 0, 69, 38
3, 811620, Note_on_c, 0, 65, 56
3, 811620, Note_on_c, 0, 57, 48
3, 811783, Note_on_c, 0, 65, 0
3, 811783, Note_on_c, 0, 77, 0
3, 811800, Note_on_c, 0, 73, 39
3, 811800, Note_on_c, 0, 61, 46
3, 811963, Note_on_c, 0, 61, 0
3, 811963, Note_on_c, 0, 73, 0
3, 811980, Note_on_c, 0, 72, 39
3, 811980, Note_on_c, 0, 60, 51
3, 811980, Control_c, 0, 64, 0
3, 812107, Note_on_c, 0, 57, 0
3, 812107, Note_on_c, 0, 69, 0
3, 812143, Note_on_c, 0, 60, 0
3, 812143, Note_on_c, 0, 72, 0
3, 812160, Note_on_c, 0, 70, 43
3, 812160, Note_on_c, 0, 70, 44
3, 812160, Control_c, 0, 64, 127
3, 812160, Note_on_c, 0, 58, 52
3, 812160, Note_on_c, 0, 58, 56
3, 812403, Note_on_c, 0, 58, 0
3, 812403, Note_on_c, 0, 70, 0
3, 812403, Note_on_c, 0, 58, 0
3, 812403, Note_on_c, 0, 70, 0
3, 812430, Note_on_c, 0, 72, 46
3, 812430, Note_on_c, 0, 72, 44
3, 812430, Note_on_c, 0, 60, 54
3, 812430, Note_on_c, 0, 60, 54
3, 812512, Note_on_c, 0, 60, 0
3, 812512, Note_on_c, 0, 72, 0
3, 812512, Note_on_c, 0, 60, 0
3, 812512, Note_on_c, 0, 72, 0
3, 812520, Note_on_c, 0, 73, 47
3, 812520, Note_on_c, 0, 73, 46
3, 812520, Note_on_c, 0, 61, 53
3, 812520, Note_on_c, 0, 61, 56
3, 812683, Note_on_c, 0, 61, 0
3, 812683, Note_on_c, 0, 73, 0
3, 812683, Note_on_c, 0, 61, 0
3, 812683, Note_on_c, 0, 73, 0
3, 812700, Note_on_c, 0, 75, 48
3, 812700, Note_on_c, 0, 67, 45
3, 812700, Note_on_c, 0, 73, 45
3, 812700, Note_on_c, 0, 63, 58
3, 812700, Note_on_c, 0, 55, 56
3, 812700, Note_on_c, 0, 61, 58
3, 812863, Note_on_c, 0, 61, 0
3, 812863, Note_on_c, 0, 63, 0
3, 812863, Note_on_c, 0, 75, 0
3, 812863, Note_on_c, 0, 67, 0
3, 812863, Note_on_c, 0, 73, 0
3, 812863, Note_on_c, 0, 55, 0
3, 812880, Note_on_c, 0, 77, 44
3, 812880, Note_on_c, 0, 68, 43
3, 812880, Note_on_c, 0, 73, 41
3, 812880, Note_on_c, 0, 65, 58
3, 812880, Note_on_c, 0, 56, 55
3, 812880, Note_on_c, 0, 61, 53
3, 813043, Note_on_c, 0, 61, 0
3, 813043, Note_on_c, 0, 65, 0
3, 813043, Note_on_c, 0, 77, 0
3, 813043, Note_on_c, 0, 68, 0
3, 813043, Note_on_c, 0, 73, 0
3, 813043, Note_on_c, 0, 56, 0
3, 813060, Note_on_c, 0, 79, 47
3, 813060, Note_on_c, 0, 70, 43
3, 813060, Note_on_c, 0, 73, 43
3, 813060, Note_on_c, 0, 67, 54
3, 813060, Note_on_c, 0, 58, 52
3, 813060, Note_on_c, 0, 61, 54
3, 813060, Control_c, 0, 64, 0
3, 813223, Note_on_c, 0, 61, 0
3, 813223, Note_on_c, 0, 67, 0
3, 813223, Note_on_c, 0, 79, 0
3, 813223, Note_on_c, 0, 70, 0
3, 813223, Note_on_c, 0, 73, 0
3, 813223, Note_on_c, 0, 58, 0
3, 813240, Note_on_c, 0, 80, 47
3, 813240, Note_on_c, 0, 72, 49
3, 813240, Note_on_c, 0, 75, 47
3, 813240, Control_c, 0, 64, 127
3, 813240, Note_on_c, 0, 68, 58
3, 813240, Note_on_c, 0, 60, 59
3, 813240, Note_on_c, 0, 63, 57
3, 813565, Note_on_c, 0, 63, 0
3, 813565, Note_on_c, 0, 68, 0
3, 813565, Note_on_c, 0, 80, 0
3, 813565, Note_on_c, 0, 72, 0
3, 813565, Note_on_c, 0, 75, 0
3, 813565, Note_on_c, 0, 60, 0
3, 813600, Note_on_c, 0, 75, 37
3, 813600, Note_on_c, 0, 68, 39
3, 813600, Note_on_c, 0, 72, 39
3, 813600, Note_on_c, 0, 63, 47
3, 813600, Note_on_c, 0, 56, 47
3, 813600, Note_on_c, 0, 60, 50
3, 813763, Note_on_c, 0, 60, 0
3, 813763, Note_on_c, 0, 72, 0
3, 813763, Note_on_c, 0, 68, 0
3, 813763, Note_on_c, 0, 56, 0
3, 813780, Note_on_c, 0, 66, 38
3, 813780, Note_on_c, 0, 68, 32
3, 813780, Note_on_c, 0, 54, 49
3, 813780, Note_on_c, 0, 56, 43
3, 813943, Note_on_c, 0, 54, 0
3, 813943, Note_on_c, 0, 75, 0
3, 813943, Note_on_c, 0, 63, 0
3, 813943, Note_on_c, 0, 66, 0
3, 813960, Note_on_c, 0, 72, 37
3, 813960, Note_on_c, 0, 65, 39
3, 813960, Note_on_c, 0, 60, 50
3, 813960, Note_on_c, 0, 53, 51
3, 814123, Note_on_c, 0, 53, 0
3, 814123, Note_on_c, 0, 65, 0
3, 814123, Note_on_c, 0, 72, 0
3, 814123, Note_on_c, 0, 60, 0
3, 814140, Note_on_c, 0, 70, 40
3, 814140, Note_on_c, 0, 64, 42
3, 814140, Control_c, 0, 64, 0
3, 814140, Note_on_c, 0, 58, 48
3, 814140, Note_on_c, 0, 52, 51
3, 814267, Note_on_c, 0, 68, 0
3, 814267, Note_on_c, 0, 56, 0
3, 814303, Note_on_c, 0, 58, 0
3, 814303, Note_on_c, 0, 70, 0
3, 814303, Note_on_c, 0, 64, 0
3, 814303, Note_on_c, 0, 52, 0
3, 814320, Note_on_c, 0, 72, 46
3, 814320, Note_on_c, 0, 63, 49
3, 814320, Note_on_c, 0, 68, 50
3, 814320, Control_c, 0, 64, 127
3, 814320, Note_on_c, 0, 60, 58
3, 814320, Note_on_c, 0, 51, 61
3, 814320, Note_on_c, 0, 56, 61
3, 814645, Note_on_c, 0, 60, 0
3, 814645, Note_on_c, 0, 72, 0
3, 814680, Note_on_c, 0, 63, 33
3, 814680, Note_on_c, 0, 51, 43
3, 814807, Note_on_c, 0, 63, 0
3, 814807, Note_on_c, 0, 51, 0
3, 814807, Note_on_c, 0, 68, 0
3, 814807, Note_on_c, 0, 56, 0
3, 814843, Note_on_c, 0, 63, 0
3, 814843, Note_on_c, 0, 51, 0
3, 814860, Note_on_c, 0, 65, 46
3, 814860, Note_on_c, 0, 60, 36
3, 814860, Note_on_c, 0, 53, 58
3, 814860, Note_on_c, 0, 50, 46
3, 815023, Note_on_c, 0, 53, 0
3, 815023, Note_on_c, 0, 65, 0
3, 815040, Note_on_c, 0, 67, 43
3, 815040, Control_c, 0, 64, 0
3, 815040, Note_on_c, 0, 55, 55
3, 815203, Note_on_c, 0, 55, 0
3, 815203, Note_on_c, 0, 67, 0
3, 815220, Note_on_c, 0, 68, 45
3, 815220, Note_on_c, 0, 56, 57
3, 815347, Note_on_c, 0, 50, 0
3, 815347, Note_on_c, 0, 60, 0
3, 815383, Note_on_c, 0, 56, 0
3, 815383, Note_on_c, 0, 68, 0
3, 815400, Note_on_c, 0, 72, 49
3, 815400, Note_on_c, 0, 63, 53
3, 815400, Note_on_c, 0, 68, 54
3, 815400, Control_c, 0, 64, 127
3, 815400, Note_on_c, 0, 60, 61
3, 815400, Note_on_c, 0, 51, 63
3, 815400, Note_on_c, 0, 56, 62
3, 815563, Note_on_c, 0, 60, 0
3, 815563, Note_on_c, 0, 72, 0
3, 815580, Note_on_c, 0, 68, 38
3, 815580, Note_on_c, 0, 56, 47
3, 815743, Note_on_c, 0, 68, 0
3, 815743, Note_on_c, 0, 56, 0
3, 815760, Note_on_c, 0, 70, 45
3, 815760, Note_on_c, 0, 58, 56
3, 815887, Note_on_c, 0, 68, 0
3, 815887, Note_on_c, 0, 63, 0
3, 815887, Note_on_c, 0, 51, 0
3, 815887, Note_on_c, 0, 56, 0
3, 815923, Note_on_c, 0, 70, 0
3, 815923, Note_on_c, 0, 58, 0
3, 815940, Note_on_c, 0, 72, 47
3, 815940, Note_on_c, 0, 68, 45
3, 815940, Note_on_c, 0, 60, 57
3, 815940, Note_on_c, 0, 56, 53
3, 816103, Note_on_c, 0, 60, 0
3, 816103, Note_on_c, 0, 72, 0
3, 816120, Note_on_c, 0, 73, 43
3, 816120, Control_c, 0, 64, 0
3, 816120, Note_on_c, 0, 61, 57
3, 816283, Note_on_c, 0, 61, 0
3, 816283, Note_on_c, 0, 73, 0
3, 816300, Note_on_c, 0, 75, 45
3, 816300, Note_on_c, 0, 63, 58
3, 816427, Note_on_c, 0, 56, 0
3, 816427, Note_on_c, 0, 68, 0
3, 816463, Note_on_c, 0, 63, 0
3, 816463, Note_on_c, 0, 75, 0
3, 816480, Note_on_c, 0, 77, 50
3, 816480, Note_on_c, 0, 69, 53
3, 816480, Note_on_c, 0, 75, 51
3, 816480, Control_c, 0, 64, 127
3, 816480, Note_on_c, 0, 65, 59
3, 816480, Note_on_c, 0, 57, 63
3, 816480, Note_on_c, 0, 63, 65
3, 816805, Note_on_c, 0, 65, 0
3, 816805, Note_on_c, 0, 77, 0
3, 816840, Note_on_c, 0, 72, 36
3, 816840, Note_on_c, 0, 60, 49
3, 816967, Note_on_c, 0, 69, 0
3, 816967, Note_on_c, 0, 57, 0
3, 816967, Note_on_c, 0, 75, 0
3, 816967, Note_on_c, 0, 63, 0
3, 817003, Note_on_c, 0, 72, 0
3, 817003, Note_on_c, 0, 60, 0
3, 817020, Note_on_c, 0, 73, 45
3, 817020, Note_on_c, 0, 70, 38
3, 817020, Control_c, 0, 64, 0
3, 817020, Note_on_c, 0, 61, 58
3, 817020, Note_on_c, 0, 58, 50
3, 817183, Note_on_c, 0, 61, 0
3, 817183, Note_on_c, 0, 73, 0
3, 817200, Note_on_c, 0, 75, 44
3, 817200, Note_on_c, 0, 63, 56
3, 817345, Note_on_c, 0, 58, 0
3, 817345, Note_on_c, 0, 70, 0
3, 817363, Note_on_c, 0, 63, 0
3, 817363, Note_on_c, 0, 75, 0
3, 817380, Note_on_c, 0, 77, 46
3, 817380, Note_on_c, 0, 73, 44
3, 817380, Note_on_c, 0, 65, 56
3, 817380, Note_on_c, 0, 61, 54
3, 817543, Note_on_c, 0, 61, 0
3, 817543, Note_on_c, 0, 73, 0
3, 817543, Note_on_c, 0, 65, 0
3, 817543, Note_on_c, 0, 77, 0
3, 817560, Note_on_c, 0, 73, 52
3, 817560, Note_on_c, 0, 85, 54
3, 817560, Note_on_c, 0, 77, 53
3, 817560, Note_on_c, 0, 80, 52
3, 817560, Control_c, 0, 64, 127
3, 817560, Note_on_c, 0, 61, 52
3, 817560, Note_on_c, 0, 65, 64
3, 817560, Note_on_c, 0, 68, 66
3, 817885, Note_on_c, 0, 61, 0
3, 817885, Note_on_c, 0, 85, 0
3, 817885, Note_on_c, 0, 73, 0
3, 817920, Note_on_c, 0, 72, 42
3, 817920, Note_on_c, 0, 84, 40
3, 817920, Note_on_c, 0, 60, 49
3, 818047, Note_on_c, 0, 68, 0
3, 818047, Note_on_c, 0, 80, 0
3, 818047, Note_on_c, 0, 77, 0
3, 818047, Note_on_c, 0, 65, 0
3, 818100, Note_on_c, 0, 73, 37
3, 818100, Note_on_c, 0, 75, 41
3, 818100, Control_c, 0, 64, 0
3, 818100, Note_on_c, 0, 61, 49
3, 818100, Note_on_c, 0, 63, 48
3, 818263, Note_on_c, 0, 84, 0
3, 818263, Note_on_c, 0, 60, 0
3, 818263, Note_on_c, 0, 72, 0
3, 818280, Note_on_c, 0, 65, 35
3, 818280, Note_on_c, 0, 77, 38
3, 818280, Note_on_c, 0, 53, 45
3, 818443, Note_on_c, 0, 53, 0
3, 818443, Note_on_c, 0, 77, 0
3, 818443, Note_on_c, 0, 65, 0
3, 818460, Note_on_c, 0, 63, 40
3, 818460, Note_on_c, 0, 75, 39
3, 818460, Note_on_c, 0, 51, 47
3, 818587, Note_on_c, 0, 61, 0
3, 818587, Note_on_c, 0, 63, 0
3, 818587, Note_on_c, 0, 73, 0
3, 818587, Note_on_c, 0, 75, 0
3, 818623, Note_on_c, 0, 75, 0
3, 818623, Note_on_c, 0, 51, 0
3, 818623, Note_on_c, 0, 63, 0
3, 818640, Note_on_c, 0, 68, 48
3, 818640, Note_on_c, 0, 72, 51
3, 818640, Note_on_c, 0, 75, 51
3, 818640, Note_on_c, 0, 80, 51
3, 818640, Control_c, 0, 64, 127
3, 818640, Note_on_c, 0, 56, 69
3, 818640, Note_on_c, 0, 60, 67
3, 818640, Note_on_c, 0, 63, 70
3, 819180, Control_c, 0, 64, 0
3, 819343, Note_on_c, 0, 63, 0
3, 819343, Note_on_c, 0, 60, 0
3, 819343, Note_on_c, 0, 80, 0
3, 819343, Note_on_c, 0, 68, 0
3, 819343, Note_on_c, 0, 72, 0
3, 819343, Note_on_c, 0, 75, 0
3, 819343, Note_on_c, 0, 56, 0
3, 819720, Note_on_c, 0, 69, 44
3, 819720, Note_on_c, 0, 60, 36
3, 819720, Note_on_c, 0, 66, 37
3, 819720, Note_on_c, 0, 52, 53
3, 819720, Note_on_c, 0, 64, 50
3, 819802, Note_on_c, 0, 69, 0
3, 819809, Note_on_c, 0, 52, 0
3, 819809, Note_on_c, 0, 64, 0
3, 819810, Note_on_c, 0, 71, 42
3, 819883, Note_on_c, 0, 60, 0
3, 819883, Note_on_c, 0, 66, 0
3, 819892, Note_on_c, 0, 71, 0
3, 819900, Note_on_c, 0, 69, 40
3, 819982, Note_on_c, 0, 69, 0
3, 819990, Note_on_c, 0, 71, 43
3, 820072, Note_on_c, 0, 71, 0
3, 820080, Note_on_c, 0, 68, 39
3, 820162, Note_on_c, 0, 68, 0
3, 820170, Note_on_c, 0, 69, 42
3, 820252, Note_on_c, 0, 69, 0
3, 820260, Note_on_c, 0, 68, 43
3, 820342, Note_on_c, 0, 68, 0
3, 820350, Note_on_c, 0, 69, 44
3, 820432, Note_on_c, 0, 69, 0
3, 820440, Note_on_c, 0, 68, 39
3, 820522, Note_on_c, 0, 68, 0
3, 820530, Note_on_c, 0, 69, 45
3, 820612, Note_on_c, 0, 69, 0
3, 820620, Note_on_c, 0, 66, 38
3, 820702, Note_on_c, 0, 66, 0
3, 820710, Note_on_c, 0, 69, 45
3, 820792, Note_on_c, 0, 69, 0
3, 820800, Note_on_c, 0, 68, 46
3, 820882, Note_on_c, 0, 68, 0
3, 820890, Note_on_c, 0, 69, 45
3, 820972, Note_on_c, 0, 69, 0
3, 820980, Note_on_c, 0, 68, 40
3, 821062, Note_on_c, 0, 68, 0
3, 821070, Note_on_c, 0, 69, 44
3, 821152, Note_on_c, 0, 69, 0
3, 821160, Note_on_c, 0, 63, 38
3, 821242, Note_on_c, 0, 63, 0
3, 821250, Note_on_c, 0, 69, 50
3, 821332, Note_on_c, 0, 69, 0
3, 821340, Note_on_c, 0, 64, 42
3, 821422, Note_on_c, 0, 64, 0
3, 821430, Note_on_c, 0, 68, 45
3, 821512, Note_on_c, 0, 68, 0
3, 821520, Note_on_c, 0, 66, 41
3, 821602, Note_on_c, 0, 66, 0
3, 821610, Note_on_c, 0, 69, 44
3, 821692, Note_on_c, 0, 69, 0
3, 821700, Note_on_c, 0, 68, 42
3, 821782, Note_on_c, 0, 68, 0
3, 821790, Note_on_c, 0, 69, 46
3, 821872, Note_on_c, 0, 69, 0
3, 821880, Note_on_c, 0, 69, 46
3, 821962, Note_on_c, 0, 69, 0
3, 821970, Note_on_c, 0, 71, 43
3, 822052, Note_on_c, 0, 71, 0
3, 822060, Note_on_c, 0, 69, 42
3, 822142, Note_on_c, 0, 69, 0
3, 822150, Note_on_c, 0, 71, 45
3, 822232, Note_on_c, 0, 71, 0
3, 822240, Note_on_c, 0, 68, 41
3, 822322, Note_on_c, 0, 68, 0
3, 822330, Note_on_c, 0, 69, 42
3, 822412, Note_on_c, 0, 69, 0
3, 822420, Note_on_c, 0, 68, 45
3, 822420, Note_on_c, 0, 73, 49
3, 822420, Note_on_c, 0, 85, 50
3, 822502, Note_on_c, 0, 68, 0
3, 822509, Note_on_c, 0, 85, 0
3, 822509, Note_on_c, 0, 73, 0
3, 822510, Note_on_c, 0, 69, 45
3, 822592, Note_on_c, 0, 69, 0
3, 822600, Note_on_c, 0, 68, 41
3, 822682, Note_on_c, 0, 68, 0
3, 822690, Note_on_c, 0, 69, 46
3, 822772, Note_on_c, 0, 69, 0
3, 822780, Note_on_c, 0, 66, 39
3, 822862, Note_on_c, 0, 66, 0
3, 822870, Note_on_c, 0, 69, 44
3, 822952, Note_on_c, 0, 69, 0
3, 822960, Note_on_c, 0, 68, 44
3, 823042, Note_on_c, 0, 68, 0
3, 823050, Note_on_c, 0, 69, 45
3, 823132, Note_on_c, 0, 69, 0
3, 823140, Note_on_c, 0, 68, 40
3, 823140, Note_on_c, 0, 75, 50
3, 823140, Note_on_c, 0, 87, 47
3, 823222, Note_on_c, 0, 68, 0
3, 823229, Note_on_c, 0, 87, 0
3, 823229, Note_on_c, 0, 75, 0
3, 823230, Note_on_c, 0, 69, 43
3, 823312, Note_on_c, 0, 69, 0
3, 823320, Note_on_c, 0, 63, 37
3, 823402, Note_on_c, 0, 63, 0
3, 823410, Note_on_c, 0, 69, 50
3, 823492, Note_on_c, 0, 69, 0
3, 823500, Note_on_c, 0, 64, 40
3, 823582, Note_on_c, 0, 64, 0
3, 823590, Note_on_c, 0, 68, 47
3, 823672, Note_on_c, 0, 68, 0
3, 823680, Note_on_c, 0, 66, 43
3, 823762, Note_on_c, 0, 66, 0
3, 823770, Note_on_c, 0, 69, 46
3, 823852, Note_on_c, 0, 69, 0
3, 823860, Note_on_c, 0, 68, 41
3, 823942, Note_on_c, 0, 68, 0
3, 823950, Note_on_c, 0, 69, 45
3, 824032, Note_on_c, 0, 69, 0
3, 824040, Note_on_c, 0, 69, 44
3, 824122, Note_on_c, 0, 69, 0
3, 824130, Note_on_c, 0, 71, 46
3, 824212, Note_on_c, 0, 71, 0
3, 824220, Note_on_c, 0, 69, 38
3, 824302, Note_on_c, 0, 69, 0
3, 824310, Note_on_c, 0, 71, 43
3, 824392, Note_on_c, 0, 71, 0
3, 824400, Note_on_c, 0, 68, 39
3, 824482, Note_on_c, 0, 68, 0
3, 824490, Note_on_c, 0, 69, 44
3, 824572, Note_on_c, 0, 69, 0
3, 824580, Note_on_c, 0, 68, 45
3, 824580, Note_on_c, 0, 71, 50
3, 824580, Note_on_c, 0, 83, 49
3, 824662, Note_on_c, 0, 68, 0
3, 824669, Note_on_c, 0, 83, 0
3, 824669, Note_on_c, 0, 71, 0
3, 824670, Note_on_c, 0, 69, 44
3, 824752, Note_on_c, 0, 69, 0
3, 824760, Note_on_c, 0, 68, 43
3, 824842, Note_on_c, 0, 68, 0
3, 824850, Note_on_c, 0, 69, 44
3, 824932, Note_on_c, 0, 69, 0
3, 824940, Note_on_c, 0, 66, 38
3, 825022, Note_on_c, 0, 66, 0
3, 825030, Note_on_c, 0, 69, 46
3, 825112, Note_on_c, 0, 69, 0
3, 825120, Note_on_c, 0, 68, 42
3, 825202, Note_on_c, 0, 68, 0
3, 825210, Note_on_c, 0, 69, 43
3, 825292, Note_on_c, 0, 69, 0
3, 825300, Note_on_c, 0, 68, 41
3, 825300, Note_on_c, 0, 73, 48
3, 825300, Note_on_c, 0, 85, 48
3, 825382, Note_on_c, 0, 68, 0
3, 825389, Note_on_c, 0, 85, 0
3, 825389, Note_on_c, 0, 73, 0
3, 825390, Note_on_c, 0, 69, 45
3, 825472, Note_on_c, 0, 69, 0
3, 825480, Note_on_c, 0, 61, 35
3, 825562, Note_on_c, 0, 61, 0
3, 825570, Note_on_c, 0, 69, 48
3, 825652, Note_on_c, 0, 69, 0
3, 825660, Note_on_c, 0, 63, 39
3, 825742, Note_on_c, 0, 63, 0
3, 825750, Note_on_c, 0, 68, 46
3, 825832, Note_on_c, 0, 68, 0
3, 825840, Note_on_c, 0, 65, 41
3, 825922, Note_on_c, 0, 65, 0
3, 825930, Note_on_c, 0, 69, 46
3, 826012, Note_on_c, 0, 69, 0
3, 826020, Note_on_c, 0, 68, 41
3, 826102, Note_on_c, 0, 68, 0
3, 826110, Note_on_c, 0, 69, 45
3, 826192, Note_on_c, 0, 69, 0
3, 826200, Note_on_c, 0, 69, 52
3, 826282, Note_on_c, 0, 69, 0
3, 826290, Note_on_c, 0, 71, 54
3, 826372, Note_on_c, 0, 71, 0
3, 826380, Note_on_c, 0, 76, 39
3, 826380, Note_on_c, 0, 69, 48
3, 826462, Note_on_c, 0, 69, 0
3, 826470, Note_on_c, 0, 71, 55
3, 826543, Note_on_c, 0, 76, 0
3, 826552, Note_on_c, 0, 71, 0
3, 826560, Note_on_c, 0, 73, 38
3, 826560, Note_on_c, 0, 68, 50
3, 826642, Note_on_c, 0, 68, 0
3, 826650, Note_on_c, 0, 69, 55
3, 826723, Note_on_c, 0, 73, 0
3, 826732, Note_on_c, 0, 69, 0
3, 826740, Note_on_c, 0, 75, 45
3, 826740, Note_on_c, 0, 68, 55
3, 826822, Note_on_c, 0, 68, 0
3, 826830, Note_on_c, 0, 69, 54
3, 826903, Note_on_c, 0, 75, 0
3, 826912, Note_on_c, 0, 69, 0
3, 826920, Note_on_c, 0, 76, 45
3, 826920, Note_on_c, 0, 68, 50
3, 827002, Note_on_c, 0, 68, 0
3, 827010, Note_on_c, 0, 69, 52
3, 827083, Note_on_c, 0, 76, 0
3, 827092, Note_on_c, 0, 69, 0
3, 827100, Note_on_c, 0, 78, 46
3, 827100, Note_on_c, 0, 66, 49
3, 827182, Note_on_c, 0, 66, 0
3, 827190, Note_on_c, 0, 69, 56
3, 827263, Note_on_c, 0, 78, 0
3, 827272, Note_on_c, 0, 69, 0
3, 827280, Note_on_c, 0, 80, 47
3, 827280, Note_on_c, 0, 71, 44
3, 827280, Note_on_c, 0, 68, 52
3, 827362, Note_on_c, 0, 68, 0
3, 827370, Note_on_c, 0, 69, 54
3, 827452, Note_on_c, 0, 69, 0
3, 827460, Note_on_c, 0, 68, 53
3, 827542, Note_on_c, 0, 68, 0
3, 827550, Note_on_c, 0, 59, 43
3, 827605, Note_on_c, 0, 80, 0
3, 827632, Note_on_c, 0, 59, 0
3, 827640, Note_on_c, 0, 81, 46
3, 827640, Note_on_c, 0, 61, 53
3, 827722, Note_on_c, 0, 61, 0
3, 827730, Note_on_c, 0, 64, 59
3, 827803, Note_on_c, 0, 81, 0
3, 827812, Note_on_c, 0, 64, 0
3, 827820, Note_on_c, 0, 80, 45
3, 827820, Note_on_c, 0, 63, 56
3, 827902, Note_on_c, 0, 63, 0
3, 827910, Note_on_c, 0, 64, 57
3, 827983, Note_on_c, 0, 80, 0
3, 827992, Note_on_c, 0, 64, 0
3, 828000, Note_on_c, 0, 78, 39
3, 828000, Note_on_c, 0, 66, 58
3, 828082, Note_on_c, 0, 66, 0
3, 828090, Note_on_c, 0, 68, 55
3, 828163, Note_on_c, 0, 78, 0
3, 828172, Note_on_c, 0, 68, 0
3, 828180, Note_on_c, 0, 76, 38
3, 828180, Note_on_c, 0, 68, 53
3, 828262, Note_on_c, 0, 68, 0
3, 828270, Note_on_c, 0, 69, 53
3, 828290, Note_on_c, 0, 71, 0
3, 828343, Note_on_c, 0, 76, 0
3, 828352, Note_on_c, 0, 69, 0
3, 828360, Note_on_c, 0, 73, 44
3, 828360, Note_on_c, 0, 69, 48
3, 828360, Note_on_c, 0, 73, 49
3, 828360, Note_on_c, 0, 69, 58
3, 828442, Note_on_c, 0, 69, 0
3, 828450, Note_on_c, 0, 68, 52
3, 828532, Note_on_c, 0, 68, 0
3, 828540, Note_on_c, 0, 66, 47
3, 828622, Note_on_c, 0, 66, 0
3, 828630, Note_on_c, 0, 64, 50
3, 828685, Note_on_c, 0, 73, 0
3, 828712, Note_on_c, 0, 64, 0
3, 828720, Note_on_c, 0, 75, 44
3, 828720, Note_on_c, 0, 66, 57
3, 828802, Note_on_c, 0, 66, 0
3, 828810, Note_on_c, 0, 64, 49
3, 828883, Note_on_c, 0, 75, 0
3, 828892, Note_on_c, 0, 64, 0
3, 828900, Note_on_c, 0, 76, 50
3, 828900, Note_on_c, 0, 61, 52
3, 828982, Note_on_c, 0, 61, 0
3, 828990, Note_on_c, 0, 57, 46
3, 829072, Note_on_c, 0, 57, 0
3, 829080, Note_on_c, 0, 56, 50
3, 829162, Note_on_c, 0, 56, 0
3, 829170, Note_on_c, 0, 54, 48
3, 829225, Note_on_c, 0, 76, 0
3, 829252, Note_on_c, 0, 54, 0
3, 829260, Note_on_c, 0, 78, 44
3, 829260, Note_on_c, 0, 52, 48
3, 829342, Note_on_c, 0, 52, 0
3, 829350, Note_on_c, 0, 49, 49
3, 829370, Note_on_c, 0, 69, 0
3, 829370, Note_on_c, 0, 73, 0
3, 829423, Note_on_c, 0, 78, 0
3, 829432, Note_on_c, 0, 49, 0
3, 829440, Note_on_c, 0, 66, 46
3, 829440, Note_on_c, 0, 78, 45
3, 829440, Note_on_c, 0, 71, 42
3, 829440, Note_on_c, 0, 47, 50
3, 829522, Note_on_c, 0, 47, 0
3, 829530, Note_on_c, 0, 40, 44
3, 829612, Note_on_c, 0, 40, 0
3, 829620, Note_on_c, 0, 47, 60
3, 829683, Note_on_c, 0, 66, 0
3, 829683, Note_on_c, 0, 78, 0
3, 829702, Note_on_c, 0, 47, 0
3, 829710, Note_on_c, 0, 68, 46
3, 829710, Note_on_c, 0, 80, 43
3, 829710, Note_on_c, 0, 52, 58
3, 829792, Note_on_c, 0, 52, 0
3, 829800, Note_on_c, 0, 56, 60
3, 829882, Note_on_c, 0, 56, 0
3, 829890, Note_on_c, 0, 59, 60
3, 829927, Note_on_c, 0, 71, 0
3, 829953, Note_on_c, 0, 80, 0
3, 829953, Note_on_c, 0, 68, 0
3, 829972, Note_on_c, 0, 59, 0
3, 829980, Note_on_c, 0, 69, 48
3, 829980, Note_on_c, 0, 81, 50
3, 829980, Note_on_c, 0, 74, 44
3, 829980, Note_on_c, 0, 59, 56
3, 830062, Note_on_c, 0, 59, 0
3, 830070, Note_on_c, 0, 61, 57
3, 830152, Note_on_c, 0, 61, 0
3, 830160, Note_on_c, 0, 62, 56
3, 830223, Note_on_c, 0, 81, 0
3, 830223, Note_on_c, 0, 69, 0
3, 830242, Note_on_c, 0, 62, 0
3, 830250, Note_on_c, 0, 71, 44
3, 830250, Note_on_c, 0, 83, 43
3, 830250, Note_on_c, 0, 62, 52
3, 830332, Note_on_c, 0, 62, 0
3, 830340, Note_on_c, 0, 64, 54
3, 830422, Note_on_c, 0, 64, 0
3, 830430, Note_on_c, 0, 66, 55
3, 830467, Note_on_c, 0, 74, 0
3, 830493, Note_on_c, 0, 83, 0
3, 830493, Note_on_c, 0, 71, 0
3, 830512, Note_on_c, 0, 66, 0
3, 830520, Note_on_c, 0, 73, 48
3, 830520, Note_on_c, 0, 77, 48
3, 830520, Note_on_c, 0, 85, 46
3, 830520, Note_on_c, 0, 65, 59
3, 830520, Note_on_c, 0, 68, 59
3, 830683, Note_on_c, 0, 68, 0
3, 830683, Note_on_c, 0, 73, 0
3, 830683, Note_on_c, 0, 77, 0
3, 830683, Note_on_c, 0, 85, 0
3, 830683, Note_on_c, 0, 65, 0
3, 830700, Note_on_c, 0, 59, 32
3, 830863, Note_on_c, 0, 59, 0
3, 830880, Note_on_c, 0, 61, 41
3, 831043, Note_on_c, 0, 61, 0
3, 831060, Note_on_c, 0, 62, 48
3, 831223, Note_on_c, 0, 62, 0
3, 831240, Note_on_c, 0, 64, 45
3, 831403, Note_on_c, 0, 64, 0
3, 831420, Note_on_c, 0, 62, 39
3, 831583, Note_on_c, 0, 62, 0
3, 831600, Note_on_c, 0, 61, 43
3, 831763, Note_on_c, 0, 61, 0
3, 831780, Note_on_c, 0, 56, 39
3, 831943, Note_on_c, 0, 56, 0
3, 831960, Note_on_c, 0, 57, 45
3, 832123, Note_on_c, 0, 57, 0
3, 832140, Note_on_c, 0, 59, 47
3, 832303, Note_on_c, 0, 59, 0
3, 832320, Note_on_c, 0, 57, 40
3, 832483, Note_on_c, 0, 57, 0
3, 832500, Note_on_c, 0, 59, 46
3, 832663, Note_on_c, 0, 59, 0
3, 832680, Note_on_c, 0, 61, 49
3, 832680, Note_on_c, 0, 52, 35
3, 832680, Note_on_c, 0, 45, 53
3, 832680, Note_on_c, 0, 37, 42
3, 833005, Note_on_c, 0, 61, 0
3, 833040, Note_on_c, 0, 52, 34
3, 833167, Note_on_c, 0, 45, 0
3, 833167, Note_on_c, 0, 52, 0
3, 833203, Note_on_c, 0, 52, 0
3, 833220, Note_on_c, 0, 53, 44
3, 833220, Note_on_c, 0, 53, 44
3, 833220, Note_on_c, 0, 44, 49
3, 833383, Note_on_c, 0, 53, 0
3, 833400, Note_on_c, 0, 56, 46
3, 833563, Note_on_c, 0, 56, 0
3, 833580, Note_on_c, 0, 59, 45
3, 833690, Note_on_c, 0, 37, 0
3, 833707, Note_on_c, 0, 44, 0
3, 833707, Note_on_c, 0, 53, 0
3, 833743, Note_on_c, 0, 59, 0
3, 833760, Note_on_c, 0, 52, 47
3, 833760, Note_on_c, 0, 61, 50
3, 833760, Note_on_c, 0, 37, 56
3, 833760, Note_on_c, 0, 45, 56
3, 833940, Note_on_c, 0, 76, 39
3, 833940, Note_on_c, 0, 88, 39
3, 834029, Note_on_c, 0, 88, 0
3, 834029, Note_on_c, 0, 76, 0
3, 834120, Note_on_c, 0, 78, 43
3, 834120, Note_on_c, 0, 90, 45
3, 834209, Note_on_c, 0, 90, 0
3, 834209, Note_on_c, 0, 78, 0
3, 834300, Note_on_c, 0, 80, 49
3, 834300, Note_on_c, 0, 92, 48
3, 834389, Note_on_c, 0, 92, 0
3, 834389, Note_on_c, 0, 80, 0
3, 834480, Note_on_c, 0, 81, 46
3, 834480, Note_on_c, 0, 93, 44
3, 834569, Note_on_c, 0, 93, 0
3, 834569, Note_on_c, 0, 81, 0
3, 834660, Note_on_c, 0, 83, 45
3, 834660, Note_on_c, 0, 95, 46
3, 834749, Note_on_c, 0, 95, 0
3, 834749, Note_on_c, 0, 83, 0
3, 834770, Note_on_c, 0, 52, 0
3, 834770, Note_on_c, 0, 61, 0
3, 834770, Note_on_c, 0, 37, 0
3, 834770, Note_on_c, 0, 45, 0
3, 834840, Note_on_c, 0, 85, 56
3, 834840, Note_on_c, 0, 97, 57
3, 834840, Note_on_c, 0, 37, 52
3, 834894, Note_on_c, 0, 97, 0
3, 834894, Note_on_c, 0, 85, 0
3, 834899, Note_on_c, 0, 71, 34
3, 834954, Note_on_c, 0, 71, 0
3, 834960, Note_on_c, 0, 73, 41
3, 835014, Note_on_c, 0, 73, 0
3, 835020, Note_on_c, 0, 74, 46
3, 835074, Note_on_c, 0, 74, 0
3, 835079, Note_on_c, 0, 76, 46
3, 835110, Note_on_c, 0, 66, 50
3, 835110, Note_on_c, 0, 69, 47
3, 835134, Note_on_c, 0, 76, 0
3, 835140, Note_on_c, 0, 74, 40
3, 835155, Note_on_c, 0, 66, 0
3, 835155, Note_on_c, 0, 69, 0
3, 835194, Note_on_c, 0, 74, 0
3, 835200, Note_on_c, 0, 73, 41
3, 835200, Note_on_c, 0, 65, 49
3, 835200, Note_on_c, 0, 68, 50
3, 835254, Note_on_c, 0, 73, 0
3, 835259, Note_on_c, 0, 74, 43
3, 835289, Note_on_c, 0, 65, 0
3, 835289, Note_on_c, 0, 68, 0
3, 835314, Note_on_c, 0, 74, 0
3, 835320, Note_on_c, 0, 73, 42
3, 835374, Note_on_c, 0, 73, 0
3, 835380, Note_on_c, 0, 71, 44
3, 835434, Note_on_c, 0, 71, 0
3, 835439, Note_on_c, 0, 73, 46
3, 835470, Note_on_c, 0, 59, 47
3, 835470, Note_on_c, 0, 62, 46
3, 835494, Note_on_c, 0, 73, 0
3, 835500, Note_on_c, 0, 71, 38
3, 835515, Note_on_c, 0, 59, 0
3, 835515, Note_on_c, 0, 62, 0
3, 835554, Note_on_c, 0, 71, 0
3, 835560, Note_on_c, 0, 69, 41
3, 835560, Note_on_c, 0, 59, 48
3, 835560, Note_on_c, 0, 61, 49
3, 835614, Note_on_c, 0, 69, 0
3, 835619, Note_on_c, 0, 64, 37
3, 835649, Note_on_c, 0, 59, 0
3, 835649, Note_on_c, 0, 61, 0
3, 835674, Note_on_c, 0, 64, 0
3, 835680, Note_on_c, 0, 65, 44
3, 835734, Note_on_c, 0, 65, 0
3, 835740, Note_on_c, 0, 66, 45
3, 835794, Note_on_c, 0, 66, 0
3, 835799, Note_on_c, 0, 65, 43
3, 835830, Note_on_c, 0, 56, 46
3, 835830, Note_on_c, 0, 59, 48
3, 835850, Note_on_c, 0, 37, 0
3, 835854, Note_on_c, 0, 65, 0
3, 835860, Note_on_c, 0, 66, 44
3, 835875, Note_on_c, 0, 59, 0
3, 835875, Note_on_c, 0, 56, 0
3, 835914, Note_on_c, 0, 66, 0
3, 835920, Note_on_c, 0, 68, 48
3, 835920, Note_on_c, 0, 56, 54
3, 835920, Note_on_c, 0, 59, 56
3, 835974, Note_on_c, 0, 68, 0
3, 835979, Note_on_c, 0, 65, 42
3, 836009, Note_on_c, 0, 59, 0
3, 836009, Note_on_c, 0, 56, 0
3, 836034, Note_on_c, 0, 65, 0
3, 836040, Note_on_c, 0, 66, 43
3, 836094, Note_on_c, 0, 66, 0
3, 836100, Note_on_c, 0, 68, 47
3, 836154, Note_on_c, 0, 68, 0
3, 836159, Note_on_c, 0, 69, 43
3, 836190, Note_on_c, 0, 59, 50
3, 836214, Note_on_c, 0, 69, 0
3, 836220, Note_on_c, 0, 68, 42
3, 836235, Note_on_c, 0, 59, 0
3, 836274, Note_on_c, 0, 68, 0
3, 836280, Note_on_c, 0, 66, 39
3, 836280, Note_on_c, 0, 57, 55
3, 836334, Note_on_c, 0, 66, 0
3, 836339, Note_on_c, 0, 68, 47
3, 836370, Note_on_c, 0, 57, 0
3, 836370, Note_on_c, 0, 61, 57
3, 836394, Note_on_c, 0, 68, 0
3, 836400, Note_on_c, 0, 66, 42
3, 836452, Note_on_c, 0, 61, 0
3, 836454, Note_on_c, 0, 66, 0
3, 836460, Note_on_c, 0, 65, 42
3, 836460, Note_on_c, 0, 56, 54
3, 836514, Note_on_c, 0, 65, 0
3, 836519, Note_on_c, 0, 66, 42
3, 836550, Note_on_c, 0, 56, 0
3, 836550, Note_on_c, 0, 61, 57
3, 836574, Note_on_c, 0, 66, 0
3, 836580, Note_on_c, 0, 65, 43
3, 836632, Note_on_c, 0, 61, 0
3, 836634, Note_on_c, 0, 65, 0
3, 836640, Note_on_c, 0, 65, 41
3, 836694, Note_on_c, 0, 65, 0
3, 836699, Note_on_c, 0, 65, 42
3, 836730, Note_on_c, 0, 61, 47
3, 836754, Note_on_c, 0, 65, 0
3, 836760, Note_on_c, 0, 64, 39
3, 836775, Note_on_c, 0, 61, 0
3, 836814, Note_on_c, 0, 64, 0
3, 836820, Note_on_c, 0, 62, 38
3, 836820, Note_on_c, 0, 59, 53
3, 836874, Note_on_c, 0, 62, 0
3, 836879, Note_on_c, 0, 64, 45
3, 836910, Note_on_c, 0, 59, 0
3, 836910, Note_on_c, 0, 68, 62
3, 836934, Note_on_c, 0, 64, 0
3, 836940, Note_on_c, 0, 62, 39
3, 836992, Note_on_c, 0, 68, 0
3, 836994, Note_on_c, 0, 62, 0
3, 837000, Note_on_c, 0, 61, 45
3, 837000, Note_on_c, 0, 57, 55
3, 837000, Note_on_c, 0, 66, 54
3, 837054, Note_on_c, 0, 61, 0
3, 837059, Note_on_c, 0, 59, 41
3, 837089, Note_on_c, 0, 66, 0
3, 837089, Note_on_c, 0, 57, 0
3, 837114, Note_on_c, 0, 59, 0
3, 837120, Note_on_c, 0, 61, 46
3, 837174, Note_on_c, 0, 61, 0
3, 837180, Note_on_c, 0, 62, 46
3, 837234, Note_on_c, 0, 62, 0
3, 837239, Note_on_c, 0, 64, 46
3, 837270, Note_on_c, 0, 66, 47
3, 837270, Note_on_c, 0, 71, 50
3, 837294, Note_on_c, 0, 64, 0
3, 837300, Note_on_c, 0, 62, 42
3, 837315, Note_on_c, 0, 71, 0
3, 837315, Note_on_c, 0, 66, 0
3, 837354, Note_on_c, 0, 62, 0
3, 837360, Note_on_c, 0, 61, 41
3, 837360, Note_on_c, 0, 66, 47
3, 837360, Note_on_c, 0, 69, 51
3, 837414, Note_on_c, 0, 61, 0
3, 837419, Note_on_c, 0, 62, 45
3, 837449, Note_on_c, 0, 69, 0
3, 837449, Note_on_c, 0, 66, 0
3, 837474, Note_on_c, 0, 62, 0
3, 837480, Note_on_c, 0, 61, 41
3, 837534, Note_on_c, 0, 61, 0
3, 837540, Note_on_c, 0, 59, 41
3, 837594, Note_on_c, 0, 59, 0
3, 837599, Note_on_c, 0, 61, 43
3, 837630, Note_on_c, 0, 62, 49
3, 837630, Note_on_c, 0, 66, 46
3, 837654, Note_on_c, 0, 61, 0
3, 837660, Note_on_c, 0, 59, 42
3, 837675, Note_on_c, 0, 66, 0
3, 837675, Note_on_c, 0, 62, 0
3, 837714, Note_on_c, 0, 59, 0
3, 837720, Note_on_c, 0, 57, 41
3, 837720, Note_on_c, 0, 61, 53
3, 837720, Note_on_c, 0, 66, 52
3, 837774, Note_on_c, 0, 57, 0
3, 837779, Note_on_c, 0, 59, 45
3, 837809, Note_on_c, 0, 66, 0
3, 837809, Note_on_c, 0, 61, 0
3, 837834, Note_on_c, 0, 59, 0
3, 837840, Note_on_c, 0, 57, 41
3, 837894, Note_on_c, 0, 57, 0
3, 837900, Note_on_c, 0, 56, 38
3, 837954, Note_on_c, 0, 56, 0
3, 837959, Note_on_c, 0, 57, 45
3, 837990, Note_on_c, 0, 37, 47
3, 837990, Note_on_c, 0, 49, 47
3, 838014, Note_on_c, 0, 57, 0
3, 838020, Note_on_c, 0, 56, 41
3, 838035, Note_on_c, 0, 49, 0
3, 838035, Note_on_c, 0, 37, 0
3, 838074, Note_on_c, 0, 56, 0
3, 838080, Note_on_c, 0, 57, 49
3, 838080, Note_on_c, 0, 37, 54
3, 838080, Note_on_c, 0, 49, 56
3, 838125, Note_on_c, 0, 49, 0
3, 838125, Note_on_c, 0, 37, 0
3, 838134, Note_on_c, 0, 57, 0
3, 838139, Note_on_c, 0, 59, 46
3, 838194, Note_on_c, 0, 59, 0
3, 838200, Note_on_c, 0, 57, 39
3, 838254, Note_on_c, 0, 57, 0
3, 838260, Note_on_c, 0, 59, 44
3, 838314, Note_on_c, 0, 59, 0
3, 838319, Note_on_c, 0, 61, 45
3, 838350, Note_on_c, 0, 68, 50
3, 838350, Note_on_c, 0, 73, 46
3, 838374, Note_on_c, 0, 61, 0
3, 838380, Note_on_c, 0, 59, 40
3, 838395, Note_on_c, 0, 73, 0
3, 838395, Note_on_c, 0, 68, 0
3, 838434, Note_on_c, 0, 59, 0
3, 838440, Note_on_c, 0, 57, 39
3, 838440, Note_on_c, 0, 66, 59
3, 838440, Note_on_c, 0, 73, 58
3, 838494, Note_on_c, 0, 57, 0
3, 838499, Note_on_c, 0, 59, 45
3, 838530, Note_on_c, 0, 73, 0
3, 838530, Note_on_c, 0, 66, 0
3, 838530, Note_on_c, 0, 61, 37
3, 838554, Note_on_c, 0, 59, 0
3, 838560, Note_on_c, 0, 57, 42
3, 838612, Note_on_c, 0, 61, 0
3, 838614, Note_on_c, 0, 57, 0
3, 838620, Note_on_c, 0, 56, 43
3, 838620, Note_on_c, 0, 65, 73
3, 838620, Note_on_c, 0, 73, 75
3, 838674, Note_on_c, 0, 56, 0
3, 838679, Note_on_c, 0, 57, 46
3, 838710, Note_on_c, 0, 73, 0
3, 838710, Note_on_c, 0, 65, 0
3, 838710, Note_on_c, 0, 61, 41
3, 838734, Note_on_c, 0, 57, 0
3, 838740, Note_on_c, 0, 56, 43
3, 838792, Note_on_c, 0, 61, 0
3, 838794, Note_on_c, 0, 56, 0
3, 838800, Note_on_c, 0, 54, 39
3, 838854, Note_on_c, 0, 54, 0
3, 838859, Note_on_c, 0, 56, 47
3, 838890, Note_on_c, 0, 61, 50
3, 838914, Note_on_c, 0, 56, 0
3, 838920, Note_on_c, 0, 54, 38
3, 838935, Note_on_c, 0, 61, 0
3, 838974, Note_on_c, 0, 54, 0
3, 838980, Note_on_c, 0, 53, 40
3, 838980, Note_on_c, 0, 61, 57
3, 839034, Note_on_c, 0, 53, 0
3, 839039, Note_on_c, 0, 54, 44
3, 839070, Note_on_c, 0, 61, 0
3, 839070, Note_on_c, 0, 59, 48
3, 839094, Note_on_c, 0, 54, 0
3, 839100, Note_on_c, 0, 53, 40
3, 839152, Note_on_c, 0, 59, 0
3, 839154, Note_on_c, 0, 53, 0
3, 839160, Note_on_c, 0, 52, 43
3, 839160, Note_on_c, 0, 57, 57
3, 839160, Note_on_c, 0, 61, 57
3, 839323, Note_on_c, 0, 61, 0
3, 839323, Note_on_c, 0, 57, 0
3, 839323, Note_on_c, 0, 52, 0
3, 839340, Note_on_c, 0, 64, 55
3, 839340, Note_on_c, 0, 61, 59
3, 839394, Note_on_c, 0, 64, 0
3, 839399, Note_on_c, 0, 68, 49
3, 839430, Note_on_c, 0, 61, 0
3, 839430, Note_on_c, 0, 52, 44
3, 839454, Note_on_c, 0, 68, 0
3, 839460, Note_on_c, 0, 69, 44
3, 839512, Note_on_c, 0, 52, 0
3, 839514, Note_on_c, 0, 69, 0
3, 839520, Note_on_c, 0, 73, 45
3, 839520, Note_on_c, 0, 69, 71
3, 839574, Note_on_c, 0, 73, 0
3, 839579, Note_on_c, 0, 74, 45
3, 839610, Note_on_c, 0, 69, 0
3, 839610, Note_on_c, 0, 61, 46
3, 839634, Note_on_c, 0, 74, 0
3, 839640, Note_on_c, 0, 73, 39
3, 839692, Note_on_c, 0, 61, 0
3, 839694, Note_on_c, 0, 73, 0
3, 839700, Note_on_c, 0, 71, 44
3, 839700, Note_on_c, 0, 68, 71
3, 839754, Note_on_c, 0, 71, 0
3, 839759, Note_on_c, 0, 73, 44
3, 839790, Note_on_c, 0, 68, 0
3, 839790, Note_on_c, 0, 61, 47
3, 839814, Note_on_c, 0, 73, 0
3, 839820, Note_on_c, 0, 71, 42
3, 839872, Note_on_c, 0, 61, 0
3, 839874, Note_on_c, 0, 71, 0
3, 839880, Note_on_c, 0, 69, 41
3, 839880, Note_on_c, 0, 66, 66
3, 839934, Note_on_c, 0, 69, 0
3, 839939, Note_on_c, 0, 71, 43
3, 839970, Note_on_c, 0, 66, 0
3, 839970, Note_on_c, 0, 61, 46
3, 839994, Note_on_c, 0, 71, 0
3, 840000, Note_on_c, 0, 69, 39
3, 840052, Note_on_c, 0, 61, 0
3, 840054, Note_on_c, 0, 69, 0
3, 840060, Note_on_c, 0, 68, 41
3, 840060, Note_on_c, 0, 65, 65
3, 840114, Note_on_c, 0, 68, 0
3, 840119, Note_on_c, 0, 69, 45
3, 840150, Note_on_c, 0, 65, 0
3, 840150, Note_on_c, 0, 61, 47
3, 840174, Note_on_c, 0, 69, 0
3, 840180, Note_on_c, 0, 68, 42
3, 840232, Note_on_c, 0, 61, 0
3, 840234, Note_on_c, 0, 68, 0
3, 840240, Note_on_c, 0, 67, 41
3, 840240, Note_on_c, 0, 61, 58
3, 840240, Note_on_c, 0, 64, 61
3, 840294, Note_on_c, 0, 67, 0
3, 840299, Note_on_c, 0, 73, 46
3, 840322, Note_on_c, 0, 64, 0
3, 840322, Note_on_c, 0, 61, 0
3, 840330, Note_on_c, 0, 55, 42
3, 840354, Note_on_c, 0, 73, 0
3, 840360, Note_on_c, 0, 74, 44
3, 840412, Note_on_c, 0, 55, 0
3, 840414, Note_on_c, 0, 74, 0
3, 840420, Note_on_c, 0, 76, 46
3, 840420, Note_on_c, 0, 73, 73
3, 840474, Note_on_c, 0, 76, 0
3, 840479, Note_on_c, 0, 78, 46
3, 840510, Note_on_c, 0, 73, 0
3, 840510, Note_on_c, 0, 61, 44
3, 840510, Note_on_c, 0, 64, 45
3, 840534, Note_on_c, 0, 78, 0
3, 840540, Note_on_c, 0, 76, 40
3, 840592, Note_on_c, 0, 64, 0
3, 840592, Note_on_c, 0, 61, 0
3, 840594, Note_on_c, 0, 76, 0
3, 840600, Note_on_c, 0, 74, 39
3, 840600, Note_on_c, 0, 71, 66
3, 840654, Note_on_c, 0, 74, 0
3, 840659, Note_on_c, 0, 76, 46
3, 840690, Note_on_c, 0, 71, 0
3, 840690, Note_on_c, 0, 62, 44
3, 840690, Note_on_c, 0, 64, 45
3, 840714, Note_on_c, 0, 76, 0
3, 840720, Note_on_c, 0, 74, 39
3, 840772, Note_on_c, 0, 64, 0
3, 840772, Note_on_c, 0, 62, 0
3, 840774, Note_on_c, 0, 74, 0
3, 840780, Note_on_c, 0, 73, 43
3, 840780, Note_on_c, 0, 69, 68
3, 840834, Note_on_c, 0, 73, 0
3, 840839, Note_on_c, 0, 74, 43
3, 840870, Note_on_c, 0, 69, 0
3, 840870, Note_on_c, 0, 64, 46
3, 840894, Note_on_c, 0, 74, 0
3, 840900, Note_on_c, 0, 73, 42
3, 840952, Note_on_c, 0, 64, 0
3, 840954, Note_on_c, 0, 73, 0
3, 840960, Note_on_c, 0, 71, 40
3, 840960, Note_on_c, 0, 67, 63
3, 841014, Note_on_c, 0, 71, 0
3, 841019, Note_on_c, 0, 73, 46
3, 841050, Note_on_c, 0, 67, 0
3, 841050, Note_on_c, 0, 62, 47
3, 841074, Note_on_c, 0, 73, 0
3, 841080, Note_on_c, 0, 71, 41
3, 841132, Note_on_c, 0, 62, 0
3, 841134, Note_on_c, 0, 71, 0
3, 841140, Note_on_c, 0, 67, 36
3, 841140, Note_on_c, 0, 64, 59
3, 841194, Note_on_c, 0, 67, 0
3, 841199, Note_on_c, 0, 69, 43
3, 841230, Note_on_c, 0, 64, 0
3, 841230, Note_on_c, 0, 61, 48
3, 841254, Note_on_c, 0, 69, 0
3, 841260, Note_on_c, 0, 67, 40
3, 841312, Note_on_c, 0, 61, 0
3, 841314, Note_on_c, 0, 67, 0
3, 841320, Note_on_c, 0, 66, 45
3, 841320, Note_on_c, 0, 61, 55
3, 841374, Note_on_c, 0, 66, 0
3, 841379, Note_on_c, 0, 73, 50
3, 841402, Note_on_c, 0, 61, 0
3, 841410, Note_on_c, 0, 58, 48
3, 841434, Note_on_c, 0, 73, 0
3, 841440, Note_on_c, 0, 76, 47
3, 841492, Note_on_c, 0, 58, 0
3, 841494, Note_on_c, 0, 76, 0
3, 841500, Note_on_c, 0, 78, 44
3, 841500, Note_on_c, 0, 74, 73
3, 841554, Note_on_c, 0, 78, 0
3, 841559, Note_on_c, 0, 79, 46
3, 841590, Note_on_c, 0, 74, 0
3, 841590, Note_on_c, 0, 64, 45
3, 841590, Note_on_c, 0, 66, 45
3, 841614, Note_on_c, 0, 79, 0
3, 841620, Note_on_c, 0, 78, 40
3, 841672, Note_on_c, 0, 66, 0
3, 841672, Note_on_c, 0, 64, 0
3, 841674, Note_on_c, 0, 78, 0
3, 841680, Note_on_c, 0, 76, 42
3, 841680, Note_on_c, 0, 73, 68
3, 841734, Note_on_c, 0, 76, 0
3, 841739, Note_on_c, 0, 78, 46
3, 841770, Note_on_c, 0, 73, 0
3, 841770, Note_on_c, 0, 64, 45
3, 841770, Note_on_c, 0, 66, 44
3, 841794, Note_on_c, 0, 78, 0
3, 841800, Note_on_c, 0, 76, 41
3, 841852, Note_on_c, 0, 66, 0
3, 841852, Note_on_c, 0, 64, 0
3, 841854, Note_on_c, 0, 76, 0
3, 841860, Note_on_c, 0, 74, 44
3, 841860, Note_on_c, 0, 71, 66
3, 841914, Note_on_c, 0, 74, 0
3, 841919, Note_on_c, 0, 76, 46
3, 841950, Note_on_c, 0, 71, 0
3, 841950, Note_on_c, 0, 62, 47
3, 841950, Note_on_c, 0, 66, 47
3, 841974, Note_on_c, 0, 76, 0
3, 841980, Note_on_c, 0, 74, 39
3, 842032, Note_on_c, 0, 66, 0
3, 842032, Note_on_c, 0, 62, 0
3, 842034, Note_on_c, 0, 74, 0
3, 842040, Note_on_c, 0, 73, 39
3, 842040, Note_on_c, 0, 64, 54
3, 842094, Note_on_c, 0, 73, 0
3, 842099, Note_on_c, 0, 74, 44
3, 842130, Note_on_c, 0, 64, 0
3, 842130, Note_on_c, 0, 59, 44
3, 842154, Note_on_c, 0, 74, 0
3, 842160, Note_on_c, 0, 73, 42
3, 842212, Note_on_c, 0, 59, 0
3, 842214, Note_on_c, 0, 73, 0
3, 842220, Note_on_c, 0, 71, 40
3, 842220, Note_on_c, 0, 62, 61
3, 842274, Note_on_c, 0, 71, 0
3, 842279, Note_on_c, 0, 73, 46
3, 842310, Note_on_c, 0, 62, 0
3, 842310, Note_on_c, 0, 59, 50
3, 842334, Note_on_c, 0, 73, 0
3, 842340, Note_on_c, 0, 71, 41
3, 842392, Note_on_c, 0, 59, 0
3, 842394, Note_on_c, 0, 71, 0
3, 842400, Note_on_c, 0, 69, 43
3, 842400, Note_on_c, 0, 54, 56
3, 842454, Note_on_c, 0, 69, 0
3, 842459, Note_on_c, 0, 71, 44
3, 842490, Note_on_c, 0, 54, 0
3, 842490, Note_on_c, 0, 62, 61
3, 842514, Note_on_c, 0, 71, 0
3, 842520, Note_on_c, 0, 69, 42
3, 842572, Note_on_c, 0, 62, 0
3, 842574, Note_on_c, 0, 69, 0
3, 842580, Note_on_c, 0, 68, 39
3, 842580, Note_on_c, 0, 56, 53
3, 842634, Note_on_c, 0, 68, 0
3, 842639, Note_on_c, 0, 69, 45
3, 842670, Note_on_c, 0, 56, 0
3, 842670, Note_on_c, 0, 62, 58
3, 842694, Note_on_c, 0, 69, 0
3, 842700, Note_on_c, 0, 68, 42
3, 842752, Note_on_c, 0, 62, 0
3, 842754, Note_on_c, 0, 68, 0
3, 842760, Note_on_c, 0, 66, 40
3, 842760, Note_on_c, 0, 57, 55
3, 842814, Note_on_c, 0, 66, 0
3, 842819, Note_on_c, 0, 68, 44
3, 842850, Note_on_c, 0, 57, 0
3, 842850, Note_on_c, 0, 62, 57
3, 842874, Note_on_c, 0, 68, 0
3, 842880, Note_on_c, 0, 66, 38
3, 842932, Note_on_c, 0, 62, 0
3, 842934, Note_on_c, 0, 66, 0
3, 842940, Note_on_c, 0, 68, 50
3, 842940, Note_on_c, 0, 56, 53
3, 842994, Note_on_c, 0, 68, 0
3, 842999, Note_on_c, 0, 69, 44
3, 843030, Note_on_c, 0, 56, 0
3, 843030, Note_on_c, 0, 62, 59
3, 843054, Note_on_c, 0, 69, 0
3, 843060, Note_on_c, 0, 68, 41
3, 843112, Note_on_c, 0, 62, 0
3, 843114, Note_on_c, 0, 68, 0
3, 843120, Note_on_c, 0, 66, 42
3, 843120, Note_on_c, 0, 57, 54
3, 843174, Note_on_c, 0, 66, 0
3, 843179, Note_on_c, 0, 68, 45
3, 843210, Note_on_c, 0, 57, 0
3, 843210, Note_on_c, 0, 62, 59
3, 843234, Note_on_c, 0, 68, 0
3, 843240, Note_on_c, 0, 66, 40
3, 843292, Note_on_c, 0, 62, 0
3, 843294, Note_on_c, 0, 66, 0
3, 843300, Note_on_c, 0, 65, 40
3, 843300, Note_on_c, 0, 59, 56
3, 843354, Note_on_c, 0, 65, 0
3, 843359, Note_on_c, 0, 66, 43
3, 843390, Note_on_c, 0, 59, 0
3, 843390, Note_on_c, 0, 62, 56
3, 843414, Note_on_c, 0, 66, 0
3, 843420, Note_on_c, 0, 65, 41
3, 843472, Note_on_c, 0, 62, 0
3, 843474, Note_on_c, 0, 65, 0
3, 843480, Note_on_c, 0, 64, 44
3, 843480, Note_on_c, 0, 61, 55
3, 843643, Note_on_c, 0, 61, 0
3, 843643, Note_on_c, 0, 64, 0
3, 843840, Note_on_c, 0, 67, 39
3, 844183, Note_on_c, 0, 67, 0
3, 844200, Note_on_c, 0, 66, 42
3, 844363, Note_on_c, 0, 66, 0
3, 844380, Note_on_c, 0, 64, 38
3, 844543, Note_on_c, 0, 64, 0
3, 844560, Note_on_c, 0, 66, 48
3, 844885, Note_on_c, 0, 66, 0
3, 844920, Note_on_c, 0, 61, 39
3, 845083, Note_on_c, 0, 61, 0
3, 845100, Note_on_c, 0, 62, 48
3, 845263, Note_on_c, 0, 62, 0
3, 845280, Note_on_c, 0, 64, 45
3, 845443, Note_on_c, 0, 64, 0
3, 845460, Note_on_c, 0, 66, 46
3, 845623, Note_on_c, 0, 66, 0
3, 845640, Note_on_c, 0, 67, 50
3, 845640, Note_on_c, 0, 59, 50
3, 845640, Note_on_c, 0, 62, 53
3, 845965, Note_on_c, 0, 67, 0
3, 846000, Note_on_c, 0, 66, 41
3, 846343, Note_on_c, 0, 66, 0
3, 846360, Note_on_c, 0, 66, 44
3, 846523, Note_on_c, 0, 66, 0
3, 846540, Note_on_c, 0, 64, 40
3, 846650, Note_on_c, 0, 62, 0
3, 846650, Note_on_c, 0, 59, 0
3, 846703, Note_on_c, 0, 64, 0
3, 846720, Note_on_c, 0, 66, 46
3, 846720, Note_on_c, 0, 58, 52
3, 846720, Note_on_c, 0, 61, 54
3, 847045, Note_on_c, 0, 66, 0
3, 847080, Note_on_c, 0, 61, 38
3, 847243, Note_on_c, 0, 61, 0
3, 847260, Note_on_c, 0, 62, 45
3, 847423, Note_on_c, 0, 62, 0
3, 847440, Note_on_c, 0, 64, 44
3, 847603, Note_on_c, 0, 64, 0
3, 847620, Note_on_c, 0, 66, 44
3, 847730, Note_on_c, 0, 61, 0
3, 847730, Note_on_c, 0, 58, 0
3, 847783, Note_on_c, 0, 66, 0
3, 847800, Note_on_c, 0, 67, 47
3, 847800, Note_on_c, 0, 57, 52
3, 847800, Note_on_c, 0, 60, 54
3, 848125, Note_on_c, 0, 67, 0
3, 848160, Note_on_c, 0, 66, 39
3, 848503, Note_on_c, 0, 66, 0
3, 848520, Note_on_c, 0, 66, 44
3, 848683, Note_on_c, 0, 66, 0
3, 848700, Note_on_c, 0, 64, 39
3, 848810, Note_on_c, 0, 60, 0
3, 848810, Note_on_c, 0, 57, 0
3, 848863, Note_on_c, 0, 64, 0
3, 848880, Note_on_c, 0, 63, 50
3, 848880, Note_on_c, 0, 66, 47
3, 848880, Note_on_c, 0, 57, 34
3, 848880, Note_on_c, 0, 59, 35
3, 848880, Note_on_c, 0, 35, 40
3, 848880, Note_on_c, 0, 47, 40
3, 849205, Note_on_c, 0, 66, 0
3, 849205, Note_on_c, 0, 63, 0
3, 849240, Note_on_c, 0, 59, 35
3, 849403, Note_on_c, 0, 59, 0
3, 849420, Note_on_c, 0, 61, 46
3, 849583, Note_on_c, 0, 61, 0
3, 849600, Note_on_c, 0, 63, 45
3, 849763, Note_on_c, 0, 63, 0
3, 849780, Note_on_c, 0, 66, 47
3, 849890, Note_on_c, 0, 35, 0
3, 849890, Note_on_c, 0, 47, 0
3, 849890, Note_on_c, 0, 57, 0
3, 849890, Note_on_c, 0, 59, 0
3, 849943, Note_on_c, 0, 66, 0
3, 849960, Note_on_c, 0, 67, 49
3, 849960, Note_on_c, 0, 55, 48
3, 849960, Note_on_c, 0, 59, 46
3, 849960, Note_on_c, 0, 62, 47
3, 849960, Note_on_c, 0, 28, 43
3, 849960, Note_on_c, 0, 40, 44
3, 850285, Note_on_c, 0, 67, 0
3, 850320, Note_on_c, 0, 66, 39
3, 850663, Note_on_c, 0, 66, 0
3, 850680, Note_on_c, 0, 66, 44
3, 850843, Note_on_c, 0, 66, 0
3, 850860, Note_on_c, 0, 64, 39
3, 850970, Note_on_c, 0, 28, 0
3, 850970, Note_on_c, 0, 62, 0
3, 850970, Note_on_c, 0, 55, 0
3, 850970, Note_on_c, 0, 59, 0
3, 850970, Note_on_c, 0, 40, 0
3, 851023, Note_on_c, 0, 64, 0
3, 851040, Note_on_c, 0, 61, 46
3, 851040, Note_on_c, 0, 66, 50
3, 851040, Note_on_c, 0, 55, 39
3, 851040, Note_on_c, 0, 57, 38
3, 851040, Note_on_c, 0, 33, 61
3, 851040, Note_on_c, 0, 45, 60
3, 851203, Note_on_c, 0, 66, 0
3, 851203, Note_on_c, 0, 61, 0
3, 851220, Note_on_c, 0, 57, 33
3, 851383, Note_on_c, 0, 57, 0
3, 851400, Note_on_c, 0, 59, 45
3, 851563, Note_on_c, 0, 59, 0
3, 851580, Note_on_c, 0, 61, 49
3, 851743, Note_on_c, 0, 61, 0
3, 851760, Note_on_c, 0, 64, 45
3, 851923, Note_on_c, 0, 64, 0
3, 851940, Note_on_c, 0, 66, 46
3, 852050, Note_on_c, 0, 57, 0
3, 852050, Note_on_c, 0, 33, 0
3, 852050, Note_on_c, 0, 55, 0
3, 852050, Note_on_c, 0, 45, 0
3, 852103, Note_on_c, 0, 66, 0
3, 852120, Note_on_c, 0, 55, 50
3, 852120, Note_on_c, 0, 59, 49
3, 852120, Note_on_c, 0, 67, 48
3, 852120, Note_on_c, 0, 38, 61
3, 852120, Note_on_c, 0, 47, 58
3, 853130, Note_on_c, 0, 38, 0
3, 853130, Note_on_c, 0, 67, 0
3, 853130, Note_on_c, 0, 59, 0
3, 853130, Note_on_c, 0, 47, 0
3, 853130, Note_on_c, 0, 55, 0
3, 853200, Note_on_c, 0, 54, 42
3, 853200, Note_on_c, 0, 57, 45
3, 853200, Note_on_c, 0, 66, 46
3, 853200, Note_on_c, 0, 38, 52
3, 853200, Note_on_c, 0, 45, 55
3, 853687, Note_on_c, 0, 45, 0
3, 853687, Note_on_c, 0, 54, 0
3, 853687, Note_on_c, 0, 57, 0
3, 853687, Note_on_c, 0, 66, 0
3, 853687, Note_on_c, 0, 38, 0
3, 853740, Note_on_c, 0, 61, 39
3, 853740, Note_on_c, 0, 64, 41
3, 853740, Note_on_c, 0, 33, 51
3, 853740, Note_on_c, 0, 45, 52
3, 854227, Note_on_c, 0, 45, 0
3, 854227, Note_on_c, 0, 64, 0
3, 854227, Note_on_c, 0, 33, 0
3, 854227, Note_on_c, 0, 61, 0
3, 854280, Note_on_c, 0, 54, 55
3, 854280, Note_on_c, 0, 60, 53
3, 854280, Note_on_c, 0, 63, 54
3, 854280, Note_on_c, 0, 66, 51
3, 854280, Note_on_c, 0, 32, 65
3, 854280, Note_on_c, 0, 44, 65
3, 854339, Note_on_c, 0, 78, 41
3, 854394, Note_on_c, 0, 78, 0
3, 854400, Note_on_c, 0, 80, 45
3, 854454, Note_on_c, 0, 80, 0
3, 854460, Note_on_c, 0, 81, 44
3, 854514, Note_on_c, 0, 81, 0
3, 854519, Note_on_c, 0, 83, 46
3, 854574, Note_on_c, 0, 83, 0
3, 854580, Note_on_c, 0, 81, 41
3, 854634, Note_on_c, 0, 81, 0
3, 854640, Note_on_c, 0, 80, 39
3, 854694, Note_on_c, 0, 80, 0
3, 854699, Note_on_c, 0, 81, 44
3, 854754, Note_on_c, 0, 81, 0
3, 854760, Note_on_c, 0, 80, 42
3, 854767, Note_on_c, 0, 66, 0
3, 854767, Note_on_c, 0, 63, 0
3, 854767, Note_on_c, 0, 60, 0
3, 854767, Note_on_c, 0, 54, 0
3, 854814, Note_on_c, 0, 80, 0
3, 854820, Note_on_c, 0, 78, 44
3, 854874, Note_on_c, 0, 78, 0
3, 854879, Note_on_c, 0, 80, 46
3, 854934, Note_on_c, 0, 80, 0
3, 854940, Note_on_c, 0, 81, 44
3, 854994, Note_on_c, 0, 81, 0
3, 855000, Note_on_c, 0, 78, 40
3, 855000, Note_on_c, 0, 54, 49
3, 855000, Note_on_c, 0, 61, 46
3, 855000, Note_on_c, 0, 63, 47
3, 855000, Note_on_c, 0, 66, 49
3, 855054, Note_on_c, 0, 78, 0
3, 855059, Note_on_c, 0, 80, 45
3, 855114, Note_on_c, 0, 80, 0
3, 855120, Note_on_c, 0, 78, 41
3, 855174, Note_on_c, 0, 78, 0
3, 855180, Note_on_c, 0, 73, 36
3, 855234, Note_on_c, 0, 73, 0
3, 855239, Note_on_c, 0, 75, 45
3, 855290, Note_on_c, 0, 44, 0
3, 855290, Note_on_c, 0, 32, 0
3, 855294, Note_on_c, 0, 75, 0
3, 855300, Note_on_c, 0, 73, 39
3, 855354, Note_on_c, 0, 73, 0
3, 855360, Note_on_c, 0, 75, 47
3, 855414, Note_on_c, 0, 75, 0
3, 855419, Note_on_c, 0, 73, 42
3, 855474, Note_on_c, 0, 73, 0
3, 855480, Note_on_c, 0, 75, 44
3, 855523, Note_on_c, 0, 61, 0
3, 855523, Note_on_c, 0, 66, 0
3, 855523, Note_on_c, 0, 54, 0
3, 855523, Note_on_c, 0, 63, 0
3, 855534, Note_on_c, 0, 75, 0
3, 855540, Note_on_c, 0, 72, 39
3, 855540, Note_on_c, 0, 66, 54
3, 855540, Note_on_c, 0, 54, 48
3, 855540, Note_on_c, 0, 60, 50
3, 855540, Note_on_c, 0, 63, 49
3, 855594, Note_on_c, 0, 72, 0
3, 855599, Note_on_c, 0, 76, 45
3, 855654, Note_on_c, 0, 76, 0
3, 855660, Note_on_c, 0, 75, 42
3, 855703, Note_on_c, 0, 63, 0
3, 855703, Note_on_c, 0, 60, 0
3, 855703, Note_on_c, 0, 54, 0
3, 855703, Note_on_c, 0, 66, 0
3, 855714, Note_on_c, 0, 75, 0
3, 855720, Note_on_c, 0, 73, 39
3, 855720, Note_on_c, 0, 68, 54
3, 855774, Note_on_c, 0, 73, 0
3, 855779, Note_on_c, 0, 75, 46
3, 855834, Note_on_c, 0, 75, 0
3, 855840, Note_on_c, 0, 73, 41
3, 855883, Note_on_c, 0, 68, 0
3, 855894, Note_on_c, 0, 73, 0
3, 855900, Note_on_c, 0, 72, 42
3, 855900, Note_on_c, 0, 68, 55
3, 855954, Note_on_c, 0, 72, 0
3, 855959, Note_on_c, 0, 73, 43
3, 856014, Note_on_c, 0, 73, 0
3, 856020, Note_on_c, 0, 72, 40
3, 856063, Note_on_c, 0, 68, 0
3, 856074, Note_on_c, 0, 72, 0
3, 856080, Note_on_c, 0, 73, 45
3, 856080, Note_on_c, 0, 69, 55
3, 856134, Note_on_c, 0, 73, 0
3, 856139, Note_on_c, 0, 72, 43
3, 856194, Note_on_c, 0, 72, 0
3, 856200, Note_on_c, 0, 73, 46
3, 856243, Note_on_c, 0, 69, 0
3, 856254, Note_on_c, 0, 73, 0
3, 856260, Note_on_c, 0, 72, 40
3, 856260, Note_on_c, 0, 68, 50
3, 856314, Note_on_c, 0, 72, 0
3, 856319, Note_on_c, 0, 73, 42
3, 856374, Note_on_c, 0, 73, 0
3, 856380, Note_on_c, 0, 72, 41
3, 856423, Note_on_c, 0, 68, 0
3, 856434, Note_on_c, 0, 72, 0
3, 856440, Note_on_c, 0, 71, 45
3, 856440, Note_on_c, 0, 64, 56
3, 856440, Note_on_c, 0, 68, 56
3, 856440, Note_on_c, 0, 59, 51
3, 856494, Note_on_c, 0, 71, 0
3, 856499, Note_on_c, 0, 75, 45
3, 856554, Note_on_c, 0, 75, 0
3, 856560, Note_on_c, 0, 76, 45
3, 856603, Note_on_c, 0, 68, 0
3, 856603, Note_on_c, 0, 64, 0
3, 856614, Note_on_c, 0, 76, 0
3, 856620, Note_on_c, 0, 78, 44
3, 856620, Note_on_c, 0, 63, 47
3, 856674, Note_on_c, 0, 78, 0
3, 856679, Note_on_c, 0, 80, 46
3, 856734, Note_on_c, 0, 80, 0
3, 856740, Note_on_c, 0, 78, 39
3, 856783, Note_on_c, 0, 63, 0
3, 856794, Note_on_c, 0, 78, 0
3, 856800, Note_on_c, 0, 76, 40
3, 856800, Note_on_c, 0, 64, 56
3, 856854, Note_on_c, 0, 76, 0
3, 856859, Note_on_c, 0, 78, 43
3, 856914, Note_on_c, 0, 78, 0
3, 856920, Note_on_c, 0, 76, 39
3, 856927, Note_on_c, 0, 59, 0
3, 856963, Note_on_c, 0, 64, 0
3, 856974, Note_on_c, 0, 76, 0
3, 856980, Note_on_c, 0, 75, 44
3, 856980, Note_on_c, 0, 66, 55
3, 856980, Note_on_c, 0, 60, 58
3, 857034, Note_on_c, 0, 75, 0
3, 857039, Note_on_c, 0, 76, 44
3, 857094, Note_on_c, 0, 76, 0
3, 857100, Note_on_c, 0, 75, 42
3, 857143, Note_on_c, 0, 60, 0
3, 857154, Note_on_c, 0, 75, 0
3, 857160, Note_on_c, 0, 73, 40
3, 857160, Note_on_c, 0, 61, 55
3, 857214, Note_on_c, 0, 73, 0
3, 857219, Note_on_c, 0, 75, 43
3, 857274, Note_on_c, 0, 75, 0
3, 857280, Note_on_c, 0, 73, 42
3, 857323, Note_on_c, 0, 61, 0
3, 857334, Note_on_c, 0, 73, 0
3, 857340, Note_on_c, 0, 72, 39
3, 857340, Note_on_c, 0, 63, 54
3, 857394, Note_on_c, 0, 72, 0
3, 857399, Note_on_c, 0, 73, 43
3, 857454, Note_on_c, 0, 73, 0
3, 857460, Note_on_c, 0, 72, 42
3, 857467, Note_on_c, 0, 66, 0
3, 857503, Note_on_c, 0, 63, 0
3, 857514, Note_on_c, 0, 72, 0
3, 857520, Note_on_c, 0, 71, 44
3, 857520, Note_on_c, 0, 68, 65
3, 857520, Note_on_c, 0, 64, 58
3, 857574, Note_on_c, 0, 71, 0
3, 857579, Note_on_c, 0, 69, 40
3, 857634, Note_on_c, 0, 69, 0
3, 857640, Note_on_c, 0, 68, 42
3, 857683, Note_on_c, 0, 64, 0
3, 857694, Note_on_c, 0, 68, 0
3, 857700, Note_on_c, 0, 66, 39
3, 857700, Note_on_c, 0, 63, 49
3, 857754, Note_on_c, 0, 66, 0
3, 857759, Note_on_c, 0, 68, 46
3, 857782, Note_on_c, 0, 63, 0
3, 857790, Note_on_c, 0, 61, 48
3, 857814, Note_on_c, 0, 68, 0
3, 857820, Note_on_c, 0, 66, 39
3, 857872, Note_on_c, 0, 61, 0
3, 857874, Note_on_c, 0, 66, 0
3, 857880, Note_on_c, 0, 64, 39
3, 857880, Note_on_c, 0, 61, 52
3, 857934, Note_on_c, 0, 64, 0
3, 857939, Note_on_c, 0, 66, 45
3, 857962, Note_on_c, 0, 61, 0
3, 857970, Note_on_c, 0, 59, 51
3, 857994, Note_on_c, 0, 66, 0
3, 858000, Note_on_c, 0, 64, 40
3, 858052, Note_on_c, 0, 59, 0
3, 858054, Note_on_c, 0, 64, 0
3, 858060, Note_on_c, 0, 63, 43
3, 858060, Note_on_c, 0, 59, 55
3, 858114, Note_on_c, 0, 63, 0
3, 858119, Note_on_c, 0, 64, 44
3, 858142, Note_on_c, 0, 59, 0
3, 858150, Note_on_c, 0, 57, 48
3, 858174, Note_on_c, 0, 64, 0
3, 858180, Note_on_c, 0, 63, 40
3, 858232, Note_on_c, 0, 57, 0
3, 858234, Note_on_c, 0, 63, 0
3, 858240, Note_on_c, 0, 61, 41
3, 858240, Note_on_c, 0, 57, 52
3, 858294, Note_on_c, 0, 61, 0
3, 858299, Note_on_c, 0, 63, 45
3, 858322, Note_on_c, 0, 57, 0
3, 858330, Note_on_c, 0, 56, 50
3, 858354, Note_on_c, 0, 63, 0
3, 858360, Note_on_c, 0, 61, 41
3, 858412, Note_on_c, 0, 56, 0
3, 858414, Note_on_c, 0, 61, 0
3, 858420, Note_on_c, 0, 60, 42
3, 858420, Note_on_c, 0, 56, 50
3, 858474, Note_on_c, 0, 60, 0
3, 858479, Note_on_c, 0, 61, 42
3, 858534, Note_on_c, 0, 61, 0
3, 858540, Note_on_c, 0, 60, 41
3, 858583, Note_on_c, 0, 56, 0
3, 858594, Note_on_c, 0, 60, 0
3, 858600, Note_on_c, 0, 68, 0
3, 858600, Note_on_c, 0, 56, 42
3, 858600, Note_on_c, 0, 32, 44
3, 858600, Note_on_c, 0, 44, 42
3, 858763, Note_on_c, 0, 56, 0
3, 858780, Note_on_c, 0, 66, 41
3, 858943, Note_on_c, 0, 66, 0
3, 858960, Note_on_c, 0, 68, 42
3, 859087, Note_on_c, 0, 44, 0
3, 859087, Note_on_c, 0, 32, 0
3, 859123, Note_on_c, 0, 68, 0
3, 859140, Note_on_c, 0, 69, 47
3, 859140, Note_on_c, 0, 60, 40
3, 859140, Note_on_c, 0, 66, 41
3, 859140, Note_on_c, 0, 44, 59
3, 859140, Note_on_c, 0, 51, 60
3, 859303, Note_on_c, 0, 69, 0
3, 859320, Note_on_c, 0, 71, 47
3, 859465, Note_on_c, 0, 60, 0
3, 859483, Note_on_c, 0, 71, 0
3, 859500, Note_on_c, 0, 69, 39
3, 859500, Note_on_c, 0, 61, 43
3, 859663, Note_on_c, 0, 61, 0
3, 859663, Note_on_c, 0, 69, 0
3, 859680, Note_on_c, 0, 68, 44
3, 859680, Note_on_c, 0, 60, 44
3, 859680, Note_on_c, 0, 44, 42
3, 859843, Note_on_c, 0, 60, 0
3, 859843, Note_on_c, 0, 66, 0
3, 859843, Note_on_c, 0, 51, 0
3, 859843, Note_on_c, 0, 68, 0
3, 859860, Note_on_c, 0, 63, 39
3, 859860, Note_on_c, 0, 63, 38
3, 859860, Note_on_c, 0, 54, 58
3, 860023, Note_on_c, 0, 54, 0
3, 860023, Note_on_c, 0, 63, 0
3, 860023, Note_on_c, 0, 63, 0
3, 860040, Note_on_c, 0, 64, 43
3, 860040, Note_on_c, 0, 61, 41
3, 860040, Note_on_c, 0, 52, 49
3, 860203, Note_on_c, 0, 52, 0
3, 860203, Note_on_c, 0, 64, 0
3, 860203, Note_on_c, 0, 61, 0
3, 860220, Note_on_c, 0, 63, 47
3, 860220, Note_on_c, 0, 66, 49
3, 860220, Note_on_c, 0, 60, 41
3, 860220, Note_on_c, 0, 51, 53
3, 860383, Note_on_c, 0, 51, 0
3, 860383, Note_on_c, 0, 66, 0
3, 860383, Note_on_c, 0, 63, 0
3, 860383, Note_on_c, 0, 60, 0
3, 860400, Note_on_c, 0, 64, 40
3, 860400, Note_on_c, 0, 61, 45
3, 860400, Note_on_c, 0, 52, 55
3, 860563, Note_on_c, 0, 52, 0
3, 860563, Note_on_c, 0, 64, 0
3, 860563, Note_on_c, 0, 61, 0
3, 860580, Note_on_c, 0, 66, 46
3, 860580, Note_on_c, 0, 63, 46
3, 860580, Note_on_c, 0, 54, 57
3, 860690, Note_on_c, 0, 44, 0
3, 860743, Note_on_c, 0, 63, 0
3, 860743, Note_on_c, 0, 66, 0
3, 860743, Note_on_c, 0, 54, 0
3, 860760, Note_on_c, 0, 66, 46
3, 860760, Note_on_c, 0, 61, 42
3, 860760, Note_on_c, 0, 52, 54
3, 860760, Note_on_c, 0, 44, 52
3, 860923, Note_on_c, 0, 52, 0
3, 860940, Note_on_c, 0, 54, 54
3, 861085, Note_on_c, 0, 66, 0
3, 861103, Note_on_c, 0, 54, 0
3, 861120, Note_on_c, 0, 63, 41
3, 861120, Note_on_c, 0, 56, 55
3, 861247, Note_on_c, 0, 61, 0
3, 861283, Note_on_c, 0, 63, 0
3, 861283, Note_on_c, 0, 56, 0
3, 861300, Note_on_c, 0, 63, 45
3, 861300, Note_on_c, 0, 61, 43
3, 861300, Note_on_c, 0, 57, 55
3, 861463, Note_on_c, 0, 63, 0
3, 861480, Note_on_c, 0, 64, 44
3, 861625, Note_on_c, 0, 61, 0
3, 861625, Note_on_c, 0, 57, 0
3, 861643, Note_on_c, 0, 64, 0
3, 861660, Note_on_c, 0, 66, 45
3, 861660, Note_on_c, 0, 60, 39
3, 861660, Note_on_c, 0, 56, 50
3, 861770, Note_on_c, 0, 44, 0
3, 861823, Note_on_c, 0, 60, 0
3, 861823, Note_on_c, 0, 66, 0
3, 861823, Note_on_c, 0, 56, 0
3, 861840, Note_on_c, 0, 56, 51
3, 861840, Note_on_c, 0, 61, 53
3, 861840, Note_on_c, 0, 68, 53
3, 861840, Note_on_c, 0, 52, 50
3, 862020, Note_on_c, 0, 68, 40
3, 862020, Note_on_c, 0, 80, 40
3, 862109, Note_on_c, 0, 80, 0
3, 862109, Note_on_c, 0, 68, 0
3, 862200, Note_on_c, 0, 70, 45
3, 862200, Note_on_c, 0, 82, 46
3, 862289, Note_on_c, 0, 82, 0
3, 862289, Note_on_c, 0, 70, 0
3, 862327, Note_on_c, 0, 68, 0
3, 862327, Note_on_c, 0, 44, 0
3, 862327, Note_on_c, 0, 56, 0
3, 862327, Note_on_c, 0, 61, 0
3, 862327, Note_on_c, 0, 52, 0
3, 862380, Note_on_c, 0, 72, 50
3, 862380, Note_on_c, 0, 84, 50
3, 862380, Note_on_c, 0, 30, 41
3, 862380, Note_on_c, 0, 42, 40
3, 862469, Note_on_c, 0, 84, 0
3, 862469, Note_on_c, 0, 72, 0
3, 862560, Note_on_c, 0, 73, 43
3, 862560, Note_on_c, 0, 85, 47
3, 862649, Note_on_c, 0, 85, 0
3, 862649, Note_on_c, 0, 73, 0
3, 862740, Note_on_c, 0, 75, 47
3, 862740, Note_on_c, 0, 87, 46
3, 862829, Note_on_c, 0, 87, 0
3, 862829, Note_on_c, 0, 75, 0
3, 862867, Note_on_c, 0, 42, 0
3, 862867, Note_on_c, 0, 30, 0
3, 862920, Note_on_c, 0, 76, 49
3, 862920, Note_on_c, 0, 88, 49
3, 862920, Note_on_c, 0, 28, 48
3, 862920, Note_on_c, 0, 40, 49
3, 863083, Note_on_c, 0, 88, 0
3, 863083, Note_on_c, 0, 76, 0
3, 863100, Note_on_c, 0, 47, 32
3, 863100, Note_on_c, 0, 59, 33
3, 863263, Note_on_c, 0, 59, 0
3, 863263, Note_on_c, 0, 47, 0
3, 863280, Note_on_c, 0, 49, 43
3, 863280, Note_on_c, 0, 61, 43
3, 863443, Note_on_c, 0, 61, 0
3, 863443, Note_on_c, 0, 49, 0
3, 863460, Note_on_c, 0, 51, 48
3, 863460, Note_on_c, 0, 63, 47
3, 863623, Note_on_c, 0, 63, 0
3, 863623, Note_on_c, 0, 51, 0
3, 863640, Note_on_c, 0, 52, 43
3, 863640, Note_on_c, 0, 64, 44
3, 863803, Note_on_c, 0, 64, 0
3, 863803, Note_on_c, 0, 52, 0
3, 863820, Note_on_c, 0, 54, 46
3, 863820, Note_on_c, 0, 66, 44
3, 863930, Note_on_c, 0, 28, 0
3, 863930, Note_on_c, 0, 40, 0
3, 863983, Note_on_c, 0, 66, 0
3, 863983, Note_on_c, 0, 54, 0
3, 864000, Note_on_c, 0, 56, 48
3, 864000, Note_on_c, 0, 68, 48
3, 864000, Note_on_c, 0, 62, 41
3, 864000, Note_on_c, 0, 28, 53
3, 864000, Note_on_c, 0, 40, 57
3, 864325, Note_on_c, 0, 68, 0
3, 864325, Note_on_c, 0, 56, 0
3, 864360, Note_on_c, 0, 54, 41
3, 864360, Note_on_c, 0, 66, 39
3, 864523, Note_on_c, 0, 66, 0
3, 864523, Note_on_c, 0, 54, 0
3, 864540, Note_on_c, 0, 56, 48
3, 864540, Note_on_c, 0, 68, 46
3, 864703, Note_on_c, 0, 68, 0
3, 864703, Note_on_c, 0, 56, 0
3, 864720, Note_on_c, 0, 57, 44
3, 864720, Note_on_c, 0, 69, 46
3, 864883, Note_on_c, 0, 69, 0
3, 864883, Note_on_c, 0, 57, 0
3, 864900, Note_on_c, 0, 56, 43
3, 864900, Note_on_c, 0, 68, 42
3, 865010, Note_on_c, 0, 28, 0
3, 865010, Note_on_c, 0, 62, 0
3, 865010, Note_on_c, 0, 40, 0
3, 865063, Note_on_c, 0, 68, 0
3, 865063, Note_on_c, 0, 56, 0
3, 865080, Note_on_c, 0, 59, 51
3, 865080, Note_on_c, 0, 71, 49
3, 865080, Note_on_c, 0, 61, 44
3, 865080, Note_on_c, 0, 33, 58
3, 865080, Note_on_c, 0, 45, 57
3, 865405, Note_on_c, 0, 71, 0
3, 865405, Note_on_c, 0, 59, 0
3, 865440, Note_on_c, 0, 61, 45
3, 865440, Note_on_c, 0, 73, 44
3, 865567, Note_on_c, 0, 61, 0
3, 865603, Note_on_c, 0, 61, 0
3, 865603, Note_on_c, 0, 73, 0
3, 865620, Note_on_c, 0, 61, 45
3, 865620, Note_on_c, 0, 73, 46
3, 865620, Note_on_c, 0, 66, 46
3, 865620, Note_on_c, 0, 45, 48
3, 865620, Note_on_c, 0, 54, 50
3, 865783, Note_on_c, 0, 73, 0
3, 865783, Note_on_c, 0, 61, 0
3, 865800, Note_on_c, 0, 59, 39
3, 865800, Note_on_c, 0, 71, 41
3, 865963, Note_on_c, 0, 71, 0
3, 865963, Note_on_c, 0, 59, 0
3, 865980, Note_on_c, 0, 61, 46
3, 865980, Note_on_c, 0, 73, 45
3, 866090, Note_on_c, 0, 33, 0
3, 866090, Note_on_c, 0, 45, 0
3, 866107, Note_on_c, 0, 54, 0
3, 866107, Note_on_c, 0, 45, 0
3, 866107, Note_on_c, 0, 66, 0
3, 866143, Note_on_c, 0, 61, 0
3, 866143, Note_on_c, 0, 73, 0
3, 866160, Note_on_c, 0, 64, 49
3, 866160, Note_on_c, 0, 76, 47
3, 866160, Note_on_c, 0, 69, 51
3, 866160, Note_on_c, 0, 42, 57
3, 866160, Note_on_c, 0, 57, 57
3, 866485, Note_on_c, 0, 76, 0
3, 866485, Note_on_c, 0, 64, 0
3, 866520, Note_on_c, 0, 66, 46
3, 866520, Note_on_c, 0, 78, 45
3, 866647, Note_on_c, 0, 69, 0
3, 866647, Note_on_c, 0, 42, 0
3, 866647, Note_on_c, 0, 57, 0
3, 866683, Note_on_c, 0, 78, 0
3, 866683, Note_on_c, 0, 66, 0
3, 866700, Note_on_c, 0, 66, 46
3, 866700, Note_on_c, 0, 78, 46
3, 866700, Note_on_c, 0, 73, 47
3, 866700, Note_on_c, 0, 45, 60
3, 866700, Note_on_c, 0, 61, 59
3, 866863, Note_on_c, 0, 78, 0
3, 866863, Note_on_c, 0, 66, 0
3, 866880, Note_on_c, 0, 64, 42
3, 866880, Note_on_c, 0, 76, 41
3, 867043, Note_on_c, 0, 76, 0
3, 867043, Note_on_c, 0, 64, 0
3, 867060, Note_on_c, 0, 66, 47
3, 867060, Note_on_c, 0, 78, 47
3, 867187, Note_on_c, 0, 45, 0
3, 867187, Note_on_c, 0, 73, 0
3, 867187, Note_on_c, 0, 61, 0
3, 867223, Note_on_c, 0, 78, 0
3, 867223, Note_on_c, 0, 66, 0
3, 867240, Note_on_c, 0, 68, 49
3, 867240, Note_on_c, 0, 72, 49
3, 867240, Note_on_c, 0, 80, 47
3, 867240, Note_on_c, 0, 32, 54
3, 867240, Note_on_c, 0, 44, 51
3, 867403, Note_on_c, 0, 80, 0
3, 867403, Note_on_c, 0, 72, 0
3, 867403, Note_on_c, 0, 68, 0
3, 867420, Note_on_c, 0, 72, 34
3, 867420, Note_on_c, 0, 60, 48
3, 867502, Note_on_c, 0, 60, 0
3, 867502, Note_on_c, 0, 72, 0
3, 867510, Note_on_c, 0, 70, 40
3, 867510, Note_on_c, 0, 58, 48
3, 867592, Note_on_c, 0, 58, 0
3, 867592, Note_on_c, 0, 70, 0
3, 867600, Note_on_c, 0, 68, 40
3, 867600, Note_on_c, 0, 56, 47
3, 867682, Note_on_c, 0, 56, 0
3, 867682, Note_on_c, 0, 68, 0
3, 867690, Note_on_c, 0, 70, 44
3, 867690, Note_on_c, 0, 58, 54
3, 867772, Note_on_c, 0, 58, 0
3, 867772, Note_on_c, 0, 70, 0
3, 867780, Note_on_c, 0, 68, 41
3, 867780, Note_on_c, 0, 56, 52
3, 867862, Note_on_c, 0, 56, 0
3, 867862, Note_on_c, 0, 68, 0
3, 867870, Note_on_c, 0, 67, 41
3, 867870, Note_on_c, 0, 55, 51
3, 867952, Note_on_c, 0, 55, 0
3, 867952, Note_on_c, 0, 67, 0
3, 867960, Note_on_c, 0, 65, 42
3, 867960, Note_on_c, 0, 53, 50
3, 868042, Note_on_c, 0, 53, 0
3, 868042, Note_on_c, 0, 65, 0
3, 868050, Note_on_c, 0, 67, 47
3, 868050, Note_on_c, 0, 55, 56
3, 868132, Note_on_c, 0, 55, 0
3, 868132, Note_on_c, 0, 67, 0
3, 868140, Note_on_c, 0, 65, 39
3, 868140, Note_on_c, 0, 53, 49
3, 868222, Note_on_c, 0, 53, 0
3, 868222, Note_on_c, 0, 65, 0
3, 868230, Note_on_c, 0, 63, 41
3, 868230, Note_on_c, 0, 51, 51
3, 868250, Note_on_c, 0, 44, 0
3, 868250, Note_on_c, 0, 32, 0
3, 868312, Note_on_c, 0, 51, 0
3, 868312, Note_on_c, 0, 63, 0
3, 868320, Note_on_c, 0, 29, 52
3, 868320, Note_on_c, 0, 41, 51
3, 868410, Note_on_c, 0, 62, 40
3, 868410, Note_on_c, 0, 50, 47
3, 868492, Note_on_c, 0, 50, 0
3, 868492, Note_on_c, 0, 62, 0
3, 868500, Note_on_c, 0, 72, 52
3, 868500, Note_on_c, 0, 60, 65
3, 868582, Note_on_c, 0, 60, 0
3, 868582, Note_on_c, 0, 72, 0
3, 868590, Note_on_c, 0, 70, 43
3, 868590, Note_on_c, 0, 58, 50
3, 868672, Note_on_c, 0, 58, 0
3, 868672, Note_on_c, 0, 70, 0
3, 868680, Note_on_c, 0, 68, 40
3, 868680, Note_on_c, 0, 56, 52
3, 868762, Note_on_c, 0, 56, 0
3, 868762, Note_on_c, 0, 68, 0
3, 868770, Note_on_c, 0, 70, 46
3, 868770, Note_on_c, 0, 58, 56
3, 868852, Note_on_c, 0, 58, 0
3, 868852, Note_on_c, 0, 70, 0
3, 868860, Note_on_c, 0, 68, 43
3, 868860, Note_on_c, 0, 56, 53
3, 868942, Note_on_c, 0, 56, 0
3, 868942, Note_on_c, 0, 68, 0
3, 868950, Note_on_c, 0, 67, 39
3, 868950, Note_on_c, 0, 55, 51
3, 869032, Note_on_c, 0, 55, 0
3, 869032, Note_on_c, 0, 67, 0
3, 869040, Note_on_c, 0, 65, 40
3, 869040, Note_on_c, 0, 53, 51
3, 869122, Note_on_c, 0, 53, 0
3, 869122, Note_on_c, 0, 65, 0
3, 869130, Note_on_c, 0, 67, 46
3, 869130, Note_on_c, 0, 55, 57
3, 869212, Note_on_c, 0, 55, 0
3, 869212, Note_on_c, 0, 67, 0
3, 869220, Note_on_c, 0, 65, 38
3, 869220, Note_on_c, 0, 53, 49
3, 869302, Note_on_c, 0, 53, 0
3, 869302, Note_on_c, 0, 65, 0
3, 869310, Note_on_c, 0, 62, 41
3, 869310, Note_on_c, 0, 50, 46
3, 869330, Note_on_c, 0, 41, 0
3, 869330, Note_on_c, 0, 29, 0
3, 869392, Note_on_c, 0, 50, 0
3, 869392, Note_on_c, 0, 62, 0
3, 869400, Note_on_c, 0, 30, 55
3, 869400, Note_on_c, 0, 42, 58
3, 869490, Note_on_c, 0, 63, 37
3, 869490, Note_on_c, 0, 51, 50
3, 869572, Note_on_c, 0, 51, 0
3, 869572, Note_on_c, 0, 63, 0
3, 869580, Note_on_c, 0, 75, 53
3, 869580, Note_on_c, 0, 63, 65
3, 869662, Note_on_c, 0, 63, 0
3, 869662, Note_on_c, 0, 75, 0
3, 869670, Note_on_c, 0, 72, 40
3, 869670, Note_on_c, 0, 60, 52
3, 869752, Note_on_c, 0, 60, 0
3, 869752, Note_on_c, 0, 72, 0
3, 869760, Note_on_c, 0, 70, 41
3, 869760, Note_on_c, 0, 58, 49
3, 869842, Note_on_c, 0, 58, 0
3, 869842, Note_on_c, 0, 70, 0
3, 869850, Note_on_c, 0, 72, 45
3, 869850, Note_on_c, 0, 60, 54
3, 869932, Note_on_c, 0, 60, 0
3, 869932, Note_on_c, 0, 72, 0
3, 869940, Note_on_c, 0, 71, 43
3, 869940, Note_on_c, 0, 59, 54
3, 870022, Note_on_c, 0, 59, 0
3, 870022, Note_on_c, 0, 71, 0
3, 870030, Note_on_c, 0, 68, 38
3, 870030, Note_on_c, 0, 56, 47
3, 870103, Note_on_c, 0, 42, 0
3, 870103, Note_on_c, 0, 30, 0
3, 870112, Note_on_c, 0, 56, 0
3, 870112, Note_on_c, 0, 68, 0
3, 870120, Note_on_c, 0, 67, 40
3, 870120, Note_on_c, 0, 55, 48
3, 870120, Note_on_c, 0, 43, 83
3, 870202, Note_on_c, 0, 55, 0
3, 870202, Note_on_c, 0, 67, 0
3, 870210, Note_on_c, 0, 63, 39
3, 870210, Note_on_c, 0, 51, 48
3, 870292, Note_on_c, 0, 51, 0
3, 870292, Note_on_c, 0, 63, 0
3, 870300, Note_on_c, 0, 62, 41
3, 870300, Note_on_c, 0, 50, 48
3, 870382, Note_on_c, 0, 50, 0
3, 870382, Note_on_c, 0, 62, 0
3, 870390, Note_on_c, 0, 60, 39
3, 870390, Note_on_c, 0, 48, 49
3, 870445, Note_on_c, 0, 43, 0
3, 870472, Note_on_c, 0, 48, 0
3, 870472, Note_on_c, 0, 60, 0
3, 870480, Note_on_c, 0, 32, 57
3, 870480, Note_on_c, 0, 44, 58
3, 870570, Note_on_c, 0, 65, 37
3, 870570, Note_on_c, 0, 53, 46
3, 870652, Note_on_c, 0, 53, 0
3, 870652, Note_on_c, 0, 65, 0
3, 870660, Note_on_c, 0, 77, 52
3, 870660, Note_on_c, 0, 65, 65
3, 870742, Note_on_c, 0, 65, 0
3, 870742, Note_on_c, 0, 77, 0
3, 870750, Note_on_c, 0, 75, 41
3, 870750, Note_on_c, 0, 63, 51
3, 870832, Note_on_c, 0, 63, 0
3, 870832, Note_on_c, 0, 75, 0
3, 870840, Note_on_c, 0, 73, 39
3, 870840, Note_on_c, 0, 61, 51
3, 870922, Note_on_c, 0, 61, 0
3, 870922, Note_on_c, 0, 73, 0
3, 870930, Note_on_c, 0, 71, 38
3, 870930, Note_on_c, 0, 59, 49
3, 871012, Note_on_c, 0, 59, 0
3, 871012, Note_on_c, 0, 71, 0
3, 871020, Note_on_c, 0, 70, 41
3, 871020, Note_on_c, 0, 58, 54
3, 871102, Note_on_c, 0, 58, 0
3, 871102, Note_on_c, 0, 70, 0
3, 871110, Note_on_c, 0, 68, 39
3, 871110, Note_on_c, 0, 56, 48
3, 871183, Note_on_c, 0, 44, 0
3, 871183, Note_on_c, 0, 32, 0
3, 871192, Note_on_c, 0, 56, 0
3, 871192, Note_on_c, 0, 68, 0
3, 871200, Note_on_c, 0, 67, 39
3, 871200, Note_on_c, 0, 55, 48
3, 871200, Note_on_c, 0, 45, 80
3, 871282, Note_on_c, 0, 55, 0
3, 871282, Note_on_c, 0, 67, 0
3, 871290, Note_on_c, 0, 65, 38
3, 871290, Note_on_c, 0, 53, 47
3, 871372, Note_on_c, 0, 53, 0
3, 871372, Note_on_c, 0, 65, 0
3, 871380, Note_on_c, 0, 63, 41
3, 871380, Note_on_c, 0, 51, 48
3, 871462, Note_on_c, 0, 51, 0
3, 871462, Note_on_c, 0, 63, 0
3, 871470, Note_on_c, 0, 60, 40
3, 871470, Note_on_c, 0, 48, 50
3, 871525, Note_on_c, 0, 45, 0
3, 871552, Note_on_c, 0, 48, 0
3, 871552, Note_on_c, 0, 60, 0
3, 871560, Note_on_c, 0, 34, 58
3, 871560, Note_on_c, 0, 46, 57
3, 871650, Note_on_c, 0, 67, 41
3, 871650, Note_on_c, 0, 55, 49
3, 871732, Note_on_c, 0, 55, 0
3, 871732, Note_on_c, 0, 67, 0
3, 871740, Note_on_c, 0, 79, 50
3, 871740, Note_on_c, 0, 67, 64
3, 871822, Note_on_c, 0, 67, 0
3, 871822, Note_on_c, 0, 79, 0
3, 871830, Note_on_c, 0, 77, 41
3, 871830, Note_on_c, 0, 65, 51
3, 871912, Note_on_c, 0, 65, 0
3, 871912, Note_on_c, 0, 77, 0
3, 871920, Note_on_c, 0, 75, 41
3, 871920, Note_on_c, 0, 63, 50
3, 872002, Note_on_c, 0, 63, 0
3, 872002, Note_on_c, 0, 75, 0
3, 872010, Note_on_c, 0, 77, 45
3, 872010, Note_on_c, 0, 65, 56
3, 872092, Note_on_c, 0, 65, 0
3, 872092, Note_on_c, 0, 77, 0
3, 872100, Note_on_c, 0, 74, 44
3, 872100, Note_on_c, 0, 62, 51
3, 872182, Note_on_c, 0, 62, 0
3, 872182, Note_on_c, 0, 74, 0
3, 872190, Note_on_c, 0, 72, 39
3, 872190, Note_on_c, 0, 60, 48
3, 872272, Note_on_c, 0, 60, 0
3, 872272, Note_on_c, 0, 72, 0
3, 872280, Note_on_c, 0, 70, 39
3, 872280, Note_on_c, 0, 58, 48
3, 872362, Note_on_c, 0, 58, 0
3, 872362, Note_on_c, 0, 70, 0
3, 872370, Note_on_c, 0, 72, 46
3, 872370, Note_on_c, 0, 60, 54
3, 872452, Note_on_c, 0, 60, 0
3, 872452, Note_on_c, 0, 72, 0
3, 872460, Note_on_c, 0, 70, 40
3, 872460, Note_on_c, 0, 58, 49
3, 872542, Note_on_c, 0, 58, 0
3, 872542, Note_on_c, 0, 70, 0
3, 872550, Note_on_c, 0, 67, 38
3, 872550, Note_on_c, 0, 55, 50
3, 872570, Note_on_c, 0, 46, 0
3, 872570, Note_on_c, 0, 34, 0
3, 872632, Note_on_c, 0, 55, 0
3, 872632, Note_on_c, 0, 67, 0
3, 872640, Note_on_c, 0, 35, 59
3, 872640, Note_on_c, 0, 47, 57
3, 872730, Note_on_c, 0, 67, 37
3, 872730, Note_on_c, 0, 55, 48
3, 872812, Note_on_c, 0, 55, 0
3, 872812, Note_on_c, 0, 67, 0
3, 872820, Note_on_c, 0, 79, 53
3, 872820, Note_on_c, 0, 67, 65
3, 872902, Note_on_c, 0, 67, 0
3, 872902, Note_on_c, 0, 79, 0
3, 872910, Note_on_c, 0, 77, 40
3, 872910, Note_on_c, 0, 65, 53
3, 872992, Note_on_c, 0, 65, 0
3, 872992, Note_on_c, 0, 77, 0
3, 873000, Note_on_c, 0, 75, 42
3, 873000, Note_on_c, 0, 63, 49
3, 873082, Note_on_c, 0, 63, 0
3, 873082, Note_on_c, 0, 75, 0
3, 873090, Note_on_c, 0, 77, 47
3, 873090, Note_on_c, 0, 65, 55
3, 873172, Note_on_c, 0, 65, 0
3, 873172, Note_on_c, 0, 77, 0
3, 873180, Note_on_c, 0, 74, 42
3, 873180, Note_on_c, 0, 62, 51
3, 873262, Note_on_c, 0, 62, 0
3, 873262, Note_on_c, 0, 74, 0
3, 873270, Note_on_c, 0, 71, 40
3, 873270, Note_on_c, 0, 59, 47
3, 873352, Note_on_c, 0, 59, 0
3, 873352, Note_on_c, 0, 71, 0
3, 873360, Note_on_c, 0, 67, 40
3, 873360, Note_on_c, 0, 55, 48
3, 873442, Note_on_c, 0, 55, 0
3, 873442, Note_on_c, 0, 67, 0
3, 873450, Note_on_c, 0, 65, 38
3, 873450, Note_on_c, 0, 53, 49
3, 873532, Note_on_c, 0, 53, 0
3, 873532, Note_on_c, 0, 65, 0
3, 873540, Note_on_c, 0, 63, 39
3, 873540, Note_on_c, 0, 51, 49
3, 873622, Note_on_c, 0, 51, 0
3, 873622, Note_on_c, 0, 63, 0
3, 873630, Note_on_c, 0, 62, 39
3, 873630, Note_on_c, 0, 50, 50
3, 873650, Note_on_c, 0, 35, 0
3, 873650, Note_on_c, 0, 47, 0
3, 873712, Note_on_c, 0, 62, 0
3, 873712, Note_on_c, 0, 50, 0
3, 873720, Note_on_c, 0, 36, 59
3, 873720, Note_on_c, 0, 48, 57
3, 873810, Note_on_c, 0, 69, 39
3, 873810, Note_on_c, 0, 55, 47
3, 873892, Note_on_c, 0, 55, 0
3, 873892, Note_on_c, 0, 69, 0
3, 873900, Note_on_c, 0, 75, 50
3, 873900, Note_on_c, 0, 78, 49
3, 873900, Note_on_c, 0, 57, 62
3, 873900, Note_on_c, 0, 63, 65
3, 873900, Note_on_c, 0, 66, 64
3, 873982, Note_on_c, 0, 66, 0
3, 873982, Note_on_c, 0, 63, 0
3, 873982, Note_on_c, 0, 78, 0
3, 873982, Note_on_c, 0, 75, 0
3, 873982, Note_on_c, 0, 57, 0
3, 873990, Note_on_c, 0, 79, 45
3, 873990, Note_on_c, 0, 67, 59
3, 874072, Note_on_c, 0, 67, 0
3, 874072, Note_on_c, 0, 79, 0
3, 874080, Note_on_c, 0, 75, 44
3, 874080, Note_on_c, 0, 79, 43
3, 874080, Note_on_c, 0, 57, 53
3, 874080, Note_on_c, 0, 63, 53
3, 874080, Note_on_c, 0, 67, 51
3, 874162, Note_on_c, 0, 67, 0
3, 874162, Note_on_c, 0, 63, 0
3, 874162, Note_on_c, 0, 79, 0
3, 874162, Note_on_c, 0, 75, 0
3, 874162, Note_on_c, 0, 57, 0
3, 874170, Note_on_c, 0, 69, 33
3, 874170, Note_on_c, 0, 55, 40
3, 874207, Note_on_c, 0, 48, 0
3, 874207, Note_on_c, 0, 36, 0
3, 874252, Note_on_c, 0, 55, 0
3, 874252, Note_on_c, 0, 69, 0
3, 874260, Note_on_c, 0, 37, 53
3, 874260, Note_on_c, 0, 49, 53
3, 874350, Note_on_c, 0, 70, 38
3, 874350, Note_on_c, 0, 55, 46
3, 874432, Note_on_c, 0, 55, 0
3, 874432, Note_on_c, 0, 70, 0
3, 874440, Note_on_c, 0, 76, 49
3, 874440, Note_on_c, 0, 78, 51
3, 874440, Note_on_c, 0, 58, 63
3, 874440, Note_on_c, 0, 64, 66
3, 874440, Note_on_c, 0, 66, 65
3, 874522, Note_on_c, 0, 66, 0
3, 874522, Note_on_c, 0, 64, 0
3, 874522, Note_on_c, 0, 78, 0
3, 874522, Note_on_c, 0, 76, 0
3, 874522, Note_on_c, 0, 58, 0
3, 874530, Note_on_c, 0, 79, 45
3, 874530, Note_on_c, 0, 67, 57
3, 874612, Note_on_c, 0, 67, 0
3, 874612, Note_on_c, 0, 79, 0
3, 874620, Note_on_c, 0, 76, 43
3, 874620, Note_on_c, 0, 79, 43
3, 874620, Note_on_c, 0, 58, 54
3, 874620, Note_on_c, 0, 64, 53
3, 874620, Note_on_c, 0, 67, 53
3, 874702, Note_on_c, 0, 67, 0
3, 874702, Note_on_c, 0, 64, 0
3, 874702, Note_on_c, 0, 79, 0
3, 874702, Note_on_c, 0, 76, 0
3, 874702, Note_on_c, 0, 58, 0
3, 874710, Note_on_c, 0, 70, 33
3, 874710, Note_on_c, 0, 55, 38
3, 874747, Note_on_c, 0, 49, 0
3, 874747, Note_on_c, 0, 37, 0
3, 874792, Note_on_c, 0, 55, 0
3, 874792, Note_on_c, 0, 70, 0
3, 874800, Note_on_c, 0, 38, 60
3, 874800, Note_on_c, 0, 50, 58
3, 874890, Note_on_c, 0, 71, 40
3, 874890, Note_on_c, 0, 55, 48
3, 874972, Note_on_c, 0, 55, 0
3, 874972, Note_on_c, 0, 71, 0
3, 874980, Note_on_c, 0, 77, 48
3, 874980, Note_on_c, 0, 78, 49
3, 874980, Note_on_c, 0, 59, 64
3, 874980, Note_on_c, 0, 65, 64
3, 874980, Note_on_c, 0, 66, 66
3, 875062, Note_on_c, 0, 66, 0
3, 875062, Note_on_c, 0, 65, 0
3, 875062, Note_on_c, 0, 78, 0
3, 875062, Note_on_c, 0, 77, 0
3, 875062, Note_on_c, 0, 59, 0
3, 875070, Note_on_c, 0, 79, 46
3, 875070, Note_on_c, 0, 67, 56
3, 875152, Note_on_c, 0, 67, 0
3, 875152, Note_on_c, 0, 79, 0
3, 875160, Note_on_c, 0, 77, 42
3, 875160, Note_on_c, 0, 79, 42
3, 875160, Note_on_c, 0, 59, 53
3, 875160, Note_on_c, 0, 65, 54
3, 875160, Note_on_c, 0, 67, 52
3, 875242, Note_on_c, 0, 67, 0
3, 875242, Note_on_c, 0, 65, 0
3, 875242, Note_on_c, 0, 79, 0
3, 875242, Note_on_c, 0, 77, 0
3, 875242, Note_on_c, 0, 59, 0
3, 875250, Note_on_c, 0, 71, 34
3, 875250, Note_on_c, 0, 55, 37
3, 875287, Note_on_c, 0, 50, 0
3, 875287, Note_on_c, 0, 38, 0
3, 875332, Note_on_c, 0, 55, 0
3, 875332, Note_on_c, 0, 71, 0
3, 875340, Note_on_c, 0, 39, 55
3, 875340, Note_on_c, 0, 51, 57
3, 875430, Note_on_c, 0, 70, 37
3, 875430, Note_on_c, 0, 55, 47
3, 875512, Note_on_c, 0, 55, 0
3, 875512, Note_on_c, 0, 70, 0
3, 875520, Note_on_c, 0, 73, 49
3, 875520, Note_on_c, 0, 77, 50
3, 875520, Note_on_c, 0, 58, 63
3, 875520, Note_on_c, 0, 61, 62
3, 875520, Note_on_c, 0, 65, 61
3, 875602, Note_on_c, 0, 65, 0
3, 875602, Note_on_c, 0, 61, 0
3, 875602, Note_on_c, 0, 77, 0
3, 875602, Note_on_c, 0, 73, 0
3, 875602, Note_on_c, 0, 58, 0
3, 875610, Note_on_c, 0, 79, 45
3, 875610, Note_on_c, 0, 67, 57
3, 875692, Note_on_c, 0, 67, 0
3, 875692, Note_on_c, 0, 79, 0
3, 875700, Note_on_c, 0, 73, 42
3, 875700, Note_on_c, 0, 79, 42
3, 875700, Note_on_c, 0, 58, 53
3, 875700, Note_on_c, 0, 61, 54
3, 875700, Note_on_c, 0, 67, 52
3, 875782, Note_on_c, 0, 67, 0
3, 875782, Note_on_c, 0, 61, 0
3, 875782, Note_on_c, 0, 79, 0
3, 875782, Note_on_c, 0, 73, 0
3, 875782, Note_on_c, 0, 58, 0
3, 875790, Note_on_c, 0, 70, 33
3, 875790, Note_on_c, 0, 55, 38
3, 875827, Note_on_c, 0, 51, 0
3, 875827, Note_on_c, 0, 39, 0
3, 875872, Note_on_c, 0, 55, 0
3, 875872, Note_on_c, 0, 70, 0
3, 875880, Note_on_c, 0, 68, 54
3, 875880, Note_on_c, 0, 73, 55
3, 875880, Note_on_c, 0, 77, 52
3, 875880, Note_on_c, 0, 80, 52
3, 875880, Note_on_c, 0, 25, 44
3, 875880, Note_on_c, 0, 37, 42
3, 876205, Note_on_c, 0, 80, 0
3, 876205, Note_on_c, 0, 77, 0
3, 876205, Note_on_c, 0, 73, 0
3, 876205, Note_on_c, 0, 68, 0
3, 876240, Note_on_c, 0, 61, 51
3, 876240, Note_on_c, 0, 65, 52
3, 876240, Note_on_c, 0, 68, 52
3, 876240, Note_on_c, 0, 44, 69
3, 876240, Note_on_c, 0, 49, 70
3, 876240, Note_on_c, 0, 53, 68
3, 876240, Note_on_c, 0, 56, 70
3, 876583, Note_on_c, 0, 56, 0
3, 876583, Note_on_c, 0, 53, 0
3, 876583, Note_on_c, 0, 44, 0
3, 876583, Note_on_c, 0, 61, 0
3, 876583, Note_on_c, 0, 65, 0
3, 876583, Note_on_c, 0, 49, 0
3, 876583, Note_on_c, 0, 68, 0
3, 876600, Note_on_c, 0, 61, 70
3, 876600, Note_on_c, 0, 65, 69
3, 876600, Note_on_c, 0, 70, 73
3, 876600, Note_on_c, 0, 46, 84
3, 876600, Note_on_c, 0, 49, 82
3, 876600, Note_on_c, 0, 53, 82
3, 876600, Note_on_c, 0, 58, 82
3, 876890, Note_on_c, 0, 25, 0
3, 876890, Note_on_c, 0, 37, 0
3, 876925, Note_on_c, 0, 49, 0
3, 876925, Note_on_c, 0, 61, 0
3, 876925, Note_on_c, 0, 70, 0
3, 876925, Note_on_c, 0, 65, 0
3, 876925, Note_on_c, 0, 58, 0
3, 876925, Note_on_c, 0, 53, 0
3, 876925, Note_on_c, 0, 46, 0
3, 876960, Note_on_c, 0, 65, 74
3, 876960, Note_on_c, 0, 68, 74
3, 876960, Note_on_c, 0, 72, 74
3, 876960, Note_on_c, 0, 48, 87
3, 876960, Note_on_c, 0, 53, 85
3, 876960, Note_on_c, 0, 56, 84
3, 876960, Note_on_c, 0, 60, 88
3, 877285, Note_on_c, 0, 60, 0
3, 877285, Note_on_c, 0, 56, 0
3, 877285, Note_on_c, 0, 48, 0
3, 877285, Note_on_c, 0, 65, 0
3, 877285, Note_on_c, 0, 68, 0
3, 877285, Note_on_c, 0, 72, 0
3, 877285, Note_on_c, 0, 53, 0
3, 877320, Note_on_c, 0, 65, 73
3, 877320, Note_on_c, 0, 68, 72
3, 877320, Note_on_c, 0, 73, 73
3, 877320, Note_on_c, 0, 49, 82
3, 877320, Note_on_c, 0, 53, 82
3, 877320, Note_on_c, 0, 56, 79
3, 877320, Note_on_c, 0, 61, 83
3, 877663, Note_on_c, 0, 61, 0
3, 877663, Note_on_c, 0, 56, 0
3, 877663, Note_on_c, 0, 49, 0
3, 877663, Note_on_c, 0, 65, 0
3, 877663, Note_on_c, 0, 68, 0
3, 877663, Note_on_c, 0, 73, 0
3, 877663, Note_on_c, 0, 53, 0
3, 877680, Note_on_c, 0, 65, 72
3, 877680, Note_on_c, 0, 68, 70
3, 877680, Note_on_c, 0, 75, 71
3, 877680, Note_on_c, 0, 51, 83
3, 877680, Note_on_c, 0, 53, 80
3, 877680, Note_on_c, 0, 56, 83
3, 877680, Note_on_c, 0, 63, 83
3, 878005, Note_on_c, 0, 63, 0
3, 878005, Note_on_c, 0, 56, 0
3, 878005, Note_on_c, 0, 51, 0
3, 878005, Note_on_c, 0, 65, 0
3, 878005, Note_on_c, 0, 68, 0
3, 878005, Note_on_c, 0, 75, 0
3, 878005, Note_on_c, 0, 53, 0
3, 878040, Note_on_c, 0, 65, 73
3, 878040, Note_on_c, 0, 68, 75
3, 878040, Note_on_c, 0, 73, 74
3, 878040, Note_on_c, 0, 77, 77
3, 878040, Note_on_c, 0, 25, 43
3, 878040, Note_on_c, 0, 37, 43
3, 878365, Note_on_c, 0, 37, 0
3, 878365, Note_on_c, 0, 77, 0
3, 878365, Note_on_c, 0, 65, 0
3, 878365, Note_on_c, 0, 68, 0
3, 878365, Note_on_c, 0, 73, 0
3, 878365, Note_on_c, 0, 25, 0
3, 878400, Note_on_c, 0, 68, 74
3, 878400, Note_on_c, 0, 73, 73
3, 878400, Note_on_c, 0, 77, 74
3, 878400, Note_on_c, 0, 80, 74
3, 878400, Note_on_c, 0, 44, 94
3, 878400, Note_on_c, 0, 49, 93
3, 878400, Note_on_c, 0, 53, 95
3, 878400, Note_on_c, 0, 56, 94
3, 878563, Note_on_c, 0, 56, 0
3, 878563, Note_on_c, 0, 53, 0
3, 878563, Note_on_c, 0, 49, 0
3, 878563, Note_on_c, 0, 44, 0
3, 878580, Note_on_c, 0, 25, 44
3, 878580, Note_on_c, 0, 37, 46
3, 878743, Note_on_c, 0, 37, 0
3, 878743, Note_on_c, 0, 68, 0
3, 878743, Note_on_c, 0, 80, 0
3, 878743, Note_on_c, 0, 73, 0
3, 878743, Note_on_c, 0, 77, 0
3, 878743, Note_on_c, 0, 25, 0
3, 878760, Note_on_c, 0, 70, 70
3, 878760, Note_on_c, 0, 73, 70
3, 878760, Note_on_c, 0, 77, 70
3, 878760, Note_on_c, 0, 82, 71
3, 878760, Note_on_c, 0, 46, 94
3, 878760, Note_on_c, 0, 49, 95
3, 878760, Note_on_c, 0, 53, 97
3, 878760, Note_on_c, 0, 58, 95
3, 878923, Note_on_c, 0, 58, 0
3, 878923, Note_on_c, 0, 53, 0
3, 878923, Note_on_c, 0, 49, 0
3, 878923, Note_on_c, 0, 46, 0
3, 878940, Note_on_c, 0, 25, 41
3, 878940, Note_on_c, 0, 37, 42
3, 879085, Note_on_c, 0, 70, 0
3, 879085, Note_on_c, 0, 77, 0
3, 879085, Note_on_c, 0, 73, 0
3, 879085, Note_on_c, 0, 82, 0
3, 879103, Note_on_c, 0, 25, 0
3, 879103, Note_on_c, 0, 37, 0
3, 879120, Note_on_c, 0, 68, 68
3, 879120, Note_on_c, 0, 73, 66
3, 879120, Note_on_c, 0, 77, 65
3, 879120, Note_on_c, 0, 80, 66
3, 879120, Note_on_c, 0, 48, 99
3, 879120, Note_on_c, 0, 53, 98
3, 879120, Note_on_c, 0, 56, 99
3, 879120, Note_on_c, 0, 60, 98
3, 879283, Note_on_c, 0, 60, 0
3, 879283, Note_on_c, 0, 56, 0
3, 879283, Note_on_c, 0, 53, 0
3, 879283, Note_on_c, 0, 48, 0
3, 879300, Note_on_c, 0, 25, 42
3, 879300, Note_on_c, 0, 37, 40
3, 879445, Note_on_c, 0, 68, 0
3, 879445, Note_on_c, 0, 77, 0
3, 879445, Note_on_c, 0, 73, 0
3, 879445, Note_on_c, 0, 80, 0
3, 879463, Note_on_c, 0, 25, 0
3, 879463, Note_on_c, 0, 37, 0
3, 879480, Note_on_c, 0, 73, 76
3, 879480, Note_on_c, 0, 77, 74
3, 879480, Note_on_c, 0, 80, 75
3, 879480, Note_on_c, 0, 85, 76
3, 879480, Note_on_c, 0, 49, 93
3, 879480, Note_on_c, 0, 53, 97
3, 879480, Note_on_c, 0, 56, 96
3, 879480, Note_on_c, 0, 61, 93
3, 879643, Note_on_c, 0, 61, 0
3, 879643, Note_on_c, 0, 56, 0
3, 879643, Note_on_c, 0, 53, 0
3, 879643, Note_on_c, 0, 49, 0
3, 879660, Note_on_c, 0, 25, 46
3, 879660, Note_on_c, 0, 37, 43
3, 879823, Note_on_c, 0, 37, 0
3, 879823, Note_on_c, 0, 73, 0
3, 879823, Note_on_c, 0, 85, 0
3, 879823, Note_on_c, 0, 77, 0
3, 879823, Note_on_c, 0, 80, 0
3, 879823, Note_on_c, 0, 25, 0
3, 879840, Note_on_c, 0, 75, 69
3, 879840, Note_on_c, 0, 80, 71
3, 879840, Note_on_c, 0, 87, 72
3, 879840, Note_on_c, 0, 51, 94
3, 879840, Note_on_c, 0, 56, 94
3, 879840, Note_on_c, 0, 63, 97
3, 880003, Note_on_c, 0, 63, 0
3, 880003, Note_on_c, 0, 51, 0
3, 880003, Note_on_c, 0, 56, 0
3, 880020, Note_on_c, 0, 25, 40
3, 880020, Note_on_c, 0, 37, 43
3, 880165, Note_on_c, 0, 80, 0
3, 880165, Note_on_c, 0, 87, 0
3, 880165, Note_on_c, 0, 75, 0
3, 880200, Note_on_c, 0, 77, 50
3, 880200, Note_on_c, 0, 80, 50
3, 880200, Note_on_c, 0, 85, 49
3, 880200, Note_on_c, 0, 89, 47
3, 880200, Note_on_c, 0, 53, 67
3, 880200, Note_on_c, 0, 56, 69
3, 880200, Note_on_c, 0, 61, 66
3, 880200, Note_on_c, 0, 65, 65
3, 880200, Note_on_c, 0, 25, 54
3, 880200, Note_on_c, 0, 37, 55
3, 880363, Note_on_c, 0, 65, 0
3, 880363, Note_on_c, 0, 61, 0
3, 880363, Note_on_c, 0, 89, 0
3, 880363, Note_on_c, 0, 53, 0
3, 880363, Note_on_c, 0, 37, 0
3, 880363, Note_on_c, 0, 77, 0
3, 880363, Note_on_c, 0, 56, 0
3, 880363, Note_on_c, 0, 80, 0
3, 880363, Note_on_c, 0, 25, 0
3, 880363, Note_on_c, 0, 85, 0
3, 880380, Note_on_c, 0, 44, 34
3, 880462, Note_on_c, 0, 44, 0
3, 880470, Note_on_c, 0, 48, 44
3, 880552, Note_on_c, 0, 48, 0
3, 880560, Note_on_c, 0, 49, 43
3, 880642, Note_on_c, 0, 49, 0
3, 880650, Note_on_c, 0, 51, 43
3, 880732, Note_on_c, 0, 51, 0
3, 880740, Note_on_c, 0, 53, 46
3, 880740, Note_on_c, 0, 25, 48
3, 880740, Note_on_c, 0, 37, 49
3, 880822, Note_on_c, 0, 53, 0
3, 881100, Note_on_c, 0, 46, 39
3, 881100, Note_on_c, 0, 49, 39
3, 881263, Note_on_c, 0, 49, 0
3, 881263, Note_on_c, 0, 46, 0
3, 881280, Note_on_c, 0, 44, 48
3, 881280, Note_on_c, 0, 53, 49
3, 881362, Note_on_c, 0, 53, 0
3, 881362, Note_on_c, 0, 44, 0
3, 881370, Note_on_c, 0, 53, 47
3, 881452, Note_on_c, 0, 53, 0
3, 881460, Note_on_c, 0, 54, 45
3, 881542, Note_on_c, 0, 54, 0
3, 881550, Note_on_c, 0, 56, 44
3, 881632, Note_on_c, 0, 56, 0
3, 881640, Note_on_c, 0, 58, 45
3, 881722, Note_on_c, 0, 58, 0
3, 881730, Note_on_c, 0, 60, 44
3, 881812, Note_on_c, 0, 60, 0
3, 881820, Note_on_c, 0, 61, 49
3, 881902, Note_on_c, 0, 61, 0
3, 882180, Note_on_c, 0, 55, 39
3, 882180, Note_on_c, 0, 69, 39
3, 882290, Note_on_c, 0, 25, 0
3, 882290, Note_on_c, 0, 37, 0
3, 882343, Note_on_c, 0, 55, 0
3, 882343, Note_on_c, 0, 69, 0
3, 882360, Note_on_c, 0, 56, 43
3, 882360, Note_on_c, 0, 68, 45
3, 882360, Note_on_c, 0, 25, 55
3, 882360, Note_on_c, 0, 37, 56
3, 882442, Note_on_c, 0, 68, 0
3, 882442, Note_on_c, 0, 56, 0
3, 882450, Note_on_c, 0, 44, 36
3, 882532, Note_on_c, 0, 44, 0
3, 882540, Note_on_c, 0, 46, 41
3, 882622, Note_on_c, 0, 46, 0
3, 882630, Note_on_c, 0, 48, 46
3, 882712, Note_on_c, 0, 48, 0
3, 882720, Note_on_c, 0, 49, 43
3, 882802, Note_on_c, 0, 49, 0
3, 882810, Note_on_c, 0, 51, 47
3, 882892, Note_on_c, 0, 51, 0
3, 882900, Note_on_c, 0, 53, 48
3, 882982, Note_on_c, 0, 53, 0
3, 883080, Note_on_c, 0, 46, 41
3, 883080, Note_on_c, 0, 49, 41
3, 883243, Note_on_c, 0, 49, 0
3, 883243, Note_on_c, 0, 46, 0
3, 883260, Note_on_c, 0, 45, 43
3, 883260, Note_on_c, 0, 51, 45
3, 883423, Note_on_c, 0, 51, 0
3, 883423, Note_on_c, 0, 45, 0
3, 883440, Note_on_c, 0, 44, 46
3, 883440, Note_on_c, 0, 53, 50
3, 883522, Note_on_c, 0, 53, 0
3, 883522, Note_on_c, 0, 44, 0
3, 883530, Note_on_c, 0, 53, 47
3, 883612, Note_on_c, 0, 53, 0
3, 883620, Note_on_c, 0, 54, 44
3, 883702, Note_on_c, 0, 54, 0
3, 883710, Note_on_c, 0, 56, 46
3, 883792, Note_on_c, 0, 56, 0
3, 883800, Note_on_c, 0, 58, 43
3, 883882, Note_on_c, 0, 58, 0
3, 883890, Note_on_c, 0, 60, 46
3, 883972, Note_on_c, 0, 60, 0
3, 883980, Note_on_c, 0, 61, 48
3, 884062, Note_on_c, 0, 61, 0
3, 884160, Note_on_c, 0, 56, 39
3, 884323, Note_on_c, 0, 56, 0
3, 884340, Note_on_c, 0, 54, 41
3, 884450, Note_on_c, 0, 37, 0
3, 884450, Note_on_c, 0, 25, 0
3, 884503, Note_on_c, 0, 54, 0
3, 884520, Note_on_c, 0, 52, 37
3, 884520, Note_on_c, 0, 37, 56
3, 884700, Note_on_c, 0, 58, 46
3, 884880, Note_on_c, 0, 58, 0
3, 884880, Note_on_c, 0, 60, 52
3, 885007, Note_on_c, 0, 37, 0
3, 885007, Note_on_c, 0, 52, 0
3, 885060, Note_on_c, 0, 60, 0
3, 885060, Note_on_c, 0, 61, 55
3, 885060, Note_on_c, 0, 55, 45
3, 885060, Note_on_c, 0, 39, 55
3, 885240, Note_on_c, 0, 61, 0
3, 885240, Note_on_c, 0, 63, 52
3, 885420, Note_on_c, 0, 63, 0
3, 885420, Note_on_c, 0, 61, 47
3, 885547, Note_on_c, 0, 39, 0
3, 885547, Note_on_c, 0, 55, 0
3, 885600, Note_on_c, 0, 61, 0
3, 885600, Note_on_c, 0, 60, 48
3, 885600, Note_on_c, 0, 58, 50
3, 885600, Note_on_c, 0, 40, 65
3, 885600, Note_on_c, 0, 48, 66
3, 885960, Note_on_c, 0, 60, 0
3, 885960, Note_on_c, 0, 58, 39
3, 886087, Note_on_c, 0, 40, 0
3, 886087, Note_on_c, 0, 58, 0
3, 886087, Note_on_c, 0, 48, 0
3, 886140, Note_on_c, 0, 48, 33
3, 886140, Note_on_c, 0, 41, 46
3, 886303, Note_on_c, 0, 58, 0
3, 886320, Note_on_c, 0, 55, 39
3, 886483, Note_on_c, 0, 55, 0
3, 886500, Note_on_c, 0, 56, 43
3, 886627, Note_on_c, 0, 41, 0
3, 886627, Note_on_c, 0, 48, 0
3, 886663, Note_on_c, 0, 56, 0
3, 886680, Note_on_c, 0, 58, 47
3, 886680, Note_on_c, 0, 53, 51
3, 886680, Note_on_c, 0, 38, 64
3, 886680, Note_on_c, 0, 50, 66
3, 886843, Note_on_c, 0, 58, 0
3, 886860, Note_on_c, 0, 56, 41
3, 887023, Note_on_c, 0, 56, 0
3, 887040, Note_on_c, 0, 58, 46
3, 887167, Note_on_c, 0, 50, 0
3, 887167, Note_on_c, 0, 53, 0
3, 887167, Note_on_c, 0, 38, 0
3, 887203, Note_on_c, 0, 58, 0
3, 887220, Note_on_c, 0, 60, 47
3, 887220, Note_on_c, 0, 56, 47
3, 887220, Note_on_c, 0, 39, 55
3, 887220, Note_on_c, 0, 51, 57
3, 887707, Note_on_c, 0, 51, 0
3, 887707, Note_on_c, 0, 39, 0
3, 887760, Note_on_c, 0, 41, 47
3, 887923, Note_on_c, 0, 60, 0
3, 887940, Note_on_c, 0, 58, 42
3, 888085, Note_on_c, 0, 41, 0
3, 888103, Note_on_c, 0, 58, 0
3, 888120, Note_on_c, 0, 60, 43
3, 888120, Note_on_c, 0, 38, 46
3, 888283, Note_on_c, 0, 38, 0
3, 888283, Note_on_c, 0, 60, 0
3, 888300, Note_on_c, 0, 58, 44
3, 888300, Note_on_c, 0, 39, 52
3, 888480, Note_on_c, 0, 55, 41
3, 888787, Note_on_c, 0, 39, 0
3, 888787, Note_on_c, 0, 58, 0
3, 888805, Note_on_c, 0, 55, 0
3, 888840, Note_on_c, 0, 56, 45
3, 888840, Note_on_c, 0, 32, 64
3, 888840, Note_on_c, 0, 44, 64
3, 889003, Note_on_c, 0, 56, 0
3, 889020, Note_on_c, 0, 63, 53
3, 889020, Note_on_c, 0, 68, 54
3, 889020, Note_on_c, 0, 72, 51
3, 889020, Note_on_c, 0, 75, 54
3, 889109, Note_on_c, 0, 75, 0
3, 889109, Note_on_c, 0, 72, 0
3, 889109, Note_on_c, 0, 63, 0
3, 889109, Note_on_c, 0, 68, 0
3, 889200, Note_on_c, 0, 65, 48
3, 889200, Note_on_c, 0, 68, 49
3, 889200, Note_on_c, 0, 72, 46
3, 889200, Note_on_c, 0, 77, 48
3, 889289, Note_on_c, 0, 77, 0
3, 889289, Note_on_c, 0, 72, 0
3, 889289, Note_on_c, 0, 65, 0
3, 889289, Note_on_c, 0, 68, 0
3, 889380, Note_on_c, 0, 67, 48
3, 889380, Note_on_c, 0, 72, 47
3, 889380, Note_on_c, 0, 75, 49
3, 889380, Note_on_c, 0, 79, 46
3, 889380, Note_on_c, 0, 51, 55
3, 889469, Note_on_c, 0, 79, 0
3, 889469, Note_on_c, 0, 75, 0
3, 889469, Note_on_c, 0, 67, 0
3, 889469, Note_on_c, 0, 72, 0
3, 889560, Note_on_c, 0, 68, 45
3, 889560, Note_on_c, 0, 72, 43
3, 889560, Note_on_c, 0, 77, 45
3, 889560, Note_on_c, 0, 80, 44
3, 889649, Note_on_c, 0, 80, 0
3, 889649, Note_on_c, 0, 68, 0
3, 889649, Note_on_c, 0, 77, 0
3, 889649, Note_on_c, 0, 72, 0
3, 889650, Note_on_c, 0, 51, 0
3, 889650, Note_on_c, 0, 53, 62
3, 889740, Note_on_c, 0, 70, 46
3, 889740, Note_on_c, 0, 75, 43
3, 889740, Note_on_c, 0, 82, 44
3, 889829, Note_on_c, 0, 82, 0
3, 889829, Note_on_c, 0, 75, 0
3, 889829, Note_on_c, 0, 70, 0
3, 889850, Note_on_c, 0, 44, 0
3, 889850, Note_on_c, 0, 32, 0
3, 889920, Note_on_c, 0, 53, 0
3, 889920, Note_on_c, 0, 72, 46
3, 889920, Note_on_c, 0, 75, 47
3, 889920, Note_on_c, 0, 84, 47
3, 889920, Note_on_c, 0, 55, 65
3, 890009, Note_on_c, 0, 84, 0
3, 890009, Note_on_c, 0, 75, 0
3, 890009, Note_on_c, 0, 72, 0
3, 890100, Note_on_c, 0, 63, 32
3, 890100, Note_on_c, 0, 68, 34
3, 890100, Note_on_c, 0, 72, 34
3, 890100, Note_on_c, 0, 75, 33
3, 890189, Note_on_c, 0, 75, 0
3, 890189, Note_on_c, 0, 72, 0
3, 890189, Note_on_c, 0, 68, 0
3, 890189, Note_on_c, 0, 63, 0
3, 890190, Note_on_c, 0, 55, 0
3, 890190, Note_on_c, 0, 56, 60
3, 890280, Note_on_c, 0, 65, 44
3, 890280, Note_on_c, 0, 68, 45
3, 890280, Note_on_c, 0, 72, 44
3, 890280, Note_on_c, 0, 77, 42
3, 890369, Note_on_c, 0, 77, 0
3, 890369, Note_on_c, 0, 72, 0
3, 890369, Note_on_c, 0, 68, 0
3, 890369, Note_on_c, 0, 65, 0
3, 890460, Note_on_c, 0, 56, 0
3, 890460, Note_on_c, 0, 67, 49
3, 890460, Note_on_c, 0, 72, 48
3, 890460, Note_on_c, 0, 75, 49
3, 890460, Note_on_c, 0, 79, 47
3, 890460, Note_on_c, 0, 58, 65
3, 890549, Note_on_c, 0, 79, 0
3, 890549, Note_on_c, 0, 75, 0
3, 890549, Note_on_c, 0, 72, 0
3, 890549, Note_on_c, 0, 67, 0
3, 890640, Note_on_c, 0, 68, 47
3, 890640, Note_on_c, 0, 72, 44
3, 890640, Note_on_c, 0, 75, 44
3, 890640, Note_on_c, 0, 80, 44
3, 890729, Note_on_c, 0, 80, 0
3, 890729, Note_on_c, 0, 75, 0
3, 890729, Note_on_c, 0, 72, 0
3, 890729, Note_on_c, 0, 68, 0
3, 890730, Note_on_c, 0, 58, 0
3, 890730, Note_on_c, 0, 60, 64
3, 890820, Note_on_c, 0, 72, 48
3, 890820, Note_on_c, 0, 75, 47
3, 890820, Note_on_c, 0, 80, 47
3, 890820, Note_on_c, 0, 84, 46
3, 890909, Note_on_c, 0, 84, 0
3, 890909, Note_on_c, 0, 80, 0
3, 890909, Note_on_c, 0, 75, 0
3, 890909, Note_on_c, 0, 72, 0
3, 891000, Note_on_c, 0, 60, 0
3, 891000, Note_on_c, 0, 77, 52
3, 891000, Note_on_c, 0, 80, 52
3, 891000, Note_on_c, 0, 84, 50
3, 891000, Note_on_c, 0, 89, 52
3, 891000, Note_on_c, 0, 44, 39
3, 891000, Note_on_c, 0, 54, 69
3, 891000, Note_on_c, 0, 56, 70
3, 891000, Note_on_c, 0, 60, 72
3, 891089, Note_on_c, 0, 89, 0
3, 891089, Note_on_c, 0, 84, 0
3, 891089, Note_on_c, 0, 80, 0
3, 891089, Note_on_c, 0, 77, 0
3, 891180, Note_on_c, 0, 75, 43
3, 891180, Note_on_c, 0, 80, 39
3, 891180, Note_on_c, 0, 84, 41
3, 891180, Note_on_c, 0, 87, 40
3, 891200, Note_on_c, 0, 44, 0
3, 891200, Note_on_c, 0, 65, 72
3, 891269, Note_on_c, 0, 84, 0
3, 891269, Note_on_c, 0, 80, 0
3, 891269, Note_on_c, 0, 75, 0
3, 891269, Note_on_c, 0, 87, 0
3, 891360, Note_on_c, 0, 77, 44
3, 891360, Note_on_c, 0, 80, 46
3, 891360, Note_on_c, 0, 84, 43
3, 891360, Note_on_c, 0, 89, 44
3, 891449, Note_on_c, 0, 89, 0
3, 891449, Note_on_c, 0, 80, 0
3, 891449, Note_on_c, 0, 77, 0
3, 891449, Note_on_c, 0, 84, 0
3, 891487, Note_on_c, 0, 54, 0
3, 891487, Note_on_c, 0, 56, 0
3, 891487, Note_on_c, 0, 60, 0
3, 891540, Note_on_c, 0, 65, 0
3, 891540, Note_on_c, 0, 75, 42
3, 891540, Note_on_c, 0, 80, 44
3, 891540, Note_on_c, 0, 84, 42
3, 891540, Note_on_c, 0, 87, 43
3, 891540, Note_on_c, 0, 63, 57
3, 891540, Note_on_c, 0, 53, 49
3, 891540, Note_on_c, 0, 56, 48
3, 891629, Note_on_c, 0, 87, 0
3, 891629, Note_on_c, 0, 84, 0
3, 891629, Note_on_c, 0, 80, 0
3, 891629, Note_on_c, 0, 75, 0
3, 891720, Note_on_c, 0, 72, 39
3, 891720, Note_on_c, 0, 75, 40
3, 891720, Note_on_c, 0, 80, 37
3, 891720, Note_on_c, 0, 84, 38
3, 891809, Note_on_c, 0, 84, 0
3, 891809, Note_on_c, 0, 72, 0
3, 891809, Note_on_c, 0, 80, 0
3, 891809, Note_on_c, 0, 75, 0
3, 891865, Note_on_c, 0, 53, 0
3, 891865, Note_on_c, 0, 56, 0
3, 891900, Note_on_c, 0, 63, 0
3, 891900, Note_on_c, 0, 70, 41
3, 891900, Note_on_c, 0, 73, 42
3, 891900, Note_on_c, 0, 80, 40
3, 891900, Note_on_c, 0, 82, 40
3, 891900, Note_on_c, 0, 61, 57
3, 891900, Note_on_c, 0, 52, 52
3, 891900, Note_on_c, 0, 56, 53
3, 891989, Note_on_c, 0, 82, 0
3, 891989, Note_on_c, 0, 80, 0
3, 891989, Note_on_c, 0, 73, 0
3, 891989, Note_on_c, 0, 70, 0
3, 892063, Note_on_c, 0, 56, 0
3, 892063, Note_on_c, 0, 52, 0
3, 892080, Note_on_c, 0, 25, 0
3, 892080, Note_on_c, 0, 37, 0
3, 892080, Note_on_c, 0, 61, 0
3, 892080, Note_on_c, 0, 72, 48
3, 892080, Note_on_c, 0, 75, 50
3, 892080, Note_on_c, 0, 80, 49
3, 892080, Note_on_c, 0, 84, 46
3, 892080, Note_on_c, 0, 51, 58
3, 892080, Note_on_c, 0, 56, 60
3, 892080, Note_on_c, 0, 60, 56
3, 892080, Note_on_c, 0, 63, 59
3, 892169, Note_on_c, 0, 84, 0
3, 892169, Note_on_c, 0, 75, 0
3, 892169, Note_on_c, 0, 72, 0
3, 892169, Note_on_c, 0, 80, 0
3, 892260, Note_on_c, 0, 75, 35
3, 892260, Note_on_c, 0, 80, 33
3, 892260, Note_on_c, 0, 84, 33
3, 892260, Note_on_c, 0, 87, 36
3, 892260, Note_on_c, 0, 68, 49
3, 892342, Note_on_c, 0, 68, 0
3, 892349, Note_on_c, 0, 80, 0
3, 892349, Note_on_c, 0, 87, 0
3, 892349, Note_on_c, 0, 75, 0
3, 892349, Note_on_c, 0, 84, 0
3, 892350, Note_on_c, 0, 67, 51
3, 892432, Note_on_c, 0, 67, 0
3, 892440, Note_on_c, 0, 77, 44
3, 892440, Note_on_c, 0, 80, 44
3, 892440, Note_on_c, 0, 84, 43
3, 892440, Note_on_c, 0, 89, 42
3, 892440, Note_on_c, 0, 65, 49
3, 892522, Note_on_c, 0, 65, 0
3, 892529, Note_on_c, 0, 80, 0
3, 892529, Note_on_c, 0, 89, 0
3, 892529, Note_on_c, 0, 77, 0
3, 892529, Note_on_c, 0, 84, 0
3, 892530, Note_on_c, 0, 63, 48
3, 892612, Note_on_c, 0, 63, 0
3, 892620, Note_on_c, 0, 79, 50
3, 892620, Note_on_c, 0, 84, 47
3, 892620, Note_on_c, 0, 87, 49
3, 892620, Note_on_c, 0, 91, 49
3, 892620, Note_on_c, 0, 60, 49
3, 892702, Note_on_c, 0, 60, 0
3, 892709, Note_on_c, 0, 91, 0
3, 892709, Note_on_c, 0, 84, 0
3, 892709, Note_on_c, 0, 87, 0
3, 892709, Note_on_c, 0, 79, 0
3, 892710, Note_on_c, 0, 58, 50
3, 892792, Note_on_c, 0, 58, 0
3, 892800, Note_on_c, 0, 80, 46
3, 892800, Note_on_c, 0, 84, 43
3, 892800, Note_on_c, 0, 89, 46
3, 892800, Note_on_c, 0, 92, 45
3, 892800, Note_on_c, 0, 56, 51
3, 892882, Note_on_c, 0, 56, 0
3, 892889, Note_on_c, 0, 92, 0
3, 892889, Note_on_c, 0, 84, 0
3, 892889, Note_on_c, 0, 89, 0
3, 892889, Note_on_c, 0, 80, 0
3, 892890, Note_on_c, 0, 53, 49
3, 892972, Note_on_c, 0, 53, 0
3, 892980, Note_on_c, 0, 82, 46
3, 892980, Note_on_c, 0, 87, 43
3, 892980, Note_on_c, 0, 92, 46
3, 892980, Note_on_c, 0, 94, 45
3, 892980, Note_on_c, 0, 51, 47
3, 893062, Note_on_c, 0, 51, 0
3, 893069, Note_on_c, 0, 94, 0
3, 893069, Note_on_c, 0, 87, 0
3, 893069, Note_on_c, 0, 92, 0
3, 893069, Note_on_c, 0, 82, 0
3, 893070, Note_on_c, 0, 44, 43
3, 893090, Note_on_c, 0, 60, 0
3, 893090, Note_on_c, 0, 51, 0
3, 893090, Note_on_c, 0, 56, 0
3, 893090, Note_on_c, 0, 63, 0
3, 893152, Note_on_c, 0, 44, 0
3, 893160, Note_on_c, 0, 84, 50
3, 893160, Note_on_c, 0, 87, 46
3, 893160, Note_on_c, 0, 92, 47
3, 893160, Note_on_c, 0, 96, 48
3, 893160, Note_on_c, 0, 32, 41
3, 893249, Note_on_c, 0, 96, 0
3, 893249, Note_on_c, 0, 87, 0
3, 893249, Note_on_c, 0, 84, 0
3, 893249, Note_on_c, 0, 92, 0
3, 893340, Note_on_c, 0, 63, 33
3, 893340, Note_on_c, 0, 68, 34
3, 893340, Note_on_c, 0, 72, 33
3, 893340, Note_on_c, 0, 75, 34
3, 893429, Note_on_c, 0, 75, 0
3, 893429, Note_on_c, 0, 68, 0
3, 893429, Note_on_c, 0, 63, 0
3, 893429, Note_on_c, 0, 72, 0
3, 893520, Note_on_c, 0, 65, 45
3, 893520, Note_on_c, 0, 68, 42
3, 893520, Note_on_c, 0, 72, 45
3, 893520, Note_on_c, 0, 77, 44
3, 893609, Note_on_c, 0, 77, 0
3, 893609, Note_on_c, 0, 68, 0
3, 893609, Note_on_c, 0, 65, 0
3, 893609, Note_on_c, 0, 72, 0
3, 893700, Note_on_c, 0, 67, 49
3, 893700, Note_on_c, 0, 72, 50
3, 893700, Note_on_c, 0, 75, 47
3, 893700, Note_on_c, 0, 79, 48
3, 893700, Note_on_c, 0, 51, 51
3, 893789, Note_on_c, 0, 79, 0
3, 893789, Note_on_c, 0, 67, 0
3, 893789, Note_on_c, 0, 72, 0
3, 893789, Note_on_c, 0, 75, 0
3, 893880, Note_on_c, 0, 68, 45
3, 893880, Note_on_c, 0, 72, 45
3, 893880, Note_on_c, 0, 77, 44
3, 893880, Note_on_c, 0, 80, 45
3, 893943, Note_on_c, 0, 51, 0
3, 893969, Note_on_c, 0, 80, 0
3, 893969, Note_on_c, 0, 72, 0
3, 893969, Note_on_c, 0, 68, 0
3, 893969, Note_on_c, 0, 77, 0
3, 893970, Note_on_c, 0, 53, 56
3, 894060, Note_on_c, 0, 70, 43
3, 894060, Note_on_c, 0, 75, 47
3, 894060, Note_on_c, 0, 82, 46
3, 894149, Note_on_c, 0, 82, 0
3, 894149, Note_on_c, 0, 70, 0
3, 894149, Note_on_c, 0, 75, 0
3, 894170, Note_on_c, 0, 32, 0
3, 894213, Note_on_c, 0, 53, 0
3, 894240, Note_on_c, 0, 72, 49
3, 894240, Note_on_c, 0, 74, 47
3, 894240, Note_on_c, 0, 84, 49
3, 894240, Note_on_c, 0, 55, 61
3, 894240, Note_on_c, 0, 41, 62
3, 894329, Note_on_c, 0, 84, 0
3, 894329, Note_on_c, 0, 74, 0
3, 894329, Note_on_c, 0, 72, 0
3, 894420, Note_on_c, 0, 64, 34
3, 894420, Note_on_c, 0, 72, 37
3, 894420, Note_on_c, 0, 76, 33
3, 894483, Note_on_c, 0, 55, 0
3, 894509, Note_on_c, 0, 72, 0
3, 894509, Note_on_c, 0, 64, 0
3, 894509, Note_on_c, 0, 76, 0
3, 894510, Note_on_c, 0, 56, 57
3, 894600, Note_on_c, 0, 65, 45
3, 894600, Note_on_c, 0, 72, 43
3, 894600, Note_on_c, 0, 77, 43
3, 894689, Note_on_c, 0, 77, 0
3, 894689, Note_on_c, 0, 65, 0
3, 894689, Note_on_c, 0, 72, 0
3, 894753, Note_on_c, 0, 56, 0
3, 894780, Note_on_c, 0, 67, 46
3, 894780, Note_on_c, 0, 72, 49
3, 894780, Note_on_c, 0, 77, 47
3, 894780, Note_on_c, 0, 79, 47
3, 894780, Note_on_c, 0, 58, 59
3, 894869, Note_on_c, 0, 79, 0
3, 894869, Note_on_c, 0, 67, 0
3, 894869, Note_on_c, 0, 72, 0
3, 894869, Note_on_c, 0, 77, 0
3, 894960, Note_on_c, 0, 68, 46
3, 894960, Note_on_c, 0, 72, 46
3, 894960, Note_on_c, 0, 77, 47
3, 894960, Note_on_c, 0, 80, 45
3, 895023, Note_on_c, 0, 58, 0
3, 895049, Note_on_c, 0, 80, 0
3, 895049, Note_on_c, 0, 72, 0
3, 895049, Note_on_c, 0, 68, 0
3, 895049, Note_on_c, 0, 77, 0
3, 895050, Note_on_c, 0, 60, 57
3, 895140, Note_on_c, 0, 72, 47
3, 895140, Note_on_c, 0, 80, 48
3, 895140, Note_on_c, 0, 84, 45
3, 895229, Note_on_c, 0, 84, 0
3, 895229, Note_on_c, 0, 72, 0
3, 895229, Note_on_c, 0, 80, 0
3, 895250, Note_on_c, 0, 41, 0
3, 895293, Note_on_c, 0, 60, 0
3, 895320, Note_on_c, 0, 80, 54
3, 895320, Note_on_c, 0, 84, 54
3, 895320, Note_on_c, 0, 87, 53
3, 895320, Note_on_c, 0, 92, 53
3, 895320, Note_on_c, 0, 68, 65
3, 895320, Note_on_c, 0, 43, 72
3, 895409, Note_on_c, 0, 92, 0
3, 895409, Note_on_c, 0, 84, 0
3, 895409, Note_on_c, 0, 80, 0
3, 895409, Note_on_c, 0, 87, 0
3, 895434, Note_on_c, 0, 51, 68
3, 895500, Note_on_c, 0, 79, 42
3, 895500, Note_on_c, 0, 84, 42
3, 895500, Note_on_c, 0, 87, 41
3, 895500, Note_on_c, 0, 91, 43
3, 895548, Note_on_c, 0, 60, 68
3, 895589, Note_on_c, 0, 91, 0
3, 895589, Note_on_c, 0, 87, 0
3, 895589, Note_on_c, 0, 84, 0
3, 895589, Note_on_c, 0, 79, 0
3, 895680, Note_on_c, 0, 80, 44
3, 895680, Note_on_c, 0, 84, 43
3, 895680, Note_on_c, 0, 87, 42
3, 895680, Note_on_c, 0, 92, 45
3, 895769, Note_on_c, 0, 92, 0
3, 895769, Note_on_c, 0, 87, 0
3, 895769, Note_on_c, 0, 80, 0
3, 895769, Note_on_c, 0, 84, 0
3, 895807, Note_on_c, 0, 51, 0
3, 895807, Note_on_c, 0, 60, 0
3, 895807, Note_on_c, 0, 43, 0
3, 895807, Note_on_c, 0, 68, 0
3, 895860, Note_on_c, 0, 79, 45
3, 895860, Note_on_c, 0, 83, 43
3, 895860, Note_on_c, 0, 89, 46
3, 895860, Note_on_c, 0, 91, 45
3, 895860, Note_on_c, 0, 67, 51
3, 895860, Note_on_c, 0, 55, 52
3, 895860, Note_on_c, 0, 59, 55
3, 895949, Note_on_c, 0, 91, 0
3, 895949, Note_on_c, 0, 83, 0
3, 895949, Note_on_c, 0, 79, 0
3, 895949, Note_on_c, 0, 89, 0
3, 896040, Note_on_c, 0, 75, 39
3, 896040, Note_on_c, 0, 79, 37
3, 896040, Note_on_c, 0, 83, 36
3, 896040, Note_on_c, 0, 87, 38
3, 896129, Note_on_c, 0, 87, 0
3, 896129, Note_on_c, 0, 83, 0
3, 896129, Note_on_c, 0, 79, 0
3, 896129, Note_on_c, 0, 75, 0
3, 896185, Note_on_c, 0, 67, 0
3, 896220, Note_on_c, 0, 74, 38
3, 896220, Note_on_c, 0, 79, 39
3, 896220, Note_on_c, 0, 83, 39
3, 896220, Note_on_c, 0, 86, 41
3, 896220, Note_on_c, 0, 65, 49
3, 896309, Note_on_c, 0, 86, 0
3, 896309, Note_on_c, 0, 83, 0
3, 896309, Note_on_c, 0, 79, 0
3, 896309, Note_on_c, 0, 74, 0
3, 896347, Note_on_c, 0, 55, 0
3, 896347, Note_on_c, 0, 59, 0
3, 896383, Note_on_c, 0, 65, 0
3, 896400, Note_on_c, 0, 75, 45
3, 896400, Note_on_c, 0, 79, 46
3, 896400, Note_on_c, 0, 84, 46
3, 896400, Note_on_c, 0, 87, 46
3, 896400, Note_on_c, 0, 67, 56
3, 896400, Note_on_c, 0, 48, 61
3, 896489, Note_on_c, 0, 87, 0
3, 896489, Note_on_c, 0, 79, 0
3, 896489, Note_on_c, 0, 75, 0
3, 896489, Note_on_c, 0, 84, 0
3, 896514, Note_on_c, 0, 55, 56
3, 896580, Note_on_c, 0, 79, 35
3, 896580, Note_on_c, 0, 84, 35
3, 896580, Note_on_c, 0, 87, 35
3, 896580, Note_on_c, 0, 91, 35
3, 896628, Note_on_c, 0, 63, 57
3, 896669, Note_on_c, 0, 91, 0
3, 896669, Note_on_c, 0, 87, 0
3, 896669, Note_on_c, 0, 84, 0
3, 896669, Note_on_c, 0, 79, 0
3, 896760, Note_on_c, 0, 80, 44
3, 896760, Note_on_c, 0, 84, 43
3, 896760, Note_on_c, 0, 87, 41
3, 896760, Note_on_c, 0, 92, 41
3, 896849, Note_on_c, 0, 92, 0
3, 896849, Note_on_c, 0, 87, 0
3, 896849, Note_on_c, 0, 80, 0
3, 896849, Note_on_c, 0, 84, 0
3, 896887, Note_on_c, 0, 55, 0
3, 896887, Note_on_c, 0, 63, 0
3, 896887, Note_on_c, 0, 48, 0
3, 896887, Note_on_c, 0, 67, 0
3, 896940, Note_on_c, 0, 81, 47
3, 896940, Note_on_c, 0, 87, 48
3, 896940, Note_on_c, 0, 93, 48
3, 896940, Note_on_c, 0, 65, 48
3, 896940, Note_on_c, 0, 41, 48
3, 897029, Note_on_c, 0, 93, 0
3, 897029, Note_on_c, 0, 87, 0
3, 897029, Note_on_c, 0, 81, 0
3, 897054, Note_on_c, 0, 48, 47
3, 897120, Note_on_c, 0, 82, 45
3, 897120, Note_on_c, 0, 87, 45
3, 897120, Note_on_c, 0, 94, 46
3, 897168, Note_on_c, 0, 57, 45
3, 897209, Note_on_c, 0, 94, 0
3, 897209, Note_on_c, 0, 87, 0
3, 897209, Note_on_c, 0, 82, 0
3, 897265, Note_on_c, 0, 65, 0
3, 897300, Note_on_c, 0, 84, 45
3, 897300, Note_on_c, 0, 87, 45
3, 897300, Note_on_c, 0, 93, 46
3, 897300, Note_on_c, 0, 96, 43
3, 897300, Note_on_c, 0, 63, 48
3, 897389, Note_on_c, 0, 96, 0
3, 897389, Note_on_c, 0, 93, 0
3, 897389, Note_on_c, 0, 87, 0
3, 897389, Note_on_c, 0, 84, 0
3, 897427, Note_on_c, 0, 57, 0
3, 897427, Note_on_c, 0, 41, 0
3, 897427, Note_on_c, 0, 48, 0
3, 897463, Note_on_c, 0, 63, 0
3, 897480, Note_on_c, 0, 85, 47
3, 897480, Note_on_c, 0, 89, 47
3, 897480, Note_on_c, 0, 94, 47
3, 897480, Note_on_c, 0, 97, 46
3, 897480, Note_on_c, 0, 65, 57
3, 897480, Note_on_c, 0, 46, 62
3, 897569, Note_on_c, 0, 97, 0
3, 897569, Note_on_c, 0, 89, 0
3, 897569, Note_on_c, 0, 85, 0
3, 897569, Note_on_c, 0, 94, 0
3, 897594, Note_on_c, 0, 53, 58
3, 897660, Note_on_c, 0, 78, 49
3, 897660, Note_on_c, 0, 82, 50
3, 897660, Note_on_c, 0, 85, 48
3, 897660, Note_on_c, 0, 90, 50
3, 897708, Note_on_c, 0, 61, 58
3, 897749, Note_on_c, 0, 90, 0
3, 897749, Note_on_c, 0, 85, 0
3, 897749, Note_on_c, 0, 82, 0
3, 897749, Note_on_c, 0, 78, 0
3, 897840, Note_on_c, 0, 77, 42
3, 897840, Note_on_c, 0, 82, 43
3, 897840, Note_on_c, 0, 85, 41
3, 897840, Note_on_c, 0, 89, 40
3, 897929, Note_on_c, 0, 89, 0
3, 897929, Note_on_c, 0, 85, 0
3, 897929, Note_on_c, 0, 77, 0
3, 897929, Note_on_c, 0, 82, 0
3, 897967, Note_on_c, 0, 53, 0
3, 897967, Note_on_c, 0, 61, 0
3, 897967, Note_on_c, 0, 46, 0
3, 897967, Note_on_c, 0, 65, 0
3, 898020, Note_on_c, 0, 77, 44
3, 898020, Note_on_c, 0, 81, 44
3, 898020, Note_on_c, 0, 89, 46
3, 898020, Note_on_c, 0, 65, 58
3, 898020, Note_on_c, 0, 41, 39
3, 898109, Note_on_c, 0, 89, 0
3, 898109, Note_on_c, 0, 81, 0
3, 898109, Note_on_c, 0, 77, 0
3, 898200, Note_on_c, 0, 73, 39
3, 898200, Note_on_c, 0, 77, 38
3, 898200, Note_on_c, 0, 81, 37
3, 898200, Note_on_c, 0, 85, 39
3, 898263, Note_on_c, 0, 65, 0
3, 898289, Note_on_c, 0, 85, 0
3, 898289, Note_on_c, 0, 77, 0
3, 898289, Note_on_c, 0, 73, 0
3, 898289, Note_on_c, 0, 81, 0
3, 898290, Note_on_c, 0, 63, 51
3, 898380, Note_on_c, 0, 72, 38
3, 898380, Note_on_c, 0, 75, 40
3, 898380, Note_on_c, 0, 81, 40
3, 898380, Note_on_c, 0, 84, 40
3, 898469, Note_on_c, 0, 84, 0
3, 898469, Note_on_c, 0, 81, 0
3, 898469, Note_on_c, 0, 72, 0
3, 898469, Note_on_c, 0, 75, 0
3, 898507, Note_on_c, 0, 41, 0
3, 898533, Note_on_c, 0, 63, 0
3, 898560, Note_on_c, 0, 70, 45
3, 898560, Note_on_c, 0, 73, 42
3, 898560, Note_on_c, 0, 77, 43
3, 898560, Note_on_c, 0, 82, 45
3, 898560, Note_on_c, 0, 61, 51
3, 898560, Note_on_c, 0, 46, 68
3, 898560, Note_on_c, 0, 53, 68
3, 898649, Note_on_c, 0, 82, 0
3, 898649, Note_on_c, 0, 73, 0
3, 898649, Note_on_c, 0, 70, 0
3, 898649, Note_on_c, 0, 77, 0
3, 898740, Note_on_c, 0, 72, 46
3, 898740, Note_on_c, 0, 77, 46
3, 898740, Note_on_c, 0, 82, 46
3, 898740, Note_on_c, 0, 84, 43
3, 898829, Note_on_c, 0, 84, 0
3, 898829, Note_on_c, 0, 82, 0
3, 898829, Note_on_c, 0, 77, 0
3, 898829, Note_on_c, 0, 72, 0
3, 898920, Note_on_c, 0, 73, 45
3, 898920, Note_on_c, 0, 77, 44
3, 898920, Note_on_c, 0, 82, 45
3, 898920, Note_on_c, 0, 85, 44
3, 899009, Note_on_c, 0, 85, 0
3, 899009, Note_on_c, 0, 82, 0
3, 899009, Note_on_c, 0, 77, 0
3, 899009, Note_on_c, 0, 73, 0
3, 899047, Note_on_c, 0, 53, 0
3, 899047, Note_on_c, 0, 46, 0
3, 899047, Note_on_c, 0, 61, 0
3, 899100, Note_on_c, 0, 75, 48
3, 899100, Note_on_c, 0, 79, 46
3, 899100, Note_on_c, 0, 85, 50
3, 899100, Note_on_c, 0, 87, 48
3, 899100, Note_on_c, 0, 60, 51
3, 899100, Note_on_c, 0, 39, 56
3, 899189, Note_on_c, 0, 87, 0
3, 899189, Note_on_c, 0, 79, 0
3, 899189, Note_on_c, 0, 75, 0
3, 899189, Note_on_c, 0, 85, 0
3, 899214, Note_on_c, 0, 46, 57
3, 899280, Note_on_c, 0, 77, 45
3, 899280, Note_on_c, 0, 80, 47
3, 899280, Note_on_c, 0, 87, 46
3, 899280, Note_on_c, 0, 89, 43
3, 899328, Note_on_c, 0, 55, 58
3, 899369, Note_on_c, 0, 89, 0
3, 899369, Note_on_c, 0, 87, 0
3, 899369, Note_on_c, 0, 80, 0
3, 899369, Note_on_c, 0, 77, 0
3, 899425, Note_on_c, 0, 60, 0
3, 899460, Note_on_c, 0, 79, 47
3, 899460, Note_on_c, 0, 85, 44
3, 899460, Note_on_c, 0, 87, 45
3, 899460, Note_on_c, 0, 91, 44
3, 899460, Note_on_c, 0, 58, 51
3, 899549, Note_on_c, 0, 91, 0
3, 899549, Note_on_c, 0, 87, 0
3, 899549, Note_on_c, 0, 85, 0
3, 899549, Note_on_c, 0, 79, 0
3, 899587, Note_on_c, 0, 39, 0
3, 899587, Note_on_c, 0, 55, 0
3, 899587, Note_on_c, 0, 46, 0
3, 899623, Note_on_c, 0, 58, 0
3, 899640, Note_on_c, 0, 80, 48
3, 899640, Note_on_c, 0, 84, 46
3, 899640, Note_on_c, 0, 87, 47
3, 899640, Note_on_c, 0, 92, 46
3, 899640, Note_on_c, 0, 60, 57
3, 899729, Note_on_c, 0, 92, 0
3, 899729, Note_on_c, 0, 84, 0
3, 899729, Note_on_c, 0, 80, 0
3, 899729, Note_on_c, 0, 87, 0
3, 899820, Note_on_c, 0, 77, 41
3, 899820, Note_on_c, 0, 80, 39
3, 899820, Note_on_c, 0, 84, 42
3, 899820, Note_on_c, 0, 89, 42
3, 899883, Note_on_c, 0, 60, 0
3, 899909, Note_on_c, 0, 84, 0
3, 899909, Note_on_c, 0, 80, 0
3, 899909, Note_on_c, 0, 77, 0
3, 899909, Note_on_c, 0, 89, 0
3, 899910, Note_on_c, 0, 65, 59
3, 900000, Note_on_c, 0, 75, 40
3, 900000, Note_on_c, 0, 80, 40
3, 900000, Note_on_c, 0, 84, 41
3, 900000, Note_on_c, 0, 87, 41
3, 900089, Note_on_c, 0, 87, 0
3, 900089, Note_on_c, 0, 80, 0
3, 900089, Note_on_c, 0, 75, 0
3, 900089, Note_on_c, 0, 84, 0
3, 900153, Note_on_c, 0, 65, 0
3, 900180, Note_on_c, 0, 75, 46
3, 900180, Note_on_c, 0, 80, 44
3, 900180, Note_on_c, 0, 87, 44
3, 900180, Note_on_c, 0, 63, 53
3, 900269, Note_on_c, 0, 87, 0
3, 900269, Note_on_c, 0, 80, 0
3, 900269, Note_on_c, 0, 75, 0
3, 900360, Note_on_c, 0, 72, 37
3, 900360, Note_on_c, 0, 75, 40
3, 900360, Note_on_c, 0, 80, 39
3, 900360, Note_on_c, 0, 84, 39
3, 900449, Note_on_c, 0, 84, 0
3, 900449, Note_on_c, 0, 75, 0
3, 900449, Note_on_c, 0, 72, 0
3, 900449, Note_on_c, 0, 80, 0
3, 900505, Note_on_c, 0, 63, 0
3, 900540, Note_on_c, 0, 70, 42
3, 900540, Note_on_c, 0, 73, 42
3, 900540, Note_on_c, 0, 80, 40
3, 900540, Note_on_c, 0, 82, 40
3, 900540, Note_on_c, 0, 61, 50
3, 900629, Note_on_c, 0, 82, 0
3, 900629, Note_on_c, 0, 73, 0
3, 900629, Note_on_c, 0, 70, 0
3, 900629, Note_on_c, 0, 80, 0
3, 900703, Note_on_c, 0, 61, 0
3, 900720, Note_on_c, 0, 72, 50
3, 900720, Note_on_c, 0, 75, 46
3, 900720, Note_on_c, 0, 80, 49
3, 900720, Note_on_c, 0, 84, 48
3, 900720, Note_on_c, 0, 60, 53
3, 900809, Note_on_c, 0, 84, 0
3, 900809, Note_on_c, 0, 75, 0
3, 900809, Note_on_c, 0, 72, 0
3, 900809, Note_on_c, 0, 80, 0
3, 900900, Note_on_c, 0, 63, 35
3, 900900, Note_on_c, 0, 68, 35
3, 900900, Note_on_c, 0, 72, 34
3, 900900, Note_on_c, 0, 75, 36
3, 900989, Note_on_c, 0, 75, 0
3, 900989, Note_on_c, 0, 68, 0
3, 900989, Note_on_c, 0, 63, 0
3, 900989, Note_on_c, 0, 72, 0
3, 901080, Note_on_c, 0, 65, 44
3, 901080, Note_on_c, 0, 68, 41
3, 901080, Note_on_c, 0, 72, 44
3, 901080, Note_on_c, 0, 77, 44
3, 901169, Note_on_c, 0, 77, 0
3, 901169, Note_on_c, 0, 68, 0
3, 901169, Note_on_c, 0, 65, 0
3, 901169, Note_on_c, 0, 72, 0
3, 901207, Note_on_c, 0, 60, 0
3, 901260, Note_on_c, 0, 67, 48
3, 901260, Note_on_c, 0, 72, 48
3, 901260, Note_on_c, 0, 77, 49
3, 901260, Note_on_c, 0, 79, 49
3, 901260, Note_on_c, 0, 60, 57
3, 901349, Note_on_c, 0, 79, 0
3, 901349, Note_on_c, 0, 72, 0
3, 901349, Note_on_c, 0, 67, 0
3, 901349, Note_on_c, 0, 77, 0
3, 901423, Note_on_c, 0, 60, 0
3, 901440, Note_on_c, 0, 68, 44
3, 901440, Note_on_c, 0, 72, 44
3, 901440, Note_on_c, 0, 77, 45
3, 901440, Note_on_c, 0, 80, 45
3, 901529, Note_on_c, 0, 80, 0
3, 901529, Note_on_c, 0, 72, 0
3, 901529, Note_on_c, 0, 68, 0
3, 901529, Note_on_c, 0, 77, 0
3, 901620, Note_on_c, 0, 70, 44
3, 901620, Note_on_c, 0, 77, 44
3, 901620, Note_on_c, 0, 82, 44
3, 901709, Note_on_c, 0, 82, 0
3, 901709, Note_on_c, 0, 70, 0
3, 901709, Note_on_c, 0, 77, 0
3, 901800, Note_on_c, 0, 72, 49
3, 901800, Note_on_c, 0, 75, 47
3, 901800, Note_on_c, 0, 80, 47
3, 901800, Note_on_c, 0, 84, 48
3, 901800, Note_on_c, 0, 39, 43
3, 901889, Note_on_c, 0, 84, 0
3, 901889, Note_on_c, 0, 75, 0
3, 901889, Note_on_c, 0, 72, 0
3, 901889, Note_on_c, 0, 80, 0
3, 901980, Note_on_c, 0, 68, 39
3, 901980, Note_on_c, 0, 72, 40
3, 901980, Note_on_c, 0, 75, 39
3, 901980, Note_on_c, 0, 80, 39
3, 902069, Note_on_c, 0, 80, 0
3, 902069, Note_on_c, 0, 72, 0
3, 902069, Note_on_c, 0, 68, 0
3, 902069, Note_on_c, 0, 75, 0
3, 902070, Note_on_c, 0, 51, 46
3, 902160, Note_on_c, 0, 70, 46
3, 902160, Note_on_c, 0, 75, 43
3, 902160, Note_on_c, 0, 80, 43
3, 902160, Note_on_c, 0, 82, 46
3, 902249, Note_on_c, 0, 82, 0
3, 902249, Note_on_c, 0, 80, 0
3, 902249, Note_on_c, 0, 70, 0
3, 902249, Note_on_c, 0, 75, 0
3, 902313, Note_on_c, 0, 51, 0
3, 902340, Note_on_c, 0, 72, 49
3, 902340, Note_on_c, 0, 75, 49
3, 902340, Note_on_c, 0, 80, 48
3, 902340, Note_on_c, 0, 84, 47
3, 902340, Note_on_c, 0, 56, 60
3, 902429, Note_on_c, 0, 84, 0
3, 902429, Note_on_c, 0, 72, 0
3, 902429, Note_on_c, 0, 75, 0
3, 902429, Note_on_c, 0, 80, 0
3, 902520, Note_on_c, 0, 73, 46
3, 902520, Note_on_c, 0, 75, 43
3, 902520, Note_on_c, 0, 80, 47
3, 902520, Note_on_c, 0, 85, 46
3, 902583, Note_on_c, 0, 56, 0
3, 902609, Note_on_c, 0, 85, 0
3, 902609, Note_on_c, 0, 75, 0
3, 902609, Note_on_c, 0, 73, 0
3, 902609, Note_on_c, 0, 80, 0
3, 902610, Note_on_c, 0, 58, 56
3, 902700, Note_on_c, 0, 75, 45
3, 902700, Note_on_c, 0, 80, 44
3, 902700, Note_on_c, 0, 84, 43
3, 902700, Note_on_c, 0, 87, 44
3, 902789, Note_on_c, 0, 87, 0
3, 902789, Note_on_c, 0, 84, 0
3, 902789, Note_on_c, 0, 75, 0
3, 902789, Note_on_c, 0, 80, 0
3, 902810, Note_on_c, 0, 39, 0
3, 902853, Note_on_c, 0, 58, 0
3, 902880, Note_on_c, 0, 77, 46
3, 902880, Note_on_c, 0, 81, 46
3, 902880, Note_on_c, 0, 87, 49
3, 902880, Note_on_c, 0, 89, 49
3, 902880, Note_on_c, 0, 60, 59
3, 902880, Note_on_c, 0, 51, 66
3, 902969, Note_on_c, 0, 89, 0
3, 902969, Note_on_c, 0, 81, 0
3, 902969, Note_on_c, 0, 77, 0
3, 902969, Note_on_c, 0, 87, 0
3, 903060, Note_on_c, 0, 69, 35
3, 903060, Note_on_c, 0, 77, 34
3, 903060, Note_on_c, 0, 81, 34
3, 903123, Note_on_c, 0, 60, 0
3, 903149, Note_on_c, 0, 77, 0
3, 903149, Note_on_c, 0, 69, 0
3, 903149, Note_on_c, 0, 81, 0
3, 903150, Note_on_c, 0, 61, 55
3, 903240, Note_on_c, 0, 70, 45
3, 903240, Note_on_c, 0, 77, 45
3, 903240, Note_on_c, 0, 82, 45
3, 903329, Note_on_c, 0, 82, 0
3, 903329, Note_on_c, 0, 70, 0
3, 903329, Note_on_c, 0, 77, 0
3, 903393, Note_on_c, 0, 61, 0
3, 903420, Note_on_c, 0, 72, 47
3, 903420, Note_on_c, 0, 77, 48
3, 903420, Note_on_c, 0, 82, 50
3, 903420, Note_on_c, 0, 84, 49
3, 903420, Note_on_c, 0, 63, 59
3, 903509, Note_on_c, 0, 84, 0
3, 903509, Note_on_c, 0, 72, 0
3, 903509, Note_on_c, 0, 77, 0
3, 903509, Note_on_c, 0, 82, 0
3, 903600, Note_on_c, 0, 73, 44
3, 903600, Note_on_c, 0, 77, 45
3, 903600, Note_on_c, 0, 82, 46
3, 903600, Note_on_c, 0, 85, 45
3, 903663, Note_on_c, 0, 63, 0
3, 903689, Note_on_c, 0, 85, 0
3, 903689, Note_on_c, 0, 77, 0
3, 903689, Note_on_c, 0, 73, 0
3, 903689, Note_on_c, 0, 82, 0
3, 903690, Note_on_c, 0, 65, 56
3, 903780, Note_on_c, 0, 77, 48
3, 903780, Note_on_c, 0, 82, 49
3, 903780, Note_on_c, 0, 85, 48
3, 903780, Note_on_c, 0, 89, 46
3, 903869, Note_on_c, 0, 89, 0
3, 903869, Note_on_c, 0, 85, 0
3, 903869, Note_on_c, 0, 77, 0
3, 903869, Note_on_c, 0, 82, 0
3, 903890, Note_on_c, 0, 51, 0
3, 903933, Note_on_c, 0, 65, 0
3, 903960, Note_on_c, 0, 85, 41
3, 903960, Note_on_c, 0, 89, 42
3, 903960, Note_on_c, 0, 92, 42
3, 903960, Note_on_c, 0, 97, 44
3, 903960, Note_on_c, 0, 61, 59
3, 903960, Note_on_c, 0, 39, 63
3, 904049, Note_on_c, 0, 97, 0
3, 904049, Note_on_c, 0, 89, 0
3, 904049, Note_on_c, 0, 85, 0
3, 904049, Note_on_c, 0, 92, 0
3, 904074, Note_on_c, 0, 65, 59
3, 904074, Note_on_c, 0, 51, 60
3, 904140, Note_on_c, 0, 84, 41
3, 904140, Note_on_c, 0, 89, 39
3, 904140, Note_on_c, 0, 92, 39
3, 904140, Note_on_c, 0, 96, 39
3, 904188, Note_on_c, 0, 68, 56
3, 904188, Note_on_c, 0, 56, 62
3, 904229, Note_on_c, 0, 96, 0
3, 904229, Note_on_c, 0, 92, 0
3, 904229, Note_on_c, 0, 84, 0
3, 904229, Note_on_c, 0, 89, 0
3, 904320, Note_on_c, 0, 85, 45
3, 904320, Note_on_c, 0, 89, 43
3, 904320, Note_on_c, 0, 92, 45
3, 904320, Note_on_c, 0, 97, 46
3, 904409, Note_on_c, 0, 97, 0
3, 904409, Note_on_c, 0, 89, 0
3, 904409, Note_on_c, 0, 85, 0
3, 904409, Note_on_c, 0, 92, 0
3, 904447, Note_on_c, 0, 39, 0
3, 904447, Note_on_c, 0, 61, 0
3, 904447, Note_on_c, 0, 65, 0
3, 904447, Note_on_c, 0, 51, 0
3, 904447, Note_on_c, 0, 56, 0
3, 904447, Note_on_c, 0, 68, 0
3, 904500, Note_on_c, 0, 84, 44
3, 904500, Note_on_c, 0, 87, 45
3, 904500, Note_on_c, 0, 91, 44
3, 904500, Note_on_c, 0, 96, 44
3, 904500, Note_on_c, 0, 67, 49
3, 904500, Note_on_c, 0, 51, 60
3, 904500, Note_on_c, 0, 55, 60
3, 904500, Note_on_c, 0, 61, 61
3, 904589, Note_on_c, 0, 96, 0
3, 904589, Note_on_c, 0, 87, 0
3, 904589, Note_on_c, 0, 84, 0
3, 904589, Note_on_c, 0, 91, 0
3, 904680, Note_on_c, 0, 77, 47
3, 904680, Note_on_c, 0, 85, 45
3, 904680, Note_on_c, 0, 89, 47
3, 904769, Note_on_c, 0, 89, 0
3, 904769, Note_on_c, 0, 85, 0
3, 904769, Note_on_c, 0, 77, 0
3, 904860, Note_on_c, 0, 75, 42
3, 904860, Note_on_c, 0, 85, 41
3, 904860, Note_on_c, 0, 87, 40
3, 904949, Note_on_c, 0, 87, 0
3, 904949, Note_on_c, 0, 85, 0
3, 904949, Note_on_c, 0, 75, 0
3, 904987, Note_on_c, 0, 51, 0
3, 904987, Note_on_c, 0, 55, 0
3, 904987, Note_on_c, 0, 61, 0
3, 904987, Note_on_c, 0, 67, 0
3, 905040, Note_on_c, 0, 80, 52
3, 905040, Note_on_c, 0, 84, 49
3, 905040, Note_on_c, 0, 92, 50
3, 905040, Note_on_c, 0, 68, 57
3, 905040, Note_on_c, 0, 44, 52
3, 905154, Note_on_c, 0, 51, 53
3, 905203, Note_on_c, 0, 92, 0
3, 905203, Note_on_c, 0, 84, 0
3, 905203, Note_on_c, 0, 80, 0
3, 905220, Note_on_c, 0, 80, 32
3, 905268, Note_on_c, 0, 60, 51
3, 905274, Note_on_c, 0, 80, 0
3, 905279, Note_on_c, 0, 79, 40
3, 905334, Note_on_c, 0, 79, 0
3, 905340, Note_on_c, 0, 80, 44
3, 905394, Note_on_c, 0, 80, 0
3, 905400, Note_on_c, 0, 82, 45
3, 905454, Note_on_c, 0, 82, 0
3, 905459, Note_on_c, 0, 80, 39
3, 905514, Note_on_c, 0, 80, 0
3, 905520, Note_on_c, 0, 82, 46
3, 905574, Note_on_c, 0, 82, 0
3, 905580, Note_on_c, 0, 84, 49
3, 905634, Note_on_c, 0, 84, 0
3, 905639, Note_on_c, 0, 82, 40
3, 905694, Note_on_c, 0, 82, 0
3, 905700, Note_on_c, 0, 84, 45
3, 905743, Note_on_c, 0, 60, 0
3, 905743, Note_on_c, 0, 51, 0
3, 905743, Note_on_c, 0, 44, 0
3, 905743, Note_on_c, 0, 68, 0
3, 905754, Note_on_c, 0, 84, 0
3, 905760, Note_on_c, 0, 85, 44
3, 905814, Note_on_c, 0, 85, 0
3, 905819, Note_on_c, 0, 84, 40
3, 905874, Note_on_c, 0, 84, 0
3, 905880, Note_on_c, 0, 85, 45
3, 905934, Note_on_c, 0, 85, 0
3, 905940, Note_on_c, 0, 87, 44
3, 905994, Note_on_c, 0, 87, 0
3, 905999, Note_on_c, 0, 85, 42
3, 906054, Note_on_c, 0, 85, 0
3, 906060, Note_on_c, 0, 87, 44
3, 906114, Note_on_c, 0, 87, 0
3, 906120, Note_on_c, 0, 88, 48
3, 906120, Note_on_c, 0, 32, 44
3, 906283, Note_on_c, 0, 88, 0
3, 906300, Note_on_c, 0, 55, 37
3, 906300, Note_on_c, 0, 61, 34
3, 906300, Note_on_c, 0, 63, 33
3, 906345, Note_on_c, 0, 63, 0
3, 906345, Note_on_c, 0, 55, 0
3, 906345, Note_on_c, 0, 61, 0
3, 906390, Note_on_c, 0, 55, 41
3, 906390, Note_on_c, 0, 61, 42
3, 906390, Note_on_c, 0, 64, 42
3, 906435, Note_on_c, 0, 64, 0
3, 906435, Note_on_c, 0, 55, 0
3, 906435, Note_on_c, 0, 61, 0
3, 906480, Note_on_c, 0, 61, 46
3, 906480, Note_on_c, 0, 67, 49
3, 906525, Note_on_c, 0, 67, 0
3, 906525, Note_on_c, 0, 61, 0
3, 906570, Note_on_c, 0, 61, 53
3, 906570, Note_on_c, 0, 67, 52
3, 906570, Note_on_c, 0, 68, 52
3, 906615, Note_on_c, 0, 68, 0
3, 906615, Note_on_c, 0, 61, 0
3, 906615, Note_on_c, 0, 67, 0
3, 906660, Note_on_c, 0, 61, 57
3, 906660, Note_on_c, 0, 67, 58
3, 906660, Note_on_c, 0, 69, 59
3, 906705, Note_on_c, 0, 69, 0
3, 906705, Note_on_c, 0, 61, 0
3, 906705, Note_on_c, 0, 67, 0
3, 906750, Note_on_c, 0, 61, 56
3, 906750, Note_on_c, 0, 67, 54
3, 906750, Note_on_c, 0, 70, 56
3, 906795, Note_on_c, 0, 70, 0
3, 906795, Note_on_c, 0, 61, 0
3, 906795, Note_on_c, 0, 67, 0
3, 906840, Note_on_c, 0, 67, 39
3, 906840, Note_on_c, 0, 73, 40
3, 906885, Note_on_c, 0, 73, 0
3, 906885, Note_on_c, 0, 67, 0
3, 906930, Note_on_c, 0, 67, 41
3, 906930, Note_on_c, 0, 74, 41
3, 906930, Note_on_c, 0, 73, 41
3, 906975, Note_on_c, 0, 73, 0
3, 906975, Note_on_c, 0, 67, 0
3, 906975, Note_on_c, 0, 74, 0
3, 907020, Note_on_c, 0, 67, 46
3, 907020, Note_on_c, 0, 73, 43
3, 907020, Note_on_c, 0, 75, 46
3, 907065, Note_on_c, 0, 75, 0
3, 907065, Note_on_c, 0, 67, 0
3, 907065, Note_on_c, 0, 73, 0
3, 907110, Note_on_c, 0, 67, 43
3, 907110, Note_on_c, 0, 73, 44
3, 907110, Note_on_c, 0, 76, 45
3, 907130, Note_on_c, 0, 32, 0
3, 907155, Note_on_c, 0, 73, 0
3, 907155, Note_on_c, 0, 67, 0
3, 907155, Note_on_c, 0, 76, 0
3, 907200, Note_on_c, 0, 73, 52
3, 907200, Note_on_c, 0, 79, 51
3, 907245, Note_on_c, 0, 79, 0
3, 907245, Note_on_c, 0, 73, 0
3, 907290, Note_on_c, 0, 73, 53
3, 907290, Note_on_c, 0, 79, 55
3, 907290, Note_on_c, 0, 80, 55
3, 907335, Note_on_c, 0, 80, 0
3, 907335, Note_on_c, 0, 73, 0
3, 907335, Note_on_c, 0, 79, 0
3, 907380, Note_on_c, 0, 73, 56
3, 907380, Note_on_c, 0, 79, 56
3, 907380, Note_on_c, 0, 81, 53
3, 907425, Note_on_c, 0, 81, 0
3, 907425, Note_on_c, 0, 73, 0
3, 907425, Note_on_c, 0, 79, 0
3, 907470, Note_on_c, 0, 73, 53
3, 907470, Note_on_c, 0, 79, 57
3, 907470, Note_on_c, 0, 82, 54
3, 907515, Note_on_c, 0, 82, 0
3, 907515, Note_on_c, 0, 73, 0
3, 907515, Note_on_c, 0, 79, 0
3, 907560, Note_on_c, 0, 67, 40
3, 907560, Note_on_c, 0, 73, 39
3, 907642, Note_on_c, 0, 73, 0
3, 907642, Note_on_c, 0, 67, 0
3, 907650, Note_on_c, 0, 67, 43
3, 907650, Note_on_c, 0, 74, 43
3, 907650, Note_on_c, 0, 73, 43
3, 907695, Note_on_c, 0, 73, 0
3, 907695, Note_on_c, 0, 67, 0
3, 907695, Note_on_c, 0, 74, 0
3, 907740, Note_on_c, 0, 67, 47
3, 907740, Note_on_c, 0, 73, 49
3, 907740, Note_on_c, 0, 75, 47
3, 907785, Note_on_c, 0, 75, 0
3, 907785, Note_on_c, 0, 67, 0
3, 907785, Note_on_c, 0, 73, 0
3, 907830, Note_on_c, 0, 67, 43
3, 907830, Note_on_c, 0, 73, 45
3, 907830, Note_on_c, 0, 77, 47
3, 907875, Note_on_c, 0, 77, 0
3, 907875, Note_on_c, 0, 67, 0
3, 907875, Note_on_c, 0, 73, 0
3, 907920, Note_on_c, 0, 61, 47
3, 907920, Note_on_c, 0, 67, 49
3, 907965, Note_on_c, 0, 67, 0
3, 907965, Note_on_c, 0, 61, 0
3, 908010, Note_on_c, 0, 61, 53
3, 908010, Note_on_c, 0, 67, 54
3, 908010, Note_on_c, 0, 68, 53
3, 908055, Note_on_c, 0, 68, 0
3, 908055, Note_on_c, 0, 61, 0
3, 908055, Note_on_c, 0, 67, 0
3, 908100, Note_on_c, 0, 61, 55
3, 908100, Note_on_c, 0, 67, 56
3, 908100, Note_on_c, 0, 69, 54
3, 908145, Note_on_c, 0, 69, 0
3, 908145, Note_on_c, 0, 61, 0
3, 908145, Note_on_c, 0, 67, 0
3, 908190, Note_on_c, 0, 61, 53
3, 908190, Note_on_c, 0, 67, 55
3, 908190, Note_on_c, 0, 70, 57
3, 908235, Note_on_c, 0, 70, 0
3, 908235, Note_on_c, 0, 61, 0
3, 908235, Note_on_c, 0, 67, 0
3, 908280, Note_on_c, 0, 54, 42
3, 908280, Note_on_c, 0, 60, 42
3, 908280, Note_on_c, 0, 32, 52
3, 908362, Note_on_c, 0, 60, 0
3, 908362, Note_on_c, 0, 54, 0
3, 908370, Note_on_c, 0, 54, 43
3, 908370, Note_on_c, 0, 60, 45
3, 908370, Note_on_c, 0, 61, 45
3, 908452, Note_on_c, 0, 61, 0
3, 908452, Note_on_c, 0, 54, 0
3, 908452, Note_on_c, 0, 60, 0
3, 908460, Note_on_c, 0, 54, 46
3, 908460, Note_on_c, 0, 60, 48
3, 908460, Note_on_c, 0, 62, 47
3, 908505, Note_on_c, 0, 62, 0
3, 908505, Note_on_c, 0, 54, 0
3, 908505, Note_on_c, 0, 60, 0
3, 908550, Note_on_c, 0, 54, 46
3, 908550, Note_on_c, 0, 60, 44
3, 908550, Note_on_c, 0, 63, 44
3, 908595, Note_on_c, 0, 63, 0
3, 908595, Note_on_c, 0, 54, 0
3, 908595, Note_on_c, 0, 60, 0
3, 908640, Note_on_c, 0, 60, 48
3, 908640, Note_on_c, 0, 66, 49
3, 908685, Note_on_c, 0, 66, 0
3, 908685, Note_on_c, 0, 60, 0
3, 908730, Note_on_c, 0, 60, 54
3, 908730, Note_on_c, 0, 67, 50
3, 908730, Note_on_c, 0, 66, 54
3, 908775, Note_on_c, 0, 66, 0
3, 908775, Note_on_c, 0, 60, 0
3, 908775, Note_on_c, 0, 67, 0
3, 908820, Note_on_c, 0, 60, 58
3, 908820, Note_on_c, 0, 66, 60
3, 908820, Note_on_c, 0, 68, 60
3, 908865, Note_on_c, 0, 68, 0
3, 908865, Note_on_c, 0, 60, 0
3, 908865, Note_on_c, 0, 66, 0
3, 908910, Note_on_c, 0, 60, 57
3, 908910, Note_on_c, 0, 66, 53
3, 908910, Note_on_c, 0, 69, 56
3, 908955, Note_on_c, 0, 69, 0
3, 908955, Note_on_c, 0, 60, 0
3, 908955, Note_on_c, 0, 66, 0
3, 909000, Note_on_c, 0, 66, 39
3, 909000, Note_on_c, 0, 69, 39
3, 909000, Note_on_c, 0, 72, 39
3, 909045, Note_on_c, 0, 72, 0
3, 909045, Note_on_c, 0, 66, 0
3, 909045, Note_on_c, 0, 69, 0
3, 909090, Note_on_c, 0, 66, 42
3, 909090, Note_on_c, 0, 69, 44
3, 909090, Note_on_c, 0, 73, 46
3, 909135, Note_on_c, 0, 73, 0
3, 909135, Note_on_c, 0, 66, 0
3, 909135, Note_on_c, 0, 69, 0
3, 909180, Note_on_c, 0, 66, 42
3, 909180, Note_on_c, 0, 69, 46
3, 909180, Note_on_c, 0, 74, 42
3, 909225, Note_on_c, 0, 74, 0
3, 909225, Note_on_c, 0, 66, 0
3, 909225, Note_on_c, 0, 69, 0
3, 909270, Note_on_c, 0, 66, 45
3, 909270, Note_on_c, 0, 69, 43
3, 909270, Note_on_c, 0, 75, 44
3, 909290, Note_on_c, 0, 32, 0
3, 909315, Note_on_c, 0, 69, 0
3, 909315, Note_on_c, 0, 66, 0
3, 909315, Note_on_c, 0, 75, 0
3, 909360, Note_on_c, 0, 72, 49
3, 909360, Note_on_c, 0, 78, 50
3, 909405, Note_on_c, 0, 78, 0
3, 909405, Note_on_c, 0, 72, 0
3, 909450, Note_on_c, 0, 72, 51
3, 909450, Note_on_c, 0, 79, 52
3, 909450, Note_on_c, 0, 78, 51
3, 909495, Note_on_c, 0, 78, 0
3, 909495, Note_on_c, 0, 72, 0
3, 909495, Note_on_c, 0, 79, 0
3, 909540, Note_on_c, 0, 72, 55
3, 909540, Note_on_c, 0, 78, 56
3, 909540, Note_on_c, 0, 80, 55
3, 909585, Note_on_c, 0, 80, 0
3, 909585, Note_on_c, 0, 72, 0
3, 909585, Note_on_c, 0, 78, 0
3, 909630, Note_on_c, 0, 72, 56
3, 909630, Note_on_c, 0, 78, 56
3, 909630, Note_on_c, 0, 81, 57
3, 909675, Note_on_c, 0, 81, 0
3, 909675, Note_on_c, 0, 72, 0
3, 909675, Note_on_c, 0, 78, 0
3, 909720, Note_on_c, 0, 66, 38
3, 909720, Note_on_c, 0, 72, 40
3, 909802, Note_on_c, 0, 72, 0
3, 909802, Note_on_c, 0, 66, 0
3, 909810, Note_on_c, 0, 66, 45
3, 909810, Note_on_c, 0, 72, 44
3, 909810, Note_on_c, 0, 73, 45
3, 909855, Note_on_c, 0, 73, 0
3, 909855, Note_on_c, 0, 66, 0
3, 909855, Note_on_c, 0, 72, 0
3, 909900, Note_on_c, 0, 66, 48
3, 909900, Note_on_c, 0, 72, 46
3, 909900, Note_on_c, 0, 74, 45
3, 909945, Note_on_c, 0, 74, 0
3, 909945, Note_on_c, 0, 66, 0
3, 909945, Note_on_c, 0, 72, 0
3, 909990, Note_on_c, 0, 66, 44
3, 909990, Note_on_c, 0, 72, 46
3, 909990, Note_on_c, 0, 75, 45
3, 910035, Note_on_c, 0, 75, 0
3, 910035, Note_on_c, 0, 66, 0
3, 910035, Note_on_c, 0, 72, 0
3, 910170, Note_on_c, 0, 60, 49
3, 910170, Note_on_c, 0, 66, 46
3, 910215, Note_on_c, 0, 66, 0
3, 910215, Note_on_c, 0, 60, 0
3, 910260, Note_on_c, 0, 60, 52
3, 910260, Note_on_c, 0, 67, 53
3, 910260, Note_on_c, 0, 66, 51
3, 910305, Note_on_c, 0, 66, 0
3, 910305, Note_on_c, 0, 60, 0
3, 910305, Note_on_c, 0, 67, 0
3, 910350, Note_on_c, 0, 60, 58
3, 910350, Note_on_c, 0, 66, 57
3, 910350, Note_on_c, 0, 68, 55
3, 910395, Note_on_c, 0, 68, 0
3, 910395, Note_on_c, 0, 60, 0
3, 910395, Note_on_c, 0, 66, 0
3, 910440, Note_on_c, 0, 32, 55
3, 910530, Note_on_c, 0, 52, 38
3, 910530, Note_on_c, 0, 55, 41
3, 910530, Note_on_c, 0, 58, 38
3, 910575, Note_on_c, 0, 58, 0
3, 910575, Note_on_c, 0, 52, 0
3, 910575, Note_on_c, 0, 55, 0
3, 910620, Note_on_c, 0, 52, 46
3, 910620, Note_on_c, 0, 55, 49
3, 910620, Note_on_c, 0, 60, 48
3, 910665, Note_on_c, 0, 60, 0
3, 910665, Note_on_c, 0, 52, 0
3, 910665, Note_on_c, 0, 55, 0
3, 910710, Note_on_c, 0, 52, 45
3, 910710, Note_on_c, 0, 55, 46
3, 910710, Note_on_c, 0, 61, 45
3, 910755, Note_on_c, 0, 61, 0
3, 910755, Note_on_c, 0, 52, 0
3, 910755, Note_on_c, 0, 55, 0
3, 910800, Note_on_c, 0, 58, 48
3, 910800, Note_on_c, 0, 61, 49
3, 910800, Note_on_c, 0, 64, 47
3, 910845, Note_on_c, 0, 64, 0
3, 910845, Note_on_c, 0, 58, 0
3, 910845, Note_on_c, 0, 61, 0
3, 910890, Note_on_c, 0, 58, 53
3, 910890, Note_on_c, 0, 61, 55
3, 910890, Note_on_c, 0, 65, 53
3, 910935, Note_on_c, 0, 65, 0
3, 910935, Note_on_c, 0, 58, 0
3, 910935, Note_on_c, 0, 61, 0
3, 910980, Note_on_c, 0, 58, 59
3, 910980, Note_on_c, 0, 61, 58
3, 910980, Note_on_c, 0, 66, 58
3, 911025, Note_on_c, 0, 66, 0
3, 911025, Note_on_c, 0, 58, 0
3, 911025, Note_on_c, 0, 61, 0
3, 911070, Note_on_c, 0, 58, 56
3, 911070, Note_on_c, 0, 61, 54
3, 911070, Note_on_c, 0, 67, 54
3, 911115, Note_on_c, 0, 67, 0
3, 911115, Note_on_c, 0, 58, 0
3, 911115, Note_on_c, 0, 61, 0
3, 911250, Note_on_c, 0, 64, 40
3, 911250, Note_on_c, 0, 67, 41
3, 911250, Note_on_c, 0, 70, 39
3, 911295, Note_on_c, 0, 70, 0
3, 911295, Note_on_c, 0, 64, 0
3, 911295, Note_on_c, 0, 67, 0
3, 911340, Note_on_c, 0, 64, 45
3, 911340, Note_on_c, 0, 67, 45
3, 911340, Note_on_c, 0, 72, 46
3, 911385, Note_on_c, 0, 72, 0
3, 911385, Note_on_c, 0, 64, 0
3, 911385, Note_on_c, 0, 67, 0
3, 911430, Note_on_c, 0, 64, 46
3, 911430, Note_on_c, 0, 67, 47
3, 911430, Note_on_c, 0, 73, 46
3, 911450, Note_on_c, 0, 32, 0
3, 911475, Note_on_c, 0, 67, 0
3, 911475, Note_on_c, 0, 64, 0
3, 911475, Note_on_c, 0, 73, 0
3, 911520, Note_on_c, 0, 70, 51
3, 911520, Note_on_c, 0, 73, 51
3, 911520, Note_on_c, 0, 76, 50
3, 911565, Note_on_c, 0, 76, 0
3, 911565, Note_on_c, 0, 70, 0
3, 911565, Note_on_c, 0, 73, 0
3, 911610, Note_on_c, 0, 70, 55
3, 911610, Note_on_c, 0, 73, 56
3, 911610, Note_on_c, 0, 77, 53
3, 911655, Note_on_c, 0, 77, 0
3, 911655, Note_on_c, 0, 70, 0
3, 911655, Note_on_c, 0, 73, 0
3, 911700, Note_on_c, 0, 70, 55
3, 911700, Note_on_c, 0, 73, 56
3, 911700, Note_on_c, 0, 78, 56
3, 911745, Note_on_c, 0, 78, 0
3, 911745, Note_on_c, 0, 70, 0
3, 911745, Note_on_c, 0, 73, 0
3, 911790, Note_on_c, 0, 70, 55
3, 911790, Note_on_c, 0, 73, 56
3, 911790, Note_on_c, 0, 79, 54
3, 911835, Note_on_c, 0, 79, 0
3, 911835, Note_on_c, 0, 70, 0
3, 911835, Note_on_c, 0, 73, 0
3, 911970, Note_on_c, 0, 64, 39
3, 911970, Note_on_c, 0, 67, 38
3, 911970, Note_on_c, 0, 70, 37
3, 912015, Note_on_c, 0, 70, 0
3, 912015, Note_on_c, 0, 64, 0
3, 912015, Note_on_c, 0, 67, 0
3, 912060, Note_on_c, 0, 64, 46
3, 912060, Note_on_c, 0, 67, 46
3, 912060, Note_on_c, 0, 72, 42
3, 912105, Note_on_c, 0, 72, 0
3, 912105, Note_on_c, 0, 64, 0
3, 912105, Note_on_c, 0, 67, 0
3, 912150, Note_on_c, 0, 64, 46
3, 912150, Note_on_c, 0, 67, 43
3, 912150, Note_on_c, 0, 73, 46
3, 912195, Note_on_c, 0, 73, 0
3, 912195, Note_on_c, 0, 64, 0
3, 912195, Note_on_c, 0, 67, 0
3, 912240, Note_on_c, 0, 58, 49
3, 912240, Note_on_c, 0, 61, 49
3, 912240, Note_on_c, 0, 64, 50
3, 912322, Note_on_c, 0, 64, 0
3, 912322, Note_on_c, 0, 58, 0
3, 912322, Note_on_c, 0, 61, 0
3, 912330, Note_on_c, 0, 58, 53
3, 912330, Note_on_c, 0, 61, 53
3, 912330, Note_on_c, 0, 65, 56
3, 912412, Note_on_c, 0, 65, 0
3, 912412, Note_on_c, 0, 58, 0
3, 912412, Note_on_c, 0, 61, 0
3, 912420, Note_on_c, 0, 58, 56
3, 912420, Note_on_c, 0, 61, 56
3, 912420, Note_on_c, 0, 66, 57
3, 912502, Note_on_c, 0, 66, 0
3, 912502, Note_on_c, 0, 58, 0
3, 912502, Note_on_c, 0, 61, 0
3, 912510, Note_on_c, 0, 58, 57
3, 912510, Note_on_c, 0, 61, 53
3, 912510, Note_on_c, 0, 67, 54
3, 912592, Note_on_c, 0, 67, 0
3, 912592, Note_on_c, 0, 58, 0
3, 912592, Note_on_c, 0, 61, 0
3, 912600, Note_on_c, 0, 51, 40
3, 912600, Note_on_c, 0, 54, 44
3, 912600, Note_on_c, 0, 57, 40
3, 912600, Note_on_c, 0, 32, 56
3, 912682, Note_on_c, 0, 57, 0
3, 912682, Note_on_c, 0, 54, 0
3, 912682, Note_on_c, 0, 51, 0
3, 912690, Note_on_c, 0, 51, 42
3, 912690, Note_on_c, 0, 54, 46
3, 912690, Note_on_c, 0, 59, 45
3, 912772, Note_on_c, 0, 59, 0
3, 912772, Note_on_c, 0, 51, 0
3, 912772, Note_on_c, 0, 54, 0
3, 912780, Note_on_c, 0, 51, 44
3, 912780, Note_on_c, 0, 54, 47
3, 912780, Note_on_c, 0, 60, 45
3, 912862, Note_on_c, 0, 60, 0
3, 912862, Note_on_c, 0, 51, 0
3, 912862, Note_on_c, 0, 54, 0
3, 912870, Note_on_c, 0, 51, 45
3, 912870, Note_on_c, 0, 54, 45
3, 912870, Note_on_c, 0, 61, 46
3, 912952, Note_on_c, 0, 61, 0
3, 912952, Note_on_c, 0, 51, 0
3, 912952, Note_on_c, 0, 54, 0
3, 912960, Note_on_c, 0, 57, 49
3, 912960, Note_on_c, 0, 61, 46
3, 912960, Note_on_c, 0, 63, 49
3, 913005, Note_on_c, 0, 63, 0
3, 913005, Note_on_c, 0, 57, 0
3, 913005, Note_on_c, 0, 61, 0
3, 913050, Note_on_c, 0, 57, 55
3, 913050, Note_on_c, 0, 61, 55
3, 913050, Note_on_c, 0, 64, 54
3, 913095, Note_on_c, 0, 64, 0
3, 913095, Note_on_c, 0, 57, 0
3, 913095, Note_on_c, 0, 61, 0
3, 913140, Note_on_c, 0, 57, 60
3, 913140, Note_on_c, 0, 61, 58
3, 913140, Note_on_c, 0, 65, 59
3, 913185, Note_on_c, 0, 65, 0
3, 913185, Note_on_c, 0, 57, 0
3, 913185, Note_on_c, 0, 61, 0
3, 913230, Note_on_c, 0, 57, 56
3, 913230, Note_on_c, 0, 61, 55
3, 913230, Note_on_c, 0, 66, 56
3, 913275, Note_on_c, 0, 66, 0
3, 913275, Note_on_c, 0, 57, 0
3, 913275, Note_on_c, 0, 61, 0
3, 913320, Note_on_c, 0, 63, 38
3, 913320, Note_on_c, 0, 66, 38
3, 913320, Note_on_c, 0, 69, 37
3, 913365, Note_on_c, 0, 69, 0
3, 913365, Note_on_c, 0, 63, 0
3, 913365, Note_on_c, 0, 66, 0
3, 913410, Note_on_c, 0, 63, 45
3, 913410, Note_on_c, 0, 66, 44
3, 913410, Note_on_c, 0, 71, 45
3, 913455, Note_on_c, 0, 71, 0
3, 913455, Note_on_c, 0, 63, 0
3, 913455, Note_on_c, 0, 66, 0
3, 913500, Note_on_c, 0, 63, 43
3, 913500, Note_on_c, 0, 66, 47
3, 913500, Note_on_c, 0, 72, 47
3, 913545, Note_on_c, 0, 72, 0
3, 913545, Note_on_c, 0, 63, 0
3, 913545, Note_on_c, 0, 66, 0
3, 913590, Note_on_c, 0, 63, 47
3, 913590, Note_on_c, 0, 66, 46
3, 913590, Note_on_c, 0, 73, 44
3, 913610, Note_on_c, 0, 32, 0
3, 913635, Note_on_c, 0, 66, 0
3, 913635, Note_on_c, 0, 63, 0
3, 913635, Note_on_c, 0, 73, 0
3, 913680, Note_on_c, 0, 69, 50
3, 913680, Note_on_c, 0, 73, 50
3, 913680, Note_on_c, 0, 75, 51
3, 913725, Note_on_c, 0, 75, 0
3, 913725, Note_on_c, 0, 69, 0
3, 913725, Note_on_c, 0, 73, 0
3, 913770, Note_on_c, 0, 69, 54
3, 913770, Note_on_c, 0, 73, 53
3, 913770, Note_on_c, 0, 76, 56
3, 913815, Note_on_c, 0, 76, 0
3, 913815, Note_on_c, 0, 69, 0
3, 913815, Note_on_c, 0, 73, 0
3, 913860, Note_on_c, 0, 69, 56
3, 913860, Note_on_c, 0, 73, 55
3, 913860, Note_on_c, 0, 77, 53
3, 913905, Note_on_c, 0, 77, 0
3, 913905, Note_on_c, 0, 69, 0
3, 913905, Note_on_c, 0, 73, 0
3, 913950, Note_on_c, 0, 69, 56
3, 913950, Note_on_c, 0, 73, 54
3, 913950, Note_on_c, 0, 78, 53
3, 913995, Note_on_c, 0, 78, 0
3, 913995, Note_on_c, 0, 69, 0
3, 913995, Note_on_c, 0, 73, 0
3, 914040, Note_on_c, 0, 63, 39
3, 914040, Note_on_c, 0, 66, 37
3, 914040, Note_on_c, 0, 69, 37
3, 914122, Note_on_c, 0, 69, 0
3, 914122, Note_on_c, 0, 63, 0
3, 914122, Note_on_c, 0, 66, 0
3, 914130, Note_on_c, 0, 63, 44
3, 914130, Note_on_c, 0, 66, 44
3, 914130, Note_on_c, 0, 71, 44
3, 914212, Note_on_c, 0, 71, 0
3, 914212, Note_on_c, 0, 63, 0
3, 914212, Note_on_c, 0, 66, 0
3, 914220, Note_on_c, 0, 63, 48
3, 914220, Note_on_c, 0, 66, 49
3, 914220, Note_on_c, 0, 72, 47
3, 914302, Note_on_c, 0, 72, 0
3, 914302, Note_on_c, 0, 63, 0
3, 914302, Note_on_c, 0, 66, 0
3, 914310, Note_on_c, 0, 63, 45
3, 914310, Note_on_c, 0, 66, 44
3, 914310, Note_on_c, 0, 73, 46
3, 914392, Note_on_c, 0, 73, 0
3, 914392, Note_on_c, 0, 63, 0
3, 914392, Note_on_c, 0, 66, 0
3, 914400, Note_on_c, 0, 57, 49
3, 914400, Note_on_c, 0, 61, 47
3, 914400, Note_on_c, 0, 63, 47
3, 914445, Note_on_c, 0, 63, 0
3, 914445, Note_on_c, 0, 57, 0
3, 914445, Note_on_c, 0, 61, 0
3, 914490, Note_on_c, 0, 57, 55
3, 914490, Note_on_c, 0, 61, 53
3, 914490, Note_on_c, 0, 64, 56
3, 914535, Note_on_c, 0, 64, 0
3, 914535, Note_on_c, 0, 57, 0
3, 914535, Note_on_c, 0, 61, 0
3, 914580, Note_on_c, 0, 57, 55
3, 914580, Note_on_c, 0, 61, 55
3, 914580, Note_on_c, 0, 65, 56
3, 914625, Note_on_c, 0, 65, 0
3, 914625, Note_on_c, 0, 57, 0
3, 914625, Note_on_c, 0, 61, 0
3, 914670, Note_on_c, 0, 57, 55
3, 914670, Note_on_c, 0, 61, 53
3, 914670, Note_on_c, 0, 66, 55
3, 914715, Note_on_c, 0, 66, 0
3, 914715, Note_on_c, 0, 57, 0
3, 914715, Note_on_c, 0, 61, 0
3, 914760, Note_on_c, 0, 32, 57
3, 914850, Note_on_c, 0, 50, 39
3, 914850, Note_on_c, 0, 53, 38
3, 914850, Note_on_c, 0, 56, 40
3, 914932, Note_on_c, 0, 53, 0
3, 914932, Note_on_c, 0, 50, 0
3, 914932, Note_on_c, 0, 56, 0
3, 914940, Note_on_c, 0, 50, 43
3, 914940, Note_on_c, 0, 53, 45
3, 914940, Note_on_c, 0, 58, 45
3, 915022, Note_on_c, 0, 58, 0
3, 915022, Note_on_c, 0, 50, 0
3, 915022, Note_on_c, 0, 53, 0
3, 915030, Note_on_c, 0, 50, 46
3, 915030, Note_on_c, 0, 53, 44
3, 915030, Note_on_c, 0, 60, 43
3, 915112, Note_on_c, 0, 60, 0
3, 915112, Note_on_c, 0, 50, 0
3, 915112, Note_on_c, 0, 53, 0
3, 915120, Note_on_c, 0, 56, 46
3, 915120, Note_on_c, 0, 60, 46
3, 915120, Note_on_c, 0, 62, 47
3, 915165, Note_on_c, 0, 62, 0
3, 915165, Note_on_c, 0, 56, 0
3, 915165, Note_on_c, 0, 60, 0
3, 915210, Note_on_c, 0, 56, 54
3, 915210, Note_on_c, 0, 60, 54
3, 915210, Note_on_c, 0, 63, 54
3, 915255, Note_on_c, 0, 63, 0
3, 915255, Note_on_c, 0, 56, 0
3, 915255, Note_on_c, 0, 60, 0
3, 915300, Note_on_c, 0, 56, 59
3, 915300, Note_on_c, 0, 60, 59
3, 915300, Note_on_c, 0, 64, 60
3, 915345, Note_on_c, 0, 64, 0
3, 915345, Note_on_c, 0, 56, 0
3, 915345, Note_on_c, 0, 60, 0
3, 915390, Note_on_c, 0, 56, 54
3, 915390, Note_on_c, 0, 60, 56
3, 915390, Note_on_c, 0, 65, 54
3, 915435, Note_on_c, 0, 65, 0
3, 915435, Note_on_c, 0, 56, 0
3, 915435, Note_on_c, 0, 60, 0
3, 915570, Note_on_c, 0, 62, 40
3, 915570, Note_on_c, 0, 65, 41
3, 915570, Note_on_c, 0, 68, 39
3, 915615, Note_on_c, 0, 68, 0
3, 915615, Note_on_c, 0, 62, 0
3, 915615, Note_on_c, 0, 65, 0
3, 915660, Note_on_c, 0, 62, 44
3, 915660, Note_on_c, 0, 65, 42
3, 915660, Note_on_c, 0, 70, 45
3, 915705, Note_on_c, 0, 70, 0
3, 915705, Note_on_c, 0, 62, 0
3, 915705, Note_on_c, 0, 65, 0
3, 915750, Note_on_c, 0, 62, 47
3, 915750, Note_on_c, 0, 65, 47
3, 915750, Note_on_c, 0, 72, 47
3, 915770, Note_on_c, 0, 32, 0
3, 915795, Note_on_c, 0, 65, 0
3, 915795, Note_on_c, 0, 62, 0
3, 915795, Note_on_c, 0, 72, 0
3, 915840, Note_on_c, 0, 68, 50
3, 915840, Note_on_c, 0, 72, 50
3, 915840, Note_on_c, 0, 74, 50
3, 915885, Note_on_c, 0, 74, 0
3, 915885, Note_on_c, 0, 68, 0
3, 915885, Note_on_c, 0, 72, 0
3, 915930, Note_on_c, 0, 68, 55
3, 915930, Note_on_c, 0, 72, 54
3, 915930, Note_on_c, 0, 75, 54
3, 915975, Note_on_c, 0, 75, 0
3, 915975, Note_on_c, 0, 68, 0
3, 915975, Note_on_c, 0, 72, 0
3, 916020, Note_on_c, 0, 68, 54
3, 916020, Note_on_c, 0, 72, 56
3, 916020, Note_on_c, 0, 76, 55
3, 916065, Note_on_c, 0, 76, 0
3, 916065, Note_on_c, 0, 68, 0
3, 916065, Note_on_c, 0, 72, 0
3, 916110, Note_on_c, 0, 68, 54
3, 916110, Note_on_c, 0, 72, 54
3, 916110, Note_on_c, 0, 77, 55
3, 916155, Note_on_c, 0, 77, 0
3, 916155, Note_on_c, 0, 68, 0
3, 916155, Note_on_c, 0, 72, 0
3, 916290, Note_on_c, 0, 62, 39
3, 916290, Note_on_c, 0, 65, 39
3, 916290, Note_on_c, 0, 67, 40
3, 916335, Note_on_c, 0, 67, 0
3, 916335, Note_on_c, 0, 62, 0
3, 916335, Note_on_c, 0, 65, 0
3, 916380, Note_on_c, 0, 62, 44
3, 916380, Note_on_c, 0, 65, 45
3, 916380, Note_on_c, 0, 68, 45
3, 916425, Note_on_c, 0, 68, 0
3, 916425, Note_on_c, 0, 62, 0
3, 916425, Note_on_c, 0, 65, 0
3, 916470, Note_on_c, 0, 62, 49
3, 916470, Note_on_c, 0, 65, 48
3, 916470, Note_on_c, 0, 72, 48
3, 916515, Note_on_c, 0, 72, 0
3, 916515, Note_on_c, 0, 62, 0
3, 916515, Note_on_c, 0, 65, 0
3, 916560, Note_on_c, 0, 56, 48
3, 916560, Note_on_c, 0, 60, 49
3, 916560, Note_on_c, 0, 62, 47
3, 916605, Note_on_c, 0, 62, 0
3, 916605, Note_on_c, 0, 56, 0
3, 916605, Note_on_c, 0, 60, 0
3, 916650, Note_on_c, 0, 56, 53
3, 916650, Note_on_c, 0, 60, 55
3, 916650, Note_on_c, 0, 63, 52
3, 916695, Note_on_c, 0, 63, 0
3, 916695, Note_on_c, 0, 56, 0
3, 916695, Note_on_c, 0, 60, 0
3, 916740, Note_on_c, 0, 56, 54
3, 916740, Note_on_c, 0, 60, 54
3, 916740, Note_on_c, 0, 64, 54
3, 916785, Note_on_c, 0, 64, 0
3, 916785, Note_on_c, 0, 56, 0
3, 916785, Note_on_c, 0, 60, 0
3, 916830, Note_on_c, 0, 56, 55
3, 916830, Note_on_c, 0, 60, 54
3, 916830, Note_on_c, 0, 65, 55
3, 916875, Note_on_c, 0, 65, 0
3, 916875, Note_on_c, 0, 56, 0
3, 916875, Note_on_c, 0, 60, 0
3, 916920, Note_on_c, 0, 32, 56
3, 917010, Note_on_c, 0, 52, 40
3, 917010, Note_on_c, 0, 56, 38
3, 917055, Note_on_c, 0, 52, 0
3, 917055, Note_on_c, 0, 56, 0
3, 917100, Note_on_c, 0, 52, 43
3, 917100, Note_on_c, 0, 56, 44
3, 917100, Note_on_c, 0, 58, 45
3, 917145, Note_on_c, 0, 58, 0
3, 917145, Note_on_c, 0, 56, 0
3, 917145, Note_on_c, 0, 52, 0
3, 917190, Note_on_c, 0, 52, 43
3, 917190, Note_on_c, 0, 56, 47
3, 917190, Note_on_c, 0, 60, 46
3, 917235, Note_on_c, 0, 60, 0
3, 917235, Note_on_c, 0, 56, 0
3, 917235, Note_on_c, 0, 52, 0
3, 917370, Note_on_c, 0, 56, 49
3, 917370, Note_on_c, 0, 60, 50
3, 917370, Note_on_c, 0, 62, 49
3, 917415, Note_on_c, 0, 62, 0
3, 917415, Note_on_c, 0, 56, 0
3, 917415, Note_on_c, 0, 60, 0
3, 917460, Note_on_c, 0, 56, 52
3, 917460, Note_on_c, 0, 60, 55
3, 917460, Note_on_c, 0, 63, 56
3, 917505, Note_on_c, 0, 63, 0
3, 917505, Note_on_c, 0, 56, 0
3, 917505, Note_on_c, 0, 60, 0
3, 917550, Note_on_c, 0, 56, 55
3, 917550, Note_on_c, 0, 60, 56
3, 917550, Note_on_c, 0, 64, 57
3, 917595, Note_on_c, 0, 64, 0
3, 917595, Note_on_c, 0, 56, 0
3, 917595, Note_on_c, 0, 60, 0
3, 917730, Note_on_c, 0, 64, 40
3, 917730, Note_on_c, 0, 68, 39
3, 917775, Note_on_c, 0, 68, 0
3, 917775, Note_on_c, 0, 64, 0
3, 917820, Note_on_c, 0, 64, 44
3, 917820, Note_on_c, 0, 68, 44
3, 917820, Note_on_c, 0, 70, 45
3, 917865, Note_on_c, 0, 70, 0
3, 917865, Note_on_c, 0, 64, 0
3, 917865, Note_on_c, 0, 68, 0
3, 917910, Note_on_c, 0, 64, 47
3, 917910, Note_on_c, 0, 68, 44
3, 917910, Note_on_c, 0, 72, 43
3, 917930, Note_on_c, 0, 32, 0
3, 917955, Note_on_c, 0, 68, 0
3, 917955, Note_on_c, 0, 64, 0
3, 917955, Note_on_c, 0, 72, 0
3, 918090, Note_on_c, 0, 68, 47
3, 918090, Note_on_c, 0, 72, 47
3, 918090, Note_on_c, 0, 74, 47
3, 918135, Note_on_c, 0, 74, 0
3, 918135, Note_on_c, 0, 68, 0
3, 918135, Note_on_c, 0, 72, 0
3, 918180, Note_on_c, 0, 68, 53
3, 918180, Note_on_c, 0, 72, 53
3, 918180, Note_on_c, 0, 75, 55
3, 918225, Note_on_c, 0, 75, 0
3, 918225, Note_on_c, 0, 68, 0
3, 918225, Note_on_c, 0, 72, 0
3, 918270, Note_on_c, 0, 68, 55
3, 918270, Note_on_c, 0, 72, 53
3, 918270, Note_on_c, 0, 76, 55
3, 918315, Note_on_c, 0, 76, 0
3, 918315, Note_on_c, 0, 68, 0
3, 918315, Note_on_c, 0, 72, 0
3, 918450, Note_on_c, 0, 64, 39
3, 918450, Note_on_c, 0, 68, 39
3, 918495, Note_on_c, 0, 68, 0
3, 918495, Note_on_c, 0, 64, 0
3, 918540, Note_on_c, 0, 64, 45
3, 918540, Note_on_c, 0, 68, 46
3, 918540, Note_on_c, 0, 70, 44
3, 918585, Note_on_c, 0, 70, 0
3, 918585, Note_on_c, 0, 64, 0
3, 918585, Note_on_c, 0, 68, 0
3, 918630, Note_on_c, 0, 64, 45
3, 918630, Note_on_c, 0, 68, 46
3, 918630, Note_on_c, 0, 72, 44
3, 918675, Note_on_c, 0, 72, 0
3, 918675, Note_on_c, 0, 64, 0
3, 918675, Note_on_c, 0, 68, 0
3, 918810, Note_on_c, 0, 56, 48
3, 918810, Note_on_c, 0, 60, 49
3, 918810, Note_on_c, 0, 62, 49
3, 918855, Note_on_c, 0, 62, 0
3, 918855, Note_on_c, 0, 56, 0
3, 918855, Note_on_c, 0, 60, 0
3, 918900, Note_on_c, 0, 56, 55
3, 918900, Note_on_c, 0, 60, 56
3, 918900, Note_on_c, 0, 63, 53
3, 918945, Note_on_c, 0, 63, 0
3, 918945, Note_on_c, 0, 56, 0
3, 918945, Note_on_c, 0, 60, 0
3, 918990, Note_on_c, 0, 56, 56
3, 918990, Note_on_c, 0, 60, 56
3, 918990, Note_on_c, 0, 64, 55
3, 919035, Note_on_c, 0, 64, 0
3, 919035, Note_on_c, 0, 56, 0
3, 919035, Note_on_c, 0, 60, 0
3, 919080, Note_on_c, 0, 32, 44
3, 919080, Note_on_c, 0, 44, 43
3, 919169, Note_on_c, 0, 44, 0
3, 919169, Note_on_c, 0, 32, 0
3, 919260, Note_on_c, 0, 60, 41
3, 919260, Note_on_c, 0, 51, 63
3, 919260, Note_on_c, 0, 56, 61
3, 919349, Note_on_c, 0, 51, 0
3, 919349, Note_on_c, 0, 56, 0
3, 919423, Note_on_c, 0, 60, 0
3, 919440, Note_on_c, 0, 60, 48
3, 919440, Note_on_c, 0, 68, 49
3, 919440, Note_on_c, 0, 51, 54
3, 919440, Note_on_c, 0, 56, 54
3, 919529, Note_on_c, 0, 51, 0
3, 919529, Note_on_c, 0, 68, 0
3, 919529, Note_on_c, 0, 60, 0
3, 919529, Note_on_c, 0, 56, 0
3, 919620, Note_on_c, 0, 60, 59
3, 919620, Note_on_c, 0, 68, 58
3, 919620, Note_on_c, 0, 72, 57
3, 919620, Note_on_c, 0, 56, 67
3, 919620, Note_on_c, 0, 63, 67
3, 920160, Note_on_c, 0, 63, 0
3, 920160, Note_on_c, 0, 56, 0
3, 920160, Note_on_c, 0, 68, 0
3, 920160, Note_on_c, 0, 60, 0
3, 920160, Note_on_c, 0, 72, 0
3, 920160, Note_on_c, 0, 32, 43
3, 920160, Note_on_c, 0, 44, 44
3, 920249, Note_on_c, 0, 44, 0
3, 920249, Note_on_c, 0, 32, 0
3, 920340, Note_on_c, 0, 60, 37
3, 920340, Note_on_c, 0, 51, 64
3, 920340, Note_on_c, 0, 56, 64
3, 920429, Note_on_c, 0, 51, 0
3, 920429, Note_on_c, 0, 60, 0
3, 920429, Note_on_c, 0, 56, 0
3, 920520, Note_on_c, 0, 60, 48
3, 920520, Note_on_c, 0, 68, 49
3, 920520, Note_on_c, 0, 56, 64
3, 920520, Note_on_c, 0, 63, 64
3, 920609, Note_on_c, 0, 63, 0
3, 920609, Note_on_c, 0, 56, 0
3, 920609, Note_on_c, 0, 60, 0
3, 920609, Note_on_c, 0, 68, 0
3, 920700, Note_on_c, 0, 67, 54
3, 920700, Note_on_c, 0, 73, 58
3, 920700, Note_on_c, 0, 64, 57
3, 921187, Note_on_c, 0, 64, 0
3, 921240, Note_on_c, 0, 67, 0
3, 921240, Note_on_c, 0, 73, 0
3, 921240, Note_on_c, 0, 75, 50
3, 921240, Note_on_c, 0, 72, 55
3, 921240, Note_on_c, 0, 56, 56
3, 921240, Note_on_c, 0, 63, 54
3, 921294, Note_on_c, 0, 75, 0
3, 921299, Note_on_c, 0, 76, 45
3, 921354, Note_on_c, 0, 76, 0
3, 921360, Note_on_c, 0, 75, 43
3, 921414, Note_on_c, 0, 75, 0
3, 921420, Note_on_c, 0, 76, 45
3, 921474, Note_on_c, 0, 76, 0
3, 921479, Note_on_c, 0, 75, 42
3, 921534, Note_on_c, 0, 75, 0
3, 921540, Note_on_c, 0, 76, 46
3, 921594, Note_on_c, 0, 76, 0
3, 921600, Note_on_c, 0, 75, 39
3, 921654, Note_on_c, 0, 75, 0
3, 921659, Note_on_c, 0, 76, 44
3, 921714, Note_on_c, 0, 76, 0
3, 921720, Note_on_c, 0, 75, 41
3, 921774, Note_on_c, 0, 75, 0
3, 921780, Note_on_c, 0, 80, 49
3, 921834, Note_on_c, 0, 80, 0
3, 921839, Note_on_c, 0, 76, 38
3, 921894, Note_on_c, 0, 76, 0
3, 921900, Note_on_c, 0, 75, 40
3, 921954, Note_on_c, 0, 75, 0
3, 921960, Note_on_c, 0, 76, 44
3, 922014, Note_on_c, 0, 76, 0
3, 922019, Note_on_c, 0, 75, 42
3, 922074, Note_on_c, 0, 75, 0
3, 922080, Note_on_c, 0, 73, 42
3, 922105, Note_on_c, 0, 63, 0
3, 922105, Note_on_c, 0, 56, 0
3, 922134, Note_on_c, 0, 73, 0
3, 922140, Note_on_c, 0, 75, 46
3, 922140, Note_on_c, 0, 56, 52
3, 922140, Note_on_c, 0, 63, 53
3, 922185, Note_on_c, 0, 63, 0
3, 922185, Note_on_c, 0, 56, 0
3, 922194, Note_on_c, 0, 75, 0
3, 922199, Note_on_c, 0, 73, 39
3, 922230, Note_on_c, 0, 56, 55
3, 922230, Note_on_c, 0, 63, 55
3, 922250, Note_on_c, 0, 72, 0
3, 922254, Note_on_c, 0, 73, 0
3, 922260, Note_on_c, 0, 72, 40
3, 922275, Note_on_c, 0, 56, 0
3, 922275, Note_on_c, 0, 63, 0
3, 922320, Note_on_c, 0, 75, 49
3, 922320, Note_on_c, 0, 72, 49
3, 922320, Note_on_c, 0, 56, 57
3, 922320, Note_on_c, 0, 63, 57
3, 922374, Note_on_c, 0, 75, 0
3, 922379, Note_on_c, 0, 76, 44
3, 922434, Note_on_c, 0, 76, 0
3, 922440, Note_on_c, 0, 75, 41
3, 922494, Note_on_c, 0, 75, 0
3, 922500, Note_on_c, 0, 76, 44
3, 922554, Note_on_c, 0, 76, 0
3, 922559, Note_on_c, 0, 75, 42
3, 922614, Note_on_c, 0, 75, 0
3, 922620, Note_on_c, 0, 76, 44
3, 922674, Note_on_c, 0, 76, 0
3, 922680, Note_on_c, 0, 75, 40
3, 922734, Note_on_c, 0, 75, 0
3, 922739, Note_on_c, 0, 76, 46
3, 922794, Note_on_c, 0, 76, 0
3, 922800, Note_on_c, 0, 75, 40
3, 922807, Note_on_c, 0, 63, 0
3, 922807, Note_on_c, 0, 72, 0
3, 922807, Note_on_c, 0, 56, 0
3, 922854, Note_on_c, 0, 75, 0
3, 922860, Note_on_c, 0, 56, 0
3, 922860, Note_on_c, 0, 76, 47
3, 922860, Note_on_c, 0, 61, 57
3, 922860, Note_on_c, 0, 64, 59
3, 922914, Note_on_c, 0, 76, 0
3, 922919, Note_on_c, 0, 73, 42
3, 922974, Note_on_c, 0, 73, 0
3, 923023, Note_on_c, 0, 64, 0
3, 923023, Note_on_c, 0, 61, 0
3, 923034, Note_on_c, 0, 72, 0
3, 923040, Note_on_c, 0, 75, 46
3, 923094, Note_on_c, 0, 75, 0
3, 923099, Note_on_c, 0, 73, 38
3, 923154, Note_on_c, 0, 73, 0
3, 923160, Note_on_c, 0, 72, 39
3, 923214, Note_on_c, 0, 72, 0
3, 923220, Note_on_c, 0, 73, 44
3, 923274, Note_on_c, 0, 73, 0
3, 923279, Note_on_c, 0, 72, 43
3, 923334, Note_on_c, 0, 72, 0
3, 923340, Note_on_c, 0, 70, 40
3, 923394, Note_on_c, 0, 70, 0
3, 923400, Note_on_c, 0, 72, 50
3, 923400, Note_on_c, 0, 75, 51
3, 923400, Note_on_c, 0, 44, 50
3, 923400, Note_on_c, 0, 51, 50
3, 923563, Note_on_c, 0, 51, 0
3, 923563, Note_on_c, 0, 75, 0
3, 923563, Note_on_c, 0, 44, 0
3, 923563, Note_on_c, 0, 72, 0
3, 923580, Note_on_c, 0, 63, 35
3, 923634, Note_on_c, 0, 63, 0
3, 923639, Note_on_c, 0, 60, 39
3, 923694, Note_on_c, 0, 60, 0
3, 923700, Note_on_c, 0, 63, 45
3, 923754, Note_on_c, 0, 63, 0
3, 923760, Note_on_c, 0, 65, 45
3, 923814, Note_on_c, 0, 65, 0
3, 923819, Note_on_c, 0, 63, 40
3, 923874, Note_on_c, 0, 63, 0
3, 923880, Note_on_c, 0, 65, 44
3, 923934, Note_on_c, 0, 65, 0
3, 923940, Note_on_c, 0, 67, 49
3, 923994, Note_on_c, 0, 67, 0
3, 923999, Note_on_c, 0, 65, 38
3, 924054, Note_on_c, 0, 65, 0
3, 924060, Note_on_c, 0, 67, 45
3, 924114, Note_on_c, 0, 67, 0
3, 924120, Note_on_c, 0, 68, 46
3, 924174, Note_on_c, 0, 68, 0
3, 924179, Note_on_c, 0, 67, 42
3, 924234, Note_on_c, 0, 67, 0
3, 924240, Note_on_c, 0, 68, 43
3, 924294, Note_on_c, 0, 68, 0
3, 924300, Note_on_c, 0, 70, 45
3, 924354, Note_on_c, 0, 70, 0
3, 924359, Note_on_c, 0, 68, 40
3, 924414, Note_on_c, 0, 68, 0
3, 924420, Note_on_c, 0, 70, 46
3, 924474, Note_on_c, 0, 70, 0
3, 924480, Note_on_c, 0, 72, 48
3, 924534, Note_on_c, 0, 72, 0
3, 924539, Note_on_c, 0, 70, 39
3, 924594, Note_on_c, 0, 70, 0
3, 924600, Note_on_c, 0, 72, 44
3, 924654, Note_on_c, 0, 72, 0
3, 924660, Note_on_c, 0, 75, 45
3, 924714, Note_on_c, 0, 75, 0
3, 924719, Note_on_c, 0, 72, 40
3, 924774, Note_on_c, 0, 72, 0
3, 924780, Note_on_c, 0, 75, 46
3, 924834, Note_on_c, 0, 75, 0
3, 924840, Note_on_c, 0, 77, 44
3, 924894, Note_on_c, 0, 77, 0
3, 924899, Note_on_c, 0, 75, 39
3, 924954, Note_on_c, 0, 75, 0
3, 924960, Note_on_c, 0, 77, 46
3, 925014, Note_on_c, 0, 77, 0
3, 925020, Note_on_c, 0, 79, 49
3, 925074, Note_on_c, 0, 79, 0
3, 925079, Note_on_c, 0, 77, 39
3, 925134, Note_on_c, 0, 77, 0
3, 925140, Note_on_c, 0, 79, 46
3, 925194, Note_on_c, 0, 79, 0
3, 925200, Note_on_c, 0, 80, 46
3, 925254, Note_on_c, 0, 80, 0
3, 925259, Note_on_c, 0, 79, 41
3, 925314, Note_on_c, 0, 79, 0
3, 925320, Note_on_c, 0, 80, 42
3, 925374, Note_on_c, 0, 80, 0
3, 925380, Note_on_c, 0, 82, 43
3, 925434, Note_on_c, 0, 82, 0
3, 925439, Note_on_c, 0, 80, 40
3, 925494, Note_on_c, 0, 80, 0
3, 925500, Note_on_c, 0, 82, 46
3, 925554, Note_on_c, 0, 82, 0
3, 925560, Note_on_c, 0, 84, 47
3, 925614, Note_on_c, 0, 84, 0
3, 925619, Note_on_c, 0, 82, 41
3, 925674, Note_on_c, 0, 82, 0
3, 925680, Note_on_c, 0, 84, 45
3, 925734, Note_on_c, 0, 84, 0
3, 925740, Note_on_c, 0, 87, 46
3, 925794, Note_on_c, 0, 87, 0
3, 925799, Note_on_c, 0, 84, 33
3, 925854, Note_on_c, 0, 84, 0
3, 925860, Note_on_c, 0, 87, 44
3, 925914, Note_on_c, 0, 87, 0
3, 925920, Note_on_c, 0, 89, 46
3, 925974, Note_on_c, 0, 89, 0
3, 925979, Note_on_c, 0, 87, 40
3, 926034, Note_on_c, 0, 87, 0
3, 926040, Note_on_c, 0, 89, 46
3, 926094, Note_on_c, 0, 89, 0
3, 926100, Note_on_c, 0, 91, 50
3, 926154, Note_on_c, 0, 91, 0
3, 926159, Note_on_c, 0, 89, 39
3, 926214, Note_on_c, 0, 89, 0
3, 926220, Note_on_c, 0, 91, 43
3, 926274, Note_on_c, 0, 91, 0
3, 926280, Note_on_c, 0, 89, 46
3, 926280, Note_on_c, 0, 92, 47
3, 926334, Note_on_c, 0, 92, 0
3, 926334, Note_on_c, 0, 89, 0
3, 926339, Note_on_c, 0, 88, 41
3, 926339, Note_on_c, 0, 91, 40
3, 926394, Note_on_c, 0, 91, 0
3, 926394, Note_on_c, 0, 88, 0
3, 926400, Note_on_c, 0, 89, 44
3, 926400, Note_on_c, 0, 92, 44
3, 926454, Note_on_c, 0, 92, 0
3, 926454, Note_on_c, 0, 89, 0
3, 926460, Note_on_c, 0, 91, 43
3, 926460, Note_on_c, 0, 94, 47
3, 926514, Note_on_c, 0, 94, 0
3, 926514, Note_on_c, 0, 91, 0
3, 926519, Note_on_c, 0, 89, 40
3, 926519, Note_on_c, 0, 92, 39
3, 926574, Note_on_c, 0, 92, 0
3, 926574, Note_on_c, 0, 89, 0
3, 926580, Note_on_c, 0, 91, 47
3, 926580, Note_on_c, 0, 94, 44
3, 926634, Note_on_c, 0, 94, 0
3, 926634, Note_on_c, 0, 91, 0
3, 926640, Note_on_c, 0, 96, 47
3, 926640, Note_on_c, 0, 92, 41
3, 926803, Note_on_c, 0, 92, 0
3, 926803, Note_on_c, 0, 96, 0
3, 927180, Note_on_c, 0, 61, 39
3, 927180, Note_on_c, 0, 63, 38
3, 927180, Note_on_c, 0, 55, 47
3, 927667, Note_on_c, 0, 55, 0
3, 927667, Note_on_c, 0, 63, 0
3, 927667, Note_on_c, 0, 61, 0
3, 927720, Note_on_c, 0, 56, 43
3, 927720, Note_on_c, 0, 60, 40
3, 927720, Note_on_c, 0, 44, 51
3, 927720, Note_on_c, 0, 51, 50
3, 928730, Note_on_c, 0, 51, 0
3, 928730, Note_on_c, 0, 60, 0
3, 928730, Note_on_c, 0, 44, 0
3, 928730, Note_on_c, 0, 56, 0
3, 931500, Note_on_c, 0, 43, 44
3, 931500, Note_on_c, 0, 31, 50
3, 931663, Note_on_c, 0, 31, 0
3, 931663, Note_on_c, 0, 43, 0
3, 931680, Note_on_c, 0, 41, 41
3, 931680, Note_on_c, 0, 29, 50
3, 931843, Note_on_c, 0, 29, 0
3, 931843, Note_on_c, 0, 41, 0
3, 931860, Note_on_c, 0, 43, 43
3, 931860, Note_on_c, 0, 31, 53
3, 932023, Note_on_c, 0, 31, 0
3, 932023, Note_on_c, 0, 43, 0
3, 932040, Note_on_c, 0, 44, 46
3, 932040, Note_on_c, 0, 32, 58
3, 932203, Note_on_c, 0, 32, 0
3, 932365, Note_on_c, 0, 44, 0
3, 932400, Note_on_c, 0, 44, 42
3, 932400, Note_on_c, 0, 32, 49
3, 932563, Note_on_c, 0, 32, 0
3, 932563, Note_on_c, 0, 44, 0
3, 932580, Note_on_c, 0, 46, 46
3, 932580, Note_on_c, 0, 34, 56
3, 932905, Note_on_c, 0, 34, 0
3, 932905, Note_on_c, 0, 46, 0
3, 932940, Note_on_c, 0, 46, 41
3, 932940, Note_on_c, 0, 34, 55
3, 933103, Note_on_c, 0, 34, 0
3, 933103, Note_on_c, 0, 46, 0
3, 933120, Note_on_c, 0, 31, 96
3, 933120, Note_on_c, 0, 43, 94
3, 935820, Note_on_c, 0, 51, 41
3, 935983, Note_on_c, 0, 51, 0
3, 936000, Note_on_c, 0, 50, 42
3, 936163, Note_on_c, 0, 50, 0
3, 936180, Note_on_c, 0, 51, 43
3, 936343, Note_on_c, 0, 51, 0
3, 936360, Note_on_c, 0, 53, 49
3, 936685, Note_on_c, 0, 53, 0
3, 936720, Note_on_c, 0, 53, 45
3, 936883, Note_on_c, 0, 53, 0
3, 936900, Note_on_c, 0, 55, 46
3, 937387, Note_on_c, 0, 55, 0
3, 937440, Note_on_c, 0, 51, 41
3, 937765, Note_on_c, 0, 51, 0
3, 937800, Note_on_c, 0, 53, 45
3, 937963, Note_on_c, 0, 53, 0
3, 937980, Note_on_c, 0, 55, 48
3, 938143, Note_on_c, 0, 55, 0
3, 938160, Note_on_c, 0, 54, 42
3, 938323, Note_on_c, 0, 54, 0
3, 938340, Note_on_c, 0, 55, 45
3, 938503, Note_on_c, 0, 55, 0
3, 938520, Note_on_c, 0, 56, 47
3, 938845, Note_on_c, 0, 56, 0
3, 938880, Note_on_c, 0, 56, 44
3, 939043, Note_on_c, 0, 56, 0
3, 939060, Note_on_c, 0, 58, 46
3, 939385, Note_on_c, 0, 58, 0
3, 939420, Note_on_c, 0, 58, 44
3, 939530, Note_on_c, 0, 43, 0
3, 939530, Note_on_c, 0, 31, 0
3, 939583, Note_on_c, 0, 58, 0
3, 939600, Note_on_c, 0, 55, 42
3, 939600, Note_on_c, 0, 31, 55
3, 939600, Note_on_c, 0, 43, 55
3, 940087, Note_on_c, 0, 55, 0
3, 940140, Note_on_c, 0, 60, 50
3, 940303, Note_on_c, 0, 60, 0
3, 940320, Note_on_c, 0, 59, 41
3, 940483, Note_on_c, 0, 59, 0
3, 940500, Note_on_c, 0, 60, 45
3, 940663, Note_on_c, 0, 60, 0
3, 940680, Note_on_c, 0, 61, 49
3, 941005, Note_on_c, 0, 61, 0
3, 941040, Note_on_c, 0, 61, 44
3, 941203, Note_on_c, 0, 61, 0
3, 941220, Note_on_c, 0, 62, 45
3, 941545, Note_on_c, 0, 62, 0
3, 941580, Note_on_c, 0, 62, 44
3, 941743, Note_on_c, 0, 62, 0
3, 941760, Note_on_c, 0, 60, 44
3, 941923, Note_on_c, 0, 60, 0
3, 941940, Note_on_c, 0, 62, 44
3, 942103, Note_on_c, 0, 62, 0
3, 942120, Note_on_c, 0, 63, 45
3, 942283, Note_on_c, 0, 63, 0
3, 942300, Note_on_c, 0, 64, 46
3, 942625, Note_on_c, 0, 64, 0
3, 942660, Note_on_c, 0, 64, 45
3, 942823, Note_on_c, 0, 64, 0
3, 942840, Note_on_c, 0, 65, 46
3, 943003, Note_on_c, 0, 65, 0
3, 943020, Note_on_c, 0, 64, 42
3, 943183, Note_on_c, 0, 64, 0
3, 943200, Note_on_c, 0, 65, 44
3, 943363, Note_on_c, 0, 65, 0
3, 943380, Note_on_c, 0, 66, 47
3, 943705, Note_on_c, 0, 66, 0
3, 943740, Note_on_c, 0, 66, 42
3, 943903, Note_on_c, 0, 66, 0
3, 943920, Note_on_c, 0, 60, 48
3, 943920, Note_on_c, 0, 63, 47
3, 943920, Note_on_c, 0, 67, 47
3, 944083, Note_on_c, 0, 67, 0
3, 944083, Note_on_c, 0, 31, 0
3, 944083, Note_on_c, 0, 43, 0
3, 944083, Note_on_c, 0, 60, 0
3, 944083, Note_on_c, 0, 63, 0
3, 944460, Note_on_c, 0, 60, 41
3, 944460, Note_on_c, 0, 63, 38
3, 944460, Note_on_c, 0, 67, 40
3, 944460, Note_on_c, 0, 43, 50
3, 944460, Note_on_c, 0, 55, 53
3, 944549, Note_on_c, 0, 55, 0
3, 944549, Note_on_c, 0, 43, 0
3, 944637, Note_on_c, 0, 63, 0
3, 944637, Note_on_c, 0, 67, 0
3, 944637, Note_on_c, 0, 60, 0
3, 945000, Note_on_c, 0, 60, 42
3, 945000, Note_on_c, 0, 63, 42
3, 945000, Note_on_c, 0, 69, 42
3, 945000, Note_on_c, 0, 42, 53
3, 945000, Note_on_c, 0, 54, 49
3, 945177, Note_on_c, 0, 54, 0
3, 945177, Note_on_c, 0, 60, 0
3, 945177, Note_on_c, 0, 63, 0
3, 945177, Note_on_c, 0, 69, 0
3, 945177, Note_on_c, 0, 42, 0
3, 945540, Note_on_c, 0, 62, 38
3, 945540, Note_on_c, 0, 67, 38
3, 945540, Note_on_c, 0, 71, 41
3, 945540, Note_on_c, 0, 41, 47
3, 945540, Note_on_c, 0, 53, 49
3, 945717, Note_on_c, 0, 53, 0
3, 945717, Note_on_c, 0, 62, 0
3, 945717, Note_on_c, 0, 67, 0
3, 945717, Note_on_c, 0, 71, 0
3, 945717, Note_on_c, 0, 41, 0
3, 946080, Note_on_c, 0, 60, 43
3, 946080, Note_on_c, 0, 63, 42
3, 946080, Note_on_c, 0, 67, 40
3, 946080, Note_on_c, 0, 72, 41
3, 946080, Note_on_c, 0, 39, 53
3, 946080, Note_on_c, 0, 51, 51
3, 946257, Note_on_c, 0, 51, 0
3, 946257, Note_on_c, 0, 72, 0
3, 946257, Note_on_c, 0, 60, 0
3, 946257, Note_on_c, 0, 63, 0
3, 946257, Note_on_c, 0, 67, 0
3, 946257, Note_on_c, 0, 39, 0
3, 946620, Note_on_c, 0, 62, 39
3, 946620, Note_on_c, 0, 67, 37
3, 946620, Note_on_c, 0, 74, 39
3, 946620, Note_on_c, 0, 35, 47
3, 946620, Note_on_c, 0, 47, 48
3, 946797, Note_on_c, 0, 35, 0
3, 946797, Note_on_c, 0, 74, 0
3, 946797, Note_on_c, 0, 67, 0
3, 946797, Note_on_c, 0, 47, 0
3, 946797, Note_on_c, 0, 62, 0
3, 947160, Note_on_c, 0, 63, 42
3, 947160, Note_on_c, 0, 67, 40
3, 947160, Note_on_c, 0, 73, 42
3, 947160, Note_on_c, 0, 75, 42
3, 947160, Note_on_c, 0, 34, 52
3, 947160, Note_on_c, 0, 46, 50
3, 947337, Note_on_c, 0, 46, 0
3, 947337, Note_on_c, 0, 75, 0
3, 947337, Note_on_c, 0, 63, 0
3, 947337, Note_on_c, 0, 67, 0
3, 947337, Note_on_c, 0, 73, 0
3, 947337, Note_on_c, 0, 34, 0
3, 947700, Note_on_c, 0, 64, 39
3, 947700, Note_on_c, 0, 67, 38
3, 947700, Note_on_c, 0, 73, 37
3, 947700, Note_on_c, 0, 76, 39
3, 947700, Note_on_c, 0, 33, 49
3, 947700, Note_on_c, 0, 45, 49
3, 947877, Note_on_c, 0, 45, 0
3, 947877, Note_on_c, 0, 76, 0
3, 947877, Note_on_c, 0, 64, 0
3, 947877, Note_on_c, 0, 67, 0
3, 947877, Note_on_c, 0, 73, 0
3, 947877, Note_on_c, 0, 33, 0
3, 948240, Note_on_c, 0, 65, 41
3, 948240, Note_on_c, 0, 68, 41
3, 948240, Note_on_c, 0, 72, 43
3, 948240, Note_on_c, 0, 77, 41
3, 948240, Note_on_c, 0, 32, 52
3, 948240, Note_on_c, 0, 44, 52
3, 948417, Note_on_c, 0, 44, 0
3, 948417, Note_on_c, 0, 77, 0
3, 948417, Note_on_c, 0, 65, 0
3, 948417, Note_on_c, 0, 68, 0
3, 948417, Note_on_c, 0, 72, 0
3, 948417, Note_on_c, 0, 32, 0
3, 948780, Note_on_c, 0, 67, 39
3, 948780, Note_on_c, 0, 72, 37
3, 948780, Note_on_c, 0, 79, 39
3, 948780, Note_on_c, 0, 28, 47
3, 948780, Note_on_c, 0, 40, 48
3, 948957, Note_on_c, 0, 40, 0
3, 948957, Note_on_c, 0, 67, 0
3, 948957, Note_on_c, 0, 72, 0
3, 948957, Note_on_c, 0, 79, 0
3, 948957, Note_on_c, 0, 28, 0
3, 949320, Note_on_c, 0, 68, 41
3, 949320, Note_on_c, 0, 72, 41
3, 949320, Note_on_c, 0, 78, 40
3, 949320, Note_on_c, 0, 80, 40
3, 949320, Note_on_c, 0, 27, 51
3, 949320, Note_on_c, 0, 39, 50
3, 949497, Note_on_c, 0, 39, 0
3, 949497, Note_on_c, 0, 80, 0
3, 949497, Note_on_c, 0, 68, 0
3, 949497, Note_on_c, 0, 72, 0
3, 949497, Note_on_c, 0, 78, 0
3, 949497, Note_on_c, 0, 27, 0
3, 949860, Note_on_c, 0, 69, 41
3, 949860, Note_on_c, 0, 72, 39
3, 949860, Note_on_c, 0, 78, 40
3, 949860, Note_on_c, 0, 81, 38
3, 949860, Note_on_c, 0, 26, 48
3, 949860, Note_on_c, 0, 38, 47
3, 950037, Note_on_c, 0, 38, 0
3, 950037, Note_on_c, 0, 81, 0
3, 950037, Note_on_c, 0, 69, 0
3, 950037, Note_on_c, 0, 72, 0
3, 950037, Note_on_c, 0, 78, 0
3, 950037, Note_on_c, 0, 26, 0
3, 950400, Note_on_c, 0, 50, 44
3, 950400, Note_on_c, 0, 53, 42
3, 950400, Note_on_c, 0, 56, 42
3, 950400, Note_on_c, 0, 60, 43
3, 950400, Note_on_c, 0, 31, 53
3, 950400, Note_on_c, 0, 43, 52
3, 950666, Note_on_c, 0, 60, 0
3, 950666, Note_on_c, 0, 56, 0
3, 950666, Note_on_c, 0, 53, 0
3, 950666, Note_on_c, 0, 50, 0
3, 950725, Note_on_c, 0, 31, 0
3, 950725, Note_on_c, 0, 43, 0
3, 951480, Note_on_c, 0, 50, 43
3, 951480, Note_on_c, 0, 53, 41
3, 951480, Note_on_c, 0, 55, 44
3, 951480, Note_on_c, 0, 59, 44
3, 951480, Note_on_c, 0, 31, 49
3, 951480, Note_on_c, 0, 43, 49
3, 951746, Note_on_c, 0, 59, 0
3, 951746, Note_on_c, 0, 55, 0
3, 951746, Note_on_c, 0, 53, 0
3, 951746, Note_on_c, 0, 50, 0
3, 951805, Note_on_c, 0, 31, 0
3, 951805, Note_on_c, 0, 43, 0
3, 954720, Note_on_c, 0, 48, 41
3, 954720, Note_on_c, 0, 60, 41
3, 954720, Note_on_c, 0, 24, 52
3, 954720, Note_on_c, 0, 36, 52
3, 958447, Note_on_c, 0, 36, 0
3, 958447, Note_on_c, 0, 60, 0
3, 958447, Note_on_c, 0, 24, 0
3, 958447, Note_on_c, 0, 48, 0
3, 958500, Note_on_c, 0, 55, 79
3, 958500, Note_on_c, 0, 67, 80
3, 958500, Note_on_c, 0, 31, 92
3, 958500, Note_on_c, 0, 43, 90
3, 958987, Note_on_c, 0, 43, 0
3, 958987, Note_on_c, 0, 67, 0
3, 958987, Note_on_c, 0, 31, 0
3, 958987, Note_on_c, 0, 55, 0
3, 959040, Note_on_c, 0, 48, 60
3, 959040, Note_on_c, 0, 60, 60
3, 959040, Note_on_c, 0, 24, 70
3, 959040, Note_on_c, 0, 36, 69
3, 962767, Note_on_c, 0, 36, 0
3, 962767, Note_on_c, 0, 60, 0
3, 962767, Note_on_c, 0, 24, 0
3, 962767, Note_on_c, 0, 48, 0
3, 962820, Note_on_c, 0, 55, 38
3, 962820, Note_on_c, 0, 31, 50
3, 962983, Note_on_c, 0, 31, 0
3, 962983, Note_on_c, 0, 55, 0
3, 963000, Note_on_c, 0, 56, 43
3, 963000, Note_on_c, 0, 32, 54
3, 963163, Note_on_c, 0, 32, 0
3, 963163, Note_on_c, 0, 56, 0
3, 963180, Note_on_c, 0, 55, 41
3, 963180, Note_on_c, 0, 31, 49
3, 963343, Note_on_c, 0, 31, 0
3, 963343, Note_on_c, 0, 55, 0
3, 963360, Note_on_c, 0, 48, 40
3, 963360, Note_on_c, 0, 24, 61
3, 963360, Note_on_c, 0, 36, 61
3, 965450, Note_on_c, 0, 36, 0
3, 965450, Note_on_c, 0, 24, 0
3, 965450, Note_on_c, 0, 48, 0
3, 965520, Note_on_c, 0, 57, 86
3, 965520, Note_on_c, 0, 60, 89
3, 965520, Note_on_c, 0, 63, 90
3, 965520, Note_on_c, 0, 69, 89
3, 965520, Note_on_c, 0, 30, 91
3, 965520, Note_on_c, 0, 42, 92
3, 966530, Note_on_c, 0, 42, 0
3, 966530, Note_on_c, 0, 69, 0
3, 966530, Note_on_c, 0, 57, 0
3, 966530, Note_on_c, 0, 60, 0
3, 966530, Note_on_c, 0, 63, 0
3, 966530, Note_on_c, 0, 30, 0
3, 966600, Note_on_c, 0, 59, 76
3, 966600, Note_on_c, 0, 62, 75
3, 966600, Note_on_c, 0, 65, 78
3, 966600, Note_on_c, 0, 71, 79
3, 966600, Note_on_c, 0, 31, 84
3, 966600, Note_on_c, 0, 43, 87
3, 967610, Note_on_c, 0, 43, 0
3, 967610, Note_on_c, 0, 71, 0
3, 967610, Note_on_c, 0, 59, 0
3, 967610, Note_on_c, 0, 62, 0
3, 967610, Note_on_c, 0, 65, 0
3, 967610, Note_on_c, 0, 31, 0
3, 967680, Note_on_c, 0, 60, 73
3, 967680, Note_on_c, 0, 72, 74
3, 967680, Note_on_c, 0, 36, 93
3, 967680, Note_on_c, 0, 48, 91
3, 969770, Note_on_c, 0, 48, 0
3, 969770, Note_on_c, 0, 72, 0
3, 969770, Note_on_c, 0, 36, 0
3, 969770, Note_on_c, 0, 60, 0
3, 969840, Note_on_c, 0, 48, 52
3, 969840, Note_on_c, 0, 56, 54
3, 969840, Note_on_c, 0, 29, 68
3, 969840, Note_on_c, 0, 41, 65
3, 970106, Note_on_c, 0, 41, 0
3, 970106, Note_on_c, 0, 29, 0
3, 970327, Note_on_c, 0, 56, 0
3, 970327, Note_on_c, 0, 48, 0
3, 970380, Note_on_c, 0, 50, 66
3, 970380, Note_on_c, 0, 57, 67
3, 970380, Note_on_c, 0, 30, 79
3, 970380, Note_on_c, 0, 42, 80
3, 971186, Note_on_c, 0, 42, 0
3, 971186, Note_on_c, 0, 30, 0
3, 971407, Note_on_c, 0, 57, 0
3, 971407, Note_on_c, 0, 50, 0
3, 971460, Note_on_c, 0, 50, 70
3, 971460, Note_on_c, 0, 53, 73
3, 971460, Note_on_c, 0, 59, 72
3, 971460, Note_on_c, 0, 31, 82
3, 971460, Note_on_c, 0, 43, 79
3, 971726, Note_on_c, 0, 43, 0
3, 971726, Note_on_c, 0, 31, 0
3, 971947, Note_on_c, 0, 53, 0
3, 971947, Note_on_c, 0, 59, 0
3, 971947, Note_on_c, 0, 50, 0
3, 972000, Note_on_c, 0, 48, 53
3, 972000, Note_on_c, 0, 60, 53
3, 972000, Note_on_c, 0, 24, 89
3, 972000, Note_on_c, 0, 36, 86
3, 972540, Note_on_c, 0, 55, 53
3, 972540, Note_on_c, 0, 60, 53
3, 972540, Note_on_c, 0, 63, 49
3, 972540, Note_on_c, 0, 67, 50
3, 972703, Note_on_c, 0, 67, 0
3, 972703, Note_on_c, 0, 63, 0
3, 972703, Note_on_c, 0, 55, 0
3, 972703, Note_on_c, 0, 60, 0
3, 972720, Note_on_c, 0, 75, 38
3, 972720, Note_on_c, 0, 79, 39
3, 972883, Note_on_c, 0, 79, 0
3, 972883, Note_on_c, 0, 75, 0
3, 972900, Note_on_c, 0, 72, 36
3, 973010, Note_on_c, 0, 60, 0
3, 973010, Note_on_c, 0, 36, 0
3, 973010, Note_on_c, 0, 24, 0
3, 973010, Note_on_c, 0, 48, 0
3, 973063, Note_on_c, 0, 72, 0
3, 973080, Note_on_c, 0, 56, 49
3, 973080, Note_on_c, 0, 60, 52
3, 973080, Note_on_c, 0, 65, 52
3, 973080, Note_on_c, 0, 68, 49
3, 973260, Note_on_c, 0, 77, 38
3, 973260, Note_on_c, 0, 80, 41
3, 973405, Note_on_c, 0, 68, 0
3, 973405, Note_on_c, 0, 65, 0
3, 973405, Note_on_c, 0, 60, 0
3, 973405, Note_on_c, 0, 56, 0
3, 973423, Note_on_c, 0, 77, 0
3, 973423, Note_on_c, 0, 80, 0
3, 973440, Note_on_c, 0, 72, 35
3, 973603, Note_on_c, 0, 72, 0
3, 973620, Note_on_c, 0, 58, 46
3, 973620, Note_on_c, 0, 60, 50
3, 973620, Note_on_c, 0, 67, 49
3, 973620, Note_on_c, 0, 70, 48
3, 973800, Note_on_c, 0, 79, 40
3, 973800, Note_on_c, 0, 82, 37
3, 973945, Note_on_c, 0, 70, 0
3, 973945, Note_on_c, 0, 67, 0
3, 973945, Note_on_c, 0, 60, 0
3, 973945, Note_on_c, 0, 58, 0
3, 973963, Note_on_c, 0, 79, 0
3, 973963, Note_on_c, 0, 82, 0
3, 973980, Note_on_c, 0, 72, 34
3, 974143, Note_on_c, 0, 72, 0
3, 974160, Note_on_c, 0, 55, 51
3, 974160, Note_on_c, 0, 60, 52
3, 974160, Note_on_c, 0, 63, 52
3, 974160, Note_on_c, 0, 67, 53
3, 974340, Note_on_c, 0, 75, 37
3, 974340, Note_on_c, 0, 79, 40
3, 974485, Note_on_c, 0, 67, 0
3, 974485, Note_on_c, 0, 63, 0
3, 974485, Note_on_c, 0, 60, 0
3, 974485, Note_on_c, 0, 55, 0
3, 974503, Note_on_c, 0, 75, 0
3, 974503, Note_on_c, 0, 79, 0
3, 974520, Note_on_c, 0, 72, 34
3, 974683, Note_on_c, 0, 72, 0
3, 974700, Note_on_c, 0, 55, 48
3, 974700, Note_on_c, 0, 60, 48
3, 974700, Note_on_c, 0, 63, 46
3, 974880, Note_on_c, 0, 72, 40
3, 974880, Note_on_c, 0, 75, 40
3, 975025, Note_on_c, 0, 63, 0
3, 975025, Note_on_c, 0, 60, 0
3, 975025, Note_on_c, 0, 55, 0
3, 975043, Note_on_c, 0, 75, 0
3, 975043, Note_on_c, 0, 72, 0
3, 975060, Note_on_c, 0, 67, 36
3, 975223, Note_on_c, 0, 67, 0
3, 975240, Note_on_c, 0, 53, 49
3, 975240, Note_on_c, 0, 56, 51
3, 975240, Note_on_c, 0, 62, 51
3, 975420, Note_on_c, 0, 68, 40
3, 975420, Note_on_c, 0, 74, 38
3, 975565, Note_on_c, 0, 62, 0
3, 975565, Note_on_c, 0, 56, 0
3, 975565, Note_on_c, 0, 53, 0
3, 975583, Note_on_c, 0, 74, 0
3, 975583, Note_on_c, 0, 68, 0
3, 975600, Note_on_c, 0, 65, 35
3, 975763, Note_on_c, 0, 65, 0
3, 975780, Note_on_c, 0, 50, 47
3, 975780, Note_on_c, 0, 55, 48
3, 975780, Note_on_c, 0, 59, 46
3, 975960, Note_on_c, 0, 65, 39
3, 975960, Note_on_c, 0, 71, 39
3, 976105, Note_on_c, 0, 59, 0
3, 976105, Note_on_c, 0, 55, 0
3, 976105, Note_on_c, 0, 50, 0
3, 976123, Note_on_c, 0, 71, 0
3, 976123, Note_on_c, 0, 65, 0
3, 976140, Note_on_c, 0, 62, 32
3, 976303, Note_on_c, 0, 62, 0
3, 976320, Note_on_c, 0, 51, 53
3, 976320, Note_on_c, 0, 55, 52
3, 976320, Note_on_c, 0, 60, 50
3, 976500, Note_on_c, 0, 67, 38
3, 976500, Note_on_c, 0, 72, 40
3, 976645, Note_on_c, 0, 60, 0
3, 976645, Note_on_c, 0, 55, 0
3, 976645, Note_on_c, 0, 51, 0
3, 976663, Note_on_c, 0, 72, 0
3, 976663, Note_on_c, 0, 67, 0
3, 976680, Note_on_c, 0, 63, 35
3, 976843, Note_on_c, 0, 63, 0
3, 976860, Note_on_c, 0, 55, 49
3, 976860, Note_on_c, 0, 60, 47
3, 976860, Note_on_c, 0, 63, 46
3, 976860, Note_on_c, 0, 67, 48
3, 977040, Note_on_c, 0, 75, 41
3, 977040, Note_on_c, 0, 79, 40
3, 977185, Note_on_c, 0, 67, 0
3, 977185, Note_on_c, 0, 63, 0
3, 977185, Note_on_c, 0, 60, 0
3, 977185, Note_on_c, 0, 55, 0
3, 977203, Note_on_c, 0, 75, 0
3, 977203, Note_on_c, 0, 79, 0
3, 977220, Note_on_c, 0, 72, 37
3, 977383, Note_on_c, 0, 72, 0
3, 977400, Note_on_c, 0, 56, 53
3, 977400, Note_on_c, 0, 60, 52
3, 977400, Note_on_c, 0, 65, 52
3, 977400, Note_on_c, 0, 68, 53
3, 977580, Note_on_c, 0, 77, 39
3, 977580, Note_on_c, 0, 80, 40
3, 977725, Note_on_c, 0, 68, 0
3, 977725, Note_on_c, 0, 65, 0
3, 977725, Note_on_c, 0, 60, 0
3, 977725, Note_on_c, 0, 56, 0
3, 977743, Note_on_c, 0, 77, 0
3, 977743, Note_on_c, 0, 80, 0
3, 977760, Note_on_c, 0, 72, 32
3, 977923, Note_on_c, 0, 72, 0
3, 977940, Note_on_c, 0, 58, 49
3, 977940, Note_on_c, 0, 60, 49
3, 977940, Note_on_c, 0, 67, 49
3, 977940, Note_on_c, 0, 70, 47
3, 978120, Note_on_c, 0, 79, 39
3, 978120, Note_on_c, 0, 82, 38
3, 978265, Note_on_c, 0, 70, 0
3, 978265, Note_on_c, 0, 67, 0
3, 978265, Note_on_c, 0, 60, 0
3, 978265, Note_on_c, 0, 58, 0
3, 978283, Note_on_c, 0, 79, 0
3, 978283, Note_on_c, 0, 82, 0
3, 978300, Note_on_c, 0, 72, 32
3, 978463, Note_on_c, 0, 72, 0
3, 978480, Note_on_c, 0, 55, 52
3, 978480, Note_on_c, 0, 60, 52
3, 978480, Note_on_c, 0, 63, 53
3, 978480, Note_on_c, 0, 67, 50
3, 978660, Note_on_c, 0, 75, 40
3, 978660, Note_on_c, 0, 79, 41
3, 978805, Note_on_c, 0, 67, 0
3, 978805, Note_on_c, 0, 63, 0
3, 978805, Note_on_c, 0, 60, 0
3, 978805, Note_on_c, 0, 55, 0
3, 978823, Note_on_c, 0, 75, 0
3, 978823, Note_on_c, 0, 79, 0
3, 978840, Note_on_c, 0, 72, 34
3, 979003, Note_on_c, 0, 72, 0
3, 979020, Note_on_c, 0, 55, 48
3, 979020, Note_on_c, 0, 60, 47
3, 979020, Note_on_c, 0, 63, 48
3, 979200, Note_on_c, 0, 72, 38
3, 979200, Note_on_c, 0, 75, 37
3, 979345, Note_on_c, 0, 63, 0
3, 979345, Note_on_c, 0, 60, 0
3, 979345, Note_on_c, 0, 55, 0
3, 979363, Note_on_c, 0, 75, 0
3, 979363, Note_on_c, 0, 72, 0
3, 979380, Note_on_c, 0, 67, 32
3, 979543, Note_on_c, 0, 67, 0
3, 979560, Note_on_c, 0, 53, 50
3, 979560, Note_on_c, 0, 56, 53
3, 979560, Note_on_c, 0, 62, 52
3, 979740, Note_on_c, 0, 68, 39
3, 979740, Note_on_c, 0, 74, 40
3, 979885, Note_on_c, 0, 62, 0
3, 979885, Note_on_c, 0, 56, 0
3, 979885, Note_on_c, 0, 53, 0
3, 979903, Note_on_c, 0, 74, 0
3, 979903, Note_on_c, 0, 68, 0
3, 979920, Note_on_c, 0, 65, 33
3, 980083, Note_on_c, 0, 65, 0
3, 980100, Note_on_c, 0, 50, 49
3, 980100, Note_on_c, 0, 55, 49
3, 980100, Note_on_c, 0, 59, 47
3, 980280, Note_on_c, 0, 65, 40
3, 980280, Note_on_c, 0, 71, 41
3, 980425, Note_on_c, 0, 59, 0
3, 980425, Note_on_c, 0, 55, 0
3, 980425, Note_on_c, 0, 50, 0
3, 980443, Note_on_c, 0, 71, 0
3, 980443, Note_on_c, 0, 65, 0
3, 980460, Note_on_c, 0, 62, 36
3, 980623, Note_on_c, 0, 62, 0
3, 980640, Note_on_c, 0, 51, 50
3, 980640, Note_on_c, 0, 55, 51
3, 980640, Note_on_c, 0, 60, 49
3, 980820, Note_on_c, 0, 67, 37
3, 980820, Note_on_c, 0, 72, 40
3, 980965, Note_on_c, 0, 60, 0
3, 980965, Note_on_c, 0, 55, 0
3, 980965, Note_on_c, 0, 51, 0
3, 980983, Note_on_c, 0, 72, 0
3, 980983, Note_on_c, 0, 67, 0
3, 981000, Note_on_c, 0, 63, 34
3, 981163, Note_on_c, 0, 63, 0
3, 981180, Note_on_c, 0, 72, 49
3, 981505, Note_on_c, 0, 72, 0
3, 981540, Note_on_c, 0, 74, 48
3, 981703, Note_on_c, 0, 74, 0
3, 981720, Note_on_c, 0, 75, 46
3, 981720, Note_on_c, 0, 60, 54
3, 981720, Note_on_c, 0, 72, 58
3, 982045, Note_on_c, 0, 75, 0
3, 982080, Note_on_c, 0, 75, 43
3, 982243, Note_on_c, 0, 75, 0
3, 982260, Note_on_c, 0, 77, 45
3, 982585, Note_on_c, 0, 77, 0
3, 982620, Note_on_c, 0, 77, 44
3, 982783, Note_on_c, 0, 77, 0
3, 982800, Note_on_c, 0, 72, 0
3, 982800, Note_on_c, 0, 60, 0
3, 982800, Note_on_c, 0, 75, 45
3, 982800, Note_on_c, 0, 58, 57
3, 982800, Note_on_c, 0, 70, 55
3, 983125, Note_on_c, 0, 75, 0
3, 983160, Note_on_c, 0, 75, 40
3, 983323, Note_on_c, 0, 75, 0
3, 983340, Note_on_c, 0, 72, 43
3, 983503, Note_on_c, 0, 72, 0
3, 983520, Note_on_c, 0, 74, 44
3, 983683, Note_on_c, 0, 74, 0
3, 983700, Note_on_c, 0, 72, 40
3, 983863, Note_on_c, 0, 72, 0
3, 983880, Note_on_c, 0, 70, 0
3, 983880, Note_on_c, 0, 58, 0
3, 983880, Note_on_c, 0, 74, 47
3, 983880, Note_on_c, 0, 56, 59
3, 983880, Note_on_c, 0, 68, 56
3, 984205, Note_on_c, 0, 74, 0
3, 984240, Note_on_c, 0, 74, 45
3, 984403, Note_on_c, 0, 74, 0
3, 984420, Note_on_c, 0, 71, 43
3, 984583, Note_on_c, 0, 71, 0
3, 984600, Note_on_c, 0, 72, 45
3, 984763, Note_on_c, 0, 72, 0
3, 984780, Note_on_c, 0, 71, 40
3, 984943, Note_on_c, 0, 71, 0
3, 984960, Note_on_c, 0, 68, 0
3, 984960, Note_on_c, 0, 56, 0
3, 984960, Note_on_c, 0, 72, 48
3, 984960, Note_on_c, 0, 55, 60
3, 984960, Note_on_c, 0, 67, 60
3, 985123, Note_on_c, 0, 72, 0
3, 985140, Note_on_c, 0, 71, 39
3, 985303, Note_on_c, 0, 71, 0
3, 985320, Note_on_c, 0, 69, 42
3, 985483, Note_on_c, 0, 69, 0
3, 985500, Note_on_c, 0, 71, 47
3, 985825, Note_on_c, 0, 71, 0
3, 985860, Note_on_c, 0, 72, 46
3, 986023, Note_on_c, 0, 72, 0
3, 986040, Note_on_c, 0, 74, 49
3, 986365, Note_on_c, 0, 74, 0
3, 986400, Note_on_c, 0, 74, 42
3, 986563, Note_on_c, 0, 74, 0
3, 986580, Note_on_c, 0, 75, 45
3, 986905, Note_on_c, 0, 75, 0
3, 986940, Note_on_c, 0, 75, 44
3, 987103, Note_on_c, 0, 75, 0
3, 987120, Note_on_c, 0, 67, 0
3, 987120, Note_on_c, 0, 55, 0
3, 987120, Note_on_c, 0, 74, 42
3, 987120, Note_on_c, 0, 53, 52
3, 987120, Note_on_c, 0, 65, 53
3, 987445, Note_on_c, 0, 74, 0
3, 987480, Note_on_c, 0, 74, 43
3, 987643, Note_on_c, 0, 74, 0
3, 987660, Note_on_c, 0, 71, 44
3, 987823, Note_on_c, 0, 71, 0
3, 987840, Note_on_c, 0, 72, 44
3, 988003, Note_on_c, 0, 72, 0
3, 988020, Note_on_c, 0, 71, 41
3, 988130, Note_on_c, 0, 65, 0
3, 988130, Note_on_c, 0, 53, 0
3, 988183, Note_on_c, 0, 71, 0
3, 988200, Note_on_c, 0, 72, 47
3, 988200, Note_on_c, 0, 51, 53
3, 988200, Note_on_c, 0, 63, 51
3, 988525, Note_on_c, 0, 72, 0
3, 988560, Note_on_c, 0, 72, 41
3, 988723, Note_on_c, 0, 72, 0
3, 988740, Note_on_c, 0, 69, 40
3, 988903, Note_on_c, 0, 69, 0
3, 988920, Note_on_c, 0, 71, 45
3, 989083, Note_on_c, 0, 71, 0
3, 989100, Note_on_c, 0, 69, 41
3, 989210, Note_on_c, 0, 63, 0
3, 989210, Note_on_c, 0, 51, 0
3, 989263, Note_on_c, 0, 69, 0
3, 989280, Note_on_c, 0, 67, 47
3, 989280, Note_on_c, 0, 71, 47
3, 989280, Note_on_c, 0, 50, 53
3, 989280, Note_on_c, 0, 55, 54
3, 989280, Note_on_c, 0, 59, 53
3, 989280, Note_on_c, 0, 62, 51
3, 989443, Note_on_c, 0, 62, 0
3, 989443, Note_on_c, 0, 55, 0
3, 989443, Note_on_c, 0, 67, 0
3, 989443, Note_on_c, 0, 71, 0
3, 989443, Note_on_c, 0, 50, 0
3, 989443, Note_on_c, 0, 59, 0
3, 989820, Note_on_c, 0, 79, 44
3, 989820, Note_on_c, 0, 55, 49
3, 989983, Note_on_c, 0, 55, 0
3, 989983, Note_on_c, 0, 79, 0
3, 990000, Note_on_c, 0, 80, 44
3, 990000, Note_on_c, 0, 56, 55
3, 990163, Note_on_c, 0, 56, 0
3, 990163, Note_on_c, 0, 80, 0
3, 990180, Note_on_c, 0, 82, 47
3, 990180, Note_on_c, 0, 58, 54
3, 990343, Note_on_c, 0, 58, 0
3, 990343, Note_on_c, 0, 82, 0
3, 990360, Note_on_c, 0, 83, 48
3, 990360, Note_on_c, 0, 59, 59
3, 990523, Note_on_c, 0, 59, 0
3, 990523, Note_on_c, 0, 83, 0
3, 990540, Note_on_c, 0, 82, 40
3, 990540, Note_on_c, 0, 58, 53
3, 990703, Note_on_c, 0, 58, 0
3, 990703, Note_on_c, 0, 82, 0
3, 990720, Note_on_c, 0, 80, 42
3, 990720, Note_on_c, 0, 56, 49
3, 990883, Note_on_c, 0, 56, 0
3, 990883, Note_on_c, 0, 80, 0
3, 990900, Note_on_c, 0, 79, 43
3, 990900, Note_on_c, 0, 55, 52
3, 991063, Note_on_c, 0, 55, 0
3, 991063, Note_on_c, 0, 79, 0
3, 991080, Note_on_c, 0, 80, 44
3, 991080, Note_on_c, 0, 56, 53
3, 991243, Note_on_c, 0, 56, 0
3, 991243, Note_on_c, 0, 80, 0
3, 991260, Note_on_c, 0, 83, 44
3, 991260, Note_on_c, 0, 59, 58
3, 991423, Note_on_c, 0, 59, 0
3, 991423, Note_on_c, 0, 83, 0
3, 991440, Note_on_c, 0, 82, 43
3, 991440, Note_on_c, 0, 58, 56
3, 991603, Note_on_c, 0, 58, 0
3, 991603, Note_on_c, 0, 82, 0
3, 991620, Note_on_c, 0, 80, 40
3, 991620, Note_on_c, 0, 56, 51
3, 991783, Note_on_c, 0, 56, 0
3, 991783, Note_on_c, 0, 80, 0
3, 991800, Note_on_c, 0, 79, 39
3, 991800, Note_on_c, 0, 55, 51
3, 991963, Note_on_c, 0, 55, 0
3, 991963, Note_on_c, 0, 79, 0
3, 991980, Note_on_c, 0, 77, 42
3, 991980, Note_on_c, 0, 53, 54
3, 992143, Note_on_c, 0, 53, 0
3, 992143, Note_on_c, 0, 77, 0
3, 992160, Note_on_c, 0, 79, 44
3, 992160, Note_on_c, 0, 55, 55
3, 992323, Note_on_c, 0, 55, 0
3, 992323, Note_on_c, 0, 79, 0
3, 992340, Note_on_c, 0, 82, 48
3, 992340, Note_on_c, 0, 58, 57
3, 992503, Note_on_c, 0, 58, 0
3, 992503, Note_on_c, 0, 82, 0
3, 992520, Note_on_c, 0, 80, 43
3, 992520, Note_on_c, 0, 56, 54
3, 992683, Note_on_c, 0, 56, 0
3, 992683, Note_on_c, 0, 80, 0
3, 992700, Note_on_c, 0, 79, 40
3, 992700, Note_on_c, 0, 55, 50
3, 992863, Note_on_c, 0, 55, 0
3, 992863, Note_on_c, 0, 79, 0
3, 992880, Note_on_c, 0, 77, 41
3, 992880, Note_on_c, 0, 53, 48
3, 993043, Note_on_c, 0, 53, 0
3, 993043, Note_on_c, 0, 77, 0
3, 993060, Note_on_c, 0, 75, 41
3, 993060, Note_on_c, 0, 51, 51
3, 993223, Note_on_c, 0, 51, 0
3, 993223, Note_on_c, 0, 75, 0
3, 993240, Note_on_c, 0, 77, 46
3, 993240, Note_on_c, 0, 53, 56
3, 993403, Note_on_c, 0, 53, 0
3, 993403, Note_on_c, 0, 77, 0
3, 993420, Note_on_c, 0, 80, 44
3, 993420, Note_on_c, 0, 56, 58
3, 993583, Note_on_c, 0, 56, 0
3, 993583, Note_on_c, 0, 80, 0
3, 993600, Note_on_c, 0, 79, 46
3, 993600, Note_on_c, 0, 55, 56
3, 993925, Note_on_c, 0, 55, 0
3, 993925, Note_on_c, 0, 79, 0
3, 994140, Note_on_c, 0, 75, 42
3, 994140, Note_on_c, 0, 63, 52
3, 994303, Note_on_c, 0, 63, 0
3, 994303, Note_on_c, 0, 75, 0
3, 994320, Note_on_c, 0, 77, 43
3, 994320, Note_on_c, 0, 65, 57
3, 994483, Note_on_c, 0, 65, 0
3, 994483, Note_on_c, 0, 77, 0
3, 994500, Note_on_c, 0, 79, 46
3, 994500, Note_on_c, 0, 67, 57
3, 994663, Note_on_c, 0, 67, 0
3, 994663, Note_on_c, 0, 79, 0
3, 994680, Note_on_c, 0, 80, 46
3, 994680, Note_on_c, 0, 68, 58
3, 994843, Note_on_c, 0, 68, 0
3, 994843, Note_on_c, 0, 80, 0
3, 994860, Note_on_c, 0, 79, 41
3, 994860, Note_on_c, 0, 67, 53
3, 995023, Note_on_c, 0, 67, 0
3, 995023, Note_on_c, 0, 79, 0
3, 995040, Note_on_c, 0, 77, 39
3, 995040, Note_on_c, 0, 65, 50
3, 995203, Note_on_c, 0, 65, 0
3, 995203, Note_on_c, 0, 77, 0
3, 995220, Note_on_c, 0, 75, 43
3, 995220, Note_on_c, 0, 63, 51
3, 995383, Note_on_c, 0, 63, 0
3, 995383, Note_on_c, 0, 75, 0
3, 995400, Note_on_c, 0, 77, 44
3, 995400, Note_on_c, 0, 65, 54
3, 995563, Note_on_c, 0, 65, 0
3, 995563, Note_on_c, 0, 77, 0
3, 995580, Note_on_c, 0, 80, 44
3, 995580, Note_on_c, 0, 68, 58
3, 995743, Note_on_c, 0, 68, 0
3, 995743, Note_on_c, 0, 80, 0
3, 995760, Note_on_c, 0, 79, 43
3, 995760, Note_on_c, 0, 67, 53
3, 995923, Note_on_c, 0, 67, 0
3, 995923, Note_on_c, 0, 79, 0
3, 995940, Note_on_c, 0, 77, 40
3, 995940, Note_on_c, 0, 65, 50
3, 996103, Note_on_c, 0, 65, 0
3, 996103, Note_on_c, 0, 77, 0
3, 996120, Note_on_c, 0, 75, 38
3, 996120, Note_on_c, 0, 63, 50
3, 996283, Note_on_c, 0, 63, 0
3, 996283, Note_on_c, 0, 75, 0
3, 996300, Note_on_c, 0, 74, 42
3, 996300, Note_on_c, 0, 62, 54
3, 996463, Note_on_c, 0, 62, 0
3, 996463, Note_on_c, 0, 74, 0
3, 996480, Note_on_c, 0, 75, 43
3, 996480, Note_on_c, 0, 63, 53
3, 996643, Note_on_c, 0, 63, 0
3, 996643, Note_on_c, 0, 75, 0
3, 996660, Note_on_c, 0, 84, 52
3, 996660, Note_on_c, 0, 72, 65
3, 996823, Note_on_c, 0, 72, 0
3, 996823, Note_on_c, 0, 84, 0
3, 996840, Note_on_c, 0, 77, 40
3, 996840, Note_on_c, 0, 65, 49
3, 997003, Note_on_c, 0, 65, 0
3, 997003, Note_on_c, 0, 77, 0
3, 997020, Note_on_c, 0, 75, 41
3, 997020, Note_on_c, 0, 63, 49
3, 997183, Note_on_c, 0, 63, 0
3, 997183, Note_on_c, 0, 75, 0
3, 997200, Note_on_c, 0, 74, 41
3, 997200, Note_on_c, 0, 62, 49
3, 997363, Note_on_c, 0, 62, 0
3, 997363, Note_on_c, 0, 74, 0
3, 997380, Note_on_c, 0, 72, 43
3, 997380, Note_on_c, 0, 60, 51
3, 997543, Note_on_c, 0, 60, 0
3, 997543, Note_on_c, 0, 72, 0
3, 997560, Note_on_c, 0, 74, 45
3, 997560, Note_on_c, 0, 62, 55
3, 997723, Note_on_c, 0, 62, 0
3, 997723, Note_on_c, 0, 74, 0
3, 997740, Note_on_c, 0, 84, 53
3, 997740, Note_on_c, 0, 72, 64
3, 997903, Note_on_c, 0, 72, 0
3, 997903, Note_on_c, 0, 84, 0
3, 997920, Note_on_c, 0, 75, 40
3, 997920, Note_on_c, 0, 63, 47
3, 998083, Note_on_c, 0, 63, 0
3, 998083, Note_on_c, 0, 75, 0
3, 998460, Note_on_c, 0, 65, 37
3, 998460, Note_on_c, 0, 68, 37
3, 998460, Note_on_c, 0, 53, 50
3, 998460, Note_on_c, 0, 56, 47
3, 998637, Note_on_c, 0, 56, 0
3, 998637, Note_on_c, 0, 68, 0
3, 998637, Note_on_c, 0, 53, 0
3, 998637, Note_on_c, 0, 65, 0
3, 999000, Note_on_c, 0, 67, 42
3, 999000, Note_on_c, 0, 70, 44
3, 999000, Note_on_c, 0, 55, 53
3, 999000, Note_on_c, 0, 58, 50
3, 999177, Note_on_c, 0, 58, 0
3, 999177, Note_on_c, 0, 70, 0
3, 999177, Note_on_c, 0, 55, 0
3, 999177, Note_on_c, 0, 67, 0
3, 999540, Note_on_c, 0, 68, 40
3, 999540, Note_on_c, 0, 72, 41
3, 999540, Note_on_c, 0, 56, 48
3, 999540, Note_on_c, 0, 60, 47
3, 999717, Note_on_c, 0, 60, 0
3, 999717, Note_on_c, 0, 72, 0
3, 999717, Note_on_c, 0, 56, 0
3, 999717, Note_on_c, 0, 68, 0
3, 1000080, Note_on_c, 0, 65, 41
3, 1000080, Note_on_c, 0, 68, 43
3, 1000080, Note_on_c, 0, 53, 50
3, 1000080, Note_on_c, 0, 56, 49
3, 1000257, Note_on_c, 0, 56, 0
3, 1000257, Note_on_c, 0, 68, 0
3, 1000257, Note_on_c, 0, 53, 0
3, 1000257, Note_on_c, 0, 65, 0
3, 1000620, Note_on_c, 0, 68, 38
3, 1000620, Note_on_c, 0, 72, 40
3, 1000620, Note_on_c, 0, 77, 38
3, 1000620, Note_on_c, 0, 56, 48
3, 1000620, Note_on_c, 0, 60, 49
3, 1000620, Note_on_c, 0, 65, 48
3, 1000797, Note_on_c, 0, 65, 0
3, 1000797, Note_on_c, 0, 56, 0
3, 1000797, Note_on_c, 0, 68, 0
3, 1000797, Note_on_c, 0, 72, 0
3, 1000797, Note_on_c, 0, 77, 0
3, 1000797, Note_on_c, 0, 60, 0
3, 1001160, Note_on_c, 0, 70, 41
3, 1001160, Note_on_c, 0, 72, 42
3, 1001160, Note_on_c, 0, 79, 43
3, 1001160, Note_on_c, 0, 58, 52
3, 1001160, Note_on_c, 0, 60, 50
3, 1001160, Note_on_c, 0, 67, 51
3, 1001337, Note_on_c, 0, 67, 0
3, 1001337, Note_on_c, 0, 58, 0
3, 1001337, Note_on_c, 0, 70, 0
3, 1001337, Note_on_c, 0, 72, 0
3, 1001337, Note_on_c, 0, 79, 0
3, 1001337, Note_on_c, 0, 60, 0
3, 1001700, Note_on_c, 0, 70, 41
3, 1001700, Note_on_c, 0, 72, 40
3, 1001700, Note_on_c, 0, 80, 37
3, 1001700, Note_on_c, 0, 58, 46
3, 1001700, Note_on_c, 0, 60, 49
3, 1001700, Note_on_c, 0, 68, 49
3, 1001877, Note_on_c, 0, 68, 0
3, 1001877, Note_on_c, 0, 58, 0
3, 1001877, Note_on_c, 0, 70, 0
3, 1001877, Note_on_c, 0, 72, 0
3, 1001877, Note_on_c, 0, 80, 0
3, 1001877, Note_on_c, 0, 60, 0
3, 1002240, Note_on_c, 0, 68, 43
3, 1002240, Note_on_c, 0, 72, 43
3, 1002240, Note_on_c, 0, 77, 43
3, 1002240, Note_on_c, 0, 56, 50
3, 1002240, Note_on_c, 0, 60, 50
3, 1002240, Note_on_c, 0, 65, 52
3, 1002417, Note_on_c, 0, 65, 0
3, 1002417, Note_on_c, 0, 56, 0
3, 1002417, Note_on_c, 0, 68, 0
3, 1002417, Note_on_c, 0, 72, 0
3, 1002417, Note_on_c, 0, 77, 0
3, 1002417, Note_on_c, 0, 60, 0
3, 1002780, Note_on_c, 0, 80, 41
3, 1002780, Note_on_c, 0, 84, 40
3, 1002780, Note_on_c, 0, 68, 53
3, 1002780, Note_on_c, 0, 72, 51
3, 1002943, Note_on_c, 0, 72, 0
3, 1002943, Note_on_c, 0, 84, 0
3, 1002943, Note_on_c, 0, 68, 0
3, 1002943, Note_on_c, 0, 80, 0
3, 1002960, Note_on_c, 0, 74, 33
3, 1002960, Note_on_c, 0, 62, 41
3, 1003123, Note_on_c, 0, 62, 0
3, 1003123, Note_on_c, 0, 74, 0
3, 1003140, Note_on_c, 0, 82, 47
3, 1003140, Note_on_c, 0, 70, 58
3, 1003303, Note_on_c, 0, 70, 0
3, 1003303, Note_on_c, 0, 82, 0
3, 1003320, Note_on_c, 0, 80, 47
3, 1003320, Note_on_c, 0, 84, 49
3, 1003320, Note_on_c, 0, 68, 58
3, 1003320, Note_on_c, 0, 72, 59
3, 1003645, Note_on_c, 0, 72, 0
3, 1003645, Note_on_c, 0, 84, 0
3, 1003645, Note_on_c, 0, 68, 0
3, 1003645, Note_on_c, 0, 80, 0
3, 1003680, Note_on_c, 0, 77, 36
3, 1003680, Note_on_c, 0, 65, 45
3, 1003843, Note_on_c, 0, 65, 0
3, 1003843, Note_on_c, 0, 77, 0
3, 1003860, Note_on_c, 0, 80, 50
3, 1003860, Note_on_c, 0, 84, 52
3, 1003860, Note_on_c, 0, 68, 62
3, 1003860, Note_on_c, 0, 72, 62
3, 1004023, Note_on_c, 0, 72, 0
3, 1004023, Note_on_c, 0, 84, 0
3, 1004023, Note_on_c, 0, 68, 0
3, 1004023, Note_on_c, 0, 80, 0
3, 1004040, Note_on_c, 0, 74, 34
3, 1004040, Note_on_c, 0, 62, 40
3, 1004203, Note_on_c, 0, 62, 0
3, 1004203, Note_on_c, 0, 74, 0
3, 1004220, Note_on_c, 0, 82, 47
3, 1004220, Note_on_c, 0, 70, 58
3, 1004383, Note_on_c, 0, 70, 0
3, 1004383, Note_on_c, 0, 82, 0
3, 1004400, Note_on_c, 0, 80, 49
3, 1004400, Note_on_c, 0, 84, 47
3, 1004400, Note_on_c, 0, 68, 61
3, 1004400, Note_on_c, 0, 72, 61
3, 1004725, Note_on_c, 0, 72, 0
3, 1004725, Note_on_c, 0, 84, 0
3, 1004725, Note_on_c, 0, 68, 0
3, 1004725, Note_on_c, 0, 80, 0
3, 1004760, Note_on_c, 0, 77, 37
3, 1004760, Note_on_c, 0, 65, 43
3, 1004923, Note_on_c, 0, 65, 0
3, 1004923, Note_on_c, 0, 77, 0
3, 1004940, Note_on_c, 0, 80, 50
3, 1004940, Note_on_c, 0, 84, 50
3, 1004940, Note_on_c, 0, 68, 64
3, 1004940, Note_on_c, 0, 72, 64
3, 1005103, Note_on_c, 0, 72, 0
3, 1005103, Note_on_c, 0, 84, 0
3, 1005103, Note_on_c, 0, 68, 0
3, 1005103, Note_on_c, 0, 80, 0
3, 1005120, Note_on_c, 0, 74, 35
3, 1005120, Note_on_c, 0, 62, 44
3, 1005283, Note_on_c, 0, 62, 0
3, 1005283, Note_on_c, 0, 74, 0
3, 1005300, Note_on_c, 0, 82, 48
3, 1005300, Note_on_c, 0, 70, 62
3, 1005463, Note_on_c, 0, 70, 0
3, 1005463, Note_on_c, 0, 82, 0
3, 1005480, Note_on_c, 0, 80, 47
3, 1005480, Note_on_c, 0, 84, 49
3, 1005480, Note_on_c, 0, 68, 62
3, 1005480, Note_on_c, 0, 72, 58
3, 1005643, Note_on_c, 0, 72, 0
3, 1005643, Note_on_c, 0, 84, 0
3, 1005643, Note_on_c, 0, 68, 0
3, 1005643, Note_on_c, 0, 80, 0
3, 1005660, Note_on_c, 0, 86, 34
3, 1005660, Note_on_c, 0, 74, 55
3, 1005823, Note_on_c, 0, 74, 0
3, 1005823, Note_on_c, 0, 86, 0
3, 1005840, Note_on_c, 0, 94, 49
3, 1005840, Note_on_c, 0, 82, 62
3, 1006003, Note_on_c, 0, 82, 0
3, 1006003, Note_on_c, 0, 94, 0
3, 1006020, Note_on_c, 0, 92, 49
3, 1006020, Note_on_c, 0, 96, 50
3, 1006020, Note_on_c, 0, 80, 53
3, 1006183, Note_on_c, 0, 80, 0
3, 1006183, Note_on_c, 0, 96, 0
3, 1006183, Note_on_c, 0, 92, 0
3, 1006200, Note_on_c, 0, 84, 35
3, 1006200, Note_on_c, 0, 72, 42
3, 1006363, Note_on_c, 0, 72, 0
3, 1006363, Note_on_c, 0, 84, 0
3, 1006380, Note_on_c, 0, 92, 52
3, 1006380, Note_on_c, 0, 96, 51
3, 1006380, Note_on_c, 0, 80, 61
3, 1006543, Note_on_c, 0, 80, 0
3, 1006543, Note_on_c, 0, 96, 0
3, 1006543, Note_on_c, 0, 92, 0
3, 1006560, Note_on_c, 0, 89, 61
3, 1006560, Note_on_c, 0, 77, 76
3, 1006740, Note_on_c, 0, 92, 40
3, 1006740, Note_on_c, 0, 96, 40
3, 1006740, Note_on_c, 0, 80, 47
3, 1006903, Note_on_c, 0, 80, 0
3, 1006903, Note_on_c, 0, 92, 0
3, 1006903, Note_on_c, 0, 96, 0
3, 1006920, Note_on_c, 0, 84, 34
3, 1006920, Note_on_c, 0, 72, 40
3, 1007083, Note_on_c, 0, 72, 0
3, 1007083, Note_on_c, 0, 84, 0
3, 1007100, Note_on_c, 0, 92, 56
3, 1007100, Note_on_c, 0, 96, 54
3, 1007100, Note_on_c, 0, 80, 65
3, 1007263, Note_on_c, 0, 80, 0
3, 1007263, Note_on_c, 0, 92, 0
3, 1007263, Note_on_c, 0, 96, 0
3, 1007280, Note_on_c, 0, 84, 36
3, 1007280, Note_on_c, 0, 72, 42
3, 1007443, Note_on_c, 0, 72, 0
3, 1007443, Note_on_c, 0, 84, 0
3, 1007460, Note_on_c, 0, 92, 50
3, 1007460, Note_on_c, 0, 96, 51
3, 1007460, Note_on_c, 0, 80, 59
3, 1007570, Note_on_c, 0, 77, 0
3, 1007570, Note_on_c, 0, 89, 0
3, 1007623, Note_on_c, 0, 92, 0
3, 1007623, Note_on_c, 0, 96, 0
3, 1007623, Note_on_c, 0, 80, 0
3, 1007640, Note_on_c, 0, 87, 67
3, 1007640, Note_on_c, 0, 75, 77
3, 1007820, Note_on_c, 0, 92, 40
3, 1007820, Note_on_c, 0, 96, 37
3, 1007820, Note_on_c, 0, 80, 50
3, 1007983, Note_on_c, 0, 80, 0
3, 1007983, Note_on_c, 0, 92, 0
3, 1007983, Note_on_c, 0, 96, 0
3, 1008000, Note_on_c, 0, 84, 32
3, 1008000, Note_on_c, 0, 72, 41
3, 1008163, Note_on_c, 0, 72, 0
3, 1008163, Note_on_c, 0, 84, 0
3, 1008180, Note_on_c, 0, 92, 52
3, 1008180, Note_on_c, 0, 96, 54
3, 1008180, Note_on_c, 0, 80, 61
3, 1008343, Note_on_c, 0, 80, 0
3, 1008343, Note_on_c, 0, 92, 0
3, 1008343, Note_on_c, 0, 96, 0
3, 1008360, Note_on_c, 0, 84, 32
3, 1008360, Note_on_c, 0, 72, 44
3, 1008523, Note_on_c, 0, 72, 0
3, 1008523, Note_on_c, 0, 84, 0
3, 1008540, Note_on_c, 0, 92, 50
3, 1008540, Note_on_c, 0, 96, 52
3, 1008540, Note_on_c, 0, 80, 60
3, 1008650, Note_on_c, 0, 75, 0
3, 1008650, Note_on_c, 0, 87, 0
3, 1008703, Note_on_c, 0, 92, 0
3, 1008703, Note_on_c, 0, 96, 0
3, 1008703, Note_on_c, 0, 80, 0
3, 1008720, Note_on_c, 0, 89, 72
3, 1008720, Note_on_c, 0, 77, 84
3, 1008900, Note_on_c, 0, 92, 39
3, 1008900, Note_on_c, 0, 96, 40
3, 1008900, Note_on_c, 0, 80, 49
3, 1009063, Note_on_c, 0, 80, 0
3, 1009063, Note_on_c, 0, 92, 0
3, 1009063, Note_on_c, 0, 96, 0
3, 1009080, Note_on_c, 0, 84, 31
3, 1009080, Note_on_c, 0, 72, 41
3, 1009243, Note_on_c, 0, 72, 0
3, 1009243, Note_on_c, 0, 84, 0
3, 1009260, Note_on_c, 0, 92, 54
3, 1009260, Note_on_c, 0, 96, 55
3, 1009260, Note_on_c, 0, 80, 62
3, 1009423, Note_on_c, 0, 80, 0
3, 1009423, Note_on_c, 0, 92, 0
3, 1009423, Note_on_c, 0, 96, 0
3, 1009440, Note_on_c, 0, 84, 33
3, 1009440, Note_on_c, 0, 72, 43
3, 1009603, Note_on_c, 0, 72, 0
3, 1009603, Note_on_c, 0, 84, 0
3, 1009620, Note_on_c, 0, 92, 50
3, 1009620, Note_on_c, 0, 96, 50
3, 1009620, Note_on_c, 0, 80, 60
3, 1009730, Note_on_c, 0, 77, 0
3, 1009730, Note_on_c, 0, 89, 0
3, 1009783, Note_on_c, 0, 92, 0
3, 1009783, Note_on_c, 0, 96, 0
3, 1009783, Note_on_c, 0, 80, 0
3, 1009800, Note_on_c, 0, 87, 66
3, 1009800, Note_on_c, 0, 75, 78
3, 1009980, Note_on_c, 0, 92, 38
3, 1009980, Note_on_c, 0, 96, 40
3, 1009980, Note_on_c, 0, 80, 48
3, 1010143, Note_on_c, 0, 80, 0
3, 1010143, Note_on_c, 0, 92, 0
3, 1010143, Note_on_c, 0, 96, 0
3, 1010160, Note_on_c, 0, 84, 30
3, 1010160, Note_on_c, 0, 72, 41
3, 1010323, Note_on_c, 0, 72, 0
3, 1010323, Note_on_c, 0, 84, 0
3, 1010340, Note_on_c, 0, 92, 55
3, 1010340, Note_on_c, 0, 96, 53
3, 1010340, Note_on_c, 0, 80, 64
3, 1010503, Note_on_c, 0, 80, 0
3, 1010503, Note_on_c, 0, 92, 0
3, 1010503, Note_on_c, 0, 96, 0
3, 1010520, Note_on_c, 0, 84, 35
3, 1010520, Note_on_c, 0, 72, 43
3, 1010683, Note_on_c, 0, 72, 0
3, 1010683, Note_on_c, 0, 84, 0
3, 1010700, Note_on_c, 0, 92, 50
3, 1010700, Note_on_c, 0, 96, 51
3, 1010700, Note_on_c, 0, 80, 61
3, 1010810, Note_on_c, 0, 75, 0
3, 1010810, Note_on_c, 0, 87, 0
3, 1010863, Note_on_c, 0, 92, 0
3, 1010863, Note_on_c, 0, 96, 0
3, 1010863, Note_on_c, 0, 80, 0
3, 1010880, Note_on_c, 0, 89, 75
3, 1010880, Note_on_c, 0, 77, 84
3, 1011060, Note_on_c, 0, 92, 40
3, 1011060, Note_on_c, 0, 96, 39
3, 1011060, Note_on_c, 0, 80, 46
3, 1011223, Note_on_c, 0, 80, 0
3, 1011223, Note_on_c, 0, 92, 0
3, 1011223, Note_on_c, 0, 96, 0
3, 1011240, Note_on_c, 0, 84, 33
3, 1011240, Note_on_c, 0, 72, 41
3, 1011403, Note_on_c, 0, 72, 0
3, 1011403, Note_on_c, 0, 84, 0
3, 1011420, Note_on_c, 0, 92, 52
3, 1011420, Note_on_c, 0, 96, 54
3, 1011420, Note_on_c, 0, 80, 62
3, 1011583, Note_on_c, 0, 80, 0
3, 1011583, Note_on_c, 0, 92, 0
3, 1011583, Note_on_c, 0, 96, 0
3, 1011600, Note_on_c, 0, 84, 35
3, 1011600, Note_on_c, 0, 72, 42
3, 1011763, Note_on_c, 0, 72, 0
3, 1011763, Note_on_c, 0, 84, 0
3, 1011780, Note_on_c, 0, 92, 51
3, 1011780, Note_on_c, 0, 96, 52
3, 1011780, Note_on_c, 0, 80, 61
3, 1011890, Note_on_c, 0, 77, 0
3, 1011890, Note_on_c, 0, 89, 0
3, 1011943, Note_on_c, 0, 92, 0
3, 1011943, Note_on_c, 0, 96, 0
3, 1011943, Note_on_c, 0, 80, 0
3, 1011960, Note_on_c, 0, 87, 67
3, 1011960, Note_on_c, 0, 75, 78
3, 1012140, Note_on_c, 0, 92, 38
3, 1012140, Note_on_c, 0, 96, 41
3, 1012140, Note_on_c, 0, 80, 49
3, 1012303, Note_on_c, 0, 80, 0
3, 1012303, Note_on_c, 0, 92, 0
3, 1012303, Note_on_c, 0, 96, 0
3, 1012320, Note_on_c, 0, 84, 30
3, 1012320, Note_on_c, 0, 72, 41
3, 1012483, Note_on_c, 0, 72, 0
3, 1012483, Note_on_c, 0, 84, 0
3, 1012500, Note_on_c, 0, 92, 54
3, 1012500, Note_on_c, 0, 96, 55
3, 1012500, Note_on_c, 0, 80, 63
3, 1012663, Note_on_c, 0, 80, 0
3, 1012663, Note_on_c, 0, 92, 0
3, 1012663, Note_on_c, 0, 96, 0
3, 1012680, Note_on_c, 0, 84, 32
3, 1012680, Note_on_c, 0, 72, 43
3, 1012843, Note_on_c, 0, 72, 0
3, 1012843, Note_on_c, 0, 84, 0
3, 1012860, Note_on_c, 0, 92, 53
3, 1012860, Note_on_c, 0, 96, 53
3, 1012860, Note_on_c, 0, 80, 58
3, 1012970, Note_on_c, 0, 75, 0
3, 1012970, Note_on_c, 0, 87, 0
3, 1013023, Note_on_c, 0, 92, 0
3, 1013023, Note_on_c, 0, 96, 0
3, 1013023, Note_on_c, 0, 80, 0
3, 1013040, Note_on_c, 0, 84, 37
3, 1013040, Note_on_c, 0, 72, 46
3, 1013203, Note_on_c, 0, 72, 0
3, 1013203, Note_on_c, 0, 84, 0
3, 1013220, Note_on_c, 0, 92, 53
3, 1013220, Note_on_c, 0, 96, 51
3, 1013220, Note_on_c, 0, 80, 59
3, 1013383, Note_on_c, 0, 80, 0
3, 1013383, Note_on_c, 0, 96, 0
3, 1013383, Note_on_c, 0, 92, 0
3, 1013400, Note_on_c, 0, 84, 33
3, 1013400, Note_on_c, 0, 72, 42
3, 1013563, Note_on_c, 0, 72, 0
3, 1013563, Note_on_c, 0, 84, 0
3, 1013580, Note_on_c, 0, 92, 52
3, 1013580, Note_on_c, 0, 96, 52
3, 1013580, Note_on_c, 0, 80, 62
3, 1013743, Note_on_c, 0, 80, 0
3, 1013743, Note_on_c, 0, 96, 0
3, 1013743, Note_on_c, 0, 92, 0
3, 1013760, Note_on_c, 0, 84, 34
3, 1013760, Note_on_c, 0, 72, 44
3, 1013923, Note_on_c, 0, 72, 0
3, 1013923, Note_on_c, 0, 84, 0
3, 1013940, Note_on_c, 0, 92, 53
3, 1013940, Note_on_c, 0, 96, 49
3, 1013940, Note_on_c, 0, 80, 59
3, 1014103, Note_on_c, 0, 80, 0
3, 1014103, Note_on_c, 0, 96, 0
3, 1014103, Note_on_c, 0, 92, 0
3, 1014120, Note_on_c, 0, 86, 66
3, 1014120, Note_on_c, 0, 86, 40
3, 1014120, Note_on_c, 0, 74, 77
3, 1014120, Note_on_c, 0, 74, 50
3, 1014283, Note_on_c, 0, 74, 0
3, 1014283, Note_on_c, 0, 86, 0
3, 1014300, Note_on_c, 0, 92, 52
3, 1014300, Note_on_c, 0, 96, 51
3, 1014300, Note_on_c, 0, 80, 57
3, 1014463, Note_on_c, 0, 80, 0
3, 1014463, Note_on_c, 0, 92, 0
3, 1014463, Note_on_c, 0, 96, 0
3, 1014480, Note_on_c, 0, 84, 33
3, 1014480, Note_on_c, 0, 72, 44
3, 1014607, Note_on_c, 0, 86, 0
3, 1014607, Note_on_c, 0, 74, 0
3, 1014643, Note_on_c, 0, 72, 0
3, 1014643, Note_on_c, 0, 84, 0
3, 1014660, Note_on_c, 0, 86, 42
3, 1014660, Note_on_c, 0, 86, 44
3, 1014660, Note_on_c, 0, 74, 51
3, 1014660, Note_on_c, 0, 74, 55
3, 1014823, Note_on_c, 0, 74, 0
3, 1014823, Note_on_c, 0, 86, 0
3, 1014840, Note_on_c, 0, 91, 50
3, 1014840, Note_on_c, 0, 95, 52
3, 1014840, Note_on_c, 0, 79, 57
3, 1015003, Note_on_c, 0, 79, 0
3, 1015003, Note_on_c, 0, 91, 0
3, 1015003, Note_on_c, 0, 95, 0
3, 1015020, Note_on_c, 0, 83, 33
3, 1015147, Note_on_c, 0, 86, 0
3, 1015147, Note_on_c, 0, 74, 0
3, 1015183, Note_on_c, 0, 83, 0
3, 1015200, Note_on_c, 0, 84, 56
3, 1015200, Note_on_c, 0, 87, 56
3, 1015200, Note_on_c, 0, 91, 54
3, 1015200, Note_on_c, 0, 96, 53
3, 1015200, Note_on_c, 0, 63, 56
3, 1015200, Note_on_c, 0, 67, 60
3, 1015200, Note_on_c, 0, 72, 60
3, 1015200, Note_on_c, 0, 75, 57
3, 1015525, Note_on_c, 0, 75, 0
3, 1015525, Note_on_c, 0, 91, 0
3, 1015525, Note_on_c, 0, 72, 0
3, 1015525, Note_on_c, 0, 96, 0
3, 1015525, Note_on_c, 0, 84, 0
3, 1015525, Note_on_c, 0, 87, 0
3, 1015525, Note_on_c, 0, 67, 0
3, 1015525, Note_on_c, 0, 63, 0
3, 1015740, Note_on_c, 0, 55, 43
3, 1015740, Note_on_c, 0, 43, 50
3, 1015903, Note_on_c, 0, 43, 0
3, 1015903, Note_on_c, 0, 55, 0
3, 1015920, Note_on_c, 0, 56, 46
3, 1015920, Note_on_c, 0, 44, 56
3, 1016083, Note_on_c, 0, 44, 0
3, 1016083, Note_on_c, 0, 56, 0
3, 1016100, Note_on_c, 0, 55, 43
3, 1016100, Note_on_c, 0, 43, 50
3, 1016263, Note_on_c, 0, 43, 0
3, 1016263, Note_on_c, 0, 55, 0
3, 1016280, Note_on_c, 0, 60, 77
3, 1016280, Note_on_c, 0, 36, 89
3, 1016280, Note_on_c, 0, 48, 91
3, 1018370, Note_on_c, 0, 48, 0
3, 1018370, Note_on_c, 0, 36, 0
3, 1018370, Note_on_c, 0, 60, 0
3, 1018440, Note_on_c, 0, 55, 83
3, 1018440, Note_on_c, 0, 67, 82
3, 1018440, Note_on_c, 0, 31, 73
3, 1018440, Note_on_c, 0, 43, 72
3, 1019450, Note_on_c, 0, 43, 0
3, 1019450, Note_on_c, 0, 67, 0
3, 1019450, Note_on_c, 0, 31, 0
3, 1019450, Note_on_c, 0, 55, 0
3, 1019520, Note_on_c, 0, 48, 39
3, 1019520, Note_on_c, 0, 60, 38
3, 1019520, Note_on_c, 0, 24, 66
3, 1019520, Note_on_c, 0, 36, 66
3, 1019845, Note_on_c, 0, 36, 0
3, 1019845, Note_on_c, 0, 60, 0
3, 1019845, Note_on_c, 0, 24, 0
3, 1019845, Note_on_c, 0, 48, 0
3, 1020060, Note_on_c, 0, 43, 43
3, 1020060, Note_on_c, 0, 31, 52
3, 1020223, Note_on_c, 0, 31, 0
3, 1020223, Note_on_c, 0, 43, 0
3, 1020240, Note_on_c, 0, 44, 45
3, 1020240, Note_on_c, 0, 32, 54
3, 1020403, Note_on_c, 0, 32, 0
3, 1020403, Note_on_c, 0, 44, 0
3, 1020420, Note_on_c, 0, 43, 41
3, 1020420, Note_on_c, 0, 31, 51
3, 1020583, Note_on_c, 0, 31, 0
3, 1020583, Note_on_c, 0, 43, 0
3, 1020600, Note_on_c, 0, 48, 51
3, 1020600, Note_on_c, 0, 24, 62
3, 1020600, Note_on_c, 0, 36, 62
3, 1022690, Note_on_c, 0, 36, 0
3, 1022690, Note_on_c, 0, 24, 0
3, 1022690, Note_on_c, 0, 48, 0
3, 1022760, Note_on_c, 0, 55, 81
3, 1022760, Note_on_c, 0, 31, 93
3, 1022760, Note_on_c, 0, 43, 95
3, 1023770, Note_on_c, 0, 43, 0
3, 1023770, Note_on_c, 0, 31, 0
3, 1023770, Note_on_c, 0, 55, 0
3, 1023840, Note_on_c, 0, 48, 38
3, 1023840, Note_on_c, 0, 36, 53
3, 1024327, Note_on_c, 0, 48, 0
3, 1024380, Note_on_c, 0, 36, 0
3, 1024380, Note_on_c, 0, 63, 55
3, 1024380, Note_on_c, 0, 51, 66
3, 1024543, Note_on_c, 0, 51, 0
3, 1024543, Note_on_c, 0, 63, 0
3, 1024560, Note_on_c, 0, 62, 42
3, 1024560, Note_on_c, 0, 50, 55
3, 1024723, Note_on_c, 0, 50, 0
3, 1024723, Note_on_c, 0, 62, 0
3, 1024740, Note_on_c, 0, 63, 42
3, 1024740, Note_on_c, 0, 51, 54
3, 1024903, Note_on_c, 0, 51, 0
3, 1024903, Note_on_c, 0, 63, 0
3, 1024920, Note_on_c, 0, 65, 50
3, 1024920, Note_on_c, 0, 53, 57
3, 1025083, Note_on_c, 0, 53, 0
3, 1025083, Note_on_c, 0, 65, 0
3, 1025100, Note_on_c, 0, 63, 41
3, 1025100, Note_on_c, 0, 51, 51
3, 1025263, Note_on_c, 0, 51, 0
3, 1025263, Note_on_c, 0, 63, 0
3, 1025280, Note_on_c, 0, 65, 45
3, 1025280, Note_on_c, 0, 53, 55
3, 1025443, Note_on_c, 0, 53, 0
3, 1025443, Note_on_c, 0, 65, 0
3, 1025460, Note_on_c, 0, 60, 71
3, 1025460, Note_on_c, 0, 63, 72
3, 1025460, Note_on_c, 0, 67, 72
3, 1025460, Note_on_c, 0, 48, 83
3, 1025460, Note_on_c, 0, 51, 81
3, 1025460, Note_on_c, 0, 55, 85
3, 1025785, Note_on_c, 0, 55, 0
3, 1025785, Note_on_c, 0, 48, 0
3, 1025785, Note_on_c, 0, 60, 0
3, 1025785, Note_on_c, 0, 63, 0
3, 1025785, Note_on_c, 0, 67, 0
3, 1025785, Note_on_c, 0, 51, 0
3, 1026180, Note_on_c, 0, 60, 41
3, 1026180, Note_on_c, 0, 48, 47
3, 1026343, Note_on_c, 0, 48, 0
3, 1026343, Note_on_c, 0, 60, 0
3, 1026360, Note_on_c, 0, 62, 46
3, 1026360, Note_on_c, 0, 50, 57
3, 1026523, Note_on_c, 0, 50, 0
3, 1026523, Note_on_c, 0, 62, 0
3, 1026540, Note_on_c, 0, 63, 49
3, 1026540, Note_on_c, 0, 51, 56
3, 1026703, Note_on_c, 0, 51, 0
3, 1026703, Note_on_c, 0, 63, 0
3, 1026720, Note_on_c, 0, 62, 40
3, 1026720, Note_on_c, 0, 50, 53
3, 1026883, Note_on_c, 0, 50, 0
3, 1026883, Note_on_c, 0, 62, 0
3, 1026900, Note_on_c, 0, 63, 44
3, 1026900, Note_on_c, 0, 51, 53
3, 1027063, Note_on_c, 0, 51, 0
3, 1027063, Note_on_c, 0, 63, 0
3, 1027080, Note_on_c, 0, 65, 49
3, 1027080, Note_on_c, 0, 53, 58
3, 1027243, Note_on_c, 0, 53, 0
3, 1027243, Note_on_c, 0, 65, 0
3, 1027260, Note_on_c, 0, 63, 38
3, 1027260, Note_on_c, 0, 51, 49
3, 1027423, Note_on_c, 0, 51, 0
3, 1027423, Note_on_c, 0, 63, 0
3, 1027440, Note_on_c, 0, 65, 45
3, 1027440, Note_on_c, 0, 53, 54
3, 1027603, Note_on_c, 0, 53, 0
3, 1027603, Note_on_c, 0, 65, 0
3, 1027620, Note_on_c, 0, 60, 74
3, 1027620, Note_on_c, 0, 63, 70
3, 1027620, Note_on_c, 0, 67, 72
3, 1027620, Note_on_c, 0, 48, 84
3, 1027620, Note_on_c, 0, 51, 85
3, 1027620, Note_on_c, 0, 55, 83
3, 1027945, Note_on_c, 0, 55, 0
3, 1027945, Note_on_c, 0, 48, 0
3, 1027945, Note_on_c, 0, 60, 0
3, 1027945, Note_on_c, 0, 63, 0
3, 1027945, Note_on_c, 0, 67, 0
3, 1027945, Note_on_c, 0, 51, 0
3, 1028700, Note_on_c, 0, 63, 40
3, 1028700, Note_on_c, 0, 55, 49
3, 1028863, Note_on_c, 0, 55, 0
3, 1028863, Note_on_c, 0, 63, 0
3, 1028880, Note_on_c, 0, 62, 39
3, 1028880, Note_on_c, 0, 60, 60
3, 1029043, Note_on_c, 0, 60, 0
3, 1029043, Note_on_c, 0, 62, 0
3, 1029060, Note_on_c, 0, 63, 44
3, 1029223, Note_on_c, 0, 63, 0
3, 1029240, Note_on_c, 0, 65, 48
3, 1029240, Note_on_c, 0, 53, 49
3, 1029403, Note_on_c, 0, 53, 0
3, 1029403, Note_on_c, 0, 65, 0
3, 1029420, Note_on_c, 0, 63, 40
3, 1029420, Note_on_c, 0, 60, 58
3, 1029583, Note_on_c, 0, 60, 0
3, 1029583, Note_on_c, 0, 63, 0
3, 1029600, Note_on_c, 0, 65, 44
3, 1029763, Note_on_c, 0, 65, 0
3, 1029780, Note_on_c, 0, 63, 44
3, 1029780, Note_on_c, 0, 55, 51
3, 1029943, Note_on_c, 0, 55, 0
3, 1029943, Note_on_c, 0, 63, 0
3, 1029960, Note_on_c, 0, 65, 47
3, 1029960, Note_on_c, 0, 60, 59
3, 1030123, Note_on_c, 0, 60, 0
3, 1030123, Note_on_c, 0, 65, 0
3, 1030140, Note_on_c, 0, 63, 41
3, 1030303, Note_on_c, 0, 63, 0
3, 1030320, Note_on_c, 0, 65, 48
3, 1030320, Note_on_c, 0, 53, 51
3, 1030483, Note_on_c, 0, 53, 0
3, 1030483, Note_on_c, 0, 65, 0
3, 1030500, Note_on_c, 0, 63, 41
3, 1030500, Note_on_c, 0, 60, 59
3, 1030663, Note_on_c, 0, 60, 0
3, 1030663, Note_on_c, 0, 63, 0
3, 1030680, Note_on_c, 0, 65, 46
3, 1030843, Note_on_c, 0, 65, 0
3, 1030860, Note_on_c, 0, 67, 46
3, 1030860, Note_on_c, 0, 55, 51
3, 1031023, Note_on_c, 0, 55, 0
3, 1031023, Note_on_c, 0, 67, 0
3, 1031040, Note_on_c, 0, 65, 41
3, 1031040, Note_on_c, 0, 59, 59
3, 1031203, Note_on_c, 0, 59, 0
3, 1031203, Note_on_c, 0, 65, 0
3, 1031220, Note_on_c, 0, 67, 44
3, 1031220, Note_on_c, 0, 55, 48
3, 1031383, Note_on_c, 0, 55, 0
3, 1031383, Note_on_c, 0, 67, 0
3, 1031400, Note_on_c, 0, 72, 52
3, 1031400, Note_on_c, 0, 60, 61
3, 1031725, Note_on_c, 0, 60, 0
3, 1031725, Note_on_c, 0, 72, 0
3, 1033020, Note_on_c, 0, 74, 44
3, 1033020, Note_on_c, 0, 62, 51
3, 1033183, Note_on_c, 0, 62, 0
3, 1033183, Note_on_c, 0, 74, 0
3, 1033200, Note_on_c, 0, 75, 42
3, 1033200, Note_on_c, 0, 63, 55
3, 1033363, Note_on_c, 0, 63, 0
3, 1033363, Note_on_c, 0, 75, 0
3, 1033380, Note_on_c, 0, 77, 45
3, 1033380, Note_on_c, 0, 65, 57
3, 1033543, Note_on_c, 0, 65, 0
3, 1033543, Note_on_c, 0, 77, 0
3, 1033560, Note_on_c, 0, 79, 77
3, 1033560, Note_on_c, 0, 67, 88
3, 1033723, Note_on_c, 0, 67, 0
3, 1033723, Note_on_c, 0, 79, 0
3, 1033740, Note_on_c, 0, 80, 43
3, 1033740, Note_on_c, 0, 68, 56
3, 1033903, Note_on_c, 0, 68, 0
3, 1033903, Note_on_c, 0, 80, 0
3, 1033920, Note_on_c, 0, 79, 41
3, 1033920, Note_on_c, 0, 67, 50
3, 1034083, Note_on_c, 0, 67, 0
3, 1034083, Note_on_c, 0, 79, 0
3, 1034100, Note_on_c, 0, 80, 49
3, 1034100, Note_on_c, 0, 68, 59
3, 1034263, Note_on_c, 0, 68, 0
3, 1034263, Note_on_c, 0, 80, 0
3, 1034280, Note_on_c, 0, 79, 40
3, 1034280, Note_on_c, 0, 67, 51
3, 1034443, Note_on_c, 0, 67, 0
3, 1034443, Note_on_c, 0, 79, 0
3, 1034460, Note_on_c, 0, 80, 45
3, 1034460, Note_on_c, 0, 68, 56
3, 1034623, Note_on_c, 0, 68, 0
3, 1034623, Note_on_c, 0, 80, 0
3, 1034640, Note_on_c, 0, 79, 42
3, 1034640, Note_on_c, 0, 67, 53
3, 1034803, Note_on_c, 0, 67, 0
3, 1034803, Note_on_c, 0, 79, 0
3, 1034820, Note_on_c, 0, 80, 44
3, 1034820, Note_on_c, 0, 68, 54
3, 1034983, Note_on_c, 0, 68, 0
3, 1034983, Note_on_c, 0, 80, 0
3, 1035000, Note_on_c, 0, 79, 40
3, 1035000, Note_on_c, 0, 67, 50
3, 1035163, Note_on_c, 0, 67, 0
3, 1035163, Note_on_c, 0, 79, 0
3, 1035180, Note_on_c, 0, 79, 71
3, 1035180, Note_on_c, 0, 67, 80
3, 1035343, Note_on_c, 0, 67, 0
3, 1035343, Note_on_c, 0, 79, 0
3, 1035360, Note_on_c, 0, 77, 41
3, 1035360, Note_on_c, 0, 65, 50
3, 1035523, Note_on_c, 0, 65, 0
3, 1035523, Note_on_c, 0, 77, 0
3, 1035540, Note_on_c, 0, 75, 39
3, 1035540, Note_on_c, 0, 63, 49
3, 1035703, Note_on_c, 0, 63, 0
3, 1035703, Note_on_c, 0, 75, 0
3, 1035720, Note_on_c, 0, 77, 73
3, 1035720, Note_on_c, 0, 65, 83
3, 1035883, Note_on_c, 0, 65, 0
3, 1035883, Note_on_c, 0, 77, 0
3, 1035900, Note_on_c, 0, 75, 42
3, 1035900, Note_on_c, 0, 63, 52
3, 1036063, Note_on_c, 0, 63, 0
3, 1036063, Note_on_c, 0, 75, 0
3, 1036080, Note_on_c, 0, 74, 39
3, 1036080, Note_on_c, 0, 62, 49
3, 1036243, Note_on_c, 0, 62, 0
3, 1036243, Note_on_c, 0, 74, 0
3, 1036260, Note_on_c, 0, 74, 71
3, 1036260, Note_on_c, 0, 62, 55
3, 1036423, Note_on_c, 0, 62, 0
3, 1036423, Note_on_c, 0, 74, 0
3, 1036440, Note_on_c, 0, 72, 41
3, 1036440, Note_on_c, 0, 60, 52
3, 1036603, Note_on_c, 0, 60, 0
3, 1036603, Note_on_c, 0, 72, 0
3, 1036620, Note_on_c, 0, 71, 41
3, 1036620, Note_on_c, 0, 59, 48
3, 1036783, Note_on_c, 0, 59, 0
3, 1036783, Note_on_c, 0, 71, 0
3, 1036800, Note_on_c, 0, 67, 64
3, 1036800, Note_on_c, 0, 55, 71
3, 1036963, Note_on_c, 0, 55, 0
3, 1036963, Note_on_c, 0, 67, 0
3, 1037160, Note_on_c, 0, 66, 40
3, 1037160, Note_on_c, 0, 54, 49
3, 1037323, Note_on_c, 0, 54, 0
3, 1037323, Note_on_c, 0, 66, 0
3, 1037340, Note_on_c, 0, 67, 47
3, 1037340, Note_on_c, 0, 55, 59
3, 1037503, Note_on_c, 0, 55, 0
3, 1037503, Note_on_c, 0, 67, 0
3, 1037520, Note_on_c, 0, 69, 45
3, 1037520, Note_on_c, 0, 57, 55
3, 1037683, Note_on_c, 0, 57, 0
3, 1037683, Note_on_c, 0, 69, 0
3, 1037700, Note_on_c, 0, 71, 43
3, 1037700, Note_on_c, 0, 59, 55
3, 1037863, Note_on_c, 0, 59, 0
3, 1037863, Note_on_c, 0, 71, 0
3, 1037880, Note_on_c, 0, 66, 41
3, 1037880, Note_on_c, 0, 54, 48
3, 1038043, Note_on_c, 0, 54, 0
3, 1038043, Note_on_c, 0, 66, 0
3, 1038240, Note_on_c, 0, 65, 38
3, 1038240, Note_on_c, 0, 53, 48
3, 1038403, Note_on_c, 0, 53, 0
3, 1038403, Note_on_c, 0, 65, 0
3, 1038420, Note_on_c, 0, 66, 46
3, 1038420, Note_on_c, 0, 54, 58
3, 1038583, Note_on_c, 0, 54, 0
3, 1038583, Note_on_c, 0, 66, 0
3, 1038600, Note_on_c, 0, 67, 45
3, 1038600, Note_on_c, 0, 55, 54
3, 1038763, Note_on_c, 0, 55, 0
3, 1038763, Note_on_c, 0, 67, 0
3, 1038780, Note_on_c, 0, 69, 44
3, 1038780, Note_on_c, 0, 57, 55
3, 1038943, Note_on_c, 0, 57, 0
3, 1038943, Note_on_c, 0, 69, 0
3, 1038960, Note_on_c, 0, 67, 43
3, 1038960, Note_on_c, 0, 55, 52
3, 1039123, Note_on_c, 0, 55, 0
3, 1039123, Note_on_c, 0, 67, 0
3, 1039320, Note_on_c, 0, 66, 39
3, 1039320, Note_on_c, 0, 54, 47
3, 1039483, Note_on_c, 0, 54, 0
3, 1039483, Note_on_c, 0, 66, 0
3, 1039500, Note_on_c, 0, 67, 49
3, 1039500, Note_on_c, 0, 55, 58
3, 1039663, Note_on_c, 0, 55, 0
3, 1039663, Note_on_c, 0, 67, 0
3, 1039680, Note_on_c, 0, 69, 46
3, 1039680, Note_on_c, 0, 57, 54
3, 1039843, Note_on_c, 0, 57, 0
3, 1039843, Note_on_c, 0, 69, 0
3, 1039860, Note_on_c, 0, 70, 45
3, 1039860, Note_on_c, 0, 58, 54
3, 1040023, Note_on_c, 0, 58, 0
3, 1040023, Note_on_c, 0, 70, 0
3, 1040040, Note_on_c, 0, 67, 41
3, 1040040, Note_on_c, 0, 55, 51
3, 1040203, Note_on_c, 0, 55, 0
3, 1040203, Note_on_c, 0, 67, 0
3, 1040220, Note_on_c, 0, 69, 43
3, 1040220, Note_on_c, 0, 57, 54
3, 1040383, Note_on_c, 0, 57, 0
3, 1040383, Note_on_c, 0, 69, 0
3, 1040400, Note_on_c, 0, 70, 44
3, 1040400, Note_on_c, 0, 58, 53
3, 1040563, Note_on_c, 0, 58, 0
3, 1040563, Note_on_c, 0, 70, 0
3, 1040580, Note_on_c, 0, 71, 48
3, 1040580, Note_on_c, 0, 59, 57
3, 1040743, Note_on_c, 0, 59, 0
3, 1040743, Note_on_c, 0, 71, 0
3, 1040760, Note_on_c, 0, 72, 44
3, 1040760, Note_on_c, 0, 60, 56
3, 1040923, Note_on_c, 0, 60, 0
3, 1040923, Note_on_c, 0, 72, 0
3, 1040940, Note_on_c, 0, 74, 44
3, 1040940, Note_on_c, 0, 62, 57
3, 1041103, Note_on_c, 0, 62, 0
3, 1041103, Note_on_c, 0, 74, 0
3, 1041120, Note_on_c, 0, 70, 41
3, 1041120, Note_on_c, 0, 58, 52
3, 1041209, Note_on_c, 0, 58, 0
3, 1041209, Note_on_c, 0, 70, 0
3, 1041660, Note_on_c, 0, 77, 41
3, 1041660, Note_on_c, 0, 65, 50
3, 1041823, Note_on_c, 0, 65, 0
3, 1041823, Note_on_c, 0, 77, 0
3, 1041840, Note_on_c, 0, 78, 43
3, 1041840, Note_on_c, 0, 66, 53
3, 1042003, Note_on_c, 0, 66, 0
3, 1042003, Note_on_c, 0, 78, 0
3, 1042020, Note_on_c, 0, 80, 44
3, 1042020, Note_on_c, 0, 68, 56
3, 1042183, Note_on_c, 0, 68, 0
3, 1042183, Note_on_c, 0, 80, 0
3, 1042200, Note_on_c, 0, 82, 76
3, 1042200, Note_on_c, 0, 70, 87
3, 1042363, Note_on_c, 0, 70, 0
3, 1042363, Note_on_c, 0, 82, 0
3, 1042380, Note_on_c, 0, 83, 43
3, 1042380, Note_on_c, 0, 71, 53
3, 1042543, Note_on_c, 0, 71, 0
3, 1042543, Note_on_c, 0, 83, 0
3, 1042560, Note_on_c, 0, 82, 43
3, 1042560, Note_on_c, 0, 70, 50
3, 1042723, Note_on_c, 0, 70, 0
3, 1042723, Note_on_c, 0, 82, 0
3, 1042740, Note_on_c, 0, 83, 46
3, 1042740, Note_on_c, 0, 71, 56
3, 1042903, Note_on_c, 0, 71, 0
3, 1042903, Note_on_c, 0, 83, 0
3, 1042920, Note_on_c, 0, 82, 39
3, 1042920, Note_on_c, 0, 70, 53
3, 1043083, Note_on_c, 0, 70, 0
3, 1043083, Note_on_c, 0, 82, 0
3, 1043100, Note_on_c, 0, 83, 43
3, 1043100, Note_on_c, 0, 71, 55
3, 1043263, Note_on_c, 0, 71, 0
3, 1043263, Note_on_c, 0, 83, 0
3, 1043280, Note_on_c, 0, 82, 46
3, 1043280, Note_on_c, 0, 70, 56
3, 1043443, Note_on_c, 0, 70, 0
3, 1043443, Note_on_c, 0, 82, 0
3, 1043460, Note_on_c, 0, 83, 44
3, 1043460, Note_on_c, 0, 71, 57
3, 1043623, Note_on_c, 0, 71, 0
3, 1043623, Note_on_c, 0, 83, 0
3, 1043640, Note_on_c, 0, 82, 41
3, 1043640, Note_on_c, 0, 70, 51
3, 1043803, Note_on_c, 0, 70, 0
3, 1043803, Note_on_c, 0, 82, 0
3, 1043820, Note_on_c, 0, 82, 71
3, 1043820, Note_on_c, 0, 70, 80
3, 1043983, Note_on_c, 0, 70, 0
3, 1043983, Note_on_c, 0, 82, 0
3, 1044000, Note_on_c, 0, 80, 41
3, 1044000, Note_on_c, 0, 68, 49
3, 1044163, Note_on_c, 0, 68, 0
3, 1044163, Note_on_c, 0, 80, 0
3, 1044180, Note_on_c, 0, 78, 41
3, 1044180, Note_on_c, 0, 66, 48
3, 1044343, Note_on_c, 0, 66, 0
3, 1044343, Note_on_c, 0, 78, 0
3, 1044360, Note_on_c, 0, 80, 74
3, 1044360, Note_on_c, 0, 68, 83
3, 1044523, Note_on_c, 0, 68, 0
3, 1044523, Note_on_c, 0, 80, 0
3, 1044540, Note_on_c, 0, 78, 39
3, 1044540, Note_on_c, 0, 66, 49
3, 1044703, Note_on_c, 0, 66, 0
3, 1044703, Note_on_c, 0, 78, 0
3, 1044720, Note_on_c, 0, 77, 39
3, 1044720, Note_on_c, 0, 65, 52
3, 1044883, Note_on_c, 0, 65, 0
3, 1044883, Note_on_c, 0, 77, 0
3, 1044900, Note_on_c, 0, 77, 70
3, 1044900, Note_on_c, 0, 65, 79
3, 1045063, Note_on_c, 0, 65, 0
3, 1045063, Note_on_c, 0, 77, 0
3, 1045080, Note_on_c, 0, 75, 40
3, 1045080, Note_on_c, 0, 63, 49
3, 1045243, Note_on_c, 0, 63, 0
3, 1045243, Note_on_c, 0, 75, 0
3, 1045260, Note_on_c, 0, 74, 40
3, 1045260, Note_on_c, 0, 62, 49
3, 1045423, Note_on_c, 0, 62, 0
3, 1045423, Note_on_c, 0, 74, 0
3, 1045440, Note_on_c, 0, 70, 64
3, 1045440, Note_on_c, 0, 58, 70
3, 1045603, Note_on_c, 0, 58, 0
3, 1045603, Note_on_c, 0, 70, 0
3, 1045800, Note_on_c, 0, 69, 39
3, 1045800, Note_on_c, 0, 57, 50
3, 1045963, Note_on_c, 0, 57, 0
3, 1045963, Note_on_c, 0, 69, 0
3, 1045980, Note_on_c, 0, 70, 48
3, 1045980, Note_on_c, 0, 58, 56
3, 1046143, Note_on_c, 0, 58, 0
3, 1046143, Note_on_c, 0, 70, 0
3, 1046160, Note_on_c, 0, 72, 44
3, 1046160, Note_on_c, 0, 60, 57
3, 1046323, Note_on_c, 0, 60, 0
3, 1046323, Note_on_c, 0, 72, 0
3, 1046340, Note_on_c, 0, 74, 44
3, 1046340, Note_on_c, 0, 62, 58
3, 1046503, Note_on_c, 0, 62, 0
3, 1046503, Note_on_c, 0, 74, 0
3, 1046520, Note_on_c, 0, 69, 41
3, 1046520, Note_on_c, 0, 57, 49
3, 1046683, Note_on_c, 0, 57, 0
3, 1046683, Note_on_c, 0, 69, 0
3, 1046880, Note_on_c, 0, 68, 37
3, 1046880, Note_on_c, 0, 56, 50
3, 1047043, Note_on_c, 0, 56, 0
3, 1047043, Note_on_c, 0, 68, 0
3, 1047060, Note_on_c, 0, 69, 46
3, 1047060, Note_on_c, 0, 57, 57
3, 1047223, Note_on_c, 0, 57, 0
3, 1047223, Note_on_c, 0, 69, 0
3, 1047240, Note_on_c, 0, 70, 46
3, 1047240, Note_on_c, 0, 58, 56
3, 1047403, Note_on_c, 0, 58, 0
3, 1047403, Note_on_c, 0, 70, 0
3, 1047420, Note_on_c, 0, 72, 43
3, 1047420, Note_on_c, 0, 60, 56
3, 1047583, Note_on_c, 0, 60, 0
3, 1047583, Note_on_c, 0, 72, 0
3, 1047600, Note_on_c, 0, 70, 44
3, 1047600, Note_on_c, 0, 58, 51
3, 1047763, Note_on_c, 0, 58, 0
3, 1047763, Note_on_c, 0, 70, 0
3, 1047960, Note_on_c, 0, 69, 39
3, 1047960, Note_on_c, 0, 57, 49
3, 1048123, Note_on_c, 0, 57, 0
3, 1048123, Note_on_c, 0, 69, 0
3, 1048140, Note_on_c, 0, 70, 48
3, 1048140, Note_on_c, 0, 58, 55
3, 1048303, Note_on_c, 0, 58, 0
3, 1048303, Note_on_c, 0, 70, 0
3, 1048320, Note_on_c, 0, 72, 46
3, 1048320, Note_on_c, 0, 60, 55
3, 1048483, Note_on_c, 0, 60, 0
3, 1048483, Note_on_c, 0, 72, 0
3, 1048500, Note_on_c, 0, 73, 44
3, 1048500, Note_on_c, 0, 61, 57
3, 1048663, Note_on_c, 0, 61, 0
3, 1048663, Note_on_c, 0, 73, 0
3, 1048680, Note_on_c, 0, 70, 43
3, 1048680, Note_on_c, 0, 58, 52
3, 1048843, Note_on_c, 0, 58, 0
3, 1048843, Note_on_c, 0, 70, 0
3, 1048860, Note_on_c, 0, 69, 39
3, 1048860, Note_on_c, 0, 57, 51
3, 1049023, Note_on_c, 0, 57, 0
3, 1049023, Note_on_c, 0, 69, 0
3, 1049040, Note_on_c, 0, 70, 43
3, 1049040, Note_on_c, 0, 58, 53
3, 1049203, Note_on_c, 0, 58, 0
3, 1049203, Note_on_c, 0, 70, 0
3, 1049220, Note_on_c, 0, 72, 50
3, 1049220, Note_on_c, 0, 60, 58
3, 1049383, Note_on_c, 0, 60, 0
3, 1049383, Note_on_c, 0, 72, 0
3, 1049400, Note_on_c, 0, 73, 44
3, 1049400, Note_on_c, 0, 61, 53
3, 1049563, Note_on_c, 0, 61, 0
3, 1049563, Note_on_c, 0, 73, 0
3, 1049580, Note_on_c, 0, 74, 46
3, 1049580, Note_on_c, 0, 62, 53
3, 1049743, Note_on_c, 0, 62, 0
3, 1049743, Note_on_c, 0, 74, 0
3, 1050300, Note_on_c, 0, 58, 47
3, 1050480, Note_on_c, 0, 82, 39
3, 1050625, Note_on_c, 0, 58, 0
3, 1050643, Note_on_c, 0, 82, 0
3, 1050660, Note_on_c, 0, 70, 31
3, 1050823, Note_on_c, 0, 70, 0
3, 1050840, Note_on_c, 0, 70, 51
3, 1051020, Note_on_c, 0, 94, 38
3, 1051165, Note_on_c, 0, 70, 0
3, 1051183, Note_on_c, 0, 94, 0
3, 1051200, Note_on_c, 0, 82, 33
3, 1051363, Note_on_c, 0, 82, 0
3, 1051380, Note_on_c, 0, 71, 69
3, 1051543, Note_on_c, 0, 71, 0
3, 1051560, Note_on_c, 0, 95, 39
3, 1051723, Note_on_c, 0, 95, 0
3, 1051740, Note_on_c, 0, 85, 43
3, 1051740, Note_on_c, 0, 97, 45
3, 1051740, Note_on_c, 0, 73, 69
3, 1051903, Note_on_c, 0, 73, 0
3, 1051903, Note_on_c, 0, 97, 0
3, 1051903, Note_on_c, 0, 85, 0
3, 1051920, Note_on_c, 0, 70, 74
3, 1052100, Note_on_c, 0, 94, 62
3, 1052245, Note_on_c, 0, 70, 0
3, 1052263, Note_on_c, 0, 94, 0
3, 1052280, Note_on_c, 0, 82, 34
3, 1052443, Note_on_c, 0, 82, 0
3, 1052460, Note_on_c, 0, 58, 47
3, 1052640, Note_on_c, 0, 82, 40
3, 1052785, Note_on_c, 0, 58, 0
3, 1052803, Note_on_c, 0, 82, 0
3, 1052820, Note_on_c, 0, 70, 32
3, 1052983, Note_on_c, 0, 70, 0
3, 1053000, Note_on_c, 0, 70, 53
3, 1053180, Note_on_c, 0, 94, 41
3, 1053325, Note_on_c, 0, 70, 0
3, 1053343, Note_on_c, 0, 94, 0
3, 1053360, Note_on_c, 0, 82, 31
3, 1053523, Note_on_c, 0, 82, 0
3, 1053540, Note_on_c, 0, 71, 72
3, 1053703, Note_on_c, 0, 71, 0
3, 1053720, Note_on_c, 0, 95, 40
3, 1053883, Note_on_c, 0, 95, 0
3, 1053900, Note_on_c, 0, 85, 44
3, 1053900, Note_on_c, 0, 97, 44
3, 1053900, Note_on_c, 0, 73, 69
3, 1054063, Note_on_c, 0, 73, 0
3, 1054063, Note_on_c, 0, 97, 0
3, 1054063, Note_on_c, 0, 85, 0
3, 1054080, Note_on_c, 0, 70, 72
3, 1054260, Note_on_c, 0, 94, 39
3, 1054405, Note_on_c, 0, 70, 0
3, 1054423, Note_on_c, 0, 94, 0
3, 1054440, Note_on_c, 0, 82, 33
3, 1054603, Note_on_c, 0, 82, 0
3, 1054620, Note_on_c, 0, 71, 71
3, 1054783, Note_on_c, 0, 71, 0
3, 1054800, Note_on_c, 0, 95, 41
3, 1054963, Note_on_c, 0, 95, 0
3, 1054980, Note_on_c, 0, 85, 45
3, 1054980, Note_on_c, 0, 97, 45
3, 1054980, Note_on_c, 0, 73, 69
3, 1055143, Note_on_c, 0, 73, 0
3, 1055143, Note_on_c, 0, 97, 0
3, 1055143, Note_on_c, 0, 85, 0
3, 1055160, Note_on_c, 0, 70, 72
3, 1055340, Note_on_c, 0, 94, 63
3, 1055485, Note_on_c, 0, 70, 0
3, 1055503, Note_on_c, 0, 94, 0
3, 1055520, Note_on_c, 0, 82, 33
3, 1055683, Note_on_c, 0, 82, 0
3, 1055700, Note_on_c, 0, 70, 74
3, 1055880, Note_on_c, 0, 94, 60
3, 1055943, Note_on_c, 0, 70, 0
3, 1055970, Note_on_c, 0, 70, 77
3, 1056043, Note_on_c, 0, 94, 0
3, 1056060, Note_on_c, 0, 82, 33
3, 1056213, Note_on_c, 0, 70, 0
3, 1056223, Note_on_c, 0, 82, 0
3, 1056240, Note_on_c, 0, 66, 75
3, 1056420, Note_on_c, 0, 90, 59
3, 1056565, Note_on_c, 0, 66, 0
3, 1056583, Note_on_c, 0, 90, 0
3, 1056600, Note_on_c, 0, 78, 30
3, 1056763, Note_on_c, 0, 78, 0
3, 1056780, Note_on_c, 0, 54, 49
3, 1056960, Note_on_c, 0, 78, 40
3, 1057105, Note_on_c, 0, 54, 0
3, 1057123, Note_on_c, 0, 78, 0
3, 1057140, Note_on_c, 0, 66, 31
3, 1057303, Note_on_c, 0, 66, 0
3, 1057320, Note_on_c, 0, 66, 50
3, 1057500, Note_on_c, 0, 90, 41
3, 1057645, Note_on_c, 0, 66, 0
3, 1057663, Note_on_c, 0, 90, 0
3, 1057680, Note_on_c, 0, 78, 34
3, 1057843, Note_on_c, 0, 78, 0
3, 1057860, Note_on_c, 0, 70, 72
3, 1058040, Note_on_c, 0, 94, 60
3, 1058103, Note_on_c, 0, 70, 0
3, 1058130, Note_on_c, 0, 70, 77
3, 1058203, Note_on_c, 0, 94, 0
3, 1058220, Note_on_c, 0, 82, 33
3, 1058373, Note_on_c, 0, 70, 0
3, 1058383, Note_on_c, 0, 82, 0
3, 1058400, Note_on_c, 0, 66, 73
3, 1058580, Note_on_c, 0, 90, 59
3, 1058725, Note_on_c, 0, 66, 0
3, 1058743, Note_on_c, 0, 90, 0
3, 1058760, Note_on_c, 0, 78, 31
3, 1058923, Note_on_c, 0, 78, 0
3, 1058940, Note_on_c, 0, 54, 47
3, 1059120, Note_on_c, 0, 78, 39
3, 1059265, Note_on_c, 0, 54, 0
3, 1059283, Note_on_c, 0, 78, 0
3, 1059300, Note_on_c, 0, 66, 33
3, 1059463, Note_on_c, 0, 66, 0
3, 1059480, Note_on_c, 0, 66, 72
3, 1059660, Note_on_c, 0, 90, 62
3, 1059805, Note_on_c, 0, 66, 0
3, 1059823, Note_on_c, 0, 90, 0
3, 1059840, Note_on_c, 0, 78, 31
3, 1060003, Note_on_c, 0, 78, 0
3, 1060020, Note_on_c, 0, 54, 49
3, 1060200, Note_on_c, 0, 78, 39
3, 1060345, Note_on_c, 0, 54, 0
3, 1060363, Note_on_c, 0, 78, 0
3, 1060380, Note_on_c, 0, 66, 31
3, 1060543, Note_on_c, 0, 66, 0
3, 1060560, Note_on_c, 0, 63, 73
3, 1060740, Note_on_c, 0, 87, 60
3, 1060885, Note_on_c, 0, 63, 0
3, 1060903, Note_on_c, 0, 87, 0
3, 1060920, Note_on_c, 0, 75, 32
3, 1061083, Note_on_c, 0, 75, 0
3, 1061100, Note_on_c, 0, 51, 46
3, 1061280, Note_on_c, 0, 75, 37
3, 1061425, Note_on_c, 0, 51, 0
3, 1061443, Note_on_c, 0, 75, 0
3, 1061460, Note_on_c, 0, 63, 31
3, 1061623, Note_on_c, 0, 63, 0
3, 1061640, Note_on_c, 0, 63, 51
3, 1061820, Note_on_c, 0, 87, 41
3, 1061965, Note_on_c, 0, 63, 0
3, 1061983, Note_on_c, 0, 87, 0
3, 1062000, Note_on_c, 0, 75, 33
3, 1062163, Note_on_c, 0, 75, 0
3, 1062180, Note_on_c, 0, 65, 49
3, 1062343, Note_on_c, 0, 65, 0
3, 1062360, Note_on_c, 0, 89, 40
3, 1062523, Note_on_c, 0, 89, 0
3, 1062540, Note_on_c, 0, 78, 44
3, 1062540, Note_on_c, 0, 90, 45
3, 1062540, Note_on_c, 0, 66, 48
3, 1062703, Note_on_c, 0, 66, 0
3, 1062703, Note_on_c, 0, 90, 0
3, 1062703, Note_on_c, 0, 78, 0
3, 1062720, Note_on_c, 0, 63, 52
3, 1062900, Note_on_c, 0, 87, 38
3, 1063045, Note_on_c, 0, 63, 0
3, 1063063, Note_on_c, 0, 87, 0
3, 1063080, Note_on_c, 0, 75, 33
3, 1063243, Note_on_c, 0, 75, 0
3, 1063260, Note_on_c, 0, 65, 49
3, 1063423, Note_on_c, 0, 65, 0
3, 1063440, Note_on_c, 0, 89, 40
3, 1063603, Note_on_c, 0, 89, 0
3, 1063620, Note_on_c, 0, 78, 43
3, 1063620, Note_on_c, 0, 90, 45
3, 1063620, Note_on_c, 0, 66, 50
3, 1063783, Note_on_c, 0, 66, 0
3, 1063783, Note_on_c, 0, 90, 0
3, 1063783, Note_on_c, 0, 78, 0
3, 1063800, Note_on_c, 0, 63, 50
3, 1063980, Note_on_c, 0, 87, 39
3, 1064125, Note_on_c, 0, 63, 0
3, 1064143, Note_on_c, 0, 87, 0
3, 1064160, Note_on_c, 0, 75, 34
3, 1064323, Note_on_c, 0, 75, 0
3, 1064340, Note_on_c, 0, 64, 71
3, 1064503, Note_on_c, 0, 64, 0
3, 1064520, Note_on_c, 0, 88, 40
3, 1064683, Note_on_c, 0, 88, 0
3, 1064700, Note_on_c, 0, 78, 46
3, 1064700, Note_on_c, 0, 90, 43
3, 1064700, Note_on_c, 0, 66, 71
3, 1064863, Note_on_c, 0, 66, 0
3, 1064863, Note_on_c, 0, 90, 0
3, 1064863, Note_on_c, 0, 78, 0
3, 1064880, Note_on_c, 0, 63, 74
3, 1065060, Note_on_c, 0, 87, 61
3, 1065205, Note_on_c, 0, 63, 0
3, 1065223, Note_on_c, 0, 87, 0
3, 1065240, Note_on_c, 0, 75, 34
3, 1065403, Note_on_c, 0, 75, 0
3, 1065420, Note_on_c, 0, 51, 46
3, 1065600, Note_on_c, 0, 75, 37
3, 1065745, Note_on_c, 0, 51, 0
3, 1065763, Note_on_c, 0, 75, 0
3, 1065780, Note_on_c, 0, 63, 33
3, 1065943, Note_on_c, 0, 63, 0
3, 1065960, Note_on_c, 0, 63, 50
3, 1066140, Note_on_c, 0, 87, 39
3, 1066285, Note_on_c, 0, 63, 0
3, 1066303, Note_on_c, 0, 87, 0
3, 1066320, Note_on_c, 0, 75, 32
3, 1066483, Note_on_c, 0, 75, 0
3, 1066500, Note_on_c, 0, 64, 69
3, 1066663, Note_on_c, 0, 64, 0
3, 1066680, Note_on_c, 0, 88, 41
3, 1066843, Note_on_c, 0, 88, 0
3, 1066860, Note_on_c, 0, 78, 45
3, 1066860, Note_on_c, 0, 90, 46
3, 1066860, Note_on_c, 0, 66, 71
3, 1067023, Note_on_c, 0, 66, 0
3, 1067023, Note_on_c, 0, 90, 0
3, 1067023, Note_on_c, 0, 78, 0
3, 1067040, Note_on_c, 0, 63, 73
3, 1067220, Note_on_c, 0, 87, 62
3, 1067365, Note_on_c, 0, 63, 0
3, 1067383, Note_on_c, 0, 87, 0
3, 1067400, Note_on_c, 0, 75, 32
3, 1067563, Note_on_c, 0, 75, 0
3, 1067580, Note_on_c, 0, 51, 50
3, 1067760, Note_on_c, 0, 75, 40
3, 1067905, Note_on_c, 0, 51, 0
3, 1067923, Note_on_c, 0, 75, 0
3, 1067940, Note_on_c, 0, 63, 31
3, 1068103, Note_on_c, 0, 63, 0
3, 1068120, Note_on_c, 0, 63, 52
3, 1068300, Note_on_c, 0, 87, 40
3, 1068445, Note_on_c, 0, 63, 0
3, 1068463, Note_on_c, 0, 87, 0
3, 1068480, Note_on_c, 0, 75, 33
3, 1068643, Note_on_c, 0, 75, 0
3, 1068660, Note_on_c, 0, 64, 69
3, 1068823, Note_on_c, 0, 64, 0
3, 1068840, Note_on_c, 0, 88, 39
3, 1069003, Note_on_c, 0, 88, 0
3, 1069020, Note_on_c, 0, 78, 43
3, 1069020, Note_on_c, 0, 90, 45
3, 1069020, Note_on_c, 0, 66, 71
3, 1069183, Note_on_c, 0, 66, 0
3, 1069183, Note_on_c, 0, 90, 0
3, 1069183, Note_on_c, 0, 78, 0
3, 1069200, Note_on_c, 0, 63, 72
3, 1069380, Note_on_c, 0, 87, 38
3, 1069525, Note_on_c, 0, 63, 0
3, 1069543, Note_on_c, 0, 87, 0
3, 1069560, Note_on_c, 0, 75, 31
3, 1069723, Note_on_c, 0, 75, 0
3, 1069740, Note_on_c, 0, 64, 69
3, 1069903, Note_on_c, 0, 64, 0
3, 1069920, Note_on_c, 0, 88, 39
3, 1070083, Note_on_c, 0, 88, 0
3, 1070100, Note_on_c, 0, 78, 43
3, 1070100, Note_on_c, 0, 90, 44
3, 1070100, Note_on_c, 0, 66, 70
3, 1070263, Note_on_c, 0, 66, 0
3, 1070263, Note_on_c, 0, 90, 0
3, 1070263, Note_on_c, 0, 78, 0
3, 1070280, Note_on_c, 0, 63, 71
3, 1070460, Note_on_c, 0, 87, 60
3, 1070605, Note_on_c, 0, 63, 0
3, 1070623, Note_on_c, 0, 87, 0
3, 1070640, Note_on_c, 0, 75, 32
3, 1070803, Note_on_c, 0, 75, 0
3, 1070820, Note_on_c, 0, 63, 73
3, 1071000, Note_on_c, 0, 87, 60
3, 1071063, Note_on_c, 0, 63, 0
3, 1071090, Note_on_c, 0, 63, 74
3, 1071163, Note_on_c, 0, 87, 0
3, 1071180, Note_on_c, 0, 75, 34
3, 1071333, Note_on_c, 0, 63, 0
3, 1071343, Note_on_c, 0, 75, 0
3, 1071360, Note_on_c, 0, 59, 74
3, 1071540, Note_on_c, 0, 83, 61
3, 1071685, Note_on_c, 0, 59, 0
3, 1071703, Note_on_c, 0, 83, 0
3, 1071720, Note_on_c, 0, 71, 34
3, 1071883, Note_on_c, 0, 71, 0
3, 1071900, Note_on_c, 0, 47, 47
3, 1072080, Note_on_c, 0, 71, 40
3, 1072225, Note_on_c, 0, 47, 0
3, 1072243, Note_on_c, 0, 71, 0
3, 1072260, Note_on_c, 0, 59, 32
3, 1072423, Note_on_c, 0, 59, 0
3, 1072440, Note_on_c, 0, 59, 52
3, 1072620, Note_on_c, 0, 83, 38
3, 1072765, Note_on_c, 0, 59, 0
3, 1072783, Note_on_c, 0, 83, 0
3, 1072800, Note_on_c, 0, 71, 32
3, 1072963, Note_on_c, 0, 71, 0
3, 1072980, Note_on_c, 0, 63, 72
3, 1073160, Note_on_c, 0, 87, 62
3, 1073223, Note_on_c, 0, 63, 0
3, 1073250, Note_on_c, 0, 63, 74
3, 1073323, Note_on_c, 0, 87, 0
3, 1073340, Note_on_c, 0, 75, 31
3, 1073493, Note_on_c, 0, 63, 0
3, 1073503, Note_on_c, 0, 75, 0
3, 1073520, Note_on_c, 0, 59, 74
3, 1073700, Note_on_c, 0, 83, 62
3, 1073845, Note_on_c, 0, 59, 0
3, 1073863, Note_on_c, 0, 83, 0
3, 1073880, Note_on_c, 0, 71, 34
3, 1074043, Note_on_c, 0, 71, 0
3, 1074060, Note_on_c, 0, 47, 48
3, 1074240, Note_on_c, 0, 71, 38
3, 1074385, Note_on_c, 0, 47, 0
3, 1074403, Note_on_c, 0, 71, 0
3, 1074420, Note_on_c, 0, 59, 33
3, 1074583, Note_on_c, 0, 59, 0
3, 1074600, Note_on_c, 0, 59, 72
3, 1074780, Note_on_c, 0, 83, 62
3, 1074925, Note_on_c, 0, 59, 0
3, 1074943, Note_on_c, 0, 83, 0
3, 1074960, Note_on_c, 0, 71, 32
3, 1075123, Note_on_c, 0, 71, 0
3, 1075140, Note_on_c, 0, 47, 47
3, 1075320, Note_on_c, 0, 71, 38
3, 1075465, Note_on_c, 0, 47, 0
3, 1075483, Note_on_c, 0, 71, 0
3, 1075500, Note_on_c, 0, 59, 31
3, 1075663, Note_on_c, 0, 59, 0
3, 1075680, Note_on_c, 0, 56, 71
3, 1075860, Note_on_c, 0, 80, 62
3, 1076005, Note_on_c, 0, 56, 0
3, 1076023, Note_on_c, 0, 80, 0
3, 1076040, Note_on_c, 0, 68, 31
3, 1076203, Note_on_c, 0, 68, 0
3, 1076220, Note_on_c, 0, 44, 48
3, 1076400, Note_on_c, 0, 68, 40
3, 1076545, Note_on_c, 0, 44, 0
3, 1076563, Note_on_c, 0, 68, 0
3, 1076580, Note_on_c, 0, 56, 31
3, 1076743, Note_on_c, 0, 56, 0
3, 1076760, Note_on_c, 0, 56, 50
3, 1076940, Note_on_c, 0, 80, 41
3, 1077085, Note_on_c, 0, 56, 0
3, 1077103, Note_on_c, 0, 80, 0
3, 1077120, Note_on_c, 0, 68, 31
3, 1077283, Note_on_c, 0, 68, 0
3, 1077300, Note_on_c, 0, 58, 47
3, 1077463, Note_on_c, 0, 58, 0
3, 1077480, Note_on_c, 0, 82, 40
3, 1077643, Note_on_c, 0, 82, 0
3, 1077660, Note_on_c, 0, 71, 44
3, 1077660, Note_on_c, 0, 83, 43
3, 1077660, Note_on_c, 0, 59, 48
3, 1077823, Note_on_c, 0, 59, 0
3, 1077823, Note_on_c, 0, 83, 0
3, 1077823, Note_on_c, 0, 71, 0
3, 1077840, Note_on_c, 0, 56, 50
3, 1078020, Note_on_c, 0, 80, 39
3, 1078165, Note_on_c, 0, 56, 0
3, 1078183, Note_on_c, 0, 80, 0
3, 1078200, Note_on_c, 0, 68, 31
3, 1078363, Note_on_c, 0, 68, 0
3, 1078380, Note_on_c, 0, 58, 47
3, 1078543, Note_on_c, 0, 58, 0
3, 1078560, Note_on_c, 0, 82, 41
3, 1078723, Note_on_c, 0, 82, 0
3, 1078740, Note_on_c, 0, 71, 45
3, 1078740, Note_on_c, 0, 83, 44
3, 1078740, Note_on_c, 0, 59, 49
3, 1078903, Note_on_c, 0, 59, 0
3, 1078903, Note_on_c, 0, 83, 0
3, 1078903, Note_on_c, 0, 71, 0
3, 1078920, Note_on_c, 0, 56, 53
3, 1079100, Note_on_c, 0, 80, 39
3, 1079245, Note_on_c, 0, 56, 0
3, 1079263, Note_on_c, 0, 80, 0
3, 1079280, Note_on_c, 0, 68, 33
3, 1079443, Note_on_c, 0, 68, 0
3, 1079460, Note_on_c, 0, 44, 49
3, 1079785, Note_on_c, 0, 44, 0
3, 1080000, Note_on_c, 0, 34, 53
3, 1080000, Note_on_c, 0, 46, 52
3, 1080325, Note_on_c, 0, 46, 0
3, 1080325, Note_on_c, 0, 34, 0
3, 1080540, Note_on_c, 0, 53, 38
3, 1080540, Note_on_c, 0, 58, 39
3, 1080540, Note_on_c, 0, 62, 40
3, 1080865, Note_on_c, 0, 62, 0
3, 1080865, Note_on_c, 0, 58, 0
3, 1080865, Note_on_c, 0, 53, 0
3, 1081080, Note_on_c, 0, 35, 52
3, 1081080, Note_on_c, 0, 47, 52
3, 1081405, Note_on_c, 0, 35, 0
3, 1081405, Note_on_c, 0, 47, 0
3, 1081620, Note_on_c, 0, 54, 40
3, 1081620, Note_on_c, 0, 56, 41
3, 1081620, Note_on_c, 0, 62, 39
3, 1081945, Note_on_c, 0, 62, 0
3, 1081945, Note_on_c, 0, 56, 0
3, 1081945, Note_on_c, 0, 54, 0
3, 1082160, Note_on_c, 0, 30, 52
3, 1082160, Note_on_c, 0, 42, 51
3, 1082485, Note_on_c, 0, 42, 0
3, 1082485, Note_on_c, 0, 30, 0
3, 1082700, Note_on_c, 0, 54, 37
3, 1082700, Note_on_c, 0, 58, 39
3, 1082700, Note_on_c, 0, 61, 40
3, 1083025, Note_on_c, 0, 61, 0
3, 1083025, Note_on_c, 0, 58, 0
3, 1083025, Note_on_c, 0, 54, 0
3, 1083240, Note_on_c, 0, 35, 73
3, 1083240, Note_on_c, 0, 47, 71
3, 1083565, Note_on_c, 0, 35, 0
3, 1083565, Note_on_c, 0, 47, 0
3, 1083780, Note_on_c, 0, 53, 63
3, 1083780, Note_on_c, 0, 56, 62
3, 1083780, Note_on_c, 0, 63, 63
3, 1084105, Note_on_c, 0, 63, 0
3, 1084105, Note_on_c, 0, 56, 0
3, 1084105, Note_on_c, 0, 53, 0
3, 1084320, Note_on_c, 0, 27, 51
3, 1084320, Note_on_c, 0, 39, 52
3, 1084645, Note_on_c, 0, 39, 0
3, 1084645, Note_on_c, 0, 27, 0
3, 1084860, Note_on_c, 0, 54, 39
3, 1084860, Note_on_c, 0, 58, 39
3, 1084860, Note_on_c, 0, 63, 37
3, 1085185, Note_on_c, 0, 63, 0
3, 1085185, Note_on_c, 0, 58, 0
3, 1085185, Note_on_c, 0, 54, 0
3, 1085400, Note_on_c, 0, 35, 53
3, 1085400, Note_on_c, 0, 47, 52
3, 1085725, Note_on_c, 0, 35, 0
3, 1085725, Note_on_c, 0, 47, 0
3, 1085940, Note_on_c, 0, 54, 38
3, 1085940, Note_on_c, 0, 56, 37
3, 1085940, Note_on_c, 0, 62, 38
3, 1086265, Note_on_c, 0, 62, 0
3, 1086265, Note_on_c, 0, 56, 0
3, 1086265, Note_on_c, 0, 54, 0
3, 1086480, Note_on_c, 0, 30, 50
3, 1086480, Note_on_c, 0, 42, 52
3, 1086805, Note_on_c, 0, 42, 0
3, 1086805, Note_on_c, 0, 30, 0
3, 1087020, Note_on_c, 0, 49, 40
3, 1087020, Note_on_c, 0, 54, 39
3, 1087020, Note_on_c, 0, 61, 37
3, 1087345, Note_on_c, 0, 61, 0
3, 1087345, Note_on_c, 0, 54, 0
3, 1087345, Note_on_c, 0, 49, 0
3, 1087560, Note_on_c, 0, 29, 71
3, 1087560, Note_on_c, 0, 41, 72
3, 1087885, Note_on_c, 0, 41, 0
3, 1087885, Note_on_c, 0, 29, 0
3, 1088100, Note_on_c, 0, 51, 61
3, 1088100, Note_on_c, 0, 56, 61
3, 1088100, Note_on_c, 0, 59, 61
3, 1088425, Note_on_c, 0, 59, 0
3, 1088425, Note_on_c, 0, 56, 0
3, 1088425, Note_on_c, 0, 51, 0
3, 1088640, Note_on_c, 0, 34, 52
3, 1088640, Note_on_c, 0, 46, 50
3, 1088965, Note_on_c, 0, 46, 0
3, 1088965, Note_on_c, 0, 34, 0
3, 1089180, Note_on_c, 0, 50, 39
3, 1089180, Note_on_c, 0, 56, 38
3, 1089180, Note_on_c, 0, 58, 37
3, 1089505, Note_on_c, 0, 58, 0
3, 1089505, Note_on_c, 0, 56, 0
3, 1089505, Note_on_c, 0, 50, 0
3, 1090260, Note_on_c, 0, 53, 40
3, 1090260, Note_on_c, 0, 56, 39
3, 1090585, Note_on_c, 0, 56, 0
3, 1090585, Note_on_c, 0, 53, 0
3, 1090800, Note_on_c, 0, 54, 40
3, 1090800, Note_on_c, 0, 58, 41
3, 1091125, Note_on_c, 0, 58, 0
3, 1091125, Note_on_c, 0, 54, 0
3, 1091340, Note_on_c, 0, 56, 41
3, 1091340, Note_on_c, 0, 59, 40
3, 1091665, Note_on_c, 0, 59, 0
3, 1091665, Note_on_c, 0, 56, 0
3, 1091880, Note_on_c, 0, 58, 44
3, 1091880, Note_on_c, 0, 62, 43
3, 1092205, Note_on_c, 0, 62, 0
3, 1092205, Note_on_c, 0, 58, 0
3, 1092420, Note_on_c, 0, 62, 41
3, 1092420, Note_on_c, 0, 65, 39
3, 1092745, Note_on_c, 0, 65, 0
3, 1092745, Note_on_c, 0, 62, 0
3, 1092960, Note_on_c, 0, 63, 46
3, 1092960, Note_on_c, 0, 66, 45
3, 1092960, Note_on_c, 0, 39, 51
3, 1092960, Note_on_c, 0, 46, 50
3, 1093285, Note_on_c, 0, 46, 0
3, 1093285, Note_on_c, 0, 39, 0
3, 1093500, Note_on_c, 0, 54, 47
3, 1093500, Note_on_c, 0, 58, 49
3, 1093825, Note_on_c, 0, 58, 0
3, 1093825, Note_on_c, 0, 54, 0
3, 1094040, Note_on_c, 0, 66, 0
3, 1094040, Note_on_c, 0, 63, 0
3, 1094040, Note_on_c, 0, 61, 48
3, 1094040, Note_on_c, 0, 65, 48
3, 1094040, Note_on_c, 0, 34, 50
3, 1094040, Note_on_c, 0, 46, 51
3, 1094365, Note_on_c, 0, 46, 0
3, 1094365, Note_on_c, 0, 34, 0
3, 1094580, Note_on_c, 0, 53, 49
3, 1094580, Note_on_c, 0, 58, 49
3, 1094905, Note_on_c, 0, 58, 0
3, 1094905, Note_on_c, 0, 53, 0
3, 1095120, Note_on_c, 0, 37, 49
3, 1095120, Note_on_c, 0, 44, 49
3, 1095445, Note_on_c, 0, 44, 0
3, 1095445, Note_on_c, 0, 37, 0
3, 1095660, Note_on_c, 0, 53, 48
3, 1095660, Note_on_c, 0, 56, 46
3, 1095985, Note_on_c, 0, 56, 0
3, 1095985, Note_on_c, 0, 53, 0
3, 1096130, Note_on_c, 0, 65, 0
3, 1096130, Note_on_c, 0, 61, 0
3, 1096200, Note_on_c, 0, 59, 49
3, 1096200, Note_on_c, 0, 63, 50
3, 1096200, Note_on_c, 0, 32, 52
3, 1096200, Note_on_c, 0, 44, 49
3, 1096525, Note_on_c, 0, 44, 0
3, 1096525, Note_on_c, 0, 32, 0
3, 1096740, Note_on_c, 0, 51, 49
3, 1096740, Note_on_c, 0, 56, 48
3, 1097065, Note_on_c, 0, 56, 0
3, 1097065, Note_on_c, 0, 51, 0
3, 1097280, Note_on_c, 0, 39, 51
3, 1097280, Note_on_c, 0, 46, 52
3, 1097605, Note_on_c, 0, 46, 0
3, 1097605, Note_on_c, 0, 39, 0
3, 1097820, Note_on_c, 0, 51, 49
3, 1097820, Note_on_c, 0, 54, 49
3, 1098145, Note_on_c, 0, 54, 0
3, 1098145, Note_on_c, 0, 51, 0
3, 1098290, Note_on_c, 0, 63, 0
3, 1098290, Note_on_c, 0, 59, 0
3, 1098360, Note_on_c, 0, 58, 48
3, 1098360, Note_on_c, 0, 61, 49
3, 1098360, Note_on_c, 0, 30, 50
3, 1098360, Note_on_c, 0, 42, 52
3, 1098685, Note_on_c, 0, 42, 0
3, 1098685, Note_on_c, 0, 30, 0
3, 1098900, Note_on_c, 0, 49, 46
3, 1098900, Note_on_c, 0, 54, 47
3, 1099225, Note_on_c, 0, 54, 0
3, 1099225, Note_on_c, 0, 49, 0
3, 1099440, Note_on_c, 0, 61, 0
3, 1099440, Note_on_c, 0, 58, 0
3, 1099440, Note_on_c, 0, 58, 47
3, 1099440, Note_on_c, 0, 60, 50
3, 1099440, Note_on_c, 0, 27, 50
3, 1099440, Note_on_c, 0, 39, 50
3, 1099765, Note_on_c, 0, 39, 0
3, 1099765, Note_on_c, 0, 27, 0
3, 1099980, Note_on_c, 0, 48, 50
3, 1099980, Note_on_c, 0, 54, 49
3, 1100305, Note_on_c, 0, 54, 0
3, 1100305, Note_on_c, 0, 48, 0
3, 1100520, Note_on_c, 0, 60, 0
3, 1100520, Note_on_c, 0, 58, 0
3, 1100520, Note_on_c, 0, 58, 53
3, 1100520, Note_on_c, 0, 61, 52
3, 1100520, Note_on_c, 0, 34, 50
3, 1100520, Note_on_c, 0, 46, 50
3, 1100845, Note_on_c, 0, 46, 0
3, 1100845, Note_on_c, 0, 34, 0
3, 1101060, Note_on_c, 0, 49, 50
3, 1101060, Note_on_c, 0, 53, 47
3, 1101385, Note_on_c, 0, 53, 0
3, 1101385, Note_on_c, 0, 49, 0
3, 1101600, Note_on_c, 0, 61, 0
3, 1101600, Note_on_c, 0, 58, 0
3, 1101600, Note_on_c, 0, 63, 56
3, 1101600, Note_on_c, 0, 66, 55
3, 1101600, Note_on_c, 0, 39, 49
3, 1101600, Note_on_c, 0, 46, 53
3, 1101925, Note_on_c, 0, 46, 0
3, 1101925, Note_on_c, 0, 39, 0
3, 1102140, Note_on_c, 0, 54, 50
3, 1102140, Note_on_c, 0, 58, 49
3, 1102465, Note_on_c, 0, 58, 0
3, 1102465, Note_on_c, 0, 54, 0
3, 1102680, Note_on_c, 0, 66, 0
3, 1102680, Note_on_c, 0, 63, 0
3, 1102680, Note_on_c, 0, 61, 48
3, 1102680, Note_on_c, 0, 65, 52
3, 1102680, Note_on_c, 0, 34, 49
3, 1102680, Note_on_c, 0, 46, 51
3, 1103005, Note_on_c, 0, 46, 0
3, 1103005, Note_on_c, 0, 34, 0
3, 1103220, Note_on_c, 0, 53, 50
3, 1103220, Note_on_c, 0, 58, 50
3, 1103545, Note_on_c, 0, 58, 0
3, 1103545, Note_on_c, 0, 53, 0
3, 1103760, Note_on_c, 0, 37, 50
3, 1103760, Note_on_c, 0, 44, 49
3, 1104085, Note_on_c, 0, 44, 0
3, 1104085, Note_on_c, 0, 37, 0
3, 1104300, Note_on_c, 0, 53, 48
3, 1104300, Note_on_c, 0, 56, 47
3, 1104625, Note_on_c, 0, 56, 0
3, 1104625, Note_on_c, 0, 53, 0
3, 1104770, Note_on_c, 0, 65, 0
3, 1104770, Note_on_c, 0, 61, 0
3, 1104840, Note_on_c, 0, 59, 50
3, 1104840, Note_on_c, 0, 63, 51
3, 1104840, Note_on_c, 0, 32, 50
3, 1104840, Note_on_c, 0, 44, 50
3, 1105165, Note_on_c, 0, 44, 0
3, 1105165, Note_on_c, 0, 32, 0
3, 1105380, Note_on_c, 0, 51, 49
3, 1105380, Note_on_c, 0, 56, 48
3, 1105705, Note_on_c, 0, 56, 0
3, 1105705, Note_on_c, 0, 51, 0
3, 1105920, Note_on_c, 0, 35, 52
3, 1105920, Note_on_c, 0, 42, 51
3, 1106245, Note_on_c, 0, 42, 0
3, 1106245, Note_on_c, 0, 35, 0
3, 1106460, Note_on_c, 0, 51, 46
3, 1106460, Note_on_c, 0, 54, 46
3, 1106785, Note_on_c, 0, 54, 0
3, 1106785, Note_on_c, 0, 51, 0
3, 1107000, Note_on_c, 0, 63, 0
3, 1107000, Note_on_c, 0, 59, 0
3, 1107000, Note_on_c, 0, 58, 48
3, 1107000, Note_on_c, 0, 61, 50
3, 1107000, Note_on_c, 0, 30, 51
3, 1107000, Note_on_c, 0, 42, 51
3, 1107325, Note_on_c, 0, 42, 0
3, 1107325, Note_on_c, 0, 30, 0
3, 1107540, Note_on_c, 0, 49, 50
3, 1107540, Note_on_c, 0, 54, 48
3, 1107865, Note_on_c, 0, 54, 0
3, 1107865, Note_on_c, 0, 49, 0
3, 1108080, Note_on_c, 0, 61, 0
3, 1108080, Note_on_c, 0, 58, 0
3, 1108080, Note_on_c, 0, 58, 48
3, 1108080, Note_on_c, 0, 60, 50
3, 1108080, Note_on_c, 0, 27, 53
3, 1108080, Note_on_c, 0, 39, 51
3, 1108405, Note_on_c, 0, 39, 0
3, 1108405, Note_on_c, 0, 27, 0
3, 1108620, Note_on_c, 0, 48, 46
3, 1108620, Note_on_c, 0, 54, 48
3, 1108945, Note_on_c, 0, 54, 0
3, 1108945, Note_on_c, 0, 48, 0
3, 1109160, Note_on_c, 0, 60, 0
3, 1109160, Note_on_c, 0, 58, 0
3, 1109160, Note_on_c, 0, 58, 53
3, 1109160, Note_on_c, 0, 61, 55
3, 1109160, Note_on_c, 0, 34, 51
3, 1109160, Note_on_c, 0, 46, 50
3, 1109485, Note_on_c, 0, 46, 0
3, 1109485, Note_on_c, 0, 34, 0
3, 1109700, Note_on_c, 0, 49, 50
3, 1109700, Note_on_c, 0, 53, 47
3, 1110025, Note_on_c, 0, 53, 0
3, 1110025, Note_on_c, 0, 49, 0
3, 1110240, Note_on_c, 0, 61, 0
3, 1110240, Note_on_c, 0, 58, 0
3, 1110240, Note_on_c, 0, 58, 42
3, 1110240, Note_on_c, 0, 44, 50
3, 1110565, Note_on_c, 0, 44, 0
3, 1110780, Note_on_c, 0, 49, 47
3, 1110780, Note_on_c, 0, 53, 47
3, 1111105, Note_on_c, 0, 53, 0
3, 1111105, Note_on_c, 0, 49, 0
3, 1111320, Note_on_c, 0, 42, 52
3, 1111645, Note_on_c, 0, 42, 0
3, 1111860, Note_on_c, 0, 49, 47
3, 1111860, Note_on_c, 0, 54, 46
3, 1112185, Note_on_c, 0, 54, 0
3, 1112185, Note_on_c, 0, 49, 0
3, 1112330, Note_on_c, 0, 58, 0
3, 1112400, Note_on_c, 0, 56, 44
3, 1112400, Note_on_c, 0, 41, 51
3, 1112725, Note_on_c, 0, 41, 0
3, 1112940, Note_on_c, 0, 46, 47
3, 1112940, Note_on_c, 0, 50, 48
3, 1113265, Note_on_c, 0, 50, 0
3, 1113265, Note_on_c, 0, 46, 0
3, 1113410, Note_on_c, 0, 56, 0
3, 1113480, Note_on_c, 0, 58, 47
3, 1113480, Note_on_c, 0, 39, 52
3, 1113805, Note_on_c, 0, 39, 0
3, 1114020, Note_on_c, 0, 46, 49
3, 1114020, Note_on_c, 0, 51, 49
3, 1114020, Note_on_c, 0, 54, 46
3, 1114345, Note_on_c, 0, 54, 0
3, 1114345, Note_on_c, 0, 46, 0
3, 1114345, Note_on_c, 0, 51, 0
3, 1114560, Note_on_c, 0, 36, 53
3, 1114885, Note_on_c, 0, 36, 0
3, 1115100, Note_on_c, 0, 46, 46
3, 1115100, Note_on_c, 0, 53, 49
3, 1115100, Note_on_c, 0, 56, 49
3, 1115100, Note_on_c, 0, 38, 47
3, 1115425, Note_on_c, 0, 38, 0
3, 1115425, Note_on_c, 0, 53, 0
3, 1115425, Note_on_c, 0, 46, 0
3, 1115425, Note_on_c, 0, 56, 0
3, 1115640, Note_on_c, 0, 39, 50
3, 1115965, Note_on_c, 0, 39, 0
3, 1116127, Note_on_c, 0, 58, 0
3, 1116180, Note_on_c, 0, 59, 45
3, 1116180, Note_on_c, 0, 51, 46
3, 1116180, Note_on_c, 0, 55, 48
3, 1116505, Note_on_c, 0, 55, 0
3, 1116505, Note_on_c, 0, 51, 0
3, 1116667, Note_on_c, 0, 59, 0
3, 1116720, Note_on_c, 0, 61, 49
3, 1116720, Note_on_c, 0, 41, 49
3, 1117045, Note_on_c, 0, 41, 0
3, 1117260, Note_on_c, 0, 51, 49
3, 1117260, Note_on_c, 0, 58, 49
3, 1117260, Note_on_c, 0, 43, 50
3, 1117585, Note_on_c, 0, 43, 0
3, 1117585, Note_on_c, 0, 51, 0
3, 1117585, Note_on_c, 0, 58, 0
3, 1117730, Note_on_c, 0, 61, 0
3, 1117800, Note_on_c, 0, 59, 43
3, 1117800, Note_on_c, 0, 44, 50
3, 1118125, Note_on_c, 0, 44, 0
3, 1118287, Note_on_c, 0, 59, 0
3, 1118340, Note_on_c, 0, 61, 45
3, 1118340, Note_on_c, 0, 51, 48
3, 1118340, Note_on_c, 0, 56, 48
3, 1118665, Note_on_c, 0, 56, 0
3, 1118665, Note_on_c, 0, 51, 0
3, 1118827, Note_on_c, 0, 61, 0
3, 1118880, Note_on_c, 0, 63, 48
3, 1118880, Note_on_c, 0, 39, 52
3, 1119205, Note_on_c, 0, 39, 0
3, 1119420, Note_on_c, 0, 51, 48
3, 1119420, Note_on_c, 0, 56, 50
3, 1119420, Note_on_c, 0, 59, 49
3, 1119745, Note_on_c, 0, 59, 0
3, 1119745, Note_on_c, 0, 51, 0
3, 1119745, Note_on_c, 0, 56, 0
3, 1119960, Note_on_c, 0, 35, 53
3, 1119960, Note_on_c, 0, 47, 50
3, 1120285, Note_on_c, 0, 35, 0
3, 1120285, Note_on_c, 0, 47, 0
3, 1120500, Note_on_c, 0, 51, 49
3, 1120500, Note_on_c, 0, 56, 48
3, 1120825, Note_on_c, 0, 56, 0
3, 1120825, Note_on_c, 0, 51, 0
3, 1120970, Note_on_c, 0, 63, 0
3, 1121040, Note_on_c, 0, 61, 41
3, 1121040, Note_on_c, 0, 34, 51
3, 1121040, Note_on_c, 0, 46, 52
3, 1121365, Note_on_c, 0, 46, 0
3, 1121365, Note_on_c, 0, 34, 0
3, 1121580, Note_on_c, 0, 51, 50
3, 1121580, Note_on_c, 0, 55, 48
3, 1121905, Note_on_c, 0, 55, 0
3, 1121905, Note_on_c, 0, 51, 0
3, 1122050, Note_on_c, 0, 61, 0
3, 1122120, Note_on_c, 0, 63, 46
3, 1122120, Note_on_c, 0, 32, 50
3, 1122120, Note_on_c, 0, 44, 51
3, 1122445, Note_on_c, 0, 44, 0
3, 1122445, Note_on_c, 0, 32, 0
3, 1122660, Note_on_c, 0, 51, 50
3, 1122660, Note_on_c, 0, 56, 48
3, 1122660, Note_on_c, 0, 59, 49
3, 1122985, Note_on_c, 0, 59, 0
3, 1122985, Note_on_c, 0, 51, 0
3, 1122985, Note_on_c, 0, 56, 0
3, 1123200, Note_on_c, 0, 32, 51
3, 1123200, Note_on_c, 0, 44, 53
3, 1123525, Note_on_c, 0, 44, 0
3, 1123525, Note_on_c, 0, 32, 0
3, 1123687, Note_on_c, 0, 63, 0
3, 1123740, Note_on_c, 0, 66, 46
3, 1123740, Note_on_c, 0, 54, 48
3, 1123740, Note_on_c, 0, 60, 49
3, 1123740, Note_on_c, 0, 63, 47
3, 1123740, Note_on_c, 0, 33, 48
3, 1123740, Note_on_c, 0, 45, 49
3, 1124065, Note_on_c, 0, 45, 0
3, 1124065, Note_on_c, 0, 63, 0
3, 1124065, Note_on_c, 0, 60, 0
3, 1124065, Note_on_c, 0, 54, 0
3, 1124065, Note_on_c, 0, 33, 0
3, 1124227, Note_on_c, 0, 66, 0
3, 1124280, Note_on_c, 0, 65, 42
3, 1124280, Note_on_c, 0, 34, 53
3, 1124280, Note_on_c, 0, 46, 52
3, 1124605, Note_on_c, 0, 46, 0
3, 1124605, Note_on_c, 0, 34, 0
3, 1124820, Note_on_c, 0, 54, 49
3, 1124820, Note_on_c, 0, 58, 47
3, 1124820, Note_on_c, 0, 63, 47
3, 1125145, Note_on_c, 0, 63, 0
3, 1125145, Note_on_c, 0, 54, 0
3, 1125145, Note_on_c, 0, 58, 0
3, 1125360, Note_on_c, 0, 53, 51
3, 1125360, Note_on_c, 0, 59, 52
3, 1125360, Note_on_c, 0, 61, 51
3, 1125685, Note_on_c, 0, 61, 0
3, 1125685, Note_on_c, 0, 53, 0
3, 1125685, Note_on_c, 0, 59, 0
3, 1125847, Note_on_c, 0, 65, 0
3, 1125900, Note_on_c, 0, 66, 52
3, 1125900, Note_on_c, 0, 39, 48
3, 1125900, Note_on_c, 0, 51, 49
3, 1126225, Note_on_c, 0, 51, 0
3, 1126225, Note_on_c, 0, 39, 0
3, 1126440, Note_on_c, 0, 66, 0
3, 1126440, Note_on_c, 0, 68, 54
3, 1126440, Note_on_c, 0, 38, 52
3, 1126440, Note_on_c, 0, 50, 52
3, 1126765, Note_on_c, 0, 50, 0
3, 1126765, Note_on_c, 0, 38, 0
3, 1126980, Note_on_c, 0, 68, 0
3, 1126980, Note_on_c, 0, 70, 54
3, 1126980, Note_on_c, 0, 58, 47
3, 1126980, Note_on_c, 0, 65, 47
3, 1127305, Note_on_c, 0, 65, 0
3, 1127305, Note_on_c, 0, 58, 0
3, 1127520, Note_on_c, 0, 70, 0
3, 1127520, Note_on_c, 0, 68, 54
3, 1127520, Note_on_c, 0, 71, 54
3, 1127520, Note_on_c, 0, 44, 53
3, 1127520, Note_on_c, 0, 51, 51
3, 1127520, Note_on_c, 0, 59, 51
3, 1127845, Note_on_c, 0, 59, 0
3, 1127845, Note_on_c, 0, 44, 0
3, 1127845, Note_on_c, 0, 51, 0
3, 1128060, Note_on_c, 0, 59, 49
3, 1128060, Note_on_c, 0, 63, 49
3, 1128385, Note_on_c, 0, 63, 0
3, 1128385, Note_on_c, 0, 59, 0
3, 1128600, Note_on_c, 0, 68, 0
3, 1128600, Note_on_c, 0, 71, 0
3, 1128600, Note_on_c, 0, 66, 51
3, 1128600, Note_on_c, 0, 70, 50
3, 1128600, Note_on_c, 0, 39, 49
3, 1128600, Note_on_c, 0, 46, 51
3, 1128600, Note_on_c, 0, 54, 52
3, 1128925, Note_on_c, 0, 54, 0
3, 1128925, Note_on_c, 0, 39, 0
3, 1128925, Note_on_c, 0, 46, 0
3, 1129140, Note_on_c, 0, 58, 49
3, 1129140, Note_on_c, 0, 63, 49
3, 1129465, Note_on_c, 0, 63, 0
3, 1129465, Note_on_c, 0, 58, 0
3, 1129680, Note_on_c, 0, 42, 52
3, 1129680, Note_on_c, 0, 49, 50
3, 1129680, Note_on_c, 0, 58, 52
3, 1130005, Note_on_c, 0, 58, 0
3, 1130005, Note_on_c, 0, 42, 0
3, 1130005, Note_on_c, 0, 49, 0
3, 1130220, Note_on_c, 0, 58, 47
3, 1130220, Note_on_c, 0, 61, 50
3, 1130545, Note_on_c, 0, 61, 0
3, 1130545, Note_on_c, 0, 58, 0
3, 1130690, Note_on_c, 0, 70, 0
3, 1130690, Note_on_c, 0, 66, 0
3, 1130760, Note_on_c, 0, 64, 48
3, 1130760, Note_on_c, 0, 68, 47
3, 1130760, Note_on_c, 0, 37, 50
3, 1130760, Note_on_c, 0, 44, 50
3, 1130760, Note_on_c, 0, 52, 53
3, 1131085, Note_on_c, 0, 52, 0
3, 1131085, Note_on_c, 0, 37, 0
3, 1131085, Note_on_c, 0, 44, 0
3, 1131300, Note_on_c, 0, 56, 50
3, 1131300, Note_on_c, 0, 61, 46
3, 1131625, Note_on_c, 0, 61, 0
3, 1131625, Note_on_c, 0, 56, 0
3, 1131840, Note_on_c, 0, 40, 51
3, 1131840, Note_on_c, 0, 47, 51
3, 1131840, Note_on_c, 0, 56, 50
3, 1132165, Note_on_c, 0, 56, 0
3, 1132165, Note_on_c, 0, 47, 0
3, 1132165, Note_on_c, 0, 40, 0
3, 1132380, Note_on_c, 0, 56, 49
3, 1132380, Note_on_c, 0, 59, 47
3, 1132705, Note_on_c, 0, 59, 0
3, 1132705, Note_on_c, 0, 56, 0
3, 1132850, Note_on_c, 0, 68, 0
3, 1132850, Note_on_c, 0, 64, 0
3, 1132920, Note_on_c, 0, 63, 48
3, 1132920, Note_on_c, 0, 66, 48
3, 1132920, Note_on_c, 0, 35, 51
3, 1132920, Note_on_c, 0, 42, 50
3, 1132920, Note_on_c, 0, 51, 53
3, 1133245, Note_on_c, 0, 51, 0
3, 1133245, Note_on_c, 0, 35, 0
3, 1133245, Note_on_c, 0, 42, 0
3, 1133460, Note_on_c, 0, 54, 47
3, 1133460, Note_on_c, 0, 59, 47
3, 1133785, Note_on_c, 0, 59, 0
3, 1133785, Note_on_c, 0, 54, 0
3, 1134000, Note_on_c, 0, 63, 0
3, 1134000, Note_on_c, 0, 66, 0
3, 1134000, Note_on_c, 0, 63, 50
3, 1134000, Note_on_c, 0, 65, 50
3, 1134000, Note_on_c, 0, 32, 53
3, 1134000, Note_on_c, 0, 39, 51
3, 1134000, Note_on_c, 0, 47, 50
3, 1134325, Note_on_c, 0, 39, 0
3, 1134325, Note_on_c, 0, 32, 0
3, 1134325, Note_on_c, 0, 47, 0
3, 1134540, Note_on_c, 0, 53, 48
3, 1134540, Note_on_c, 0, 59, 49
3, 1134865, Note_on_c, 0, 59, 0
3, 1134865, Note_on_c, 0, 53, 0
3, 1135080, Note_on_c, 0, 63, 0
3, 1135080, Note_on_c, 0, 65, 0
3, 1135080, Note_on_c, 0, 63, 52
3, 1135080, Note_on_c, 0, 66, 53
3, 1135080, Note_on_c, 0, 39, 50
3, 1135080, Note_on_c, 0, 46, 51
3, 1135080, Note_on_c, 0, 54, 53
3, 1135405, Note_on_c, 0, 54, 0
3, 1135405, Note_on_c, 0, 39, 0
3, 1135405, Note_on_c, 0, 46, 0
3, 1135620, Note_on_c, 0, 54, 49
3, 1135620, Note_on_c, 0, 58, 47
3, 1135945, Note_on_c, 0, 58, 0
3, 1135945, Note_on_c, 0, 54, 0
3, 1136160, Note_on_c, 0, 63, 0
3, 1136160, Note_on_c, 0, 66, 0
3, 1136160, Note_on_c, 0, 63, 52
3, 1136160, Note_on_c, 0, 66, 53
3, 1136160, Note_on_c, 0, 39, 50
3, 1136160, Note_on_c, 0, 46, 51
3, 1136485, Note_on_c, 0, 46, 0
3, 1136485, Note_on_c, 0, 39, 0
3, 1136700, Note_on_c, 0, 54, 48
3, 1136700, Note_on_c, 0, 58, 50
3, 1137025, Note_on_c, 0, 58, 0
3, 1137025, Note_on_c, 0, 54, 0
3, 1137240, Note_on_c, 0, 66, 0
3, 1137240, Note_on_c, 0, 63, 0
3, 1137240, Note_on_c, 0, 61, 48
3, 1137240, Note_on_c, 0, 65, 49
3, 1137240, Note_on_c, 0, 34, 49
3, 1137240, Note_on_c, 0, 46, 53
3, 1137565, Note_on_c, 0, 46, 0
3, 1137565, Note_on_c, 0, 34, 0
3, 1137780, Note_on_c, 0, 53, 50
3, 1137780, Note_on_c, 0, 58, 48
3, 1138105, Note_on_c, 0, 58, 0
3, 1138105, Note_on_c, 0, 53, 0
3, 1138320, Note_on_c, 0, 37, 51
3, 1138320, Note_on_c, 0, 44, 50
3, 1138645, Note_on_c, 0, 44, 0
3, 1138645, Note_on_c, 0, 37, 0
3, 1138860, Note_on_c, 0, 53, 46
3, 1138860, Note_on_c, 0, 56, 46
3, 1139185, Note_on_c, 0, 56, 0
3, 1139185, Note_on_c, 0, 53, 0
3, 1139330, Note_on_c, 0, 65, 0
3, 1139330, Note_on_c, 0, 61, 0
3, 1139400, Note_on_c, 0, 59, 49
3, 1139400, Note_on_c, 0, 63, 47
3, 1139400, Note_on_c, 0, 32, 52
3, 1139400, Note_on_c, 0, 44, 53
3, 1139725, Note_on_c, 0, 44, 0
3, 1139725, Note_on_c, 0, 32, 0
3, 1139940, Note_on_c, 0, 51, 50
3, 1139940, Note_on_c, 0, 56, 46
3, 1140265, Note_on_c, 0, 56, 0
3, 1140265, Note_on_c, 0, 51, 0
3, 1140480, Note_on_c, 0, 35, 49
3, 1140480, Note_on_c, 0, 42, 49
3, 1140805, Note_on_c, 0, 42, 0
3, 1140805, Note_on_c, 0, 35, 0
3, 1141020, Note_on_c, 0, 51, 48
3, 1141020, Note_on_c, 0, 54, 48
3, 1141345, Note_on_c, 0, 54, 0
3, 1141345, Note_on_c, 0, 51, 0
3, 1141560, Note_on_c, 0, 63, 0
3, 1141560, Note_on_c, 0, 59, 0
3, 1141560, Note_on_c, 0, 58, 48
3, 1141560, Note_on_c, 0, 61, 50
3, 1141560, Note_on_c, 0, 30, 51
3, 1141560, Note_on_c, 0, 42, 53
3, 1141885, Note_on_c, 0, 42, 0
3, 1141885, Note_on_c, 0, 30, 0
3, 1142100, Note_on_c, 0, 49, 46
3, 1142100, Note_on_c, 0, 54, 49
3, 1142425, Note_on_c, 0, 54, 0
3, 1142425, Note_on_c, 0, 49, 0
3, 1142640, Note_on_c, 0, 61, 0
3, 1142640, Note_on_c, 0, 58, 0
3, 1142640, Note_on_c, 0, 56, 49
3, 1142640, Note_on_c, 0, 59, 46
3, 1142640, Note_on_c, 0, 32, 51
3, 1142640, Note_on_c, 0, 44, 52
3, 1142965, Note_on_c, 0, 44, 0
3, 1142965, Note_on_c, 0, 32, 0
3, 1143180, Note_on_c, 0, 47, 47
3, 1143180, Note_on_c, 0, 52, 47
3, 1143505, Note_on_c, 0, 52, 0
3, 1143505, Note_on_c, 0, 47, 0
3, 1143720, Note_on_c, 0, 56, 0
3, 1143720, Note_on_c, 0, 59, 0
3, 1143720, Note_on_c, 0, 56, 48
3, 1143720, Note_on_c, 0, 58, 47
3, 1143720, Note_on_c, 0, 34, 49
3, 1143720, Note_on_c, 0, 46, 50
3, 1144045, Note_on_c, 0, 46, 0
3, 1144045, Note_on_c, 0, 34, 0
3, 1144260, Note_on_c, 0, 46, 47
3, 1144260, Note_on_c, 0, 50, 49
3, 1144585, Note_on_c, 0, 50, 0
3, 1144585, Note_on_c, 0, 46, 0
3, 1144800, Note_on_c, 0, 58, 0
3, 1144800, Note_on_c, 0, 56, 0
3, 1144800, Note_on_c, 0, 63, 49
3, 1144800, Note_on_c, 0, 39, 52
3, 1144800, Note_on_c, 0, 46, 52
3, 1145125, Note_on_c, 0, 46, 0
3, 1145125, Note_on_c, 0, 39, 0
3, 1145340, Note_on_c, 0, 51, 46
3, 1145340, Note_on_c, 0, 54, 47
3, 1145665, Note_on_c, 0, 54, 0
3, 1145665, Note_on_c, 0, 51, 0
3, 1146367, Note_on_c, 0, 63, 0
3, 1146420, Note_on_c, 0, 65, 44
3, 1146420, Note_on_c, 0, 56, 48
3, 1146420, Note_on_c, 0, 62, 49
3, 1146420, Note_on_c, 0, 34, 48
3, 1146420, Note_on_c, 0, 46, 50
3, 1146745, Note_on_c, 0, 46, 0
3, 1146745, Note_on_c, 0, 65, 0
3, 1146745, Note_on_c, 0, 56, 0
3, 1146745, Note_on_c, 0, 62, 0
3, 1146745, Note_on_c, 0, 34, 0
3, 1146780, Note_on_c, 0, 66, 45
3, 1146943, Note_on_c, 0, 66, 0
3, 1146960, Note_on_c, 0, 63, 44
3, 1146960, Note_on_c, 0, 39, 49
3, 1146960, Note_on_c, 0, 46, 50
3, 1147285, Note_on_c, 0, 46, 0
3, 1147285, Note_on_c, 0, 39, 0
3, 1147500, Note_on_c, 0, 51, 46
3, 1147500, Note_on_c, 0, 54, 47
3, 1147825, Note_on_c, 0, 54, 0
3, 1147825, Note_on_c, 0, 51, 0
3, 1147970, Note_on_c, 0, 63, 0
3, 1148040, Note_on_c, 0, 63, 44
3, 1148527, Note_on_c, 0, 63, 0
3, 1148580, Note_on_c, 0, 65, 44
3, 1148580, Note_on_c, 0, 56, 48
3, 1148580, Note_on_c, 0, 62, 47
3, 1148580, Note_on_c, 0, 34, 47
3, 1148580, Note_on_c, 0, 46, 46
3, 1148757, Note_on_c, 0, 65, 0
3, 1148905, Note_on_c, 0, 56, 0
3, 1148905, Note_on_c, 0, 62, 0
3, 1148905, Note_on_c, 0, 34, 0
3, 1148905, Note_on_c, 0, 46, 0
3, 1148940, Note_on_c, 0, 66, 45
3, 1149103, Note_on_c, 0, 66, 0
3, 1149120, Note_on_c, 0, 63, 41
3, 1149120, Note_on_c, 0, 39, 50
3, 1149120, Note_on_c, 0, 46, 50
3, 1149445, Note_on_c, 0, 46, 0
3, 1149445, Note_on_c, 0, 39, 0
3, 1149660, Note_on_c, 0, 51, 50
3, 1149660, Note_on_c, 0, 54, 47
3, 1149985, Note_on_c, 0, 54, 0
3, 1149985, Note_on_c, 0, 51, 0
3, 1150130, Note_on_c, 0, 63, 0
3, 1150200, Note_on_c, 0, 66, 55
3, 1150200, Note_on_c, 0, 37, 52
3, 1150200, Note_on_c, 0, 49, 49
3, 1150525, Note_on_c, 0, 49, 0
3, 1150525, Note_on_c, 0, 37, 0
3, 1150740, Note_on_c, 0, 58, 48
3, 1150740, Note_on_c, 0, 64, 47
3, 1151065, Note_on_c, 0, 64, 0
3, 1151065, Note_on_c, 0, 58, 0
3, 1151280, Note_on_c, 0, 66, 0
3, 1151280, Note_on_c, 0, 71, 56
3, 1151280, Note_on_c, 0, 35, 50
3, 1151280, Note_on_c, 0, 47, 53
3, 1151605, Note_on_c, 0, 35, 0
3, 1151605, Note_on_c, 0, 47, 0
3, 1151820, Note_on_c, 0, 57, 49
3, 1151820, Note_on_c, 0, 63, 49
3, 1152145, Note_on_c, 0, 63, 0
3, 1152145, Note_on_c, 0, 57, 0
3, 1152360, Note_on_c, 0, 71, 0
3, 1152360, Note_on_c, 0, 66, 40
3, 1152360, Note_on_c, 0, 34, 52
3, 1152360, Note_on_c, 0, 46, 53
3, 1152685, Note_on_c, 0, 46, 0
3, 1152685, Note_on_c, 0, 34, 0
3, 1152900, Note_on_c, 0, 56, 46
3, 1152900, Note_on_c, 0, 62, 49
3, 1153225, Note_on_c, 0, 62, 0
3, 1153225, Note_on_c, 0, 56, 0
3, 1153370, Note_on_c, 0, 66, 0
3, 1153440, Note_on_c, 0, 63, 43
3, 1153440, Note_on_c, 0, 39, 51
3, 1153440, Note_on_c, 0, 46, 52
3, 1153765, Note_on_c, 0, 46, 0
3, 1153765, Note_on_c, 0, 39, 0
3, 1153980, Note_on_c, 0, 51, 46
3, 1153980, Note_on_c, 0, 54, 47
3, 1154305, Note_on_c, 0, 54, 0
3, 1154305, Note_on_c, 0, 51, 0
3, 1154450, Note_on_c, 0, 63, 0
3, 1154520, Note_on_c, 0, 63, 46
3, 1154520, Note_on_c, 0, 39, 51
3, 1154520, Note_on_c, 0, 46, 53
3, 1154683, Note_on_c, 0, 63, 0
3, 1154700, Note_on_c, 0, 62, 42
3, 1154845, Note_on_c, 0, 46, 0
3, 1154845, Note_on_c, 0, 39, 0
3, 1154863, Note_on_c, 0, 62, 0
3, 1154880, Note_on_c, 0, 63, 42
3, 1155043, Note_on_c, 0, 63, 0
3, 1155060, Note_on_c, 0, 65, 46
3, 1155060, Note_on_c, 0, 56, 47
3, 1155060, Note_on_c, 0, 62, 47
3, 1155060, Note_on_c, 0, 34, 49
3, 1155060, Note_on_c, 0, 46, 46
3, 1155385, Note_on_c, 0, 46, 0
3, 1155385, Note_on_c, 0, 65, 0
3, 1155385, Note_on_c, 0, 56, 0
3, 1155385, Note_on_c, 0, 62, 0
3, 1155385, Note_on_c, 0, 34, 0
3, 1155420, Note_on_c, 0, 66, 46
3, 1155583, Note_on_c, 0, 66, 0
3, 1155600, Note_on_c, 0, 63, 45
3, 1155600, Note_on_c, 0, 39, 49
3, 1155600, Note_on_c, 0, 46, 51
3, 1155925, Note_on_c, 0, 46, 0
3, 1155925, Note_on_c, 0, 39, 0
3, 1156140, Note_on_c, 0, 51, 48
3, 1156140, Note_on_c, 0, 54, 47
3, 1156465, Note_on_c, 0, 54, 0
3, 1156465, Note_on_c, 0, 51, 0
3, 1156610, Note_on_c, 0, 63, 0
3, 1156680, Note_on_c, 0, 63, 46
3, 1156680, Note_on_c, 0, 39, 52
3, 1156680, Note_on_c, 0, 46, 52
3, 1156843, Note_on_c, 0, 63, 0
3, 1156860, Note_on_c, 0, 62, 40
3, 1157005, Note_on_c, 0, 46, 0
3, 1157005, Note_on_c, 0, 39, 0
3, 1157023, Note_on_c, 0, 62, 0
3, 1157040, Note_on_c, 0, 63, 43
3, 1157203, Note_on_c, 0, 63, 0
3, 1157220, Note_on_c, 0, 65, 45
3, 1157220, Note_on_c, 0, 56, 47
3, 1157220, Note_on_c, 0, 62, 46
3, 1157220, Note_on_c, 0, 34, 48
3, 1157220, Note_on_c, 0, 46, 47
3, 1157545, Note_on_c, 0, 46, 0
3, 1157545, Note_on_c, 0, 65, 0
3, 1157545, Note_on_c, 0, 56, 0
3, 1157545, Note_on_c, 0, 62, 0
3, 1157545, Note_on_c, 0, 34, 0
3, 1157580, Note_on_c, 0, 66, 45
3, 1157743, Note_on_c, 0, 66, 0
3, 1157760, Note_on_c, 0, 63, 43
3, 1157760, Note_on_c, 0, 39, 51
3, 1157760, Note_on_c, 0, 46, 52
3, 1158085, Note_on_c, 0, 46, 0
3, 1158085, Note_on_c, 0, 39, 0
3, 1158300, Note_on_c, 0, 51, 47
3, 1158300, Note_on_c, 0, 54, 50
3, 1158570, Note_on_c, 0, 37, 48
3, 1158625, Note_on_c, 0, 54, 0
3, 1158625, Note_on_c, 0, 51, 0
3, 1158770, Note_on_c, 0, 63, 0
3, 1158813, Note_on_c, 0, 37, 0
3, 1158840, Note_on_c, 0, 66, 56
3, 1158840, Note_on_c, 0, 35, 68
3, 1158840, Note_on_c, 0, 47, 64
3, 1159165, Note_on_c, 0, 35, 0
3, 1159165, Note_on_c, 0, 47, 0
3, 1159380, Note_on_c, 0, 57, 47
3, 1159380, Note_on_c, 0, 63, 48
3, 1159650, Note_on_c, 0, 30, 47
3, 1159705, Note_on_c, 0, 63, 0
3, 1159705, Note_on_c, 0, 57, 0
3, 1159893, Note_on_c, 0, 30, 0
3, 1159920, Note_on_c, 0, 66, 0
3, 1159920, Note_on_c, 0, 71, 58
3, 1159920, Note_on_c, 0, 29, 67
3, 1159920, Note_on_c, 0, 41, 67
3, 1160245, Note_on_c, 0, 41, 0
3, 1160245, Note_on_c, 0, 29, 0
3, 1160460, Note_on_c, 0, 56, 49
3, 1160460, Note_on_c, 0, 63, 47
3, 1160730, Note_on_c, 0, 35, 46
3, 1160785, Note_on_c, 0, 63, 0
3, 1160785, Note_on_c, 0, 56, 0
3, 1160973, Note_on_c, 0, 35, 0
3, 1161000, Note_on_c, 0, 71, 0
3, 1161000, Note_on_c, 0, 66, 46
3, 1161000, Note_on_c, 0, 34, 67
3, 1161000, Note_on_c, 0, 46, 66
3, 1161325, Note_on_c, 0, 46, 0
3, 1161325, Note_on_c, 0, 34, 0
3, 1161540, Note_on_c, 0, 56, 49
3, 1161540, Note_on_c, 0, 62, 50
3, 1161810, Note_on_c, 0, 46, 47
3, 1161865, Note_on_c, 0, 62, 0
3, 1161865, Note_on_c, 0, 56, 0
3, 1162053, Note_on_c, 0, 46, 0
3, 1162080, Note_on_c, 0, 66, 0
3, 1162080, Note_on_c, 0, 39, 53
3, 1162080, Note_on_c, 0, 51, 51
3, 1162350, Note_on_c, 0, 54, 37
3, 1162593, Note_on_c, 0, 54, 0
3, 1162620, Note_on_c, 0, 58, 51
3, 1162863, Note_on_c, 0, 58, 0
3, 1162890, Note_on_c, 0, 63, 46
3, 1163090, Note_on_c, 0, 51, 0
3, 1163090, Note_on_c, 0, 39, 0
3, 1163133, Note_on_c, 0, 63, 0
3, 1163160, Note_on_c, 0, 37, 52
3, 1163160, Note_on_c, 0, 49, 52
3, 1163430, Note_on_c, 0, 54, 40
3, 1163673, Note_on_c, 0, 54, 0
3, 1163700, Note_on_c, 0, 58, 47
3, 1163943, Note_on_c, 0, 58, 0
3, 1163970, Note_on_c, 0, 63, 46
3, 1164170, Note_on_c, 0, 49, 0
3, 1164170, Note_on_c, 0, 37, 0
3, 1164213, Note_on_c, 0, 63, 0
3, 1164240, Note_on_c, 0, 36, 55
3, 1164240, Note_on_c, 0, 48, 54
3, 1164510, Note_on_c, 0, 54, 39
3, 1164753, Note_on_c, 0, 54, 0
3, 1164780, Note_on_c, 0, 58, 49
3, 1165023, Note_on_c, 0, 58, 0
3, 1165050, Note_on_c, 0, 63, 48
3, 1165250, Note_on_c, 0, 48, 0
3, 1165250, Note_on_c, 0, 36, 0
3, 1165293, Note_on_c, 0, 63, 0
3, 1165320, Note_on_c, 0, 35, 52
3, 1165320, Note_on_c, 0, 47, 55
3, 1165590, Note_on_c, 0, 54, 37
3, 1165833, Note_on_c, 0, 54, 0
3, 1165860, Note_on_c, 0, 59, 51
3, 1166103, Note_on_c, 0, 59, 0
3, 1166130, Note_on_c, 0, 62, 47
3, 1166330, Note_on_c, 0, 35, 0
3, 1166330, Note_on_c, 0, 47, 0
3, 1166373, Note_on_c, 0, 62, 0
3, 1166400, Note_on_c, 0, 34, 54
3, 1166400, Note_on_c, 0, 46, 51
3, 1166670, Note_on_c, 0, 53, 40
3, 1166913, Note_on_c, 0, 53, 0
3, 1166940, Note_on_c, 0, 58, 51
3, 1167183, Note_on_c, 0, 58, 0
3, 1167210, Note_on_c, 0, 62, 49
3, 1167410, Note_on_c, 0, 46, 0
3, 1167410, Note_on_c, 0, 34, 0
3, 1167453, Note_on_c, 0, 62, 0
3, 1167480, Note_on_c, 0, 32, 50
3, 1167480, Note_on_c, 0, 44, 52
3, 1167750, Note_on_c, 0, 51, 38
3, 1167993, Note_on_c, 0, 51, 0
3, 1168020, Note_on_c, 0, 56, 48
3, 1168263, Note_on_c, 0, 56, 0
3, 1168290, Note_on_c, 0, 59, 48
3, 1168290, Note_on_c, 0, 63, 49
3, 1168490, Note_on_c, 0, 44, 0
3, 1168490, Note_on_c, 0, 32, 0
3, 1168533, Note_on_c, 0, 63, 0
3, 1168533, Note_on_c, 0, 59, 0
3, 1168560, Note_on_c, 0, 30, 51
3, 1168560, Note_on_c, 0, 42, 54
3, 1168830, Note_on_c, 0, 51, 40
3, 1169073, Note_on_c, 0, 51, 0
3, 1169100, Note_on_c, 0, 54, 47
3, 1169343, Note_on_c, 0, 54, 0
3, 1169370, Note_on_c, 0, 59, 53
3, 1169370, Note_on_c, 0, 63, 52
3, 1169570, Note_on_c, 0, 42, 0
3, 1169570, Note_on_c, 0, 30, 0
3, 1169613, Note_on_c, 0, 63, 0
3, 1169613, Note_on_c, 0, 59, 0
3, 1169640, Note_on_c, 0, 29, 52
3, 1169640, Note_on_c, 0, 41, 54
3, 1169910, Note_on_c, 0, 51, 37
3, 1170153, Note_on_c, 0, 51, 0
3, 1170180, Note_on_c, 0, 53, 48
3, 1170423, Note_on_c, 0, 53, 0
3, 1170450, Note_on_c, 0, 57, 53
3, 1170450, Note_on_c, 0, 63, 52
3, 1170650, Note_on_c, 0, 41, 0
3, 1170650, Note_on_c, 0, 29, 0
3, 1170693, Note_on_c, 0, 63, 0
3, 1170693, Note_on_c, 0, 57, 0
3, 1170720, Note_on_c, 0, 54, 43
3, 1170720, Note_on_c, 0, 58, 42
3, 1170720, Note_on_c, 0, 27, 52
3, 1170720, Note_on_c, 0, 39, 50
3, 1171207, Note_on_c, 0, 58, 0
3, 1171207, Note_on_c, 0, 54, 0
3, 1171260, Note_on_c, 0, 46, 44
3, 1171260, Note_on_c, 0, 51, 43
3, 1171260, Note_on_c, 0, 54, 45
3, 1171260, Note_on_c, 0, 58, 47
3, 1171349, Note_on_c, 0, 58, 0
3, 1171349, Note_on_c, 0, 51, 0
3, 1171349, Note_on_c, 0, 46, 0
3, 1171349, Note_on_c, 0, 54, 0
3, 1171800, Note_on_c, 0, 47, 44
3, 1171800, Note_on_c, 0, 51, 43
3, 1171800, Note_on_c, 0, 54, 42
3, 1171800, Note_on_c, 0, 59, 44
3, 1171889, Note_on_c, 0, 59, 0
3, 1171889, Note_on_c, 0, 51, 0
3, 1171889, Note_on_c, 0, 47, 0
3, 1171889, Note_on_c, 0, 54, 0
3, 1172340, Note_on_c, 0, 49, 41
3, 1172340, Note_on_c, 0, 51, 42
3, 1172340, Note_on_c, 0, 54, 43
3, 1172340, Note_on_c, 0, 61, 41
3, 1172429, Note_on_c, 0, 61, 0
3, 1172429, Note_on_c, 0, 51, 0
3, 1172429, Note_on_c, 0, 49, 0
3, 1172429, Note_on_c, 0, 54, 0
3, 1172810, Note_on_c, 0, 27, 0
3, 1172810, Note_on_c, 0, 39, 0
3, 1172880, Note_on_c, 0, 46, 41
3, 1172880, Note_on_c, 0, 51, 43
3, 1172880, Note_on_c, 0, 54, 43
3, 1172880, Note_on_c, 0, 58, 43
3, 1172880, Note_on_c, 0, 27, 55
3, 1172880, Note_on_c, 0, 39, 57
3, 1172969, Note_on_c, 0, 58, 0
3, 1172969, Note_on_c, 0, 54, 0
3, 1172969, Note_on_c, 0, 51, 0
3, 1172969, Note_on_c, 0, 46, 0
3, 1173420, Note_on_c, 0, 46, 37
3, 1173420, Note_on_c, 0, 51, 39
3, 1173420, Note_on_c, 0, 54, 39
3, 1173420, Note_on_c, 0, 58, 40
3, 1173509, Note_on_c, 0, 58, 0
3, 1173509, Note_on_c, 0, 51, 0
3, 1173509, Note_on_c, 0, 46, 0
3, 1173509, Note_on_c, 0, 54, 0
3, 1173960, Note_on_c, 0, 47, 40
3, 1173960, Note_on_c, 0, 51, 41
3, 1173960, Note_on_c, 0, 54, 42
3, 1173960, Note_on_c, 0, 59, 42
3, 1174049, Note_on_c, 0, 59, 0
3, 1174049, Note_on_c, 0, 51, 0
3, 1174049, Note_on_c, 0, 47, 0
3, 1174049, Note_on_c, 0, 54, 0
3, 1174500, Note_on_c, 0, 49, 40
3, 1174500, Note_on_c, 0, 51, 40
3, 1174500, Note_on_c, 0, 54, 37
3, 1174500, Note_on_c, 0, 61, 38
3, 1174589, Note_on_c, 0, 61, 0
3, 1174589, Note_on_c, 0, 51, 0
3, 1174589, Note_on_c, 0, 49, 0
3, 1174589, Note_on_c, 0, 54, 0
3, 1174970, Note_on_c, 0, 27, 0
3, 1174970, Note_on_c, 0, 39, 0
3, 1175040, Note_on_c, 0, 46, 43
3, 1175040, Note_on_c, 0, 51, 43
3, 1175040, Note_on_c, 0, 54, 44
3, 1175040, Note_on_c, 0, 58, 41
3, 1175040, Note_on_c, 0, 27, 54
3, 1175040, Note_on_c, 0, 39, 55
3, 1175129, Note_on_c, 0, 58, 0
3, 1175129, Note_on_c, 0, 54, 0
3, 1175129, Note_on_c, 0, 51, 0
3, 1175129, Note_on_c, 0, 46, 0
3, 1175580, Note_on_c, 0, 47, 37
3, 1175580, Note_on_c, 0, 54, 40
3, 1175580, Note_on_c, 0, 59, 38
3, 1175905, Note_on_c, 0, 59, 0
3, 1175905, Note_on_c, 0, 47, 0
3, 1175905, Note_on_c, 0, 54, 0
3, 1175940, Note_on_c, 0, 61, 45
3, 1176050, Note_on_c, 0, 39, 0
3, 1176050, Note_on_c, 0, 27, 0
3, 1176103, Note_on_c, 0, 61, 0
3, 1176120, Note_on_c, 0, 46, 42
3, 1176120, Note_on_c, 0, 54, 43
3, 1176120, Note_on_c, 0, 58, 43
3, 1176120, Note_on_c, 0, 27, 58
3, 1176120, Note_on_c, 0, 39, 55
3, 1176297, Note_on_c, 0, 58, 0
3, 1176297, Note_on_c, 0, 54, 0
3, 1176297, Note_on_c, 0, 46, 0
3, 1176660, Note_on_c, 0, 47, 38
3, 1176660, Note_on_c, 0, 54, 38
3, 1176660, Note_on_c, 0, 59, 38
3, 1176985, Note_on_c, 0, 59, 0
3, 1176985, Note_on_c, 0, 47, 0
3, 1176985, Note_on_c, 0, 54, 0
3, 1177020, Note_on_c, 0, 61, 42
3, 1177130, Note_on_c, 0, 27, 0
3, 1177130, Note_on_c, 0, 39, 0
3, 1177183, Note_on_c, 0, 61, 0
3, 1177200, Note_on_c, 0, 46, 42
3, 1177200, Note_on_c, 0, 54, 43
3, 1177200, Note_on_c, 0, 58, 42
3, 1177200, Note_on_c, 0, 27, 54
3, 1177200, Note_on_c, 0, 39, 57
3, 1177377, Note_on_c, 0, 58, 0
3, 1177377, Note_on_c, 0, 54, 0
3, 1177377, Note_on_c, 0, 46, 0
3, 1177740, Note_on_c, 0, 47, 37
3, 1177740, Note_on_c, 0, 54, 38
3, 1177740, Note_on_c, 0, 59, 40
3, 1178065, Note_on_c, 0, 59, 0
3, 1178065, Note_on_c, 0, 47, 0
3, 1178065, Note_on_c, 0, 54, 0
3, 1178100, Note_on_c, 0, 61, 45
3, 1178210, Note_on_c, 0, 27, 0
3, 1178210, Note_on_c, 0, 39, 0
3, 1178263, Note_on_c, 0, 61, 0
3, 1178280, Note_on_c, 0, 46, 42
3, 1178280, Note_on_c, 0, 54, 42
3, 1178280, Note_on_c, 0, 58, 44
3, 1178280, Note_on_c, 0, 27, 54
3, 1178280, Note_on_c, 0, 39, 57
3, 1178457, Note_on_c, 0, 58, 0
3, 1178457, Note_on_c, 0, 54, 0
3, 1178457, Note_on_c, 0, 46, 0
3, 1178605, Note_on_c, 0, 39, 0
3, 1178605, Note_on_c, 0, 27, 0
3, 1178820, Note_on_c, 0, 51, 41
3, 1178820, Note_on_c, 0, 54, 41
3, 1178820, Note_on_c, 0, 60, 39
3, 1178820, Note_on_c, 0, 63, 40
3, 1178820, Note_on_c, 0, 32, 50
3, 1178820, Note_on_c, 0, 44, 53
3, 1178983, Note_on_c, 0, 44, 0
3, 1178983, Note_on_c, 0, 63, 0
3, 1178983, Note_on_c, 0, 51, 0
3, 1178983, Note_on_c, 0, 54, 0
3, 1178983, Note_on_c, 0, 60, 0
3, 1178983, Note_on_c, 0, 32, 0
3, 1179360, Note_on_c, 0, 53, 43
3, 1179360, Note_on_c, 0, 56, 44
3, 1179360, Note_on_c, 0, 61, 41
3, 1179360, Note_on_c, 0, 65, 43
3, 1179360, Note_on_c, 0, 25, 53
3, 1179360, Note_on_c, 0, 37, 51
3, 1179523, Note_on_c, 0, 37, 0
3, 1179523, Note_on_c, 0, 65, 0
3, 1179523, Note_on_c, 0, 53, 0
3, 1179523, Note_on_c, 0, 56, 0
3, 1179523, Note_on_c, 0, 61, 0
3, 1179523, Note_on_c, 0, 25, 0
3, 1179900, Note_on_c, 0, 58, 40
3, 1179900, Note_on_c, 0, 58, 33
3, 1180063, Note_on_c, 0, 58, 0
3, 1180080, Note_on_c, 0, 53, 37
3, 1180243, Note_on_c, 0, 53, 0
3, 1180260, Note_on_c, 0, 56, 45
3, 1180387, Note_on_c, 0, 58, 0
3, 1180423, Note_on_c, 0, 56, 0
3, 1180440, Note_on_c, 0, 58, 49
3, 1180440, Note_on_c, 0, 58, 46
3, 1180603, Note_on_c, 0, 58, 0
3, 1180620, Note_on_c, 0, 53, 36
3, 1180783, Note_on_c, 0, 53, 0
3, 1180800, Note_on_c, 0, 56, 47
3, 1180927, Note_on_c, 0, 58, 0
3, 1180963, Note_on_c, 0, 56, 0
3, 1180980, Note_on_c, 0, 60, 49
3, 1180980, Note_on_c, 0, 60, 46
3, 1180980, Note_on_c, 0, 32, 47
3, 1180980, Note_on_c, 0, 44, 49
3, 1181143, Note_on_c, 0, 60, 0
3, 1181160, Note_on_c, 0, 54, 35
3, 1181323, Note_on_c, 0, 54, 0
3, 1181340, Note_on_c, 0, 56, 42
3, 1181467, Note_on_c, 0, 44, 0
3, 1181467, Note_on_c, 0, 32, 0
3, 1181467, Note_on_c, 0, 60, 0
3, 1181503, Note_on_c, 0, 56, 0
3, 1181520, Note_on_c, 0, 61, 81
3, 1181520, Note_on_c, 0, 61, 73
3, 1181520, Note_on_c, 0, 37, 77
3, 1181520, Note_on_c, 0, 44, 79
3, 1181683, Note_on_c, 0, 61, 0
3, 1181700, Note_on_c, 0, 56, 38
3, 1181863, Note_on_c, 0, 56, 0
3, 1181880, Note_on_c, 0, 53, 38
3, 1182007, Note_on_c, 0, 61, 0
3, 1182043, Note_on_c, 0, 53, 0
3, 1182060, Note_on_c, 0, 58, 48
3, 1182060, Note_on_c, 0, 58, 38
3, 1182223, Note_on_c, 0, 58, 0
3, 1182240, Note_on_c, 0, 53, 38
3, 1182403, Note_on_c, 0, 53, 0
3, 1182420, Note_on_c, 0, 56, 46
3, 1182547, Note_on_c, 0, 58, 0
3, 1182583, Note_on_c, 0, 56, 0
3, 1182600, Note_on_c, 0, 58, 49
3, 1182600, Note_on_c, 0, 58, 47
3, 1182763, Note_on_c, 0, 58, 0
3, 1182780, Note_on_c, 0, 53, 39
3, 1182925, Note_on_c, 0, 44, 0
3, 1182925, Note_on_c, 0, 37, 0
3, 1182943, Note_on_c, 0, 53, 0
3, 1182960, Note_on_c, 0, 56, 43
3, 1183087, Note_on_c, 0, 58, 0
3, 1183123, Note_on_c, 0, 56, 0
3, 1183140, Note_on_c, 0, 60, 51
3, 1183140, Note_on_c, 0, 60, 46
3, 1183140, Note_on_c, 0, 32, 46
3, 1183140, Note_on_c, 0, 44, 49
3, 1183303, Note_on_c, 0, 60, 0
3, 1183320, Note_on_c, 0, 54, 36
3, 1183483, Note_on_c, 0, 54, 0
3, 1183500, Note_on_c, 0, 56, 42
3, 1183627, Note_on_c, 0, 44, 0
3, 1183627, Note_on_c, 0, 32, 0
3, 1183627, Note_on_c, 0, 60, 0
3, 1183663, Note_on_c, 0, 56, 0
3, 1183680, Note_on_c, 0, 61, 81
3, 1183680, Note_on_c, 0, 61, 74
3, 1183680, Note_on_c, 0, 37, 78
3, 1183680, Note_on_c, 0, 44, 77
3, 1183843, Note_on_c, 0, 61, 0
3, 1183860, Note_on_c, 0, 56, 38
3, 1184023, Note_on_c, 0, 56, 0
3, 1184040, Note_on_c, 0, 53, 39
3, 1184167, Note_on_c, 0, 61, 0
3, 1184203, Note_on_c, 0, 53, 0
3, 1184220, Note_on_c, 0, 58, 51
3, 1184220, Note_on_c, 0, 58, 38
3, 1184383, Note_on_c, 0, 58, 0
3, 1184400, Note_on_c, 0, 53, 38
3, 1184563, Note_on_c, 0, 53, 0
3, 1184580, Note_on_c, 0, 56, 45
3, 1184707, Note_on_c, 0, 58, 0
3, 1184743, Note_on_c, 0, 56, 0
3, 1184760, Note_on_c, 0, 58, 50
3, 1184760, Note_on_c, 0, 58, 44
3, 1184923, Note_on_c, 0, 58, 0
3, 1184940, Note_on_c, 0, 53, 37
3, 1185085, Note_on_c, 0, 44, 0
3, 1185085, Note_on_c, 0, 37, 0
3, 1185103, Note_on_c, 0, 53, 0
3, 1185120, Note_on_c, 0, 56, 44
3, 1185247, Note_on_c, 0, 58, 0
3, 1185283, Note_on_c, 0, 56, 0
3, 1185300, Note_on_c, 0, 60, 50
3, 1185300, Note_on_c, 0, 60, 47
3, 1185300, Note_on_c, 0, 32, 50
3, 1185300, Note_on_c, 0, 44, 46
3, 1185463, Note_on_c, 0, 60, 0
3, 1185480, Note_on_c, 0, 54, 35
3, 1185643, Note_on_c, 0, 54, 0
3, 1185660, Note_on_c, 0, 56, 43
3, 1185787, Note_on_c, 0, 44, 0
3, 1185787, Note_on_c, 0, 32, 0
3, 1185787, Note_on_c, 0, 60, 0
3, 1185823, Note_on_c, 0, 56, 0
3, 1185840, Note_on_c, 0, 61, 51
3, 1185840, Note_on_c, 0, 61, 47
3, 1185840, Note_on_c, 0, 37, 63
3, 1185840, Note_on_c, 0, 49, 62
3, 1186003, Note_on_c, 0, 61, 0
3, 1186020, Note_on_c, 0, 56, 36
3, 1186165, Note_on_c, 0, 37, 0
3, 1186165, Note_on_c, 0, 49, 0
3, 1186183, Note_on_c, 0, 56, 0
3, 1186200, Note_on_c, 0, 53, 38
3, 1186327, Note_on_c, 0, 61, 0
3, 1186363, Note_on_c, 0, 53, 0
3, 1186380, Note_on_c, 0, 63, 54
3, 1186380, Note_on_c, 0, 63, 44
3, 1186380, Note_on_c, 0, 34, 48
3, 1186380, Note_on_c, 0, 46, 47
3, 1186543, Note_on_c, 0, 63, 0
3, 1186560, Note_on_c, 0, 61, 43
3, 1186705, Note_on_c, 0, 34, 0
3, 1186705, Note_on_c, 0, 46, 0
3, 1186723, Note_on_c, 0, 61, 0
3, 1186740, Note_on_c, 0, 54, 35
3, 1186867, Note_on_c, 0, 63, 0
3, 1186903, Note_on_c, 0, 54, 0
3, 1186920, Note_on_c, 0, 64, 51
3, 1186920, Note_on_c, 0, 64, 50
3, 1186920, Note_on_c, 0, 33, 49
3, 1186920, Note_on_c, 0, 45, 52
3, 1187083, Note_on_c, 0, 64, 0
3, 1187100, Note_on_c, 0, 61, 41
3, 1187245, Note_on_c, 0, 33, 0
3, 1187245, Note_on_c, 0, 45, 0
3, 1187263, Note_on_c, 0, 61, 0
3, 1187280, Note_on_c, 0, 55, 37
3, 1187407, Note_on_c, 0, 64, 0
3, 1187443, Note_on_c, 0, 55, 0
3, 1187460, Note_on_c, 0, 65, 52
3, 1187460, Note_on_c, 0, 65, 46
3, 1187460, Note_on_c, 0, 32, 48
3, 1187460, Note_on_c, 0, 44, 49
3, 1187623, Note_on_c, 0, 65, 0
3, 1187640, Note_on_c, 0, 60, 37
3, 1187785, Note_on_c, 0, 32, 0
3, 1187785, Note_on_c, 0, 44, 0
3, 1187803, Note_on_c, 0, 60, 0
3, 1187820, Note_on_c, 0, 54, 38
3, 1187947, Note_on_c, 0, 65, 0
3, 1187983, Note_on_c, 0, 54, 0
3, 1188000, Note_on_c, 0, 53, 52
3, 1188000, Note_on_c, 0, 61, 52
3, 1188000, Note_on_c, 0, 37, 51
3, 1188000, Note_on_c, 0, 44, 51
3, 1188163, Note_on_c, 0, 61, 0
3, 1188163, Note_on_c, 0, 53, 0
3, 1188325, Note_on_c, 0, 44, 0
3, 1188325, Note_on_c, 0, 37, 0
3, 1188540, Note_on_c, 0, 58, 44
3, 1188540, Note_on_c, 0, 58, 40
3, 1188703, Note_on_c, 0, 58, 0
3, 1188720, Note_on_c, 0, 53, 37
3, 1188883, Note_on_c, 0, 53, 0
3, 1188900, Note_on_c, 0, 56, 44
3, 1189027, Note_on_c, 0, 58, 0
3, 1189063, Note_on_c, 0, 56, 0
3, 1189080, Note_on_c, 0, 58, 46
3, 1189080, Note_on_c, 0, 58, 47
3, 1189080, Note_on_c, 0, 37, 50
3, 1189080, Note_on_c, 0, 44, 52
3, 1189243, Note_on_c, 0, 58, 0
3, 1189260, Note_on_c, 0, 53, 37
3, 1189423, Note_on_c, 0, 53, 0
3, 1189440, Note_on_c, 0, 56, 43
3, 1189567, Note_on_c, 0, 44, 0
3, 1189567, Note_on_c, 0, 37, 0
3, 1189567, Note_on_c, 0, 58, 0
3, 1189603, Note_on_c, 0, 56, 0
3, 1189620, Note_on_c, 0, 60, 50
3, 1189620, Note_on_c, 0, 60, 45
3, 1189620, Note_on_c, 0, 32, 51
3, 1189620, Note_on_c, 0, 44, 52
3, 1189783, Note_on_c, 0, 60, 0
3, 1189800, Note_on_c, 0, 54, 35
3, 1189963, Note_on_c, 0, 54, 0
3, 1189980, Note_on_c, 0, 56, 42
3, 1190107, Note_on_c, 0, 44, 0
3, 1190107, Note_on_c, 0, 32, 0
3, 1190107, Note_on_c, 0, 60, 0
3, 1190143, Note_on_c, 0, 56, 0
3, 1190160, Note_on_c, 0, 61, 79
3, 1190160, Note_on_c, 0, 61, 75
3, 1190160, Note_on_c, 0, 37, 80
3, 1190160, Note_on_c, 0, 44, 79
3, 1190323, Note_on_c, 0, 61, 0
3, 1190340, Note_on_c, 0, 56, 40
3, 1190503, Note_on_c, 0, 56, 0
3, 1190520, Note_on_c, 0, 53, 39
3, 1190647, Note_on_c, 0, 61, 0
3, 1190683, Note_on_c, 0, 53, 0
3, 1190700, Note_on_c, 0, 58, 49
3, 1190700, Note_on_c, 0, 58, 42
3, 1190863, Note_on_c, 0, 58, 0
3, 1190880, Note_on_c, 0, 53, 36
3, 1191043, Note_on_c, 0, 53, 0
3, 1191060, Note_on_c, 0, 56, 44
3, 1191170, Note_on_c, 0, 44, 0
3, 1191170, Note_on_c, 0, 37, 0
3, 1191187, Note_on_c, 0, 58, 0
3, 1191223, Note_on_c, 0, 56, 0
3, 1191240, Note_on_c, 0, 58, 46
3, 1191240, Note_on_c, 0, 58, 44
3, 1191240, Note_on_c, 0, 37, 56
3, 1191240, Note_on_c, 0, 44, 55
3, 1191403, Note_on_c, 0, 58, 0
3, 1191420, Note_on_c, 0, 53, 36
3, 1191583, Note_on_c, 0, 53, 0
3, 1191600, Note_on_c, 0, 56, 44
3, 1191727, Note_on_c, 0, 44, 0
3, 1191727, Note_on_c, 0, 37, 0
3, 1191727, Note_on_c, 0, 58, 0
3, 1191763, Note_on_c, 0, 56, 0
3, 1191780, Note_on_c, 0, 60, 48
3, 1191780, Note_on_c, 0, 60, 46
3, 1191780, Note_on_c, 0, 32, 51
3, 1191780, Note_on_c, 0, 44, 54
3, 1191943, Note_on_c, 0, 60, 0
3, 1191960, Note_on_c, 0, 54, 39
3, 1192123, Note_on_c, 0, 54, 0
3, 1192140, Note_on_c, 0, 56, 42
3, 1192267, Note_on_c, 0, 44, 0
3, 1192267, Note_on_c, 0, 32, 0
3, 1192267, Note_on_c, 0, 60, 0
3, 1192303, Note_on_c, 0, 56, 0
3, 1192320, Note_on_c, 0, 61, 78
3, 1192320, Note_on_c, 0, 61, 73
3, 1192320, Note_on_c, 0, 37, 79
3, 1192320, Note_on_c, 0, 44, 81
3, 1192483, Note_on_c, 0, 61, 0
3, 1192500, Note_on_c, 0, 56, 37
3, 1192663, Note_on_c, 0, 56, 0
3, 1192680, Note_on_c, 0, 53, 37
3, 1192807, Note_on_c, 0, 61, 0
3, 1192843, Note_on_c, 0, 53, 0
3, 1192860, Note_on_c, 0, 58, 48
3, 1192860, Note_on_c, 0, 58, 40
3, 1193023, Note_on_c, 0, 58, 0
3, 1193040, Note_on_c, 0, 53, 36
3, 1193203, Note_on_c, 0, 53, 0
3, 1193220, Note_on_c, 0, 56, 47
3, 1193330, Note_on_c, 0, 44, 0
3, 1193330, Note_on_c, 0, 37, 0
3, 1193347, Note_on_c, 0, 58, 0
3, 1193383, Note_on_c, 0, 56, 0
3, 1193400, Note_on_c, 0, 58, 50
3, 1193400, Note_on_c, 0, 58, 43
3, 1193400, Note_on_c, 0, 37, 57
3, 1193400, Note_on_c, 0, 44, 58
3, 1193563, Note_on_c, 0, 58, 0
3, 1193580, Note_on_c, 0, 53, 39
3, 1193743, Note_on_c, 0, 53, 0
3, 1193760, Note_on_c, 0, 56, 44
3, 1193887, Note_on_c, 0, 44, 0
3, 1193887, Note_on_c, 0, 37, 0
3, 1193887, Note_on_c, 0, 58, 0
3, 1193923, Note_on_c, 0, 56, 0
3, 1193940, Note_on_c, 0, 60, 49
3, 1193940, Note_on_c, 0, 60, 46
3, 1193940, Note_on_c, 0, 32, 54
3, 1193940, Note_on_c, 0, 44, 54
3, 1194103, Note_on_c, 0, 60, 0
3, 1194120, Note_on_c, 0, 54, 37
3, 1194283, Note_on_c, 0, 54, 0
3, 1194300, Note_on_c, 0, 56, 43
3, 1194427, Note_on_c, 0, 44, 0
3, 1194427, Note_on_c, 0, 32, 0
3, 1194427, Note_on_c, 0, 60, 0
3, 1194463, Note_on_c, 0, 56, 0
3, 1194480, Note_on_c, 0, 61, 52
3, 1194480, Note_on_c, 0, 61, 48
3, 1194480, Note_on_c, 0, 37, 62
3, 1194480, Note_on_c, 0, 49, 63
3, 1194643, Note_on_c, 0, 61, 0
3, 1194660, Note_on_c, 0, 56, 39
3, 1194805, Note_on_c, 0, 37, 0
3, 1194805, Note_on_c, 0, 49, 0
3, 1194823, Note_on_c, 0, 56, 0
3, 1194840, Note_on_c, 0, 53, 40
3, 1194967, Note_on_c, 0, 61, 0
3, 1195003, Note_on_c, 0, 53, 0
3, 1195020, Note_on_c, 0, 61, 54
3, 1195020, Note_on_c, 0, 61, 44
3, 1195020, Note_on_c, 0, 36, 47
3, 1195020, Note_on_c, 0, 48, 49
3, 1195183, Note_on_c, 0, 61, 0
3, 1195200, Note_on_c, 0, 56, 39
3, 1195345, Note_on_c, 0, 36, 0
3, 1195345, Note_on_c, 0, 48, 0
3, 1195363, Note_on_c, 0, 56, 0
3, 1195380, Note_on_c, 0, 53, 37
3, 1195507, Note_on_c, 0, 61, 0
3, 1195543, Note_on_c, 0, 53, 0
3, 1195560, Note_on_c, 0, 61, 53
3, 1195560, Note_on_c, 0, 61, 47
3, 1195560, Note_on_c, 0, 34, 52
3, 1195560, Note_on_c, 0, 46, 52
3, 1195723, Note_on_c, 0, 61, 0
3, 1195740, Note_on_c, 0, 58, 40
3, 1195885, Note_on_c, 0, 34, 0
3, 1195885, Note_on_c, 0, 46, 0
3, 1195903, Note_on_c, 0, 58, 0
3, 1195920, Note_on_c, 0, 53, 37
3, 1196047, Note_on_c, 0, 61, 0
3, 1196083, Note_on_c, 0, 53, 0
3, 1196100, Note_on_c, 0, 63, 54
3, 1196100, Note_on_c, 0, 63, 45
3, 1196100, Note_on_c, 0, 39, 48
3, 1196100, Note_on_c, 0, 51, 49
3, 1196263, Note_on_c, 0, 63, 0
3, 1196280, Note_on_c, 0, 61, 40
3, 1196425, Note_on_c, 0, 39, 0
3, 1196425, Note_on_c, 0, 51, 0
3, 1196443, Note_on_c, 0, 61, 0
3, 1196460, Note_on_c, 0, 55, 38
3, 1196587, Note_on_c, 0, 63, 0
3, 1196623, Note_on_c, 0, 55, 0
3, 1196640, Note_on_c, 0, 65, 53
3, 1196640, Note_on_c, 0, 65, 50
3, 1196640, Note_on_c, 0, 32, 51
3, 1196640, Note_on_c, 0, 44, 50
3, 1196803, Note_on_c, 0, 65, 0
3, 1196820, Note_on_c, 0, 60, 38
3, 1196965, Note_on_c, 0, 32, 0
3, 1196965, Note_on_c, 0, 44, 0
3, 1196983, Note_on_c, 0, 60, 0
3, 1197000, Note_on_c, 0, 56, 37
3, 1197127, Note_on_c, 0, 65, 0
3, 1197163, Note_on_c, 0, 56, 0
3, 1197180, Note_on_c, 0, 65, 54
3, 1197180, Note_on_c, 0, 53, 44
3, 1197180, Note_on_c, 0, 65, 42
3, 1197180, Note_on_c, 0, 39, 71
3, 1197180, Note_on_c, 0, 51, 70
3, 1197343, Note_on_c, 0, 65, 0
3, 1197360, Note_on_c, 0, 63, 40
3, 1197523, Note_on_c, 0, 63, 0
3, 1197540, Note_on_c, 0, 60, 38
3, 1197667, Note_on_c, 0, 53, 0
3, 1197667, Note_on_c, 0, 65, 0
3, 1197703, Note_on_c, 0, 60, 0
3, 1197720, Note_on_c, 0, 65, 50
3, 1197720, Note_on_c, 0, 53, 48
3, 1197720, Note_on_c, 0, 65, 45
3, 1197883, Note_on_c, 0, 65, 0
3, 1197900, Note_on_c, 0, 63, 39
3, 1198063, Note_on_c, 0, 63, 0
3, 1198080, Note_on_c, 0, 60, 39
3, 1198207, Note_on_c, 0, 65, 0
3, 1198207, Note_on_c, 0, 53, 0
3, 1198207, Note_on_c, 0, 51, 0
3, 1198207, Note_on_c, 0, 39, 0
3, 1198243, Note_on_c, 0, 60, 0
3, 1198260, Note_on_c, 0, 67, 50
3, 1198260, Note_on_c, 0, 55, 45
3, 1198260, Note_on_c, 0, 67, 45
3, 1198260, Note_on_c, 0, 27, 40
3, 1198260, Note_on_c, 0, 39, 39
3, 1198423, Note_on_c, 0, 67, 0
3, 1198440, Note_on_c, 0, 63, 40
3, 1198585, Note_on_c, 0, 27, 0
3, 1198585, Note_on_c, 0, 39, 0
3, 1198603, Note_on_c, 0, 63, 0
3, 1198620, Note_on_c, 0, 61, 40
3, 1198747, Note_on_c, 0, 55, 0
3, 1198747, Note_on_c, 0, 67, 0
3, 1198783, Note_on_c, 0, 61, 0
3, 1198800, Note_on_c, 0, 68, 51
3, 1198800, Note_on_c, 0, 56, 46
3, 1198800, Note_on_c, 0, 68, 50
3, 1198800, Note_on_c, 0, 32, 50
3, 1198800, Note_on_c, 0, 44, 50
3, 1198963, Note_on_c, 0, 68, 0
3, 1198980, Note_on_c, 0, 60, 36
3, 1199125, Note_on_c, 0, 32, 0
3, 1199125, Note_on_c, 0, 44, 0
3, 1199143, Note_on_c, 0, 60, 0
3, 1199160, Note_on_c, 0, 63, 46
3, 1199287, Note_on_c, 0, 56, 0
3, 1199287, Note_on_c, 0, 68, 0
3, 1199323, Note_on_c, 0, 63, 0
3, 1199340, Note_on_c, 0, 65, 49
3, 1199340, Note_on_c, 0, 53, 41
3, 1199340, Note_on_c, 0, 65, 41
3, 1199340, Note_on_c, 0, 39, 72
3, 1199340, Note_on_c, 0, 51, 72
3, 1199503, Note_on_c, 0, 65, 0
3, 1199520, Note_on_c, 0, 63, 41
3, 1199683, Note_on_c, 0, 63, 0
3, 1199700, Note_on_c, 0, 60, 38
3, 1199827, Note_on_c, 0, 53, 0
3, 1199827, Note_on_c, 0, 65, 0
3, 1199863, Note_on_c, 0, 60, 0
3, 1199880, Note_on_c, 0, 65, 51
3, 1199880, Note_on_c, 0, 53, 46
3, 1199880, Note_on_c, 0, 65, 45
3, 1200043, Note_on_c, 0, 65, 0
3, 1200060, Note_on_c, 0, 63, 40
3, 1200223, Note_on_c, 0, 63, 0
3, 1200240, Note_on_c, 0, 60, 37
3, 1200367, Note_on_c, 0, 65, 0
3, 1200367, Note_on_c, 0, 53, 0
3, 1200367, Note_on_c, 0, 51, 0
3, 1200367, Note_on_c, 0, 39, 0
3, 1200403, Note_on_c, 0, 60, 0
3, 1200420, Note_on_c, 0, 67, 50
3, 1200420, Note_on_c, 0, 55, 44
3, 1200420, Note_on_c, 0, 67, 45
3, 1200420, Note_on_c, 0, 27, 39
3, 1200420, Note_on_c, 0, 39, 40
3, 1200583, Note_on_c, 0, 67, 0
3, 1200600, Note_on_c, 0, 63, 39
3, 1200745, Note_on_c, 0, 27, 0
3, 1200745, Note_on_c, 0, 39, 0
3, 1200763, Note_on_c, 0, 63, 0
3, 1200780, Note_on_c, 0, 61, 38
3, 1200907, Note_on_c, 0, 55, 0
3, 1200907, Note_on_c, 0, 67, 0
3, 1200943, Note_on_c, 0, 61, 0
3, 1200960, Note_on_c, 0, 68, 53
3, 1200960, Note_on_c, 0, 56, 46
3, 1200960, Note_on_c, 0, 68, 49
3, 1200960, Note_on_c, 0, 32, 50
3, 1200960, Note_on_c, 0, 44, 53
3, 1201123, Note_on_c, 0, 68, 0
3, 1201140, Note_on_c, 0, 60, 34
3, 1201285, Note_on_c, 0, 32, 0
3, 1201285, Note_on_c, 0, 44, 0
3, 1201303, Note_on_c, 0, 60, 0
3, 1201320, Note_on_c, 0, 63, 45
3, 1201447, Note_on_c, 0, 56, 0
3, 1201447, Note_on_c, 0, 68, 0
3, 1201483, Note_on_c, 0, 63, 0
3, 1201500, Note_on_c, 0, 65, 46
3, 1201500, Note_on_c, 0, 53, 39
3, 1201500, Note_on_c, 0, 65, 39
3, 1201500, Note_on_c, 0, 39, 71
3, 1201500, Note_on_c, 0, 51, 69
3, 1201663, Note_on_c, 0, 65, 0
3, 1201680, Note_on_c, 0, 63, 40
3, 1201843, Note_on_c, 0, 63, 0
3, 1201860, Note_on_c, 0, 60, 40
3, 1201987, Note_on_c, 0, 53, 0
3, 1201987, Note_on_c, 0, 65, 0
3, 1202023, Note_on_c, 0, 60, 0
3, 1202040, Note_on_c, 0, 65, 48
3, 1202040, Note_on_c, 0, 53, 47
3, 1202040, Note_on_c, 0, 65, 47
3, 1202203, Note_on_c, 0, 65, 0
3, 1202220, Note_on_c, 0, 63, 40
3, 1202383, Note_on_c, 0, 63, 0
3, 1202400, Note_on_c, 0, 60, 41
3, 1202527, Note_on_c, 0, 65, 0
3, 1202527, Note_on_c, 0, 53, 0
3, 1202527, Note_on_c, 0, 51, 0
3, 1202527, Note_on_c, 0, 39, 0
3, 1202563, Note_on_c, 0, 60, 0
3, 1202580, Note_on_c, 0, 67, 52
3, 1202580, Note_on_c, 0, 55, 44
3, 1202580, Note_on_c, 0, 67, 45
3, 1202580, Note_on_c, 0, 39, 39
3, 1202743, Note_on_c, 0, 67, 0
3, 1202760, Note_on_c, 0, 63, 37
3, 1202905, Note_on_c, 0, 39, 0
3, 1202923, Note_on_c, 0, 63, 0
3, 1202940, Note_on_c, 0, 61, 42
3, 1203067, Note_on_c, 0, 67, 0
3, 1203067, Note_on_c, 0, 55, 0
3, 1203103, Note_on_c, 0, 61, 0
3, 1203120, Note_on_c, 0, 68, 50
3, 1203120, Note_on_c, 0, 56, 49
3, 1203120, Note_on_c, 0, 68, 48
3, 1203120, Note_on_c, 0, 44, 49
3, 1203283, Note_on_c, 0, 68, 0
3, 1203300, Note_on_c, 0, 63, 38
3, 1203445, Note_on_c, 0, 44, 0
3, 1203463, Note_on_c, 0, 63, 0
3, 1203480, Note_on_c, 0, 60, 38
3, 1203607, Note_on_c, 0, 68, 0
3, 1203607, Note_on_c, 0, 56, 0
3, 1203643, Note_on_c, 0, 60, 0
3, 1203660, Note_on_c, 0, 70, 54
3, 1203660, Note_on_c, 0, 58, 45
3, 1203660, Note_on_c, 0, 70, 44
3, 1203660, Note_on_c, 0, 41, 50
3, 1203660, Note_on_c, 0, 53, 47
3, 1203823, Note_on_c, 0, 70, 0
3, 1203840, Note_on_c, 0, 68, 43
3, 1203985, Note_on_c, 0, 41, 0
3, 1203985, Note_on_c, 0, 53, 0
3, 1204003, Note_on_c, 0, 68, 0
3, 1204020, Note_on_c, 0, 61, 37
3, 1204147, Note_on_c, 0, 58, 0
3, 1204147, Note_on_c, 0, 70, 0
3, 1204183, Note_on_c, 0, 61, 0
3, 1204200, Note_on_c, 0, 70, 54
3, 1204200, Note_on_c, 0, 59, 49
3, 1204200, Note_on_c, 0, 71, 49
3, 1204200, Note_on_c, 0, 40, 51
3, 1204200, Note_on_c, 0, 52, 52
3, 1204363, Note_on_c, 0, 70, 0
3, 1204380, Note_on_c, 0, 68, 43
3, 1204525, Note_on_c, 0, 40, 0
3, 1204525, Note_on_c, 0, 52, 0
3, 1204543, Note_on_c, 0, 68, 0
3, 1204560, Note_on_c, 0, 62, 35
3, 1204687, Note_on_c, 0, 59, 0
3, 1204687, Note_on_c, 0, 71, 0
3, 1204723, Note_on_c, 0, 62, 0
3, 1204740, Note_on_c, 0, 72, 55
3, 1204740, Note_on_c, 0, 60, 44
3, 1204740, Note_on_c, 0, 72, 45
3, 1204740, Note_on_c, 0, 39, 48
3, 1204740, Note_on_c, 0, 51, 47
3, 1204903, Note_on_c, 0, 72, 0
3, 1204920, Note_on_c, 0, 67, 41
3, 1205065, Note_on_c, 0, 39, 0
3, 1205065, Note_on_c, 0, 51, 0
3, 1205083, Note_on_c, 0, 67, 0
3, 1205100, Note_on_c, 0, 61, 37
3, 1205227, Note_on_c, 0, 60, 0
3, 1205227, Note_on_c, 0, 72, 0
3, 1205263, Note_on_c, 0, 61, 0
3, 1205280, Note_on_c, 0, 60, 52
3, 1205280, Note_on_c, 0, 68, 51
3, 1205280, Note_on_c, 0, 32, 52
3, 1205280, Note_on_c, 0, 44, 49
3, 1205443, Note_on_c, 0, 44, 0
3, 1205443, Note_on_c, 0, 68, 0
3, 1205443, Note_on_c, 0, 32, 0
3, 1205443, Note_on_c, 0, 60, 0
3, 1205820, Note_on_c, 0, 65, 42
3, 1205820, Note_on_c, 0, 53, 35
3, 1205820, Note_on_c, 0, 65, 37
3, 1205820, Note_on_c, 0, 27, 50
3, 1205820, Note_on_c, 0, 39, 48
3, 1205983, Note_on_c, 0, 65, 0
3, 1206000, Note_on_c, 0, 63, 42
3, 1206145, Note_on_c, 0, 27, 0
3, 1206145, Note_on_c, 0, 39, 0
3, 1206163, Note_on_c, 0, 63, 0
3, 1206180, Note_on_c, 0, 60, 38
3, 1206307, Note_on_c, 0, 53, 0
3, 1206307, Note_on_c, 0, 65, 0
3, 1206343, Note_on_c, 0, 60, 0
3, 1206360, Note_on_c, 0, 65, 51
3, 1206360, Note_on_c, 0, 53, 46
3, 1206360, Note_on_c, 0, 65, 42
3, 1206360, Note_on_c, 0, 39, 51
3, 1206360, Note_on_c, 0, 51, 50
3, 1206523, Note_on_c, 0, 65, 0
3, 1206540, Note_on_c, 0, 63, 40
3, 1206685, Note_on_c, 0, 39, 0
3, 1206685, Note_on_c, 0, 51, 0
3, 1206703, Note_on_c, 0, 63, 0
3, 1206720, Note_on_c, 0, 60, 39
3, 1206847, Note_on_c, 0, 53, 0
3, 1206847, Note_on_c, 0, 65, 0
3, 1206883, Note_on_c, 0, 60, 0
3, 1206900, Note_on_c, 0, 67, 53
3, 1206900, Note_on_c, 0, 55, 47
3, 1206900, Note_on_c, 0, 67, 45
3, 1206900, Note_on_c, 0, 39, 48
3, 1207063, Note_on_c, 0, 67, 0
3, 1207080, Note_on_c, 0, 63, 38
3, 1207225, Note_on_c, 0, 39, 0
3, 1207243, Note_on_c, 0, 63, 0
3, 1207260, Note_on_c, 0, 61, 41
3, 1207387, Note_on_c, 0, 67, 0
3, 1207387, Note_on_c, 0, 55, 0
3, 1207423, Note_on_c, 0, 61, 0
3, 1207440, Note_on_c, 0, 68, 52
3, 1207440, Note_on_c, 0, 56, 49
3, 1207440, Note_on_c, 0, 68, 47
3, 1207440, Note_on_c, 0, 32, 52
3, 1207440, Note_on_c, 0, 44, 50
3, 1207603, Note_on_c, 0, 68, 0
3, 1207620, Note_on_c, 0, 60, 35
3, 1207783, Note_on_c, 0, 60, 0
3, 1207800, Note_on_c, 0, 63, 46
3, 1207927, Note_on_c, 0, 56, 0
3, 1207927, Note_on_c, 0, 68, 0
3, 1207963, Note_on_c, 0, 63, 0
3, 1207980, Note_on_c, 0, 65, 48
3, 1207980, Note_on_c, 0, 53, 42
3, 1207980, Note_on_c, 0, 65, 41
3, 1208143, Note_on_c, 0, 65, 0
3, 1208160, Note_on_c, 0, 63, 38
3, 1208323, Note_on_c, 0, 63, 0
3, 1208340, Note_on_c, 0, 60, 38
3, 1208450, Note_on_c, 0, 32, 0
3, 1208450, Note_on_c, 0, 44, 0
3, 1208467, Note_on_c, 0, 53, 0
3, 1208467, Note_on_c, 0, 65, 0
3, 1208503, Note_on_c, 0, 60, 0
3, 1208520, Note_on_c, 0, 65, 49
3, 1208520, Note_on_c, 0, 53, 44
3, 1208520, Note_on_c, 0, 65, 45
3, 1208520, Note_on_c, 0, 39, 64
3, 1208520, Note_on_c, 0, 51, 63
3, 1208683, Note_on_c, 0, 65, 0
3, 1208700, Note_on_c, 0, 63, 39
3, 1208845, Note_on_c, 0, 39, 0
3, 1208845, Note_on_c, 0, 51, 0
3, 1208863, Note_on_c, 0, 63, 0
3, 1208880, Note_on_c, 0, 60, 37
3, 1209007, Note_on_c, 0, 53, 0
3, 1209007, Note_on_c, 0, 65, 0
3, 1209043, Note_on_c, 0, 60, 0
3, 1209060, Note_on_c, 0, 67, 53
3, 1209060, Note_on_c, 0, 55, 45
3, 1209060, Note_on_c, 0, 67, 44
3, 1209060, Note_on_c, 0, 27, 50
3, 1209060, Note_on_c, 0, 39, 47
3, 1209223, Note_on_c, 0, 67, 0
3, 1209240, Note_on_c, 0, 63, 38
3, 1209385, Note_on_c, 0, 27, 0
3, 1209385, Note_on_c, 0, 39, 0
3, 1209403, Note_on_c, 0, 63, 0
3, 1209420, Note_on_c, 0, 61, 40
3, 1209547, Note_on_c, 0, 55, 0
3, 1209547, Note_on_c, 0, 67, 0
3, 1209583, Note_on_c, 0, 61, 0
3, 1209600, Note_on_c, 0, 68, 52
3, 1209600, Note_on_c, 0, 56, 49
3, 1209600, Note_on_c, 0, 68, 46
3, 1209600, Note_on_c, 0, 32, 50
3, 1209600, Note_on_c, 0, 44, 52
3, 1209763, Note_on_c, 0, 68, 0
3, 1209780, Note_on_c, 0, 60, 35
3, 1209943, Note_on_c, 0, 60, 0
3, 1209960, Note_on_c, 0, 63, 43
3, 1210087, Note_on_c, 0, 56, 0
3, 1210087, Note_on_c, 0, 68, 0
3, 1210123, Note_on_c, 0, 63, 0
3, 1210140, Note_on_c, 0, 65, 50
3, 1210140, Note_on_c, 0, 53, 40
3, 1210140, Note_on_c, 0, 65, 41
3, 1210303, Note_on_c, 0, 65, 0
3, 1210320, Note_on_c, 0, 63, 39
3, 1210483, Note_on_c, 0, 63, 0
3, 1210500, Note_on_c, 0, 60, 40
3, 1210610, Note_on_c, 0, 32, 0
3, 1210610, Note_on_c, 0, 44, 0
3, 1210627, Note_on_c, 0, 53, 0
3, 1210627, Note_on_c, 0, 65, 0
3, 1210663, Note_on_c, 0, 60, 0
3, 1210680, Note_on_c, 0, 65, 51
3, 1210680, Note_on_c, 0, 53, 45
3, 1210680, Note_on_c, 0, 65, 45
3, 1210680, Note_on_c, 0, 39, 62
3, 1210680, Note_on_c, 0, 51, 61
3, 1210843, Note_on_c, 0, 65, 0
3, 1210860, Note_on_c, 0, 63, 40
3, 1211005, Note_on_c, 0, 39, 0
3, 1211005, Note_on_c, 0, 51, 0
3, 1211023, Note_on_c, 0, 63, 0
3, 1211040, Note_on_c, 0, 60, 40
3, 1211167, Note_on_c, 0, 53, 0
3, 1211167, Note_on_c, 0, 65, 0
3, 1211203, Note_on_c, 0, 60, 0
3, 1211220, Note_on_c, 0, 67, 53
3, 1211220, Note_on_c, 0, 55, 47
3, 1211220, Note_on_c, 0, 67, 45
3, 1211220, Note_on_c, 0, 27, 49
3, 1211220, Note_on_c, 0, 39, 48
3, 1211383, Note_on_c, 0, 67, 0
3, 1211400, Note_on_c, 0, 63, 41
3, 1211545, Note_on_c, 0, 27, 0
3, 1211545, Note_on_c, 0, 39, 0
3, 1211563, Note_on_c, 0, 63, 0
3, 1211580, Note_on_c, 0, 61, 41
3, 1211707, Note_on_c, 0, 55, 0
3, 1211707, Note_on_c, 0, 67, 0
3, 1211743, Note_on_c, 0, 61, 0
3, 1211760, Note_on_c, 0, 68, 53
3, 1211760, Note_on_c, 0, 56, 50
3, 1211760, Note_on_c, 0, 68, 48
3, 1211760, Note_on_c, 0, 32, 50
3, 1211760, Note_on_c, 0, 44, 49
3, 1211923, Note_on_c, 0, 68, 0
3, 1211940, Note_on_c, 0, 63, 37
3, 1212103, Note_on_c, 0, 63, 0
3, 1212120, Note_on_c, 0, 60, 40
3, 1212247, Note_on_c, 0, 56, 0
3, 1212247, Note_on_c, 0, 68, 0
3, 1212283, Note_on_c, 0, 60, 0
3, 1212300, Note_on_c, 0, 55, 50
3, 1212300, Note_on_c, 0, 63, 53
3, 1212300, Note_on_c, 0, 67, 52
3, 1212477, Note_on_c, 0, 67, 0
3, 1212477, Note_on_c, 0, 55, 0
3, 1212477, Note_on_c, 0, 63, 0
3, 1212840, Note_on_c, 0, 54, 41
3, 1212840, Note_on_c, 0, 60, 41
3, 1212840, Note_on_c, 0, 63, 41
3, 1212840, Note_on_c, 0, 66, 42
3, 1213165, Note_on_c, 0, 66, 0
3, 1213165, Note_on_c, 0, 60, 0
3, 1213165, Note_on_c, 0, 54, 0
3, 1213165, Note_on_c, 0, 63, 0
3, 1213380, Note_on_c, 0, 53, 40
3, 1213380, Note_on_c, 0, 60, 41
3, 1213380, Note_on_c, 0, 63, 38
3, 1213380, Note_on_c, 0, 65, 39
3, 1213557, Note_on_c, 0, 65, 0
3, 1213557, Note_on_c, 0, 60, 0
3, 1213557, Note_on_c, 0, 53, 0
3, 1213557, Note_on_c, 0, 63, 0
3, 1213850, Note_on_c, 0, 32, 0
3, 1213850, Note_on_c, 0, 44, 0
3, 1213920, Note_on_c, 0, 52, 42
3, 1213920, Note_on_c, 0, 56, 40
3, 1213920, Note_on_c, 0, 60, 43
3, 1213920, Note_on_c, 0, 64, 41
3, 1213920, Note_on_c, 0, 32, 42
3, 1214245, Note_on_c, 0, 64, 0
3, 1214245, Note_on_c, 0, 60, 0
3, 1214245, Note_on_c, 0, 56, 0
3, 1214245, Note_on_c, 0, 52, 0
3, 1214280, Note_on_c, 0, 55, 34
3, 1214407, Note_on_c, 0, 32, 0
3, 1214443, Note_on_c, 0, 55, 0
3, 1214460, Note_on_c, 0, 56, 48
3, 1214460, Note_on_c, 0, 44, 61
3, 1214623, Note_on_c, 0, 56, 0
3, 1214820, Note_on_c, 0, 58, 40
3, 1214947, Note_on_c, 0, 44, 0
3, 1214983, Note_on_c, 0, 58, 0
3, 1215000, Note_on_c, 0, 60, 48
3, 1215000, Note_on_c, 0, 52, 67
3, 1215163, Note_on_c, 0, 60, 0
3, 1215360, Note_on_c, 0, 58, 40
3, 1215487, Note_on_c, 0, 52, 0
3, 1215523, Note_on_c, 0, 58, 0
3, 1215540, Note_on_c, 0, 60, 44
3, 1215540, Note_on_c, 0, 44, 46
3, 1215703, Note_on_c, 0, 60, 0
3, 1215900, Note_on_c, 0, 61, 40
3, 1216027, Note_on_c, 0, 44, 0
3, 1216063, Note_on_c, 0, 61, 0
3, 1216080, Note_on_c, 0, 60, 42
3, 1216080, Note_on_c, 0, 32, 42
3, 1216243, Note_on_c, 0, 60, 0
3, 1216440, Note_on_c, 0, 61, 38
3, 1216567, Note_on_c, 0, 32, 0
3, 1216603, Note_on_c, 0, 61, 0
3, 1216620, Note_on_c, 0, 63, 45
3, 1216620, Note_on_c, 0, 51, 62
3, 1216783, Note_on_c, 0, 63, 0
3, 1216980, Note_on_c, 0, 64, 41
3, 1217107, Note_on_c, 0, 51, 0
3, 1217143, Note_on_c, 0, 64, 0
3, 1217160, Note_on_c, 0, 63, 43
3, 1217160, Note_on_c, 0, 56, 66
3, 1217160, Note_on_c, 0, 60, 69
3, 1217323, Note_on_c, 0, 63, 0
3, 1217520, Note_on_c, 0, 67, 40
3, 1217647, Note_on_c, 0, 60, 0
3, 1217647, Note_on_c, 0, 56, 0
3, 1217683, Note_on_c, 0, 67, 0
3, 1217700, Note_on_c, 0, 68, 46
3, 1217700, Note_on_c, 0, 51, 42
3, 1217863, Note_on_c, 0, 68, 0
3, 1218060, Note_on_c, 0, 70, 40
3, 1218187, Note_on_c, 0, 51, 0
3, 1218223, Note_on_c, 0, 70, 0
3, 1218240, Note_on_c, 0, 72, 48
3, 1218240, Note_on_c, 0, 32, 43
3, 1218403, Note_on_c, 0, 72, 0
3, 1218600, Note_on_c, 0, 70, 38
3, 1218727, Note_on_c, 0, 32, 0
3, 1218763, Note_on_c, 0, 70, 0
3, 1218780, Note_on_c, 0, 68, 42
3, 1218780, Note_on_c, 0, 52, 64
3, 1218943, Note_on_c, 0, 68, 0
3, 1219140, Note_on_c, 0, 67, 40
3, 1219267, Note_on_c, 0, 52, 0
3, 1219303, Note_on_c, 0, 67, 0
3, 1219320, Note_on_c, 0, 68, 45
3, 1219320, Note_on_c, 0, 56, 67
3, 1219320, Note_on_c, 0, 60, 69
3, 1219483, Note_on_c, 0, 68, 0
3, 1219680, Note_on_c, 0, 67, 38
3, 1219807, Note_on_c, 0, 60, 0
3, 1219807, Note_on_c, 0, 56, 0
3, 1219843, Note_on_c, 0, 67, 0
3, 1219860, Note_on_c, 0, 64, 40
3, 1219860, Note_on_c, 0, 52, 44
3, 1220023, Note_on_c, 0, 64, 0
3, 1220220, Note_on_c, 0, 61, 40
3, 1220347, Note_on_c, 0, 52, 0
3, 1220383, Note_on_c, 0, 61, 0
3, 1220400, Note_on_c, 0, 60, 45
3, 1220400, Note_on_c, 0, 32, 43
3, 1220563, Note_on_c, 0, 60, 0
3, 1220760, Note_on_c, 0, 56, 39
3, 1220887, Note_on_c, 0, 32, 0
3, 1220923, Note_on_c, 0, 56, 0
3, 1220940, Note_on_c, 0, 58, 47
3, 1220940, Note_on_c, 0, 51, 65
3, 1221103, Note_on_c, 0, 58, 0
3, 1221300, Note_on_c, 0, 61, 37
3, 1221427, Note_on_c, 0, 51, 0
3, 1221463, Note_on_c, 0, 61, 0
3, 1221480, Note_on_c, 0, 60, 43
3, 1221480, Note_on_c, 0, 56, 64
3, 1221643, Note_on_c, 0, 60, 0
3, 1221840, Note_on_c, 0, 60, 38
3, 1221967, Note_on_c, 0, 56, 0
3, 1222003, Note_on_c, 0, 60, 0
3, 1222020, Note_on_c, 0, 63, 49
3, 1222020, Note_on_c, 0, 51, 46
3, 1222183, Note_on_c, 0, 63, 0
3, 1222380, Note_on_c, 0, 70, 39
3, 1222507, Note_on_c, 0, 51, 0
3, 1222543, Note_on_c, 0, 70, 0
3, 1222560, Note_on_c, 0, 72, 54
3, 1222560, Note_on_c, 0, 32, 52
3, 1222560, Note_on_c, 0, 44, 52
3, 1222740, Note_on_c, 0, 70, 37
3, 1222903, Note_on_c, 0, 70, 0
3, 1222920, Note_on_c, 0, 68, 40
3, 1223083, Note_on_c, 0, 68, 0
3, 1223100, Note_on_c, 0, 70, 49
3, 1223100, Note_on_c, 0, 52, 47
3, 1223263, Note_on_c, 0, 70, 0
3, 1223280, Note_on_c, 0, 68, 41
3, 1223443, Note_on_c, 0, 68, 0
3, 1223460, Note_on_c, 0, 64, 36
3, 1223587, Note_on_c, 0, 52, 0
3, 1223623, Note_on_c, 0, 64, 0
3, 1223640, Note_on_c, 0, 72, 0
3, 1223640, Note_on_c, 0, 76, 55
3, 1223640, Note_on_c, 0, 60, 68
3, 1223640, Note_on_c, 0, 64, 67
3, 1223820, Note_on_c, 0, 73, 38
3, 1223983, Note_on_c, 0, 73, 0
3, 1224000, Note_on_c, 0, 72, 41
3, 1224127, Note_on_c, 0, 60, 0
3, 1224127, Note_on_c, 0, 64, 0
3, 1224163, Note_on_c, 0, 72, 0
3, 1224180, Note_on_c, 0, 73, 47
3, 1224180, Note_on_c, 0, 52, 42
3, 1224343, Note_on_c, 0, 73, 0
3, 1224360, Note_on_c, 0, 72, 41
3, 1224523, Note_on_c, 0, 72, 0
3, 1224540, Note_on_c, 0, 68, 38
3, 1224650, Note_on_c, 0, 32, 0
3, 1224650, Note_on_c, 0, 44, 0
3, 1224667, Note_on_c, 0, 52, 0
3, 1224703, Note_on_c, 0, 68, 0
3, 1224720, Note_on_c, 0, 76, 0
3, 1224720, Note_on_c, 0, 80, 56
3, 1224720, Note_on_c, 0, 32, 56
3, 1224720, Note_on_c, 0, 44, 56
3, 1224900, Note_on_c, 0, 76, 38
3, 1225063, Note_on_c, 0, 76, 0
3, 1225080, Note_on_c, 0, 75, 39
3, 1225243, Note_on_c, 0, 75, 0
3, 1225260, Note_on_c, 0, 76, 47
3, 1225260, Note_on_c, 0, 51, 49
3, 1225423, Note_on_c, 0, 76, 0
3, 1225440, Note_on_c, 0, 75, 42
3, 1225603, Note_on_c, 0, 75, 0
3, 1225620, Note_on_c, 0, 68, 34
3, 1225747, Note_on_c, 0, 51, 0
3, 1225783, Note_on_c, 0, 68, 0
3, 1225800, Note_on_c, 0, 80, 0
3, 1225800, Note_on_c, 0, 84, 57
3, 1225800, Note_on_c, 0, 60, 70
3, 1225800, Note_on_c, 0, 63, 70
3, 1225980, Note_on_c, 0, 82, 40
3, 1226143, Note_on_c, 0, 82, 0
3, 1226160, Note_on_c, 0, 80, 41
3, 1226287, Note_on_c, 0, 60, 0
3, 1226287, Note_on_c, 0, 63, 0
3, 1226323, Note_on_c, 0, 80, 0
3, 1226340, Note_on_c, 0, 82, 50
3, 1226340, Note_on_c, 0, 51, 40
3, 1226503, Note_on_c, 0, 82, 0
3, 1226520, Note_on_c, 0, 80, 39
3, 1226683, Note_on_c, 0, 80, 0
3, 1226700, Note_on_c, 0, 75, 37
3, 1226810, Note_on_c, 0, 32, 0
3, 1226810, Note_on_c, 0, 44, 0
3, 1226827, Note_on_c, 0, 51, 0
3, 1226863, Note_on_c, 0, 75, 0
3, 1226880, Note_on_c, 0, 84, 0
3, 1226880, Note_on_c, 0, 88, 56
3, 1226880, Note_on_c, 0, 32, 56
3, 1226880, Note_on_c, 0, 44, 56
3, 1227060, Note_on_c, 0, 85, 37
3, 1227223, Note_on_c, 0, 85, 0
3, 1227240, Note_on_c, 0, 84, 41
3, 1227403, Note_on_c, 0, 84, 0
3, 1227420, Note_on_c, 0, 85, 47
3, 1227420, Note_on_c, 0, 52, 46
3, 1227583, Note_on_c, 0, 85, 0
3, 1227600, Note_on_c, 0, 84, 41
3, 1227763, Note_on_c, 0, 84, 0
3, 1227780, Note_on_c, 0, 80, 39
3, 1227907, Note_on_c, 0, 52, 0
3, 1227943, Note_on_c, 0, 80, 0
3, 1227960, Note_on_c, 0, 88, 0
3, 1227960, Note_on_c, 0, 84, 49
3, 1227960, Note_on_c, 0, 60, 67
3, 1227960, Note_on_c, 0, 64, 66
3, 1228140, Note_on_c, 0, 82, 40
3, 1228303, Note_on_c, 0, 82, 0
3, 1228320, Note_on_c, 0, 80, 41
3, 1228447, Note_on_c, 0, 60, 0
3, 1228447, Note_on_c, 0, 64, 0
3, 1228483, Note_on_c, 0, 80, 0
3, 1228500, Note_on_c, 0, 82, 47
3, 1228500, Note_on_c, 0, 52, 43
3, 1228663, Note_on_c, 0, 82, 0
3, 1228680, Note_on_c, 0, 80, 40
3, 1228843, Note_on_c, 0, 80, 0
3, 1228860, Note_on_c, 0, 76, 37
3, 1228970, Note_on_c, 0, 32, 0
3, 1228970, Note_on_c, 0, 44, 0
3, 1228987, Note_on_c, 0, 52, 0
3, 1229023, Note_on_c, 0, 76, 0
3, 1229040, Note_on_c, 0, 84, 0
3, 1229040, Note_on_c, 0, 80, 45
3, 1229040, Note_on_c, 0, 32, 55
3, 1229040, Note_on_c, 0, 44, 56
3, 1229220, Note_on_c, 0, 76, 39
3, 1229383, Note_on_c, 0, 76, 0
3, 1229400, Note_on_c, 0, 75, 39
3, 1229563, Note_on_c, 0, 75, 0
3, 1229580, Note_on_c, 0, 76, 47
3, 1229580, Note_on_c, 0, 51, 46
3, 1229743, Note_on_c, 0, 76, 0
3, 1229760, Note_on_c, 0, 75, 43
3, 1229923, Note_on_c, 0, 75, 0
3, 1229940, Note_on_c, 0, 68, 36
3, 1230050, Note_on_c, 0, 32, 0
3, 1230050, Note_on_c, 0, 44, 0
3, 1230067, Note_on_c, 0, 51, 0
3, 1230103, Note_on_c, 0, 68, 0
3, 1230120, Note_on_c, 0, 80, 0
3, 1230120, Note_on_c, 0, 75, 46
3, 1230120, Note_on_c, 0, 56, 69
3, 1230120, Note_on_c, 0, 63, 69
3, 1230300, Note_on_c, 0, 73, 41
3, 1230463, Note_on_c, 0, 73, 0
3, 1230480, Note_on_c, 0, 72, 40
3, 1230607, Note_on_c, 0, 56, 0
3, 1230607, Note_on_c, 0, 63, 0
3, 1230643, Note_on_c, 0, 72, 0
3, 1230660, Note_on_c, 0, 73, 47
3, 1230660, Note_on_c, 0, 51, 41
3, 1230823, Note_on_c, 0, 73, 0
3, 1230840, Note_on_c, 0, 72, 42
3, 1231003, Note_on_c, 0, 72, 0
3, 1231020, Note_on_c, 0, 68, 38
3, 1231147, Note_on_c, 0, 51, 0
3, 1231183, Note_on_c, 0, 68, 0
3, 1231200, Note_on_c, 0, 75, 0
3, 1231200, Note_on_c, 0, 72, 48
3, 1231200, Note_on_c, 0, 76, 45
3, 1231200, Note_on_c, 0, 36, 44
3, 1231363, Note_on_c, 0, 76, 0
3, 1231363, Note_on_c, 0, 72, 0
3, 1231560, Note_on_c, 0, 59, 41
3, 1231687, Note_on_c, 0, 36, 0
3, 1231723, Note_on_c, 0, 59, 0
3, 1231740, Note_on_c, 0, 60, 48
3, 1231740, Note_on_c, 0, 48, 65
3, 1231903, Note_on_c, 0, 60, 0
3, 1232100, Note_on_c, 0, 62, 40
3, 1232227, Note_on_c, 0, 48, 0
3, 1232263, Note_on_c, 0, 62, 0
3, 1232280, Note_on_c, 0, 64, 47
3, 1232280, Note_on_c, 0, 56, 65
3, 1232443, Note_on_c, 0, 64, 0
3, 1232640, Note_on_c, 0, 62, 37
3, 1232767, Note_on_c, 0, 56, 0
3, 1232803, Note_on_c, 0, 62, 0
3, 1232820, Note_on_c, 0, 64, 45
3, 1232820, Note_on_c, 0, 48, 43
3, 1232983, Note_on_c, 0, 64, 0
3, 1233180, Note_on_c, 0, 65, 40
3, 1233307, Note_on_c, 0, 48, 0
3, 1233343, Note_on_c, 0, 65, 0
3, 1233360, Note_on_c, 0, 64, 41
3, 1233360, Note_on_c, 0, 36, 43
3, 1233523, Note_on_c, 0, 64, 0
3, 1233720, Note_on_c, 0, 65, 37
3, 1233847, Note_on_c, 0, 36, 0
3, 1233883, Note_on_c, 0, 65, 0
3, 1233900, Note_on_c, 0, 67, 48
3, 1233900, Note_on_c, 0, 55, 65
3, 1234063, Note_on_c, 0, 67, 0
3, 1234260, Note_on_c, 0, 68, 41
3, 1234387, Note_on_c, 0, 55, 0
3, 1234423, Note_on_c, 0, 68, 0
3, 1234440, Note_on_c, 0, 67, 42
3, 1234440, Note_on_c, 0, 60, 68
3, 1234440, Note_on_c, 0, 64, 67
3, 1234603, Note_on_c, 0, 67, 0
3, 1234800, Note_on_c, 0, 71, 38
3, 1234927, Note_on_c, 0, 64, 0
3, 1234927, Note_on_c, 0, 60, 0
3, 1234963, Note_on_c, 0, 71, 0
3, 1234980, Note_on_c, 0, 72, 47
3, 1234980, Note_on_c, 0, 55, 44
3, 1235143, Note_on_c, 0, 72, 0
3, 1235340, Note_on_c, 0, 74, 40
3, 1235467, Note_on_c, 0, 55, 0
3, 1235503, Note_on_c, 0, 74, 0
3, 1235520, Note_on_c, 0, 76, 47
3, 1235520, Note_on_c, 0, 36, 42
3, 1235683, Note_on_c, 0, 76, 0
3, 1235880, Note_on_c, 0, 74, 37
3, 1236007, Note_on_c, 0, 36, 0
3, 1236043, Note_on_c, 0, 74, 0
3, 1236060, Note_on_c, 0, 72, 43
3, 1236060, Note_on_c, 0, 56, 63
3, 1236223, Note_on_c, 0, 72, 0
3, 1236420, Note_on_c, 0, 71, 37
3, 1236547, Note_on_c, 0, 56, 0
3, 1236583, Note_on_c, 0, 71, 0
3, 1236600, Note_on_c, 0, 72, 49
3, 1236600, Note_on_c, 0, 60, 67
3, 1236600, Note_on_c, 0, 64, 66
3, 1236763, Note_on_c, 0, 72, 0
3, 1236960, Note_on_c, 0, 71, 39
3, 1237087, Note_on_c, 0, 64, 0
3, 1237087, Note_on_c, 0, 60, 0
3, 1237123, Note_on_c, 0, 71, 0
3, 1237140, Note_on_c, 0, 68, 43
3, 1237140, Note_on_c, 0, 56, 44
3, 1237303, Note_on_c, 0, 68, 0
3, 1237500, Note_on_c, 0, 65, 40
3, 1237627, Note_on_c, 0, 56, 0
3, 1237663, Note_on_c, 0, 65, 0
3, 1237680, Note_on_c, 0, 64, 42
3, 1237680, Note_on_c, 0, 36, 43
3, 1237843, Note_on_c, 0, 64, 0
3, 1238040, Note_on_c, 0, 60, 39
3, 1238167, Note_on_c, 0, 36, 0
3, 1238203, Note_on_c, 0, 60, 0
3, 1238220, Note_on_c, 0, 62, 49
3, 1238220, Note_on_c, 0, 55, 62
3, 1238383, Note_on_c, 0, 62, 0
3, 1238580, Note_on_c, 0, 65, 38
3, 1238707, Note_on_c, 0, 55, 0
3, 1238743, Note_on_c, 0, 65, 0
3, 1238760, Note_on_c, 0, 64, 44
3, 1238760, Note_on_c, 0, 60, 64
3, 1238923, Note_on_c, 0, 64, 0
3, 1239120, Note_on_c, 0, 64, 38
3, 1239247, Note_on_c, 0, 60, 0
3, 1239283, Note_on_c, 0, 64, 0
3, 1239300, Note_on_c, 0, 67, 47
3, 1239300, Note_on_c, 0, 55, 46
3, 1239463, Note_on_c, 0, 67, 0
3, 1239660, Note_on_c, 0, 74, 39
3, 1239787, Note_on_c, 0, 55, 0
3, 1239823, Note_on_c, 0, 74, 0
3, 1239840, Note_on_c, 0, 76, 56
3, 1239840, Note_on_c, 0, 36, 59
3, 1239840, Note_on_c, 0, 48, 61
3, 1240020, Note_on_c, 0, 74, 41
3, 1240183, Note_on_c, 0, 74, 0
3, 1240200, Note_on_c, 0, 72, 38
3, 1240363, Note_on_c, 0, 72, 0
3, 1240380, Note_on_c, 0, 74, 46
3, 1240380, Note_on_c, 0, 56, 49
3, 1240543, Note_on_c, 0, 74, 0
3, 1240560, Note_on_c, 0, 72, 40
3, 1240723, Note_on_c, 0, 72, 0
3, 1240740, Note_on_c, 0, 68, 39
3, 1240867, Note_on_c, 0, 56, 0
3, 1240903, Note_on_c, 0, 68, 0
3, 1240920, Note_on_c, 0, 76, 0
3, 1240920, Note_on_c, 0, 80, 56
3, 1240920, Note_on_c, 0, 64, 67
3, 1240920, Note_on_c, 0, 68, 67
3, 1241100, Note_on_c, 0, 77, 38
3, 1241263, Note_on_c, 0, 77, 0
3, 1241280, Note_on_c, 0, 76, 39
3, 1241407, Note_on_c, 0, 64, 0
3, 1241407, Note_on_c, 0, 68, 0
3, 1241443, Note_on_c, 0, 76, 0
3, 1241460, Note_on_c, 0, 77, 46
3, 1241460, Note_on_c, 0, 56, 41
3, 1241623, Note_on_c, 0, 77, 0
3, 1241640, Note_on_c, 0, 76, 40
3, 1241803, Note_on_c, 0, 76, 0
3, 1241820, Note_on_c, 0, 72, 39
3, 1241930, Note_on_c, 0, 36, 0
3, 1241930, Note_on_c, 0, 48, 0
3, 1241947, Note_on_c, 0, 56, 0
3, 1241983, Note_on_c, 0, 72, 0
3, 1242000, Note_on_c, 0, 80, 0
3, 1242000, Note_on_c, 0, 84, 57
3, 1242000, Note_on_c, 0, 36, 56
3, 1242000, Note_on_c, 0, 48, 57
3, 1242180, Note_on_c, 0, 80, 40
3, 1242343, Note_on_c, 0, 80, 0
3, 1242360, Note_on_c, 0, 79, 41
3, 1242523, Note_on_c, 0, 79, 0
3, 1242540, Note_on_c, 0, 80, 46
3, 1242540, Note_on_c, 0, 55, 48
3, 1242703, Note_on_c, 0, 80, 0
3, 1242720, Note_on_c, 0, 79, 40
3, 1242883, Note_on_c, 0, 79, 0
3, 1242900, Note_on_c, 0, 72, 34
3, 1243027, Note_on_c, 0, 55, 0
3, 1243063, Note_on_c, 0, 72, 0
3, 1243080, Note_on_c, 0, 84, 0
3, 1243080, Note_on_c, 0, 88, 58
3, 1243080, Note_on_c, 0, 64, 70
3, 1243080, Note_on_c, 0, 67, 67
3, 1243260, Note_on_c, 0, 86, 39
3, 1243423, Note_on_c, 0, 86, 0
3, 1243440, Note_on_c, 0, 84, 42
3, 1243567, Note_on_c, 0, 64, 0
3, 1243567, Note_on_c, 0, 67, 0
3, 1243603, Note_on_c, 0, 84, 0
3, 1243620, Note_on_c, 0, 86, 48
3, 1243620, Note_on_c, 0, 55, 44
3, 1243783, Note_on_c, 0, 86, 0
3, 1243800, Note_on_c, 0, 84, 38
3, 1243963, Note_on_c, 0, 84, 0
3, 1243980, Note_on_c, 0, 79, 38
3, 1244090, Note_on_c, 0, 36, 0
3, 1244090, Note_on_c, 0, 48, 0
3, 1244107, Note_on_c, 0, 55, 0
3, 1244143, Note_on_c, 0, 79, 0
3, 1244160, Note_on_c, 0, 88, 0
3, 1244160, Note_on_c, 0, 92, 58
3, 1244160, Note_on_c, 0, 36, 54
3, 1244160, Note_on_c, 0, 48, 57
3, 1244340, Note_on_c, 0, 89, 39
3, 1244503, Note_on_c, 0, 89, 0
3, 1244520, Note_on_c, 0, 88, 40
3, 1244683, Note_on_c, 0, 88, 0
3, 1244700, Note_on_c, 0, 89, 48
3, 1244700, Note_on_c, 0, 56, 48
3, 1244863, Note_on_c, 0, 89, 0
3, 1244880, Note_on_c, 0, 88, 42
3, 1245043, Note_on_c, 0, 88, 0
3, 1245060, Note_on_c, 0, 84, 39
3, 1245187, Note_on_c, 0, 56, 0
3, 1245223, Note_on_c, 0, 84, 0
3, 1245240, Note_on_c, 0, 92, 0
3, 1245240, Note_on_c, 0, 88, 46
3, 1245240, Note_on_c, 0, 64, 67
3, 1245240, Note_on_c, 0, 68, 67
3, 1245420, Note_on_c, 0, 86, 41
3, 1245583, Note_on_c, 0, 86, 0
3, 1245600, Note_on_c, 0, 84, 38
3, 1245727, Note_on_c, 0, 64, 0
3, 1245727, Note_on_c, 0, 68, 0
3, 1245763, Note_on_c, 0, 84, 0
3, 1245780, Note_on_c, 0, 86, 48
3, 1245780, Note_on_c, 0, 56, 44
3, 1245943, Note_on_c, 0, 86, 0
3, 1245960, Note_on_c, 0, 84, 42
3, 1246123, Note_on_c, 0, 84, 0
3, 1246140, Note_on_c, 0, 80, 38
3, 1246250, Note_on_c, 0, 36, 0
3, 1246250, Note_on_c, 0, 48, 0
3, 1246267, Note_on_c, 0, 56, 0
3, 1246303, Note_on_c, 0, 80, 0
3, 1246320, Note_on_c, 0, 88, 0
3, 1246320, Note_on_c, 0, 84, 47
3, 1246320, Note_on_c, 0, 36, 58
3, 1246320, Note_on_c, 0, 48, 55
3, 1246500, Note_on_c, 0, 80, 41
3, 1246663, Note_on_c, 0, 80, 0
3, 1246680, Note_on_c, 0, 79, 39
3, 1246843, Note_on_c, 0, 79, 0
3, 1246860, Note_on_c, 0, 80, 47
3, 1246860, Note_on_c, 0, 55, 50
3, 1247023, Note_on_c, 0, 80, 0
3, 1247040, Note_on_c, 0, 79, 42
3, 1247203, Note_on_c, 0, 79, 0
3, 1247220, Note_on_c, 0, 72, 35
3, 1247347, Note_on_c, 0, 55, 0
3, 1247383, Note_on_c, 0, 72, 0
3, 1247400, Note_on_c, 0, 84, 0
3, 1247400, Note_on_c, 0, 79, 47
3, 1247400, Note_on_c, 0, 64, 67
3, 1247400, Note_on_c, 0, 67, 67
3, 1247580, Note_on_c, 0, 77, 40
3, 1247743, Note_on_c, 0, 77, 0
3, 1247760, Note_on_c, 0, 76, 40
3, 1247887, Note_on_c, 0, 64, 0
3, 1247887, Note_on_c, 0, 67, 0
3, 1247923, Note_on_c, 0, 76, 0
3, 1247940, Note_on_c, 0, 77, 48
3, 1247940, Note_on_c, 0, 55, 41
3, 1248103, Note_on_c, 0, 77, 0
3, 1248120, Note_on_c, 0, 76, 40
3, 1248283, Note_on_c, 0, 76, 0
3, 1248300, Note_on_c, 0, 72, 37
3, 1248410, Note_on_c, 0, 36, 0
3, 1248410, Note_on_c, 0, 48, 0
3, 1248427, Note_on_c, 0, 55, 0
3, 1248463, Note_on_c, 0, 72, 0
3, 1248480, Note_on_c, 0, 79, 0
3, 1248480, Note_on_c, 0, 87, 50
3, 1248480, Note_on_c, 0, 87, 57
3, 1248480, Note_on_c, 0, 32, 42
3, 1248480, Note_on_c, 0, 44, 42
3, 1248643, Note_on_c, 0, 87, 0
3, 1248660, Note_on_c, 0, 78, 36
3, 1248823, Note_on_c, 0, 78, 0
3, 1248840, Note_on_c, 0, 75, 37
3, 1248967, Note_on_c, 0, 44, 0
3, 1248967, Note_on_c, 0, 32, 0
3, 1248967, Note_on_c, 0, 87, 0
3, 1249003, Note_on_c, 0, 75, 0
3, 1249020, Note_on_c, 0, 84, 52
3, 1249020, Note_on_c, 0, 84, 40
3, 1249020, Note_on_c, 0, 54, 64
3, 1249020, Note_on_c, 0, 60, 64
3, 1249020, Note_on_c, 0, 63, 62
3, 1249020, Note_on_c, 0, 66, 62
3, 1249183, Note_on_c, 0, 84, 0
3, 1249200, Note_on_c, 0, 75, 36
3, 1249363, Note_on_c, 0, 75, 0
3, 1249380, Note_on_c, 0, 72, 37
3, 1249507, Note_on_c, 0, 84, 0
3, 1249543, Note_on_c, 0, 72, 0
3, 1249560, Note_on_c, 0, 84, 54
3, 1249560, Note_on_c, 0, 84, 46
3, 1249723, Note_on_c, 0, 84, 0
3, 1249740, Note_on_c, 0, 75, 37
3, 1249903, Note_on_c, 0, 75, 0
3, 1249920, Note_on_c, 0, 72, 38
3, 1250047, Note_on_c, 0, 84, 0
3, 1250047, Note_on_c, 0, 60, 0
3, 1250047, Note_on_c, 0, 66, 0
3, 1250047, Note_on_c, 0, 54, 0
3, 1250047, Note_on_c, 0, 63, 0
3, 1250083, Note_on_c, 0, 72, 0
3, 1250100, Note_on_c, 0, 85, 53
3, 1250100, Note_on_c, 0, 85, 44
3, 1250100, Note_on_c, 0, 54, 54
3, 1250100, Note_on_c, 0, 61, 54
3, 1250100, Note_on_c, 0, 63, 55
3, 1250100, Note_on_c, 0, 66, 54
3, 1250263, Note_on_c, 0, 85, 0
3, 1250280, Note_on_c, 0, 75, 35
3, 1250443, Note_on_c, 0, 75, 0
3, 1250460, Note_on_c, 0, 73, 39
3, 1250587, Note_on_c, 0, 66, 0
3, 1250587, Note_on_c, 0, 61, 0
3, 1250587, Note_on_c, 0, 85, 0
3, 1250587, Note_on_c, 0, 54, 0
3, 1250587, Note_on_c, 0, 63, 0
3, 1250623, Note_on_c, 0, 73, 0
3, 1250640, Note_on_c, 0, 87, 56
3, 1250640, Note_on_c, 0, 87, 47
3, 1250640, Note_on_c, 0, 32, 44
3, 1250640, Note_on_c, 0, 44, 41
3, 1250803, Note_on_c, 0, 87, 0
3, 1250820, Note_on_c, 0, 78, 35
3, 1250983, Note_on_c, 0, 78, 0
3, 1251000, Note_on_c, 0, 75, 37
3, 1251127, Note_on_c, 0, 44, 0
3, 1251127, Note_on_c, 0, 32, 0
3, 1251127, Note_on_c, 0, 87, 0
3, 1251163, Note_on_c, 0, 75, 0
3, 1251180, Note_on_c, 0, 84, 54
3, 1251180, Note_on_c, 0, 84, 42
3, 1251180, Note_on_c, 0, 54, 63
3, 1251180, Note_on_c, 0, 60, 64
3, 1251180, Note_on_c, 0, 63, 63
3, 1251180, Note_on_c, 0, 66, 61
3, 1251343, Note_on_c, 0, 84, 0
3, 1251360, Note_on_c, 0, 75, 37
3, 1251523, Note_on_c, 0, 75, 0
3, 1251540, Note_on_c, 0, 72, 40
3, 1251667, Note_on_c, 0, 84, 0
3, 1251703, Note_on_c, 0, 72, 0
3, 1251720, Note_on_c, 0, 84, 53
3, 1251720, Note_on_c, 0, 84, 44
3, 1251883, Note_on_c, 0, 84, 0
3, 1251900, Note_on_c, 0, 75, 38
3, 1252063, Note_on_c, 0, 75, 0
3, 1252080, Note_on_c, 0, 72, 38
3, 1252207, Note_on_c, 0, 84, 0
3, 1252207, Note_on_c, 0, 60, 0
3, 1252207, Note_on_c, 0, 66, 0
3, 1252207, Note_on_c, 0, 54, 0
3, 1252207, Note_on_c, 0, 63, 0
3, 1252243, Note_on_c, 0, 72, 0
3, 1252260, Note_on_c, 0, 85, 54
3, 1252260, Note_on_c, 0, 85, 43
3, 1252260, Note_on_c, 0, 54, 51
3, 1252260, Note_on_c, 0, 61, 54
3, 1252260, Note_on_c, 0, 63, 53
3, 1252260, Note_on_c, 0, 66, 51
3, 1252423, Note_on_c, 0, 85, 0
3, 1252440, Note_on_c, 0, 75, 36
3, 1252603, Note_on_c, 0, 75, 0
3, 1252620, Note_on_c, 0, 73, 39
3, 1252747, Note_on_c, 0, 66, 0
3, 1252747, Note_on_c, 0, 61, 0
3, 1252747, Note_on_c, 0, 85, 0
3, 1252747, Note_on_c, 0, 54, 0
3, 1252747, Note_on_c, 0, 63, 0
3, 1252783, Note_on_c, 0, 73, 0
3, 1252800, Note_on_c, 0, 89, 57
3, 1252800, Note_on_c, 0, 89, 50
3, 1252800, Note_on_c, 0, 32, 41
3, 1252800, Note_on_c, 0, 44, 42
3, 1252963, Note_on_c, 0, 89, 0
3, 1252980, Note_on_c, 0, 80, 37
3, 1253143, Note_on_c, 0, 80, 0
3, 1253160, Note_on_c, 0, 77, 39
3, 1253287, Note_on_c, 0, 44, 0
3, 1253287, Note_on_c, 0, 32, 0
3, 1253287, Note_on_c, 0, 89, 0
3, 1253323, Note_on_c, 0, 77, 0
3, 1253340, Note_on_c, 0, 84, 51
3, 1253340, Note_on_c, 0, 84, 37
3, 1253340, Note_on_c, 0, 53, 64
3, 1253340, Note_on_c, 0, 56, 64
3, 1253340, Note_on_c, 0, 60, 62
3, 1253340, Note_on_c, 0, 65, 64
3, 1253503, Note_on_c, 0, 84, 0
3, 1253520, Note_on_c, 0, 80, 38
3, 1253683, Note_on_c, 0, 80, 0
3, 1253700, Note_on_c, 0, 72, 35
3, 1253827, Note_on_c, 0, 84, 0
3, 1253863, Note_on_c, 0, 72, 0
3, 1253880, Note_on_c, 0, 84, 56
3, 1253880, Note_on_c, 0, 84, 44
3, 1254043, Note_on_c, 0, 84, 0
3, 1254060, Note_on_c, 0, 80, 40
3, 1254223, Note_on_c, 0, 80, 0
3, 1254240, Note_on_c, 0, 72, 35
3, 1254367, Note_on_c, 0, 84, 0
3, 1254367, Note_on_c, 0, 56, 0
3, 1254367, Note_on_c, 0, 65, 0
3, 1254367, Note_on_c, 0, 53, 0
3, 1254367, Note_on_c, 0, 60, 0
3, 1254403, Note_on_c, 0, 72, 0
3, 1254420, Note_on_c, 0, 85, 54
3, 1254420, Note_on_c, 0, 85, 43
3, 1254420, Note_on_c, 0, 53, 51
3, 1254420, Note_on_c, 0, 58, 52
3, 1254420, Note_on_c, 0, 61, 54
3, 1254420, Note_on_c, 0, 65, 54
3, 1254583, Note_on_c, 0, 85, 0
3, 1254600, Note_on_c, 0, 82, 41
3, 1254763, Note_on_c, 0, 82, 0
3, 1254780, Note_on_c, 0, 73, 32
3, 1254907, Note_on_c, 0, 65, 0
3, 1254907, Note_on_c, 0, 58, 0
3, 1254907, Note_on_c, 0, 85, 0
3, 1254907, Note_on_c, 0, 53, 0
3, 1254907, Note_on_c, 0, 61, 0
3, 1254943, Note_on_c, 0, 73, 0
3, 1254960, Note_on_c, 0, 89, 54
3, 1254960, Note_on_c, 0, 89, 49
3, 1254960, Note_on_c, 0, 32, 41
3, 1254960, Note_on_c, 0, 44, 42
3, 1255123, Note_on_c, 0, 89, 0
3, 1255140, Note_on_c, 0, 80, 36
3, 1255303, Note_on_c, 0, 80, 0
3, 1255320, Note_on_c, 0, 77, 37
3, 1255447, Note_on_c, 0, 44, 0
3, 1255447, Note_on_c, 0, 32, 0
3, 1255447, Note_on_c, 0, 89, 0
3, 1255483, Note_on_c, 0, 77, 0
3, 1255500, Note_on_c, 0, 84, 51
3, 1255500, Note_on_c, 0, 84, 39
3, 1255500, Note_on_c, 0, 53, 64
3, 1255500, Note_on_c, 0, 56, 63
3, 1255500, Note_on_c, 0, 60, 62
3, 1255500, Note_on_c, 0, 65, 65
3, 1255663, Note_on_c, 0, 84, 0
3, 1255680, Note_on_c, 0, 80, 39
3, 1255843, Note_on_c, 0, 80, 0
3, 1255860, Note_on_c, 0, 72, 34
3, 1255987, Note_on_c, 0, 84, 0
3, 1256023, Note_on_c, 0, 72, 0
3, 1256040, Note_on_c, 0, 84, 55
3, 1256040, Note_on_c, 0, 84, 45
3, 1256203, Note_on_c, 0, 84, 0
3, 1256220, Note_on_c, 0, 80, 40
3, 1256383, Note_on_c, 0, 80, 0
3, 1256400, Note_on_c, 0, 72, 36
3, 1256527, Note_on_c, 0, 84, 0
3, 1256527, Note_on_c, 0, 56, 0
3, 1256527, Note_on_c, 0, 65, 0
3, 1256527, Note_on_c, 0, 53, 0
3, 1256527, Note_on_c, 0, 60, 0
3, 1256563, Note_on_c, 0, 72, 0
3, 1256580, Note_on_c, 0, 85, 57
3, 1256580, Note_on_c, 0, 85, 43
3, 1256580, Note_on_c, 0, 53, 55
3, 1256580, Note_on_c, 0, 58, 55
3, 1256580, Note_on_c, 0, 61, 54
3, 1256580, Note_on_c, 0, 65, 55
3, 1256743, Note_on_c, 0, 85, 0
3, 1256760, Note_on_c, 0, 82, 42
3, 1256923, Note_on_c, 0, 82, 0
3, 1256940, Note_on_c, 0, 73, 32
3, 1257067, Note_on_c, 0, 65, 0
3, 1257067, Note_on_c, 0, 58, 0
3, 1257067, Note_on_c, 0, 85, 0
3, 1257067, Note_on_c, 0, 53, 0
3, 1257067, Note_on_c, 0, 61, 0
3, 1257103, Note_on_c, 0, 73, 0
3, 1257120, Note_on_c, 0, 72, 53
3, 1257120, Note_on_c, 0, 77, 55
3, 1257120, Note_on_c, 0, 84, 52
3, 1257120, Note_on_c, 0, 25, 42
3, 1257120, Note_on_c, 0, 37, 43
3, 1257283, Note_on_c, 0, 84, 0
3, 1257283, Note_on_c, 0, 77, 0
3, 1257283, Note_on_c, 0, 72, 0
3, 1257480, Note_on_c, 0, 55, 41
3, 1257643, Note_on_c, 0, 55, 0
3, 1257660, Note_on_c, 0, 56, 43
3, 1257823, Note_on_c, 0, 56, 0
3, 1258020, Note_on_c, 0, 59, 40
3, 1258183, Note_on_c, 0, 59, 0
3, 1258200, Note_on_c, 0, 60, 48
3, 1258363, Note_on_c, 0, 60, 0
3, 1258560, Note_on_c, 0, 59, 37
3, 1258723, Note_on_c, 0, 59, 0
3, 1258740, Note_on_c, 0, 60, 43
3, 1258903, Note_on_c, 0, 60, 0
3, 1259100, Note_on_c, 0, 64, 40
3, 1259263, Note_on_c, 0, 64, 0
3, 1259280, Note_on_c, 0, 65, 49
3, 1259443, Note_on_c, 0, 65, 0
3, 1259640, Note_on_c, 0, 64, 38
3, 1259803, Note_on_c, 0, 64, 0
3, 1259820, Note_on_c, 0, 65, 46
3, 1259983, Note_on_c, 0, 65, 0
3, 1260180, Note_on_c, 0, 67, 38
3, 1260290, Note_on_c, 0, 37, 0
3, 1260290, Note_on_c, 0, 25, 0
3, 1260343, Note_on_c, 0, 67, 0
3, 1260360, Note_on_c, 0, 68, 46
3, 1260360, Note_on_c, 0, 37, 69
3, 1260360, Note_on_c, 0, 49, 71
3, 1260523, Note_on_c, 0, 68, 0
3, 1260720, Note_on_c, 0, 67, 41
3, 1260883, Note_on_c, 0, 67, 0
3, 1260900, Note_on_c, 0, 68, 45
3, 1261063, Note_on_c, 0, 68, 0
3, 1261260, Note_on_c, 0, 71, 40
3, 1261370, Note_on_c, 0, 49, 0
3, 1261370, Note_on_c, 0, 37, 0
3, 1261423, Note_on_c, 0, 71, 0
3, 1261440, Note_on_c, 0, 72, 48
3, 1261440, Note_on_c, 0, 38, 59
3, 1261440, Note_on_c, 0, 50, 61
3, 1261603, Note_on_c, 0, 72, 0
3, 1261800, Note_on_c, 0, 71, 37
3, 1261963, Note_on_c, 0, 71, 0
3, 1261980, Note_on_c, 0, 72, 42
3, 1262143, Note_on_c, 0, 72, 0
3, 1262340, Note_on_c, 0, 76, 39
3, 1262503, Note_on_c, 0, 76, 0
3, 1262520, Note_on_c, 0, 77, 48
3, 1262683, Note_on_c, 0, 77, 0
3, 1262880, Note_on_c, 0, 76, 39
3, 1263043, Note_on_c, 0, 76, 0
3, 1263060, Note_on_c, 0, 77, 42
3, 1263223, Note_on_c, 0, 77, 0
3, 1263420, Note_on_c, 0, 79, 41
3, 1263530, Note_on_c, 0, 50, 0
3, 1263530, Note_on_c, 0, 38, 0
3, 1263583, Note_on_c, 0, 79, 0
3, 1263600, Note_on_c, 0, 80, 49
3, 1263600, Note_on_c, 0, 32, 48
3, 1263600, Note_on_c, 0, 44, 48
3, 1263763, Note_on_c, 0, 80, 0
3, 1263960, Note_on_c, 0, 79, 39
3, 1264123, Note_on_c, 0, 79, 0
3, 1264140, Note_on_c, 0, 80, 43
3, 1264303, Note_on_c, 0, 80, 0
3, 1264500, Note_on_c, 0, 83, 40
3, 1264610, Note_on_c, 0, 44, 0
3, 1264610, Note_on_c, 0, 32, 0
3, 1264663, Note_on_c, 0, 83, 0
3, 1264680, Note_on_c, 0, 72, 47
3, 1264680, Note_on_c, 0, 84, 45
3, 1264680, Note_on_c, 0, 30, 51
3, 1264680, Note_on_c, 0, 42, 49
3, 1264843, Note_on_c, 0, 84, 0
3, 1264843, Note_on_c, 0, 72, 0
3, 1265040, Note_on_c, 0, 83, 41
3, 1265203, Note_on_c, 0, 83, 0
3, 1265220, Note_on_c, 0, 72, 42
3, 1265220, Note_on_c, 0, 84, 44
3, 1265383, Note_on_c, 0, 84, 0
3, 1265383, Note_on_c, 0, 72, 0
3, 1265580, Note_on_c, 0, 87, 38
3, 1265690, Note_on_c, 0, 42, 0
3, 1265690, Note_on_c, 0, 30, 0
3, 1265743, Note_on_c, 0, 87, 0
3, 1265760, Note_on_c, 0, 79, 47
3, 1265760, Note_on_c, 0, 84, 50
3, 1265760, Note_on_c, 0, 91, 48
3, 1265760, Note_on_c, 0, 31, 55
3, 1265760, Note_on_c, 0, 43, 58
3, 1265923, Note_on_c, 0, 43, 0
3, 1265923, Note_on_c, 0, 79, 0
3, 1265923, Note_on_c, 0, 84, 0
3, 1265923, Note_on_c, 0, 91, 0
3, 1265923, Note_on_c, 0, 31, 0
3, 1269540, Note_on_c, 0, 31, 53
3, 1269703, Note_on_c, 0, 31, 0
3, 1269720, Note_on_c, 0, 43, 65
3, 1269883, Note_on_c, 0, 43, 0
3, 1269900, Note_on_c, 0, 31, 42
3, 1270063, Note_on_c, 0, 31, 0
3, 1270080, Note_on_c, 0, 43, 67
3, 1270405, Note_on_c, 0, 43, 0
3, 1271700, Note_on_c, 0, 50, 39
3, 1272187, Note_on_c, 0, 50, 0
3, 1272240, Note_on_c, 0, 51, 47
3, 1273250, Note_on_c, 0, 51, 0
3, 1273860, Note_on_c, 0, 43, 48
3, 1274347, Note_on_c, 0, 43, 0
3, 1274400, Note_on_c, 0, 44, 57
3, 1275410, Note_on_c, 0, 44, 0
3, 1275480, Note_on_c, 0, 43, 52
3, 1276490, Note_on_c, 0, 43, 0
3, 1276560, Note_on_c, 0, 39, 49
3, 1277570, Note_on_c, 0, 39, 0
3, 1277640, Note_on_c, 0, 38, 53
3, 1278650, Note_on_c, 0, 38, 0
3, 1278720, Note_on_c, 0, 43, 61
3, 1278883, Note_on_c, 0, 43, 0
3, 1279260, Note_on_c, 0, 60, 41
3, 1279260, Note_on_c, 0, 62, 42
3, 1279260, Note_on_c, 0, 53, 50
3, 1279423, Note_on_c, 0, 53, 0
3, 1279423, Note_on_c, 0, 62, 0
3, 1279423, Note_on_c, 0, 60, 0
3, 1279800, Note_on_c, 0, 60, 41
3, 1279800, Note_on_c, 0, 63, 43
3, 1279800, Note_on_c, 0, 55, 51
3, 1279963, Note_on_c, 0, 55, 0
3, 1279963, Note_on_c, 0, 63, 0
3, 1279963, Note_on_c, 0, 60, 0
3, 1280340, Note_on_c, 0, 60, 42
3, 1280340, Note_on_c, 0, 65, 40
3, 1280340, Note_on_c, 0, 56, 53
3, 1280503, Note_on_c, 0, 56, 0
3, 1280503, Note_on_c, 0, 65, 0
3, 1280503, Note_on_c, 0, 60, 0
3, 1280880, Note_on_c, 0, 60, 44
3, 1280880, Note_on_c, 0, 63, 41
3, 1280880, Note_on_c, 0, 55, 53
3, 1281043, Note_on_c, 0, 55, 0
3, 1281043, Note_on_c, 0, 63, 0
3, 1281043, Note_on_c, 0, 60, 0
3, 1281420, Note_on_c, 0, 60, 44
3, 1281420, Note_on_c, 0, 51, 50
3, 1281420, Note_on_c, 0, 55, 52
3, 1281583, Note_on_c, 0, 55, 0
3, 1281583, Note_on_c, 0, 51, 0
3, 1281583, Note_on_c, 0, 60, 0
3, 1281960, Note_on_c, 0, 60, 42
3, 1281960, Note_on_c, 0, 62, 42
3, 1281960, Note_on_c, 0, 53, 52
3, 1282123, Note_on_c, 0, 53, 0
3, 1282123, Note_on_c, 0, 62, 0
3, 1282123, Note_on_c, 0, 60, 0
3, 1282500, Note_on_c, 0, 59, 41
3, 1282500, Note_on_c, 0, 50, 49
3, 1282500, Note_on_c, 0, 53, 52
3, 1282663, Note_on_c, 0, 53, 0
3, 1282663, Note_on_c, 0, 50, 0
3, 1282663, Note_on_c, 0, 59, 0
3, 1283040, Note_on_c, 0, 60, 43
3, 1283040, Note_on_c, 0, 51, 51
3, 1283040, Note_on_c, 0, 55, 50
3, 1283203, Note_on_c, 0, 55, 0
3, 1283203, Note_on_c, 0, 51, 0
3, 1283203, Note_on_c, 0, 60, 0
3, 1283580, Note_on_c, 0, 79, 40
3, 1283580, Note_on_c, 0, 55, 50
3, 1283743, Note_on_c, 0, 55, 0
3, 1283743, Note_on_c, 0, 79, 0
3, 1283760, Note_on_c, 0, 80, 42
3, 1283760, Note_on_c, 0, 56, 54
3, 1283923, Note_on_c, 0, 56, 0
3, 1283923, Note_on_c, 0, 80, 0
3, 1283940, Note_on_c, 0, 82, 43
3, 1283940, Note_on_c, 0, 58, 56
3, 1284103, Note_on_c, 0, 58, 0
3, 1284103, Note_on_c, 0, 82, 0
3, 1284120, Note_on_c, 0, 84, 73
3, 1284120, Note_on_c, 0, 60, 87
3, 1284283, Note_on_c, 0, 60, 0
3, 1284283, Note_on_c, 0, 84, 0
3, 1284300, Note_on_c, 0, 85, 44
3, 1284300, Note_on_c, 0, 61, 55
3, 1284463, Note_on_c, 0, 61, 0
3, 1284463, Note_on_c, 0, 85, 0
3, 1284480, Note_on_c, 0, 84, 41
3, 1284480, Note_on_c, 0, 60, 49
3, 1284643, Note_on_c, 0, 60, 0
3, 1284643, Note_on_c, 0, 84, 0
3, 1284660, Note_on_c, 0, 82, 42
3, 1284660, Note_on_c, 0, 58, 53
3, 1284823, Note_on_c, 0, 58, 0
3, 1284823, Note_on_c, 0, 82, 0
3, 1284840, Note_on_c, 0, 80, 38
3, 1284840, Note_on_c, 0, 56, 49
3, 1285003, Note_on_c, 0, 56, 0
3, 1285003, Note_on_c, 0, 80, 0
3, 1285020, Note_on_c, 0, 82, 44
3, 1285020, Note_on_c, 0, 58, 57
3, 1285183, Note_on_c, 0, 58, 0
3, 1285183, Note_on_c, 0, 82, 0
3, 1285200, Note_on_c, 0, 84, 77
3, 1285200, Note_on_c, 0, 60, 84
3, 1285363, Note_on_c, 0, 60, 0
3, 1285363, Note_on_c, 0, 84, 0
3, 1285380, Note_on_c, 0, 85, 46
3, 1285380, Note_on_c, 0, 61, 54
3, 1285543, Note_on_c, 0, 61, 0
3, 1285543, Note_on_c, 0, 85, 0
3, 1285560, Note_on_c, 0, 84, 39
3, 1285560, Note_on_c, 0, 60, 53
3, 1285723, Note_on_c, 0, 60, 0
3, 1285723, Note_on_c, 0, 84, 0
3, 1285740, Note_on_c, 0, 82, 45
3, 1285740, Note_on_c, 0, 58, 55
3, 1285903, Note_on_c, 0, 58, 0
3, 1285903, Note_on_c, 0, 82, 0
3, 1285920, Note_on_c, 0, 79, 38
3, 1285920, Note_on_c, 0, 55, 47
3, 1286083, Note_on_c, 0, 55, 0
3, 1286083, Note_on_c, 0, 79, 0
3, 1286100, Note_on_c, 0, 80, 44
3, 1286100, Note_on_c, 0, 56, 54
3, 1286263, Note_on_c, 0, 56, 0
3, 1286263, Note_on_c, 0, 80, 0
3, 1286280, Note_on_c, 0, 82, 75
3, 1286280, Note_on_c, 0, 58, 85
3, 1286443, Note_on_c, 0, 58, 0
3, 1286443, Note_on_c, 0, 82, 0
3, 1286460, Note_on_c, 0, 84, 44
3, 1286460, Note_on_c, 0, 60, 58
3, 1286623, Note_on_c, 0, 60, 0
3, 1286623, Note_on_c, 0, 84, 0
3, 1286640, Note_on_c, 0, 82, 42
3, 1286640, Note_on_c, 0, 58, 51
3, 1286803, Note_on_c, 0, 58, 0
3, 1286803, Note_on_c, 0, 82, 0
3, 1286820, Note_on_c, 0, 80, 44
3, 1286820, Note_on_c, 0, 56, 50
3, 1286983, Note_on_c, 0, 56, 0
3, 1286983, Note_on_c, 0, 80, 0
3, 1287000, Note_on_c, 0, 79, 41
3, 1287000, Note_on_c, 0, 55, 51
3, 1287163, Note_on_c, 0, 55, 0
3, 1287163, Note_on_c, 0, 79, 0
3, 1287180, Note_on_c, 0, 82, 43
3, 1287180, Note_on_c, 0, 58, 57
3, 1287343, Note_on_c, 0, 58, 0
3, 1287343, Note_on_c, 0, 82, 0
3, 1287360, Note_on_c, 0, 84, 76
3, 1287360, Note_on_c, 0, 60, 85
3, 1287523, Note_on_c, 0, 60, 0
3, 1287523, Note_on_c, 0, 84, 0
3, 1287900, Note_on_c, 0, 60, 52
3, 1288063, Note_on_c, 0, 60, 0
3, 1288080, Note_on_c, 0, 58, 47
3, 1288243, Note_on_c, 0, 58, 0
3, 1288260, Note_on_c, 0, 60, 56
3, 1288423, Note_on_c, 0, 60, 0
3, 1288440, Note_on_c, 0, 61, 59
3, 1288765, Note_on_c, 0, 61, 0
3, 1288800, Note_on_c, 0, 61, 40
3, 1288963, Note_on_c, 0, 61, 0
3, 1288980, Note_on_c, 0, 63, 45
3, 1289305, Note_on_c, 0, 63, 0
3, 1289340, Note_on_c, 0, 63, 45
3, 1289503, Note_on_c, 0, 63, 0
3, 1289520, Note_on_c, 0, 60, 42
3, 1289520, Note_on_c, 0, 31, 51
3, 1289520, Note_on_c, 0, 43, 51
3, 1289845, Note_on_c, 0, 60, 0
3, 1289880, Note_on_c, 0, 60, 41
3, 1290043, Note_on_c, 0, 60, 0
3, 1290060, Note_on_c, 0, 56, 42
3, 1290223, Note_on_c, 0, 56, 0
3, 1290240, Note_on_c, 0, 58, 44
3, 1290403, Note_on_c, 0, 58, 0
3, 1290420, Note_on_c, 0, 56, 40
3, 1290583, Note_on_c, 0, 56, 0
3, 1290600, Note_on_c, 0, 55, 43
3, 1290925, Note_on_c, 0, 55, 0
3, 1290960, Note_on_c, 0, 55, 41
3, 1291123, Note_on_c, 0, 55, 0
3, 1291140, Note_on_c, 0, 52, 41
3, 1291303, Note_on_c, 0, 52, 0
3, 1291320, Note_on_c, 0, 53, 43
3, 1291483, Note_on_c, 0, 53, 0
3, 1291500, Note_on_c, 0, 52, 42
3, 1291663, Note_on_c, 0, 52, 0
3, 1291680, Note_on_c, 0, 53, 48
3, 1292005, Note_on_c, 0, 53, 0
3, 1292040, Note_on_c, 0, 52, 43
3, 1292203, Note_on_c, 0, 52, 0
3, 1292220, Note_on_c, 0, 53, 47
3, 1292383, Note_on_c, 0, 53, 0
3, 1292400, Note_on_c, 0, 52, 39
3, 1292563, Note_on_c, 0, 52, 0
3, 1292580, Note_on_c, 0, 53, 44
3, 1292743, Note_on_c, 0, 53, 0
3, 1292760, Note_on_c, 0, 55, 47
3, 1293085, Note_on_c, 0, 55, 0
3, 1293120, Note_on_c, 0, 55, 41
3, 1293283, Note_on_c, 0, 55, 0
3, 1293300, Note_on_c, 0, 56, 42
3, 1293625, Note_on_c, 0, 56, 0
3, 1293660, Note_on_c, 0, 56, 44
3, 1293770, Note_on_c, 0, 43, 0
3, 1293770, Note_on_c, 0, 31, 0
3, 1293823, Note_on_c, 0, 56, 0
3, 1293840, Note_on_c, 0, 53, 43
3, 1293840, Note_on_c, 0, 31, 44
3, 1294165, Note_on_c, 0, 53, 0
3, 1294200, Note_on_c, 0, 53, 44
3, 1294363, Note_on_c, 0, 53, 0
3, 1294380, Note_on_c, 0, 48, 37
3, 1294705, Note_on_c, 0, 48, 0
3, 1294740, Note_on_c, 0, 48, 41
3, 1294903, Note_on_c, 0, 48, 0
3, 1294920, Note_on_c, 0, 46, 43
3, 1295245, Note_on_c, 0, 46, 0
3, 1295280, Note_on_c, 0, 46, 40
3, 1295443, Note_on_c, 0, 46, 0
3, 1295460, Note_on_c, 0, 43, 38
3, 1295785, Note_on_c, 0, 43, 0
3, 1295820, Note_on_c, 0, 43, 43
3, 1295983, Note_on_c, 0, 43, 0
3, 1296000, Note_on_c, 0, 48, 52
3, 1296000, Note_on_c, 0, 43, 69
3, 1296163, Note_on_c, 0, 48, 0
3, 1297260, Note_on_c, 0, 53, 40
3, 1297423, Note_on_c, 0, 53, 0
3, 1297440, Note_on_c, 0, 53, 40
3, 1297603, Note_on_c, 0, 53, 0
3, 1297620, Note_on_c, 0, 53, 46
3, 1298647, Note_on_c, 0, 53, 0
3, 1298700, Note_on_c, 0, 60, 53
3, 1298863, Note_on_c, 0, 60, 0
3, 1298880, Note_on_c, 0, 61, 43
3, 1299043, Note_on_c, 0, 61, 0
3, 1299060, Note_on_c, 0, 60, 43
3, 1299223, Note_on_c, 0, 60, 0
3, 1299240, Note_on_c, 0, 61, 45
3, 1299403, Note_on_c, 0, 61, 0
3, 1299420, Note_on_c, 0, 60, 42
3, 1299583, Note_on_c, 0, 60, 0
3, 1299600, Note_on_c, 0, 61, 43
3, 1299763, Note_on_c, 0, 61, 0
3, 1299780, Note_on_c, 0, 60, 45
3, 1300250, Note_on_c, 0, 43, 0
3, 1300250, Note_on_c, 0, 31, 0
3, 1300320, Note_on_c, 0, 31, 56
3, 1300320, Note_on_c, 0, 43, 54
3, 1300807, Note_on_c, 0, 60, 0
3, 1300860, Note_on_c, 0, 66, 56
3, 1300860, Note_on_c, 0, 72, 57
3, 1300860, Note_on_c, 0, 74, 55
3, 1300994, Note_on_c, 0, 74, 0
3, 1300994, Note_on_c, 0, 66, 0
3, 1300994, Note_on_c, 0, 72, 0
3, 1301130, Note_on_c, 0, 67, 46
3, 1301130, Note_on_c, 0, 72, 48
3, 1301130, Note_on_c, 0, 76, 46
3, 1301264, Note_on_c, 0, 76, 0
3, 1301264, Note_on_c, 0, 67, 0
3, 1301264, Note_on_c, 0, 72, 0
3, 1301400, Note_on_c, 0, 69, 49
3, 1301400, Note_on_c, 0, 72, 48
3, 1301400, Note_on_c, 0, 78, 48
3, 1301534, Note_on_c, 0, 78, 0
3, 1301534, Note_on_c, 0, 69, 0
3, 1301534, Note_on_c, 0, 72, 0
3, 1301670, Note_on_c, 0, 69, 45
3, 1301670, Note_on_c, 0, 72, 45
3, 1301670, Note_on_c, 0, 78, 43
3, 1301804, Note_on_c, 0, 78, 0
3, 1301804, Note_on_c, 0, 69, 0
3, 1301804, Note_on_c, 0, 72, 0
3, 1301940, Note_on_c, 0, 69, 45
3, 1301940, Note_on_c, 0, 72, 44
3, 1301940, Note_on_c, 0, 78, 47
3, 1302074, Note_on_c, 0, 78, 0
3, 1302074, Note_on_c, 0, 69, 0
3, 1302074, Note_on_c, 0, 72, 0
3, 1302210, Note_on_c, 0, 70, 42
3, 1302210, Note_on_c, 0, 72, 45
3, 1302210, Note_on_c, 0, 79, 44
3, 1302344, Note_on_c, 0, 79, 0
3, 1302344, Note_on_c, 0, 70, 0
3, 1302344, Note_on_c, 0, 72, 0
3, 1302480, Note_on_c, 0, 69, 44
3, 1302480, Note_on_c, 0, 72, 42
3, 1302480, Note_on_c, 0, 78, 42
3, 1302614, Note_on_c, 0, 78, 0
3, 1302614, Note_on_c, 0, 69, 0
3, 1302614, Note_on_c, 0, 72, 0
3, 1302750, Note_on_c, 0, 69, 41
3, 1302750, Note_on_c, 0, 72, 42
3, 1302750, Note_on_c, 0, 78, 45
3, 1302884, Note_on_c, 0, 78, 0
3, 1302884, Note_on_c, 0, 69, 0
3, 1302884, Note_on_c, 0, 72, 0
3, 1303020, Note_on_c, 0, 69, 48
3, 1303020, Note_on_c, 0, 72, 46
3, 1303020, Note_on_c, 0, 78, 47
3, 1303154, Note_on_c, 0, 78, 0
3, 1303154, Note_on_c, 0, 69, 0
3, 1303154, Note_on_c, 0, 72, 0
3, 1303290, Note_on_c, 0, 66, 37
3, 1303290, Note_on_c, 0, 72, 38
3, 1303290, Note_on_c, 0, 74, 39
3, 1303424, Note_on_c, 0, 74, 0
3, 1303424, Note_on_c, 0, 66, 0
3, 1303424, Note_on_c, 0, 72, 0
3, 1303560, Note_on_c, 0, 67, 45
3, 1303560, Note_on_c, 0, 72, 48
3, 1303560, Note_on_c, 0, 75, 45
3, 1303694, Note_on_c, 0, 75, 0
3, 1303694, Note_on_c, 0, 67, 0
3, 1303694, Note_on_c, 0, 72, 0
3, 1303830, Note_on_c, 0, 67, 43
3, 1303830, Note_on_c, 0, 72, 42
3, 1303830, Note_on_c, 0, 75, 41
3, 1303964, Note_on_c, 0, 75, 0
3, 1303964, Note_on_c, 0, 67, 0
3, 1303964, Note_on_c, 0, 72, 0
3, 1304100, Note_on_c, 0, 67, 45
3, 1304100, Note_on_c, 0, 72, 46
3, 1304100, Note_on_c, 0, 75, 48
3, 1304234, Note_on_c, 0, 75, 0
3, 1304234, Note_on_c, 0, 67, 0
3, 1304234, Note_on_c, 0, 72, 0
3, 1304370, Note_on_c, 0, 63, 39
3, 1304370, Note_on_c, 0, 72, 41
3, 1304504, Note_on_c, 0, 72, 0
3, 1304504, Note_on_c, 0, 63, 0
3, 1304640, Note_on_c, 0, 66, 48
3, 1304640, Note_on_c, 0, 72, 47
3, 1304640, Note_on_c, 0, 74, 46
3, 1304803, Note_on_c, 0, 74, 0
3, 1304803, Note_on_c, 0, 43, 0
3, 1304803, Note_on_c, 0, 31, 0
3, 1304803, Note_on_c, 0, 66, 0
3, 1304803, Note_on_c, 0, 72, 0
3, 1305180, Note_on_c, 0, 53, 40
3, 1305180, Note_on_c, 0, 59, 41
3, 1305180, Note_on_c, 0, 50, 50
3, 1305314, Note_on_c, 0, 50, 0
3, 1305314, Note_on_c, 0, 59, 0
3, 1305314, Note_on_c, 0, 53, 0
3, 1305450, Note_on_c, 0, 55, 45
3, 1305450, Note_on_c, 0, 60, 44
3, 1305450, Note_on_c, 0, 51, 56
3, 1305584, Note_on_c, 0, 51, 0
3, 1305584, Note_on_c, 0, 60, 0
3, 1305584, Note_on_c, 0, 55, 0
3, 1305720, Note_on_c, 0, 59, 47
3, 1305720, Note_on_c, 0, 62, 49
3, 1305720, Note_on_c, 0, 53, 58
3, 1305809, Note_on_c, 0, 53, 0
3, 1305809, Note_on_c, 0, 62, 0
3, 1305809, Note_on_c, 0, 59, 0
3, 1306260, Note_on_c, 0, 60, 42
3, 1306260, Note_on_c, 0, 63, 42
3, 1306260, Note_on_c, 0, 54, 52
3, 1306394, Note_on_c, 0, 54, 0
3, 1306394, Note_on_c, 0, 63, 0
3, 1306394, Note_on_c, 0, 60, 0
3, 1306530, Note_on_c, 0, 60, 40
3, 1306530, Note_on_c, 0, 63, 44
3, 1306530, Note_on_c, 0, 54, 52
3, 1306664, Note_on_c, 0, 54, 0
3, 1306664, Note_on_c, 0, 63, 0
3, 1306664, Note_on_c, 0, 60, 0
3, 1306800, Note_on_c, 0, 59, 44
3, 1306800, Note_on_c, 0, 62, 43
3, 1306800, Note_on_c, 0, 53, 51
3, 1306889, Note_on_c, 0, 53, 0
3, 1306889, Note_on_c, 0, 62, 0
3, 1306889, Note_on_c, 0, 59, 0
3, 1307340, Note_on_c, 0, 59, 42
3, 1307340, Note_on_c, 0, 50, 51
3, 1307340, Note_on_c, 0, 53, 50
3, 1307474, Note_on_c, 0, 53, 0
3, 1307474, Note_on_c, 0, 50, 0
3, 1307474, Note_on_c, 0, 59, 0
3, 1307610, Note_on_c, 0, 59, 43
3, 1307610, Note_on_c, 0, 50, 51
3, 1307610, Note_on_c, 0, 53, 52
3, 1307744, Note_on_c, 0, 53, 0
3, 1307744, Note_on_c, 0, 50, 0
3, 1307744, Note_on_c, 0, 59, 0
3, 1307880, Note_on_c, 0, 60, 49
3, 1307880, Note_on_c, 0, 51, 60
3, 1307880, Note_on_c, 0, 54, 57
3, 1307969, Note_on_c, 0, 54, 0
3, 1307969, Note_on_c, 0, 51, 0
3, 1307969, Note_on_c, 0, 60, 0
3, 1308420, Note_on_c, 0, 57, 44
3, 1308420, Note_on_c, 0, 48, 53
3, 1308420, Note_on_c, 0, 51, 52
3, 1308554, Note_on_c, 0, 51, 0
3, 1308554, Note_on_c, 0, 48, 0
3, 1308554, Note_on_c, 0, 57, 0
3, 1308690, Note_on_c, 0, 57, 43
3, 1308690, Note_on_c, 0, 48, 50
3, 1308690, Note_on_c, 0, 51, 50
3, 1308824, Note_on_c, 0, 51, 0
3, 1308824, Note_on_c, 0, 48, 0
3, 1308824, Note_on_c, 0, 57, 0
3, 1308960, Note_on_c, 0, 59, 49
3, 1308960, Note_on_c, 0, 50, 59
3, 1308960, Note_on_c, 0, 53, 59
3, 1309123, Note_on_c, 0, 53, 0
3, 1309123, Note_on_c, 0, 50, 0
3, 1309123, Note_on_c, 0, 59, 0
3, 1309140, Note_on_c, 0, 55, 39
3, 1309303, Note_on_c, 0, 55, 0
3, 1309320, Note_on_c, 0, 57, 45
3, 1309483, Note_on_c, 0, 57, 0
3, 1309500, Note_on_c, 0, 59, 50
3, 1309500, Note_on_c, 0, 31, 46
3, 1309500, Note_on_c, 0, 43, 50
3, 1309663, Note_on_c, 0, 59, 0
3, 1309680, Note_on_c, 0, 60, 43
3, 1309843, Note_on_c, 0, 60, 0
3, 1309860, Note_on_c, 0, 62, 46
3, 1310023, Note_on_c, 0, 62, 0
3, 1310040, Note_on_c, 0, 63, 50
3, 1310203, Note_on_c, 0, 63, 0
3, 1310220, Note_on_c, 0, 65, 46
3, 1310383, Note_on_c, 0, 65, 0
3, 1310400, Note_on_c, 0, 67, 47
3, 1310563, Note_on_c, 0, 67, 0
3, 1310580, Note_on_c, 0, 68, 74
3, 1310743, Note_on_c, 0, 68, 0
3, 1310760, Note_on_c, 0, 67, 40
3, 1310923, Note_on_c, 0, 67, 0
3, 1310940, Note_on_c, 0, 65, 40
3, 1311103, Note_on_c, 0, 65, 0
3, 1311120, Note_on_c, 0, 62, 43
3, 1311283, Note_on_c, 0, 62, 0
3, 1311300, Note_on_c, 0, 63, 45
3, 1311463, Note_on_c, 0, 63, 0
3, 1311480, Note_on_c, 0, 65, 45
3, 1311607, Note_on_c, 0, 43, 0
3, 1311607, Note_on_c, 0, 31, 0
3, 1311643, Note_on_c, 0, 65, 0
3, 1311660, Note_on_c, 0, 67, 75
3, 1311660, Note_on_c, 0, 31, 55
3, 1311660, Note_on_c, 0, 43, 52
3, 1311823, Note_on_c, 0, 67, 0
3, 1311840, Note_on_c, 0, 63, 41
3, 1312003, Note_on_c, 0, 63, 0
3, 1312020, Note_on_c, 0, 62, 41
3, 1312183, Note_on_c, 0, 62, 0
3, 1312200, Note_on_c, 0, 60, 42
3, 1312363, Note_on_c, 0, 60, 0
3, 1312380, Note_on_c, 0, 62, 47
3, 1312543, Note_on_c, 0, 62, 0
3, 1312560, Note_on_c, 0, 63, 45
3, 1312723, Note_on_c, 0, 63, 0
3, 1312740, Note_on_c, 0, 66, 75
3, 1312903, Note_on_c, 0, 66, 0
3, 1312920, Note_on_c, 0, 62, 39
3, 1313083, Note_on_c, 0, 62, 0
3, 1313100, Note_on_c, 0, 60, 41
3, 1313263, Note_on_c, 0, 60, 0
3, 1313280, Note_on_c, 0, 62, 49
3, 1313443, Note_on_c, 0, 62, 0
3, 1313443, Note_on_c, 0, 43, 0
3, 1313443, Note_on_c, 0, 31, 0
3, 1313820, Note_on_c, 0, 67, 44
3, 1313820, Note_on_c, 0, 51, 49
3, 1313820, Note_on_c, 0, 55, 49
3, 1313820, Note_on_c, 0, 63, 49
3, 1313983, Note_on_c, 0, 67, 0
3, 1314000, Note_on_c, 0, 65, 38
3, 1314145, Note_on_c, 0, 55, 0
3, 1314145, Note_on_c, 0, 63, 0
3, 1314145, Note_on_c, 0, 51, 0
3, 1314163, Note_on_c, 0, 65, 0
3, 1314180, Note_on_c, 0, 67, 43
3, 1314343, Note_on_c, 0, 67, 0
3, 1314360, Note_on_c, 0, 68, 47
3, 1314360, Note_on_c, 0, 53, 53
3, 1314360, Note_on_c, 0, 56, 52
3, 1314360, Note_on_c, 0, 65, 52
3, 1314685, Note_on_c, 0, 65, 0
3, 1314685, Note_on_c, 0, 53, 0
3, 1314685, Note_on_c, 0, 56, 0
3, 1314685, Note_on_c, 0, 68, 0
3, 1314720, Note_on_c, 0, 68, 43
3, 1314883, Note_on_c, 0, 68, 0
3, 1314900, Note_on_c, 0, 70, 45
3, 1314900, Note_on_c, 0, 55, 47
3, 1314900, Note_on_c, 0, 58, 48
3, 1314900, Note_on_c, 0, 67, 48
3, 1315225, Note_on_c, 0, 67, 0
3, 1315225, Note_on_c, 0, 55, 0
3, 1315225, Note_on_c, 0, 58, 0
3, 1315225, Note_on_c, 0, 70, 0
3, 1315260, Note_on_c, 0, 70, 45
3, 1315423, Note_on_c, 0, 70, 0
3, 1315440, Note_on_c, 0, 67, 41
3, 1315440, Note_on_c, 0, 51, 50
3, 1315440, Note_on_c, 0, 55, 53
3, 1315440, Note_on_c, 0, 63, 51
3, 1315765, Note_on_c, 0, 63, 0
3, 1315765, Note_on_c, 0, 51, 0
3, 1315765, Note_on_c, 0, 55, 0
3, 1315765, Note_on_c, 0, 67, 0
3, 1315800, Note_on_c, 0, 67, 42
3, 1315963, Note_on_c, 0, 67, 0
3, 1315980, Note_on_c, 0, 63, 37
3, 1315980, Note_on_c, 0, 48, 46
3, 1315980, Note_on_c, 0, 51, 47
3, 1315980, Note_on_c, 0, 60, 47
3, 1316305, Note_on_c, 0, 60, 0
3, 1316305, Note_on_c, 0, 48, 0
3, 1316305, Note_on_c, 0, 51, 0
3, 1316305, Note_on_c, 0, 63, 0
3, 1316340, Note_on_c, 0, 63, 40
3, 1316503, Note_on_c, 0, 63, 0
3, 1316520, Note_on_c, 0, 62, 45
3, 1316520, Note_on_c, 0, 46, 50
3, 1316520, Note_on_c, 0, 50, 52
3, 1316520, Note_on_c, 0, 58, 52
3, 1316845, Note_on_c, 0, 58, 0
3, 1316845, Note_on_c, 0, 46, 0
3, 1316845, Note_on_c, 0, 50, 0
3, 1316845, Note_on_c, 0, 62, 0
3, 1316880, Note_on_c, 0, 62, 43
3, 1317043, Note_on_c, 0, 62, 0
3, 1317060, Note_on_c, 0, 58, 37
3, 1317060, Note_on_c, 0, 43, 48
3, 1317060, Note_on_c, 0, 46, 48
3, 1317060, Note_on_c, 0, 55, 47
3, 1317385, Note_on_c, 0, 55, 0
3, 1317385, Note_on_c, 0, 43, 0
3, 1317385, Note_on_c, 0, 46, 0
3, 1317385, Note_on_c, 0, 58, 0
3, 1317420, Note_on_c, 0, 58, 43
3, 1317583, Note_on_c, 0, 58, 0
3, 1317600, Note_on_c, 0, 63, 51
3, 1317600, Note_on_c, 0, 43, 52
3, 1317600, Note_on_c, 0, 46, 50
3, 1317600, Note_on_c, 0, 55, 52
3, 1317763, Note_on_c, 0, 63, 0
3, 1317925, Note_on_c, 0, 46, 0
3, 1317925, Note_on_c, 0, 55, 0
3, 1317925, Note_on_c, 0, 43, 0
3, 1318140, Note_on_c, 0, 73, 41
3, 1318140, Note_on_c, 0, 43, 47
3, 1318303, Note_on_c, 0, 73, 0
3, 1318320, Note_on_c, 0, 74, 45
3, 1318483, Note_on_c, 0, 74, 0
3, 1318500, Note_on_c, 0, 76, 47
3, 1318627, Note_on_c, 0, 43, 0
3, 1318663, Note_on_c, 0, 76, 0
3, 1318680, Note_on_c, 0, 81, 77
3, 1318680, Note_on_c, 0, 31, 56
3, 1318680, Note_on_c, 0, 43, 56
3, 1318843, Note_on_c, 0, 81, 0
3, 1318860, Note_on_c, 0, 79, 41
3, 1319023, Note_on_c, 0, 79, 0
3, 1319040, Note_on_c, 0, 77, 41
3, 1319203, Note_on_c, 0, 77, 0
3, 1319220, Note_on_c, 0, 76, 41
3, 1319383, Note_on_c, 0, 76, 0
3, 1319400, Note_on_c, 0, 77, 44
3, 1319563, Note_on_c, 0, 77, 0
3, 1319580, Note_on_c, 0, 79, 47
3, 1319690, Note_on_c, 0, 43, 0
3, 1319690, Note_on_c, 0, 31, 0
3, 1319743, Note_on_c, 0, 79, 0
3, 1319760, Note_on_c, 0, 81, 75
3, 1319760, Note_on_c, 0, 31, 55
3, 1319760, Note_on_c, 0, 43, 55
3, 1319923, Note_on_c, 0, 81, 0
3, 1319940, Note_on_c, 0, 79, 39
3, 1320103, Note_on_c, 0, 79, 0
3, 1320120, Note_on_c, 0, 77, 41
3, 1320283, Note_on_c, 0, 77, 0
3, 1320300, Note_on_c, 0, 76, 45
3, 1320463, Note_on_c, 0, 76, 0
3, 1320480, Note_on_c, 0, 77, 46
3, 1320643, Note_on_c, 0, 77, 0
3, 1320660, Note_on_c, 0, 79, 47
3, 1320770, Note_on_c, 0, 43, 0
3, 1320770, Note_on_c, 0, 31, 0
3, 1320823, Note_on_c, 0, 79, 0
3, 1320840, Note_on_c, 0, 79, 70
3, 1320840, Note_on_c, 0, 31, 56
3, 1320840, Note_on_c, 0, 43, 55
3, 1321003, Note_on_c, 0, 79, 0
3, 1321020, Note_on_c, 0, 77, 39
3, 1321183, Note_on_c, 0, 77, 0
3, 1321200, Note_on_c, 0, 76, 40
3, 1321363, Note_on_c, 0, 76, 0
3, 1321380, Note_on_c, 0, 74, 43
3, 1321543, Note_on_c, 0, 74, 0
3, 1321560, Note_on_c, 0, 76, 45
3, 1321723, Note_on_c, 0, 76, 0
3, 1321740, Note_on_c, 0, 79, 45
3, 1321850, Note_on_c, 0, 43, 0
3, 1321850, Note_on_c, 0, 31, 0
3, 1321903, Note_on_c, 0, 79, 0
3, 1321920, Note_on_c, 0, 81, 48
3, 1321920, Note_on_c, 0, 31, 55
3, 1321920, Note_on_c, 0, 43, 57
3, 1322083, Note_on_c, 0, 43, 0
3, 1322083, Note_on_c, 0, 31, 0
3, 1322083, Note_on_c, 0, 81, 0
3, 1322460, Note_on_c, 0, 82, 42
3, 1322460, Note_on_c, 0, 31, 49
3, 1322460, Note_on_c, 0, 43, 50
3, 1322623, Note_on_c, 0, 82, 0
3, 1322640, Note_on_c, 0, 79, 41
3, 1322803, Note_on_c, 0, 79, 0
3, 1322820, Note_on_c, 0, 77, 40
3, 1322947, Note_on_c, 0, 43, 0
3, 1322947, Note_on_c, 0, 31, 0
3, 1322983, Note_on_c, 0, 77, 0
3, 1323000, Note_on_c, 0, 77, 46
3, 1323000, Note_on_c, 0, 53, 69
3, 1323000, Note_on_c, 0, 58, 68
3, 1323000, Note_on_c, 0, 65, 68
3, 1323163, Note_on_c, 0, 77, 0
3, 1323180, Note_on_c, 0, 74, 39
3, 1323343, Note_on_c, 0, 74, 0
3, 1323360, Note_on_c, 0, 72, 39
3, 1323523, Note_on_c, 0, 72, 0
3, 1323540, Note_on_c, 0, 70, 42
3, 1323540, Note_on_c, 0, 31, 48
3, 1323540, Note_on_c, 0, 43, 48
3, 1323703, Note_on_c, 0, 70, 0
3, 1323720, Note_on_c, 0, 67, 38
3, 1323883, Note_on_c, 0, 67, 0
3, 1323900, Note_on_c, 0, 65, 42
3, 1324027, Note_on_c, 0, 43, 0
3, 1324027, Note_on_c, 0, 31, 0
3, 1324063, Note_on_c, 0, 65, 0
3, 1324080, Note_on_c, 0, 65, 45
3, 1324243, Note_on_c, 0, 65, 0
3, 1324260, Note_on_c, 0, 67, 45
3, 1324405, Note_on_c, 0, 53, 0
3, 1324405, Note_on_c, 0, 65, 0
3, 1324405, Note_on_c, 0, 58, 0
3, 1324423, Note_on_c, 0, 67, 0
3, 1324440, Note_on_c, 0, 65, 40
3, 1324603, Note_on_c, 0, 65, 0
3, 1324620, Note_on_c, 0, 68, 46
3, 1324620, Note_on_c, 0, 31, 47
3, 1324620, Note_on_c, 0, 43, 48
3, 1324783, Note_on_c, 0, 68, 0
3, 1324800, Note_on_c, 0, 70, 43
3, 1324963, Note_on_c, 0, 70, 0
3, 1324980, Note_on_c, 0, 68, 41
3, 1325107, Note_on_c, 0, 43, 0
3, 1325107, Note_on_c, 0, 31, 0
3, 1325143, Note_on_c, 0, 68, 0
3, 1325160, Note_on_c, 0, 67, 42
3, 1325160, Note_on_c, 0, 53, 68
3, 1325160, Note_on_c, 0, 55, 67
3, 1325485, Note_on_c, 0, 67, 0
3, 1325520, Note_on_c, 0, 62, 37
3, 1325683, Note_on_c, 0, 62, 0
3, 1325700, Note_on_c, 0, 65, 49
3, 1325863, Note_on_c, 0, 65, 0
3, 1325880, Note_on_c, 0, 67, 45
3, 1326043, Note_on_c, 0, 67, 0
3, 1326060, Note_on_c, 0, 65, 38
3, 1326170, Note_on_c, 0, 55, 0
3, 1326170, Note_on_c, 0, 53, 0
3, 1326223, Note_on_c, 0, 65, 0
3, 1326240, Note_on_c, 0, 64, 42
3, 1326240, Note_on_c, 0, 31, 47
3, 1326240, Note_on_c, 0, 43, 44
3, 1326403, Note_on_c, 0, 43, 0
3, 1326403, Note_on_c, 0, 31, 0
3, 1326403, Note_on_c, 0, 64, 0
3, 1326780, Note_on_c, 0, 84, 42
3, 1326780, Note_on_c, 0, 31, 49
3, 1326780, Note_on_c, 0, 43, 48
3, 1326943, Note_on_c, 0, 84, 0
3, 1326960, Note_on_c, 0, 81, 41
3, 1327123, Note_on_c, 0, 81, 0
3, 1327140, Note_on_c, 0, 79, 41
3, 1327267, Note_on_c, 0, 43, 0
3, 1327267, Note_on_c, 0, 31, 0
3, 1327303, Note_on_c, 0, 79, 0
3, 1327320, Note_on_c, 0, 79, 47
3, 1327320, Note_on_c, 0, 58, 70
3, 1327320, Note_on_c, 0, 64, 67
3, 1327320, Note_on_c, 0, 70, 68
3, 1327483, Note_on_c, 0, 79, 0
3, 1327500, Note_on_c, 0, 76, 37
3, 1327663, Note_on_c, 0, 76, 0
3, 1327680, Note_on_c, 0, 74, 39
3, 1327843, Note_on_c, 0, 74, 0
3, 1327860, Note_on_c, 0, 72, 43
3, 1327860, Note_on_c, 0, 31, 49
3, 1327860, Note_on_c, 0, 43, 49
3, 1328023, Note_on_c, 0, 72, 0
3, 1328040, Note_on_c, 0, 69, 41
3, 1328203, Note_on_c, 0, 69, 0
3, 1328220, Note_on_c, 0, 67, 40
3, 1328330, Note_on_c, 0, 58, 0
3, 1328330, Note_on_c, 0, 70, 0
3, 1328330, Note_on_c, 0, 64, 0
3, 1328383, Note_on_c, 0, 67, 0
3, 1328400, Note_on_c, 0, 67, 43
3, 1328400, Note_on_c, 0, 31, 44
3, 1328400, Note_on_c, 0, 43, 44
3, 1328563, Note_on_c, 0, 67, 0
3, 1328580, Note_on_c, 0, 69, 45
3, 1328743, Note_on_c, 0, 69, 0
3, 1328760, Note_on_c, 0, 67, 39
3, 1328887, Note_on_c, 0, 31, 0
3, 1328887, Note_on_c, 0, 43, 0
3, 1328923, Note_on_c, 0, 67, 0
3, 1328940, Note_on_c, 0, 70, 48
3, 1328940, Note_on_c, 0, 31, 51
3, 1328940, Note_on_c, 0, 43, 50
3, 1329103, Note_on_c, 0, 70, 0
3, 1329120, Note_on_c, 0, 72, 45
3, 1329283, Note_on_c, 0, 72, 0
3, 1329300, Note_on_c, 0, 70, 42
3, 1329427, Note_on_c, 0, 31, 0
3, 1329427, Note_on_c, 0, 43, 0
3, 1329463, Note_on_c, 0, 70, 0
3, 1329480, Note_on_c, 0, 69, 43
3, 1329480, Note_on_c, 0, 52, 70
3, 1329480, Note_on_c, 0, 55, 67
3, 1329480, Note_on_c, 0, 57, 71
3, 1329805, Note_on_c, 0, 69, 0
3, 1329840, Note_on_c, 0, 64, 38
3, 1330003, Note_on_c, 0, 64, 0
3, 1330020, Note_on_c, 0, 67, 49
3, 1330183, Note_on_c, 0, 67, 0
3, 1330200, Note_on_c, 0, 69, 44
3, 1330363, Note_on_c, 0, 69, 0
3, 1330380, Note_on_c, 0, 67, 40
3, 1330490, Note_on_c, 0, 57, 0
3, 1330490, Note_on_c, 0, 52, 0
3, 1330490, Note_on_c, 0, 55, 0
3, 1330543, Note_on_c, 0, 67, 0
3, 1330560, Note_on_c, 0, 62, 44
3, 1330560, Note_on_c, 0, 66, 41
3, 1330560, Note_on_c, 0, 36, 45
3, 1330560, Note_on_c, 0, 48, 47
3, 1330723, Note_on_c, 0, 48, 0
3, 1330723, Note_on_c, 0, 66, 0
3, 1330723, Note_on_c, 0, 62, 0
3, 1330723, Note_on_c, 0, 36, 0
3, 1331100, Note_on_c, 0, 86, 64
3, 1331100, Note_on_c, 0, 36, 48
3, 1331100, Note_on_c, 0, 48, 48
3, 1331263, Note_on_c, 0, 86, 0
3, 1331280, Note_on_c, 0, 82, 39
3, 1331443, Note_on_c, 0, 82, 0
3, 1331460, Note_on_c, 0, 81, 39
3, 1331587, Note_on_c, 0, 48, 0
3, 1331587, Note_on_c, 0, 36, 0
3, 1331623, Note_on_c, 0, 81, 0
3, 1331640, Note_on_c, 0, 81, 68
3, 1331640, Note_on_c, 0, 54, 68
3, 1331640, Note_on_c, 0, 57, 70
3, 1331640, Note_on_c, 0, 66, 69
3, 1331803, Note_on_c, 0, 81, 0
3, 1331820, Note_on_c, 0, 76, 39
3, 1331983, Note_on_c, 0, 76, 0
3, 1332000, Note_on_c, 0, 69, 37
3, 1332163, Note_on_c, 0, 69, 0
3, 1332180, Note_on_c, 0, 74, 79
3, 1332343, Note_on_c, 0, 74, 0
3, 1332360, Note_on_c, 0, 69, 38
3, 1332523, Note_on_c, 0, 69, 0
3, 1332540, Note_on_c, 0, 63, 35
3, 1332650, Note_on_c, 0, 57, 0
3, 1332650, Note_on_c, 0, 54, 0
3, 1332650, Note_on_c, 0, 66, 0
3, 1332703, Note_on_c, 0, 63, 0
3, 1332720, Note_on_c, 0, 69, 78
3, 1332720, Note_on_c, 0, 36, 46
3, 1332720, Note_on_c, 0, 48, 45
3, 1332883, Note_on_c, 0, 69, 0
3, 1332900, Note_on_c, 0, 62, 36
3, 1333063, Note_on_c, 0, 62, 0
3, 1333207, Note_on_c, 0, 48, 0
3, 1333207, Note_on_c, 0, 36, 0
3, 1333260, Note_on_c, 0, 87, 66
3, 1333260, Note_on_c, 0, 34, 46
3, 1333260, Note_on_c, 0, 46, 46
3, 1333423, Note_on_c, 0, 87, 0
3, 1333440, Note_on_c, 0, 83, 40
3, 1333603, Note_on_c, 0, 83, 0
3, 1333620, Note_on_c, 0, 82, 39
3, 1333747, Note_on_c, 0, 46, 0
3, 1333747, Note_on_c, 0, 34, 0
3, 1333783, Note_on_c, 0, 82, 0
3, 1333800, Note_on_c, 0, 82, 70
3, 1333800, Note_on_c, 0, 54, 69
3, 1333800, Note_on_c, 0, 58, 68
3, 1333800, Note_on_c, 0, 66, 69
3, 1333963, Note_on_c, 0, 82, 0
3, 1333980, Note_on_c, 0, 77, 39
3, 1334143, Note_on_c, 0, 77, 0
3, 1334160, Note_on_c, 0, 70, 33
3, 1334323, Note_on_c, 0, 70, 0
3, 1334340, Note_on_c, 0, 75, 77
3, 1334503, Note_on_c, 0, 75, 0
3, 1334520, Note_on_c, 0, 70, 36
3, 1334683, Note_on_c, 0, 70, 0
3, 1334700, Note_on_c, 0, 63, 36
3, 1334810, Note_on_c, 0, 58, 0
3, 1334810, Note_on_c, 0, 54, 0
3, 1334810, Note_on_c, 0, 66, 0
3, 1334863, Note_on_c, 0, 63, 0
3, 1334880, Note_on_c, 0, 70, 82
3, 1334880, Note_on_c, 0, 34, 46
3, 1334880, Note_on_c, 0, 46, 47
3, 1335043, Note_on_c, 0, 70, 0
3, 1335060, Note_on_c, 0, 63, 36
3, 1335223, Note_on_c, 0, 63, 0
3, 1335240, Note_on_c, 0, 58, 36
3, 1335367, Note_on_c, 0, 46, 0
3, 1335367, Note_on_c, 0, 34, 0
3, 1335403, Note_on_c, 0, 58, 0
3, 1335420, Note_on_c, 0, 54, 77
3, 1335420, Note_on_c, 0, 60, 79
3, 1335420, Note_on_c, 0, 63, 79
3, 1335420, Note_on_c, 0, 66, 80
3, 1335420, Note_on_c, 0, 33, 70
3, 1335420, Note_on_c, 0, 45, 71
3, 1336447, Note_on_c, 0, 45, 0
3, 1336447, Note_on_c, 0, 54, 0
3, 1336447, Note_on_c, 0, 33, 0
3, 1336447, Note_on_c, 0, 60, 0
3, 1336447, Note_on_c, 0, 66, 0
3, 1336447, Note_on_c, 0, 63, 0
3, 1336500, Note_on_c, 0, 54, 70
3, 1336500, Note_on_c, 0, 60, 70
3, 1336500, Note_on_c, 0, 63, 66
3, 1336500, Note_on_c, 0, 66, 69
3, 1336500, Note_on_c, 0, 33, 77
3, 1336500, Note_on_c, 0, 45, 79
3, 1337283, Note_on_c, 0, 45, 0
3, 1337283, Note_on_c, 0, 54, 0
3, 1337283, Note_on_c, 0, 33, 0
3, 1337283, Note_on_c, 0, 60, 0
3, 1337283, Note_on_c, 0, 66, 0
3, 1337283, Note_on_c, 0, 63, 0
3, 1337310, Note_on_c, 0, 54, 69
3, 1337310, Note_on_c, 0, 60, 66
3, 1337310, Note_on_c, 0, 63, 66
3, 1337310, Note_on_c, 0, 66, 66
3, 1337310, Note_on_c, 0, 32, 74
3, 1337310, Note_on_c, 0, 44, 74
3, 1337553, Note_on_c, 0, 44, 0
3, 1337553, Note_on_c, 0, 54, 0
3, 1337553, Note_on_c, 0, 32, 0
3, 1337553, Note_on_c, 0, 60, 0
3, 1337553, Note_on_c, 0, 66, 0
3, 1337553, Note_on_c, 0, 63, 0
3, 1337580, Note_on_c, 0, 54, 71
3, 1337580, Note_on_c, 0, 60, 69
3, 1337580, Note_on_c, 0, 63, 70
3, 1337580, Note_on_c, 0, 66, 71
3, 1337580, Note_on_c, 0, 32, 79
3, 1337580, Note_on_c, 0, 44, 82
3, 1338607, Note_on_c, 0, 44, 0
3, 1338607, Note_on_c, 0, 54, 0
3, 1338607, Note_on_c, 0, 32, 0
3, 1338607, Note_on_c, 0, 60, 0
3, 1338607, Note_on_c, 0, 66, 0
3, 1338607, Note_on_c, 0, 63, 0
3, 1338660, Note_on_c, 0, 54, 69
3, 1338660, Note_on_c, 0, 60, 68
3, 1338660, Note_on_c, 0, 63, 69
3, 1338660, Note_on_c, 0, 66, 67
3, 1338660, Note_on_c, 0, 32, 79
3, 1338660, Note_on_c, 0, 44, 78
3, 1339147, Note_on_c, 0, 44, 0
3, 1339147, Note_on_c, 0, 54, 0
3, 1339147, Note_on_c, 0, 32, 0
3, 1339147, Note_on_c, 0, 60, 0
3, 1339147, Note_on_c, 0, 66, 0
3, 1339147, Note_on_c, 0, 63, 0
3, 1339200, Note_on_c, 0, 60, 79
3, 1339200, Note_on_c, 0, 62, 78
3, 1339200, Note_on_c, 0, 66, 78
3, 1339200, Note_on_c, 0, 72, 78
3, 1339200, Note_on_c, 0, 38, 99
3, 1339200, Note_on_c, 0, 45, 99
3, 1339200, Note_on_c, 0, 54, 98
3, 1339687, Note_on_c, 0, 54, 0
3, 1339687, Note_on_c, 0, 45, 0
3, 1339687, Note_on_c, 0, 72, 0
3, 1339687, Note_on_c, 0, 60, 0
3, 1339687, Note_on_c, 0, 62, 0
3, 1339687, Note_on_c, 0, 38, 0
3, 1339687, Note_on_c, 0, 66, 0
3, 1339740, Note_on_c, 0, 60, 67
3, 1339740, Note_on_c, 0, 62, 69
3, 1339740, Note_on_c, 0, 66, 70
3, 1339740, Note_on_c, 0, 72, 68
3, 1339740, Note_on_c, 0, 38, 82
3, 1339740, Note_on_c, 0, 45, 78
3, 1339740, Note_on_c, 0, 54, 79
3, 1339983, Note_on_c, 0, 54, 0
3, 1339983, Note_on_c, 0, 45, 0
3, 1339983, Note_on_c, 0, 72, 0
3, 1339983, Note_on_c, 0, 60, 0
3, 1339983, Note_on_c, 0, 62, 0
3, 1339983, Note_on_c, 0, 38, 0
3, 1339983, Note_on_c, 0, 66, 0
3, 1340010, Note_on_c, 0, 60, 66
3, 1340010, Note_on_c, 0, 62, 68
3, 1340010, Note_on_c, 0, 66, 67
3, 1340010, Note_on_c, 0, 72, 68
3, 1340010, Note_on_c, 0, 38, 79
3, 1340010, Note_on_c, 0, 45, 79
3, 1340010, Note_on_c, 0, 54, 77
3, 1340253, Note_on_c, 0, 54, 0
3, 1340253, Note_on_c, 0, 45, 0
3, 1340253, Note_on_c, 0, 72, 0
3, 1340253, Note_on_c, 0, 60, 0
3, 1340253, Note_on_c, 0, 62, 0
3, 1340253, Note_on_c, 0, 38, 0
3, 1340253, Note_on_c, 0, 66, 0
3, 1340280, Note_on_c, 0, 60, 54
3, 1340280, Note_on_c, 0, 62, 52
3, 1340280, Note_on_c, 0, 66, 55
3, 1340280, Note_on_c, 0, 72, 54
3, 1340280, Note_on_c, 0, 38, 79
3, 1340280, Note_on_c, 0, 45, 83
3, 1340280, Note_on_c, 0, 54, 82
3, 1340820, Note_on_c, 0, 86, 66
3, 1340983, Note_on_c, 0, 86, 0
3, 1341000, Note_on_c, 0, 81, 36
3, 1341163, Note_on_c, 0, 81, 0
3, 1341180, Note_on_c, 0, 74, 34
3, 1341290, Note_on_c, 0, 72, 0
3, 1341290, Note_on_c, 0, 60, 0
3, 1341290, Note_on_c, 0, 66, 0
3, 1341290, Note_on_c, 0, 62, 0
3, 1341343, Note_on_c, 0, 74, 0
3, 1341360, Note_on_c, 0, 81, 79
3, 1341523, Note_on_c, 0, 81, 0
3, 1341540, Note_on_c, 0, 76, 39
3, 1341703, Note_on_c, 0, 76, 0
3, 1341720, Note_on_c, 0, 69, 35
3, 1341847, Note_on_c, 0, 45, 0
3, 1341847, Note_on_c, 0, 54, 0
3, 1341847, Note_on_c, 0, 38, 0
3, 1341883, Note_on_c, 0, 69, 0
3, 1341900, Note_on_c, 0, 60, 47
3, 1341900, Note_on_c, 0, 62, 45
3, 1341900, Note_on_c, 0, 66, 46
3, 1341900, Note_on_c, 0, 72, 47
3, 1341900, Note_on_c, 0, 38, 54
3, 1341900, Note_on_c, 0, 45, 51
3, 1341900, Note_on_c, 0, 54, 54
3, 1342927, Note_on_c, 0, 54, 0
3, 1342927, Note_on_c, 0, 45, 0
3, 1342927, Note_on_c, 0, 72, 0
3, 1342927, Note_on_c, 0, 60, 0
3, 1342927, Note_on_c, 0, 62, 0
3, 1342927, Note_on_c, 0, 38, 0
3, 1342927, Note_on_c, 0, 66, 0
3, 1342980, Note_on_c, 0, 60, 42
3, 1342980, Note_on_c, 0, 62, 42
3, 1342980, Note_on_c, 0, 66, 44
3, 1342980, Note_on_c, 0, 72, 45
3, 1342980, Note_on_c, 0, 38, 78
3, 1342980, Note_on_c, 0, 45, 76
3, 1342980, Note_on_c, 0, 54, 80
3, 1343467, Note_on_c, 0, 54, 0
3, 1343467, Note_on_c, 0, 45, 0
3, 1343467, Note_on_c, 0, 72, 0
3, 1343467, Note_on_c, 0, 60, 0
3, 1343467, Note_on_c, 0, 62, 0
3, 1343467, Note_on_c, 0, 38, 0
3, 1343467, Note_on_c, 0, 66, 0
3, 1343520, Note_on_c, 0, 31, 0
3, 1343520, Note_on_c, 0, 43, 0
3, 1343520, Note_on_c, 0, 55, 61
3, 1343520, Note_on_c, 0, 60, 58
3, 1343520, Note_on_c, 0, 64, 59
3, 1343520, Note_on_c, 0, 67, 57
3, 1343520, Note_on_c, 0, 31, 42
3, 1343520, Note_on_c, 0, 43, 38
3, 1343520, Note_on_c, 0, 52, 95
3, 1344060, Note_on_c, 0, 67, 40
3, 1344060, Note_on_c, 0, 79, 42
3, 1344060, Note_on_c, 0, 55, 50
3, 1344223, Note_on_c, 0, 79, 0
3, 1344223, Note_on_c, 0, 67, 0
3, 1344223, Note_on_c, 0, 55, 0
3, 1344240, Note_on_c, 0, 67, 44
3, 1344240, Note_on_c, 0, 79, 41
3, 1344240, Note_on_c, 0, 55, 52
3, 1344403, Note_on_c, 0, 79, 0
3, 1344403, Note_on_c, 0, 67, 0
3, 1344403, Note_on_c, 0, 55, 0
3, 1344420, Note_on_c, 0, 67, 44
3, 1344420, Note_on_c, 0, 79, 44
3, 1344420, Note_on_c, 0, 55, 54
3, 1344530, Note_on_c, 0, 64, 0
3, 1344530, Note_on_c, 0, 52, 0
3, 1344530, Note_on_c, 0, 67, 0
3, 1344530, Note_on_c, 0, 55, 0
3, 1344530, Note_on_c, 0, 60, 0
3, 1344583, Note_on_c, 0, 67, 0
3, 1344583, Note_on_c, 0, 55, 0
3, 1344583, Note_on_c, 0, 79, 0
3, 1344600, Note_on_c, 0, 67, 45
3, 1344600, Note_on_c, 0, 79, 45
3, 1344600, Note_on_c, 0, 55, 56
3, 1345610, Note_on_c, 0, 55, 0
3, 1345610, Note_on_c, 0, 67, 0
3, 1345610, Note_on_c, 0, 79, 0
3, 1345680, Note_on_c, 0, 31, 0
3, 1345680, Note_on_c, 0, 43, 0
3, 1345680, Note_on_c, 0, 55, 71
3, 1345680, Note_on_c, 0, 60, 71
3, 1345680, Note_on_c, 0, 63, 67
3, 1345680, Note_on_c, 0, 66, 69
3, 1345680, Note_on_c, 0, 67, 70
3, 1345680, Note_on_c, 0, 31, 38
3, 1345680, Note_on_c, 0, 43, 40
3, 1345680, Note_on_c, 0, 51, 79
3, 1346220, Note_on_c, 0, 67, 43
3, 1346220, Note_on_c, 0, 55, 52
3, 1346383, Note_on_c, 0, 67, 0
3, 1346383, Note_on_c, 0, 55, 0
3, 1346400, Note_on_c, 0, 67, 41
3, 1346400, Note_on_c, 0, 55, 50
3, 1346563, Note_on_c, 0, 55, 0
3, 1346563, Note_on_c, 0, 67, 0
3, 1346580, Note_on_c, 0, 67, 45
3, 1346580, Note_on_c, 0, 55, 54
3, 1346690, Note_on_c, 0, 63, 0
3, 1346690, Note_on_c, 0, 67, 0
3, 1346690, Note_on_c, 0, 66, 0
3, 1346690, Note_on_c, 0, 55, 0
3, 1346690, Note_on_c, 0, 51, 0
3, 1346690, Note_on_c, 0, 60, 0
3, 1346743, Note_on_c, 0, 55, 0
3, 1346743, Note_on_c, 0, 67, 0
3, 1346760, Note_on_c, 0, 67, 47
3, 1346760, Note_on_c, 0, 55, 54
3, 1347770, Note_on_c, 0, 55, 0
3, 1347770, Note_on_c, 0, 67, 0
3, 1347840, Note_on_c, 0, 43, 0
3, 1347840, Note_on_c, 0, 31, 0
3, 1347840, Note_on_c, 0, 55, 69
3, 1347840, Note_on_c, 0, 60, 72
3, 1347840, Note_on_c, 0, 62, 69
3, 1347840, Note_on_c, 0, 65, 73
3, 1347840, Note_on_c, 0, 67, 69
3, 1347840, Note_on_c, 0, 31, 40
3, 1347840, Note_on_c, 0, 43, 37
3, 1347840, Note_on_c, 0, 50, 87
3, 1347840, Note_on_c, 0, 53, 85
3, 1348380, Note_on_c, 0, 55, 44
3, 1348380, Note_on_c, 0, 43, 52
3, 1348543, Note_on_c, 0, 43, 0
3, 1348543, Note_on_c, 0, 55, 0
3, 1348560, Note_on_c, 0, 55, 42
3, 1348560, Note_on_c, 0, 43, 51
3, 1348723, Note_on_c, 0, 55, 0
3, 1348723, Note_on_c, 0, 43, 0
3, 1348740, Note_on_c, 0, 55, 41
3, 1348740, Note_on_c, 0, 43, 55
3, 1348850, Note_on_c, 0, 60, 0
3, 1348850, Note_on_c, 0, 55, 0
3, 1348850, Note_on_c, 0, 50, 0
3, 1348850, Note_on_c, 0, 62, 0
3, 1348850, Note_on_c, 0, 65, 0
3, 1348850, Note_on_c, 0, 53, 0
3, 1348850, Note_on_c, 0, 67, 0
3, 1348903, Note_on_c, 0, 55, 0
3, 1348903, Note_on_c, 0, 43, 0
3, 1348920, Note_on_c, 0, 55, 46
3, 1348920, Note_on_c, 0, 43, 54
3, 1349407, Note_on_c, 0, 55, 0
3, 1349460, Note_on_c, 0, 55, 86
3, 1349460, Note_on_c, 0, 67, 85
3, 1349930, Note_on_c, 0, 43, 0
3, 1349947, Note_on_c, 0, 55, 0
3, 1349947, Note_on_c, 0, 67, 0
3, 1350000, Note_on_c, 0, 31, 0
3, 1350000, Note_on_c, 0, 43, 0
3, 1350000, Note_on_c, 0, 55, 70
3, 1350000, Note_on_c, 0, 59, 69
3, 1350000, Note_on_c, 0, 62, 71
3, 1350000, Note_on_c, 0, 65, 73
3, 1350000, Note_on_c, 0, 67, 71
3, 1350000, Note_on_c, 0, 31, 53
3, 1350000, Note_on_c, 0, 43, 52
3, 1350000, Note_on_c, 0, 50, 80
3, 1350000, Note_on_c, 0, 53, 83
3, 1350540, Note_on_c, 0, 43, 41
3, 1350540, Note_on_c, 0, 31, 53
3, 1350703, Note_on_c, 0, 43, 0
3, 1350703, Note_on_c, 0, 31, 0
3, 1350720, Note_on_c, 0, 43, 42
3, 1350720, Note_on_c, 0, 31, 53
3, 1350883, Note_on_c, 0, 43, 0
3, 1350883, Note_on_c, 0, 31, 0
3, 1350900, Note_on_c, 0, 43, 42
3, 1350900, Note_on_c, 0, 31, 53
3, 1351010, Note_on_c, 0, 53, 0
3, 1351010, Note_on_c, 0, 50, 0
3, 1351010, Note_on_c, 0, 62, 0
3, 1351010, Note_on_c, 0, 55, 0
3, 1351010, Note_on_c, 0, 59, 0
3, 1351010, Note_on_c, 0, 67, 0
3, 1351010, Note_on_c, 0, 65, 0
3, 1351063, Note_on_c, 0, 43, 0
3, 1351063, Note_on_c, 0, 31, 0
3, 1351080, Note_on_c, 0, 43, 47
3, 1351080, Note_on_c, 0, 31, 55
3, 1352090, Note_on_c, 0, 31, 0
3, 1352090, Note_on_c, 0, 43, 0
3, 1352160, Note_on_c, 0, 63, 87
3, 1352160, Note_on_c, 0, 67, 87
3, 1352160, Note_on_c, 0, 72, 86
3, 1352160, Note_on_c, 0, 75, 88
3, 1352160, Note_on_c, 0, 48, 100
3, 1352160, Note_on_c, 0, 51, 101
3, 1352160, Note_on_c, 0, 55, 99
3, 1352160, Note_on_c, 0, 60, 102
3, 1353170, Note_on_c, 0, 60, 0
3, 1353170, Note_on_c, 0, 48, 0
3, 1353170, Note_on_c, 0, 55, 0
3, 1353170, Note_on_c, 0, 75, 0
3, 1353170, Note_on_c, 0, 63, 0
3, 1353170, Note_on_c, 0, 67, 0
3, 1353170, Note_on_c, 0, 51, 0
3, 1353170, Note_on_c, 0, 72, 0
3, 1353240, Note_on_c, 0, 62, 70
3, 1353240, Note_on_c, 0, 67, 71
3, 1353240, Note_on_c, 0, 70, 72
3, 1353240, Note_on_c, 0, 74, 70
3, 1353240, Note_on_c, 0, 43, 80
3, 1353240, Note_on_c, 0, 50, 79
3, 1353240, Note_on_c, 0, 58, 80
3, 1354250, Note_on_c, 0, 58, 0
3, 1354250, Note_on_c, 0, 43, 0
3, 1354250, Note_on_c, 0, 50, 0
3, 1354250, Note_on_c, 0, 62, 0
3, 1354250, Note_on_c, 0, 67, 0
3, 1354250, Note_on_c, 0, 74, 0
3, 1354250, Note_on_c, 0, 70, 0
3, 1354320, Note_on_c, 0, 61, 68
3, 1354320, Note_on_c, 0, 65, 67
3, 1354320, Note_on_c, 0, 70, 69
3, 1354320, Note_on_c, 0, 73, 69
3, 1354320, Note_on_c, 0, 46, 79
3, 1354320, Note_on_c, 0, 49, 83
3, 1354320, Note_on_c, 0, 53, 81
3, 1354320, Note_on_c, 0, 58, 80
3, 1355330, Note_on_c, 0, 58, 0
3, 1355330, Note_on_c, 0, 46, 0
3, 1355330, Note_on_c, 0, 53, 0
3, 1355330, Note_on_c, 0, 73, 0
3, 1355330, Note_on_c, 0, 61, 0
3, 1355330, Note_on_c, 0, 65, 0
3, 1355330, Note_on_c, 0, 49, 0
3, 1355330, Note_on_c, 0, 70, 0
3, 1355400, Note_on_c, 0, 60, 65
3, 1355400, Note_on_c, 0, 65, 66
3, 1355400, Note_on_c, 0, 72, 67
3, 1355400, Note_on_c, 0, 41, 77
3, 1355400, Note_on_c, 0, 48, 77
3, 1355400, Note_on_c, 0, 56, 75
3, 1356967, Note_on_c, 0, 56, 0
3, 1356967, Note_on_c, 0, 60, 0
3, 1356967, Note_on_c, 0, 48, 0
3, 1356967, Note_on_c, 0, 65, 0
3, 1356967, Note_on_c, 0, 41, 0
3, 1356967, Note_on_c, 0, 72, 0
3, 1357020, Note_on_c, 0, 59, 67
3, 1357020, Note_on_c, 0, 63, 65
3, 1357020, Note_on_c, 0, 68, 66
3, 1357020, Note_on_c, 0, 71, 66
3, 1357020, Note_on_c, 0, 44, 79
3, 1357020, Note_on_c, 0, 47, 78
3, 1357020, Note_on_c, 0, 51, 77
3, 1357020, Note_on_c, 0, 56, 77
3, 1358047, Note_on_c, 0, 56, 0
3, 1358047, Note_on_c, 0, 71, 0
3, 1358047, Note_on_c, 0, 47, 0
3, 1358047, Note_on_c, 0, 51, 0
3, 1358047, Note_on_c, 0, 59, 0
3, 1358047, Note_on_c, 0, 63, 0
3, 1358047, Note_on_c, 0, 44, 0
3, 1358047, Note_on_c, 0, 68, 0
3, 1358100, Note_on_c, 0, 58, 66
3, 1358100, Note_on_c, 0, 63, 63
3, 1358100, Note_on_c, 0, 67, 67
3, 1358100, Note_on_c, 0, 70, 64
3, 1358100, Note_on_c, 0, 39, 76
3, 1358100, Note_on_c, 0, 46, 75
3, 1358100, Note_on_c, 0, 55, 74
3, 1358277, Note_on_c, 0, 55, 0
3, 1358277, Note_on_c, 0, 46, 0
3, 1358277, Note_on_c, 0, 70, 0
3, 1358277, Note_on_c, 0, 58, 0
3, 1358277, Note_on_c, 0, 63, 0
3, 1358277, Note_on_c, 0, 39, 0
3, 1358277, Note_on_c, 0, 67, 0
3, 1358640, Note_on_c, 0, 57, 70
3, 1358640, Note_on_c, 0, 63, 70
3, 1358640, Note_on_c, 0, 67, 67
3, 1358640, Note_on_c, 0, 69, 69
3, 1358640, Note_on_c, 0, 36, 78
3, 1358640, Note_on_c, 0, 45, 79
3, 1358640, Note_on_c, 0, 51, 78
3, 1360207, Note_on_c, 0, 51, 0
3, 1360207, Note_on_c, 0, 45, 0
3, 1360207, Note_on_c, 0, 69, 0
3, 1360207, Note_on_c, 0, 57, 0
3, 1360207, Note_on_c, 0, 63, 0
3, 1360207, Note_on_c, 0, 36, 0
3, 1360207, Note_on_c, 0, 67, 0
3, 1360260, Note_on_c, 0, 58, 70
3, 1360260, Note_on_c, 0, 63, 71
3, 1360260, Note_on_c, 0, 67, 70
3, 1360260, Note_on_c, 0, 70, 69
3, 1360260, Note_on_c, 0, 39, 86
3, 1360260, Note_on_c, 0, 46, 85
3, 1360260, Note_on_c, 0, 55, 85
3, 1360437, Note_on_c, 0, 55, 0
3, 1360437, Note_on_c, 0, 46, 0
3, 1360437, Note_on_c, 0, 70, 0
3, 1360437, Note_on_c, 0, 58, 0
3, 1360437, Note_on_c, 0, 63, 0
3, 1360437, Note_on_c, 0, 39, 0
3, 1360437, Note_on_c, 0, 67, 0
3, 1360800, Note_on_c, 0, 57, 68
3, 1360800, Note_on_c, 0, 63, 70
3, 1360800, Note_on_c, 0, 67, 68
3, 1360800, Note_on_c, 0, 69, 69
3, 1360800, Note_on_c, 0, 36, 80
3, 1360800, Note_on_c, 0, 45, 79
3, 1360800, Note_on_c, 0, 51, 79
3, 1361880, Note_on_c, 0, 51, 0
3, 1361880, Note_on_c, 0, 45, 0
3, 1361880, Note_on_c, 0, 69, 0
3, 1361880, Note_on_c, 0, 57, 0
3, 1361880, Note_on_c, 0, 63, 0
3, 1361880, Note_on_c, 0, 36, 0
3, 1361880, Note_on_c, 0, 67, 0
3, 1361880, Note_on_c, 0, 56, 47
3, 1361880, Note_on_c, 0, 59, 47
3, 1361880, Note_on_c, 0, 63, 49
3, 1361880, Note_on_c, 0, 68, 50
3, 1361880, Note_on_c, 0, 35, 62
3, 1361880, Note_on_c, 0, 44, 60
3, 1361880, Note_on_c, 0, 51, 61
3, 1362960, Note_on_c, 0, 51, 0
3, 1362960, Note_on_c, 0, 44, 0
3, 1362960, Note_on_c, 0, 68, 0
3, 1362960, Note_on_c, 0, 56, 0
3, 1362960, Note_on_c, 0, 59, 0
3, 1362960, Note_on_c, 0, 35, 0
3, 1362960, Note_on_c, 0, 63, 0
3, 1362960, Note_on_c, 0, 55, 51
3, 1362960, Note_on_c, 0, 60, 50
3, 1362960, Note_on_c, 0, 63, 51
3, 1362960, Note_on_c, 0, 67, 49
3, 1362960, Note_on_c, 0, 36, 61
3, 1362960, Note_on_c, 0, 43, 63
3, 1362960, Note_on_c, 0, 51, 61
3, 1364527, Note_on_c, 0, 51, 0
3, 1364527, Note_on_c, 0, 43, 0
3, 1364527, Note_on_c, 0, 36, 0
3, 1364527, Note_on_c, 0, 55, 0
3, 1364527, Note_on_c, 0, 60, 0
3, 1364527, Note_on_c, 0, 67, 0
3, 1364527, Note_on_c, 0, 63, 0
3, 1364580, Note_on_c, 0, 62, 39
3, 1364743, Note_on_c, 0, 62, 0
3, 1364760, Note_on_c, 0, 67, 45
3, 1364923, Note_on_c, 0, 67, 0
3, 1364940, Note_on_c, 0, 62, 39
3, 1365103, Note_on_c, 0, 62, 0
3, 1365120, Note_on_c, 0, 60, 44
3, 1365283, Note_on_c, 0, 60, 0
3, 1365480, Note_on_c, 0, 60, 40
3, 1365643, Note_on_c, 0, 60, 0
3, 1365660, Note_on_c, 0, 62, 46
3, 1365823, Note_on_c, 0, 62, 0
3, 1365840, Note_on_c, 0, 67, 46
3, 1366003, Note_on_c, 0, 67, 0
3, 1366020, Note_on_c, 0, 62, 36
3, 1366183, Note_on_c, 0, 62, 0
3, 1366200, Note_on_c, 0, 60, 42
3, 1366363, Note_on_c, 0, 60, 0
3, 1366560, Note_on_c, 0, 60, 41
3, 1366723, Note_on_c, 0, 60, 0
3, 1366740, Note_on_c, 0, 61, 46
3, 1366903, Note_on_c, 0, 61, 0
3, 1366920, Note_on_c, 0, 67, 47
3, 1367083, Note_on_c, 0, 67, 0
3, 1367100, Note_on_c, 0, 61, 38
3, 1367263, Note_on_c, 0, 61, 0
3, 1367280, Note_on_c, 0, 56, 78
3, 1367280, Note_on_c, 0, 60, 81
3, 1367280, Note_on_c, 0, 65, 79
3, 1367280, Note_on_c, 0, 68, 80
3, 1367280, Note_on_c, 0, 41, 74
3, 1367280, Note_on_c, 0, 48, 73
3, 1367280, Note_on_c, 0, 53, 72
3, 1368290, Note_on_c, 0, 53, 0
3, 1368290, Note_on_c, 0, 48, 0
3, 1368290, Note_on_c, 0, 68, 0
3, 1368290, Note_on_c, 0, 56, 0
3, 1368290, Note_on_c, 0, 60, 0
3, 1368290, Note_on_c, 0, 41, 0
3, 1368290, Note_on_c, 0, 65, 0
3, 1368360, Note_on_c, 0, 55, 67
3, 1368360, Note_on_c, 0, 60, 68
3, 1368360, Note_on_c, 0, 63, 67
3, 1368360, Note_on_c, 0, 67, 67
3, 1368360, Note_on_c, 0, 36, 74
3, 1368360, Note_on_c, 0, 43, 74
3, 1368360, Note_on_c, 0, 51, 77
3, 1369370, Note_on_c, 0, 51, 0
3, 1369370, Note_on_c, 0, 43, 0
3, 1369370, Note_on_c, 0, 36, 0
3, 1369370, Note_on_c, 0, 55, 0
3, 1369370, Note_on_c, 0, 60, 0
3, 1369370, Note_on_c, 0, 67, 0
3, 1369370, Note_on_c, 0, 63, 0
3, 1369440, Note_on_c, 0, 54, 67
3, 1369440, Note_on_c, 0, 58, 70
3, 1369440, Note_on_c, 0, 63, 69
3, 1369440, Note_on_c, 0, 66, 69
3, 1369440, Note_on_c, 0, 39, 79
3, 1369440, Note_on_c, 0, 46, 81
3, 1369440, Note_on_c, 0, 51, 81
3, 1370450, Note_on_c, 0, 51, 0
3, 1370450, Note_on_c, 0, 46, 0
3, 1370450, Note_on_c, 0, 66, 0
3, 1370450, Note_on_c, 0, 54, 0
3, 1370450, Note_on_c, 0, 58, 0
3, 1370450, Note_on_c, 0, 39, 0
3, 1370450, Note_on_c, 0, 63, 0
3, 1370520, Note_on_c, 0, 53, 67
3, 1370520, Note_on_c, 0, 58, 69
3, 1370520, Note_on_c, 0, 65, 68
3, 1370520, Note_on_c, 0, 34, 75
3, 1370520, Note_on_c, 0, 41, 75
3, 1370520, Note_on_c, 0, 49, 78
3, 1372087, Note_on_c, 0, 49, 0
3, 1372087, Note_on_c, 0, 53, 0
3, 1372087, Note_on_c, 0, 41, 0
3, 1372087, Note_on_c, 0, 58, 0
3, 1372087, Note_on_c, 0, 34, 0
3, 1372087, Note_on_c, 0, 65, 0
3, 1372140, Note_on_c, 0, 52, 66
3, 1372140, Note_on_c, 0, 56, 64
3, 1372140, Note_on_c, 0, 61, 66
3, 1372140, Note_on_c, 0, 64, 63
3, 1372140, Note_on_c, 0, 37, 76
3, 1372140, Note_on_c, 0, 44, 79
3, 1372140, Note_on_c, 0, 49, 76
3, 1373167, Note_on_c, 0, 49, 0
3, 1373167, Note_on_c, 0, 44, 0
3, 1373167, Note_on_c, 0, 64, 0
3, 1373167, Note_on_c, 0, 52, 0
3, 1373167, Note_on_c, 0, 56, 0
3, 1373167, Note_on_c, 0, 37, 0
3, 1373167, Note_on_c, 0, 61, 0
3, 1373220, Note_on_c, 0, 51, 67
3, 1373220, Note_on_c, 0, 56, 66
3, 1373220, Note_on_c, 0, 60, 63
3, 1373220, Note_on_c, 0, 63, 67
3, 1373220, Note_on_c, 0, 32, 68
3, 1373220, Note_on_c, 0, 44, 70
3, 1373397, Note_on_c, 0, 44, 0
3, 1373397, Note_on_c, 0, 51, 0
3, 1373397, Note_on_c, 0, 32, 0
3, 1373397, Note_on_c, 0, 56, 0
3, 1373397, Note_on_c, 0, 63, 0
3, 1373397, Note_on_c, 0, 60, 0
3, 1373760, Note_on_c, 0, 50, 70
3, 1373760, Note_on_c, 0, 56, 69
3, 1373760, Note_on_c, 0, 60, 69
3, 1373760, Note_on_c, 0, 62, 70
3, 1373760, Note_on_c, 0, 29, 81
3, 1373760, Note_on_c, 0, 41, 78
3, 1375327, Note_on_c, 0, 41, 0
3, 1375327, Note_on_c, 0, 50, 0
3, 1375327, Note_on_c, 0, 29, 0
3, 1375327, Note_on_c, 0, 56, 0
3, 1375327, Note_on_c, 0, 62, 0
3, 1375327, Note_on_c, 0, 60, 0
3, 1375380, Note_on_c, 0, 51, 70
3, 1375380, Note_on_c, 0, 56, 68
3, 1375380, Note_on_c, 0, 60, 70
3, 1375380, Note_on_c, 0, 63, 70
3, 1375380, Note_on_c, 0, 32, 86
3, 1375380, Note_on_c, 0, 44, 85
3, 1375557, Note_on_c, 0, 44, 0
3, 1375557, Note_on_c, 0, 51, 0
3, 1375557, Note_on_c, 0, 32, 0
3, 1375557, Note_on_c, 0, 56, 0
3, 1375557, Note_on_c, 0, 63, 0
3, 1375557, Note_on_c, 0, 60, 0
3, 1375920, Note_on_c, 0, 50, 68
3, 1375920, Note_on_c, 0, 56, 71
3, 1375920, Note_on_c, 0, 60, 69
3, 1375920, Note_on_c, 0, 62, 70
3, 1375920, Note_on_c, 0, 29, 79
3, 1375920, Note_on_c, 0, 41, 78
3, 1377000, Note_on_c, 0, 41, 0
3, 1377000, Note_on_c, 0, 50, 0
3, 1377000, Note_on_c, 0, 29, 0
3, 1377000, Note_on_c, 0, 56, 0
3, 1377000, Note_on_c, 0, 62, 0
3, 1377000, Note_on_c, 0, 60, 0
3, 1377000, Note_on_c, 0, 49, 51
3, 1377000, Note_on_c, 0, 56, 48
3, 1377000, Note_on_c, 0, 61, 50
3, 1377000, Note_on_c, 0, 28, 57
3, 1377000, Note_on_c, 0, 40, 57
3, 1378080, Note_on_c, 0, 40, 0
3, 1378080, Note_on_c, 0, 28, 0
3, 1378080, Note_on_c, 0, 56, 0
3, 1378080, Note_on_c, 0, 49, 0
3, 1378080, Note_on_c, 0, 61, 0
3, 1378080, Note_on_c, 0, 48, 48
3, 1378080, Note_on_c, 0, 53, 50
3, 1378080, Note_on_c, 0, 56, 48
3, 1378080, Note_on_c, 0, 60, 51
3, 1378080, Note_on_c, 0, 29, 56
3, 1378080, Note_on_c, 0, 41, 58
3, 1379647, Note_on_c, 0, 41, 0
3, 1379647, Note_on_c, 0, 48, 0
3, 1379647, Note_on_c, 0, 29, 0
3, 1379647, Note_on_c, 0, 53, 0
3, 1379647, Note_on_c, 0, 60, 0
3, 1379647, Note_on_c, 0, 56, 0
3, 1379700, Note_on_c, 0, 55, 40
3, 1379863, Note_on_c, 0, 55, 0
3, 1379880, Note_on_c, 0, 60, 47
3, 1380043, Note_on_c, 0, 60, 0
3, 1380060, Note_on_c, 0, 55, 37
3, 1380223, Note_on_c, 0, 55, 0
3, 1380240, Note_on_c, 0, 53, 41
3, 1380403, Note_on_c, 0, 53, 0
3, 1380600, Note_on_c, 0, 53, 38
3, 1380763, Note_on_c, 0, 53, 0
3, 1380780, Note_on_c, 0, 55, 46
3, 1380943, Note_on_c, 0, 55, 0
3, 1380960, Note_on_c, 0, 60, 49
3, 1381123, Note_on_c, 0, 60, 0
3, 1381140, Note_on_c, 0, 55, 37
3, 1381303, Note_on_c, 0, 55, 0
3, 1381320, Note_on_c, 0, 53, 45
3, 1381483, Note_on_c, 0, 53, 0
3, 1381680, Note_on_c, 0, 65, 37
3, 1381843, Note_on_c, 0, 65, 0
3, 1381860, Note_on_c, 0, 67, 48
3, 1382023, Note_on_c, 0, 67, 0
3, 1382040, Note_on_c, 0, 68, 45
3, 1382203, Note_on_c, 0, 68, 0
3, 1382220, Note_on_c, 0, 65, 40
3, 1382383, Note_on_c, 0, 65, 0
3, 1382400, Note_on_c, 0, 67, 48
3, 1382400, Note_on_c, 0, 55, 55
3, 1382563, Note_on_c, 0, 67, 0
3, 1382580, Note_on_c, 0, 68, 46
3, 1382743, Note_on_c, 0, 68, 0
3, 1382760, Note_on_c, 0, 67, 41
3, 1382923, Note_on_c, 0, 67, 0
3, 1382940, Note_on_c, 0, 68, 48
3, 1383103, Note_on_c, 0, 68, 0
3, 1383120, Note_on_c, 0, 67, 40
3, 1383283, Note_on_c, 0, 67, 0
3, 1383300, Note_on_c, 0, 68, 44
3, 1383463, Note_on_c, 0, 68, 0
3, 1383480, Note_on_c, 0, 67, 45
3, 1383643, Note_on_c, 0, 67, 0
3, 1383660, Note_on_c, 0, 68, 45
3, 1383823, Note_on_c, 0, 68, 0
3, 1383840, Note_on_c, 0, 65, 41
3, 1383967, Note_on_c, 0, 55, 0
3, 1384003, Note_on_c, 0, 65, 0
3, 1384020, Note_on_c, 0, 67, 47
3, 1384020, Note_on_c, 0, 53, 51
3, 1384183, Note_on_c, 0, 67, 0
3, 1384200, Note_on_c, 0, 68, 45
3, 1384363, Note_on_c, 0, 68, 0
3, 1384380, Note_on_c, 0, 71, 45
3, 1384507, Note_on_c, 0, 53, 0
3, 1384543, Note_on_c, 0, 71, 0
3, 1384560, Note_on_c, 0, 67, 48
3, 1384560, Note_on_c, 0, 55, 63
3, 1384740, Note_on_c, 0, 67, 0
3, 1384740, Note_on_c, 0, 68, 43
3, 1384903, Note_on_c, 0, 68, 0
3, 1384920, Note_on_c, 0, 67, 40
3, 1385083, Note_on_c, 0, 67, 0
3, 1385100, Note_on_c, 0, 68, 48
3, 1385263, Note_on_c, 0, 68, 0
3, 1385280, Note_on_c, 0, 67, 43
3, 1385443, Note_on_c, 0, 67, 0
3, 1385460, Note_on_c, 0, 68, 42
3, 1385623, Note_on_c, 0, 68, 0
3, 1385640, Note_on_c, 0, 67, 45
3, 1385803, Note_on_c, 0, 67, 0
3, 1385820, Note_on_c, 0, 68, 44
3, 1385983, Note_on_c, 0, 68, 0
3, 1386000, Note_on_c, 0, 65, 41
3, 1386127, Note_on_c, 0, 55, 0
3, 1386163, Note_on_c, 0, 65, 0
3, 1386180, Note_on_c, 0, 67, 47
3, 1386180, Note_on_c, 0, 53, 52
3, 1386343, Note_on_c, 0, 67, 0
3, 1386360, Note_on_c, 0, 68, 43
3, 1386523, Note_on_c, 0, 68, 0
3, 1386540, Note_on_c, 0, 72, 46
3, 1386667, Note_on_c, 0, 53, 0
3, 1386703, Note_on_c, 0, 72, 0
3, 1386720, Note_on_c, 0, 67, 47
3, 1386720, Note_on_c, 0, 55, 65
3, 1386900, Note_on_c, 0, 67, 0
3, 1386900, Note_on_c, 0, 68, 42
3, 1387063, Note_on_c, 0, 68, 0
3, 1387080, Note_on_c, 0, 67, 41
3, 1387243, Note_on_c, 0, 67, 0
3, 1387260, Note_on_c, 0, 68, 49
3, 1387423, Note_on_c, 0, 68, 0
3, 1387440, Note_on_c, 0, 67, 42
3, 1387603, Note_on_c, 0, 67, 0
3, 1387620, Note_on_c, 0, 68, 44
3, 1387783, Note_on_c, 0, 68, 0
3, 1387800, Note_on_c, 0, 67, 43
3, 1387963, Note_on_c, 0, 67, 0
3, 1387980, Note_on_c, 0, 68, 44
3, 1388143, Note_on_c, 0, 68, 0
3, 1388160, Note_on_c, 0, 65, 37
3, 1388287, Note_on_c, 0, 55, 0
3, 1388323, Note_on_c, 0, 65, 0
3, 1388340, Note_on_c, 0, 67, 47
3, 1388340, Note_on_c, 0, 53, 49
3, 1388503, Note_on_c, 0, 67, 0
3, 1388520, Note_on_c, 0, 68, 47
3, 1388683, Note_on_c, 0, 68, 0
3, 1388700, Note_on_c, 0, 71, 47
3, 1388827, Note_on_c, 0, 53, 0
3, 1388863, Note_on_c, 0, 71, 0
3, 1388880, Note_on_c, 0, 67, 49
3, 1388880, Note_on_c, 0, 55, 64
3, 1389060, Note_on_c, 0, 67, 0
3, 1389060, Note_on_c, 0, 68, 44
3, 1389223, Note_on_c, 0, 68, 0
3, 1389240, Note_on_c, 0, 67, 43
3, 1389403, Note_on_c, 0, 67, 0
3, 1389420, Note_on_c, 0, 68, 46
3, 1389583, Note_on_c, 0, 68, 0
3, 1389600, Note_on_c, 0, 67, 40
3, 1389763, Note_on_c, 0, 67, 0
3, 1389780, Note_on_c, 0, 68, 44
3, 1389943, Note_on_c, 0, 68, 0
3, 1389960, Note_on_c, 0, 67, 45
3, 1390123, Note_on_c, 0, 67, 0
3, 1390140, Note_on_c, 0, 68, 43
3, 1390303, Note_on_c, 0, 68, 0
3, 1390320, Note_on_c, 0, 65, 39
3, 1390447, Note_on_c, 0, 55, 0
3, 1390483, Note_on_c, 0, 65, 0
3, 1390500, Note_on_c, 0, 67, 46
3, 1390500, Note_on_c, 0, 53, 51
3, 1390663, Note_on_c, 0, 67, 0
3, 1390680, Note_on_c, 0, 68, 45
3, 1390843, Note_on_c, 0, 68, 0
3, 1390860, Note_on_c, 0, 72, 48
3, 1390987, Note_on_c, 0, 53, 0
3, 1391023, Note_on_c, 0, 72, 0
3, 1391040, Note_on_c, 0, 67, 40
3, 1391040, Note_on_c, 0, 55, 59
3, 1391203, Note_on_c, 0, 67, 0
3, 1391220, Note_on_c, 0, 68, 45
3, 1391383, Note_on_c, 0, 68, 0
3, 1391400, Note_on_c, 0, 67, 42
3, 1391563, Note_on_c, 0, 67, 0
3, 1391580, Note_on_c, 0, 68, 46
3, 1391743, Note_on_c, 0, 68, 0
3, 1391760, Note_on_c, 0, 67, 41
3, 1391923, Note_on_c, 0, 67, 0
3, 1391940, Note_on_c, 0, 68, 42
3, 1392103, Note_on_c, 0, 68, 0
3, 1392120, Note_on_c, 0, 67, 45
3, 1392283, Note_on_c, 0, 67, 0
3, 1392300, Note_on_c, 0, 68, 45
3, 1392463, Note_on_c, 0, 68, 0
3, 1392480, Note_on_c, 0, 67, 42
3, 1392643, Note_on_c, 0, 67, 0
3, 1392660, Note_on_c, 0, 68, 47
3, 1392823, Note_on_c, 0, 68, 0
3, 1392840, Note_on_c, 0, 67, 40
3, 1393003, Note_on_c, 0, 67, 0
3, 1393020, Note_on_c, 0, 68, 42
3, 1393183, Note_on_c, 0, 68, 0
3, 1393200, Note_on_c, 0, 67, 44
3, 1393363, Note_on_c, 0, 67, 0
3, 1393380, Note_on_c, 0, 68, 42
3, 1393543, Note_on_c, 0, 68, 0
3, 1393560, Note_on_c, 0, 67, 42
3, 1393723, Note_on_c, 0, 67, 0
3, 1393740, Note_on_c, 0, 68, 48
3, 1393903, Note_on_c, 0, 68, 0
3, 1393920, Note_on_c, 0, 67, 42
3, 1394083, Note_on_c, 0, 67, 0
3, 1394100, Note_on_c, 0, 68, 44
3, 1394263, Note_on_c, 0, 68, 0
3, 1394280, Note_on_c, 0, 67, 43
3, 1394443, Note_on_c, 0, 67, 0
3, 1394460, Note_on_c, 0, 68, 43
3, 1394623, Note_on_c, 0, 68, 0
3, 1394640, Note_on_c, 0, 67, 42
3, 1394803, Note_on_c, 0, 67, 0
3, 1394820, Note_on_c, 0, 68, 47
3, 1394983, Note_on_c, 0, 68, 0
3, 1395000, Note_on_c, 0, 67, 40
3, 1395163, Note_on_c, 0, 67, 0
3, 1395180, Note_on_c, 0, 68, 43
3, 1395290, Note_on_c, 0, 55, 0
3, 1395343, Note_on_c, 0, 68, 0
3, 1395360, Note_on_c, 0, 67, 45
3, 1395523, Note_on_c, 0, 67, 0
3, 1395540, Note_on_c, 0, 68, 42
3, 1395703, Note_on_c, 0, 68, 0
3, 1395720, Note_on_c, 0, 67, 40
3, 1395883, Note_on_c, 0, 67, 0
3, 1395900, Note_on_c, 0, 70, 49
3, 1396063, Note_on_c, 0, 70, 0
3, 1396080, Note_on_c, 0, 68, 42
3, 1396243, Note_on_c, 0, 68, 0
3, 1396260, Note_on_c, 0, 67, 38
3, 1396423, Note_on_c, 0, 67, 0
3, 1396440, Note_on_c, 0, 67, 46
3, 1396603, Note_on_c, 0, 67, 0
3, 1396620, Note_on_c, 0, 67, 44
3, 1396783, Note_on_c, 0, 67, 0
3, 1396800, Note_on_c, 0, 67, 42
3, 1396963, Note_on_c, 0, 67, 0
3, 1396980, Note_on_c, 0, 67, 48
3, 1397143, Note_on_c, 0, 67, 0
3, 1397160, Note_on_c, 0, 67, 44
3, 1397323, Note_on_c, 0, 67, 0
3, 1397340, Note_on_c, 0, 67, 43
3, 1397503, Note_on_c, 0, 67, 0
3, 1397520, Note_on_c, 0, 67, 46
3, 1397683, Note_on_c, 0, 67, 0
3, 1397700, Note_on_c, 0, 68, 43
3, 1397863, Note_on_c, 0, 68, 0
3, 1397880, Note_on_c, 0, 67, 39
3, 1398043, Note_on_c, 0, 67, 0
3, 1398060, Note_on_c, 0, 65, 42
3, 1398223, Note_on_c, 0, 65, 0
3, 1398240, Note_on_c, 0, 67, 47
3, 1398403, Note_on_c, 0, 67, 0
3, 1398420, Note_on_c, 0, 65, 40
3, 1398583, Note_on_c, 0, 65, 0
3, 1398600, Note_on_c, 0, 68, 49
3, 1398763, Note_on_c, 0, 68, 0
3, 1398780, Note_on_c, 0, 67, 39
3, 1398943, Note_on_c, 0, 67, 0
3, 1398960, Note_on_c, 0, 65, 41
3, 1399123, Note_on_c, 0, 65, 0
3, 1399140, Note_on_c, 0, 65, 41
3, 1399303, Note_on_c, 0, 65, 0
3, 1399320, Note_on_c, 0, 65, 42
3, 1399483, Note_on_c, 0, 65, 0
3, 1399500, Note_on_c, 0, 65, 44
3, 1399663, Note_on_c, 0, 65, 0
3, 1399680, Note_on_c, 0, 65, 45
3, 1399843, Note_on_c, 0, 65, 0
3, 1399860, Note_on_c, 0, 67, 44
3, 1400023, Note_on_c, 0, 67, 0
3, 1400040, Note_on_c, 0, 65, 41
3, 1400203, Note_on_c, 0, 65, 0
3, 1400220, Note_on_c, 0, 63, 41
3, 1400383, Note_on_c, 0, 63, 0
3, 1400400, Note_on_c, 0, 65, 45
3, 1400563, Note_on_c, 0, 65, 0
3, 1400580, Note_on_c, 0, 63, 40
3, 1400743, Note_on_c, 0, 63, 0
3, 1400760, Note_on_c, 0, 67, 48
3, 1400923, Note_on_c, 0, 67, 0
3, 1400940, Note_on_c, 0, 65, 40
3, 1401103, Note_on_c, 0, 65, 0
3, 1401120, Note_on_c, 0, 63, 39
3, 1401283, Note_on_c, 0, 63, 0
3, 1401300, Note_on_c, 0, 63, 41
3, 1401463, Note_on_c, 0, 63, 0
3, 1401480, Note_on_c, 0, 63, 45
3, 1401643, Note_on_c, 0, 63, 0
3, 1401660, Note_on_c, 0, 65, 45
3, 1401823, Note_on_c, 0, 65, 0
3, 1401840, Note_on_c, 0, 67, 48
3, 1402003, Note_on_c, 0, 67, 0
3, 1402020, Note_on_c, 0, 65, 39
3, 1402183, Note_on_c, 0, 65, 0
3, 1402200, Note_on_c, 0, 63, 38
3, 1402363, Note_on_c, 0, 63, 0
3, 1402380, Note_on_c, 0, 63, 42
3, 1402543, Note_on_c, 0, 63, 0
3, 1402560, Note_on_c, 0, 63, 45
3, 1402723, Note_on_c, 0, 63, 0
3, 1402740, Note_on_c, 0, 65, 45
3, 1402903, Note_on_c, 0, 65, 0
3, 1402920, Note_on_c, 0, 67, 48
3, 1403083, Note_on_c, 0, 67, 0
3, 1403460, Note_on_c, 0, 67, 39
3, 1403623, Note_on_c, 0, 67, 0
3, 1403640, Note_on_c, 0, 68, 45
3, 1403803, Note_on_c, 0, 68, 0
3, 1403820, Note_on_c, 0, 67, 39
3, 1403983, Note_on_c, 0, 67, 0
3, 1404000, Note_on_c, 0, 67, 46
3, 1404163, Note_on_c, 0, 67, 0
3, 1404180, Note_on_c, 0, 68, 45
3, 1404343, Note_on_c, 0, 68, 0
3, 1404360, Note_on_c, 0, 67, 42
3, 1404523, Note_on_c, 0, 67, 0
3, 1404540, Note_on_c, 0, 70, 51
3, 1404703, Note_on_c, 0, 70, 0
3, 1404720, Note_on_c, 0, 68, 42
3, 1404883, Note_on_c, 0, 68, 0
3, 1404900, Note_on_c, 0, 67, 40
3, 1405063, Note_on_c, 0, 67, 0
3, 1405080, Note_on_c, 0, 67, 43
3, 1405243, Note_on_c, 0, 67, 0
3, 1405260, Note_on_c, 0, 67, 44
3, 1405423, Note_on_c, 0, 67, 0
3, 1405440, Note_on_c, 0, 67, 43
3, 1405603, Note_on_c, 0, 67, 0
3, 1405620, Note_on_c, 0, 67, 47
3, 1405783, Note_on_c, 0, 67, 0
3, 1405800, Note_on_c, 0, 67, 44
3, 1405963, Note_on_c, 0, 67, 0
3, 1405980, Note_on_c, 0, 67, 42
3, 1406143, Note_on_c, 0, 67, 0
3, 1406160, Note_on_c, 0, 67, 45
3, 1406323, Note_on_c, 0, 67, 0
3, 1406340, Note_on_c, 0, 68, 44
3, 1406503, Note_on_c, 0, 68, 0
3, 1406520, Note_on_c, 0, 67, 40
3, 1406683, Note_on_c, 0, 67, 0
3, 1406700, Note_on_c, 0, 65, 42
3, 1406863, Note_on_c, 0, 65, 0
3, 1406880, Note_on_c, 0, 67, 47
3, 1407043, Note_on_c, 0, 67, 0
3, 1407060, Note_on_c, 0, 65, 40
3, 1407223, Note_on_c, 0, 65, 0
3, 1407240, Note_on_c, 0, 68, 49
3, 1407403, Note_on_c, 0, 68, 0
3, 1407420, Note_on_c, 0, 67, 41
3, 1407583, Note_on_c, 0, 67, 0
3, 1407600, Note_on_c, 0, 65, 40
3, 1407763, Note_on_c, 0, 65, 0
3, 1407780, Note_on_c, 0, 65, 43
3, 1407943, Note_on_c, 0, 65, 0
3, 1407960, Note_on_c, 0, 65, 43
3, 1408123, Note_on_c, 0, 65, 0
3, 1408140, Note_on_c, 0, 65, 42
3, 1408303, Note_on_c, 0, 65, 0
3, 1408320, Note_on_c, 0, 65, 46
3, 1408483, Note_on_c, 0, 65, 0
3, 1408500, Note_on_c, 0, 67, 46
3, 1408663, Note_on_c, 0, 67, 0
3, 1408680, Note_on_c, 0, 65, 39
3, 1408843, Note_on_c, 0, 65, 0
3, 1408860, Note_on_c, 0, 63, 44
3, 1409023, Note_on_c, 0, 63, 0
3, 1409040, Note_on_c, 0, 65, 46
3, 1409203, Note_on_c, 0, 65, 0
3, 1409220, Note_on_c, 0, 63, 41
3, 1409383, Note_on_c, 0, 63, 0
3, 1409400, Note_on_c, 0, 67, 48
3, 1409563, Note_on_c, 0, 67, 0
3, 1409580, Note_on_c, 0, 65, 43
3, 1409743, Note_on_c, 0, 65, 0
3, 1409760, Note_on_c, 0, 63, 42
3, 1409923, Note_on_c, 0, 63, 0
3, 1409940, Note_on_c, 0, 63, 40
3, 1410103, Note_on_c, 0, 63, 0
3, 1410120, Note_on_c, 0, 63, 42
3, 1410283, Note_on_c, 0, 63, 0
3, 1410300, Note_on_c, 0, 65, 44
3, 1410463, Note_on_c, 0, 65, 0
3, 1410480, Note_on_c, 0, 67, 48
3, 1410643, Note_on_c, 0, 67, 0
3, 1410660, Note_on_c, 0, 65, 39
3, 1410823, Note_on_c, 0, 65, 0
3, 1410840, Note_on_c, 0, 63, 38
3, 1411003, Note_on_c, 0, 63, 0
3, 1411020, Note_on_c, 0, 63, 43
3, 1411183, Note_on_c, 0, 63, 0
3, 1411200, Note_on_c, 0, 63, 42
3, 1411363, Note_on_c, 0, 63, 0
3, 1411380, Note_on_c, 0, 65, 46
3, 1411543, Note_on_c, 0, 65, 0
3, 1411560, Note_on_c, 0, 67, 46
3, 1411723, Note_on_c, 0, 67, 0
3, 1412640, Note_on_c, 0, 55, 40
3, 1412803, Note_on_c, 0, 55, 0
3, 1412820, Note_on_c, 0, 56, 43
3, 1412983, Note_on_c, 0, 56, 0
3, 1413000, Note_on_c, 0, 55, 42
3, 1413163, Note_on_c, 0, 55, 0
3, 1413180, Note_on_c, 0, 58, 47
3, 1413343, Note_on_c, 0, 58, 0
3, 1413360, Note_on_c, 0, 56, 41
3, 1413523, Note_on_c, 0, 56, 0
3, 1413540, Note_on_c, 0, 55, 41
3, 1413703, Note_on_c, 0, 55, 0
3, 1413720, Note_on_c, 0, 55, 43
3, 1413883, Note_on_c, 0, 55, 0
3, 1413900, Note_on_c, 0, 56, 44
3, 1414063, Note_on_c, 0, 56, 0
3, 1414080, Note_on_c, 0, 57, 44
3, 1414243, Note_on_c, 0, 57, 0
3, 1414260, Note_on_c, 0, 58, 44
3, 1414423, Note_on_c, 0, 58, 0
3, 1414440, Note_on_c, 0, 58, 42
3, 1414603, Note_on_c, 0, 58, 0
3, 1414620, Note_on_c, 0, 58, 44
3, 1414783, Note_on_c, 0, 58, 0
3, 1414800, Note_on_c, 0, 58, 46
3, 1414963, Note_on_c, 0, 58, 0
3, 1414980, Note_on_c, 0, 55, 37
3, 1415143, Note_on_c, 0, 55, 0
3, 1415160, Note_on_c, 0, 58, 46
3, 1415323, Note_on_c, 0, 58, 0
3, 1415340, Note_on_c, 0, 59, 43
3, 1415503, Note_on_c, 0, 59, 0
3, 1415520, Note_on_c, 0, 60, 45
3, 1415683, Note_on_c, 0, 60, 0
3, 1415700, Note_on_c, 0, 62, 43
3, 1415863, Note_on_c, 0, 62, 0
3, 1415880, Note_on_c, 0, 63, 46
3, 1416205, Note_on_c, 0, 63, 0
3, 1416420, Note_on_c, 0, 60, 43
3, 1416583, Note_on_c, 0, 60, 0
3, 1416600, Note_on_c, 0, 61, 42
3, 1416763, Note_on_c, 0, 61, 0
3, 1416780, Note_on_c, 0, 62, 44
3, 1416943, Note_on_c, 0, 62, 0
3, 1416960, Note_on_c, 0, 63, 46
3, 1417123, Note_on_c, 0, 63, 0
3, 1417140, Note_on_c, 0, 63, 43
3, 1417303, Note_on_c, 0, 63, 0
3, 1417320, Note_on_c, 0, 63, 43
3, 1417483, Note_on_c, 0, 63, 0
3, 1417500, Note_on_c, 0, 62, 41
3, 1417663, Note_on_c, 0, 62, 0
3, 1417680, Note_on_c, 0, 65, 44
3, 1417843, Note_on_c, 0, 65, 0
3, 1417860, Note_on_c, 0, 67, 47
3, 1418023, Note_on_c, 0, 67, 0
3, 1418040, Note_on_c, 0, 63, 40
3, 1418203, Note_on_c, 0, 63, 0
3, 1418220, Note_on_c, 0, 62, 41
3, 1418383, Note_on_c, 0, 62, 0
3, 1418400, Note_on_c, 0, 63, 44
3, 1418563, Note_on_c, 0, 63, 0
3, 1418580, Note_on_c, 0, 64, 47
3, 1418743, Note_on_c, 0, 64, 0
3, 1418760, Note_on_c, 0, 67, 44
3, 1418923, Note_on_c, 0, 67, 0
3, 1418940, Note_on_c, 0, 68, 44
3, 1419103, Note_on_c, 0, 68, 0
3, 1419120, Note_on_c, 0, 65, 43
3, 1419283, Note_on_c, 0, 65, 0
3, 1419300, Note_on_c, 0, 64, 39
3, 1419463, Note_on_c, 0, 64, 0
3, 1419480, Note_on_c, 0, 65, 45
3, 1419643, Note_on_c, 0, 65, 0
3, 1419660, Note_on_c, 0, 67, 47
3, 1419823, Note_on_c, 0, 67, 0
3, 1419840, Note_on_c, 0, 70, 47
3, 1420003, Note_on_c, 0, 70, 0
3, 1420020, Note_on_c, 0, 72, 45
3, 1420183, Note_on_c, 0, 72, 0
3, 1420200, Note_on_c, 0, 68, 41
3, 1420363, Note_on_c, 0, 68, 0
3, 1420380, Note_on_c, 0, 67, 38
3, 1420543, Note_on_c, 0, 67, 0
3, 1420560, Note_on_c, 0, 68, 44
3, 1420723, Note_on_c, 0, 68, 0
3, 1420740, Note_on_c, 0, 70, 48
3, 1420903, Note_on_c, 0, 70, 0
3, 1420920, Note_on_c, 0, 72, 45
3, 1421083, Note_on_c, 0, 72, 0
3, 1421100, Note_on_c, 0, 70, 41
3, 1421263, Note_on_c, 0, 70, 0
3, 1421280, Note_on_c, 0, 68, 41
3, 1421443, Note_on_c, 0, 68, 0
3, 1421820, Note_on_c, 0, 63, 41
3, 1421983, Note_on_c, 0, 63, 0
3, 1422000, Note_on_c, 0, 61, 42
3, 1422163, Note_on_c, 0, 61, 0
3, 1422180, Note_on_c, 0, 60, 41
3, 1422343, Note_on_c, 0, 60, 0
3, 1422360, Note_on_c, 0, 60, 45
3, 1422523, Note_on_c, 0, 60, 0
3, 1422540, Note_on_c, 0, 61, 44
3, 1422703, Note_on_c, 0, 61, 0
3, 1422720, Note_on_c, 0, 62, 44
3, 1422883, Note_on_c, 0, 62, 0
3, 1422900, Note_on_c, 0, 63, 44
3, 1423063, Note_on_c, 0, 63, 0
3, 1423080, Note_on_c, 0, 63, 45
3, 1423243, Note_on_c, 0, 63, 0
3, 1423260, Note_on_c, 0, 63, 43
3, 1423423, Note_on_c, 0, 63, 0
3, 1423440, Note_on_c, 0, 63, 47
3, 1423603, Note_on_c, 0, 63, 0
3, 1423620, Note_on_c, 0, 60, 38
3, 1423783, Note_on_c, 0, 60, 0
3, 1423800, Note_on_c, 0, 63, 47
3, 1423963, Note_on_c, 0, 63, 0
3, 1423980, Note_on_c, 0, 64, 49
3, 1424143, Note_on_c, 0, 64, 0
3, 1424160, Note_on_c, 0, 65, 47
3, 1424323, Note_on_c, 0, 65, 0
3, 1424340, Note_on_c, 0, 67, 43
3, 1424503, Note_on_c, 0, 67, 0
3, 1424520, Note_on_c, 0, 68, 48
3, 1424845, Note_on_c, 0, 68, 0
3, 1425060, Note_on_c, 0, 65, 43
3, 1425223, Note_on_c, 0, 65, 0
3, 1425240, Note_on_c, 0, 66, 42
3, 1425403, Note_on_c, 0, 66, 0
3, 1425420, Note_on_c, 0, 67, 46
3, 1425583, Note_on_c, 0, 67, 0
3, 1425600, Note_on_c, 0, 68, 50
3, 1425763, Note_on_c, 0, 68, 0
3, 1425780, Note_on_c, 0, 67, 40
3, 1425943, Note_on_c, 0, 67, 0
3, 1425960, Note_on_c, 0, 68, 44
3, 1426123, Note_on_c, 0, 68, 0
3, 1426140, Note_on_c, 0, 69, 49
3, 1426303, Note_on_c, 0, 69, 0
3, 1426320, Note_on_c, 0, 72, 47
3, 1426483, Note_on_c, 0, 72, 0
3, 1426500, Note_on_c, 0, 74, 46
3, 1426663, Note_on_c, 0, 74, 0
3, 1426680, Note_on_c, 0, 71, 43
3, 1426843, Note_on_c, 0, 71, 0
3, 1426860, Note_on_c, 0, 69, 42
3, 1427023, Note_on_c, 0, 69, 0
3, 1427040, Note_on_c, 0, 71, 45
3, 1427203, Note_on_c, 0, 71, 0
3, 1427220, Note_on_c, 0, 72, 48
3, 1427383, Note_on_c, 0, 72, 0
3, 1427400, Note_on_c, 0, 74, 45
3, 1427563, Note_on_c, 0, 74, 0
3, 1427580, Note_on_c, 0, 75, 46
3, 1427743, Note_on_c, 0, 75, 0
3, 1427760, Note_on_c, 0, 74, 46
3, 1427923, Note_on_c, 0, 74, 0
3, 1427940, Note_on_c, 0, 72, 42
3, 1428103, Note_on_c, 0, 72, 0
3, 1428120, Note_on_c, 0, 74, 47
3, 1428283, Note_on_c, 0, 74, 0
3, 1428300, Note_on_c, 0, 75, 49
3, 1428463, Note_on_c, 0, 75, 0
3, 1428480, Note_on_c, 0, 77, 44
3, 1428643, Note_on_c, 0, 77, 0
3, 1428660, Note_on_c, 0, 75, 39
3, 1428823, Note_on_c, 0, 75, 0
3, 1428840, Note_on_c, 0, 74, 44
3, 1429003, Note_on_c, 0, 74, 0
3, 1429020, Note_on_c, 0, 67, 36
3, 1429183, Note_on_c, 0, 67, 0
3, 1429200, Note_on_c, 0, 69, 44
3, 1429363, Note_on_c, 0, 69, 0
3, 1429380, Note_on_c, 0, 71, 47
3, 1429543, Note_on_c, 0, 71, 0
3, 1429560, Note_on_c, 0, 69, 40
3, 1429723, Note_on_c, 0, 69, 0
3, 1429740, Note_on_c, 0, 71, 45
3, 1429903, Note_on_c, 0, 71, 0
3, 1429920, Note_on_c, 0, 72, 49
3, 1430083, Note_on_c, 0, 72, 0
3, 1430100, Note_on_c, 0, 73, 50
3, 1430280, Note_on_c, 0, 73, 0
3, 1430280, Note_on_c, 0, 72, 46
3, 1430460, Note_on_c, 0, 72, 0
3, 1430460, Note_on_c, 0, 75, 57
3, 1430640, Note_on_c, 0, 75, 0
3, 1430640, Note_on_c, 0, 73, 46
3, 1430820, Note_on_c, 0, 73, 0
3, 1430820, Note_on_c, 0, 72, 44
3, 1431000, Note_on_c, 0, 72, 0
3, 1431000, Note_on_c, 0, 72, 44
3, 1431163, Note_on_c, 0, 72, 0
3, 1431180, Note_on_c, 0, 72, 43
3, 1431343, Note_on_c, 0, 72, 0
3, 1431360, Note_on_c, 0, 72, 45
3, 1431523, Note_on_c, 0, 72, 0
3, 1431540, Note_on_c, 0, 72, 46
3, 1431703, Note_on_c, 0, 72, 0
3, 1431720, Note_on_c, 0, 72, 45
3, 1431883, Note_on_c, 0, 72, 0
3, 1431900, Note_on_c, 0, 72, 42
3, 1432063, Note_on_c, 0, 72, 0
3, 1432080, Note_on_c, 0, 72, 45
3, 1432243, Note_on_c, 0, 72, 0
3, 1432260, Note_on_c, 0, 73, 43
3, 1432423, Note_on_c, 0, 73, 0
3, 1432440, Note_on_c, 0, 72, 40
3, 1432603, Note_on_c, 0, 72, 0
3, 1432620, Note_on_c, 0, 70, 44
3, 1432783, Note_on_c, 0, 70, 0
3, 1432800, Note_on_c, 0, 72, 45
3, 1432963, Note_on_c, 0, 72, 0
3, 1432980, Note_on_c, 0, 70, 42
3, 1433143, Note_on_c, 0, 70, 0
3, 1433160, Note_on_c, 0, 73, 47
3, 1433323, Note_on_c, 0, 73, 0
3, 1433340, Note_on_c, 0, 72, 42
3, 1433503, Note_on_c, 0, 72, 0
3, 1433520, Note_on_c, 0, 70, 39
3, 1433683, Note_on_c, 0, 70, 0
3, 1433700, Note_on_c, 0, 70, 41
3, 1433863, Note_on_c, 0, 70, 0
3, 1433880, Note_on_c, 0, 70, 43
3, 1434043, Note_on_c, 0, 70, 0
3, 1434060, Note_on_c, 0, 70, 41
3, 1434223, Note_on_c, 0, 70, 0
3, 1434240, Note_on_c, 0, 70, 47
3, 1434403, Note_on_c, 0, 70, 0
3, 1434420, Note_on_c, 0, 72, 44
3, 1434583, Note_on_c, 0, 72, 0
3, 1434600, Note_on_c, 0, 70, 40
3, 1434763, Note_on_c, 0, 70, 0
3, 1434780, Note_on_c, 0, 68, 43
3, 1434943, Note_on_c, 0, 68, 0
3, 1434960, Note_on_c, 0, 70, 46
3, 1435123, Note_on_c, 0, 70, 0
3, 1435140, Note_on_c, 0, 68, 41
3, 1435303, Note_on_c, 0, 68, 0
3, 1435320, Note_on_c, 0, 72, 48
3, 1435483, Note_on_c, 0, 72, 0
3, 1435500, Note_on_c, 0, 70, 40
3, 1435663, Note_on_c, 0, 70, 0
3, 1435680, Note_on_c, 0, 68, 38
3, 1435843, Note_on_c, 0, 68, 0
3, 1435860, Note_on_c, 0, 68, 43
3, 1436023, Note_on_c, 0, 68, 0
3, 1436040, Note_on_c, 0, 68, 41
3, 1436203, Note_on_c, 0, 68, 0
3, 1436220, Note_on_c, 0, 70, 45
3, 1436383, Note_on_c, 0, 70, 0
3, 1436400, Note_on_c, 0, 72, 48
3, 1436563, Note_on_c, 0, 72, 0
3, 1436580, Note_on_c, 0, 70, 39
3, 1436743, Note_on_c, 0, 70, 0
3, 1436760, Note_on_c, 0, 68, 39
3, 1436923, Note_on_c, 0, 68, 0
3, 1436940, Note_on_c, 0, 68, 43
3, 1437103, Note_on_c, 0, 68, 0
3, 1437120, Note_on_c, 0, 68, 43
3, 1437283, Note_on_c, 0, 68, 0
3, 1437300, Note_on_c, 0, 70, 46
3, 1437463, Note_on_c, 0, 70, 0
3, 1437480, Note_on_c, 0, 72, 46
3, 1437643, Note_on_c, 0, 72, 0
3, 1438020, Note_on_c, 0, 67, 39
3, 1438183, Note_on_c, 0, 67, 0
3, 1438200, Note_on_c, 0, 68, 45
3, 1438363, Note_on_c, 0, 68, 0
3, 1438380, Note_on_c, 0, 67, 43
3, 1438543, Note_on_c, 0, 67, 0
3, 1438560, Note_on_c, 0, 67, 44
3, 1438723, Note_on_c, 0, 67, 0
3, 1438740, Note_on_c, 0, 68, 45
3, 1438903, Note_on_c, 0, 68, 0
3, 1438920, Note_on_c, 0, 67, 40
3, 1439083, Note_on_c, 0, 67, 0
3, 1439100, Note_on_c, 0, 70, 50
3, 1439263, Note_on_c, 0, 70, 0
3, 1439280, Note_on_c, 0, 68, 40
3, 1439443, Note_on_c, 0, 68, 0
3, 1439460, Note_on_c, 0, 67, 38
3, 1439623, Note_on_c, 0, 67, 0
3, 1439640, Note_on_c, 0, 67, 44
3, 1439803, Note_on_c, 0, 67, 0
3, 1439820, Note_on_c, 0, 67, 44
3, 1439983, Note_on_c, 0, 67, 0
3, 1440000, Note_on_c, 0, 67, 43
3, 1440163, Note_on_c, 0, 67, 0
3, 1440180, Note_on_c, 0, 67, 46
3, 1440343, Note_on_c, 0, 67, 0
3, 1440360, Note_on_c, 0, 67, 44
3, 1440523, Note_on_c, 0, 67, 0
3, 1440540, Note_on_c, 0, 67, 45
3, 1440703, Note_on_c, 0, 67, 0
3, 1440720, Note_on_c, 0, 67, 46
3, 1440883, Note_on_c, 0, 67, 0
3, 1440900, Note_on_c, 0, 68, 44
3, 1441063, Note_on_c, 0, 68, 0
3, 1441080, Note_on_c, 0, 67, 42
3, 1441243, Note_on_c, 0, 67, 0
3, 1441260, Note_on_c, 0, 65, 45
3, 1441423, Note_on_c, 0, 65, 0
3, 1441440, Note_on_c, 0, 67, 46
3, 1441603, Note_on_c, 0, 67, 0
3, 1441620, Note_on_c, 0, 65, 40
3, 1441783, Note_on_c, 0, 65, 0
3, 1441800, Note_on_c, 0, 68, 49
3, 1441963, Note_on_c, 0, 68, 0
3, 1441980, Note_on_c, 0, 67, 43
3, 1442143, Note_on_c, 0, 67, 0
3, 1442160, Note_on_c, 0, 65, 39
3, 1442323, Note_on_c, 0, 65, 0
3, 1442340, Note_on_c, 0, 65, 42
3, 1442503, Note_on_c, 0, 65, 0
3, 1442520, Note_on_c, 0, 65, 43
3, 1442683, Note_on_c, 0, 65, 0
3, 1442700, Note_on_c, 0, 65, 44
3, 1442863, Note_on_c, 0, 65, 0
3, 1442880, Note_on_c, 0, 65, 46
3, 1443043, Note_on_c, 0, 65, 0
3, 1443060, Note_on_c, 0, 67, 46
3, 1443223, Note_on_c, 0, 67, 0
3, 1443240, Note_on_c, 0, 65, 42
3, 1443403, Note_on_c, 0, 65, 0
3, 1443420, Note_on_c, 0, 63, 42
3, 1443583, Note_on_c, 0, 63, 0
3, 1443600, Note_on_c, 0, 65, 47
3, 1443763, Note_on_c, 0, 65, 0
3, 1443780, Note_on_c, 0, 63, 41
3, 1443943, Note_on_c, 0, 63, 0
3, 1443960, Note_on_c, 0, 67, 49
3, 1444123, Note_on_c, 0, 67, 0
3, 1444140, Note_on_c, 0, 65, 42
3, 1444303, Note_on_c, 0, 65, 0
3, 1444320, Note_on_c, 0, 63, 40
3, 1444483, Note_on_c, 0, 63, 0
3, 1444500, Note_on_c, 0, 63, 43
3, 1444663, Note_on_c, 0, 63, 0
3, 1444680, Note_on_c, 0, 63, 41
3, 1444843, Note_on_c, 0, 63, 0
3, 1444860, Note_on_c, 0, 65, 46
3, 1445023, Note_on_c, 0, 65, 0
3, 1445040, Note_on_c, 0, 65, 48
3, 1445203, Note_on_c, 0, 65, 0
3, 1445220, Note_on_c, 0, 63, 40
3, 1445383, Note_on_c, 0, 63, 0
3, 1445400, Note_on_c, 0, 63, 42
3, 1445563, Note_on_c, 0, 63, 0
3, 1445580, Note_on_c, 0, 63, 45
3, 1445743, Note_on_c, 0, 63, 0
3, 1445760, Note_on_c, 0, 63, 42
3, 1445923, Note_on_c, 0, 63, 0
3, 1445940, Note_on_c, 0, 65, 45
3, 1446103, Note_on_c, 0, 65, 0
3, 1446120, Note_on_c, 0, 67, 76
3, 1446283, Note_on_c, 0, 67, 0
3, 1446660, Note_on_c, 0, 62, 41
3, 1446823, Note_on_c, 0, 62, 0
3, 1446840, Note_on_c, 0, 61, 40
3, 1447003, Note_on_c, 0, 61, 0
3, 1447020, Note_on_c, 0, 60, 39
3, 1447183, Note_on_c, 0, 60, 0
3, 1447200, Note_on_c, 0, 60, 45
3, 1447363, Note_on_c, 0, 60, 0
3, 1447380, Note_on_c, 0, 61, 45
3, 1447543, Note_on_c, 0, 61, 0
3, 1447560, Note_on_c, 0, 60, 39
3, 1447723, Note_on_c, 0, 60, 0
3, 1447740, Note_on_c, 0, 58, 42
3, 1447903, Note_on_c, 0, 58, 0
3, 1447920, Note_on_c, 0, 56, 41
3, 1448083, Note_on_c, 0, 56, 0
3, 1448100, Note_on_c, 0, 58, 43
3, 1448263, Note_on_c, 0, 58, 0
3, 1448280, Note_on_c, 0, 56, 45
3, 1448443, Note_on_c, 0, 56, 0
3, 1448460, Note_on_c, 0, 58, 45
3, 1448623, Note_on_c, 0, 58, 0
3, 1448640, Note_on_c, 0, 56, 41
3, 1448803, Note_on_c, 0, 56, 0
3, 1448820, Note_on_c, 0, 60, 51
3, 1448983, Note_on_c, 0, 60, 0
3, 1449000, Note_on_c, 0, 58, 43
3, 1449163, Note_on_c, 0, 58, 0
3, 1449180, Note_on_c, 0, 56, 41
3, 1449343, Note_on_c, 0, 56, 0
3, 1449360, Note_on_c, 0, 58, 49
3, 1449523, Note_on_c, 0, 58, 0
3, 1449540, Note_on_c, 0, 60, 46
3, 1449703, Note_on_c, 0, 60, 0
3, 1449720, Note_on_c, 0, 58, 40
3, 1449883, Note_on_c, 0, 58, 0
3, 1449900, Note_on_c, 0, 56, 45
3, 1450063, Note_on_c, 0, 56, 0
3, 1450080, Note_on_c, 0, 55, 40
3, 1450243, Note_on_c, 0, 55, 0
3, 1450260, Note_on_c, 0, 56, 46
3, 1450423, Note_on_c, 0, 56, 0
3, 1450440, Note_on_c, 0, 55, 42
3, 1450603, Note_on_c, 0, 55, 0
3, 1450620, Note_on_c, 0, 56, 44
3, 1450783, Note_on_c, 0, 56, 0
3, 1450800, Note_on_c, 0, 55, 42
3, 1450963, Note_on_c, 0, 55, 0
3, 1450980, Note_on_c, 0, 58, 47
3, 1451143, Note_on_c, 0, 58, 0
3, 1451160, Note_on_c, 0, 56, 41
3, 1451323, Note_on_c, 0, 56, 0
3, 1451340, Note_on_c, 0, 55, 42
3, 1451503, Note_on_c, 0, 55, 0
3, 1451520, Note_on_c, 0, 56, 47
3, 1451683, Note_on_c, 0, 56, 0
3, 1451700, Note_on_c, 0, 58, 45
3, 1451863, Note_on_c, 0, 58, 0
3, 1451880, Note_on_c, 0, 56, 39
3, 1452043, Note_on_c, 0, 56, 0
3, 1452060, Note_on_c, 0, 55, 43
3, 1452223, Note_on_c, 0, 55, 0
3, 1452240, Note_on_c, 0, 53, 41
3, 1452403, Note_on_c, 0, 53, 0
3, 1452420, Note_on_c, 0, 55, 44
3, 1452583, Note_on_c, 0, 55, 0
3, 1452600, Note_on_c, 0, 53, 44
3, 1452763, Note_on_c, 0, 53, 0
3, 1452780, Note_on_c, 0, 55, 44
3, 1452943, Note_on_c, 0, 55, 0
3, 1452960, Note_on_c, 0, 56, 43
3, 1453123, Note_on_c, 0, 56, 0
3, 1453140, Note_on_c, 0, 56, 46
3, 1453303, Note_on_c, 0, 56, 0
3, 1453320, Note_on_c, 0, 55, 40
3, 1453483, Note_on_c, 0, 55, 0
3, 1453500, Note_on_c, 0, 53, 41
3, 1453663, Note_on_c, 0, 53, 0
3, 1453680, Note_on_c, 0, 53, 44
3, 1453843, Note_on_c, 0, 53, 0
3, 1453860, Note_on_c, 0, 54, 42
3, 1454023, Note_on_c, 0, 54, 0
3, 1454040, Note_on_c, 0, 55, 43
3, 1454203, Note_on_c, 0, 55, 0
3, 1454220, Note_on_c, 0, 55, 48
3, 1454383, Note_on_c, 0, 55, 0
3, 1454400, Note_on_c, 0, 54, 42
3, 1454563, Note_on_c, 0, 54, 0
3, 1454580, Note_on_c, 0, 53, 38
3, 1454743, Note_on_c, 0, 53, 0
3, 1454760, Note_on_c, 0, 51, 42
3, 1454923, Note_on_c, 0, 51, 0
3, 1454940, Note_on_c, 0, 53, 44
3, 1455103, Note_on_c, 0, 53, 0
3, 1455120, Note_on_c, 0, 55, 45
3, 1455283, Note_on_c, 0, 55, 0
3, 1455300, Note_on_c, 0, 55, 45
3, 1455463, Note_on_c, 0, 55, 0
3, 1455480, Note_on_c, 0, 55, 44
3, 1455643, Note_on_c, 0, 55, 0
3, 1455660, Note_on_c, 0, 55, 41
3, 1455823, Note_on_c, 0, 55, 0
3, 1455840, Note_on_c, 0, 53, 44
3, 1456003, Note_on_c, 0, 53, 0
3, 1456020, Note_on_c, 0, 51, 39
3, 1456183, Note_on_c, 0, 51, 0
3, 1456200, Note_on_c, 0, 53, 47
3, 1456363, Note_on_c, 0, 53, 0
3, 1456380, Note_on_c, 0, 49, 43
3, 1456543, Note_on_c, 0, 49, 0
3, 1456560, Note_on_c, 0, 51, 43
3, 1456723, Note_on_c, 0, 51, 0
3, 1456740, Note_on_c, 0, 53, 47
3, 1457083, Note_on_c, 0, 53, 0
3, 1457100, Note_on_c, 0, 51, 40
3, 1457263, Note_on_c, 0, 51, 0
3, 1457280, Note_on_c, 0, 53, 46
3, 1457443, Note_on_c, 0, 53, 0
3, 1457460, Note_on_c, 0, 49, 43
3, 1457623, Note_on_c, 0, 49, 0
3, 1457640, Note_on_c, 0, 51, 45
3, 1457803, Note_on_c, 0, 51, 0
3, 1457820, Note_on_c, 0, 53, 44
3, 1458163, Note_on_c, 0, 53, 0
3, 1458180, Note_on_c, 0, 51, 38
3, 1458343, Note_on_c, 0, 51, 0
3, 1458360, Note_on_c, 0, 53, 43
3, 1458523, Note_on_c, 0, 53, 0
3, 1458540, Note_on_c, 0, 50, 44
3, 1458703, Note_on_c, 0, 50, 0
3, 1458720, Note_on_c, 0, 51, 43
3, 1458883, Note_on_c, 0, 51, 0
3, 1458900, Note_on_c, 0, 53, 45
3, 1459243, Note_on_c, 0, 53, 0
3, 1459260, Note_on_c, 0, 51, 40
3, 1459423, Note_on_c, 0, 51, 0
3, 1459440, Note_on_c, 0, 53, 46
3, 1459603, Note_on_c, 0, 53, 0
3, 1459620, Note_on_c, 0, 50, 42
3, 1459783, Note_on_c, 0, 50, 0
3, 1459800, Note_on_c, 0, 51, 44
3, 1459963, Note_on_c, 0, 51, 0
3, 1459980, Note_on_c, 0, 53, 43
3, 1460143, Note_on_c, 0, 53, 0
3, 1460160, Note_on_c, 0, 55, 50
3, 1460323, Note_on_c, 0, 55, 0
3, 1460340, Note_on_c, 0, 56, 45
3, 1460503, Note_on_c, 0, 56, 0
3, 1460520, Note_on_c, 0, 55, 40
3, 1460683, Note_on_c, 0, 55, 0
3, 1460700, Note_on_c, 0, 58, 50
3, 1460863, Note_on_c, 0, 58, 0
3, 1460880, Note_on_c, 0, 56, 40
3, 1461043, Note_on_c, 0, 56, 0
3, 1461060, Note_on_c, 0, 55, 41
3, 1461223, Note_on_c, 0, 55, 0
3, 1461240, Note_on_c, 0, 55, 46
3, 1461403, Note_on_c, 0, 55, 0
3, 1461420, Note_on_c, 0, 55, 43
3, 1461583, Note_on_c, 0, 55, 0
3, 1461600, Note_on_c, 0, 55, 45
3, 1461763, Note_on_c, 0, 55, 0
3, 1461780, Note_on_c, 0, 55, 47
3, 1461943, Note_on_c, 0, 55, 0
3, 1461960, Note_on_c, 0, 55, 41
3, 1462123, Note_on_c, 0, 55, 0
3, 1462140, Note_on_c, 0, 55, 43
3, 1462303, Note_on_c, 0, 55, 0
3, 1462320, Note_on_c, 0, 55, 48
3, 1462483, Note_on_c, 0, 55, 0
3, 1462500, Note_on_c, 0, 56, 43
3, 1462663, Note_on_c, 0, 56, 0
3, 1462680, Note_on_c, 0, 55, 42
3, 1462843, Note_on_c, 0, 55, 0
3, 1462860, Note_on_c, 0, 58, 49
3, 1463023, Note_on_c, 0, 58, 0
3, 1463040, Note_on_c, 0, 56, 39
3, 1463203, Note_on_c, 0, 56, 0
3, 1463220, Note_on_c, 0, 55, 38
3, 1463383, Note_on_c, 0, 55, 0
3, 1463400, Note_on_c, 0, 55, 45
3, 1463563, Note_on_c, 0, 55, 0
3, 1463580, Note_on_c, 0, 55, 44
3, 1463743, Note_on_c, 0, 55, 0
3, 1463760, Note_on_c, 0, 55, 42
3, 1463923, Note_on_c, 0, 55, 0
3, 1463940, Note_on_c, 0, 55, 46
3, 1464103, Note_on_c, 0, 55, 0
3, 1464120, Note_on_c, 0, 55, 44
3, 1464283, Note_on_c, 0, 55, 0
3, 1464300, Note_on_c, 0, 55, 43
3, 1464463, Note_on_c, 0, 55, 0
3, 1464480, Note_on_c, 0, 55, 48
3, 1464643, Note_on_c, 0, 55, 0
3, 1464660, Note_on_c, 0, 51, 39
3, 1464823, Note_on_c, 0, 51, 0
3, 1464840, Note_on_c, 0, 53, 44
3, 1465003, Note_on_c, 0, 53, 0
3, 1465020, Note_on_c, 0, 55, 48
3, 1465183, Note_on_c, 0, 55, 0
3, 1465200, Note_on_c, 0, 60, 50
3, 1465363, Note_on_c, 0, 60, 0
3, 1465380, Note_on_c, 0, 51, 37
3, 1465543, Note_on_c, 0, 51, 0
3, 1465560, Note_on_c, 0, 55, 46
3, 1465723, Note_on_c, 0, 55, 0
3, 1465740, Note_on_c, 0, 51, 38
3, 1465903, Note_on_c, 0, 51, 0
3, 1465920, Note_on_c, 0, 53, 44
3, 1466083, Note_on_c, 0, 53, 0
3, 1466100, Note_on_c, 0, 55, 48
3, 1466263, Note_on_c, 0, 55, 0
3, 1466280, Note_on_c, 0, 61, 51
3, 1466443, Note_on_c, 0, 61, 0
3, 1466460, Note_on_c, 0, 51, 35
3, 1466623, Note_on_c, 0, 51, 0
3, 1466640, Note_on_c, 0, 54, 47
3, 1466803, Note_on_c, 0, 54, 0
3, 1466820, Note_on_c, 0, 51, 39
3, 1466983, Note_on_c, 0, 51, 0
3, 1467000, Note_on_c, 0, 53, 43
3, 1467163, Note_on_c, 0, 53, 0
3, 1467180, Note_on_c, 0, 54, 48
3, 1467343, Note_on_c, 0, 54, 0
3, 1467360, Note_on_c, 0, 60, 50
3, 1467523, Note_on_c, 0, 60, 0
3, 1467540, Note_on_c, 0, 51, 34
3, 1467703, Note_on_c, 0, 51, 0
3, 1467720, Note_on_c, 0, 55, 50
3, 1467883, Note_on_c, 0, 55, 0
3, 1467900, Note_on_c, 0, 53, 39
3, 1468063, Note_on_c, 0, 53, 0
3, 1468080, Note_on_c, 0, 54, 45
3, 1468243, Note_on_c, 0, 54, 0
3, 1468260, Note_on_c, 0, 55, 48
3, 1468423, Note_on_c, 0, 55, 0
3, 1468440, Note_on_c, 0, 59, 48
3, 1468603, Note_on_c, 0, 59, 0
3, 1468620, Note_on_c, 0, 53, 38
3, 1468783, Note_on_c, 0, 53, 0
3, 1468800, Note_on_c, 0, 43, 36
3, 1468963, Note_on_c, 0, 43, 0
3, 1468980, Note_on_c, 0, 44, 44
3, 1469143, Note_on_c, 0, 44, 0
3, 1469160, Note_on_c, 0, 43, 41
3, 1469323, Note_on_c, 0, 43, 0
3, 1469340, Note_on_c, 0, 46, 47
3, 1469503, Note_on_c, 0, 46, 0
3, 1469520, Note_on_c, 0, 44, 39
3, 1469683, Note_on_c, 0, 44, 0
3, 1469700, Note_on_c, 0, 43, 40
3, 1469863, Note_on_c, 0, 43, 0
3, 1469880, Note_on_c, 0, 43, 46
3, 1470043, Note_on_c, 0, 43, 0
3, 1470060, Note_on_c, 0, 43, 41
3, 1470223, Note_on_c, 0, 43, 0
3, 1470240, Note_on_c, 0, 43, 44
3, 1470403, Note_on_c, 0, 43, 0
3, 1470420, Note_on_c, 0, 44, 45
3, 1470583, Note_on_c, 0, 44, 0
3, 1470600, Note_on_c, 0, 43, 42
3, 1470763, Note_on_c, 0, 43, 0
3, 1470780, Note_on_c, 0, 43, 42
3, 1470943, Note_on_c, 0, 43, 0
3, 1470960, Note_on_c, 0, 43, 47
3, 1471123, Note_on_c, 0, 43, 0
3, 1471140, Note_on_c, 0, 44, 44
3, 1471303, Note_on_c, 0, 44, 0
3, 1471320, Note_on_c, 0, 43, 39
3, 1471483, Note_on_c, 0, 43, 0
3, 1471500, Note_on_c, 0, 46, 51
3, 1471663, Note_on_c, 0, 46, 0
3, 1471680, Note_on_c, 0, 44, 40
3, 1471843, Note_on_c, 0, 44, 0
3, 1471860, Note_on_c, 0, 43, 38
3, 1472023, Note_on_c, 0, 43, 0
3, 1472040, Note_on_c, 0, 43, 45
3, 1472203, Note_on_c, 0, 43, 0
3, 1472220, Note_on_c, 0, 43, 44
3, 1472383, Note_on_c, 0, 43, 0
3, 1472400, Note_on_c, 0, 43, 44
3, 1472563, Note_on_c, 0, 43, 0
3, 1472580, Note_on_c, 0, 44, 45
3, 1472743, Note_on_c, 0, 44, 0
3, 1472760, Note_on_c, 0, 43, 39
3, 1472923, Note_on_c, 0, 43, 0
3, 1472940, Note_on_c, 0, 43, 45
3, 1473103, Note_on_c, 0, 43, 0
3, 1473120, Note_on_c, 0, 43, 47
3, 1473283, Note_on_c, 0, 43, 0
3, 1473300, Note_on_c, 0, 51, 51
3, 1473463, Note_on_c, 0, 51, 0
3, 1473480, Note_on_c, 0, 53, 47
3, 1473643, Note_on_c, 0, 53, 0
3, 1473660, Note_on_c, 0, 55, 47
3, 1473823, Note_on_c, 0, 55, 0
3, 1473840, Note_on_c, 0, 60, 49
3, 1474003, Note_on_c, 0, 60, 0
3, 1474020, Note_on_c, 0, 51, 36
3, 1474183, Note_on_c, 0, 51, 0
3, 1474200, Note_on_c, 0, 44, 39
3, 1474363, Note_on_c, 0, 44, 0
3, 1474380, Note_on_c, 0, 51, 46
3, 1474543, Note_on_c, 0, 51, 0
3, 1474560, Note_on_c, 0, 53, 46
3, 1474723, Note_on_c, 0, 53, 0
3, 1474740, Note_on_c, 0, 54, 47
3, 1474903, Note_on_c, 0, 54, 0
3, 1474920, Note_on_c, 0, 60, 50
3, 1475083, Note_on_c, 0, 60, 0
3, 1475100, Note_on_c, 0, 51, 34
3, 1475263, Note_on_c, 0, 51, 0
3, 1475280, Note_on_c, 0, 50, 44
3, 1475443, Note_on_c, 0, 50, 0
3, 1475460, Note_on_c, 0, 53, 47
3, 1475623, Note_on_c, 0, 53, 0
3, 1475640, Note_on_c, 0, 55, 43
3, 1475803, Note_on_c, 0, 55, 0
3, 1475820, Note_on_c, 0, 56, 49
3, 1475983, Note_on_c, 0, 56, 0
3, 1476000, Note_on_c, 0, 60, 49
3, 1476163, Note_on_c, 0, 60, 0
3, 1476180, Note_on_c, 0, 53, 37
3, 1476343, Note_on_c, 0, 53, 0
3, 1476360, Note_on_c, 0, 43, 35
3, 1476523, Note_on_c, 0, 43, 0
3, 1476540, Note_on_c, 0, 53, 52
3, 1476703, Note_on_c, 0, 53, 0
3, 1476720, Note_on_c, 0, 54, 44
3, 1476883, Note_on_c, 0, 54, 0
3, 1476900, Note_on_c, 0, 55, 50
3, 1477063, Note_on_c, 0, 55, 0
3, 1477080, Note_on_c, 0, 59, 47
3, 1477243, Note_on_c, 0, 59, 0
3, 1477260, Note_on_c, 0, 53, 38
3, 1477423, Note_on_c, 0, 53, 0
3, 1477440, Note_on_c, 0, 55, 51
3, 1477440, Note_on_c, 0, 60, 53
3, 1477440, Note_on_c, 0, 48, 51
3, 1477440, Note_on_c, 0, 51, 53
3, 1477765, Note_on_c, 0, 51, 0
3, 1477765, Note_on_c, 0, 60, 0
3, 1477765, Note_on_c, 0, 55, 0
3, 1477765, Note_on_c, 0, 48, 0
3, 1477980, Note_on_c, 0, 55, 40
3, 1477980, Note_on_c, 0, 60, 40
3, 1477980, Note_on_c, 0, 63, 40
3, 1477980, Note_on_c, 0, 46, 46
3, 1478305, Note_on_c, 0, 46, 0
3, 1478305, Note_on_c, 0, 60, 0
3, 1478305, Note_on_c, 0, 55, 0
3, 1478305, Note_on_c, 0, 63, 0
3, 1478520, Note_on_c, 0, 51, 43
3, 1478520, Note_on_c, 0, 60, 43
3, 1478520, Note_on_c, 0, 63, 42
3, 1478520, Note_on_c, 0, 44, 49
3, 1478845, Note_on_c, 0, 44, 0
3, 1478845, Note_on_c, 0, 60, 0
3, 1478845, Note_on_c, 0, 51, 0
3, 1478845, Note_on_c, 0, 63, 0
3, 1479060, Note_on_c, 0, 51, 40
3, 1479060, Note_on_c, 0, 58, 38
3, 1479060, Note_on_c, 0, 63, 41
3, 1479060, Note_on_c, 0, 43, 46
3, 1479385, Note_on_c, 0, 63, 0
3, 1479385, Note_on_c, 0, 51, 0
3, 1479385, Note_on_c, 0, 43, 0
3, 1479385, Note_on_c, 0, 58, 0
3, 1479600, Note_on_c, 0, 55, 42
3, 1479600, Note_on_c, 0, 58, 43
3, 1479600, Note_on_c, 0, 61, 41
3, 1479600, Note_on_c, 0, 67, 42
3, 1479600, Note_on_c, 0, 41, 53
3, 1479600, Note_on_c, 0, 53, 49
3, 1479925, Note_on_c, 0, 53, 0
3, 1479925, Note_on_c, 0, 55, 0
3, 1479925, Note_on_c, 0, 41, 0
3, 1479925, Note_on_c, 0, 58, 0
3, 1479925, Note_on_c, 0, 67, 0
3, 1479925, Note_on_c, 0, 61, 0
3, 1480140, Note_on_c, 0, 55, 40
3, 1480140, Note_on_c, 0, 58, 37
3, 1480140, Note_on_c, 0, 60, 40
3, 1480140, Note_on_c, 0, 67, 39
3, 1480140, Note_on_c, 0, 40, 48
3, 1480140, Note_on_c, 0, 52, 47
3, 1480465, Note_on_c, 0, 52, 0
3, 1480465, Note_on_c, 0, 55, 0
3, 1480465, Note_on_c, 0, 40, 0
3, 1480465, Note_on_c, 0, 58, 0
3, 1480465, Note_on_c, 0, 67, 0
3, 1480465, Note_on_c, 0, 60, 0
3, 1480680, Note_on_c, 0, 54, 42
3, 1480680, Note_on_c, 0, 56, 41
3, 1480680, Note_on_c, 0, 60, 43
3, 1480680, Note_on_c, 0, 66, 41
3, 1480680, Note_on_c, 0, 39, 53
3, 1480680, Note_on_c, 0, 51, 50
3, 1481005, Note_on_c, 0, 51, 0
3, 1481005, Note_on_c, 0, 54, 0
3, 1481005, Note_on_c, 0, 39, 0
3, 1481005, Note_on_c, 0, 56, 0
3, 1481005, Note_on_c, 0, 66, 0
3, 1481005, Note_on_c, 0, 60, 0
3, 1481220, Note_on_c, 0, 53, 40
3, 1481220, Note_on_c, 0, 56, 38
3, 1481220, Note_on_c, 0, 60, 39
3, 1481220, Note_on_c, 0, 65, 41
3, 1481220, Note_on_c, 0, 38, 48
3, 1481220, Note_on_c, 0, 50, 49
3, 1481545, Note_on_c, 0, 50, 0
3, 1481545, Note_on_c, 0, 53, 0
3, 1481545, Note_on_c, 0, 38, 0
3, 1481545, Note_on_c, 0, 56, 0
3, 1481545, Note_on_c, 0, 65, 0
3, 1481545, Note_on_c, 0, 60, 0
3, 1481760, Note_on_c, 0, 53, 43
3, 1481760, Note_on_c, 0, 56, 42
3, 1481760, Note_on_c, 0, 61, 41
3, 1481760, Note_on_c, 0, 65, 41
3, 1481760, Note_on_c, 0, 37, 50
3, 1481760, Note_on_c, 0, 49, 49
3, 1482085, Note_on_c, 0, 49, 0
3, 1482085, Note_on_c, 0, 53, 0
3, 1482085, Note_on_c, 0, 37, 0
3, 1482085, Note_on_c, 0, 56, 0
3, 1482085, Note_on_c, 0, 65, 0
3, 1482085, Note_on_c, 0, 61, 0
3, 1482300, Note_on_c, 0, 53, 40
3, 1482300, Note_on_c, 0, 56, 39
3, 1482300, Note_on_c, 0, 62, 38
3, 1482300, Note_on_c, 0, 65, 41
3, 1482300, Note_on_c, 0, 36, 49
3, 1482300, Note_on_c, 0, 48, 48
3, 1482625, Note_on_c, 0, 48, 0
3, 1482625, Note_on_c, 0, 53, 0
3, 1482625, Note_on_c, 0, 36, 0
3, 1482625, Note_on_c, 0, 56, 0
3, 1482625, Note_on_c, 0, 65, 0
3, 1482625, Note_on_c, 0, 62, 0
3, 1482840, Note_on_c, 0, 55, 41
3, 1482840, Note_on_c, 0, 62, 43
3, 1482840, Note_on_c, 0, 65, 42
3, 1482840, Note_on_c, 0, 67, 42
3, 1482840, Note_on_c, 0, 35, 51
3, 1482840, Note_on_c, 0, 47, 50
3, 1483165, Note_on_c, 0, 35, 0
3, 1483165, Note_on_c, 0, 67, 0
3, 1483165, Note_on_c, 0, 55, 0
3, 1483165, Note_on_c, 0, 62, 0
3, 1483165, Note_on_c, 0, 47, 0
3, 1483165, Note_on_c, 0, 65, 0
3, 1483380, Note_on_c, 0, 55, 39
3, 1483380, Note_on_c, 0, 61, 39
3, 1483380, Note_on_c, 0, 63, 41
3, 1483380, Note_on_c, 0, 67, 38
3, 1483380, Note_on_c, 0, 34, 47
3, 1483380, Note_on_c, 0, 46, 50
3, 1483705, Note_on_c, 0, 46, 0
3, 1483705, Note_on_c, 0, 55, 0
3, 1483705, Note_on_c, 0, 34, 0
3, 1483705, Note_on_c, 0, 61, 0
3, 1483705, Note_on_c, 0, 67, 0
3, 1483705, Note_on_c, 0, 63, 0
3, 1483920, Note_on_c, 0, 56, 44
3, 1483920, Note_on_c, 0, 60, 44
3, 1483920, Note_on_c, 0, 63, 44
3, 1483920, Note_on_c, 0, 68, 40
3, 1483920, Note_on_c, 0, 32, 49
3, 1483920, Note_on_c, 0, 44, 52
3, 1484245, Note_on_c, 0, 44, 0
3, 1484245, Note_on_c, 0, 56, 0
3, 1484245, Note_on_c, 0, 32, 0
3, 1484245, Note_on_c, 0, 60, 0
3, 1484245, Note_on_c, 0, 68, 0
3, 1484245, Note_on_c, 0, 63, 0
3, 1484460, Note_on_c, 0, 58, 41
3, 1484460, Note_on_c, 0, 61, 37
3, 1484460, Note_on_c, 0, 68, 41
3, 1484460, Note_on_c, 0, 70, 37
3, 1484460, Note_on_c, 0, 28, 49
3, 1484460, Note_on_c, 0, 40, 47
3, 1484785, Note_on_c, 0, 40, 0
3, 1484785, Note_on_c, 0, 58, 0
3, 1484785, Note_on_c, 0, 28, 0
3, 1484785, Note_on_c, 0, 61, 0
3, 1484785, Note_on_c, 0, 70, 0
3, 1484785, Note_on_c, 0, 68, 0
3, 1485000, Note_on_c, 0, 59, 42
3, 1485000, Note_on_c, 0, 62, 41
3, 1485000, Note_on_c, 0, 68, 42
3, 1485000, Note_on_c, 0, 71, 43
3, 1485000, Note_on_c, 0, 29, 50
3, 1485000, Note_on_c, 0, 41, 53
3, 1485325, Note_on_c, 0, 41, 0
3, 1485325, Note_on_c, 0, 59, 0
3, 1485325, Note_on_c, 0, 29, 0
3, 1485325, Note_on_c, 0, 62, 0
3, 1485325, Note_on_c, 0, 71, 0
3, 1485325, Note_on_c, 0, 68, 0
3, 1485540, Note_on_c, 0, 60, 37
3, 1485540, Note_on_c, 0, 63, 39
3, 1485540, Note_on_c, 0, 68, 39
3, 1485540, Note_on_c, 0, 72, 41
3, 1485540, Note_on_c, 0, 30, 49
3, 1485540, Note_on_c, 0, 42, 48
3, 1485865, Note_on_c, 0, 42, 0
3, 1485865, Note_on_c, 0, 60, 0
3, 1485865, Note_on_c, 0, 30, 0
3, 1485865, Note_on_c, 0, 63, 0
3, 1485865, Note_on_c, 0, 72, 0
3, 1485865, Note_on_c, 0, 68, 0
3, 1486080, Note_on_c, 0, 60, 64
3, 1486080, Note_on_c, 0, 62, 62
3, 1486080, Note_on_c, 0, 65, 65
3, 1486080, Note_on_c, 0, 67, 63
3, 1486080, Note_on_c, 0, 72, 63
3, 1486620, Note_on_c, 0, 60, 50
3, 1486783, Note_on_c, 0, 60, 0
3, 1486800, Note_on_c, 0, 58, 49
3, 1486963, Note_on_c, 0, 58, 0
3, 1486980, Note_on_c, 0, 56, 47
3, 1487090, Note_on_c, 0, 72, 0
3, 1487090, Note_on_c, 0, 62, 0
3, 1487090, Note_on_c, 0, 60, 0
3, 1487090, Note_on_c, 0, 65, 0
3, 1487090, Note_on_c, 0, 31, 0
3, 1487090, Note_on_c, 0, 43, 0
3, 1487090, Note_on_c, 0, 67, 0
3, 1487143, Note_on_c, 0, 56, 0
3, 1487160, Note_on_c, 0, 59, 44
3, 1487160, Note_on_c, 0, 65, 42
3, 1487160, Note_on_c, 0, 67, 42
3, 1487160, Note_on_c, 0, 71, 41
3, 1487160, Note_on_c, 0, 55, 51
3, 1487323, Note_on_c, 0, 55, 0
3, 1487340, Note_on_c, 0, 56, 56
3, 1487503, Note_on_c, 0, 56, 0
3, 1487520, Note_on_c, 0, 55, 48
3, 1487683, Note_on_c, 0, 55, 0
3, 1487700, Note_on_c, 0, 53, 50
3, 1487863, Note_on_c, 0, 53, 0
3, 1487880, Note_on_c, 0, 51, 48
3, 1488043, Note_on_c, 0, 51, 0
3, 1488060, Note_on_c, 0, 50, 52
3, 1488170, Note_on_c, 0, 59, 0
3, 1488170, Note_on_c, 0, 67, 0
3, 1488170, Note_on_c, 0, 65, 0
3, 1488170, Note_on_c, 0, 71, 0
3, 1488223, Note_on_c, 0, 50, 0
3, 1488240, Note_on_c, 0, 60, 46
3, 1488240, Note_on_c, 0, 63, 46
3, 1488240, Note_on_c, 0, 72, 46
3, 1488240, Note_on_c, 0, 48, 53
3, 1488403, Note_on_c, 0, 48, 0
3, 1488403, Note_on_c, 0, 63, 0
3, 1488403, Note_on_c, 0, 72, 0
3, 1488403, Note_on_c, 0, 60, 0
3, 1488600, Note_on_c, 0, 62, 39
3, 1488763, Note_on_c, 0, 62, 0
3, 1488780, Note_on_c, 0, 55, 45
3, 1488780, Note_on_c, 0, 60, 44
3, 1488780, Note_on_c, 0, 63, 43
3, 1489105, Note_on_c, 0, 63, 0
3, 1489105, Note_on_c, 0, 60, 0
3, 1489105, Note_on_c, 0, 55, 0
3, 1489320, Note_on_c, 0, 39, 50
3, 1489320, Note_on_c, 0, 51, 52
3, 1489645, Note_on_c, 0, 51, 0
3, 1489645, Note_on_c, 0, 39, 0
3, 1489680, Note_on_c, 0, 65, 38
3, 1489843, Note_on_c, 0, 65, 0
3, 1489860, Note_on_c, 0, 58, 46
3, 1489860, Note_on_c, 0, 60, 44
3, 1489860, Note_on_c, 0, 66, 45
3, 1490185, Note_on_c, 0, 66, 0
3, 1490185, Note_on_c, 0, 60, 0
3, 1490185, Note_on_c, 0, 58, 0
3, 1490400, Note_on_c, 0, 41, 52
3, 1490400, Note_on_c, 0, 53, 52
3, 1490725, Note_on_c, 0, 53, 0
3, 1490725, Note_on_c, 0, 41, 0
3, 1490760, Note_on_c, 0, 63, 38
3, 1490923, Note_on_c, 0, 63, 0
3, 1490940, Note_on_c, 0, 57, 46
3, 1490940, Note_on_c, 0, 60, 42
3, 1490940, Note_on_c, 0, 65, 45
3, 1491265, Note_on_c, 0, 65, 0
3, 1491265, Note_on_c, 0, 60, 0
3, 1491265, Note_on_c, 0, 57, 0
3, 1491480, Note_on_c, 0, 32, 53
3, 1491480, Note_on_c, 0, 44, 50
3, 1491805, Note_on_c, 0, 44, 0
3, 1491805, Note_on_c, 0, 32, 0
3, 1491840, Note_on_c, 0, 61, 37
3, 1492003, Note_on_c, 0, 61, 0
3, 1492020, Note_on_c, 0, 56, 44
3, 1492020, Note_on_c, 0, 60, 45
3, 1492020, Note_on_c, 0, 63, 46
3, 1492345, Note_on_c, 0, 63, 0
3, 1492345, Note_on_c, 0, 60, 0
3, 1492345, Note_on_c, 0, 56, 0
3, 1492560, Note_on_c, 0, 36, 52
3, 1492560, Note_on_c, 0, 48, 52
3, 1492885, Note_on_c, 0, 48, 0
3, 1492885, Note_on_c, 0, 36, 0
3, 1492920, Note_on_c, 0, 62, 37
3, 1493083, Note_on_c, 0, 62, 0
3, 1493100, Note_on_c, 0, 55, 45
3, 1493100, Note_on_c, 0, 60, 42
3, 1493100, Note_on_c, 0, 63, 45
3, 1493425, Note_on_c, 0, 63, 0
3, 1493425, Note_on_c, 0, 60, 0
3, 1493425, Note_on_c, 0, 55, 0
3, 1493640, Note_on_c, 0, 39, 53
3, 1493640, Note_on_c, 0, 44, 50
3, 1493965, Note_on_c, 0, 44, 0
3, 1493965, Note_on_c, 0, 39, 0
3, 1494000, Note_on_c, 0, 58, 39
3, 1494163, Note_on_c, 0, 58, 0
3, 1494180, Note_on_c, 0, 54, 45
3, 1494180, Note_on_c, 0, 60, 44
3, 1494505, Note_on_c, 0, 60, 0
3, 1494505, Note_on_c, 0, 54, 0
3, 1494720, Note_on_c, 0, 38, 50
3, 1494720, Note_on_c, 0, 44, 51
3, 1495045, Note_on_c, 0, 44, 0
3, 1495045, Note_on_c, 0, 38, 0
3, 1495080, Note_on_c, 0, 58, 37
3, 1495243, Note_on_c, 0, 58, 0
3, 1495260, Note_on_c, 0, 53, 46
3, 1495260, Note_on_c, 0, 60, 42
3, 1495585, Note_on_c, 0, 60, 0
3, 1495585, Note_on_c, 0, 53, 0
3, 1495800, Note_on_c, 0, 37, 53
3, 1495800, Note_on_c, 0, 44, 52
3, 1496125, Note_on_c, 0, 44, 0
3, 1496125, Note_on_c, 0, 37, 0
3, 1496160, Note_on_c, 0, 58, 39
3, 1496323, Note_on_c, 0, 58, 0
3, 1496340, Note_on_c, 0, 52, 42
3, 1496340, Note_on_c, 0, 60, 46
3, 1496665, Note_on_c, 0, 60, 0
3, 1496665, Note_on_c, 0, 52, 0
3, 1496880, Note_on_c, 0, 32, 51
3, 1496880, Note_on_c, 0, 44, 50
3, 1497205, Note_on_c, 0, 44, 0
3, 1497205, Note_on_c, 0, 32, 0
3, 1497240, Note_on_c, 0, 58, 41
3, 1497403, Note_on_c, 0, 58, 0
3, 1497420, Note_on_c, 0, 51, 45
3, 1497420, Note_on_c, 0, 56, 43
3, 1497420, Note_on_c, 0, 60, 46
3, 1497745, Note_on_c, 0, 60, 0
3, 1497745, Note_on_c, 0, 56, 0
3, 1497745, Note_on_c, 0, 51, 0
3, 1497960, Note_on_c, 0, 68, 47
3, 1497960, Note_on_c, 0, 41, 51
3, 1497960, Note_on_c, 0, 53, 50
3, 1498285, Note_on_c, 0, 53, 0
3, 1498285, Note_on_c, 0, 41, 0
3, 1498500, Note_on_c, 0, 56, 38
3, 1498500, Note_on_c, 0, 61, 41
3, 1498825, Note_on_c, 0, 61, 0
3, 1498825, Note_on_c, 0, 56, 0
3, 1499040, Note_on_c, 0, 41, 53
3, 1499040, Note_on_c, 0, 53, 50
3, 1499365, Note_on_c, 0, 53, 0
3, 1499365, Note_on_c, 0, 41, 0
3, 1499580, Note_on_c, 0, 56, 37
3, 1499580, Note_on_c, 0, 59, 40
3, 1499580, Note_on_c, 0, 62, 40
3, 1499905, Note_on_c, 0, 62, 0
3, 1499905, Note_on_c, 0, 56, 0
3, 1499905, Note_on_c, 0, 59, 0
3, 1500050, Note_on_c, 0, 68, 0
3, 1500120, Note_on_c, 0, 69, 53
3, 1500120, Note_on_c, 0, 42, 52
3, 1500120, Note_on_c, 0, 54, 51
3, 1500445, Note_on_c, 0, 54, 0
3, 1500445, Note_on_c, 0, 42, 0
3, 1500660, Note_on_c, 0, 57, 41
3, 1500660, Note_on_c, 0, 60, 38
3, 1500660, Note_on_c, 0, 63, 41
3, 1500985, Note_on_c, 0, 63, 0
3, 1500985, Note_on_c, 0, 57, 0
3, 1500985, Note_on_c, 0, 60, 0
3, 1501200, Note_on_c, 0, 69, 0
3, 1501200, Note_on_c, 0, 60, 37
3, 1501200, Note_on_c, 0, 31, 55
3, 1501200, Note_on_c, 0, 43, 53
3, 1501525, Note_on_c, 0, 43, 0
3, 1501525, Note_on_c, 0, 31, 0
3, 1501740, Note_on_c, 0, 50, 48
3, 1501740, Note_on_c, 0, 53, 48
3, 1501740, Note_on_c, 0, 32, 50
3, 1501740, Note_on_c, 0, 44, 50
3, 1502065, Note_on_c, 0, 44, 0
3, 1502065, Note_on_c, 0, 53, 0
3, 1502065, Note_on_c, 0, 50, 0
3, 1502065, Note_on_c, 0, 32, 0
3, 1502210, Note_on_c, 0, 60, 0
3, 1502280, Note_on_c, 0, 59, 44
3, 1502280, Note_on_c, 0, 31, 51
3, 1502280, Note_on_c, 0, 43, 52
3, 1502605, Note_on_c, 0, 43, 0
3, 1502605, Note_on_c, 0, 31, 0
3, 1502820, Note_on_c, 0, 50, 47
3, 1502820, Note_on_c, 0, 53, 50
3, 1503145, Note_on_c, 0, 53, 0
3, 1503145, Note_on_c, 0, 50, 0
3, 1503290, Note_on_c, 0, 59, 0
3, 1503360, Note_on_c, 0, 60, 46
3, 1503360, Note_on_c, 0, 36, 52
3, 1503360, Note_on_c, 0, 43, 52
3, 1503685, Note_on_c, 0, 43, 0
3, 1503685, Note_on_c, 0, 36, 0
3, 1503900, Note_on_c, 0, 51, 46
3, 1503900, Note_on_c, 0, 55, 49
3, 1504225, Note_on_c, 0, 55, 0
3, 1504225, Note_on_c, 0, 51, 0
3, 1504370, Note_on_c, 0, 60, 0
3, 1504440, Note_on_c, 0, 39, 49
3, 1504440, Note_on_c, 0, 51, 53
3, 1504765, Note_on_c, 0, 51, 0
3, 1504765, Note_on_c, 0, 39, 0
3, 1504800, Note_on_c, 0, 72, 40
3, 1504963, Note_on_c, 0, 72, 0
3, 1504980, Note_on_c, 0, 72, 45
3, 1505143, Note_on_c, 0, 72, 0
3, 1505160, Note_on_c, 0, 70, 40
3, 1505323, Note_on_c, 0, 70, 0
3, 1505340, Note_on_c, 0, 72, 45
3, 1505503, Note_on_c, 0, 72, 0
3, 1505520, Note_on_c, 0, 75, 49
3, 1505520, Note_on_c, 0, 41, 51
3, 1505520, Note_on_c, 0, 53, 53
3, 1505683, Note_on_c, 0, 75, 0
3, 1505700, Note_on_c, 0, 73, 43
3, 1505845, Note_on_c, 0, 53, 0
3, 1505845, Note_on_c, 0, 41, 0
3, 1505863, Note_on_c, 0, 73, 0
3, 1505880, Note_on_c, 0, 72, 42
3, 1506043, Note_on_c, 0, 72, 0
3, 1506060, Note_on_c, 0, 72, 45
3, 1506223, Note_on_c, 0, 72, 0
3, 1506240, Note_on_c, 0, 70, 39
3, 1506403, Note_on_c, 0, 70, 0
3, 1506420, Note_on_c, 0, 72, 44
3, 1506583, Note_on_c, 0, 72, 0
3, 1506600, Note_on_c, 0, 68, 44
3, 1506600, Note_on_c, 0, 32, 53
3, 1506600, Note_on_c, 0, 44, 52
3, 1506763, Note_on_c, 0, 68, 0
3, 1506780, Note_on_c, 0, 70, 45
3, 1506925, Note_on_c, 0, 44, 0
3, 1506925, Note_on_c, 0, 32, 0
3, 1506943, Note_on_c, 0, 70, 0
3, 1506960, Note_on_c, 0, 72, 44
3, 1507123, Note_on_c, 0, 72, 0
3, 1507140, Note_on_c, 0, 72, 43
3, 1507465, Note_on_c, 0, 72, 0
3, 1507500, Note_on_c, 0, 72, 45
3, 1507663, Note_on_c, 0, 72, 0
3, 1507680, Note_on_c, 0, 75, 49
3, 1507680, Note_on_c, 0, 36, 50
3, 1507680, Note_on_c, 0, 48, 51
3, 1507843, Note_on_c, 0, 75, 0
3, 1507860, Note_on_c, 0, 73, 40
3, 1508005, Note_on_c, 0, 48, 0
3, 1508005, Note_on_c, 0, 36, 0
3, 1508023, Note_on_c, 0, 73, 0
3, 1508040, Note_on_c, 0, 72, 38
3, 1508203, Note_on_c, 0, 72, 0
3, 1508220, Note_on_c, 0, 72, 44
3, 1508383, Note_on_c, 0, 72, 0
3, 1508400, Note_on_c, 0, 70, 40
3, 1508563, Note_on_c, 0, 70, 0
3, 1508580, Note_on_c, 0, 72, 45
3, 1508743, Note_on_c, 0, 72, 0
3, 1508760, Note_on_c, 0, 66, 42
3, 1508760, Note_on_c, 0, 39, 51
3, 1508760, Note_on_c, 0, 51, 51
3, 1508923, Note_on_c, 0, 66, 0
3, 1508940, Note_on_c, 0, 70, 46
3, 1509085, Note_on_c, 0, 51, 0
3, 1509085, Note_on_c, 0, 39, 0
3, 1509103, Note_on_c, 0, 70, 0
3, 1509120, Note_on_c, 0, 72, 45
3, 1509283, Note_on_c, 0, 72, 0
3, 1509300, Note_on_c, 0, 70, 63
3, 1509625, Note_on_c, 0, 70, 0
3, 1509660, Note_on_c, 0, 72, 45
3, 1509823, Note_on_c, 0, 72, 0
3, 1509840, Note_on_c, 0, 65, 37
3, 1509840, Note_on_c, 0, 38, 50
3, 1509840, Note_on_c, 0, 50, 50
3, 1510003, Note_on_c, 0, 65, 0
3, 1510020, Note_on_c, 0, 70, 44
3, 1510165, Note_on_c, 0, 50, 0
3, 1510165, Note_on_c, 0, 38, 0
3, 1510183, Note_on_c, 0, 70, 0
3, 1510200, Note_on_c, 0, 72, 46
3, 1510363, Note_on_c, 0, 72, 0
3, 1510380, Note_on_c, 0, 70, 64
3, 1510705, Note_on_c, 0, 70, 0
3, 1510740, Note_on_c, 0, 72, 46
3, 1510903, Note_on_c, 0, 72, 0
3, 1510920, Note_on_c, 0, 64, 37
3, 1510920, Note_on_c, 0, 37, 52
3, 1510920, Note_on_c, 0, 49, 51
3, 1511083, Note_on_c, 0, 64, 0
3, 1511100, Note_on_c, 0, 70, 47
3, 1511245, Note_on_c, 0, 49, 0
3, 1511245, Note_on_c, 0, 37, 0
3, 1511263, Note_on_c, 0, 70, 0
3, 1511280, Note_on_c, 0, 72, 45
3, 1511443, Note_on_c, 0, 72, 0
3, 1511460, Note_on_c, 0, 70, 65
3, 1511785, Note_on_c, 0, 70, 0
3, 1511820, Note_on_c, 0, 72, 43
3, 1511983, Note_on_c, 0, 72, 0
3, 1512000, Note_on_c, 0, 63, 37
3, 1512000, Note_on_c, 0, 32, 50
3, 1512000, Note_on_c, 0, 44, 50
3, 1512163, Note_on_c, 0, 63, 0
3, 1512180, Note_on_c, 0, 70, 49
3, 1512325, Note_on_c, 0, 44, 0
3, 1512325, Note_on_c, 0, 32, 0
3, 1512343, Note_on_c, 0, 70, 0
3, 1512360, Note_on_c, 0, 72, 44
3, 1512523, Note_on_c, 0, 72, 0
3, 1512540, Note_on_c, 0, 63, 38
3, 1512703, Note_on_c, 0, 63, 0
3, 1512720, Note_on_c, 0, 60, 40
3, 1512883, Note_on_c, 0, 60, 0
3, 1512900, Note_on_c, 0, 63, 46
3, 1513063, Note_on_c, 0, 63, 0
3, 1513080, Note_on_c, 0, 68, 58
3, 1513080, Note_on_c, 0, 41, 50
3, 1513080, Note_on_c, 0, 49, 51
3, 1513405, Note_on_c, 0, 49, 0
3, 1513405, Note_on_c, 0, 41, 0
3, 1513620, Note_on_c, 0, 56, 41
3, 1513620, Note_on_c, 0, 61, 40
3, 1513620, Note_on_c, 0, 65, 41
3, 1513945, Note_on_c, 0, 65, 0
3, 1513945, Note_on_c, 0, 56, 0
3, 1513945, Note_on_c, 0, 61, 0
3, 1514160, Note_on_c, 0, 68, 0
3, 1514160, Note_on_c, 0, 67, 49
3, 1514160, Note_on_c, 0, 43, 49
3, 1514160, Note_on_c, 0, 50, 50
3, 1514485, Note_on_c, 0, 50, 0
3, 1514485, Note_on_c, 0, 43, 0
3, 1514700, Note_on_c, 0, 55, 41
3, 1514700, Note_on_c, 0, 59, 41
3, 1514700, Note_on_c, 0, 65, 39
3, 1515025, Note_on_c, 0, 65, 0
3, 1515025, Note_on_c, 0, 55, 0
3, 1515025, Note_on_c, 0, 59, 0
3, 1515240, Note_on_c, 0, 67, 0
3, 1515240, Note_on_c, 0, 70, 78
3, 1515240, Note_on_c, 0, 43, 50
3, 1515240, Note_on_c, 0, 51, 52
3, 1515565, Note_on_c, 0, 51, 0
3, 1515565, Note_on_c, 0, 43, 0
3, 1515780, Note_on_c, 0, 58, 39
3, 1515780, Note_on_c, 0, 63, 39
3, 1515780, Note_on_c, 0, 67, 41
3, 1516105, Note_on_c, 0, 67, 0
3, 1516105, Note_on_c, 0, 58, 0
3, 1516105, Note_on_c, 0, 63, 0
3, 1516320, Note_on_c, 0, 45, 52
3, 1516320, Note_on_c, 0, 52, 51
3, 1516645, Note_on_c, 0, 52, 0
3, 1516645, Note_on_c, 0, 45, 0
3, 1516807, Note_on_c, 0, 70, 0
3, 1516860, Note_on_c, 0, 69, 46
3, 1516860, Note_on_c, 0, 57, 38
3, 1516860, Note_on_c, 0, 61, 41
3, 1516860, Note_on_c, 0, 67, 38
3, 1517185, Note_on_c, 0, 67, 0
3, 1517185, Note_on_c, 0, 57, 0
3, 1517185, Note_on_c, 0, 61, 0
3, 1517400, Note_on_c, 0, 69, 0
3, 1517400, Note_on_c, 0, 68, 47
3, 1517400, Note_on_c, 0, 41, 52
3, 1517400, Note_on_c, 0, 48, 51
3, 1517725, Note_on_c, 0, 48, 0
3, 1517725, Note_on_c, 0, 41, 0
3, 1517940, Note_on_c, 0, 56, 38
3, 1517940, Note_on_c, 0, 60, 41
3, 1517940, Note_on_c, 0, 65, 38
3, 1517940, Note_on_c, 0, 50, 46
3, 1518265, Note_on_c, 0, 50, 0
3, 1518265, Note_on_c, 0, 60, 0
3, 1518265, Note_on_c, 0, 56, 0
3, 1518265, Note_on_c, 0, 65, 0
3, 1518480, Note_on_c, 0, 68, 0
3, 1518480, Note_on_c, 0, 67, 47
3, 1518480, Note_on_c, 0, 43, 52
3, 1518480, Note_on_c, 0, 51, 51
3, 1518805, Note_on_c, 0, 51, 0
3, 1518805, Note_on_c, 0, 43, 0
3, 1519020, Note_on_c, 0, 56, 41
3, 1519020, Note_on_c, 0, 60, 38
3, 1519020, Note_on_c, 0, 65, 41
3, 1519345, Note_on_c, 0, 65, 0
3, 1519345, Note_on_c, 0, 56, 0
3, 1519345, Note_on_c, 0, 60, 0
3, 1519560, Note_on_c, 0, 31, 49
3, 1519560, Note_on_c, 0, 43, 52
3, 1519885, Note_on_c, 0, 43, 0
3, 1519885, Note_on_c, 0, 31, 0
3, 1520100, Note_on_c, 0, 55, 40
3, 1520100, Note_on_c, 0, 59, 39
3, 1520100, Note_on_c, 0, 65, 40
3, 1520425, Note_on_c, 0, 65, 0
3, 1520425, Note_on_c, 0, 55, 0
3, 1520425, Note_on_c, 0, 59, 0
3, 1520570, Note_on_c, 0, 67, 0
3, 1520640, Note_on_c, 0, 55, 43
3, 1520640, Note_on_c, 0, 60, 42
3, 1520640, Note_on_c, 0, 63, 42
3, 1520640, Note_on_c, 0, 36, 50
3, 1520640, Note_on_c, 0, 48, 53
3, 1520803, Note_on_c, 0, 48, 0
3, 1520803, Note_on_c, 0, 55, 0
3, 1520803, Note_on_c, 0, 60, 0
3, 1520803, Note_on_c, 0, 63, 0
3, 1520803, Note_on_c, 0, 36, 0
3, 1521000, Note_on_c, 0, 79, 39
3, 1521000, Note_on_c, 0, 55, 47
3, 1521163, Note_on_c, 0, 55, 0
3, 1521163, Note_on_c, 0, 79, 0
3, 1521180, Note_on_c, 0, 84, 50
3, 1521180, Note_on_c, 0, 60, 61
3, 1521343, Note_on_c, 0, 60, 0
3, 1521343, Note_on_c, 0, 84, 0
3, 1521360, Note_on_c, 0, 83, 40
3, 1521360, Note_on_c, 0, 59, 50
3, 1521523, Note_on_c, 0, 59, 0
3, 1521523, Note_on_c, 0, 83, 0
3, 1521540, Note_on_c, 0, 84, 43
3, 1521540, Note_on_c, 0, 60, 54
3, 1521703, Note_on_c, 0, 60, 0
3, 1521703, Note_on_c, 0, 84, 0
3, 1521720, Note_on_c, 0, 87, 49
3, 1521720, Note_on_c, 0, 67, 65
3, 1521883, Note_on_c, 0, 67, 0
3, 1521883, Note_on_c, 0, 87, 0
3, 1521900, Note_on_c, 0, 86, 43
3, 1521900, Note_on_c, 0, 65, 51
3, 1522063, Note_on_c, 0, 65, 0
3, 1522063, Note_on_c, 0, 86, 0
3, 1522080, Note_on_c, 0, 84, 40
3, 1522080, Note_on_c, 0, 63, 48
3, 1522243, Note_on_c, 0, 63, 0
3, 1522243, Note_on_c, 0, 84, 0
3, 1522260, Note_on_c, 0, 81, 41
3, 1522260, Note_on_c, 0, 65, 59
3, 1522423, Note_on_c, 0, 65, 0
3, 1522423, Note_on_c, 0, 81, 0
3, 1522440, Note_on_c, 0, 83, 43
3, 1522440, Note_on_c, 0, 63, 50
3, 1522603, Note_on_c, 0, 63, 0
3, 1522603, Note_on_c, 0, 83, 0
3, 1522620, Note_on_c, 0, 86, 44
3, 1522620, Note_on_c, 0, 62, 51
3, 1522783, Note_on_c, 0, 62, 0
3, 1522783, Note_on_c, 0, 86, 0
3, 1522800, Note_on_c, 0, 84, 43
3, 1522800, Note_on_c, 0, 60, 58
3, 1522800, Note_on_c, 0, 63, 59
3, 1522963, Note_on_c, 0, 63, 0
3, 1522963, Note_on_c, 0, 60, 0
3, 1522963, Note_on_c, 0, 84, 0
3, 1523160, Note_on_c, 0, 79, 39
3, 1523160, Note_on_c, 0, 55, 49
3, 1523323, Note_on_c, 0, 55, 0
3, 1523323, Note_on_c, 0, 79, 0
3, 1523340, Note_on_c, 0, 84, 51
3, 1523340, Note_on_c, 0, 60, 63
3, 1523503, Note_on_c, 0, 60, 0
3, 1523503, Note_on_c, 0, 84, 0
3, 1523520, Note_on_c, 0, 83, 40
3, 1523520, Note_on_c, 0, 59, 51
3, 1523683, Note_on_c, 0, 59, 0
3, 1523683, Note_on_c, 0, 83, 0
3, 1523700, Note_on_c, 0, 84, 43
3, 1523700, Note_on_c, 0, 60, 56
3, 1523863, Note_on_c, 0, 60, 0
3, 1523863, Note_on_c, 0, 84, 0
3, 1523880, Note_on_c, 0, 87, 49
3, 1523880, Note_on_c, 0, 67, 67
3, 1524043, Note_on_c, 0, 67, 0
3, 1524043, Note_on_c, 0, 87, 0
3, 1524060, Note_on_c, 0, 86, 40
3, 1524060, Note_on_c, 0, 65, 49
3, 1524223, Note_on_c, 0, 65, 0
3, 1524223, Note_on_c, 0, 86, 0
3, 1524240, Note_on_c, 0, 84, 39
3, 1524240, Note_on_c, 0, 63, 52
3, 1524403, Note_on_c, 0, 63, 0
3, 1524403, Note_on_c, 0, 84, 0
3, 1524420, Note_on_c, 0, 81, 41
3, 1524420, Note_on_c, 0, 65, 58
3, 1524583, Note_on_c, 0, 65, 0
3, 1524583, Note_on_c, 0, 81, 0
3, 1524600, Note_on_c, 0, 83, 44
3, 1524600, Note_on_c, 0, 63, 52
3, 1524763, Note_on_c, 0, 63, 0
3, 1524763, Note_on_c, 0, 83, 0
3, 1524780, Note_on_c, 0, 86, 47
3, 1524780, Note_on_c, 0, 62, 52
3, 1524943, Note_on_c, 0, 62, 0
3, 1524943, Note_on_c, 0, 86, 0
3, 1524960, Note_on_c, 0, 84, 46
3, 1524960, Note_on_c, 0, 60, 57
3, 1524960, Note_on_c, 0, 63, 56
3, 1525123, Note_on_c, 0, 63, 0
3, 1525123, Note_on_c, 0, 60, 0
3, 1525123, Note_on_c, 0, 84, 0
3, 1525500, Note_on_c, 0, 66, 53
3, 1525500, Note_on_c, 0, 68, 51
3, 1525663, Note_on_c, 0, 68, 0
3, 1525663, Note_on_c, 0, 66, 0
3, 1525680, Note_on_c, 0, 78, 38
3, 1525680, Note_on_c, 0, 80, 39
3, 1525843, Note_on_c, 0, 80, 0
3, 1525843, Note_on_c, 0, 78, 0
3, 1525860, Note_on_c, 0, 68, 33
3, 1526023, Note_on_c, 0, 68, 0
3, 1526040, Note_on_c, 0, 65, 50
3, 1526040, Note_on_c, 0, 68, 49
3, 1526203, Note_on_c, 0, 68, 0
3, 1526203, Note_on_c, 0, 65, 0
3, 1526220, Note_on_c, 0, 77, 38
3, 1526220, Note_on_c, 0, 80, 40
3, 1526383, Note_on_c, 0, 80, 0
3, 1526383, Note_on_c, 0, 77, 0
3, 1526400, Note_on_c, 0, 68, 34
3, 1526563, Note_on_c, 0, 68, 0
3, 1526580, Note_on_c, 0, 63, 52
3, 1526580, Note_on_c, 0, 68, 51
3, 1526743, Note_on_c, 0, 68, 0
3, 1526743, Note_on_c, 0, 63, 0
3, 1526760, Note_on_c, 0, 75, 40
3, 1526760, Note_on_c, 0, 80, 37
3, 1526923, Note_on_c, 0, 80, 0
3, 1526923, Note_on_c, 0, 75, 0
3, 1526940, Note_on_c, 0, 68, 34
3, 1527103, Note_on_c, 0, 68, 0
3, 1527120, Note_on_c, 0, 61, 51
3, 1527120, Note_on_c, 0, 68, 50
3, 1527283, Note_on_c, 0, 68, 0
3, 1527283, Note_on_c, 0, 61, 0
3, 1527300, Note_on_c, 0, 73, 37
3, 1527300, Note_on_c, 0, 80, 40
3, 1527463, Note_on_c, 0, 80, 0
3, 1527463, Note_on_c, 0, 73, 0
3, 1527480, Note_on_c, 0, 68, 32
3, 1527643, Note_on_c, 0, 68, 0
3, 1527660, Note_on_c, 0, 68, 73
3, 1527823, Note_on_c, 0, 68, 0
3, 1527840, Note_on_c, 0, 92, 62
3, 1528003, Note_on_c, 0, 92, 0
3, 1528020, Note_on_c, 0, 80, 34
3, 1528183, Note_on_c, 0, 80, 0
3, 1528200, Note_on_c, 0, 56, 75
3, 1528363, Note_on_c, 0, 56, 0
3, 1528380, Note_on_c, 0, 80, 61
3, 1528543, Note_on_c, 0, 80, 0
3, 1528560, Note_on_c, 0, 68, 33
3, 1528723, Note_on_c, 0, 68, 0
3, 1528740, Note_on_c, 0, 55, 72
3, 1528740, Note_on_c, 0, 62, 73
3, 1528740, Note_on_c, 0, 65, 72
3, 1528903, Note_on_c, 0, 65, 0
3, 1528903, Note_on_c, 0, 62, 0
3, 1528903, Note_on_c, 0, 55, 0
3, 1528920, Note_on_c, 0, 71, 63
3, 1528920, Note_on_c, 0, 79, 60
3, 1529083, Note_on_c, 0, 79, 0
3, 1529083, Note_on_c, 0, 71, 0
3, 1529100, Note_on_c, 0, 67, 31
3, 1529263, Note_on_c, 0, 67, 0
3, 1529280, Note_on_c, 0, 72, 87
3, 1529280, Note_on_c, 0, 75, 87
3, 1529280, Note_on_c, 0, 84, 85
3, 1529280, Note_on_c, 0, 55, 75
3, 1529280, Note_on_c, 0, 60, 73
3, 1529280, Note_on_c, 0, 63, 74
3, 1529605, Note_on_c, 0, 63, 0
3, 1529605, Note_on_c, 0, 55, 0
3, 1529605, Note_on_c, 0, 72, 0
3, 1529605, Note_on_c, 0, 75, 0
3, 1529605, Note_on_c, 0, 84, 0
3, 1529605, Note_on_c, 0, 60, 0
3, 1529820, Note_on_c, 0, 72, 42
3, 1529820, Note_on_c, 0, 75, 40
3, 1529820, Note_on_c, 0, 80, 42
3, 1529820, Note_on_c, 0, 60, 50
3, 1529820, Note_on_c, 0, 63, 51
3, 1529820, Note_on_c, 0, 68, 50
3, 1530063, Note_on_c, 0, 68, 0
3, 1530063, Note_on_c, 0, 60, 0
3, 1530063, Note_on_c, 0, 72, 0
3, 1530063, Note_on_c, 0, 75, 0
3, 1530063, Note_on_c, 0, 80, 0
3, 1530063, Note_on_c, 0, 63, 0
3, 1530090, Note_on_c, 0, 82, 42
3, 1530090, Note_on_c, 0, 70, 55
3, 1530333, Note_on_c, 0, 70, 0
3, 1530333, Note_on_c, 0, 82, 0
3, 1530360, Note_on_c, 0, 72, 45
3, 1530360, Note_on_c, 0, 75, 42
3, 1530360, Note_on_c, 0, 79, 43
3, 1530360, Note_on_c, 0, 60, 54
3, 1530360, Note_on_c, 0, 63, 51
3, 1530360, Note_on_c, 0, 67, 52
3, 1530685, Note_on_c, 0, 67, 0
3, 1530685, Note_on_c, 0, 60, 0
3, 1530685, Note_on_c, 0, 72, 0
3, 1530685, Note_on_c, 0, 75, 0
3, 1530685, Note_on_c, 0, 79, 0
3, 1530685, Note_on_c, 0, 63, 0
3, 1530900, Note_on_c, 0, 59, 40
3, 1530900, Note_on_c, 0, 65, 38
3, 1530900, Note_on_c, 0, 67, 40
3, 1530900, Note_on_c, 0, 43, 47
3, 1530900, Note_on_c, 0, 55, 48
3, 1531077, Note_on_c, 0, 55, 0
3, 1531077, Note_on_c, 0, 59, 0
3, 1531077, Note_on_c, 0, 65, 0
3, 1531077, Note_on_c, 0, 67, 0
3, 1531077, Note_on_c, 0, 43, 0
3, 1531440, Note_on_c, 0, 60, 41
3, 1531440, Note_on_c, 0, 63, 41
3, 1531440, Note_on_c, 0, 72, 42
3, 1531440, Note_on_c, 0, 36, 50
3, 1531440, Note_on_c, 0, 48, 49
3, 1531617, Note_on_c, 0, 48, 0
3, 1531617, Note_on_c, 0, 60, 0
3, 1531617, Note_on_c, 0, 63, 0
3, 1531617, Note_on_c, 0, 72, 0
3, 1531617, Note_on_c, 0, 36, 0
3, 1531980, Note_on_c, 0, 72, 42
3, 1531980, Note_on_c, 0, 75, 44
3, 1531980, Note_on_c, 0, 80, 42
3, 1531980, Note_on_c, 0, 60, 50
3, 1531980, Note_on_c, 0, 63, 51
3, 1531980, Note_on_c, 0, 68, 51
3, 1532223, Note_on_c, 0, 68, 0
3, 1532223, Note_on_c, 0, 60, 0
3, 1532223, Note_on_c, 0, 72, 0
3, 1532223, Note_on_c, 0, 75, 0
3, 1532223, Note_on_c, 0, 80, 0
3, 1532223, Note_on_c, 0, 63, 0
3, 1532250, Note_on_c, 0, 82, 43
3, 1532250, Note_on_c, 0, 70, 55
3, 1532493, Note_on_c, 0, 70, 0
3, 1532493, Note_on_c, 0, 82, 0
3, 1532520, Note_on_c, 0, 72, 42
3, 1532520, Note_on_c, 0, 75, 43
3, 1532520, Note_on_c, 0, 79, 42
3, 1532520, Note_on_c, 0, 60, 51
3, 1532520, Note_on_c, 0, 63, 52
3, 1532520, Note_on_c, 0, 67, 52
3, 1532845, Note_on_c, 0, 67, 0
3, 1532845, Note_on_c, 0, 60, 0
3, 1532845, Note_on_c, 0, 72, 0
3, 1532845, Note_on_c, 0, 75, 0
3, 1532845, Note_on_c, 0, 79, 0
3, 1532845, Note_on_c, 0, 63, 0
3, 1533060, Note_on_c, 0, 59, 38
3, 1533060, Note_on_c, 0, 65, 41
3, 1533060, Note_on_c, 0, 67, 38
3, 1533060, Note_on_c, 0, 43, 48
3, 1533060, Note_on_c, 0, 55, 50
3, 1533237, Note_on_c, 0, 55, 0
3, 1533237, Note_on_c, 0, 59, 0
3, 1533237, Note_on_c, 0, 65, 0
3, 1533237, Note_on_c, 0, 67, 0
3, 1533237, Note_on_c, 0, 43, 0
3, 1533600, Note_on_c, 0, 60, 40
3, 1533600, Note_on_c, 0, 63, 41
3, 1533600, Note_on_c, 0, 72, 41
3, 1533600, Note_on_c, 0, 36, 53
3, 1533600, Note_on_c, 0, 48, 53
3, 1533777, Note_on_c, 0, 48, 0
3, 1533777, Note_on_c, 0, 60, 0
3, 1533777, Note_on_c, 0, 63, 0
3, 1533777, Note_on_c, 0, 72, 0
3, 1533777, Note_on_c, 0, 36, 0
3, 1534140, Note_on_c, 0, 68, 39
3, 1534140, Note_on_c, 0, 72, 39
3, 1534140, Note_on_c, 0, 80, 40
3, 1534140, Note_on_c, 0, 42, 47
3, 1534140, Note_on_c, 0, 54, 50
3, 1534317, Note_on_c, 0, 54, 0
3, 1534317, Note_on_c, 0, 68, 0
3, 1534317, Note_on_c, 0, 72, 0
3, 1534317, Note_on_c, 0, 80, 0
3, 1534317, Note_on_c, 0, 42, 0
3, 1534680, Note_on_c, 0, 68, 44
3, 1534680, Note_on_c, 0, 73, 42
3, 1534680, Note_on_c, 0, 80, 40
3, 1534680, Note_on_c, 0, 41, 53
3, 1534680, Note_on_c, 0, 53, 49
3, 1534857, Note_on_c, 0, 53, 0
3, 1534857, Note_on_c, 0, 68, 0
3, 1534857, Note_on_c, 0, 73, 0
3, 1534857, Note_on_c, 0, 80, 0
3, 1534857, Note_on_c, 0, 41, 0
3, 1535220, Note_on_c, 0, 69, 41
3, 1535220, Note_on_c, 0, 73, 40
3, 1535220, Note_on_c, 0, 79, 40
3, 1535220, Note_on_c, 0, 81, 41
3, 1535220, Note_on_c, 0, 40, 49
3, 1535220, Note_on_c, 0, 52, 47
3, 1535397, Note_on_c, 0, 52, 0
3, 1535397, Note_on_c, 0, 81, 0
3, 1535397, Note_on_c, 0, 69, 0
3, 1535397, Note_on_c, 0, 73, 0
3, 1535397, Note_on_c, 0, 79, 0
3, 1535397, Note_on_c, 0, 40, 0
3, 1535760, Note_on_c, 0, 69, 40
3, 1535760, Note_on_c, 0, 73, 42
3, 1535760, Note_on_c, 0, 78, 43
3, 1535760, Note_on_c, 0, 81, 42
3, 1535760, Note_on_c, 0, 39, 50
3, 1535760, Note_on_c, 0, 51, 50
3, 1535937, Note_on_c, 0, 51, 0
3, 1535937, Note_on_c, 0, 81, 0
3, 1535937, Note_on_c, 0, 69, 0
3, 1535937, Note_on_c, 0, 73, 0
3, 1535937, Note_on_c, 0, 78, 0
3, 1535937, Note_on_c, 0, 39, 0
3, 1536300, Note_on_c, 0, 68, 63
3, 1536300, Note_on_c, 0, 72, 62
3, 1536300, Note_on_c, 0, 77, 61
3, 1536300, Note_on_c, 0, 80, 60
3, 1536300, Note_on_c, 0, 38, 71
3, 1536300, Note_on_c, 0, 50, 70
3, 1537106, Note_on_c, 0, 50, 0
3, 1537106, Note_on_c, 0, 80, 0
3, 1537106, Note_on_c, 0, 68, 0
3, 1537106, Note_on_c, 0, 72, 0
3, 1537106, Note_on_c, 0, 77, 0
3, 1537106, Note_on_c, 0, 38, 0
3, 1537380, Note_on_c, 0, 67, 63
3, 1537380, Note_on_c, 0, 71, 66
3, 1537380, Note_on_c, 0, 77, 65
3, 1537380, Note_on_c, 0, 79, 67
3, 1537380, Note_on_c, 0, 43, 87
3, 1537380, Note_on_c, 0, 55, 88
3, 1537557, Note_on_c, 0, 79, 0
3, 1537557, Note_on_c, 0, 77, 0
3, 1537557, Note_on_c, 0, 71, 0
3, 1537557, Note_on_c, 0, 67, 0
3, 1537705, Note_on_c, 0, 43, 0
3, 1537705, Note_on_c, 0, 55, 0
3, 1537920, Note_on_c, 0, 72, 63
3, 1537920, Note_on_c, 0, 75, 63
3, 1537920, Note_on_c, 0, 84, 65
3, 1537920, Note_on_c, 0, 36, 72
3, 1537920, Note_on_c, 0, 48, 73
3, 1538245, Note_on_c, 0, 48, 0
3, 1538245, Note_on_c, 0, 72, 0
3, 1538245, Note_on_c, 0, 75, 0
3, 1538245, Note_on_c, 0, 84, 0
3, 1538245, Note_on_c, 0, 36, 0
3, 1538460, Note_on_c, 0, 79, 40
3, 1538460, Note_on_c, 0, 84, 37
3, 1538460, Note_on_c, 0, 87, 40
3, 1538460, Note_on_c, 0, 91, 41
3, 1538460, Note_on_c, 0, 55, 47
3, 1538460, Note_on_c, 0, 60, 50
3, 1538460, Note_on_c, 0, 63, 50
3, 1538460, Note_on_c, 0, 67, 49
3, 1538947, Note_on_c, 0, 67, 0
3, 1538947, Note_on_c, 0, 87, 0
3, 1538947, Note_on_c, 0, 63, 0
3, 1538947, Note_on_c, 0, 91, 0
3, 1538947, Note_on_c, 0, 79, 0
3, 1538947, Note_on_c, 0, 84, 0
3, 1538947, Note_on_c, 0, 60, 0
3, 1538947, Note_on_c, 0, 55, 0
3, 1539000, Note_on_c, 0, 80, 48
3, 1539000, Note_on_c, 0, 84, 48
3, 1539000, Note_on_c, 0, 89, 46
3, 1539000, Note_on_c, 0, 92, 47
3, 1539000, Note_on_c, 0, 56, 59
3, 1539000, Note_on_c, 0, 60, 59
3, 1539000, Note_on_c, 0, 65, 59
3, 1539000, Note_on_c, 0, 68, 57
3, 1539487, Note_on_c, 0, 68, 0
3, 1539487, Note_on_c, 0, 89, 0
3, 1539487, Note_on_c, 0, 65, 0
3, 1539487, Note_on_c, 0, 92, 0
3, 1539487, Note_on_c, 0, 80, 0
3, 1539487, Note_on_c, 0, 84, 0
3, 1539487, Note_on_c, 0, 60, 0
3, 1539487, Note_on_c, 0, 56, 0
3, 1539540, Note_on_c, 0, 82, 46
3, 1539540, Note_on_c, 0, 84, 45
3, 1539540, Note_on_c, 0, 91, 46
3, 1539540, Note_on_c, 0, 94, 46
3, 1539540, Note_on_c, 0, 58, 54
3, 1539540, Note_on_c, 0, 60, 56
3, 1539540, Note_on_c, 0, 67, 55
3, 1539540, Note_on_c, 0, 70, 57
3, 1540027, Note_on_c, 0, 70, 0
3, 1540027, Note_on_c, 0, 91, 0
3, 1540027, Note_on_c, 0, 67, 0
3, 1540027, Note_on_c, 0, 94, 0
3, 1540027, Note_on_c, 0, 82, 0
3, 1540027, Note_on_c, 0, 84, 0
3, 1540027, Note_on_c, 0, 60, 0
3, 1540027, Note_on_c, 0, 58, 0
3, 1540080, Note_on_c, 0, 79, 43
3, 1540080, Note_on_c, 0, 84, 43
3, 1540080, Note_on_c, 0, 87, 43
3, 1540080, Note_on_c, 0, 91, 43
3, 1540080, Note_on_c, 0, 55, 54
3, 1540080, Note_on_c, 0, 60, 52
3, 1540080, Note_on_c, 0, 63, 51
3, 1540080, Note_on_c, 0, 67, 51
3, 1540567, Note_on_c, 0, 67, 0
3, 1540567, Note_on_c, 0, 87, 0
3, 1540567, Note_on_c, 0, 63, 0
3, 1540567, Note_on_c, 0, 91, 0
3, 1540567, Note_on_c, 0, 79, 0
3, 1540567, Note_on_c, 0, 84, 0
3, 1540567, Note_on_c, 0, 60, 0
3, 1540567, Note_on_c, 0, 55, 0
3, 1540620, Note_on_c, 0, 75, 51
3, 1540620, Note_on_c, 0, 79, 49
3, 1540620, Note_on_c, 0, 84, 50
3, 1540620, Note_on_c, 0, 87, 48
3, 1540620, Note_on_c, 0, 51, 46
3, 1540620, Note_on_c, 0, 55, 46
3, 1540620, Note_on_c, 0, 60, 46
3, 1540620, Note_on_c, 0, 63, 47
3, 1541107, Note_on_c, 0, 63, 0
3, 1541107, Note_on_c, 0, 84, 0
3, 1541107, Note_on_c, 0, 60, 0
3, 1541107, Note_on_c, 0, 87, 0
3, 1541107, Note_on_c, 0, 75, 0
3, 1541107, Note_on_c, 0, 79, 0
3, 1541107, Note_on_c, 0, 55, 0
3, 1541107, Note_on_c, 0, 51, 0
3, 1541160, Note_on_c, 0, 72, 44
3, 1541160, Note_on_c, 0, 75, 42
3, 1541160, Note_on_c, 0, 79, 42
3, 1541160, Note_on_c, 0, 84, 43
3, 1541160, Note_on_c, 0, 48, 52
3, 1541160, Note_on_c, 0, 51, 52
3, 1541160, Note_on_c, 0, 55, 50
3, 1541160, Note_on_c, 0, 60, 52
3, 1541647, Note_on_c, 0, 60, 0
3, 1541647, Note_on_c, 0, 79, 0
3, 1541647, Note_on_c, 0, 55, 0
3, 1541647, Note_on_c, 0, 84, 0
3, 1541647, Note_on_c, 0, 72, 0
3, 1541647, Note_on_c, 0, 75, 0
3, 1541647, Note_on_c, 0, 51, 0
3, 1541647, Note_on_c, 0, 48, 0
3, 1541700, Note_on_c, 0, 68, 39
3, 1541700, Note_on_c, 0, 72, 38
3, 1541700, Note_on_c, 0, 75, 39
3, 1541700, Note_on_c, 0, 80, 40
3, 1541700, Note_on_c, 0, 44, 48
3, 1541700, Note_on_c, 0, 48, 48
3, 1541700, Note_on_c, 0, 51, 48
3, 1541700, Note_on_c, 0, 56, 46
3, 1542187, Note_on_c, 0, 56, 0
3, 1542187, Note_on_c, 0, 75, 0
3, 1542187, Note_on_c, 0, 51, 0
3, 1542187, Note_on_c, 0, 80, 0
3, 1542187, Note_on_c, 0, 68, 0
3, 1542187, Note_on_c, 0, 72, 0
3, 1542187, Note_on_c, 0, 48, 0
3, 1542187, Note_on_c, 0, 44, 0
3, 1542240, Note_on_c, 0, 67, 43
3, 1542240, Note_on_c, 0, 72, 45
3, 1542240, Note_on_c, 0, 75, 42
3, 1542240, Note_on_c, 0, 79, 44
3, 1542240, Note_on_c, 0, 24, 73
3, 1542240, Note_on_c, 0, 36, 74
3, 1542727, Note_on_c, 0, 79, 0
3, 1542727, Note_on_c, 0, 75, 0
3, 1542727, Note_on_c, 0, 72, 0
3, 1542727, Note_on_c, 0, 67, 0
3, 1542780, Note_on_c, 0, 67, 42
3, 1542780, Note_on_c, 0, 72, 44
3, 1542780, Note_on_c, 0, 75, 42
3, 1542780, Note_on_c, 0, 79, 43
3, 1542780, Note_on_c, 0, 43, 48
3, 1542780, Note_on_c, 0, 48, 47
3, 1542780, Note_on_c, 0, 51, 49
3, 1542780, Note_on_c, 0, 55, 48
3, 1543250, Note_on_c, 0, 24, 0
3, 1543250, Note_on_c, 0, 36, 0
3, 1543267, Note_on_c, 0, 67, 0
3, 1543267, Note_on_c, 0, 72, 0
3, 1543267, Note_on_c, 0, 55, 0
3, 1543267, Note_on_c, 0, 79, 0
3, 1543267, Note_on_c, 0, 75, 0
3, 1543267, Note_on_c, 0, 51, 0
3, 1543267, Note_on_c, 0, 43, 0
3, 1543267, Note_on_c, 0, 48, 0
3, 1543320, Note_on_c, 0, 68, 49
3, 1543320, Note_on_c, 0, 72, 48
3, 1543320, Note_on_c, 0, 77, 48
3, 1543320, Note_on_c, 0, 80, 48
3, 1543320, Note_on_c, 0, 44, 55
3, 1543320, Note_on_c, 0, 48, 55
3, 1543320, Note_on_c, 0, 53, 57
3, 1543320, Note_on_c, 0, 56, 57
3, 1543807, Note_on_c, 0, 56, 0
3, 1543807, Note_on_c, 0, 77, 0
3, 1543807, Note_on_c, 0, 53, 0
3, 1543807, Note_on_c, 0, 80, 0
3, 1543807, Note_on_c, 0, 68, 0
3, 1543807, Note_on_c, 0, 72, 0
3, 1543807, Note_on_c, 0, 48, 0
3, 1543807, Note_on_c, 0, 44, 0
3, 1543860, Note_on_c, 0, 70, 43
3, 1543860, Note_on_c, 0, 72, 47
3, 1543860, Note_on_c, 0, 79, 45
3, 1543860, Note_on_c, 0, 82, 43
3, 1543860, Note_on_c, 0, 46, 56
3, 1543860, Note_on_c, 0, 48, 56
3, 1543860, Note_on_c, 0, 55, 56
3, 1543860, Note_on_c, 0, 58, 56
3, 1544347, Note_on_c, 0, 58, 0
3, 1544347, Note_on_c, 0, 79, 0
3, 1544347, Note_on_c, 0, 55, 0
3, 1544347, Note_on_c, 0, 82, 0
3, 1544347, Note_on_c, 0, 70, 0
3, 1544347, Note_on_c, 0, 72, 0
3, 1544347, Note_on_c, 0, 48, 0
3, 1544347, Note_on_c, 0, 46, 0
3, 1544400, Note_on_c, 0, 67, 45
3, 1544400, Note_on_c, 0, 72, 45
3, 1544400, Note_on_c, 0, 75, 44
3, 1544400, Note_on_c, 0, 79, 43
3, 1544400, Note_on_c, 0, 43, 53
3, 1544400, Note_on_c, 0, 48, 53
3, 1544400, Note_on_c, 0, 51, 53
3, 1544400, Note_on_c, 0, 55, 52
3, 1544887, Note_on_c, 0, 55, 0
3, 1544887, Note_on_c, 0, 75, 0
3, 1544887, Note_on_c, 0, 51, 0
3, 1544887, Note_on_c, 0, 79, 0
3, 1544887, Note_on_c, 0, 67, 0
3, 1544887, Note_on_c, 0, 72, 0
3, 1544887, Note_on_c, 0, 48, 0
3, 1544887, Note_on_c, 0, 43, 0
3, 1544940, Note_on_c, 0, 63, 36
3, 1544940, Note_on_c, 0, 67, 39
3, 1544940, Note_on_c, 0, 72, 39
3, 1544940, Note_on_c, 0, 75, 38
3, 1544940, Note_on_c, 0, 43, 54
3, 1544940, Note_on_c, 0, 48, 51
3, 1544940, Note_on_c, 0, 51, 54
3, 1544940, Note_on_c, 0, 55, 50
3, 1545427, Note_on_c, 0, 55, 0
3, 1545427, Note_on_c, 0, 72, 0
3, 1545427, Note_on_c, 0, 51, 0
3, 1545427, Note_on_c, 0, 75, 0
3, 1545427, Note_on_c, 0, 63, 0
3, 1545427, Note_on_c, 0, 67, 0
3, 1545427, Note_on_c, 0, 48, 0
3, 1545427, Note_on_c, 0, 43, 0
3, 1545480, Note_on_c, 0, 60, 44
3, 1545480, Note_on_c, 0, 63, 40
3, 1545480, Note_on_c, 0, 67, 41
3, 1545480, Note_on_c, 0, 72, 44
3, 1545480, Note_on_c, 0, 43, 55
3, 1545480, Note_on_c, 0, 48, 55
3, 1545480, Note_on_c, 0, 51, 55
3, 1545480, Note_on_c, 0, 55, 56
3, 1545967, Note_on_c, 0, 55, 0
3, 1545967, Note_on_c, 0, 67, 0
3, 1545967, Note_on_c, 0, 51, 0
3, 1545967, Note_on_c, 0, 72, 0
3, 1545967, Note_on_c, 0, 60, 0
3, 1545967, Note_on_c, 0, 63, 0
3, 1545967, Note_on_c, 0, 48, 0
3, 1545967, Note_on_c, 0, 43, 0
3, 1546020, Note_on_c, 0, 56, 37
3, 1546020, Note_on_c, 0, 60, 39
3, 1546020, Note_on_c, 0, 63, 37
3, 1546020, Note_on_c, 0, 68, 40
3, 1546020, Note_on_c, 0, 44, 47
3, 1546020, Note_on_c, 0, 48, 45
3, 1546020, Note_on_c, 0, 51, 46
3, 1546507, Note_on_c, 0, 51, 0
3, 1546507, Note_on_c, 0, 48, 0
3, 1546507, Note_on_c, 0, 68, 0
3, 1546507, Note_on_c, 0, 56, 0
3, 1546507, Note_on_c, 0, 60, 0
3, 1546507, Note_on_c, 0, 63, 0
3, 1546507, Note_on_c, 0, 44, 0
3, 1546560, Note_on_c, 0, 55, 41
3, 1546560, Note_on_c, 0, 60, 42
3, 1546560, Note_on_c, 0, 63, 45
3, 1546560, Note_on_c, 0, 67, 45
3, 1546560, Note_on_c, 0, 24, 81
3, 1546560, Note_on_c, 0, 36, 81
3, 1547047, Note_on_c, 0, 67, 0
3, 1547047, Note_on_c, 0, 63, 0
3, 1547047, Note_on_c, 0, 60, 0
3, 1547047, Note_on_c, 0, 55, 0
3, 1547100, Note_on_c, 0, 55, 42
3, 1547100, Note_on_c, 0, 60, 44
3, 1547100, Note_on_c, 0, 63, 43
3, 1547100, Note_on_c, 0, 67, 41
3, 1547100, Note_on_c, 0, 43, 47
3, 1547100, Note_on_c, 0, 48, 47
3, 1547100, Note_on_c, 0, 51, 50
3, 1547570, Note_on_c, 0, 24, 0
3, 1547570, Note_on_c, 0, 36, 0
3, 1547587, Note_on_c, 0, 60, 0
3, 1547587, Note_on_c, 0, 51, 0
3, 1547587, Note_on_c, 0, 67, 0
3, 1547587, Note_on_c, 0, 63, 0
3, 1547587, Note_on_c, 0, 48, 0
3, 1547587, Note_on_c, 0, 43, 0
3, 1547587, Note_on_c, 0, 55, 0
3, 1547640, Note_on_c, 0, 56, 48
3, 1547640, Note_on_c, 0, 60, 47
3, 1547640, Note_on_c, 0, 63, 48
3, 1547640, Note_on_c, 0, 68, 48
3, 1547640, Note_on_c, 0, 32, 64
3, 1547640, Note_on_c, 0, 44, 64
3, 1548127, Note_on_c, 0, 44, 0
3, 1548127, Note_on_c, 0, 68, 0
3, 1548127, Note_on_c, 0, 56, 0
3, 1548127, Note_on_c, 0, 60, 0
3, 1548127, Note_on_c, 0, 63, 0
3, 1548127, Note_on_c, 0, 32, 0
3, 1548180, Note_on_c, 0, 58, 45
3, 1548180, Note_on_c, 0, 60, 43
3, 1548180, Note_on_c, 0, 63, 46
3, 1548180, Note_on_c, 0, 70, 47
3, 1548180, Note_on_c, 0, 31, 73
3, 1548180, Note_on_c, 0, 43, 71
3, 1548667, Note_on_c, 0, 43, 0
3, 1548667, Note_on_c, 0, 70, 0
3, 1548667, Note_on_c, 0, 58, 0
3, 1548667, Note_on_c, 0, 60, 0
3, 1548667, Note_on_c, 0, 63, 0
3, 1548667, Note_on_c, 0, 31, 0
3, 1548720, Note_on_c, 0, 55, 41
3, 1548720, Note_on_c, 0, 60, 43
3, 1548720, Note_on_c, 0, 63, 44
3, 1548720, Note_on_c, 0, 67, 43
3, 1548720, Note_on_c, 0, 24, 80
3, 1548720, Note_on_c, 0, 36, 80
3, 1549207, Note_on_c, 0, 67, 0
3, 1549207, Note_on_c, 0, 63, 0
3, 1549207, Note_on_c, 0, 60, 0
3, 1549207, Note_on_c, 0, 55, 0
3, 1549260, Note_on_c, 0, 55, 42
3, 1549260, Note_on_c, 0, 60, 41
3, 1549260, Note_on_c, 0, 63, 41
3, 1549260, Note_on_c, 0, 67, 41
3, 1549260, Note_on_c, 0, 43, 48
3, 1549260, Note_on_c, 0, 48, 49
3, 1549260, Note_on_c, 0, 51, 49
3, 1549730, Note_on_c, 0, 24, 0
3, 1549730, Note_on_c, 0, 36, 0
3, 1549747, Note_on_c, 0, 60, 0
3, 1549747, Note_on_c, 0, 51, 0
3, 1549747, Note_on_c, 0, 67, 0
3, 1549747, Note_on_c, 0, 63, 0
3, 1549747, Note_on_c, 0, 48, 0
3, 1549747, Note_on_c, 0, 43, 0
3, 1549747, Note_on_c, 0, 55, 0
3, 1549800, Note_on_c, 0, 56, 47
3, 1549800, Note_on_c, 0, 60, 45
3, 1549800, Note_on_c, 0, 63, 47
3, 1549800, Note_on_c, 0, 68, 47
3, 1549800, Note_on_c, 0, 32, 67
3, 1549800, Note_on_c, 0, 44, 64
3, 1550287, Note_on_c, 0, 44, 0
3, 1550287, Note_on_c, 0, 68, 0
3, 1550287, Note_on_c, 0, 56, 0
3, 1550287, Note_on_c, 0, 60, 0
3, 1550287, Note_on_c, 0, 63, 0
3, 1550287, Note_on_c, 0, 32, 0
3, 1550340, Note_on_c, 0, 58, 45
3, 1550340, Note_on_c, 0, 60, 44
3, 1550340, Note_on_c, 0, 63, 46
3, 1550340, Note_on_c, 0, 70, 46
3, 1550340, Note_on_c, 0, 31, 73
3, 1550340, Note_on_c, 0, 43, 72
3, 1550827, Note_on_c, 0, 43, 0
3, 1550827, Note_on_c, 0, 70, 0
3, 1550827, Note_on_c, 0, 58, 0
3, 1550827, Note_on_c, 0, 60, 0
3, 1550827, Note_on_c, 0, 63, 0
3, 1550827, Note_on_c, 0, 31, 0
3, 1550880, Note_on_c, 0, 55, 44
3, 1550880, Note_on_c, 0, 60, 44
3, 1550880, Note_on_c, 0, 63, 44
3, 1550880, Note_on_c, 0, 67, 43
3, 1550880, Note_on_c, 0, 24, 68
3, 1550880, Note_on_c, 0, 36, 67
3, 1551367, Note_on_c, 0, 36, 0
3, 1551367, Note_on_c, 0, 67, 0
3, 1551367, Note_on_c, 0, 55, 0
3, 1551367, Note_on_c, 0, 60, 0
3, 1551367, Note_on_c, 0, 63, 0
3, 1551367, Note_on_c, 0, 24, 0
3, 1551420, Note_on_c, 0, 56, 45
3, 1551420, Note_on_c, 0, 60, 43
3, 1551420, Note_on_c, 0, 63, 42
3, 1551420, Note_on_c, 0, 68, 44
3, 1551420, Note_on_c, 0, 29, 85
3, 1551420, Note_on_c, 0, 41, 83
3, 1551907, Note_on_c, 0, 41, 0
3, 1551907, Note_on_c, 0, 68, 0
3, 1551907, Note_on_c, 0, 56, 0
3, 1551907, Note_on_c, 0, 60, 0
3, 1551907, Note_on_c, 0, 63, 0
3, 1551907, Note_on_c, 0, 29, 0
3, 1551960, Note_on_c, 0, 55, 46
3, 1551960, Note_on_c, 0, 60, 43
3, 1551960, Note_on_c, 0, 63, 43
3, 1551960, Note_on_c, 0, 67, 43
3, 1551960, Note_on_c, 0, 24, 71
3, 1551960, Note_on_c, 0, 36, 71
3, 1552447, Note_on_c, 0, 36, 0
3, 1552447, Note_on_c, 0, 67, 0
3, 1552447, Note_on_c, 0, 55, 0
3, 1552447, Note_on_c, 0, 60, 0
3, 1552447, Note_on_c, 0, 63, 0
3, 1552447, Note_on_c, 0, 24, 0
3, 1552500, Note_on_c, 0, 56, 45
3, 1552500, Note_on_c, 0, 60, 44
3, 1552500, Note_on_c, 0, 63, 44
3, 1552500, Note_on_c, 0, 68, 45
3, 1552500, Note_on_c, 0, 27, 84
3, 1552500, Note_on_c, 0, 39, 82
3, 1552987, Note_on_c, 0, 39, 0
3, 1552987, Note_on_c, 0, 68, 0
3, 1552987, Note_on_c, 0, 56, 0
3, 1552987, Note_on_c, 0, 60, 0
3, 1552987, Note_on_c, 0, 63, 0
3, 1552987, Note_on_c, 0, 27, 0
3, 1553040, Note_on_c, 0, 55, 46
3, 1553040, Note_on_c, 0, 60, 45
3, 1553040, Note_on_c, 0, 63, 43
3, 1553040, Note_on_c, 0, 67, 43
3, 1553040, Note_on_c, 0, 24, 74
3, 1553040, Note_on_c, 0, 36, 75
3, 1553527, Note_on_c, 0, 36, 0
3, 1553527, Note_on_c, 0, 67, 0
3, 1553527, Note_on_c, 0, 55, 0
3, 1553527, Note_on_c, 0, 60, 0
3, 1553527, Note_on_c, 0, 63, 0
3, 1553527, Note_on_c, 0, 24, 0
3, 1553580, Note_on_c, 0, 56, 43
3, 1553580, Note_on_c, 0, 60, 42
3, 1553580, Note_on_c, 0, 63, 46
3, 1553580, Note_on_c, 0, 68, 45
3, 1553580, Note_on_c, 0, 29, 87
3, 1553580, Note_on_c, 0, 41, 86
3, 1554067, Note_on_c, 0, 41, 0
3, 1554067, Note_on_c, 0, 68, 0
3, 1554067, Note_on_c, 0, 56, 0
3, 1554067, Note_on_c, 0, 60, 0
3, 1554067, Note_on_c, 0, 63, 0
3, 1554067, Note_on_c, 0, 29, 0
3, 1554120, Note_on_c, 0, 55, 45
3, 1554120, Note_on_c, 0, 60, 44
3, 1554120, Note_on_c, 0, 63, 43
3, 1554120, Note_on_c, 0, 67, 44
3, 1554120, Note_on_c, 0, 24, 72
3, 1554120, Note_on_c, 0, 36, 73
3, 1554607, Note_on_c, 0, 36, 0
3, 1554607, Note_on_c, 0, 67, 0
3, 1554607, Note_on_c, 0, 55, 0
3, 1554607, Note_on_c, 0, 60, 0
3, 1554607, Note_on_c, 0, 63, 0
3, 1554607, Note_on_c, 0, 24, 0
3, 1554660, Note_on_c, 0, 56, 46
3, 1554660, Note_on_c, 0, 60, 43
3, 1554660, Note_on_c, 0, 63, 45
3, 1554660, Note_on_c, 0, 68, 44
3, 1554660, Note_on_c, 0, 27, 84
3, 1554660, Note_on_c, 0, 39, 82
3, 1555147, Note_on_c, 0, 39, 0
3, 1555147, Note_on_c, 0, 68, 0
3, 1555147, Note_on_c, 0, 56, 0
3, 1555147, Note_on_c, 0, 60, 0
3, 1555147, Note_on_c, 0, 63, 0
3, 1555147, Note_on_c, 0, 27, 0
3, 1555200, Note_on_c, 0, 55, 44
3, 1555200, Note_on_c, 0, 60, 44
3, 1555200, Note_on_c, 0, 63, 43
3, 1555200, Note_on_c, 0, 67, 45
3, 1555200, Note_on_c, 0, 24, 53
3, 1555200, Note_on_c, 0, 36, 52
3, 1555363, Note_on_c, 0, 36, 0
3, 1555363, Note_on_c, 0, 67, 0
3, 1555363, Note_on_c, 0, 55, 0
3, 1555363, Note_on_c, 0, 60, 0
3, 1555363, Note_on_c, 0, 63, 0
3, 1555363, Note_on_c, 0, 24, 0
3, 1555740, Note_on_c, 0, 63, 43
3, 1555740, Note_on_c, 0, 67, 44
3, 1555740, Note_on_c, 0, 72, 40
3, 1555740, Note_on_c, 0, 75, 44
3, 1555740, Note_on_c, 0, 36, 50
3, 1555740, Note_on_c, 0, 39, 51
3, 1555740, Note_on_c, 0, 43, 51
3, 1555740, Note_on_c, 0, 48, 49
3, 1555983, Note_on_c, 0, 48, 0
3, 1555983, Note_on_c, 0, 72, 0
3, 1555983, Note_on_c, 0, 43, 0
3, 1555983, Note_on_c, 0, 75, 0
3, 1555983, Note_on_c, 0, 63, 0
3, 1555983, Note_on_c, 0, 67, 0
3, 1555983, Note_on_c, 0, 39, 0
3, 1555983, Note_on_c, 0, 36, 0
3, 1556010, Note_on_c, 0, 63, 40
3, 1556010, Note_on_c, 0, 67, 43
3, 1556010, Note_on_c, 0, 72, 41
3, 1556010, Note_on_c, 0, 75, 43
3, 1556010, Note_on_c, 0, 36, 54
3, 1556010, Note_on_c, 0, 39, 52
3, 1556010, Note_on_c, 0, 43, 50
3, 1556010, Note_on_c, 0, 48, 53
3, 1556253, Note_on_c, 0, 48, 0
3, 1556253, Note_on_c, 0, 72, 0
3, 1556253, Note_on_c, 0, 43, 0
3, 1556253, Note_on_c, 0, 75, 0
3, 1556253, Note_on_c, 0, 63, 0
3, 1556253, Note_on_c, 0, 67, 0
3, 1556253, Note_on_c, 0, 39, 0
3, 1556253, Note_on_c, 0, 36, 0
3, 1556280, Note_on_c, 0, 63, 48
3, 1556280, Note_on_c, 0, 67, 45
3, 1556280, Note_on_c, 0, 72, 45
3, 1556280, Note_on_c, 0, 75, 47
3, 1556280, Note_on_c, 0, 36, 57
3, 1556280, Note_on_c, 0, 39, 57
3, 1556280, Note_on_c, 0, 43, 55
3, 1556280, Note_on_c, 0, 48, 57
3, 1556767, Note_on_c, 0, 48, 0
3, 1556767, Note_on_c, 0, 72, 0
3, 1556767, Note_on_c, 0, 43, 0
3, 1556767, Note_on_c, 0, 75, 0
3, 1556767, Note_on_c, 0, 63, 0
3, 1556767, Note_on_c, 0, 67, 0
3, 1556767, Note_on_c, 0, 39, 0
3, 1556767, Note_on_c, 0, 36, 0
3, 1556820, Note_on_c, 0, 63, 48
3, 1556820, Note_on_c, 0, 67, 46
3, 1556820, Note_on_c, 0, 72, 45
3, 1556820, Note_on_c, 0, 75, 47
3, 1556820, Note_on_c, 0, 36, 56
3, 1556820, Note_on_c, 0, 39, 58
3, 1556820, Note_on_c, 0, 43, 57
3, 1556820, Note_on_c, 0, 48, 55
3, 1557063, Note_on_c, 0, 48, 0
3, 1557063, Note_on_c, 0, 72, 0
3, 1557063, Note_on_c, 0, 43, 0
3, 1557063, Note_on_c, 0, 75, 0
3, 1557063, Note_on_c, 0, 63, 0
3, 1557063, Note_on_c, 0, 67, 0
3, 1557063, Note_on_c, 0, 39, 0
3, 1557063, Note_on_c, 0, 36, 0
3, 1557090, Note_on_c, 0, 63, 42
3, 1557090, Note_on_c, 0, 67, 41
3, 1557090, Note_on_c, 0, 72, 43
3, 1557090, Note_on_c, 0, 75, 44
3, 1557090, Note_on_c, 0, 36, 55
3, 1557090, Note_on_c, 0, 39, 54
3, 1557090, Note_on_c, 0, 43, 53
3, 1557090, Note_on_c, 0, 48, 54
3, 1557333, Note_on_c, 0, 48, 0
3, 1557333, Note_on_c, 0, 72, 0
3, 1557333, Note_on_c, 0, 43, 0
3, 1557333, Note_on_c, 0, 75, 0
3, 1557333, Note_on_c, 0, 63, 0
3, 1557333, Note_on_c, 0, 67, 0
3, 1557333, Note_on_c, 0, 39, 0
3, 1557333, Note_on_c, 0, 36, 0
3, 1557360, Note_on_c, 0, 63, 47
3, 1557360, Note_on_c, 0, 67, 47
3, 1557360, Note_on_c, 0, 72, 46
3, 1557360, Note_on_c, 0, 75, 45
3, 1557360, Note_on_c, 0, 36, 55
3, 1557360, Note_on_c, 0, 39, 56
3, 1557360, Note_on_c, 0, 43, 58
3, 1557360, Note_on_c, 0, 48, 54
3, 1557847, Note_on_c, 0, 48, 0
3, 1557847, Note_on_c, 0, 72, 0
3, 1557847, Note_on_c, 0, 43, 0
3, 1557847, Note_on_c, 0, 75, 0
3, 1557847, Note_on_c, 0, 63, 0
3, 1557847, Note_on_c, 0, 67, 0
3, 1557847, Note_on_c, 0, 39, 0
3, 1557847, Note_on_c, 0, 36, 0
3, 1557900, Note_on_c, 0, 63, 45
3, 1557900, Note_on_c, 0, 67, 46
3, 1557900, Note_on_c, 0, 72, 48
3, 1557900, Note_on_c, 0, 75, 47
3, 1557900, Note_on_c, 0, 36, 55
3, 1557900, Note_on_c, 0, 39, 57
3, 1557900, Note_on_c, 0, 43, 57
3, 1557900, Note_on_c, 0, 48, 55
3, 1558143, Note_on_c, 0, 48, 0
3, 1558143, Note_on_c, 0, 72, 0
3, 1558143, Note_on_c, 0, 43, 0
3, 1558143, Note_on_c, 0, 75, 0
3, 1558143, Note_on_c, 0, 63, 0
3, 1558143, Note_on_c, 0, 67, 0
3, 1558143, Note_on_c, 0, 39, 0
3, 1558143, Note_on_c, 0, 36, 0
3, 1558170, Note_on_c, 0, 63, 41
3, 1558170, Note_on_c, 0, 67, 44
3, 1558170, Note_on_c, 0, 72, 43
3, 1558170, Note_on_c, 0, 75, 42
3, 1558170, Note_on_c, 0, 36, 52
3, 1558170, Note_on_c, 0, 39, 55
3, 1558170, Note_on_c, 0, 43, 53
3, 1558170, Note_on_c, 0, 48, 51
3, 1558413, Note_on_c, 0, 48, 0
3, 1558413, Note_on_c, 0, 72, 0
3, 1558413, Note_on_c, 0, 43, 0
3, 1558413, Note_on_c, 0, 75, 0
3, 1558413, Note_on_c, 0, 63, 0
3, 1558413, Note_on_c, 0, 67, 0
3, 1558413, Note_on_c, 0, 39, 0
3, 1558413, Note_on_c, 0, 36, 0
3, 1558440, Note_on_c, 0, 63, 46
3, 1558440, Note_on_c, 0, 67, 44
3, 1558440, Note_on_c, 0, 72, 47
3, 1558440, Note_on_c, 0, 75, 45
3, 1558440, Note_on_c, 0, 36, 57
3, 1558440, Note_on_c, 0, 39, 58
3, 1558440, Note_on_c, 0, 43, 57
3, 1558440, Note_on_c, 0, 48, 58
3, 1558683, Note_on_c, 0, 48, 0
3, 1558683, Note_on_c, 0, 72, 0
3, 1558683, Note_on_c, 0, 43, 0
3, 1558683, Note_on_c, 0, 75, 0
3, 1558683, Note_on_c, 0, 63, 0
3, 1558683, Note_on_c, 0, 67, 0
3, 1558683, Note_on_c, 0, 39, 0
3, 1558683, Note_on_c, 0, 36, 0
3, 1558710, Note_on_c, 0, 63, 42
3, 1558710, Note_on_c, 0, 67, 41
3, 1558710, Note_on_c, 0, 72, 42
3, 1558710, Note_on_c, 0, 75, 43
3, 1558710, Note_on_c, 0, 36, 53
3, 1558710, Note_on_c, 0, 39, 52
3, 1558710, Note_on_c, 0, 43, 52
3, 1558710, Note_on_c, 0, 48, 53
3, 1558953, Note_on_c, 0, 48, 0
3, 1558953, Note_on_c, 0, 72, 0
3, 1558953, Note_on_c, 0, 43, 0
3, 1558953, Note_on_c, 0, 75, 0
3, 1558953, Note_on_c, 0, 63, 0
3, 1558953, Note_on_c, 0, 67, 0
3, 1558953, Note_on_c, 0, 39, 0
3, 1558953, Note_on_c, 0, 36, 0
3, 1558980, Note_on_c, 0, 63, 46
3, 1558980, Note_on_c, 0, 67, 45
3, 1558980, Note_on_c, 0, 72, 46
3, 1558980, Note_on_c, 0, 75, 45
3, 1558980, Note_on_c, 0, 36, 57
3, 1558980, Note_on_c, 0, 39, 56
3, 1558980, Note_on_c, 0, 43, 55
3, 1558980, Note_on_c, 0, 48, 58
3, 1559223, Note_on_c, 0, 48, 0
3, 1559223, Note_on_c, 0, 72, 0
3, 1559223, Note_on_c, 0, 43, 0
3, 1559223, Note_on_c, 0, 75, 0
3, 1559223, Note_on_c, 0, 63, 0
3, 1559223, Note_on_c, 0, 67, 0
3, 1559223, Note_on_c, 0, 39, 0
3, 1559223, Note_on_c, 0, 36, 0
3, 1559250, Note_on_c, 0, 63, 42
3, 1559250, Note_on_c, 0, 67, 41
3, 1559250, Note_on_c, 0, 72, 41
3, 1559250, Note_on_c, 0, 75, 43
3, 1559250, Note_on_c, 0, 36, 51
3, 1559250, Note_on_c, 0, 39, 51
3, 1559250, Note_on_c, 0, 43, 54
3, 1559250, Note_on_c, 0, 48, 54
3, 1559493, Note_on_c, 0, 48, 0
3, 1559493, Note_on_c, 0, 72, 0
3, 1559493, Note_on_c, 0, 43, 0
3, 1559493, Note_on_c, 0, 75, 0
3, 1559493, Note_on_c, 0, 63, 0
3, 1559493, Note_on_c, 0, 67, 0
3, 1559493, Note_on_c, 0, 39, 0
3, 1559493, Note_on_c, 0, 36, 0
3, 1559520, Note_on_c, 0, 63, 47
3, 1559520, Note_on_c, 0, 67, 46
3, 1559520, Note_on_c, 0, 72, 46
3, 1559520, Note_on_c, 0, 75, 47
3, 1559520, Note_on_c, 0, 36, 58
3, 1559520, Note_on_c, 0, 39, 56
3, 1559520, Note_on_c, 0, 43, 55
3, 1559520, Note_on_c, 0, 48, 58
3, 1560007, Note_on_c, 0, 48, 0
3, 1560007, Note_on_c, 0, 72, 0
3, 1560007, Note_on_c, 0, 43, 0
3, 1560007, Note_on_c, 0, 75, 0
3, 1560007, Note_on_c, 0, 63, 0
3, 1560007, Note_on_c, 0, 67, 0
3, 1560007, Note_on_c, 0, 39, 0
3, 1560007, Note_on_c, 0, 36, 0
3, 1560600, Note_on_c, 0, 55, 64
3, 1560600, Note_on_c, 0, 67, 63
3, 1560600, Note_on_c, 0, 31, 72
3, 1560600, Note_on_c, 0, 43, 71
3, 1561087, Note_on_c, 0, 43, 0
3, 1561087, Note_on_c, 0, 67, 0
3, 1561087, Note_on_c, 0, 31, 0
3, 1561087, Note_on_c, 0, 55, 0
3, 1561140, Note_on_c, 0, 55, 69
3, 1561140, Note_on_c, 0, 67, 65
3, 1561140, Note_on_c, 0, 31, 76
3, 1561140, Note_on_c, 0, 43, 75
3, 1561627, Note_on_c, 0, 43, 0
3, 1561627, Note_on_c, 0, 67, 0
3, 1561627, Note_on_c, 0, 31, 0
3, 1561627, Note_on_c, 0, 55, 0
3, 1561680, Note_on_c, 0, 48, 60
3, 1561680, Note_on_c, 0, 60, 60
3, 1561680, Note_on_c, 0, 24, 69
3, 1561680, Note_on_c, 0, 36, 67
3, 1563770, Note_on_c, 0, 36, 0
3, 1563770, Note_on_c, 0, 60, 0
3, 1563770, Note_on_c, 0, 24, 0
3, 1563770, Note_on_c, 0, 48, 0
3, 1563771, Note_on_c, 0, 47, 0
3, 1563771, End_track
0, 0, End_of_file
