0, 0, Header, 1, 9, 480
1, 0, Start_track
1, 0, Title_t, "Barcarolle, Op.11 #1"
1, 0, Copyright_t, "Copyright 2002, Nathan Leopold"
1, 0, Text_t, "Rachmoninov\012"
1, 0, Text_t, "email: ardourpianist@hotmail.com\012"
1, 0, Text_t, "website: http://www25.brinkster.com/fliszt15\012"
1, 0, Time_signature, 4, 2, 24, 8
1, 0, Key_signature, -2, "major"
1, 0, Tempo, 666667
1, 28785, Tempo, 659341
1, 29068, Tempo, 664820
1, 29330, Tempo, 670391
1, 29592, Tempo, 676056
1, 29854, Tempo, 681818
1, 30116, Tempo, 687679
1, 30399, Tempo, 693642
1, 30661, Tempo, 699708
1, 30923, Tempo, 705882
1, 31185, Tempo, 712166
1, 31381, Tempo, 712166
1, 31621, Tempo, 718563
1, 31861, Tempo, 725076
1, 32101, Tempo, 731707
1, 32341, Tempo, 738462
1, 32581, Tempo, 745342
1, 32821, Tempo, 752351
1, 33061, Tempo, 759494
1, 33301, Tempo, 766773
1, 33672, Tempo, 766773
1, 34501, Tempo, 774194
1, 34545, Tempo, 670391
1, 92180, Tempo, 672194
1, 92260, Tempo, 665188
1, 92340, Tempo, 658328
1, 92400, Tempo, 651112
1, 99800, Tempo, 647738
1, 100440, Tempo, 644399
1, 101040, Tempo, 641094
1, 101640, Tempo, 637823
1, 101800, Tempo, 634585
1, 102400, Tempo, 637823
1, 103000, Tempo, 641094
1, 103600, Tempo, 644399
1, 104200, Tempo, 647738
1, 104800, Tempo, 651112
1, 105360, Tempo, 654522
1, 105560, Tempo, 661449
1, 110440, Tempo, 657967
1, 111600, Tempo, 654522
1, 112760, Tempo, 651112
1, 113920, Tempo, 647738
1, 115080, Tempo, 644399
1, 117440, Tempo, 634585
1, 120320, Tempo, 637823
1, 123160, Tempo, 641094
1, 130200, Tempo, 619963
1, 130240, Tempo, 631380
1, 131800, Tempo, 634585
1, 132080, Tempo, 638570
1, 132700, Tempo, 645023
1, 133320, Tempo, 651607
1, 133940, Tempo, 658328
1, 136300, Tempo, 651607
1, 136520, Tempo, 658328
1, 136720, Tempo, 665188
1, 136920, Tempo, 672194
1, 137060, Tempo, 651607
1, 138040, Tempo, 658328
1, 152200, Tempo, 658328
1, 152300, Tempo, 665188
1, 152380, Tempo, 672194
1, 155500, Tempo, 665188
1, 155600, Tempo, 672194
1, 155700, Tempo, 679348
1, 155800, Tempo, 686656
1, 157440, Tempo, 686656
1, 157460, Tempo, 788436
1, 157480, Tempo, 925640
1, 157500, Tempo, 967742
1, 157520, Tempo, 808407
1, 157540, Tempo, 701754
1, 157560, Tempo, 1775148
1, 157580, Tempo, 694123
1, 157680, Tempo, 701754
1, 157780, Tempo, 709555
1, 157800, Tempo, 709555
1, 165080, Tempo, 702329
1, 165120, Tempo, 698405
1, 165160, Tempo, 694525
1, 165200, Tempo, 690687
1, 165240, Tempo, 686892
1, 172120, Tempo, 690687
1, 172200, Tempo, 694525
1, 172280, Tempo, 698405
1, 172360, Tempo, 710311
1, 172480, Tempo, 706298
1, 172600, Tempo, 702329
1, 172720, Tempo, 698405
1, 176840, Tempo, 690687
1, 177160, Tempo, 686892
1, 177480, Tempo, 683138
1, 178560, Tempo, 683138
1, 178840, Tempo, 679425
1, 179080, Tempo, 675752
1, 179320, Tempo, 672118
1, 195680, Tempo, 668524
1, 196160, Tempo, 672118
1, 196600, Tempo, 675752
1, 197040, Tempo, 679425
1, 197480, Tempo, 683138
1, 197920, Tempo, 686892
1, 198400, Tempo, 690687
1, 198840, Tempo, 694525
1, 199280, Tempo, 698405
1, 199720, Tempo, 702329
1, 200160, Tempo, 706298
1, 200200, Tempo, 702329
1, 200360, Tempo, 706298
1, 200480, Tempo, 710311
1, 200600, Tempo, 714371
1, 200760, Tempo, 718477
1, 200880, Tempo, 722630
1, 201040, Tempo, 726832
1, 201160, Tempo, 731083
1, 201280, Tempo, 735384
1, 201720, Tempo, 739736
1, 201760, Tempo, 753107
1, 201800, Tempo, 766969
1, 201840, Tempo, 781352
1, 201880, Tempo, 801389
1, 201920, Tempo, 817105
1, 201960, Tempo, 833449
1, 202000, Tempo, 856287
1, 202040, Tempo, 874253
1, 202080, Tempo, 892990
1, 202120, Tempo, 919258
1, 202160, Tempo, 939997
1, 202200, Tempo, 961693
1, 202240, Tempo, 984413
1, 202280, Tempo, 1016432
1, 202320, Tempo, 1041848
1, 202360, Tempo, 1068566
1, 202400, Tempo, 1106399
1, 202440, Tempo, 1136579
1, 202480, Tempo, 1168452
1, 202520, Tempo, 1213838
1, 202520, End_track
2, 0, Start_track
2, 0, Title_t, "1 Piano RH"
2, 0, Program_c, 0, 0
2, 0, Control_c, 0, 7, 105
2, 0, Control_c, 0, 10, 73
2, 15840, Note_on_c, 0, 79, 80
2, 16560, Note_on_c, 0, 79, 0
2, 16560, Note_on_c, 0, 78, 77
2, 17040, Note_on_c, 0, 78, 0
2, 17040, Note_on_c, 0, 75, 75
2, 17280, Note_on_c, 0, 75, 0
2, 17280, Note_on_c, 0, 70, 74
2, 17760, Note_on_c, 0, 70, 0
2, 17760, Note_on_c, 0, 79, 78
2, 18480, Note_on_c, 0, 79, 0
2, 18480, Note_on_c, 0, 78, 75
2, 18720, Note_on_c, 0, 78, 0
2, 18720, Note_on_c, 0, 75, 74
2, 18960, Note_on_c, 0, 75, 0
2, 18960, Note_on_c, 0, 72, 73
2, 19200, Note_on_c, 0, 72, 0
2, 19200, Note_on_c, 0, 70, 72
2, 19680, Note_on_c, 0, 70, 0
2, 19680, Note_on_c, 0, 82, 82
2, 20400, Note_on_c, 0, 82, 0
2, 20400, Note_on_c, 0, 78, 79
2, 20640, Note_on_c, 0, 78, 0
2, 20640, Note_on_c, 0, 75, 78
2, 20880, Note_on_c, 0, 75, 0
2, 20880, Note_on_c, 0, 72, 77
2, 21120, Note_on_c, 0, 72, 0
2, 21120, Note_on_c, 0, 70, 75
2, 21600, Note_on_c, 0, 70, 0
2, 21600, Note_on_c, 0, 82, 84
2, 22239, Note_on_c, 0, 82, 0
2, 22239, Note_on_c, 0, 79, 81
2, 22400, Note_on_c, 0, 78, 81
2, 22408, Note_on_c, 0, 79, 0
2, 22560, Note_on_c, 0, 75, 80
2, 22567, Note_on_c, 0, 78, 0
2, 22719, Note_on_c, 0, 74, 79
2, 22727, Note_on_c, 0, 75, 0
2, 22880, Note_on_c, 0, 72, 78
2, 22888, Note_on_c, 0, 74, 0
2, 23040, Note_on_c, 0, 70, 77
2, 23047, Note_on_c, 0, 72, 0
2, 23520, Note_on_c, 0, 70, 0
2, 23520, Note_on_c, 0, 86, 86
2, 24240, Note_on_c, 0, 86, 0
2, 24240, Note_on_c, 0, 82, 83
2, 24480, Note_on_c, 0, 82, 0
2, 24480, Note_on_c, 0, 78, 82
2, 24639, Note_on_c, 0, 78, 0
2, 24639, Note_on_c, 0, 75, 81
2, 24800, Note_on_c, 0, 75, 0
2, 24800, Note_on_c, 0, 74, 80
2, 24960, Note_on_c, 0, 74, 0
2, 24960, Note_on_c, 0, 74, 79
2, 25440, Note_on_c, 0, 74, 0
2, 25440, Note_on_c, 0, 86, 87
2, 26079, Note_on_c, 0, 86, 0
2, 26079, Note_on_c, 0, 82, 85
2, 26240, Note_on_c, 0, 82, 0
2, 26240, Note_on_c, 0, 78, 84
2, 26400, Note_on_c, 0, 78, 0
2, 26400, Note_on_c, 0, 78, 83
2, 26559, Note_on_c, 0, 78, 0
2, 26559, Note_on_c, 0, 75, 83
2, 26720, Note_on_c, 0, 75, 0
2, 26720, Note_on_c, 0, 74, 82
2, 26880, Note_on_c, 0, 74, 0
2, 26880, Note_on_c, 0, 74, 81
2, 27360, Note_on_c, 0, 74, 0
2, 27360, Note_on_c, 0, 82, 81
2, 28080, Note_on_c, 0, 82, 0
2, 28080, Note_on_c, 0, 81, 79
2, 28560, Note_on_c, 0, 81, 0
2, 28560, Note_on_c, 0, 75, 79
2, 28800, Note_on_c, 0, 75, 0
2, 28800, Note_on_c, 0, 70, 74
2, 29280, Note_on_c, 0, 70, 0
2, 29280, Note_on_c, 0, 79, 79
2, 30000, Note_on_c, 0, 79, 0
2, 30000, Note_on_c, 0, 77, 77
2, 30240, Note_on_c, 0, 77, 0
2, 30240, Note_on_c, 0, 72, 77
2, 30480, Note_on_c, 0, 72, 0
2, 30480, Note_on_c, 0, 69, 76
2, 30720, Note_on_c, 0, 69, 0
2, 30720, Note_on_c, 0, 67, 75
2, 31200, Note_on_c, 0, 67, 0
2, 31200, Note_on_c, 0, 75, 78
2, 31920, Note_on_c, 0, 75, 0
2, 31920, Note_on_c, 0, 74, 75
2, 32400, Note_on_c, 0, 74, 0
2, 32400, Note_on_c, 0, 69, 73
2, 32640, Note_on_c, 0, 69, 0
2, 32640, Note_on_c, 0, 63, 72
2, 33120, Note_on_c, 0, 63, 0
2, 33120, Note_on_c, 0, 72, 75
2, 33840, Note_on_c, 0, 72, 0
2, 33840, Note_on_c, 0, 70, 72
2, 34080, Note_on_c, 0, 70, 0
2, 34080, Note_on_c, 0, 66, 71
2, 34320, Note_on_c, 0, 66, 0
2, 34320, Note_on_c, 0, 63, 69
2, 34560, Note_on_c, 0, 63, 0
2, 35040, Note_on_c, 0, 86, 78
2, 35760, Note_on_c, 0, 86, 0
2, 35760, Note_on_c, 0, 85, 114
2, 36240, Note_on_c, 0, 84, 112
2, 36263, Note_on_c, 0, 85, 0
2, 36480, Note_on_c, 0, 84, 111
2, 36492, Note_on_c, 0, 84, 0
2, 36960, Note_on_c, 0, 84, 96
2, 36983, Note_on_c, 0, 84, 0
2, 37680, Note_on_c, 0, 84, 0
2, 37680, Note_on_c, 0, 80, 95
2, 37920, Note_on_c, 0, 80, 0
2, 37920, Note_on_c, 0, 76, 93
2, 38160, Note_on_c, 0, 76, 0
2, 38160, Note_on_c, 0, 73, 92
2, 38400, Note_on_c, 0, 73, 0
2, 38400, Note_on_c, 0, 72, 91
2, 38880, Note_on_c, 0, 72, 0
2, 38880, Note_on_c, 0, 84, 101
2, 39519, Note_on_c, 0, 84, 0
2, 39519, Note_on_c, 0, 80, 99
2, 39680, Note_on_c, 0, 80, 0
2, 39680, Note_on_c, 0, 76, 98
2, 39840, Note_on_c, 0, 76, 0
2, 39840, Note_on_c, 0, 76, 98
2, 39999, Note_on_c, 0, 76, 0
2, 39999, Note_on_c, 0, 73, 97
2, 40160, Note_on_c, 0, 73, 0
2, 40160, Note_on_c, 0, 72, 97
2, 40320, Note_on_c, 0, 72, 0
2, 40320, Note_on_c, 0, 72, 96
2, 40800, Note_on_c, 0, 72, 0
2, 40800, Note_on_c, 0, 89, 101
2, 41520, Note_on_c, 0, 89, 0
2, 41520, Note_on_c, 0, 87, 94
2, 42000, Note_on_c, 0, 87, 0
2, 42000, Note_on_c, 0, 86, 93
2, 42240, Note_on_c, 0, 86, 0
2, 42240, Note_on_c, 0, 87, 93
2, 42720, Note_on_c, 0, 87, 0
2, 42720, Note_on_c, 0, 92, 108
2, 43440, Note_on_c, 0, 92, 0
2, 43440, Note_on_c, 0, 91, 105
2, 43680, Note_on_c, 0, 91, 0
2, 43680, Note_on_c, 0, 87, 104
2, 43920, Note_on_c, 0, 87, 0
2, 43920, Note_on_c, 0, 84, 103
2, 44160, Note_on_c, 0, 84, 0
2, 44160, Note_on_c, 0, 80, 102
2, 44640, Note_on_c, 0, 80, 0
2, 44640, Note_on_c, 0, 91, 104
2, 45360, Note_on_c, 0, 91, 0
2, 45360, Note_on_c, 0, 89, 100
2, 45600, Note_on_c, 0, 89, 0
2, 45600, Note_on_c, 0, 87, 99
2, 45840, Note_on_c, 0, 87, 0
2, 45840, Note_on_c, 0, 84, 97
2, 46080, Note_on_c, 0, 84, 0
2, 46080, Note_on_c, 0, 78, 96
2, 46560, Note_on_c, 0, 78, 0
2, 46560, Note_on_c, 0, 89, 96
2, 47280, Note_on_c, 0, 89, 0
2, 47280, Note_on_c, 0, 87, 93
2, 47520, Note_on_c, 0, 87, 0
2, 47520, Note_on_c, 0, 84, 92
2, 47760, Note_on_c, 0, 84, 0
2, 47760, Note_on_c, 0, 78, 91
2, 48240, Note_on_c, 0, 78, 0
2, 48240, Note_on_c, 0, 79, 93
2, 48480, Note_on_c, 0, 79, 0
2, 48480, Note_on_c, 0, 80, 94
2, 48720, Note_on_c, 0, 80, 0
2, 48720, Note_on_c, 0, 81, 95
2, 48960, Note_on_c, 0, 81, 0
2, 48960, Note_on_c, 0, 82, 96
2, 49440, Note_on_c, 0, 82, 0
2, 49440, Note_on_c, 0, 83, 98
2, 49920, Note_on_c, 0, 83, 0
2, 49920, Note_on_c, 0, 87, 124
2, 50160, Note_on_c, 0, 87, 0
2, 50160, Note_on_c, 0, 84, 127
2, 50400, Note_on_c, 0, 84, 0
2, 50400, Note_on_c, 0, 92, 127
2, 51120, Note_on_c, 0, 92, 0
2, 51120, Note_on_c, 0, 91, 127
2, 51360, Note_on_c, 0, 87, 127
2, 51372, Note_on_c, 0, 91, 0
2, 51519, Note_on_c, 0, 86, 127
2, 51527, Note_on_c, 0, 87, 0
2, 51680, Note_on_c, 0, 84, 127
2, 51688, Note_on_c, 0, 86, 0
2, 51840, Note_on_c, 0, 80, 127
2, 51847, Note_on_c, 0, 84, 0
2, 52320, Note_on_c, 0, 91, 127
2, 52343, Note_on_c, 0, 80, 0
2, 52959, Note_on_c, 0, 91, 0
2, 52959, Note_on_c, 0, 89, 127
2, 53120, Note_on_c, 0, 87, 127
2, 53128, Note_on_c, 0, 89, 0
2, 53280, Note_on_c, 0, 87, 127
2, 53287, Note_on_c, 0, 87, 0
2, 53439, Note_on_c, 0, 84, 127
2, 53447, Note_on_c, 0, 87, 0
2, 53600, Note_on_c, 0, 81, 127
2, 53608, Note_on_c, 0, 84, 0
2, 53760, Note_on_c, 0, 78, 127
2, 53767, Note_on_c, 0, 81, 0
2, 54240, Note_on_c, 0, 89, 127
2, 54263, Note_on_c, 0, 78, 0
2, 54960, Note_on_c, 0, 89, 0
2, 54960, Note_on_c, 0, 87, 126
2, 55200, Note_on_c, 0, 84, 126
2, 55212, Note_on_c, 0, 87, 0
2, 55440, Note_on_c, 0, 78, 126
2, 55452, Note_on_c, 0, 84, 0
2, 55680, Note_on_c, 0, 78, 117
2, 55692, Note_on_c, 0, 78, 0
2, 55920, Note_on_c, 0, 78, 0
2, 55920, Note_on_c, 0, 79, 118
2, 56160, Note_on_c, 0, 79, 0
2, 56160, Note_on_c, 0, 80, 118
2, 56400, Note_on_c, 0, 80, 0
2, 56400, Note_on_c, 0, 81, 119
2, 56640, Note_on_c, 0, 81, 0
2, 56640, Note_on_c, 0, 82, 120
2, 57120, Note_on_c, 0, 82, 0
2, 57120, Note_on_c, 0, 83, 121
2, 57600, Note_on_c, 0, 83, 0
2, 57600, Note_on_c, 0, 84, 91
2, 58080, Note_on_c, 0, 84, 92
2, 58103, Note_on_c, 0, 84, 0
2, 58800, Note_on_c, 0, 84, 0
2, 58800, Note_on_c, 0, 83, 80
2, 59040, Note_on_c, 0, 83, 0
2, 59040, Note_on_c, 0, 84, 80
2, 59280, Note_on_c, 0, 84, 0
2, 59280, Note_on_c, 0, 87, 80
2, 59520, Note_on_c, 0, 87, 0
2, 59520, Note_on_c, 0, 84, 80
2, 60000, Note_on_c, 0, 84, 0
2, 60000, Note_on_c, 0, 84, 80
2, 60639, Note_on_c, 0, 84, 0
2, 60639, Note_on_c, 0, 83, 80
2, 60800, Note_on_c, 0, 83, 0
2, 60800, Note_on_c, 0, 84, 80
2, 60960, Note_on_c, 0, 84, 0
2, 60960, Note_on_c, 0, 87, 80
2, 61119, Note_on_c, 0, 87, 0
2, 61119, Note_on_c, 0, 84, 80
2, 61280, Note_on_c, 0, 84, 0
2, 61280, Note_on_c, 0, 83, 80
2, 61440, Note_on_c, 0, 83, 0
2, 61440, Note_on_c, 0, 84, 54
2, 62160, Note_on_c, 0, 84, 0
2, 62160, Note_on_c, 0, 83, 77
2, 62400, Note_on_c, 0, 83, 0
2, 62400, Note_on_c, 0, 84, 77
2, 62640, Note_on_c, 0, 84, 0
2, 62640, Note_on_c, 0, 83, 76
2, 62880, Note_on_c, 0, 83, 0
2, 62880, Note_on_c, 0, 84, 75
2, 63120, Note_on_c, 0, 84, 0
2, 63120, Note_on_c, 0, 83, 74
2, 63360, Note_on_c, 0, 83, 0
2, 63360, Note_on_c, 0, 84, 73
2, 64080, Note_on_c, 0, 84, 0
2, 64080, Note_on_c, 0, 83, 74
2, 64320, Note_on_c, 0, 83, 0
2, 64320, Note_on_c, 0, 84, 73
2, 64560, Note_on_c, 0, 84, 0
2, 64560, Note_on_c, 0, 83, 72
2, 64800, Note_on_c, 0, 83, 0
2, 64800, Note_on_c, 0, 84, 71
2, 65040, Note_on_c, 0, 84, 0
2, 65040, Note_on_c, 0, 83, 70
2, 65280, Note_on_c, 0, 83, 0
2, 65280, Note_on_c, 0, 82, 80
2, 65760, Note_on_c, 0, 82, 0
2, 65760, Note_on_c, 0, 82, 79
2, 66480, Note_on_c, 0, 82, 0
2, 66480, Note_on_c, 0, 78, 78
2, 66960, Note_on_c, 0, 78, 0
2, 66960, Note_on_c, 0, 75, 77
2, 67200, Note_on_c, 0, 75, 0
2, 67200, Note_on_c, 0, 70, 76
2, 67680, Note_on_c, 0, 70, 0
2, 67680, Note_on_c, 0, 82, 78
2, 68400, Note_on_c, 0, 82, 0
2, 68400, Note_on_c, 0, 78, 76
2, 68640, Note_on_c, 0, 78, 0
2, 68640, Note_on_c, 0, 75, 75
2, 68960, Note_on_c, 0, 75, 0
2, 68960, Note_on_c, 0, 72, 74
2, 69120, Note_on_c, 0, 72, 0
2, 69120, Note_on_c, 0, 70, 73
2, 69600, Note_on_c, 0, 70, 0
2, 69600, Note_on_c, 0, 79, 75
2, 70320, Note_on_c, 0, 79, 0
2, 70320, Note_on_c, 0, 78, 73
2, 70800, Note_on_c, 0, 78, 0
2, 70800, Note_on_c, 0, 75, 71
2, 71040, Note_on_c, 0, 75, 0
2, 71040, Note_on_c, 0, 70, 70
2, 71520, Note_on_c, 0, 70, 0
2, 71520, Note_on_c, 0, 79, 73
2, 72240, Note_on_c, 0, 79, 0
2, 72240, Note_on_c, 0, 78, 71
2, 72480, Note_on_c, 0, 78, 0
2, 72480, Note_on_c, 0, 75, 71
2, 72800, Note_on_c, 0, 75, 0
2, 72800, Note_on_c, 0, 72, 70
2, 72960, Note_on_c, 0, 72, 0
2, 72960, Note_on_c, 0, 70, 69
2, 73440, Note_on_c, 0, 70, 0
2, 73440, Note_on_c, 0, 74, 70
2, 74160, Note_on_c, 0, 74, 0
2, 74160, Note_on_c, 0, 73, 68
2, 74640, Note_on_c, 0, 73, 0
2, 74640, Note_on_c, 0, 69, 66
2, 74880, Note_on_c, 0, 69, 0
2, 74880, Note_on_c, 0, 67, 65
2, 75360, Note_on_c, 0, 67, 0
2, 75360, Note_on_c, 0, 72, 41
2, 76080, Note_on_c, 0, 72, 0
2, 76080, Note_on_c, 0, 70, 41
2, 76320, Note_on_c, 0, 70, 0
2, 76320, Note_on_c, 0, 67, 41
2, 76640, Note_on_c, 0, 67, 0
2, 76640, Note_on_c, 0, 66, 41
2, 76800, Note_on_c, 0, 66, 0
2, 76800, Note_on_c, 0, 64, 41
2, 77280, Note_on_c, 0, 64, 0
2, 77280, Note_on_c, 0, 70, 41
2, 78000, Note_on_c, 0, 70, 0
2, 78000, Note_on_c, 0, 69, 41
2, 78480, Note_on_c, 0, 69, 0
2, 78480, Note_on_c, 0, 66, 41
2, 78720, Note_on_c, 0, 66, 0
2, 78720, Note_on_c, 0, 63, 41
2, 79200, Note_on_c, 0, 63, 0
2, 79200, Note_on_c, 0, 69, 41
2, 79920, Note_on_c, 0, 69, 0
2, 79920, Note_on_c, 0, 67, 41
2, 80160, Note_on_c, 0, 67, 0
2, 80160, Note_on_c, 0, 66, 41
2, 80400, Note_on_c, 0, 66, 0
2, 80400, Note_on_c, 0, 67, 41
2, 80640, Note_on_c, 0, 67, 0
2, 90240, Note_on_c, 0, 69, 60
2, 90336, Note_on_c, 0, 69, 0
2, 90336, Note_on_c, 0, 70, 60
2, 90432, Note_on_c, 0, 70, 0
2, 90432, Note_on_c, 0, 72, 61
2, 90527, Note_on_c, 0, 72, 0
2, 90527, Note_on_c, 0, 74, 62
2, 90623, Note_on_c, 0, 74, 0
2, 90623, Note_on_c, 0, 75, 63
2, 90720, Note_on_c, 0, 75, 0
2, 90720, Note_on_c, 0, 69, 63
2, 90816, Note_on_c, 0, 69, 0
2, 90816, Note_on_c, 0, 70, 64
2, 90912, Note_on_c, 0, 70, 0
2, 90912, Note_on_c, 0, 72, 65
2, 91007, Note_on_c, 0, 72, 0
2, 91007, Note_on_c, 0, 74, 66
2, 91103, Note_on_c, 0, 74, 0
2, 91103, Note_on_c, 0, 75, 67
2, 91200, Note_on_c, 0, 75, 0
2, 91200, Note_on_c, 0, 69, 67
2, 91296, Note_on_c, 0, 69, 0
2, 91296, Note_on_c, 0, 70, 68
2, 91392, Note_on_c, 0, 70, 0
2, 91392, Note_on_c, 0, 72, 69
2, 91487, Note_on_c, 0, 72, 0
2, 91487, Note_on_c, 0, 73, 70
2, 91583, Note_on_c, 0, 73, 0
2, 91583, Note_on_c, 0, 74, 71
2, 91680, Note_on_c, 0, 74, 0
2, 91680, Note_on_c, 0, 69, 71
2, 91776, Note_on_c, 0, 69, 0
2, 91776, Note_on_c, 0, 70, 72
2, 91872, Note_on_c, 0, 70, 0
2, 91872, Note_on_c, 0, 72, 73
2, 91967, Note_on_c, 0, 72, 0
2, 91967, Note_on_c, 0, 73, 74
2, 92063, Note_on_c, 0, 73, 0
2, 92063, Note_on_c, 0, 74, 75
2, 92160, Note_on_c, 0, 74, 0
2, 92160, Note_on_c, 0, 67, 65
2, 92240, Note_on_c, 0, 67, 0
2, 92240, Note_on_c, 0, 69, 66
2, 92319, Note_on_c, 0, 69, 0
2, 92319, Note_on_c, 0, 70, 68
2, 92400, Note_on_c, 0, 70, 0
2, 92400, Note_on_c, 0, 74, 70
2, 92480, Note_on_c, 0, 74, 0
2, 92480, Note_on_c, 0, 70, 69
2, 92559, Note_on_c, 0, 70, 0
2, 92559, Note_on_c, 0, 69, 67
2, 92640, Note_on_c, 0, 69, 0
2, 92640, Note_on_c, 0, 67, 60
2, 92720, Note_on_c, 0, 67, 0
2, 92720, Note_on_c, 0, 69, 61
2, 92799, Note_on_c, 0, 69, 0
2, 92799, Note_on_c, 0, 70, 63
2, 92880, Note_on_c, 0, 70, 0
2, 92880, Note_on_c, 0, 74, 65
2, 92960, Note_on_c, 0, 74, 0
2, 92960, Note_on_c, 0, 70, 63
2, 93039, Note_on_c, 0, 70, 0
2, 93039, Note_on_c, 0, 69, 62
2, 93120, Note_on_c, 0, 69, 0
2, 93120, Note_on_c, 0, 67, 63
2, 93200, Note_on_c, 0, 67, 0
2, 93200, Note_on_c, 0, 69, 65
2, 93279, Note_on_c, 0, 69, 0
2, 93279, Note_on_c, 0, 70, 66
2, 93360, Note_on_c, 0, 70, 0
2, 93360, Note_on_c, 0, 74, 69
2, 93440, Note_on_c, 0, 74, 0
2, 93440, Note_on_c, 0, 70, 67
2, 93519, Note_on_c, 0, 70, 0
2, 93519, Note_on_c, 0, 69, 63
2, 93600, Note_on_c, 0, 69, 0
2, 93600, Note_on_c, 0, 67, 67
2, 93680, Note_on_c, 0, 67, 0
2, 93680, Note_on_c, 0, 69, 68
2, 93759, Note_on_c, 0, 69, 0
2, 93759, Note_on_c, 0, 70, 69
2, 93840, Note_on_c, 0, 70, 0
2, 93840, Note_on_c, 0, 74, 71
2, 93920, Note_on_c, 0, 74, 0
2, 93920, Note_on_c, 0, 70, 69
2, 93999, Note_on_c, 0, 70, 0
2, 93999, Note_on_c, 0, 69, 67
2, 94080, Note_on_c, 0, 69, 0
2, 94080, Note_on_c, 0, 70, 69
2, 94160, Note_on_c, 0, 70, 0
2, 94160, Note_on_c, 0, 72, 70
2, 94239, Note_on_c, 0, 72, 0
2, 94239, Note_on_c, 0, 73, 71
2, 94320, Note_on_c, 0, 73, 0
2, 94320, Note_on_c, 0, 77, 73
2, 94400, Note_on_c, 0, 77, 0
2, 94400, Note_on_c, 0, 73, 72
2, 94479, Note_on_c, 0, 73, 0
2, 94479, Note_on_c, 0, 72, 68
2, 94560, Note_on_c, 0, 72, 0
2, 94560, Note_on_c, 0, 70, 70
2, 94640, Note_on_c, 0, 70, 0
2, 94640, Note_on_c, 0, 72, 71
2, 94719, Note_on_c, 0, 72, 0
2, 94719, Note_on_c, 0, 73, 73
2, 94800, Note_on_c, 0, 73, 0
2, 94800, Note_on_c, 0, 77, 75
2, 94880, Note_on_c, 0, 77, 0
2, 94880, Note_on_c, 0, 73, 69
2, 94959, Note_on_c, 0, 73, 0
2, 94959, Note_on_c, 0, 72, 69
2, 95040, Note_on_c, 0, 72, 0
2, 95040, Note_on_c, 0, 70, 73
2, 95120, Note_on_c, 0, 70, 0
2, 95120, Note_on_c, 0, 72, 74
2, 95199, Note_on_c, 0, 72, 0
2, 95199, Note_on_c, 0, 73, 75
2, 95280, Note_on_c, 0, 73, 0
2, 95280, Note_on_c, 0, 77, 77
2, 95360, Note_on_c, 0, 77, 0
2, 95360, Note_on_c, 0, 73, 71
2, 95439, Note_on_c, 0, 73, 0
2, 95439, Note_on_c, 0, 72, 70
2, 95520, Note_on_c, 0, 72, 0
2, 95520, Note_on_c, 0, 70, 75
2, 95600, Note_on_c, 0, 70, 0
2, 95600, Note_on_c, 0, 72, 76
2, 95679, Note_on_c, 0, 72, 0
2, 95679, Note_on_c, 0, 73, 78
2, 95760, Note_on_c, 0, 73, 0
2, 95760, Note_on_c, 0, 77, 80
2, 95840, Note_on_c, 0, 77, 0
2, 95840, Note_on_c, 0, 73, 77
2, 95919, Note_on_c, 0, 73, 0
2, 95919, Note_on_c, 0, 72, 73
2, 96000, Note_on_c, 0, 72, 0
2, 96000, Note_on_c, 0, 73, 77
2, 96080, Note_on_c, 0, 73, 0
2, 96080, Note_on_c, 0, 74, 78
2, 96159, Note_on_c, 0, 74, 0
2, 96159, Note_on_c, 0, 76, 80
2, 96240, Note_on_c, 0, 76, 0
2, 96240, Note_on_c, 0, 81, 82
2, 96320, Note_on_c, 0, 81, 0
2, 96320, Note_on_c, 0, 76, 80
2, 96399, Note_on_c, 0, 76, 0
2, 96399, Note_on_c, 0, 74, 72
2, 96480, Note_on_c, 0, 74, 0
2, 96480, Note_on_c, 0, 73, 79
2, 96560, Note_on_c, 0, 73, 0
2, 96560, Note_on_c, 0, 74, 80
2, 96639, Note_on_c, 0, 74, 0
2, 96639, Note_on_c, 0, 76, 82
2, 96720, Note_on_c, 0, 76, 0
2, 96720, Note_on_c, 0, 81, 84
2, 96800, Note_on_c, 0, 81, 0
2, 96800, Note_on_c, 0, 76, 81
2, 96879, Note_on_c, 0, 76, 0
2, 96879, Note_on_c, 0, 74, 80
2, 96960, Note_on_c, 0, 74, 0
2, 96960, Note_on_c, 0, 73, 81
2, 97040, Note_on_c, 0, 73, 0
2, 97040, Note_on_c, 0, 74, 82
2, 97119, Note_on_c, 0, 74, 0
2, 97119, Note_on_c, 0, 76, 84
2, 97200, Note_on_c, 0, 76, 0
2, 97200, Note_on_c, 0, 81, 86
2, 97280, Note_on_c, 0, 81, 0
2, 97280, Note_on_c, 0, 78, 80
2, 97359, Note_on_c, 0, 78, 0
2, 97359, Note_on_c, 0, 81, 85
2, 97440, Note_on_c, 0, 81, 0
2, 97440, Note_on_c, 0, 76, 83
2, 97520, Note_on_c, 0, 76, 0
2, 97520, Note_on_c, 0, 78, 85
2, 97599, Note_on_c, 0, 78, 0
2, 97599, Note_on_c, 0, 81, 86
2, 97680, Note_on_c, 0, 81, 0
2, 97680, Note_on_c, 0, 85, 89
2, 97760, Note_on_c, 0, 85, 0
2, 97760, Note_on_c, 0, 81, 79
2, 97839, Note_on_c, 0, 81, 0
2, 97839, Note_on_c, 0, 85, 89
2, 97920, Note_on_c, 0, 85, 0
2, 97920, Note_on_c, 0, 80, 85
2, 98000, Note_on_c, 0, 80, 0
2, 98000, Note_on_c, 0, 82, 87
2, 98079, Note_on_c, 0, 82, 0
2, 98079, Note_on_c, 0, 84, 88
2, 98160, Note_on_c, 0, 84, 0
2, 98160, Note_on_c, 0, 87, 91
2, 98240, Note_on_c, 0, 87, 0
2, 98240, Note_on_c, 0, 84, 87
2, 98319, Note_on_c, 0, 84, 0
2, 98319, Note_on_c, 0, 87, 91
2, 98400, Note_on_c, 0, 87, 0
2, 98400, Note_on_c, 0, 72, 80
2, 98480, Note_on_c, 0, 72, 0
2, 98480, Note_on_c, 0, 86, 87
2, 98559, Note_on_c, 0, 86, 0
2, 98559, Note_on_c, 0, 87, 89
2, 98640, Note_on_c, 0, 87, 0
2, 98640, Note_on_c, 0, 92, 92
2, 98720, Note_on_c, 0, 92, 0
2, 98720, Note_on_c, 0, 87, 89
2, 98799, Note_on_c, 0, 87, 0
2, 98799, Note_on_c, 0, 92, 93
2, 98880, Note_on_c, 0, 92, 0
2, 98880, Note_on_c, 0, 87, 90
2, 98960, Note_on_c, 0, 87, 0
2, 98960, Note_on_c, 0, 89, 91
2, 99039, Note_on_c, 0, 89, 0
2, 99039, Note_on_c, 0, 91, 93
2, 99120, Note_on_c, 0, 91, 0
2, 99120, Note_on_c, 0, 94, 95
2, 99200, Note_on_c, 0, 94, 0
2, 99200, Note_on_c, 0, 91, 89
2, 99279, Note_on_c, 0, 91, 0
2, 99279, Note_on_c, 0, 94, 97
2, 99360, Note_on_c, 0, 94, 0
2, 99360, Note_on_c, 0, 91, 95
2, 99440, Note_on_c, 0, 91, 0
2, 99440, Note_on_c, 0, 93, 95
2, 99519, Note_on_c, 0, 93, 0
2, 99519, Note_on_c, 0, 94, 96
2, 99600, Note_on_c, 0, 94, 0
2, 99600, Note_on_c, 0, 99, 97
2, 99680, Note_on_c, 0, 99, 0
2, 99680, Note_on_c, 0, 94, 98
2, 99759, Note_on_c, 0, 94, 0
2, 99759, Note_on_c, 0, 99, 99
2, 99840, Note_on_c, 0, 99, 0
2, 99840, Note_on_c, 0, 97, 110
2, 99920, Note_on_c, 0, 97, 0
2, 99920, Note_on_c, 0, 99, 110
2, 99999, Note_on_c, 0, 99, 0
2, 99999, Note_on_c, 0, 97, 109
2, 100080, Note_on_c, 0, 97, 0
2, 100080, Note_on_c, 0, 102, 108
2, 100160, Note_on_c, 0, 102, 0
2, 100160, Note_on_c, 0, 99, 107
2, 100239, Note_on_c, 0, 99, 0
2, 100239, Note_on_c, 0, 97, 106
2, 100320, Note_on_c, 0, 97, 0
2, 100320, Note_on_c, 0, 94, 104
2, 100400, Note_on_c, 0, 94, 0
2, 100400, Note_on_c, 0, 97, 103
2, 100479, Note_on_c, 0, 97, 0
2, 100479, Note_on_c, 0, 94, 102
2, 100560, Note_on_c, 0, 94, 0
2, 100560, Note_on_c, 0, 99, 105
2, 100640, Note_on_c, 0, 99, 0
2, 100640, Note_on_c, 0, 97, 105
2, 100719, Note_on_c, 0, 97, 0
2, 100719, Note_on_c, 0, 94, 104
2, 100800, Note_on_c, 0, 94, 0
2, 100800, Note_on_c, 0, 90, 102
2, 100880, Note_on_c, 0, 90, 0
2, 100880, Note_on_c, 0, 94, 101
2, 100959, Note_on_c, 0, 94, 0
2, 100959, Note_on_c, 0, 90, 99
2, 101040, Note_on_c, 0, 90, 0
2, 101040, Note_on_c, 0, 97, 104
2, 101120, Note_on_c, 0, 97, 0
2, 101120, Note_on_c, 0, 94, 103
2, 101199, Note_on_c, 0, 94, 0
2, 101199, Note_on_c, 0, 90, 101
2, 101280, Note_on_c, 0, 90, 0
2, 101280, Note_on_c, 0, 87, 98
2, 101360, Note_on_c, 0, 87, 0
2, 101360, Note_on_c, 0, 90, 99
2, 101439, Note_on_c, 0, 90, 0
2, 101439, Note_on_c, 0, 87, 101
2, 101520, Note_on_c, 0, 87, 0
2, 101520, Note_on_c, 0, 94, 103
2, 101600, Note_on_c, 0, 94, 0
2, 101600, Note_on_c, 0, 90, 102
2, 101679, Note_on_c, 0, 90, 0
2, 101679, Note_on_c, 0, 87, 101
2, 101760, Note_on_c, 0, 87, 0
2, 101760, Note_on_c, 0, 85, 95
2, 101840, Note_on_c, 0, 85, 0
2, 101840, Note_on_c, 0, 87, 93
2, 101919, Note_on_c, 0, 87, 0
2, 101919, Note_on_c, 0, 85, 91
2, 102000, Note_on_c, 0, 85, 0
2, 102000, Note_on_c, 0, 90, 96
2, 102080, Note_on_c, 0, 90, 0
2, 102080, Note_on_c, 0, 87, 93
2, 102159, Note_on_c, 0, 87, 0
2, 102159, Note_on_c, 0, 85, 89
2, 102240, Note_on_c, 0, 85, 0
2, 102240, Note_on_c, 0, 82, 91
2, 102320, Note_on_c, 0, 82, 0
2, 102320, Note_on_c, 0, 85, 92
2, 102399, Note_on_c, 0, 85, 0
2, 102399, Note_on_c, 0, 82, 94
2, 102480, Note_on_c, 0, 82, 0
2, 102480, Note_on_c, 0, 87, 95
2, 102560, Note_on_c, 0, 87, 0
2, 102560, Note_on_c, 0, 85, 92
2, 102639, Note_on_c, 0, 85, 0
2, 102639, Note_on_c, 0, 82, 88
2, 102720, Note_on_c, 0, 82, 0
2, 102720, Note_on_c, 0, 83, 83
2, 102800, Note_on_c, 0, 83, 0
2, 102800, Note_on_c, 0, 85, 82
2, 102879, Note_on_c, 0, 85, 0
2, 102879, Note_on_c, 0, 83, 82
2, 102960, Note_on_c, 0, 83, 0
2, 102960, Note_on_c, 0, 86, 89
2, 103040, Note_on_c, 0, 86, 0
2, 103040, Note_on_c, 0, 85, 87
2, 103119, Note_on_c, 0, 85, 0
2, 103119, Note_on_c, 0, 83, 84
2, 103200, Note_on_c, 0, 83, 0
2, 103200, Note_on_c, 0, 80, 79
2, 103280, Note_on_c, 0, 80, 0
2, 103280, Note_on_c, 0, 82, 80
2, 103359, Note_on_c, 0, 82, 0
2, 103359, Note_on_c, 0, 80, 81
2, 103440, Note_on_c, 0, 80, 0
2, 103440, Note_on_c, 0, 83, 85
2, 103520, Note_on_c, 0, 83, 0
2, 103520, Note_on_c, 0, 82, 81
2, 103599, Note_on_c, 0, 82, 0
2, 103599, Note_on_c, 0, 80, 77
2, 103680, Note_on_c, 0, 80, 0
2, 103680, Note_on_c, 0, 82, 75
2, 103760, Note_on_c, 0, 82, 0
2, 103760, Note_on_c, 0, 83, 76
2, 103839, Note_on_c, 0, 83, 0
2, 103839, Note_on_c, 0, 82, 78
2, 103920, Note_on_c, 0, 82, 0
2, 103920, Note_on_c, 0, 85, 84
2, 104000, Note_on_c, 0, 85, 0
2, 104000, Note_on_c, 0, 83, 83
2, 104079, Note_on_c, 0, 83, 0
2, 104079, Note_on_c, 0, 82, 81
2, 104160, Note_on_c, 0, 82, 0
2, 104160, Note_on_c, 0, 80, 77
2, 104240, Note_on_c, 0, 80, 0
2, 104240, Note_on_c, 0, 82, 78
2, 104319, Note_on_c, 0, 82, 0
2, 104319, Note_on_c, 0, 80, 79
2, 104400, Note_on_c, 0, 80, 0
2, 104400, Note_on_c, 0, 85, 82
2, 104480, Note_on_c, 0, 85, 0
2, 104480, Note_on_c, 0, 82, 81
2, 104559, Note_on_c, 0, 82, 0
2, 104559, Note_on_c, 0, 80, 79
2, 104640, Note_on_c, 0, 80, 0
2, 104640, Note_on_c, 0, 78, 77
2, 104720, Note_on_c, 0, 78, 0
2, 104720, Note_on_c, 0, 82, 78
2, 104799, Note_on_c, 0, 82, 0
2, 104799, Note_on_c, 0, 78, 79
2, 104880, Note_on_c, 0, 78, 0
2, 104880, Note_on_c, 0, 85, 82
2, 104960, Note_on_c, 0, 85, 0
2, 104960, Note_on_c, 0, 82, 80
2, 105039, Note_on_c, 0, 82, 0
2, 105039, Note_on_c, 0, 78, 77
2, 105120, Note_on_c, 0, 78, 0
2, 105120, Note_on_c, 0, 75, 78
2, 105200, Note_on_c, 0, 75, 0
2, 105200, Note_on_c, 0, 78, 77
2, 105279, Note_on_c, 0, 78, 0
2, 105279, Note_on_c, 0, 75, 76
2, 105360, Note_on_c, 0, 75, 0
2, 105360, Note_on_c, 0, 82, 81
2, 105440, Note_on_c, 0, 82, 0
2, 105440, Note_on_c, 0, 78, 79
2, 105519, Note_on_c, 0, 78, 0
2, 105519, Note_on_c, 0, 75, 76
2, 105600, Note_on_c, 0, 75, 0
2, 105600, Note_on_c, 0, 73, 77
2, 105680, Note_on_c, 0, 73, 0
2, 105680, Note_on_c, 0, 75, 76
2, 105759, Note_on_c, 0, 75, 0
2, 105759, Note_on_c, 0, 73, 74
2, 105840, Note_on_c, 0, 73, 0
2, 105840, Note_on_c, 0, 78, 80
2, 105920, Note_on_c, 0, 78, 0
2, 105920, Note_on_c, 0, 75, 79
2, 105999, Note_on_c, 0, 75, 0
2, 105999, Note_on_c, 0, 73, 77
2, 106080, Note_on_c, 0, 73, 0
2, 106080, Note_on_c, 0, 70, 71
2, 106160, Note_on_c, 0, 70, 0
2, 106160, Note_on_c, 0, 73, 72
2, 106239, Note_on_c, 0, 73, 0
2, 106239, Note_on_c, 0, 70, 69
2, 106320, Note_on_c, 0, 70, 0
2, 106320, Note_on_c, 0, 75, 73
2, 106400, Note_on_c, 0, 75, 0
2, 106400, Note_on_c, 0, 73, 70
2, 106479, Note_on_c, 0, 73, 0
2, 106479, Note_on_c, 0, 70, 67
2, 106560, Note_on_c, 0, 70, 0
2, 106560, Note_on_c, 0, 68, 70
2, 106640, Note_on_c, 0, 68, 0
2, 106640, Note_on_c, 0, 70, 69
2, 106719, Note_on_c, 0, 70, 0
2, 106719, Note_on_c, 0, 68, 67
2, 106800, Note_on_c, 0, 68, 0
2, 106800, Note_on_c, 0, 73, 71
2, 106880, Note_on_c, 0, 73, 0
2, 106880, Note_on_c, 0, 70, 70
2, 106959, Note_on_c, 0, 70, 0
2, 106959, Note_on_c, 0, 68, 68
2, 107040, Note_on_c, 0, 68, 0
2, 107040, Note_on_c, 0, 66, 67
2, 107120, Note_on_c, 0, 66, 0
2, 107120, Note_on_c, 0, 68, 67
2, 107199, Note_on_c, 0, 68, 0
2, 107199, Note_on_c, 0, 66, 66
2, 107280, Note_on_c, 0, 66, 0
2, 107280, Note_on_c, 0, 73, 66
2, 107360, Note_on_c, 0, 73, 0
2, 107360, Note_on_c, 0, 70, 67
2, 107439, Note_on_c, 0, 70, 0
2, 107439, Note_on_c, 0, 68, 68
2, 107520, Note_on_c, 0, 68, 0
2, 107520, Note_on_c, 0, 66, 65
2, 107600, Note_on_c, 0, 66, 0
2, 107600, Note_on_c, 0, 68, 66
2, 107679, Note_on_c, 0, 68, 0
2, 107679, Note_on_c, 0, 69, 68
2, 107760, Note_on_c, 0, 69, 0
2, 107760, Note_on_c, 0, 73, 70
2, 107840, Note_on_c, 0, 73, 0
2, 107840, Note_on_c, 0, 69, 68
2, 107919, Note_on_c, 0, 69, 0
2, 107919, Note_on_c, 0, 68, 66
2, 108000, Note_on_c, 0, 68, 0
2, 108000, Note_on_c, 0, 66, 66
2, 108080, Note_on_c, 0, 66, 0
2, 108080, Note_on_c, 0, 68, 67
2, 108159, Note_on_c, 0, 68, 0
2, 108159, Note_on_c, 0, 69, 69
2, 108240, Note_on_c, 0, 69, 0
2, 108240, Note_on_c, 0, 73, 71
2, 108320, Note_on_c, 0, 73, 0
2, 108320, Note_on_c, 0, 69, 69
2, 108399, Note_on_c, 0, 69, 0
2, 108399, Note_on_c, 0, 68, 67
2, 108480, Note_on_c, 0, 68, 0
2, 108480, Note_on_c, 0, 66, 67
2, 108560, Note_on_c, 0, 66, 0
2, 108560, Note_on_c, 0, 68, 68
2, 108639, Note_on_c, 0, 68, 0
2, 108639, Note_on_c, 0, 69, 70
2, 108720, Note_on_c, 0, 69, 0
2, 108720, Note_on_c, 0, 73, 72
2, 108800, Note_on_c, 0, 73, 0
2, 108800, Note_on_c, 0, 69, 71
2, 108879, Note_on_c, 0, 69, 0
2, 108879, Note_on_c, 0, 68, 68
2, 108960, Note_on_c, 0, 68, 0
2, 108960, Note_on_c, 0, 66, 69
2, 109040, Note_on_c, 0, 66, 0
2, 109040, Note_on_c, 0, 68, 71
2, 109119, Note_on_c, 0, 68, 0
2, 109119, Note_on_c, 0, 69, 72
2, 109200, Note_on_c, 0, 69, 0
2, 109200, Note_on_c, 0, 73, 75
2, 109280, Note_on_c, 0, 73, 0
2, 109280, Note_on_c, 0, 69, 71
2, 109359, Note_on_c, 0, 69, 0
2, 109359, Note_on_c, 0, 68, 72
2, 109440, Note_on_c, 0, 68, 0
2, 109440, Note_on_c, 0, 69, 71
2, 109520, Note_on_c, 0, 69, 0
2, 109520, Note_on_c, 0, 71, 72
2, 109599, Note_on_c, 0, 71, 0
2, 109599, Note_on_c, 0, 72, 74
2, 109680, Note_on_c, 0, 72, 0
2, 109680, Note_on_c, 0, 76, 76
2, 109760, Note_on_c, 0, 76, 0
2, 109760, Note_on_c, 0, 72, 74
2, 109839, Note_on_c, 0, 72, 0
2, 109839, Note_on_c, 0, 71, 73
2, 109920, Note_on_c, 0, 71, 0
2, 109920, Note_on_c, 0, 69, 74
2, 110000, Note_on_c, 0, 69, 0
2, 110000, Note_on_c, 0, 71, 75
2, 110079, Note_on_c, 0, 71, 0
2, 110079, Note_on_c, 0, 72, 76
2, 110160, Note_on_c, 0, 72, 0
2, 110160, Note_on_c, 0, 76, 78
2, 110240, Note_on_c, 0, 76, 0
2, 110240, Note_on_c, 0, 72, 77
2, 110319, Note_on_c, 0, 72, 0
2, 110319, Note_on_c, 0, 71, 76
2, 110400, Note_on_c, 0, 71, 0
2, 110400, Note_on_c, 0, 69, 76
2, 110480, Note_on_c, 0, 69, 0
2, 110480, Note_on_c, 0, 71, 77
2, 110559, Note_on_c, 0, 71, 0
2, 110559, Note_on_c, 0, 72, 78
2, 110640, Note_on_c, 0, 72, 0
2, 110640, Note_on_c, 0, 76, 80
2, 110720, Note_on_c, 0, 76, 0
2, 110720, Note_on_c, 0, 72, 79
2, 110799, Note_on_c, 0, 72, 0
2, 110799, Note_on_c, 0, 71, 78
2, 110880, Note_on_c, 0, 71, 0
2, 110880, Note_on_c, 0, 69, 78
2, 110960, Note_on_c, 0, 69, 0
2, 110960, Note_on_c, 0, 71, 79
2, 111039, Note_on_c, 0, 71, 0
2, 111039, Note_on_c, 0, 72, 80
2, 111120, Note_on_c, 0, 72, 0
2, 111120, Note_on_c, 0, 76, 82
2, 111200, Note_on_c, 0, 76, 0
2, 111200, Note_on_c, 0, 72, 79
2, 111279, Note_on_c, 0, 72, 0
2, 111279, Note_on_c, 0, 71, 78
2, 111360, Note_on_c, 0, 71, 0
2, 111360, Note_on_c, 0, 72, 80
2, 111440, Note_on_c, 0, 72, 0
2, 111440, Note_on_c, 0, 74, 81
2, 111519, Note_on_c, 0, 74, 0
2, 111519, Note_on_c, 0, 75, 82
2, 111600, Note_on_c, 0, 75, 0
2, 111600, Note_on_c, 0, 80, 84
2, 111680, Note_on_c, 0, 80, 0
2, 111680, Note_on_c, 0, 75, 82
2, 111759, Note_on_c, 0, 75, 0
2, 111759, Note_on_c, 0, 74, 79
2, 111840, Note_on_c, 0, 74, 0
2, 111840, Note_on_c, 0, 72, 81
2, 111920, Note_on_c, 0, 72, 0
2, 111920, Note_on_c, 0, 74, 82
2, 111999, Note_on_c, 0, 74, 0
2, 111999, Note_on_c, 0, 75, 83
2, 112080, Note_on_c, 0, 75, 0
2, 112080, Note_on_c, 0, 80, 85
2, 112160, Note_on_c, 0, 80, 0
2, 112160, Note_on_c, 0, 75, 83
2, 112239, Note_on_c, 0, 75, 0
2, 112239, Note_on_c, 0, 74, 82
2, 112320, Note_on_c, 0, 74, 0
2, 112320, Note_on_c, 0, 72, 82
2, 112400, Note_on_c, 0, 72, 0
2, 112400, Note_on_c, 0, 74, 81
2, 112479, Note_on_c, 0, 74, 0
2, 112479, Note_on_c, 0, 75, 79
2, 112560, Note_on_c, 0, 75, 0
2, 112560, Note_on_c, 0, 80, 77
2, 112640, Note_on_c, 0, 80, 0
2, 112640, Note_on_c, 0, 77, 84
2, 112719, Note_on_c, 0, 77, 0
2, 112719, Note_on_c, 0, 80, 83
2, 112800, Note_on_c, 0, 75, 83
2, 112802, Note_on_c, 0, 80, 0
2, 112880, Note_on_c, 0, 75, 0
2, 112880, Note_on_c, 0, 77, 84
2, 112959, Note_on_c, 0, 77, 0
2, 112959, Note_on_c, 0, 80, 86
2, 113040, Note_on_c, 0, 80, 0
2, 113040, Note_on_c, 0, 84, 88
2, 113120, Note_on_c, 0, 84, 0
2, 113120, Note_on_c, 0, 80, 86
2, 113199, Note_on_c, 0, 80, 0
2, 113199, Note_on_c, 0, 84, 89
2, 113280, Note_on_c, 0, 84, 0
2, 113280, Note_on_c, 0, 79, 85
2, 113360, Note_on_c, 0, 79, 0
2, 113360, Note_on_c, 0, 81, 86
2, 113439, Note_on_c, 0, 81, 0
2, 113439, Note_on_c, 0, 83, 86
2, 113520, Note_on_c, 0, 83, 0
2, 113520, Note_on_c, 0, 86, 88
2, 113600, Note_on_c, 0, 86, 0
2, 113600, Note_on_c, 0, 83, 87
2, 113679, Note_on_c, 0, 83, 0
2, 113679, Note_on_c, 0, 86, 90
2, 113760, Note_on_c, 0, 86, 0
2, 113760, Note_on_c, 0, 71, 87
2, 113840, Note_on_c, 0, 71, 0
2, 113840, Note_on_c, 0, 85, 88
2, 113919, Note_on_c, 0, 85, 0
2, 113919, Note_on_c, 0, 86, 88
2, 114000, Note_on_c, 0, 86, 0
2, 114000, Note_on_c, 0, 90, 90
2, 114080, Note_on_c, 0, 90, 0
2, 114080, Note_on_c, 0, 86, 89
2, 114159, Note_on_c, 0, 86, 0
2, 114159, Note_on_c, 0, 90, 92
2, 114240, Note_on_c, 0, 90, 0
2, 114240, Note_on_c, 0, 86, 89
2, 114320, Note_on_c, 0, 86, 0
2, 114320, Note_on_c, 0, 88, 90
2, 114399, Note_on_c, 0, 88, 0
2, 114399, Note_on_c, 0, 90, 91
2, 114480, Note_on_c, 0, 90, 0
2, 114480, Note_on_c, 0, 93, 92
2, 114560, Note_on_c, 0, 93, 0
2, 114560, Note_on_c, 0, 90, 90
2, 114639, Note_on_c, 0, 90, 0
2, 114639, Note_on_c, 0, 93, 95
2, 114720, Note_on_c, 0, 93, 0
2, 114720, Note_on_c, 0, 90, 86
2, 114800, Note_on_c, 0, 90, 0
2, 114800, Note_on_c, 0, 91, 87
2, 114879, Note_on_c, 0, 91, 0
2, 114879, Note_on_c, 0, 93, 88
2, 114960, Note_on_c, 0, 93, 0
2, 114960, Note_on_c, 0, 98, 88
2, 115040, Note_on_c, 0, 98, 0
2, 115040, Note_on_c, 0, 93, 89
2, 115119, Note_on_c, 0, 93, 0
2, 115119, Note_on_c, 0, 98, 90
2, 115200, Note_on_c, 0, 98, 0
2, 115200, Note_on_c, 0, 96, 109
2, 115280, Note_on_c, 0, 96, 0
2, 115280, Note_on_c, 0, 98, 109
2, 115359, Note_on_c, 0, 98, 0
2, 115359, Note_on_c, 0, 96, 108
2, 115440, Note_on_c, 0, 96, 0
2, 115440, Note_on_c, 0, 101, 108
2, 115520, Note_on_c, 0, 101, 0
2, 115520, Note_on_c, 0, 98, 107
2, 115599, Note_on_c, 0, 98, 0
2, 115599, Note_on_c, 0, 96, 107
2, 115680, Note_on_c, 0, 96, 0
2, 115680, Note_on_c, 0, 93, 106
2, 115760, Note_on_c, 0, 93, 0
2, 115760, Note_on_c, 0, 96, 105
2, 115839, Note_on_c, 0, 96, 0
2, 115839, Note_on_c, 0, 93, 105
2, 115920, Note_on_c, 0, 93, 0
2, 115920, Note_on_c, 0, 98, 104
2, 116000, Note_on_c, 0, 98, 0
2, 116000, Note_on_c, 0, 96, 104
2, 116079, Note_on_c, 0, 96, 0
2, 116079, Note_on_c, 0, 93, 103
2, 116160, Note_on_c, 0, 93, 0
2, 116160, Note_on_c, 0, 89, 102
2, 116240, Note_on_c, 0, 89, 0
2, 116240, Note_on_c, 0, 93, 102
2, 116319, Note_on_c, 0, 93, 0
2, 116319, Note_on_c, 0, 89, 101
2, 116400, Note_on_c, 0, 89, 0
2, 116400, Note_on_c, 0, 96, 101
2, 116480, Note_on_c, 0, 96, 0
2, 116480, Note_on_c, 0, 93, 100
2, 116559, Note_on_c, 0, 93, 0
2, 116559, Note_on_c, 0, 89, 100
2, 116640, Note_on_c, 0, 89, 0
2, 116640, Note_on_c, 0, 86, 99
2, 116720, Note_on_c, 0, 86, 0
2, 116720, Note_on_c, 0, 89, 98
2, 116799, Note_on_c, 0, 89, 0
2, 116799, Note_on_c, 0, 86, 98
2, 116880, Note_on_c, 0, 86, 0
2, 116880, Note_on_c, 0, 93, 97
2, 116960, Note_on_c, 0, 93, 0
2, 116960, Note_on_c, 0, 89, 97
2, 117039, Note_on_c, 0, 89, 0
2, 117039, Note_on_c, 0, 86, 96
2, 117120, Note_on_c, 0, 86, 0
2, 117120, Note_on_c, 0, 84, 95
2, 117200, Note_on_c, 0, 84, 0
2, 117200, Note_on_c, 0, 86, 95
2, 117279, Note_on_c, 0, 86, 0
2, 117279, Note_on_c, 0, 84, 95
2, 117360, Note_on_c, 0, 84, 0
2, 117360, Note_on_c, 0, 89, 94
2, 117440, Note_on_c, 0, 89, 0
2, 117440, Note_on_c, 0, 86, 94
2, 117519, Note_on_c, 0, 86, 0
2, 117519, Note_on_c, 0, 84, 93
2, 117600, Note_on_c, 0, 84, 0
2, 117600, Note_on_c, 0, 81, 93
2, 117680, Note_on_c, 0, 81, 0
2, 117680, Note_on_c, 0, 84, 92
2, 117759, Note_on_c, 0, 84, 0
2, 117759, Note_on_c, 0, 81, 92
2, 117840, Note_on_c, 0, 81, 0
2, 117840, Note_on_c, 0, 86, 92
2, 117920, Note_on_c, 0, 86, 0
2, 117920, Note_on_c, 0, 84, 91
2, 117999, Note_on_c, 0, 84, 0
2, 117999, Note_on_c, 0, 81, 91
2, 118080, Note_on_c, 0, 81, 0
2, 118080, Note_on_c, 0, 82, 90
2, 118160, Note_on_c, 0, 82, 0
2, 118160, Note_on_c, 0, 84, 90
2, 118239, Note_on_c, 0, 84, 0
2, 118239, Note_on_c, 0, 82, 89
2, 118320, Note_on_c, 0, 82, 0
2, 118320, Note_on_c, 0, 85, 89
2, 118400, Note_on_c, 0, 85, 0
2, 118400, Note_on_c, 0, 84, 89
2, 118479, Note_on_c, 0, 84, 0
2, 118479, Note_on_c, 0, 82, 88
2, 118560, Note_on_c, 0, 82, 0
2, 118560, Note_on_c, 0, 79, 88
2, 118640, Note_on_c, 0, 79, 0
2, 118640, Note_on_c, 0, 81, 87
2, 118719, Note_on_c, 0, 81, 0
2, 118719, Note_on_c, 0, 79, 87
2, 118800, Note_on_c, 0, 79, 0
2, 118800, Note_on_c, 0, 82, 86
2, 118880, Note_on_c, 0, 82, 0
2, 118880, Note_on_c, 0, 81, 86
2, 118959, Note_on_c, 0, 81, 0
2, 118959, Note_on_c, 0, 79, 85
2, 119040, Note_on_c, 0, 79, 0
2, 119040, Note_on_c, 0, 81, 85
2, 119120, Note_on_c, 0, 81, 0
2, 119120, Note_on_c, 0, 82, 85
2, 119199, Note_on_c, 0, 82, 0
2, 119199, Note_on_c, 0, 81, 85
2, 119280, Note_on_c, 0, 81, 0
2, 119280, Note_on_c, 0, 84, 84
2, 119360, Note_on_c, 0, 84, 0
2, 119360, Note_on_c, 0, 82, 84
2, 119439, Note_on_c, 0, 82, 0
2, 119439, Note_on_c, 0, 81, 83
2, 119520, Note_on_c, 0, 81, 0
2, 119520, Note_on_c, 0, 79, 83
2, 119600, Note_on_c, 0, 79, 0
2, 119600, Note_on_c, 0, 81, 82
2, 119679, Note_on_c, 0, 81, 0
2, 119679, Note_on_c, 0, 79, 82
2, 119760, Note_on_c, 0, 79, 0
2, 119760, Note_on_c, 0, 84, 82
2, 119840, Note_on_c, 0, 84, 0
2, 119840, Note_on_c, 0, 81, 81
2, 119919, Note_on_c, 0, 81, 0
2, 119919, Note_on_c, 0, 79, 81
2, 120000, Note_on_c, 0, 79, 0
2, 120000, Note_on_c, 0, 77, 80
2, 120080, Note_on_c, 0, 77, 0
2, 120080, Note_on_c, 0, 81, 80
2, 120159, Note_on_c, 0, 81, 0
2, 120159, Note_on_c, 0, 77, 79
2, 120240, Note_on_c, 0, 77, 0
2, 120240, Note_on_c, 0, 84, 79
2, 120320, Note_on_c, 0, 84, 0
2, 120320, Note_on_c, 0, 81, 79
2, 120399, Note_on_c, 0, 81, 0
2, 120399, Note_on_c, 0, 77, 78
2, 120480, Note_on_c, 0, 77, 0
2, 120480, Note_on_c, 0, 74, 78
2, 120560, Note_on_c, 0, 74, 0
2, 120560, Note_on_c, 0, 77, 77
2, 120639, Note_on_c, 0, 77, 0
2, 120639, Note_on_c, 0, 74, 77
2, 120720, Note_on_c, 0, 74, 0
2, 120720, Note_on_c, 0, 81, 76
2, 120800, Note_on_c, 0, 81, 0
2, 120800, Note_on_c, 0, 77, 76
2, 120879, Note_on_c, 0, 77, 0
2, 120879, Note_on_c, 0, 74, 75
2, 120960, Note_on_c, 0, 74, 0
2, 120960, Note_on_c, 0, 72, 75
2, 121040, Note_on_c, 0, 72, 0
2, 121040, Note_on_c, 0, 74, 75
2, 121119, Note_on_c, 0, 74, 0
2, 121119, Note_on_c, 0, 72, 75
2, 121200, Note_on_c, 0, 72, 0
2, 121200, Note_on_c, 0, 77, 74
2, 121280, Note_on_c, 0, 77, 0
2, 121280, Note_on_c, 0, 74, 74
2, 121359, Note_on_c, 0, 74, 0
2, 121359, Note_on_c, 0, 72, 73
2, 121440, Note_on_c, 0, 72, 0
2, 121440, Note_on_c, 0, 69, 73
2, 121520, Note_on_c, 0, 69, 0
2, 121520, Note_on_c, 0, 72, 72
2, 121599, Note_on_c, 0, 72, 0
2, 121599, Note_on_c, 0, 69, 72
2, 121680, Note_on_c, 0, 69, 0
2, 121680, Note_on_c, 0, 74, 72
2, 121760, Note_on_c, 0, 74, 0
2, 121760, Note_on_c, 0, 72, 71
2, 121839, Note_on_c, 0, 72, 0
2, 121839, Note_on_c, 0, 69, 71
2, 121920, Note_on_c, 0, 69, 0
2, 121920, Note_on_c, 0, 67, 70
2, 122000, Note_on_c, 0, 67, 0
2, 122000, Note_on_c, 0, 69, 70
2, 122079, Note_on_c, 0, 69, 0
2, 122079, Note_on_c, 0, 67, 69
2, 122160, Note_on_c, 0, 67, 0
2, 122160, Note_on_c, 0, 72, 69
2, 122240, Note_on_c, 0, 72, 0
2, 122240, Note_on_c, 0, 69, 69
2, 122319, Note_on_c, 0, 69, 0
2, 122319, Note_on_c, 0, 67, 68
2, 122400, Note_on_c, 0, 67, 0
2, 122400, Note_on_c, 0, 65, 68
2, 122480, Note_on_c, 0, 65, 0
2, 122480, Note_on_c, 0, 67, 67
2, 122559, Note_on_c, 0, 67, 0
2, 122559, Note_on_c, 0, 68, 67
2, 122640, Note_on_c, 0, 68, 0
2, 122640, Note_on_c, 0, 72, 66
2, 122720, Note_on_c, 0, 72, 0
2, 122720, Note_on_c, 0, 68, 66
2, 122799, Note_on_c, 0, 68, 0
2, 122799, Note_on_c, 0, 70, 65
2, 122880, Note_on_c, 0, 70, 0
2, 122880, Note_on_c, 0, 72, 80
2, 122960, Note_on_c, 0, 72, 0
2, 122960, Note_on_c, 0, 74, 81
2, 123039, Note_on_c, 0, 74, 0
2, 123039, Note_on_c, 0, 75, 83
2, 123120, Note_on_c, 0, 75, 0
2, 123120, Note_on_c, 0, 79, 85
2, 123200, Note_on_c, 0, 79, 0
2, 123200, Note_on_c, 0, 75, 82
2, 123279, Note_on_c, 0, 75, 0
2, 123279, Note_on_c, 0, 74, 81
2, 123360, Note_on_c, 0, 74, 0
2, 123360, Note_on_c, 0, 72, 80
2, 123440, Note_on_c, 0, 72, 0
2, 123440, Note_on_c, 0, 74, 81
2, 123519, Note_on_c, 0, 74, 0
2, 123519, Note_on_c, 0, 75, 83
2, 123600, Note_on_c, 0, 75, 0
2, 123600, Note_on_c, 0, 79, 85
2, 123680, Note_on_c, 0, 79, 0
2, 123680, Note_on_c, 0, 75, 81
2, 123759, Note_on_c, 0, 75, 0
2, 123759, Note_on_c, 0, 74, 82
2, 123840, Note_on_c, 0, 74, 0
2, 123840, Note_on_c, 0, 72, 80
2, 123920, Note_on_c, 0, 72, 0
2, 123920, Note_on_c, 0, 74, 81
2, 123999, Note_on_c, 0, 74, 0
2, 123999, Note_on_c, 0, 75, 83
2, 124080, Note_on_c, 0, 75, 0
2, 124080, Note_on_c, 0, 79, 85
2, 124160, Note_on_c, 0, 79, 0
2, 124160, Note_on_c, 0, 75, 81
2, 124239, Note_on_c, 0, 75, 0
2, 124239, Note_on_c, 0, 74, 82
2, 124320, Note_on_c, 0, 74, 0
2, 124320, Note_on_c, 0, 72, 81
2, 124400, Note_on_c, 0, 72, 0
2, 124400, Note_on_c, 0, 74, 83
2, 124479, Note_on_c, 0, 74, 0
2, 124479, Note_on_c, 0, 75, 84
2, 124560, Note_on_c, 0, 75, 0
2, 124560, Note_on_c, 0, 79, 87
2, 124640, Note_on_c, 0, 79, 0
2, 124640, Note_on_c, 0, 75, 84
2, 124719, Note_on_c, 0, 75, 0
2, 124719, Note_on_c, 0, 74, 82
2, 124800, Note_on_c, 0, 74, 0
2, 124800, Note_on_c, 0, 72, 85
2, 124880, Note_on_c, 0, 72, 0
2, 124880, Note_on_c, 0, 74, 86
2, 124959, Note_on_c, 0, 74, 0
2, 124959, Note_on_c, 0, 76, 88
2, 125040, Note_on_c, 0, 76, 0
2, 125040, Note_on_c, 0, 79, 90
2, 125120, Note_on_c, 0, 79, 0
2, 125120, Note_on_c, 0, 76, 88
2, 125199, Note_on_c, 0, 76, 0
2, 125199, Note_on_c, 0, 74, 87
2, 125280, Note_on_c, 0, 74, 0
2, 125280, Note_on_c, 0, 76, 87
2, 125360, Note_on_c, 0, 76, 0
2, 125360, Note_on_c, 0, 77, 88
2, 125439, Note_on_c, 0, 77, 0
2, 125439, Note_on_c, 0, 79, 90
2, 125520, Note_on_c, 0, 79, 0
2, 125520, Note_on_c, 0, 84, 92
2, 125600, Note_on_c, 0, 84, 0
2, 125600, Note_on_c, 0, 79, 89
2, 125679, Note_on_c, 0, 79, 0
2, 125679, Note_on_c, 0, 78, 89
2, 125760, Note_on_c, 0, 78, 0
2, 125760, Note_on_c, 0, 79, 92
2, 125840, Note_on_c, 0, 79, 0
2, 125840, Note_on_c, 0, 83, 94
2, 125919, Note_on_c, 0, 83, 0
2, 125919, Note_on_c, 0, 84, 96
2, 126000, Note_on_c, 0, 84, 0
2, 126000, Note_on_c, 0, 88, 99
2, 126080, Note_on_c, 0, 88, 0
2, 126080, Note_on_c, 0, 84, 98
2, 126159, Note_on_c, 0, 84, 0
2, 126159, Note_on_c, 0, 83, 97
2, 126240, Note_on_c, 0, 83, 0
2, 126240, Note_on_c, 0, 84, 101
2, 126320, Note_on_c, 0, 84, 0
2, 126320, Note_on_c, 0, 86, 102
2, 126399, Note_on_c, 0, 86, 0
2, 126399, Note_on_c, 0, 88, 103
2, 126480, Note_on_c, 0, 88, 0
2, 126480, Note_on_c, 0, 91, 104
2, 126560, Note_on_c, 0, 91, 0
2, 126560, Note_on_c, 0, 88, 101
2, 126639, Note_on_c, 0, 88, 0
2, 126639, Note_on_c, 0, 91, 107
2, 126720, Note_on_c, 0, 91, 0
2, 126720, Note_on_c, 0, 92, 110
2, 126800, Note_on_c, 0, 92, 0
2, 126800, Note_on_c, 0, 88, 110
2, 126879, Note_on_c, 0, 88, 0
2, 126879, Note_on_c, 0, 92, 111
2, 126960, Note_on_c, 0, 92, 0
2, 126960, Note_on_c, 0, 95, 112
2, 127040, Note_on_c, 0, 95, 0
2, 127040, Note_on_c, 0, 92, 109
2, 127119, Note_on_c, 0, 92, 0
2, 127119, Note_on_c, 0, 88, 107
2, 127200, Note_on_c, 0, 88, 0
2, 127200, Note_on_c, 0, 85, 108
2, 127280, Note_on_c, 0, 85, 0
2, 127280, Note_on_c, 0, 88, 109
2, 127359, Note_on_c, 0, 88, 0
2, 127359, Note_on_c, 0, 85, 109
2, 127440, Note_on_c, 0, 85, 0
2, 127440, Note_on_c, 0, 92, 111
2, 127520, Note_on_c, 0, 92, 0
2, 127520, Note_on_c, 0, 88, 108
2, 127599, Note_on_c, 0, 88, 0
2, 127599, Note_on_c, 0, 85, 104
2, 127680, Note_on_c, 0, 85, 0
2, 127680, Note_on_c, 0, 83, 105
2, 127760, Note_on_c, 0, 83, 0
2, 127760, Note_on_c, 0, 85, 106
2, 127839, Note_on_c, 0, 85, 0
2, 127839, Note_on_c, 0, 83, 107
2, 127920, Note_on_c, 0, 83, 0
2, 127920, Note_on_c, 0, 88, 109
2, 128000, Note_on_c, 0, 88, 0
2, 128000, Note_on_c, 0, 85, 107
2, 128079, Note_on_c, 0, 85, 0
2, 128079, Note_on_c, 0, 83, 103
2, 128160, Note_on_c, 0, 83, 0
2, 128160, Note_on_c, 0, 80, 103
2, 128240, Note_on_c, 0, 80, 0
2, 128240, Note_on_c, 0, 83, 104
2, 128319, Note_on_c, 0, 83, 0
2, 128319, Note_on_c, 0, 80, 104
2, 128400, Note_on_c, 0, 80, 0
2, 128400, Note_on_c, 0, 85, 106
2, 128480, Note_on_c, 0, 85, 0
2, 128480, Note_on_c, 0, 83, 103
2, 128559, Note_on_c, 0, 83, 0
2, 128559, Note_on_c, 0, 80, 101
2, 128640, Note_on_c, 0, 80, 0
2, 128640, Note_on_c, 0, 78, 100
2, 128720, Note_on_c, 0, 78, 0
2, 128720, Note_on_c, 0, 80, 101
2, 128799, Note_on_c, 0, 80, 0
2, 128799, Note_on_c, 0, 78, 102
2, 128880, Note_on_c, 0, 78, 0
2, 128880, Note_on_c, 0, 83, 104
2, 128960, Note_on_c, 0, 83, 0
2, 128960, Note_on_c, 0, 80, 102
2, 129039, Note_on_c, 0, 80, 0
2, 129039, Note_on_c, 0, 78, 101
2, 129120, Note_on_c, 0, 78, 0
2, 129120, Note_on_c, 0, 76, 98
2, 129200, Note_on_c, 0, 76, 0
2, 129200, Note_on_c, 0, 78, 98
2, 129279, Note_on_c, 0, 78, 0
2, 129279, Note_on_c, 0, 80, 99
2, 129360, Note_on_c, 0, 80, 0
2, 129360, Note_on_c, 0, 83, 100
2, 129440, Note_on_c, 0, 83, 0
2, 129440, Note_on_c, 0, 80, 99
2, 129519, Note_on_c, 0, 80, 0
2, 129519, Note_on_c, 0, 78, 97
2, 129600, Note_on_c, 0, 78, 0
2, 129600, Note_on_c, 0, 76, 95
2, 129680, Note_on_c, 0, 76, 0
2, 129680, Note_on_c, 0, 78, 96
2, 129759, Note_on_c, 0, 78, 0
2, 129759, Note_on_c, 0, 80, 97
2, 129840, Note_on_c, 0, 80, 0
2, 129840, Note_on_c, 0, 83, 99
2, 129920, Note_on_c, 0, 83, 0
2, 129920, Note_on_c, 0, 80, 97
2, 129999, Note_on_c, 0, 80, 0
2, 129999, Note_on_c, 0, 78, 95
2, 130080, Note_on_c, 0, 78, 0
2, 130080, Note_on_c, 0, 76, 93
2, 130160, Note_on_c, 0, 76, 0
2, 130160, Note_on_c, 0, 80, 95
2, 130239, Note_on_c, 0, 80, 0
2, 130239, Note_on_c, 0, 83, 97
2, 130320, Note_on_c, 0, 83, 0
2, 130320, Note_on_c, 0, 80, 96
2, 130400, Note_on_c, 0, 80, 0
2, 130400, Note_on_c, 0, 78, 94
2, 130479, Note_on_c, 0, 78, 0
2, 130479, Note_on_c, 0, 76, 90
2, 130560, Note_on_c, 0, 76, 0
2, 130560, Note_on_c, 0, 79, 90
2, 130640, Note_on_c, 0, 79, 0
2, 130640, Note_on_c, 0, 81, 91
2, 130719, Note_on_c, 0, 81, 0
2, 130719, Note_on_c, 0, 83, 93
2, 130800, Note_on_c, 0, 83, 0
2, 130800, Note_on_c, 0, 86, 95
2, 130880, Note_on_c, 0, 86, 0
2, 130880, Note_on_c, 0, 83, 93
2, 130959, Note_on_c, 0, 83, 0
2, 130959, Note_on_c, 0, 81, 91
2, 131040, Note_on_c, 0, 81, 0
2, 131040, Note_on_c, 0, 79, 95
2, 131120, Note_on_c, 0, 79, 0
2, 131120, Note_on_c, 0, 81, 96
2, 131199, Note_on_c, 0, 81, 0
2, 131199, Note_on_c, 0, 83, 97
2, 131280, Note_on_c, 0, 83, 0
2, 131280, Note_on_c, 0, 86, 99
2, 131360, Note_on_c, 0, 86, 0
2, 131360, Note_on_c, 0, 83, 98
2, 131439, Note_on_c, 0, 83, 0
2, 131439, Note_on_c, 0, 81, 97
2, 131520, Note_on_c, 0, 81, 0
2, 131520, Note_on_c, 0, 79, 95
2, 131600, Note_on_c, 0, 79, 0
2, 131600, Note_on_c, 0, 81, 96
2, 131679, Note_on_c, 0, 81, 0
2, 131679, Note_on_c, 0, 83, 97
2, 131760, Note_on_c, 0, 83, 0
2, 131760, Note_on_c, 0, 86, 99
2, 131840, Note_on_c, 0, 86, 0
2, 131840, Note_on_c, 0, 83, 98
2, 131919, Note_on_c, 0, 83, 0
2, 131919, Note_on_c, 0, 81, 96
2, 132000, Note_on_c, 0, 81, 0
2, 132000, Note_on_c, 0, 79, 90
2, 132080, Note_on_c, 0, 79, 0
2, 132080, Note_on_c, 0, 81, 91
2, 132159, Note_on_c, 0, 81, 0
2, 132159, Note_on_c, 0, 83, 92
2, 132240, Note_on_c, 0, 83, 0
2, 132240, Note_on_c, 0, 86, 94
2, 132320, Note_on_c, 0, 86, 0
2, 132320, Note_on_c, 0, 83, 93
2, 132399, Note_on_c, 0, 83, 0
2, 132399, Note_on_c, 0, 81, 91
2, 132480, Note_on_c, 0, 81, 0
2, 132480, Note_on_c, 0, 79, 85
2, 132560, Note_on_c, 0, 79, 0
2, 132560, Note_on_c, 0, 83, 88
2, 132639, Note_on_c, 0, 83, 0
2, 132639, Note_on_c, 0, 79, 86
2, 132720, Note_on_c, 0, 79, 0
2, 132720, Note_on_c, 0, 86, 88
2, 132800, Note_on_c, 0, 86, 0
2, 132800, Note_on_c, 0, 83, 89
2, 132879, Note_on_c, 0, 83, 0
2, 132879, Note_on_c, 0, 79, 90
2, 132960, Note_on_c, 0, 79, 0
2, 132960, Note_on_c, 0, 76, 83
2, 133040, Note_on_c, 0, 76, 0
2, 133040, Note_on_c, 0, 79, 84
2, 133119, Note_on_c, 0, 79, 0
2, 133119, Note_on_c, 0, 76, 85
2, 133200, Note_on_c, 0, 76, 0
2, 133200, Note_on_c, 0, 83, 86
2, 133280, Note_on_c, 0, 83, 0
2, 133280, Note_on_c, 0, 79, 87
2, 133359, Note_on_c, 0, 79, 0
2, 133359, Note_on_c, 0, 76, 89
2, 133440, Note_on_c, 0, 76, 0
2, 133440, Note_on_c, 0, 74, 80
2, 133520, Note_on_c, 0, 74, 0
2, 133520, Note_on_c, 0, 76, 81
2, 133599, Note_on_c, 0, 76, 0
2, 133599, Note_on_c, 0, 74, 81
2, 133680, Note_on_c, 0, 74, 0
2, 133680, Note_on_c, 0, 79, 83
2, 133760, Note_on_c, 0, 79, 0
2, 133760, Note_on_c, 0, 76, 84
2, 133839, Note_on_c, 0, 76, 0
2, 133839, Note_on_c, 0, 75, 85
2, 133920, Note_on_c, 0, 75, 0
2, 133920, Note_on_c, 0, 71, 78
2, 134000, Note_on_c, 0, 71, 0
2, 134000, Note_on_c, 0, 75, 80
2, 134079, Note_on_c, 0, 75, 0
2, 134079, Note_on_c, 0, 71, 83
2, 134160, Note_on_c, 0, 71, 0
2, 134160, Note_on_c, 0, 76, 86
2, 134240, Note_on_c, 0, 76, 0
2, 134240, Note_on_c, 0, 75, 89
2, 134319, Note_on_c, 0, 75, 0
2, 134319, Note_on_c, 0, 71, 92
2, 134400, Note_on_c, 0, 71, 0
2, 134400, Note_on_c, 0, 70, 80
2, 134480, Note_on_c, 0, 70, 0
2, 134480, Note_on_c, 0, 74, 80
2, 134559, Note_on_c, 0, 74, 0
2, 134559, Note_on_c, 0, 70, 81
2, 134640, Note_on_c, 0, 70, 0
2, 134640, Note_on_c, 0, 75, 81
2, 134720, Note_on_c, 0, 75, 0
2, 134720, Note_on_c, 0, 74, 82
2, 134799, Note_on_c, 0, 74, 0
2, 134799, Note_on_c, 0, 69, 83
2, 134880, Note_on_c, 0, 69, 0
2, 134880, Note_on_c, 0, 70, 80
2, 134960, Note_on_c, 0, 70, 0
2, 134960, Note_on_c, 0, 74, 81
2, 135039, Note_on_c, 0, 74, 0
2, 135039, Note_on_c, 0, 70, 83
2, 135120, Note_on_c, 0, 70, 0
2, 135120, Note_on_c, 0, 75, 81
2, 135200, Note_on_c, 0, 75, 0
2, 135200, Note_on_c, 0, 74, 80
2, 135279, Note_on_c, 0, 74, 0
2, 135279, Note_on_c, 0, 69, 79
2, 135360, Note_on_c, 0, 69, 0
2, 135360, Note_on_c, 0, 70, 79
2, 135440, Note_on_c, 0, 70, 0
2, 135440, Note_on_c, 0, 74, 80
2, 135519, Note_on_c, 0, 74, 0
2, 135519, Note_on_c, 0, 70, 81
2, 135600, Note_on_c, 0, 70, 0
2, 135600, Note_on_c, 0, 75, 80
2, 135680, Note_on_c, 0, 75, 0
2, 135680, Note_on_c, 0, 74, 79
2, 135759, Note_on_c, 0, 74, 0
2, 135759, Note_on_c, 0, 69, 77
2, 135840, Note_on_c, 0, 69, 0
2, 135840, Note_on_c, 0, 70, 78
2, 135920, Note_on_c, 0, 70, 0
2, 135920, Note_on_c, 0, 74, 79
2, 135999, Note_on_c, 0, 74, 0
2, 135999, Note_on_c, 0, 70, 80
2, 136080, Note_on_c, 0, 70, 0
2, 136080, Note_on_c, 0, 75, 79
2, 136160, Note_on_c, 0, 75, 0
2, 136160, Note_on_c, 0, 74, 78
2, 136239, Note_on_c, 0, 74, 0
2, 136239, Note_on_c, 0, 69, 76
2, 136320, Note_on_c, 0, 69, 0
2, 136320, Note_on_c, 0, 70, 77
2, 136400, Note_on_c, 0, 70, 0
2, 136400, Note_on_c, 0, 72, 78
2, 136479, Note_on_c, 0, 72, 0
2, 136479, Note_on_c, 0, 70, 79
2, 136560, Note_on_c, 0, 70, 0
2, 136560, Note_on_c, 0, 74, 80
2, 136640, Note_on_c, 0, 74, 0
2, 136640, Note_on_c, 0, 72, 78
2, 136719, Note_on_c, 0, 72, 0
2, 136719, Note_on_c, 0, 69, 76
2, 136800, Note_on_c, 0, 69, 0
2, 136800, Note_on_c, 0, 70, 75
2, 136880, Note_on_c, 0, 70, 0
2, 136880, Note_on_c, 0, 72, 76
2, 136959, Note_on_c, 0, 72, 0
2, 136959, Note_on_c, 0, 70, 78
2, 137040, Note_on_c, 0, 70, 0
2, 137040, Note_on_c, 0, 74, 79
2, 137120, Note_on_c, 0, 74, 0
2, 137120, Note_on_c, 0, 72, 78
2, 137199, Note_on_c, 0, 72, 0
2, 137199, Note_on_c, 0, 69, 76
2, 137280, Note_on_c, 0, 69, 0
2, 137280, Note_on_c, 0, 70, 75
2, 137360, Note_on_c, 0, 70, 0
2, 137360, Note_on_c, 0, 72, 76
2, 137439, Note_on_c, 0, 72, 0
2, 137439, Note_on_c, 0, 70, 78
2, 137520, Note_on_c, 0, 70, 0
2, 137520, Note_on_c, 0, 74, 80
2, 137600, Note_on_c, 0, 74, 0
2, 137600, Note_on_c, 0, 72, 78
2, 137679, Note_on_c, 0, 72, 0
2, 137679, Note_on_c, 0, 69, 75
2, 137760, Note_on_c, 0, 69, 0
2, 137760, Note_on_c, 0, 70, 74
2, 137840, Note_on_c, 0, 70, 0
2, 137840, Note_on_c, 0, 72, 75
2, 137919, Note_on_c, 0, 72, 0
2, 137919, Note_on_c, 0, 70, 76
2, 138000, Note_on_c, 0, 70, 0
2, 138000, Note_on_c, 0, 74, 77
2, 138080, Note_on_c, 0, 74, 0
2, 138080, Note_on_c, 0, 72, 75
2, 138159, Note_on_c, 0, 72, 0
2, 138159, Note_on_c, 0, 69, 73
2, 138240, Note_on_c, 0, 69, 0
2, 138240, Note_on_c, 0, 70, 70
2, 138320, Note_on_c, 0, 70, 0
2, 138320, Note_on_c, 0, 72, 70
2, 138399, Note_on_c, 0, 72, 0
2, 138399, Note_on_c, 0, 70, 70
2, 138480, Note_on_c, 0, 70, 0
2, 138480, Note_on_c, 0, 74, 71
2, 138560, Note_on_c, 0, 74, 0
2, 138560, Note_on_c, 0, 72, 71
2, 138639, Note_on_c, 0, 72, 0
2, 138639, Note_on_c, 0, 69, 72
2, 138720, Note_on_c, 0, 69, 0
2, 138720, Note_on_c, 0, 70, 72
2, 138800, Note_on_c, 0, 70, 0
2, 138800, Note_on_c, 0, 72, 73
2, 138879, Note_on_c, 0, 72, 0
2, 138879, Note_on_c, 0, 70, 73
2, 138960, Note_on_c, 0, 70, 0
2, 138960, Note_on_c, 0, 74, 74
2, 139040, Note_on_c, 0, 74, 0
2, 139040, Note_on_c, 0, 72, 74
2, 139119, Note_on_c, 0, 72, 0
2, 139119, Note_on_c, 0, 70, 74
2, 139200, Note_on_c, 0, 70, 0
2, 139200, Note_on_c, 0, 72, 75
2, 139280, Note_on_c, 0, 72, 0
2, 139280, Note_on_c, 0, 74, 75
2, 139359, Note_on_c, 0, 74, 0
2, 139359, Note_on_c, 0, 72, 76
2, 139440, Note_on_c, 0, 72, 0
2, 139440, Note_on_c, 0, 75, 76
2, 139520, Note_on_c, 0, 75, 0
2, 139520, Note_on_c, 0, 74, 77
2, 139599, Note_on_c, 0, 74, 0
2, 139599, Note_on_c, 0, 72, 77
2, 139680, Note_on_c, 0, 72, 0
2, 139680, Note_on_c, 0, 75, 78
2, 139760, Note_on_c, 0, 75, 0
2, 139760, Note_on_c, 0, 77, 78
2, 139839, Note_on_c, 0, 77, 0
2, 139839, Note_on_c, 0, 75, 78
2, 139920, Note_on_c, 0, 75, 0
2, 139920, Note_on_c, 0, 78, 79
2, 140000, Note_on_c, 0, 78, 0
2, 140000, Note_on_c, 0, 77, 79
2, 140079, Note_on_c, 0, 77, 0
2, 140079, Note_on_c, 0, 75, 80
2, 140160, Note_on_c, 0, 75, 0
2, 140160, Note_on_c, 0, 79, 80
2, 140240, Note_on_c, 0, 79, 0
2, 140240, Note_on_c, 0, 81, 81
2, 140319, Note_on_c, 0, 81, 0
2, 140319, Note_on_c, 0, 79, 81
2, 140400, Note_on_c, 0, 79, 0
2, 140400, Note_on_c, 0, 82, 82
2, 140480, Note_on_c, 0, 82, 0
2, 140480, Note_on_c, 0, 81, 82
2, 140559, Note_on_c, 0, 81, 0
2, 140559, Note_on_c, 0, 79, 83
2, 140640, Note_on_c, 0, 79, 0
2, 140640, Note_on_c, 0, 70, 70
2, 140720, Note_on_c, 0, 70, 0
2, 140720, Note_on_c, 0, 72, 70
2, 140799, Note_on_c, 0, 72, 0
2, 140799, Note_on_c, 0, 70, 70
2, 140880, Note_on_c, 0, 70, 0
2, 140880, Note_on_c, 0, 74, 71
2, 140960, Note_on_c, 0, 74, 0
2, 140960, Note_on_c, 0, 72, 71
2, 141039, Note_on_c, 0, 72, 0
2, 141039, Note_on_c, 0, 70, 71
2, 141120, Note_on_c, 0, 70, 0
2, 141120, Note_on_c, 0, 72, 72
2, 141200, Note_on_c, 0, 72, 0
2, 141200, Note_on_c, 0, 74, 72
2, 141279, Note_on_c, 0, 74, 0
2, 141279, Note_on_c, 0, 72, 73
2, 141360, Note_on_c, 0, 72, 0
2, 141360, Note_on_c, 0, 75, 73
2, 141440, Note_on_c, 0, 75, 0
2, 141440, Note_on_c, 0, 74, 73
2, 141519, Note_on_c, 0, 74, 0
2, 141519, Note_on_c, 0, 72, 74
2, 141600, Note_on_c, 0, 72, 0
2, 141600, Note_on_c, 0, 75, 74
2, 141680, Note_on_c, 0, 75, 0
2, 141680, Note_on_c, 0, 77, 75
2, 141759, Note_on_c, 0, 77, 0
2, 141759, Note_on_c, 0, 75, 75
2, 141840, Note_on_c, 0, 75, 0
2, 141840, Note_on_c, 0, 78, 75
2, 141920, Note_on_c, 0, 78, 0
2, 141920, Note_on_c, 0, 77, 76
2, 141999, Note_on_c, 0, 77, 0
2, 141999, Note_on_c, 0, 75, 76
2, 142080, Note_on_c, 0, 75, 0
2, 142080, Note_on_c, 0, 79, 77
2, 142160, Note_on_c, 0, 79, 0
2, 142160, Note_on_c, 0, 81, 77
2, 142239, Note_on_c, 0, 81, 0
2, 142239, Note_on_c, 0, 79, 77
2, 142320, Note_on_c, 0, 79, 0
2, 142320, Note_on_c, 0, 82, 78
2, 142400, Note_on_c, 0, 82, 0
2, 142400, Note_on_c, 0, 81, 78
2, 142479, Note_on_c, 0, 81, 0
2, 142479, Note_on_c, 0, 79, 79
2, 142560, Note_on_c, 0, 79, 0
2, 142560, Note_on_c, 0, 74, 80
2, 142640, Note_on_c, 0, 74, 0
2, 142640, Note_on_c, 0, 75, 80
2, 142719, Note_on_c, 0, 75, 0
2, 142719, Note_on_c, 0, 74, 80
2, 142800, Note_on_c, 0, 74, 0
2, 142800, Note_on_c, 0, 79, 80
2, 142880, Note_on_c, 0, 79, 0
2, 142880, Note_on_c, 0, 75, 80
2, 142959, Note_on_c, 0, 75, 0
2, 142959, Note_on_c, 0, 74, 80
2, 143040, Note_on_c, 0, 74, 0
2, 143040, Note_on_c, 0, 75, 80
2, 143120, Note_on_c, 0, 75, 0
2, 143120, Note_on_c, 0, 77, 80
2, 143199, Note_on_c, 0, 77, 0
2, 143199, Note_on_c, 0, 75, 80
2, 143280, Note_on_c, 0, 75, 0
2, 143280, Note_on_c, 0, 78, 80
2, 143360, Note_on_c, 0, 78, 0
2, 143360, Note_on_c, 0, 77, 80
2, 143439, Note_on_c, 0, 77, 0
2, 143439, Note_on_c, 0, 75, 80
2, 143520, Note_on_c, 0, 75, 0
2, 143520, Note_on_c, 0, 78, 80
2, 143600, Note_on_c, 0, 78, 0
2, 143600, Note_on_c, 0, 80, 80
2, 143679, Note_on_c, 0, 80, 0
2, 143679, Note_on_c, 0, 78, 80
2, 143760, Note_on_c, 0, 78, 0
2, 143760, Note_on_c, 0, 82, 80
2, 143840, Note_on_c, 0, 82, 0
2, 143840, Note_on_c, 0, 80, 80
2, 143919, Note_on_c, 0, 80, 0
2, 143919, Note_on_c, 0, 78, 80
2, 144000, Note_on_c, 0, 78, 0
2, 144000, Note_on_c, 0, 82, 80
2, 144080, Note_on_c, 0, 82, 0
2, 144080, Note_on_c, 0, 84, 80
2, 144159, Note_on_c, 0, 84, 0
2, 144159, Note_on_c, 0, 82, 80
2, 144240, Note_on_c, 0, 82, 0
2, 144240, Note_on_c, 0, 86, 80
2, 144320, Note_on_c, 0, 86, 0
2, 144320, Note_on_c, 0, 84, 80
2, 144399, Note_on_c, 0, 84, 0
2, 144399, Note_on_c, 0, 82, 80
2, 144480, Note_on_c, 0, 82, 0
2, 144480, Note_on_c, 0, 74, 80
2, 144560, Note_on_c, 0, 74, 0
2, 144560, Note_on_c, 0, 75, 80
2, 144639, Note_on_c, 0, 75, 0
2, 144639, Note_on_c, 0, 74, 80
2, 144720, Note_on_c, 0, 74, 0
2, 144720, Note_on_c, 0, 79, 80
2, 144800, Note_on_c, 0, 79, 0
2, 144800, Note_on_c, 0, 75, 80
2, 144879, Note_on_c, 0, 75, 0
2, 144879, Note_on_c, 0, 74, 80
2, 144960, Note_on_c, 0, 74, 0
2, 144960, Note_on_c, 0, 75, 80
2, 145040, Note_on_c, 0, 75, 0
2, 145040, Note_on_c, 0, 77, 80
2, 145119, Note_on_c, 0, 77, 0
2, 145119, Note_on_c, 0, 75, 80
2, 145200, Note_on_c, 0, 75, 0
2, 145200, Note_on_c, 0, 78, 80
2, 145280, Note_on_c, 0, 78, 0
2, 145280, Note_on_c, 0, 77, 80
2, 145359, Note_on_c, 0, 77, 0
2, 145359, Note_on_c, 0, 75, 80
2, 145440, Note_on_c, 0, 75, 0
2, 145440, Note_on_c, 0, 78, 80
2, 145520, Note_on_c, 0, 78, 0
2, 145520, Note_on_c, 0, 80, 80
2, 145599, Note_on_c, 0, 80, 0
2, 145599, Note_on_c, 0, 78, 80
2, 145680, Note_on_c, 0, 78, 0
2, 145680, Note_on_c, 0, 82, 80
2, 145760, Note_on_c, 0, 82, 0
2, 145760, Note_on_c, 0, 80, 80
2, 145839, Note_on_c, 0, 80, 0
2, 145839, Note_on_c, 0, 78, 80
2, 145920, Note_on_c, 0, 78, 0
2, 145920, Note_on_c, 0, 82, 90
2, 146000, Note_on_c, 0, 82, 0
2, 146000, Note_on_c, 0, 84, 90
2, 146079, Note_on_c, 0, 84, 0
2, 146079, Note_on_c, 0, 82, 90
2, 146160, Note_on_c, 0, 82, 0
2, 146160, Note_on_c, 0, 86, 90
2, 146240, Note_on_c, 0, 86, 0
2, 146240, Note_on_c, 0, 84, 90
2, 146319, Note_on_c, 0, 84, 0
2, 146319, Note_on_c, 0, 82, 89
2, 146400, Note_on_c, 0, 82, 0
2, 146400, Note_on_c, 0, 79, 93
2, 146480, Note_on_c, 0, 79, 0
2, 146480, Note_on_c, 0, 81, 92
2, 146559, Note_on_c, 0, 81, 0
2, 146559, Note_on_c, 0, 79, 90
2, 146640, Note_on_c, 0, 79, 0
2, 146640, Note_on_c, 0, 82, 91
2, 146720, Note_on_c, 0, 82, 0
2, 146720, Note_on_c, 0, 81, 90
2, 146799, Note_on_c, 0, 81, 0
2, 146799, Note_on_c, 0, 79, 88
2, 146880, Note_on_c, 0, 79, 0
2, 146880, Note_on_c, 0, 82, 92
2, 146960, Note_on_c, 0, 82, 0
2, 146960, Note_on_c, 0, 84, 93
2, 147039, Note_on_c, 0, 84, 0
2, 147039, Note_on_c, 0, 82, 94
2, 147120, Note_on_c, 0, 82, 0
2, 147120, Note_on_c, 0, 86, 95
2, 147200, Note_on_c, 0, 86, 0
2, 147200, Note_on_c, 0, 84, 94
2, 147279, Note_on_c, 0, 84, 0
2, 147279, Note_on_c, 0, 82, 92
2, 147360, Note_on_c, 0, 82, 0
2, 147360, Note_on_c, 0, 86, 90
2, 147440, Note_on_c, 0, 86, 0
2, 147440, Note_on_c, 0, 87, 90
2, 147519, Note_on_c, 0, 87, 0
2, 147519, Note_on_c, 0, 86, 91
2, 147600, Note_on_c, 0, 86, 0
2, 147600, Note_on_c, 0, 90, 92
2, 147680, Note_on_c, 0, 90, 0
2, 147680, Note_on_c, 0, 87, 91
2, 147759, Note_on_c, 0, 87, 0
2, 147759, Note_on_c, 0, 86, 89
2, 147840, Note_on_c, 0, 86, 0
2, 147840, Note_on_c, 0, 89, 89
2, 147920, Note_on_c, 0, 89, 0
2, 147920, Note_on_c, 0, 91, 90
2, 147999, Note_on_c, 0, 91, 0
2, 147999, Note_on_c, 0, 89, 91
2, 148080, Note_on_c, 0, 89, 0
2, 148080, Note_on_c, 0, 94, 91
2, 148160, Note_on_c, 0, 94, 0
2, 148160, Note_on_c, 0, 91, 89
2, 148239, Note_on_c, 0, 91, 0
2, 148239, Note_on_c, 0, 89, 87
2, 148320, Note_on_c, 0, 89, 0
2, 148320, Note_on_c, 0, 77, 77
2, 148400, Note_on_c, 0, 77, 0
2, 148400, Note_on_c, 0, 79, 78
2, 148479, Note_on_c, 0, 79, 0
2, 148479, Note_on_c, 0, 77, 80
2, 148560, Note_on_c, 0, 77, 0
2, 148560, Note_on_c, 0, 82, 79
2, 148640, Note_on_c, 0, 82, 0
2, 148640, Note_on_c, 0, 79, 77
2, 148719, Note_on_c, 0, 79, 0
2, 148719, Note_on_c, 0, 77, 75
2, 148800, Note_on_c, 0, 77, 0
2, 148800, Note_on_c, 0, 82, 76
2, 148880, Note_on_c, 0, 82, 0
2, 148880, Note_on_c, 0, 84, 77
2, 148959, Note_on_c, 0, 84, 0
2, 148959, Note_on_c, 0, 82, 78
2, 149040, Note_on_c, 0, 82, 0
2, 149040, Note_on_c, 0, 86, 79
2, 149120, Note_on_c, 0, 86, 0
2, 149120, Note_on_c, 0, 84, 77
2, 149199, Note_on_c, 0, 84, 0
2, 149199, Note_on_c, 0, 82, 75
2, 149280, Note_on_c, 0, 82, 0
2, 149280, Note_on_c, 0, 86, 77
2, 149360, Note_on_c, 0, 86, 0
2, 149360, Note_on_c, 0, 87, 79
2, 149439, Note_on_c, 0, 87, 0
2, 149439, Note_on_c, 0, 86, 81
2, 149520, Note_on_c, 0, 86, 0
2, 149520, Note_on_c, 0, 90, 82
2, 149600, Note_on_c, 0, 90, 0
2, 149600, Note_on_c, 0, 87, 80
2, 149679, Note_on_c, 0, 87, 0
2, 149679, Note_on_c, 0, 86, 78
2, 149760, Note_on_c, 0, 86, 0
2, 149760, Note_on_c, 0, 89, 81
2, 149840, Note_on_c, 0, 89, 0
2, 149840, Note_on_c, 0, 91, 82
2, 149919, Note_on_c, 0, 91, 0
2, 149919, Note_on_c, 0, 89, 83
2, 150000, Note_on_c, 0, 89, 0
2, 150000, Note_on_c, 0, 94, 83
2, 150080, Note_on_c, 0, 94, 0
2, 150080, Note_on_c, 0, 91, 81
2, 150159, Note_on_c, 0, 91, 0
2, 150159, Note_on_c, 0, 89, 79
2, 150240, Note_on_c, 0, 89, 0
2, 150240, Note_on_c, 0, 82, 89
2, 150320, Note_on_c, 0, 82, 0
2, 150320, Note_on_c, 0, 84, 85
2, 150399, Note_on_c, 0, 84, 0
2, 150399, Note_on_c, 0, 82, 89
2, 150480, Note_on_c, 0, 82, 0
2, 150480, Note_on_c, 0, 89, 85
2, 150560, Note_on_c, 0, 89, 0
2, 150560, Note_on_c, 0, 86, 85
2, 150639, Note_on_c, 0, 86, 0
2, 150639, Note_on_c, 0, 84, 85
2, 150720, Note_on_c, 0, 84, 0
2, 150720, Note_on_c, 0, 82, 85
2, 150800, Note_on_c, 0, 82, 0
2, 150800, Note_on_c, 0, 84, 85
2, 150879, Note_on_c, 0, 84, 0
2, 150879, Note_on_c, 0, 82, 84
2, 150960, Note_on_c, 0, 82, 0
2, 150960, Note_on_c, 0, 87, 84
2, 151040, Note_on_c, 0, 87, 0
2, 151040, Note_on_c, 0, 84, 84
2, 151119, Note_on_c, 0, 84, 0
2, 151119, Note_on_c, 0, 82, 84
2, 151200, Note_on_c, 0, 82, 0
2, 151200, Note_on_c, 0, 81, 84
2, 151280, Note_on_c, 0, 81, 0
2, 151280, Note_on_c, 0, 82, 84
2, 151359, Note_on_c, 0, 82, 0
2, 151359, Note_on_c, 0, 81, 83
2, 151440, Note_on_c, 0, 81, 0
2, 151440, Note_on_c, 0, 87, 83
2, 151520, Note_on_c, 0, 87, 0
2, 151520, Note_on_c, 0, 84, 83
2, 151599, Note_on_c, 0, 84, 0
2, 151599, Note_on_c, 0, 82, 83
2, 151680, Note_on_c, 0, 82, 0
2, 151680, Note_on_c, 0, 81, 83
2, 151760, Note_on_c, 0, 81, 0
2, 151760, Note_on_c, 0, 82, 83
2, 151839, Note_on_c, 0, 82, 0
2, 151839, Note_on_c, 0, 81, 83
2, 151920, Note_on_c, 0, 81, 0
2, 151920, Note_on_c, 0, 86, 82
2, 152000, Note_on_c, 0, 86, 0
2, 152000, Note_on_c, 0, 82, 82
2, 152079, Note_on_c, 0, 82, 0
2, 152079, Note_on_c, 0, 81, 82
2, 152160, Note_on_c, 0, 81, 0
2, 152160, Note_on_c, 0, 79, 82
2, 152240, Note_on_c, 0, 79, 0
2, 152240, Note_on_c, 0, 81, 82
2, 152319, Note_on_c, 0, 81, 0
2, 152319, Note_on_c, 0, 79, 82
2, 152400, Note_on_c, 0, 79, 0
2, 152400, Note_on_c, 0, 86, 81
2, 152480, Note_on_c, 0, 86, 0
2, 152480, Note_on_c, 0, 82, 81
2, 152559, Note_on_c, 0, 82, 0
2, 152559, Note_on_c, 0, 81, 81
2, 152640, Note_on_c, 0, 81, 0
2, 152640, Note_on_c, 0, 79, 81
2, 152720, Note_on_c, 0, 79, 0
2, 152720, Note_on_c, 0, 81, 81
2, 152799, Note_on_c, 0, 81, 0
2, 152799, Note_on_c, 0, 79, 81
2, 152880, Note_on_c, 0, 79, 0
2, 152880, Note_on_c, 0, 84, 80
2, 152960, Note_on_c, 0, 84, 0
2, 152960, Note_on_c, 0, 81, 80
2, 153039, Note_on_c, 0, 81, 0
2, 153039, Note_on_c, 0, 79, 80
2, 153120, Note_on_c, 0, 79, 0
2, 153120, Note_on_c, 0, 77, 80
2, 153200, Note_on_c, 0, 77, 0
2, 153200, Note_on_c, 0, 79, 80
2, 153279, Note_on_c, 0, 79, 0
2, 153279, Note_on_c, 0, 77, 80
2, 153360, Note_on_c, 0, 77, 0
2, 153360, Note_on_c, 0, 84, 80
2, 153440, Note_on_c, 0, 84, 0
2, 153440, Note_on_c, 0, 81, 79
2, 153519, Note_on_c, 0, 81, 0
2, 153519, Note_on_c, 0, 79, 79
2, 153600, Note_on_c, 0, 79, 0
2, 153600, Note_on_c, 0, 77, 79
2, 153680, Note_on_c, 0, 77, 0
2, 153680, Note_on_c, 0, 79, 79
2, 153759, Note_on_c, 0, 79, 0
2, 153759, Note_on_c, 0, 77, 79
2, 153840, Note_on_c, 0, 77, 0
2, 153840, Note_on_c, 0, 82, 79
2, 153920, Note_on_c, 0, 82, 0
2, 153920, Note_on_c, 0, 79, 78
2, 153999, Note_on_c, 0, 79, 0
2, 153999, Note_on_c, 0, 77, 78
2, 154080, Note_on_c, 0, 77, 0
2, 154080, Note_on_c, 0, 75, 78
2, 154160, Note_on_c, 0, 75, 0
2, 154160, Note_on_c, 0, 77, 78
2, 154239, Note_on_c, 0, 77, 0
2, 154239, Note_on_c, 0, 75, 78
2, 154320, Note_on_c, 0, 75, 0
2, 154320, Note_on_c, 0, 82, 78
2, 154400, Note_on_c, 0, 82, 0
2, 154400, Note_on_c, 0, 79, 77
2, 154479, Note_on_c, 0, 79, 0
2, 154479, Note_on_c, 0, 77, 77
2, 154560, Note_on_c, 0, 77, 0
2, 154560, Note_on_c, 0, 75, 77
2, 154640, Note_on_c, 0, 75, 0
2, 154640, Note_on_c, 0, 77, 77
2, 154719, Note_on_c, 0, 77, 0
2, 154719, Note_on_c, 0, 75, 77
2, 154800, Note_on_c, 0, 75, 0
2, 154800, Note_on_c, 0, 81, 77
2, 154880, Note_on_c, 0, 81, 0
2, 154880, Note_on_c, 0, 77, 77
2, 154959, Note_on_c, 0, 77, 0
2, 154959, Note_on_c, 0, 75, 76
2, 155040, Note_on_c, 0, 75, 0
2, 155040, Note_on_c, 0, 74, 76
2, 155120, Note_on_c, 0, 74, 0
2, 155120, Note_on_c, 0, 75, 76
2, 155199, Note_on_c, 0, 75, 0
2, 155199, Note_on_c, 0, 74, 76
2, 155280, Note_on_c, 0, 74, 0
2, 155280, Note_on_c, 0, 81, 76
2, 155360, Note_on_c, 0, 81, 0
2, 155360, Note_on_c, 0, 77, 76
2, 155439, Note_on_c, 0, 77, 0
2, 155439, Note_on_c, 0, 75, 75
2, 155520, Note_on_c, 0, 75, 0
2, 155520, Note_on_c, 0, 74, 75
2, 155600, Note_on_c, 0, 74, 0
2, 155600, Note_on_c, 0, 75, 75
2, 155679, Note_on_c, 0, 75, 0
2, 155679, Note_on_c, 0, 74, 75
2, 155760, Note_on_c, 0, 74, 0
2, 155760, Note_on_c, 0, 79, 75
2, 155840, Note_on_c, 0, 79, 0
2, 155840, Note_on_c, 0, 75, 75
2, 155919, Note_on_c, 0, 75, 0
2, 155919, Note_on_c, 0, 74, 74
2, 156000, Note_on_c, 0, 74, 0
2, 156000, Note_on_c, 0, 72, 77
2, 156080, Note_on_c, 0, 72, 0
2, 156080, Note_on_c, 0, 74, 74
2, 156159, Note_on_c, 0, 74, 0
2, 156159, Note_on_c, 0, 72, 77
2, 156240, Note_on_c, 0, 72, 0
2, 156240, Note_on_c, 0, 79, 74
2, 156320, Note_on_c, 0, 79, 0
2, 156320, Note_on_c, 0, 75, 74
2, 156399, Note_on_c, 0, 75, 0
2, 156399, Note_on_c, 0, 74, 74
2, 156480, Note_on_c, 0, 74, 0
2, 156480, Note_on_c, 0, 72, 76
2, 156560, Note_on_c, 0, 72, 0
2, 156560, Note_on_c, 0, 74, 73
2, 156639, Note_on_c, 0, 74, 0
2, 156639, Note_on_c, 0, 72, 75
2, 156720, Note_on_c, 0, 72, 0
2, 156720, Note_on_c, 0, 78, 73
2, 156800, Note_on_c, 0, 78, 0
2, 156800, Note_on_c, 0, 74, 73
2, 156879, Note_on_c, 0, 74, 0
2, 156879, Note_on_c, 0, 72, 75
2, 156960, Note_on_c, 0, 72, 0
2, 156960, Note_on_c, 0, 70, 75
2, 157040, Note_on_c, 0, 70, 0
2, 157040, Note_on_c, 0, 72, 74
2, 157119, Note_on_c, 0, 72, 0
2, 157119, Note_on_c, 0, 70, 74
2, 157200, Note_on_c, 0, 70, 0
2, 157200, Note_on_c, 0, 78, 72
2, 157280, Note_on_c, 0, 78, 0
2, 157280, Note_on_c, 0, 72, 74
2, 157359, Note_on_c, 0, 72, 0
2, 157359, Note_on_c, 0, 69, 73
2, 157440, Note_on_c, 0, 69, 0
2, 157440, Note_on_c, 0, 70, 41
2, 157440, Note_on_c, 0, 79, 71
2, 157920, Note_on_c, 0, 79, 0
2, 157920, Note_on_c, 0, 70, 0
2, 157920, Note_on_c, 0, 87, 76
2, 158640, Note_on_c, 0, 87, 0
2, 158640, Note_on_c, 0, 86, 74
2, 158880, Note_on_c, 0, 86, 0
2, 158880, Note_on_c, 0, 82, 73
2, 159120, Note_on_c, 0, 82, 0
2, 159120, Note_on_c, 0, 79, 72
2, 159360, Note_on_c, 0, 79, 0
2, 159360, Note_on_c, 0, 75, 71
2, 159840, Note_on_c, 0, 75, 0
2, 159840, Note_on_c, 0, 86, 74
2, 160560, Note_on_c, 0, 86, 0
2, 160560, Note_on_c, 0, 84, 72
2, 160800, Note_on_c, 0, 84, 0
2, 160800, Note_on_c, 0, 82, 71
2, 161040, Note_on_c, 0, 82, 0
2, 161040, Note_on_c, 0, 79, 70
2, 161280, Note_on_c, 0, 79, 0
2, 161280, Note_on_c, 0, 73, 69
2, 161760, Note_on_c, 0, 73, 0
2, 161760, Note_on_c, 0, 84, 73
2, 162480, Note_on_c, 0, 84, 0
2, 162480, Note_on_c, 0, 82, 70
2, 162720, Note_on_c, 0, 82, 0
2, 162720, Note_on_c, 0, 79, 69
2, 162960, Note_on_c, 0, 79, 0
2, 162960, Note_on_c, 0, 73, 68
2, 163440, Note_on_c, 0, 73, 0
2, 163440, Note_on_c, 0, 74, 69
2, 163680, Note_on_c, 0, 75, 70
2, 163692, Note_on_c, 0, 74, 0
2, 163920, Note_on_c, 0, 76, 71
2, 163932, Note_on_c, 0, 75, 0
2, 164160, Note_on_c, 0, 77, 72
2, 164172, Note_on_c, 0, 76, 0
2, 164640, Note_on_c, 0, 78, 75
2, 164663, Note_on_c, 0, 77, 0
2, 165120, Note_on_c, 0, 82, 75
2, 165143, Note_on_c, 0, 78, 0
2, 165360, Note_on_c, 0, 82, 0
2, 165360, Note_on_c, 0, 79, 73
2, 165600, Note_on_c, 0, 79, 0
2, 165600, Note_on_c, 0, 87, 77
2, 166320, Note_on_c, 0, 87, 0
2, 166320, Note_on_c, 0, 86, 74
2, 166560, Note_on_c, 0, 86, 0
2, 166560, Note_on_c, 0, 82, 73
2, 166719, Note_on_c, 0, 82, 0
2, 166719, Note_on_c, 0, 81, 73
2, 166880, Note_on_c, 0, 81, 0
2, 166880, Note_on_c, 0, 79, 72
2, 167040, Note_on_c, 0, 79, 0
2, 167040, Note_on_c, 0, 75, 71
2, 167520, Note_on_c, 0, 75, 0
2, 167520, Note_on_c, 0, 86, 75
2, 168159, Note_on_c, 0, 86, 0
2, 168159, Note_on_c, 0, 84, 73
2, 168320, Note_on_c, 0, 84, 0
2, 168320, Note_on_c, 0, 82, 72
2, 168480, Note_on_c, 0, 82, 0
2, 168480, Note_on_c, 0, 79, 71
2, 168639, Note_on_c, 0, 79, 0
2, 168639, Note_on_c, 0, 76, 71
2, 168800, Note_on_c, 0, 76, 0
2, 168800, Note_on_c, 0, 74, 70
2, 168960, Note_on_c, 0, 74, 0
2, 168960, Note_on_c, 0, 73, 69
2, 169440, Note_on_c, 0, 73, 0
2, 169440, Note_on_c, 0, 84, 72
2, 170160, Note_on_c, 0, 84, 0
2, 170160, Note_on_c, 0, 82, 69
2, 170400, Note_on_c, 0, 82, 0
2, 170400, Note_on_c, 0, 79, 68
2, 170640, Note_on_c, 0, 79, 0
2, 170640, Note_on_c, 0, 73, 67
2, 171120, Note_on_c, 0, 73, 0
2, 171120, Note_on_c, 0, 74, 69
2, 171360, Note_on_c, 0, 74, 0
2, 171360, Note_on_c, 0, 75, 70
2, 171600, Note_on_c, 0, 75, 0
2, 171600, Note_on_c, 0, 76, 71
2, 171840, Note_on_c, 0, 76, 0
2, 171840, Note_on_c, 0, 77, 72
2, 172320, Note_on_c, 0, 77, 0
2, 172320, Note_on_c, 0, 78, 74
2, 172800, Note_on_c, 0, 78, 0
2, 172800, Note_on_c, 0, 79, 77
2, 173280, Note_on_c, 0, 79, 0
2, 173280, Note_on_c, 0, 79, 77
2, 174000, Note_on_c, 0, 79, 0
2, 174000, Note_on_c, 0, 78, 74
2, 174240, Note_on_c, 0, 78, 0
2, 174240, Note_on_c, 0, 79, 75
2, 174480, Note_on_c, 0, 79, 0
2, 174480, Note_on_c, 0, 82, 78
2, 174720, Note_on_c, 0, 82, 0
2, 174720, Note_on_c, 0, 79, 77
2, 175200, Note_on_c, 0, 79, 0
2, 175200, Note_on_c, 0, 79, 74
2, 175920, Note_on_c, 0, 79, 0
2, 175920, Note_on_c, 0, 78, 75
2, 176160, Note_on_c, 0, 78, 0
2, 176160, Note_on_c, 0, 79, 76
2, 176400, Note_on_c, 0, 79, 0
2, 176400, Note_on_c, 0, 82, 78
2, 176640, Note_on_c, 0, 82, 0
2, 176640, Note_on_c, 0, 79, 77
2, 177120, Note_on_c, 0, 79, 0
2, 177120, Note_on_c, 0, 79, 76
2, 177759, Note_on_c, 0, 79, 0
2, 177759, Note_on_c, 0, 78, 74
2, 177920, Note_on_c, 0, 78, 0
2, 177920, Note_on_c, 0, 79, 76
2, 178080, Note_on_c, 0, 79, 0
2, 178080, Note_on_c, 0, 82, 78
2, 178239, Note_on_c, 0, 82, 0
2, 178239, Note_on_c, 0, 79, 54
2, 178400, Note_on_c, 0, 79, 0
2, 178400, Note_on_c, 0, 78, 75
2, 178560, Note_on_c, 0, 78, 0
2, 178560, Note_on_c, 0, 79, 77
2, 179280, Note_on_c, 0, 79, 0
2, 179280, Note_on_c, 0, 78, 74
2, 179520, Note_on_c, 0, 78, 0
2, 179520, Note_on_c, 0, 79, 74
2, 179760, Note_on_c, 0, 79, 0
2, 179760, Note_on_c, 0, 78, 74
2, 180000, Note_on_c, 0, 78, 0
2, 180000, Note_on_c, 0, 79, 74
2, 180240, Note_on_c, 0, 79, 0
2, 180240, Note_on_c, 0, 78, 73
2, 180480, Note_on_c, 0, 78, 0
2, 180480, Note_on_c, 0, 79, 41
2, 180600, Note_on_c, 0, 79, 0
2, 180600, Note_on_c, 0, 81, 41
2, 180720, Note_on_c, 0, 81, 0
2, 180720, Note_on_c, 0, 82, 41
2, 180840, Note_on_c, 0, 82, 0
2, 180840, Note_on_c, 0, 86, 41
2, 180960, Note_on_c, 0, 86, 0
2, 180960, Note_on_c, 0, 79, 43
2, 181080, Note_on_c, 0, 79, 0
2, 181080, Note_on_c, 0, 81, 44
2, 181200, Note_on_c, 0, 81, 0
2, 181200, Note_on_c, 0, 82, 45
2, 181320, Note_on_c, 0, 82, 0
2, 181320, Note_on_c, 0, 86, 47
2, 181440, Note_on_c, 0, 86, 0
2, 181560, Note_on_c, 0, 81, 50
2, 181680, Note_on_c, 0, 81, 0
2, 181680, Note_on_c, 0, 82, 52
2, 181800, Note_on_c, 0, 82, 0
2, 181800, Note_on_c, 0, 87, 55
2, 181920, Note_on_c, 0, 87, 0
2, 182040, Note_on_c, 0, 81, 51
2, 182160, Note_on_c, 0, 81, 0
2, 182160, Note_on_c, 0, 82, 51
2, 182280, Note_on_c, 0, 82, 0
2, 182280, Note_on_c, 0, 87, 51
2, 182400, Note_on_c, 0, 87, 0
2, 182400, Note_on_c, 0, 82, 52
2, 182520, Note_on_c, 0, 82, 0
2, 182520, Note_on_c, 0, 84, 52
2, 182640, Note_on_c, 0, 84, 0
2, 182640, Note_on_c, 0, 85, 53
2, 182760, Note_on_c, 0, 85, 0
2, 182760, Note_on_c, 0, 89, 53
2, 182880, Note_on_c, 0, 89, 0
2, 182880, Note_on_c, 0, 82, 54
2, 183000, Note_on_c, 0, 82, 0
2, 183000, Note_on_c, 0, 84, 54
2, 183120, Note_on_c, 0, 84, 0
2, 183120, Note_on_c, 0, 85, 55
2, 183240, Note_on_c, 0, 85, 0
2, 183240, Note_on_c, 0, 89, 55
2, 183360, Note_on_c, 0, 89, 0
2, 183360, Note_on_c, 0, 82, 56
2, 183480, Note_on_c, 0, 82, 0
2, 183480, Note_on_c, 0, 84, 56
2, 183600, Note_on_c, 0, 84, 0
2, 183600, Note_on_c, 0, 85, 57
2, 183720, Note_on_c, 0, 85, 0
2, 183720, Note_on_c, 0, 89, 57
2, 183840, Note_on_c, 0, 89, 0
2, 183840, Note_on_c, 0, 82, 58
2, 183960, Note_on_c, 0, 82, 0
2, 183960, Note_on_c, 0, 84, 58
2, 184080, Note_on_c, 0, 84, 0
2, 184080, Note_on_c, 0, 85, 59
2, 184200, Note_on_c, 0, 85, 0
2, 184200, Note_on_c, 0, 89, 59
2, 184320, Note_on_c, 0, 89, 0
2, 184320, Note_on_c, 0, 85, 59
2, 184440, Note_on_c, 0, 85, 0
2, 184440, Note_on_c, 0, 86, 60
2, 184560, Note_on_c, 0, 86, 0
2, 184560, Note_on_c, 0, 88, 60
2, 184680, Note_on_c, 0, 88, 0
2, 184680, Note_on_c, 0, 93, 61
2, 184800, Note_on_c, 0, 93, 0
2, 184800, Note_on_c, 0, 85, 61
2, 184920, Note_on_c, 0, 85, 0
2, 184920, Note_on_c, 0, 86, 62
2, 185040, Note_on_c, 0, 86, 0
2, 185040, Note_on_c, 0, 88, 62
2, 185160, Note_on_c, 0, 88, 0
2, 185160, Note_on_c, 0, 93, 63
2, 185280, Note_on_c, 0, 93, 0
2, 185280, Note_on_c, 0, 85, 63
2, 185400, Note_on_c, 0, 85, 0
2, 185400, Note_on_c, 0, 86, 64
2, 185520, Note_on_c, 0, 86, 0
2, 185520, Note_on_c, 0, 88, 64
2, 185640, Note_on_c, 0, 88, 0
2, 185640, Note_on_c, 0, 93, 65
2, 185760, Note_on_c, 0, 93, 0
2, 185760, Note_on_c, 0, 85, 65
2, 185880, Note_on_c, 0, 85, 0
2, 185880, Note_on_c, 0, 86, 66
2, 186000, Note_on_c, 0, 86, 0
2, 186000, Note_on_c, 0, 88, 66
2, 186120, Note_on_c, 0, 88, 0
2, 186120, Note_on_c, 0, 93, 67
2, 186240, Note_on_c, 0, 93, 0
2, 186240, Note_on_c, 0, 87, 67
2, 186360, Note_on_c, 0, 87, 0
2, 186360, Note_on_c, 0, 89, 67
2, 186480, Note_on_c, 0, 89, 0
2, 186480, Note_on_c, 0, 92, 67
2, 186600, Note_on_c, 0, 92, 0
2, 186600, Note_on_c, 0, 96, 67
2, 186720, Note_on_c, 0, 96, 0
2, 186720, Note_on_c, 0, 87, 68
2, 186840, Note_on_c, 0, 87, 0
2, 186840, Note_on_c, 0, 89, 68
2, 186960, Note_on_c, 0, 89, 0
2, 186960, Note_on_c, 0, 92, 68
2, 187080, Note_on_c, 0, 92, 0
2, 187080, Note_on_c, 0, 96, 69
2, 187200, Note_on_c, 0, 96, 0
2, 187200, Note_on_c, 0, 91, 69
2, 187320, Note_on_c, 0, 91, 0
2, 187320, Note_on_c, 0, 93, 69
2, 187440, Note_on_c, 0, 93, 0
2, 187440, Note_on_c, 0, 94, 70
2, 187560, Note_on_c, 0, 94, 0
2, 187560, Note_on_c, 0, 99, 70
2, 187680, Note_on_c, 0, 99, 0
2, 187680, Note_on_c, 0, 91, 70
2, 187800, Note_on_c, 0, 91, 0
2, 187800, Note_on_c, 0, 93, 71
2, 187920, Note_on_c, 0, 93, 0
2, 187920, Note_on_c, 0, 94, 71
2, 188040, Note_on_c, 0, 94, 0
2, 188040, Note_on_c, 0, 99, 71
2, 188160, Note_on_c, 0, 99, 0
2, 188160, Note_on_c, 0, 98, 75
2, 188240, Note_on_c, 0, 98, 0
2, 188240, Note_on_c, 0, 100, 75
2, 188319, Note_on_c, 0, 100, 0
2, 188319, Note_on_c, 0, 98, 75
2, 188400, Note_on_c, 0, 98, 0
2, 188400, Note_on_c, 0, 103, 75
2, 188480, Note_on_c, 0, 103, 0
2, 188480, Note_on_c, 0, 100, 74
2, 188559, Note_on_c, 0, 100, 0
2, 188559, Note_on_c, 0, 98, 74
2, 188640, Note_on_c, 0, 98, 0
2, 188640, Note_on_c, 0, 95, 74
2, 188720, Note_on_c, 0, 95, 0
2, 188720, Note_on_c, 0, 98, 74
2, 188799, Note_on_c, 0, 98, 0
2, 188799, Note_on_c, 0, 95, 74
2, 188880, Note_on_c, 0, 95, 0
2, 188880, Note_on_c, 0, 100, 73
2, 188960, Note_on_c, 0, 100, 0
2, 188960, Note_on_c, 0, 98, 73
2, 189039, Note_on_c, 0, 98, 0
2, 189039, Note_on_c, 0, 95, 73
2, 189120, Note_on_c, 0, 95, 0
2, 189120, Note_on_c, 0, 91, 72
2, 189200, Note_on_c, 0, 91, 0
2, 189200, Note_on_c, 0, 95, 72
2, 189279, Note_on_c, 0, 95, 0
2, 189279, Note_on_c, 0, 91, 72
2, 189360, Note_on_c, 0, 91, 0
2, 189360, Note_on_c, 0, 98, 72
2, 189440, Note_on_c, 0, 98, 0
2, 189440, Note_on_c, 0, 95, 71
2, 189519, Note_on_c, 0, 95, 0
2, 189519, Note_on_c, 0, 91, 71
2, 189600, Note_on_c, 0, 91, 0
2, 189600, Note_on_c, 0, 88, 71
2, 189680, Note_on_c, 0, 88, 0
2, 189680, Note_on_c, 0, 91, 71
2, 189759, Note_on_c, 0, 91, 0
2, 189759, Note_on_c, 0, 88, 71
2, 189840, Note_on_c, 0, 88, 0
2, 189840, Note_on_c, 0, 95, 70
2, 189920, Note_on_c, 0, 95, 0
2, 189920, Note_on_c, 0, 91, 70
2, 189999, Note_on_c, 0, 91, 0
2, 189999, Note_on_c, 0, 88, 70
2, 190080, Note_on_c, 0, 88, 0
2, 190080, Note_on_c, 0, 86, 69
2, 190160, Note_on_c, 0, 86, 0
2, 190160, Note_on_c, 0, 88, 69
2, 190239, Note_on_c, 0, 88, 0
2, 190239, Note_on_c, 0, 86, 69
2, 190320, Note_on_c, 0, 86, 0
2, 190320, Note_on_c, 0, 91, 69
2, 190400, Note_on_c, 0, 91, 0
2, 190400, Note_on_c, 0, 88, 68
2, 190479, Note_on_c, 0, 88, 0
2, 190479, Note_on_c, 0, 86, 68
2, 190560, Note_on_c, 0, 86, 0
2, 190560, Note_on_c, 0, 83, 68
2, 190640, Note_on_c, 0, 83, 0
2, 190640, Note_on_c, 0, 84, 67
2, 190719, Note_on_c, 0, 84, 0
2, 190719, Note_on_c, 0, 83, 67
2, 190800, Note_on_c, 0, 83, 0
2, 190800, Note_on_c, 0, 86, 67
2, 190880, Note_on_c, 0, 86, 0
2, 190880, Note_on_c, 0, 84, 66
2, 190959, Note_on_c, 0, 84, 0
2, 190959, Note_on_c, 0, 83, 66
2, 191040, Note_on_c, 0, 83, 0
2, 191040, Note_on_c, 0, 84, 66
2, 191120, Note_on_c, 0, 84, 0
2, 191120, Note_on_c, 0, 86, 65
2, 191199, Note_on_c, 0, 86, 0
2, 191199, Note_on_c, 0, 84, 65
2, 191280, Note_on_c, 0, 84, 0
2, 191280, Note_on_c, 0, 87, 65
2, 191360, Note_on_c, 0, 87, 0
2, 191360, Note_on_c, 0, 86, 65
2, 191439, Note_on_c, 0, 86, 0
2, 191439, Note_on_c, 0, 84, 64
2, 191520, Note_on_c, 0, 84, 0
2, 191520, Note_on_c, 0, 81, 64
2, 191600, Note_on_c, 0, 81, 0
2, 191600, Note_on_c, 0, 83, 64
2, 191679, Note_on_c, 0, 83, 0
2, 191679, Note_on_c, 0, 81, 63
2, 191760, Note_on_c, 0, 81, 0
2, 191760, Note_on_c, 0, 84, 63
2, 191840, Note_on_c, 0, 84, 0
2, 191840, Note_on_c, 0, 83, 63
2, 191919, Note_on_c, 0, 83, 0
2, 191919, Note_on_c, 0, 81, 62
2, 192000, Note_on_c, 0, 81, 0
2, 192000, Note_on_c, 0, 86, 62
2, 192080, Note_on_c, 0, 86, 0
2, 192080, Note_on_c, 0, 88, 62
2, 192159, Note_on_c, 0, 88, 0
2, 192159, Note_on_c, 0, 86, 61
2, 192240, Note_on_c, 0, 86, 0
2, 192240, Note_on_c, 0, 91, 61
2, 192320, Note_on_c, 0, 91, 0
2, 192320, Note_on_c, 0, 88, 61
2, 192399, Note_on_c, 0, 88, 0
2, 192399, Note_on_c, 0, 86, 61
2, 192480, Note_on_c, 0, 86, 0
2, 192480, Note_on_c, 0, 83, 60
2, 192560, Note_on_c, 0, 83, 0
2, 192560, Note_on_c, 0, 86, 60
2, 192639, Note_on_c, 0, 86, 0
2, 192639, Note_on_c, 0, 83, 60
2, 192720, Note_on_c, 0, 83, 0
2, 192720, Note_on_c, 0, 88, 59
2, 192800, Note_on_c, 0, 88, 0
2, 192800, Note_on_c, 0, 86, 59
2, 192879, Note_on_c, 0, 86, 0
2, 192879, Note_on_c, 0, 83, 59
2, 192960, Note_on_c, 0, 83, 0
2, 192960, Note_on_c, 0, 79, 58
2, 193040, Note_on_c, 0, 79, 0
2, 193040, Note_on_c, 0, 83, 58
2, 193119, Note_on_c, 0, 83, 0
2, 193119, Note_on_c, 0, 79, 58
2, 193200, Note_on_c, 0, 79, 0
2, 193200, Note_on_c, 0, 86, 57
2, 193280, Note_on_c, 0, 86, 0
2, 193280, Note_on_c, 0, 83, 57
2, 193359, Note_on_c, 0, 83, 0
2, 193359, Note_on_c, 0, 79, 57
2, 193440, Note_on_c, 0, 79, 0
2, 193440, Note_on_c, 0, 76, 56
2, 193520, Note_on_c, 0, 76, 0
2, 193520, Note_on_c, 0, 79, 56
2, 193599, Note_on_c, 0, 79, 0
2, 193599, Note_on_c, 0, 76, 56
2, 193680, Note_on_c, 0, 76, 0
2, 193680, Note_on_c, 0, 83, 56
2, 193760, Note_on_c, 0, 83, 0
2, 193760, Note_on_c, 0, 79, 55
2, 193839, Note_on_c, 0, 79, 0
2, 193839, Note_on_c, 0, 76, 55
2, 193920, Note_on_c, 0, 76, 0
2, 193920, Note_on_c, 0, 74, 55
2, 194000, Note_on_c, 0, 74, 0
2, 194000, Note_on_c, 0, 76, 54
2, 194079, Note_on_c, 0, 76, 0
2, 194079, Note_on_c, 0, 74, 54
2, 194160, Note_on_c, 0, 74, 0
2, 194160, Note_on_c, 0, 79, 54
2, 194240, Note_on_c, 0, 79, 0
2, 194240, Note_on_c, 0, 76, 53
2, 194319, Note_on_c, 0, 76, 0
2, 194319, Note_on_c, 0, 74, 53
2, 194400, Note_on_c, 0, 74, 0
2, 194400, Note_on_c, 0, 71, 53
2, 194480, Note_on_c, 0, 71, 0
2, 194480, Note_on_c, 0, 72, 52
2, 194559, Note_on_c, 0, 72, 0
2, 194559, Note_on_c, 0, 71, 52
2, 194640, Note_on_c, 0, 71, 0
2, 194640, Note_on_c, 0, 74, 52
2, 194720, Note_on_c, 0, 74, 0
2, 194720, Note_on_c, 0, 72, 52
2, 194799, Note_on_c, 0, 72, 0
2, 194799, Note_on_c, 0, 71, 51
2, 194880, Note_on_c, 0, 71, 0
2, 194880, Note_on_c, 0, 72, 51
2, 194960, Note_on_c, 0, 72, 0
2, 194960, Note_on_c, 0, 74, 51
2, 195039, Note_on_c, 0, 74, 0
2, 195039, Note_on_c, 0, 72, 50
2, 195120, Note_on_c, 0, 72, 0
2, 195120, Note_on_c, 0, 75, 50
2, 195200, Note_on_c, 0, 75, 0
2, 195200, Note_on_c, 0, 74, 50
2, 195279, Note_on_c, 0, 74, 0
2, 195279, Note_on_c, 0, 72, 49
2, 195360, Note_on_c, 0, 72, 0
2, 195360, Note_on_c, 0, 69, 49
2, 195440, Note_on_c, 0, 69, 0
2, 195440, Note_on_c, 0, 71, 49
2, 195519, Note_on_c, 0, 71, 0
2, 195519, Note_on_c, 0, 69, 48
2, 195600, Note_on_c, 0, 69, 0
2, 195600, Note_on_c, 0, 72, 48
2, 195680, Note_on_c, 0, 72, 0
2, 195680, Note_on_c, 0, 71, 48
2, 195759, Note_on_c, 0, 71, 0
2, 195759, Note_on_c, 0, 69, 47
2, 195840, Note_on_c, 0, 69, 0
2, 195840, Note_on_c, 0, 74, 41
2, 195920, Note_on_c, 0, 74, 0
2, 195920, Note_on_c, 0, 76, 41
2, 195999, Note_on_c, 0, 76, 0
2, 195999, Note_on_c, 0, 74, 41
2, 196080, Note_on_c, 0, 74, 0
2, 196080, Note_on_c, 0, 79, 41
2, 196160, Note_on_c, 0, 79, 0
2, 196160, Note_on_c, 0, 76, 41
2, 196239, Note_on_c, 0, 76, 0
2, 196239, Note_on_c, 0, 74, 41
2, 196320, Note_on_c, 0, 74, 0
2, 196320, Note_on_c, 0, 71, 41
2, 196400, Note_on_c, 0, 71, 0
2, 196400, Note_on_c, 0, 74, 41
2, 196479, Note_on_c, 0, 74, 0
2, 196479, Note_on_c, 0, 71, 41
2, 196560, Note_on_c, 0, 71, 0
2, 196560, Note_on_c, 0, 76, 41
2, 196640, Note_on_c, 0, 76, 0
2, 196640, Note_on_c, 0, 74, 41
2, 196719, Note_on_c, 0, 74, 0
2, 196719, Note_on_c, 0, 71, 41
2, 196800, Note_on_c, 0, 71, 0
2, 196800, Note_on_c, 0, 67, 41
2, 196880, Note_on_c, 0, 67, 0
2, 196880, Note_on_c, 0, 71, 41
2, 196959, Note_on_c, 0, 71, 0
2, 196959, Note_on_c, 0, 67, 41
2, 197040, Note_on_c, 0, 67, 0
2, 197040, Note_on_c, 0, 74, 41
2, 197120, Note_on_c, 0, 74, 0
2, 197120, Note_on_c, 0, 71, 41
2, 197199, Note_on_c, 0, 71, 0
2, 197199, Note_on_c, 0, 67, 41
2, 197280, Note_on_c, 0, 67, 0
2, 197280, Note_on_c, 0, 64, 41
2, 197360, Note_on_c, 0, 64, 0
2, 197360, Note_on_c, 0, 67, 41
2, 197439, Note_on_c, 0, 67, 0
2, 197439, Note_on_c, 0, 64, 41
2, 197520, Note_on_c, 0, 64, 0
2, 197520, Note_on_c, 0, 71, 41
2, 197600, Note_on_c, 0, 71, 0
2, 197600, Note_on_c, 0, 67, 41
2, 197679, Note_on_c, 0, 67, 0
2, 197679, Note_on_c, 0, 64, 41
2, 197760, Note_on_c, 0, 64, 0
2, 197760, Note_on_c, 0, 62, 41
2, 197840, Note_on_c, 0, 62, 0
2, 197840, Note_on_c, 0, 64, 42
2, 197919, Note_on_c, 0, 64, 0
2, 197919, Note_on_c, 0, 67, 43
2, 198000, Note_on_c, 0, 67, 0
2, 198000, Note_on_c, 0, 64, 44
2, 198080, Note_on_c, 0, 64, 0
2, 198080, Note_on_c, 0, 67, 45
2, 198159, Note_on_c, 0, 67, 0
2, 198159, Note_on_c, 0, 71, 47
2, 198240, Note_on_c, 0, 71, 0
2, 198240, Note_on_c, 0, 67, 46
2, 198320, Note_on_c, 0, 67, 0
2, 198320, Note_on_c, 0, 71, 48
2, 198399, Note_on_c, 0, 71, 0
2, 198399, Note_on_c, 0, 74, 50
2, 198480, Note_on_c, 0, 74, 0
2, 198480, Note_on_c, 0, 64, 44
2, 198560, Note_on_c, 0, 64, 0
2, 198560, Note_on_c, 0, 67, 47
2, 198639, Note_on_c, 0, 67, 0
2, 198639, Note_on_c, 0, 71, 51
2, 198720, Note_on_c, 0, 71, 0
2, 198720, Note_on_c, 0, 67, 47
2, 198800, Note_on_c, 0, 67, 0
2, 198800, Note_on_c, 0, 71, 48
2, 198879, Note_on_c, 0, 71, 0
2, 198879, Note_on_c, 0, 74, 49
2, 198960, Note_on_c, 0, 74, 0
2, 198960, Note_on_c, 0, 71, 50
2, 199040, Note_on_c, 0, 71, 0
2, 199040, Note_on_c, 0, 74, 51
2, 199119, Note_on_c, 0, 74, 0
2, 199119, Note_on_c, 0, 76, 53
2, 199200, Note_on_c, 0, 76, 0
2, 199200, Note_on_c, 0, 67, 50
2, 199280, Note_on_c, 0, 67, 0
2, 199280, Note_on_c, 0, 71, 51
2, 199359, Note_on_c, 0, 71, 0
2, 199359, Note_on_c, 0, 74, 52
2, 199440, Note_on_c, 0, 74, 0
2, 199440, Note_on_c, 0, 71, 54
2, 199520, Note_on_c, 0, 71, 0
2, 199520, Note_on_c, 0, 74, 55
2, 199599, Note_on_c, 0, 74, 0
2, 199599, Note_on_c, 0, 76, 56
2, 199600, Note_on_c, 0, 71, 57
2, 199640, Note_on_c, 0, 76, 41
2, 199680, Note_on_c, 0, 76, 0
2, 199680, Note_on_c, 0, 79, 41
2, 200640, Note_on_c, 0, 79, 0
2, 200640, Note_on_c, 0, 76, 0
2, 200640, Note_on_c, 0, 71, 0
2, 200640, Note_on_c, 0, 67, 41
2, 201143, Note_on_c, 0, 67, 0
2, 201600, Note_on_c, 0, 67, 41
2, 201600, Note_on_c, 0, 74, 41
2, 203520, Note_on_c, 0, 74, 0
2, 203520, Note_on_c, 0, 67, 0
2, 203520, End_track
3, 0, Start_track
3, 0, Title_t, "1 Piano LH"
3, 0, Program_c, 0, 0
3, 0, Control_c, 0, 7, 105
3, 0, Control_c, 0, 10, 54
3, 960, Note_on_c, 0, 70, 69
3, 2400, Note_on_c, 0, 70, 0
3, 2880, Note_on_c, 0, 70, 65
3, 4320, Note_on_c, 0, 70, 0
3, 4800, Note_on_c, 0, 74, 69
3, 6240, Note_on_c, 0, 74, 0
3, 6720, Note_on_c, 0, 74, 67
3, 8160, Note_on_c, 0, 74, 0
3, 8640, Note_on_c, 0, 78, 71
3, 9600, Note_on_c, 0, 77, 69
3, 9647, Note_on_c, 0, 78, 0
3, 10080, Note_on_c, 0, 77, 0
3, 10560, Note_on_c, 0, 78, 69
3, 11520, Note_on_c, 0, 77, 67
3, 11567, Note_on_c, 0, 78, 0
3, 12000, Note_on_c, 0, 77, 0
3, 12480, Note_on_c, 0, 72, 71
3, 13440, Note_on_c, 0, 70, 74
3, 13487, Note_on_c, 0, 72, 0
3, 13920, Note_on_c, 0, 70, 0
3, 14400, Note_on_c, 0, 69, 75
3, 15360, Note_on_c, 0, 67, 77
3, 15407, Note_on_c, 0, 69, 0
3, 16320, Note_on_c, 0, 67, 0
3, 16320, Note_on_c, 0, 70, 75
3, 17280, Note_on_c, 0, 70, 0
3, 17280, Note_on_c, 0, 67, 69
3, 18240, Note_on_c, 0, 67, 0
3, 18240, Note_on_c, 0, 70, 69
3, 19200, Note_on_c, 0, 70, 0
3, 19200, Note_on_c, 0, 67, 69
3, 20160, Note_on_c, 0, 67, 0
3, 20160, Note_on_c, 0, 66, 69
3, 21120, Note_on_c, 0, 66, 0
3, 21120, Note_on_c, 0, 67, 69
3, 22080, Note_on_c, 0, 67, 0
3, 22080, Note_on_c, 0, 66, 69
3, 23040, Note_on_c, 0, 66, 0
3, 23040, Note_on_c, 0, 67, 69
3, 24000, Note_on_c, 0, 67, 0
3, 24000, Note_on_c, 0, 66, 69
3, 24960, Note_on_c, 0, 66, 0
3, 24960, Note_on_c, 0, 67, 69
3, 25920, Note_on_c, 0, 67, 0
3, 25920, Note_on_c, 0, 66, 93
3, 26880, Note_on_c, 0, 66, 0
3, 26880, Note_on_c, 0, 72, 82
3, 27120, Note_on_c, 0, 72, 0
3, 27120, Note_on_c, 0, 70, 80
3, 27840, Note_on_c, 0, 70, 0
3, 27840, Note_on_c, 0, 67, 80
3, 28080, Note_on_c, 0, 67, 0
3, 28080, Note_on_c, 0, 69, 78
3, 28800, Note_on_c, 0, 69, 0
3, 28800, Note_on_c, 0, 69, 78
3, 29040, Note_on_c, 0, 69, 0
3, 29040, Note_on_c, 0, 67, 73
3, 29760, Note_on_c, 0, 67, 0
3, 29760, Note_on_c, 0, 63, 77
3, 30000, Note_on_c, 0, 63, 0
3, 30000, Note_on_c, 0, 65, 72
3, 30720, Note_on_c, 0, 65, 0
3, 30720, Note_on_c, 0, 65, 75
3, 30960, Note_on_c, 0, 65, 0
3, 30960, Note_on_c, 0, 63, 71
3, 31680, Note_on_c, 0, 63, 0
3, 31680, Note_on_c, 0, 60, 74
3, 31920, Note_on_c, 0, 60, 0
3, 31920, Note_on_c, 0, 62, 76
3, 32640, Note_on_c, 0, 62, 0
3, 32640, Note_on_c, 0, 62, 75
3, 32880, Note_on_c, 0, 62, 0
3, 32880, Note_on_c, 0, 60, 73
3, 33360, Note_on_c, 0, 60, 0
3, 33360, Note_on_c, 0, 62, 74
3, 33600, Note_on_c, 0, 62, 0
3, 33600, Note_on_c, 0, 63, 71
3, 34080, Note_on_c, 0, 63, 0
3, 34080, Note_on_c, 0, 62, 72
3, 34320, Note_on_c, 0, 62, 0
3, 34320, Note_on_c, 0, 60, 69
3, 34560, Note_on_c, 0, 60, 0
3, 34560, Note_on_c, 0, 58, 85
3, 34560, Note_on_c, 0, 62, 85
3, 35040, Note_on_c, 0, 62, 0
3, 35040, Note_on_c, 0, 58, 0
3, 35040, Note_on_c, 0, 74, 114
3, 35760, Note_on_c, 0, 74, 0
3, 35760, Note_on_c, 0, 73, 112
3, 36240, Note_on_c, 0, 72, 110
3, 36263, Note_on_c, 0, 73, 0
3, 36480, Note_on_c, 0, 72, 109
3, 36492, Note_on_c, 0, 72, 0
3, 36960, Note_on_c, 0, 72, 108
3, 36983, Note_on_c, 0, 72, 0
3, 37680, Note_on_c, 0, 72, 0
3, 37680, Note_on_c, 0, 68, 93
3, 37920, Note_on_c, 0, 68, 0
3, 37920, Note_on_c, 0, 64, 93
3, 38160, Note_on_c, 0, 64, 0
3, 38160, Note_on_c, 0, 61, 93
3, 38400, Note_on_c, 0, 61, 0
3, 38400, Note_on_c, 0, 60, 93
3, 38880, Note_on_c, 0, 60, 0
3, 38880, Note_on_c, 0, 72, 93
3, 39519, Note_on_c, 0, 72, 0
3, 39519, Note_on_c, 0, 68, 93
3, 39680, Note_on_c, 0, 68, 0
3, 39680, Note_on_c, 0, 64, 93
3, 39840, Note_on_c, 0, 64, 0
3, 39840, Note_on_c, 0, 64, 93
3, 39999, Note_on_c, 0, 64, 0
3, 39999, Note_on_c, 0, 61, 93
3, 40160, Note_on_c, 0, 61, 0
3, 40160, Note_on_c, 0, 60, 93
3, 40320, Note_on_c, 0, 60, 0
3, 40320, Note_on_c, 0, 60, 93
3, 40800, Note_on_c, 0, 60, 0
3, 40800, Note_on_c, 0, 77, 93
3, 41520, Note_on_c, 0, 77, 0
3, 41520, Note_on_c, 0, 75, 93
3, 42000, Note_on_c, 0, 75, 0
3, 42000, Note_on_c, 0, 74, 93
3, 42240, Note_on_c, 0, 74, 0
3, 42240, Note_on_c, 0, 75, 93
3, 42720, Note_on_c, 0, 75, 0
3, 42720, Note_on_c, 0, 80, 93
3, 43440, Note_on_c, 0, 80, 0
3, 43440, Note_on_c, 0, 79, 93
3, 43680, Note_on_c, 0, 79, 0
3, 43680, Note_on_c, 0, 75, 93
3, 43920, Note_on_c, 0, 75, 0
3, 43920, Note_on_c, 0, 72, 93
3, 44160, Note_on_c, 0, 72, 0
3, 44160, Note_on_c, 0, 68, 93
3, 44640, Note_on_c, 0, 68, 0
3, 44640, Note_on_c, 0, 79, 93
3, 45360, Note_on_c, 0, 79, 0
3, 45360, Note_on_c, 0, 77, 93
3, 45600, Note_on_c, 0, 77, 0
3, 45600, Note_on_c, 0, 75, 93
3, 45840, Note_on_c, 0, 75, 0
3, 45840, Note_on_c, 0, 72, 93
3, 46080, Note_on_c, 0, 72, 0
3, 46080, Note_on_c, 0, 66, 93
3, 46560, Note_on_c, 0, 66, 0
3, 46560, Note_on_c, 0, 77, 93
3, 47280, Note_on_c, 0, 77, 0
3, 47280, Note_on_c, 0, 75, 93
3, 47520, Note_on_c, 0, 75, 0
3, 47520, Note_on_c, 0, 72, 93
3, 47760, Note_on_c, 0, 72, 0
3, 47760, Note_on_c, 0, 66, 93
3, 48000, Note_on_c, 0, 66, 0
3, 48000, Note_on_c, 0, 66, 93
3, 48240, Note_on_c, 0, 66, 0
3, 48240, Note_on_c, 0, 67, 93
3, 48480, Note_on_c, 0, 67, 0
3, 48480, Note_on_c, 0, 68, 93
3, 48720, Note_on_c, 0, 68, 0
3, 48720, Note_on_c, 0, 69, 93
3, 48960, Note_on_c, 0, 69, 0
3, 48960, Note_on_c, 0, 70, 93
3, 49440, Note_on_c, 0, 70, 0
3, 49440, Note_on_c, 0, 71, 93
3, 49920, Note_on_c, 0, 71, 0
3, 49920, Note_on_c, 0, 75, 93
3, 50160, Note_on_c, 0, 75, 0
3, 50160, Note_on_c, 0, 72, 93
3, 50400, Note_on_c, 0, 72, 0
3, 50400, Note_on_c, 0, 80, 93
3, 51120, Note_on_c, 0, 80, 0
3, 51120, Note_on_c, 0, 79, 93
3, 51360, Note_on_c, 0, 75, 93
3, 51372, Note_on_c, 0, 79, 0
3, 51519, Note_on_c, 0, 74, 93
3, 51527, Note_on_c, 0, 75, 0
3, 51680, Note_on_c, 0, 72, 93
3, 51688, Note_on_c, 0, 74, 0
3, 51840, Note_on_c, 0, 68, 93
3, 51847, Note_on_c, 0, 72, 0
3, 52320, Note_on_c, 0, 79, 93
3, 52343, Note_on_c, 0, 68, 0
3, 52959, Note_on_c, 0, 79, 0
3, 52959, Note_on_c, 0, 77, 93
3, 53120, Note_on_c, 0, 75, 93
3, 53128, Note_on_c, 0, 77, 0
3, 53280, Note_on_c, 0, 75, 93
3, 53287, Note_on_c, 0, 75, 0
3, 53439, Note_on_c, 0, 72, 93
3, 53447, Note_on_c, 0, 75, 0
3, 53600, Note_on_c, 0, 69, 93
3, 53608, Note_on_c, 0, 72, 0
3, 53760, Note_on_c, 0, 66, 93
3, 53767, Note_on_c, 0, 69, 0
3, 54240, Note_on_c, 0, 77, 93
3, 54263, Note_on_c, 0, 66, 0
3, 54960, Note_on_c, 0, 77, 0
3, 54960, Note_on_c, 0, 75, 93
3, 55200, Note_on_c, 0, 72, 93
3, 55212, Note_on_c, 0, 75, 0
3, 55440, Note_on_c, 0, 66, 93
3, 55452, Note_on_c, 0, 72, 0
3, 55680, Note_on_c, 0, 66, 93
3, 55692, Note_on_c, 0, 66, 0
3, 55920, Note_on_c, 0, 66, 0
3, 55920, Note_on_c, 0, 67, 93
3, 56160, Note_on_c, 0, 67, 0
3, 56160, Note_on_c, 0, 68, 93
3, 56400, Note_on_c, 0, 68, 0
3, 56400, Note_on_c, 0, 69, 93
3, 56640, Note_on_c, 0, 69, 0
3, 56640, Note_on_c, 0, 70, 93
3, 57120, Note_on_c, 0, 70, 0
3, 57120, Note_on_c, 0, 71, 93
3, 57600, Note_on_c, 0, 71, 0
3, 57600, Note_on_c, 0, 72, 93
3, 58080, Note_on_c, 0, 72, 93
3, 58103, Note_on_c, 0, 72, 0
3, 58800, Note_on_c, 0, 72, 0
3, 58800, Note_on_c, 0, 71, 93
3, 59040, Note_on_c, 0, 71, 0
3, 59040, Note_on_c, 0, 72, 93
3, 59280, Note_on_c, 0, 72, 0
3, 59280, Note_on_c, 0, 75, 93
3, 59520, Note_on_c, 0, 75, 0
3, 59520, Note_on_c, 0, 72, 93
3, 60000, Note_on_c, 0, 72, 0
3, 60000, Note_on_c, 0, 72, 93
3, 60639, Note_on_c, 0, 72, 0
3, 60639, Note_on_c, 0, 71, 93
3, 60800, Note_on_c, 0, 71, 0
3, 60800, Note_on_c, 0, 72, 93
3, 60960, Note_on_c, 0, 72, 0
3, 60960, Note_on_c, 0, 75, 93
3, 61119, Note_on_c, 0, 75, 0
3, 61119, Note_on_c, 0, 72, 93
3, 61280, Note_on_c, 0, 72, 0
3, 61280, Note_on_c, 0, 71, 93
3, 61440, Note_on_c, 0, 71, 0
3, 61440, Note_on_c, 0, 72, 93
3, 62160, Note_on_c, 0, 72, 0
3, 62160, Note_on_c, 0, 71, 77
3, 62400, Note_on_c, 0, 71, 0
3, 62400, Note_on_c, 0, 72, 77
3, 62640, Note_on_c, 0, 72, 0
3, 62640, Note_on_c, 0, 71, 76
3, 62880, Note_on_c, 0, 71, 0
3, 62880, Note_on_c, 0, 72, 75
3, 63120, Note_on_c, 0, 72, 0
3, 63120, Note_on_c, 0, 71, 74
3, 63360, Note_on_c, 0, 71, 0
3, 63360, Note_on_c, 0, 72, 73
3, 64080, Note_on_c, 0, 72, 0
3, 64080, Note_on_c, 0, 71, 74
3, 64320, Note_on_c, 0, 71, 0
3, 64320, Note_on_c, 0, 72, 73
3, 64560, Note_on_c, 0, 72, 0
3, 64560, Note_on_c, 0, 71, 72
3, 64800, Note_on_c, 0, 71, 0
3, 64800, Note_on_c, 0, 72, 71
3, 65040, Note_on_c, 0, 72, 0
3, 65040, Note_on_c, 0, 71, 70
3, 65280, Note_on_c, 0, 71, 0
3, 65280, Note_on_c, 0, 70, 68
3, 66240, Note_on_c, 0, 70, 0
3, 66240, Note_on_c, 0, 66, 80
3, 67200, Note_on_c, 0, 66, 0
3, 67200, Note_on_c, 0, 67, 80
3, 68160, Note_on_c, 0, 67, 0
3, 68160, Note_on_c, 0, 66, 80
3, 69120, Note_on_c, 0, 66, 0
3, 69120, Note_on_c, 0, 67, 80
3, 70080, Note_on_c, 0, 67, 0
3, 70080, Note_on_c, 0, 63, 80
3, 71040, Note_on_c, 0, 63, 0
3, 71040, Note_on_c, 0, 67, 80
3, 72000, Note_on_c, 0, 67, 0
3, 72000, Note_on_c, 0, 63, 80
3, 72960, Note_on_c, 0, 63, 0
3, 72960, Note_on_c, 0, 67, 80
3, 73920, Note_on_c, 0, 67, 0
3, 73920, Note_on_c, 0, 64, 80
3, 74880, Note_on_c, 0, 64, 0
3, 74880, Note_on_c, 0, 63, 80
3, 76320, Note_on_c, 0, 63, 0
3, 76320, Note_on_c, 0, 62, 80
3, 76800, Note_on_c, 0, 62, 0
3, 76800, Note_on_c, 0, 61, 75
3, 77760, Note_on_c, 0, 61, 0
3, 77760, Note_on_c, 0, 60, 70
3, 78720, Note_on_c, 0, 60, 0
3, 78720, Note_on_c, 0, 61, 70
3, 80640, Note_on_c, 0, 61, 0
3, 80640, Note_on_c, 0, 62, 40
3, 81120, Note_on_c, 0, 62, 0
3, 81120, Note_on_c, 0, 69, 40
3, 81840, Note_on_c, 0, 69, 0
3, 81840, Note_on_c, 0, 66, 39
3, 82320, Note_on_c, 0, 66, 0
3, 82320, Note_on_c, 0, 64, 38
3, 82560, Note_on_c, 0, 64, 0
3, 82560, Note_on_c, 0, 62, 42
3, 83040, Note_on_c, 0, 62, 0
3, 83040, Note_on_c, 0, 69, 41
3, 83760, Note_on_c, 0, 69, 0
3, 83760, Note_on_c, 0, 66, 40
3, 84240, Note_on_c, 0, 66, 0
3, 84240, Note_on_c, 0, 63, 39
3, 84480, Note_on_c, 0, 63, 0
3, 84480, Note_on_c, 0, 62, 50
3, 84720, Note_on_c, 0, 62, 0
3, 84720, Note_on_c, 0, 69, 50
3, 84960, Note_on_c, 0, 69, 0
3, 84960, Note_on_c, 0, 66, 49
3, 85200, Note_on_c, 0, 66, 0
3, 85200, Note_on_c, 0, 69, 48
3, 85440, Note_on_c, 0, 69, 0
3, 85440, Note_on_c, 0, 66, 48
3, 85680, Note_on_c, 0, 66, 0
3, 85680, Note_on_c, 0, 69, 47
3, 85920, Note_on_c, 0, 69, 0
3, 85920, Note_on_c, 0, 63, 46
3, 86160, Note_on_c, 0, 63, 0
3, 86160, Note_on_c, 0, 67, 45
3, 86400, Note_on_c, 0, 67, 0
3, 86400, Note_on_c, 0, 62, 55
3, 86559, Note_on_c, 0, 62, 0
3, 86559, Note_on_c, 0, 69, 55
3, 86720, Note_on_c, 0, 69, 0
3, 86720, Note_on_c, 0, 66, 55
3, 86880, Note_on_c, 0, 66, 0
3, 86880, Note_on_c, 0, 69, 54
3, 87039, Note_on_c, 0, 69, 0
3, 87039, Note_on_c, 0, 66, 54
3, 87200, Note_on_c, 0, 66, 0
3, 87200, Note_on_c, 0, 69, 53
3, 87360, Note_on_c, 0, 69, 0
3, 87360, Note_on_c, 0, 69, 53
3, 87519, Note_on_c, 0, 69, 0
3, 87519, Note_on_c, 0, 66, 52
3, 87680, Note_on_c, 0, 66, 0
3, 87680, Note_on_c, 0, 69, 52
3, 87840, Note_on_c, 0, 69, 0
3, 87840, Note_on_c, 0, 63, 51
3, 87999, Note_on_c, 0, 63, 0
3, 87999, Note_on_c, 0, 67, 51
3, 88160, Note_on_c, 0, 67, 0
3, 88160, Note_on_c, 0, 63, 50
3, 88320, Note_on_c, 0, 63, 0
3, 88320, Note_on_c, 0, 62, 55
3, 88440, Note_on_c, 0, 62, 0
3, 88440, Note_on_c, 0, 63, 55
3, 88560, Note_on_c, 0, 63, 0
3, 88560, Note_on_c, 0, 66, 54
3, 88680, Note_on_c, 0, 66, 0
3, 88680, Note_on_c, 0, 69, 53
3, 88800, Note_on_c, 0, 69, 0
3, 88800, Note_on_c, 0, 62, 53
3, 88920, Note_on_c, 0, 62, 0
3, 88920, Note_on_c, 0, 63, 52
3, 89040, Note_on_c, 0, 63, 0
3, 89040, Note_on_c, 0, 66, 51
3, 89160, Note_on_c, 0, 66, 0
3, 89160, Note_on_c, 0, 69, 51
3, 89280, Note_on_c, 0, 69, 0
3, 89280, Note_on_c, 0, 66, 50
3, 89400, Note_on_c, 0, 66, 0
3, 89400, Note_on_c, 0, 67, 49
3, 89520, Note_on_c, 0, 67, 0
3, 89520, Note_on_c, 0, 69, 49
3, 89640, Note_on_c, 0, 69, 0
3, 89640, Note_on_c, 0, 72, 48
3, 89760, Note_on_c, 0, 72, 0
3, 89760, Note_on_c, 0, 66, 47
3, 89880, Note_on_c, 0, 66, 0
3, 89880, Note_on_c, 0, 67, 47
3, 90000, Note_on_c, 0, 67, 0
3, 90000, Note_on_c, 0, 69, 46
3, 90120, Note_on_c, 0, 69, 0
3, 90120, Note_on_c, 0, 72, 45
3, 90240, Note_on_c, 0, 72, 0
3, 92160, Note_on_c, 0, 62, 41
3, 93600, Note_on_c, 0, 62, 41
3, 93672, Note_on_c, 0, 62, 0
3, 94080, Note_on_c, 0, 65, 50
3, 94103, Note_on_c, 0, 62, 0
3, 95520, Note_on_c, 0, 65, 41
3, 95592, Note_on_c, 0, 65, 0
3, 96000, Note_on_c, 0, 69, 60
3, 96023, Note_on_c, 0, 65, 0
3, 97440, Note_on_c, 0, 69, 41
3, 97512, Note_on_c, 0, 69, 0
3, 97920, Note_on_c, 0, 68, 70
3, 97920, Note_on_c, 0, 72, 70
3, 97943, Note_on_c, 0, 69, 0
3, 98400, Note_on_c, 0, 72, 68
3, 98423, Note_on_c, 0, 72, 0
3, 98423, Note_on_c, 0, 68, 0
3, 98880, Note_on_c, 0, 67, 73
3, 98880, Note_on_c, 0, 70, 73
3, 98880, Note_on_c, 0, 75, 73
3, 98903, Note_on_c, 0, 72, 0
3, 99360, Note_on_c, 0, 75, 81
3, 99383, Note_on_c, 0, 67, 0
3, 99383, Note_on_c, 0, 75, 0
3, 99383, Note_on_c, 0, 70, 0
3, 99780, Note_on_c, 0, 66, 75
3, 99780, Note_on_c, 0, 70, 75
3, 99780, Note_on_c, 0, 73, 75
3, 99780, Note_on_c, 0, 78, 75
3, 99840, Note_on_c, 0, 78, 0
3, 99840, Note_on_c, 0, 70, 0
3, 99840, Note_on_c, 0, 73, 0
3, 99840, Note_on_c, 0, 66, 0
3, 99840, Note_on_c, 0, 66, 87
3, 99840, Note_on_c, 0, 70, 87
3, 99840, Note_on_c, 0, 73, 87
3, 99840, Note_on_c, 0, 78, 87
3, 99863, Note_on_c, 0, 75, 0
3, 102240, Note_on_c, 0, 73, 0
3, 102240, Note_on_c, 0, 66, 0
3, 102240, Note_on_c, 0, 70, 0
3, 102240, Note_on_c, 0, 78, 0
3, 102240, Note_on_c, 0, 70, 83
3, 102960, Note_on_c, 0, 70, 0
3, 102960, Note_on_c, 0, 68, 81
3, 103200, Note_on_c, 0, 68, 0
3, 103200, Note_on_c, 0, 62, 81
3, 103520, Note_on_c, 0, 62, 0
3, 103520, Note_on_c, 0, 59, 80
3, 103680, Note_on_c, 0, 59, 0
3, 103680, Note_on_c, 0, 58, 79
3, 106080, Note_on_c, 0, 58, 0
3, 106080, Note_on_c, 0, 61, 75
3, 107040, Note_on_c, 0, 61, 78
3, 107087, Note_on_c, 0, 61, 0
3, 107520, Note_on_c, 0, 61, 81
3, 107543, Note_on_c, 0, 61, 0
3, 108960, Note_on_c, 0, 61, 0
3, 108960, Note_on_c, 0, 61, 70
3, 109440, Note_on_c, 0, 61, 0
3, 109440, Note_on_c, 0, 64, 75
3, 110880, Note_on_c, 0, 64, 41
3, 110952, Note_on_c, 0, 64, 0
3, 111360, Note_on_c, 0, 69, 80
3, 111383, Note_on_c, 0, 64, 0
3, 112800, Note_on_c, 0, 69, 41
3, 112872, Note_on_c, 0, 69, 0
3, 113280, Note_on_c, 0, 67, 88
3, 113280, Note_on_c, 0, 71, 88
3, 113303, Note_on_c, 0, 69, 0
3, 113760, Note_on_c, 0, 71, 91
3, 113783, Note_on_c, 0, 71, 0
3, 113783, Note_on_c, 0, 67, 0
3, 114240, Note_on_c, 0, 66, 92
3, 114240, Note_on_c, 0, 69, 92
3, 114240, Note_on_c, 0, 74, 92
3, 114263, Note_on_c, 0, 71, 0
3, 114720, Note_on_c, 0, 74, 95
3, 114743, Note_on_c, 0, 66, 0
3, 114743, Note_on_c, 0, 74, 0
3, 114743, Note_on_c, 0, 69, 0
3, 115140, Note_on_c, 0, 65, 77
3, 115140, Note_on_c, 0, 69, 77
3, 115140, Note_on_c, 0, 72, 77
3, 115140, Note_on_c, 0, 77, 77
3, 115200, Note_on_c, 0, 77, 0
3, 115200, Note_on_c, 0, 69, 0
3, 115200, Note_on_c, 0, 72, 0
3, 115200, Note_on_c, 0, 65, 0
3, 115200, Note_on_c, 0, 65, 84
3, 115200, Note_on_c, 0, 69, 84
3, 115200, Note_on_c, 0, 72, 84
3, 115200, Note_on_c, 0, 77, 84
3, 115223, Note_on_c, 0, 74, 0
3, 117600, Note_on_c, 0, 72, 0
3, 117600, Note_on_c, 0, 65, 0
3, 117600, Note_on_c, 0, 69, 0
3, 117600, Note_on_c, 0, 77, 0
3, 117600, Note_on_c, 0, 69, 85
3, 118320, Note_on_c, 0, 69, 0
3, 118320, Note_on_c, 0, 67, 82
3, 118560, Note_on_c, 0, 67, 0
3, 118560, Note_on_c, 0, 61, 81
3, 118880, Note_on_c, 0, 61, 0
3, 118880, Note_on_c, 0, 58, 80
3, 119040, Note_on_c, 0, 58, 0
3, 119040, Note_on_c, 0, 57, 79
3, 121440, Note_on_c, 0, 57, 0
3, 121440, Note_on_c, 0, 60, 77
3, 122400, Note_on_c, 0, 60, 80
3, 122447, Note_on_c, 0, 60, 0
3, 122880, Note_on_c, 0, 60, 84
3, 122880, Note_on_c, 0, 63, 84
3, 122880, Note_on_c, 0, 67, 84
3, 122903, Note_on_c, 0, 60, 0
3, 124320, Note_on_c, 0, 60, 0
3, 124320, Note_on_c, 0, 63, 0
3, 124320, Note_on_c, 0, 67, 0
3, 124320, Note_on_c, 0, 67, 80
3, 124800, Note_on_c, 0, 67, 0
3, 124800, Note_on_c, 0, 60, 87
3, 124800, Note_on_c, 0, 64, 87
3, 124800, Note_on_c, 0, 67, 87
3, 125760, Note_on_c, 0, 67, 0
3, 125760, Note_on_c, 0, 64, 0
3, 125760, Note_on_c, 0, 60, 0
3, 125760, Note_on_c, 0, 60, 93
3, 125760, Note_on_c, 0, 64, 93
3, 125760, Note_on_c, 0, 67, 93
3, 126240, Note_on_c, 0, 67, 0
3, 126240, Note_on_c, 0, 64, 0
3, 126240, Note_on_c, 0, 60, 0
3, 126240, Note_on_c, 0, 64, 93
3, 126720, Note_on_c, 0, 64, 0
3, 126720, Note_on_c, 0, 64, 99
3, 126720, Note_on_c, 0, 68, 99
3, 126720, Note_on_c, 0, 71, 99
3, 129120, Note_on_c, 0, 71, 0
3, 129120, Note_on_c, 0, 68, 0
3, 129120, Note_on_c, 0, 64, 0
3, 129120, Note_on_c, 0, 71, 119
3, 130080, Note_on_c, 0, 71, 119
3, 130127, Note_on_c, 0, 71, 0
3, 130560, Note_on_c, 0, 62, 93
3, 130560, Note_on_c, 0, 67, 93
3, 130560, Note_on_c, 0, 71, 93
3, 130583, Note_on_c, 0, 71, 0
3, 132480, Note_on_c, 0, 62, 0
3, 132480, Note_on_c, 0, 67, 0
3, 132480, Note_on_c, 0, 71, 0
3, 132480, Note_on_c, 0, 62, 93
3, 133440, Note_on_c, 0, 62, 93
3, 133487, Note_on_c, 0, 62, 0
3, 134400, Note_on_c, 0, 62, 70
3, 134400, Note_on_c, 0, 67, 70
3, 134447, Note_on_c, 0, 62, 0
3, 137760, Note_on_c, 0, 67, 0
3, 137760, Note_on_c, 0, 62, 0
3, 137760, Note_on_c, 0, 67, 80
3, 138720, Note_on_c, 0, 67, 0
3, 138720, Note_on_c, 0, 67, 76
3, 139440, Note_on_c, 0, 67, 0
3, 139440, Note_on_c, 0, 66, 73
3, 139920, Note_on_c, 0, 66, 0
3, 139920, Note_on_c, 0, 63, 71
3, 140160, Note_on_c, 0, 58, 69
3, 140400, Note_on_c, 0, 63, 0
3, 140640, Note_on_c, 0, 58, 0
3, 140640, Note_on_c, 0, 67, 75
3, 141360, Note_on_c, 0, 67, 0
3, 141360, Note_on_c, 0, 66, 73
3, 141600, Note_on_c, 0, 66, 0
3, 141600, Note_on_c, 0, 63, 73
3, 141840, Note_on_c, 0, 63, 0
3, 141840, Note_on_c, 0, 60, 72
3, 142080, Note_on_c, 0, 60, 0
3, 142080, Note_on_c, 0, 58, 71
3, 142560, Note_on_c, 0, 58, 0
3, 142560, Note_on_c, 0, 70, 80
3, 143280, Note_on_c, 0, 70, 0
3, 143280, Note_on_c, 0, 66, 80
3, 143760, Note_on_c, 0, 66, 0
3, 143760, Note_on_c, 0, 63, 80
3, 144000, Note_on_c, 0, 63, 0
3, 144000, Note_on_c, 0, 62, 80
3, 144480, Note_on_c, 0, 62, 0
3, 144480, Note_on_c, 0, 70, 80
3, 145200, Note_on_c, 0, 70, 0
3, 145200, Note_on_c, 0, 66, 75
3, 145440, Note_on_c, 0, 66, 0
3, 145440, Note_on_c, 0, 63, 73
3, 145680, Note_on_c, 0, 63, 0
3, 145680, Note_on_c, 0, 70, 81
3, 145920, Note_on_c, 0, 70, 0
3, 145920, Note_on_c, 0, 62, 77
3, 146400, Note_on_c, 0, 62, 0
3, 146400, Note_on_c, 0, 74, 80
3, 147120, Note_on_c, 0, 74, 0
3, 147120, Note_on_c, 0, 70, 80
3, 147600, Note_on_c, 0, 70, 0
3, 147600, Note_on_c, 0, 66, 80
3, 147840, Note_on_c, 0, 66, 0
3, 147840, Note_on_c, 0, 65, 83
3, 148320, Note_on_c, 0, 65, 0
3, 148320, Note_on_c, 0, 74, 81
3, 149040, Note_on_c, 0, 74, 0
3, 149040, Note_on_c, 0, 70, 77
3, 149280, Note_on_c, 0, 70, 0
3, 149280, Note_on_c, 0, 66, 76
3, 149520, Note_on_c, 0, 66, 0
3, 149520, Note_on_c, 0, 70, 75
3, 149760, Note_on_c, 0, 70, 0
3, 149760, Note_on_c, 0, 65, 79
3, 150240, Note_on_c, 0, 65, 0
3, 150240, Note_on_c, 0, 74, 76
3, 150240, Note_on_c, 0, 77, 76
3, 150720, Note_on_c, 0, 72, 73
3, 150720, Note_on_c, 0, 75, 73
3, 150743, Note_on_c, 0, 77, 0
3, 150743, Note_on_c, 0, 74, 0
3, 151680, Note_on_c, 0, 70, 80
3, 151680, Note_on_c, 0, 74, 80
3, 151727, Note_on_c, 0, 72, 0
3, 151727, Note_on_c, 0, 75, 0
3, 152640, Note_on_c, 0, 69, 80
3, 152640, Note_on_c, 0, 72, 80
3, 152687, Note_on_c, 0, 70, 0
3, 152687, Note_on_c, 0, 74, 0
3, 153600, Note_on_c, 0, 67, 74
3, 153600, Note_on_c, 0, 70, 74
3, 153647, Note_on_c, 0, 69, 0
3, 153647, Note_on_c, 0, 72, 0
3, 154560, Note_on_c, 0, 65, 73
3, 154560, Note_on_c, 0, 69, 73
3, 154607, Note_on_c, 0, 67, 0
3, 154607, Note_on_c, 0, 70, 0
3, 155520, Note_on_c, 0, 63, 78
3, 155520, Note_on_c, 0, 67, 78
3, 155567, Note_on_c, 0, 65, 0
3, 155567, Note_on_c, 0, 69, 0
3, 156480, Note_on_c, 0, 62, 75
3, 156480, Note_on_c, 0, 66, 75
3, 156527, Note_on_c, 0, 63, 0
3, 156527, Note_on_c, 0, 67, 0
3, 157440, Note_on_c, 0, 62, 71
3, 157440, Note_on_c, 0, 67, 71
3, 157487, Note_on_c, 0, 62, 0
3, 157487, Note_on_c, 0, 66, 0
3, 157920, Note_on_c, 0, 62, 0
3, 157920, Note_on_c, 0, 67, 0
3, 157920, Note_on_c, 0, 75, 76
3, 158640, Note_on_c, 0, 75, 0
3, 158640, Note_on_c, 0, 74, 74
3, 158880, Note_on_c, 0, 74, 0
3, 158880, Note_on_c, 0, 70, 73
3, 159120, Note_on_c, 0, 70, 0
3, 159120, Note_on_c, 0, 67, 72
3, 159360, Note_on_c, 0, 67, 0
3, 159360, Note_on_c, 0, 63, 71
3, 159840, Note_on_c, 0, 63, 0
3, 159840, Note_on_c, 0, 74, 74
3, 160560, Note_on_c, 0, 74, 0
3, 160560, Note_on_c, 0, 72, 72
3, 160800, Note_on_c, 0, 72, 0
3, 160800, Note_on_c, 0, 70, 71
3, 161040, Note_on_c, 0, 70, 0
3, 161040, Note_on_c, 0, 67, 70
3, 161280, Note_on_c, 0, 67, 0
3, 161280, Note_on_c, 0, 61, 69
3, 161760, Note_on_c, 0, 61, 0
3, 161760, Note_on_c, 0, 72, 73
3, 162480, Note_on_c, 0, 72, 0
3, 162480, Note_on_c, 0, 70, 70
3, 162720, Note_on_c, 0, 70, 0
3, 162720, Note_on_c, 0, 67, 69
3, 162960, Note_on_c, 0, 67, 0
3, 162960, Note_on_c, 0, 61, 68
3, 163440, Note_on_c, 0, 61, 0
3, 163440, Note_on_c, 0, 62, 69
3, 163680, Note_on_c, 0, 62, 0
3, 163680, Note_on_c, 0, 63, 70
3, 163920, Note_on_c, 0, 63, 0
3, 163920, Note_on_c, 0, 64, 71
3, 164160, Note_on_c, 0, 64, 0
3, 164160, Note_on_c, 0, 65, 72
3, 164640, Note_on_c, 0, 65, 0
3, 164640, Note_on_c, 0, 66, 75
3, 165120, Note_on_c, 0, 66, 0
3, 165120, Note_on_c, 0, 70, 75
3, 165360, Note_on_c, 0, 70, 0
3, 165360, Note_on_c, 0, 67, 73
3, 165600, Note_on_c, 0, 67, 0
3, 165600, Note_on_c, 0, 75, 77
3, 166320, Note_on_c, 0, 75, 0
3, 166320, Note_on_c, 0, 74, 74
3, 166560, Note_on_c, 0, 74, 0
3, 166560, Note_on_c, 0, 70, 73
3, 166719, Note_on_c, 0, 70, 0
3, 166719, Note_on_c, 0, 69, 73
3, 166880, Note_on_c, 0, 69, 0
3, 166880, Note_on_c, 0, 67, 72
3, 167040, Note_on_c, 0, 67, 0
3, 167040, Note_on_c, 0, 63, 71
3, 167520, Note_on_c, 0, 63, 0
3, 167520, Note_on_c, 0, 74, 75
3, 168159, Note_on_c, 0, 74, 0
3, 168159, Note_on_c, 0, 72, 73
3, 168320, Note_on_c, 0, 72, 0
3, 168320, Note_on_c, 0, 70, 72
3, 168480, Note_on_c, 0, 70, 0
3, 168480, Note_on_c, 0, 67, 71
3, 168639, Note_on_c, 0, 67, 0
3, 168639, Note_on_c, 0, 64, 71
3, 168800, Note_on_c, 0, 64, 0
3, 168800, Note_on_c, 0, 62, 70
3, 168960, Note_on_c, 0, 62, 0
3, 168960, Note_on_c, 0, 61, 69
3, 169440, Note_on_c, 0, 61, 0
3, 169440, Note_on_c, 0, 72, 72
3, 170160, Note_on_c, 0, 72, 0
3, 170160, Note_on_c, 0, 70, 69
3, 170400, Note_on_c, 0, 70, 0
3, 170400, Note_on_c, 0, 67, 68
3, 170640, Note_on_c, 0, 67, 0
3, 170640, Note_on_c, 0, 61, 67
3, 171120, Note_on_c, 0, 61, 0
3, 171120, Note_on_c, 0, 62, 69
3, 171360, Note_on_c, 0, 62, 0
3, 171360, Note_on_c, 0, 63, 70
3, 171600, Note_on_c, 0, 63, 0
3, 171600, Note_on_c, 0, 64, 71
3, 171840, Note_on_c, 0, 64, 0
3, 171840, Note_on_c, 0, 65, 72
3, 172320, Note_on_c, 0, 65, 0
3, 172320, Note_on_c, 0, 66, 74
3, 172800, Note_on_c, 0, 66, 0
3, 172800, Note_on_c, 0, 67, 77
3, 173280, Note_on_c, 0, 67, 0
3, 173280, Note_on_c, 0, 67, 77
3, 174000, Note_on_c, 0, 67, 0
3, 174000, Note_on_c, 0, 66, 74
3, 174240, Note_on_c, 0, 66, 0
3, 174240, Note_on_c, 0, 67, 75
3, 174480, Note_on_c, 0, 67, 0
3, 174480, Note_on_c, 0, 70, 78
3, 174720, Note_on_c, 0, 70, 0
3, 174720, Note_on_c, 0, 67, 77
3, 175200, Note_on_c, 0, 67, 0
3, 175200, Note_on_c, 0, 67, 74
3, 175920, Note_on_c, 0, 67, 0
3, 175920, Note_on_c, 0, 66, 75
3, 176160, Note_on_c, 0, 66, 0
3, 176160, Note_on_c, 0, 67, 76
3, 176400, Note_on_c, 0, 67, 0
3, 176400, Note_on_c, 0, 70, 78
3, 176640, Note_on_c, 0, 70, 0
3, 176640, Note_on_c, 0, 67, 77
3, 177120, Note_on_c, 0, 67, 0
3, 177120, Note_on_c, 0, 67, 76
3, 177759, Note_on_c, 0, 67, 0
3, 177759, Note_on_c, 0, 66, 74
3, 177920, Note_on_c, 0, 66, 0
3, 177920, Note_on_c, 0, 67, 76
3, 178080, Note_on_c, 0, 67, 0
3, 178080, Note_on_c, 0, 70, 78
3, 178239, Note_on_c, 0, 70, 0
3, 178239, Note_on_c, 0, 67, 80
3, 178400, Note_on_c, 0, 67, 0
3, 178400, Note_on_c, 0, 66, 75
3, 178560, Note_on_c, 0, 66, 0
3, 178560, Note_on_c, 0, 67, 77
3, 179280, Note_on_c, 0, 67, 0
3, 179280, Note_on_c, 0, 66, 74
3, 179520, Note_on_c, 0, 66, 0
3, 179520, Note_on_c, 0, 67, 74
3, 179760, Note_on_c, 0, 67, 0
3, 179760, Note_on_c, 0, 66, 74
3, 180000, Note_on_c, 0, 66, 0
3, 180000, Note_on_c, 0, 67, 74
3, 180240, Note_on_c, 0, 67, 0
3, 180240, Note_on_c, 0, 66, 73
3, 180480, Note_on_c, 0, 66, 0
3, 180480, Note_on_c, 0, 67, 69
3, 181200, Note_on_c, 0, 67, 0
3, 181200, Note_on_c, 0, 66, 69
3, 181200, Note_on_c, 0, 78, 69
3, 181440, Note_on_c, 0, 78, 0
3, 181440, Note_on_c, 0, 66, 0
3, 181440, Note_on_c, 0, 67, 69
3, 181440, Note_on_c, 0, 79, 69
3, 181680, Note_on_c, 0, 79, 0
3, 181680, Note_on_c, 0, 67, 0
3, 181680, Note_on_c, 0, 66, 70
3, 181680, Note_on_c, 0, 78, 70
3, 181920, Note_on_c, 0, 78, 0
3, 181920, Note_on_c, 0, 66, 0
3, 181920, Note_on_c, 0, 67, 70
3, 181920, Note_on_c, 0, 79, 70
3, 182160, Note_on_c, 0, 79, 0
3, 182160, Note_on_c, 0, 67, 0
3, 182160, Note_on_c, 0, 66, 71
3, 182160, Note_on_c, 0, 78, 71
3, 182400, Note_on_c, 0, 78, 0
3, 182400, Note_on_c, 0, 66, 0
3, 182400, Note_on_c, 0, 67, 72
3, 182400, Note_on_c, 0, 79, 72
3, 183120, Note_on_c, 0, 79, 0
3, 183120, Note_on_c, 0, 67, 0
3, 183120, Note_on_c, 0, 66, 72
3, 183120, Note_on_c, 0, 78, 72
3, 183360, Note_on_c, 0, 78, 0
3, 183360, Note_on_c, 0, 66, 0
3, 183360, Note_on_c, 0, 67, 72
3, 183360, Note_on_c, 0, 79, 72
3, 183600, Note_on_c, 0, 79, 0
3, 183600, Note_on_c, 0, 67, 0
3, 183600, Note_on_c, 0, 66, 71
3, 183600, Note_on_c, 0, 78, 71
3, 183840, Note_on_c, 0, 78, 0
3, 183840, Note_on_c, 0, 66, 0
3, 183840, Note_on_c, 0, 67, 71
3, 183840, Note_on_c, 0, 79, 71
3, 184080, Note_on_c, 0, 79, 0
3, 184080, Note_on_c, 0, 67, 0
3, 184080, Note_on_c, 0, 66, 70
3, 184080, Note_on_c, 0, 78, 70
3, 184320, Note_on_c, 0, 78, 0
3, 184320, Note_on_c, 0, 66, 0
3, 184320, Note_on_c, 0, 67, 69
3, 184320, Note_on_c, 0, 79, 69
3, 185040, Note_on_c, 0, 79, 0
3, 185040, Note_on_c, 0, 67, 0
3, 185040, Note_on_c, 0, 66, 71
3, 185040, Note_on_c, 0, 78, 71
3, 185280, Note_on_c, 0, 78, 0
3, 185280, Note_on_c, 0, 66, 0
3, 185280, Note_on_c, 0, 67, 71
3, 185280, Note_on_c, 0, 79, 71
3, 185520, Note_on_c, 0, 79, 0
3, 185520, Note_on_c, 0, 67, 0
3, 185520, Note_on_c, 0, 66, 71
3, 185520, Note_on_c, 0, 78, 71
3, 185760, Note_on_c, 0, 78, 0
3, 185760, Note_on_c, 0, 66, 0
3, 185760, Note_on_c, 0, 67, 72
3, 185760, Note_on_c, 0, 79, 72
3, 186000, Note_on_c, 0, 79, 0
3, 186000, Note_on_c, 0, 67, 0
3, 186000, Note_on_c, 0, 66, 72
3, 186000, Note_on_c, 0, 78, 72
3, 186240, Note_on_c, 0, 78, 0
3, 186240, Note_on_c, 0, 66, 0
3, 186240, Note_on_c, 0, 67, 73
3, 186240, Note_on_c, 0, 79, 73
3, 186960, Note_on_c, 0, 79, 0
3, 186960, Note_on_c, 0, 67, 0
3, 186960, Note_on_c, 0, 66, 72
3, 186960, Note_on_c, 0, 78, 72
3, 187200, Note_on_c, 0, 78, 0
3, 187200, Note_on_c, 0, 66, 0
3, 187200, Note_on_c, 0, 67, 72
3, 187200, Note_on_c, 0, 79, 72
3, 187440, Note_on_c, 0, 79, 0
3, 187440, Note_on_c, 0, 67, 0
3, 187440, Note_on_c, 0, 66, 73
3, 187440, Note_on_c, 0, 78, 73
3, 187680, Note_on_c, 0, 78, 0
3, 187680, Note_on_c, 0, 66, 0
3, 187680, Note_on_c, 0, 67, 73
3, 187680, Note_on_c, 0, 79, 73
3, 187920, Note_on_c, 0, 79, 0
3, 187920, Note_on_c, 0, 67, 0
3, 187920, Note_on_c, 0, 66, 74
3, 187920, Note_on_c, 0, 78, 74
3, 188100, Note_on_c, 0, 67, 67
3, 188100, Note_on_c, 0, 71, 67
3, 188100, Note_on_c, 0, 74, 67
3, 188100, Note_on_c, 0, 79, 67
3, 188160, Note_on_c, 0, 79, 0
3, 188160, Note_on_c, 0, 78, 0
3, 188160, Note_on_c, 0, 67, 0
3, 188160, Note_on_c, 0, 66, 0
3, 188160, Note_on_c, 0, 74, 0
3, 188160, Note_on_c, 0, 71, 0
3, 188160, Note_on_c, 0, 67, 73
3, 188160, Note_on_c, 0, 71, 73
3, 188160, Note_on_c, 0, 74, 73
3, 188160, Note_on_c, 0, 79, 73
3, 190560, Note_on_c, 0, 79, 0
3, 190560, Note_on_c, 0, 67, 0
3, 190560, Note_on_c, 0, 71, 0
3, 190560, Note_on_c, 0, 74, 0
3, 190560, Note_on_c, 0, 71, 80
3, 191280, Note_on_c, 0, 71, 0
3, 191280, Note_on_c, 0, 69, 77
3, 191520, Note_on_c, 0, 69, 0
3, 191520, Note_on_c, 0, 63, 76
3, 191760, Note_on_c, 0, 63, 0
3, 191760, Note_on_c, 0, 60, 75
3, 192000, Note_on_c, 0, 60, 0
3, 192000, Note_on_c, 0, 59, 73
3, 192960, Note_on_c, 0, 59, 0
3, 193920, Note_on_c, 0, 59, 74
3, 194160, Note_on_c, 0, 59, 0
3, 194400, Note_on_c, 0, 62, 76
3, 194880, Note_on_c, 0, 62, 0
3, 194880, Note_on_c, 0, 60, 79
3, 194880, Note_on_c, 0, 63, 79
3, 195840, Note_on_c, 0, 63, 0
3, 195840, Note_on_c, 0, 60, 0
3, 195840, Note_on_c, 0, 62, 75
3, 197760, Note_on_c, 0, 62, 0
3, 199680, Note_on_c, 0, 64, 28
3, 199680, Note_on_c, 0, 67, 28
3, 200640, Note_on_c, 0, 67, 0
3, 200640, Note_on_c, 0, 64, 0
3, 201600, Note_on_c, 0, 62, 80
3, 203520, Note_on_c, 0, 62, 0
3, 203520, End_track
4, 0, Start_track
4, 0, Title_t, "2 Piano RH"
4, 0, Program_c, 0, 0
4, 0, Control_c, 0, 7, 105
4, 0, Control_c, 0, 10, 83
4, 480, Note_on_c, 0, 67, 69
4, 1200, Note_on_c, 0, 67, 0
4, 1200, Note_on_c, 0, 66, 69
4, 1680, Note_on_c, 0, 63, 69
4, 1703, Note_on_c, 0, 66, 0
4, 1920, Note_on_c, 0, 58, 69
4, 1932, Note_on_c, 0, 63, 0
4, 2400, Note_on_c, 0, 67, 69
4, 2423, Note_on_c, 0, 58, 0
4, 3120, Note_on_c, 0, 67, 0
4, 3120, Note_on_c, 0, 66, 69
4, 3600, Note_on_c, 0, 63, 69
4, 3623, Note_on_c, 0, 66, 0
4, 3840, Note_on_c, 0, 58, 69
4, 3852, Note_on_c, 0, 63, 0
4, 4320, Note_on_c, 0, 70, 69
4, 4343, Note_on_c, 0, 58, 0
4, 5040, Note_on_c, 0, 70, 0
4, 5040, Note_on_c, 0, 66, 69
4, 5520, Note_on_c, 0, 63, 69
4, 5543, Note_on_c, 0, 66, 0
4, 5760, Note_on_c, 0, 58, 69
4, 5772, Note_on_c, 0, 63, 0
4, 6240, Note_on_c, 0, 70, 69
4, 6263, Note_on_c, 0, 58, 0
4, 6960, Note_on_c, 0, 70, 0
4, 6960, Note_on_c, 0, 66, 69
4, 7200, Note_on_c, 0, 63, 69
4, 7212, Note_on_c, 0, 66, 0
4, 7520, Note_on_c, 0, 60, 69
4, 7536, Note_on_c, 0, 63, 0
4, 7680, Note_on_c, 0, 58, 69
4, 7687, Note_on_c, 0, 60, 0
4, 8160, Note_on_c, 0, 74, 80
4, 8183, Note_on_c, 0, 58, 0
4, 8880, Note_on_c, 0, 74, 0
4, 8880, Note_on_c, 0, 70, 80
4, 9360, Note_on_c, 0, 70, 0
4, 9360, Note_on_c, 0, 66, 80
4, 9600, Note_on_c, 0, 66, 0
4, 9600, Note_on_c, 0, 62, 80
4, 10080, Note_on_c, 0, 62, 0
4, 10080, Note_on_c, 0, 74, 80
4, 10560, Note_on_c, 0, 74, 0
4, 10560, Note_on_c, 0, 74, 80
4, 10800, Note_on_c, 0, 74, 0
4, 10800, Note_on_c, 0, 70, 80
4, 11040, Note_on_c, 0, 70, 0
4, 11040, Note_on_c, 0, 66, 80
4, 11360, Note_on_c, 0, 66, 0
4, 11360, Note_on_c, 0, 63, 80
4, 11520, Note_on_c, 0, 63, 0
4, 11520, Note_on_c, 0, 62, 80
4, 12000, Note_on_c, 0, 62, 0
4, 12000, Note_on_c, 0, 70, 80
4, 12720, Note_on_c, 0, 70, 0
4, 12720, Note_on_c, 0, 69, 80
4, 13200, Note_on_c, 0, 69, 0
4, 13200, Note_on_c, 0, 63, 80
4, 13440, Note_on_c, 0, 63, 0
4, 13440, Note_on_c, 0, 58, 80
4, 13920, Note_on_c, 0, 58, 0
4, 13920, Note_on_c, 0, 67, 80
4, 14640, Note_on_c, 0, 67, 0
4, 14640, Note_on_c, 0, 66, 80
4, 14880, Note_on_c, 0, 66, 0
4, 14880, Note_on_c, 0, 63, 80
4, 15120, Note_on_c, 0, 63, 0
4, 15120, Note_on_c, 0, 62, 80
4, 15360, Note_on_c, 0, 62, 0
4, 15360, Note_on_c, 0, 58, 80
4, 15680, Note_on_c, 0, 58, 0
4, 15680, Note_on_c, 0, 50, 80
4, 15840, Note_on_c, 0, 50, 0
4, 15840, Note_on_c, 0, 58, 80
4, 16160, Note_on_c, 0, 58, 0
4, 16160, Note_on_c, 0, 50, 80
4, 16320, Note_on_c, 0, 60, 80
4, 17280, Note_on_c, 0, 60, 0
4, 17280, Note_on_c, 0, 50, 0
4, 17280, Note_on_c, 0, 58, 80
4, 17600, Note_on_c, 0, 58, 0
4, 17600, Note_on_c, 0, 50, 80
4, 17760, Note_on_c, 0, 50, 0
4, 17760, Note_on_c, 0, 58, 80
4, 18080, Note_on_c, 0, 58, 0
4, 18080, Note_on_c, 0, 50, 80
4, 18240, Note_on_c, 0, 60, 80
4, 19200, Note_on_c, 0, 60, 0
4, 19200, Note_on_c, 0, 50, 0
4, 19200, Note_on_c, 0, 58, 80
4, 19520, Note_on_c, 0, 58, 0
4, 19520, Note_on_c, 0, 50, 80
4, 19680, Note_on_c, 0, 50, 0
4, 19680, Note_on_c, 0, 62, 80
4, 20000, Note_on_c, 0, 62, 0
4, 20000, Note_on_c, 0, 50, 80
4, 20160, Note_on_c, 0, 60, 80
4, 21120, Note_on_c, 0, 60, 0
4, 21120, Note_on_c, 0, 50, 0
4, 21120, Note_on_c, 0, 58, 80
4, 21440, Note_on_c, 0, 58, 0
4, 21440, Note_on_c, 0, 50, 80
4, 21600, Note_on_c, 0, 50, 0
4, 21600, Note_on_c, 0, 62, 80
4, 21920, Note_on_c, 0, 62, 0
4, 21920, Note_on_c, 0, 50, 80
4, 22080, Note_on_c, 0, 60, 80
4, 23040, Note_on_c, 0, 60, 0
4, 23040, Note_on_c, 0, 50, 0
4, 23040, Note_on_c, 0, 58, 80
4, 23360, Note_on_c, 0, 58, 0
4, 23360, Note_on_c, 0, 50, 80
4, 23520, Note_on_c, 0, 50, 0
4, 23520, Note_on_c, 0, 58, 80
4, 23520, Note_on_c, 0, 62, 80
4, 23840, Note_on_c, 0, 62, 0
4, 23840, Note_on_c, 0, 58, 0
4, 23840, Note_on_c, 0, 50, 80
4, 24000, Note_on_c, 0, 50, 0
4, 24000, Note_on_c, 0, 60, 80
4, 24000, Note_on_c, 0, 63, 80
4, 24960, Note_on_c, 0, 63, 0
4, 24960, Note_on_c, 0, 60, 0
4, 24960, Note_on_c, 0, 58, 80
4, 25280, Note_on_c, 0, 58, 0
4, 25280, Note_on_c, 0, 50, 80
4, 25440, Note_on_c, 0, 50, 0
4, 25440, Note_on_c, 0, 58, 80
4, 25440, Note_on_c, 0, 62, 80
4, 25760, Note_on_c, 0, 62, 0
4, 25760, Note_on_c, 0, 58, 0
4, 25760, Note_on_c, 0, 50, 80
4, 25920, Note_on_c, 0, 50, 0
4, 25920, Note_on_c, 0, 60, 80
4, 25920, Note_on_c, 0, 63, 80
4, 26880, Note_on_c, 0, 63, 0
4, 26880, Note_on_c, 0, 60, 0
4, 26880, Note_on_c, 0, 65, 80
4, 26880, Note_on_c, 0, 62, 80
4, 27360, Note_on_c, 0, 62, 0
4, 27360, Note_on_c, 0, 63, 80
4, 27600, Note_on_c, 0, 63, 0
4, 27600, Note_on_c, 0, 62, 80
4, 27840, Note_on_c, 0, 62, 0
4, 27840, Note_on_c, 0, 65, 0
4, 27840, Note_on_c, 0, 63, 80
4, 27840, Note_on_c, 0, 62, 80
4, 28080, Note_on_c, 0, 62, 0
4, 28080, Note_on_c, 0, 60, 80
4, 28320, Note_on_c, 0, 60, 0
4, 28320, Note_on_c, 0, 62, 80
4, 28560, Note_on_c, 0, 62, 0
4, 28560, Note_on_c, 0, 60, 80
4, 28800, Note_on_c, 0, 60, 0
4, 28800, Note_on_c, 0, 63, 0
4, 28800, Note_on_c, 0, 62, 80
4, 28800, Note_on_c, 0, 58, 80
4, 29280, Note_on_c, 0, 58, 0
4, 29280, Note_on_c, 0, 60, 80
4, 29520, Note_on_c, 0, 60, 0
4, 29520, Note_on_c, 0, 58, 80
4, 29760, Note_on_c, 0, 58, 0
4, 29760, Note_on_c, 0, 62, 0
4, 29760, Note_on_c, 0, 60, 80
4, 29760, Note_on_c, 0, 58, 80
4, 30000, Note_on_c, 0, 58, 0
4, 30000, Note_on_c, 0, 57, 80
4, 30720, Note_on_c, 0, 57, 0
4, 30720, Note_on_c, 0, 60, 0
4, 30720, Note_on_c, 0, 58, 80
4, 30720, Note_on_c, 0, 55, 80
4, 31200, Note_on_c, 0, 55, 0
4, 31200, Note_on_c, 0, 57, 80
4, 31440, Note_on_c, 0, 57, 0
4, 31440, Note_on_c, 0, 55, 80
4, 31680, Note_on_c, 0, 55, 0
4, 31680, Note_on_c, 0, 58, 0
4, 31680, Note_on_c, 0, 57, 80
4, 31680, Note_on_c, 0, 55, 80
4, 31920, Note_on_c, 0, 55, 0
4, 31920, Note_on_c, 0, 53, 80
4, 32160, Note_on_c, 0, 53, 0
4, 32160, Note_on_c, 0, 55, 80
4, 32400, Note_on_c, 0, 55, 0
4, 32400, Note_on_c, 0, 53, 80
4, 32640, Note_on_c, 0, 53, 0
4, 32640, Note_on_c, 0, 57, 0
4, 32640, Note_on_c, 0, 55, 80
4, 32640, Note_on_c, 0, 53, 80
4, 32880, Note_on_c, 0, 53, 0
4, 32880, Note_on_c, 0, 51, 80
4, 33360, Note_on_c, 0, 51, 0
4, 33360, Note_on_c, 0, 53, 80
4, 33600, Note_on_c, 0, 53, 0
4, 33600, Note_on_c, 0, 55, 0
4, 33600, Note_on_c, 0, 54, 80
4, 33600, Note_on_c, 0, 54, 80
4, 34560, Note_on_c, 0, 54, 0
4, 34560, Note_on_c, 0, 54, 0
4, 34560, Note_on_c, 0, 55, 80
4, 35040, Note_on_c, 0, 55, 0
4, 35040, Note_on_c, 0, 58, 80
4, 35199, Note_on_c, 0, 60, 80
4, 35207, Note_on_c, 0, 58, 0
4, 35360, Note_on_c, 0, 62, 80
4, 35368, Note_on_c, 0, 60, 0
4, 35520, Note_on_c, 0, 63, 80
4, 35520, Note_on_c, 0, 58, 80
4, 35527, Note_on_c, 0, 62, 0
4, 36000, Note_on_c, 0, 64, 80
4, 36023, Note_on_c, 0, 63, 0
4, 36390, Note_on_c, 0, 56, 80
4, 36420, Note_on_c, 0, 60, 80
4, 36450, Note_on_c, 0, 65, 80
4, 36480, Note_on_c, 0, 58, 0
4, 36480, Note_on_c, 0, 68, 80
4, 36503, Note_on_c, 0, 64, 0
4, 36960, Note_on_c, 0, 65, 0
4, 36960, Note_on_c, 0, 60, 0
4, 36960, Note_on_c, 0, 56, 0
4, 36960, Note_on_c, 0, 68, 0
4, 36960, Note_on_c, 0, 53, 54
4, 36960, Note_on_c, 0, 56, 54
4, 37280, Note_on_c, 0, 56, 0
4, 37280, Note_on_c, 0, 53, 0
4, 37280, Note_on_c, 0, 48, 54
4, 37440, Note_on_c, 0, 48, 0
4, 37440, Note_on_c, 0, 49, 54
4, 37440, Note_on_c, 0, 56, 54
4, 37440, Note_on_c, 0, 58, 54
4, 38400, Note_on_c, 0, 58, 0
4, 38400, Note_on_c, 0, 56, 0
4, 38400, Note_on_c, 0, 49, 0
4, 38400, Note_on_c, 0, 53, 54
4, 38400, Note_on_c, 0, 56, 54
4, 38720, Note_on_c, 0, 56, 0
4, 38720, Note_on_c, 0, 53, 0
4, 38720, Note_on_c, 0, 48, 54
4, 38880, Note_on_c, 0, 48, 0
4, 38880, Note_on_c, 0, 53, 54
4, 38880, Note_on_c, 0, 56, 54
4, 39200, Note_on_c, 0, 56, 0
4, 39200, Note_on_c, 0, 53, 0
4, 39200, Note_on_c, 0, 48, 54
4, 39360, Note_on_c, 0, 48, 0
4, 39360, Note_on_c, 0, 49, 54
4, 39360, Note_on_c, 0, 56, 54
4, 39360, Note_on_c, 0, 58, 54
4, 40320, Note_on_c, 0, 58, 0
4, 40320, Note_on_c, 0, 56, 0
4, 40320, Note_on_c, 0, 49, 0
4, 40320, Note_on_c, 0, 48, 54
4, 40320, Note_on_c, 0, 53, 54
4, 40320, Note_on_c, 0, 56, 54
4, 40800, Note_on_c, 0, 56, 0
4, 40800, Note_on_c, 0, 53, 0
4, 40800, Note_on_c, 0, 48, 0
4, 40800, Note_on_c, 0, 62, 54
4, 40959, Note_on_c, 0, 62, 0
4, 40959, Note_on_c, 0, 63, 54
4, 41120, Note_on_c, 0, 63, 0
4, 41120, Note_on_c, 0, 65, 54
4, 41280, Note_on_c, 0, 65, 0
4, 41280, Note_on_c, 0, 57, 54
4, 41280, Note_on_c, 0, 60, 54
4, 41280, Note_on_c, 0, 66, 54
4, 41760, Note_on_c, 0, 66, 0
4, 41760, Note_on_c, 0, 60, 0
4, 41760, Note_on_c, 0, 57, 0
4, 41760, Note_on_c, 0, 59, 54
4, 41760, Note_on_c, 0, 65, 54
4, 41760, Note_on_c, 0, 67, 54
4, 42240, Note_on_c, 0, 67, 0
4, 42240, Note_on_c, 0, 65, 0
4, 42240, Note_on_c, 0, 59, 0
4, 42240, Note_on_c, 0, 60, 54
4, 42240, Note_on_c, 0, 63, 54
4, 42240, Note_on_c, 0, 67, 54
4, 42720, Note_on_c, 0, 67, 0
4, 42720, Note_on_c, 0, 63, 0
4, 42720, Note_on_c, 0, 60, 0
4, 42720, Note_on_c, 0, 54, 54
4, 42960, Note_on_c, 0, 60, 54
4, 42960, Note_on_c, 0, 63, 54
4, 43200, Note_on_c, 0, 54, 0
4, 43200, Note_on_c, 0, 55, 54
4, 43440, Note_on_c, 0, 63, 0
4, 43440, Note_on_c, 0, 60, 0
4, 43440, Note_on_c, 0, 60, 54
4, 43440, Note_on_c, 0, 63, 54
4, 43920, Note_on_c, 0, 63, 0
4, 43920, Note_on_c, 0, 60, 0
4, 43920, Note_on_c, 0, 60, 54
4, 43920, Note_on_c, 0, 63, 54
4, 44160, Note_on_c, 0, 55, 0
4, 44160, Note_on_c, 0, 55, 54
4, 44400, Note_on_c, 0, 63, 0
4, 44400, Note_on_c, 0, 60, 0
4, 44400, Note_on_c, 0, 60, 54
4, 44400, Note_on_c, 0, 63, 54
4, 44640, Note_on_c, 0, 55, 0
4, 44640, Note_on_c, 0, 56, 54
4, 44880, Note_on_c, 0, 63, 0
4, 44880, Note_on_c, 0, 60, 0
4, 44880, Note_on_c, 0, 60, 54
4, 44880, Note_on_c, 0, 63, 54
4, 45360, Note_on_c, 0, 63, 0
4, 45360, Note_on_c, 0, 60, 0
4, 45360, Note_on_c, 0, 60, 54
4, 45360, Note_on_c, 0, 63, 54
4, 45600, Note_on_c, 0, 56, 0
4, 45600, Note_on_c, 0, 57, 54
4, 45840, Note_on_c, 0, 63, 0
4, 45840, Note_on_c, 0, 60, 0
4, 45840, Note_on_c, 0, 60, 54
4, 45840, Note_on_c, 0, 63, 54
4, 46080, Note_on_c, 0, 57, 0
4, 46080, Note_on_c, 0, 58, 54
4, 46320, Note_on_c, 0, 63, 0
4, 46320, Note_on_c, 0, 60, 0
4, 46320, Note_on_c, 0, 60, 54
4, 46320, Note_on_c, 0, 63, 54
4, 46800, Note_on_c, 0, 63, 0
4, 46800, Note_on_c, 0, 60, 0
4, 46800, Note_on_c, 0, 60, 54
4, 46800, Note_on_c, 0, 63, 54
4, 47280, Note_on_c, 0, 63, 0
4, 47280, Note_on_c, 0, 60, 0
4, 47280, Note_on_c, 0, 60, 54
4, 47280, Note_on_c, 0, 63, 54
4, 47760, Note_on_c, 0, 63, 0
4, 47760, Note_on_c, 0, 60, 0
4, 47760, Note_on_c, 0, 60, 54
4, 47760, Note_on_c, 0, 63, 54
4, 48000, Note_on_c, 0, 63, 0
4, 48000, Note_on_c, 0, 60, 0
4, 48000, Note_on_c, 0, 58, 0
4, 48000, Note_on_c, 0, 59, 54
4, 48240, Note_on_c, 0, 62, 54
4, 48240, Note_on_c, 0, 65, 54
4, 48480, Note_on_c, 0, 59, 0
4, 48480, Note_on_c, 0, 58, 54
4, 48720, Note_on_c, 0, 58, 0
4, 48720, Note_on_c, 0, 57, 54
4, 48960, Note_on_c, 0, 57, 0
4, 48960, Note_on_c, 0, 56, 54
4, 49200, Note_on_c, 0, 65, 0
4, 49200, Note_on_c, 0, 62, 0
4, 49200, Note_on_c, 0, 62, 54
4, 49200, Note_on_c, 0, 65, 54
4, 49440, Note_on_c, 0, 56, 0
4, 49440, Note_on_c, 0, 55, 54
4, 49680, Note_on_c, 0, 65, 0
4, 49680, Note_on_c, 0, 62, 0
4, 49680, Note_on_c, 0, 62, 54
4, 49680, Note_on_c, 0, 65, 54
4, 49920, Note_on_c, 0, 65, 0
4, 49920, Note_on_c, 0, 62, 0
4, 49920, Note_on_c, 0, 55, 0
4, 49920, Note_on_c, 0, 54, 66
4, 50160, Note_on_c, 0, 60, 54
4, 50160, Note_on_c, 0, 63, 54
4, 50640, Note_on_c, 0, 63, 0
4, 50640, Note_on_c, 0, 60, 0
4, 50640, Note_on_c, 0, 60, 54
4, 50640, Note_on_c, 0, 63, 54
4, 50880, Note_on_c, 0, 54, 0
4, 50880, Note_on_c, 0, 55, 66
4, 51120, Note_on_c, 0, 63, 0
4, 51120, Note_on_c, 0, 60, 0
4, 51120, Note_on_c, 0, 60, 54
4, 51120, Note_on_c, 0, 63, 54
4, 51600, Note_on_c, 0, 63, 0
4, 51600, Note_on_c, 0, 60, 0
4, 51600, Note_on_c, 0, 60, 54
4, 51600, Note_on_c, 0, 63, 54
4, 51840, Note_on_c, 0, 55, 0
4, 51840, Note_on_c, 0, 56, 66
4, 52080, Note_on_c, 0, 63, 0
4, 52080, Note_on_c, 0, 60, 0
4, 52080, Note_on_c, 0, 60, 54
4, 52080, Note_on_c, 0, 63, 54
4, 52320, Note_on_c, 0, 56, 0
4, 52320, Note_on_c, 0, 57, 66
4, 52560, Note_on_c, 0, 63, 0
4, 52560, Note_on_c, 0, 60, 0
4, 52560, Note_on_c, 0, 60, 54
4, 52560, Note_on_c, 0, 63, 54
4, 53040, Note_on_c, 0, 63, 0
4, 53040, Note_on_c, 0, 60, 0
4, 53040, Note_on_c, 0, 60, 54
4, 53040, Note_on_c, 0, 63, 54
4, 53520, Note_on_c, 0, 63, 0
4, 53520, Note_on_c, 0, 60, 0
4, 53520, Note_on_c, 0, 60, 54
4, 53520, Note_on_c, 0, 63, 54
4, 53760, Note_on_c, 0, 57, 0
4, 53760, Note_on_c, 0, 58, 66
4, 54000, Note_on_c, 0, 63, 0
4, 54000, Note_on_c, 0, 60, 0
4, 54000, Note_on_c, 0, 60, 54
4, 54000, Note_on_c, 0, 63, 54
4, 54480, Note_on_c, 0, 63, 0
4, 54480, Note_on_c, 0, 60, 0
4, 54480, Note_on_c, 0, 60, 54
4, 54480, Note_on_c, 0, 63, 54
4, 54960, Note_on_c, 0, 63, 0
4, 54960, Note_on_c, 0, 60, 0
4, 54960, Note_on_c, 0, 60, 54
4, 54960, Note_on_c, 0, 63, 54
4, 55440, Note_on_c, 0, 63, 0
4, 55440, Note_on_c, 0, 60, 0
4, 55440, Note_on_c, 0, 60, 54
4, 55440, Note_on_c, 0, 63, 54
4, 55680, Note_on_c, 0, 63, 0
4, 55680, Note_on_c, 0, 60, 0
4, 55680, Note_on_c, 0, 58, 0
4, 55680, Note_on_c, 0, 59, 54
4, 55920, Note_on_c, 0, 62, 54
4, 55920, Note_on_c, 0, 65, 54
4, 56160, Note_on_c, 0, 59, 0
4, 56160, Note_on_c, 0, 58, 54
4, 56400, Note_on_c, 0, 58, 0
4, 56400, Note_on_c, 0, 57, 54
4, 56640, Note_on_c, 0, 57, 0
4, 56640, Note_on_c, 0, 56, 54
4, 56880, Note_on_c, 0, 65, 0
4, 56880, Note_on_c, 0, 62, 0
4, 56880, Note_on_c, 0, 62, 54
4, 56880, Note_on_c, 0, 65, 54
4, 57120, Note_on_c, 0, 56, 0
4, 57120, Note_on_c, 0, 55, 54
4, 57360, Note_on_c, 0, 65, 0
4, 57360, Note_on_c, 0, 62, 0
4, 57360, Note_on_c, 0, 62, 54
4, 57360, Note_on_c, 0, 65, 54
4, 57600, Note_on_c, 0, 65, 0
4, 57600, Note_on_c, 0, 62, 0
4, 57600, Note_on_c, 0, 55, 0
4, 57600, Note_on_c, 0, 55, 54
4, 57840, Note_on_c, 0, 60, 54
4, 57840, Note_on_c, 0, 67, 54
4, 58080, Note_on_c, 0, 60, 54
4, 58103, Note_on_c, 0, 55, 0
4, 58320, Note_on_c, 0, 60, 0
4, 58320, Note_on_c, 0, 67, 0
4, 58320, Note_on_c, 0, 63, 54
4, 58320, Note_on_c, 0, 67, 54
4, 58560, Note_on_c, 0, 61, 54
4, 58583, Note_on_c, 0, 60, 0
4, 58800, Note_on_c, 0, 63, 0
4, 58800, Note_on_c, 0, 67, 0
4, 58800, Note_on_c, 0, 63, 54
4, 58800, Note_on_c, 0, 67, 54
4, 59280, Note_on_c, 0, 67, 0
4, 59280, Note_on_c, 0, 63, 0
4, 59280, Note_on_c, 0, 63, 54
4, 59280, Note_on_c, 0, 67, 54
4, 59520, Note_on_c, 0, 60, 54
4, 59567, Note_on_c, 0, 61, 0
4, 59760, Note_on_c, 0, 63, 0
4, 59760, Note_on_c, 0, 67, 0
4, 59760, Note_on_c, 0, 63, 54
4, 59760, Note_on_c, 0, 67, 54
4, 60240, Note_on_c, 0, 67, 0
4, 60240, Note_on_c, 0, 63, 0
4, 60240, Note_on_c, 0, 63, 54
4, 60240, Note_on_c, 0, 67, 54
4, 60480, Note_on_c, 0, 61, 54
4, 60527, Note_on_c, 0, 60, 0
4, 60720, Note_on_c, 0, 63, 0
4, 60720, Note_on_c, 0, 67, 0
4, 60720, Note_on_c, 0, 63, 54
4, 60720, Note_on_c, 0, 67, 54
4, 61200, Note_on_c, 0, 67, 0
4, 61200, Note_on_c, 0, 63, 0
4, 61200, Note_on_c, 0, 63, 54
4, 61200, Note_on_c, 0, 67, 54
4, 61440, Note_on_c, 0, 60, 54
4, 61487, Note_on_c, 0, 61, 0
4, 61680, Note_on_c, 0, 63, 0
4, 61680, Note_on_c, 0, 67, 0
4, 61680, Note_on_c, 0, 63, 54
4, 61680, Note_on_c, 0, 67, 54
4, 62160, Note_on_c, 0, 67, 0
4, 62160, Note_on_c, 0, 63, 0
4, 62160, Note_on_c, 0, 63, 54
4, 62160, Note_on_c, 0, 67, 54
4, 62640, Note_on_c, 0, 67, 0
4, 62640, Note_on_c, 0, 63, 0
4, 62640, Note_on_c, 0, 63, 54
4, 62640, Note_on_c, 0, 67, 54
4, 63120, Note_on_c, 0, 67, 0
4, 63120, Note_on_c, 0, 63, 0
4, 63120, Note_on_c, 0, 63, 54
4, 63120, Note_on_c, 0, 67, 54
4, 63360, Note_on_c, 0, 61, 54
4, 63456, Note_on_c, 0, 60, 0
4, 63600, Note_on_c, 0, 63, 0
4, 63600, Note_on_c, 0, 67, 0
4, 63600, Note_on_c, 0, 63, 54
4, 63600, Note_on_c, 0, 67, 54
4, 64080, Note_on_c, 0, 67, 0
4, 64080, Note_on_c, 0, 63, 0
4, 64080, Note_on_c, 0, 63, 54
4, 64080, Note_on_c, 0, 67, 54
4, 64560, Note_on_c, 0, 67, 0
4, 64560, Note_on_c, 0, 63, 0
4, 64560, Note_on_c, 0, 63, 54
4, 64560, Note_on_c, 0, 67, 54
4, 65040, Note_on_c, 0, 67, 0
4, 65040, Note_on_c, 0, 63, 0
4, 65040, Note_on_c, 0, 63, 54
4, 65040, Note_on_c, 0, 67, 54
4, 65280, Note_on_c, 0, 67, 0
4, 65280, Note_on_c, 0, 63, 0
4, 65280, Note_on_c, 0, 58, 54
4, 65280, Note_on_c, 0, 62, 54
4, 65376, Note_on_c, 0, 61, 0
4, 65600, Note_on_c, 0, 62, 0
4, 65600, Note_on_c, 0, 58, 0
4, 65600, Note_on_c, 0, 50, 54
4, 65760, Note_on_c, 0, 50, 0
4, 65760, Note_on_c, 0, 58, 54
4, 65760, Note_on_c, 0, 62, 54
4, 66080, Note_on_c, 0, 62, 0
4, 66080, Note_on_c, 0, 58, 0
4, 66080, Note_on_c, 0, 50, 54
4, 66240, Note_on_c, 0, 50, 0
4, 66240, Note_on_c, 0, 60, 54
4, 66240, Note_on_c, 0, 63, 54
4, 67200, Note_on_c, 0, 63, 0
4, 67200, Note_on_c, 0, 60, 0
4, 67200, Note_on_c, 0, 58, 54
4, 67200, Note_on_c, 0, 62, 54
4, 67520, Note_on_c, 0, 62, 0
4, 67520, Note_on_c, 0, 58, 0
4, 67520, Note_on_c, 0, 50, 54
4, 67680, Note_on_c, 0, 50, 0
4, 67680, Note_on_c, 0, 58, 54
4, 67680, Note_on_c, 0, 62, 54
4, 68000, Note_on_c, 0, 62, 0
4, 68000, Note_on_c, 0, 58, 0
4, 68000, Note_on_c, 0, 50, 54
4, 68160, Note_on_c, 0, 50, 0
4, 68160, Note_on_c, 0, 60, 54
4, 68160, Note_on_c, 0, 63, 54
4, 69120, Note_on_c, 0, 63, 0
4, 69120, Note_on_c, 0, 60, 0
4, 69120, Note_on_c, 0, 58, 54
4, 69120, Note_on_c, 0, 62, 54
4, 69440, Note_on_c, 0, 62, 0
4, 69440, Note_on_c, 0, 58, 0
4, 69440, Note_on_c, 0, 50, 54
4, 69600, Note_on_c, 0, 50, 0
4, 69600, Note_on_c, 0, 58, 54
4, 69600, Note_on_c, 0, 62, 54
4, 69920, Note_on_c, 0, 62, 0
4, 69920, Note_on_c, 0, 58, 0
4, 69920, Note_on_c, 0, 50, 54
4, 70080, Note_on_c, 0, 50, 0
4, 70080, Note_on_c, 0, 57, 54
4, 70080, Note_on_c, 0, 60, 54
4, 71040, Note_on_c, 0, 60, 0
4, 71040, Note_on_c, 0, 57, 0
4, 71040, Note_on_c, 0, 58, 54
4, 71040, Note_on_c, 0, 62, 54
4, 71360, Note_on_c, 0, 62, 0
4, 71360, Note_on_c, 0, 58, 0
4, 71360, Note_on_c, 0, 50, 54
4, 71520, Note_on_c, 0, 50, 0
4, 71520, Note_on_c, 0, 58, 54
4, 71520, Note_on_c, 0, 62, 54
4, 71840, Note_on_c, 0, 62, 0
4, 71840, Note_on_c, 0, 58, 0
4, 71840, Note_on_c, 0, 50, 54
4, 72000, Note_on_c, 0, 50, 0
4, 72000, Note_on_c, 0, 57, 54
4, 72000, Note_on_c, 0, 60, 54
4, 72960, Note_on_c, 0, 60, 0
4, 72960, Note_on_c, 0, 57, 0
4, 73280, Note_on_c, 0, 50, 54
4, 73440, Note_on_c, 0, 50, 0
4, 73440, Note_on_c, 0, 60, 54
4, 73760, Note_on_c, 0, 60, 0
4, 73760, Note_on_c, 0, 58, 54
4, 73920, Note_on_c, 0, 58, 0
4, 73920, Note_on_c, 0, 57, 54
4, 74880, Note_on_c, 0, 57, 0
4, 74880, Note_on_c, 0, 57, 54
4, 75200, Note_on_c, 0, 57, 0
4, 75200, Note_on_c, 0, 50, 54
4, 75360, Note_on_c, 0, 50, 0
4, 75360, Note_on_c, 0, 58, 54
4, 75680, Note_on_c, 0, 58, 0
4, 75680, Note_on_c, 0, 57, 54
4, 75840, Note_on_c, 0, 57, 0
4, 75840, Note_on_c, 0, 55, 54
4, 76800, Note_on_c, 0, 55, 0
4, 76800, Note_on_c, 0, 55, 54
4, 77120, Note_on_c, 0, 55, 0
4, 77120, Note_on_c, 0, 50, 54
4, 77280, Note_on_c, 0, 50, 0
4, 77280, Note_on_c, 0, 57, 54
4, 77600, Note_on_c, 0, 57, 0
4, 77600, Note_on_c, 0, 55, 54
4, 77760, Note_on_c, 0, 55, 0
4, 77760, Note_on_c, 0, 54, 54
4, 78720, Note_on_c, 0, 54, 0
4, 78720, Note_on_c, 0, 55, 54
4, 79040, Note_on_c, 0, 55, 0
4, 79040, Note_on_c, 0, 46, 54
4, 79200, Note_on_c, 0, 46, 0
4, 79200, Note_on_c, 0, 55, 54
4, 79520, Note_on_c, 0, 55, 0
4, 79520, Note_on_c, 0, 54, 54
4, 79680, Note_on_c, 0, 54, 0
4, 79680, Note_on_c, 0, 51, 54
4, 80160, Note_on_c, 0, 51, 0
4, 80160, Note_on_c, 0, 52, 54
4, 80640, Note_on_c, 0, 52, 0
4, 80640, Note_on_c, 0, 54, 54
4, 80960, Note_on_c, 0, 54, 0
4, 80960, Note_on_c, 0, 50, 54
4, 81120, Note_on_c, 0, 50, 0
4, 81120, Note_on_c, 0, 57, 54
4, 81440, Note_on_c, 0, 57, 0
4, 81440, Note_on_c, 0, 50, 54
4, 81600, Note_on_c, 0, 50, 0
4, 81600, Note_on_c, 0, 57, 54
4, 82560, Note_on_c, 0, 57, 0
4, 82560, Note_on_c, 0, 57, 54
4, 82880, Note_on_c, 0, 57, 0
4, 82880, Note_on_c, 0, 50, 54
4, 83040, Note_on_c, 0, 50, 0
4, 83040, Note_on_c, 0, 57, 54
4, 83360, Note_on_c, 0, 57, 0
4, 83360, Note_on_c, 0, 50, 54
4, 83520, Note_on_c, 0, 50, 0
4, 83520, Note_on_c, 0, 57, 54
4, 84480, Note_on_c, 0, 57, 0
4, 84480, Note_on_c, 0, 57, 54
4, 84800, Note_on_c, 0, 57, 0
4, 84800, Note_on_c, 0, 50, 54
4, 84960, Note_on_c, 0, 50, 0
4, 84960, Note_on_c, 0, 57, 54
4, 85280, Note_on_c, 0, 57, 0
4, 85280, Note_on_c, 0, 50, 54
4, 85440, Note_on_c, 0, 50, 0
4, 85440, Note_on_c, 0, 57, 54
4, 86400, Note_on_c, 0, 57, 0
4, 86400, Note_on_c, 0, 57, 54
4, 86720, Note_on_c, 0, 57, 0
4, 86720, Note_on_c, 0, 50, 54
4, 86880, Note_on_c, 0, 50, 0
4, 86880, Note_on_c, 0, 57, 54
4, 87200, Note_on_c, 0, 57, 0
4, 87200, Note_on_c, 0, 50, 54
4, 87360, Note_on_c, 0, 50, 0
4, 87360, Note_on_c, 0, 57, 54
4, 90720, Note_on_c, 0, 57, 0
4, 92160, Note_on_c, 0, 50, 41
4, 92160, Note_on_c, 0, 55, 41
4, 92160, Note_on_c, 0, 58, 41
4, 94080, Note_on_c, 0, 58, 0
4, 94080, Note_on_c, 0, 55, 0
4, 94080, Note_on_c, 0, 50, 0
4, 94080, Note_on_c, 0, 53, 50
4, 94080, Note_on_c, 0, 58, 50
4, 94080, Note_on_c, 0, 61, 50
4, 96000, Note_on_c, 0, 61, 0
4, 96000, Note_on_c, 0, 58, 0
4, 96000, Note_on_c, 0, 53, 0
4, 96000, Note_on_c, 0, 52, 60
4, 96000, Note_on_c, 0, 57, 60
4, 96000, Note_on_c, 0, 61, 60
4, 96000, Note_on_c, 0, 64, 60
4, 97920, Note_on_c, 0, 64, 0
4, 97920, Note_on_c, 0, 52, 0
4, 97920, Note_on_c, 0, 57, 0
4, 97920, Note_on_c, 0, 61, 0
4, 97920, Note_on_c, 0, 51, 70
4, 97920, Note_on_c, 0, 56, 70
4, 97920, Note_on_c, 0, 60, 70
4, 97920, Note_on_c, 0, 63, 70
4, 98880, Note_on_c, 0, 63, 0
4, 98880, Note_on_c, 0, 51, 0
4, 98880, Note_on_c, 0, 56, 0
4, 98880, Note_on_c, 0, 60, 0
4, 98880, Note_on_c, 0, 51, 73
4, 98880, Note_on_c, 0, 55, 73
4, 98880, Note_on_c, 0, 58, 73
4, 98880, Note_on_c, 0, 63, 73
4, 99780, Note_on_c, 0, 49, 75
4, 99780, Note_on_c, 0, 54, 75
4, 99780, Note_on_c, 0, 58, 75
4, 99780, Note_on_c, 0, 61, 75
4, 99840, Note_on_c, 0, 61, 0
4, 99840, Note_on_c, 0, 51, 0
4, 99840, Note_on_c, 0, 49, 0
4, 99840, Note_on_c, 0, 55, 0
4, 99840, Note_on_c, 0, 58, 0
4, 99840, Note_on_c, 0, 63, 0
4, 99840, Note_on_c, 0, 54, 0
4, 99840, Note_on_c, 0, 58, 0
4, 99840, Note_on_c, 0, 49, 87
4, 99840, Note_on_c, 0, 54, 87
4, 99840, Note_on_c, 0, 58, 87
4, 99840, Note_on_c, 0, 61, 87
4, 101760, Note_on_c, 0, 61, 0
4, 101760, Note_on_c, 0, 49, 0
4, 101760, Note_on_c, 0, 54, 0
4, 101760, Note_on_c, 0, 58, 0
4, 101760, Note_on_c, 0, 49, 70
4, 101760, Note_on_c, 0, 54, 70
4, 101760, Note_on_c, 0, 58, 70
4, 101760, Note_on_c, 0, 61, 70
4, 102720, Note_on_c, 0, 61, 0
4, 102720, Note_on_c, 0, 49, 0
4, 102720, Note_on_c, 0, 54, 0
4, 102720, Note_on_c, 0, 58, 0
4, 102720, Note_on_c, 0, 50, 75
4, 102720, Note_on_c, 0, 56, 75
4, 103680, Note_on_c, 0, 56, 0
4, 103680, Note_on_c, 0, 50, 0
4, 103680, Note_on_c, 0, 49, 41
4, 103680, Note_on_c, 0, 54, 41
4, 107520, Note_on_c, 0, 54, 0
4, 107520, Note_on_c, 0, 49, 0
4, 107520, Note_on_c, 0, 49, 73
4, 107520, Note_on_c, 0, 54, 73
4, 107520, Note_on_c, 0, 57, 73
4, 109440, Note_on_c, 0, 52, 41
4, 109440, Note_on_c, 0, 57, 41
4, 109440, Note_on_c, 0, 60, 77
4, 109536, Note_on_c, 0, 57, 0
4, 109536, Note_on_c, 0, 49, 0
4, 109536, Note_on_c, 0, 54, 0
4, 111360, Note_on_c, 0, 51, 80
4, 111360, Note_on_c, 0, 56, 80
4, 111360, Note_on_c, 0, 60, 80
4, 111360, Note_on_c, 0, 63, 80
4, 111456, Note_on_c, 0, 52, 0
4, 111456, Note_on_c, 0, 60, 0
4, 111456, Note_on_c, 0, 57, 0
4, 113280, Note_on_c, 0, 56, 0
4, 113280, Note_on_c, 0, 51, 0
4, 113280, Note_on_c, 0, 60, 0
4, 113280, Note_on_c, 0, 63, 0
4, 113280, Note_on_c, 0, 50, 88
4, 113280, Note_on_c, 0, 55, 88
4, 113280, Note_on_c, 0, 59, 88
4, 113280, Note_on_c, 0, 62, 88
4, 114240, Note_on_c, 0, 50, 92
4, 114240, Note_on_c, 0, 54, 92
4, 114240, Note_on_c, 0, 57, 92
4, 114240, Note_on_c, 0, 62, 92
4, 114287, Note_on_c, 0, 62, 0
4, 114287, Note_on_c, 0, 59, 0
4, 114287, Note_on_c, 0, 50, 0
4, 114287, Note_on_c, 0, 55, 0
4, 115140, Note_on_c, 0, 48, 77
4, 115140, Note_on_c, 0, 53, 77
4, 115140, Note_on_c, 0, 57, 77
4, 115140, Note_on_c, 0, 60, 77
4, 115200, Note_on_c, 0, 60, 0
4, 115200, Note_on_c, 0, 53, 0
4, 115200, Note_on_c, 0, 57, 0
4, 115200, Note_on_c, 0, 48, 0
4, 115200, Note_on_c, 0, 48, 84
4, 115200, Note_on_c, 0, 53, 84
4, 115200, Note_on_c, 0, 57, 84
4, 115200, Note_on_c, 0, 60, 84
4, 115247, Note_on_c, 0, 50, 0
4, 115247, Note_on_c, 0, 57, 0
4, 115247, Note_on_c, 0, 62, 0
4, 115247, Note_on_c, 0, 54, 0
4, 117120, Note_on_c, 0, 48, 0
4, 117120, Note_on_c, 0, 60, 0
4, 117120, Note_on_c, 0, 53, 0
4, 117120, Note_on_c, 0, 57, 0
4, 117120, Note_on_c, 0, 48, 80
4, 117120, Note_on_c, 0, 53, 80
4, 117120, Note_on_c, 0, 57, 80
4, 117120, Note_on_c, 0, 60, 80
4, 118080, Note_on_c, 0, 60, 0
4, 118080, Note_on_c, 0, 48, 0
4, 118080, Note_on_c, 0, 53, 0
4, 118080, Note_on_c, 0, 57, 0
4, 118080, Note_on_c, 0, 49, 80
4, 118080, Note_on_c, 0, 55, 80
4, 119040, Note_on_c, 0, 55, 0
4, 119040, Note_on_c, 0, 49, 0
4, 119040, Note_on_c, 0, 48, 80
4, 119040, Note_on_c, 0, 53, 80
4, 122880, Note_on_c, 0, 53, 0
4, 122880, Note_on_c, 0, 48, 0
4, 122880, Note_on_c, 0, 48, 84
4, 122880, Note_on_c, 0, 55, 84
4, 124800, Note_on_c, 0, 55, 0
4, 124800, Note_on_c, 0, 48, 0
4, 124800, Note_on_c, 0, 48, 87
4, 124800, Note_on_c, 0, 55, 87
4, 126720, Note_on_c, 0, 55, 0
4, 126720, Note_on_c, 0, 48, 0
4, 126720, Note_on_c, 0, 47, 99
4, 126720, Note_on_c, 0, 52, 99
4, 126720, Note_on_c, 0, 56, 99
4, 126720, Note_on_c, 0, 59, 99
4, 130560, Note_on_c, 0, 59, 0
4, 130560, Note_on_c, 0, 47, 0
4, 130560, Note_on_c, 0, 52, 0
4, 130560, Note_on_c, 0, 56, 0
4, 130560, Note_on_c, 0, 50, 93
4, 130560, Note_on_c, 0, 55, 93
4, 130560, Note_on_c, 0, 59, 93
4, 132480, Note_on_c, 0, 55, 0
4, 132480, Note_on_c, 0, 55, 93
4, 134400, Note_on_c, 0, 55, 0
4, 134400, Note_on_c, 0, 59, 0
4, 134400, Note_on_c, 0, 50, 0
4, 134400, Note_on_c, 0, 50, 70
4, 134400, Note_on_c, 0, 55, 70
4, 134400, Note_on_c, 0, 58, 70
4, 138240, Note_on_c, 0, 58, 0
4, 138240, Note_on_c, 0, 55, 0
4, 138240, Note_on_c, 0, 50, 0
4, 138240, Note_on_c, 0, 50, 69
4, 138240, Note_on_c, 0, 55, 69
4, 138240, Note_on_c, 0, 58, 69
4, 138720, Note_on_c, 0, 58, 0
4, 138720, Note_on_c, 0, 55, 0
4, 138720, Note_on_c, 0, 50, 0
4, 138720, Note_on_c, 0, 55, 75
4, 138960, Note_on_c, 0, 55, 0
4, 138960, Note_on_c, 0, 50, 77
4, 139200, Note_on_c, 0, 57, 80
4, 140160, Note_on_c, 0, 57, 0
4, 140160, Note_on_c, 0, 50, 0
4, 140160, Note_on_c, 0, 55, 69
4, 140400, Note_on_c, 0, 55, 0
4, 140400, Note_on_c, 0, 50, 70
4, 140640, Note_on_c, 0, 50, 0
4, 140640, Note_on_c, 0, 55, 72
4, 140880, Note_on_c, 0, 55, 0
4, 140880, Note_on_c, 0, 50, 73
4, 141120, Note_on_c, 0, 55, 75
4, 142080, Note_on_c, 0, 55, 0
4, 142080, Note_on_c, 0, 50, 0
4, 142080, Note_on_c, 0, 55, 77
4, 142320, Note_on_c, 0, 55, 0
4, 142320, Note_on_c, 0, 50, 75
4, 142560, Note_on_c, 0, 50, 0
4, 142560, Note_on_c, 0, 62, 73
4, 142800, Note_on_c, 0, 62, 0
4, 142800, Note_on_c, 0, 50, 71
4, 143040, Note_on_c, 0, 60, 69
4, 144000, Note_on_c, 0, 60, 0
4, 144000, Note_on_c, 0, 50, 0
4, 144000, Note_on_c, 0, 55, 80
4, 144000, Note_on_c, 0, 58, 80
4, 144240, Note_on_c, 0, 58, 0
4, 144240, Note_on_c, 0, 55, 0
4, 144240, Note_on_c, 0, 50, 78
4, 144480, Note_on_c, 0, 50, 0
4, 144480, Note_on_c, 0, 58, 76
4, 144480, Note_on_c, 0, 62, 70
4, 144720, Note_on_c, 0, 62, 0
4, 144720, Note_on_c, 0, 58, 0
4, 144720, Note_on_c, 0, 50, 73
4, 144960, Note_on_c, 0, 60, 74
4, 145920, Note_on_c, 0, 60, 0
4, 145920, Note_on_c, 0, 50, 0
4, 145920, Note_on_c, 0, 58, 77
4, 146160, Note_on_c, 0, 58, 0
4, 146160, Note_on_c, 0, 55, 78
4, 146400, Note_on_c, 0, 55, 0
4, 146400, Note_on_c, 0, 65, 80
4, 146640, Note_on_c, 0, 65, 0
4, 146640, Note_on_c, 0, 55, 81
4, 146880, Note_on_c, 0, 55, 0
4, 146880, Note_on_c, 0, 54, 83
4, 146880, Note_on_c, 0, 63, 83
4, 147840, Note_on_c, 0, 63, 0
4, 147840, Note_on_c, 0, 54, 0
4, 147840, Note_on_c, 0, 58, 76
4, 147840, Note_on_c, 0, 62, 76
4, 148080, Note_on_c, 0, 62, 0
4, 148080, Note_on_c, 0, 58, 0
4, 148080, Note_on_c, 0, 53, 77
4, 148320, Note_on_c, 0, 53, 0
4, 148320, Note_on_c, 0, 62, 78
4, 148320, Note_on_c, 0, 65, 78
4, 148560, Note_on_c, 0, 65, 0
4, 148560, Note_on_c, 0, 62, 0
4, 148560, Note_on_c, 0, 53, 79
4, 148800, Note_on_c, 0, 53, 0
4, 148800, Note_on_c, 0, 54, 81
4, 148800, Note_on_c, 0, 63, 81
4, 149760, Note_on_c, 0, 63, 0
4, 149760, Note_on_c, 0, 54, 0
4, 149760, Note_on_c, 0, 53, 83
4, 149760, Note_on_c, 0, 62, 83
4, 150240, Note_on_c, 0, 62, 0
4, 150240, Note_on_c, 0, 53, 0
4, 150240, Note_on_c, 0, 74, 81
4, 150960, Note_on_c, 0, 74, 0
4, 150960, Note_on_c, 0, 69, 78
4, 151440, Note_on_c, 0, 69, 0
4, 151440, Note_on_c, 0, 63, 76
4, 151680, Note_on_c, 0, 63, 0
4, 151680, Note_on_c, 0, 58, 74
4, 152160, Note_on_c, 0, 58, 0
4, 152160, Note_on_c, 0, 67, 81
4, 152880, Note_on_c, 0, 67, 0
4, 152880, Note_on_c, 0, 65, 79
4, 153120, Note_on_c, 0, 65, 0
4, 153120, Note_on_c, 0, 60, 78
4, 153360, Note_on_c, 0, 60, 0
4, 153360, Note_on_c, 0, 57, 77
4, 153600, Note_on_c, 0, 57, 0
4, 153600, Note_on_c, 0, 55, 75
4, 154080, Note_on_c, 0, 55, 0
4, 154080, Note_on_c, 0, 63, 77
4, 154800, Note_on_c, 0, 63, 0
4, 154800, Note_on_c, 0, 62, 75
4, 155280, Note_on_c, 0, 62, 0
4, 155280, Note_on_c, 0, 57, 74
4, 155520, Note_on_c, 0, 51, 73
4, 155760, Note_on_c, 0, 57, 0
4, 156000, Note_on_c, 0, 51, 0
4, 156000, Note_on_c, 0, 60, 75
4, 156720, Note_on_c, 0, 60, 0
4, 156720, Note_on_c, 0, 58, 72
4, 156960, Note_on_c, 0, 58, 0
4, 156960, Note_on_c, 0, 54, 71
4, 157200, Note_on_c, 0, 54, 0
4, 157200, Note_on_c, 0, 50, 70
4, 157440, Note_on_c, 0, 50, 0
4, 157440, Note_on_c, 0, 55, 69
4, 157920, Note_on_c, 0, 55, 0
4, 157920, Note_on_c, 0, 49, 41
4, 158160, Note_on_c, 0, 55, 41
4, 158160, Note_on_c, 0, 58, 41
4, 158400, Note_on_c, 0, 50, 41
4, 158423, Note_on_c, 0, 49, 0
4, 158640, Note_on_c, 0, 55, 0
4, 158640, Note_on_c, 0, 58, 0
4, 158640, Note_on_c, 0, 55, 41
4, 158640, Note_on_c, 0, 58, 41
4, 159120, Note_on_c, 0, 58, 0
4, 159120, Note_on_c, 0, 55, 0
4, 159120, Note_on_c, 0, 55, 41
4, 159120, Note_on_c, 0, 58, 41
4, 159360, Note_on_c, 0, 50, 41
4, 159407, Note_on_c, 0, 50, 0
4, 159600, Note_on_c, 0, 55, 0
4, 159600, Note_on_c, 0, 58, 0
4, 159600, Note_on_c, 0, 55, 41
4, 159600, Note_on_c, 0, 58, 41
4, 159840, Note_on_c, 0, 51, 41
4, 159863, Note_on_c, 0, 50, 0
4, 160080, Note_on_c, 0, 55, 0
4, 160080, Note_on_c, 0, 58, 0
4, 160080, Note_on_c, 0, 55, 41
4, 160080, Note_on_c, 0, 58, 41
4, 160560, Note_on_c, 0, 58, 0
4, 160560, Note_on_c, 0, 55, 0
4, 160560, Note_on_c, 0, 55, 41
4, 160560, Note_on_c, 0, 58, 41
4, 160800, Note_on_c, 0, 52, 41
4, 160847, Note_on_c, 0, 51, 0
4, 161040, Note_on_c, 0, 55, 0
4, 161040, Note_on_c, 0, 58, 0
4, 161040, Note_on_c, 0, 55, 41
4, 161040, Note_on_c, 0, 58, 41
4, 161280, Note_on_c, 0, 53, 41
4, 161303, Note_on_c, 0, 52, 0
4, 161520, Note_on_c, 0, 55, 0
4, 161520, Note_on_c, 0, 58, 0
4, 161520, Note_on_c, 0, 55, 41
4, 161520, Note_on_c, 0, 58, 41
4, 162000, Note_on_c, 0, 58, 0
4, 162000, Note_on_c, 0, 55, 0
4, 162000, Note_on_c, 0, 55, 41
4, 162000, Note_on_c, 0, 58, 41
4, 162480, Note_on_c, 0, 58, 0
4, 162480, Note_on_c, 0, 55, 0
4, 162480, Note_on_c, 0, 55, 41
4, 162480, Note_on_c, 0, 58, 41
4, 162960, Note_on_c, 0, 58, 0
4, 162960, Note_on_c, 0, 55, 0
4, 162960, Note_on_c, 0, 55, 41
4, 162960, Note_on_c, 0, 58, 41
4, 163200, Note_on_c, 0, 58, 0
4, 163200, Note_on_c, 0, 55, 0
4, 163200, Note_on_c, 0, 54, 41
4, 163296, Note_on_c, 0, 53, 0
4, 163440, Note_on_c, 0, 57, 41
4, 163440, Note_on_c, 0, 60, 41
4, 163680, Note_on_c, 0, 54, 0
4, 163680, Note_on_c, 0, 53, 41
4, 163920, Note_on_c, 0, 53, 0
4, 163920, Note_on_c, 0, 52, 41
4, 164160, Note_on_c, 0, 52, 0
4, 164160, Note_on_c, 0, 51, 41
4, 164400, Note_on_c, 0, 60, 0
4, 164400, Note_on_c, 0, 57, 0
4, 164400, Note_on_c, 0, 57, 41
4, 164400, Note_on_c, 0, 60, 41
4, 164640, Note_on_c, 0, 51, 0
4, 164640, Note_on_c, 0, 50, 41
4, 164880, Note_on_c, 0, 60, 0
4, 164880, Note_on_c, 0, 57, 0
4, 164880, Note_on_c, 0, 57, 41
4, 164880, Note_on_c, 0, 60, 41
4, 165120, Note_on_c, 0, 60, 0
4, 165120, Note_on_c, 0, 57, 0
4, 165120, Note_on_c, 0, 50, 0
4, 165120, Note_on_c, 0, 49, 41
4, 165360, Note_on_c, 0, 55, 41
4, 165360, Note_on_c, 0, 58, 41
4, 165840, Note_on_c, 0, 58, 0
4, 165840, Note_on_c, 0, 55, 0
4, 165840, Note_on_c, 0, 55, 41
4, 165840, Note_on_c, 0, 58, 41
4, 166080, Note_on_c, 0, 50, 41
4, 166127, Note_on_c, 0, 49, 0
4, 166320, Note_on_c, 0, 55, 0
4, 166320, Note_on_c, 0, 58, 0
4, 166320, Note_on_c, 0, 55, 41
4, 166320, Note_on_c, 0, 58, 41
4, 166800, Note_on_c, 0, 58, 0
4, 166800, Note_on_c, 0, 55, 0
4, 166800, Note_on_c, 0, 55, 41
4, 166800, Note_on_c, 0, 58, 41
4, 167040, Note_on_c, 0, 51, 41
4, 167087, Note_on_c, 0, 50, 0
4, 167280, Note_on_c, 0, 55, 0
4, 167280, Note_on_c, 0, 58, 0
4, 167280, Note_on_c, 0, 55, 41
4, 167280, Note_on_c, 0, 58, 41
4, 167520, Note_on_c, 0, 51, 41
4, 167543, Note_on_c, 0, 51, 0
4, 167760, Note_on_c, 0, 55, 0
4, 167760, Note_on_c, 0, 58, 0
4, 167760, Note_on_c, 0, 55, 41
4, 167760, Note_on_c, 0, 58, 41
4, 168240, Note_on_c, 0, 58, 0
4, 168240, Note_on_c, 0, 55, 0
4, 168240, Note_on_c, 0, 55, 41
4, 168240, Note_on_c, 0, 58, 41
4, 168720, Note_on_c, 0, 58, 0
4, 168720, Note_on_c, 0, 55, 0
4, 168720, Note_on_c, 0, 55, 41
4, 168720, Note_on_c, 0, 58, 41
4, 168960, Note_on_c, 0, 53, 41
4, 169032, Note_on_c, 0, 51, 0
4, 169200, Note_on_c, 0, 55, 0
4, 169200, Note_on_c, 0, 58, 0
4, 169200, Note_on_c, 0, 55, 41
4, 169200, Note_on_c, 0, 58, 41
4, 169680, Note_on_c, 0, 58, 0
4, 169680, Note_on_c, 0, 55, 0
4, 169680, Note_on_c, 0, 55, 41
4, 169680, Note_on_c, 0, 58, 41
4, 170160, Note_on_c, 0, 58, 0
4, 170160, Note_on_c, 0, 55, 0
4, 170160, Note_on_c, 0, 55, 41
4, 170160, Note_on_c, 0, 58, 41
4, 170640, Note_on_c, 0, 58, 0
4, 170640, Note_on_c, 0, 55, 0
4, 170640, Note_on_c, 0, 55, 41
4, 170640, Note_on_c, 0, 58, 41
4, 170880, Note_on_c, 0, 58, 0
4, 170880, Note_on_c, 0, 55, 0
4, 170880, Note_on_c, 0, 53, 0
4, 170880, Note_on_c, 0, 54, 41
4, 171120, Note_on_c, 0, 57, 41
4, 171120, Note_on_c, 0, 60, 41
4, 171360, Note_on_c, 0, 54, 0
4, 171360, Note_on_c, 0, 53, 41
4, 171600, Note_on_c, 0, 53, 0
4, 171600, Note_on_c, 0, 52, 41
4, 171840, Note_on_c, 0, 52, 0
4, 171840, Note_on_c, 0, 51, 41
4, 172080, Note_on_c, 0, 60, 0
4, 172080, Note_on_c, 0, 57, 0
4, 172080, Note_on_c, 0, 57, 41
4, 172080, Note_on_c, 0, 60, 41
4, 172320, Note_on_c, 0, 51, 0
4, 172320, Note_on_c, 0, 50, 41
4, 172560, Note_on_c, 0, 60, 0
4, 172560, Note_on_c, 0, 57, 0
4, 172560, Note_on_c, 0, 57, 41
4, 172560, Note_on_c, 0, 60, 41
4, 172800, Note_on_c, 0, 60, 0
4, 172800, Note_on_c, 0, 57, 0
4, 172800, Note_on_c, 0, 50, 0
4, 172800, Note_on_c, 0, 50, 41
4, 173040, Note_on_c, 0, 58, 41
4, 173040, Note_on_c, 0, 62, 41
4, 173280, Note_on_c, 0, 50, 0
4, 173280, Note_on_c, 0, 55, 41
4, 173520, Note_on_c, 0, 62, 0
4, 173520, Note_on_c, 0, 58, 0
4, 173520, Note_on_c, 0, 58, 41
4, 173520, Note_on_c, 0, 62, 41
4, 173760, Note_on_c, 0, 55, 0
4, 173760, Note_on_c, 0, 56, 41
4, 174000, Note_on_c, 0, 62, 0
4, 174000, Note_on_c, 0, 58, 0
4, 174000, Note_on_c, 0, 58, 41
4, 174000, Note_on_c, 0, 62, 41
4, 174480, Note_on_c, 0, 62, 0
4, 174480, Note_on_c, 0, 58, 0
4, 174480, Note_on_c, 0, 58, 41
4, 174480, Note_on_c, 0, 62, 41
4, 174720, Note_on_c, 0, 56, 0
4, 174720, Note_on_c, 0, 55, 41
4, 174960, Note_on_c, 0, 62, 0
4, 174960, Note_on_c, 0, 58, 0
4, 174960, Note_on_c, 0, 58, 41
4, 174960, Note_on_c, 0, 62, 41
4, 175440, Note_on_c, 0, 62, 0
4, 175440, Note_on_c, 0, 58, 0
4, 175440, Note_on_c, 0, 58, 41
4, 175440, Note_on_c, 0, 62, 41
4, 175680, Note_on_c, 0, 55, 0
4, 175680, Note_on_c, 0, 56, 41
4, 175920, Note_on_c, 0, 62, 0
4, 175920, Note_on_c, 0, 58, 0
4, 175920, Note_on_c, 0, 58, 41
4, 175920, Note_on_c, 0, 62, 41
4, 176400, Note_on_c, 0, 62, 0
4, 176400, Note_on_c, 0, 58, 0
4, 176400, Note_on_c, 0, 58, 41
4, 176400, Note_on_c, 0, 62, 41
4, 176640, Note_on_c, 0, 56, 0
4, 176640, Note_on_c, 0, 55, 41
4, 176880, Note_on_c, 0, 62, 0
4, 176880, Note_on_c, 0, 58, 0
4, 176880, Note_on_c, 0, 58, 41
4, 176880, Note_on_c, 0, 62, 41
4, 177360, Note_on_c, 0, 62, 0
4, 177360, Note_on_c, 0, 58, 0
4, 177360, Note_on_c, 0, 58, 41
4, 177360, Note_on_c, 0, 62, 41
4, 178560, Note_on_c, 0, 55, 0
4, 178560, Note_on_c, 0, 55, 41
4, 178800, Note_on_c, 0, 62, 0
4, 178800, Note_on_c, 0, 58, 0
4, 178800, Note_on_c, 0, 58, 41
4, 178800, Note_on_c, 0, 62, 41
4, 179280, Note_on_c, 0, 62, 0
4, 179280, Note_on_c, 0, 58, 0
4, 179280, Note_on_c, 0, 58, 41
4, 179280, Note_on_c, 0, 62, 41
4, 179520, Note_on_c, 0, 62, 0
4, 179520, Note_on_c, 0, 58, 0
4, 179520, Note_on_c, 0, 58, 41
4, 179520, Note_on_c, 0, 62, 41
4, 180390, Note_on_c, 0, 50, 41
4, 180420, Note_on_c, 0, 55, 41
4, 180450, Note_on_c, 0, 58, 41
4, 180480, Note_on_c, 0, 62, 0
4, 180480, Note_on_c, 0, 55, 0
4, 180480, Note_on_c, 0, 58, 0
4, 180480, Note_on_c, 0, 62, 41
4, 182310, Note_on_c, 0, 53, 41
4, 182340, Note_on_c, 0, 58, 41
4, 182370, Note_on_c, 0, 61, 41
4, 182400, Note_on_c, 0, 62, 0
4, 182400, Note_on_c, 0, 50, 0
4, 182400, Note_on_c, 0, 58, 0
4, 182400, Note_on_c, 0, 55, 0
4, 182400, Note_on_c, 0, 65, 41
4, 184230, Note_on_c, 0, 52, 41
4, 184260, Note_on_c, 0, 57, 41
4, 184290, Note_on_c, 0, 61, 41
4, 184320, Note_on_c, 0, 65, 0
4, 184320, Note_on_c, 0, 61, 0
4, 184320, Note_on_c, 0, 58, 0
4, 184320, Note_on_c, 0, 53, 0
4, 184320, Note_on_c, 0, 64, 41
4, 186150, Note_on_c, 0, 51, 41
4, 186180, Note_on_c, 0, 56, 41
4, 186210, Note_on_c, 0, 60, 41
4, 186240, Note_on_c, 0, 64, 0
4, 186240, Note_on_c, 0, 61, 0
4, 186240, Note_on_c, 0, 57, 0
4, 186240, Note_on_c, 0, 52, 0
4, 186240, Note_on_c, 0, 63, 41
4, 187110, Note_on_c, 0, 51, 41
4, 187140, Note_on_c, 0, 56, 41
4, 187170, Note_on_c, 0, 60, 41
4, 187200, Note_on_c, 0, 63, 0
4, 187200, Note_on_c, 0, 60, 0
4, 187200, Note_on_c, 0, 56, 0
4, 187200, Note_on_c, 0, 51, 0
4, 187200, Note_on_c, 0, 63, 41
4, 188100, Note_on_c, 0, 50, 41
4, 188100, Note_on_c, 0, 55, 41
4, 188100, Note_on_c, 0, 59, 41
4, 188100, Note_on_c, 0, 62, 41
4, 188160, Note_on_c, 0, 62, 0
4, 188160, Note_on_c, 0, 56, 0
4, 188160, Note_on_c, 0, 50, 0
4, 188160, Note_on_c, 0, 51, 0
4, 188160, Note_on_c, 0, 60, 0
4, 188160, Note_on_c, 0, 63, 0
4, 188160, Note_on_c, 0, 55, 0
4, 188160, Note_on_c, 0, 59, 0
4, 188160, Note_on_c, 0, 50, 28
4, 188160, Note_on_c, 0, 55, 28
4, 188160, Note_on_c, 0, 59, 28
4, 188160, Note_on_c, 0, 62, 28
4, 190080, Note_on_c, 0, 55, 0
4, 190080, Note_on_c, 0, 55, 28
4, 191040, Note_on_c, 0, 55, 0
4, 191040, Note_on_c, 0, 62, 0
4, 191040, Note_on_c, 0, 59, 0
4, 191040, Note_on_c, 0, 50, 0
4, 191040, Note_on_c, 0, 51, 28
4, 191040, Note_on_c, 0, 57, 28
4, 192000, Note_on_c, 0, 57, 0
4, 192000, Note_on_c, 0, 51, 0
4, 192000, Note_on_c, 0, 50, 28
4, 192000, Note_on_c, 0, 55, 28
4, 193920, Note_on_c, 0, 55, 0
4, 193920, Note_on_c, 0, 50, 0
4, 193920, Note_on_c, 0, 50, 28
4, 193920, Note_on_c, 0, 55, 28
4, 194400, Note_on_c, 0, 55, 0
4, 194400, Note_on_c, 0, 50, 0
4, 194400, Note_on_c, 0, 59, 28
4, 195120, Note_on_c, 0, 59, 0
4, 195120, Note_on_c, 0, 57, 28
4, 195360, Note_on_c, 0, 57, 0
4, 195360, Note_on_c, 0, 51, 28
4, 195600, Note_on_c, 0, 51, 0
4, 195600, Note_on_c, 0, 48, 28
4, 195840, Note_on_c, 0, 48, 0
4, 195840, Note_on_c, 0, 47, 28
4, 197760, Note_on_c, 0, 47, 0
4, 199600, Note_on_c, 0, 52, 28
4, 199640, Note_on_c, 0, 55, 28
4, 199680, Note_on_c, 0, 59, 28
4, 201600, Note_on_c, 0, 59, 0
4, 201600, Note_on_c, 0, 55, 0
4, 201600, Note_on_c, 0, 52, 0
4, 201600, Note_on_c, 0, 50, 80
4, 201600, Note_on_c, 0, 59, 80
4, 203520, Note_on_c, 0, 59, 0
4, 203520, Note_on_c, 0, 50, 0
4, 203520, End_track
5, 0, Start_track
5, 0, Title_t, "2 Piano LH"
5, 0, Program_c, 0, 0
5, 0, Control_c, 0, 7, 105
5, 0, Control_c, 0, 10, 44
5, 0, Note_on_c, 0, 43, 41
5, 127, Note_on_c, 0, 43, 0
5, 320, Note_on_c, 0, 50, 41
5, 480, Note_on_c, 0, 50, 0
5, 480, Note_on_c, 0, 58, 54
5, 800, Note_on_c, 0, 58, 0
5, 800, Note_on_c, 0, 50, 54
5, 960, Note_on_c, 0, 60, 54
5, 1920, Note_on_c, 0, 60, 0
5, 1920, Note_on_c, 0, 50, 0
5, 1920, Note_on_c, 0, 43, 54
5, 2047, Note_on_c, 0, 43, 0
5, 2240, Note_on_c, 0, 50, 54
5, 2400, Note_on_c, 0, 50, 0
5, 2400, Note_on_c, 0, 58, 54
5, 2720, Note_on_c, 0, 58, 0
5, 2720, Note_on_c, 0, 50, 54
5, 2880, Note_on_c, 0, 60, 54
5, 3840, Note_on_c, 0, 60, 0
5, 3840, Note_on_c, 0, 50, 0
5, 3840, Note_on_c, 0, 43, 54
5, 3967, Note_on_c, 0, 43, 0
5, 4160, Note_on_c, 0, 50, 54
5, 4320, Note_on_c, 0, 50, 0
5, 4320, Note_on_c, 0, 62, 54
5, 4640, Note_on_c, 0, 62, 0
5, 4640, Note_on_c, 0, 50, 54
5, 4800, Note_on_c, 0, 60, 54
5, 5760, Note_on_c, 0, 60, 0
5, 5760, Note_on_c, 0, 50, 0
5, 5760, Note_on_c, 0, 43, 54
5, 5887, Note_on_c, 0, 43, 0
5, 6080, Note_on_c, 0, 50, 54
5, 6240, Note_on_c, 0, 50, 0
5, 6240, Note_on_c, 0, 62, 54
5, 6560, Note_on_c, 0, 62, 0
5, 6560, Note_on_c, 0, 50, 54
5, 6720, Note_on_c, 0, 60, 54
5, 7680, Note_on_c, 0, 60, 0
5, 7680, Note_on_c, 0, 50, 0
5, 7680, Note_on_c, 0, 43, 54
5, 7807, Note_on_c, 0, 43, 0
5, 8000, Note_on_c, 0, 58, 54
5, 8160, Note_on_c, 0, 58, 0
5, 8160, Note_on_c, 0, 62, 54
5, 8480, Note_on_c, 0, 62, 0
5, 8480, Note_on_c, 0, 58, 54
5, 8640, Note_on_c, 0, 58, 0
5, 8640, Note_on_c, 0, 63, 54
5, 8640, Note_on_c, 0, 66, 54
5, 9600, Note_on_c, 0, 66, 0
5, 9600, Note_on_c, 0, 63, 0
5, 9600, Note_on_c, 0, 46, 54
5, 9727, Note_on_c, 0, 46, 0
5, 9920, Note_on_c, 0, 58, 54
5, 10080, Note_on_c, 0, 58, 0
5, 10080, Note_on_c, 0, 62, 54
5, 10400, Note_on_c, 0, 62, 0
5, 10400, Note_on_c, 0, 58, 54
5, 10560, Note_on_c, 0, 58, 0
5, 10560, Note_on_c, 0, 63, 54
5, 10560, Note_on_c, 0, 66, 54
5, 11520, Note_on_c, 0, 66, 0
5, 11520, Note_on_c, 0, 63, 0
5, 11520, Note_on_c, 0, 46, 54
5, 11647, Note_on_c, 0, 46, 0
5, 11840, Note_on_c, 0, 58, 54
5, 12000, Note_on_c, 0, 58, 0
5, 12000, Note_on_c, 0, 65, 54
5, 12320, Note_on_c, 0, 65, 0
5, 12320, Note_on_c, 0, 58, 54
5, 12480, Note_on_c, 0, 58, 0
5, 12480, Note_on_c, 0, 60, 54
5, 12480, Note_on_c, 0, 63, 54
5, 12672, Note_on_c, 0, 63, 0
5, 12672, Note_on_c, 0, 60, 0
5, 12960, Note_on_c, 0, 48, 54
5, 13152, Note_on_c, 0, 48, 0
5, 13440, Note_on_c, 0, 50, 54
5, 13567, Note_on_c, 0, 50, 0
5, 13760, Note_on_c, 0, 55, 54
5, 13920, Note_on_c, 0, 55, 0
5, 13920, Note_on_c, 0, 62, 54
5, 14240, Note_on_c, 0, 62, 0
5, 14240, Note_on_c, 0, 55, 54
5, 14400, Note_on_c, 0, 55, 0
5, 14400, Note_on_c, 0, 57, 54
5, 14400, Note_on_c, 0, 60, 54
5, 15360, Note_on_c, 0, 60, 0
5, 15360, Note_on_c, 0, 57, 0
5, 15360, Note_on_c, 0, 31, 54
5, 15360, Note_on_c, 0, 43, 54
5, 17280, Note_on_c, 0, 43, 0
5, 17280, Note_on_c, 0, 31, 0
5, 17280, Note_on_c, 0, 31, 54
5, 17280, Note_on_c, 0, 43, 54
5, 19200, Note_on_c, 0, 43, 0
5, 19200, Note_on_c, 0, 31, 0
5, 19200, Note_on_c, 0, 31, 54
5, 19200, Note_on_c, 0, 43, 54
5, 21120, Note_on_c, 0, 43, 0
5, 21120, Note_on_c, 0, 31, 0
5, 21120, Note_on_c, 0, 31, 54
5, 21120, Note_on_c, 0, 43, 54
5, 23040, Note_on_c, 0, 43, 0
5, 23040, Note_on_c, 0, 31, 0
5, 23040, Note_on_c, 0, 31, 54
5, 23040, Note_on_c, 0, 43, 54
5, 24960, Note_on_c, 0, 43, 0
5, 24960, Note_on_c, 0, 31, 0
5, 24960, Note_on_c, 0, 31, 54
5, 24960, Note_on_c, 0, 43, 54
5, 26880, Note_on_c, 0, 43, 0
5, 26880, Note_on_c, 0, 31, 0
5, 26880, Note_on_c, 0, 34, 54
5, 26880, Note_on_c, 0, 46, 54
5, 27840, Note_on_c, 0, 46, 0
5, 27840, Note_on_c, 0, 34, 0
5, 27840, Note_on_c, 0, 36, 54
5, 27840, Note_on_c, 0, 48, 54
5, 28800, Note_on_c, 0, 48, 0
5, 28800, Note_on_c, 0, 36, 0
5, 28800, Note_on_c, 0, 38, 54
5, 28800, Note_on_c, 0, 50, 54
5, 30720, Note_on_c, 0, 50, 0
5, 30720, Note_on_c, 0, 38, 0
5, 30720, Note_on_c, 0, 38, 54
5, 30720, Note_on_c, 0, 50, 54
5, 32640, Note_on_c, 0, 50, 0
5, 32640, Note_on_c, 0, 38, 0
5, 32640, Note_on_c, 0, 38, 54
5, 34560, Note_on_c, 0, 38, 0
5, 34560, Note_on_c, 0, 43, 93
5, 35520, Note_on_c, 0, 43, 0
5, 35520, Note_on_c, 0, 48, 93
5, 35520, Note_on_c, 0, 55, 93
5, 36480, Note_on_c, 0, 55, 0
5, 36480, Note_on_c, 0, 48, 0
5, 36480, Note_on_c, 0, 41, 93
5, 36480, Note_on_c, 0, 48, 93
5, 36960, Note_on_c, 0, 48, 0
5, 36960, Note_on_c, 0, 41, 0
5, 37440, Note_on_c, 0, 29, 93
5, 37440, Note_on_c, 0, 41, 93
5, 39360, Note_on_c, 0, 41, 0
5, 39360, Note_on_c, 0, 29, 0
5, 39360, Note_on_c, 0, 29, 93
5, 39360, Note_on_c, 0, 41, 93
5, 40320, Note_on_c, 0, 41, 0
5, 40320, Note_on_c, 0, 29, 0
5, 40320, Note_on_c, 0, 29, 93
5, 40320, Note_on_c, 0, 41, 93
5, 41280, Note_on_c, 0, 41, 0
5, 41280, Note_on_c, 0, 29, 0
5, 41280, Note_on_c, 0, 31, 93
5, 41280, Note_on_c, 0, 43, 93
5, 42720, Note_on_c, 0, 43, 0
5, 42720, Note_on_c, 0, 31, 0
5, 42720, Note_on_c, 0, 36, 93
5, 42720, Note_on_c, 0, 48, 93
5, 44640, Note_on_c, 0, 48, 0
5, 44640, Note_on_c, 0, 36, 0
5, 44640, Note_on_c, 0, 36, 93
5, 44640, Note_on_c, 0, 48, 93
5, 48000, Note_on_c, 0, 48, 0
5, 48000, Note_on_c, 0, 36, 0
5, 48000, Note_on_c, 0, 36, 93
5, 48000, Note_on_c, 0, 48, 93
5, 50400, Note_on_c, 0, 48, 0
5, 50400, Note_on_c, 0, 36, 0
5, 50400, Note_on_c, 0, 36, 127
5, 50400, Note_on_c, 0, 48, 127
5, 52800, Note_on_c, 0, 48, 0
5, 52800, Note_on_c, 0, 36, 0
5, 52800, Note_on_c, 0, 29, 127
5, 52800, Note_on_c, 0, 41, 127
5, 57600, Note_on_c, 0, 41, 0
5, 57600, Note_on_c, 0, 29, 0
5, 57600, Note_on_c, 0, 27, 80
5, 57600, Note_on_c, 0, 39, 80
5, 60480, Note_on_c, 0, 39, 0
5, 60480, Note_on_c, 0, 27, 0
5, 60480, Note_on_c, 0, 39, 80
5, 63360, Note_on_c, 0, 39, 0
5, 63360, Note_on_c, 0, 39, 54
5, 65280, Note_on_c, 0, 39, 0
5, 65280, Note_on_c, 0, 38, 41
5, 67200, Note_on_c, 0, 38, 0
5, 67200, Note_on_c, 0, 38, 41
5, 69120, Note_on_c, 0, 38, 0
5, 69120, Note_on_c, 0, 38, 41
5, 71040, Note_on_c, 0, 38, 0
5, 71040, Note_on_c, 0, 38, 41
5, 72960, Note_on_c, 0, 38, 0
5, 72960, Note_on_c, 0, 38, 80
5, 74880, Note_on_c, 0, 38, 0
5, 74880, Note_on_c, 0, 38, 80
5, 76800, Note_on_c, 0, 38, 0
5, 76800, Note_on_c, 0, 38, 80
5, 78720, Note_on_c, 0, 38, 0
5, 78720, Note_on_c, 0, 38, 80
5, 80640, Note_on_c, 0, 38, 0
5, 80640, Note_on_c, 0, 38, 80
5, 82560, Note_on_c, 0, 38, 0
5, 82560, Note_on_c, 0, 38, 80
5, 84480, Note_on_c, 0, 38, 0
5, 84480, Note_on_c, 0, 38, 80
5, 86400, Note_on_c, 0, 38, 0
5, 86400, Note_on_c, 0, 38, 80
5, 88320, Note_on_c, 0, 38, 0
5, 88320, Note_on_c, 0, 38, 80
5, 90720, Note_on_c, 0, 38, 0
5, 92160, Note_on_c, 0, 31, 80
5, 92160, Note_on_c, 0, 43, 80
5, 94080, Note_on_c, 0, 43, 0
5, 94080, Note_on_c, 0, 31, 0
5, 94080, Note_on_c, 0, 31, 80
5, 94080, Note_on_c, 0, 43, 80
5, 96000, Note_on_c, 0, 43, 0
5, 96000, Note_on_c, 0, 31, 0
5, 96000, Note_on_c, 0, 31, 80
5, 96000, Note_on_c, 0, 43, 80
5, 97920, Note_on_c, 0, 43, 0
5, 97920, Note_on_c, 0, 31, 0
5, 97920, Note_on_c, 0, 31, 80
5, 97920, Note_on_c, 0, 43, 80
5, 98880, Note_on_c, 0, 43, 0
5, 98880, Note_on_c, 0, 31, 0
5, 98880, Note_on_c, 0, 31, 80
5, 98880, Note_on_c, 0, 43, 80
5, 99780, Note_on_c, 0, 30, 75
5, 99780, Note_on_c, 0, 42, 75
5, 99840, Note_on_c, 0, 42, 0
5, 99840, Note_on_c, 0, 31, 0
5, 99840, Note_on_c, 0, 43, 0
5, 99840, Note_on_c, 0, 30, 0
5, 99840, Note_on_c, 0, 30, 85
5, 99840, Note_on_c, 0, 42, 85
5, 103680, Note_on_c, 0, 42, 0
5, 103680, Note_on_c, 0, 30, 0
5, 103680, Note_on_c, 0, 30, 80
5, 103680, Note_on_c, 0, 42, 80
5, 107520, Note_on_c, 0, 42, 0
5, 107520, Note_on_c, 0, 30, 0
5, 107520, Note_on_c, 0, 30, 73
5, 107520, Note_on_c, 0, 42, 73
5, 109440, Note_on_c, 0, 42, 80
5, 109440, Note_on_c, 0, 54, 80
5, 109536, Note_on_c, 0, 42, 0
5, 109536, Note_on_c, 0, 30, 0
5, 111360, Note_on_c, 0, 30, 80
5, 111360, Note_on_c, 0, 42, 80
5, 111456, Note_on_c, 0, 42, 0
5, 111456, Note_on_c, 0, 54, 0
5, 113280, Note_on_c, 0, 30, 0
5, 113280, Note_on_c, 0, 42, 0
5, 113280, Note_on_c, 0, 30, 88
5, 113280, Note_on_c, 0, 42, 88
5, 114240, Note_on_c, 0, 30, 92
5, 114240, Note_on_c, 0, 42, 92
5, 114287, Note_on_c, 0, 42, 0
5, 114287, Note_on_c, 0, 30, 0
5, 115140, Note_on_c, 0, 29, 77
5, 115140, Note_on_c, 0, 41, 77
5, 115200, Note_on_c, 0, 41, 0
5, 115200, Note_on_c, 0, 29, 0
5, 115200, Note_on_c, 0, 29, 84
5, 115200, Note_on_c, 0, 41, 84
5, 115247, Note_on_c, 0, 30, 0
5, 115247, Note_on_c, 0, 42, 0
5, 119040, Note_on_c, 0, 29, 0
5, 119040, Note_on_c, 0, 41, 0
5, 119040, Note_on_c, 0, 29, 80
5, 119040, Note_on_c, 0, 41, 80
5, 122880, Note_on_c, 0, 41, 0
5, 122880, Note_on_c, 0, 29, 0
5, 122880, Note_on_c, 0, 36, 84
5, 122880, Note_on_c, 0, 43, 84
5, 124800, Note_on_c, 0, 43, 0
5, 124800, Note_on_c, 0, 36, 0
5, 124800, Note_on_c, 0, 36, 87
5, 124800, Note_on_c, 0, 43, 87
5, 126720, Note_on_c, 0, 43, 0
5, 126720, Note_on_c, 0, 36, 0
5, 126720, Note_on_c, 0, 28, 99
5, 126720, Note_on_c, 0, 40, 99
5, 130560, Note_on_c, 0, 40, 0
5, 130560, Note_on_c, 0, 28, 0
5, 130560, Note_on_c, 0, 31, 119
5, 130560, Note_on_c, 0, 43, 119
5, 134400, Note_on_c, 0, 43, 0
5, 134400, Note_on_c, 0, 31, 0
5, 134400, Note_on_c, 0, 31, 70
5, 134400, Note_on_c, 0, 43, 70
5, 138240, Note_on_c, 0, 43, 0
5, 138240, Note_on_c, 0, 31, 0
5, 138240, Note_on_c, 0, 31, 80
5, 138240, Note_on_c, 0, 43, 80
5, 139200, Note_on_c, 0, 43, 0
5, 139200, Note_on_c, 0, 31, 0
5, 139200, Note_on_c, 0, 31, 80
5, 139200, Note_on_c, 0, 43, 80
5, 141120, Note_on_c, 0, 43, 0
5, 141120, Note_on_c, 0, 31, 0
5, 141120, Note_on_c, 0, 31, 80
5, 141120, Note_on_c, 0, 43, 80
5, 143040, Note_on_c, 0, 43, 0
5, 143040, Note_on_c, 0, 31, 0
5, 143040, Note_on_c, 0, 31, 80
5, 143040, Note_on_c, 0, 43, 80
5, 144960, Note_on_c, 0, 43, 0
5, 144960, Note_on_c, 0, 31, 0
5, 144960, Note_on_c, 0, 31, 80
5, 144960, Note_on_c, 0, 43, 80
5, 146880, Note_on_c, 0, 43, 0
5, 146880, Note_on_c, 0, 31, 0
5, 146880, Note_on_c, 0, 39, 80
5, 146880, Note_on_c, 0, 46, 80
5, 147840, Note_on_c, 0, 46, 0
5, 147840, Note_on_c, 0, 39, 0
5, 147840, Note_on_c, 0, 34, 80
5, 147840, Note_on_c, 0, 46, 80
5, 148800, Note_on_c, 0, 46, 0
5, 148800, Note_on_c, 0, 34, 0
5, 148800, Note_on_c, 0, 39, 80
5, 148800, Note_on_c, 0, 46, 80
5, 149760, Note_on_c, 0, 46, 0
5, 149760, Note_on_c, 0, 39, 0
5, 149760, Note_on_c, 0, 34, 80
5, 149760, Note_on_c, 0, 46, 80
5, 150720, Note_on_c, 0, 46, 0
5, 150720, Note_on_c, 0, 34, 0
5, 150720, Note_on_c, 0, 36, 80
5, 151680, Note_on_c, 0, 36, 0
5, 151680, Note_on_c, 0, 38, 80
5, 153600, Note_on_c, 0, 38, 0
5, 153600, Note_on_c, 0, 38, 80
5, 155520, Note_on_c, 0, 38, 0
5, 155520, Note_on_c, 0, 38, 80
5, 157920, Note_on_c, 0, 38, 0
5, 157920, Note_on_c, 0, 31, 80
5, 157920, Note_on_c, 0, 43, 80
5, 159840, Note_on_c, 0, 43, 0
5, 159840, Note_on_c, 0, 31, 0
5, 159840, Note_on_c, 0, 31, 80
5, 159840, Note_on_c, 0, 43, 80
5, 163200, Note_on_c, 0, 43, 0
5, 163200, Note_on_c, 0, 31, 0
5, 163200, Note_on_c, 0, 31, 80
5, 163200, Note_on_c, 0, 43, 80
5, 165600, Note_on_c, 0, 43, 0
5, 165600, Note_on_c, 0, 31, 0
5, 165600, Note_on_c, 0, 31, 80
5, 165600, Note_on_c, 0, 43, 80
5, 168000, Note_on_c, 0, 43, 0
5, 168000, Note_on_c, 0, 31, 0
5, 168000, Note_on_c, 0, 36, 80
5, 168000, Note_on_c, 0, 43, 80
5, 169920, Note_on_c, 0, 43, 0
5, 169920, Note_on_c, 0, 36, 0
5, 169920, Note_on_c, 0, 31, 80
5, 169920, Note_on_c, 0, 43, 80
5, 172800, Note_on_c, 0, 43, 0
5, 172800, Note_on_c, 0, 31, 0
5, 172800, Note_on_c, 0, 31, 54
5, 172800, Note_on_c, 0, 43, 54
5, 173760, Note_on_c, 0, 43, 0
5, 173760, Note_on_c, 0, 31, 0
5, 173760, Note_on_c, 0, 34, 54
5, 173760, Note_on_c, 0, 46, 54
5, 174720, Note_on_c, 0, 46, 0
5, 174720, Note_on_c, 0, 34, 0
5, 174720, Note_on_c, 0, 31, 54
5, 174720, Note_on_c, 0, 43, 54
5, 175680, Note_on_c, 0, 43, 0
5, 175680, Note_on_c, 0, 31, 0
5, 175680, Note_on_c, 0, 34, 54
5, 175680, Note_on_c, 0, 46, 54
5, 176640, Note_on_c, 0, 46, 0
5, 176640, Note_on_c, 0, 34, 0
5, 176640, Note_on_c, 0, 31, 54
5, 176640, Note_on_c, 0, 43, 54
5, 178560, Note_on_c, 0, 43, 0
5, 178560, Note_on_c, 0, 31, 0
5, 178560, Note_on_c, 0, 31, 54
5, 178560, Note_on_c, 0, 43, 54
5, 180480, Note_on_c, 0, 43, 0
5, 180480, Note_on_c, 0, 31, 0
5, 180480, Note_on_c, 0, 31, 54
5, 180480, Note_on_c, 0, 43, 54
5, 182400, Note_on_c, 0, 43, 0
5, 182400, Note_on_c, 0, 31, 0
5, 182400, Note_on_c, 0, 31, 54
5, 182400, Note_on_c, 0, 43, 54
5, 184320, Note_on_c, 0, 43, 0
5, 184320, Note_on_c, 0, 31, 0
5, 184320, Note_on_c, 0, 31, 54
5, 184320, Note_on_c, 0, 43, 54
5, 186240, Note_on_c, 0, 43, 0
5, 186240, Note_on_c, 0, 31, 0
5, 186240, Note_on_c, 0, 31, 54
5, 186240, Note_on_c, 0, 43, 54
5, 187200, Note_on_c, 0, 43, 0
5, 187200, Note_on_c, 0, 31, 0
5, 187200, Note_on_c, 0, 31, 54
5, 187200, Note_on_c, 0, 43, 54
5, 188100, Note_on_c, 0, 31, 54
5, 188100, Note_on_c, 0, 43, 54
5, 188160, Note_on_c, 0, 43, 0
5, 188160, Note_on_c, 0, 31, 0
5, 188160, Note_on_c, 0, 43, 0
5, 188160, Note_on_c, 0, 31, 0
5, 188160, Note_on_c, 0, 31, 54
5, 188160, Note_on_c, 0, 43, 54
5, 191040, Note_on_c, 0, 43, 0
5, 191040, Note_on_c, 0, 31, 0
5, 191040, Note_on_c, 0, 31, 54
5, 191040, Note_on_c, 0, 43, 54
5, 192000, Note_on_c, 0, 31, 54
5, 192000, Note_on_c, 0, 43, 54
5, 192047, Note_on_c, 0, 43, 0
5, 192047, Note_on_c, 0, 31, 0
5, 197760, Note_on_c, 0, 31, 0
5, 197760, Note_on_c, 0, 43, 0
5, 199680, Note_on_c, 0, 37, 54
5, 199680, Note_on_c, 0, 49, 54
5, 201600, Note_on_c, 0, 49, 0
5, 201600, Note_on_c, 0, 37, 0
5, 201600, Note_on_c, 0, 31, 54
5, 201600, Note_on_c, 0, 43, 54
5, 203520, Note_on_c, 0, 43, 0
5, 203520, Note_on_c, 0, 31, 0
5, 203520, End_track
6, 0, Start_track
6, 0, Title_t, "Barcarolle, Op.11 #1"
6, 0, End_track
7, 0, Start_track
7, 0, Title_t, "By Sergei Rachmoninov"
7, 0, End_track
8, 0, Start_track
8, 0, Title_t, "Sequenced By"
8, 0, End_track
9, 0, Start_track
9, 0, Title_t, "Nathan Leopold"
9, 0, End_track
0, 0, End_of_file
