0, 0, Header, 1, 7, 480
1, 0, Start_track
1, 0, Title_t, "Flight of the Bumble Bee"
1, 0, Copyright_t, "Eric Halstead 2004"
1, 0, Time_signature, 4, 2, 24, 8
1, 0, Key_signature, 0, "major"
1, 0, Tempo, 500000
1, 0, End_track
2, 0, Start_track
2, 0, Title_t, "Flight of the Bumble Bee"
2, 0, Program_c, 0, 0
2, 0, Control_c, 0, 7, 110
2, 0, Control_c, 0, 91, 85
2, 0, Control_c, 0, 11, 115
2, 12, Control_c, 0, 64, 127
2, 590, Note_on_c, 0, 64, 46
2, 607, Note_on_c, 0, 88, 63
2, 627, Note_on_c, 0, 68, 63
2, 627, Note_on_c, 0, 71, 61
2, 627, Note_on_c, 0, 76, 61
2, 662, Note_on_c, 0, 87, 65
2, 672, Note_on_c, 0, 88, 0
2, 697, Note_on_c, 0, 86, 65
2, 720, Note_on_c, 0, 87, 0
2, 732, Note_on_c, 0, 85, 64
2, 757, Note_on_c, 0, 86, 0
2, 780, Control_c, 0, 64, 0
2, 795, Note_on_c, 0, 64, 0
2, 805, Note_on_c, 0, 86, 71
2, 815, Note_on_c, 0, 76, 0
2, 815, Note_on_c, 0, 85, 0
2, 817, Note_on_c, 0, 71, 0
2, 817, Note_on_c, 0, 68, 0
2, 882, Note_on_c, 0, 85, 59
2, 912, Note_on_c, 0, 86, 0
2, 922, Note_on_c, 0, 84, 61
2, 970, Note_on_c, 0, 85, 0
2, 1002, Note_on_c, 0, 83, 65
2, 1010, Note_on_c, 0, 84, 0
2, 1062, Note_on_c, 0, 84, 69
2, 1072, Note_on_c, 0, 83, 0
2, 1125, Note_on_c, 0, 83, 61
2, 1147, Note_on_c, 0, 84, 0
2, 1175, Note_on_c, 0, 82, 64
2, 1205, Note_on_c, 0, 83, 0
2, 1262, Note_on_c, 0, 81, 61
2, 1270, Note_on_c, 0, 82, 0
2, 1342, Note_on_c, 0, 80, 65
2, 1352, Note_on_c, 0, 81, 0
2, 1405, Note_on_c, 0, 79, 66
2, 1415, Note_on_c, 0, 80, 0
2, 1470, Note_on_c, 0, 78, 66
2, 1497, Note_on_c, 0, 79, 0
2, 1522, Note_on_c, 0, 77, 72
2, 1535, Note_on_c, 0, 78, 0
2, 1567, Note_on_c, 0, 52, 51
2, 1582, Note_on_c, 0, 68, 77
2, 1582, Note_on_c, 0, 76, 84
2, 1590, Note_on_c, 0, 77, 0
2, 1602, Note_on_c, 0, 59, 41
2, 1642, Note_on_c, 0, 75, 63
2, 1645, Control_c, 0, 64, 127
2, 1692, Note_on_c, 0, 74, 59
2, 1702, Note_on_c, 0, 75, 0
2, 1702, Note_on_c, 0, 76, 0
2, 1772, Note_on_c, 0, 73, 67
2, 1780, Note_on_c, 0, 74, 0
2, 1827, Note_on_c, 0, 74, 43
2, 1842, Control_c, 0, 64, 0
2, 1857, Note_on_c, 0, 68, 0
2, 1857, Note_on_c, 0, 73, 0
2, 1877, Note_on_c, 0, 59, 0
2, 1880, Note_on_c, 0, 52, 0
2, 1907, Note_on_c, 0, 73, 62
2, 1917, Note_on_c, 0, 74, 0
2, 1972, Note_on_c, 0, 72, 60
2, 1995, Note_on_c, 0, 73, 0
2, 2022, Note_on_c, 0, 71, 70
2, 2032, Note_on_c, 0, 72, 0
2, 2085, Note_on_c, 0, 72, 62
2, 2092, Note_on_c, 0, 71, 0
2, 2147, Note_on_c, 0, 71, 61
2, 2155, Note_on_c, 0, 72, 0
2, 2225, Note_on_c, 0, 70, 60
2, 2232, Note_on_c, 0, 71, 0
2, 2285, Note_on_c, 0, 69, 63
2, 2312, Note_on_c, 0, 70, 0
2, 2342, Note_on_c, 0, 68, 68
2, 2350, Note_on_c, 0, 69, 0
2, 2420, Note_on_c, 0, 67, 61
2, 2427, Note_on_c, 0, 68, 0
2, 2507, Note_on_c, 0, 67, 0
2, 2517, Note_on_c, 0, 66, 73
2, 2577, Note_on_c, 0, 65, 78
2, 2582, Note_on_c, 0, 66, 0
2, 2615, Note_on_c, 0, 47, 82
2, 2615, Note_on_c, 0, 56, 80
2, 2617, Note_on_c, 0, 40, 77
2, 2630, Note_on_c, 0, 64, 69
2, 2660, Note_on_c, 0, 65, 0
2, 2692, Note_on_c, 0, 63, 72
2, 2695, Note_on_c, 0, 64, 0
2, 2755, Note_on_c, 0, 63, 0
2, 2765, Note_on_c, 0, 62, 63
2, 2825, Note_on_c, 0, 61, 66
2, 2832, Note_on_c, 0, 62, 0
2, 2852, Note_on_c, 0, 47, 0
2, 2852, Note_on_c, 0, 40, 0
2, 2852, Note_on_c, 0, 56, 0
2, 2885, Note_on_c, 0, 62, 62
2, 2892, Note_on_c, 0, 61, 0
2, 2947, Note_on_c, 0, 62, 0
2, 2947, Note_on_c, 0, 61, 62
2, 3012, Note_on_c, 0, 61, 0
2, 3027, Control_c, 0, 64, 127
2, 3042, Note_on_c, 0, 60, 60
2, 3087, Note_on_c, 0, 60, 0
2, 3120, Note_on_c, 0, 59, 65
2, 3157, Note_on_c, 0, 64, 68
2, 3165, Note_on_c, 0, 59, 0
2, 3172, Control_c, 0, 64, 0
2, 3220, Note_on_c, 0, 63, 62
2, 3222, Note_on_c, 0, 64, 0
2, 3275, Note_on_c, 0, 62, 62
2, 3320, Note_on_c, 0, 63, 0
2, 3330, Note_on_c, 0, 61, 64
2, 3360, Note_on_c, 0, 62, 0
2, 3395, Control_c, 0, 64, 127
2, 3415, Note_on_c, 0, 62, 66
2, 3420, Note_on_c, 0, 61, 0
2, 3475, Note_on_c, 0, 61, 64
2, 3497, Note_on_c, 0, 62, 0
2, 3530, Note_on_c, 0, 60, 62
2, 3555, Note_on_c, 0, 61, 0
2, 3607, Note_on_c, 0, 59, 65
2, 3640, Note_on_c, 0, 60, 0
2, 3660, Control_c, 0, 64, 0
2, 3667, Control_c, 0, 67, 127
2, 3690, Note_on_c, 0, 64, 83
2, 3697, Note_on_c, 0, 59, 0
2, 3752, Note_on_c, 0, 63, 65
2, 3780, Note_on_c, 0, 64, 0
2, 3810, Note_on_c, 0, 62, 60
2, 3837, Note_on_c, 0, 63, 0
2, 3870, Note_on_c, 0, 61, 65
2, 3872, Note_on_c, 0, 62, 0
2, 3907, Control_c, 0, 64, 127
2, 3922, Note_on_c, 0, 62, 66
2, 3932, Note_on_c, 0, 61, 0
2, 4000, Note_on_c, 0, 61, 63
2, 4030, Note_on_c, 0, 62, 0
2, 4077, Note_on_c, 0, 60, 63
2, 4085, Note_on_c, 0, 61, 0
2, 4135, Note_on_c, 0, 59, 59
2, 4160, Note_on_c, 0, 60, 0
2, 4215, Control_c, 0, 64, 0
2, 4227, Note_on_c, 0, 64, 70
2, 4235, Note_on_c, 0, 59, 0
2, 4282, Note_on_c, 0, 63, 67
2, 4307, Note_on_c, 0, 64, 0
2, 4320, Note_on_c, 0, 62, 70
2, 4375, Note_on_c, 0, 61, 72
2, 4380, Note_on_c, 0, 63, 0
2, 4417, Note_on_c, 0, 62, 0
2, 4472, Note_on_c, 0, 61, 0
2, 4482, Note_on_c, 0, 62, 74
2, 4522, Note_on_c, 0, 61, 56
2, 4545, Note_on_c, 0, 62, 0
2, 4577, Note_on_c, 0, 60, 54
2, 4597, Control_c, 0, 64, 127
2, 4600, Note_on_c, 0, 61, 0
2, 4635, Note_on_c, 0, 59, 53
2, 4680, Note_on_c, 0, 60, 0
2, 4682, Control_c, 0, 64, 0
2, 4737, Note_on_c, 0, 59, 0
2, 4750, Note_on_c, 0, 64, 78
2, 4765, Note_on_c, 0, 45, 71
2, 4765, Note_on_c, 0, 60, 74
2, 4772, Note_on_c, 0, 52, 73
2, 4805, Note_on_c, 0, 63, 65
2, 4832, Note_on_c, 0, 64, 0
2, 4885, Note_on_c, 0, 62, 61
2, 4887, Note_on_c, 0, 63, 0
2, 4890, Note_on_c, 0, 52, 0
2, 4890, Note_on_c, 0, 45, 0
2, 4890, Note_on_c, 0, 60, 0
2, 4967, Note_on_c, 0, 61, 61
2, 4970, Note_on_c, 0, 62, 0
2, 5030, Note_on_c, 0, 61, 0
2, 5040, Note_on_c, 0, 60, 72
2, 5100, Note_on_c, 0, 65, 62
2, 5107, Note_on_c, 0, 60, 0
2, 5160, Note_on_c, 0, 64, 61
2, 5210, Note_on_c, 0, 65, 0
2, 5242, Note_on_c, 0, 63, 62
2, 5250, Note_on_c, 0, 64, 0
2, 5307, Note_on_c, 0, 64, 71
2, 5315, Note_on_c, 0, 63, 0
2, 5327, Note_on_c, 0, 45, 71
2, 5327, Note_on_c, 0, 52, 72
2, 5327, Note_on_c, 0, 60, 67
2, 5382, Note_on_c, 0, 63, 69
2, 5395, Note_on_c, 0, 64, 0
2, 5442, Note_on_c, 0, 62, 64
2, 5450, Note_on_c, 0, 60, 0
2, 5450, Note_on_c, 0, 63, 0
2, 5450, Note_on_c, 0, 45, 0
2, 5470, Note_on_c, 0, 52, 0
2, 5522, Note_on_c, 0, 61, 63
2, 5525, Note_on_c, 0, 62, 0
2, 5602, Note_on_c, 0, 60, 66
2, 5605, Note_on_c, 0, 61, 0
2, 5617, Note_on_c, 0, 42, 60
2, 5617, Note_on_c, 0, 50, 66
2, 5617, Note_on_c, 0, 57, 60
2, 5682, Note_on_c, 0, 61, 59
2, 5685, Note_on_c, 0, 60, 0
2, 5725, Note_on_c, 0, 57, 0
2, 5725, Note_on_c, 0, 42, 0
2, 5725, Note_on_c, 0, 50, 0
2, 5757, Note_on_c, 0, 62, 68
2, 5765, Note_on_c, 0, 61, 0
2, 5822, Note_on_c, 0, 62, 0
2, 5832, Note_on_c, 0, 63, 70
2, 5900, Note_on_c, 0, 63, 0
2, 5912, Note_on_c, 0, 64, 78
2, 5935, Note_on_c, 0, 45, 73
2, 5935, Note_on_c, 0, 52, 74
2, 5935, Note_on_c, 0, 60, 74
2, 5987, Note_on_c, 0, 63, 64
2, 5997, Note_on_c, 0, 64, 0
2, 6037, Note_on_c, 0, 45, 0
2, 6037, Note_on_c, 0, 52, 0
2, 6047, Note_on_c, 0, 62, 65
2, 6057, Note_on_c, 0, 60, 0
2, 6057, Note_on_c, 0, 63, 0
2, 6127, Note_on_c, 0, 61, 63
2, 6135, Note_on_c, 0, 62, 0
2, 6215, Note_on_c, 0, 61, 0
2, 6227, Note_on_c, 0, 60, 68
2, 6260, Note_on_c, 0, 65, 64
2, 6305, Note_on_c, 0, 60, 0
2, 6337, Note_on_c, 0, 64, 61
2, 6382, Note_on_c, 0, 65, 0
2, 6395, Note_on_c, 0, 63, 61
2, 6405, Note_on_c, 0, 64, 0
2, 6457, Note_on_c, 0, 64, 63
2, 6480, Note_on_c, 0, 63, 0
2, 6515, Note_on_c, 0, 45, 63
2, 6515, Note_on_c, 0, 52, 61
2, 6515, Note_on_c, 0, 60, 66
2, 6537, Note_on_c, 0, 63, 62
2, 6540, Note_on_c, 0, 64, 0
2, 6582, Note_on_c, 0, 45, 0
2, 6592, Note_on_c, 0, 62, 64
2, 6600, Note_on_c, 0, 60, 0
2, 6600, Note_on_c, 0, 63, 0
2, 6600, Note_on_c, 0, 52, 0
2, 6670, Note_on_c, 0, 61, 65
2, 6680, Note_on_c, 0, 62, 0
2, 6757, Note_on_c, 0, 61, 0
2, 6770, Note_on_c, 0, 60, 59
2, 6805, Note_on_c, 0, 50, 59
2, 6805, Note_on_c, 0, 61, 65
2, 6807, Note_on_c, 0, 42, 62
2, 6810, Note_on_c, 0, 57, 62
2, 6832, Note_on_c, 0, 60, 0
2, 6872, Note_on_c, 0, 57, 0
2, 6875, Note_on_c, 0, 50, 0
2, 6875, Note_on_c, 0, 42, 0
2, 6895, Note_on_c, 0, 61, 0
2, 6925, Note_on_c, 0, 62, 63
2, 6985, Note_on_c, 0, 63, 63
2, 7010, Note_on_c, 0, 62, 0
2, 7062, Note_on_c, 0, 64, 62
2, 7070, Note_on_c, 0, 63, 0
2, 7080, Note_on_c, 0, 52, 65
2, 7080, Note_on_c, 0, 60, 62
2, 7082, Note_on_c, 0, 45, 66
2, 7120, Note_on_c, 0, 63, 64
2, 7142, Note_on_c, 0, 60, 0
2, 7142, Note_on_c, 0, 64, 0
2, 7187, Note_on_c, 0, 52, 0
2, 7187, Note_on_c, 0, 45, 0
2, 7195, Note_on_c, 0, 62, 62
2, 7202, Note_on_c, 0, 63, 0
2, 7257, Note_on_c, 0, 61, 61
2, 7282, Note_on_c, 0, 62, 0
2, 7337, Note_on_c, 0, 61, 0
2, 7350, Note_on_c, 0, 62, 64
2, 7370, Note_on_c, 0, 50, 62
2, 7370, Note_on_c, 0, 57, 64
2, 7372, Note_on_c, 0, 41, 61
2, 7407, Note_on_c, 0, 61, 67
2, 7432, Note_on_c, 0, 57, 0
2, 7432, Note_on_c, 0, 62, 0
2, 7455, Note_on_c, 0, 50, 0
2, 7455, Note_on_c, 0, 41, 0
2, 7470, Note_on_c, 0, 61, 0
2, 7482, Note_on_c, 0, 60, 59
2, 7490, Control_c, 0, 67, 0
2, 7547, Note_on_c, 0, 60, 0
2, 7560, Note_on_c, 0, 59, 59
2, 7617, Note_on_c, 0, 60, 62
2, 7640, Note_on_c, 0, 40, 66
2, 7640, Note_on_c, 0, 48, 63
2, 7642, Note_on_c, 0, 59, 0
2, 7677, Note_on_c, 0, 61, 66
2, 7697, Note_on_c, 0, 60, 0
2, 7722, Note_on_c, 0, 40, 0
2, 7740, Note_on_c, 0, 48, 0
2, 7752, Note_on_c, 0, 62, 61
2, 7755, Note_on_c, 0, 61, 0
2, 7810, Note_on_c, 0, 63, 60
2, 7837, Note_on_c, 0, 62, 0
2, 7902, Note_on_c, 0, 64, 78
2, 7912, Note_on_c, 0, 63, 0
2, 7922, Note_on_c, 0, 50, 78
2, 7922, Note_on_c, 0, 52, 76
2, 7945, Note_on_c, 0, 56, 62
2, 7945, Note_on_c, 0, 59, 64
2, 7967, Note_on_c, 0, 64, 0
2, 7980, Note_on_c, 0, 65, 65
2, 8015, Note_on_c, 0, 64, 64
2, 8040, Note_on_c, 0, 56, 0
2, 8057, Note_on_c, 0, 59, 0
2, 8060, Note_on_c, 0, 50, 0
2, 8060, Note_on_c, 0, 52, 0
2, 8080, Note_on_c, 0, 65, 0
2, 8090, Note_on_c, 0, 63, 59
2, 8100, Note_on_c, 0, 64, 0
2, 8147, Note_on_c, 0, 64, 65
2, 8157, Note_on_c, 0, 63, 0
2, 8167, Note_on_c, 0, 48, 61
2, 8167, Note_on_c, 0, 52, 66
2, 8167, Note_on_c, 0, 57, 65
2, 8222, Note_on_c, 0, 63, 46
2, 8225, Note_on_c, 0, 64, 0
2, 8267, Note_on_c, 0, 57, 0
2, 8267, Note_on_c, 0, 52, 0
2, 8280, Note_on_c, 0, 62, 53
2, 8287, Note_on_c, 0, 48, 0
2, 8302, Note_on_c, 0, 63, 0
2, 8335, Note_on_c, 0, 61, 58
2, 8357, Note_on_c, 0, 62, 0
2, 8405, Note_on_c, 0, 62, 53
2, 8427, Note_on_c, 0, 41, 54
2, 8427, Note_on_c, 0, 50, 54
2, 8427, Note_on_c, 0, 57, 57
2, 8435, Note_on_c, 0, 61, 0
2, 8490, Note_on_c, 0, 61, 59
2, 8515, Note_on_c, 0, 62, 0
2, 8555, Note_on_c, 0, 57, 0
2, 8555, Note_on_c, 0, 50, 0
2, 8555, Note_on_c, 0, 41, 0
2, 8567, Note_on_c, 0, 60, 60
2, 8575, Note_on_c, 0, 61, 0
2, 8632, Note_on_c, 0, 59, 61
2, 8652, Note_on_c, 0, 60, 0
2, 8705, Note_on_c, 0, 60, 59
2, 8732, Note_on_c, 0, 40, 54
2, 8732, Note_on_c, 0, 48, 56
2, 8755, Note_on_c, 0, 59, 0
2, 8767, Note_on_c, 0, 61, 60
2, 8812, Note_on_c, 0, 60, 0
2, 8842, Note_on_c, 0, 62, 55
2, 8855, Note_on_c, 0, 40, 0
2, 8875, Note_on_c, 0, 61, 0
2, 8877, Note_on_c, 0, 48, 0
2, 8902, Note_on_c, 0, 63, 60
2, 8950, Note_on_c, 0, 62, 0
2, 8962, Note_on_c, 0, 64, 55
2, 8982, Note_on_c, 0, 38, 60
2, 8982, Note_on_c, 0, 44, 56
2, 8982, Note_on_c, 0, 52, 56
2, 9007, Note_on_c, 0, 63, 0
2, 9040, Note_on_c, 0, 66, 55
2, 9087, Note_on_c, 0, 64, 0
2, 9120, Note_on_c, 0, 67, 58
2, 9130, Note_on_c, 0, 44, 0
2, 9130, Note_on_c, 0, 38, 0
2, 9150, Note_on_c, 0, 52, 0
2, 9150, Note_on_c, 0, 66, 0
2, 9182, Note_on_c, 0, 68, 60
2, 9227, Note_on_c, 0, 67, 0
2, 9240, Note_on_c, 0, 69, 57
2, 9247, Note_on_c, 0, 68, 0
2, 9282, Note_on_c, 0, 45, 64
2, 9282, Note_on_c, 0, 52, 63
2, 9302, Control_c, 0, 64, 127
2, 9302, Note_on_c, 0, 37, 66
2, 9302, Note_on_c, 0, 68, 57
2, 9327, Note_on_c, 0, 69, 0
2, 9395, Note_on_c, 0, 67, 61
2, 9420, Note_on_c, 0, 68, 0
2, 9462, Note_on_c, 0, 67, 0
2, 9475, Note_on_c, 0, 66, 66
2, 9485, Note_on_c, 0, 45, 0
2, 9522, Note_on_c, 0, 52, 0
2, 9525, Note_on_c, 0, 37, 0
2, 9550, Note_on_c, 0, 65, 70
2, 9557, Note_on_c, 0, 66, 0
2, 9557, Control_c, 0, 64, 0
2, 9570, Note_on_c, 0, 45, 54
2, 9572, Note_on_c, 0, 38, 51
2, 9572, Note_on_c, 0, 53, 48
2, 9630, Note_on_c, 0, 70, 47
2, 9655, Note_on_c, 0, 53, 0
2, 9657, Note_on_c, 0, 38, 0
2, 9657, Note_on_c, 0, 45, 0
2, 9682, Note_on_c, 0, 69, 60
2, 9707, Note_on_c, 0, 70, 0
2, 9762, Note_on_c, 0, 68, 62
2, 9770, Note_on_c, 0, 69, 0
2, 9827, Note_on_c, 0, 68, 0
2, 9827, Note_on_c, 0, 65, 0
2, 9840, Note_on_c, 0, 69, 60
2, 9902, Note_on_c, 0, 69, 0
2, 9915, Note_on_c, 0, 68, 66
2, 9960, Note_on_c, 0, 67, 59
2, 10007, Note_on_c, 0, 68, 0
2, 10032, Note_on_c, 0, 66, 66
2, 10042, Note_on_c, 0, 67, 0
2, 10110, Note_on_c, 0, 65, 72
2, 10120, Note_on_c, 0, 66, 0
2, 10132, Note_on_c, 0, 50, 62
2, 10150, Note_on_c, 0, 55, 62
2, 10150, Note_on_c, 0, 59, 65
2, 10185, Note_on_c, 0, 66, 65
2, 10195, Note_on_c, 0, 50, 0
2, 10207, Note_on_c, 0, 59, 0
2, 10210, Note_on_c, 0, 65, 0
2, 10232, Note_on_c, 0, 55, 0
2, 10245, Note_on_c, 0, 67, 60
2, 10252, Note_on_c, 0, 66, 0
2, 10322, Note_on_c, 0, 68, 59
2, 10325, Note_on_c, 0, 67, 0
2, 10397, Note_on_c, 0, 69, 64
2, 10407, Note_on_c, 0, 68, 0
2, 10420, Note_on_c, 0, 57, 66
2, 10420, Note_on_c, 0, 62, 72
2, 10440, Note_on_c, 0, 53, 68
2, 10480, Note_on_c, 0, 68, 65
2, 10527, Note_on_c, 0, 57, 0
2, 10542, Note_on_c, 0, 53, 0
2, 10542, Note_on_c, 0, 62, 0
2, 10555, Note_on_c, 0, 67, 72
2, 10562, Note_on_c, 0, 68, 0
2, 10582, Note_on_c, 0, 69, 0
2, 10630, Note_on_c, 0, 66, 65
2, 10640, Note_on_c, 0, 67, 0
2, 10720, Note_on_c, 0, 66, 0
2, 10732, Note_on_c, 0, 65, 68
2, 10772, Note_on_c, 0, 70, 60
2, 10830, Note_on_c, 0, 69, 66
2, 10840, Note_on_c, 0, 65, 0
2, 10860, Note_on_c, 0, 70, 0
2, 10915, Note_on_c, 0, 68, 64
2, 10917, Note_on_c, 0, 69, 0
2, 10985, Note_on_c, 0, 69, 61
2, 10997, Note_on_c, 0, 68, 0
2, 11007, Note_on_c, 0, 50, 65
2, 11007, Note_on_c, 0, 57, 65
2, 11010, Note_on_c, 0, 41, 65
2, 11042, Note_on_c, 0, 68, 61
2, 11050, Note_on_c, 0, 69, 0
2, 11087, Note_on_c, 0, 41, 0
2, 11087, Note_on_c, 0, 50, 0
2, 11087, Note_on_c, 0, 57, 0
2, 11120, Note_on_c, 0, 67, 60
2, 11130, Note_on_c, 0, 68, 0
2, 11197, Note_on_c, 0, 66, 61
2, 11205, Note_on_c, 0, 67, 0
2, 11265, Note_on_c, 0, 66, 0
2, 11275, Note_on_c, 0, 50, 51
2, 11275, Note_on_c, 0, 55, 50
2, 11275, Note_on_c, 0, 59, 51
2, 11275, Note_on_c, 0, 65, 59
2, 11330, Note_on_c, 0, 66, 63
2, 11355, Note_on_c, 0, 65, 0
2, 11375, Note_on_c, 0, 59, 0
2, 11377, Note_on_c, 0, 50, 0
2, 11387, Note_on_c, 0, 67, 66
2, 11397, Note_on_c, 0, 55, 0
2, 11415, Note_on_c, 0, 66, 0
2, 11467, Note_on_c, 0, 68, 65
2, 11475, Note_on_c, 0, 67, 0
2, 11520, Note_on_c, 0, 69, 67
2, 11542, Note_on_c, 0, 53, 66
2, 11542, Note_on_c, 0, 62, 70
2, 11545, Note_on_c, 0, 57, 65
2, 11547, Note_on_c, 0, 68, 0
2, 11595, Note_on_c, 0, 68, 64
2, 11602, Note_on_c, 0, 69, 0
2, 11602, Note_on_c, 0, 57, 0
2, 11602, Note_on_c, 0, 53, 0
2, 11625, Note_on_c, 0, 62, 0
2, 11655, Note_on_c, 0, 67, 63
2, 11680, Note_on_c, 0, 68, 0
2, 11732, Note_on_c, 0, 66, 61
2, 11740, Note_on_c, 0, 67, 0
2, 11792, Note_on_c, 0, 67, 61
2, 11820, Note_on_c, 0, 66, 0
2, 11832, Note_on_c, 0, 62, 62
2, 11845, Note_on_c, 0, 55, 65
2, 11852, Note_on_c, 0, 58, 62
2, 11867, Note_on_c, 0, 66, 64
2, 11892, Note_on_c, 0, 67, 0
2, 11930, Note_on_c, 0, 58, 0
2, 11930, Note_on_c, 0, 62, 0
2, 11940, Note_on_c, 0, 66, 0
2, 11940, Note_on_c, 0, 65, 58
2, 11942, Note_on_c, 0, 55, 0
2, 11992, Note_on_c, 0, 64, 51
2, 12040, Note_on_c, 0, 65, 0
2, 12087, Note_on_c, 0, 53, 50
2, 12087, Note_on_c, 0, 57, 54
2, 12087, Note_on_c, 0, 62, 49
2, 12087, Note_on_c, 0, 65, 76
2, 12095, Note_on_c, 0, 64, 0
2, 12142, Note_on_c, 0, 66, 61
2, 12187, Note_on_c, 0, 53, 0
2, 12190, Note_on_c, 0, 65, 0
2, 12190, Note_on_c, 0, 57, 0
2, 12205, Note_on_c, 0, 62, 0
2, 12220, Note_on_c, 0, 67, 71
2, 12230, Note_on_c, 0, 66, 0
2, 12277, Note_on_c, 0, 68, 70
2, 12302, Note_on_c, 0, 67, 0
2, 12337, Note_on_c, 0, 69, 70
2, 12360, Note_on_c, 0, 68, 0
2, 12372, Note_on_c, 0, 52, 66
2, 12372, Note_on_c, 0, 55, 60
2, 12372, Note_on_c, 0, 61, 64
2, 12415, Note_on_c, 0, 70, 69
2, 12425, Note_on_c, 0, 69, 0
2, 12462, Note_on_c, 0, 61, 0
2, 12462, Note_on_c, 0, 52, 0
2, 12472, Note_on_c, 0, 69, 63
2, 12480, Note_on_c, 0, 55, 0
2, 12517, Note_on_c, 0, 70, 0
2, 12537, Note_on_c, 0, 69, 0
2, 12547, Note_on_c, 0, 68, 45
2, 12627, Note_on_c, 0, 69, 69
2, 12637, Note_on_c, 0, 68, 0
2, 12650, Note_on_c, 0, 50, 59
2, 12650, Note_on_c, 0, 53, 60
2, 12650, Note_on_c, 0, 57, 61
2, 12685, Note_on_c, 0, 68, 59
2, 12695, Note_on_c, 0, 69, 0
2, 12747, Note_on_c, 0, 67, 62
2, 12757, Note_on_c, 0, 68, 0
2, 12792, Note_on_c, 0, 53, 0
2, 12795, Note_on_c, 0, 50, 0
2, 12795, Note_on_c, 0, 57, 0
2, 12807, Note_on_c, 0, 66, 62
2, 12815, Note_on_c, 0, 67, 0
2, 12872, Note_on_c, 0, 66, 0
2, 12885, Note_on_c, 0, 67, 63
2, 12907, Note_on_c, 0, 46, 51
2, 12907, Note_on_c, 0, 50, 51
2, 12907, Note_on_c, 0, 55, 49
2, 12962, Note_on_c, 0, 66, 66
2, 12972, Note_on_c, 0, 67, 0
2, 13020, Note_on_c, 0, 65, 57
2, 13030, Note_on_c, 0, 46, 0
2, 13030, Note_on_c, 0, 66, 0
2, 13030, Note_on_c, 0, 50, 0
2, 13050, Note_on_c, 0, 55, 0
2, 13095, Note_on_c, 0, 64, 54
2, 13105, Note_on_c, 0, 65, 0
2, 13177, Note_on_c, 0, 45, 60
2, 13177, Note_on_c, 0, 50, 55
2, 13177, Note_on_c, 0, 53, 58
2, 13177, Note_on_c, 0, 65, 59
2, 13202, Note_on_c, 0, 64, 0
2, 13252, Note_on_c, 0, 66, 60
2, 13260, Note_on_c, 0, 53, 0
2, 13260, Note_on_c, 0, 65, 0
2, 13280, Note_on_c, 0, 45, 0
2, 13280, Note_on_c, 0, 50, 0
2, 13312, Note_on_c, 0, 67, 61
2, 13320, Note_on_c, 0, 66, 0
2, 13370, Note_on_c, 0, 68, 54
2, 13395, Note_on_c, 0, 67, 0
2, 13422, Note_on_c, 0, 69, 62
2, 13425, Note_on_c, 0, 43, 49
2, 13425, Note_on_c, 0, 49, 56
2, 13425, Note_on_c, 0, 52, 49
2, 13435, Note_on_c, 0, 68, 0
2, 13482, Note_on_c, 0, 70, 59
2, 13490, Note_on_c, 0, 69, 0
2, 13547, Note_on_c, 0, 52, 0
2, 13547, Note_on_c, 0, 49, 0
2, 13547, Note_on_c, 0, 43, 0
2, 13560, Note_on_c, 0, 69, 57
2, 13607, Note_on_c, 0, 70, 0
2, 13632, Note_on_c, 0, 68, 60
2, 13640, Note_on_c, 0, 69, 0
2, 13692, Note_on_c, 0, 41, 59
2, 13692, Note_on_c, 0, 50, 58
2, 13692, Note_on_c, 0, 57, 56
2, 13712, Note_on_c, 0, 69, 65
2, 13742, Note_on_c, 0, 68, 0
2, 13755, Control_c, 0, 64, 127
2, 13762, Note_on_c, 0, 57, 0
2, 13810, Note_on_c, 0, 57, 71
2, 13875, Note_on_c, 0, 57, 0
2, 13922, Note_on_c, 0, 56, 66
2, 13980, Note_on_c, 0, 57, 63
2, 13987, Note_on_c, 0, 56, 0
2, 13990, Note_on_c, 0, 69, 0
2, 13990, Note_on_c, 0, 50, 0
2, 14012, Note_on_c, 0, 41, 0
2, 14042, Note_on_c, 0, 56, 66
2, 14052, Note_on_c, 0, 57, 0
2, 14100, Note_on_c, 0, 57, 65
2, 14102, Note_on_c, 0, 56, 0
2, 14160, Note_on_c, 0, 56, 66
2, 14170, Note_on_c, 0, 57, 0
2, 14217, Note_on_c, 0, 57, 60
2, 14242, Note_on_c, 0, 56, 0
2, 14290, Note_on_c, 0, 56, 79
2, 14292, Note_on_c, 0, 58, 85
2, 14300, Note_on_c, 0, 57, 0
2, 14352, Note_on_c, 0, 57, 62
2, 14362, Note_on_c, 0, 58, 0
2, 14362, Note_on_c, 0, 56, 0
2, 14382, Control_c, 0, 64, 0
2, 14412, Note_on_c, 0, 56, 54
2, 14412, Note_on_c, 0, 58, 54
2, 14420, Note_on_c, 0, 57, 0
2, 14477, Note_on_c, 0, 58, 0
2, 14477, Note_on_c, 0, 56, 0
2, 14487, Note_on_c, 0, 57, 55
2, 14490, Note_on_c, 0, 70, 49
2, 14545, Note_on_c, 0, 56, 44
2, 14547, Note_on_c, 0, 58, 46
2, 14557, Note_on_c, 0, 70, 0
2, 14557, Note_on_c, 0, 57, 0
2, 14587, Control_c, 0, 64, 127
2, 14607, Note_on_c, 0, 57, 47
2, 14607, Note_on_c, 0, 70, 48
2, 14617, Note_on_c, 0, 56, 0
2, 14617, Note_on_c, 0, 58, 0
2, 14670, Note_on_c, 0, 56, 48
2, 14670, Note_on_c, 0, 58, 49
2, 14680, Note_on_c, 0, 57, 0
2, 14692, Note_on_c, 0, 70, 0
2, 14747, Note_on_c, 0, 57, 56
2, 14747, Note_on_c, 0, 70, 46
2, 14792, Note_on_c, 0, 57, 0
2, 14792, Control_c, 0, 64, 0
2, 14827, Note_on_c, 0, 58, 0
2, 14827, Note_on_c, 0, 56, 0
2, 14827, Note_on_c, 0, 70, 0
2, 14840, Note_on_c, 0, 57, 59
2, 14840, Note_on_c, 0, 69, 66
2, 14885, Note_on_c, 0, 69, 0
2, 14887, Note_on_c, 0, 57, 0
2, 14940, Note_on_c, 0, 69, 68
2, 15000, Control_c, 0, 64, 127
2, 15000, Note_on_c, 0, 68, 63
2, 15005, Note_on_c, 0, 69, 0
2, 15055, Note_on_c, 0, 69, 64
2, 15060, Note_on_c, 0, 68, 0
2, 15115, Note_on_c, 0, 68, 64
2, 15120, Note_on_c, 0, 69, 0
2, 15175, Note_on_c, 0, 69, 67
2, 15180, Note_on_c, 0, 68, 0
2, 15222, Note_on_c, 0, 69, 0
2, 15235, Note_on_c, 0, 68, 66
2, 15270, Note_on_c, 0, 69, 63
2, 15297, Note_on_c, 0, 68, 0
2, 15330, Note_on_c, 0, 69, 0
2, 15340, Note_on_c, 0, 70, 87
2, 15342, Note_on_c, 0, 68, 82
2, 15367, Control_c, 0, 64, 0
2, 15410, Note_on_c, 0, 68, 0
2, 15420, Note_on_c, 0, 70, 0
2, 15420, Note_on_c, 0, 69, 63
2, 15480, Note_on_c, 0, 69, 0
2, 15492, Note_on_c, 0, 68, 72
2, 15492, Note_on_c, 0, 70, 67
2, 15547, Note_on_c, 0, 82, 62
2, 15550, Note_on_c, 0, 69, 60
2, 15557, Note_on_c, 0, 70, 0
2, 15557, Note_on_c, 0, 68, 0
2, 15572, Control_c, 0, 64, 127
2, 15620, Note_on_c, 0, 68, 63
2, 15620, Note_on_c, 0, 70, 59
2, 15630, Note_on_c, 0, 82, 0
2, 15630, Note_on_c, 0, 69, 0
2, 15675, Note_on_c, 0, 82, 61
2, 15682, Note_on_c, 0, 69, 65
2, 15705, Note_on_c, 0, 70, 0
2, 15707, Note_on_c, 0, 68, 0
2, 15755, Note_on_c, 0, 68, 65
2, 15755, Note_on_c, 0, 70, 63
2, 15762, Note_on_c, 0, 82, 0
2, 15782, Note_on_c, 0, 69, 0
2, 15837, Note_on_c, 0, 69, 72
2, 15837, Note_on_c, 0, 82, 67
2, 15862, Note_on_c, 0, 68, 0
2, 15862, Note_on_c, 0, 70, 0
2, 15882, Note_on_c, 0, 69, 0
2, 15882, Control_c, 0, 64, 0
2, 15935, Note_on_c, 0, 69, 70
2, 15977, Note_on_c, 0, 82, 0
2, 16000, Note_on_c, 0, 69, 0
2, 16012, Note_on_c, 0, 70, 61
2, 16047, Note_on_c, 0, 69, 63
2, 16107, Note_on_c, 0, 68, 63
2, 16115, Note_on_c, 0, 70, 0
2, 16117, Note_on_c, 0, 69, 0
2, 16150, Control_c, 0, 64, 127
2, 16205, Note_on_c, 0, 69, 74
2, 16215, Note_on_c, 0, 68, 0
2, 16247, Note_on_c, 0, 70, 66
2, 16255, Note_on_c, 0, 69, 0
2, 16302, Note_on_c, 0, 69, 63
2, 16332, Note_on_c, 0, 70, 0
2, 16360, Note_on_c, 0, 68, 41
2, 16407, Note_on_c, 0, 69, 0
2, 16447, Note_on_c, 0, 68, 0
2, 16457, Note_on_c, 0, 69, 52
2, 16470, Control_c, 0, 64, 0
2, 16480, Note_on_c, 0, 57, 78
2, 16502, Note_on_c, 0, 69, 0
2, 16515, Note_on_c, 0, 70, 50
2, 16547, Note_on_c, 0, 57, 0
2, 16572, Note_on_c, 0, 69, 51
2, 16580, Note_on_c, 0, 70, 0
2, 16615, Note_on_c, 0, 56, 80
2, 16615, Note_on_c, 0, 58, 80
2, 16640, Note_on_c, 0, 69, 0
2, 16652, Note_on_c, 0, 68, 52
2, 16680, Note_on_c, 0, 58, 0
2, 16680, Note_on_c, 0, 56, 0
2, 16700, Note_on_c, 0, 68, 0
2, 16710, Note_on_c, 0, 69, 47
2, 16712, Note_on_c, 0, 55, 68
2, 16712, Note_on_c, 0, 59, 70
2, 16755, Note_on_c, 0, 69, 0
2, 16767, Note_on_c, 0, 70, 53
2, 16790, Control_c, 0, 64, 127
2, 16845, Note_on_c, 0, 54, 42
2, 16845, Note_on_c, 0, 60, 44
2, 16845, Note_on_c, 0, 69, 53
2, 16852, Note_on_c, 0, 70, 0
2, 16907, Note_on_c, 0, 68, 50
2, 16915, Note_on_c, 0, 59, 0
2, 16915, Note_on_c, 0, 69, 0
2, 16932, Note_on_c, 0, 55, 0
2, 16957, Control_c, 0, 64, 0
2, 16970, Note_on_c, 0, 68, 0
2, 16982, Note_on_c, 0, 53, 45
2, 16982, Note_on_c, 0, 61, 45
2, 16982, Note_on_c, 0, 69, 64
2, 17015, Note_on_c, 0, 60, 0
2, 17035, Note_on_c, 0, 54, 0
2, 17045, Note_on_c, 0, 70, 61
2, 17045, Note_on_c, 0, 57, 41
2, 17070, Note_on_c, 0, 69, 0
2, 17072, Note_on_c, 0, 61, 0
2, 17117, Note_on_c, 0, 71, 62
2, 17120, Note_on_c, 0, 61, 53
2, 17127, Note_on_c, 0, 70, 0
2, 17150, Note_on_c, 0, 57, 0
2, 17197, Note_on_c, 0, 57, 50
2, 17197, Note_on_c, 0, 72, 67
2, 17207, Note_on_c, 0, 71, 0
2, 17207, Note_on_c, 0, 61, 0
2, 17255, Note_on_c, 0, 73, 70
2, 17257, Note_on_c, 0, 61, 61
2, 17280, Note_on_c, 0, 57, 0
2, 17280, Note_on_c, 0, 72, 0
2, 17330, Control_c, 0, 64, 127
2, 17330, Note_on_c, 0, 57, 51
2, 17330, Note_on_c, 0, 72, 59
2, 17355, Note_on_c, 0, 61, 0
2, 17407, Note_on_c, 0, 61, 48
2, 17407, Note_on_c, 0, 71, 60
2, 17417, Note_on_c, 0, 57, 0
2, 17460, Note_on_c, 0, 72, 0
2, 17467, Note_on_c, 0, 70, 61
2, 17470, Note_on_c, 0, 57, 53
2, 17477, Note_on_c, 0, 73, 0
2, 17500, Note_on_c, 0, 61, 0
2, 17520, Note_on_c, 0, 71, 0
2, 17540, Control_c, 0, 64, 0
2, 17550, Note_on_c, 0, 69, 60
2, 17552, Note_on_c, 0, 61, 50
2, 17555, Note_on_c, 0, 57, 0
2, 17577, Note_on_c, 0, 70, 0
2, 17632, Note_on_c, 0, 57, 55
2, 17632, Note_on_c, 0, 70, 68
2, 17640, Note_on_c, 0, 61, 0
2, 17657, Note_on_c, 0, 69, 0
2, 17712, Note_on_c, 0, 61, 49
2, 17712, Note_on_c, 0, 71, 70
2, 17720, Note_on_c, 0, 70, 0
2, 17720, Note_on_c, 0, 57, 0
2, 17772, Note_on_c, 0, 57, 53
2, 17772, Note_on_c, 0, 72, 72
2, 17780, Note_on_c, 0, 61, 0
2, 17802, Note_on_c, 0, 71, 0
2, 17855, Note_on_c, 0, 61, 54
2, 17855, Note_on_c, 0, 73, 68
2, 17862, Note_on_c, 0, 72, 0
2, 17865, Note_on_c, 0, 57, 0
2, 17875, Control_c, 0, 64, 127
2, 17915, Note_on_c, 0, 57, 54
2, 17915, Note_on_c, 0, 72, 63
2, 17927, Note_on_c, 0, 61, 0
2, 17945, Note_on_c, 0, 73, 0
2, 17972, Note_on_c, 0, 71, 65
2, 17975, Note_on_c, 0, 61, 49
2, 18000, Note_on_c, 0, 57, 0
2, 18020, Note_on_c, 0, 72, 0
2, 18052, Note_on_c, 0, 57, 50
2, 18052, Note_on_c, 0, 70, 67
2, 18075, Note_on_c, 0, 71, 0
2, 18100, Note_on_c, 0, 53, 0
2, 18100, Note_on_c, 0, 61, 0
2, 18122, Note_on_c, 0, 54, 80
2, 18122, Note_on_c, 0, 69, 78
2, 18125, Note_on_c, 0, 62, 83
2, 18132, Note_on_c, 0, 70, 0
2, 18132, Control_c, 0, 64, 0
2, 18155, Note_on_c, 0, 57, 0
2, 18280, Note_on_c, 0, 61, 62
2, 18287, Note_on_c, 0, 62, 0
2, 18307, Note_on_c, 0, 69, 0
2, 18307, Note_on_c, 0, 54, 0
2, 18342, Note_on_c, 0, 62, 65
2, 18427, Note_on_c, 0, 62, 0
2, 18477, Note_on_c, 0, 62, 70
2, 18482, Note_on_c, 0, 61, 0
2, 18540, Note_on_c, 0, 61, 68
2, 18565, Note_on_c, 0, 62, 0
2, 18600, Note_on_c, 0, 61, 0
2, 18615, Note_on_c, 0, 62, 70
2, 18637, Control_c, 0, 64, 127
2, 18672, Note_on_c, 0, 61, 75
2, 18672, Note_on_c, 0, 63, 72
2, 18680, Note_on_c, 0, 62, 0
2, 18727, Note_on_c, 0, 62, 72
2, 18737, Note_on_c, 0, 63, 0
2, 18737, Note_on_c, 0, 61, 0
2, 18790, Note_on_c, 0, 61, 66
2, 18790, Note_on_c, 0, 63, 65
2, 18790, Note_on_c, 0, 75, 74
2, 18800, Note_on_c, 0, 62, 0
2, 18847, Note_on_c, 0, 62, 66
2, 18855, Note_on_c, 0, 61, 0
2, 18855, Note_on_c, 0, 75, 0
2, 18855, Note_on_c, 0, 63, 0
2, 18907, Note_on_c, 0, 75, 77
2, 18927, Note_on_c, 0, 61, 71
2, 18927, Note_on_c, 0, 63, 76
2, 18937, Note_on_c, 0, 62, 0
2, 18957, Note_on_c, 0, 75, 0
2, 19000, Note_on_c, 0, 61, 0
2, 19000, Note_on_c, 0, 63, 0
2, 19022, Note_on_c, 0, 62, 72
2, 19022, Note_on_c, 0, 75, 70
2, 19077, Note_on_c, 0, 75, 0
2, 19087, Note_on_c, 0, 61, 70
2, 19087, Note_on_c, 0, 63, 73
2, 19095, Note_on_c, 0, 62, 0
2, 19140, Note_on_c, 0, 75, 68
2, 19150, Note_on_c, 0, 63, 0
2, 19150, Note_on_c, 0, 61, 0
2, 19187, Note_on_c, 0, 75, 0
2, 19187, Control_c, 0, 64, 0
2, 19197, Note_on_c, 0, 62, 71
2, 19197, Note_on_c, 0, 74, 68
2, 19260, Note_on_c, 0, 74, 0
2, 19260, Note_on_c, 0, 62, 0
2, 19307, Note_on_c, 0, 74, 69
2, 19365, Note_on_c, 0, 73, 72
2, 19375, Note_on_c, 0, 74, 0
2, 19387, Control_c, 0, 64, 127
2, 19422, Note_on_c, 0, 74, 71
2, 19432, Note_on_c, 0, 73, 0
2, 19480, Note_on_c, 0, 73, 77
2, 19487, Note_on_c, 0, 74, 0
2, 19532, Note_on_c, 0, 74, 72
2, 19545, Note_on_c, 0, 73, 0
2, 19592, Note_on_c, 0, 73, 73
2, 19602, Note_on_c, 0, 74, 0
2, 19660, Note_on_c, 0, 73, 0
2, 19670, Note_on_c, 0, 74, 73
2, 19700, Control_c, 0, 64, 0
2, 19732, Note_on_c, 0, 74, 0
2, 19742, Note_on_c, 0, 73, 84
2, 19742, Note_on_c, 0, 75, 83
2, 19800, Note_on_c, 0, 74, 74
2, 19807, Note_on_c, 0, 75, 0
2, 19807, Note_on_c, 0, 73, 0
2, 19860, Note_on_c, 0, 75, 67
2, 19862, Note_on_c, 0, 73, 66
2, 19870, Note_on_c, 0, 74, 0
2, 19905, Control_c, 0, 64, 127
2, 19927, Note_on_c, 0, 73, 0
2, 19927, Note_on_c, 0, 75, 0
2, 19937, Note_on_c, 0, 74, 68
2, 19937, Note_on_c, 0, 87, 71
2, 19997, Note_on_c, 0, 73, 67
2, 19997, Note_on_c, 0, 75, 68
2, 20005, Note_on_c, 0, 87, 0
2, 20005, Note_on_c, 0, 74, 0
2, 20045, Note_on_c, 0, 73, 0
2, 20045, Note_on_c, 0, 75, 0
2, 20077, Note_on_c, 0, 74, 64
2, 20077, Note_on_c, 0, 87, 69
2, 20122, Note_on_c, 0, 74, 0
2, 20132, Note_on_c, 0, 75, 64
2, 20135, Note_on_c, 0, 73, 75
2, 20145, Note_on_c, 0, 87, 0
2, 20200, Note_on_c, 0, 75, 0
2, 20212, Note_on_c, 0, 74, 80
2, 20212, Note_on_c, 0, 87, 82
2, 20222, Note_on_c, 0, 73, 0
2, 20277, Note_on_c, 0, 87, 0
2, 20277, Note_on_c, 0, 74, 0
2, 20312, Note_on_c, 0, 74, 86
2, 20320, Control_c, 0, 64, 0
2, 20380, Note_on_c, 0, 74, 0
2, 20402, Note_on_c, 0, 75, 65
2, 20447, Note_on_c, 0, 74, 74
2, 20460, Note_on_c, 0, 75, 0
2, 20507, Note_on_c, 0, 73, 71
2, 20510, Note_on_c, 0, 74, 0
2, 20522, Control_c, 0, 64, 127
2, 20560, Note_on_c, 0, 74, 75
2, 20572, Note_on_c, 0, 73, 0
2, 20620, Note_on_c, 0, 74, 0
2, 20632, Note_on_c, 0, 75, 66
2, 20697, Note_on_c, 0, 74, 71
2, 20700, Note_on_c, 0, 75, 0
2, 20740, Note_on_c, 0, 74, 0
2, 20752, Note_on_c, 0, 73, 70
2, 20810, Note_on_c, 0, 74, 68
2, 20840, Note_on_c, 0, 73, 0
2, 20852, Note_on_c, 0, 62, 88
2, 20860, Control_c, 0, 64, 0
2, 20875, Note_on_c, 0, 74, 0
2, 20887, Note_on_c, 0, 75, 64
2, 20967, Note_on_c, 0, 61, 65
2, 20967, Note_on_c, 0, 63, 59
2, 20967, Note_on_c, 0, 74, 67
2, 20990, Note_on_c, 0, 75, 0
2, 21010, Note_on_c, 0, 62, 0
2, 21022, Note_on_c, 0, 73, 70
2, 21050, Note_on_c, 0, 74, 0
2, 21097, Note_on_c, 0, 74, 73
2, 21100, Note_on_c, 0, 60, 64
2, 21100, Note_on_c, 0, 64, 70
2, 21107, Note_on_c, 0, 73, 0
2, 21142, Note_on_c, 0, 61, 0
2, 21165, Note_on_c, 0, 74, 0
2, 21165, Note_on_c, 0, 63, 0
2, 21175, Note_on_c, 0, 75, 69
2, 21177, Control_c, 0, 64, 127
2, 21252, Note_on_c, 0, 74, 66
2, 21255, Note_on_c, 0, 59, 68
2, 21255, Note_on_c, 0, 65, 66
2, 21262, Note_on_c, 0, 75, 0
2, 21305, Note_on_c, 0, 60, 0
2, 21320, Note_on_c, 0, 74, 0
2, 21322, Note_on_c, 0, 64, 0
2, 21332, Note_on_c, 0, 73, 68
2, 21397, Note_on_c, 0, 58, 69
2, 21397, Note_on_c, 0, 66, 69
2, 21397, Note_on_c, 0, 74, 70
2, 21405, Note_on_c, 0, 73, 0
2, 21427, Control_c, 0, 64, 0
2, 21437, Note_on_c, 0, 75, 69
2, 21440, Note_on_c, 0, 59, 0
2, 21455, Note_on_c, 0, 62, 58
2, 21462, Note_on_c, 0, 65, 0
2, 21462, Note_on_c, 0, 74, 0
2, 21502, Note_on_c, 0, 66, 0
2, 21535, Note_on_c, 0, 76, 66
2, 21537, Note_on_c, 0, 66, 64
2, 21540, Note_on_c, 0, 75, 0
2, 21540, Note_on_c, 0, 62, 0
2, 21592, Note_on_c, 0, 77, 64
2, 21595, Note_on_c, 0, 62, 58
2, 21617, Note_on_c, 0, 66, 0
2, 21617, Note_on_c, 0, 76, 0
2, 21690, Note_on_c, 0, 66, 76
2, 21690, Note_on_c, 0, 78, 70
2, 21697, Note_on_c, 0, 62, 0
2, 21697, Note_on_c, 0, 77, 0
2, 21750, Control_c, 0, 64, 127
2, 21750, Note_on_c, 0, 62, 58
2, 21757, Note_on_c, 0, 66, 0
2, 21770, Note_on_c, 0, 77, 63
2, 21845, Note_on_c, 0, 76, 70
2, 21847, Note_on_c, 0, 66, 64
2, 21850, Note_on_c, 0, 77, 0
2, 21852, Note_on_c, 0, 62, 0
2, 21890, Note_on_c, 0, 78, 0
2, 21892, Control_c, 0, 64, 0
2, 21922, Note_on_c, 0, 62, 55
2, 21922, Note_on_c, 0, 75, 70
2, 21925, Note_on_c, 0, 66, 0
2, 21925, Note_on_c, 0, 76, 0
2, 21977, Note_on_c, 0, 74, 75
2, 21980, Note_on_c, 0, 66, 72
2, 22002, Note_on_c, 0, 75, 0
2, 22002, Note_on_c, 0, 62, 0
2, 22057, Note_on_c, 0, 62, 54
2, 22057, Note_on_c, 0, 75, 63
2, 22065, Note_on_c, 0, 74, 0
2, 22085, Note_on_c, 0, 66, 0
2, 22135, Note_on_c, 0, 66, 66
2, 22135, Note_on_c, 0, 76, 65
2, 22142, Note_on_c, 0, 75, 0
2, 22142, Note_on_c, 0, 62, 0
2, 22192, Note_on_c, 0, 62, 55
2, 22192, Note_on_c, 0, 77, 65
2, 22200, Note_on_c, 0, 66, 0
2, 22220, Note_on_c, 0, 76, 0
2, 22232, Control_c, 0, 64, 127
2, 22267, Note_on_c, 0, 66, 70
2, 22267, Note_on_c, 0, 78, 76
2, 22277, Note_on_c, 0, 77, 0
2, 22277, Note_on_c, 0, 62, 0
2, 22332, Note_on_c, 0, 62, 51
2, 22335, Note_on_c, 0, 66, 0
2, 22347, Note_on_c, 0, 77, 52
2, 22357, Note_on_c, 0, 78, 0
2, 22390, Note_on_c, 0, 66, 66
2, 22397, Note_on_c, 0, 62, 0
2, 22410, Note_on_c, 0, 76, 76
2, 22435, Note_on_c, 0, 77, 0
2, 22442, Note_on_c, 0, 62, 64
2, 22442, Note_on_c, 0, 75, 73
2, 22470, Note_on_c, 0, 58, 0
2, 22492, Note_on_c, 0, 62, 0
2, 22492, Note_on_c, 0, 76, 0
2, 22525, Note_on_c, 0, 75, 0
2, 22527, Note_on_c, 0, 66, 0
2, 22537, Note_on_c, 0, 55, 63
2, 22537, Note_on_c, 0, 62, 62
2, 22537, Note_on_c, 0, 67, 76
2, 22537, Note_on_c, 0, 74, 75
2, 22545, Note_on_c, 0, 58, 63
2, 22567, Control_c, 0, 64, 0
2, 22600, Note_on_c, 0, 73, 75
2, 22622, Note_on_c, 0, 74, 0
2, 22622, Note_on_c, 0, 67, 0
2, 22645, Note_on_c, 0, 58, 0
2, 22645, Note_on_c, 0, 62, 0
2, 22670, Note_on_c, 0, 55, 0
2, 22677, Note_on_c, 0, 72, 72
2, 22685, Note_on_c, 0, 73, 0
2, 22755, Note_on_c, 0, 71, 75
2, 22762, Note_on_c, 0, 72, 0
2, 22820, Note_on_c, 0, 71, 0
2, 22832, Note_on_c, 0, 70, 73
2, 22867, Note_on_c, 0, 87, 76
2, 22915, Note_on_c, 0, 70, 0
2, 22947, Control_c, 0, 64, 127
2, 22947, Note_on_c, 0, 75, 75
2, 22947, Note_on_c, 0, 86, 71
2, 22955, Note_on_c, 0, 87, 0
2, 23002, Note_on_c, 0, 85, 76
2, 23012, Note_on_c, 0, 75, 0
2, 23032, Note_on_c, 0, 86, 0
2, 23072, Control_c, 0, 64, 0
2, 23082, Note_on_c, 0, 86, 74
2, 23100, Note_on_c, 0, 74, 74
2, 23110, Note_on_c, 0, 85, 0
2, 23160, Note_on_c, 0, 85, 61
2, 23185, Note_on_c, 0, 74, 0
2, 23225, Note_on_c, 0, 86, 0
2, 23237, Note_on_c, 0, 84, 69
2, 23282, Note_on_c, 0, 85, 0
2, 23307, Note_on_c, 0, 83, 67
2, 23340, Note_on_c, 0, 84, 0
2, 23365, Note_on_c, 0, 79, 80
2, 23367, Note_on_c, 0, 72, 82
2, 23367, Note_on_c, 0, 75, 80
2, 23367, Note_on_c, 0, 82, 79
2, 23375, Note_on_c, 0, 83, 0
2, 23415, Note_on_c, 0, 75, 0
2, 23435, Note_on_c, 0, 79, 0
2, 23435, Note_on_c, 0, 72, 0
2, 23435, Note_on_c, 0, 82, 0
2, 23447, Note_on_c, 0, 83, 59
2, 23482, Note_on_c, 0, 84, 66
2, 23530, Note_on_c, 0, 83, 0
2, 23562, Note_on_c, 0, 85, 68
2, 23592, Note_on_c, 0, 84, 0
2, 23640, Note_on_c, 0, 86, 71
2, 23660, Note_on_c, 0, 74, 67
2, 23660, Note_on_c, 0, 79, 72
2, 23662, Note_on_c, 0, 70, 68
2, 23670, Note_on_c, 0, 85, 0
2, 23740, Note_on_c, 0, 85, 65
2, 23750, Note_on_c, 0, 79, 0
2, 23750, Note_on_c, 0, 70, 0
2, 23750, Note_on_c, 0, 74, 0
2, 23802, Note_on_c, 0, 84, 64
2, 23827, Note_on_c, 0, 86, 0
2, 23827, Note_on_c, 0, 85, 0
2, 23860, Note_on_c, 0, 83, 65
2, 23870, Note_on_c, 0, 84, 0
2, 23917, Note_on_c, 0, 84, 66
2, 23940, Note_on_c, 0, 83, 0
2, 23955, Note_on_c, 0, 66, 62
2, 23955, Note_on_c, 0, 72, 62
2, 23975, Note_on_c, 0, 75, 65
2, 24015, Note_on_c, 0, 83, 59
2, 24025, Note_on_c, 0, 75, 0
2, 24025, Note_on_c, 0, 72, 0
2, 24025, Note_on_c, 0, 66, 0
2, 24077, Note_on_c, 0, 82, 65
2, 24115, Note_on_c, 0, 81, 59
2, 24122, Note_on_c, 0, 84, 0
2, 24122, Note_on_c, 0, 83, 0
2, 24142, Note_on_c, 0, 82, 0
2, 24197, Note_on_c, 0, 82, 71
2, 24212, Note_on_c, 0, 74, 66
2, 24215, Note_on_c, 0, 67, 66
2, 24215, Note_on_c, 0, 70, 69
2, 24222, Note_on_c, 0, 81, 0
2, 24270, Note_on_c, 0, 83, 63
2, 24297, Note_on_c, 0, 82, 0
2, 24300, Note_on_c, 0, 70, 0
2, 24300, Note_on_c, 0, 67, 0
2, 24300, Note_on_c, 0, 74, 0
2, 24322, Note_on_c, 0, 84, 59
2, 24355, Note_on_c, 0, 83, 0
2, 24407, Note_on_c, 0, 85, 62
2, 24415, Note_on_c, 0, 84, 0
2, 24462, Note_on_c, 0, 84, 72
2, 24482, Note_on_c, 0, 74, 61
2, 24485, Note_on_c, 0, 65, 63
2, 24485, Note_on_c, 0, 69, 59
2, 24492, Note_on_c, 0, 85, 0
2, 24547, Note_on_c, 0, 85, 62
2, 24555, Note_on_c, 0, 84, 0
2, 24555, Note_on_c, 0, 74, 0
2, 24575, Note_on_c, 0, 69, 0
2, 24595, Note_on_c, 0, 65, 0
2, 24605, Note_on_c, 0, 86, 60
2, 24615, Note_on_c, 0, 85, 0
2, 24687, Note_on_c, 0, 87, 61
2, 24715, Note_on_c, 0, 86, 0
2, 24762, Note_on_c, 0, 64, 52
2, 24762, Note_on_c, 0, 68, 65
2, 24762, Note_on_c, 0, 71, 68
2, 24762, Note_on_c, 0, 76, 71
2, 24762, Note_on_c, 0, 88, 69
2, 24770, Note_on_c, 0, 87, 0
2, 24805, Control_c, 0, 64, 127
2, 24840, Note_on_c, 0, 87, 49
2, 24847, Note_on_c, 0, 88, 0
2, 24897, Note_on_c, 0, 86, 63
2, 24922, Note_on_c, 0, 87, 0
2, 24957, Note_on_c, 0, 85, 64
2, 24980, Note_on_c, 0, 86, 0
2, 25002, Note_on_c, 0, 76, 0
2, 25022, Note_on_c, 0, 64, 0
2, 25022, Note_on_c, 0, 68, 0
2, 25042, Note_on_c, 0, 71, 0
2, 25042, Note_on_c, 0, 85, 0
2, 25052, Note_on_c, 0, 86, 60
2, 25060, Note_on_c, 0, 76, 62
2, 25117, Note_on_c, 0, 77, 41
2, 25117, Note_on_c, 0, 85, 46
2, 25127, Note_on_c, 0, 76, 0
2, 25140, Note_on_c, 0, 86, 0
2, 25175, Note_on_c, 0, 76, 68
2, 25175, Note_on_c, 0, 84, 69
2, 25200, Note_on_c, 0, 77, 0
2, 25200, Note_on_c, 0, 85, 0
2, 25237, Note_on_c, 0, 84, 0
2, 25250, Note_on_c, 0, 77, 65
2, 25250, Note_on_c, 0, 83, 71
2, 25260, Note_on_c, 0, 76, 0
2, 25307, Note_on_c, 0, 76, 72
2, 25307, Note_on_c, 0, 84, 72
2, 25317, Note_on_c, 0, 77, 0
2, 25337, Note_on_c, 0, 83, 0
2, 25385, Note_on_c, 0, 83, 66
2, 25387, Note_on_c, 0, 77, 66
2, 25395, Note_on_c, 0, 76, 0
2, 25395, Note_on_c, 0, 84, 0
2, 25465, Note_on_c, 0, 76, 72
2, 25465, Note_on_c, 0, 82, 66
2, 25472, Note_on_c, 0, 83, 0
2, 25475, Note_on_c, 0, 77, 0
2, 25522, Note_on_c, 0, 77, 65
2, 25522, Note_on_c, 0, 81, 67
2, 25525, Note_on_c, 0, 76, 0
2, 25525, Note_on_c, 0, 82, 0
2, 25580, Note_on_c, 0, 76, 70
2, 25580, Note_on_c, 0, 80, 71
2, 25587, Note_on_c, 0, 81, 0
2, 25602, Note_on_c, 0, 77, 0
2, 25642, Note_on_c, 0, 80, 0
2, 25652, Note_on_c, 0, 79, 66
2, 25655, Note_on_c, 0, 77, 65
2, 25665, Note_on_c, 0, 76, 0
2, 25712, Note_on_c, 0, 76, 65
2, 25712, Note_on_c, 0, 78, 69
2, 25720, Note_on_c, 0, 77, 0
2, 25720, Note_on_c, 0, 79, 0
2, 25772, Note_on_c, 0, 77, 66
2, 25780, Note_on_c, 0, 78, 0
2, 25800, Note_on_c, 0, 76, 0
2, 25835, Note_on_c, 0, 77, 0
2, 25847, Note_on_c, 0, 76, 79
2, 25905, Note_on_c, 0, 77, 66
2, 25915, Note_on_c, 0, 76, 0
2, 25980, Note_on_c, 0, 76, 67
2, 25987, Note_on_c, 0, 77, 0
2, 26042, Note_on_c, 0, 75, 45
2, 26067, Note_on_c, 0, 76, 0
2, 26112, Note_on_c, 0, 76, 63
2, 26137, Note_on_c, 0, 64, 72
2, 26162, Control_c, 0, 64, 0
2, 26165, Note_on_c, 0, 75, 0
2, 26172, Note_on_c, 0, 77, 65
2, 26180, Note_on_c, 0, 76, 0
2, 26220, Note_on_c, 0, 64, 0
2, 26232, Note_on_c, 0, 76, 55
2, 26252, Control_c, 0, 64, 127
2, 26275, Note_on_c, 0, 60, 60
2, 26282, Note_on_c, 0, 77, 0
2, 26310, Note_on_c, 0, 75, 59
2, 26320, Note_on_c, 0, 76, 0
2, 26360, Note_on_c, 0, 60, 0
2, 26370, Note_on_c, 0, 76, 56
2, 26402, Control_c, 0, 64, 0
2, 26422, Note_on_c, 0, 75, 0
2, 26435, Note_on_c, 0, 57, 65
2, 26457, Note_on_c, 0, 77, 57
2, 26460, Note_on_c, 0, 76, 0
2, 26502, Note_on_c, 0, 57, 0
2, 26517, Note_on_c, 0, 76, 55
2, 26550, Note_on_c, 0, 53, 61
2, 26560, Note_on_c, 0, 77, 0
2, 26585, Note_on_c, 0, 75, 54
2, 26597, Note_on_c, 0, 76, 0
2, 26642, Note_on_c, 0, 76, 51
2, 26652, Note_on_c, 0, 53, 0
2, 26687, Note_on_c, 0, 57, 75
2, 26695, Note_on_c, 0, 75, 0
2, 26720, Note_on_c, 0, 77, 50
2, 26730, Note_on_c, 0, 76, 0
2, 26782, Note_on_c, 0, 76, 57
2, 26785, Note_on_c, 0, 57, 0
2, 26820, Note_on_c, 0, 60, 75
2, 26825, Note_on_c, 0, 77, 0
2, 26857, Note_on_c, 0, 75, 57
2, 26882, Note_on_c, 0, 60, 0
2, 26882, Note_on_c, 0, 76, 0
2, 26950, Control_c, 0, 64, 127
2, 26957, Note_on_c, 0, 75, 0
2, 26970, Note_on_c, 0, 64, 88
2, 27037, Note_on_c, 0, 64, 0
2, 27050, Note_on_c, 0, 65, 77
2, 27102, Note_on_c, 0, 64, 50
2, 27127, Note_on_c, 0, 65, 0
2, 27170, Note_on_c, 0, 64, 0
2, 27180, Note_on_c, 0, 63, 84
2, 27237, Note_on_c, 0, 64, 90
2, 27245, Note_on_c, 0, 63, 0
2, 27277, Note_on_c, 0, 40, 48
2, 27277, Note_on_c, 0, 52, 53
2, 27297, Note_on_c, 0, 65, 55
2, 27322, Note_on_c, 0, 64, 0
2, 27370, Note_on_c, 0, 36, 52
2, 27370, Note_on_c, 0, 48, 52
2, 27380, Note_on_c, 0, 40, 0
2, 27392, Note_on_c, 0, 64, 62
2, 27400, Note_on_c, 0, 65, 0
2, 27400, Note_on_c, 0, 52, 0
2, 27447, Note_on_c, 0, 63, 62
2, 27480, Note_on_c, 0, 64, 0
2, 27515, Note_on_c, 0, 36, 0
2, 27527, Note_on_c, 0, 33, 69
2, 27535, Note_on_c, 0, 48, 0
2, 27535, Note_on_c, 0, 63, 0
2, 27545, Note_on_c, 0, 45, 66
2, 27545, Note_on_c, 0, 64, 73
2, 27555, Control_c, 0, 64, 0
2, 27602, Note_on_c, 0, 65, 48
2, 27635, Note_on_c, 0, 64, 0
2, 27655, Note_on_c, 0, 45, 0
2, 27657, Note_on_c, 0, 33, 0
2, 27682, Note_on_c, 0, 29, 61
2, 27682, Note_on_c, 0, 41, 65
2, 27682, Note_on_c, 0, 64, 65
2, 27710, Note_on_c, 0, 65, 0
2, 27762, Note_on_c, 0, 63, 60
2, 27770, Note_on_c, 0, 64, 0
2, 27770, Note_on_c, 0, 41, 0
2, 27772, Note_on_c, 0, 29, 0
2, 27780, Note_on_c, 0, 33, 62
2, 27800, Note_on_c, 0, 45, 59
2, 27820, Note_on_c, 0, 64, 65
2, 27845, Note_on_c, 0, 63, 0
2, 27855, Note_on_c, 0, 65, 52
2, 27880, Control_c, 0, 64, 127
2, 27905, Note_on_c, 0, 64, 0
2, 27947, Note_on_c, 0, 33, 0
2, 27960, Note_on_c, 0, 36, 61
2, 27960, Note_on_c, 0, 48, 63
2, 27960, Note_on_c, 0, 64, 63
2, 27967, Note_on_c, 0, 45, 0
2, 28005, Note_on_c, 0, 65, 0
2, 28020, Note_on_c, 0, 64, 0
2, 28020, Note_on_c, 0, 63, 53
2, 28080, Note_on_c, 0, 63, 0
2, 28090, Note_on_c, 0, 40, 85
2, 28090, Note_on_c, 0, 52, 79
2, 28090, Note_on_c, 0, 64, 83
2, 28142, Note_on_c, 0, 63, 55
2, 28152, Note_on_c, 0, 64, 0
2, 28175, Note_on_c, 0, 36, 0
2, 28177, Note_on_c, 0, 48, 0
2, 28192, Note_on_c, 0, 63, 0
2, 28195, Control_c, 0, 64, 0
2, 28202, Note_on_c, 0, 62, 56
2, 28262, Note_on_c, 0, 61, 72
2, 28290, Note_on_c, 0, 62, 0
2, 28362, Note_on_c, 0, 62, 70
2, 28370, Note_on_c, 0, 61, 0
2, 28445, Note_on_c, 0, 61, 75
2, 28472, Note_on_c, 0, 62, 0
2, 28527, Control_c, 0, 64, 127
2, 28527, Note_on_c, 0, 60, 72
2, 28555, Note_on_c, 0, 61, 0
2, 28567, Note_on_c, 0, 59, 69
2, 28592, Note_on_c, 0, 60, 0
2, 28647, Note_on_c, 0, 59, 0
2, 28662, Note_on_c, 0, 60, 75
2, 28672, Control_c, 0, 64, 0
2, 28717, Note_on_c, 0, 59, 68
2, 28747, Note_on_c, 0, 60, 0
2, 28782, Note_on_c, 0, 59, 0
2, 28795, Note_on_c, 0, 58, 73
2, 28855, Note_on_c, 0, 57, 70
2, 28862, Note_on_c, 0, 58, 0
2, 28877, Control_c, 0, 64, 127
2, 28900, Note_on_c, 0, 57, 0
2, 28912, Note_on_c, 0, 56, 48
2, 28980, Note_on_c, 0, 56, 0
2, 28987, Note_on_c, 0, 55, 70
2, 29067, Note_on_c, 0, 54, 66
2, 29070, Note_on_c, 0, 52, 0
2, 29092, Note_on_c, 0, 40, 0
2, 29092, Note_on_c, 0, 55, 0
2, 29122, Note_on_c, 0, 53, 67
2, 29130, Note_on_c, 0, 54, 0
2, 29190, Note_on_c, 0, 53, 0
2, 29192, Control_c, 0, 64, 0
2, 29200, Note_on_c, 0, 52, 79
2, 29270, Note_on_c, 0, 52, 0
2, 29280, Note_on_c, 0, 53, 65
2, 29340, Note_on_c, 0, 52, 68
2, 29345, Note_on_c, 0, 53, 0
2, 29400, Note_on_c, 0, 51, 67
2, 29422, Note_on_c, 0, 52, 0
2, 29475, Note_on_c, 0, 52, 75
2, 29502, Note_on_c, 0, 51, 0
2, 29512, Control_c, 0, 64, 127
2, 29552, Note_on_c, 0, 53, 62
2, 29560, Note_on_c, 0, 52, 0
2, 29612, Note_on_c, 0, 53, 0
2, 29625, Note_on_c, 0, 52, 67
2, 29685, Note_on_c, 0, 51, 66
2, 29710, Note_on_c, 0, 52, 0
2, 29760, Note_on_c, 0, 52, 67
2, 29767, Note_on_c, 0, 51, 0
2, 29817, Note_on_c, 0, 53, 61
2, 29825, Note_on_c, 0, 52, 0
2, 29875, Note_on_c, 0, 52, 62
2, 29897, Note_on_c, 0, 53, 0
2, 29932, Note_on_c, 0, 51, 65
2, 29957, Note_on_c, 0, 52, 0
2, 29995, Control_c, 0, 64, 0
2, 30005, Note_on_c, 0, 52, 64
2, 30037, Note_on_c, 0, 51, 0
2, 30085, Note_on_c, 0, 53, 73
2, 30095, Note_on_c, 0, 52, 0
2, 30147, Note_on_c, 0, 52, 55
2, 30155, Note_on_c, 0, 53, 0
2, 30207, Control_c, 0, 64, 127
2, 30227, Note_on_c, 0, 51, 60
2, 30235, Note_on_c, 0, 52, 0
2, 30287, Note_on_c, 0, 52, 66
2, 30312, Note_on_c, 0, 51, 0
2, 30360, Note_on_c, 0, 53, 56
2, 30370, Note_on_c, 0, 52, 0
2, 30417, Note_on_c, 0, 52, 55
2, 30447, Note_on_c, 0, 53, 0
2, 30495, Note_on_c, 0, 51, 62
2, 30507, Note_on_c, 0, 52, 0
2, 30550, Note_on_c, 0, 88, 65
2, 30552, Note_on_c, 0, 52, 61
2, 30552, Note_on_c, 0, 76, 61
2, 30585, Note_on_c, 0, 51, 0
2, 30607, Note_on_c, 0, 53, 55
2, 30635, Note_on_c, 0, 88, 0
2, 30635, Note_on_c, 0, 52, 0
2, 30667, Note_on_c, 0, 76, 0
2, 30687, Note_on_c, 0, 52, 54
2, 30707, Note_on_c, 0, 72, 69
2, 30707, Note_on_c, 0, 84, 72
2, 30715, Note_on_c, 0, 53, 0
2, 30747, Note_on_c, 0, 51, 55
2, 30772, Note_on_c, 0, 84, 0
2, 30775, Note_on_c, 0, 52, 0
2, 30807, Note_on_c, 0, 72, 0
2, 30820, Note_on_c, 0, 52, 61
2, 30840, Note_on_c, 0, 69, 65
2, 30840, Note_on_c, 0, 81, 72
2, 30847, Note_on_c, 0, 51, 0
2, 30880, Note_on_c, 0, 53, 58
2, 30887, Note_on_c, 0, 52, 0
2, 30922, Note_on_c, 0, 81, 0
2, 30937, Note_on_c, 0, 52, 55
2, 30957, Note_on_c, 0, 65, 68
2, 30957, Note_on_c, 0, 77, 70
2, 30962, Note_on_c, 0, 69, 0
2, 30982, Note_on_c, 0, 53, 0
2, 31017, Note_on_c, 0, 51, 59
2, 31022, Note_on_c, 0, 52, 0
2, 31042, Note_on_c, 0, 77, 0
2, 31062, Note_on_c, 0, 65, 0
2, 31075, Note_on_c, 0, 52, 48
2, 31092, Note_on_c, 0, 69, 60
2, 31092, Note_on_c, 0, 81, 53
2, 31140, Note_on_c, 0, 51, 0
2, 31147, Note_on_c, 0, 53, 53
2, 31157, Note_on_c, 0, 52, 0
2, 31157, Control_c, 0, 64, 0
2, 31195, Note_on_c, 0, 81, 0
2, 31205, Note_on_c, 0, 52, 49
2, 31225, Note_on_c, 0, 72, 56
2, 31225, Note_on_c, 0, 84, 57
2, 31252, Note_on_c, 0, 69, 0
2, 31270, Note_on_c, 0, 53, 0
2, 31305, Note_on_c, 0, 51, 55
2, 31307, Note_on_c, 0, 84, 0
2, 31310, Note_on_c, 0, 52, 0
2, 31357, Control_c, 0, 64, 127
2, 31357, Note_on_c, 0, 52, 72
2, 31370, Note_on_c, 0, 76, 79
2, 31370, Note_on_c, 0, 88, 76
2, 31382, Note_on_c, 0, 72, 0
2, 31397, Note_on_c, 0, 51, 0
2, 31432, Note_on_c, 0, 53, 56
2, 31440, Note_on_c, 0, 52, 0
2, 31507, Note_on_c, 0, 52, 48
2, 31517, Note_on_c, 0, 53, 0
2, 31572, Note_on_c, 0, 51, 53
2, 31575, Note_on_c, 0, 52, 0
2, 31640, Note_on_c, 0, 88, 0
2, 31652, Note_on_c, 0, 52, 49
2, 31660, Note_on_c, 0, 51, 0
2, 31670, Note_on_c, 0, 100, 72
2, 31680, Note_on_c, 0, 76, 0
2, 31690, Note_on_c, 0, 88, 72
2, 31732, Note_on_c, 0, 53, 62
2, 31740, Note_on_c, 0, 52, 0
2, 31755, Note_on_c, 0, 100, 0
2, 31802, Note_on_c, 0, 96, 60
2, 31810, Note_on_c, 0, 52, 60
2, 31817, Note_on_c, 0, 53, 0
2, 31837, Note_on_c, 0, 88, 0
2, 31847, Note_on_c, 0, 84, 47
2, 31872, Note_on_c, 0, 51, 63
2, 31875, Note_on_c, 0, 52, 0
2, 31912, Note_on_c, 0, 96, 0
2, 31925, Note_on_c, 0, 52, 65
2, 31945, Note_on_c, 0, 93, 60
2, 31957, Note_on_c, 0, 51, 0
2, 31965, Note_on_c, 0, 81, 63
2, 31975, Note_on_c, 0, 84, 0
2, 32007, Note_on_c, 0, 53, 66
2, 32035, Note_on_c, 0, 93, 0
2, 32035, Note_on_c, 0, 52, 0
2, 32080, Note_on_c, 0, 89, 59
2, 32082, Note_on_c, 0, 52, 62
2, 32090, Note_on_c, 0, 53, 0
2, 32107, Note_on_c, 0, 81, 0
2, 32162, Note_on_c, 0, 51, 65
2, 32172, Note_on_c, 0, 52, 0
2, 32192, Note_on_c, 0, 89, 0
2, 32222, Note_on_c, 0, 52, 63
2, 32222, Note_on_c, 0, 93, 63
2, 32255, Note_on_c, 0, 51, 0
2, 32287, Note_on_c, 0, 53, 55
2, 32295, Note_on_c, 0, 52, 0
2, 32317, Note_on_c, 0, 93, 0
2, 32347, Note_on_c, 0, 52, 55
2, 32362, Note_on_c, 0, 96, 63
2, 32395, Note_on_c, 0, 53, 0
2, 32405, Note_on_c, 0, 51, 58
2, 32452, Note_on_c, 0, 96, 0
2, 32452, Note_on_c, 0, 52, 0
2, 32472, Control_c, 0, 64, 0
2, 32505, Note_on_c, 0, 100, 85
2, 32507, Note_on_c, 0, 52, 85
2, 32515, Note_on_c, 0, 51, 0
2, 32520, Note_on_c, 0, 88, 80
2, 32592, Note_on_c, 0, 52, 0
2, 32592, Note_on_c, 0, 100, 0
2, 32602, Note_on_c, 0, 53, 62
2, 32667, Note_on_c, 0, 88, 0
2, 32687, Note_on_c, 0, 54, 66
2, 32695, Note_on_c, 0, 53, 0
2, 32730, Note_on_c, 0, 54, 0
2, 32742, Control_c, 0, 64, 127
2, 32762, Note_on_c, 0, 55, 60
2, 32820, Note_on_c, 0, 76, 72
2, 32820, Note_on_c, 0, 56, 59
2, 32845, Note_on_c, 0, 55, 0
2, 32880, Note_on_c, 0, 76, 0
2, 32880, Note_on_c, 0, 77, 70
2, 32892, Note_on_c, 0, 57, 62
2, 32902, Note_on_c, 0, 56, 0
2, 32935, Note_on_c, 0, 76, 66
2, 32942, Note_on_c, 0, 77, 0
2, 32962, Note_on_c, 0, 57, 0
2, 32975, Note_on_c, 0, 58, 63
2, 33007, Note_on_c, 0, 77, 65
2, 33017, Note_on_c, 0, 76, 0
2, 33032, Note_on_c, 0, 59, 64
2, 33040, Note_on_c, 0, 58, 0
2, 33075, Note_on_c, 0, 77, 0
2, 33085, Note_on_c, 0, 76, 65
2, 33095, Note_on_c, 0, 59, 0
2, 33110, Note_on_c, 0, 60, 61
2, 33150, Note_on_c, 0, 76, 0
2, 33152, Note_on_c, 0, 60, 0
2, 33165, Note_on_c, 0, 77, 72
2, 33167, Note_on_c, 0, 61, 63
2, 33227, Note_on_c, 0, 61, 0
2, 33230, Note_on_c, 0, 77, 0
2, 33240, Note_on_c, 0, 62, 60
2, 33240, Note_on_c, 0, 76, 68
2, 33297, Note_on_c, 0, 63, 61
2, 33297, Note_on_c, 0, 77, 69
2, 33302, Note_on_c, 0, 76, 0
2, 33302, Note_on_c, 0, 62, 0
2, 33357, Note_on_c, 0, 64, 63
2, 33357, Note_on_c, 0, 76, 72
2, 33365, Note_on_c, 0, 63, 0
2, 33380, Note_on_c, 0, 77, 0
2, 33417, Note_on_c, 0, 64, 0
2, 33427, Note_on_c, 0, 65, 71
2, 33427, Note_on_c, 0, 77, 73
2, 33435, Note_on_c, 0, 76, 0
2, 33482, Note_on_c, 0, 66, 70
2, 33482, Note_on_c, 0, 76, 66
2, 33492, Note_on_c, 0, 77, 0
2, 33512, Note_on_c, 0, 65, 0
2, 33545, Note_on_c, 0, 67, 69
2, 33545, Note_on_c, 0, 77, 69
2, 33567, Note_on_c, 0, 66, 0
2, 33567, Note_on_c, 0, 76, 0
2, 33610, Note_on_c, 0, 67, 0
2, 33622, Note_on_c, 0, 68, 68
2, 33622, Note_on_c, 0, 76, 73
2, 33632, Note_on_c, 0, 77, 0
2, 33685, Note_on_c, 0, 69, 68
2, 33685, Note_on_c, 0, 77, 72
2, 33687, Note_on_c, 0, 76, 0
2, 33687, Note_on_c, 0, 68, 0
2, 33735, Note_on_c, 0, 70, 73
2, 33735, Note_on_c, 0, 76, 69
2, 33747, Note_on_c, 0, 69, 0
2, 33770, Note_on_c, 0, 77, 0
2, 33817, Note_on_c, 0, 71, 74
2, 33817, Note_on_c, 0, 77, 73
2, 33825, Note_on_c, 0, 70, 0
2, 33825, Note_on_c, 0, 76, 0
2, 33877, Note_on_c, 0, 72, 70
2, 33877, Note_on_c, 0, 76, 72
2, 33887, Note_on_c, 0, 77, 0
2, 33907, Note_on_c, 0, 71, 0
2, 33957, Note_on_c, 0, 73, 68
2, 33957, Note_on_c, 0, 77, 72
2, 33960, Note_on_c, 0, 76, 0
2, 33982, Note_on_c, 0, 72, 0
2, 34002, Note_on_c, 0, 77, 0
2, 34017, Note_on_c, 0, 74, 70
2, 34017, Note_on_c, 0, 76, 70
2, 34020, Note_on_c, 0, 73, 0
2, 34072, Note_on_c, 0, 75, 67
2, 34075, Note_on_c, 0, 77, 69
2, 34080, Note_on_c, 0, 76, 0
2, 34080, Note_on_c, 0, 74, 0
2, 34135, Note_on_c, 0, 76, 86
2, 34142, Note_on_c, 0, 75, 0
2, 34142, Note_on_c, 0, 77, 0
2, 34192, Note_on_c, 0, 77, 71
2, 34217, Note_on_c, 0, 76, 0
2, 34270, Note_on_c, 0, 76, 70
2, 34277, Note_on_c, 0, 77, 0
2, 34330, Note_on_c, 0, 75, 68
2, 34337, Note_on_c, 0, 76, 0
2, 34392, Note_on_c, 0, 76, 68
2, 34395, Note_on_c, 0, 75, 0
2, 34395, Control_c, 0, 64, 0
2, 34447, Note_on_c, 0, 77, 73
2, 34472, Note_on_c, 0, 76, 0
2, 34537, Note_on_c, 0, 77, 0
2, 34547, Note_on_c, 0, 76, 68
2, 34605, Note_on_c, 0, 75, 71
2, 34612, Note_on_c, 0, 76, 0
2, 34672, Note_on_c, 0, 75, 0
2, 34680, Note_on_c, 0, 76, 83
2, 34740, Note_on_c, 0, 77, 72
2, 34765, Note_on_c, 0, 76, 0
2, 34800, Note_on_c, 0, 77, 0
2, 34812, Note_on_c, 0, 76, 62
2, 34867, Note_on_c, 0, 75, 63
2, 34875, Note_on_c, 0, 76, 0
2, 34930, Note_on_c, 0, 75, 0
2, 34942, Note_on_c, 0, 76, 66
2, 34982, Note_on_c, 0, 77, 66
2, 35010, Note_on_c, 0, 76, 0
2, 35062, Note_on_c, 0, 76, 66
2, 35072, Note_on_c, 0, 77, 0
2, 35120, Note_on_c, 0, 75, 60
2, 35147, Note_on_c, 0, 76, 0
2, 35207, Note_on_c, 0, 75, 0
2, 35220, Note_on_c, 0, 57, 61
2, 35220, Note_on_c, 0, 60, 59
2, 35220, Note_on_c, 0, 64, 62
2, 35220, Note_on_c, 0, 69, 73
2, 35220, Note_on_c, 0, 76, 75
2, 35220, Note_on_c, 0, 81, 73
2, 35275, Note_on_c, 0, 75, 66
2, 35280, Note_on_c, 0, 76, 0
2, 35280, Note_on_c, 0, 69, 0
2, 35280, Note_on_c, 0, 57, 0
2, 35280, Note_on_c, 0, 60, 0
2, 35302, Note_on_c, 0, 64, 0
2, 35312, Note_on_c, 0, 74, 60
2, 35340, Note_on_c, 0, 75, 0
2, 35350, Control_c, 0, 64, 127
2, 35397, Note_on_c, 0, 74, 0
2, 35430, Note_on_c, 0, 73, 73
2, 35487, Note_on_c, 0, 72, 72
2, 35497, Note_on_c, 0, 73, 0
2, 35497, Control_c, 0, 64, 0
2, 35545, Note_on_c, 0, 77, 48
2, 35622, Note_on_c, 0, 76, 62
2, 35682, Note_on_c, 0, 75, 61
2, 35712, Note_on_c, 0, 76, 0
2, 35712, Note_on_c, 0, 77, 0
2, 35750, Note_on_c, 0, 72, 0
2, 35760, Note_on_c, 0, 64, 46
2, 35760, Note_on_c, 0, 76, 60
2, 35770, Note_on_c, 0, 75, 0
2, 35780, Note_on_c, 0, 69, 65
2, 35787, Note_on_c, 0, 57, 42
2, 35787, Note_on_c, 0, 60, 43
2, 35840, Note_on_c, 0, 75, 61
2, 35895, Note_on_c, 0, 74, 62
2, 35905, Note_on_c, 0, 64, 0
2, 35907, Note_on_c, 0, 57, 0
2, 35907, Note_on_c, 0, 69, 0
2, 35907, Note_on_c, 0, 60, 0
2, 35927, Note_on_c, 0, 75, 0
2, 35927, Note_on_c, 0, 76, 0
2, 35940, Control_c, 0, 64, 127
2, 35977, Note_on_c, 0, 73, 63
2, 35985, Note_on_c, 0, 74, 0
2, 36002, Note_on_c, 0, 81, 0
2, 36035, Control_c, 0, 64, 0
2, 36057, Note_on_c, 0, 72, 41
2, 36060, Note_on_c, 0, 62, 60
2, 36060, Note_on_c, 0, 69, 44
2, 36060, Note_on_c, 0, 81, 45
2, 36067, Note_on_c, 0, 73, 0
2, 36082, Note_on_c, 0, 54, 42
2, 36120, Note_on_c, 0, 73, 57
2, 36162, Note_on_c, 0, 69, 0
2, 36162, Note_on_c, 0, 62, 0
2, 36182, Note_on_c, 0, 72, 0
2, 36192, Note_on_c, 0, 74, 66
2, 36202, Note_on_c, 0, 54, 0
2, 36202, Note_on_c, 0, 73, 0
2, 36260, Note_on_c, 0, 81, 0
2, 36272, Note_on_c, 0, 75, 65
2, 36280, Note_on_c, 0, 74, 0
2, 36332, Note_on_c, 0, 76, 62
2, 36340, Note_on_c, 0, 81, 65
2, 36362, Note_on_c, 0, 75, 0
2, 36375, Note_on_c, 0, 57, 52
2, 36375, Note_on_c, 0, 60, 50
2, 36375, Note_on_c, 0, 64, 48
2, 36375, Note_on_c, 0, 69, 64
2, 36412, Note_on_c, 0, 75, 60
2, 36457, Note_on_c, 0, 69, 0
2, 36457, Note_on_c, 0, 60, 0
2, 36457, Note_on_c, 0, 57, 0
2, 36457, Note_on_c, 0, 64, 0
2, 36487, Note_on_c, 0, 74, 64
2, 36515, Note_on_c, 0, 76, 0
2, 36515, Note_on_c, 0, 75, 0
2, 36530, Control_c, 0, 64, 127
2, 36565, Note_on_c, 0, 73, 60
2, 36610, Note_on_c, 0, 74, 0
2, 36642, Note_on_c, 0, 72, 62
2, 36652, Note_on_c, 0, 73, 0
2, 36717, Note_on_c, 0, 77, 60
2, 36727, Control_c, 0, 64, 0
2, 36775, Note_on_c, 0, 76, 55
2, 36820, Note_on_c, 0, 77, 0
2, 36832, Note_on_c, 0, 75, 60
2, 36855, Note_on_c, 0, 76, 0
2, 36897, Note_on_c, 0, 72, 0
2, 36905, Note_on_c, 0, 57, 42
2, 36905, Note_on_c, 0, 76, 58
2, 36907, Note_on_c, 0, 60, 45
2, 36917, Note_on_c, 0, 75, 0
2, 36927, Note_on_c, 0, 64, 44
2, 36927, Note_on_c, 0, 69, 57
2, 36952, Note_on_c, 0, 81, 0
2, 36982, Note_on_c, 0, 75, 54
2, 37015, Note_on_c, 0, 69, 0
2, 37027, Note_on_c, 0, 60, 0
2, 37027, Note_on_c, 0, 57, 0
2, 37040, Note_on_c, 0, 74, 56
2, 37047, Note_on_c, 0, 64, 0
2, 37087, Note_on_c, 0, 75, 0
2, 37102, Control_c, 0, 64, 127
2, 37102, Note_on_c, 0, 73, 66
2, 37145, Note_on_c, 0, 74, 0
2, 37200, Note_on_c, 0, 76, 0
2, 37210, Note_on_c, 0, 81, 62
2, 37212, Note_on_c, 0, 72, 61
2, 37215, Note_on_c, 0, 62, 59
2, 37225, Note_on_c, 0, 73, 0
2, 37235, Note_on_c, 0, 54, 48
2, 37235, Note_on_c, 0, 57, 42
2, 37245, Control_c, 0, 64, 0
2, 37270, Note_on_c, 0, 73, 53
2, 37317, Note_on_c, 0, 62, 0
2, 37317, Note_on_c, 0, 72, 0
2, 37347, Note_on_c, 0, 74, 54
2, 37355, Note_on_c, 0, 73, 0
2, 37377, Note_on_c, 0, 57, 0
2, 37377, Note_on_c, 0, 54, 0
2, 37402, Note_on_c, 0, 75, 59
2, 37435, Note_on_c, 0, 74, 0
2, 37500, Note_on_c, 0, 75, 0
2, 37530, Note_on_c, 0, 57, 63
2, 37530, Note_on_c, 0, 60, 66
2, 37530, Note_on_c, 0, 64, 65
2, 37530, Note_on_c, 0, 76, 72
2, 37590, Note_on_c, 0, 75, 75
2, 37597, Note_on_c, 0, 81, 0
2, 37620, Note_on_c, 0, 76, 0
2, 37620, Note_on_c, 0, 64, 0
2, 37620, Note_on_c, 0, 57, 0
2, 37620, Note_on_c, 0, 60, 0
2, 37630, Note_on_c, 0, 74, 74
2, 37657, Note_on_c, 0, 75, 0
2, 37705, Note_on_c, 0, 73, 78
2, 37712, Note_on_c, 0, 74, 0
2, 37782, Note_on_c, 0, 74, 78
2, 37795, Note_on_c, 0, 73, 0
2, 37805, Note_on_c, 0, 53, 66
2, 37805, Note_on_c, 0, 57, 66
2, 37805, Note_on_c, 0, 62, 62
2, 37860, Note_on_c, 0, 73, 84
2, 37887, Note_on_c, 0, 74, 0
2, 37910, Note_on_c, 0, 62, 0
2, 37910, Note_on_c, 0, 53, 0
2, 37910, Note_on_c, 0, 57, 0
2, 37950, Note_on_c, 0, 73, 0
2, 37960, Note_on_c, 0, 72, 82
2, 38047, Note_on_c, 0, 72, 0
2, 38055, Note_on_c, 0, 71, 81
2, 38100, Note_on_c, 0, 52, 59
2, 38100, Note_on_c, 0, 57, 64
2, 38100, Note_on_c, 0, 60, 66
2, 38135, Note_on_c, 0, 72, 79
2, 38145, Note_on_c, 0, 71, 0
2, 38215, Note_on_c, 0, 73, 84
2, 38237, Note_on_c, 0, 72, 0
2, 38240, Note_on_c, 0, 60, 0
2, 38240, Note_on_c, 0, 57, 0
2, 38255, Note_on_c, 0, 52, 0
2, 38265, Note_on_c, 0, 74, 78
2, 38290, Note_on_c, 0, 73, 0
2, 38360, Note_on_c, 0, 75, 82
2, 38367, Note_on_c, 0, 74, 0
2, 38400, Note_on_c, 0, 50, 57
2, 38400, Note_on_c, 0, 59, 56
2, 38402, Note_on_c, 0, 52, 57
2, 38402, Note_on_c, 0, 56, 55
2, 38417, Note_on_c, 0, 76, 82
2, 38427, Note_on_c, 0, 75, 0
2, 38472, Note_on_c, 0, 77, 64
2, 38480, Note_on_c, 0, 76, 0
2, 38517, Note_on_c, 0, 59, 0
2, 38520, Note_on_c, 0, 50, 0
2, 38520, Note_on_c, 0, 56, 0
2, 38527, Note_on_c, 0, 76, 53
2, 38537, Note_on_c, 0, 52, 0
2, 38552, Note_on_c, 0, 77, 0
2, 38597, Note_on_c, 0, 75, 49
2, 38630, Note_on_c, 0, 76, 0
2, 38677, Note_on_c, 0, 76, 66
2, 38685, Note_on_c, 0, 75, 0
2, 38697, Note_on_c, 0, 48, 60
2, 38697, Note_on_c, 0, 52, 59
2, 38697, Note_on_c, 0, 57, 61
2, 38757, Note_on_c, 0, 76, 0
2, 38767, Note_on_c, 0, 75, 59
2, 38795, Note_on_c, 0, 57, 0
2, 38805, Note_on_c, 0, 74, 60
2, 38817, Note_on_c, 0, 75, 0
2, 38860, Note_on_c, 0, 48, 0
2, 38860, Note_on_c, 0, 52, 0
2, 38882, Note_on_c, 0, 73, 58
2, 38895, Note_on_c, 0, 74, 0
2, 38942, Note_on_c, 0, 74, 54
2, 38970, Note_on_c, 0, 73, 0
2, 38982, Note_on_c, 0, 41, 58
2, 38982, Note_on_c, 0, 50, 54
2, 38982, Note_on_c, 0, 57, 54
2, 39017, Note_on_c, 0, 73, 53
2, 39027, Note_on_c, 0, 74, 0
2, 39067, Note_on_c, 0, 57, 0
2, 39095, Note_on_c, 0, 72, 56
2, 39105, Note_on_c, 0, 41, 0
2, 39105, Note_on_c, 0, 50, 0
2, 39122, Note_on_c, 0, 73, 0
2, 39177, Note_on_c, 0, 71, 55
2, 39182, Note_on_c, 0, 72, 0
2, 39255, Note_on_c, 0, 72, 66
2, 39265, Note_on_c, 0, 71, 0
2, 39277, Note_on_c, 0, 40, 54
2, 39277, Note_on_c, 0, 48, 59
2, 39277, Note_on_c, 0, 57, 54
2, 39332, Note_on_c, 0, 73, 60
2, 39342, Note_on_c, 0, 72, 0
2, 39385, Note_on_c, 0, 57, 0
2, 39385, Note_on_c, 0, 48, 0
2, 39387, Note_on_c, 0, 40, 0
2, 39402, Note_on_c, 0, 73, 0
2, 39415, Note_on_c, 0, 74, 64
2, 39475, Note_on_c, 0, 75, 65
2, 39480, Note_on_c, 0, 74, 0
2, 39530, Note_on_c, 0, 76, 60
2, 39550, Note_on_c, 0, 38, 52
2, 39550, Note_on_c, 0, 47, 52
2, 39550, Note_on_c, 0, 52, 54
2, 39557, Note_on_c, 0, 75, 0
2, 39590, Note_on_c, 0, 78, 48
2, 39620, Note_on_c, 0, 76, 0
2, 39662, Note_on_c, 0, 52, 0
2, 39670, Note_on_c, 0, 79, 49
2, 39702, Note_on_c, 0, 47, 0
2, 39702, Note_on_c, 0, 78, 0
2, 39710, Note_on_c, 0, 38, 0
2, 39732, Note_on_c, 0, 80, 49
2, 39785, Note_on_c, 0, 79, 0
2, 39817, Note_on_c, 0, 81, 63
2, 39840, Note_on_c, 0, 52, 50
2, 39840, Note_on_c, 0, 37, 49
2, 39842, Note_on_c, 0, 80, 0
2, 39862, Control_c, 0, 64, 127
2, 39862, Note_on_c, 0, 45, 47
2, 39897, Note_on_c, 0, 80, 62
2, 39960, Note_on_c, 0, 79, 59
2, 39985, Note_on_c, 0, 80, 0
2, 40032, Note_on_c, 0, 78, 63
2, 40040, Note_on_c, 0, 79, 0
2, 40047, Note_on_c, 0, 45, 0
2, 40102, Note_on_c, 0, 81, 0
2, 40105, Note_on_c, 0, 37, 0
2, 40105, Note_on_c, 0, 52, 0
2, 40112, Note_on_c, 0, 53, 44
2, 40115, Note_on_c, 0, 38, 48
2, 40115, Note_on_c, 0, 45, 44
2, 40122, Note_on_c, 0, 78, 0
2, 40137, Note_on_c, 0, 77, 65
2, 40207, Note_on_c, 0, 82, 54
2, 40235, Note_on_c, 0, 53, 0
2, 40237, Control_c, 0, 64, 0
2, 40252, Note_on_c, 0, 45, 0
2, 40255, Note_on_c, 0, 38, 0
2, 40262, Note_on_c, 0, 81, 53
2, 40310, Note_on_c, 0, 82, 0
2, 40320, Note_on_c, 0, 80, 56
2, 40345, Note_on_c, 0, 81, 0
2, 40370, Note_on_c, 0, 77, 0
2, 40392, Note_on_c, 0, 81, 66
2, 40420, Note_on_c, 0, 80, 0
2, 40465, Note_on_c, 0, 80, 58
2, 40545, Note_on_c, 0, 79, 64
2, 40552, Note_on_c, 0, 80, 0
2, 40600, Note_on_c, 0, 78, 61
2, 40645, Note_on_c, 0, 79, 0
2, 40645, Note_on_c, 0, 81, 0
2, 40685, Note_on_c, 0, 78, 0
2, 40697, Note_on_c, 0, 77, 78
2, 40700, Note_on_c, 0, 86, 76
2, 40720, Note_on_c, 0, 47, 67
2, 40720, Note_on_c, 0, 55, 65
2, 40720, Note_on_c, 0, 62, 69
2, 40735, Note_on_c, 0, 78, 59
2, 40760, Note_on_c, 0, 77, 0
2, 40780, Note_on_c, 0, 62, 0
2, 40780, Note_on_c, 0, 86, 0
2, 40787, Note_on_c, 0, 47, 0
2, 40805, Note_on_c, 0, 55, 0
2, 40820, Note_on_c, 0, 78, 0
2, 40832, Note_on_c, 0, 79, 55
2, 40890, Note_on_c, 0, 80, 59
2, 40915, Note_on_c, 0, 79, 0
2, 41000, Note_on_c, 0, 80, 0
2, 41012, Note_on_c, 0, 50, 56
2, 41012, Note_on_c, 0, 57, 55
2, 41012, Note_on_c, 0, 81, 72
2, 41012, Note_on_c, 0, 86, 76
2, 41027, Note_on_c, 0, 65, 64
2, 41062, Note_on_c, 0, 80, 60
2, 41122, Note_on_c, 0, 79, 64
2, 41147, Note_on_c, 0, 80, 0
2, 41147, Note_on_c, 0, 81, 0
2, 41217, Note_on_c, 0, 78, 68
2, 41225, Note_on_c, 0, 79, 0
2, 41237, Control_c, 0, 64, 127
2, 41295, Note_on_c, 0, 77, 72
2, 41307, Note_on_c, 0, 78, 0
2, 41375, Note_on_c, 0, 82, 46
2, 41432, Note_on_c, 0, 81, 59
2, 41462, Note_on_c, 0, 82, 0
2, 41462, Note_on_c, 0, 50, 0
2, 41462, Note_on_c, 0, 57, 0
2, 41462, Note_on_c, 0, 86, 0
2, 41475, Note_on_c, 0, 65, 0
2, 41487, Note_on_c, 0, 80, 59
2, 41577, Note_on_c, 0, 80, 0
2, 41585, Note_on_c, 0, 65, 57
2, 41587, Note_on_c, 0, 50, 44
2, 41590, Note_on_c, 0, 57, 46
2, 41592, Note_on_c, 0, 77, 0
2, 41627, Note_on_c, 0, 80, 54
2, 41637, Control_c, 0, 64, 0
2, 41672, Note_on_c, 0, 81, 0
2, 41695, Note_on_c, 0, 65, 0
2, 41705, Note_on_c, 0, 79, 56
2, 41707, Note_on_c, 0, 57, 0
2, 41710, Note_on_c, 0, 50, 0
2, 41730, Note_on_c, 0, 80, 0
2, 41800, Note_on_c, 0, 78, 64
2, 41810, Note_on_c, 0, 79, 0
2, 41880, Note_on_c, 0, 62, 62
2, 41880, Note_on_c, 0, 77, 65
2, 41880, Note_on_c, 0, 86, 65
2, 41887, Note_on_c, 0, 78, 0
2, 41897, Note_on_c, 0, 47, 43
2, 41897, Note_on_c, 0, 55, 41
2, 41932, Note_on_c, 0, 78, 63
2, 41940, Note_on_c, 0, 62, 0
2, 41940, Note_on_c, 0, 77, 0
2, 42000, Note_on_c, 0, 47, 0
2, 42000, Note_on_c, 0, 78, 0
2, 42007, Note_on_c, 0, 79, 63
2, 42017, Note_on_c, 0, 86, 0
2, 42017, Note_on_c, 0, 55, 0
2, 42062, Note_on_c, 0, 80, 61
2, 42095, Note_on_c, 0, 79, 0
2, 42140, Note_on_c, 0, 81, 64
2, 42140, Note_on_c, 0, 86, 65
2, 42142, Note_on_c, 0, 50, 52
2, 42142, Note_on_c, 0, 57, 47
2, 42142, Note_on_c, 0, 65, 64
2, 42152, Note_on_c, 0, 80, 0
2, 42217, Note_on_c, 0, 80, 66
2, 42225, Note_on_c, 0, 81, 0
2, 42225, Note_on_c, 0, 86, 0
2, 42242, Note_on_c, 0, 57, 0
2, 42242, Note_on_c, 0, 50, 0
2, 42265, Note_on_c, 0, 65, 0
2, 42275, Note_on_c, 0, 79, 62
2, 42300, Note_on_c, 0, 80, 0
2, 42347, Note_on_c, 0, 78, 61
2, 42357, Note_on_c, 0, 79, 0
2, 42405, Note_on_c, 0, 79, 61
2, 42422, Note_on_c, 0, 46, 56
2, 42422, Note_on_c, 0, 50, 59
2, 42422, Note_on_c, 0, 55, 55
2, 42430, Note_on_c, 0, 78, 0
2, 42485, Note_on_c, 0, 79, 0
2, 42497, Note_on_c, 0, 78, 64
2, 42525, Note_on_c, 0, 50, 0
2, 42525, Note_on_c, 0, 46, 0
2, 42545, Note_on_c, 0, 55, 0
2, 42555, Note_on_c, 0, 77, 62
2, 42582, Note_on_c, 0, 78, 0
2, 42635, Note_on_c, 0, 76, 63
2, 42642, Note_on_c, 0, 77, 0
2, 42712, Note_on_c, 0, 50, 47
2, 42712, Note_on_c, 0, 53, 45
2, 42712, Note_on_c, 0, 77, 65
2, 42715, Note_on_c, 0, 45, 43
2, 42735, Note_on_c, 0, 76, 0
2, 42770, Note_on_c, 0, 78, 59
2, 42815, Note_on_c, 0, 77, 0
2, 42837, Note_on_c, 0, 53, 0
2, 42845, Note_on_c, 0, 79, 60
2, 42855, Note_on_c, 0, 50, 0
2, 42855, Note_on_c, 0, 45, 0
2, 42875, Note_on_c, 0, 78, 0
2, 42947, Note_on_c, 0, 80, 64
2, 42957, Note_on_c, 0, 79, 0
2, 43025, Note_on_c, 0, 81, 63
2, 43027, Note_on_c, 0, 43, 54
2, 43027, Note_on_c, 0, 45, 54
2, 43027, Note_on_c, 0, 49, 51
2, 43027, Note_on_c, 0, 52, 50
2, 43035, Note_on_c, 0, 80, 0
2, 43105, Note_on_c, 0, 82, 57
2, 43112, Note_on_c, 0, 81, 0
2, 43155, Note_on_c, 0, 45, 0
2, 43155, Note_on_c, 0, 49, 0
2, 43155, Note_on_c, 0, 52, 0
2, 43157, Note_on_c, 0, 43, 0
2, 43167, Note_on_c, 0, 81, 54
2, 43215, Note_on_c, 0, 82, 0
2, 43227, Note_on_c, 0, 80, 56
2, 43255, Note_on_c, 0, 81, 0
2, 43302, Note_on_c, 0, 81, 56
2, 43312, Note_on_c, 0, 80, 0
2, 43322, Note_on_c, 0, 41, 60
2, 43322, Note_on_c, 0, 45, 59
2, 43322, Note_on_c, 0, 50, 61
2, 43360, Note_on_c, 0, 80, 55
2, 43407, Note_on_c, 0, 81, 0
2, 43432, Note_on_c, 0, 50, 0
2, 43440, Note_on_c, 0, 79, 53
2, 43467, Note_on_c, 0, 80, 0
2, 43482, Control_c, 0, 64, 127
2, 43490, Note_on_c, 0, 41, 0
2, 43490, Note_on_c, 0, 45, 0
2, 43520, Note_on_c, 0, 78, 56
2, 43545, Note_on_c, 0, 79, 0
2, 43557, Note_on_c, 0, 50, 59
2, 43557, Note_on_c, 0, 53, 60
2, 43557, Note_on_c, 0, 57, 56
2, 43577, Note_on_c, 0, 77, 61
2, 43587, Control_c, 0, 64, 0
2, 43620, Note_on_c, 0, 78, 0
2, 43657, Note_on_c, 0, 77, 0
2, 43667, Note_on_c, 0, 78, 65
2, 43680, Note_on_c, 0, 57, 0
2, 43700, Note_on_c, 0, 50, 0
2, 43700, Note_on_c, 0, 53, 0
2, 43732, Note_on_c, 0, 79, 60
2, 43740, Note_on_c, 0, 78, 0
2, 43790, Note_on_c, 0, 80, 59
2, 43800, Note_on_c, 0, 79, 0
2, 43835, Note_on_c, 0, 57, 57
2, 43855, Note_on_c, 0, 48, 59
2, 43855, Note_on_c, 0, 52, 60
2, 43877, Note_on_c, 0, 80, 0
2, 43887, Note_on_c, 0, 81, 66
2, 43935, Note_on_c, 0, 57, 0
2, 43945, Note_on_c, 0, 83, 61
2, 43972, Note_on_c, 0, 81, 0
2, 43992, Note_on_c, 0, 52, 0
2, 44000, Note_on_c, 0, 84, 64
2, 44015, Note_on_c, 0, 48, 0
2, 44030, Note_on_c, 0, 83, 0
2, 44077, Note_on_c, 0, 86, 61
2, 44087, Note_on_c, 0, 84, 0
2, 44120, Note_on_c, 0, 47, 41
2, 44120, Note_on_c, 0, 52, 47
2, 44120, Note_on_c, 0, 56, 46
2, 44120, Note_on_c, 0, 59, 48
2, 44135, Note_on_c, 0, 88, 60
2, 44160, Note_on_c, 0, 86, 0
2, 44192, Note_on_c, 0, 89, 64
2, 44202, Note_on_c, 0, 88, 0
2, 44242, Note_on_c, 0, 59, 0
2, 44242, Note_on_c, 0, 56, 0
2, 44242, Note_on_c, 0, 47, 0
2, 44252, Note_on_c, 0, 88, 59
2, 44262, Note_on_c, 0, 52, 0
2, 44297, Note_on_c, 0, 89, 0
2, 44312, Note_on_c, 0, 87, 63
2, 44322, Note_on_c, 0, 88, 0
2, 44370, Note_on_c, 0, 88, 65
2, 44377, Note_on_c, 0, 87, 0
2, 44387, Note_on_c, 0, 52, 57
2, 44410, Control_c, 0, 64, 127
2, 44410, Note_on_c, 0, 45, 54
2, 44410, Note_on_c, 0, 60, 54
2, 44422, Note_on_c, 0, 87, 46
2, 44487, Note_on_c, 0, 88, 0
2, 44500, Note_on_c, 0, 86, 67
2, 44545, Note_on_c, 0, 87, 0
2, 44557, Note_on_c, 0, 64, 65
2, 44557, Note_on_c, 0, 69, 73
2, 44557, Note_on_c, 0, 72, 69
2, 44577, Note_on_c, 0, 85, 66
2, 44585, Note_on_c, 0, 86, 0
2, 44640, Note_on_c, 0, 85, 0
2, 44652, Note_on_c, 0, 84, 70
2, 44745, Note_on_c, 0, 60, 0
2, 44745, Note_on_c, 0, 45, 0
2, 44752, Note_on_c, 0, 89, 59
2, 44762, Note_on_c, 0, 52, 0
2, 44800, Note_on_c, 0, 72, 0
2, 44800, Note_on_c, 0, 69, 0
2, 44810, Note_on_c, 0, 88, 65
2, 44820, Note_on_c, 0, 89, 0
2, 44820, Note_on_c, 0, 64, 0
2, 44865, Note_on_c, 0, 87, 65
2, 44890, Note_on_c, 0, 88, 0
2, 44910, Note_on_c, 0, 84, 0
2, 44932, Note_on_c, 0, 87, 0
2, 44965, Note_on_c, 0, 45, 53
2, 44965, Note_on_c, 0, 52, 52
2, 44965, Note_on_c, 0, 60, 51
2, 44965, Note_on_c, 0, 88, 71
2, 44997, Control_c, 0, 64, 0
2, 45020, Note_on_c, 0, 87, 62
2, 45030, Note_on_c, 0, 88, 0
2, 45072, Note_on_c, 0, 60, 0
2, 45072, Note_on_c, 0, 45, 0
2, 45082, Note_on_c, 0, 86, 65
2, 45095, Note_on_c, 0, 52, 0
2, 45115, Note_on_c, 0, 87, 0
2, 45167, Note_on_c, 0, 85, 62
2, 45192, Note_on_c, 0, 86, 0
2, 45227, Note_on_c, 0, 42, 55
2, 45227, Note_on_c, 0, 50, 54
2, 45227, Note_on_c, 0, 84, 64
2, 45237, Note_on_c, 0, 85, 0
2, 45245, Note_on_c, 0, 57, 54
2, 45300, Note_on_c, 0, 85, 63
2, 45312, Note_on_c, 0, 42, 0
2, 45312, Note_on_c, 0, 84, 0
2, 45312, Note_on_c, 0, 50, 0
2, 45332, Note_on_c, 0, 57, 0
2, 45362, Note_on_c, 0, 86, 60
2, 45387, Note_on_c, 0, 85, 0
2, 45420, Note_on_c, 0, 87, 60
2, 45445, Note_on_c, 0, 86, 0
2, 45492, Note_on_c, 0, 88, 71
2, 45502, Note_on_c, 0, 87, 0
2, 45517, Note_on_c, 0, 60, 59
2, 45532, Control_c, 0, 64, 127
2, 45532, Note_on_c, 0, 45, 62
2, 45532, Note_on_c, 0, 52, 64
2, 45550, Note_on_c, 0, 87, 69
2, 45605, Note_on_c, 0, 86, 71
2, 45630, Note_on_c, 0, 88, 0
2, 45640, Note_on_c, 0, 64, 59
2, 45640, Note_on_c, 0, 69, 71
2, 45640, Note_on_c, 0, 72, 73
2, 45655, Note_on_c, 0, 87, 0
2, 45677, Note_on_c, 0, 85, 72
2, 45705, Note_on_c, 0, 86, 0
2, 45750, Note_on_c, 0, 84, 67
2, 45762, Note_on_c, 0, 85, 0
2, 45797, Note_on_c, 0, 60, 0
2, 45797, Note_on_c, 0, 45, 0
2, 45797, Note_on_c, 0, 52, 0
2, 45805, Note_on_c, 0, 89, 65
2, 45852, Note_on_c, 0, 69, 0
2, 45852, Note_on_c, 0, 64, 0
2, 45872, Note_on_c, 0, 72, 0
2, 45885, Note_on_c, 0, 88, 64
2, 45892, Note_on_c, 0, 89, 0
2, 45945, Note_on_c, 0, 87, 66
2, 45990, Note_on_c, 0, 88, 0
2, 45990, Note_on_c, 0, 84, 0
2, 46010, Control_c, 0, 64, 0
2, 46027, Note_on_c, 0, 87, 0
2, 46040, Note_on_c, 0, 88, 67
2, 46042, Note_on_c, 0, 60, 52
2, 46062, Note_on_c, 0, 45, 53
2, 46062, Note_on_c, 0, 52, 54
2, 46095, Note_on_c, 0, 87, 64
2, 46122, Note_on_c, 0, 88, 0
2, 46142, Note_on_c, 0, 60, 0
2, 46152, Note_on_c, 0, 86, 61
2, 46180, Note_on_c, 0, 87, 0
2, 46182, Note_on_c, 0, 52, 0
2, 46182, Note_on_c, 0, 45, 0
2, 46227, Note_on_c, 0, 85, 60
2, 46235, Note_on_c, 0, 86, 0
2, 46282, Note_on_c, 0, 84, 60
2, 46295, Note_on_c, 0, 85, 0
2, 46307, Note_on_c, 0, 42, 54
2, 46307, Note_on_c, 0, 50, 49
2, 46307, Note_on_c, 0, 57, 48
2, 46337, Note_on_c, 0, 85, 47
2, 46370, Note_on_c, 0, 84, 0
2, 46410, Note_on_c, 0, 57, 0
2, 46410, Note_on_c, 0, 50, 0
2, 46432, Note_on_c, 0, 42, 0
2, 46440, Note_on_c, 0, 86, 61
2, 46450, Note_on_c, 0, 85, 0
2, 46520, Note_on_c, 0, 87, 65
2, 46532, Note_on_c, 0, 86, 0
2, 46597, Note_on_c, 0, 60, 65
2, 46597, Note_on_c, 0, 88, 74
2, 46605, Control_c, 0, 64, 127
2, 46607, Note_on_c, 0, 87, 0
2, 46620, Note_on_c, 0, 52, 65
2, 46640, Note_on_c, 0, 45, 47
2, 46735, Note_on_c, 0, 80, 59
2, 46790, Note_on_c, 0, 81, 58
2, 46842, Note_on_c, 0, 80, 0
2, 46842, Note_on_c, 0, 88, 0
2, 46845, Note_on_c, 0, 60, 0
2, 46862, Note_on_c, 0, 45, 0
2, 46862, Note_on_c, 0, 52, 0
2, 46882, Note_on_c, 0, 81, 0
2, 46892, Note_on_c, 0, 69, 77
2, 46892, Note_on_c, 0, 82, 78
2, 46925, Control_c, 0, 64, 0
2, 46960, Note_on_c, 0, 82, 0
2, 46962, Note_on_c, 0, 69, 0
2, 46972, Note_on_c, 0, 83, 75
2, 47037, Note_on_c, 0, 65, 75
2, 47045, Note_on_c, 0, 83, 0
2, 47055, Note_on_c, 0, 84, 66
2, 47115, Note_on_c, 0, 85, 67
2, 47142, Note_on_c, 0, 84, 0
2, 47172, Note_on_c, 0, 86, 67
2, 47175, Note_on_c, 0, 62, 81
2, 47182, Note_on_c, 0, 85, 0
2, 47185, Note_on_c, 0, 65, 0
2, 47195, Note_on_c, 0, 53, 72
2, 47195, Note_on_c, 0, 57, 72
2, 47227, Note_on_c, 0, 85, 63
2, 47262, Note_on_c, 0, 62, 0
2, 47272, Note_on_c, 0, 84, 62
2, 47295, Note_on_c, 0, 59, 73
2, 47297, Note_on_c, 0, 57, 0
2, 47297, Note_on_c, 0, 86, 0
2, 47297, Note_on_c, 0, 53, 0
2, 47325, Note_on_c, 0, 83, 66
2, 47335, Note_on_c, 0, 85, 0
2, 47355, Note_on_c, 0, 84, 0
2, 47397, Note_on_c, 0, 59, 0
2, 47405, Note_on_c, 0, 84, 59
2, 47405, Note_on_c, 0, 62, 69
2, 47415, Note_on_c, 0, 83, 0
2, 47435, Control_c, 0, 64, 127
2, 47470, Note_on_c, 0, 83, 59
2, 47495, Note_on_c, 0, 84, 0
2, 47547, Note_on_c, 0, 82, 74
2, 47562, Note_on_c, 0, 65, 76
2, 47587, Note_on_c, 0, 83, 0
2, 47600, Note_on_c, 0, 81, 63
2, 47660, Note_on_c, 0, 52, 54
2, 47662, Note_on_c, 0, 82, 0
2, 47665, Note_on_c, 0, 62, 0
2, 47672, Note_on_c, 0, 60, 60
2, 47672, Note_on_c, 0, 80, 63
2, 47682, Note_on_c, 0, 81, 0
2, 47700, Note_on_c, 0, 65, 0
2, 47737, Note_on_c, 0, 81, 65
2, 47745, Control_c, 0, 64, 0
2, 47752, Note_on_c, 0, 69, 67
2, 47762, Note_on_c, 0, 80, 0
2, 47790, Note_on_c, 0, 82, 68
2, 47817, Note_on_c, 0, 81, 0
2, 47852, Note_on_c, 0, 82, 0
2, 47887, Note_on_c, 0, 83, 68
2, 47940, Note_on_c, 0, 84, 71
2, 47947, Control_c, 0, 64, 127
2, 47955, Note_on_c, 0, 83, 0
2, 48002, Note_on_c, 0, 85, 59
2, 48027, Note_on_c, 0, 84, 0
2, 48060, Note_on_c, 0, 86, 63
2, 48112, Note_on_c, 0, 85, 0
2, 48120, Note_on_c, 0, 52, 0
2, 48150, Note_on_c, 0, 69, 0
2, 48150, Note_on_c, 0, 60, 0
2, 48160, Note_on_c, 0, 87, 64
2, 48170, Note_on_c, 0, 86, 0
2, 48222, Note_on_c, 0, 88, 61
2, 48230, Note_on_c, 0, 87, 0
2, 48240, Note_on_c, 0, 52, 48
2, 48240, Note_on_c, 0, 59, 45
2, 48240, Note_on_c, 0, 68, 66
2, 48252, Control_c, 0, 64, 0
2, 48275, Note_on_c, 0, 89, 62
2, 48287, Note_on_c, 0, 88, 0
2, 48340, Note_on_c, 0, 88, 66
2, 48370, Note_on_c, 0, 89, 0
2, 48395, Note_on_c, 0, 87, 64
2, 48420, Note_on_c, 0, 88, 0
2, 48462, Control_c, 0, 64, 127
2, 48477, Note_on_c, 0, 88, 59
2, 48482, Note_on_c, 0, 87, 0
2, 48552, Note_on_c, 0, 89, 59
2, 48565, Note_on_c, 0, 88, 0
2, 48612, Note_on_c, 0, 88, 64
2, 48640, Note_on_c, 0, 68, 0
2, 48640, Note_on_c, 0, 89, 0
2, 48660, Note_on_c, 0, 52, 0
2, 48660, Note_on_c, 0, 59, 0
2, 48692, Note_on_c, 0, 87, 61
2, 48702, Note_on_c, 0, 88, 0
2, 48722, Control_c, 0, 64, 0
2, 48780, Note_on_c, 0, 87, 0
2, 48790, Note_on_c, 0, 88, 68
2, 48805, Note_on_c, 0, 64, 64
2, 48805, Note_on_c, 0, 69, 65
2, 48827, Note_on_c, 0, 57, 44
2, 48830, Note_on_c, 0, 60, 43
2, 48920, Control_c, 0, 64, 127
2, 48940, Note_on_c, 0, 92, 60
2, 48997, Note_on_c, 0, 93, 61
2, 49022, Note_on_c, 0, 92, 0
2, 49072, Note_on_c, 0, 81, 72
2, 49080, Note_on_c, 0, 69, 0
2, 49080, Note_on_c, 0, 93, 0
2, 49080, Note_on_c, 0, 88, 0
2, 49102, Note_on_c, 0, 57, 0
2, 49102, Note_on_c, 0, 60, 0
2, 49110, Note_on_c, 0, 94, 64
2, 49120, Note_on_c, 0, 64, 0
2, 49150, Note_on_c, 0, 95, 63
2, 49160, Note_on_c, 0, 81, 0
2, 49182, Control_c, 0, 64, 0
2, 49190, Note_on_c, 0, 77, 68
2, 49207, Note_on_c, 0, 96, 70
2, 49235, Note_on_c, 0, 94, 0
2, 49237, Note_on_c, 0, 95, 0
2, 49267, Note_on_c, 0, 97, 65
2, 49275, Note_on_c, 0, 77, 0
2, 49317, Note_on_c, 0, 96, 0
2, 49327, Note_on_c, 0, 69, 65
2, 49327, Note_on_c, 0, 74, 64
2, 49327, Note_on_c, 0, 98, 61
2, 49352, Note_on_c, 0, 65, 60
2, 49355, Note_on_c, 0, 97, 0
2, 49395, Note_on_c, 0, 98, 0
2, 49395, Note_on_c, 0, 69, 0
2, 49395, Note_on_c, 0, 74, 0
2, 49405, Note_on_c, 0, 97, 62
2, 49437, Note_on_c, 0, 65, 0
2, 49462, Note_on_c, 0, 71, 63
2, 49482, Note_on_c, 0, 96, 65
2, 49492, Note_on_c, 0, 97, 0
2, 49545, Note_on_c, 0, 95, 67
2, 49570, Note_on_c, 0, 96, 0
2, 49570, Note_on_c, 0, 71, 0
2, 49602, Note_on_c, 0, 74, 67
2, 49627, Note_on_c, 0, 95, 0
2, 49637, Note_on_c, 0, 96, 61
2, 49682, Note_on_c, 0, 74, 0
2, 49692, Note_on_c, 0, 95, 59
2, 49735, Note_on_c, 0, 77, 61
2, 49735, Note_on_c, 0, 94, 65
2, 49742, Note_on_c, 0, 96, 0
2, 49762, Note_on_c, 0, 95, 0
2, 49775, Note_on_c, 0, 64, 46
2, 49790, Note_on_c, 0, 93, 65
2, 49815, Note_on_c, 0, 77, 0
2, 49835, Note_on_c, 0, 94, 0
2, 49845, Note_on_c, 0, 72, 61
2, 49870, Note_on_c, 0, 93, 0
2, 49882, Note_on_c, 0, 81, 72
2, 49882, Note_on_c, 0, 92, 69
2, 49942, Note_on_c, 0, 93, 60
2, 49967, Note_on_c, 0, 92, 0
2, 49997, Note_on_c, 0, 94, 59
2, 50000, Control_c, 0, 64, 127
2, 50022, Note_on_c, 0, 93, 0
2, 50045, Note_on_c, 0, 95, 61
2, 50057, Note_on_c, 0, 94, 0
2, 50105, Note_on_c, 0, 96, 64
2, 50132, Note_on_c, 0, 95, 0
2, 50162, Note_on_c, 0, 97, 66
2, 50207, Note_on_c, 0, 96, 0
2, 50217, Note_on_c, 0, 98, 63
2, 50227, Note_on_c, 0, 64, 0
2, 50262, Note_on_c, 0, 97, 0
2, 50265, Note_on_c, 0, 72, 0
2, 50280, Note_on_c, 0, 81, 0
2, 50287, Note_on_c, 0, 99, 61
2, 50322, Note_on_c, 0, 98, 0
2, 50367, Note_on_c, 0, 100, 63
2, 50370, Note_on_c, 0, 64, 42
2, 50390, Note_on_c, 0, 71, 60
2, 50390, Note_on_c, 0, 80, 63
2, 50397, Note_on_c, 0, 99, 0
2, 50402, Control_c, 0, 64, 0
2, 50427, Note_on_c, 0, 101, 65
2, 50437, Note_on_c, 0, 100, 0
2, 50515, Note_on_c, 0, 100, 60
2, 50540, Note_on_c, 0, 101, 0
2, 50572, Note_on_c, 0, 99, 59
2, 50580, Note_on_c, 0, 100, 0
2, 50622, Control_c, 0, 64, 127
2, 50652, Note_on_c, 0, 100, 59
2, 50655, Note_on_c, 0, 99, 0
2, 50720, Note_on_c, 0, 80, 0
2, 50730, Note_on_c, 0, 102, 66
2, 50740, Note_on_c, 0, 100, 0
2, 50742, Note_on_c, 0, 71, 0
2, 50762, Note_on_c, 0, 64, 0
2, 50770, Control_c, 0, 64, 0
2, 50817, Note_on_c, 0, 103, 62
2, 50822, Note_on_c, 0, 102, 0
2, 50887, Note_on_c, 0, 103, 0
2, 50957, Note_on_c, 0, 69, 66
2, 50957, Note_on_c, 0, 72, 62
2, 50957, Note_on_c, 0, 76, 60
2, 50957, Note_on_c, 0, 81, 59
2, 51062, Note_on_c, 0, 81, 0
2, 51062, Note_on_c, 0, 69, 0
2, 51062, Note_on_c, 0, 72, 0
2, 51062, Note_on_c, 0, 76, 0
2, 51112, Note_on_c, 0, 103, 60
2, 51180, Note_on_c, 0, 103, 0
2, 51190, Note_on_c, 0, 102, 66
2, 51212, Control_c, 0, 67, 127
2, 51257, Note_on_c, 0, 102, 0
2, 51267, Note_on_c, 0, 103, 65
2, 51307, Note_on_c, 0, 57, 47
2, 51307, Note_on_c, 0, 67, 71
2, 51307, Note_on_c, 0, 70, 67
2, 51310, Note_on_c, 0, 61, 46
2, 51320, Note_on_c, 0, 103, 0
2, 51347, Note_on_c, 0, 102, 72
2, 51392, Note_on_c, 0, 70, 0
2, 51392, Note_on_c, 0, 61, 0
2, 51392, Note_on_c, 0, 57, 0
2, 51392, Note_on_c, 0, 67, 0
2, 51402, Note_on_c, 0, 101, 63
2, 51410, Note_on_c, 0, 102, 0
2, 51465, Note_on_c, 0, 101, 0
2, 51480, Note_on_c, 0, 100, 60
2, 51537, Note_on_c, 0, 101, 59
2, 51562, Note_on_c, 0, 100, 0
2, 51575, Note_on_c, 0, 57, 47
2, 51575, Note_on_c, 0, 62, 42
2, 51575, Note_on_c, 0, 65, 64
2, 51575, Note_on_c, 0, 69, 64
2, 51607, Note_on_c, 0, 100, 63
2, 51657, Note_on_c, 0, 101, 0
2, 51662, Note_on_c, 0, 99, 66
2, 51690, Note_on_c, 0, 69, 0
2, 51692, Note_on_c, 0, 57, 0
2, 51712, Note_on_c, 0, 100, 0
2, 51715, Note_on_c, 0, 65, 0
2, 51715, Note_on_c, 0, 62, 0
2, 51745, Note_on_c, 0, 98, 72
2, 51747, Note_on_c, 0, 99, 0
2, 51825, Note_on_c, 0, 97, 71
2, 51832, Note_on_c, 0, 98, 0
2, 51885, Note_on_c, 0, 96, 67
2, 51910, Note_on_c, 0, 97, 0
2, 51937, Note_on_c, 0, 95, 69
2, 51970, Note_on_c, 0, 96, 0
2, 52020, Note_on_c, 0, 94, 72
2, 52025, Note_on_c, 0, 95, 0
2, 52080, Note_on_c, 0, 93, 66
2, 52100, Note_on_c, 0, 64, 59
2, 52100, Note_on_c, 0, 69, 70
2, 52110, Note_on_c, 0, 94, 0
2, 52122, Note_on_c, 0, 57, 55
2, 52122, Note_on_c, 0, 60, 57
2, 52155, Note_on_c, 0, 92, 64
2, 52182, Note_on_c, 0, 93, 0
2, 52205, Note_on_c, 0, 69, 0
2, 52215, Note_on_c, 0, 91, 61
2, 52222, Note_on_c, 0, 64, 0
2, 52225, Note_on_c, 0, 57, 0
2, 52225, Note_on_c, 0, 60, 0
2, 52247, Note_on_c, 0, 92, 0
2, 52315, Note_on_c, 0, 90, 68
2, 52340, Note_on_c, 0, 91, 0
2, 52387, Note_on_c, 0, 91, 67
2, 52397, Note_on_c, 0, 90, 0
2, 52435, Note_on_c, 0, 61, 66
2, 52447, Note_on_c, 0, 45, 45
2, 52447, Note_on_c, 0, 52, 42
2, 52467, Note_on_c, 0, 90, 67
2, 52492, Control_c, 0, 64, 127
2, 52512, Note_on_c, 0, 91, 0
2, 52532, Note_on_c, 0, 90, 0
2, 52545, Note_on_c, 0, 89, 61
2, 52610, Note_on_c, 0, 45, 0
2, 52620, Note_on_c, 0, 88, 67
2, 52627, Note_on_c, 0, 89, 0
2, 52630, Note_on_c, 0, 61, 0
2, 52630, Control_c, 0, 64, 0
2, 52662, Note_on_c, 0, 45, 43
2, 52670, Note_on_c, 0, 52, 0
2, 52700, Note_on_c, 0, 89, 65
2, 52702, Note_on_c, 0, 53, 53
2, 52712, Note_on_c, 0, 88, 0
2, 52740, Note_on_c, 0, 62, 60
2, 52780, Note_on_c, 0, 88, 59
2, 52790, Note_on_c, 0, 89, 0
2, 52837, Note_on_c, 0, 87, 60
2, 52857, Control_c, 0, 64, 127
2, 52865, Note_on_c, 0, 88, 0
2, 52897, Note_on_c, 0, 86, 61
2, 52922, Note_on_c, 0, 87, 0
2, 52972, Note_on_c, 0, 85, 63
2, 52995, Note_on_c, 0, 86, 0
2, 53032, Note_on_c, 0, 84, 63
2, 53075, Note_on_c, 0, 85, 0
2, 53105, Note_on_c, 0, 83, 63
2, 53115, Note_on_c, 0, 62, 0
2, 53115, Note_on_c, 0, 84, 0
2, 53115, Note_on_c, 0, 53, 0
2, 53115, Note_on_c, 0, 45, 0
2, 53182, Note_on_c, 0, 82, 66
2, 53195, Note_on_c, 0, 83, 0
2, 53235, Control_c, 0, 64, 0
2, 53262, Note_on_c, 0, 52, 53
2, 53262, Note_on_c, 0, 60, 54
2, 53262, Note_on_c, 0, 81, 62
2, 53272, Note_on_c, 0, 82, 0
2, 53282, Note_on_c, 0, 45, 47
2, 53317, Note_on_c, 0, 82, 59
2, 53327, Note_on_c, 0, 81, 0
2, 53380, Note_on_c, 0, 81, 64
2, 53402, Note_on_c, 0, 82, 0
2, 53435, Note_on_c, 0, 80, 61
2, 53460, Note_on_c, 0, 81, 0
2, 53517, Note_on_c, 0, 80, 0
2, 53525, Note_on_c, 0, 68, 74
2, 53525, Note_on_c, 0, 81, 74
2, 53547, Control_c, 0, 64, 127
2, 53602, Note_on_c, 0, 69, 72
2, 53602, Note_on_c, 0, 82, 74
2, 53612, Note_on_c, 0, 81, 0
2, 53612, Note_on_c, 0, 68, 0
2, 53660, Note_on_c, 0, 68, 59
2, 53660, Note_on_c, 0, 81, 66
2, 53670, Note_on_c, 0, 69, 0
2, 53670, Note_on_c, 0, 82, 0
2, 53682, Control_c, 0, 67, 0
2, 53735, Note_on_c, 0, 69, 61
2, 53735, Note_on_c, 0, 80, 60
2, 53745, Note_on_c, 0, 68, 0
2, 53745, Note_on_c, 0, 60, 0
2, 53745, Note_on_c, 0, 45, 0
2, 53745, Note_on_c, 0, 81, 0
2, 53765, Note_on_c, 0, 52, 0
2, 53802, Note_on_c, 0, 80, 0
2, 53802, Note_on_c, 0, 69, 0
2, 53812, Note_on_c, 0, 68, 64
2, 53812, Note_on_c, 0, 81, 62
2, 53877, Note_on_c, 0, 68, 0
2, 53890, Note_on_c, 0, 69, 65
2, 53900, Note_on_c, 0, 81, 0
2, 53937, Note_on_c, 0, 69, 0
2, 53947, Note_on_c, 0, 67, 61
2, 53947, Note_on_c, 0, 82, 65
2, 54015, Note_on_c, 0, 82, 0
2, 54017, Note_on_c, 0, 67, 0
2, 54025, Note_on_c, 0, 83, 65
2, 54032, Note_on_c, 0, 69, 64
2, 54085, Note_on_c, 0, 66, 64
2, 54085, Note_on_c, 0, 84, 63
2, 54095, Note_on_c, 0, 69, 0
2, 54095, Note_on_c, 0, 83, 0
2, 54162, Note_on_c, 0, 69, 62
2, 54162, Note_on_c, 0, 85, 62
2, 54172, Note_on_c, 0, 84, 0
2, 54195, Note_on_c, 0, 66, 0
2, 54227, Note_on_c, 0, 86, 65
2, 54237, Note_on_c, 0, 69, 0
2, 54245, Note_on_c, 0, 65, 61
2, 54272, Note_on_c, 0, 85, 0
2, 54302, Note_on_c, 0, 87, 66
2, 54305, Note_on_c, 0, 69, 62
2, 54332, Note_on_c, 0, 86, 0
2, 54335, Note_on_c, 0, 65, 0
2, 54370, Note_on_c, 0, 69, 0
2, 54372, Control_c, 0, 64, 0
2, 54395, Note_on_c, 0, 88, 87
2, 54420, Note_on_c, 0, 87, 0
2, 54420, Note_on_c, 0, 64, 69
2, 54420, Note_on_c, 0, 69, 84
2, 54420, Note_on_c, 0, 72, 84
2, 54462, Note_on_c, 0, 88, 0
2, 54472, Note_on_c, 0, 89, 69
2, 54482, Note_on_c, 0, 64, 0
2, 54482, Note_on_c, 0, 69, 0
2, 54497, Note_on_c, 0, 72, 0
2, 54535, Note_on_c, 0, 88, 65
2, 54560, Note_on_c, 0, 89, 0
2, 54592, Note_on_c, 0, 87, 68
2, 54622, Note_on_c, 0, 88, 0
2, 54635, Control_c, 0, 64, 127
2, 54657, Note_on_c, 0, 75, 68
2, 54670, Note_on_c, 0, 88, 62
2, 54682, Note_on_c, 0, 87, 0
2, 54710, Note_on_c, 0, 76, 68
2, 54732, Note_on_c, 0, 89, 69
2, 54735, Note_on_c, 0, 75, 0
2, 54760, Note_on_c, 0, 88, 0
2, 54785, Note_on_c, 0, 75, 69
2, 54805, Note_on_c, 0, 88, 66
2, 54815, Note_on_c, 0, 76, 0
2, 54815, Note_on_c, 0, 89, 0
2, 54867, Note_on_c, 0, 76, 68
2, 54867, Note_on_c, 0, 87, 64
2, 54877, Note_on_c, 0, 75, 0
2, 54880, Note_on_c, 0, 88, 0
2, 54927, Note_on_c, 0, 88, 63
2, 54930, Note_on_c, 0, 75, 68
2, 54957, Note_on_c, 0, 76, 0
2, 54957, Note_on_c, 0, 87, 0
2, 55002, Note_on_c, 0, 76, 69
2, 55027, Note_on_c, 0, 88, 0
2, 55027, Note_on_c, 0, 75, 0
2, 55060, Note_on_c, 0, 74, 69
2, 55060, Note_on_c, 0, 87, 69
2, 55092, Note_on_c, 0, 76, 0
2, 55120, Note_on_c, 0, 88, 66
2, 55140, Note_on_c, 0, 76, 67
2, 55165, Note_on_c, 0, 87, 0
2, 55167, Note_on_c, 0, 74, 0
2, 55180, Note_on_c, 0, 72, 67
2, 55192, Note_on_c, 0, 89, 67
2, 55202, Note_on_c, 0, 76, 0
2, 55245, Note_on_c, 0, 88, 0
2, 55257, Note_on_c, 0, 76, 65
2, 55275, Note_on_c, 0, 90, 68
2, 55300, Note_on_c, 0, 89, 0
2, 55330, Note_on_c, 0, 71, 66
2, 55330, Note_on_c, 0, 91, 68
2, 55342, Note_on_c, 0, 72, 0
2, 55357, Note_on_c, 0, 90, 0
2, 55360, Note_on_c, 0, 76, 0
2, 55407, Note_on_c, 0, 76, 67
2, 55407, Note_on_c, 0, 92, 65
2, 55415, Note_on_c, 0, 91, 0
2, 55455, Note_on_c, 0, 71, 0
2, 55455, Note_on_c, 0, 76, 0
2, 55457, Control_c, 0, 64, 0
2, 55477, Note_on_c, 0, 92, 0
2, 55507, Note_on_c, 0, 72, 77
2, 55507, Note_on_c, 0, 76, 82
2, 55507, Note_on_c, 0, 93, 79
2, 55527, Note_on_c, 0, 69, 84
2, 55580, Note_on_c, 0, 69, 0
2, 55595, Note_on_c, 0, 93, 0
2, 55597, Note_on_c, 0, 76, 0
2, 55597, Note_on_c, 0, 72, 0
2, 55802, Control_c, 0, 64, 127
2, 55840, Note_on_c, 0, 76, 59
2, 55900, Note_on_c, 0, 77, 64
2, 55925, Note_on_c, 0, 76, 0
2, 55952, Note_on_c, 0, 78, 63
2, 55982, Note_on_c, 0, 77, 0
2, 56015, Note_on_c, 0, 79, 66
2, 56040, Note_on_c, 0, 78, 0
2, 56090, Note_on_c, 0, 80, 66
2, 56100, Note_on_c, 0, 79, 0
2, 56155, Note_on_c, 0, 81, 66
2, 56180, Note_on_c, 0, 80, 0
2, 56227, Note_on_c, 0, 82, 61
2, 56230, Note_on_c, 0, 81, 0
2, 56302, Note_on_c, 0, 83, 66
2, 56312, Note_on_c, 0, 82, 0
2, 56380, Note_on_c, 0, 84, 64
2, 56392, Note_on_c, 0, 83, 0
2, 56445, Note_on_c, 0, 85, 62
2, 56447, Note_on_c, 0, 84, 0
2, 56495, Note_on_c, 0, 86, 62
2, 56520, Note_on_c, 0, 85, 0
2, 56557, Note_on_c, 0, 87, 65
2, 56580, Note_on_c, 0, 86, 0
2, 56630, Note_on_c, 0, 57, 41
2, 56640, Note_on_c, 0, 87, 0
2, 56640, Control_c, 0, 64, 0
2, 56650, Note_on_c, 0, 64, 43
2, 56652, Note_on_c, 0, 88, 62
2, 56672, Note_on_c, 0, 72, 66
2, 56707, Note_on_c, 0, 89, 62
2, 56735, Note_on_c, 0, 88, 0
2, 56780, Note_on_c, 0, 90, 60
2, 56790, Note_on_c, 0, 89, 0
2, 56835, Note_on_c, 0, 91, 65
2, 56860, Note_on_c, 0, 90, 0
2, 56882, Note_on_c, 0, 64, 0
2, 56890, Note_on_c, 0, 92, 66
2, 56917, Note_on_c, 0, 91, 0
2, 56942, Note_on_c, 0, 64, 48
2, 56945, Control_c, 0, 64, 127
2, 56960, Note_on_c, 0, 93, 62
2, 56992, Note_on_c, 0, 92, 0
2, 56992, Note_on_c, 0, 72, 0
2, 57017, Note_on_c, 0, 94, 65
2, 57045, Note_on_c, 0, 93, 0
2, 57057, Note_on_c, 0, 72, 65
2, 57092, Note_on_c, 0, 95, 60
2, 57102, Note_on_c, 0, 94, 0
2, 57150, Note_on_c, 0, 81, 61
2, 57160, Note_on_c, 0, 57, 0
2, 57170, Note_on_c, 0, 96, 67
2, 57180, Note_on_c, 0, 95, 0
2, 57180, Note_on_c, 0, 64, 0
2, 57227, Note_on_c, 0, 97, 61
2, 57235, Note_on_c, 0, 96, 0
2, 57265, Note_on_c, 0, 88, 65
2, 57275, Note_on_c, 0, 72, 0
2, 57287, Note_on_c, 0, 98, 61
2, 57295, Note_on_c, 0, 97, 0
2, 57350, Note_on_c, 0, 87, 68
2, 57350, Note_on_c, 0, 99, 63
2, 57352, Note_on_c, 0, 98, 0
2, 57355, Note_on_c, 0, 81, 0
2, 57390, Note_on_c, 0, 88, 0
2, 57410, Note_on_c, 0, 99, 0
2, 57420, Note_on_c, 0, 86, 68
2, 57420, Note_on_c, 0, 100, 66
2, 57432, Note_on_c, 0, 87, 0
2, 57480, Note_on_c, 0, 85, 62
2, 57480, Note_on_c, 0, 102, 68
2, 57490, Note_on_c, 0, 100, 0
2, 57510, Note_on_c, 0, 86, 0
2, 57555, Note_on_c, 0, 103, 63
2, 57557, Note_on_c, 0, 84, 67
2, 57567, Note_on_c, 0, 102, 0
2, 57582, Note_on_c, 0, 85, 0
2, 57612, Note_on_c, 0, 83, 62
2, 57640, Note_on_c, 0, 103, 0
2, 57642, Control_c, 0, 64, 0
2, 57677, Note_on_c, 0, 84, 0
2, 57685, Note_on_c, 0, 81, 85
2, 57685, Note_on_c, 0, 88, 82
2, 57685, Note_on_c, 0, 96, 82
2, 57697, Note_on_c, 0, 83, 0
2, 57752, Note_on_c, 0, 96, 0
2, 57752, Note_on_c, 0, 88, 0
2, 57772, Note_on_c, 0, 81, 0
2, 58020, Control_c, 0, 64, 127
2, 58560, Note_on_c, 0, 52, 87
2, 58560, Note_on_c, 0, 57, 82
2, 58560, Note_on_c, 0, 64, 84
2, 58560, Note_on_c, 0, 72, 89
2, 58560, Note_on_c, 0, 81, 87
2, 58580, Note_on_c, 0, 69, 83
2, 58580, Note_on_c, 0, 76, 83
2, 58582, Note_on_c, 0, 60, 87
2, 58640, Note_on_c, 0, 76, 0
2, 58640, Note_on_c, 0, 81, 0
2, 58642, Note_on_c, 0, 69, 0
2, 58642, Note_on_c, 0, 72, 0
2, 58642, Note_on_c, 0, 64, 0
2, 58642, Note_on_c, 0, 57, 0
2, 58662, Note_on_c, 0, 60, 0
2, 58665, Note_on_c, 0, 52, 0
2, 58770, Control_c, 0, 67, 127
2, 59557, Note_on_c, 0, 57, 52
2, 59592, Note_on_c, 0, 33, 59
2, 59625, Control_c, 0, 64, 0
2, 59737, Note_on_c, 0, 57, 0
2, 59795, Control_c, 0, 67, 0
2, 59840, Note_on_c, 0, 33, 0
2, 59840, End_track
3, 0, Start_track
3, 0, Title_t, "c/b Rimsky-Korsakoff"
3, 0, End_track
4, 0, Start_track
4, 0, Title_t, "p/b Sergei Rachmaninoff"
4, 0, End_track
5, 0, Start_track
5, 0, Title_t, "Ampico # 70301"
5, 0, End_track
6, 0, Start_track
6, 0, Title_t, "Scan of a player piano rol"
6, 0, End_track
7, 0, Start_track
7, 0, Title_t, "by Terry Smythe, Winnipeg,"
7, 0, End_track
0, 0, End_of_file
