0, 0, Header, 1, 3, 360
1, 0, Start_track
1, 0, Title_t, "untitled"
1, 0, Time_signature, 4, 2, 24, 8
1, 0, Key_signature, 1, "major"
1, 0, Tempo, 394737
1, 119700, Tempo, 1500000
1, 120960, Time_signature, 3, 2, 24, 8
1, 120960, Tempo, 1500000
1, 121320, Tempo, 1500000
1, 136170, Tempo, 5000000
1, 136260, Tempo, 1500000
1, 151200, Tempo, 1250000
1, 168480, Time_signature, 4, 2, 24, 8
1, 168480, Key_signature, 4, "major"
1, 168480, Tempo, 1500000
1, 205920, Tempo, 1500000
1, 205962, Tempo, 1522456
1, 206004, Tempo, 1545197
1, 206047, Tempo, 1569038
1, 206089, Tempo, 1593202
1, 206131, Tempo, 1618559
1, 206173, Tempo, 1644737
1, 206216, Tempo, 1671309
1, 206258, Tempo, 1699235
1, 206300, Tempo, 1727613
1, 206342, Tempo, 1757469
1, 206384, Tempo, 1788376
1, 206426, Tempo, 1819836
1, 206469, Tempo, 1852996
1, 206511, Tempo, 1886792
1, 206550, Tempo, 5000000
1, 206553, Tempo, 1922461
1, 206595, Tempo, 1958864
1, 206640, Tempo, 2000000
1, 206910, Tempo, 5000000
1, 207000, Tempo, 2000000
1, 207360, Tempo, 1500000
1, 210240, Tempo, 1304348
1, 223200, Tempo, 1304348
1, 223237, Tempo, 1324503
1, 223273, Tempo, 1344990
1, 223310, Tempo, 1366431
1, 223346, Tempo, 1388567
1, 223383, Tempo, 1411101
1, 223419, Tempo, 1434720
1, 223456, Tempo, 1458789
1, 223493, Tempo, 1484047
1, 223529, Tempo, 1510194
1, 223566, Tempo, 1536885
1, 223602, Tempo, 1564945
1, 223639, Tempo, 1594049
1, 223676, Tempo, 1623816
1, 223712, Tempo, 1655172
1, 223749, Tempo, 1687764
1, 223785, Tempo, 1721170
1, 223830, Tempo, 1764706
1, 224280, Tempo, 1304348
1, 228960, Tempo, 1304348
1, 228997, Tempo, 1324503
1, 229033, Tempo, 1344990
1, 229070, Tempo, 1366431
1, 229106, Tempo, 1388567
1, 229143, Tempo, 1411101
1, 229179, Tempo, 1434720
1, 229216, Tempo, 1458789
1, 229253, Tempo, 1484047
1, 229289, Tempo, 1510194
1, 229326, Tempo, 1536885
1, 229362, Tempo, 1564945
1, 229399, Tempo, 1594049
1, 229436, Tempo, 1623816
1, 229472, Tempo, 1655172
1, 229509, Tempo, 1687764
1, 229545, Tempo, 1721170
1, 229590, Tempo, 1764706
1, 230040, Tempo, 1304348
1, 230400, Tempo, 1111111
1, 235800, Tempo, 1111111
1, 235890, Tempo, 1128244
1, 235980, Tempo, 1146132
1, 236070, Tempo, 1164370
1, 236160, Tempo, 1183199
1, 236250, Tempo, 1202887
1, 236340, Tempo, 1222992
1, 236430, Tempo, 1243781
1, 236520, Tempo, 1265556
1, 236610, Tempo, 1287830
1, 236700, Tempo, 1311189
1, 236790, Tempo, 1335113
1, 236880, Tempo, 1359927
1, 236970, Tempo, 1386001
1, 237060, Tempo, 1412762
1, 237150, Tempo, 1440576
1, 237240, Tempo, 1469868
1, 237330, Tempo, 1500000
1, 237600, Tempo, 1500000
1, 237780, Tempo, 1578947
1, 237960, Tempo, 1666667
1, 238050, Tempo, 1764706
1, 238569, Tempo, 1111111
1, 238590, Tempo, 5000000
1, 238680, Tempo, 1111111
1, 244440, Tempo, 1111111
1, 244541, Tempo, 1128032
1, 244643, Tempo, 1145694
1, 244845, Tempo, 1182499
1, 244946, Tempo, 1201682
1, 245048, Tempo, 1221747
1, 245149, Tempo, 1242236
1, 245250, Tempo, 1263424
1, 245351, Tempo, 1285622
1, 245453, Tempo, 1308330
1, 245554, Tempo, 1332149
1, 245655, Tempo, 1356545
1, 245756, Tempo, 1381852
1, 245858, Tempo, 1408451
1, 245959, Tempo, 1435750
1, 246060, Tempo, 1464486
1, 246181, Tempo, 1500000
1, 246240, Tempo, 1500000
1, 246420, Tempo, 1578947
1, 246600, Tempo, 1666667
1, 246780, Tempo, 1764706
1, 247230, Tempo, 5000000
1, 247320, Tempo, 1764706
1, 247590, Tempo, 5000000
1, 247680, Time_signature, 2, 2, 24, 8
1, 247680, Tempo, 1764706
1, 248400, Time_signature, 4, 2, 24, 8
1, 248400, Tempo, 1111111
1, 269280, Tempo, 1111111
1, 269311, Tempo, 1127820
1, 269342, Tempo, 1145038
1, 269373, Tempo, 1163016
1, 269404, Tempo, 1181335
1, 269435, Tempo, 1200240
1, 269466, Tempo, 1219760
1, 269497, Tempo, 1239926
1, 269528, Tempo, 1261034
1, 269559, Tempo, 1282599
1, 269589, Tempo, 1304915
1, 269621, Tempo, 1328021
1, 269651, Tempo, 1351960
1, 269682, Tempo, 1377094
1, 269713, Tempo, 1402852
1, 269744, Tempo, 1429593
1, 269775, Tempo, 1457372
1, 269820, Tempo, 1500000
1, 270000, Tempo, 1111111
1, 271440, Time_signature, 5, 2, 24, 8
1, 271440, Tempo, 1111111
1, 271491, Tempo, 1128032
1, 271541, Tempo, 1145475
1, 271592, Tempo, 1163467
1, 271643, Tempo, 1182033
1, 271693, Tempo, 1200961
1, 271744, Tempo, 1220753
1, 271794, Tempo, 1241208
1, 271845, Tempo, 1262361
1, 271896, Tempo, 1284247
1, 271946, Tempo, 1306905
1, 271997, Tempo, 1330377
1, 272048, Tempo, 1354708
1, 272098, Tempo, 1379945
1, 272149, Tempo, 1406140
1, 272199, Tempo, 1433007
1, 272250, Tempo, 1461276
1, 272316, Tempo, 1500000
1, 272790, Tempo, 5000000
1, 272880, Tempo, 1500000
1, 273240, Time_signature, 4, 2, 24, 8
1, 273240, Tempo, 1111111
1, 274140, Tempo, 1111111
1, 274234, Tempo, 1128032
1, 274329, Tempo, 1145694
1, 274423, Tempo, 1163693
1, 274517, Tempo, 1182499
1, 274706, Tempo, 1221747
1, 274800, Tempo, 1242236
1, 274894, Tempo, 1263424
1, 274988, Tempo, 1285622
1, 275082, Tempo, 1308330
1, 275177, Tempo, 1332149
1, 275271, Tempo, 1356545
1, 275365, Tempo, 1382170
1, 275459, Tempo, 1408451
1, 275553, Tempo, 1435750
1, 275648, Tempo, 1464486
1, 275760, Tempo, 1500000
1, 276120, Tempo, 1111111
1, 277560, Time_signature, 5, 2, 24, 8
1, 277560, Tempo, 1111111
1, 277618, Tempo, 1128032
1, 277676, Tempo, 1145257
1, 277733, Tempo, 1163242
1, 277791, Tempo, 1181800
1, 277848, Tempo, 1200961
1, 277906, Tempo, 1220504
1, 277964, Tempo, 1240951
1, 278021, Tempo, 1262095
1, 278079, Tempo, 1283972
1, 278137, Tempo, 1306336
1, 278194, Tempo, 1329787
1, 278252, Tempo, 1354096
1, 278310, Tempo, 1379310
1, 278367, Tempo, 1405152
1, 278425, Tempo, 1432323
1, 278483, Tempo, 1460565
1, 278560, Tempo, 1500000
1, 278910, Tempo, 5000000
1, 279000, Tempo, 1500000
1, 279360, Time_signature, 4, 2, 24, 8
1, 279360, Tempo, 1111111
1, 280799, Tempo, 833333
1, 280800, Key_signature, 3, "major"
1, 292320, Tempo, 789474
1, 303839, Tempo, 681818
1, 321840, Tempo, 666667
1, 322560, Tempo, 652174
1, 323280, Tempo, 638298
1, 324000, Tempo, 625000
1, 324720, Tempo, 612245
1, 325440, Tempo, 600000
1, 326160, Tempo, 588235
1, 326880, Tempo, 576923
1, 338400, Tempo, 555556
1, 349920, Tempo, 535714
1, 356400, Tempo, 530973
1, 357120, Tempo, 526316
1, 357840, Tempo, 521739
1, 358560, Tempo, 517241
1, 359280, Tempo, 512821
1, 360000, Tempo, 508475
1, 360720, Tempo, 504202
1, 361440, Tempo, 500000
1, 372960, Tempo, 476190
1, 384480, Tempo, 454545
1, 397440, Time_signature, 2, 2, 24, 8
1, 398160, Time_signature, 4, 2, 24, 8
1, 402480, Time_signature, 2, 2, 24, 8
1, 403200, Time_signature, 4, 2, 24, 8
1, 413280, Key_signature, 1, "major"
1, 413280, Tempo, 434783
1, 455040, Time_signature, 2, 2, 24, 8
1, 455760, Time_signature, 4, 2, 24, 8
1, 460080, Time_signature, 2, 2, 24, 8
1, 460800, Time_signature, 4, 2, 24, 8
1, 469440, Tempo, 416667
1, 498240, Tempo, 394737
1, 531360, Tempo, 384615
1, 560160, Key_signature, 4, "major"
1, 560160, Tempo, 375000
1, 571679, Tempo, 365854
1, 587430, Tempo, 5000000
1, 587520, Tempo, 365854
1, 590400, Tempo, 1071429
1, 592200, Tempo, 1071429
1, 592252, Tempo, 1087153
1, 592304, Tempo, 1103347
1, 592356, Tempo, 1120030
1, 592408, Tempo, 1137225
1, 592460, Tempo, 1154957
1, 592512, Tempo, 1173250
1, 592564, Tempo, 1192132
1, 592616, Tempo, 1211876
1, 592668, Tempo, 1232033
1, 592721, Tempo, 1252871
1, 592772, Tempo, 1274427
1, 592824, Tempo, 1296737
1, 592877, Tempo, 1319842
1, 592929, Tempo, 1343785
1, 592980, Tempo, 1368613
1, 593033, Tempo, 1394376
1, 593099, Tempo, 1428571
1, 593100, Tempo, 5000000
1, 593190, Tempo, 5000000
1, 593280, Time_signature, 1, 2, 24, 8
1, 593280, Tempo, 1428571
1, 593640, Time_signature, 2, 2, 24, 8
1, 593640, Tempo, 340909
1, 594000, Tempo, 340909
1, 604350, Tempo, 5000000
1, 604440, Tempo, 340909
1, 604440, End_track
2, 0, Start_track
2, 0, Title_t, "Primo"
2, 0, Program_c, 0, 0
2, 0, Control_c, 0, 7, 105
2, 0, Control_c, 0, 10, 51
2, 0, Control_c, 0, 91, 60
2, 0, Control_c, 0, 121, 0
2, 0, Control_c, 0, 121, 0
2, 0, Control_c, 0, 91, 60
2, 0, Control_c, 0, 10, 51
2, 0, Control_c, 0, 7, 100
2, 46080, Note_on_c, 0, 67, 70
2, 46080, Note_on_c, 0, 59, 66
2, 46800, Note_on_c, 0, 59, 0
2, 46800, Note_on_c, 0, 67, 0
2, 46800, Note_on_c, 0, 66, 78
2, 46800, Note_on_c, 0, 62, 74
2, 47160, Note_on_c, 0, 66, 0
2, 47160, Note_on_c, 0, 62, 93
2, 47520, Note_on_c, 0, 62, 0
2, 47520, Note_on_c, 0, 62, 0
2, 47520, Note_on_c, 0, 64, 122
2, 47520, Note_on_c, 0, 57, 67
2, 47699, Note_on_c, 0, 64, 0
2, 47880, Note_on_c, 0, 64, 104
2, 50040, Note_on_c, 0, 64, 0
2, 50040, Note_on_c, 0, 57, 0
2, 50400, Note_on_c, 0, 67, 68
2, 50400, Note_on_c, 0, 59, 56
2, 51120, Note_on_c, 0, 59, 0
2, 51120, Note_on_c, 0, 67, 0
2, 51120, Note_on_c, 0, 66, 78
2, 51120, Note_on_c, 0, 62, 81
2, 51480, Note_on_c, 0, 66, 0
2, 51480, Note_on_c, 0, 62, 93
2, 51840, Note_on_c, 0, 62, 0
2, 51840, Note_on_c, 0, 62, 0
2, 51840, Note_on_c, 0, 64, 122
2, 51840, Note_on_c, 0, 60, 64
2, 52019, Note_on_c, 0, 64, 0
2, 52200, Note_on_c, 0, 64, 104
2, 54360, Note_on_c, 0, 64, 0
2, 54360, Note_on_c, 0, 60, 0
2, 54720, Note_on_c, 0, 71, 72
2, 54720, Note_on_c, 0, 62, 62
2, 55440, Note_on_c, 0, 62, 0
2, 55440, Note_on_c, 0, 71, 0
2, 55440, Note_on_c, 0, 69, 78
2, 55440, Note_on_c, 0, 66, 71
2, 55980, Note_on_c, 0, 69, 0
2, 55980, Note_on_c, 0, 66, 104
2, 56160, Note_on_c, 0, 66, 0
2, 56160, Note_on_c, 0, 66, 0
2, 56160, Note_on_c, 0, 67, 122
2, 56160, Note_on_c, 0, 60, 57
2, 56339, Note_on_c, 0, 67, 0
2, 56520, Note_on_c, 0, 67, 104
2, 58680, Note_on_c, 0, 67, 0
2, 58680, Note_on_c, 0, 60, 0
2, 59040, Note_on_c, 0, 71, 72
2, 59040, Note_on_c, 0, 62, 66
2, 59760, Note_on_c, 0, 62, 0
2, 59760, Note_on_c, 0, 71, 0
2, 59760, Note_on_c, 0, 69, 78
2, 59760, Note_on_c, 0, 66, 77
2, 60300, Note_on_c, 0, 69, 0
2, 60300, Note_on_c, 0, 66, 104
2, 60480, Note_on_c, 0, 66, 0
2, 60480, Note_on_c, 0, 66, 0
2, 60480, Note_on_c, 0, 67, 122
2, 60480, Note_on_c, 0, 64, 65
2, 60659, Note_on_c, 0, 67, 0
2, 60840, Note_on_c, 0, 67, 104
2, 63000, Note_on_c, 0, 67, 0
2, 63000, Note_on_c, 0, 64, 0
2, 63360, Note_on_c, 0, 72, 108
2, 63360, Note_on_c, 0, 76, 108
2, 63360, Note_on_c, 0, 60, 110
2, 63360, Note_on_c, 0, 67, 110
2, 63720, Note_on_c, 0, 67, 0
2, 63720, Note_on_c, 0, 72, 0
2, 63720, Note_on_c, 0, 76, 0
2, 63720, Note_on_c, 0, 60, 0
2, 63720, Note_on_c, 0, 71, 109
2, 63720, Note_on_c, 0, 74, 109
2, 63720, Note_on_c, 0, 62, 115
2, 63720, Note_on_c, 0, 67, 115
2, 64080, Note_on_c, 0, 67, 0
2, 64080, Note_on_c, 0, 71, 0
2, 64080, Note_on_c, 0, 74, 0
2, 64080, Note_on_c, 0, 62, 0
2, 64080, Note_on_c, 0, 72, 84
2, 64080, Note_on_c, 0, 64, 90
2, 64080, Note_on_c, 0, 67, 90
2, 64169, Note_on_c, 0, 67, 0
2, 64169, Note_on_c, 0, 64, 0
2, 64169, Note_on_c, 0, 72, 0
2, 64260, Note_on_c, 0, 72, 117
2, 64260, Note_on_c, 0, 64, 120
2, 64260, Note_on_c, 0, 67, 120
2, 64620, Note_on_c, 0, 67, 0
2, 64620, Note_on_c, 0, 64, 0
2, 64620, Note_on_c, 0, 72, 0
2, 64620, Note_on_c, 0, 71, 120
2, 64620, Note_on_c, 0, 74, 120
2, 64620, Note_on_c, 0, 62, 119
2, 64620, Note_on_c, 0, 67, 119
2, 64800, Note_on_c, 0, 67, 0
2, 64800, Note_on_c, 0, 71, 0
2, 64800, Note_on_c, 0, 74, 0
2, 64800, Note_on_c, 0, 62, 0
2, 64800, Note_on_c, 0, 72, 122
2, 64800, Note_on_c, 0, 76, 122
2, 64800, Note_on_c, 0, 60, 120
2, 64800, Note_on_c, 0, 67, 120
2, 64980, Note_on_c, 0, 76, 0
2, 64980, Note_on_c, 0, 72, 0
2, 64980, Note_on_c, 0, 72, 81
2, 65160, Note_on_c, 0, 72, 0
2, 65160, Note_on_c, 0, 60, 0
2, 65160, Note_on_c, 0, 67, 0
2, 65160, Note_on_c, 0, 71, 121
2, 65160, Note_on_c, 0, 74, 121
2, 65160, Note_on_c, 0, 62, 115
2, 65160, Note_on_c, 0, 67, 115
2, 65430, Note_on_c, 0, 74, 0
2, 65430, Note_on_c, 0, 71, 0
2, 65430, Note_on_c, 0, 71, 112
2, 65520, Note_on_c, 0, 71, 0
2, 65520, Note_on_c, 0, 62, 0
2, 65520, Note_on_c, 0, 67, 0
2, 65520, Note_on_c, 0, 72, 96
2, 65520, Note_on_c, 0, 64, 94
2, 65520, Note_on_c, 0, 67, 94
2, 65609, Note_on_c, 0, 67, 0
2, 65609, Note_on_c, 0, 64, 0
2, 65609, Note_on_c, 0, 72, 0
2, 65700, Note_on_c, 0, 72, 116
2, 65700, Note_on_c, 0, 64, 117
2, 65700, Note_on_c, 0, 67, 117
2, 66240, Note_on_c, 0, 67, 0
2, 66240, Note_on_c, 0, 64, 0
2, 66240, Note_on_c, 0, 72, 0
2, 66240, Note_on_c, 0, 76, 122
2, 66240, Note_on_c, 0, 79, 122
2, 66240, Note_on_c, 0, 67, 122
2, 66240, Note_on_c, 0, 72, 122
2, 66600, Note_on_c, 0, 72, 0
2, 66600, Note_on_c, 0, 76, 0
2, 66600, Note_on_c, 0, 79, 0
2, 66600, Note_on_c, 0, 67, 0
2, 66600, Note_on_c, 0, 74, 114
2, 66600, Note_on_c, 0, 78, 114
2, 66600, Note_on_c, 0, 66, 113
2, 66600, Note_on_c, 0, 69, 113
2, 66960, Note_on_c, 0, 69, 0
2, 66960, Note_on_c, 0, 74, 0
2, 66960, Note_on_c, 0, 78, 0
2, 66960, Note_on_c, 0, 66, 0
2, 66960, Note_on_c, 0, 76, 86
2, 66960, Note_on_c, 0, 67, 97
2, 66960, Note_on_c, 0, 72, 97
2, 67049, Note_on_c, 0, 72, 0
2, 67049, Note_on_c, 0, 67, 0
2, 67049, Note_on_c, 0, 76, 0
2, 67140, Note_on_c, 0, 76, 116
2, 67140, Note_on_c, 0, 67, 116
2, 67140, Note_on_c, 0, 72, 116
2, 67500, Note_on_c, 0, 72, 0
2, 67500, Note_on_c, 0, 67, 0
2, 67500, Note_on_c, 0, 76, 0
2, 67500, Note_on_c, 0, 74, 122
2, 67500, Note_on_c, 0, 78, 122
2, 67500, Note_on_c, 0, 66, 111
2, 67500, Note_on_c, 0, 69, 111
2, 67680, Note_on_c, 0, 69, 0
2, 67680, Note_on_c, 0, 74, 0
2, 67680, Note_on_c, 0, 78, 0
2, 67680, Note_on_c, 0, 66, 0
2, 67680, Note_on_c, 0, 76, 122
2, 67680, Note_on_c, 0, 79, 122
2, 67680, Note_on_c, 0, 67, 122
2, 67680, Note_on_c, 0, 72, 122
2, 67860, Note_on_c, 0, 79, 0
2, 67860, Note_on_c, 0, 76, 0
2, 67860, Note_on_c, 0, 76, 83
2, 68040, Note_on_c, 0, 76, 0
2, 68040, Note_on_c, 0, 67, 0
2, 68040, Note_on_c, 0, 72, 0
2, 68040, Note_on_c, 0, 74, 122
2, 68040, Note_on_c, 0, 78, 122
2, 68040, Note_on_c, 0, 66, 109
2, 68040, Note_on_c, 0, 69, 109
2, 68310, Note_on_c, 0, 78, 0
2, 68310, Note_on_c, 0, 74, 0
2, 68310, Note_on_c, 0, 74, 106
2, 68400, Note_on_c, 0, 74, 0
2, 68400, Note_on_c, 0, 66, 0
2, 68400, Note_on_c, 0, 69, 0
2, 68400, Note_on_c, 0, 76, 95
2, 68400, Note_on_c, 0, 67, 103
2, 68400, Note_on_c, 0, 72, 103
2, 68489, Note_on_c, 0, 72, 0
2, 68489, Note_on_c, 0, 67, 0
2, 68489, Note_on_c, 0, 76, 0
2, 68580, Note_on_c, 0, 76, 114
2, 68580, Note_on_c, 0, 67, 122
2, 68580, Note_on_c, 0, 72, 122
2, 69120, Note_on_c, 0, 72, 0
2, 69120, Note_on_c, 0, 67, 0
2, 69120, Note_on_c, 0, 76, 0
2, 69120, Note_on_c, 0, 74, 122
2, 69120, Note_on_c, 0, 79, 122
2, 69120, Note_on_c, 0, 83, 122
2, 69120, Note_on_c, 0, 67, 122
2, 69120, Note_on_c, 0, 71, 122
2, 69480, Note_on_c, 0, 71, 0
2, 69480, Note_on_c, 0, 83, 0
2, 69480, Note_on_c, 0, 74, 0
2, 69480, Note_on_c, 0, 79, 0
2, 69480, Note_on_c, 0, 67, 0
2, 69480, Note_on_c, 0, 74, 122
2, 69480, Note_on_c, 0, 78, 122
2, 69480, Note_on_c, 0, 81, 122
2, 69480, Note_on_c, 0, 66, 122
2, 69480, Note_on_c, 0, 69, 122
2, 69750, Note_on_c, 0, 81, 0
2, 69750, Note_on_c, 0, 74, 0
2, 69750, Note_on_c, 0, 78, 0
2, 69750, Note_on_c, 0, 78, 119
2, 69840, Note_on_c, 0, 78, 0
2, 69840, Note_on_c, 0, 66, 0
2, 69840, Note_on_c, 0, 69, 0
2, 69840, Note_on_c, 0, 74, 112
2, 69840, Note_on_c, 0, 79, 112
2, 69840, Note_on_c, 0, 67, 100
2, 69929, Note_on_c, 0, 67, 0
2, 69929, Note_on_c, 0, 79, 0
2, 69929, Note_on_c, 0, 74, 0
2, 70020, Note_on_c, 0, 74, 122
2, 70020, Note_on_c, 0, 79, 122
2, 70020, Note_on_c, 0, 67, 122
2, 70560, Note_on_c, 0, 67, 0
2, 70560, Note_on_c, 0, 79, 0
2, 70560, Note_on_c, 0, 74, 0
2, 70560, Note_on_c, 0, 78, 122
2, 70560, Note_on_c, 0, 83, 122
2, 70560, Note_on_c, 0, 86, 122
2, 70560, Note_on_c, 0, 71, 122
2, 70560, Note_on_c, 0, 74, 122
2, 70920, Note_on_c, 0, 74, 0
2, 70920, Note_on_c, 0, 86, 0
2, 70920, Note_on_c, 0, 78, 0
2, 70920, Note_on_c, 0, 83, 0
2, 70920, Note_on_c, 0, 71, 0
2, 70920, Note_on_c, 0, 76, 122
2, 70920, Note_on_c, 0, 81, 122
2, 70920, Note_on_c, 0, 84, 122
2, 70920, Note_on_c, 0, 69, 122
2, 70920, Note_on_c, 0, 72, 122
2, 71190, Note_on_c, 0, 84, 0
2, 71190, Note_on_c, 0, 76, 0
2, 71190, Note_on_c, 0, 81, 0
2, 71190, Note_on_c, 0, 81, 122
2, 71280, Note_on_c, 0, 81, 0
2, 71280, Note_on_c, 0, 69, 0
2, 71280, Note_on_c, 0, 72, 0
2, 71280, Note_on_c, 0, 78, 114
2, 71280, Note_on_c, 0, 83, 114
2, 71280, Note_on_c, 0, 71, 114
2, 71280, Note_on_c, 0, 74, 114
2, 71369, Note_on_c, 0, 74, 0
2, 71369, Note_on_c, 0, 78, 0
2, 71369, Note_on_c, 0, 83, 0
2, 71369, Note_on_c, 0, 71, 0
2, 71460, Note_on_c, 0, 78, 122
2, 71460, Note_on_c, 0, 83, 122
2, 71460, Note_on_c, 0, 71, 122
2, 71460, Note_on_c, 0, 74, 122
2, 72000, Note_on_c, 0, 74, 0
2, 72000, Note_on_c, 0, 78, 0
2, 72000, Note_on_c, 0, 83, 0
2, 72000, Note_on_c, 0, 71, 0
2, 72000, Note_on_c, 0, 88, 120
2, 72000, Note_on_c, 0, 91, 120
2, 72000, Note_on_c, 0, 76, 122
2, 72000, Note_on_c, 0, 79, 122
2, 72360, Note_on_c, 0, 79, 0
2, 72360, Note_on_c, 0, 88, 0
2, 72360, Note_on_c, 0, 91, 0
2, 72360, Note_on_c, 0, 76, 0
2, 72360, Note_on_c, 0, 90, 122
2, 72360, Note_on_c, 0, 78, 122
2, 72630, Note_on_c, 0, 78, 0
2, 72630, Note_on_c, 0, 90, 0
2, 72630, Note_on_c, 0, 87, 95
2, 72630, Note_on_c, 0, 75, 96
2, 72720, Note_on_c, 0, 75, 0
2, 72720, Note_on_c, 0, 87, 0
2, 72720, Note_on_c, 0, 85, 114
2, 72720, Note_on_c, 0, 88, 114
2, 72720, Note_on_c, 0, 73, 107
2, 72720, Note_on_c, 0, 76, 107
2, 72809, Note_on_c, 0, 76, 0
2, 72809, Note_on_c, 0, 85, 0
2, 72809, Note_on_c, 0, 88, 0
2, 72809, Note_on_c, 0, 73, 0
2, 72900, Note_on_c, 0, 85, 122
2, 72900, Note_on_c, 0, 88, 122
2, 72900, Note_on_c, 0, 73, 122
2, 72900, Note_on_c, 0, 76, 122
2, 73260, Note_on_c, 0, 76, 0
2, 73260, Note_on_c, 0, 85, 0
2, 73260, Note_on_c, 0, 88, 0
2, 73260, Note_on_c, 0, 73, 0
2, 73260, Note_on_c, 0, 90, 122
2, 73260, Note_on_c, 0, 78, 122
2, 73440, Note_on_c, 0, 78, 0
2, 73440, Note_on_c, 0, 90, 0
2, 73440, Note_on_c, 0, 88, 122
2, 73440, Note_on_c, 0, 91, 122
2, 73440, Note_on_c, 0, 76, 122
2, 73440, Note_on_c, 0, 79, 122
2, 73620, Note_on_c, 0, 79, 0
2, 73620, Note_on_c, 0, 88, 0
2, 73620, Note_on_c, 0, 91, 0
2, 73620, Note_on_c, 0, 76, 0
2, 73620, Note_on_c, 0, 88, 122
2, 73620, Note_on_c, 0, 76, 122
2, 73800, Note_on_c, 0, 76, 0
2, 73800, Note_on_c, 0, 88, 0
2, 73800, Note_on_c, 0, 90, 122
2, 73800, Note_on_c, 0, 78, 122
2, 74070, Note_on_c, 0, 78, 0
2, 74070, Note_on_c, 0, 90, 0
2, 74070, Note_on_c, 0, 87, 102
2, 74070, Note_on_c, 0, 75, 98
2, 74160, Note_on_c, 0, 75, 0
2, 74160, Note_on_c, 0, 87, 0
2, 74160, Note_on_c, 0, 85, 113
2, 74160, Note_on_c, 0, 88, 113
2, 74160, Note_on_c, 0, 73, 111
2, 74160, Note_on_c, 0, 76, 111
2, 74249, Note_on_c, 0, 76, 0
2, 74249, Note_on_c, 0, 85, 0
2, 74249, Note_on_c, 0, 88, 0
2, 74249, Note_on_c, 0, 73, 0
2, 74340, Note_on_c, 0, 85, 104
2, 74340, Note_on_c, 0, 88, 104
2, 74340, Note_on_c, 0, 73, 108
2, 74340, Note_on_c, 0, 76, 108
2, 74429, Note_on_c, 0, 76, 0
2, 74429, Note_on_c, 0, 85, 0
2, 74429, Note_on_c, 0, 88, 0
2, 74429, Note_on_c, 0, 73, 0
2, 74520, Note_on_c, 0, 91, 115
2, 74520, Note_on_c, 0, 79, 116
2, 74610, Note_on_c, 0, 79, 0
2, 74610, Note_on_c, 0, 91, 0
2, 74610, Note_on_c, 0, 90, 103
2, 74610, Note_on_c, 0, 78, 101
2, 74700, Note_on_c, 0, 78, 0
2, 74700, Note_on_c, 0, 90, 0
2, 74700, Note_on_c, 0, 91, 111
2, 74700, Note_on_c, 0, 79, 116
2, 74790, Note_on_c, 0, 79, 0
2, 74790, Note_on_c, 0, 91, 0
2, 74790, Note_on_c, 0, 93, 115
2, 74790, Note_on_c, 0, 81, 121
2, 74880, Note_on_c, 0, 81, 0
2, 74880, Note_on_c, 0, 93, 0
2, 74880, Note_on_c, 0, 91, 122
2, 74880, Note_on_c, 0, 94, 122
2, 74880, Note_on_c, 0, 79, 122
2, 74880, Note_on_c, 0, 82, 122
2, 75240, Note_on_c, 0, 82, 0
2, 75240, Note_on_c, 0, 91, 0
2, 75240, Note_on_c, 0, 94, 0
2, 75240, Note_on_c, 0, 79, 0
2, 75240, Note_on_c, 0, 93, 122
2, 75240, Note_on_c, 0, 81, 122
2, 75510, Note_on_c, 0, 81, 0
2, 75510, Note_on_c, 0, 93, 0
2, 75510, Note_on_c, 0, 90, 98
2, 75510, Note_on_c, 0, 78, 94
2, 75600, Note_on_c, 0, 78, 0
2, 75600, Note_on_c, 0, 90, 0
2, 75600, Note_on_c, 0, 88, 112
2, 75600, Note_on_c, 0, 91, 112
2, 75600, Note_on_c, 0, 76, 111
2, 75600, Note_on_c, 0, 79, 111
2, 75689, Note_on_c, 0, 79, 0
2, 75689, Note_on_c, 0, 88, 0
2, 75689, Note_on_c, 0, 91, 0
2, 75689, Note_on_c, 0, 76, 0
2, 75780, Note_on_c, 0, 88, 122
2, 75780, Note_on_c, 0, 91, 122
2, 75780, Note_on_c, 0, 76, 122
2, 75780, Note_on_c, 0, 79, 122
2, 76140, Note_on_c, 0, 79, 0
2, 76140, Note_on_c, 0, 88, 0
2, 76140, Note_on_c, 0, 91, 0
2, 76140, Note_on_c, 0, 76, 0
2, 76140, Note_on_c, 0, 93, 122
2, 76140, Note_on_c, 0, 81, 122
2, 76320, Note_on_c, 0, 81, 0
2, 76320, Note_on_c, 0, 93, 0
2, 76320, Note_on_c, 0, 91, 122
2, 76320, Note_on_c, 0, 94, 122
2, 76320, Note_on_c, 0, 79, 122
2, 76320, Note_on_c, 0, 82, 122
2, 76500, Note_on_c, 0, 82, 0
2, 76500, Note_on_c, 0, 91, 0
2, 76500, Note_on_c, 0, 94, 0
2, 76500, Note_on_c, 0, 79, 0
2, 76500, Note_on_c, 0, 91, 122
2, 76500, Note_on_c, 0, 79, 122
2, 76680, Note_on_c, 0, 79, 0
2, 76680, Note_on_c, 0, 91, 0
2, 76680, Note_on_c, 0, 93, 122
2, 76680, Note_on_c, 0, 81, 122
2, 76950, Note_on_c, 0, 81, 0
2, 76950, Note_on_c, 0, 93, 0
2, 76950, Note_on_c, 0, 90, 96
2, 76950, Note_on_c, 0, 78, 98
2, 77040, Note_on_c, 0, 78, 0
2, 77040, Note_on_c, 0, 90, 0
2, 77040, Note_on_c, 0, 88, 113
2, 77040, Note_on_c, 0, 91, 113
2, 77040, Note_on_c, 0, 76, 110
2, 77040, Note_on_c, 0, 79, 110
2, 77129, Note_on_c, 0, 79, 0
2, 77129, Note_on_c, 0, 88, 0
2, 77129, Note_on_c, 0, 91, 0
2, 77129, Note_on_c, 0, 76, 0
2, 77220, Note_on_c, 0, 88, 113
2, 77220, Note_on_c, 0, 91, 113
2, 77220, Note_on_c, 0, 76, 104
2, 77220, Note_on_c, 0, 79, 104
2, 77309, Note_on_c, 0, 79, 0
2, 77309, Note_on_c, 0, 88, 0
2, 77309, Note_on_c, 0, 91, 0
2, 77309, Note_on_c, 0, 76, 0
2, 77400, Note_on_c, 0, 91, 110
2, 77400, Note_on_c, 0, 79, 110
2, 77490, Note_on_c, 0, 79, 0
2, 77490, Note_on_c, 0, 91, 0
2, 77490, Note_on_c, 0, 90, 108
2, 77490, Note_on_c, 0, 78, 99
2, 77580, Note_on_c, 0, 78, 0
2, 77580, Note_on_c, 0, 90, 0
2, 77580, Note_on_c, 0, 91, 110
2, 77580, Note_on_c, 0, 79, 113
2, 77670, Note_on_c, 0, 79, 0
2, 77670, Note_on_c, 0, 91, 0
2, 77670, Note_on_c, 0, 93, 117
2, 77670, Note_on_c, 0, 81, 113
2, 77760, Note_on_c, 0, 81, 0
2, 77760, Note_on_c, 0, 93, 0
2, 77760, Note_on_c, 0, 91, 122
2, 77760, Note_on_c, 0, 95, 122
2, 77760, Note_on_c, 0, 79, 122
2, 77760, Note_on_c, 0, 83, 122
2, 78120, Note_on_c, 0, 83, 0
2, 78120, Note_on_c, 0, 91, 0
2, 78120, Note_on_c, 0, 95, 0
2, 78120, Note_on_c, 0, 79, 0
2, 78120, Note_on_c, 0, 90, 122
2, 78120, Note_on_c, 0, 93, 122
2, 78120, Note_on_c, 0, 78, 122
2, 78120, Note_on_c, 0, 81, 122
2, 78390, Note_on_c, 0, 81, 0
2, 78390, Note_on_c, 0, 90, 0
2, 78390, Note_on_c, 0, 93, 0
2, 78390, Note_on_c, 0, 78, 0
2, 78390, Note_on_c, 0, 91, 122
2, 78390, Note_on_c, 0, 95, 122
2, 78390, Note_on_c, 0, 79, 122
2, 78390, Note_on_c, 0, 83, 122
2, 78480, Note_on_c, 0, 83, 0
2, 78480, Note_on_c, 0, 91, 0
2, 78480, Note_on_c, 0, 95, 0
2, 78480, Note_on_c, 0, 79, 0
2, 78480, Note_on_c, 0, 90, 122
2, 78480, Note_on_c, 0, 93, 122
2, 78480, Note_on_c, 0, 78, 122
2, 78480, Note_on_c, 0, 81, 122
2, 78569, Note_on_c, 0, 81, 0
2, 78569, Note_on_c, 0, 90, 0
2, 78569, Note_on_c, 0, 93, 0
2, 78569, Note_on_c, 0, 78, 0
2, 78660, Note_on_c, 0, 88, 122
2, 78660, Note_on_c, 0, 91, 122
2, 78660, Note_on_c, 0, 76, 122
2, 78660, Note_on_c, 0, 79, 122
2, 79020, Note_on_c, 0, 79, 0
2, 79020, Note_on_c, 0, 88, 0
2, 79020, Note_on_c, 0, 91, 0
2, 79020, Note_on_c, 0, 76, 0
2, 79020, Note_on_c, 0, 90, 122
2, 79020, Note_on_c, 0, 93, 122
2, 79020, Note_on_c, 0, 78, 122
2, 79020, Note_on_c, 0, 81, 122
2, 79200, Note_on_c, 0, 81, 0
2, 79200, Note_on_c, 0, 90, 0
2, 79200, Note_on_c, 0, 93, 0
2, 79200, Note_on_c, 0, 78, 0
2, 79200, Note_on_c, 0, 91, 122
2, 79200, Note_on_c, 0, 95, 122
2, 79200, Note_on_c, 0, 79, 122
2, 79200, Note_on_c, 0, 83, 122
2, 79380, Note_on_c, 0, 83, 0
2, 79380, Note_on_c, 0, 91, 0
2, 79380, Note_on_c, 0, 95, 0
2, 79380, Note_on_c, 0, 79, 0
2, 79380, Note_on_c, 0, 88, 108
2, 79380, Note_on_c, 0, 91, 108
2, 79380, Note_on_c, 0, 76, 110
2, 79380, Note_on_c, 0, 79, 110
2, 79560, Note_on_c, 0, 79, 0
2, 79560, Note_on_c, 0, 88, 0
2, 79560, Note_on_c, 0, 91, 0
2, 79560, Note_on_c, 0, 76, 0
2, 79560, Note_on_c, 0, 90, 122
2, 79560, Note_on_c, 0, 93, 122
2, 79560, Note_on_c, 0, 78, 122
2, 79560, Note_on_c, 0, 81, 122
2, 79830, Note_on_c, 0, 81, 0
2, 79830, Note_on_c, 0, 90, 0
2, 79830, Note_on_c, 0, 93, 0
2, 79830, Note_on_c, 0, 78, 0
2, 79830, Note_on_c, 0, 90, 122
2, 79830, Note_on_c, 0, 93, 122
2, 79830, Note_on_c, 0, 78, 122
2, 79830, Note_on_c, 0, 81, 122
2, 79920, Note_on_c, 0, 81, 0
2, 79920, Note_on_c, 0, 90, 0
2, 79920, Note_on_c, 0, 93, 0
2, 79920, Note_on_c, 0, 78, 0
2, 79920, Note_on_c, 0, 90, 122
2, 79920, Note_on_c, 0, 93, 122
2, 79920, Note_on_c, 0, 78, 122
2, 79920, Note_on_c, 0, 81, 122
2, 80009, Note_on_c, 0, 81, 0
2, 80009, Note_on_c, 0, 90, 0
2, 80009, Note_on_c, 0, 93, 0
2, 80009, Note_on_c, 0, 78, 0
2, 80100, Note_on_c, 0, 88, 122
2, 80100, Note_on_c, 0, 91, 122
2, 80100, Note_on_c, 0, 76, 122
2, 80100, Note_on_c, 0, 79, 122
2, 80640, Note_on_c, 0, 79, 0
2, 80640, Note_on_c, 0, 88, 0
2, 80640, Note_on_c, 0, 91, 0
2, 80640, Note_on_c, 0, 76, 0
2, 80640, Note_on_c, 0, 79, 122
2, 80640, Note_on_c, 0, 83, 122
2, 80640, Note_on_c, 0, 67, 107
2, 80640, Note_on_c, 0, 71, 107
2, 81000, Note_on_c, 0, 71, 0
2, 81000, Note_on_c, 0, 79, 0
2, 81000, Note_on_c, 0, 83, 0
2, 81000, Note_on_c, 0, 67, 0
2, 81000, Note_on_c, 0, 78, 122
2, 81000, Note_on_c, 0, 81, 122
2, 81000, Note_on_c, 0, 66, 121
2, 81000, Note_on_c, 0, 69, 121
2, 81270, Note_on_c, 0, 69, 0
2, 81270, Note_on_c, 0, 78, 0
2, 81270, Note_on_c, 0, 81, 0
2, 81270, Note_on_c, 0, 66, 0
2, 81270, Note_on_c, 0, 79, 122
2, 81270, Note_on_c, 0, 83, 122
2, 81270, Note_on_c, 0, 67, 122
2, 81270, Note_on_c, 0, 71, 122
2, 81360, Note_on_c, 0, 71, 0
2, 81360, Note_on_c, 0, 79, 0
2, 81360, Note_on_c, 0, 83, 0
2, 81360, Note_on_c, 0, 67, 0
2, 81360, Note_on_c, 0, 78, 122
2, 81360, Note_on_c, 0, 81, 122
2, 81360, Note_on_c, 0, 66, 122
2, 81360, Note_on_c, 0, 69, 122
2, 81449, Note_on_c, 0, 69, 0
2, 81449, Note_on_c, 0, 78, 0
2, 81449, Note_on_c, 0, 81, 0
2, 81449, Note_on_c, 0, 66, 0
2, 81540, Note_on_c, 0, 76, 122
2, 81540, Note_on_c, 0, 79, 122
2, 81540, Note_on_c, 0, 64, 122
2, 81540, Note_on_c, 0, 67, 122
2, 81900, Note_on_c, 0, 67, 0
2, 81900, Note_on_c, 0, 76, 0
2, 81900, Note_on_c, 0, 79, 0
2, 81900, Note_on_c, 0, 64, 0
2, 81900, Note_on_c, 0, 78, 122
2, 81900, Note_on_c, 0, 81, 122
2, 81900, Note_on_c, 0, 66, 122
2, 81900, Note_on_c, 0, 69, 122
2, 82080, Note_on_c, 0, 69, 0
2, 82080, Note_on_c, 0, 78, 0
2, 82080, Note_on_c, 0, 81, 0
2, 82080, Note_on_c, 0, 66, 0
2, 82080, Note_on_c, 0, 79, 122
2, 82080, Note_on_c, 0, 83, 122
2, 82080, Note_on_c, 0, 67, 122
2, 82080, Note_on_c, 0, 71, 122
2, 82260, Note_on_c, 0, 71, 0
2, 82260, Note_on_c, 0, 79, 0
2, 82260, Note_on_c, 0, 83, 0
2, 82260, Note_on_c, 0, 67, 0
2, 82260, Note_on_c, 0, 76, 93
2, 82260, Note_on_c, 0, 79, 93
2, 82260, Note_on_c, 0, 64, 99
2, 82260, Note_on_c, 0, 67, 99
2, 82440, Note_on_c, 0, 67, 0
2, 82440, Note_on_c, 0, 76, 0
2, 82440, Note_on_c, 0, 79, 0
2, 82440, Note_on_c, 0, 64, 0
2, 82440, Note_on_c, 0, 78, 122
2, 82440, Note_on_c, 0, 81, 122
2, 82440, Note_on_c, 0, 66, 122
2, 82440, Note_on_c, 0, 69, 122
2, 82710, Note_on_c, 0, 69, 0
2, 82710, Note_on_c, 0, 78, 0
2, 82710, Note_on_c, 0, 81, 0
2, 82710, Note_on_c, 0, 66, 0
2, 82710, Note_on_c, 0, 78, 122
2, 82710, Note_on_c, 0, 81, 122
2, 82710, Note_on_c, 0, 66, 122
2, 82710, Note_on_c, 0, 69, 122
2, 82800, Note_on_c, 0, 69, 0
2, 82800, Note_on_c, 0, 78, 0
2, 82800, Note_on_c, 0, 81, 0
2, 82800, Note_on_c, 0, 66, 0
2, 82800, Note_on_c, 0, 78, 122
2, 82800, Note_on_c, 0, 81, 122
2, 82800, Note_on_c, 0, 66, 122
2, 82800, Note_on_c, 0, 69, 122
2, 82889, Note_on_c, 0, 69, 0
2, 82889, Note_on_c, 0, 78, 0
2, 82889, Note_on_c, 0, 81, 0
2, 82889, Note_on_c, 0, 66, 0
2, 82980, Note_on_c, 0, 76, 122
2, 82980, Note_on_c, 0, 79, 122
2, 82980, Note_on_c, 0, 64, 122
2, 82980, Note_on_c, 0, 67, 122
2, 83520, Note_on_c, 0, 67, 0
2, 83520, Note_on_c, 0, 76, 0
2, 83520, Note_on_c, 0, 79, 0
2, 83520, Note_on_c, 0, 64, 0
2, 83520, Note_on_c, 0, 71, 95
2, 83520, Note_on_c, 0, 67, 118
2, 83880, Note_on_c, 0, 67, 0
2, 83880, Note_on_c, 0, 71, 0
2, 83880, Note_on_c, 0, 69, 83
2, 83880, Note_on_c, 0, 66, 90
2, 84150, Note_on_c, 0, 66, 0
2, 84150, Note_on_c, 0, 69, 0
2, 84150, Note_on_c, 0, 71, 98
2, 84150, Note_on_c, 0, 67, 97
2, 84240, Note_on_c, 0, 67, 0
2, 84240, Note_on_c, 0, 71, 0
2, 84240, Note_on_c, 0, 69, 87
2, 84240, Note_on_c, 0, 66, 86
2, 84420, Note_on_c, 0, 66, 0
2, 84420, Note_on_c, 0, 69, 0
2, 84420, Note_on_c, 0, 67, 84
2, 84420, Note_on_c, 0, 64, 87
2, 84960, Note_on_c, 0, 64, 0
2, 84960, Note_on_c, 0, 67, 0
2, 84960, Note_on_c, 0, 71, 111
2, 84960, Note_on_c, 0, 67, 110
2, 85320, Note_on_c, 0, 67, 0
2, 85320, Note_on_c, 0, 71, 0
2, 85320, Note_on_c, 0, 69, 77
2, 85320, Note_on_c, 0, 66, 78
2, 85590, Note_on_c, 0, 66, 0
2, 85590, Note_on_c, 0, 69, 0
2, 85590, Note_on_c, 0, 71, 86
2, 85590, Note_on_c, 0, 67, 82
2, 85680, Note_on_c, 0, 67, 0
2, 85680, Note_on_c, 0, 71, 0
2, 85680, Note_on_c, 0, 69, 75
2, 85680, Note_on_c, 0, 66, 76
2, 85860, Note_on_c, 0, 66, 0
2, 85860, Note_on_c, 0, 69, 0
2, 85860, Note_on_c, 0, 67, 74
2, 85860, Note_on_c, 0, 64, 76
2, 86400, Note_on_c, 0, 64, 0
2, 86400, Note_on_c, 0, 67, 0
2, 86400, Note_on_c, 0, 71, 64
2, 86400, Note_on_c, 0, 71, 64
2, 86400, Note_on_c, 0, 67, 66
2, 86760, Note_on_c, 0, 67, 0
2, 86760, Note_on_c, 0, 71, 0
2, 86760, Note_on_c, 0, 69, 65
2, 86760, Note_on_c, 0, 66, 52
2, 87030, Note_on_c, 0, 66, 0
2, 87030, Note_on_c, 0, 69, 0
2, 87030, Note_on_c, 0, 71, 76
2, 87030, Note_on_c, 0, 67, 59
2, 87120, Note_on_c, 0, 67, 0
2, 87120, Note_on_c, 0, 71, 0
2, 87120, Note_on_c, 0, 69, 68
2, 87120, Note_on_c, 0, 66, 52
2, 87840, Note_on_c, 0, 66, 0
2, 87840, Note_on_c, 0, 69, 0
2, 87840, Note_on_c, 0, 67, 64
2, 87840, Note_on_c, 0, 64, 54
2, 88920, Note_on_c, 0, 64, 0
2, 88920, Note_on_c, 0, 67, 0
2, 88920, Note_on_c, 0, 71, 0
2, 88920, Note_on_c, 0, 71, 57
2, 89010, Note_on_c, 0, 71, 0
2, 89010, Note_on_c, 0, 72, 57
2, 89100, Note_on_c, 0, 72, 0
2, 89100, Note_on_c, 0, 71, 53
2, 89190, Note_on_c, 0, 71, 0
2, 89190, Note_on_c, 0, 72, 59
2, 89280, Note_on_c, 0, 72, 0
2, 89280, Note_on_c, 0, 71, 44
2, 89280, Note_on_c, 0, 71, 66
2, 89280, Note_on_c, 0, 67, 42
2, 89640, Note_on_c, 0, 67, 0
2, 89640, Note_on_c, 0, 71, 0
2, 89640, Note_on_c, 0, 69, 67
2, 89640, Note_on_c, 0, 66, 42
2, 89910, Note_on_c, 0, 66, 0
2, 89910, Note_on_c, 0, 69, 0
2, 89910, Note_on_c, 0, 71, 75
2, 89910, Note_on_c, 0, 67, 50
2, 90000, Note_on_c, 0, 67, 0
2, 90000, Note_on_c, 0, 71, 0
2, 90000, Note_on_c, 0, 69, 68
2, 90000, Note_on_c, 0, 66, 40
2, 90720, Note_on_c, 0, 66, 0
2, 90720, Note_on_c, 0, 69, 0
2, 90720, Note_on_c, 0, 67, 67
2, 90720, Note_on_c, 0, 64, 40
2, 91800, Note_on_c, 0, 64, 0
2, 91800, Note_on_c, 0, 67, 0
2, 91800, Note_on_c, 0, 71, 0
2, 92160, Note_on_c, 0, 71, 32
2, 92160, Note_on_c, 0, 71, 78
2, 92160, Note_on_c, 0, 67, 33
2, 92520, Note_on_c, 0, 67, 0
2, 92520, Note_on_c, 0, 71, 0
2, 92520, Note_on_c, 0, 69, 63
2, 92520, Note_on_c, 0, 66, 39
2, 92790, Note_on_c, 0, 66, 0
2, 92790, Note_on_c, 0, 69, 0
2, 92790, Note_on_c, 0, 71, 74
2, 92790, Note_on_c, 0, 67, 40
2, 92880, Note_on_c, 0, 67, 0
2, 92880, Note_on_c, 0, 71, 0
2, 92880, Note_on_c, 0, 69, 66
2, 92880, Note_on_c, 0, 66, 32
2, 93600, Note_on_c, 0, 66, 0
2, 93600, Note_on_c, 0, 69, 0
2, 93600, Note_on_c, 0, 67, 63
2, 93600, Note_on_c, 0, 64, 34
2, 94680, Note_on_c, 0, 64, 0
2, 94680, Note_on_c, 0, 67, 0
2, 94680, Note_on_c, 0, 71, 0
2, 95040, Note_on_c, 0, 67, 70
2, 95040, Note_on_c, 0, 64, 70
2, 95760, Note_on_c, 0, 64, 0
2, 95760, Note_on_c, 0, 67, 0
2, 95760, Note_on_c, 0, 66, 73
2, 95760, Note_on_c, 0, 59, 70
2, 96480, Note_on_c, 0, 59, 0
2, 96480, Note_on_c, 0, 66, 0
2, 96480, Note_on_c, 0, 66, 76
2, 96480, Note_on_c, 0, 59, 72
2, 97920, Note_on_c, 0, 59, 0
2, 97920, Note_on_c, 0, 66, 0
2, 97920, Note_on_c, 0, 60, 88
2, 97920, Note_on_c, 0, 64, 88
2, 98640, Note_on_c, 0, 64, 0
2, 98640, Note_on_c, 0, 60, 0
2, 98640, Note_on_c, 0, 55, 77
2, 98640, Note_on_c, 0, 62, 77
2, 100080, Note_on_c, 0, 62, 0
2, 100080, Note_on_c, 0, 55, 0
2, 100080, Note_on_c, 0, 57, 70
2, 100080, Note_on_c, 0, 60, 70
2, 100800, Note_on_c, 0, 60, 0
2, 100800, Note_on_c, 0, 57, 0
2, 120960, Note_on_c, 0, 71, 82
2, 120960, Note_on_c, 0, 64, 79
2, 121277, Note_on_c, 0, 64, 0
2, 121277, Note_on_c, 0, 71, 0
2, 121320, Note_on_c, 0, 71, 92
2, 121320, Note_on_c, 0, 63, 86
2, 121953, Note_on_c, 0, 63, 0
2, 121953, Note_on_c, 0, 71, 0
2, 122040, Note_on_c, 0, 71, 78
2, 122040, Note_on_c, 0, 64, 94
2, 122357, Note_on_c, 0, 64, 0
2, 122357, Note_on_c, 0, 71, 0
2, 122400, Note_on_c, 0, 71, 104
2, 122400, Note_on_c, 0, 64, 120
2, 122400, Note_on_c, 0, 69, 120
2, 122558, Note_on_c, 0, 71, 0
2, 122580, Note_on_c, 0, 71, 104
2, 122659, Note_on_c, 0, 71, 0
2, 122670, Note_on_c, 0, 71, 97
2, 122749, Note_on_c, 0, 71, 0
2, 122760, Note_on_c, 0, 71, 91
2, 122918, Note_on_c, 0, 71, 0
2, 122940, Note_on_c, 0, 71, 78
2, 123033, Note_on_c, 0, 69, 0
2, 123033, Note_on_c, 0, 64, 0
2, 123098, Note_on_c, 0, 71, 0
2, 123120, Note_on_c, 0, 71, 94
2, 123120, Note_on_c, 0, 64, 81
2, 123437, Note_on_c, 0, 64, 0
2, 123437, Note_on_c, 0, 71, 0
2, 123480, Note_on_c, 0, 71, 91
2, 123480, Note_on_c, 0, 63, 88
2, 124560, Note_on_c, 0, 63, 0
2, 124560, Note_on_c, 0, 71, 0
2, 124560, Note_on_c, 0, 59, 99
2, 124718, Note_on_c, 0, 59, 0
2, 124740, Note_on_c, 0, 61, 110
2, 124898, Note_on_c, 0, 61, 0
2, 124920, Note_on_c, 0, 63, 107
2, 125024, Note_on_c, 0, 63, 0
2, 125040, Note_on_c, 0, 64, 106
2, 125144, Note_on_c, 0, 64, 0
2, 125159, Note_on_c, 0, 66, 110
2, 125265, Note_on_c, 0, 66, 0
2, 125280, Note_on_c, 0, 67, 110
2, 125597, Note_on_c, 0, 67, 0
2, 125640, Note_on_c, 0, 66, 102
2, 126114, Note_on_c, 0, 66, 0
2, 126180, Note_on_c, 0, 63, 81
2, 126360, Note_on_c, 0, 63, 0
2, 126360, Note_on_c, 0, 64, 95
2, 126720, Note_on_c, 0, 64, 0
2, 126720, Note_on_c, 0, 71, 81
2, 126720, Note_on_c, 0, 69, 80
2, 126720, Note_on_c, 0, 64, 93
2, 126878, Note_on_c, 0, 71, 0
2, 126900, Note_on_c, 0, 71, 88
2, 126979, Note_on_c, 0, 71, 0
2, 126990, Note_on_c, 0, 71, 93
2, 127069, Note_on_c, 0, 71, 0
2, 127080, Note_on_c, 0, 71, 92
2, 127238, Note_on_c, 0, 71, 0
2, 127260, Note_on_c, 0, 64, 0
2, 127260, Note_on_c, 0, 71, 92
2, 127260, Note_on_c, 0, 66, 113
2, 127418, Note_on_c, 0, 66, 0
2, 127440, Note_on_c, 0, 69, 0
2, 127440, Note_on_c, 0, 67, 99
2, 127620, Note_on_c, 0, 67, 0
2, 127620, Note_on_c, 0, 64, 79
2, 127800, Note_on_c, 0, 64, 0
2, 127800, Note_on_c, 0, 66, 96
2, 128340, Note_on_c, 0, 66, 0
2, 128340, Note_on_c, 0, 71, 0
2, 128340, Note_on_c, 0, 63, 82
2, 128520, Note_on_c, 0, 63, 0
2, 128520, Note_on_c, 0, 64, 92
2, 128880, Note_on_c, 0, 64, 0
2, 128880, Note_on_c, 0, 71, 82
2, 128880, Note_on_c, 0, 64, 84
2, 129038, Note_on_c, 0, 71, 0
2, 129060, Note_on_c, 0, 71, 89
2, 129139, Note_on_c, 0, 71, 0
2, 129150, Note_on_c, 0, 71, 97
2, 129229, Note_on_c, 0, 71, 0
2, 129240, Note_on_c, 0, 71, 89
2, 129398, Note_on_c, 0, 71, 0
2, 129420, Note_on_c, 0, 64, 0
2, 129420, Note_on_c, 0, 71, 88
2, 129420, Note_on_c, 0, 59, 71
2, 129600, Note_on_c, 0, 59, 0
2, 129600, Note_on_c, 0, 62, 83
2, 129780, Note_on_c, 0, 71, 0
2, 129960, Note_on_c, 0, 62, 0
2, 129960, Note_on_c, 0, 61, 75
2, 130500, Note_on_c, 0, 61, 0
2, 130500, Note_on_c, 0, 58, 78
2, 130680, Note_on_c, 0, 58, 0
2, 130680, Note_on_c, 0, 59, 80
2, 131040, Note_on_c, 0, 59, 0
2, 131040, Note_on_c, 0, 71, 86
2, 131040, Note_on_c, 0, 59, 77
2, 131198, Note_on_c, 0, 71, 0
2, 131220, Note_on_c, 0, 71, 84
2, 131299, Note_on_c, 0, 71, 0
2, 131310, Note_on_c, 0, 71, 87
2, 131389, Note_on_c, 0, 71, 0
2, 131400, Note_on_c, 0, 71, 90
2, 131558, Note_on_c, 0, 71, 0
2, 131580, Note_on_c, 0, 59, 0
2, 131580, Note_on_c, 0, 71, 90
2, 131580, Note_on_c, 0, 61, 86
2, 131760, Note_on_c, 0, 61, 0
2, 131760, Note_on_c, 0, 62, 85
2, 131940, Note_on_c, 0, 62, 0
2, 131940, Note_on_c, 0, 71, 0
2, 131940, Note_on_c, 0, 59, 74
2, 132120, Note_on_c, 0, 59, 0
2, 132120, Note_on_c, 0, 61, 88
2, 132660, Note_on_c, 0, 61, 0
2, 132660, Note_on_c, 0, 58, 81
2, 132840, Note_on_c, 0, 58, 0
2, 132840, Note_on_c, 0, 59, 91
2, 133157, Note_on_c, 0, 59, 0
2, 133200, Note_on_c, 0, 71, 81
2, 133200, Note_on_c, 0, 59, 78
2, 133358, Note_on_c, 0, 59, 0
2, 133358, Note_on_c, 0, 71, 0
2, 133380, Note_on_c, 0, 71, 91
2, 133380, Note_on_c, 0, 61, 85
2, 133459, Note_on_c, 0, 71, 0
2, 133470, Note_on_c, 0, 71, 85
2, 133538, Note_on_c, 0, 61, 0
2, 133549, Note_on_c, 0, 71, 0
2, 133560, Note_on_c, 0, 71, 92
2, 133560, Note_on_c, 0, 63, 91
2, 133664, Note_on_c, 0, 63, 0
2, 133680, Note_on_c, 0, 64, 95
2, 133718, Note_on_c, 0, 71, 0
2, 133740, Note_on_c, 0, 71, 90
2, 133784, Note_on_c, 0, 64, 0
2, 133799, Note_on_c, 0, 66, 99
2, 133905, Note_on_c, 0, 66, 0
2, 133920, Note_on_c, 0, 67, 113
2, 134100, Note_on_c, 0, 67, 0
2, 134100, Note_on_c, 0, 71, 0
2, 134100, Note_on_c, 0, 64, 101
2, 134280, Note_on_c, 0, 64, 0
2, 134280, Note_on_c, 0, 66, 114
2, 134820, Note_on_c, 0, 66, 0
2, 134820, Note_on_c, 0, 63, 102
2, 135000, Note_on_c, 0, 63, 0
2, 135000, Note_on_c, 0, 64, 110
2, 135360, Note_on_c, 0, 64, 0
2, 135360, Note_on_c, 0, 71, 82
2, 135360, Note_on_c, 0, 64, 110
2, 135518, Note_on_c, 0, 71, 0
2, 135540, Note_on_c, 0, 64, 0
2, 135540, Note_on_c, 0, 71, 90
2, 135540, Note_on_c, 0, 66, 116
2, 135619, Note_on_c, 0, 71, 0
2, 135630, Note_on_c, 0, 71, 89
2, 135709, Note_on_c, 0, 71, 0
2, 135720, Note_on_c, 0, 66, 0
2, 135720, Note_on_c, 0, 71, 91
2, 135720, Note_on_c, 0, 64, 108
2, 135878, Note_on_c, 0, 71, 0
2, 135900, Note_on_c, 0, 64, 0
2, 135900, Note_on_c, 0, 71, 89
2, 135900, Note_on_c, 0, 66, 120
2, 136058, Note_on_c, 0, 71, 0
2, 136080, Note_on_c, 0, 66, 0
2, 136080, Note_on_c, 0, 71, 121
2, 136260, Note_on_c, 0, 71, 0
2, 136260, Note_on_c, 0, 67, 110
2, 136440, Note_on_c, 0, 67, 0
2, 136440, Note_on_c, 0, 67, 121
2, 136980, Note_on_c, 0, 67, 0
2, 136980, Note_on_c, 0, 66, 102
2, 137160, Note_on_c, 0, 66, 0
2, 137160, Note_on_c, 0, 66, 96
2, 137340, Note_on_c, 0, 66, 0
2, 137340, Note_on_c, 0, 60, 83
2, 137520, Note_on_c, 0, 60, 0
2, 137520, Note_on_c, 0, 71, 89
2, 137520, Note_on_c, 0, 64, 96
2, 137678, Note_on_c, 0, 71, 0
2, 137700, Note_on_c, 0, 71, 88
2, 137779, Note_on_c, 0, 71, 0
2, 137790, Note_on_c, 0, 71, 93
2, 137869, Note_on_c, 0, 71, 0
2, 137880, Note_on_c, 0, 71, 89
2, 138038, Note_on_c, 0, 71, 0
2, 138060, Note_on_c, 0, 64, 0
2, 138060, Note_on_c, 0, 71, 91
2, 138060, Note_on_c, 0, 59, 77
2, 138240, Note_on_c, 0, 59, 0
2, 138240, Note_on_c, 0, 62, 101
2, 138420, Note_on_c, 0, 71, 0
2, 138600, Note_on_c, 0, 62, 0
2, 138600, Note_on_c, 0, 61, 91
2, 139140, Note_on_c, 0, 61, 0
2, 139140, Note_on_c, 0, 58, 85
2, 139320, Note_on_c, 0, 58, 0
2, 139320, Note_on_c, 0, 61, 101
2, 139680, Note_on_c, 0, 61, 0
2, 139680, Note_on_c, 0, 71, 85
2, 139680, Note_on_c, 0, 59, 89
2, 139838, Note_on_c, 0, 71, 0
2, 139860, Note_on_c, 0, 71, 89
2, 139939, Note_on_c, 0, 71, 0
2, 139950, Note_on_c, 0, 71, 92
2, 140029, Note_on_c, 0, 71, 0
2, 140040, Note_on_c, 0, 71, 89
2, 140198, Note_on_c, 0, 71, 0
2, 140220, Note_on_c, 0, 59, 0
2, 140220, Note_on_c, 0, 71, 96
2, 140220, Note_on_c, 0, 61, 101
2, 140400, Note_on_c, 0, 61, 0
2, 140400, Note_on_c, 0, 62, 106
2, 140479, Note_on_c, 0, 62, 0
2, 140490, Note_on_c, 0, 61, 102
2, 140569, Note_on_c, 0, 61, 0
2, 140580, Note_on_c, 0, 71, 0
2, 140580, Note_on_c, 0, 59, 88
2, 140670, Note_on_c, 0, 59, 0
2, 140670, Note_on_c, 0, 62, 97
2, 140760, Note_on_c, 0, 62, 0
2, 140760, Note_on_c, 0, 61, 87
2, 141300, Note_on_c, 0, 61, 0
2, 141300, Note_on_c, 0, 58, 91
2, 141480, Note_on_c, 0, 58, 0
2, 141480, Note_on_c, 0, 60, 94
2, 141840, Note_on_c, 0, 60, 0
2, 141840, Note_on_c, 0, 71, 80
2, 141840, Note_on_c, 0, 59, 91
2, 141998, Note_on_c, 0, 71, 0
2, 142020, Note_on_c, 0, 71, 85
2, 142099, Note_on_c, 0, 71, 0
2, 142110, Note_on_c, 0, 71, 89
2, 142189, Note_on_c, 0, 71, 0
2, 142200, Note_on_c, 0, 71, 90
2, 142358, Note_on_c, 0, 71, 0
2, 142380, Note_on_c, 0, 71, 88
2, 142538, Note_on_c, 0, 71, 0
2, 142560, Note_on_c, 0, 59, 0
2, 142560, Note_on_c, 0, 63, 78
2, 142920, Note_on_c, 0, 63, 0
2, 142920, Note_on_c, 0, 62, 74
2, 143280, Note_on_c, 0, 62, 0
2, 143280, Note_on_c, 0, 62, 69
2, 143640, Note_on_c, 0, 62, 0
2, 143640, Note_on_c, 0, 61, 64
2, 144000, Note_on_c, 0, 61, 0
2, 144000, Note_on_c, 0, 60, 60
2, 144360, Note_on_c, 0, 60, 0
2, 144360, Note_on_c, 0, 59, 55
2, 144540, Note_on_c, 0, 59, 0
2, 145080, Note_on_c, 0, 71, 59
2, 145080, Note_on_c, 0, 64, 44
2, 145238, Note_on_c, 0, 71, 0
2, 145260, Note_on_c, 0, 71, 66
2, 145339, Note_on_c, 0, 71, 0
2, 145350, Note_on_c, 0, 71, 65
2, 145429, Note_on_c, 0, 71, 0
2, 145440, Note_on_c, 0, 64, 0
2, 145440, Note_on_c, 0, 71, 66
2, 145440, Note_on_c, 0, 64, 54
2, 145598, Note_on_c, 0, 71, 0
2, 145620, Note_on_c, 0, 64, 0
2, 146160, Note_on_c, 0, 71, 54
2, 146160, Note_on_c, 0, 64, 40
2, 146318, Note_on_c, 0, 71, 0
2, 146340, Note_on_c, 0, 71, 52
2, 146419, Note_on_c, 0, 71, 0
2, 146430, Note_on_c, 0, 71, 58
2, 146509, Note_on_c, 0, 71, 0
2, 146520, Note_on_c, 0, 64, 0
2, 146520, Note_on_c, 0, 71, 64
2, 146520, Note_on_c, 0, 64, 41
2, 146678, Note_on_c, 0, 71, 0
2, 146700, Note_on_c, 0, 64, 0
2, 147240, Note_on_c, 0, 71, 42
2, 147240, Note_on_c, 0, 64, 33
2, 147398, Note_on_c, 0, 71, 0
2, 147420, Note_on_c, 0, 71, 48
2, 147499, Note_on_c, 0, 71, 0
2, 147510, Note_on_c, 0, 71, 53
2, 147589, Note_on_c, 0, 71, 0
2, 147600, Note_on_c, 0, 71, 47
2, 147758, Note_on_c, 0, 71, 0
2, 147780, Note_on_c, 0, 71, 45
2, 148320, Note_on_c, 0, 71, 0
2, 148320, Note_on_c, 0, 64, 0
2, 148320, Note_on_c, 0, 71, 50
2, 148320, Note_on_c, 0, 64, 43
2, 148478, Note_on_c, 0, 71, 0
2, 148500, Note_on_c, 0, 71, 49
2, 148579, Note_on_c, 0, 71, 0
2, 148590, Note_on_c, 0, 71, 46
2, 148669, Note_on_c, 0, 71, 0
2, 148680, Note_on_c, 0, 71, 47
2, 148838, Note_on_c, 0, 71, 0
2, 148860, Note_on_c, 0, 71, 49
2, 149400, Note_on_c, 0, 71, 0
2, 149400, Note_on_c, 0, 64, 0
2, 149400, Note_on_c, 0, 71, 44
2, 149400, Note_on_c, 0, 64, 37
2, 149558, Note_on_c, 0, 71, 0
2, 149580, Note_on_c, 0, 71, 52
2, 149659, Note_on_c, 0, 71, 0
2, 149670, Note_on_c, 0, 71, 49
2, 149749, Note_on_c, 0, 71, 0
2, 149760, Note_on_c, 0, 71, 49
2, 149918, Note_on_c, 0, 71, 0
2, 149940, Note_on_c, 0, 71, 45
2, 151020, Note_on_c, 0, 71, 0
2, 151020, Note_on_c, 0, 64, 0
2, 151200, Note_on_c, 0, 83, 49
2, 151200, Note_on_c, 0, 76, 48
2, 151244, Note_on_c, 0, 76, 0
2, 151245, Note_on_c, 0, 83, 0
2, 151245, Note_on_c, 0, 79, 49
2, 151290, Note_on_c, 0, 79, 0
2, 151290, Note_on_c, 0, 83, 61
2, 151290, Note_on_c, 0, 76, 54
2, 151334, Note_on_c, 0, 76, 0
2, 151335, Note_on_c, 0, 83, 0
2, 151335, Note_on_c, 0, 79, 46
2, 151380, Note_on_c, 0, 79, 0
2, 151380, Note_on_c, 0, 83, 62
2, 151380, Note_on_c, 0, 76, 54
2, 151424, Note_on_c, 0, 76, 0
2, 151425, Note_on_c, 0, 83, 0
2, 151425, Note_on_c, 0, 79, 46
2, 151470, Note_on_c, 0, 79, 0
2, 151470, Note_on_c, 0, 83, 58
2, 151470, Note_on_c, 0, 76, 55
2, 151514, Note_on_c, 0, 76, 0
2, 151515, Note_on_c, 0, 83, 0
2, 151515, Note_on_c, 0, 79, 48
2, 151560, Note_on_c, 0, 79, 0
2, 151560, Note_on_c, 0, 83, 61
2, 151560, Note_on_c, 0, 78, 54
2, 151605, Note_on_c, 0, 78, 0
2, 151605, Note_on_c, 0, 83, 0
2, 151605, Note_on_c, 0, 81, 53
2, 151605, Note_on_c, 0, 75, 49
2, 151650, Note_on_c, 0, 75, 0
2, 151650, Note_on_c, 0, 81, 0
2, 151650, Note_on_c, 0, 83, 56
2, 151650, Note_on_c, 0, 78, 61
2, 151695, Note_on_c, 0, 78, 0
2, 151695, Note_on_c, 0, 83, 0
2, 151695, Note_on_c, 0, 81, 53
2, 151695, Note_on_c, 0, 75, 46
2, 151740, Note_on_c, 0, 75, 0
2, 151740, Note_on_c, 0, 81, 0
2, 151740, Note_on_c, 0, 83, 54
2, 151740, Note_on_c, 0, 78, 58
2, 151785, Note_on_c, 0, 78, 0
2, 151785, Note_on_c, 0, 83, 0
2, 151785, Note_on_c, 0, 81, 53
2, 151785, Note_on_c, 0, 75, 52
2, 151830, Note_on_c, 0, 75, 0
2, 151830, Note_on_c, 0, 81, 0
2, 151830, Note_on_c, 0, 83, 60
2, 151830, Note_on_c, 0, 78, 63
2, 151875, Note_on_c, 0, 78, 0
2, 151875, Note_on_c, 0, 83, 0
2, 151875, Note_on_c, 0, 81, 50
2, 151875, Note_on_c, 0, 75, 51
2, 151920, Note_on_c, 0, 75, 0
2, 151920, Note_on_c, 0, 81, 0
2, 151920, Note_on_c, 0, 83, 56
2, 151920, Note_on_c, 0, 78, 64
2, 151965, Note_on_c, 0, 78, 0
2, 151965, Note_on_c, 0, 83, 0
2, 151965, Note_on_c, 0, 81, 53
2, 151965, Note_on_c, 0, 75, 47
2, 152010, Note_on_c, 0, 75, 0
2, 152010, Note_on_c, 0, 81, 0
2, 152010, Note_on_c, 0, 83, 59
2, 152010, Note_on_c, 0, 78, 59
2, 152055, Note_on_c, 0, 78, 0
2, 152055, Note_on_c, 0, 83, 0
2, 152055, Note_on_c, 0, 81, 49
2, 152055, Note_on_c, 0, 75, 50
2, 152100, Note_on_c, 0, 75, 0
2, 152100, Note_on_c, 0, 81, 0
2, 152100, Note_on_c, 0, 83, 60
2, 152100, Note_on_c, 0, 78, 59
2, 152145, Note_on_c, 0, 78, 0
2, 152145, Note_on_c, 0, 83, 0
2, 152145, Note_on_c, 0, 81, 50
2, 152145, Note_on_c, 0, 75, 49
2, 152190, Note_on_c, 0, 75, 0
2, 152190, Note_on_c, 0, 81, 0
2, 152190, Note_on_c, 0, 83, 62
2, 152190, Note_on_c, 0, 78, 63
2, 152235, Note_on_c, 0, 78, 0
2, 152235, Note_on_c, 0, 83, 0
2, 152235, Note_on_c, 0, 81, 55
2, 152235, Note_on_c, 0, 75, 47
2, 152280, Note_on_c, 0, 75, 0
2, 152280, Note_on_c, 0, 81, 0
2, 152280, Note_on_c, 0, 83, 55
2, 152280, Note_on_c, 0, 76, 58
2, 152324, Note_on_c, 0, 76, 0
2, 152325, Note_on_c, 0, 83, 0
2, 152325, Note_on_c, 0, 79, 59
2, 152370, Note_on_c, 0, 79, 0
2, 152370, Note_on_c, 0, 83, 62
2, 152370, Note_on_c, 0, 76, 60
2, 152414, Note_on_c, 0, 76, 0
2, 152415, Note_on_c, 0, 83, 0
2, 152415, Note_on_c, 0, 79, 65
2, 152460, Note_on_c, 0, 79, 0
2, 152460, Note_on_c, 0, 83, 68
2, 152460, Note_on_c, 0, 76, 56
2, 152504, Note_on_c, 0, 76, 0
2, 152505, Note_on_c, 0, 83, 0
2, 152505, Note_on_c, 0, 79, 71
2, 152550, Note_on_c, 0, 79, 0
2, 152550, Note_on_c, 0, 83, 75
2, 152550, Note_on_c, 0, 76, 57
2, 152594, Note_on_c, 0, 76, 0
2, 152595, Note_on_c, 0, 83, 0
2, 152595, Note_on_c, 0, 79, 78
2, 152640, Note_on_c, 0, 79, 0
2, 152640, Note_on_c, 0, 83, 104
2, 152640, Note_on_c, 0, 76, 52
2, 152684, Note_on_c, 0, 76, 0
2, 152685, Note_on_c, 0, 83, 0
2, 152685, Note_on_c, 0, 81, 92
2, 152730, Note_on_c, 0, 81, 0
2, 152730, Note_on_c, 0, 83, 91
2, 152730, Note_on_c, 0, 76, 56
2, 152774, Note_on_c, 0, 76, 0
2, 152775, Note_on_c, 0, 83, 0
2, 152775, Note_on_c, 0, 81, 89
2, 152820, Note_on_c, 0, 81, 0
2, 152820, Note_on_c, 0, 83, 87
2, 152820, Note_on_c, 0, 76, 57
2, 152864, Note_on_c, 0, 76, 0
2, 152865, Note_on_c, 0, 83, 0
2, 152865, Note_on_c, 0, 81, 86
2, 152910, Note_on_c, 0, 81, 0
2, 152910, Note_on_c, 0, 83, 84
2, 152910, Note_on_c, 0, 76, 56
2, 152954, Note_on_c, 0, 76, 0
2, 152955, Note_on_c, 0, 83, 0
2, 152955, Note_on_c, 0, 81, 82
2, 153000, Note_on_c, 0, 81, 0
2, 153000, Note_on_c, 0, 83, 80
2, 153000, Note_on_c, 0, 76, 59
2, 153044, Note_on_c, 0, 76, 0
2, 153045, Note_on_c, 0, 83, 0
2, 153045, Note_on_c, 0, 81, 79
2, 153090, Note_on_c, 0, 81, 0
2, 153090, Note_on_c, 0, 83, 77
2, 153090, Note_on_c, 0, 76, 55
2, 153134, Note_on_c, 0, 76, 0
2, 153135, Note_on_c, 0, 83, 0
2, 153135, Note_on_c, 0, 81, 75
2, 153180, Note_on_c, 0, 81, 0
2, 153180, Note_on_c, 0, 83, 74
2, 153180, Note_on_c, 0, 76, 54
2, 153224, Note_on_c, 0, 76, 0
2, 153225, Note_on_c, 0, 83, 0
2, 153225, Note_on_c, 0, 81, 72
2, 153270, Note_on_c, 0, 81, 0
2, 153270, Note_on_c, 0, 83, 70
2, 153270, Note_on_c, 0, 76, 57
2, 153314, Note_on_c, 0, 76, 0
2, 153315, Note_on_c, 0, 83, 0
2, 153315, Note_on_c, 0, 81, 69
2, 153360, Note_on_c, 0, 81, 0
2, 153360, Note_on_c, 0, 83, 60
2, 153360, Note_on_c, 0, 76, 62
2, 153404, Note_on_c, 0, 76, 0
2, 153405, Note_on_c, 0, 83, 0
2, 153405, Note_on_c, 0, 79, 47
2, 153450, Note_on_c, 0, 79, 0
2, 153450, Note_on_c, 0, 83, 61
2, 153450, Note_on_c, 0, 76, 57
2, 153494, Note_on_c, 0, 76, 0
2, 153495, Note_on_c, 0, 83, 0
2, 153495, Note_on_c, 0, 79, 48
2, 153540, Note_on_c, 0, 79, 0
2, 153540, Note_on_c, 0, 83, 67
2, 153540, Note_on_c, 0, 76, 52
2, 153584, Note_on_c, 0, 76, 0
2, 153585, Note_on_c, 0, 83, 0
2, 153585, Note_on_c, 0, 79, 48
2, 153630, Note_on_c, 0, 79, 0
2, 153630, Note_on_c, 0, 83, 71
2, 153630, Note_on_c, 0, 76, 59
2, 153674, Note_on_c, 0, 76, 0
2, 153675, Note_on_c, 0, 83, 0
2, 153675, Note_on_c, 0, 79, 53
2, 153720, Note_on_c, 0, 79, 0
2, 153720, Note_on_c, 0, 83, 59
2, 153720, Note_on_c, 0, 78, 57
2, 153765, Note_on_c, 0, 78, 0
2, 153765, Note_on_c, 0, 83, 0
2, 153765, Note_on_c, 0, 81, 50
2, 153765, Note_on_c, 0, 75, 53
2, 153810, Note_on_c, 0, 75, 0
2, 153810, Note_on_c, 0, 81, 0
2, 153810, Note_on_c, 0, 83, 61
2, 153810, Note_on_c, 0, 78, 56
2, 153855, Note_on_c, 0, 78, 0
2, 153855, Note_on_c, 0, 83, 0
2, 153855, Note_on_c, 0, 81, 58
2, 153855, Note_on_c, 0, 75, 51
2, 153900, Note_on_c, 0, 75, 0
2, 153900, Note_on_c, 0, 81, 0
2, 153900, Note_on_c, 0, 83, 59
2, 153900, Note_on_c, 0, 78, 57
2, 153945, Note_on_c, 0, 78, 0
2, 153945, Note_on_c, 0, 83, 0
2, 153945, Note_on_c, 0, 81, 55
2, 153945, Note_on_c, 0, 75, 46
2, 153990, Note_on_c, 0, 75, 0
2, 153990, Note_on_c, 0, 81, 0
2, 153990, Note_on_c, 0, 83, 62
2, 153990, Note_on_c, 0, 78, 55
2, 154035, Note_on_c, 0, 78, 0
2, 154035, Note_on_c, 0, 83, 0
2, 154035, Note_on_c, 0, 81, 50
2, 154035, Note_on_c, 0, 75, 49
2, 154080, Note_on_c, 0, 75, 0
2, 154080, Note_on_c, 0, 81, 0
2, 154080, Note_on_c, 0, 83, 58
2, 154080, Note_on_c, 0, 78, 59
2, 154125, Note_on_c, 0, 78, 0
2, 154125, Note_on_c, 0, 83, 0
2, 154125, Note_on_c, 0, 81, 53
2, 154125, Note_on_c, 0, 75, 52
2, 154170, Note_on_c, 0, 75, 0
2, 154170, Note_on_c, 0, 81, 0
2, 154170, Note_on_c, 0, 83, 59
2, 154170, Note_on_c, 0, 78, 64
2, 154215, Note_on_c, 0, 78, 0
2, 154215, Note_on_c, 0, 83, 0
2, 154215, Note_on_c, 0, 81, 57
2, 154215, Note_on_c, 0, 75, 51
2, 154260, Note_on_c, 0, 75, 0
2, 154260, Note_on_c, 0, 81, 0
2, 154260, Note_on_c, 0, 83, 55
2, 154260, Note_on_c, 0, 78, 58
2, 154305, Note_on_c, 0, 78, 0
2, 154305, Note_on_c, 0, 83, 0
2, 154305, Note_on_c, 0, 81, 52
2, 154305, Note_on_c, 0, 75, 54
2, 154350, Note_on_c, 0, 75, 0
2, 154350, Note_on_c, 0, 81, 0
2, 154350, Note_on_c, 0, 83, 59
2, 154350, Note_on_c, 0, 78, 57
2, 154395, Note_on_c, 0, 78, 0
2, 154395, Note_on_c, 0, 83, 0
2, 154395, Note_on_c, 0, 81, 52
2, 154395, Note_on_c, 0, 75, 51
2, 154440, Note_on_c, 0, 75, 0
2, 154440, Note_on_c, 0, 81, 0
2, 154440, Note_on_c, 0, 83, 60
2, 154440, Note_on_c, 0, 78, 60
2, 154620, Note_on_c, 0, 78, 0
2, 154620, Note_on_c, 0, 83, 0
2, 154800, Note_on_c, 0, 71, 75
2, 154958, Note_on_c, 0, 71, 0
2, 154980, Note_on_c, 0, 73, 78
2, 155138, Note_on_c, 0, 73, 0
2, 155160, Note_on_c, 0, 75, 87
2, 155264, Note_on_c, 0, 75, 0
2, 155280, Note_on_c, 0, 76, 92
2, 155384, Note_on_c, 0, 76, 0
2, 155399, Note_on_c, 0, 78, 98
2, 155505, Note_on_c, 0, 78, 0
2, 155520, Note_on_c, 0, 83, 47
2, 155520, Note_on_c, 0, 79, 110
2, 155565, Note_on_c, 0, 83, 0
2, 155565, Note_on_c, 0, 76, 45
2, 155610, Note_on_c, 0, 76, 0
2, 155610, Note_on_c, 0, 83, 63
2, 155655, Note_on_c, 0, 83, 0
2, 155655, Note_on_c, 0, 76, 50
2, 155700, Note_on_c, 0, 76, 0
2, 155700, Note_on_c, 0, 83, 64
2, 155745, Note_on_c, 0, 83, 0
2, 155745, Note_on_c, 0, 76, 45
2, 155790, Note_on_c, 0, 76, 0
2, 155790, Note_on_c, 0, 83, 65
2, 155835, Note_on_c, 0, 83, 0
2, 155835, Note_on_c, 0, 76, 52
2, 155880, Note_on_c, 0, 76, 0
2, 155880, Note_on_c, 0, 79, 0
2, 155880, Note_on_c, 0, 83, 62
2, 155880, Note_on_c, 0, 78, 104
2, 155925, Note_on_c, 0, 83, 0
2, 155925, Note_on_c, 0, 81, 49
2, 155970, Note_on_c, 0, 81, 0
2, 155970, Note_on_c, 0, 83, 63
2, 156015, Note_on_c, 0, 83, 0
2, 156015, Note_on_c, 0, 81, 47
2, 156060, Note_on_c, 0, 81, 0
2, 156060, Note_on_c, 0, 83, 60
2, 156105, Note_on_c, 0, 83, 0
2, 156105, Note_on_c, 0, 81, 52
2, 156150, Note_on_c, 0, 81, 0
2, 156150, Note_on_c, 0, 83, 58
2, 156195, Note_on_c, 0, 83, 0
2, 156195, Note_on_c, 0, 81, 57
2, 156240, Note_on_c, 0, 81, 0
2, 156240, Note_on_c, 0, 83, 53
2, 156285, Note_on_c, 0, 83, 0
2, 156285, Note_on_c, 0, 81, 56
2, 156330, Note_on_c, 0, 81, 0
2, 156330, Note_on_c, 0, 83, 61
2, 156375, Note_on_c, 0, 83, 0
2, 156375, Note_on_c, 0, 81, 53
2, 156420, Note_on_c, 0, 81, 0
2, 156420, Note_on_c, 0, 78, 0
2, 156420, Note_on_c, 0, 83, 56
2, 156420, Note_on_c, 0, 75, 82
2, 156465, Note_on_c, 0, 83, 0
2, 156465, Note_on_c, 0, 81, 47
2, 156510, Note_on_c, 0, 81, 0
2, 156510, Note_on_c, 0, 83, 61
2, 156555, Note_on_c, 0, 83, 0
2, 156555, Note_on_c, 0, 81, 52
2, 156600, Note_on_c, 0, 81, 0
2, 156600, Note_on_c, 0, 75, 0
2, 156600, Note_on_c, 0, 83, 55
2, 156600, Note_on_c, 0, 76, 85
2, 156645, Note_on_c, 0, 83, 0
2, 156645, Note_on_c, 0, 79, 59
2, 156690, Note_on_c, 0, 79, 0
2, 156690, Note_on_c, 0, 83, 62
2, 156735, Note_on_c, 0, 83, 0
2, 156735, Note_on_c, 0, 79, 65
2, 156780, Note_on_c, 0, 79, 0
2, 156780, Note_on_c, 0, 83, 68
2, 156825, Note_on_c, 0, 83, 0
2, 156825, Note_on_c, 0, 79, 71
2, 156870, Note_on_c, 0, 79, 0
2, 156870, Note_on_c, 0, 83, 75
2, 156915, Note_on_c, 0, 83, 0
2, 156915, Note_on_c, 0, 79, 78
2, 156960, Note_on_c, 0, 79, 0
2, 156960, Note_on_c, 0, 76, 0
2, 156960, Note_on_c, 0, 83, 102
2, 156960, Note_on_c, 0, 76, 78
2, 157005, Note_on_c, 0, 83, 0
2, 157005, Note_on_c, 0, 81, 92
2, 157050, Note_on_c, 0, 81, 0
2, 157050, Note_on_c, 0, 83, 91
2, 157095, Note_on_c, 0, 83, 0
2, 157095, Note_on_c, 0, 81, 89
2, 157140, Note_on_c, 0, 81, 0
2, 157140, Note_on_c, 0, 83, 87
2, 157185, Note_on_c, 0, 83, 0
2, 157185, Note_on_c, 0, 81, 86
2, 157230, Note_on_c, 0, 81, 0
2, 157230, Note_on_c, 0, 83, 84
2, 157275, Note_on_c, 0, 83, 0
2, 157275, Note_on_c, 0, 81, 82
2, 157320, Note_on_c, 0, 81, 0
2, 157320, Note_on_c, 0, 83, 80
2, 157365, Note_on_c, 0, 83, 0
2, 157365, Note_on_c, 0, 81, 79
2, 157410, Note_on_c, 0, 81, 0
2, 157410, Note_on_c, 0, 83, 77
2, 157455, Note_on_c, 0, 83, 0
2, 157455, Note_on_c, 0, 81, 75
2, 157500, Note_on_c, 0, 81, 0
2, 157500, Note_on_c, 0, 76, 0
2, 157500, Note_on_c, 0, 83, 74
2, 157500, Note_on_c, 0, 78, 97
2, 157545, Note_on_c, 0, 83, 0
2, 157545, Note_on_c, 0, 81, 72
2, 157590, Note_on_c, 0, 81, 0
2, 157590, Note_on_c, 0, 83, 70
2, 157635, Note_on_c, 0, 83, 0
2, 157635, Note_on_c, 0, 81, 69
2, 157680, Note_on_c, 0, 81, 0
2, 157680, Note_on_c, 0, 78, 0
2, 157680, Note_on_c, 0, 83, 66
2, 157680, Note_on_c, 0, 79, 110
2, 157725, Note_on_c, 0, 83, 0
2, 157725, Note_on_c, 0, 76, 55
2, 157770, Note_on_c, 0, 76, 0
2, 157770, Note_on_c, 0, 83, 78
2, 157815, Note_on_c, 0, 83, 0
2, 157815, Note_on_c, 0, 76, 54
2, 157860, Note_on_c, 0, 76, 0
2, 157860, Note_on_c, 0, 79, 0
2, 157860, Note_on_c, 0, 83, 82
2, 157860, Note_on_c, 0, 76, 96
2, 157905, Note_on_c, 0, 83, 0
2, 157905, Note_on_c, 0, 79, 61
2, 157950, Note_on_c, 0, 79, 0
2, 157950, Note_on_c, 0, 83, 74
2, 157995, Note_on_c, 0, 83, 0
2, 157995, Note_on_c, 0, 79, 59
2, 158040, Note_on_c, 0, 79, 0
2, 158040, Note_on_c, 0, 76, 0
2, 158040, Note_on_c, 0, 83, 72
2, 158040, Note_on_c, 0, 78, 104
2, 158085, Note_on_c, 0, 83, 0
2, 158085, Note_on_c, 0, 81, 64
2, 158130, Note_on_c, 0, 81, 0
2, 158130, Note_on_c, 0, 83, 68
2, 158175, Note_on_c, 0, 83, 0
2, 158175, Note_on_c, 0, 81, 63
2, 158220, Note_on_c, 0, 81, 0
2, 158220, Note_on_c, 0, 83, 66
2, 158265, Note_on_c, 0, 83, 0
2, 158265, Note_on_c, 0, 81, 62
2, 158310, Note_on_c, 0, 81, 0
2, 158310, Note_on_c, 0, 83, 69
2, 158355, Note_on_c, 0, 83, 0
2, 158355, Note_on_c, 0, 81, 62
2, 158400, Note_on_c, 0, 81, 0
2, 158400, Note_on_c, 0, 83, 71
2, 158445, Note_on_c, 0, 83, 0
2, 158445, Note_on_c, 0, 81, 62
2, 158490, Note_on_c, 0, 81, 0
2, 158490, Note_on_c, 0, 83, 69
2, 158535, Note_on_c, 0, 83, 0
2, 158535, Note_on_c, 0, 81, 62
2, 158580, Note_on_c, 0, 81, 0
2, 158580, Note_on_c, 0, 78, 0
2, 158580, Note_on_c, 0, 83, 73
2, 158580, Note_on_c, 0, 75, 80
2, 158625, Note_on_c, 0, 83, 0
2, 158625, Note_on_c, 0, 81, 65
2, 158670, Note_on_c, 0, 81, 0
2, 158670, Note_on_c, 0, 83, 75
2, 158715, Note_on_c, 0, 83, 0
2, 158715, Note_on_c, 0, 81, 63
2, 158760, Note_on_c, 0, 81, 0
2, 158760, Note_on_c, 0, 75, 0
2, 158760, Note_on_c, 0, 83, 71
2, 158760, Note_on_c, 0, 76, 86
2, 158805, Note_on_c, 0, 83, 0
2, 158805, Note_on_c, 0, 79, 57
2, 158850, Note_on_c, 0, 79, 0
2, 158850, Note_on_c, 0, 83, 76
2, 158895, Note_on_c, 0, 83, 0
2, 158895, Note_on_c, 0, 79, 56
2, 158940, Note_on_c, 0, 79, 0
2, 158940, Note_on_c, 0, 83, 70
2, 158985, Note_on_c, 0, 83, 0
2, 158985, Note_on_c, 0, 79, 59
2, 159030, Note_on_c, 0, 79, 0
2, 159030, Note_on_c, 0, 83, 73
2, 159075, Note_on_c, 0, 83, 0
2, 159075, Note_on_c, 0, 79, 62
2, 159120, Note_on_c, 0, 79, 0
2, 159120, Note_on_c, 0, 76, 0
2, 159120, Note_on_c, 0, 83, 70
2, 159120, Note_on_c, 0, 76, 74
2, 159165, Note_on_c, 0, 83, 0
2, 159165, Note_on_c, 0, 79, 64
2, 159210, Note_on_c, 0, 79, 0
2, 159210, Note_on_c, 0, 83, 75
2, 159255, Note_on_c, 0, 83, 0
2, 159255, Note_on_c, 0, 79, 63
2, 159300, Note_on_c, 0, 79, 0
2, 159300, Note_on_c, 0, 83, 75
2, 159345, Note_on_c, 0, 83, 0
2, 159345, Note_on_c, 0, 79, 62
2, 159390, Note_on_c, 0, 79, 0
2, 159390, Note_on_c, 0, 83, 78
2, 159435, Note_on_c, 0, 83, 0
2, 159435, Note_on_c, 0, 79, 57
2, 159480, Note_on_c, 0, 79, 0
2, 159480, Note_on_c, 0, 83, 74
2, 159525, Note_on_c, 0, 83, 0
2, 159525, Note_on_c, 0, 79, 60
2, 159570, Note_on_c, 0, 79, 0
2, 159570, Note_on_c, 0, 83, 75
2, 159615, Note_on_c, 0, 83, 0
2, 159615, Note_on_c, 0, 79, 60
2, 159660, Note_on_c, 0, 79, 0
2, 159660, Note_on_c, 0, 76, 0
2, 159660, Note_on_c, 0, 83, 72
2, 159660, Note_on_c, 0, 71, 66
2, 159705, Note_on_c, 0, 83, 0
2, 159705, Note_on_c, 0, 79, 57
2, 159750, Note_on_c, 0, 79, 0
2, 159750, Note_on_c, 0, 83, 71
2, 159795, Note_on_c, 0, 83, 0
2, 159795, Note_on_c, 0, 79, 62
2, 159840, Note_on_c, 0, 79, 0
2, 159840, Note_on_c, 0, 71, 0
2, 159840, Note_on_c, 0, 83, 67
2, 159840, Note_on_c, 0, 74, 82
2, 159885, Note_on_c, 0, 83, 0
2, 159885, Note_on_c, 0, 79, 66
2, 159930, Note_on_c, 0, 79, 0
2, 159930, Note_on_c, 0, 83, 65
2, 159975, Note_on_c, 0, 83, 0
2, 159975, Note_on_c, 0, 79, 64
2, 160020, Note_on_c, 0, 79, 0
2, 160020, Note_on_c, 0, 83, 63
2, 160065, Note_on_c, 0, 83, 0
2, 160065, Note_on_c, 0, 79, 62
2, 160110, Note_on_c, 0, 79, 0
2, 160110, Note_on_c, 0, 83, 61
2, 160155, Note_on_c, 0, 83, 0
2, 160155, Note_on_c, 0, 79, 60
2, 160200, Note_on_c, 0, 79, 0
2, 160200, Note_on_c, 0, 74, 0
2, 160200, Note_on_c, 0, 82, 58
2, 160200, Note_on_c, 0, 73, 77
2, 160245, Note_on_c, 0, 82, 0
2, 160245, Note_on_c, 0, 78, 57
2, 160290, Note_on_c, 0, 78, 0
2, 160290, Note_on_c, 0, 82, 56
2, 160335, Note_on_c, 0, 82, 0
2, 160335, Note_on_c, 0, 78, 55
2, 160380, Note_on_c, 0, 78, 0
2, 160380, Note_on_c, 0, 82, 54
2, 160425, Note_on_c, 0, 82, 0
2, 160425, Note_on_c, 0, 78, 53
2, 160470, Note_on_c, 0, 78, 0
2, 160470, Note_on_c, 0, 82, 52
2, 160515, Note_on_c, 0, 82, 0
2, 160515, Note_on_c, 0, 78, 51
2, 160560, Note_on_c, 0, 78, 0
2, 160560, Note_on_c, 0, 82, 50
2, 160605, Note_on_c, 0, 82, 0
2, 160605, Note_on_c, 0, 78, 49
2, 160650, Note_on_c, 0, 78, 0
2, 160650, Note_on_c, 0, 82, 48
2, 160695, Note_on_c, 0, 82, 0
2, 160695, Note_on_c, 0, 78, 47
2, 160740, Note_on_c, 0, 78, 0
2, 160740, Note_on_c, 0, 73, 0
2, 160740, Note_on_c, 0, 82, 46
2, 160740, Note_on_c, 0, 70, 67
2, 160785, Note_on_c, 0, 82, 0
2, 160785, Note_on_c, 0, 78, 45
2, 160830, Note_on_c, 0, 78, 0
2, 160830, Note_on_c, 0, 82, 44
2, 160875, Note_on_c, 0, 82, 0
2, 160875, Note_on_c, 0, 78, 43
2, 160920, Note_on_c, 0, 78, 0
2, 160920, Note_on_c, 0, 70, 0
2, 160920, Note_on_c, 0, 81, 42
2, 160920, Note_on_c, 0, 72, 84
2, 160965, Note_on_c, 0, 81, 0
2, 160965, Note_on_c, 0, 77, 39
2, 161010, Note_on_c, 0, 77, 0
2, 161010, Note_on_c, 0, 81, 48
2, 161055, Note_on_c, 0, 81, 0
2, 161055, Note_on_c, 0, 77, 34
2, 161100, Note_on_c, 0, 77, 0
2, 161100, Note_on_c, 0, 81, 49
2, 161145, Note_on_c, 0, 81, 0
2, 161145, Note_on_c, 0, 77, 37
2, 161190, Note_on_c, 0, 77, 0
2, 161190, Note_on_c, 0, 81, 40
2, 161235, Note_on_c, 0, 81, 0
2, 161235, Note_on_c, 0, 77, 40
2, 161280, Note_on_c, 0, 77, 0
2, 161280, Note_on_c, 0, 72, 0
2, 161280, Note_on_c, 0, 79, 41
2, 161280, Note_on_c, 0, 71, 76
2, 161325, Note_on_c, 0, 79, 0
2, 161325, Note_on_c, 0, 76, 43
2, 161370, Note_on_c, 0, 76, 0
2, 161370, Note_on_c, 0, 79, 45
2, 161415, Note_on_c, 0, 79, 0
2, 161415, Note_on_c, 0, 76, 46
2, 161460, Note_on_c, 0, 76, 0
2, 161460, Note_on_c, 0, 79, 48
2, 161505, Note_on_c, 0, 79, 0
2, 161505, Note_on_c, 0, 76, 49
2, 161550, Note_on_c, 0, 76, 0
2, 161550, Note_on_c, 0, 79, 51
2, 161595, Note_on_c, 0, 79, 0
2, 161595, Note_on_c, 0, 76, 53
2, 161640, Note_on_c, 0, 76, 0
2, 161640, Note_on_c, 0, 79, 54
2, 161685, Note_on_c, 0, 79, 0
2, 161685, Note_on_c, 0, 76, 56
2, 161730, Note_on_c, 0, 76, 0
2, 161730, Note_on_c, 0, 79, 57
2, 161775, Note_on_c, 0, 79, 0
2, 161775, Note_on_c, 0, 76, 59
2, 161820, Note_on_c, 0, 76, 0
2, 161820, Note_on_c, 0, 71, 0
2, 161820, Note_on_c, 0, 79, 61
2, 161820, Note_on_c, 0, 73, 91
2, 161865, Note_on_c, 0, 79, 0
2, 161865, Note_on_c, 0, 76, 62
2, 161910, Note_on_c, 0, 76, 0
2, 161910, Note_on_c, 0, 79, 64
2, 161955, Note_on_c, 0, 79, 0
2, 161955, Note_on_c, 0, 76, 65
2, 162000, Note_on_c, 0, 76, 0
2, 162000, Note_on_c, 0, 73, 0
2, 162000, Note_on_c, 0, 83, 90
2, 162000, Note_on_c, 0, 74, 80
2, 162045, Note_on_c, 0, 83, 0
2, 162045, Note_on_c, 0, 79, 72
2, 162090, Note_on_c, 0, 79, 0
2, 162090, Note_on_c, 0, 83, 87
2, 162135, Note_on_c, 0, 83, 0
2, 162135, Note_on_c, 0, 79, 73
2, 162180, Note_on_c, 0, 79, 0
2, 162180, Note_on_c, 0, 74, 0
2, 162180, Note_on_c, 0, 83, 91
2, 162180, Note_on_c, 0, 71, 72
2, 162225, Note_on_c, 0, 83, 0
2, 162225, Note_on_c, 0, 79, 72
2, 162270, Note_on_c, 0, 79, 0
2, 162270, Note_on_c, 0, 83, 88
2, 162315, Note_on_c, 0, 83, 0
2, 162315, Note_on_c, 0, 79, 73
2, 162360, Note_on_c, 0, 79, 0
2, 162360, Note_on_c, 0, 71, 0
2, 162360, Note_on_c, 0, 82, 81
2, 162360, Note_on_c, 0, 73, 78
2, 162405, Note_on_c, 0, 82, 0
2, 162405, Note_on_c, 0, 78, 73
2, 162450, Note_on_c, 0, 78, 0
2, 162450, Note_on_c, 0, 82, 81
2, 162495, Note_on_c, 0, 82, 0
2, 162495, Note_on_c, 0, 78, 70
2, 162540, Note_on_c, 0, 78, 0
2, 162540, Note_on_c, 0, 82, 85
2, 162585, Note_on_c, 0, 82, 0
2, 162585, Note_on_c, 0, 78, 73
2, 162630, Note_on_c, 0, 78, 0
2, 162630, Note_on_c, 0, 82, 88
2, 162675, Note_on_c, 0, 82, 0
2, 162675, Note_on_c, 0, 78, 70
2, 162720, Note_on_c, 0, 78, 0
2, 162720, Note_on_c, 0, 82, 87
2, 162765, Note_on_c, 0, 82, 0
2, 162765, Note_on_c, 0, 78, 72
2, 162810, Note_on_c, 0, 78, 0
2, 162810, Note_on_c, 0, 82, 87
2, 162855, Note_on_c, 0, 82, 0
2, 162855, Note_on_c, 0, 78, 69
2, 162900, Note_on_c, 0, 78, 0
2, 162900, Note_on_c, 0, 73, 0
2, 162900, Note_on_c, 0, 82, 86
2, 162900, Note_on_c, 0, 70, 55
2, 162945, Note_on_c, 0, 82, 0
2, 162945, Note_on_c, 0, 78, 72
2, 162990, Note_on_c, 0, 78, 0
2, 162990, Note_on_c, 0, 82, 88
2, 163035, Note_on_c, 0, 82, 0
2, 163035, Note_on_c, 0, 78, 70
2, 163080, Note_on_c, 0, 78, 0
2, 163080, Note_on_c, 0, 70, 0
2, 163080, Note_on_c, 0, 81, 78
2, 163080, Note_on_c, 0, 72, 67
2, 163125, Note_on_c, 0, 81, 0
2, 163125, Note_on_c, 0, 77, 77
2, 163170, Note_on_c, 0, 77, 0
2, 163170, Note_on_c, 0, 81, 76
2, 163215, Note_on_c, 0, 81, 0
2, 163215, Note_on_c, 0, 77, 75
2, 163260, Note_on_c, 0, 77, 0
2, 163260, Note_on_c, 0, 81, 74
2, 163305, Note_on_c, 0, 81, 0
2, 163305, Note_on_c, 0, 77, 73
2, 163350, Note_on_c, 0, 77, 0
2, 163350, Note_on_c, 0, 81, 72
2, 163395, Note_on_c, 0, 81, 0
2, 163395, Note_on_c, 0, 77, 71
2, 163397, Note_on_c, 0, 72, 0
2, 163440, Note_on_c, 0, 77, 0
2, 163440, Note_on_c, 0, 79, 69
2, 163440, Note_on_c, 0, 71, 58
2, 163485, Note_on_c, 0, 79, 0
2, 163485, Note_on_c, 0, 76, 68
2, 163530, Note_on_c, 0, 76, 0
2, 163530, Note_on_c, 0, 79, 67
2, 163575, Note_on_c, 0, 79, 0
2, 163575, Note_on_c, 0, 76, 66
2, 163620, Note_on_c, 0, 76, 0
2, 163620, Note_on_c, 0, 79, 65
2, 163665, Note_on_c, 0, 79, 0
2, 163665, Note_on_c, 0, 76, 64
2, 163710, Note_on_c, 0, 76, 0
2, 163710, Note_on_c, 0, 79, 63
2, 163755, Note_on_c, 0, 79, 0
2, 163755, Note_on_c, 0, 76, 62
2, 163800, Note_on_c, 0, 76, 0
2, 163800, Note_on_c, 0, 79, 61
2, 163845, Note_on_c, 0, 79, 0
2, 163845, Note_on_c, 0, 76, 60
2, 163890, Note_on_c, 0, 76, 0
2, 163890, Note_on_c, 0, 79, 58
2, 163935, Note_on_c, 0, 79, 0
2, 163935, Note_on_c, 0, 76, 57
2, 163980, Note_on_c, 0, 76, 0
2, 163980, Note_on_c, 0, 71, 0
2, 163980, Note_on_c, 0, 79, 56
2, 164025, Note_on_c, 0, 79, 0
2, 164025, Note_on_c, 0, 76, 55
2, 164070, Note_on_c, 0, 76, 0
2, 164070, Note_on_c, 0, 79, 54
2, 164115, Note_on_c, 0, 79, 0
2, 164115, Note_on_c, 0, 76, 53
2, 164160, Note_on_c, 0, 76, 0
2, 164160, Note_on_c, 0, 83, 53
2, 164160, Note_on_c, 0, 76, 53
2, 164204, Note_on_c, 0, 76, 0
2, 164205, Note_on_c, 0, 83, 0
2, 164205, Note_on_c, 0, 79, 53
2, 164250, Note_on_c, 0, 79, 0
2, 164250, Note_on_c, 0, 83, 54
2, 164250, Note_on_c, 0, 76, 54
2, 164294, Note_on_c, 0, 76, 0
2, 164295, Note_on_c, 0, 83, 0
2, 164295, Note_on_c, 0, 79, 55
2, 164340, Note_on_c, 0, 79, 0
2, 164340, Note_on_c, 0, 83, 55
2, 164340, Note_on_c, 0, 76, 55
2, 164384, Note_on_c, 0, 76, 0
2, 164385, Note_on_c, 0, 83, 0
2, 164385, Note_on_c, 0, 79, 56
2, 164430, Note_on_c, 0, 79, 0
2, 164430, Note_on_c, 0, 83, 56
2, 164430, Note_on_c, 0, 76, 56
2, 164474, Note_on_c, 0, 76, 0
2, 164475, Note_on_c, 0, 83, 0
2, 164475, Note_on_c, 0, 79, 57
2, 164520, Note_on_c, 0, 79, 0
2, 164520, Note_on_c, 0, 84, 57
2, 164520, Note_on_c, 0, 76, 57
2, 164564, Note_on_c, 0, 76, 0
2, 164565, Note_on_c, 0, 84, 0
2, 164565, Note_on_c, 0, 79, 58
2, 164610, Note_on_c, 0, 79, 0
2, 164610, Note_on_c, 0, 84, 58
2, 164610, Note_on_c, 0, 76, 58
2, 164654, Note_on_c, 0, 76, 0
2, 164655, Note_on_c, 0, 84, 0
2, 164655, Note_on_c, 0, 79, 59
2, 164700, Note_on_c, 0, 79, 0
2, 164700, Note_on_c, 0, 84, 59
2, 164700, Note_on_c, 0, 76, 59
2, 164744, Note_on_c, 0, 76, 0
2, 164745, Note_on_c, 0, 84, 0
2, 164745, Note_on_c, 0, 79, 60
2, 164790, Note_on_c, 0, 79, 0
2, 164790, Note_on_c, 0, 84, 60
2, 164790, Note_on_c, 0, 76, 60
2, 164834, Note_on_c, 0, 76, 0
2, 164835, Note_on_c, 0, 84, 0
2, 164835, Note_on_c, 0, 79, 61
2, 164880, Note_on_c, 0, 79, 0
2, 164880, Note_on_c, 0, 84, 62
2, 164880, Note_on_c, 0, 76, 62
2, 164924, Note_on_c, 0, 76, 0
2, 164925, Note_on_c, 0, 84, 0
2, 164925, Note_on_c, 0, 79, 62
2, 164970, Note_on_c, 0, 79, 0
2, 164970, Note_on_c, 0, 84, 63
2, 164970, Note_on_c, 0, 76, 63
2, 165014, Note_on_c, 0, 76, 0
2, 165015, Note_on_c, 0, 84, 0
2, 165015, Note_on_c, 0, 79, 63
2, 165060, Note_on_c, 0, 79, 0
2, 165060, Note_on_c, 0, 84, 64
2, 165060, Note_on_c, 0, 76, 64
2, 165104, Note_on_c, 0, 76, 0
2, 165105, Note_on_c, 0, 84, 0
2, 165105, Note_on_c, 0, 79, 64
2, 165150, Note_on_c, 0, 79, 0
2, 165150, Note_on_c, 0, 84, 65
2, 165150, Note_on_c, 0, 76, 65
2, 165194, Note_on_c, 0, 76, 0
2, 165195, Note_on_c, 0, 84, 0
2, 165195, Note_on_c, 0, 79, 65
2, 165240, Note_on_c, 0, 79, 0
2, 165240, Note_on_c, 0, 84, 66
2, 165240, Note_on_c, 0, 76, 66
2, 165284, Note_on_c, 0, 76, 0
2, 165285, Note_on_c, 0, 84, 0
2, 165285, Note_on_c, 0, 79, 66
2, 165330, Note_on_c, 0, 79, 0
2, 165330, Note_on_c, 0, 84, 67
2, 165330, Note_on_c, 0, 76, 67
2, 165374, Note_on_c, 0, 76, 0
2, 165375, Note_on_c, 0, 84, 0
2, 165375, Note_on_c, 0, 79, 68
2, 165420, Note_on_c, 0, 79, 0
2, 165420, Note_on_c, 0, 84, 68
2, 165420, Note_on_c, 0, 76, 68
2, 165464, Note_on_c, 0, 76, 0
2, 165465, Note_on_c, 0, 84, 0
2, 165465, Note_on_c, 0, 79, 69
2, 165510, Note_on_c, 0, 79, 0
2, 165510, Note_on_c, 0, 84, 69
2, 165510, Note_on_c, 0, 76, 69
2, 165554, Note_on_c, 0, 76, 0
2, 165555, Note_on_c, 0, 84, 0
2, 165555, Note_on_c, 0, 79, 70
2, 165600, Note_on_c, 0, 79, 0
2, 165600, Note_on_c, 0, 85, 70
2, 165600, Note_on_c, 0, 76, 70
2, 165645, Note_on_c, 0, 76, 0
2, 165645, Note_on_c, 0, 85, 0
2, 165645, Note_on_c, 0, 81, 71
2, 165645, Note_on_c, 0, 79, 71
2, 165690, Note_on_c, 0, 79, 0
2, 165690, Note_on_c, 0, 81, 0
2, 165690, Note_on_c, 0, 85, 71
2, 165690, Note_on_c, 0, 76, 71
2, 165735, Note_on_c, 0, 76, 0
2, 165735, Note_on_c, 0, 85, 0
2, 165735, Note_on_c, 0, 81, 72
2, 165735, Note_on_c, 0, 79, 72
2, 165780, Note_on_c, 0, 79, 0
2, 165780, Note_on_c, 0, 81, 0
2, 165780, Note_on_c, 0, 85, 72
2, 165780, Note_on_c, 0, 76, 72
2, 165825, Note_on_c, 0, 76, 0
2, 165825, Note_on_c, 0, 85, 0
2, 165825, Note_on_c, 0, 81, 73
2, 165825, Note_on_c, 0, 79, 73
2, 165870, Note_on_c, 0, 79, 0
2, 165870, Note_on_c, 0, 81, 0
2, 165870, Note_on_c, 0, 85, 73
2, 165870, Note_on_c, 0, 76, 73
2, 165915, Note_on_c, 0, 76, 0
2, 165915, Note_on_c, 0, 85, 0
2, 165915, Note_on_c, 0, 81, 74
2, 165915, Note_on_c, 0, 79, 74
2, 165960, Note_on_c, 0, 79, 0
2, 165960, Note_on_c, 0, 81, 0
2, 165960, Note_on_c, 0, 85, 75
2, 165960, Note_on_c, 0, 76, 75
2, 166005, Note_on_c, 0, 76, 0
2, 166005, Note_on_c, 0, 85, 0
2, 166005, Note_on_c, 0, 81, 75
2, 166005, Note_on_c, 0, 79, 75
2, 166050, Note_on_c, 0, 79, 0
2, 166050, Note_on_c, 0, 81, 0
2, 166050, Note_on_c, 0, 85, 76
2, 166050, Note_on_c, 0, 76, 76
2, 166095, Note_on_c, 0, 76, 0
2, 166095, Note_on_c, 0, 85, 0
2, 166095, Note_on_c, 0, 81, 76
2, 166095, Note_on_c, 0, 79, 76
2, 166140, Note_on_c, 0, 79, 0
2, 166140, Note_on_c, 0, 81, 0
2, 166140, Note_on_c, 0, 85, 77
2, 166140, Note_on_c, 0, 76, 77
2, 166185, Note_on_c, 0, 76, 0
2, 166185, Note_on_c, 0, 85, 0
2, 166185, Note_on_c, 0, 81, 77
2, 166185, Note_on_c, 0, 79, 77
2, 166230, Note_on_c, 0, 79, 0
2, 166230, Note_on_c, 0, 81, 0
2, 166230, Note_on_c, 0, 85, 78
2, 166230, Note_on_c, 0, 76, 78
2, 166275, Note_on_c, 0, 76, 0
2, 166275, Note_on_c, 0, 85, 0
2, 166275, Note_on_c, 0, 81, 78
2, 166275, Note_on_c, 0, 79, 78
2, 166320, Note_on_c, 0, 79, 0
2, 166320, Note_on_c, 0, 81, 0
2, 166320, Note_on_c, 0, 85, 48
2, 166320, Note_on_c, 0, 76, 35
2, 166365, Note_on_c, 0, 76, 0
2, 166365, Note_on_c, 0, 85, 0
2, 166365, Note_on_c, 0, 81, 38
2, 166365, Note_on_c, 0, 79, 38
2, 166410, Note_on_c, 0, 79, 0
2, 166410, Note_on_c, 0, 81, 0
2, 166410, Note_on_c, 0, 85, 39
2, 166410, Note_on_c, 0, 76, 39
2, 166455, Note_on_c, 0, 76, 0
2, 166455, Note_on_c, 0, 85, 0
2, 166455, Note_on_c, 0, 81, 40
2, 166455, Note_on_c, 0, 79, 40
2, 166500, Note_on_c, 0, 79, 0
2, 166500, Note_on_c, 0, 81, 0
2, 166500, Note_on_c, 0, 85, 41
2, 166500, Note_on_c, 0, 76, 41
2, 166545, Note_on_c, 0, 76, 0
2, 166545, Note_on_c, 0, 85, 0
2, 166545, Note_on_c, 0, 81, 42
2, 166545, Note_on_c, 0, 79, 42
2, 166590, Note_on_c, 0, 79, 0
2, 166590, Note_on_c, 0, 81, 0
2, 166590, Note_on_c, 0, 85, 43
2, 166590, Note_on_c, 0, 76, 43
2, 166635, Note_on_c, 0, 76, 0
2, 166635, Note_on_c, 0, 85, 0
2, 166635, Note_on_c, 0, 81, 44
2, 166635, Note_on_c, 0, 79, 44
2, 166680, Note_on_c, 0, 79, 0
2, 166680, Note_on_c, 0, 81, 0
2, 166680, Note_on_c, 0, 85, 45
2, 166680, Note_on_c, 0, 76, 45
2, 166725, Note_on_c, 0, 76, 0
2, 166725, Note_on_c, 0, 85, 0
2, 166725, Note_on_c, 0, 81, 47
2, 166725, Note_on_c, 0, 79, 47
2, 166770, Note_on_c, 0, 79, 0
2, 166770, Note_on_c, 0, 81, 0
2, 166770, Note_on_c, 0, 85, 48
2, 166770, Note_on_c, 0, 76, 48
2, 166815, Note_on_c, 0, 76, 0
2, 166815, Note_on_c, 0, 85, 0
2, 166815, Note_on_c, 0, 81, 49
2, 166815, Note_on_c, 0, 79, 49
2, 166860, Note_on_c, 0, 79, 0
2, 166860, Note_on_c, 0, 81, 0
2, 166860, Note_on_c, 0, 85, 50
2, 166860, Note_on_c, 0, 76, 50
2, 166905, Note_on_c, 0, 76, 0
2, 166905, Note_on_c, 0, 85, 0
2, 166905, Note_on_c, 0, 81, 51
2, 166905, Note_on_c, 0, 79, 51
2, 166950, Note_on_c, 0, 79, 0
2, 166950, Note_on_c, 0, 81, 0
2, 166950, Note_on_c, 0, 85, 52
2, 166950, Note_on_c, 0, 76, 52
2, 166995, Note_on_c, 0, 76, 0
2, 166995, Note_on_c, 0, 85, 0
2, 166995, Note_on_c, 0, 81, 53
2, 166995, Note_on_c, 0, 79, 53
2, 167040, Note_on_c, 0, 79, 0
2, 167040, Note_on_c, 0, 81, 0
2, 167040, Note_on_c, 0, 85, 54
2, 167040, Note_on_c, 0, 76, 54
2, 167085, Note_on_c, 0, 76, 0
2, 167085, Note_on_c, 0, 85, 0
2, 167085, Note_on_c, 0, 81, 55
2, 167085, Note_on_c, 0, 79, 55
2, 167130, Note_on_c, 0, 79, 0
2, 167130, Note_on_c, 0, 81, 0
2, 167130, Note_on_c, 0, 85, 56
2, 167130, Note_on_c, 0, 76, 56
2, 167175, Note_on_c, 0, 76, 0
2, 167175, Note_on_c, 0, 85, 0
2, 167175, Note_on_c, 0, 81, 58
2, 167175, Note_on_c, 0, 79, 58
2, 167220, Note_on_c, 0, 79, 0
2, 167220, Note_on_c, 0, 81, 0
2, 167220, Note_on_c, 0, 85, 59
2, 167220, Note_on_c, 0, 76, 59
2, 167265, Note_on_c, 0, 76, 0
2, 167265, Note_on_c, 0, 85, 0
2, 167265, Note_on_c, 0, 81, 60
2, 167265, Note_on_c, 0, 79, 60
2, 167310, Note_on_c, 0, 79, 0
2, 167310, Note_on_c, 0, 81, 0
2, 167310, Note_on_c, 0, 85, 61
2, 167310, Note_on_c, 0, 76, 61
2, 167355, Note_on_c, 0, 76, 0
2, 167355, Note_on_c, 0, 85, 0
2, 167355, Note_on_c, 0, 81, 62
2, 167355, Note_on_c, 0, 79, 62
2, 167400, Note_on_c, 0, 79, 0
2, 167400, Note_on_c, 0, 81, 0
2, 167400, Note_on_c, 0, 85, 121
2, 167400, Note_on_c, 0, 76, 95
2, 167445, Note_on_c, 0, 76, 0
2, 167445, Note_on_c, 0, 85, 0
2, 167445, Note_on_c, 0, 81, 108
2, 167445, Note_on_c, 0, 79, 108
2, 167490, Note_on_c, 0, 79, 0
2, 167490, Note_on_c, 0, 81, 0
2, 167490, Note_on_c, 0, 85, 106
2, 167490, Note_on_c, 0, 76, 106
2, 167535, Note_on_c, 0, 76, 0
2, 167535, Note_on_c, 0, 85, 0
2, 167535, Note_on_c, 0, 81, 105
2, 167535, Note_on_c, 0, 79, 105
2, 167580, Note_on_c, 0, 79, 0
2, 167580, Note_on_c, 0, 81, 0
2, 167580, Note_on_c, 0, 85, 104
2, 167580, Note_on_c, 0, 76, 104
2, 167625, Note_on_c, 0, 76, 0
2, 167625, Note_on_c, 0, 85, 0
2, 167625, Note_on_c, 0, 81, 103
2, 167625, Note_on_c, 0, 79, 103
2, 167670, Note_on_c, 0, 79, 0
2, 167670, Note_on_c, 0, 81, 0
2, 167670, Note_on_c, 0, 85, 102
2, 167670, Note_on_c, 0, 76, 102
2, 167715, Note_on_c, 0, 76, 0
2, 167715, Note_on_c, 0, 85, 0
2, 167715, Note_on_c, 0, 81, 101
2, 167715, Note_on_c, 0, 79, 101
2, 167760, Note_on_c, 0, 79, 0
2, 167760, Note_on_c, 0, 81, 0
2, 167760, Note_on_c, 0, 85, 100
2, 167760, Note_on_c, 0, 76, 100
2, 167805, Note_on_c, 0, 76, 0
2, 167805, Note_on_c, 0, 85, 0
2, 167805, Note_on_c, 0, 81, 99
2, 167805, Note_on_c, 0, 79, 99
2, 167850, Note_on_c, 0, 79, 0
2, 167850, Note_on_c, 0, 81, 0
2, 167850, Note_on_c, 0, 85, 98
2, 167850, Note_on_c, 0, 76, 98
2, 167895, Note_on_c, 0, 76, 0
2, 167895, Note_on_c, 0, 85, 0
2, 167895, Note_on_c, 0, 81, 96
2, 167895, Note_on_c, 0, 79, 96
2, 167940, Note_on_c, 0, 79, 0
2, 167940, Note_on_c, 0, 81, 0
2, 167940, Note_on_c, 0, 85, 95
2, 167940, Note_on_c, 0, 76, 95
2, 167985, Note_on_c, 0, 76, 0
2, 167985, Note_on_c, 0, 85, 0
2, 167985, Note_on_c, 0, 81, 94
2, 167985, Note_on_c, 0, 79, 94
2, 168030, Note_on_c, 0, 79, 0
2, 168030, Note_on_c, 0, 81, 0
2, 168030, Note_on_c, 0, 85, 93
2, 168030, Note_on_c, 0, 76, 93
2, 168075, Note_on_c, 0, 76, 0
2, 168075, Note_on_c, 0, 85, 0
2, 168075, Note_on_c, 0, 81, 92
2, 168075, Note_on_c, 0, 79, 92
2, 168120, Note_on_c, 0, 79, 0
2, 168120, Note_on_c, 0, 81, 0
2, 168120, Note_on_c, 0, 85, 91
2, 168120, Note_on_c, 0, 76, 91
2, 168165, Note_on_c, 0, 76, 0
2, 168165, Note_on_c, 0, 85, 0
2, 168165, Note_on_c, 0, 81, 90
2, 168165, Note_on_c, 0, 79, 90
2, 168210, Note_on_c, 0, 79, 0
2, 168210, Note_on_c, 0, 81, 0
2, 168210, Note_on_c, 0, 85, 89
2, 168210, Note_on_c, 0, 76, 89
2, 168255, Note_on_c, 0, 76, 0
2, 168255, Note_on_c, 0, 85, 0
2, 168255, Note_on_c, 0, 81, 88
2, 168255, Note_on_c, 0, 79, 88
2, 168300, Note_on_c, 0, 79, 0
2, 168300, Note_on_c, 0, 81, 0
2, 168300, Note_on_c, 0, 85, 87
2, 168300, Note_on_c, 0, 76, 87
2, 168345, Note_on_c, 0, 76, 0
2, 168345, Note_on_c, 0, 85, 0
2, 168345, Note_on_c, 0, 81, 85
2, 168345, Note_on_c, 0, 79, 85
2, 168390, Note_on_c, 0, 79, 0
2, 168390, Note_on_c, 0, 81, 0
2, 168390, Note_on_c, 0, 85, 84
2, 168390, Note_on_c, 0, 76, 84
2, 168435, Note_on_c, 0, 76, 0
2, 168435, Note_on_c, 0, 85, 0
2, 168435, Note_on_c, 0, 81, 83
2, 168435, Note_on_c, 0, 79, 83
2, 168480, Note_on_c, 0, 79, 0
2, 168480, Note_on_c, 0, 81, 0
2, 168480, Note_on_c, 0, 80, 73
2, 168480, Note_on_c, 0, 76, 52
2, 168660, Note_on_c, 0, 76, 0
2, 168660, Note_on_c, 0, 80, 0
2, 168660, Note_on_c, 0, 79, 74
2, 168750, Note_on_c, 0, 79, 0
2, 168750, Note_on_c, 0, 80, 79
2, 168840, Note_on_c, 0, 80, 0
2, 168840, Note_on_c, 0, 80, 80
2, 168840, Note_on_c, 0, 73, 40
2, 168885, Note_on_c, 0, 73, 0
2, 168885, Note_on_c, 0, 76, 52
2, 168930, Note_on_c, 0, 76, 0
2, 168930, Note_on_c, 0, 80, 0
2, 168930, Note_on_c, 0, 85, 78
2, 168930, Note_on_c, 0, 73, 43
2, 168975, Note_on_c, 0, 73, 0
2, 168975, Note_on_c, 0, 76, 49
2, 169020, Note_on_c, 0, 76, 0
2, 169020, Note_on_c, 0, 85, 0
2, 169020, Note_on_c, 0, 87, 87
2, 169020, Note_on_c, 0, 73, 42
2, 169065, Note_on_c, 0, 73, 0
2, 169065, Note_on_c, 0, 76, 48
2, 169110, Note_on_c, 0, 76, 0
2, 169110, Note_on_c, 0, 87, 0
2, 169110, Note_on_c, 0, 88, 95
2, 169110, Note_on_c, 0, 73, 39
2, 169155, Note_on_c, 0, 73, 0
2, 169155, Note_on_c, 0, 76, 49
2, 169200, Note_on_c, 0, 76, 0
2, 169200, Note_on_c, 0, 88, 0
2, 169200, Note_on_c, 0, 88, 104
2, 169200, Note_on_c, 0, 78, 46
2, 169245, Note_on_c, 0, 78, 0
2, 169245, Note_on_c, 0, 81, 49
2, 169290, Note_on_c, 0, 81, 0
2, 169290, Note_on_c, 0, 78, 43
2, 169335, Note_on_c, 0, 78, 0
2, 169335, Note_on_c, 0, 81, 54
2, 169380, Note_on_c, 0, 81, 0
2, 169380, Note_on_c, 0, 88, 0
2, 169380, Note_on_c, 0, 87, 84
2, 169380, Note_on_c, 0, 78, 38
2, 169425, Note_on_c, 0, 78, 0
2, 169425, Note_on_c, 0, 81, 51
2, 169470, Note_on_c, 0, 81, 0
2, 169470, Note_on_c, 0, 78, 40
2, 169515, Note_on_c, 0, 78, 0
2, 169515, Note_on_c, 0, 81, 52
2, 169560, Note_on_c, 0, 81, 0
2, 169560, Note_on_c, 0, 87, 0
2, 169560, Note_on_c, 0, 81, 76
2, 169560, Note_on_c, 0, 73, 38
2, 169605, Note_on_c, 0, 73, 0
2, 169605, Note_on_c, 0, 78, 50
2, 169650, Note_on_c, 0, 78, 0
2, 169650, Note_on_c, 0, 73, 41
2, 169695, Note_on_c, 0, 73, 0
2, 169695, Note_on_c, 0, 78, 50
2, 169740, Note_on_c, 0, 78, 0
2, 169740, Note_on_c, 0, 73, 40
2, 169785, Note_on_c, 0, 73, 0
2, 169785, Note_on_c, 0, 78, 52
2, 169830, Note_on_c, 0, 78, 0
2, 169830, Note_on_c, 0, 73, 43
2, 169875, Note_on_c, 0, 73, 0
2, 169875, Note_on_c, 0, 78, 51
2, 169877, Note_on_c, 0, 81, 0
2, 169920, Note_on_c, 0, 78, 0
2, 169920, Note_on_c, 0, 87, 78
2, 169920, Note_on_c, 0, 76, 42
2, 169965, Note_on_c, 0, 76, 0
2, 169965, Note_on_c, 0, 80, 50
2, 170010, Note_on_c, 0, 80, 0
2, 170010, Note_on_c, 0, 76, 38
2, 170055, Note_on_c, 0, 76, 0
2, 170055, Note_on_c, 0, 80, 50
2, 170100, Note_on_c, 0, 80, 0
2, 170100, Note_on_c, 0, 87, 0
2, 170100, Note_on_c, 0, 85, 53
2, 170100, Note_on_c, 0, 76, 40
2, 170145, Note_on_c, 0, 76, 0
2, 170145, Note_on_c, 0, 80, 46
2, 170190, Note_on_c, 0, 80, 0
2, 170190, Note_on_c, 0, 76, 43
2, 170235, Note_on_c, 0, 76, 0
2, 170235, Note_on_c, 0, 80, 52
2, 170280, Note_on_c, 0, 80, 0
2, 170280, Note_on_c, 0, 85, 0
2, 170280, Note_on_c, 0, 80, 46
2, 170280, Note_on_c, 0, 73, 36
2, 170325, Note_on_c, 0, 73, 0
2, 170325, Note_on_c, 0, 76, 48
2, 170370, Note_on_c, 0, 76, 0
2, 170370, Note_on_c, 0, 73, 41
2, 170415, Note_on_c, 0, 73, 0
2, 170415, Note_on_c, 0, 76, 47
2, 170460, Note_on_c, 0, 76, 0
2, 170460, Note_on_c, 0, 73, 40
2, 170505, Note_on_c, 0, 73, 0
2, 170505, Note_on_c, 0, 76, 46
2, 170550, Note_on_c, 0, 76, 0
2, 170550, Note_on_c, 0, 73, 43
2, 170595, Note_on_c, 0, 73, 0
2, 170595, Note_on_c, 0, 76, 46
2, 170640, Note_on_c, 0, 76, 0
2, 170640, Note_on_c, 0, 80, 0
2, 170640, Note_on_c, 0, 85, 57
2, 170640, Note_on_c, 0, 75, 42
2, 170685, Note_on_c, 0, 75, 0
2, 170685, Note_on_c, 0, 78, 49
2, 170730, Note_on_c, 0, 78, 0
2, 170730, Note_on_c, 0, 75, 39
2, 170775, Note_on_c, 0, 75, 0
2, 170775, Note_on_c, 0, 78, 45
2, 170820, Note_on_c, 0, 78, 0
2, 170820, Note_on_c, 0, 85, 0
2, 170820, Note_on_c, 0, 84, 51
2, 170820, Note_on_c, 0, 75, 43
2, 170865, Note_on_c, 0, 75, 0
2, 170865, Note_on_c, 0, 78, 53
2, 170910, Note_on_c, 0, 78, 0
2, 170910, Note_on_c, 0, 75, 43
2, 170955, Note_on_c, 0, 75, 0
2, 170955, Note_on_c, 0, 78, 49
2, 171000, Note_on_c, 0, 78, 0
2, 171000, Note_on_c, 0, 75, 39
2, 171045, Note_on_c, 0, 75, 0
2, 171045, Note_on_c, 0, 78, 49
2, 171090, Note_on_c, 0, 78, 0
2, 171090, Note_on_c, 0, 75, 40
2, 171135, Note_on_c, 0, 75, 0
2, 171135, Note_on_c, 0, 78, 45
2, 171180, Note_on_c, 0, 78, 0
2, 171180, Note_on_c, 0, 84, 0
2, 171180, Note_on_c, 0, 84, 53
2, 171180, Note_on_c, 0, 75, 46
2, 171225, Note_on_c, 0, 75, 0
2, 171225, Note_on_c, 0, 78, 47
2, 171270, Note_on_c, 0, 78, 0
2, 171270, Note_on_c, 0, 75, 38
2, 171315, Note_on_c, 0, 75, 0
2, 171315, Note_on_c, 0, 78, 50
2, 171360, Note_on_c, 0, 78, 0
2, 171360, Note_on_c, 0, 84, 0
2, 171360, Note_on_c, 0, 87, 78
2, 171360, Note_on_c, 0, 76, 40
2, 171405, Note_on_c, 0, 76, 0
2, 171405, Note_on_c, 0, 80, 49
2, 171450, Note_on_c, 0, 80, 0
2, 171450, Note_on_c, 0, 76, 44
2, 171495, Note_on_c, 0, 76, 0
2, 171495, Note_on_c, 0, 80, 53
2, 171540, Note_on_c, 0, 80, 0
2, 171540, Note_on_c, 0, 76, 45
2, 171585, Note_on_c, 0, 76, 0
2, 171585, Note_on_c, 0, 80, 54
2, 171630, Note_on_c, 0, 80, 0
2, 171630, Note_on_c, 0, 76, 45
2, 171675, Note_on_c, 0, 76, 0
2, 171675, Note_on_c, 0, 80, 49
2, 171720, Note_on_c, 0, 80, 0
2, 171720, Note_on_c, 0, 87, 0
2, 171720, Note_on_c, 0, 85, 56
2, 171720, Note_on_c, 0, 76, 40
2, 171765, Note_on_c, 0, 76, 0
2, 171765, Note_on_c, 0, 80, 51
2, 171810, Note_on_c, 0, 80, 0
2, 171810, Note_on_c, 0, 76, 39
2, 171855, Note_on_c, 0, 76, 0
2, 171855, Note_on_c, 0, 80, 49
2, 171900, Note_on_c, 0, 80, 0
2, 171900, Note_on_c, 0, 76, 40
2, 171945, Note_on_c, 0, 76, 0
2, 171945, Note_on_c, 0, 80, 49
2, 171990, Note_on_c, 0, 80, 0
2, 171990, Note_on_c, 0, 76, 38
2, 172035, Note_on_c, 0, 76, 0
2, 172035, Note_on_c, 0, 80, 50
2, 172080, Note_on_c, 0, 80, 0
2, 172080, Note_on_c, 0, 85, 0
2, 172080, Note_on_c, 0, 83, 44
2, 172080, Note_on_c, 0, 73, 37
2, 172125, Note_on_c, 0, 73, 0
2, 172125, Note_on_c, 0, 78, 52
2, 172170, Note_on_c, 0, 78, 0
2, 172170, Note_on_c, 0, 73, 37
2, 172215, Note_on_c, 0, 73, 0
2, 172215, Note_on_c, 0, 78, 52
2, 172260, Note_on_c, 0, 78, 0
2, 172260, Note_on_c, 0, 73, 36
2, 172305, Note_on_c, 0, 73, 0
2, 172305, Note_on_c, 0, 78, 51
2, 172350, Note_on_c, 0, 78, 0
2, 172350, Note_on_c, 0, 73, 39
2, 172395, Note_on_c, 0, 73, 0
2, 172395, Note_on_c, 0, 78, 50
2, 172440, Note_on_c, 0, 78, 0
2, 172440, Note_on_c, 0, 83, 0
2, 172440, Note_on_c, 0, 81, 47
2, 172440, Note_on_c, 0, 73, 46
2, 172485, Note_on_c, 0, 73, 0
2, 172485, Note_on_c, 0, 78, 56
2, 172530, Note_on_c, 0, 78, 0
2, 172530, Note_on_c, 0, 73, 42
2, 172575, Note_on_c, 0, 73, 0
2, 172575, Note_on_c, 0, 78, 55
2, 172620, Note_on_c, 0, 78, 0
2, 172620, Note_on_c, 0, 73, 42
2, 172665, Note_on_c, 0, 73, 0
2, 172665, Note_on_c, 0, 78, 55
2, 172710, Note_on_c, 0, 78, 0
2, 172710, Note_on_c, 0, 73, 37
2, 172755, Note_on_c, 0, 73, 0
2, 172755, Note_on_c, 0, 78, 48
2, 172800, Note_on_c, 0, 78, 0
2, 172800, Note_on_c, 0, 81, 0
2, 172800, Note_on_c, 0, 81, 47
2, 172800, Note_on_c, 0, 73, 37
2, 172845, Note_on_c, 0, 73, 0
2, 172845, Note_on_c, 0, 76, 50
2, 172890, Note_on_c, 0, 76, 0
2, 172890, Note_on_c, 0, 73, 43
2, 172935, Note_on_c, 0, 73, 0
2, 172935, Note_on_c, 0, 76, 48
2, 172980, Note_on_c, 0, 76, 0
2, 172980, Note_on_c, 0, 81, 0
2, 172980, Note_on_c, 0, 80, 50
2, 172980, Note_on_c, 0, 73, 43
2, 173025, Note_on_c, 0, 73, 0
2, 173025, Note_on_c, 0, 76, 51
2, 173070, Note_on_c, 0, 76, 0
2, 173070, Note_on_c, 0, 73, 39
2, 173115, Note_on_c, 0, 73, 0
2, 173115, Note_on_c, 0, 76, 48
2, 173160, Note_on_c, 0, 76, 0
2, 173160, Note_on_c, 0, 73, 42
2, 173205, Note_on_c, 0, 73, 0
2, 173205, Note_on_c, 0, 76, 50
2, 173250, Note_on_c, 0, 76, 0
2, 173250, Note_on_c, 0, 73, 47
2, 173295, Note_on_c, 0, 73, 0
2, 173295, Note_on_c, 0, 76, 49
2, 173340, Note_on_c, 0, 76, 0
2, 173340, Note_on_c, 0, 80, 0
2, 173340, Note_on_c, 0, 80, 66
2, 173340, Note_on_c, 0, 73, 42
2, 173385, Note_on_c, 0, 73, 0
2, 173385, Note_on_c, 0, 76, 49
2, 173430, Note_on_c, 0, 76, 0
2, 173430, Note_on_c, 0, 73, 42
2, 173475, Note_on_c, 0, 73, 0
2, 173475, Note_on_c, 0, 76, 48
2, 173498, Note_on_c, 0, 80, 0
2, 173520, Note_on_c, 0, 76, 0
2, 173520, Note_on_c, 0, 80, 50
2, 173520, Note_on_c, 0, 72, 45
2, 173565, Note_on_c, 0, 72, 0
2, 173565, Note_on_c, 0, 75, 47
2, 173610, Note_on_c, 0, 75, 0
2, 173610, Note_on_c, 0, 72, 46
2, 173655, Note_on_c, 0, 72, 0
2, 173655, Note_on_c, 0, 75, 52
2, 173700, Note_on_c, 0, 75, 0
2, 173700, Note_on_c, 0, 80, 0
2, 173700, Note_on_c, 0, 78, 50
2, 173700, Note_on_c, 0, 72, 45
2, 173745, Note_on_c, 0, 72, 0
2, 173745, Note_on_c, 0, 75, 50
2, 173790, Note_on_c, 0, 75, 0
2, 173790, Note_on_c, 0, 72, 48
2, 173835, Note_on_c, 0, 72, 0
2, 173835, Note_on_c, 0, 75, 46
2, 173880, Note_on_c, 0, 75, 0
2, 173880, Note_on_c, 0, 72, 40
2, 173925, Note_on_c, 0, 72, 0
2, 173925, Note_on_c, 0, 75, 51
2, 173970, Note_on_c, 0, 75, 0
2, 173970, Note_on_c, 0, 72, 42
2, 174015, Note_on_c, 0, 72, 0
2, 174015, Note_on_c, 0, 75, 52
2, 174060, Note_on_c, 0, 75, 0
2, 174060, Note_on_c, 0, 78, 0
2, 174060, Note_on_c, 0, 78, 64
2, 174060, Note_on_c, 0, 72, 39
2, 174105, Note_on_c, 0, 72, 0
2, 174105, Note_on_c, 0, 75, 49
2, 174150, Note_on_c, 0, 75, 0
2, 174150, Note_on_c, 0, 72, 45
2, 174195, Note_on_c, 0, 72, 0
2, 174195, Note_on_c, 0, 75, 48
2, 174218, Note_on_c, 0, 78, 0
2, 174240, Note_on_c, 0, 75, 0
2, 174240, Note_on_c, 0, 78, 67
2, 174240, Note_on_c, 0, 68, 33
2, 174285, Note_on_c, 0, 68, 0
2, 174285, Note_on_c, 0, 73, 47
2, 174330, Note_on_c, 0, 73, 0
2, 174330, Note_on_c, 0, 68, 40
2, 174375, Note_on_c, 0, 68, 0
2, 174375, Note_on_c, 0, 73, 53
2, 174398, Note_on_c, 0, 78, 0
2, 174420, Note_on_c, 0, 73, 0
2, 174420, Note_on_c, 0, 76, 44
2, 174465, Note_on_c, 0, 76, 0
2, 174465, Note_on_c, 0, 73, 43
2, 174510, Note_on_c, 0, 73, 0
2, 174510, Note_on_c, 0, 76, 49
2, 174555, Note_on_c, 0, 76, 0
2, 174555, Note_on_c, 0, 73, 40
2, 174600, Note_on_c, 0, 73, 0
2, 174600, Note_on_c, 0, 76, 44
2, 174645, Note_on_c, 0, 76, 0
2, 174645, Note_on_c, 0, 73, 41
2, 174690, Note_on_c, 0, 73, 0
2, 174690, Note_on_c, 0, 76, 52
2, 174735, Note_on_c, 0, 76, 0
2, 174735, Note_on_c, 0, 73, 42
2, 174780, Note_on_c, 0, 73, 0
2, 174780, Note_on_c, 0, 76, 50
2, 174825, Note_on_c, 0, 76, 0
2, 174825, Note_on_c, 0, 73, 40
2, 174870, Note_on_c, 0, 73, 0
2, 174870, Note_on_c, 0, 76, 46
2, 174915, Note_on_c, 0, 76, 0
2, 174915, Note_on_c, 0, 73, 38
2, 174960, Note_on_c, 0, 73, 0
2, 174960, Note_on_c, 0, 76, 45
2, 175005, Note_on_c, 0, 76, 0
2, 175005, Note_on_c, 0, 73, 48
2, 175050, Note_on_c, 0, 73, 0
2, 175050, Note_on_c, 0, 76, 52
2, 175095, Note_on_c, 0, 76, 0
2, 175095, Note_on_c, 0, 73, 55
2, 175140, Note_on_c, 0, 73, 0
2, 175140, Note_on_c, 0, 76, 58
2, 175185, Note_on_c, 0, 76, 0
2, 175185, Note_on_c, 0, 73, 61
2, 175230, Note_on_c, 0, 73, 0
2, 175230, Note_on_c, 0, 76, 64
2, 175275, Note_on_c, 0, 76, 0
2, 175275, Note_on_c, 0, 73, 68
2, 175320, Note_on_c, 0, 73, 0
2, 175320, Note_on_c, 0, 76, 83
2, 175365, Note_on_c, 0, 76, 0
2, 175365, Note_on_c, 0, 73, 78
2, 175410, Note_on_c, 0, 73, 0
2, 175410, Note_on_c, 0, 76, 75
2, 175455, Note_on_c, 0, 76, 0
2, 175455, Note_on_c, 0, 73, 71
2, 175500, Note_on_c, 0, 73, 0
2, 175500, Note_on_c, 0, 76, 67
2, 175545, Note_on_c, 0, 76, 0
2, 175545, Note_on_c, 0, 73, 64
2, 175590, Note_on_c, 0, 73, 0
2, 175590, Note_on_c, 0, 76, 60
2, 175635, Note_on_c, 0, 76, 0
2, 175635, Note_on_c, 0, 73, 57
2, 175680, Note_on_c, 0, 73, 0
2, 175680, Note_on_c, 0, 76, 49
2, 175725, Note_on_c, 0, 76, 0
2, 175725, Note_on_c, 0, 73, 44
2, 175770, Note_on_c, 0, 73, 0
2, 175770, Note_on_c, 0, 76, 50
2, 175815, Note_on_c, 0, 76, 0
2, 175815, Note_on_c, 0, 73, 43
2, 175860, Note_on_c, 0, 73, 0
2, 175860, Note_on_c, 0, 76, 51
2, 175905, Note_on_c, 0, 76, 0
2, 175905, Note_on_c, 0, 73, 40
2, 175950, Note_on_c, 0, 73, 0
2, 175950, Note_on_c, 0, 76, 51
2, 175995, Note_on_c, 0, 76, 0
2, 175995, Note_on_c, 0, 73, 41
2, 176040, Note_on_c, 0, 73, 0
2, 176040, Note_on_c, 0, 76, 50
2, 176085, Note_on_c, 0, 76, 0
2, 176085, Note_on_c, 0, 73, 41
2, 176130, Note_on_c, 0, 73, 0
2, 176130, Note_on_c, 0, 76, 48
2, 176175, Note_on_c, 0, 76, 0
2, 176175, Note_on_c, 0, 73, 37
2, 176220, Note_on_c, 0, 73, 0
2, 176220, Note_on_c, 0, 76, 59
2, 176220, Note_on_c, 0, 73, 37
2, 176265, Note_on_c, 0, 73, 0
2, 176265, Note_on_c, 0, 68, 38
2, 176310, Note_on_c, 0, 68, 0
2, 176310, Note_on_c, 0, 73, 48
2, 176355, Note_on_c, 0, 73, 0
2, 176355, Note_on_c, 0, 68, 45
2, 176378, Note_on_c, 0, 76, 0
2, 176400, Note_on_c, 0, 68, 0
2, 176400, Note_on_c, 0, 76, 45
2, 176400, Note_on_c, 0, 72, 49
2, 176445, Note_on_c, 0, 72, 0
2, 176445, Note_on_c, 0, 69, 45
2, 176490, Note_on_c, 0, 69, 0
2, 176490, Note_on_c, 0, 72, 48
2, 176535, Note_on_c, 0, 72, 0
2, 176535, Note_on_c, 0, 69, 41
2, 176580, Note_on_c, 0, 69, 0
2, 176580, Note_on_c, 0, 76, 0
2, 176580, Note_on_c, 0, 75, 47
2, 176580, Note_on_c, 0, 72, 49
2, 176625, Note_on_c, 0, 72, 0
2, 176625, Note_on_c, 0, 69, 43
2, 176670, Note_on_c, 0, 69, 0
2, 176670, Note_on_c, 0, 72, 50
2, 176715, Note_on_c, 0, 72, 0
2, 176715, Note_on_c, 0, 69, 41
2, 176760, Note_on_c, 0, 69, 0
2, 176760, Note_on_c, 0, 72, 47
2, 176805, Note_on_c, 0, 72, 0
2, 176805, Note_on_c, 0, 69, 36
2, 176850, Note_on_c, 0, 69, 0
2, 176850, Note_on_c, 0, 72, 51
2, 176895, Note_on_c, 0, 72, 0
2, 176895, Note_on_c, 0, 69, 41
2, 176940, Note_on_c, 0, 69, 0
2, 176940, Note_on_c, 0, 75, 0
2, 176940, Note_on_c, 0, 75, 51
2, 176940, Note_on_c, 0, 72, 49
2, 176985, Note_on_c, 0, 72, 0
2, 176985, Note_on_c, 0, 69, 45
2, 177030, Note_on_c, 0, 69, 0
2, 177030, Note_on_c, 0, 72, 44
2, 177075, Note_on_c, 0, 72, 0
2, 177075, Note_on_c, 0, 69, 41
2, 177120, Note_on_c, 0, 69, 0
2, 177120, Note_on_c, 0, 75, 0
2, 177120, Note_on_c, 0, 78, 53
2, 177120, Note_on_c, 0, 73, 47
2, 177165, Note_on_c, 0, 73, 0
2, 177165, Note_on_c, 0, 68, 38
2, 177210, Note_on_c, 0, 68, 0
2, 177210, Note_on_c, 0, 73, 53
2, 177255, Note_on_c, 0, 73, 0
2, 177255, Note_on_c, 0, 68, 42
2, 177300, Note_on_c, 0, 68, 0
2, 177300, Note_on_c, 0, 78, 0
2, 177300, Note_on_c, 0, 76, 54
2, 177300, Note_on_c, 0, 73, 48
2, 177345, Note_on_c, 0, 73, 0
2, 177345, Note_on_c, 0, 68, 42
2, 177390, Note_on_c, 0, 68, 0
2, 177390, Note_on_c, 0, 73, 51
2, 177435, Note_on_c, 0, 73, 0
2, 177435, Note_on_c, 0, 68, 36
2, 177480, Note_on_c, 0, 68, 0
2, 177480, Note_on_c, 0, 73, 48
2, 177525, Note_on_c, 0, 73, 0
2, 177525, Note_on_c, 0, 68, 39
2, 177570, Note_on_c, 0, 68, 0
2, 177570, Note_on_c, 0, 73, 49
2, 177615, Note_on_c, 0, 73, 0
2, 177615, Note_on_c, 0, 68, 41
2, 177660, Note_on_c, 0, 68, 0
2, 177660, Note_on_c, 0, 76, 0
2, 177660, Note_on_c, 0, 76, 58
2, 177660, Note_on_c, 0, 73, 50
2, 177705, Note_on_c, 0, 73, 0
2, 177705, Note_on_c, 0, 68, 36
2, 177750, Note_on_c, 0, 68, 0
2, 177750, Note_on_c, 0, 73, 53
2, 177795, Note_on_c, 0, 73, 0
2, 177795, Note_on_c, 0, 68, 41
2, 177840, Note_on_c, 0, 68, 0
2, 177840, Note_on_c, 0, 76, 0
2, 177840, Note_on_c, 0, 80, 60
2, 177840, Note_on_c, 0, 75, 52
2, 177885, Note_on_c, 0, 75, 0
2, 177885, Note_on_c, 0, 72, 43
2, 177930, Note_on_c, 0, 72, 0
2, 177930, Note_on_c, 0, 75, 49
2, 177975, Note_on_c, 0, 75, 0
2, 177975, Note_on_c, 0, 72, 41
2, 178020, Note_on_c, 0, 72, 0
2, 178020, Note_on_c, 0, 80, 0
2, 178020, Note_on_c, 0, 78, 62
2, 178020, Note_on_c, 0, 75, 49
2, 178065, Note_on_c, 0, 75, 0
2, 178065, Note_on_c, 0, 72, 41
2, 178110, Note_on_c, 0, 72, 0
2, 178110, Note_on_c, 0, 75, 50
2, 178155, Note_on_c, 0, 75, 0
2, 178155, Note_on_c, 0, 72, 41
2, 178200, Note_on_c, 0, 72, 0
2, 178200, Note_on_c, 0, 75, 55
2, 178245, Note_on_c, 0, 75, 0
2, 178245, Note_on_c, 0, 72, 38
2, 178290, Note_on_c, 0, 72, 0
2, 178290, Note_on_c, 0, 75, 46
2, 178335, Note_on_c, 0, 75, 0
2, 178335, Note_on_c, 0, 72, 42
2, 178380, Note_on_c, 0, 72, 0
2, 178380, Note_on_c, 0, 78, 0
2, 178380, Note_on_c, 0, 78, 65
2, 178380, Note_on_c, 0, 75, 52
2, 178425, Note_on_c, 0, 75, 0
2, 178425, Note_on_c, 0, 72, 37
2, 178470, Note_on_c, 0, 72, 0
2, 178470, Note_on_c, 0, 75, 50
2, 178515, Note_on_c, 0, 75, 0
2, 178515, Note_on_c, 0, 72, 40
2, 178538, Note_on_c, 0, 78, 0
2, 178560, Note_on_c, 0, 72, 0
2, 178560, Note_on_c, 0, 81, 67
2, 178560, Note_on_c, 0, 76, 53
2, 178605, Note_on_c, 0, 76, 0
2, 178605, Note_on_c, 0, 73, 39
2, 178650, Note_on_c, 0, 73, 0
2, 178650, Note_on_c, 0, 76, 45
2, 178695, Note_on_c, 0, 76, 0
2, 178695, Note_on_c, 0, 73, 40
2, 178718, Note_on_c, 0, 81, 0
2, 178740, Note_on_c, 0, 73, 0
2, 178740, Note_on_c, 0, 80, 69
2, 178740, Note_on_c, 0, 76, 52
2, 178785, Note_on_c, 0, 76, 0
2, 178785, Note_on_c, 0, 73, 39
2, 178830, Note_on_c, 0, 73, 0
2, 178830, Note_on_c, 0, 76, 51
2, 178875, Note_on_c, 0, 76, 0
2, 178875, Note_on_c, 0, 73, 44
2, 178898, Note_on_c, 0, 80, 0
2, 178920, Note_on_c, 0, 73, 0
2, 178920, Note_on_c, 0, 85, 97
2, 178920, Note_on_c, 0, 76, 47
2, 178965, Note_on_c, 0, 76, 0
2, 178965, Note_on_c, 0, 73, 43
2, 179010, Note_on_c, 0, 73, 0
2, 179010, Note_on_c, 0, 76, 48
2, 179055, Note_on_c, 0, 76, 0
2, 179055, Note_on_c, 0, 73, 41
2, 179100, Note_on_c, 0, 73, 0
2, 179100, Note_on_c, 0, 76, 50
2, 179145, Note_on_c, 0, 76, 0
2, 179145, Note_on_c, 0, 73, 42
2, 179190, Note_on_c, 0, 73, 0
2, 179190, Note_on_c, 0, 76, 49
2, 179235, Note_on_c, 0, 76, 0
2, 179235, Note_on_c, 0, 73, 40
2, 179280, Note_on_c, 0, 73, 0
2, 179280, Note_on_c, 0, 77, 49
2, 179325, Note_on_c, 0, 77, 0
2, 179325, Note_on_c, 0, 73, 40
2, 179370, Note_on_c, 0, 73, 0
2, 179370, Note_on_c, 0, 77, 50
2, 179415, Note_on_c, 0, 77, 0
2, 179415, Note_on_c, 0, 73, 43
2, 179460, Note_on_c, 0, 73, 0
2, 179460, Note_on_c, 0, 77, 50
2, 179505, Note_on_c, 0, 77, 0
2, 179505, Note_on_c, 0, 73, 44
2, 179550, Note_on_c, 0, 73, 0
2, 179550, Note_on_c, 0, 77, 50
2, 179595, Note_on_c, 0, 77, 0
2, 179595, Note_on_c, 0, 73, 43
2, 179640, Note_on_c, 0, 73, 0
2, 179640, Note_on_c, 0, 77, 52
2, 179685, Note_on_c, 0, 77, 0
2, 179685, Note_on_c, 0, 73, 41
2, 179730, Note_on_c, 0, 73, 0
2, 179730, Note_on_c, 0, 77, 54
2, 179775, Note_on_c, 0, 77, 0
2, 179775, Note_on_c, 0, 73, 40
2, 179820, Note_on_c, 0, 73, 0
2, 179820, Note_on_c, 0, 77, 47
2, 179865, Note_on_c, 0, 77, 0
2, 179865, Note_on_c, 0, 73, 38
2, 179910, Note_on_c, 0, 73, 0
2, 179910, Note_on_c, 0, 77, 47
2, 179955, Note_on_c, 0, 77, 0
2, 179955, Note_on_c, 0, 73, 41
2, 180000, Note_on_c, 0, 73, 0
2, 180000, Note_on_c, 0, 76, 52
2, 180045, Note_on_c, 0, 76, 0
2, 180045, Note_on_c, 0, 73, 45
2, 180090, Note_on_c, 0, 73, 0
2, 180090, Note_on_c, 0, 76, 52
2, 180135, Note_on_c, 0, 76, 0
2, 180135, Note_on_c, 0, 73, 41
2, 180180, Note_on_c, 0, 73, 0
2, 180180, Note_on_c, 0, 76, 49
2, 180225, Note_on_c, 0, 76, 0
2, 180225, Note_on_c, 0, 73, 39
2, 180270, Note_on_c, 0, 73, 0
2, 180270, Note_on_c, 0, 76, 51
2, 180315, Note_on_c, 0, 76, 0
2, 180315, Note_on_c, 0, 73, 45
2, 180360, Note_on_c, 0, 73, 0
2, 180360, Note_on_c, 0, 76, 53
2, 180405, Note_on_c, 0, 76, 0
2, 180405, Note_on_c, 0, 73, 43
2, 180450, Note_on_c, 0, 73, 0
2, 180450, Note_on_c, 0, 76, 50
2, 180495, Note_on_c, 0, 76, 0
2, 180495, Note_on_c, 0, 73, 44
2, 180540, Note_on_c, 0, 73, 0
2, 180540, Note_on_c, 0, 76, 45
2, 180585, Note_on_c, 0, 76, 0
2, 180585, Note_on_c, 0, 73, 43
2, 180630, Note_on_c, 0, 73, 0
2, 180630, Note_on_c, 0, 76, 49
2, 180675, Note_on_c, 0, 76, 0
2, 180675, Note_on_c, 0, 73, 38
2, 180720, Note_on_c, 0, 73, 0
2, 180720, Note_on_c, 0, 85, 0
2, 180720, Note_on_c, 0, 83, 92
2, 180720, Note_on_c, 0, 77, 47
2, 180765, Note_on_c, 0, 77, 0
2, 180765, Note_on_c, 0, 73, 42
2, 180810, Note_on_c, 0, 73, 0
2, 180810, Note_on_c, 0, 77, 48
2, 180855, Note_on_c, 0, 77, 0
2, 180855, Note_on_c, 0, 73, 46
2, 180900, Note_on_c, 0, 73, 0
2, 180900, Note_on_c, 0, 77, 48
2, 180945, Note_on_c, 0, 77, 0
2, 180945, Note_on_c, 0, 73, 39
2, 180990, Note_on_c, 0, 73, 0
2, 180990, Note_on_c, 0, 77, 46
2, 181035, Note_on_c, 0, 77, 0
2, 181035, Note_on_c, 0, 73, 43
2, 181037, Note_on_c, 0, 83, 0
2, 181080, Note_on_c, 0, 73, 0
2, 181080, Note_on_c, 0, 81, 80
2, 181080, Note_on_c, 0, 78, 49
2, 181125, Note_on_c, 0, 78, 0
2, 181125, Note_on_c, 0, 73, 41
2, 181170, Note_on_c, 0, 73, 0
2, 181170, Note_on_c, 0, 78, 50
2, 181215, Note_on_c, 0, 78, 0
2, 181215, Note_on_c, 0, 73, 39
2, 181260, Note_on_c, 0, 73, 0
2, 181260, Note_on_c, 0, 78, 51
2, 181305, Note_on_c, 0, 78, 0
2, 181305, Note_on_c, 0, 73, 39
2, 181350, Note_on_c, 0, 73, 0
2, 181350, Note_on_c, 0, 78, 50
2, 181395, Note_on_c, 0, 78, 0
2, 181395, Note_on_c, 0, 73, 43
2, 181397, Note_on_c, 0, 81, 0
2, 181440, Note_on_c, 0, 73, 0
2, 181440, Note_on_c, 0, 81, 65
2, 181440, Note_on_c, 0, 76, 47
2, 181485, Note_on_c, 0, 76, 0
2, 181485, Note_on_c, 0, 73, 40
2, 181530, Note_on_c, 0, 73, 0
2, 181530, Note_on_c, 0, 76, 47
2, 181575, Note_on_c, 0, 76, 0
2, 181575, Note_on_c, 0, 73, 45
2, 181620, Note_on_c, 0, 73, 0
2, 181620, Note_on_c, 0, 81, 0
2, 181620, Note_on_c, 0, 80, 58
2, 181620, Note_on_c, 0, 76, 48
2, 181665, Note_on_c, 0, 76, 0
2, 181665, Note_on_c, 0, 73, 42
2, 181710, Note_on_c, 0, 73, 0
2, 181710, Note_on_c, 0, 76, 49
2, 181755, Note_on_c, 0, 76, 0
2, 181755, Note_on_c, 0, 73, 42
2, 181800, Note_on_c, 0, 73, 0
2, 181800, Note_on_c, 0, 68, 45
2, 181890, Note_on_c, 0, 68, 0
2, 181890, Note_on_c, 0, 73, 52
2, 181980, Note_on_c, 0, 73, 0
2, 181980, Note_on_c, 0, 80, 0
2, 181980, Note_on_c, 0, 80, 78
2, 181980, Note_on_c, 0, 75, 58
2, 182070, Note_on_c, 0, 75, 0
2, 182070, Note_on_c, 0, 76, 64
2, 182138, Note_on_c, 0, 80, 0
2, 182160, Note_on_c, 0, 76, 0
2, 182160, Note_on_c, 0, 80, 65
2, 182160, Note_on_c, 0, 76, 71
2, 182318, Note_on_c, 0, 76, 0
2, 182340, Note_on_c, 0, 80, 0
2, 182340, Note_on_c, 0, 78, 63
2, 182340, Note_on_c, 0, 75, 58
2, 182498, Note_on_c, 0, 75, 0
2, 182520, Note_on_c, 0, 69, 35
2, 182565, Note_on_c, 0, 69, 0
2, 182565, Note_on_c, 0, 72, 45
2, 182610, Note_on_c, 0, 72, 0
2, 182610, Note_on_c, 0, 69, 42
2, 182655, Note_on_c, 0, 69, 0
2, 182655, Note_on_c, 0, 72, 49
2, 182700, Note_on_c, 0, 72, 0
2, 182700, Note_on_c, 0, 78, 0
2, 182700, Note_on_c, 0, 78, 77
2, 182700, Note_on_c, 0, 69, 39
2, 182745, Note_on_c, 0, 69, 0
2, 182745, Note_on_c, 0, 72, 49
2, 182790, Note_on_c, 0, 72, 0
2, 182790, Note_on_c, 0, 69, 44
2, 182835, Note_on_c, 0, 69, 0
2, 182835, Note_on_c, 0, 72, 47
2, 182858, Note_on_c, 0, 78, 0
2, 182880, Note_on_c, 0, 72, 0
2, 182880, Note_on_c, 0, 78, 67
2, 182880, Note_on_c, 0, 75, 45
2, 183038, Note_on_c, 0, 75, 0
2, 183060, Note_on_c, 0, 78, 0
2, 183060, Note_on_c, 0, 76, 54
2, 183060, Note_on_c, 0, 73, 33
2, 183218, Note_on_c, 0, 73, 0
2, 183240, Note_on_c, 0, 76, 0
2, 183240, Note_on_c, 0, 68, 18
2, 183285, Note_on_c, 0, 68, 0
2, 183285, Note_on_c, 0, 73, 25
2, 183330, Note_on_c, 0, 73, 0
2, 183330, Note_on_c, 0, 68, 18
2, 183375, Note_on_c, 0, 68, 0
2, 183375, Note_on_c, 0, 73, 20
2, 183420, Note_on_c, 0, 73, 0
2, 183420, Note_on_c, 0, 76, 54
2, 183465, Note_on_c, 0, 76, 0
2, 183465, Note_on_c, 0, 73, 57
2, 183510, Note_on_c, 0, 73, 0
2, 183510, Note_on_c, 0, 76, 61
2, 183555, Note_on_c, 0, 76, 0
2, 183555, Note_on_c, 0, 73, 64
2, 183600, Note_on_c, 0, 73, 0
2, 183600, Note_on_c, 0, 76, 92
2, 183645, Note_on_c, 0, 76, 0
2, 183645, Note_on_c, 0, 73, 91
2, 183690, Note_on_c, 0, 73, 0
2, 183690, Note_on_c, 0, 76, 89
2, 183735, Note_on_c, 0, 76, 0
2, 183735, Note_on_c, 0, 73, 88
2, 183780, Note_on_c, 0, 73, 0
2, 183780, Note_on_c, 0, 76, 86
2, 183825, Note_on_c, 0, 76, 0
2, 183825, Note_on_c, 0, 73, 84
2, 183870, Note_on_c, 0, 73, 0
2, 183870, Note_on_c, 0, 76, 83
2, 183915, Note_on_c, 0, 76, 0
2, 183915, Note_on_c, 0, 73, 81
2, 183960, Note_on_c, 0, 73, 0
2, 183960, Note_on_c, 0, 76, 80
2, 184005, Note_on_c, 0, 76, 0
2, 184005, Note_on_c, 0, 73, 78
2, 184050, Note_on_c, 0, 73, 0
2, 184050, Note_on_c, 0, 76, 76
2, 184095, Note_on_c, 0, 76, 0
2, 184095, Note_on_c, 0, 73, 75
2, 184140, Note_on_c, 0, 73, 0
2, 184140, Note_on_c, 0, 76, 73
2, 184185, Note_on_c, 0, 76, 0
2, 184185, Note_on_c, 0, 73, 72
2, 184230, Note_on_c, 0, 73, 0
2, 184230, Note_on_c, 0, 76, 70
2, 184275, Note_on_c, 0, 76, 0
2, 184275, Note_on_c, 0, 73, 68
2, 184320, Note_on_c, 0, 73, 0
2, 184320, Note_on_c, 0, 76, 43
2, 184365, Note_on_c, 0, 76, 0
2, 184365, Note_on_c, 0, 73, 39
2, 184410, Note_on_c, 0, 73, 0
2, 184410, Note_on_c, 0, 76, 49
2, 184455, Note_on_c, 0, 76, 0
2, 184455, Note_on_c, 0, 73, 43
2, 184500, Note_on_c, 0, 73, 0
2, 184500, Note_on_c, 0, 76, 51
2, 184545, Note_on_c, 0, 76, 0
2, 184545, Note_on_c, 0, 73, 40
2, 184590, Note_on_c, 0, 73, 0
2, 184590, Note_on_c, 0, 76, 50
2, 184635, Note_on_c, 0, 76, 0
2, 184635, Note_on_c, 0, 73, 38
2, 184680, Note_on_c, 0, 73, 0
2, 184680, Note_on_c, 0, 76, 51
2, 184725, Note_on_c, 0, 76, 0
2, 184725, Note_on_c, 0, 73, 41
2, 184770, Note_on_c, 0, 73, 0
2, 184770, Note_on_c, 0, 76, 44
2, 184815, Note_on_c, 0, 76, 0
2, 184815, Note_on_c, 0, 73, 42
2, 184860, Note_on_c, 0, 73, 0
2, 184860, Note_on_c, 0, 76, 61
2, 184860, Note_on_c, 0, 73, 39
2, 184905, Note_on_c, 0, 73, 0
2, 184905, Note_on_c, 0, 68, 42
2, 184950, Note_on_c, 0, 68, 0
2, 184950, Note_on_c, 0, 73, 49
2, 184995, Note_on_c, 0, 73, 0
2, 184995, Note_on_c, 0, 68, 37
2, 185018, Note_on_c, 0, 76, 0
2, 185040, Note_on_c, 0, 68, 0
2, 185040, Note_on_c, 0, 76, 45
2, 185040, Note_on_c, 0, 72, 50
2, 185085, Note_on_c, 0, 72, 0
2, 185085, Note_on_c, 0, 69, 43
2, 185130, Note_on_c, 0, 69, 0
2, 185130, Note_on_c, 0, 72, 53
2, 185175, Note_on_c, 0, 72, 0
2, 185175, Note_on_c, 0, 69, 39
2, 185220, Note_on_c, 0, 69, 0
2, 185220, Note_on_c, 0, 76, 0
2, 185220, Note_on_c, 0, 75, 46
2, 185220, Note_on_c, 0, 72, 52
2, 185265, Note_on_c, 0, 72, 0
2, 185265, Note_on_c, 0, 69, 39
2, 185310, Note_on_c, 0, 69, 0
2, 185310, Note_on_c, 0, 72, 46
2, 185355, Note_on_c, 0, 72, 0
2, 185355, Note_on_c, 0, 69, 43
2, 185400, Note_on_c, 0, 69, 0
2, 185400, Note_on_c, 0, 72, 54
2, 185445, Note_on_c, 0, 72, 0
2, 185445, Note_on_c, 0, 69, 42
2, 185490, Note_on_c, 0, 69, 0
2, 185490, Note_on_c, 0, 72, 47
2, 185535, Note_on_c, 0, 72, 0
2, 185535, Note_on_c, 0, 69, 41
2, 185580, Note_on_c, 0, 69, 0
2, 185580, Note_on_c, 0, 75, 0
2, 185580, Note_on_c, 0, 74, 49
2, 185580, Note_on_c, 0, 72, 48
2, 185625, Note_on_c, 0, 72, 0
2, 185625, Note_on_c, 0, 69, 47
2, 185670, Note_on_c, 0, 69, 0
2, 185670, Note_on_c, 0, 74, 0
2, 185670, Note_on_c, 0, 75, 49
2, 185670, Note_on_c, 0, 72, 49
2, 185715, Note_on_c, 0, 72, 0
2, 185715, Note_on_c, 0, 69, 43
2, 185760, Note_on_c, 0, 69, 0
2, 185760, Note_on_c, 0, 75, 0
2, 185760, Note_on_c, 0, 78, 50
2, 185760, Note_on_c, 0, 73, 53
2, 185805, Note_on_c, 0, 73, 0
2, 185805, Note_on_c, 0, 68, 34
2, 185850, Note_on_c, 0, 68, 0
2, 185850, Note_on_c, 0, 73, 51
2, 185895, Note_on_c, 0, 73, 0
2, 185895, Note_on_c, 0, 68, 45
2, 185940, Note_on_c, 0, 68, 0
2, 185940, Note_on_c, 0, 78, 0
2, 185940, Note_on_c, 0, 76, 51
2, 185940, Note_on_c, 0, 73, 50
2, 185985, Note_on_c, 0, 73, 0
2, 185985, Note_on_c, 0, 68, 41
2, 186030, Note_on_c, 0, 68, 0
2, 186030, Note_on_c, 0, 73, 49
2, 186075, Note_on_c, 0, 73, 0
2, 186075, Note_on_c, 0, 68, 42
2, 186120, Note_on_c, 0, 68, 0
2, 186120, Note_on_c, 0, 73, 50
2, 186165, Note_on_c, 0, 73, 0
2, 186165, Note_on_c, 0, 68, 39
2, 186210, Note_on_c, 0, 68, 0
2, 186210, Note_on_c, 0, 73, 55
2, 186255, Note_on_c, 0, 73, 0
2, 186255, Note_on_c, 0, 68, 39
2, 186300, Note_on_c, 0, 68, 0
2, 186300, Note_on_c, 0, 76, 0
2, 186300, Note_on_c, 0, 75, 53
2, 186300, Note_on_c, 0, 73, 51
2, 186345, Note_on_c, 0, 73, 0
2, 186345, Note_on_c, 0, 68, 34
2, 186390, Note_on_c, 0, 68, 0
2, 186390, Note_on_c, 0, 75, 0
2, 186390, Note_on_c, 0, 76, 54
2, 186390, Note_on_c, 0, 73, 51
2, 186435, Note_on_c, 0, 73, 0
2, 186435, Note_on_c, 0, 68, 37
2, 186480, Note_on_c, 0, 68, 0
2, 186480, Note_on_c, 0, 76, 0
2, 186480, Note_on_c, 0, 80, 55
2, 186480, Note_on_c, 0, 75, 50
2, 186525, Note_on_c, 0, 75, 0
2, 186525, Note_on_c, 0, 72, 42
2, 186570, Note_on_c, 0, 72, 0
2, 186570, Note_on_c, 0, 75, 54
2, 186615, Note_on_c, 0, 75, 0
2, 186615, Note_on_c, 0, 72, 42
2, 186638, Note_on_c, 0, 80, 0
2, 186660, Note_on_c, 0, 72, 0
2, 186660, Note_on_c, 0, 78, 56
2, 186660, Note_on_c, 0, 75, 48
2, 186705, Note_on_c, 0, 75, 0
2, 186705, Note_on_c, 0, 72, 42
2, 186750, Note_on_c, 0, 72, 0
2, 186750, Note_on_c, 0, 75, 51
2, 186795, Note_on_c, 0, 75, 0
2, 186795, Note_on_c, 0, 72, 40
2, 186818, Note_on_c, 0, 78, 0
2, 186840, Note_on_c, 0, 72, 0
2, 186840, Note_on_c, 0, 77, 57
2, 186840, Note_on_c, 0, 75, 51
2, 186885, Note_on_c, 0, 75, 0
2, 186885, Note_on_c, 0, 72, 48
2, 186930, Note_on_c, 0, 72, 0
2, 186930, Note_on_c, 0, 75, 49
2, 186975, Note_on_c, 0, 75, 0
2, 186975, Note_on_c, 0, 72, 36
2, 186998, Note_on_c, 0, 77, 0
2, 187020, Note_on_c, 0, 72, 0
2, 187020, Note_on_c, 0, 78, 58
2, 187020, Note_on_c, 0, 75, 55
2, 187065, Note_on_c, 0, 75, 0
2, 187065, Note_on_c, 0, 72, 46
2, 187110, Note_on_c, 0, 72, 0
2, 187110, Note_on_c, 0, 75, 50
2, 187155, Note_on_c, 0, 75, 0
2, 187155, Note_on_c, 0, 72, 46
2, 187178, Note_on_c, 0, 78, 0
2, 187200, Note_on_c, 0, 72, 0
2, 187200, Note_on_c, 0, 81, 59
2, 187200, Note_on_c, 0, 76, 50
2, 187245, Note_on_c, 0, 76, 0
2, 187245, Note_on_c, 0, 73, 40
2, 187290, Note_on_c, 0, 73, 0
2, 187290, Note_on_c, 0, 76, 47
2, 187335, Note_on_c, 0, 76, 0
2, 187335, Note_on_c, 0, 73, 42
2, 187358, Note_on_c, 0, 81, 0
2, 187380, Note_on_c, 0, 73, 0
2, 187380, Note_on_c, 0, 80, 60
2, 187380, Note_on_c, 0, 76, 51
2, 187425, Note_on_c, 0, 76, 0
2, 187425, Note_on_c, 0, 73, 37
2, 187470, Note_on_c, 0, 73, 0
2, 187470, Note_on_c, 0, 76, 54
2, 187515, Note_on_c, 0, 76, 0
2, 187515, Note_on_c, 0, 73, 39
2, 187538, Note_on_c, 0, 80, 0
2, 187560, Note_on_c, 0, 73, 0
2, 187560, Note_on_c, 0, 85, 61
2, 187560, Note_on_c, 0, 73, 45
2, 187605, Note_on_c, 0, 73, 0
2, 187605, Note_on_c, 0, 68, 38
2, 187650, Note_on_c, 0, 68, 0
2, 187650, Note_on_c, 0, 73, 50
2, 187695, Note_on_c, 0, 73, 0
2, 187695, Note_on_c, 0, 68, 36
2, 187740, Note_on_c, 0, 68, 0
2, 187740, Note_on_c, 0, 73, 52
2, 187785, Note_on_c, 0, 73, 0
2, 187785, Note_on_c, 0, 68, 44
2, 187830, Note_on_c, 0, 68, 0
2, 187830, Note_on_c, 0, 73, 55
2, 187875, Note_on_c, 0, 73, 0
2, 187875, Note_on_c, 0, 68, 36
2, 187920, Note_on_c, 0, 68, 0
2, 187920, Note_on_c, 0, 74, 52
2, 187965, Note_on_c, 0, 74, 0
2, 187965, Note_on_c, 0, 68, 40
2, 188010, Note_on_c, 0, 68, 0
2, 188010, Note_on_c, 0, 74, 53
2, 188055, Note_on_c, 0, 74, 0
2, 188055, Note_on_c, 0, 68, 42
2, 188100, Note_on_c, 0, 68, 0
2, 188100, Note_on_c, 0, 74, 51
2, 188145, Note_on_c, 0, 74, 0
2, 188145, Note_on_c, 0, 68, 38
2, 188190, Note_on_c, 0, 68, 0
2, 188190, Note_on_c, 0, 74, 57
2, 188235, Note_on_c, 0, 74, 0
2, 188235, Note_on_c, 0, 68, 37
2, 188280, Note_on_c, 0, 68, 0
2, 188280, Note_on_c, 0, 74, 53
2, 188325, Note_on_c, 0, 74, 0
2, 188325, Note_on_c, 0, 68, 39
2, 188370, Note_on_c, 0, 68, 0
2, 188370, Note_on_c, 0, 74, 51
2, 188415, Note_on_c, 0, 74, 0
2, 188415, Note_on_c, 0, 68, 39
2, 188460, Note_on_c, 0, 68, 0
2, 188460, Note_on_c, 0, 74, 60
2, 188505, Note_on_c, 0, 74, 0
2, 188505, Note_on_c, 0, 68, 36
2, 188550, Note_on_c, 0, 68, 0
2, 188550, Note_on_c, 0, 74, 53
2, 188595, Note_on_c, 0, 74, 0
2, 188595, Note_on_c, 0, 68, 40
2, 188640, Note_on_c, 0, 68, 0
2, 188640, Note_on_c, 0, 76, 78
2, 188685, Note_on_c, 0, 76, 0
2, 188685, Note_on_c, 0, 73, 41
2, 188730, Note_on_c, 0, 73, 0
2, 188730, Note_on_c, 0, 76, 77
2, 188775, Note_on_c, 0, 76, 0
2, 188775, Note_on_c, 0, 73, 41
2, 188820, Note_on_c, 0, 73, 0
2, 188820, Note_on_c, 0, 76, 77
2, 188865, Note_on_c, 0, 76, 0
2, 188865, Note_on_c, 0, 73, 46
2, 188910, Note_on_c, 0, 73, 0
2, 188910, Note_on_c, 0, 76, 72
2, 188955, Note_on_c, 0, 76, 0
2, 188955, Note_on_c, 0, 73, 39
2, 189000, Note_on_c, 0, 73, 0
2, 189000, Note_on_c, 0, 85, 0
2, 189000, Note_on_c, 0, 85, 109
2, 189000, Note_on_c, 0, 76, 78
2, 189045, Note_on_c, 0, 76, 0
2, 189045, Note_on_c, 0, 73, 43
2, 189090, Note_on_c, 0, 73, 0
2, 189090, Note_on_c, 0, 76, 73
2, 189135, Note_on_c, 0, 76, 0
2, 189135, Note_on_c, 0, 73, 43
2, 189180, Note_on_c, 0, 73, 0
2, 189180, Note_on_c, 0, 76, 75
2, 189225, Note_on_c, 0, 76, 0
2, 189225, Note_on_c, 0, 73, 42
2, 189270, Note_on_c, 0, 73, 0
2, 189270, Note_on_c, 0, 76, 75
2, 189315, Note_on_c, 0, 76, 0
2, 189315, Note_on_c, 0, 73, 39
2, 189360, Note_on_c, 0, 73, 0
2, 189360, Note_on_c, 0, 77, 77
2, 189405, Note_on_c, 0, 77, 0
2, 189405, Note_on_c, 0, 73, 38
2, 189450, Note_on_c, 0, 73, 0
2, 189450, Note_on_c, 0, 77, 71
2, 189495, Note_on_c, 0, 77, 0
2, 189495, Note_on_c, 0, 73, 40
2, 189540, Note_on_c, 0, 73, 0
2, 189540, Note_on_c, 0, 77, 73
2, 189585, Note_on_c, 0, 77, 0
2, 189585, Note_on_c, 0, 73, 41
2, 189630, Note_on_c, 0, 73, 0
2, 189630, Note_on_c, 0, 77, 75
2, 189675, Note_on_c, 0, 77, 0
2, 189675, Note_on_c, 0, 73, 38
2, 189720, Note_on_c, 0, 73, 0
2, 189720, Note_on_c, 0, 77, 79
2, 189765, Note_on_c, 0, 77, 0
2, 189765, Note_on_c, 0, 73, 44
2, 189810, Note_on_c, 0, 73, 0
2, 189810, Note_on_c, 0, 77, 76
2, 189855, Note_on_c, 0, 77, 0
2, 189855, Note_on_c, 0, 73, 43
2, 189900, Note_on_c, 0, 73, 0
2, 189900, Note_on_c, 0, 77, 74
2, 189945, Note_on_c, 0, 77, 0
2, 189945, Note_on_c, 0, 73, 40
2, 189990, Note_on_c, 0, 73, 0
2, 189990, Note_on_c, 0, 77, 75
2, 190035, Note_on_c, 0, 77, 0
2, 190035, Note_on_c, 0, 73, 43
2, 190080, Note_on_c, 0, 73, 0
2, 190080, Note_on_c, 0, 78, 72
2, 190125, Note_on_c, 0, 78, 0
2, 190125, Note_on_c, 0, 73, 40
2, 190170, Note_on_c, 0, 73, 0
2, 190170, Note_on_c, 0, 78, 76
2, 190215, Note_on_c, 0, 78, 0
2, 190215, Note_on_c, 0, 73, 40
2, 190260, Note_on_c, 0, 73, 0
2, 190260, Note_on_c, 0, 78, 77
2, 190305, Note_on_c, 0, 78, 0
2, 190305, Note_on_c, 0, 73, 38
2, 190350, Note_on_c, 0, 73, 0
2, 190350, Note_on_c, 0, 78, 76
2, 190395, Note_on_c, 0, 78, 0
2, 190395, Note_on_c, 0, 73, 44
2, 190440, Note_on_c, 0, 73, 0
2, 190440, Note_on_c, 0, 78, 79
2, 190485, Note_on_c, 0, 78, 0
2, 190485, Note_on_c, 0, 73, 41
2, 190530, Note_on_c, 0, 73, 0
2, 190530, Note_on_c, 0, 78, 76
2, 190575, Note_on_c, 0, 78, 0
2, 190575, Note_on_c, 0, 73, 41
2, 190620, Note_on_c, 0, 73, 0
2, 190620, Note_on_c, 0, 78, 80
2, 190665, Note_on_c, 0, 78, 0
2, 190665, Note_on_c, 0, 73, 31
2, 190710, Note_on_c, 0, 73, 0
2, 190710, Note_on_c, 0, 78, 80
2, 190755, Note_on_c, 0, 78, 0
2, 190755, Note_on_c, 0, 73, 44
2, 190800, Note_on_c, 0, 73, 0
2, 190800, Note_on_c, 0, 85, 0
2, 190800, Note_on_c, 0, 83, 108
2, 190800, Note_on_c, 0, 76, 49
2, 190845, Note_on_c, 0, 76, 0
2, 190845, Note_on_c, 0, 72, 39
2, 190890, Note_on_c, 0, 72, 0
2, 190890, Note_on_c, 0, 76, 47
2, 190935, Note_on_c, 0, 76, 0
2, 190935, Note_on_c, 0, 72, 40
2, 190980, Note_on_c, 0, 72, 0
2, 190980, Note_on_c, 0, 75, 51
2, 191025, Note_on_c, 0, 75, 0
2, 191025, Note_on_c, 0, 72, 39
2, 191070, Note_on_c, 0, 72, 0
2, 191070, Note_on_c, 0, 75, 50
2, 191115, Note_on_c, 0, 75, 0
2, 191115, Note_on_c, 0, 72, 38
2, 191160, Note_on_c, 0, 72, 0
2, 191160, Note_on_c, 0, 83, 0
2, 191160, Note_on_c, 0, 81, 95
2, 191160, Note_on_c, 0, 74, 43
2, 191205, Note_on_c, 0, 74, 0
2, 191205, Note_on_c, 0, 72, 46
2, 191250, Note_on_c, 0, 72, 0
2, 191250, Note_on_c, 0, 74, 46
2, 191295, Note_on_c, 0, 74, 0
2, 191295, Note_on_c, 0, 72, 41
2, 191340, Note_on_c, 0, 72, 0
2, 191340, Note_on_c, 0, 75, 51
2, 191385, Note_on_c, 0, 75, 0
2, 191385, Note_on_c, 0, 72, 40
2, 191430, Note_on_c, 0, 72, 0
2, 191430, Note_on_c, 0, 75, 51
2, 191475, Note_on_c, 0, 75, 0
2, 191475, Note_on_c, 0, 72, 43
2, 191520, Note_on_c, 0, 72, 0
2, 191520, Note_on_c, 0, 81, 0
2, 191520, Note_on_c, 0, 81, 52
2, 191520, Note_on_c, 0, 76, 51
2, 191565, Note_on_c, 0, 76, 0
2, 191565, Note_on_c, 0, 73, 39
2, 191610, Note_on_c, 0, 73, 0
2, 191610, Note_on_c, 0, 76, 52
2, 191655, Note_on_c, 0, 76, 0
2, 191655, Note_on_c, 0, 73, 36
2, 191700, Note_on_c, 0, 73, 0
2, 191700, Note_on_c, 0, 81, 0
2, 191700, Note_on_c, 0, 80, 56
2, 191700, Note_on_c, 0, 76, 52
2, 191745, Note_on_c, 0, 76, 0
2, 191745, Note_on_c, 0, 73, 42
2, 191790, Note_on_c, 0, 73, 0
2, 191790, Note_on_c, 0, 76, 49
2, 191835, Note_on_c, 0, 76, 0
2, 191835, Note_on_c, 0, 73, 39
2, 191880, Note_on_c, 0, 73, 0
2, 191880, Note_on_c, 0, 68, 50
2, 191959, Note_on_c, 0, 68, 0
2, 191970, Note_on_c, 0, 73, 62
2, 192049, Note_on_c, 0, 73, 0
2, 192060, Note_on_c, 0, 80, 0
2, 192060, Note_on_c, 0, 80, 69
2, 192060, Note_on_c, 0, 75, 61
2, 192139, Note_on_c, 0, 75, 0
2, 192150, Note_on_c, 0, 76, 57
2, 192218, Note_on_c, 0, 80, 0
2, 192229, Note_on_c, 0, 76, 0
2, 192240, Note_on_c, 0, 80, 53
2, 192240, Note_on_c, 0, 76, 61
2, 192398, Note_on_c, 0, 76, 0
2, 192420, Note_on_c, 0, 80, 0
2, 192420, Note_on_c, 0, 78, 57
2, 192420, Note_on_c, 0, 75, 51
2, 192578, Note_on_c, 0, 75, 0
2, 192600, Note_on_c, 0, 69, 35
2, 192645, Note_on_c, 0, 69, 0
2, 192645, Note_on_c, 0, 72, 49
2, 192690, Note_on_c, 0, 72, 0
2, 192690, Note_on_c, 0, 69, 43
2, 192735, Note_on_c, 0, 69, 0
2, 192735, Note_on_c, 0, 72, 48
2, 192780, Note_on_c, 0, 72, 0
2, 192780, Note_on_c, 0, 78, 0
2, 192780, Note_on_c, 0, 78, 68
2, 192780, Note_on_c, 0, 69, 42
2, 192825, Note_on_c, 0, 69, 0
2, 192825, Note_on_c, 0, 72, 50
2, 192870, Note_on_c, 0, 72, 0
2, 192870, Note_on_c, 0, 69, 45
2, 192915, Note_on_c, 0, 69, 0
2, 192915, Note_on_c, 0, 72, 48
2, 192938, Note_on_c, 0, 78, 0
2, 192960, Note_on_c, 0, 72, 0
2, 192960, Note_on_c, 0, 78, 49
2, 192960, Note_on_c, 0, 75, 62
2, 193118, Note_on_c, 0, 75, 0
2, 193140, Note_on_c, 0, 78, 0
2, 193140, Note_on_c, 0, 76, 52
2, 193140, Note_on_c, 0, 73, 58
2, 193298, Note_on_c, 0, 73, 0
2, 193320, Note_on_c, 0, 76, 0
2, 193320, Note_on_c, 0, 68, 41
2, 193365, Note_on_c, 0, 68, 0
2, 193365, Note_on_c, 0, 73, 51
2, 193410, Note_on_c, 0, 73, 0
2, 193410, Note_on_c, 0, 68, 37
2, 193455, Note_on_c, 0, 68, 0
2, 193455, Note_on_c, 0, 73, 54
2, 193500, Note_on_c, 0, 73, 0
2, 193500, Note_on_c, 0, 76, 68
2, 193545, Note_on_c, 0, 76, 0
2, 193545, Note_on_c, 0, 73, 71
2, 193590, Note_on_c, 0, 73, 0
2, 193590, Note_on_c, 0, 76, 75
2, 193635, Note_on_c, 0, 76, 0
2, 193635, Note_on_c, 0, 73, 78
2, 193680, Note_on_c, 0, 73, 0
2, 193680, Note_on_c, 0, 76, 92
2, 193725, Note_on_c, 0, 76, 0
2, 193725, Note_on_c, 0, 73, 91
2, 193770, Note_on_c, 0, 73, 0
2, 193770, Note_on_c, 0, 76, 89
2, 193815, Note_on_c, 0, 76, 0
2, 193815, Note_on_c, 0, 73, 88
2, 193860, Note_on_c, 0, 73, 0
2, 193860, Note_on_c, 0, 76, 86
2, 193905, Note_on_c, 0, 76, 0
2, 193905, Note_on_c, 0, 73, 84
2, 193950, Note_on_c, 0, 73, 0
2, 193950, Note_on_c, 0, 76, 83
2, 193995, Note_on_c, 0, 76, 0
2, 193995, Note_on_c, 0, 73, 81
2, 194040, Note_on_c, 0, 73, 0
2, 194040, Note_on_c, 0, 76, 80
2, 194085, Note_on_c, 0, 76, 0
2, 194085, Note_on_c, 0, 73, 78
2, 194130, Note_on_c, 0, 73, 0
2, 194130, Note_on_c, 0, 76, 76
2, 194175, Note_on_c, 0, 76, 0
2, 194175, Note_on_c, 0, 73, 75
2, 194220, Note_on_c, 0, 73, 0
2, 194220, Note_on_c, 0, 76, 73
2, 194265, Note_on_c, 0, 76, 0
2, 194265, Note_on_c, 0, 73, 72
2, 194310, Note_on_c, 0, 73, 0
2, 194310, Note_on_c, 0, 76, 70
2, 194355, Note_on_c, 0, 76, 0
2, 194355, Note_on_c, 0, 73, 68
2, 194400, Note_on_c, 0, 73, 0
2, 194400, Note_on_c, 0, 76, 50
2, 194445, Note_on_c, 0, 76, 0
2, 194445, Note_on_c, 0, 73, 41
2, 194490, Note_on_c, 0, 73, 0
2, 194490, Note_on_c, 0, 76, 49
2, 194535, Note_on_c, 0, 76, 0
2, 194535, Note_on_c, 0, 73, 45
2, 194580, Note_on_c, 0, 73, 0
2, 194580, Note_on_c, 0, 76, 51
2, 194625, Note_on_c, 0, 76, 0
2, 194625, Note_on_c, 0, 73, 38
2, 194670, Note_on_c, 0, 73, 0
2, 194670, Note_on_c, 0, 76, 47
2, 194715, Note_on_c, 0, 76, 0
2, 194715, Note_on_c, 0, 73, 43
2, 194760, Note_on_c, 0, 73, 0
2, 194760, Note_on_c, 0, 76, 50
2, 194805, Note_on_c, 0, 76, 0
2, 194805, Note_on_c, 0, 73, 44
2, 194850, Note_on_c, 0, 73, 0
2, 194850, Note_on_c, 0, 76, 49
2, 194895, Note_on_c, 0, 76, 0
2, 194895, Note_on_c, 0, 73, 38
2, 194940, Note_on_c, 0, 73, 0
2, 194940, Note_on_c, 0, 76, 58
2, 194940, Note_on_c, 0, 73, 36
2, 194985, Note_on_c, 0, 73, 0
2, 194985, Note_on_c, 0, 68, 34
2, 195030, Note_on_c, 0, 68, 0
2, 195030, Note_on_c, 0, 73, 54
2, 195075, Note_on_c, 0, 73, 0
2, 195075, Note_on_c, 0, 68, 38
2, 195098, Note_on_c, 0, 76, 0
2, 195120, Note_on_c, 0, 68, 0
2, 195120, Note_on_c, 0, 76, 76
2, 195120, Note_on_c, 0, 66, 42
2, 195165, Note_on_c, 0, 66, 0
2, 195165, Note_on_c, 0, 69, 52
2, 195210, Note_on_c, 0, 69, 0
2, 195210, Note_on_c, 0, 66, 37
2, 195255, Note_on_c, 0, 66, 0
2, 195255, Note_on_c, 0, 69, 50
2, 195300, Note_on_c, 0, 69, 0
2, 195300, Note_on_c, 0, 76, 0
2, 195300, Note_on_c, 0, 75, 79
2, 195300, Note_on_c, 0, 66, 39
2, 195345, Note_on_c, 0, 66, 0
2, 195345, Note_on_c, 0, 69, 46
2, 195390, Note_on_c, 0, 69, 0
2, 195390, Note_on_c, 0, 66, 45
2, 195435, Note_on_c, 0, 66, 0
2, 195435, Note_on_c, 0, 69, 52
2, 195480, Note_on_c, 0, 69, 0
2, 195480, Note_on_c, 0, 66, 41
2, 195525, Note_on_c, 0, 66, 0
2, 195525, Note_on_c, 0, 69, 58
2, 195570, Note_on_c, 0, 69, 0
2, 195570, Note_on_c, 0, 66, 40
2, 195615, Note_on_c, 0, 66, 0
2, 195615, Note_on_c, 0, 69, 47
2, 195660, Note_on_c, 0, 69, 0
2, 195660, Note_on_c, 0, 75, 0
2, 195660, Note_on_c, 0, 75, 84
2, 195660, Note_on_c, 0, 66, 48
2, 195705, Note_on_c, 0, 66, 0
2, 195705, Note_on_c, 0, 69, 48
2, 195750, Note_on_c, 0, 69, 0
2, 195750, Note_on_c, 0, 66, 43
2, 195795, Note_on_c, 0, 66, 0
2, 195795, Note_on_c, 0, 69, 49
2, 195818, Note_on_c, 0, 75, 0
2, 195840, Note_on_c, 0, 69, 0
2, 195840, Note_on_c, 0, 75, 77
2, 195840, Note_on_c, 0, 64, 35
2, 195885, Note_on_c, 0, 64, 0
2, 195885, Note_on_c, 0, 68, 52
2, 195930, Note_on_c, 0, 68, 0
2, 195930, Note_on_c, 0, 64, 44
2, 195975, Note_on_c, 0, 64, 0
2, 195975, Note_on_c, 0, 68, 51
2, 196020, Note_on_c, 0, 68, 0
2, 196020, Note_on_c, 0, 75, 0
2, 196020, Note_on_c, 0, 73, 69
2, 196020, Note_on_c, 0, 64, 37
2, 196065, Note_on_c, 0, 64, 0
2, 196065, Note_on_c, 0, 68, 51
2, 196110, Note_on_c, 0, 68, 0
2, 196110, Note_on_c, 0, 64, 41
2, 196155, Note_on_c, 0, 64, 0
2, 196155, Note_on_c, 0, 68, 50
2, 196200, Note_on_c, 0, 68, 0
2, 196200, Note_on_c, 0, 64, 41
2, 196245, Note_on_c, 0, 64, 0
2, 196245, Note_on_c, 0, 68, 49
2, 196290, Note_on_c, 0, 68, 0
2, 196290, Note_on_c, 0, 64, 43
2, 196335, Note_on_c, 0, 64, 0
2, 196335, Note_on_c, 0, 68, 53
2, 196380, Note_on_c, 0, 68, 0
2, 196380, Note_on_c, 0, 73, 0
2, 196380, Note_on_c, 0, 73, 89
2, 196380, Note_on_c, 0, 64, 37
2, 196425, Note_on_c, 0, 64, 0
2, 196425, Note_on_c, 0, 68, 48
2, 196470, Note_on_c, 0, 68, 0
2, 196470, Note_on_c, 0, 64, 43
2, 196515, Note_on_c, 0, 64, 0
2, 196515, Note_on_c, 0, 68, 49
2, 196538, Note_on_c, 0, 73, 0
2, 196560, Note_on_c, 0, 68, 0
2, 196560, Note_on_c, 0, 73, 78
2, 196560, Note_on_c, 0, 66, 43
2, 196605, Note_on_c, 0, 66, 0
2, 196605, Note_on_c, 0, 69, 46
2, 196650, Note_on_c, 0, 69, 0
2, 196650, Note_on_c, 0, 66, 42
2, 196695, Note_on_c, 0, 66, 0
2, 196695, Note_on_c, 0, 69, 44
2, 196718, Note_on_c, 0, 73, 0
2, 196740, Note_on_c, 0, 69, 0
2, 196740, Note_on_c, 0, 72, 85
2, 196740, Note_on_c, 0, 66, 45
2, 196785, Note_on_c, 0, 66, 0
2, 196785, Note_on_c, 0, 69, 49
2, 196830, Note_on_c, 0, 69, 0
2, 196830, Note_on_c, 0, 66, 36
2, 196875, Note_on_c, 0, 66, 0
2, 196875, Note_on_c, 0, 69, 50
2, 196898, Note_on_c, 0, 72, 0
2, 196920, Note_on_c, 0, 69, 0
2, 196920, Note_on_c, 0, 71, 91
2, 196920, Note_on_c, 0, 66, 39
2, 196965, Note_on_c, 0, 66, 0
2, 196965, Note_on_c, 0, 69, 51
2, 197010, Note_on_c, 0, 69, 0
2, 197010, Note_on_c, 0, 66, 38
2, 197055, Note_on_c, 0, 66, 0
2, 197055, Note_on_c, 0, 69, 49
2, 197078, Note_on_c, 0, 71, 0
2, 197100, Note_on_c, 0, 69, 0
2, 197100, Note_on_c, 0, 72, 97
2, 197100, Note_on_c, 0, 66, 48
2, 197145, Note_on_c, 0, 66, 0
2, 197145, Note_on_c, 0, 69, 47
2, 197190, Note_on_c, 0, 69, 0
2, 197190, Note_on_c, 0, 66, 42
2, 197235, Note_on_c, 0, 66, 0
2, 197235, Note_on_c, 0, 69, 50
2, 197258, Note_on_c, 0, 72, 0
2, 197280, Note_on_c, 0, 69, 0
2, 197280, Note_on_c, 0, 75, 109
2, 197280, Note_on_c, 0, 64, 34
2, 197325, Note_on_c, 0, 64, 0
2, 197325, Note_on_c, 0, 68, 52
2, 197370, Note_on_c, 0, 68, 0
2, 197370, Note_on_c, 0, 64, 43
2, 197415, Note_on_c, 0, 64, 0
2, 197415, Note_on_c, 0, 68, 49
2, 197460, Note_on_c, 0, 68, 0
2, 197460, Note_on_c, 0, 64, 42
2, 197505, Note_on_c, 0, 64, 0
2, 197505, Note_on_c, 0, 68, 50
2, 197550, Note_on_c, 0, 68, 0
2, 197550, Note_on_c, 0, 64, 41
2, 197595, Note_on_c, 0, 64, 0
2, 197595, Note_on_c, 0, 68, 54
2, 197640, Note_on_c, 0, 68, 0
2, 197640, Note_on_c, 0, 75, 0
2, 197640, Note_on_c, 0, 73, 98
2, 197640, Note_on_c, 0, 64, 39
2, 197685, Note_on_c, 0, 64, 0
2, 197685, Note_on_c, 0, 68, 53
2, 197730, Note_on_c, 0, 68, 0
2, 197730, Note_on_c, 0, 64, 40
2, 197775, Note_on_c, 0, 64, 0
2, 197775, Note_on_c, 0, 68, 50
2, 197820, Note_on_c, 0, 68, 0
2, 197820, Note_on_c, 0, 64, 35
2, 197865, Note_on_c, 0, 64, 0
2, 197865, Note_on_c, 0, 68, 48
2, 197910, Note_on_c, 0, 68, 0
2, 197910, Note_on_c, 0, 64, 41
2, 197955, Note_on_c, 0, 64, 0
2, 197955, Note_on_c, 0, 68, 50
2, 198000, Note_on_c, 0, 68, 0
2, 198000, Note_on_c, 0, 73, 0
2, 198000, Note_on_c, 0, 71, 104
2, 198000, Note_on_c, 0, 63, 45
2, 198045, Note_on_c, 0, 63, 0
2, 198045, Note_on_c, 0, 66, 45
2, 198090, Note_on_c, 0, 66, 0
2, 198090, Note_on_c, 0, 63, 45
2, 198135, Note_on_c, 0, 63, 0
2, 198135, Note_on_c, 0, 66, 44
2, 198180, Note_on_c, 0, 66, 0
2, 198180, Note_on_c, 0, 63, 44
2, 198225, Note_on_c, 0, 63, 0
2, 198225, Note_on_c, 0, 66, 43
2, 198270, Note_on_c, 0, 66, 0
2, 198270, Note_on_c, 0, 63, 43
2, 198315, Note_on_c, 0, 63, 0
2, 198315, Note_on_c, 0, 66, 43
2, 198360, Note_on_c, 0, 66, 0
2, 198360, Note_on_c, 0, 71, 0
2, 198360, Note_on_c, 0, 69, 101
2, 198360, Note_on_c, 0, 63, 42
2, 198405, Note_on_c, 0, 63, 0
2, 198405, Note_on_c, 0, 66, 42
2, 198450, Note_on_c, 0, 66, 0
2, 198450, Note_on_c, 0, 63, 41
2, 198495, Note_on_c, 0, 63, 0
2, 198495, Note_on_c, 0, 66, 41
2, 198540, Note_on_c, 0, 66, 0
2, 198540, Note_on_c, 0, 63, 41
2, 198585, Note_on_c, 0, 63, 0
2, 198585, Note_on_c, 0, 66, 40
2, 198630, Note_on_c, 0, 66, 0
2, 198630, Note_on_c, 0, 63, 40
2, 198675, Note_on_c, 0, 63, 0
2, 198675, Note_on_c, 0, 66, 39
2, 198720, Note_on_c, 0, 66, 0
2, 198720, Note_on_c, 0, 69, 0
2, 198720, Note_on_c, 0, 69, 99
2, 198720, Note_on_c, 0, 61, 39
2, 198765, Note_on_c, 0, 61, 0
2, 198765, Note_on_c, 0, 64, 39
2, 198810, Note_on_c, 0, 64, 0
2, 198810, Note_on_c, 0, 61, 38
2, 198855, Note_on_c, 0, 61, 0
2, 198855, Note_on_c, 0, 64, 38
2, 198900, Note_on_c, 0, 64, 0
2, 198900, Note_on_c, 0, 69, 0
2, 198900, Note_on_c, 0, 68, 97
2, 198900, Note_on_c, 0, 61, 37
2, 198945, Note_on_c, 0, 61, 0
2, 198945, Note_on_c, 0, 64, 37
2, 198990, Note_on_c, 0, 64, 0
2, 198990, Note_on_c, 0, 61, 37
2, 199035, Note_on_c, 0, 61, 0
2, 199035, Note_on_c, 0, 64, 36
2, 199080, Note_on_c, 0, 64, 0
2, 199080, Note_on_c, 0, 61, 36
2, 199125, Note_on_c, 0, 61, 0
2, 199125, Note_on_c, 0, 64, 35
2, 199170, Note_on_c, 0, 64, 0
2, 199170, Note_on_c, 0, 61, 35
2, 199215, Note_on_c, 0, 61, 0
2, 199215, Note_on_c, 0, 64, 35
2, 199260, Note_on_c, 0, 64, 0
2, 199260, Note_on_c, 0, 68, 0
2, 199260, Note_on_c, 0, 68, 95
2, 199260, Note_on_c, 0, 61, 34
2, 199305, Note_on_c, 0, 61, 0
2, 199305, Note_on_c, 0, 64, 34
2, 199350, Note_on_c, 0, 64, 0
2, 199350, Note_on_c, 0, 61, 33
2, 199395, Note_on_c, 0, 61, 0
2, 199395, Note_on_c, 0, 64, 33
2, 199418, Note_on_c, 0, 68, 0
2, 199440, Note_on_c, 0, 64, 0
2, 199440, Note_on_c, 0, 68, 94
2, 199440, Note_on_c, 0, 61, 33
2, 199485, Note_on_c, 0, 61, 0
2, 199485, Note_on_c, 0, 63, 32
2, 199530, Note_on_c, 0, 63, 0
2, 199530, Note_on_c, 0, 61, 32
2, 199575, Note_on_c, 0, 61, 0
2, 199575, Note_on_c, 0, 63, 31
2, 199620, Note_on_c, 0, 63, 0
2, 199620, Note_on_c, 0, 68, 0
2, 199620, Note_on_c, 0, 66, 92
2, 199620, Note_on_c, 0, 61, 31
2, 199665, Note_on_c, 0, 61, 0
2, 199665, Note_on_c, 0, 63, 31
2, 199710, Note_on_c, 0, 63, 0
2, 199710, Note_on_c, 0, 61, 30
2, 199755, Note_on_c, 0, 61, 0
2, 199755, Note_on_c, 0, 63, 30
2, 199800, Note_on_c, 0, 63, 0
2, 199800, Note_on_c, 0, 61, 29
2, 199845, Note_on_c, 0, 61, 0
2, 199845, Note_on_c, 0, 63, 29
2, 199890, Note_on_c, 0, 63, 0
2, 199890, Note_on_c, 0, 61, 29
2, 199935, Note_on_c, 0, 61, 0
2, 199935, Note_on_c, 0, 63, 28
2, 199980, Note_on_c, 0, 63, 0
2, 199980, Note_on_c, 0, 66, 0
2, 199980, Note_on_c, 0, 66, 90
2, 199980, Note_on_c, 0, 61, 28
2, 200025, Note_on_c, 0, 61, 0
2, 200025, Note_on_c, 0, 63, 27
2, 200070, Note_on_c, 0, 63, 0
2, 200070, Note_on_c, 0, 61, 27
2, 200115, Note_on_c, 0, 61, 0
2, 200115, Note_on_c, 0, 63, 27
2, 200138, Note_on_c, 0, 66, 0
2, 200160, Note_on_c, 0, 63, 0
2, 200160, Note_on_c, 0, 66, 88
2, 200160, Note_on_c, 0, 61, 26
2, 200205, Note_on_c, 0, 61, 0
2, 200205, Note_on_c, 0, 63, 26
2, 200250, Note_on_c, 0, 63, 0
2, 200250, Note_on_c, 0, 61, 25
2, 200295, Note_on_c, 0, 61, 0
2, 200295, Note_on_c, 0, 63, 25
2, 200340, Note_on_c, 0, 63, 0
2, 200340, Note_on_c, 0, 61, 25
2, 200385, Note_on_c, 0, 61, 0
2, 200385, Note_on_c, 0, 63, 24
2, 200430, Note_on_c, 0, 63, 0
2, 200430, Note_on_c, 0, 61, 24
2, 200475, Note_on_c, 0, 61, 0
2, 200475, Note_on_c, 0, 63, 23
2, 200520, Note_on_c, 0, 63, 0
2, 200520, Note_on_c, 0, 66, 0
2, 200520, Note_on_c, 0, 64, 86
2, 200520, Note_on_c, 0, 61, 23
2, 200565, Note_on_c, 0, 61, 0
2, 200565, Note_on_c, 0, 64, 23
2, 200610, Note_on_c, 0, 64, 0
2, 200610, Note_on_c, 0, 61, 22
2, 200655, Note_on_c, 0, 61, 0
2, 200655, Note_on_c, 0, 64, 22
2, 200700, Note_on_c, 0, 64, 0
2, 200700, Note_on_c, 0, 64, 0
2, 200700, Note_on_c, 0, 61, 21
2, 200880, Note_on_c, 0, 61, 0
2, 200880, Note_on_c, 0, 69, 83
2, 201354, Note_on_c, 0, 69, 0
2, 201420, Note_on_c, 0, 68, 80
2, 201578, Note_on_c, 0, 68, 0
2, 201600, Note_on_c, 0, 68, 78
2, 202140, Note_on_c, 0, 64, 82
2, 202298, Note_on_c, 0, 64, 0
2, 202320, Note_on_c, 0, 64, 78
2, 202478, Note_on_c, 0, 64, 0
2, 202500, Note_on_c, 0, 63, 85
2, 202658, Note_on_c, 0, 63, 0
2, 202680, Note_on_c, 0, 62, 91
2, 202838, Note_on_c, 0, 62, 0
2, 202860, Note_on_c, 0, 63, 97
2, 202867, Note_on_c, 0, 68, 0
2, 203018, Note_on_c, 0, 63, 0
2, 203040, Note_on_c, 0, 68, 87
2, 203040, Note_on_c, 0, 66, 104
2, 203357, Note_on_c, 0, 66, 0
2, 203400, Note_on_c, 0, 64, 87
2, 203558, Note_on_c, 0, 64, 0
2, 203580, Note_on_c, 0, 68, 0
2, 203760, Note_on_c, 0, 69, 69
2, 204660, Note_on_c, 0, 69, 0
2, 204660, Note_on_c, 0, 68, 85
2, 204818, Note_on_c, 0, 68, 0
2, 204840, Note_on_c, 0, 68, 89
2, 205560, Note_on_c, 0, 64, 89
2, 206100, Note_on_c, 0, 64, 0
2, 206100, Note_on_c, 0, 63, 99
2, 206258, Note_on_c, 0, 63, 0
2, 206280, Note_on_c, 0, 62, 105
2, 206438, Note_on_c, 0, 62, 0
2, 206460, Note_on_c, 0, 63, 111
2, 206618, Note_on_c, 0, 63, 0
2, 206640, Note_on_c, 0, 68, 0
2, 206640, Note_on_c, 0, 68, 78
2, 206640, Note_on_c, 0, 66, 118
2, 207000, Note_on_c, 0, 66, 0
2, 207000, Note_on_c, 0, 64, 101
2, 207180, Note_on_c, 0, 64, 0
2, 207180, Note_on_c, 0, 68, 0
2, 207360, Note_on_c, 0, 69, 76
2, 208309, Note_on_c, 0, 69, 0
2, 208440, Note_on_c, 0, 68, 87
2, 208757, Note_on_c, 0, 68, 0
2, 208800, Note_on_c, 0, 68, 94
2, 209749, Note_on_c, 0, 68, 0
2, 209880, Note_on_c, 0, 73, 107
2, 209880, Note_on_c, 0, 64, 1
2, 209880, Note_on_c, 0, 61, 83
2, 210420, Note_on_c, 0, 61, 0
2, 210420, Note_on_c, 0, 64, 0
2, 210420, Note_on_c, 0, 73, 0
2, 210420, Note_on_c, 0, 72, 83
2, 210420, Note_on_c, 0, 63, 1
2, 210420, Note_on_c, 0, 60, 87
2, 210600, Note_on_c, 0, 63, 0
2, 210600, Note_on_c, 0, 62, 2
2, 210780, Note_on_c, 0, 62, 0
2, 210780, Note_on_c, 0, 60, 0
2, 210780, Note_on_c, 0, 72, 0
2, 210780, Note_on_c, 0, 72, 109
2, 210780, Note_on_c, 0, 63, 19
2, 210780, Note_on_c, 0, 60, 88
2, 210960, Note_on_c, 0, 60, 0
2, 210960, Note_on_c, 0, 63, 0
2, 210960, Note_on_c, 0, 72, 0
2, 210960, Note_on_c, 0, 75, 118
2, 210960, Note_on_c, 0, 66, 28
2, 210960, Note_on_c, 0, 63, 102
2, 211500, Note_on_c, 0, 63, 0
2, 211500, Note_on_c, 0, 66, 0
2, 211500, Note_on_c, 0, 75, 0
2, 211500, Note_on_c, 0, 73, 99
2, 211500, Note_on_c, 0, 64, 8
2, 211500, Note_on_c, 0, 61, 87
2, 211680, Note_on_c, 0, 61, 0
2, 211680, Note_on_c, 0, 64, 0
2, 211680, Note_on_c, 0, 73, 0
2, 211680, Note_on_c, 0, 73, 96
2, 211680, Note_on_c, 0, 64, 1
2, 211680, Note_on_c, 0, 61, 88
2, 211860, Note_on_c, 0, 61, 0
2, 211860, Note_on_c, 0, 64, 0
2, 211860, Note_on_c, 0, 73, 0
2, 211860, Note_on_c, 0, 72, 86
2, 211860, Note_on_c, 0, 63, 1
2, 211860, Note_on_c, 0, 60, 89
2, 212040, Note_on_c, 0, 63, 0
2, 212040, Note_on_c, 0, 62, 2
2, 212220, Note_on_c, 0, 62, 0
2, 212220, Note_on_c, 0, 60, 0
2, 212220, Note_on_c, 0, 72, 0
2, 212220, Note_on_c, 0, 72, 105
2, 212220, Note_on_c, 0, 63, 15
2, 212220, Note_on_c, 0, 60, 94
2, 212400, Note_on_c, 0, 60, 0
2, 212400, Note_on_c, 0, 63, 0
2, 212400, Note_on_c, 0, 72, 0
2, 212400, Note_on_c, 0, 75, 118
2, 212400, Note_on_c, 0, 66, 28
2, 212400, Note_on_c, 0, 63, 104
2, 212940, Note_on_c, 0, 63, 0
2, 212940, Note_on_c, 0, 66, 0
2, 212940, Note_on_c, 0, 75, 0
2, 212940, Note_on_c, 0, 73, 99
2, 212940, Note_on_c, 0, 64, 8
2, 212940, Note_on_c, 0, 61, 86
2, 213120, Note_on_c, 0, 61, 0
2, 213120, Note_on_c, 0, 64, 0
2, 213120, Note_on_c, 0, 73, 0
2, 213120, Note_on_c, 0, 76, 113
2, 213120, Note_on_c, 0, 67, 6
2, 213120, Note_on_c, 0, 64, 102
2, 213300, Note_on_c, 0, 64, 0
2, 213300, Note_on_c, 0, 67, 0
2, 213300, Note_on_c, 0, 76, 0
2, 213300, Note_on_c, 0, 75, 105
2, 213300, Note_on_c, 0, 66, 3
2, 213300, Note_on_c, 0, 63, 83
2, 213480, Note_on_c, 0, 66, 0
2, 213480, Note_on_c, 0, 65, 2
2, 213660, Note_on_c, 0, 65, 0
2, 213660, Note_on_c, 0, 63, 0
2, 213660, Note_on_c, 0, 75, 0
2, 213660, Note_on_c, 0, 75, 120
2, 213660, Note_on_c, 0, 66, 15
2, 213660, Note_on_c, 0, 63, 92
2, 213840, Note_on_c, 0, 63, 0
2, 213840, Note_on_c, 0, 66, 0
2, 213840, Note_on_c, 0, 75, 0
2, 213840, Note_on_c, 0, 78, 121
2, 213840, Note_on_c, 0, 69, 28
2, 213840, Note_on_c, 0, 66, 101
2, 214380, Note_on_c, 0, 66, 0
2, 214380, Note_on_c, 0, 69, 0
2, 214380, Note_on_c, 0, 78, 0
2, 214380, Note_on_c, 0, 76, 102
2, 214380, Note_on_c, 0, 67, 8
2, 214380, Note_on_c, 0, 64, 89
2, 214560, Note_on_c, 0, 64, 0
2, 214560, Note_on_c, 0, 67, 0
2, 214560, Note_on_c, 0, 76, 0
2, 214560, Note_on_c, 0, 76, 102
2, 214560, Note_on_c, 0, 67, 2
2, 214560, Note_on_c, 0, 64, 88
2, 214740, Note_on_c, 0, 64, 0
2, 214740, Note_on_c, 0, 67, 0
2, 214740, Note_on_c, 0, 76, 0
2, 214740, Note_on_c, 0, 75, 90
2, 214740, Note_on_c, 0, 66, 5
2, 214740, Note_on_c, 0, 63, 84
2, 214920, Note_on_c, 0, 66, 0
2, 214920, Note_on_c, 0, 65, 2
2, 215100, Note_on_c, 0, 65, 0
2, 215100, Note_on_c, 0, 63, 0
2, 215100, Note_on_c, 0, 75, 0
2, 215100, Note_on_c, 0, 75, 109
2, 215100, Note_on_c, 0, 66, 15
2, 215100, Note_on_c, 0, 63, 94
2, 215280, Note_on_c, 0, 63, 0
2, 215280, Note_on_c, 0, 66, 0
2, 215280, Note_on_c, 0, 75, 0
2, 215280, Note_on_c, 0, 78, 121
2, 215280, Note_on_c, 0, 69, 28
2, 215280, Note_on_c, 0, 66, 95
2, 215820, Note_on_c, 0, 66, 0
2, 215820, Note_on_c, 0, 69, 0
2, 215820, Note_on_c, 0, 78, 0
2, 215820, Note_on_c, 0, 76, 102
2, 215820, Note_on_c, 0, 67, 8
2, 215820, Note_on_c, 0, 64, 87
2, 216000, Note_on_c, 0, 64, 0
2, 216000, Note_on_c, 0, 67, 0
2, 216000, Note_on_c, 0, 76, 0
2, 216000, Note_on_c, 0, 72, 78
2, 216949, Note_on_c, 0, 72, 0
2, 217080, Note_on_c, 0, 71, 88
2, 217397, Note_on_c, 0, 71, 0
2, 217440, Note_on_c, 0, 71, 82
2, 218520, Note_on_c, 0, 71, 0
2, 218520, Note_on_c, 0, 76, 61
2, 218520, Note_on_c, 0, 67, 4
2, 218520, Note_on_c, 0, 64, 80
2, 219060, Note_on_c, 0, 64, 0
2, 219060, Note_on_c, 0, 67, 0
2, 219060, Note_on_c, 0, 76, 0
2, 219060, Note_on_c, 0, 75, 58
2, 219060, Note_on_c, 0, 66, 4
2, 219060, Note_on_c, 0, 63, 90
2, 219240, Note_on_c, 0, 66, 0
2, 219240, Note_on_c, 0, 65, 6
2, 219420, Note_on_c, 0, 65, 0
2, 219420, Note_on_c, 0, 63, 0
2, 219420, Note_on_c, 0, 75, 0
2, 219420, Note_on_c, 0, 75, 62
2, 219420, Note_on_c, 0, 66, 8
2, 219420, Note_on_c, 0, 63, 90
2, 219600, Note_on_c, 0, 63, 0
2, 219600, Note_on_c, 0, 66, 0
2, 219600, Note_on_c, 0, 75, 0
2, 219600, Note_on_c, 0, 78, 64
2, 219600, Note_on_c, 0, 69, 11
2, 219600, Note_on_c, 0, 66, 97
2, 219780, Note_on_c, 0, 66, 0
2, 219780, Note_on_c, 0, 69, 0
2, 219780, Note_on_c, 0, 78, 0
2, 219780, Note_on_c, 0, 76, 66
2, 219780, Note_on_c, 0, 67, 13
2, 219780, Note_on_c, 0, 64, 85
2, 219960, Note_on_c, 0, 67, 0
2, 219960, Note_on_c, 0, 66, 15
2, 220140, Note_on_c, 0, 66, 0
2, 220140, Note_on_c, 0, 64, 0
2, 220140, Note_on_c, 0, 76, 0
2, 220140, Note_on_c, 0, 76, 70
2, 220140, Note_on_c, 0, 67, 17
2, 220140, Note_on_c, 0, 64, 90
2, 220320, Note_on_c, 0, 64, 0
2, 220320, Note_on_c, 0, 67, 0
2, 220320, Note_on_c, 0, 76, 0
2, 220320, Note_on_c, 0, 79, 72
2, 220320, Note_on_c, 0, 71, 19
2, 220320, Note_on_c, 0, 67, 101
2, 220500, Note_on_c, 0, 67, 0
2, 220500, Note_on_c, 0, 71, 0
2, 220500, Note_on_c, 0, 79, 0
2, 220500, Note_on_c, 0, 78, 74
2, 220500, Note_on_c, 0, 70, 21
2, 220500, Note_on_c, 0, 66, 89
2, 220680, Note_on_c, 0, 70, 0
2, 220680, Note_on_c, 0, 69, 23
2, 220860, Note_on_c, 0, 69, 0
2, 220860, Note_on_c, 0, 66, 0
2, 220860, Note_on_c, 0, 78, 0
2, 220860, Note_on_c, 0, 78, 79
2, 220860, Note_on_c, 0, 70, 25
2, 220860, Note_on_c, 0, 66, 95
2, 221040, Note_on_c, 0, 66, 0
2, 221040, Note_on_c, 0, 70, 0
2, 221040, Note_on_c, 0, 78, 0
2, 221040, Note_on_c, 0, 81, 81
2, 221040, Note_on_c, 0, 71, 28
2, 221040, Note_on_c, 0, 69, 103
2, 221400, Note_on_c, 0, 69, 0
2, 221400, Note_on_c, 0, 81, 0
2, 221400, Note_on_c, 0, 79, 78
2, 221400, Note_on_c, 0, 67, 84
2, 221760, Note_on_c, 0, 67, 0
2, 221760, Note_on_c, 0, 79, 0
2, 221760, Note_on_c, 0, 71, 0
2, 221760, Note_on_c, 0, 81, 95
2, 221760, Note_on_c, 0, 78, 33
2, 221760, Note_on_c, 0, 69, 92
2, 221760, Note_on_c, 0, 66, 18
2, 221940, Note_on_c, 0, 66, 0
2, 221940, Note_on_c, 0, 81, 0
2, 221940, Note_on_c, 0, 78, 0
2, 221940, Note_on_c, 0, 69, 0
2, 221940, Note_on_c, 0, 79, 87
2, 221940, Note_on_c, 0, 76, 28
2, 221940, Note_on_c, 0, 67, 88
2, 221940, Note_on_c, 0, 64, 21
2, 222120, Note_on_c, 0, 64, 0
2, 222120, Note_on_c, 0, 76, 0
2, 222120, Note_on_c, 0, 75, 23
2, 222120, Note_on_c, 0, 63, 21
2, 222300, Note_on_c, 0, 63, 0
2, 222300, Note_on_c, 0, 79, 0
2, 222300, Note_on_c, 0, 67, 0
2, 222300, Note_on_c, 0, 75, 0
2, 222300, Note_on_c, 0, 79, 94
2, 222300, Note_on_c, 0, 76, 30
2, 222300, Note_on_c, 0, 67, 90
2, 222300, Note_on_c, 0, 64, 19
2, 222480, Note_on_c, 0, 64, 0
2, 222480, Note_on_c, 0, 79, 0
2, 222480, Note_on_c, 0, 76, 0
2, 222480, Note_on_c, 0, 67, 0
2, 222480, Note_on_c, 0, 81, 99
2, 222480, Note_on_c, 0, 78, 30
2, 222480, Note_on_c, 0, 69, 97
2, 222480, Note_on_c, 0, 66, 20
2, 222660, Note_on_c, 0, 66, 0
2, 222660, Note_on_c, 0, 81, 0
2, 222660, Note_on_c, 0, 78, 0
2, 222660, Note_on_c, 0, 69, 0
2, 222660, Note_on_c, 0, 79, 83
2, 222660, Note_on_c, 0, 76, 24
2, 222660, Note_on_c, 0, 67, 88
2, 222660, Note_on_c, 0, 64, 17
2, 222840, Note_on_c, 0, 64, 0
2, 222840, Note_on_c, 0, 76, 0
2, 222840, Note_on_c, 0, 75, 25
2, 222840, Note_on_c, 0, 63, 18
2, 223020, Note_on_c, 0, 63, 0
2, 223020, Note_on_c, 0, 79, 0
2, 223020, Note_on_c, 0, 67, 0
2, 223020, Note_on_c, 0, 75, 0
2, 223020, Note_on_c, 0, 79, 102
2, 223020, Note_on_c, 0, 76, 24
2, 223020, Note_on_c, 0, 67, 107
2, 223020, Note_on_c, 0, 64, 21
2, 223178, Note_on_c, 0, 67, 0
2, 223178, Note_on_c, 0, 79, 0
2, 223200, Note_on_c, 0, 76, 0
2, 223200, Note_on_c, 0, 64, 0
2, 223200, Note_on_c, 0, 81, 92
2, 223200, Note_on_c, 0, 78, 28
2, 223200, Note_on_c, 0, 69, 110
2, 223200, Note_on_c, 0, 66, 19
2, 223358, Note_on_c, 0, 69, 0
2, 223358, Note_on_c, 0, 81, 0
2, 223380, Note_on_c, 0, 78, 0
2, 223380, Note_on_c, 0, 66, 0
2, 223380, Note_on_c, 0, 79, 100
2, 223380, Note_on_c, 0, 76, 35
2, 223380, Note_on_c, 0, 67, 103
2, 223380, Note_on_c, 0, 64, 18
2, 223538, Note_on_c, 0, 67, 0
2, 223538, Note_on_c, 0, 79, 0
2, 223560, Note_on_c, 0, 76, 0
2, 223560, Note_on_c, 0, 64, 0
2, 223560, Note_on_c, 0, 78, 107
2, 223560, Note_on_c, 0, 75, 42
2, 223560, Note_on_c, 0, 66, 98
2, 223560, Note_on_c, 0, 63, 17
2, 223718, Note_on_c, 0, 66, 0
2, 223718, Note_on_c, 0, 78, 0
2, 223740, Note_on_c, 0, 75, 0
2, 223740, Note_on_c, 0, 63, 0
2, 223740, Note_on_c, 0, 79, 114
2, 223740, Note_on_c, 0, 76, 49
2, 223740, Note_on_c, 0, 67, 109
2, 223740, Note_on_c, 0, 64, 23
2, 223898, Note_on_c, 0, 67, 0
2, 223898, Note_on_c, 0, 79, 0
2, 223920, Note_on_c, 0, 76, 0
2, 223920, Note_on_c, 0, 64, 0
2, 223920, Note_on_c, 0, 82, 121
2, 223920, Note_on_c, 0, 74, 113
2, 223920, Note_on_c, 0, 77, 113
2, 223920, Note_on_c, 0, 70, 100
2, 223920, Note_on_c, 0, 65, 20
2, 224280, Note_on_c, 0, 70, 0
2, 224280, Note_on_c, 0, 82, 0
2, 224280, Note_on_c, 0, 81, 117
2, 224280, Note_on_c, 0, 69, 88
2, 224640, Note_on_c, 0, 69, 0
2, 224640, Note_on_c, 0, 74, 0
2, 224640, Note_on_c, 0, 65, 0
2, 224640, Note_on_c, 0, 77, 0
2, 224640, Note_on_c, 0, 81, 0
2, 224640, Note_on_c, 0, 81, 119
2, 224640, Note_on_c, 0, 72, 50
2, 224640, Note_on_c, 0, 69, 93
2, 224820, Note_on_c, 0, 69, 0
2, 224820, Note_on_c, 0, 72, 0
2, 224820, Note_on_c, 0, 81, 0
2, 224820, Note_on_c, 0, 80, 114
2, 224820, Note_on_c, 0, 71, 49
2, 224820, Note_on_c, 0, 68, 87
2, 225000, Note_on_c, 0, 71, 0
2, 225000, Note_on_c, 0, 70, 53
2, 225180, Note_on_c, 0, 70, 0
2, 225180, Note_on_c, 0, 68, 0
2, 225180, Note_on_c, 0, 80, 0
2, 225180, Note_on_c, 0, 80, 114
2, 225180, Note_on_c, 0, 71, 57
2, 225180, Note_on_c, 0, 68, 90
2, 225360, Note_on_c, 0, 68, 0
2, 225360, Note_on_c, 0, 71, 0
2, 225360, Note_on_c, 0, 80, 0
2, 225360, Note_on_c, 0, 83, 118
2, 225360, Note_on_c, 0, 74, 55
2, 225360, Note_on_c, 0, 71, 100
2, 225540, Note_on_c, 0, 71, 0
2, 225540, Note_on_c, 0, 74, 0
2, 225540, Note_on_c, 0, 83, 0
2, 225540, Note_on_c, 0, 81, 121
2, 225540, Note_on_c, 0, 72, 59
2, 225540, Note_on_c, 0, 69, 84
2, 225720, Note_on_c, 0, 72, 0
2, 225720, Note_on_c, 0, 71, 62
2, 225900, Note_on_c, 0, 71, 0
2, 225900, Note_on_c, 0, 69, 0
2, 225900, Note_on_c, 0, 81, 0
2, 225900, Note_on_c, 0, 81, 122
2, 225900, Note_on_c, 0, 72, 65
2, 225900, Note_on_c, 0, 69, 89
2, 226080, Note_on_c, 0, 69, 0
2, 226080, Note_on_c, 0, 72, 0
2, 226080, Note_on_c, 0, 81, 0
2, 226080, Note_on_c, 0, 84, 122
2, 226080, Note_on_c, 0, 76, 68
2, 226080, Note_on_c, 0, 72, 100
2, 226260, Note_on_c, 0, 72, 0
2, 226260, Note_on_c, 0, 76, 0
2, 226260, Note_on_c, 0, 84, 0
2, 226260, Note_on_c, 0, 83, 122
2, 226260, Note_on_c, 0, 75, 71
2, 226260, Note_on_c, 0, 71, 89
2, 226440, Note_on_c, 0, 75, 0
2, 226440, Note_on_c, 0, 74, 75
2, 226620, Note_on_c, 0, 74, 0
2, 226620, Note_on_c, 0, 71, 0
2, 226620, Note_on_c, 0, 83, 0
2, 226620, Note_on_c, 0, 83, 122
2, 226620, Note_on_c, 0, 75, 78
2, 226620, Note_on_c, 0, 71, 90
2, 226800, Note_on_c, 0, 71, 0
2, 226800, Note_on_c, 0, 75, 0
2, 226800, Note_on_c, 0, 83, 0
2, 226800, Note_on_c, 0, 86, 121
2, 226800, Note_on_c, 0, 76, 98
2, 226800, Note_on_c, 0, 74, 101
2, 227160, Note_on_c, 0, 74, 0
2, 227160, Note_on_c, 0, 86, 0
2, 227160, Note_on_c, 0, 84, 117
2, 227160, Note_on_c, 0, 72, 89
2, 227520, Note_on_c, 0, 72, 0
2, 227520, Note_on_c, 0, 84, 0
2, 227520, Note_on_c, 0, 76, 0
2, 227520, Note_on_c, 0, 86, 121
2, 227520, Note_on_c, 0, 83, 112
2, 227520, Note_on_c, 0, 74, 98
2, 227520, Note_on_c, 0, 71, 25
2, 227700, Note_on_c, 0, 71, 0
2, 227700, Note_on_c, 0, 86, 0
2, 227700, Note_on_c, 0, 83, 0
2, 227700, Note_on_c, 0, 74, 0
2, 227700, Note_on_c, 0, 84, 115
2, 227700, Note_on_c, 0, 81, 89
2, 227700, Note_on_c, 0, 72, 82
2, 227700, Note_on_c, 0, 69, 25
2, 227880, Note_on_c, 0, 69, 0
2, 227880, Note_on_c, 0, 81, 0
2, 227880, Note_on_c, 0, 80, 86
2, 227880, Note_on_c, 0, 68, 22
2, 228060, Note_on_c, 0, 68, 0
2, 228060, Note_on_c, 0, 84, 0
2, 228060, Note_on_c, 0, 72, 0
2, 228060, Note_on_c, 0, 80, 0
2, 228060, Note_on_c, 0, 84, 121
2, 228060, Note_on_c, 0, 81, 94
2, 228060, Note_on_c, 0, 72, 85
2, 228060, Note_on_c, 0, 69, 19
2, 228240, Note_on_c, 0, 69, 0
2, 228240, Note_on_c, 0, 84, 0
2, 228240, Note_on_c, 0, 81, 0
2, 228240, Note_on_c, 0, 72, 0
2, 228240, Note_on_c, 0, 86, 121
2, 228240, Note_on_c, 0, 83, 99
2, 228240, Note_on_c, 0, 74, 103
2, 228240, Note_on_c, 0, 71, 23
2, 228420, Note_on_c, 0, 71, 0
2, 228420, Note_on_c, 0, 86, 0
2, 228420, Note_on_c, 0, 83, 0
2, 228420, Note_on_c, 0, 74, 0
2, 228420, Note_on_c, 0, 84, 110
2, 228420, Note_on_c, 0, 81, 88
2, 228420, Note_on_c, 0, 72, 86
2, 228420, Note_on_c, 0, 69, 19
2, 228600, Note_on_c, 0, 69, 0
2, 228600, Note_on_c, 0, 81, 0
2, 228600, Note_on_c, 0, 80, 89
2, 228600, Note_on_c, 0, 68, 18
2, 228780, Note_on_c, 0, 68, 0
2, 228780, Note_on_c, 0, 84, 0
2, 228780, Note_on_c, 0, 72, 0
2, 228780, Note_on_c, 0, 80, 0
2, 228780, Note_on_c, 0, 84, 122
2, 228780, Note_on_c, 0, 81, 93
2, 228780, Note_on_c, 0, 72, 103
2, 228780, Note_on_c, 0, 69, 20
2, 228938, Note_on_c, 0, 72, 0
2, 228938, Note_on_c, 0, 84, 0
2, 228960, Note_on_c, 0, 81, 0
2, 228960, Note_on_c, 0, 69, 0
2, 228960, Note_on_c, 0, 86, 121
2, 228960, Note_on_c, 0, 83, 92
2, 228960, Note_on_c, 0, 74, 111
2, 228960, Note_on_c, 0, 71, 21
2, 229118, Note_on_c, 0, 74, 0
2, 229118, Note_on_c, 0, 86, 0
2, 229140, Note_on_c, 0, 83, 0
2, 229140, Note_on_c, 0, 71, 0
2, 229140, Note_on_c, 0, 84, 122
2, 229140, Note_on_c, 0, 81, 99
2, 229140, Note_on_c, 0, 72, 98
2, 229140, Note_on_c, 0, 69, 16
2, 229298, Note_on_c, 0, 72, 0
2, 229298, Note_on_c, 0, 84, 0
2, 229320, Note_on_c, 0, 81, 0
2, 229320, Note_on_c, 0, 69, 0
2, 229320, Note_on_c, 0, 83, 122
2, 229320, Note_on_c, 0, 80, 105
2, 229320, Note_on_c, 0, 71, 103
2, 229320, Note_on_c, 0, 68, 18
2, 229478, Note_on_c, 0, 71, 0
2, 229478, Note_on_c, 0, 83, 0
2, 229500, Note_on_c, 0, 80, 0
2, 229500, Note_on_c, 0, 68, 0
2, 229500, Note_on_c, 0, 84, 122
2, 229500, Note_on_c, 0, 81, 111
2, 229500, Note_on_c, 0, 72, 108
2, 229500, Note_on_c, 0, 69, 23
2, 229658, Note_on_c, 0, 72, 0
2, 229658, Note_on_c, 0, 84, 0
2, 229680, Note_on_c, 0, 81, 0
2, 229680, Note_on_c, 0, 69, 0
2, 229680, Note_on_c, 0, 87, 121
2, 229680, Note_on_c, 0, 79, 108
2, 229680, Note_on_c, 0, 82, 108
2, 229680, Note_on_c, 0, 75, 103
2, 229680, Note_on_c, 0, 70, 23
2, 230040, Note_on_c, 0, 75, 0
2, 230040, Note_on_c, 0, 87, 0
2, 230040, Note_on_c, 0, 86, 111
2, 230040, Note_on_c, 0, 74, 92
2, 230400, Note_on_c, 0, 74, 0
2, 230400, Note_on_c, 0, 79, 0
2, 230400, Note_on_c, 0, 70, 0
2, 230400, Note_on_c, 0, 82, 0
2, 230400, Note_on_c, 0, 86, 0
2, 230400, Note_on_c, 0, 84, 91
2, 230400, Note_on_c, 0, 77, 65
2, 230400, Note_on_c, 0, 72, 84
2, 230580, Note_on_c, 0, 72, 0
2, 230580, Note_on_c, 0, 84, 0
2, 230580, Note_on_c, 0, 83, 97
2, 230580, Note_on_c, 0, 71, 91
2, 230760, Note_on_c, 0, 71, 0
2, 230760, Note_on_c, 0, 83, 0
2, 230760, Note_on_c, 0, 82, 96
2, 230760, Note_on_c, 0, 70, 90
2, 230940, Note_on_c, 0, 70, 0
2, 230940, Note_on_c, 0, 82, 0
2, 230940, Note_on_c, 0, 83, 109
2, 230940, Note_on_c, 0, 71, 96
2, 231120, Note_on_c, 0, 71, 0
2, 231120, Note_on_c, 0, 83, 0
2, 231120, Note_on_c, 0, 77, 0
2, 231120, Note_on_c, 0, 86, 121
2, 231120, Note_on_c, 0, 77, 104
2, 231120, Note_on_c, 0, 74, 99
2, 231480, Note_on_c, 0, 74, 0
2, 231480, Note_on_c, 0, 86, 0
2, 231480, Note_on_c, 0, 85, 109
2, 231480, Note_on_c, 0, 73, 88
2, 231840, Note_on_c, 0, 73, 0
2, 231840, Note_on_c, 0, 85, 0
2, 231840, Note_on_c, 0, 77, 0
2, 231840, Note_on_c, 0, 84, 96
2, 231840, Note_on_c, 0, 77, 78
2, 231840, Note_on_c, 0, 72, 99
2, 231998, Note_on_c, 0, 72, 0
2, 231998, Note_on_c, 0, 84, 0
2, 232020, Note_on_c, 0, 83, 99
2, 232020, Note_on_c, 0, 71, 98
2, 232178, Note_on_c, 0, 71, 0
2, 232178, Note_on_c, 0, 83, 0
2, 232200, Note_on_c, 0, 82, 102
2, 232200, Note_on_c, 0, 70, 99
2, 232358, Note_on_c, 0, 70, 0
2, 232358, Note_on_c, 0, 82, 0
2, 232380, Note_on_c, 0, 83, 106
2, 232380, Note_on_c, 0, 71, 110
2, 232538, Note_on_c, 0, 71, 0
2, 232538, Note_on_c, 0, 83, 0
2, 232560, Note_on_c, 0, 77, 0
2, 232560, Note_on_c, 0, 86, 109
2, 232560, Note_on_c, 0, 77, 91
2, 232560, Note_on_c, 0, 74, 114
2, 232718, Note_on_c, 0, 74, 0
2, 232718, Note_on_c, 0, 86, 0
2, 232740, Note_on_c, 0, 85, 112
2, 232740, Note_on_c, 0, 73, 97
2, 232898, Note_on_c, 0, 73, 0
2, 232898, Note_on_c, 0, 85, 0
2, 232920, Note_on_c, 0, 84, 115
2, 232920, Note_on_c, 0, 72, 101
2, 233078, Note_on_c, 0, 72, 0
2, 233078, Note_on_c, 0, 84, 0
2, 233100, Note_on_c, 0, 85, 118
2, 233100, Note_on_c, 0, 73, 108
2, 233258, Note_on_c, 0, 73, 0
2, 233258, Note_on_c, 0, 85, 0
2, 233280, Note_on_c, 0, 77, 0
2, 233280, Note_on_c, 0, 88, 96
2, 233280, Note_on_c, 0, 78, 78
2, 233280, Note_on_c, 0, 76, 98
2, 233460, Note_on_c, 0, 76, 0
2, 233460, Note_on_c, 0, 88, 0
2, 233460, Note_on_c, 0, 86, 109
2, 233460, Note_on_c, 0, 74, 91
2, 233640, Note_on_c, 0, 74, 0
2, 233640, Note_on_c, 0, 86, 0
2, 233640, Note_on_c, 0, 78, 0
2, 233640, Note_on_c, 0, 81, 122
2, 233640, Note_on_c, 0, 93, 122
2, 233640, Note_on_c, 0, 69, 105
2, 234360, Note_on_c, 0, 69, 0
2, 234360, Note_on_c, 0, 93, 0
2, 234360, Note_on_c, 0, 81, 0
2, 234360, Note_on_c, 0, 81, 122
2, 234360, Note_on_c, 0, 93, 122
2, 234360, Note_on_c, 0, 69, 116
2, 235080, Note_on_c, 0, 69, 0
2, 235080, Note_on_c, 0, 93, 0
2, 235080, Note_on_c, 0, 81, 0
2, 235080, Note_on_c, 0, 81, 122
2, 235080, Note_on_c, 0, 93, 122
2, 235080, Note_on_c, 0, 69, 117
2, 235800, Note_on_c, 0, 69, 0
2, 235800, Note_on_c, 0, 93, 0
2, 235800, Note_on_c, 0, 81, 0
2, 235800, Note_on_c, 0, 93, 122
2, 235800, Note_on_c, 0, 81, 122
2, 236160, Note_on_c, 0, 81, 0
2, 236160, Note_on_c, 0, 93, 0
2, 236160, Note_on_c, 0, 93, 110
2, 236160, Note_on_c, 0, 81, 102
2, 236340, Note_on_c, 0, 81, 0
2, 236340, Note_on_c, 0, 93, 0
2, 236340, Note_on_c, 0, 92, 100
2, 236340, Note_on_c, 0, 80, 87
2, 236520, Note_on_c, 0, 80, 0
2, 236520, Note_on_c, 0, 92, 0
2, 236520, Note_on_c, 0, 85, 82
2, 236520, Note_on_c, 0, 73, 70
2, 236880, Note_on_c, 0, 73, 0
2, 236880, Note_on_c, 0, 85, 0
2, 236880, Note_on_c, 0, 92, 118
2, 236880, Note_on_c, 0, 80, 107
2, 237060, Note_on_c, 0, 80, 0
2, 237060, Note_on_c, 0, 92, 0
2, 237060, Note_on_c, 0, 90, 99
2, 237060, Note_on_c, 0, 78, 89
2, 237240, Note_on_c, 0, 78, 0
2, 237240, Note_on_c, 0, 90, 0
2, 237240, Note_on_c, 0, 85, 97
2, 237240, Note_on_c, 0, 73, 81
2, 237600, Note_on_c, 0, 73, 0
2, 237600, Note_on_c, 0, 85, 0
2, 237600, Note_on_c, 0, 81, 108
2, 237600, Note_on_c, 0, 90, 108
2, 237600, Note_on_c, 0, 78, 122
2, 237780, Note_on_c, 0, 78, 0
2, 237780, Note_on_c, 0, 90, 0
2, 237780, Note_on_c, 0, 81, 0
2, 237780, Note_on_c, 0, 80, 114
2, 237780, Note_on_c, 0, 89, 114
2, 237780, Note_on_c, 0, 77, 110
2, 237960, Note_on_c, 0, 77, 0
2, 237960, Note_on_c, 0, 89, 0
2, 237960, Note_on_c, 0, 80, 0
2, 237960, Note_on_c, 0, 79, 120
2, 237960, Note_on_c, 0, 88, 120
2, 237960, Note_on_c, 0, 76, 113
2, 238140, Note_on_c, 0, 76, 0
2, 238140, Note_on_c, 0, 88, 0
2, 238140, Note_on_c, 0, 79, 0
2, 238140, Note_on_c, 0, 80, 122
2, 238140, Note_on_c, 0, 89, 122
2, 238140, Note_on_c, 0, 77, 120
2, 238320, Note_on_c, 0, 77, 0
2, 238320, Note_on_c, 0, 89, 0
2, 238320, Note_on_c, 0, 80, 0
2, 238320, Note_on_c, 0, 83, 122
2, 238320, Note_on_c, 0, 92, 122
2, 238320, Note_on_c, 0, 80, 122
2, 238680, Note_on_c, 0, 80, 0
2, 238680, Note_on_c, 0, 92, 0
2, 238680, Note_on_c, 0, 83, 0
2, 238680, Note_on_c, 0, 81, 121
2, 238680, Note_on_c, 0, 90, 121
2, 238680, Note_on_c, 0, 78, 110
2, 239040, Note_on_c, 0, 78, 0
2, 239040, Note_on_c, 0, 90, 0
2, 239040, Note_on_c, 0, 81, 0
2, 239040, Note_on_c, 0, 89, 96
2, 239040, Note_on_c, 0, 82, 97
2, 239040, Note_on_c, 0, 77, 88
2, 239220, Note_on_c, 0, 77, 0
2, 239220, Note_on_c, 0, 89, 0
2, 239220, Note_on_c, 0, 88, 96
2, 239220, Note_on_c, 0, 76, 87
2, 239400, Note_on_c, 0, 76, 0
2, 239400, Note_on_c, 0, 88, 0
2, 239400, Note_on_c, 0, 87, 105
2, 239400, Note_on_c, 0, 75, 85
2, 239580, Note_on_c, 0, 75, 0
2, 239580, Note_on_c, 0, 87, 0
2, 239580, Note_on_c, 0, 88, 113
2, 239580, Note_on_c, 0, 76, 99
2, 239760, Note_on_c, 0, 76, 0
2, 239760, Note_on_c, 0, 88, 0
2, 239760, Note_on_c, 0, 82, 0
2, 239760, Note_on_c, 0, 91, 121
2, 239760, Note_on_c, 0, 82, 121
2, 239760, Note_on_c, 0, 79, 100
2, 240120, Note_on_c, 0, 79, 0
2, 240120, Note_on_c, 0, 91, 0
2, 240120, Note_on_c, 0, 90, 109
2, 240120, Note_on_c, 0, 78, 85
2, 240480, Note_on_c, 0, 78, 0
2, 240480, Note_on_c, 0, 90, 0
2, 240480, Note_on_c, 0, 82, 0
2, 240480, Note_on_c, 0, 89, 96
2, 240480, Note_on_c, 0, 82, 96
2, 240480, Note_on_c, 0, 77, 102
2, 240638, Note_on_c, 0, 77, 0
2, 240638, Note_on_c, 0, 89, 0
2, 240660, Note_on_c, 0, 88, 99
2, 240660, Note_on_c, 0, 76, 100
2, 240818, Note_on_c, 0, 76, 0
2, 240818, Note_on_c, 0, 88, 0
2, 240840, Note_on_c, 0, 87, 102
2, 240840, Note_on_c, 0, 75, 97
2, 240998, Note_on_c, 0, 75, 0
2, 240998, Note_on_c, 0, 87, 0
2, 241020, Note_on_c, 0, 88, 106
2, 241020, Note_on_c, 0, 76, 107
2, 241178, Note_on_c, 0, 76, 0
2, 241178, Note_on_c, 0, 88, 0
2, 241200, Note_on_c, 0, 82, 0
2, 241200, Note_on_c, 0, 91, 109
2, 241200, Note_on_c, 0, 82, 109
2, 241200, Note_on_c, 0, 79, 112
2, 241358, Note_on_c, 0, 79, 0
2, 241358, Note_on_c, 0, 91, 0
2, 241380, Note_on_c, 0, 90, 112
2, 241380, Note_on_c, 0, 78, 102
2, 241538, Note_on_c, 0, 78, 0
2, 241538, Note_on_c, 0, 90, 0
2, 241560, Note_on_c, 0, 89, 115
2, 241560, Note_on_c, 0, 77, 104
2, 241718, Note_on_c, 0, 77, 0
2, 241718, Note_on_c, 0, 89, 0
2, 241740, Note_on_c, 0, 90, 118
2, 241740, Note_on_c, 0, 78, 108
2, 241898, Note_on_c, 0, 78, 0
2, 241898, Note_on_c, 0, 90, 0
2, 241920, Note_on_c, 0, 82, 0
2, 241920, Note_on_c, 0, 93, 96
2, 241920, Note_on_c, 0, 83, 96
2, 241920, Note_on_c, 0, 81, 97
2, 242100, Note_on_c, 0, 81, 0
2, 242100, Note_on_c, 0, 93, 0
2, 242100, Note_on_c, 0, 91, 109
2, 242100, Note_on_c, 0, 79, 89
2, 242280, Note_on_c, 0, 79, 0
2, 242280, Note_on_c, 0, 91, 0
2, 242280, Note_on_c, 0, 83, 0
2, 242280, Note_on_c, 0, 86, 122
2, 242280, Note_on_c, 0, 98, 122
2, 242280, Note_on_c, 0, 74, 105
2, 243000, Note_on_c, 0, 74, 0
2, 243000, Note_on_c, 0, 98, 0
2, 243000, Note_on_c, 0, 86, 0
2, 243000, Note_on_c, 0, 86, 122
2, 243000, Note_on_c, 0, 98, 122
2, 243000, Note_on_c, 0, 74, 112
2, 243720, Note_on_c, 0, 74, 0
2, 243720, Note_on_c, 0, 98, 0
2, 243720, Note_on_c, 0, 86, 0
2, 243720, Note_on_c, 0, 86, 122
2, 243720, Note_on_c, 0, 98, 122
2, 243720, Note_on_c, 0, 74, 112
2, 244440, Note_on_c, 0, 74, 0
2, 244440, Note_on_c, 0, 98, 0
2, 244440, Note_on_c, 0, 86, 0
2, 244440, Note_on_c, 0, 86, 122
2, 244440, Note_on_c, 0, 98, 122
2, 244440, Note_on_c, 0, 74, 120
2, 244800, Note_on_c, 0, 74, 0
2, 244800, Note_on_c, 0, 98, 0
2, 244800, Note_on_c, 0, 86, 0
2, 244800, Note_on_c, 0, 86, 121
2, 244800, Note_on_c, 0, 98, 121
2, 244800, Note_on_c, 0, 66, 95
2, 244980, Note_on_c, 0, 98, 0
2, 244980, Note_on_c, 0, 86, 0
2, 244980, Note_on_c, 0, 85, 115
2, 244980, Note_on_c, 0, 97, 115
2, 245160, Note_on_c, 0, 97, 0
2, 245160, Note_on_c, 0, 85, 0
2, 245160, Note_on_c, 0, 66, 0
2, 245160, Note_on_c, 0, 90, 98
2, 245160, Note_on_c, 0, 68, 118
2, 245340, Note_on_c, 0, 68, 0
2, 245340, Note_on_c, 0, 70, 120
2, 245520, Note_on_c, 0, 70, 0
2, 245520, Note_on_c, 0, 90, 0
2, 245520, Note_on_c, 0, 85, 121
2, 245520, Note_on_c, 0, 97, 121
2, 245520, Note_on_c, 0, 70, 120
2, 245700, Note_on_c, 0, 70, 0
2, 245700, Note_on_c, 0, 97, 0
2, 245700, Note_on_c, 0, 85, 0
2, 245700, Note_on_c, 0, 83, 118
2, 245700, Note_on_c, 0, 95, 118
2, 245700, Note_on_c, 0, 71, 122
2, 245880, Note_on_c, 0, 95, 0
2, 245880, Note_on_c, 0, 83, 0
2, 245880, Note_on_c, 0, 90, 104
2, 246060, Note_on_c, 0, 71, 0
2, 246060, Note_on_c, 0, 71, 122
2, 246060, Note_on_c, 0, 74, 122
2, 246240, Note_on_c, 0, 74, 0
2, 246240, Note_on_c, 0, 71, 0
2, 246240, Note_on_c, 0, 90, 0
2, 246240, Note_on_c, 0, 83, 121
2, 246240, Note_on_c, 0, 86, 121
2, 246240, Note_on_c, 0, 95, 121
2, 246240, Note_on_c, 0, 71, 115
2, 246240, Note_on_c, 0, 74, 115
2, 246420, Note_on_c, 0, 74, 0
2, 246420, Note_on_c, 0, 95, 0
2, 246420, Note_on_c, 0, 83, 0
2, 246420, Note_on_c, 0, 86, 0
2, 246420, Note_on_c, 0, 71, 0
2, 246420, Note_on_c, 0, 82, 122
2, 246420, Note_on_c, 0, 85, 122
2, 246420, Note_on_c, 0, 94, 122
2, 246420, Note_on_c, 0, 70, 114
2, 246420, Note_on_c, 0, 73, 114
2, 246600, Note_on_c, 0, 73, 0
2, 246600, Note_on_c, 0, 94, 0
2, 246600, Note_on_c, 0, 82, 0
2, 246600, Note_on_c, 0, 85, 0
2, 246600, Note_on_c, 0, 70, 0
2, 246600, Note_on_c, 0, 81, 122
2, 246600, Note_on_c, 0, 84, 122
2, 246600, Note_on_c, 0, 93, 122
2, 246600, Note_on_c, 0, 69, 114
2, 246600, Note_on_c, 0, 72, 114
2, 246780, Note_on_c, 0, 72, 0
2, 246780, Note_on_c, 0, 93, 0
2, 246780, Note_on_c, 0, 81, 0
2, 246780, Note_on_c, 0, 84, 0
2, 246780, Note_on_c, 0, 69, 0
2, 246780, Note_on_c, 0, 82, 122
2, 246780, Note_on_c, 0, 85, 122
2, 246780, Note_on_c, 0, 94, 122
2, 246780, Note_on_c, 0, 70, 119
2, 246780, Note_on_c, 0, 73, 119
2, 246960, Note_on_c, 0, 73, 0
2, 246960, Note_on_c, 0, 94, 0
2, 246960, Note_on_c, 0, 82, 0
2, 246960, Note_on_c, 0, 85, 0
2, 246960, Note_on_c, 0, 70, 0
2, 246960, Note_on_c, 0, 85, 121
2, 246960, Note_on_c, 0, 88, 121
2, 246960, Note_on_c, 0, 97, 121
2, 246960, Note_on_c, 0, 70, 122
2, 246960, Note_on_c, 0, 73, 122
2, 246960, Note_on_c, 0, 76, 122
2, 247320, Note_on_c, 0, 76, 0
2, 247320, Note_on_c, 0, 88, 0
2, 247320, Note_on_c, 0, 97, 0
2, 247320, Note_on_c, 0, 85, 0
2, 247320, Note_on_c, 0, 73, 0
2, 247320, Note_on_c, 0, 70, 0
2, 247320, Note_on_c, 0, 83, 109
2, 247320, Note_on_c, 0, 86, 109
2, 247320, Note_on_c, 0, 95, 109
2, 247320, Note_on_c, 0, 71, 119
2, 247320, Note_on_c, 0, 74, 119
2, 247680, Note_on_c, 0, 74, 0
2, 247680, Note_on_c, 0, 95, 0
2, 247680, Note_on_c, 0, 83, 0
2, 247680, Note_on_c, 0, 86, 0
2, 247680, Note_on_c, 0, 71, 0
2, 247680, Note_on_c, 0, 85, 122
2, 247680, Note_on_c, 0, 93, 122
2, 247680, Note_on_c, 0, 69, 122
2, 247680, Note_on_c, 0, 73, 122
2, 247680, Note_on_c, 0, 81, 122
2, 248040, Note_on_c, 0, 81, 0
2, 248040, Note_on_c, 0, 69, 0
2, 248040, Note_on_c, 0, 85, 0
2, 248040, Note_on_c, 0, 93, 0
2, 248040, Note_on_c, 0, 73, 0
2, 248040, Note_on_c, 0, 83, 122
2, 248040, Note_on_c, 0, 91, 122
2, 248040, Note_on_c, 0, 67, 112
2, 248040, Note_on_c, 0, 71, 112
2, 248040, Note_on_c, 0, 79, 112
2, 248400, Note_on_c, 0, 79, 0
2, 248400, Note_on_c, 0, 67, 0
2, 248400, Note_on_c, 0, 83, 0
2, 248400, Note_on_c, 0, 91, 0
2, 248400, Note_on_c, 0, 71, 0
2, 248400, Note_on_c, 0, 79, 121
2, 248400, Note_on_c, 0, 91, 121
2, 248400, Note_on_c, 0, 86, 83
2, 248400, Note_on_c, 0, 74, 60
2, 248400, Note_on_c, 0, 67, 60
2, 248490, Note_on_c, 0, 74, 0
2, 248490, Note_on_c, 0, 86, 0
2, 248490, Note_on_c, 0, 83, 59
2, 248490, Note_on_c, 0, 71, 54
2, 248580, Note_on_c, 0, 71, 0
2, 248580, Note_on_c, 0, 79, 0
2, 248580, Note_on_c, 0, 67, 0
2, 248580, Note_on_c, 0, 91, 0
2, 248580, Note_on_c, 0, 83, 0
2, 248580, Note_on_c, 0, 78, 106
2, 248580, Note_on_c, 0, 90, 106
2, 248580, Note_on_c, 0, 86, 70
2, 248580, Note_on_c, 0, 74, 72
2, 248580, Note_on_c, 0, 66, 67
2, 248670, Note_on_c, 0, 74, 0
2, 248670, Note_on_c, 0, 86, 0
2, 248670, Note_on_c, 0, 83, 59
2, 248670, Note_on_c, 0, 71, 64
2, 248760, Note_on_c, 0, 71, 0
2, 248760, Note_on_c, 0, 83, 0
2, 248760, Note_on_c, 0, 86, 74
2, 248760, Note_on_c, 0, 74, 73
2, 248850, Note_on_c, 0, 74, 0
2, 248850, Note_on_c, 0, 86, 0
2, 248850, Note_on_c, 0, 83, 60
2, 248850, Note_on_c, 0, 71, 61
2, 248940, Note_on_c, 0, 71, 0
2, 248940, Note_on_c, 0, 78, 0
2, 248940, Note_on_c, 0, 66, 0
2, 248940, Note_on_c, 0, 90, 0
2, 248940, Note_on_c, 0, 83, 0
2, 248940, Note_on_c, 0, 78, 122
2, 248940, Note_on_c, 0, 90, 122
2, 248940, Note_on_c, 0, 86, 73
2, 248940, Note_on_c, 0, 74, 70
2, 248940, Note_on_c, 0, 66, 76
2, 249030, Note_on_c, 0, 74, 0
2, 249030, Note_on_c, 0, 86, 0
2, 249030, Note_on_c, 0, 83, 61
2, 249030, Note_on_c, 0, 71, 62
2, 249098, Note_on_c, 0, 78, 0
2, 249098, Note_on_c, 0, 66, 0
2, 249098, Note_on_c, 0, 90, 0
2, 249120, Note_on_c, 0, 83, 0
2, 249120, Note_on_c, 0, 71, 0
2, 249120, Note_on_c, 0, 78, 106
2, 249120, Note_on_c, 0, 90, 106
2, 249120, Note_on_c, 0, 85, 67
2, 249120, Note_on_c, 0, 73, 70
2, 249120, Note_on_c, 0, 66, 64
2, 249210, Note_on_c, 0, 73, 0
2, 249210, Note_on_c, 0, 85, 0
2, 249210, Note_on_c, 0, 82, 63
2, 249210, Note_on_c, 0, 70, 58
2, 249300, Note_on_c, 0, 70, 0
2, 249300, Note_on_c, 0, 78, 0
2, 249300, Note_on_c, 0, 66, 0
2, 249300, Note_on_c, 0, 90, 0
2, 249300, Note_on_c, 0, 82, 0
2, 249300, Note_on_c, 0, 77, 101
2, 249300, Note_on_c, 0, 89, 101
2, 249300, Note_on_c, 0, 85, 75
2, 249300, Note_on_c, 0, 73, 71
2, 249300, Note_on_c, 0, 65, 66
2, 249390, Note_on_c, 0, 73, 0
2, 249390, Note_on_c, 0, 85, 0
2, 249390, Note_on_c, 0, 82, 62
2, 249390, Note_on_c, 0, 70, 62
2, 249480, Note_on_c, 0, 70, 0
2, 249480, Note_on_c, 0, 82, 0
2, 249480, Note_on_c, 0, 85, 72
2, 249480, Note_on_c, 0, 73, 69
2, 249570, Note_on_c, 0, 73, 0
2, 249570, Note_on_c, 0, 85, 0
2, 249570, Note_on_c, 0, 82, 63
2, 249570, Note_on_c, 0, 70, 56
2, 249660, Note_on_c, 0, 70, 0
2, 249660, Note_on_c, 0, 77, 0
2, 249660, Note_on_c, 0, 65, 0
2, 249660, Note_on_c, 0, 89, 0
2, 249660, Note_on_c, 0, 82, 0
2, 249660, Note_on_c, 0, 77, 122
2, 249660, Note_on_c, 0, 89, 122
2, 249660, Note_on_c, 0, 85, 70
2, 249660, Note_on_c, 0, 73, 71
2, 249660, Note_on_c, 0, 65, 77
2, 249750, Note_on_c, 0, 73, 0
2, 249750, Note_on_c, 0, 85, 0
2, 249750, Note_on_c, 0, 82, 62
2, 249750, Note_on_c, 0, 70, 62
2, 249818, Note_on_c, 0, 77, 0
2, 249818, Note_on_c, 0, 65, 0
2, 249818, Note_on_c, 0, 89, 0
2, 249840, Note_on_c, 0, 82, 0
2, 249840, Note_on_c, 0, 70, 0
2, 249840, Note_on_c, 0, 76, 101
2, 249840, Note_on_c, 0, 88, 101
2, 249840, Note_on_c, 0, 83, 70
2, 249840, Note_on_c, 0, 71, 74
2, 249840, Note_on_c, 0, 64, 64
2, 249930, Note_on_c, 0, 71, 0
2, 249930, Note_on_c, 0, 83, 0
2, 249930, Note_on_c, 0, 79, 59
2, 249930, Note_on_c, 0, 67, 62
2, 250020, Note_on_c, 0, 67, 0
2, 250020, Note_on_c, 0, 76, 0
2, 250020, Note_on_c, 0, 64, 0
2, 250020, Note_on_c, 0, 88, 0
2, 250020, Note_on_c, 0, 79, 0
2, 250020, Note_on_c, 0, 75, 99
2, 250020, Note_on_c, 0, 87, 99
2, 250020, Note_on_c, 0, 83, 74
2, 250020, Note_on_c, 0, 71, 72
2, 250020, Note_on_c, 0, 63, 63
2, 250110, Note_on_c, 0, 71, 0
2, 250110, Note_on_c, 0, 83, 0
2, 250110, Note_on_c, 0, 79, 60
2, 250110, Note_on_c, 0, 67, 61
2, 250200, Note_on_c, 0, 67, 0
2, 250200, Note_on_c, 0, 79, 0
2, 250200, Note_on_c, 0, 83, 75
2, 250200, Note_on_c, 0, 71, 69
2, 250290, Note_on_c, 0, 71, 0
2, 250290, Note_on_c, 0, 83, 0
2, 250290, Note_on_c, 0, 79, 60
2, 250290, Note_on_c, 0, 67, 59
2, 250380, Note_on_c, 0, 67, 0
2, 250380, Note_on_c, 0, 75, 0
2, 250380, Note_on_c, 0, 63, 0
2, 250380, Note_on_c, 0, 87, 0
2, 250380, Note_on_c, 0, 79, 0
2, 250380, Note_on_c, 0, 74, 114
2, 250380, Note_on_c, 0, 86, 114
2, 250380, Note_on_c, 0, 83, 73
2, 250380, Note_on_c, 0, 71, 73
2, 250380, Note_on_c, 0, 62, 74
2, 250470, Note_on_c, 0, 71, 0
2, 250470, Note_on_c, 0, 83, 0
2, 250470, Note_on_c, 0, 79, 54
2, 250470, Note_on_c, 0, 67, 57
2, 250538, Note_on_c, 0, 74, 0
2, 250538, Note_on_c, 0, 62, 0
2, 250538, Note_on_c, 0, 86, 0
2, 250560, Note_on_c, 0, 79, 0
2, 250560, Note_on_c, 0, 67, 0
2, 250560, Note_on_c, 0, 76, 108
2, 250560, Note_on_c, 0, 88, 108
2, 250560, Note_on_c, 0, 81, 66
2, 250560, Note_on_c, 0, 69, 66
2, 250560, Note_on_c, 0, 64, 66
2, 250650, Note_on_c, 0, 69, 0
2, 250650, Note_on_c, 0, 81, 0
2, 250650, Note_on_c, 0, 78, 62
2, 250650, Note_on_c, 0, 66, 62
2, 250740, Note_on_c, 0, 66, 0
2, 250740, Note_on_c, 0, 76, 0
2, 250740, Note_on_c, 0, 64, 0
2, 250740, Note_on_c, 0, 88, 0
2, 250740, Note_on_c, 0, 78, 0
2, 250740, Note_on_c, 0, 75, 101
2, 250740, Note_on_c, 0, 87, 101
2, 250740, Note_on_c, 0, 81, 59
2, 250740, Note_on_c, 0, 69, 59
2, 250740, Note_on_c, 0, 63, 59
2, 250830, Note_on_c, 0, 69, 0
2, 250830, Note_on_c, 0, 81, 0
2, 250830, Note_on_c, 0, 78, 56
2, 250830, Note_on_c, 0, 66, 56
2, 250920, Note_on_c, 0, 66, 0
2, 250920, Note_on_c, 0, 78, 0
2, 250920, Note_on_c, 0, 81, 53
2, 250920, Note_on_c, 0, 69, 53
2, 251010, Note_on_c, 0, 69, 0
2, 251010, Note_on_c, 0, 81, 0
2, 251010, Note_on_c, 0, 78, 50
2, 251010, Note_on_c, 0, 66, 50
2, 251100, Note_on_c, 0, 66, 0
2, 251100, Note_on_c, 0, 75, 0
2, 251100, Note_on_c, 0, 63, 0
2, 251100, Note_on_c, 0, 87, 0
2, 251100, Note_on_c, 0, 78, 0
2, 251100, Note_on_c, 0, 74, 88
2, 251100, Note_on_c, 0, 86, 88
2, 251100, Note_on_c, 0, 81, 47
2, 251100, Note_on_c, 0, 69, 47
2, 251100, Note_on_c, 0, 62, 47
2, 251190, Note_on_c, 0, 69, 0
2, 251190, Note_on_c, 0, 81, 0
2, 251190, Note_on_c, 0, 78, 43
2, 251190, Note_on_c, 0, 66, 43
2, 251258, Note_on_c, 0, 74, 0
2, 251258, Note_on_c, 0, 62, 0
2, 251258, Note_on_c, 0, 86, 0
2, 251280, Note_on_c, 0, 78, 0
2, 251280, Note_on_c, 0, 66, 0
2, 251280, Note_on_c, 0, 74, 92
2, 251280, Note_on_c, 0, 86, 92
2, 251280, Note_on_c, 0, 81, 43
2, 251280, Note_on_c, 0, 69, 73
2, 251280, Note_on_c, 0, 62, 69
2, 251370, Note_on_c, 0, 69, 0
2, 251370, Note_on_c, 0, 81, 0
2, 251370, Note_on_c, 0, 78, 35
2, 251370, Note_on_c, 0, 66, 60
2, 251460, Note_on_c, 0, 66, 0
2, 251460, Note_on_c, 0, 74, 0
2, 251460, Note_on_c, 0, 62, 0
2, 251460, Note_on_c, 0, 86, 0
2, 251460, Note_on_c, 0, 78, 0
2, 251460, Note_on_c, 0, 73, 85
2, 251460, Note_on_c, 0, 85, 85
2, 251460, Note_on_c, 0, 81, 43
2, 251460, Note_on_c, 0, 69, 73
2, 251460, Note_on_c, 0, 61, 60
2, 251550, Note_on_c, 0, 69, 0
2, 251550, Note_on_c, 0, 81, 0
2, 251550, Note_on_c, 0, 78, 36
2, 251550, Note_on_c, 0, 66, 61
2, 251640, Note_on_c, 0, 66, 0
2, 251640, Note_on_c, 0, 78, 0
2, 251640, Note_on_c, 0, 81, 42
2, 251640, Note_on_c, 0, 69, 71
2, 251730, Note_on_c, 0, 69, 0
2, 251730, Note_on_c, 0, 81, 0
2, 251730, Note_on_c, 0, 78, 39
2, 251730, Note_on_c, 0, 66, 63
2, 251820, Note_on_c, 0, 66, 0
2, 251820, Note_on_c, 0, 73, 0
2, 251820, Note_on_c, 0, 61, 0
2, 251820, Note_on_c, 0, 85, 0
2, 251820, Note_on_c, 0, 78, 0
2, 251820, Note_on_c, 0, 73, 105
2, 251820, Note_on_c, 0, 85, 105
2, 251820, Note_on_c, 0, 81, 41
2, 251820, Note_on_c, 0, 69, 73
2, 251820, Note_on_c, 0, 61, 75
2, 251910, Note_on_c, 0, 69, 0
2, 251910, Note_on_c, 0, 81, 0
2, 251910, Note_on_c, 0, 78, 33
2, 251910, Note_on_c, 0, 66, 58
2, 251978, Note_on_c, 0, 73, 0
2, 251978, Note_on_c, 0, 61, 0
2, 251978, Note_on_c, 0, 85, 0
2, 252000, Note_on_c, 0, 78, 0
2, 252000, Note_on_c, 0, 66, 0
2, 252000, Note_on_c, 0, 73, 89
2, 252000, Note_on_c, 0, 85, 89
2, 252000, Note_on_c, 0, 80, 43
2, 252000, Note_on_c, 0, 68, 74
2, 252000, Note_on_c, 0, 61, 66
2, 252090, Note_on_c, 0, 68, 0
2, 252090, Note_on_c, 0, 80, 0
2, 252090, Note_on_c, 0, 77, 37
2, 252090, Note_on_c, 0, 65, 59
2, 252180, Note_on_c, 0, 65, 0
2, 252180, Note_on_c, 0, 73, 0
2, 252180, Note_on_c, 0, 61, 0
2, 252180, Note_on_c, 0, 85, 0
2, 252180, Note_on_c, 0, 77, 0
2, 252180, Note_on_c, 0, 72, 91
2, 252180, Note_on_c, 0, 84, 91
2, 252180, Note_on_c, 0, 80, 45
2, 252180, Note_on_c, 0, 68, 70
2, 252180, Note_on_c, 0, 60, 61
2, 252270, Note_on_c, 0, 68, 0
2, 252270, Note_on_c, 0, 80, 0
2, 252270, Note_on_c, 0, 77, 42
2, 252270, Note_on_c, 0, 65, 60
2, 252360, Note_on_c, 0, 65, 0
2, 252360, Note_on_c, 0, 77, 0
2, 252360, Note_on_c, 0, 80, 40
2, 252360, Note_on_c, 0, 68, 71
2, 252450, Note_on_c, 0, 68, 0
2, 252450, Note_on_c, 0, 80, 0
2, 252450, Note_on_c, 0, 77, 38
2, 252450, Note_on_c, 0, 65, 61
2, 252540, Note_on_c, 0, 65, 0
2, 252540, Note_on_c, 0, 72, 0
2, 252540, Note_on_c, 0, 60, 0
2, 252540, Note_on_c, 0, 84, 0
2, 252540, Note_on_c, 0, 77, 0
2, 252540, Note_on_c, 0, 71, 97
2, 252540, Note_on_c, 0, 83, 97
2, 252540, Note_on_c, 0, 80, 46
2, 252540, Note_on_c, 0, 68, 71
2, 252540, Note_on_c, 0, 59, 77
2, 252630, Note_on_c, 0, 68, 0
2, 252630, Note_on_c, 0, 80, 0
2, 252630, Note_on_c, 0, 77, 34
2, 252630, Note_on_c, 0, 65, 57
2, 252698, Note_on_c, 0, 71, 0
2, 252698, Note_on_c, 0, 59, 0
2, 252698, Note_on_c, 0, 83, 0
2, 252720, Note_on_c, 0, 77, 0
2, 252720, Note_on_c, 0, 65, 0
2, 252720, Note_on_c, 0, 71, 98
2, 252720, Note_on_c, 0, 83, 98
2, 252720, Note_on_c, 0, 78, 43
2, 252720, Note_on_c, 0, 66, 65
2, 252720, Note_on_c, 0, 59, 68
2, 252810, Note_on_c, 0, 66, 0
2, 252810, Note_on_c, 0, 78, 0
2, 252810, Note_on_c, 0, 74, 33
2, 252810, Note_on_c, 0, 62, 55
2, 252900, Note_on_c, 0, 62, 0
2, 252900, Note_on_c, 0, 71, 0
2, 252900, Note_on_c, 0, 59, 0
2, 252900, Note_on_c, 0, 83, 0
2, 252900, Note_on_c, 0, 74, 0
2, 252900, Note_on_c, 0, 70, 91
2, 252900, Note_on_c, 0, 82, 91
2, 252900, Note_on_c, 0, 78, 43
2, 252900, Note_on_c, 0, 66, 76
2, 252900, Note_on_c, 0, 58, 61
2, 252990, Note_on_c, 0, 66, 0
2, 252990, Note_on_c, 0, 78, 0
2, 252990, Note_on_c, 0, 74, 37
2, 252990, Note_on_c, 0, 62, 59
2, 253080, Note_on_c, 0, 62, 0
2, 253080, Note_on_c, 0, 74, 0
2, 253080, Note_on_c, 0, 78, 42
2, 253080, Note_on_c, 0, 66, 71
2, 253170, Note_on_c, 0, 66, 0
2, 253170, Note_on_c, 0, 78, 0
2, 253170, Note_on_c, 0, 74, 36
2, 253170, Note_on_c, 0, 62, 56
2, 253260, Note_on_c, 0, 62, 0
2, 253260, Note_on_c, 0, 70, 0
2, 253260, Note_on_c, 0, 58, 0
2, 253260, Note_on_c, 0, 82, 0
2, 253260, Note_on_c, 0, 74, 0
2, 253260, Note_on_c, 0, 69, 103
2, 253260, Note_on_c, 0, 81, 103
2, 253260, Note_on_c, 0, 78, 43
2, 253260, Note_on_c, 0, 66, 74
2, 253260, Note_on_c, 0, 57, 78
2, 253350, Note_on_c, 0, 66, 0
2, 253350, Note_on_c, 0, 78, 0
2, 253350, Note_on_c, 0, 74, 35
2, 253350, Note_on_c, 0, 62, 62
2, 253418, Note_on_c, 0, 69, 0
2, 253418, Note_on_c, 0, 57, 0
2, 253418, Note_on_c, 0, 81, 0
2, 253440, Note_on_c, 0, 74, 0
2, 253440, Note_on_c, 0, 62, 0
2, 253440, Note_on_c, 0, 71, 92
2, 253440, Note_on_c, 0, 83, 92
2, 253440, Note_on_c, 0, 78, 40
2, 253440, Note_on_c, 0, 66, 66
2, 253440, Note_on_c, 0, 59, 66
2, 253530, Note_on_c, 0, 66, 0
2, 253530, Note_on_c, 0, 78, 0
2, 253530, Note_on_c, 0, 73, 37
2, 253530, Note_on_c, 0, 61, 62
2, 253620, Note_on_c, 0, 61, 0
2, 253620, Note_on_c, 0, 71, 0
2, 253620, Note_on_c, 0, 59, 0
2, 253620, Note_on_c, 0, 83, 0
2, 253620, Note_on_c, 0, 73, 0
2, 253620, Note_on_c, 0, 70, 86
2, 253620, Note_on_c, 0, 82, 86
2, 253620, Note_on_c, 0, 78, 34
2, 253620, Note_on_c, 0, 66, 59
2, 253620, Note_on_c, 0, 58, 59
2, 253710, Note_on_c, 0, 66, 0
2, 253710, Note_on_c, 0, 78, 0
2, 253710, Note_on_c, 0, 73, 31
2, 253710, Note_on_c, 0, 61, 56
2, 253800, Note_on_c, 0, 61, 0
2, 253800, Note_on_c, 0, 73, 0
2, 253800, Note_on_c, 0, 78, 28
2, 253800, Note_on_c, 0, 66, 53
2, 253890, Note_on_c, 0, 66, 0
2, 253890, Note_on_c, 0, 78, 0
2, 253890, Note_on_c, 0, 73, 24
2, 253890, Note_on_c, 0, 61, 50
2, 253980, Note_on_c, 0, 61, 0
2, 253980, Note_on_c, 0, 70, 0
2, 253980, Note_on_c, 0, 58, 0
2, 253980, Note_on_c, 0, 82, 0
2, 253980, Note_on_c, 0, 73, 0
2, 253980, Note_on_c, 0, 69, 73
2, 253980, Note_on_c, 0, 81, 73
2, 253980, Note_on_c, 0, 78, 21
2, 253980, Note_on_c, 0, 66, 47
2, 253980, Note_on_c, 0, 57, 47
2, 254070, Note_on_c, 0, 66, 0
2, 254070, Note_on_c, 0, 78, 0
2, 254070, Note_on_c, 0, 73, 18
2, 254070, Note_on_c, 0, 61, 43
2, 254138, Note_on_c, 0, 69, 0
2, 254138, Note_on_c, 0, 57, 0
2, 254138, Note_on_c, 0, 81, 0
2, 254160, Note_on_c, 0, 73, 0
2, 254160, Note_on_c, 0, 61, 0
2, 254160, Note_on_c, 0, 69, 82
2, 254160, Note_on_c, 0, 81, 82
2, 254160, Note_on_c, 0, 76, 16
2, 254160, Note_on_c, 0, 64, 70
2, 254160, Note_on_c, 0, 57, 69
2, 254250, Note_on_c, 0, 64, 0
2, 254250, Note_on_c, 0, 76, 0
2, 254250, Note_on_c, 0, 73, 14
2, 254250, Note_on_c, 0, 61, 58
2, 254340, Note_on_c, 0, 61, 0
2, 254340, Note_on_c, 0, 69, 0
2, 254340, Note_on_c, 0, 57, 0
2, 254340, Note_on_c, 0, 81, 0
2, 254340, Note_on_c, 0, 73, 0
2, 254340, Note_on_c, 0, 68, 68
2, 254340, Note_on_c, 0, 80, 68
2, 254340, Note_on_c, 0, 76, 19
2, 254340, Note_on_c, 0, 64, 70
2, 254340, Note_on_c, 0, 56, 68
2, 254430, Note_on_c, 0, 64, 0
2, 254430, Note_on_c, 0, 76, 0
2, 254430, Note_on_c, 0, 73, 11
2, 254430, Note_on_c, 0, 61, 61
2, 254520, Note_on_c, 0, 61, 0
2, 254520, Note_on_c, 0, 73, 0
2, 254520, Note_on_c, 0, 76, 17
2, 254520, Note_on_c, 0, 64, 69
2, 254610, Note_on_c, 0, 64, 0
2, 254610, Note_on_c, 0, 76, 0
2, 254610, Note_on_c, 0, 73, 14
2, 254610, Note_on_c, 0, 61, 66
2, 254700, Note_on_c, 0, 61, 0
2, 254700, Note_on_c, 0, 68, 0
2, 254700, Note_on_c, 0, 56, 0
2, 254700, Note_on_c, 0, 80, 0
2, 254700, Note_on_c, 0, 73, 0
2, 254700, Note_on_c, 0, 68, 92
2, 254700, Note_on_c, 0, 80, 92
2, 254700, Note_on_c, 0, 76, 18
2, 254700, Note_on_c, 0, 64, 67
2, 254700, Note_on_c, 0, 56, 79
2, 254790, Note_on_c, 0, 64, 0
2, 254790, Note_on_c, 0, 76, 0
2, 254790, Note_on_c, 0, 73, 14
2, 254790, Note_on_c, 0, 61, 64
2, 254858, Note_on_c, 0, 68, 0
2, 254858, Note_on_c, 0, 56, 0
2, 254858, Note_on_c, 0, 80, 0
2, 254880, Note_on_c, 0, 73, 0
2, 254880, Note_on_c, 0, 61, 0
2, 254880, Note_on_c, 0, 68, 80
2, 254880, Note_on_c, 0, 80, 80
2, 254880, Note_on_c, 0, 75, 14
2, 254880, Note_on_c, 0, 63, 70
2, 254880, Note_on_c, 0, 56, 61
2, 254970, Note_on_c, 0, 63, 0
2, 254970, Note_on_c, 0, 75, 0
2, 254970, Note_on_c, 0, 72, 16
2, 254970, Note_on_c, 0, 60, 60
2, 255060, Note_on_c, 0, 60, 0
2, 255060, Note_on_c, 0, 68, 0
2, 255060, Note_on_c, 0, 56, 0
2, 255060, Note_on_c, 0, 80, 0
2, 255060, Note_on_c, 0, 72, 0
2, 255060, Note_on_c, 0, 67, 76
2, 255060, Note_on_c, 0, 79, 76
2, 255060, Note_on_c, 0, 75, 18
2, 255060, Note_on_c, 0, 63, 70
2, 255060, Note_on_c, 0, 55, 63
2, 255150, Note_on_c, 0, 63, 0
2, 255150, Note_on_c, 0, 75, 0
2, 255150, Note_on_c, 0, 72, 16
2, 255150, Note_on_c, 0, 60, 59
2, 255240, Note_on_c, 0, 60, 0
2, 255240, Note_on_c, 0, 72, 0
2, 255240, Note_on_c, 0, 75, 15
2, 255240, Note_on_c, 0, 63, 75
2, 255330, Note_on_c, 0, 63, 0
2, 255330, Note_on_c, 0, 75, 0
2, 255330, Note_on_c, 0, 72, 8
2, 255330, Note_on_c, 0, 60, 59
2, 255420, Note_on_c, 0, 60, 0
2, 255420, Note_on_c, 0, 67, 0
2, 255420, Note_on_c, 0, 55, 0
2, 255420, Note_on_c, 0, 79, 0
2, 255420, Note_on_c, 0, 72, 0
2, 255420, Note_on_c, 0, 66, 88
2, 255420, Note_on_c, 0, 78, 88
2, 255420, Note_on_c, 0, 75, 14
2, 255420, Note_on_c, 0, 63, 70
2, 255420, Note_on_c, 0, 54, 73
2, 255510, Note_on_c, 0, 63, 0
2, 255510, Note_on_c, 0, 75, 0
2, 255510, Note_on_c, 0, 72, 11
2, 255510, Note_on_c, 0, 60, 62
2, 255578, Note_on_c, 0, 66, 0
2, 255578, Note_on_c, 0, 54, 0
2, 255578, Note_on_c, 0, 78, 0
2, 255600, Note_on_c, 0, 72, 0
2, 255600, Note_on_c, 0, 60, 0
2, 255600, Note_on_c, 0, 66, 77
2, 255600, Note_on_c, 0, 78, 77
2, 255600, Note_on_c, 0, 73, 14
2, 255600, Note_on_c, 0, 61, 66
2, 255600, Note_on_c, 0, 54, 65
2, 255690, Note_on_c, 0, 61, 0
2, 255690, Note_on_c, 0, 73, 0
2, 255690, Note_on_c, 0, 69, 10
2, 255690, Note_on_c, 0, 57, 61
2, 255780, Note_on_c, 0, 57, 0
2, 255780, Note_on_c, 0, 66, 0
2, 255780, Note_on_c, 0, 54, 0
2, 255780, Note_on_c, 0, 78, 0
2, 255780, Note_on_c, 0, 69, 0
2, 255780, Note_on_c, 0, 65, 74
2, 255780, Note_on_c, 0, 77, 74
2, 255780, Note_on_c, 0, 73, 20
2, 255780, Note_on_c, 0, 61, 77
2, 255780, Note_on_c, 0, 53, 65
2, 255870, Note_on_c, 0, 61, 0
2, 255870, Note_on_c, 0, 73, 0
2, 255870, Note_on_c, 0, 69, 17
2, 255870, Note_on_c, 0, 57, 64
2, 255960, Note_on_c, 0, 57, 0
2, 255960, Note_on_c, 0, 69, 0
2, 255960, Note_on_c, 0, 73, 18
2, 255960, Note_on_c, 0, 61, 73
2, 256050, Note_on_c, 0, 61, 0
2, 256050, Note_on_c, 0, 73, 0
2, 256050, Note_on_c, 0, 69, 19
2, 256050, Note_on_c, 0, 57, 63
2, 256140, Note_on_c, 0, 57, 0
2, 256140, Note_on_c, 0, 65, 0
2, 256140, Note_on_c, 0, 53, 0
2, 256140, Note_on_c, 0, 77, 0
2, 256140, Note_on_c, 0, 69, 0
2, 256140, Note_on_c, 0, 64, 88
2, 256140, Note_on_c, 0, 76, 88
2, 256140, Note_on_c, 0, 73, 17
2, 256140, Note_on_c, 0, 61, 73
2, 256140, Note_on_c, 0, 52, 76
2, 256230, Note_on_c, 0, 61, 0
2, 256230, Note_on_c, 0, 73, 0
2, 256230, Note_on_c, 0, 69, 16
2, 256230, Note_on_c, 0, 57, 65
2, 256298, Note_on_c, 0, 64, 0
2, 256298, Note_on_c, 0, 52, 0
2, 256298, Note_on_c, 0, 76, 0
2, 256320, Note_on_c, 0, 69, 0
2, 256320, Note_on_c, 0, 57, 0
2, 256320, Note_on_c, 0, 64, 78
2, 256320, Note_on_c, 0, 76, 78
2, 256320, Note_on_c, 0, 73, 15
2, 256320, Note_on_c, 0, 61, 66
2, 256320, Note_on_c, 0, 52, 66
2, 256410, Note_on_c, 0, 61, 0
2, 256410, Note_on_c, 0, 73, 0
2, 256410, Note_on_c, 0, 67, 12
2, 256410, Note_on_c, 0, 55, 62
2, 256500, Note_on_c, 0, 55, 0
2, 256500, Note_on_c, 0, 64, 0
2, 256500, Note_on_c, 0, 52, 0
2, 256500, Note_on_c, 0, 76, 0
2, 256500, Note_on_c, 0, 67, 0
2, 256500, Note_on_c, 0, 63, 72
2, 256500, Note_on_c, 0, 75, 72
2, 256500, Note_on_c, 0, 73, 8
2, 256500, Note_on_c, 0, 61, 59
2, 256500, Note_on_c, 0, 51, 59
2, 256590, Note_on_c, 0, 61, 0
2, 256590, Note_on_c, 0, 73, 0
2, 256590, Note_on_c, 0, 67, 5
2, 256590, Note_on_c, 0, 55, 56
2, 256680, Note_on_c, 0, 55, 0
2, 256680, Note_on_c, 0, 67, 0
2, 256680, Note_on_c, 0, 73, 2
2, 256680, Note_on_c, 0, 61, 53
2, 256770, Note_on_c, 0, 61, 0
2, 256770, Note_on_c, 0, 73, 0
2, 256770, Note_on_c, 0, 67, 1
2, 256770, Note_on_c, 0, 55, 50
2, 256860, Note_on_c, 0, 55, 0
2, 256860, Note_on_c, 0, 63, 0
2, 256860, Note_on_c, 0, 51, 0
2, 256860, Note_on_c, 0, 75, 0
2, 256860, Note_on_c, 0, 67, 0
2, 256860, Note_on_c, 0, 74, 59
2, 256860, Note_on_c, 0, 73, 1
2, 256860, Note_on_c, 0, 62, 47
2, 256860, Note_on_c, 0, 61, 47
2, 256950, Note_on_c, 0, 61, 0
2, 256950, Note_on_c, 0, 73, 0
2, 256950, Note_on_c, 0, 67, 1
2, 256950, Note_on_c, 0, 67, 0
2, 256950, Note_on_c, 0, 55, 43
2, 257018, Note_on_c, 0, 62, 0
2, 257018, Note_on_c, 0, 74, 0
2, 257040, Note_on_c, 0, 55, 0
2, 257040, Note_on_c, 0, 67, 1
2, 257040, Note_on_c, 0, 67, 0
2, 257040, Note_on_c, 0, 74, 53
2, 257040, Note_on_c, 0, 68, 1
2, 257040, Note_on_c, 0, 62, 54
2, 257040, Note_on_c, 0, 56, 42
2, 257130, Note_on_c, 0, 56, 0
2, 257130, Note_on_c, 0, 68, 0
2, 257130, Note_on_c, 0, 64, 1
2, 257130, Note_on_c, 0, 52, 42
2, 257220, Note_on_c, 0, 52, 0
2, 257220, Note_on_c, 0, 74, 0
2, 257220, Note_on_c, 0, 62, 0
2, 257220, Note_on_c, 0, 64, 0
2, 257220, Note_on_c, 0, 73, 60
2, 257220, Note_on_c, 0, 68, 1
2, 257220, Note_on_c, 0, 61, 51
2, 257220, Note_on_c, 0, 56, 44
2, 257310, Note_on_c, 0, 56, 0
2, 257310, Note_on_c, 0, 68, 0
2, 257310, Note_on_c, 0, 64, 1
2, 257310, Note_on_c, 0, 52, 37
2, 257400, Note_on_c, 0, 52, 0
2, 257400, Note_on_c, 0, 64, 0
2, 257400, Note_on_c, 0, 68, 1
2, 257400, Note_on_c, 0, 56, 39
2, 257580, Note_on_c, 0, 56, 0
2, 257580, Note_on_c, 0, 73, 0
2, 257580, Note_on_c, 0, 61, 0
2, 257580, Note_on_c, 0, 68, 0
2, 257580, Note_on_c, 0, 72, 66
2, 257580, Note_on_c, 0, 60, 63
2, 257738, Note_on_c, 0, 60, 0
2, 257738, Note_on_c, 0, 72, 0
2, 257760, Note_on_c, 0, 72, 55
2, 257760, Note_on_c, 0, 66, 1
2, 257760, Note_on_c, 0, 60, 62
2, 257760, Note_on_c, 0, 54, 37
2, 257850, Note_on_c, 0, 54, 0
2, 257850, Note_on_c, 0, 66, 0
2, 257850, Note_on_c, 0, 63, 1
2, 257850, Note_on_c, 0, 51, 39
2, 257940, Note_on_c, 0, 51, 0
2, 257940, Note_on_c, 0, 72, 0
2, 257940, Note_on_c, 0, 60, 0
2, 257940, Note_on_c, 0, 63, 0
2, 257940, Note_on_c, 0, 71, 48
2, 257940, Note_on_c, 0, 66, 1
2, 257940, Note_on_c, 0, 59, 52
2, 257940, Note_on_c, 0, 54, 41
2, 258030, Note_on_c, 0, 54, 0
2, 258030, Note_on_c, 0, 66, 0
2, 258030, Note_on_c, 0, 63, 1
2, 258030, Note_on_c, 0, 51, 40
2, 258120, Note_on_c, 0, 51, 0
2, 258120, Note_on_c, 0, 63, 0
2, 258120, Note_on_c, 0, 66, 1
2, 258120, Note_on_c, 0, 54, 42
2, 258300, Note_on_c, 0, 54, 0
2, 258300, Note_on_c, 0, 71, 0
2, 258300, Note_on_c, 0, 59, 0
2, 258300, Note_on_c, 0, 66, 0
2, 258300, Note_on_c, 0, 70, 67
2, 258300, Note_on_c, 0, 58, 63
2, 258458, Note_on_c, 0, 58, 0
2, 258458, Note_on_c, 0, 70, 0
2, 258480, Note_on_c, 0, 70, 56
2, 258480, Note_on_c, 0, 64, 1
2, 258480, Note_on_c, 0, 58, 55
2, 258480, Note_on_c, 0, 52, 33
2, 258570, Note_on_c, 0, 52, 0
2, 258570, Note_on_c, 0, 64, 0
2, 258570, Note_on_c, 0, 61, 1
2, 258570, Note_on_c, 0, 49, 40
2, 258660, Note_on_c, 0, 49, 0
2, 258660, Note_on_c, 0, 70, 0
2, 258660, Note_on_c, 0, 58, 0
2, 258660, Note_on_c, 0, 61, 0
2, 258660, Note_on_c, 0, 69, 56
2, 258660, Note_on_c, 0, 64, 1
2, 258660, Note_on_c, 0, 57, 55
2, 258660, Note_on_c, 0, 52, 41
2, 258750, Note_on_c, 0, 52, 0
2, 258750, Note_on_c, 0, 64, 0
2, 258750, Note_on_c, 0, 61, 1
2, 258750, Note_on_c, 0, 49, 33
2, 258840, Note_on_c, 0, 49, 0
2, 258840, Note_on_c, 0, 61, 0
2, 258840, Note_on_c, 0, 64, 1
2, 258840, Note_on_c, 0, 52, 45
2, 259020, Note_on_c, 0, 52, 0
2, 259020, Note_on_c, 0, 69, 0
2, 259020, Note_on_c, 0, 57, 0
2, 259020, Note_on_c, 0, 64, 0
2, 259020, Note_on_c, 0, 68, 56
2, 259020, Note_on_c, 0, 56, 53
2, 259178, Note_on_c, 0, 56, 0
2, 259178, Note_on_c, 0, 68, 0
2, 259200, Note_on_c, 0, 68, 42
2, 259200, Note_on_c, 0, 64, 37
2, 259200, Note_on_c, 0, 56, 44
2, 259290, Note_on_c, 0, 64, 0
2, 259290, Note_on_c, 0, 58, 37
2, 259380, Note_on_c, 0, 58, 0
2, 259380, Note_on_c, 0, 56, 0
2, 259380, Note_on_c, 0, 68, 0
2, 259380, Note_on_c, 0, 67, 43
2, 259380, Note_on_c, 0, 64, 52
2, 259380, Note_on_c, 0, 55, 47
2, 259470, Note_on_c, 0, 64, 0
2, 259470, Note_on_c, 0, 58, 44
2, 259560, Note_on_c, 0, 58, 0
2, 259560, Note_on_c, 0, 64, 54
2, 259740, Note_on_c, 0, 64, 0
2, 259740, Note_on_c, 0, 55, 0
2, 259740, Note_on_c, 0, 67, 0
2, 259740, Note_on_c, 0, 66, 54
2, 259740, Note_on_c, 0, 54, 56
2, 259898, Note_on_c, 0, 54, 0
2, 259898, Note_on_c, 0, 66, 0
2, 259920, Note_on_c, 0, 66, 50
2, 259920, Note_on_c, 0, 54, 40
2, 260100, Note_on_c, 0, 54, 0
2, 260100, Note_on_c, 0, 66, 0
2, 260100, Note_on_c, 0, 65, 46
2, 260100, Note_on_c, 0, 61, 41
2, 260100, Note_on_c, 0, 53, 37
2, 260190, Note_on_c, 0, 61, 0
2, 260190, Note_on_c, 0, 57, 44
2, 260280, Note_on_c, 0, 57, 0
2, 260280, Note_on_c, 0, 61, 50
2, 260460, Note_on_c, 0, 61, 0
2, 260460, Note_on_c, 0, 53, 0
2, 260460, Note_on_c, 0, 65, 0
2, 260460, Note_on_c, 0, 64, 56
2, 260460, Note_on_c, 0, 52, 31
2, 260618, Note_on_c, 0, 52, 0
2, 260618, Note_on_c, 0, 64, 0
2, 260640, Note_on_c, 0, 64, 41
2, 260640, Note_on_c, 0, 55, 33
2, 260640, Note_on_c, 0, 52, 28
2, 260820, Note_on_c, 0, 52, 0
2, 260820, Note_on_c, 0, 64, 0
2, 260820, Note_on_c, 0, 63, 43
2, 260820, Note_on_c, 0, 51, 24
2, 261180, Note_on_c, 0, 51, 0
2, 261180, Note_on_c, 0, 63, 0
2, 261180, Note_on_c, 0, 62, 52
2, 261180, Note_on_c, 0, 50, 18
2, 261338, Note_on_c, 0, 50, 0
2, 261338, Note_on_c, 0, 62, 0
2, 261360, Note_on_c, 0, 55, 0
2, 261360, Note_on_c, 0, 61, 41
2, 261360, Note_on_c, 0, 52, 21
2, 261360, Note_on_c, 0, 56, 21
2, 261540, Note_on_c, 0, 61, 0
2, 261540, Note_on_c, 0, 60, 41
2, 261900, Note_on_c, 0, 60, 0
2, 261900, Note_on_c, 0, 56, 0
2, 261900, Note_on_c, 0, 52, 0
2, 261900, Note_on_c, 0, 59, 59
2, 261900, Note_on_c, 0, 56, 35
2, 261990, Note_on_c, 0, 56, 0
2, 261990, Note_on_c, 0, 52, 35
2, 262058, Note_on_c, 0, 59, 0
2, 262080, Note_on_c, 0, 52, 0
2, 262080, Note_on_c, 0, 59, 41
2, 262080, Note_on_c, 0, 56, 40
2, 262260, Note_on_c, 0, 56, 0
2, 262260, Note_on_c, 0, 59, 0
2, 262260, Note_on_c, 0, 58, 43
2, 262440, Note_on_c, 0, 58, 0
2, 262620, Note_on_c, 0, 57, 44
2, 262778, Note_on_c, 0, 57, 0
2, 262800, Note_on_c, 0, 64, 46
2, 262800, Note_on_c, 0, 57, 39
2, 262980, Note_on_c, 0, 57, 0
2, 262980, Note_on_c, 0, 56, 37
2, 263340, Note_on_c, 0, 56, 0
2, 263340, Note_on_c, 0, 56, 53
2, 263433, Note_on_c, 0, 64, 0
2, 263498, Note_on_c, 0, 56, 0
2, 263520, Note_on_c, 0, 60, 41
2, 263520, Note_on_c, 0, 56, 35
2, 263700, Note_on_c, 0, 56, 0
2, 263700, Note_on_c, 0, 55, 33
2, 263994, Note_on_c, 0, 60, 0
2, 264060, Note_on_c, 0, 55, 0
2, 264060, Note_on_c, 0, 57, 46
2, 264060, Note_on_c, 0, 54, 50
2, 264218, Note_on_c, 0, 54, 0
2, 264218, Note_on_c, 0, 57, 0
2, 264240, Note_on_c, 0, 61, 57
2, 264240, Note_on_c, 0, 54, 39
2, 264420, Note_on_c, 0, 54, 0
2, 264420, Note_on_c, 0, 53, 34
2, 264780, Note_on_c, 0, 53, 0
2, 264780, Note_on_c, 0, 52, 46
2, 264938, Note_on_c, 0, 52, 0
2, 264960, Note_on_c, 0, 52, 40
2, 265140, Note_on_c, 0, 52, 0
2, 265140, Note_on_c, 0, 51, 37
2, 265320, Note_on_c, 0, 51, 0
2, 265507, Note_on_c, 0, 61, 0
2, 265680, Note_on_c, 0, 52, 32
2, 265680, Note_on_c, 0, 56, 32
2, 267120, Note_on_c, 0, 56, 0
2, 267120, Note_on_c, 0, 52, 0
2, 270000, Note_on_c, 0, 80, 82
2, 270000, Note_on_c, 0, 76, 80
2, 270089, Note_on_c, 0, 76, 0
2, 270089, Note_on_c, 0, 80, 0
2, 270180, Note_on_c, 0, 80, 87
2, 270180, Note_on_c, 0, 76, 88
2, 270269, Note_on_c, 0, 76, 0
2, 270269, Note_on_c, 0, 80, 0
2, 270360, Note_on_c, 0, 81, 97
2, 270360, Note_on_c, 0, 78, 98
2, 270449, Note_on_c, 0, 78, 0
2, 270449, Note_on_c, 0, 81, 0
2, 270540, Note_on_c, 0, 80, 90
2, 270540, Note_on_c, 0, 76, 85
2, 270629, Note_on_c, 0, 76, 0
2, 270629, Note_on_c, 0, 80, 0
2, 270720, Note_on_c, 0, 78, 95
2, 270720, Note_on_c, 0, 75, 99
2, 271037, Note_on_c, 0, 75, 0
2, 271037, Note_on_c, 0, 78, 0
2, 271080, Note_on_c, 0, 80, 110
2, 271080, Note_on_c, 0, 76, 106
2, 271397, Note_on_c, 0, 76, 0
2, 271397, Note_on_c, 0, 80, 0
2, 271440, Note_on_c, 0, 76, 82
2, 271440, Note_on_c, 0, 73, 88
2, 271574, Note_on_c, 0, 73, 0
2, 271574, Note_on_c, 0, 76, 0
2, 271710, Note_on_c, 0, 76, 87
2, 271710, Note_on_c, 0, 73, 87
2, 271754, Note_on_c, 0, 73, 0
2, 271754, Note_on_c, 0, 76, 0
2, 271800, Note_on_c, 0, 76, 93
2, 271800, Note_on_c, 0, 73, 92
2, 271889, Note_on_c, 0, 73, 0
2, 271889, Note_on_c, 0, 76, 0
2, 271980, Note_on_c, 0, 78, 101
2, 271980, Note_on_c, 0, 75, 101
2, 272069, Note_on_c, 0, 75, 0
2, 272069, Note_on_c, 0, 78, 0
2, 272160, Note_on_c, 0, 80, 102
2, 272160, Note_on_c, 0, 76, 104
2, 272519, Note_on_c, 0, 76, 0
2, 272519, Note_on_c, 0, 80, 0
2, 276120, Note_on_c, 0, 83, 69
2, 276120, Note_on_c, 0, 80, 71
2, 276209, Note_on_c, 0, 80, 0
2, 276209, Note_on_c, 0, 83, 0
2, 276300, Note_on_c, 0, 83, 79
2, 276300, Note_on_c, 0, 80, 76
2, 276389, Note_on_c, 0, 80, 0
2, 276389, Note_on_c, 0, 83, 0
2, 276480, Note_on_c, 0, 85, 84
2, 276480, Note_on_c, 0, 81, 80
2, 276569, Note_on_c, 0, 81, 0
2, 276569, Note_on_c, 0, 85, 0
2, 276660, Note_on_c, 0, 83, 71
2, 276660, Note_on_c, 0, 80, 72
2, 276749, Note_on_c, 0, 80, 0
2, 276749, Note_on_c, 0, 83, 0
2, 276840, Note_on_c, 0, 81, 85
2, 276840, Note_on_c, 0, 78, 89
2, 277157, Note_on_c, 0, 78, 0
2, 277157, Note_on_c, 0, 81, 0
2, 277200, Note_on_c, 0, 83, 99
2, 277200, Note_on_c, 0, 80, 93
2, 277517, Note_on_c, 0, 80, 0
2, 277517, Note_on_c, 0, 83, 0
2, 277560, Note_on_c, 0, 80, 74
2, 277560, Note_on_c, 0, 76, 70
2, 277694, Note_on_c, 0, 76, 0
2, 277694, Note_on_c, 0, 80, 0
2, 277830, Note_on_c, 0, 80, 75
2, 277830, Note_on_c, 0, 76, 80
2, 277874, Note_on_c, 0, 76, 0
2, 277874, Note_on_c, 0, 80, 0
2, 277920, Note_on_c, 0, 80, 81
2, 277920, Note_on_c, 0, 76, 79
2, 278009, Note_on_c, 0, 76, 0
2, 278009, Note_on_c, 0, 80, 0
2, 278100, Note_on_c, 0, 81, 83
2, 278100, Note_on_c, 0, 78, 84
2, 278189, Note_on_c, 0, 78, 0
2, 278189, Note_on_c, 0, 81, 0
2, 278280, Note_on_c, 0, 83, 83
2, 278280, Note_on_c, 0, 80, 85
2, 278639, Note_on_c, 0, 80, 0
2, 278639, Note_on_c, 0, 83, 0
2, 280800, Note_on_c, 0, 88, 60
2, 280800, Note_on_c, 0, 85, 38
2, 281160, Note_on_c, 0, 85, 0
2, 281160, Note_on_c, 0, 88, 0
2, 281160, Note_on_c, 0, 90, 54
2, 281160, Note_on_c, 0, 86, 50
2, 281340, Note_on_c, 0, 86, 0
2, 281340, Note_on_c, 0, 90, 0
2, 281340, Note_on_c, 0, 88, 45
2, 281340, Note_on_c, 0, 85, 43
2, 281429, Note_on_c, 0, 85, 0
2, 281429, Note_on_c, 0, 88, 0
2, 281520, Note_on_c, 0, 88, 93
2, 281520, Note_on_c, 0, 86, 55
2, 281520, Note_on_c, 0, 83, 51
2, 281837, Note_on_c, 0, 83, 0
2, 281837, Note_on_c, 0, 86, 0
2, 281880, Note_on_c, 0, 88, 63
2, 281880, Note_on_c, 0, 85, 60
2, 282197, Note_on_c, 0, 85, 0
2, 282197, Note_on_c, 0, 88, 0
2, 282240, Note_on_c, 0, 88, 0
2, 282240, Note_on_c, 0, 85, 82
2, 282240, Note_on_c, 0, 81, 55
2, 282557, Note_on_c, 0, 81, 0
2, 282557, Note_on_c, 0, 85, 0
2, 282600, Note_on_c, 0, 85, 75
2, 282600, Note_on_c, 0, 81, 44
2, 282689, Note_on_c, 0, 81, 0
2, 282689, Note_on_c, 0, 85, 0
2, 282780, Note_on_c, 0, 86, 79
2, 282780, Note_on_c, 0, 83, 47
2, 282869, Note_on_c, 0, 83, 0
2, 282869, Note_on_c, 0, 86, 0
2, 282960, Note_on_c, 0, 88, 95
2, 282960, Note_on_c, 0, 85, 59
2, 283593, Note_on_c, 0, 85, 0
2, 283593, Note_on_c, 0, 88, 0
2, 283680, Note_on_c, 0, 88, 61
2, 283680, Note_on_c, 0, 85, 60
2, 283997, Note_on_c, 0, 85, 0
2, 283997, Note_on_c, 0, 88, 0
2, 284040, Note_on_c, 0, 90, 48
2, 284040, Note_on_c, 0, 86, 46
2, 284129, Note_on_c, 0, 86, 0
2, 284129, Note_on_c, 0, 90, 0
2, 284220, Note_on_c, 0, 88, 42
2, 284220, Note_on_c, 0, 85, 38
2, 284309, Note_on_c, 0, 85, 0
2, 284309, Note_on_c, 0, 88, 0
2, 284400, Note_on_c, 0, 88, 93
2, 284400, Note_on_c, 0, 86, 42
2, 284400, Note_on_c, 0, 83, 40
2, 284489, Note_on_c, 0, 83, 0
2, 284489, Note_on_c, 0, 86, 0
2, 284580, Note_on_c, 0, 86, 44
2, 284580, Note_on_c, 0, 83, 43
2, 284669, Note_on_c, 0, 83, 0
2, 284669, Note_on_c, 0, 86, 0
2, 284760, Note_on_c, 0, 88, 58
2, 284760, Note_on_c, 0, 85, 56
2, 285077, Note_on_c, 0, 85, 0
2, 285077, Note_on_c, 0, 88, 0
2, 285120, Note_on_c, 0, 88, 0
2, 285120, Note_on_c, 0, 85, 71
2, 285120, Note_on_c, 0, 81, 38
2, 285254, Note_on_c, 0, 81, 0
2, 285254, Note_on_c, 0, 85, 0
2, 285390, Note_on_c, 0, 85, 81
2, 285390, Note_on_c, 0, 81, 53
2, 285434, Note_on_c, 0, 81, 0
2, 285434, Note_on_c, 0, 85, 0
2, 285480, Note_on_c, 0, 85, 74
2, 285480, Note_on_c, 0, 81, 51
2, 285569, Note_on_c, 0, 81, 0
2, 285569, Note_on_c, 0, 85, 0
2, 285660, Note_on_c, 0, 86, 79
2, 285660, Note_on_c, 0, 83, 44
2, 285749, Note_on_c, 0, 83, 0
2, 285749, Note_on_c, 0, 86, 0
2, 285840, Note_on_c, 0, 88, 99
2, 285840, Note_on_c, 0, 85, 61
2, 286473, Note_on_c, 0, 85, 0
2, 286473, Note_on_c, 0, 88, 0
2, 286560, Note_on_c, 0, 83, 45
2, 286560, Note_on_c, 0, 80, 46
2, 286877, Note_on_c, 0, 80, 0
2, 286877, Note_on_c, 0, 83, 0
2, 286920, Note_on_c, 0, 85, 36
2, 286920, Note_on_c, 0, 81, 39
2, 287009, Note_on_c, 0, 81, 0
2, 287009, Note_on_c, 0, 85, 0
2, 287100, Note_on_c, 0, 83, 37
2, 287100, Note_on_c, 0, 80, 32
2, 287189, Note_on_c, 0, 80, 0
2, 287189, Note_on_c, 0, 83, 0
2, 287280, Note_on_c, 0, 83, 95
2, 287280, Note_on_c, 0, 81, 37
2, 287280, Note_on_c, 0, 78, 36
2, 287369, Note_on_c, 0, 78, 0
2, 287369, Note_on_c, 0, 81, 0
2, 287460, Note_on_c, 0, 81, 35
2, 287460, Note_on_c, 0, 78, 44
2, 287549, Note_on_c, 0, 78, 0
2, 287549, Note_on_c, 0, 81, 0
2, 287640, Note_on_c, 0, 83, 52
2, 287640, Note_on_c, 0, 80, 55
2, 287957, Note_on_c, 0, 80, 0
2, 287957, Note_on_c, 0, 83, 0
2, 288000, Note_on_c, 0, 83, 0
2, 288000, Note_on_c, 0, 80, 68
2, 288000, Note_on_c, 0, 76, 36
2, 288134, Note_on_c, 0, 76, 0
2, 288134, Note_on_c, 0, 80, 0
2, 288270, Note_on_c, 0, 80, 76
2, 288270, Note_on_c, 0, 76, 36
2, 288314, Note_on_c, 0, 76, 0
2, 288314, Note_on_c, 0, 80, 0
2, 288360, Note_on_c, 0, 80, 82
2, 288360, Note_on_c, 0, 76, 35
2, 288449, Note_on_c, 0, 76, 0
2, 288449, Note_on_c, 0, 80, 0
2, 288540, Note_on_c, 0, 81, 83
2, 288540, Note_on_c, 0, 78, 44
2, 288629, Note_on_c, 0, 78, 0
2, 288629, Note_on_c, 0, 81, 0
2, 288720, Note_on_c, 0, 83, 93
2, 288720, Note_on_c, 0, 80, 53
2, 289037, Note_on_c, 0, 80, 0
2, 289037, Note_on_c, 0, 83, 0
2, 289080, Note_on_c, 0, 83, 88
2, 289080, Note_on_c, 0, 80, 51
2, 289440, Note_on_c, 0, 83, 0
2, 289440, Note_on_c, 0, 83, 37
2, 289620, Note_on_c, 0, 83, 0
2, 289620, Note_on_c, 0, 80, 0
2, 289620, Note_on_c, 0, 83, 32
2, 289620, Note_on_c, 0, 80, 35
2, 289709, Note_on_c, 0, 80, 0
2, 289709, Note_on_c, 0, 83, 0
2, 289800, Note_on_c, 0, 85, 41
2, 289800, Note_on_c, 0, 81, 35
2, 289889, Note_on_c, 0, 81, 0
2, 289889, Note_on_c, 0, 85, 0
2, 289980, Note_on_c, 0, 83, 37
2, 289980, Note_on_c, 0, 80, 32
2, 290069, Note_on_c, 0, 80, 0
2, 290069, Note_on_c, 0, 83, 0
2, 290160, Note_on_c, 0, 83, 94
2, 290160, Note_on_c, 0, 81, 33
2, 290160, Note_on_c, 0, 78, 31
2, 290249, Note_on_c, 0, 78, 0
2, 290249, Note_on_c, 0, 81, 0
2, 290340, Note_on_c, 0, 81, 36
2, 290340, Note_on_c, 0, 78, 38
2, 290384, Note_on_c, 0, 78, 0
2, 290384, Note_on_c, 0, 81, 0
2, 290430, Note_on_c, 0, 81, 38
2, 290430, Note_on_c, 0, 78, 36
2, 290474, Note_on_c, 0, 78, 0
2, 290474, Note_on_c, 0, 81, 0
2, 290520, Note_on_c, 0, 83, 54
2, 290520, Note_on_c, 0, 80, 54
2, 290837, Note_on_c, 0, 80, 0
2, 290837, Note_on_c, 0, 83, 0
2, 290880, Note_on_c, 0, 83, 0
2, 290880, Note_on_c, 0, 80, 72
2, 290880, Note_on_c, 0, 76, 34
2, 291014, Note_on_c, 0, 76, 0
2, 291014, Note_on_c, 0, 80, 0
2, 291150, Note_on_c, 0, 80, 75
2, 291150, Note_on_c, 0, 76, 42
2, 291194, Note_on_c, 0, 76, 0
2, 291194, Note_on_c, 0, 80, 0
2, 291240, Note_on_c, 0, 80, 81
2, 291240, Note_on_c, 0, 76, 37
2, 291329, Note_on_c, 0, 76, 0
2, 291329, Note_on_c, 0, 80, 0
2, 291420, Note_on_c, 0, 81, 81
2, 291420, Note_on_c, 0, 78, 37
2, 291509, Note_on_c, 0, 78, 0
2, 291509, Note_on_c, 0, 81, 0
2, 291600, Note_on_c, 0, 83, 96
2, 291600, Note_on_c, 0, 80, 50
2, 291917, Note_on_c, 0, 80, 0
2, 291917, Note_on_c, 0, 83, 0
2, 291960, Note_on_c, 0, 76, 45
2, 292277, Note_on_c, 0, 76, 0
2, 292320, Note_on_c, 0, 85, 84
2, 292320, Note_on_c, 0, 88, 84
2, 292320, Note_on_c, 0, 76, 36
2, 292409, Note_on_c, 0, 76, 0
2, 292500, Note_on_c, 0, 76, 49
2, 292637, Note_on_c, 0, 88, 0
2, 292637, Note_on_c, 0, 85, 0
2, 292680, Note_on_c, 0, 86, 85
2, 292680, Note_on_c, 0, 90, 85
2, 292769, Note_on_c, 0, 90, 0
2, 292769, Note_on_c, 0, 86, 0
2, 292817, Note_on_c, 0, 76, 0
2, 292860, Note_on_c, 0, 85, 75
2, 292860, Note_on_c, 0, 88, 75
2, 292860, Note_on_c, 0, 76, 42
2, 292949, Note_on_c, 0, 76, 0
2, 292949, Note_on_c, 0, 88, 0
2, 292949, Note_on_c, 0, 85, 0
2, 293040, Note_on_c, 0, 83, 84
2, 293040, Note_on_c, 0, 86, 84
2, 293081, Note_on_c, 0, 76, 42
2, 293113, Note_on_c, 0, 76, 0
2, 293119, Note_on_c, 0, 78, 28
2, 293148, Note_on_c, 0, 78, 0
2, 293156, Note_on_c, 0, 76, 33
2, 293184, Note_on_c, 0, 76, 0
2, 293190, Note_on_c, 0, 78, 22
2, 293219, Note_on_c, 0, 78, 0
2, 293224, Note_on_c, 0, 76, 40
2, 293251, Note_on_c, 0, 76, 0
2, 293259, Note_on_c, 0, 78, 33
2, 293288, Note_on_c, 0, 78, 0
2, 293296, Note_on_c, 0, 76, 42
2, 293324, Note_on_c, 0, 76, 0
2, 293334, Note_on_c, 0, 78, 26
2, 293357, Note_on_c, 0, 86, 0
2, 293357, Note_on_c, 0, 83, 0
2, 293364, Note_on_c, 0, 78, 0
2, 293373, Note_on_c, 0, 76, 32
2, 293400, Note_on_c, 0, 85, 95
2, 293400, Note_on_c, 0, 88, 95
2, 293400, Note_on_c, 0, 76, 38
2, 293404, Note_on_c, 0, 76, 0
2, 293580, Note_on_c, 0, 76, 0
2, 293717, Note_on_c, 0, 88, 0
2, 293717, Note_on_c, 0, 85, 0
2, 293760, Note_on_c, 0, 81, 84
2, 293760, Note_on_c, 0, 85, 84
2, 293760, Note_on_c, 0, 76, 39
2, 293849, Note_on_c, 0, 76, 0
2, 293940, Note_on_c, 0, 76, 49
2, 294077, Note_on_c, 0, 85, 0
2, 294077, Note_on_c, 0, 81, 0
2, 294120, Note_on_c, 0, 81, 75
2, 294120, Note_on_c, 0, 85, 75
2, 294209, Note_on_c, 0, 85, 0
2, 294209, Note_on_c, 0, 81, 0
2, 294257, Note_on_c, 0, 76, 0
2, 294300, Note_on_c, 0, 83, 85
2, 294300, Note_on_c, 0, 86, 85
2, 294300, Note_on_c, 0, 76, 40
2, 294389, Note_on_c, 0, 76, 0
2, 294389, Note_on_c, 0, 86, 0
2, 294389, Note_on_c, 0, 83, 0
2, 294480, Note_on_c, 0, 85, 99
2, 294480, Note_on_c, 0, 88, 99
2, 294521, Note_on_c, 0, 76, 39
2, 294553, Note_on_c, 0, 76, 0
2, 294559, Note_on_c, 0, 78, 37
2, 294588, Note_on_c, 0, 78, 0
2, 294596, Note_on_c, 0, 76, 36
2, 294624, Note_on_c, 0, 76, 0
2, 294630, Note_on_c, 0, 78, 37
2, 294659, Note_on_c, 0, 78, 0
2, 294664, Note_on_c, 0, 76, 34
2, 294691, Note_on_c, 0, 76, 0
2, 294699, Note_on_c, 0, 78, 32
2, 294728, Note_on_c, 0, 78, 0
2, 294736, Note_on_c, 0, 76, 36
2, 294764, Note_on_c, 0, 76, 0
2, 294774, Note_on_c, 0, 78, 31
2, 294804, Note_on_c, 0, 78, 0
2, 294813, Note_on_c, 0, 76, 46
2, 294840, Note_on_c, 0, 76, 38
2, 294844, Note_on_c, 0, 76, 0
2, 295020, Note_on_c, 0, 76, 0
2, 295113, Note_on_c, 0, 88, 0
2, 295113, Note_on_c, 0, 85, 0
2, 295200, Note_on_c, 0, 85, 87
2, 295200, Note_on_c, 0, 88, 87
2, 295200, Note_on_c, 0, 76, 33
2, 295289, Note_on_c, 0, 76, 0
2, 295380, Note_on_c, 0, 76, 47
2, 295517, Note_on_c, 0, 88, 0
2, 295517, Note_on_c, 0, 85, 0
2, 295560, Note_on_c, 0, 86, 81
2, 295560, Note_on_c, 0, 90, 81
2, 295649, Note_on_c, 0, 90, 0
2, 295649, Note_on_c, 0, 86, 0
2, 295697, Note_on_c, 0, 76, 0
2, 295740, Note_on_c, 0, 85, 76
2, 295740, Note_on_c, 0, 88, 76
2, 295740, Note_on_c, 0, 76, 40
2, 295829, Note_on_c, 0, 76, 0
2, 295829, Note_on_c, 0, 88, 0
2, 295829, Note_on_c, 0, 85, 0
2, 295920, Note_on_c, 0, 83, 69
2, 295920, Note_on_c, 0, 86, 69
2, 295961, Note_on_c, 0, 76, 33
2, 295993, Note_on_c, 0, 76, 0
2, 295999, Note_on_c, 0, 78, 27
2, 296009, Note_on_c, 0, 86, 0
2, 296009, Note_on_c, 0, 83, 0
2, 296028, Note_on_c, 0, 78, 0
2, 296036, Note_on_c, 0, 76, 36
2, 296064, Note_on_c, 0, 76, 0
2, 296070, Note_on_c, 0, 78, 26
2, 296099, Note_on_c, 0, 78, 0
2, 296100, Note_on_c, 0, 83, 80
2, 296100, Note_on_c, 0, 86, 80
2, 296104, Note_on_c, 0, 76, 37
2, 296131, Note_on_c, 0, 76, 0
2, 296139, Note_on_c, 0, 78, 29
2, 296168, Note_on_c, 0, 78, 0
2, 296176, Note_on_c, 0, 76, 35
2, 296189, Note_on_c, 0, 86, 0
2, 296189, Note_on_c, 0, 83, 0
2, 296204, Note_on_c, 0, 76, 0
2, 296214, Note_on_c, 0, 78, 30
2, 296244, Note_on_c, 0, 78, 0
2, 296253, Note_on_c, 0, 76, 36
2, 296280, Note_on_c, 0, 85, 94
2, 296280, Note_on_c, 0, 88, 94
2, 296280, Note_on_c, 0, 76, 38
2, 296284, Note_on_c, 0, 76, 0
2, 296460, Note_on_c, 0, 76, 0
2, 296597, Note_on_c, 0, 88, 0
2, 296597, Note_on_c, 0, 85, 0
2, 296640, Note_on_c, 0, 81, 76
2, 296640, Note_on_c, 0, 85, 76
2, 296640, Note_on_c, 0, 76, 32
2, 296729, Note_on_c, 0, 76, 0
2, 296774, Note_on_c, 0, 85, 0
2, 296774, Note_on_c, 0, 81, 0
2, 296820, Note_on_c, 0, 76, 49
2, 296910, Note_on_c, 0, 81, 73
2, 296910, Note_on_c, 0, 85, 73
2, 296954, Note_on_c, 0, 85, 0
2, 296954, Note_on_c, 0, 81, 0
2, 297000, Note_on_c, 0, 81, 81
2, 297000, Note_on_c, 0, 85, 81
2, 297089, Note_on_c, 0, 85, 0
2, 297089, Note_on_c, 0, 81, 0
2, 297137, Note_on_c, 0, 76, 0
2, 297180, Note_on_c, 0, 83, 78
2, 297180, Note_on_c, 0, 86, 78
2, 297180, Note_on_c, 0, 76, 40
2, 297269, Note_on_c, 0, 76, 0
2, 297269, Note_on_c, 0, 86, 0
2, 297269, Note_on_c, 0, 83, 0
2, 297360, Note_on_c, 0, 85, 95
2, 297360, Note_on_c, 0, 88, 95
2, 297401, Note_on_c, 0, 76, 38
2, 297433, Note_on_c, 0, 76, 0
2, 297439, Note_on_c, 0, 78, 36
2, 297468, Note_on_c, 0, 78, 0
2, 297476, Note_on_c, 0, 76, 42
2, 297504, Note_on_c, 0, 76, 0
2, 297510, Note_on_c, 0, 78, 34
2, 297539, Note_on_c, 0, 78, 0
2, 297544, Note_on_c, 0, 76, 41
2, 297571, Note_on_c, 0, 76, 0
2, 297579, Note_on_c, 0, 78, 29
2, 297608, Note_on_c, 0, 78, 0
2, 297616, Note_on_c, 0, 76, 43
2, 297644, Note_on_c, 0, 76, 0
2, 297654, Note_on_c, 0, 78, 39
2, 297684, Note_on_c, 0, 78, 0
2, 297693, Note_on_c, 0, 76, 36
2, 297720, Note_on_c, 0, 76, 41
2, 297724, Note_on_c, 0, 76, 0
2, 297900, Note_on_c, 0, 76, 0
2, 297993, Note_on_c, 0, 88, 0
2, 297993, Note_on_c, 0, 85, 0
2, 298080, Note_on_c, 0, 80, 41
2, 298080, Note_on_c, 0, 83, 41
2, 298080, Note_on_c, 0, 71, 41
2, 298169, Note_on_c, 0, 71, 0
2, 298260, Note_on_c, 0, 71, 53
2, 298397, Note_on_c, 0, 83, 0
2, 298397, Note_on_c, 0, 80, 0
2, 298440, Note_on_c, 0, 81, 37
2, 298440, Note_on_c, 0, 85, 37
2, 298529, Note_on_c, 0, 85, 0
2, 298529, Note_on_c, 0, 81, 0
2, 298577, Note_on_c, 0, 71, 0
2, 298620, Note_on_c, 0, 80, 34
2, 298620, Note_on_c, 0, 83, 34
2, 298620, Note_on_c, 0, 71, 37
2, 298709, Note_on_c, 0, 71, 0
2, 298709, Note_on_c, 0, 83, 0
2, 298709, Note_on_c, 0, 80, 0
2, 298800, Note_on_c, 0, 78, 33
2, 298800, Note_on_c, 0, 81, 33
2, 298841, Note_on_c, 0, 71, 43
2, 298873, Note_on_c, 0, 71, 0
2, 298879, Note_on_c, 0, 73, 36
2, 298889, Note_on_c, 0, 81, 0
2, 298889, Note_on_c, 0, 78, 0
2, 298908, Note_on_c, 0, 73, 0
2, 298916, Note_on_c, 0, 71, 39
2, 298944, Note_on_c, 0, 71, 0
2, 298950, Note_on_c, 0, 73, 39
2, 298979, Note_on_c, 0, 73, 0
2, 298980, Note_on_c, 0, 78, 35
2, 298980, Note_on_c, 0, 81, 35
2, 298984, Note_on_c, 0, 71, 35
2, 299011, Note_on_c, 0, 71, 0
2, 299019, Note_on_c, 0, 73, 38
2, 299048, Note_on_c, 0, 73, 0
2, 299056, Note_on_c, 0, 71, 39
2, 299069, Note_on_c, 0, 81, 0
2, 299069, Note_on_c, 0, 78, 0
2, 299084, Note_on_c, 0, 71, 0
2, 299094, Note_on_c, 0, 73, 35
2, 299124, Note_on_c, 0, 73, 0
2, 299133, Note_on_c, 0, 71, 39
2, 299160, Note_on_c, 0, 80, 55
2, 299160, Note_on_c, 0, 83, 55
2, 299160, Note_on_c, 0, 71, 42
2, 299164, Note_on_c, 0, 71, 0
2, 299340, Note_on_c, 0, 71, 0
2, 299477, Note_on_c, 0, 83, 0
2, 299477, Note_on_c, 0, 80, 0
2, 299520, Note_on_c, 0, 76, 34
2, 299520, Note_on_c, 0, 80, 34
2, 299520, Note_on_c, 0, 71, 27
2, 299609, Note_on_c, 0, 71, 0
2, 299654, Note_on_c, 0, 80, 0
2, 299654, Note_on_c, 0, 76, 0
2, 299700, Note_on_c, 0, 71, 49
2, 299790, Note_on_c, 0, 76, 38
2, 299790, Note_on_c, 0, 80, 38
2, 299834, Note_on_c, 0, 80, 0
2, 299834, Note_on_c, 0, 76, 0
2, 299880, Note_on_c, 0, 76, 41
2, 299880, Note_on_c, 0, 80, 41
2, 299969, Note_on_c, 0, 80, 0
2, 299969, Note_on_c, 0, 76, 0
2, 300017, Note_on_c, 0, 71, 0
2, 300060, Note_on_c, 0, 78, 43
2, 300060, Note_on_c, 0, 81, 43
2, 300060, Note_on_c, 0, 71, 39
2, 300149, Note_on_c, 0, 71, 0
2, 300149, Note_on_c, 0, 81, 0
2, 300149, Note_on_c, 0, 78, 0
2, 300240, Note_on_c, 0, 80, 51
2, 300240, Note_on_c, 0, 83, 51
2, 300281, Note_on_c, 0, 71, 30
2, 300313, Note_on_c, 0, 71, 0
2, 300319, Note_on_c, 0, 73, 35
2, 300348, Note_on_c, 0, 73, 0
2, 300356, Note_on_c, 0, 71, 34
2, 300384, Note_on_c, 0, 71, 0
2, 300390, Note_on_c, 0, 73, 28
2, 300419, Note_on_c, 0, 73, 0
2, 300424, Note_on_c, 0, 71, 37
2, 300451, Note_on_c, 0, 71, 0
2, 300459, Note_on_c, 0, 73, 28
2, 300488, Note_on_c, 0, 73, 0
2, 300496, Note_on_c, 0, 71, 36
2, 300524, Note_on_c, 0, 71, 0
2, 300534, Note_on_c, 0, 73, 30
2, 300557, Note_on_c, 0, 83, 0
2, 300557, Note_on_c, 0, 80, 0
2, 300564, Note_on_c, 0, 73, 0
2, 300573, Note_on_c, 0, 71, 37
2, 300600, Note_on_c, 0, 80, 52
2, 300600, Note_on_c, 0, 83, 52
2, 300600, Note_on_c, 0, 71, 35
2, 300604, Note_on_c, 0, 71, 0
2, 300780, Note_on_c, 0, 71, 0
2, 300960, Note_on_c, 0, 71, 27
2, 301049, Note_on_c, 0, 71, 0
2, 301140, Note_on_c, 0, 83, 0
2, 301140, Note_on_c, 0, 80, 0
2, 301140, Note_on_c, 0, 80, 39
2, 301140, Note_on_c, 0, 83, 39
2, 301140, Note_on_c, 0, 71, 52
2, 301229, Note_on_c, 0, 83, 0
2, 301229, Note_on_c, 0, 80, 0
2, 301320, Note_on_c, 0, 81, 39
2, 301320, Note_on_c, 0, 85, 39
2, 301409, Note_on_c, 0, 85, 0
2, 301409, Note_on_c, 0, 81, 0
2, 301457, Note_on_c, 0, 71, 0
2, 301500, Note_on_c, 0, 80, 37
2, 301500, Note_on_c, 0, 83, 37
2, 301500, Note_on_c, 0, 71, 39
2, 301589, Note_on_c, 0, 71, 0
2, 301589, Note_on_c, 0, 83, 0
2, 301589, Note_on_c, 0, 80, 0
2, 301680, Note_on_c, 0, 78, 35
2, 301680, Note_on_c, 0, 81, 35
2, 301721, Note_on_c, 0, 71, 47
2, 301753, Note_on_c, 0, 71, 0
2, 301759, Note_on_c, 0, 73, 32
2, 301769, Note_on_c, 0, 81, 0
2, 301769, Note_on_c, 0, 78, 0
2, 301788, Note_on_c, 0, 73, 0
2, 301796, Note_on_c, 0, 71, 37
2, 301824, Note_on_c, 0, 71, 0
2, 301830, Note_on_c, 0, 73, 26
2, 301859, Note_on_c, 0, 73, 0
2, 301860, Note_on_c, 0, 78, 38
2, 301860, Note_on_c, 0, 81, 38
2, 301864, Note_on_c, 0, 71, 38
2, 301891, Note_on_c, 0, 71, 0
2, 301899, Note_on_c, 0, 73, 31
2, 301904, Note_on_c, 0, 81, 0
2, 301904, Note_on_c, 0, 78, 0
2, 301928, Note_on_c, 0, 73, 0
2, 301936, Note_on_c, 0, 71, 36
2, 301950, Note_on_c, 0, 78, 38
2, 301950, Note_on_c, 0, 81, 38
2, 301964, Note_on_c, 0, 71, 0
2, 301974, Note_on_c, 0, 73, 37
2, 301994, Note_on_c, 0, 81, 0
2, 301994, Note_on_c, 0, 78, 0
2, 302004, Note_on_c, 0, 73, 0
2, 302013, Note_on_c, 0, 71, 37
2, 302040, Note_on_c, 0, 80, 51
2, 302040, Note_on_c, 0, 83, 51
2, 302040, Note_on_c, 0, 71, 36
2, 302044, Note_on_c, 0, 71, 0
2, 302220, Note_on_c, 0, 71, 0
2, 302357, Note_on_c, 0, 83, 0
2, 302357, Note_on_c, 0, 80, 0
2, 302400, Note_on_c, 0, 76, 39
2, 302400, Note_on_c, 0, 80, 39
2, 302400, Note_on_c, 0, 71, 33
2, 302489, Note_on_c, 0, 71, 0
2, 302534, Note_on_c, 0, 80, 0
2, 302534, Note_on_c, 0, 76, 0
2, 302580, Note_on_c, 0, 71, 48
2, 302670, Note_on_c, 0, 76, 34
2, 302670, Note_on_c, 0, 80, 34
2, 302714, Note_on_c, 0, 80, 0
2, 302714, Note_on_c, 0, 76, 0
2, 302760, Note_on_c, 0, 76, 36
2, 302760, Note_on_c, 0, 80, 36
2, 302849, Note_on_c, 0, 80, 0
2, 302849, Note_on_c, 0, 76, 0
2, 302897, Note_on_c, 0, 71, 0
2, 302940, Note_on_c, 0, 78, 40
2, 302940, Note_on_c, 0, 81, 40
2, 302940, Note_on_c, 0, 71, 40
2, 303029, Note_on_c, 0, 71, 0
2, 303029, Note_on_c, 0, 81, 0
2, 303029, Note_on_c, 0, 78, 0
2, 303120, Note_on_c, 0, 80, 51
2, 303120, Note_on_c, 0, 83, 51
2, 303168, Note_on_c, 0, 71, 38
2, 303206, Note_on_c, 0, 71, 0
2, 303212, Note_on_c, 0, 73, 29
2, 303245, Note_on_c, 0, 73, 0
2, 303252, Note_on_c, 0, 71, 38
2, 303285, Note_on_c, 0, 71, 0
2, 303292, Note_on_c, 0, 73, 32
2, 303323, Note_on_c, 0, 73, 0
2, 303331, Note_on_c, 0, 71, 42
2, 303362, Note_on_c, 0, 71, 0
2, 303372, Note_on_c, 0, 73, 28
2, 303404, Note_on_c, 0, 73, 0
2, 303416, Note_on_c, 0, 71, 40
2, 303437, Note_on_c, 0, 83, 0
2, 303437, Note_on_c, 0, 80, 0
2, 303449, Note_on_c, 0, 71, 0
2, 303462, Note_on_c, 0, 73, 30
2, 303480, Note_on_c, 0, 76, 41
2, 303480, Note_on_c, 0, 71, 37
2, 303498, Note_on_c, 0, 73, 0
2, 303660, Note_on_c, 0, 71, 0
2, 303797, Note_on_c, 0, 76, 0
2, 303840, Note_on_c, 0, 85, 122
2, 303840, Note_on_c, 0, 88, 122
2, 303840, Note_on_c, 0, 73, 91
2, 303840, Note_on_c, 0, 76, 91
2, 304157, Note_on_c, 0, 76, 0
2, 304157, Note_on_c, 0, 85, 0
2, 304157, Note_on_c, 0, 88, 0
2, 304157, Note_on_c, 0, 73, 0
2, 304200, Note_on_c, 0, 86, 107
2, 304200, Note_on_c, 0, 90, 107
2, 304200, Note_on_c, 0, 74, 95
2, 304200, Note_on_c, 0, 78, 95
2, 304289, Note_on_c, 0, 78, 0
2, 304289, Note_on_c, 0, 86, 0
2, 304289, Note_on_c, 0, 90, 0
2, 304289, Note_on_c, 0, 74, 0
2, 304380, Note_on_c, 0, 85, 89
2, 304380, Note_on_c, 0, 88, 89
2, 304380, Note_on_c, 0, 73, 86
2, 304380, Note_on_c, 0, 76, 86
2, 304469, Note_on_c, 0, 76, 0
2, 304469, Note_on_c, 0, 85, 0
2, 304469, Note_on_c, 0, 88, 0
2, 304469, Note_on_c, 0, 73, 0
2, 304560, Note_on_c, 0, 83, 99
2, 304560, Note_on_c, 0, 86, 99
2, 304560, Note_on_c, 0, 71, 98
2, 304560, Note_on_c, 0, 74, 98
2, 304877, Note_on_c, 0, 74, 0
2, 304877, Note_on_c, 0, 83, 0
2, 304877, Note_on_c, 0, 86, 0
2, 304877, Note_on_c, 0, 71, 0
2, 304920, Note_on_c, 0, 85, 113
2, 304920, Note_on_c, 0, 88, 113
2, 304920, Note_on_c, 0, 73, 112
2, 304920, Note_on_c, 0, 76, 112
2, 305237, Note_on_c, 0, 76, 0
2, 305237, Note_on_c, 0, 85, 0
2, 305237, Note_on_c, 0, 88, 0
2, 305237, Note_on_c, 0, 73, 0
2, 305280, Note_on_c, 0, 81, 85
2, 305280, Note_on_c, 0, 85, 85
2, 305280, Note_on_c, 0, 69, 84
2, 305280, Note_on_c, 0, 73, 84
2, 305414, Note_on_c, 0, 73, 0
2, 305414, Note_on_c, 0, 81, 0
2, 305414, Note_on_c, 0, 85, 0
2, 305414, Note_on_c, 0, 69, 0
2, 305550, Note_on_c, 0, 81, 93
2, 305550, Note_on_c, 0, 85, 93
2, 305550, Note_on_c, 0, 69, 94
2, 305550, Note_on_c, 0, 73, 94
2, 305594, Note_on_c, 0, 73, 0
2, 305594, Note_on_c, 0, 81, 0
2, 305594, Note_on_c, 0, 85, 0
2, 305594, Note_on_c, 0, 69, 0
2, 305640, Note_on_c, 0, 81, 97
2, 305640, Note_on_c, 0, 85, 97
2, 305640, Note_on_c, 0, 69, 92
2, 305640, Note_on_c, 0, 73, 92
2, 305729, Note_on_c, 0, 73, 0
2, 305729, Note_on_c, 0, 81, 0
2, 305729, Note_on_c, 0, 85, 0
2, 305729, Note_on_c, 0, 69, 0
2, 305820, Note_on_c, 0, 83, 96
2, 305820, Note_on_c, 0, 86, 96
2, 305820, Note_on_c, 0, 71, 96
2, 305820, Note_on_c, 0, 74, 96
2, 305909, Note_on_c, 0, 74, 0
2, 305909, Note_on_c, 0, 83, 0
2, 305909, Note_on_c, 0, 86, 0
2, 305909, Note_on_c, 0, 71, 0
2, 306000, Note_on_c, 0, 85, 112
2, 306000, Note_on_c, 0, 88, 112
2, 306000, Note_on_c, 0, 73, 115
2, 306000, Note_on_c, 0, 76, 115
2, 306633, Note_on_c, 0, 76, 0
2, 306633, Note_on_c, 0, 85, 0
2, 306633, Note_on_c, 0, 88, 0
2, 306633, Note_on_c, 0, 73, 0
2, 306720, Note_on_c, 0, 76, 86
2, 306720, Note_on_c, 0, 85, 86
2, 306720, Note_on_c, 0, 64, 85
2, 306720, Note_on_c, 0, 73, 85
2, 306809, Note_on_c, 0, 73, 0
2, 306809, Note_on_c, 0, 76, 0
2, 306809, Note_on_c, 0, 85, 0
2, 306809, Note_on_c, 0, 64, 0
2, 306900, Note_on_c, 0, 76, 96
2, 306900, Note_on_c, 0, 85, 96
2, 306900, Note_on_c, 0, 64, 87
2, 306900, Note_on_c, 0, 73, 87
2, 306989, Note_on_c, 0, 73, 0
2, 306989, Note_on_c, 0, 76, 0
2, 306989, Note_on_c, 0, 85, 0
2, 306989, Note_on_c, 0, 64, 0
2, 307080, Note_on_c, 0, 78, 100
2, 307080, Note_on_c, 0, 86, 100
2, 307080, Note_on_c, 0, 66, 98
2, 307080, Note_on_c, 0, 74, 98
2, 307169, Note_on_c, 0, 74, 0
2, 307169, Note_on_c, 0, 78, 0
2, 307169, Note_on_c, 0, 86, 0
2, 307169, Note_on_c, 0, 66, 0
2, 307260, Note_on_c, 0, 76, 90
2, 307260, Note_on_c, 0, 85, 90
2, 307260, Note_on_c, 0, 64, 86
2, 307260, Note_on_c, 0, 73, 86
2, 307349, Note_on_c, 0, 73, 0
2, 307349, Note_on_c, 0, 76, 0
2, 307349, Note_on_c, 0, 85, 0
2, 307349, Note_on_c, 0, 64, 0
2, 307440, Note_on_c, 0, 74, 87
2, 307440, Note_on_c, 0, 83, 87
2, 307440, Note_on_c, 0, 62, 90
2, 307440, Note_on_c, 0, 71, 90
2, 307529, Note_on_c, 0, 71, 0
2, 307529, Note_on_c, 0, 74, 0
2, 307529, Note_on_c, 0, 83, 0
2, 307529, Note_on_c, 0, 62, 0
2, 307620, Note_on_c, 0, 74, 92
2, 307620, Note_on_c, 0, 83, 92
2, 307620, Note_on_c, 0, 62, 91
2, 307620, Note_on_c, 0, 71, 91
2, 307709, Note_on_c, 0, 71, 0
2, 307709, Note_on_c, 0, 74, 0
2, 307709, Note_on_c, 0, 83, 0
2, 307709, Note_on_c, 0, 62, 0
2, 307800, Note_on_c, 0, 76, 110
2, 307800, Note_on_c, 0, 85, 110
2, 307800, Note_on_c, 0, 64, 114
2, 307800, Note_on_c, 0, 73, 114
2, 308117, Note_on_c, 0, 73, 0
2, 308117, Note_on_c, 0, 76, 0
2, 308117, Note_on_c, 0, 85, 0
2, 308117, Note_on_c, 0, 64, 0
2, 308160, Note_on_c, 0, 73, 83
2, 308160, Note_on_c, 0, 81, 83
2, 308160, Note_on_c, 0, 69, 79
2, 308430, Note_on_c, 0, 69, 0
2, 308430, Note_on_c, 0, 81, 0
2, 308430, Note_on_c, 0, 73, 0
2, 308430, Note_on_c, 0, 73, 93
2, 308430, Note_on_c, 0, 81, 93
2, 308430, Note_on_c, 0, 69, 95
2, 308474, Note_on_c, 0, 69, 0
2, 308474, Note_on_c, 0, 81, 0
2, 308474, Note_on_c, 0, 73, 0
2, 308520, Note_on_c, 0, 73, 91
2, 308520, Note_on_c, 0, 81, 91
2, 308520, Note_on_c, 0, 69, 91
2, 308609, Note_on_c, 0, 69, 0
2, 308609, Note_on_c, 0, 81, 0
2, 308609, Note_on_c, 0, 73, 0
2, 308700, Note_on_c, 0, 76, 98
2, 308700, Note_on_c, 0, 83, 98
2, 308700, Note_on_c, 0, 64, 93
2, 308700, Note_on_c, 0, 71, 93
2, 308789, Note_on_c, 0, 71, 0
2, 308789, Note_on_c, 0, 76, 0
2, 308789, Note_on_c, 0, 83, 0
2, 308789, Note_on_c, 0, 64, 0
2, 308880, Note_on_c, 0, 81, 112
2, 308880, Note_on_c, 0, 85, 112
2, 308880, Note_on_c, 0, 69, 107
2, 308880, Note_on_c, 0, 73, 107
2, 309513, Note_on_c, 0, 73, 0
2, 309513, Note_on_c, 0, 81, 0
2, 309513, Note_on_c, 0, 85, 0
2, 309513, Note_on_c, 0, 69, 0
2, 309600, Note_on_c, 0, 80, 84
2, 309600, Note_on_c, 0, 83, 84
2, 309600, Note_on_c, 0, 80, 108
2, 309600, Note_on_c, 0, 83, 108
2, 309917, Note_on_c, 0, 83, 0
2, 309917, Note_on_c, 0, 80, 0
2, 309917, Note_on_c, 0, 83, 0
2, 309917, Note_on_c, 0, 80, 0
2, 309960, Note_on_c, 0, 81, 82
2, 309960, Note_on_c, 0, 85, 82
2, 309960, Note_on_c, 0, 81, 87
2, 309960, Note_on_c, 0, 85, 87
2, 310049, Note_on_c, 0, 85, 0
2, 310049, Note_on_c, 0, 81, 0
2, 310049, Note_on_c, 0, 85, 0
2, 310049, Note_on_c, 0, 81, 0
2, 310140, Note_on_c, 0, 80, 72
2, 310140, Note_on_c, 0, 83, 72
2, 310140, Note_on_c, 0, 80, 79
2, 310140, Note_on_c, 0, 83, 79
2, 310229, Note_on_c, 0, 83, 0
2, 310229, Note_on_c, 0, 80, 0
2, 310229, Note_on_c, 0, 83, 0
2, 310229, Note_on_c, 0, 80, 0
2, 310320, Note_on_c, 0, 78, 77
2, 310320, Note_on_c, 0, 81, 77
2, 310320, Note_on_c, 0, 78, 74
2, 310320, Note_on_c, 0, 81, 74
2, 310409, Note_on_c, 0, 81, 0
2, 310409, Note_on_c, 0, 78, 0
2, 310409, Note_on_c, 0, 81, 0
2, 310409, Note_on_c, 0, 78, 0
2, 310500, Note_on_c, 0, 78, 76
2, 310500, Note_on_c, 0, 81, 76
2, 310500, Note_on_c, 0, 78, 73
2, 310500, Note_on_c, 0, 81, 73
2, 310589, Note_on_c, 0, 81, 0
2, 310589, Note_on_c, 0, 78, 0
2, 310589, Note_on_c, 0, 81, 0
2, 310589, Note_on_c, 0, 78, 0
2, 310680, Note_on_c, 0, 80, 90
2, 310680, Note_on_c, 0, 83, 90
2, 310680, Note_on_c, 0, 80, 96
2, 310680, Note_on_c, 0, 83, 96
2, 310997, Note_on_c, 0, 83, 0
2, 310997, Note_on_c, 0, 80, 0
2, 310997, Note_on_c, 0, 83, 0
2, 310997, Note_on_c, 0, 80, 0
2, 311040, Note_on_c, 0, 76, 72
2, 311040, Note_on_c, 0, 80, 72
2, 311040, Note_on_c, 0, 76, 69
2, 311040, Note_on_c, 0, 80, 69
2, 311174, Note_on_c, 0, 80, 0
2, 311174, Note_on_c, 0, 76, 0
2, 311174, Note_on_c, 0, 80, 0
2, 311174, Note_on_c, 0, 76, 0
2, 311310, Note_on_c, 0, 76, 72
2, 311310, Note_on_c, 0, 80, 72
2, 311310, Note_on_c, 0, 76, 76
2, 311310, Note_on_c, 0, 80, 76
2, 311354, Note_on_c, 0, 80, 0
2, 311354, Note_on_c, 0, 76, 0
2, 311354, Note_on_c, 0, 80, 0
2, 311354, Note_on_c, 0, 76, 0
2, 311400, Note_on_c, 0, 76, 79
2, 311400, Note_on_c, 0, 80, 79
2, 311400, Note_on_c, 0, 76, 76
2, 311400, Note_on_c, 0, 80, 76
2, 311489, Note_on_c, 0, 80, 0
2, 311489, Note_on_c, 0, 76, 0
2, 311489, Note_on_c, 0, 80, 0
2, 311489, Note_on_c, 0, 76, 0
2, 311580, Note_on_c, 0, 78, 86
2, 311580, Note_on_c, 0, 81, 86
2, 311580, Note_on_c, 0, 78, 83
2, 311580, Note_on_c, 0, 81, 83
2, 311669, Note_on_c, 0, 81, 0
2, 311669, Note_on_c, 0, 78, 0
2, 311669, Note_on_c, 0, 81, 0
2, 311669, Note_on_c, 0, 78, 0
2, 311760, Note_on_c, 0, 80, 93
2, 311760, Note_on_c, 0, 83, 93
2, 311760, Note_on_c, 0, 80, 94
2, 311760, Note_on_c, 0, 83, 94
2, 312077, Note_on_c, 0, 83, 0
2, 312077, Note_on_c, 0, 80, 0
2, 312077, Note_on_c, 0, 83, 0
2, 312077, Note_on_c, 0, 80, 0
2, 312120, Note_on_c, 0, 80, 96
2, 312120, Note_on_c, 0, 83, 96
2, 312120, Note_on_c, 0, 80, 92
2, 312120, Note_on_c, 0, 83, 92
2, 312437, Note_on_c, 0, 83, 0
2, 312437, Note_on_c, 0, 80, 0
2, 312437, Note_on_c, 0, 83, 0
2, 312437, Note_on_c, 0, 80, 0
2, 312480, Note_on_c, 0, 71, 69
2, 312480, Note_on_c, 0, 80, 69
2, 312480, Note_on_c, 0, 59, 55
2, 312480, Note_on_c, 0, 68, 55
2, 312569, Note_on_c, 0, 68, 0
2, 312569, Note_on_c, 0, 71, 0
2, 312569, Note_on_c, 0, 80, 0
2, 312569, Note_on_c, 0, 59, 0
2, 312660, Note_on_c, 0, 71, 75
2, 312660, Note_on_c, 0, 80, 75
2, 312660, Note_on_c, 0, 59, 76
2, 312660, Note_on_c, 0, 68, 76
2, 312749, Note_on_c, 0, 68, 0
2, 312749, Note_on_c, 0, 71, 0
2, 312749, Note_on_c, 0, 80, 0
2, 312749, Note_on_c, 0, 59, 0
2, 312840, Note_on_c, 0, 73, 82
2, 312840, Note_on_c, 0, 81, 82
2, 312840, Note_on_c, 0, 61, 78
2, 312840, Note_on_c, 0, 69, 78
2, 312929, Note_on_c, 0, 69, 0
2, 312929, Note_on_c, 0, 73, 0
2, 312929, Note_on_c, 0, 81, 0
2, 312929, Note_on_c, 0, 61, 0
2, 313020, Note_on_c, 0, 71, 77
2, 313020, Note_on_c, 0, 80, 77
2, 313020, Note_on_c, 0, 59, 75
2, 313020, Note_on_c, 0, 68, 75
2, 313109, Note_on_c, 0, 68, 0
2, 313109, Note_on_c, 0, 71, 0
2, 313109, Note_on_c, 0, 80, 0
2, 313109, Note_on_c, 0, 59, 0
2, 313200, Note_on_c, 0, 69, 75
2, 313200, Note_on_c, 0, 78, 75
2, 313200, Note_on_c, 0, 57, 69
2, 313200, Note_on_c, 0, 66, 69
2, 313289, Note_on_c, 0, 66, 0
2, 313289, Note_on_c, 0, 69, 0
2, 313289, Note_on_c, 0, 78, 0
2, 313289, Note_on_c, 0, 57, 0
2, 313380, Note_on_c, 0, 69, 73
2, 313380, Note_on_c, 0, 78, 73
2, 313380, Note_on_c, 0, 57, 76
2, 313380, Note_on_c, 0, 66, 76
2, 313469, Note_on_c, 0, 66, 0
2, 313469, Note_on_c, 0, 69, 0
2, 313469, Note_on_c, 0, 78, 0
2, 313469, Note_on_c, 0, 57, 0
2, 313560, Note_on_c, 0, 71, 96
2, 313560, Note_on_c, 0, 80, 96
2, 313560, Note_on_c, 0, 59, 93
2, 313560, Note_on_c, 0, 68, 93
2, 313877, Note_on_c, 0, 68, 0
2, 313877, Note_on_c, 0, 71, 0
2, 313877, Note_on_c, 0, 80, 0
2, 313877, Note_on_c, 0, 59, 0
2, 313920, Note_on_c, 0, 68, 71
2, 313920, Note_on_c, 0, 76, 71
2, 313920, Note_on_c, 0, 64, 72
2, 314190, Note_on_c, 0, 64, 0
2, 314190, Note_on_c, 0, 76, 0
2, 314190, Note_on_c, 0, 68, 0
2, 314190, Note_on_c, 0, 68, 74
2, 314190, Note_on_c, 0, 76, 74
2, 314190, Note_on_c, 0, 64, 73
2, 314234, Note_on_c, 0, 64, 0
2, 314234, Note_on_c, 0, 76, 0
2, 314234, Note_on_c, 0, 68, 0
2, 314280, Note_on_c, 0, 68, 80
2, 314280, Note_on_c, 0, 76, 80
2, 314280, Note_on_c, 0, 64, 78
2, 314369, Note_on_c, 0, 64, 0
2, 314369, Note_on_c, 0, 76, 0
2, 314369, Note_on_c, 0, 68, 0
2, 314460, Note_on_c, 0, 71, 84
2, 314460, Note_on_c, 0, 78, 84
2, 314460, Note_on_c, 0, 66, 83
2, 314549, Note_on_c, 0, 66, 0
2, 314549, Note_on_c, 0, 78, 0
2, 314549, Note_on_c, 0, 71, 0
2, 314640, Note_on_c, 0, 76, 100
2, 314640, Note_on_c, 0, 80, 100
2, 314640, Note_on_c, 0, 68, 101
2, 314957, Note_on_c, 0, 68, 0
2, 314957, Note_on_c, 0, 80, 0
2, 314957, Note_on_c, 0, 76, 0
2, 315000, Note_on_c, 0, 76, 85
2, 315000, Note_on_c, 0, 64, 83
2, 315317, Note_on_c, 0, 64, 0
2, 315317, Note_on_c, 0, 76, 0
2, 315360, Note_on_c, 0, 73, 83
2, 315360, Note_on_c, 0, 69, 52
2, 315360, Note_on_c, 0, 64, 91
2, 315720, Note_on_c, 0, 64, 0
2, 315720, Note_on_c, 0, 73, 0
2, 315720, Note_on_c, 0, 74, 98
2, 315720, Note_on_c, 0, 66, 99
2, 315900, Note_on_c, 0, 66, 0
2, 315900, Note_on_c, 0, 74, 0
2, 315900, Note_on_c, 0, 73, 86
2, 315900, Note_on_c, 0, 64, 89
2, 316080, Note_on_c, 0, 64, 0
2, 316080, Note_on_c, 0, 73, 0
2, 316080, Note_on_c, 0, 69, 0
2, 316080, Note_on_c, 0, 71, 92
2, 316080, Note_on_c, 0, 67, 38
2, 316080, Note_on_c, 0, 62, 92
2, 316440, Note_on_c, 0, 62, 0
2, 316440, Note_on_c, 0, 71, 0
2, 316440, Note_on_c, 0, 73, 80
2, 316440, Note_on_c, 0, 64, 80
2, 316800, Note_on_c, 0, 64, 0
2, 316800, Note_on_c, 0, 73, 0
2, 316800, Note_on_c, 0, 69, 51
2, 316800, Note_on_c, 0, 61, 60
2, 316934, Note_on_c, 0, 61, 0
2, 316934, Note_on_c, 0, 69, 0
2, 317070, Note_on_c, 0, 69, 52
2, 317070, Note_on_c, 0, 61, 57
2, 317114, Note_on_c, 0, 61, 0
2, 317114, Note_on_c, 0, 69, 0
2, 317160, Note_on_c, 0, 69, 56
2, 317160, Note_on_c, 0, 61, 58
2, 317249, Note_on_c, 0, 61, 0
2, 317249, Note_on_c, 0, 69, 0
2, 317340, Note_on_c, 0, 71, 58
2, 317340, Note_on_c, 0, 64, 62
2, 317429, Note_on_c, 0, 64, 0
2, 317429, Note_on_c, 0, 71, 0
2, 317520, Note_on_c, 0, 73, 66
2, 317520, Note_on_c, 0, 69, 75
2, 318153, Note_on_c, 0, 69, 0
2, 318153, Note_on_c, 0, 73, 0
2, 318240, Note_on_c, 0, 67, 0
2, 318240, Note_on_c, 0, 73, 91
2, 318240, Note_on_c, 0, 67, 44
2, 318240, Note_on_c, 0, 64, 82
2, 318420, Note_on_c, 0, 64, 0
2, 318420, Note_on_c, 0, 73, 0
2, 318420, Note_on_c, 0, 73, 101
2, 318420, Note_on_c, 0, 64, 100
2, 318578, Note_on_c, 0, 64, 0
2, 318578, Note_on_c, 0, 73, 0
2, 318600, Note_on_c, 0, 74, 110
2, 318600, Note_on_c, 0, 66, 109
2, 318758, Note_on_c, 0, 66, 0
2, 318758, Note_on_c, 0, 74, 0
2, 318780, Note_on_c, 0, 73, 101
2, 318780, Note_on_c, 0, 64, 98
2, 318938, Note_on_c, 0, 64, 0
2, 318938, Note_on_c, 0, 73, 0
2, 318960, Note_on_c, 0, 67, 0
2, 318960, Note_on_c, 0, 69, 92
2, 318960, Note_on_c, 0, 66, 12
2, 318960, Note_on_c, 0, 62, 92
2, 319277, Note_on_c, 0, 62, 0
2, 319277, Note_on_c, 0, 69, 0
2, 319320, Note_on_c, 0, 66, 0
2, 319320, Note_on_c, 0, 73, 80
2, 319320, Note_on_c, 0, 65, 1
2, 319320, Note_on_c, 0, 61, 80
2, 319637, Note_on_c, 0, 61, 0
2, 319637, Note_on_c, 0, 73, 0
2, 319680, Note_on_c, 0, 65, 0
2, 319680, Note_on_c, 0, 69, 54
2, 319680, Note_on_c, 0, 66, 22
2, 319680, Note_on_c, 0, 61, 54
2, 319814, Note_on_c, 0, 61, 0
2, 319814, Note_on_c, 0, 69, 0
2, 319950, Note_on_c, 0, 69, 49
2, 319950, Note_on_c, 0, 61, 57
2, 319994, Note_on_c, 0, 61, 0
2, 319994, Note_on_c, 0, 69, 0
2, 320040, Note_on_c, 0, 69, 59
2, 320040, Note_on_c, 0, 61, 51
2, 320129, Note_on_c, 0, 61, 0
2, 320129, Note_on_c, 0, 69, 0
2, 320220, Note_on_c, 0, 71, 55
2, 320220, Note_on_c, 0, 68, 65
2, 320309, Note_on_c, 0, 68, 0
2, 320309, Note_on_c, 0, 71, 0
2, 320400, Note_on_c, 0, 73, 72
2, 320400, Note_on_c, 0, 69, 69
2, 321033, Note_on_c, 0, 69, 0
2, 321033, Note_on_c, 0, 73, 0
2, 321120, Note_on_c, 0, 66, 0
2, 321120, Note_on_c, 0, 64, 39
2, 321120, Note_on_c, 0, 68, 39
2, 321120, Note_on_c, 0, 61, 54
2, 321300, Note_on_c, 0, 68, 0
2, 321300, Note_on_c, 0, 64, 0
2, 321300, Note_on_c, 0, 64, 45
2, 321300, Note_on_c, 0, 68, 45
2, 321389, Note_on_c, 0, 68, 0
2, 321389, Note_on_c, 0, 64, 0
2, 321480, Note_on_c, 0, 66, 49
2, 321480, Note_on_c, 0, 69, 49
2, 321569, Note_on_c, 0, 69, 0
2, 321569, Note_on_c, 0, 66, 0
2, 321660, Note_on_c, 0, 64, 38
2, 321660, Note_on_c, 0, 68, 38
2, 321749, Note_on_c, 0, 68, 0
2, 321749, Note_on_c, 0, 64, 0
2, 321753, Note_on_c, 0, 61, 0
2, 321840, Note_on_c, 0, 63, 46
2, 321840, Note_on_c, 0, 66, 46
2, 321840, Note_on_c, 0, 60, 51
2, 321929, Note_on_c, 0, 66, 0
2, 321929, Note_on_c, 0, 63, 0
2, 322020, Note_on_c, 0, 63, 47
2, 322020, Note_on_c, 0, 66, 47
2, 322109, Note_on_c, 0, 66, 0
2, 322109, Note_on_c, 0, 63, 0
2, 322200, Note_on_c, 0, 64, 57
2, 322200, Note_on_c, 0, 68, 57
2, 322473, Note_on_c, 0, 60, 0
2, 322517, Note_on_c, 0, 68, 0
2, 322517, Note_on_c, 0, 64, 0
2, 322560, Note_on_c, 0, 61, 47
2, 322560, Note_on_c, 0, 64, 47
2, 322560, Note_on_c, 0, 59, 53
2, 322694, Note_on_c, 0, 64, 0
2, 322694, Note_on_c, 0, 61, 0
2, 322830, Note_on_c, 0, 61, 44
2, 322830, Note_on_c, 0, 64, 44
2, 322874, Note_on_c, 0, 64, 0
2, 322874, Note_on_c, 0, 61, 0
2, 322920, Note_on_c, 0, 61, 44
2, 322920, Note_on_c, 0, 64, 44
2, 323009, Note_on_c, 0, 64, 0
2, 323009, Note_on_c, 0, 61, 0
2, 323100, Note_on_c, 0, 63, 50
2, 323100, Note_on_c, 0, 66, 50
2, 323189, Note_on_c, 0, 66, 0
2, 323189, Note_on_c, 0, 63, 0
2, 323193, Note_on_c, 0, 59, 0
2, 323280, Note_on_c, 0, 64, 62
2, 323280, Note_on_c, 0, 68, 62
2, 323280, Note_on_c, 0, 58, 57
2, 323597, Note_on_c, 0, 68, 0
2, 323597, Note_on_c, 0, 64, 0
2, 323640, Note_on_c, 0, 64, 56
2, 323640, Note_on_c, 0, 68, 56
2, 323913, Note_on_c, 0, 58, 0
2, 324000, Note_on_c, 0, 57, 56
2, 324180, Note_on_c, 0, 68, 0
2, 324180, Note_on_c, 0, 64, 0
2, 324180, Note_on_c, 0, 64, 49
2, 324180, Note_on_c, 0, 68, 49
2, 324269, Note_on_c, 0, 68, 0
2, 324269, Note_on_c, 0, 64, 0
2, 324360, Note_on_c, 0, 66, 50
2, 324360, Note_on_c, 0, 69, 50
2, 324449, Note_on_c, 0, 69, 0
2, 324449, Note_on_c, 0, 66, 0
2, 324540, Note_on_c, 0, 64, 41
2, 324540, Note_on_c, 0, 68, 41
2, 324629, Note_on_c, 0, 68, 0
2, 324629, Note_on_c, 0, 64, 0
2, 324633, Note_on_c, 0, 57, 0
2, 324720, Note_on_c, 0, 63, 43
2, 324720, Note_on_c, 0, 66, 43
2, 324720, Note_on_c, 0, 61, 63
2, 324809, Note_on_c, 0, 66, 0
2, 324809, Note_on_c, 0, 63, 0
2, 324900, Note_on_c, 0, 63, 45
2, 324900, Note_on_c, 0, 66, 45
2, 324989, Note_on_c, 0, 66, 0
2, 324989, Note_on_c, 0, 63, 0
2, 325037, Note_on_c, 0, 61, 0
2, 325080, Note_on_c, 0, 64, 64
2, 325080, Note_on_c, 0, 68, 64
2, 325080, Note_on_c, 0, 60, 55
2, 325397, Note_on_c, 0, 60, 0
2, 325397, Note_on_c, 0, 68, 0
2, 325397, Note_on_c, 0, 64, 0
2, 325440, Note_on_c, 0, 64, 40
2, 325440, Note_on_c, 0, 61, 64
2, 325574, Note_on_c, 0, 64, 0
2, 325710, Note_on_c, 0, 64, 45
2, 325754, Note_on_c, 0, 64, 0
2, 325800, Note_on_c, 0, 64, 46
2, 325889, Note_on_c, 0, 64, 0
2, 325980, Note_on_c, 0, 63, 51
2, 325980, Note_on_c, 0, 66, 51
2, 326069, Note_on_c, 0, 66, 0
2, 326069, Note_on_c, 0, 63, 0
2, 326160, Note_on_c, 0, 64, 59
2, 326160, Note_on_c, 0, 68, 59
2, 326318, Note_on_c, 0, 68, 0
2, 326318, Note_on_c, 0, 64, 0
2, 326389, Note_on_c, 0, 61, 0
2, 326520, Note_on_c, 0, 73, 99
2, 326520, Note_on_c, 0, 61, 109
2, 326700, Note_on_c, 0, 61, 0
2, 326700, Note_on_c, 0, 73, 0
2, 326700, Note_on_c, 0, 76, 110
2, 326700, Note_on_c, 0, 64, 119
2, 326880, Note_on_c, 0, 64, 0
2, 326880, Note_on_c, 0, 76, 0
2, 326880, Note_on_c, 0, 71, 112
2, 326880, Note_on_c, 0, 78, 112
2, 326880, Note_on_c, 0, 66, 117
2, 327600, Note_on_c, 0, 66, 0
2, 327600, Note_on_c, 0, 66, 122
2, 327960, Note_on_c, 0, 66, 0
2, 327960, Note_on_c, 0, 78, 0
2, 327960, Note_on_c, 0, 71, 0
2, 327960, Note_on_c, 0, 73, 89
2, 327960, Note_on_c, 0, 61, 91
2, 328140, Note_on_c, 0, 61, 0
2, 328140, Note_on_c, 0, 73, 0
2, 328140, Note_on_c, 0, 76, 114
2, 328140, Note_on_c, 0, 64, 116
2, 328320, Note_on_c, 0, 64, 0
2, 328320, Note_on_c, 0, 76, 0
2, 328320, Note_on_c, 0, 71, 108
2, 328320, Note_on_c, 0, 78, 108
2, 328320, Note_on_c, 0, 66, 119
2, 328680, Note_on_c, 0, 66, 0
2, 328680, Note_on_c, 0, 78, 0
2, 328680, Note_on_c, 0, 71, 0
2, 328680, Note_on_c, 0, 79, 120
2, 328860, Note_on_c, 0, 79, 0
2, 328860, Note_on_c, 0, 81, 122
2, 329040, Note_on_c, 0, 81, 0
2, 329040, Note_on_c, 0, 79, 122
2, 329099, Note_on_c, 0, 79, 0
2, 329099, Note_on_c, 0, 81, 121
2, 329160, Note_on_c, 0, 81, 0
2, 329160, Note_on_c, 0, 79, 115
2, 329220, Note_on_c, 0, 79, 0
2, 329220, Note_on_c, 0, 78, 112
2, 329279, Note_on_c, 0, 78, 0
2, 329279, Note_on_c, 0, 79, 121
2, 329340, Note_on_c, 0, 79, 0
2, 329340, Note_on_c, 0, 78, 109
2, 329400, Note_on_c, 0, 78, 0
2, 329400, Note_on_c, 0, 76, 121
2, 329472, Note_on_c, 0, 76, 0
2, 329472, Note_on_c, 0, 78, 116
2, 329544, Note_on_c, 0, 78, 0
2, 329544, Note_on_c, 0, 76, 111
2, 329615, Note_on_c, 0, 76, 0
2, 329615, Note_on_c, 0, 74, 106
2, 329687, Note_on_c, 0, 74, 0
2, 329687, Note_on_c, 0, 76, 101
2, 329760, Note_on_c, 0, 76, 0
2, 329760, Note_on_c, 0, 74, 84
2, 329760, Note_on_c, 0, 78, 84
2, 329815, Note_on_c, 0, 78, 51
2, 329859, Note_on_c, 0, 78, 0
2, 329864, Note_on_c, 0, 79, 48
2, 329904, Note_on_c, 0, 79, 0
2, 329912, Note_on_c, 0, 78, 58
2, 329950, Note_on_c, 0, 78, 0
2, 329957, Note_on_c, 0, 79, 50
2, 329992, Note_on_c, 0, 79, 0
2, 330005, Note_on_c, 0, 78, 53
2, 330043, Note_on_c, 0, 78, 0
2, 330056, Note_on_c, 0, 79, 53
2, 330077, Note_on_c, 0, 78, 0
2, 330077, Note_on_c, 0, 74, 0
2, 330095, Note_on_c, 0, 79, 0
2, 330109, Note_on_c, 0, 78, 60
2, 330120, Note_on_c, 0, 78, 56
2, 330120, Note_on_c, 0, 73, 83
2, 330120, Note_on_c, 0, 76, 83
2, 330151, Note_on_c, 0, 78, 0
2, 330300, Note_on_c, 0, 78, 0
2, 330437, Note_on_c, 0, 73, 0
2, 330437, Note_on_c, 0, 76, 0
2, 330480, Note_on_c, 0, 71, 75
2, 330480, Note_on_c, 0, 74, 75
2, 330535, Note_on_c, 0, 78, 44
2, 330569, Note_on_c, 0, 74, 0
2, 330569, Note_on_c, 0, 71, 0
2, 330579, Note_on_c, 0, 78, 0
2, 330584, Note_on_c, 0, 79, 43
2, 330624, Note_on_c, 0, 79, 0
2, 330632, Note_on_c, 0, 78, 53
2, 330660, Note_on_c, 0, 71, 93
2, 330660, Note_on_c, 0, 74, 93
2, 330670, Note_on_c, 0, 78, 0
2, 330677, Note_on_c, 0, 79, 49
2, 330712, Note_on_c, 0, 79, 0
2, 330725, Note_on_c, 0, 78, 49
2, 330763, Note_on_c, 0, 78, 0
2, 330776, Note_on_c, 0, 79, 40
2, 330815, Note_on_c, 0, 79, 0
2, 330829, Note_on_c, 0, 78, 44
2, 330840, Note_on_c, 0, 78, 57
2, 330871, Note_on_c, 0, 78, 0
2, 330977, Note_on_c, 0, 71, 0
2, 330977, Note_on_c, 0, 74, 0
2, 331020, Note_on_c, 0, 78, 0
2, 331020, Note_on_c, 0, 73, 87
2, 331020, Note_on_c, 0, 76, 87
2, 331109, Note_on_c, 0, 76, 0
2, 331109, Note_on_c, 0, 73, 0
2, 331200, Note_on_c, 0, 74, 82
2, 331200, Note_on_c, 0, 78, 82
2, 331255, Note_on_c, 0, 78, 58
2, 331299, Note_on_c, 0, 78, 0
2, 331304, Note_on_c, 0, 79, 44
2, 331344, Note_on_c, 0, 79, 0
2, 331352, Note_on_c, 0, 78, 59
2, 331380, Note_on_c, 0, 78, 0
2, 331380, Note_on_c, 0, 74, 0
2, 331380, Note_on_c, 0, 74, 68
2, 331390, Note_on_c, 0, 78, 0
2, 331397, Note_on_c, 0, 79, 44
2, 331432, Note_on_c, 0, 79, 0
2, 331445, Note_on_c, 0, 78, 45
2, 331483, Note_on_c, 0, 78, 0
2, 331496, Note_on_c, 0, 79, 47
2, 331535, Note_on_c, 0, 79, 0
2, 331549, Note_on_c, 0, 78, 58
2, 331560, Note_on_c, 0, 74, 0
2, 331560, Note_on_c, 0, 78, 51
2, 331560, Note_on_c, 0, 73, 83
2, 331560, Note_on_c, 0, 76, 83
2, 331591, Note_on_c, 0, 78, 0
2, 331694, Note_on_c, 0, 76, 0
2, 331694, Note_on_c, 0, 73, 0
2, 331740, Note_on_c, 0, 78, 0
2, 331830, Note_on_c, 0, 73, 78
2, 331830, Note_on_c, 0, 76, 78
2, 331874, Note_on_c, 0, 76, 0
2, 331874, Note_on_c, 0, 73, 0
2, 331920, Note_on_c, 0, 73, 78
2, 331920, Note_on_c, 0, 76, 78
2, 331975, Note_on_c, 0, 78, 52
2, 332009, Note_on_c, 0, 76, 0
2, 332009, Note_on_c, 0, 73, 0
2, 332019, Note_on_c, 0, 78, 0
2, 332024, Note_on_c, 0, 79, 46
2, 332064, Note_on_c, 0, 79, 0
2, 332072, Note_on_c, 0, 78, 51
2, 332100, Note_on_c, 0, 71, 81
2, 332100, Note_on_c, 0, 74, 81
2, 332110, Note_on_c, 0, 78, 0
2, 332117, Note_on_c, 0, 79, 45
2, 332152, Note_on_c, 0, 79, 0
2, 332165, Note_on_c, 0, 78, 52
2, 332203, Note_on_c, 0, 78, 0
2, 332216, Note_on_c, 0, 79, 43
2, 332255, Note_on_c, 0, 79, 0
2, 332269, Note_on_c, 0, 78, 51
2, 332280, Note_on_c, 0, 78, 55
2, 332311, Note_on_c, 0, 78, 0
2, 332417, Note_on_c, 0, 71, 0
2, 332417, Note_on_c, 0, 74, 0
2, 332460, Note_on_c, 0, 78, 0
2, 332640, Note_on_c, 0, 70, 96
2, 332640, Note_on_c, 0, 77, 96
2, 332640, Note_on_c, 0, 65, 98
2, 333360, Note_on_c, 0, 65, 0
2, 333360, Note_on_c, 0, 65, 122
2, 333720, Note_on_c, 0, 65, 0
2, 333720, Note_on_c, 0, 77, 0
2, 333720, Note_on_c, 0, 70, 0
2, 333720, Note_on_c, 0, 72, 91
2, 333720, Note_on_c, 0, 60, 98
2, 333900, Note_on_c, 0, 60, 0
2, 333900, Note_on_c, 0, 72, 0
2, 333900, Note_on_c, 0, 75, 119
2, 333900, Note_on_c, 0, 63, 112
2, 334080, Note_on_c, 0, 63, 0
2, 334080, Note_on_c, 0, 75, 0
2, 334080, Note_on_c, 0, 70, 108
2, 334080, Note_on_c, 0, 77, 108
2, 334080, Note_on_c, 0, 65, 118
2, 334440, Note_on_c, 0, 65, 0
2, 334440, Note_on_c, 0, 77, 0
2, 334440, Note_on_c, 0, 70, 0
2, 334440, Note_on_c, 0, 78, 120
2, 334620, Note_on_c, 0, 78, 0
2, 334620, Note_on_c, 0, 80, 122
2, 334800, Note_on_c, 0, 80, 0
2, 334800, Note_on_c, 0, 78, 122
2, 334859, Note_on_c, 0, 78, 0
2, 334859, Note_on_c, 0, 80, 121
2, 334920, Note_on_c, 0, 80, 0
2, 334920, Note_on_c, 0, 78, 111
2, 334980, Note_on_c, 0, 78, 0
2, 334980, Note_on_c, 0, 77, 112
2, 335039, Note_on_c, 0, 77, 0
2, 335039, Note_on_c, 0, 78, 121
2, 335100, Note_on_c, 0, 78, 0
2, 335100, Note_on_c, 0, 77, 117
2, 335160, Note_on_c, 0, 77, 0
2, 335160, Note_on_c, 0, 75, 121
2, 335232, Note_on_c, 0, 75, 0
2, 335232, Note_on_c, 0, 77, 116
2, 335304, Note_on_c, 0, 77, 0
2, 335304, Note_on_c, 0, 75, 111
2, 335375, Note_on_c, 0, 75, 0
2, 335375, Note_on_c, 0, 73, 106
2, 335447, Note_on_c, 0, 73, 0
2, 335447, Note_on_c, 0, 75, 101
2, 335520, Note_on_c, 0, 75, 0
2, 335520, Note_on_c, 0, 73, 81
2, 335520, Note_on_c, 0, 77, 81
2, 335575, Note_on_c, 0, 77, 65
2, 335619, Note_on_c, 0, 77, 0
2, 335624, Note_on_c, 0, 78, 57
2, 335664, Note_on_c, 0, 78, 0
2, 335672, Note_on_c, 0, 77, 53
2, 335710, Note_on_c, 0, 77, 0
2, 335717, Note_on_c, 0, 78, 49
2, 335752, Note_on_c, 0, 78, 0
2, 335765, Note_on_c, 0, 77, 55
2, 335803, Note_on_c, 0, 77, 0
2, 335816, Note_on_c, 0, 78, 57
2, 335837, Note_on_c, 0, 77, 0
2, 335837, Note_on_c, 0, 73, 0
2, 335855, Note_on_c, 0, 78, 0
2, 335869, Note_on_c, 0, 77, 67
2, 335880, Note_on_c, 0, 77, 56
2, 335880, Note_on_c, 0, 72, 84
2, 335880, Note_on_c, 0, 75, 84
2, 335911, Note_on_c, 0, 77, 0
2, 336060, Note_on_c, 0, 77, 0
2, 336197, Note_on_c, 0, 72, 0
2, 336197, Note_on_c, 0, 75, 0
2, 336240, Note_on_c, 0, 70, 75
2, 336240, Note_on_c, 0, 73, 75
2, 336295, Note_on_c, 0, 77, 50
2, 336329, Note_on_c, 0, 73, 0
2, 336329, Note_on_c, 0, 70, 0
2, 336339, Note_on_c, 0, 77, 0
2, 336344, Note_on_c, 0, 78, 38
2, 336384, Note_on_c, 0, 78, 0
2, 336392, Note_on_c, 0, 77, 45
2, 336420, Note_on_c, 0, 70, 89
2, 336420, Note_on_c, 0, 73, 89
2, 336430, Note_on_c, 0, 77, 0
2, 336437, Note_on_c, 0, 78, 40
2, 336472, Note_on_c, 0, 78, 0
2, 336485, Note_on_c, 0, 77, 46
2, 336523, Note_on_c, 0, 77, 0
2, 336536, Note_on_c, 0, 78, 37
2, 336575, Note_on_c, 0, 78, 0
2, 336589, Note_on_c, 0, 77, 43
2, 336600, Note_on_c, 0, 77, 53
2, 336631, Note_on_c, 0, 77, 0
2, 336737, Note_on_c, 0, 70, 0
2, 336737, Note_on_c, 0, 73, 0
2, 336780, Note_on_c, 0, 77, 0
2, 336780, Note_on_c, 0, 72, 82
2, 336780, Note_on_c, 0, 75, 82
2, 336869, Note_on_c, 0, 75, 0
2, 336869, Note_on_c, 0, 72, 0
2, 336960, Note_on_c, 0, 73, 86
2, 336960, Note_on_c, 0, 77, 86
2, 337015, Note_on_c, 0, 77, 49
2, 337059, Note_on_c, 0, 77, 0
2, 337064, Note_on_c, 0, 78, 45
2, 337104, Note_on_c, 0, 78, 0
2, 337112, Note_on_c, 0, 77, 48
2, 337140, Note_on_c, 0, 77, 0
2, 337140, Note_on_c, 0, 73, 0
2, 337140, Note_on_c, 0, 73, 71
2, 337150, Note_on_c, 0, 77, 0
2, 337157, Note_on_c, 0, 78, 42
2, 337192, Note_on_c, 0, 78, 0
2, 337205, Note_on_c, 0, 77, 52
2, 337243, Note_on_c, 0, 77, 0
2, 337256, Note_on_c, 0, 78, 38
2, 337295, Note_on_c, 0, 78, 0
2, 337309, Note_on_c, 0, 77, 46
2, 337320, Note_on_c, 0, 73, 0
2, 337320, Note_on_c, 0, 77, 56
2, 337320, Note_on_c, 0, 72, 84
2, 337320, Note_on_c, 0, 75, 84
2, 337351, Note_on_c, 0, 77, 0
2, 337454, Note_on_c, 0, 75, 0
2, 337454, Note_on_c, 0, 72, 0
2, 337500, Note_on_c, 0, 77, 0
2, 337590, Note_on_c, 0, 72, 78
2, 337590, Note_on_c, 0, 75, 78
2, 337634, Note_on_c, 0, 75, 0
2, 337634, Note_on_c, 0, 72, 0
2, 337680, Note_on_c, 0, 72, 79
2, 337680, Note_on_c, 0, 75, 79
2, 337735, Note_on_c, 0, 77, 46
2, 337769, Note_on_c, 0, 75, 0
2, 337769, Note_on_c, 0, 72, 0
2, 337779, Note_on_c, 0, 77, 0
2, 337784, Note_on_c, 0, 78, 49
2, 337824, Note_on_c, 0, 78, 0
2, 337832, Note_on_c, 0, 77, 56
2, 337860, Note_on_c, 0, 70, 86
2, 337860, Note_on_c, 0, 73, 86
2, 337870, Note_on_c, 0, 77, 0
2, 337877, Note_on_c, 0, 78, 49
2, 337912, Note_on_c, 0, 78, 0
2, 337925, Note_on_c, 0, 77, 46
2, 337963, Note_on_c, 0, 77, 0
2, 337976, Note_on_c, 0, 78, 41
2, 338015, Note_on_c, 0, 78, 0
2, 338029, Note_on_c, 0, 77, 46
2, 338040, Note_on_c, 0, 77, 55
2, 338071, Note_on_c, 0, 77, 0
2, 338177, Note_on_c, 0, 70, 0
2, 338177, Note_on_c, 0, 73, 0
2, 338220, Note_on_c, 0, 77, 0
2, 338400, Note_on_c, 0, 73, 59
2, 338400, Note_on_c, 0, 76, 59
2, 338400, Note_on_c, 0, 61, 83
2, 338400, Note_on_c, 0, 64, 83
2, 338717, Note_on_c, 0, 64, 0
2, 338717, Note_on_c, 0, 73, 0
2, 338717, Note_on_c, 0, 76, 0
2, 338717, Note_on_c, 0, 61, 0
2, 338760, Note_on_c, 0, 74, 52
2, 338760, Note_on_c, 0, 62, 81
2, 338760, Note_on_c, 0, 66, 81
2, 338849, Note_on_c, 0, 66, 0
2, 338849, Note_on_c, 0, 62, 0
2, 338849, Note_on_c, 0, 74, 0
2, 338940, Note_on_c, 0, 73, 54
2, 338940, Note_on_c, 0, 61, 72
2, 338940, Note_on_c, 0, 64, 72
2, 339029, Note_on_c, 0, 64, 0
2, 339029, Note_on_c, 0, 61, 0
2, 339029, Note_on_c, 0, 73, 0
2, 339120, Note_on_c, 0, 71, 60
2, 339120, Note_on_c, 0, 59, 81
2, 339120, Note_on_c, 0, 62, 81
2, 339437, Note_on_c, 0, 62, 0
2, 339437, Note_on_c, 0, 59, 0
2, 339437, Note_on_c, 0, 71, 0
2, 339480, Note_on_c, 0, 73, 71
2, 339480, Note_on_c, 0, 61, 94
2, 339480, Note_on_c, 0, 64, 94
2, 339797, Note_on_c, 0, 64, 0
2, 339797, Note_on_c, 0, 61, 0
2, 339797, Note_on_c, 0, 73, 0
2, 339840, Note_on_c, 0, 69, 45
2, 339840, Note_on_c, 0, 61, 67
2, 339974, Note_on_c, 0, 61, 0
2, 339974, Note_on_c, 0, 69, 0
2, 340110, Note_on_c, 0, 69, 53
2, 340110, Note_on_c, 0, 61, 78
2, 340154, Note_on_c, 0, 61, 0
2, 340154, Note_on_c, 0, 69, 0
2, 340200, Note_on_c, 0, 69, 53
2, 340200, Note_on_c, 0, 61, 80
2, 340289, Note_on_c, 0, 61, 0
2, 340289, Note_on_c, 0, 69, 0
2, 340380, Note_on_c, 0, 71, 57
2, 340380, Note_on_c, 0, 59, 81
2, 340380, Note_on_c, 0, 62, 81
2, 340469, Note_on_c, 0, 62, 0
2, 340469, Note_on_c, 0, 59, 0
2, 340469, Note_on_c, 0, 71, 0
2, 340560, Note_on_c, 0, 73, 73
2, 340560, Note_on_c, 0, 61, 102
2, 340560, Note_on_c, 0, 64, 102
2, 341193, Note_on_c, 0, 64, 0
2, 341193, Note_on_c, 0, 61, 0
2, 341193, Note_on_c, 0, 73, 0
2, 341280, Note_on_c, 0, 73, 87
2, 341280, Note_on_c, 0, 76, 87
2, 341280, Note_on_c, 0, 61, 101
2, 341280, Note_on_c, 0, 64, 101
2, 341369, Note_on_c, 0, 64, 0
2, 341369, Note_on_c, 0, 73, 0
2, 341369, Note_on_c, 0, 76, 0
2, 341369, Note_on_c, 0, 61, 0
2, 341460, Note_on_c, 0, 73, 79
2, 341460, Note_on_c, 0, 76, 79
2, 341460, Note_on_c, 0, 61, 101
2, 341460, Note_on_c, 0, 64, 101
2, 341549, Note_on_c, 0, 64, 0
2, 341549, Note_on_c, 0, 73, 0
2, 341549, Note_on_c, 0, 76, 0
2, 341549, Note_on_c, 0, 61, 0
2, 341640, Note_on_c, 0, 74, 84
2, 341640, Note_on_c, 0, 78, 84
2, 341640, Note_on_c, 0, 62, 110
2, 341640, Note_on_c, 0, 66, 110
2, 341729, Note_on_c, 0, 66, 0
2, 341729, Note_on_c, 0, 74, 0
2, 341729, Note_on_c, 0, 78, 0
2, 341729, Note_on_c, 0, 62, 0
2, 341820, Note_on_c, 0, 73, 73
2, 341820, Note_on_c, 0, 76, 73
2, 341820, Note_on_c, 0, 61, 97
2, 341820, Note_on_c, 0, 64, 97
2, 341909, Note_on_c, 0, 64, 0
2, 341909, Note_on_c, 0, 73, 0
2, 341909, Note_on_c, 0, 76, 0
2, 341909, Note_on_c, 0, 61, 0
2, 342000, Note_on_c, 0, 71, 76
2, 342000, Note_on_c, 0, 74, 76
2, 342000, Note_on_c, 0, 59, 100
2, 342000, Note_on_c, 0, 62, 100
2, 342089, Note_on_c, 0, 62, 0
2, 342089, Note_on_c, 0, 71, 0
2, 342089, Note_on_c, 0, 74, 0
2, 342089, Note_on_c, 0, 59, 0
2, 342180, Note_on_c, 0, 71, 80
2, 342180, Note_on_c, 0, 74, 80
2, 342180, Note_on_c, 0, 59, 102
2, 342180, Note_on_c, 0, 62, 102
2, 342269, Note_on_c, 0, 62, 0
2, 342269, Note_on_c, 0, 71, 0
2, 342269, Note_on_c, 0, 74, 0
2, 342269, Note_on_c, 0, 59, 0
2, 342360, Note_on_c, 0, 73, 84
2, 342360, Note_on_c, 0, 76, 84
2, 342360, Note_on_c, 0, 61, 106
2, 342360, Note_on_c, 0, 64, 106
2, 342539, Note_on_c, 0, 64, 0
2, 342539, Note_on_c, 0, 73, 0
2, 342539, Note_on_c, 0, 76, 0
2, 342539, Note_on_c, 0, 61, 0
2, 342720, Note_on_c, 0, 69, 72
2, 342720, Note_on_c, 0, 73, 72
2, 342720, Note_on_c, 0, 61, 94
2, 342854, Note_on_c, 0, 61, 0
2, 342854, Note_on_c, 0, 73, 0
2, 342854, Note_on_c, 0, 69, 0
2, 342990, Note_on_c, 0, 69, 56
2, 342990, Note_on_c, 0, 73, 56
2, 342990, Note_on_c, 0, 61, 78
2, 343034, Note_on_c, 0, 61, 0
2, 343034, Note_on_c, 0, 73, 0
2, 343034, Note_on_c, 0, 69, 0
2, 343080, Note_on_c, 0, 69, 62
2, 343080, Note_on_c, 0, 73, 62
2, 343080, Note_on_c, 0, 61, 84
2, 343169, Note_on_c, 0, 61, 0
2, 343169, Note_on_c, 0, 73, 0
2, 343169, Note_on_c, 0, 69, 0
2, 343260, Note_on_c, 0, 71, 57
2, 343260, Note_on_c, 0, 74, 57
2, 343260, Note_on_c, 0, 62, 81
2, 343349, Note_on_c, 0, 62, 0
2, 343349, Note_on_c, 0, 74, 0
2, 343349, Note_on_c, 0, 71, 0
2, 343440, Note_on_c, 0, 73, 73
2, 343440, Note_on_c, 0, 76, 73
2, 343440, Note_on_c, 0, 64, 97
2, 344073, Note_on_c, 0, 64, 0
2, 344073, Note_on_c, 0, 76, 0
2, 344073, Note_on_c, 0, 73, 0
2, 344160, Note_on_c, 0, 71, 75
2, 344160, Note_on_c, 0, 80, 75
2, 344160, Note_on_c, 0, 68, 101
2, 344477, Note_on_c, 0, 68, 0
2, 344477, Note_on_c, 0, 80, 0
2, 344477, Note_on_c, 0, 71, 0
2, 344520, Note_on_c, 0, 73, 73
2, 344520, Note_on_c, 0, 81, 73
2, 344520, Note_on_c, 0, 69, 85
2, 344609, Note_on_c, 0, 69, 0
2, 344654, Note_on_c, 0, 81, 0
2, 344654, Note_on_c, 0, 73, 0
2, 344700, Note_on_c, 0, 71, 66
2, 344700, Note_on_c, 0, 80, 66
2, 344700, Note_on_c, 0, 68, 72
2, 344789, Note_on_c, 0, 68, 0
2, 344834, Note_on_c, 0, 80, 0
2, 344834, Note_on_c, 0, 71, 0
2, 344880, Note_on_c, 0, 69, 63
2, 344880, Note_on_c, 0, 78, 63
2, 344880, Note_on_c, 0, 66, 87
2, 345197, Note_on_c, 0, 66, 0
2, 345197, Note_on_c, 0, 78, 0
2, 345197, Note_on_c, 0, 69, 0
2, 345240, Note_on_c, 0, 71, 72
2, 345240, Note_on_c, 0, 80, 72
2, 345240, Note_on_c, 0, 68, 96
2, 345557, Note_on_c, 0, 68, 0
2, 345557, Note_on_c, 0, 80, 0
2, 345557, Note_on_c, 0, 71, 0
2, 345600, Note_on_c, 0, 76, 65
2, 345600, Note_on_c, 0, 64, 82
2, 345600, Note_on_c, 0, 68, 82
2, 345734, Note_on_c, 0, 68, 0
2, 345734, Note_on_c, 0, 64, 0
2, 345801, Note_on_c, 0, 76, 0
2, 345870, Note_on_c, 0, 76, 68
2, 345870, Note_on_c, 0, 64, 78
2, 345870, Note_on_c, 0, 68, 78
2, 345914, Note_on_c, 0, 68, 0
2, 345914, Note_on_c, 0, 64, 0
2, 345936, Note_on_c, 0, 76, 0
2, 345960, Note_on_c, 0, 76, 71
2, 345960, Note_on_c, 0, 64, 75
2, 345960, Note_on_c, 0, 68, 75
2, 346049, Note_on_c, 0, 68, 0
2, 346049, Note_on_c, 0, 64, 0
2, 346094, Note_on_c, 0, 76, 0
2, 346140, Note_on_c, 0, 78, 72
2, 346140, Note_on_c, 0, 66, 82
2, 346140, Note_on_c, 0, 69, 82
2, 346229, Note_on_c, 0, 69, 0
2, 346229, Note_on_c, 0, 66, 0
2, 346274, Note_on_c, 0, 78, 0
2, 346320, Note_on_c, 0, 80, 69
2, 346320, Note_on_c, 0, 68, 91
2, 346320, Note_on_c, 0, 71, 91
2, 346637, Note_on_c, 0, 71, 0
2, 346637, Note_on_c, 0, 68, 0
2, 346637, Note_on_c, 0, 80, 0
2, 346680, Note_on_c, 0, 80, 99
2, 346680, Note_on_c, 0, 83, 99
2, 346680, Note_on_c, 0, 68, 117
2, 346680, Note_on_c, 0, 71, 117
2, 347220, Note_on_c, 0, 71, 0
2, 347220, Note_on_c, 0, 80, 0
2, 347220, Note_on_c, 0, 83, 0
2, 347220, Note_on_c, 0, 68, 0
2, 347220, Note_on_c, 0, 80, 81
2, 347220, Note_on_c, 0, 83, 81
2, 347220, Note_on_c, 0, 68, 105
2, 347220, Note_on_c, 0, 71, 105
2, 347309, Note_on_c, 0, 71, 0
2, 347309, Note_on_c, 0, 80, 0
2, 347309, Note_on_c, 0, 83, 0
2, 347309, Note_on_c, 0, 68, 0
2, 347400, Note_on_c, 0, 81, 82
2, 347400, Note_on_c, 0, 85, 82
2, 347400, Note_on_c, 0, 69, 109
2, 347400, Note_on_c, 0, 73, 109
2, 347489, Note_on_c, 0, 73, 0
2, 347489, Note_on_c, 0, 81, 0
2, 347489, Note_on_c, 0, 85, 0
2, 347489, Note_on_c, 0, 69, 0
2, 347580, Note_on_c, 0, 80, 75
2, 347580, Note_on_c, 0, 83, 75
2, 347580, Note_on_c, 0, 68, 103
2, 347580, Note_on_c, 0, 71, 103
2, 347669, Note_on_c, 0, 71, 0
2, 347669, Note_on_c, 0, 80, 0
2, 347669, Note_on_c, 0, 83, 0
2, 347669, Note_on_c, 0, 68, 0
2, 347760, Note_on_c, 0, 78, 77
2, 347760, Note_on_c, 0, 81, 77
2, 347760, Note_on_c, 0, 66, 99
2, 347760, Note_on_c, 0, 69, 99
2, 347849, Note_on_c, 0, 69, 0
2, 347849, Note_on_c, 0, 78, 0
2, 347849, Note_on_c, 0, 81, 0
2, 347849, Note_on_c, 0, 66, 0
2, 347940, Note_on_c, 0, 78, 78
2, 347940, Note_on_c, 0, 81, 78
2, 347940, Note_on_c, 0, 66, 99
2, 347940, Note_on_c, 0, 69, 99
2, 348029, Note_on_c, 0, 69, 0
2, 348029, Note_on_c, 0, 78, 0
2, 348029, Note_on_c, 0, 81, 0
2, 348029, Note_on_c, 0, 66, 0
2, 348120, Note_on_c, 0, 80, 99
2, 348120, Note_on_c, 0, 83, 99
2, 348120, Note_on_c, 0, 68, 122
2, 348120, Note_on_c, 0, 71, 122
2, 348480, Note_on_c, 0, 71, 0
2, 348480, Note_on_c, 0, 80, 0
2, 348480, Note_on_c, 0, 83, 0
2, 348480, Note_on_c, 0, 68, 0
2, 348480, Note_on_c, 0, 76, 58
2, 348480, Note_on_c, 0, 80, 58
2, 348480, Note_on_c, 0, 68, 72
2, 348614, Note_on_c, 0, 68, 0
2, 348681, Note_on_c, 0, 80, 0
2, 348681, Note_on_c, 0, 76, 0
2, 348750, Note_on_c, 0, 76, 70
2, 348750, Note_on_c, 0, 80, 70
2, 348750, Note_on_c, 0, 68, 77
2, 348794, Note_on_c, 0, 68, 0
2, 348816, Note_on_c, 0, 80, 0
2, 348816, Note_on_c, 0, 76, 0
2, 348840, Note_on_c, 0, 76, 68
2, 348840, Note_on_c, 0, 80, 68
2, 348840, Note_on_c, 0, 68, 76
2, 348929, Note_on_c, 0, 68, 0
2, 348974, Note_on_c, 0, 80, 0
2, 348974, Note_on_c, 0, 76, 0
2, 349020, Note_on_c, 0, 78, 73
2, 349020, Note_on_c, 0, 81, 73
2, 349020, Note_on_c, 0, 66, 82
2, 349020, Note_on_c, 0, 69, 82
2, 349109, Note_on_c, 0, 69, 0
2, 349109, Note_on_c, 0, 66, 0
2, 349154, Note_on_c, 0, 81, 0
2, 349154, Note_on_c, 0, 78, 0
2, 349200, Note_on_c, 0, 80, 102
2, 349200, Note_on_c, 0, 83, 102
2, 349200, Note_on_c, 0, 68, 120
2, 349200, Note_on_c, 0, 71, 120
2, 349560, Note_on_c, 0, 71, 0
2, 349560, Note_on_c, 0, 80, 0
2, 349560, Note_on_c, 0, 83, 0
2, 349560, Note_on_c, 0, 68, 0
2, 349560, Note_on_c, 0, 76, 43
2, 349560, Note_on_c, 0, 64, 71
2, 349920, Note_on_c, 0, 64, 0
2, 349920, Note_on_c, 0, 76, 0
2, 349920, Note_on_c, 0, 76, 111
2, 349920, Note_on_c, 0, 85, 111
2, 349920, Note_on_c, 0, 73, 112
2, 350280, Note_on_c, 0, 73, 0
2, 350280, Note_on_c, 0, 85, 0
2, 350280, Note_on_c, 0, 76, 0
2, 350280, Note_on_c, 0, 78, 97
2, 350280, Note_on_c, 0, 86, 97
2, 350280, Note_on_c, 0, 74, 105
2, 350460, Note_on_c, 0, 74, 0
2, 350460, Note_on_c, 0, 86, 0
2, 350460, Note_on_c, 0, 78, 0
2, 350460, Note_on_c, 0, 76, 85
2, 350460, Note_on_c, 0, 85, 85
2, 350460, Note_on_c, 0, 73, 89
2, 350640, Note_on_c, 0, 73, 0
2, 350640, Note_on_c, 0, 85, 0
2, 350640, Note_on_c, 0, 76, 0
2, 350640, Note_on_c, 0, 74, 88
2, 350640, Note_on_c, 0, 83, 88
2, 350640, Note_on_c, 0, 71, 88
2, 351000, Note_on_c, 0, 71, 0
2, 351000, Note_on_c, 0, 83, 0
2, 351000, Note_on_c, 0, 74, 0
2, 351000, Note_on_c, 0, 76, 99
2, 351000, Note_on_c, 0, 85, 99
2, 351000, Note_on_c, 0, 73, 96
2, 351360, Note_on_c, 0, 73, 0
2, 351360, Note_on_c, 0, 85, 0
2, 351360, Note_on_c, 0, 76, 0
2, 351360, Note_on_c, 0, 81, 80
2, 351360, Note_on_c, 0, 69, 96
2, 351360, Note_on_c, 0, 73, 96
2, 351494, Note_on_c, 0, 73, 0
2, 351494, Note_on_c, 0, 69, 0
2, 351494, Note_on_c, 0, 81, 0
2, 351630, Note_on_c, 0, 81, 86
2, 351630, Note_on_c, 0, 69, 92
2, 351630, Note_on_c, 0, 73, 92
2, 351674, Note_on_c, 0, 73, 0
2, 351674, Note_on_c, 0, 69, 0
2, 351674, Note_on_c, 0, 81, 0
2, 351720, Note_on_c, 0, 81, 98
2, 351720, Note_on_c, 0, 69, 92
2, 351720, Note_on_c, 0, 73, 92
2, 351809, Note_on_c, 0, 73, 0
2, 351809, Note_on_c, 0, 69, 0
2, 351809, Note_on_c, 0, 81, 0
2, 351900, Note_on_c, 0, 83, 96
2, 351900, Note_on_c, 0, 71, 95
2, 351900, Note_on_c, 0, 74, 95
2, 351989, Note_on_c, 0, 74, 0
2, 351989, Note_on_c, 0, 71, 0
2, 351989, Note_on_c, 0, 83, 0
2, 352080, Note_on_c, 0, 85, 110
2, 352080, Note_on_c, 0, 73, 109
2, 352080, Note_on_c, 0, 76, 109
2, 352713, Note_on_c, 0, 76, 0
2, 352713, Note_on_c, 0, 73, 0
2, 352713, Note_on_c, 0, 85, 0
2, 352800, Note_on_c, 0, 76, 91
2, 352800, Note_on_c, 0, 85, 91
2, 352800, Note_on_c, 0, 73, 83
2, 353160, Note_on_c, 0, 73, 0
2, 353160, Note_on_c, 0, 85, 0
2, 353160, Note_on_c, 0, 76, 0
2, 353160, Note_on_c, 0, 78, 94
2, 353160, Note_on_c, 0, 86, 94
2, 353160, Note_on_c, 0, 74, 92
2, 353340, Note_on_c, 0, 74, 0
2, 353340, Note_on_c, 0, 86, 0
2, 353340, Note_on_c, 0, 78, 0
2, 353340, Note_on_c, 0, 76, 88
2, 353340, Note_on_c, 0, 85, 88
2, 353340, Note_on_c, 0, 73, 85
2, 353520, Note_on_c, 0, 73, 0
2, 353520, Note_on_c, 0, 85, 0
2, 353520, Note_on_c, 0, 76, 0
2, 353520, Note_on_c, 0, 74, 92
2, 353520, Note_on_c, 0, 83, 92
2, 353520, Note_on_c, 0, 71, 92
2, 353880, Note_on_c, 0, 71, 0
2, 353880, Note_on_c, 0, 83, 0
2, 353880, Note_on_c, 0, 74, 0
2, 353880, Note_on_c, 0, 85, 80
2, 353880, Note_on_c, 0, 73, 80
2, 354240, Note_on_c, 0, 73, 0
2, 354240, Note_on_c, 0, 85, 0
2, 354240, Note_on_c, 0, 78, 63
2, 354240, Note_on_c, 0, 81, 63
2, 354240, Note_on_c, 0, 69, 58
2, 354374, Note_on_c, 0, 69, 0
2, 354374, Note_on_c, 0, 81, 0
2, 354374, Note_on_c, 0, 78, 0
2, 354510, Note_on_c, 0, 78, 68
2, 354510, Note_on_c, 0, 81, 68
2, 354510, Note_on_c, 0, 69, 65
2, 354554, Note_on_c, 0, 69, 0
2, 354554, Note_on_c, 0, 81, 0
2, 354554, Note_on_c, 0, 78, 0
2, 354600, Note_on_c, 0, 78, 67
2, 354600, Note_on_c, 0, 81, 67
2, 354600, Note_on_c, 0, 69, 67
2, 354689, Note_on_c, 0, 69, 0
2, 354689, Note_on_c, 0, 81, 0
2, 354689, Note_on_c, 0, 78, 0
2, 354780, Note_on_c, 0, 80, 71
2, 354780, Note_on_c, 0, 83, 71
2, 354780, Note_on_c, 0, 71, 71
2, 354869, Note_on_c, 0, 71, 0
2, 354869, Note_on_c, 0, 83, 0
2, 354869, Note_on_c, 0, 80, 0
2, 354960, Note_on_c, 0, 81, 67
2, 354960, Note_on_c, 0, 85, 67
2, 354960, Note_on_c, 0, 73, 67
2, 355593, Note_on_c, 0, 73, 0
2, 355593, Note_on_c, 0, 85, 0
2, 355593, Note_on_c, 0, 81, 0
2, 355680, Note_on_c, 0, 76, 42
2, 355680, Note_on_c, 0, 80, 42
2, 355680, Note_on_c, 0, 64, 42
2, 355680, Note_on_c, 0, 68, 42
2, 355769, Note_on_c, 0, 68, 0
2, 355769, Note_on_c, 0, 76, 0
2, 355769, Note_on_c, 0, 80, 0
2, 355769, Note_on_c, 0, 64, 0
2, 355860, Note_on_c, 0, 80, 38
2, 355860, Note_on_c, 0, 68, 38
2, 355950, Note_on_c, 0, 68, 0
2, 355950, Note_on_c, 0, 80, 0
2, 355950, Note_on_c, 0, 76, 41
2, 355950, Note_on_c, 0, 64, 35
2, 356040, Note_on_c, 0, 64, 0
2, 356040, Note_on_c, 0, 76, 0
2, 356040, Note_on_c, 0, 78, 46
2, 356040, Note_on_c, 0, 81, 46
2, 356040, Note_on_c, 0, 66, 50
2, 356040, Note_on_c, 0, 69, 50
2, 356129, Note_on_c, 0, 69, 0
2, 356129, Note_on_c, 0, 78, 0
2, 356129, Note_on_c, 0, 81, 0
2, 356129, Note_on_c, 0, 66, 0
2, 356220, Note_on_c, 0, 76, 38
2, 356220, Note_on_c, 0, 80, 38
2, 356220, Note_on_c, 0, 64, 42
2, 356220, Note_on_c, 0, 68, 42
2, 356309, Note_on_c, 0, 68, 0
2, 356309, Note_on_c, 0, 76, 0
2, 356309, Note_on_c, 0, 80, 0
2, 356309, Note_on_c, 0, 64, 0
2, 356400, Note_on_c, 0, 75, 40
2, 356400, Note_on_c, 0, 78, 40
2, 356400, Note_on_c, 0, 63, 39
2, 356400, Note_on_c, 0, 66, 39
2, 356489, Note_on_c, 0, 66, 0
2, 356489, Note_on_c, 0, 75, 0
2, 356489, Note_on_c, 0, 78, 0
2, 356489, Note_on_c, 0, 63, 0
2, 356580, Note_on_c, 0, 75, 43
2, 356580, Note_on_c, 0, 78, 43
2, 356580, Note_on_c, 0, 63, 43
2, 356580, Note_on_c, 0, 66, 43
2, 356669, Note_on_c, 0, 66, 0
2, 356669, Note_on_c, 0, 75, 0
2, 356669, Note_on_c, 0, 78, 0
2, 356669, Note_on_c, 0, 63, 0
2, 356760, Note_on_c, 0, 76, 55
2, 356760, Note_on_c, 0, 80, 55
2, 356760, Note_on_c, 0, 64, 57
2, 356760, Note_on_c, 0, 68, 57
2, 357077, Note_on_c, 0, 68, 0
2, 357077, Note_on_c, 0, 76, 0
2, 357077, Note_on_c, 0, 80, 0
2, 357077, Note_on_c, 0, 64, 0
2, 357120, Note_on_c, 0, 73, 34
2, 357120, Note_on_c, 0, 76, 34
2, 357120, Note_on_c, 0, 61, 36
2, 357120, Note_on_c, 0, 64, 36
2, 357209, Note_on_c, 0, 64, 0
2, 357209, Note_on_c, 0, 73, 0
2, 357209, Note_on_c, 0, 76, 0
2, 357209, Note_on_c, 0, 61, 0
2, 357300, Note_on_c, 0, 76, 37
2, 357300, Note_on_c, 0, 64, 45
2, 357390, Note_on_c, 0, 64, 0
2, 357390, Note_on_c, 0, 76, 0
2, 357390, Note_on_c, 0, 73, 39
2, 357390, Note_on_c, 0, 61, 33
2, 357480, Note_on_c, 0, 61, 0
2, 357480, Note_on_c, 0, 73, 0
2, 357480, Note_on_c, 0, 76, 46
2, 357480, Note_on_c, 0, 64, 45
2, 357569, Note_on_c, 0, 64, 0
2, 357569, Note_on_c, 0, 76, 0
2, 357660, Note_on_c, 0, 75, 49
2, 357660, Note_on_c, 0, 78, 49
2, 357660, Note_on_c, 0, 63, 42
2, 357660, Note_on_c, 0, 66, 42
2, 357749, Note_on_c, 0, 66, 0
2, 357749, Note_on_c, 0, 75, 0
2, 357749, Note_on_c, 0, 78, 0
2, 357749, Note_on_c, 0, 63, 0
2, 357840, Note_on_c, 0, 76, 60
2, 357840, Note_on_c, 0, 80, 60
2, 357840, Note_on_c, 0, 64, 58
2, 357840, Note_on_c, 0, 68, 58
2, 358157, Note_on_c, 0, 68, 0
2, 358157, Note_on_c, 0, 76, 0
2, 358157, Note_on_c, 0, 80, 0
2, 358157, Note_on_c, 0, 64, 0
2, 358200, Note_on_c, 0, 76, 53
2, 358200, Note_on_c, 0, 80, 53
2, 358200, Note_on_c, 0, 64, 53
2, 358200, Note_on_c, 0, 68, 53
2, 358649, Note_on_c, 0, 68, 0
2, 358649, Note_on_c, 0, 76, 0
2, 358649, Note_on_c, 0, 80, 0
2, 358649, Note_on_c, 0, 64, 0
2, 358740, Note_on_c, 0, 80, 43
2, 358740, Note_on_c, 0, 68, 41
2, 358830, Note_on_c, 0, 68, 0
2, 358830, Note_on_c, 0, 80, 0
2, 358830, Note_on_c, 0, 76, 38
2, 358830, Note_on_c, 0, 64, 36
2, 358920, Note_on_c, 0, 64, 0
2, 358920, Note_on_c, 0, 76, 0
2, 358920, Note_on_c, 0, 78, 51
2, 358920, Note_on_c, 0, 81, 51
2, 358920, Note_on_c, 0, 66, 47
2, 358920, Note_on_c, 0, 69, 47
2, 359009, Note_on_c, 0, 69, 0
2, 359009, Note_on_c, 0, 78, 0
2, 359009, Note_on_c, 0, 81, 0
2, 359009, Note_on_c, 0, 66, 0
2, 359100, Note_on_c, 0, 76, 45
2, 359100, Note_on_c, 0, 80, 45
2, 359100, Note_on_c, 0, 64, 48
2, 359100, Note_on_c, 0, 68, 48
2, 359189, Note_on_c, 0, 68, 0
2, 359189, Note_on_c, 0, 76, 0
2, 359189, Note_on_c, 0, 80, 0
2, 359189, Note_on_c, 0, 64, 0
2, 359280, Note_on_c, 0, 75, 39
2, 359280, Note_on_c, 0, 78, 39
2, 359280, Note_on_c, 0, 63, 43
2, 359280, Note_on_c, 0, 66, 43
2, 359369, Note_on_c, 0, 66, 0
2, 359369, Note_on_c, 0, 75, 0
2, 359369, Note_on_c, 0, 78, 0
2, 359369, Note_on_c, 0, 63, 0
2, 359460, Note_on_c, 0, 78, 43
2, 359460, Note_on_c, 0, 66, 40
2, 359550, Note_on_c, 0, 66, 0
2, 359550, Note_on_c, 0, 78, 0
2, 359550, Note_on_c, 0, 75, 37
2, 359550, Note_on_c, 0, 63, 35
2, 359640, Note_on_c, 0, 63, 0
2, 359640, Note_on_c, 0, 75, 0
2, 359640, Note_on_c, 0, 76, 57
2, 359640, Note_on_c, 0, 80, 57
2, 359640, Note_on_c, 0, 64, 55
2, 359640, Note_on_c, 0, 68, 55
2, 359957, Note_on_c, 0, 68, 0
2, 359957, Note_on_c, 0, 76, 0
2, 359957, Note_on_c, 0, 80, 0
2, 359957, Note_on_c, 0, 64, 0
2, 360000, Note_on_c, 0, 73, 37
2, 360000, Note_on_c, 0, 76, 37
2, 360000, Note_on_c, 0, 64, 38
2, 360089, Note_on_c, 0, 76, 0
2, 360089, Note_on_c, 0, 73, 0
2, 360179, Note_on_c, 0, 64, 0
2, 360180, Note_on_c, 0, 76, 39
2, 360270, Note_on_c, 0, 76, 0
2, 360270, Note_on_c, 0, 73, 38
2, 360360, Note_on_c, 0, 73, 0
2, 360360, Note_on_c, 0, 73, 44
2, 360360, Note_on_c, 0, 76, 44
2, 360360, Note_on_c, 0, 64, 41
2, 360449, Note_on_c, 0, 64, 0
2, 360449, Note_on_c, 0, 76, 0
2, 360449, Note_on_c, 0, 73, 0
2, 360540, Note_on_c, 0, 75, 40
2, 360540, Note_on_c, 0, 78, 40
2, 360540, Note_on_c, 0, 63, 44
2, 360540, Note_on_c, 0, 66, 44
2, 360629, Note_on_c, 0, 66, 0
2, 360629, Note_on_c, 0, 75, 0
2, 360629, Note_on_c, 0, 78, 0
2, 360629, Note_on_c, 0, 63, 0
2, 360720, Note_on_c, 0, 76, 57
2, 360720, Note_on_c, 0, 80, 57
2, 360720, Note_on_c, 0, 64, 58
2, 360720, Note_on_c, 0, 68, 58
2, 361037, Note_on_c, 0, 68, 0
2, 361037, Note_on_c, 0, 76, 0
2, 361037, Note_on_c, 0, 80, 0
2, 361037, Note_on_c, 0, 64, 0
2, 361080, Note_on_c, 0, 85, 121
2, 361080, Note_on_c, 0, 73, 121
2, 361260, Note_on_c, 0, 73, 0
2, 361260, Note_on_c, 0, 85, 0
2, 361260, Note_on_c, 0, 88, 119
2, 361260, Note_on_c, 0, 76, 117
2, 361440, Note_on_c, 0, 76, 0
2, 361440, Note_on_c, 0, 88, 0
2, 361440, Note_on_c, 0, 83, 119
2, 361440, Note_on_c, 0, 90, 119
2, 361440, Note_on_c, 0, 78, 115
2, 361800, Note_on_c, 0, 78, 0
2, 361800, Note_on_c, 0, 73, 118
2, 361980, Note_on_c, 0, 73, 0
2, 361980, Note_on_c, 0, 76, 122
2, 362160, Note_on_c, 0, 76, 0
2, 362160, Note_on_c, 0, 71, 122
2, 362160, Note_on_c, 0, 78, 122
2, 362520, Note_on_c, 0, 78, 0
2, 362520, Note_on_c, 0, 83, 0
2, 362520, Note_on_c, 0, 90, 0
2, 362520, Note_on_c, 0, 71, 0
2, 362520, Note_on_c, 0, 85, 94
2, 362520, Note_on_c, 0, 73, 91
2, 362700, Note_on_c, 0, 73, 0
2, 362700, Note_on_c, 0, 85, 0
2, 362700, Note_on_c, 0, 88, 113
2, 362700, Note_on_c, 0, 76, 114
2, 362880, Note_on_c, 0, 76, 0
2, 362880, Note_on_c, 0, 88, 0
2, 362880, Note_on_c, 0, 83, 108
2, 362880, Note_on_c, 0, 90, 108
2, 362880, Note_on_c, 0, 78, 108
2, 363240, Note_on_c, 0, 78, 0
2, 363240, Note_on_c, 0, 90, 0
2, 363240, Note_on_c, 0, 83, 0
2, 363240, Note_on_c, 0, 91, 120
2, 363240, Note_on_c, 0, 79, 120
2, 363420, Note_on_c, 0, 79, 0
2, 363420, Note_on_c, 0, 91, 0
2, 363420, Note_on_c, 0, 93, 122
2, 363420, Note_on_c, 0, 81, 122
2, 363600, Note_on_c, 0, 81, 0
2, 363600, Note_on_c, 0, 93, 0
2, 363600, Note_on_c, 0, 91, 122
2, 363600, Note_on_c, 0, 79, 122
2, 363690, Note_on_c, 0, 79, 0
2, 363690, Note_on_c, 0, 91, 0
2, 363690, Note_on_c, 0, 93, 121
2, 363690, Note_on_c, 0, 81, 121
2, 363780, Note_on_c, 0, 81, 0
2, 363780, Note_on_c, 0, 93, 0
2, 363780, Note_on_c, 0, 90, 110
2, 363780, Note_on_c, 0, 78, 105
2, 363870, Note_on_c, 0, 78, 0
2, 363870, Note_on_c, 0, 90, 0
2, 363870, Note_on_c, 0, 91, 121
2, 363870, Note_on_c, 0, 79, 121
2, 363960, Note_on_c, 0, 79, 0
2, 363960, Note_on_c, 0, 91, 0
2, 363960, Note_on_c, 0, 88, 114
2, 363960, Note_on_c, 0, 76, 108
2, 364050, Note_on_c, 0, 76, 0
2, 364050, Note_on_c, 0, 88, 0
2, 364050, Note_on_c, 0, 90, 121
2, 364050, Note_on_c, 0, 78, 121
2, 364140, Note_on_c, 0, 78, 0
2, 364140, Note_on_c, 0, 90, 0
2, 364140, Note_on_c, 0, 86, 105
2, 364140, Note_on_c, 0, 74, 109
2, 364230, Note_on_c, 0, 74, 0
2, 364230, Note_on_c, 0, 86, 0
2, 364230, Note_on_c, 0, 88, 121
2, 364230, Note_on_c, 0, 76, 121
2, 364320, Note_on_c, 0, 76, 0
2, 364320, Note_on_c, 0, 88, 0
2, 364320, Note_on_c, 0, 86, 122
2, 364320, Note_on_c, 0, 90, 122
2, 364320, Note_on_c, 0, 74, 122
2, 364320, Note_on_c, 0, 78, 122
2, 364680, Note_on_c, 0, 78, 0
2, 364680, Note_on_c, 0, 86, 0
2, 364680, Note_on_c, 0, 90, 0
2, 364680, Note_on_c, 0, 74, 0
2, 364680, Note_on_c, 0, 85, 122
2, 364680, Note_on_c, 0, 88, 122
2, 364680, Note_on_c, 0, 73, 122
2, 364680, Note_on_c, 0, 76, 122
2, 364950, Note_on_c, 0, 76, 0
2, 364950, Note_on_c, 0, 85, 0
2, 364950, Note_on_c, 0, 88, 0
2, 364950, Note_on_c, 0, 73, 0
2, 364950, Note_on_c, 0, 85, 104
2, 364950, Note_on_c, 0, 73, 115
2, 364994, Note_on_c, 0, 73, 0
2, 364994, Note_on_c, 0, 85, 0
2, 365040, Note_on_c, 0, 83, 121
2, 365040, Note_on_c, 0, 86, 121
2, 365040, Note_on_c, 0, 71, 121
2, 365040, Note_on_c, 0, 74, 121
2, 365129, Note_on_c, 0, 74, 0
2, 365129, Note_on_c, 0, 83, 0
2, 365129, Note_on_c, 0, 86, 0
2, 365129, Note_on_c, 0, 71, 0
2, 365220, Note_on_c, 0, 83, 122
2, 365220, Note_on_c, 0, 86, 122
2, 365220, Note_on_c, 0, 71, 122
2, 365220, Note_on_c, 0, 74, 122
2, 365580, Note_on_c, 0, 74, 0
2, 365580, Note_on_c, 0, 83, 0
2, 365580, Note_on_c, 0, 86, 0
2, 365580, Note_on_c, 0, 71, 0
2, 365580, Note_on_c, 0, 85, 121
2, 365580, Note_on_c, 0, 88, 121
2, 365580, Note_on_c, 0, 73, 121
2, 365580, Note_on_c, 0, 76, 121
2, 365669, Note_on_c, 0, 76, 0
2, 365669, Note_on_c, 0, 85, 0
2, 365669, Note_on_c, 0, 88, 0
2, 365669, Note_on_c, 0, 73, 0
2, 365760, Note_on_c, 0, 86, 122
2, 365760, Note_on_c, 0, 90, 122
2, 365760, Note_on_c, 0, 74, 122
2, 365760, Note_on_c, 0, 78, 122
2, 365940, Note_on_c, 0, 78, 0
2, 365940, Note_on_c, 0, 86, 0
2, 365940, Note_on_c, 0, 90, 0
2, 365940, Note_on_c, 0, 74, 0
2, 365940, Note_on_c, 0, 86, 109
2, 365940, Note_on_c, 0, 74, 111
2, 366120, Note_on_c, 0, 74, 0
2, 366120, Note_on_c, 0, 86, 0
2, 366120, Note_on_c, 0, 85, 122
2, 366120, Note_on_c, 0, 88, 122
2, 366120, Note_on_c, 0, 73, 122
2, 366120, Note_on_c, 0, 76, 122
2, 366390, Note_on_c, 0, 76, 0
2, 366390, Note_on_c, 0, 85, 0
2, 366390, Note_on_c, 0, 88, 0
2, 366390, Note_on_c, 0, 73, 0
2, 366390, Note_on_c, 0, 85, 121
2, 366390, Note_on_c, 0, 88, 121
2, 366390, Note_on_c, 0, 73, 121
2, 366390, Note_on_c, 0, 76, 121
2, 366480, Note_on_c, 0, 76, 0
2, 366480, Note_on_c, 0, 85, 0
2, 366480, Note_on_c, 0, 88, 0
2, 366480, Note_on_c, 0, 73, 0
2, 366480, Note_on_c, 0, 85, 121
2, 366480, Note_on_c, 0, 88, 121
2, 366480, Note_on_c, 0, 73, 121
2, 366480, Note_on_c, 0, 76, 121
2, 366569, Note_on_c, 0, 76, 0
2, 366569, Note_on_c, 0, 85, 0
2, 366569, Note_on_c, 0, 88, 0
2, 366569, Note_on_c, 0, 73, 0
2, 366660, Note_on_c, 0, 83, 122
2, 366660, Note_on_c, 0, 86, 122
2, 366660, Note_on_c, 0, 71, 122
2, 366660, Note_on_c, 0, 74, 122
2, 367020, Note_on_c, 0, 74, 0
2, 367020, Note_on_c, 0, 83, 0
2, 367020, Note_on_c, 0, 86, 0
2, 367020, Note_on_c, 0, 71, 0
2, 367200, Note_on_c, 0, 82, 122
2, 367200, Note_on_c, 0, 89, 122
2, 367200, Note_on_c, 0, 77, 122
2, 367560, Note_on_c, 0, 77, 0
2, 367560, Note_on_c, 0, 72, 122
2, 367740, Note_on_c, 0, 72, 0
2, 367740, Note_on_c, 0, 75, 122
2, 367920, Note_on_c, 0, 75, 0
2, 367920, Note_on_c, 0, 70, 122
2, 367920, Note_on_c, 0, 77, 122
2, 368280, Note_on_c, 0, 77, 0
2, 368280, Note_on_c, 0, 82, 0
2, 368280, Note_on_c, 0, 89, 0
2, 368280, Note_on_c, 0, 70, 0
2, 368280, Note_on_c, 0, 84, 101
2, 368280, Note_on_c, 0, 72, 104
2, 368460, Note_on_c, 0, 72, 0
2, 368460, Note_on_c, 0, 84, 0
2, 368460, Note_on_c, 0, 87, 121
2, 368460, Note_on_c, 0, 75, 121
2, 368640, Note_on_c, 0, 75, 0
2, 368640, Note_on_c, 0, 87, 0
2, 368640, Note_on_c, 0, 82, 121
2, 368640, Note_on_c, 0, 89, 121
2, 368640, Note_on_c, 0, 77, 121
2, 369000, Note_on_c, 0, 77, 0
2, 369000, Note_on_c, 0, 89, 0
2, 369000, Note_on_c, 0, 82, 0
2, 369000, Note_on_c, 0, 90, 122
2, 369000, Note_on_c, 0, 78, 122
2, 369180, Note_on_c, 0, 78, 0
2, 369180, Note_on_c, 0, 90, 0
2, 369180, Note_on_c, 0, 92, 122
2, 369180, Note_on_c, 0, 80, 122
2, 369360, Note_on_c, 0, 80, 0
2, 369360, Note_on_c, 0, 92, 0
2, 369360, Note_on_c, 0, 90, 122
2, 369360, Note_on_c, 0, 78, 122
2, 369450, Note_on_c, 0, 78, 0
2, 369450, Note_on_c, 0, 90, 0
2, 369450, Note_on_c, 0, 92, 121
2, 369450, Note_on_c, 0, 80, 121
2, 369540, Note_on_c, 0, 80, 0
2, 369540, Note_on_c, 0, 92, 0
2, 369540, Note_on_c, 0, 89, 115
2, 369540, Note_on_c, 0, 77, 112
2, 369630, Note_on_c, 0, 77, 0
2, 369630, Note_on_c, 0, 89, 0
2, 369630, Note_on_c, 0, 90, 121
2, 369630, Note_on_c, 0, 78, 121
2, 369720, Note_on_c, 0, 78, 0
2, 369720, Note_on_c, 0, 90, 0
2, 369720, Note_on_c, 0, 87, 111
2, 369720, Note_on_c, 0, 75, 113
2, 369810, Note_on_c, 0, 75, 0
2, 369810, Note_on_c, 0, 87, 0
2, 369810, Note_on_c, 0, 89, 121
2, 369810, Note_on_c, 0, 77, 121
2, 369900, Note_on_c, 0, 77, 0
2, 369900, Note_on_c, 0, 89, 0
2, 369900, Note_on_c, 0, 85, 103
2, 369900, Note_on_c, 0, 73, 107
2, 369990, Note_on_c, 0, 73, 0
2, 369990, Note_on_c, 0, 85, 0
2, 369990, Note_on_c, 0, 87, 121
2, 369990, Note_on_c, 0, 75, 121
2, 370080, Note_on_c, 0, 75, 0
2, 370080, Note_on_c, 0, 87, 0
2, 370080, Note_on_c, 0, 85, 122
2, 370080, Note_on_c, 0, 89, 122
2, 370080, Note_on_c, 0, 73, 122
2, 370080, Note_on_c, 0, 77, 122
2, 370440, Note_on_c, 0, 77, 0
2, 370440, Note_on_c, 0, 85, 0
2, 370440, Note_on_c, 0, 89, 0
2, 370440, Note_on_c, 0, 73, 0
2, 370440, Note_on_c, 0, 84, 122
2, 370440, Note_on_c, 0, 87, 122
2, 370440, Note_on_c, 0, 72, 122
2, 370440, Note_on_c, 0, 75, 122
2, 370710, Note_on_c, 0, 75, 0
2, 370710, Note_on_c, 0, 84, 0
2, 370710, Note_on_c, 0, 87, 0
2, 370710, Note_on_c, 0, 72, 0
2, 370710, Note_on_c, 0, 84, 108
2, 370710, Note_on_c, 0, 72, 110
2, 370754, Note_on_c, 0, 72, 0
2, 370754, Note_on_c, 0, 84, 0
2, 370800, Note_on_c, 0, 82, 121
2, 370800, Note_on_c, 0, 85, 121
2, 370800, Note_on_c, 0, 70, 121
2, 370800, Note_on_c, 0, 73, 121
2, 370889, Note_on_c, 0, 73, 0
2, 370889, Note_on_c, 0, 82, 0
2, 370889, Note_on_c, 0, 85, 0
2, 370889, Note_on_c, 0, 70, 0
2, 370980, Note_on_c, 0, 82, 122
2, 370980, Note_on_c, 0, 85, 122
2, 370980, Note_on_c, 0, 70, 122
2, 370980, Note_on_c, 0, 73, 122
2, 371340, Note_on_c, 0, 73, 0
2, 371340, Note_on_c, 0, 82, 0
2, 371340, Note_on_c, 0, 85, 0
2, 371340, Note_on_c, 0, 70, 0
2, 371340, Note_on_c, 0, 84, 121
2, 371340, Note_on_c, 0, 87, 121
2, 371340, Note_on_c, 0, 72, 121
2, 371340, Note_on_c, 0, 75, 121
2, 371429, Note_on_c, 0, 75, 0
2, 371429, Note_on_c, 0, 84, 0
2, 371429, Note_on_c, 0, 87, 0
2, 371429, Note_on_c, 0, 72, 0
2, 371520, Note_on_c, 0, 85, 122
2, 371520, Note_on_c, 0, 89, 122
2, 371520, Note_on_c, 0, 73, 122
2, 371520, Note_on_c, 0, 77, 122
2, 371700, Note_on_c, 0, 77, 0
2, 371700, Note_on_c, 0, 85, 0
2, 371700, Note_on_c, 0, 89, 0
2, 371700, Note_on_c, 0, 73, 0
2, 371700, Note_on_c, 0, 85, 107
2, 371700, Note_on_c, 0, 73, 106
2, 371880, Note_on_c, 0, 73, 0
2, 371880, Note_on_c, 0, 85, 0
2, 371880, Note_on_c, 0, 84, 122
2, 371880, Note_on_c, 0, 87, 122
2, 371880, Note_on_c, 0, 72, 122
2, 371880, Note_on_c, 0, 75, 122
2, 372150, Note_on_c, 0, 75, 0
2, 372150, Note_on_c, 0, 84, 0
2, 372150, Note_on_c, 0, 87, 0
2, 372150, Note_on_c, 0, 72, 0
2, 372150, Note_on_c, 0, 84, 121
2, 372150, Note_on_c, 0, 87, 121
2, 372150, Note_on_c, 0, 72, 121
2, 372150, Note_on_c, 0, 75, 121
2, 372240, Note_on_c, 0, 75, 0
2, 372240, Note_on_c, 0, 84, 0
2, 372240, Note_on_c, 0, 87, 0
2, 372240, Note_on_c, 0, 72, 0
2, 372240, Note_on_c, 0, 84, 120
2, 372240, Note_on_c, 0, 87, 120
2, 372240, Note_on_c, 0, 72, 121
2, 372240, Note_on_c, 0, 75, 121
2, 372329, Note_on_c, 0, 75, 0
2, 372329, Note_on_c, 0, 84, 0
2, 372329, Note_on_c, 0, 87, 0
2, 372329, Note_on_c, 0, 72, 0
2, 372420, Note_on_c, 0, 82, 122
2, 372420, Note_on_c, 0, 85, 122
2, 372420, Note_on_c, 0, 70, 122
2, 372420, Note_on_c, 0, 73, 122
2, 372780, Note_on_c, 0, 73, 0
2, 372780, Note_on_c, 0, 82, 0
2, 372780, Note_on_c, 0, 85, 0
2, 372780, Note_on_c, 0, 70, 0
2, 372960, Note_on_c, 0, 85, 122
2, 372960, Note_on_c, 0, 88, 122
2, 372960, Note_on_c, 0, 73, 122
2, 372960, Note_on_c, 0, 76, 122
2, 373139, Note_on_c, 0, 76, 0
2, 373139, Note_on_c, 0, 85, 0
2, 373139, Note_on_c, 0, 88, 0
2, 373139, Note_on_c, 0, 73, 0
2, 373320, Note_on_c, 0, 86, 122
2, 373320, Note_on_c, 0, 90, 122
2, 373320, Note_on_c, 0, 74, 122
2, 373320, Note_on_c, 0, 78, 122
2, 373409, Note_on_c, 0, 78, 0
2, 373409, Note_on_c, 0, 86, 0
2, 373409, Note_on_c, 0, 90, 0
2, 373409, Note_on_c, 0, 74, 0
2, 373500, Note_on_c, 0, 85, 122
2, 373500, Note_on_c, 0, 88, 122
2, 373500, Note_on_c, 0, 73, 122
2, 373500, Note_on_c, 0, 76, 122
2, 373589, Note_on_c, 0, 76, 0
2, 373589, Note_on_c, 0, 85, 0
2, 373589, Note_on_c, 0, 88, 0
2, 373589, Note_on_c, 0, 73, 0
2, 373680, Note_on_c, 0, 83, 122
2, 373680, Note_on_c, 0, 86, 122
2, 373680, Note_on_c, 0, 71, 122
2, 373680, Note_on_c, 0, 74, 122
2, 374040, Note_on_c, 0, 74, 0
2, 374040, Note_on_c, 0, 83, 0
2, 374040, Note_on_c, 0, 86, 0
2, 374040, Note_on_c, 0, 71, 0
2, 374040, Note_on_c, 0, 85, 122
2, 374040, Note_on_c, 0, 88, 122
2, 374040, Note_on_c, 0, 73, 122
2, 374040, Note_on_c, 0, 76, 122
2, 374400, Note_on_c, 0, 76, 0
2, 374400, Note_on_c, 0, 85, 0
2, 374400, Note_on_c, 0, 88, 0
2, 374400, Note_on_c, 0, 73, 0
2, 374400, Note_on_c, 0, 81, 122
2, 374400, Note_on_c, 0, 85, 122
2, 374400, Note_on_c, 0, 69, 122
2, 374400, Note_on_c, 0, 73, 122
2, 374534, Note_on_c, 0, 73, 0
2, 374534, Note_on_c, 0, 81, 0
2, 374534, Note_on_c, 0, 85, 0
2, 374534, Note_on_c, 0, 69, 0
2, 374670, Note_on_c, 0, 81, 122
2, 374670, Note_on_c, 0, 85, 122
2, 374670, Note_on_c, 0, 69, 122
2, 374670, Note_on_c, 0, 73, 122
2, 374714, Note_on_c, 0, 73, 0
2, 374714, Note_on_c, 0, 81, 0
2, 374714, Note_on_c, 0, 85, 0
2, 374714, Note_on_c, 0, 69, 0
2, 374760, Note_on_c, 0, 81, 122
2, 374760, Note_on_c, 0, 85, 122
2, 374760, Note_on_c, 0, 69, 122
2, 374760, Note_on_c, 0, 73, 122
2, 374849, Note_on_c, 0, 73, 0
2, 374849, Note_on_c, 0, 81, 0
2, 374849, Note_on_c, 0, 85, 0
2, 374849, Note_on_c, 0, 69, 0
2, 374940, Note_on_c, 0, 83, 122
2, 374940, Note_on_c, 0, 86, 122
2, 374940, Note_on_c, 0, 71, 122
2, 374940, Note_on_c, 0, 74, 122
2, 375029, Note_on_c, 0, 74, 0
2, 375029, Note_on_c, 0, 83, 0
2, 375029, Note_on_c, 0, 86, 0
2, 375029, Note_on_c, 0, 71, 0
2, 375120, Note_on_c, 0, 85, 122
2, 375120, Note_on_c, 0, 88, 122
2, 375120, Note_on_c, 0, 73, 122
2, 375120, Note_on_c, 0, 76, 122
2, 375840, Note_on_c, 0, 76, 0
2, 375840, Note_on_c, 0, 85, 0
2, 375840, Note_on_c, 0, 88, 0
2, 375840, Note_on_c, 0, 73, 0
2, 375840, Note_on_c, 0, 85, 122
2, 375840, Note_on_c, 0, 88, 122
2, 375840, Note_on_c, 0, 73, 122
2, 375840, Note_on_c, 0, 76, 122
2, 375929, Note_on_c, 0, 76, 0
2, 375929, Note_on_c, 0, 85, 0
2, 375929, Note_on_c, 0, 88, 0
2, 375929, Note_on_c, 0, 73, 0
2, 376020, Note_on_c, 0, 85, 122
2, 376020, Note_on_c, 0, 88, 122
2, 376020, Note_on_c, 0, 73, 122
2, 376020, Note_on_c, 0, 76, 122
2, 376109, Note_on_c, 0, 76, 0
2, 376109, Note_on_c, 0, 85, 0
2, 376109, Note_on_c, 0, 88, 0
2, 376109, Note_on_c, 0, 73, 0
2, 376200, Note_on_c, 0, 86, 122
2, 376200, Note_on_c, 0, 90, 122
2, 376200, Note_on_c, 0, 74, 122
2, 376200, Note_on_c, 0, 78, 122
2, 376289, Note_on_c, 0, 78, 0
2, 376289, Note_on_c, 0, 86, 0
2, 376289, Note_on_c, 0, 90, 0
2, 376289, Note_on_c, 0, 74, 0
2, 376380, Note_on_c, 0, 85, 122
2, 376380, Note_on_c, 0, 88, 122
2, 376380, Note_on_c, 0, 73, 122
2, 376380, Note_on_c, 0, 76, 122
2, 376469, Note_on_c, 0, 76, 0
2, 376469, Note_on_c, 0, 85, 0
2, 376469, Note_on_c, 0, 88, 0
2, 376469, Note_on_c, 0, 73, 0
2, 376560, Note_on_c, 0, 83, 122
2, 376560, Note_on_c, 0, 86, 122
2, 376560, Note_on_c, 0, 71, 122
2, 376560, Note_on_c, 0, 74, 122
2, 376649, Note_on_c, 0, 74, 0
2, 376649, Note_on_c, 0, 83, 0
2, 376649, Note_on_c, 0, 86, 0
2, 376649, Note_on_c, 0, 71, 0
2, 376740, Note_on_c, 0, 83, 122
2, 376740, Note_on_c, 0, 86, 122
2, 376740, Note_on_c, 0, 71, 122
2, 376740, Note_on_c, 0, 74, 122
2, 376829, Note_on_c, 0, 74, 0
2, 376829, Note_on_c, 0, 83, 0
2, 376829, Note_on_c, 0, 86, 0
2, 376829, Note_on_c, 0, 71, 0
2, 376920, Note_on_c, 0, 85, 122
2, 376920, Note_on_c, 0, 88, 122
2, 376920, Note_on_c, 0, 73, 122
2, 376920, Note_on_c, 0, 76, 122
2, 377280, Note_on_c, 0, 76, 0
2, 377280, Note_on_c, 0, 85, 0
2, 377280, Note_on_c, 0, 88, 0
2, 377280, Note_on_c, 0, 73, 0
2, 377280, Note_on_c, 0, 81, 122
2, 377280, Note_on_c, 0, 85, 122
2, 377280, Note_on_c, 0, 69, 122
2, 377280, Note_on_c, 0, 73, 122
2, 377414, Note_on_c, 0, 73, 0
2, 377414, Note_on_c, 0, 81, 0
2, 377414, Note_on_c, 0, 85, 0
2, 377414, Note_on_c, 0, 69, 0
2, 377550, Note_on_c, 0, 81, 122
2, 377550, Note_on_c, 0, 85, 122
2, 377550, Note_on_c, 0, 69, 122
2, 377550, Note_on_c, 0, 73, 122
2, 377594, Note_on_c, 0, 73, 0
2, 377594, Note_on_c, 0, 81, 0
2, 377594, Note_on_c, 0, 85, 0
2, 377594, Note_on_c, 0, 69, 0
2, 377640, Note_on_c, 0, 81, 122
2, 377640, Note_on_c, 0, 85, 122
2, 377640, Note_on_c, 0, 69, 122
2, 377640, Note_on_c, 0, 73, 122
2, 377729, Note_on_c, 0, 73, 0
2, 377729, Note_on_c, 0, 81, 0
2, 377729, Note_on_c, 0, 85, 0
2, 377729, Note_on_c, 0, 69, 0
2, 377820, Note_on_c, 0, 83, 122
2, 377820, Note_on_c, 0, 86, 122
2, 377820, Note_on_c, 0, 71, 122
2, 377820, Note_on_c, 0, 74, 122
2, 377909, Note_on_c, 0, 74, 0
2, 377909, Note_on_c, 0, 83, 0
2, 377909, Note_on_c, 0, 86, 0
2, 377909, Note_on_c, 0, 71, 0
2, 378000, Note_on_c, 0, 85, 122
2, 378000, Note_on_c, 0, 88, 122
2, 378000, Note_on_c, 0, 73, 122
2, 378000, Note_on_c, 0, 76, 122
2, 378360, Note_on_c, 0, 76, 0
2, 378360, Note_on_c, 0, 85, 0
2, 378360, Note_on_c, 0, 88, 0
2, 378360, Note_on_c, 0, 73, 0
2, 378360, Note_on_c, 0, 85, 122
2, 378360, Note_on_c, 0, 88, 122
2, 378360, Note_on_c, 0, 73, 122
2, 378360, Note_on_c, 0, 76, 122
2, 378720, Note_on_c, 0, 76, 0
2, 378720, Note_on_c, 0, 85, 0
2, 378720, Note_on_c, 0, 88, 0
2, 378720, Note_on_c, 0, 73, 0
2, 378720, Note_on_c, 0, 80, 122
2, 378720, Note_on_c, 0, 83, 122
2, 378720, Note_on_c, 0, 68, 122
2, 378720, Note_on_c, 0, 71, 122
2, 378899, Note_on_c, 0, 71, 0
2, 378899, Note_on_c, 0, 80, 0
2, 378899, Note_on_c, 0, 83, 0
2, 378899, Note_on_c, 0, 68, 0
2, 379080, Note_on_c, 0, 81, 122
2, 379080, Note_on_c, 0, 85, 122
2, 379080, Note_on_c, 0, 69, 122
2, 379080, Note_on_c, 0, 73, 122
2, 379169, Note_on_c, 0, 73, 0
2, 379169, Note_on_c, 0, 81, 0
2, 379169, Note_on_c, 0, 85, 0
2, 379169, Note_on_c, 0, 69, 0
2, 379260, Note_on_c, 0, 80, 122
2, 379260, Note_on_c, 0, 83, 122
2, 379260, Note_on_c, 0, 68, 122
2, 379260, Note_on_c, 0, 71, 122
2, 379349, Note_on_c, 0, 71, 0
2, 379349, Note_on_c, 0, 80, 0
2, 379349, Note_on_c, 0, 83, 0
2, 379349, Note_on_c, 0, 68, 0
2, 379440, Note_on_c, 0, 78, 122
2, 379440, Note_on_c, 0, 81, 122
2, 379440, Note_on_c, 0, 66, 122
2, 379440, Note_on_c, 0, 69, 122
2, 379529, Note_on_c, 0, 69, 0
2, 379529, Note_on_c, 0, 78, 0
2, 379529, Note_on_c, 0, 81, 0
2, 379529, Note_on_c, 0, 66, 0
2, 379620, Note_on_c, 0, 78, 122
2, 379620, Note_on_c, 0, 81, 122
2, 379620, Note_on_c, 0, 66, 122
2, 379620, Note_on_c, 0, 69, 122
2, 379709, Note_on_c, 0, 69, 0
2, 379709, Note_on_c, 0, 78, 0
2, 379709, Note_on_c, 0, 81, 0
2, 379709, Note_on_c, 0, 66, 0
2, 379800, Note_on_c, 0, 80, 122
2, 379800, Note_on_c, 0, 83, 122
2, 379800, Note_on_c, 0, 68, 122
2, 379800, Note_on_c, 0, 71, 122
2, 380160, Note_on_c, 0, 71, 0
2, 380160, Note_on_c, 0, 80, 0
2, 380160, Note_on_c, 0, 83, 0
2, 380160, Note_on_c, 0, 68, 0
2, 380160, Note_on_c, 0, 76, 122
2, 380160, Note_on_c, 0, 80, 122
2, 380160, Note_on_c, 0, 64, 122
2, 380160, Note_on_c, 0, 68, 122
2, 380294, Note_on_c, 0, 68, 0
2, 380294, Note_on_c, 0, 76, 0
2, 380294, Note_on_c, 0, 80, 0
2, 380294, Note_on_c, 0, 64, 0
2, 380430, Note_on_c, 0, 76, 122
2, 380430, Note_on_c, 0, 80, 122
2, 380430, Note_on_c, 0, 64, 122
2, 380430, Note_on_c, 0, 68, 122
2, 380474, Note_on_c, 0, 68, 0
2, 380474, Note_on_c, 0, 76, 0
2, 380474, Note_on_c, 0, 80, 0
2, 380474, Note_on_c, 0, 64, 0
2, 380520, Note_on_c, 0, 76, 122
2, 380520, Note_on_c, 0, 80, 122
2, 380520, Note_on_c, 0, 64, 122
2, 380520, Note_on_c, 0, 68, 122
2, 380609, Note_on_c, 0, 68, 0
2, 380609, Note_on_c, 0, 76, 0
2, 380609, Note_on_c, 0, 80, 0
2, 380609, Note_on_c, 0, 64, 0
2, 380700, Note_on_c, 0, 78, 122
2, 380700, Note_on_c, 0, 81, 122
2, 380700, Note_on_c, 0, 66, 122
2, 380700, Note_on_c, 0, 69, 122
2, 380789, Note_on_c, 0, 69, 0
2, 380789, Note_on_c, 0, 78, 0
2, 380789, Note_on_c, 0, 81, 0
2, 380789, Note_on_c, 0, 66, 0
2, 380880, Note_on_c, 0, 80, 122
2, 380880, Note_on_c, 0, 83, 122
2, 380880, Note_on_c, 0, 68, 122
2, 380880, Note_on_c, 0, 71, 122
2, 381240, Note_on_c, 0, 71, 0
2, 381240, Note_on_c, 0, 80, 0
2, 381240, Note_on_c, 0, 83, 0
2, 381240, Note_on_c, 0, 68, 0
2, 381240, Note_on_c, 0, 80, 122
2, 381240, Note_on_c, 0, 83, 122
2, 381240, Note_on_c, 0, 68, 122
2, 381240, Note_on_c, 0, 71, 122
2, 381600, Note_on_c, 0, 71, 0
2, 381600, Note_on_c, 0, 80, 0
2, 381600, Note_on_c, 0, 83, 0
2, 381600, Note_on_c, 0, 68, 0
2, 381600, Note_on_c, 0, 80, 122
2, 381600, Note_on_c, 0, 83, 122
2, 381600, Note_on_c, 0, 68, 122
2, 381600, Note_on_c, 0, 71, 122
2, 381689, Note_on_c, 0, 71, 0
2, 381689, Note_on_c, 0, 80, 0
2, 381689, Note_on_c, 0, 83, 0
2, 381689, Note_on_c, 0, 68, 0
2, 381780, Note_on_c, 0, 80, 122
2, 381780, Note_on_c, 0, 83, 122
2, 381780, Note_on_c, 0, 68, 122
2, 381780, Note_on_c, 0, 71, 122
2, 381869, Note_on_c, 0, 71, 0
2, 381869, Note_on_c, 0, 80, 0
2, 381869, Note_on_c, 0, 83, 0
2, 381869, Note_on_c, 0, 68, 0
2, 381960, Note_on_c, 0, 81, 122
2, 381960, Note_on_c, 0, 85, 122
2, 381960, Note_on_c, 0, 69, 122
2, 381960, Note_on_c, 0, 73, 122
2, 382049, Note_on_c, 0, 73, 0
2, 382049, Note_on_c, 0, 81, 0
2, 382049, Note_on_c, 0, 85, 0
2, 382049, Note_on_c, 0, 69, 0
2, 382140, Note_on_c, 0, 80, 122
2, 382140, Note_on_c, 0, 83, 122
2, 382140, Note_on_c, 0, 68, 122
2, 382140, Note_on_c, 0, 71, 122
2, 382229, Note_on_c, 0, 71, 0
2, 382229, Note_on_c, 0, 80, 0
2, 382229, Note_on_c, 0, 83, 0
2, 382229, Note_on_c, 0, 68, 0
2, 382320, Note_on_c, 0, 78, 122
2, 382320, Note_on_c, 0, 81, 122
2, 382320, Note_on_c, 0, 66, 122
2, 382320, Note_on_c, 0, 69, 122
2, 382409, Note_on_c, 0, 69, 0
2, 382409, Note_on_c, 0, 78, 0
2, 382409, Note_on_c, 0, 81, 0
2, 382409, Note_on_c, 0, 66, 0
2, 382500, Note_on_c, 0, 78, 122
2, 382500, Note_on_c, 0, 81, 122
2, 382500, Note_on_c, 0, 66, 122
2, 382500, Note_on_c, 0, 69, 122
2, 382589, Note_on_c, 0, 69, 0
2, 382589, Note_on_c, 0, 78, 0
2, 382589, Note_on_c, 0, 81, 0
2, 382589, Note_on_c, 0, 66, 0
2, 382680, Note_on_c, 0, 80, 122
2, 382680, Note_on_c, 0, 83, 122
2, 382680, Note_on_c, 0, 68, 122
2, 382680, Note_on_c, 0, 71, 122
2, 383040, Note_on_c, 0, 71, 0
2, 383040, Note_on_c, 0, 80, 0
2, 383040, Note_on_c, 0, 83, 0
2, 383040, Note_on_c, 0, 68, 0
2, 383040, Note_on_c, 0, 76, 122
2, 383040, Note_on_c, 0, 80, 122
2, 383040, Note_on_c, 0, 64, 122
2, 383040, Note_on_c, 0, 68, 122
2, 383174, Note_on_c, 0, 68, 0
2, 383174, Note_on_c, 0, 76, 0
2, 383174, Note_on_c, 0, 80, 0
2, 383174, Note_on_c, 0, 64, 0
2, 383310, Note_on_c, 0, 76, 122
2, 383310, Note_on_c, 0, 80, 122
2, 383310, Note_on_c, 0, 64, 122
2, 383310, Note_on_c, 0, 68, 122
2, 383354, Note_on_c, 0, 68, 0
2, 383354, Note_on_c, 0, 76, 0
2, 383354, Note_on_c, 0, 80, 0
2, 383354, Note_on_c, 0, 64, 0
2, 383400, Note_on_c, 0, 76, 122
2, 383400, Note_on_c, 0, 80, 122
2, 383400, Note_on_c, 0, 64, 122
2, 383400, Note_on_c, 0, 68, 122
2, 383489, Note_on_c, 0, 68, 0
2, 383489, Note_on_c, 0, 76, 0
2, 383489, Note_on_c, 0, 80, 0
2, 383489, Note_on_c, 0, 64, 0
2, 383580, Note_on_c, 0, 78, 122
2, 383580, Note_on_c, 0, 81, 122
2, 383580, Note_on_c, 0, 66, 122
2, 383580, Note_on_c, 0, 69, 122
2, 383669, Note_on_c, 0, 69, 0
2, 383669, Note_on_c, 0, 78, 0
2, 383669, Note_on_c, 0, 81, 0
2, 383669, Note_on_c, 0, 66, 0
2, 383760, Note_on_c, 0, 80, 122
2, 383760, Note_on_c, 0, 83, 122
2, 383760, Note_on_c, 0, 68, 122
2, 383760, Note_on_c, 0, 71, 122
2, 384120, Note_on_c, 0, 71, 0
2, 384120, Note_on_c, 0, 80, 0
2, 384120, Note_on_c, 0, 83, 0
2, 384120, Note_on_c, 0, 68, 0
2, 384120, Note_on_c, 0, 76, 122
2, 384120, Note_on_c, 0, 64, 122
2, 384300, Note_on_c, 0, 64, 0
2, 384300, Note_on_c, 0, 76, 0
2, 384480, Note_on_c, 0, 84, 122
2, 384480, Note_on_c, 0, 88, 122
2, 384480, Note_on_c, 0, 91, 122
2, 384480, Note_on_c, 0, 72, 122
2, 384480, Note_on_c, 0, 76, 122
2, 384480, Note_on_c, 0, 79, 122
2, 384660, Note_on_c, 0, 79, 0
2, 384660, Note_on_c, 0, 88, 0
2, 384660, Note_on_c, 0, 91, 0
2, 384660, Note_on_c, 0, 84, 0
2, 384660, Note_on_c, 0, 76, 0
2, 384660, Note_on_c, 0, 72, 0
2, 384660, Note_on_c, 0, 84, 122
2, 384660, Note_on_c, 0, 88, 122
2, 384660, Note_on_c, 0, 91, 122
2, 384660, Note_on_c, 0, 72, 122
2, 384660, Note_on_c, 0, 76, 122
2, 384660, Note_on_c, 0, 79, 122
2, 384840, Note_on_c, 0, 79, 0
2, 384840, Note_on_c, 0, 88, 0
2, 384840, Note_on_c, 0, 91, 0
2, 384840, Note_on_c, 0, 84, 0
2, 384840, Note_on_c, 0, 76, 0
2, 384840, Note_on_c, 0, 72, 0
2, 384840, Note_on_c, 0, 84, 122
2, 384840, Note_on_c, 0, 89, 122
2, 384840, Note_on_c, 0, 92, 122
2, 384840, Note_on_c, 0, 72, 122
2, 384840, Note_on_c, 0, 77, 122
2, 384840, Note_on_c, 0, 80, 122
2, 385020, Note_on_c, 0, 80, 0
2, 385020, Note_on_c, 0, 89, 0
2, 385020, Note_on_c, 0, 92, 0
2, 385020, Note_on_c, 0, 84, 0
2, 385020, Note_on_c, 0, 77, 0
2, 385020, Note_on_c, 0, 72, 0
2, 385020, Note_on_c, 0, 84, 122
2, 385020, Note_on_c, 0, 88, 122
2, 385020, Note_on_c, 0, 91, 122
2, 385020, Note_on_c, 0, 72, 122
2, 385020, Note_on_c, 0, 76, 122
2, 385020, Note_on_c, 0, 79, 122
2, 385200, Note_on_c, 0, 79, 0
2, 385200, Note_on_c, 0, 88, 0
2, 385200, Note_on_c, 0, 91, 0
2, 385200, Note_on_c, 0, 84, 0
2, 385200, Note_on_c, 0, 76, 0
2, 385200, Note_on_c, 0, 72, 0
2, 385200, Note_on_c, 0, 84, 122
2, 385200, Note_on_c, 0, 86, 122
2, 385200, Note_on_c, 0, 89, 122
2, 385200, Note_on_c, 0, 72, 122
2, 385200, Note_on_c, 0, 74, 122
2, 385200, Note_on_c, 0, 77, 122
2, 385560, Note_on_c, 0, 77, 0
2, 385560, Note_on_c, 0, 86, 0
2, 385560, Note_on_c, 0, 89, 0
2, 385560, Note_on_c, 0, 84, 0
2, 385560, Note_on_c, 0, 74, 0
2, 385560, Note_on_c, 0, 72, 0
2, 385560, Note_on_c, 0, 84, 122
2, 385560, Note_on_c, 0, 88, 122
2, 385560, Note_on_c, 0, 91, 122
2, 385560, Note_on_c, 0, 72, 122
2, 385560, Note_on_c, 0, 76, 122
2, 385560, Note_on_c, 0, 79, 122
2, 385920, Note_on_c, 0, 79, 0
2, 385920, Note_on_c, 0, 88, 0
2, 385920, Note_on_c, 0, 91, 0
2, 385920, Note_on_c, 0, 84, 0
2, 385920, Note_on_c, 0, 76, 0
2, 385920, Note_on_c, 0, 72, 0
2, 385920, Note_on_c, 0, 84, 122
2, 385920, Note_on_c, 0, 88, 122
2, 385920, Note_on_c, 0, 72, 122
2, 385920, Note_on_c, 0, 76, 122
2, 386190, Note_on_c, 0, 76, 0
2, 386190, Note_on_c, 0, 84, 0
2, 386190, Note_on_c, 0, 88, 0
2, 386190, Note_on_c, 0, 72, 0
2, 386190, Note_on_c, 0, 84, 122
2, 386190, Note_on_c, 0, 88, 122
2, 386190, Note_on_c, 0, 72, 122
2, 386190, Note_on_c, 0, 76, 122
2, 386280, Note_on_c, 0, 76, 0
2, 386280, Note_on_c, 0, 84, 0
2, 386280, Note_on_c, 0, 88, 0
2, 386280, Note_on_c, 0, 72, 0
2, 386280, Note_on_c, 0, 84, 122
2, 386280, Note_on_c, 0, 88, 122
2, 386280, Note_on_c, 0, 72, 122
2, 386280, Note_on_c, 0, 76, 122
2, 386460, Note_on_c, 0, 76, 0
2, 386460, Note_on_c, 0, 84, 0
2, 386460, Note_on_c, 0, 88, 0
2, 386460, Note_on_c, 0, 72, 0
2, 386460, Note_on_c, 0, 84, 122
2, 386460, Note_on_c, 0, 86, 122
2, 386460, Note_on_c, 0, 89, 122
2, 386460, Note_on_c, 0, 72, 122
2, 386460, Note_on_c, 0, 74, 122
2, 386460, Note_on_c, 0, 77, 122
2, 386640, Note_on_c, 0, 77, 0
2, 386640, Note_on_c, 0, 86, 0
2, 386640, Note_on_c, 0, 89, 0
2, 386640, Note_on_c, 0, 84, 0
2, 386640, Note_on_c, 0, 74, 0
2, 386640, Note_on_c, 0, 72, 0
2, 386640, Note_on_c, 0, 84, 122
2, 386640, Note_on_c, 0, 88, 122
2, 386640, Note_on_c, 0, 91, 122
2, 386640, Note_on_c, 0, 72, 122
2, 386640, Note_on_c, 0, 76, 122
2, 386640, Note_on_c, 0, 79, 122
2, 387360, Note_on_c, 0, 79, 0
2, 387360, Note_on_c, 0, 88, 0
2, 387360, Note_on_c, 0, 91, 0
2, 387360, Note_on_c, 0, 84, 0
2, 387360, Note_on_c, 0, 76, 0
2, 387360, Note_on_c, 0, 72, 0
2, 387360, Note_on_c, 0, 87, 122
2, 387360, Note_on_c, 0, 75, 122
2, 387407, Note_on_c, 0, 75, 0
2, 387407, Note_on_c, 0, 87, 0
2, 387407, Note_on_c, 0, 89, 122
2, 387407, Note_on_c, 0, 77, 122
2, 387454, Note_on_c, 0, 77, 0
2, 387454, Note_on_c, 0, 89, 0
2, 387454, Note_on_c, 0, 91, 122
2, 387454, Note_on_c, 0, 79, 122
2, 387516, Note_on_c, 0, 79, 0
2, 387516, Note_on_c, 0, 72, 122
2, 387516, Note_on_c, 0, 80, 122
2, 387526, Note_on_c, 0, 91, 0
2, 387526, Note_on_c, 0, 84, 122
2, 387526, Note_on_c, 0, 92, 122
2, 387540, Note_on_c, 0, 92, 0
2, 387540, Note_on_c, 0, 72, 0
2, 387540, Note_on_c, 0, 80, 0
2, 387540, Note_on_c, 0, 84, 0
2, 387720, Note_on_c, 0, 69, 63
2, 387854, Note_on_c, 0, 69, 0
2, 387990, Note_on_c, 0, 66, 66
2, 388034, Note_on_c, 0, 66, 0
2, 388080, Note_on_c, 0, 68, 86
2, 388169, Note_on_c, 0, 68, 0
2, 388260, Note_on_c, 0, 68, 81
2, 388439, Note_on_c, 0, 68, 0
2, 388620, Note_on_c, 0, 69, 78
2, 388709, Note_on_c, 0, 69, 0
2, 388800, Note_on_c, 0, 72, 93
2, 388958, Note_on_c, 0, 72, 0
2, 388980, Note_on_c, 0, 68, 74
2, 389160, Note_on_c, 0, 68, 0
2, 389160, Note_on_c, 0, 69, 83
2, 389294, Note_on_c, 0, 69, 0
2, 389430, Note_on_c, 0, 66, 70
2, 389474, Note_on_c, 0, 66, 0
2, 389520, Note_on_c, 0, 68, 79
2, 389609, Note_on_c, 0, 68, 0
2, 389700, Note_on_c, 0, 68, 80
2, 389789, Note_on_c, 0, 68, 0
2, 389880, Note_on_c, 0, 80, 121
2, 389880, Note_on_c, 0, 68, 78
2, 389939, Note_on_c, 0, 68, 0
2, 389939, Note_on_c, 0, 80, 0
2, 389939, Note_on_c, 0, 82, 122
2, 389939, Note_on_c, 0, 70, 82
2, 390000, Note_on_c, 0, 70, 0
2, 390000, Note_on_c, 0, 82, 0
2, 390000, Note_on_c, 0, 84, 122
2, 390000, Note_on_c, 0, 72, 87
2, 390060, Note_on_c, 0, 72, 0
2, 390060, Note_on_c, 0, 84, 0
2, 390060, Note_on_c, 0, 86, 122
2, 390060, Note_on_c, 0, 74, 91
2, 390119, Note_on_c, 0, 74, 0
2, 390119, Note_on_c, 0, 86, 0
2, 390119, Note_on_c, 0, 87, 122
2, 390119, Note_on_c, 0, 75, 95
2, 390180, Note_on_c, 0, 75, 0
2, 390180, Note_on_c, 0, 87, 0
2, 390180, Note_on_c, 0, 89, 122
2, 390180, Note_on_c, 0, 77, 99
2, 390240, Note_on_c, 0, 77, 0
2, 390240, Note_on_c, 0, 89, 0
2, 390240, Note_on_c, 0, 91, 122
2, 390240, Note_on_c, 0, 79, 122
2, 390420, Note_on_c, 0, 79, 0
2, 390420, Note_on_c, 0, 91, 0
2, 390420, Note_on_c, 0, 84, 113
2, 390420, Note_on_c, 0, 88, 113
2, 390420, Note_on_c, 0, 91, 113
2, 390420, Note_on_c, 0, 72, 122
2, 390420, Note_on_c, 0, 76, 122
2, 390420, Note_on_c, 0, 79, 122
2, 390600, Note_on_c, 0, 79, 0
2, 390600, Note_on_c, 0, 88, 0
2, 390600, Note_on_c, 0, 91, 0
2, 390600, Note_on_c, 0, 84, 0
2, 390600, Note_on_c, 0, 76, 0
2, 390600, Note_on_c, 0, 72, 0
2, 390600, Note_on_c, 0, 84, 122
2, 390600, Note_on_c, 0, 89, 122
2, 390600, Note_on_c, 0, 92, 122
2, 390600, Note_on_c, 0, 72, 122
2, 390600, Note_on_c, 0, 77, 122
2, 390600, Note_on_c, 0, 80, 122
2, 390780, Note_on_c, 0, 80, 0
2, 390780, Note_on_c, 0, 89, 0
2, 390780, Note_on_c, 0, 92, 0
2, 390780, Note_on_c, 0, 84, 0
2, 390780, Note_on_c, 0, 77, 0
2, 390780, Note_on_c, 0, 72, 0
2, 390780, Note_on_c, 0, 84, 122
2, 390780, Note_on_c, 0, 88, 122
2, 390780, Note_on_c, 0, 91, 122
2, 390780, Note_on_c, 0, 72, 122
2, 390780, Note_on_c, 0, 76, 122
2, 390780, Note_on_c, 0, 79, 122
2, 390960, Note_on_c, 0, 79, 0
2, 390960, Note_on_c, 0, 88, 0
2, 390960, Note_on_c, 0, 91, 0
2, 390960, Note_on_c, 0, 84, 0
2, 390960, Note_on_c, 0, 76, 0
2, 390960, Note_on_c, 0, 72, 0
2, 390960, Note_on_c, 0, 84, 122
2, 390960, Note_on_c, 0, 86, 122
2, 390960, Note_on_c, 0, 89, 122
2, 390960, Note_on_c, 0, 72, 120
2, 390960, Note_on_c, 0, 74, 120
2, 390960, Note_on_c, 0, 77, 120
2, 391320, Note_on_c, 0, 77, 0
2, 391320, Note_on_c, 0, 86, 0
2, 391320, Note_on_c, 0, 89, 0
2, 391320, Note_on_c, 0, 84, 0
2, 391320, Note_on_c, 0, 74, 0
2, 391320, Note_on_c, 0, 72, 0
2, 391320, Note_on_c, 0, 84, 122
2, 391320, Note_on_c, 0, 88, 122
2, 391320, Note_on_c, 0, 91, 122
2, 391320, Note_on_c, 0, 72, 122
2, 391320, Note_on_c, 0, 76, 122
2, 391320, Note_on_c, 0, 79, 122
2, 391680, Note_on_c, 0, 79, 0
2, 391680, Note_on_c, 0, 88, 0
2, 391680, Note_on_c, 0, 91, 0
2, 391680, Note_on_c, 0, 84, 0
2, 391680, Note_on_c, 0, 76, 0
2, 391680, Note_on_c, 0, 72, 0
2, 391680, Note_on_c, 0, 84, 122
2, 391680, Note_on_c, 0, 88, 122
2, 391680, Note_on_c, 0, 72, 119
2, 391680, Note_on_c, 0, 76, 119
2, 391950, Note_on_c, 0, 76, 0
2, 391950, Note_on_c, 0, 84, 0
2, 391950, Note_on_c, 0, 88, 0
2, 391950, Note_on_c, 0, 72, 0
2, 391950, Note_on_c, 0, 84, 122
2, 391950, Note_on_c, 0, 88, 122
2, 391950, Note_on_c, 0, 72, 122
2, 391950, Note_on_c, 0, 76, 122
2, 392040, Note_on_c, 0, 76, 0
2, 392040, Note_on_c, 0, 84, 0
2, 392040, Note_on_c, 0, 88, 0
2, 392040, Note_on_c, 0, 72, 0
2, 392040, Note_on_c, 0, 84, 122
2, 392040, Note_on_c, 0, 88, 122
2, 392040, Note_on_c, 0, 72, 122
2, 392040, Note_on_c, 0, 76, 122
2, 392220, Note_on_c, 0, 76, 0
2, 392220, Note_on_c, 0, 84, 0
2, 392220, Note_on_c, 0, 88, 0
2, 392220, Note_on_c, 0, 72, 0
2, 392220, Note_on_c, 0, 84, 122
2, 392220, Note_on_c, 0, 86, 122
2, 392220, Note_on_c, 0, 89, 122
2, 392220, Note_on_c, 0, 72, 122
2, 392220, Note_on_c, 0, 74, 122
2, 392220, Note_on_c, 0, 77, 122
2, 392400, Note_on_c, 0, 77, 0
2, 392400, Note_on_c, 0, 86, 0
2, 392400, Note_on_c, 0, 89, 0
2, 392400, Note_on_c, 0, 84, 0
2, 392400, Note_on_c, 0, 74, 0
2, 392400, Note_on_c, 0, 72, 0
2, 392400, Note_on_c, 0, 84, 122
2, 392400, Note_on_c, 0, 88, 122
2, 392400, Note_on_c, 0, 91, 122
2, 392400, Note_on_c, 0, 72, 122
2, 392400, Note_on_c, 0, 76, 122
2, 392400, Note_on_c, 0, 79, 122
2, 393120, Note_on_c, 0, 79, 0
2, 393120, Note_on_c, 0, 88, 0
2, 393120, Note_on_c, 0, 91, 0
2, 393120, Note_on_c, 0, 84, 0
2, 393120, Note_on_c, 0, 76, 0
2, 393120, Note_on_c, 0, 72, 0
2, 393120, Note_on_c, 0, 88, 122
2, 393120, Note_on_c, 0, 76, 110
2, 393167, Note_on_c, 0, 76, 0
2, 393167, Note_on_c, 0, 88, 0
2, 393167, Note_on_c, 0, 89, 122
2, 393167, Note_on_c, 0, 77, 122
2, 393214, Note_on_c, 0, 77, 0
2, 393214, Note_on_c, 0, 89, 0
2, 393214, Note_on_c, 0, 91, 122
2, 393214, Note_on_c, 0, 79, 122
2, 393302, Note_on_c, 0, 79, 0
2, 393302, Note_on_c, 0, 91, 0
2, 393302, Note_on_c, 0, 85, 122
2, 393302, Note_on_c, 0, 93, 122
2, 393302, Note_on_c, 0, 73, 122
2, 393302, Note_on_c, 0, 81, 122
2, 393347, Note_on_c, 0, 81, 0
2, 393347, Note_on_c, 0, 85, 0
2, 393347, Note_on_c, 0, 93, 0
2, 393347, Note_on_c, 0, 73, 0
2, 393480, Note_on_c, 0, 70, 73
2, 393614, Note_on_c, 0, 70, 0
2, 393750, Note_on_c, 0, 67, 66
2, 393794, Note_on_c, 0, 67, 0
2, 393840, Note_on_c, 0, 69, 77
2, 393929, Note_on_c, 0, 69, 0
2, 394020, Note_on_c, 0, 69, 77
2, 394199, Note_on_c, 0, 69, 0
2, 394380, Note_on_c, 0, 70, 83
2, 394469, Note_on_c, 0, 70, 0
2, 394560, Note_on_c, 0, 73, 97
2, 394718, Note_on_c, 0, 73, 0
2, 394740, Note_on_c, 0, 69, 70
2, 394920, Note_on_c, 0, 69, 0
2, 394920, Note_on_c, 0, 70, 91
2, 395156, Note_on_c, 0, 70, 0
2, 395190, Note_on_c, 0, 67, 74
2, 395280, Note_on_c, 0, 67, 0
2, 395280, Note_on_c, 0, 69, 82
2, 395369, Note_on_c, 0, 69, 0
2, 395460, Note_on_c, 0, 69, 90
2, 395777, Note_on_c, 0, 69, 0
2, 396000, Note_on_c, 0, 77, 46
2, 396000, Note_on_c, 0, 81, 46
2, 396089, Note_on_c, 0, 81, 0
2, 396089, Note_on_c, 0, 77, 0
2, 396180, Note_on_c, 0, 77, 53
2, 396180, Note_on_c, 0, 81, 53
2, 396269, Note_on_c, 0, 81, 0
2, 396269, Note_on_c, 0, 77, 0
2, 396360, Note_on_c, 0, 79, 53
2, 396360, Note_on_c, 0, 82, 53
2, 396449, Note_on_c, 0, 82, 0
2, 396449, Note_on_c, 0, 79, 0
2, 396540, Note_on_c, 0, 77, 55
2, 396540, Note_on_c, 0, 81, 55
2, 396629, Note_on_c, 0, 81, 0
2, 396629, Note_on_c, 0, 77, 0
2, 396720, Note_on_c, 0, 76, 47
2, 396720, Note_on_c, 0, 79, 47
2, 396809, Note_on_c, 0, 79, 0
2, 396809, Note_on_c, 0, 76, 0
2, 396900, Note_on_c, 0, 76, 58
2, 396900, Note_on_c, 0, 79, 58
2, 396989, Note_on_c, 0, 79, 0
2, 396989, Note_on_c, 0, 76, 0
2, 397080, Note_on_c, 0, 77, 74
2, 397080, Note_on_c, 0, 81, 74
2, 397397, Note_on_c, 0, 81, 0
2, 397397, Note_on_c, 0, 77, 0
2, 397440, Note_on_c, 0, 74, 53
2, 397440, Note_on_c, 0, 77, 53
2, 397529, Note_on_c, 0, 77, 0
2, 397529, Note_on_c, 0, 74, 0
2, 397620, Note_on_c, 0, 74, 55
2, 397620, Note_on_c, 0, 77, 55
2, 397709, Note_on_c, 0, 77, 0
2, 397709, Note_on_c, 0, 74, 0
2, 397800, Note_on_c, 0, 75, 70
2, 397800, Note_on_c, 0, 79, 70
2, 398117, Note_on_c, 0, 79, 0
2, 398117, Note_on_c, 0, 75, 0
2, 398160, Note_on_c, 0, 79, 73
2, 398160, Note_on_c, 0, 67, 92
2, 398191, Note_on_c, 0, 67, 0
2, 398191, Note_on_c, 0, 69, 101
2, 398208, Note_on_c, 0, 79, 0
2, 398208, Note_on_c, 0, 81, 79
2, 398222, Note_on_c, 0, 69, 0
2, 398222, Note_on_c, 0, 71, 100
2, 398254, Note_on_c, 0, 81, 0
2, 398254, Note_on_c, 0, 83, 80
2, 398308, Note_on_c, 0, 71, 0
2, 398308, Note_on_c, 0, 72, 105
2, 398323, Note_on_c, 0, 72, 0
2, 398344, Note_on_c, 0, 83, 0
2, 398344, Note_on_c, 0, 75, 77
2, 398344, Note_on_c, 0, 84, 77
2, 398366, Note_on_c, 0, 84, 0
2, 398366, Note_on_c, 0, 75, 0
2, 398520, Note_on_c, 0, 71, 39
2, 398520, Note_on_c, 0, 79, 39
2, 398520, Note_on_c, 0, 67, 41
2, 398790, Note_on_c, 0, 67, 0
2, 398790, Note_on_c, 0, 79, 0
2, 398790, Note_on_c, 0, 71, 0
2, 398790, Note_on_c, 0, 74, 39
2, 398790, Note_on_c, 0, 77, 39
2, 398790, Note_on_c, 0, 65, 46
2, 398880, Note_on_c, 0, 65, 0
2, 398880, Note_on_c, 0, 77, 0
2, 398880, Note_on_c, 0, 74, 0
2, 398880, Note_on_c, 0, 72, 45
2, 398880, Note_on_c, 0, 75, 45
2, 398880, Note_on_c, 0, 63, 44
2, 398969, Note_on_c, 0, 63, 0
2, 398969, Note_on_c, 0, 75, 0
2, 398969, Note_on_c, 0, 72, 0
2, 399060, Note_on_c, 0, 72, 59
2, 399060, Note_on_c, 0, 75, 59
2, 399060, Note_on_c, 0, 63, 60
2, 399377, Note_on_c, 0, 63, 0
2, 399377, Note_on_c, 0, 75, 0
2, 399377, Note_on_c, 0, 72, 0
2, 399420, Note_on_c, 0, 74, 56
2, 399420, Note_on_c, 0, 77, 56
2, 399420, Note_on_c, 0, 65, 50
2, 399509, Note_on_c, 0, 65, 0
2, 399509, Note_on_c, 0, 77, 0
2, 399509, Note_on_c, 0, 74, 0
2, 399600, Note_on_c, 0, 75, 76
2, 399600, Note_on_c, 0, 79, 76
2, 399600, Note_on_c, 0, 67, 70
2, 399780, Note_on_c, 0, 67, 0
2, 399780, Note_on_c, 0, 79, 0
2, 399780, Note_on_c, 0, 75, 0
2, 399780, Note_on_c, 0, 72, 42
2, 399780, Note_on_c, 0, 75, 42
2, 399780, Note_on_c, 0, 63, 38
2, 399960, Note_on_c, 0, 63, 0
2, 399960, Note_on_c, 0, 75, 0
2, 399960, Note_on_c, 0, 72, 0
2, 399960, Note_on_c, 0, 74, 48
2, 399960, Note_on_c, 0, 77, 48
2, 399960, Note_on_c, 0, 65, 51
2, 400094, Note_on_c, 0, 65, 0
2, 400094, Note_on_c, 0, 77, 0
2, 400094, Note_on_c, 0, 74, 0
2, 400230, Note_on_c, 0, 74, 50
2, 400230, Note_on_c, 0, 77, 50
2, 400230, Note_on_c, 0, 65, 52
2, 400274, Note_on_c, 0, 65, 0
2, 400274, Note_on_c, 0, 77, 0
2, 400274, Note_on_c, 0, 74, 0
2, 400320, Note_on_c, 0, 74, 43
2, 400320, Note_on_c, 0, 77, 43
2, 400320, Note_on_c, 0, 65, 45
2, 400409, Note_on_c, 0, 65, 0
2, 400409, Note_on_c, 0, 77, 0
2, 400409, Note_on_c, 0, 74, 0
2, 400500, Note_on_c, 0, 72, 56
2, 400500, Note_on_c, 0, 75, 56
2, 400500, Note_on_c, 0, 63, 55
2, 400974, Note_on_c, 0, 63, 0
2, 400974, Note_on_c, 0, 75, 0
2, 400974, Note_on_c, 0, 72, 0
2, 401040, Note_on_c, 0, 75, 50
2, 401040, Note_on_c, 0, 79, 50
2, 401129, Note_on_c, 0, 79, 0
2, 401129, Note_on_c, 0, 75, 0
2, 401220, Note_on_c, 0, 75, 45
2, 401220, Note_on_c, 0, 79, 45
2, 401309, Note_on_c, 0, 79, 0
2, 401309, Note_on_c, 0, 75, 0
2, 401400, Note_on_c, 0, 77, 49
2, 401400, Note_on_c, 0, 80, 49
2, 401489, Note_on_c, 0, 80, 0
2, 401489, Note_on_c, 0, 77, 0
2, 401580, Note_on_c, 0, 75, 38
2, 401580, Note_on_c, 0, 79, 38
2, 401669, Note_on_c, 0, 79, 0
2, 401669, Note_on_c, 0, 75, 0
2, 401760, Note_on_c, 0, 74, 42
2, 401760, Note_on_c, 0, 77, 42
2, 401849, Note_on_c, 0, 77, 0
2, 401849, Note_on_c, 0, 74, 0
2, 401940, Note_on_c, 0, 74, 49
2, 401940, Note_on_c, 0, 77, 49
2, 402029, Note_on_c, 0, 77, 0
2, 402029, Note_on_c, 0, 74, 0
2, 402120, Note_on_c, 0, 75, 62
2, 402120, Note_on_c, 0, 79, 62
2, 402437, Note_on_c, 0, 79, 0
2, 402437, Note_on_c, 0, 75, 0
2, 402480, Note_on_c, 0, 72, 36
2, 402480, Note_on_c, 0, 75, 36
2, 402569, Note_on_c, 0, 75, 0
2, 402569, Note_on_c, 0, 72, 0
2, 402660, Note_on_c, 0, 72, 45
2, 402660, Note_on_c, 0, 75, 45
2, 402749, Note_on_c, 0, 75, 0
2, 402749, Note_on_c, 0, 72, 0
2, 402840, Note_on_c, 0, 73, 62
2, 402840, Note_on_c, 0, 77, 62
2, 403109, Note_on_c, 0, 77, 0
2, 403109, Note_on_c, 0, 73, 0
2, 403200, Note_on_c, 0, 77, 64
2, 403200, Note_on_c, 0, 65, 59
2, 403248, Note_on_c, 0, 65, 0
2, 403248, Note_on_c, 0, 77, 0
2, 403248, Note_on_c, 0, 79, 68
2, 403248, Note_on_c, 0, 67, 68
2, 403279, Note_on_c, 0, 67, 0
2, 403279, Note_on_c, 0, 79, 0
2, 403279, Note_on_c, 0, 81, 69
2, 403279, Note_on_c, 0, 69, 64
2, 403341, Note_on_c, 0, 69, 0
2, 403341, Note_on_c, 0, 70, 66
2, 403359, Note_on_c, 0, 70, 0
2, 403365, Note_on_c, 0, 81, 0
2, 403365, Note_on_c, 0, 73, 69
2, 403365, Note_on_c, 0, 82, 69
2, 403372, Note_on_c, 0, 82, 0
2, 403372, Note_on_c, 0, 73, 0
2, 403560, Note_on_c, 0, 69, 39
2, 403560, Note_on_c, 0, 77, 39
2, 403560, Note_on_c, 0, 65, 41
2, 403830, Note_on_c, 0, 65, 0
2, 403830, Note_on_c, 0, 77, 0
2, 403830, Note_on_c, 0, 69, 0
2, 403830, Note_on_c, 0, 72, 39
2, 403830, Note_on_c, 0, 75, 39
2, 403830, Note_on_c, 0, 63, 35
2, 403920, Note_on_c, 0, 63, 0
2, 403920, Note_on_c, 0, 75, 0
2, 403920, Note_on_c, 0, 72, 0
2, 403920, Note_on_c, 0, 70, 40
2, 403920, Note_on_c, 0, 73, 40
2, 403920, Note_on_c, 0, 61, 45
2, 404009, Note_on_c, 0, 61, 0
2, 404009, Note_on_c, 0, 73, 0
2, 404009, Note_on_c, 0, 70, 0
2, 404100, Note_on_c, 0, 70, 59
2, 404100, Note_on_c, 0, 73, 59
2, 404100, Note_on_c, 0, 61, 55
2, 404417, Note_on_c, 0, 61, 0
2, 404417, Note_on_c, 0, 73, 0
2, 404417, Note_on_c, 0, 70, 0
2, 404460, Note_on_c, 0, 72, 52
2, 404460, Note_on_c, 0, 75, 52
2, 404460, Note_on_c, 0, 63, 41
2, 404549, Note_on_c, 0, 63, 0
2, 404549, Note_on_c, 0, 75, 0
2, 404549, Note_on_c, 0, 72, 0
2, 404640, Note_on_c, 0, 73, 77
2, 404640, Note_on_c, 0, 77, 77
2, 404640, Note_on_c, 0, 65, 69
2, 404820, Note_on_c, 0, 65, 0
2, 404820, Note_on_c, 0, 77, 0
2, 404820, Note_on_c, 0, 73, 0
2, 404820, Note_on_c, 0, 70, 40
2, 404820, Note_on_c, 0, 73, 40
2, 404820, Note_on_c, 0, 61, 41
2, 405000, Note_on_c, 0, 61, 0
2, 405000, Note_on_c, 0, 73, 0
2, 405000, Note_on_c, 0, 70, 0
2, 405000, Note_on_c, 0, 72, 48
2, 405000, Note_on_c, 0, 75, 48
2, 405000, Note_on_c, 0, 63, 46
2, 405134, Note_on_c, 0, 63, 0
2, 405134, Note_on_c, 0, 75, 0
2, 405134, Note_on_c, 0, 72, 0
2, 405270, Note_on_c, 0, 69, 41
2, 405270, Note_on_c, 0, 72, 41
2, 405270, Note_on_c, 0, 60, 42
2, 405314, Note_on_c, 0, 60, 0
2, 405314, Note_on_c, 0, 72, 0
2, 405314, Note_on_c, 0, 69, 0
2, 405360, Note_on_c, 0, 70, 45
2, 405360, Note_on_c, 0, 73, 45
2, 405360, Note_on_c, 0, 61, 51
2, 405449, Note_on_c, 0, 61, 0
2, 405449, Note_on_c, 0, 73, 0
2, 405449, Note_on_c, 0, 70, 0
2, 405540, Note_on_c, 0, 70, 46
2, 405540, Note_on_c, 0, 73, 46
2, 405540, Note_on_c, 0, 61, 41
2, 405629, Note_on_c, 0, 61, 0
2, 405629, Note_on_c, 0, 73, 0
2, 405629, Note_on_c, 0, 70, 0
2, 405720, Note_on_c, 0, 76, 67
2, 405720, Note_on_c, 0, 64, 70
2, 405899, Note_on_c, 0, 64, 0
2, 405899, Note_on_c, 0, 76, 0
2, 406080, Note_on_c, 0, 76, 66
2, 406080, Note_on_c, 0, 64, 70
2, 406131, Note_on_c, 0, 64, 0
2, 406131, Note_on_c, 0, 76, 0
2, 406131, Note_on_c, 0, 78, 66
2, 406131, Note_on_c, 0, 66, 68
2, 406181, Note_on_c, 0, 66, 0
2, 406181, Note_on_c, 0, 78, 0
2, 406181, Note_on_c, 0, 80, 70
2, 406181, Note_on_c, 0, 68, 70
2, 406247, Note_on_c, 0, 68, 0
2, 406247, Note_on_c, 0, 69, 67
2, 406253, Note_on_c, 0, 69, 0
2, 406271, Note_on_c, 0, 80, 0
2, 406271, Note_on_c, 0, 72, 65
2, 406271, Note_on_c, 0, 81, 65
2, 406292, Note_on_c, 0, 81, 0
2, 406292, Note_on_c, 0, 72, 0
2, 406440, Note_on_c, 0, 68, 35
2, 406440, Note_on_c, 0, 76, 35
2, 406440, Note_on_c, 0, 64, 40
2, 406710, Note_on_c, 0, 64, 0
2, 406710, Note_on_c, 0, 76, 0
2, 406710, Note_on_c, 0, 68, 0
2, 406710, Note_on_c, 0, 71, 39
2, 406710, Note_on_c, 0, 74, 39
2, 406710, Note_on_c, 0, 62, 42
2, 406800, Note_on_c, 0, 62, 0
2, 406800, Note_on_c, 0, 74, 0
2, 406800, Note_on_c, 0, 71, 0
2, 406800, Note_on_c, 0, 69, 44
2, 406800, Note_on_c, 0, 72, 44
2, 406800, Note_on_c, 0, 60, 45
2, 406889, Note_on_c, 0, 60, 0
2, 406889, Note_on_c, 0, 72, 0
2, 406889, Note_on_c, 0, 69, 0
2, 406980, Note_on_c, 0, 69, 59
2, 406980, Note_on_c, 0, 72, 59
2, 406980, Note_on_c, 0, 60, 58
2, 407297, Note_on_c, 0, 60, 0
2, 407297, Note_on_c, 0, 72, 0
2, 407297, Note_on_c, 0, 69, 0
2, 407340, Note_on_c, 0, 71, 50
2, 407340, Note_on_c, 0, 74, 50
2, 407340, Note_on_c, 0, 62, 49
2, 407429, Note_on_c, 0, 62, 0
2, 407429, Note_on_c, 0, 74, 0
2, 407429, Note_on_c, 0, 71, 0
2, 407520, Note_on_c, 0, 72, 75
2, 407520, Note_on_c, 0, 76, 75
2, 407520, Note_on_c, 0, 64, 76
2, 407700, Note_on_c, 0, 64, 0
2, 407700, Note_on_c, 0, 76, 0
2, 407700, Note_on_c, 0, 72, 0
2, 407700, Note_on_c, 0, 72, 43
2, 407700, Note_on_c, 0, 60, 37
2, 407880, Note_on_c, 0, 60, 0
2, 407880, Note_on_c, 0, 72, 0
2, 407880, Note_on_c, 0, 71, 46
2, 407880, Note_on_c, 0, 74, 46
2, 407880, Note_on_c, 0, 62, 47
2, 408014, Note_on_c, 0, 62, 0
2, 408014, Note_on_c, 0, 74, 0
2, 408014, Note_on_c, 0, 71, 0
2, 408150, Note_on_c, 0, 71, 38
2, 408150, Note_on_c, 0, 59, 44
2, 408194, Note_on_c, 0, 59, 0
2, 408194, Note_on_c, 0, 71, 0
2, 408240, Note_on_c, 0, 69, 47
2, 408240, Note_on_c, 0, 72, 47
2, 408240, Note_on_c, 0, 60, 52
2, 408329, Note_on_c, 0, 60, 0
2, 408329, Note_on_c, 0, 72, 0
2, 408329, Note_on_c, 0, 69, 0
2, 408420, Note_on_c, 0, 69, 45
2, 408420, Note_on_c, 0, 72, 45
2, 408420, Note_on_c, 0, 60, 46
2, 408509, Note_on_c, 0, 60, 0
2, 408509, Note_on_c, 0, 72, 0
2, 408509, Note_on_c, 0, 69, 0
2, 408600, Note_on_c, 0, 75, 70
2, 408600, Note_on_c, 0, 63, 68
2, 408779, Note_on_c, 0, 63, 0
2, 408779, Note_on_c, 0, 75, 0
2, 408960, Note_on_c, 0, 75, 67
2, 408960, Note_on_c, 0, 63, 67
2, 409011, Note_on_c, 0, 63, 0
2, 409011, Note_on_c, 0, 75, 0
2, 409011, Note_on_c, 0, 77, 67
2, 409011, Note_on_c, 0, 65, 67
2, 409061, Note_on_c, 0, 65, 0
2, 409061, Note_on_c, 0, 77, 0
2, 409061, Note_on_c, 0, 79, 70
2, 409061, Note_on_c, 0, 67, 66
2, 409127, Note_on_c, 0, 67, 0
2, 409127, Note_on_c, 0, 68, 66
2, 409133, Note_on_c, 0, 68, 0
2, 409151, Note_on_c, 0, 79, 0
2, 409151, Note_on_c, 0, 71, 65
2, 409151, Note_on_c, 0, 80, 65
2, 409172, Note_on_c, 0, 80, 0
2, 409172, Note_on_c, 0, 71, 0
2, 409320, Note_on_c, 0, 67, 35
2, 409320, Note_on_c, 0, 75, 35
2, 409320, Note_on_c, 0, 63, 38
2, 409590, Note_on_c, 0, 63, 0
2, 409590, Note_on_c, 0, 75, 0
2, 409590, Note_on_c, 0, 67, 0
2, 409590, Note_on_c, 0, 70, 43
2, 409590, Note_on_c, 0, 73, 43
2, 409590, Note_on_c, 0, 61, 39
2, 409680, Note_on_c, 0, 61, 0
2, 409680, Note_on_c, 0, 73, 0
2, 409680, Note_on_c, 0, 70, 0
2, 409680, Note_on_c, 0, 68, 39
2, 409680, Note_on_c, 0, 71, 39
2, 409680, Note_on_c, 0, 59, 43
2, 409769, Note_on_c, 0, 59, 0
2, 409769, Note_on_c, 0, 71, 0
2, 409769, Note_on_c, 0, 68, 0
2, 409860, Note_on_c, 0, 68, 57
2, 409860, Note_on_c, 0, 71, 57
2, 409860, Note_on_c, 0, 59, 62
2, 410177, Note_on_c, 0, 59, 0
2, 410177, Note_on_c, 0, 71, 0
2, 410177, Note_on_c, 0, 68, 0
2, 410220, Note_on_c, 0, 74, 70
2, 410220, Note_on_c, 0, 62, 65
2, 410309, Note_on_c, 0, 62, 0
2, 410309, Note_on_c, 0, 74, 0
2, 410400, Note_on_c, 0, 74, 67
2, 410400, Note_on_c, 0, 62, 62
2, 410451, Note_on_c, 0, 62, 0
2, 410451, Note_on_c, 0, 74, 0
2, 410451, Note_on_c, 0, 76, 70
2, 410451, Note_on_c, 0, 64, 67
2, 410501, Note_on_c, 0, 64, 0
2, 410501, Note_on_c, 0, 76, 0
2, 410501, Note_on_c, 0, 78, 70
2, 410501, Note_on_c, 0, 66, 64
2, 410563, Note_on_c, 0, 66, 0
2, 410563, Note_on_c, 0, 67, 66
2, 410570, Note_on_c, 0, 67, 0
2, 410583, Note_on_c, 0, 78, 0
2, 410583, Note_on_c, 0, 71, 65
2, 410583, Note_on_c, 0, 79, 65
2, 410604, Note_on_c, 0, 79, 0
2, 410604, Note_on_c, 0, 71, 0
2, 410760, Note_on_c, 0, 66, 42
2, 410760, Note_on_c, 0, 74, 42
2, 410760, Note_on_c, 0, 62, 41
2, 411030, Note_on_c, 0, 62, 0
2, 411030, Note_on_c, 0, 74, 0
2, 411030, Note_on_c, 0, 66, 0
2, 411030, Note_on_c, 0, 69, 42
2, 411030, Note_on_c, 0, 72, 42
2, 411030, Note_on_c, 0, 60, 41
2, 411120, Note_on_c, 0, 60, 0
2, 411120, Note_on_c, 0, 72, 0
2, 411120, Note_on_c, 0, 69, 0
2, 411120, Note_on_c, 0, 67, 34
2, 411120, Note_on_c, 0, 71, 34
2, 411120, Note_on_c, 0, 59, 46
2, 411209, Note_on_c, 0, 59, 0
2, 411209, Note_on_c, 0, 71, 0
2, 411209, Note_on_c, 0, 67, 0
2, 411300, Note_on_c, 0, 67, 57
2, 411300, Note_on_c, 0, 71, 57
2, 411300, Note_on_c, 0, 59, 58
2, 411617, Note_on_c, 0, 59, 0
2, 411617, Note_on_c, 0, 71, 0
2, 411617, Note_on_c, 0, 67, 0
2, 411660, Note_on_c, 0, 73, 63
2, 411660, Note_on_c, 0, 61, 62
2, 411749, Note_on_c, 0, 61, 0
2, 411749, Note_on_c, 0, 73, 0
2, 411840, Note_on_c, 0, 73, 56
2, 411840, Note_on_c, 0, 61, 56
2, 411891, Note_on_c, 0, 61, 0
2, 411891, Note_on_c, 0, 73, 0
2, 411891, Note_on_c, 0, 75, 59
2, 411891, Note_on_c, 0, 63, 59
2, 411941, Note_on_c, 0, 63, 0
2, 411941, Note_on_c, 0, 75, 0
2, 411941, Note_on_c, 0, 77, 63
2, 411941, Note_on_c, 0, 65, 61
2, 412010, Note_on_c, 0, 65, 0
2, 412010, Note_on_c, 0, 66, 59
2, 412014, Note_on_c, 0, 66, 0
2, 412023, Note_on_c, 0, 77, 0
2, 412023, Note_on_c, 0, 70, 59
2, 412023, Note_on_c, 0, 78, 59
2, 412044, Note_on_c, 0, 78, 0
2, 412044, Note_on_c, 0, 70, 0
2, 412200, Note_on_c, 0, 72, 48
2, 412200, Note_on_c, 0, 60, 48
2, 412379, Note_on_c, 0, 60, 0
2, 412379, Note_on_c, 0, 72, 0
2, 412390, Note_on_c, 0, 60, 43
2, 412407, Note_on_c, 0, 72, 43
2, 412438, Note_on_c, 0, 60, 0
2, 412438, Note_on_c, 0, 62, 52
2, 412453, Note_on_c, 0, 72, 0
2, 412453, Note_on_c, 0, 74, 50
2, 412484, Note_on_c, 0, 62, 0
2, 412484, Note_on_c, 0, 64, 48
2, 412504, Note_on_c, 0, 74, 0
2, 412504, Note_on_c, 0, 76, 53
2, 412560, Note_on_c, 0, 76, 0
2, 412560, Note_on_c, 0, 64, 0
2, 412560, Note_on_c, 0, 69, 46
2, 412560, Note_on_c, 0, 77, 46
2, 412560, Note_on_c, 0, 65, 48
2, 412649, Note_on_c, 0, 65, 0
2, 412649, Note_on_c, 0, 77, 0
2, 412649, Note_on_c, 0, 69, 0
2, 412920, Note_on_c, 0, 71, 44
2, 412920, Note_on_c, 0, 59, 42
2, 413099, Note_on_c, 0, 59, 0
2, 413099, Note_on_c, 0, 71, 0
2, 413280, Note_on_c, 0, 71, 36
2, 413280, Note_on_c, 0, 59, 38
2, 413334, Note_on_c, 0, 71, 0
2, 413334, Note_on_c, 0, 73, 43
2, 413336, Note_on_c, 0, 59, 0
2, 413336, Note_on_c, 0, 61, 44
2, 413387, Note_on_c, 0, 73, 0
2, 413387, Note_on_c, 0, 75, 38
2, 413390, Note_on_c, 0, 61, 0
2, 413390, Note_on_c, 0, 63, 37
2, 413454, Note_on_c, 0, 63, 0
2, 413454, Note_on_c, 0, 64, 40
2, 413456, Note_on_c, 0, 64, 0
2, 413471, Note_on_c, 0, 75, 0
2, 413471, Note_on_c, 0, 67, 41
2, 413471, Note_on_c, 0, 76, 41
2, 413492, Note_on_c, 0, 76, 0
2, 413492, Note_on_c, 0, 67, 0
2, 416160, Note_on_c, 0, 79, 83
2, 416160, Note_on_c, 0, 83, 83
2, 416160, Note_on_c, 0, 67, 93
2, 416249, Note_on_c, 0, 83, 0
2, 416249, Note_on_c, 0, 79, 0
2, 416340, Note_on_c, 0, 79, 90
2, 416340, Note_on_c, 0, 83, 90
2, 416429, Note_on_c, 0, 83, 0
2, 416429, Note_on_c, 0, 79, 0
2, 416520, Note_on_c, 0, 81, 95
2, 416520, Note_on_c, 0, 84, 95
2, 416609, Note_on_c, 0, 84, 0
2, 416609, Note_on_c, 0, 81, 0
2, 416700, Note_on_c, 0, 79, 90
2, 416700, Note_on_c, 0, 83, 90
2, 416789, Note_on_c, 0, 83, 0
2, 416789, Note_on_c, 0, 79, 0
2, 416793, Note_on_c, 0, 67, 0
2, 416880, Note_on_c, 0, 78, 85
2, 416880, Note_on_c, 0, 81, 85
2, 416880, Note_on_c, 0, 66, 102
2, 416969, Note_on_c, 0, 81, 0
2, 416969, Note_on_c, 0, 78, 0
2, 417060, Note_on_c, 0, 78, 92
2, 417060, Note_on_c, 0, 81, 92
2, 417149, Note_on_c, 0, 81, 0
2, 417149, Note_on_c, 0, 78, 0
2, 417240, Note_on_c, 0, 79, 111
2, 417240, Note_on_c, 0, 83, 111
2, 417513, Note_on_c, 0, 66, 0
2, 417557, Note_on_c, 0, 83, 0
2, 417557, Note_on_c, 0, 79, 0
2, 417600, Note_on_c, 0, 76, 85
2, 417600, Note_on_c, 0, 79, 85
2, 417600, Note_on_c, 0, 59, 80
2, 417689, Note_on_c, 0, 59, 0
2, 417734, Note_on_c, 0, 79, 0
2, 417734, Note_on_c, 0, 76, 0
2, 417870, Note_on_c, 0, 76, 86
2, 417870, Note_on_c, 0, 79, 86
2, 417914, Note_on_c, 0, 79, 0
2, 417914, Note_on_c, 0, 76, 0
2, 417960, Note_on_c, 0, 76, 93
2, 417960, Note_on_c, 0, 79, 93
2, 417960, Note_on_c, 0, 64, 100
2, 418049, Note_on_c, 0, 79, 0
2, 418049, Note_on_c, 0, 76, 0
2, 418140, Note_on_c, 0, 78, 98
2, 418140, Note_on_c, 0, 81, 98
2, 418229, Note_on_c, 0, 81, 0
2, 418229, Note_on_c, 0, 78, 0
2, 418320, Note_on_c, 0, 79, 111
2, 418320, Note_on_c, 0, 83, 111
2, 418593, Note_on_c, 0, 64, 0
2, 418637, Note_on_c, 0, 83, 0
2, 418637, Note_on_c, 0, 79, 0
2, 418680, Note_on_c, 0, 66, 99
2, 419040, Note_on_c, 0, 66, 0
2, 419040, Note_on_c, 0, 79, 82
2, 419040, Note_on_c, 0, 83, 82
2, 419040, Note_on_c, 0, 67, 115
2, 419129, Note_on_c, 0, 83, 0
2, 419129, Note_on_c, 0, 79, 0
2, 419220, Note_on_c, 0, 83, 87
2, 419310, Note_on_c, 0, 83, 0
2, 419310, Note_on_c, 0, 79, 79
2, 419357, Note_on_c, 0, 67, 0
2, 419400, Note_on_c, 0, 79, 0
2, 419400, Note_on_c, 0, 81, 101
2, 419400, Note_on_c, 0, 84, 101
2, 419400, Note_on_c, 0, 64, 85
2, 419489, Note_on_c, 0, 84, 0
2, 419489, Note_on_c, 0, 81, 0
2, 419580, Note_on_c, 0, 79, 89
2, 419580, Note_on_c, 0, 83, 89
2, 419669, Note_on_c, 0, 83, 0
2, 419669, Note_on_c, 0, 79, 0
2, 419760, Note_on_c, 0, 64, 0
2, 419760, Note_on_c, 0, 78, 84
2, 419760, Note_on_c, 0, 81, 84
2, 419760, Note_on_c, 0, 66, 110
2, 419849, Note_on_c, 0, 81, 0
2, 419849, Note_on_c, 0, 78, 0
2, 419940, Note_on_c, 0, 81, 91
2, 419984, Note_on_c, 0, 81, 0
2, 420030, Note_on_c, 0, 78, 87
2, 420074, Note_on_c, 0, 78, 0
2, 420120, Note_on_c, 0, 79, 116
2, 420120, Note_on_c, 0, 83, 116
2, 420234, Note_on_c, 0, 66, 0
2, 420300, Note_on_c, 0, 59, 80
2, 420437, Note_on_c, 0, 83, 0
2, 420437, Note_on_c, 0, 79, 0
2, 420480, Note_on_c, 0, 59, 0
2, 420480, Note_on_c, 0, 76, 85
2, 420480, Note_on_c, 0, 79, 85
2, 420480, Note_on_c, 0, 59, 90
2, 420569, Note_on_c, 0, 79, 0
2, 420569, Note_on_c, 0, 76, 0
2, 420660, Note_on_c, 0, 59, 0
2, 420660, Note_on_c, 0, 79, 93
2, 420750, Note_on_c, 0, 79, 0
2, 420750, Note_on_c, 0, 76, 85
2, 420840, Note_on_c, 0, 76, 0
2, 420840, Note_on_c, 0, 79, 98
2, 420840, Note_on_c, 0, 64, 80
2, 420929, Note_on_c, 0, 79, 0
2, 421020, Note_on_c, 0, 78, 98
2, 421020, Note_on_c, 0, 81, 98
2, 421109, Note_on_c, 0, 81, 0
2, 421109, Note_on_c, 0, 78, 0
2, 421200, Note_on_c, 0, 79, 111
2, 421200, Note_on_c, 0, 83, 111
2, 421517, Note_on_c, 0, 83, 0
2, 421517, Note_on_c, 0, 79, 0
2, 421560, Note_on_c, 0, 64, 0
2, 421560, Note_on_c, 0, 79, 105
2, 421560, Note_on_c, 0, 83, 105
2, 421560, Note_on_c, 0, 59, 96
2, 421877, Note_on_c, 0, 59, 0
2, 421877, Note_on_c, 0, 83, 0
2, 421877, Note_on_c, 0, 79, 0
2, 421920, Note_on_c, 0, 74, 74
2, 421920, Note_on_c, 0, 78, 74
2, 421920, Note_on_c, 0, 66, 122
2, 422009, Note_on_c, 0, 78, 0
2, 422009, Note_on_c, 0, 74, 0
2, 422100, Note_on_c, 0, 74, 90
2, 422100, Note_on_c, 0, 78, 90
2, 422189, Note_on_c, 0, 78, 0
2, 422189, Note_on_c, 0, 74, 0
2, 422280, Note_on_c, 0, 76, 97
2, 422280, Note_on_c, 0, 79, 97
2, 422369, Note_on_c, 0, 79, 0
2, 422369, Note_on_c, 0, 76, 0
2, 422460, Note_on_c, 0, 74, 89
2, 422460, Note_on_c, 0, 78, 89
2, 422549, Note_on_c, 0, 78, 0
2, 422549, Note_on_c, 0, 74, 0
2, 422553, Note_on_c, 0, 66, 0
2, 422640, Note_on_c, 0, 73, 82
2, 422640, Note_on_c, 0, 76, 82
2, 422640, Note_on_c, 0, 64, 102
2, 422729, Note_on_c, 0, 76, 0
2, 422729, Note_on_c, 0, 73, 0
2, 422820, Note_on_c, 0, 73, 92
2, 422820, Note_on_c, 0, 76, 92
2, 422909, Note_on_c, 0, 76, 0
2, 422909, Note_on_c, 0, 73, 0
2, 423000, Note_on_c, 0, 74, 109
2, 423000, Note_on_c, 0, 78, 109
2, 423273, Note_on_c, 0, 64, 0
2, 423317, Note_on_c, 0, 78, 0
2, 423317, Note_on_c, 0, 74, 0
2, 423360, Note_on_c, 0, 71, 84
2, 423360, Note_on_c, 0, 74, 84
2, 423360, Note_on_c, 0, 62, 88
2, 423449, Note_on_c, 0, 62, 0
2, 423494, Note_on_c, 0, 74, 0
2, 423494, Note_on_c, 0, 71, 0
2, 423630, Note_on_c, 0, 71, 92
2, 423630, Note_on_c, 0, 74, 92
2, 423674, Note_on_c, 0, 74, 0
2, 423674, Note_on_c, 0, 71, 0
2, 423720, Note_on_c, 0, 71, 91
2, 423720, Note_on_c, 0, 74, 91
2, 423720, Note_on_c, 0, 62, 79
2, 423809, Note_on_c, 0, 74, 0
2, 423809, Note_on_c, 0, 71, 0
2, 423900, Note_on_c, 0, 73, 103
2, 423900, Note_on_c, 0, 76, 103
2, 423989, Note_on_c, 0, 76, 0
2, 423989, Note_on_c, 0, 73, 0
2, 424080, Note_on_c, 0, 74, 108
2, 424080, Note_on_c, 0, 78, 108
2, 424397, Note_on_c, 0, 78, 0
2, 424397, Note_on_c, 0, 74, 0
2, 424440, Note_on_c, 0, 62, 0
2, 424440, Note_on_c, 0, 61, 87
2, 424800, Note_on_c, 0, 61, 0
2, 424800, Note_on_c, 0, 74, 79
2, 424800, Note_on_c, 0, 78, 79
2, 424800, Note_on_c, 0, 62, 98
2, 424889, Note_on_c, 0, 78, 0
2, 424889, Note_on_c, 0, 74, 0
2, 424980, Note_on_c, 0, 78, 91
2, 425070, Note_on_c, 0, 78, 0
2, 425070, Note_on_c, 0, 74, 77
2, 425160, Note_on_c, 0, 74, 0
2, 425160, Note_on_c, 0, 62, 0
2, 425160, Note_on_c, 0, 76, 108
2, 425160, Note_on_c, 0, 79, 108
2, 425160, Note_on_c, 0, 59, 87
2, 425249, Note_on_c, 0, 79, 0
2, 425249, Note_on_c, 0, 76, 0
2, 425340, Note_on_c, 0, 74, 86
2, 425340, Note_on_c, 0, 78, 86
2, 425429, Note_on_c, 0, 78, 0
2, 425429, Note_on_c, 0, 74, 0
2, 425520, Note_on_c, 0, 59, 0
2, 425520, Note_on_c, 0, 73, 88
2, 425520, Note_on_c, 0, 76, 88
2, 425520, Note_on_c, 0, 61, 100
2, 425609, Note_on_c, 0, 76, 0
2, 425609, Note_on_c, 0, 73, 0
2, 425700, Note_on_c, 0, 76, 92
2, 425744, Note_on_c, 0, 76, 0
2, 425790, Note_on_c, 0, 73, 83
2, 425834, Note_on_c, 0, 73, 0
2, 425880, Note_on_c, 0, 74, 117
2, 425880, Note_on_c, 0, 78, 117
2, 426060, Note_on_c, 0, 61, 0
2, 426060, Note_on_c, 0, 58, 87
2, 426197, Note_on_c, 0, 78, 0
2, 426197, Note_on_c, 0, 74, 0
2, 426240, Note_on_c, 0, 58, 0
2, 426240, Note_on_c, 0, 71, 82
2, 426240, Note_on_c, 0, 74, 82
2, 426240, Note_on_c, 0, 59, 99
2, 426329, Note_on_c, 0, 74, 0
2, 426329, Note_on_c, 0, 71, 0
2, 426420, Note_on_c, 0, 59, 0
2, 426420, Note_on_c, 0, 74, 92
2, 426510, Note_on_c, 0, 74, 0
2, 426510, Note_on_c, 0, 71, 82
2, 426600, Note_on_c, 0, 71, 0
2, 426600, Note_on_c, 0, 74, 101
2, 426600, Note_on_c, 0, 59, 101
2, 426689, Note_on_c, 0, 74, 0
2, 426780, Note_on_c, 0, 73, 98
2, 426780, Note_on_c, 0, 76, 98
2, 426869, Note_on_c, 0, 76, 0
2, 426869, Note_on_c, 0, 73, 0
2, 426960, Note_on_c, 0, 74, 111
2, 426960, Note_on_c, 0, 78, 111
2, 427233, Note_on_c, 0, 59, 0
2, 427277, Note_on_c, 0, 78, 0
2, 427277, Note_on_c, 0, 74, 0
2, 427320, Note_on_c, 0, 71, 84
2, 427320, Note_on_c, 0, 59, 101
2, 427637, Note_on_c, 0, 59, 0
2, 427637, Note_on_c, 0, 71, 0
2, 427680, Note_on_c, 0, 79, 99
2, 427680, Note_on_c, 0, 83, 99
2, 427680, Note_on_c, 0, 71, 122
2, 427769, Note_on_c, 0, 83, 0
2, 427769, Note_on_c, 0, 79, 0
2, 427860, Note_on_c, 0, 79, 83
2, 427860, Note_on_c, 0, 83, 83
2, 427904, Note_on_c, 0, 83, 0
2, 427904, Note_on_c, 0, 79, 0
2, 427950, Note_on_c, 0, 79, 68
2, 428040, Note_on_c, 0, 79, 0
2, 428040, Note_on_c, 0, 81, 87
2, 428040, Note_on_c, 0, 84, 87
2, 428129, Note_on_c, 0, 84, 0
2, 428129, Note_on_c, 0, 81, 0
2, 428220, Note_on_c, 0, 79, 73
2, 428220, Note_on_c, 0, 83, 73
2, 428309, Note_on_c, 0, 83, 0
2, 428309, Note_on_c, 0, 79, 0
2, 428313, Note_on_c, 0, 71, 0
2, 428400, Note_on_c, 0, 78, 75
2, 428400, Note_on_c, 0, 81, 75
2, 428400, Note_on_c, 0, 66, 99
2, 428489, Note_on_c, 0, 81, 0
2, 428489, Note_on_c, 0, 78, 0
2, 428580, Note_on_c, 0, 78, 78
2, 428580, Note_on_c, 0, 81, 78
2, 428669, Note_on_c, 0, 81, 0
2, 428669, Note_on_c, 0, 78, 0
2, 428760, Note_on_c, 0, 79, 96
2, 428760, Note_on_c, 0, 83, 96
2, 429033, Note_on_c, 0, 66, 0
2, 429077, Note_on_c, 0, 83, 0
2, 429077, Note_on_c, 0, 79, 0
2, 429120, Note_on_c, 0, 76, 71
2, 429120, Note_on_c, 0, 79, 71
2, 429120, Note_on_c, 0, 64, 82
2, 429209, Note_on_c, 0, 64, 0
2, 429254, Note_on_c, 0, 79, 0
2, 429254, Note_on_c, 0, 76, 0
2, 429390, Note_on_c, 0, 76, 80
2, 429390, Note_on_c, 0, 79, 80
2, 429434, Note_on_c, 0, 79, 0
2, 429434, Note_on_c, 0, 76, 0
2, 429480, Note_on_c, 0, 76, 82
2, 429480, Note_on_c, 0, 79, 82
2, 429480, Note_on_c, 0, 64, 80
2, 429569, Note_on_c, 0, 79, 0
2, 429569, Note_on_c, 0, 76, 0
2, 429660, Note_on_c, 0, 78, 78
2, 429660, Note_on_c, 0, 81, 78
2, 429749, Note_on_c, 0, 81, 0
2, 429749, Note_on_c, 0, 78, 0
2, 429840, Note_on_c, 0, 79, 98
2, 429840, Note_on_c, 0, 83, 98
2, 430157, Note_on_c, 0, 83, 0
2, 430157, Note_on_c, 0, 79, 0
2, 430200, Note_on_c, 0, 64, 0
2, 430200, Note_on_c, 0, 66, 96
2, 430560, Note_on_c, 0, 66, 0
2, 430560, Note_on_c, 0, 79, 71
2, 430560, Note_on_c, 0, 83, 71
2, 430560, Note_on_c, 0, 71, 109
2, 430649, Note_on_c, 0, 83, 0
2, 430649, Note_on_c, 0, 79, 0
2, 430740, Note_on_c, 0, 83, 73
2, 430830, Note_on_c, 0, 83, 0
2, 430830, Note_on_c, 0, 79, 70
2, 430920, Note_on_c, 0, 79, 0
2, 430920, Note_on_c, 0, 71, 0
2, 430920, Note_on_c, 0, 81, 89
2, 430920, Note_on_c, 0, 84, 89
2, 430920, Note_on_c, 0, 67, 83
2, 431009, Note_on_c, 0, 84, 0
2, 431009, Note_on_c, 0, 81, 0
2, 431100, Note_on_c, 0, 79, 77
2, 431100, Note_on_c, 0, 83, 77
2, 431189, Note_on_c, 0, 83, 0
2, 431189, Note_on_c, 0, 79, 0
2, 431280, Note_on_c, 0, 67, 0
2, 431280, Note_on_c, 0, 78, 77
2, 431280, Note_on_c, 0, 81, 77
2, 431280, Note_on_c, 0, 69, 97
2, 431369, Note_on_c, 0, 81, 0
2, 431369, Note_on_c, 0, 78, 0
2, 431460, Note_on_c, 0, 81, 76
2, 431504, Note_on_c, 0, 81, 0
2, 431550, Note_on_c, 0, 78, 72
2, 431594, Note_on_c, 0, 78, 0
2, 431640, Note_on_c, 0, 79, 106
2, 431640, Note_on_c, 0, 83, 106
2, 431820, Note_on_c, 0, 69, 0
2, 431820, Note_on_c, 0, 66, 81
2, 431957, Note_on_c, 0, 83, 0
2, 431957, Note_on_c, 0, 79, 0
2, 432000, Note_on_c, 0, 66, 0
2, 432000, Note_on_c, 0, 76, 74
2, 432000, Note_on_c, 0, 79, 74
2, 432000, Note_on_c, 0, 64, 83
2, 432089, Note_on_c, 0, 79, 0
2, 432089, Note_on_c, 0, 76, 0
2, 432180, Note_on_c, 0, 64, 0
2, 432180, Note_on_c, 0, 79, 81
2, 432270, Note_on_c, 0, 79, 0
2, 432270, Note_on_c, 0, 76, 74
2, 432360, Note_on_c, 0, 76, 0
2, 432360, Note_on_c, 0, 79, 83
2, 432360, Note_on_c, 0, 64, 96
2, 432449, Note_on_c, 0, 79, 0
2, 432540, Note_on_c, 0, 78, 83
2, 432540, Note_on_c, 0, 81, 83
2, 432629, Note_on_c, 0, 81, 0
2, 432629, Note_on_c, 0, 78, 0
2, 432720, Note_on_c, 0, 79, 97
2, 432720, Note_on_c, 0, 83, 97
2, 432993, Note_on_c, 0, 64, 0
2, 433037, Note_on_c, 0, 83, 0
2, 433037, Note_on_c, 0, 79, 0
2, 433080, Note_on_c, 0, 79, 94
2, 433080, Note_on_c, 0, 83, 94
2, 433080, Note_on_c, 0, 59, 96
2, 433397, Note_on_c, 0, 59, 0
2, 433397, Note_on_c, 0, 83, 0
2, 433397, Note_on_c, 0, 79, 0
2, 433440, Note_on_c, 0, 74, 68
2, 433440, Note_on_c, 0, 78, 68
2, 433440, Note_on_c, 0, 66, 119
2, 433529, Note_on_c, 0, 78, 0
2, 433529, Note_on_c, 0, 74, 0
2, 433620, Note_on_c, 0, 74, 77
2, 433620, Note_on_c, 0, 78, 77
2, 433664, Note_on_c, 0, 78, 0
2, 433664, Note_on_c, 0, 74, 0
2, 433710, Note_on_c, 0, 74, 69
2, 433754, Note_on_c, 0, 74, 0
2, 433800, Note_on_c, 0, 76, 87
2, 433800, Note_on_c, 0, 79, 87
2, 433889, Note_on_c, 0, 79, 0
2, 433889, Note_on_c, 0, 76, 0
2, 433980, Note_on_c, 0, 74, 79
2, 433980, Note_on_c, 0, 78, 79
2, 434069, Note_on_c, 0, 78, 0
2, 434069, Note_on_c, 0, 74, 0
2, 434073, Note_on_c, 0, 66, 0
2, 434160, Note_on_c, 0, 73, 72
2, 434160, Note_on_c, 0, 76, 72
2, 434160, Note_on_c, 0, 61, 93
2, 434249, Note_on_c, 0, 76, 0
2, 434249, Note_on_c, 0, 73, 0
2, 434340, Note_on_c, 0, 73, 77
2, 434340, Note_on_c, 0, 76, 77
2, 434429, Note_on_c, 0, 76, 0
2, 434429, Note_on_c, 0, 73, 0
2, 434520, Note_on_c, 0, 74, 97
2, 434520, Note_on_c, 0, 78, 97
2, 434634, Note_on_c, 0, 61, 0
2, 434700, Note_on_c, 0, 64, 100
2, 434837, Note_on_c, 0, 78, 0
2, 434837, Note_on_c, 0, 74, 0
2, 434880, Note_on_c, 0, 64, 0
2, 434880, Note_on_c, 0, 71, 70
2, 434880, Note_on_c, 0, 74, 70
2, 434880, Note_on_c, 0, 62, 89
2, 434969, Note_on_c, 0, 62, 0
2, 435014, Note_on_c, 0, 74, 0
2, 435014, Note_on_c, 0, 71, 0
2, 435150, Note_on_c, 0, 71, 78
2, 435150, Note_on_c, 0, 74, 78
2, 435194, Note_on_c, 0, 74, 0
2, 435194, Note_on_c, 0, 71, 0
2, 435240, Note_on_c, 0, 71, 79
2, 435240, Note_on_c, 0, 74, 79
2, 435240, Note_on_c, 0, 59, 94
2, 435329, Note_on_c, 0, 74, 0
2, 435329, Note_on_c, 0, 71, 0
2, 435420, Note_on_c, 0, 73, 82
2, 435420, Note_on_c, 0, 76, 82
2, 435509, Note_on_c, 0, 76, 0
2, 435509, Note_on_c, 0, 73, 0
2, 435600, Note_on_c, 0, 74, 96
2, 435600, Note_on_c, 0, 78, 96
2, 435873, Note_on_c, 0, 59, 0
2, 435917, Note_on_c, 0, 78, 0
2, 435917, Note_on_c, 0, 74, 0
2, 435960, Note_on_c, 0, 61, 108
2, 436277, Note_on_c, 0, 61, 0
2, 436320, Note_on_c, 0, 74, 71
2, 436320, Note_on_c, 0, 78, 71
2, 436320, Note_on_c, 0, 62, 99
2, 436409, Note_on_c, 0, 78, 0
2, 436409, Note_on_c, 0, 74, 0
2, 436500, Note_on_c, 0, 78, 77
2, 436590, Note_on_c, 0, 78, 0
2, 436590, Note_on_c, 0, 74, 73
2, 436680, Note_on_c, 0, 74, 0
2, 436680, Note_on_c, 0, 62, 0
2, 436680, Note_on_c, 0, 76, 84
2, 436680, Note_on_c, 0, 79, 84
2, 436680, Note_on_c, 0, 59, 97
2, 436769, Note_on_c, 0, 79, 0
2, 436769, Note_on_c, 0, 76, 0
2, 436860, Note_on_c, 0, 74, 76
2, 436860, Note_on_c, 0, 78, 76
2, 436949, Note_on_c, 0, 78, 0
2, 436949, Note_on_c, 0, 74, 0
2, 437040, Note_on_c, 0, 59, 0
2, 437040, Note_on_c, 0, 73, 73
2, 437040, Note_on_c, 0, 76, 73
2, 437040, Note_on_c, 0, 61, 98
2, 437129, Note_on_c, 0, 76, 0
2, 437129, Note_on_c, 0, 73, 0
2, 437220, Note_on_c, 0, 76, 77
2, 437264, Note_on_c, 0, 76, 0
2, 437310, Note_on_c, 0, 73, 71
2, 437354, Note_on_c, 0, 73, 0
2, 437400, Note_on_c, 0, 74, 96
2, 437400, Note_on_c, 0, 78, 96
2, 437580, Note_on_c, 0, 61, 0
2, 437580, Note_on_c, 0, 58, 86
2, 437717, Note_on_c, 0, 78, 0
2, 437717, Note_on_c, 0, 74, 0
2, 437760, Note_on_c, 0, 58, 0
2, 437760, Note_on_c, 0, 71, 71
2, 437760, Note_on_c, 0, 74, 71
2, 437760, Note_on_c, 0, 59, 91
2, 437849, Note_on_c, 0, 59, 0
2, 437849, Note_on_c, 0, 74, 0
2, 437849, Note_on_c, 0, 71, 0
2, 437940, Note_on_c, 0, 74, 74
2, 438030, Note_on_c, 0, 74, 0
2, 438030, Note_on_c, 0, 71, 71
2, 438120, Note_on_c, 0, 71, 0
2, 438120, Note_on_c, 0, 74, 91
2, 438120, Note_on_c, 0, 59, 93
2, 438209, Note_on_c, 0, 74, 0
2, 438300, Note_on_c, 0, 73, 85
2, 438300, Note_on_c, 0, 76, 85
2, 438389, Note_on_c, 0, 76, 0
2, 438389, Note_on_c, 0, 73, 0
2, 438480, Note_on_c, 0, 74, 98
2, 438480, Note_on_c, 0, 78, 98
2, 438660, Note_on_c, 0, 59, 0
2, 438797, Note_on_c, 0, 78, 0
2, 438797, Note_on_c, 0, 74, 0
2, 439200, Note_on_c, 0, 76, 70
2, 439200, Note_on_c, 0, 72, 69
2, 439289, Note_on_c, 0, 72, 0
2, 439289, Note_on_c, 0, 76, 0
2, 439380, Note_on_c, 0, 76, 75
2, 439380, Note_on_c, 0, 72, 76
2, 439469, Note_on_c, 0, 72, 0
2, 439469, Note_on_c, 0, 76, 0
2, 439560, Note_on_c, 0, 78, 80
2, 439560, Note_on_c, 0, 74, 89
2, 439649, Note_on_c, 0, 74, 0
2, 439649, Note_on_c, 0, 78, 0
2, 439740, Note_on_c, 0, 76, 74
2, 439740, Note_on_c, 0, 72, 75
2, 439829, Note_on_c, 0, 72, 0
2, 439829, Note_on_c, 0, 76, 0
2, 439920, Note_on_c, 0, 75, 78
2, 439920, Note_on_c, 0, 72, 78
2, 440009, Note_on_c, 0, 72, 0
2, 440100, Note_on_c, 0, 75, 0
2, 440100, Note_on_c, 0, 74, 85
2, 440190, Note_on_c, 0, 74, 0
2, 440190, Note_on_c, 0, 75, 88
2, 440280, Note_on_c, 0, 75, 0
2, 440280, Note_on_c, 0, 75, 91
2, 440370, Note_on_c, 0, 75, 0
2, 440370, Note_on_c, 0, 81, 94
2, 440460, Note_on_c, 0, 81, 0
2, 440460, Note_on_c, 0, 83, 97
2, 440550, Note_on_c, 0, 83, 0
2, 440550, Note_on_c, 0, 84, 101
2, 440640, Note_on_c, 0, 84, 0
2, 440640, Note_on_c, 0, 84, 104
2, 440729, Note_on_c, 0, 84, 0
2, 440820, Note_on_c, 0, 83, 91
2, 440909, Note_on_c, 0, 83, 0
2, 441000, Note_on_c, 0, 76, 82
2, 441317, Note_on_c, 0, 76, 0
2, 441360, Note_on_c, 0, 83, 78
2, 441449, Note_on_c, 0, 83, 0
2, 441540, Note_on_c, 0, 81, 66
2, 441629, Note_on_c, 0, 81, 0
2, 441720, Note_on_c, 0, 72, 86
2, 442037, Note_on_c, 0, 72, 0
2, 442080, Note_on_c, 0, 74, 50
2, 442080, Note_on_c, 0, 71, 71
2, 442169, Note_on_c, 0, 71, 0
2, 442169, Note_on_c, 0, 74, 0
2, 442260, Note_on_c, 0, 74, 55
2, 442260, Note_on_c, 0, 71, 80
2, 442349, Note_on_c, 0, 71, 0
2, 442349, Note_on_c, 0, 74, 0
2, 442440, Note_on_c, 0, 76, 55
2, 442440, Note_on_c, 0, 72, 77
2, 442529, Note_on_c, 0, 72, 0
2, 442529, Note_on_c, 0, 76, 0
2, 442620, Note_on_c, 0, 74, 44
2, 442620, Note_on_c, 0, 71, 74
2, 442709, Note_on_c, 0, 71, 0
2, 442709, Note_on_c, 0, 74, 0
2, 442800, Note_on_c, 0, 72, 53
2, 442800, Note_on_c, 0, 69, 72
2, 442889, Note_on_c, 0, 69, 0
2, 442980, Note_on_c, 0, 72, 0
2, 442980, Note_on_c, 0, 71, 59
2, 443070, Note_on_c, 0, 71, 0
2, 443070, Note_on_c, 0, 72, 62
2, 443160, Note_on_c, 0, 72, 0
2, 443160, Note_on_c, 0, 72, 66
2, 443250, Note_on_c, 0, 72, 0
2, 443250, Note_on_c, 0, 78, 69
2, 443340, Note_on_c, 0, 78, 0
2, 443340, Note_on_c, 0, 79, 72
2, 443430, Note_on_c, 0, 79, 0
2, 443430, Note_on_c, 0, 81, 75
2, 443520, Note_on_c, 0, 81, 0
2, 443520, Note_on_c, 0, 81, 78
2, 443609, Note_on_c, 0, 81, 0
2, 443700, Note_on_c, 0, 79, 66
2, 443789, Note_on_c, 0, 79, 0
2, 443880, Note_on_c, 0, 71, 82
2, 444197, Note_on_c, 0, 71, 0
2, 444240, Note_on_c, 0, 72, 53
2, 444329, Note_on_c, 0, 72, 0
2, 444420, Note_on_c, 0, 71, 40
2, 444509, Note_on_c, 0, 71, 0
2, 444600, Note_on_c, 0, 67, 85
2, 444917, Note_on_c, 0, 67, 0
2, 444960, Note_on_c, 0, 71, 25
2, 444960, Note_on_c, 0, 67, 80
2, 445049, Note_on_c, 0, 67, 0
2, 445049, Note_on_c, 0, 71, 0
2, 445140, Note_on_c, 0, 71, 25
2, 445140, Note_on_c, 0, 67, 78
2, 445229, Note_on_c, 0, 67, 0
2, 445229, Note_on_c, 0, 71, 0
2, 445320, Note_on_c, 0, 72, 28
2, 445320, Note_on_c, 0, 69, 83
2, 445409, Note_on_c, 0, 69, 0
2, 445409, Note_on_c, 0, 72, 0
2, 445500, Note_on_c, 0, 71, 20
2, 445500, Note_on_c, 0, 67, 75
2, 445589, Note_on_c, 0, 67, 0
2, 445589, Note_on_c, 0, 71, 0
2, 445680, Note_on_c, 0, 70, 28
2, 445680, Note_on_c, 0, 66, 70
2, 445769, Note_on_c, 0, 66, 0
2, 445860, Note_on_c, 0, 70, 0
2, 445860, Note_on_c, 0, 69, 34
2, 445950, Note_on_c, 0, 69, 0
2, 445950, Note_on_c, 0, 70, 37
2, 446040, Note_on_c, 0, 70, 0
2, 446040, Note_on_c, 0, 70, 40
2, 446130, Note_on_c, 0, 70, 0
2, 446130, Note_on_c, 0, 76, 43
2, 446220, Note_on_c, 0, 76, 0
2, 446220, Note_on_c, 0, 78, 47
2, 446310, Note_on_c, 0, 78, 0
2, 446310, Note_on_c, 0, 79, 50
2, 446400, Note_on_c, 0, 79, 0
2, 446400, Note_on_c, 0, 79, 78
2, 446489, Note_on_c, 0, 79, 0
2, 446580, Note_on_c, 0, 78, 66
2, 446669, Note_on_c, 0, 78, 0
2, 446760, Note_on_c, 0, 71, 83
2, 447077, Note_on_c, 0, 71, 0
2, 447120, Note_on_c, 0, 78, 53
2, 447209, Note_on_c, 0, 78, 0
2, 447300, Note_on_c, 0, 76, 40
2, 447389, Note_on_c, 0, 76, 0
2, 447480, Note_on_c, 0, 67, 79
2, 447797, Note_on_c, 0, 67, 0
2, 447840, Note_on_c, 0, 69, 70
2, 447840, Note_on_c, 0, 66, 70
2, 447929, Note_on_c, 0, 66, 0
2, 447929, Note_on_c, 0, 69, 0
2, 448020, Note_on_c, 0, 69, 80
2, 448020, Note_on_c, 0, 66, 82
2, 448109, Note_on_c, 0, 66, 0
2, 448109, Note_on_c, 0, 69, 0
2, 448200, Note_on_c, 0, 71, 81
2, 448200, Note_on_c, 0, 67, 84
2, 448289, Note_on_c, 0, 67, 0
2, 448289, Note_on_c, 0, 71, 0
2, 448380, Note_on_c, 0, 69, 67
2, 448380, Note_on_c, 0, 66, 74
2, 448469, Note_on_c, 0, 66, 0
2, 448469, Note_on_c, 0, 69, 0
2, 448560, Note_on_c, 0, 67, 78
2, 448560, Note_on_c, 0, 64, 71
2, 448649, Note_on_c, 0, 64, 0
2, 448740, Note_on_c, 0, 67, 0
2, 448740, Note_on_c, 0, 66, 85
2, 448830, Note_on_c, 0, 66, 0
2, 448830, Note_on_c, 0, 67, 88
2, 448920, Note_on_c, 0, 67, 0
2, 448920, Note_on_c, 0, 67, 91
2, 449010, Note_on_c, 0, 67, 0
2, 449010, Note_on_c, 0, 73, 94
2, 449100, Note_on_c, 0, 73, 0
2, 449100, Note_on_c, 0, 74, 97
2, 449190, Note_on_c, 0, 74, 0
2, 449190, Note_on_c, 0, 76, 101
2, 449280, Note_on_c, 0, 76, 0
2, 449280, Note_on_c, 0, 76, 104
2, 449369, Note_on_c, 0, 76, 0
2, 449460, Note_on_c, 0, 74, 91
2, 449549, Note_on_c, 0, 74, 0
2, 449640, Note_on_c, 0, 66, 81
2, 449957, Note_on_c, 0, 66, 0
2, 450000, Note_on_c, 0, 67, 82
2, 450089, Note_on_c, 0, 67, 0
2, 450180, Note_on_c, 0, 66, 72
2, 450269, Note_on_c, 0, 66, 0
2, 450720, Note_on_c, 0, 79, 74
2, 450720, Note_on_c, 0, 83, 74
2, 450720, Note_on_c, 0, 71, 95
2, 450809, Note_on_c, 0, 83, 0
2, 450809, Note_on_c, 0, 79, 0
2, 450900, Note_on_c, 0, 83, 76
2, 450990, Note_on_c, 0, 83, 0
2, 450990, Note_on_c, 0, 79, 69
2, 451080, Note_on_c, 0, 79, 0
2, 451080, Note_on_c, 0, 81, 85
2, 451080, Note_on_c, 0, 84, 85
2, 451169, Note_on_c, 0, 84, 0
2, 451169, Note_on_c, 0, 81, 0
2, 451260, Note_on_c, 0, 79, 73
2, 451260, Note_on_c, 0, 83, 73
2, 451349, Note_on_c, 0, 83, 0
2, 451349, Note_on_c, 0, 79, 0
2, 451353, Note_on_c, 0, 71, 0
2, 451440, Note_on_c, 0, 78, 75
2, 451440, Note_on_c, 0, 81, 75
2, 451440, Note_on_c, 0, 69, 97
2, 451529, Note_on_c, 0, 81, 0
2, 451529, Note_on_c, 0, 78, 0
2, 451620, Note_on_c, 0, 78, 79
2, 451620, Note_on_c, 0, 81, 79
2, 451709, Note_on_c, 0, 81, 0
2, 451709, Note_on_c, 0, 78, 0
2, 451800, Note_on_c, 0, 79, 99
2, 451800, Note_on_c, 0, 83, 99
2, 452073, Note_on_c, 0, 69, 0
2, 452117, Note_on_c, 0, 83, 0
2, 452117, Note_on_c, 0, 79, 0
2, 452160, Note_on_c, 0, 76, 71
2, 452160, Note_on_c, 0, 79, 71
2, 452160, Note_on_c, 0, 64, 79
2, 452249, Note_on_c, 0, 64, 0
2, 452294, Note_on_c, 0, 79, 0
2, 452294, Note_on_c, 0, 76, 0
2, 452430, Note_on_c, 0, 76, 80
2, 452430, Note_on_c, 0, 79, 80
2, 452474, Note_on_c, 0, 79, 0
2, 452474, Note_on_c, 0, 76, 0
2, 452520, Note_on_c, 0, 76, 79
2, 452520, Note_on_c, 0, 79, 79
2, 452520, Note_on_c, 0, 64, 84
2, 452609, Note_on_c, 0, 79, 0
2, 452609, Note_on_c, 0, 76, 0
2, 452700, Note_on_c, 0, 78, 83
2, 452700, Note_on_c, 0, 81, 83
2, 452789, Note_on_c, 0, 81, 0
2, 452789, Note_on_c, 0, 78, 0
2, 452880, Note_on_c, 0, 79, 96
2, 452880, Note_on_c, 0, 83, 96
2, 453197, Note_on_c, 0, 83, 0
2, 453197, Note_on_c, 0, 79, 0
2, 453240, Note_on_c, 0, 64, 0
2, 453240, Note_on_c, 0, 69, 103
2, 453600, Note_on_c, 0, 69, 0
2, 453600, Note_on_c, 0, 79, 72
2, 453600, Note_on_c, 0, 83, 72
2, 453600, Note_on_c, 0, 71, 103
2, 453689, Note_on_c, 0, 83, 0
2, 453689, Note_on_c, 0, 79, 0
2, 453780, Note_on_c, 0, 83, 74
2, 453870, Note_on_c, 0, 83, 0
2, 453870, Note_on_c, 0, 79, 64
2, 453960, Note_on_c, 0, 79, 0
2, 453960, Note_on_c, 0, 71, 0
2, 453960, Note_on_c, 0, 81, 90
2, 453960, Note_on_c, 0, 84, 90
2, 453960, Note_on_c, 0, 67, 84
2, 454049, Note_on_c, 0, 84, 0
2, 454049, Note_on_c, 0, 81, 0
2, 454140, Note_on_c, 0, 79, 79
2, 454140, Note_on_c, 0, 83, 79
2, 454229, Note_on_c, 0, 83, 0
2, 454229, Note_on_c, 0, 79, 0
2, 454320, Note_on_c, 0, 67, 0
2, 454320, Note_on_c, 0, 78, 78
2, 454320, Note_on_c, 0, 81, 78
2, 454320, Note_on_c, 0, 69, 96
2, 454409, Note_on_c, 0, 81, 0
2, 454409, Note_on_c, 0, 78, 0
2, 454500, Note_on_c, 0, 78, 78
2, 454500, Note_on_c, 0, 81, 78
2, 454589, Note_on_c, 0, 81, 0
2, 454589, Note_on_c, 0, 78, 0
2, 454680, Note_on_c, 0, 79, 95
2, 454680, Note_on_c, 0, 83, 95
2, 454860, Note_on_c, 0, 69, 0
2, 454860, Note_on_c, 0, 66, 84
2, 454997, Note_on_c, 0, 83, 0
2, 454997, Note_on_c, 0, 79, 0
2, 455040, Note_on_c, 0, 66, 0
2, 455040, Note_on_c, 0, 76, 78
2, 455040, Note_on_c, 0, 79, 78
2, 455040, Note_on_c, 0, 64, 88
2, 455220, Note_on_c, 0, 79, 0
2, 455220, Note_on_c, 0, 76, 0
2, 455220, Note_on_c, 0, 79, 91
2, 455310, Note_on_c, 0, 79, 0
2, 455310, Note_on_c, 0, 76, 97
2, 455400, Note_on_c, 0, 76, 0
2, 455400, Note_on_c, 0, 69, 118
2, 455400, Note_on_c, 0, 81, 118
2, 455717, Note_on_c, 0, 81, 0
2, 455717, Note_on_c, 0, 69, 0
2, 455760, Note_on_c, 0, 64, 0
2, 455760, Note_on_c, 0, 77, 74
2, 455760, Note_on_c, 0, 81, 74
2, 455760, Note_on_c, 0, 69, 116
2, 455849, Note_on_c, 0, 81, 0
2, 455849, Note_on_c, 0, 77, 0
2, 455940, Note_on_c, 0, 81, 82
2, 456030, Note_on_c, 0, 81, 0
2, 456030, Note_on_c, 0, 77, 69
2, 456120, Note_on_c, 0, 77, 0
2, 456120, Note_on_c, 0, 79, 86
2, 456120, Note_on_c, 0, 82, 86
2, 456209, Note_on_c, 0, 82, 0
2, 456209, Note_on_c, 0, 79, 0
2, 456300, Note_on_c, 0, 77, 77
2, 456300, Note_on_c, 0, 81, 77
2, 456389, Note_on_c, 0, 81, 0
2, 456389, Note_on_c, 0, 77, 0
2, 456393, Note_on_c, 0, 69, 0
2, 456480, Note_on_c, 0, 76, 72
2, 456480, Note_on_c, 0, 79, 72
2, 456480, Note_on_c, 0, 67, 96
2, 456569, Note_on_c, 0, 79, 0
2, 456569, Note_on_c, 0, 76, 0
2, 456660, Note_on_c, 0, 76, 82
2, 456660, Note_on_c, 0, 79, 82
2, 456749, Note_on_c, 0, 79, 0
2, 456749, Note_on_c, 0, 76, 0
2, 456840, Note_on_c, 0, 77, 95
2, 456840, Note_on_c, 0, 81, 95
2, 457113, Note_on_c, 0, 67, 0
2, 457157, Note_on_c, 0, 81, 0
2, 457157, Note_on_c, 0, 77, 0
2, 457200, Note_on_c, 0, 74, 70
2, 457200, Note_on_c, 0, 77, 70
2, 457200, Note_on_c, 0, 62, 80
2, 457289, Note_on_c, 0, 62, 0
2, 457289, Note_on_c, 0, 77, 0
2, 457289, Note_on_c, 0, 74, 0
2, 457380, Note_on_c, 0, 77, 76
2, 457470, Note_on_c, 0, 77, 0
2, 457470, Note_on_c, 0, 74, 71
2, 457514, Note_on_c, 0, 74, 0
2, 457560, Note_on_c, 0, 74, 84
2, 457560, Note_on_c, 0, 77, 84
2, 457560, Note_on_c, 0, 62, 94
2, 457649, Note_on_c, 0, 77, 0
2, 457649, Note_on_c, 0, 74, 0
2, 457740, Note_on_c, 0, 76, 84
2, 457740, Note_on_c, 0, 79, 84
2, 457829, Note_on_c, 0, 79, 0
2, 457829, Note_on_c, 0, 76, 0
2, 457920, Note_on_c, 0, 77, 97
2, 457920, Note_on_c, 0, 81, 97
2, 458193, Note_on_c, 0, 62, 0
2, 458237, Note_on_c, 0, 81, 0
2, 458237, Note_on_c, 0, 77, 0
2, 458280, Note_on_c, 0, 67, 106
2, 458640, Note_on_c, 0, 67, 0
2, 458640, Note_on_c, 0, 77, 72
2, 458640, Note_on_c, 0, 81, 72
2, 458640, Note_on_c, 0, 69, 99
2, 458729, Note_on_c, 0, 81, 0
2, 458729, Note_on_c, 0, 77, 0
2, 458820, Note_on_c, 0, 81, 73
2, 458910, Note_on_c, 0, 81, 0
2, 458910, Note_on_c, 0, 77, 66
2, 459000, Note_on_c, 0, 77, 0
2, 459000, Note_on_c, 0, 69, 0
2, 459000, Note_on_c, 0, 79, 87
2, 459000, Note_on_c, 0, 82, 87
2, 459000, Note_on_c, 0, 65, 87
2, 459089, Note_on_c, 0, 82, 0
2, 459089, Note_on_c, 0, 79, 0
2, 459180, Note_on_c, 0, 77, 76
2, 459180, Note_on_c, 0, 81, 76
2, 459269, Note_on_c, 0, 81, 0
2, 459269, Note_on_c, 0, 77, 0
2, 459360, Note_on_c, 0, 65, 0
2, 459360, Note_on_c, 0, 76, 74
2, 459360, Note_on_c, 0, 79, 74
2, 459360, Note_on_c, 0, 67, 94
2, 459449, Note_on_c, 0, 79, 0
2, 459449, Note_on_c, 0, 76, 0
2, 459540, Note_on_c, 0, 76, 75
2, 459540, Note_on_c, 0, 79, 75
2, 459629, Note_on_c, 0, 79, 0
2, 459629, Note_on_c, 0, 76, 0
2, 459720, Note_on_c, 0, 77, 96
2, 459720, Note_on_c, 0, 81, 96
2, 459900, Note_on_c, 0, 67, 0
2, 459900, Note_on_c, 0, 64, 85
2, 460037, Note_on_c, 0, 81, 0
2, 460037, Note_on_c, 0, 77, 0
2, 460080, Note_on_c, 0, 64, 0
2, 460080, Note_on_c, 0, 74, 78
2, 460080, Note_on_c, 0, 77, 78
2, 460080, Note_on_c, 0, 62, 86
2, 460260, Note_on_c, 0, 77, 0
2, 460260, Note_on_c, 0, 74, 0
2, 460260, Note_on_c, 0, 77, 91
2, 460350, Note_on_c, 0, 77, 0
2, 460350, Note_on_c, 0, 74, 97
2, 460440, Note_on_c, 0, 74, 0
2, 460440, Note_on_c, 0, 67, 119
2, 460440, Note_on_c, 0, 79, 119
2, 460757, Note_on_c, 0, 79, 0
2, 460757, Note_on_c, 0, 67, 0
2, 460800, Note_on_c, 0, 62, 0
2, 460800, Note_on_c, 0, 75, 78
2, 460800, Note_on_c, 0, 79, 78
2, 460800, Note_on_c, 0, 67, 104
2, 460889, Note_on_c, 0, 79, 0
2, 460889, Note_on_c, 0, 75, 0
2, 460980, Note_on_c, 0, 79, 79
2, 461070, Note_on_c, 0, 79, 0
2, 461070, Note_on_c, 0, 75, 71
2, 461160, Note_on_c, 0, 75, 0
2, 461160, Note_on_c, 0, 77, 86
2, 461160, Note_on_c, 0, 80, 86
2, 461249, Note_on_c, 0, 80, 0
2, 461249, Note_on_c, 0, 77, 0
2, 461340, Note_on_c, 0, 75, 74
2, 461340, Note_on_c, 0, 79, 74
2, 461429, Note_on_c, 0, 79, 0
2, 461429, Note_on_c, 0, 75, 0
2, 461433, Note_on_c, 0, 67, 0
2, 461520, Note_on_c, 0, 74, 72
2, 461520, Note_on_c, 0, 77, 72
2, 461520, Note_on_c, 0, 65, 87
2, 461609, Note_on_c, 0, 77, 0
2, 461609, Note_on_c, 0, 74, 0
2, 461700, Note_on_c, 0, 74, 78
2, 461700, Note_on_c, 0, 77, 78
2, 461789, Note_on_c, 0, 77, 0
2, 461789, Note_on_c, 0, 74, 0
2, 461880, Note_on_c, 0, 75, 98
2, 461880, Note_on_c, 0, 79, 98
2, 462153, Note_on_c, 0, 65, 0
2, 462197, Note_on_c, 0, 79, 0
2, 462197, Note_on_c, 0, 75, 0
2, 462240, Note_on_c, 0, 72, 71
2, 462240, Note_on_c, 0, 75, 71
2, 462240, Note_on_c, 0, 60, 67
2, 462329, Note_on_c, 0, 60, 0
2, 462374, Note_on_c, 0, 75, 0
2, 462374, Note_on_c, 0, 72, 0
2, 462510, Note_on_c, 0, 72, 76
2, 462510, Note_on_c, 0, 75, 76
2, 462554, Note_on_c, 0, 75, 0
2, 462554, Note_on_c, 0, 72, 0
2, 462600, Note_on_c, 0, 72, 79
2, 462600, Note_on_c, 0, 75, 79
2, 462600, Note_on_c, 0, 60, 83
2, 462689, Note_on_c, 0, 75, 0
2, 462689, Note_on_c, 0, 72, 0
2, 462780, Note_on_c, 0, 74, 87
2, 462780, Note_on_c, 0, 77, 87
2, 462869, Note_on_c, 0, 77, 0
2, 462869, Note_on_c, 0, 74, 0
2, 462960, Note_on_c, 0, 75, 98
2, 462960, Note_on_c, 0, 79, 98
2, 463233, Note_on_c, 0, 60, 0
2, 463277, Note_on_c, 0, 79, 0
2, 463277, Note_on_c, 0, 75, 0
2, 463320, Note_on_c, 0, 62, 78
2, 463680, Note_on_c, 0, 62, 0
2, 463680, Note_on_c, 0, 75, 81
2, 463680, Note_on_c, 0, 79, 81
2, 463680, Note_on_c, 0, 63, 107
2, 463769, Note_on_c, 0, 79, 0
2, 463769, Note_on_c, 0, 75, 0
2, 463860, Note_on_c, 0, 75, 94
2, 463860, Note_on_c, 0, 79, 94
2, 463949, Note_on_c, 0, 79, 0
2, 463949, Note_on_c, 0, 75, 0
2, 463997, Note_on_c, 0, 63, 0
2, 464040, Note_on_c, 0, 77, 97
2, 464040, Note_on_c, 0, 80, 97
2, 464040, Note_on_c, 0, 60, 97
2, 464129, Note_on_c, 0, 80, 0
2, 464129, Note_on_c, 0, 77, 0
2, 464220, Note_on_c, 0, 75, 90
2, 464220, Note_on_c, 0, 79, 90
2, 464309, Note_on_c, 0, 79, 0
2, 464309, Note_on_c, 0, 75, 0
2, 464357, Note_on_c, 0, 60, 0
2, 464400, Note_on_c, 0, 74, 83
2, 464400, Note_on_c, 0, 77, 83
2, 464400, Note_on_c, 0, 62, 103
2, 464489, Note_on_c, 0, 77, 0
2, 464489, Note_on_c, 0, 74, 0
2, 464580, Note_on_c, 0, 74, 90
2, 464580, Note_on_c, 0, 77, 90
2, 464669, Note_on_c, 0, 77, 0
2, 464669, Note_on_c, 0, 74, 0
2, 464760, Note_on_c, 0, 75, 114
2, 464760, Note_on_c, 0, 79, 114
2, 464940, Note_on_c, 0, 62, 0
2, 464940, Note_on_c, 0, 59, 91
2, 465077, Note_on_c, 0, 79, 0
2, 465077, Note_on_c, 0, 75, 0
2, 465120, Note_on_c, 0, 59, 0
2, 465120, Note_on_c, 0, 67, 67
2, 465120, Note_on_c, 0, 63, 117
2, 465209, Note_on_c, 0, 67, 0
2, 465300, Note_on_c, 0, 67, 93
2, 465389, Note_on_c, 0, 67, 0
2, 465437, Note_on_c, 0, 63, 0
2, 465480, Note_on_c, 0, 65, 100
2, 465480, Note_on_c, 0, 68, 100
2, 465480, Note_on_c, 0, 60, 96
2, 465569, Note_on_c, 0, 68, 0
2, 465569, Note_on_c, 0, 65, 0
2, 465660, Note_on_c, 0, 63, 90
2, 465660, Note_on_c, 0, 67, 90
2, 465749, Note_on_c, 0, 67, 0
2, 465749, Note_on_c, 0, 63, 0
2, 465797, Note_on_c, 0, 60, 0
2, 465840, Note_on_c, 0, 65, 90
2, 465840, Note_on_c, 0, 62, 99
2, 465929, Note_on_c, 0, 65, 0
2, 466020, Note_on_c, 0, 65, 92
2, 466109, Note_on_c, 0, 65, 0
2, 466200, Note_on_c, 0, 63, 109
2, 466200, Note_on_c, 0, 67, 109
2, 466380, Note_on_c, 0, 62, 0
2, 466380, Note_on_c, 0, 59, 86
2, 466517, Note_on_c, 0, 67, 0
2, 466517, Note_on_c, 0, 63, 0
2, 466560, Note_on_c, 0, 59, 0
2, 466560, Note_on_c, 0, 76, 118
2, 466560, Note_on_c, 0, 79, 118
2, 466560, Note_on_c, 0, 64, 115
2, 466649, Note_on_c, 0, 79, 0
2, 466649, Note_on_c, 0, 76, 0
2, 466740, Note_on_c, 0, 76, 97
2, 466740, Note_on_c, 0, 79, 97
2, 466829, Note_on_c, 0, 79, 0
2, 466829, Note_on_c, 0, 76, 0
2, 466877, Note_on_c, 0, 64, 0
2, 466920, Note_on_c, 0, 77, 99
2, 466920, Note_on_c, 0, 81, 99
2, 466920, Note_on_c, 0, 60, 99
2, 467009, Note_on_c, 0, 81, 0
2, 467009, Note_on_c, 0, 77, 0
2, 467100, Note_on_c, 0, 76, 87
2, 467100, Note_on_c, 0, 79, 87
2, 467189, Note_on_c, 0, 79, 0
2, 467189, Note_on_c, 0, 76, 0
2, 467237, Note_on_c, 0, 60, 0
2, 467280, Note_on_c, 0, 74, 87
2, 467280, Note_on_c, 0, 77, 87
2, 467280, Note_on_c, 0, 62, 95
2, 467369, Note_on_c, 0, 77, 0
2, 467369, Note_on_c, 0, 74, 0
2, 467460, Note_on_c, 0, 74, 92
2, 467460, Note_on_c, 0, 77, 92
2, 467549, Note_on_c, 0, 77, 0
2, 467549, Note_on_c, 0, 74, 0
2, 467640, Note_on_c, 0, 76, 114
2, 467640, Note_on_c, 0, 79, 114
2, 467820, Note_on_c, 0, 62, 0
2, 467820, Note_on_c, 0, 59, 93
2, 467957, Note_on_c, 0, 79, 0
2, 467957, Note_on_c, 0, 76, 0
2, 468000, Note_on_c, 0, 59, 0
2, 468000, Note_on_c, 0, 67, 64
2, 468000, Note_on_c, 0, 64, 119
2, 468089, Note_on_c, 0, 67, 0
2, 468180, Note_on_c, 0, 67, 88
2, 468269, Note_on_c, 0, 67, 0
2, 468317, Note_on_c, 0, 64, 0
2, 468360, Note_on_c, 0, 65, 103
2, 468360, Note_on_c, 0, 69, 103
2, 468360, Note_on_c, 0, 60, 96
2, 468449, Note_on_c, 0, 69, 0
2, 468449, Note_on_c, 0, 65, 0
2, 468540, Note_on_c, 0, 64, 86
2, 468540, Note_on_c, 0, 67, 86
2, 468629, Note_on_c, 0, 67, 0
2, 468629, Note_on_c, 0, 64, 0
2, 468677, Note_on_c, 0, 60, 0
2, 468720, Note_on_c, 0, 65, 88
2, 468720, Note_on_c, 0, 62, 100
2, 468809, Note_on_c, 0, 65, 0
2, 468900, Note_on_c, 0, 65, 90
2, 468989, Note_on_c, 0, 65, 0
2, 469080, Note_on_c, 0, 64, 107
2, 469080, Note_on_c, 0, 67, 107
2, 469260, Note_on_c, 0, 62, 0
2, 469260, Note_on_c, 0, 59, 90
2, 469397, Note_on_c, 0, 67, 0
2, 469397, Note_on_c, 0, 64, 0
2, 469440, Note_on_c, 0, 59, 0
2, 469440, Note_on_c, 0, 67, 94
2, 469530, Note_on_c, 0, 67, 0
2, 469530, Note_on_c, 0, 66, 89
2, 469620, Note_on_c, 0, 66, 0
2, 469620, Note_on_c, 0, 64, 88
2, 469710, Note_on_c, 0, 64, 0
2, 469710, Note_on_c, 0, 67, 100
2, 469800, Note_on_c, 0, 67, 0
2, 469800, Note_on_c, 0, 66, 92
2, 469890, Note_on_c, 0, 66, 0
2, 469890, Note_on_c, 0, 64, 88
2, 469980, Note_on_c, 0, 64, 0
2, 469980, Note_on_c, 0, 63, 91
2, 470070, Note_on_c, 0, 63, 0
2, 470070, Note_on_c, 0, 66, 102
2, 470160, Note_on_c, 0, 66, 0
2, 470160, Note_on_c, 0, 64, 82
2, 470250, Note_on_c, 0, 64, 0
2, 470250, Note_on_c, 0, 66, 96
2, 470340, Note_on_c, 0, 66, 0
2, 470340, Note_on_c, 0, 64, 89
2, 470430, Note_on_c, 0, 64, 0
2, 470430, Note_on_c, 0, 66, 99
2, 470520, Note_on_c, 0, 66, 0
2, 470520, Note_on_c, 0, 64, 90
2, 470610, Note_on_c, 0, 64, 0
2, 470610, Note_on_c, 0, 66, 97
2, 470700, Note_on_c, 0, 66, 0
2, 470700, Note_on_c, 0, 64, 87
2, 470790, Note_on_c, 0, 64, 0
2, 470790, Note_on_c, 0, 66, 96
2, 470880, Note_on_c, 0, 66, 0
2, 470880, Note_on_c, 0, 67, 85
2, 470970, Note_on_c, 0, 67, 0
2, 470970, Note_on_c, 0, 66, 85
2, 471060, Note_on_c, 0, 66, 0
2, 471060, Note_on_c, 0, 64, 89
2, 471150, Note_on_c, 0, 64, 0
2, 471150, Note_on_c, 0, 67, 99
2, 471240, Note_on_c, 0, 67, 0
2, 471240, Note_on_c, 0, 66, 85
2, 471330, Note_on_c, 0, 66, 0
2, 471330, Note_on_c, 0, 64, 82
2, 471420, Note_on_c, 0, 64, 0
2, 471420, Note_on_c, 0, 63, 91
2, 471510, Note_on_c, 0, 63, 0
2, 471510, Note_on_c, 0, 66, 102
2, 471600, Note_on_c, 0, 66, 0
2, 471600, Note_on_c, 0, 64, 78
2, 471690, Note_on_c, 0, 64, 0
2, 471690, Note_on_c, 0, 66, 97
2, 471780, Note_on_c, 0, 66, 0
2, 471780, Note_on_c, 0, 64, 89
2, 471870, Note_on_c, 0, 64, 0
2, 471870, Note_on_c, 0, 66, 99
2, 471960, Note_on_c, 0, 66, 0
2, 471960, Note_on_c, 0, 64, 88
2, 472050, Note_on_c, 0, 64, 0
2, 472050, Note_on_c, 0, 66, 99
2, 472140, Note_on_c, 0, 66, 0
2, 472140, Note_on_c, 0, 64, 91
2, 472230, Note_on_c, 0, 64, 0
2, 472230, Note_on_c, 0, 66, 97
2, 472320, Note_on_c, 0, 66, 0
2, 472320, Note_on_c, 0, 67, 80
2, 472410, Note_on_c, 0, 67, 0
2, 472410, Note_on_c, 0, 66, 84
2, 472500, Note_on_c, 0, 66, 0
2, 472500, Note_on_c, 0, 64, 91
2, 472590, Note_on_c, 0, 64, 0
2, 472590, Note_on_c, 0, 67, 101
2, 472680, Note_on_c, 0, 67, 0
2, 472680, Note_on_c, 0, 64, 84
2, 472770, Note_on_c, 0, 64, 0
2, 472770, Note_on_c, 0, 66, 96
2, 472860, Note_on_c, 0, 66, 0
2, 472860, Note_on_c, 0, 64, 88
2, 472950, Note_on_c, 0, 64, 0
2, 472950, Note_on_c, 0, 66, 96
2, 473040, Note_on_c, 0, 66, 0
2, 473040, Note_on_c, 0, 67, 81
2, 473130, Note_on_c, 0, 67, 0
2, 473130, Note_on_c, 0, 66, 89
2, 473220, Note_on_c, 0, 66, 0
2, 473220, Note_on_c, 0, 64, 84
2, 473310, Note_on_c, 0, 64, 0
2, 473310, Note_on_c, 0, 67, 98
2, 473400, Note_on_c, 0, 67, 0
2, 473400, Note_on_c, 0, 64, 83
2, 473490, Note_on_c, 0, 64, 0
2, 473490, Note_on_c, 0, 66, 101
2, 473580, Note_on_c, 0, 66, 0
2, 473580, Note_on_c, 0, 64, 85
2, 473670, Note_on_c, 0, 64, 0
2, 473670, Note_on_c, 0, 66, 101
2, 473760, Note_on_c, 0, 66, 0
2, 473760, Note_on_c, 0, 67, 89
2, 473850, Note_on_c, 0, 67, 0
2, 473850, Note_on_c, 0, 66, 87
2, 473940, Note_on_c, 0, 66, 0
2, 473940, Note_on_c, 0, 64, 91
2, 474030, Note_on_c, 0, 64, 0
2, 474030, Note_on_c, 0, 67, 102
2, 474120, Note_on_c, 0, 67, 0
2, 474120, Note_on_c, 0, 64, 85
2, 474210, Note_on_c, 0, 64, 0
2, 474210, Note_on_c, 0, 66, 98
2, 474300, Note_on_c, 0, 66, 0
2, 474300, Note_on_c, 0, 64, 88
2, 474390, Note_on_c, 0, 64, 0
2, 474390, Note_on_c, 0, 66, 96
2, 474480, Note_on_c, 0, 66, 0
2, 474480, Note_on_c, 0, 67, 84
2, 474570, Note_on_c, 0, 67, 0
2, 474570, Note_on_c, 0, 66, 85
2, 474660, Note_on_c, 0, 66, 0
2, 474660, Note_on_c, 0, 64, 85
2, 474750, Note_on_c, 0, 64, 0
2, 474750, Note_on_c, 0, 67, 98
2, 474840, Note_on_c, 0, 67, 0
2, 474840, Note_on_c, 0, 64, 81
2, 474930, Note_on_c, 0, 64, 0
2, 474930, Note_on_c, 0, 66, 99
2, 475020, Note_on_c, 0, 66, 0
2, 475020, Note_on_c, 0, 64, 87
2, 475110, Note_on_c, 0, 64, 0
2, 475110, Note_on_c, 0, 66, 98
2, 475200, Note_on_c, 0, 66, 0
2, 475200, Note_on_c, 0, 67, 80
2, 475290, Note_on_c, 0, 67, 0
2, 475290, Note_on_c, 0, 66, 88
2, 475380, Note_on_c, 0, 66, 0
2, 475380, Note_on_c, 0, 64, 91
2, 475470, Note_on_c, 0, 64, 0
2, 475470, Note_on_c, 0, 67, 99
2, 475560, Note_on_c, 0, 67, 0
2, 475560, Note_on_c, 0, 66, 84
2, 475650, Note_on_c, 0, 66, 0
2, 475650, Note_on_c, 0, 64, 81
2, 475740, Note_on_c, 0, 64, 0
2, 475740, Note_on_c, 0, 63, 88
2, 475830, Note_on_c, 0, 63, 0
2, 475830, Note_on_c, 0, 66, 102
2, 475920, Note_on_c, 0, 66, 0
2, 475920, Note_on_c, 0, 64, 83
2, 476010, Note_on_c, 0, 64, 0
2, 476010, Note_on_c, 0, 63, 90
2, 476100, Note_on_c, 0, 63, 0
2, 476100, Note_on_c, 0, 64, 102
2, 476190, Note_on_c, 0, 64, 0
2, 476190, Note_on_c, 0, 63, 86
2, 476280, Note_on_c, 0, 63, 0
2, 476280, Note_on_c, 0, 64, 93
2, 476370, Note_on_c, 0, 64, 0
2, 476370, Note_on_c, 0, 63, 89
2, 476460, Note_on_c, 0, 63, 0
2, 476460, Note_on_c, 0, 64, 100
2, 476550, Note_on_c, 0, 64, 0
2, 476550, Note_on_c, 0, 66, 96
2, 476640, Note_on_c, 0, 66, 0
2, 476640, Note_on_c, 0, 67, 83
2, 476730, Note_on_c, 0, 67, 0
2, 476730, Note_on_c, 0, 66, 88
2, 476820, Note_on_c, 0, 66, 0
2, 476820, Note_on_c, 0, 64, 86
2, 476910, Note_on_c, 0, 64, 0
2, 476910, Note_on_c, 0, 67, 98
2, 477000, Note_on_c, 0, 67, 0
2, 477000, Note_on_c, 0, 66, 92
2, 477090, Note_on_c, 0, 66, 0
2, 477090, Note_on_c, 0, 64, 85
2, 477180, Note_on_c, 0, 64, 0
2, 477180, Note_on_c, 0, 63, 87
2, 477270, Note_on_c, 0, 63, 0
2, 477270, Note_on_c, 0, 66, 99
2, 477360, Note_on_c, 0, 66, 0
2, 477360, Note_on_c, 0, 64, 85
2, 477450, Note_on_c, 0, 64, 0
2, 477450, Note_on_c, 0, 63, 89
2, 477540, Note_on_c, 0, 63, 0
2, 477540, Note_on_c, 0, 64, 100
2, 477630, Note_on_c, 0, 64, 0
2, 477630, Note_on_c, 0, 66, 97
2, 477720, Note_on_c, 0, 66, 0
2, 477720, Note_on_c, 0, 67, 96
2, 477810, Note_on_c, 0, 67, 0
2, 477810, Note_on_c, 0, 66, 90
2, 477900, Note_on_c, 0, 66, 0
2, 477900, Note_on_c, 0, 67, 97
2, 477990, Note_on_c, 0, 67, 0
2, 477990, Note_on_c, 0, 69, 98
2, 478080, Note_on_c, 0, 69, 0
2, 478080, Note_on_c, 0, 70, 83
2, 478170, Note_on_c, 0, 70, 0
2, 478170, Note_on_c, 0, 69, 82
2, 478260, Note_on_c, 0, 69, 0
2, 478260, Note_on_c, 0, 67, 83
2, 478350, Note_on_c, 0, 67, 0
2, 478350, Note_on_c, 0, 70, 101
2, 478440, Note_on_c, 0, 70, 0
2, 478440, Note_on_c, 0, 69, 92
2, 478530, Note_on_c, 0, 69, 0
2, 478530, Note_on_c, 0, 67, 86
2, 478620, Note_on_c, 0, 67, 0
2, 478620, Note_on_c, 0, 66, 88
2, 478710, Note_on_c, 0, 66, 0
2, 478710, Note_on_c, 0, 69, 99
2, 478800, Note_on_c, 0, 69, 0
2, 478800, Note_on_c, 0, 67, 80
2, 478890, Note_on_c, 0, 67, 0
2, 478890, Note_on_c, 0, 66, 82
2, 478980, Note_on_c, 0, 66, 0
2, 478980, Note_on_c, 0, 67, 97
2, 479070, Note_on_c, 0, 67, 0
2, 479070, Note_on_c, 0, 66, 88
2, 479160, Note_on_c, 0, 66, 0
2, 479160, Note_on_c, 0, 67, 99
2, 479250, Note_on_c, 0, 67, 0
2, 479250, Note_on_c, 0, 66, 85
2, 479340, Note_on_c, 0, 66, 0
2, 479340, Note_on_c, 0, 67, 97
2, 479430, Note_on_c, 0, 67, 0
2, 479430, Note_on_c, 0, 69, 101
2, 479520, Note_on_c, 0, 69, 0
2, 479520, Note_on_c, 0, 70, 87
2, 479610, Note_on_c, 0, 70, 0
2, 479610, Note_on_c, 0, 69, 88
2, 479700, Note_on_c, 0, 69, 0
2, 479700, Note_on_c, 0, 67, 82
2, 479790, Note_on_c, 0, 67, 0
2, 479790, Note_on_c, 0, 70, 98
2, 479880, Note_on_c, 0, 70, 0
2, 479880, Note_on_c, 0, 69, 88
2, 479970, Note_on_c, 0, 69, 0
2, 479970, Note_on_c, 0, 67, 86
2, 480060, Note_on_c, 0, 67, 0
2, 480060, Note_on_c, 0, 66, 90
2, 480150, Note_on_c, 0, 66, 0
2, 480150, Note_on_c, 0, 69, 104
2, 480240, Note_on_c, 0, 69, 0
2, 480240, Note_on_c, 0, 67, 88
2, 480330, Note_on_c, 0, 67, 0
2, 480330, Note_on_c, 0, 66, 88
2, 480420, Note_on_c, 0, 66, 0
2, 480420, Note_on_c, 0, 67, 96
2, 480510, Note_on_c, 0, 67, 0
2, 480510, Note_on_c, 0, 69, 98
2, 480600, Note_on_c, 0, 69, 0
2, 480600, Note_on_c, 0, 70, 102
2, 480690, Note_on_c, 0, 70, 0
2, 480690, Note_on_c, 0, 69, 88
2, 480780, Note_on_c, 0, 69, 0
2, 480780, Note_on_c, 0, 70, 96
2, 480870, Note_on_c, 0, 70, 0
2, 480870, Note_on_c, 0, 72, 96
2, 480960, Note_on_c, 0, 72, 0
2, 480960, Note_on_c, 0, 73, 77
2, 481050, Note_on_c, 0, 73, 0
2, 481050, Note_on_c, 0, 72, 84
2, 481140, Note_on_c, 0, 72, 0
2, 481140, Note_on_c, 0, 70, 85
2, 481230, Note_on_c, 0, 70, 0
2, 481230, Note_on_c, 0, 73, 96
2, 481320, Note_on_c, 0, 73, 0
2, 481320, Note_on_c, 0, 72, 87
2, 481410, Note_on_c, 0, 72, 0
2, 481410, Note_on_c, 0, 70, 86
2, 481500, Note_on_c, 0, 70, 0
2, 481500, Note_on_c, 0, 69, 84
2, 481590, Note_on_c, 0, 69, 0
2, 481590, Note_on_c, 0, 72, 95
2, 481680, Note_on_c, 0, 72, 0
2, 481680, Note_on_c, 0, 70, 83
2, 481770, Note_on_c, 0, 70, 0
2, 481770, Note_on_c, 0, 69, 89
2, 481860, Note_on_c, 0, 69, 0
2, 481860, Note_on_c, 0, 70, 95
2, 481950, Note_on_c, 0, 70, 0
2, 481950, Note_on_c, 0, 72, 100
2, 482040, Note_on_c, 0, 72, 0
2, 482040, Note_on_c, 0, 73, 94
2, 482130, Note_on_c, 0, 73, 0
2, 482130, Note_on_c, 0, 72, 90
2, 482220, Note_on_c, 0, 72, 0
2, 482220, Note_on_c, 0, 73, 96
2, 482310, Note_on_c, 0, 73, 0
2, 482310, Note_on_c, 0, 75, 97
2, 482400, Note_on_c, 0, 75, 0
2, 482400, Note_on_c, 0, 76, 80
2, 482490, Note_on_c, 0, 76, 0
2, 482490, Note_on_c, 0, 75, 84
2, 482580, Note_on_c, 0, 75, 0
2, 482580, Note_on_c, 0, 73, 85
2, 482670, Note_on_c, 0, 73, 0
2, 482670, Note_on_c, 0, 76, 101
2, 482760, Note_on_c, 0, 76, 0
2, 482760, Note_on_c, 0, 75, 89
2, 482850, Note_on_c, 0, 75, 0
2, 482850, Note_on_c, 0, 73, 91
2, 482940, Note_on_c, 0, 73, 0
2, 482940, Note_on_c, 0, 72, 89
2, 483030, Note_on_c, 0, 72, 0
2, 483030, Note_on_c, 0, 75, 100
2, 483120, Note_on_c, 0, 75, 0
2, 483120, Note_on_c, 0, 73, 92
2, 483210, Note_on_c, 0, 73, 0
2, 483210, Note_on_c, 0, 72, 95
2, 483300, Note_on_c, 0, 72, 0
2, 483300, Note_on_c, 0, 73, 99
2, 483390, Note_on_c, 0, 73, 0
2, 483390, Note_on_c, 0, 75, 102
2, 483480, Note_on_c, 0, 75, 0
2, 483480, Note_on_c, 0, 76, 105
2, 483570, Note_on_c, 0, 76, 0
2, 483570, Note_on_c, 0, 75, 108
2, 483660, Note_on_c, 0, 75, 0
2, 483660, Note_on_c, 0, 76, 111
2, 483750, Note_on_c, 0, 76, 0
2, 483750, Note_on_c, 0, 78, 115
2, 483840, Note_on_c, 0, 78, 0
2, 483840, Note_on_c, 0, 79, 94
2, 483930, Note_on_c, 0, 79, 0
2, 483930, Note_on_c, 0, 78, 103
2, 484020, Note_on_c, 0, 78, 0
2, 484020, Note_on_c, 0, 76, 101
2, 484110, Note_on_c, 0, 76, 0
2, 484110, Note_on_c, 0, 79, 115
2, 484200, Note_on_c, 0, 79, 0
2, 484200, Note_on_c, 0, 78, 96
2, 484290, Note_on_c, 0, 78, 0
2, 484290, Note_on_c, 0, 76, 97
2, 484380, Note_on_c, 0, 76, 0
2, 484380, Note_on_c, 0, 75, 104
2, 484470, Note_on_c, 0, 75, 0
2, 484470, Note_on_c, 0, 78, 115
2, 484560, Note_on_c, 0, 78, 0
2, 484560, Note_on_c, 0, 79, 94
2, 484650, Note_on_c, 0, 79, 0
2, 484650, Note_on_c, 0, 78, 103
2, 484740, Note_on_c, 0, 78, 0
2, 484740, Note_on_c, 0, 76, 99
2, 484830, Note_on_c, 0, 76, 0
2, 484830, Note_on_c, 0, 79, 114
2, 484920, Note_on_c, 0, 79, 0
2, 484920, Note_on_c, 0, 78, 90
2, 485010, Note_on_c, 0, 78, 0
2, 485010, Note_on_c, 0, 76, 103
2, 485100, Note_on_c, 0, 76, 0
2, 485100, Note_on_c, 0, 75, 106
2, 485190, Note_on_c, 0, 75, 0
2, 485190, Note_on_c, 0, 78, 119
2, 485280, Note_on_c, 0, 78, 0
2, 485280, Note_on_c, 0, 79, 100
2, 485370, Note_on_c, 0, 79, 0
2, 485370, Note_on_c, 0, 78, 102
2, 485460, Note_on_c, 0, 78, 0
2, 485460, Note_on_c, 0, 76, 102
2, 485550, Note_on_c, 0, 76, 0
2, 485550, Note_on_c, 0, 79, 118
2, 485640, Note_on_c, 0, 79, 0
2, 485640, Note_on_c, 0, 78, 98
2, 485730, Note_on_c, 0, 78, 0
2, 485730, Note_on_c, 0, 76, 96
2, 485820, Note_on_c, 0, 76, 0
2, 485820, Note_on_c, 0, 75, 103
2, 485910, Note_on_c, 0, 75, 0
2, 485910, Note_on_c, 0, 78, 118
2, 486000, Note_on_c, 0, 78, 0
2, 486000, Note_on_c, 0, 79, 96
2, 486090, Note_on_c, 0, 79, 0
2, 486090, Note_on_c, 0, 78, 98
2, 486180, Note_on_c, 0, 78, 0
2, 486180, Note_on_c, 0, 76, 99
2, 486270, Note_on_c, 0, 76, 0
2, 486270, Note_on_c, 0, 79, 119
2, 486360, Note_on_c, 0, 79, 0
2, 486360, Note_on_c, 0, 78, 95
2, 486450, Note_on_c, 0, 78, 0
2, 486450, Note_on_c, 0, 76, 97
2, 486540, Note_on_c, 0, 76, 0
2, 486540, Note_on_c, 0, 78, 109
2, 486630, Note_on_c, 0, 78, 0
2, 486630, Note_on_c, 0, 78, 104
2, 486720, Note_on_c, 0, 78, 0
2, 486720, Note_on_c, 0, 79, 105
2, 486720, Note_on_c, 0, 67, 90
2, 486810, Note_on_c, 0, 67, 0
2, 486810, Note_on_c, 0, 79, 0
2, 486810, Note_on_c, 0, 78, 117
2, 486810, Note_on_c, 0, 66, 107
2, 486900, Note_on_c, 0, 66, 0
2, 486900, Note_on_c, 0, 78, 0
2, 486900, Note_on_c, 0, 76, 116
2, 486900, Note_on_c, 0, 64, 115
2, 486990, Note_on_c, 0, 64, 0
2, 486990, Note_on_c, 0, 76, 0
2, 486990, Note_on_c, 0, 79, 121
2, 486990, Note_on_c, 0, 67, 121
2, 487080, Note_on_c, 0, 67, 0
2, 487080, Note_on_c, 0, 79, 0
2, 487080, Note_on_c, 0, 78, 116
2, 487080, Note_on_c, 0, 66, 116
2, 487170, Note_on_c, 0, 66, 0
2, 487170, Note_on_c, 0, 78, 0
2, 487170, Note_on_c, 0, 76, 111
2, 487170, Note_on_c, 0, 64, 111
2, 487260, Note_on_c, 0, 64, 0
2, 487260, Note_on_c, 0, 76, 0
2, 487260, Note_on_c, 0, 75, 114
2, 487260, Note_on_c, 0, 63, 113
2, 487350, Note_on_c, 0, 63, 0
2, 487350, Note_on_c, 0, 75, 0
2, 487350, Note_on_c, 0, 78, 121
2, 487350, Note_on_c, 0, 66, 121
2, 487440, Note_on_c, 0, 66, 0
2, 487440, Note_on_c, 0, 78, 0
2, 487440, Note_on_c, 0, 76, 122
2, 487440, Note_on_c, 0, 64, 122
2, 487620, Note_on_c, 0, 64, 0
2, 487620, Note_on_c, 0, 76, 0
2, 487620, Note_on_c, 0, 76, 122
2, 487620, Note_on_c, 0, 64, 122
2, 487710, Note_on_c, 0, 76, 0
2, 487710, Note_on_c, 0, 72, 103
2, 487800, Note_on_c, 0, 72, 0
2, 487800, Note_on_c, 0, 64, 0
2, 487800, Note_on_c, 0, 76, 122
2, 487800, Note_on_c, 0, 64, 122
2, 487980, Note_on_c, 0, 64, 0
2, 487980, Note_on_c, 0, 76, 0
2, 487980, Note_on_c, 0, 72, 122
2, 487980, Note_on_c, 0, 76, 122
2, 487980, Note_on_c, 0, 64, 122
2, 488160, Note_on_c, 0, 64, 0
2, 488160, Note_on_c, 0, 76, 0
2, 488160, Note_on_c, 0, 72, 0
2, 488160, Note_on_c, 0, 79, 121
2, 488160, Note_on_c, 0, 67, 121
2, 488250, Note_on_c, 0, 67, 0
2, 488250, Note_on_c, 0, 79, 0
2, 488250, Note_on_c, 0, 78, 118
2, 488250, Note_on_c, 0, 66, 114
2, 488340, Note_on_c, 0, 66, 0
2, 488340, Note_on_c, 0, 78, 0
2, 488340, Note_on_c, 0, 76, 113
2, 488340, Note_on_c, 0, 64, 117
2, 488430, Note_on_c, 0, 64, 0
2, 488430, Note_on_c, 0, 76, 0
2, 488430, Note_on_c, 0, 79, 121
2, 488430, Note_on_c, 0, 67, 121
2, 488520, Note_on_c, 0, 67, 0
2, 488520, Note_on_c, 0, 79, 0
2, 488520, Note_on_c, 0, 78, 116
2, 488520, Note_on_c, 0, 66, 118
2, 488610, Note_on_c, 0, 66, 0
2, 488610, Note_on_c, 0, 78, 0
2, 488610, Note_on_c, 0, 76, 114
2, 488610, Note_on_c, 0, 64, 119
2, 488700, Note_on_c, 0, 64, 0
2, 488700, Note_on_c, 0, 76, 0
2, 488700, Note_on_c, 0, 75, 114
2, 488700, Note_on_c, 0, 63, 115
2, 488790, Note_on_c, 0, 63, 0
2, 488790, Note_on_c, 0, 75, 0
2, 488790, Note_on_c, 0, 78, 121
2, 488790, Note_on_c, 0, 66, 121
2, 488880, Note_on_c, 0, 66, 0
2, 488880, Note_on_c, 0, 78, 0
2, 488880, Note_on_c, 0, 76, 122
2, 488880, Note_on_c, 0, 64, 122
2, 489060, Note_on_c, 0, 64, 0
2, 489060, Note_on_c, 0, 76, 0
2, 489060, Note_on_c, 0, 76, 122
2, 489060, Note_on_c, 0, 64, 122
2, 489150, Note_on_c, 0, 76, 0
2, 489150, Note_on_c, 0, 72, 108
2, 489240, Note_on_c, 0, 72, 0
2, 489240, Note_on_c, 0, 64, 0
2, 489240, Note_on_c, 0, 76, 122
2, 489240, Note_on_c, 0, 64, 122
2, 489420, Note_on_c, 0, 64, 0
2, 489420, Note_on_c, 0, 76, 0
2, 489420, Note_on_c, 0, 72, 122
2, 489420, Note_on_c, 0, 76, 122
2, 489420, Note_on_c, 0, 64, 122
2, 489600, Note_on_c, 0, 64, 0
2, 489600, Note_on_c, 0, 76, 0
2, 489600, Note_on_c, 0, 72, 0
2, 489600, Note_on_c, 0, 79, 121
2, 489600, Note_on_c, 0, 67, 121
2, 489690, Note_on_c, 0, 67, 0
2, 489690, Note_on_c, 0, 79, 0
2, 489690, Note_on_c, 0, 78, 120
2, 489690, Note_on_c, 0, 66, 119
2, 489780, Note_on_c, 0, 66, 0
2, 489780, Note_on_c, 0, 78, 0
2, 489780, Note_on_c, 0, 76, 107
2, 489780, Note_on_c, 0, 64, 119
2, 489870, Note_on_c, 0, 64, 0
2, 489870, Note_on_c, 0, 76, 0
2, 489870, Note_on_c, 0, 79, 121
2, 489870, Note_on_c, 0, 67, 121
2, 489960, Note_on_c, 0, 67, 0
2, 489960, Note_on_c, 0, 79, 0
2, 489960, Note_on_c, 0, 78, 117
2, 489960, Note_on_c, 0, 66, 118
2, 490050, Note_on_c, 0, 66, 0
2, 490050, Note_on_c, 0, 78, 0
2, 490050, Note_on_c, 0, 76, 112
2, 490050, Note_on_c, 0, 64, 109
2, 490140, Note_on_c, 0, 64, 0
2, 490140, Note_on_c, 0, 76, 0
2, 490140, Note_on_c, 0, 79, 121
2, 490140, Note_on_c, 0, 67, 121
2, 490230, Note_on_c, 0, 67, 0
2, 490230, Note_on_c, 0, 79, 0
2, 490230, Note_on_c, 0, 78, 115
2, 490230, Note_on_c, 0, 66, 116
2, 490320, Note_on_c, 0, 66, 0
2, 490320, Note_on_c, 0, 78, 0
2, 490320, Note_on_c, 0, 76, 113
2, 490320, Note_on_c, 0, 64, 111
2, 490410, Note_on_c, 0, 64, 0
2, 490410, Note_on_c, 0, 76, 0
2, 490410, Note_on_c, 0, 79, 121
2, 490410, Note_on_c, 0, 67, 121
2, 490500, Note_on_c, 0, 67, 0
2, 490500, Note_on_c, 0, 79, 0
2, 490500, Note_on_c, 0, 78, 114
2, 490500, Note_on_c, 0, 66, 114
2, 490590, Note_on_c, 0, 66, 0
2, 490590, Note_on_c, 0, 78, 0
2, 490590, Note_on_c, 0, 76, 113
2, 490590, Note_on_c, 0, 64, 113
2, 490680, Note_on_c, 0, 64, 0
2, 490680, Note_on_c, 0, 76, 0
2, 490680, Note_on_c, 0, 78, 121
2, 490680, Note_on_c, 0, 66, 121
2, 490770, Note_on_c, 0, 66, 0
2, 490770, Note_on_c, 0, 78, 0
2, 490770, Note_on_c, 0, 76, 118
2, 490770, Note_on_c, 0, 64, 112
2, 490860, Note_on_c, 0, 64, 0
2, 490860, Note_on_c, 0, 76, 0
2, 490860, Note_on_c, 0, 78, 121
2, 490860, Note_on_c, 0, 66, 121
2, 490950, Note_on_c, 0, 66, 0
2, 490950, Note_on_c, 0, 78, 0
2, 490950, Note_on_c, 0, 76, 108
2, 490950, Note_on_c, 0, 64, 111
2, 491040, Note_on_c, 0, 64, 0
2, 491040, Note_on_c, 0, 76, 0
2, 491040, Note_on_c, 0, 79, 121
2, 491040, Note_on_c, 0, 67, 121
2, 491130, Note_on_c, 0, 67, 0
2, 491130, Note_on_c, 0, 79, 0
2, 491130, Note_on_c, 0, 78, 115
2, 491130, Note_on_c, 0, 66, 119
2, 491220, Note_on_c, 0, 66, 0
2, 491220, Note_on_c, 0, 78, 0
2, 491220, Note_on_c, 0, 76, 111
2, 491220, Note_on_c, 0, 64, 114
2, 491310, Note_on_c, 0, 64, 0
2, 491310, Note_on_c, 0, 76, 0
2, 491310, Note_on_c, 0, 79, 121
2, 491310, Note_on_c, 0, 67, 121
2, 491400, Note_on_c, 0, 67, 0
2, 491400, Note_on_c, 0, 79, 0
2, 491400, Note_on_c, 0, 78, 116
2, 491400, Note_on_c, 0, 66, 119
2, 491490, Note_on_c, 0, 66, 0
2, 491490, Note_on_c, 0, 78, 0
2, 491490, Note_on_c, 0, 76, 117
2, 491490, Note_on_c, 0, 64, 111
2, 491580, Note_on_c, 0, 64, 0
2, 491580, Note_on_c, 0, 76, 0
2, 491580, Note_on_c, 0, 79, 121
2, 491580, Note_on_c, 0, 67, 121
2, 491670, Note_on_c, 0, 67, 0
2, 491670, Note_on_c, 0, 79, 0
2, 491670, Note_on_c, 0, 78, 114
2, 491670, Note_on_c, 0, 66, 117
2, 491760, Note_on_c, 0, 66, 0
2, 491760, Note_on_c, 0, 78, 0
2, 491760, Note_on_c, 0, 76, 115
2, 491760, Note_on_c, 0, 64, 111
2, 491850, Note_on_c, 0, 64, 0
2, 491850, Note_on_c, 0, 76, 0
2, 491850, Note_on_c, 0, 79, 121
2, 491850, Note_on_c, 0, 67, 121
2, 491940, Note_on_c, 0, 67, 0
2, 491940, Note_on_c, 0, 79, 0
2, 491940, Note_on_c, 0, 78, 118
2, 491940, Note_on_c, 0, 66, 119
2, 492030, Note_on_c, 0, 66, 0
2, 492030, Note_on_c, 0, 78, 0
2, 492030, Note_on_c, 0, 76, 115
2, 492030, Note_on_c, 0, 64, 117
2, 492120, Note_on_c, 0, 64, 0
2, 492120, Note_on_c, 0, 76, 0
2, 492120, Note_on_c, 0, 78, 121
2, 492120, Note_on_c, 0, 66, 121
2, 492210, Note_on_c, 0, 66, 0
2, 492210, Note_on_c, 0, 78, 0
2, 492210, Note_on_c, 0, 76, 115
2, 492210, Note_on_c, 0, 64, 113
2, 492300, Note_on_c, 0, 64, 0
2, 492300, Note_on_c, 0, 76, 0
2, 492300, Note_on_c, 0, 78, 121
2, 492300, Note_on_c, 0, 66, 121
2, 492390, Note_on_c, 0, 66, 0
2, 492390, Note_on_c, 0, 78, 0
2, 492390, Note_on_c, 0, 76, 116
2, 492390, Note_on_c, 0, 64, 114
2, 492480, Note_on_c, 0, 64, 0
2, 492480, Note_on_c, 0, 76, 0
2, 492480, Note_on_c, 0, 79, 122
2, 492480, Note_on_c, 0, 83, 122
2, 492480, Note_on_c, 0, 71, 122
2, 492569, Note_on_c, 0, 83, 0
2, 492569, Note_on_c, 0, 79, 0
2, 492660, Note_on_c, 0, 71, 0
2, 492660, Note_on_c, 0, 71, 121
2, 492749, Note_on_c, 0, 71, 0
2, 492840, Note_on_c, 0, 64, 122
2, 492840, Note_on_c, 0, 67, 122
2, 492840, Note_on_c, 0, 72, 122
2, 492960, Note_on_c, 0, 72, 0
2, 492960, Note_on_c, 0, 67, 0
2, 492960, Note_on_c, 0, 64, 0
2, 492960, Note_on_c, 0, 64, 122
2, 492960, Note_on_c, 0, 67, 122
2, 492960, Note_on_c, 0, 72, 122
2, 493079, Note_on_c, 0, 72, 0
2, 493079, Note_on_c, 0, 67, 0
2, 493079, Note_on_c, 0, 64, 0
2, 493079, Note_on_c, 0, 64, 122
2, 493079, Note_on_c, 0, 67, 122
2, 493079, Note_on_c, 0, 72, 122
2, 493200, Note_on_c, 0, 72, 0
2, 493200, Note_on_c, 0, 67, 0
2, 493200, Note_on_c, 0, 64, 0
2, 493200, Note_on_c, 0, 76, 122
2, 493200, Note_on_c, 0, 79, 122
2, 493200, Note_on_c, 0, 83, 122
2, 493200, Note_on_c, 0, 64, 122
2, 493200, Note_on_c, 0, 67, 122
2, 493200, Note_on_c, 0, 71, 122
2, 493289, Note_on_c, 0, 71, 0
2, 493289, Note_on_c, 0, 79, 0
2, 493289, Note_on_c, 0, 83, 0
2, 493289, Note_on_c, 0, 76, 0
2, 493289, Note_on_c, 0, 67, 0
2, 493289, Note_on_c, 0, 64, 0
2, 493380, Note_on_c, 0, 71, 121
2, 493469, Note_on_c, 0, 71, 0
2, 493560, Note_on_c, 0, 64, 122
2, 493560, Note_on_c, 0, 67, 122
2, 493560, Note_on_c, 0, 72, 122
2, 493680, Note_on_c, 0, 72, 0
2, 493680, Note_on_c, 0, 67, 0
2, 493680, Note_on_c, 0, 64, 0
2, 493680, Note_on_c, 0, 64, 122
2, 493680, Note_on_c, 0, 67, 122
2, 493680, Note_on_c, 0, 72, 122
2, 493799, Note_on_c, 0, 72, 0
2, 493799, Note_on_c, 0, 67, 0
2, 493799, Note_on_c, 0, 64, 0
2, 493799, Note_on_c, 0, 64, 122
2, 493799, Note_on_c, 0, 67, 122
2, 493799, Note_on_c, 0, 72, 122
2, 493920, Note_on_c, 0, 72, 0
2, 493920, Note_on_c, 0, 67, 0
2, 493920, Note_on_c, 0, 64, 0
2, 493920, Note_on_c, 0, 76, 122
2, 493920, Note_on_c, 0, 79, 122
2, 493920, Note_on_c, 0, 83, 122
2, 493920, Note_on_c, 0, 64, 122
2, 493920, Note_on_c, 0, 67, 122
2, 493920, Note_on_c, 0, 71, 122
2, 494009, Note_on_c, 0, 83, 0
2, 494009, Note_on_c, 0, 76, 0
2, 494009, Note_on_c, 0, 79, 0
2, 494100, Note_on_c, 0, 64, 0
2, 494100, Note_on_c, 0, 67, 0
2, 494100, Note_on_c, 0, 71, 0
2, 494100, Note_on_c, 0, 71, 121
2, 494189, Note_on_c, 0, 71, 0
2, 494280, Note_on_c, 0, 64, 122
2, 494280, Note_on_c, 0, 67, 122
2, 494280, Note_on_c, 0, 72, 122
2, 494400, Note_on_c, 0, 72, 0
2, 494400, Note_on_c, 0, 67, 0
2, 494400, Note_on_c, 0, 64, 0
2, 494400, Note_on_c, 0, 64, 122
2, 494400, Note_on_c, 0, 67, 122
2, 494400, Note_on_c, 0, 72, 122
2, 494519, Note_on_c, 0, 72, 0
2, 494519, Note_on_c, 0, 67, 0
2, 494519, Note_on_c, 0, 64, 0
2, 494519, Note_on_c, 0, 64, 122
2, 494519, Note_on_c, 0, 67, 122
2, 494519, Note_on_c, 0, 72, 122
2, 494640, Note_on_c, 0, 72, 0
2, 494640, Note_on_c, 0, 67, 0
2, 494640, Note_on_c, 0, 64, 0
2, 494640, Note_on_c, 0, 76, 122
2, 494640, Note_on_c, 0, 79, 122
2, 494640, Note_on_c, 0, 83, 122
2, 494640, Note_on_c, 0, 64, 122
2, 494640, Note_on_c, 0, 67, 122
2, 494640, Note_on_c, 0, 71, 122
2, 494729, Note_on_c, 0, 71, 0
2, 494729, Note_on_c, 0, 79, 0
2, 494729, Note_on_c, 0, 83, 0
2, 494729, Note_on_c, 0, 76, 0
2, 494729, Note_on_c, 0, 67, 0
2, 494729, Note_on_c, 0, 64, 0
2, 494820, Note_on_c, 0, 71, 121
2, 494909, Note_on_c, 0, 71, 0
2, 495000, Note_on_c, 0, 64, 122
2, 495000, Note_on_c, 0, 67, 122
2, 495000, Note_on_c, 0, 72, 122
2, 495120, Note_on_c, 0, 72, 0
2, 495120, Note_on_c, 0, 67, 0
2, 495120, Note_on_c, 0, 64, 0
2, 495120, Note_on_c, 0, 64, 122
2, 495120, Note_on_c, 0, 67, 122
2, 495120, Note_on_c, 0, 72, 122
2, 495239, Note_on_c, 0, 72, 0
2, 495239, Note_on_c, 0, 67, 0
2, 495239, Note_on_c, 0, 64, 0
2, 495239, Note_on_c, 0, 64, 122
2, 495239, Note_on_c, 0, 67, 122
2, 495239, Note_on_c, 0, 72, 122
2, 495360, Note_on_c, 0, 72, 0
2, 495360, Note_on_c, 0, 67, 0
2, 495360, Note_on_c, 0, 64, 0
2, 495360, Note_on_c, 0, 64, 122
2, 495360, Note_on_c, 0, 67, 122
2, 495360, Note_on_c, 0, 71, 122
2, 495720, Note_on_c, 0, 71, 0
2, 495720, Note_on_c, 0, 67, 0
2, 495720, Note_on_c, 0, 64, 0
2, 495720, Note_on_c, 0, 72, 122
2, 495720, Note_on_c, 0, 64, 122
2, 495720, Note_on_c, 0, 67, 122
2, 496080, Note_on_c, 0, 67, 0
2, 496080, Note_on_c, 0, 64, 0
2, 496080, Note_on_c, 0, 72, 0
2, 496080, Note_on_c, 0, 70, 122
2, 496080, Note_on_c, 0, 73, 122
2, 496080, Note_on_c, 0, 61, 122
2, 496080, Note_on_c, 0, 66, 122
2, 496440, Note_on_c, 0, 66, 0
2, 496440, Note_on_c, 0, 70, 0
2, 496440, Note_on_c, 0, 73, 0
2, 496440, Note_on_c, 0, 61, 0
2, 496440, Note_on_c, 0, 69, 122
2, 496440, Note_on_c, 0, 74, 122
2, 496440, Note_on_c, 0, 62, 122
2, 496440, Note_on_c, 0, 66, 122
2, 496800, Note_on_c, 0, 66, 0
2, 496800, Note_on_c, 0, 69, 0
2, 496800, Note_on_c, 0, 74, 0
2, 496800, Note_on_c, 0, 62, 0
2, 496800, Note_on_c, 0, 73, 122
2, 496800, Note_on_c, 0, 75, 122
2, 496800, Note_on_c, 0, 63, 122
2, 496800, Note_on_c, 0, 67, 122
2, 497160, Note_on_c, 0, 67, 0
2, 497160, Note_on_c, 0, 73, 0
2, 497160, Note_on_c, 0, 75, 0
2, 497160, Note_on_c, 0, 63, 0
2, 497160, Note_on_c, 0, 72, 122
2, 497160, Note_on_c, 0, 76, 122
2, 497160, Note_on_c, 0, 64, 122
2, 497160, Note_on_c, 0, 67, 122
2, 497520, Note_on_c, 0, 67, 0
2, 497520, Note_on_c, 0, 72, 0
2, 497520, Note_on_c, 0, 76, 0
2, 497520, Note_on_c, 0, 64, 0
2, 497520, Note_on_c, 0, 75, 122
2, 497520, Note_on_c, 0, 77, 122
2, 497520, Note_on_c, 0, 65, 122
2, 497520, Note_on_c, 0, 69, 122
2, 497609, Note_on_c, 0, 69, 0
2, 497609, Note_on_c, 0, 75, 0
2, 497609, Note_on_c, 0, 77, 0
2, 497609, Note_on_c, 0, 65, 0
2, 497700, Note_on_c, 0, 75, 122
2, 497700, Note_on_c, 0, 78, 122
2, 497700, Note_on_c, 0, 66, 122
2, 497700, Note_on_c, 0, 69, 122
2, 498060, Note_on_c, 0, 69, 0
2, 498060, Note_on_c, 0, 75, 0
2, 498060, Note_on_c, 0, 78, 0
2, 498060, Note_on_c, 0, 66, 0
2, 498060, Note_on_c, 0, 83, 122
2, 498060, Note_on_c, 0, 71, 122
2, 498240, Note_on_c, 0, 71, 0
2, 498240, Note_on_c, 0, 83, 0
2, 498240, Note_on_c, 0, 83, 122
2, 498240, Note_on_c, 0, 67, 122
2, 498240, Note_on_c, 0, 71, 122
2, 498240, Note_on_c, 0, 76, 122
2, 498302, Note_on_c, 0, 83, 0
2, 498302, Note_on_c, 0, 85, 122
2, 498329, Note_on_c, 0, 67, 0
2, 498329, Note_on_c, 0, 76, 0
2, 498329, Note_on_c, 0, 71, 0
2, 498365, Note_on_c, 0, 85, 0
2, 498365, Note_on_c, 0, 87, 122
2, 498401, Note_on_c, 0, 87, 0
2, 498420, Note_on_c, 0, 59, 82
2, 498492, Note_on_c, 0, 64, 82
2, 498564, Note_on_c, 0, 67, 82
2, 498635, Note_on_c, 0, 71, 82
2, 498780, Note_on_c, 0, 71, 0
2, 498780, Note_on_c, 0, 59, 0
2, 498780, Note_on_c, 0, 64, 0
2, 498780, Note_on_c, 0, 67, 0
2, 498780, Note_on_c, 0, 59, 88
2, 498852, Note_on_c, 0, 64, 88
2, 498924, Note_on_c, 0, 67, 88
2, 498995, Note_on_c, 0, 71, 88
2, 499140, Note_on_c, 0, 71, 0
2, 499140, Note_on_c, 0, 59, 0
2, 499140, Note_on_c, 0, 64, 0
2, 499140, Note_on_c, 0, 67, 0
2, 499140, Note_on_c, 0, 59, 94
2, 499212, Note_on_c, 0, 64, 94
2, 499284, Note_on_c, 0, 67, 94
2, 499355, Note_on_c, 0, 71, 94
2, 499500, Note_on_c, 0, 71, 0
2, 499500, Note_on_c, 0, 59, 0
2, 499500, Note_on_c, 0, 64, 0
2, 499500, Note_on_c, 0, 67, 0
2, 499680, Note_on_c, 0, 79, 103
2, 499680, Note_on_c, 0, 91, 103
2, 499680, Note_on_c, 0, 59, 68
2, 499680, Note_on_c, 0, 67, 68
2, 499860, Note_on_c, 0, 67, 0
2, 499860, Note_on_c, 0, 59, 0
2, 499860, Note_on_c, 0, 69, 83
2, 499950, Note_on_c, 0, 69, 0
2, 499950, Note_on_c, 0, 67, 75
2, 500040, Note_on_c, 0, 67, 0
2, 500040, Note_on_c, 0, 91, 0
2, 500040, Note_on_c, 0, 79, 0
2, 500040, Note_on_c, 0, 78, 113
2, 500040, Note_on_c, 0, 90, 113
2, 500040, Note_on_c, 0, 59, 74
2, 500040, Note_on_c, 0, 66, 74
2, 500129, Note_on_c, 0, 66, 0
2, 500129, Note_on_c, 0, 59, 0
2, 500220, Note_on_c, 0, 67, 85
2, 500309, Note_on_c, 0, 67, 0
2, 500400, Note_on_c, 0, 90, 0
2, 500400, Note_on_c, 0, 78, 0
2, 500400, Note_on_c, 0, 83, 97
2, 500400, Note_on_c, 0, 59, 71
2, 500400, Note_on_c, 0, 64, 71
2, 500489, Note_on_c, 0, 64, 0
2, 500489, Note_on_c, 0, 59, 0
2, 500489, Note_on_c, 0, 83, 0
2, 500580, Note_on_c, 0, 76, 122
2, 500580, Note_on_c, 0, 88, 122
2, 500580, Note_on_c, 0, 64, 75
2, 500670, Note_on_c, 0, 64, 0
2, 500670, Note_on_c, 0, 66, 85
2, 500760, Note_on_c, 0, 66, 0
2, 500760, Note_on_c, 0, 59, 96
2, 500760, Note_on_c, 0, 67, 96
2, 501077, Note_on_c, 0, 67, 0
2, 501077, Note_on_c, 0, 59, 0
2, 501120, Note_on_c, 0, 59, 80
2, 501120, Note_on_c, 0, 67, 80
2, 501209, Note_on_c, 0, 67, 0
2, 501209, Note_on_c, 0, 59, 0
2, 501300, Note_on_c, 0, 69, 83
2, 501390, Note_on_c, 0, 69, 0
2, 501390, Note_on_c, 0, 67, 76
2, 501480, Note_on_c, 0, 67, 0
2, 501480, Note_on_c, 0, 59, 73
2, 501480, Note_on_c, 0, 66, 73
2, 501569, Note_on_c, 0, 66, 0
2, 501569, Note_on_c, 0, 59, 0
2, 501660, Note_on_c, 0, 67, 78
2, 501749, Note_on_c, 0, 67, 0
2, 501840, Note_on_c, 0, 59, 72
2, 501840, Note_on_c, 0, 64, 72
2, 502020, Note_on_c, 0, 64, 0
2, 502020, Note_on_c, 0, 59, 0
2, 502020, Note_on_c, 0, 64, 77
2, 502110, Note_on_c, 0, 64, 0
2, 502110, Note_on_c, 0, 66, 86
2, 502200, Note_on_c, 0, 66, 0
2, 502200, Note_on_c, 0, 59, 95
2, 502200, Note_on_c, 0, 67, 95
2, 502380, Note_on_c, 0, 88, 0
2, 502380, Note_on_c, 0, 76, 0
2, 502517, Note_on_c, 0, 59, 0
2, 502517, Note_on_c, 0, 67, 0
2, 502560, Note_on_c, 0, 78, 109
2, 502560, Note_on_c, 0, 90, 109
2, 502560, Note_on_c, 0, 54, 67
2, 502560, Note_on_c, 0, 62, 67
2, 502649, Note_on_c, 0, 62, 0
2, 502649, Note_on_c, 0, 54, 0
2, 502740, Note_on_c, 0, 64, 82
2, 502830, Note_on_c, 0, 64, 0
2, 502830, Note_on_c, 0, 62, 72
2, 502920, Note_on_c, 0, 62, 0
2, 502920, Note_on_c, 0, 90, 0
2, 502920, Note_on_c, 0, 78, 0
2, 502920, Note_on_c, 0, 76, 112
2, 502920, Note_on_c, 0, 88, 112
2, 502920, Note_on_c, 0, 54, 73
2, 502920, Note_on_c, 0, 61, 73
2, 503100, Note_on_c, 0, 61, 0
2, 503100, Note_on_c, 0, 54, 0
2, 503100, Note_on_c, 0, 62, 84
2, 503280, Note_on_c, 0, 62, 0
2, 503280, Note_on_c, 0, 88, 0
2, 503280, Note_on_c, 0, 76, 0
2, 503280, Note_on_c, 0, 74, 108
2, 503280, Note_on_c, 0, 86, 108
2, 503280, Note_on_c, 0, 54, 76
2, 503280, Note_on_c, 0, 59, 76
2, 503369, Note_on_c, 0, 86, 0
2, 503369, Note_on_c, 0, 74, 0
2, 503460, Note_on_c, 0, 54, 0
2, 503460, Note_on_c, 0, 59, 0
2, 503460, Note_on_c, 0, 74, 122
2, 503460, Note_on_c, 0, 86, 122
2, 503460, Note_on_c, 0, 59, 78
2, 503550, Note_on_c, 0, 59, 0
2, 503550, Note_on_c, 0, 61, 87
2, 503640, Note_on_c, 0, 61, 0
2, 503640, Note_on_c, 0, 54, 89
2, 503640, Note_on_c, 0, 62, 89
2, 503957, Note_on_c, 0, 62, 0
2, 503957, Note_on_c, 0, 54, 0
2, 504000, Note_on_c, 0, 54, 76
2, 504000, Note_on_c, 0, 62, 76
2, 504089, Note_on_c, 0, 62, 0
2, 504089, Note_on_c, 0, 54, 0
2, 504180, Note_on_c, 0, 64, 86
2, 504270, Note_on_c, 0, 64, 0
2, 504270, Note_on_c, 0, 62, 72
2, 504360, Note_on_c, 0, 62, 0
2, 504360, Note_on_c, 0, 54, 71
2, 504360, Note_on_c, 0, 61, 71
2, 504540, Note_on_c, 0, 61, 0
2, 504540, Note_on_c, 0, 54, 0
2, 504540, Note_on_c, 0, 62, 82
2, 504629, Note_on_c, 0, 62, 0
2, 504720, Note_on_c, 0, 54, 71
2, 504720, Note_on_c, 0, 59, 71
2, 504900, Note_on_c, 0, 59, 0
2, 504900, Note_on_c, 0, 54, 0
2, 504900, Note_on_c, 0, 59, 79
2, 504990, Note_on_c, 0, 59, 0
2, 504990, Note_on_c, 0, 61, 86
2, 505080, Note_on_c, 0, 61, 0
2, 505080, Note_on_c, 0, 54, 94
2, 505080, Note_on_c, 0, 62, 94
2, 505260, Note_on_c, 0, 86, 0
2, 505260, Note_on_c, 0, 74, 0
2, 505397, Note_on_c, 0, 54, 0
2, 505397, Note_on_c, 0, 62, 0
2, 505440, Note_on_c, 0, 83, 110
2, 505440, Note_on_c, 0, 95, 110
2, 505440, Note_on_c, 0, 67, 95
2, 505530, Note_on_c, 0, 67, 0
2, 505530, Note_on_c, 0, 59, 70
2, 505620, Note_on_c, 0, 59, 0
2, 505620, Note_on_c, 0, 69, 96
2, 505710, Note_on_c, 0, 69, 0
2, 505710, Note_on_c, 0, 67, 80
2, 505800, Note_on_c, 0, 67, 0
2, 505800, Note_on_c, 0, 95, 0
2, 505800, Note_on_c, 0, 83, 0
2, 505800, Note_on_c, 0, 78, 103
2, 505800, Note_on_c, 0, 90, 103
2, 505800, Note_on_c, 0, 66, 71
2, 505890, Note_on_c, 0, 66, 0
2, 505890, Note_on_c, 0, 59, 72
2, 505980, Note_on_c, 0, 59, 0
2, 505980, Note_on_c, 0, 67, 93
2, 506070, Note_on_c, 0, 67, 0
2, 506070, Note_on_c, 0, 90, 0
2, 506070, Note_on_c, 0, 78, 0
2, 506070, Note_on_c, 0, 83, 70
2, 506070, Note_on_c, 0, 59, 72
2, 506160, Note_on_c, 0, 59, 0
2, 506160, Note_on_c, 0, 83, 0
2, 506160, Note_on_c, 0, 76, 105
2, 506160, Note_on_c, 0, 88, 105
2, 506160, Note_on_c, 0, 64, 88
2, 506250, Note_on_c, 0, 64, 0
2, 506250, Note_on_c, 0, 59, 77
2, 506340, Note_on_c, 0, 59, 0
2, 506340, Note_on_c, 0, 88, 0
2, 506340, Note_on_c, 0, 76, 0
2, 506340, Note_on_c, 0, 76, 122
2, 506340, Note_on_c, 0, 88, 122
2, 506340, Note_on_c, 0, 64, 87
2, 506430, Note_on_c, 0, 64, 0
2, 506430, Note_on_c, 0, 66, 85
2, 506520, Note_on_c, 0, 66, 0
2, 506520, Note_on_c, 0, 67, 82
2, 506610, Note_on_c, 0, 67, 0
2, 506610, Note_on_c, 0, 59, 69
2, 506700, Note_on_c, 0, 59, 0
2, 506700, Note_on_c, 0, 67, 92
2, 506880, Note_on_c, 0, 67, 0
2, 506880, Note_on_c, 0, 67, 79
2, 506970, Note_on_c, 0, 67, 0
2, 506970, Note_on_c, 0, 59, 67
2, 507060, Note_on_c, 0, 59, 0
2, 507060, Note_on_c, 0, 69, 101
2, 507150, Note_on_c, 0, 69, 0
2, 507150, Note_on_c, 0, 67, 75
2, 507240, Note_on_c, 0, 67, 0
2, 507240, Note_on_c, 0, 66, 78
2, 507330, Note_on_c, 0, 66, 0
2, 507330, Note_on_c, 0, 59, 68
2, 507420, Note_on_c, 0, 59, 0
2, 507420, Note_on_c, 0, 67, 92
2, 507510, Note_on_c, 0, 67, 0
2, 507510, Note_on_c, 0, 59, 76
2, 507600, Note_on_c, 0, 59, 0
2, 507600, Note_on_c, 0, 64, 86
2, 507690, Note_on_c, 0, 64, 0
2, 507690, Note_on_c, 0, 59, 76
2, 507780, Note_on_c, 0, 59, 0
2, 507780, Note_on_c, 0, 64, 88
2, 507870, Note_on_c, 0, 64, 0
2, 507870, Note_on_c, 0, 66, 83
2, 507960, Note_on_c, 0, 66, 0
2, 507960, Note_on_c, 0, 67, 84
2, 508050, Note_on_c, 0, 67, 0
2, 508050, Note_on_c, 0, 59, 71
2, 508140, Note_on_c, 0, 59, 0
2, 508140, Note_on_c, 0, 88, 0
2, 508140, Note_on_c, 0, 76, 0
2, 508140, Note_on_c, 0, 67, 91
2, 508320, Note_on_c, 0, 67, 0
2, 508320, Note_on_c, 0, 78, 107
2, 508320, Note_on_c, 0, 90, 107
2, 508320, Note_on_c, 0, 62, 70
2, 508410, Note_on_c, 0, 62, 0
2, 508410, Note_on_c, 0, 54, 70
2, 508500, Note_on_c, 0, 54, 0
2, 508500, Note_on_c, 0, 64, 97
2, 508590, Note_on_c, 0, 64, 0
2, 508590, Note_on_c, 0, 62, 76
2, 508680, Note_on_c, 0, 62, 0
2, 508680, Note_on_c, 0, 90, 0
2, 508680, Note_on_c, 0, 78, 0
2, 508680, Note_on_c, 0, 76, 110
2, 508680, Note_on_c, 0, 88, 110
2, 508680, Note_on_c, 0, 61, 74
2, 508770, Note_on_c, 0, 61, 0
2, 508770, Note_on_c, 0, 54, 70
2, 508860, Note_on_c, 0, 54, 0
2, 508860, Note_on_c, 0, 62, 98
2, 508950, Note_on_c, 0, 62, 0
2, 508950, Note_on_c, 0, 88, 0
2, 508950, Note_on_c, 0, 76, 0
2, 508950, Note_on_c, 0, 73, 105
2, 508950, Note_on_c, 0, 85, 105
2, 508950, Note_on_c, 0, 54, 74
2, 509040, Note_on_c, 0, 54, 0
2, 509040, Note_on_c, 0, 85, 0
2, 509040, Note_on_c, 0, 73, 0
2, 509040, Note_on_c, 0, 71, 108
2, 509040, Note_on_c, 0, 83, 108
2, 509040, Note_on_c, 0, 59, 81
2, 509129, Note_on_c, 0, 83, 0
2, 509129, Note_on_c, 0, 71, 0
2, 509130, Note_on_c, 0, 59, 0
2, 509130, Note_on_c, 0, 54, 72
2, 509220, Note_on_c, 0, 54, 0
2, 509220, Note_on_c, 0, 71, 122
2, 509220, Note_on_c, 0, 83, 122
2, 509220, Note_on_c, 0, 59, 84
2, 509310, Note_on_c, 0, 59, 0
2, 509310, Note_on_c, 0, 61, 79
2, 509400, Note_on_c, 0, 61, 0
2, 509400, Note_on_c, 0, 62, 81
2, 509490, Note_on_c, 0, 62, 0
2, 509490, Note_on_c, 0, 54, 69
2, 509580, Note_on_c, 0, 54, 0
2, 509580, Note_on_c, 0, 62, 96
2, 509760, Note_on_c, 0, 62, 0
2, 509760, Note_on_c, 0, 62, 78
2, 509850, Note_on_c, 0, 62, 0
2, 509850, Note_on_c, 0, 54, 72
2, 509940, Note_on_c, 0, 54, 0
2, 509940, Note_on_c, 0, 64, 96
2, 510030, Note_on_c, 0, 64, 0
2, 510030, Note_on_c, 0, 62, 74
2, 510120, Note_on_c, 0, 62, 0
2, 510120, Note_on_c, 0, 61, 74
2, 510210, Note_on_c, 0, 61, 0
2, 510210, Note_on_c, 0, 54, 72
2, 510300, Note_on_c, 0, 54, 0
2, 510300, Note_on_c, 0, 62, 94
2, 510390, Note_on_c, 0, 62, 0
2, 510390, Note_on_c, 0, 54, 75
2, 510480, Note_on_c, 0, 54, 0
2, 510480, Note_on_c, 0, 59, 83
2, 510570, Note_on_c, 0, 59, 0
2, 510570, Note_on_c, 0, 54, 73
2, 510660, Note_on_c, 0, 54, 0
2, 510660, Note_on_c, 0, 59, 85
2, 510750, Note_on_c, 0, 59, 0
2, 510750, Note_on_c, 0, 61, 85
2, 510840, Note_on_c, 0, 61, 0
2, 510840, Note_on_c, 0, 62, 84
2, 510930, Note_on_c, 0, 62, 0
2, 510930, Note_on_c, 0, 54, 70
2, 511020, Note_on_c, 0, 54, 0
2, 511020, Note_on_c, 0, 83, 0
2, 511020, Note_on_c, 0, 71, 0
2, 511020, Note_on_c, 0, 62, 96
2, 511200, Note_on_c, 0, 62, 0
2, 511200, Note_on_c, 0, 71, 93
2, 511200, Note_on_c, 0, 67, 120
2, 511517, Note_on_c, 0, 67, 0
2, 511517, Note_on_c, 0, 71, 0
2, 511560, Note_on_c, 0, 69, 95
2, 511560, Note_on_c, 0, 66, 103
2, 511796, Note_on_c, 0, 66, 0
2, 511796, Note_on_c, 0, 69, 0
2, 511830, Note_on_c, 0, 66, 87
2, 511830, Note_on_c, 0, 63, 86
2, 511920, Note_on_c, 0, 63, 0
2, 511920, Note_on_c, 0, 66, 0
2, 511920, Note_on_c, 0, 67, 97
2, 511920, Note_on_c, 0, 64, 95
2, 512009, Note_on_c, 0, 64, 0
2, 512009, Note_on_c, 0, 67, 0
2, 512100, Note_on_c, 0, 67, 106
2, 512100, Note_on_c, 0, 64, 109
2, 512417, Note_on_c, 0, 64, 0
2, 512417, Note_on_c, 0, 67, 0
2, 512460, Note_on_c, 0, 69, 98
2, 512460, Note_on_c, 0, 66, 99
2, 512549, Note_on_c, 0, 66, 0
2, 512549, Note_on_c, 0, 69, 0
2, 512640, Note_on_c, 0, 71, 122
2, 512640, Note_on_c, 0, 67, 122
2, 512820, Note_on_c, 0, 67, 0
2, 512820, Note_on_c, 0, 71, 0
2, 512820, Note_on_c, 0, 67, 85
2, 512820, Note_on_c, 0, 64, 86
2, 513000, Note_on_c, 0, 64, 0
2, 513000, Note_on_c, 0, 67, 0
2, 513000, Note_on_c, 0, 69, 122
2, 513000, Note_on_c, 0, 66, 122
2, 513270, Note_on_c, 0, 66, 0
2, 513270, Note_on_c, 0, 69, 0
2, 513270, Note_on_c, 0, 69, 119
2, 513270, Note_on_c, 0, 66, 119
2, 513360, Note_on_c, 0, 66, 0
2, 513360, Note_on_c, 0, 69, 0
2, 513360, Note_on_c, 0, 69, 115
2, 513360, Note_on_c, 0, 66, 116
2, 513540, Note_on_c, 0, 66, 0
2, 513540, Note_on_c, 0, 69, 0
2, 513540, Note_on_c, 0, 67, 110
2, 513540, Note_on_c, 0, 64, 109
2, 514080, Note_on_c, 0, 64, 0
2, 514080, Note_on_c, 0, 67, 0
2, 514080, Note_on_c, 0, 66, 100
2, 514080, Note_on_c, 0, 62, 97
2, 514397, Note_on_c, 0, 62, 0
2, 514397, Note_on_c, 0, 66, 0
2, 514440, Note_on_c, 0, 64, 95
2, 514440, Note_on_c, 0, 61, 99
2, 514676, Note_on_c, 0, 64, 0
2, 514710, Note_on_c, 0, 61, 90
2, 514757, Note_on_c, 0, 61, 0
2, 514800, Note_on_c, 0, 61, 0
2, 514800, Note_on_c, 0, 62, 94
2, 514889, Note_on_c, 0, 62, 0
2, 514980, Note_on_c, 0, 62, 104
2, 515297, Note_on_c, 0, 62, 0
2, 515340, Note_on_c, 0, 64, 86
2, 515340, Note_on_c, 0, 61, 89
2, 515429, Note_on_c, 0, 61, 0
2, 515429, Note_on_c, 0, 64, 0
2, 515520, Note_on_c, 0, 66, 122
2, 515520, Note_on_c, 0, 62, 121
2, 515700, Note_on_c, 0, 62, 0
2, 515700, Note_on_c, 0, 66, 0
2, 515700, Note_on_c, 0, 62, 76
2, 515700, Note_on_c, 0, 59, 92
2, 515880, Note_on_c, 0, 59, 0
2, 515880, Note_on_c, 0, 62, 0
2, 515880, Note_on_c, 0, 64, 117
2, 515880, Note_on_c, 0, 61, 122
2, 516150, Note_on_c, 0, 61, 0
2, 516150, Note_on_c, 0, 64, 0
2, 516150, Note_on_c, 0, 64, 122
2, 516150, Note_on_c, 0, 61, 118
2, 516240, Note_on_c, 0, 61, 0
2, 516240, Note_on_c, 0, 64, 0
2, 516240, Note_on_c, 0, 64, 116
2, 516240, Note_on_c, 0, 61, 117
2, 516420, Note_on_c, 0, 61, 0
2, 516420, Note_on_c, 0, 64, 0
2, 516420, Note_on_c, 0, 62, 122
2, 516600, Note_on_c, 0, 62, 0
2, 516960, Note_on_c, 0, 74, 38
2, 517050, Note_on_c, 0, 74, 0
2, 517050, Note_on_c, 0, 76, 44
2, 517140, Note_on_c, 0, 76, 0
2, 517140, Note_on_c, 0, 78, 51
2, 517230, Note_on_c, 0, 78, 0
2, 517230, Note_on_c, 0, 79, 49
2, 517320, Note_on_c, 0, 79, 0
2, 517320, Note_on_c, 0, 81, 58
2, 517410, Note_on_c, 0, 81, 0
2, 517410, Note_on_c, 0, 83, 61
2, 517500, Note_on_c, 0, 83, 0
2, 517500, Note_on_c, 0, 85, 64
2, 517590, Note_on_c, 0, 85, 0
2, 517590, Note_on_c, 0, 87, 68
2, 517680, Note_on_c, 0, 87, 0
2, 517680, Note_on_c, 0, 88, 71
2, 517770, Note_on_c, 0, 88, 0
2, 517770, Note_on_c, 0, 86, 64
2, 517860, Note_on_c, 0, 86, 0
2, 517860, Note_on_c, 0, 84, 58
2, 517950, Note_on_c, 0, 84, 0
2, 517950, Note_on_c, 0, 83, 52
2, 518040, Note_on_c, 0, 83, 0
2, 518040, Note_on_c, 0, 81, 41
2, 518130, Note_on_c, 0, 81, 0
2, 518130, Note_on_c, 0, 79, 43
2, 518220, Note_on_c, 0, 79, 0
2, 518220, Note_on_c, 0, 78, 46
2, 518310, Note_on_c, 0, 78, 0
2, 518310, Note_on_c, 0, 76, 43
2, 518400, Note_on_c, 0, 76, 0
2, 518400, Note_on_c, 0, 74, 42
2, 518490, Note_on_c, 0, 74, 0
2, 518490, Note_on_c, 0, 76, 50
2, 518580, Note_on_c, 0, 76, 0
2, 518580, Note_on_c, 0, 78, 46
2, 518670, Note_on_c, 0, 78, 0
2, 518670, Note_on_c, 0, 79, 50
2, 518760, Note_on_c, 0, 79, 0
2, 518760, Note_on_c, 0, 81, 58
2, 518850, Note_on_c, 0, 81, 0
2, 518850, Note_on_c, 0, 83, 61
2, 518940, Note_on_c, 0, 83, 0
2, 518940, Note_on_c, 0, 85, 64
2, 519030, Note_on_c, 0, 85, 0
2, 519030, Note_on_c, 0, 87, 68
2, 519120, Note_on_c, 0, 87, 0
2, 519120, Note_on_c, 0, 88, 71
2, 519210, Note_on_c, 0, 88, 0
2, 519210, Note_on_c, 0, 86, 64
2, 519300, Note_on_c, 0, 86, 0
2, 519300, Note_on_c, 0, 84, 58
2, 519390, Note_on_c, 0, 84, 0
2, 519390, Note_on_c, 0, 83, 52
2, 519480, Note_on_c, 0, 83, 0
2, 519480, Note_on_c, 0, 81, 42
2, 519570, Note_on_c, 0, 81, 0
2, 519570, Note_on_c, 0, 79, 41
2, 519660, Note_on_c, 0, 79, 0
2, 519660, Note_on_c, 0, 78, 40
2, 519750, Note_on_c, 0, 78, 0
2, 519750, Note_on_c, 0, 76, 39
2, 519840, Note_on_c, 0, 76, 0
2, 519840, Note_on_c, 0, 69, 37
2, 519930, Note_on_c, 0, 69, 0
2, 519930, Note_on_c, 0, 71, 50
2, 520020, Note_on_c, 0, 71, 0
2, 520020, Note_on_c, 0, 73, 49
2, 520110, Note_on_c, 0, 73, 0
2, 520110, Note_on_c, 0, 74, 49
2, 520200, Note_on_c, 0, 74, 0
2, 520200, Note_on_c, 0, 76, 58
2, 520290, Note_on_c, 0, 76, 0
2, 520290, Note_on_c, 0, 78, 61
2, 520380, Note_on_c, 0, 78, 0
2, 520380, Note_on_c, 0, 80, 64
2, 520470, Note_on_c, 0, 80, 0
2, 520470, Note_on_c, 0, 82, 68
2, 520560, Note_on_c, 0, 82, 0
2, 520560, Note_on_c, 0, 83, 71
2, 520650, Note_on_c, 0, 83, 0
2, 520650, Note_on_c, 0, 81, 64
2, 520740, Note_on_c, 0, 81, 0
2, 520740, Note_on_c, 0, 79, 58
2, 520830, Note_on_c, 0, 79, 0
2, 520830, Note_on_c, 0, 78, 52
2, 520920, Note_on_c, 0, 78, 0
2, 520920, Note_on_c, 0, 76, 44
2, 521010, Note_on_c, 0, 76, 0
2, 521010, Note_on_c, 0, 74, 43
2, 521100, Note_on_c, 0, 74, 0
2, 521100, Note_on_c, 0, 73, 49
2, 521190, Note_on_c, 0, 73, 0
2, 521190, Note_on_c, 0, 71, 41
2, 521280, Note_on_c, 0, 71, 0
2, 521280, Note_on_c, 0, 69, 41
2, 521370, Note_on_c, 0, 69, 0
2, 521370, Note_on_c, 0, 71, 48
2, 521460, Note_on_c, 0, 71, 0
2, 521460, Note_on_c, 0, 73, 48
2, 521550, Note_on_c, 0, 73, 0
2, 521550, Note_on_c, 0, 74, 47
2, 521640, Note_on_c, 0, 74, 0
2, 521640, Note_on_c, 0, 76, 58
2, 521730, Note_on_c, 0, 76, 0
2, 521730, Note_on_c, 0, 78, 61
2, 521820, Note_on_c, 0, 78, 0
2, 521820, Note_on_c, 0, 80, 64
2, 521910, Note_on_c, 0, 80, 0
2, 521910, Note_on_c, 0, 82, 68
2, 522000, Note_on_c, 0, 82, 0
2, 522000, Note_on_c, 0, 83, 75
2, 522090, Note_on_c, 0, 83, 0
2, 522090, Note_on_c, 0, 84, 73
2, 522180, Note_on_c, 0, 84, 0
2, 522180, Note_on_c, 0, 83, 71
2, 522270, Note_on_c, 0, 83, 0
2, 522270, Note_on_c, 0, 82, 64
2, 522360, Note_on_c, 0, 82, 0
2, 522360, Note_on_c, 0, 83, 71
2, 522360, Note_on_c, 0, 66, 49
2, 522360, Note_on_c, 0, 69, 49
2, 522432, Note_on_c, 0, 83, 0
2, 522432, Note_on_c, 0, 85, 76
2, 522504, Note_on_c, 0, 85, 0
2, 522504, Note_on_c, 0, 87, 81
2, 522575, Note_on_c, 0, 87, 0
2, 522575, Note_on_c, 0, 88, 86
2, 522647, Note_on_c, 0, 88, 0
2, 522647, Note_on_c, 0, 90, 91
2, 522677, Note_on_c, 0, 69, 0
2, 522677, Note_on_c, 0, 66, 0
2, 522720, Note_on_c, 0, 90, 0
2, 522720, Note_on_c, 0, 91, 120
2, 522720, Note_on_c, 0, 67, 74
2, 522810, Note_on_c, 0, 67, 0
2, 522810, Note_on_c, 0, 59, 70
2, 522900, Note_on_c, 0, 59, 0
2, 522900, Note_on_c, 0, 91, 0
2, 522900, Note_on_c, 0, 88, 110
2, 522900, Note_on_c, 0, 69, 93
2, 522990, Note_on_c, 0, 69, 0
2, 522990, Note_on_c, 0, 67, 75
2, 523080, Note_on_c, 0, 67, 0
2, 523080, Note_on_c, 0, 88, 0
2, 523080, Note_on_c, 0, 78, 122
2, 523080, Note_on_c, 0, 90, 122
2, 523080, Note_on_c, 0, 66, 71
2, 523170, Note_on_c, 0, 66, 0
2, 523170, Note_on_c, 0, 59, 71
2, 523260, Note_on_c, 0, 59, 0
2, 523260, Note_on_c, 0, 67, 90
2, 523350, Note_on_c, 0, 67, 0
2, 523350, Note_on_c, 0, 90, 0
2, 523350, Note_on_c, 0, 78, 0
2, 523350, Note_on_c, 0, 83, 70
2, 523350, Note_on_c, 0, 59, 75
2, 523394, Note_on_c, 0, 83, 0
2, 523440, Note_on_c, 0, 59, 0
2, 523440, Note_on_c, 0, 83, 88
2, 523440, Note_on_c, 0, 64, 90
2, 523529, Note_on_c, 0, 83, 0
2, 523530, Note_on_c, 0, 64, 0
2, 523530, Note_on_c, 0, 59, 71
2, 523620, Note_on_c, 0, 59, 0
2, 523620, Note_on_c, 0, 76, 104
2, 523620, Note_on_c, 0, 88, 104
2, 523620, Note_on_c, 0, 64, 91
2, 523710, Note_on_c, 0, 64, 0
2, 523710, Note_on_c, 0, 66, 80
2, 523800, Note_on_c, 0, 66, 0
2, 523800, Note_on_c, 0, 67, 84
2, 523890, Note_on_c, 0, 67, 0
2, 523890, Note_on_c, 0, 59, 72
2, 523980, Note_on_c, 0, 59, 0
2, 523980, Note_on_c, 0, 67, 96
2, 524160, Note_on_c, 0, 67, 0
2, 524160, Note_on_c, 0, 67, 85
2, 524250, Note_on_c, 0, 67, 0
2, 524250, Note_on_c, 0, 59, 67
2, 524340, Note_on_c, 0, 59, 0
2, 524340, Note_on_c, 0, 69, 97
2, 524430, Note_on_c, 0, 69, 0
2, 524430, Note_on_c, 0, 67, 78
2, 524520, Note_on_c, 0, 67, 0
2, 524520, Note_on_c, 0, 66, 74
2, 524610, Note_on_c, 0, 66, 0
2, 524610, Note_on_c, 0, 59, 75
2, 524700, Note_on_c, 0, 59, 0
2, 524700, Note_on_c, 0, 67, 89
2, 524790, Note_on_c, 0, 67, 0
2, 524790, Note_on_c, 0, 59, 73
2, 524880, Note_on_c, 0, 59, 0
2, 524880, Note_on_c, 0, 64, 93
2, 524970, Note_on_c, 0, 64, 0
2, 524970, Note_on_c, 0, 59, 77
2, 525060, Note_on_c, 0, 59, 0
2, 525060, Note_on_c, 0, 64, 86
2, 525150, Note_on_c, 0, 64, 0
2, 525150, Note_on_c, 0, 66, 88
2, 525240, Note_on_c, 0, 66, 0
2, 525240, Note_on_c, 0, 67, 84
2, 525330, Note_on_c, 0, 67, 0
2, 525330, Note_on_c, 0, 59, 71
2, 525420, Note_on_c, 0, 59, 0
2, 525420, Note_on_c, 0, 88, 0
2, 525420, Note_on_c, 0, 76, 0
2, 525420, Note_on_c, 0, 67, 92
2, 525600, Note_on_c, 0, 67, 0
2, 525600, Note_on_c, 0, 78, 107
2, 525600, Note_on_c, 0, 90, 107
2, 525600, Note_on_c, 0, 62, 68
2, 525690, Note_on_c, 0, 62, 0
2, 525690, Note_on_c, 0, 54, 67
2, 525780, Note_on_c, 0, 54, 0
2, 525780, Note_on_c, 0, 90, 0
2, 525780, Note_on_c, 0, 78, 0
2, 525780, Note_on_c, 0, 86, 106
2, 525780, Note_on_c, 0, 64, 96
2, 525870, Note_on_c, 0, 64, 0
2, 525870, Note_on_c, 0, 62, 75
2, 525960, Note_on_c, 0, 62, 0
2, 525960, Note_on_c, 0, 86, 0
2, 525960, Note_on_c, 0, 76, 118
2, 525960, Note_on_c, 0, 88, 118
2, 525960, Note_on_c, 0, 61, 78
2, 526050, Note_on_c, 0, 61, 0
2, 526050, Note_on_c, 0, 54, 68
2, 526140, Note_on_c, 0, 54, 0
2, 526140, Note_on_c, 0, 62, 91
2, 526230, Note_on_c, 0, 62, 0
2, 526230, Note_on_c, 0, 88, 0
2, 526230, Note_on_c, 0, 76, 0
2, 526230, Note_on_c, 0, 78, 69
2, 526230, Note_on_c, 0, 54, 74
2, 526274, Note_on_c, 0, 78, 0
2, 526320, Note_on_c, 0, 54, 0
2, 526320, Note_on_c, 0, 78, 87
2, 526320, Note_on_c, 0, 59, 89
2, 526409, Note_on_c, 0, 78, 0
2, 526410, Note_on_c, 0, 59, 0
2, 526410, Note_on_c, 0, 54, 78
2, 526500, Note_on_c, 0, 54, 0
2, 526500, Note_on_c, 0, 71, 105
2, 526500, Note_on_c, 0, 83, 105
2, 526500, Note_on_c, 0, 59, 85
2, 526590, Note_on_c, 0, 59, 0
2, 526590, Note_on_c, 0, 61, 86
2, 526680, Note_on_c, 0, 61, 0
2, 526680, Note_on_c, 0, 62, 86
2, 526770, Note_on_c, 0, 62, 0
2, 526770, Note_on_c, 0, 54, 74
2, 526860, Note_on_c, 0, 54, 0
2, 526860, Note_on_c, 0, 62, 96
2, 527040, Note_on_c, 0, 62, 0
2, 527040, Note_on_c, 0, 62, 83
2, 527130, Note_on_c, 0, 62, 0
2, 527130, Note_on_c, 0, 54, 74
2, 527220, Note_on_c, 0, 54, 0
2, 527220, Note_on_c, 0, 64, 96
2, 527310, Note_on_c, 0, 64, 0
2, 527310, Note_on_c, 0, 62, 73
2, 527400, Note_on_c, 0, 62, 0
2, 527400, Note_on_c, 0, 61, 73
2, 527490, Note_on_c, 0, 61, 0
2, 527490, Note_on_c, 0, 54, 73
2, 527580, Note_on_c, 0, 54, 0
2, 527580, Note_on_c, 0, 62, 93
2, 527670, Note_on_c, 0, 62, 0
2, 527670, Note_on_c, 0, 54, 69
2, 527760, Note_on_c, 0, 54, 0
2, 527760, Note_on_c, 0, 59, 80
2, 527850, Note_on_c, 0, 59, 0
2, 527850, Note_on_c, 0, 54, 74
2, 527940, Note_on_c, 0, 54, 0
2, 527940, Note_on_c, 0, 59, 83
2, 528030, Note_on_c, 0, 59, 0
2, 528030, Note_on_c, 0, 61, 82
2, 528120, Note_on_c, 0, 61, 0
2, 528120, Note_on_c, 0, 62, 80
2, 528210, Note_on_c, 0, 62, 0
2, 528210, Note_on_c, 0, 54, 71
2, 528300, Note_on_c, 0, 54, 0
2, 528300, Note_on_c, 0, 83, 0
2, 528300, Note_on_c, 0, 71, 0
2, 528300, Note_on_c, 0, 62, 93
2, 528480, Note_on_c, 0, 62, 0
2, 528480, Note_on_c, 0, 79, 92
2, 528480, Note_on_c, 0, 91, 92
2, 528480, Note_on_c, 0, 67, 78
2, 528570, Note_on_c, 0, 67, 0
2, 528570, Note_on_c, 0, 59, 79
2, 528660, Note_on_c, 0, 59, 0
2, 528660, Note_on_c, 0, 91, 0
2, 528660, Note_on_c, 0, 79, 0
2, 528660, Note_on_c, 0, 88, 94
2, 528660, Note_on_c, 0, 69, 80
2, 528750, Note_on_c, 0, 69, 0
2, 528750, Note_on_c, 0, 67, 81
2, 528840, Note_on_c, 0, 67, 0
2, 528840, Note_on_c, 0, 88, 0
2, 528840, Note_on_c, 0, 78, 95
2, 528840, Note_on_c, 0, 90, 95
2, 528840, Note_on_c, 0, 66, 81
2, 528930, Note_on_c, 0, 66, 0
2, 528930, Note_on_c, 0, 59, 82
2, 529020, Note_on_c, 0, 59, 0
2, 529020, Note_on_c, 0, 66, 83
2, 529110, Note_on_c, 0, 66, 0
2, 529110, Note_on_c, 0, 90, 0
2, 529110, Note_on_c, 0, 78, 0
2, 529110, Note_on_c, 0, 87, 98
2, 529110, Note_on_c, 0, 59, 84
2, 529200, Note_on_c, 0, 59, 0
2, 529200, Note_on_c, 0, 87, 0
2, 529200, Note_on_c, 0, 79, 99
2, 529200, Note_on_c, 0, 91, 99
2, 529200, Note_on_c, 0, 67, 85
2, 529290, Note_on_c, 0, 67, 0
2, 529290, Note_on_c, 0, 59, 85
2, 529380, Note_on_c, 0, 59, 0
2, 529380, Note_on_c, 0, 91, 0
2, 529380, Note_on_c, 0, 79, 0
2, 529380, Note_on_c, 0, 88, 100
2, 529380, Note_on_c, 0, 69, 86
2, 529470, Note_on_c, 0, 69, 0
2, 529470, Note_on_c, 0, 67, 87
2, 529560, Note_on_c, 0, 67, 0
2, 529560, Note_on_c, 0, 88, 0
2, 529560, Note_on_c, 0, 78, 102
2, 529560, Note_on_c, 0, 90, 102
2, 529560, Note_on_c, 0, 66, 88
2, 529650, Note_on_c, 0, 66, 0
2, 529650, Note_on_c, 0, 59, 89
2, 529740, Note_on_c, 0, 59, 0
2, 529740, Note_on_c, 0, 66, 89
2, 529830, Note_on_c, 0, 66, 0
2, 529830, Note_on_c, 0, 90, 0
2, 529830, Note_on_c, 0, 78, 0
2, 529830, Note_on_c, 0, 87, 104
2, 529830, Note_on_c, 0, 59, 90
2, 529920, Note_on_c, 0, 59, 0
2, 529920, Note_on_c, 0, 87, 0
2, 529920, Note_on_c, 0, 79, 105
2, 529920, Note_on_c, 0, 91, 105
2, 529920, Note_on_c, 0, 67, 91
2, 530010, Note_on_c, 0, 67, 0
2, 530010, Note_on_c, 0, 59, 92
2, 530100, Note_on_c, 0, 59, 0
2, 530100, Note_on_c, 0, 91, 0
2, 530100, Note_on_c, 0, 79, 0
2, 530100, Note_on_c, 0, 88, 107
2, 530100, Note_on_c, 0, 69, 93
2, 530190, Note_on_c, 0, 69, 0
2, 530190, Note_on_c, 0, 67, 93
2, 530280, Note_on_c, 0, 67, 0
2, 530280, Note_on_c, 0, 88, 0
2, 530280, Note_on_c, 0, 78, 108
2, 530280, Note_on_c, 0, 90, 108
2, 530280, Note_on_c, 0, 66, 94
2, 530370, Note_on_c, 0, 66, 0
2, 530370, Note_on_c, 0, 59, 95
2, 530460, Note_on_c, 0, 59, 0
2, 530460, Note_on_c, 0, 66, 96
2, 530550, Note_on_c, 0, 66, 0
2, 530550, Note_on_c, 0, 90, 0
2, 530550, Note_on_c, 0, 78, 0
2, 530550, Note_on_c, 0, 87, 111
2, 530550, Note_on_c, 0, 59, 97
2, 530640, Note_on_c, 0, 59, 0
2, 530640, Note_on_c, 0, 87, 0
2, 530640, Note_on_c, 0, 79, 111
2, 530640, Note_on_c, 0, 91, 111
2, 530640, Note_on_c, 0, 67, 97
2, 530820, Note_on_c, 0, 67, 0
2, 530820, Note_on_c, 0, 91, 0
2, 530820, Note_on_c, 0, 79, 0
2, 530820, Note_on_c, 0, 88, 113
2, 531000, Note_on_c, 0, 88, 0
2, 531000, Note_on_c, 0, 79, 114
2, 531000, Note_on_c, 0, 91, 114
2, 531180, Note_on_c, 0, 91, 0
2, 531180, Note_on_c, 0, 79, 0
2, 531180, Note_on_c, 0, 88, 116
2, 531360, Note_on_c, 0, 88, 0
2, 531360, Note_on_c, 0, 91, 118
2, 531360, Note_on_c, 0, 79, 104
2, 531419, Note_on_c, 0, 79, 0
2, 531419, Note_on_c, 0, 91, 0
2, 531419, Note_on_c, 0, 93, 121
2, 531419, Note_on_c, 0, 81, 108
2, 531480, Note_on_c, 0, 81, 0
2, 531480, Note_on_c, 0, 93, 0
2, 531480, Note_on_c, 0, 91, 113
2, 531480, Note_on_c, 0, 79, 94
2, 531540, Note_on_c, 0, 79, 0
2, 531540, Note_on_c, 0, 91, 0
2, 531540, Note_on_c, 0, 90, 112
2, 531540, Note_on_c, 0, 78, 99
2, 531720, Note_on_c, 0, 78, 0
2, 531720, Note_on_c, 0, 90, 0
2, 531720, Note_on_c, 0, 90, 122
2, 531720, Note_on_c, 0, 78, 122
2, 531779, Note_on_c, 0, 78, 0
2, 531779, Note_on_c, 0, 90, 0
2, 531779, Note_on_c, 0, 91, 121
2, 531779, Note_on_c, 0, 79, 109
2, 531840, Note_on_c, 0, 79, 0
2, 531840, Note_on_c, 0, 91, 0
2, 531840, Note_on_c, 0, 90, 114
2, 531840, Note_on_c, 0, 78, 96
2, 531900, Note_on_c, 0, 78, 0
2, 531900, Note_on_c, 0, 90, 0
2, 531900, Note_on_c, 0, 88, 106
2, 531900, Note_on_c, 0, 76, 96
2, 532080, Note_on_c, 0, 76, 0
2, 532080, Note_on_c, 0, 88, 0
2, 532080, Note_on_c, 0, 88, 122
2, 532080, Note_on_c, 0, 76, 122
2, 532139, Note_on_c, 0, 76, 0
2, 532139, Note_on_c, 0, 88, 0
2, 532139, Note_on_c, 0, 90, 121
2, 532139, Note_on_c, 0, 78, 114
2, 532200, Note_on_c, 0, 78, 0
2, 532200, Note_on_c, 0, 90, 0
2, 532200, Note_on_c, 0, 88, 111
2, 532200, Note_on_c, 0, 76, 92
2, 532260, Note_on_c, 0, 76, 0
2, 532260, Note_on_c, 0, 88, 0
2, 532260, Note_on_c, 0, 87, 112
2, 532260, Note_on_c, 0, 75, 97
2, 532440, Note_on_c, 0, 75, 0
2, 532440, Note_on_c, 0, 87, 0
2, 532440, Note_on_c, 0, 90, 122
2, 532440, Note_on_c, 0, 78, 122
2, 532499, Note_on_c, 0, 78, 0
2, 532499, Note_on_c, 0, 90, 0
2, 532499, Note_on_c, 0, 91, 121
2, 532499, Note_on_c, 0, 79, 113
2, 532560, Note_on_c, 0, 79, 0
2, 532560, Note_on_c, 0, 91, 0
2, 532560, Note_on_c, 0, 90, 112
2, 532560, Note_on_c, 0, 78, 99
2, 532620, Note_on_c, 0, 78, 0
2, 532620, Note_on_c, 0, 90, 0
2, 532620, Note_on_c, 0, 88, 109
2, 532620, Note_on_c, 0, 76, 94
2, 532800, Note_on_c, 0, 76, 0
2, 532800, Note_on_c, 0, 88, 0
2, 532800, Note_on_c, 0, 91, 122
2, 532800, Note_on_c, 0, 79, 122
2, 532859, Note_on_c, 0, 79, 0
2, 532859, Note_on_c, 0, 91, 0
2, 532859, Note_on_c, 0, 93, 121
2, 532859, Note_on_c, 0, 81, 111
2, 532920, Note_on_c, 0, 81, 0
2, 532920, Note_on_c, 0, 93, 0
2, 532920, Note_on_c, 0, 91, 108
2, 532920, Note_on_c, 0, 79, 95
2, 532980, Note_on_c, 0, 79, 0
2, 532980, Note_on_c, 0, 91, 0
2, 532980, Note_on_c, 0, 90, 111
2, 532980, Note_on_c, 0, 78, 100
2, 533160, Note_on_c, 0, 78, 0
2, 533160, Note_on_c, 0, 90, 0
2, 533160, Note_on_c, 0, 90, 122
2, 533160, Note_on_c, 0, 78, 122
2, 533219, Note_on_c, 0, 78, 0
2, 533219, Note_on_c, 0, 90, 0
2, 533219, Note_on_c, 0, 91, 121
2, 533219, Note_on_c, 0, 79, 109
2, 533280, Note_on_c, 0, 79, 0
2, 533280, Note_on_c, 0, 91, 0
2, 533280, Note_on_c, 0, 90, 108
2, 533280, Note_on_c, 0, 78, 102
2, 533340, Note_on_c, 0, 78, 0
2, 533340, Note_on_c, 0, 90, 0
2, 533340, Note_on_c, 0, 88, 108
2, 533340, Note_on_c, 0, 76, 96
2, 533520, Note_on_c, 0, 76, 0
2, 533520, Note_on_c, 0, 88, 0
2, 533520, Note_on_c, 0, 88, 122
2, 533520, Note_on_c, 0, 76, 122
2, 533579, Note_on_c, 0, 76, 0
2, 533579, Note_on_c, 0, 88, 0
2, 533579, Note_on_c, 0, 90, 121
2, 533579, Note_on_c, 0, 78, 108
2, 533640, Note_on_c, 0, 78, 0
2, 533640, Note_on_c, 0, 90, 0
2, 533640, Note_on_c, 0, 88, 113
2, 533640, Note_on_c, 0, 76, 94
2, 533700, Note_on_c, 0, 76, 0
2, 533700, Note_on_c, 0, 88, 0
2, 533700, Note_on_c, 0, 87, 107
2, 533700, Note_on_c, 0, 75, 92
2, 533880, Note_on_c, 0, 75, 0
2, 533880, Note_on_c, 0, 87, 0
2, 533880, Note_on_c, 0, 90, 122
2, 533880, Note_on_c, 0, 78, 122
2, 533939, Note_on_c, 0, 78, 0
2, 533939, Note_on_c, 0, 90, 0
2, 533939, Note_on_c, 0, 91, 121
2, 533939, Note_on_c, 0, 79, 110
2, 534000, Note_on_c, 0, 79, 0
2, 534000, Note_on_c, 0, 91, 0
2, 534000, Note_on_c, 0, 90, 109
2, 534000, Note_on_c, 0, 78, 95
2, 534060, Note_on_c, 0, 78, 0
2, 534060, Note_on_c, 0, 90, 0
2, 534060, Note_on_c, 0, 88, 109
2, 534060, Note_on_c, 0, 76, 100
2, 534240, Note_on_c, 0, 76, 0
2, 534240, Note_on_c, 0, 88, 0
2, 534240, Note_on_c, 0, 91, 122
2, 534240, Note_on_c, 0, 79, 122
2, 534299, Note_on_c, 0, 79, 0
2, 534299, Note_on_c, 0, 91, 0
2, 534299, Note_on_c, 0, 93, 121
2, 534299, Note_on_c, 0, 81, 111
2, 534360, Note_on_c, 0, 81, 0
2, 534360, Note_on_c, 0, 93, 0
2, 534360, Note_on_c, 0, 91, 109
2, 534360, Note_on_c, 0, 79, 96
2, 534420, Note_on_c, 0, 79, 0
2, 534420, Note_on_c, 0, 91, 0
2, 534420, Note_on_c, 0, 90, 117
2, 534420, Note_on_c, 0, 78, 98
2, 534600, Note_on_c, 0, 78, 0
2, 534600, Note_on_c, 0, 90, 0
2, 534600, Note_on_c, 0, 90, 122
2, 534600, Note_on_c, 0, 78, 122
2, 534659, Note_on_c, 0, 78, 0
2, 534659, Note_on_c, 0, 90, 0
2, 534659, Note_on_c, 0, 91, 121
2, 534659, Note_on_c, 0, 79, 109
2, 534720, Note_on_c, 0, 79, 0
2, 534720, Note_on_c, 0, 91, 0
2, 534720, Note_on_c, 0, 90, 108
2, 534720, Note_on_c, 0, 78, 101
2, 534780, Note_on_c, 0, 78, 0
2, 534780, Note_on_c, 0, 90, 0
2, 534780, Note_on_c, 0, 88, 109
2, 534780, Note_on_c, 0, 76, 100
2, 534960, Note_on_c, 0, 76, 0
2, 534960, Note_on_c, 0, 88, 0
2, 534960, Note_on_c, 0, 88, 122
2, 534960, Note_on_c, 0, 76, 122
2, 535019, Note_on_c, 0, 76, 0
2, 535019, Note_on_c, 0, 88, 0
2, 535019, Note_on_c, 0, 90, 121
2, 535019, Note_on_c, 0, 78, 114
2, 535080, Note_on_c, 0, 78, 0
2, 535080, Note_on_c, 0, 90, 0
2, 535080, Note_on_c, 0, 88, 112
2, 535080, Note_on_c, 0, 76, 95
2, 535140, Note_on_c, 0, 76, 0
2, 535140, Note_on_c, 0, 88, 0
2, 535140, Note_on_c, 0, 87, 110
2, 535140, Note_on_c, 0, 75, 98
2, 535320, Note_on_c, 0, 75, 0
2, 535320, Note_on_c, 0, 87, 0
2, 535320, Note_on_c, 0, 90, 122
2, 535320, Note_on_c, 0, 78, 122
2, 535379, Note_on_c, 0, 78, 0
2, 535379, Note_on_c, 0, 90, 0
2, 535379, Note_on_c, 0, 91, 121
2, 535379, Note_on_c, 0, 79, 108
2, 535440, Note_on_c, 0, 79, 0
2, 535440, Note_on_c, 0, 91, 0
2, 535440, Note_on_c, 0, 90, 111
2, 535440, Note_on_c, 0, 78, 99
2, 535500, Note_on_c, 0, 78, 0
2, 535500, Note_on_c, 0, 90, 0
2, 535500, Note_on_c, 0, 88, 113
2, 535500, Note_on_c, 0, 76, 93
2, 535680, Note_on_c, 0, 76, 0
2, 535680, Note_on_c, 0, 88, 0
2, 535680, Note_on_c, 0, 91, 122
2, 535680, Note_on_c, 0, 79, 122
2, 535739, Note_on_c, 0, 79, 0
2, 535739, Note_on_c, 0, 91, 0
2, 535739, Note_on_c, 0, 93, 121
2, 535739, Note_on_c, 0, 81, 112
2, 535800, Note_on_c, 0, 81, 0
2, 535800, Note_on_c, 0, 93, 0
2, 535800, Note_on_c, 0, 91, 108
2, 535800, Note_on_c, 0, 79, 92
2, 535860, Note_on_c, 0, 79, 0
2, 535860, Note_on_c, 0, 91, 0
2, 535860, Note_on_c, 0, 90, 114
2, 535860, Note_on_c, 0, 78, 93
2, 536040, Note_on_c, 0, 78, 0
2, 536040, Note_on_c, 0, 90, 0
2, 536040, Note_on_c, 0, 90, 122
2, 536040, Note_on_c, 0, 78, 122
2, 536099, Note_on_c, 0, 78, 0
2, 536099, Note_on_c, 0, 90, 0
2, 536099, Note_on_c, 0, 91, 121
2, 536099, Note_on_c, 0, 79, 108
2, 536160, Note_on_c, 0, 79, 0
2, 536160, Note_on_c, 0, 91, 0
2, 536160, Note_on_c, 0, 90, 113
2, 536160, Note_on_c, 0, 78, 97
2, 536220, Note_on_c, 0, 78, 0
2, 536220, Note_on_c, 0, 90, 0
2, 536220, Note_on_c, 0, 88, 110
2, 536220, Note_on_c, 0, 76, 103
2, 536400, Note_on_c, 0, 76, 0
2, 536400, Note_on_c, 0, 88, 0
2, 536400, Note_on_c, 0, 88, 122
2, 536400, Note_on_c, 0, 76, 122
2, 536459, Note_on_c, 0, 76, 0
2, 536459, Note_on_c, 0, 88, 0
2, 536459, Note_on_c, 0, 90, 121
2, 536459, Note_on_c, 0, 78, 110
2, 536520, Note_on_c, 0, 78, 0
2, 536520, Note_on_c, 0, 90, 0
2, 536520, Note_on_c, 0, 88, 110
2, 536520, Note_on_c, 0, 76, 99
2, 536580, Note_on_c, 0, 76, 0
2, 536580, Note_on_c, 0, 88, 0
2, 536580, Note_on_c, 0, 87, 107
2, 536580, Note_on_c, 0, 75, 98
2, 536760, Note_on_c, 0, 75, 0
2, 536760, Note_on_c, 0, 87, 0
2, 536760, Note_on_c, 0, 90, 122
2, 536760, Note_on_c, 0, 78, 122
2, 536819, Note_on_c, 0, 78, 0
2, 536819, Note_on_c, 0, 90, 0
2, 536819, Note_on_c, 0, 91, 120
2, 536819, Note_on_c, 0, 79, 112
2, 536880, Note_on_c, 0, 79, 0
2, 536880, Note_on_c, 0, 91, 0
2, 536880, Note_on_c, 0, 90, 114
2, 536880, Note_on_c, 0, 78, 99
2, 536940, Note_on_c, 0, 78, 0
2, 536940, Note_on_c, 0, 90, 0
2, 536940, Note_on_c, 0, 88, 113
2, 536940, Note_on_c, 0, 76, 100
2, 537120, Note_on_c, 0, 76, 0
2, 537120, Note_on_c, 0, 88, 0
2, 537120, Note_on_c, 0, 91, 122
2, 537120, Note_on_c, 0, 79, 122
2, 537179, Note_on_c, 0, 79, 0
2, 537179, Note_on_c, 0, 91, 0
2, 537179, Note_on_c, 0, 93, 121
2, 537179, Note_on_c, 0, 81, 108
2, 537240, Note_on_c, 0, 81, 0
2, 537240, Note_on_c, 0, 93, 0
2, 537240, Note_on_c, 0, 91, 107
2, 537240, Note_on_c, 0, 79, 96
2, 537300, Note_on_c, 0, 79, 0
2, 537300, Note_on_c, 0, 91, 0
2, 537300, Note_on_c, 0, 90, 110
2, 537300, Note_on_c, 0, 78, 95
2, 537480, Note_on_c, 0, 78, 0
2, 537480, Note_on_c, 0, 90, 0
2, 537480, Note_on_c, 0, 90, 122
2, 537480, Note_on_c, 0, 78, 122
2, 537539, Note_on_c, 0, 78, 0
2, 537539, Note_on_c, 0, 90, 0
2, 537539, Note_on_c, 0, 91, 121
2, 537539, Note_on_c, 0, 79, 108
2, 537600, Note_on_c, 0, 79, 0
2, 537600, Note_on_c, 0, 91, 0
2, 537600, Note_on_c, 0, 90, 116
2, 537600, Note_on_c, 0, 78, 97
2, 537660, Note_on_c, 0, 78, 0
2, 537660, Note_on_c, 0, 90, 0
2, 537660, Note_on_c, 0, 88, 110
2, 537660, Note_on_c, 0, 76, 102
2, 537840, Note_on_c, 0, 76, 0
2, 537840, Note_on_c, 0, 88, 0
2, 537840, Note_on_c, 0, 91, 122
2, 537840, Note_on_c, 0, 79, 122
2, 537899, Note_on_c, 0, 79, 0
2, 537899, Note_on_c, 0, 91, 0
2, 537899, Note_on_c, 0, 93, 121
2, 537899, Note_on_c, 0, 81, 112
2, 537960, Note_on_c, 0, 81, 0
2, 537960, Note_on_c, 0, 93, 0
2, 537960, Note_on_c, 0, 91, 110
2, 537960, Note_on_c, 0, 79, 94
2, 538020, Note_on_c, 0, 79, 0
2, 538020, Note_on_c, 0, 91, 0
2, 538020, Note_on_c, 0, 90, 110
2, 538020, Note_on_c, 0, 78, 98
2, 538200, Note_on_c, 0, 78, 0
2, 538200, Note_on_c, 0, 90, 0
2, 538200, Note_on_c, 0, 90, 122
2, 538200, Note_on_c, 0, 78, 122
2, 538259, Note_on_c, 0, 78, 0
2, 538259, Note_on_c, 0, 90, 0
2, 538259, Note_on_c, 0, 91, 121
2, 538259, Note_on_c, 0, 79, 111
2, 538320, Note_on_c, 0, 79, 0
2, 538320, Note_on_c, 0, 91, 0
2, 538320, Note_on_c, 0, 90, 113
2, 538320, Note_on_c, 0, 78, 102
2, 538380, Note_on_c, 0, 78, 0
2, 538380, Note_on_c, 0, 90, 0
2, 538380, Note_on_c, 0, 88, 111
2, 538380, Note_on_c, 0, 76, 96
2, 538560, Note_on_c, 0, 76, 0
2, 538560, Note_on_c, 0, 88, 0
2, 538560, Note_on_c, 0, 91, 122
2, 538560, Note_on_c, 0, 79, 122
2, 538619, Note_on_c, 0, 79, 0
2, 538619, Note_on_c, 0, 91, 0
2, 538619, Note_on_c, 0, 93, 121
2, 538619, Note_on_c, 0, 81, 112
2, 538680, Note_on_c, 0, 81, 0
2, 538680, Note_on_c, 0, 93, 0
2, 538680, Note_on_c, 0, 91, 113
2, 538680, Note_on_c, 0, 79, 94
2, 538740, Note_on_c, 0, 79, 0
2, 538740, Note_on_c, 0, 91, 0
2, 538740, Note_on_c, 0, 90, 114
2, 538740, Note_on_c, 0, 78, 98
2, 538920, Note_on_c, 0, 78, 0
2, 538920, Note_on_c, 0, 90, 0
2, 538920, Note_on_c, 0, 90, 122
2, 538920, Note_on_c, 0, 78, 122
2, 538979, Note_on_c, 0, 78, 0
2, 538979, Note_on_c, 0, 90, 0
2, 538979, Note_on_c, 0, 91, 121
2, 538979, Note_on_c, 0, 79, 109
2, 539040, Note_on_c, 0, 79, 0
2, 539040, Note_on_c, 0, 91, 0
2, 539040, Note_on_c, 0, 90, 112
2, 539040, Note_on_c, 0, 78, 104
2, 539100, Note_on_c, 0, 78, 0
2, 539100, Note_on_c, 0, 90, 0
2, 539100, Note_on_c, 0, 88, 109
2, 539100, Note_on_c, 0, 76, 96
2, 539280, Note_on_c, 0, 76, 0
2, 539280, Note_on_c, 0, 88, 0
2, 539280, Note_on_c, 0, 91, 122
2, 539280, Note_on_c, 0, 79, 122
2, 539339, Note_on_c, 0, 79, 0
2, 539339, Note_on_c, 0, 91, 0
2, 539339, Note_on_c, 0, 93, 121
2, 539339, Note_on_c, 0, 81, 111
2, 539400, Note_on_c, 0, 81, 0
2, 539400, Note_on_c, 0, 93, 0
2, 539400, Note_on_c, 0, 91, 107
2, 539400, Note_on_c, 0, 79, 99
2, 539460, Note_on_c, 0, 79, 0
2, 539460, Note_on_c, 0, 91, 0
2, 539460, Note_on_c, 0, 90, 109
2, 539460, Note_on_c, 0, 78, 94
2, 539640, Note_on_c, 0, 78, 0
2, 539640, Note_on_c, 0, 90, 0
2, 539640, Note_on_c, 0, 90, 122
2, 539640, Note_on_c, 0, 78, 122
2, 539699, Note_on_c, 0, 78, 0
2, 539699, Note_on_c, 0, 90, 0
2, 539699, Note_on_c, 0, 91, 121
2, 539699, Note_on_c, 0, 79, 111
2, 539760, Note_on_c, 0, 79, 0
2, 539760, Note_on_c, 0, 91, 0
2, 539760, Note_on_c, 0, 90, 116
2, 539760, Note_on_c, 0, 78, 96
2, 539820, Note_on_c, 0, 78, 0
2, 539820, Note_on_c, 0, 90, 0
2, 539820, Note_on_c, 0, 88, 110
2, 539820, Note_on_c, 0, 76, 97
2, 540000, Note_on_c, 0, 76, 0
2, 540000, Note_on_c, 0, 88, 0
2, 540000, Note_on_c, 0, 91, 121
2, 540000, Note_on_c, 0, 79, 113
2, 540090, Note_on_c, 0, 79, 0
2, 540090, Note_on_c, 0, 91, 0
2, 540090, Note_on_c, 0, 93, 121
2, 540090, Note_on_c, 0, 81, 111
2, 540180, Note_on_c, 0, 81, 0
2, 540180, Note_on_c, 0, 93, 0
2, 540180, Note_on_c, 0, 91, 108
2, 540180, Note_on_c, 0, 79, 97
2, 540270, Note_on_c, 0, 79, 0
2, 540270, Note_on_c, 0, 91, 0
2, 540270, Note_on_c, 0, 93, 121
2, 540270, Note_on_c, 0, 81, 106
2, 540360, Note_on_c, 0, 81, 0
2, 540360, Note_on_c, 0, 93, 0
2, 540360, Note_on_c, 0, 91, 115
2, 540360, Note_on_c, 0, 79, 96
2, 540450, Note_on_c, 0, 79, 0
2, 540450, Note_on_c, 0, 91, 0
2, 540450, Note_on_c, 0, 93, 121
2, 540450, Note_on_c, 0, 81, 110
2, 540540, Note_on_c, 0, 81, 0
2, 540540, Note_on_c, 0, 93, 0
2, 540540, Note_on_c, 0, 91, 112
2, 540540, Note_on_c, 0, 79, 97
2, 540630, Note_on_c, 0, 79, 0
2, 540630, Note_on_c, 0, 91, 0
2, 540630, Note_on_c, 0, 93, 121
2, 540630, Note_on_c, 0, 81, 112
2, 540720, Note_on_c, 0, 81, 0
2, 540720, Note_on_c, 0, 93, 0
2, 540720, Note_on_c, 0, 91, 107
2, 540720, Note_on_c, 0, 79, 98
2, 540810, Note_on_c, 0, 79, 0
2, 540810, Note_on_c, 0, 91, 0
2, 540810, Note_on_c, 0, 93, 121
2, 540810, Note_on_c, 0, 81, 109
2, 540900, Note_on_c, 0, 81, 0
2, 540900, Note_on_c, 0, 93, 0
2, 540900, Note_on_c, 0, 91, 109
2, 540900, Note_on_c, 0, 79, 95
2, 540990, Note_on_c, 0, 79, 0
2, 540990, Note_on_c, 0, 91, 0
2, 540990, Note_on_c, 0, 93, 121
2, 540990, Note_on_c, 0, 81, 110
2, 541080, Note_on_c, 0, 81, 0
2, 541080, Note_on_c, 0, 93, 0
2, 541080, Note_on_c, 0, 91, 112
2, 541080, Note_on_c, 0, 79, 101
2, 541170, Note_on_c, 0, 79, 0
2, 541170, Note_on_c, 0, 91, 0
2, 541170, Note_on_c, 0, 93, 121
2, 541170, Note_on_c, 0, 81, 111
2, 541260, Note_on_c, 0, 81, 0
2, 541260, Note_on_c, 0, 93, 0
2, 541260, Note_on_c, 0, 91, 108
2, 541260, Note_on_c, 0, 79, 101
2, 541350, Note_on_c, 0, 79, 0
2, 541350, Note_on_c, 0, 91, 0
2, 541350, Note_on_c, 0, 93, 121
2, 541350, Note_on_c, 0, 81, 108
2, 541440, Note_on_c, 0, 81, 0
2, 541440, Note_on_c, 0, 93, 0
2, 541440, Note_on_c, 0, 91, 110
2, 541440, Note_on_c, 0, 79, 102
2, 541530, Note_on_c, 0, 79, 0
2, 541530, Note_on_c, 0, 91, 0
2, 541530, Note_on_c, 0, 93, 121
2, 541530, Note_on_c, 0, 81, 111
2, 541620, Note_on_c, 0, 81, 0
2, 541620, Note_on_c, 0, 93, 0
2, 541620, Note_on_c, 0, 91, 116
2, 541620, Note_on_c, 0, 79, 103
2, 541710, Note_on_c, 0, 79, 0
2, 541710, Note_on_c, 0, 91, 0
2, 541710, Note_on_c, 0, 93, 121
2, 541710, Note_on_c, 0, 81, 110
2, 541800, Note_on_c, 0, 81, 0
2, 541800, Note_on_c, 0, 93, 0
2, 541800, Note_on_c, 0, 91, 114
2, 541800, Note_on_c, 0, 79, 98
2, 541890, Note_on_c, 0, 79, 0
2, 541890, Note_on_c, 0, 91, 0
2, 541890, Note_on_c, 0, 93, 121
2, 541890, Note_on_c, 0, 81, 109
2, 541980, Note_on_c, 0, 81, 0
2, 541980, Note_on_c, 0, 93, 0
2, 541980, Note_on_c, 0, 91, 113
2, 541980, Note_on_c, 0, 79, 101
2, 542070, Note_on_c, 0, 79, 0
2, 542070, Note_on_c, 0, 91, 0
2, 542070, Note_on_c, 0, 93, 121
2, 542070, Note_on_c, 0, 81, 110
2, 542160, Note_on_c, 0, 81, 0
2, 542160, Note_on_c, 0, 93, 0
2, 542160, Note_on_c, 0, 91, 112
2, 542160, Note_on_c, 0, 79, 94
2, 542250, Note_on_c, 0, 79, 0
2, 542250, Note_on_c, 0, 91, 0
2, 542250, Note_on_c, 0, 93, 121
2, 542250, Note_on_c, 0, 81, 111
2, 542340, Note_on_c, 0, 81, 0
2, 542340, Note_on_c, 0, 93, 0
2, 542340, Note_on_c, 0, 91, 110
2, 542340, Note_on_c, 0, 79, 95
2, 542430, Note_on_c, 0, 79, 0
2, 542430, Note_on_c, 0, 91, 0
2, 542430, Note_on_c, 0, 93, 121
2, 542430, Note_on_c, 0, 81, 110
2, 542520, Note_on_c, 0, 81, 0
2, 542520, Note_on_c, 0, 93, 0
2, 542520, Note_on_c, 0, 91, 113
2, 542520, Note_on_c, 0, 79, 96
2, 542610, Note_on_c, 0, 79, 0
2, 542610, Note_on_c, 0, 91, 0
2, 542610, Note_on_c, 0, 93, 121
2, 542610, Note_on_c, 0, 81, 111
2, 542700, Note_on_c, 0, 81, 0
2, 542700, Note_on_c, 0, 93, 0
2, 542700, Note_on_c, 0, 91, 108
2, 542700, Note_on_c, 0, 79, 101
2, 542790, Note_on_c, 0, 79, 0
2, 542790, Note_on_c, 0, 91, 0
2, 542790, Note_on_c, 0, 93, 121
2, 542790, Note_on_c, 0, 81, 110
2, 542880, Note_on_c, 0, 81, 0
2, 542880, Note_on_c, 0, 93, 0
2, 542880, Note_on_c, 0, 91, 112
2, 542880, Note_on_c, 0, 79, 99
2, 542970, Note_on_c, 0, 79, 0
2, 542970, Note_on_c, 0, 91, 0
2, 542970, Note_on_c, 0, 93, 121
2, 542970, Note_on_c, 0, 81, 113
2, 543060, Note_on_c, 0, 81, 0
2, 543060, Note_on_c, 0, 93, 0
2, 543060, Note_on_c, 0, 91, 113
2, 543060, Note_on_c, 0, 79, 94
2, 543150, Note_on_c, 0, 79, 0
2, 543150, Note_on_c, 0, 91, 0
2, 543150, Note_on_c, 0, 93, 121
2, 543150, Note_on_c, 0, 81, 111
2, 543240, Note_on_c, 0, 81, 0
2, 543240, Note_on_c, 0, 93, 0
2, 543240, Note_on_c, 0, 91, 115
2, 543240, Note_on_c, 0, 79, 97
2, 543330, Note_on_c, 0, 79, 0
2, 543330, Note_on_c, 0, 91, 0
2, 543330, Note_on_c, 0, 93, 121
2, 543330, Note_on_c, 0, 81, 113
2, 543420, Note_on_c, 0, 81, 0
2, 543420, Note_on_c, 0, 93, 0
2, 543420, Note_on_c, 0, 91, 112
2, 543420, Note_on_c, 0, 79, 99
2, 543510, Note_on_c, 0, 79, 0
2, 543510, Note_on_c, 0, 91, 0
2, 543510, Note_on_c, 0, 93, 121
2, 543510, Note_on_c, 0, 81, 108
2, 543600, Note_on_c, 0, 81, 0
2, 543600, Note_on_c, 0, 93, 0
2, 543600, Note_on_c, 0, 91, 108
2, 543600, Note_on_c, 0, 79, 98
2, 543690, Note_on_c, 0, 79, 0
2, 543690, Note_on_c, 0, 91, 0
2, 543690, Note_on_c, 0, 93, 121
2, 543690, Note_on_c, 0, 81, 108
2, 543780, Note_on_c, 0, 81, 0
2, 543780, Note_on_c, 0, 93, 0
2, 543780, Note_on_c, 0, 91, 109
2, 543780, Note_on_c, 0, 79, 95
2, 543870, Note_on_c, 0, 79, 0
2, 543870, Note_on_c, 0, 91, 0
2, 543870, Note_on_c, 0, 93, 121
2, 543870, Note_on_c, 0, 81, 112
2, 543960, Note_on_c, 0, 81, 0
2, 543960, Note_on_c, 0, 93, 0
2, 543960, Note_on_c, 0, 91, 114
2, 543960, Note_on_c, 0, 79, 92
2, 544050, Note_on_c, 0, 79, 0
2, 544050, Note_on_c, 0, 91, 0
2, 544050, Note_on_c, 0, 93, 121
2, 544050, Note_on_c, 0, 81, 109
2, 544140, Note_on_c, 0, 81, 0
2, 544140, Note_on_c, 0, 93, 0
2, 544140, Note_on_c, 0, 91, 113
2, 544140, Note_on_c, 0, 79, 99
2, 544230, Note_on_c, 0, 79, 0
2, 544230, Note_on_c, 0, 91, 0
2, 544230, Note_on_c, 0, 93, 121
2, 544230, Note_on_c, 0, 81, 114
2, 544320, Note_on_c, 0, 81, 0
2, 544320, Note_on_c, 0, 93, 0
2, 544320, Note_on_c, 0, 91, 107
2, 544320, Note_on_c, 0, 79, 97
2, 544410, Note_on_c, 0, 79, 0
2, 544410, Note_on_c, 0, 91, 0
2, 544410, Note_on_c, 0, 93, 121
2, 544410, Note_on_c, 0, 81, 109
2, 544500, Note_on_c, 0, 81, 0
2, 544500, Note_on_c, 0, 93, 0
2, 544500, Note_on_c, 0, 91, 111
2, 544500, Note_on_c, 0, 79, 102
2, 544590, Note_on_c, 0, 79, 0
2, 544590, Note_on_c, 0, 91, 0
2, 544590, Note_on_c, 0, 93, 121
2, 544590, Note_on_c, 0, 81, 112
2, 544680, Note_on_c, 0, 81, 0
2, 544680, Note_on_c, 0, 93, 0
2, 544680, Note_on_c, 0, 91, 113
2, 544680, Note_on_c, 0, 79, 94
2, 544770, Note_on_c, 0, 79, 0
2, 544770, Note_on_c, 0, 91, 0
2, 544770, Note_on_c, 0, 93, 121
2, 544770, Note_on_c, 0, 81, 109
2, 544860, Note_on_c, 0, 81, 0
2, 544860, Note_on_c, 0, 93, 0
2, 544860, Note_on_c, 0, 91, 111
2, 544860, Note_on_c, 0, 79, 94
2, 544950, Note_on_c, 0, 79, 0
2, 544950, Note_on_c, 0, 91, 0
2, 544950, Note_on_c, 0, 93, 121
2, 544950, Note_on_c, 0, 81, 109
2, 545040, Note_on_c, 0, 81, 0
2, 545040, Note_on_c, 0, 93, 0
2, 545040, Note_on_c, 0, 91, 112
2, 545040, Note_on_c, 0, 79, 98
2, 545130, Note_on_c, 0, 79, 0
2, 545130, Note_on_c, 0, 91, 0
2, 545130, Note_on_c, 0, 93, 121
2, 545130, Note_on_c, 0, 81, 115
2, 545220, Note_on_c, 0, 81, 0
2, 545220, Note_on_c, 0, 93, 0
2, 545220, Note_on_c, 0, 91, 113
2, 545220, Note_on_c, 0, 79, 98
2, 545310, Note_on_c, 0, 79, 0
2, 545310, Note_on_c, 0, 91, 0
2, 545310, Note_on_c, 0, 93, 121
2, 545310, Note_on_c, 0, 81, 110
2, 545400, Note_on_c, 0, 81, 0
2, 545400, Note_on_c, 0, 93, 0
2, 545400, Note_on_c, 0, 91, 110
2, 545400, Note_on_c, 0, 79, 98
2, 545490, Note_on_c, 0, 79, 0
2, 545490, Note_on_c, 0, 91, 0
2, 545490, Note_on_c, 0, 93, 121
2, 545490, Note_on_c, 0, 81, 110
2, 545580, Note_on_c, 0, 81, 0
2, 545580, Note_on_c, 0, 93, 0
2, 545580, Note_on_c, 0, 91, 110
2, 545580, Note_on_c, 0, 79, 92
2, 545670, Note_on_c, 0, 79, 0
2, 545670, Note_on_c, 0, 91, 0
2, 545670, Note_on_c, 0, 93, 121
2, 545670, Note_on_c, 0, 81, 106
2, 545760, Note_on_c, 0, 81, 0
2, 545760, Note_on_c, 0, 93, 0
2, 545760, Note_on_c, 0, 91, 108
2, 545760, Note_on_c, 0, 79, 100
2, 545850, Note_on_c, 0, 79, 0
2, 545850, Note_on_c, 0, 91, 0
2, 545850, Note_on_c, 0, 93, 120
2, 545850, Note_on_c, 0, 81, 112
2, 545940, Note_on_c, 0, 81, 0
2, 545940, Note_on_c, 0, 93, 0
2, 545940, Note_on_c, 0, 91, 113
2, 545940, Note_on_c, 0, 79, 96
2, 546030, Note_on_c, 0, 79, 0
2, 546030, Note_on_c, 0, 91, 0
2, 546030, Note_on_c, 0, 93, 121
2, 546030, Note_on_c, 0, 81, 112
2, 546120, Note_on_c, 0, 81, 0
2, 546120, Note_on_c, 0, 93, 0
2, 546120, Note_on_c, 0, 91, 106
2, 546120, Note_on_c, 0, 79, 97
2, 546300, Note_on_c, 0, 79, 0
2, 546300, Note_on_c, 0, 91, 0
2, 546480, Note_on_c, 0, 91, 108
2, 546480, Note_on_c, 0, 79, 94
2, 546570, Note_on_c, 0, 79, 0
2, 546570, Note_on_c, 0, 91, 0
2, 546570, Note_on_c, 0, 93, 121
2, 546570, Note_on_c, 0, 81, 109
2, 546660, Note_on_c, 0, 81, 0
2, 546660, Note_on_c, 0, 93, 0
2, 546660, Note_on_c, 0, 91, 109
2, 546660, Note_on_c, 0, 79, 98
2, 546750, Note_on_c, 0, 79, 0
2, 546750, Note_on_c, 0, 91, 0
2, 546750, Note_on_c, 0, 93, 121
2, 546750, Note_on_c, 0, 81, 111
2, 546840, Note_on_c, 0, 81, 0
2, 546840, Note_on_c, 0, 93, 0
2, 546840, Note_on_c, 0, 91, 112
2, 546840, Note_on_c, 0, 79, 98
2, 547020, Note_on_c, 0, 79, 0
2, 547020, Note_on_c, 0, 91, 0
2, 547200, Note_on_c, 0, 91, 107
2, 547200, Note_on_c, 0, 79, 87
2, 547290, Note_on_c, 0, 79, 0
2, 547290, Note_on_c, 0, 91, 0
2, 547290, Note_on_c, 0, 93, 121
2, 547290, Note_on_c, 0, 81, 108
2, 547380, Note_on_c, 0, 81, 0
2, 547380, Note_on_c, 0, 93, 0
2, 547380, Note_on_c, 0, 91, 108
2, 547380, Note_on_c, 0, 79, 101
2, 547470, Note_on_c, 0, 79, 0
2, 547470, Note_on_c, 0, 91, 0
2, 547470, Note_on_c, 0, 93, 121
2, 547470, Note_on_c, 0, 81, 108
2, 547560, Note_on_c, 0, 81, 0
2, 547560, Note_on_c, 0, 93, 0
2, 547560, Note_on_c, 0, 91, 116
2, 547560, Note_on_c, 0, 79, 94
2, 547740, Note_on_c, 0, 79, 0
2, 547740, Note_on_c, 0, 91, 0
2, 547920, Note_on_c, 0, 91, 102
2, 547920, Note_on_c, 0, 79, 94
2, 548010, Note_on_c, 0, 79, 0
2, 548010, Note_on_c, 0, 91, 0
2, 548010, Note_on_c, 0, 93, 121
2, 548010, Note_on_c, 0, 81, 110
2, 548100, Note_on_c, 0, 81, 0
2, 548100, Note_on_c, 0, 93, 0
2, 548100, Note_on_c, 0, 91, 109
2, 548100, Note_on_c, 0, 79, 93
2, 548190, Note_on_c, 0, 79, 0
2, 548190, Note_on_c, 0, 91, 0
2, 548190, Note_on_c, 0, 93, 121
2, 548190, Note_on_c, 0, 81, 109
2, 548280, Note_on_c, 0, 81, 0
2, 548280, Note_on_c, 0, 93, 0
2, 548280, Note_on_c, 0, 91, 112
2, 548280, Note_on_c, 0, 79, 99
2, 548460, Note_on_c, 0, 79, 0
2, 548460, Note_on_c, 0, 91, 0
2, 548640, Note_on_c, 0, 83, 89
2, 548640, Note_on_c, 0, 86, 89
2, 548640, Note_on_c, 0, 71, 82
2, 548640, Note_on_c, 0, 74, 82
2, 548729, Note_on_c, 0, 74, 0
2, 548729, Note_on_c, 0, 83, 0
2, 548729, Note_on_c, 0, 86, 0
2, 548729, Note_on_c, 0, 71, 0
2, 548820, Note_on_c, 0, 83, 90
2, 548820, Note_on_c, 0, 86, 90
2, 548820, Note_on_c, 0, 71, 90
2, 548820, Note_on_c, 0, 74, 90
2, 548909, Note_on_c, 0, 74, 0
2, 548909, Note_on_c, 0, 83, 0
2, 548909, Note_on_c, 0, 86, 0
2, 548909, Note_on_c, 0, 71, 0
2, 549000, Note_on_c, 0, 81, 81
2, 549000, Note_on_c, 0, 84, 81
2, 549000, Note_on_c, 0, 69, 87
2, 549000, Note_on_c, 0, 72, 87
2, 549089, Note_on_c, 0, 72, 0
2, 549089, Note_on_c, 0, 81, 0
2, 549089, Note_on_c, 0, 84, 0
2, 549089, Note_on_c, 0, 69, 0
2, 549180, Note_on_c, 0, 81, 89
2, 549180, Note_on_c, 0, 84, 89
2, 549180, Note_on_c, 0, 69, 89
2, 549180, Note_on_c, 0, 72, 89
2, 549269, Note_on_c, 0, 72, 0
2, 549269, Note_on_c, 0, 81, 0
2, 549269, Note_on_c, 0, 84, 0
2, 549269, Note_on_c, 0, 69, 0
2, 549360, Note_on_c, 0, 79, 87
2, 549360, Note_on_c, 0, 83, 87
2, 549360, Note_on_c, 0, 67, 84
2, 549360, Note_on_c, 0, 71, 84
2, 549449, Note_on_c, 0, 71, 0
2, 549449, Note_on_c, 0, 79, 0
2, 549449, Note_on_c, 0, 83, 0
2, 549449, Note_on_c, 0, 67, 0
2, 549540, Note_on_c, 0, 79, 100
2, 549540, Note_on_c, 0, 82, 100
2, 549540, Note_on_c, 0, 67, 102
2, 549540, Note_on_c, 0, 70, 102
2, 549857, Note_on_c, 0, 70, 0
2, 549857, Note_on_c, 0, 79, 0
2, 549857, Note_on_c, 0, 82, 0
2, 549857, Note_on_c, 0, 67, 0
2, 549900, Note_on_c, 0, 79, 93
2, 549900, Note_on_c, 0, 82, 93
2, 549900, Note_on_c, 0, 67, 94
2, 549900, Note_on_c, 0, 70, 94
2, 549989, Note_on_c, 0, 70, 0
2, 549989, Note_on_c, 0, 79, 0
2, 549989, Note_on_c, 0, 82, 0
2, 549989, Note_on_c, 0, 67, 0
2, 550080, Note_on_c, 0, 83, 107
2, 550080, Note_on_c, 0, 86, 107
2, 550080, Note_on_c, 0, 71, 105
2, 550080, Note_on_c, 0, 74, 105
2, 550169, Note_on_c, 0, 74, 0
2, 550169, Note_on_c, 0, 83, 0
2, 550169, Note_on_c, 0, 86, 0
2, 550169, Note_on_c, 0, 71, 0
2, 550260, Note_on_c, 0, 83, 91
2, 550260, Note_on_c, 0, 86, 91
2, 550260, Note_on_c, 0, 71, 94
2, 550260, Note_on_c, 0, 74, 94
2, 550349, Note_on_c, 0, 74, 0
2, 550349, Note_on_c, 0, 83, 0
2, 550349, Note_on_c, 0, 86, 0
2, 550349, Note_on_c, 0, 71, 0
2, 550440, Note_on_c, 0, 81, 85
2, 550440, Note_on_c, 0, 84, 85
2, 550440, Note_on_c, 0, 69, 90
2, 550440, Note_on_c, 0, 72, 90
2, 550529, Note_on_c, 0, 72, 0
2, 550529, Note_on_c, 0, 81, 0
2, 550529, Note_on_c, 0, 84, 0
2, 550529, Note_on_c, 0, 69, 0
2, 550620, Note_on_c, 0, 81, 92
2, 550620, Note_on_c, 0, 84, 92
2, 550620, Note_on_c, 0, 69, 94
2, 550620, Note_on_c, 0, 72, 94
2, 550709, Note_on_c, 0, 72, 0
2, 550709, Note_on_c, 0, 81, 0
2, 550709, Note_on_c, 0, 84, 0
2, 550709, Note_on_c, 0, 69, 0
2, 550800, Note_on_c, 0, 79, 90
2, 550800, Note_on_c, 0, 83, 90
2, 550800, Note_on_c, 0, 67, 89
2, 550800, Note_on_c, 0, 71, 89
2, 550889, Note_on_c, 0, 71, 0
2, 550889, Note_on_c, 0, 79, 0
2, 550889, Note_on_c, 0, 83, 0
2, 550889, Note_on_c, 0, 67, 0
2, 550980, Note_on_c, 0, 79, 97
2, 550980, Note_on_c, 0, 82, 97
2, 550980, Note_on_c, 0, 67, 103
2, 550980, Note_on_c, 0, 70, 103
2, 551297, Note_on_c, 0, 70, 0
2, 551297, Note_on_c, 0, 79, 0
2, 551297, Note_on_c, 0, 82, 0
2, 551297, Note_on_c, 0, 67, 0
2, 551340, Note_on_c, 0, 79, 92
2, 551340, Note_on_c, 0, 82, 92
2, 551340, Note_on_c, 0, 67, 90
2, 551340, Note_on_c, 0, 70, 90
2, 551429, Note_on_c, 0, 70, 0
2, 551429, Note_on_c, 0, 79, 0
2, 551429, Note_on_c, 0, 82, 0
2, 551429, Note_on_c, 0, 67, 0
2, 551520, Note_on_c, 0, 87, 121
2, 551520, Note_on_c, 0, 90, 121
2, 551520, Note_on_c, 0, 75, 121
2, 551520, Note_on_c, 0, 78, 121
2, 551609, Note_on_c, 0, 78, 0
2, 551609, Note_on_c, 0, 87, 0
2, 551609, Note_on_c, 0, 90, 0
2, 551609, Note_on_c, 0, 75, 0
2, 551700, Note_on_c, 0, 87, 115
2, 551700, Note_on_c, 0, 90, 115
2, 551700, Note_on_c, 0, 75, 111
2, 551700, Note_on_c, 0, 78, 111
2, 551789, Note_on_c, 0, 78, 0
2, 551789, Note_on_c, 0, 87, 0
2, 551789, Note_on_c, 0, 90, 0
2, 551789, Note_on_c, 0, 75, 0
2, 551880, Note_on_c, 0, 85, 99
2, 551880, Note_on_c, 0, 88, 99
2, 551880, Note_on_c, 0, 73, 102
2, 551880, Note_on_c, 0, 76, 102
2, 551969, Note_on_c, 0, 76, 0
2, 551969, Note_on_c, 0, 85, 0
2, 551969, Note_on_c, 0, 88, 0
2, 551969, Note_on_c, 0, 73, 0
2, 552060, Note_on_c, 0, 85, 106
2, 552060, Note_on_c, 0, 88, 106
2, 552060, Note_on_c, 0, 73, 105
2, 552060, Note_on_c, 0, 76, 105
2, 552149, Note_on_c, 0, 76, 0
2, 552149, Note_on_c, 0, 85, 0
2, 552149, Note_on_c, 0, 88, 0
2, 552149, Note_on_c, 0, 73, 0
2, 552240, Note_on_c, 0, 83, 105
2, 552240, Note_on_c, 0, 87, 105
2, 552240, Note_on_c, 0, 71, 101
2, 552240, Note_on_c, 0, 75, 101
2, 552329, Note_on_c, 0, 75, 0
2, 552329, Note_on_c, 0, 83, 0
2, 552329, Note_on_c, 0, 87, 0
2, 552329, Note_on_c, 0, 71, 0
2, 552420, Note_on_c, 0, 83, 111
2, 552420, Note_on_c, 0, 86, 111
2, 552420, Note_on_c, 0, 71, 112
2, 552420, Note_on_c, 0, 74, 112
2, 552737, Note_on_c, 0, 74, 0
2, 552737, Note_on_c, 0, 83, 0
2, 552737, Note_on_c, 0, 86, 0
2, 552737, Note_on_c, 0, 71, 0
2, 552780, Note_on_c, 0, 83, 114
2, 552780, Note_on_c, 0, 86, 114
2, 552780, Note_on_c, 0, 71, 106
2, 552780, Note_on_c, 0, 74, 106
2, 552869, Note_on_c, 0, 74, 0
2, 552869, Note_on_c, 0, 83, 0
2, 552869, Note_on_c, 0, 86, 0
2, 552869, Note_on_c, 0, 71, 0
2, 552960, Note_on_c, 0, 87, 117
2, 552960, Note_on_c, 0, 90, 117
2, 552960, Note_on_c, 0, 75, 120
2, 552960, Note_on_c, 0, 78, 120
2, 553049, Note_on_c, 0, 78, 0
2, 553049, Note_on_c, 0, 87, 0
2, 553049, Note_on_c, 0, 90, 0
2, 553049, Note_on_c, 0, 75, 0
2, 553140, Note_on_c, 0, 87, 105
2, 553140, Note_on_c, 0, 90, 105
2, 553140, Note_on_c, 0, 75, 111
2, 553140, Note_on_c, 0, 78, 111
2, 553229, Note_on_c, 0, 78, 0
2, 553229, Note_on_c, 0, 87, 0
2, 553229, Note_on_c, 0, 90, 0
2, 553229, Note_on_c, 0, 75, 0
2, 553320, Note_on_c, 0, 85, 100
2, 553320, Note_on_c, 0, 88, 100
2, 553320, Note_on_c, 0, 73, 102
2, 553320, Note_on_c, 0, 76, 102
2, 553409, Note_on_c, 0, 76, 0
2, 553409, Note_on_c, 0, 85, 0
2, 553409, Note_on_c, 0, 88, 0
2, 553409, Note_on_c, 0, 73, 0
2, 553500, Note_on_c, 0, 85, 105
2, 553500, Note_on_c, 0, 88, 105
2, 553500, Note_on_c, 0, 73, 110
2, 553500, Note_on_c, 0, 76, 110
2, 553589, Note_on_c, 0, 76, 0
2, 553589, Note_on_c, 0, 85, 0
2, 553589, Note_on_c, 0, 88, 0
2, 553589, Note_on_c, 0, 73, 0
2, 553680, Note_on_c, 0, 83, 101
2, 553680, Note_on_c, 0, 87, 101
2, 553680, Note_on_c, 0, 71, 102
2, 553680, Note_on_c, 0, 75, 102
2, 553769, Note_on_c, 0, 75, 0
2, 553769, Note_on_c, 0, 83, 0
2, 553769, Note_on_c, 0, 87, 0
2, 553769, Note_on_c, 0, 71, 0
2, 553860, Note_on_c, 0, 83, 117
2, 553860, Note_on_c, 0, 86, 117
2, 553860, Note_on_c, 0, 71, 115
2, 553860, Note_on_c, 0, 74, 115
2, 554177, Note_on_c, 0, 74, 0
2, 554177, Note_on_c, 0, 83, 0
2, 554177, Note_on_c, 0, 86, 0
2, 554177, Note_on_c, 0, 71, 0
2, 554220, Note_on_c, 0, 83, 109
2, 554220, Note_on_c, 0, 86, 109
2, 554220, Note_on_c, 0, 71, 110
2, 554220, Note_on_c, 0, 74, 110
2, 554309, Note_on_c, 0, 74, 0
2, 554309, Note_on_c, 0, 83, 0
2, 554309, Note_on_c, 0, 86, 0
2, 554309, Note_on_c, 0, 71, 0
2, 554400, Note_on_c, 0, 87, 89
2, 554400, Note_on_c, 0, 90, 89
2, 554400, Note_on_c, 0, 75, 85
2, 554400, Note_on_c, 0, 78, 85
2, 554489, Note_on_c, 0, 78, 0
2, 554489, Note_on_c, 0, 87, 0
2, 554489, Note_on_c, 0, 90, 0
2, 554489, Note_on_c, 0, 75, 0
2, 554580, Note_on_c, 0, 87, 78
2, 554580, Note_on_c, 0, 90, 78
2, 554580, Note_on_c, 0, 75, 78
2, 554580, Note_on_c, 0, 78, 78
2, 554669, Note_on_c, 0, 78, 0
2, 554669, Note_on_c, 0, 87, 0
2, 554669, Note_on_c, 0, 90, 0
2, 554669, Note_on_c, 0, 75, 0
2, 554760, Note_on_c, 0, 85, 80
2, 554760, Note_on_c, 0, 88, 80
2, 554760, Note_on_c, 0, 73, 80
2, 554760, Note_on_c, 0, 76, 80
2, 554849, Note_on_c, 0, 76, 0
2, 554849, Note_on_c, 0, 85, 0
2, 554849, Note_on_c, 0, 88, 0
2, 554849, Note_on_c, 0, 73, 0
2, 554940, Note_on_c, 0, 85, 82
2, 554940, Note_on_c, 0, 88, 82
2, 554940, Note_on_c, 0, 73, 82
2, 554940, Note_on_c, 0, 76, 82
2, 555029, Note_on_c, 0, 76, 0
2, 555029, Note_on_c, 0, 85, 0
2, 555029, Note_on_c, 0, 88, 0
2, 555029, Note_on_c, 0, 73, 0
2, 555120, Note_on_c, 0, 87, 83
2, 555120, Note_on_c, 0, 90, 83
2, 555120, Note_on_c, 0, 75, 83
2, 555120, Note_on_c, 0, 78, 83
2, 555209, Note_on_c, 0, 78, 0
2, 555209, Note_on_c, 0, 87, 0
2, 555209, Note_on_c, 0, 90, 0
2, 555209, Note_on_c, 0, 75, 0
2, 555300, Note_on_c, 0, 87, 85
2, 555300, Note_on_c, 0, 90, 85
2, 555300, Note_on_c, 0, 75, 85
2, 555300, Note_on_c, 0, 78, 85
2, 555389, Note_on_c, 0, 78, 0
2, 555389, Note_on_c, 0, 87, 0
2, 555389, Note_on_c, 0, 90, 0
2, 555389, Note_on_c, 0, 75, 0
2, 555480, Note_on_c, 0, 85, 87
2, 555480, Note_on_c, 0, 88, 87
2, 555480, Note_on_c, 0, 73, 87
2, 555480, Note_on_c, 0, 76, 87
2, 555569, Note_on_c, 0, 76, 0
2, 555569, Note_on_c, 0, 85, 0
2, 555569, Note_on_c, 0, 88, 0
2, 555569, Note_on_c, 0, 73, 0
2, 555660, Note_on_c, 0, 85, 88
2, 555660, Note_on_c, 0, 88, 88
2, 555660, Note_on_c, 0, 73, 88
2, 555660, Note_on_c, 0, 76, 88
2, 555749, Note_on_c, 0, 76, 0
2, 555749, Note_on_c, 0, 85, 0
2, 555749, Note_on_c, 0, 88, 0
2, 555749, Note_on_c, 0, 73, 0
2, 555840, Note_on_c, 0, 87, 90
2, 555840, Note_on_c, 0, 90, 90
2, 555840, Note_on_c, 0, 75, 90
2, 555840, Note_on_c, 0, 78, 90
2, 555929, Note_on_c, 0, 78, 0
2, 555929, Note_on_c, 0, 87, 0
2, 555929, Note_on_c, 0, 90, 0
2, 555929, Note_on_c, 0, 75, 0
2, 556020, Note_on_c, 0, 87, 92
2, 556020, Note_on_c, 0, 90, 92
2, 556020, Note_on_c, 0, 75, 92
2, 556020, Note_on_c, 0, 78, 92
2, 556109, Note_on_c, 0, 78, 0
2, 556109, Note_on_c, 0, 87, 0
2, 556109, Note_on_c, 0, 90, 0
2, 556109, Note_on_c, 0, 75, 0
2, 556200, Note_on_c, 0, 85, 94
2, 556200, Note_on_c, 0, 88, 94
2, 556200, Note_on_c, 0, 73, 94
2, 556200, Note_on_c, 0, 76, 94
2, 556289, Note_on_c, 0, 76, 0
2, 556289, Note_on_c, 0, 85, 0
2, 556289, Note_on_c, 0, 88, 0
2, 556289, Note_on_c, 0, 73, 0
2, 556380, Note_on_c, 0, 85, 95
2, 556380, Note_on_c, 0, 88, 95
2, 556380, Note_on_c, 0, 73, 95
2, 556380, Note_on_c, 0, 76, 95
2, 556469, Note_on_c, 0, 76, 0
2, 556469, Note_on_c, 0, 85, 0
2, 556469, Note_on_c, 0, 88, 0
2, 556469, Note_on_c, 0, 73, 0
2, 556560, Note_on_c, 0, 87, 97
2, 556560, Note_on_c, 0, 90, 97
2, 556560, Note_on_c, 0, 75, 97
2, 556560, Note_on_c, 0, 78, 97
2, 556649, Note_on_c, 0, 78, 0
2, 556649, Note_on_c, 0, 87, 0
2, 556649, Note_on_c, 0, 90, 0
2, 556649, Note_on_c, 0, 75, 0
2, 556740, Note_on_c, 0, 87, 99
2, 556740, Note_on_c, 0, 90, 99
2, 556740, Note_on_c, 0, 75, 99
2, 556740, Note_on_c, 0, 78, 99
2, 556829, Note_on_c, 0, 78, 0
2, 556829, Note_on_c, 0, 87, 0
2, 556829, Note_on_c, 0, 90, 0
2, 556829, Note_on_c, 0, 75, 0
2, 556920, Note_on_c, 0, 85, 100
2, 556920, Note_on_c, 0, 88, 100
2, 556920, Note_on_c, 0, 73, 100
2, 556920, Note_on_c, 0, 76, 100
2, 557009, Note_on_c, 0, 76, 0
2, 557009, Note_on_c, 0, 85, 0
2, 557009, Note_on_c, 0, 88, 0
2, 557009, Note_on_c, 0, 73, 0
2, 557100, Note_on_c, 0, 85, 102
2, 557100, Note_on_c, 0, 88, 102
2, 557100, Note_on_c, 0, 73, 102
2, 557100, Note_on_c, 0, 76, 102
2, 557189, Note_on_c, 0, 76, 0
2, 557189, Note_on_c, 0, 85, 0
2, 557189, Note_on_c, 0, 88, 0
2, 557189, Note_on_c, 0, 73, 0
2, 557280, Note_on_c, 0, 87, 122
2, 557280, Note_on_c, 0, 90, 122
2, 557280, Note_on_c, 0, 75, 122
2, 557280, Note_on_c, 0, 78, 122
2, 557369, Note_on_c, 0, 78, 0
2, 557369, Note_on_c, 0, 87, 0
2, 557369, Note_on_c, 0, 90, 0
2, 557369, Note_on_c, 0, 75, 0
2, 557460, Note_on_c, 0, 84, 122
2, 557460, Note_on_c, 0, 87, 122
2, 557460, Note_on_c, 0, 72, 122
2, 557460, Note_on_c, 0, 75, 122
2, 557550, Note_on_c, 0, 75, 0
2, 557550, Note_on_c, 0, 84, 0
2, 557550, Note_on_c, 0, 87, 0
2, 557550, Note_on_c, 0, 72, 0
2, 557550, Note_on_c, 0, 89, 121
2, 557550, Note_on_c, 0, 77, 121
2, 557640, Note_on_c, 0, 77, 0
2, 557640, Note_on_c, 0, 89, 0
2, 557640, Note_on_c, 0, 87, 114
2, 557640, Note_on_c, 0, 75, 118
2, 557730, Note_on_c, 0, 75, 0
2, 557730, Note_on_c, 0, 87, 0
2, 557730, Note_on_c, 0, 89, 121
2, 557730, Note_on_c, 0, 77, 121
2, 557820, Note_on_c, 0, 77, 0
2, 557820, Note_on_c, 0, 89, 0
2, 557820, Note_on_c, 0, 87, 113
2, 557820, Note_on_c, 0, 75, 118
2, 557910, Note_on_c, 0, 75, 0
2, 557910, Note_on_c, 0, 87, 0
2, 557910, Note_on_c, 0, 89, 121
2, 557910, Note_on_c, 0, 77, 121
2, 558000, Note_on_c, 0, 77, 0
2, 558000, Note_on_c, 0, 89, 0
2, 558000, Note_on_c, 0, 84, 112
2, 558000, Note_on_c, 0, 87, 112
2, 558000, Note_on_c, 0, 72, 110
2, 558000, Note_on_c, 0, 75, 110
2, 558180, Note_on_c, 0, 75, 0
2, 558180, Note_on_c, 0, 84, 0
2, 558180, Note_on_c, 0, 87, 0
2, 558180, Note_on_c, 0, 72, 0
2, 558180, Note_on_c, 0, 84, 122
2, 558180, Note_on_c, 0, 87, 122
2, 558180, Note_on_c, 0, 72, 122
2, 558180, Note_on_c, 0, 75, 122
2, 558270, Note_on_c, 0, 75, 0
2, 558270, Note_on_c, 0, 84, 0
2, 558270, Note_on_c, 0, 87, 0
2, 558270, Note_on_c, 0, 72, 0
2, 558270, Note_on_c, 0, 89, 121
2, 558270, Note_on_c, 0, 77, 121
2, 558360, Note_on_c, 0, 77, 0
2, 558360, Note_on_c, 0, 89, 0
2, 558360, Note_on_c, 0, 87, 115
2, 558360, Note_on_c, 0, 75, 115
2, 558450, Note_on_c, 0, 75, 0
2, 558450, Note_on_c, 0, 87, 0
2, 558450, Note_on_c, 0, 89, 121
2, 558450, Note_on_c, 0, 77, 121
2, 558540, Note_on_c, 0, 77, 0
2, 558540, Note_on_c, 0, 89, 0
2, 558540, Note_on_c, 0, 87, 119
2, 558540, Note_on_c, 0, 75, 117
2, 558630, Note_on_c, 0, 75, 0
2, 558630, Note_on_c, 0, 87, 0
2, 558630, Note_on_c, 0, 89, 121
2, 558630, Note_on_c, 0, 77, 121
2, 558720, Note_on_c, 0, 77, 0
2, 558720, Note_on_c, 0, 89, 0
2, 558720, Note_on_c, 0, 84, 113
2, 558720, Note_on_c, 0, 87, 113
2, 558720, Note_on_c, 0, 72, 116
2, 558720, Note_on_c, 0, 75, 116
2, 558809, Note_on_c, 0, 75, 0
2, 558809, Note_on_c, 0, 84, 0
2, 558809, Note_on_c, 0, 87, 0
2, 558809, Note_on_c, 0, 72, 0
2, 559080, Note_on_c, 0, 84, 122
2, 559080, Note_on_c, 0, 87, 122
2, 559080, Note_on_c, 0, 72, 122
2, 559080, Note_on_c, 0, 75, 122
2, 559169, Note_on_c, 0, 75, 0
2, 559169, Note_on_c, 0, 84, 0
2, 559169, Note_on_c, 0, 87, 0
2, 559169, Note_on_c, 0, 72, 0
2, 559440, Note_on_c, 0, 84, 122
2, 559440, Note_on_c, 0, 88, 122
2, 559440, Note_on_c, 0, 72, 122
2, 559440, Note_on_c, 0, 76, 122
2, 559529, Note_on_c, 0, 76, 0
2, 559529, Note_on_c, 0, 84, 0
2, 559529, Note_on_c, 0, 88, 0
2, 559529, Note_on_c, 0, 72, 0
2, 559800, Note_on_c, 0, 84, 122
2, 559800, Note_on_c, 0, 88, 122
2, 559800, Note_on_c, 0, 91, 122
2, 559800, Note_on_c, 0, 72, 122
2, 559800, Note_on_c, 0, 76, 122
2, 559800, Note_on_c, 0, 79, 122
2, 559889, Note_on_c, 0, 79, 0
2, 559889, Note_on_c, 0, 88, 0
2, 559889, Note_on_c, 0, 91, 0
2, 559889, Note_on_c, 0, 84, 0
2, 559889, Note_on_c, 0, 76, 0
2, 559889, Note_on_c, 0, 72, 0
2, 560160, Note_on_c, 0, 92, 122
2, 560160, Note_on_c, 0, 95, 122
2, 560160, Note_on_c, 0, 80, 122
2, 560160, Note_on_c, 0, 83, 122
2, 560520, Note_on_c, 0, 83, 0
2, 560520, Note_on_c, 0, 92, 0
2, 560520, Note_on_c, 0, 95, 0
2, 560520, Note_on_c, 0, 80, 0
2, 560520, Note_on_c, 0, 93, 122
2, 560520, Note_on_c, 0, 97, 122
2, 560520, Note_on_c, 0, 81, 122
2, 560520, Note_on_c, 0, 85, 122
2, 560609, Note_on_c, 0, 85, 0
2, 560609, Note_on_c, 0, 93, 0
2, 560609, Note_on_c, 0, 97, 0
2, 560609, Note_on_c, 0, 81, 0
2, 560700, Note_on_c, 0, 92, 122
2, 560700, Note_on_c, 0, 95, 122
2, 560700, Note_on_c, 0, 80, 122
2, 560700, Note_on_c, 0, 83, 122
2, 560789, Note_on_c, 0, 83, 0
2, 560789, Note_on_c, 0, 92, 0
2, 560789, Note_on_c, 0, 95, 0
2, 560789, Note_on_c, 0, 80, 0
2, 560880, Note_on_c, 0, 90, 122
2, 560880, Note_on_c, 0, 93, 122
2, 560880, Note_on_c, 0, 78, 122
2, 560880, Note_on_c, 0, 81, 122
2, 561240, Note_on_c, 0, 81, 0
2, 561240, Note_on_c, 0, 90, 0
2, 561240, Note_on_c, 0, 93, 0
2, 561240, Note_on_c, 0, 78, 0
2, 561240, Note_on_c, 0, 92, 122
2, 561240, Note_on_c, 0, 95, 122
2, 561240, Note_on_c, 0, 80, 122
2, 561240, Note_on_c, 0, 83, 122
2, 561600, Note_on_c, 0, 83, 0
2, 561600, Note_on_c, 0, 92, 0
2, 561600, Note_on_c, 0, 95, 0
2, 561600, Note_on_c, 0, 80, 0
2, 561600, Note_on_c, 0, 88, 112
2, 561600, Note_on_c, 0, 92, 112
2, 561600, Note_on_c, 0, 76, 115
2, 561600, Note_on_c, 0, 80, 115
2, 561734, Note_on_c, 0, 80, 0
2, 561734, Note_on_c, 0, 88, 0
2, 561734, Note_on_c, 0, 92, 0
2, 561734, Note_on_c, 0, 76, 0
2, 561870, Note_on_c, 0, 88, 121
2, 561870, Note_on_c, 0, 92, 121
2, 561870, Note_on_c, 0, 76, 121
2, 561870, Note_on_c, 0, 80, 121
2, 561914, Note_on_c, 0, 80, 0
2, 561914, Note_on_c, 0, 88, 0
2, 561914, Note_on_c, 0, 92, 0
2, 561914, Note_on_c, 0, 76, 0
2, 561960, Note_on_c, 0, 88, 121
2, 561960, Note_on_c, 0, 92, 121
2, 561960, Note_on_c, 0, 76, 121
2, 561960, Note_on_c, 0, 80, 121
2, 562049, Note_on_c, 0, 80, 0
2, 562049, Note_on_c, 0, 88, 0
2, 562049, Note_on_c, 0, 92, 0
2, 562049, Note_on_c, 0, 76, 0
2, 562140, Note_on_c, 0, 90, 121
2, 562140, Note_on_c, 0, 93, 121
2, 562140, Note_on_c, 0, 78, 121
2, 562140, Note_on_c, 0, 81, 121
2, 562229, Note_on_c, 0, 81, 0
2, 562229, Note_on_c, 0, 90, 0
2, 562229, Note_on_c, 0, 93, 0
2, 562229, Note_on_c, 0, 78, 0
2, 562320, Note_on_c, 0, 95, 122
2, 562320, Note_on_c, 0, 83, 122
2, 562410, Note_on_c, 0, 83, 0
2, 562410, Note_on_c, 0, 95, 0
2, 562410, Note_on_c, 0, 92, 112
2, 562410, Note_on_c, 0, 80, 108
2, 562500, Note_on_c, 0, 80, 0
2, 562500, Note_on_c, 0, 92, 0
2, 562500, Note_on_c, 0, 95, 121
2, 562500, Note_on_c, 0, 83, 121
2, 562590, Note_on_c, 0, 83, 0
2, 562590, Note_on_c, 0, 95, 0
2, 562590, Note_on_c, 0, 92, 111
2, 562590, Note_on_c, 0, 80, 114
2, 562680, Note_on_c, 0, 80, 0
2, 562680, Note_on_c, 0, 92, 0
2, 562680, Note_on_c, 0, 95, 121
2, 562680, Note_on_c, 0, 83, 121
2, 562860, Note_on_c, 0, 83, 0
2, 562860, Note_on_c, 0, 95, 0
2, 563040, Note_on_c, 0, 92, 122
2, 563040, Note_on_c, 0, 95, 122
2, 563040, Note_on_c, 0, 80, 122
2, 563040, Note_on_c, 0, 83, 122
2, 563129, Note_on_c, 0, 83, 0
2, 563129, Note_on_c, 0, 92, 0
2, 563129, Note_on_c, 0, 95, 0
2, 563129, Note_on_c, 0, 80, 0
2, 563220, Note_on_c, 0, 92, 122
2, 563220, Note_on_c, 0, 95, 122
2, 563220, Note_on_c, 0, 80, 122
2, 563220, Note_on_c, 0, 83, 122
2, 563309, Note_on_c, 0, 83, 0
2, 563309, Note_on_c, 0, 92, 0
2, 563309, Note_on_c, 0, 95, 0
2, 563309, Note_on_c, 0, 80, 0
2, 563400, Note_on_c, 0, 93, 122
2, 563400, Note_on_c, 0, 97, 122
2, 563400, Note_on_c, 0, 81, 122
2, 563400, Note_on_c, 0, 85, 122
2, 563489, Note_on_c, 0, 85, 0
2, 563489, Note_on_c, 0, 93, 0
2, 563489, Note_on_c, 0, 97, 0
2, 563489, Note_on_c, 0, 81, 0
2, 563580, Note_on_c, 0, 92, 122
2, 563580, Note_on_c, 0, 95, 122
2, 563580, Note_on_c, 0, 80, 122
2, 563580, Note_on_c, 0, 83, 122
2, 563669, Note_on_c, 0, 83, 0
2, 563669, Note_on_c, 0, 92, 0
2, 563669, Note_on_c, 0, 95, 0
2, 563669, Note_on_c, 0, 80, 0
2, 563760, Note_on_c, 0, 90, 122
2, 563760, Note_on_c, 0, 93, 122
2, 563760, Note_on_c, 0, 78, 122
2, 563760, Note_on_c, 0, 81, 122
2, 563849, Note_on_c, 0, 81, 0
2, 563849, Note_on_c, 0, 90, 0
2, 563849, Note_on_c, 0, 93, 0
2, 563849, Note_on_c, 0, 78, 0
2, 563940, Note_on_c, 0, 90, 122
2, 563940, Note_on_c, 0, 93, 122
2, 563940, Note_on_c, 0, 78, 122
2, 563940, Note_on_c, 0, 81, 122
2, 564029, Note_on_c, 0, 81, 0
2, 564029, Note_on_c, 0, 90, 0
2, 564029, Note_on_c, 0, 93, 0
2, 564029, Note_on_c, 0, 78, 0
2, 564120, Note_on_c, 0, 92, 122
2, 564120, Note_on_c, 0, 95, 122
2, 564120, Note_on_c, 0, 80, 122
2, 564120, Note_on_c, 0, 83, 122
2, 564480, Note_on_c, 0, 83, 0
2, 564480, Note_on_c, 0, 92, 0
2, 564480, Note_on_c, 0, 95, 0
2, 564480, Note_on_c, 0, 80, 0
2, 564480, Note_on_c, 0, 88, 116
2, 564480, Note_on_c, 0, 92, 116
2, 564480, Note_on_c, 0, 76, 113
2, 564480, Note_on_c, 0, 80, 113
2, 564614, Note_on_c, 0, 80, 0
2, 564614, Note_on_c, 0, 88, 0
2, 564614, Note_on_c, 0, 92, 0
2, 564614, Note_on_c, 0, 76, 0
2, 564750, Note_on_c, 0, 88, 120
2, 564750, Note_on_c, 0, 92, 120
2, 564750, Note_on_c, 0, 76, 119
2, 564750, Note_on_c, 0, 80, 119
2, 564794, Note_on_c, 0, 80, 0
2, 564794, Note_on_c, 0, 88, 0
2, 564794, Note_on_c, 0, 92, 0
2, 564794, Note_on_c, 0, 76, 0
2, 564840, Note_on_c, 0, 88, 118
2, 564840, Note_on_c, 0, 92, 118
2, 564840, Note_on_c, 0, 76, 120
2, 564840, Note_on_c, 0, 80, 120
2, 564929, Note_on_c, 0, 80, 0
2, 564929, Note_on_c, 0, 88, 0
2, 564929, Note_on_c, 0, 92, 0
2, 564929, Note_on_c, 0, 76, 0
2, 565020, Note_on_c, 0, 90, 121
2, 565020, Note_on_c, 0, 93, 121
2, 565020, Note_on_c, 0, 78, 121
2, 565020, Note_on_c, 0, 81, 121
2, 565109, Note_on_c, 0, 81, 0
2, 565109, Note_on_c, 0, 90, 0
2, 565109, Note_on_c, 0, 93, 0
2, 565109, Note_on_c, 0, 78, 0
2, 565200, Note_on_c, 0, 92, 122
2, 565200, Note_on_c, 0, 95, 122
2, 565200, Note_on_c, 0, 80, 122
2, 565200, Note_on_c, 0, 83, 122
2, 565560, Note_on_c, 0, 83, 0
2, 565560, Note_on_c, 0, 92, 0
2, 565560, Note_on_c, 0, 95, 0
2, 565560, Note_on_c, 0, 80, 0
2, 565560, Note_on_c, 0, 92, 122
2, 565560, Note_on_c, 0, 95, 122
2, 565560, Note_on_c, 0, 80, 122
2, 565560, Note_on_c, 0, 83, 122
2, 565920, Note_on_c, 0, 83, 0
2, 565920, Note_on_c, 0, 92, 0
2, 565920, Note_on_c, 0, 95, 0
2, 565920, Note_on_c, 0, 80, 0
2, 565920, Note_on_c, 0, 87, 122
2, 565920, Note_on_c, 0, 90, 122
2, 565920, Note_on_c, 0, 75, 122
2, 565920, Note_on_c, 0, 78, 122
2, 566280, Note_on_c, 0, 78, 0
2, 566280, Note_on_c, 0, 87, 0
2, 566280, Note_on_c, 0, 90, 0
2, 566280, Note_on_c, 0, 75, 0
2, 566280, Note_on_c, 0, 88, 122
2, 566280, Note_on_c, 0, 92, 122
2, 566280, Note_on_c, 0, 76, 122
2, 566280, Note_on_c, 0, 80, 122
2, 566369, Note_on_c, 0, 80, 0
2, 566369, Note_on_c, 0, 88, 0
2, 566369, Note_on_c, 0, 92, 0
2, 566369, Note_on_c, 0, 76, 0
2, 566460, Note_on_c, 0, 87, 122
2, 566460, Note_on_c, 0, 90, 122
2, 566460, Note_on_c, 0, 75, 122
2, 566460, Note_on_c, 0, 78, 122
2, 566549, Note_on_c, 0, 78, 0
2, 566549, Note_on_c, 0, 87, 0
2, 566549, Note_on_c, 0, 90, 0
2, 566549, Note_on_c, 0, 75, 0
2, 566640, Note_on_c, 0, 85, 122
2, 566640, Note_on_c, 0, 88, 122
2, 566640, Note_on_c, 0, 73, 122
2, 566640, Note_on_c, 0, 76, 122
2, 567000, Note_on_c, 0, 76, 0
2, 567000, Note_on_c, 0, 85, 0
2, 567000, Note_on_c, 0, 88, 0
2, 567000, Note_on_c, 0, 73, 0
2, 567000, Note_on_c, 0, 87, 122
2, 567000, Note_on_c, 0, 90, 122
2, 567000, Note_on_c, 0, 75, 122
2, 567000, Note_on_c, 0, 78, 122
2, 567360, Note_on_c, 0, 78, 0
2, 567360, Note_on_c, 0, 87, 0
2, 567360, Note_on_c, 0, 90, 0
2, 567360, Note_on_c, 0, 75, 0
2, 567360, Note_on_c, 0, 83, 112
2, 567360, Note_on_c, 0, 87, 112
2, 567360, Note_on_c, 0, 71, 113
2, 567360, Note_on_c, 0, 75, 113
2, 567494, Note_on_c, 0, 75, 0
2, 567494, Note_on_c, 0, 83, 0
2, 567494, Note_on_c, 0, 87, 0
2, 567494, Note_on_c, 0, 71, 0
2, 567630, Note_on_c, 0, 83, 118
2, 567630, Note_on_c, 0, 87, 118
2, 567630, Note_on_c, 0, 71, 121
2, 567630, Note_on_c, 0, 75, 121
2, 567674, Note_on_c, 0, 75, 0
2, 567674, Note_on_c, 0, 83, 0
2, 567674, Note_on_c, 0, 87, 0
2, 567674, Note_on_c, 0, 71, 0
2, 567720, Note_on_c, 0, 83, 121
2, 567720, Note_on_c, 0, 87, 121
2, 567720, Note_on_c, 0, 71, 117
2, 567720, Note_on_c, 0, 75, 117
2, 567809, Note_on_c, 0, 75, 0
2, 567809, Note_on_c, 0, 83, 0
2, 567809, Note_on_c, 0, 87, 0
2, 567809, Note_on_c, 0, 71, 0
2, 567900, Note_on_c, 0, 85, 121
2, 567900, Note_on_c, 0, 88, 121
2, 567900, Note_on_c, 0, 73, 121
2, 567900, Note_on_c, 0, 76, 121
2, 567989, Note_on_c, 0, 76, 0
2, 567989, Note_on_c, 0, 85, 0
2, 567989, Note_on_c, 0, 88, 0
2, 567989, Note_on_c, 0, 73, 0
2, 568080, Note_on_c, 0, 90, 122
2, 568080, Note_on_c, 0, 78, 122
2, 568170, Note_on_c, 0, 78, 0
2, 568170, Note_on_c, 0, 90, 0
2, 568170, Note_on_c, 0, 87, 113
2, 568170, Note_on_c, 0, 75, 112
2, 568260, Note_on_c, 0, 75, 0
2, 568260, Note_on_c, 0, 87, 0
2, 568260, Note_on_c, 0, 90, 121
2, 568260, Note_on_c, 0, 78, 121
2, 568350, Note_on_c, 0, 78, 0
2, 568350, Note_on_c, 0, 90, 0
2, 568350, Note_on_c, 0, 87, 114
2, 568350, Note_on_c, 0, 75, 111
2, 568440, Note_on_c, 0, 75, 0
2, 568440, Note_on_c, 0, 87, 0
2, 568440, Note_on_c, 0, 90, 121
2, 568440, Note_on_c, 0, 78, 121
2, 568620, Note_on_c, 0, 78, 0
2, 568620, Note_on_c, 0, 90, 0
2, 568800, Note_on_c, 0, 87, 122
2, 568800, Note_on_c, 0, 90, 122
2, 568800, Note_on_c, 0, 75, 122
2, 568800, Note_on_c, 0, 78, 122
2, 568889, Note_on_c, 0, 78, 0
2, 568889, Note_on_c, 0, 87, 0
2, 568889, Note_on_c, 0, 90, 0
2, 568889, Note_on_c, 0, 75, 0
2, 568980, Note_on_c, 0, 87, 122
2, 568980, Note_on_c, 0, 90, 122
2, 568980, Note_on_c, 0, 75, 122
2, 568980, Note_on_c, 0, 78, 122
2, 569069, Note_on_c, 0, 78, 0
2, 569069, Note_on_c, 0, 87, 0
2, 569069, Note_on_c, 0, 90, 0
2, 569069, Note_on_c, 0, 75, 0
2, 569160, Note_on_c, 0, 88, 122
2, 569160, Note_on_c, 0, 92, 122
2, 569160, Note_on_c, 0, 76, 122
2, 569160, Note_on_c, 0, 80, 122
2, 569249, Note_on_c, 0, 80, 0
2, 569249, Note_on_c, 0, 88, 0
2, 569249, Note_on_c, 0, 92, 0
2, 569249, Note_on_c, 0, 76, 0
2, 569340, Note_on_c, 0, 87, 122
2, 569340, Note_on_c, 0, 90, 122
2, 569340, Note_on_c, 0, 75, 122
2, 569340, Note_on_c, 0, 78, 122
2, 569429, Note_on_c, 0, 78, 0
2, 569429, Note_on_c, 0, 87, 0
2, 569429, Note_on_c, 0, 90, 0
2, 569429, Note_on_c, 0, 75, 0
2, 569520, Note_on_c, 0, 85, 122
2, 569520, Note_on_c, 0, 88, 122
2, 569520, Note_on_c, 0, 73, 122
2, 569520, Note_on_c, 0, 76, 122
2, 569609, Note_on_c, 0, 76, 0
2, 569609, Note_on_c, 0, 85, 0
2, 569609, Note_on_c, 0, 88, 0
2, 569609, Note_on_c, 0, 73, 0
2, 569700, Note_on_c, 0, 85, 122
2, 569700, Note_on_c, 0, 88, 122
2, 569700, Note_on_c, 0, 73, 122
2, 569700, Note_on_c, 0, 76, 122
2, 569789, Note_on_c, 0, 76, 0
2, 569789, Note_on_c, 0, 85, 0
2, 569789, Note_on_c, 0, 88, 0
2, 569789, Note_on_c, 0, 73, 0
2, 569880, Note_on_c, 0, 87, 122
2, 569880, Note_on_c, 0, 90, 122
2, 569880, Note_on_c, 0, 75, 122
2, 569880, Note_on_c, 0, 78, 122
2, 570240, Note_on_c, 0, 78, 0
2, 570240, Note_on_c, 0, 87, 0
2, 570240, Note_on_c, 0, 90, 0
2, 570240, Note_on_c, 0, 75, 0
2, 570240, Note_on_c, 0, 83, 109
2, 570240, Note_on_c, 0, 87, 109
2, 570240, Note_on_c, 0, 71, 112
2, 570240, Note_on_c, 0, 75, 112
2, 570374, Note_on_c, 0, 75, 0
2, 570374, Note_on_c, 0, 83, 0
2, 570374, Note_on_c, 0, 87, 0
2, 570374, Note_on_c, 0, 71, 0
2, 570510, Note_on_c, 0, 83, 121
2, 570510, Note_on_c, 0, 87, 121
2, 570510, Note_on_c, 0, 71, 121
2, 570510, Note_on_c, 0, 75, 121
2, 570554, Note_on_c, 0, 75, 0
2, 570554, Note_on_c, 0, 83, 0
2, 570554, Note_on_c, 0, 87, 0
2, 570554, Note_on_c, 0, 71, 0
2, 570600, Note_on_c, 0, 83, 121
2, 570600, Note_on_c, 0, 87, 121
2, 570600, Note_on_c, 0, 71, 116
2, 570600, Note_on_c, 0, 75, 116
2, 570689, Note_on_c, 0, 75, 0
2, 570689, Note_on_c, 0, 83, 0
2, 570689, Note_on_c, 0, 87, 0
2, 570689, Note_on_c, 0, 71, 0
2, 570780, Note_on_c, 0, 85, 121
2, 570780, Note_on_c, 0, 88, 121
2, 570780, Note_on_c, 0, 73, 121
2, 570780, Note_on_c, 0, 76, 121
2, 570869, Note_on_c, 0, 76, 0
2, 570869, Note_on_c, 0, 85, 0
2, 570869, Note_on_c, 0, 88, 0
2, 570869, Note_on_c, 0, 73, 0
2, 570960, Note_on_c, 0, 87, 122
2, 570960, Note_on_c, 0, 90, 122
2, 570960, Note_on_c, 0, 75, 122
2, 570960, Note_on_c, 0, 78, 122
2, 571320, Note_on_c, 0, 78, 0
2, 571320, Note_on_c, 0, 87, 0
2, 571320, Note_on_c, 0, 90, 0
2, 571320, Note_on_c, 0, 75, 0
2, 571320, Note_on_c, 0, 87, 122
2, 571320, Note_on_c, 0, 90, 122
2, 571320, Note_on_c, 0, 75, 122
2, 571320, Note_on_c, 0, 78, 122
2, 571680, Note_on_c, 0, 78, 0
2, 571680, Note_on_c, 0, 87, 0
2, 571680, Note_on_c, 0, 90, 0
2, 571680, Note_on_c, 0, 75, 0
2, 571680, Note_on_c, 0, 80, 55
2, 571680, Note_on_c, 0, 83, 55
2, 571680, Note_on_c, 0, 71, 45
2, 572040, Note_on_c, 0, 71, 0
2, 572040, Note_on_c, 0, 83, 0
2, 572040, Note_on_c, 0, 80, 0
2, 572040, Note_on_c, 0, 78, 57
2, 572040, Note_on_c, 0, 81, 57
2, 572040, Note_on_c, 0, 69, 47
2, 572310, Note_on_c, 0, 81, 0
2, 572310, Note_on_c, 0, 78, 0
2, 572310, Note_on_c, 0, 78, 58
2, 572400, Note_on_c, 0, 78, 0
2, 572400, Note_on_c, 0, 69, 0
2, 572400, Note_on_c, 0, 76, 59
2, 572400, Note_on_c, 0, 80, 59
2, 572400, Note_on_c, 0, 68, 48
2, 572489, Note_on_c, 0, 68, 0
2, 572489, Note_on_c, 0, 80, 0
2, 572489, Note_on_c, 0, 76, 0
2, 572580, Note_on_c, 0, 76, 59
2, 572580, Note_on_c, 0, 80, 59
2, 572580, Note_on_c, 0, 68, 49
2, 572897, Note_on_c, 0, 68, 0
2, 572897, Note_on_c, 0, 80, 0
2, 572897, Note_on_c, 0, 76, 0
2, 572940, Note_on_c, 0, 78, 61
2, 572940, Note_on_c, 0, 81, 61
2, 572940, Note_on_c, 0, 69, 51
2, 573029, Note_on_c, 0, 69, 0
2, 573029, Note_on_c, 0, 81, 0
2, 573029, Note_on_c, 0, 78, 0
2, 573120, Note_on_c, 0, 80, 62
2, 573120, Note_on_c, 0, 83, 62
2, 573120, Note_on_c, 0, 71, 52
2, 573480, Note_on_c, 0, 71, 0
2, 573480, Note_on_c, 0, 83, 0
2, 573480, Note_on_c, 0, 80, 0
2, 573480, Note_on_c, 0, 78, 63
2, 573480, Note_on_c, 0, 81, 63
2, 573480, Note_on_c, 0, 69, 53
2, 573750, Note_on_c, 0, 81, 0
2, 573750, Note_on_c, 0, 78, 0
2, 573750, Note_on_c, 0, 78, 65
2, 573840, Note_on_c, 0, 78, 0
2, 573840, Note_on_c, 0, 69, 0
2, 573840, Note_on_c, 0, 76, 65
2, 573840, Note_on_c, 0, 80, 65
2, 573840, Note_on_c, 0, 68, 55
2, 573929, Note_on_c, 0, 68, 0
2, 573929, Note_on_c, 0, 80, 0
2, 573929, Note_on_c, 0, 76, 0
2, 574020, Note_on_c, 0, 76, 66
2, 574020, Note_on_c, 0, 80, 66
2, 574020, Note_on_c, 0, 68, 56
2, 574337, Note_on_c, 0, 68, 0
2, 574337, Note_on_c, 0, 80, 0
2, 574337, Note_on_c, 0, 76, 0
2, 574380, Note_on_c, 0, 78, 67
2, 574380, Note_on_c, 0, 81, 67
2, 574380, Note_on_c, 0, 69, 57
2, 574469, Note_on_c, 0, 69, 0
2, 574469, Note_on_c, 0, 81, 0
2, 574469, Note_on_c, 0, 78, 0
2, 574560, Note_on_c, 0, 80, 68
2, 574560, Note_on_c, 0, 83, 68
2, 574560, Note_on_c, 0, 71, 58
2, 574920, Note_on_c, 0, 71, 0
2, 574920, Note_on_c, 0, 83, 0
2, 574920, Note_on_c, 0, 80, 0
2, 574920, Note_on_c, 0, 78, 70
2, 574920, Note_on_c, 0, 81, 70
2, 574920, Note_on_c, 0, 69, 60
2, 575280, Note_on_c, 0, 69, 0
2, 575280, Note_on_c, 0, 81, 0
2, 575280, Note_on_c, 0, 78, 0
2, 575280, Note_on_c, 0, 80, 71
2, 575280, Note_on_c, 0, 83, 71
2, 575280, Note_on_c, 0, 71, 61
2, 575640, Note_on_c, 0, 71, 0
2, 575640, Note_on_c, 0, 83, 0
2, 575640, Note_on_c, 0, 80, 0
2, 575640, Note_on_c, 0, 78, 73
2, 575640, Note_on_c, 0, 81, 73
2, 575640, Note_on_c, 0, 69, 63
2, 576000, Note_on_c, 0, 69, 0
2, 576000, Note_on_c, 0, 81, 0
2, 576000, Note_on_c, 0, 78, 0
2, 576000, Note_on_c, 0, 80, 75
2, 576000, Note_on_c, 0, 83, 75
2, 576000, Note_on_c, 0, 71, 64
2, 576360, Note_on_c, 0, 71, 0
2, 576360, Note_on_c, 0, 83, 0
2, 576360, Note_on_c, 0, 80, 0
2, 576360, Note_on_c, 0, 78, 76
2, 576360, Note_on_c, 0, 81, 76
2, 576360, Note_on_c, 0, 69, 66
2, 576720, Note_on_c, 0, 69, 0
2, 576720, Note_on_c, 0, 81, 0
2, 576720, Note_on_c, 0, 78, 0
2, 576720, Note_on_c, 0, 80, 78
2, 576720, Note_on_c, 0, 83, 78
2, 576720, Note_on_c, 0, 71, 68
2, 577080, Note_on_c, 0, 71, 0
2, 577080, Note_on_c, 0, 83, 0
2, 577080, Note_on_c, 0, 80, 0
2, 577080, Note_on_c, 0, 80, 79
2, 577080, Note_on_c, 0, 83, 79
2, 577080, Note_on_c, 0, 69, 69
2, 577440, Note_on_c, 0, 69, 0
2, 577440, Note_on_c, 0, 83, 0
2, 577440, Note_on_c, 0, 80, 0
2, 577440, Note_on_c, 0, 79, 81
2, 577440, Note_on_c, 0, 84, 81
2, 577440, Note_on_c, 0, 88, 81
2, 577440, Note_on_c, 0, 67, 71
2, 577440, Note_on_c, 0, 72, 71
2, 577440, Note_on_c, 0, 76, 71
2, 577620, Note_on_c, 0, 76, 0
2, 577620, Note_on_c, 0, 84, 0
2, 577620, Note_on_c, 0, 88, 0
2, 577620, Note_on_c, 0, 79, 0
2, 577620, Note_on_c, 0, 72, 0
2, 577620, Note_on_c, 0, 67, 0
2, 577620, Note_on_c, 0, 79, 103
2, 577620, Note_on_c, 0, 84, 103
2, 577620, Note_on_c, 0, 88, 103
2, 577620, Note_on_c, 0, 67, 99
2, 577620, Note_on_c, 0, 72, 99
2, 577620, Note_on_c, 0, 76, 99
2, 577800, Note_on_c, 0, 76, 0
2, 577800, Note_on_c, 0, 84, 0
2, 577800, Note_on_c, 0, 88, 0
2, 577800, Note_on_c, 0, 79, 0
2, 577800, Note_on_c, 0, 72, 0
2, 577800, Note_on_c, 0, 67, 0
2, 577800, Note_on_c, 0, 81, 108
2, 577800, Note_on_c, 0, 84, 108
2, 577800, Note_on_c, 0, 89, 108
2, 577800, Note_on_c, 0, 69, 100
2, 577800, Note_on_c, 0, 72, 100
2, 577800, Note_on_c, 0, 77, 100
2, 577980, Note_on_c, 0, 77, 0
2, 577980, Note_on_c, 0, 84, 0
2, 577980, Note_on_c, 0, 89, 0
2, 577980, Note_on_c, 0, 81, 0
2, 577980, Note_on_c, 0, 72, 0
2, 577980, Note_on_c, 0, 69, 0
2, 577980, Note_on_c, 0, 79, 100
2, 577980, Note_on_c, 0, 84, 100
2, 577980, Note_on_c, 0, 88, 100
2, 577980, Note_on_c, 0, 67, 95
2, 577980, Note_on_c, 0, 72, 95
2, 577980, Note_on_c, 0, 76, 95
2, 578160, Note_on_c, 0, 76, 0
2, 578160, Note_on_c, 0, 84, 0
2, 578160, Note_on_c, 0, 88, 0
2, 578160, Note_on_c, 0, 79, 0
2, 578160, Note_on_c, 0, 72, 0
2, 578160, Note_on_c, 0, 67, 0
2, 578160, Note_on_c, 0, 77, 100
2, 578160, Note_on_c, 0, 84, 100
2, 578160, Note_on_c, 0, 86, 100
2, 578160, Note_on_c, 0, 65, 86
2, 578160, Note_on_c, 0, 72, 86
2, 578160, Note_on_c, 0, 74, 86
2, 578340, Note_on_c, 0, 74, 0
2, 578340, Note_on_c, 0, 84, 0
2, 578340, Note_on_c, 0, 86, 0
2, 578340, Note_on_c, 0, 77, 0
2, 578340, Note_on_c, 0, 72, 0
2, 578340, Note_on_c, 0, 65, 0
2, 578340, Note_on_c, 0, 77, 103
2, 578340, Note_on_c, 0, 84, 103
2, 578340, Note_on_c, 0, 86, 103
2, 578340, Note_on_c, 0, 65, 98
2, 578340, Note_on_c, 0, 72, 98
2, 578340, Note_on_c, 0, 74, 98
2, 578520, Note_on_c, 0, 74, 0
2, 578520, Note_on_c, 0, 84, 0
2, 578520, Note_on_c, 0, 86, 0
2, 578520, Note_on_c, 0, 77, 0
2, 578520, Note_on_c, 0, 72, 0
2, 578520, Note_on_c, 0, 65, 0
2, 578520, Note_on_c, 0, 79, 110
2, 578520, Note_on_c, 0, 84, 110
2, 578520, Note_on_c, 0, 88, 110
2, 578520, Note_on_c, 0, 67, 98
2, 578520, Note_on_c, 0, 72, 98
2, 578520, Note_on_c, 0, 76, 98
2, 578880, Note_on_c, 0, 76, 0
2, 578880, Note_on_c, 0, 84, 0
2, 578880, Note_on_c, 0, 88, 0
2, 578880, Note_on_c, 0, 79, 0
2, 578880, Note_on_c, 0, 72, 0
2, 578880, Note_on_c, 0, 67, 0
2, 578880, Note_on_c, 0, 76, 93
2, 578880, Note_on_c, 0, 84, 93
2, 578880, Note_on_c, 0, 64, 87
2, 578880, Note_on_c, 0, 72, 87
2, 579150, Note_on_c, 0, 72, 0
2, 579150, Note_on_c, 0, 76, 0
2, 579150, Note_on_c, 0, 84, 0
2, 579150, Note_on_c, 0, 64, 0
2, 579150, Note_on_c, 0, 76, 108
2, 579150, Note_on_c, 0, 84, 108
2, 579150, Note_on_c, 0, 64, 94
2, 579150, Note_on_c, 0, 72, 94
2, 579240, Note_on_c, 0, 72, 0
2, 579240, Note_on_c, 0, 76, 0
2, 579240, Note_on_c, 0, 84, 0
2, 579240, Note_on_c, 0, 64, 0
2, 579240, Note_on_c, 0, 76, 108
2, 579240, Note_on_c, 0, 84, 108
2, 579240, Note_on_c, 0, 64, 101
2, 579240, Note_on_c, 0, 72, 101
2, 579420, Note_on_c, 0, 72, 0
2, 579420, Note_on_c, 0, 76, 0
2, 579420, Note_on_c, 0, 84, 0
2, 579420, Note_on_c, 0, 64, 0
2, 579420, Note_on_c, 0, 77, 112
2, 579420, Note_on_c, 0, 84, 112
2, 579420, Note_on_c, 0, 86, 112
2, 579420, Note_on_c, 0, 65, 102
2, 579420, Note_on_c, 0, 72, 102
2, 579420, Note_on_c, 0, 74, 102
2, 579600, Note_on_c, 0, 74, 0
2, 579600, Note_on_c, 0, 84, 0
2, 579600, Note_on_c, 0, 86, 0
2, 579600, Note_on_c, 0, 77, 0
2, 579600, Note_on_c, 0, 72, 0
2, 579600, Note_on_c, 0, 65, 0
2, 579600, Note_on_c, 0, 79, 111
2, 579600, Note_on_c, 0, 84, 111
2, 579600, Note_on_c, 0, 88, 111
2, 579600, Note_on_c, 0, 67, 104
2, 579600, Note_on_c, 0, 72, 104
2, 579600, Note_on_c, 0, 76, 104
2, 579960, Note_on_c, 0, 76, 0
2, 579960, Note_on_c, 0, 84, 0
2, 579960, Note_on_c, 0, 88, 0
2, 579960, Note_on_c, 0, 79, 0
2, 579960, Note_on_c, 0, 72, 0
2, 579960, Note_on_c, 0, 67, 0
2, 579960, Note_on_c, 0, 79, 104
2, 579960, Note_on_c, 0, 84, 104
2, 579960, Note_on_c, 0, 88, 104
2, 579960, Note_on_c, 0, 67, 98
2, 579960, Note_on_c, 0, 72, 98
2, 579960, Note_on_c, 0, 76, 98
2, 580320, Note_on_c, 0, 76, 0
2, 580320, Note_on_c, 0, 84, 0
2, 580320, Note_on_c, 0, 88, 0
2, 580320, Note_on_c, 0, 79, 0
2, 580320, Note_on_c, 0, 72, 0
2, 580320, Note_on_c, 0, 67, 0
2, 580320, Note_on_c, 0, 91, 81
2, 580320, Note_on_c, 0, 67, 96
2, 580320, Note_on_c, 0, 72, 96
2, 580320, Note_on_c, 0, 76, 96
2, 580410, Note_on_c, 0, 91, 0
2, 580410, Note_on_c, 0, 93, 84
2, 580500, Note_on_c, 0, 93, 0
2, 580500, Note_on_c, 0, 95, 87
2, 580590, Note_on_c, 0, 95, 0
2, 580590, Note_on_c, 0, 96, 90
2, 580680, Note_on_c, 0, 96, 0
2, 580680, Note_on_c, 0, 76, 0
2, 580680, Note_on_c, 0, 72, 0
2, 580680, Note_on_c, 0, 67, 0
2, 580680, Note_on_c, 0, 98, 94
2, 580680, Note_on_c, 0, 65, 92
2, 580680, Note_on_c, 0, 72, 92
2, 580680, Note_on_c, 0, 74, 92
2, 580770, Note_on_c, 0, 98, 0
2, 580770, Note_on_c, 0, 100, 97
2, 580860, Note_on_c, 0, 100, 0
2, 580860, Note_on_c, 0, 101, 100
2, 580950, Note_on_c, 0, 101, 0
2, 580950, Note_on_c, 0, 103, 103
2, 581040, Note_on_c, 0, 103, 0
2, 581040, Note_on_c, 0, 74, 0
2, 581040, Note_on_c, 0, 72, 0
2, 581040, Note_on_c, 0, 65, 0
2, 581040, Note_on_c, 0, 105, 106
2, 581040, Note_on_c, 0, 67, 102
2, 581040, Note_on_c, 0, 72, 102
2, 581040, Note_on_c, 0, 76, 102
2, 581130, Note_on_c, 0, 105, 0
2, 581130, Note_on_c, 0, 103, 103
2, 581220, Note_on_c, 0, 103, 0
2, 581220, Note_on_c, 0, 101, 100
2, 581310, Note_on_c, 0, 101, 0
2, 581310, Note_on_c, 0, 100, 97
2, 581400, Note_on_c, 0, 100, 0
2, 581400, Note_on_c, 0, 76, 0
2, 581400, Note_on_c, 0, 72, 0
2, 581400, Note_on_c, 0, 67, 0
2, 581400, Note_on_c, 0, 98, 94
2, 581400, Note_on_c, 0, 65, 92
2, 581400, Note_on_c, 0, 72, 92
2, 581400, Note_on_c, 0, 74, 92
2, 581490, Note_on_c, 0, 98, 0
2, 581490, Note_on_c, 0, 96, 90
2, 581580, Note_on_c, 0, 96, 0
2, 581580, Note_on_c, 0, 95, 87
2, 581670, Note_on_c, 0, 95, 0
2, 581670, Note_on_c, 0, 93, 84
2, 581760, Note_on_c, 0, 93, 0
2, 581760, Note_on_c, 0, 74, 0
2, 581760, Note_on_c, 0, 72, 0
2, 581760, Note_on_c, 0, 65, 0
2, 581760, Note_on_c, 0, 91, 81
2, 581760, Note_on_c, 0, 67, 100
2, 581760, Note_on_c, 0, 72, 100
2, 581760, Note_on_c, 0, 76, 100
2, 581850, Note_on_c, 0, 91, 0
2, 581850, Note_on_c, 0, 93, 84
2, 581940, Note_on_c, 0, 93, 0
2, 581940, Note_on_c, 0, 95, 87
2, 582030, Note_on_c, 0, 95, 0
2, 582030, Note_on_c, 0, 96, 90
2, 582120, Note_on_c, 0, 96, 0
2, 582120, Note_on_c, 0, 76, 0
2, 582120, Note_on_c, 0, 72, 0
2, 582120, Note_on_c, 0, 67, 0
2, 582120, Note_on_c, 0, 98, 94
2, 582120, Note_on_c, 0, 65, 92
2, 582120, Note_on_c, 0, 72, 92
2, 582120, Note_on_c, 0, 74, 92
2, 582210, Note_on_c, 0, 98, 0
2, 582210, Note_on_c, 0, 100, 97
2, 582300, Note_on_c, 0, 100, 0
2, 582300, Note_on_c, 0, 101, 100
2, 582390, Note_on_c, 0, 101, 0
2, 582390, Note_on_c, 0, 103, 103
2, 582480, Note_on_c, 0, 103, 0
2, 582480, Note_on_c, 0, 74, 0
2, 582480, Note_on_c, 0, 72, 0
2, 582480, Note_on_c, 0, 65, 0
2, 582480, Note_on_c, 0, 105, 106
2, 582480, Note_on_c, 0, 67, 98
2, 582480, Note_on_c, 0, 72, 98
2, 582480, Note_on_c, 0, 76, 98
2, 582570, Note_on_c, 0, 105, 0
2, 582570, Note_on_c, 0, 103, 103
2, 582660, Note_on_c, 0, 103, 0
2, 582660, Note_on_c, 0, 101, 100
2, 582750, Note_on_c, 0, 101, 0
2, 582750, Note_on_c, 0, 100, 97
2, 582840, Note_on_c, 0, 100, 0
2, 582840, Note_on_c, 0, 76, 0
2, 582840, Note_on_c, 0, 72, 0
2, 582840, Note_on_c, 0, 67, 0
2, 582840, Note_on_c, 0, 98, 94
2, 582840, Note_on_c, 0, 65, 90
2, 582840, Note_on_c, 0, 72, 90
2, 582840, Note_on_c, 0, 74, 90
2, 582930, Note_on_c, 0, 98, 0
2, 582930, Note_on_c, 0, 96, 90
2, 583020, Note_on_c, 0, 96, 0
2, 583020, Note_on_c, 0, 95, 87
2, 583110, Note_on_c, 0, 95, 0
2, 583110, Note_on_c, 0, 93, 84
2, 583200, Note_on_c, 0, 93, 0
2, 583200, Note_on_c, 0, 74, 0
2, 583200, Note_on_c, 0, 72, 0
2, 583200, Note_on_c, 0, 65, 0
2, 583200, Note_on_c, 0, 91, 96
2, 583200, Note_on_c, 0, 67, 97
2, 583200, Note_on_c, 0, 72, 97
2, 583200, Note_on_c, 0, 76, 97
2, 583380, Note_on_c, 0, 76, 0
2, 583380, Note_on_c, 0, 91, 0
2, 583380, Note_on_c, 0, 67, 0
2, 583380, Note_on_c, 0, 72, 0
2, 583920, Note_on_c, 0, 76, 88
2, 583920, Note_on_c, 0, 79, 88
2, 584460, Note_on_c, 0, 79, 0
2, 584460, Note_on_c, 0, 76, 0
2, 584460, Note_on_c, 0, 79, 67
2, 584550, Note_on_c, 0, 79, 0
2, 584550, Note_on_c, 0, 76, 64
2, 584640, Note_on_c, 0, 76, 0
2, 584640, Note_on_c, 0, 76, 104
2, 584640, Note_on_c, 0, 79, 104
2, 585180, Note_on_c, 0, 79, 0
2, 585180, Note_on_c, 0, 76, 0
2, 585180, Note_on_c, 0, 79, 71
2, 585270, Note_on_c, 0, 79, 0
2, 585270, Note_on_c, 0, 76, 64
2, 585360, Note_on_c, 0, 76, 0
2, 585360, Note_on_c, 0, 79, 82
2, 585450, Note_on_c, 0, 79, 81
2, 585518, Note_on_c, 0, 79, 0
2, 585540, Note_on_c, 0, 79, 0
2, 585540, Note_on_c, 0, 81, 84
2, 585540, Note_on_c, 0, 79, 73
2, 585630, Note_on_c, 0, 79, 0
2, 585630, Note_on_c, 0, 81, 0
2, 585630, Note_on_c, 0, 83, 88
2, 585630, Note_on_c, 0, 76, 64
2, 585720, Note_on_c, 0, 76, 0
2, 585720, Note_on_c, 0, 83, 0
2, 585720, Note_on_c, 0, 84, 92
2, 585720, Note_on_c, 0, 79, 73
2, 585810, Note_on_c, 0, 79, 0
2, 585810, Note_on_c, 0, 84, 0
2, 585810, Note_on_c, 0, 86, 95
2, 585810, Note_on_c, 0, 76, 66
2, 585900, Note_on_c, 0, 76, 0
2, 585900, Note_on_c, 0, 86, 0
2, 585900, Note_on_c, 0, 88, 99
2, 585900, Note_on_c, 0, 79, 80
2, 585990, Note_on_c, 0, 79, 0
2, 585990, Note_on_c, 0, 88, 0
2, 585990, Note_on_c, 0, 89, 103
2, 585990, Note_on_c, 0, 76, 65
2, 586080, Note_on_c, 0, 76, 0
2, 586080, Note_on_c, 0, 89, 0
2, 586080, Note_on_c, 0, 88, 122
2, 586080, Note_on_c, 0, 91, 122
2, 586080, Note_on_c, 0, 76, 98
2, 586080, Note_on_c, 0, 79, 98
2, 586169, Note_on_c, 0, 79, 0
2, 586169, Note_on_c, 0, 88, 0
2, 586169, Note_on_c, 0, 91, 0
2, 586169, Note_on_c, 0, 76, 0
2, 587520, Note_on_c, 0, 84, 115
2, 587520, Note_on_c, 0, 88, 115
2, 587520, Note_on_c, 0, 91, 115
2, 587520, Note_on_c, 0, 96, 115
2, 587520, Note_on_c, 0, 67, 87
2, 587520, Note_on_c, 0, 72, 87
2, 587520, Note_on_c, 0, 76, 87
2, 587520, Note_on_c, 0, 79, 87
2, 587700, Note_on_c, 0, 79, 0
2, 587700, Note_on_c, 0, 84, 0
2, 587700, Note_on_c, 0, 67, 0
2, 587700, Note_on_c, 0, 88, 0
2, 587700, Note_on_c, 0, 91, 0
2, 587700, Note_on_c, 0, 96, 0
2, 587700, Note_on_c, 0, 72, 0
2, 587700, Note_on_c, 0, 76, 0
2, 588960, Note_on_c, 0, 83, 118
2, 588960, Note_on_c, 0, 87, 118
2, 588960, Note_on_c, 0, 90, 118
2, 588960, Note_on_c, 0, 95, 118
2, 588960, Note_on_c, 0, 66, 79
2, 588960, Note_on_c, 0, 69, 79
2, 588960, Note_on_c, 0, 75, 79
2, 588960, Note_on_c, 0, 78, 79
2, 589140, Note_on_c, 0, 78, 0
2, 589140, Note_on_c, 0, 83, 0
2, 589140, Note_on_c, 0, 66, 0
2, 589140, Note_on_c, 0, 87, 0
2, 589140, Note_on_c, 0, 90, 0
2, 589140, Note_on_c, 0, 95, 0
2, 589140, Note_on_c, 0, 69, 0
2, 589140, Note_on_c, 0, 75, 0
2, 590400, Note_on_c, 0, 95, 122
2, 590400, Note_on_c, 0, 88, 121
2, 590400, Note_on_c, 0, 83, 122
2, 590400, Note_on_c, 0, 76, 121
2, 591480, Note_on_c, 0, 83, 0
2, 591480, Note_on_c, 0, 95, 0
2, 591480, Note_on_c, 0, 90, 122
2, 591480, Note_on_c, 0, 78, 122
2, 591660, Note_on_c, 0, 78, 0
2, 591660, Note_on_c, 0, 90, 0
2, 591660, Note_on_c, 0, 93, 122
2, 591660, Note_on_c, 0, 81, 122
2, 591840, Note_on_c, 0, 81, 0
2, 591840, Note_on_c, 0, 76, 0
2, 591840, Note_on_c, 0, 88, 0
2, 591840, Note_on_c, 0, 93, 0
2, 591840, Note_on_c, 0, 95, 122
2, 591840, Note_on_c, 0, 88, 121
2, 591840, Note_on_c, 0, 83, 122
2, 591840, Note_on_c, 0, 76, 121
2, 592200, Note_on_c, 0, 83, 0
2, 592200, Note_on_c, 0, 95, 0
2, 592200, Note_on_c, 0, 96, 122
2, 592200, Note_on_c, 0, 84, 122
2, 592380, Note_on_c, 0, 84, 0
2, 592380, Note_on_c, 0, 96, 0
2, 592380, Note_on_c, 0, 98, 122
2, 592380, Note_on_c, 0, 86, 122
2, 592560, Note_on_c, 0, 86, 0
2, 592560, Note_on_c, 0, 76, 0
2, 592560, Note_on_c, 0, 88, 0
2, 592560, Note_on_c, 0, 98, 0
2, 592560, Note_on_c, 0, 96, 122
2, 592560, Note_on_c, 0, 91, 121
2, 592560, Note_on_c, 0, 84, 122
2, 592560, Note_on_c, 0, 79, 121
2, 592619, Note_on_c, 0, 84, 0
2, 592619, Note_on_c, 0, 96, 0
2, 592619, Note_on_c, 0, 98, 122
2, 592619, Note_on_c, 0, 86, 122
2, 592680, Note_on_c, 0, 86, 0
2, 592680, Note_on_c, 0, 98, 0
2, 592680, Note_on_c, 0, 96, 122
2, 592680, Note_on_c, 0, 84, 122
2, 592740, Note_on_c, 0, 84, 0
2, 592740, Note_on_c, 0, 96, 0
2, 592740, Note_on_c, 0, 95, 122
2, 592740, Note_on_c, 0, 83, 122
2, 592799, Note_on_c, 0, 83, 0
2, 592799, Note_on_c, 0, 95, 0
2, 592799, Note_on_c, 0, 96, 122
2, 592799, Note_on_c, 0, 84, 122
2, 592860, Note_on_c, 0, 84, 0
2, 592860, Note_on_c, 0, 96, 0
2, 592860, Note_on_c, 0, 95, 122
2, 592860, Note_on_c, 0, 83, 122
2, 592920, Note_on_c, 0, 83, 0
2, 592920, Note_on_c, 0, 95, 0
2, 592920, Note_on_c, 0, 93, 122
2, 592920, Note_on_c, 0, 81, 122
2, 592979, Note_on_c, 0, 81, 0
2, 592979, Note_on_c, 0, 93, 0
2, 592979, Note_on_c, 0, 95, 122
2, 592979, Note_on_c, 0, 83, 122
2, 593040, Note_on_c, 0, 83, 0
2, 593040, Note_on_c, 0, 95, 0
2, 593040, Note_on_c, 0, 93, 122
2, 593040, Note_on_c, 0, 81, 122
2, 593100, Note_on_c, 0, 81, 0
2, 593100, Note_on_c, 0, 79, 0
2, 593100, Note_on_c, 0, 91, 0
2, 593100, Note_on_c, 0, 93, 0
2, 593100, Note_on_c, 0, 91, 122
2, 593100, Note_on_c, 0, 91, 121
2, 593100, Note_on_c, 0, 79, 122
2, 593100, Note_on_c, 0, 79, 121
2, 593190, Note_on_c, 0, 79, 0
2, 593190, Note_on_c, 0, 91, 0
2, 593190, Note_on_c, 0, 91, 0
2, 593190, Note_on_c, 0, 79, 0
2, 593190, Note_on_c, 0, 93, 122
2, 593190, Note_on_c, 0, 91, 121
2, 593190, Note_on_c, 0, 81, 122
2, 593190, Note_on_c, 0, 79, 121
2, 593280, Note_on_c, 0, 79, 0
2, 593280, Note_on_c, 0, 93, 0
2, 593280, Note_on_c, 0, 91, 0
2, 593280, Note_on_c, 0, 81, 0
2, 593640, Note_on_c, 0, 92, 122
2, 593640, Note_on_c, 0, 95, 122
2, 593640, Note_on_c, 0, 80, 122
2, 593640, Note_on_c, 0, 83, 122
2, 594000, Note_on_c, 0, 83, 0
2, 594000, Note_on_c, 0, 92, 0
2, 594000, Note_on_c, 0, 95, 0
2, 594000, Note_on_c, 0, 80, 0
2, 594000, Note_on_c, 0, 90, 122
2, 594000, Note_on_c, 0, 93, 122
2, 594000, Note_on_c, 0, 78, 122
2, 594000, Note_on_c, 0, 81, 122
2, 594360, Note_on_c, 0, 81, 0
2, 594360, Note_on_c, 0, 90, 0
2, 594360, Note_on_c, 0, 93, 0
2, 594360, Note_on_c, 0, 78, 0
2, 594360, Note_on_c, 0, 88, 116
2, 594360, Note_on_c, 0, 92, 116
2, 594360, Note_on_c, 0, 76, 120
2, 594360, Note_on_c, 0, 80, 120
2, 594449, Note_on_c, 0, 80, 0
2, 594449, Note_on_c, 0, 88, 0
2, 594449, Note_on_c, 0, 92, 0
2, 594449, Note_on_c, 0, 76, 0
2, 594540, Note_on_c, 0, 88, 122
2, 594540, Note_on_c, 0, 92, 122
2, 594540, Note_on_c, 0, 76, 122
2, 594540, Note_on_c, 0, 80, 122
2, 594900, Note_on_c, 0, 80, 0
2, 594900, Note_on_c, 0, 88, 0
2, 594900, Note_on_c, 0, 92, 0
2, 594900, Note_on_c, 0, 76, 0
2, 594900, Note_on_c, 0, 90, 122
2, 594900, Note_on_c, 0, 93, 122
2, 594900, Note_on_c, 0, 78, 122
2, 594900, Note_on_c, 0, 81, 122
2, 595080, Note_on_c, 0, 81, 0
2, 595080, Note_on_c, 0, 90, 0
2, 595080, Note_on_c, 0, 93, 0
2, 595080, Note_on_c, 0, 78, 0
2, 595080, Note_on_c, 0, 92, 122
2, 595080, Note_on_c, 0, 95, 122
2, 595080, Note_on_c, 0, 80, 122
2, 595080, Note_on_c, 0, 83, 122
2, 595440, Note_on_c, 0, 83, 0
2, 595440, Note_on_c, 0, 92, 0
2, 595440, Note_on_c, 0, 95, 0
2, 595440, Note_on_c, 0, 80, 0
2, 595440, Note_on_c, 0, 90, 122
2, 595440, Note_on_c, 0, 93, 122
2, 595440, Note_on_c, 0, 78, 122
2, 595440, Note_on_c, 0, 81, 122
2, 595800, Note_on_c, 0, 81, 0
2, 595800, Note_on_c, 0, 90, 0
2, 595800, Note_on_c, 0, 93, 0
2, 595800, Note_on_c, 0, 78, 0
2, 595800, Note_on_c, 0, 88, 118
2, 595800, Note_on_c, 0, 92, 118
2, 595800, Note_on_c, 0, 76, 113
2, 595800, Note_on_c, 0, 80, 113
2, 595889, Note_on_c, 0, 80, 0
2, 595889, Note_on_c, 0, 88, 0
2, 595889, Note_on_c, 0, 92, 0
2, 595889, Note_on_c, 0, 76, 0
2, 595980, Note_on_c, 0, 88, 122
2, 595980, Note_on_c, 0, 92, 122
2, 595980, Note_on_c, 0, 76, 122
2, 595980, Note_on_c, 0, 80, 122
2, 596340, Note_on_c, 0, 80, 0
2, 596340, Note_on_c, 0, 88, 0
2, 596340, Note_on_c, 0, 92, 0
2, 596340, Note_on_c, 0, 76, 0
2, 596340, Note_on_c, 0, 90, 122
2, 596340, Note_on_c, 0, 93, 122
2, 596340, Note_on_c, 0, 78, 122
2, 596340, Note_on_c, 0, 81, 122
2, 596520, Note_on_c, 0, 81, 0
2, 596520, Note_on_c, 0, 90, 0
2, 596520, Note_on_c, 0, 93, 0
2, 596520, Note_on_c, 0, 78, 0
2, 596520, Note_on_c, 0, 95, 121
2, 596520, Note_on_c, 0, 83, 121
2, 596640, Note_on_c, 0, 83, 0
2, 596640, Note_on_c, 0, 95, 0
2, 596640, Note_on_c, 0, 92, 111
2, 596640, Note_on_c, 0, 80, 112
2, 596759, Note_on_c, 0, 80, 0
2, 596759, Note_on_c, 0, 92, 0
2, 596759, Note_on_c, 0, 95, 121
2, 596759, Note_on_c, 0, 83, 121
2, 596880, Note_on_c, 0, 83, 0
2, 596880, Note_on_c, 0, 95, 0
2, 596880, Note_on_c, 0, 93, 115
2, 596880, Note_on_c, 0, 81, 113
2, 597000, Note_on_c, 0, 81, 0
2, 597000, Note_on_c, 0, 93, 0
2, 597000, Note_on_c, 0, 90, 110
2, 597000, Note_on_c, 0, 78, 108
2, 597119, Note_on_c, 0, 78, 0
2, 597119, Note_on_c, 0, 90, 0
2, 597119, Note_on_c, 0, 93, 121
2, 597119, Note_on_c, 0, 81, 121
2, 597240, Note_on_c, 0, 81, 0
2, 597240, Note_on_c, 0, 93, 0
2, 597240, Note_on_c, 0, 95, 121
2, 597240, Note_on_c, 0, 83, 121
2, 597360, Note_on_c, 0, 83, 0
2, 597360, Note_on_c, 0, 95, 0
2, 597360, Note_on_c, 0, 92, 112
2, 597360, Note_on_c, 0, 80, 113
2, 597479, Note_on_c, 0, 80, 0
2, 597479, Note_on_c, 0, 92, 0
2, 597479, Note_on_c, 0, 95, 121
2, 597479, Note_on_c, 0, 83, 121
2, 597600, Note_on_c, 0, 83, 0
2, 597600, Note_on_c, 0, 95, 0
2, 597600, Note_on_c, 0, 93, 113
2, 597600, Note_on_c, 0, 81, 112
2, 597720, Note_on_c, 0, 81, 0
2, 597720, Note_on_c, 0, 93, 0
2, 597720, Note_on_c, 0, 90, 107
2, 597720, Note_on_c, 0, 78, 110
2, 597839, Note_on_c, 0, 78, 0
2, 597839, Note_on_c, 0, 90, 0
2, 597839, Note_on_c, 0, 93, 121
2, 597839, Note_on_c, 0, 81, 121
2, 597960, Note_on_c, 0, 81, 0
2, 597960, Note_on_c, 0, 93, 0
2, 597960, Note_on_c, 0, 95, 121
2, 597960, Note_on_c, 0, 83, 121
2, 598080, Note_on_c, 0, 83, 0
2, 598080, Note_on_c, 0, 95, 0
2, 598080, Note_on_c, 0, 92, 110
2, 598080, Note_on_c, 0, 80, 111
2, 598199, Note_on_c, 0, 80, 0
2, 598199, Note_on_c, 0, 92, 0
2, 598199, Note_on_c, 0, 95, 121
2, 598199, Note_on_c, 0, 83, 121
2, 598320, Note_on_c, 0, 83, 0
2, 598320, Note_on_c, 0, 95, 0
2, 598320, Note_on_c, 0, 93, 116
2, 598320, Note_on_c, 0, 81, 116
2, 598440, Note_on_c, 0, 81, 0
2, 598440, Note_on_c, 0, 93, 0
2, 598440, Note_on_c, 0, 90, 111
2, 598440, Note_on_c, 0, 78, 110
2, 598559, Note_on_c, 0, 78, 0
2, 598559, Note_on_c, 0, 90, 0
2, 598559, Note_on_c, 0, 93, 121
2, 598559, Note_on_c, 0, 81, 121
2, 598680, Note_on_c, 0, 81, 0
2, 598680, Note_on_c, 0, 93, 0
2, 598680, Note_on_c, 0, 95, 121
2, 598680, Note_on_c, 0, 83, 121
2, 598800, Note_on_c, 0, 83, 0
2, 598800, Note_on_c, 0, 95, 0
2, 598800, Note_on_c, 0, 92, 113
2, 598800, Note_on_c, 0, 80, 109
2, 598919, Note_on_c, 0, 80, 0
2, 598919, Note_on_c, 0, 92, 0
2, 598919, Note_on_c, 0, 95, 121
2, 598919, Note_on_c, 0, 83, 121
2, 599040, Note_on_c, 0, 83, 0
2, 599040, Note_on_c, 0, 95, 0
2, 599040, Note_on_c, 0, 93, 111
2, 599040, Note_on_c, 0, 81, 114
2, 599160, Note_on_c, 0, 81, 0
2, 599160, Note_on_c, 0, 93, 0
2, 599160, Note_on_c, 0, 90, 113
2, 599160, Note_on_c, 0, 78, 110
2, 599279, Note_on_c, 0, 78, 0
2, 599279, Note_on_c, 0, 90, 0
2, 599279, Note_on_c, 0, 81, 121
2, 599279, Note_on_c, 0, 81, 121
2, 599400, Note_on_c, 0, 81, 0
2, 599400, Note_on_c, 0, 81, 0
2, 599400, Note_on_c, 0, 80, 122
2, 599400, Note_on_c, 0, 83, 122
2, 599400, Note_on_c, 0, 80, 122
2, 599400, Note_on_c, 0, 83, 122
2, 599489, Note_on_c, 0, 83, 0
2, 599489, Note_on_c, 0, 80, 0
2, 599489, Note_on_c, 0, 83, 0
2, 599489, Note_on_c, 0, 80, 0
2, 599940, Note_on_c, 0, 71, 110
2, 600030, Note_on_c, 0, 71, 0
2, 600030, Note_on_c, 0, 68, 106
2, 600120, Note_on_c, 0, 68, 0
2, 600120, Note_on_c, 0, 71, 121
2, 600660, Note_on_c, 0, 71, 0
2, 600660, Note_on_c, 0, 71, 121
2, 600750, Note_on_c, 0, 71, 0
2, 600750, Note_on_c, 0, 68, 107
2, 600840, Note_on_c, 0, 68, 0
2, 600840, Note_on_c, 0, 71, 122
2, 601020, Note_on_c, 0, 71, 0
2, 601020, Note_on_c, 0, 71, 116
2, 601110, Note_on_c, 0, 71, 0
2, 601110, Note_on_c, 0, 68, 107
2, 601200, Note_on_c, 0, 68, 0
2, 601200, Note_on_c, 0, 71, 122
2, 601380, Note_on_c, 0, 71, 0
2, 601380, Note_on_c, 0, 71, 121
2, 601470, Note_on_c, 0, 71, 0
2, 601470, Note_on_c, 0, 68, 108
2, 601560, Note_on_c, 0, 68, 0
2, 601560, Note_on_c, 0, 71, 122
2, 601740, Note_on_c, 0, 71, 0
2, 601740, Note_on_c, 0, 71, 121
2, 601830, Note_on_c, 0, 71, 0
2, 601830, Note_on_c, 0, 68, 111
2, 601920, Note_on_c, 0, 68, 0
2, 601920, Note_on_c, 0, 71, 122
2, 602100, Note_on_c, 0, 71, 0
2, 602640, Note_on_c, 0, 76, 121
2, 602640, Note_on_c, 0, 80, 121
2, 602730, Note_on_c, 0, 83, 121
2, 602820, Note_on_c, 0, 83, 0
2, 602820, Note_on_c, 0, 80, 0
2, 602820, Note_on_c, 0, 76, 0
2, 602820, Note_on_c, 0, 85, 122
2, 602820, Note_on_c, 0, 80, 122
2, 602910, Note_on_c, 0, 80, 0
2, 602910, Note_on_c, 0, 85, 0
2, 602910, Note_on_c, 0, 87, 122
2, 602910, Note_on_c, 0, 76, 122
2, 603000, Note_on_c, 0, 76, 0
2, 603000, Note_on_c, 0, 87, 0
2, 603000, Note_on_c, 0, 88, 122
2, 603000, Note_on_c, 0, 80, 122
2, 603090, Note_on_c, 0, 80, 0
2, 603090, Note_on_c, 0, 88, 0
2, 603090, Note_on_c, 0, 90, 122
2, 603090, Note_on_c, 0, 76, 122
2, 603180, Note_on_c, 0, 76, 0
2, 603180, Note_on_c, 0, 90, 0
2, 603180, Note_on_c, 0, 92, 122
2, 603180, Note_on_c, 0, 80, 122
2, 603270, Note_on_c, 0, 80, 0
2, 603270, Note_on_c, 0, 92, 0
2, 603270, Note_on_c, 0, 93, 122
2, 603270, Note_on_c, 0, 76, 122
2, 603360, Note_on_c, 0, 76, 0
2, 603360, Note_on_c, 0, 93, 0
2, 603360, Note_on_c, 0, 95, 122
2, 603360, Note_on_c, 0, 80, 122
2, 603432, Note_on_c, 0, 95, 0
2, 603432, Note_on_c, 0, 97, 122
2, 603450, Note_on_c, 0, 80, 0
2, 603450, Note_on_c, 0, 76, 122
2, 603504, Note_on_c, 0, 97, 0
2, 603504, Note_on_c, 0, 99, 122
2, 603540, Note_on_c, 0, 76, 0
2, 603540, Note_on_c, 0, 80, 122
2, 603575, Note_on_c, 0, 99, 0
2, 603575, Note_on_c, 0, 100, 122
2, 603630, Note_on_c, 0, 80, 0
2, 603630, Note_on_c, 0, 76, 122
2, 603647, Note_on_c, 0, 100, 0
2, 603647, Note_on_c, 0, 102, 122
2, 603720, Note_on_c, 0, 102, 0
2, 603720, Note_on_c, 0, 76, 0
2, 603720, Note_on_c, 0, 100, 122
2, 603720, Note_on_c, 0, 104, 122
2, 603720, Note_on_c, 0, 76, 122
2, 603720, Note_on_c, 0, 80, 122
2, 603809, Note_on_c, 0, 80, 0
2, 603809, Note_on_c, 0, 100, 0
2, 603809, Note_on_c, 0, 104, 0
2, 603809, Note_on_c, 0, 76, 0
2, 603809, End_track
3, 0, Start_track
3, 0, Title_t, "Secondo"
3, 0, Program_c, 0, 0
3, 0, Control_c, 0, 7, 105
3, 0, Control_c, 0, 10, 51
3, 0, Control_c, 0, 91, 60
3, 0, Control_c, 0, 121, 0
3, 0, Control_c, 0, 121, 0
3, 0, Control_c, 0, 91, 60
3, 0, Control_c, 0, 10, 51
3, 0, Control_c, 0, 7, 100
3, 0, Note_on_c, 0, 28, 43
3, 180, Note_on_c, 0, 28, 0
3, 180, Note_on_c, 0, 28, 49
3, 270, Note_on_c, 0, 28, 0
3, 270, Note_on_c, 0, 40, 52
3, 360, Note_on_c, 0, 40, 0
3, 360, Note_on_c, 0, 28, 55
3, 450, Note_on_c, 0, 28, 0
3, 450, Note_on_c, 0, 40, 59
3, 540, Note_on_c, 0, 40, 0
3, 540, Note_on_c, 0, 28, 62
3, 630, Note_on_c, 0, 28, 0
3, 630, Note_on_c, 0, 40, 65
3, 720, Note_on_c, 0, 40, 0
3, 720, Note_on_c, 0, 28, 80
3, 900, Note_on_c, 0, 28, 0
3, 900, Note_on_c, 0, 28, 68
3, 990, Note_on_c, 0, 28, 0
3, 990, Note_on_c, 0, 40, 67
3, 1080, Note_on_c, 0, 40, 0
3, 1080, Note_on_c, 0, 28, 66
3, 1170, Note_on_c, 0, 28, 0
3, 1170, Note_on_c, 0, 40, 65
3, 1260, Note_on_c, 0, 40, 0
3, 1260, Note_on_c, 0, 28, 63
3, 1350, Note_on_c, 0, 28, 0
3, 1350, Note_on_c, 0, 40, 62
3, 1440, Note_on_c, 0, 40, 0
3, 1440, Note_on_c, 0, 28, 61
3, 1620, Note_on_c, 0, 28, 0
3, 1620, Note_on_c, 0, 28, 59
3, 1710, Note_on_c, 0, 28, 0
3, 1710, Note_on_c, 0, 40, 58
3, 1800, Note_on_c, 0, 40, 0
3, 1800, Note_on_c, 0, 28, 57
3, 1890, Note_on_c, 0, 28, 0
3, 1890, Note_on_c, 0, 40, 55
3, 1980, Note_on_c, 0, 40, 0
3, 1980, Note_on_c, 0, 28, 54
3, 2070, Note_on_c, 0, 28, 0
3, 2070, Note_on_c, 0, 40, 53
3, 2160, Note_on_c, 0, 40, 0
3, 2160, Note_on_c, 0, 28, 52
3, 2340, Note_on_c, 0, 28, 0
3, 2340, Note_on_c, 0, 28, 50
3, 2430, Note_on_c, 0, 28, 0
3, 2430, Note_on_c, 0, 40, 48
3, 2520, Note_on_c, 0, 40, 0
3, 2520, Note_on_c, 0, 28, 47
3, 2610, Note_on_c, 0, 28, 0
3, 2610, Note_on_c, 0, 40, 46
3, 2700, Note_on_c, 0, 40, 0
3, 2700, Note_on_c, 0, 28, 45
3, 2790, Note_on_c, 0, 28, 0
3, 2790, Note_on_c, 0, 40, 44
3, 2880, Note_on_c, 0, 40, 0
3, 2880, Note_on_c, 0, 52, 69
3, 2880, Note_on_c, 0, 55, 69
3, 2880, Note_on_c, 0, 28, 37
3, 3060, Note_on_c, 0, 28, 0
3, 3060, Note_on_c, 0, 28, 40
3, 3150, Note_on_c, 0, 28, 0
3, 3150, Note_on_c, 0, 40, 49
3, 3240, Note_on_c, 0, 40, 0
3, 3240, Note_on_c, 0, 28, 39
3, 3330, Note_on_c, 0, 28, 0
3, 3330, Note_on_c, 0, 40, 51
3, 3420, Note_on_c, 0, 40, 0
3, 3420, Note_on_c, 0, 28, 41
3, 3510, Note_on_c, 0, 28, 0
3, 3510, Note_on_c, 0, 40, 48
3, 3600, Note_on_c, 0, 40, 0
3, 3600, Note_on_c, 0, 28, 39
3, 3780, Note_on_c, 0, 28, 0
3, 3780, Note_on_c, 0, 28, 43
3, 3870, Note_on_c, 0, 28, 0
3, 3870, Note_on_c, 0, 40, 50
3, 3960, Note_on_c, 0, 40, 0
3, 3960, Note_on_c, 0, 28, 43
3, 4050, Note_on_c, 0, 28, 0
3, 4050, Note_on_c, 0, 40, 50
3, 4140, Note_on_c, 0, 40, 0
3, 4140, Note_on_c, 0, 28, 37
3, 4230, Note_on_c, 0, 28, 0
3, 4230, Note_on_c, 0, 40, 46
3, 4320, Note_on_c, 0, 40, 0
3, 4320, Note_on_c, 0, 55, 0
3, 4320, Note_on_c, 0, 52, 0
3, 4320, Note_on_c, 0, 47, 68
3, 4320, Note_on_c, 0, 54, 68
3, 4320, Note_on_c, 0, 28, 39
3, 4500, Note_on_c, 0, 28, 0
3, 4500, Note_on_c, 0, 28, 43
3, 4590, Note_on_c, 0, 28, 0
3, 4590, Note_on_c, 0, 40, 50
3, 4680, Note_on_c, 0, 40, 0
3, 4680, Note_on_c, 0, 28, 38
3, 4770, Note_on_c, 0, 28, 0
3, 4770, Note_on_c, 0, 40, 46
3, 4860, Note_on_c, 0, 40, 0
3, 4860, Note_on_c, 0, 28, 38
3, 4950, Note_on_c, 0, 28, 0
3, 4950, Note_on_c, 0, 40, 45
3, 5040, Note_on_c, 0, 40, 0
3, 5040, Note_on_c, 0, 28, 39
3, 5220, Note_on_c, 0, 28, 0
3, 5220, Note_on_c, 0, 28, 45
3, 5310, Note_on_c, 0, 28, 0
3, 5310, Note_on_c, 0, 40, 45
3, 5400, Note_on_c, 0, 40, 0
3, 5400, Note_on_c, 0, 28, 37
3, 5490, Note_on_c, 0, 28, 0
3, 5490, Note_on_c, 0, 40, 51
3, 5580, Note_on_c, 0, 40, 0
3, 5580, Note_on_c, 0, 28, 35
3, 5670, Note_on_c, 0, 28, 0
3, 5670, Note_on_c, 0, 40, 45
3, 5760, Note_on_c, 0, 40, 0
3, 5760, Note_on_c, 0, 54, 0
3, 5760, Note_on_c, 0, 47, 0
3, 5760, Note_on_c, 0, 48, 74
3, 5760, Note_on_c, 0, 52, 74
3, 5760, Note_on_c, 0, 28, 34
3, 5940, Note_on_c, 0, 28, 0
3, 5940, Note_on_c, 0, 28, 47
3, 6030, Note_on_c, 0, 28, 0
3, 6030, Note_on_c, 0, 40, 51
3, 6120, Note_on_c, 0, 40, 0
3, 6120, Note_on_c, 0, 28, 38
3, 6210, Note_on_c, 0, 28, 0
3, 6210, Note_on_c, 0, 40, 50
3, 6300, Note_on_c, 0, 40, 0
3, 6300, Note_on_c, 0, 28, 41
3, 6390, Note_on_c, 0, 28, 0
3, 6390, Note_on_c, 0, 40, 50
3, 6480, Note_on_c, 0, 40, 0
3, 6480, Note_on_c, 0, 28, 39
3, 6660, Note_on_c, 0, 28, 0
3, 6660, Note_on_c, 0, 28, 44
3, 6750, Note_on_c, 0, 28, 0
3, 6750, Note_on_c, 0, 40, 49
3, 6840, Note_on_c, 0, 40, 0
3, 6840, Note_on_c, 0, 28, 36
3, 6930, Note_on_c, 0, 28, 0
3, 6930, Note_on_c, 0, 40, 40
3, 7020, Note_on_c, 0, 40, 0
3, 7020, Note_on_c, 0, 28, 42
3, 7110, Note_on_c, 0, 28, 0
3, 7110, Note_on_c, 0, 40, 43
3, 7200, Note_on_c, 0, 40, 0
3, 7200, Note_on_c, 0, 28, 36
3, 7380, Note_on_c, 0, 28, 0
3, 7380, Note_on_c, 0, 28, 38
3, 7470, Note_on_c, 0, 28, 0
3, 7470, Note_on_c, 0, 40, 50
3, 7560, Note_on_c, 0, 40, 0
3, 7560, Note_on_c, 0, 28, 35
3, 7650, Note_on_c, 0, 28, 0
3, 7650, Note_on_c, 0, 40, 46
3, 7740, Note_on_c, 0, 40, 0
3, 7740, Note_on_c, 0, 28, 36
3, 7830, Note_on_c, 0, 28, 0
3, 7830, Note_on_c, 0, 40, 46
3, 7920, Note_on_c, 0, 40, 0
3, 7920, Note_on_c, 0, 28, 32
3, 8100, Note_on_c, 0, 28, 0
3, 8100, Note_on_c, 0, 28, 40
3, 8190, Note_on_c, 0, 28, 0
3, 8190, Note_on_c, 0, 40, 48
3, 8280, Note_on_c, 0, 40, 0
3, 8280, Note_on_c, 0, 28, 36
3, 8370, Note_on_c, 0, 28, 0
3, 8370, Note_on_c, 0, 40, 43
3, 8460, Note_on_c, 0, 40, 0
3, 8460, Note_on_c, 0, 28, 33
3, 8550, Note_on_c, 0, 28, 0
3, 8550, Note_on_c, 0, 40, 51
3, 8640, Note_on_c, 0, 40, 0
3, 8640, Note_on_c, 0, 28, 37
3, 8820, Note_on_c, 0, 28, 0
3, 8820, Note_on_c, 0, 28, 46
3, 8910, Note_on_c, 0, 28, 0
3, 8910, Note_on_c, 0, 40, 47
3, 9000, Note_on_c, 0, 40, 0
3, 9000, Note_on_c, 0, 28, 33
3, 9090, Note_on_c, 0, 28, 0
3, 9090, Note_on_c, 0, 40, 50
3, 9180, Note_on_c, 0, 40, 0
3, 9180, Note_on_c, 0, 28, 35
3, 9270, Note_on_c, 0, 28, 0
3, 9270, Note_on_c, 0, 40, 50
3, 9360, Note_on_c, 0, 40, 0
3, 9360, Note_on_c, 0, 28, 40
3, 9540, Note_on_c, 0, 28, 0
3, 9540, Note_on_c, 0, 28, 45
3, 9630, Note_on_c, 0, 28, 0
3, 9630, Note_on_c, 0, 40, 47
3, 9720, Note_on_c, 0, 40, 0
3, 9720, Note_on_c, 0, 52, 0
3, 9720, Note_on_c, 0, 48, 0
3, 9720, Note_on_c, 0, 28, 37
3, 9810, Note_on_c, 0, 28, 0
3, 9810, Note_on_c, 0, 40, 50
3, 9900, Note_on_c, 0, 40, 0
3, 9900, Note_on_c, 0, 28, 41
3, 9990, Note_on_c, 0, 28, 0
3, 9990, Note_on_c, 0, 40, 45
3, 10080, Note_on_c, 0, 40, 0
3, 10080, Note_on_c, 0, 47, 76
3, 10080, Note_on_c, 0, 50, 76
3, 10080, Note_on_c, 0, 28, 37
3, 10260, Note_on_c, 0, 28, 0
3, 10260, Note_on_c, 0, 28, 43
3, 10350, Note_on_c, 0, 28, 0
3, 10350, Note_on_c, 0, 40, 46
3, 10440, Note_on_c, 0, 40, 0
3, 10440, Note_on_c, 0, 28, 37
3, 10530, Note_on_c, 0, 28, 0
3, 10530, Note_on_c, 0, 40, 50
3, 10620, Note_on_c, 0, 40, 0
3, 10620, Note_on_c, 0, 28, 36
3, 10710, Note_on_c, 0, 28, 0
3, 10710, Note_on_c, 0, 40, 47
3, 10800, Note_on_c, 0, 40, 0
3, 10800, Note_on_c, 0, 50, 0
3, 10800, Note_on_c, 0, 28, 40
3, 10980, Note_on_c, 0, 28, 0
3, 10980, Note_on_c, 0, 28, 42
3, 11070, Note_on_c, 0, 28, 0
3, 11070, Note_on_c, 0, 40, 46
3, 11160, Note_on_c, 0, 40, 0
3, 11160, Note_on_c, 0, 28, 34
3, 11250, Note_on_c, 0, 28, 0
3, 11250, Note_on_c, 0, 40, 48
3, 11340, Note_on_c, 0, 40, 0
3, 11340, Note_on_c, 0, 28, 34
3, 11430, Note_on_c, 0, 28, 0
3, 11430, Note_on_c, 0, 40, 48
3, 11520, Note_on_c, 0, 40, 0
3, 11520, Note_on_c, 0, 47, 0
3, 11520, Note_on_c, 0, 45, 76
3, 11520, Note_on_c, 0, 48, 76
3, 11520, Note_on_c, 0, 28, 40
3, 11700, Note_on_c, 0, 28, 0
3, 11700, Note_on_c, 0, 28, 39
3, 11790, Note_on_c, 0, 28, 0
3, 11790, Note_on_c, 0, 40, 43
3, 11880, Note_on_c, 0, 40, 0
3, 11880, Note_on_c, 0, 28, 38
3, 11970, Note_on_c, 0, 28, 0
3, 11970, Note_on_c, 0, 40, 44
3, 12060, Note_on_c, 0, 40, 0
3, 12060, Note_on_c, 0, 28, 36
3, 12150, Note_on_c, 0, 28, 0
3, 12150, Note_on_c, 0, 40, 49
3, 12240, Note_on_c, 0, 40, 0
3, 12240, Note_on_c, 0, 28, 37
3, 12420, Note_on_c, 0, 28, 0
3, 12420, Note_on_c, 0, 28, 40
3, 12510, Note_on_c, 0, 28, 0
3, 12510, Note_on_c, 0, 40, 47
3, 12600, Note_on_c, 0, 40, 0
3, 12600, Note_on_c, 0, 28, 40
3, 12690, Note_on_c, 0, 28, 0
3, 12690, Note_on_c, 0, 40, 47
3, 12780, Note_on_c, 0, 40, 0
3, 12780, Note_on_c, 0, 28, 34
3, 12870, Note_on_c, 0, 28, 0
3, 12870, Note_on_c, 0, 40, 52
3, 12960, Note_on_c, 0, 40, 0
3, 12960, Note_on_c, 0, 28, 36
3, 13140, Note_on_c, 0, 28, 0
3, 13140, Note_on_c, 0, 28, 41
3, 13230, Note_on_c, 0, 28, 0
3, 13230, Note_on_c, 0, 40, 51
3, 13320, Note_on_c, 0, 40, 0
3, 13320, Note_on_c, 0, 28, 40
3, 13410, Note_on_c, 0, 28, 0
3, 13410, Note_on_c, 0, 40, 46
3, 13500, Note_on_c, 0, 40, 0
3, 13500, Note_on_c, 0, 28, 37
3, 13590, Note_on_c, 0, 28, 0
3, 13590, Note_on_c, 0, 40, 44
3, 13680, Note_on_c, 0, 40, 0
3, 13680, Note_on_c, 0, 28, 39
3, 13860, Note_on_c, 0, 28, 0
3, 13860, Note_on_c, 0, 28, 41
3, 13950, Note_on_c, 0, 28, 0
3, 13950, Note_on_c, 0, 40, 52
3, 14040, Note_on_c, 0, 40, 0
3, 14040, Note_on_c, 0, 28, 36
3, 14130, Note_on_c, 0, 28, 0
3, 14130, Note_on_c, 0, 40, 46
3, 14220, Note_on_c, 0, 40, 0
3, 14220, Note_on_c, 0, 28, 39
3, 14310, Note_on_c, 0, 28, 0
3, 14310, Note_on_c, 0, 40, 46
3, 14400, Note_on_c, 0, 40, 0
3, 14400, Note_on_c, 0, 28, 40
3, 14580, Note_on_c, 0, 28, 0
3, 14580, Note_on_c, 0, 28, 40
3, 14670, Note_on_c, 0, 28, 0
3, 14670, Note_on_c, 0, 40, 47
3, 14760, Note_on_c, 0, 40, 0
3, 14760, Note_on_c, 0, 28, 33
3, 14850, Note_on_c, 0, 28, 0
3, 14850, Note_on_c, 0, 40, 47
3, 14940, Note_on_c, 0, 40, 0
3, 14940, Note_on_c, 0, 28, 38
3, 15030, Note_on_c, 0, 28, 0
3, 15030, Note_on_c, 0, 40, 45
3, 15120, Note_on_c, 0, 40, 0
3, 15120, Note_on_c, 0, 28, 39
3, 15300, Note_on_c, 0, 28, 0
3, 15300, Note_on_c, 0, 28, 41
3, 15390, Note_on_c, 0, 28, 0
3, 15390, Note_on_c, 0, 40, 49
3, 15480, Note_on_c, 0, 40, 0
3, 15480, Note_on_c, 0, 28, 33
3, 15570, Note_on_c, 0, 28, 0
3, 15570, Note_on_c, 0, 40, 48
3, 15660, Note_on_c, 0, 40, 0
3, 15660, Note_on_c, 0, 28, 38
3, 15750, Note_on_c, 0, 28, 0
3, 15750, Note_on_c, 0, 40, 48
3, 15840, Note_on_c, 0, 40, 0
3, 15840, Note_on_c, 0, 48, 0
3, 15840, Note_on_c, 0, 45, 0
3, 15840, Note_on_c, 0, 43, 50
3, 15840, Note_on_c, 0, 47, 50
3, 15840, Note_on_c, 0, 28, 38
3, 16020, Note_on_c, 0, 28, 0
3, 16020, Note_on_c, 0, 28, 41
3, 16110, Note_on_c, 0, 28, 0
3, 16110, Note_on_c, 0, 40, 46
3, 16200, Note_on_c, 0, 40, 0
3, 16200, Note_on_c, 0, 28, 35
3, 16290, Note_on_c, 0, 28, 0
3, 16290, Note_on_c, 0, 40, 46
3, 16380, Note_on_c, 0, 40, 0
3, 16380, Note_on_c, 0, 28, 40
3, 16470, Note_on_c, 0, 28, 0
3, 16470, Note_on_c, 0, 40, 49
3, 16560, Note_on_c, 0, 40, 0
3, 16560, Note_on_c, 0, 28, 39
3, 16740, Note_on_c, 0, 28, 0
3, 16740, Note_on_c, 0, 28, 48
3, 16830, Note_on_c, 0, 28, 0
3, 16830, Note_on_c, 0, 40, 47
3, 16920, Note_on_c, 0, 40, 0
3, 16920, Note_on_c, 0, 28, 37
3, 17010, Note_on_c, 0, 28, 0
3, 17010, Note_on_c, 0, 40, 51
3, 17100, Note_on_c, 0, 40, 0
3, 17100, Note_on_c, 0, 28, 41
3, 17190, Note_on_c, 0, 28, 0
3, 17190, Note_on_c, 0, 40, 50
3, 17280, Note_on_c, 0, 40, 0
3, 17280, Note_on_c, 0, 47, 0
3, 17280, Note_on_c, 0, 43, 0
3, 17280, Note_on_c, 0, 43, 48
3, 17280, Note_on_c, 0, 47, 48
3, 17280, Note_on_c, 0, 28, 41
3, 17460, Note_on_c, 0, 28, 0
3, 17460, Note_on_c, 0, 28, 42
3, 17550, Note_on_c, 0, 28, 0
3, 17550, Note_on_c, 0, 40, 45
3, 17640, Note_on_c, 0, 40, 0
3, 17640, Note_on_c, 0, 28, 40
3, 17730, Note_on_c, 0, 28, 0
3, 17730, Note_on_c, 0, 40, 50
3, 17820, Note_on_c, 0, 40, 0
3, 17820, Note_on_c, 0, 28, 38
3, 17910, Note_on_c, 0, 28, 0
3, 17910, Note_on_c, 0, 40, 52
3, 18000, Note_on_c, 0, 40, 0
3, 18000, Note_on_c, 0, 28, 33
3, 18180, Note_on_c, 0, 28, 0
3, 18180, Note_on_c, 0, 28, 45
3, 18270, Note_on_c, 0, 28, 0
3, 18270, Note_on_c, 0, 40, 51
3, 18360, Note_on_c, 0, 40, 0
3, 18360, Note_on_c, 0, 28, 39
3, 18450, Note_on_c, 0, 28, 0
3, 18450, Note_on_c, 0, 40, 49
3, 18540, Note_on_c, 0, 40, 0
3, 18540, Note_on_c, 0, 28, 40
3, 18630, Note_on_c, 0, 28, 0
3, 18630, Note_on_c, 0, 40, 47
3, 18720, Note_on_c, 0, 40, 0
3, 18720, Note_on_c, 0, 28, 42
3, 18900, Note_on_c, 0, 28, 0
3, 18900, Note_on_c, 0, 28, 38
3, 18990, Note_on_c, 0, 28, 0
3, 18990, Note_on_c, 0, 40, 47
3, 19080, Note_on_c, 0, 40, 0
3, 19080, Note_on_c, 0, 28, 37
3, 19170, Note_on_c, 0, 28, 0
3, 19170, Note_on_c, 0, 40, 57
3, 19260, Note_on_c, 0, 40, 0
3, 19260, Note_on_c, 0, 28, 36
3, 19350, Note_on_c, 0, 28, 0
3, 19350, Note_on_c, 0, 40, 50
3, 19440, Note_on_c, 0, 40, 0
3, 19440, Note_on_c, 0, 28, 35
3, 19620, Note_on_c, 0, 28, 0
3, 19620, Note_on_c, 0, 28, 41
3, 19710, Note_on_c, 0, 28, 0
3, 19710, Note_on_c, 0, 40, 51
3, 19800, Note_on_c, 0, 40, 0
3, 19800, Note_on_c, 0, 28, 37
3, 19890, Note_on_c, 0, 28, 0
3, 19890, Note_on_c, 0, 40, 47
3, 19980, Note_on_c, 0, 40, 0
3, 19980, Note_on_c, 0, 28, 41
3, 20070, Note_on_c, 0, 28, 0
3, 20070, Note_on_c, 0, 40, 53
3, 20160, Note_on_c, 0, 40, 0
3, 20160, Note_on_c, 0, 28, 36
3, 20340, Note_on_c, 0, 28, 0
3, 20340, Note_on_c, 0, 28, 48
3, 20430, Note_on_c, 0, 28, 0
3, 20430, Note_on_c, 0, 40, 47
3, 20520, Note_on_c, 0, 40, 0
3, 20520, Note_on_c, 0, 28, 39
3, 20610, Note_on_c, 0, 28, 0
3, 20610, Note_on_c, 0, 40, 44
3, 20700, Note_on_c, 0, 40, 0
3, 20700, Note_on_c, 0, 28, 38
3, 20790, Note_on_c, 0, 28, 0
3, 20790, Note_on_c, 0, 40, 47
3, 20880, Note_on_c, 0, 40, 0
3, 20880, Note_on_c, 0, 28, 39
3, 21060, Note_on_c, 0, 28, 0
3, 21060, Note_on_c, 0, 28, 39
3, 21150, Note_on_c, 0, 28, 0
3, 21150, Note_on_c, 0, 40, 46
3, 21240, Note_on_c, 0, 40, 0
3, 21240, Note_on_c, 0, 28, 38
3, 21330, Note_on_c, 0, 28, 0
3, 21330, Note_on_c, 0, 40, 48
3, 21420, Note_on_c, 0, 40, 0
3, 21420, Note_on_c, 0, 28, 37
3, 21510, Note_on_c, 0, 28, 0
3, 21510, Note_on_c, 0, 40, 51
3, 21600, Note_on_c, 0, 40, 0
3, 21600, Note_on_c, 0, 28, 37
3, 21780, Note_on_c, 0, 28, 0
3, 21780, Note_on_c, 0, 28, 41
3, 21870, Note_on_c, 0, 28, 0
3, 21870, Note_on_c, 0, 40, 48
3, 21960, Note_on_c, 0, 40, 0
3, 21960, Note_on_c, 0, 28, 38
3, 22050, Note_on_c, 0, 28, 0
3, 22050, Note_on_c, 0, 40, 46
3, 22140, Note_on_c, 0, 40, 0
3, 22140, Note_on_c, 0, 28, 36
3, 22230, Note_on_c, 0, 28, 0
3, 22230, Note_on_c, 0, 40, 48
3, 22320, Note_on_c, 0, 40, 0
3, 22320, Note_on_c, 0, 28, 37
3, 22500, Note_on_c, 0, 28, 0
3, 22500, Note_on_c, 0, 28, 46
3, 22590, Note_on_c, 0, 28, 0
3, 22590, Note_on_c, 0, 40, 46
3, 22680, Note_on_c, 0, 40, 0
3, 22680, Note_on_c, 0, 47, 0
3, 22680, Note_on_c, 0, 43, 0
3, 22680, Note_on_c, 0, 28, 38
3, 22770, Note_on_c, 0, 28, 0
3, 22770, Note_on_c, 0, 40, 46
3, 22860, Note_on_c, 0, 40, 0
3, 22860, Note_on_c, 0, 28, 39
3, 22950, Note_on_c, 0, 28, 0
3, 22950, Note_on_c, 0, 40, 51
3, 23040, Note_on_c, 0, 40, 0
3, 23040, Note_on_c, 0, 55, 41
3, 23040, Note_on_c, 0, 59, 41
3, 23040, Note_on_c, 0, 28, 36
3, 23220, Note_on_c, 0, 28, 0
3, 23220, Note_on_c, 0, 28, 44
3, 23310, Note_on_c, 0, 28, 0
3, 23310, Note_on_c, 0, 40, 45
3, 23400, Note_on_c, 0, 40, 0
3, 23400, Note_on_c, 0, 28, 42
3, 23490, Note_on_c, 0, 28, 0
3, 23490, Note_on_c, 0, 40, 48
3, 23580, Note_on_c, 0, 40, 0
3, 23580, Note_on_c, 0, 28, 39
3, 23670, Note_on_c, 0, 28, 0
3, 23670, Note_on_c, 0, 40, 46
3, 23760, Note_on_c, 0, 40, 0
3, 23760, Note_on_c, 0, 28, 37
3, 23940, Note_on_c, 0, 28, 0
3, 23940, Note_on_c, 0, 28, 42
3, 24030, Note_on_c, 0, 28, 0
3, 24030, Note_on_c, 0, 40, 50
3, 24120, Note_on_c, 0, 40, 0
3, 24120, Note_on_c, 0, 28, 41
3, 24210, Note_on_c, 0, 28, 0
3, 24210, Note_on_c, 0, 40, 46
3, 24300, Note_on_c, 0, 40, 0
3, 24300, Note_on_c, 0, 28, 37
3, 24390, Note_on_c, 0, 28, 0
3, 24390, Note_on_c, 0, 40, 49
3, 24480, Note_on_c, 0, 40, 0
3, 24480, Note_on_c, 0, 59, 0
3, 24480, Note_on_c, 0, 55, 0
3, 24480, Note_on_c, 0, 54, 51
3, 24480, Note_on_c, 0, 57, 51
3, 24480, Note_on_c, 0, 28, 37
3, 24660, Note_on_c, 0, 28, 0
3, 24660, Note_on_c, 0, 28, 41
3, 24750, Note_on_c, 0, 28, 0
3, 24750, Note_on_c, 0, 40, 49
3, 24840, Note_on_c, 0, 40, 0
3, 24840, Note_on_c, 0, 28, 38
3, 24930, Note_on_c, 0, 28, 0
3, 24930, Note_on_c, 0, 40, 50
3, 25020, Note_on_c, 0, 40, 0
3, 25020, Note_on_c, 0, 28, 35
3, 25110, Note_on_c, 0, 28, 0
3, 25110, Note_on_c, 0, 40, 51
3, 25200, Note_on_c, 0, 40, 0
3, 25200, Note_on_c, 0, 28, 40
3, 25380, Note_on_c, 0, 28, 0
3, 25380, Note_on_c, 0, 28, 44
3, 25470, Note_on_c, 0, 28, 0
3, 25470, Note_on_c, 0, 40, 49
3, 25560, Note_on_c, 0, 40, 0
3, 25560, Note_on_c, 0, 28, 39
3, 25650, Note_on_c, 0, 28, 0
3, 25650, Note_on_c, 0, 40, 50
3, 25740, Note_on_c, 0, 40, 0
3, 25740, Note_on_c, 0, 28, 44
3, 25830, Note_on_c, 0, 28, 0
3, 25830, Note_on_c, 0, 40, 50
3, 25920, Note_on_c, 0, 40, 0
3, 25920, Note_on_c, 0, 57, 0
3, 25920, Note_on_c, 0, 54, 0
3, 25920, Note_on_c, 0, 55, 49
3, 25920, Note_on_c, 0, 52, 43
3, 25920, Note_on_c, 0, 28, 39
3, 26100, Note_on_c, 0, 28, 0
3, 26100, Note_on_c, 0, 28, 43
3, 26190, Note_on_c, 0, 28, 0
3, 26190, Note_on_c, 0, 40, 46
3, 26280, Note_on_c, 0, 40, 0
3, 26280, Note_on_c, 0, 28, 34
3, 26370, Note_on_c, 0, 28, 0
3, 26370, Note_on_c, 0, 40, 48
3, 26460, Note_on_c, 0, 40, 0
3, 26460, Note_on_c, 0, 28, 35
3, 26550, Note_on_c, 0, 28, 0
3, 26550, Note_on_c, 0, 40, 49
3, 26640, Note_on_c, 0, 40, 0
3, 26640, Note_on_c, 0, 28, 40
3, 26820, Note_on_c, 0, 28, 0
3, 26820, Note_on_c, 0, 28, 45
3, 26910, Note_on_c, 0, 28, 0
3, 26910, Note_on_c, 0, 40, 48
3, 27000, Note_on_c, 0, 40, 0
3, 27000, Note_on_c, 0, 28, 43
3, 27090, Note_on_c, 0, 28, 0
3, 27090, Note_on_c, 0, 40, 45
3, 27180, Note_on_c, 0, 40, 0
3, 27180, Note_on_c, 0, 28, 43
3, 27270, Note_on_c, 0, 28, 0
3, 27270, Note_on_c, 0, 40, 47
3, 27360, Note_on_c, 0, 40, 0
3, 27360, Note_on_c, 0, 28, 37
3, 27540, Note_on_c, 0, 28, 0
3, 27540, Note_on_c, 0, 28, 43
3, 27630, Note_on_c, 0, 28, 0
3, 27630, Note_on_c, 0, 40, 47
3, 27720, Note_on_c, 0, 40, 0
3, 27720, Note_on_c, 0, 28, 39
3, 27810, Note_on_c, 0, 28, 0
3, 27810, Note_on_c, 0, 40, 47
3, 27900, Note_on_c, 0, 40, 0
3, 27900, Note_on_c, 0, 28, 38
3, 27990, Note_on_c, 0, 28, 0
3, 27990, Note_on_c, 0, 40, 45
3, 28080, Note_on_c, 0, 40, 0
3, 28080, Note_on_c, 0, 52, 0
3, 28080, Note_on_c, 0, 55, 0
3, 28080, Note_on_c, 0, 54, 63
3, 28080, Note_on_c, 0, 50, 63
3, 28080, Note_on_c, 0, 28, 40
3, 28260, Note_on_c, 0, 28, 0
3, 28260, Note_on_c, 0, 28, 41
3, 28350, Note_on_c, 0, 28, 0
3, 28350, Note_on_c, 0, 40, 48
3, 28440, Note_on_c, 0, 40, 0
3, 28440, Note_on_c, 0, 54, 0
3, 28440, Note_on_c, 0, 50, 69
3, 28440, Note_on_c, 0, 28, 37
3, 28530, Note_on_c, 0, 28, 0
3, 28530, Note_on_c, 0, 40, 46
3, 28620, Note_on_c, 0, 40, 0
3, 28620, Note_on_c, 0, 28, 44
3, 28710, Note_on_c, 0, 28, 0
3, 28710, Note_on_c, 0, 40, 53
3, 28800, Note_on_c, 0, 40, 0
3, 28800, Note_on_c, 0, 50, 0
3, 28800, Note_on_c, 0, 50, 0
3, 28800, Note_on_c, 0, 52, 50
3, 28800, Note_on_c, 0, 48, 50
3, 28800, Note_on_c, 0, 28, 35
3, 28980, Note_on_c, 0, 28, 0
3, 28980, Note_on_c, 0, 28, 36
3, 29070, Note_on_c, 0, 28, 0
3, 29070, Note_on_c, 0, 40, 48
3, 29160, Note_on_c, 0, 40, 0
3, 29160, Note_on_c, 0, 28, 38
3, 29250, Note_on_c, 0, 28, 0
3, 29250, Note_on_c, 0, 40, 43
3, 29340, Note_on_c, 0, 40, 0
3, 29340, Note_on_c, 0, 28, 39
3, 29430, Note_on_c, 0, 28, 0
3, 29430, Note_on_c, 0, 40, 49
3, 29520, Note_on_c, 0, 40, 0
3, 29520, Note_on_c, 0, 28, 37
3, 29700, Note_on_c, 0, 28, 0
3, 29700, Note_on_c, 0, 28, 45
3, 29790, Note_on_c, 0, 28, 0
3, 29790, Note_on_c, 0, 40, 47
3, 29880, Note_on_c, 0, 40, 0
3, 29880, Note_on_c, 0, 28, 40
3, 29970, Note_on_c, 0, 28, 0
3, 29970, Note_on_c, 0, 40, 47
3, 30060, Note_on_c, 0, 40, 0
3, 30060, Note_on_c, 0, 28, 38
3, 30150, Note_on_c, 0, 28, 0
3, 30150, Note_on_c, 0, 40, 45
3, 30240, Note_on_c, 0, 40, 0
3, 30240, Note_on_c, 0, 28, 38
3, 30420, Note_on_c, 0, 28, 0
3, 30420, Note_on_c, 0, 28, 45
3, 30510, Note_on_c, 0, 28, 0
3, 30510, Note_on_c, 0, 40, 50
3, 30600, Note_on_c, 0, 40, 0
3, 30600, Note_on_c, 0, 28, 34
3, 30690, Note_on_c, 0, 28, 0
3, 30690, Note_on_c, 0, 40, 47
3, 30780, Note_on_c, 0, 40, 0
3, 30780, Note_on_c, 0, 28, 38
3, 30870, Note_on_c, 0, 28, 0
3, 30870, Note_on_c, 0, 40, 43
3, 30960, Note_on_c, 0, 40, 0
3, 30960, Note_on_c, 0, 48, 0
3, 30960, Note_on_c, 0, 47, 25
3, 30960, Note_on_c, 0, 28, 31
3, 31140, Note_on_c, 0, 28, 0
3, 31140, Note_on_c, 0, 28, 37
3, 31230, Note_on_c, 0, 28, 0
3, 31230, Note_on_c, 0, 40, 46
3, 31320, Note_on_c, 0, 40, 0
3, 31320, Note_on_c, 0, 28, 37
3, 31410, Note_on_c, 0, 28, 0
3, 31410, Note_on_c, 0, 40, 48
3, 31500, Note_on_c, 0, 40, 0
3, 31500, Note_on_c, 0, 28, 37
3, 31590, Note_on_c, 0, 28, 0
3, 31590, Note_on_c, 0, 40, 46
3, 31680, Note_on_c, 0, 40, 0
3, 31680, Note_on_c, 0, 47, 0
3, 31680, Note_on_c, 0, 48, 45
3, 31680, Note_on_c, 0, 28, 34
3, 31860, Note_on_c, 0, 28, 0
3, 31860, Note_on_c, 0, 28, 42
3, 31950, Note_on_c, 0, 28, 0
3, 31950, Note_on_c, 0, 40, 49
3, 32040, Note_on_c, 0, 40, 0
3, 32040, Note_on_c, 0, 28, 41
3, 32130, Note_on_c, 0, 28, 0
3, 32130, Note_on_c, 0, 40, 49
3, 32220, Note_on_c, 0, 40, 0
3, 32220, Note_on_c, 0, 28, 39
3, 32310, Note_on_c, 0, 28, 0
3, 32310, Note_on_c, 0, 40, 46
3, 32400, Note_on_c, 0, 40, 0
3, 32400, Note_on_c, 0, 28, 37
3, 32580, Note_on_c, 0, 28, 0
3, 32580, Note_on_c, 0, 28, 42
3, 32670, Note_on_c, 0, 28, 0
3, 32670, Note_on_c, 0, 40, 46
3, 32760, Note_on_c, 0, 40, 0
3, 32760, Note_on_c, 0, 28, 38
3, 32850, Note_on_c, 0, 28, 0
3, 32850, Note_on_c, 0, 40, 51
3, 32940, Note_on_c, 0, 40, 0
3, 32940, Note_on_c, 0, 28, 39
3, 33030, Note_on_c, 0, 28, 0
3, 33030, Note_on_c, 0, 40, 47
3, 33120, Note_on_c, 0, 40, 0
3, 33120, Note_on_c, 0, 28, 37
3, 33300, Note_on_c, 0, 28, 0
3, 33300, Note_on_c, 0, 28, 44
3, 33390, Note_on_c, 0, 28, 0
3, 33390, Note_on_c, 0, 40, 48
3, 33480, Note_on_c, 0, 40, 0
3, 33480, Note_on_c, 0, 28, 40
3, 33570, Note_on_c, 0, 28, 0
3, 33570, Note_on_c, 0, 40, 50
3, 33660, Note_on_c, 0, 40, 0
3, 33660, Note_on_c, 0, 28, 39
3, 33750, Note_on_c, 0, 28, 0
3, 33750, Note_on_c, 0, 40, 44
3, 33840, Note_on_c, 0, 40, 0
3, 33840, Note_on_c, 0, 28, 40
3, 34020, Note_on_c, 0, 28, 0
3, 34020, Note_on_c, 0, 28, 41
3, 34110, Note_on_c, 0, 28, 0
3, 34110, Note_on_c, 0, 40, 48
3, 34200, Note_on_c, 0, 40, 0
3, 34200, Note_on_c, 0, 48, 0
3, 34200, Note_on_c, 0, 52, 0
3, 34200, Note_on_c, 0, 28, 43
3, 34290, Note_on_c, 0, 28, 0
3, 34290, Note_on_c, 0, 40, 49
3, 34380, Note_on_c, 0, 40, 0
3, 34380, Note_on_c, 0, 28, 38
3, 34470, Note_on_c, 0, 28, 0
3, 34470, Note_on_c, 0, 40, 46
3, 34560, Note_on_c, 0, 40, 0
3, 34560, Note_on_c, 0, 60, 55
3, 34560, Note_on_c, 0, 64, 55
3, 34560, Note_on_c, 0, 28, 36
3, 34740, Note_on_c, 0, 28, 0
3, 34740, Note_on_c, 0, 28, 44
3, 34830, Note_on_c, 0, 28, 0
3, 34830, Note_on_c, 0, 40, 51
3, 34920, Note_on_c, 0, 40, 0
3, 34920, Note_on_c, 0, 28, 42
3, 35010, Note_on_c, 0, 28, 0
3, 35010, Note_on_c, 0, 40, 52
3, 35100, Note_on_c, 0, 40, 0
3, 35100, Note_on_c, 0, 28, 41
3, 35190, Note_on_c, 0, 28, 0
3, 35190, Note_on_c, 0, 40, 52
3, 35280, Note_on_c, 0, 40, 0
3, 35280, Note_on_c, 0, 28, 37
3, 35460, Note_on_c, 0, 28, 0
3, 35460, Note_on_c, 0, 28, 43
3, 35550, Note_on_c, 0, 28, 0
3, 35550, Note_on_c, 0, 40, 48
3, 35640, Note_on_c, 0, 40, 0
3, 35640, Note_on_c, 0, 28, 35
3, 35730, Note_on_c, 0, 28, 0
3, 35730, Note_on_c, 0, 40, 47
3, 35820, Note_on_c, 0, 40, 0
3, 35820, Note_on_c, 0, 28, 38
3, 35910, Note_on_c, 0, 28, 0
3, 35910, Note_on_c, 0, 40, 43
3, 36000, Note_on_c, 0, 40, 0
3, 36000, Note_on_c, 0, 64, 0
3, 36000, Note_on_c, 0, 60, 0
3, 36000, Note_on_c, 0, 59, 59
3, 36000, Note_on_c, 0, 62, 59
3, 36000, Note_on_c, 0, 28, 39
3, 36180, Note_on_c, 0, 28, 0
3, 36180, Note_on_c, 0, 28, 41
3, 36270, Note_on_c, 0, 28, 0
3, 36270, Note_on_c, 0, 40, 50
3, 36360, Note_on_c, 0, 40, 0
3, 36360, Note_on_c, 0, 28, 38
3, 36450, Note_on_c, 0, 28, 0
3, 36450, Note_on_c, 0, 40, 48
3, 36540, Note_on_c, 0, 40, 0
3, 36540, Note_on_c, 0, 28, 41
3, 36630, Note_on_c, 0, 28, 0
3, 36630, Note_on_c, 0, 40, 52
3, 36720, Note_on_c, 0, 40, 0
3, 36720, Note_on_c, 0, 28, 40
3, 36900, Note_on_c, 0, 28, 0
3, 36900, Note_on_c, 0, 28, 42
3, 36990, Note_on_c, 0, 28, 0
3, 36990, Note_on_c, 0, 40, 49
3, 37080, Note_on_c, 0, 40, 0
3, 37080, Note_on_c, 0, 28, 36
3, 37170, Note_on_c, 0, 28, 0
3, 37170, Note_on_c, 0, 40, 51
3, 37260, Note_on_c, 0, 40, 0
3, 37260, Note_on_c, 0, 28, 38
3, 37350, Note_on_c, 0, 28, 0
3, 37350, Note_on_c, 0, 40, 47
3, 37440, Note_on_c, 0, 40, 0
3, 37440, Note_on_c, 0, 62, 0
3, 37440, Note_on_c, 0, 59, 0
3, 37440, Note_on_c, 0, 60, 53
3, 37440, Note_on_c, 0, 57, 45
3, 37440, Note_on_c, 0, 28, 37
3, 37620, Note_on_c, 0, 28, 0
3, 37620, Note_on_c, 0, 28, 42
3, 37710, Note_on_c, 0, 28, 0
3, 37710, Note_on_c, 0, 40, 49
3, 37800, Note_on_c, 0, 40, 0
3, 37800, Note_on_c, 0, 28, 36
3, 37890, Note_on_c, 0, 28, 0
3, 37890, Note_on_c, 0, 40, 47
3, 37980, Note_on_c, 0, 40, 0
3, 37980, Note_on_c, 0, 28, 38
3, 38070, Note_on_c, 0, 28, 0
3, 38070, Note_on_c, 0, 40, 47
3, 38160, Note_on_c, 0, 40, 0
3, 38160, Note_on_c, 0, 28, 39
3, 38340, Note_on_c, 0, 28, 0
3, 38340, Note_on_c, 0, 28, 38
3, 38430, Note_on_c, 0, 28, 0
3, 38430, Note_on_c, 0, 40, 48
3, 38520, Note_on_c, 0, 40, 0
3, 38520, Note_on_c, 0, 28, 37
3, 38610, Note_on_c, 0, 28, 0
3, 38610, Note_on_c, 0, 40, 43
3, 38700, Note_on_c, 0, 40, 0
3, 38700, Note_on_c, 0, 28, 40
3, 38790, Note_on_c, 0, 28, 0
3, 38790, Note_on_c, 0, 40, 49
3, 38880, Note_on_c, 0, 40, 0
3, 38880, Note_on_c, 0, 28, 40
3, 39060, Note_on_c, 0, 28, 0
3, 39060, Note_on_c, 0, 28, 44
3, 39150, Note_on_c, 0, 28, 0
3, 39150, Note_on_c, 0, 40, 47
3, 39240, Note_on_c, 0, 40, 0
3, 39240, Note_on_c, 0, 28, 39
3, 39330, Note_on_c, 0, 28, 0
3, 39330, Note_on_c, 0, 40, 48
3, 39420, Note_on_c, 0, 40, 0
3, 39420, Note_on_c, 0, 28, 37
3, 39510, Note_on_c, 0, 28, 0
3, 39510, Note_on_c, 0, 40, 45
3, 39600, Note_on_c, 0, 40, 0
3, 39600, Note_on_c, 0, 57, 0
3, 39600, Note_on_c, 0, 60, 0
3, 39600, Note_on_c, 0, 59, 60
3, 39600, Note_on_c, 0, 55, 43
3, 39600, Note_on_c, 0, 28, 39
3, 39780, Note_on_c, 0, 28, 0
3, 39780, Note_on_c, 0, 28, 39
3, 39870, Note_on_c, 0, 28, 0
3, 39870, Note_on_c, 0, 40, 47
3, 39960, Note_on_c, 0, 40, 0
3, 39960, Note_on_c, 0, 59, 0
3, 39960, Note_on_c, 0, 55, 73
3, 39960, Note_on_c, 0, 28, 34
3, 40050, Note_on_c, 0, 28, 0
3, 40050, Note_on_c, 0, 40, 54
3, 40140, Note_on_c, 0, 40, 0
3, 40140, Note_on_c, 0, 28, 40
3, 40230, Note_on_c, 0, 28, 0
3, 40230, Note_on_c, 0, 40, 51
3, 40320, Note_on_c, 0, 40, 0
3, 40320, Note_on_c, 0, 55, 0
3, 40320, Note_on_c, 0, 55, 0
3, 40320, Note_on_c, 0, 48, 107
3, 40320, Note_on_c, 0, 57, 107
3, 40320, Note_on_c, 0, 53, 86
3, 40320, Note_on_c, 0, 28, 37
3, 40500, Note_on_c, 0, 28, 0
3, 40500, Note_on_c, 0, 28, 39
3, 40590, Note_on_c, 0, 28, 0
3, 40590, Note_on_c, 0, 40, 51
3, 40680, Note_on_c, 0, 40, 0
3, 40680, Note_on_c, 0, 28, 37
3, 40770, Note_on_c, 0, 28, 0
3, 40770, Note_on_c, 0, 40, 45
3, 40860, Note_on_c, 0, 40, 0
3, 40860, Note_on_c, 0, 28, 39
3, 40950, Note_on_c, 0, 28, 0
3, 40950, Note_on_c, 0, 40, 50
3, 41040, Note_on_c, 0, 40, 0
3, 41040, Note_on_c, 0, 28, 38
3, 41220, Note_on_c, 0, 28, 0
3, 41220, Note_on_c, 0, 28, 44
3, 41310, Note_on_c, 0, 28, 0
3, 41310, Note_on_c, 0, 40, 48
3, 41400, Note_on_c, 0, 40, 0
3, 41400, Note_on_c, 0, 28, 40
3, 41490, Note_on_c, 0, 28, 0
3, 41490, Note_on_c, 0, 40, 51
3, 41580, Note_on_c, 0, 40, 0
3, 41580, Note_on_c, 0, 28, 35
3, 41670, Note_on_c, 0, 28, 0
3, 41670, Note_on_c, 0, 40, 48
3, 41760, Note_on_c, 0, 40, 0
3, 41760, Note_on_c, 0, 28, 39
3, 41940, Note_on_c, 0, 28, 0
3, 41940, Note_on_c, 0, 28, 43
3, 42030, Note_on_c, 0, 28, 0
3, 42030, Note_on_c, 0, 40, 50
3, 42120, Note_on_c, 0, 40, 0
3, 42120, Note_on_c, 0, 28, 39
3, 42210, Note_on_c, 0, 28, 0
3, 42210, Note_on_c, 0, 40, 44
3, 42300, Note_on_c, 0, 40, 0
3, 42300, Note_on_c, 0, 28, 42
3, 42390, Note_on_c, 0, 28, 0
3, 42390, Note_on_c, 0, 40, 48
3, 42480, Note_on_c, 0, 40, 0
3, 42480, Note_on_c, 0, 53, 0
3, 42480, Note_on_c, 0, 52, 64
3, 42480, Note_on_c, 0, 28, 38
3, 42660, Note_on_c, 0, 28, 0
3, 42660, Note_on_c, 0, 28, 44
3, 42750, Note_on_c, 0, 28, 0
3, 42750, Note_on_c, 0, 40, 49
3, 42840, Note_on_c, 0, 40, 0
3, 42840, Note_on_c, 0, 28, 39
3, 42930, Note_on_c, 0, 28, 0
3, 42930, Note_on_c, 0, 40, 47
3, 43020, Note_on_c, 0, 40, 0
3, 43020, Note_on_c, 0, 28, 34
3, 43110, Note_on_c, 0, 28, 0
3, 43110, Note_on_c, 0, 40, 45
3, 43200, Note_on_c, 0, 40, 0
3, 43200, Note_on_c, 0, 52, 0
3, 43200, Note_on_c, 0, 57, 0
3, 43200, Note_on_c, 0, 57, 42
3, 43200, Note_on_c, 0, 53, 44
3, 43200, Note_on_c, 0, 28, 39
3, 43380, Note_on_c, 0, 28, 0
3, 43380, Note_on_c, 0, 28, 40
3, 43470, Note_on_c, 0, 28, 0
3, 43470, Note_on_c, 0, 40, 45
3, 43560, Note_on_c, 0, 40, 0
3, 43560, Note_on_c, 0, 28, 38
3, 43650, Note_on_c, 0, 28, 0
3, 43650, Note_on_c, 0, 40, 52
3, 43740, Note_on_c, 0, 40, 0
3, 43740, Note_on_c, 0, 28, 38
3, 43830, Note_on_c, 0, 28, 0
3, 43830, Note_on_c, 0, 40, 52
3, 43920, Note_on_c, 0, 40, 0
3, 43920, Note_on_c, 0, 28, 38
3, 44100, Note_on_c, 0, 28, 0
3, 44100, Note_on_c, 0, 28, 44
3, 44190, Note_on_c, 0, 28, 0
3, 44190, Note_on_c, 0, 40, 46
3, 44280, Note_on_c, 0, 40, 0
3, 44280, Note_on_c, 0, 28, 38
3, 44370, Note_on_c, 0, 28, 0
3, 44370, Note_on_c, 0, 40, 48
3, 44460, Note_on_c, 0, 40, 0
3, 44460, Note_on_c, 0, 28, 41
3, 44550, Note_on_c, 0, 28, 0
3, 44550, Note_on_c, 0, 40, 51
3, 44640, Note_on_c, 0, 40, 0
3, 44640, Note_on_c, 0, 28, 41
3, 44820, Note_on_c, 0, 28, 0
3, 44820, Note_on_c, 0, 28, 42
3, 44910, Note_on_c, 0, 28, 0
3, 44910, Note_on_c, 0, 40, 47
3, 45000, Note_on_c, 0, 40, 0
3, 45000, Note_on_c, 0, 28, 46
3, 45090, Note_on_c, 0, 28, 0
3, 45090, Note_on_c, 0, 40, 48
3, 45180, Note_on_c, 0, 40, 0
3, 45180, Note_on_c, 0, 28, 36
3, 45270, Note_on_c, 0, 28, 0
3, 45270, Note_on_c, 0, 40, 48
3, 45360, Note_on_c, 0, 40, 0
3, 45360, Note_on_c, 0, 28, 38
3, 45540, Note_on_c, 0, 28, 0
3, 45540, Note_on_c, 0, 28, 41
3, 45630, Note_on_c, 0, 28, 0
3, 45630, Note_on_c, 0, 40, 49
3, 45720, Note_on_c, 0, 40, 0
3, 45720, Note_on_c, 0, 53, 0
3, 45720, Note_on_c, 0, 57, 0
3, 45720, Note_on_c, 0, 48, 0
3, 45720, Note_on_c, 0, 28, 37
3, 45810, Note_on_c, 0, 28, 0
3, 45810, Note_on_c, 0, 40, 49
3, 45900, Note_on_c, 0, 40, 0
3, 45900, Note_on_c, 0, 28, 37
3, 45990, Note_on_c, 0, 28, 0
3, 45990, Note_on_c, 0, 40, 44
3, 46080, Note_on_c, 0, 40, 0
3, 46080, Note_on_c, 0, 52, 52
3, 46080, Note_on_c, 0, 55, 52
3, 46080, Note_on_c, 0, 28, 38
3, 46260, Note_on_c, 0, 28, 0
3, 46260, Note_on_c, 0, 28, 40
3, 46350, Note_on_c, 0, 28, 0
3, 46350, Note_on_c, 0, 40, 50
3, 46440, Note_on_c, 0, 40, 0
3, 46440, Note_on_c, 0, 28, 35
3, 46530, Note_on_c, 0, 28, 0
3, 46530, Note_on_c, 0, 40, 48
3, 46620, Note_on_c, 0, 40, 0
3, 46620, Note_on_c, 0, 28, 40
3, 46710, Note_on_c, 0, 28, 0
3, 46710, Note_on_c, 0, 40, 48
3, 46800, Note_on_c, 0, 40, 0
3, 46800, Note_on_c, 0, 55, 0
3, 46800, Note_on_c, 0, 52, 0
3, 46800, Note_on_c, 0, 47, 60
3, 46800, Note_on_c, 0, 54, 60
3, 46800, Note_on_c, 0, 28, 37
3, 46980, Note_on_c, 0, 28, 0
3, 46980, Note_on_c, 0, 28, 41
3, 47070, Note_on_c, 0, 28, 0
3, 47070, Note_on_c, 0, 40, 44
3, 47160, Note_on_c, 0, 40, 0
3, 47160, Note_on_c, 0, 28, 38
3, 47250, Note_on_c, 0, 28, 0
3, 47250, Note_on_c, 0, 40, 47
3, 47340, Note_on_c, 0, 40, 0
3, 47340, Note_on_c, 0, 28, 37
3, 47430, Note_on_c, 0, 28, 0
3, 47430, Note_on_c, 0, 40, 47
3, 47520, Note_on_c, 0, 40, 0
3, 47520, Note_on_c, 0, 54, 0
3, 47520, Note_on_c, 0, 47, 0
3, 47520, Note_on_c, 0, 48, 60
3, 47520, Note_on_c, 0, 52, 60
3, 47520, Note_on_c, 0, 28, 40
3, 47700, Note_on_c, 0, 28, 0
3, 47700, Note_on_c, 0, 28, 45
3, 47790, Note_on_c, 0, 28, 0
3, 47790, Note_on_c, 0, 40, 49
3, 47880, Note_on_c, 0, 40, 0
3, 47880, Note_on_c, 0, 28, 39
3, 47970, Note_on_c, 0, 28, 0
3, 47970, Note_on_c, 0, 40, 45
3, 48060, Note_on_c, 0, 40, 0
3, 48060, Note_on_c, 0, 28, 34
3, 48150, Note_on_c, 0, 28, 0
3, 48150, Note_on_c, 0, 40, 46
3, 48240, Note_on_c, 0, 40, 0
3, 48240, Note_on_c, 0, 28, 36
3, 48420, Note_on_c, 0, 28, 0
3, 48420, Note_on_c, 0, 28, 41
3, 48510, Note_on_c, 0, 28, 0
3, 48510, Note_on_c, 0, 40, 45
3, 48600, Note_on_c, 0, 40, 0
3, 48600, Note_on_c, 0, 28, 36
3, 48690, Note_on_c, 0, 28, 0
3, 48690, Note_on_c, 0, 40, 51
3, 48780, Note_on_c, 0, 40, 0
3, 48780, Note_on_c, 0, 28, 40
3, 48870, Note_on_c, 0, 28, 0
3, 48870, Note_on_c, 0, 40, 46
3, 48960, Note_on_c, 0, 40, 0
3, 48960, Note_on_c, 0, 28, 34
3, 49140, Note_on_c, 0, 28, 0
3, 49140, Note_on_c, 0, 28, 40
3, 49230, Note_on_c, 0, 28, 0
3, 49230, Note_on_c, 0, 40, 48
3, 49320, Note_on_c, 0, 40, 0
3, 49320, Note_on_c, 0, 28, 37
3, 49410, Note_on_c, 0, 28, 0
3, 49410, Note_on_c, 0, 40, 45
3, 49500, Note_on_c, 0, 40, 0
3, 49500, Note_on_c, 0, 28, 38
3, 49590, Note_on_c, 0, 28, 0
3, 49590, Note_on_c, 0, 40, 49
3, 49680, Note_on_c, 0, 40, 0
3, 49680, Note_on_c, 0, 28, 34
3, 49860, Note_on_c, 0, 28, 0
3, 49860, Note_on_c, 0, 28, 42
3, 49950, Note_on_c, 0, 28, 0
3, 49950, Note_on_c, 0, 40, 49
3, 50040, Note_on_c, 0, 40, 0
3, 50040, Note_on_c, 0, 52, 0
3, 50040, Note_on_c, 0, 48, 0
3, 50040, Note_on_c, 0, 28, 37
3, 50130, Note_on_c, 0, 28, 0
3, 50130, Note_on_c, 0, 40, 48
3, 50220, Note_on_c, 0, 40, 0
3, 50220, Note_on_c, 0, 28, 37
3, 50310, Note_on_c, 0, 28, 0
3, 50310, Note_on_c, 0, 40, 46
3, 50400, Note_on_c, 0, 40, 0
3, 50400, Note_on_c, 0, 52, 56
3, 50400, Note_on_c, 0, 55, 56
3, 50400, Note_on_c, 0, 28, 38
3, 50580, Note_on_c, 0, 28, 0
3, 50580, Note_on_c, 0, 28, 41
3, 50670, Note_on_c, 0, 28, 0
3, 50670, Note_on_c, 0, 40, 46
3, 50760, Note_on_c, 0, 40, 0
3, 50760, Note_on_c, 0, 28, 33
3, 50850, Note_on_c, 0, 28, 0
3, 50850, Note_on_c, 0, 40, 46
3, 50940, Note_on_c, 0, 40, 0
3, 50940, Note_on_c, 0, 28, 37
3, 51030, Note_on_c, 0, 28, 0
3, 51030, Note_on_c, 0, 40, 44
3, 51120, Note_on_c, 0, 40, 0
3, 51120, Note_on_c, 0, 55, 0
3, 51120, Note_on_c, 0, 52, 0
3, 51120, Note_on_c, 0, 47, 60
3, 51120, Note_on_c, 0, 54, 60
3, 51120, Note_on_c, 0, 28, 39
3, 51300, Note_on_c, 0, 28, 0
3, 51300, Note_on_c, 0, 28, 44
3, 51390, Note_on_c, 0, 28, 0
3, 51390, Note_on_c, 0, 40, 49
3, 51480, Note_on_c, 0, 40, 0
3, 51480, Note_on_c, 0, 28, 35
3, 51570, Note_on_c, 0, 28, 0
3, 51570, Note_on_c, 0, 40, 51
3, 51660, Note_on_c, 0, 40, 0
3, 51660, Note_on_c, 0, 28, 40
3, 51750, Note_on_c, 0, 28, 0
3, 51750, Note_on_c, 0, 40, 44
3, 51840, Note_on_c, 0, 40, 0
3, 51840, Note_on_c, 0, 54, 0
3, 51840, Note_on_c, 0, 47, 0
3, 51840, Note_on_c, 0, 45, 60
3, 51840, Note_on_c, 0, 52, 60
3, 51840, Note_on_c, 0, 28, 41
3, 52020, Note_on_c, 0, 28, 0
3, 52020, Note_on_c, 0, 28, 44
3, 52110, Note_on_c, 0, 28, 0
3, 52110, Note_on_c, 0, 40, 46
3, 52200, Note_on_c, 0, 40, 0
3, 52200, Note_on_c, 0, 28, 37
3, 52290, Note_on_c, 0, 28, 0
3, 52290, Note_on_c, 0, 40, 50
3, 52380, Note_on_c, 0, 40, 0
3, 52380, Note_on_c, 0, 28, 38
3, 52470, Note_on_c, 0, 28, 0
3, 52470, Note_on_c, 0, 40, 51
3, 52560, Note_on_c, 0, 40, 0
3, 52560, Note_on_c, 0, 28, 31
3, 52740, Note_on_c, 0, 28, 0
3, 52740, Note_on_c, 0, 28, 43
3, 52830, Note_on_c, 0, 28, 0
3, 52830, Note_on_c, 0, 40, 48
3, 52920, Note_on_c, 0, 40, 0
3, 52920, Note_on_c, 0, 28, 40
3, 53010, Note_on_c, 0, 28, 0
3, 53010, Note_on_c, 0, 40, 48
3, 53100, Note_on_c, 0, 40, 0
3, 53100, Note_on_c, 0, 28, 36
3, 53190, Note_on_c, 0, 28, 0
3, 53190, Note_on_c, 0, 40, 49
3, 53280, Note_on_c, 0, 40, 0
3, 53280, Note_on_c, 0, 28, 38
3, 53460, Note_on_c, 0, 28, 0
3, 53460, Note_on_c, 0, 28, 44
3, 53550, Note_on_c, 0, 28, 0
3, 53550, Note_on_c, 0, 40, 48
3, 53640, Note_on_c, 0, 40, 0
3, 53640, Note_on_c, 0, 28, 33
3, 53730, Note_on_c, 0, 28, 0
3, 53730, Note_on_c, 0, 40, 47
3, 53820, Note_on_c, 0, 40, 0
3, 53820, Note_on_c, 0, 28, 39
3, 53910, Note_on_c, 0, 28, 0
3, 53910, Note_on_c, 0, 40, 46
3, 54000, Note_on_c, 0, 40, 0
3, 54000, Note_on_c, 0, 28, 39
3, 54180, Note_on_c, 0, 28, 0
3, 54180, Note_on_c, 0, 28, 44
3, 54270, Note_on_c, 0, 28, 0
3, 54270, Note_on_c, 0, 40, 48
3, 54360, Note_on_c, 0, 40, 0
3, 54360, Note_on_c, 0, 52, 0
3, 54360, Note_on_c, 0, 45, 0
3, 54360, Note_on_c, 0, 28, 38
3, 54450, Note_on_c, 0, 28, 0
3, 54450, Note_on_c, 0, 40, 45
3, 54540, Note_on_c, 0, 40, 0
3, 54540, Note_on_c, 0, 28, 36
3, 54630, Note_on_c, 0, 28, 0
3, 54630, Note_on_c, 0, 40, 44
3, 54720, Note_on_c, 0, 40, 0
3, 54720, Note_on_c, 0, 55, 51
3, 54720, Note_on_c, 0, 59, 51
3, 54720, Note_on_c, 0, 28, 37
3, 54900, Note_on_c, 0, 28, 0
3, 54900, Note_on_c, 0, 28, 44
3, 54990, Note_on_c, 0, 28, 0
3, 54990, Note_on_c, 0, 40, 46
3, 55080, Note_on_c, 0, 40, 0
3, 55080, Note_on_c, 0, 28, 38
3, 55170, Note_on_c, 0, 28, 0
3, 55170, Note_on_c, 0, 40, 43
3, 55260, Note_on_c, 0, 40, 0
3, 55260, Note_on_c, 0, 28, 38
3, 55350, Note_on_c, 0, 28, 0
3, 55350, Note_on_c, 0, 40, 48
3, 55440, Note_on_c, 0, 40, 0
3, 55440, Note_on_c, 0, 59, 0
3, 55440, Note_on_c, 0, 55, 0
3, 55440, Note_on_c, 0, 50, 60
3, 55440, Note_on_c, 0, 57, 60
3, 55440, Note_on_c, 0, 28, 33
3, 55620, Note_on_c, 0, 28, 0
3, 55620, Note_on_c, 0, 28, 38
3, 55710, Note_on_c, 0, 28, 0
3, 55710, Note_on_c, 0, 40, 47
3, 55800, Note_on_c, 0, 40, 0
3, 55800, Note_on_c, 0, 28, 40
3, 55890, Note_on_c, 0, 28, 0
3, 55890, Note_on_c, 0, 40, 53
3, 55980, Note_on_c, 0, 40, 0
3, 55980, Note_on_c, 0, 28, 38
3, 56070, Note_on_c, 0, 28, 0
3, 56070, Note_on_c, 0, 40, 45
3, 56160, Note_on_c, 0, 40, 0
3, 56160, Note_on_c, 0, 57, 0
3, 56160, Note_on_c, 0, 50, 0
3, 56160, Note_on_c, 0, 52, 60
3, 56160, Note_on_c, 0, 55, 60
3, 56160, Note_on_c, 0, 28, 38
3, 56340, Note_on_c, 0, 28, 0
3, 56340, Note_on_c, 0, 28, 44
3, 56430, Note_on_c, 0, 28, 0
3, 56430, Note_on_c, 0, 40, 48
3, 56520, Note_on_c, 0, 40, 0
3, 56520, Note_on_c, 0, 28, 33
3, 56610, Note_on_c, 0, 28, 0
3, 56610, Note_on_c, 0, 40, 47
3, 56700, Note_on_c, 0, 40, 0
3, 56700, Note_on_c, 0, 28, 35
3, 56790, Note_on_c, 0, 28, 0
3, 56790, Note_on_c, 0, 40, 44
3, 56880, Note_on_c, 0, 40, 0
3, 56880, Note_on_c, 0, 28, 38
3, 57060, Note_on_c, 0, 28, 0
3, 57060, Note_on_c, 0, 28, 43
3, 57150, Note_on_c, 0, 28, 0
3, 57150, Note_on_c, 0, 40, 48
3, 57240, Note_on_c, 0, 40, 0
3, 57240, Note_on_c, 0, 28, 35
3, 57330, Note_on_c, 0, 28, 0
3, 57330, Note_on_c, 0, 40, 50
3, 57420, Note_on_c, 0, 40, 0
3, 57420, Note_on_c, 0, 28, 42
3, 57510, Note_on_c, 0, 28, 0
3, 57510, Note_on_c, 0, 40, 49
3, 57600, Note_on_c, 0, 40, 0
3, 57600, Note_on_c, 0, 28, 37
3, 57780, Note_on_c, 0, 28, 0
3, 57780, Note_on_c, 0, 28, 40
3, 57870, Note_on_c, 0, 28, 0
3, 57870, Note_on_c, 0, 40, 50
3, 57960, Note_on_c, 0, 40, 0
3, 57960, Note_on_c, 0, 28, 31
3, 58050, Note_on_c, 0, 28, 0
3, 58050, Note_on_c, 0, 40, 49
3, 58140, Note_on_c, 0, 40, 0
3, 58140, Note_on_c, 0, 28, 35
3, 58230, Note_on_c, 0, 28, 0
3, 58230, Note_on_c, 0, 40, 49
3, 58320, Note_on_c, 0, 40, 0
3, 58320, Note_on_c, 0, 28, 38
3, 58500, Note_on_c, 0, 28, 0
3, 58500, Note_on_c, 0, 28, 43
3, 58590, Note_on_c, 0, 28, 0
3, 58590, Note_on_c, 0, 40, 46
3, 58680, Note_on_c, 0, 40, 0
3, 58680, Note_on_c, 0, 55, 0
3, 58680, Note_on_c, 0, 52, 0
3, 58680, Note_on_c, 0, 28, 39
3, 58770, Note_on_c, 0, 28, 0
3, 58770, Note_on_c, 0, 40, 51
3, 58860, Note_on_c, 0, 40, 0
3, 58860, Note_on_c, 0, 28, 38
3, 58950, Note_on_c, 0, 28, 0
3, 58950, Note_on_c, 0, 40, 47
3, 59040, Note_on_c, 0, 40, 0
3, 59040, Note_on_c, 0, 55, 52
3, 59040, Note_on_c, 0, 59, 52
3, 59040, Note_on_c, 0, 28, 35
3, 59220, Note_on_c, 0, 28, 0
3, 59220, Note_on_c, 0, 28, 44
3, 59310, Note_on_c, 0, 28, 0
3, 59310, Note_on_c, 0, 40, 53
3, 59400, Note_on_c, 0, 40, 0
3, 59400, Note_on_c, 0, 28, 37
3, 59490, Note_on_c, 0, 28, 0
3, 59490, Note_on_c, 0, 40, 45
3, 59580, Note_on_c, 0, 40, 0
3, 59580, Note_on_c, 0, 28, 34
3, 59670, Note_on_c, 0, 28, 0
3, 59670, Note_on_c, 0, 40, 49
3, 59760, Note_on_c, 0, 40, 0
3, 59760, Note_on_c, 0, 59, 0
3, 59760, Note_on_c, 0, 55, 0
3, 59760, Note_on_c, 0, 50, 60
3, 59760, Note_on_c, 0, 57, 60
3, 59760, Note_on_c, 0, 28, 36
3, 59940, Note_on_c, 0, 28, 0
3, 59940, Note_on_c, 0, 28, 46
3, 60030, Note_on_c, 0, 28, 0
3, 60030, Note_on_c, 0, 40, 52
3, 60120, Note_on_c, 0, 40, 0
3, 60120, Note_on_c, 0, 28, 38
3, 60210, Note_on_c, 0, 28, 0
3, 60210, Note_on_c, 0, 40, 50
3, 60300, Note_on_c, 0, 40, 0
3, 60300, Note_on_c, 0, 28, 34
3, 60390, Note_on_c, 0, 28, 0
3, 60390, Note_on_c, 0, 40, 47
3, 60480, Note_on_c, 0, 40, 0
3, 60480, Note_on_c, 0, 57, 0
3, 60480, Note_on_c, 0, 50, 0
3, 60480, Note_on_c, 0, 48, 60
3, 60480, Note_on_c, 0, 55, 60
3, 60480, Note_on_c, 0, 28, 38
3, 60660, Note_on_c, 0, 28, 0
3, 60660, Note_on_c, 0, 28, 39
3, 60750, Note_on_c, 0, 28, 0
3, 60750, Note_on_c, 0, 40, 48
3, 60840, Note_on_c, 0, 40, 0
3, 60840, Note_on_c, 0, 28, 41
3, 60930, Note_on_c, 0, 28, 0
3, 60930, Note_on_c, 0, 40, 50
3, 61020, Note_on_c, 0, 40, 0
3, 61020, Note_on_c, 0, 28, 39
3, 61110, Note_on_c, 0, 28, 0
3, 61110, Note_on_c, 0, 40, 50
3, 61200, Note_on_c, 0, 40, 0
3, 61200, Note_on_c, 0, 28, 37
3, 61380, Note_on_c, 0, 28, 0
3, 61380, Note_on_c, 0, 28, 41
3, 61470, Note_on_c, 0, 28, 0
3, 61470, Note_on_c, 0, 40, 41
3, 61560, Note_on_c, 0, 40, 0
3, 61560, Note_on_c, 0, 28, 38
3, 61650, Note_on_c, 0, 28, 0
3, 61650, Note_on_c, 0, 40, 51
3, 61740, Note_on_c, 0, 40, 0
3, 61740, Note_on_c, 0, 28, 40
3, 61830, Note_on_c, 0, 28, 0
3, 61830, Note_on_c, 0, 40, 46
3, 61920, Note_on_c, 0, 40, 0
3, 61920, Note_on_c, 0, 28, 36
3, 62100, Note_on_c, 0, 28, 0
3, 62100, Note_on_c, 0, 28, 38
3, 62190, Note_on_c, 0, 28, 0
3, 62190, Note_on_c, 0, 40, 44
3, 62280, Note_on_c, 0, 40, 0
3, 62280, Note_on_c, 0, 28, 42
3, 62370, Note_on_c, 0, 28, 0
3, 62370, Note_on_c, 0, 40, 46
3, 62460, Note_on_c, 0, 40, 0
3, 62460, Note_on_c, 0, 28, 36
3, 62550, Note_on_c, 0, 28, 0
3, 62550, Note_on_c, 0, 40, 53
3, 62640, Note_on_c, 0, 40, 0
3, 62640, Note_on_c, 0, 28, 41
3, 62820, Note_on_c, 0, 28, 0
3, 62820, Note_on_c, 0, 28, 43
3, 62910, Note_on_c, 0, 28, 0
3, 62910, Note_on_c, 0, 40, 43
3, 63000, Note_on_c, 0, 40, 0
3, 63000, Note_on_c, 0, 55, 0
3, 63000, Note_on_c, 0, 48, 0
3, 63000, Note_on_c, 0, 28, 41
3, 63090, Note_on_c, 0, 28, 0
3, 63090, Note_on_c, 0, 40, 48
3, 63180, Note_on_c, 0, 40, 0
3, 63180, Note_on_c, 0, 28, 39
3, 63270, Note_on_c, 0, 28, 0
3, 63270, Note_on_c, 0, 40, 48
3, 63360, Note_on_c, 0, 40, 0
3, 63360, Note_on_c, 0, 48, 98
3, 63360, Note_on_c, 0, 55, 98
3, 63360, Note_on_c, 0, 28, 97
3, 63360, Note_on_c, 0, 40, 97
3, 63677, Note_on_c, 0, 55, 0
3, 63677, Note_on_c, 0, 48, 0
3, 63720, Note_on_c, 0, 50, 109
3, 63720, Note_on_c, 0, 55, 109
3, 64037, Note_on_c, 0, 55, 0
3, 64037, Note_on_c, 0, 50, 0
3, 64080, Note_on_c, 0, 52, 96
3, 64080, Note_on_c, 0, 55, 96
3, 64169, Note_on_c, 0, 55, 0
3, 64169, Note_on_c, 0, 52, 0
3, 64260, Note_on_c, 0, 52, 111
3, 64260, Note_on_c, 0, 55, 111
3, 64577, Note_on_c, 0, 55, 0
3, 64577, Note_on_c, 0, 52, 0
3, 64620, Note_on_c, 0, 50, 112
3, 64620, Note_on_c, 0, 55, 112
3, 64778, Note_on_c, 0, 55, 0
3, 64778, Note_on_c, 0, 50, 0
3, 64800, Note_on_c, 0, 48, 108
3, 64800, Note_on_c, 0, 55, 108
3, 65117, Note_on_c, 0, 55, 0
3, 65117, Note_on_c, 0, 48, 0
3, 65160, Note_on_c, 0, 50, 108
3, 65160, Note_on_c, 0, 55, 108
3, 65477, Note_on_c, 0, 55, 0
3, 65477, Note_on_c, 0, 50, 0
3, 65520, Note_on_c, 0, 52, 102
3, 65520, Note_on_c, 0, 55, 102
3, 65609, Note_on_c, 0, 55, 0
3, 65609, Note_on_c, 0, 52, 0
3, 65700, Note_on_c, 0, 52, 106
3, 65700, Note_on_c, 0, 55, 106
3, 66174, Note_on_c, 0, 55, 0
3, 66174, Note_on_c, 0, 52, 0
3, 66240, Note_on_c, 0, 28, 0
3, 66240, Note_on_c, 0, 40, 0
3, 66240, Note_on_c, 0, 52, 127
3, 66240, Note_on_c, 0, 55, 127
3, 66240, Note_on_c, 0, 60, 127
3, 66240, Note_on_c, 0, 28, 98
3, 66240, Note_on_c, 0, 40, 98
3, 66600, Note_on_c, 0, 60, 0
3, 66600, Note_on_c, 0, 52, 0
3, 66600, Note_on_c, 0, 55, 0
3, 66600, Note_on_c, 0, 54, 127
3, 66600, Note_on_c, 0, 57, 127
3, 66600, Note_on_c, 0, 62, 127
3, 66960, Note_on_c, 0, 62, 0
3, 66960, Note_on_c, 0, 54, 0
3, 66960, Note_on_c, 0, 57, 0
3, 66960, Note_on_c, 0, 55, 103
3, 66960, Note_on_c, 0, 59, 103
3, 66960, Note_on_c, 0, 64, 103
3, 67049, Note_on_c, 0, 64, 0
3, 67049, Note_on_c, 0, 55, 0
3, 67049, Note_on_c, 0, 59, 0
3, 67140, Note_on_c, 0, 55, 121
3, 67140, Note_on_c, 0, 59, 121
3, 67140, Note_on_c, 0, 64, 121
3, 67500, Note_on_c, 0, 64, 0
3, 67500, Note_on_c, 0, 55, 0
3, 67500, Note_on_c, 0, 59, 0
3, 67500, Note_on_c, 0, 54, 116
3, 67500, Note_on_c, 0, 57, 116
3, 67500, Note_on_c, 0, 62, 116
3, 67680, Note_on_c, 0, 62, 0
3, 67680, Note_on_c, 0, 54, 0
3, 67680, Note_on_c, 0, 57, 0
3, 67680, Note_on_c, 0, 52, 115
3, 67680, Note_on_c, 0, 55, 115
3, 67680, Note_on_c, 0, 60, 115
3, 68040, Note_on_c, 0, 60, 0
3, 68040, Note_on_c, 0, 52, 0
3, 68040, Note_on_c, 0, 55, 0
3, 68040, Note_on_c, 0, 54, 127
3, 68040, Note_on_c, 0, 57, 127
3, 68040, Note_on_c, 0, 62, 127
3, 68400, Note_on_c, 0, 62, 0
3, 68400, Note_on_c, 0, 54, 0
3, 68400, Note_on_c, 0, 57, 0
3, 68400, Note_on_c, 0, 55, 103
3, 68400, Note_on_c, 0, 59, 103
3, 68400, Note_on_c, 0, 64, 103
3, 68489, Note_on_c, 0, 64, 0
3, 68489, Note_on_c, 0, 55, 0
3, 68489, Note_on_c, 0, 59, 0
3, 68580, Note_on_c, 0, 55, 125
3, 68580, Note_on_c, 0, 59, 125
3, 68580, Note_on_c, 0, 64, 125
3, 69120, Note_on_c, 0, 64, 0
3, 69120, Note_on_c, 0, 55, 0
3, 69120, Note_on_c, 0, 40, 0
3, 69120, Note_on_c, 0, 28, 0
3, 69120, Note_on_c, 0, 59, 0
3, 69120, Note_on_c, 0, 55, 127
3, 69120, Note_on_c, 0, 62, 127
3, 69120, Note_on_c, 0, 28, 113
3, 69120, Note_on_c, 0, 40, 113
3, 69480, Note_on_c, 0, 62, 0
3, 69480, Note_on_c, 0, 55, 0
3, 69480, Note_on_c, 0, 57, 127
3, 69480, Note_on_c, 0, 62, 127
3, 69840, Note_on_c, 0, 62, 0
3, 69840, Note_on_c, 0, 57, 0
3, 69840, Note_on_c, 0, 59, 127
3, 69840, Note_on_c, 0, 62, 127
3, 69929, Note_on_c, 0, 62, 0
3, 69929, Note_on_c, 0, 59, 0
3, 70020, Note_on_c, 0, 59, 127
3, 70020, Note_on_c, 0, 62, 127
3, 70560, Note_on_c, 0, 62, 0
3, 70560, Note_on_c, 0, 40, 0
3, 70560, Note_on_c, 0, 28, 0
3, 70560, Note_on_c, 0, 59, 0
3, 70560, Note_on_c, 0, 59, 127
3, 70560, Note_on_c, 0, 66, 127
3, 70560, Note_on_c, 0, 40, 126
3, 70560, Note_on_c, 0, 52, 126
3, 70920, Note_on_c, 0, 66, 0
3, 70920, Note_on_c, 0, 59, 0
3, 70920, Note_on_c, 0, 60, 127
3, 70920, Note_on_c, 0, 64, 127
3, 71280, Note_on_c, 0, 64, 0
3, 71280, Note_on_c, 0, 60, 0
3, 71280, Note_on_c, 0, 62, 127
3, 71280, Note_on_c, 0, 66, 127
3, 71369, Note_on_c, 0, 66, 0
3, 71369, Note_on_c, 0, 62, 0
3, 71460, Note_on_c, 0, 62, 127
3, 71460, Note_on_c, 0, 66, 127
3, 72000, Note_on_c, 0, 66, 0
3, 72000, Note_on_c, 0, 52, 0
3, 72000, Note_on_c, 0, 40, 0
3, 72000, Note_on_c, 0, 62, 0
3, 72000, Note_on_c, 0, 58, 98
3, 72000, Note_on_c, 0, 64, 98
3, 72000, Note_on_c, 0, 42, 111
3, 72000, Note_on_c, 0, 49, 111
3, 72720, Note_on_c, 0, 64, 119
3, 72720, Note_on_c, 0, 67, 119
3, 73440, Note_on_c, 0, 67, 0
3, 73440, Note_on_c, 0, 64, 0
3, 73440, Note_on_c, 0, 42, 0
3, 73440, Note_on_c, 0, 58, 0
3, 73440, Note_on_c, 0, 64, 0
3, 73440, Note_on_c, 0, 49, 0
3, 73440, Note_on_c, 0, 58, 105
3, 73440, Note_on_c, 0, 64, 105
3, 73440, Note_on_c, 0, 42, 115
3, 73440, Note_on_c, 0, 49, 115
3, 74160, Note_on_c, 0, 64, 120
3, 74160, Note_on_c, 0, 67, 120
3, 74880, Note_on_c, 0, 67, 0
3, 74880, Note_on_c, 0, 64, 0
3, 74880, Note_on_c, 0, 42, 0
3, 74880, Note_on_c, 0, 58, 0
3, 74880, Note_on_c, 0, 64, 0
3, 74880, Note_on_c, 0, 49, 0
3, 74880, Note_on_c, 0, 61, 119
3, 74880, Note_on_c, 0, 67, 119
3, 74880, Note_on_c, 0, 45, 120
3, 74880, Note_on_c, 0, 52, 120
3, 75600, Note_on_c, 0, 67, 123
3, 75600, Note_on_c, 0, 70, 123
3, 76320, Note_on_c, 0, 70, 0
3, 76320, Note_on_c, 0, 67, 0
3, 76320, Note_on_c, 0, 45, 0
3, 76320, Note_on_c, 0, 61, 0
3, 76320, Note_on_c, 0, 67, 0
3, 76320, Note_on_c, 0, 52, 0
3, 76320, Note_on_c, 0, 61, 114
3, 76320, Note_on_c, 0, 67, 114
3, 76320, Note_on_c, 0, 45, 108
3, 76320, Note_on_c, 0, 52, 108
3, 77040, Note_on_c, 0, 67, 123
3, 77040, Note_on_c, 0, 70, 123
3, 77760, Note_on_c, 0, 70, 0
3, 77760, Note_on_c, 0, 67, 0
3, 77760, Note_on_c, 0, 45, 0
3, 77760, Note_on_c, 0, 61, 0
3, 77760, Note_on_c, 0, 67, 0
3, 77760, Note_on_c, 0, 52, 0
3, 77760, Note_on_c, 0, 59, 127
3, 77760, Note_on_c, 0, 64, 127
3, 77760, Note_on_c, 0, 71, 127
3, 77760, Note_on_c, 0, 40, 123
3, 77760, Note_on_c, 0, 47, 123
3, 77760, Note_on_c, 0, 52, 123
3, 79560, Note_on_c, 0, 71, 0
3, 79560, Note_on_c, 0, 59, 0
3, 79560, Note_on_c, 0, 64, 0
3, 79560, Note_on_c, 0, 54, 123
3, 79560, Note_on_c, 0, 66, 123
3, 79740, Note_on_c, 0, 66, 0
3, 79740, Note_on_c, 0, 54, 0
3, 79740, Note_on_c, 0, 57, 127
3, 79740, Note_on_c, 0, 69, 127
3, 79920, Note_on_c, 0, 69, 0
3, 79920, Note_on_c, 0, 57, 0
3, 79920, Note_on_c, 0, 59, 127
3, 79920, Note_on_c, 0, 64, 127
3, 79920, Note_on_c, 0, 71, 127
3, 80640, Note_on_c, 0, 71, 0
3, 80640, Note_on_c, 0, 47, 0
3, 80640, Note_on_c, 0, 40, 0
3, 80640, Note_on_c, 0, 52, 0
3, 80640, Note_on_c, 0, 64, 0
3, 80640, Note_on_c, 0, 59, 0
3, 80640, Note_on_c, 0, 59, 127
3, 80640, Note_on_c, 0, 52, 117
3, 80640, Note_on_c, 0, 47, 127
3, 80640, Note_on_c, 0, 40, 91
3, 82440, Note_on_c, 0, 47, 0
3, 82440, Note_on_c, 0, 59, 0
3, 82440, Note_on_c, 0, 54, 127
3, 82440, Note_on_c, 0, 42, 127
3, 82620, Note_on_c, 0, 42, 0
3, 82620, Note_on_c, 0, 54, 0
3, 82620, Note_on_c, 0, 57, 127
3, 82620, Note_on_c, 0, 45, 127
3, 82800, Note_on_c, 0, 45, 0
3, 82800, Note_on_c, 0, 57, 0
3, 82800, Note_on_c, 0, 59, 127
3, 82800, Note_on_c, 0, 47, 127
3, 83520, Note_on_c, 0, 47, 0
3, 83520, Note_on_c, 0, 40, 0
3, 83520, Note_on_c, 0, 52, 0
3, 83520, Note_on_c, 0, 59, 0
3, 83520, Note_on_c, 0, 52, 96
3, 83520, Note_on_c, 0, 59, 96
3, 83520, Note_on_c, 0, 40, 93
3, 83520, Note_on_c, 0, 47, 93
3, 84960, Note_on_c, 0, 47, 0
3, 84960, Note_on_c, 0, 52, 0
3, 84960, Note_on_c, 0, 59, 0
3, 84960, Note_on_c, 0, 40, 0
3, 84960, Note_on_c, 0, 52, 82
3, 84960, Note_on_c, 0, 59, 82
3, 84960, Note_on_c, 0, 40, 79
3, 84960, Note_on_c, 0, 47, 79
3, 86400, Note_on_c, 0, 47, 0
3, 86400, Note_on_c, 0, 52, 0
3, 86400, Note_on_c, 0, 59, 0
3, 86400, Note_on_c, 0, 40, 0
3, 86400, Note_on_c, 0, 59, 62
3, 86400, Note_on_c, 0, 52, 110
3, 86400, Note_on_c, 0, 40, 58
3, 86400, Note_on_c, 0, 47, 58
3, 87480, Note_on_c, 0, 59, 0
3, 87480, Note_on_c, 0, 54, 56
3, 87660, Note_on_c, 0, 54, 0
3, 87660, Note_on_c, 0, 57, 57
3, 87840, Note_on_c, 0, 57, 0
3, 87840, Note_on_c, 0, 47, 0
3, 87840, Note_on_c, 0, 40, 0
3, 87840, Note_on_c, 0, 59, 61
3, 87840, Note_on_c, 0, 40, 55
3, 88019, Note_on_c, 0, 40, 0
3, 88200, Note_on_c, 0, 35, 53
3, 88379, Note_on_c, 0, 35, 0
3, 88560, Note_on_c, 0, 35, 60
3, 88649, Note_on_c, 0, 35, 0
3, 88740, Note_on_c, 0, 40, 77
3, 88920, Note_on_c, 0, 59, 0
3, 88920, Note_on_c, 0, 52, 0
3, 89214, Note_on_c, 0, 40, 0
3, 89280, Note_on_c, 0, 59, 43
3, 89280, Note_on_c, 0, 52, 113
3, 89280, Note_on_c, 0, 40, 55
3, 89280, Note_on_c, 0, 47, 55
3, 90360, Note_on_c, 0, 59, 0
3, 90360, Note_on_c, 0, 54, 45
3, 90540, Note_on_c, 0, 54, 0
3, 90540, Note_on_c, 0, 57, 52
3, 90720, Note_on_c, 0, 57, 0
3, 90720, Note_on_c, 0, 47, 0
3, 90720, Note_on_c, 0, 40, 0
3, 90720, Note_on_c, 0, 59, 52
3, 90720, Note_on_c, 0, 40, 43
3, 90899, Note_on_c, 0, 40, 0
3, 91080, Note_on_c, 0, 35, 48
3, 91259, Note_on_c, 0, 35, 0
3, 91440, Note_on_c, 0, 35, 50
3, 91529, Note_on_c, 0, 35, 0
3, 91620, Note_on_c, 0, 40, 65
3, 91800, Note_on_c, 0, 59, 0
3, 91800, Note_on_c, 0, 52, 0
3, 91800, Note_on_c, 0, 59, 45
3, 91890, Note_on_c, 0, 59, 0
3, 91890, Note_on_c, 0, 60, 57
3, 91980, Note_on_c, 0, 60, 0
3, 91980, Note_on_c, 0, 59, 51
3, 92070, Note_on_c, 0, 59, 0
3, 92070, Note_on_c, 0, 60, 55
3, 92094, Note_on_c, 0, 40, 0
3, 92160, Note_on_c, 0, 60, 0
3, 92160, Note_on_c, 0, 59, 39
3, 92160, Note_on_c, 0, 52, 111
3, 92160, Note_on_c, 0, 40, 47
3, 92160, Note_on_c, 0, 47, 47
3, 93240, Note_on_c, 0, 59, 0
3, 93240, Note_on_c, 0, 54, 41
3, 93420, Note_on_c, 0, 54, 0
3, 93420, Note_on_c, 0, 57, 47
3, 93600, Note_on_c, 0, 57, 0
3, 93600, Note_on_c, 0, 47, 0
3, 93600, Note_on_c, 0, 40, 0
3, 93600, Note_on_c, 0, 59, 42
3, 93600, Note_on_c, 0, 40, 42
3, 93779, Note_on_c, 0, 40, 0
3, 93960, Note_on_c, 0, 35, 40
3, 94139, Note_on_c, 0, 35, 0
3, 94320, Note_on_c, 0, 35, 38
3, 94409, Note_on_c, 0, 35, 0
3, 94500, Note_on_c, 0, 28, 43
3, 94590, Note_on_c, 0, 28, 0
3, 94590, Note_on_c, 0, 40, 53
3, 94680, Note_on_c, 0, 40, 0
3, 94680, Note_on_c, 0, 59, 0
3, 94680, Note_on_c, 0, 52, 0
3, 94680, Note_on_c, 0, 28, 35
3, 94770, Note_on_c, 0, 28, 0
3, 94770, Note_on_c, 0, 40, 47
3, 94860, Note_on_c, 0, 40, 0
3, 94860, Note_on_c, 0, 28, 40
3, 94950, Note_on_c, 0, 28, 0
3, 94950, Note_on_c, 0, 40, 47
3, 95040, Note_on_c, 0, 40, 0
3, 95040, Note_on_c, 0, 28, 37
3, 95220, Note_on_c, 0, 28, 0
3, 95220, Note_on_c, 0, 28, 41
3, 95310, Note_on_c, 0, 28, 0
3, 95310, Note_on_c, 0, 40, 50
3, 95400, Note_on_c, 0, 40, 0
3, 95400, Note_on_c, 0, 28, 36
3, 95490, Note_on_c, 0, 28, 0
3, 95490, Note_on_c, 0, 40, 49
3, 95580, Note_on_c, 0, 40, 0
3, 95580, Note_on_c, 0, 28, 40
3, 95670, Note_on_c, 0, 28, 0
3, 95670, Note_on_c, 0, 40, 52
3, 95760, Note_on_c, 0, 40, 0
3, 95760, Note_on_c, 0, 28, 33
3, 95940, Note_on_c, 0, 28, 0
3, 95940, Note_on_c, 0, 28, 41
3, 96030, Note_on_c, 0, 28, 0
3, 96030, Note_on_c, 0, 40, 50
3, 96120, Note_on_c, 0, 40, 0
3, 96120, Note_on_c, 0, 28, 41
3, 96210, Note_on_c, 0, 28, 0
3, 96210, Note_on_c, 0, 40, 45
3, 96300, Note_on_c, 0, 40, 0
3, 96300, Note_on_c, 0, 28, 35
3, 96390, Note_on_c, 0, 28, 0
3, 96390, Note_on_c, 0, 40, 49
3, 96480, Note_on_c, 0, 40, 0
3, 96480, Note_on_c, 0, 28, 41
3, 96660, Note_on_c, 0, 28, 0
3, 96660, Note_on_c, 0, 28, 47
3, 96750, Note_on_c, 0, 28, 0
3, 96750, Note_on_c, 0, 40, 52
3, 96840, Note_on_c, 0, 40, 0
3, 96840, Note_on_c, 0, 28, 39
3, 96930, Note_on_c, 0, 28, 0
3, 96930, Note_on_c, 0, 40, 45
3, 97020, Note_on_c, 0, 40, 0
3, 97020, Note_on_c, 0, 28, 37
3, 97110, Note_on_c, 0, 28, 0
3, 97110, Note_on_c, 0, 40, 49
3, 97200, Note_on_c, 0, 40, 0
3, 97200, Note_on_c, 0, 28, 37
3, 97380, Note_on_c, 0, 28, 0
3, 97380, Note_on_c, 0, 28, 43
3, 97470, Note_on_c, 0, 28, 0
3, 97470, Note_on_c, 0, 40, 52
3, 97560, Note_on_c, 0, 40, 0
3, 97560, Note_on_c, 0, 28, 41
3, 97650, Note_on_c, 0, 28, 0
3, 97650, Note_on_c, 0, 40, 44
3, 97740, Note_on_c, 0, 40, 0
3, 97740, Note_on_c, 0, 28, 43
3, 97830, Note_on_c, 0, 28, 0
3, 97830, Note_on_c, 0, 40, 46
3, 97920, Note_on_c, 0, 40, 0
3, 97920, Note_on_c, 0, 28, 36
3, 98100, Note_on_c, 0, 28, 0
3, 98100, Note_on_c, 0, 28, 39
3, 98190, Note_on_c, 0, 28, 0
3, 98190, Note_on_c, 0, 40, 50
3, 98280, Note_on_c, 0, 40, 0
3, 98280, Note_on_c, 0, 28, 37
3, 98370, Note_on_c, 0, 28, 0
3, 98370, Note_on_c, 0, 40, 49
3, 98460, Note_on_c, 0, 40, 0
3, 98460, Note_on_c, 0, 28, 40
3, 98550, Note_on_c, 0, 28, 0
3, 98550, Note_on_c, 0, 40, 51
3, 98640, Note_on_c, 0, 40, 0
3, 98640, Note_on_c, 0, 28, 39
3, 98820, Note_on_c, 0, 28, 0
3, 98820, Note_on_c, 0, 28, 40
3, 98910, Note_on_c, 0, 28, 0
3, 98910, Note_on_c, 0, 40, 44
3, 99000, Note_on_c, 0, 40, 0
3, 99000, Note_on_c, 0, 28, 40
3, 99090, Note_on_c, 0, 28, 0
3, 99090, Note_on_c, 0, 40, 43
3, 99180, Note_on_c, 0, 40, 0
3, 99180, Note_on_c, 0, 28, 35
3, 99270, Note_on_c, 0, 28, 0
3, 99270, Note_on_c, 0, 40, 53
3, 99360, Note_on_c, 0, 40, 0
3, 99360, Note_on_c, 0, 28, 36
3, 99540, Note_on_c, 0, 28, 0
3, 99540, Note_on_c, 0, 28, 42
3, 99630, Note_on_c, 0, 28, 0
3, 99630, Note_on_c, 0, 40, 47
3, 99720, Note_on_c, 0, 40, 0
3, 99720, Note_on_c, 0, 28, 41
3, 99810, Note_on_c, 0, 28, 0
3, 99810, Note_on_c, 0, 40, 47
3, 99900, Note_on_c, 0, 40, 0
3, 99900, Note_on_c, 0, 28, 43
3, 99990, Note_on_c, 0, 28, 0
3, 99990, Note_on_c, 0, 40, 41
3, 100080, Note_on_c, 0, 40, 0
3, 100080, Note_on_c, 0, 28, 39
3, 100260, Note_on_c, 0, 28, 0
3, 100260, Note_on_c, 0, 28, 44
3, 100350, Note_on_c, 0, 28, 0
3, 100350, Note_on_c, 0, 40, 45
3, 100440, Note_on_c, 0, 40, 0
3, 100440, Note_on_c, 0, 28, 41
3, 100530, Note_on_c, 0, 28, 0
3, 100530, Note_on_c, 0, 40, 46
3, 100620, Note_on_c, 0, 40, 0
3, 100620, Note_on_c, 0, 28, 43
3, 100710, Note_on_c, 0, 28, 0
3, 100710, Note_on_c, 0, 40, 44
3, 100800, Note_on_c, 0, 40, 0
3, 100800, Note_on_c, 0, 55, 51
3, 100800, Note_on_c, 0, 59, 51
3, 100800, Note_on_c, 0, 28, 36
3, 100980, Note_on_c, 0, 28, 0
3, 100980, Note_on_c, 0, 28, 43
3, 101070, Note_on_c, 0, 28, 0
3, 101070, Note_on_c, 0, 40, 47
3, 101160, Note_on_c, 0, 40, 0
3, 101160, Note_on_c, 0, 28, 37
3, 101250, Note_on_c, 0, 28, 0
3, 101250, Note_on_c, 0, 40, 53
3, 101340, Note_on_c, 0, 40, 0
3, 101340, Note_on_c, 0, 28, 41
3, 101430, Note_on_c, 0, 28, 0
3, 101430, Note_on_c, 0, 40, 47
3, 101520, Note_on_c, 0, 40, 0
3, 101520, Note_on_c, 0, 59, 0
3, 101520, Note_on_c, 0, 55, 0
3, 101520, Note_on_c, 0, 54, 59
3, 101520, Note_on_c, 0, 57, 59
3, 101520, Note_on_c, 0, 28, 35
3, 101700, Note_on_c, 0, 28, 0
3, 101700, Note_on_c, 0, 28, 46
3, 101790, Note_on_c, 0, 28, 0
3, 101790, Note_on_c, 0, 40, 49
3, 101880, Note_on_c, 0, 40, 0
3, 101880, Note_on_c, 0, 28, 40
3, 101970, Note_on_c, 0, 28, 0
3, 101970, Note_on_c, 0, 40, 46
3, 102060, Note_on_c, 0, 40, 0
3, 102060, Note_on_c, 0, 28, 37
3, 102150, Note_on_c, 0, 28, 0
3, 102150, Note_on_c, 0, 40, 47
3, 102240, Note_on_c, 0, 40, 0
3, 102240, Note_on_c, 0, 57, 0
3, 102240, Note_on_c, 0, 54, 0
3, 102240, Note_on_c, 0, 55, 60
3, 102240, Note_on_c, 0, 52, 113
3, 102240, Note_on_c, 0, 28, 38
3, 102420, Note_on_c, 0, 28, 0
3, 102420, Note_on_c, 0, 28, 44
3, 102510, Note_on_c, 0, 28, 0
3, 102510, Note_on_c, 0, 40, 53
3, 102600, Note_on_c, 0, 40, 0
3, 102600, Note_on_c, 0, 28, 38
3, 102690, Note_on_c, 0, 28, 0
3, 102690, Note_on_c, 0, 40, 43
3, 102780, Note_on_c, 0, 40, 0
3, 102780, Note_on_c, 0, 28, 36
3, 102870, Note_on_c, 0, 28, 0
3, 102870, Note_on_c, 0, 40, 51
3, 102960, Note_on_c, 0, 40, 0
3, 102960, Note_on_c, 0, 28, 32
3, 103140, Note_on_c, 0, 28, 0
3, 103140, Note_on_c, 0, 28, 40
3, 103230, Note_on_c, 0, 28, 0
3, 103230, Note_on_c, 0, 40, 53
3, 103320, Note_on_c, 0, 40, 0
3, 103320, Note_on_c, 0, 28, 35
3, 103410, Note_on_c, 0, 28, 0
3, 103410, Note_on_c, 0, 40, 48
3, 103500, Note_on_c, 0, 40, 0
3, 103500, Note_on_c, 0, 28, 34
3, 103590, Note_on_c, 0, 28, 0
3, 103590, Note_on_c, 0, 40, 47
3, 103680, Note_on_c, 0, 40, 0
3, 103680, Note_on_c, 0, 28, 34
3, 103860, Note_on_c, 0, 28, 0
3, 103860, Note_on_c, 0, 28, 47
3, 103950, Note_on_c, 0, 28, 0
3, 103950, Note_on_c, 0, 40, 44
3, 104040, Note_on_c, 0, 40, 0
3, 104040, Note_on_c, 0, 28, 39
3, 104130, Note_on_c, 0, 28, 0
3, 104130, Note_on_c, 0, 40, 45
3, 104220, Note_on_c, 0, 40, 0
3, 104220, Note_on_c, 0, 28, 39
3, 104310, Note_on_c, 0, 28, 0
3, 104310, Note_on_c, 0, 40, 48
3, 104400, Note_on_c, 0, 40, 0
3, 104400, Note_on_c, 0, 52, 0
3, 104400, Note_on_c, 0, 55, 0
3, 104400, Note_on_c, 0, 54, 86
3, 104400, Note_on_c, 0, 48, 127
3, 104400, Note_on_c, 0, 28, 36
3, 104580, Note_on_c, 0, 28, 0
3, 104580, Note_on_c, 0, 28, 40
3, 104670, Note_on_c, 0, 28, 0
3, 104670, Note_on_c, 0, 40, 49
3, 104760, Note_on_c, 0, 40, 0
3, 104760, Note_on_c, 0, 54, 0
3, 104760, Note_on_c, 0, 51, 83
3, 104760, Note_on_c, 0, 28, 36
3, 104850, Note_on_c, 0, 28, 0
3, 104850, Note_on_c, 0, 40, 46
3, 104940, Note_on_c, 0, 40, 0
3, 104940, Note_on_c, 0, 28, 38
3, 105030, Note_on_c, 0, 28, 0
3, 105030, Note_on_c, 0, 40, 52
3, 105120, Note_on_c, 0, 40, 0
3, 105120, Note_on_c, 0, 51, 0
3, 105120, Note_on_c, 0, 48, 0
3, 105120, Note_on_c, 0, 52, 60
3, 105120, Note_on_c, 0, 47, 121
3, 105120, Note_on_c, 0, 28, 36
3, 105300, Note_on_c, 0, 28, 0
3, 105300, Note_on_c, 0, 28, 44
3, 105390, Note_on_c, 0, 28, 0
3, 105390, Note_on_c, 0, 40, 46
3, 105480, Note_on_c, 0, 40, 0
3, 105480, Note_on_c, 0, 28, 36
3, 105570, Note_on_c, 0, 28, 0
3, 105570, Note_on_c, 0, 40, 51
3, 105660, Note_on_c, 0, 40, 0
3, 105660, Note_on_c, 0, 28, 31
3, 105750, Note_on_c, 0, 28, 0
3, 105750, Note_on_c, 0, 40, 48
3, 105840, Note_on_c, 0, 40, 0
3, 105840, Note_on_c, 0, 52, 0
3, 105840, Note_on_c, 0, 52, 73
3, 105840, Note_on_c, 0, 28, 39
3, 106020, Note_on_c, 0, 28, 0
3, 106020, Note_on_c, 0, 28, 43
3, 106110, Note_on_c, 0, 28, 0
3, 106110, Note_on_c, 0, 40, 45
3, 106200, Note_on_c, 0, 40, 0
3, 106200, Note_on_c, 0, 28, 38
3, 106290, Note_on_c, 0, 28, 0
3, 106290, Note_on_c, 0, 40, 45
3, 106380, Note_on_c, 0, 40, 0
3, 106380, Note_on_c, 0, 28, 37
3, 106470, Note_on_c, 0, 28, 0
3, 106470, Note_on_c, 0, 40, 49
3, 106560, Note_on_c, 0, 40, 0
3, 106560, Note_on_c, 0, 28, 43
3, 106740, Note_on_c, 0, 28, 0
3, 106740, Note_on_c, 0, 28, 39
3, 106830, Note_on_c, 0, 28, 0
3, 106830, Note_on_c, 0, 40, 46
3, 106920, Note_on_c, 0, 40, 0
3, 106920, Note_on_c, 0, 28, 36
3, 107010, Note_on_c, 0, 28, 0
3, 107010, Note_on_c, 0, 40, 45
3, 107100, Note_on_c, 0, 40, 0
3, 107100, Note_on_c, 0, 28, 39
3, 107190, Note_on_c, 0, 28, 0
3, 107190, Note_on_c, 0, 40, 46
3, 107280, Note_on_c, 0, 40, 0
3, 107280, Note_on_c, 0, 52, 0
3, 107280, Note_on_c, 0, 47, 0
3, 107280, Note_on_c, 0, 50, 92
3, 107280, Note_on_c, 0, 45, 95
3, 107280, Note_on_c, 0, 28, 38
3, 107460, Note_on_c, 0, 28, 0
3, 107460, Note_on_c, 0, 28, 41
3, 107550, Note_on_c, 0, 28, 0
3, 107550, Note_on_c, 0, 40, 49
3, 107640, Note_on_c, 0, 40, 0
3, 107640, Note_on_c, 0, 50, 0
3, 107640, Note_on_c, 0, 47, 95
3, 107640, Note_on_c, 0, 28, 36
3, 107730, Note_on_c, 0, 28, 0
3, 107730, Note_on_c, 0, 40, 48
3, 107820, Note_on_c, 0, 40, 0
3, 107820, Note_on_c, 0, 28, 38
3, 107910, Note_on_c, 0, 28, 0
3, 107910, Note_on_c, 0, 40, 48
3, 108000, Note_on_c, 0, 40, 0
3, 108000, Note_on_c, 0, 47, 0
3, 108000, Note_on_c, 0, 45, 0
3, 108000, Note_on_c, 0, 43, 97
3, 108000, Note_on_c, 0, 48, 97
3, 108000, Note_on_c, 0, 28, 36
3, 108180, Note_on_c, 0, 28, 0
3, 108180, Note_on_c, 0, 28, 49
3, 108270, Note_on_c, 0, 28, 0
3, 108270, Note_on_c, 0, 40, 50
3, 108360, Note_on_c, 0, 40, 0
3, 108360, Note_on_c, 0, 28, 41
3, 108450, Note_on_c, 0, 28, 0
3, 108450, Note_on_c, 0, 40, 51
3, 108540, Note_on_c, 0, 40, 0
3, 108540, Note_on_c, 0, 28, 42
3, 108630, Note_on_c, 0, 28, 0
3, 108630, Note_on_c, 0, 40, 45
3, 108633, Note_on_c, 0, 48, 0
3, 108633, Note_on_c, 0, 43, 0
3, 108720, Note_on_c, 0, 40, 0
3, 108720, Note_on_c, 0, 42, 123
3, 108720, Note_on_c, 0, 46, 123
3, 108720, Note_on_c, 0, 36, 93
3, 108900, Note_on_c, 0, 28, 40
3, 108990, Note_on_c, 0, 28, 0
3, 108990, Note_on_c, 0, 40, 49
3, 109080, Note_on_c, 0, 40, 0
3, 109080, Note_on_c, 0, 28, 33
3, 109170, Note_on_c, 0, 28, 0
3, 109170, Note_on_c, 0, 40, 46
3, 109260, Note_on_c, 0, 40, 0
3, 109260, Note_on_c, 0, 28, 38
3, 109350, Note_on_c, 0, 28, 0
3, 109350, Note_on_c, 0, 40, 45
3, 109440, Note_on_c, 0, 40, 0
3, 109440, Note_on_c, 0, 36, 0
3, 109440, Note_on_c, 0, 28, 34
3, 109620, Note_on_c, 0, 28, 0
3, 109620, Note_on_c, 0, 28, 43
3, 109710, Note_on_c, 0, 28, 0
3, 109710, Note_on_c, 0, 40, 44
3, 109800, Note_on_c, 0, 40, 0
3, 109800, Note_on_c, 0, 28, 39
3, 109890, Note_on_c, 0, 28, 0
3, 109890, Note_on_c, 0, 40, 49
3, 109980, Note_on_c, 0, 40, 0
3, 109980, Note_on_c, 0, 28, 39
3, 110070, Note_on_c, 0, 28, 0
3, 110070, Note_on_c, 0, 40, 50
3, 110160, Note_on_c, 0, 40, 0
3, 110160, Note_on_c, 0, 28, 38
3, 110340, Note_on_c, 0, 28, 0
3, 110340, Note_on_c, 0, 28, 40
3, 110430, Note_on_c, 0, 28, 0
3, 110430, Note_on_c, 0, 40, 47
3, 110520, Note_on_c, 0, 40, 0
3, 110520, Note_on_c, 0, 28, 42
3, 110610, Note_on_c, 0, 28, 0
3, 110610, Note_on_c, 0, 40, 52
3, 110700, Note_on_c, 0, 40, 0
3, 110700, Note_on_c, 0, 28, 41
3, 110790, Note_on_c, 0, 28, 0
3, 110790, Note_on_c, 0, 40, 49
3, 110880, Note_on_c, 0, 40, 0
3, 110880, Note_on_c, 0, 46, 0
3, 110880, Note_on_c, 0, 42, 0
3, 110880, Note_on_c, 0, 43, 97
3, 110880, Note_on_c, 0, 47, 97
3, 110880, Note_on_c, 0, 35, 74
3, 111060, Note_on_c, 0, 28, 37
3, 111150, Note_on_c, 0, 28, 0
3, 111150, Note_on_c, 0, 40, 51
3, 111240, Note_on_c, 0, 40, 0
3, 111240, Note_on_c, 0, 28, 36
3, 111330, Note_on_c, 0, 28, 0
3, 111330, Note_on_c, 0, 40, 53
3, 111420, Note_on_c, 0, 40, 0
3, 111420, Note_on_c, 0, 28, 33
3, 111510, Note_on_c, 0, 28, 0
3, 111510, Note_on_c, 0, 40, 52
3, 111600, Note_on_c, 0, 40, 0
3, 111600, Note_on_c, 0, 28, 36
3, 111780, Note_on_c, 0, 28, 0
3, 111780, Note_on_c, 0, 28, 45
3, 111870, Note_on_c, 0, 28, 0
3, 111870, Note_on_c, 0, 40, 49
3, 111960, Note_on_c, 0, 40, 0
3, 111960, Note_on_c, 0, 28, 34
3, 112050, Note_on_c, 0, 28, 0
3, 112050, Note_on_c, 0, 40, 49
3, 112140, Note_on_c, 0, 40, 0
3, 112140, Note_on_c, 0, 28, 36
3, 112230, Note_on_c, 0, 28, 0
3, 112230, Note_on_c, 0, 40, 50
3, 112320, Note_on_c, 0, 40, 0
3, 112320, Note_on_c, 0, 35, 0
3, 112320, Note_on_c, 0, 28, 35
3, 112500, Note_on_c, 0, 28, 0
3, 112500, Note_on_c, 0, 28, 39
3, 112590, Note_on_c, 0, 28, 0
3, 112590, Note_on_c, 0, 40, 50
3, 112680, Note_on_c, 0, 40, 0
3, 112680, Note_on_c, 0, 28, 40
3, 112770, Note_on_c, 0, 28, 0
3, 112770, Note_on_c, 0, 40, 44
3, 112860, Note_on_c, 0, 40, 0
3, 112860, Note_on_c, 0, 28, 34
3, 112950, Note_on_c, 0, 28, 0
3, 112950, Note_on_c, 0, 40, 48
3, 113040, Note_on_c, 0, 40, 0
3, 113040, Note_on_c, 0, 28, 38
3, 113220, Note_on_c, 0, 28, 0
3, 113220, Note_on_c, 0, 28, 38
3, 113310, Note_on_c, 0, 28, 0
3, 113310, Note_on_c, 0, 40, 49
3, 113400, Note_on_c, 0, 40, 0
3, 113400, Note_on_c, 0, 28, 42
3, 113490, Note_on_c, 0, 28, 0
3, 113490, Note_on_c, 0, 40, 50
3, 113580, Note_on_c, 0, 40, 0
3, 113580, Note_on_c, 0, 28, 39
3, 113670, Note_on_c, 0, 28, 0
3, 113670, Note_on_c, 0, 40, 44
3, 113760, Note_on_c, 0, 40, 0
3, 113760, Note_on_c, 0, 28, 33
3, 113940, Note_on_c, 0, 28, 0
3, 113940, Note_on_c, 0, 28, 38
3, 114030, Note_on_c, 0, 28, 0
3, 114030, Note_on_c, 0, 40, 49
3, 114120, Note_on_c, 0, 40, 0
3, 114120, Note_on_c, 0, 47, 0
3, 114120, Note_on_c, 0, 43, 0
3, 114120, Note_on_c, 0, 28, 38
3, 114210, Note_on_c, 0, 28, 0
3, 114210, Note_on_c, 0, 40, 48
3, 114300, Note_on_c, 0, 40, 0
3, 114300, Note_on_c, 0, 28, 41
3, 114390, Note_on_c, 0, 28, 0
3, 114390, Note_on_c, 0, 40, 45
3, 114480, Note_on_c, 0, 40, 0
3, 114480, Note_on_c, 0, 28, 40
3, 114660, Note_on_c, 0, 28, 0
3, 115200, Note_on_c, 0, 28, 39
3, 115379, Note_on_c, 0, 28, 0
3, 115920, Note_on_c, 0, 40, 36
3, 116099, Note_on_c, 0, 40, 0
3, 116640, Note_on_c, 0, 28, 40
3, 116819, Note_on_c, 0, 28, 0
3, 118080, Note_on_c, 0, 28, 37
3, 118117, Note_on_c, 0, 28, 0
3, 118117, Note_on_c, 0, 40, 51
3, 118152, Note_on_c, 0, 40, 0
3, 118152, Note_on_c, 0, 28, 38
3, 118440, Note_on_c, 0, 28, 0
3, 119520, Note_on_c, 0, 28, 113
3, 119520, Note_on_c, 0, 40, 113
3, 119609, Note_on_c, 0, 40, 0
3, 119609, Note_on_c, 0, 28, 0
3, 119700, Note_on_c, 0, 28, 126
3, 119700, Note_on_c, 0, 40, 126
3, 119789, Note_on_c, 0, 40, 0
3, 119789, Note_on_c, 0, 28, 0
3, 120960, Note_on_c, 0, 55, 86
3, 120960, Note_on_c, 0, 59, 86
3, 120960, Note_on_c, 0, 40, 87
3, 120960, Note_on_c, 0, 47, 87
3, 121277, Note_on_c, 0, 47, 0
3, 121277, Note_on_c, 0, 55, 0
3, 121277, Note_on_c, 0, 59, 0
3, 121277, Note_on_c, 0, 40, 0
3, 121320, Note_on_c, 0, 54, 87
3, 121320, Note_on_c, 0, 57, 87
3, 121320, Note_on_c, 0, 40, 96
3, 121320, Note_on_c, 0, 47, 96
3, 121953, Note_on_c, 0, 47, 0
3, 121953, Note_on_c, 0, 54, 0
3, 121953, Note_on_c, 0, 57, 0
3, 121953, Note_on_c, 0, 40, 0
3, 122040, Note_on_c, 0, 55, 83
3, 122040, Note_on_c, 0, 59, 83
3, 122040, Note_on_c, 0, 40, 97
3, 122040, Note_on_c, 0, 47, 97
3, 122357, Note_on_c, 0, 47, 0
3, 122357, Note_on_c, 0, 55, 0
3, 122357, Note_on_c, 0, 59, 0
3, 122357, Note_on_c, 0, 40, 0
3, 122400, Note_on_c, 0, 59, 109
3, 122400, Note_on_c, 0, 54, 126
3, 122400, Note_on_c, 0, 57, 126
3, 122400, Note_on_c, 0, 40, 115
3, 122400, Note_on_c, 0, 47, 115
3, 122558, Note_on_c, 0, 59, 0
3, 122580, Note_on_c, 0, 59, 109
3, 122659, Note_on_c, 0, 59, 0
3, 122670, Note_on_c, 0, 59, 102
3, 122749, Note_on_c, 0, 59, 0
3, 122760, Note_on_c, 0, 59, 96
3, 122918, Note_on_c, 0, 59, 0
3, 122940, Note_on_c, 0, 59, 83
3, 123033, Note_on_c, 0, 47, 0
3, 123033, Note_on_c, 0, 40, 0
3, 123098, Note_on_c, 0, 59, 0
3, 123120, Note_on_c, 0, 57, 0
3, 123120, Note_on_c, 0, 54, 0
3, 123120, Note_on_c, 0, 55, 101
3, 123120, Note_on_c, 0, 59, 101
3, 123120, Note_on_c, 0, 40, 96
3, 123120, Note_on_c, 0, 47, 96
3, 123437, Note_on_c, 0, 47, 0
3, 123437, Note_on_c, 0, 55, 0
3, 123437, Note_on_c, 0, 59, 0
3, 123437, Note_on_c, 0, 40, 0
3, 123480, Note_on_c, 0, 54, 93
3, 123480, Note_on_c, 0, 57, 93
3, 123480, Note_on_c, 0, 40, 94
3, 123480, Note_on_c, 0, 47, 94
3, 124560, Note_on_c, 0, 47, 0
3, 124560, Note_on_c, 0, 54, 0
3, 124560, Note_on_c, 0, 57, 0
3, 124560, Note_on_c, 0, 40, 0
3, 125280, Note_on_c, 0, 55, 83
3, 125280, Note_on_c, 0, 59, 83
3, 125280, Note_on_c, 0, 40, 84
3, 125280, Note_on_c, 0, 47, 84
3, 125597, Note_on_c, 0, 47, 0
3, 125597, Note_on_c, 0, 55, 0
3, 125597, Note_on_c, 0, 59, 0
3, 125597, Note_on_c, 0, 40, 0
3, 125640, Note_on_c, 0, 54, 90
3, 125640, Note_on_c, 0, 57, 90
3, 125640, Note_on_c, 0, 40, 94
3, 125640, Note_on_c, 0, 47, 94
3, 126273, Note_on_c, 0, 47, 0
3, 126273, Note_on_c, 0, 54, 0
3, 126273, Note_on_c, 0, 57, 0
3, 126273, Note_on_c, 0, 40, 0
3, 126360, Note_on_c, 0, 55, 99
3, 126360, Note_on_c, 0, 59, 99
3, 126360, Note_on_c, 0, 40, 91
3, 126360, Note_on_c, 0, 47, 91
3, 126677, Note_on_c, 0, 47, 0
3, 126677, Note_on_c, 0, 55, 0
3, 126677, Note_on_c, 0, 59, 0
3, 126677, Note_on_c, 0, 40, 0
3, 126720, Note_on_c, 0, 59, 99
3, 126720, Note_on_c, 0, 54, 97
3, 126720, Note_on_c, 0, 57, 97
3, 126720, Note_on_c, 0, 40, 96
3, 126720, Note_on_c, 0, 47, 96
3, 126878, Note_on_c, 0, 59, 0
3, 126900, Note_on_c, 0, 59, 92
3, 126979, Note_on_c, 0, 59, 0
3, 126990, Note_on_c, 0, 59, 94
3, 127069, Note_on_c, 0, 59, 0
3, 127080, Note_on_c, 0, 59, 95
3, 127238, Note_on_c, 0, 59, 0
3, 127260, Note_on_c, 0, 59, 100
3, 127353, Note_on_c, 0, 47, 0
3, 127353, Note_on_c, 0, 40, 0
3, 127353, Note_on_c, 0, 54, 0
3, 127353, Note_on_c, 0, 57, 0
3, 127418, Note_on_c, 0, 59, 0
3, 127440, Note_on_c, 0, 55, 96
3, 127440, Note_on_c, 0, 59, 96
3, 127440, Note_on_c, 0, 40, 95
3, 127440, Note_on_c, 0, 47, 95
3, 127757, Note_on_c, 0, 47, 0
3, 127757, Note_on_c, 0, 55, 0
3, 127757, Note_on_c, 0, 59, 0
3, 127757, Note_on_c, 0, 40, 0
3, 127800, Note_on_c, 0, 54, 95
3, 127800, Note_on_c, 0, 57, 95
3, 127800, Note_on_c, 0, 40, 95
3, 127800, Note_on_c, 0, 47, 95
3, 128433, Note_on_c, 0, 47, 0
3, 128433, Note_on_c, 0, 54, 0
3, 128433, Note_on_c, 0, 57, 0
3, 128433, Note_on_c, 0, 40, 0
3, 128520, Note_on_c, 0, 55, 95
3, 128520, Note_on_c, 0, 40, 93
3, 128520, Note_on_c, 0, 47, 93
3, 128837, Note_on_c, 0, 47, 0
3, 128837, Note_on_c, 0, 40, 0
3, 128837, Note_on_c, 0, 55, 0
3, 128880, Note_on_c, 0, 55, 92
3, 128880, Note_on_c, 0, 40, 93
3, 128880, Note_on_c, 0, 47, 93
3, 129513, Note_on_c, 0, 47, 0
3, 129513, Note_on_c, 0, 40, 0
3, 129513, Note_on_c, 0, 55, 0
3, 129600, Note_on_c, 0, 55, 74
3, 129600, Note_on_c, 0, 40, 69
3, 129600, Note_on_c, 0, 47, 69
3, 129917, Note_on_c, 0, 47, 0
3, 129917, Note_on_c, 0, 40, 0
3, 129917, Note_on_c, 0, 55, 0
3, 129960, Note_on_c, 0, 55, 73
3, 129960, Note_on_c, 0, 40, 70
3, 129960, Note_on_c, 0, 46, 70
3, 130593, Note_on_c, 0, 46, 0
3, 130593, Note_on_c, 0, 40, 0
3, 130593, Note_on_c, 0, 55, 0
3, 130680, Note_on_c, 0, 55, 73
3, 130680, Note_on_c, 0, 40, 76
3, 130680, Note_on_c, 0, 47, 76
3, 130997, Note_on_c, 0, 47, 0
3, 130997, Note_on_c, 0, 40, 0
3, 130997, Note_on_c, 0, 55, 0
3, 131040, Note_on_c, 0, 55, 72
3, 131040, Note_on_c, 0, 40, 72
3, 131040, Note_on_c, 0, 47, 72
3, 131673, Note_on_c, 0, 47, 0
3, 131673, Note_on_c, 0, 40, 0
3, 131673, Note_on_c, 0, 55, 0
3, 131760, Note_on_c, 0, 55, 76
3, 131760, Note_on_c, 0, 40, 75
3, 131760, Note_on_c, 0, 47, 75
3, 132077, Note_on_c, 0, 47, 0
3, 132077, Note_on_c, 0, 40, 0
3, 132077, Note_on_c, 0, 55, 0
3, 132120, Note_on_c, 0, 55, 72
3, 132120, Note_on_c, 0, 40, 73
3, 132120, Note_on_c, 0, 46, 73
3, 132753, Note_on_c, 0, 46, 0
3, 132753, Note_on_c, 0, 40, 0
3, 132753, Note_on_c, 0, 55, 0
3, 132840, Note_on_c, 0, 55, 74
3, 132840, Note_on_c, 0, 40, 76
3, 132840, Note_on_c, 0, 47, 76
3, 133157, Note_on_c, 0, 47, 0
3, 133157, Note_on_c, 0, 40, 0
3, 133157, Note_on_c, 0, 55, 0
3, 133200, Note_on_c, 0, 55, 70
3, 133200, Note_on_c, 0, 40, 71
3, 133200, Note_on_c, 0, 47, 71
3, 133833, Note_on_c, 0, 47, 0
3, 133833, Note_on_c, 0, 40, 0
3, 133833, Note_on_c, 0, 55, 0
3, 133920, Note_on_c, 0, 55, 101
3, 133920, Note_on_c, 0, 59, 101
3, 133920, Note_on_c, 0, 40, 97
3, 133920, Note_on_c, 0, 50, 97
3, 134237, Note_on_c, 0, 50, 0
3, 134237, Note_on_c, 0, 55, 0
3, 134237, Note_on_c, 0, 59, 0
3, 134237, Note_on_c, 0, 40, 0
3, 134280, Note_on_c, 0, 54, 91
3, 134280, Note_on_c, 0, 58, 91
3, 134280, Note_on_c, 0, 40, 95
3, 134280, Note_on_c, 0, 49, 95
3, 134913, Note_on_c, 0, 49, 0
3, 134913, Note_on_c, 0, 54, 0
3, 134913, Note_on_c, 0, 58, 0
3, 134913, Note_on_c, 0, 40, 0
3, 135000, Note_on_c, 0, 54, 93
3, 135000, Note_on_c, 0, 57, 93
3, 135000, Note_on_c, 0, 40, 91
3, 135000, Note_on_c, 0, 48, 91
3, 135317, Note_on_c, 0, 48, 0
3, 135317, Note_on_c, 0, 54, 0
3, 135317, Note_on_c, 0, 57, 0
3, 135317, Note_on_c, 0, 40, 0
3, 135360, Note_on_c, 0, 59, 98
3, 135360, Note_on_c, 0, 52, 101
3, 135360, Note_on_c, 0, 55, 101
3, 135360, Note_on_c, 0, 40, 93
3, 135360, Note_on_c, 0, 47, 93
3, 135518, Note_on_c, 0, 59, 0
3, 135540, Note_on_c, 0, 59, 96
3, 135619, Note_on_c, 0, 59, 0
3, 135630, Note_on_c, 0, 59, 93
3, 135709, Note_on_c, 0, 59, 0
3, 135720, Note_on_c, 0, 59, 94
3, 135878, Note_on_c, 0, 59, 0
3, 135900, Note_on_c, 0, 59, 98
3, 135993, Note_on_c, 0, 47, 0
3, 135993, Note_on_c, 0, 40, 0
3, 135993, Note_on_c, 0, 52, 0
3, 135993, Note_on_c, 0, 55, 0
3, 136058, Note_on_c, 0, 59, 0
3, 136080, Note_on_c, 0, 55, 109
3, 136080, Note_on_c, 0, 59, 109
3, 136080, Note_on_c, 0, 40, 113
3, 136080, Note_on_c, 0, 50, 113
3, 136397, Note_on_c, 0, 50, 0
3, 136397, Note_on_c, 0, 55, 0
3, 136397, Note_on_c, 0, 59, 0
3, 136397, Note_on_c, 0, 40, 0
3, 136440, Note_on_c, 0, 54, 109
3, 136440, Note_on_c, 0, 58, 109
3, 136440, Note_on_c, 0, 40, 110
3, 136440, Note_on_c, 0, 49, 110
3, 137073, Note_on_c, 0, 49, 0
3, 137073, Note_on_c, 0, 54, 0
3, 137073, Note_on_c, 0, 58, 0
3, 137073, Note_on_c, 0, 40, 0
3, 137160, Note_on_c, 0, 54, 97
3, 137160, Note_on_c, 0, 57, 97
3, 137160, Note_on_c, 0, 40, 97
3, 137160, Note_on_c, 0, 48, 97
3, 137477, Note_on_c, 0, 48, 0
3, 137477, Note_on_c, 0, 54, 0
3, 137477, Note_on_c, 0, 57, 0
3, 137477, Note_on_c, 0, 40, 0
3, 137520, Note_on_c, 0, 52, 80
3, 137520, Note_on_c, 0, 55, 80
3, 137520, Note_on_c, 0, 40, 72
3, 137520, Note_on_c, 0, 47, 72
3, 138153, Note_on_c, 0, 47, 0
3, 138153, Note_on_c, 0, 52, 0
3, 138153, Note_on_c, 0, 55, 0
3, 138153, Note_on_c, 0, 40, 0
3, 138240, Note_on_c, 0, 55, 95
3, 138240, Note_on_c, 0, 40, 94
3, 138240, Note_on_c, 0, 47, 94
3, 138557, Note_on_c, 0, 47, 0
3, 138557, Note_on_c, 0, 40, 0
3, 138557, Note_on_c, 0, 55, 0
3, 138600, Note_on_c, 0, 54, 96
3, 138600, Note_on_c, 0, 40, 96
3, 138600, Note_on_c, 0, 46, 96
3, 139233, Note_on_c, 0, 46, 0
3, 139233, Note_on_c, 0, 40, 0
3, 139233, Note_on_c, 0, 54, 0
3, 139320, Note_on_c, 0, 53, 99
3, 139320, Note_on_c, 0, 57, 99
3, 139320, Note_on_c, 0, 40, 97
3, 139320, Note_on_c, 0, 48, 97
3, 139637, Note_on_c, 0, 48, 0
3, 139637, Note_on_c, 0, 53, 0
3, 139637, Note_on_c, 0, 57, 0
3, 139637, Note_on_c, 0, 40, 0
3, 139680, Note_on_c, 0, 52, 96
3, 139680, Note_on_c, 0, 55, 96
3, 139680, Note_on_c, 0, 40, 98
3, 139680, Note_on_c, 0, 47, 98
3, 140313, Note_on_c, 0, 47, 0
3, 140313, Note_on_c, 0, 52, 0
3, 140313, Note_on_c, 0, 55, 0
3, 140313, Note_on_c, 0, 40, 0
3, 140400, Note_on_c, 0, 55, 97
3, 140400, Note_on_c, 0, 40, 93
3, 140400, Note_on_c, 0, 47, 93
3, 140717, Note_on_c, 0, 47, 0
3, 140717, Note_on_c, 0, 40, 0
3, 140717, Note_on_c, 0, 55, 0
3, 140760, Note_on_c, 0, 54, 91
3, 140760, Note_on_c, 0, 40, 96
3, 140760, Note_on_c, 0, 46, 96
3, 141393, Note_on_c, 0, 46, 0
3, 141393, Note_on_c, 0, 40, 0
3, 141393, Note_on_c, 0, 54, 0
3, 141480, Note_on_c, 0, 53, 93
3, 141480, Note_on_c, 0, 57, 93
3, 141480, Note_on_c, 0, 40, 98
3, 141480, Note_on_c, 0, 48, 98
3, 141797, Note_on_c, 0, 48, 0
3, 141797, Note_on_c, 0, 53, 0
3, 141797, Note_on_c, 0, 57, 0
3, 141797, Note_on_c, 0, 40, 0
3, 141840, Note_on_c, 0, 52, 92
3, 141840, Note_on_c, 0, 55, 92
3, 141840, Note_on_c, 0, 40, 97
3, 141840, Note_on_c, 0, 47, 97
3, 142473, Note_on_c, 0, 47, 0
3, 142473, Note_on_c, 0, 52, 0
3, 142473, Note_on_c, 0, 55, 0
3, 142473, Note_on_c, 0, 40, 0
3, 142560, Note_on_c, 0, 57, 81
3, 142560, Note_on_c, 0, 48, 89
3, 142560, Note_on_c, 0, 40, 54
3, 142920, Note_on_c, 0, 48, 0
3, 142920, Note_on_c, 0, 57, 0
3, 142920, Note_on_c, 0, 55, 83
3, 142920, Note_on_c, 0, 47, 76
3, 143100, Note_on_c, 0, 55, 0
3, 143100, Note_on_c, 0, 52, 75
3, 143280, Note_on_c, 0, 52, 0
3, 143280, Note_on_c, 0, 47, 0
3, 143280, Note_on_c, 0, 40, 0
3, 143280, Note_on_c, 0, 55, 85
3, 143280, Note_on_c, 0, 47, 82
3, 143280, Note_on_c, 0, 40, 48
3, 143640, Note_on_c, 0, 47, 0
3, 143640, Note_on_c, 0, 55, 0
3, 143640, Note_on_c, 0, 54, 94
3, 143640, Note_on_c, 0, 46, 80
3, 143798, Note_on_c, 0, 54, 0
3, 143820, Note_on_c, 0, 54, 92
3, 143978, Note_on_c, 0, 54, 0
3, 144000, Note_on_c, 0, 46, 0
3, 144000, Note_on_c, 0, 40, 0
3, 144000, Note_on_c, 0, 51, 80
3, 144000, Note_on_c, 0, 53, 80
3, 144000, Note_on_c, 0, 46, 82
3, 144000, Note_on_c, 0, 40, 54
3, 144360, Note_on_c, 0, 46, 0
3, 144360, Note_on_c, 0, 51, 0
3, 144360, Note_on_c, 0, 53, 0
3, 144360, Note_on_c, 0, 52, 85
3, 144360, Note_on_c, 0, 43, 78
3, 144540, Note_on_c, 0, 43, 0
3, 144540, Note_on_c, 0, 52, 0
3, 144540, Note_on_c, 0, 52, 106
3, 144698, Note_on_c, 0, 52, 0
3, 144720, Note_on_c, 0, 40, 0
3, 144720, Note_on_c, 0, 48, 95
3, 145037, Note_on_c, 0, 48, 0
3, 145080, Note_on_c, 0, 59, 72
3, 145080, Note_on_c, 0, 55, 71
3, 145080, Note_on_c, 0, 47, 93
3, 145080, Note_on_c, 0, 40, 49
3, 145238, Note_on_c, 0, 59, 0
3, 145260, Note_on_c, 0, 59, 69
3, 145339, Note_on_c, 0, 59, 0
3, 145350, Note_on_c, 0, 59, 71
3, 145429, Note_on_c, 0, 59, 0
3, 145440, Note_on_c, 0, 59, 73
3, 145598, Note_on_c, 0, 59, 0
3, 145620, Note_on_c, 0, 40, 0
3, 145620, Note_on_c, 0, 47, 0
3, 145620, Note_on_c, 0, 55, 0
3, 145620, Note_on_c, 0, 52, 86
3, 145800, Note_on_c, 0, 52, 0
3, 145800, Note_on_c, 0, 48, 97
3, 146117, Note_on_c, 0, 48, 0
3, 146160, Note_on_c, 0, 59, 65
3, 146160, Note_on_c, 0, 55, 52
3, 146160, Note_on_c, 0, 47, 93
3, 146160, Note_on_c, 0, 40, 44
3, 146318, Note_on_c, 0, 59, 0
3, 146340, Note_on_c, 0, 59, 70
3, 146419, Note_on_c, 0, 59, 0
3, 146430, Note_on_c, 0, 59, 71
3, 146509, Note_on_c, 0, 59, 0
3, 146520, Note_on_c, 0, 59, 74
3, 146678, Note_on_c, 0, 59, 0
3, 146700, Note_on_c, 0, 40, 0
3, 146700, Note_on_c, 0, 55, 0
3, 146793, Note_on_c, 0, 47, 0
3, 146880, Note_on_c, 0, 48, 92
3, 147197, Note_on_c, 0, 48, 0
3, 147240, Note_on_c, 0, 59, 52
3, 147240, Note_on_c, 0, 55, 46
3, 147240, Note_on_c, 0, 47, 93
3, 147240, Note_on_c, 0, 40, 46
3, 147398, Note_on_c, 0, 59, 0
3, 147420, Note_on_c, 0, 59, 55
3, 147499, Note_on_c, 0, 59, 0
3, 147510, Note_on_c, 0, 59, 53
3, 147589, Note_on_c, 0, 59, 0
3, 147600, Note_on_c, 0, 59, 55
3, 147758, Note_on_c, 0, 59, 0
3, 147780, Note_on_c, 0, 47, 0
3, 147780, Note_on_c, 0, 59, 56
3, 147960, Note_on_c, 0, 40, 0
3, 147960, Note_on_c, 0, 28, 53
3, 148049, Note_on_c, 0, 28, 0
3, 148140, Note_on_c, 0, 28, 62
3, 148229, Note_on_c, 0, 28, 0
3, 148320, Note_on_c, 0, 59, 0
3, 148320, Note_on_c, 0, 55, 0
3, 148320, Note_on_c, 0, 59, 53
3, 148320, Note_on_c, 0, 55, 50
3, 148320, Note_on_c, 0, 40, 80
3, 148320, Note_on_c, 0, 47, 80
3, 148478, Note_on_c, 0, 59, 0
3, 148500, Note_on_c, 0, 59, 56
3, 148579, Note_on_c, 0, 59, 0
3, 148590, Note_on_c, 0, 59, 57
3, 148669, Note_on_c, 0, 59, 0
3, 148680, Note_on_c, 0, 59, 56
3, 148838, Note_on_c, 0, 59, 0
3, 148860, Note_on_c, 0, 59, 49
3, 148953, Note_on_c, 0, 47, 0
3, 148953, Note_on_c, 0, 40, 0
3, 149040, Note_on_c, 0, 28, 55
3, 149129, Note_on_c, 0, 28, 0
3, 149220, Note_on_c, 0, 28, 62
3, 149309, Note_on_c, 0, 28, 0
3, 149400, Note_on_c, 0, 59, 0
3, 149400, Note_on_c, 0, 59, 54
3, 149400, Note_on_c, 0, 40, 78
3, 149400, Note_on_c, 0, 47, 78
3, 149558, Note_on_c, 0, 59, 0
3, 149580, Note_on_c, 0, 59, 55
3, 149659, Note_on_c, 0, 59, 0
3, 149670, Note_on_c, 0, 59, 58
3, 149749, Note_on_c, 0, 59, 0
3, 149760, Note_on_c, 0, 59, 55
3, 149918, Note_on_c, 0, 59, 0
3, 149940, Note_on_c, 0, 59, 54
3, 151020, Note_on_c, 0, 59, 0
3, 151020, Note_on_c, 0, 55, 0
3, 151020, Note_on_c, 0, 40, 0
3, 151020, Note_on_c, 0, 47, 0
3, 151200, Note_on_c, 0, 64, 77
3, 151200, Note_on_c, 0, 71, 77
3, 151379, Note_on_c, 0, 71, 0
3, 151379, Note_on_c, 0, 64, 0
3, 151560, Note_on_c, 0, 64, 81
3, 151560, Note_on_c, 0, 71, 81
3, 151739, Note_on_c, 0, 71, 0
3, 151739, Note_on_c, 0, 64, 0
3, 152280, Note_on_c, 0, 64, 72
3, 152280, Note_on_c, 0, 71, 72
3, 152459, Note_on_c, 0, 71, 0
3, 152459, Note_on_c, 0, 64, 0
3, 152640, Note_on_c, 0, 69, 120
3, 152640, Note_on_c, 0, 72, 120
3, 152684, Note_on_c, 0, 72, 0
3, 152684, Note_on_c, 0, 69, 0
3, 152730, Note_on_c, 0, 69, 106
3, 152730, Note_on_c, 0, 72, 106
3, 152774, Note_on_c, 0, 72, 0
3, 152774, Note_on_c, 0, 69, 0
3, 153360, Note_on_c, 0, 64, 76
3, 153360, Note_on_c, 0, 71, 76
3, 153539, Note_on_c, 0, 71, 0
3, 153539, Note_on_c, 0, 64, 0
3, 153720, Note_on_c, 0, 64, 86
3, 153720, Note_on_c, 0, 71, 86
3, 153899, Note_on_c, 0, 71, 0
3, 153899, Note_on_c, 0, 64, 0
3, 154440, Note_on_c, 0, 64, 74
3, 154440, Note_on_c, 0, 71, 74
3, 154529, Note_on_c, 0, 71, 0
3, 154529, Note_on_c, 0, 64, 0
3, 155520, Note_on_c, 0, 64, 77
3, 155520, Note_on_c, 0, 71, 77
3, 155699, Note_on_c, 0, 71, 0
3, 155699, Note_on_c, 0, 64, 0
3, 155880, Note_on_c, 0, 64, 84
3, 155880, Note_on_c, 0, 71, 84
3, 156059, Note_on_c, 0, 71, 0
3, 156059, Note_on_c, 0, 64, 0
3, 156600, Note_on_c, 0, 64, 79
3, 156600, Note_on_c, 0, 71, 79
3, 156779, Note_on_c, 0, 71, 0
3, 156779, Note_on_c, 0, 64, 0
3, 156960, Note_on_c, 0, 69, 113
3, 156960, Note_on_c, 0, 72, 113
3, 157004, Note_on_c, 0, 72, 0
3, 157004, Note_on_c, 0, 69, 0
3, 157050, Note_on_c, 0, 69, 112
3, 157050, Note_on_c, 0, 72, 112
3, 157094, Note_on_c, 0, 72, 0
3, 157094, Note_on_c, 0, 69, 0
3, 157680, Note_on_c, 0, 64, 73
3, 157680, Note_on_c, 0, 71, 73
3, 157859, Note_on_c, 0, 71, 0
3, 157859, Note_on_c, 0, 64, 0
3, 158040, Note_on_c, 0, 64, 79
3, 158040, Note_on_c, 0, 71, 79
3, 158219, Note_on_c, 0, 71, 0
3, 158219, Note_on_c, 0, 64, 0
3, 158760, Note_on_c, 0, 64, 72
3, 158760, Note_on_c, 0, 71, 72
3, 158939, Note_on_c, 0, 71, 0
3, 158939, Note_on_c, 0, 64, 0
3, 159120, Note_on_c, 0, 64, 108
3, 159120, Note_on_c, 0, 71, 108
3, 159164, Note_on_c, 0, 71, 0
3, 159164, Note_on_c, 0, 64, 0
3, 159210, Note_on_c, 0, 64, 109
3, 159210, Note_on_c, 0, 71, 109
3, 159254, Note_on_c, 0, 71, 0
3, 159254, Note_on_c, 0, 64, 0
3, 159840, Note_on_c, 0, 64, 83
3, 159840, Note_on_c, 0, 67, 83
3, 160019, Note_on_c, 0, 67, 0
3, 160019, Note_on_c, 0, 64, 0
3, 160200, Note_on_c, 0, 64, 58
3, 160200, Note_on_c, 0, 70, 58
3, 160379, Note_on_c, 0, 70, 0
3, 160379, Note_on_c, 0, 64, 0
3, 160920, Note_on_c, 0, 64, 50
3, 160920, Note_on_c, 0, 69, 50
3, 161099, Note_on_c, 0, 69, 0
3, 161099, Note_on_c, 0, 64, 0
3, 161280, Note_on_c, 0, 64, 57
3, 161280, Note_on_c, 0, 67, 57
3, 161459, Note_on_c, 0, 67, 0
3, 161459, Note_on_c, 0, 64, 0
3, 162000, Note_on_c, 0, 64, 52
3, 162000, Note_on_c, 0, 67, 52
3, 162179, Note_on_c, 0, 67, 0
3, 162179, Note_on_c, 0, 64, 0
3, 162360, Note_on_c, 0, 64, 62
3, 162360, Note_on_c, 0, 70, 62
3, 162539, Note_on_c, 0, 70, 0
3, 162539, Note_on_c, 0, 64, 0
3, 163080, Note_on_c, 0, 64, 55
3, 163080, Note_on_c, 0, 69, 55
3, 163259, Note_on_c, 0, 69, 0
3, 163259, Note_on_c, 0, 64, 0
3, 163440, Note_on_c, 0, 64, 52
3, 163440, Note_on_c, 0, 67, 52
3, 163619, Note_on_c, 0, 67, 0
3, 163619, Note_on_c, 0, 64, 0
3, 164160, Note_on_c, 0, 71, 58
3, 164520, Note_on_c, 0, 71, 0
3, 164520, Note_on_c, 0, 70, 83
3, 165240, Note_on_c, 0, 70, 0
3, 165240, Note_on_c, 0, 70, 83
3, 165600, Note_on_c, 0, 70, 0
3, 165600, Note_on_c, 0, 69, 104
3, 166320, Note_on_c, 0, 69, 0
3, 166680, Note_on_c, 0, 69, 115
3, 166680, Note_on_c, 0, 73, 115
3, 166724, Note_on_c, 0, 73, 0
3, 166724, Note_on_c, 0, 69, 0
3, 166770, Note_on_c, 0, 69, 117
3, 166770, Note_on_c, 0, 73, 117
3, 166814, Note_on_c, 0, 73, 0
3, 166814, Note_on_c, 0, 69, 0
3, 167400, Note_on_c, 0, 69, 127
3, 167400, Note_on_c, 0, 73, 127
3, 167444, Note_on_c, 0, 73, 0
3, 167444, Note_on_c, 0, 69, 0
3, 167490, Note_on_c, 0, 69, 127
3, 167490, Note_on_c, 0, 73, 127
3, 167534, Note_on_c, 0, 73, 0
3, 167534, Note_on_c, 0, 69, 0
3, 168120, Note_on_c, 0, 69, 113
3, 168437, Note_on_c, 0, 69, 0
3, 168480, Note_on_c, 0, 64, 66
3, 168480, Note_on_c, 0, 68, 66
3, 168638, Note_on_c, 0, 68, 0
3, 168638, Note_on_c, 0, 64, 0
3, 169560, Note_on_c, 0, 64, 56
3, 169578, Note_on_c, 0, 66, 56
3, 169597, Note_on_c, 0, 69, 56
3, 169920, Note_on_c, 0, 69, 0
3, 169920, Note_on_c, 0, 66, 0
3, 169920, Note_on_c, 0, 64, 0
3, 170280, Note_on_c, 0, 64, 55
3, 170298, Note_on_c, 0, 68, 55
3, 170640, Note_on_c, 0, 68, 0
3, 170640, Note_on_c, 0, 64, 0
3, 171000, Note_on_c, 0, 64, 55
3, 171018, Note_on_c, 0, 66, 55
3, 171037, Note_on_c, 0, 69, 55
3, 171360, Note_on_c, 0, 69, 0
3, 171360, Note_on_c, 0, 66, 0
3, 171360, Note_on_c, 0, 64, 0
3, 171720, Note_on_c, 0, 64, 57
3, 171738, Note_on_c, 0, 68, 57
3, 172080, Note_on_c, 0, 68, 0
3, 172080, Note_on_c, 0, 64, 0
3, 172440, Note_on_c, 0, 64, 59
3, 172458, Note_on_c, 0, 66, 59
3, 172477, Note_on_c, 0, 69, 59
3, 172800, Note_on_c, 0, 69, 0
3, 172800, Note_on_c, 0, 66, 0
3, 172800, Note_on_c, 0, 64, 0
3, 173160, Note_on_c, 0, 64, 54
3, 173178, Note_on_c, 0, 68, 54
3, 173520, Note_on_c, 0, 68, 0
3, 173520, Note_on_c, 0, 64, 0
3, 173880, Note_on_c, 0, 64, 55
3, 173898, Note_on_c, 0, 66, 55
3, 173917, Note_on_c, 0, 69, 55
3, 174240, Note_on_c, 0, 69, 0
3, 174240, Note_on_c, 0, 66, 0
3, 174240, Note_on_c, 0, 64, 0
3, 174600, Note_on_c, 0, 64, 55
3, 174618, Note_on_c, 0, 68, 55
3, 174960, Note_on_c, 0, 68, 0
3, 174960, Note_on_c, 0, 64, 0
3, 174960, Note_on_c, 0, 69, 73
3, 175434, Note_on_c, 0, 69, 0
3, 175500, Note_on_c, 0, 68, 69
3, 175658, Note_on_c, 0, 68, 0
3, 175680, Note_on_c, 0, 64, 70
3, 175680, Note_on_c, 0, 68, 70
3, 176220, Note_on_c, 0, 68, 0
3, 176220, Note_on_c, 0, 64, 0
3, 176760, Note_on_c, 0, 64, 52
3, 176778, Note_on_c, 0, 66, 52
3, 177120, Note_on_c, 0, 66, 0
3, 177120, Note_on_c, 0, 64, 0
3, 177480, Note_on_c, 0, 64, 59
3, 177840, Note_on_c, 0, 64, 0
3, 178200, Note_on_c, 0, 64, 60
3, 178218, Note_on_c, 0, 66, 61
3, 178237, Note_on_c, 0, 69, 61
3, 178560, Note_on_c, 0, 69, 0
3, 178560, Note_on_c, 0, 66, 0
3, 178560, Note_on_c, 0, 64, 0
3, 178920, Note_on_c, 0, 64, 71
3, 178938, Note_on_c, 0, 68, 71
3, 179280, Note_on_c, 0, 68, 0
3, 179280, Note_on_c, 0, 64, 0
3, 179640, Note_on_c, 0, 69, 81
3, 180000, Note_on_c, 0, 69, 0
3, 180000, Note_on_c, 0, 64, 86
3, 180018, Note_on_c, 0, 69, 86
3, 180720, Note_on_c, 0, 69, 0
3, 180720, Note_on_c, 0, 64, 0
3, 181080, Note_on_c, 0, 64, 86
3, 181098, Note_on_c, 0, 66, 86
3, 181117, Note_on_c, 0, 69, 85
3, 181440, Note_on_c, 0, 69, 0
3, 181440, Note_on_c, 0, 66, 0
3, 181440, Note_on_c, 0, 64, 0
3, 181800, Note_on_c, 0, 64, 74
3, 182160, Note_on_c, 0, 64, 0
3, 182520, Note_on_c, 0, 64, 61
3, 182538, Note_on_c, 0, 66, 61
3, 182880, Note_on_c, 0, 66, 0
3, 182880, Note_on_c, 0, 64, 0
3, 183240, Note_on_c, 0, 64, 54
3, 183600, Note_on_c, 0, 64, 0
3, 183600, Note_on_c, 0, 69, 105
3, 184074, Note_on_c, 0, 69, 0
3, 184140, Note_on_c, 0, 68, 93
3, 184298, Note_on_c, 0, 68, 0
3, 184320, Note_on_c, 0, 64, 95
3, 184320, Note_on_c, 0, 68, 95
3, 184860, Note_on_c, 0, 68, 0
3, 184860, Note_on_c, 0, 64, 0
3, 185400, Note_on_c, 0, 64, 60
3, 185418, Note_on_c, 0, 66, 61
3, 185760, Note_on_c, 0, 66, 0
3, 185760, Note_on_c, 0, 64, 0
3, 186120, Note_on_c, 0, 64, 64
3, 186480, Note_on_c, 0, 64, 0
3, 186840, Note_on_c, 0, 64, 68
3, 186858, Note_on_c, 0, 66, 68
3, 186877, Note_on_c, 0, 69, 68
3, 187200, Note_on_c, 0, 69, 0
3, 187200, Note_on_c, 0, 66, 0
3, 187200, Note_on_c, 0, 64, 0
3, 187560, Note_on_c, 0, 64, 72
3, 187920, Note_on_c, 0, 64, 0
3, 188280, Note_on_c, 0, 64, 76
3, 188640, Note_on_c, 0, 64, 0
3, 189000, Note_on_c, 0, 64, 80
3, 189018, Note_on_c, 0, 69, 80
3, 189360, Note_on_c, 0, 69, 0
3, 189360, Note_on_c, 0, 64, 0
3, 189720, Note_on_c, 0, 65, 84
3, 189738, Note_on_c, 0, 69, 84
3, 190080, Note_on_c, 0, 69, 0
3, 190080, Note_on_c, 0, 65, 0
3, 190080, Note_on_c, 0, 66, 86
3, 190098, Note_on_c, 0, 69, 86
3, 190800, Note_on_c, 0, 69, 0
3, 190800, Note_on_c, 0, 66, 0
3, 191160, Note_on_c, 0, 66, 52
3, 191178, Note_on_c, 0, 69, 52
3, 191520, Note_on_c, 0, 69, 0
3, 191520, Note_on_c, 0, 66, 0
3, 191880, Note_on_c, 0, 61, 51
3, 191898, Note_on_c, 0, 64, 51
3, 192240, Note_on_c, 0, 64, 0
3, 192240, Note_on_c, 0, 61, 0
3, 192600, Note_on_c, 0, 61, 40
3, 192618, Note_on_c, 0, 63, 40
3, 192637, Note_on_c, 0, 66, 40
3, 192960, Note_on_c, 0, 66, 0
3, 192960, Note_on_c, 0, 63, 0
3, 192960, Note_on_c, 0, 61, 0
3, 193320, Note_on_c, 0, 61, 31
3, 193338, Note_on_c, 0, 64, 31
3, 193680, Note_on_c, 0, 64, 0
3, 193680, Note_on_c, 0, 61, 0
3, 193680, Note_on_c, 0, 69, 105
3, 194154, Note_on_c, 0, 69, 0
3, 194220, Note_on_c, 0, 68, 95
3, 194378, Note_on_c, 0, 68, 0
3, 194400, Note_on_c, 0, 61, 86
3, 194400, Note_on_c, 0, 64, 86
3, 194400, Note_on_c, 0, 68, 86
3, 194940, Note_on_c, 0, 68, 0
3, 194940, Note_on_c, 0, 64, 0
3, 194940, Note_on_c, 0, 61, 0
3, 195480, Note_on_c, 0, 61, 56
3, 195498, Note_on_c, 0, 63, 56
3, 195840, Note_on_c, 0, 63, 0
3, 195840, Note_on_c, 0, 61, 0
3, 196200, Note_on_c, 0, 61, 54
3, 196560, Note_on_c, 0, 61, 0
3, 196920, Note_on_c, 0, 61, 60
3, 196938, Note_on_c, 0, 63, 60
3, 197280, Note_on_c, 0, 63, 0
3, 197280, Note_on_c, 0, 61, 0
3, 197640, Note_on_c, 0, 61, 50
3, 198000, Note_on_c, 0, 61, 0
3, 198360, Note_on_c, 0, 61, 40
3, 198720, Note_on_c, 0, 61, 0
3, 202140, Note_on_c, 0, 60, 43
3, 202140, Note_on_c, 0, 56, 99
3, 202320, Note_on_c, 0, 44, 56
3, 202500, Note_on_c, 0, 56, 0
3, 202500, Note_on_c, 0, 54, 90
3, 202658, Note_on_c, 0, 54, 0
3, 202680, Note_on_c, 0, 53, 96
3, 202838, Note_on_c, 0, 53, 0
3, 202860, Note_on_c, 0, 54, 102
3, 203018, Note_on_c, 0, 54, 0
3, 203040, Note_on_c, 0, 44, 0
3, 203040, Note_on_c, 0, 60, 0
3, 203040, Note_on_c, 0, 60, 60
3, 203040, Note_on_c, 0, 57, 109
3, 203040, Note_on_c, 0, 49, 62
3, 203357, Note_on_c, 0, 57, 0
3, 203400, Note_on_c, 0, 60, 0
3, 203400, Note_on_c, 0, 61, 44
3, 203400, Note_on_c, 0, 56, 92
3, 203580, Note_on_c, 0, 56, 0
3, 203580, Note_on_c, 0, 61, 0
3, 203580, Note_on_c, 0, 49, 0
3, 205560, Note_on_c, 0, 60, 45
3, 205560, Note_on_c, 0, 56, 94
3, 205920, Note_on_c, 0, 44, 56
3, 206100, Note_on_c, 0, 56, 0
3, 206100, Note_on_c, 0, 54, 104
3, 206258, Note_on_c, 0, 54, 0
3, 206280, Note_on_c, 0, 53, 110
3, 206438, Note_on_c, 0, 53, 0
3, 206460, Note_on_c, 0, 54, 116
3, 206618, Note_on_c, 0, 54, 0
3, 206640, Note_on_c, 0, 44, 0
3, 206640, Note_on_c, 0, 60, 0
3, 206640, Note_on_c, 0, 60, 60
3, 206640, Note_on_c, 0, 57, 123
3, 206640, Note_on_c, 0, 37, 54
3, 206957, Note_on_c, 0, 57, 0
3, 207000, Note_on_c, 0, 60, 0
3, 207000, Note_on_c, 0, 61, 44
3, 207000, Note_on_c, 0, 56, 106
3, 207180, Note_on_c, 0, 56, 0
3, 207180, Note_on_c, 0, 61, 0
3, 207180, Note_on_c, 0, 37, 0
3, 207360, Note_on_c, 0, 57, 45
3, 208309, Note_on_c, 0, 57, 0
3, 208440, Note_on_c, 0, 56, 49
3, 208757, Note_on_c, 0, 56, 0
3, 208800, Note_on_c, 0, 56, 44
3, 210067, Note_on_c, 0, 56, 0
3, 210240, Note_on_c, 0, 32, 51
3, 210240, Note_on_c, 0, 44, 51
3, 210330, Note_on_c, 0, 44, 65
3, 210420, Note_on_c, 0, 44, 0
3, 210420, Note_on_c, 0, 54, 74
3, 210510, Note_on_c, 0, 54, 0
3, 210510, Note_on_c, 0, 56, 72
3, 210600, Note_on_c, 0, 56, 0
3, 210600, Note_on_c, 0, 56, 71
3, 210690, Note_on_c, 0, 56, 0
3, 210690, Note_on_c, 0, 54, 65
3, 210780, Note_on_c, 0, 54, 0
3, 210780, Note_on_c, 0, 56, 75
3, 210870, Note_on_c, 0, 56, 0
3, 210870, Note_on_c, 0, 44, 62
3, 210960, Note_on_c, 0, 44, 0
3, 210960, Note_on_c, 0, 44, 0
3, 210960, Note_on_c, 0, 32, 0
3, 210960, Note_on_c, 0, 37, 53
3, 211050, Note_on_c, 0, 44, 62
3, 211140, Note_on_c, 0, 44, 0
3, 211140, Note_on_c, 0, 49, 72
3, 211230, Note_on_c, 0, 49, 0
3, 211230, Note_on_c, 0, 56, 77
3, 211320, Note_on_c, 0, 56, 0
3, 211320, Note_on_c, 0, 56, 76
3, 211410, Note_on_c, 0, 56, 0
3, 211410, Note_on_c, 0, 49, 65
3, 211500, Note_on_c, 0, 49, 0
3, 211500, Note_on_c, 0, 56, 78
3, 211590, Note_on_c, 0, 56, 0
3, 211590, Note_on_c, 0, 44, 61
3, 211680, Note_on_c, 0, 44, 0
3, 211680, Note_on_c, 0, 37, 0
3, 211680, Note_on_c, 0, 32, 68
3, 211680, Note_on_c, 0, 44, 68
3, 211770, Note_on_c, 0, 44, 64
3, 211860, Note_on_c, 0, 44, 0
3, 211860, Note_on_c, 0, 54, 80
3, 211950, Note_on_c, 0, 54, 0
3, 211950, Note_on_c, 0, 56, 72
3, 212040, Note_on_c, 0, 56, 0
3, 212040, Note_on_c, 0, 56, 74
3, 212130, Note_on_c, 0, 56, 0
3, 212130, Note_on_c, 0, 54, 69
3, 212220, Note_on_c, 0, 54, 0
3, 212220, Note_on_c, 0, 56, 69
3, 212310, Note_on_c, 0, 56, 0
3, 212310, Note_on_c, 0, 44, 62
3, 212400, Note_on_c, 0, 44, 0
3, 212400, Note_on_c, 0, 44, 0
3, 212400, Note_on_c, 0, 32, 0
3, 212400, Note_on_c, 0, 37, 57
3, 212490, Note_on_c, 0, 44, 66
3, 212580, Note_on_c, 0, 44, 0
3, 212580, Note_on_c, 0, 49, 74
3, 212670, Note_on_c, 0, 49, 0
3, 212670, Note_on_c, 0, 56, 75
3, 212760, Note_on_c, 0, 56, 0
3, 212760, Note_on_c, 0, 56, 74
3, 212850, Note_on_c, 0, 56, 0
3, 212850, Note_on_c, 0, 49, 67
3, 212940, Note_on_c, 0, 49, 0
3, 212940, Note_on_c, 0, 56, 77
3, 213030, Note_on_c, 0, 56, 0
3, 213030, Note_on_c, 0, 44, 60
3, 213120, Note_on_c, 0, 44, 0
3, 213120, Note_on_c, 0, 37, 0
3, 213120, Note_on_c, 0, 35, 70
3, 213120, Note_on_c, 0, 47, 70
3, 213210, Note_on_c, 0, 47, 64
3, 213300, Note_on_c, 0, 47, 0
3, 213300, Note_on_c, 0, 57, 78
3, 213390, Note_on_c, 0, 57, 0
3, 213390, Note_on_c, 0, 59, 69
3, 213480, Note_on_c, 0, 59, 0
3, 213480, Note_on_c, 0, 59, 70
3, 213570, Note_on_c, 0, 59, 0
3, 213570, Note_on_c, 0, 57, 71
3, 213660, Note_on_c, 0, 57, 0
3, 213660, Note_on_c, 0, 59, 76
3, 213750, Note_on_c, 0, 59, 0
3, 213750, Note_on_c, 0, 47, 63
3, 213840, Note_on_c, 0, 47, 0
3, 213840, Note_on_c, 0, 47, 0
3, 213840, Note_on_c, 0, 35, 0
3, 213840, Note_on_c, 0, 40, 56
3, 213930, Note_on_c, 0, 47, 68
3, 214020, Note_on_c, 0, 47, 0
3, 214020, Note_on_c, 0, 52, 75
3, 214110, Note_on_c, 0, 52, 0
3, 214110, Note_on_c, 0, 59, 77
3, 214200, Note_on_c, 0, 59, 0
3, 214200, Note_on_c, 0, 59, 70
3, 214290, Note_on_c, 0, 59, 0
3, 214290, Note_on_c, 0, 52, 64
3, 214380, Note_on_c, 0, 52, 0
3, 214380, Note_on_c, 0, 59, 72
3, 214470, Note_on_c, 0, 59, 0
3, 214470, Note_on_c, 0, 47, 59
3, 214560, Note_on_c, 0, 47, 0
3, 214560, Note_on_c, 0, 40, 0
3, 214560, Note_on_c, 0, 35, 64
3, 214560, Note_on_c, 0, 47, 64
3, 214650, Note_on_c, 0, 47, 61
3, 214740, Note_on_c, 0, 47, 0
3, 214740, Note_on_c, 0, 57, 77
3, 214830, Note_on_c, 0, 57, 0
3, 214830, Note_on_c, 0, 59, 77
3, 214920, Note_on_c, 0, 59, 0
3, 214920, Note_on_c, 0, 59, 71
3, 215010, Note_on_c, 0, 59, 0
3, 215010, Note_on_c, 0, 57, 70
3, 215100, Note_on_c, 0, 57, 0
3, 215100, Note_on_c, 0, 59, 76
3, 215190, Note_on_c, 0, 59, 0
3, 215190, Note_on_c, 0, 47, 65
3, 215280, Note_on_c, 0, 47, 0
3, 215280, Note_on_c, 0, 47, 0
3, 215280, Note_on_c, 0, 35, 0
3, 215280, Note_on_c, 0, 40, 55
3, 215370, Note_on_c, 0, 47, 66
3, 215460, Note_on_c, 0, 47, 0
3, 215460, Note_on_c, 0, 52, 75
3, 215550, Note_on_c, 0, 52, 0
3, 215550, Note_on_c, 0, 59, 80
3, 215640, Note_on_c, 0, 59, 0
3, 215640, Note_on_c, 0, 59, 70
3, 215730, Note_on_c, 0, 59, 0
3, 215730, Note_on_c, 0, 52, 65
3, 215820, Note_on_c, 0, 52, 0
3, 215820, Note_on_c, 0, 59, 66
3, 215910, Note_on_c, 0, 59, 0
3, 215910, Note_on_c, 0, 47, 64
3, 216000, Note_on_c, 0, 47, 0
3, 216000, Note_on_c, 0, 40, 0
3, 216000, Note_on_c, 0, 60, 100
3, 216949, Note_on_c, 0, 60, 0
3, 217080, Note_on_c, 0, 59, 81
3, 217397, Note_on_c, 0, 59, 0
3, 217440, Note_on_c, 0, 59, 70
3, 218880, Note_on_c, 0, 59, 0
3, 218880, Note_on_c, 0, 35, 52
3, 218880, Note_on_c, 0, 47, 52
3, 218970, Note_on_c, 0, 47, 55
3, 219060, Note_on_c, 0, 47, 0
3, 219060, Note_on_c, 0, 57, 67
3, 219150, Note_on_c, 0, 57, 0
3, 219150, Note_on_c, 0, 59, 66
3, 219240, Note_on_c, 0, 59, 0
3, 219240, Note_on_c, 0, 59, 58
3, 219330, Note_on_c, 0, 59, 0
3, 219330, Note_on_c, 0, 57, 58
3, 219420, Note_on_c, 0, 57, 0
3, 219420, Note_on_c, 0, 59, 63
3, 219510, Note_on_c, 0, 59, 0
3, 219510, Note_on_c, 0, 47, 54
3, 219600, Note_on_c, 0, 47, 0
3, 219600, Note_on_c, 0, 47, 0
3, 219600, Note_on_c, 0, 35, 0
3, 219600, Note_on_c, 0, 36, 58
3, 219600, Note_on_c, 0, 48, 58
3, 219690, Note_on_c, 0, 48, 61
3, 219780, Note_on_c, 0, 48, 0
3, 219780, Note_on_c, 0, 55, 62
3, 219870, Note_on_c, 0, 55, 0
3, 219870, Note_on_c, 0, 60, 62
3, 219960, Note_on_c, 0, 60, 0
3, 219960, Note_on_c, 0, 60, 63
3, 220050, Note_on_c, 0, 60, 0
3, 220050, Note_on_c, 0, 54, 63
3, 220140, Note_on_c, 0, 54, 0
3, 220140, Note_on_c, 0, 55, 64
3, 220230, Note_on_c, 0, 55, 0
3, 220230, Note_on_c, 0, 48, 64
3, 220320, Note_on_c, 0, 48, 0
3, 220320, Note_on_c, 0, 48, 0
3, 220320, Note_on_c, 0, 36, 0
3, 220320, Note_on_c, 0, 37, 62
3, 220320, Note_on_c, 0, 49, 62
3, 220410, Note_on_c, 0, 52, 65
3, 220500, Note_on_c, 0, 52, 0
3, 220500, Note_on_c, 0, 58, 66
3, 220590, Note_on_c, 0, 58, 0
3, 220590, Note_on_c, 0, 64, 66
3, 220680, Note_on_c, 0, 64, 0
3, 220680, Note_on_c, 0, 64, 67
3, 220770, Note_on_c, 0, 64, 0
3, 220770, Note_on_c, 0, 57, 67
3, 220860, Note_on_c, 0, 57, 0
3, 220860, Note_on_c, 0, 58, 68
3, 220950, Note_on_c, 0, 58, 0
3, 220950, Note_on_c, 0, 52, 68
3, 221040, Note_on_c, 0, 52, 0
3, 221040, Note_on_c, 0, 49, 0
3, 221040, Note_on_c, 0, 37, 0
3, 221040, Note_on_c, 0, 38, 67
3, 221040, Note_on_c, 0, 50, 67
3, 221130, Note_on_c, 0, 50, 69
3, 221220, Note_on_c, 0, 50, 0
3, 221220, Note_on_c, 0, 59, 70
3, 221310, Note_on_c, 0, 59, 0
3, 221310, Note_on_c, 0, 62, 71
3, 221400, Note_on_c, 0, 62, 0
3, 221400, Note_on_c, 0, 62, 71
3, 221490, Note_on_c, 0, 62, 0
3, 221490, Note_on_c, 0, 59, 72
3, 221580, Note_on_c, 0, 59, 0
3, 221580, Note_on_c, 0, 62, 72
3, 221670, Note_on_c, 0, 62, 0
3, 221670, Note_on_c, 0, 50, 73
3, 221760, Note_on_c, 0, 50, 0
3, 221760, Note_on_c, 0, 50, 0
3, 221760, Note_on_c, 0, 38, 0
3, 221760, Note_on_c, 0, 36, 58
3, 221760, Note_on_c, 0, 48, 58
3, 221850, Note_on_c, 0, 55, 74
3, 221940, Note_on_c, 0, 55, 0
3, 221940, Note_on_c, 0, 60, 74
3, 222030, Note_on_c, 0, 60, 0
3, 222030, Note_on_c, 0, 55, 75
3, 222120, Note_on_c, 0, 55, 0
3, 222120, Note_on_c, 0, 48, 75
3, 222210, Note_on_c, 0, 48, 0
3, 222210, Note_on_c, 0, 55, 76
3, 222300, Note_on_c, 0, 55, 0
3, 222300, Note_on_c, 0, 60, 76
3, 222390, Note_on_c, 0, 60, 0
3, 222390, Note_on_c, 0, 55, 77
3, 222480, Note_on_c, 0, 55, 0
3, 222480, Note_on_c, 0, 48, 0
3, 222480, Note_on_c, 0, 36, 0
3, 222480, Note_on_c, 0, 35, 61
3, 222480, Note_on_c, 0, 47, 61
3, 222570, Note_on_c, 0, 55, 78
3, 222660, Note_on_c, 0, 55, 0
3, 222660, Note_on_c, 0, 59, 78
3, 222750, Note_on_c, 0, 59, 0
3, 222750, Note_on_c, 0, 55, 79
3, 222840, Note_on_c, 0, 55, 0
3, 222840, Note_on_c, 0, 47, 80
3, 222930, Note_on_c, 0, 47, 0
3, 222930, Note_on_c, 0, 55, 80
3, 223020, Note_on_c, 0, 55, 0
3, 223020, Note_on_c, 0, 59, 81
3, 223110, Note_on_c, 0, 59, 0
3, 223110, Note_on_c, 0, 55, 81
3, 223200, Note_on_c, 0, 55, 0
3, 223200, Note_on_c, 0, 47, 0
3, 223200, Note_on_c, 0, 35, 0
3, 223200, Note_on_c, 0, 34, 55
3, 223200, Note_on_c, 0, 46, 55
3, 223290, Note_on_c, 0, 55, 82
3, 223380, Note_on_c, 0, 55, 0
3, 223380, Note_on_c, 0, 60, 83
3, 223470, Note_on_c, 0, 60, 0
3, 223470, Note_on_c, 0, 55, 83
3, 223560, Note_on_c, 0, 55, 0
3, 223560, Note_on_c, 0, 54, 84
3, 223650, Note_on_c, 0, 54, 0
3, 223650, Note_on_c, 0, 61, 84
3, 223740, Note_on_c, 0, 61, 0
3, 223740, Note_on_c, 0, 55, 85
3, 223830, Note_on_c, 0, 55, 0
3, 223830, Note_on_c, 0, 61, 85
3, 223920, Note_on_c, 0, 61, 0
3, 223920, Note_on_c, 0, 46, 0
3, 223920, Note_on_c, 0, 34, 0
3, 223920, Note_on_c, 0, 33, 59
3, 223920, Note_on_c, 0, 45, 59
3, 224010, Note_on_c, 0, 53, 107
3, 224100, Note_on_c, 0, 53, 0
3, 224100, Note_on_c, 0, 62, 113
3, 224190, Note_on_c, 0, 62, 0
3, 224190, Note_on_c, 0, 53, 108
3, 224280, Note_on_c, 0, 53, 0
3, 224280, Note_on_c, 0, 50, 104
3, 224370, Note_on_c, 0, 50, 0
3, 224370, Note_on_c, 0, 53, 100
3, 224460, Note_on_c, 0, 53, 0
3, 224460, Note_on_c, 0, 62, 96
3, 224550, Note_on_c, 0, 62, 0
3, 224550, Note_on_c, 0, 53, 91
3, 224640, Note_on_c, 0, 53, 0
3, 224640, Note_on_c, 0, 45, 0
3, 224640, Note_on_c, 0, 33, 0
3, 224640, Note_on_c, 0, 40, 63
3, 224640, Note_on_c, 0, 52, 63
3, 224730, Note_on_c, 0, 52, 48
3, 224820, Note_on_c, 0, 52, 0
3, 224820, Note_on_c, 0, 62, 73
3, 224910, Note_on_c, 0, 62, 0
3, 224910, Note_on_c, 0, 64, 67
3, 225000, Note_on_c, 0, 64, 0
3, 225000, Note_on_c, 0, 64, 62
3, 225090, Note_on_c, 0, 64, 0
3, 225090, Note_on_c, 0, 62, 58
3, 225180, Note_on_c, 0, 62, 0
3, 225180, Note_on_c, 0, 64, 63
3, 225270, Note_on_c, 0, 64, 0
3, 225270, Note_on_c, 0, 52, 53
3, 225360, Note_on_c, 0, 52, 0
3, 225360, Note_on_c, 0, 52, 0
3, 225360, Note_on_c, 0, 40, 0
3, 225360, Note_on_c, 0, 41, 59
3, 225360, Note_on_c, 0, 53, 59
3, 225450, Note_on_c, 0, 53, 61
3, 225540, Note_on_c, 0, 53, 0
3, 225540, Note_on_c, 0, 60, 62
3, 225630, Note_on_c, 0, 60, 0
3, 225630, Note_on_c, 0, 65, 62
3, 225720, Note_on_c, 0, 65, 0
3, 225720, Note_on_c, 0, 65, 63
3, 225810, Note_on_c, 0, 65, 0
3, 225810, Note_on_c, 0, 59, 63
3, 225900, Note_on_c, 0, 59, 0
3, 225900, Note_on_c, 0, 60, 64
3, 225990, Note_on_c, 0, 60, 0
3, 225990, Note_on_c, 0, 53, 64
3, 226080, Note_on_c, 0, 53, 0
3, 226080, Note_on_c, 0, 53, 0
3, 226080, Note_on_c, 0, 41, 0
3, 226080, Note_on_c, 0, 42, 62
3, 226080, Note_on_c, 0, 54, 62
3, 226170, Note_on_c, 0, 57, 65
3, 226260, Note_on_c, 0, 57, 0
3, 226260, Note_on_c, 0, 63, 66
3, 226350, Note_on_c, 0, 63, 0
3, 226350, Note_on_c, 0, 69, 66
3, 226440, Note_on_c, 0, 69, 0
3, 226440, Note_on_c, 0, 69, 67
3, 226530, Note_on_c, 0, 69, 0
3, 226530, Note_on_c, 0, 62, 67
3, 226620, Note_on_c, 0, 62, 0
3, 226620, Note_on_c, 0, 63, 68
3, 226710, Note_on_c, 0, 63, 0
3, 226710, Note_on_c, 0, 57, 68
3, 226800, Note_on_c, 0, 57, 0
3, 226800, Note_on_c, 0, 54, 0
3, 226800, Note_on_c, 0, 42, 0
3, 226800, Note_on_c, 0, 43, 61
3, 226800, Note_on_c, 0, 55, 61
3, 226890, Note_on_c, 0, 55, 69
3, 226980, Note_on_c, 0, 55, 0
3, 226980, Note_on_c, 0, 64, 70
3, 227070, Note_on_c, 0, 64, 0
3, 227070, Note_on_c, 0, 67, 71
3, 227160, Note_on_c, 0, 67, 0
3, 227160, Note_on_c, 0, 67, 71
3, 227250, Note_on_c, 0, 67, 0
3, 227250, Note_on_c, 0, 64, 72
3, 227340, Note_on_c, 0, 64, 0
3, 227340, Note_on_c, 0, 67, 72
3, 227430, Note_on_c, 0, 67, 0
3, 227430, Note_on_c, 0, 55, 73
3, 227520, Note_on_c, 0, 55, 0
3, 227520, Note_on_c, 0, 55, 0
3, 227520, Note_on_c, 0, 43, 0
3, 227520, Note_on_c, 0, 41, 59
3, 227520, Note_on_c, 0, 53, 59
3, 227610, Note_on_c, 0, 60, 74
3, 227700, Note_on_c, 0, 60, 0
3, 227700, Note_on_c, 0, 65, 74
3, 227790, Note_on_c, 0, 65, 0
3, 227790, Note_on_c, 0, 60, 75
3, 227880, Note_on_c, 0, 60, 0
3, 227880, Note_on_c, 0, 53, 75
3, 227970, Note_on_c, 0, 53, 0
3, 227970, Note_on_c, 0, 60, 76
3, 228060, Note_on_c, 0, 60, 0
3, 228060, Note_on_c, 0, 65, 76
3, 228150, Note_on_c, 0, 65, 0
3, 228150, Note_on_c, 0, 60, 77
3, 228240, Note_on_c, 0, 60, 0
3, 228240, Note_on_c, 0, 53, 0
3, 228240, Note_on_c, 0, 41, 0
3, 228240, Note_on_c, 0, 40, 66
3, 228240, Note_on_c, 0, 52, 66
3, 228330, Note_on_c, 0, 60, 78
3, 228420, Note_on_c, 0, 60, 0
3, 228420, Note_on_c, 0, 64, 78
3, 228510, Note_on_c, 0, 64, 0
3, 228510, Note_on_c, 0, 60, 79
3, 228600, Note_on_c, 0, 60, 0
3, 228600, Note_on_c, 0, 52, 80
3, 228690, Note_on_c, 0, 52, 0
3, 228690, Note_on_c, 0, 60, 80
3, 228780, Note_on_c, 0, 60, 0
3, 228780, Note_on_c, 0, 64, 81
3, 228870, Note_on_c, 0, 64, 0
3, 228870, Note_on_c, 0, 60, 81
3, 228960, Note_on_c, 0, 60, 0
3, 228960, Note_on_c, 0, 52, 0
3, 228960, Note_on_c, 0, 40, 0
3, 228960, Note_on_c, 0, 39, 63
3, 228960, Note_on_c, 0, 51, 63
3, 229050, Note_on_c, 0, 60, 82
3, 229140, Note_on_c, 0, 60, 0
3, 229140, Note_on_c, 0, 65, 83
3, 229230, Note_on_c, 0, 65, 0
3, 229230, Note_on_c, 0, 60, 83
3, 229320, Note_on_c, 0, 60, 0
3, 229320, Note_on_c, 0, 59, 84
3, 229410, Note_on_c, 0, 59, 0
3, 229410, Note_on_c, 0, 66, 84
3, 229500, Note_on_c, 0, 66, 0
3, 229500, Note_on_c, 0, 60, 85
3, 229590, Note_on_c, 0, 60, 0
3, 229590, Note_on_c, 0, 66, 85
3, 229680, Note_on_c, 0, 66, 0
3, 229680, Note_on_c, 0, 51, 0
3, 229680, Note_on_c, 0, 39, 0
3, 229680, Note_on_c, 0, 38, 60
3, 229680, Note_on_c, 0, 50, 60
3, 229770, Note_on_c, 0, 58, 81
3, 229860, Note_on_c, 0, 58, 0
3, 229860, Note_on_c, 0, 67, 86
3, 229950, Note_on_c, 0, 67, 0
3, 229950, Note_on_c, 0, 58, 82
3, 230040, Note_on_c, 0, 58, 0
3, 230040, Note_on_c, 0, 55, 77
3, 230130, Note_on_c, 0, 55, 0
3, 230130, Note_on_c, 0, 58, 73
3, 230220, Note_on_c, 0, 58, 0
3, 230220, Note_on_c, 0, 67, 69
3, 230310, Note_on_c, 0, 67, 0
3, 230310, Note_on_c, 0, 58, 65
3, 230400, Note_on_c, 0, 58, 0
3, 230400, Note_on_c, 0, 50, 0
3, 230400, Note_on_c, 0, 38, 0
3, 230400, Note_on_c, 0, 31, 52
3, 230400, Note_on_c, 0, 43, 52
3, 230490, Note_on_c, 0, 53, 83
3, 230580, Note_on_c, 0, 53, 0
3, 230580, Note_on_c, 0, 62, 87
3, 230670, Note_on_c, 0, 62, 0
3, 230670, Note_on_c, 0, 65, 91
3, 230760, Note_on_c, 0, 65, 0
3, 230760, Note_on_c, 0, 65, 94
3, 230850, Note_on_c, 0, 65, 0
3, 230850, Note_on_c, 0, 62, 98
3, 230940, Note_on_c, 0, 62, 0
3, 230940, Note_on_c, 0, 65, 101
3, 231030, Note_on_c, 0, 65, 0
3, 231030, Note_on_c, 0, 53, 105
3, 231120, Note_on_c, 0, 53, 0
3, 231120, Note_on_c, 0, 43, 0
3, 231120, Note_on_c, 0, 31, 0
3, 231120, Note_on_c, 0, 32, 61
3, 231120, Note_on_c, 0, 44, 61
3, 231210, Note_on_c, 0, 53, 109
3, 231300, Note_on_c, 0, 53, 0
3, 231300, Note_on_c, 0, 59, 105
3, 231390, Note_on_c, 0, 59, 0
3, 231390, Note_on_c, 0, 65, 101
3, 231480, Note_on_c, 0, 65, 0
3, 231480, Note_on_c, 0, 65, 98
3, 231570, Note_on_c, 0, 65, 0
3, 231570, Note_on_c, 0, 59, 94
3, 231660, Note_on_c, 0, 59, 0
3, 231660, Note_on_c, 0, 65, 91
3, 231750, Note_on_c, 0, 65, 0
3, 231750, Note_on_c, 0, 53, 87
3, 231840, Note_on_c, 0, 53, 0
3, 231840, Note_on_c, 0, 44, 0
3, 231840, Note_on_c, 0, 32, 0
3, 231840, Note_on_c, 0, 31, 62
3, 231840, Note_on_c, 0, 43, 62
3, 231930, Note_on_c, 0, 53, 85
3, 232020, Note_on_c, 0, 53, 0
3, 232020, Note_on_c, 0, 62, 86
3, 232110, Note_on_c, 0, 62, 0
3, 232110, Note_on_c, 0, 65, 88
3, 232200, Note_on_c, 0, 65, 0
3, 232200, Note_on_c, 0, 65, 90
3, 232290, Note_on_c, 0, 65, 0
3, 232290, Note_on_c, 0, 62, 91
3, 232380, Note_on_c, 0, 62, 0
3, 232380, Note_on_c, 0, 65, 93
3, 232470, Note_on_c, 0, 65, 0
3, 232470, Note_on_c, 0, 53, 94
3, 232560, Note_on_c, 0, 53, 0
3, 232560, Note_on_c, 0, 43, 0
3, 232560, Note_on_c, 0, 31, 0
3, 232560, Note_on_c, 0, 32, 59
3, 232560, Note_on_c, 0, 44, 59
3, 232650, Note_on_c, 0, 53, 98
3, 232740, Note_on_c, 0, 53, 0
3, 232740, Note_on_c, 0, 59, 99
3, 232830, Note_on_c, 0, 59, 0
3, 232830, Note_on_c, 0, 65, 101
3, 232920, Note_on_c, 0, 65, 0
3, 232920, Note_on_c, 0, 65, 102
3, 233010, Note_on_c, 0, 65, 0
3, 233010, Note_on_c, 0, 59, 104
3, 233100, Note_on_c, 0, 59, 0
3, 233100, Note_on_c, 0, 65, 106
3, 233190, Note_on_c, 0, 65, 0
3, 233190, Note_on_c, 0, 53, 107
3, 233280, Note_on_c, 0, 53, 0
3, 233280, Note_on_c, 0, 44, 0
3, 233280, Note_on_c, 0, 32, 0
3, 233280, Note_on_c, 0, 33, 87
3, 233280, Note_on_c, 0, 45, 87
3, 233370, Note_on_c, 0, 54, 99
3, 233460, Note_on_c, 0, 54, 0
3, 233460, Note_on_c, 0, 62, 126
3, 233550, Note_on_c, 0, 62, 0
3, 233550, Note_on_c, 0, 66, 126
3, 233640, Note_on_c, 0, 66, 0
3, 233640, Note_on_c, 0, 66, 114
3, 233730, Note_on_c, 0, 66, 0
3, 233730, Note_on_c, 0, 62, 105
3, 233820, Note_on_c, 0, 62, 0
3, 233820, Note_on_c, 0, 66, 126
3, 233910, Note_on_c, 0, 66, 0
3, 233910, Note_on_c, 0, 54, 101
3, 234000, Note_on_c, 0, 54, 0
3, 234000, Note_on_c, 0, 45, 0
3, 234000, Note_on_c, 0, 33, 0
3, 234000, Note_on_c, 0, 34, 88
3, 234000, Note_on_c, 0, 46, 88
3, 234090, Note_on_c, 0, 54, 98
3, 234180, Note_on_c, 0, 54, 0
3, 234180, Note_on_c, 0, 62, 126
3, 234270, Note_on_c, 0, 62, 0
3, 234270, Note_on_c, 0, 66, 126
3, 234360, Note_on_c, 0, 66, 0
3, 234360, Note_on_c, 0, 66, 109
3, 234450, Note_on_c, 0, 66, 0
3, 234450, Note_on_c, 0, 62, 100
3, 234540, Note_on_c, 0, 62, 0
3, 234540, Note_on_c, 0, 66, 126
3, 234630, Note_on_c, 0, 66, 0
3, 234630, Note_on_c, 0, 54, 94
3, 234720, Note_on_c, 0, 54, 0
3, 234720, Note_on_c, 0, 46, 0
3, 234720, Note_on_c, 0, 34, 0
3, 234720, Note_on_c, 0, 35, 87
3, 234720, Note_on_c, 0, 47, 87
3, 234810, Note_on_c, 0, 54, 97
3, 234900, Note_on_c, 0, 54, 0
3, 234900, Note_on_c, 0, 62, 126
3, 234990, Note_on_c, 0, 62, 0
3, 234990, Note_on_c, 0, 66, 126
3, 235080, Note_on_c, 0, 66, 0
3, 235080, Note_on_c, 0, 66, 114
3, 235170, Note_on_c, 0, 66, 0
3, 235170, Note_on_c, 0, 62, 106
3, 235260, Note_on_c, 0, 62, 0
3, 235260, Note_on_c, 0, 66, 121
3, 235350, Note_on_c, 0, 66, 0
3, 235350, Note_on_c, 0, 54, 99
3, 235440, Note_on_c, 0, 54, 0
3, 235440, Note_on_c, 0, 47, 0
3, 235440, Note_on_c, 0, 35, 0
3, 235440, Note_on_c, 0, 36, 90
3, 235440, Note_on_c, 0, 48, 90
3, 235530, Note_on_c, 0, 54, 100
3, 235620, Note_on_c, 0, 54, 0
3, 235620, Note_on_c, 0, 62, 126
3, 235710, Note_on_c, 0, 62, 0
3, 235710, Note_on_c, 0, 66, 126
3, 235800, Note_on_c, 0, 66, 0
3, 235800, Note_on_c, 0, 66, 118
3, 235890, Note_on_c, 0, 66, 0
3, 235890, Note_on_c, 0, 62, 103
3, 235980, Note_on_c, 0, 62, 0
3, 235980, Note_on_c, 0, 66, 120
3, 236070, Note_on_c, 0, 66, 0
3, 236070, Note_on_c, 0, 54, 99
3, 236160, Note_on_c, 0, 54, 0
3, 236160, Note_on_c, 0, 48, 0
3, 236160, Note_on_c, 0, 36, 0
3, 236160, Note_on_c, 0, 61, 127
3, 236160, Note_on_c, 0, 37, 90
3, 236160, Note_on_c, 0, 49, 90
3, 236250, Note_on_c, 0, 59, 113
3, 236340, Note_on_c, 0, 59, 0
3, 236340, Note_on_c, 0, 61, 126
3, 236430, Note_on_c, 0, 61, 0
3, 236430, Note_on_c, 0, 53, 113
3, 236520, Note_on_c, 0, 53, 0
3, 236520, Note_on_c, 0, 61, 0
3, 236520, Note_on_c, 0, 63, 127
3, 236610, Note_on_c, 0, 56, 108
3, 236610, Note_on_c, 0, 59, 108
3, 236700, Note_on_c, 0, 59, 0
3, 236700, Note_on_c, 0, 63, 0
3, 236700, Note_on_c, 0, 56, 0
3, 236700, Note_on_c, 0, 65, 127
3, 236790, Note_on_c, 0, 56, 108
3, 236790, Note_on_c, 0, 59, 108
3, 236880, Note_on_c, 0, 59, 0
3, 236880, Note_on_c, 0, 65, 0
3, 236880, Note_on_c, 0, 37, 0
3, 236880, Note_on_c, 0, 49, 0
3, 236880, Note_on_c, 0, 56, 0
3, 236880, Note_on_c, 0, 65, 127
3, 236880, Note_on_c, 0, 37, 87
3, 236880, Note_on_c, 0, 49, 87
3, 236970, Note_on_c, 0, 57, 110
3, 236970, Note_on_c, 0, 61, 110
3, 237060, Note_on_c, 0, 61, 0
3, 237060, Note_on_c, 0, 65, 0
3, 237060, Note_on_c, 0, 57, 0
3, 237060, Note_on_c, 0, 66, 127
3, 237150, Note_on_c, 0, 61, 111
3, 237240, Note_on_c, 0, 61, 0
3, 237240, Note_on_c, 0, 57, 117
3, 237330, Note_on_c, 0, 57, 0
3, 237330, Note_on_c, 0, 61, 126
3, 237420, Note_on_c, 0, 61, 0
3, 237420, Note_on_c, 0, 66, 0
3, 237420, Note_on_c, 0, 69, 127
3, 237510, Note_on_c, 0, 61, 111
3, 237600, Note_on_c, 0, 61, 0
3, 237600, Note_on_c, 0, 37, 0
3, 237600, Note_on_c, 0, 49, 0
3, 237600, Note_on_c, 0, 69, 0
3, 237600, Note_on_c, 0, 69, 113
3, 237600, Note_on_c, 0, 59, 123
3, 237600, Note_on_c, 0, 61, 123
3, 237600, Note_on_c, 0, 37, 85
3, 237600, Note_on_c, 0, 49, 85
3, 237780, Note_on_c, 0, 69, 0
3, 237780, Note_on_c, 0, 68, 119
3, 237960, Note_on_c, 0, 68, 0
3, 237960, Note_on_c, 0, 67, 125
3, 238140, Note_on_c, 0, 67, 0
3, 238140, Note_on_c, 0, 68, 127
3, 238320, Note_on_c, 0, 68, 0
3, 238320, Note_on_c, 0, 49, 0
3, 238320, Note_on_c, 0, 59, 0
3, 238320, Note_on_c, 0, 61, 0
3, 238320, Note_on_c, 0, 37, 0
3, 238320, Note_on_c, 0, 71, 126
3, 238320, Note_on_c, 0, 59, 126
3, 238320, Note_on_c, 0, 65, 126
3, 238320, Note_on_c, 0, 38, 84
3, 238320, Note_on_c, 0, 50, 84
3, 238680, Note_on_c, 0, 65, 0
3, 238680, Note_on_c, 0, 71, 0
3, 238680, Note_on_c, 0, 59, 0
3, 238680, Note_on_c, 0, 69, 114
3, 238680, Note_on_c, 0, 57, 114
3, 238680, Note_on_c, 0, 66, 114
3, 239040, Note_on_c, 0, 66, 0
3, 239040, Note_on_c, 0, 69, 0
3, 239040, Note_on_c, 0, 50, 0
3, 239040, Note_on_c, 0, 38, 0
3, 239040, Note_on_c, 0, 57, 0
3, 239040, Note_on_c, 0, 36, 90
3, 239040, Note_on_c, 0, 48, 90
3, 239130, Note_on_c, 0, 58, 89
3, 239220, Note_on_c, 0, 58, 0
3, 239220, Note_on_c, 0, 67, 119
3, 239310, Note_on_c, 0, 67, 0
3, 239310, Note_on_c, 0, 70, 112
3, 239400, Note_on_c, 0, 70, 0
3, 239400, Note_on_c, 0, 70, 101
3, 239490, Note_on_c, 0, 70, 0
3, 239490, Note_on_c, 0, 67, 86
3, 239580, Note_on_c, 0, 67, 0
3, 239580, Note_on_c, 0, 70, 110
3, 239670, Note_on_c, 0, 70, 0
3, 239670, Note_on_c, 0, 58, 85
3, 239760, Note_on_c, 0, 58, 0
3, 239760, Note_on_c, 0, 48, 0
3, 239760, Note_on_c, 0, 36, 0
3, 239760, Note_on_c, 0, 37, 91
3, 239760, Note_on_c, 0, 49, 91
3, 239850, Note_on_c, 0, 58, 89
3, 239940, Note_on_c, 0, 58, 0
3, 239940, Note_on_c, 0, 64, 112
3, 240030, Note_on_c, 0, 64, 0
3, 240030, Note_on_c, 0, 70, 116
3, 240120, Note_on_c, 0, 70, 0
3, 240120, Note_on_c, 0, 70, 102
3, 240210, Note_on_c, 0, 70, 0
3, 240210, Note_on_c, 0, 64, 82
3, 240300, Note_on_c, 0, 64, 0
3, 240300, Note_on_c, 0, 70, 108
3, 240390, Note_on_c, 0, 70, 0
3, 240390, Note_on_c, 0, 58, 87
3, 240480, Note_on_c, 0, 58, 0
3, 240480, Note_on_c, 0, 49, 0
3, 240480, Note_on_c, 0, 37, 0
3, 240480, Note_on_c, 0, 36, 85
3, 240480, Note_on_c, 0, 48, 85
3, 240570, Note_on_c, 0, 58, 99
3, 240660, Note_on_c, 0, 58, 0
3, 240660, Note_on_c, 0, 67, 100
3, 240750, Note_on_c, 0, 67, 0
3, 240750, Note_on_c, 0, 70, 102
3, 240840, Note_on_c, 0, 70, 0
3, 240840, Note_on_c, 0, 70, 104
3, 240930, Note_on_c, 0, 70, 0
3, 240930, Note_on_c, 0, 67, 105
3, 241020, Note_on_c, 0, 67, 0
3, 241020, Note_on_c, 0, 70, 107
3, 241110, Note_on_c, 0, 70, 0
3, 241110, Note_on_c, 0, 58, 108
3, 241200, Note_on_c, 0, 58, 0
3, 241200, Note_on_c, 0, 48, 0
3, 241200, Note_on_c, 0, 36, 0
3, 241200, Note_on_c, 0, 37, 88
3, 241200, Note_on_c, 0, 49, 88
3, 241290, Note_on_c, 0, 58, 112
3, 241380, Note_on_c, 0, 58, 0
3, 241380, Note_on_c, 0, 64, 113
3, 241470, Note_on_c, 0, 64, 0
3, 241470, Note_on_c, 0, 70, 115
3, 241560, Note_on_c, 0, 70, 0
3, 241560, Note_on_c, 0, 70, 116
3, 241650, Note_on_c, 0, 70, 0
3, 241650, Note_on_c, 0, 64, 118
3, 241740, Note_on_c, 0, 64, 0
3, 241740, Note_on_c, 0, 70, 119
3, 241830, Note_on_c, 0, 70, 0
3, 241830, Note_on_c, 0, 58, 121
3, 241920, Note_on_c, 0, 58, 0
3, 241920, Note_on_c, 0, 49, 0
3, 241920, Note_on_c, 0, 37, 0
3, 241920, Note_on_c, 0, 38, 86
3, 241920, Note_on_c, 0, 50, 86
3, 242010, Note_on_c, 0, 59, 114
3, 242100, Note_on_c, 0, 59, 0
3, 242100, Note_on_c, 0, 67, 126
3, 242190, Note_on_c, 0, 67, 0
3, 242190, Note_on_c, 0, 71, 126
3, 242280, Note_on_c, 0, 71, 0
3, 242280, Note_on_c, 0, 71, 123
3, 242370, Note_on_c, 0, 71, 0
3, 242370, Note_on_c, 0, 67, 112
3, 242460, Note_on_c, 0, 67, 0
3, 242460, Note_on_c, 0, 71, 126
3, 242550, Note_on_c, 0, 71, 0
3, 242550, Note_on_c, 0, 59, 113
3, 242640, Note_on_c, 0, 59, 0
3, 242640, Note_on_c, 0, 50, 0
3, 242640, Note_on_c, 0, 38, 0
3, 242640, Note_on_c, 0, 39, 85
3, 242640, Note_on_c, 0, 51, 85
3, 242730, Note_on_c, 0, 59, 109
3, 242820, Note_on_c, 0, 59, 0
3, 242820, Note_on_c, 0, 67, 126
3, 242910, Note_on_c, 0, 67, 0
3, 242910, Note_on_c, 0, 71, 126
3, 243000, Note_on_c, 0, 71, 0
3, 243000, Note_on_c, 0, 71, 126
3, 243090, Note_on_c, 0, 71, 0
3, 243090, Note_on_c, 0, 67, 106
3, 243180, Note_on_c, 0, 67, 0
3, 243180, Note_on_c, 0, 71, 126
3, 243270, Note_on_c, 0, 71, 0
3, 243270, Note_on_c, 0, 59, 108
3, 243360, Note_on_c, 0, 59, 0
3, 243360, Note_on_c, 0, 51, 0
3, 243360, Note_on_c, 0, 39, 0
3, 243360, Note_on_c, 0, 40, 89
3, 243360, Note_on_c, 0, 52, 89
3, 243450, Note_on_c, 0, 59, 110
3, 243540, Note_on_c, 0, 59, 0
3, 243540, Note_on_c, 0, 67, 126
3, 243630, Note_on_c, 0, 67, 0
3, 243630, Note_on_c, 0, 71, 126
3, 243720, Note_on_c, 0, 71, 0
3, 243720, Note_on_c, 0, 71, 120
3, 243810, Note_on_c, 0, 71, 0
3, 243810, Note_on_c, 0, 67, 116
3, 243900, Note_on_c, 0, 67, 0
3, 243900, Note_on_c, 0, 71, 126
3, 243990, Note_on_c, 0, 71, 0
3, 243990, Note_on_c, 0, 59, 107
3, 244080, Note_on_c, 0, 59, 0
3, 244080, Note_on_c, 0, 52, 0
3, 244080, Note_on_c, 0, 40, 0
3, 244080, Note_on_c, 0, 41, 88
3, 244080, Note_on_c, 0, 53, 88
3, 244170, Note_on_c, 0, 59, 110
3, 244260, Note_on_c, 0, 59, 0
3, 244260, Note_on_c, 0, 67, 126
3, 244350, Note_on_c, 0, 67, 0
3, 244350, Note_on_c, 0, 71, 126
3, 244440, Note_on_c, 0, 71, 0
3, 244440, Note_on_c, 0, 71, 126
3, 244530, Note_on_c, 0, 71, 0
3, 244530, Note_on_c, 0, 67, 109
3, 244620, Note_on_c, 0, 67, 0
3, 244620, Note_on_c, 0, 62, 107
3, 244710, Note_on_c, 0, 62, 0
3, 244710, Note_on_c, 0, 59, 118
3, 244800, Note_on_c, 0, 59, 0
3, 244800, Note_on_c, 0, 53, 0
3, 244800, Note_on_c, 0, 41, 0
3, 244800, Note_on_c, 0, 64, 126
3, 244800, Note_on_c, 0, 42, 85
3, 244800, Note_on_c, 0, 54, 85
3, 244890, Note_on_c, 0, 64, 0
3, 244890, Note_on_c, 0, 58, 115
3, 244980, Note_on_c, 0, 58, 0
3, 244980, Note_on_c, 0, 64, 126
3, 245070, Note_on_c, 0, 64, 0
3, 245070, Note_on_c, 0, 52, 113
3, 245160, Note_on_c, 0, 52, 0
3, 245250, Note_on_c, 0, 64, 112
3, 245340, Note_on_c, 0, 64, 0
3, 245340, Note_on_c, 0, 58, 114
3, 245430, Note_on_c, 0, 58, 0
3, 245430, Note_on_c, 0, 52, 108
3, 245520, Note_on_c, 0, 52, 0
3, 245520, Note_on_c, 0, 54, 0
3, 245520, Note_on_c, 0, 42, 0
3, 245520, Note_on_c, 0, 62, 126
3, 245520, Note_on_c, 0, 42, 86
3, 245520, Note_on_c, 0, 54, 86
3, 245610, Note_on_c, 0, 62, 0
3, 245610, Note_on_c, 0, 54, 114
3, 245700, Note_on_c, 0, 54, 0
3, 245700, Note_on_c, 0, 62, 126
3, 245790, Note_on_c, 0, 62, 0
3, 245790, Note_on_c, 0, 50, 110
3, 245880, Note_on_c, 0, 50, 0
3, 245970, Note_on_c, 0, 62, 108
3, 246060, Note_on_c, 0, 62, 0
3, 246060, Note_on_c, 0, 54, 110
3, 246150, Note_on_c, 0, 54, 0
3, 246150, Note_on_c, 0, 50, 112
3, 246240, Note_on_c, 0, 50, 0
3, 246240, Note_on_c, 0, 54, 0
3, 246240, Note_on_c, 0, 42, 0
3, 246240, Note_on_c, 0, 52, 123
3, 246240, Note_on_c, 0, 62, 123
3, 246240, Note_on_c, 0, 64, 123
3, 246240, Note_on_c, 0, 42, 62
3, 246240, Note_on_c, 0, 54, 62
3, 246420, Note_on_c, 0, 64, 0
3, 246420, Note_on_c, 0, 52, 0
3, 246420, Note_on_c, 0, 62, 0
3, 246420, Note_on_c, 0, 52, 127
3, 246420, Note_on_c, 0, 61, 127
3, 246420, Note_on_c, 0, 64, 127
3, 246600, Note_on_c, 0, 64, 0
3, 246600, Note_on_c, 0, 52, 0
3, 246600, Note_on_c, 0, 61, 0
3, 246600, Note_on_c, 0, 52, 127
3, 246600, Note_on_c, 0, 60, 127
3, 246600, Note_on_c, 0, 64, 127
3, 246780, Note_on_c, 0, 64, 0
3, 246780, Note_on_c, 0, 52, 0
3, 246780, Note_on_c, 0, 60, 0
3, 246780, Note_on_c, 0, 52, 127
3, 246780, Note_on_c, 0, 61, 127
3, 246780, Note_on_c, 0, 64, 127
3, 246960, Note_on_c, 0, 64, 0
3, 246960, Note_on_c, 0, 52, 0
3, 246960, Note_on_c, 0, 54, 0
3, 246960, Note_on_c, 0, 42, 0
3, 246960, Note_on_c, 0, 61, 0
3, 246960, Note_on_c, 0, 52, 127
3, 246960, Note_on_c, 0, 58, 127
3, 246960, Note_on_c, 0, 64, 127
3, 246960, Note_on_c, 0, 31, 53
3, 246960, Note_on_c, 0, 43, 53
3, 247320, Note_on_c, 0, 64, 0
3, 247320, Note_on_c, 0, 52, 0
3, 247320, Note_on_c, 0, 58, 0
3, 247320, Note_on_c, 0, 50, 112
3, 247320, Note_on_c, 0, 59, 112
3, 247320, Note_on_c, 0, 62, 112
3, 247680, Note_on_c, 0, 62, 0
3, 247680, Note_on_c, 0, 50, 0
3, 247680, Note_on_c, 0, 43, 0
3, 247680, Note_on_c, 0, 31, 0
3, 247680, Note_on_c, 0, 59, 0
3, 247680, Note_on_c, 0, 57, 127
3, 247680, Note_on_c, 0, 61, 127
3, 247680, Note_on_c, 0, 40, 65
3, 247680, Note_on_c, 0, 52, 65
3, 248040, Note_on_c, 0, 61, 0
3, 248040, Note_on_c, 0, 57, 0
3, 248040, Note_on_c, 0, 55, 127
3, 248040, Note_on_c, 0, 59, 127
3, 248400, Note_on_c, 0, 59, 0
3, 248400, Note_on_c, 0, 52, 0
3, 248400, Note_on_c, 0, 40, 0
3, 248400, Note_on_c, 0, 55, 0
3, 248400, Note_on_c, 0, 62, 118
3, 248400, Note_on_c, 0, 42, 74
3, 248400, Note_on_c, 0, 54, 74
3, 249033, Note_on_c, 0, 62, 0
3, 249120, Note_on_c, 0, 54, 0
3, 249120, Note_on_c, 0, 42, 0
3, 249120, Note_on_c, 0, 61, 108
3, 249120, Note_on_c, 0, 42, 65
3, 249120, Note_on_c, 0, 54, 65
3, 249594, Note_on_c, 0, 61, 0
3, 249660, Note_on_c, 0, 58, 106
3, 249818, Note_on_c, 0, 58, 0
3, 249840, Note_on_c, 0, 54, 0
3, 249840, Note_on_c, 0, 42, 0
3, 249840, Note_on_c, 0, 59, 112
3, 249840, Note_on_c, 0, 43, 74
3, 249840, Note_on_c, 0, 55, 74
3, 250473, Note_on_c, 0, 59, 0
3, 250560, Note_on_c, 0, 55, 0
3, 250560, Note_on_c, 0, 43, 0
3, 250560, Note_on_c, 0, 57, 97
3, 250560, Note_on_c, 0, 36, 65
3, 250560, Note_on_c, 0, 48, 65
3, 251280, Note_on_c, 0, 48, 0
3, 251280, Note_on_c, 0, 36, 0
3, 251280, Note_on_c, 0, 37, 72
3, 251280, Note_on_c, 0, 49, 72
3, 252000, Note_on_c, 0, 49, 0
3, 252000, Note_on_c, 0, 37, 0
3, 252000, Note_on_c, 0, 57, 0
3, 252000, Note_on_c, 0, 56, 86
3, 252000, Note_on_c, 0, 37, 70
3, 252000, Note_on_c, 0, 49, 70
3, 252474, Note_on_c, 0, 56, 0
3, 252540, Note_on_c, 0, 53, 86
3, 252698, Note_on_c, 0, 53, 0
3, 252720, Note_on_c, 0, 49, 0
3, 252720, Note_on_c, 0, 37, 0
3, 252720, Note_on_c, 0, 54, 72
3, 252720, Note_on_c, 0, 38, 72
3, 252720, Note_on_c, 0, 50, 72
3, 253440, Note_on_c, 0, 50, 0
3, 253440, Note_on_c, 0, 38, 0
3, 253440, Note_on_c, 0, 39, 73
3, 253440, Note_on_c, 0, 51, 73
3, 253987, Note_on_c, 0, 54, 0
3, 254160, Note_on_c, 0, 51, 0
3, 254160, Note_on_c, 0, 39, 0
3, 254160, Note_on_c, 0, 52, 47
3, 254160, Note_on_c, 0, 32, 65
3, 254160, Note_on_c, 0, 44, 65
3, 254793, Note_on_c, 0, 52, 0
3, 254880, Note_on_c, 0, 44, 0
3, 254880, Note_on_c, 0, 32, 0
3, 254880, Note_on_c, 0, 51, 59
3, 254880, Note_on_c, 0, 32, 71
3, 254880, Note_on_c, 0, 44, 71
3, 255354, Note_on_c, 0, 51, 0
3, 255420, Note_on_c, 0, 48, 56
3, 255578, Note_on_c, 0, 48, 0
3, 255600, Note_on_c, 0, 44, 0
3, 255600, Note_on_c, 0, 32, 0
3, 255600, Note_on_c, 0, 49, 61
3, 255600, Note_on_c, 0, 33, 75
3, 255600, Note_on_c, 0, 45, 75
3, 256320, Note_on_c, 0, 45, 0
3, 256320, Note_on_c, 0, 33, 0
3, 256320, Note_on_c, 0, 39, 60
3, 256867, Note_on_c, 0, 49, 0
3, 257040, Note_on_c, 0, 39, 0
3, 257040, Note_on_c, 0, 44, 47
3, 257040, Note_on_c, 0, 32, 61
3, 257760, Note_on_c, 0, 44, 0
3, 257760, Note_on_c, 0, 42, 52
3, 258300, Note_on_c, 0, 42, 0
3, 258300, Note_on_c, 0, 39, 53
3, 258480, Note_on_c, 0, 39, 0
3, 258480, Note_on_c, 0, 40, 53
3, 259200, Note_on_c, 0, 32, 0
3, 259200, Note_on_c, 0, 37, 76
3, 259920, Note_on_c, 0, 37, 0
3, 259920, Note_on_c, 0, 40, 0
3, 259920, Note_on_c, 0, 49, 65
3, 259920, Note_on_c, 0, 33, 78
3, 259920, Note_on_c, 0, 45, 78
3, 260553, Note_on_c, 0, 49, 0
3, 260640, Note_on_c, 0, 49, 64
3, 261114, Note_on_c, 0, 49, 0
3, 261180, Note_on_c, 0, 49, 57
3, 261338, Note_on_c, 0, 49, 0
3, 261360, Note_on_c, 0, 45, 0
3, 261360, Note_on_c, 0, 33, 0
3, 261360, Note_on_c, 0, 49, 44
3, 261360, Note_on_c, 0, 37, 48
3, 261540, Note_on_c, 0, 49, 0
3, 261540, Note_on_c, 0, 48, 44
3, 261720, Note_on_c, 0, 48, 0
3, 261900, Note_on_c, 0, 47, 78
3, 262058, Note_on_c, 0, 47, 0
3, 262080, Note_on_c, 0, 47, 70
3, 262260, Note_on_c, 0, 47, 0
3, 262260, Note_on_c, 0, 46, 70
3, 262620, Note_on_c, 0, 46, 0
3, 262620, Note_on_c, 0, 45, 78
3, 262778, Note_on_c, 0, 45, 0
3, 262800, Note_on_c, 0, 37, 0
3, 262800, Note_on_c, 0, 52, 52
3, 262800, Note_on_c, 0, 45, 60
3, 262800, Note_on_c, 0, 37, 50
3, 262980, Note_on_c, 0, 45, 0
3, 262980, Note_on_c, 0, 44, 60
3, 263340, Note_on_c, 0, 44, 0
3, 263340, Note_on_c, 0, 44, 74
3, 263433, Note_on_c, 0, 52, 0
3, 263498, Note_on_c, 0, 44, 0
3, 263520, Note_on_c, 0, 48, 52
3, 263520, Note_on_c, 0, 44, 59
3, 263700, Note_on_c, 0, 44, 0
3, 263700, Note_on_c, 0, 43, 58
3, 263994, Note_on_c, 0, 48, 0
3, 264060, Note_on_c, 0, 43, 0
3, 264060, Note_on_c, 0, 45, 59
3, 264060, Note_on_c, 0, 42, 63
3, 264218, Note_on_c, 0, 45, 0
3, 264240, Note_on_c, 0, 42, 0
3, 264240, Note_on_c, 0, 37, 0
3, 264240, Note_on_c, 0, 49, 59
3, 264240, Note_on_c, 0, 42, 58
3, 264240, Note_on_c, 0, 37, 50
3, 264420, Note_on_c, 0, 42, 0
3, 264420, Note_on_c, 0, 41, 58
3, 264780, Note_on_c, 0, 41, 0
3, 264780, Note_on_c, 0, 40, 57
3, 264960, Note_on_c, 0, 40, 0
3, 264960, Note_on_c, 0, 40, 59
3, 265140, Note_on_c, 0, 40, 0
3, 265140, Note_on_c, 0, 39, 61
3, 265320, Note_on_c, 0, 37, 0
3, 265500, Note_on_c, 0, 39, 0
3, 265500, Note_on_c, 0, 49, 0
3, 265500, Note_on_c, 0, 50, 44
3, 265500, Note_on_c, 0, 38, 57
3, 265680, Note_on_c, 0, 38, 0
3, 265680, Note_on_c, 0, 50, 0
3, 265680, Note_on_c, 0, 50, 44
3, 265680, Note_on_c, 0, 38, 66
3, 265860, Note_on_c, 0, 38, 0
3, 265860, Note_on_c, 0, 50, 0
3, 265860, Note_on_c, 0, 49, 36
3, 265860, Note_on_c, 0, 37, 58
3, 266220, Note_on_c, 0, 37, 0
3, 266220, Note_on_c, 0, 49, 0
3, 266220, Note_on_c, 0, 50, 57
3, 266220, Note_on_c, 0, 38, 72
3, 266378, Note_on_c, 0, 38, 0
3, 266378, Note_on_c, 0, 50, 0
3, 266400, Note_on_c, 0, 50, 42
3, 266400, Note_on_c, 0, 38, 61
3, 266580, Note_on_c, 0, 38, 0
3, 266580, Note_on_c, 0, 50, 0
3, 266580, Note_on_c, 0, 49, 44
3, 266580, Note_on_c, 0, 37, 54
3, 266760, Note_on_c, 0, 37, 0
3, 266760, Note_on_c, 0, 49, 0
3, 266940, Note_on_c, 0, 38, 53
3, 267120, Note_on_c, 0, 38, 0
3, 267120, Note_on_c, 0, 40, 40
3, 267120, Note_on_c, 0, 44, 40
3, 267120, Note_on_c, 0, 38, 57
3, 267300, Note_on_c, 0, 38, 0
3, 267300, Note_on_c, 0, 37, 68
3, 267660, Note_on_c, 0, 37, 0
3, 267660, Note_on_c, 0, 38, 71
3, 267818, Note_on_c, 0, 38, 0
3, 267840, Note_on_c, 0, 38, 64
3, 268020, Note_on_c, 0, 38, 0
3, 268020, Note_on_c, 0, 37, 58
3, 268560, Note_on_c, 0, 37, 0
3, 268560, Note_on_c, 0, 44, 0
3, 268560, Note_on_c, 0, 40, 0
3, 268560, Note_on_c, 0, 56, 92
3, 268740, Note_on_c, 0, 56, 0
3, 268740, Note_on_c, 0, 55, 82
3, 268830, Note_on_c, 0, 55, 0
3, 268830, Note_on_c, 0, 56, 86
3, 268920, Note_on_c, 0, 56, 0
3, 268920, Note_on_c, 0, 56, 83
3, 269010, Note_on_c, 0, 56, 0
3, 269010, Note_on_c, 0, 61, 90
3, 269100, Note_on_c, 0, 61, 0
3, 269100, Note_on_c, 0, 63, 96
3, 269190, Note_on_c, 0, 63, 0
3, 269190, Note_on_c, 0, 64, 102
3, 269280, Note_on_c, 0, 64, 0
3, 269280, Note_on_c, 0, 64, 109
3, 269460, Note_on_c, 0, 64, 0
3, 269460, Note_on_c, 0, 69, 102
3, 269820, Note_on_c, 0, 69, 0
3, 269820, Note_on_c, 0, 68, 90
3, 270000, Note_on_c, 0, 68, 0
3, 270000, Note_on_c, 0, 61, 86
3, 270000, Note_on_c, 0, 68, 86
3, 270000, Note_on_c, 0, 80, 45
3, 270089, Note_on_c, 0, 80, 0
3, 270180, Note_on_c, 0, 80, 52
3, 270269, Note_on_c, 0, 80, 0
3, 270360, Note_on_c, 0, 81, 52
3, 270449, Note_on_c, 0, 81, 0
3, 270540, Note_on_c, 0, 80, 48
3, 270629, Note_on_c, 0, 80, 0
3, 270720, Note_on_c, 0, 78, 60
3, 271037, Note_on_c, 0, 78, 0
3, 271080, Note_on_c, 0, 68, 0
3, 271080, Note_on_c, 0, 61, 0
3, 271080, Note_on_c, 0, 80, 64
3, 271397, Note_on_c, 0, 80, 0
3, 271440, Note_on_c, 0, 76, 42
3, 271574, Note_on_c, 0, 76, 0
3, 271710, Note_on_c, 0, 76, 47
3, 271754, Note_on_c, 0, 76, 0
3, 271800, Note_on_c, 0, 76, 51
3, 271889, Note_on_c, 0, 76, 0
3, 271980, Note_on_c, 0, 78, 50
3, 272069, Note_on_c, 0, 78, 0
3, 272160, Note_on_c, 0, 80, 55
3, 272519, Note_on_c, 0, 80, 0
3, 273240, Note_on_c, 0, 56, 78
3, 273420, Note_on_c, 0, 56, 0
3, 273420, Note_on_c, 0, 55, 80
3, 273510, Note_on_c, 0, 55, 0
3, 273510, Note_on_c, 0, 56, 89
3, 273600, Note_on_c, 0, 56, 0
3, 273600, Note_on_c, 0, 56, 83
3, 273690, Note_on_c, 0, 56, 0
3, 273690, Note_on_c, 0, 61, 86
3, 273780, Note_on_c, 0, 61, 0
3, 273780, Note_on_c, 0, 63, 88
3, 273870, Note_on_c, 0, 63, 0
3, 273870, Note_on_c, 0, 64, 91
3, 273960, Note_on_c, 0, 64, 0
3, 273960, Note_on_c, 0, 64, 93
3, 274140, Note_on_c, 0, 64, 0
3, 274140, Note_on_c, 0, 69, 99
3, 274500, Note_on_c, 0, 69, 0
3, 274500, Note_on_c, 0, 68, 109
3, 274680, Note_on_c, 0, 68, 0
3, 274680, Note_on_c, 0, 72, 109
3, 275760, Note_on_c, 0, 72, 0
3, 275760, Note_on_c, 0, 71, 90
3, 276077, Note_on_c, 0, 71, 0
3, 276120, Note_on_c, 0, 64, 93
3, 276120, Note_on_c, 0, 71, 93
3, 276120, Note_on_c, 0, 83, 45
3, 276209, Note_on_c, 0, 83, 0
3, 276300, Note_on_c, 0, 83, 48
3, 276389, Note_on_c, 0, 83, 0
3, 276480, Note_on_c, 0, 85, 56
3, 276569, Note_on_c, 0, 85, 0
3, 276660, Note_on_c, 0, 83, 43
3, 276749, Note_on_c, 0, 83, 0
3, 276840, Note_on_c, 0, 81, 55
3, 277069, Note_on_c, 0, 71, 0
3, 277069, Note_on_c, 0, 64, 0
3, 277157, Note_on_c, 0, 81, 0
3, 277200, Note_on_c, 0, 83, 66
3, 277517, Note_on_c, 0, 83, 0
3, 277560, Note_on_c, 0, 80, 47
3, 277694, Note_on_c, 0, 80, 0
3, 277830, Note_on_c, 0, 80, 51
3, 277874, Note_on_c, 0, 80, 0
3, 277920, Note_on_c, 0, 80, 50
3, 278009, Note_on_c, 0, 80, 0
3, 278100, Note_on_c, 0, 81, 53
3, 278189, Note_on_c, 0, 81, 0
3, 278280, Note_on_c, 0, 83, 58
3, 278639, Note_on_c, 0, 83, 0
3, 279360, Note_on_c, 0, 71, 57
3, 279720, Note_on_c, 0, 71, 0
3, 279720, Note_on_c, 0, 77, 67
3, 280440, Note_on_c, 0, 77, 0
3, 280440, Note_on_c, 0, 76, 60
3, 280800, Note_on_c, 0, 76, 0
3, 280800, Note_on_c, 0, 69, 82
3, 280800, Note_on_c, 0, 76, 82
3, 280889, Note_on_c, 0, 76, 0
3, 280889, Note_on_c, 0, 69, 0
3, 280980, Note_on_c, 0, 69, 60
3, 280980, Note_on_c, 0, 76, 60
3, 281069, Note_on_c, 0, 69, 0
3, 282240, Note_on_c, 0, 76, 0
3, 282240, Note_on_c, 0, 69, 82
3, 282240, Note_on_c, 0, 76, 82
3, 282329, Note_on_c, 0, 76, 0
3, 282329, Note_on_c, 0, 69, 0
3, 282420, Note_on_c, 0, 69, 60
3, 282420, Note_on_c, 0, 76, 60
3, 282509, Note_on_c, 0, 69, 0
3, 283680, Note_on_c, 0, 76, 0
3, 283680, Note_on_c, 0, 69, 78
3, 283680, Note_on_c, 0, 76, 78
3, 283769, Note_on_c, 0, 76, 0
3, 283769, Note_on_c, 0, 69, 0
3, 283860, Note_on_c, 0, 69, 59
3, 283860, Note_on_c, 0, 76, 59
3, 283949, Note_on_c, 0, 69, 0
3, 285120, Note_on_c, 0, 76, 0
3, 285120, Note_on_c, 0, 69, 76
3, 285120, Note_on_c, 0, 76, 76
3, 285209, Note_on_c, 0, 76, 0
3, 285209, Note_on_c, 0, 69, 0
3, 285300, Note_on_c, 0, 69, 62
3, 285300, Note_on_c, 0, 76, 62
3, 285389, Note_on_c, 0, 69, 0
3, 286560, Note_on_c, 0, 76, 0
3, 286560, Note_on_c, 0, 64, 45
3, 286560, Note_on_c, 0, 71, 45
3, 286649, Note_on_c, 0, 71, 0
3, 286649, Note_on_c, 0, 64, 0
3, 286740, Note_on_c, 0, 64, 52
3, 286740, Note_on_c, 0, 71, 52
3, 286829, Note_on_c, 0, 64, 0
3, 288000, Note_on_c, 0, 71, 0
3, 288000, Note_on_c, 0, 64, 49
3, 288000, Note_on_c, 0, 71, 49
3, 288089, Note_on_c, 0, 71, 0
3, 288089, Note_on_c, 0, 64, 0
3, 288180, Note_on_c, 0, 64, 51
3, 288180, Note_on_c, 0, 71, 51
3, 288269, Note_on_c, 0, 64, 0
3, 289440, Note_on_c, 0, 71, 0
3, 289440, Note_on_c, 0, 64, 51
3, 289440, Note_on_c, 0, 71, 51
3, 289529, Note_on_c, 0, 71, 0
3, 289529, Note_on_c, 0, 64, 0
3, 289620, Note_on_c, 0, 64, 54
3, 289620, Note_on_c, 0, 71, 54
3, 289709, Note_on_c, 0, 64, 0
3, 290880, Note_on_c, 0, 71, 0
3, 290880, Note_on_c, 0, 64, 48
3, 290880, Note_on_c, 0, 71, 48
3, 290969, Note_on_c, 0, 71, 0
3, 290969, Note_on_c, 0, 64, 0
3, 291060, Note_on_c, 0, 64, 56
3, 291060, Note_on_c, 0, 71, 56
3, 291149, Note_on_c, 0, 64, 0
3, 292320, Note_on_c, 0, 71, 0
3, 292320, Note_on_c, 0, 64, 56
3, 292320, Note_on_c, 0, 69, 56
3, 292320, Note_on_c, 0, 57, 53
3, 292409, Note_on_c, 0, 57, 0
3, 292409, Note_on_c, 0, 69, 0
3, 292409, Note_on_c, 0, 64, 0
3, 292500, Note_on_c, 0, 64, 71
3, 292500, Note_on_c, 0, 69, 71
3, 292500, Note_on_c, 0, 57, 74
3, 292817, Note_on_c, 0, 57, 0
3, 292817, Note_on_c, 0, 69, 0
3, 292817, Note_on_c, 0, 64, 0
3, 292860, Note_on_c, 0, 64, 59
3, 292860, Note_on_c, 0, 69, 59
3, 292860, Note_on_c, 0, 57, 64
3, 292949, Note_on_c, 0, 57, 0
3, 292949, Note_on_c, 0, 69, 0
3, 292949, Note_on_c, 0, 64, 0
3, 293040, Note_on_c, 0, 64, 75
3, 293040, Note_on_c, 0, 71, 75
3, 293040, Note_on_c, 0, 57, 71
3, 293673, Note_on_c, 0, 57, 0
3, 293673, Note_on_c, 0, 71, 0
3, 293673, Note_on_c, 0, 64, 0
3, 293760, Note_on_c, 0, 64, 57
3, 293760, Note_on_c, 0, 69, 57
3, 293760, Note_on_c, 0, 57, 58
3, 293849, Note_on_c, 0, 57, 0
3, 293849, Note_on_c, 0, 69, 0
3, 293849, Note_on_c, 0, 64, 0
3, 293940, Note_on_c, 0, 64, 70
3, 293940, Note_on_c, 0, 69, 70
3, 293940, Note_on_c, 0, 57, 74
3, 294257, Note_on_c, 0, 57, 0
3, 294257, Note_on_c, 0, 69, 0
3, 294257, Note_on_c, 0, 64, 0
3, 294300, Note_on_c, 0, 64, 59
3, 294300, Note_on_c, 0, 69, 59
3, 294300, Note_on_c, 0, 57, 65
3, 294389, Note_on_c, 0, 57, 0
3, 294389, Note_on_c, 0, 69, 0
3, 294389, Note_on_c, 0, 64, 0
3, 294480, Note_on_c, 0, 64, 73
3, 294480, Note_on_c, 0, 69, 73
3, 294480, Note_on_c, 0, 57, 76
3, 295113, Note_on_c, 0, 57, 0
3, 295113, Note_on_c, 0, 69, 0
3, 295113, Note_on_c, 0, 64, 0
3, 295200, Note_on_c, 0, 64, 62
3, 295200, Note_on_c, 0, 69, 62
3, 295200, Note_on_c, 0, 57, 56
3, 295289, Note_on_c, 0, 57, 0
3, 295289, Note_on_c, 0, 69, 0
3, 295289, Note_on_c, 0, 64, 0
3, 295380, Note_on_c, 0, 64, 71
3, 295380, Note_on_c, 0, 69, 71
3, 295380, Note_on_c, 0, 57, 72
3, 295697, Note_on_c, 0, 57, 0
3, 295697, Note_on_c, 0, 69, 0
3, 295697, Note_on_c, 0, 64, 0
3, 295740, Note_on_c, 0, 64, 54
3, 295740, Note_on_c, 0, 69, 54
3, 295740, Note_on_c, 0, 57, 60
3, 295829, Note_on_c, 0, 57, 0
3, 295829, Note_on_c, 0, 69, 0
3, 295829, Note_on_c, 0, 64, 0
3, 295920, Note_on_c, 0, 64, 82
3, 295920, Note_on_c, 0, 71, 82
3, 295920, Note_on_c, 0, 57, 68
3, 296553, Note_on_c, 0, 57, 0
3, 296553, Note_on_c, 0, 71, 0
3, 296553, Note_on_c, 0, 64, 0
3, 296640, Note_on_c, 0, 64, 54
3, 296640, Note_on_c, 0, 69, 54
3, 296640, Note_on_c, 0, 57, 61
3, 296729, Note_on_c, 0, 57, 0
3, 296729, Note_on_c, 0, 69, 0
3, 296729, Note_on_c, 0, 64, 0
3, 296820, Note_on_c, 0, 64, 67
3, 296820, Note_on_c, 0, 69, 67
3, 296820, Note_on_c, 0, 57, 68
3, 297137, Note_on_c, 0, 57, 0
3, 297137, Note_on_c, 0, 69, 0
3, 297137, Note_on_c, 0, 64, 0
3, 297180, Note_on_c, 0, 64, 58
3, 297180, Note_on_c, 0, 69, 58
3, 297180, Note_on_c, 0, 57, 61
3, 297269, Note_on_c, 0, 57, 0
3, 297269, Note_on_c, 0, 69, 0
3, 297269, Note_on_c, 0, 64, 0
3, 297360, Note_on_c, 0, 64, 75
3, 297360, Note_on_c, 0, 69, 75
3, 297360, Note_on_c, 0, 57, 65
3, 297993, Note_on_c, 0, 57, 0
3, 297993, Note_on_c, 0, 69, 0
3, 297993, Note_on_c, 0, 64, 0
3, 298080, Note_on_c, 0, 59, 44
3, 298080, Note_on_c, 0, 64, 44
3, 298080, Note_on_c, 0, 52, 46
3, 298169, Note_on_c, 0, 52, 0
3, 298169, Note_on_c, 0, 64, 0
3, 298169, Note_on_c, 0, 59, 0
3, 298260, Note_on_c, 0, 59, 64
3, 298260, Note_on_c, 0, 64, 64
3, 298260, Note_on_c, 0, 52, 61
3, 298577, Note_on_c, 0, 52, 0
3, 298577, Note_on_c, 0, 64, 0
3, 298577, Note_on_c, 0, 59, 0
3, 298620, Note_on_c, 0, 59, 53
3, 298620, Note_on_c, 0, 64, 53
3, 298620, Note_on_c, 0, 52, 49
3, 298709, Note_on_c, 0, 52, 0
3, 298709, Note_on_c, 0, 64, 0
3, 298709, Note_on_c, 0, 59, 0
3, 298800, Note_on_c, 0, 59, 69
3, 298800, Note_on_c, 0, 66, 69
3, 298800, Note_on_c, 0, 52, 62
3, 299433, Note_on_c, 0, 52, 0
3, 299433, Note_on_c, 0, 66, 0
3, 299433, Note_on_c, 0, 59, 0
3, 299520, Note_on_c, 0, 59, 49
3, 299520, Note_on_c, 0, 64, 49
3, 299520, Note_on_c, 0, 52, 55
3, 299609, Note_on_c, 0, 52, 0
3, 299609, Note_on_c, 0, 64, 0
3, 299609, Note_on_c, 0, 59, 0
3, 299700, Note_on_c, 0, 59, 64
3, 299700, Note_on_c, 0, 64, 64
3, 299700, Note_on_c, 0, 52, 66
3, 300017, Note_on_c, 0, 52, 0
3, 300017, Note_on_c, 0, 64, 0
3, 300017, Note_on_c, 0, 59, 0
3, 300060, Note_on_c, 0, 59, 52
3, 300060, Note_on_c, 0, 64, 52
3, 300060, Note_on_c, 0, 52, 54
3, 300149, Note_on_c, 0, 52, 0
3, 300149, Note_on_c, 0, 64, 0
3, 300149, Note_on_c, 0, 59, 0
3, 300240, Note_on_c, 0, 59, 64
3, 300240, Note_on_c, 0, 64, 64
3, 300240, Note_on_c, 0, 52, 63
3, 300873, Note_on_c, 0, 52, 0
3, 300873, Note_on_c, 0, 64, 0
3, 300873, Note_on_c, 0, 59, 0
3, 300960, Note_on_c, 0, 59, 48
3, 300960, Note_on_c, 0, 64, 48
3, 300960, Note_on_c, 0, 52, 47
3, 301049, Note_on_c, 0, 52, 0
3, 301049, Note_on_c, 0, 64, 0
3, 301049, Note_on_c, 0, 59, 0
3, 301140, Note_on_c, 0, 59, 62
3, 301140, Note_on_c, 0, 64, 62
3, 301140, Note_on_c, 0, 52, 59
3, 301457, Note_on_c, 0, 52, 0
3, 301457, Note_on_c, 0, 64, 0
3, 301457, Note_on_c, 0, 59, 0
3, 301500, Note_on_c, 0, 59, 46
3, 301500, Note_on_c, 0, 64, 46
3, 301500, Note_on_c, 0, 52, 50
3, 301589, Note_on_c, 0, 52, 0
3, 301589, Note_on_c, 0, 64, 0
3, 301589, Note_on_c, 0, 59, 0
3, 301680, Note_on_c, 0, 59, 68
3, 301680, Note_on_c, 0, 66, 68
3, 301680, Note_on_c, 0, 52, 60
3, 302313, Note_on_c, 0, 52, 0
3, 302313, Note_on_c, 0, 66, 0
3, 302313, Note_on_c, 0, 59, 0
3, 302400, Note_on_c, 0, 59, 47
3, 302400, Note_on_c, 0, 64, 47
3, 302400, Note_on_c, 0, 52, 51
3, 302489, Note_on_c, 0, 52, 0
3, 302489, Note_on_c, 0, 64, 0
3, 302489, Note_on_c, 0, 59, 0
3, 302580, Note_on_c, 0, 59, 62
3, 302580, Note_on_c, 0, 64, 62
3, 302580, Note_on_c, 0, 52, 64
3, 302897, Note_on_c, 0, 52, 0
3, 302897, Note_on_c, 0, 64, 0
3, 302897, Note_on_c, 0, 59, 0
3, 302940, Note_on_c, 0, 59, 53
3, 302940, Note_on_c, 0, 64, 53
3, 302940, Note_on_c, 0, 52, 47
3, 303029, Note_on_c, 0, 52, 0
3, 303029, Note_on_c, 0, 64, 0
3, 303029, Note_on_c, 0, 59, 0
3, 303120, Note_on_c, 0, 59, 59
3, 303120, Note_on_c, 0, 64, 59
3, 303120, Note_on_c, 0, 52, 62
3, 303753, Note_on_c, 0, 52, 0
3, 303753, Note_on_c, 0, 64, 0
3, 303753, Note_on_c, 0, 59, 0
3, 303840, Note_on_c, 0, 33, 76
3, 303840, Note_on_c, 0, 45, 76
3, 304020, Note_on_c, 0, 52, 85
3, 304109, Note_on_c, 0, 52, 0
3, 304200, Note_on_c, 0, 45, 0
3, 304200, Note_on_c, 0, 33, 0
3, 304200, Note_on_c, 0, 57, 104
3, 304289, Note_on_c, 0, 57, 0
3, 304380, Note_on_c, 0, 64, 120
3, 304469, Note_on_c, 0, 64, 0
3, 304560, Note_on_c, 0, 64, 100
3, 304649, Note_on_c, 0, 64, 0
3, 304740, Note_on_c, 0, 56, 88
3, 304829, Note_on_c, 0, 56, 0
3, 304920, Note_on_c, 0, 52, 90
3, 305009, Note_on_c, 0, 52, 0
3, 305100, Note_on_c, 0, 64, 124
3, 305189, Note_on_c, 0, 64, 0
3, 305280, Note_on_c, 0, 33, 72
3, 305280, Note_on_c, 0, 45, 72
3, 305460, Note_on_c, 0, 52, 90
3, 305549, Note_on_c, 0, 52, 0
3, 305640, Note_on_c, 0, 45, 0
3, 305640, Note_on_c, 0, 33, 0
3, 305640, Note_on_c, 0, 57, 107
3, 305729, Note_on_c, 0, 57, 0
3, 305820, Note_on_c, 0, 64, 116
3, 305909, Note_on_c, 0, 64, 0
3, 306000, Note_on_c, 0, 64, 102
3, 306089, Note_on_c, 0, 64, 0
3, 306180, Note_on_c, 0, 57, 91
3, 306269, Note_on_c, 0, 57, 0
3, 306360, Note_on_c, 0, 52, 86
3, 306449, Note_on_c, 0, 52, 0
3, 306540, Note_on_c, 0, 64, 126
3, 306629, Note_on_c, 0, 64, 0
3, 306720, Note_on_c, 0, 33, 76
3, 306720, Note_on_c, 0, 45, 76
3, 306900, Note_on_c, 0, 52, 88
3, 306989, Note_on_c, 0, 52, 0
3, 307080, Note_on_c, 0, 45, 0
3, 307080, Note_on_c, 0, 33, 0
3, 307080, Note_on_c, 0, 57, 97
3, 307169, Note_on_c, 0, 57, 0
3, 307260, Note_on_c, 0, 52, 92
3, 307349, Note_on_c, 0, 52, 0
3, 307620, Note_on_c, 0, 56, 82
3, 307709, Note_on_c, 0, 56, 0
3, 307800, Note_on_c, 0, 52, 92
3, 307889, Note_on_c, 0, 52, 0
3, 307980, Note_on_c, 0, 62, 117
3, 308069, Note_on_c, 0, 62, 0
3, 308160, Note_on_c, 0, 33, 75
3, 308160, Note_on_c, 0, 45, 75
3, 308340, Note_on_c, 0, 52, 91
3, 308429, Note_on_c, 0, 52, 0
3, 308520, Note_on_c, 0, 45, 0
3, 308520, Note_on_c, 0, 33, 0
3, 308520, Note_on_c, 0, 57, 101
3, 308609, Note_on_c, 0, 57, 0
3, 308700, Note_on_c, 0, 61, 109
3, 308789, Note_on_c, 0, 61, 0
3, 308880, Note_on_c, 0, 63, 97
3, 308880, Note_on_c, 0, 42, 77
3, 308880, Note_on_c, 0, 54, 77
3, 308969, Note_on_c, 0, 63, 0
3, 309060, Note_on_c, 0, 57, 91
3, 309149, Note_on_c, 0, 57, 0
3, 309240, Note_on_c, 0, 54, 0
3, 309240, Note_on_c, 0, 42, 0
3, 309240, Note_on_c, 0, 61, 85
3, 309329, Note_on_c, 0, 61, 0
3, 309420, Note_on_c, 0, 63, 78
3, 309509, Note_on_c, 0, 63, 0
3, 309600, Note_on_c, 0, 40, 73
3, 309600, Note_on_c, 0, 52, 73
3, 309780, Note_on_c, 0, 59, 78
3, 309869, Note_on_c, 0, 59, 0
3, 309960, Note_on_c, 0, 52, 0
3, 309960, Note_on_c, 0, 40, 0
3, 309960, Note_on_c, 0, 64, 98
3, 310049, Note_on_c, 0, 64, 0
3, 310140, Note_on_c, 0, 59, 76
3, 310229, Note_on_c, 0, 59, 0
3, 310500, Note_on_c, 0, 59, 76
3, 310589, Note_on_c, 0, 59, 0
3, 310680, Note_on_c, 0, 63, 86
3, 310769, Note_on_c, 0, 63, 0
3, 310860, Note_on_c, 0, 59, 79
3, 310949, Note_on_c, 0, 59, 0
3, 311040, Note_on_c, 0, 40, 74
3, 311040, Note_on_c, 0, 52, 74
3, 311220, Note_on_c, 0, 59, 75
3, 311309, Note_on_c, 0, 59, 0
3, 311400, Note_on_c, 0, 52, 0
3, 311400, Note_on_c, 0, 40, 0
3, 311400, Note_on_c, 0, 52, 75
3, 311489, Note_on_c, 0, 52, 0
3, 311580, Note_on_c, 0, 59, 84
3, 311669, Note_on_c, 0, 59, 0
3, 311940, Note_on_c, 0, 64, 76
3, 312029, Note_on_c, 0, 64, 0
3, 312120, Note_on_c, 0, 59, 79
3, 312209, Note_on_c, 0, 59, 0
3, 312300, Note_on_c, 0, 52, 76
3, 312389, Note_on_c, 0, 52, 0
3, 312480, Note_on_c, 0, 40, 75
3, 312480, Note_on_c, 0, 52, 75
3, 312660, Note_on_c, 0, 47, 74
3, 312749, Note_on_c, 0, 47, 0
3, 312840, Note_on_c, 0, 52, 0
3, 312840, Note_on_c, 0, 40, 0
3, 312840, Note_on_c, 0, 52, 88
3, 312929, Note_on_c, 0, 52, 0
3, 313020, Note_on_c, 0, 47, 76
3, 313109, Note_on_c, 0, 47, 0
3, 313380, Note_on_c, 0, 51, 74
3, 313469, Note_on_c, 0, 51, 0
3, 313560, Note_on_c, 0, 47, 73
3, 313649, Note_on_c, 0, 47, 0
3, 313740, Note_on_c, 0, 57, 90
3, 313829, Note_on_c, 0, 57, 0
3, 313920, Note_on_c, 0, 40, 76
3, 313920, Note_on_c, 0, 52, 76
3, 314100, Note_on_c, 0, 47, 76
3, 314189, Note_on_c, 0, 47, 0
3, 314280, Note_on_c, 0, 52, 0
3, 314280, Note_on_c, 0, 40, 0
3, 314280, Note_on_c, 0, 52, 86
3, 314369, Note_on_c, 0, 52, 0
3, 314460, Note_on_c, 0, 56, 90
3, 314549, Note_on_c, 0, 56, 0
3, 314640, Note_on_c, 0, 59, 85
3, 314820, Note_on_c, 0, 59, 0
3, 314820, Note_on_c, 0, 56, 83
3, 314909, Note_on_c, 0, 56, 0
3, 315000, Note_on_c, 0, 56, 83
3, 315089, Note_on_c, 0, 56, 0
3, 315180, Note_on_c, 0, 52, 83
3, 315269, Note_on_c, 0, 52, 0
3, 315360, Note_on_c, 0, 33, 80
3, 315360, Note_on_c, 0, 45, 80
3, 315540, Note_on_c, 0, 52, 72
3, 315629, Note_on_c, 0, 52, 0
3, 315720, Note_on_c, 0, 45, 0
3, 315720, Note_on_c, 0, 33, 0
3, 315720, Note_on_c, 0, 57, 83
3, 315809, Note_on_c, 0, 57, 0
3, 315900, Note_on_c, 0, 52, 82
3, 315989, Note_on_c, 0, 52, 0
3, 316260, Note_on_c, 0, 52, 75
3, 316349, Note_on_c, 0, 52, 0
3, 316440, Note_on_c, 0, 55, 86
3, 316440, Note_on_c, 0, 57, 86
3, 316529, Note_on_c, 0, 57, 0
3, 316529, Note_on_c, 0, 55, 0
3, 316620, Note_on_c, 0, 52, 79
3, 316709, Note_on_c, 0, 52, 0
3, 316800, Note_on_c, 0, 33, 75
3, 316800, Note_on_c, 0, 45, 75
3, 316980, Note_on_c, 0, 52, 76
3, 317069, Note_on_c, 0, 52, 0
3, 317160, Note_on_c, 0, 45, 0
3, 317160, Note_on_c, 0, 33, 0
3, 317160, Note_on_c, 0, 55, 86
3, 317160, Note_on_c, 0, 57, 86
3, 317249, Note_on_c, 0, 57, 0
3, 317249, Note_on_c, 0, 55, 0
3, 317340, Note_on_c, 0, 52, 76
3, 317429, Note_on_c, 0, 52, 0
3, 317700, Note_on_c, 0, 52, 75
3, 317789, Note_on_c, 0, 52, 0
3, 317880, Note_on_c, 0, 55, 88
3, 317880, Note_on_c, 0, 57, 88
3, 317969, Note_on_c, 0, 57, 0
3, 317969, Note_on_c, 0, 55, 0
3, 318060, Note_on_c, 0, 52, 80
3, 318149, Note_on_c, 0, 52, 0
3, 318240, Note_on_c, 0, 42, 78
3, 318419, Note_on_c, 0, 42, 0
3, 318420, Note_on_c, 0, 58, 74
3, 318509, Note_on_c, 0, 58, 0
3, 318600, Note_on_c, 0, 52, 77
3, 318689, Note_on_c, 0, 52, 0
3, 318780, Note_on_c, 0, 58, 86
3, 318869, Note_on_c, 0, 58, 0
3, 318960, Note_on_c, 0, 57, 83
3, 318960, Note_on_c, 0, 35, 77
3, 319139, Note_on_c, 0, 35, 0
3, 319140, Note_on_c, 0, 57, 0
3, 319140, Note_on_c, 0, 54, 77
3, 319229, Note_on_c, 0, 54, 0
3, 319320, Note_on_c, 0, 56, 71
3, 319320, Note_on_c, 0, 37, 90
3, 319409, Note_on_c, 0, 56, 0
3, 319499, Note_on_c, 0, 37, 0
3, 319500, Note_on_c, 0, 49, 64
3, 319589, Note_on_c, 0, 49, 0
3, 319680, Note_on_c, 0, 42, 67
3, 319859, Note_on_c, 0, 42, 0
3, 319860, Note_on_c, 0, 49, 54
3, 319949, Note_on_c, 0, 49, 0
3, 320040, Note_on_c, 0, 57, 65
3, 320129, Note_on_c, 0, 57, 0
3, 320220, Note_on_c, 0, 49, 51
3, 320309, Note_on_c, 0, 49, 0
3, 320580, Note_on_c, 0, 54, 53
3, 320669, Note_on_c, 0, 54, 0
3, 320760, Note_on_c, 0, 61, 68
3, 320849, Note_on_c, 0, 61, 0
3, 320940, Note_on_c, 0, 54, 58
3, 321029, Note_on_c, 0, 54, 0
3, 321120, Note_on_c, 0, 37, 40
3, 321299, Note_on_c, 0, 37, 0
3, 321300, Note_on_c, 0, 56, 59
3, 321617, Note_on_c, 0, 56, 0
3, 321660, Note_on_c, 0, 56, 55
3, 321749, Note_on_c, 0, 56, 0
3, 321840, Note_on_c, 0, 37, 44
3, 322019, Note_on_c, 0, 37, 0
3, 322020, Note_on_c, 0, 56, 54
3, 322337, Note_on_c, 0, 56, 0
3, 322380, Note_on_c, 0, 56, 52
3, 322469, Note_on_c, 0, 56, 0
3, 322560, Note_on_c, 0, 37, 43
3, 322739, Note_on_c, 0, 37, 0
3, 322740, Note_on_c, 0, 56, 55
3, 323057, Note_on_c, 0, 56, 0
3, 323100, Note_on_c, 0, 56, 52
3, 323189, Note_on_c, 0, 56, 0
3, 323280, Note_on_c, 0, 42, 50
3, 323459, Note_on_c, 0, 42, 0
3, 323460, Note_on_c, 0, 49, 54
3, 323777, Note_on_c, 0, 49, 0
3, 323820, Note_on_c, 0, 49, 50
3, 323909, Note_on_c, 0, 49, 0
3, 324000, Note_on_c, 0, 42, 44
3, 324179, Note_on_c, 0, 42, 0
3, 324180, Note_on_c, 0, 49, 52
3, 324497, Note_on_c, 0, 49, 0
3, 324540, Note_on_c, 0, 49, 50
3, 324629, Note_on_c, 0, 49, 0
3, 324720, Note_on_c, 0, 45, 45
3, 324899, Note_on_c, 0, 45, 0
3, 324900, Note_on_c, 0, 54, 63
3, 325080, Note_on_c, 0, 44, 45
3, 325217, Note_on_c, 0, 54, 0
3, 325259, Note_on_c, 0, 44, 0
3, 325260, Note_on_c, 0, 56, 51
3, 325349, Note_on_c, 0, 56, 0
3, 325440, Note_on_c, 0, 37, 48
3, 325619, Note_on_c, 0, 37, 0
3, 325620, Note_on_c, 0, 56, 56
3, 325937, Note_on_c, 0, 56, 0
3, 325980, Note_on_c, 0, 56, 46
3, 326069, Note_on_c, 0, 56, 0
3, 326160, Note_on_c, 0, 49, 44
3, 326249, Note_on_c, 0, 49, 0
3, 326340, Note_on_c, 0, 56, 61
3, 326429, Note_on_c, 0, 56, 0
3, 326880, Note_on_c, 0, 54, 44
3, 326880, Note_on_c, 0, 59, 44
3, 326880, Note_on_c, 0, 35, 42
3, 326880, Note_on_c, 0, 47, 42
3, 326969, Note_on_c, 0, 47, 0
3, 326969, Note_on_c, 0, 54, 0
3, 326969, Note_on_c, 0, 59, 0
3, 326969, Note_on_c, 0, 35, 0
3, 327240, Note_on_c, 0, 61, 68
3, 327420, Note_on_c, 0, 61, 0
3, 327420, Note_on_c, 0, 64, 81
3, 327600, Note_on_c, 0, 64, 0
3, 327600, Note_on_c, 0, 54, 74
3, 327600, Note_on_c, 0, 59, 74
3, 327600, Note_on_c, 0, 47, 66
3, 328680, Note_on_c, 0, 47, 0
3, 328680, Note_on_c, 0, 59, 0
3, 328680, Note_on_c, 0, 54, 0
3, 329040, Note_on_c, 0, 64, 47
3, 329040, Note_on_c, 0, 60, 23
3, 329040, Note_on_c, 0, 45, 62
3, 329040, Note_on_c, 0, 55, 62
3, 329400, Note_on_c, 0, 64, 0
3, 329400, Note_on_c, 0, 67, 56
3, 329760, Note_on_c, 0, 67, 0
3, 329760, Note_on_c, 0, 55, 0
3, 329760, Note_on_c, 0, 45, 0
3, 329760, Note_on_c, 0, 60, 0
3, 329760, Note_on_c, 0, 62, 70
3, 329760, Note_on_c, 0, 66, 70
3, 329760, Note_on_c, 0, 47, 60
3, 329760, Note_on_c, 0, 54, 60
3, 329849, Note_on_c, 0, 54, 0
3, 329849, Note_on_c, 0, 47, 0
3, 330077, Note_on_c, 0, 66, 0
3, 330077, Note_on_c, 0, 62, 0
3, 330120, Note_on_c, 0, 61, 71
3, 330120, Note_on_c, 0, 64, 71
3, 330437, Note_on_c, 0, 64, 0
3, 330437, Note_on_c, 0, 61, 0
3, 330480, Note_on_c, 0, 59, 60
3, 330480, Note_on_c, 0, 62, 60
3, 330569, Note_on_c, 0, 62, 0
3, 330569, Note_on_c, 0, 59, 0
3, 330660, Note_on_c, 0, 59, 74
3, 330660, Note_on_c, 0, 62, 74
3, 330977, Note_on_c, 0, 62, 0
3, 330977, Note_on_c, 0, 59, 0
3, 331020, Note_on_c, 0, 61, 65
3, 331020, Note_on_c, 0, 64, 65
3, 331109, Note_on_c, 0, 64, 0
3, 331109, Note_on_c, 0, 61, 0
3, 331200, Note_on_c, 0, 62, 63
3, 331200, Note_on_c, 0, 66, 63
3, 331380, Note_on_c, 0, 66, 0
3, 331380, Note_on_c, 0, 62, 0
3, 331380, Note_on_c, 0, 62, 56
3, 331560, Note_on_c, 0, 62, 0
3, 331560, Note_on_c, 0, 61, 63
3, 331560, Note_on_c, 0, 64, 63
3, 331694, Note_on_c, 0, 64, 0
3, 331694, Note_on_c, 0, 61, 0
3, 331830, Note_on_c, 0, 61, 64
3, 331830, Note_on_c, 0, 64, 64
3, 331874, Note_on_c, 0, 64, 0
3, 331874, Note_on_c, 0, 61, 0
3, 331920, Note_on_c, 0, 61, 64
3, 331920, Note_on_c, 0, 64, 64
3, 332009, Note_on_c, 0, 64, 0
3, 332009, Note_on_c, 0, 61, 0
3, 332100, Note_on_c, 0, 59, 67
3, 332100, Note_on_c, 0, 62, 67
3, 332417, Note_on_c, 0, 62, 0
3, 332417, Note_on_c, 0, 59, 0
3, 332640, Note_on_c, 0, 53, 99
3, 332640, Note_on_c, 0, 58, 99
3, 332640, Note_on_c, 0, 34, 104
3, 332640, Note_on_c, 0, 46, 104
3, 332729, Note_on_c, 0, 46, 0
3, 332729, Note_on_c, 0, 53, 0
3, 332729, Note_on_c, 0, 58, 0
3, 332729, Note_on_c, 0, 34, 0
3, 333000, Note_on_c, 0, 60, 127
3, 333180, Note_on_c, 0, 60, 0
3, 333180, Note_on_c, 0, 63, 127
3, 333360, Note_on_c, 0, 63, 0
3, 333360, Note_on_c, 0, 53, 127
3, 333360, Note_on_c, 0, 58, 127
3, 333360, Note_on_c, 0, 46, 124
3, 334440, Note_on_c, 0, 46, 0
3, 334440, Note_on_c, 0, 58, 0
3, 334440, Note_on_c, 0, 53, 0
3, 334800, Note_on_c, 0, 63, 98
3, 334800, Note_on_c, 0, 59, 21
3, 334800, Note_on_c, 0, 44, 120
3, 334800, Note_on_c, 0, 54, 120
3, 335160, Note_on_c, 0, 63, 0
3, 335160, Note_on_c, 0, 66, 124
3, 335520, Note_on_c, 0, 66, 0
3, 335520, Note_on_c, 0, 54, 0
3, 335520, Note_on_c, 0, 44, 0
3, 335520, Note_on_c, 0, 59, 0
3, 335520, Note_on_c, 0, 61, 74
3, 335520, Note_on_c, 0, 65, 74
3, 335520, Note_on_c, 0, 46, 54
3, 335520, Note_on_c, 0, 53, 54
3, 335609, Note_on_c, 0, 53, 0
3, 335609, Note_on_c, 0, 46, 0
3, 335837, Note_on_c, 0, 65, 0
3, 335837, Note_on_c, 0, 61, 0
3, 335880, Note_on_c, 0, 60, 69
3, 335880, Note_on_c, 0, 63, 69
3, 336197, Note_on_c, 0, 63, 0
3, 336197, Note_on_c, 0, 60, 0
3, 336240, Note_on_c, 0, 58, 59
3, 336240, Note_on_c, 0, 61, 59
3, 336329, Note_on_c, 0, 61, 0
3, 336329, Note_on_c, 0, 58, 0
3, 336420, Note_on_c, 0, 58, 72
3, 336420, Note_on_c, 0, 61, 72
3, 336737, Note_on_c, 0, 61, 0
3, 336737, Note_on_c, 0, 58, 0
3, 336780, Note_on_c, 0, 60, 63
3, 336780, Note_on_c, 0, 63, 63
3, 336869, Note_on_c, 0, 63, 0
3, 336869, Note_on_c, 0, 60, 0
3, 336960, Note_on_c, 0, 61, 68
3, 336960, Note_on_c, 0, 65, 68
3, 337140, Note_on_c, 0, 65, 0
3, 337140, Note_on_c, 0, 61, 0
3, 337140, Note_on_c, 0, 61, 52
3, 337320, Note_on_c, 0, 61, 0
3, 337320, Note_on_c, 0, 60, 64
3, 337320, Note_on_c, 0, 63, 64
3, 337454, Note_on_c, 0, 63, 0
3, 337454, Note_on_c, 0, 60, 0
3, 337590, Note_on_c, 0, 60, 60
3, 337590, Note_on_c, 0, 63, 60
3, 337634, Note_on_c, 0, 63, 0
3, 337634, Note_on_c, 0, 60, 0
3, 337680, Note_on_c, 0, 60, 62
3, 337680, Note_on_c, 0, 63, 62
3, 337769, Note_on_c, 0, 63, 0
3, 337769, Note_on_c, 0, 60, 0
3, 337860, Note_on_c, 0, 58, 70
3, 337860, Note_on_c, 0, 61, 70
3, 338177, Note_on_c, 0, 61, 0
3, 338177, Note_on_c, 0, 58, 0
3, 338400, Note_on_c, 0, 52, 91
3, 338400, Note_on_c, 0, 57, 91
3, 338400, Note_on_c, 0, 33, 77
3, 338400, Note_on_c, 0, 45, 77
3, 338579, Note_on_c, 0, 45, 0
3, 338579, Note_on_c, 0, 52, 0
3, 338579, Note_on_c, 0, 57, 0
3, 338579, Note_on_c, 0, 33, 0
3, 338760, Note_on_c, 0, 52, 93
3, 338760, Note_on_c, 0, 57, 93
3, 338760, Note_on_c, 0, 33, 83
3, 338760, Note_on_c, 0, 45, 83
3, 338939, Note_on_c, 0, 45, 0
3, 338939, Note_on_c, 0, 52, 0
3, 338939, Note_on_c, 0, 57, 0
3, 338939, Note_on_c, 0, 33, 0
3, 339120, Note_on_c, 0, 52, 95
3, 339120, Note_on_c, 0, 56, 95
3, 339120, Note_on_c, 0, 33, 83
3, 339120, Note_on_c, 0, 45, 83
3, 339299, Note_on_c, 0, 45, 0
3, 339299, Note_on_c, 0, 52, 0
3, 339299, Note_on_c, 0, 56, 0
3, 339299, Note_on_c, 0, 33, 0
3, 339480, Note_on_c, 0, 52, 98
3, 339480, Note_on_c, 0, 56, 98
3, 339480, Note_on_c, 0, 33, 82
3, 339480, Note_on_c, 0, 45, 82
3, 339659, Note_on_c, 0, 45, 0
3, 339659, Note_on_c, 0, 52, 0
3, 339659, Note_on_c, 0, 56, 0
3, 339659, Note_on_c, 0, 33, 0
3, 339840, Note_on_c, 0, 52, 98
3, 339840, Note_on_c, 0, 57, 98
3, 339840, Note_on_c, 0, 33, 84
3, 339840, Note_on_c, 0, 45, 84
3, 340019, Note_on_c, 0, 45, 0
3, 340019, Note_on_c, 0, 52, 0
3, 340019, Note_on_c, 0, 57, 0
3, 340019, Note_on_c, 0, 33, 0
3, 340200, Note_on_c, 0, 52, 97
3, 340200, Note_on_c, 0, 57, 97
3, 340200, Note_on_c, 0, 33, 80
3, 340200, Note_on_c, 0, 45, 80
3, 340379, Note_on_c, 0, 45, 0
3, 340379, Note_on_c, 0, 52, 0
3, 340379, Note_on_c, 0, 57, 0
3, 340379, Note_on_c, 0, 33, 0
3, 340560, Note_on_c, 0, 52, 96
3, 340560, Note_on_c, 0, 57, 96
3, 340560, Note_on_c, 0, 33, 81
3, 340560, Note_on_c, 0, 45, 81
3, 340739, Note_on_c, 0, 45, 0
3, 340739, Note_on_c, 0, 52, 0
3, 340739, Note_on_c, 0, 57, 0
3, 340739, Note_on_c, 0, 33, 0
3, 340920, Note_on_c, 0, 52, 96
3, 340920, Note_on_c, 0, 57, 96
3, 340920, Note_on_c, 0, 33, 86
3, 340920, Note_on_c, 0, 45, 86
3, 341099, Note_on_c, 0, 45, 0
3, 341099, Note_on_c, 0, 52, 0
3, 341099, Note_on_c, 0, 57, 0
3, 341099, Note_on_c, 0, 33, 0
3, 341280, Note_on_c, 0, 52, 96
3, 341280, Note_on_c, 0, 57, 96
3, 341280, Note_on_c, 0, 33, 86
3, 341280, Note_on_c, 0, 45, 86
3, 341459, Note_on_c, 0, 45, 0
3, 341459, Note_on_c, 0, 52, 0
3, 341459, Note_on_c, 0, 57, 0
3, 341459, Note_on_c, 0, 33, 0
3, 341640, Note_on_c, 0, 52, 100
3, 341640, Note_on_c, 0, 57, 100
3, 341640, Note_on_c, 0, 33, 85
3, 341640, Note_on_c, 0, 45, 85
3, 341819, Note_on_c, 0, 45, 0
3, 341819, Note_on_c, 0, 52, 0
3, 341819, Note_on_c, 0, 57, 0
3, 341819, Note_on_c, 0, 33, 0
3, 342000, Note_on_c, 0, 52, 93
3, 342000, Note_on_c, 0, 56, 93
3, 342000, Note_on_c, 0, 33, 84
3, 342000, Note_on_c, 0, 45, 84
3, 342179, Note_on_c, 0, 45, 0
3, 342179, Note_on_c, 0, 52, 0
3, 342179, Note_on_c, 0, 56, 0
3, 342179, Note_on_c, 0, 33, 0
3, 342360, Note_on_c, 0, 52, 94
3, 342360, Note_on_c, 0, 56, 94
3, 342360, Note_on_c, 0, 33, 84
3, 342360, Note_on_c, 0, 45, 84
3, 342539, Note_on_c, 0, 45, 0
3, 342539, Note_on_c, 0, 52, 0
3, 342539, Note_on_c, 0, 56, 0
3, 342539, Note_on_c, 0, 33, 0
3, 342720, Note_on_c, 0, 52, 100
3, 342720, Note_on_c, 0, 57, 100
3, 342720, Note_on_c, 0, 33, 82
3, 342720, Note_on_c, 0, 45, 82
3, 342899, Note_on_c, 0, 45, 0
3, 342899, Note_on_c, 0, 52, 0
3, 342899, Note_on_c, 0, 57, 0
3, 342899, Note_on_c, 0, 33, 0
3, 343080, Note_on_c, 0, 52, 99
3, 343080, Note_on_c, 0, 57, 99
3, 343080, Note_on_c, 0, 33, 83
3, 343080, Note_on_c, 0, 45, 83
3, 343259, Note_on_c, 0, 45, 0
3, 343259, Note_on_c, 0, 52, 0
3, 343259, Note_on_c, 0, 57, 0
3, 343259, Note_on_c, 0, 33, 0
3, 343440, Note_on_c, 0, 52, 91
3, 343440, Note_on_c, 0, 57, 91
3, 343440, Note_on_c, 0, 33, 87
3, 343440, Note_on_c, 0, 45, 87
3, 343619, Note_on_c, 0, 45, 0
3, 343619, Note_on_c, 0, 52, 0
3, 343619, Note_on_c, 0, 57, 0
3, 343619, Note_on_c, 0, 33, 0
3, 343800, Note_on_c, 0, 52, 95
3, 343800, Note_on_c, 0, 57, 95
3, 343800, Note_on_c, 0, 33, 84
3, 343800, Note_on_c, 0, 45, 84
3, 343979, Note_on_c, 0, 45, 0
3, 343979, Note_on_c, 0, 52, 0
3, 343979, Note_on_c, 0, 57, 0
3, 343979, Note_on_c, 0, 33, 0
3, 344160, Note_on_c, 0, 52, 95
3, 344160, Note_on_c, 0, 59, 95
3, 344160, Note_on_c, 0, 40, 87
3, 344160, Note_on_c, 0, 47, 87
3, 344339, Note_on_c, 0, 47, 0
3, 344339, Note_on_c, 0, 52, 0
3, 344339, Note_on_c, 0, 59, 0
3, 344339, Note_on_c, 0, 40, 0
3, 344520, Note_on_c, 0, 52, 99
3, 344520, Note_on_c, 0, 59, 99
3, 344520, Note_on_c, 0, 40, 83
3, 344520, Note_on_c, 0, 47, 83
3, 344699, Note_on_c, 0, 47, 0
3, 344699, Note_on_c, 0, 52, 0
3, 344699, Note_on_c, 0, 59, 0
3, 344699, Note_on_c, 0, 40, 0
3, 344880, Note_on_c, 0, 57, 99
3, 344880, Note_on_c, 0, 59, 99
3, 344880, Note_on_c, 0, 40, 80
3, 344880, Note_on_c, 0, 47, 80
3, 345059, Note_on_c, 0, 47, 0
3, 345059, Note_on_c, 0, 57, 0
3, 345059, Note_on_c, 0, 59, 0
3, 345059, Note_on_c, 0, 40, 0
3, 345240, Note_on_c, 0, 57, 97
3, 345240, Note_on_c, 0, 59, 97
3, 345240, Note_on_c, 0, 40, 79
3, 345240, Note_on_c, 0, 47, 79
3, 345419, Note_on_c, 0, 47, 0
3, 345419, Note_on_c, 0, 57, 0
3, 345419, Note_on_c, 0, 59, 0
3, 345419, Note_on_c, 0, 40, 0
3, 345600, Note_on_c, 0, 56, 102
3, 345600, Note_on_c, 0, 59, 102
3, 345600, Note_on_c, 0, 40, 82
3, 345600, Note_on_c, 0, 47, 82
3, 345779, Note_on_c, 0, 47, 0
3, 345779, Note_on_c, 0, 56, 0
3, 345779, Note_on_c, 0, 59, 0
3, 345779, Note_on_c, 0, 40, 0
3, 345960, Note_on_c, 0, 56, 95
3, 345960, Note_on_c, 0, 59, 95
3, 345960, Note_on_c, 0, 40, 82
3, 345960, Note_on_c, 0, 47, 82
3, 346139, Note_on_c, 0, 47, 0
3, 346139, Note_on_c, 0, 56, 0
3, 346139, Note_on_c, 0, 59, 0
3, 346139, Note_on_c, 0, 40, 0
3, 346320, Note_on_c, 0, 56, 95
3, 346320, Note_on_c, 0, 59, 95
3, 346320, Note_on_c, 0, 40, 85
3, 346320, Note_on_c, 0, 47, 85
3, 346499, Note_on_c, 0, 47, 0
3, 346499, Note_on_c, 0, 56, 0
3, 346499, Note_on_c, 0, 59, 0
3, 346499, Note_on_c, 0, 40, 0
3, 346680, Note_on_c, 0, 56, 100
3, 346680, Note_on_c, 0, 59, 100
3, 346680, Note_on_c, 0, 40, 83
3, 346680, Note_on_c, 0, 47, 83
3, 346859, Note_on_c, 0, 47, 0
3, 346859, Note_on_c, 0, 56, 0
3, 346859, Note_on_c, 0, 59, 0
3, 346859, Note_on_c, 0, 40, 0
3, 347040, Note_on_c, 0, 59, 112
3, 347040, Note_on_c, 0, 64, 112
3, 347040, Note_on_c, 0, 40, 93
3, 347040, Note_on_c, 0, 52, 93
3, 347219, Note_on_c, 0, 52, 0
3, 347219, Note_on_c, 0, 59, 0
3, 347219, Note_on_c, 0, 64, 0
3, 347219, Note_on_c, 0, 40, 0
3, 347400, Note_on_c, 0, 59, 96
3, 347400, Note_on_c, 0, 64, 96
3, 347400, Note_on_c, 0, 40, 83
3, 347400, Note_on_c, 0, 52, 83
3, 347579, Note_on_c, 0, 52, 0
3, 347579, Note_on_c, 0, 59, 0
3, 347579, Note_on_c, 0, 64, 0
3, 347579, Note_on_c, 0, 40, 0
3, 347760, Note_on_c, 0, 59, 88
3, 347760, Note_on_c, 0, 63, 88
3, 347760, Note_on_c, 0, 40, 82
3, 347760, Note_on_c, 0, 52, 82
3, 347939, Note_on_c, 0, 52, 0
3, 347939, Note_on_c, 0, 59, 0
3, 347939, Note_on_c, 0, 63, 0
3, 347939, Note_on_c, 0, 40, 0
3, 348120, Note_on_c, 0, 59, 96
3, 348120, Note_on_c, 0, 63, 96
3, 348120, Note_on_c, 0, 40, 86
3, 348120, Note_on_c, 0, 52, 86
3, 348299, Note_on_c, 0, 52, 0
3, 348299, Note_on_c, 0, 59, 0
3, 348299, Note_on_c, 0, 63, 0
3, 348299, Note_on_c, 0, 40, 0
3, 348480, Note_on_c, 0, 59, 104
3, 348480, Note_on_c, 0, 64, 104
3, 348480, Note_on_c, 0, 40, 87
3, 348480, Note_on_c, 0, 52, 87
3, 348659, Note_on_c, 0, 52, 0
3, 348659, Note_on_c, 0, 59, 0
3, 348659, Note_on_c, 0, 64, 0
3, 348659, Note_on_c, 0, 40, 0
3, 348840, Note_on_c, 0, 59, 100
3, 348840, Note_on_c, 0, 64, 100
3, 348840, Note_on_c, 0, 40, 79
3, 348840, Note_on_c, 0, 52, 79
3, 349019, Note_on_c, 0, 52, 0
3, 349019, Note_on_c, 0, 59, 0
3, 349019, Note_on_c, 0, 64, 0
3, 349019, Note_on_c, 0, 40, 0
3, 349200, Note_on_c, 0, 59, 95
3, 349200, Note_on_c, 0, 64, 95
3, 349200, Note_on_c, 0, 40, 84
3, 349200, Note_on_c, 0, 52, 84
3, 349379, Note_on_c, 0, 52, 0
3, 349379, Note_on_c, 0, 59, 0
3, 349379, Note_on_c, 0, 64, 0
3, 349379, Note_on_c, 0, 40, 0
3, 349920, Note_on_c, 0, 69, 110
3, 349920, Note_on_c, 0, 33, 86
3, 349920, Note_on_c, 0, 45, 86
3, 350100, Note_on_c, 0, 64, 61
3, 350189, Note_on_c, 0, 64, 0
3, 350280, Note_on_c, 0, 57, 69
3, 350369, Note_on_c, 0, 57, 0
3, 350460, Note_on_c, 0, 64, 84
3, 350549, Note_on_c, 0, 64, 0
3, 350640, Note_on_c, 0, 69, 0
3, 350640, Note_on_c, 0, 67, 113
3, 350820, Note_on_c, 0, 64, 59
3, 350909, Note_on_c, 0, 64, 0
3, 351000, Note_on_c, 0, 57, 62
3, 351089, Note_on_c, 0, 57, 0
3, 351180, Note_on_c, 0, 64, 82
3, 351269, Note_on_c, 0, 64, 0
3, 351540, Note_on_c, 0, 64, 62
3, 351629, Note_on_c, 0, 64, 0
3, 351720, Note_on_c, 0, 57, 60
3, 351809, Note_on_c, 0, 57, 0
3, 351900, Note_on_c, 0, 64, 81
3, 351989, Note_on_c, 0, 64, 0
3, 352260, Note_on_c, 0, 64, 67
3, 352349, Note_on_c, 0, 64, 0
3, 352440, Note_on_c, 0, 57, 69
3, 352529, Note_on_c, 0, 57, 0
3, 352620, Note_on_c, 0, 64, 85
3, 352709, Note_on_c, 0, 64, 0
3, 352800, Note_on_c, 0, 33, 0
3, 352800, Note_on_c, 0, 45, 0
3, 352800, Note_on_c, 0, 67, 0
3, 352800, Note_on_c, 0, 67, 121
3, 352800, Note_on_c, 0, 42, 95
3, 352980, Note_on_c, 0, 64, 62
3, 353069, Note_on_c, 0, 64, 0
3, 353160, Note_on_c, 0, 58, 63
3, 353249, Note_on_c, 0, 58, 0
3, 353340, Note_on_c, 0, 64, 78
3, 353429, Note_on_c, 0, 64, 0
3, 353520, Note_on_c, 0, 42, 0
3, 353520, Note_on_c, 0, 67, 0
3, 353520, Note_on_c, 0, 66, 120
3, 353520, Note_on_c, 0, 57, 68
3, 353520, Note_on_c, 0, 47, 104
3, 353700, Note_on_c, 0, 57, 0
3, 353700, Note_on_c, 0, 62, 80
3, 353789, Note_on_c, 0, 62, 0
3, 353880, Note_on_c, 0, 47, 0
3, 353880, Note_on_c, 0, 66, 0
3, 353880, Note_on_c, 0, 65, 118
3, 353880, Note_on_c, 0, 56, 63
3, 353880, Note_on_c, 0, 49, 100
3, 353969, Note_on_c, 0, 56, 0
3, 354060, Note_on_c, 0, 61, 81
3, 354149, Note_on_c, 0, 61, 0
3, 354240, Note_on_c, 0, 49, 0
3, 354240, Note_on_c, 0, 65, 0
3, 354240, Note_on_c, 0, 66, 126
3, 354240, Note_on_c, 0, 42, 89
3, 354420, Note_on_c, 0, 61, 61
3, 354509, Note_on_c, 0, 61, 0
3, 354600, Note_on_c, 0, 54, 65
3, 354689, Note_on_c, 0, 54, 0
3, 354780, Note_on_c, 0, 61, 84
3, 354869, Note_on_c, 0, 61, 0
3, 355140, Note_on_c, 0, 66, 0
3, 355140, Note_on_c, 0, 66, 63
3, 355229, Note_on_c, 0, 66, 0
3, 355320, Note_on_c, 0, 61, 59
3, 355409, Note_on_c, 0, 61, 0
3, 355500, Note_on_c, 0, 54, 64
3, 355589, Note_on_c, 0, 54, 0
3, 355680, Note_on_c, 0, 42, 0
3, 355680, Note_on_c, 0, 61, 85
3, 355680, Note_on_c, 0, 37, 84
3, 355859, Note_on_c, 0, 37, 0
3, 355860, Note_on_c, 0, 56, 72
3, 356177, Note_on_c, 0, 56, 0
3, 356220, Note_on_c, 0, 56, 73
3, 356309, Note_on_c, 0, 56, 0
3, 356313, Note_on_c, 0, 61, 0
3, 356400, Note_on_c, 0, 60, 84
3, 356400, Note_on_c, 0, 37, 85
3, 356579, Note_on_c, 0, 37, 0
3, 356580, Note_on_c, 0, 56, 73
3, 356897, Note_on_c, 0, 56, 0
3, 356940, Note_on_c, 0, 56, 69
3, 357029, Note_on_c, 0, 56, 0
3, 357033, Note_on_c, 0, 60, 0
3, 357120, Note_on_c, 0, 59, 95
3, 357120, Note_on_c, 0, 37, 86
3, 357299, Note_on_c, 0, 37, 0
3, 357300, Note_on_c, 0, 56, 73
3, 357617, Note_on_c, 0, 56, 0
3, 357660, Note_on_c, 0, 56, 67
3, 357749, Note_on_c, 0, 56, 0
3, 357753, Note_on_c, 0, 59, 0
3, 357840, Note_on_c, 0, 58, 93
3, 357840, Note_on_c, 0, 42, 87
3, 358020, Note_on_c, 0, 49, 71
3, 358200, Note_on_c, 0, 42, 0
3, 358337, Note_on_c, 0, 49, 0
3, 358380, Note_on_c, 0, 49, 69
3, 358469, Note_on_c, 0, 49, 0
3, 358473, Note_on_c, 0, 58, 0
3, 358560, Note_on_c, 0, 57, 83
3, 358560, Note_on_c, 0, 42, 88
3, 358740, Note_on_c, 0, 49, 77
3, 358920, Note_on_c, 0, 42, 0
3, 359057, Note_on_c, 0, 49, 0
3, 359100, Note_on_c, 0, 49, 90
3, 359189, Note_on_c, 0, 49, 0
3, 359193, Note_on_c, 0, 57, 0
3, 359280, Note_on_c, 0, 61, 109
3, 359280, Note_on_c, 0, 45, 93
3, 359460, Note_on_c, 0, 54, 90
3, 359640, Note_on_c, 0, 45, 0
3, 359640, Note_on_c, 0, 61, 0
3, 359640, Note_on_c, 0, 60, 96
3, 359640, Note_on_c, 0, 44, 94
3, 359777, Note_on_c, 0, 54, 0
3, 359820, Note_on_c, 0, 56, 77
3, 359909, Note_on_c, 0, 56, 0
3, 360000, Note_on_c, 0, 44, 0
3, 360000, Note_on_c, 0, 60, 0
3, 360000, Note_on_c, 0, 61, 88
3, 360000, Note_on_c, 0, 37, 86
3, 360180, Note_on_c, 0, 56, 75
3, 360360, Note_on_c, 0, 37, 0
3, 360497, Note_on_c, 0, 56, 0
3, 360540, Note_on_c, 0, 56, 69
3, 360629, Note_on_c, 0, 56, 0
3, 360720, Note_on_c, 0, 61, 0
3, 360720, Note_on_c, 0, 61, 84
3, 360809, Note_on_c, 0, 61, 0
3, 360900, Note_on_c, 0, 56, 75
3, 360989, Note_on_c, 0, 56, 0
3, 361080, Note_on_c, 0, 61, 126
3, 361260, Note_on_c, 0, 61, 0
3, 361260, Note_on_c, 0, 64, 126
3, 361440, Note_on_c, 0, 64, 0
3, 361440, Note_on_c, 0, 54, 121
3, 361440, Note_on_c, 0, 59, 121
3, 361440, Note_on_c, 0, 66, 121
3, 361440, Note_on_c, 0, 35, 87
3, 361440, Note_on_c, 0, 47, 87
3, 362880, Note_on_c, 0, 47, 0
3, 362880, Note_on_c, 0, 66, 0
3, 362880, Note_on_c, 0, 54, 0
3, 362880, Note_on_c, 0, 59, 0
3, 362880, Note_on_c, 0, 35, 0
3, 362880, Note_on_c, 0, 54, 113
3, 362880, Note_on_c, 0, 59, 113
3, 362880, Note_on_c, 0, 66, 113
3, 362880, Note_on_c, 0, 35, 92
3, 362880, Note_on_c, 0, 47, 92
3, 363240, Note_on_c, 0, 47, 0
3, 363240, Note_on_c, 0, 66, 0
3, 363240, Note_on_c, 0, 54, 0
3, 363240, Note_on_c, 0, 59, 0
3, 363240, Note_on_c, 0, 35, 0
3, 363600, Note_on_c, 0, 52, 116
3, 363600, Note_on_c, 0, 55, 116
3, 363600, Note_on_c, 0, 60, 116
3, 363600, Note_on_c, 0, 64, 116
3, 363600, Note_on_c, 0, 33, 110
3, 363600, Note_on_c, 0, 45, 110
3, 364320, Note_on_c, 0, 45, 0
3, 364320, Note_on_c, 0, 55, 0
3, 364320, Note_on_c, 0, 60, 0
3, 364320, Note_on_c, 0, 52, 0
3, 364320, Note_on_c, 0, 33, 0
3, 364320, Note_on_c, 0, 64, 0
3, 364320, Note_on_c, 0, 54, 127
3, 364320, Note_on_c, 0, 59, 127
3, 364320, Note_on_c, 0, 62, 127
3, 364320, Note_on_c, 0, 66, 127
3, 364320, Note_on_c, 0, 35, 109
3, 364320, Note_on_c, 0, 47, 109
3, 364637, Note_on_c, 0, 47, 0
3, 364637, Note_on_c, 0, 59, 0
3, 364637, Note_on_c, 0, 62, 0
3, 364637, Note_on_c, 0, 54, 0
3, 364637, Note_on_c, 0, 35, 0
3, 364637, Note_on_c, 0, 66, 0
3, 364680, Note_on_c, 0, 54, 123
3, 364680, Note_on_c, 0, 61, 123
3, 364680, Note_on_c, 0, 64, 123
3, 364680, Note_on_c, 0, 66, 123
3, 364680, Note_on_c, 0, 35, 111
3, 364680, Note_on_c, 0, 47, 111
3, 364997, Note_on_c, 0, 47, 0
3, 364997, Note_on_c, 0, 61, 0
3, 364997, Note_on_c, 0, 64, 0
3, 364997, Note_on_c, 0, 54, 0
3, 364997, Note_on_c, 0, 35, 0
3, 364997, Note_on_c, 0, 66, 0
3, 365040, Note_on_c, 0, 54, 112
3, 365040, Note_on_c, 0, 59, 112
3, 365040, Note_on_c, 0, 62, 112
3, 365040, Note_on_c, 0, 66, 112
3, 365040, Note_on_c, 0, 35, 99
3, 365040, Note_on_c, 0, 47, 99
3, 365129, Note_on_c, 0, 47, 0
3, 365129, Note_on_c, 0, 59, 0
3, 365129, Note_on_c, 0, 62, 0
3, 365129, Note_on_c, 0, 54, 0
3, 365129, Note_on_c, 0, 35, 0
3, 365129, Note_on_c, 0, 66, 0
3, 365220, Note_on_c, 0, 54, 124
3, 365220, Note_on_c, 0, 59, 124
3, 365220, Note_on_c, 0, 62, 124
3, 365220, Note_on_c, 0, 66, 124
3, 365220, Note_on_c, 0, 35, 108
3, 365220, Note_on_c, 0, 47, 108
3, 365537, Note_on_c, 0, 47, 0
3, 365537, Note_on_c, 0, 59, 0
3, 365537, Note_on_c, 0, 62, 0
3, 365537, Note_on_c, 0, 54, 0
3, 365537, Note_on_c, 0, 35, 0
3, 365537, Note_on_c, 0, 66, 0
3, 365580, Note_on_c, 0, 54, 125
3, 365580, Note_on_c, 0, 61, 125
3, 365580, Note_on_c, 0, 64, 125
3, 365580, Note_on_c, 0, 66, 125
3, 365580, Note_on_c, 0, 35, 106
3, 365580, Note_on_c, 0, 47, 106
3, 365738, Note_on_c, 0, 47, 0
3, 365738, Note_on_c, 0, 61, 0
3, 365738, Note_on_c, 0, 64, 0
3, 365738, Note_on_c, 0, 54, 0
3, 365738, Note_on_c, 0, 35, 0
3, 365738, Note_on_c, 0, 66, 0
3, 365760, Note_on_c, 0, 54, 124
3, 365760, Note_on_c, 0, 59, 124
3, 365760, Note_on_c, 0, 62, 124
3, 365760, Note_on_c, 0, 66, 124
3, 365760, Note_on_c, 0, 35, 110
3, 365760, Note_on_c, 0, 47, 110
3, 366077, Note_on_c, 0, 47, 0
3, 366077, Note_on_c, 0, 59, 0
3, 366077, Note_on_c, 0, 62, 0
3, 366077, Note_on_c, 0, 54, 0
3, 366077, Note_on_c, 0, 35, 0
3, 366077, Note_on_c, 0, 66, 0
3, 366120, Note_on_c, 0, 54, 120
3, 366120, Note_on_c, 0, 61, 120
3, 366120, Note_on_c, 0, 64, 120
3, 366120, Note_on_c, 0, 66, 120
3, 366120, Note_on_c, 0, 35, 108
3, 366120, Note_on_c, 0, 47, 108
3, 366437, Note_on_c, 0, 47, 0
3, 366437, Note_on_c, 0, 61, 0
3, 366437, Note_on_c, 0, 64, 0
3, 366437, Note_on_c, 0, 54, 0
3, 366437, Note_on_c, 0, 35, 0
3, 366437, Note_on_c, 0, 66, 0
3, 366480, Note_on_c, 0, 54, 109
3, 366480, Note_on_c, 0, 61, 109
3, 366480, Note_on_c, 0, 64, 109
3, 366480, Note_on_c, 0, 66, 109
3, 366480, Note_on_c, 0, 35, 97
3, 366480, Note_on_c, 0, 47, 97
3, 366569, Note_on_c, 0, 47, 0
3, 366569, Note_on_c, 0, 61, 0
3, 366569, Note_on_c, 0, 64, 0
3, 366569, Note_on_c, 0, 54, 0
3, 366569, Note_on_c, 0, 35, 0
3, 366569, Note_on_c, 0, 66, 0
3, 366660, Note_on_c, 0, 54, 124
3, 366660, Note_on_c, 0, 59, 124
3, 366660, Note_on_c, 0, 62, 124
3, 366660, Note_on_c, 0, 66, 124
3, 366660, Note_on_c, 0, 35, 110
3, 366660, Note_on_c, 0, 47, 110
3, 366977, Note_on_c, 0, 47, 0
3, 366977, Note_on_c, 0, 59, 0
3, 366977, Note_on_c, 0, 62, 0
3, 366977, Note_on_c, 0, 54, 0
3, 366977, Note_on_c, 0, 35, 0
3, 366977, Note_on_c, 0, 66, 0
3, 367200, Note_on_c, 0, 53, 101
3, 367200, Note_on_c, 0, 58, 101
3, 367200, Note_on_c, 0, 65, 101
3, 367200, Note_on_c, 0, 34, 100
3, 367200, Note_on_c, 0, 46, 100
3, 368640, Note_on_c, 0, 46, 0
3, 368640, Note_on_c, 0, 65, 0
3, 368640, Note_on_c, 0, 53, 0
3, 368640, Note_on_c, 0, 58, 0
3, 368640, Note_on_c, 0, 34, 0
3, 368640, Note_on_c, 0, 53, 112
3, 368640, Note_on_c, 0, 58, 112
3, 368640, Note_on_c, 0, 65, 112
3, 368640, Note_on_c, 0, 34, 108
3, 368640, Note_on_c, 0, 46, 108
3, 369000, Note_on_c, 0, 46, 0
3, 369000, Note_on_c, 0, 65, 0
3, 369000, Note_on_c, 0, 53, 0
3, 369000, Note_on_c, 0, 58, 0
3, 369000, Note_on_c, 0, 34, 0
3, 369360, Note_on_c, 0, 51, 122
3, 369360, Note_on_c, 0, 54, 122
3, 369360, Note_on_c, 0, 60, 122
3, 369360, Note_on_c, 0, 63, 122
3, 369360, Note_on_c, 0, 32, 117
3, 369360, Note_on_c, 0, 44, 117
3, 370080, Note_on_c, 0, 44, 0
3, 370080, Note_on_c, 0, 54, 0
3, 370080, Note_on_c, 0, 60, 0
3, 370080, Note_on_c, 0, 51, 0
3, 370080, Note_on_c, 0, 32, 0
3, 370080, Note_on_c, 0, 63, 0
3, 370080, Note_on_c, 0, 53, 127
3, 370080, Note_on_c, 0, 58, 127
3, 370080, Note_on_c, 0, 61, 127
3, 370080, Note_on_c, 0, 65, 127
3, 370080, Note_on_c, 0, 34, 125
3, 370080, Note_on_c, 0, 46, 125
3, 370397, Note_on_c, 0, 46, 0
3, 370397, Note_on_c, 0, 58, 0
3, 370397, Note_on_c, 0, 61, 0
3, 370397, Note_on_c, 0, 53, 0
3, 370397, Note_on_c, 0, 34, 0
3, 370397, Note_on_c, 0, 65, 0
3, 370440, Note_on_c, 0, 53, 125
3, 370440, Note_on_c, 0, 60, 125
3, 370440, Note_on_c, 0, 63, 125
3, 370440, Note_on_c, 0, 65, 125
3, 370440, Note_on_c, 0, 34, 123
3, 370440, Note_on_c, 0, 46, 123
3, 370757, Note_on_c, 0, 46, 0
3, 370757, Note_on_c, 0, 60, 0
3, 370757, Note_on_c, 0, 63, 0
3, 370757, Note_on_c, 0, 53, 0
3, 370757, Note_on_c, 0, 34, 0
3, 370757, Note_on_c, 0, 65, 0
3, 370800, Note_on_c, 0, 53, 112
3, 370800, Note_on_c, 0, 58, 112
3, 370800, Note_on_c, 0, 61, 112
3, 370800, Note_on_c, 0, 65, 112
3, 370800, Note_on_c, 0, 34, 109
3, 370800, Note_on_c, 0, 46, 109
3, 370889, Note_on_c, 0, 46, 0
3, 370889, Note_on_c, 0, 58, 0
3, 370889, Note_on_c, 0, 61, 0
3, 370889, Note_on_c, 0, 53, 0
3, 370889, Note_on_c, 0, 34, 0
3, 370889, Note_on_c, 0, 65, 0
3, 370980, Note_on_c, 0, 53, 127
3, 370980, Note_on_c, 0, 58, 127
3, 370980, Note_on_c, 0, 61, 127
3, 370980, Note_on_c, 0, 65, 127
3, 370980, Note_on_c, 0, 34, 122
3, 370980, Note_on_c, 0, 46, 122
3, 371297, Note_on_c, 0, 46, 0
3, 371297, Note_on_c, 0, 58, 0
3, 371297, Note_on_c, 0, 61, 0
3, 371297, Note_on_c, 0, 53, 0
3, 371297, Note_on_c, 0, 34, 0
3, 371297, Note_on_c, 0, 65, 0
3, 371340, Note_on_c, 0, 53, 122
3, 371340, Note_on_c, 0, 60, 122
3, 371340, Note_on_c, 0, 63, 122
3, 371340, Note_on_c, 0, 65, 122
3, 371340, Note_on_c, 0, 34, 126
3, 371340, Note_on_c, 0, 46, 126
3, 371498, Note_on_c, 0, 46, 0
3, 371498, Note_on_c, 0, 60, 0
3, 371498, Note_on_c, 0, 63, 0
3, 371498, Note_on_c, 0, 53, 0
3, 371498, Note_on_c, 0, 34, 0
3, 371498, Note_on_c, 0, 65, 0
3, 371520, Note_on_c, 0, 53, 124
3, 371520, Note_on_c, 0, 58, 124
3, 371520, Note_on_c, 0, 61, 124
3, 371520, Note_on_c, 0, 65, 124
3, 371520, Note_on_c, 0, 34, 126
3, 371520, Note_on_c, 0, 46, 126
3, 371837, Note_on_c, 0, 46, 0
3, 371837, Note_on_c, 0, 58, 0
3, 371837, Note_on_c, 0, 61, 0
3, 371837, Note_on_c, 0, 53, 0
3, 371837, Note_on_c, 0, 34, 0
3, 371837, Note_on_c, 0, 65, 0
3, 371880, Note_on_c, 0, 53, 125
3, 371880, Note_on_c, 0, 60, 125
3, 371880, Note_on_c, 0, 63, 125
3, 371880, Note_on_c, 0, 65, 125
3, 371880, Note_on_c, 0, 34, 127
3, 371880, Note_on_c, 0, 46, 127
3, 372197, Note_on_c, 0, 46, 0
3, 372197, Note_on_c, 0, 60, 0
3, 372197, Note_on_c, 0, 63, 0
3, 372197, Note_on_c, 0, 53, 0
3, 372197, Note_on_c, 0, 34, 0
3, 372197, Note_on_c, 0, 65, 0
3, 372240, Note_on_c, 0, 53, 110
3, 372240, Note_on_c, 0, 60, 110
3, 372240, Note_on_c, 0, 63, 110
3, 372240, Note_on_c, 0, 65, 110
3, 372240, Note_on_c, 0, 34, 114
3, 372240, Note_on_c, 0, 46, 114
3, 372329, Note_on_c, 0, 46, 0
3, 372329, Note_on_c, 0, 60, 0
3, 372329, Note_on_c, 0, 63, 0
3, 372329, Note_on_c, 0, 53, 0
3, 372329, Note_on_c, 0, 34, 0
3, 372329, Note_on_c, 0, 65, 0
3, 372420, Note_on_c, 0, 53, 121
3, 372420, Note_on_c, 0, 58, 121
3, 372420, Note_on_c, 0, 61, 121
3, 372420, Note_on_c, 0, 65, 121
3, 372420, Note_on_c, 0, 34, 120
3, 372420, Note_on_c, 0, 46, 120
3, 372737, Note_on_c, 0, 46, 0
3, 372737, Note_on_c, 0, 58, 0
3, 372737, Note_on_c, 0, 61, 0
3, 372737, Note_on_c, 0, 53, 0
3, 372737, Note_on_c, 0, 34, 0
3, 372737, Note_on_c, 0, 65, 0
3, 372960, Note_on_c, 0, 52, 85
3, 372960, Note_on_c, 0, 57, 85
3, 372960, Note_on_c, 0, 61, 85
3, 372960, Note_on_c, 0, 64, 85
3, 372960, Note_on_c, 0, 33, 93
3, 372960, Note_on_c, 0, 45, 93
3, 373049, Note_on_c, 0, 45, 0
3, 373049, Note_on_c, 0, 57, 0
3, 373049, Note_on_c, 0, 61, 0
3, 373049, Note_on_c, 0, 52, 0
3, 373049, Note_on_c, 0, 33, 0
3, 373049, Note_on_c, 0, 64, 0
3, 373140, Note_on_c, 0, 52, 101
3, 373140, Note_on_c, 0, 57, 101
3, 373140, Note_on_c, 0, 33, 108
3, 373140, Note_on_c, 0, 45, 108
3, 373457, Note_on_c, 0, 45, 0
3, 373457, Note_on_c, 0, 52, 0
3, 373457, Note_on_c, 0, 57, 0
3, 373457, Note_on_c, 0, 33, 0
3, 373500, Note_on_c, 0, 52, 95
3, 373500, Note_on_c, 0, 57, 95
3, 373500, Note_on_c, 0, 33, 95
3, 373500, Note_on_c, 0, 45, 95
3, 373589, Note_on_c, 0, 45, 0
3, 373589, Note_on_c, 0, 52, 0
3, 373589, Note_on_c, 0, 57, 0
3, 373589, Note_on_c, 0, 33, 0
3, 373680, Note_on_c, 0, 52, 115
3, 373680, Note_on_c, 0, 56, 115
3, 373680, Note_on_c, 0, 62, 115
3, 373680, Note_on_c, 0, 64, 115
3, 373680, Note_on_c, 0, 33, 108
3, 373680, Note_on_c, 0, 45, 108
3, 373769, Note_on_c, 0, 64, 0
3, 373769, Note_on_c, 0, 62, 0
3, 373769, Note_on_c, 0, 52, 0
3, 373769, Note_on_c, 0, 56, 0
3, 373860, Note_on_c, 0, 52, 103
3, 373860, Note_on_c, 0, 62, 103
3, 373860, Note_on_c, 0, 64, 103
3, 373904, Note_on_c, 0, 64, 0
3, 373904, Note_on_c, 0, 52, 0
3, 373904, Note_on_c, 0, 62, 0
3, 373950, Note_on_c, 0, 52, 99
3, 373950, Note_on_c, 0, 62, 99
3, 373950, Note_on_c, 0, 64, 99
3, 373994, Note_on_c, 0, 64, 0
3, 373994, Note_on_c, 0, 52, 0
3, 373994, Note_on_c, 0, 62, 0
3, 374040, Note_on_c, 0, 52, 101
3, 374040, Note_on_c, 0, 62, 101
3, 374040, Note_on_c, 0, 64, 101
3, 374129, Note_on_c, 0, 64, 0
3, 374129, Note_on_c, 0, 52, 0
3, 374129, Note_on_c, 0, 62, 0
3, 374220, Note_on_c, 0, 52, 98
3, 374220, Note_on_c, 0, 62, 98
3, 374220, Note_on_c, 0, 64, 98
3, 374309, Note_on_c, 0, 64, 0
3, 374309, Note_on_c, 0, 52, 0
3, 374309, Note_on_c, 0, 62, 0
3, 374313, Note_on_c, 0, 45, 0
3, 374313, Note_on_c, 0, 33, 0
3, 374400, Note_on_c, 0, 52, 96
3, 374400, Note_on_c, 0, 57, 96
3, 374400, Note_on_c, 0, 61, 96
3, 374400, Note_on_c, 0, 64, 96
3, 374400, Note_on_c, 0, 33, 102
3, 374400, Note_on_c, 0, 45, 102
3, 374489, Note_on_c, 0, 45, 0
3, 374489, Note_on_c, 0, 57, 0
3, 374489, Note_on_c, 0, 61, 0
3, 374489, Note_on_c, 0, 52, 0
3, 374489, Note_on_c, 0, 33, 0
3, 374489, Note_on_c, 0, 64, 0
3, 374580, Note_on_c, 0, 52, 98
3, 374580, Note_on_c, 0, 57, 98
3, 374580, Note_on_c, 0, 33, 107
3, 374580, Note_on_c, 0, 45, 107
3, 374897, Note_on_c, 0, 45, 0
3, 374897, Note_on_c, 0, 52, 0
3, 374897, Note_on_c, 0, 57, 0
3, 374897, Note_on_c, 0, 33, 0
3, 374940, Note_on_c, 0, 52, 93
3, 374940, Note_on_c, 0, 57, 93
3, 374940, Note_on_c, 0, 33, 94
3, 374940, Note_on_c, 0, 45, 94
3, 375029, Note_on_c, 0, 45, 0
3, 375029, Note_on_c, 0, 52, 0
3, 375029, Note_on_c, 0, 57, 0
3, 375029, Note_on_c, 0, 33, 0
3, 375120, Note_on_c, 0, 52, 114
3, 375120, Note_on_c, 0, 57, 114
3, 375120, Note_on_c, 0, 61, 114
3, 375120, Note_on_c, 0, 64, 114
3, 375120, Note_on_c, 0, 33, 111
3, 375120, Note_on_c, 0, 45, 111
3, 375209, Note_on_c, 0, 64, 0
3, 375209, Note_on_c, 0, 61, 0
3, 375209, Note_on_c, 0, 52, 0
3, 375209, Note_on_c, 0, 57, 0
3, 375300, Note_on_c, 0, 52, 101
3, 375300, Note_on_c, 0, 61, 101
3, 375300, Note_on_c, 0, 64, 101
3, 375344, Note_on_c, 0, 64, 0
3, 375344, Note_on_c, 0, 52, 0
3, 375344, Note_on_c, 0, 61, 0
3, 375390, Note_on_c, 0, 52, 103
3, 375390, Note_on_c, 0, 61, 103
3, 375390, Note_on_c, 0, 64, 103
3, 375434, Note_on_c, 0, 64, 0
3, 375434, Note_on_c, 0, 52, 0
3, 375434, Note_on_c, 0, 61, 0
3, 375480, Note_on_c, 0, 52, 99
3, 375480, Note_on_c, 0, 61, 99
3, 375480, Note_on_c, 0, 64, 99
3, 375569, Note_on_c, 0, 64, 0
3, 375569, Note_on_c, 0, 52, 0
3, 375569, Note_on_c, 0, 61, 0
3, 375660, Note_on_c, 0, 52, 97
3, 375660, Note_on_c, 0, 61, 97
3, 375660, Note_on_c, 0, 64, 97
3, 375749, Note_on_c, 0, 64, 0
3, 375749, Note_on_c, 0, 52, 0
3, 375749, Note_on_c, 0, 61, 0
3, 375753, Note_on_c, 0, 45, 0
3, 375753, Note_on_c, 0, 33, 0
3, 375840, Note_on_c, 0, 52, 97
3, 375840, Note_on_c, 0, 57, 97
3, 375840, Note_on_c, 0, 61, 97
3, 375840, Note_on_c, 0, 64, 97
3, 375840, Note_on_c, 0, 33, 96
3, 375840, Note_on_c, 0, 45, 96
3, 375929, Note_on_c, 0, 45, 0
3, 375929, Note_on_c, 0, 57, 0
3, 375929, Note_on_c, 0, 61, 0
3, 375929, Note_on_c, 0, 52, 0
3, 375929, Note_on_c, 0, 33, 0
3, 375929, Note_on_c, 0, 64, 0
3, 376020, Note_on_c, 0, 52, 104
3, 376020, Note_on_c, 0, 57, 104
3, 376020, Note_on_c, 0, 33, 112
3, 376020, Note_on_c, 0, 45, 112
3, 376337, Note_on_c, 0, 45, 0
3, 376337, Note_on_c, 0, 52, 0
3, 376337, Note_on_c, 0, 57, 0
3, 376337, Note_on_c, 0, 33, 0
3, 376380, Note_on_c, 0, 52, 96
3, 376380, Note_on_c, 0, 57, 96
3, 376380, Note_on_c, 0, 33, 95
3, 376380, Note_on_c, 0, 45, 95
3, 376469, Note_on_c, 0, 45, 0
3, 376469, Note_on_c, 0, 52, 0
3, 376469, Note_on_c, 0, 57, 0
3, 376469, Note_on_c, 0, 33, 0
3, 376560, Note_on_c, 0, 52, 115
3, 376560, Note_on_c, 0, 56, 115
3, 376560, Note_on_c, 0, 62, 115
3, 376560, Note_on_c, 0, 64, 115
3, 376560, Note_on_c, 0, 33, 112
3, 376560, Note_on_c, 0, 45, 112
3, 376649, Note_on_c, 0, 64, 0
3, 376649, Note_on_c, 0, 62, 0
3, 376649, Note_on_c, 0, 52, 0
3, 376649, Note_on_c, 0, 56, 0
3, 376740, Note_on_c, 0, 52, 100
3, 376740, Note_on_c, 0, 62, 100
3, 376740, Note_on_c, 0, 64, 100
3, 376784, Note_on_c, 0, 64, 0
3, 376784, Note_on_c, 0, 52, 0
3, 376784, Note_on_c, 0, 62, 0
3, 376830, Note_on_c, 0, 52, 94
3, 376830, Note_on_c, 0, 62, 94
3, 376830, Note_on_c, 0, 64, 94
3, 376874, Note_on_c, 0, 64, 0
3, 376874, Note_on_c, 0, 52, 0
3, 376874, Note_on_c, 0, 62, 0
3, 376920, Note_on_c, 0, 52, 96
3, 376920, Note_on_c, 0, 62, 96
3, 376920, Note_on_c, 0, 64, 96
3, 377009, Note_on_c, 0, 64, 0
3, 377009, Note_on_c, 0, 52, 0
3, 377009, Note_on_c, 0, 62, 0
3, 377100, Note_on_c, 0, 52, 95
3, 377100, Note_on_c, 0, 62, 95
3, 377100, Note_on_c, 0, 64, 95
3, 377189, Note_on_c, 0, 64, 0
3, 377189, Note_on_c, 0, 52, 0
3, 377189, Note_on_c, 0, 62, 0
3, 377193, Note_on_c, 0, 45, 0
3, 377193, Note_on_c, 0, 33, 0
3, 377280, Note_on_c, 0, 52, 100
3, 377280, Note_on_c, 0, 57, 100
3, 377280, Note_on_c, 0, 61, 100
3, 377280, Note_on_c, 0, 64, 100
3, 377280, Note_on_c, 0, 33, 99
3, 377280, Note_on_c, 0, 45, 99
3, 377369, Note_on_c, 0, 45, 0
3, 377369, Note_on_c, 0, 57, 0
3, 377369, Note_on_c, 0, 61, 0
3, 377369, Note_on_c, 0, 52, 0
3, 377369, Note_on_c, 0, 33, 0
3, 377369, Note_on_c, 0, 64, 0
3, 377460, Note_on_c, 0, 52, 101
3, 377460, Note_on_c, 0, 57, 101
3, 377460, Note_on_c, 0, 33, 108
3, 377460, Note_on_c, 0, 45, 108
3, 377777, Note_on_c, 0, 45, 0
3, 377777, Note_on_c, 0, 52, 0
3, 377777, Note_on_c, 0, 57, 0
3, 377777, Note_on_c, 0, 33, 0
3, 377820, Note_on_c, 0, 52, 94
3, 377820, Note_on_c, 0, 57, 94
3, 377820, Note_on_c, 0, 33, 96
3, 377820, Note_on_c, 0, 45, 96
3, 377909, Note_on_c, 0, 45, 0
3, 377909, Note_on_c, 0, 52, 0
3, 377909, Note_on_c, 0, 57, 0
3, 377909, Note_on_c, 0, 33, 0
3, 378000, Note_on_c, 0, 52, 114
3, 378000, Note_on_c, 0, 57, 114
3, 378000, Note_on_c, 0, 61, 114
3, 378000, Note_on_c, 0, 64, 114
3, 378000, Note_on_c, 0, 33, 110
3, 378000, Note_on_c, 0, 45, 110
3, 378089, Note_on_c, 0, 64, 0
3, 378089, Note_on_c, 0, 61, 0
3, 378089, Note_on_c, 0, 52, 0
3, 378089, Note_on_c, 0, 57, 0
3, 378180, Note_on_c, 0, 52, 98
3, 378180, Note_on_c, 0, 61, 98
3, 378180, Note_on_c, 0, 64, 98
3, 378224, Note_on_c, 0, 64, 0
3, 378224, Note_on_c, 0, 52, 0
3, 378224, Note_on_c, 0, 61, 0
3, 378270, Note_on_c, 0, 52, 94
3, 378270, Note_on_c, 0, 61, 94
3, 378270, Note_on_c, 0, 64, 94
3, 378314, Note_on_c, 0, 64, 0
3, 378314, Note_on_c, 0, 52, 0
3, 378314, Note_on_c, 0, 61, 0
3, 378360, Note_on_c, 0, 52, 94
3, 378360, Note_on_c, 0, 61, 94
3, 378360, Note_on_c, 0, 64, 94
3, 378449, Note_on_c, 0, 64, 0
3, 378449, Note_on_c, 0, 52, 0
3, 378449, Note_on_c, 0, 61, 0
3, 378540, Note_on_c, 0, 52, 96
3, 378540, Note_on_c, 0, 61, 96
3, 378540, Note_on_c, 0, 64, 96
3, 378629, Note_on_c, 0, 64, 0
3, 378629, Note_on_c, 0, 52, 0
3, 378629, Note_on_c, 0, 61, 0
3, 378633, Note_on_c, 0, 45, 0
3, 378633, Note_on_c, 0, 33, 0
3, 378720, Note_on_c, 0, 52, 90
3, 378720, Note_on_c, 0, 59, 90
3, 378720, Note_on_c, 0, 40, 102
3, 378720, Note_on_c, 0, 47, 102
3, 378809, Note_on_c, 0, 47, 0
3, 378809, Note_on_c, 0, 52, 0
3, 378809, Note_on_c, 0, 59, 0
3, 378809, Note_on_c, 0, 40, 0
3, 378900, Note_on_c, 0, 52, 111
3, 378900, Note_on_c, 0, 59, 111
3, 378900, Note_on_c, 0, 40, 107
3, 378900, Note_on_c, 0, 47, 107
3, 379217, Note_on_c, 0, 47, 0
3, 379217, Note_on_c, 0, 52, 0
3, 379217, Note_on_c, 0, 59, 0
3, 379217, Note_on_c, 0, 40, 0
3, 379260, Note_on_c, 0, 52, 96
3, 379260, Note_on_c, 0, 59, 96
3, 379260, Note_on_c, 0, 40, 98
3, 379260, Note_on_c, 0, 47, 98
3, 379349, Note_on_c, 0, 47, 0
3, 379349, Note_on_c, 0, 52, 0
3, 379349, Note_on_c, 0, 59, 0
3, 379349, Note_on_c, 0, 40, 0
3, 379440, Note_on_c, 0, 57, 96
3, 379440, Note_on_c, 0, 59, 96
3, 379440, Note_on_c, 0, 40, 94
3, 379440, Note_on_c, 0, 47, 94
3, 379529, Note_on_c, 0, 47, 0
3, 379529, Note_on_c, 0, 57, 0
3, 379529, Note_on_c, 0, 59, 0
3, 379529, Note_on_c, 0, 40, 0
3, 379620, Note_on_c, 0, 57, 96
3, 379620, Note_on_c, 0, 59, 96
3, 379620, Note_on_c, 0, 47, 98
3, 379664, Note_on_c, 0, 47, 0
3, 379664, Note_on_c, 0, 59, 0
3, 379664, Note_on_c, 0, 57, 0
3, 379710, Note_on_c, 0, 57, 94
3, 379710, Note_on_c, 0, 59, 94
3, 379710, Note_on_c, 0, 47, 97
3, 379754, Note_on_c, 0, 47, 0
3, 379754, Note_on_c, 0, 59, 0
3, 379754, Note_on_c, 0, 57, 0
3, 379800, Note_on_c, 0, 57, 98
3, 379800, Note_on_c, 0, 59, 98
3, 379800, Note_on_c, 0, 47, 94
3, 379889, Note_on_c, 0, 47, 0
3, 379889, Note_on_c, 0, 59, 0
3, 379889, Note_on_c, 0, 57, 0
3, 379980, Note_on_c, 0, 57, 99
3, 379980, Note_on_c, 0, 59, 99
3, 379980, Note_on_c, 0, 47, 94
3, 380069, Note_on_c, 0, 47, 0
3, 380069, Note_on_c, 0, 59, 0
3, 380069, Note_on_c, 0, 57, 0
3, 380160, Note_on_c, 0, 52, 97
3, 380160, Note_on_c, 0, 56, 97
3, 380160, Note_on_c, 0, 59, 97
3, 380160, Note_on_c, 0, 40, 95
3, 380160, Note_on_c, 0, 47, 95
3, 380249, Note_on_c, 0, 47, 0
3, 380249, Note_on_c, 0, 59, 0
3, 380249, Note_on_c, 0, 52, 0
3, 380249, Note_on_c, 0, 56, 0
3, 380249, Note_on_c, 0, 40, 0
3, 380340, Note_on_c, 0, 52, 109
3, 380340, Note_on_c, 0, 59, 109
3, 380340, Note_on_c, 0, 40, 105
3, 380340, Note_on_c, 0, 47, 105
3, 380657, Note_on_c, 0, 47, 0
3, 380657, Note_on_c, 0, 52, 0
3, 380657, Note_on_c, 0, 59, 0
3, 380657, Note_on_c, 0, 40, 0
3, 380700, Note_on_c, 0, 52, 97
3, 380700, Note_on_c, 0, 59, 97
3, 380700, Note_on_c, 0, 40, 100
3, 380700, Note_on_c, 0, 47, 100
3, 380789, Note_on_c, 0, 47, 0
3, 380789, Note_on_c, 0, 52, 0
3, 380789, Note_on_c, 0, 59, 0
3, 380789, Note_on_c, 0, 40, 0
3, 380880, Note_on_c, 0, 52, 96
3, 380880, Note_on_c, 0, 56, 96
3, 380880, Note_on_c, 0, 59, 96
3, 380880, Note_on_c, 0, 40, 98
3, 380880, Note_on_c, 0, 47, 98
3, 380969, Note_on_c, 0, 47, 0
3, 380969, Note_on_c, 0, 59, 0
3, 380969, Note_on_c, 0, 52, 0
3, 380969, Note_on_c, 0, 56, 0
3, 380969, Note_on_c, 0, 40, 0
3, 381060, Note_on_c, 0, 56, 96
3, 381060, Note_on_c, 0, 59, 96
3, 381060, Note_on_c, 0, 47, 97
3, 381104, Note_on_c, 0, 47, 0
3, 381104, Note_on_c, 0, 59, 0
3, 381104, Note_on_c, 0, 56, 0
3, 381150, Note_on_c, 0, 56, 102
3, 381150, Note_on_c, 0, 59, 102
3, 381150, Note_on_c, 0, 47, 100
3, 381194, Note_on_c, 0, 47, 0
3, 381194, Note_on_c, 0, 59, 0
3, 381194, Note_on_c, 0, 56, 0
3, 381240, Note_on_c, 0, 56, 101
3, 381240, Note_on_c, 0, 59, 101
3, 381240, Note_on_c, 0, 47, 95
3, 381329, Note_on_c, 0, 47, 0
3, 381329, Note_on_c, 0, 59, 0
3, 381329, Note_on_c, 0, 56, 0
3, 381420, Note_on_c, 0, 56, 98
3, 381420, Note_on_c, 0, 59, 98
3, 381420, Note_on_c, 0, 47, 101
3, 381509, Note_on_c, 0, 47, 0
3, 381509, Note_on_c, 0, 59, 0
3, 381509, Note_on_c, 0, 56, 0
3, 381600, Note_on_c, 0, 52, 100
3, 381600, Note_on_c, 0, 59, 100
3, 381600, Note_on_c, 0, 40, 95
3, 381600, Note_on_c, 0, 47, 95
3, 381689, Note_on_c, 0, 47, 0
3, 381689, Note_on_c, 0, 52, 0
3, 381689, Note_on_c, 0, 59, 0
3, 381689, Note_on_c, 0, 40, 0
3, 381780, Note_on_c, 0, 52, 112
3, 381780, Note_on_c, 0, 59, 112
3, 381780, Note_on_c, 0, 40, 110
3, 381780, Note_on_c, 0, 47, 110
3, 382097, Note_on_c, 0, 47, 0
3, 382097, Note_on_c, 0, 52, 0
3, 382097, Note_on_c, 0, 59, 0
3, 382097, Note_on_c, 0, 40, 0
3, 382140, Note_on_c, 0, 52, 99
3, 382140, Note_on_c, 0, 59, 99
3, 382140, Note_on_c, 0, 40, 102
3, 382140, Note_on_c, 0, 47, 102
3, 382229, Note_on_c, 0, 47, 0
3, 382229, Note_on_c, 0, 52, 0
3, 382229, Note_on_c, 0, 59, 0
3, 382229, Note_on_c, 0, 40, 0
3, 382320, Note_on_c, 0, 57, 100
3, 382320, Note_on_c, 0, 59, 100
3, 382320, Note_on_c, 0, 40, 95
3, 382320, Note_on_c, 0, 47, 95
3, 382409, Note_on_c, 0, 47, 0
3, 382409, Note_on_c, 0, 57, 0
3, 382409, Note_on_c, 0, 59, 0
3, 382409, Note_on_c, 0, 40, 0
3, 382500, Note_on_c, 0, 57, 97
3, 382500, Note_on_c, 0, 59, 97
3, 382500, Note_on_c, 0, 47, 100
3, 382544, Note_on_c, 0, 47, 0
3, 382544, Note_on_c, 0, 59, 0
3, 382544, Note_on_c, 0, 57, 0
3, 382590, Note_on_c, 0, 57, 98
3, 382590, Note_on_c, 0, 59, 98
3, 382590, Note_on_c, 0, 47, 92
3, 382634, Note_on_c, 0, 47, 0
3, 382634, Note_on_c, 0, 59, 0
3, 382634, Note_on_c, 0, 57, 0
3, 382680, Note_on_c, 0, 57, 94
3, 382680, Note_on_c, 0, 59, 94
3, 382680, Note_on_c, 0, 47, 100
3, 382769, Note_on_c, 0, 47, 0
3, 382769, Note_on_c, 0, 59, 0
3, 382769, Note_on_c, 0, 57, 0
3, 382860, Note_on_c, 0, 57, 95
3, 382860, Note_on_c, 0, 59, 95
3, 382860, Note_on_c, 0, 47, 98
3, 382949, Note_on_c, 0, 47, 0
3, 382949, Note_on_c, 0, 59, 0
3, 382949, Note_on_c, 0, 57, 0
3, 383040, Note_on_c, 0, 52, 94
3, 383040, Note_on_c, 0, 56, 94
3, 383040, Note_on_c, 0, 59, 94
3, 383040, Note_on_c, 0, 40, 99
3, 383040, Note_on_c, 0, 47, 99
3, 383129, Note_on_c, 0, 47, 0
3, 383129, Note_on_c, 0, 59, 0
3, 383129, Note_on_c, 0, 52, 0
3, 383129, Note_on_c, 0, 56, 0
3, 383129, Note_on_c, 0, 40, 0
3, 383220, Note_on_c, 0, 52, 107
3, 383220, Note_on_c, 0, 59, 107
3, 383220, Note_on_c, 0, 40, 111
3, 383220, Note_on_c, 0, 47, 111
3, 383537, Note_on_c, 0, 47, 0
3, 383537, Note_on_c, 0, 52, 0
3, 383537, Note_on_c, 0, 59, 0
3, 383537, Note_on_c, 0, 40, 0
3, 383580, Note_on_c, 0, 52, 96
3, 383580, Note_on_c, 0, 59, 96
3, 383580, Note_on_c, 0, 40, 96
3, 383580, Note_on_c, 0, 47, 96
3, 383669, Note_on_c, 0, 47, 0
3, 383669, Note_on_c, 0, 52, 0
3, 383669, Note_on_c, 0, 59, 0
3, 383669, Note_on_c, 0, 40, 0
3, 383760, Note_on_c, 0, 52, 98
3, 383760, Note_on_c, 0, 56, 98
3, 383760, Note_on_c, 0, 59, 98
3, 383760, Note_on_c, 0, 40, 98
3, 383760, Note_on_c, 0, 47, 98
3, 383849, Note_on_c, 0, 47, 0
3, 383849, Note_on_c, 0, 59, 0
3, 383849, Note_on_c, 0, 52, 0
3, 383849, Note_on_c, 0, 56, 0
3, 383849, Note_on_c, 0, 40, 0
3, 383940, Note_on_c, 0, 56, 102
3, 383940, Note_on_c, 0, 59, 102
3, 383940, Note_on_c, 0, 47, 95
3, 383984, Note_on_c, 0, 47, 0
3, 383984, Note_on_c, 0, 59, 0
3, 383984, Note_on_c, 0, 56, 0
3, 384030, Note_on_c, 0, 56, 101
3, 384030, Note_on_c, 0, 59, 101
3, 384030, Note_on_c, 0, 47, 98
3, 384074, Note_on_c, 0, 47, 0
3, 384074, Note_on_c, 0, 59, 0
3, 384074, Note_on_c, 0, 56, 0
3, 384120, Note_on_c, 0, 56, 100
3, 384120, Note_on_c, 0, 59, 100
3, 384120, Note_on_c, 0, 47, 95
3, 384209, Note_on_c, 0, 47, 0
3, 384209, Note_on_c, 0, 59, 0
3, 384209, Note_on_c, 0, 56, 0
3, 384300, Note_on_c, 0, 56, 100
3, 384300, Note_on_c, 0, 59, 100
3, 384300, Note_on_c, 0, 47, 99
3, 384389, Note_on_c, 0, 47, 0
3, 384389, Note_on_c, 0, 59, 0
3, 384389, Note_on_c, 0, 56, 0
3, 384480, Note_on_c, 0, 55, 127
3, 384480, Note_on_c, 0, 60, 127
3, 384480, Note_on_c, 0, 64, 127
3, 384480, Note_on_c, 0, 34, 114
3, 384480, Note_on_c, 0, 46, 114
3, 384569, Note_on_c, 0, 46, 0
3, 384569, Note_on_c, 0, 34, 0
3, 384660, Note_on_c, 0, 55, 0
3, 384660, Note_on_c, 0, 60, 0
3, 384660, Note_on_c, 0, 64, 0
3, 384660, Note_on_c, 0, 55, 125
3, 384660, Note_on_c, 0, 60, 125
3, 384660, Note_on_c, 0, 64, 125
3, 384840, Note_on_c, 0, 64, 0
3, 384840, Note_on_c, 0, 60, 0
3, 384840, Note_on_c, 0, 55, 0
3, 384840, Note_on_c, 0, 56, 127
3, 384840, Note_on_c, 0, 60, 127
3, 384840, Note_on_c, 0, 65, 127
3, 385020, Note_on_c, 0, 65, 0
3, 385020, Note_on_c, 0, 60, 0
3, 385020, Note_on_c, 0, 56, 0
3, 385020, Note_on_c, 0, 55, 116
3, 385020, Note_on_c, 0, 60, 116
3, 385020, Note_on_c, 0, 64, 116
3, 385200, Note_on_c, 0, 64, 0
3, 385200, Note_on_c, 0, 60, 0
3, 385200, Note_on_c, 0, 55, 0
3, 385200, Note_on_c, 0, 53, 118
3, 385200, Note_on_c, 0, 60, 118
3, 385200, Note_on_c, 0, 62, 118
3, 385560, Note_on_c, 0, 62, 0
3, 385560, Note_on_c, 0, 60, 0
3, 385560, Note_on_c, 0, 53, 0
3, 385560, Note_on_c, 0, 55, 127
3, 385560, Note_on_c, 0, 60, 127
3, 385560, Note_on_c, 0, 64, 127
3, 385920, Note_on_c, 0, 64, 0
3, 385920, Note_on_c, 0, 60, 0
3, 385920, Note_on_c, 0, 55, 0
3, 385920, Note_on_c, 0, 52, 113
3, 385920, Note_on_c, 0, 60, 113
3, 386190, Note_on_c, 0, 60, 0
3, 386190, Note_on_c, 0, 52, 0
3, 386190, Note_on_c, 0, 52, 117
3, 386190, Note_on_c, 0, 60, 117
3, 386280, Note_on_c, 0, 60, 0
3, 386280, Note_on_c, 0, 52, 0
3, 386280, Note_on_c, 0, 52, 118
3, 386280, Note_on_c, 0, 60, 118
3, 386460, Note_on_c, 0, 60, 0
3, 386460, Note_on_c, 0, 52, 0
3, 386460, Note_on_c, 0, 53, 127
3, 386460, Note_on_c, 0, 60, 127
3, 386460, Note_on_c, 0, 62, 127
3, 386640, Note_on_c, 0, 62, 0
3, 386640, Note_on_c, 0, 60, 0
3, 386640, Note_on_c, 0, 53, 0
3, 386640, Note_on_c, 0, 55, 127
3, 386640, Note_on_c, 0, 60, 127
3, 386640, Note_on_c, 0, 64, 127
3, 387360, Note_on_c, 0, 64, 0
3, 387360, Note_on_c, 0, 60, 0
3, 387360, Note_on_c, 0, 55, 0
3, 387360, Note_on_c, 0, 51, 113
3, 387360, Note_on_c, 0, 56, 113
3, 387360, Note_on_c, 0, 60, 113
3, 387360, Note_on_c, 0, 63, 113
3, 387360, Note_on_c, 0, 32, 107
3, 387360, Note_on_c, 0, 44, 107
3, 387449, Note_on_c, 0, 44, 0
3, 387449, Note_on_c, 0, 56, 0
3, 387449, Note_on_c, 0, 60, 0
3, 387449, Note_on_c, 0, 51, 0
3, 387449, Note_on_c, 0, 32, 0
3, 387449, Note_on_c, 0, 63, 0
3, 387720, Note_on_c, 0, 57, 43
3, 387720, Note_on_c, 0, 61, 43
3, 387720, Note_on_c, 0, 32, 47
3, 387810, Note_on_c, 0, 32, 0
3, 387810, Note_on_c, 0, 61, 0
3, 387810, Note_on_c, 0, 57, 0
3, 387810, Note_on_c, 0, 52, 41
3, 387810, Note_on_c, 0, 44, 56
3, 387900, Note_on_c, 0, 44, 0
3, 387900, Note_on_c, 0, 52, 0
3, 387900, Note_on_c, 0, 57, 61
3, 387900, Note_on_c, 0, 61, 61
3, 387900, Note_on_c, 0, 32, 46
3, 387990, Note_on_c, 0, 32, 0
3, 387990, Note_on_c, 0, 61, 0
3, 387990, Note_on_c, 0, 57, 0
3, 387990, Note_on_c, 0, 52, 48
3, 387990, Note_on_c, 0, 44, 58
3, 388080, Note_on_c, 0, 44, 0
3, 388080, Note_on_c, 0, 52, 0
3, 388080, Note_on_c, 0, 56, 62
3, 388080, Note_on_c, 0, 60, 62
3, 388080, Note_on_c, 0, 32, 45
3, 388170, Note_on_c, 0, 32, 0
3, 388170, Note_on_c, 0, 60, 0
3, 388170, Note_on_c, 0, 56, 0
3, 388170, Note_on_c, 0, 51, 42
3, 388170, Note_on_c, 0, 44, 58
3, 388260, Note_on_c, 0, 44, 0
3, 388260, Note_on_c, 0, 51, 0
3, 388260, Note_on_c, 0, 56, 60
3, 388260, Note_on_c, 0, 60, 60
3, 388260, Note_on_c, 0, 32, 44
3, 388350, Note_on_c, 0, 32, 0
3, 388350, Note_on_c, 0, 60, 0
3, 388350, Note_on_c, 0, 56, 0
3, 388350, Note_on_c, 0, 51, 45
3, 388350, Note_on_c, 0, 44, 56
3, 388440, Note_on_c, 0, 44, 0
3, 388440, Note_on_c, 0, 51, 0
3, 388440, Note_on_c, 0, 56, 60
3, 388440, Note_on_c, 0, 60, 60
3, 388440, Note_on_c, 0, 32, 44
3, 388530, Note_on_c, 0, 32, 0
3, 388530, Note_on_c, 0, 60, 0
3, 388530, Note_on_c, 0, 56, 0
3, 388530, Note_on_c, 0, 51, 46
3, 388530, Note_on_c, 0, 44, 58
3, 388620, Note_on_c, 0, 44, 0
3, 388620, Note_on_c, 0, 51, 0
3, 388620, Note_on_c, 0, 57, 60
3, 388620, Note_on_c, 0, 61, 60
3, 388620, Note_on_c, 0, 32, 45
3, 388710, Note_on_c, 0, 32, 0
3, 388710, Note_on_c, 0, 61, 0
3, 388710, Note_on_c, 0, 57, 0
3, 388710, Note_on_c, 0, 52, 45
3, 388710, Note_on_c, 0, 44, 53
3, 388800, Note_on_c, 0, 44, 0
3, 388800, Note_on_c, 0, 52, 0
3, 388800, Note_on_c, 0, 56, 60
3, 388800, Note_on_c, 0, 60, 60
3, 388800, Note_on_c, 0, 32, 40
3, 388890, Note_on_c, 0, 32, 0
3, 388890, Note_on_c, 0, 60, 0
3, 388890, Note_on_c, 0, 56, 0
3, 388890, Note_on_c, 0, 51, 48
3, 388890, Note_on_c, 0, 44, 55
3, 388980, Note_on_c, 0, 44, 0
3, 388980, Note_on_c, 0, 51, 0
3, 388980, Note_on_c, 0, 56, 61
3, 388980, Note_on_c, 0, 60, 61
3, 388980, Note_on_c, 0, 32, 39
3, 389070, Note_on_c, 0, 32, 0
3, 389070, Note_on_c, 0, 60, 0
3, 389070, Note_on_c, 0, 56, 0
3, 389070, Note_on_c, 0, 51, 48
3, 389070, Note_on_c, 0, 44, 52
3, 389160, Note_on_c, 0, 44, 0
3, 389160, Note_on_c, 0, 51, 0
3, 389160, Note_on_c, 0, 57, 62
3, 389160, Note_on_c, 0, 61, 62
3, 389160, Note_on_c, 0, 32, 42
3, 389250, Note_on_c, 0, 32, 0
3, 389250, Note_on_c, 0, 61, 0
3, 389250, Note_on_c, 0, 57, 0
3, 389250, Note_on_c, 0, 52, 47
3, 389250, Note_on_c, 0, 44, 57
3, 389340, Note_on_c, 0, 44, 0
3, 389340, Note_on_c, 0, 52, 0
3, 389340, Note_on_c, 0, 57, 58
3, 389340, Note_on_c, 0, 61, 58
3, 389340, Note_on_c, 0, 32, 44
3, 389430, Note_on_c, 0, 32, 0
3, 389430, Note_on_c, 0, 61, 0
3, 389430, Note_on_c, 0, 57, 0
3, 389430, Note_on_c, 0, 52, 48
3, 389430, Note_on_c, 0, 44, 59
3, 389520, Note_on_c, 0, 44, 0
3, 389520, Note_on_c, 0, 52, 0
3, 389520, Note_on_c, 0, 56, 61
3, 389520, Note_on_c, 0, 60, 61
3, 389520, Note_on_c, 0, 32, 47
3, 389610, Note_on_c, 0, 32, 0
3, 389610, Note_on_c, 0, 60, 0
3, 389610, Note_on_c, 0, 56, 0
3, 389610, Note_on_c, 0, 51, 49
3, 389610, Note_on_c, 0, 44, 54
3, 389700, Note_on_c, 0, 44, 0
3, 389700, Note_on_c, 0, 51, 0
3, 389700, Note_on_c, 0, 56, 61
3, 389700, Note_on_c, 0, 60, 61
3, 389700, Note_on_c, 0, 32, 43
3, 389790, Note_on_c, 0, 32, 0
3, 389790, Note_on_c, 0, 60, 0
3, 389790, Note_on_c, 0, 56, 0
3, 389790, Note_on_c, 0, 51, 49
3, 389790, Note_on_c, 0, 44, 57
3, 389880, Note_on_c, 0, 44, 0
3, 389880, Note_on_c, 0, 51, 0
3, 389880, Note_on_c, 0, 56, 61
3, 389880, Note_on_c, 0, 60, 61
3, 389880, Note_on_c, 0, 32, 43
3, 390060, Note_on_c, 0, 32, 0
3, 390060, Note_on_c, 0, 60, 0
3, 390060, Note_on_c, 0, 56, 0
3, 390240, Note_on_c, 0, 52, 93
3, 390240, Note_on_c, 0, 55, 93
3, 390240, Note_on_c, 0, 60, 93
3, 390240, Note_on_c, 0, 64, 93
3, 390240, Note_on_c, 0, 34, 61
3, 390240, Note_on_c, 0, 46, 61
3, 390420, Note_on_c, 0, 46, 0
3, 390420, Note_on_c, 0, 55, 0
3, 390420, Note_on_c, 0, 60, 0
3, 390420, Note_on_c, 0, 52, 0
3, 390420, Note_on_c, 0, 34, 0
3, 390420, Note_on_c, 0, 64, 0
3, 390420, Note_on_c, 0, 55, 77
3, 390420, Note_on_c, 0, 60, 77
3, 390420, Note_on_c, 0, 64, 77
3, 390600, Note_on_c, 0, 64, 0
3, 390600, Note_on_c, 0, 60, 0
3, 390600, Note_on_c, 0, 55, 0
3, 390600, Note_on_c, 0, 56, 76
3, 390600, Note_on_c, 0, 60, 76
3, 390600, Note_on_c, 0, 65, 76
3, 390780, Note_on_c, 0, 65, 0
3, 390780, Note_on_c, 0, 60, 0
3, 390780, Note_on_c, 0, 56, 0
3, 390780, Note_on_c, 0, 55, 76
3, 390780, Note_on_c, 0, 60, 76
3, 390780, Note_on_c, 0, 64, 76
3, 390960, Note_on_c, 0, 64, 0
3, 390960, Note_on_c, 0, 60, 0
3, 390960, Note_on_c, 0, 55, 0
3, 390960, Note_on_c, 0, 53, 78
3, 390960, Note_on_c, 0, 60, 78
3, 390960, Note_on_c, 0, 62, 78
3, 391320, Note_on_c, 0, 62, 0
3, 391320, Note_on_c, 0, 60, 0
3, 391320, Note_on_c, 0, 53, 0
3, 391320, Note_on_c, 0, 55, 78
3, 391320, Note_on_c, 0, 60, 78
3, 391320, Note_on_c, 0, 64, 78
3, 391680, Note_on_c, 0, 64, 0
3, 391680, Note_on_c, 0, 60, 0
3, 391680, Note_on_c, 0, 55, 0
3, 391680, Note_on_c, 0, 52, 70
3, 391680, Note_on_c, 0, 60, 70
3, 391950, Note_on_c, 0, 60, 0
3, 391950, Note_on_c, 0, 52, 0
3, 391950, Note_on_c, 0, 52, 75
3, 391950, Note_on_c, 0, 60, 75
3, 392040, Note_on_c, 0, 60, 0
3, 392040, Note_on_c, 0, 52, 0
3, 392040, Note_on_c, 0, 52, 69
3, 392040, Note_on_c, 0, 60, 69
3, 392220, Note_on_c, 0, 60, 0
3, 392220, Note_on_c, 0, 52, 0
3, 392220, Note_on_c, 0, 53, 81
3, 392220, Note_on_c, 0, 60, 81
3, 392220, Note_on_c, 0, 62, 81
3, 392400, Note_on_c, 0, 62, 0
3, 392400, Note_on_c, 0, 60, 0
3, 392400, Note_on_c, 0, 53, 0
3, 392400, Note_on_c, 0, 55, 75
3, 392400, Note_on_c, 0, 60, 75
3, 392400, Note_on_c, 0, 64, 75
3, 393120, Note_on_c, 0, 64, 0
3, 393120, Note_on_c, 0, 60, 0
3, 393120, Note_on_c, 0, 55, 0
3, 393120, Note_on_c, 0, 52, 70
3, 393120, Note_on_c, 0, 57, 70
3, 393120, Note_on_c, 0, 61, 70
3, 393120, Note_on_c, 0, 64, 70
3, 393120, Note_on_c, 0, 33, 66
3, 393120, Note_on_c, 0, 45, 66
3, 393209, Note_on_c, 0, 45, 0
3, 393209, Note_on_c, 0, 57, 0
3, 393209, Note_on_c, 0, 61, 0
3, 393209, Note_on_c, 0, 52, 0
3, 393209, Note_on_c, 0, 33, 0
3, 393209, Note_on_c, 0, 64, 0
3, 393480, Note_on_c, 0, 58, 48
3, 393480, Note_on_c, 0, 62, 48
3, 393480, Note_on_c, 0, 33, 46
3, 393570, Note_on_c, 0, 33, 0
3, 393570, Note_on_c, 0, 62, 0
3, 393570, Note_on_c, 0, 58, 0
3, 393570, Note_on_c, 0, 53, 45
3, 393570, Note_on_c, 0, 45, 56
3, 393660, Note_on_c, 0, 45, 0
3, 393660, Note_on_c, 0, 53, 0
3, 393660, Note_on_c, 0, 58, 63
3, 393660, Note_on_c, 0, 62, 63
3, 393660, Note_on_c, 0, 33, 44
3, 393750, Note_on_c, 0, 33, 0
3, 393750, Note_on_c, 0, 62, 0
3, 393750, Note_on_c, 0, 58, 0
3, 393750, Note_on_c, 0, 53, 44
3, 393750, Note_on_c, 0, 45, 57
3, 393840, Note_on_c, 0, 45, 0
3, 393840, Note_on_c, 0, 53, 0
3, 393840, Note_on_c, 0, 57, 62
3, 393840, Note_on_c, 0, 61, 62
3, 393840, Note_on_c, 0, 33, 45
3, 393930, Note_on_c, 0, 33, 0
3, 393930, Note_on_c, 0, 61, 0
3, 393930, Note_on_c, 0, 57, 0
3, 393930, Note_on_c, 0, 52, 45
3, 393930, Note_on_c, 0, 45, 56
3, 394020, Note_on_c, 0, 45, 0
3, 394020, Note_on_c, 0, 52, 0
3, 394020, Note_on_c, 0, 57, 67
3, 394020, Note_on_c, 0, 61, 67
3, 394020, Note_on_c, 0, 33, 45
3, 394110, Note_on_c, 0, 33, 0
3, 394110, Note_on_c, 0, 61, 0
3, 394110, Note_on_c, 0, 57, 0
3, 394110, Note_on_c, 0, 52, 52
3, 394110, Note_on_c, 0, 45, 57
3, 394200, Note_on_c, 0, 45, 0
3, 394200, Note_on_c, 0, 52, 0
3, 394200, Note_on_c, 0, 57, 62
3, 394200, Note_on_c, 0, 61, 62
3, 394200, Note_on_c, 0, 33, 40
3, 394290, Note_on_c, 0, 33, 0
3, 394290, Note_on_c, 0, 61, 0
3, 394290, Note_on_c, 0, 57, 0
3, 394290, Note_on_c, 0, 52, 47
3, 394290, Note_on_c, 0, 45, 55
3, 394380, Note_on_c, 0, 45, 0
3, 394380, Note_on_c, 0, 52, 0
3, 394380, Note_on_c, 0, 58, 65
3, 394380, Note_on_c, 0, 62, 65
3, 394380, Note_on_c, 0, 33, 47
3, 394470, Note_on_c, 0, 33, 0
3, 394470, Note_on_c, 0, 62, 0
3, 394470, Note_on_c, 0, 58, 0
3, 394470, Note_on_c, 0, 53, 40
3, 394470, Note_on_c, 0, 45, 56
3, 394560, Note_on_c, 0, 45, 0
3, 394560, Note_on_c, 0, 53, 0
3, 394560, Note_on_c, 0, 57, 68
3, 394560, Note_on_c, 0, 61, 68
3, 394560, Note_on_c, 0, 33, 44
3, 394650, Note_on_c, 0, 33, 0
3, 394650, Note_on_c, 0, 61, 0
3, 394650, Note_on_c, 0, 57, 0
3, 394650, Note_on_c, 0, 52, 47
3, 394650, Note_on_c, 0, 45, 59
3, 394740, Note_on_c, 0, 45, 0
3, 394740, Note_on_c, 0, 52, 0
3, 394740, Note_on_c, 0, 57, 59
3, 394740, Note_on_c, 0, 61, 59
3, 394740, Note_on_c, 0, 33, 45
3, 394830, Note_on_c, 0, 33, 0
3, 394830, Note_on_c, 0, 61, 0
3, 394830, Note_on_c, 0, 57, 0
3, 394830, Note_on_c, 0, 52, 50
3, 394830, Note_on_c, 0, 45, 55
3, 394920, Note_on_c, 0, 45, 0
3, 394920, Note_on_c, 0, 52, 0
3, 394920, Note_on_c, 0, 58, 62
3, 394920, Note_on_c, 0, 62, 62
3, 394920, Note_on_c, 0, 33, 45
3, 395010, Note_on_c, 0, 33, 0
3, 395010, Note_on_c, 0, 62, 0
3, 395010, Note_on_c, 0, 58, 0
3, 395010, Note_on_c, 0, 53, 43
3, 395010, Note_on_c, 0, 45, 54
3, 395100, Note_on_c, 0, 45, 0
3, 395100, Note_on_c, 0, 53, 0
3, 395100, Note_on_c, 0, 58, 60
3, 395100, Note_on_c, 0, 62, 60
3, 395100, Note_on_c, 0, 33, 45
3, 395190, Note_on_c, 0, 33, 0
3, 395190, Note_on_c, 0, 62, 0
3, 395190, Note_on_c, 0, 58, 0
3, 395190, Note_on_c, 0, 53, 44
3, 395190, Note_on_c, 0, 45, 54
3, 395280, Note_on_c, 0, 45, 0
3, 395280, Note_on_c, 0, 53, 0
3, 395280, Note_on_c, 0, 57, 66
3, 395280, Note_on_c, 0, 61, 66
3, 395280, Note_on_c, 0, 33, 44
3, 395370, Note_on_c, 0, 33, 0
3, 395370, Note_on_c, 0, 61, 0
3, 395370, Note_on_c, 0, 57, 0
3, 395370, Note_on_c, 0, 52, 49
3, 395370, Note_on_c, 0, 45, 60
3, 395460, Note_on_c, 0, 45, 0
3, 395460, Note_on_c, 0, 52, 0
3, 395460, Note_on_c, 0, 57, 61
3, 395460, Note_on_c, 0, 61, 61
3, 395460, Note_on_c, 0, 33, 38
3, 395550, Note_on_c, 0, 33, 0
3, 395550, Note_on_c, 0, 61, 0
3, 395550, Note_on_c, 0, 57, 0
3, 395550, Note_on_c, 0, 52, 46
3, 395550, Note_on_c, 0, 45, 58
3, 395640, Note_on_c, 0, 45, 0
3, 395640, Note_on_c, 0, 52, 0
3, 395640, Note_on_c, 0, 57, 64
3, 395640, Note_on_c, 0, 61, 64
3, 395640, Note_on_c, 0, 33, 50
3, 395820, Note_on_c, 0, 33, 0
3, 395820, Note_on_c, 0, 61, 0
3, 395820, Note_on_c, 0, 57, 0
3, 396000, Note_on_c, 0, 57, 89
3, 396317, Note_on_c, 0, 57, 0
3, 396360, Note_on_c, 0, 62, 104
3, 396677, Note_on_c, 0, 62, 0
3, 396720, Note_on_c, 0, 61, 91
3, 397037, Note_on_c, 0, 61, 0
3, 397080, Note_on_c, 0, 62, 102
3, 397397, Note_on_c, 0, 62, 0
3, 397440, Note_on_c, 0, 57, 89
3, 397757, Note_on_c, 0, 57, 0
3, 397800, Note_on_c, 0, 55, 94
3, 398117, Note_on_c, 0, 55, 0
3, 398160, Note_on_c, 0, 55, 113
3, 398160, Note_on_c, 0, 60, 113
3, 398160, Note_on_c, 0, 36, 69
3, 398160, Note_on_c, 0, 48, 69
3, 398339, Note_on_c, 0, 48, 0
3, 398339, Note_on_c, 0, 55, 0
3, 398339, Note_on_c, 0, 60, 0
3, 398339, Note_on_c, 0, 36, 0
3, 398520, Note_on_c, 0, 55, 46
3, 398520, Note_on_c, 0, 59, 46
3, 398520, Note_on_c, 0, 36, 48
3, 398520, Note_on_c, 0, 48, 48
3, 398699, Note_on_c, 0, 48, 0
3, 398699, Note_on_c, 0, 55, 0
3, 398699, Note_on_c, 0, 59, 0
3, 398699, Note_on_c, 0, 36, 0
3, 398880, Note_on_c, 0, 55, 53
3, 398880, Note_on_c, 0, 60, 53
3, 398880, Note_on_c, 0, 36, 50
3, 398880, Note_on_c, 0, 48, 50
3, 399059, Note_on_c, 0, 48, 0
3, 399059, Note_on_c, 0, 55, 0
3, 399059, Note_on_c, 0, 60, 0
3, 399059, Note_on_c, 0, 36, 0
3, 399240, Note_on_c, 0, 55, 51
3, 399240, Note_on_c, 0, 60, 51
3, 399240, Note_on_c, 0, 36, 50
3, 399240, Note_on_c, 0, 48, 50
3, 399419, Note_on_c, 0, 48, 0
3, 399419, Note_on_c, 0, 55, 0
3, 399419, Note_on_c, 0, 60, 0
3, 399419, Note_on_c, 0, 36, 0
3, 399600, Note_on_c, 0, 55, 48
3, 399600, Note_on_c, 0, 60, 48
3, 399600, Note_on_c, 0, 36, 48
3, 399600, Note_on_c, 0, 48, 48
3, 399779, Note_on_c, 0, 48, 0
3, 399779, Note_on_c, 0, 55, 0
3, 399779, Note_on_c, 0, 60, 0
3, 399779, Note_on_c, 0, 36, 0
3, 399960, Note_on_c, 0, 55, 48
3, 399960, Note_on_c, 0, 59, 48
3, 399960, Note_on_c, 0, 36, 50
3, 399960, Note_on_c, 0, 48, 50
3, 400139, Note_on_c, 0, 48, 0
3, 400139, Note_on_c, 0, 55, 0
3, 400139, Note_on_c, 0, 59, 0
3, 400139, Note_on_c, 0, 36, 0
3, 400320, Note_on_c, 0, 55, 49
3, 400320, Note_on_c, 0, 59, 49
3, 400320, Note_on_c, 0, 36, 50
3, 400320, Note_on_c, 0, 48, 50
3, 400499, Note_on_c, 0, 48, 0
3, 400499, Note_on_c, 0, 55, 0
3, 400499, Note_on_c, 0, 59, 0
3, 400499, Note_on_c, 0, 36, 0
3, 400680, Note_on_c, 0, 55, 49
3, 400680, Note_on_c, 0, 60, 49
3, 400680, Note_on_c, 0, 36, 54
3, 400680, Note_on_c, 0, 48, 54
3, 400859, Note_on_c, 0, 48, 0
3, 400859, Note_on_c, 0, 55, 0
3, 400859, Note_on_c, 0, 60, 0
3, 400859, Note_on_c, 0, 36, 0
3, 401040, Note_on_c, 0, 55, 88
3, 401357, Note_on_c, 0, 55, 0
3, 401400, Note_on_c, 0, 60, 107
3, 401717, Note_on_c, 0, 60, 0
3, 401760, Note_on_c, 0, 59, 94
3, 402077, Note_on_c, 0, 59, 0
3, 402120, Note_on_c, 0, 60, 98
3, 402437, Note_on_c, 0, 60, 0
3, 402480, Note_on_c, 0, 55, 89
3, 402797, Note_on_c, 0, 55, 0
3, 402840, Note_on_c, 0, 54, 97
3, 403157, Note_on_c, 0, 54, 0
3, 403200, Note_on_c, 0, 53, 112
3, 403200, Note_on_c, 0, 58, 112
3, 403200, Note_on_c, 0, 34, 62
3, 403200, Note_on_c, 0, 46, 62
3, 403379, Note_on_c, 0, 46, 0
3, 403379, Note_on_c, 0, 53, 0
3, 403379, Note_on_c, 0, 58, 0
3, 403379, Note_on_c, 0, 34, 0
3, 403560, Note_on_c, 0, 53, 50
3, 403560, Note_on_c, 0, 57, 50
3, 403560, Note_on_c, 0, 34, 50
3, 403560, Note_on_c, 0, 46, 50
3, 403739, Note_on_c, 0, 46, 0
3, 403739, Note_on_c, 0, 53, 0
3, 403739, Note_on_c, 0, 57, 0
3, 403739, Note_on_c, 0, 34, 0
3, 403920, Note_on_c, 0, 53, 50
3, 403920, Note_on_c, 0, 58, 50
3, 403920, Note_on_c, 0, 34, 50
3, 403920, Note_on_c, 0, 46, 50
3, 404099, Note_on_c, 0, 46, 0
3, 404099, Note_on_c, 0, 53, 0
3, 404099, Note_on_c, 0, 58, 0
3, 404099, Note_on_c, 0, 34, 0
3, 404280, Note_on_c, 0, 53, 47
3, 404280, Note_on_c, 0, 58, 47
3, 404280, Note_on_c, 0, 34, 50
3, 404280, Note_on_c, 0, 46, 50
3, 404459, Note_on_c, 0, 46, 0
3, 404459, Note_on_c, 0, 53, 0
3, 404459, Note_on_c, 0, 58, 0
3, 404459, Note_on_c, 0, 34, 0
3, 404640, Note_on_c, 0, 53, 51
3, 404640, Note_on_c, 0, 58, 51
3, 404640, Note_on_c, 0, 34, 49
3, 404640, Note_on_c, 0, 46, 49
3, 404819, Note_on_c, 0, 46, 0
3, 404819, Note_on_c, 0, 53, 0
3, 404819, Note_on_c, 0, 58, 0
3, 404819, Note_on_c, 0, 34, 0
3, 405000, Note_on_c, 0, 53, 46
3, 405000, Note_on_c, 0, 57, 46
3, 405000, Note_on_c, 0, 34, 49
3, 405000, Note_on_c, 0, 46, 49
3, 405179, Note_on_c, 0, 46, 0
3, 405179, Note_on_c, 0, 53, 0
3, 405179, Note_on_c, 0, 57, 0
3, 405179, Note_on_c, 0, 34, 0
3, 405360, Note_on_c, 0, 53, 49
3, 405360, Note_on_c, 0, 58, 49
3, 405360, Note_on_c, 0, 34, 46
3, 405360, Note_on_c, 0, 46, 46
3, 405539, Note_on_c, 0, 46, 0
3, 405539, Note_on_c, 0, 53, 0
3, 405539, Note_on_c, 0, 58, 0
3, 405539, Note_on_c, 0, 34, 0
3, 405720, Note_on_c, 0, 52, 68
3, 405720, Note_on_c, 0, 40, 61
3, 405899, Note_on_c, 0, 40, 0
3, 405899, Note_on_c, 0, 52, 0
3, 406080, Note_on_c, 0, 52, 73
3, 406080, Note_on_c, 0, 57, 73
3, 406080, Note_on_c, 0, 33, 71
3, 406080, Note_on_c, 0, 45, 71
3, 406259, Note_on_c, 0, 45, 0
3, 406259, Note_on_c, 0, 52, 0
3, 406259, Note_on_c, 0, 57, 0
3, 406259, Note_on_c, 0, 33, 0
3, 406440, Note_on_c, 0, 52, 46
3, 406440, Note_on_c, 0, 56, 46
3, 406440, Note_on_c, 0, 33, 49
3, 406440, Note_on_c, 0, 45, 49
3, 406619, Note_on_c, 0, 45, 0
3, 406619, Note_on_c, 0, 52, 0
3, 406619, Note_on_c, 0, 56, 0
3, 406619, Note_on_c, 0, 33, 0
3, 406800, Note_on_c, 0, 52, 50
3, 406800, Note_on_c, 0, 57, 50
3, 406800, Note_on_c, 0, 33, 53
3, 406800, Note_on_c, 0, 45, 53
3, 406979, Note_on_c, 0, 45, 0
3, 406979, Note_on_c, 0, 52, 0
3, 406979, Note_on_c, 0, 57, 0
3, 406979, Note_on_c, 0, 33, 0
3, 407160, Note_on_c, 0, 52, 49
3, 407160, Note_on_c, 0, 57, 49
3, 407160, Note_on_c, 0, 33, 48
3, 407160, Note_on_c, 0, 45, 48
3, 407339, Note_on_c, 0, 45, 0
3, 407339, Note_on_c, 0, 52, 0
3, 407339, Note_on_c, 0, 57, 0
3, 407339, Note_on_c, 0, 33, 0
3, 407520, Note_on_c, 0, 52, 49
3, 407520, Note_on_c, 0, 57, 49
3, 407520, Note_on_c, 0, 33, 51
3, 407520, Note_on_c, 0, 45, 51
3, 407699, Note_on_c, 0, 45, 0
3, 407699, Note_on_c, 0, 52, 0
3, 407699, Note_on_c, 0, 57, 0
3, 407699, Note_on_c, 0, 33, 0
3, 407880, Note_on_c, 0, 52, 49
3, 407880, Note_on_c, 0, 56, 49
3, 407880, Note_on_c, 0, 33, 48
3, 407880, Note_on_c, 0, 45, 48
3, 408059, Note_on_c, 0, 45, 0
3, 408059, Note_on_c, 0, 52, 0
3, 408059, Note_on_c, 0, 56, 0
3, 408059, Note_on_c, 0, 33, 0
3, 408240, Note_on_c, 0, 52, 55
3, 408240, Note_on_c, 0, 57, 55
3, 408240, Note_on_c, 0, 33, 49
3, 408240, Note_on_c, 0, 45, 49
3, 408419, Note_on_c, 0, 45, 0
3, 408419, Note_on_c, 0, 52, 0
3, 408419, Note_on_c, 0, 57, 0
3, 408419, Note_on_c, 0, 33, 0
3, 408600, Note_on_c, 0, 51, 64
3, 408600, Note_on_c, 0, 39, 67
3, 408779, Note_on_c, 0, 39, 0
3, 408779, Note_on_c, 0, 51, 0
3, 408960, Note_on_c, 0, 51, 70
3, 408960, Note_on_c, 0, 56, 70
3, 408960, Note_on_c, 0, 32, 52
3, 408960, Note_on_c, 0, 44, 52
3, 409139, Note_on_c, 0, 44, 0
3, 409139, Note_on_c, 0, 51, 0
3, 409139, Note_on_c, 0, 56, 0
3, 409139, Note_on_c, 0, 32, 0
3, 409320, Note_on_c, 0, 51, 50
3, 409320, Note_on_c, 0, 55, 50
3, 409320, Note_on_c, 0, 32, 52
3, 409320, Note_on_c, 0, 44, 52
3, 409499, Note_on_c, 0, 44, 0
3, 409499, Note_on_c, 0, 51, 0
3, 409499, Note_on_c, 0, 55, 0
3, 409499, Note_on_c, 0, 32, 0
3, 409680, Note_on_c, 0, 51, 50
3, 409680, Note_on_c, 0, 56, 50
3, 409680, Note_on_c, 0, 32, 49
3, 409680, Note_on_c, 0, 44, 49
3, 409859, Note_on_c, 0, 44, 0
3, 409859, Note_on_c, 0, 51, 0
3, 409859, Note_on_c, 0, 56, 0
3, 409859, Note_on_c, 0, 32, 0
3, 410040, Note_on_c, 0, 50, 65
3, 410040, Note_on_c, 0, 38, 46
3, 410219, Note_on_c, 0, 38, 0
3, 410219, Note_on_c, 0, 50, 0
3, 410400, Note_on_c, 0, 50, 78
3, 410400, Note_on_c, 0, 55, 78
3, 410400, Note_on_c, 0, 31, 72
3, 410400, Note_on_c, 0, 43, 72
3, 410579, Note_on_c, 0, 43, 0
3, 410579, Note_on_c, 0, 50, 0
3, 410579, Note_on_c, 0, 55, 0
3, 410579, Note_on_c, 0, 31, 0
3, 410760, Note_on_c, 0, 50, 54
3, 410760, Note_on_c, 0, 54, 54
3, 410760, Note_on_c, 0, 31, 50
3, 410760, Note_on_c, 0, 43, 50
3, 410939, Note_on_c, 0, 43, 0
3, 410939, Note_on_c, 0, 50, 0
3, 410939, Note_on_c, 0, 54, 0
3, 410939, Note_on_c, 0, 31, 0
3, 411120, Note_on_c, 0, 50, 46
3, 411120, Note_on_c, 0, 55, 46
3, 411120, Note_on_c, 0, 31, 53
3, 411120, Note_on_c, 0, 43, 53
3, 411299, Note_on_c, 0, 43, 0
3, 411299, Note_on_c, 0, 50, 0
3, 411299, Note_on_c, 0, 55, 0
3, 411299, Note_on_c, 0, 31, 0
3, 411480, Note_on_c, 0, 49, 59
3, 411480, Note_on_c, 0, 37, 54
3, 411659, Note_on_c, 0, 37, 0
3, 411659, Note_on_c, 0, 49, 0
3, 411840, Note_on_c, 0, 49, 64
3, 411840, Note_on_c, 0, 54, 64
3, 411840, Note_on_c, 0, 30, 67
3, 411840, Note_on_c, 0, 42, 67
3, 412019, Note_on_c, 0, 42, 0
3, 412019, Note_on_c, 0, 49, 0
3, 412019, Note_on_c, 0, 54, 0
3, 412019, Note_on_c, 0, 30, 0
3, 412200, Note_on_c, 0, 48, 58
3, 412200, Note_on_c, 0, 36, 58
3, 412379, Note_on_c, 0, 36, 0
3, 412379, Note_on_c, 0, 48, 0
3, 412560, Note_on_c, 0, 48, 51
3, 412560, Note_on_c, 0, 53, 51
3, 412560, Note_on_c, 0, 29, 49
3, 412560, Note_on_c, 0, 41, 49
3, 412739, Note_on_c, 0, 41, 0
3, 412739, Note_on_c, 0, 48, 0
3, 412739, Note_on_c, 0, 53, 0
3, 412739, Note_on_c, 0, 29, 0
3, 412920, Note_on_c, 0, 47, 48
3, 412920, Note_on_c, 0, 35, 49
3, 413099, Note_on_c, 0, 35, 0
3, 413099, Note_on_c, 0, 47, 0
3, 413280, Note_on_c, 0, 47, 43
3, 413280, Note_on_c, 0, 52, 43
3, 413280, Note_on_c, 0, 28, 47
3, 413280, Note_on_c, 0, 40, 47
3, 413369, Note_on_c, 0, 40, 0
3, 413369, Note_on_c, 0, 47, 0
3, 413369, Note_on_c, 0, 52, 0
3, 413369, Note_on_c, 0, 28, 0
3, 413640, Note_on_c, 0, 55, 77
3, 413640, Note_on_c, 0, 40, 74
3, 413706, Note_on_c, 0, 59, 77
3, 413706, Note_on_c, 0, 47, 74
3, 414000, Note_on_c, 0, 47, 0
3, 414000, Note_on_c, 0, 55, 0
3, 414000, Note_on_c, 0, 40, 0
3, 414000, Note_on_c, 0, 59, 0
3, 414360, Note_on_c, 0, 55, 77
3, 414360, Note_on_c, 0, 40, 73
3, 414426, Note_on_c, 0, 59, 77
3, 414426, Note_on_c, 0, 47, 73
3, 414720, Note_on_c, 0, 47, 0
3, 414720, Note_on_c, 0, 55, 0
3, 414720, Note_on_c, 0, 40, 0
3, 414720, Note_on_c, 0, 59, 0
3, 414720, Note_on_c, 0, 55, 83
3, 414720, Note_on_c, 0, 40, 84
3, 414786, Note_on_c, 0, 59, 83
3, 414786, Note_on_c, 0, 47, 84
3, 415080, Note_on_c, 0, 47, 0
3, 415080, Note_on_c, 0, 55, 0
3, 415080, Note_on_c, 0, 40, 0
3, 415080, Note_on_c, 0, 59, 0
3, 415080, Note_on_c, 0, 55, 80
3, 415080, Note_on_c, 0, 40, 83
3, 415146, Note_on_c, 0, 59, 80
3, 415146, Note_on_c, 0, 47, 83
3, 415440, Note_on_c, 0, 47, 0
3, 415440, Note_on_c, 0, 55, 0
3, 415440, Note_on_c, 0, 40, 0
3, 415440, Note_on_c, 0, 59, 0
3, 415800, Note_on_c, 0, 55, 76
3, 415800, Note_on_c, 0, 40, 80
3, 415866, Note_on_c, 0, 59, 76
3, 415866, Note_on_c, 0, 47, 80
3, 416160, Note_on_c, 0, 47, 0
3, 416160, Note_on_c, 0, 55, 0
3, 416160, Note_on_c, 0, 40, 0
3, 416160, Note_on_c, 0, 59, 0
3, 416160, Note_on_c, 0, 40, 63
3, 416160, Note_on_c, 0, 47, 63
3, 416339, Note_on_c, 0, 47, 0
3, 416339, Note_on_c, 0, 40, 0
3, 416520, Note_on_c, 0, 52, 53
3, 416520, Note_on_c, 0, 59, 53
3, 416699, Note_on_c, 0, 59, 0
3, 416699, Note_on_c, 0, 52, 0
3, 416880, Note_on_c, 0, 40, 57
3, 416880, Note_on_c, 0, 47, 57
3, 417059, Note_on_c, 0, 47, 0
3, 417059, Note_on_c, 0, 40, 0
3, 417240, Note_on_c, 0, 47, 52
3, 417240, Note_on_c, 0, 57, 52
3, 417419, Note_on_c, 0, 57, 0
3, 417419, Note_on_c, 0, 47, 0
3, 417600, Note_on_c, 0, 40, 54
3, 417600, Note_on_c, 0, 47, 54
3, 417779, Note_on_c, 0, 47, 0
3, 417779, Note_on_c, 0, 40, 0
3, 417960, Note_on_c, 0, 47, 54
3, 417960, Note_on_c, 0, 52, 54
3, 417960, Note_on_c, 0, 55, 54
3, 418139, Note_on_c, 0, 55, 0
3, 418139, Note_on_c, 0, 52, 0
3, 418139, Note_on_c, 0, 47, 0
3, 418680, Note_on_c, 0, 57, 54
3, 418680, Note_on_c, 0, 59, 54
3, 418680, Note_on_c, 0, 40, 55
3, 418680, Note_on_c, 0, 47, 55
3, 418859, Note_on_c, 0, 47, 0
3, 418859, Note_on_c, 0, 57, 0
3, 418859, Note_on_c, 0, 59, 0
3, 418859, Note_on_c, 0, 40, 0
3, 419040, Note_on_c, 0, 40, 58
3, 419040, Note_on_c, 0, 47, 58
3, 419219, Note_on_c, 0, 47, 0
3, 419219, Note_on_c, 0, 40, 0
3, 419400, Note_on_c, 0, 52, 55
3, 419400, Note_on_c, 0, 59, 55
3, 419579, Note_on_c, 0, 59, 0
3, 419579, Note_on_c, 0, 52, 0
3, 419760, Note_on_c, 0, 40, 53
3, 419760, Note_on_c, 0, 47, 53
3, 419939, Note_on_c, 0, 47, 0
3, 419939, Note_on_c, 0, 40, 0
3, 420120, Note_on_c, 0, 47, 49
3, 420120, Note_on_c, 0, 57, 49
3, 420299, Note_on_c, 0, 57, 0
3, 420299, Note_on_c, 0, 47, 0
3, 420480, Note_on_c, 0, 40, 56
3, 420480, Note_on_c, 0, 47, 56
3, 420659, Note_on_c, 0, 47, 0
3, 420659, Note_on_c, 0, 40, 0
3, 420840, Note_on_c, 0, 47, 52
3, 420840, Note_on_c, 0, 52, 52
3, 420840, Note_on_c, 0, 55, 52
3, 421019, Note_on_c, 0, 55, 0
3, 421019, Note_on_c, 0, 52, 0
3, 421019, Note_on_c, 0, 47, 0
3, 421560, Note_on_c, 0, 47, 55
3, 421560, Note_on_c, 0, 52, 55
3, 421560, Note_on_c, 0, 55, 55
3, 421739, Note_on_c, 0, 55, 0
3, 421739, Note_on_c, 0, 52, 0
3, 421739, Note_on_c, 0, 47, 0
3, 421920, Note_on_c, 0, 35, 55
3, 421920, Note_on_c, 0, 47, 55
3, 422099, Note_on_c, 0, 47, 0
3, 422099, Note_on_c, 0, 35, 0
3, 422280, Note_on_c, 0, 54, 53
3, 422280, Note_on_c, 0, 59, 53
3, 422280, Note_on_c, 0, 62, 53
3, 422459, Note_on_c, 0, 62, 0
3, 422459, Note_on_c, 0, 59, 0
3, 422459, Note_on_c, 0, 54, 0
3, 422640, Note_on_c, 0, 42, 53
3, 422819, Note_on_c, 0, 42, 0
3, 423000, Note_on_c, 0, 54, 54
3, 423000, Note_on_c, 0, 58, 54
3, 423179, Note_on_c, 0, 58, 0
3, 423179, Note_on_c, 0, 54, 0
3, 423360, Note_on_c, 0, 35, 60
3, 423360, Note_on_c, 0, 47, 60
3, 423539, Note_on_c, 0, 47, 0
3, 423539, Note_on_c, 0, 35, 0
3, 423720, Note_on_c, 0, 54, 57
3, 423720, Note_on_c, 0, 59, 57
3, 423899, Note_on_c, 0, 59, 0
3, 423899, Note_on_c, 0, 54, 0
3, 424080, Note_on_c, 0, 42, 52
3, 424259, Note_on_c, 0, 42, 0
3, 424440, Note_on_c, 0, 54, 57
3, 424440, Note_on_c, 0, 58, 57
3, 424619, Note_on_c, 0, 58, 0
3, 424619, Note_on_c, 0, 54, 0
3, 424800, Note_on_c, 0, 35, 57
3, 424800, Note_on_c, 0, 47, 57
3, 424979, Note_on_c, 0, 47, 0
3, 424979, Note_on_c, 0, 35, 0
3, 425160, Note_on_c, 0, 54, 55
3, 425339, Note_on_c, 0, 54, 0
3, 425520, Note_on_c, 0, 42, 54
3, 425699, Note_on_c, 0, 42, 0
3, 425880, Note_on_c, 0, 54, 56
3, 426059, Note_on_c, 0, 54, 0
3, 426240, Note_on_c, 0, 35, 60
3, 426240, Note_on_c, 0, 47, 60
3, 426419, Note_on_c, 0, 47, 0
3, 426419, Note_on_c, 0, 35, 0
3, 426600, Note_on_c, 0, 54, 55
3, 426779, Note_on_c, 0, 54, 0
3, 427320, Note_on_c, 0, 47, 55
3, 427499, Note_on_c, 0, 47, 0
3, 427680, Note_on_c, 0, 40, 57
3, 427680, Note_on_c, 0, 47, 57
3, 427859, Note_on_c, 0, 47, 0
3, 427859, Note_on_c, 0, 40, 0
3, 428040, Note_on_c, 0, 55, 53
3, 428040, Note_on_c, 0, 64, 53
3, 428219, Note_on_c, 0, 64, 0
3, 428219, Note_on_c, 0, 55, 0
3, 428400, Note_on_c, 0, 40, 56
3, 428400, Note_on_c, 0, 47, 56
3, 428579, Note_on_c, 0, 47, 0
3, 428579, Note_on_c, 0, 40, 0
3, 428760, Note_on_c, 0, 54, 54
3, 428760, Note_on_c, 0, 57, 54
3, 428760, Note_on_c, 0, 63, 54
3, 428939, Note_on_c, 0, 63, 0
3, 428939, Note_on_c, 0, 57, 0
3, 428939, Note_on_c, 0, 54, 0
3, 429120, Note_on_c, 0, 40, 52
3, 429120, Note_on_c, 0, 47, 52
3, 429299, Note_on_c, 0, 47, 0
3, 429299, Note_on_c, 0, 40, 0
3, 429480, Note_on_c, 0, 52, 53
3, 429480, Note_on_c, 0, 55, 53
3, 429480, Note_on_c, 0, 59, 53
3, 429659, Note_on_c, 0, 59, 0
3, 429659, Note_on_c, 0, 55, 0
3, 429659, Note_on_c, 0, 52, 0
3, 430200, Note_on_c, 0, 57, 52
3, 430200, Note_on_c, 0, 59, 52
3, 430200, Note_on_c, 0, 40, 51
3, 430200, Note_on_c, 0, 47, 51
3, 430379, Note_on_c, 0, 47, 0
3, 430379, Note_on_c, 0, 57, 0
3, 430379, Note_on_c, 0, 59, 0
3, 430379, Note_on_c, 0, 40, 0
3, 430560, Note_on_c, 0, 40, 57
3, 430560, Note_on_c, 0, 47, 57
3, 430739, Note_on_c, 0, 47, 0
3, 430739, Note_on_c, 0, 40, 0
3, 430920, Note_on_c, 0, 55, 53
3, 430920, Note_on_c, 0, 64, 53
3, 431099, Note_on_c, 0, 64, 0
3, 431099, Note_on_c, 0, 55, 0
3, 431280, Note_on_c, 0, 40, 54
3, 431280, Note_on_c, 0, 47, 54
3, 431459, Note_on_c, 0, 47, 0
3, 431459, Note_on_c, 0, 40, 0
3, 431640, Note_on_c, 0, 54, 54
3, 431640, Note_on_c, 0, 57, 54
3, 431640, Note_on_c, 0, 63, 54
3, 431819, Note_on_c, 0, 63, 0
3, 431819, Note_on_c, 0, 57, 0
3, 431819, Note_on_c, 0, 54, 0
3, 432000, Note_on_c, 0, 40, 51
3, 432000, Note_on_c, 0, 47, 51
3, 432179, Note_on_c, 0, 47, 0
3, 432179, Note_on_c, 0, 40, 0
3, 432360, Note_on_c, 0, 55, 50
3, 432360, Note_on_c, 0, 59, 50
3, 432539, Note_on_c, 0, 59, 0
3, 432539, Note_on_c, 0, 55, 0
3, 433080, Note_on_c, 0, 52, 54
3, 433080, Note_on_c, 0, 55, 54
3, 433259, Note_on_c, 0, 55, 0
3, 433259, Note_on_c, 0, 52, 0
3, 433440, Note_on_c, 0, 35, 53
3, 433440, Note_on_c, 0, 47, 53
3, 433800, Note_on_c, 0, 47, 0
3, 433800, Note_on_c, 0, 35, 0
3, 433800, Note_on_c, 0, 54, 52
3, 433800, Note_on_c, 0, 59, 52
3, 433979, Note_on_c, 0, 59, 0
3, 433979, Note_on_c, 0, 54, 0
3, 434160, Note_on_c, 0, 42, 55
3, 434520, Note_on_c, 0, 42, 0
3, 434520, Note_on_c, 0, 54, 56
3, 434520, Note_on_c, 0, 58, 56
3, 434699, Note_on_c, 0, 58, 0
3, 434699, Note_on_c, 0, 54, 0
3, 434880, Note_on_c, 0, 35, 54
3, 434880, Note_on_c, 0, 47, 54
3, 435240, Note_on_c, 0, 47, 0
3, 435240, Note_on_c, 0, 35, 0
3, 435240, Note_on_c, 0, 54, 53
3, 435419, Note_on_c, 0, 54, 0
3, 435600, Note_on_c, 0, 42, 55
3, 435960, Note_on_c, 0, 42, 0
3, 435960, Note_on_c, 0, 54, 53
3, 435960, Note_on_c, 0, 58, 53
3, 436139, Note_on_c, 0, 58, 0
3, 436139, Note_on_c, 0, 54, 0
3, 436320, Note_on_c, 0, 35, 53
3, 436320, Note_on_c, 0, 47, 53
3, 436680, Note_on_c, 0, 47, 0
3, 436680, Note_on_c, 0, 35, 0
3, 436680, Note_on_c, 0, 54, 51
3, 436859, Note_on_c, 0, 54, 0
3, 437040, Note_on_c, 0, 42, 53
3, 437400, Note_on_c, 0, 42, 0
3, 437400, Note_on_c, 0, 54, 57
3, 437579, Note_on_c, 0, 54, 0
3, 437760, Note_on_c, 0, 35, 53
3, 437760, Note_on_c, 0, 47, 53
3, 438120, Note_on_c, 0, 47, 0
3, 438120, Note_on_c, 0, 35, 0
3, 438120, Note_on_c, 0, 54, 50
3, 438299, Note_on_c, 0, 54, 0
3, 438840, Note_on_c, 0, 59, 52
3, 439200, Note_on_c, 0, 59, 0
3, 439200, Note_on_c, 0, 67, 122
3, 439200, Note_on_c, 0, 43, 89
3, 439200, Note_on_c, 0, 52, 89
3, 439379, Note_on_c, 0, 52, 0
3, 439379, Note_on_c, 0, 43, 0
3, 439560, Note_on_c, 0, 55, 64
3, 439560, Note_on_c, 0, 60, 64
3, 439833, Note_on_c, 0, 67, 0
3, 439920, Note_on_c, 0, 60, 0
3, 439920, Note_on_c, 0, 55, 0
3, 439920, Note_on_c, 0, 66, 99
3, 439920, Note_on_c, 0, 43, 86
3, 439920, Note_on_c, 0, 51, 86
3, 440099, Note_on_c, 0, 51, 0
3, 440099, Note_on_c, 0, 43, 0
3, 440280, Note_on_c, 0, 54, 64
3, 440280, Note_on_c, 0, 60, 64
3, 440460, Note_on_c, 0, 66, 0
3, 440460, Note_on_c, 0, 63, 91
3, 440640, Note_on_c, 0, 63, 0
3, 440640, Note_on_c, 0, 60, 0
3, 440640, Note_on_c, 0, 54, 0
3, 440640, Note_on_c, 0, 64, 96
3, 440640, Note_on_c, 0, 43, 93
3, 440640, Note_on_c, 0, 52, 93
3, 440819, Note_on_c, 0, 52, 0
3, 440819, Note_on_c, 0, 43, 0
3, 441000, Note_on_c, 0, 64, 0
3, 441000, Note_on_c, 0, 64, 99
3, 441000, Note_on_c, 0, 59, 61
3, 441179, Note_on_c, 0, 59, 0
3, 441720, Note_on_c, 0, 64, 0
3, 441720, Note_on_c, 0, 66, 100
3, 441720, Note_on_c, 0, 60, 67
3, 441720, Note_on_c, 0, 43, 88
3, 441720, Note_on_c, 0, 51, 88
3, 441899, Note_on_c, 0, 51, 0
3, 441899, Note_on_c, 0, 43, 0
3, 441899, Note_on_c, 0, 60, 0
3, 442080, Note_on_c, 0, 66, 0
3, 442080, Note_on_c, 0, 67, 105
3, 442080, Note_on_c, 0, 43, 103
3, 442080, Note_on_c, 0, 52, 103
3, 442259, Note_on_c, 0, 52, 0
3, 442259, Note_on_c, 0, 43, 0
3, 442440, Note_on_c, 0, 67, 0
3, 442440, Note_on_c, 0, 64, 95
3, 442440, Note_on_c, 0, 59, 63
3, 442619, Note_on_c, 0, 59, 0
3, 442800, Note_on_c, 0, 64, 0
3, 442800, Note_on_c, 0, 66, 101
3, 442800, Note_on_c, 0, 43, 93
3, 442800, Note_on_c, 0, 51, 93
3, 442979, Note_on_c, 0, 51, 0
3, 442979, Note_on_c, 0, 43, 0
3, 443160, Note_on_c, 0, 54, 64
3, 443160, Note_on_c, 0, 60, 64
3, 443339, Note_on_c, 0, 60, 0
3, 443339, Note_on_c, 0, 54, 0
3, 443340, Note_on_c, 0, 66, 0
3, 443340, Note_on_c, 0, 63, 86
3, 443520, Note_on_c, 0, 63, 0
3, 443520, Note_on_c, 0, 64, 102
3, 443520, Note_on_c, 0, 43, 86
3, 443520, Note_on_c, 0, 52, 86
3, 443699, Note_on_c, 0, 52, 0
3, 443699, Note_on_c, 0, 43, 0
3, 443880, Note_on_c, 0, 64, 0
3, 443880, Note_on_c, 0, 64, 96
3, 443880, Note_on_c, 0, 59, 60
3, 444059, Note_on_c, 0, 59, 0
3, 444600, Note_on_c, 0, 64, 0
3, 444600, Note_on_c, 0, 59, 91
3, 444600, Note_on_c, 0, 43, 86
3, 444600, Note_on_c, 0, 52, 86
3, 444779, Note_on_c, 0, 52, 0
3, 444779, Note_on_c, 0, 43, 0
3, 444960, Note_on_c, 0, 59, 0
3, 444960, Note_on_c, 0, 62, 90
3, 444960, Note_on_c, 0, 38, 75
3, 444960, Note_on_c, 0, 47, 75
3, 445139, Note_on_c, 0, 47, 0
3, 445139, Note_on_c, 0, 38, 0
3, 445320, Note_on_c, 0, 55, 62
3, 445499, Note_on_c, 0, 55, 0
3, 445680, Note_on_c, 0, 62, 0
3, 445680, Note_on_c, 0, 61, 79
3, 445680, Note_on_c, 0, 38, 69
3, 445680, Note_on_c, 0, 46, 69
3, 445859, Note_on_c, 0, 46, 0
3, 445859, Note_on_c, 0, 38, 0
3, 446040, Note_on_c, 0, 55, 59
3, 446219, Note_on_c, 0, 55, 0
3, 446220, Note_on_c, 0, 61, 0
3, 446220, Note_on_c, 0, 58, 81
3, 446400, Note_on_c, 0, 58, 0
3, 446400, Note_on_c, 0, 59, 85
3, 446400, Note_on_c, 0, 38, 72
3, 446400, Note_on_c, 0, 47, 72
3, 446579, Note_on_c, 0, 47, 0
3, 446579, Note_on_c, 0, 38, 0
3, 446760, Note_on_c, 0, 59, 0
3, 446760, Note_on_c, 0, 59, 86
3, 446760, Note_on_c, 0, 54, 61
3, 446939, Note_on_c, 0, 54, 0
3, 447480, Note_on_c, 0, 59, 0
3, 447480, Note_on_c, 0, 61, 90
3, 447480, Note_on_c, 0, 55, 59
3, 447480, Note_on_c, 0, 38, 76
3, 447480, Note_on_c, 0, 46, 76
3, 447659, Note_on_c, 0, 46, 0
3, 447659, Note_on_c, 0, 38, 0
3, 447659, Note_on_c, 0, 55, 0
3, 447840, Note_on_c, 0, 61, 0
3, 447840, Note_on_c, 0, 62, 86
3, 447840, Note_on_c, 0, 38, 80
3, 447840, Note_on_c, 0, 45, 80
3, 448019, Note_on_c, 0, 45, 0
3, 448019, Note_on_c, 0, 38, 0
3, 448200, Note_on_c, 0, 62, 0
3, 448200, Note_on_c, 0, 59, 79
3, 448200, Note_on_c, 0, 54, 62
3, 448379, Note_on_c, 0, 54, 0
3, 448560, Note_on_c, 0, 59, 0
3, 448560, Note_on_c, 0, 61, 87
3, 448560, Note_on_c, 0, 38, 75
3, 448560, Note_on_c, 0, 46, 75
3, 448739, Note_on_c, 0, 46, 0
3, 448739, Note_on_c, 0, 38, 0
3, 448920, Note_on_c, 0, 55, 66
3, 449099, Note_on_c, 0, 55, 0
3, 449100, Note_on_c, 0, 61, 0
3, 449100, Note_on_c, 0, 58, 84
3, 449280, Note_on_c, 0, 58, 0
3, 449280, Note_on_c, 0, 59, 83
3, 449280, Note_on_c, 0, 38, 72
3, 449280, Note_on_c, 0, 47, 72
3, 449459, Note_on_c, 0, 47, 0
3, 449459, Note_on_c, 0, 38, 0
3, 449597, Note_on_c, 0, 59, 0
3, 449640, Note_on_c, 0, 59, 77
3, 449640, Note_on_c, 0, 54, 64
3, 450000, Note_on_c, 0, 54, 0
3, 450000, Note_on_c, 0, 55, 58
3, 450273, Note_on_c, 0, 59, 0
3, 450360, Note_on_c, 0, 55, 0
3, 450360, Note_on_c, 0, 59, 64
3, 450360, Note_on_c, 0, 57, 52
3, 450360, Note_on_c, 0, 39, 78
3, 450360, Note_on_c, 0, 47, 78
3, 450539, Note_on_c, 0, 47, 0
3, 450539, Note_on_c, 0, 39, 0
3, 450677, Note_on_c, 0, 59, 0
3, 450720, Note_on_c, 0, 57, 0
3, 450720, Note_on_c, 0, 40, 59
3, 450720, Note_on_c, 0, 47, 59
3, 450899, Note_on_c, 0, 47, 0
3, 450899, Note_on_c, 0, 40, 0
3, 451080, Note_on_c, 0, 55, 50
3, 451080, Note_on_c, 0, 64, 50
3, 451259, Note_on_c, 0, 64, 0
3, 451259, Note_on_c, 0, 55, 0
3, 451440, Note_on_c, 0, 40, 54
3, 451440, Note_on_c, 0, 47, 54
3, 451619, Note_on_c, 0, 47, 0
3, 451619, Note_on_c, 0, 40, 0
3, 451800, Note_on_c, 0, 54, 49
3, 451800, Note_on_c, 0, 57, 49
3, 451800, Note_on_c, 0, 63, 49
3, 451979, Note_on_c, 0, 63, 0
3, 451979, Note_on_c, 0, 57, 0
3, 451979, Note_on_c, 0, 54, 0
3, 452160, Note_on_c, 0, 40, 50
3, 452160, Note_on_c, 0, 47, 50
3, 452339, Note_on_c, 0, 47, 0
3, 452339, Note_on_c, 0, 40, 0
3, 452520, Note_on_c, 0, 52, 50
3, 452520, Note_on_c, 0, 55, 50
3, 452520, Note_on_c, 0, 59, 50
3, 452699, Note_on_c, 0, 59, 0
3, 452699, Note_on_c, 0, 55, 0
3, 452699, Note_on_c, 0, 52, 0
3, 453240, Note_on_c, 0, 54, 51
3, 453240, Note_on_c, 0, 57, 51
3, 453240, Note_on_c, 0, 63, 51
3, 453240, Note_on_c, 0, 40, 59
3, 453240, Note_on_c, 0, 47, 59
3, 453419, Note_on_c, 0, 47, 0
3, 453419, Note_on_c, 0, 63, 0
3, 453419, Note_on_c, 0, 54, 0
3, 453419, Note_on_c, 0, 57, 0
3, 453419, Note_on_c, 0, 40, 0
3, 453600, Note_on_c, 0, 40, 59
3, 453600, Note_on_c, 0, 47, 59
3, 453779, Note_on_c, 0, 47, 0
3, 453779, Note_on_c, 0, 40, 0
3, 453960, Note_on_c, 0, 55, 55
3, 453960, Note_on_c, 0, 64, 55
3, 454139, Note_on_c, 0, 64, 0
3, 454139, Note_on_c, 0, 55, 0
3, 454320, Note_on_c, 0, 40, 53
3, 454320, Note_on_c, 0, 47, 53
3, 454499, Note_on_c, 0, 47, 0
3, 454499, Note_on_c, 0, 40, 0
3, 454680, Note_on_c, 0, 54, 52
3, 454680, Note_on_c, 0, 57, 52
3, 454680, Note_on_c, 0, 63, 52
3, 454859, Note_on_c, 0, 63, 0
3, 454859, Note_on_c, 0, 57, 0
3, 454859, Note_on_c, 0, 54, 0
3, 455040, Note_on_c, 0, 55, 77
3, 455040, Note_on_c, 0, 59, 77
3, 455040, Note_on_c, 0, 40, 75
3, 455040, Note_on_c, 0, 47, 75
3, 455219, Note_on_c, 0, 47, 0
3, 455219, Note_on_c, 0, 55, 0
3, 455219, Note_on_c, 0, 59, 0
3, 455219, Note_on_c, 0, 40, 0
3, 455400, Note_on_c, 0, 55, 87
3, 455400, Note_on_c, 0, 61, 87
3, 455400, Note_on_c, 0, 45, 81
3, 455579, Note_on_c, 0, 45, 0
3, 455579, Note_on_c, 0, 61, 0
3, 455579, Note_on_c, 0, 55, 0
3, 455760, Note_on_c, 0, 38, 60
3, 455760, Note_on_c, 0, 45, 60
3, 455939, Note_on_c, 0, 45, 0
3, 455939, Note_on_c, 0, 38, 0
3, 456120, Note_on_c, 0, 53, 55
3, 456120, Note_on_c, 0, 62, 55
3, 456299, Note_on_c, 0, 62, 0
3, 456299, Note_on_c, 0, 53, 0
3, 456480, Note_on_c, 0, 38, 55
3, 456480, Note_on_c, 0, 45, 55
3, 456659, Note_on_c, 0, 45, 0
3, 456659, Note_on_c, 0, 38, 0
3, 456840, Note_on_c, 0, 52, 55
3, 456840, Note_on_c, 0, 55, 55
3, 456840, Note_on_c, 0, 61, 55
3, 457019, Note_on_c, 0, 61, 0
3, 457019, Note_on_c, 0, 55, 0
3, 457019, Note_on_c, 0, 52, 0
3, 457200, Note_on_c, 0, 38, 59
3, 457200, Note_on_c, 0, 45, 59
3, 457379, Note_on_c, 0, 45, 0
3, 457379, Note_on_c, 0, 38, 0
3, 457560, Note_on_c, 0, 50, 52
3, 457560, Note_on_c, 0, 53, 52
3, 457560, Note_on_c, 0, 57, 52
3, 457739, Note_on_c, 0, 57, 0
3, 457739, Note_on_c, 0, 53, 0
3, 457739, Note_on_c, 0, 50, 0
3, 458280, Note_on_c, 0, 52, 54
3, 458280, Note_on_c, 0, 55, 54
3, 458280, Note_on_c, 0, 61, 54
3, 458280, Note_on_c, 0, 38, 53
3, 458280, Note_on_c, 0, 45, 53
3, 458459, Note_on_c, 0, 45, 0
3, 458459, Note_on_c, 0, 61, 0
3, 458459, Note_on_c, 0, 52, 0
3, 458459, Note_on_c, 0, 55, 0
3, 458459, Note_on_c, 0, 38, 0
3, 458640, Note_on_c, 0, 38, 58
3, 458640, Note_on_c, 0, 45, 58
3, 458819, Note_on_c, 0, 45, 0
3, 458819, Note_on_c, 0, 38, 0
3, 459000, Note_on_c, 0, 53, 55
3, 459000, Note_on_c, 0, 62, 55
3, 459179, Note_on_c, 0, 62, 0
3, 459179, Note_on_c, 0, 53, 0
3, 459360, Note_on_c, 0, 38, 52
3, 459360, Note_on_c, 0, 45, 52
3, 459539, Note_on_c, 0, 45, 0
3, 459539, Note_on_c, 0, 38, 0
3, 459720, Note_on_c, 0, 52, 52
3, 459720, Note_on_c, 0, 55, 52
3, 459720, Note_on_c, 0, 61, 52
3, 459899, Note_on_c, 0, 61, 0
3, 459899, Note_on_c, 0, 55, 0
3, 459899, Note_on_c, 0, 52, 0
3, 460080, Note_on_c, 0, 53, 79
3, 460080, Note_on_c, 0, 57, 79
3, 460080, Note_on_c, 0, 38, 84
3, 460080, Note_on_c, 0, 45, 84
3, 460259, Note_on_c, 0, 45, 0
3, 460259, Note_on_c, 0, 53, 0
3, 460259, Note_on_c, 0, 57, 0
3, 460259, Note_on_c, 0, 38, 0
3, 460440, Note_on_c, 0, 53, 88
3, 460440, Note_on_c, 0, 60, 88
3, 460440, Note_on_c, 0, 43, 84
3, 460619, Note_on_c, 0, 43, 0
3, 460619, Note_on_c, 0, 60, 0
3, 460619, Note_on_c, 0, 53, 0
3, 460800, Note_on_c, 0, 36, 84
3, 460800, Note_on_c, 0, 43, 84
3, 460979, Note_on_c, 0, 43, 0
3, 460979, Note_on_c, 0, 36, 0
3, 461160, Note_on_c, 0, 51, 73
3, 461160, Note_on_c, 0, 55, 73
3, 461160, Note_on_c, 0, 60, 73
3, 461339, Note_on_c, 0, 60, 0
3, 461339, Note_on_c, 0, 55, 0
3, 461339, Note_on_c, 0, 51, 0
3, 461520, Note_on_c, 0, 36, 77
3, 461520, Note_on_c, 0, 43, 77
3, 461699, Note_on_c, 0, 43, 0
3, 461699, Note_on_c, 0, 36, 0
3, 461880, Note_on_c, 0, 50, 81
3, 461880, Note_on_c, 0, 53, 81
3, 461880, Note_on_c, 0, 59, 81
3, 462059, Note_on_c, 0, 59, 0
3, 462059, Note_on_c, 0, 53, 0
3, 462059, Note_on_c, 0, 50, 0
3, 462240, Note_on_c, 0, 36, 76
3, 462240, Note_on_c, 0, 43, 76
3, 462419, Note_on_c, 0, 43, 0
3, 462419, Note_on_c, 0, 36, 0
3, 462600, Note_on_c, 0, 51, 81
3, 462600, Note_on_c, 0, 55, 81
3, 462779, Note_on_c, 0, 55, 0
3, 462779, Note_on_c, 0, 51, 0
3, 463320, Note_on_c, 0, 50, 79
3, 463320, Note_on_c, 0, 53, 79
3, 463320, Note_on_c, 0, 59, 79
3, 463320, Note_on_c, 0, 36, 74
3, 463320, Note_on_c, 0, 43, 74
3, 463499, Note_on_c, 0, 43, 0
3, 463499, Note_on_c, 0, 59, 0
3, 463499, Note_on_c, 0, 50, 0
3, 463499, Note_on_c, 0, 53, 0
3, 463499, Note_on_c, 0, 36, 0
3, 463680, Note_on_c, 0, 36, 85
3, 463680, Note_on_c, 0, 43, 85
3, 463859, Note_on_c, 0, 43, 0
3, 463859, Note_on_c, 0, 36, 0
3, 464040, Note_on_c, 0, 51, 72
3, 464040, Note_on_c, 0, 55, 72
3, 464219, Note_on_c, 0, 55, 0
3, 464219, Note_on_c, 0, 51, 0
3, 464400, Note_on_c, 0, 36, 77
3, 464400, Note_on_c, 0, 43, 77
3, 464579, Note_on_c, 0, 43, 0
3, 464579, Note_on_c, 0, 36, 0
3, 464760, Note_on_c, 0, 50, 75
3, 464760, Note_on_c, 0, 53, 75
3, 464939, Note_on_c, 0, 53, 0
3, 464939, Note_on_c, 0, 50, 0
3, 465120, Note_on_c, 0, 36, 91
3, 465120, Note_on_c, 0, 43, 91
3, 465299, Note_on_c, 0, 43, 0
3, 465299, Note_on_c, 0, 36, 0
3, 465480, Note_on_c, 0, 51, 89
3, 465480, Note_on_c, 0, 55, 89
3, 465659, Note_on_c, 0, 55, 0
3, 465659, Note_on_c, 0, 51, 0
3, 465840, Note_on_c, 0, 36, 84
3, 465840, Note_on_c, 0, 43, 84
3, 466019, Note_on_c, 0, 43, 0
3, 466019, Note_on_c, 0, 36, 0
3, 466200, Note_on_c, 0, 50, 90
3, 466200, Note_on_c, 0, 53, 90
3, 466379, Note_on_c, 0, 53, 0
3, 466379, Note_on_c, 0, 50, 0
3, 466560, Note_on_c, 0, 36, 90
3, 466560, Note_on_c, 0, 43, 90
3, 466739, Note_on_c, 0, 43, 0
3, 466739, Note_on_c, 0, 36, 0
3, 466920, Note_on_c, 0, 52, 93
3, 466920, Note_on_c, 0, 55, 93
3, 467099, Note_on_c, 0, 55, 0
3, 467099, Note_on_c, 0, 52, 0
3, 467280, Note_on_c, 0, 36, 84
3, 467280, Note_on_c, 0, 43, 84
3, 467459, Note_on_c, 0, 43, 0
3, 467459, Note_on_c, 0, 36, 0
3, 467640, Note_on_c, 0, 50, 92
3, 467640, Note_on_c, 0, 53, 92
3, 467819, Note_on_c, 0, 53, 0
3, 467819, Note_on_c, 0, 50, 0
3, 468000, Note_on_c, 0, 36, 88
3, 468000, Note_on_c, 0, 43, 88
3, 468179, Note_on_c, 0, 43, 0
3, 468179, Note_on_c, 0, 36, 0
3, 468360, Note_on_c, 0, 52, 86
3, 468360, Note_on_c, 0, 55, 86
3, 468539, Note_on_c, 0, 55, 0
3, 468539, Note_on_c, 0, 52, 0
3, 468720, Note_on_c, 0, 36, 88
3, 468720, Note_on_c, 0, 43, 88
3, 468899, Note_on_c, 0, 43, 0
3, 468899, Note_on_c, 0, 36, 0
3, 469080, Note_on_c, 0, 50, 85
3, 469080, Note_on_c, 0, 53, 85
3, 469259, Note_on_c, 0, 53, 0
3, 469259, Note_on_c, 0, 50, 0
3, 469440, Note_on_c, 0, 52, 44
3, 469440, Note_on_c, 0, 55, 44
3, 469440, Note_on_c, 0, 58, 44
3, 469440, Note_on_c, 0, 30, 106
3, 469440, Note_on_c, 0, 42, 106
3, 469619, Note_on_c, 0, 42, 0
3, 469619, Note_on_c, 0, 58, 0
3, 469619, Note_on_c, 0, 52, 0
3, 469619, Note_on_c, 0, 55, 0
3, 469619, Note_on_c, 0, 30, 0
3, 470160, Note_on_c, 0, 60, 112
3, 470880, Note_on_c, 0, 52, 63
3, 470880, Note_on_c, 0, 55, 63
3, 470880, Note_on_c, 0, 58, 63
3, 470880, Note_on_c, 0, 30, 104
3, 470880, Note_on_c, 0, 42, 104
3, 471059, Note_on_c, 0, 42, 0
3, 471059, Note_on_c, 0, 52, 0
3, 471059, Note_on_c, 0, 55, 0
3, 471059, Note_on_c, 0, 58, 0
3, 471059, Note_on_c, 0, 30, 0
3, 471240, Note_on_c, 0, 60, 0
3, 471600, Note_on_c, 0, 60, 112
3, 472320, Note_on_c, 0, 52, 40
3, 472320, Note_on_c, 0, 55, 40
3, 472320, Note_on_c, 0, 58, 40
3, 472320, Note_on_c, 0, 30, 87
3, 472320, Note_on_c, 0, 42, 87
3, 472499, Note_on_c, 0, 42, 0
3, 472499, Note_on_c, 0, 52, 0
3, 472499, Note_on_c, 0, 55, 0
3, 472499, Note_on_c, 0, 58, 0
3, 472499, Note_on_c, 0, 30, 0
3, 472680, Note_on_c, 0, 60, 0
3, 472680, Note_on_c, 0, 60, 123
3, 473040, Note_on_c, 0, 52, 45
3, 473040, Note_on_c, 0, 55, 45
3, 473040, Note_on_c, 0, 58, 45
3, 473040, Note_on_c, 0, 30, 91
3, 473040, Note_on_c, 0, 42, 91
3, 473219, Note_on_c, 0, 42, 0
3, 473219, Note_on_c, 0, 52, 0
3, 473219, Note_on_c, 0, 55, 0
3, 473219, Note_on_c, 0, 58, 0
3, 473219, Note_on_c, 0, 30, 0
3, 473400, Note_on_c, 0, 60, 0
3, 473400, Note_on_c, 0, 60, 120
3, 473760, Note_on_c, 0, 52, 39
3, 473760, Note_on_c, 0, 55, 39
3, 473760, Note_on_c, 0, 58, 39
3, 473760, Note_on_c, 0, 30, 87
3, 473760, Note_on_c, 0, 42, 87
3, 473939, Note_on_c, 0, 42, 0
3, 473939, Note_on_c, 0, 52, 0
3, 473939, Note_on_c, 0, 55, 0
3, 473939, Note_on_c, 0, 58, 0
3, 473939, Note_on_c, 0, 30, 0
3, 474120, Note_on_c, 0, 60, 0
3, 474120, Note_on_c, 0, 60, 124
3, 474480, Note_on_c, 0, 52, 41
3, 474480, Note_on_c, 0, 55, 41
3, 474480, Note_on_c, 0, 58, 41
3, 474480, Note_on_c, 0, 30, 88
3, 474480, Note_on_c, 0, 42, 88
3, 474659, Note_on_c, 0, 42, 0
3, 474659, Note_on_c, 0, 52, 0
3, 474659, Note_on_c, 0, 55, 0
3, 474659, Note_on_c, 0, 58, 0
3, 474659, Note_on_c, 0, 30, 0
3, 474840, Note_on_c, 0, 60, 0
3, 474840, Note_on_c, 0, 60, 126
3, 475200, Note_on_c, 0, 60, 0
3, 475380, Note_on_c, 0, 52, 95
3, 475380, Note_on_c, 0, 58, 95
3, 475380, Note_on_c, 0, 42, 88
3, 475469, Note_on_c, 0, 42, 0
3, 475469, Note_on_c, 0, 58, 0
3, 475469, Note_on_c, 0, 52, 0
3, 475740, Note_on_c, 0, 52, 87
3, 475740, Note_on_c, 0, 59, 87
3, 475740, Note_on_c, 0, 43, 81
3, 475829, Note_on_c, 0, 43, 0
3, 475829, Note_on_c, 0, 59, 0
3, 475829, Note_on_c, 0, 52, 0
3, 476100, Note_on_c, 0, 52, 86
3, 476100, Note_on_c, 0, 60, 86
3, 476100, Note_on_c, 0, 44, 90
3, 476189, Note_on_c, 0, 44, 0
3, 476189, Note_on_c, 0, 60, 0
3, 476189, Note_on_c, 0, 52, 0
3, 476460, Note_on_c, 0, 52, 85
3, 476460, Note_on_c, 0, 61, 85
3, 476460, Note_on_c, 0, 45, 85
3, 476549, Note_on_c, 0, 45, 0
3, 476549, Note_on_c, 0, 61, 0
3, 476549, Note_on_c, 0, 52, 0
3, 476820, Note_on_c, 0, 55, 111
3, 476820, Note_on_c, 0, 60, 111
3, 476820, Note_on_c, 0, 46, 116
3, 477180, Note_on_c, 0, 46, 0
3, 477180, Note_on_c, 0, 60, 0
3, 477180, Note_on_c, 0, 55, 0
3, 477180, Note_on_c, 0, 55, 97
3, 477180, Note_on_c, 0, 59, 97
3, 477180, Note_on_c, 0, 47, 101
3, 477269, Note_on_c, 0, 47, 0
3, 477269, Note_on_c, 0, 59, 0
3, 477269, Note_on_c, 0, 55, 0
3, 477540, Note_on_c, 0, 58, 110
3, 477540, Note_on_c, 0, 48, 116
3, 477629, Note_on_c, 0, 48, 0
3, 477629, Note_on_c, 0, 58, 0
3, 477720, Note_on_c, 0, 58, 127
3, 477720, Note_on_c, 0, 63, 127
3, 477720, Note_on_c, 0, 49, 127
3, 477809, Note_on_c, 0, 49, 0
3, 477809, Note_on_c, 0, 63, 0
3, 477809, Note_on_c, 0, 58, 0
3, 477900, Note_on_c, 0, 58, 123
3, 477900, Note_on_c, 0, 62, 123
3, 477900, Note_on_c, 0, 50, 127
3, 477989, Note_on_c, 0, 50, 0
3, 477989, Note_on_c, 0, 62, 0
3, 477989, Note_on_c, 0, 58, 0
3, 478260, Note_on_c, 0, 55, 93
3, 478260, Note_on_c, 0, 61, 93
3, 478260, Note_on_c, 0, 45, 86
3, 478349, Note_on_c, 0, 45, 0
3, 478349, Note_on_c, 0, 61, 0
3, 478349, Note_on_c, 0, 55, 0
3, 478620, Note_on_c, 0, 55, 89
3, 478620, Note_on_c, 0, 62, 89
3, 478620, Note_on_c, 0, 46, 89
3, 478709, Note_on_c, 0, 46, 0
3, 478709, Note_on_c, 0, 62, 0
3, 478709, Note_on_c, 0, 55, 0
3, 478980, Note_on_c, 0, 55, 87
3, 478980, Note_on_c, 0, 63, 87
3, 478980, Note_on_c, 0, 47, 87
3, 479069, Note_on_c, 0, 47, 0
3, 479069, Note_on_c, 0, 63, 0
3, 479069, Note_on_c, 0, 55, 0
3, 479340, Note_on_c, 0, 55, 86
3, 479340, Note_on_c, 0, 64, 86
3, 479340, Note_on_c, 0, 48, 91
3, 479429, Note_on_c, 0, 48, 0
3, 479429, Note_on_c, 0, 64, 0
3, 479429, Note_on_c, 0, 55, 0
3, 479700, Note_on_c, 0, 58, 113
3, 479700, Note_on_c, 0, 63, 113
3, 479700, Note_on_c, 0, 49, 112
3, 480060, Note_on_c, 0, 49, 0
3, 480060, Note_on_c, 0, 63, 0
3, 480060, Note_on_c, 0, 58, 0
3, 480060, Note_on_c, 0, 58, 89
3, 480060, Note_on_c, 0, 62, 89
3, 480060, Note_on_c, 0, 50, 98
3, 480149, Note_on_c, 0, 50, 0
3, 480149, Note_on_c, 0, 62, 0
3, 480149, Note_on_c, 0, 58, 0
3, 480420, Note_on_c, 0, 61, 109
3, 480420, Note_on_c, 0, 51, 116
3, 480509, Note_on_c, 0, 51, 0
3, 480509, Note_on_c, 0, 61, 0
3, 480600, Note_on_c, 0, 61, 125
3, 480600, Note_on_c, 0, 66, 125
3, 480600, Note_on_c, 0, 52, 123
3, 480689, Note_on_c, 0, 52, 0
3, 480689, Note_on_c, 0, 66, 0
3, 480689, Note_on_c, 0, 61, 0
3, 480780, Note_on_c, 0, 61, 121
3, 480780, Note_on_c, 0, 65, 121
3, 480780, Note_on_c, 0, 53, 124
3, 480869, Note_on_c, 0, 53, 0
3, 480869, Note_on_c, 0, 65, 0
3, 480869, Note_on_c, 0, 61, 0
3, 481140, Note_on_c, 0, 58, 117
3, 481140, Note_on_c, 0, 61, 117
3, 481140, Note_on_c, 0, 66, 117
3, 481140, Note_on_c, 0, 52, 113
3, 481500, Note_on_c, 0, 52, 0
3, 481500, Note_on_c, 0, 58, 0
3, 481500, Note_on_c, 0, 61, 0
3, 481500, Note_on_c, 0, 66, 0
3, 481500, Note_on_c, 0, 58, 91
3, 481500, Note_on_c, 0, 61, 91
3, 481500, Note_on_c, 0, 65, 91
3, 481500, Note_on_c, 0, 53, 102
3, 481589, Note_on_c, 0, 53, 0
3, 481589, Note_on_c, 0, 58, 0
3, 481589, Note_on_c, 0, 61, 0
3, 481589, Note_on_c, 0, 65, 0
3, 481860, Note_on_c, 0, 61, 112
3, 481860, Note_on_c, 0, 64, 112
3, 481860, Note_on_c, 0, 54, 113
3, 481949, Note_on_c, 0, 54, 0
3, 481949, Note_on_c, 0, 64, 0
3, 481949, Note_on_c, 0, 61, 0
3, 482040, Note_on_c, 0, 61, 127
3, 482040, Note_on_c, 0, 64, 127
3, 482040, Note_on_c, 0, 69, 127
3, 482040, Note_on_c, 0, 55, 127
3, 482129, Note_on_c, 0, 55, 0
3, 482129, Note_on_c, 0, 61, 0
3, 482129, Note_on_c, 0, 64, 0
3, 482129, Note_on_c, 0, 69, 0
3, 482220, Note_on_c, 0, 61, 119
3, 482220, Note_on_c, 0, 64, 119
3, 482220, Note_on_c, 0, 68, 119
3, 482220, Note_on_c, 0, 56, 124
3, 482309, Note_on_c, 0, 56, 0
3, 482309, Note_on_c, 0, 61, 0
3, 482309, Note_on_c, 0, 64, 0
3, 482309, Note_on_c, 0, 68, 0
3, 482580, Note_on_c, 0, 61, 113
3, 482580, Note_on_c, 0, 64, 113
3, 482580, Note_on_c, 0, 69, 113
3, 482580, Note_on_c, 0, 55, 110
3, 482940, Note_on_c, 0, 55, 0
3, 482940, Note_on_c, 0, 61, 0
3, 482940, Note_on_c, 0, 64, 0
3, 482940, Note_on_c, 0, 69, 0
3, 482940, Note_on_c, 0, 61, 90
3, 482940, Note_on_c, 0, 64, 90
3, 482940, Note_on_c, 0, 68, 90
3, 482940, Note_on_c, 0, 56, 95
3, 483029, Note_on_c, 0, 56, 0
3, 483029, Note_on_c, 0, 61, 0
3, 483029, Note_on_c, 0, 64, 0
3, 483029, Note_on_c, 0, 68, 0
3, 483300, Note_on_c, 0, 64, 112
3, 483300, Note_on_c, 0, 67, 112
3, 483300, Note_on_c, 0, 57, 105
3, 483389, Note_on_c, 0, 67, 0
3, 483389, Note_on_c, 0, 64, 0
3, 483480, Note_on_c, 0, 57, 0
3, 483480, Note_on_c, 0, 64, 127
3, 483480, Note_on_c, 0, 67, 127
3, 483480, Note_on_c, 0, 72, 127
3, 483480, Note_on_c, 0, 58, 127
3, 483569, Note_on_c, 0, 72, 0
3, 483569, Note_on_c, 0, 64, 0
3, 483569, Note_on_c, 0, 67, 0
3, 483660, Note_on_c, 0, 58, 0
3, 483660, Note_on_c, 0, 64, 120
3, 483660, Note_on_c, 0, 67, 120
3, 483660, Note_on_c, 0, 71, 120
3, 483660, Note_on_c, 0, 59, 127
3, 483749, Note_on_c, 0, 71, 0
3, 483749, Note_on_c, 0, 64, 0
3, 483749, Note_on_c, 0, 67, 0
3, 483840, Note_on_c, 0, 59, 0
3, 484020, Note_on_c, 0, 64, 126
3, 484020, Note_on_c, 0, 67, 126
3, 484020, Note_on_c, 0, 72, 126
3, 484020, Note_on_c, 0, 58, 127
3, 484380, Note_on_c, 0, 58, 0
3, 484380, Note_on_c, 0, 64, 0
3, 484380, Note_on_c, 0, 67, 0
3, 484380, Note_on_c, 0, 72, 0
3, 484380, Note_on_c, 0, 64, 106
3, 484380, Note_on_c, 0, 67, 106
3, 484380, Note_on_c, 0, 71, 106
3, 484380, Note_on_c, 0, 59, 115
3, 484469, Note_on_c, 0, 59, 0
3, 484469, Note_on_c, 0, 64, 0
3, 484469, Note_on_c, 0, 67, 0
3, 484469, Note_on_c, 0, 71, 0
3, 484740, Note_on_c, 0, 64, 126
3, 484740, Note_on_c, 0, 67, 126
3, 484740, Note_on_c, 0, 72, 126
3, 484740, Note_on_c, 0, 58, 126
3, 485100, Note_on_c, 0, 58, 0
3, 485100, Note_on_c, 0, 64, 0
3, 485100, Note_on_c, 0, 67, 0
3, 485100, Note_on_c, 0, 72, 0
3, 485100, Note_on_c, 0, 64, 108
3, 485100, Note_on_c, 0, 67, 108
3, 485100, Note_on_c, 0, 71, 108
3, 485100, Note_on_c, 0, 59, 118
3, 485189, Note_on_c, 0, 59, 0
3, 485189, Note_on_c, 0, 64, 0
3, 485189, Note_on_c, 0, 67, 0
3, 485189, Note_on_c, 0, 71, 0
3, 485460, Note_on_c, 0, 55, 127
3, 485460, Note_on_c, 0, 60, 127
3, 485460, Note_on_c, 0, 64, 127
3, 485460, Note_on_c, 0, 46, 127
3, 485820, Note_on_c, 0, 46, 0
3, 485820, Note_on_c, 0, 55, 0
3, 485820, Note_on_c, 0, 60, 0
3, 485820, Note_on_c, 0, 64, 0
3, 485820, Note_on_c, 0, 55, 113
3, 485820, Note_on_c, 0, 59, 113
3, 485820, Note_on_c, 0, 64, 113
3, 485820, Note_on_c, 0, 47, 114
3, 485909, Note_on_c, 0, 47, 0
3, 485909, Note_on_c, 0, 55, 0
3, 485909, Note_on_c, 0, 59, 0
3, 485909, Note_on_c, 0, 64, 0
3, 486180, Note_on_c, 0, 55, 127
3, 486180, Note_on_c, 0, 60, 127
3, 486180, Note_on_c, 0, 64, 127
3, 486180, Note_on_c, 0, 46, 126
3, 486540, Note_on_c, 0, 46, 0
3, 486540, Note_on_c, 0, 55, 0
3, 486540, Note_on_c, 0, 60, 0
3, 486540, Note_on_c, 0, 64, 0
3, 486540, Note_on_c, 0, 55, 111
3, 486540, Note_on_c, 0, 59, 111
3, 486540, Note_on_c, 0, 64, 111
3, 486540, Note_on_c, 0, 47, 112
3, 486629, Note_on_c, 0, 47, 0
3, 486629, Note_on_c, 0, 55, 0
3, 486629, Note_on_c, 0, 59, 0
3, 486629, Note_on_c, 0, 64, 0
3, 486720, Note_on_c, 0, 52, 127
3, 486720, Note_on_c, 0, 56, 127
3, 486720, Note_on_c, 0, 57, 127
3, 486720, Note_on_c, 0, 42, 127
3, 487440, Note_on_c, 0, 42, 0
3, 487440, Note_on_c, 0, 52, 0
3, 487440, Note_on_c, 0, 56, 0
3, 487440, Note_on_c, 0, 57, 0
3, 487440, Note_on_c, 0, 60, 126
3, 487620, Note_on_c, 0, 60, 0
3, 487620, Note_on_c, 0, 60, 127
3, 487800, Note_on_c, 0, 60, 0
3, 487800, Note_on_c, 0, 60, 127
3, 487980, Note_on_c, 0, 60, 0
3, 487980, Note_on_c, 0, 60, 127
3, 488160, Note_on_c, 0, 52, 127
3, 488160, Note_on_c, 0, 56, 127
3, 488160, Note_on_c, 0, 57, 127
3, 488160, Note_on_c, 0, 42, 112
3, 488520, Note_on_c, 0, 60, 0
3, 488880, Note_on_c, 0, 57, 0
3, 488880, Note_on_c, 0, 52, 0
3, 488880, Note_on_c, 0, 56, 0
3, 488880, Note_on_c, 0, 42, 0
3, 488880, Note_on_c, 0, 60, 127
3, 489060, Note_on_c, 0, 60, 0
3, 489060, Note_on_c, 0, 60, 127
3, 489240, Note_on_c, 0, 60, 0
3, 489240, Note_on_c, 0, 60, 127
3, 489420, Note_on_c, 0, 60, 0
3, 489420, Note_on_c, 0, 60, 127
3, 489600, Note_on_c, 0, 52, 127
3, 489600, Note_on_c, 0, 56, 127
3, 489600, Note_on_c, 0, 57, 127
3, 489600, Note_on_c, 0, 42, 112
3, 489960, Note_on_c, 0, 60, 0
3, 489960, Note_on_c, 0, 60, 127
3, 490320, Note_on_c, 0, 57, 0
3, 490320, Note_on_c, 0, 42, 0
3, 490320, Note_on_c, 0, 52, 0
3, 490320, Note_on_c, 0, 56, 0
3, 490320, Note_on_c, 0, 52, 127
3, 490320, Note_on_c, 0, 56, 127
3, 490320, Note_on_c, 0, 57, 127
3, 490320, Note_on_c, 0, 42, 120
3, 490680, Note_on_c, 0, 60, 0
3, 490680, Note_on_c, 0, 60, 127
3, 491040, Note_on_c, 0, 57, 0
3, 491040, Note_on_c, 0, 42, 0
3, 491040, Note_on_c, 0, 52, 0
3, 491040, Note_on_c, 0, 56, 0
3, 491040, Note_on_c, 0, 52, 127
3, 491040, Note_on_c, 0, 56, 127
3, 491040, Note_on_c, 0, 57, 127
3, 491040, Note_on_c, 0, 42, 126
3, 491400, Note_on_c, 0, 60, 0
3, 491400, Note_on_c, 0, 60, 127
3, 491760, Note_on_c, 0, 57, 0
3, 491760, Note_on_c, 0, 42, 0
3, 491760, Note_on_c, 0, 52, 0
3, 491760, Note_on_c, 0, 56, 0
3, 491760, Note_on_c, 0, 52, 127
3, 491760, Note_on_c, 0, 56, 127
3, 491760, Note_on_c, 0, 57, 127
3, 491760, Note_on_c, 0, 42, 124
3, 492120, Note_on_c, 0, 60, 0
3, 492120, Note_on_c, 0, 60, 127
3, 492480, Note_on_c, 0, 60, 0
3, 492480, Note_on_c, 0, 42, 0
3, 492480, Note_on_c, 0, 52, 0
3, 492480, Note_on_c, 0, 56, 0
3, 492480, Note_on_c, 0, 57, 0
3, 492480, Note_on_c, 0, 52, 127
3, 492480, Note_on_c, 0, 55, 127
3, 492480, Note_on_c, 0, 59, 127
3, 492480, Note_on_c, 0, 35, 127
3, 492480, Note_on_c, 0, 47, 127
3, 492569, Note_on_c, 0, 59, 0
3, 492569, Note_on_c, 0, 52, 0
3, 492569, Note_on_c, 0, 55, 0
3, 492660, Note_on_c, 0, 35, 0
3, 492660, Note_on_c, 0, 47, 0
3, 492840, Note_on_c, 0, 58, 127
3, 492960, Note_on_c, 0, 58, 0
3, 492960, Note_on_c, 0, 58, 127
3, 493079, Note_on_c, 0, 58, 0
3, 493079, Note_on_c, 0, 58, 127
3, 493200, Note_on_c, 0, 58, 0
3, 493200, Note_on_c, 0, 52, 127
3, 493200, Note_on_c, 0, 55, 127
3, 493200, Note_on_c, 0, 59, 127
3, 493200, Note_on_c, 0, 35, 116
3, 493200, Note_on_c, 0, 47, 116
3, 493289, Note_on_c, 0, 59, 0
3, 493289, Note_on_c, 0, 52, 0
3, 493289, Note_on_c, 0, 55, 0
3, 493380, Note_on_c, 0, 35, 0
3, 493380, Note_on_c, 0, 47, 0
3, 493560, Note_on_c, 0, 58, 124
3, 493680, Note_on_c, 0, 58, 0
3, 493680, Note_on_c, 0, 58, 127
3, 493799, Note_on_c, 0, 58, 0
3, 493799, Note_on_c, 0, 58, 127
3, 493920, Note_on_c, 0, 58, 0
3, 493920, Note_on_c, 0, 52, 127
3, 493920, Note_on_c, 0, 55, 127
3, 493920, Note_on_c, 0, 59, 127
3, 493920, Note_on_c, 0, 35, 127
3, 493920, Note_on_c, 0, 47, 127
3, 494009, Note_on_c, 0, 59, 0
3, 494009, Note_on_c, 0, 52, 0
3, 494009, Note_on_c, 0, 55, 0
3, 494100, Note_on_c, 0, 35, 0
3, 494100, Note_on_c, 0, 47, 0
3, 494280, Note_on_c, 0, 58, 125
3, 494400, Note_on_c, 0, 58, 0
3, 494400, Note_on_c, 0, 58, 127
3, 494519, Note_on_c, 0, 58, 0
3, 494519, Note_on_c, 0, 58, 127
3, 494640, Note_on_c, 0, 58, 0
3, 494640, Note_on_c, 0, 52, 127
3, 494640, Note_on_c, 0, 55, 127
3, 494640, Note_on_c, 0, 59, 127
3, 494640, Note_on_c, 0, 35, 127
3, 494640, Note_on_c, 0, 47, 127
3, 494729, Note_on_c, 0, 59, 0
3, 494729, Note_on_c, 0, 52, 0
3, 494729, Note_on_c, 0, 55, 0
3, 494820, Note_on_c, 0, 35, 0
3, 494820, Note_on_c, 0, 47, 0
3, 495000, Note_on_c, 0, 58, 126
3, 495120, Note_on_c, 0, 58, 0
3, 495120, Note_on_c, 0, 58, 127
3, 495239, Note_on_c, 0, 58, 0
3, 495239, Note_on_c, 0, 58, 127
3, 495360, Note_on_c, 0, 58, 0
3, 495360, Note_on_c, 0, 59, 127
3, 495720, Note_on_c, 0, 59, 0
3, 495720, Note_on_c, 0, 58, 127
3, 496080, Note_on_c, 0, 58, 0
3, 496080, Note_on_c, 0, 58, 127
3, 496080, Note_on_c, 0, 52, 127
3, 496440, Note_on_c, 0, 52, 0
3, 496440, Note_on_c, 0, 58, 0
3, 496440, Note_on_c, 0, 57, 127
3, 496440, Note_on_c, 0, 48, 127
3, 496800, Note_on_c, 0, 48, 0
3, 496800, Note_on_c, 0, 57, 0
3, 496800, Note_on_c, 0, 55, 127
3, 496800, Note_on_c, 0, 61, 127
3, 496800, Note_on_c, 0, 46, 127
3, 497160, Note_on_c, 0, 46, 0
3, 497160, Note_on_c, 0, 61, 0
3, 497160, Note_on_c, 0, 55, 0
3, 497160, Note_on_c, 0, 52, 127
3, 497160, Note_on_c, 0, 58, 127
3, 497160, Note_on_c, 0, 43, 127
3, 497520, Note_on_c, 0, 43, 0
3, 497520, Note_on_c, 0, 58, 0
3, 497520, Note_on_c, 0, 52, 0
3, 497520, Note_on_c, 0, 57, 127
3, 497520, Note_on_c, 0, 63, 127
3, 497520, Note_on_c, 0, 36, 127
3, 497520, Note_on_c, 0, 48, 127
3, 497609, Note_on_c, 0, 48, 0
3, 497609, Note_on_c, 0, 57, 0
3, 497609, Note_on_c, 0, 63, 0
3, 497609, Note_on_c, 0, 36, 0
3, 497700, Note_on_c, 0, 57, 127
3, 497700, Note_on_c, 0, 63, 127
3, 497700, Note_on_c, 0, 35, 127
3, 497700, Note_on_c, 0, 47, 127
3, 498060, Note_on_c, 0, 47, 0
3, 498060, Note_on_c, 0, 57, 0
3, 498060, Note_on_c, 0, 63, 0
3, 498060, Note_on_c, 0, 35, 0
3, 498060, Note_on_c, 0, 57, 127
3, 498060, Note_on_c, 0, 63, 127
3, 498060, Note_on_c, 0, 35, 127
3, 498060, Note_on_c, 0, 47, 127
3, 498240, Note_on_c, 0, 47, 0
3, 498240, Note_on_c, 0, 57, 0
3, 498240, Note_on_c, 0, 63, 0
3, 498240, Note_on_c, 0, 35, 0
3, 498240, Note_on_c, 0, 55, 127
3, 498240, Note_on_c, 0, 59, 127
3, 498240, Note_on_c, 0, 64, 127
3, 498240, Note_on_c, 0, 40, 127
3, 498240, Note_on_c, 0, 47, 127
3, 498329, Note_on_c, 0, 64, 0
3, 498329, Note_on_c, 0, 55, 0
3, 498329, Note_on_c, 0, 59, 0
3, 498420, Note_on_c, 0, 40, 0
3, 498420, Note_on_c, 0, 47, 0
3, 498600, Note_on_c, 0, 40, 85
3, 498672, Note_on_c, 0, 47, 85
3, 498960, Note_on_c, 0, 47, 0
3, 498960, Note_on_c, 0, 40, 0
3, 498960, Note_on_c, 0, 40, 93
3, 499032, Note_on_c, 0, 47, 93
3, 499320, Note_on_c, 0, 47, 0
3, 499320, Note_on_c, 0, 40, 0
3, 499320, Note_on_c, 0, 40, 100
3, 499392, Note_on_c, 0, 47, 100
3, 499680, Note_on_c, 0, 47, 0
3, 499680, Note_on_c, 0, 40, 0
3, 499680, Note_on_c, 0, 71, 73
3, 499680, Note_on_c, 0, 40, 58
3, 499680, Note_on_c, 0, 47, 58
3, 499769, Note_on_c, 0, 71, 0
3, 499859, Note_on_c, 0, 47, 0
3, 499859, Note_on_c, 0, 40, 0
3, 499860, Note_on_c, 0, 72, 86
3, 499950, Note_on_c, 0, 72, 0
3, 499950, Note_on_c, 0, 71, 82
3, 500040, Note_on_c, 0, 71, 0
3, 500040, Note_on_c, 0, 69, 77
3, 500040, Note_on_c, 0, 40, 61
3, 500040, Note_on_c, 0, 47, 61
3, 500129, Note_on_c, 0, 69, 0
3, 500219, Note_on_c, 0, 47, 0
3, 500219, Note_on_c, 0, 40, 0
3, 500220, Note_on_c, 0, 71, 90
3, 500309, Note_on_c, 0, 71, 0
3, 500400, Note_on_c, 0, 67, 79
3, 500400, Note_on_c, 0, 40, 58
3, 500400, Note_on_c, 0, 47, 58
3, 500489, Note_on_c, 0, 67, 0
3, 500579, Note_on_c, 0, 47, 0
3, 500579, Note_on_c, 0, 40, 0
3, 500580, Note_on_c, 0, 67, 85
3, 500670, Note_on_c, 0, 67, 0
3, 500670, Note_on_c, 0, 69, 90
3, 500760, Note_on_c, 0, 69, 0
3, 500760, Note_on_c, 0, 71, 97
3, 500760, Note_on_c, 0, 40, 61
3, 500760, Note_on_c, 0, 47, 61
3, 500939, Note_on_c, 0, 47, 0
3, 500939, Note_on_c, 0, 40, 0
3, 501077, Note_on_c, 0, 71, 0
3, 501120, Note_on_c, 0, 71, 85
3, 501120, Note_on_c, 0, 40, 62
3, 501120, Note_on_c, 0, 47, 62
3, 501209, Note_on_c, 0, 71, 0
3, 501299, Note_on_c, 0, 47, 0
3, 501299, Note_on_c, 0, 40, 0
3, 501300, Note_on_c, 0, 72, 88
3, 501390, Note_on_c, 0, 72, 0
3, 501390, Note_on_c, 0, 71, 79
3, 501480, Note_on_c, 0, 71, 0
3, 501480, Note_on_c, 0, 69, 80
3, 501480, Note_on_c, 0, 40, 59
3, 501480, Note_on_c, 0, 47, 59
3, 501569, Note_on_c, 0, 69, 0
3, 501659, Note_on_c, 0, 47, 0
3, 501659, Note_on_c, 0, 40, 0
3, 501660, Note_on_c, 0, 71, 84
3, 501749, Note_on_c, 0, 71, 0
3, 501840, Note_on_c, 0, 67, 74
3, 501840, Note_on_c, 0, 40, 63
3, 501840, Note_on_c, 0, 47, 63
3, 501929, Note_on_c, 0, 67, 0
3, 502019, Note_on_c, 0, 47, 0
3, 502019, Note_on_c, 0, 40, 0
3, 502020, Note_on_c, 0, 67, 81
3, 502110, Note_on_c, 0, 67, 0
3, 502110, Note_on_c, 0, 69, 89
3, 502200, Note_on_c, 0, 69, 0
3, 502200, Note_on_c, 0, 71, 98
3, 502200, Note_on_c, 0, 40, 58
3, 502200, Note_on_c, 0, 47, 58
3, 502379, Note_on_c, 0, 47, 0
3, 502379, Note_on_c, 0, 40, 0
3, 502517, Note_on_c, 0, 71, 0
3, 502560, Note_on_c, 0, 66, 72
3, 502560, Note_on_c, 0, 35, 60
3, 502560, Note_on_c, 0, 47, 60
3, 502649, Note_on_c, 0, 66, 0
3, 502739, Note_on_c, 0, 47, 0
3, 502739, Note_on_c, 0, 35, 0
3, 502740, Note_on_c, 0, 67, 90
3, 502830, Note_on_c, 0, 67, 0
3, 502830, Note_on_c, 0, 66, 80
3, 502920, Note_on_c, 0, 66, 0
3, 502920, Note_on_c, 0, 64, 78
3, 502920, Note_on_c, 0, 42, 58
3, 503009, Note_on_c, 0, 64, 0
3, 503099, Note_on_c, 0, 42, 0
3, 503100, Note_on_c, 0, 66, 92
3, 503189, Note_on_c, 0, 66, 0
3, 503280, Note_on_c, 0, 62, 78
3, 503280, Note_on_c, 0, 35, 62
3, 503280, Note_on_c, 0, 47, 62
3, 503369, Note_on_c, 0, 62, 0
3, 503459, Note_on_c, 0, 47, 0
3, 503459, Note_on_c, 0, 35, 0
3, 503460, Note_on_c, 0, 62, 84
3, 503550, Note_on_c, 0, 62, 0
3, 503550, Note_on_c, 0, 64, 86
3, 503640, Note_on_c, 0, 64, 0
3, 503640, Note_on_c, 0, 66, 99
3, 503640, Note_on_c, 0, 35, 64
3, 503640, Note_on_c, 0, 47, 64
3, 503819, Note_on_c, 0, 47, 0
3, 503819, Note_on_c, 0, 35, 0
3, 503957, Note_on_c, 0, 66, 0
3, 504000, Note_on_c, 0, 66, 84
3, 504000, Note_on_c, 0, 35, 65
3, 504000, Note_on_c, 0, 47, 65
3, 504089, Note_on_c, 0, 66, 0
3, 504179, Note_on_c, 0, 47, 0
3, 504179, Note_on_c, 0, 35, 0
3, 504180, Note_on_c, 0, 67, 92
3, 504270, Note_on_c, 0, 67, 0
3, 504270, Note_on_c, 0, 66, 81
3, 504360, Note_on_c, 0, 66, 0
3, 504360, Note_on_c, 0, 64, 77
3, 504360, Note_on_c, 0, 42, 59
3, 504449, Note_on_c, 0, 64, 0
3, 504539, Note_on_c, 0, 42, 0
3, 504540, Note_on_c, 0, 66, 88
3, 504629, Note_on_c, 0, 66, 0
3, 504720, Note_on_c, 0, 62, 74
3, 504720, Note_on_c, 0, 35, 60
3, 504720, Note_on_c, 0, 47, 60
3, 504809, Note_on_c, 0, 62, 0
3, 504899, Note_on_c, 0, 47, 0
3, 504899, Note_on_c, 0, 35, 0
3, 504900, Note_on_c, 0, 62, 83
3, 504990, Note_on_c, 0, 62, 0
3, 504990, Note_on_c, 0, 64, 85
3, 505080, Note_on_c, 0, 64, 0
3, 505080, Note_on_c, 0, 66, 100
3, 505080, Note_on_c, 0, 35, 61
3, 505080, Note_on_c, 0, 47, 61
3, 505259, Note_on_c, 0, 47, 0
3, 505259, Note_on_c, 0, 35, 0
3, 505397, Note_on_c, 0, 66, 0
3, 505440, Note_on_c, 0, 71, 96
3, 505440, Note_on_c, 0, 40, 61
3, 505440, Note_on_c, 0, 47, 61
3, 505529, Note_on_c, 0, 71, 0
3, 505619, Note_on_c, 0, 47, 0
3, 505619, Note_on_c, 0, 40, 0
3, 505620, Note_on_c, 0, 72, 93
3, 505710, Note_on_c, 0, 72, 0
3, 505710, Note_on_c, 0, 71, 82
3, 505800, Note_on_c, 0, 71, 0
3, 505800, Note_on_c, 0, 69, 76
3, 505800, Note_on_c, 0, 40, 58
3, 505800, Note_on_c, 0, 47, 58
3, 505889, Note_on_c, 0, 69, 0
3, 505979, Note_on_c, 0, 47, 0
3, 505979, Note_on_c, 0, 40, 0
3, 505980, Note_on_c, 0, 71, 87
3, 506069, Note_on_c, 0, 71, 0
3, 506160, Note_on_c, 0, 67, 73
3, 506160, Note_on_c, 0, 40, 60
3, 506160, Note_on_c, 0, 47, 60
3, 506249, Note_on_c, 0, 67, 0
3, 506339, Note_on_c, 0, 47, 0
3, 506339, Note_on_c, 0, 40, 0
3, 506340, Note_on_c, 0, 67, 86
3, 506430, Note_on_c, 0, 67, 0
3, 506430, Note_on_c, 0, 69, 86
3, 506520, Note_on_c, 0, 69, 0
3, 506520, Note_on_c, 0, 71, 104
3, 506520, Note_on_c, 0, 40, 56
3, 506520, Note_on_c, 0, 47, 56
3, 506699, Note_on_c, 0, 47, 0
3, 506699, Note_on_c, 0, 40, 0
3, 506837, Note_on_c, 0, 71, 0
3, 506880, Note_on_c, 0, 71, 83
3, 506880, Note_on_c, 0, 40, 56
3, 506880, Note_on_c, 0, 47, 56
3, 506969, Note_on_c, 0, 71, 0
3, 507059, Note_on_c, 0, 47, 0
3, 507059, Note_on_c, 0, 40, 0
3, 507060, Note_on_c, 0, 72, 88
3, 507150, Note_on_c, 0, 72, 0
3, 507150, Note_on_c, 0, 71, 75
3, 507240, Note_on_c, 0, 71, 0
3, 507240, Note_on_c, 0, 69, 73
3, 507240, Note_on_c, 0, 40, 58
3, 507240, Note_on_c, 0, 47, 58
3, 507329, Note_on_c, 0, 69, 0
3, 507419, Note_on_c, 0, 47, 0
3, 507419, Note_on_c, 0, 40, 0
3, 507420, Note_on_c, 0, 71, 90
3, 507509, Note_on_c, 0, 71, 0
3, 507600, Note_on_c, 0, 67, 74
3, 507600, Note_on_c, 0, 40, 58
3, 507600, Note_on_c, 0, 47, 58
3, 507689, Note_on_c, 0, 67, 0
3, 507779, Note_on_c, 0, 47, 0
3, 507779, Note_on_c, 0, 40, 0
3, 507780, Note_on_c, 0, 67, 84
3, 507870, Note_on_c, 0, 67, 0
3, 507870, Note_on_c, 0, 69, 90
3, 507960, Note_on_c, 0, 69, 0
3, 507960, Note_on_c, 0, 71, 101
3, 507960, Note_on_c, 0, 40, 61
3, 507960, Note_on_c, 0, 47, 61
3, 508139, Note_on_c, 0, 47, 0
3, 508139, Note_on_c, 0, 40, 0
3, 508277, Note_on_c, 0, 71, 0
3, 508320, Note_on_c, 0, 66, 70
3, 508320, Note_on_c, 0, 35, 58
3, 508320, Note_on_c, 0, 47, 58
3, 508409, Note_on_c, 0, 66, 0
3, 508499, Note_on_c, 0, 47, 0
3, 508499, Note_on_c, 0, 35, 0
3, 508500, Note_on_c, 0, 67, 87
3, 508590, Note_on_c, 0, 67, 0
3, 508590, Note_on_c, 0, 66, 81
3, 508680, Note_on_c, 0, 66, 0
3, 508680, Note_on_c, 0, 64, 75
3, 508680, Note_on_c, 0, 42, 55
3, 508769, Note_on_c, 0, 64, 0
3, 508859, Note_on_c, 0, 42, 0
3, 508860, Note_on_c, 0, 66, 89
3, 508949, Note_on_c, 0, 66, 0
3, 509040, Note_on_c, 0, 62, 74
3, 509040, Note_on_c, 0, 35, 64
3, 509040, Note_on_c, 0, 47, 64
3, 509129, Note_on_c, 0, 62, 0
3, 509219, Note_on_c, 0, 47, 0
3, 509219, Note_on_c, 0, 35, 0
3, 509220, Note_on_c, 0, 62, 78
3, 509310, Note_on_c, 0, 62, 0
3, 509310, Note_on_c, 0, 64, 87
3, 509400, Note_on_c, 0, 64, 0
3, 509400, Note_on_c, 0, 66, 106
3, 509400, Note_on_c, 0, 35, 64
3, 509400, Note_on_c, 0, 47, 64
3, 509579, Note_on_c, 0, 47, 0
3, 509579, Note_on_c, 0, 35, 0
3, 509717, Note_on_c, 0, 66, 0
3, 509760, Note_on_c, 0, 66, 86
3, 509760, Note_on_c, 0, 35, 60
3, 509760, Note_on_c, 0, 47, 60
3, 509849, Note_on_c, 0, 66, 0
3, 509939, Note_on_c, 0, 47, 0
3, 509939, Note_on_c, 0, 35, 0
3, 509940, Note_on_c, 0, 67, 89
3, 510030, Note_on_c, 0, 67, 0
3, 510030, Note_on_c, 0, 66, 82
3, 510120, Note_on_c, 0, 66, 0
3, 510120, Note_on_c, 0, 64, 78
3, 510120, Note_on_c, 0, 42, 53
3, 510209, Note_on_c, 0, 64, 0
3, 510299, Note_on_c, 0, 42, 0
3, 510300, Note_on_c, 0, 66, 85
3, 510389, Note_on_c, 0, 66, 0
3, 510480, Note_on_c, 0, 62, 75
3, 510480, Note_on_c, 0, 35, 65
3, 510480, Note_on_c, 0, 47, 65
3, 510569, Note_on_c, 0, 62, 0
3, 510659, Note_on_c, 0, 47, 0
3, 510659, Note_on_c, 0, 35, 0
3, 510660, Note_on_c, 0, 62, 86
3, 510750, Note_on_c, 0, 62, 0
3, 510750, Note_on_c, 0, 64, 87
3, 510840, Note_on_c, 0, 64, 0
3, 510840, Note_on_c, 0, 66, 90
3, 510840, Note_on_c, 0, 35, 60
3, 510840, Note_on_c, 0, 47, 60
3, 511019, Note_on_c, 0, 47, 0
3, 511019, Note_on_c, 0, 35, 0
3, 511019, Note_on_c, 0, 66, 0
3, 511200, Note_on_c, 0, 59, 83
3, 511200, Note_on_c, 0, 43, 97
3, 511290, Note_on_c, 0, 43, 0
3, 511290, Note_on_c, 0, 59, 0
3, 511290, Note_on_c, 0, 55, 86
3, 511290, Note_on_c, 0, 50, 100
3, 511380, Note_on_c, 0, 50, 0
3, 511380, Note_on_c, 0, 55, 0
3, 511380, Note_on_c, 0, 59, 90
3, 511380, Note_on_c, 0, 43, 104
3, 511470, Note_on_c, 0, 43, 0
3, 511470, Note_on_c, 0, 59, 0
3, 511470, Note_on_c, 0, 55, 93
3, 511470, Note_on_c, 0, 50, 107
3, 511560, Note_on_c, 0, 50, 0
3, 511560, Note_on_c, 0, 55, 0
3, 511560, Note_on_c, 0, 59, 96
3, 511560, Note_on_c, 0, 43, 110
3, 511650, Note_on_c, 0, 43, 0
3, 511650, Note_on_c, 0, 59, 0
3, 511650, Note_on_c, 0, 57, 99
3, 511650, Note_on_c, 0, 51, 113
3, 511740, Note_on_c, 0, 51, 0
3, 511740, Note_on_c, 0, 57, 0
3, 511740, Note_on_c, 0, 59, 102
3, 511740, Note_on_c, 0, 43, 116
3, 511830, Note_on_c, 0, 43, 0
3, 511830, Note_on_c, 0, 59, 0
3, 511830, Note_on_c, 0, 57, 106
3, 511830, Note_on_c, 0, 51, 120
3, 511920, Note_on_c, 0, 51, 0
3, 511920, Note_on_c, 0, 57, 0
3, 511920, Note_on_c, 0, 59, 109
3, 511920, Note_on_c, 0, 43, 123
3, 512010, Note_on_c, 0, 43, 0
3, 512010, Note_on_c, 0, 59, 0
3, 512010, Note_on_c, 0, 55, 106
3, 512010, Note_on_c, 0, 52, 120
3, 512100, Note_on_c, 0, 52, 0
3, 512100, Note_on_c, 0, 55, 0
3, 512100, Note_on_c, 0, 59, 102
3, 512100, Note_on_c, 0, 43, 116
3, 512190, Note_on_c, 0, 43, 0
3, 512190, Note_on_c, 0, 59, 0
3, 512190, Note_on_c, 0, 55, 99
3, 512190, Note_on_c, 0, 52, 113
3, 512280, Note_on_c, 0, 52, 0
3, 512280, Note_on_c, 0, 55, 0
3, 512280, Note_on_c, 0, 59, 96
3, 512280, Note_on_c, 0, 43, 110
3, 512370, Note_on_c, 0, 43, 0
3, 512370, Note_on_c, 0, 59, 0
3, 512370, Note_on_c, 0, 55, 93
3, 512370, Note_on_c, 0, 52, 107
3, 512460, Note_on_c, 0, 52, 0
3, 512460, Note_on_c, 0, 55, 0
3, 512460, Note_on_c, 0, 59, 90
3, 512460, Note_on_c, 0, 43, 104
3, 512550, Note_on_c, 0, 43, 0
3, 512550, Note_on_c, 0, 59, 0
3, 512550, Note_on_c, 0, 57, 86
3, 512550, Note_on_c, 0, 51, 100
3, 512640, Note_on_c, 0, 51, 0
3, 512640, Note_on_c, 0, 57, 0
3, 512640, Note_on_c, 0, 59, 83
3, 512640, Note_on_c, 0, 43, 97
3, 512730, Note_on_c, 0, 43, 0
3, 512730, Note_on_c, 0, 59, 0
3, 512730, Note_on_c, 0, 55, 86
3, 512730, Note_on_c, 0, 50, 100
3, 512820, Note_on_c, 0, 50, 0
3, 512820, Note_on_c, 0, 55, 0
3, 512820, Note_on_c, 0, 59, 90
3, 512820, Note_on_c, 0, 43, 104
3, 512910, Note_on_c, 0, 43, 0
3, 512910, Note_on_c, 0, 59, 0
3, 512910, Note_on_c, 0, 55, 93
3, 512910, Note_on_c, 0, 50, 107
3, 513000, Note_on_c, 0, 50, 0
3, 513000, Note_on_c, 0, 55, 0
3, 513000, Note_on_c, 0, 59, 96
3, 513000, Note_on_c, 0, 43, 110
3, 513090, Note_on_c, 0, 43, 0
3, 513090, Note_on_c, 0, 59, 0
3, 513090, Note_on_c, 0, 57, 99
3, 513090, Note_on_c, 0, 51, 113
3, 513180, Note_on_c, 0, 51, 0
3, 513180, Note_on_c, 0, 57, 0
3, 513180, Note_on_c, 0, 59, 102
3, 513180, Note_on_c, 0, 43, 116
3, 513270, Note_on_c, 0, 43, 0
3, 513270, Note_on_c, 0, 59, 0
3, 513270, Note_on_c, 0, 57, 106
3, 513270, Note_on_c, 0, 51, 120
3, 513360, Note_on_c, 0, 51, 0
3, 513360, Note_on_c, 0, 57, 0
3, 513360, Note_on_c, 0, 59, 109
3, 513360, Note_on_c, 0, 43, 123
3, 513450, Note_on_c, 0, 43, 0
3, 513450, Note_on_c, 0, 59, 0
3, 513450, Note_on_c, 0, 57, 106
3, 513450, Note_on_c, 0, 52, 120
3, 513540, Note_on_c, 0, 52, 0
3, 513540, Note_on_c, 0, 57, 0
3, 513540, Note_on_c, 0, 59, 102
3, 513540, Note_on_c, 0, 43, 116
3, 513630, Note_on_c, 0, 43, 0
3, 513630, Note_on_c, 0, 59, 0
3, 513630, Note_on_c, 0, 55, 99
3, 513630, Note_on_c, 0, 52, 113
3, 513720, Note_on_c, 0, 52, 0
3, 513720, Note_on_c, 0, 55, 0
3, 513720, Note_on_c, 0, 59, 96
3, 513720, Note_on_c, 0, 43, 110
3, 513810, Note_on_c, 0, 43, 0
3, 513810, Note_on_c, 0, 59, 0
3, 513810, Note_on_c, 0, 55, 93
3, 513810, Note_on_c, 0, 52, 107
3, 513900, Note_on_c, 0, 52, 0
3, 513900, Note_on_c, 0, 55, 0
3, 513900, Note_on_c, 0, 59, 90
3, 513900, Note_on_c, 0, 43, 104
3, 513990, Note_on_c, 0, 43, 0
3, 513990, Note_on_c, 0, 59, 0
3, 513990, Note_on_c, 0, 55, 86
3, 513990, Note_on_c, 0, 51, 100
3, 514080, Note_on_c, 0, 51, 0
3, 514080, Note_on_c, 0, 55, 0
3, 514080, Note_on_c, 0, 57, 83
3, 514080, Note_on_c, 0, 38, 97
3, 514170, Note_on_c, 0, 38, 0
3, 514170, Note_on_c, 0, 57, 0
3, 514170, Note_on_c, 0, 54, 86
3, 514170, Note_on_c, 0, 45, 100
3, 514260, Note_on_c, 0, 45, 0
3, 514260, Note_on_c, 0, 54, 0
3, 514260, Note_on_c, 0, 57, 90
3, 514260, Note_on_c, 0, 38, 104
3, 514350, Note_on_c, 0, 38, 0
3, 514350, Note_on_c, 0, 57, 0
3, 514350, Note_on_c, 0, 54, 93
3, 514350, Note_on_c, 0, 45, 107
3, 514440, Note_on_c, 0, 45, 0
3, 514440, Note_on_c, 0, 54, 0
3, 514440, Note_on_c, 0, 58, 96
3, 514440, Note_on_c, 0, 38, 110
3, 514530, Note_on_c, 0, 38, 0
3, 514530, Note_on_c, 0, 58, 0
3, 514530, Note_on_c, 0, 54, 99
3, 514530, Note_on_c, 0, 46, 113
3, 514620, Note_on_c, 0, 46, 0
3, 514620, Note_on_c, 0, 54, 0
3, 514620, Note_on_c, 0, 58, 102
3, 514620, Note_on_c, 0, 38, 116
3, 514710, Note_on_c, 0, 38, 0
3, 514710, Note_on_c, 0, 58, 0
3, 514710, Note_on_c, 0, 54, 106
3, 514710, Note_on_c, 0, 46, 120
3, 514800, Note_on_c, 0, 46, 0
3, 514800, Note_on_c, 0, 54, 0
3, 514800, Note_on_c, 0, 59, 109
3, 514800, Note_on_c, 0, 38, 123
3, 514890, Note_on_c, 0, 38, 0
3, 514890, Note_on_c, 0, 59, 0
3, 514890, Note_on_c, 0, 54, 106
3, 514890, Note_on_c, 0, 47, 120
3, 514980, Note_on_c, 0, 47, 0
3, 514980, Note_on_c, 0, 54, 0
3, 514980, Note_on_c, 0, 59, 102
3, 514980, Note_on_c, 0, 38, 116
3, 515070, Note_on_c, 0, 38, 0
3, 515070, Note_on_c, 0, 59, 0
3, 515070, Note_on_c, 0, 54, 99
3, 515070, Note_on_c, 0, 47, 113
3, 515160, Note_on_c, 0, 47, 0
3, 515160, Note_on_c, 0, 54, 0
3, 515160, Note_on_c, 0, 59, 96
3, 515160, Note_on_c, 0, 38, 110
3, 515250, Note_on_c, 0, 38, 0
3, 515250, Note_on_c, 0, 59, 0
3, 515250, Note_on_c, 0, 54, 93
3, 515250, Note_on_c, 0, 47, 107
3, 515340, Note_on_c, 0, 47, 0
3, 515340, Note_on_c, 0, 54, 0
3, 515340, Note_on_c, 0, 58, 90
3, 515340, Note_on_c, 0, 38, 104
3, 515430, Note_on_c, 0, 38, 0
3, 515430, Note_on_c, 0, 58, 0
3, 515430, Note_on_c, 0, 54, 86
3, 515430, Note_on_c, 0, 46, 100
3, 515520, Note_on_c, 0, 46, 0
3, 515520, Note_on_c, 0, 54, 0
3, 515520, Note_on_c, 0, 57, 83
3, 515520, Note_on_c, 0, 38, 97
3, 515610, Note_on_c, 0, 38, 0
3, 515610, Note_on_c, 0, 57, 0
3, 515610, Note_on_c, 0, 54, 86
3, 515610, Note_on_c, 0, 45, 100
3, 515700, Note_on_c, 0, 45, 0
3, 515700, Note_on_c, 0, 54, 0
3, 515700, Note_on_c, 0, 57, 90
3, 515700, Note_on_c, 0, 38, 104
3, 515790, Note_on_c, 0, 38, 0
3, 515790, Note_on_c, 0, 57, 0
3, 515790, Note_on_c, 0, 54, 93
3, 515790, Note_on_c, 0, 45, 107
3, 515880, Note_on_c, 0, 45, 0
3, 515880, Note_on_c, 0, 54, 0
3, 515880, Note_on_c, 0, 58, 96
3, 515880, Note_on_c, 0, 38, 110
3, 515970, Note_on_c, 0, 38, 0
3, 515970, Note_on_c, 0, 58, 0
3, 515970, Note_on_c, 0, 54, 99
3, 515970, Note_on_c, 0, 46, 113
3, 516060, Note_on_c, 0, 46, 0
3, 516060, Note_on_c, 0, 54, 0
3, 516060, Note_on_c, 0, 58, 102
3, 516060, Note_on_c, 0, 38, 116
3, 516150, Note_on_c, 0, 38, 0
3, 516150, Note_on_c, 0, 58, 0
3, 516150, Note_on_c, 0, 54, 106
3, 516150, Note_on_c, 0, 46, 120
3, 516240, Note_on_c, 0, 46, 0
3, 516240, Note_on_c, 0, 54, 0
3, 516240, Note_on_c, 0, 58, 109
3, 516240, Note_on_c, 0, 38, 123
3, 516330, Note_on_c, 0, 38, 0
3, 516330, Note_on_c, 0, 58, 0
3, 516330, Note_on_c, 0, 54, 102
3, 516330, Note_on_c, 0, 46, 116
3, 516420, Note_on_c, 0, 46, 0
3, 516420, Note_on_c, 0, 54, 0
3, 516420, Note_on_c, 0, 59, 96
3, 516420, Note_on_c, 0, 38, 110
3, 516420, Note_on_c, 0, 47, 110
3, 516600, Note_on_c, 0, 47, 0
3, 516600, Note_on_c, 0, 38, 0
3, 516600, Note_on_c, 0, 59, 0
3, 516780, Note_on_c, 0, 60, 75
3, 516780, Note_on_c, 0, 62, 75
3, 516780, Note_on_c, 0, 38, 86
3, 516780, Note_on_c, 0, 50, 86
3, 516960, Note_on_c, 0, 50, 0
3, 516960, Note_on_c, 0, 60, 0
3, 516960, Note_on_c, 0, 62, 0
3, 516960, Note_on_c, 0, 38, 0
3, 516960, Note_on_c, 0, 59, 93
3, 516960, Note_on_c, 0, 67, 93
3, 516960, Note_on_c, 0, 43, 83
3, 516960, Note_on_c, 0, 50, 83
3, 517049, Note_on_c, 0, 50, 0
3, 517049, Note_on_c, 0, 59, 0
3, 517049, Note_on_c, 0, 67, 0
3, 517049, Note_on_c, 0, 43, 0
3, 517320, Note_on_c, 0, 59, 79
3, 517320, Note_on_c, 0, 66, 79
3, 517320, Note_on_c, 0, 43, 74
3, 517320, Note_on_c, 0, 51, 74
3, 517409, Note_on_c, 0, 51, 0
3, 517409, Note_on_c, 0, 59, 0
3, 517409, Note_on_c, 0, 66, 0
3, 517409, Note_on_c, 0, 43, 0
3, 517680, Note_on_c, 0, 59, 76
3, 517680, Note_on_c, 0, 64, 76
3, 517680, Note_on_c, 0, 43, 75
3, 517680, Note_on_c, 0, 52, 75
3, 517769, Note_on_c, 0, 52, 0
3, 517769, Note_on_c, 0, 59, 0
3, 517769, Note_on_c, 0, 64, 0
3, 517769, Note_on_c, 0, 43, 0
3, 517860, Note_on_c, 0, 60, 95
3, 517860, Note_on_c, 0, 64, 95
3, 518177, Note_on_c, 0, 64, 0
3, 518177, Note_on_c, 0, 60, 0
3, 518220, Note_on_c, 0, 57, 87
3, 518220, Note_on_c, 0, 66, 87
3, 518309, Note_on_c, 0, 66, 0
3, 518309, Note_on_c, 0, 57, 0
3, 518400, Note_on_c, 0, 59, 86
3, 518400, Note_on_c, 0, 67, 86
3, 518400, Note_on_c, 0, 43, 70
3, 518400, Note_on_c, 0, 50, 70
3, 518489, Note_on_c, 0, 50, 0
3, 518489, Note_on_c, 0, 59, 0
3, 518489, Note_on_c, 0, 67, 0
3, 518489, Note_on_c, 0, 43, 0
3, 518760, Note_on_c, 0, 59, 74
3, 518760, Note_on_c, 0, 66, 74
3, 518760, Note_on_c, 0, 43, 73
3, 518760, Note_on_c, 0, 51, 73
3, 518849, Note_on_c, 0, 51, 0
3, 518849, Note_on_c, 0, 59, 0
3, 518849, Note_on_c, 0, 66, 0
3, 518849, Note_on_c, 0, 43, 0
3, 519120, Note_on_c, 0, 59, 80
3, 519120, Note_on_c, 0, 64, 80
3, 519120, Note_on_c, 0, 43, 75
3, 519120, Note_on_c, 0, 52, 75
3, 519209, Note_on_c, 0, 52, 0
3, 519209, Note_on_c, 0, 59, 0
3, 519209, Note_on_c, 0, 64, 0
3, 519209, Note_on_c, 0, 43, 0
3, 519300, Note_on_c, 0, 55, 92
3, 519300, Note_on_c, 0, 64, 92
3, 519617, Note_on_c, 0, 64, 0
3, 519617, Note_on_c, 0, 55, 0
3, 519660, Note_on_c, 0, 55, 75
3, 519660, Note_on_c, 0, 59, 75
3, 519749, Note_on_c, 0, 59, 0
3, 519749, Note_on_c, 0, 55, 0
3, 519840, Note_on_c, 0, 54, 86
3, 519840, Note_on_c, 0, 62, 86
3, 519840, Note_on_c, 0, 38, 71
3, 519840, Note_on_c, 0, 45, 71
3, 519929, Note_on_c, 0, 45, 0
3, 519929, Note_on_c, 0, 54, 0
3, 519929, Note_on_c, 0, 62, 0
3, 519929, Note_on_c, 0, 38, 0
3, 520200, Note_on_c, 0, 54, 78
3, 520200, Note_on_c, 0, 61, 78
3, 520200, Note_on_c, 0, 38, 77
3, 520200, Note_on_c, 0, 46, 77
3, 520289, Note_on_c, 0, 46, 0
3, 520289, Note_on_c, 0, 54, 0
3, 520289, Note_on_c, 0, 61, 0
3, 520289, Note_on_c, 0, 38, 0
3, 520560, Note_on_c, 0, 54, 76
3, 520560, Note_on_c, 0, 59, 76
3, 520560, Note_on_c, 0, 38, 70
3, 520560, Note_on_c, 0, 47, 70
3, 520649, Note_on_c, 0, 47, 0
3, 520649, Note_on_c, 0, 54, 0
3, 520649, Note_on_c, 0, 59, 0
3, 520649, Note_on_c, 0, 38, 0
3, 520740, Note_on_c, 0, 55, 95
3, 520740, Note_on_c, 0, 59, 95
3, 521057, Note_on_c, 0, 59, 0
3, 521057, Note_on_c, 0, 55, 0
3, 521100, Note_on_c, 0, 52, 87
3, 521100, Note_on_c, 0, 61, 87
3, 521280, Note_on_c, 0, 61, 0
3, 521280, Note_on_c, 0, 52, 0
3, 521280, Note_on_c, 0, 54, 89
3, 521280, Note_on_c, 0, 62, 89
3, 521280, Note_on_c, 0, 38, 74
3, 521280, Note_on_c, 0, 45, 74
3, 521369, Note_on_c, 0, 45, 0
3, 521369, Note_on_c, 0, 54, 0
3, 521369, Note_on_c, 0, 62, 0
3, 521369, Note_on_c, 0, 38, 0
3, 521640, Note_on_c, 0, 54, 72
3, 521640, Note_on_c, 0, 61, 72
3, 521640, Note_on_c, 0, 38, 77
3, 521640, Note_on_c, 0, 46, 77
3, 521729, Note_on_c, 0, 46, 0
3, 521729, Note_on_c, 0, 54, 0
3, 521729, Note_on_c, 0, 61, 0
3, 521729, Note_on_c, 0, 38, 0
3, 522000, Note_on_c, 0, 54, 78
3, 522000, Note_on_c, 0, 59, 78
3, 522000, Note_on_c, 0, 38, 76
3, 522000, Note_on_c, 0, 47, 76
3, 522089, Note_on_c, 0, 47, 0
3, 522089, Note_on_c, 0, 54, 0
3, 522089, Note_on_c, 0, 59, 0
3, 522089, Note_on_c, 0, 38, 0
3, 522360, Note_on_c, 0, 39, 73
3, 522360, Note_on_c, 0, 47, 73
3, 522449, Note_on_c, 0, 47, 0
3, 522449, Note_on_c, 0, 39, 0
3, 522720, Note_on_c, 0, 71, 75
3, 522720, Note_on_c, 0, 40, 75
3, 522720, Note_on_c, 0, 47, 75
3, 522809, Note_on_c, 0, 71, 0
3, 522899, Note_on_c, 0, 47, 0
3, 522899, Note_on_c, 0, 40, 0
3, 522900, Note_on_c, 0, 72, 87
3, 522990, Note_on_c, 0, 72, 0
3, 522990, Note_on_c, 0, 71, 80
3, 523080, Note_on_c, 0, 71, 0
3, 523080, Note_on_c, 0, 69, 75
3, 523080, Note_on_c, 0, 40, 83
3, 523080, Note_on_c, 0, 47, 83
3, 523169, Note_on_c, 0, 69, 0
3, 523259, Note_on_c, 0, 47, 0
3, 523259, Note_on_c, 0, 40, 0
3, 523260, Note_on_c, 0, 71, 87
3, 523349, Note_on_c, 0, 71, 0
3, 523440, Note_on_c, 0, 67, 74
3, 523440, Note_on_c, 0, 40, 84
3, 523440, Note_on_c, 0, 47, 84
3, 523529, Note_on_c, 0, 67, 0
3, 523619, Note_on_c, 0, 47, 0
3, 523619, Note_on_c, 0, 40, 0
3, 523620, Note_on_c, 0, 67, 83
3, 523710, Note_on_c, 0, 67, 0
3, 523710, Note_on_c, 0, 69, 90
3, 523800, Note_on_c, 0, 69, 0
3, 523800, Note_on_c, 0, 71, 100
3, 523800, Note_on_c, 0, 40, 82
3, 523800, Note_on_c, 0, 47, 82
3, 523979, Note_on_c, 0, 47, 0
3, 523979, Note_on_c, 0, 40, 0
3, 524117, Note_on_c, 0, 71, 0
3, 524160, Note_on_c, 0, 71, 82
3, 524160, Note_on_c, 0, 40, 84
3, 524160, Note_on_c, 0, 47, 84
3, 524249, Note_on_c, 0, 71, 0
3, 524339, Note_on_c, 0, 47, 0
3, 524339, Note_on_c, 0, 40, 0
3, 524340, Note_on_c, 0, 72, 87
3, 524430, Note_on_c, 0, 72, 0
3, 524430, Note_on_c, 0, 71, 82
3, 524520, Note_on_c, 0, 71, 0
3, 524520, Note_on_c, 0, 69, 79
3, 524520, Note_on_c, 0, 40, 79
3, 524520, Note_on_c, 0, 47, 79
3, 524609, Note_on_c, 0, 69, 0
3, 524699, Note_on_c, 0, 47, 0
3, 524699, Note_on_c, 0, 40, 0
3, 524700, Note_on_c, 0, 71, 87
3, 524789, Note_on_c, 0, 71, 0
3, 524880, Note_on_c, 0, 67, 77
3, 524880, Note_on_c, 0, 40, 79
3, 524880, Note_on_c, 0, 47, 79
3, 524969, Note_on_c, 0, 67, 0
3, 525059, Note_on_c, 0, 47, 0
3, 525059, Note_on_c, 0, 40, 0
3, 525060, Note_on_c, 0, 67, 82
3, 525150, Note_on_c, 0, 67, 0
3, 525150, Note_on_c, 0, 69, 87
3, 525240, Note_on_c, 0, 69, 0
3, 525240, Note_on_c, 0, 71, 96
3, 525240, Note_on_c, 0, 40, 86
3, 525240, Note_on_c, 0, 47, 86
3, 525419, Note_on_c, 0, 47, 0
3, 525419, Note_on_c, 0, 40, 0
3, 525557, Note_on_c, 0, 71, 0
3, 525600, Note_on_c, 0, 66, 71
3, 525600, Note_on_c, 0, 35, 87
3, 525600, Note_on_c, 0, 47, 87
3, 525689, Note_on_c, 0, 66, 0
3, 525779, Note_on_c, 0, 47, 0
3, 525779, Note_on_c, 0, 35, 0
3, 525780, Note_on_c, 0, 67, 87
3, 525824, Note_on_c, 0, 67, 0
3, 525870, Note_on_c, 0, 66, 78
3, 525914, Note_on_c, 0, 66, 0
3, 525960, Note_on_c, 0, 64, 75
3, 525960, Note_on_c, 0, 42, 84
3, 526139, Note_on_c, 0, 42, 0
3, 526140, Note_on_c, 0, 64, 0
3, 526140, Note_on_c, 0, 66, 89
3, 526229, Note_on_c, 0, 66, 0
3, 526320, Note_on_c, 0, 62, 72
3, 526320, Note_on_c, 0, 35, 84
3, 526320, Note_on_c, 0, 47, 84
3, 526409, Note_on_c, 0, 62, 0
3, 526499, Note_on_c, 0, 47, 0
3, 526499, Note_on_c, 0, 35, 0
3, 526500, Note_on_c, 0, 62, 81
3, 526590, Note_on_c, 0, 62, 0
3, 526590, Note_on_c, 0, 64, 85
3, 526680, Note_on_c, 0, 64, 0
3, 526680, Note_on_c, 0, 66, 100
3, 526680, Note_on_c, 0, 35, 84
3, 526680, Note_on_c, 0, 47, 84
3, 526859, Note_on_c, 0, 47, 0
3, 526859, Note_on_c, 0, 35, 0
3, 526997, Note_on_c, 0, 66, 0
3, 527040, Note_on_c, 0, 66, 88
3, 527040, Note_on_c, 0, 35, 84
3, 527040, Note_on_c, 0, 47, 84
3, 527129, Note_on_c, 0, 66, 0
3, 527219, Note_on_c, 0, 47, 0
3, 527219, Note_on_c, 0, 35, 0
3, 527220, Note_on_c, 0, 67, 88
3, 527310, Note_on_c, 0, 67, 0
3, 527310, Note_on_c, 0, 66, 78
3, 527400, Note_on_c, 0, 66, 0
3, 527400, Note_on_c, 0, 64, 81
3, 527400, Note_on_c, 0, 42, 80
3, 527489, Note_on_c, 0, 64, 0
3, 527579, Note_on_c, 0, 42, 0
3, 527580, Note_on_c, 0, 66, 88
3, 527669, Note_on_c, 0, 66, 0
3, 527760, Note_on_c, 0, 62, 74
3, 527760, Note_on_c, 0, 35, 87
3, 527760, Note_on_c, 0, 47, 87
3, 527849, Note_on_c, 0, 62, 0
3, 527939, Note_on_c, 0, 47, 0
3, 527939, Note_on_c, 0, 35, 0
3, 527940, Note_on_c, 0, 62, 85
3, 528030, Note_on_c, 0, 62, 0
3, 528030, Note_on_c, 0, 64, 90
3, 528120, Note_on_c, 0, 64, 0
3, 528120, Note_on_c, 0, 66, 103
3, 528120, Note_on_c, 0, 35, 83
3, 528120, Note_on_c, 0, 47, 83
3, 528299, Note_on_c, 0, 47, 0
3, 528299, Note_on_c, 0, 35, 0
3, 528437, Note_on_c, 0, 66, 0
3, 528480, Note_on_c, 0, 71, 83
3, 528480, Note_on_c, 0, 40, 83
3, 528480, Note_on_c, 0, 47, 83
3, 528569, Note_on_c, 0, 71, 0
3, 528659, Note_on_c, 0, 47, 0
3, 528659, Note_on_c, 0, 40, 0
3, 528660, Note_on_c, 0, 72, 85
3, 528750, Note_on_c, 0, 72, 0
3, 528750, Note_on_c, 0, 71, 86
3, 528840, Note_on_c, 0, 71, 0
3, 528840, Note_on_c, 0, 69, 86
3, 528840, Note_on_c, 0, 40, 86
3, 528840, Note_on_c, 0, 47, 86
3, 529019, Note_on_c, 0, 47, 0
3, 529019, Note_on_c, 0, 40, 0
3, 529157, Note_on_c, 0, 69, 0
3, 529200, Note_on_c, 0, 71, 90
3, 529200, Note_on_c, 0, 40, 90
3, 529200, Note_on_c, 0, 47, 90
3, 529289, Note_on_c, 0, 71, 0
3, 529379, Note_on_c, 0, 47, 0
3, 529379, Note_on_c, 0, 40, 0
3, 529380, Note_on_c, 0, 72, 91
3, 529470, Note_on_c, 0, 72, 0
3, 529470, Note_on_c, 0, 71, 92
3, 529560, Note_on_c, 0, 71, 0
3, 529560, Note_on_c, 0, 69, 93
3, 529560, Note_on_c, 0, 40, 93
3, 529560, Note_on_c, 0, 47, 93
3, 529739, Note_on_c, 0, 47, 0
3, 529739, Note_on_c, 0, 40, 0
3, 529877, Note_on_c, 0, 69, 0
3, 529920, Note_on_c, 0, 71, 96
3, 529920, Note_on_c, 0, 40, 96
3, 529920, Note_on_c, 0, 47, 96
3, 530009, Note_on_c, 0, 71, 0
3, 530099, Note_on_c, 0, 47, 0
3, 530099, Note_on_c, 0, 40, 0
3, 530100, Note_on_c, 0, 72, 98
3, 530190, Note_on_c, 0, 72, 0
3, 530190, Note_on_c, 0, 71, 98
3, 530280, Note_on_c, 0, 71, 0
3, 530280, Note_on_c, 0, 69, 99
3, 530280, Note_on_c, 0, 40, 99
3, 530280, Note_on_c, 0, 47, 99
3, 530459, Note_on_c, 0, 47, 0
3, 530459, Note_on_c, 0, 40, 0
3, 530597, Note_on_c, 0, 69, 0
3, 530640, Note_on_c, 0, 71, 102
3, 530640, Note_on_c, 0, 40, 102
3, 530640, Note_on_c, 0, 47, 102
3, 530729, Note_on_c, 0, 47, 0
3, 530729, Note_on_c, 0, 40, 0
3, 530820, Note_on_c, 0, 71, 0
3, 531360, Note_on_c, 0, 58, 109
3, 531360, Note_on_c, 0, 64, 109
3, 531360, Note_on_c, 0, 70, 109
3, 531360, Note_on_c, 0, 42, 109
3, 531360, Note_on_c, 0, 52, 109
3, 532440, Note_on_c, 0, 52, 0
3, 532440, Note_on_c, 0, 70, 0
3, 532440, Note_on_c, 0, 58, 0
3, 532440, Note_on_c, 0, 64, 0
3, 532440, Note_on_c, 0, 42, 0
3, 532440, Note_on_c, 0, 59, 127
3, 532440, Note_on_c, 0, 64, 127
3, 532440, Note_on_c, 0, 71, 127
3, 532440, Note_on_c, 0, 43, 127
3, 532440, Note_on_c, 0, 52, 127
3, 532800, Note_on_c, 0, 52, 0
3, 532800, Note_on_c, 0, 71, 0
3, 532800, Note_on_c, 0, 59, 0
3, 532800, Note_on_c, 0, 64, 0
3, 532800, Note_on_c, 0, 43, 0
3, 532800, Note_on_c, 0, 58, 124
3, 532800, Note_on_c, 0, 64, 124
3, 532800, Note_on_c, 0, 70, 124
3, 532800, Note_on_c, 0, 42, 127
3, 532800, Note_on_c, 0, 52, 127
3, 533880, Note_on_c, 0, 52, 0
3, 533880, Note_on_c, 0, 70, 0
3, 533880, Note_on_c, 0, 58, 0
3, 533880, Note_on_c, 0, 64, 0
3, 533880, Note_on_c, 0, 42, 0
3, 533880, Note_on_c, 0, 59, 127
3, 533880, Note_on_c, 0, 64, 127
3, 533880, Note_on_c, 0, 71, 127
3, 533880, Note_on_c, 0, 43, 127
3, 533880, Note_on_c, 0, 52, 127
3, 534240, Note_on_c, 0, 52, 0
3, 534240, Note_on_c, 0, 71, 0
3, 534240, Note_on_c, 0, 59, 0
3, 534240, Note_on_c, 0, 64, 0
3, 534240, Note_on_c, 0, 43, 0
3, 534240, Note_on_c, 0, 60, 127
3, 534240, Note_on_c, 0, 64, 127
3, 534240, Note_on_c, 0, 72, 127
3, 534240, Note_on_c, 0, 45, 127
3, 534240, Note_on_c, 0, 52, 127
3, 534960, Note_on_c, 0, 52, 0
3, 534960, Note_on_c, 0, 72, 0
3, 534960, Note_on_c, 0, 60, 0
3, 534960, Note_on_c, 0, 64, 0
3, 534960, Note_on_c, 0, 45, 0
3, 534960, Note_on_c, 0, 55, 127
3, 534960, Note_on_c, 0, 64, 127
3, 534960, Note_on_c, 0, 67, 127
3, 534960, Note_on_c, 0, 35, 127
3, 534960, Note_on_c, 0, 47, 127
3, 535320, Note_on_c, 0, 47, 0
3, 535320, Note_on_c, 0, 67, 0
3, 535320, Note_on_c, 0, 55, 0
3, 535320, Note_on_c, 0, 64, 0
3, 535320, Note_on_c, 0, 35, 0
3, 535320, Note_on_c, 0, 57, 127
3, 535320, Note_on_c, 0, 64, 127
3, 535320, Note_on_c, 0, 69, 127
3, 535320, Note_on_c, 0, 36, 127
3, 535320, Note_on_c, 0, 48, 127
3, 536040, Note_on_c, 0, 48, 0
3, 536040, Note_on_c, 0, 69, 0
3, 536040, Note_on_c, 0, 57, 0
3, 536040, Note_on_c, 0, 64, 0
3, 536040, Note_on_c, 0, 36, 0
3, 536040, Note_on_c, 0, 58, 127
3, 536040, Note_on_c, 0, 64, 127
3, 536040, Note_on_c, 0, 66, 127
3, 536040, Note_on_c, 0, 70, 127
3, 536040, Note_on_c, 0, 37, 112
3, 536040, Note_on_c, 0, 49, 112
3, 536760, Note_on_c, 0, 49, 0
3, 536760, Note_on_c, 0, 64, 0
3, 536760, Note_on_c, 0, 66, 0
3, 536760, Note_on_c, 0, 58, 0
3, 536760, Note_on_c, 0, 37, 0
3, 536760, Note_on_c, 0, 70, 0
3, 536760, Note_on_c, 0, 59, 127
3, 536760, Note_on_c, 0, 62, 127
3, 536760, Note_on_c, 0, 67, 127
3, 536760, Note_on_c, 0, 71, 127
3, 536760, Note_on_c, 0, 38, 109
3, 536760, Note_on_c, 0, 50, 109
3, 537120, Note_on_c, 0, 50, 0
3, 537120, Note_on_c, 0, 62, 0
3, 537120, Note_on_c, 0, 67, 0
3, 537120, Note_on_c, 0, 59, 0
3, 537120, Note_on_c, 0, 38, 0
3, 537120, Note_on_c, 0, 71, 0
3, 537120, Note_on_c, 0, 58, 127
3, 537120, Note_on_c, 0, 64, 127
3, 537120, Note_on_c, 0, 70, 127
3, 537120, Note_on_c, 0, 42, 127
3, 537120, Note_on_c, 0, 49, 127
3, 537480, Note_on_c, 0, 49, 0
3, 537480, Note_on_c, 0, 70, 0
3, 537480, Note_on_c, 0, 58, 0
3, 537480, Note_on_c, 0, 64, 0
3, 537480, Note_on_c, 0, 42, 0
3, 537480, Note_on_c, 0, 60, 127
3, 537480, Note_on_c, 0, 64, 127
3, 537480, Note_on_c, 0, 72, 127
3, 537480, Note_on_c, 0, 36, 127
3, 537480, Note_on_c, 0, 48, 127
3, 537840, Note_on_c, 0, 48, 0
3, 537840, Note_on_c, 0, 72, 0
3, 537840, Note_on_c, 0, 60, 0
3, 537840, Note_on_c, 0, 64, 0
3, 537840, Note_on_c, 0, 36, 0
3, 537840, Note_on_c, 0, 58, 127
3, 537840, Note_on_c, 0, 64, 127
3, 537840, Note_on_c, 0, 70, 127
3, 537840, Note_on_c, 0, 42, 127
3, 537840, Note_on_c, 0, 49, 127
3, 538200, Note_on_c, 0, 49, 0
3, 538200, Note_on_c, 0, 70, 0
3, 538200, Note_on_c, 0, 58, 0
3, 538200, Note_on_c, 0, 64, 0
3, 538200, Note_on_c, 0, 42, 0
3, 538200, Note_on_c, 0, 60, 125
3, 538200, Note_on_c, 0, 64, 125
3, 538200, Note_on_c, 0, 69, 125
3, 538200, Note_on_c, 0, 45, 127
3, 538200, Note_on_c, 0, 52, 127
3, 538560, Note_on_c, 0, 52, 0
3, 538560, Note_on_c, 0, 69, 0
3, 538560, Note_on_c, 0, 60, 0
3, 538560, Note_on_c, 0, 64, 0
3, 538560, Note_on_c, 0, 45, 0
3, 538560, Note_on_c, 0, 58, 127
3, 538560, Note_on_c, 0, 64, 127
3, 538560, Note_on_c, 0, 70, 127
3, 538560, Note_on_c, 0, 42, 127
3, 538560, Note_on_c, 0, 49, 127
3, 538920, Note_on_c, 0, 49, 0
3, 538920, Note_on_c, 0, 70, 0
3, 538920, Note_on_c, 0, 58, 0
3, 538920, Note_on_c, 0, 64, 0
3, 538920, Note_on_c, 0, 42, 0
3, 538920, Note_on_c, 0, 60, 127
3, 538920, Note_on_c, 0, 64, 127
3, 538920, Note_on_c, 0, 72, 127
3, 538920, Note_on_c, 0, 36, 127
3, 538920, Note_on_c, 0, 48, 127
3, 539280, Note_on_c, 0, 48, 0
3, 539280, Note_on_c, 0, 72, 0
3, 539280, Note_on_c, 0, 60, 0
3, 539280, Note_on_c, 0, 64, 0
3, 539280, Note_on_c, 0, 36, 0
3, 539280, Note_on_c, 0, 58, 121
3, 539280, Note_on_c, 0, 64, 121
3, 539280, Note_on_c, 0, 70, 121
3, 539280, Note_on_c, 0, 42, 127
3, 539280, Note_on_c, 0, 49, 127
3, 539640, Note_on_c, 0, 49, 0
3, 539640, Note_on_c, 0, 70, 0
3, 539640, Note_on_c, 0, 58, 0
3, 539640, Note_on_c, 0, 64, 0
3, 539640, Note_on_c, 0, 42, 0
3, 539640, Note_on_c, 0, 60, 125
3, 539640, Note_on_c, 0, 64, 125
3, 539640, Note_on_c, 0, 69, 125
3, 539640, Note_on_c, 0, 45, 127
3, 539640, Note_on_c, 0, 52, 127
3, 540000, Note_on_c, 0, 52, 0
3, 540000, Note_on_c, 0, 69, 0
3, 540000, Note_on_c, 0, 60, 0
3, 540000, Note_on_c, 0, 64, 0
3, 540000, Note_on_c, 0, 45, 0
3, 540000, Note_on_c, 0, 67, 124
3, 540000, Note_on_c, 0, 60, 126
3, 540000, Note_on_c, 0, 43, 127
3, 540000, Note_on_c, 0, 52, 127
3, 540000, Note_on_c, 0, 55, 127
3, 540360, Note_on_c, 0, 67, 0
3, 540360, Note_on_c, 0, 66, 126
3, 540630, Note_on_c, 0, 66, 0
3, 540630, Note_on_c, 0, 63, 125
3, 540720, Note_on_c, 0, 63, 0
3, 540720, Note_on_c, 0, 52, 0
3, 540720, Note_on_c, 0, 60, 0
3, 540720, Note_on_c, 0, 43, 0
3, 540720, Note_on_c, 0, 55, 0
3, 540720, Note_on_c, 0, 64, 127
3, 540720, Note_on_c, 0, 55, 124
3, 540720, Note_on_c, 0, 59, 124
3, 540720, Note_on_c, 0, 37, 124
3, 540720, Note_on_c, 0, 49, 124
3, 540809, Note_on_c, 0, 64, 0
3, 540900, Note_on_c, 0, 64, 127
3, 541440, Note_on_c, 0, 64, 0
3, 541440, Note_on_c, 0, 49, 0
3, 541440, Note_on_c, 0, 55, 0
3, 541440, Note_on_c, 0, 59, 0
3, 541440, Note_on_c, 0, 37, 0
3, 541440, Note_on_c, 0, 67, 127
3, 541440, Note_on_c, 0, 58, 126
3, 541440, Note_on_c, 0, 64, 126
3, 541440, Note_on_c, 0, 42, 127
3, 541440, Note_on_c, 0, 49, 127
3, 541800, Note_on_c, 0, 67, 0
3, 541800, Note_on_c, 0, 66, 127
3, 542070, Note_on_c, 0, 66, 0
3, 542070, Note_on_c, 0, 63, 122
3, 542160, Note_on_c, 0, 63, 0
3, 542160, Note_on_c, 0, 42, 0
3, 542160, Note_on_c, 0, 58, 0
3, 542160, Note_on_c, 0, 64, 0
3, 542160, Note_on_c, 0, 49, 0
3, 542160, Note_on_c, 0, 64, 127
3, 542160, Note_on_c, 0, 57, 120
3, 542160, Note_on_c, 0, 36, 127
3, 542160, Note_on_c, 0, 48, 127
3, 542249, Note_on_c, 0, 64, 0
3, 542340, Note_on_c, 0, 64, 127
3, 542880, Note_on_c, 0, 64, 0
3, 542880, Note_on_c, 0, 48, 0
3, 542880, Note_on_c, 0, 36, 0
3, 542880, Note_on_c, 0, 57, 0
3, 542880, Note_on_c, 0, 67, 127
3, 542880, Note_on_c, 0, 60, 126
3, 542880, Note_on_c, 0, 43, 127
3, 542880, Note_on_c, 0, 52, 127
3, 542880, Note_on_c, 0, 55, 127
3, 543240, Note_on_c, 0, 67, 0
3, 543240, Note_on_c, 0, 66, 127
3, 543510, Note_on_c, 0, 66, 0
3, 543510, Note_on_c, 0, 63, 126
3, 543600, Note_on_c, 0, 63, 0
3, 543600, Note_on_c, 0, 52, 0
3, 543600, Note_on_c, 0, 60, 0
3, 543600, Note_on_c, 0, 43, 0
3, 543600, Note_on_c, 0, 55, 0
3, 543600, Note_on_c, 0, 64, 127
3, 543600, Note_on_c, 0, 55, 126
3, 543600, Note_on_c, 0, 59, 126
3, 543600, Note_on_c, 0, 37, 127
3, 543600, Note_on_c, 0, 49, 127
3, 543689, Note_on_c, 0, 64, 0
3, 543780, Note_on_c, 0, 64, 127
3, 544140, Note_on_c, 0, 64, 0
3, 544140, Note_on_c, 0, 66, 127
3, 544229, Note_on_c, 0, 66, 0
3, 544320, Note_on_c, 0, 37, 0
3, 544320, Note_on_c, 0, 55, 0
3, 544320, Note_on_c, 0, 59, 0
3, 544320, Note_on_c, 0, 49, 0
3, 544320, Note_on_c, 0, 67, 127
3, 544320, Note_on_c, 0, 58, 126
3, 544320, Note_on_c, 0, 64, 126
3, 544320, Note_on_c, 0, 42, 127
3, 544320, Note_on_c, 0, 49, 127
3, 544500, Note_on_c, 0, 67, 0
3, 544500, Note_on_c, 0, 64, 126
3, 544680, Note_on_c, 0, 64, 0
3, 544680, Note_on_c, 0, 66, 127
3, 544950, Note_on_c, 0, 66, 0
3, 544950, Note_on_c, 0, 63, 123
3, 545040, Note_on_c, 0, 63, 0
3, 545040, Note_on_c, 0, 49, 0
3, 545040, Note_on_c, 0, 58, 0
3, 545040, Note_on_c, 0, 42, 0
3, 545040, Note_on_c, 0, 64, 0
3, 545040, Note_on_c, 0, 64, 127
3, 545040, Note_on_c, 0, 57, 120
3, 545040, Note_on_c, 0, 36, 127
3, 545040, Note_on_c, 0, 48, 127
3, 545129, Note_on_c, 0, 64, 0
3, 545220, Note_on_c, 0, 64, 127
3, 545580, Note_on_c, 0, 64, 0
3, 545580, Note_on_c, 0, 66, 127
3, 545760, Note_on_c, 0, 66, 0
3, 545760, Note_on_c, 0, 57, 0
3, 545760, Note_on_c, 0, 36, 0
3, 545760, Note_on_c, 0, 48, 0
3, 545760, Note_on_c, 0, 67, 113
3, 545760, Note_on_c, 0, 55, 127
3, 545760, Note_on_c, 0, 60, 127
3, 545760, Note_on_c, 0, 43, 127
3, 545760, Note_on_c, 0, 52, 127
3, 545849, Note_on_c, 0, 67, 0
3, 545940, Note_on_c, 0, 66, 109
3, 546120, Note_on_c, 0, 43, 0
3, 546120, Note_on_c, 0, 52, 0
3, 546120, Note_on_c, 0, 55, 0
3, 546120, Note_on_c, 0, 60, 0
3, 546120, Note_on_c, 0, 55, 127
3, 546120, Note_on_c, 0, 59, 127
3, 546120, Note_on_c, 0, 37, 127
3, 546120, Note_on_c, 0, 49, 127
3, 546300, Note_on_c, 0, 66, 0
3, 546300, Note_on_c, 0, 64, 106
3, 546389, Note_on_c, 0, 64, 0
3, 546480, Note_on_c, 0, 49, 0
3, 546480, Note_on_c, 0, 55, 0
3, 546480, Note_on_c, 0, 59, 0
3, 546480, Note_on_c, 0, 37, 0
3, 546480, Note_on_c, 0, 67, 122
3, 546480, Note_on_c, 0, 58, 127
3, 546480, Note_on_c, 0, 64, 127
3, 546480, Note_on_c, 0, 42, 127
3, 546480, Note_on_c, 0, 49, 127
3, 546660, Note_on_c, 0, 67, 0
3, 546660, Note_on_c, 0, 66, 122
3, 546840, Note_on_c, 0, 42, 0
3, 546840, Note_on_c, 0, 49, 0
3, 546840, Note_on_c, 0, 58, 0
3, 546840, Note_on_c, 0, 64, 0
3, 546840, Note_on_c, 0, 57, 127
3, 546840, Note_on_c, 0, 36, 127
3, 546840, Note_on_c, 0, 48, 127
3, 546977, Note_on_c, 0, 66, 0
3, 547020, Note_on_c, 0, 64, 101
3, 547109, Note_on_c, 0, 64, 0
3, 547200, Note_on_c, 0, 48, 0
3, 547200, Note_on_c, 0, 36, 0
3, 547200, Note_on_c, 0, 57, 0
3, 547200, Note_on_c, 0, 67, 117
3, 547200, Note_on_c, 0, 55, 127
3, 547200, Note_on_c, 0, 60, 127
3, 547200, Note_on_c, 0, 43, 127
3, 547200, Note_on_c, 0, 52, 127
3, 547289, Note_on_c, 0, 67, 0
3, 547380, Note_on_c, 0, 66, 106
3, 547560, Note_on_c, 0, 43, 0
3, 547560, Note_on_c, 0, 52, 0
3, 547560, Note_on_c, 0, 55, 0
3, 547560, Note_on_c, 0, 60, 0
3, 547560, Note_on_c, 0, 55, 127
3, 547560, Note_on_c, 0, 59, 127
3, 547560, Note_on_c, 0, 37, 127
3, 547560, Note_on_c, 0, 49, 127
3, 547740, Note_on_c, 0, 66, 0
3, 547740, Note_on_c, 0, 64, 97
3, 547829, Note_on_c, 0, 64, 0
3, 547920, Note_on_c, 0, 49, 0
3, 547920, Note_on_c, 0, 55, 0
3, 547920, Note_on_c, 0, 59, 0
3, 547920, Note_on_c, 0, 37, 0
3, 547920, Note_on_c, 0, 67, 117
3, 547920, Note_on_c, 0, 58, 127
3, 547920, Note_on_c, 0, 64, 127
3, 547920, Note_on_c, 0, 42, 127
3, 547920, Note_on_c, 0, 49, 127
3, 548100, Note_on_c, 0, 67, 0
3, 548100, Note_on_c, 0, 66, 119
3, 548280, Note_on_c, 0, 42, 0
3, 548280, Note_on_c, 0, 49, 0
3, 548280, Note_on_c, 0, 58, 0
3, 548280, Note_on_c, 0, 64, 0
3, 548280, Note_on_c, 0, 57, 127
3, 548280, Note_on_c, 0, 36, 127
3, 548280, Note_on_c, 0, 48, 127
3, 548417, Note_on_c, 0, 66, 0
3, 548460, Note_on_c, 0, 64, 102
3, 548549, Note_on_c, 0, 64, 0
3, 548640, Note_on_c, 0, 48, 0
3, 548640, Note_on_c, 0, 36, 0
3, 548640, Note_on_c, 0, 57, 0
3, 548640, Note_on_c, 0, 62, 118
3, 548640, Note_on_c, 0, 55, 118
3, 548640, Note_on_c, 0, 43, 98
3, 548640, Note_on_c, 0, 50, 98
3, 549000, Note_on_c, 0, 62, 0
3, 549000, Note_on_c, 0, 57, 118
3, 549180, Note_on_c, 0, 57, 0
3, 549180, Note_on_c, 0, 60, 127
3, 549360, Note_on_c, 0, 60, 0
3, 549360, Note_on_c, 0, 62, 127
3, 549540, Note_on_c, 0, 62, 0
3, 549540, Note_on_c, 0, 50, 0
3, 549540, Note_on_c, 0, 43, 0
3, 549540, Note_on_c, 0, 55, 0
3, 549540, Note_on_c, 0, 58, 119
3, 549540, Note_on_c, 0, 55, 126
3, 549540, Note_on_c, 0, 39, 105
3, 549540, Note_on_c, 0, 46, 105
3, 549857, Note_on_c, 0, 46, 0
3, 549857, Note_on_c, 0, 39, 0
3, 549900, Note_on_c, 0, 55, 0
3, 549900, Note_on_c, 0, 58, 0
3, 549900, Note_on_c, 0, 58, 99
3, 549900, Note_on_c, 0, 55, 126
3, 549900, Note_on_c, 0, 39, 99
3, 549900, Note_on_c, 0, 46, 99
3, 549989, Note_on_c, 0, 46, 0
3, 549989, Note_on_c, 0, 39, 0
3, 549989, Note_on_c, 0, 58, 0
3, 550080, Note_on_c, 0, 55, 0
3, 550080, Note_on_c, 0, 62, 127
3, 550080, Note_on_c, 0, 55, 126
3, 550080, Note_on_c, 0, 43, 105
3, 550080, Note_on_c, 0, 50, 105
3, 550440, Note_on_c, 0, 62, 0
3, 550440, Note_on_c, 0, 57, 120
3, 550620, Note_on_c, 0, 57, 0
3, 550620, Note_on_c, 0, 60, 127
3, 550800, Note_on_c, 0, 60, 0
3, 550800, Note_on_c, 0, 62, 127
3, 550980, Note_on_c, 0, 62, 0
3, 550980, Note_on_c, 0, 50, 0
3, 550980, Note_on_c, 0, 43, 0
3, 550980, Note_on_c, 0, 55, 0
3, 550980, Note_on_c, 0, 58, 114
3, 550980, Note_on_c, 0, 55, 126
3, 550980, Note_on_c, 0, 39, 107
3, 550980, Note_on_c, 0, 46, 107
3, 551297, Note_on_c, 0, 46, 0
3, 551297, Note_on_c, 0, 39, 0
3, 551340, Note_on_c, 0, 55, 0
3, 551340, Note_on_c, 0, 58, 0
3, 551340, Note_on_c, 0, 58, 99
3, 551340, Note_on_c, 0, 55, 126
3, 551340, Note_on_c, 0, 39, 97
3, 551340, Note_on_c, 0, 46, 97
3, 551429, Note_on_c, 0, 46, 0
3, 551429, Note_on_c, 0, 39, 0
3, 551429, Note_on_c, 0, 58, 0
3, 551520, Note_on_c, 0, 55, 0
3, 551520, Note_on_c, 0, 66, 127
3, 551520, Note_on_c, 0, 54, 126
3, 551520, Note_on_c, 0, 59, 126
3, 551520, Note_on_c, 0, 35, 115
3, 551520, Note_on_c, 0, 47, 115
3, 551880, Note_on_c, 0, 66, 0
3, 551880, Note_on_c, 0, 61, 124
3, 552060, Note_on_c, 0, 61, 0
3, 552060, Note_on_c, 0, 64, 127
3, 552240, Note_on_c, 0, 64, 0
3, 552240, Note_on_c, 0, 66, 127
3, 552420, Note_on_c, 0, 66, 0
3, 552420, Note_on_c, 0, 47, 0
3, 552420, Note_on_c, 0, 54, 0
3, 552420, Note_on_c, 0, 59, 0
3, 552420, Note_on_c, 0, 35, 0
3, 552420, Note_on_c, 0, 62, 125
3, 552420, Note_on_c, 0, 59, 126
3, 552420, Note_on_c, 0, 43, 127
3, 552420, Note_on_c, 0, 50, 127
3, 552780, Note_on_c, 0, 50, 0
3, 552780, Note_on_c, 0, 62, 0
3, 552780, Note_on_c, 0, 59, 0
3, 552780, Note_on_c, 0, 43, 0
3, 552780, Note_on_c, 0, 62, 108
3, 552780, Note_on_c, 0, 59, 125
3, 552780, Note_on_c, 0, 43, 111
3, 552780, Note_on_c, 0, 50, 111
3, 552869, Note_on_c, 0, 50, 0
3, 552869, Note_on_c, 0, 43, 0
3, 552869, Note_on_c, 0, 62, 0
3, 552960, Note_on_c, 0, 59, 0
3, 552960, Note_on_c, 0, 66, 127
3, 552960, Note_on_c, 0, 54, 126
3, 552960, Note_on_c, 0, 59, 126
3, 552960, Note_on_c, 0, 35, 106
3, 552960, Note_on_c, 0, 47, 106
3, 553320, Note_on_c, 0, 66, 0
3, 553320, Note_on_c, 0, 61, 126
3, 553500, Note_on_c, 0, 61, 0
3, 553500, Note_on_c, 0, 64, 127
3, 553680, Note_on_c, 0, 64, 0
3, 553680, Note_on_c, 0, 66, 127
3, 553860, Note_on_c, 0, 66, 0
3, 553860, Note_on_c, 0, 47, 0
3, 553860, Note_on_c, 0, 54, 0
3, 553860, Note_on_c, 0, 59, 0
3, 553860, Note_on_c, 0, 35, 0
3, 553860, Note_on_c, 0, 62, 127
3, 553860, Note_on_c, 0, 59, 126
3, 553860, Note_on_c, 0, 43, 127
3, 553860, Note_on_c, 0, 50, 127
3, 554220, Note_on_c, 0, 50, 0
3, 554220, Note_on_c, 0, 62, 0
3, 554220, Note_on_c, 0, 59, 0
3, 554220, Note_on_c, 0, 43, 0
3, 554220, Note_on_c, 0, 62, 110
3, 554220, Note_on_c, 0, 59, 122
3, 554220, Note_on_c, 0, 43, 115
3, 554220, Note_on_c, 0, 50, 115
3, 554309, Note_on_c, 0, 50, 0
3, 554309, Note_on_c, 0, 43, 0
3, 554309, Note_on_c, 0, 62, 0
3, 554400, Note_on_c, 0, 59, 0
3, 554400, Note_on_c, 0, 66, 118
3, 554400, Note_on_c, 0, 54, 126
3, 554400, Note_on_c, 0, 59, 126
3, 554400, Note_on_c, 0, 35, 108
3, 554400, Note_on_c, 0, 47, 108
3, 554760, Note_on_c, 0, 66, 0
3, 554760, Note_on_c, 0, 61, 83
3, 554940, Note_on_c, 0, 61, 0
3, 554940, Note_on_c, 0, 64, 85
3, 555120, Note_on_c, 0, 64, 0
3, 555120, Note_on_c, 0, 35, 0
3, 555120, Note_on_c, 0, 54, 0
3, 555120, Note_on_c, 0, 59, 0
3, 555120, Note_on_c, 0, 47, 0
3, 555120, Note_on_c, 0, 66, 87
3, 555120, Note_on_c, 0, 54, 127
3, 555120, Note_on_c, 0, 59, 127
3, 555120, Note_on_c, 0, 35, 83
3, 555120, Note_on_c, 0, 47, 83
3, 555480, Note_on_c, 0, 66, 0
3, 555480, Note_on_c, 0, 61, 91
3, 555660, Note_on_c, 0, 61, 0
3, 555660, Note_on_c, 0, 64, 92
3, 555840, Note_on_c, 0, 64, 0
3, 555840, Note_on_c, 0, 35, 0
3, 555840, Note_on_c, 0, 54, 0
3, 555840, Note_on_c, 0, 59, 0
3, 555840, Note_on_c, 0, 47, 0
3, 555840, Note_on_c, 0, 66, 94
3, 555840, Note_on_c, 0, 54, 127
3, 555840, Note_on_c, 0, 59, 127
3, 555840, Note_on_c, 0, 35, 92
3, 555840, Note_on_c, 0, 47, 92
3, 556200, Note_on_c, 0, 66, 0
3, 556200, Note_on_c, 0, 61, 98
3, 556380, Note_on_c, 0, 61, 0
3, 556380, Note_on_c, 0, 64, 100
3, 556560, Note_on_c, 0, 64, 0
3, 556560, Note_on_c, 0, 35, 0
3, 556560, Note_on_c, 0, 54, 0
3, 556560, Note_on_c, 0, 59, 0
3, 556560, Note_on_c, 0, 47, 0
3, 556560, Note_on_c, 0, 66, 101
3, 556560, Note_on_c, 0, 54, 127
3, 556560, Note_on_c, 0, 59, 127
3, 556560, Note_on_c, 0, 35, 100
3, 556560, Note_on_c, 0, 47, 100
3, 556920, Note_on_c, 0, 66, 0
3, 556920, Note_on_c, 0, 61, 105
3, 557100, Note_on_c, 0, 61, 0
3, 557100, Note_on_c, 0, 64, 107
3, 557280, Note_on_c, 0, 64, 0
3, 557280, Note_on_c, 0, 35, 0
3, 557280, Note_on_c, 0, 54, 0
3, 557280, Note_on_c, 0, 59, 0
3, 557280, Note_on_c, 0, 47, 0
3, 557280, Note_on_c, 0, 54, 127
3, 557280, Note_on_c, 0, 59, 127
3, 557280, Note_on_c, 0, 66, 127
3, 557280, Note_on_c, 0, 35, 127
3, 557280, Note_on_c, 0, 47, 127
3, 557369, Note_on_c, 0, 47, 0
3, 557369, Note_on_c, 0, 66, 0
3, 557369, Note_on_c, 0, 54, 0
3, 557369, Note_on_c, 0, 59, 0
3, 557369, Note_on_c, 0, 35, 0
3, 557460, Note_on_c, 0, 51, 112
3, 557460, Note_on_c, 0, 56, 112
3, 557460, Note_on_c, 0, 60, 112
3, 557460, Note_on_c, 0, 63, 112
3, 557460, Note_on_c, 0, 32, 121
3, 557460, Note_on_c, 0, 44, 121
3, 557777, Note_on_c, 0, 44, 0
3, 557777, Note_on_c, 0, 56, 0
3, 557777, Note_on_c, 0, 60, 0
3, 557777, Note_on_c, 0, 51, 0
3, 557777, Note_on_c, 0, 32, 0
3, 557777, Note_on_c, 0, 63, 0
3, 557820, Note_on_c, 0, 51, 114
3, 557820, Note_on_c, 0, 56, 114
3, 557820, Note_on_c, 0, 60, 114
3, 557820, Note_on_c, 0, 63, 114
3, 557820, Note_on_c, 0, 32, 111
3, 557820, Note_on_c, 0, 44, 111
3, 557909, Note_on_c, 0, 44, 0
3, 557909, Note_on_c, 0, 56, 0
3, 557909, Note_on_c, 0, 60, 0
3, 557909, Note_on_c, 0, 51, 0
3, 557909, Note_on_c, 0, 32, 0
3, 557909, Note_on_c, 0, 63, 0
3, 558000, Note_on_c, 0, 51, 112
3, 558000, Note_on_c, 0, 56, 112
3, 558000, Note_on_c, 0, 60, 112
3, 558000, Note_on_c, 0, 63, 112
3, 558000, Note_on_c, 0, 32, 117
3, 558000, Note_on_c, 0, 44, 117
3, 558089, Note_on_c, 0, 44, 0
3, 558089, Note_on_c, 0, 56, 0
3, 558089, Note_on_c, 0, 60, 0
3, 558089, Note_on_c, 0, 51, 0
3, 558089, Note_on_c, 0, 32, 0
3, 558089, Note_on_c, 0, 63, 0
3, 558180, Note_on_c, 0, 51, 121
3, 558180, Note_on_c, 0, 56, 121
3, 558180, Note_on_c, 0, 60, 121
3, 558180, Note_on_c, 0, 63, 121
3, 558180, Note_on_c, 0, 32, 126
3, 558180, Note_on_c, 0, 44, 126
3, 558497, Note_on_c, 0, 44, 0
3, 558497, Note_on_c, 0, 56, 0
3, 558497, Note_on_c, 0, 60, 0
3, 558497, Note_on_c, 0, 51, 0
3, 558497, Note_on_c, 0, 32, 0
3, 558497, Note_on_c, 0, 63, 0
3, 558540, Note_on_c, 0, 51, 115
3, 558540, Note_on_c, 0, 56, 115
3, 558540, Note_on_c, 0, 60, 115
3, 558540, Note_on_c, 0, 63, 115
3, 558540, Note_on_c, 0, 32, 114
3, 558540, Note_on_c, 0, 44, 114
3, 558629, Note_on_c, 0, 44, 0
3, 558629, Note_on_c, 0, 56, 0
3, 558629, Note_on_c, 0, 60, 0
3, 558629, Note_on_c, 0, 51, 0
3, 558629, Note_on_c, 0, 32, 0
3, 558629, Note_on_c, 0, 63, 0
3, 558720, Note_on_c, 0, 51, 112
3, 558720, Note_on_c, 0, 56, 112
3, 558720, Note_on_c, 0, 60, 112
3, 558720, Note_on_c, 0, 63, 112
3, 558720, Note_on_c, 0, 32, 117
3, 558720, Note_on_c, 0, 44, 117
3, 558809, Note_on_c, 0, 44, 0
3, 558809, Note_on_c, 0, 56, 0
3, 558809, Note_on_c, 0, 60, 0
3, 558809, Note_on_c, 0, 51, 0
3, 558809, Note_on_c, 0, 32, 0
3, 558809, Note_on_c, 0, 63, 0
3, 559080, Note_on_c, 0, 51, 105
3, 559080, Note_on_c, 0, 60, 105
3, 559080, Note_on_c, 0, 63, 105
3, 559080, Note_on_c, 0, 44, 125
3, 559169, Note_on_c, 0, 44, 0
3, 559169, Note_on_c, 0, 51, 0
3, 559169, Note_on_c, 0, 60, 0
3, 559169, Note_on_c, 0, 63, 0
3, 559440, Note_on_c, 0, 52, 102
3, 559440, Note_on_c, 0, 60, 102
3, 559440, Note_on_c, 0, 64, 102
3, 559440, Note_on_c, 0, 43, 124
3, 559529, Note_on_c, 0, 43, 0
3, 559529, Note_on_c, 0, 52, 0
3, 559529, Note_on_c, 0, 60, 0
3, 559529, Note_on_c, 0, 64, 0
3, 559800, Note_on_c, 0, 55, 125
3, 559800, Note_on_c, 0, 60, 125
3, 559800, Note_on_c, 0, 67, 125
3, 559800, Note_on_c, 0, 43, 124
3, 559800, Note_on_c, 0, 52, 124
3, 559889, Note_on_c, 0, 52, 0
3, 559889, Note_on_c, 0, 67, 0
3, 559889, Note_on_c, 0, 55, 0
3, 559889, Note_on_c, 0, 60, 0
3, 559889, Note_on_c, 0, 43, 0
3, 560160, Note_on_c, 0, 59, 127
3, 560160, Note_on_c, 0, 64, 127
3, 560160, Note_on_c, 0, 71, 127
3, 560160, Note_on_c, 0, 40, 127
3, 560160, Note_on_c, 0, 47, 127
3, 560160, Note_on_c, 0, 52, 127
3, 561870, Note_on_c, 0, 52, 0
3, 561870, Note_on_c, 0, 64, 0
3, 561870, Note_on_c, 0, 71, 0
3, 561870, Note_on_c, 0, 59, 0
3, 561870, Note_on_c, 0, 47, 0
3, 561870, Note_on_c, 0, 40, 0
3, 561870, Note_on_c, 0, 59, 127
3, 561870, Note_on_c, 0, 64, 127
3, 561870, Note_on_c, 0, 71, 127
3, 561870, Note_on_c, 0, 40, 127
3, 561870, Note_on_c, 0, 47, 127
3, 561870, Note_on_c, 0, 52, 127
3, 561960, Note_on_c, 0, 52, 0
3, 561960, Note_on_c, 0, 64, 0
3, 561960, Note_on_c, 0, 71, 0
3, 561960, Note_on_c, 0, 59, 0
3, 561960, Note_on_c, 0, 47, 0
3, 561960, Note_on_c, 0, 40, 0
3, 561960, Note_on_c, 0, 59, 127
3, 561960, Note_on_c, 0, 64, 127
3, 561960, Note_on_c, 0, 71, 127
3, 561960, Note_on_c, 0, 40, 127
3, 561960, Note_on_c, 0, 47, 127
3, 561960, Note_on_c, 0, 52, 127
3, 562140, Note_on_c, 0, 52, 0
3, 562140, Note_on_c, 0, 64, 0
3, 562140, Note_on_c, 0, 71, 0
3, 562140, Note_on_c, 0, 59, 0
3, 562140, Note_on_c, 0, 47, 0
3, 562140, Note_on_c, 0, 40, 0
3, 562140, Note_on_c, 0, 59, 127
3, 562140, Note_on_c, 0, 64, 127
3, 562140, Note_on_c, 0, 71, 127
3, 562140, Note_on_c, 0, 40, 127
3, 562140, Note_on_c, 0, 47, 127
3, 562140, Note_on_c, 0, 52, 127
3, 562320, Note_on_c, 0, 52, 0
3, 562320, Note_on_c, 0, 64, 0
3, 562320, Note_on_c, 0, 71, 0
3, 562320, Note_on_c, 0, 59, 0
3, 562320, Note_on_c, 0, 47, 0
3, 562320, Note_on_c, 0, 40, 0
3, 562320, Note_on_c, 0, 59, 127
3, 562320, Note_on_c, 0, 64, 127
3, 562320, Note_on_c, 0, 71, 127
3, 562320, Note_on_c, 0, 40, 127
3, 562320, Note_on_c, 0, 47, 127
3, 562320, Note_on_c, 0, 52, 127
3, 563040, Note_on_c, 0, 52, 0
3, 563040, Note_on_c, 0, 64, 0
3, 563040, Note_on_c, 0, 71, 0
3, 563040, Note_on_c, 0, 59, 0
3, 563040, Note_on_c, 0, 47, 0
3, 563040, Note_on_c, 0, 40, 0
3, 563040, Note_on_c, 0, 59, 127
3, 563040, Note_on_c, 0, 64, 127
3, 563040, Note_on_c, 0, 71, 127
3, 563040, Note_on_c, 0, 40, 127
3, 563040, Note_on_c, 0, 47, 127
3, 563040, Note_on_c, 0, 52, 127
3, 564480, Note_on_c, 0, 52, 0
3, 564480, Note_on_c, 0, 64, 0
3, 564480, Note_on_c, 0, 71, 0
3, 564480, Note_on_c, 0, 59, 0
3, 564480, Note_on_c, 0, 47, 0
3, 564480, Note_on_c, 0, 40, 0
3, 564480, Note_on_c, 0, 59, 127
3, 564480, Note_on_c, 0, 64, 127
3, 564480, Note_on_c, 0, 71, 127
3, 564480, Note_on_c, 0, 40, 127
3, 564480, Note_on_c, 0, 47, 127
3, 564480, Note_on_c, 0, 52, 127
3, 564750, Note_on_c, 0, 52, 0
3, 564750, Note_on_c, 0, 64, 0
3, 564750, Note_on_c, 0, 71, 0
3, 564750, Note_on_c, 0, 59, 0
3, 564750, Note_on_c, 0, 47, 0
3, 564750, Note_on_c, 0, 40, 0
3, 564750, Note_on_c, 0, 59, 127
3, 564750, Note_on_c, 0, 64, 127
3, 564750, Note_on_c, 0, 71, 127
3, 564750, Note_on_c, 0, 40, 127
3, 564750, Note_on_c, 0, 47, 127
3, 564750, Note_on_c, 0, 52, 127
3, 564840, Note_on_c, 0, 52, 0
3, 564840, Note_on_c, 0, 64, 0
3, 564840, Note_on_c, 0, 71, 0
3, 564840, Note_on_c, 0, 59, 0
3, 564840, Note_on_c, 0, 47, 0
3, 564840, Note_on_c, 0, 40, 0
3, 564840, Note_on_c, 0, 59, 127
3, 564840, Note_on_c, 0, 64, 127
3, 564840, Note_on_c, 0, 71, 127
3, 564840, Note_on_c, 0, 40, 127
3, 564840, Note_on_c, 0, 47, 127
3, 564840, Note_on_c, 0, 52, 127
3, 565020, Note_on_c, 0, 52, 0
3, 565020, Note_on_c, 0, 64, 0
3, 565020, Note_on_c, 0, 71, 0
3, 565020, Note_on_c, 0, 59, 0
3, 565020, Note_on_c, 0, 47, 0
3, 565020, Note_on_c, 0, 40, 0
3, 565020, Note_on_c, 0, 59, 127
3, 565020, Note_on_c, 0, 64, 127
3, 565020, Note_on_c, 0, 71, 127
3, 565020, Note_on_c, 0, 40, 127
3, 565020, Note_on_c, 0, 47, 127
3, 565020, Note_on_c, 0, 52, 127
3, 565200, Note_on_c, 0, 52, 0
3, 565200, Note_on_c, 0, 64, 0
3, 565200, Note_on_c, 0, 71, 0
3, 565200, Note_on_c, 0, 59, 0
3, 565200, Note_on_c, 0, 47, 0
3, 565200, Note_on_c, 0, 40, 0
3, 565200, Note_on_c, 0, 59, 127
3, 565200, Note_on_c, 0, 64, 127
3, 565200, Note_on_c, 0, 71, 127
3, 565200, Note_on_c, 0, 40, 127
3, 565200, Note_on_c, 0, 47, 127
3, 565200, Note_on_c, 0, 52, 127
3, 565560, Note_on_c, 0, 52, 0
3, 565560, Note_on_c, 0, 64, 0
3, 565560, Note_on_c, 0, 71, 0
3, 565560, Note_on_c, 0, 59, 0
3, 565560, Note_on_c, 0, 47, 0
3, 565560, Note_on_c, 0, 40, 0
3, 565560, Note_on_c, 0, 59, 127
3, 565560, Note_on_c, 0, 64, 127
3, 565560, Note_on_c, 0, 71, 127
3, 565560, Note_on_c, 0, 40, 127
3, 565560, Note_on_c, 0, 47, 127
3, 565560, Note_on_c, 0, 52, 127
3, 565920, Note_on_c, 0, 52, 0
3, 565920, Note_on_c, 0, 64, 0
3, 565920, Note_on_c, 0, 71, 0
3, 565920, Note_on_c, 0, 59, 0
3, 565920, Note_on_c, 0, 47, 0
3, 565920, Note_on_c, 0, 40, 0
3, 565920, Note_on_c, 0, 54, 127
3, 565920, Note_on_c, 0, 59, 127
3, 565920, Note_on_c, 0, 66, 127
3, 565920, Note_on_c, 0, 35, 127
3, 565920, Note_on_c, 0, 47, 127
3, 567630, Note_on_c, 0, 47, 0
3, 567630, Note_on_c, 0, 66, 0
3, 567630, Note_on_c, 0, 54, 0
3, 567630, Note_on_c, 0, 59, 0
3, 567630, Note_on_c, 0, 35, 0
3, 567630, Note_on_c, 0, 54, 127
3, 567630, Note_on_c, 0, 59, 127
3, 567630, Note_on_c, 0, 66, 127
3, 567630, Note_on_c, 0, 35, 126
3, 567630, Note_on_c, 0, 47, 126
3, 567720, Note_on_c, 0, 47, 0
3, 567720, Note_on_c, 0, 66, 0
3, 567720, Note_on_c, 0, 54, 0
3, 567720, Note_on_c, 0, 59, 0
3, 567720, Note_on_c, 0, 35, 0
3, 567720, Note_on_c, 0, 54, 127
3, 567720, Note_on_c, 0, 59, 127
3, 567720, Note_on_c, 0, 66, 127
3, 567720, Note_on_c, 0, 35, 126
3, 567720, Note_on_c, 0, 47, 126
3, 567900, Note_on_c, 0, 47, 0
3, 567900, Note_on_c, 0, 66, 0
3, 567900, Note_on_c, 0, 54, 0
3, 567900, Note_on_c, 0, 59, 0
3, 567900, Note_on_c, 0, 35, 0
3, 567900, Note_on_c, 0, 54, 127
3, 567900, Note_on_c, 0, 59, 127
3, 567900, Note_on_c, 0, 66, 127
3, 567900, Note_on_c, 0, 35, 126
3, 567900, Note_on_c, 0, 47, 126
3, 568080, Note_on_c, 0, 47, 0
3, 568080, Note_on_c, 0, 66, 0
3, 568080, Note_on_c, 0, 54, 0
3, 568080, Note_on_c, 0, 59, 0
3, 568080, Note_on_c, 0, 35, 0
3, 568080, Note_on_c, 0, 54, 127
3, 568080, Note_on_c, 0, 59, 127
3, 568080, Note_on_c, 0, 66, 127
3, 568080, Note_on_c, 0, 35, 125
3, 568080, Note_on_c, 0, 47, 125
3, 568800, Note_on_c, 0, 47, 0
3, 568800, Note_on_c, 0, 66, 0
3, 568800, Note_on_c, 0, 54, 0
3, 568800, Note_on_c, 0, 59, 0
3, 568800, Note_on_c, 0, 35, 0
3, 568800, Note_on_c, 0, 54, 127
3, 568800, Note_on_c, 0, 59, 127
3, 568800, Note_on_c, 0, 66, 127
3, 568800, Note_on_c, 0, 35, 127
3, 568800, Note_on_c, 0, 47, 127
3, 570240, Note_on_c, 0, 47, 0
3, 570240, Note_on_c, 0, 66, 0
3, 570240, Note_on_c, 0, 54, 0
3, 570240, Note_on_c, 0, 59, 0
3, 570240, Note_on_c, 0, 35, 0
3, 570240, Note_on_c, 0, 54, 127
3, 570240, Note_on_c, 0, 59, 127
3, 570240, Note_on_c, 0, 66, 127
3, 570240, Note_on_c, 0, 35, 127
3, 570240, Note_on_c, 0, 47, 127
3, 570510, Note_on_c, 0, 47, 0
3, 570510, Note_on_c, 0, 66, 0
3, 570510, Note_on_c, 0, 54, 0
3, 570510, Note_on_c, 0, 59, 0
3, 570510, Note_on_c, 0, 35, 0
3, 570510, Note_on_c, 0, 54, 127
3, 570510, Note_on_c, 0, 59, 127
3, 570510, Note_on_c, 0, 66, 127
3, 570510, Note_on_c, 0, 35, 127
3, 570510, Note_on_c, 0, 47, 127
3, 570600, Note_on_c, 0, 47, 0
3, 570600, Note_on_c, 0, 66, 0
3, 570600, Note_on_c, 0, 54, 0
3, 570600, Note_on_c, 0, 59, 0
3, 570600, Note_on_c, 0, 35, 0
3, 570600, Note_on_c, 0, 54, 127
3, 570600, Note_on_c, 0, 59, 127
3, 570600, Note_on_c, 0, 66, 127
3, 570600, Note_on_c, 0, 35, 127
3, 570600, Note_on_c, 0, 47, 127
3, 570780, Note_on_c, 0, 47, 0
3, 570780, Note_on_c, 0, 66, 0
3, 570780, Note_on_c, 0, 54, 0
3, 570780, Note_on_c, 0, 59, 0
3, 570780, Note_on_c, 0, 35, 0
3, 570780, Note_on_c, 0, 54, 127
3, 570780, Note_on_c, 0, 59, 127
3, 570780, Note_on_c, 0, 66, 127
3, 570780, Note_on_c, 0, 35, 127
3, 570780, Note_on_c, 0, 47, 127
3, 570960, Note_on_c, 0, 47, 0
3, 570960, Note_on_c, 0, 66, 0
3, 570960, Note_on_c, 0, 54, 0
3, 570960, Note_on_c, 0, 59, 0
3, 570960, Note_on_c, 0, 35, 0
3, 570960, Note_on_c, 0, 54, 127
3, 570960, Note_on_c, 0, 59, 127
3, 570960, Note_on_c, 0, 66, 127
3, 570960, Note_on_c, 0, 35, 127
3, 570960, Note_on_c, 0, 47, 127
3, 571320, Note_on_c, 0, 47, 0
3, 571320, Note_on_c, 0, 66, 0
3, 571320, Note_on_c, 0, 54, 0
3, 571320, Note_on_c, 0, 59, 0
3, 571320, Note_on_c, 0, 35, 0
3, 571320, Note_on_c, 0, 54, 127
3, 571320, Note_on_c, 0, 59, 127
3, 571320, Note_on_c, 0, 66, 127
3, 571320, Note_on_c, 0, 35, 127
3, 571320, Note_on_c, 0, 47, 127
3, 571680, Note_on_c, 0, 47, 0
3, 571680, Note_on_c, 0, 66, 0
3, 571680, Note_on_c, 0, 54, 0
3, 571680, Note_on_c, 0, 59, 0
3, 571680, Note_on_c, 0, 35, 0
3, 571680, Note_on_c, 0, 56, 50
3, 571680, Note_on_c, 0, 59, 50
3, 571680, Note_on_c, 0, 68, 50
3, 571680, Note_on_c, 0, 40, 50
3, 571680, Note_on_c, 0, 52, 50
3, 572040, Note_on_c, 0, 52, 0
3, 572040, Note_on_c, 0, 68, 0
3, 572040, Note_on_c, 0, 56, 0
3, 572040, Note_on_c, 0, 59, 0
3, 572040, Note_on_c, 0, 40, 0
3, 572040, Note_on_c, 0, 56, 52
3, 572040, Note_on_c, 0, 60, 52
3, 572040, Note_on_c, 0, 66, 52
3, 572040, Note_on_c, 0, 44, 52
3, 572040, Note_on_c, 0, 51, 52
3, 572400, Note_on_c, 0, 51, 0
3, 572400, Note_on_c, 0, 66, 0
3, 572400, Note_on_c, 0, 56, 0
3, 572400, Note_on_c, 0, 60, 0
3, 572400, Note_on_c, 0, 44, 0
3, 572400, Note_on_c, 0, 56, 53
3, 572400, Note_on_c, 0, 61, 53
3, 572400, Note_on_c, 0, 64, 53
3, 572400, Note_on_c, 0, 37, 53
3, 572400, Note_on_c, 0, 49, 53
3, 572489, Note_on_c, 0, 49, 0
3, 572489, Note_on_c, 0, 64, 0
3, 572489, Note_on_c, 0, 56, 0
3, 572489, Note_on_c, 0, 61, 0
3, 572489, Note_on_c, 0, 37, 0
3, 572580, Note_on_c, 0, 56, 54
3, 572580, Note_on_c, 0, 61, 54
3, 572580, Note_on_c, 0, 64, 54
3, 572580, Note_on_c, 0, 37, 54
3, 572580, Note_on_c, 0, 49, 54
3, 572897, Note_on_c, 0, 49, 0
3, 572897, Note_on_c, 0, 64, 0
3, 572897, Note_on_c, 0, 56, 0
3, 572897, Note_on_c, 0, 61, 0
3, 572897, Note_on_c, 0, 37, 0
3, 572940, Note_on_c, 0, 56, 56
3, 572940, Note_on_c, 0, 60, 56
3, 572940, Note_on_c, 0, 66, 56
3, 572940, Note_on_c, 0, 44, 56
3, 572940, Note_on_c, 0, 51, 56
3, 573029, Note_on_c, 0, 51, 0
3, 573029, Note_on_c, 0, 66, 0
3, 573029, Note_on_c, 0, 56, 0
3, 573029, Note_on_c, 0, 60, 0
3, 573029, Note_on_c, 0, 44, 0
3, 573120, Note_on_c, 0, 56, 57
3, 573120, Note_on_c, 0, 59, 57
3, 573120, Note_on_c, 0, 68, 57
3, 573120, Note_on_c, 0, 40, 57
3, 573120, Note_on_c, 0, 52, 57
3, 573480, Note_on_c, 0, 52, 0
3, 573480, Note_on_c, 0, 68, 0
3, 573480, Note_on_c, 0, 56, 0
3, 573480, Note_on_c, 0, 59, 0
3, 573480, Note_on_c, 0, 40, 0
3, 573480, Note_on_c, 0, 56, 58
3, 573480, Note_on_c, 0, 60, 58
3, 573480, Note_on_c, 0, 66, 58
3, 573480, Note_on_c, 0, 44, 58
3, 573480, Note_on_c, 0, 51, 58
3, 573840, Note_on_c, 0, 51, 0
3, 573840, Note_on_c, 0, 66, 0
3, 573840, Note_on_c, 0, 56, 0
3, 573840, Note_on_c, 0, 60, 0
3, 573840, Note_on_c, 0, 44, 0
3, 573840, Note_on_c, 0, 56, 60
3, 573840, Note_on_c, 0, 61, 60
3, 573840, Note_on_c, 0, 64, 60
3, 573840, Note_on_c, 0, 37, 60
3, 573840, Note_on_c, 0, 49, 60
3, 573929, Note_on_c, 0, 49, 0
3, 573929, Note_on_c, 0, 64, 0
3, 573929, Note_on_c, 0, 56, 0
3, 573929, Note_on_c, 0, 61, 0
3, 573929, Note_on_c, 0, 37, 0
3, 574020, Note_on_c, 0, 56, 61
3, 574020, Note_on_c, 0, 61, 61
3, 574020, Note_on_c, 0, 64, 61
3, 574020, Note_on_c, 0, 37, 61
3, 574020, Note_on_c, 0, 49, 61
3, 574337, Note_on_c, 0, 49, 0
3, 574337, Note_on_c, 0, 64, 0
3, 574337, Note_on_c, 0, 56, 0
3, 574337, Note_on_c, 0, 61, 0
3, 574337, Note_on_c, 0, 37, 0
3, 574380, Note_on_c, 0, 56, 62
3, 574380, Note_on_c, 0, 60, 62
3, 574380, Note_on_c, 0, 66, 62
3, 574380, Note_on_c, 0, 44, 62
3, 574380, Note_on_c, 0, 51, 62
3, 574469, Note_on_c, 0, 51, 0
3, 574469, Note_on_c, 0, 66, 0
3, 574469, Note_on_c, 0, 56, 0
3, 574469, Note_on_c, 0, 60, 0
3, 574469, Note_on_c, 0, 44, 0
3, 574560, Note_on_c, 0, 56, 63
3, 574560, Note_on_c, 0, 59, 63
3, 574560, Note_on_c, 0, 68, 63
3, 574560, Note_on_c, 0, 40, 63
3, 574560, Note_on_c, 0, 52, 63
3, 574920, Note_on_c, 0, 52, 0
3, 574920, Note_on_c, 0, 68, 0
3, 574920, Note_on_c, 0, 56, 0
3, 574920, Note_on_c, 0, 59, 0
3, 574920, Note_on_c, 0, 40, 0
3, 574920, Note_on_c, 0, 56, 65
3, 574920, Note_on_c, 0, 60, 65
3, 574920, Note_on_c, 0, 66, 65
3, 574920, Note_on_c, 0, 44, 65
3, 574920, Note_on_c, 0, 51, 65
3, 575280, Note_on_c, 0, 51, 0
3, 575280, Note_on_c, 0, 66, 0
3, 575280, Note_on_c, 0, 56, 0
3, 575280, Note_on_c, 0, 60, 0
3, 575280, Note_on_c, 0, 44, 0
3, 575280, Note_on_c, 0, 56, 66
3, 575280, Note_on_c, 0, 59, 66
3, 575280, Note_on_c, 0, 68, 66
3, 575280, Note_on_c, 0, 40, 66
3, 575280, Note_on_c, 0, 52, 66
3, 575640, Note_on_c, 0, 52, 0
3, 575640, Note_on_c, 0, 68, 0
3, 575640, Note_on_c, 0, 56, 0
3, 575640, Note_on_c, 0, 59, 0
3, 575640, Note_on_c, 0, 40, 0
3, 575640, Note_on_c, 0, 56, 68
3, 575640, Note_on_c, 0, 60, 68
3, 575640, Note_on_c, 0, 66, 68
3, 575640, Note_on_c, 0, 44, 68
3, 575640, Note_on_c, 0, 51, 68
3, 576000, Note_on_c, 0, 51, 0
3, 576000, Note_on_c, 0, 66, 0
3, 576000, Note_on_c, 0, 56, 0
3, 576000, Note_on_c, 0, 60, 0
3, 576000, Note_on_c, 0, 44, 0
3, 576000, Note_on_c, 0, 56, 69
3, 576000, Note_on_c, 0, 59, 69
3, 576000, Note_on_c, 0, 68, 69
3, 576000, Note_on_c, 0, 40, 69
3, 576000, Note_on_c, 0, 52, 69
3, 576360, Note_on_c, 0, 52, 0
3, 576360, Note_on_c, 0, 68, 0
3, 576360, Note_on_c, 0, 56, 0
3, 576360, Note_on_c, 0, 59, 0
3, 576360, Note_on_c, 0, 40, 0
3, 576360, Note_on_c, 0, 56, 71
3, 576360, Note_on_c, 0, 60, 71
3, 576360, Note_on_c, 0, 66, 71
3, 576360, Note_on_c, 0, 44, 71
3, 576360, Note_on_c, 0, 51, 71
3, 576720, Note_on_c, 0, 51, 0
3, 576720, Note_on_c, 0, 66, 0
3, 576720, Note_on_c, 0, 56, 0
3, 576720, Note_on_c, 0, 60, 0
3, 576720, Note_on_c, 0, 44, 0
3, 576720, Note_on_c, 0, 56, 73
3, 576720, Note_on_c, 0, 59, 73
3, 576720, Note_on_c, 0, 68, 73
3, 576720, Note_on_c, 0, 40, 73
3, 576720, Note_on_c, 0, 52, 73
3, 577080, Note_on_c, 0, 52, 0
3, 577080, Note_on_c, 0, 68, 0
3, 577080, Note_on_c, 0, 56, 0
3, 577080, Note_on_c, 0, 59, 0
3, 577080, Note_on_c, 0, 40, 0
3, 577080, Note_on_c, 0, 56, 74
3, 577080, Note_on_c, 0, 59, 74
3, 577080, Note_on_c, 0, 64, 74
3, 577080, Note_on_c, 0, 38, 74
3, 577080, Note_on_c, 0, 50, 74
3, 577440, Note_on_c, 0, 50, 0
3, 577440, Note_on_c, 0, 64, 0
3, 577440, Note_on_c, 0, 56, 0
3, 577440, Note_on_c, 0, 59, 0
3, 577440, Note_on_c, 0, 38, 0
3, 577440, Note_on_c, 0, 55, 76
3, 577440, Note_on_c, 0, 60, 76
3, 577440, Note_on_c, 0, 64, 76
3, 577440, Note_on_c, 0, 36, 76
3, 577440, Note_on_c, 0, 48, 76
3, 577620, Note_on_c, 0, 48, 0
3, 577620, Note_on_c, 0, 64, 0
3, 577620, Note_on_c, 0, 55, 0
3, 577620, Note_on_c, 0, 60, 0
3, 577620, Note_on_c, 0, 36, 0
3, 577620, Note_on_c, 0, 55, 97
3, 577620, Note_on_c, 0, 60, 97
3, 577620, Note_on_c, 0, 64, 97
3, 577620, Note_on_c, 0, 36, 101
3, 577620, Note_on_c, 0, 48, 101
3, 577800, Note_on_c, 0, 48, 0
3, 577800, Note_on_c, 0, 64, 0
3, 577800, Note_on_c, 0, 55, 0
3, 577800, Note_on_c, 0, 60, 0
3, 577800, Note_on_c, 0, 36, 0
3, 577800, Note_on_c, 0, 57, 102
3, 577800, Note_on_c, 0, 60, 102
3, 577800, Note_on_c, 0, 65, 102
3, 577800, Note_on_c, 0, 36, 102
3, 577800, Note_on_c, 0, 48, 102
3, 577980, Note_on_c, 0, 48, 0
3, 577980, Note_on_c, 0, 65, 0
3, 577980, Note_on_c, 0, 57, 0
3, 577980, Note_on_c, 0, 60, 0
3, 577980, Note_on_c, 0, 36, 0
3, 577980, Note_on_c, 0, 55, 98
3, 577980, Note_on_c, 0, 60, 98
3, 577980, Note_on_c, 0, 64, 98
3, 577980, Note_on_c, 0, 36, 100
3, 577980, Note_on_c, 0, 48, 100
3, 578160, Note_on_c, 0, 48, 0
3, 578160, Note_on_c, 0, 64, 0
3, 578160, Note_on_c, 0, 55, 0
3, 578160, Note_on_c, 0, 60, 0
3, 578160, Note_on_c, 0, 36, 0
3, 578160, Note_on_c, 0, 53, 96
3, 578160, Note_on_c, 0, 60, 96
3, 578160, Note_on_c, 0, 62, 96
3, 578160, Note_on_c, 0, 36, 98
3, 578160, Note_on_c, 0, 48, 98
3, 578340, Note_on_c, 0, 48, 0
3, 578340, Note_on_c, 0, 62, 0
3, 578340, Note_on_c, 0, 53, 0
3, 578340, Note_on_c, 0, 60, 0
3, 578340, Note_on_c, 0, 36, 0
3, 578340, Note_on_c, 0, 53, 95
3, 578340, Note_on_c, 0, 60, 95
3, 578340, Note_on_c, 0, 62, 95
3, 578340, Note_on_c, 0, 36, 97
3, 578340, Note_on_c, 0, 48, 97
3, 578520, Note_on_c, 0, 48, 0
3, 578520, Note_on_c, 0, 62, 0
3, 578520, Note_on_c, 0, 53, 0
3, 578520, Note_on_c, 0, 60, 0
3, 578520, Note_on_c, 0, 36, 0
3, 578520, Note_on_c, 0, 55, 105
3, 578520, Note_on_c, 0, 60, 105
3, 578520, Note_on_c, 0, 64, 105
3, 578520, Note_on_c, 0, 36, 102
3, 578520, Note_on_c, 0, 48, 102
3, 578880, Note_on_c, 0, 48, 0
3, 578880, Note_on_c, 0, 64, 0
3, 578880, Note_on_c, 0, 55, 0
3, 578880, Note_on_c, 0, 60, 0
3, 578880, Note_on_c, 0, 36, 0
3, 578880, Note_on_c, 0, 52, 94
3, 578880, Note_on_c, 0, 60, 94
3, 578880, Note_on_c, 0, 36, 99
3, 578880, Note_on_c, 0, 48, 99
3, 579150, Note_on_c, 0, 48, 0
3, 579150, Note_on_c, 0, 52, 0
3, 579150, Note_on_c, 0, 60, 0
3, 579150, Note_on_c, 0, 36, 0
3, 579150, Note_on_c, 0, 52, 101
3, 579150, Note_on_c, 0, 60, 101
3, 579150, Note_on_c, 0, 36, 100
3, 579150, Note_on_c, 0, 48, 100
3, 579240, Note_on_c, 0, 48, 0
3, 579240, Note_on_c, 0, 52, 0
3, 579240, Note_on_c, 0, 60, 0
3, 579240, Note_on_c, 0, 36, 0
3, 579240, Note_on_c, 0, 52, 100
3, 579240, Note_on_c, 0, 60, 100
3, 579240, Note_on_c, 0, 36, 100
3, 579240, Note_on_c, 0, 48, 100
3, 579420, Note_on_c, 0, 48, 0
3, 579420, Note_on_c, 0, 52, 0
3, 579420, Note_on_c, 0, 60, 0
3, 579420, Note_on_c, 0, 36, 0
3, 579420, Note_on_c, 0, 53, 106
3, 579420, Note_on_c, 0, 60, 106
3, 579420, Note_on_c, 0, 62, 106
3, 579420, Note_on_c, 0, 36, 99
3, 579420, Note_on_c, 0, 48, 99
3, 579600, Note_on_c, 0, 48, 0
3, 579600, Note_on_c, 0, 62, 0
3, 579600, Note_on_c, 0, 53, 0
3, 579600, Note_on_c, 0, 60, 0
3, 579600, Note_on_c, 0, 36, 0
3, 579600, Note_on_c, 0, 55, 105
3, 579600, Note_on_c, 0, 60, 105
3, 579600, Note_on_c, 0, 64, 105
3, 579600, Note_on_c, 0, 36, 100
3, 579600, Note_on_c, 0, 48, 100
3, 579960, Note_on_c, 0, 48, 0
3, 579960, Note_on_c, 0, 64, 0
3, 579960, Note_on_c, 0, 55, 0
3, 579960, Note_on_c, 0, 60, 0
3, 579960, Note_on_c, 0, 36, 0
3, 579960, Note_on_c, 0, 55, 100
3, 579960, Note_on_c, 0, 60, 100
3, 579960, Note_on_c, 0, 64, 100
3, 579960, Note_on_c, 0, 36, 103
3, 579960, Note_on_c, 0, 48, 103
3, 580320, Note_on_c, 0, 48, 0
3, 580320, Note_on_c, 0, 64, 0
3, 580320, Note_on_c, 0, 55, 0
3, 580320, Note_on_c, 0, 60, 0
3, 580320, Note_on_c, 0, 36, 0
3, 580320, Note_on_c, 0, 55, 102
3, 580320, Note_on_c, 0, 60, 102
3, 580320, Note_on_c, 0, 64, 102
3, 580320, Note_on_c, 0, 36, 103
3, 580320, Note_on_c, 0, 48, 103
3, 580680, Note_on_c, 0, 48, 0
3, 580680, Note_on_c, 0, 64, 0
3, 580680, Note_on_c, 0, 55, 0
3, 580680, Note_on_c, 0, 60, 0
3, 580680, Note_on_c, 0, 36, 0
3, 580680, Note_on_c, 0, 53, 96
3, 580680, Note_on_c, 0, 60, 96
3, 580680, Note_on_c, 0, 62, 96
3, 580680, Note_on_c, 0, 36, 100
3, 580680, Note_on_c, 0, 48, 100
3, 581040, Note_on_c, 0, 48, 0
3, 581040, Note_on_c, 0, 62, 0
3, 581040, Note_on_c, 0, 53, 0
3, 581040, Note_on_c, 0, 60, 0
3, 581040, Note_on_c, 0, 36, 0
3, 581040, Note_on_c, 0, 55, 104
3, 581040, Note_on_c, 0, 60, 104
3, 581040, Note_on_c, 0, 64, 104
3, 581040, Note_on_c, 0, 36, 104
3, 581040, Note_on_c, 0, 48, 104
3, 581400, Note_on_c, 0, 48, 0
3, 581400, Note_on_c, 0, 64, 0
3, 581400, Note_on_c, 0, 55, 0
3, 581400, Note_on_c, 0, 60, 0
3, 581400, Note_on_c, 0, 36, 0
3, 581400, Note_on_c, 0, 53, 96
3, 581400, Note_on_c, 0, 60, 96
3, 581400, Note_on_c, 0, 62, 96
3, 581400, Note_on_c, 0, 36, 100
3, 581400, Note_on_c, 0, 48, 100
3, 581760, Note_on_c, 0, 48, 0
3, 581760, Note_on_c, 0, 62, 0
3, 581760, Note_on_c, 0, 53, 0
3, 581760, Note_on_c, 0, 60, 0
3, 581760, Note_on_c, 0, 36, 0
3, 581760, Note_on_c, 0, 55, 105
3, 581760, Note_on_c, 0, 60, 105
3, 581760, Note_on_c, 0, 64, 105
3, 581760, Note_on_c, 0, 36, 101
3, 581760, Note_on_c, 0, 48, 101
3, 582120, Note_on_c, 0, 48, 0
3, 582120, Note_on_c, 0, 64, 0
3, 582120, Note_on_c, 0, 55, 0
3, 582120, Note_on_c, 0, 60, 0
3, 582120, Note_on_c, 0, 36, 0
3, 582120, Note_on_c, 0, 53, 98
3, 582120, Note_on_c, 0, 60, 98
3, 582120, Note_on_c, 0, 62, 98
3, 582120, Note_on_c, 0, 36, 105
3, 582120, Note_on_c, 0, 48, 105
3, 582480, Note_on_c, 0, 48, 0
3, 582480, Note_on_c, 0, 62, 0
3, 582480, Note_on_c, 0, 53, 0
3, 582480, Note_on_c, 0, 60, 0
3, 582480, Note_on_c, 0, 36, 0
3, 582480, Note_on_c, 0, 55, 103
3, 582480, Note_on_c, 0, 60, 103
3, 582480, Note_on_c, 0, 64, 103
3, 582480, Note_on_c, 0, 36, 101
3, 582480, Note_on_c, 0, 48, 101
3, 582840, Note_on_c, 0, 48, 0
3, 582840, Note_on_c, 0, 64, 0
3, 582840, Note_on_c, 0, 55, 0
3, 582840, Note_on_c, 0, 60, 0
3, 582840, Note_on_c, 0, 36, 0
3, 582840, Note_on_c, 0, 53, 99
3, 582840, Note_on_c, 0, 60, 99
3, 582840, Note_on_c, 0, 62, 99
3, 582840, Note_on_c, 0, 36, 103
3, 582840, Note_on_c, 0, 48, 103
3, 583200, Note_on_c, 0, 48, 0
3, 583200, Note_on_c, 0, 62, 0
3, 583200, Note_on_c, 0, 53, 0
3, 583200, Note_on_c, 0, 60, 0
3, 583200, Note_on_c, 0, 36, 0
3, 583200, Note_on_c, 0, 55, 104
3, 583200, Note_on_c, 0, 60, 104
3, 583200, Note_on_c, 0, 64, 104
3, 583200, Note_on_c, 0, 36, 100
3, 583200, Note_on_c, 0, 48, 100
3, 583290, Note_on_c, 0, 48, 0
3, 583290, Note_on_c, 0, 64, 0
3, 583290, Note_on_c, 0, 55, 0
3, 583290, Note_on_c, 0, 60, 0
3, 583290, Note_on_c, 0, 36, 0
3, 583290, Note_on_c, 0, 48, 76
3, 583290, Note_on_c, 0, 36, 76
3, 583380, Note_on_c, 0, 36, 0
3, 583380, Note_on_c, 0, 48, 0
3, 583380, Note_on_c, 0, 50, 79
3, 583380, Note_on_c, 0, 38, 79
3, 583470, Note_on_c, 0, 38, 0
3, 583470, Note_on_c, 0, 50, 0
3, 583470, Note_on_c, 0, 52, 83
3, 583470, Note_on_c, 0, 40, 83
3, 583560, Note_on_c, 0, 40, 0
3, 583560, Note_on_c, 0, 52, 0
3, 583560, Note_on_c, 0, 53, 87
3, 583560, Note_on_c, 0, 41, 87
3, 583650, Note_on_c, 0, 41, 0
3, 583650, Note_on_c, 0, 53, 0
3, 583650, Note_on_c, 0, 55, 90
3, 583650, Note_on_c, 0, 43, 90
3, 583740, Note_on_c, 0, 43, 0
3, 583740, Note_on_c, 0, 55, 0
3, 583740, Note_on_c, 0, 57, 94
3, 583740, Note_on_c, 0, 45, 94
3, 583830, Note_on_c, 0, 45, 0
3, 583830, Note_on_c, 0, 57, 0
3, 583830, Note_on_c, 0, 59, 97
3, 583830, Note_on_c, 0, 47, 97
3, 583920, Note_on_c, 0, 47, 0
3, 583920, Note_on_c, 0, 59, 0
3, 583920, Note_on_c, 0, 60, 127
3, 583920, Note_on_c, 0, 48, 127
3, 583964, Note_on_c, 0, 60, 0
3, 584010, Note_on_c, 0, 48, 0
3, 584010, Note_on_c, 0, 55, 101
3, 584010, Note_on_c, 0, 43, 101
3, 584100, Note_on_c, 0, 43, 0
3, 584100, Note_on_c, 0, 55, 0
3, 584100, Note_on_c, 0, 57, 105
3, 584100, Note_on_c, 0, 45, 105
3, 584190, Note_on_c, 0, 45, 0
3, 584190, Note_on_c, 0, 57, 0
3, 584190, Note_on_c, 0, 59, 108
3, 584190, Note_on_c, 0, 47, 108
3, 584280, Note_on_c, 0, 47, 0
3, 584280, Note_on_c, 0, 59, 0
3, 584280, Note_on_c, 0, 60, 112
3, 584280, Note_on_c, 0, 48, 112
3, 584370, Note_on_c, 0, 48, 0
3, 584370, Note_on_c, 0, 60, 0
3, 584370, Note_on_c, 0, 62, 116
3, 584370, Note_on_c, 0, 50, 116
3, 584460, Note_on_c, 0, 50, 0
3, 584460, Note_on_c, 0, 62, 0
3, 584460, Note_on_c, 0, 64, 119
3, 584460, Note_on_c, 0, 52, 119
3, 584550, Note_on_c, 0, 52, 0
3, 584550, Note_on_c, 0, 64, 0
3, 584550, Note_on_c, 0, 65, 123
3, 584550, Note_on_c, 0, 53, 123
3, 584640, Note_on_c, 0, 53, 0
3, 584640, Note_on_c, 0, 65, 0
3, 584640, Note_on_c, 0, 67, 127
3, 584640, Note_on_c, 0, 55, 127
3, 584684, Note_on_c, 0, 55, 0
3, 584684, Note_on_c, 0, 67, 0
3, 584730, Note_on_c, 0, 60, 126
3, 584730, Note_on_c, 0, 48, 126
3, 584820, Note_on_c, 0, 48, 0
3, 584820, Note_on_c, 0, 60, 0
3, 584820, Note_on_c, 0, 62, 127
3, 584820, Note_on_c, 0, 50, 127
3, 584910, Note_on_c, 0, 50, 0
3, 584910, Note_on_c, 0, 62, 0
3, 584910, Note_on_c, 0, 64, 127
3, 584910, Note_on_c, 0, 52, 127
3, 585000, Note_on_c, 0, 52, 0
3, 585000, Note_on_c, 0, 64, 0
3, 585000, Note_on_c, 0, 65, 127
3, 585000, Note_on_c, 0, 53, 127
3, 585090, Note_on_c, 0, 53, 0
3, 585090, Note_on_c, 0, 65, 0
3, 585090, Note_on_c, 0, 67, 127
3, 585090, Note_on_c, 0, 55, 127
3, 585180, Note_on_c, 0, 55, 0
3, 585180, Note_on_c, 0, 67, 0
3, 585180, Note_on_c, 0, 69, 127
3, 585180, Note_on_c, 0, 57, 127
3, 585270, Note_on_c, 0, 57, 0
3, 585270, Note_on_c, 0, 69, 0
3, 585270, Note_on_c, 0, 71, 127
3, 585270, Note_on_c, 0, 59, 127
3, 585360, Note_on_c, 0, 59, 0
3, 585360, Note_on_c, 0, 71, 0
3, 585360, Note_on_c, 0, 72, 127
3, 585360, Note_on_c, 0, 60, 127
3, 585449, Note_on_c, 0, 60, 0
3, 585449, Note_on_c, 0, 72, 0
3, 586080, Note_on_c, 0, 58, 127
3, 586080, Note_on_c, 0, 64, 127
3, 586080, Note_on_c, 0, 67, 127
3, 586080, Note_on_c, 0, 70, 127
3, 586080, Note_on_c, 0, 42, 127
3, 586080, Note_on_c, 0, 49, 127
3, 586169, Note_on_c, 0, 70, 0
3, 586169, Note_on_c, 0, 67, 0
3, 586169, Note_on_c, 0, 58, 0
3, 586169, Note_on_c, 0, 64, 0
3, 586260, Note_on_c, 0, 49, 0
3, 586260, Note_on_c, 0, 42, 0
3, 586260, Note_on_c, 0, 42, 127
3, 586440, Note_on_c, 0, 42, 0
3, 586440, Note_on_c, 0, 30, 127
3, 586800, Note_on_c, 0, 30, 0
3, 587520, Note_on_c, 0, 55, 127
3, 587520, Note_on_c, 0, 60, 127
3, 587520, Note_on_c, 0, 64, 127
3, 587520, Note_on_c, 0, 34, 127
3, 587520, Note_on_c, 0, 46, 127
3, 587700, Note_on_c, 0, 46, 0
3, 587700, Note_on_c, 0, 64, 0
3, 587700, Note_on_c, 0, 55, 0
3, 587700, Note_on_c, 0, 60, 0
3, 587700, Note_on_c, 0, 34, 0
3, 588960, Note_on_c, 0, 54, 127
3, 588960, Note_on_c, 0, 57, 127
3, 588960, Note_on_c, 0, 63, 127
3, 588960, Note_on_c, 0, 35, 127
3, 588960, Note_on_c, 0, 47, 127
3, 589140, Note_on_c, 0, 47, 0
3, 589140, Note_on_c, 0, 63, 0
3, 589140, Note_on_c, 0, 54, 0
3, 589140, Note_on_c, 0, 57, 0
3, 589140, Note_on_c, 0, 35, 0
3, 590400, Note_on_c, 0, 59, 113
3, 590400, Note_on_c, 0, 71, 113
3, 590400, Note_on_c, 0, 64, 126
3, 590400, Note_on_c, 0, 40, 112
3, 590400, Note_on_c, 0, 47, 112
3, 590400, Note_on_c, 0, 52, 112
3, 591480, Note_on_c, 0, 71, 0
3, 591480, Note_on_c, 0, 59, 0
3, 591480, Note_on_c, 0, 54, 127
3, 591480, Note_on_c, 0, 66, 127
3, 591660, Note_on_c, 0, 66, 0
3, 591660, Note_on_c, 0, 54, 0
3, 591660, Note_on_c, 0, 57, 127
3, 591660, Note_on_c, 0, 69, 127
3, 591840, Note_on_c, 0, 69, 0
3, 591840, Note_on_c, 0, 52, 0
3, 591840, Note_on_c, 0, 47, 0
3, 591840, Note_on_c, 0, 40, 0
3, 591840, Note_on_c, 0, 57, 0
3, 591840, Note_on_c, 0, 64, 0
3, 591840, Note_on_c, 0, 59, 127
3, 591840, Note_on_c, 0, 71, 127
3, 591840, Note_on_c, 0, 64, 126
3, 591840, Note_on_c, 0, 40, 126
3, 591840, Note_on_c, 0, 52, 126
3, 592200, Note_on_c, 0, 71, 0
3, 592200, Note_on_c, 0, 59, 0
3, 592200, Note_on_c, 0, 60, 127
3, 592200, Note_on_c, 0, 72, 127
3, 592380, Note_on_c, 0, 72, 0
3, 592380, Note_on_c, 0, 60, 0
3, 592380, Note_on_c, 0, 62, 127
3, 592380, Note_on_c, 0, 74, 127
3, 592560, Note_on_c, 0, 74, 0
3, 592560, Note_on_c, 0, 52, 0
3, 592560, Note_on_c, 0, 40, 0
3, 592560, Note_on_c, 0, 64, 0
3, 592560, Note_on_c, 0, 62, 0
3, 592560, Note_on_c, 0, 60, 127
3, 592560, Note_on_c, 0, 72, 127
3, 592560, Note_on_c, 0, 67, 126
3, 592560, Note_on_c, 0, 39, 117
3, 592560, Note_on_c, 0, 48, 117
3, 592560, Note_on_c, 0, 51, 117
3, 592619, Note_on_c, 0, 72, 0
3, 592619, Note_on_c, 0, 60, 0
3, 592619, Note_on_c, 0, 62, 127
3, 592619, Note_on_c, 0, 74, 127
3, 592680, Note_on_c, 0, 74, 0
3, 592680, Note_on_c, 0, 62, 0
3, 592680, Note_on_c, 0, 60, 127
3, 592680, Note_on_c, 0, 72, 127
3, 592740, Note_on_c, 0, 72, 0
3, 592740, Note_on_c, 0, 60, 0
3, 592740, Note_on_c, 0, 59, 127
3, 592740, Note_on_c, 0, 71, 127
3, 592799, Note_on_c, 0, 71, 0
3, 592799, Note_on_c, 0, 59, 0
3, 592799, Note_on_c, 0, 60, 127
3, 592799, Note_on_c, 0, 72, 127
3, 592860, Note_on_c, 0, 72, 0
3, 592860, Note_on_c, 0, 60, 0
3, 592860, Note_on_c, 0, 59, 127
3, 592860, Note_on_c, 0, 71, 127
3, 592920, Note_on_c, 0, 71, 0
3, 592920, Note_on_c, 0, 59, 0
3, 592920, Note_on_c, 0, 57, 127
3, 592920, Note_on_c, 0, 69, 127
3, 592979, Note_on_c, 0, 69, 0
3, 592979, Note_on_c, 0, 57, 0
3, 592979, Note_on_c, 0, 59, 127
3, 592979, Note_on_c, 0, 71, 127
3, 593040, Note_on_c, 0, 71, 0
3, 593040, Note_on_c, 0, 59, 0
3, 593040, Note_on_c, 0, 57, 127
3, 593040, Note_on_c, 0, 69, 127
3, 593100, Note_on_c, 0, 69, 0
3, 593100, Note_on_c, 0, 67, 0
3, 593100, Note_on_c, 0, 57, 0
3, 593100, Note_on_c, 0, 55, 127
3, 593100, Note_on_c, 0, 67, 127
3, 593190, Note_on_c, 0, 67, 0
3, 593190, Note_on_c, 0, 39, 0
3, 593190, Note_on_c, 0, 48, 0
3, 593190, Note_on_c, 0, 51, 0
3, 593190, Note_on_c, 0, 55, 0
3, 593190, Note_on_c, 0, 57, 127
3, 593190, Note_on_c, 0, 60, 127
3, 593190, Note_on_c, 0, 67, 127
3, 593190, Note_on_c, 0, 69, 127
3, 593190, Note_on_c, 0, 39, 127
3, 593190, Note_on_c, 0, 48, 127
3, 593190, Note_on_c, 0, 51, 127
3, 593280, Note_on_c, 0, 51, 0
3, 593280, Note_on_c, 0, 39, 0
3, 593280, Note_on_c, 0, 60, 0
3, 593280, Note_on_c, 0, 67, 0
3, 593280, Note_on_c, 0, 57, 0
3, 593280, Note_on_c, 0, 48, 0
3, 593280, Note_on_c, 0, 69, 0
3, 593640, Note_on_c, 0, 71, 127
3, 593640, Note_on_c, 0, 59, 118
3, 593640, Note_on_c, 0, 64, 118
3, 593640, Note_on_c, 0, 40, 127
3, 593640, Note_on_c, 0, 47, 127
3, 593640, Note_on_c, 0, 52, 127
3, 594000, Note_on_c, 0, 71, 0
3, 594000, Note_on_c, 0, 66, 127
3, 594180, Note_on_c, 0, 66, 0
3, 594180, Note_on_c, 0, 69, 127
3, 594360, Note_on_c, 0, 69, 0
3, 594360, Note_on_c, 0, 71, 126
3, 594540, Note_on_c, 0, 71, 0
3, 594540, Note_on_c, 0, 52, 0
3, 594540, Note_on_c, 0, 40, 0
3, 594540, Note_on_c, 0, 59, 0
3, 594540, Note_on_c, 0, 64, 0
3, 594540, Note_on_c, 0, 47, 0
3, 594540, Note_on_c, 0, 71, 127
3, 594540, Note_on_c, 0, 59, 126
3, 594540, Note_on_c, 0, 64, 126
3, 594540, Note_on_c, 0, 40, 127
3, 594540, Note_on_c, 0, 47, 127
3, 594540, Note_on_c, 0, 52, 127
3, 594900, Note_on_c, 0, 52, 0
3, 594900, Note_on_c, 0, 59, 0
3, 594900, Note_on_c, 0, 64, 0
3, 594900, Note_on_c, 0, 71, 0
3, 594900, Note_on_c, 0, 47, 0
3, 594900, Note_on_c, 0, 40, 0
3, 594900, Note_on_c, 0, 71, 127
3, 594900, Note_on_c, 0, 59, 126
3, 594900, Note_on_c, 0, 64, 126
3, 594900, Note_on_c, 0, 40, 127
3, 594900, Note_on_c, 0, 47, 127
3, 594900, Note_on_c, 0, 52, 127
3, 595080, Note_on_c, 0, 52, 0
3, 595080, Note_on_c, 0, 59, 0
3, 595080, Note_on_c, 0, 64, 0
3, 595080, Note_on_c, 0, 71, 0
3, 595080, Note_on_c, 0, 47, 0
3, 595080, Note_on_c, 0, 40, 0
3, 595080, Note_on_c, 0, 71, 127
3, 595080, Note_on_c, 0, 59, 126
3, 595080, Note_on_c, 0, 64, 126
3, 595080, Note_on_c, 0, 40, 124
3, 595080, Note_on_c, 0, 47, 124
3, 595080, Note_on_c, 0, 52, 124
3, 595440, Note_on_c, 0, 71, 0
3, 595440, Note_on_c, 0, 66, 127
3, 595620, Note_on_c, 0, 66, 0
3, 595620, Note_on_c, 0, 69, 127
3, 595800, Note_on_c, 0, 69, 0
3, 595800, Note_on_c, 0, 71, 126
3, 595980, Note_on_c, 0, 71, 0
3, 595980, Note_on_c, 0, 52, 0
3, 595980, Note_on_c, 0, 40, 0
3, 595980, Note_on_c, 0, 59, 0
3, 595980, Note_on_c, 0, 64, 0
3, 595980, Note_on_c, 0, 47, 0
3, 595980, Note_on_c, 0, 71, 127
3, 595980, Note_on_c, 0, 59, 126
3, 595980, Note_on_c, 0, 64, 126
3, 595980, Note_on_c, 0, 40, 127
3, 595980, Note_on_c, 0, 47, 127
3, 595980, Note_on_c, 0, 52, 127
3, 596340, Note_on_c, 0, 52, 0
3, 596340, Note_on_c, 0, 59, 0
3, 596340, Note_on_c, 0, 64, 0
3, 596340, Note_on_c, 0, 71, 0
3, 596340, Note_on_c, 0, 47, 0
3, 596340, Note_on_c, 0, 40, 0
3, 596340, Note_on_c, 0, 71, 127
3, 596340, Note_on_c, 0, 59, 124
3, 596340, Note_on_c, 0, 64, 124
3, 596340, Note_on_c, 0, 40, 127
3, 596340, Note_on_c, 0, 47, 127
3, 596340, Note_on_c, 0, 52, 127
3, 596520, Note_on_c, 0, 52, 0
3, 596520, Note_on_c, 0, 59, 0
3, 596520, Note_on_c, 0, 64, 0
3, 596520, Note_on_c, 0, 71, 0
3, 596520, Note_on_c, 0, 47, 0
3, 596520, Note_on_c, 0, 40, 0
3, 596520, Note_on_c, 0, 59, 127
3, 596520, Note_on_c, 0, 64, 127
3, 596520, Note_on_c, 0, 71, 127
3, 596520, Note_on_c, 0, 40, 127
3, 596520, Note_on_c, 0, 47, 127
3, 596520, Note_on_c, 0, 52, 127
3, 596880, Note_on_c, 0, 52, 0
3, 596880, Note_on_c, 0, 64, 0
3, 596880, Note_on_c, 0, 71, 0
3, 596880, Note_on_c, 0, 59, 0
3, 596880, Note_on_c, 0, 47, 0
3, 596880, Note_on_c, 0, 40, 0
3, 596880, Note_on_c, 0, 59, 127
3, 596880, Note_on_c, 0, 64, 127
3, 596880, Note_on_c, 0, 71, 127
3, 596880, Note_on_c, 0, 40, 127
3, 596880, Note_on_c, 0, 47, 127
3, 596880, Note_on_c, 0, 52, 127
3, 597240, Note_on_c, 0, 52, 0
3, 597240, Note_on_c, 0, 64, 0
3, 597240, Note_on_c, 0, 71, 0
3, 597240, Note_on_c, 0, 59, 0
3, 597240, Note_on_c, 0, 47, 0
3, 597240, Note_on_c, 0, 40, 0
3, 597240, Note_on_c, 0, 59, 127
3, 597240, Note_on_c, 0, 64, 127
3, 597240, Note_on_c, 0, 71, 127
3, 597240, Note_on_c, 0, 40, 127
3, 597240, Note_on_c, 0, 47, 127
3, 597240, Note_on_c, 0, 52, 127
3, 597600, Note_on_c, 0, 52, 0
3, 597600, Note_on_c, 0, 64, 0
3, 597600, Note_on_c, 0, 71, 0
3, 597600, Note_on_c, 0, 59, 0
3, 597600, Note_on_c, 0, 47, 0
3, 597600, Note_on_c, 0, 40, 0
3, 597600, Note_on_c, 0, 59, 127
3, 597600, Note_on_c, 0, 64, 127
3, 597600, Note_on_c, 0, 71, 127
3, 597600, Note_on_c, 0, 40, 127
3, 597600, Note_on_c, 0, 47, 127
3, 597600, Note_on_c, 0, 52, 127
3, 597960, Note_on_c, 0, 52, 0
3, 597960, Note_on_c, 0, 64, 0
3, 597960, Note_on_c, 0, 71, 0
3, 597960, Note_on_c, 0, 59, 0
3, 597960, Note_on_c, 0, 47, 0
3, 597960, Note_on_c, 0, 40, 0
3, 597960, Note_on_c, 0, 59, 127
3, 597960, Note_on_c, 0, 64, 127
3, 597960, Note_on_c, 0, 71, 127
3, 597960, Note_on_c, 0, 40, 127
3, 597960, Note_on_c, 0, 47, 127
3, 597960, Note_on_c, 0, 52, 127
3, 598320, Note_on_c, 0, 52, 0
3, 598320, Note_on_c, 0, 64, 0
3, 598320, Note_on_c, 0, 71, 0
3, 598320, Note_on_c, 0, 59, 0
3, 598320, Note_on_c, 0, 47, 0
3, 598320, Note_on_c, 0, 40, 0
3, 598320, Note_on_c, 0, 59, 127
3, 598320, Note_on_c, 0, 64, 127
3, 598320, Note_on_c, 0, 71, 127
3, 598320, Note_on_c, 0, 40, 127
3, 598320, Note_on_c, 0, 47, 127
3, 598320, Note_on_c, 0, 52, 127
3, 598680, Note_on_c, 0, 52, 0
3, 598680, Note_on_c, 0, 64, 0
3, 598680, Note_on_c, 0, 71, 0
3, 598680, Note_on_c, 0, 59, 0
3, 598680, Note_on_c, 0, 47, 0
3, 598680, Note_on_c, 0, 40, 0
3, 598680, Note_on_c, 0, 59, 127
3, 598680, Note_on_c, 0, 64, 127
3, 598680, Note_on_c, 0, 71, 127
3, 598680, Note_on_c, 0, 40, 127
3, 598680, Note_on_c, 0, 47, 127
3, 598680, Note_on_c, 0, 52, 127
3, 599040, Note_on_c, 0, 52, 0
3, 599040, Note_on_c, 0, 64, 0
3, 599040, Note_on_c, 0, 71, 0
3, 599040, Note_on_c, 0, 59, 0
3, 599040, Note_on_c, 0, 47, 0
3, 599040, Note_on_c, 0, 40, 0
3, 599040, Note_on_c, 0, 59, 127
3, 599040, Note_on_c, 0, 64, 127
3, 599040, Note_on_c, 0, 71, 127
3, 599040, Note_on_c, 0, 40, 127
3, 599040, Note_on_c, 0, 47, 127
3, 599040, Note_on_c, 0, 52, 127
3, 599400, Note_on_c, 0, 52, 0
3, 599400, Note_on_c, 0, 64, 0
3, 599400, Note_on_c, 0, 71, 0
3, 599400, Note_on_c, 0, 59, 0
3, 599400, Note_on_c, 0, 47, 0
3, 599400, Note_on_c, 0, 40, 0
3, 599400, Note_on_c, 0, 59, 127
3, 599400, Note_on_c, 0, 64, 127
3, 599400, Note_on_c, 0, 71, 127
3, 599400, Note_on_c, 0, 40, 127
3, 599400, Note_on_c, 0, 47, 127
3, 599400, Note_on_c, 0, 52, 127
3, 599490, Note_on_c, 0, 52, 0
3, 599490, Note_on_c, 0, 64, 0
3, 599490, Note_on_c, 0, 71, 0
3, 599490, Note_on_c, 0, 59, 0
3, 599490, Note_on_c, 0, 47, 0
3, 599490, Note_on_c, 0, 40, 0
3, 599490, Note_on_c, 0, 40, 126
3, 599490, Note_on_c, 0, 28, 126
3, 599580, Note_on_c, 0, 28, 0
3, 599580, Note_on_c, 0, 40, 0
3, 599580, Note_on_c, 0, 42, 127
3, 599580, Note_on_c, 0, 30, 127
3, 599670, Note_on_c, 0, 30, 0
3, 599670, Note_on_c, 0, 42, 0
3, 599670, Note_on_c, 0, 44, 127
3, 599670, Note_on_c, 0, 32, 127
3, 599760, Note_on_c, 0, 32, 0
3, 599760, Note_on_c, 0, 44, 0
3, 599760, Note_on_c, 0, 45, 127
3, 599760, Note_on_c, 0, 33, 127
3, 599850, Note_on_c, 0, 33, 0
3, 599850, Note_on_c, 0, 45, 0
3, 599850, Note_on_c, 0, 47, 127
3, 599850, Note_on_c, 0, 35, 127
3, 599940, Note_on_c, 0, 35, 0
3, 599940, Note_on_c, 0, 47, 0
3, 599940, Note_on_c, 0, 49, 127
3, 599940, Note_on_c, 0, 37, 127
3, 600030, Note_on_c, 0, 37, 0
3, 600030, Note_on_c, 0, 49, 0
3, 600030, Note_on_c, 0, 51, 127
3, 600030, Note_on_c, 0, 39, 127
3, 600120, Note_on_c, 0, 39, 0
3, 600120, Note_on_c, 0, 51, 0
3, 600120, Note_on_c, 0, 52, 127
3, 600120, Note_on_c, 0, 40, 127
3, 600164, Note_on_c, 0, 40, 0
3, 600164, Note_on_c, 0, 52, 0
3, 600210, Note_on_c, 0, 47, 126
3, 600210, Note_on_c, 0, 35, 126
3, 600300, Note_on_c, 0, 35, 0
3, 600300, Note_on_c, 0, 47, 0
3, 600300, Note_on_c, 0, 49, 127
3, 600300, Note_on_c, 0, 37, 127
3, 600390, Note_on_c, 0, 37, 0
3, 600390, Note_on_c, 0, 49, 0
3, 600390, Note_on_c, 0, 51, 127
3, 600390, Note_on_c, 0, 39, 127
3, 600480, Note_on_c, 0, 39, 0
3, 600480, Note_on_c, 0, 51, 0
3, 600480, Note_on_c, 0, 52, 127
3, 600480, Note_on_c, 0, 40, 127
3, 600570, Note_on_c, 0, 40, 0
3, 600570, Note_on_c, 0, 52, 0
3, 600570, Note_on_c, 0, 54, 127
3, 600570, Note_on_c, 0, 42, 127
3, 600660, Note_on_c, 0, 42, 0
3, 600660, Note_on_c, 0, 54, 0
3, 600660, Note_on_c, 0, 56, 127
3, 600660, Note_on_c, 0, 44, 127
3, 600750, Note_on_c, 0, 44, 0
3, 600750, Note_on_c, 0, 56, 0
3, 600750, Note_on_c, 0, 57, 127
3, 600750, Note_on_c, 0, 45, 127
3, 600840, Note_on_c, 0, 45, 0
3, 600840, Note_on_c, 0, 57, 0
3, 600840, Note_on_c, 0, 59, 127
3, 600840, Note_on_c, 0, 47, 127
3, 600884, Note_on_c, 0, 47, 0
3, 600884, Note_on_c, 0, 59, 0
3, 600930, Note_on_c, 0, 52, 116
3, 600930, Note_on_c, 0, 40, 118
3, 601020, Note_on_c, 0, 40, 0
3, 601020, Note_on_c, 0, 52, 0
3, 601020, Note_on_c, 0, 54, 126
3, 601020, Note_on_c, 0, 42, 126
3, 601110, Note_on_c, 0, 42, 0
3, 601110, Note_on_c, 0, 54, 0
3, 601110, Note_on_c, 0, 56, 126
3, 601110, Note_on_c, 0, 44, 126
3, 601200, Note_on_c, 0, 44, 0
3, 601200, Note_on_c, 0, 56, 0
3, 601200, Note_on_c, 0, 57, 126
3, 601200, Note_on_c, 0, 45, 126
3, 601290, Note_on_c, 0, 45, 0
3, 601290, Note_on_c, 0, 57, 0
3, 601290, Note_on_c, 0, 59, 126
3, 601290, Note_on_c, 0, 47, 126
3, 601380, Note_on_c, 0, 47, 0
3, 601380, Note_on_c, 0, 59, 0
3, 601380, Note_on_c, 0, 61, 126
3, 601380, Note_on_c, 0, 49, 126
3, 601470, Note_on_c, 0, 49, 0
3, 601470, Note_on_c, 0, 61, 0
3, 601470, Note_on_c, 0, 63, 126
3, 601470, Note_on_c, 0, 51, 126
3, 601560, Note_on_c, 0, 51, 0
3, 601560, Note_on_c, 0, 63, 0
3, 601560, Note_on_c, 0, 64, 127
3, 601560, Note_on_c, 0, 52, 127
3, 601604, Note_on_c, 0, 52, 0
3, 601604, Note_on_c, 0, 64, 0
3, 601650, Note_on_c, 0, 59, 118
3, 601650, Note_on_c, 0, 47, 119
3, 601740, Note_on_c, 0, 47, 0
3, 601740, Note_on_c, 0, 59, 0
3, 601740, Note_on_c, 0, 61, 126
3, 601740, Note_on_c, 0, 49, 126
3, 601830, Note_on_c, 0, 49, 0
3, 601830, Note_on_c, 0, 61, 0
3, 601830, Note_on_c, 0, 63, 126
3, 601830, Note_on_c, 0, 51, 126
3, 601920, Note_on_c, 0, 51, 0
3, 601920, Note_on_c, 0, 63, 0
3, 601920, Note_on_c, 0, 64, 126
3, 601920, Note_on_c, 0, 52, 126
3, 602010, Note_on_c, 0, 52, 0
3, 602010, Note_on_c, 0, 64, 0
3, 602010, Note_on_c, 0, 66, 126
3, 602010, Note_on_c, 0, 54, 126
3, 602100, Note_on_c, 0, 54, 0
3, 602100, Note_on_c, 0, 66, 0
3, 602100, Note_on_c, 0, 68, 126
3, 602100, Note_on_c, 0, 56, 126
3, 602190, Note_on_c, 0, 56, 0
3, 602190, Note_on_c, 0, 68, 0
3, 602190, Note_on_c, 0, 69, 126
3, 602190, Note_on_c, 0, 57, 126
3, 602280, Note_on_c, 0, 57, 0
3, 602280, Note_on_c, 0, 69, 0
3, 602280, Note_on_c, 0, 71, 127
3, 602280, Note_on_c, 0, 59, 127
3, 602369, Note_on_c, 0, 59, 0
3, 602369, Note_on_c, 0, 71, 0
3, 603720, Note_on_c, 0, 56, 126
3, 603720, Note_on_c, 0, 59, 126
3, 603720, Note_on_c, 0, 64, 126
3, 603720, Note_on_c, 0, 68, 126
3, 603720, Note_on_c, 0, 28, 127
3, 603720, Note_on_c, 0, 40, 127
3, 603809, Note_on_c, 0, 40, 0
3, 603809, Note_on_c, 0, 59, 0
3, 603809, Note_on_c, 0, 64, 0
3, 603809, Note_on_c, 0, 56, 0
3, 603809, Note_on_c, 0, 28, 0
3, 603809, Note_on_c, 0, 68, 0
3, 603809, End_track
0, 0, End_of_file
