0, 0, Header, 1, 4, 360
1, 0, Start_track
1, 0, Title_t, "ElegiacTrioGMin"
1, 0, Copyright_t, "Copyright (C) "
1, 0, Time_signature, 4, 2, 24, 8
1, 0, Key_signature, -2, "major"
1, 0, Tempo, 1000000
1, 50400, Tempo, 666667
1, 64800, Tempo, 600000
1, 128160, Tempo, 600000
1, 128235, Tempo, 608952
1, 128309, Tempo, 618174
1, 128384, Tempo, 627681
1, 128458, Tempo, 637484
1, 128533, Tempo, 647529
1, 128607, Tempo, 657967
1, 128682, Tempo, 668747
1, 128756, Tempo, 679887
1, 128831, Tempo, 691404
1, 128906, Tempo, 703317
1, 128980, Tempo, 715649
1, 129054, Tempo, 728421
1, 129129, Tempo, 741656
1, 129204, Tempo, 755382
1, 129278, Tempo, 769527
1, 129353, Tempo, 784314
1, 129429, Tempo, 800000
1, 206640, Tempo, 800000
1, 206682, Tempo, 812128
1, 206724, Tempo, 824516
1, 206767, Tempo, 837404
1, 206809, Tempo, 850581
1, 206851, Tempo, 864304
1, 206893, Tempo, 878349
1, 206936, Tempo, 892990
1, 206978, Tempo, 907990
1, 207020, Tempo, 923645
1, 207062, Tempo, 939702
1, 207104, Tempo, 956480
1, 207146, Tempo, 973868
1, 207189, Tempo, 991736
1, 207231, Tempo, 1010441
1, 207273, Tempo, 1029689
1, 207315, Tempo, 1049869
1, 207359, Tempo, 1071429
1, 207630, Tempo, 5000000
1, 207720, Tempo, 800000
1, 207990, Tempo, 5000000
1, 208080, Tempo, 800000
1, 208260, Tempo, 800000
1, 233640, Tempo, 1000000
1, 233663, Tempo, 1015916
1, 233685, Tempo, 1032169
1, 233708, Tempo, 1049134
1, 233730, Tempo, 1066667
1, 233753, Tempo, 1084795
1, 233775, Tempo, 1103347
1, 233798, Tempo, 1122754
1, 233820, Tempo, 1142857
1, 233843, Tempo, 1163693
1, 233865, Tempo, 1185068
1, 233888, Tempo, 1207486
1, 233910, Tempo, 1230769
1, 233933, Tempo, 1254968
1, 233955, Tempo, 1279863
1, 233978, Tempo, 1306051
1, 234000, Tempo, 1333333
1, 234720, Tempo, 1000000
1, 263610, Tempo, 666667
1, 283680, Tempo, 600000
1, 347040, Tempo, 600000
1, 347119, Tempo, 608890
1, 347198, Tempo, 618047
1, 347276, Tempo, 627418
1, 347355, Tempo, 637146
1, 347434, Tempo, 647179
1, 347513, Tempo, 657534
1, 347591, Tempo, 668226
1, 347670, Tempo, 679271
1, 347749, Tempo, 690608
1, 347828, Tempo, 702412
1, 347906, Tempo, 714626
1, 347985, Tempo, 727273
1, 348064, Tempo, 740375
1, 348143, Tempo, 753958
1, 348221, Tempo, 767951
1, 348300, Tempo, 782575
1, 348390, Tempo, 800000
1, 348480, Tempo, 1200000
1, 368640, Tempo, 1200000
1, 368724, Tempo, 1218522
1, 368809, Tempo, 1237624
1, 368893, Tempo, 1257334
1, 368978, Tempo, 1277683
1, 369062, Tempo, 1298701
1, 369146, Tempo, 1320713
1, 369231, Tempo, 1343183
1, 369315, Tempo, 1366431
1, 369399, Tempo, 1390498
1, 369484, Tempo, 1415428
1, 369568, Tempo, 1441268
1, 369653, Tempo, 1468069
1, 369737, Tempo, 1495886
1, 369821, Tempo, 1524778
1, 369906, Tempo, 1554807
1, 369990, Tempo, 1586462
1, 370082, Tempo, 1621622
1, 371430, Tempo, 5000000
1, 371520, Tempo, 1621622
1, 371520, End_track
2, 0, Start_track
2, 0, Title_t, "Violin (piano)"
2, 0, Program_c, 0, 0
2, 0, Control_c, 0, 7, 105
2, 0, Control_c, 0, 10, 76
2, 0, Control_c, 0, 91, 48
2, 0, Control_c, 0, 121, 0
2, 0, Control_c, 0, 64, 0
2, 1440, Note_on_c, 0, 74, 59
2, 1560, Note_on_c, 0, 74, 0
2, 1560, Note_on_c, 0, 67, 58
2, 1679, Note_on_c, 0, 67, 0
2, 1679, Note_on_c, 0, 74, 75
2, 1800, Note_on_c, 0, 74, 0
2, 1800, Note_on_c, 0, 67, 63
2, 1920, Note_on_c, 0, 67, 0
2, 1920, Note_on_c, 0, 74, 75
2, 2039, Note_on_c, 0, 74, 0
2, 2039, Note_on_c, 0, 67, 63
2, 2160, Note_on_c, 0, 67, 0
2, 2160, Note_on_c, 0, 74, 77
2, 2280, Note_on_c, 0, 74, 0
2, 2280, Note_on_c, 0, 67, 59
2, 2399, Note_on_c, 0, 67, 0
2, 2399, Note_on_c, 0, 74, 77
2, 2520, Note_on_c, 0, 74, 0
2, 2520, Note_on_c, 0, 67, 63
2, 2640, Note_on_c, 0, 67, 0
2, 2640, Note_on_c, 0, 74, 72
2, 2759, Note_on_c, 0, 74, 0
2, 2759, Note_on_c, 0, 67, 62
2, 2880, Note_on_c, 0, 67, 0
2, 2880, Note_on_c, 0, 74, 69
2, 2927, Note_on_c, 0, 74, 0
2, 2939, Note_on_c, 0, 74, 72
2, 2985, Note_on_c, 0, 74, 0
2, 3000, Note_on_c, 0, 67, 57
2, 3046, Note_on_c, 0, 67, 0
2, 3059, Note_on_c, 0, 67, 56
2, 3105, Note_on_c, 0, 67, 0
2, 3119, Note_on_c, 0, 74, 82
2, 3167, Note_on_c, 0, 74, 0
2, 3180, Note_on_c, 0, 74, 77
2, 3227, Note_on_c, 0, 74, 0
2, 3240, Note_on_c, 0, 67, 59
2, 3287, Note_on_c, 0, 67, 0
2, 3299, Note_on_c, 0, 67, 60
2, 3345, Note_on_c, 0, 67, 0
2, 3360, Note_on_c, 0, 74, 71
2, 3406, Note_on_c, 0, 74, 0
2, 3419, Note_on_c, 0, 74, 72
2, 3465, Note_on_c, 0, 74, 0
2, 3479, Note_on_c, 0, 67, 54
2, 3527, Note_on_c, 0, 67, 0
2, 3540, Note_on_c, 0, 67, 58
2, 3587, Note_on_c, 0, 67, 0
2, 3600, Note_on_c, 0, 74, 78
2, 3647, Note_on_c, 0, 74, 0
2, 3659, Note_on_c, 0, 74, 70
2, 3705, Note_on_c, 0, 74, 0
2, 3720, Note_on_c, 0, 67, 62
2, 3766, Note_on_c, 0, 67, 0
2, 3779, Note_on_c, 0, 67, 59
2, 3825, Note_on_c, 0, 67, 0
2, 3839, Note_on_c, 0, 74, 75
2, 3887, Note_on_c, 0, 74, 0
2, 3900, Note_on_c, 0, 74, 73
2, 3947, Note_on_c, 0, 74, 0
2, 3960, Note_on_c, 0, 67, 58
2, 4007, Note_on_c, 0, 67, 0
2, 4019, Note_on_c, 0, 67, 54
2, 4065, Note_on_c, 0, 67, 0
2, 4080, Note_on_c, 0, 74, 75
2, 4126, Note_on_c, 0, 74, 0
2, 4139, Note_on_c, 0, 74, 71
2, 4185, Note_on_c, 0, 74, 0
2, 4199, Note_on_c, 0, 67, 62
2, 4247, Note_on_c, 0, 67, 0
2, 4260, Note_on_c, 0, 67, 59
2, 4307, Note_on_c, 0, 67, 0
2, 4320, Note_on_c, 0, 74, 74
2, 4355, Note_on_c, 0, 74, 0
2, 4365, Note_on_c, 0, 74, 73
2, 4400, Note_on_c, 0, 74, 0
2, 4410, Note_on_c, 0, 67, 60
2, 4445, Note_on_c, 0, 67, 0
2, 4455, Note_on_c, 0, 67, 57
2, 4490, Note_on_c, 0, 67, 0
2, 4500, Note_on_c, 0, 67, 63
2, 4535, Note_on_c, 0, 67, 0
2, 4545, Note_on_c, 0, 67, 61
2, 4580, Note_on_c, 0, 67, 0
2, 4590, Note_on_c, 0, 74, 71
2, 4625, Note_on_c, 0, 74, 0
2, 4635, Note_on_c, 0, 74, 68
2, 4670, Note_on_c, 0, 74, 0
2, 4680, Note_on_c, 0, 74, 69
2, 4715, Note_on_c, 0, 74, 0
2, 4725, Note_on_c, 0, 74, 64
2, 4760, Note_on_c, 0, 74, 0
2, 4770, Note_on_c, 0, 67, 53
2, 4805, Note_on_c, 0, 67, 0
2, 4815, Note_on_c, 0, 67, 46
2, 4850, Note_on_c, 0, 67, 0
2, 4860, Note_on_c, 0, 67, 65
2, 4895, Note_on_c, 0, 67, 0
2, 4905, Note_on_c, 0, 67, 60
2, 4940, Note_on_c, 0, 67, 0
2, 4950, Note_on_c, 0, 74, 75
2, 4985, Note_on_c, 0, 74, 0
2, 4995, Note_on_c, 0, 74, 69
2, 5030, Note_on_c, 0, 74, 0
2, 5040, Note_on_c, 0, 74, 68
2, 5075, Note_on_c, 0, 74, 0
2, 5085, Note_on_c, 0, 74, 62
2, 5120, Note_on_c, 0, 74, 0
2, 5130, Note_on_c, 0, 67, 58
2, 5165, Note_on_c, 0, 67, 0
2, 5175, Note_on_c, 0, 67, 53
2, 5210, Note_on_c, 0, 67, 0
2, 5220, Note_on_c, 0, 67, 61
2, 5255, Note_on_c, 0, 67, 0
2, 5265, Note_on_c, 0, 67, 59
2, 5300, Note_on_c, 0, 67, 0
2, 5310, Note_on_c, 0, 74, 74
2, 5345, Note_on_c, 0, 74, 0
2, 5355, Note_on_c, 0, 74, 71
2, 5390, Note_on_c, 0, 74, 0
2, 5400, Note_on_c, 0, 72, 60
2, 5435, Note_on_c, 0, 72, 0
2, 5445, Note_on_c, 0, 72, 57
2, 5480, Note_on_c, 0, 72, 0
2, 5490, Note_on_c, 0, 67, 62
2, 5525, Note_on_c, 0, 67, 0
2, 5535, Note_on_c, 0, 67, 59
2, 5570, Note_on_c, 0, 67, 0
2, 5580, Note_on_c, 0, 67, 64
2, 5615, Note_on_c, 0, 67, 0
2, 5625, Note_on_c, 0, 67, 61
2, 5660, Note_on_c, 0, 67, 0
2, 5670, Note_on_c, 0, 72, 75
2, 5705, Note_on_c, 0, 72, 0
2, 5715, Note_on_c, 0, 72, 66
2, 5750, Note_on_c, 0, 72, 0
2, 5760, Note_on_c, 0, 74, 72
2, 5795, Note_on_c, 0, 74, 0
2, 5805, Note_on_c, 0, 74, 69
2, 5840, Note_on_c, 0, 74, 0
2, 5850, Note_on_c, 0, 67, 59
2, 5885, Note_on_c, 0, 67, 0
2, 5895, Note_on_c, 0, 67, 56
2, 5930, Note_on_c, 0, 67, 0
2, 5940, Note_on_c, 0, 67, 67
2, 5975, Note_on_c, 0, 67, 0
2, 5985, Note_on_c, 0, 67, 63
2, 6020, Note_on_c, 0, 67, 0
2, 6030, Note_on_c, 0, 74, 77
2, 6065, Note_on_c, 0, 74, 0
2, 6075, Note_on_c, 0, 74, 74
2, 6110, Note_on_c, 0, 74, 0
2, 6120, Note_on_c, 0, 74, 66
2, 6155, Note_on_c, 0, 74, 0
2, 6165, Note_on_c, 0, 74, 63
2, 6200, Note_on_c, 0, 74, 0
2, 6210, Note_on_c, 0, 67, 60
2, 6245, Note_on_c, 0, 67, 0
2, 6255, Note_on_c, 0, 67, 62
2, 6290, Note_on_c, 0, 67, 0
2, 6300, Note_on_c, 0, 67, 68
2, 6335, Note_on_c, 0, 67, 0
2, 6345, Note_on_c, 0, 67, 63
2, 6380, Note_on_c, 0, 67, 0
2, 6390, Note_on_c, 0, 74, 74
2, 6425, Note_on_c, 0, 74, 0
2, 6435, Note_on_c, 0, 74, 74
2, 6470, Note_on_c, 0, 74, 0
2, 6480, Note_on_c, 0, 74, 69
2, 6515, Note_on_c, 0, 74, 0
2, 6525, Note_on_c, 0, 74, 66
2, 6560, Note_on_c, 0, 74, 0
2, 6570, Note_on_c, 0, 67, 53
2, 6605, Note_on_c, 0, 67, 0
2, 6615, Note_on_c, 0, 67, 54
2, 6650, Note_on_c, 0, 67, 0
2, 6660, Note_on_c, 0, 67, 65
2, 6695, Note_on_c, 0, 67, 0
2, 6705, Note_on_c, 0, 67, 60
2, 6740, Note_on_c, 0, 67, 0
2, 6750, Note_on_c, 0, 74, 77
2, 6785, Note_on_c, 0, 74, 0
2, 6795, Note_on_c, 0, 74, 72
2, 6830, Note_on_c, 0, 74, 0
2, 6840, Note_on_c, 0, 72, 67
2, 6875, Note_on_c, 0, 72, 0
2, 6885, Note_on_c, 0, 72, 57
2, 6920, Note_on_c, 0, 72, 0
2, 6930, Note_on_c, 0, 67, 61
2, 6965, Note_on_c, 0, 67, 0
2, 6975, Note_on_c, 0, 67, 63
2, 7010, Note_on_c, 0, 67, 0
2, 7020, Note_on_c, 0, 67, 65
2, 7055, Note_on_c, 0, 67, 0
2, 7065, Note_on_c, 0, 67, 59
2, 7100, Note_on_c, 0, 67, 0
2, 7110, Note_on_c, 0, 72, 70
2, 7145, Note_on_c, 0, 72, 0
2, 7155, Note_on_c, 0, 72, 68
2, 7190, Note_on_c, 0, 72, 0
2, 7200, Note_on_c, 0, 74, 73
2, 7235, Note_on_c, 0, 74, 0
2, 7245, Note_on_c, 0, 74, 67
2, 7280, Note_on_c, 0, 74, 0
2, 7290, Note_on_c, 0, 67, 55
2, 7325, Note_on_c, 0, 67, 0
2, 7335, Note_on_c, 0, 67, 52
2, 7370, Note_on_c, 0, 67, 0
2, 7380, Note_on_c, 0, 67, 63
2, 7415, Note_on_c, 0, 67, 0
2, 7425, Note_on_c, 0, 67, 63
2, 7460, Note_on_c, 0, 67, 0
2, 7470, Note_on_c, 0, 74, 74
2, 7505, Note_on_c, 0, 74, 0
2, 7515, Note_on_c, 0, 74, 63
2, 7550, Note_on_c, 0, 74, 0
2, 7560, Note_on_c, 0, 74, 64
2, 7595, Note_on_c, 0, 74, 0
2, 7605, Note_on_c, 0, 74, 63
2, 7640, Note_on_c, 0, 74, 0
2, 7650, Note_on_c, 0, 67, 58
2, 7685, Note_on_c, 0, 67, 0
2, 7695, Note_on_c, 0, 67, 58
2, 7730, Note_on_c, 0, 67, 0
2, 7740, Note_on_c, 0, 67, 63
2, 7775, Note_on_c, 0, 67, 0
2, 7785, Note_on_c, 0, 67, 56
2, 7820, Note_on_c, 0, 67, 0
2, 7830, Note_on_c, 0, 74, 75
2, 7865, Note_on_c, 0, 74, 0
2, 7875, Note_on_c, 0, 74, 74
2, 7910, Note_on_c, 0, 74, 0
2, 7920, Note_on_c, 0, 82, 73
2, 7955, Note_on_c, 0, 82, 0
2, 7965, Note_on_c, 0, 82, 71
2, 8000, Note_on_c, 0, 82, 0
2, 8010, Note_on_c, 0, 74, 56
2, 8045, Note_on_c, 0, 74, 0
2, 8055, Note_on_c, 0, 74, 53
2, 8090, Note_on_c, 0, 74, 0
2, 8100, Note_on_c, 0, 74, 57
2, 8135, Note_on_c, 0, 74, 0
2, 8145, Note_on_c, 0, 74, 52
2, 8180, Note_on_c, 0, 74, 0
2, 8190, Note_on_c, 0, 82, 78
2, 8225, Note_on_c, 0, 82, 0
2, 8235, Note_on_c, 0, 82, 72
2, 8270, Note_on_c, 0, 82, 0
2, 8280, Note_on_c, 0, 80, 62
2, 8315, Note_on_c, 0, 80, 0
2, 8325, Note_on_c, 0, 80, 63
2, 8360, Note_on_c, 0, 80, 0
2, 8370, Note_on_c, 0, 74, 56
2, 8405, Note_on_c, 0, 74, 0
2, 8415, Note_on_c, 0, 74, 51
2, 8450, Note_on_c, 0, 74, 0
2, 8460, Note_on_c, 0, 74, 64
2, 8495, Note_on_c, 0, 74, 0
2, 8505, Note_on_c, 0, 74, 63
2, 8540, Note_on_c, 0, 74, 0
2, 8550, Note_on_c, 0, 80, 70
2, 8585, Note_on_c, 0, 80, 0
2, 8595, Note_on_c, 0, 80, 74
2, 8630, Note_on_c, 0, 80, 0
2, 8640, Note_on_c, 0, 79, 60
2, 8675, Note_on_c, 0, 79, 0
2, 8685, Note_on_c, 0, 79, 57
2, 8720, Note_on_c, 0, 79, 0
2, 8730, Note_on_c, 0, 70, 62
2, 8765, Note_on_c, 0, 70, 0
2, 8775, Note_on_c, 0, 70, 54
2, 8810, Note_on_c, 0, 70, 0
2, 8820, Note_on_c, 0, 70, 65
2, 8855, Note_on_c, 0, 70, 0
2, 8865, Note_on_c, 0, 70, 58
2, 8900, Note_on_c, 0, 70, 0
2, 8910, Note_on_c, 0, 79, 75
2, 8945, Note_on_c, 0, 79, 0
2, 8955, Note_on_c, 0, 79, 70
2, 8990, Note_on_c, 0, 79, 0
2, 9000, Note_on_c, 0, 77, 57
2, 9035, Note_on_c, 0, 77, 0
2, 9045, Note_on_c, 0, 77, 57
2, 9080, Note_on_c, 0, 77, 0
2, 9090, Note_on_c, 0, 70, 61
2, 9125, Note_on_c, 0, 70, 0
2, 9135, Note_on_c, 0, 70, 56
2, 9170, Note_on_c, 0, 70, 0
2, 9180, Note_on_c, 0, 70, 67
2, 9215, Note_on_c, 0, 70, 0
2, 9225, Note_on_c, 0, 70, 61
2, 9260, Note_on_c, 0, 70, 0
2, 9270, Note_on_c, 0, 77, 74
2, 9305, Note_on_c, 0, 77, 0
2, 9315, Note_on_c, 0, 77, 67
2, 9350, Note_on_c, 0, 77, 0
2, 9360, Note_on_c, 0, 75, 64
2, 9395, Note_on_c, 0, 75, 0
2, 9405, Note_on_c, 0, 75, 66
2, 9440, Note_on_c, 0, 75, 0
2, 9450, Note_on_c, 0, 67, 57
2, 9485, Note_on_c, 0, 67, 0
2, 9495, Note_on_c, 0, 67, 57
2, 9530, Note_on_c, 0, 67, 0
2, 9540, Note_on_c, 0, 67, 70
2, 9575, Note_on_c, 0, 67, 0
2, 9585, Note_on_c, 0, 67, 67
2, 9620, Note_on_c, 0, 67, 0
2, 9630, Note_on_c, 0, 75, 79
2, 9665, Note_on_c, 0, 75, 0
2, 9675, Note_on_c, 0, 75, 70
2, 9710, Note_on_c, 0, 75, 0
2, 9720, Note_on_c, 0, 74, 67
2, 9755, Note_on_c, 0, 74, 0
2, 9765, Note_on_c, 0, 74, 60
2, 9800, Note_on_c, 0, 74, 0
2, 9810, Note_on_c, 0, 67, 56
2, 9845, Note_on_c, 0, 67, 0
2, 9855, Note_on_c, 0, 67, 56
2, 9890, Note_on_c, 0, 67, 0
2, 9900, Note_on_c, 0, 67, 67
2, 9935, Note_on_c, 0, 67, 0
2, 9945, Note_on_c, 0, 67, 65
2, 9980, Note_on_c, 0, 67, 0
2, 9990, Note_on_c, 0, 74, 79
2, 10025, Note_on_c, 0, 74, 0
2, 10035, Note_on_c, 0, 74, 71
2, 10070, Note_on_c, 0, 74, 0
2, 10080, Note_on_c, 0, 73, 63
2, 10115, Note_on_c, 0, 73, 0
2, 10125, Note_on_c, 0, 73, 60
2, 10160, Note_on_c, 0, 73, 0
2, 10170, Note_on_c, 0, 67, 59
2, 10205, Note_on_c, 0, 67, 0
2, 10215, Note_on_c, 0, 67, 55
2, 10250, Note_on_c, 0, 67, 0
2, 10260, Note_on_c, 0, 67, 65
2, 10295, Note_on_c, 0, 67, 0
2, 10305, Note_on_c, 0, 67, 62
2, 10340, Note_on_c, 0, 67, 0
2, 10350, Note_on_c, 0, 73, 75
2, 10385, Note_on_c, 0, 73, 0
2, 10395, Note_on_c, 0, 73, 74
2, 10430, Note_on_c, 0, 73, 0
2, 10440, Note_on_c, 0, 74, 73
2, 10475, Note_on_c, 0, 74, 0
2, 10485, Note_on_c, 0, 74, 68
2, 10520, Note_on_c, 0, 74, 0
2, 10530, Note_on_c, 0, 69, 66
2, 10565, Note_on_c, 0, 69, 0
2, 10575, Note_on_c, 0, 69, 60
2, 10610, Note_on_c, 0, 69, 0
2, 10620, Note_on_c, 0, 69, 63
2, 10655, Note_on_c, 0, 69, 0
2, 10665, Note_on_c, 0, 69, 65
2, 10700, Note_on_c, 0, 69, 0
2, 10710, Note_on_c, 0, 74, 77
2, 10745, Note_on_c, 0, 74, 0
2, 10755, Note_on_c, 0, 74, 69
2, 10790, Note_on_c, 0, 74, 0
2, 10800, Note_on_c, 0, 79, 78
2, 10835, Note_on_c, 0, 79, 0
2, 10845, Note_on_c, 0, 79, 70
2, 10880, Note_on_c, 0, 79, 0
2, 10890, Note_on_c, 0, 72, 61
2, 10925, Note_on_c, 0, 72, 0
2, 10935, Note_on_c, 0, 72, 61
2, 10970, Note_on_c, 0, 72, 0
2, 10980, Note_on_c, 0, 72, 63
2, 11015, Note_on_c, 0, 72, 0
2, 11025, Note_on_c, 0, 72, 60
2, 11060, Note_on_c, 0, 72, 0
2, 11070, Note_on_c, 0, 79, 85
2, 11105, Note_on_c, 0, 79, 0
2, 11115, Note_on_c, 0, 79, 79
2, 11150, Note_on_c, 0, 79, 0
2, 11160, Note_on_c, 0, 77, 61
2, 11195, Note_on_c, 0, 77, 0
2, 11205, Note_on_c, 0, 77, 59
2, 11240, Note_on_c, 0, 77, 0
2, 11250, Note_on_c, 0, 72, 62
2, 11285, Note_on_c, 0, 72, 0
2, 11295, Note_on_c, 0, 72, 58
2, 11330, Note_on_c, 0, 72, 0
2, 11340, Note_on_c, 0, 72, 63
2, 11375, Note_on_c, 0, 72, 0
2, 11385, Note_on_c, 0, 72, 57
2, 11420, Note_on_c, 0, 72, 0
2, 11430, Note_on_c, 0, 77, 71
2, 11465, Note_on_c, 0, 77, 0
2, 11475, Note_on_c, 0, 77, 67
2, 11510, Note_on_c, 0, 77, 0
2, 11520, Note_on_c, 0, 79, 67
2, 11555, Note_on_c, 0, 79, 0
2, 11565, Note_on_c, 0, 79, 64
2, 11600, Note_on_c, 0, 79, 0
2, 11610, Note_on_c, 0, 72, 59
2, 11645, Note_on_c, 0, 72, 0
2, 11655, Note_on_c, 0, 72, 55
2, 11690, Note_on_c, 0, 72, 0
2, 11700, Note_on_c, 0, 72, 68
2, 11735, Note_on_c, 0, 72, 0
2, 11745, Note_on_c, 0, 72, 62
2, 11780, Note_on_c, 0, 72, 0
2, 11790, Note_on_c, 0, 79, 78
2, 11825, Note_on_c, 0, 79, 0
2, 11835, Note_on_c, 0, 79, 74
2, 11870, Note_on_c, 0, 79, 0
2, 11880, Note_on_c, 0, 79, 74
2, 11915, Note_on_c, 0, 79, 0
2, 11925, Note_on_c, 0, 79, 65
2, 11960, Note_on_c, 0, 79, 0
2, 11970, Note_on_c, 0, 72, 52
2, 12005, Note_on_c, 0, 72, 0
2, 12015, Note_on_c, 0, 72, 49
2, 12050, Note_on_c, 0, 72, 0
2, 12060, Note_on_c, 0, 72, 68
2, 12095, Note_on_c, 0, 72, 0
2, 12105, Note_on_c, 0, 72, 64
2, 12140, Note_on_c, 0, 72, 0
2, 12150, Note_on_c, 0, 79, 78
2, 12185, Note_on_c, 0, 79, 0
2, 12195, Note_on_c, 0, 79, 71
2, 12230, Note_on_c, 0, 79, 0
2, 12240, Note_on_c, 0, 79, 66
2, 12275, Note_on_c, 0, 79, 0
2, 12285, Note_on_c, 0, 79, 64
2, 12320, Note_on_c, 0, 79, 0
2, 12330, Note_on_c, 0, 72, 58
2, 12365, Note_on_c, 0, 72, 0
2, 12375, Note_on_c, 0, 72, 54
2, 12410, Note_on_c, 0, 72, 0
2, 12420, Note_on_c, 0, 72, 59
2, 12455, Note_on_c, 0, 72, 0
2, 12465, Note_on_c, 0, 72, 60
2, 12500, Note_on_c, 0, 72, 0
2, 12510, Note_on_c, 0, 79, 70
2, 12545, Note_on_c, 0, 79, 0
2, 12555, Note_on_c, 0, 79, 68
2, 12590, Note_on_c, 0, 79, 0
2, 12600, Note_on_c, 0, 77, 67
2, 12635, Note_on_c, 0, 77, 0
2, 12645, Note_on_c, 0, 77, 61
2, 12680, Note_on_c, 0, 77, 0
2, 12690, Note_on_c, 0, 72, 62
2, 12725, Note_on_c, 0, 72, 0
2, 12735, Note_on_c, 0, 72, 57
2, 12770, Note_on_c, 0, 72, 0
2, 12780, Note_on_c, 0, 72, 67
2, 12815, Note_on_c, 0, 72, 0
2, 12825, Note_on_c, 0, 72, 61
2, 12860, Note_on_c, 0, 72, 0
2, 12870, Note_on_c, 0, 77, 71
2, 12905, Note_on_c, 0, 77, 0
2, 12915, Note_on_c, 0, 77, 66
2, 12950, Note_on_c, 0, 77, 0
2, 12960, Note_on_c, 0, 79, 77
2, 12995, Note_on_c, 0, 79, 0
2, 13005, Note_on_c, 0, 79, 66
2, 13040, Note_on_c, 0, 79, 0
2, 13050, Note_on_c, 0, 72, 51
2, 13085, Note_on_c, 0, 72, 0
2, 13095, Note_on_c, 0, 72, 49
2, 13130, Note_on_c, 0, 72, 0
2, 13140, Note_on_c, 0, 72, 64
2, 13175, Note_on_c, 0, 72, 0
2, 13185, Note_on_c, 0, 72, 62
2, 13220, Note_on_c, 0, 72, 0
2, 13230, Note_on_c, 0, 79, 76
2, 13265, Note_on_c, 0, 79, 0
2, 13275, Note_on_c, 0, 79, 74
2, 13310, Note_on_c, 0, 79, 0
2, 13320, Note_on_c, 0, 79, 68
2, 13355, Note_on_c, 0, 79, 0
2, 13365, Note_on_c, 0, 79, 65
2, 13400, Note_on_c, 0, 79, 0
2, 13410, Note_on_c, 0, 72, 51
2, 13445, Note_on_c, 0, 72, 0
2, 13455, Note_on_c, 0, 72, 48
2, 13490, Note_on_c, 0, 72, 0
2, 13500, Note_on_c, 0, 72, 62
2, 13535, Note_on_c, 0, 72, 0
2, 13545, Note_on_c, 0, 72, 61
2, 13580, Note_on_c, 0, 72, 0
2, 13590, Note_on_c, 0, 79, 78
2, 13625, Note_on_c, 0, 79, 0
2, 13635, Note_on_c, 0, 79, 69
2, 13670, Note_on_c, 0, 79, 0
2, 13680, Note_on_c, 0, 87, 78
2, 13715, Note_on_c, 0, 87, 0
2, 13725, Note_on_c, 0, 87, 73
2, 13760, Note_on_c, 0, 87, 0
2, 13770, Note_on_c, 0, 79, 61
2, 13805, Note_on_c, 0, 79, 0
2, 13815, Note_on_c, 0, 79, 56
2, 13850, Note_on_c, 0, 79, 0
2, 13860, Note_on_c, 0, 79, 64
2, 13895, Note_on_c, 0, 79, 0
2, 13905, Note_on_c, 0, 79, 63
2, 13940, Note_on_c, 0, 79, 0
2, 13950, Note_on_c, 0, 87, 77
2, 13985, Note_on_c, 0, 87, 0
2, 13995, Note_on_c, 0, 87, 79
2, 14030, Note_on_c, 0, 87, 0
2, 14040, Note_on_c, 0, 86, 64
2, 14075, Note_on_c, 0, 86, 0
2, 14085, Note_on_c, 0, 86, 57
2, 14120, Note_on_c, 0, 86, 0
2, 14130, Note_on_c, 0, 79, 56
2, 14165, Note_on_c, 0, 79, 0
2, 14175, Note_on_c, 0, 79, 53
2, 14210, Note_on_c, 0, 79, 0
2, 14220, Note_on_c, 0, 79, 62
2, 14255, Note_on_c, 0, 79, 0
2, 14265, Note_on_c, 0, 79, 56
2, 14300, Note_on_c, 0, 79, 0
2, 14310, Note_on_c, 0, 86, 76
2, 14345, Note_on_c, 0, 86, 0
2, 14355, Note_on_c, 0, 86, 76
2, 14390, Note_on_c, 0, 86, 0
2, 14400, Note_on_c, 0, 84, 61
2, 14435, Note_on_c, 0, 84, 0
2, 14445, Note_on_c, 0, 84, 57
2, 14480, Note_on_c, 0, 84, 0
2, 14490, Note_on_c, 0, 75, 51
2, 14525, Note_on_c, 0, 75, 0
2, 14535, Note_on_c, 0, 75, 48
2, 14570, Note_on_c, 0, 75, 0
2, 14580, Note_on_c, 0, 75, 56
2, 14615, Note_on_c, 0, 75, 0
2, 14625, Note_on_c, 0, 75, 55
2, 14660, Note_on_c, 0, 75, 0
2, 14670, Note_on_c, 0, 84, 75
2, 14705, Note_on_c, 0, 84, 0
2, 14715, Note_on_c, 0, 84, 73
2, 14750, Note_on_c, 0, 84, 0
2, 14760, Note_on_c, 0, 82, 66
2, 14795, Note_on_c, 0, 82, 0
2, 14805, Note_on_c, 0, 82, 61
2, 14840, Note_on_c, 0, 82, 0
2, 14850, Note_on_c, 0, 74, 50
2, 14885, Note_on_c, 0, 74, 0
2, 14895, Note_on_c, 0, 74, 50
2, 14930, Note_on_c, 0, 74, 0
2, 14940, Note_on_c, 0, 74, 58
2, 14975, Note_on_c, 0, 74, 0
2, 14985, Note_on_c, 0, 74, 54
2, 15020, Note_on_c, 0, 74, 0
2, 15030, Note_on_c, 0, 82, 75
2, 15065, Note_on_c, 0, 82, 0
2, 15075, Note_on_c, 0, 82, 73
2, 15110, Note_on_c, 0, 82, 0
2, 15120, Note_on_c, 0, 81, 59
2, 15155, Note_on_c, 0, 81, 0
2, 15165, Note_on_c, 0, 81, 58
2, 15200, Note_on_c, 0, 81, 0
2, 15210, Note_on_c, 0, 75, 57
2, 15245, Note_on_c, 0, 75, 0
2, 15255, Note_on_c, 0, 75, 51
2, 15290, Note_on_c, 0, 75, 0
2, 15300, Note_on_c, 0, 75, 70
2, 15335, Note_on_c, 0, 75, 0
2, 15345, Note_on_c, 0, 75, 66
2, 15380, Note_on_c, 0, 75, 0
2, 15390, Note_on_c, 0, 81, 75
2, 15425, Note_on_c, 0, 81, 0
2, 15435, Note_on_c, 0, 81, 67
2, 15470, Note_on_c, 0, 81, 0
2, 15480, Note_on_c, 0, 79, 63
2, 15515, Note_on_c, 0, 79, 0
2, 15525, Note_on_c, 0, 79, 61
2, 15560, Note_on_c, 0, 79, 0
2, 15570, Note_on_c, 0, 74, 61
2, 15605, Note_on_c, 0, 74, 0
2, 15615, Note_on_c, 0, 74, 59
2, 15650, Note_on_c, 0, 74, 0
2, 15660, Note_on_c, 0, 74, 57
2, 15695, Note_on_c, 0, 74, 0
2, 15705, Note_on_c, 0, 74, 59
2, 15740, Note_on_c, 0, 74, 0
2, 15750, Note_on_c, 0, 79, 76
2, 15785, Note_on_c, 0, 79, 0
2, 15795, Note_on_c, 0, 79, 74
2, 15830, Note_on_c, 0, 79, 0
2, 15840, Note_on_c, 0, 79, 67
2, 15875, Note_on_c, 0, 79, 0
2, 15885, Note_on_c, 0, 79, 60
2, 15920, Note_on_c, 0, 79, 0
2, 15930, Note_on_c, 0, 73, 51
2, 15965, Note_on_c, 0, 73, 0
2, 15975, Note_on_c, 0, 73, 49
2, 16010, Note_on_c, 0, 73, 0
2, 16020, Note_on_c, 0, 73, 66
2, 16055, Note_on_c, 0, 73, 0
2, 16065, Note_on_c, 0, 73, 64
2, 16100, Note_on_c, 0, 73, 0
2, 16110, Note_on_c, 0, 79, 73
2, 16145, Note_on_c, 0, 79, 0
2, 16155, Note_on_c, 0, 79, 75
2, 16190, Note_on_c, 0, 79, 0
2, 16200, Note_on_c, 0, 78, 67
2, 16235, Note_on_c, 0, 78, 0
2, 16245, Note_on_c, 0, 78, 68
2, 16280, Note_on_c, 0, 78, 0
2, 16290, Note_on_c, 0, 74, 57
2, 16325, Note_on_c, 0, 74, 0
2, 16335, Note_on_c, 0, 74, 55
2, 16370, Note_on_c, 0, 74, 0
2, 16380, Note_on_c, 0, 74, 62
2, 16415, Note_on_c, 0, 74, 0
2, 16425, Note_on_c, 0, 74, 60
2, 16460, Note_on_c, 0, 74, 0
2, 16470, Note_on_c, 0, 78, 69
2, 16505, Note_on_c, 0, 78, 0
2, 16515, Note_on_c, 0, 78, 67
2, 16550, Note_on_c, 0, 78, 0
2, 16560, Note_on_c, 0, 75, 59
2, 16595, Note_on_c, 0, 75, 0
2, 16605, Note_on_c, 0, 75, 54
2, 16640, Note_on_c, 0, 75, 0
2, 16650, Note_on_c, 0, 67, 63
2, 16685, Note_on_c, 0, 67, 0
2, 16695, Note_on_c, 0, 67, 59
2, 16730, Note_on_c, 0, 67, 0
2, 16740, Note_on_c, 0, 67, 64
2, 16775, Note_on_c, 0, 67, 0
2, 16785, Note_on_c, 0, 67, 64
2, 16820, Note_on_c, 0, 67, 0
2, 16830, Note_on_c, 0, 75, 77
2, 16865, Note_on_c, 0, 75, 0
2, 16875, Note_on_c, 0, 75, 79
2, 16910, Note_on_c, 0, 75, 0
2, 16920, Note_on_c, 0, 74, 64
2, 16955, Note_on_c, 0, 74, 0
2, 16965, Note_on_c, 0, 74, 58
2, 17000, Note_on_c, 0, 74, 0
2, 17010, Note_on_c, 0, 67, 59
2, 17045, Note_on_c, 0, 67, 0
2, 17055, Note_on_c, 0, 67, 59
2, 17090, Note_on_c, 0, 67, 0
2, 17100, Note_on_c, 0, 67, 61
2, 17135, Note_on_c, 0, 67, 0
2, 17145, Note_on_c, 0, 67, 61
2, 17180, Note_on_c, 0, 67, 0
2, 17190, Note_on_c, 0, 74, 75
2, 17225, Note_on_c, 0, 74, 0
2, 17235, Note_on_c, 0, 74, 71
2, 17270, Note_on_c, 0, 74, 0
2, 17280, Note_on_c, 0, 73, 63
2, 17315, Note_on_c, 0, 73, 0
2, 17325, Note_on_c, 0, 73, 61
2, 17360, Note_on_c, 0, 73, 0
2, 17370, Note_on_c, 0, 67, 63
2, 17405, Note_on_c, 0, 67, 0
2, 17415, Note_on_c, 0, 67, 60
2, 17450, Note_on_c, 0, 67, 0
2, 17460, Note_on_c, 0, 67, 65
2, 17495, Note_on_c, 0, 67, 0
2, 17505, Note_on_c, 0, 67, 58
2, 17540, Note_on_c, 0, 67, 0
2, 17550, Note_on_c, 0, 73, 72
2, 17585, Note_on_c, 0, 73, 0
2, 17595, Note_on_c, 0, 73, 72
2, 17630, Note_on_c, 0, 73, 0
2, 17640, Note_on_c, 0, 74, 69
2, 17675, Note_on_c, 0, 74, 0
2, 17685, Note_on_c, 0, 74, 63
2, 17720, Note_on_c, 0, 74, 0
2, 17730, Note_on_c, 0, 67, 64
2, 17765, Note_on_c, 0, 67, 0
2, 17775, Note_on_c, 0, 67, 59
2, 17810, Note_on_c, 0, 67, 0
2, 17820, Note_on_c, 0, 67, 63
2, 17855, Note_on_c, 0, 67, 0
2, 17865, Note_on_c, 0, 67, 66
2, 17900, Note_on_c, 0, 67, 0
2, 17910, Note_on_c, 0, 74, 74
2, 17945, Note_on_c, 0, 74, 0
2, 17955, Note_on_c, 0, 74, 74
2, 17990, Note_on_c, 0, 74, 0
2, 18000, Note_on_c, 0, 75, 73
2, 18035, Note_on_c, 0, 75, 0
2, 18045, Note_on_c, 0, 75, 66
2, 18080, Note_on_c, 0, 75, 0
2, 18090, Note_on_c, 0, 67, 63
2, 18125, Note_on_c, 0, 67, 0
2, 18135, Note_on_c, 0, 67, 60
2, 18170, Note_on_c, 0, 67, 0
2, 18180, Note_on_c, 0, 67, 63
2, 18215, Note_on_c, 0, 67, 0
2, 18225, Note_on_c, 0, 67, 57
2, 18260, Note_on_c, 0, 67, 0
2, 18270, Note_on_c, 0, 75, 75
2, 18305, Note_on_c, 0, 75, 0
2, 18315, Note_on_c, 0, 75, 72
2, 18350, Note_on_c, 0, 75, 0
2, 18360, Note_on_c, 0, 74, 62
2, 18395, Note_on_c, 0, 74, 0
2, 18405, Note_on_c, 0, 74, 59
2, 18440, Note_on_c, 0, 74, 0
2, 18450, Note_on_c, 0, 67, 62
2, 18485, Note_on_c, 0, 67, 0
2, 18495, Note_on_c, 0, 67, 60
2, 18530, Note_on_c, 0, 67, 0
2, 18540, Note_on_c, 0, 67, 68
2, 18575, Note_on_c, 0, 67, 0
2, 18585, Note_on_c, 0, 67, 59
2, 18620, Note_on_c, 0, 67, 0
2, 18630, Note_on_c, 0, 74, 78
2, 18665, Note_on_c, 0, 74, 0
2, 18675, Note_on_c, 0, 74, 72
2, 18710, Note_on_c, 0, 74, 0
2, 18720, Note_on_c, 0, 73, 63
2, 18755, Note_on_c, 0, 73, 0
2, 18765, Note_on_c, 0, 73, 57
2, 18800, Note_on_c, 0, 73, 0
2, 18810, Note_on_c, 0, 67, 59
2, 18845, Note_on_c, 0, 67, 0
2, 18855, Note_on_c, 0, 67, 57
2, 18890, Note_on_c, 0, 67, 0
2, 18900, Note_on_c, 0, 67, 61
2, 18935, Note_on_c, 0, 67, 0
2, 18945, Note_on_c, 0, 67, 61
2, 18980, Note_on_c, 0, 67, 0
2, 18990, Note_on_c, 0, 73, 72
2, 19025, Note_on_c, 0, 73, 0
2, 19035, Note_on_c, 0, 73, 72
2, 19070, Note_on_c, 0, 73, 0
2, 19080, Note_on_c, 0, 74, 71
2, 19115, Note_on_c, 0, 74, 0
2, 19125, Note_on_c, 0, 74, 69
2, 19160, Note_on_c, 0, 74, 0
2, 19170, Note_on_c, 0, 67, 61
2, 19205, Note_on_c, 0, 67, 0
2, 19215, Note_on_c, 0, 67, 60
2, 19250, Note_on_c, 0, 67, 0
2, 19260, Note_on_c, 0, 67, 69
2, 19295, Note_on_c, 0, 67, 0
2, 19305, Note_on_c, 0, 67, 65
2, 19340, Note_on_c, 0, 67, 0
2, 19350, Note_on_c, 0, 74, 76
2, 19385, Note_on_c, 0, 74, 0
2, 19395, Note_on_c, 0, 74, 71
2, 19430, Note_on_c, 0, 74, 0
2, 19440, Note_on_c, 0, 79, 75
2, 19475, Note_on_c, 0, 79, 0
2, 19485, Note_on_c, 0, 79, 69
2, 19520, Note_on_c, 0, 79, 0
2, 19530, Note_on_c, 0, 75, 61
2, 19565, Note_on_c, 0, 75, 0
2, 19575, Note_on_c, 0, 75, 57
2, 19610, Note_on_c, 0, 75, 0
2, 19620, Note_on_c, 0, 75, 63
2, 19655, Note_on_c, 0, 75, 0
2, 19665, Note_on_c, 0, 75, 58
2, 19700, Note_on_c, 0, 75, 0
2, 19710, Note_on_c, 0, 79, 75
2, 19745, Note_on_c, 0, 79, 0
2, 19755, Note_on_c, 0, 79, 68
2, 19790, Note_on_c, 0, 79, 0
2, 19800, Note_on_c, 0, 79, 68
2, 19835, Note_on_c, 0, 79, 0
2, 19845, Note_on_c, 0, 79, 61
2, 19880, Note_on_c, 0, 79, 0
2, 19890, Note_on_c, 0, 74, 57
2, 19925, Note_on_c, 0, 74, 0
2, 19935, Note_on_c, 0, 74, 57
2, 19970, Note_on_c, 0, 74, 0
2, 19980, Note_on_c, 0, 79, 73
2, 20015, Note_on_c, 0, 79, 0
2, 20025, Note_on_c, 0, 79, 73
2, 20060, Note_on_c, 0, 79, 0
2, 20070, Note_on_c, 0, 75, 61
2, 20105, Note_on_c, 0, 75, 0
2, 20115, Note_on_c, 0, 75, 57
2, 20150, Note_on_c, 0, 75, 0
2, 20160, Note_on_c, 0, 79, 65
2, 20195, Note_on_c, 0, 79, 0
2, 20205, Note_on_c, 0, 79, 66
2, 20240, Note_on_c, 0, 79, 0
2, 20250, Note_on_c, 0, 74, 66
2, 20285, Note_on_c, 0, 74, 0
2, 20295, Note_on_c, 0, 74, 66
2, 20330, Note_on_c, 0, 74, 0
2, 20340, Note_on_c, 0, 79, 66
2, 20375, Note_on_c, 0, 79, 0
2, 20385, Note_on_c, 0, 79, 66
2, 20420, Note_on_c, 0, 79, 0
2, 20430, Note_on_c, 0, 74, 67
2, 20465, Note_on_c, 0, 74, 0
2, 20475, Note_on_c, 0, 74, 67
2, 20510, Note_on_c, 0, 74, 0
2, 20520, Note_on_c, 0, 79, 67
2, 20555, Note_on_c, 0, 79, 0
2, 20565, Note_on_c, 0, 79, 67
2, 20600, Note_on_c, 0, 79, 0
2, 20610, Note_on_c, 0, 75, 67
2, 20645, Note_on_c, 0, 75, 0
2, 20655, Note_on_c, 0, 75, 68
2, 20690, Note_on_c, 0, 75, 0
2, 20700, Note_on_c, 0, 84, 68
2, 20735, Note_on_c, 0, 84, 0
2, 20745, Note_on_c, 0, 84, 68
2, 20780, Note_on_c, 0, 84, 0
2, 20790, Note_on_c, 0, 80, 68
2, 20825, Note_on_c, 0, 80, 0
2, 20835, Note_on_c, 0, 80, 68
2, 20870, Note_on_c, 0, 80, 0
2, 20880, Note_on_c, 0, 84, 69
2, 20915, Note_on_c, 0, 84, 0
2, 20925, Note_on_c, 0, 84, 69
2, 20960, Note_on_c, 0, 84, 0
2, 20970, Note_on_c, 0, 79, 69
2, 21005, Note_on_c, 0, 79, 0
2, 21015, Note_on_c, 0, 79, 69
2, 21050, Note_on_c, 0, 79, 0
2, 21060, Note_on_c, 0, 87, 69
2, 21095, Note_on_c, 0, 87, 0
2, 21105, Note_on_c, 0, 87, 70
2, 21140, Note_on_c, 0, 87, 0
2, 21150, Note_on_c, 0, 79, 70
2, 21185, Note_on_c, 0, 79, 0
2, 21195, Note_on_c, 0, 79, 70
2, 21230, Note_on_c, 0, 79, 0
2, 21240, Note_on_c, 0, 86, 70
2, 21275, Note_on_c, 0, 86, 0
2, 21285, Note_on_c, 0, 86, 70
2, 21320, Note_on_c, 0, 86, 0
2, 21330, Note_on_c, 0, 79, 71
2, 21365, Note_on_c, 0, 79, 0
2, 21375, Note_on_c, 0, 79, 71
2, 21410, Note_on_c, 0, 79, 0
2, 21420, Note_on_c, 0, 85, 71
2, 21455, Note_on_c, 0, 85, 0
2, 21465, Note_on_c, 0, 85, 71
2, 21500, Note_on_c, 0, 85, 0
2, 21510, Note_on_c, 0, 79, 71
2, 21545, Note_on_c, 0, 79, 0
2, 21555, Note_on_c, 0, 79, 72
2, 21590, Note_on_c, 0, 79, 0
2, 21600, Note_on_c, 0, 86, 72
2, 21635, Note_on_c, 0, 86, 0
2, 21645, Note_on_c, 0, 86, 72
2, 21680, Note_on_c, 0, 86, 0
2, 21690, Note_on_c, 0, 79, 72
2, 21725, Note_on_c, 0, 79, 0
2, 21735, Note_on_c, 0, 79, 72
2, 21770, Note_on_c, 0, 79, 0
2, 21780, Note_on_c, 0, 79, 73
2, 21815, Note_on_c, 0, 79, 0
2, 21825, Note_on_c, 0, 79, 73
2, 21860, Note_on_c, 0, 79, 0
2, 21870, Note_on_c, 0, 86, 73
2, 21905, Note_on_c, 0, 86, 0
2, 21915, Note_on_c, 0, 86, 73
2, 21950, Note_on_c, 0, 86, 0
2, 21960, Note_on_c, 0, 86, 73
2, 21995, Note_on_c, 0, 86, 0
2, 22005, Note_on_c, 0, 86, 74
2, 22040, Note_on_c, 0, 86, 0
2, 22050, Note_on_c, 0, 79, 74
2, 22085, Note_on_c, 0, 79, 0
2, 22095, Note_on_c, 0, 79, 74
2, 22130, Note_on_c, 0, 79, 0
2, 22140, Note_on_c, 0, 85, 74
2, 22175, Note_on_c, 0, 85, 0
2, 22185, Note_on_c, 0, 85, 74
2, 22220, Note_on_c, 0, 85, 0
2, 22230, Note_on_c, 0, 79, 75
2, 22265, Note_on_c, 0, 79, 0
2, 22275, Note_on_c, 0, 79, 75
2, 22310, Note_on_c, 0, 79, 0
2, 22320, Note_on_c, 0, 82, 75
2, 22355, Note_on_c, 0, 82, 0
2, 22365, Note_on_c, 0, 82, 75
2, 22400, Note_on_c, 0, 82, 0
2, 22410, Note_on_c, 0, 79, 75
2, 22445, Note_on_c, 0, 79, 0
2, 22455, Note_on_c, 0, 79, 76
2, 22490, Note_on_c, 0, 79, 0
2, 22500, Note_on_c, 0, 79, 76
2, 22535, Note_on_c, 0, 79, 0
2, 22545, Note_on_c, 0, 79, 76
2, 22580, Note_on_c, 0, 79, 0
2, 22590, Note_on_c, 0, 82, 76
2, 22625, Note_on_c, 0, 82, 0
2, 22635, Note_on_c, 0, 82, 76
2, 22670, Note_on_c, 0, 82, 0
2, 22680, Note_on_c, 0, 86, 77
2, 22715, Note_on_c, 0, 86, 0
2, 22725, Note_on_c, 0, 86, 77
2, 22760, Note_on_c, 0, 86, 0
2, 22770, Note_on_c, 0, 79, 77
2, 22805, Note_on_c, 0, 79, 0
2, 22815, Note_on_c, 0, 79, 77
2, 22850, Note_on_c, 0, 79, 0
2, 22860, Note_on_c, 0, 85, 77
2, 22895, Note_on_c, 0, 85, 0
2, 22905, Note_on_c, 0, 85, 78
2, 22940, Note_on_c, 0, 85, 0
2, 22950, Note_on_c, 0, 79, 78
2, 22985, Note_on_c, 0, 79, 0
2, 22995, Note_on_c, 0, 79, 78
2, 23030, Note_on_c, 0, 79, 0
2, 23040, Note_on_c, 0, 82, 78
2, 23075, Note_on_c, 0, 82, 0
2, 23085, Note_on_c, 0, 82, 78
2, 23120, Note_on_c, 0, 82, 0
2, 23130, Note_on_c, 0, 79, 70
2, 23165, Note_on_c, 0, 79, 0
2, 23175, Note_on_c, 0, 79, 63
2, 23210, Note_on_c, 0, 79, 0
2, 23220, Note_on_c, 0, 86, 94
2, 23255, Note_on_c, 0, 86, 0
2, 23265, Note_on_c, 0, 86, 84
2, 23300, Note_on_c, 0, 86, 0
2, 23310, Note_on_c, 0, 85, 74
2, 23345, Note_on_c, 0, 85, 0
2, 23355, Note_on_c, 0, 85, 72
2, 23390, Note_on_c, 0, 85, 0
2, 23400, Note_on_c, 0, 82, 73
2, 23435, Note_on_c, 0, 82, 0
2, 23445, Note_on_c, 0, 82, 66
2, 23480, Note_on_c, 0, 82, 0
2, 23490, Note_on_c, 0, 79, 65
2, 23525, Note_on_c, 0, 79, 0
2, 23535, Note_on_c, 0, 79, 62
2, 23570, Note_on_c, 0, 79, 0
2, 23580, Note_on_c, 0, 86, 91
2, 23615, Note_on_c, 0, 86, 0
2, 23625, Note_on_c, 0, 86, 88
2, 23660, Note_on_c, 0, 86, 0
2, 23670, Note_on_c, 0, 85, 73
2, 23705, Note_on_c, 0, 85, 0
2, 23715, Note_on_c, 0, 85, 70
2, 23750, Note_on_c, 0, 85, 0
2, 23760, Note_on_c, 0, 80, 63
2, 23795, Note_on_c, 0, 80, 0
2, 23805, Note_on_c, 0, 80, 62
2, 23840, Note_on_c, 0, 80, 0
2, 23850, Note_on_c, 0, 75, 68
2, 23885, Note_on_c, 0, 75, 0
2, 23895, Note_on_c, 0, 75, 66
2, 23930, Note_on_c, 0, 75, 0
2, 23940, Note_on_c, 0, 84, 82
2, 23975, Note_on_c, 0, 84, 0
2, 23985, Note_on_c, 0, 84, 77
2, 24020, Note_on_c, 0, 84, 0
2, 24030, Note_on_c, 0, 83, 76
2, 24065, Note_on_c, 0, 83, 0
2, 24075, Note_on_c, 0, 83, 73
2, 24110, Note_on_c, 0, 83, 0
2, 24120, Note_on_c, 0, 80, 75
2, 24155, Note_on_c, 0, 80, 0
2, 24165, Note_on_c, 0, 80, 73
2, 24200, Note_on_c, 0, 80, 0
2, 24210, Note_on_c, 0, 77, 63
2, 24245, Note_on_c, 0, 77, 0
2, 24255, Note_on_c, 0, 77, 62
2, 24290, Note_on_c, 0, 77, 0
2, 24300, Note_on_c, 0, 84, 91
2, 24335, Note_on_c, 0, 84, 0
2, 24345, Note_on_c, 0, 84, 81
2, 24380, Note_on_c, 0, 84, 0
2, 24390, Note_on_c, 0, 83, 78
2, 24425, Note_on_c, 0, 83, 0
2, 24435, Note_on_c, 0, 83, 71
2, 24470, Note_on_c, 0, 83, 0
2, 24480, Note_on_c, 0, 79, 78
2, 24515, Note_on_c, 0, 79, 0
2, 24525, Note_on_c, 0, 79, 78
2, 24560, Note_on_c, 0, 79, 0
2, 24570, Note_on_c, 0, 75, 77
2, 24605, Note_on_c, 0, 75, 0
2, 24615, Note_on_c, 0, 75, 77
2, 24650, Note_on_c, 0, 75, 0
2, 24660, Note_on_c, 0, 75, 77
2, 24695, Note_on_c, 0, 75, 0
2, 24705, Note_on_c, 0, 75, 76
2, 24740, Note_on_c, 0, 75, 0
2, 24750, Note_on_c, 0, 79, 76
2, 24785, Note_on_c, 0, 79, 0
2, 24795, Note_on_c, 0, 79, 75
2, 24830, Note_on_c, 0, 79, 0
2, 24840, Note_on_c, 0, 79, 75
2, 24875, Note_on_c, 0, 79, 0
2, 24885, Note_on_c, 0, 79, 75
2, 24920, Note_on_c, 0, 79, 0
2, 24930, Note_on_c, 0, 75, 74
2, 24965, Note_on_c, 0, 75, 0
2, 24975, Note_on_c, 0, 75, 74
2, 25010, Note_on_c, 0, 75, 0
2, 25020, Note_on_c, 0, 75, 73
2, 25055, Note_on_c, 0, 75, 0
2, 25065, Note_on_c, 0, 75, 73
2, 25100, Note_on_c, 0, 75, 0
2, 25110, Note_on_c, 0, 79, 73
2, 25145, Note_on_c, 0, 79, 0
2, 25155, Note_on_c, 0, 79, 72
2, 25190, Note_on_c, 0, 79, 0
2, 25200, Note_on_c, 0, 79, 72
2, 25235, Note_on_c, 0, 79, 0
2, 25245, Note_on_c, 0, 79, 71
2, 25280, Note_on_c, 0, 79, 0
2, 25290, Note_on_c, 0, 70, 71
2, 25325, Note_on_c, 0, 70, 0
2, 25335, Note_on_c, 0, 70, 71
2, 25370, Note_on_c, 0, 70, 0
2, 25380, Note_on_c, 0, 70, 70
2, 25415, Note_on_c, 0, 70, 0
2, 25425, Note_on_c, 0, 70, 70
2, 25460, Note_on_c, 0, 70, 0
2, 25470, Note_on_c, 0, 79, 69
2, 25505, Note_on_c, 0, 79, 0
2, 25515, Note_on_c, 0, 79, 69
2, 25550, Note_on_c, 0, 79, 0
2, 25560, Note_on_c, 0, 79, 69
2, 25595, Note_on_c, 0, 79, 0
2, 25605, Note_on_c, 0, 79, 68
2, 25640, Note_on_c, 0, 79, 0
2, 25650, Note_on_c, 0, 70, 68
2, 25685, Note_on_c, 0, 70, 0
2, 25695, Note_on_c, 0, 70, 67
2, 25730, Note_on_c, 0, 70, 0
2, 25740, Note_on_c, 0, 70, 67
2, 25775, Note_on_c, 0, 70, 0
2, 25785, Note_on_c, 0, 70, 67
2, 25820, Note_on_c, 0, 70, 0
2, 25830, Note_on_c, 0, 79, 66
2, 25865, Note_on_c, 0, 79, 0
2, 25875, Note_on_c, 0, 79, 66
2, 25910, Note_on_c, 0, 79, 0
2, 25920, Note_on_c, 0, 73, 65
2, 25955, Note_on_c, 0, 73, 0
2, 25965, Note_on_c, 0, 73, 65
2, 26000, Note_on_c, 0, 73, 0
2, 26010, Note_on_c, 0, 67, 55
2, 26045, Note_on_c, 0, 67, 0
2, 26055, Note_on_c, 0, 67, 50
2, 26090, Note_on_c, 0, 67, 0
2, 26100, Note_on_c, 0, 67, 68
2, 26135, Note_on_c, 0, 67, 0
2, 26145, Note_on_c, 0, 67, 67
2, 26180, Note_on_c, 0, 67, 0
2, 26190, Note_on_c, 0, 73, 69
2, 26225, Note_on_c, 0, 73, 0
2, 26235, Note_on_c, 0, 73, 70
2, 26270, Note_on_c, 0, 73, 0
2, 26280, Note_on_c, 0, 73, 63
2, 26315, Note_on_c, 0, 73, 0
2, 26325, Note_on_c, 0, 73, 61
2, 26360, Note_on_c, 0, 73, 0
2, 26370, Note_on_c, 0, 67, 59
2, 26405, Note_on_c, 0, 67, 0
2, 26415, Note_on_c, 0, 67, 54
2, 26450, Note_on_c, 0, 67, 0
2, 26460, Note_on_c, 0, 67, 59
2, 26495, Note_on_c, 0, 67, 0
2, 26505, Note_on_c, 0, 67, 56
2, 26540, Note_on_c, 0, 67, 0
2, 26550, Note_on_c, 0, 73, 78
2, 26585, Note_on_c, 0, 73, 0
2, 26595, Note_on_c, 0, 73, 69
2, 26630, Note_on_c, 0, 73, 0
2, 26640, Note_on_c, 0, 72, 58
2, 26675, Note_on_c, 0, 72, 0
2, 26685, Note_on_c, 0, 72, 56
2, 26720, Note_on_c, 0, 72, 0
2, 26730, Note_on_c, 0, 69, 63
2, 26765, Note_on_c, 0, 69, 0
2, 26775, Note_on_c, 0, 69, 58
2, 26810, Note_on_c, 0, 69, 0
2, 26820, Note_on_c, 0, 69, 65
2, 26855, Note_on_c, 0, 69, 0
2, 26865, Note_on_c, 0, 69, 58
2, 26900, Note_on_c, 0, 69, 0
2, 26910, Note_on_c, 0, 72, 73
2, 26945, Note_on_c, 0, 72, 0
2, 26955, Note_on_c, 0, 72, 65
2, 26990, Note_on_c, 0, 72, 0
2, 27000, Note_on_c, 0, 72, 59
2, 27035, Note_on_c, 0, 72, 0
2, 27045, Note_on_c, 0, 72, 58
2, 27080, Note_on_c, 0, 72, 0
2, 27090, Note_on_c, 0, 69, 66
2, 27125, Note_on_c, 0, 69, 0
2, 27135, Note_on_c, 0, 69, 64
2, 27170, Note_on_c, 0, 69, 0
2, 27180, Note_on_c, 0, 69, 59
2, 27215, Note_on_c, 0, 69, 0
2, 27225, Note_on_c, 0, 69, 60
2, 27260, Note_on_c, 0, 69, 0
2, 27270, Note_on_c, 0, 72, 76
2, 27305, Note_on_c, 0, 72, 0
2, 27315, Note_on_c, 0, 72, 63
2, 27350, Note_on_c, 0, 72, 0
2, 27360, Note_on_c, 0, 70, 63
2, 27450, Note_on_c, 0, 70, 0
2, 34020, Note_on_c, 0, 72, 78
2, 34200, Note_on_c, 0, 72, 0
2, 34200, Note_on_c, 0, 74, 92
2, 34380, Note_on_c, 0, 74, 0
2, 34380, Note_on_c, 0, 75, 88
2, 34560, Note_on_c, 0, 75, 0
2, 34560, Note_on_c, 0, 79, 100
2, 35460, Note_on_c, 0, 79, 0
2, 35460, Note_on_c, 0, 72, 68
2, 35640, Note_on_c, 0, 72, 0
2, 35640, Note_on_c, 0, 74, 91
2, 35820, Note_on_c, 0, 74, 0
2, 35820, Note_on_c, 0, 75, 93
2, 36000, Note_on_c, 0, 75, 0
2, 36000, Note_on_c, 0, 79, 98
2, 36900, Note_on_c, 0, 79, 0
2, 36900, Note_on_c, 0, 87, 105
2, 37080, Note_on_c, 0, 87, 0
2, 37080, Note_on_c, 0, 86, 86
2, 37260, Note_on_c, 0, 86, 0
2, 37260, Note_on_c, 0, 82, 81
2, 37440, Note_on_c, 0, 82, 0
2, 37440, Note_on_c, 0, 79, 77
2, 37620, Note_on_c, 0, 79, 0
2, 37620, Note_on_c, 0, 84, 99
2, 37800, Note_on_c, 0, 84, 0
2, 37800, Note_on_c, 0, 82, 86
2, 37980, Note_on_c, 0, 82, 0
2, 37980, Note_on_c, 0, 79, 80
2, 38160, Note_on_c, 0, 79, 0
2, 38160, Note_on_c, 0, 75, 81
2, 38340, Note_on_c, 0, 75, 0
2, 38340, Note_on_c, 0, 81, 107
2, 38520, Note_on_c, 0, 81, 0
2, 38520, Note_on_c, 0, 79, 89
2, 38700, Note_on_c, 0, 79, 0
2, 38700, Note_on_c, 0, 74, 80
2, 38880, Note_on_c, 0, 74, 0
2, 38880, Note_on_c, 0, 76, 91
2, 39240, Note_on_c, 0, 76, 0
2, 39240, Note_on_c, 0, 78, 93
2, 39420, Note_on_c, 0, 78, 0
2, 40500, Note_on_c, 0, 73, 107
2, 40860, Note_on_c, 0, 73, 0
2, 40860, Note_on_c, 0, 74, 92
2, 41040, Note_on_c, 0, 74, 0
2, 41130, Note_on_c, 0, 69, 81
2, 41220, Note_on_c, 0, 69, 0
2, 41220, Note_on_c, 0, 70, 91
2, 41310, Note_on_c, 0, 70, 0
2, 41310, Note_on_c, 0, 72, 93
2, 41400, Note_on_c, 0, 72, 0
2, 41400, Note_on_c, 0, 74, 95
2, 41490, Note_on_c, 0, 74, 0
2, 41490, Note_on_c, 0, 76, 94
2, 41580, Note_on_c, 0, 76, 0
2, 41580, Note_on_c, 0, 78, 89
2, 41670, Note_on_c, 0, 78, 0
2, 41670, Note_on_c, 0, 79, 94
2, 41760, Note_on_c, 0, 79, 0
2, 41760, Note_on_c, 0, 82, 97
2, 42030, Note_on_c, 0, 82, 0
2, 42030, Note_on_c, 0, 81, 84
2, 42120, Note_on_c, 0, 81, 0
2, 42120, Note_on_c, 0, 79, 84
2, 42300, Note_on_c, 0, 79, 0
2, 42570, Note_on_c, 0, 79, 88
2, 42660, Note_on_c, 0, 79, 0
2, 42660, Note_on_c, 0, 86, 89
2, 42750, Note_on_c, 0, 86, 0
2, 42750, Note_on_c, 0, 84, 89
2, 42840, Note_on_c, 0, 84, 0
2, 42840, Note_on_c, 0, 79, 90
2, 43290, Note_on_c, 0, 79, 0
2, 43290, Note_on_c, 0, 86, 93
2, 43380, Note_on_c, 0, 86, 0
2, 43380, Note_on_c, 0, 91, 93
2, 43470, Note_on_c, 0, 91, 0
2, 43470, Note_on_c, 0, 89, 94
2, 43560, Note_on_c, 0, 89, 0
2, 43560, Note_on_c, 0, 84, 94
2, 44010, Note_on_c, 0, 84, 0
2, 44010, Note_on_c, 0, 87, 97
2, 44100, Note_on_c, 0, 87, 0
2, 44100, Note_on_c, 0, 93, 98
2, 44190, Note_on_c, 0, 93, 0
2, 44190, Note_on_c, 0, 91, 98
2, 44280, Note_on_c, 0, 91, 0
2, 44280, Note_on_c, 0, 86, 99
2, 44460, Note_on_c, 0, 86, 0
2, 44460, Note_on_c, 0, 85, 100
2, 44640, Note_on_c, 0, 85, 0
2, 44640, Note_on_c, 0, 86, 101
2, 44730, Note_on_c, 0, 86, 0
2, 44730, Note_on_c, 0, 88, 104
2, 44820, Note_on_c, 0, 88, 0
2, 44820, Note_on_c, 0, 90, 107
2, 44910, Note_on_c, 0, 90, 0
2, 44910, Note_on_c, 0, 91, 111
2, 45000, Note_on_c, 0, 91, 0
2, 45000, Note_on_c, 0, 94, 114
2, 45270, Note_on_c, 0, 94, 0
2, 45270, Note_on_c, 0, 93, 101
2, 45360, Note_on_c, 0, 93, 0
2, 45360, Note_on_c, 0, 87, 101
2, 45450, Note_on_c, 0, 87, 0
2, 45450, Note_on_c, 0, 87, 103
2, 45540, Note_on_c, 0, 87, 0
2, 45540, Note_on_c, 0, 90, 105
2, 45630, Note_on_c, 0, 90, 0
2, 45630, Note_on_c, 0, 91, 106
2, 45720, Note_on_c, 0, 91, 0
2, 45720, Note_on_c, 0, 94, 108
2, 45990, Note_on_c, 0, 94, 0
2, 45990, Note_on_c, 0, 93, 111
2, 46080, Note_on_c, 0, 93, 0
2, 46080, Note_on_c, 0, 87, 90
2, 46170, Note_on_c, 0, 87, 0
2, 46170, Note_on_c, 0, 91, 111
2, 46260, Note_on_c, 0, 91, 0
2, 46260, Note_on_c, 0, 94, 115
2, 46350, Note_on_c, 0, 94, 0
2, 46350, Note_on_c, 0, 93, 98
2, 46440, Note_on_c, 0, 93, 0
2, 46440, Note_on_c, 0, 87, 85
2, 46530, Note_on_c, 0, 87, 0
2, 46530, Note_on_c, 0, 91, 110
2, 46620, Note_on_c, 0, 91, 0
2, 46620, Note_on_c, 0, 94, 108
2, 46710, Note_on_c, 0, 94, 0
2, 46710, Note_on_c, 0, 93, 101
2, 46800, Note_on_c, 0, 93, 0
2, 46800, Note_on_c, 0, 86, 83
2, 46890, Note_on_c, 0, 86, 0
2, 46890, Note_on_c, 0, 89, 105
2, 46980, Note_on_c, 0, 89, 0
2, 46980, Note_on_c, 0, 92, 108
2, 47070, Note_on_c, 0, 92, 0
2, 47070, Note_on_c, 0, 91, 101
2, 47160, Note_on_c, 0, 91, 0
2, 47160, Note_on_c, 0, 86, 91
2, 47250, Note_on_c, 0, 86, 0
2, 47250, Note_on_c, 0, 89, 111
2, 47340, Note_on_c, 0, 89, 0
2, 47340, Note_on_c, 0, 92, 111
2, 47430, Note_on_c, 0, 92, 0
2, 47430, Note_on_c, 0, 91, 100
2, 47520, Note_on_c, 0, 91, 0
2, 47520, Note_on_c, 0, 91, 103
2, 47700, Note_on_c, 0, 91, 0
2, 47700, Note_on_c, 0, 87, 89
2, 47790, Note_on_c, 0, 87, 0
2, 47790, Note_on_c, 0, 86, 96
2, 47880, Note_on_c, 0, 86, 0
2, 47880, Note_on_c, 0, 84, 102
2, 47970, Note_on_c, 0, 84, 0
2, 47970, Note_on_c, 0, 82, 102
2, 48060, Note_on_c, 0, 82, 0
2, 48060, Note_on_c, 0, 81, 101
2, 48150, Note_on_c, 0, 81, 0
2, 48150, Note_on_c, 0, 79, 101
2, 48240, Note_on_c, 0, 79, 0
2, 48240, Note_on_c, 0, 82, 100
2, 48420, Note_on_c, 0, 82, 0
2, 48420, Note_on_c, 0, 81, 100
2, 48510, Note_on_c, 0, 81, 0
2, 48510, Note_on_c, 0, 79, 99
2, 48600, Note_on_c, 0, 79, 0
2, 48600, Note_on_c, 0, 77, 99
2, 48690, Note_on_c, 0, 77, 0
2, 48690, Note_on_c, 0, 75, 98
2, 48780, Note_on_c, 0, 75, 0
2, 48780, Note_on_c, 0, 74, 98
2, 48870, Note_on_c, 0, 74, 0
2, 48870, Note_on_c, 0, 73, 97
2, 48960, Note_on_c, 0, 73, 0
2, 48960, Note_on_c, 0, 79, 97
2, 49320, Note_on_c, 0, 79, 0
2, 49320, Note_on_c, 0, 73, 95
2, 49590, Note_on_c, 0, 73, 0
2, 49590, Note_on_c, 0, 73, 94
2, 49680, Note_on_c, 0, 73, 0
2, 49680, Note_on_c, 0, 75, 93
2, 50220, Note_on_c, 0, 75, 0
2, 50220, Note_on_c, 0, 74, 90
2, 50400, Note_on_c, 0, 74, 0
2, 50400, Note_on_c, 0, 79, 72
2, 50490, Note_on_c, 0, 79, 0
2, 50490, Note_on_c, 0, 74, 59
2, 50580, Note_on_c, 0, 74, 0
2, 50580, Note_on_c, 0, 74, 66
2, 50670, Note_on_c, 0, 74, 0
2, 50670, Note_on_c, 0, 74, 66
2, 50760, Note_on_c, 0, 74, 0
2, 50760, Note_on_c, 0, 74, 63
2, 50832, Note_on_c, 0, 74, 0
2, 50850, Note_on_c, 0, 74, 60
2, 50922, Note_on_c, 0, 74, 0
2, 50940, Note_on_c, 0, 74, 64
2, 51012, Note_on_c, 0, 74, 0
2, 51030, Note_on_c, 0, 74, 59
2, 51102, Note_on_c, 0, 74, 0
2, 51120, Note_on_c, 0, 74, 64
2, 51192, Note_on_c, 0, 74, 0
2, 51210, Note_on_c, 0, 74, 57
2, 51282, Note_on_c, 0, 74, 0
2, 51300, Note_on_c, 0, 74, 65
2, 51372, Note_on_c, 0, 74, 0
2, 51390, Note_on_c, 0, 74, 59
2, 51462, Note_on_c, 0, 74, 0
2, 51480, Note_on_c, 0, 74, 61
2, 51552, Note_on_c, 0, 74, 0
2, 51570, Note_on_c, 0, 74, 59
2, 51642, Note_on_c, 0, 74, 0
2, 51660, Note_on_c, 0, 74, 66
2, 51732, Note_on_c, 0, 74, 0
2, 51750, Note_on_c, 0, 74, 57
2, 51822, Note_on_c, 0, 74, 0
2, 51840, Note_on_c, 0, 74, 64
2, 51912, Note_on_c, 0, 74, 0
2, 51930, Note_on_c, 0, 74, 57
2, 52002, Note_on_c, 0, 74, 0
2, 52020, Note_on_c, 0, 74, 61
2, 52092, Note_on_c, 0, 74, 0
2, 52110, Note_on_c, 0, 74, 58
2, 52182, Note_on_c, 0, 74, 0
2, 52200, Note_on_c, 0, 74, 61
2, 52272, Note_on_c, 0, 74, 0
2, 52290, Note_on_c, 0, 74, 62
2, 52362, Note_on_c, 0, 74, 0
2, 52380, Note_on_c, 0, 74, 63
2, 52452, Note_on_c, 0, 74, 0
2, 52470, Note_on_c, 0, 74, 61
2, 52542, Note_on_c, 0, 74, 0
2, 52560, Note_on_c, 0, 74, 62
2, 52632, Note_on_c, 0, 74, 0
2, 52650, Note_on_c, 0, 74, 63
2, 52722, Note_on_c, 0, 74, 0
2, 52740, Note_on_c, 0, 74, 64
2, 52812, Note_on_c, 0, 74, 0
2, 52830, Note_on_c, 0, 74, 60
2, 52902, Note_on_c, 0, 74, 0
2, 52920, Note_on_c, 0, 74, 60
2, 52992, Note_on_c, 0, 74, 0
2, 53010, Note_on_c, 0, 74, 62
2, 53082, Note_on_c, 0, 74, 0
2, 53100, Note_on_c, 0, 74, 63
2, 53172, Note_on_c, 0, 74, 0
2, 53190, Note_on_c, 0, 74, 59
2, 53262, Note_on_c, 0, 74, 0
2, 53280, Note_on_c, 0, 74, 66
2, 53352, Note_on_c, 0, 74, 0
2, 53370, Note_on_c, 0, 74, 60
2, 53442, Note_on_c, 0, 74, 0
2, 53460, Note_on_c, 0, 74, 69
2, 53532, Note_on_c, 0, 74, 0
2, 53550, Note_on_c, 0, 74, 61
2, 53622, Note_on_c, 0, 74, 0
2, 53640, Note_on_c, 0, 74, 67
2, 53712, Note_on_c, 0, 74, 0
2, 53730, Note_on_c, 0, 74, 63
2, 53802, Note_on_c, 0, 74, 0
2, 53820, Note_on_c, 0, 74, 64
2, 53892, Note_on_c, 0, 74, 0
2, 53910, Note_on_c, 0, 74, 67
2, 53982, Note_on_c, 0, 74, 0
2, 54000, Note_on_c, 0, 74, 67
2, 54072, Note_on_c, 0, 74, 0
2, 54090, Note_on_c, 0, 74, 63
2, 54162, Note_on_c, 0, 74, 0
2, 54180, Note_on_c, 0, 74, 70
2, 54252, Note_on_c, 0, 74, 0
2, 54270, Note_on_c, 0, 74, 66
2, 54342, Note_on_c, 0, 74, 0
2, 54360, Note_on_c, 0, 74, 66
2, 54432, Note_on_c, 0, 74, 0
2, 54450, Note_on_c, 0, 74, 63
2, 54522, Note_on_c, 0, 74, 0
2, 54540, Note_on_c, 0, 74, 61
2, 54612, Note_on_c, 0, 74, 0
2, 54630, Note_on_c, 0, 74, 61
2, 54702, Note_on_c, 0, 74, 0
2, 54720, Note_on_c, 0, 74, 68
2, 54792, Note_on_c, 0, 74, 0
2, 54810, Note_on_c, 0, 74, 60
2, 54882, Note_on_c, 0, 74, 0
2, 54900, Note_on_c, 0, 74, 65
2, 54972, Note_on_c, 0, 74, 0
2, 54990, Note_on_c, 0, 74, 61
2, 55062, Note_on_c, 0, 74, 0
2, 55080, Note_on_c, 0, 74, 68
2, 55152, Note_on_c, 0, 74, 0
2, 55170, Note_on_c, 0, 74, 63
2, 55242, Note_on_c, 0, 74, 0
2, 55260, Note_on_c, 0, 74, 69
2, 55332, Note_on_c, 0, 74, 0
2, 55350, Note_on_c, 0, 74, 66
2, 55422, Note_on_c, 0, 74, 0
2, 55440, Note_on_c, 0, 74, 65
2, 55512, Note_on_c, 0, 74, 0
2, 55530, Note_on_c, 0, 74, 67
2, 55602, Note_on_c, 0, 74, 0
2, 55620, Note_on_c, 0, 74, 65
2, 55692, Note_on_c, 0, 74, 0
2, 55710, Note_on_c, 0, 74, 63
2, 55782, Note_on_c, 0, 74, 0
2, 55800, Note_on_c, 0, 74, 68
2, 55872, Note_on_c, 0, 74, 0
2, 55890, Note_on_c, 0, 74, 64
2, 55962, Note_on_c, 0, 74, 0
2, 55980, Note_on_c, 0, 74, 66
2, 56052, Note_on_c, 0, 74, 0
2, 56070, Note_on_c, 0, 74, 61
2, 56142, Note_on_c, 0, 74, 0
2, 56160, Note_on_c, 0, 74, 65
2, 56232, Note_on_c, 0, 74, 0
2, 56250, Note_on_c, 0, 74, 63
2, 56322, Note_on_c, 0, 74, 0
2, 56340, Note_on_c, 0, 74, 65
2, 56412, Note_on_c, 0, 74, 0
2, 56430, Note_on_c, 0, 74, 64
2, 56502, Note_on_c, 0, 74, 0
2, 56520, Note_on_c, 0, 74, 68
2, 56592, Note_on_c, 0, 74, 0
2, 56610, Note_on_c, 0, 74, 63
2, 56682, Note_on_c, 0, 74, 0
2, 56700, Note_on_c, 0, 74, 66
2, 56772, Note_on_c, 0, 74, 0
2, 56790, Note_on_c, 0, 74, 66
2, 56862, Note_on_c, 0, 74, 0
2, 56880, Note_on_c, 0, 74, 66
2, 56952, Note_on_c, 0, 74, 0
2, 56970, Note_on_c, 0, 74, 65
2, 57042, Note_on_c, 0, 74, 0
2, 57060, Note_on_c, 0, 74, 64
2, 57132, Note_on_c, 0, 74, 0
2, 57150, Note_on_c, 0, 74, 59
2, 57222, Note_on_c, 0, 74, 0
2, 57240, Note_on_c, 0, 74, 67
2, 57312, Note_on_c, 0, 74, 0
2, 57330, Note_on_c, 0, 74, 63
2, 57402, Note_on_c, 0, 74, 0
2, 57420, Note_on_c, 0, 74, 66
2, 57492, Note_on_c, 0, 74, 0
2, 57510, Note_on_c, 0, 74, 66
2, 57582, Note_on_c, 0, 74, 0
2, 57600, Note_on_c, 0, 74, 65
2, 57690, Note_on_c, 0, 74, 0
2, 64800, Note_on_c, 0, 94, 80
2, 65160, Note_on_c, 0, 94, 0
2, 65160, Note_on_c, 0, 93, 84
2, 65340, Note_on_c, 0, 93, 0
2, 65340, Note_on_c, 0, 91, 82
2, 65520, Note_on_c, 0, 91, 0
2, 65520, Note_on_c, 0, 90, 83
2, 65700, Note_on_c, 0, 90, 0
2, 65700, Note_on_c, 0, 91, 94
2, 65880, Note_on_c, 0, 91, 0
2, 65880, Note_on_c, 0, 93, 89
2, 66060, Note_on_c, 0, 93, 0
2, 66060, Note_on_c, 0, 87, 76
2, 66240, Note_on_c, 0, 87, 0
2, 66240, Note_on_c, 0, 86, 82
2, 66600, Note_on_c, 0, 86, 0
2, 66600, Note_on_c, 0, 91, 97
2, 67140, Note_on_c, 0, 91, 0
2, 67140, Note_on_c, 0, 89, 83
2, 67320, Note_on_c, 0, 89, 0
2, 67320, Note_on_c, 0, 87, 83
2, 67500, Note_on_c, 0, 87, 0
2, 67500, Note_on_c, 0, 86, 83
2, 67680, Note_on_c, 0, 86, 0
2, 67680, Note_on_c, 0, 87, 92
2, 68040, Note_on_c, 0, 87, 0
2, 68040, Note_on_c, 0, 86, 86
2, 68220, Note_on_c, 0, 86, 0
2, 68220, Note_on_c, 0, 84, 81
2, 68400, Note_on_c, 0, 84, 0
2, 68400, Note_on_c, 0, 84, 90
2, 68580, Note_on_c, 0, 84, 0
2, 68580, Note_on_c, 0, 82, 90
2, 68760, Note_on_c, 0, 82, 0
2, 68760, Note_on_c, 0, 81, 85
2, 68940, Note_on_c, 0, 81, 0
2, 68940, Note_on_c, 0, 79, 83
2, 69120, Note_on_c, 0, 79, 0
2, 69120, Note_on_c, 0, 86, 102
2, 69480, Note_on_c, 0, 86, 0
2, 69480, Note_on_c, 0, 81, 73
2, 69660, Note_on_c, 0, 81, 0
2, 69660, Note_on_c, 0, 82, 88
2, 69840, Note_on_c, 0, 82, 0
2, 69840, Note_on_c, 0, 84, 93
2, 70020, Note_on_c, 0, 84, 0
2, 70020, Note_on_c, 0, 86, 92
2, 70200, Note_on_c, 0, 86, 0
2, 70200, Note_on_c, 0, 87, 109
2, 70358, Note_on_c, 0, 87, 0
2, 70380, Note_on_c, 0, 89, 109
2, 70538, Note_on_c, 0, 89, 0
2, 70560, Note_on_c, 0, 94, 99
2, 70920, Note_on_c, 0, 94, 0
2, 70920, Note_on_c, 0, 93, 88
2, 71100, Note_on_c, 0, 93, 0
2, 71100, Note_on_c, 0, 91, 84
2, 71280, Note_on_c, 0, 91, 0
2, 71280, Note_on_c, 0, 90, 82
2, 71460, Note_on_c, 0, 90, 0
2, 71460, Note_on_c, 0, 91, 91
2, 71640, Note_on_c, 0, 91, 0
2, 71640, Note_on_c, 0, 93, 97
2, 71820, Note_on_c, 0, 93, 0
2, 71820, Note_on_c, 0, 87, 76
2, 72000, Note_on_c, 0, 87, 0
2, 72000, Note_on_c, 0, 86, 84
2, 72360, Note_on_c, 0, 86, 0
2, 72360, Note_on_c, 0, 91, 90
2, 72900, Note_on_c, 0, 91, 0
2, 72900, Note_on_c, 0, 89, 82
2, 73080, Note_on_c, 0, 89, 0
2, 73080, Note_on_c, 0, 87, 81
2, 73260, Note_on_c, 0, 87, 0
2, 73260, Note_on_c, 0, 86, 81
2, 73440, Note_on_c, 0, 86, 0
2, 73440, Note_on_c, 0, 87, 90
2, 73800, Note_on_c, 0, 87, 0
2, 73800, Note_on_c, 0, 86, 86
2, 73980, Note_on_c, 0, 86, 0
2, 73980, Note_on_c, 0, 84, 83
2, 74160, Note_on_c, 0, 84, 0
2, 74160, Note_on_c, 0, 84, 87
2, 74340, Note_on_c, 0, 84, 0
2, 74340, Note_on_c, 0, 82, 82
2, 74520, Note_on_c, 0, 82, 0
2, 74520, Note_on_c, 0, 81, 86
2, 74700, Note_on_c, 0, 81, 0
2, 74700, Note_on_c, 0, 79, 83
2, 74880, Note_on_c, 0, 79, 0
2, 74880, Note_on_c, 0, 86, 103
2, 75600, Note_on_c, 0, 86, 0
2, 75600, Note_on_c, 0, 84, 90
2, 75780, Note_on_c, 0, 84, 0
2, 78300, Note_on_c, 0, 84, 85
2, 78480, Note_on_c, 0, 84, 0
2, 78480, Note_on_c, 0, 90, 123
2, 78840, Note_on_c, 0, 90, 0
2, 78840, Note_on_c, 0, 89, 88
2, 79200, Note_on_c, 0, 89, 0
2, 79200, Note_on_c, 0, 82, 69
2, 80640, Note_on_c, 0, 82, 0
2, 80640, Note_on_c, 0, 81, 85
2, 81000, Note_on_c, 0, 81, 0
2, 81000, Note_on_c, 0, 84, 99
2, 81120, Note_on_c, 0, 84, 0
2, 81120, Note_on_c, 0, 85, 95
2, 81239, Note_on_c, 0, 85, 0
2, 81239, Note_on_c, 0, 87, 95
2, 81360, Note_on_c, 0, 87, 0
2, 81360, Note_on_c, 0, 90, 97
2, 81720, Note_on_c, 0, 90, 0
2, 81720, Note_on_c, 0, 89, 90
2, 82080, Note_on_c, 0, 89, 0
2, 82080, Note_on_c, 0, 84, 79
2, 83520, Note_on_c, 0, 84, 0
2, 83520, Note_on_c, 0, 83, 83
2, 84060, Note_on_c, 0, 83, 0
2, 84060, Note_on_c, 0, 84, 103
2, 84218, Note_on_c, 0, 84, 0
2, 84240, Note_on_c, 0, 92, 127
2, 84600, Note_on_c, 0, 92, 0
2, 84600, Note_on_c, 0, 91, 84
2, 84960, Note_on_c, 0, 91, 0
2, 84960, Note_on_c, 0, 86, 77
2, 86400, Note_on_c, 0, 86, 0
2, 86400, Note_on_c, 0, 85, 81
2, 86760, Note_on_c, 0, 85, 0
2, 86760, Note_on_c, 0, 88, 96
2, 86880, Note_on_c, 0, 88, 0
2, 86880, Note_on_c, 0, 89, 93
2, 86999, Note_on_c, 0, 89, 0
2, 86999, Note_on_c, 0, 91, 92
2, 87120, Note_on_c, 0, 91, 0
2, 87120, Note_on_c, 0, 94, 96
2, 87660, Note_on_c, 0, 94, 0
2, 87660, Note_on_c, 0, 89, 81
2, 87840, Note_on_c, 0, 89, 0
2, 87840, Note_on_c, 0, 88, 83
2, 88200, Note_on_c, 0, 88, 0
2, 88200, Note_on_c, 0, 88, 89
2, 88320, Note_on_c, 0, 88, 0
2, 88320, Note_on_c, 0, 89, 97
2, 88439, Note_on_c, 0, 89, 0
2, 88439, Note_on_c, 0, 91, 95
2, 88560, Note_on_c, 0, 91, 0
2, 88560, Note_on_c, 0, 94, 96
2, 89100, Note_on_c, 0, 94, 0
2, 89100, Note_on_c, 0, 89, 76
2, 89280, Note_on_c, 0, 89, 0
2, 89280, Note_on_c, 0, 88, 88
2, 90000, Note_on_c, 0, 88, 0
2, 90000, Note_on_c, 0, 89, 95
2, 90720, Note_on_c, 0, 89, 0
2, 90720, Note_on_c, 0, 89, 101
2, 90900, Note_on_c, 0, 89, 0
2, 100080, Note_on_c, 0, 74, 94
2, 100242, Note_on_c, 0, 74, 0
2, 100260, Note_on_c, 0, 75, 106
2, 100440, Note_on_c, 0, 75, 0
2, 100440, Note_on_c, 0, 77, 108
2, 100620, Note_on_c, 0, 77, 0
2, 100620, Note_on_c, 0, 75, 94
2, 100710, Note_on_c, 0, 75, 0
2, 100710, Note_on_c, 0, 74, 98
2, 100800, Note_on_c, 0, 74, 0
2, 100800, Note_on_c, 0, 79, 115
2, 101520, Note_on_c, 0, 79, 0
2, 101520, Note_on_c, 0, 76, 97
2, 101700, Note_on_c, 0, 76, 0
2, 101700, Note_on_c, 0, 77, 105
2, 101880, Note_on_c, 0, 77, 0
2, 101880, Note_on_c, 0, 79, 102
2, 102060, Note_on_c, 0, 79, 0
2, 102060, Note_on_c, 0, 77, 98
2, 102150, Note_on_c, 0, 77, 0
2, 102150, Note_on_c, 0, 76, 95
2, 102240, Note_on_c, 0, 76, 0
2, 102240, Note_on_c, 0, 81, 114
2, 102960, Note_on_c, 0, 81, 0
2, 102960, Note_on_c, 0, 76, 94
2, 103140, Note_on_c, 0, 76, 0
2, 103140, Note_on_c, 0, 77, 107
2, 103320, Note_on_c, 0, 77, 0
2, 103320, Note_on_c, 0, 79, 105
2, 103410, Note_on_c, 0, 79, 0
2, 103410, Note_on_c, 0, 77, 96
2, 103500, Note_on_c, 0, 77, 0
2, 103500, Note_on_c, 0, 77, 99
2, 103590, Note_on_c, 0, 77, 0
2, 103590, Note_on_c, 0, 76, 95
2, 103680, Note_on_c, 0, 76, 0
2, 103680, Note_on_c, 0, 81, 113
2, 104400, Note_on_c, 0, 81, 0
2, 104400, Note_on_c, 0, 77, 96
2, 104580, Note_on_c, 0, 77, 0
2, 104580, Note_on_c, 0, 79, 104
2, 104760, Note_on_c, 0, 79, 0
2, 104760, Note_on_c, 0, 80, 106
2, 104940, Note_on_c, 0, 80, 0
2, 104940, Note_on_c, 0, 79, 99
2, 105030, Note_on_c, 0, 79, 0
2, 105030, Note_on_c, 0, 77, 98
2, 105120, Note_on_c, 0, 77, 0
2, 105120, Note_on_c, 0, 82, 118
2, 105840, Note_on_c, 0, 82, 0
2, 105840, Note_on_c, 0, 79, 94
2, 106020, Note_on_c, 0, 79, 0
2, 106020, Note_on_c, 0, 79, 105
2, 106110, Note_on_c, 0, 79, 0
2, 106110, Note_on_c, 0, 80, 104
2, 106200, Note_on_c, 0, 80, 0
2, 106200, Note_on_c, 0, 82, 107
2, 106380, Note_on_c, 0, 82, 0
2, 106380, Note_on_c, 0, 80, 93
2, 106470, Note_on_c, 0, 80, 0
2, 106470, Note_on_c, 0, 79, 94
2, 106560, Note_on_c, 0, 79, 0
2, 106560, Note_on_c, 0, 84, 115
2, 107460, Note_on_c, 0, 84, 0
2, 107460, Note_on_c, 0, 89, 124
2, 107618, Note_on_c, 0, 89, 0
2, 107640, Note_on_c, 0, 91, 120
2, 107798, Note_on_c, 0, 91, 0
2, 107820, Note_on_c, 0, 92, 114
2, 107978, Note_on_c, 0, 92, 0
2, 108000, Note_on_c, 0, 98, 116
2, 108630, Note_on_c, 0, 98, 0
2, 108630, Note_on_c, 0, 96, 95
2, 108720, Note_on_c, 0, 96, 0
2, 108720, Note_on_c, 0, 96, 99
2, 108900, Note_on_c, 0, 96, 0
2, 108900, Note_on_c, 0, 77, 78
2, 108945, Note_on_c, 0, 77, 0
2, 108945, Note_on_c, 0, 79, 107
2, 108990, Note_on_c, 0, 79, 0
2, 108990, Note_on_c, 0, 80, 102
2, 109035, Note_on_c, 0, 80, 0
2, 109035, Note_on_c, 0, 82, 106
2, 109080, Note_on_c, 0, 82, 0
2, 109080, Note_on_c, 0, 84, 108
2, 109125, Note_on_c, 0, 84, 0
2, 109125, Note_on_c, 0, 86, 107
2, 109170, Note_on_c, 0, 86, 0
2, 109170, Note_on_c, 0, 88, 104
2, 109215, Note_on_c, 0, 88, 0
2, 109215, Note_on_c, 0, 89, 107
2, 109260, Note_on_c, 0, 89, 0
2, 109260, Note_on_c, 0, 91, 108
2, 109305, Note_on_c, 0, 91, 0
2, 109305, Note_on_c, 0, 92, 107
2, 109350, Note_on_c, 0, 92, 0
2, 109350, Note_on_c, 0, 94, 106
2, 109395, Note_on_c, 0, 94, 0
2, 109395, Note_on_c, 0, 96, 108
2, 109440, Note_on_c, 0, 96, 0
2, 109440, Note_on_c, 0, 98, 109
2, 110070, Note_on_c, 0, 98, 0
2, 110070, Note_on_c, 0, 96, 100
2, 110160, Note_on_c, 0, 96, 0
2, 110160, Note_on_c, 0, 96, 100
2, 110340, Note_on_c, 0, 96, 0
2, 110340, Note_on_c, 0, 92, 105
2, 110498, Note_on_c, 0, 92, 0
2, 110520, Note_on_c, 0, 94, 121
2, 110678, Note_on_c, 0, 94, 0
2, 110700, Note_on_c, 0, 96, 120
2, 110858, Note_on_c, 0, 96, 0
2, 110880, Note_on_c, 0, 99, 113
2, 111510, Note_on_c, 0, 99, 0
2, 111510, Note_on_c, 0, 96, 96
2, 111600, Note_on_c, 0, 96, 0
2, 111600, Note_on_c, 0, 96, 97
2, 111780, Note_on_c, 0, 96, 0
2, 111780, Note_on_c, 0, 79, 73
2, 111825, Note_on_c, 0, 79, 0
2, 111825, Note_on_c, 0, 80, 103
2, 111870, Note_on_c, 0, 80, 0
2, 111870, Note_on_c, 0, 82, 107
2, 111915, Note_on_c, 0, 82, 0
2, 111915, Note_on_c, 0, 84, 108
2, 111960, Note_on_c, 0, 84, 0
2, 111960, Note_on_c, 0, 86, 108
2, 112005, Note_on_c, 0, 86, 0
2, 112005, Note_on_c, 0, 87, 107
2, 112050, Note_on_c, 0, 87, 0
2, 112050, Note_on_c, 0, 89, 109
2, 112095, Note_on_c, 0, 89, 0
2, 112095, Note_on_c, 0, 91, 107
2, 112140, Note_on_c, 0, 91, 0
2, 112140, Note_on_c, 0, 92, 110
2, 112185, Note_on_c, 0, 92, 0
2, 112185, Note_on_c, 0, 94, 106
2, 112230, Note_on_c, 0, 94, 0
2, 112230, Note_on_c, 0, 96, 107
2, 112275, Note_on_c, 0, 96, 0
2, 112275, Note_on_c, 0, 98, 107
2, 112320, Note_on_c, 0, 98, 0
2, 112320, Note_on_c, 0, 99, 104
2, 112950, Note_on_c, 0, 99, 0
2, 112950, Note_on_c, 0, 96, 94
2, 113040, Note_on_c, 0, 96, 0
2, 113040, Note_on_c, 0, 96, 98
2, 113220, Note_on_c, 0, 96, 0
2, 113220, Note_on_c, 0, 96, 111
2, 113378, Note_on_c, 0, 96, 0
2, 113400, Note_on_c, 0, 98, 120
2, 113558, Note_on_c, 0, 98, 0
2, 113580, Note_on_c, 0, 99, 118
2, 113738, Note_on_c, 0, 99, 0
2, 113760, Note_on_c, 0, 103, 110
2, 114660, Note_on_c, 0, 103, 0
2, 114660, Note_on_c, 0, 96, 96
2, 114818, Note_on_c, 0, 96, 0
2, 114840, Note_on_c, 0, 98, 115
2, 114998, Note_on_c, 0, 98, 0
2, 115020, Note_on_c, 0, 99, 112
2, 115178, Note_on_c, 0, 99, 0
2, 115200, Note_on_c, 0, 103, 109
2, 116100, Note_on_c, 0, 103, 0
2, 116100, Note_on_c, 0, 97, 99
2, 116258, Note_on_c, 0, 97, 0
2, 116280, Note_on_c, 0, 99, 116
2, 116438, Note_on_c, 0, 99, 0
2, 116460, Note_on_c, 0, 100, 118
2, 116618, Note_on_c, 0, 100, 0
2, 116640, Note_on_c, 0, 104, 118
2, 117540, Note_on_c, 0, 104, 0
2, 117540, Note_on_c, 0, 97, 95
2, 117698, Note_on_c, 0, 97, 0
2, 117720, Note_on_c, 0, 99, 115
2, 117878, Note_on_c, 0, 99, 0
2, 117900, Note_on_c, 0, 100, 115
2, 118058, Note_on_c, 0, 100, 0
2, 118080, Note_on_c, 0, 104, 115
2, 118980, Note_on_c, 0, 104, 0
2, 118980, Note_on_c, 0, 101, 105
2, 119138, Note_on_c, 0, 101, 0
2, 119160, Note_on_c, 0, 103, 110
2, 119318, Note_on_c, 0, 103, 0
2, 119340, Note_on_c, 0, 104, 115
2, 119498, Note_on_c, 0, 104, 0
2, 119520, Note_on_c, 0, 108, 111
2, 120240, Note_on_c, 0, 108, 0
2, 120240, Note_on_c, 0, 106, 100
2, 120420, Note_on_c, 0, 106, 0
2, 120420, Note_on_c, 0, 98, 94
2, 120578, Note_on_c, 0, 98, 0
2, 120600, Note_on_c, 0, 99, 112
2, 120758, Note_on_c, 0, 99, 0
2, 120780, Note_on_c, 0, 101, 118
2, 120938, Note_on_c, 0, 101, 0
2, 120960, Note_on_c, 0, 104, 109
2, 121680, Note_on_c, 0, 104, 0
2, 121680, Note_on_c, 0, 103, 98
2, 121860, Note_on_c, 0, 103, 0
2, 121860, Note_on_c, 0, 94, 95
2, 122018, Note_on_c, 0, 94, 0
2, 122040, Note_on_c, 0, 96, 116
2, 122198, Note_on_c, 0, 96, 0
2, 122220, Note_on_c, 0, 98, 125
2, 122378, Note_on_c, 0, 98, 0
2, 122400, Note_on_c, 0, 101, 111
2, 123120, Note_on_c, 0, 101, 0
2, 123120, Note_on_c, 0, 99, 97
2, 123300, Note_on_c, 0, 99, 0
2, 123300, Note_on_c, 0, 91, 92
2, 123458, Note_on_c, 0, 91, 0
2, 123480, Note_on_c, 0, 92, 116
2, 123638, Note_on_c, 0, 92, 0
2, 123660, Note_on_c, 0, 94, 123
2, 123818, Note_on_c, 0, 94, 0
2, 123840, Note_on_c, 0, 98, 111
2, 124560, Note_on_c, 0, 98, 0
2, 124560, Note_on_c, 0, 96, 99
2, 124740, Note_on_c, 0, 96, 0
2, 124740, Note_on_c, 0, 87, 91
2, 124898, Note_on_c, 0, 87, 0
2, 124920, Note_on_c, 0, 89, 113
2, 125078, Note_on_c, 0, 89, 0
2, 125100, Note_on_c, 0, 91, 118
2, 125258, Note_on_c, 0, 91, 0
2, 125280, Note_on_c, 0, 94, 123
2, 125438, Note_on_c, 0, 94, 0
2, 125460, Note_on_c, 0, 92, 107
2, 125618, Note_on_c, 0, 92, 0
2, 125640, Note_on_c, 0, 91, 110
2, 125798, Note_on_c, 0, 91, 0
2, 125820, Note_on_c, 0, 89, 102
2, 125978, Note_on_c, 0, 89, 0
2, 126000, Note_on_c, 0, 87, 101
2, 126090, Note_on_c, 0, 87, 0
2, 126090, Note_on_c, 0, 86, 99
2, 126180, Note_on_c, 0, 86, 0
2, 126180, Note_on_c, 0, 84, 98
2, 126270, Note_on_c, 0, 84, 0
2, 126270, Note_on_c, 0, 80, 96
2, 126360, Note_on_c, 0, 80, 0
2, 126360, Note_on_c, 0, 77, 95
2, 126450, Note_on_c, 0, 77, 0
2, 126450, Note_on_c, 0, 71, 93
2, 126540, Note_on_c, 0, 71, 0
2, 126540, Note_on_c, 0, 72, 91
2, 126630, Note_on_c, 0, 72, 0
2, 126630, Note_on_c, 0, 75, 90
2, 126720, Note_on_c, 0, 75, 0
2, 126720, Note_on_c, 0, 74, 84
2, 129510, Note_on_c, 0, 74, 0
2, 129510, Note_on_c, 0, 72, 79
2, 129600, Note_on_c, 0, 72, 0
2, 129600, Note_on_c, 0, 72, 92
2, 130500, Note_on_c, 0, 72, 0
2, 131040, Note_on_c, 0, 92, 59
2, 131099, Note_on_c, 0, 92, 0
2, 131099, Note_on_c, 0, 94, 71
2, 131160, Note_on_c, 0, 94, 0
2, 131160, Note_on_c, 0, 96, 69
2, 131220, Note_on_c, 0, 96, 0
2, 131220, Note_on_c, 0, 94, 64
2, 131279, Note_on_c, 0, 94, 0
2, 131279, Note_on_c, 0, 92, 61
2, 131340, Note_on_c, 0, 92, 0
2, 131340, Note_on_c, 0, 91, 61
2, 131400, Note_on_c, 0, 91, 0
2, 131400, Note_on_c, 0, 89, 63
2, 131459, Note_on_c, 0, 89, 0
2, 131459, Note_on_c, 0, 91, 71
2, 131520, Note_on_c, 0, 91, 0
2, 131520, Note_on_c, 0, 92, 70
2, 131580, Note_on_c, 0, 92, 0
2, 131580, Note_on_c, 0, 91, 60
2, 131639, Note_on_c, 0, 91, 0
2, 131639, Note_on_c, 0, 89, 61
2, 131700, Note_on_c, 0, 89, 0
2, 131700, Note_on_c, 0, 87, 61
2, 131760, Note_on_c, 0, 87, 0
2, 131760, Note_on_c, 0, 86, 63
2, 131819, Note_on_c, 0, 86, 0
2, 131819, Note_on_c, 0, 87, 64
2, 131880, Note_on_c, 0, 87, 0
2, 131880, Note_on_c, 0, 89, 66
2, 131940, Note_on_c, 0, 89, 0
2, 131940, Note_on_c, 0, 87, 62
2, 131999, Note_on_c, 0, 87, 0
2, 131999, Note_on_c, 0, 86, 61
2, 132060, Note_on_c, 0, 86, 0
2, 132060, Note_on_c, 0, 84, 55
2, 132120, Note_on_c, 0, 84, 0
2, 132120, Note_on_c, 0, 83, 62
2, 132179, Note_on_c, 0, 83, 0
2, 132179, Note_on_c, 0, 80, 63
2, 132240, Note_on_c, 0, 80, 0
2, 132240, Note_on_c, 0, 79, 60
2, 132300, Note_on_c, 0, 79, 0
2, 132300, Note_on_c, 0, 77, 62
2, 132359, Note_on_c, 0, 77, 0
2, 132359, Note_on_c, 0, 75, 64
2, 132420, Note_on_c, 0, 75, 0
2, 132420, Note_on_c, 0, 74, 61
2, 132480, Note_on_c, 0, 74, 0
2, 132480, Note_on_c, 0, 72, 64
2, 132660, Note_on_c, 0, 72, 0
2, 133920, Note_on_c, 0, 94, 59
2, 133979, Note_on_c, 0, 94, 0
2, 133979, Note_on_c, 0, 96, 70
2, 134040, Note_on_c, 0, 96, 0
2, 134040, Note_on_c, 0, 98, 72
2, 134100, Note_on_c, 0, 98, 0
2, 134100, Note_on_c, 0, 96, 62
2, 134159, Note_on_c, 0, 96, 0
2, 134159, Note_on_c, 0, 94, 61
2, 134220, Note_on_c, 0, 94, 0
2, 134220, Note_on_c, 0, 93, 67
2, 134280, Note_on_c, 0, 93, 0
2, 134280, Note_on_c, 0, 91, 58
2, 134339, Note_on_c, 0, 91, 0
2, 134339, Note_on_c, 0, 93, 71
2, 134400, Note_on_c, 0, 93, 0
2, 134400, Note_on_c, 0, 94, 69
2, 134460, Note_on_c, 0, 94, 0
2, 134460, Note_on_c, 0, 93, 68
2, 134519, Note_on_c, 0, 93, 0
2, 134519, Note_on_c, 0, 91, 65
2, 134580, Note_on_c, 0, 91, 0
2, 134580, Note_on_c, 0, 89, 61
2, 134640, Note_on_c, 0, 89, 0
2, 134640, Note_on_c, 0, 88, 64
2, 134699, Note_on_c, 0, 88, 0
2, 134699, Note_on_c, 0, 89, 68
2, 134760, Note_on_c, 0, 89, 0
2, 134760, Note_on_c, 0, 91, 70
2, 134820, Note_on_c, 0, 91, 0
2, 134820, Note_on_c, 0, 89, 65
2, 134879, Note_on_c, 0, 89, 0
2, 134879, Note_on_c, 0, 88, 58
2, 134940, Note_on_c, 0, 88, 0
2, 134940, Note_on_c, 0, 86, 63
2, 135000, Note_on_c, 0, 86, 0
2, 135000, Note_on_c, 0, 85, 60
2, 135059, Note_on_c, 0, 85, 0
2, 135059, Note_on_c, 0, 82, 63
2, 135120, Note_on_c, 0, 82, 0
2, 135120, Note_on_c, 0, 81, 62
2, 135180, Note_on_c, 0, 81, 0
2, 135180, Note_on_c, 0, 79, 63
2, 135239, Note_on_c, 0, 79, 0
2, 135239, Note_on_c, 0, 77, 61
2, 135300, Note_on_c, 0, 77, 0
2, 135300, Note_on_c, 0, 75, 61
2, 135360, Note_on_c, 0, 75, 0
2, 135360, Note_on_c, 0, 74, 61
2, 135540, Note_on_c, 0, 74, 0
2, 139680, Note_on_c, 0, 67, 84
2, 139739, Note_on_c, 0, 67, 0
2, 139739, Note_on_c, 0, 68, 67
2, 139800, Note_on_c, 0, 68, 0
2, 139800, Note_on_c, 0, 70, 71
2, 139860, Note_on_c, 0, 70, 0
2, 139860, Note_on_c, 0, 70, 93
2, 139919, Note_on_c, 0, 70, 0
2, 139919, Note_on_c, 0, 68, 65
2, 139980, Note_on_c, 0, 68, 0
2, 139980, Note_on_c, 0, 67, 70
2, 140040, Note_on_c, 0, 67, 0
2, 140040, Note_on_c, 0, 67, 89
2, 140099, Note_on_c, 0, 67, 0
2, 140099, Note_on_c, 0, 68, 64
2, 140160, Note_on_c, 0, 68, 0
2, 140160, Note_on_c, 0, 70, 66
2, 140220, Note_on_c, 0, 70, 0
2, 140220, Note_on_c, 0, 70, 93
2, 140279, Note_on_c, 0, 70, 0
2, 140279, Note_on_c, 0, 68, 60
2, 140340, Note_on_c, 0, 68, 0
2, 140340, Note_on_c, 0, 67, 64
2, 140400, Note_on_c, 0, 67, 0
2, 140400, Note_on_c, 0, 67, 93
2, 140459, Note_on_c, 0, 67, 0
2, 140459, Note_on_c, 0, 68, 64
2, 140520, Note_on_c, 0, 68, 0
2, 140520, Note_on_c, 0, 70, 67
2, 140580, Note_on_c, 0, 70, 0
2, 140580, Note_on_c, 0, 70, 93
2, 140639, Note_on_c, 0, 70, 0
2, 140639, Note_on_c, 0, 68, 61
2, 140700, Note_on_c, 0, 68, 0
2, 140700, Note_on_c, 0, 67, 71
2, 140760, Note_on_c, 0, 67, 0
2, 140760, Note_on_c, 0, 67, 90
2, 140819, Note_on_c, 0, 67, 0
2, 140819, Note_on_c, 0, 68, 62
2, 140880, Note_on_c, 0, 68, 0
2, 140880, Note_on_c, 0, 70, 65
2, 140940, Note_on_c, 0, 70, 0
2, 140940, Note_on_c, 0, 70, 92
2, 140999, Note_on_c, 0, 70, 0
2, 140999, Note_on_c, 0, 68, 67
2, 141060, Note_on_c, 0, 68, 0
2, 141060, Note_on_c, 0, 67, 67
2, 141120, Note_on_c, 0, 67, 0
2, 141120, Note_on_c, 0, 67, 88
2, 141179, Note_on_c, 0, 67, 0
2, 141179, Note_on_c, 0, 68, 69
2, 141240, Note_on_c, 0, 68, 0
2, 141240, Note_on_c, 0, 70, 68
2, 141300, Note_on_c, 0, 70, 0
2, 141300, Note_on_c, 0, 70, 87
2, 141359, Note_on_c, 0, 70, 0
2, 141359, Note_on_c, 0, 68, 57
2, 141420, Note_on_c, 0, 68, 0
2, 141420, Note_on_c, 0, 67, 65
2, 141480, Note_on_c, 0, 67, 0
2, 141480, Note_on_c, 0, 67, 88
2, 141539, Note_on_c, 0, 67, 0
2, 141539, Note_on_c, 0, 68, 66
2, 141600, Note_on_c, 0, 68, 0
2, 141600, Note_on_c, 0, 70, 67
2, 141660, Note_on_c, 0, 70, 0
2, 141660, Note_on_c, 0, 70, 90
2, 141719, Note_on_c, 0, 70, 0
2, 141719, Note_on_c, 0, 68, 71
2, 141780, Note_on_c, 0, 68, 0
2, 141780, Note_on_c, 0, 67, 62
2, 141840, Note_on_c, 0, 67, 0
2, 141840, Note_on_c, 0, 67, 89
2, 141899, Note_on_c, 0, 67, 0
2, 141899, Note_on_c, 0, 68, 67
2, 141960, Note_on_c, 0, 68, 0
2, 141960, Note_on_c, 0, 70, 70
2, 142020, Note_on_c, 0, 70, 0
2, 142020, Note_on_c, 0, 70, 91
2, 142079, Note_on_c, 0, 70, 0
2, 142079, Note_on_c, 0, 68, 65
2, 142140, Note_on_c, 0, 68, 0
2, 142140, Note_on_c, 0, 67, 63
2, 142200, Note_on_c, 0, 67, 0
2, 142200, Note_on_c, 0, 67, 91
2, 142259, Note_on_c, 0, 67, 0
2, 142259, Note_on_c, 0, 68, 67
2, 142320, Note_on_c, 0, 68, 0
2, 142320, Note_on_c, 0, 70, 67
2, 142380, Note_on_c, 0, 70, 0
2, 142380, Note_on_c, 0, 70, 90
2, 142439, Note_on_c, 0, 70, 0
2, 142439, Note_on_c, 0, 68, 62
2, 142500, Note_on_c, 0, 68, 0
2, 142500, Note_on_c, 0, 67, 58
2, 142560, Note_on_c, 0, 67, 0
2, 142560, Note_on_c, 0, 67, 63
2, 142740, Note_on_c, 0, 67, 0
2, 160740, Note_on_c, 0, 72, 58
2, 160920, Note_on_c, 0, 72, 0
2, 160920, Note_on_c, 0, 74, 69
2, 161100, Note_on_c, 0, 74, 0
2, 161100, Note_on_c, 0, 76, 71
2, 161280, Note_on_c, 0, 76, 0
2, 161280, Note_on_c, 0, 80, 72
2, 161640, Note_on_c, 0, 80, 0
2, 161640, Note_on_c, 0, 79, 64
2, 162000, Note_on_c, 0, 79, 0
2, 162000, Note_on_c, 0, 70, 57
2, 162180, Note_on_c, 0, 70, 0
2, 162180, Note_on_c, 0, 72, 71
2, 162360, Note_on_c, 0, 72, 0
2, 162360, Note_on_c, 0, 74, 69
2, 162540, Note_on_c, 0, 74, 0
2, 162540, Note_on_c, 0, 76, 73
2, 162720, Note_on_c, 0, 76, 0
2, 162720, Note_on_c, 0, 80, 72
2, 163080, Note_on_c, 0, 80, 0
2, 163080, Note_on_c, 0, 79, 65
2, 163440, Note_on_c, 0, 79, 0
2, 163440, Note_on_c, 0, 72, 59
2, 163800, Note_on_c, 0, 72, 0
2, 163800, Note_on_c, 0, 77, 74
2, 163980, Note_on_c, 0, 77, 0
2, 163980, Note_on_c, 0, 79, 68
2, 164160, Note_on_c, 0, 79, 0
2, 164160, Note_on_c, 0, 84, 76
2, 164520, Note_on_c, 0, 84, 0
2, 164520, Note_on_c, 0, 82, 65
2, 164880, Note_on_c, 0, 82, 0
2, 164880, Note_on_c, 0, 75, 53
2, 165060, Note_on_c, 0, 75, 0
2, 165060, Note_on_c, 0, 75, 61
2, 165240, Note_on_c, 0, 75, 0
2, 165240, Note_on_c, 0, 77, 69
2, 165420, Note_on_c, 0, 77, 0
2, 165420, Note_on_c, 0, 79, 65
2, 165600, Note_on_c, 0, 79, 0
2, 165600, Note_on_c, 0, 84, 75
2, 165960, Note_on_c, 0, 84, 0
2, 165960, Note_on_c, 0, 82, 63
2, 166320, Note_on_c, 0, 82, 0
2, 166320, Note_on_c, 0, 75, 56
2, 166500, Note_on_c, 0, 75, 0
2, 166500, Note_on_c, 0, 80, 74
2, 166680, Note_on_c, 0, 80, 0
2, 166680, Note_on_c, 0, 81, 71
2, 166860, Note_on_c, 0, 81, 0
2, 166860, Note_on_c, 0, 83, 65
2, 167040, Note_on_c, 0, 83, 0
2, 167040, Note_on_c, 0, 88, 76
2, 167400, Note_on_c, 0, 88, 0
2, 167400, Note_on_c, 0, 86, 62
2, 167760, Note_on_c, 0, 86, 0
2, 167760, Note_on_c, 0, 79, 52
2, 167940, Note_on_c, 0, 79, 0
2, 167940, Note_on_c, 0, 79, 61
2, 168120, Note_on_c, 0, 79, 0
2, 168120, Note_on_c, 0, 81, 68
2, 168300, Note_on_c, 0, 81, 0
2, 168300, Note_on_c, 0, 83, 73
2, 168480, Note_on_c, 0, 83, 0
2, 168480, Note_on_c, 0, 88, 73
2, 168840, Note_on_c, 0, 88, 0
2, 168840, Note_on_c, 0, 86, 65
2, 169200, Note_on_c, 0, 86, 0
2, 169200, Note_on_c, 0, 79, 57
2, 169380, Note_on_c, 0, 79, 0
2, 169380, Note_on_c, 0, 79, 65
2, 169560, Note_on_c, 0, 79, 0
2, 169560, Note_on_c, 0, 81, 68
2, 169740, Note_on_c, 0, 81, 0
2, 169740, Note_on_c, 0, 83, 69
2, 169920, Note_on_c, 0, 83, 0
2, 169920, Note_on_c, 0, 88, 73
2, 170640, Note_on_c, 0, 88, 0
2, 170640, Note_on_c, 0, 88, 68
2, 170820, Note_on_c, 0, 88, 0
2, 193860, Note_on_c, 0, 79, 57
2, 194040, Note_on_c, 0, 79, 0
2, 194040, Note_on_c, 0, 81, 71
2, 194220, Note_on_c, 0, 81, 0
2, 194220, Note_on_c, 0, 83, 72
2, 194400, Note_on_c, 0, 83, 0
2, 194400, Note_on_c, 0, 87, 77
2, 194760, Note_on_c, 0, 87, 0
2, 194760, Note_on_c, 0, 86, 61
2, 195120, Note_on_c, 0, 86, 0
2, 195120, Note_on_c, 0, 77, 51
2, 195300, Note_on_c, 0, 77, 0
2, 195300, Note_on_c, 0, 79, 64
2, 195480, Note_on_c, 0, 79, 0
2, 195480, Note_on_c, 0, 81, 68
2, 195660, Note_on_c, 0, 81, 0
2, 195660, Note_on_c, 0, 83, 71
2, 195840, Note_on_c, 0, 83, 0
2, 195840, Note_on_c, 0, 87, 78
2, 196200, Note_on_c, 0, 87, 0
2, 196200, Note_on_c, 0, 86, 67
2, 196560, Note_on_c, 0, 86, 0
2, 196560, Note_on_c, 0, 79, 53
2, 196920, Note_on_c, 0, 79, 0
2, 196920, Note_on_c, 0, 84, 71
2, 197100, Note_on_c, 0, 84, 0
2, 197100, Note_on_c, 0, 86, 71
2, 197280, Note_on_c, 0, 86, 0
2, 197280, Note_on_c, 0, 91, 73
2, 197640, Note_on_c, 0, 91, 0
2, 197640, Note_on_c, 0, 89, 63
2, 198000, Note_on_c, 0, 89, 0
2, 198000, Note_on_c, 0, 82, 56
2, 198180, Note_on_c, 0, 82, 0
2, 198180, Note_on_c, 0, 82, 67
2, 198360, Note_on_c, 0, 82, 0
2, 198360, Note_on_c, 0, 84, 66
2, 198540, Note_on_c, 0, 84, 0
2, 198540, Note_on_c, 0, 86, 75
2, 198720, Note_on_c, 0, 86, 0
2, 198720, Note_on_c, 0, 91, 69
2, 199080, Note_on_c, 0, 91, 0
2, 199080, Note_on_c, 0, 89, 60
2, 199440, Note_on_c, 0, 89, 0
2, 199440, Note_on_c, 0, 82, 55
2, 199620, Note_on_c, 0, 82, 0
2, 199620, Note_on_c, 0, 87, 71
2, 199800, Note_on_c, 0, 87, 0
2, 199800, Note_on_c, 0, 90, 73
2, 199980, Note_on_c, 0, 90, 0
2, 199980, Note_on_c, 0, 94, 73
2, 200160, Note_on_c, 0, 94, 0
2, 200160, Note_on_c, 0, 97, 71
2, 200520, Note_on_c, 0, 97, 0
2, 200520, Note_on_c, 0, 96, 59
2, 200880, Note_on_c, 0, 96, 0
2, 200880, Note_on_c, 0, 89, 61
2, 201060, Note_on_c, 0, 89, 0
2, 201060, Note_on_c, 0, 89, 68
2, 201240, Note_on_c, 0, 89, 0
2, 201240, Note_on_c, 0, 91, 70
2, 201420, Note_on_c, 0, 91, 0
2, 201420, Note_on_c, 0, 93, 72
2, 201600, Note_on_c, 0, 93, 0
2, 201600, Note_on_c, 0, 97, 75
2, 201960, Note_on_c, 0, 97, 0
2, 201960, Note_on_c, 0, 96, 56
2, 202320, Note_on_c, 0, 96, 0
2, 202320, Note_on_c, 0, 89, 52
2, 202500, Note_on_c, 0, 89, 0
2, 202500, Note_on_c, 0, 89, 63
2, 202680, Note_on_c, 0, 89, 0
2, 202680, Note_on_c, 0, 91, 65
2, 202860, Note_on_c, 0, 91, 0
2, 202860, Note_on_c, 0, 93, 71
2, 203040, Note_on_c, 0, 93, 0
2, 203040, Note_on_c, 0, 97, 74
2, 203940, Note_on_c, 0, 97, 0
2, 208260, Note_on_c, 0, 87, 57
2, 208440, Note_on_c, 0, 87, 0
2, 208440, Note_on_c, 0, 89, 65
2, 208620, Note_on_c, 0, 89, 0
2, 208620, Note_on_c, 0, 90, 72
2, 208800, Note_on_c, 0, 90, 0
2, 208800, Note_on_c, 0, 94, 66
2, 208980, Note_on_c, 0, 94, 0
2, 208980, Note_on_c, 0, 84, 55
2, 209160, Note_on_c, 0, 84, 0
2, 209160, Note_on_c, 0, 86, 65
2, 209340, Note_on_c, 0, 86, 0
2, 209340, Note_on_c, 0, 87, 66
2, 209520, Note_on_c, 0, 87, 0
2, 209520, Note_on_c, 0, 90, 74
2, 209700, Note_on_c, 0, 90, 0
2, 209700, Note_on_c, 0, 75, 49
2, 209880, Note_on_c, 0, 75, 0
2, 209880, Note_on_c, 0, 77, 67
2, 210060, Note_on_c, 0, 77, 0
2, 210060, Note_on_c, 0, 78, 71
2, 210240, Note_on_c, 0, 78, 0
2, 210240, Note_on_c, 0, 82, 72
2, 210600, Note_on_c, 0, 82, 0
2, 210600, Note_on_c, 0, 81, 63
2, 210870, Note_on_c, 0, 81, 0
2, 210870, Note_on_c, 0, 82, 67
2, 210960, Note_on_c, 0, 82, 0
2, 210960, Note_on_c, 0, 84, 72
2, 211140, Note_on_c, 0, 84, 0
2, 211140, Note_on_c, 0, 94, 94
2, 211298, Note_on_c, 0, 94, 0
2, 211320, Note_on_c, 0, 96, 83
2, 211478, Note_on_c, 0, 96, 0
2, 211500, Note_on_c, 0, 97, 84
2, 211658, Note_on_c, 0, 97, 0
2, 211680, Note_on_c, 0, 101, 86
2, 211838, Note_on_c, 0, 101, 0
2, 211860, Note_on_c, 0, 91, 53
2, 212040, Note_on_c, 0, 91, 0
2, 212040, Note_on_c, 0, 93, 66
2, 212220, Note_on_c, 0, 93, 0
2, 212220, Note_on_c, 0, 94, 72
2, 212400, Note_on_c, 0, 94, 0
2, 212400, Note_on_c, 0, 97, 72
2, 212580, Note_on_c, 0, 97, 0
2, 212580, Note_on_c, 0, 82, 51
2, 212760, Note_on_c, 0, 82, 0
2, 212760, Note_on_c, 0, 84, 69
2, 212940, Note_on_c, 0, 84, 0
2, 212940, Note_on_c, 0, 85, 66
2, 213120, Note_on_c, 0, 85, 0
2, 213120, Note_on_c, 0, 89, 69
2, 213480, Note_on_c, 0, 89, 0
2, 213480, Note_on_c, 0, 88, 64
2, 213750, Note_on_c, 0, 88, 0
2, 213750, Note_on_c, 0, 89, 67
2, 213840, Note_on_c, 0, 89, 0
2, 213840, Note_on_c, 0, 91, 68
2, 214020, Note_on_c, 0, 91, 0
2, 214020, Note_on_c, 0, 96, 65
2, 214200, Note_on_c, 0, 96, 0
2, 214200, Note_on_c, 0, 98, 71
2, 214358, Note_on_c, 0, 98, 0
2, 214380, Note_on_c, 0, 100, 76
2, 214538, Note_on_c, 0, 100, 0
2, 214560, Note_on_c, 0, 104, 113
2, 215460, Note_on_c, 0, 104, 0
2, 216000, Note_on_c, 0, 91, 58
2, 216270, Note_on_c, 0, 91, 0
2, 216270, Note_on_c, 0, 92, 66
2, 216360, Note_on_c, 0, 92, 0
2, 216360, Note_on_c, 0, 94, 67
2, 216540, Note_on_c, 0, 94, 0
2, 216540, Note_on_c, 0, 92, 66
2, 216630, Note_on_c, 0, 92, 0
2, 216630, Note_on_c, 0, 91, 64
2, 216720, Note_on_c, 0, 91, 0
2, 216720, Note_on_c, 0, 96, 71
2, 217620, Note_on_c, 0, 96, 0
2, 218880, Note_on_c, 0, 93, 57
2, 219150, Note_on_c, 0, 93, 0
2, 219150, Note_on_c, 0, 94, 67
2, 219240, Note_on_c, 0, 94, 0
2, 219240, Note_on_c, 0, 96, 68
2, 219420, Note_on_c, 0, 96, 0
2, 219420, Note_on_c, 0, 94, 66
2, 219510, Note_on_c, 0, 94, 0
2, 219510, Note_on_c, 0, 93, 62
2, 219600, Note_on_c, 0, 93, 0
2, 219600, Note_on_c, 0, 98, 74
2, 220500, Note_on_c, 0, 98, 0
2, 222210, Note_on_c, 0, 75, 110
2, 222289, Note_on_c, 0, 75, 0
2, 222300, Note_on_c, 0, 77, 118
2, 222379, Note_on_c, 0, 77, 0
2, 222390, Note_on_c, 0, 78, 120
2, 222469, Note_on_c, 0, 78, 0
2, 222480, Note_on_c, 0, 82, 125
2, 223380, Note_on_c, 0, 82, 0
2, 224820, Note_on_c, 0, 89, 102
2, 224978, Note_on_c, 0, 89, 0
2, 225000, Note_on_c, 0, 91, 121
2, 225158, Note_on_c, 0, 91, 0
2, 225180, Note_on_c, 0, 94, 124
2, 225338, Note_on_c, 0, 94, 0
2, 225360, Note_on_c, 0, 96, 112
2, 226260, Note_on_c, 0, 96, 0
2, 227700, Note_on_c, 0, 84, 96
2, 227880, Note_on_c, 0, 84, 0
2, 227880, Note_on_c, 0, 86, 108
2, 228060, Note_on_c, 0, 86, 0
2, 228060, Note_on_c, 0, 89, 112
2, 228240, Note_on_c, 0, 89, 0
2, 228240, Note_on_c, 0, 91, 112
2, 228420, Note_on_c, 0, 91, 0
2, 228420, Note_on_c, 0, 91, 104
2, 228600, Note_on_c, 0, 91, 0
2, 228600, Note_on_c, 0, 93, 107
2, 228780, Note_on_c, 0, 93, 0
2, 228780, Note_on_c, 0, 95, 110
2, 228960, Note_on_c, 0, 95, 0
2, 228960, Note_on_c, 0, 99, 109
2, 229140, Note_on_c, 0, 99, 0
2, 229140, Note_on_c, 0, 96, 98
2, 229320, Note_on_c, 0, 96, 0
2, 229320, Note_on_c, 0, 98, 107
2, 229500, Note_on_c, 0, 98, 0
2, 229500, Note_on_c, 0, 99, 106
2, 229680, Note_on_c, 0, 99, 0
2, 229680, Note_on_c, 0, 103, 102
2, 230580, Note_on_c, 0, 103, 0
2, 230580, Note_on_c, 0, 96, 111
2, 230760, Note_on_c, 0, 96, 0
2, 230760, Note_on_c, 0, 98, 113
2, 230940, Note_on_c, 0, 98, 0
2, 230940, Note_on_c, 0, 99, 114
2, 231120, Note_on_c, 0, 99, 0
2, 231120, Note_on_c, 0, 103, 127
2, 233460, Note_on_c, 0, 103, 0
2, 247140, Note_on_c, 0, 72, 79
2, 247320, Note_on_c, 0, 72, 0
2, 247320, Note_on_c, 0, 74, 95
2, 247500, Note_on_c, 0, 74, 0
2, 247500, Note_on_c, 0, 75, 91
2, 247680, Note_on_c, 0, 75, 0
2, 247680, Note_on_c, 0, 79, 103
2, 248580, Note_on_c, 0, 79, 0
2, 248580, Note_on_c, 0, 72, 73
2, 248760, Note_on_c, 0, 72, 0
2, 248760, Note_on_c, 0, 74, 92
2, 248940, Note_on_c, 0, 74, 0
2, 248940, Note_on_c, 0, 75, 89
2, 249120, Note_on_c, 0, 75, 0
2, 249120, Note_on_c, 0, 79, 93
2, 250020, Note_on_c, 0, 79, 0
2, 250020, Note_on_c, 0, 87, 104
2, 250200, Note_on_c, 0, 87, 0
2, 250200, Note_on_c, 0, 86, 88
2, 250380, Note_on_c, 0, 86, 0
2, 250380, Note_on_c, 0, 82, 78
2, 250560, Note_on_c, 0, 82, 0
2, 250560, Note_on_c, 0, 79, 80
2, 250740, Note_on_c, 0, 79, 0
2, 250740, Note_on_c, 0, 84, 97
2, 250920, Note_on_c, 0, 84, 0
2, 250920, Note_on_c, 0, 82, 86
2, 251100, Note_on_c, 0, 82, 0
2, 251100, Note_on_c, 0, 79, 83
2, 251280, Note_on_c, 0, 79, 0
2, 251280, Note_on_c, 0, 75, 78
2, 251460, Note_on_c, 0, 75, 0
2, 251460, Note_on_c, 0, 81, 99
2, 251640, Note_on_c, 0, 81, 0
2, 251640, Note_on_c, 0, 79, 85
2, 251820, Note_on_c, 0, 79, 0
2, 251820, Note_on_c, 0, 74, 76
2, 252000, Note_on_c, 0, 74, 0
2, 252000, Note_on_c, 0, 76, 88
2, 252360, Note_on_c, 0, 76, 0
2, 252360, Note_on_c, 0, 78, 97
2, 252540, Note_on_c, 0, 78, 0
2, 253620, Note_on_c, 0, 73, 109
2, 253980, Note_on_c, 0, 73, 0
2, 253980, Note_on_c, 0, 74, 88
2, 254160, Note_on_c, 0, 74, 0
2, 254250, Note_on_c, 0, 69, 80
2, 254340, Note_on_c, 0, 69, 0
2, 254340, Note_on_c, 0, 70, 81
2, 254430, Note_on_c, 0, 70, 0
2, 254430, Note_on_c, 0, 72, 90
2, 254520, Note_on_c, 0, 72, 0
2, 254520, Note_on_c, 0, 74, 95
2, 254610, Note_on_c, 0, 74, 0
2, 254610, Note_on_c, 0, 76, 94
2, 254700, Note_on_c, 0, 76, 0
2, 254700, Note_on_c, 0, 78, 94
2, 254790, Note_on_c, 0, 78, 0
2, 254790, Note_on_c, 0, 79, 95
2, 254880, Note_on_c, 0, 79, 0
2, 254880, Note_on_c, 0, 82, 98
2, 255150, Note_on_c, 0, 82, 0
2, 255150, Note_on_c, 0, 81, 80
2, 255240, Note_on_c, 0, 81, 0
2, 255240, Note_on_c, 0, 79, 83
2, 255420, Note_on_c, 0, 79, 0
2, 255690, Note_on_c, 0, 79, 80
2, 255770, Note_on_c, 0, 79, 0
2, 255780, Note_on_c, 0, 86, 103
2, 255870, Note_on_c, 0, 86, 0
2, 255870, Note_on_c, 0, 84, 86
2, 255960, Note_on_c, 0, 84, 0
2, 255960, Note_on_c, 0, 79, 77
2, 256410, Note_on_c, 0, 79, 0
2, 256410, Note_on_c, 0, 86, 105
2, 256500, Note_on_c, 0, 86, 0
2, 256500, Note_on_c, 0, 91, 104
2, 256590, Note_on_c, 0, 91, 0
2, 256590, Note_on_c, 0, 89, 91
2, 256680, Note_on_c, 0, 89, 0
2, 256680, Note_on_c, 0, 84, 74
2, 257130, Note_on_c, 0, 84, 0
2, 257130, Note_on_c, 0, 87, 99
2, 257220, Note_on_c, 0, 87, 0
2, 257220, Note_on_c, 0, 93, 100
2, 257310, Note_on_c, 0, 93, 0
2, 257310, Note_on_c, 0, 91, 85
2, 257400, Note_on_c, 0, 91, 0
2, 257400, Note_on_c, 0, 86, 73
2, 257580, Note_on_c, 0, 86, 0
2, 257580, Note_on_c, 0, 85, 82
2, 257760, Note_on_c, 0, 85, 0
2, 257760, Note_on_c, 0, 86, 93
2, 257850, Note_on_c, 0, 86, 0
2, 257850, Note_on_c, 0, 88, 99
2, 257940, Note_on_c, 0, 88, 0
2, 257940, Note_on_c, 0, 90, 94
2, 258030, Note_on_c, 0, 90, 0
2, 258030, Note_on_c, 0, 91, 94
2, 258120, Note_on_c, 0, 91, 0
2, 258120, Note_on_c, 0, 94, 127
2, 258390, Note_on_c, 0, 94, 0
2, 258390, Note_on_c, 0, 93, 86
2, 258480, Note_on_c, 0, 93, 0
2, 258480, Note_on_c, 0, 87, 78
2, 258570, Note_on_c, 0, 87, 0
2, 258570, Note_on_c, 0, 87, 91
2, 258660, Note_on_c, 0, 87, 0
2, 258660, Note_on_c, 0, 90, 99
2, 258750, Note_on_c, 0, 90, 0
2, 258750, Note_on_c, 0, 91, 101
2, 258840, Note_on_c, 0, 91, 0
2, 258840, Note_on_c, 0, 94, 115
2, 259110, Note_on_c, 0, 94, 0
2, 259110, Note_on_c, 0, 93, 90
2, 259200, Note_on_c, 0, 93, 0
2, 259200, Note_on_c, 0, 87, 75
2, 259290, Note_on_c, 0, 87, 0
2, 259290, Note_on_c, 0, 91, 99
2, 259380, Note_on_c, 0, 91, 0
2, 259380, Note_on_c, 0, 94, 97
2, 259470, Note_on_c, 0, 94, 0
2, 259470, Note_on_c, 0, 93, 82
2, 259560, Note_on_c, 0, 93, 0
2, 259560, Note_on_c, 0, 87, 71
2, 259650, Note_on_c, 0, 87, 0
2, 259650, Note_on_c, 0, 91, 100
2, 259740, Note_on_c, 0, 91, 0
2, 259740, Note_on_c, 0, 94, 95
2, 259830, Note_on_c, 0, 94, 0
2, 259830, Note_on_c, 0, 93, 84
2, 259920, Note_on_c, 0, 93, 0
2, 259920, Note_on_c, 0, 86, 71
2, 260010, Note_on_c, 0, 86, 0
2, 260010, Note_on_c, 0, 89, 95
2, 260100, Note_on_c, 0, 89, 0
2, 260100, Note_on_c, 0, 92, 92
2, 260190, Note_on_c, 0, 92, 0
2, 260190, Note_on_c, 0, 91, 85
2, 260280, Note_on_c, 0, 91, 0
2, 260280, Note_on_c, 0, 86, 75
2, 260370, Note_on_c, 0, 86, 0
2, 260370, Note_on_c, 0, 89, 95
2, 260460, Note_on_c, 0, 89, 0
2, 260460, Note_on_c, 0, 92, 94
2, 260550, Note_on_c, 0, 92, 0
2, 260550, Note_on_c, 0, 91, 83
2, 260640, Note_on_c, 0, 91, 0
2, 260640, Note_on_c, 0, 91, 84
2, 260820, Note_on_c, 0, 91, 0
2, 260820, Note_on_c, 0, 87, 78
2, 260910, Note_on_c, 0, 87, 0
2, 260910, Note_on_c, 0, 86, 78
2, 261000, Note_on_c, 0, 86, 0
2, 261000, Note_on_c, 0, 84, 84
2, 261090, Note_on_c, 0, 84, 0
2, 261090, Note_on_c, 0, 82, 87
2, 261180, Note_on_c, 0, 82, 0
2, 261180, Note_on_c, 0, 81, 79
2, 261270, Note_on_c, 0, 81, 0
2, 261270, Note_on_c, 0, 79, 84
2, 261360, Note_on_c, 0, 79, 0
2, 261360, Note_on_c, 0, 82, 93
2, 261540, Note_on_c, 0, 82, 0
2, 261540, Note_on_c, 0, 81, 84
2, 261630, Note_on_c, 0, 81, 0
2, 261630, Note_on_c, 0, 79, 82
2, 261720, Note_on_c, 0, 79, 0
2, 261720, Note_on_c, 0, 77, 85
2, 261810, Note_on_c, 0, 77, 0
2, 261810, Note_on_c, 0, 75, 87
2, 261900, Note_on_c, 0, 75, 0
2, 261900, Note_on_c, 0, 74, 84
2, 261990, Note_on_c, 0, 74, 0
2, 261990, Note_on_c, 0, 73, 79
2, 262080, Note_on_c, 0, 73, 0
2, 262080, Note_on_c, 0, 79, 88
2, 262440, Note_on_c, 0, 79, 0
2, 262440, Note_on_c, 0, 73, 85
2, 262710, Note_on_c, 0, 73, 0
2, 262710, Note_on_c, 0, 73, 83
2, 262800, Note_on_c, 0, 73, 0
2, 262800, Note_on_c, 0, 75, 82
2, 263340, Note_on_c, 0, 75, 0
2, 263340, Note_on_c, 0, 74, 77
2, 263520, Note_on_c, 0, 74, 0
2, 263520, Note_on_c, 0, 79, 76
2, 263610, Note_on_c, 0, 79, 0
2, 263610, Note_on_c, 0, 74, 64
2, 263700, Note_on_c, 0, 74, 0
2, 263700, Note_on_c, 0, 74, 71
2, 263790, Note_on_c, 0, 74, 0
2, 263790, Note_on_c, 0, 74, 79
2, 263880, Note_on_c, 0, 74, 0
2, 263880, Note_on_c, 0, 74, 75
2, 263952, Note_on_c, 0, 74, 0
2, 263970, Note_on_c, 0, 74, 68
2, 264042, Note_on_c, 0, 74, 0
2, 264060, Note_on_c, 0, 74, 75
2, 264132, Note_on_c, 0, 74, 0
2, 264150, Note_on_c, 0, 74, 66
2, 264222, Note_on_c, 0, 74, 0
2, 264240, Note_on_c, 0, 74, 77
2, 264312, Note_on_c, 0, 74, 0
2, 264330, Note_on_c, 0, 74, 70
2, 264402, Note_on_c, 0, 74, 0
2, 264420, Note_on_c, 0, 74, 76
2, 264492, Note_on_c, 0, 74, 0
2, 264510, Note_on_c, 0, 74, 77
2, 264582, Note_on_c, 0, 74, 0
2, 264600, Note_on_c, 0, 74, 80
2, 264672, Note_on_c, 0, 74, 0
2, 264690, Note_on_c, 0, 74, 75
2, 264762, Note_on_c, 0, 74, 0
2, 264780, Note_on_c, 0, 74, 78
2, 264852, Note_on_c, 0, 74, 0
2, 264870, Note_on_c, 0, 74, 77
2, 264942, Note_on_c, 0, 74, 0
2, 264960, Note_on_c, 0, 74, 73
2, 265032, Note_on_c, 0, 74, 0
2, 265050, Note_on_c, 0, 74, 70
2, 265122, Note_on_c, 0, 74, 0
2, 265140, Note_on_c, 0, 74, 71
2, 265212, Note_on_c, 0, 74, 0
2, 265230, Note_on_c, 0, 74, 73
2, 265302, Note_on_c, 0, 74, 0
2, 265320, Note_on_c, 0, 74, 74
2, 265392, Note_on_c, 0, 74, 0
2, 265410, Note_on_c, 0, 74, 72
2, 265482, Note_on_c, 0, 74, 0
2, 265500, Note_on_c, 0, 74, 69
2, 265572, Note_on_c, 0, 74, 0
2, 265590, Note_on_c, 0, 74, 68
2, 265662, Note_on_c, 0, 74, 0
2, 265680, Note_on_c, 0, 74, 73
2, 265752, Note_on_c, 0, 74, 0
2, 265770, Note_on_c, 0, 74, 70
2, 265842, Note_on_c, 0, 74, 0
2, 265860, Note_on_c, 0, 74, 73
2, 265932, Note_on_c, 0, 74, 0
2, 265950, Note_on_c, 0, 74, 69
2, 266022, Note_on_c, 0, 74, 0
2, 266040, Note_on_c, 0, 74, 79
2, 266112, Note_on_c, 0, 74, 0
2, 266130, Note_on_c, 0, 74, 68
2, 266202, Note_on_c, 0, 74, 0
2, 266220, Note_on_c, 0, 74, 75
2, 266292, Note_on_c, 0, 74, 0
2, 266310, Note_on_c, 0, 74, 72
2, 266382, Note_on_c, 0, 74, 0
2, 266400, Note_on_c, 0, 74, 81
2, 266472, Note_on_c, 0, 74, 0
2, 266490, Note_on_c, 0, 74, 74
2, 266562, Note_on_c, 0, 74, 0
2, 266580, Note_on_c, 0, 74, 77
2, 266652, Note_on_c, 0, 74, 0
2, 266670, Note_on_c, 0, 74, 77
2, 266742, Note_on_c, 0, 74, 0
2, 266760, Note_on_c, 0, 74, 78
2, 266832, Note_on_c, 0, 74, 0
2, 266850, Note_on_c, 0, 74, 76
2, 266922, Note_on_c, 0, 74, 0
2, 266940, Note_on_c, 0, 74, 76
2, 267012, Note_on_c, 0, 74, 0
2, 267030, Note_on_c, 0, 74, 73
2, 267102, Note_on_c, 0, 74, 0
2, 267120, Note_on_c, 0, 74, 77
2, 267192, Note_on_c, 0, 74, 0
2, 267210, Note_on_c, 0, 74, 73
2, 267282, Note_on_c, 0, 74, 0
2, 267300, Note_on_c, 0, 74, 76
2, 267372, Note_on_c, 0, 74, 0
2, 267390, Note_on_c, 0, 74, 72
2, 267462, Note_on_c, 0, 74, 0
2, 267480, Note_on_c, 0, 74, 76
2, 267552, Note_on_c, 0, 74, 0
2, 267570, Note_on_c, 0, 74, 74
2, 267642, Note_on_c, 0, 74, 0
2, 267660, Note_on_c, 0, 74, 82
2, 267732, Note_on_c, 0, 74, 0
2, 267750, Note_on_c, 0, 74, 79
2, 267822, Note_on_c, 0, 74, 0
2, 267840, Note_on_c, 0, 74, 79
2, 267912, Note_on_c, 0, 74, 0
2, 267930, Note_on_c, 0, 74, 79
2, 268002, Note_on_c, 0, 74, 0
2, 268020, Note_on_c, 0, 74, 81
2, 268092, Note_on_c, 0, 74, 0
2, 268110, Note_on_c, 0, 74, 74
2, 268182, Note_on_c, 0, 74, 0
2, 268200, Note_on_c, 0, 74, 74
2, 268272, Note_on_c, 0, 74, 0
2, 268290, Note_on_c, 0, 74, 74
2, 268362, Note_on_c, 0, 74, 0
2, 268380, Note_on_c, 0, 74, 80
2, 268452, Note_on_c, 0, 74, 0
2, 268470, Note_on_c, 0, 74, 78
2, 268542, Note_on_c, 0, 74, 0
2, 268560, Note_on_c, 0, 74, 77
2, 268632, Note_on_c, 0, 74, 0
2, 268650, Note_on_c, 0, 74, 80
2, 268722, Note_on_c, 0, 74, 0
2, 268740, Note_on_c, 0, 74, 73
2, 268812, Note_on_c, 0, 74, 0
2, 268830, Note_on_c, 0, 74, 80
2, 268902, Note_on_c, 0, 74, 0
2, 268920, Note_on_c, 0, 74, 82
2, 268992, Note_on_c, 0, 74, 0
2, 269010, Note_on_c, 0, 74, 74
2, 269082, Note_on_c, 0, 74, 0
2, 269100, Note_on_c, 0, 74, 79
2, 269172, Note_on_c, 0, 74, 0
2, 269190, Note_on_c, 0, 74, 80
2, 269262, Note_on_c, 0, 74, 0
2, 269280, Note_on_c, 0, 74, 75
2, 269352, Note_on_c, 0, 74, 0
2, 269370, Note_on_c, 0, 74, 69
2, 269442, Note_on_c, 0, 74, 0
2, 269460, Note_on_c, 0, 74, 78
2, 269532, Note_on_c, 0, 74, 0
2, 269550, Note_on_c, 0, 74, 66
2, 269622, Note_on_c, 0, 74, 0
2, 269640, Note_on_c, 0, 74, 76
2, 269712, Note_on_c, 0, 74, 0
2, 269730, Note_on_c, 0, 74, 71
2, 269802, Note_on_c, 0, 74, 0
2, 269820, Note_on_c, 0, 74, 76
2, 269892, Note_on_c, 0, 74, 0
2, 269910, Note_on_c, 0, 74, 71
2, 269982, Note_on_c, 0, 74, 0
2, 270000, Note_on_c, 0, 74, 77
2, 270072, Note_on_c, 0, 74, 0
2, 270090, Note_on_c, 0, 74, 72
2, 270162, Note_on_c, 0, 74, 0
2, 270180, Note_on_c, 0, 74, 77
2, 270252, Note_on_c, 0, 74, 0
2, 270270, Note_on_c, 0, 74, 72
2, 270342, Note_on_c, 0, 74, 0
2, 270360, Note_on_c, 0, 74, 71
2, 270432, Note_on_c, 0, 74, 0
2, 270450, Note_on_c, 0, 74, 76
2, 270522, Note_on_c, 0, 74, 0
2, 270540, Note_on_c, 0, 74, 75
2, 270612, Note_on_c, 0, 74, 0
2, 270630, Note_on_c, 0, 74, 71
2, 270702, Note_on_c, 0, 74, 0
2, 270720, Note_on_c, 0, 69, 73
2, 270792, Note_on_c, 0, 69, 0
2, 270810, Note_on_c, 0, 69, 71
2, 270882, Note_on_c, 0, 69, 0
2, 270900, Note_on_c, 0, 69, 76
2, 270972, Note_on_c, 0, 69, 0
2, 270990, Note_on_c, 0, 69, 71
2, 271062, Note_on_c, 0, 69, 0
2, 271080, Note_on_c, 0, 69, 73
2, 271152, Note_on_c, 0, 69, 0
2, 271170, Note_on_c, 0, 69, 71
2, 271242, Note_on_c, 0, 69, 0
2, 271260, Note_on_c, 0, 69, 76
2, 271332, Note_on_c, 0, 69, 0
2, 271350, Note_on_c, 0, 69, 72
2, 271422, Note_on_c, 0, 69, 0
2, 271440, Note_on_c, 0, 69, 73
2, 271512, Note_on_c, 0, 69, 0
2, 271530, Note_on_c, 0, 69, 70
2, 271602, Note_on_c, 0, 69, 0
2, 271620, Note_on_c, 0, 69, 70
2, 271692, Note_on_c, 0, 69, 0
2, 271710, Note_on_c, 0, 69, 66
2, 271782, Note_on_c, 0, 69, 0
2, 271800, Note_on_c, 0, 69, 72
2, 271872, Note_on_c, 0, 69, 0
2, 271890, Note_on_c, 0, 69, 75
2, 271962, Note_on_c, 0, 69, 0
2, 271980, Note_on_c, 0, 69, 75
2, 272052, Note_on_c, 0, 69, 0
2, 272070, Note_on_c, 0, 69, 68
2, 272142, Note_on_c, 0, 69, 0
2, 272160, Note_on_c, 0, 69, 75
2, 272232, Note_on_c, 0, 69, 0
2, 272250, Note_on_c, 0, 69, 73
2, 272322, Note_on_c, 0, 69, 0
2, 272340, Note_on_c, 0, 69, 78
2, 272412, Note_on_c, 0, 69, 0
2, 272430, Note_on_c, 0, 69, 72
2, 272502, Note_on_c, 0, 69, 0
2, 272520, Note_on_c, 0, 69, 71
2, 272592, Note_on_c, 0, 69, 0
2, 272610, Note_on_c, 0, 69, 68
2, 272682, Note_on_c, 0, 69, 0
2, 272700, Note_on_c, 0, 69, 77
2, 272772, Note_on_c, 0, 69, 0
2, 272790, Note_on_c, 0, 69, 72
2, 272862, Note_on_c, 0, 69, 0
2, 272880, Note_on_c, 0, 69, 72
2, 272952, Note_on_c, 0, 69, 0
2, 272970, Note_on_c, 0, 69, 73
2, 273042, Note_on_c, 0, 69, 0
2, 273060, Note_on_c, 0, 69, 77
2, 273132, Note_on_c, 0, 69, 0
2, 273150, Note_on_c, 0, 69, 71
2, 273222, Note_on_c, 0, 69, 0
2, 273240, Note_on_c, 0, 69, 74
2, 273312, Note_on_c, 0, 69, 0
2, 273330, Note_on_c, 0, 69, 70
2, 273402, Note_on_c, 0, 69, 0
2, 273420, Note_on_c, 0, 69, 75
2, 273492, Note_on_c, 0, 69, 0
2, 273510, Note_on_c, 0, 69, 66
2, 273582, Note_on_c, 0, 69, 0
2, 273600, Note_on_c, 0, 69, 79
2, 273672, Note_on_c, 0, 69, 0
2, 273690, Note_on_c, 0, 69, 73
2, 273762, Note_on_c, 0, 69, 0
2, 273780, Note_on_c, 0, 69, 78
2, 273852, Note_on_c, 0, 69, 0
2, 273870, Note_on_c, 0, 69, 76
2, 273942, Note_on_c, 0, 69, 0
2, 273960, Note_on_c, 0, 69, 73
2, 274032, Note_on_c, 0, 69, 0
2, 274050, Note_on_c, 0, 69, 76
2, 274122, Note_on_c, 0, 69, 0
2, 274140, Note_on_c, 0, 69, 76
2, 274212, Note_on_c, 0, 69, 0
2, 274230, Note_on_c, 0, 69, 72
2, 274302, Note_on_c, 0, 69, 0
2, 274320, Note_on_c, 0, 69, 80
2, 274392, Note_on_c, 0, 69, 0
2, 274410, Note_on_c, 0, 69, 76
2, 274482, Note_on_c, 0, 69, 0
2, 274500, Note_on_c, 0, 69, 75
2, 274572, Note_on_c, 0, 69, 0
2, 274590, Note_on_c, 0, 69, 74
2, 274662, Note_on_c, 0, 69, 0
2, 274680, Note_on_c, 0, 69, 75
2, 274752, Note_on_c, 0, 69, 0
2, 274770, Note_on_c, 0, 69, 74
2, 274842, Note_on_c, 0, 69, 0
2, 274860, Note_on_c, 0, 69, 78
2, 274932, Note_on_c, 0, 69, 0
2, 274950, Note_on_c, 0, 69, 72
2, 275022, Note_on_c, 0, 69, 0
2, 275040, Note_on_c, 0, 69, 74
2, 275112, Note_on_c, 0, 69, 0
2, 275130, Note_on_c, 0, 69, 73
2, 275202, Note_on_c, 0, 69, 0
2, 275220, Note_on_c, 0, 69, 76
2, 275292, Note_on_c, 0, 69, 0
2, 275310, Note_on_c, 0, 69, 72
2, 275382, Note_on_c, 0, 69, 0
2, 275400, Note_on_c, 0, 69, 74
2, 275472, Note_on_c, 0, 69, 0
2, 275490, Note_on_c, 0, 69, 69
2, 275562, Note_on_c, 0, 69, 0
2, 275580, Note_on_c, 0, 69, 76
2, 275652, Note_on_c, 0, 69, 0
2, 275670, Note_on_c, 0, 69, 67
2, 275742, Note_on_c, 0, 69, 0
2, 275760, Note_on_c, 0, 69, 76
2, 275832, Note_on_c, 0, 69, 0
2, 275850, Note_on_c, 0, 69, 72
2, 275922, Note_on_c, 0, 69, 0
2, 275940, Note_on_c, 0, 69, 73
2, 276012, Note_on_c, 0, 69, 0
2, 276030, Note_on_c, 0, 69, 70
2, 276102, Note_on_c, 0, 69, 0
2, 276120, Note_on_c, 0, 69, 74
2, 276192, Note_on_c, 0, 69, 0
2, 276210, Note_on_c, 0, 69, 72
2, 276282, Note_on_c, 0, 69, 0
2, 276300, Note_on_c, 0, 69, 74
2, 276372, Note_on_c, 0, 69, 0
2, 276390, Note_on_c, 0, 69, 70
2, 276462, Note_on_c, 0, 69, 0
2, 276480, Note_on_c, 0, 69, 77
2, 276660, Note_on_c, 0, 69, 0
2, 283680, Note_on_c, 0, 89, 83
2, 284040, Note_on_c, 0, 89, 0
2, 284040, Note_on_c, 0, 88, 88
2, 284220, Note_on_c, 0, 88, 0
2, 284220, Note_on_c, 0, 86, 85
2, 284400, Note_on_c, 0, 86, 0
2, 284400, Note_on_c, 0, 85, 84
2, 284580, Note_on_c, 0, 85, 0
2, 284580, Note_on_c, 0, 86, 90
2, 284760, Note_on_c, 0, 86, 0
2, 284760, Note_on_c, 0, 88, 94
2, 284940, Note_on_c, 0, 88, 0
2, 284940, Note_on_c, 0, 82, 74
2, 285120, Note_on_c, 0, 82, 0
2, 285120, Note_on_c, 0, 81, 82
2, 285480, Note_on_c, 0, 81, 0
2, 285480, Note_on_c, 0, 86, 96
2, 286020, Note_on_c, 0, 86, 0
2, 286020, Note_on_c, 0, 84, 87
2, 286200, Note_on_c, 0, 84, 0
2, 286200, Note_on_c, 0, 82, 83
2, 286380, Note_on_c, 0, 82, 0
2, 286380, Note_on_c, 0, 81, 82
2, 286560, Note_on_c, 0, 81, 0
2, 286560, Note_on_c, 0, 82, 91
2, 286920, Note_on_c, 0, 82, 0
2, 286920, Note_on_c, 0, 81, 85
2, 287100, Note_on_c, 0, 81, 0
2, 287100, Note_on_c, 0, 79, 85
2, 287280, Note_on_c, 0, 79, 0
2, 287280, Note_on_c, 0, 79, 86
2, 287460, Note_on_c, 0, 79, 0
2, 287460, Note_on_c, 0, 77, 87
2, 287640, Note_on_c, 0, 77, 0
2, 287640, Note_on_c, 0, 76, 86
2, 287820, Note_on_c, 0, 76, 0
2, 287820, Note_on_c, 0, 74, 79
2, 288000, Note_on_c, 0, 74, 0
2, 288000, Note_on_c, 0, 81, 103
2, 288360, Note_on_c, 0, 81, 0
2, 288360, Note_on_c, 0, 76, 82
2, 288540, Note_on_c, 0, 76, 0
2, 288540, Note_on_c, 0, 77, 92
2, 288720, Note_on_c, 0, 77, 0
2, 288720, Note_on_c, 0, 79, 92
2, 288900, Note_on_c, 0, 79, 0
2, 288900, Note_on_c, 0, 81, 91
2, 289080, Note_on_c, 0, 81, 0
2, 289080, Note_on_c, 0, 82, 103
2, 289238, Note_on_c, 0, 82, 0
2, 289260, Note_on_c, 0, 84, 103
2, 289418, Note_on_c, 0, 84, 0
2, 289440, Note_on_c, 0, 89, 103
2, 289800, Note_on_c, 0, 89, 0
2, 289800, Note_on_c, 0, 88, 86
2, 289980, Note_on_c, 0, 88, 0
2, 289980, Note_on_c, 0, 86, 82
2, 290160, Note_on_c, 0, 86, 0
2, 290160, Note_on_c, 0, 85, 87
2, 290340, Note_on_c, 0, 85, 0
2, 290340, Note_on_c, 0, 86, 91
2, 290520, Note_on_c, 0, 86, 0
2, 290520, Note_on_c, 0, 88, 91
2, 290700, Note_on_c, 0, 88, 0
2, 290700, Note_on_c, 0, 82, 75
2, 290880, Note_on_c, 0, 82, 0
2, 290880, Note_on_c, 0, 81, 81
2, 291240, Note_on_c, 0, 81, 0
2, 291240, Note_on_c, 0, 86, 100
2, 291780, Note_on_c, 0, 86, 0
2, 291780, Note_on_c, 0, 84, 88
2, 291960, Note_on_c, 0, 84, 0
2, 291960, Note_on_c, 0, 82, 84
2, 292140, Note_on_c, 0, 82, 0
2, 292140, Note_on_c, 0, 81, 86
2, 292320, Note_on_c, 0, 81, 0
2, 292320, Note_on_c, 0, 82, 93
2, 292680, Note_on_c, 0, 82, 0
2, 292680, Note_on_c, 0, 81, 85
2, 292860, Note_on_c, 0, 81, 0
2, 292860, Note_on_c, 0, 79, 86
2, 293040, Note_on_c, 0, 79, 0
2, 293040, Note_on_c, 0, 79, 92
2, 293220, Note_on_c, 0, 79, 0
2, 293220, Note_on_c, 0, 77, 83
2, 293400, Note_on_c, 0, 77, 0
2, 293400, Note_on_c, 0, 76, 86
2, 293580, Note_on_c, 0, 76, 0
2, 293580, Note_on_c, 0, 74, 83
2, 293760, Note_on_c, 0, 74, 0
2, 293760, Note_on_c, 0, 81, 105
2, 294480, Note_on_c, 0, 81, 0
2, 294480, Note_on_c, 0, 79, 86
2, 294660, Note_on_c, 0, 79, 0
2, 297180, Note_on_c, 0, 79, 82
2, 297360, Note_on_c, 0, 79, 0
2, 297360, Note_on_c, 0, 85, 120
2, 297720, Note_on_c, 0, 85, 0
2, 297720, Note_on_c, 0, 84, 83
2, 298080, Note_on_c, 0, 84, 0
2, 298080, Note_on_c, 0, 77, 70
2, 299520, Note_on_c, 0, 77, 0
2, 299520, Note_on_c, 0, 76, 82
2, 299880, Note_on_c, 0, 76, 0
2, 299880, Note_on_c, 0, 79, 94
2, 300000, Note_on_c, 0, 79, 0
2, 300000, Note_on_c, 0, 80, 95
2, 300119, Note_on_c, 0, 80, 0
2, 300119, Note_on_c, 0, 82, 95
2, 300240, Note_on_c, 0, 82, 0
2, 300240, Note_on_c, 0, 85, 98
2, 300600, Note_on_c, 0, 85, 0
2, 300600, Note_on_c, 0, 84, 86
2, 300960, Note_on_c, 0, 84, 0
2, 300960, Note_on_c, 0, 79, 75
2, 302400, Note_on_c, 0, 79, 0
2, 302400, Note_on_c, 0, 78, 88
2, 302940, Note_on_c, 0, 78, 0
2, 302940, Note_on_c, 0, 81, 89
2, 303098, Note_on_c, 0, 81, 0
2, 303120, Note_on_c, 0, 87, 90
2, 303480, Note_on_c, 0, 87, 0
2, 303480, Note_on_c, 0, 86, 90
2, 303840, Note_on_c, 0, 86, 0
2, 303840, Note_on_c, 0, 81, 91
2, 305280, Note_on_c, 0, 81, 0
2, 305280, Note_on_c, 0, 80, 93
2, 305640, Note_on_c, 0, 80, 0
2, 305640, Note_on_c, 0, 83, 94
2, 305760, Note_on_c, 0, 83, 0
2, 305760, Note_on_c, 0, 84, 94
2, 305879, Note_on_c, 0, 84, 0
2, 305879, Note_on_c, 0, 86, 94
2, 306000, Note_on_c, 0, 86, 0
2, 306000, Note_on_c, 0, 89, 95
2, 306540, Note_on_c, 0, 89, 0
2, 306540, Note_on_c, 0, 84, 96
2, 306720, Note_on_c, 0, 84, 0
2, 306720, Note_on_c, 0, 83, 96
2, 307080, Note_on_c, 0, 83, 0
2, 307080, Note_on_c, 0, 83, 97
2, 307200, Note_on_c, 0, 83, 0
2, 307200, Note_on_c, 0, 84, 97
2, 307319, Note_on_c, 0, 84, 0
2, 307319, Note_on_c, 0, 86, 97
2, 307440, Note_on_c, 0, 86, 0
2, 307440, Note_on_c, 0, 89, 97
2, 307980, Note_on_c, 0, 89, 0
2, 307980, Note_on_c, 0, 84, 98
2, 308160, Note_on_c, 0, 84, 0
2, 308160, Note_on_c, 0, 83, 98
2, 308880, Note_on_c, 0, 83, 0
2, 308880, Note_on_c, 0, 84, 100
2, 309600, Note_on_c, 0, 84, 0
2, 309600, Note_on_c, 0, 84, 101
2, 309780, Note_on_c, 0, 84, 0
2, 318960, Note_on_c, 0, 69, 90
2, 319122, Note_on_c, 0, 69, 0
2, 319140, Note_on_c, 0, 70, 97
2, 319320, Note_on_c, 0, 70, 0
2, 319320, Note_on_c, 0, 72, 108
2, 319500, Note_on_c, 0, 72, 0
2, 319500, Note_on_c, 0, 70, 100
2, 319590, Note_on_c, 0, 70, 0
2, 319590, Note_on_c, 0, 69, 102
2, 319680, Note_on_c, 0, 69, 0
2, 319680, Note_on_c, 0, 74, 114
2, 320400, Note_on_c, 0, 74, 0
2, 320400, Note_on_c, 0, 71, 101
2, 320580, Note_on_c, 0, 71, 0
2, 320580, Note_on_c, 0, 72, 112
2, 320760, Note_on_c, 0, 72, 0
2, 320760, Note_on_c, 0, 74, 111
2, 320850, Note_on_c, 0, 74, 0
2, 320850, Note_on_c, 0, 72, 98
2, 320940, Note_on_c, 0, 72, 0
2, 320940, Note_on_c, 0, 72, 98
2, 321030, Note_on_c, 0, 72, 0
2, 321030, Note_on_c, 0, 71, 98
2, 321120, Note_on_c, 0, 71, 0
2, 321120, Note_on_c, 0, 76, 113
2, 321660, Note_on_c, 0, 76, 0
2, 321660, Note_on_c, 0, 76, 118
2, 321818, Note_on_c, 0, 76, 0
2, 321840, Note_on_c, 0, 71, 98
2, 322020, Note_on_c, 0, 71, 0
2, 322020, Note_on_c, 0, 72, 102
2, 322200, Note_on_c, 0, 72, 0
2, 322200, Note_on_c, 0, 74, 111
2, 322380, Note_on_c, 0, 74, 0
2, 322380, Note_on_c, 0, 72, 97
2, 322470, Note_on_c, 0, 72, 0
2, 322470, Note_on_c, 0, 71, 102
2, 322560, Note_on_c, 0, 71, 0
2, 322560, Note_on_c, 0, 76, 117
2, 323280, Note_on_c, 0, 76, 0
2, 323280, Note_on_c, 0, 72, 92
2, 323460, Note_on_c, 0, 72, 0
2, 323460, Note_on_c, 0, 74, 101
2, 323640, Note_on_c, 0, 74, 0
2, 323640, Note_on_c, 0, 75, 112
2, 323820, Note_on_c, 0, 75, 0
2, 323820, Note_on_c, 0, 74, 101
2, 323910, Note_on_c, 0, 74, 0
2, 323910, Note_on_c, 0, 72, 94
2, 324000, Note_on_c, 0, 72, 0
2, 324000, Note_on_c, 0, 77, 112
2, 324540, Note_on_c, 0, 77, 0
2, 324540, Note_on_c, 0, 77, 118
2, 324698, Note_on_c, 0, 77, 0
2, 324720, Note_on_c, 0, 74, 94
2, 324900, Note_on_c, 0, 74, 0
2, 324900, Note_on_c, 0, 75, 100
2, 325080, Note_on_c, 0, 75, 0
2, 325080, Note_on_c, 0, 77, 106
2, 325260, Note_on_c, 0, 77, 0
2, 325260, Note_on_c, 0, 75, 102
2, 325350, Note_on_c, 0, 75, 0
2, 325350, Note_on_c, 0, 74, 99
2, 325440, Note_on_c, 0, 74, 0
2, 325440, Note_on_c, 0, 79, 116
2, 326340, Note_on_c, 0, 79, 0
2, 326340, Note_on_c, 0, 84, 127
2, 326498, Note_on_c, 0, 84, 0
2, 326520, Note_on_c, 0, 86, 123
2, 326678, Note_on_c, 0, 86, 0
2, 326700, Note_on_c, 0, 87, 118
2, 326858, Note_on_c, 0, 87, 0
2, 326880, Note_on_c, 0, 93, 115
2, 327510, Note_on_c, 0, 93, 0
2, 327510, Note_on_c, 0, 91, 99
2, 327600, Note_on_c, 0, 91, 0
2, 327600, Note_on_c, 0, 91, 104
2, 327780, Note_on_c, 0, 91, 0
2, 327780, Note_on_c, 0, 72, 78
2, 327825, Note_on_c, 0, 72, 0
2, 327825, Note_on_c, 0, 74, 106
2, 327870, Note_on_c, 0, 74, 0
2, 327870, Note_on_c, 0, 75, 110
2, 327915, Note_on_c, 0, 75, 0
2, 327915, Note_on_c, 0, 77, 112
2, 327960, Note_on_c, 0, 77, 0
2, 327960, Note_on_c, 0, 79, 113
2, 328005, Note_on_c, 0, 79, 0
2, 328005, Note_on_c, 0, 81, 108
2, 328050, Note_on_c, 0, 81, 0
2, 328050, Note_on_c, 0, 83, 112
2, 328095, Note_on_c, 0, 83, 0
2, 328095, Note_on_c, 0, 84, 104
2, 328140, Note_on_c, 0, 84, 0
2, 328140, Note_on_c, 0, 86, 111
2, 328185, Note_on_c, 0, 86, 0
2, 328185, Note_on_c, 0, 87, 110
2, 328230, Note_on_c, 0, 87, 0
2, 328230, Note_on_c, 0, 89, 110
2, 328275, Note_on_c, 0, 89, 0
2, 328275, Note_on_c, 0, 91, 109
2, 328320, Note_on_c, 0, 91, 0
2, 328320, Note_on_c, 0, 93, 109
2, 328950, Note_on_c, 0, 93, 0
2, 328950, Note_on_c, 0, 91, 96
2, 329040, Note_on_c, 0, 91, 0
2, 329040, Note_on_c, 0, 91, 108
2, 329220, Note_on_c, 0, 91, 0
2, 329220, Note_on_c, 0, 87, 106
2, 329378, Note_on_c, 0, 87, 0
2, 329400, Note_on_c, 0, 89, 118
2, 329558, Note_on_c, 0, 89, 0
2, 329580, Note_on_c, 0, 91, 121
2, 329738, Note_on_c, 0, 91, 0
2, 329760, Note_on_c, 0, 94, 113
2, 330390, Note_on_c, 0, 94, 0
2, 330390, Note_on_c, 0, 91, 93
2, 330480, Note_on_c, 0, 91, 0
2, 330480, Note_on_c, 0, 91, 96
2, 330660, Note_on_c, 0, 91, 0
2, 330660, Note_on_c, 0, 74, 75
2, 330705, Note_on_c, 0, 74, 0
2, 330705, Note_on_c, 0, 75, 99
2, 330750, Note_on_c, 0, 75, 0
2, 330750, Note_on_c, 0, 77, 103
2, 330795, Note_on_c, 0, 77, 0
2, 330795, Note_on_c, 0, 79, 105
2, 330840, Note_on_c, 0, 79, 0
2, 330840, Note_on_c, 0, 81, 113
2, 330885, Note_on_c, 0, 81, 0
2, 330885, Note_on_c, 0, 82, 107
2, 330930, Note_on_c, 0, 82, 0
2, 330930, Note_on_c, 0, 84, 108
2, 330975, Note_on_c, 0, 84, 0
2, 330975, Note_on_c, 0, 86, 110
2, 331020, Note_on_c, 0, 86, 0
2, 331020, Note_on_c, 0, 87, 106
2, 331065, Note_on_c, 0, 87, 0
2, 331065, Note_on_c, 0, 89, 108
2, 331110, Note_on_c, 0, 89, 0
2, 331110, Note_on_c, 0, 91, 103
2, 331155, Note_on_c, 0, 91, 0
2, 331155, Note_on_c, 0, 93, 110
2, 331200, Note_on_c, 0, 93, 0
2, 331200, Note_on_c, 0, 94, 106
2, 331830, Note_on_c, 0, 94, 0
2, 331830, Note_on_c, 0, 91, 93
2, 331920, Note_on_c, 0, 91, 0
2, 331920, Note_on_c, 0, 91, 100
2, 332100, Note_on_c, 0, 91, 0
2, 332100, Note_on_c, 0, 91, 117
2, 332258, Note_on_c, 0, 91, 0
2, 332280, Note_on_c, 0, 93, 126
2, 332438, Note_on_c, 0, 93, 0
2, 332460, Note_on_c, 0, 94, 122
2, 332618, Note_on_c, 0, 94, 0
2, 332640, Note_on_c, 0, 98, 115
2, 333540, Note_on_c, 0, 98, 0
2, 333540, Note_on_c, 0, 91, 96
2, 333698, Note_on_c, 0, 91, 0
2, 333720, Note_on_c, 0, 93, 112
2, 333878, Note_on_c, 0, 93, 0
2, 333900, Note_on_c, 0, 94, 122
2, 334058, Note_on_c, 0, 94, 0
2, 334080, Note_on_c, 0, 98, 115
2, 334980, Note_on_c, 0, 98, 0
2, 334980, Note_on_c, 0, 92, 96
2, 335138, Note_on_c, 0, 92, 0
2, 335160, Note_on_c, 0, 94, 118
2, 335318, Note_on_c, 0, 94, 0
2, 335340, Note_on_c, 0, 95, 120
2, 335498, Note_on_c, 0, 95, 0
2, 335520, Note_on_c, 0, 99, 110
2, 336420, Note_on_c, 0, 99, 0
2, 336420, Note_on_c, 0, 92, 94
2, 336578, Note_on_c, 0, 92, 0
2, 336600, Note_on_c, 0, 94, 119
2, 336758, Note_on_c, 0, 94, 0
2, 336780, Note_on_c, 0, 95, 113
2, 336938, Note_on_c, 0, 95, 0
2, 336960, Note_on_c, 0, 99, 114
2, 337860, Note_on_c, 0, 99, 0
2, 337860, Note_on_c, 0, 96, 105
2, 338018, Note_on_c, 0, 96, 0
2, 338040, Note_on_c, 0, 98, 115
2, 338198, Note_on_c, 0, 98, 0
2, 338220, Note_on_c, 0, 99, 117
2, 338378, Note_on_c, 0, 99, 0
2, 338400, Note_on_c, 0, 103, 109
2, 339120, Note_on_c, 0, 103, 0
2, 339120, Note_on_c, 0, 101, 97
2, 339300, Note_on_c, 0, 101, 0
2, 339300, Note_on_c, 0, 93, 93
2, 339458, Note_on_c, 0, 93, 0
2, 339480, Note_on_c, 0, 94, 115
2, 339638, Note_on_c, 0, 94, 0
2, 339660, Note_on_c, 0, 96, 116
2, 339818, Note_on_c, 0, 96, 0
2, 339840, Note_on_c, 0, 99, 109
2, 340560, Note_on_c, 0, 99, 0
2, 340560, Note_on_c, 0, 98, 97
2, 340740, Note_on_c, 0, 98, 0
2, 340740, Note_on_c, 0, 89, 89
2, 340898, Note_on_c, 0, 89, 0
2, 340920, Note_on_c, 0, 91, 111
2, 341078, Note_on_c, 0, 91, 0
2, 341100, Note_on_c, 0, 93, 120
2, 341258, Note_on_c, 0, 93, 0
2, 341280, Note_on_c, 0, 96, 111
2, 342000, Note_on_c, 0, 96, 0
2, 342000, Note_on_c, 0, 94, 99
2, 342180, Note_on_c, 0, 94, 0
2, 342180, Note_on_c, 0, 86, 96
2, 342338, Note_on_c, 0, 86, 0
2, 342360, Note_on_c, 0, 87, 114
2, 342518, Note_on_c, 0, 87, 0
2, 342540, Note_on_c, 0, 89, 121
2, 342698, Note_on_c, 0, 89, 0
2, 342720, Note_on_c, 0, 93, 112
2, 343440, Note_on_c, 0, 93, 0
2, 343440, Note_on_c, 0, 91, 95
2, 343620, Note_on_c, 0, 91, 0
2, 343620, Note_on_c, 0, 82, 94
2, 343778, Note_on_c, 0, 82, 0
2, 343800, Note_on_c, 0, 84, 120
2, 343958, Note_on_c, 0, 84, 0
2, 343980, Note_on_c, 0, 86, 123
2, 344138, Note_on_c, 0, 86, 0
2, 344160, Note_on_c, 0, 89, 125
2, 344318, Note_on_c, 0, 89, 0
2, 344340, Note_on_c, 0, 87, 109
2, 344498, Note_on_c, 0, 87, 0
2, 344520, Note_on_c, 0, 86, 112
2, 344678, Note_on_c, 0, 86, 0
2, 344700, Note_on_c, 0, 84, 110
2, 344858, Note_on_c, 0, 84, 0
2, 344880, Note_on_c, 0, 82, 102
2, 344970, Note_on_c, 0, 82, 0
2, 344970, Note_on_c, 0, 81, 101
2, 345060, Note_on_c, 0, 81, 0
2, 345060, Note_on_c, 0, 79, 99
2, 345150, Note_on_c, 0, 79, 0
2, 345150, Note_on_c, 0, 75, 98
2, 345240, Note_on_c, 0, 75, 0
2, 345240, Note_on_c, 0, 72, 96
2, 345330, Note_on_c, 0, 72, 0
2, 345330, Note_on_c, 0, 67, 94
2, 345420, Note_on_c, 0, 67, 0
2, 345420, Note_on_c, 0, 69, 93
2, 345510, Note_on_c, 0, 69, 0
2, 345510, Note_on_c, 0, 70, 91
2, 345600, Note_on_c, 0, 70, 0
2, 345600, Note_on_c, 0, 69, 85
2, 348390, Note_on_c, 0, 69, 0
2, 348390, Note_on_c, 0, 67, 89
2, 348480, Note_on_c, 0, 67, 0
2, 348480, Note_on_c, 0, 67, 90
2, 348660, Note_on_c, 0, 67, 0
2, 353700, Note_on_c, 0, 67, 55
2, 353880, Note_on_c, 0, 67, 0
2, 353880, Note_on_c, 0, 69, 51
2, 354060, Note_on_c, 0, 69, 0
2, 354060, Note_on_c, 0, 70, 55
2, 354240, Note_on_c, 0, 70, 0
2, 354240, Note_on_c, 0, 74, 62
2, 355140, Note_on_c, 0, 74, 0
2, 355140, Note_on_c, 0, 67, 51
2, 355320, Note_on_c, 0, 67, 0
2, 355320, Note_on_c, 0, 69, 54
2, 355500, Note_on_c, 0, 69, 0
2, 355500, Note_on_c, 0, 70, 55
2, 355680, Note_on_c, 0, 70, 0
2, 355680, Note_on_c, 0, 74, 63
2, 356580, Note_on_c, 0, 74, 0
2, 356580, Note_on_c, 0, 79, 65
2, 356760, Note_on_c, 0, 79, 0
2, 356760, Note_on_c, 0, 77, 55
2, 356940, Note_on_c, 0, 77, 0
2, 356940, Note_on_c, 0, 74, 52
2, 357120, Note_on_c, 0, 74, 0
2, 357120, Note_on_c, 0, 70, 54
2, 357300, Note_on_c, 0, 70, 0
2, 357300, Note_on_c, 0, 75, 62
2, 357480, Note_on_c, 0, 75, 0
2, 357480, Note_on_c, 0, 74, 57
2, 357660, Note_on_c, 0, 74, 0
2, 357660, Note_on_c, 0, 70, 51
2, 357840, Note_on_c, 0, 70, 0
2, 357840, Note_on_c, 0, 67, 49
2, 358020, Note_on_c, 0, 67, 0
2, 358020, Note_on_c, 0, 72, 66
2, 358200, Note_on_c, 0, 72, 0
2, 358200, Note_on_c, 0, 70, 54
2, 358380, Note_on_c, 0, 70, 0
2, 358380, Note_on_c, 0, 74, 59
2, 358560, Note_on_c, 0, 74, 0
2, 358560, Note_on_c, 0, 76, 57
2, 358920, Note_on_c, 0, 76, 0
2, 358920, Note_on_c, 0, 78, 62
2, 359190, Note_on_c, 0, 78, 0
2, 359190, Note_on_c, 0, 79, 55
2, 359280, Note_on_c, 0, 79, 0
2, 359280, Note_on_c, 0, 79, 55
2, 359460, Note_on_c, 0, 79, 0
2, 359460, Note_on_c, 0, 72, 50
2, 359640, Note_on_c, 0, 72, 0
2, 359640, Note_on_c, 0, 74, 54
2, 359820, Note_on_c, 0, 74, 0
2, 359820, Note_on_c, 0, 76, 61
2, 360000, Note_on_c, 0, 76, 0
2, 360000, Note_on_c, 0, 79, 63
2, 360900, Note_on_c, 0, 79, 0
2, 360900, Note_on_c, 0, 72, 49
2, 361080, Note_on_c, 0, 72, 0
2, 361080, Note_on_c, 0, 74, 54
2, 361260, Note_on_c, 0, 74, 0
2, 361260, Note_on_c, 0, 75, 56
2, 361440, Note_on_c, 0, 75, 0
2, 361440, Note_on_c, 0, 79, 64
2, 362340, Note_on_c, 0, 79, 0
2, 362340, Note_on_c, 0, 87, 68
2, 362520, Note_on_c, 0, 87, 0
2, 362520, Note_on_c, 0, 86, 53
2, 362700, Note_on_c, 0, 86, 0
2, 362700, Note_on_c, 0, 82, 50
2, 362880, Note_on_c, 0, 82, 0
2, 362880, Note_on_c, 0, 79, 46
2, 363060, Note_on_c, 0, 79, 0
2, 363060, Note_on_c, 0, 84, 62
2, 363240, Note_on_c, 0, 84, 0
2, 363240, Note_on_c, 0, 82, 56
2, 363420, Note_on_c, 0, 82, 0
2, 363420, Note_on_c, 0, 79, 51
2, 363600, Note_on_c, 0, 79, 0
2, 363600, Note_on_c, 0, 75, 50
2, 363780, Note_on_c, 0, 75, 0
2, 363780, Note_on_c, 0, 81, 57
2, 363960, Note_on_c, 0, 81, 0
2, 363960, Note_on_c, 0, 79, 51
2, 364140, Note_on_c, 0, 79, 0
2, 364140, Note_on_c, 0, 74, 50
2, 364320, Note_on_c, 0, 74, 0
2, 364320, Note_on_c, 0, 70, 57
2, 364680, Note_on_c, 0, 70, 0
2, 364680, Note_on_c, 0, 69, 57
2, 364950, Note_on_c, 0, 69, 0
2, 364950, Note_on_c, 0, 67, 55
2, 365040, Note_on_c, 0, 67, 0
2, 365040, Note_on_c, 0, 67, 60
2, 365220, Note_on_c, 0, 67, 0
2, 365220, Note_on_c, 0, 67, 56
2, 365400, Note_on_c, 0, 67, 0
2, 365400, Note_on_c, 0, 69, 61
2, 365580, Note_on_c, 0, 69, 0
2, 365580, Note_on_c, 0, 70, 53
2, 365760, Note_on_c, 0, 70, 0
2, 365760, Note_on_c, 0, 74, 65
2, 366660, Note_on_c, 0, 74, 0
2, 366660, Note_on_c, 0, 67, 49
2, 366840, Note_on_c, 0, 67, 0
2, 366840, Note_on_c, 0, 69, 54
2, 367020, Note_on_c, 0, 69, 0
2, 367020, Note_on_c, 0, 70, 58
2, 367200, Note_on_c, 0, 70, 0
2, 367200, Note_on_c, 0, 74, 55
2, 368820, Note_on_c, 0, 74, 0
2, 368820, End_track
3, 0, Start_track
3, 0, Title_t, "Violoncello (piano)"
3, 0, Program_c, 0, 0
3, 0, Control_c, 0, 7, 105
3, 0, Control_c, 0, 10, 51
3, 0, Control_c, 0, 91, 60
3, 0, Control_c, 0, 121, 0
3, 0, Control_c, 0, 64, 0
3, 0, Note_on_c, 0, 31, 62
3, 120, Note_on_c, 0, 31, 0
3, 120, Note_on_c, 0, 38, 72
3, 239, Note_on_c, 0, 38, 0
3, 239, Note_on_c, 0, 31, 59
3, 360, Note_on_c, 0, 31, 0
3, 360, Note_on_c, 0, 38, 72
3, 480, Note_on_c, 0, 38, 0
3, 480, Note_on_c, 0, 31, 58
3, 599, Note_on_c, 0, 31, 0
3, 599, Note_on_c, 0, 38, 68
3, 720, Note_on_c, 0, 38, 0
3, 720, Note_on_c, 0, 31, 61
3, 840, Note_on_c, 0, 31, 0
3, 840, Note_on_c, 0, 38, 70
3, 959, Note_on_c, 0, 38, 0
3, 959, Note_on_c, 0, 31, 64
3, 1080, Note_on_c, 0, 31, 0
3, 1080, Note_on_c, 0, 38, 66
3, 1200, Note_on_c, 0, 38, 0
3, 1200, Note_on_c, 0, 31, 66
3, 1319, Note_on_c, 0, 31, 0
3, 1319, Note_on_c, 0, 38, 68
3, 1440, Note_on_c, 0, 38, 0
3, 1440, Note_on_c, 0, 31, 58
3, 1560, Note_on_c, 0, 31, 0
3, 1560, Note_on_c, 0, 38, 75
3, 1679, Note_on_c, 0, 38, 0
3, 1679, Note_on_c, 0, 31, 60
3, 1800, Note_on_c, 0, 31, 0
3, 1800, Note_on_c, 0, 38, 73
3, 1920, Note_on_c, 0, 38, 0
3, 1920, Note_on_c, 0, 31, 58
3, 2039, Note_on_c, 0, 31, 0
3, 2039, Note_on_c, 0, 38, 72
3, 2160, Note_on_c, 0, 38, 0
3, 2160, Note_on_c, 0, 31, 61
3, 2280, Note_on_c, 0, 31, 0
3, 2280, Note_on_c, 0, 38, 71
3, 2399, Note_on_c, 0, 38, 0
3, 2399, Note_on_c, 0, 31, 63
3, 2520, Note_on_c, 0, 31, 0
3, 2520, Note_on_c, 0, 38, 67
3, 2640, Note_on_c, 0, 38, 0
3, 2640, Note_on_c, 0, 31, 58
3, 2759, Note_on_c, 0, 31, 0
3, 2759, Note_on_c, 0, 38, 66
3, 2880, Note_on_c, 0, 38, 0
3, 2880, Note_on_c, 0, 31, 59
3, 2927, Note_on_c, 0, 31, 0
3, 2939, Note_on_c, 0, 31, 58
3, 2985, Note_on_c, 0, 31, 0
3, 3000, Note_on_c, 0, 38, 70
3, 3046, Note_on_c, 0, 38, 0
3, 3059, Note_on_c, 0, 38, 66
3, 3105, Note_on_c, 0, 38, 0
3, 3119, Note_on_c, 0, 31, 55
3, 3167, Note_on_c, 0, 31, 0
3, 3180, Note_on_c, 0, 31, 51
3, 3227, Note_on_c, 0, 31, 0
3, 3240, Note_on_c, 0, 38, 64
3, 3287, Note_on_c, 0, 38, 0
3, 3299, Note_on_c, 0, 38, 65
3, 3345, Note_on_c, 0, 38, 0
3, 3360, Note_on_c, 0, 31, 56
3, 3406, Note_on_c, 0, 31, 0
3, 3419, Note_on_c, 0, 31, 56
3, 3465, Note_on_c, 0, 31, 0
3, 3479, Note_on_c, 0, 38, 67
3, 3527, Note_on_c, 0, 38, 0
3, 3540, Note_on_c, 0, 38, 66
3, 3587, Note_on_c, 0, 38, 0
3, 3600, Note_on_c, 0, 31, 58
3, 3647, Note_on_c, 0, 31, 0
3, 3659, Note_on_c, 0, 31, 55
3, 3705, Note_on_c, 0, 31, 0
3, 3720, Note_on_c, 0, 38, 73
3, 3766, Note_on_c, 0, 38, 0
3, 3779, Note_on_c, 0, 38, 68
3, 3825, Note_on_c, 0, 38, 0
3, 3839, Note_on_c, 0, 31, 63
3, 3887, Note_on_c, 0, 31, 0
3, 3900, Note_on_c, 0, 31, 57
3, 3947, Note_on_c, 0, 31, 0
3, 3960, Note_on_c, 0, 38, 70
3, 4007, Note_on_c, 0, 38, 0
3, 4019, Note_on_c, 0, 38, 64
3, 4065, Note_on_c, 0, 38, 0
3, 4080, Note_on_c, 0, 31, 59
3, 4126, Note_on_c, 0, 31, 0
3, 4139, Note_on_c, 0, 31, 57
3, 4185, Note_on_c, 0, 31, 0
3, 4199, Note_on_c, 0, 38, 71
3, 4320, Note_on_c, 0, 38, 0
3, 4320, Note_on_c, 0, 31, 61
3, 4355, Note_on_c, 0, 31, 0
3, 4365, Note_on_c, 0, 31, 56
3, 4400, Note_on_c, 0, 31, 0
3, 4410, Note_on_c, 0, 38, 70
3, 4445, Note_on_c, 0, 38, 0
3, 4455, Note_on_c, 0, 38, 64
3, 4490, Note_on_c, 0, 38, 0
3, 4500, Note_on_c, 0, 38, 68
3, 4535, Note_on_c, 0, 38, 0
3, 4545, Note_on_c, 0, 38, 68
3, 4580, Note_on_c, 0, 38, 0
3, 4590, Note_on_c, 0, 31, 58
3, 4625, Note_on_c, 0, 31, 0
3, 4635, Note_on_c, 0, 31, 53
3, 4670, Note_on_c, 0, 31, 0
3, 4680, Note_on_c, 0, 31, 64
3, 4715, Note_on_c, 0, 31, 0
3, 4725, Note_on_c, 0, 31, 59
3, 4760, Note_on_c, 0, 31, 0
3, 4770, Note_on_c, 0, 38, 68
3, 4805, Note_on_c, 0, 38, 0
3, 4815, Note_on_c, 0, 38, 64
3, 4850, Note_on_c, 0, 38, 0
3, 4860, Note_on_c, 0, 38, 64
3, 4895, Note_on_c, 0, 38, 0
3, 4905, Note_on_c, 0, 38, 63
3, 4940, Note_on_c, 0, 38, 0
3, 4950, Note_on_c, 0, 31, 58
3, 4985, Note_on_c, 0, 31, 0
3, 4995, Note_on_c, 0, 31, 55
3, 5030, Note_on_c, 0, 31, 0
3, 5040, Note_on_c, 0, 31, 61
3, 5075, Note_on_c, 0, 31, 0
3, 5085, Note_on_c, 0, 31, 58
3, 5120, Note_on_c, 0, 31, 0
3, 5130, Note_on_c, 0, 38, 64
3, 5165, Note_on_c, 0, 38, 0
3, 5175, Note_on_c, 0, 38, 65
3, 5210, Note_on_c, 0, 38, 0
3, 5220, Note_on_c, 0, 38, 66
3, 5255, Note_on_c, 0, 38, 0
3, 5265, Note_on_c, 0, 38, 63
3, 5300, Note_on_c, 0, 38, 0
3, 5310, Note_on_c, 0, 31, 63
3, 5345, Note_on_c, 0, 31, 0
3, 5355, Note_on_c, 0, 31, 58
3, 5390, Note_on_c, 0, 31, 0
3, 5400, Note_on_c, 0, 31, 67
3, 5435, Note_on_c, 0, 31, 0
3, 5445, Note_on_c, 0, 31, 61
3, 5480, Note_on_c, 0, 31, 0
3, 5490, Note_on_c, 0, 39, 68
3, 5525, Note_on_c, 0, 39, 0
3, 5535, Note_on_c, 0, 39, 64
3, 5570, Note_on_c, 0, 39, 0
3, 5580, Note_on_c, 0, 39, 65
3, 5615, Note_on_c, 0, 39, 0
3, 5625, Note_on_c, 0, 39, 68
3, 5660, Note_on_c, 0, 39, 0
3, 5670, Note_on_c, 0, 31, 53
3, 5705, Note_on_c, 0, 31, 0
3, 5715, Note_on_c, 0, 31, 55
3, 5750, Note_on_c, 0, 31, 0
3, 5760, Note_on_c, 0, 31, 58
3, 5795, Note_on_c, 0, 31, 0
3, 5805, Note_on_c, 0, 31, 56
3, 5840, Note_on_c, 0, 31, 0
3, 5850, Note_on_c, 0, 38, 72
3, 5885, Note_on_c, 0, 38, 0
3, 5895, Note_on_c, 0, 38, 69
3, 5930, Note_on_c, 0, 38, 0
3, 5940, Note_on_c, 0, 38, 66
3, 5975, Note_on_c, 0, 38, 0
3, 5985, Note_on_c, 0, 38, 62
3, 6020, Note_on_c, 0, 38, 0
3, 6030, Note_on_c, 0, 31, 61
3, 6065, Note_on_c, 0, 31, 0
3, 6075, Note_on_c, 0, 31, 58
3, 6110, Note_on_c, 0, 31, 0
3, 6120, Note_on_c, 0, 31, 64
3, 6155, Note_on_c, 0, 31, 0
3, 6165, Note_on_c, 0, 31, 64
3, 6200, Note_on_c, 0, 31, 0
3, 6210, Note_on_c, 0, 38, 73
3, 6245, Note_on_c, 0, 38, 0
3, 6255, Note_on_c, 0, 38, 69
3, 6290, Note_on_c, 0, 38, 0
3, 6300, Note_on_c, 0, 38, 63
3, 6335, Note_on_c, 0, 38, 0
3, 6345, Note_on_c, 0, 38, 60
3, 6380, Note_on_c, 0, 38, 0
3, 6390, Note_on_c, 0, 31, 64
3, 6425, Note_on_c, 0, 31, 0
3, 6435, Note_on_c, 0, 31, 60
3, 6470, Note_on_c, 0, 31, 0
3, 6480, Note_on_c, 0, 31, 64
3, 6515, Note_on_c, 0, 31, 0
3, 6525, Note_on_c, 0, 31, 57
3, 6560, Note_on_c, 0, 31, 0
3, 6570, Note_on_c, 0, 38, 69
3, 6605, Note_on_c, 0, 38, 0
3, 6615, Note_on_c, 0, 38, 63
3, 6650, Note_on_c, 0, 38, 0
3, 6660, Note_on_c, 0, 38, 70
3, 6695, Note_on_c, 0, 38, 0
3, 6705, Note_on_c, 0, 38, 68
3, 6740, Note_on_c, 0, 38, 0
3, 6750, Note_on_c, 0, 31, 61
3, 6785, Note_on_c, 0, 31, 0
3, 6795, Note_on_c, 0, 31, 56
3, 6830, Note_on_c, 0, 31, 0
3, 6840, Note_on_c, 0, 31, 61
3, 6875, Note_on_c, 0, 31, 0
3, 6885, Note_on_c, 0, 31, 56
3, 6920, Note_on_c, 0, 31, 0
3, 6930, Note_on_c, 0, 39, 75
3, 6965, Note_on_c, 0, 39, 0
3, 6975, Note_on_c, 0, 39, 71
3, 7010, Note_on_c, 0, 39, 0
3, 7020, Note_on_c, 0, 39, 69
3, 7055, Note_on_c, 0, 39, 0
3, 7065, Note_on_c, 0, 39, 62
3, 7100, Note_on_c, 0, 39, 0
3, 7110, Note_on_c, 0, 31, 61
3, 7145, Note_on_c, 0, 31, 0
3, 7155, Note_on_c, 0, 31, 60
3, 7190, Note_on_c, 0, 31, 0
3, 7200, Note_on_c, 0, 31, 59
3, 7235, Note_on_c, 0, 31, 0
3, 7245, Note_on_c, 0, 31, 57
3, 7280, Note_on_c, 0, 31, 0
3, 7290, Note_on_c, 0, 38, 73
3, 7325, Note_on_c, 0, 38, 0
3, 7335, Note_on_c, 0, 38, 67
3, 7370, Note_on_c, 0, 38, 0
3, 7380, Note_on_c, 0, 38, 63
3, 7415, Note_on_c, 0, 38, 0
3, 7425, Note_on_c, 0, 38, 60
3, 7460, Note_on_c, 0, 38, 0
3, 7470, Note_on_c, 0, 31, 69
3, 7505, Note_on_c, 0, 31, 0
3, 7515, Note_on_c, 0, 31, 63
3, 7550, Note_on_c, 0, 31, 0
3, 7560, Note_on_c, 0, 31, 62
3, 7595, Note_on_c, 0, 31, 0
3, 7605, Note_on_c, 0, 31, 62
3, 7640, Note_on_c, 0, 31, 0
3, 7650, Note_on_c, 0, 38, 70
3, 7685, Note_on_c, 0, 38, 0
3, 7695, Note_on_c, 0, 38, 65
3, 7730, Note_on_c, 0, 38, 0
3, 7740, Note_on_c, 0, 38, 70
3, 7775, Note_on_c, 0, 38, 0
3, 7785, Note_on_c, 0, 38, 62
3, 7820, Note_on_c, 0, 38, 0
3, 7830, Note_on_c, 0, 31, 66
3, 7865, Note_on_c, 0, 31, 0
3, 7875, Note_on_c, 0, 31, 59
3, 7910, Note_on_c, 0, 31, 0
3, 7920, Note_on_c, 0, 31, 61
3, 7955, Note_on_c, 0, 31, 0
3, 7965, Note_on_c, 0, 31, 55
3, 8000, Note_on_c, 0, 31, 0
3, 8010, Note_on_c, 0, 43, 74
3, 8045, Note_on_c, 0, 43, 0
3, 8055, Note_on_c, 0, 43, 67
3, 8090, Note_on_c, 0, 43, 0
3, 8100, Note_on_c, 0, 43, 73
3, 8135, Note_on_c, 0, 43, 0
3, 8145, Note_on_c, 0, 43, 65
3, 8180, Note_on_c, 0, 43, 0
3, 8190, Note_on_c, 0, 31, 58
3, 8225, Note_on_c, 0, 31, 0
3, 8235, Note_on_c, 0, 31, 55
3, 8270, Note_on_c, 0, 31, 0
3, 8280, Note_on_c, 0, 34, 73
3, 8315, Note_on_c, 0, 34, 0
3, 8325, Note_on_c, 0, 34, 64
3, 8360, Note_on_c, 0, 34, 0
3, 8370, Note_on_c, 0, 41, 73
3, 8405, Note_on_c, 0, 41, 0
3, 8415, Note_on_c, 0, 41, 67
3, 8450, Note_on_c, 0, 41, 0
3, 8460, Note_on_c, 0, 41, 68
3, 8495, Note_on_c, 0, 41, 0
3, 8505, Note_on_c, 0, 41, 61
3, 8540, Note_on_c, 0, 41, 0
3, 8550, Note_on_c, 0, 34, 58
3, 8585, Note_on_c, 0, 34, 0
3, 8595, Note_on_c, 0, 34, 54
3, 8630, Note_on_c, 0, 34, 0
3, 8640, Note_on_c, 0, 27, 53
3, 8675, Note_on_c, 0, 27, 0
3, 8685, Note_on_c, 0, 27, 51
3, 8720, Note_on_c, 0, 27, 0
3, 8730, Note_on_c, 0, 39, 74
3, 8765, Note_on_c, 0, 39, 0
3, 8775, Note_on_c, 0, 39, 68
3, 8810, Note_on_c, 0, 39, 0
3, 8820, Note_on_c, 0, 39, 68
3, 8855, Note_on_c, 0, 39, 0
3, 8865, Note_on_c, 0, 39, 63
3, 8900, Note_on_c, 0, 39, 0
3, 8910, Note_on_c, 0, 27, 58
3, 8945, Note_on_c, 0, 27, 0
3, 8955, Note_on_c, 0, 27, 54
3, 8990, Note_on_c, 0, 27, 0
3, 9000, Note_on_c, 0, 34, 71
3, 9035, Note_on_c, 0, 34, 0
3, 9045, Note_on_c, 0, 34, 67
3, 9080, Note_on_c, 0, 34, 0
3, 9090, Note_on_c, 0, 38, 66
3, 9125, Note_on_c, 0, 38, 0
3, 9135, Note_on_c, 0, 38, 68
3, 9170, Note_on_c, 0, 38, 0
3, 9180, Note_on_c, 0, 38, 67
3, 9215, Note_on_c, 0, 38, 0
3, 9225, Note_on_c, 0, 38, 61
3, 9260, Note_on_c, 0, 38, 0
3, 9270, Note_on_c, 0, 34, 63
3, 9305, Note_on_c, 0, 34, 0
3, 9315, Note_on_c, 0, 34, 62
3, 9350, Note_on_c, 0, 34, 0
3, 9360, Note_on_c, 0, 24, 57
3, 9395, Note_on_c, 0, 24, 0
3, 9405, Note_on_c, 0, 24, 53
3, 9440, Note_on_c, 0, 24, 0
3, 9450, Note_on_c, 0, 36, 71
3, 9485, Note_on_c, 0, 36, 0
3, 9495, Note_on_c, 0, 36, 68
3, 9530, Note_on_c, 0, 36, 0
3, 9540, Note_on_c, 0, 36, 68
3, 9575, Note_on_c, 0, 36, 0
3, 9585, Note_on_c, 0, 36, 63
3, 9620, Note_on_c, 0, 36, 0
3, 9630, Note_on_c, 0, 24, 58
3, 9665, Note_on_c, 0, 24, 0
3, 9675, Note_on_c, 0, 24, 52
3, 9710, Note_on_c, 0, 24, 0
3, 9720, Note_on_c, 0, 26, 62
3, 9755, Note_on_c, 0, 26, 0
3, 9765, Note_on_c, 0, 26, 63
3, 9800, Note_on_c, 0, 26, 0
3, 9810, Note_on_c, 0, 38, 71
3, 9845, Note_on_c, 0, 38, 0
3, 9855, Note_on_c, 0, 38, 70
3, 9890, Note_on_c, 0, 38, 0
3, 9900, Note_on_c, 0, 38, 63
3, 9935, Note_on_c, 0, 38, 0
3, 9945, Note_on_c, 0, 38, 58
3, 9980, Note_on_c, 0, 38, 0
3, 9990, Note_on_c, 0, 26, 57
3, 10025, Note_on_c, 0, 26, 0
3, 10035, Note_on_c, 0, 26, 53
3, 10070, Note_on_c, 0, 26, 0
3, 10080, Note_on_c, 0, 26, 58
3, 10115, Note_on_c, 0, 26, 0
3, 10125, Note_on_c, 0, 26, 56
3, 10160, Note_on_c, 0, 26, 0
3, 10170, Note_on_c, 0, 40, 77
3, 10205, Note_on_c, 0, 40, 0
3, 10215, Note_on_c, 0, 40, 75
3, 10250, Note_on_c, 0, 40, 0
3, 10260, Note_on_c, 0, 40, 64
3, 10295, Note_on_c, 0, 40, 0
3, 10305, Note_on_c, 0, 40, 58
3, 10340, Note_on_c, 0, 40, 0
3, 10350, Note_on_c, 0, 26, 59
3, 10385, Note_on_c, 0, 26, 0
3, 10395, Note_on_c, 0, 26, 55
3, 10430, Note_on_c, 0, 26, 0
3, 10440, Note_on_c, 0, 26, 59
3, 10475, Note_on_c, 0, 26, 0
3, 10485, Note_on_c, 0, 26, 60
3, 10520, Note_on_c, 0, 26, 0
3, 10530, Note_on_c, 0, 42, 72
3, 10565, Note_on_c, 0, 42, 0
3, 10575, Note_on_c, 0, 42, 74
3, 10610, Note_on_c, 0, 42, 0
3, 10620, Note_on_c, 0, 42, 67
3, 10655, Note_on_c, 0, 42, 0
3, 10665, Note_on_c, 0, 42, 67
3, 10700, Note_on_c, 0, 42, 0
3, 10710, Note_on_c, 0, 26, 56
3, 10745, Note_on_c, 0, 26, 0
3, 10755, Note_on_c, 0, 26, 54
3, 10790, Note_on_c, 0, 26, 0
3, 10800, Note_on_c, 0, 31, 69
3, 10835, Note_on_c, 0, 31, 0
3, 10845, Note_on_c, 0, 31, 65
3, 10880, Note_on_c, 0, 31, 0
3, 10890, Note_on_c, 0, 39, 75
3, 10925, Note_on_c, 0, 39, 0
3, 10935, Note_on_c, 0, 39, 68
3, 10970, Note_on_c, 0, 39, 0
3, 10980, Note_on_c, 0, 39, 63
3, 11015, Note_on_c, 0, 39, 0
3, 11025, Note_on_c, 0, 39, 66
3, 11060, Note_on_c, 0, 39, 0
3, 11070, Note_on_c, 0, 31, 61
3, 11105, Note_on_c, 0, 31, 0
3, 11115, Note_on_c, 0, 31, 60
3, 11150, Note_on_c, 0, 31, 0
3, 11160, Note_on_c, 0, 31, 65
3, 11195, Note_on_c, 0, 31, 0
3, 11205, Note_on_c, 0, 31, 59
3, 11240, Note_on_c, 0, 31, 0
3, 11250, Note_on_c, 0, 44, 73
3, 11285, Note_on_c, 0, 44, 0
3, 11295, Note_on_c, 0, 44, 73
3, 11330, Note_on_c, 0, 44, 0
3, 11340, Note_on_c, 0, 44, 65
3, 11375, Note_on_c, 0, 44, 0
3, 11385, Note_on_c, 0, 44, 63
3, 11420, Note_on_c, 0, 44, 0
3, 11430, Note_on_c, 0, 31, 61
3, 11465, Note_on_c, 0, 31, 0
3, 11475, Note_on_c, 0, 31, 53
3, 11510, Note_on_c, 0, 31, 0
3, 11520, Note_on_c, 0, 31, 67
3, 11555, Note_on_c, 0, 31, 0
3, 11565, Note_on_c, 0, 31, 60
3, 11600, Note_on_c, 0, 31, 0
3, 11610, Note_on_c, 0, 39, 73
3, 11645, Note_on_c, 0, 39, 0
3, 11655, Note_on_c, 0, 39, 64
3, 11690, Note_on_c, 0, 39, 0
3, 11700, Note_on_c, 0, 39, 66
3, 11735, Note_on_c, 0, 39, 0
3, 11745, Note_on_c, 0, 39, 63
3, 11780, Note_on_c, 0, 39, 0
3, 11790, Note_on_c, 0, 31, 61
3, 11825, Note_on_c, 0, 31, 0
3, 11835, Note_on_c, 0, 31, 59
3, 11870, Note_on_c, 0, 31, 0
3, 11880, Note_on_c, 0, 31, 61
3, 11915, Note_on_c, 0, 31, 0
3, 11925, Note_on_c, 0, 31, 60
3, 11960, Note_on_c, 0, 31, 0
3, 11970, Note_on_c, 0, 39, 76
3, 12005, Note_on_c, 0, 39, 0
3, 12015, Note_on_c, 0, 39, 71
3, 12050, Note_on_c, 0, 39, 0
3, 12060, Note_on_c, 0, 39, 59
3, 12095, Note_on_c, 0, 39, 0
3, 12105, Note_on_c, 0, 39, 59
3, 12140, Note_on_c, 0, 39, 0
3, 12150, Note_on_c, 0, 31, 62
3, 12185, Note_on_c, 0, 31, 0
3, 12195, Note_on_c, 0, 31, 58
3, 12230, Note_on_c, 0, 31, 0
3, 12240, Note_on_c, 0, 31, 64
3, 12275, Note_on_c, 0, 31, 0
3, 12285, Note_on_c, 0, 31, 67
3, 12320, Note_on_c, 0, 31, 0
3, 12330, Note_on_c, 0, 39, 69
3, 12365, Note_on_c, 0, 39, 0
3, 12375, Note_on_c, 0, 39, 64
3, 12410, Note_on_c, 0, 39, 0
3, 12420, Note_on_c, 0, 39, 71
3, 12455, Note_on_c, 0, 39, 0
3, 12465, Note_on_c, 0, 39, 61
3, 12500, Note_on_c, 0, 39, 0
3, 12510, Note_on_c, 0, 31, 58
3, 12545, Note_on_c, 0, 31, 0
3, 12555, Note_on_c, 0, 31, 54
3, 12590, Note_on_c, 0, 31, 0
3, 12600, Note_on_c, 0, 31, 67
3, 12635, Note_on_c, 0, 31, 0
3, 12645, Note_on_c, 0, 31, 66
3, 12680, Note_on_c, 0, 31, 0
3, 12690, Note_on_c, 0, 44, 78
3, 12725, Note_on_c, 0, 44, 0
3, 12735, Note_on_c, 0, 44, 69
3, 12770, Note_on_c, 0, 44, 0
3, 12780, Note_on_c, 0, 44, 67
3, 12815, Note_on_c, 0, 44, 0
3, 12825, Note_on_c, 0, 44, 66
3, 12860, Note_on_c, 0, 44, 0
3, 12870, Note_on_c, 0, 31, 57
3, 12905, Note_on_c, 0, 31, 0
3, 12915, Note_on_c, 0, 31, 52
3, 12950, Note_on_c, 0, 31, 0
3, 12960, Note_on_c, 0, 31, 65
3, 12995, Note_on_c, 0, 31, 0
3, 13005, Note_on_c, 0, 31, 63
3, 13040, Note_on_c, 0, 31, 0
3, 13050, Note_on_c, 0, 39, 73
3, 13085, Note_on_c, 0, 39, 0
3, 13095, Note_on_c, 0, 39, 69
3, 13130, Note_on_c, 0, 39, 0
3, 13140, Note_on_c, 0, 39, 66
3, 13175, Note_on_c, 0, 39, 0
3, 13185, Note_on_c, 0, 39, 63
3, 13220, Note_on_c, 0, 39, 0
3, 13230, Note_on_c, 0, 31, 59
3, 13265, Note_on_c, 0, 31, 0
3, 13275, Note_on_c, 0, 31, 54
3, 13310, Note_on_c, 0, 31, 0
3, 13320, Note_on_c, 0, 31, 66
3, 13355, Note_on_c, 0, 31, 0
3, 13365, Note_on_c, 0, 31, 62
3, 13400, Note_on_c, 0, 31, 0
3, 13410, Note_on_c, 0, 39, 70
3, 13445, Note_on_c, 0, 39, 0
3, 13455, Note_on_c, 0, 39, 70
3, 13490, Note_on_c, 0, 39, 0
3, 13500, Note_on_c, 0, 39, 61
3, 13535, Note_on_c, 0, 39, 0
3, 13545, Note_on_c, 0, 39, 53
3, 13580, Note_on_c, 0, 39, 0
3, 13590, Note_on_c, 0, 31, 54
3, 13625, Note_on_c, 0, 31, 0
3, 13635, Note_on_c, 0, 31, 53
3, 13670, Note_on_c, 0, 31, 0
3, 13680, Note_on_c, 0, 31, 60
3, 13715, Note_on_c, 0, 31, 0
3, 13725, Note_on_c, 0, 31, 57
3, 13760, Note_on_c, 0, 31, 0
3, 13770, Note_on_c, 0, 48, 76
3, 13805, Note_on_c, 0, 48, 0
3, 13815, Note_on_c, 0, 48, 75
3, 13850, Note_on_c, 0, 48, 0
3, 13860, Note_on_c, 0, 48, 69
3, 13895, Note_on_c, 0, 48, 0
3, 13905, Note_on_c, 0, 48, 61
3, 13940, Note_on_c, 0, 48, 0
3, 13950, Note_on_c, 0, 31, 56
3, 13985, Note_on_c, 0, 31, 0
3, 13995, Note_on_c, 0, 31, 57
3, 14030, Note_on_c, 0, 31, 0
3, 14040, Note_on_c, 0, 31, 66
3, 14075, Note_on_c, 0, 31, 0
3, 14085, Note_on_c, 0, 31, 60
3, 14120, Note_on_c, 0, 31, 0
3, 14130, Note_on_c, 0, 46, 75
3, 14165, Note_on_c, 0, 46, 0
3, 14175, Note_on_c, 0, 46, 66
3, 14210, Note_on_c, 0, 46, 0
3, 14220, Note_on_c, 0, 46, 69
3, 14255, Note_on_c, 0, 46, 0
3, 14265, Note_on_c, 0, 46, 64
3, 14300, Note_on_c, 0, 46, 0
3, 14310, Note_on_c, 0, 31, 61
3, 14345, Note_on_c, 0, 31, 0
3, 14355, Note_on_c, 0, 31, 60
3, 14390, Note_on_c, 0, 31, 0
3, 14400, Note_on_c, 0, 33, 64
3, 14435, Note_on_c, 0, 33, 0
3, 14445, Note_on_c, 0, 33, 65
3, 14480, Note_on_c, 0, 33, 0
3, 14490, Note_on_c, 0, 43, 72
3, 14525, Note_on_c, 0, 43, 0
3, 14535, Note_on_c, 0, 43, 68
3, 14570, Note_on_c, 0, 43, 0
3, 14580, Note_on_c, 0, 43, 63
3, 14615, Note_on_c, 0, 43, 0
3, 14625, Note_on_c, 0, 43, 58
3, 14660, Note_on_c, 0, 43, 0
3, 14670, Note_on_c, 0, 33, 59
3, 14705, Note_on_c, 0, 33, 0
3, 14715, Note_on_c, 0, 33, 52
3, 14750, Note_on_c, 0, 33, 0
3, 14760, Note_on_c, 0, 34, 67
3, 14795, Note_on_c, 0, 34, 0
3, 14805, Note_on_c, 0, 34, 64
3, 14840, Note_on_c, 0, 34, 0
3, 14850, Note_on_c, 0, 43, 72
3, 14885, Note_on_c, 0, 43, 0
3, 14895, Note_on_c, 0, 43, 64
3, 14930, Note_on_c, 0, 43, 0
3, 14940, Note_on_c, 0, 43, 66
3, 14975, Note_on_c, 0, 43, 0
3, 14985, Note_on_c, 0, 43, 64
3, 15020, Note_on_c, 0, 43, 0
3, 15030, Note_on_c, 0, 34, 55
3, 15065, Note_on_c, 0, 34, 0
3, 15075, Note_on_c, 0, 34, 52
3, 15110, Note_on_c, 0, 34, 0
3, 15120, Note_on_c, 0, 36, 65
3, 15155, Note_on_c, 0, 36, 0
3, 15165, Note_on_c, 0, 36, 60
3, 15200, Note_on_c, 0, 36, 0
3, 15210, Note_on_c, 0, 43, 72
3, 15245, Note_on_c, 0, 43, 0
3, 15255, Note_on_c, 0, 43, 62
3, 15290, Note_on_c, 0, 43, 0
3, 15300, Note_on_c, 0, 43, 63
3, 15335, Note_on_c, 0, 43, 0
3, 15345, Note_on_c, 0, 43, 59
3, 15380, Note_on_c, 0, 43, 0
3, 15390, Note_on_c, 0, 36, 59
3, 15425, Note_on_c, 0, 36, 0
3, 15435, Note_on_c, 0, 36, 60
3, 15470, Note_on_c, 0, 36, 0
3, 15480, Note_on_c, 0, 38, 65
3, 15515, Note_on_c, 0, 38, 0
3, 15525, Note_on_c, 0, 38, 60
3, 15560, Note_on_c, 0, 38, 0
3, 15570, Note_on_c, 0, 46, 72
3, 15605, Note_on_c, 0, 46, 0
3, 15615, Note_on_c, 0, 46, 65
3, 15650, Note_on_c, 0, 46, 0
3, 15660, Note_on_c, 0, 46, 71
3, 15695, Note_on_c, 0, 46, 0
3, 15705, Note_on_c, 0, 46, 68
3, 15740, Note_on_c, 0, 46, 0
3, 15750, Note_on_c, 0, 38, 63
3, 15785, Note_on_c, 0, 38, 0
3, 15795, Note_on_c, 0, 38, 58
3, 15830, Note_on_c, 0, 38, 0
3, 15840, Note_on_c, 0, 38, 64
3, 15875, Note_on_c, 0, 38, 0
3, 15885, Note_on_c, 0, 38, 58
3, 15920, Note_on_c, 0, 38, 0
3, 15930, Note_on_c, 0, 46, 74
3, 15965, Note_on_c, 0, 46, 0
3, 15975, Note_on_c, 0, 46, 66
3, 16010, Note_on_c, 0, 46, 0
3, 16020, Note_on_c, 0, 46, 71
3, 16055, Note_on_c, 0, 46, 0
3, 16065, Note_on_c, 0, 46, 64
3, 16100, Note_on_c, 0, 46, 0
3, 16110, Note_on_c, 0, 38, 58
3, 16145, Note_on_c, 0, 38, 0
3, 16155, Note_on_c, 0, 38, 56
3, 16190, Note_on_c, 0, 38, 0
3, 16200, Note_on_c, 0, 38, 58
3, 16235, Note_on_c, 0, 38, 0
3, 16245, Note_on_c, 0, 38, 54
3, 16280, Note_on_c, 0, 38, 0
3, 16290, Note_on_c, 0, 45, 70
3, 16325, Note_on_c, 0, 45, 0
3, 16335, Note_on_c, 0, 45, 66
3, 16370, Note_on_c, 0, 45, 0
3, 16380, Note_on_c, 0, 45, 61
3, 16415, Note_on_c, 0, 45, 0
3, 16425, Note_on_c, 0, 45, 59
3, 16460, Note_on_c, 0, 45, 0
3, 16470, Note_on_c, 0, 38, 62
3, 16505, Note_on_c, 0, 38, 0
3, 16515, Note_on_c, 0, 38, 60
3, 16550, Note_on_c, 0, 38, 0
3, 16560, Note_on_c, 0, 36, 62
3, 16595, Note_on_c, 0, 36, 0
3, 16605, Note_on_c, 0, 36, 58
3, 16640, Note_on_c, 0, 36, 0
3, 16650, Note_on_c, 0, 39, 73
3, 16685, Note_on_c, 0, 39, 0
3, 16695, Note_on_c, 0, 39, 70
3, 16730, Note_on_c, 0, 39, 0
3, 16740, Note_on_c, 0, 39, 68
3, 16775, Note_on_c, 0, 39, 0
3, 16785, Note_on_c, 0, 39, 65
3, 16820, Note_on_c, 0, 39, 0
3, 16830, Note_on_c, 0, 36, 61
3, 16865, Note_on_c, 0, 36, 0
3, 16875, Note_on_c, 0, 36, 59
3, 16910, Note_on_c, 0, 36, 0
3, 16920, Note_on_c, 0, 34, 59
3, 16955, Note_on_c, 0, 34, 0
3, 16965, Note_on_c, 0, 34, 56
3, 17000, Note_on_c, 0, 34, 0
3, 17010, Note_on_c, 0, 38, 65
3, 17045, Note_on_c, 0, 38, 0
3, 17055, Note_on_c, 0, 38, 61
3, 17090, Note_on_c, 0, 38, 0
3, 17100, Note_on_c, 0, 38, 72
3, 17135, Note_on_c, 0, 38, 0
3, 17145, Note_on_c, 0, 38, 66
3, 17180, Note_on_c, 0, 38, 0
3, 17190, Note_on_c, 0, 34, 62
3, 17225, Note_on_c, 0, 34, 0
3, 17235, Note_on_c, 0, 34, 59
3, 17270, Note_on_c, 0, 34, 0
3, 17280, Note_on_c, 0, 33, 61
3, 17315, Note_on_c, 0, 33, 0
3, 17325, Note_on_c, 0, 33, 54
3, 17360, Note_on_c, 0, 33, 0
3, 17370, Note_on_c, 0, 40, 72
3, 17405, Note_on_c, 0, 40, 0
3, 17415, Note_on_c, 0, 40, 70
3, 17450, Note_on_c, 0, 40, 0
3, 17460, Note_on_c, 0, 40, 61
3, 17495, Note_on_c, 0, 40, 0
3, 17505, Note_on_c, 0, 40, 58
3, 17540, Note_on_c, 0, 40, 0
3, 17550, Note_on_c, 0, 33, 63
3, 17585, Note_on_c, 0, 33, 0
3, 17595, Note_on_c, 0, 33, 54
3, 17630, Note_on_c, 0, 33, 0
3, 17640, Note_on_c, 0, 34, 59
3, 17675, Note_on_c, 0, 34, 0
3, 17685, Note_on_c, 0, 34, 56
3, 17720, Note_on_c, 0, 34, 0
3, 17730, Note_on_c, 0, 38, 69
3, 17765, Note_on_c, 0, 38, 0
3, 17775, Note_on_c, 0, 38, 69
3, 17810, Note_on_c, 0, 38, 0
3, 17820, Note_on_c, 0, 38, 62
3, 17855, Note_on_c, 0, 38, 0
3, 17865, Note_on_c, 0, 38, 59
3, 17900, Note_on_c, 0, 38, 0
3, 17910, Note_on_c, 0, 34, 60
3, 17945, Note_on_c, 0, 34, 0
3, 17955, Note_on_c, 0, 34, 55
3, 17990, Note_on_c, 0, 34, 0
3, 18000, Note_on_c, 0, 36, 69
3, 18035, Note_on_c, 0, 36, 0
3, 18045, Note_on_c, 0, 36, 64
3, 18080, Note_on_c, 0, 36, 0
3, 18090, Note_on_c, 0, 39, 68
3, 18125, Note_on_c, 0, 39, 0
3, 18135, Note_on_c, 0, 39, 61
3, 18170, Note_on_c, 0, 39, 0
3, 18180, Note_on_c, 0, 39, 65
3, 18215, Note_on_c, 0, 39, 0
3, 18225, Note_on_c, 0, 39, 62
3, 18260, Note_on_c, 0, 39, 0
3, 18270, Note_on_c, 0, 36, 63
3, 18305, Note_on_c, 0, 36, 0
3, 18315, Note_on_c, 0, 36, 57
3, 18350, Note_on_c, 0, 36, 0
3, 18360, Note_on_c, 0, 34, 65
3, 18395, Note_on_c, 0, 34, 0
3, 18405, Note_on_c, 0, 34, 58
3, 18440, Note_on_c, 0, 34, 0
3, 18450, Note_on_c, 0, 38, 70
3, 18485, Note_on_c, 0, 38, 0
3, 18495, Note_on_c, 0, 38, 68
3, 18530, Note_on_c, 0, 38, 0
3, 18540, Note_on_c, 0, 38, 64
3, 18575, Note_on_c, 0, 38, 0
3, 18585, Note_on_c, 0, 38, 59
3, 18620, Note_on_c, 0, 38, 0
3, 18630, Note_on_c, 0, 34, 60
3, 18665, Note_on_c, 0, 34, 0
3, 18675, Note_on_c, 0, 34, 55
3, 18710, Note_on_c, 0, 34, 0
3, 18720, Note_on_c, 0, 33, 63
3, 18755, Note_on_c, 0, 33, 0
3, 18765, Note_on_c, 0, 33, 55
3, 18800, Note_on_c, 0, 33, 0
3, 18810, Note_on_c, 0, 40, 77
3, 18845, Note_on_c, 0, 40, 0
3, 18855, Note_on_c, 0, 40, 72
3, 18890, Note_on_c, 0, 40, 0
3, 18900, Note_on_c, 0, 40, 64
3, 18935, Note_on_c, 0, 40, 0
3, 18945, Note_on_c, 0, 40, 61
3, 18980, Note_on_c, 0, 40, 0
3, 18990, Note_on_c, 0, 33, 62
3, 19025, Note_on_c, 0, 33, 0
3, 19035, Note_on_c, 0, 33, 59
3, 19070, Note_on_c, 0, 33, 0
3, 19080, Note_on_c, 0, 34, 68
3, 19115, Note_on_c, 0, 34, 0
3, 19125, Note_on_c, 0, 34, 65
3, 19160, Note_on_c, 0, 34, 0
3, 19170, Note_on_c, 0, 38, 69
3, 19205, Note_on_c, 0, 38, 0
3, 19215, Note_on_c, 0, 38, 63
3, 19250, Note_on_c, 0, 38, 0
3, 19260, Note_on_c, 0, 38, 67
3, 19295, Note_on_c, 0, 38, 0
3, 19305, Note_on_c, 0, 38, 62
3, 19340, Note_on_c, 0, 38, 0
3, 19350, Note_on_c, 0, 34, 62
3, 19385, Note_on_c, 0, 34, 0
3, 19395, Note_on_c, 0, 34, 57
3, 19430, Note_on_c, 0, 34, 0
3, 19440, Note_on_c, 0, 36, 69
3, 19475, Note_on_c, 0, 36, 0
3, 19485, Note_on_c, 0, 36, 63
3, 19520, Note_on_c, 0, 36, 0
3, 19530, Note_on_c, 0, 43, 72
3, 19565, Note_on_c, 0, 43, 0
3, 19575, Note_on_c, 0, 43, 69
3, 19610, Note_on_c, 0, 43, 0
3, 19620, Note_on_c, 0, 43, 62
3, 19655, Note_on_c, 0, 43, 0
3, 19665, Note_on_c, 0, 43, 62
3, 19700, Note_on_c, 0, 43, 0
3, 19710, Note_on_c, 0, 36, 56
3, 19745, Note_on_c, 0, 36, 0
3, 19755, Note_on_c, 0, 36, 53
3, 19790, Note_on_c, 0, 36, 0
3, 19800, Note_on_c, 0, 34, 61
3, 19835, Note_on_c, 0, 34, 0
3, 19845, Note_on_c, 0, 34, 60
3, 19880, Note_on_c, 0, 34, 0
3, 19890, Note_on_c, 0, 43, 71
3, 19925, Note_on_c, 0, 43, 0
3, 19935, Note_on_c, 0, 43, 68
3, 19970, Note_on_c, 0, 43, 0
3, 19980, Note_on_c, 0, 33, 56
3, 20015, Note_on_c, 0, 33, 0
3, 20025, Note_on_c, 0, 33, 52
3, 20060, Note_on_c, 0, 33, 0
3, 20070, Note_on_c, 0, 43, 73
3, 20105, Note_on_c, 0, 43, 0
3, 20115, Note_on_c, 0, 43, 72
3, 20150, Note_on_c, 0, 43, 0
3, 20160, Note_on_c, 0, 34, 65
3, 20195, Note_on_c, 0, 34, 0
3, 20205, Note_on_c, 0, 34, 66
3, 20240, Note_on_c, 0, 34, 0
3, 20250, Note_on_c, 0, 43, 66
3, 20285, Note_on_c, 0, 43, 0
3, 20295, Note_on_c, 0, 43, 66
3, 20330, Note_on_c, 0, 43, 0
3, 20340, Note_on_c, 0, 35, 66
3, 20375, Note_on_c, 0, 35, 0
3, 20385, Note_on_c, 0, 35, 66
3, 20420, Note_on_c, 0, 35, 0
3, 20430, Note_on_c, 0, 43, 67
3, 20465, Note_on_c, 0, 43, 0
3, 20475, Note_on_c, 0, 43, 67
3, 20510, Note_on_c, 0, 43, 0
3, 20520, Note_on_c, 0, 36, 67
3, 20555, Note_on_c, 0, 36, 0
3, 20565, Note_on_c, 0, 36, 67
3, 20600, Note_on_c, 0, 36, 0
3, 20610, Note_on_c, 0, 43, 67
3, 20645, Note_on_c, 0, 43, 0
3, 20655, Note_on_c, 0, 43, 68
3, 20690, Note_on_c, 0, 43, 0
3, 20700, Note_on_c, 0, 41, 68
3, 20735, Note_on_c, 0, 41, 0
3, 20745, Note_on_c, 0, 41, 68
3, 20780, Note_on_c, 0, 41, 0
3, 20790, Note_on_c, 0, 48, 68
3, 20825, Note_on_c, 0, 48, 0
3, 20835, Note_on_c, 0, 48, 68
3, 20870, Note_on_c, 0, 48, 0
3, 20880, Note_on_c, 0, 36, 69
3, 20915, Note_on_c, 0, 36, 0
3, 20925, Note_on_c, 0, 36, 69
3, 20960, Note_on_c, 0, 36, 0
3, 20970, Note_on_c, 0, 43, 69
3, 21005, Note_on_c, 0, 43, 0
3, 21015, Note_on_c, 0, 43, 69
3, 21050, Note_on_c, 0, 43, 0
3, 21060, Note_on_c, 0, 37, 69
3, 21095, Note_on_c, 0, 37, 0
3, 21105, Note_on_c, 0, 37, 70
3, 21140, Note_on_c, 0, 37, 0
3, 21150, Note_on_c, 0, 46, 70
3, 21185, Note_on_c, 0, 46, 0
3, 21195, Note_on_c, 0, 46, 70
3, 21230, Note_on_c, 0, 46, 0
3, 21240, Note_on_c, 0, 38, 70
3, 21275, Note_on_c, 0, 38, 0
3, 21285, Note_on_c, 0, 38, 70
3, 21320, Note_on_c, 0, 38, 0
3, 21330, Note_on_c, 0, 46, 71
3, 21365, Note_on_c, 0, 46, 0
3, 21375, Note_on_c, 0, 46, 71
3, 21410, Note_on_c, 0, 46, 0
3, 21420, Note_on_c, 0, 39, 71
3, 21455, Note_on_c, 0, 39, 0
3, 21465, Note_on_c, 0, 39, 71
3, 21500, Note_on_c, 0, 39, 0
3, 21510, Note_on_c, 0, 46, 71
3, 21545, Note_on_c, 0, 46, 0
3, 21555, Note_on_c, 0, 46, 72
3, 21590, Note_on_c, 0, 46, 0
3, 21600, Note_on_c, 0, 38, 72
3, 21635, Note_on_c, 0, 38, 0
3, 21645, Note_on_c, 0, 38, 72
3, 21680, Note_on_c, 0, 38, 0
3, 21690, Note_on_c, 0, 46, 72
3, 21725, Note_on_c, 0, 46, 0
3, 21735, Note_on_c, 0, 46, 72
3, 21770, Note_on_c, 0, 46, 0
3, 21780, Note_on_c, 0, 46, 73
3, 21815, Note_on_c, 0, 46, 0
3, 21825, Note_on_c, 0, 46, 73
3, 21860, Note_on_c, 0, 46, 0
3, 21870, Note_on_c, 0, 38, 73
3, 21905, Note_on_c, 0, 38, 0
3, 21915, Note_on_c, 0, 38, 73
3, 21950, Note_on_c, 0, 38, 0
3, 21960, Note_on_c, 0, 46, 73
3, 21995, Note_on_c, 0, 46, 0
3, 22005, Note_on_c, 0, 46, 74
3, 22040, Note_on_c, 0, 46, 0
3, 22050, Note_on_c, 0, 33, 74
3, 22085, Note_on_c, 0, 33, 0
3, 22095, Note_on_c, 0, 33, 74
3, 22130, Note_on_c, 0, 33, 0
3, 22140, Note_on_c, 0, 45, 74
3, 22175, Note_on_c, 0, 45, 0
3, 22185, Note_on_c, 0, 45, 74
3, 22220, Note_on_c, 0, 45, 0
3, 22230, Note_on_c, 0, 33, 75
3, 22265, Note_on_c, 0, 33, 0
3, 22275, Note_on_c, 0, 33, 75
3, 22310, Note_on_c, 0, 33, 0
3, 22320, Note_on_c, 0, 39, 75
3, 22355, Note_on_c, 0, 39, 0
3, 22365, Note_on_c, 0, 39, 75
3, 22400, Note_on_c, 0, 39, 0
3, 22410, Note_on_c, 0, 46, 75
3, 22445, Note_on_c, 0, 46, 0
3, 22455, Note_on_c, 0, 46, 76
3, 22490, Note_on_c, 0, 46, 0
3, 22500, Note_on_c, 0, 46, 76
3, 22535, Note_on_c, 0, 46, 0
3, 22545, Note_on_c, 0, 46, 76
3, 22580, Note_on_c, 0, 46, 0
3, 22590, Note_on_c, 0, 39, 76
3, 22625, Note_on_c, 0, 39, 0
3, 22635, Note_on_c, 0, 39, 76
3, 22670, Note_on_c, 0, 39, 0
3, 22680, Note_on_c, 0, 46, 77
3, 22715, Note_on_c, 0, 46, 0
3, 22725, Note_on_c, 0, 46, 77
3, 22760, Note_on_c, 0, 46, 0
3, 22770, Note_on_c, 0, 33, 77
3, 22805, Note_on_c, 0, 33, 0
3, 22815, Note_on_c, 0, 33, 77
3, 22850, Note_on_c, 0, 33, 0
3, 22860, Note_on_c, 0, 45, 77
3, 22895, Note_on_c, 0, 45, 0
3, 22905, Note_on_c, 0, 45, 78
3, 22940, Note_on_c, 0, 45, 0
3, 22950, Note_on_c, 0, 33, 78
3, 22985, Note_on_c, 0, 33, 0
3, 22995, Note_on_c, 0, 33, 78
3, 23030, Note_on_c, 0, 33, 0
3, 23040, Note_on_c, 0, 39, 78
3, 23075, Note_on_c, 0, 39, 0
3, 23085, Note_on_c, 0, 39, 78
3, 23120, Note_on_c, 0, 39, 0
3, 23130, Note_on_c, 0, 46, 88
3, 23165, Note_on_c, 0, 46, 0
3, 23175, Note_on_c, 0, 46, 84
3, 23210, Note_on_c, 0, 46, 0
3, 23220, Note_on_c, 0, 45, 73
3, 23255, Note_on_c, 0, 45, 0
3, 23265, Note_on_c, 0, 45, 72
3, 23300, Note_on_c, 0, 45, 0
3, 23310, Note_on_c, 0, 33, 68
3, 23345, Note_on_c, 0, 33, 0
3, 23355, Note_on_c, 0, 33, 62
3, 23390, Note_on_c, 0, 33, 0
3, 23400, Note_on_c, 0, 39, 79
3, 23435, Note_on_c, 0, 39, 0
3, 23445, Note_on_c, 0, 39, 72
3, 23480, Note_on_c, 0, 39, 0
3, 23490, Note_on_c, 0, 46, 83
3, 23525, Note_on_c, 0, 46, 0
3, 23535, Note_on_c, 0, 46, 82
3, 23570, Note_on_c, 0, 46, 0
3, 23580, Note_on_c, 0, 45, 80
3, 23615, Note_on_c, 0, 45, 0
3, 23625, Note_on_c, 0, 45, 75
3, 23660, Note_on_c, 0, 45, 0
3, 23670, Note_on_c, 0, 33, 68
3, 23705, Note_on_c, 0, 33, 0
3, 23715, Note_on_c, 0, 33, 64
3, 23750, Note_on_c, 0, 33, 0
3, 23760, Note_on_c, 0, 38, 88
3, 23795, Note_on_c, 0, 38, 0
3, 23805, Note_on_c, 0, 38, 76
3, 23840, Note_on_c, 0, 38, 0
3, 23850, Note_on_c, 0, 44, 83
3, 23885, Note_on_c, 0, 44, 0
3, 23895, Note_on_c, 0, 44, 82
3, 23930, Note_on_c, 0, 44, 0
3, 23940, Note_on_c, 0, 43, 80
3, 23975, Note_on_c, 0, 43, 0
3, 23985, Note_on_c, 0, 43, 69
3, 24020, Note_on_c, 0, 43, 0
3, 24030, Note_on_c, 0, 31, 66
3, 24065, Note_on_c, 0, 31, 0
3, 24075, Note_on_c, 0, 31, 59
3, 24110, Note_on_c, 0, 31, 0
3, 24120, Note_on_c, 0, 38, 84
3, 24155, Note_on_c, 0, 38, 0
3, 24165, Note_on_c, 0, 38, 80
3, 24200, Note_on_c, 0, 38, 0
3, 24210, Note_on_c, 0, 44, 77
3, 24245, Note_on_c, 0, 44, 0
3, 24255, Note_on_c, 0, 44, 73
3, 24290, Note_on_c, 0, 44, 0
3, 24300, Note_on_c, 0, 43, 78
3, 24335, Note_on_c, 0, 43, 0
3, 24345, Note_on_c, 0, 43, 71
3, 24380, Note_on_c, 0, 43, 0
3, 24390, Note_on_c, 0, 31, 68
3, 24425, Note_on_c, 0, 31, 0
3, 24435, Note_on_c, 0, 31, 60
3, 24470, Note_on_c, 0, 31, 0
3, 24480, Note_on_c, 0, 36, 78
3, 24515, Note_on_c, 0, 36, 0
3, 24525, Note_on_c, 0, 36, 78
3, 24560, Note_on_c, 0, 36, 0
3, 24570, Note_on_c, 0, 43, 77
3, 24605, Note_on_c, 0, 43, 0
3, 24615, Note_on_c, 0, 43, 77
3, 24650, Note_on_c, 0, 43, 0
3, 24660, Note_on_c, 0, 43, 77
3, 24695, Note_on_c, 0, 43, 0
3, 24705, Note_on_c, 0, 43, 76
3, 24740, Note_on_c, 0, 43, 0
3, 24750, Note_on_c, 0, 36, 76
3, 24785, Note_on_c, 0, 36, 0
3, 24795, Note_on_c, 0, 36, 75
3, 24830, Note_on_c, 0, 36, 0
3, 24840, Note_on_c, 0, 36, 75
3, 24875, Note_on_c, 0, 36, 0
3, 24885, Note_on_c, 0, 36, 75
3, 24920, Note_on_c, 0, 36, 0
3, 24930, Note_on_c, 0, 43, 74
3, 24965, Note_on_c, 0, 43, 0
3, 24975, Note_on_c, 0, 43, 74
3, 25010, Note_on_c, 0, 43, 0
3, 25020, Note_on_c, 0, 43, 73
3, 25055, Note_on_c, 0, 43, 0
3, 25065, Note_on_c, 0, 43, 73
3, 25100, Note_on_c, 0, 43, 0
3, 25110, Note_on_c, 0, 36, 73
3, 25145, Note_on_c, 0, 36, 0
3, 25155, Note_on_c, 0, 36, 72
3, 25190, Note_on_c, 0, 36, 0
3, 25200, Note_on_c, 0, 37, 72
3, 25235, Note_on_c, 0, 37, 0
3, 25245, Note_on_c, 0, 37, 71
3, 25280, Note_on_c, 0, 37, 0
3, 25290, Note_on_c, 0, 43, 71
3, 25325, Note_on_c, 0, 43, 0
3, 25335, Note_on_c, 0, 43, 71
3, 25370, Note_on_c, 0, 43, 0
3, 25380, Note_on_c, 0, 43, 70
3, 25415, Note_on_c, 0, 43, 0
3, 25425, Note_on_c, 0, 43, 70
3, 25460, Note_on_c, 0, 43, 0
3, 25470, Note_on_c, 0, 37, 69
3, 25505, Note_on_c, 0, 37, 0
3, 25515, Note_on_c, 0, 37, 69
3, 25550, Note_on_c, 0, 37, 0
3, 25560, Note_on_c, 0, 37, 69
3, 25595, Note_on_c, 0, 37, 0
3, 25605, Note_on_c, 0, 37, 68
3, 25640, Note_on_c, 0, 37, 0
3, 25650, Note_on_c, 0, 43, 68
3, 25685, Note_on_c, 0, 43, 0
3, 25695, Note_on_c, 0, 43, 67
3, 25730, Note_on_c, 0, 43, 0
3, 25740, Note_on_c, 0, 43, 67
3, 25775, Note_on_c, 0, 43, 0
3, 25785, Note_on_c, 0, 43, 67
3, 25820, Note_on_c, 0, 43, 0
3, 25830, Note_on_c, 0, 37, 66
3, 25865, Note_on_c, 0, 37, 0
3, 25875, Note_on_c, 0, 37, 66
3, 25910, Note_on_c, 0, 37, 0
3, 25920, Note_on_c, 0, 38, 65
3, 25955, Note_on_c, 0, 38, 0
3, 25965, Note_on_c, 0, 38, 65
3, 26000, Note_on_c, 0, 38, 0
3, 26010, Note_on_c, 0, 26, 54
3, 26045, Note_on_c, 0, 26, 0
3, 26055, Note_on_c, 0, 26, 51
3, 26090, Note_on_c, 0, 26, 0
3, 26100, Note_on_c, 0, 26, 68
3, 26135, Note_on_c, 0, 26, 0
3, 26145, Note_on_c, 0, 26, 65
3, 26180, Note_on_c, 0, 26, 0
3, 26190, Note_on_c, 0, 38, 73
3, 26225, Note_on_c, 0, 38, 0
3, 26235, Note_on_c, 0, 38, 67
3, 26270, Note_on_c, 0, 38, 0
3, 26280, Note_on_c, 0, 38, 64
3, 26315, Note_on_c, 0, 38, 0
3, 26325, Note_on_c, 0, 38, 64
3, 26360, Note_on_c, 0, 38, 0
3, 26370, Note_on_c, 0, 26, 55
3, 26405, Note_on_c, 0, 26, 0
3, 26415, Note_on_c, 0, 26, 50
3, 26450, Note_on_c, 0, 26, 0
3, 26460, Note_on_c, 0, 26, 68
3, 26495, Note_on_c, 0, 26, 0
3, 26505, Note_on_c, 0, 26, 64
3, 26540, Note_on_c, 0, 26, 0
3, 26550, Note_on_c, 0, 38, 71
3, 26585, Note_on_c, 0, 38, 0
3, 26595, Note_on_c, 0, 38, 68
3, 26630, Note_on_c, 0, 38, 0
3, 26640, Note_on_c, 0, 38, 68
3, 26675, Note_on_c, 0, 38, 0
3, 26685, Note_on_c, 0, 38, 66
3, 26720, Note_on_c, 0, 38, 0
3, 26730, Note_on_c, 0, 26, 53
3, 26765, Note_on_c, 0, 26, 0
3, 26775, Note_on_c, 0, 26, 51
3, 26810, Note_on_c, 0, 26, 0
3, 26820, Note_on_c, 0, 26, 62
3, 26855, Note_on_c, 0, 26, 0
3, 26865, Note_on_c, 0, 26, 60
3, 26900, Note_on_c, 0, 26, 0
3, 26910, Note_on_c, 0, 38, 75
3, 26945, Note_on_c, 0, 38, 0
3, 26955, Note_on_c, 0, 38, 71
3, 26990, Note_on_c, 0, 38, 0
3, 27000, Note_on_c, 0, 38, 68
3, 27035, Note_on_c, 0, 38, 0
3, 27045, Note_on_c, 0, 38, 65
3, 27080, Note_on_c, 0, 38, 0
3, 27090, Note_on_c, 0, 26, 59
3, 27125, Note_on_c, 0, 26, 0
3, 27135, Note_on_c, 0, 26, 60
3, 27170, Note_on_c, 0, 26, 0
3, 27180, Note_on_c, 0, 26, 65
3, 27215, Note_on_c, 0, 26, 0
3, 27225, Note_on_c, 0, 26, 60
3, 27260, Note_on_c, 0, 26, 0
3, 27270, Note_on_c, 0, 38, 72
3, 27305, Note_on_c, 0, 38, 0
3, 27315, Note_on_c, 0, 38, 69
3, 27350, Note_on_c, 0, 38, 0
3, 27360, Note_on_c, 0, 31, 60
3, 27450, Note_on_c, 0, 31, 0
3, 28260, Note_on_c, 0, 43, 82
3, 28440, Note_on_c, 0, 43, 0
3, 28440, Note_on_c, 0, 45, 88
3, 28620, Note_on_c, 0, 45, 0
3, 28620, Note_on_c, 0, 46, 91
3, 28800, Note_on_c, 0, 46, 0
3, 28800, Note_on_c, 0, 50, 96
3, 29700, Note_on_c, 0, 50, 0
3, 29700, Note_on_c, 0, 43, 83
3, 29880, Note_on_c, 0, 43, 0
3, 29880, Note_on_c, 0, 45, 91
3, 30060, Note_on_c, 0, 45, 0
3, 30060, Note_on_c, 0, 46, 93
3, 30240, Note_on_c, 0, 46, 0
3, 30240, Note_on_c, 0, 50, 95
3, 31140, Note_on_c, 0, 50, 0
3, 31140, Note_on_c, 0, 55, 98
3, 31320, Note_on_c, 0, 55, 0
3, 31320, Note_on_c, 0, 53, 92
3, 31500, Note_on_c, 0, 53, 0
3, 31500, Note_on_c, 0, 50, 81
3, 31680, Note_on_c, 0, 50, 0
3, 31680, Note_on_c, 0, 46, 81
3, 31860, Note_on_c, 0, 46, 0
3, 31860, Note_on_c, 0, 51, 104
3, 32040, Note_on_c, 0, 51, 0
3, 32040, Note_on_c, 0, 50, 84
3, 32220, Note_on_c, 0, 50, 0
3, 32220, Note_on_c, 0, 46, 83
3, 32400, Note_on_c, 0, 46, 0
3, 32400, Note_on_c, 0, 43, 84
3, 32580, Note_on_c, 0, 43, 0
3, 32580, Note_on_c, 0, 48, 100
3, 32760, Note_on_c, 0, 48, 0
3, 32760, Note_on_c, 0, 46, 86
3, 32940, Note_on_c, 0, 46, 0
3, 32940, Note_on_c, 0, 43, 86
3, 33120, Note_on_c, 0, 43, 0
3, 33120, Note_on_c, 0, 40, 86
3, 33480, Note_on_c, 0, 40, 0
3, 33480, Note_on_c, 0, 42, 88
3, 33750, Note_on_c, 0, 42, 0
3, 33750, Note_on_c, 0, 43, 86
3, 33840, Note_on_c, 0, 43, 0
3, 33840, Note_on_c, 0, 43, 89
3, 34740, Note_on_c, 0, 43, 0
3, 39690, Note_on_c, 0, 33, 83
3, 39780, Note_on_c, 0, 33, 0
3, 39780, Note_on_c, 0, 34, 93
3, 39870, Note_on_c, 0, 34, 0
3, 39870, Note_on_c, 0, 36, 92
3, 39960, Note_on_c, 0, 36, 0
3, 39960, Note_on_c, 0, 38, 95
3, 40050, Note_on_c, 0, 38, 0
3, 40050, Note_on_c, 0, 40, 88
3, 40140, Note_on_c, 0, 40, 0
3, 40140, Note_on_c, 0, 42, 90
3, 40230, Note_on_c, 0, 42, 0
3, 40230, Note_on_c, 0, 43, 88
3, 40320, Note_on_c, 0, 43, 0
3, 40320, Note_on_c, 0, 46, 94
3, 40590, Note_on_c, 0, 46, 0
3, 40590, Note_on_c, 0, 45, 86
3, 40680, Note_on_c, 0, 45, 0
3, 40680, Note_on_c, 0, 43, 84
3, 40860, Note_on_c, 0, 43, 0
3, 41940, Note_on_c, 0, 49, 105
3, 42300, Note_on_c, 0, 49, 0
3, 42300, Note_on_c, 0, 50, 91
3, 42480, Note_on_c, 0, 50, 0
3, 42930, Note_on_c, 0, 43, 88
3, 43020, Note_on_c, 0, 43, 0
3, 43020, Note_on_c, 0, 50, 89
3, 43110, Note_on_c, 0, 50, 0
3, 43110, Note_on_c, 0, 48, 89
3, 43200, Note_on_c, 0, 48, 0
3, 43200, Note_on_c, 0, 43, 89
3, 43650, Note_on_c, 0, 43, 0
3, 43650, Note_on_c, 0, 48, 91
3, 43740, Note_on_c, 0, 48, 0
3, 43740, Note_on_c, 0, 55, 92
3, 43830, Note_on_c, 0, 55, 0
3, 43830, Note_on_c, 0, 53, 92
3, 43920, Note_on_c, 0, 53, 0
3, 43920, Note_on_c, 0, 48, 92
3, 44100, Note_on_c, 0, 48, 0
3, 44100, Note_on_c, 0, 46, 93
3, 44370, Note_on_c, 0, 46, 0
3, 44370, Note_on_c, 0, 50, 94
3, 44460, Note_on_c, 0, 50, 0
3, 44460, Note_on_c, 0, 57, 94
3, 44550, Note_on_c, 0, 57, 0
3, 44550, Note_on_c, 0, 55, 95
3, 44640, Note_on_c, 0, 55, 0
3, 44640, Note_on_c, 0, 50, 95
3, 45180, Note_on_c, 0, 50, 0
3, 45180, Note_on_c, 0, 49, 97
3, 45360, Note_on_c, 0, 49, 0
3, 45360, Note_on_c, 0, 55, 98
3, 45540, Note_on_c, 0, 55, 0
3, 45540, Note_on_c, 0, 51, 99
3, 45630, Note_on_c, 0, 51, 0
3, 45630, Note_on_c, 0, 50, 99
3, 45720, Note_on_c, 0, 50, 0
3, 45720, Note_on_c, 0, 50, 100
3, 45900, Note_on_c, 0, 50, 0
3, 45900, Note_on_c, 0, 49, 100
3, 46080, Note_on_c, 0, 49, 0
3, 46080, Note_on_c, 0, 55, 112
3, 46170, Note_on_c, 0, 55, 0
3, 46170, Note_on_c, 0, 51, 91
3, 46260, Note_on_c, 0, 51, 0
3, 46260, Note_on_c, 0, 50, 96
3, 46350, Note_on_c, 0, 50, 0
3, 46350, Note_on_c, 0, 49, 99
3, 46440, Note_on_c, 0, 49, 0
3, 46440, Note_on_c, 0, 55, 119
3, 46530, Note_on_c, 0, 55, 0
3, 46530, Note_on_c, 0, 51, 97
3, 46620, Note_on_c, 0, 51, 0
3, 46620, Note_on_c, 0, 50, 99
3, 46710, Note_on_c, 0, 50, 0
3, 46710, Note_on_c, 0, 49, 96
3, 46800, Note_on_c, 0, 49, 0
3, 46800, Note_on_c, 0, 53, 110
3, 46890, Note_on_c, 0, 53, 0
3, 46890, Note_on_c, 0, 50, 94
3, 46980, Note_on_c, 0, 50, 0
3, 46980, Note_on_c, 0, 48, 99
3, 47070, Note_on_c, 0, 48, 0
3, 47070, Note_on_c, 0, 47, 103
3, 47160, Note_on_c, 0, 47, 0
3, 47160, Note_on_c, 0, 53, 117
3, 47250, Note_on_c, 0, 53, 0
3, 47250, Note_on_c, 0, 50, 96
3, 47340, Note_on_c, 0, 50, 0
3, 47340, Note_on_c, 0, 48, 97
3, 47430, Note_on_c, 0, 48, 0
3, 47430, Note_on_c, 0, 47, 99
3, 47520, Note_on_c, 0, 47, 0
3, 47520, Note_on_c, 0, 48, 110
3, 47610, Note_on_c, 0, 48, 0
3, 47610, Note_on_c, 0, 43, 95
3, 47700, Note_on_c, 0, 43, 0
3, 47700, Note_on_c, 0, 45, 106
3, 47790, Note_on_c, 0, 45, 0
3, 47790, Note_on_c, 0, 47, 102
3, 47880, Note_on_c, 0, 47, 0
3, 47880, Note_on_c, 0, 48, 102
3, 47970, Note_on_c, 0, 48, 0
3, 47970, Note_on_c, 0, 50, 102
3, 48060, Note_on_c, 0, 50, 0
3, 48060, Note_on_c, 0, 51, 101
3, 48330, Note_on_c, 0, 51, 0
3, 48330, Note_on_c, 0, 39, 100
3, 48420, Note_on_c, 0, 39, 0
3, 48420, Note_on_c, 0, 41, 100
3, 48510, Note_on_c, 0, 41, 0
3, 48510, Note_on_c, 0, 43, 99
3, 48600, Note_on_c, 0, 43, 0
3, 48600, Note_on_c, 0, 46, 99
3, 49050, Note_on_c, 0, 46, 0
3, 49050, Note_on_c, 0, 40, 96
3, 49140, Note_on_c, 0, 40, 0
3, 49140, Note_on_c, 0, 42, 96
3, 49230, Note_on_c, 0, 42, 0
3, 49230, Note_on_c, 0, 43, 95
3, 49320, Note_on_c, 0, 43, 0
3, 49320, Note_on_c, 0, 46, 95
3, 49680, Note_on_c, 0, 46, 0
3, 49680, Note_on_c, 0, 45, 93
3, 49770, Note_on_c, 0, 45, 0
3, 49770, Note_on_c, 0, 42, 93
3, 49860, Note_on_c, 0, 42, 0
3, 49860, Note_on_c, 0, 43, 92
3, 49950, Note_on_c, 0, 43, 0
3, 49950, Note_on_c, 0, 45, 92
3, 50040, Note_on_c, 0, 45, 0
3, 50040, Note_on_c, 0, 48, 91
3, 50400, Note_on_c, 0, 48, 0
3, 50400, Note_on_c, 0, 46, 65
3, 50580, Note_on_c, 0, 46, 0
3, 57600, Note_on_c, 0, 38, 56
3, 57672, Note_on_c, 0, 38, 0
3, 57690, Note_on_c, 0, 38, 54
3, 57762, Note_on_c, 0, 38, 0
3, 57780, Note_on_c, 0, 38, 58
3, 57852, Note_on_c, 0, 38, 0
3, 57870, Note_on_c, 0, 38, 57
3, 57942, Note_on_c, 0, 38, 0
3, 57960, Note_on_c, 0, 38, 59
3, 58032, Note_on_c, 0, 38, 0
3, 58050, Note_on_c, 0, 38, 54
3, 58122, Note_on_c, 0, 38, 0
3, 58140, Note_on_c, 0, 38, 57
3, 58212, Note_on_c, 0, 38, 0
3, 58230, Note_on_c, 0, 38, 55
3, 58302, Note_on_c, 0, 38, 0
3, 58320, Note_on_c, 0, 38, 56
3, 58392, Note_on_c, 0, 38, 0
3, 58410, Note_on_c, 0, 38, 54
3, 58482, Note_on_c, 0, 38, 0
3, 58500, Note_on_c, 0, 38, 57
3, 58572, Note_on_c, 0, 38, 0
3, 58590, Note_on_c, 0, 38, 50
3, 58662, Note_on_c, 0, 38, 0
3, 58680, Note_on_c, 0, 38, 56
3, 58752, Note_on_c, 0, 38, 0
3, 58770, Note_on_c, 0, 38, 55
3, 58842, Note_on_c, 0, 38, 0
3, 58860, Note_on_c, 0, 38, 58
3, 58932, Note_on_c, 0, 38, 0
3, 58950, Note_on_c, 0, 38, 55
3, 59022, Note_on_c, 0, 38, 0
3, 59040, Note_on_c, 0, 38, 68
3, 59112, Note_on_c, 0, 38, 0
3, 59130, Note_on_c, 0, 38, 62
3, 59202, Note_on_c, 0, 38, 0
3, 59220, Note_on_c, 0, 38, 63
3, 59292, Note_on_c, 0, 38, 0
3, 59310, Note_on_c, 0, 38, 66
3, 59382, Note_on_c, 0, 38, 0
3, 59400, Note_on_c, 0, 38, 66
3, 59472, Note_on_c, 0, 38, 0
3, 59490, Note_on_c, 0, 38, 61
3, 59562, Note_on_c, 0, 38, 0
3, 59580, Note_on_c, 0, 38, 63
3, 59652, Note_on_c, 0, 38, 0
3, 59670, Note_on_c, 0, 38, 62
3, 59742, Note_on_c, 0, 38, 0
3, 59760, Note_on_c, 0, 38, 67
3, 59832, Note_on_c, 0, 38, 0
3, 59850, Note_on_c, 0, 38, 59
3, 59922, Note_on_c, 0, 38, 0
3, 59940, Note_on_c, 0, 38, 66
3, 60012, Note_on_c, 0, 38, 0
3, 60030, Note_on_c, 0, 38, 62
3, 60102, Note_on_c, 0, 38, 0
3, 60120, Note_on_c, 0, 38, 64
3, 60192, Note_on_c, 0, 38, 0
3, 60210, Note_on_c, 0, 38, 63
3, 60282, Note_on_c, 0, 38, 0
3, 60300, Note_on_c, 0, 38, 65
3, 60372, Note_on_c, 0, 38, 0
3, 60390, Note_on_c, 0, 38, 61
3, 60462, Note_on_c, 0, 38, 0
3, 60480, Note_on_c, 0, 38, 66
3, 60552, Note_on_c, 0, 38, 0
3, 60570, Note_on_c, 0, 38, 63
3, 60642, Note_on_c, 0, 38, 0
3, 60660, Note_on_c, 0, 38, 69
3, 60732, Note_on_c, 0, 38, 0
3, 60750, Note_on_c, 0, 38, 65
3, 60822, Note_on_c, 0, 38, 0
3, 60840, Note_on_c, 0, 38, 66
3, 60912, Note_on_c, 0, 38, 0
3, 60930, Note_on_c, 0, 38, 64
3, 61002, Note_on_c, 0, 38, 0
3, 61020, Note_on_c, 0, 38, 69
3, 61092, Note_on_c, 0, 38, 0
3, 61110, Note_on_c, 0, 38, 67
3, 61182, Note_on_c, 0, 38, 0
3, 61200, Note_on_c, 0, 38, 67
3, 61272, Note_on_c, 0, 38, 0
3, 61290, Note_on_c, 0, 38, 64
3, 61362, Note_on_c, 0, 38, 0
3, 61380, Note_on_c, 0, 38, 67
3, 61452, Note_on_c, 0, 38, 0
3, 61470, Note_on_c, 0, 38, 68
3, 61542, Note_on_c, 0, 38, 0
3, 61560, Note_on_c, 0, 38, 63
3, 61632, Note_on_c, 0, 38, 0
3, 61650, Note_on_c, 0, 38, 61
3, 61722, Note_on_c, 0, 38, 0
3, 61740, Note_on_c, 0, 38, 69
3, 61812, Note_on_c, 0, 38, 0
3, 61830, Note_on_c, 0, 38, 60
3, 61902, Note_on_c, 0, 38, 0
3, 61920, Note_on_c, 0, 38, 65
3, 61992, Note_on_c, 0, 38, 0
3, 62010, Note_on_c, 0, 38, 62
3, 62082, Note_on_c, 0, 38, 0
3, 62100, Note_on_c, 0, 38, 61
3, 62172, Note_on_c, 0, 38, 0
3, 62190, Note_on_c, 0, 38, 58
3, 62262, Note_on_c, 0, 38, 0
3, 62280, Note_on_c, 0, 38, 65
3, 62352, Note_on_c, 0, 38, 0
3, 62370, Note_on_c, 0, 38, 59
3, 62442, Note_on_c, 0, 38, 0
3, 62460, Note_on_c, 0, 38, 58
3, 62532, Note_on_c, 0, 38, 0
3, 62550, Note_on_c, 0, 38, 62
3, 62622, Note_on_c, 0, 38, 0
3, 62640, Note_on_c, 0, 38, 64
3, 62712, Note_on_c, 0, 38, 0
3, 62730, Note_on_c, 0, 38, 61
3, 62802, Note_on_c, 0, 38, 0
3, 62820, Note_on_c, 0, 38, 61
3, 62892, Note_on_c, 0, 38, 0
3, 62910, Note_on_c, 0, 38, 61
3, 62982, Note_on_c, 0, 38, 0
3, 63000, Note_on_c, 0, 38, 63
3, 63072, Note_on_c, 0, 38, 0
3, 63090, Note_on_c, 0, 38, 62
3, 63162, Note_on_c, 0, 38, 0
3, 63180, Note_on_c, 0, 38, 60
3, 63252, Note_on_c, 0, 38, 0
3, 63270, Note_on_c, 0, 38, 59
3, 63342, Note_on_c, 0, 38, 0
3, 63360, Note_on_c, 0, 38, 61
3, 63432, Note_on_c, 0, 38, 0
3, 63450, Note_on_c, 0, 38, 58
3, 63522, Note_on_c, 0, 38, 0
3, 63540, Note_on_c, 0, 38, 59
3, 63612, Note_on_c, 0, 38, 0
3, 63630, Note_on_c, 0, 38, 57
3, 63702, Note_on_c, 0, 38, 0
3, 63720, Note_on_c, 0, 38, 61
3, 63792, Note_on_c, 0, 38, 0
3, 63810, Note_on_c, 0, 38, 57
3, 63882, Note_on_c, 0, 38, 0
3, 63900, Note_on_c, 0, 38, 61
3, 63972, Note_on_c, 0, 38, 0
3, 63990, Note_on_c, 0, 38, 58
3, 64062, Note_on_c, 0, 38, 0
3, 64080, Note_on_c, 0, 38, 62
3, 64152, Note_on_c, 0, 38, 0
3, 64170, Note_on_c, 0, 38, 62
3, 64242, Note_on_c, 0, 38, 0
3, 64260, Note_on_c, 0, 38, 62
3, 64332, Note_on_c, 0, 38, 0
3, 64350, Note_on_c, 0, 38, 58
3, 64422, Note_on_c, 0, 38, 0
3, 64440, Note_on_c, 0, 38, 61
3, 64512, Note_on_c, 0, 38, 0
3, 64530, Note_on_c, 0, 38, 58
3, 64602, Note_on_c, 0, 38, 0
3, 64620, Note_on_c, 0, 38, 58
3, 64692, Note_on_c, 0, 38, 0
3, 64710, Note_on_c, 0, 38, 57
3, 64782, Note_on_c, 0, 38, 0
3, 64800, Note_on_c, 0, 38, 87
3, 64890, Note_on_c, 0, 38, 0
3, 76320, Note_on_c, 0, 48, 80
3, 76860, Note_on_c, 0, 48, 0
3, 76860, Note_on_c, 0, 49, 87
3, 77040, Note_on_c, 0, 49, 0
3, 77040, Note_on_c, 0, 51, 94
3, 77220, Note_on_c, 0, 51, 0
3, 77220, Note_on_c, 0, 49, 83
3, 77400, Note_on_c, 0, 49, 0
3, 77400, Note_on_c, 0, 51, 96
3, 77580, Note_on_c, 0, 51, 0
3, 77580, Note_on_c, 0, 48, 87
3, 77760, Note_on_c, 0, 48, 0
3, 77760, Note_on_c, 0, 53, 99
3, 78480, Note_on_c, 0, 53, 0
3, 78480, Note_on_c, 0, 48, 84
3, 78660, Note_on_c, 0, 48, 0
3, 79200, Note_on_c, 0, 48, 80
3, 79380, Note_on_c, 0, 48, 0
3, 79380, Note_on_c, 0, 46, 79
3, 79560, Note_on_c, 0, 46, 0
3, 79560, Note_on_c, 0, 48, 94
3, 79740, Note_on_c, 0, 48, 0
3, 79740, Note_on_c, 0, 49, 92
3, 79920, Note_on_c, 0, 49, 0
3, 79920, Note_on_c, 0, 51, 92
3, 80100, Note_on_c, 0, 51, 0
3, 80100, Note_on_c, 0, 49, 82
3, 80280, Note_on_c, 0, 49, 0
3, 80280, Note_on_c, 0, 51, 94
3, 80460, Note_on_c, 0, 51, 0
3, 80460, Note_on_c, 0, 48, 83
3, 80640, Note_on_c, 0, 48, 0
3, 80640, Note_on_c, 0, 53, 95
3, 81360, Note_on_c, 0, 53, 0
3, 81360, Note_on_c, 0, 48, 76
3, 81540, Note_on_c, 0, 48, 0
3, 82080, Note_on_c, 0, 50, 78
3, 82620, Note_on_c, 0, 50, 0
3, 82620, Note_on_c, 0, 51, 92
3, 82800, Note_on_c, 0, 51, 0
3, 82800, Note_on_c, 0, 53, 92
3, 82980, Note_on_c, 0, 53, 0
3, 82980, Note_on_c, 0, 51, 83
3, 83160, Note_on_c, 0, 51, 0
3, 83160, Note_on_c, 0, 53, 94
3, 83340, Note_on_c, 0, 53, 0
3, 83340, Note_on_c, 0, 50, 85
3, 83520, Note_on_c, 0, 50, 0
3, 83520, Note_on_c, 0, 55, 103
3, 84240, Note_on_c, 0, 55, 0
3, 84240, Note_on_c, 0, 50, 80
3, 84420, Note_on_c, 0, 50, 0
3, 84960, Note_on_c, 0, 52, 79
3, 85500, Note_on_c, 0, 52, 0
3, 85500, Note_on_c, 0, 53, 90
3, 85680, Note_on_c, 0, 53, 0
3, 85680, Note_on_c, 0, 55, 92
3, 85860, Note_on_c, 0, 55, 0
3, 85860, Note_on_c, 0, 53, 85
3, 86040, Note_on_c, 0, 53, 0
3, 86040, Note_on_c, 0, 55, 95
3, 86220, Note_on_c, 0, 55, 0
3, 86220, Note_on_c, 0, 52, 82
3, 86400, Note_on_c, 0, 52, 0
3, 86400, Note_on_c, 0, 57, 99
3, 86760, Note_on_c, 0, 57, 0
3, 86760, Note_on_c, 0, 52, 83
3, 87120, Note_on_c, 0, 52, 0
3, 87120, Note_on_c, 0, 55, 89
3, 87480, Note_on_c, 0, 55, 0
3, 87480, Note_on_c, 0, 50, 79
3, 87840, Note_on_c, 0, 50, 0
3, 87840, Note_on_c, 0, 57, 102
3, 88200, Note_on_c, 0, 57, 0
3, 88200, Note_on_c, 0, 52, 79
3, 88560, Note_on_c, 0, 52, 0
3, 88560, Note_on_c, 0, 55, 110
3, 88877, Note_on_c, 0, 55, 0
3, 88920, Note_on_c, 0, 50, 91
3, 89237, Note_on_c, 0, 50, 0
3, 89280, Note_on_c, 0, 57, 88
3, 90575, Note_on_c, 0, 57, 0
3, 90720, Note_on_c, 0, 58, 101
3, 91080, Note_on_c, 0, 58, 0
3, 91080, Note_on_c, 0, 57, 96
3, 91260, Note_on_c, 0, 57, 0
3, 91260, Note_on_c, 0, 55, 100
3, 91440, Note_on_c, 0, 55, 0
3, 91440, Note_on_c, 0, 54, 97
3, 91620, Note_on_c, 0, 54, 0
3, 91620, Note_on_c, 0, 55, 109
3, 91800, Note_on_c, 0, 55, 0
3, 91800, Note_on_c, 0, 57, 108
3, 91980, Note_on_c, 0, 57, 0
3, 91980, Note_on_c, 0, 51, 87
3, 92160, Note_on_c, 0, 51, 0
3, 92160, Note_on_c, 0, 50, 92
3, 92520, Note_on_c, 0, 50, 0
3, 92520, Note_on_c, 0, 55, 116
3, 93060, Note_on_c, 0, 55, 0
3, 93060, Note_on_c, 0, 53, 95
3, 93240, Note_on_c, 0, 53, 0
3, 93240, Note_on_c, 0, 51, 92
3, 93420, Note_on_c, 0, 51, 0
3, 93420, Note_on_c, 0, 50, 89
3, 93600, Note_on_c, 0, 50, 0
3, 93600, Note_on_c, 0, 51, 109
3, 93960, Note_on_c, 0, 51, 0
3, 93960, Note_on_c, 0, 50, 95
3, 94140, Note_on_c, 0, 50, 0
3, 94140, Note_on_c, 0, 48, 95
3, 94320, Note_on_c, 0, 48, 0
3, 94320, Note_on_c, 0, 48, 103
3, 94500, Note_on_c, 0, 48, 0
3, 94500, Note_on_c, 0, 46, 98
3, 94680, Note_on_c, 0, 46, 0
3, 94680, Note_on_c, 0, 45, 98
3, 94860, Note_on_c, 0, 45, 0
3, 94860, Note_on_c, 0, 43, 100
3, 95040, Note_on_c, 0, 43, 0
3, 95040, Note_on_c, 0, 50, 119
3, 95400, Note_on_c, 0, 50, 0
3, 95400, Note_on_c, 0, 45, 98
3, 95580, Note_on_c, 0, 45, 0
3, 95580, Note_on_c, 0, 46, 101
3, 95760, Note_on_c, 0, 46, 0
3, 95760, Note_on_c, 0, 48, 106
3, 95940, Note_on_c, 0, 48, 0
3, 95940, Note_on_c, 0, 50, 110
3, 96120, Note_on_c, 0, 50, 0
3, 96120, Note_on_c, 0, 51, 120
3, 96278, Note_on_c, 0, 51, 0
3, 96300, Note_on_c, 0, 53, 123
3, 96458, Note_on_c, 0, 53, 0
3, 96480, Note_on_c, 0, 58, 113
3, 96840, Note_on_c, 0, 58, 0
3, 96840, Note_on_c, 0, 57, 101
3, 97020, Note_on_c, 0, 57, 0
3, 97020, Note_on_c, 0, 55, 95
3, 97200, Note_on_c, 0, 55, 0
3, 97200, Note_on_c, 0, 54, 95
3, 97380, Note_on_c, 0, 54, 0
3, 97380, Note_on_c, 0, 55, 103
3, 97560, Note_on_c, 0, 55, 0
3, 97560, Note_on_c, 0, 57, 104
3, 97740, Note_on_c, 0, 57, 0
3, 97740, Note_on_c, 0, 51, 86
3, 97920, Note_on_c, 0, 51, 0
3, 97920, Note_on_c, 0, 50, 100
3, 98280, Note_on_c, 0, 50, 0
3, 98280, Note_on_c, 0, 55, 114
3, 98820, Note_on_c, 0, 55, 0
3, 98820, Note_on_c, 0, 53, 96
3, 99000, Note_on_c, 0, 53, 0
3, 99000, Note_on_c, 0, 51, 94
3, 99180, Note_on_c, 0, 51, 0
3, 99180, Note_on_c, 0, 50, 95
3, 99360, Note_on_c, 0, 50, 0
3, 99360, Note_on_c, 0, 51, 103
3, 99900, Note_on_c, 0, 51, 0
3, 99900, Note_on_c, 0, 39, 89
3, 100080, Note_on_c, 0, 39, 0
3, 100080, Note_on_c, 0, 38, 97
3, 100242, Note_on_c, 0, 38, 0
3, 100260, Note_on_c, 0, 39, 107
3, 100440, Note_on_c, 0, 39, 0
3, 100440, Note_on_c, 0, 41, 105
3, 100620, Note_on_c, 0, 41, 0
3, 100620, Note_on_c, 0, 39, 99
3, 100710, Note_on_c, 0, 39, 0
3, 100710, Note_on_c, 0, 38, 97
3, 100800, Note_on_c, 0, 38, 0
3, 100800, Note_on_c, 0, 43, 109
3, 101520, Note_on_c, 0, 43, 0
3, 101520, Note_on_c, 0, 40, 100
3, 101700, Note_on_c, 0, 40, 0
3, 101700, Note_on_c, 0, 41, 103
3, 101880, Note_on_c, 0, 41, 0
3, 101880, Note_on_c, 0, 43, 103
3, 102060, Note_on_c, 0, 43, 0
3, 102060, Note_on_c, 0, 41, 96
3, 102150, Note_on_c, 0, 41, 0
3, 102150, Note_on_c, 0, 40, 101
3, 102240, Note_on_c, 0, 40, 0
3, 102240, Note_on_c, 0, 45, 108
3, 102960, Note_on_c, 0, 45, 0
3, 102960, Note_on_c, 0, 40, 90
3, 103140, Note_on_c, 0, 40, 0
3, 103140, Note_on_c, 0, 41, 105
3, 103320, Note_on_c, 0, 41, 0
3, 103320, Note_on_c, 0, 43, 102
3, 103410, Note_on_c, 0, 43, 0
3, 103410, Note_on_c, 0, 41, 92
3, 103500, Note_on_c, 0, 41, 0
3, 103500, Note_on_c, 0, 41, 106
3, 103590, Note_on_c, 0, 41, 0
3, 103590, Note_on_c, 0, 40, 98
3, 103680, Note_on_c, 0, 40, 0
3, 103680, Note_on_c, 0, 45, 106
3, 104400, Note_on_c, 0, 45, 0
3, 104400, Note_on_c, 0, 41, 97
3, 104580, Note_on_c, 0, 41, 0
3, 104580, Note_on_c, 0, 43, 105
3, 104760, Note_on_c, 0, 43, 0
3, 104760, Note_on_c, 0, 44, 104
3, 104940, Note_on_c, 0, 44, 0
3, 104940, Note_on_c, 0, 43, 96
3, 105030, Note_on_c, 0, 43, 0
3, 105030, Note_on_c, 0, 41, 98
3, 105120, Note_on_c, 0, 41, 0
3, 105120, Note_on_c, 0, 46, 105
3, 105840, Note_on_c, 0, 46, 0
3, 105840, Note_on_c, 0, 43, 105
3, 106020, Note_on_c, 0, 43, 0
3, 106020, Note_on_c, 0, 43, 103
3, 106110, Note_on_c, 0, 43, 0
3, 106110, Note_on_c, 0, 44, 107
3, 106200, Note_on_c, 0, 44, 0
3, 106200, Note_on_c, 0, 46, 105
3, 106380, Note_on_c, 0, 46, 0
3, 106380, Note_on_c, 0, 44, 99
3, 106470, Note_on_c, 0, 44, 0
3, 106470, Note_on_c, 0, 43, 98
3, 106560, Note_on_c, 0, 43, 0
3, 106560, Note_on_c, 0, 48, 114
3, 107460, Note_on_c, 0, 48, 0
3, 107460, Note_on_c, 0, 41, 105
3, 107618, Note_on_c, 0, 41, 0
3, 107640, Note_on_c, 0, 43, 119
3, 107798, Note_on_c, 0, 43, 0
3, 107820, Note_on_c, 0, 44, 114
3, 107978, Note_on_c, 0, 44, 0
3, 108000, Note_on_c, 0, 50, 113
3, 108630, Note_on_c, 0, 50, 0
3, 108630, Note_on_c, 0, 48, 95
3, 108720, Note_on_c, 0, 48, 0
3, 108720, Note_on_c, 0, 48, 100
3, 108900, Note_on_c, 0, 48, 0
3, 108900, Note_on_c, 0, 29, 87
3, 108945, Note_on_c, 0, 29, 0
3, 108945, Note_on_c, 0, 31, 104
3, 108990, Note_on_c, 0, 31, 0
3, 108990, Note_on_c, 0, 32, 111
3, 109035, Note_on_c, 0, 32, 0
3, 109035, Note_on_c, 0, 34, 103
3, 109080, Note_on_c, 0, 34, 0
3, 109080, Note_on_c, 0, 36, 109
3, 109125, Note_on_c, 0, 36, 0
3, 109125, Note_on_c, 0, 38, 108
3, 109170, Note_on_c, 0, 38, 0
3, 109170, Note_on_c, 0, 40, 105
3, 109215, Note_on_c, 0, 40, 0
3, 109215, Note_on_c, 0, 41, 103
3, 109260, Note_on_c, 0, 41, 0
3, 109260, Note_on_c, 0, 43, 105
3, 109305, Note_on_c, 0, 43, 0
3, 109305, Note_on_c, 0, 44, 100
3, 109350, Note_on_c, 0, 44, 0
3, 109350, Note_on_c, 0, 46, 107
3, 109395, Note_on_c, 0, 46, 0
3, 109395, Note_on_c, 0, 48, 107
3, 109440, Note_on_c, 0, 48, 0
3, 109440, Note_on_c, 0, 50, 110
3, 110070, Note_on_c, 0, 50, 0
3, 110070, Note_on_c, 0, 48, 97
3, 110160, Note_on_c, 0, 48, 0
3, 110160, Note_on_c, 0, 48, 101
3, 110340, Note_on_c, 0, 48, 0
3, 110340, Note_on_c, 0, 44, 110
3, 110498, Note_on_c, 0, 44, 0
3, 110520, Note_on_c, 0, 46, 115
3, 110678, Note_on_c, 0, 46, 0
3, 110700, Note_on_c, 0, 48, 116
3, 110858, Note_on_c, 0, 48, 0
3, 110880, Note_on_c, 0, 51, 116
3, 111510, Note_on_c, 0, 51, 0
3, 111510, Note_on_c, 0, 48, 88
3, 111600, Note_on_c, 0, 48, 0
3, 111600, Note_on_c, 0, 48, 101
3, 111780, Note_on_c, 0, 48, 0
3, 111780, Note_on_c, 0, 31, 89
3, 111825, Note_on_c, 0, 31, 0
3, 111825, Note_on_c, 0, 32, 100
3, 111870, Note_on_c, 0, 32, 0
3, 111870, Note_on_c, 0, 34, 107
3, 111915, Note_on_c, 0, 34, 0
3, 111915, Note_on_c, 0, 36, 104
3, 111960, Note_on_c, 0, 36, 0
3, 111960, Note_on_c, 0, 38, 103
3, 112005, Note_on_c, 0, 38, 0
3, 112005, Note_on_c, 0, 39, 107
3, 112050, Note_on_c, 0, 39, 0
3, 112050, Note_on_c, 0, 41, 110
3, 112095, Note_on_c, 0, 41, 0
3, 112095, Note_on_c, 0, 43, 102
3, 112140, Note_on_c, 0, 43, 0
3, 112140, Note_on_c, 0, 44, 99
3, 112185, Note_on_c, 0, 44, 0
3, 112185, Note_on_c, 0, 46, 102
3, 112230, Note_on_c, 0, 46, 0
3, 112230, Note_on_c, 0, 48, 107
3, 112275, Note_on_c, 0, 48, 0
3, 112275, Note_on_c, 0, 50, 110
3, 112320, Note_on_c, 0, 50, 0
3, 112320, Note_on_c, 0, 51, 108
3, 112950, Note_on_c, 0, 51, 0
3, 112950, Note_on_c, 0, 48, 93
3, 113040, Note_on_c, 0, 48, 0
3, 113040, Note_on_c, 0, 48, 97
3, 113220, Note_on_c, 0, 48, 0
3, 113220, Note_on_c, 0, 48, 116
3, 113378, Note_on_c, 0, 48, 0
3, 113400, Note_on_c, 0, 50, 120
3, 113558, Note_on_c, 0, 50, 0
3, 113580, Note_on_c, 0, 51, 120
3, 113738, Note_on_c, 0, 51, 0
3, 113760, Note_on_c, 0, 55, 115
3, 114660, Note_on_c, 0, 55, 0
3, 114660, Note_on_c, 0, 48, 96
3, 114818, Note_on_c, 0, 48, 0
3, 114840, Note_on_c, 0, 50, 117
3, 114998, Note_on_c, 0, 50, 0
3, 115020, Note_on_c, 0, 51, 117
3, 115178, Note_on_c, 0, 51, 0
3, 115200, Note_on_c, 0, 55, 112
3, 116100, Note_on_c, 0, 55, 0
3, 116100, Note_on_c, 0, 49, 93
3, 116258, Note_on_c, 0, 49, 0
3, 116280, Note_on_c, 0, 51, 115
3, 116438, Note_on_c, 0, 51, 0
3, 116460, Note_on_c, 0, 52, 122
3, 116618, Note_on_c, 0, 52, 0
3, 116640, Note_on_c, 0, 56, 114
3, 117540, Note_on_c, 0, 56, 0
3, 117540, Note_on_c, 0, 49, 94
3, 117698, Note_on_c, 0, 49, 0
3, 117720, Note_on_c, 0, 51, 117
3, 117878, Note_on_c, 0, 51, 0
3, 117900, Note_on_c, 0, 52, 122
3, 118058, Note_on_c, 0, 52, 0
3, 118080, Note_on_c, 0, 56, 114
3, 118980, Note_on_c, 0, 56, 0
3, 118980, Note_on_c, 0, 53, 106
3, 119138, Note_on_c, 0, 53, 0
3, 119160, Note_on_c, 0, 55, 117
3, 119318, Note_on_c, 0, 55, 0
3, 119340, Note_on_c, 0, 56, 120
3, 119498, Note_on_c, 0, 56, 0
3, 119520, Note_on_c, 0, 60, 109
3, 120240, Note_on_c, 0, 60, 0
3, 120240, Note_on_c, 0, 58, 95
3, 120420, Note_on_c, 0, 58, 0
3, 120420, Note_on_c, 0, 50, 96
3, 120578, Note_on_c, 0, 50, 0
3, 120600, Note_on_c, 0, 51, 116
3, 120758, Note_on_c, 0, 51, 0
3, 120780, Note_on_c, 0, 53, 120
3, 120938, Note_on_c, 0, 53, 0
3, 120960, Note_on_c, 0, 56, 108
3, 121680, Note_on_c, 0, 56, 0
3, 121680, Note_on_c, 0, 55, 95
3, 121860, Note_on_c, 0, 55, 0
3, 121860, Note_on_c, 0, 46, 105
3, 122018, Note_on_c, 0, 46, 0
3, 122040, Note_on_c, 0, 48, 123
3, 122198, Note_on_c, 0, 48, 0
3, 122220, Note_on_c, 0, 50, 115
3, 122378, Note_on_c, 0, 50, 0
3, 122400, Note_on_c, 0, 53, 115
3, 123120, Note_on_c, 0, 53, 0
3, 123120, Note_on_c, 0, 51, 97
3, 123300, Note_on_c, 0, 51, 0
3, 123300, Note_on_c, 0, 43, 101
3, 123458, Note_on_c, 0, 43, 0
3, 123480, Note_on_c, 0, 44, 113
3, 123638, Note_on_c, 0, 44, 0
3, 123660, Note_on_c, 0, 46, 119
3, 123818, Note_on_c, 0, 46, 0
3, 123840, Note_on_c, 0, 50, 116
3, 124560, Note_on_c, 0, 50, 0
3, 124560, Note_on_c, 0, 48, 97
3, 124740, Note_on_c, 0, 48, 0
3, 124740, Note_on_c, 0, 51, 122
3, 124898, Note_on_c, 0, 51, 0
3, 124920, Note_on_c, 0, 53, 120
3, 125078, Note_on_c, 0, 53, 0
3, 125100, Note_on_c, 0, 55, 117
3, 125258, Note_on_c, 0, 55, 0
3, 125280, Note_on_c, 0, 58, 125
3, 125438, Note_on_c, 0, 58, 0
3, 125460, Note_on_c, 0, 56, 107
3, 125618, Note_on_c, 0, 56, 0
3, 125640, Note_on_c, 0, 55, 107
3, 125798, Note_on_c, 0, 55, 0
3, 125820, Note_on_c, 0, 53, 106
3, 125978, Note_on_c, 0, 53, 0
3, 126000, Note_on_c, 0, 51, 101
3, 126090, Note_on_c, 0, 51, 0
3, 126090, Note_on_c, 0, 50, 99
3, 126180, Note_on_c, 0, 50, 0
3, 126180, Note_on_c, 0, 48, 98
3, 126270, Note_on_c, 0, 48, 0
3, 126270, Note_on_c, 0, 44, 96
3, 126360, Note_on_c, 0, 44, 0
3, 126360, Note_on_c, 0, 41, 95
3, 126450, Note_on_c, 0, 41, 0
3, 126450, Note_on_c, 0, 35, 93
3, 126540, Note_on_c, 0, 35, 0
3, 126540, Note_on_c, 0, 36, 91
3, 126630, Note_on_c, 0, 36, 0
3, 126630, Note_on_c, 0, 39, 90
3, 126720, Note_on_c, 0, 39, 0
3, 126720, Note_on_c, 0, 38, 87
3, 129510, Note_on_c, 0, 38, 0
3, 129510, Note_on_c, 0, 36, 87
3, 129600, Note_on_c, 0, 36, 0
3, 129600, Note_on_c, 0, 36, 88
3, 130500, Note_on_c, 0, 36, 0
3, 132480, Note_on_c, 0, 48, 57
3, 132539, Note_on_c, 0, 48, 0
3, 132539, Note_on_c, 0, 50, 65
3, 132600, Note_on_c, 0, 50, 0
3, 132600, Note_on_c, 0, 51, 63
3, 132660, Note_on_c, 0, 51, 0
3, 132660, Note_on_c, 0, 50, 66
3, 132719, Note_on_c, 0, 50, 0
3, 132719, Note_on_c, 0, 48, 59
3, 132780, Note_on_c, 0, 48, 0
3, 132780, Note_on_c, 0, 44, 61
3, 132840, Note_on_c, 0, 44, 0
3, 132840, Note_on_c, 0, 43, 64
3, 132899, Note_on_c, 0, 43, 0
3, 132899, Note_on_c, 0, 44, 67
3, 132960, Note_on_c, 0, 44, 0
3, 132960, Note_on_c, 0, 46, 70
3, 133020, Note_on_c, 0, 46, 0
3, 133020, Note_on_c, 0, 44, 63
3, 133079, Note_on_c, 0, 44, 0
3, 133079, Note_on_c, 0, 43, 61
3, 133140, Note_on_c, 0, 43, 0
3, 133140, Note_on_c, 0, 41, 64
3, 133200, Note_on_c, 0, 41, 0
3, 133200, Note_on_c, 0, 39, 62
3, 133259, Note_on_c, 0, 39, 0
3, 133259, Note_on_c, 0, 41, 62
3, 133320, Note_on_c, 0, 41, 0
3, 133320, Note_on_c, 0, 43, 69
3, 133380, Note_on_c, 0, 43, 0
3, 133380, Note_on_c, 0, 41, 64
3, 133439, Note_on_c, 0, 41, 0
3, 133439, Note_on_c, 0, 39, 63
3, 133500, Note_on_c, 0, 39, 0
3, 133500, Note_on_c, 0, 38, 65
3, 133560, Note_on_c, 0, 38, 0
3, 133560, Note_on_c, 0, 36, 63
3, 133619, Note_on_c, 0, 36, 0
3, 133619, Note_on_c, 0, 38, 68
3, 133680, Note_on_c, 0, 38, 0
3, 133680, Note_on_c, 0, 39, 66
3, 133740, Note_on_c, 0, 39, 0
3, 133740, Note_on_c, 0, 38, 68
3, 133799, Note_on_c, 0, 38, 0
3, 133799, Note_on_c, 0, 36, 67
3, 133860, Note_on_c, 0, 36, 0
3, 133860, Note_on_c, 0, 34, 64
3, 133920, Note_on_c, 0, 34, 0
3, 135360, Note_on_c, 0, 50, 59
3, 135419, Note_on_c, 0, 50, 0
3, 135419, Note_on_c, 0, 52, 65
3, 135480, Note_on_c, 0, 52, 0
3, 135480, Note_on_c, 0, 53, 70
3, 135540, Note_on_c, 0, 53, 0
3, 135540, Note_on_c, 0, 52, 61
3, 135599, Note_on_c, 0, 52, 0
3, 135599, Note_on_c, 0, 50, 63
3, 135660, Note_on_c, 0, 50, 0
3, 135660, Note_on_c, 0, 46, 64
3, 135720, Note_on_c, 0, 46, 0
3, 135720, Note_on_c, 0, 45, 61
3, 135779, Note_on_c, 0, 45, 0
3, 135779, Note_on_c, 0, 46, 68
3, 135840, Note_on_c, 0, 46, 0
3, 135840, Note_on_c, 0, 48, 70
3, 135900, Note_on_c, 0, 48, 0
3, 135900, Note_on_c, 0, 46, 59
3, 135959, Note_on_c, 0, 46, 0
3, 135959, Note_on_c, 0, 45, 62
3, 136020, Note_on_c, 0, 45, 0
3, 136020, Note_on_c, 0, 43, 67
3, 136080, Note_on_c, 0, 43, 0
3, 136080, Note_on_c, 0, 41, 68
3, 136139, Note_on_c, 0, 41, 0
3, 136139, Note_on_c, 0, 43, 70
3, 136200, Note_on_c, 0, 43, 0
3, 136200, Note_on_c, 0, 45, 69
3, 136260, Note_on_c, 0, 45, 0
3, 136260, Note_on_c, 0, 43, 62
3, 136319, Note_on_c, 0, 43, 0
3, 136319, Note_on_c, 0, 41, 63
3, 136380, Note_on_c, 0, 41, 0
3, 136380, Note_on_c, 0, 40, 60
3, 136440, Note_on_c, 0, 40, 0
3, 136440, Note_on_c, 0, 38, 67
3, 136499, Note_on_c, 0, 38, 0
3, 136499, Note_on_c, 0, 40, 64
3, 136560, Note_on_c, 0, 40, 0
3, 136560, Note_on_c, 0, 41, 68
3, 136620, Note_on_c, 0, 41, 0
3, 136620, Note_on_c, 0, 40, 66
3, 136679, Note_on_c, 0, 40, 0
3, 136679, Note_on_c, 0, 38, 61
3, 136740, Note_on_c, 0, 38, 0
3, 136740, Note_on_c, 0, 36, 64
3, 136800, Note_on_c, 0, 36, 0
3, 136800, Note_on_c, 0, 38, 88
3, 136859, Note_on_c, 0, 38, 0
3, 136859, Note_on_c, 0, 39, 67
3, 136920, Note_on_c, 0, 39, 0
3, 136920, Note_on_c, 0, 41, 68
3, 136980, Note_on_c, 0, 41, 0
3, 136980, Note_on_c, 0, 41, 91
3, 137039, Note_on_c, 0, 41, 0
3, 137039, Note_on_c, 0, 39, 61
3, 137100, Note_on_c, 0, 39, 0
3, 137100, Note_on_c, 0, 38, 59
3, 137160, Note_on_c, 0, 38, 0
3, 137160, Note_on_c, 0, 38, 89
3, 137219, Note_on_c, 0, 38, 0
3, 137219, Note_on_c, 0, 39, 64
3, 137280, Note_on_c, 0, 39, 0
3, 137280, Note_on_c, 0, 41, 68
3, 137340, Note_on_c, 0, 41, 0
3, 137340, Note_on_c, 0, 41, 94
3, 137399, Note_on_c, 0, 41, 0
3, 137399, Note_on_c, 0, 39, 66
3, 137460, Note_on_c, 0, 39, 0
3, 137460, Note_on_c, 0, 38, 62
3, 137520, Note_on_c, 0, 38, 0
3, 137520, Note_on_c, 0, 38, 91
3, 137579, Note_on_c, 0, 38, 0
3, 137579, Note_on_c, 0, 39, 68
3, 137640, Note_on_c, 0, 39, 0
3, 137640, Note_on_c, 0, 41, 70
3, 137700, Note_on_c, 0, 41, 0
3, 137700, Note_on_c, 0, 41, 89
3, 137759, Note_on_c, 0, 41, 0
3, 137759, Note_on_c, 0, 39, 68
3, 137820, Note_on_c, 0, 39, 0
3, 137820, Note_on_c, 0, 38, 64
3, 137880, Note_on_c, 0, 38, 0
3, 137880, Note_on_c, 0, 38, 89
3, 137939, Note_on_c, 0, 38, 0
3, 137939, Note_on_c, 0, 39, 70
3, 138000, Note_on_c, 0, 39, 0
3, 138000, Note_on_c, 0, 41, 71
3, 138060, Note_on_c, 0, 41, 0
3, 138060, Note_on_c, 0, 41, 90
3, 138119, Note_on_c, 0, 41, 0
3, 138119, Note_on_c, 0, 39, 64
3, 138180, Note_on_c, 0, 39, 0
3, 138180, Note_on_c, 0, 38, 65
3, 138240, Note_on_c, 0, 38, 0
3, 138240, Note_on_c, 0, 38, 91
3, 138299, Note_on_c, 0, 38, 0
3, 138299, Note_on_c, 0, 39, 69
3, 138360, Note_on_c, 0, 39, 0
3, 138360, Note_on_c, 0, 41, 67
3, 138420, Note_on_c, 0, 41, 0
3, 138420, Note_on_c, 0, 41, 91
3, 138479, Note_on_c, 0, 41, 0
3, 138479, Note_on_c, 0, 39, 61
3, 138540, Note_on_c, 0, 39, 0
3, 138540, Note_on_c, 0, 38, 68
3, 138600, Note_on_c, 0, 38, 0
3, 138600, Note_on_c, 0, 38, 92
3, 138659, Note_on_c, 0, 38, 0
3, 138659, Note_on_c, 0, 39, 69
3, 138720, Note_on_c, 0, 39, 0
3, 138720, Note_on_c, 0, 41, 67
3, 138780, Note_on_c, 0, 41, 0
3, 138780, Note_on_c, 0, 41, 92
3, 138839, Note_on_c, 0, 41, 0
3, 138839, Note_on_c, 0, 39, 64
3, 138900, Note_on_c, 0, 39, 0
3, 138900, Note_on_c, 0, 38, 65
3, 138960, Note_on_c, 0, 38, 0
3, 138960, Note_on_c, 0, 38, 86
3, 139019, Note_on_c, 0, 38, 0
3, 139019, Note_on_c, 0, 39, 71
3, 139080, Note_on_c, 0, 39, 0
3, 139080, Note_on_c, 0, 41, 66
3, 139140, Note_on_c, 0, 41, 0
3, 139140, Note_on_c, 0, 41, 90
3, 139199, Note_on_c, 0, 41, 0
3, 139199, Note_on_c, 0, 39, 65
3, 139260, Note_on_c, 0, 39, 0
3, 139260, Note_on_c, 0, 38, 62
3, 139320, Note_on_c, 0, 38, 0
3, 139320, Note_on_c, 0, 38, 95
3, 139379, Note_on_c, 0, 38, 0
3, 139379, Note_on_c, 0, 39, 67
3, 139440, Note_on_c, 0, 39, 0
3, 139440, Note_on_c, 0, 41, 67
3, 139500, Note_on_c, 0, 41, 0
3, 139500, Note_on_c, 0, 41, 90
3, 139559, Note_on_c, 0, 41, 0
3, 139559, Note_on_c, 0, 39, 64
3, 139620, Note_on_c, 0, 39, 0
3, 139620, Note_on_c, 0, 38, 66
3, 139680, Note_on_c, 0, 38, 0
3, 161460, Note_on_c, 0, 36, 58
3, 161640, Note_on_c, 0, 36, 0
3, 161640, Note_on_c, 0, 38, 66
3, 161820, Note_on_c, 0, 38, 0
3, 161820, Note_on_c, 0, 40, 67
3, 162000, Note_on_c, 0, 40, 0
3, 162000, Note_on_c, 0, 44, 68
3, 162360, Note_on_c, 0, 44, 0
3, 162360, Note_on_c, 0, 43, 63
3, 162720, Note_on_c, 0, 43, 0
3, 162720, Note_on_c, 0, 36, 63
3, 162900, Note_on_c, 0, 36, 0
3, 162900, Note_on_c, 0, 36, 63
3, 163080, Note_on_c, 0, 36, 0
3, 163080, Note_on_c, 0, 38, 66
3, 163260, Note_on_c, 0, 38, 0
3, 163260, Note_on_c, 0, 40, 68
3, 163440, Note_on_c, 0, 40, 0
3, 163440, Note_on_c, 0, 44, 73
3, 163800, Note_on_c, 0, 44, 0
3, 163800, Note_on_c, 0, 43, 67
3, 164160, Note_on_c, 0, 43, 0
3, 164160, Note_on_c, 0, 39, 65
3, 164340, Note_on_c, 0, 39, 0
3, 164340, Note_on_c, 0, 39, 64
3, 164520, Note_on_c, 0, 39, 0
3, 164520, Note_on_c, 0, 41, 63
3, 164700, Note_on_c, 0, 41, 0
3, 164700, Note_on_c, 0, 43, 70
3, 164880, Note_on_c, 0, 43, 0
3, 164880, Note_on_c, 0, 48, 75
3, 165240, Note_on_c, 0, 48, 0
3, 165240, Note_on_c, 0, 46, 68
3, 165600, Note_on_c, 0, 46, 0
3, 165600, Note_on_c, 0, 39, 62
3, 165780, Note_on_c, 0, 39, 0
3, 165780, Note_on_c, 0, 39, 68
3, 165960, Note_on_c, 0, 39, 0
3, 165960, Note_on_c, 0, 41, 66
3, 166140, Note_on_c, 0, 41, 0
3, 166140, Note_on_c, 0, 43, 65
3, 166320, Note_on_c, 0, 43, 0
3, 166320, Note_on_c, 0, 48, 74
3, 166680, Note_on_c, 0, 48, 0
3, 166680, Note_on_c, 0, 47, 68
3, 167040, Note_on_c, 0, 47, 0
3, 167040, Note_on_c, 0, 43, 62
3, 167220, Note_on_c, 0, 43, 0
3, 167220, Note_on_c, 0, 43, 71
3, 167400, Note_on_c, 0, 43, 0
3, 167400, Note_on_c, 0, 45, 68
3, 167580, Note_on_c, 0, 45, 0
3, 167580, Note_on_c, 0, 47, 63
3, 167760, Note_on_c, 0, 47, 0
3, 167760, Note_on_c, 0, 52, 76
3, 168120, Note_on_c, 0, 52, 0
3, 168120, Note_on_c, 0, 50, 60
3, 168480, Note_on_c, 0, 50, 0
3, 168480, Note_on_c, 0, 43, 60
3, 168660, Note_on_c, 0, 43, 0
3, 168660, Note_on_c, 0, 43, 62
3, 168840, Note_on_c, 0, 43, 0
3, 168840, Note_on_c, 0, 45, 65
3, 169020, Note_on_c, 0, 45, 0
3, 169020, Note_on_c, 0, 47, 62
3, 169200, Note_on_c, 0, 47, 0
3, 169200, Note_on_c, 0, 52, 75
3, 169560, Note_on_c, 0, 52, 0
3, 169560, Note_on_c, 0, 50, 63
3, 169920, Note_on_c, 0, 50, 0
3, 169920, Note_on_c, 0, 43, 64
3, 170640, Note_on_c, 0, 43, 0
3, 170640, Note_on_c, 0, 43, 65
3, 170820, Note_on_c, 0, 43, 0
3, 172800, Note_on_c, 0, 36, 85
3, 172859, Note_on_c, 0, 36, 0
3, 172859, Note_on_c, 0, 37, 63
3, 172920, Note_on_c, 0, 37, 0
3, 172920, Note_on_c, 0, 39, 63
3, 172980, Note_on_c, 0, 39, 0
3, 172980, Note_on_c, 0, 39, 90
3, 173039, Note_on_c, 0, 39, 0
3, 173039, Note_on_c, 0, 37, 65
3, 173100, Note_on_c, 0, 37, 0
3, 173100, Note_on_c, 0, 36, 64
3, 173160, Note_on_c, 0, 36, 0
3, 173160, Note_on_c, 0, 36, 90
3, 173219, Note_on_c, 0, 36, 0
3, 173219, Note_on_c, 0, 37, 69
3, 173280, Note_on_c, 0, 37, 0
3, 173280, Note_on_c, 0, 39, 65
3, 173340, Note_on_c, 0, 39, 0
3, 173340, Note_on_c, 0, 39, 88
3, 173399, Note_on_c, 0, 39, 0
3, 173399, Note_on_c, 0, 37, 63
3, 173460, Note_on_c, 0, 37, 0
3, 173460, Note_on_c, 0, 36, 63
3, 173520, Note_on_c, 0, 36, 0
3, 173520, Note_on_c, 0, 36, 85
3, 173579, Note_on_c, 0, 36, 0
3, 173579, Note_on_c, 0, 37, 66
3, 173640, Note_on_c, 0, 37, 0
3, 173640, Note_on_c, 0, 39, 69
3, 173700, Note_on_c, 0, 39, 0
3, 173700, Note_on_c, 0, 39, 94
3, 173759, Note_on_c, 0, 39, 0
3, 173759, Note_on_c, 0, 37, 62
3, 173820, Note_on_c, 0, 37, 0
3, 173820, Note_on_c, 0, 36, 65
3, 173880, Note_on_c, 0, 36, 0
3, 173880, Note_on_c, 0, 36, 90
3, 173939, Note_on_c, 0, 36, 0
3, 173939, Note_on_c, 0, 37, 69
3, 174000, Note_on_c, 0, 37, 0
3, 174000, Note_on_c, 0, 39, 64
3, 174060, Note_on_c, 0, 39, 0
3, 174060, Note_on_c, 0, 39, 94
3, 174119, Note_on_c, 0, 39, 0
3, 174119, Note_on_c, 0, 37, 61
3, 174180, Note_on_c, 0, 37, 0
3, 174180, Note_on_c, 0, 36, 64
3, 174240, Note_on_c, 0, 36, 0
3, 174240, Note_on_c, 0, 36, 89
3, 174299, Note_on_c, 0, 36, 0
3, 174299, Note_on_c, 0, 37, 69
3, 174360, Note_on_c, 0, 37, 0
3, 174360, Note_on_c, 0, 39, 70
3, 174420, Note_on_c, 0, 39, 0
3, 174420, Note_on_c, 0, 39, 89
3, 174479, Note_on_c, 0, 39, 0
3, 174479, Note_on_c, 0, 37, 61
3, 174540, Note_on_c, 0, 37, 0
3, 174540, Note_on_c, 0, 36, 59
3, 174600, Note_on_c, 0, 36, 0
3, 174600, Note_on_c, 0, 36, 92
3, 174659, Note_on_c, 0, 36, 0
3, 174659, Note_on_c, 0, 37, 64
3, 174720, Note_on_c, 0, 37, 0
3, 174720, Note_on_c, 0, 39, 66
3, 174780, Note_on_c, 0, 39, 0
3, 174780, Note_on_c, 0, 39, 88
3, 174839, Note_on_c, 0, 39, 0
3, 174839, Note_on_c, 0, 37, 61
3, 174900, Note_on_c, 0, 37, 0
3, 174900, Note_on_c, 0, 36, 64
3, 174960, Note_on_c, 0, 36, 0
3, 174960, Note_on_c, 0, 36, 91
3, 175019, Note_on_c, 0, 36, 0
3, 175019, Note_on_c, 0, 37, 65
3, 175080, Note_on_c, 0, 37, 0
3, 175080, Note_on_c, 0, 39, 66
3, 175140, Note_on_c, 0, 39, 0
3, 175140, Note_on_c, 0, 39, 87
3, 175199, Note_on_c, 0, 39, 0
3, 175199, Note_on_c, 0, 37, 63
3, 175260, Note_on_c, 0, 37, 0
3, 175260, Note_on_c, 0, 36, 65
3, 175320, Note_on_c, 0, 36, 0
3, 175320, Note_on_c, 0, 36, 93
3, 175379, Note_on_c, 0, 36, 0
3, 175379, Note_on_c, 0, 37, 63
3, 175440, Note_on_c, 0, 37, 0
3, 175440, Note_on_c, 0, 39, 68
3, 175500, Note_on_c, 0, 39, 0
3, 175500, Note_on_c, 0, 39, 92
3, 175559, Note_on_c, 0, 39, 0
3, 175559, Note_on_c, 0, 37, 58
3, 175620, Note_on_c, 0, 37, 0
3, 175620, Note_on_c, 0, 36, 65
3, 175680, Note_on_c, 0, 36, 0
3, 175680, Note_on_c, 0, 36, 65
3, 175860, Note_on_c, 0, 36, 0
3, 194580, Note_on_c, 0, 43, 59
3, 194760, Note_on_c, 0, 43, 0
3, 194760, Note_on_c, 0, 45, 66
3, 194940, Note_on_c, 0, 45, 0
3, 194940, Note_on_c, 0, 47, 65
3, 195120, Note_on_c, 0, 47, 0
3, 195120, Note_on_c, 0, 51, 73
3, 195480, Note_on_c, 0, 51, 0
3, 195480, Note_on_c, 0, 50, 65
3, 195840, Note_on_c, 0, 50, 0
3, 195840, Note_on_c, 0, 43, 62
3, 196020, Note_on_c, 0, 43, 0
3, 196020, Note_on_c, 0, 43, 66
3, 196200, Note_on_c, 0, 43, 0
3, 196200, Note_on_c, 0, 45, 66
3, 196380, Note_on_c, 0, 45, 0
3, 196380, Note_on_c, 0, 47, 67
3, 196560, Note_on_c, 0, 47, 0
3, 196560, Note_on_c, 0, 51, 70
3, 196920, Note_on_c, 0, 51, 0
3, 196920, Note_on_c, 0, 50, 63
3, 197280, Note_on_c, 0, 50, 0
3, 197280, Note_on_c, 0, 46, 63
3, 197460, Note_on_c, 0, 46, 0
3, 197460, Note_on_c, 0, 46, 65
3, 197640, Note_on_c, 0, 46, 0
3, 197640, Note_on_c, 0, 48, 74
3, 197820, Note_on_c, 0, 48, 0
3, 197820, Note_on_c, 0, 50, 64
3, 198000, Note_on_c, 0, 50, 0
3, 198000, Note_on_c, 0, 55, 70
3, 198360, Note_on_c, 0, 55, 0
3, 198360, Note_on_c, 0, 53, 61
3, 198720, Note_on_c, 0, 53, 0
3, 198720, Note_on_c, 0, 46, 60
3, 198900, Note_on_c, 0, 46, 0
3, 198900, Note_on_c, 0, 46, 64
3, 199080, Note_on_c, 0, 46, 0
3, 199080, Note_on_c, 0, 48, 64
3, 199260, Note_on_c, 0, 48, 0
3, 199260, Note_on_c, 0, 50, 72
3, 199440, Note_on_c, 0, 50, 0
3, 199440, Note_on_c, 0, 55, 81
3, 199800, Note_on_c, 0, 55, 0
3, 199800, Note_on_c, 0, 54, 62
3, 200160, Note_on_c, 0, 54, 0
3, 200160, Note_on_c, 0, 53, 65
3, 200340, Note_on_c, 0, 53, 0
3, 200340, Note_on_c, 0, 53, 66
3, 200520, Note_on_c, 0, 53, 0
3, 200520, Note_on_c, 0, 55, 70
3, 200700, Note_on_c, 0, 55, 0
3, 200700, Note_on_c, 0, 57, 71
3, 200880, Note_on_c, 0, 57, 0
3, 200880, Note_on_c, 0, 61, 78
3, 201240, Note_on_c, 0, 61, 0
3, 201240, Note_on_c, 0, 60, 62
3, 201600, Note_on_c, 0, 60, 0
3, 201600, Note_on_c, 0, 53, 53
3, 201780, Note_on_c, 0, 53, 0
3, 201780, Note_on_c, 0, 53, 67
3, 201960, Note_on_c, 0, 53, 0
3, 201960, Note_on_c, 0, 55, 68
3, 202140, Note_on_c, 0, 55, 0
3, 202140, Note_on_c, 0, 57, 71
3, 202320, Note_on_c, 0, 57, 0
3, 202320, Note_on_c, 0, 61, 73
3, 202680, Note_on_c, 0, 61, 0
3, 202680, Note_on_c, 0, 60, 67
3, 203040, Note_on_c, 0, 60, 0
3, 203040, Note_on_c, 0, 53, 58
3, 203940, Note_on_c, 0, 53, 0
3, 210420, Note_on_c, 0, 46, 66
3, 210578, Note_on_c, 0, 46, 0
3, 210600, Note_on_c, 0, 48, 79
3, 210758, Note_on_c, 0, 48, 0
3, 210780, Note_on_c, 0, 51, 81
3, 210938, Note_on_c, 0, 51, 0
3, 210960, Note_on_c, 0, 53, 75
3, 211860, Note_on_c, 0, 53, 0
3, 213300, Note_on_c, 0, 53, 69
3, 213458, Note_on_c, 0, 53, 0
3, 213480, Note_on_c, 0, 55, 80
3, 213638, Note_on_c, 0, 55, 0
3, 213660, Note_on_c, 0, 58, 84
3, 213818, Note_on_c, 0, 58, 0
3, 213840, Note_on_c, 0, 60, 72
3, 214560, Note_on_c, 0, 60, 0
3, 214560, Note_on_c, 0, 60, 103
3, 215460, Note_on_c, 0, 60, 0
3, 216720, Note_on_c, 0, 43, 57
3, 216990, Note_on_c, 0, 43, 0
3, 216990, Note_on_c, 0, 44, 66
3, 217080, Note_on_c, 0, 44, 0
3, 217080, Note_on_c, 0, 46, 65
3, 217260, Note_on_c, 0, 46, 0
3, 217260, Note_on_c, 0, 44, 69
3, 217350, Note_on_c, 0, 44, 0
3, 217350, Note_on_c, 0, 43, 62
3, 217440, Note_on_c, 0, 43, 0
3, 217440, Note_on_c, 0, 48, 76
3, 218340, Note_on_c, 0, 48, 0
3, 219600, Note_on_c, 0, 45, 59
3, 219870, Note_on_c, 0, 45, 0
3, 219870, Note_on_c, 0, 46, 66
3, 219960, Note_on_c, 0, 46, 0
3, 219960, Note_on_c, 0, 48, 69
3, 220140, Note_on_c, 0, 48, 0
3, 220140, Note_on_c, 0, 46, 65
3, 220230, Note_on_c, 0, 46, 0
3, 220230, Note_on_c, 0, 45, 59
3, 220320, Note_on_c, 0, 45, 0
3, 220320, Note_on_c, 0, 50, 78
3, 221220, Note_on_c, 0, 50, 0
3, 222660, Note_on_c, 0, 46, 102
3, 222818, Note_on_c, 0, 46, 0
3, 222840, Note_on_c, 0, 48, 118
3, 222998, Note_on_c, 0, 48, 0
3, 223020, Note_on_c, 0, 49, 121
3, 223178, Note_on_c, 0, 49, 0
3, 223200, Note_on_c, 0, 53, 127
3, 223358, Note_on_c, 0, 53, 0
3, 223380, Note_on_c, 0, 43, 90
3, 223560, Note_on_c, 0, 43, 0
3, 223560, Note_on_c, 0, 45, 105
3, 223740, Note_on_c, 0, 45, 0
3, 223740, Note_on_c, 0, 46, 105
3, 223920, Note_on_c, 0, 46, 0
3, 223920, Note_on_c, 0, 49, 111
3, 224100, Note_on_c, 0, 49, 0
3, 224100, Note_on_c, 0, 34, 91
3, 224280, Note_on_c, 0, 34, 0
3, 224280, Note_on_c, 0, 36, 104
3, 224460, Note_on_c, 0, 36, 0
3, 224460, Note_on_c, 0, 37, 109
3, 224640, Note_on_c, 0, 37, 0
3, 224640, Note_on_c, 0, 41, 107
3, 225000, Note_on_c, 0, 41, 0
3, 225000, Note_on_c, 0, 40, 99
3, 225270, Note_on_c, 0, 40, 0
3, 225270, Note_on_c, 0, 41, 104
3, 225360, Note_on_c, 0, 41, 0
3, 225360, Note_on_c, 0, 43, 105
3, 225540, Note_on_c, 0, 43, 0
3, 225540, Note_on_c, 0, 53, 126
3, 225720, Note_on_c, 0, 53, 0
3, 225720, Note_on_c, 0, 55, 127
3, 225878, Note_on_c, 0, 55, 0
3, 225900, Note_on_c, 0, 57, 124
3, 226058, Note_on_c, 0, 57, 0
3, 226080, Note_on_c, 0, 60, 111
3, 226260, Note_on_c, 0, 60, 0
3, 226260, Note_on_c, 0, 50, 81
3, 226440, Note_on_c, 0, 50, 0
3, 226440, Note_on_c, 0, 52, 105
3, 226620, Note_on_c, 0, 52, 0
3, 226620, Note_on_c, 0, 53, 103
3, 226800, Note_on_c, 0, 53, 0
3, 226800, Note_on_c, 0, 56, 113
3, 226980, Note_on_c, 0, 56, 0
3, 226980, Note_on_c, 0, 41, 91
3, 227160, Note_on_c, 0, 41, 0
3, 227160, Note_on_c, 0, 43, 103
3, 227340, Note_on_c, 0, 43, 0
3, 227340, Note_on_c, 0, 44, 105
3, 227520, Note_on_c, 0, 44, 0
3, 227520, Note_on_c, 0, 48, 115
3, 227880, Note_on_c, 0, 48, 0
3, 227880, Note_on_c, 0, 47, 102
3, 228150, Note_on_c, 0, 47, 0
3, 228150, Note_on_c, 0, 48, 105
3, 228240, Note_on_c, 0, 48, 0
3, 228240, Note_on_c, 0, 50, 110
3, 228780, Note_on_c, 0, 50, 0
3, 229140, Note_on_c, 0, 48, 94
3, 229320, Note_on_c, 0, 48, 0
3, 229320, Note_on_c, 0, 50, 110
3, 229500, Note_on_c, 0, 50, 0
3, 229500, Note_on_c, 0, 51, 106
3, 229680, Note_on_c, 0, 51, 0
3, 229680, Note_on_c, 0, 55, 102
3, 230580, Note_on_c, 0, 55, 0
3, 230580, Note_on_c, 0, 48, 111
3, 230760, Note_on_c, 0, 48, 0
3, 230760, Note_on_c, 0, 50, 112
3, 230940, Note_on_c, 0, 50, 0
3, 230940, Note_on_c, 0, 51, 114
3, 231120, Note_on_c, 0, 51, 0
3, 231120, Note_on_c, 0, 55, 127
3, 233460, Note_on_c, 0, 55, 0
3, 235620, Note_on_c, 0, 31, 87
3, 235800, Note_on_c, 0, 31, 0
3, 235800, Note_on_c, 0, 33, 107
3, 235980, Note_on_c, 0, 33, 0
3, 235980, Note_on_c, 0, 34, 106
3, 236160, Note_on_c, 0, 34, 0
3, 236160, Note_on_c, 0, 38, 108
3, 237060, Note_on_c, 0, 38, 0
3, 237060, Note_on_c, 0, 31, 91
3, 237240, Note_on_c, 0, 31, 0
3, 237240, Note_on_c, 0, 33, 103
3, 237420, Note_on_c, 0, 33, 0
3, 237420, Note_on_c, 0, 34, 106
3, 237600, Note_on_c, 0, 34, 0
3, 237600, Note_on_c, 0, 38, 106
3, 240660, Note_on_c, 0, 38, 0
3, 241380, Note_on_c, 0, 43, 79
3, 241560, Note_on_c, 0, 43, 0
3, 241560, Note_on_c, 0, 45, 86
3, 241740, Note_on_c, 0, 45, 0
3, 241740, Note_on_c, 0, 46, 92
3, 241920, Note_on_c, 0, 46, 0
3, 241920, Note_on_c, 0, 50, 98
3, 242820, Note_on_c, 0, 50, 0
3, 242820, Note_on_c, 0, 43, 78
3, 243000, Note_on_c, 0, 43, 0
3, 243000, Note_on_c, 0, 45, 93
3, 243180, Note_on_c, 0, 45, 0
3, 243180, Note_on_c, 0, 46, 93
3, 243360, Note_on_c, 0, 46, 0
3, 243360, Note_on_c, 0, 50, 97
3, 244260, Note_on_c, 0, 50, 0
3, 244260, Note_on_c, 0, 55, 101
3, 244440, Note_on_c, 0, 55, 0
3, 244440, Note_on_c, 0, 53, 78
3, 244620, Note_on_c, 0, 53, 0
3, 244620, Note_on_c, 0, 50, 83
3, 244800, Note_on_c, 0, 50, 0
3, 244800, Note_on_c, 0, 46, 78
3, 244980, Note_on_c, 0, 46, 0
3, 244980, Note_on_c, 0, 51, 98
3, 245160, Note_on_c, 0, 51, 0
3, 245160, Note_on_c, 0, 50, 84
3, 245340, Note_on_c, 0, 50, 0
3, 245340, Note_on_c, 0, 46, 89
3, 245520, Note_on_c, 0, 46, 0
3, 245520, Note_on_c, 0, 43, 89
3, 245700, Note_on_c, 0, 43, 0
3, 245700, Note_on_c, 0, 48, 99
3, 245880, Note_on_c, 0, 48, 0
3, 245880, Note_on_c, 0, 46, 89
3, 246060, Note_on_c, 0, 46, 0
3, 246060, Note_on_c, 0, 43, 80
3, 246240, Note_on_c, 0, 43, 0
3, 246240, Note_on_c, 0, 40, 80
3, 246600, Note_on_c, 0, 40, 0
3, 246600, Note_on_c, 0, 42, 89
3, 246870, Note_on_c, 0, 42, 0
3, 246870, Note_on_c, 0, 43, 90
3, 246960, Note_on_c, 0, 43, 0
3, 246960, Note_on_c, 0, 43, 84
3, 247860, Note_on_c, 0, 43, 0
3, 252810, Note_on_c, 0, 33, 78
3, 252900, Note_on_c, 0, 33, 0
3, 252900, Note_on_c, 0, 34, 87
3, 252990, Note_on_c, 0, 34, 0
3, 252990, Note_on_c, 0, 36, 89
3, 253080, Note_on_c, 0, 36, 0
3, 253080, Note_on_c, 0, 38, 86
3, 253170, Note_on_c, 0, 38, 0
3, 253170, Note_on_c, 0, 40, 93
3, 253260, Note_on_c, 0, 40, 0
3, 253260, Note_on_c, 0, 42, 92
3, 253350, Note_on_c, 0, 42, 0
3, 253350, Note_on_c, 0, 43, 92
3, 253440, Note_on_c, 0, 43, 0
3, 253440, Note_on_c, 0, 46, 87
3, 253710, Note_on_c, 0, 46, 0
3, 253710, Note_on_c, 0, 45, 86
3, 253800, Note_on_c, 0, 45, 0
3, 253800, Note_on_c, 0, 43, 85
3, 253980, Note_on_c, 0, 43, 0
3, 255060, Note_on_c, 0, 49, 80
3, 255420, Note_on_c, 0, 49, 0
3, 255420, Note_on_c, 0, 50, 92
3, 255600, Note_on_c, 0, 50, 0
3, 256050, Note_on_c, 0, 43, 77
3, 256130, Note_on_c, 0, 43, 0
3, 256140, Note_on_c, 0, 50, 109
3, 256230, Note_on_c, 0, 50, 0
3, 256230, Note_on_c, 0, 48, 85
3, 256320, Note_on_c, 0, 48, 0
3, 256320, Note_on_c, 0, 43, 83
3, 256770, Note_on_c, 0, 43, 0
3, 256770, Note_on_c, 0, 48, 98
3, 256860, Note_on_c, 0, 48, 0
3, 256860, Note_on_c, 0, 55, 107
3, 256950, Note_on_c, 0, 55, 0
3, 256950, Note_on_c, 0, 53, 84
3, 257040, Note_on_c, 0, 53, 0
3, 257040, Note_on_c, 0, 48, 72
3, 257220, Note_on_c, 0, 48, 0
3, 257220, Note_on_c, 0, 46, 82
3, 257490, Note_on_c, 0, 46, 0
3, 257490, Note_on_c, 0, 50, 97
3, 257580, Note_on_c, 0, 50, 0
3, 257580, Note_on_c, 0, 57, 106
3, 257670, Note_on_c, 0, 57, 0
3, 257670, Note_on_c, 0, 55, 84
3, 257760, Note_on_c, 0, 55, 0
3, 257760, Note_on_c, 0, 50, 75
3, 258300, Note_on_c, 0, 50, 0
3, 258300, Note_on_c, 0, 49, 79
3, 258480, Note_on_c, 0, 49, 0
3, 258480, Note_on_c, 0, 55, 100
3, 258660, Note_on_c, 0, 55, 0
3, 258660, Note_on_c, 0, 51, 82
3, 258750, Note_on_c, 0, 51, 0
3, 258750, Note_on_c, 0, 50, 80
3, 258840, Note_on_c, 0, 50, 0
3, 258840, Note_on_c, 0, 50, 87
3, 259020, Note_on_c, 0, 50, 0
3, 259020, Note_on_c, 0, 49, 83
3, 259200, Note_on_c, 0, 49, 0
3, 259200, Note_on_c, 0, 55, 104
3, 259290, Note_on_c, 0, 55, 0
3, 259290, Note_on_c, 0, 51, 81
3, 259380, Note_on_c, 0, 51, 0
3, 259380, Note_on_c, 0, 50, 82
3, 259470, Note_on_c, 0, 50, 0
3, 259470, Note_on_c, 0, 49, 82
3, 259560, Note_on_c, 0, 49, 0
3, 259560, Note_on_c, 0, 55, 104
3, 259650, Note_on_c, 0, 55, 0
3, 259650, Note_on_c, 0, 51, 79
3, 259740, Note_on_c, 0, 51, 0
3, 259740, Note_on_c, 0, 50, 81
3, 259830, Note_on_c, 0, 50, 0
3, 259830, Note_on_c, 0, 49, 78
3, 259920, Note_on_c, 0, 49, 0
3, 259920, Note_on_c, 0, 53, 96
3, 260010, Note_on_c, 0, 53, 0
3, 260010, Note_on_c, 0, 50, 85
3, 260100, Note_on_c, 0, 50, 0
3, 260100, Note_on_c, 0, 48, 86
3, 260190, Note_on_c, 0, 48, 0
3, 260190, Note_on_c, 0, 47, 88
3, 260280, Note_on_c, 0, 47, 0
3, 260280, Note_on_c, 0, 53, 105
3, 260370, Note_on_c, 0, 53, 0
3, 260370, Note_on_c, 0, 50, 80
3, 260460, Note_on_c, 0, 50, 0
3, 260460, Note_on_c, 0, 48, 83
3, 260550, Note_on_c, 0, 48, 0
3, 260550, Note_on_c, 0, 47, 83
3, 260640, Note_on_c, 0, 47, 0
3, 260640, Note_on_c, 0, 48, 94
3, 260730, Note_on_c, 0, 48, 0
3, 260730, Note_on_c, 0, 43, 86
3, 260820, Note_on_c, 0, 43, 0
3, 260820, Note_on_c, 0, 45, 88
3, 260910, Note_on_c, 0, 45, 0
3, 260910, Note_on_c, 0, 47, 92
3, 261000, Note_on_c, 0, 47, 0
3, 261000, Note_on_c, 0, 48, 93
3, 261090, Note_on_c, 0, 48, 0
3, 261090, Note_on_c, 0, 50, 96
3, 261180, Note_on_c, 0, 50, 0
3, 261180, Note_on_c, 0, 51, 95
3, 261450, Note_on_c, 0, 51, 0
3, 261450, Note_on_c, 0, 39, 80
3, 261540, Note_on_c, 0, 39, 0
3, 261540, Note_on_c, 0, 41, 85
3, 261630, Note_on_c, 0, 41, 0
3, 261630, Note_on_c, 0, 43, 92
3, 261720, Note_on_c, 0, 43, 0
3, 261720, Note_on_c, 0, 46, 87
3, 262170, Note_on_c, 0, 46, 0
3, 262170, Note_on_c, 0, 40, 88
3, 262260, Note_on_c, 0, 40, 0
3, 262260, Note_on_c, 0, 42, 87
3, 262350, Note_on_c, 0, 42, 0
3, 262350, Note_on_c, 0, 43, 86
3, 262440, Note_on_c, 0, 43, 0
3, 262440, Note_on_c, 0, 46, 85
3, 262800, Note_on_c, 0, 46, 0
3, 262800, Note_on_c, 0, 45, 82
3, 262890, Note_on_c, 0, 45, 0
3, 262890, Note_on_c, 0, 42, 81
3, 262980, Note_on_c, 0, 42, 0
3, 262980, Note_on_c, 0, 43, 80
3, 263070, Note_on_c, 0, 43, 0
3, 263070, Note_on_c, 0, 45, 80
3, 263160, Note_on_c, 0, 45, 0
3, 263160, Note_on_c, 0, 48, 79
3, 263520, Note_on_c, 0, 48, 0
3, 263520, Note_on_c, 0, 46, 76
3, 263700, Note_on_c, 0, 46, 0
3, 276480, Note_on_c, 0, 33, 69
3, 276552, Note_on_c, 0, 33, 0
3, 276570, Note_on_c, 0, 33, 65
3, 276642, Note_on_c, 0, 33, 0
3, 276660, Note_on_c, 0, 33, 69
3, 276732, Note_on_c, 0, 33, 0
3, 276750, Note_on_c, 0, 33, 59
3, 276822, Note_on_c, 0, 33, 0
3, 276840, Note_on_c, 0, 33, 70
3, 276912, Note_on_c, 0, 33, 0
3, 276930, Note_on_c, 0, 33, 63
3, 277002, Note_on_c, 0, 33, 0
3, 277020, Note_on_c, 0, 33, 68
3, 277092, Note_on_c, 0, 33, 0
3, 277110, Note_on_c, 0, 33, 61
3, 277182, Note_on_c, 0, 33, 0
3, 277200, Note_on_c, 0, 33, 69
3, 277272, Note_on_c, 0, 33, 0
3, 277290, Note_on_c, 0, 33, 64
3, 277362, Note_on_c, 0, 33, 0
3, 277380, Note_on_c, 0, 33, 69
3, 277452, Note_on_c, 0, 33, 0
3, 277470, Note_on_c, 0, 33, 65
3, 277542, Note_on_c, 0, 33, 0
3, 277560, Note_on_c, 0, 33, 68
3, 277632, Note_on_c, 0, 33, 0
3, 277650, Note_on_c, 0, 33, 63
3, 277722, Note_on_c, 0, 33, 0
3, 277740, Note_on_c, 0, 33, 68
3, 277812, Note_on_c, 0, 33, 0
3, 277830, Note_on_c, 0, 33, 61
3, 277902, Note_on_c, 0, 33, 0
3, 277920, Note_on_c, 0, 33, 67
3, 277992, Note_on_c, 0, 33, 0
3, 278010, Note_on_c, 0, 33, 70
3, 278082, Note_on_c, 0, 33, 0
3, 278100, Note_on_c, 0, 33, 72
3, 278172, Note_on_c, 0, 33, 0
3, 278190, Note_on_c, 0, 33, 69
3, 278262, Note_on_c, 0, 33, 0
3, 278280, Note_on_c, 0, 33, 73
3, 278352, Note_on_c, 0, 33, 0
3, 278370, Note_on_c, 0, 33, 71
3, 278442, Note_on_c, 0, 33, 0
3, 278460, Note_on_c, 0, 33, 71
3, 278532, Note_on_c, 0, 33, 0
3, 278550, Note_on_c, 0, 33, 69
3, 278622, Note_on_c, 0, 33, 0
3, 278640, Note_on_c, 0, 33, 70
3, 278712, Note_on_c, 0, 33, 0
3, 278730, Note_on_c, 0, 33, 69
3, 278802, Note_on_c, 0, 33, 0
3, 278820, Note_on_c, 0, 33, 69
3, 278892, Note_on_c, 0, 33, 0
3, 278910, Note_on_c, 0, 33, 66
3, 278982, Note_on_c, 0, 33, 0
3, 279000, Note_on_c, 0, 33, 72
3, 279072, Note_on_c, 0, 33, 0
3, 279090, Note_on_c, 0, 33, 72
3, 279162, Note_on_c, 0, 33, 0
3, 279180, Note_on_c, 0, 33, 69
3, 279252, Note_on_c, 0, 33, 0
3, 279270, Note_on_c, 0, 33, 69
3, 279342, Note_on_c, 0, 33, 0
3, 279360, Note_on_c, 0, 33, 75
3, 279432, Note_on_c, 0, 33, 0
3, 279450, Note_on_c, 0, 33, 74
3, 279522, Note_on_c, 0, 33, 0
3, 279540, Note_on_c, 0, 33, 75
3, 279612, Note_on_c, 0, 33, 0
3, 279630, Note_on_c, 0, 33, 74
3, 279702, Note_on_c, 0, 33, 0
3, 279720, Note_on_c, 0, 33, 76
3, 279792, Note_on_c, 0, 33, 0
3, 279810, Note_on_c, 0, 33, 76
3, 279882, Note_on_c, 0, 33, 0
3, 279900, Note_on_c, 0, 33, 77
3, 279972, Note_on_c, 0, 33, 0
3, 279990, Note_on_c, 0, 33, 66
3, 280062, Note_on_c, 0, 33, 0
3, 280080, Note_on_c, 0, 33, 81
3, 280152, Note_on_c, 0, 33, 0
3, 280170, Note_on_c, 0, 33, 69
3, 280242, Note_on_c, 0, 33, 0
3, 280260, Note_on_c, 0, 33, 76
3, 280332, Note_on_c, 0, 33, 0
3, 280350, Note_on_c, 0, 33, 75
3, 280422, Note_on_c, 0, 33, 0
3, 280440, Note_on_c, 0, 33, 79
3, 280512, Note_on_c, 0, 33, 0
3, 280530, Note_on_c, 0, 33, 69
3, 280602, Note_on_c, 0, 33, 0
3, 280620, Note_on_c, 0, 33, 74
3, 280692, Note_on_c, 0, 33, 0
3, 280710, Note_on_c, 0, 33, 72
3, 280782, Note_on_c, 0, 33, 0
3, 280800, Note_on_c, 0, 33, 73
3, 280872, Note_on_c, 0, 33, 0
3, 280890, Note_on_c, 0, 33, 66
3, 280962, Note_on_c, 0, 33, 0
3, 280980, Note_on_c, 0, 33, 75
3, 281052, Note_on_c, 0, 33, 0
3, 281070, Note_on_c, 0, 33, 67
3, 281142, Note_on_c, 0, 33, 0
3, 281160, Note_on_c, 0, 33, 72
3, 281232, Note_on_c, 0, 33, 0
3, 281250, Note_on_c, 0, 33, 69
3, 281322, Note_on_c, 0, 33, 0
3, 281340, Note_on_c, 0, 33, 75
3, 281412, Note_on_c, 0, 33, 0
3, 281430, Note_on_c, 0, 33, 67
3, 281502, Note_on_c, 0, 33, 0
3, 281520, Note_on_c, 0, 33, 76
3, 281592, Note_on_c, 0, 33, 0
3, 281610, Note_on_c, 0, 33, 71
3, 281682, Note_on_c, 0, 33, 0
3, 281700, Note_on_c, 0, 33, 71
3, 281772, Note_on_c, 0, 33, 0
3, 281790, Note_on_c, 0, 33, 68
3, 281862, Note_on_c, 0, 33, 0
3, 281880, Note_on_c, 0, 33, 71
3, 281952, Note_on_c, 0, 33, 0
3, 281970, Note_on_c, 0, 33, 66
3, 282042, Note_on_c, 0, 33, 0
3, 282060, Note_on_c, 0, 33, 73
3, 282132, Note_on_c, 0, 33, 0
3, 282150, Note_on_c, 0, 33, 69
3, 282222, Note_on_c, 0, 33, 0
3, 282240, Note_on_c, 0, 33, 74
3, 282312, Note_on_c, 0, 33, 0
3, 282330, Note_on_c, 0, 33, 75
3, 282402, Note_on_c, 0, 33, 0
3, 282420, Note_on_c, 0, 33, 72
3, 282492, Note_on_c, 0, 33, 0
3, 282510, Note_on_c, 0, 33, 73
3, 282582, Note_on_c, 0, 33, 0
3, 282600, Note_on_c, 0, 33, 72
3, 282672, Note_on_c, 0, 33, 0
3, 282690, Note_on_c, 0, 33, 67
3, 282762, Note_on_c, 0, 33, 0
3, 282780, Note_on_c, 0, 33, 77
3, 282852, Note_on_c, 0, 33, 0
3, 282870, Note_on_c, 0, 33, 74
3, 282942, Note_on_c, 0, 33, 0
3, 282960, Note_on_c, 0, 33, 74
3, 283032, Note_on_c, 0, 33, 0
3, 283050, Note_on_c, 0, 33, 72
3, 283122, Note_on_c, 0, 33, 0
3, 283140, Note_on_c, 0, 33, 73
3, 283212, Note_on_c, 0, 33, 0
3, 283230, Note_on_c, 0, 33, 67
3, 283302, Note_on_c, 0, 33, 0
3, 283320, Note_on_c, 0, 33, 76
3, 283392, Note_on_c, 0, 33, 0
3, 283410, Note_on_c, 0, 33, 73
3, 283482, Note_on_c, 0, 33, 0
3, 283500, Note_on_c, 0, 33, 77
3, 283572, Note_on_c, 0, 33, 0
3, 283590, Note_on_c, 0, 33, 70
3, 283662, Note_on_c, 0, 33, 0
3, 283680, Note_on_c, 0, 33, 87
3, 283770, Note_on_c, 0, 33, 0
3, 295200, Note_on_c, 0, 43, 78
3, 295740, Note_on_c, 0, 43, 0
3, 295740, Note_on_c, 0, 44, 88
3, 295920, Note_on_c, 0, 44, 0
3, 295920, Note_on_c, 0, 46, 95
3, 296100, Note_on_c, 0, 46, 0
3, 296100, Note_on_c, 0, 44, 81
3, 296280, Note_on_c, 0, 44, 0
3, 296280, Note_on_c, 0, 46, 85
3, 296460, Note_on_c, 0, 46, 0
3, 296460, Note_on_c, 0, 43, 82
3, 296640, Note_on_c, 0, 43, 0
3, 296640, Note_on_c, 0, 48, 100
3, 297360, Note_on_c, 0, 48, 0
3, 297360, Note_on_c, 0, 43, 81
3, 297540, Note_on_c, 0, 43, 0
3, 298080, Note_on_c, 0, 43, 80
3, 298260, Note_on_c, 0, 43, 0
3, 298260, Note_on_c, 0, 41, 82
3, 298440, Note_on_c, 0, 41, 0
3, 298440, Note_on_c, 0, 43, 91
3, 298620, Note_on_c, 0, 43, 0
3, 298620, Note_on_c, 0, 44, 89
3, 298800, Note_on_c, 0, 44, 0
3, 298800, Note_on_c, 0, 46, 89
3, 298980, Note_on_c, 0, 46, 0
3, 298980, Note_on_c, 0, 44, 86
3, 299160, Note_on_c, 0, 44, 0
3, 299160, Note_on_c, 0, 46, 84
3, 299340, Note_on_c, 0, 46, 0
3, 299340, Note_on_c, 0, 43, 86
3, 299520, Note_on_c, 0, 43, 0
3, 299520, Note_on_c, 0, 48, 102
3, 300240, Note_on_c, 0, 48, 0
3, 300240, Note_on_c, 0, 43, 86
3, 300420, Note_on_c, 0, 43, 0
3, 300960, Note_on_c, 0, 45, 81
3, 301500, Note_on_c, 0, 45, 0
3, 301500, Note_on_c, 0, 46, 89
3, 301680, Note_on_c, 0, 46, 0
3, 301680, Note_on_c, 0, 48, 93
3, 301860, Note_on_c, 0, 48, 0
3, 301860, Note_on_c, 0, 46, 88
3, 302040, Note_on_c, 0, 46, 0
3, 302040, Note_on_c, 0, 48, 94
3, 302220, Note_on_c, 0, 48, 0
3, 302220, Note_on_c, 0, 45, 86
3, 302400, Note_on_c, 0, 45, 0
3, 302400, Note_on_c, 0, 50, 88
3, 303120, Note_on_c, 0, 50, 0
3, 303120, Note_on_c, 0, 45, 90
3, 303300, Note_on_c, 0, 45, 0
3, 303840, Note_on_c, 0, 47, 91
3, 304380, Note_on_c, 0, 47, 0
3, 304380, Note_on_c, 0, 48, 92
3, 304560, Note_on_c, 0, 48, 0
3, 304560, Note_on_c, 0, 50, 92
3, 304740, Note_on_c, 0, 50, 0
3, 304740, Note_on_c, 0, 48, 92
3, 304920, Note_on_c, 0, 48, 0
3, 304920, Note_on_c, 0, 50, 93
3, 305100, Note_on_c, 0, 50, 0
3, 305100, Note_on_c, 0, 47, 93
3, 305280, Note_on_c, 0, 47, 0
3, 305280, Note_on_c, 0, 52, 93
3, 305640, Note_on_c, 0, 52, 0
3, 305640, Note_on_c, 0, 47, 94
3, 306000, Note_on_c, 0, 47, 0
3, 306000, Note_on_c, 0, 50, 95
3, 306360, Note_on_c, 0, 50, 0
3, 306360, Note_on_c, 0, 45, 95
3, 306720, Note_on_c, 0, 45, 0
3, 306720, Note_on_c, 0, 52, 96
3, 307080, Note_on_c, 0, 52, 0
3, 307080, Note_on_c, 0, 47, 97
3, 307440, Note_on_c, 0, 47, 0
3, 307440, Note_on_c, 0, 50, 97
3, 307757, Note_on_c, 0, 50, 0
3, 307800, Note_on_c, 0, 45, 98
3, 308117, Note_on_c, 0, 45, 0
3, 308160, Note_on_c, 0, 52, 98
3, 309455, Note_on_c, 0, 52, 0
3, 309600, Note_on_c, 0, 53, 101
3, 309960, Note_on_c, 0, 53, 0
3, 309960, Note_on_c, 0, 52, 91
3, 310140, Note_on_c, 0, 52, 0
3, 310140, Note_on_c, 0, 50, 94
3, 310320, Note_on_c, 0, 50, 0
3, 310320, Note_on_c, 0, 49, 93
3, 310500, Note_on_c, 0, 49, 0
3, 310500, Note_on_c, 0, 50, 107
3, 310680, Note_on_c, 0, 50, 0
3, 310680, Note_on_c, 0, 52, 106
3, 310860, Note_on_c, 0, 52, 0
3, 310860, Note_on_c, 0, 46, 91
3, 311040, Note_on_c, 0, 46, 0
3, 311040, Note_on_c, 0, 45, 97
3, 311400, Note_on_c, 0, 45, 0
3, 311400, Note_on_c, 0, 50, 119
3, 311940, Note_on_c, 0, 50, 0
3, 311940, Note_on_c, 0, 48, 91
3, 312120, Note_on_c, 0, 48, 0
3, 312120, Note_on_c, 0, 46, 100
3, 312300, Note_on_c, 0, 46, 0
3, 312300, Note_on_c, 0, 45, 101
3, 312480, Note_on_c, 0, 45, 0
3, 312480, Note_on_c, 0, 46, 105
3, 312840, Note_on_c, 0, 46, 0
3, 312840, Note_on_c, 0, 45, 102
3, 313020, Note_on_c, 0, 45, 0
3, 313020, Note_on_c, 0, 43, 98
3, 313200, Note_on_c, 0, 43, 0
3, 313200, Note_on_c, 0, 43, 100
3, 313380, Note_on_c, 0, 43, 0
3, 313380, Note_on_c, 0, 41, 95
3, 313560, Note_on_c, 0, 41, 0
3, 313560, Note_on_c, 0, 40, 97
3, 313740, Note_on_c, 0, 40, 0
3, 313740, Note_on_c, 0, 38, 101
3, 313920, Note_on_c, 0, 38, 0
3, 313920, Note_on_c, 0, 45, 106
3, 314280, Note_on_c, 0, 45, 0
3, 314280, Note_on_c, 0, 40, 97
3, 314460, Note_on_c, 0, 40, 0
3, 314460, Note_on_c, 0, 41, 96
3, 314640, Note_on_c, 0, 41, 0
3, 314640, Note_on_c, 0, 43, 108
3, 314820, Note_on_c, 0, 43, 0
3, 314820, Note_on_c, 0, 45, 109
3, 315000, Note_on_c, 0, 45, 0
3, 315000, Note_on_c, 0, 46, 117
3, 315158, Note_on_c, 0, 46, 0
3, 315180, Note_on_c, 0, 48, 115
3, 315338, Note_on_c, 0, 48, 0
3, 315360, Note_on_c, 0, 53, 116
3, 315720, Note_on_c, 0, 53, 0
3, 315720, Note_on_c, 0, 52, 100
3, 315900, Note_on_c, 0, 52, 0
3, 315900, Note_on_c, 0, 50, 94
3, 316080, Note_on_c, 0, 50, 0
3, 316080, Note_on_c, 0, 49, 97
3, 316260, Note_on_c, 0, 49, 0
3, 316260, Note_on_c, 0, 50, 105
3, 316440, Note_on_c, 0, 50, 0
3, 316440, Note_on_c, 0, 52, 107
3, 316620, Note_on_c, 0, 52, 0
3, 316620, Note_on_c, 0, 46, 97
3, 316800, Note_on_c, 0, 46, 0
3, 316800, Note_on_c, 0, 45, 100
3, 317160, Note_on_c, 0, 45, 0
3, 317160, Note_on_c, 0, 50, 113
3, 317700, Note_on_c, 0, 50, 0
3, 317700, Note_on_c, 0, 48, 95
3, 317880, Note_on_c, 0, 48, 0
3, 317880, Note_on_c, 0, 46, 99
3, 318060, Note_on_c, 0, 46, 0
3, 318060, Note_on_c, 0, 45, 102
3, 318240, Note_on_c, 0, 45, 0
3, 318240, Note_on_c, 0, 46, 103
3, 318780, Note_on_c, 0, 46, 0
3, 318780, Note_on_c, 0, 34, 89
3, 318960, Note_on_c, 0, 34, 0
3, 318960, Note_on_c, 0, 33, 97
3, 319122, Note_on_c, 0, 33, 0
3, 319140, Note_on_c, 0, 34, 100
3, 319320, Note_on_c, 0, 34, 0
3, 319320, Note_on_c, 0, 36, 102
3, 319500, Note_on_c, 0, 36, 0
3, 319500, Note_on_c, 0, 34, 100
3, 319590, Note_on_c, 0, 34, 0
3, 319590, Note_on_c, 0, 33, 94
3, 319680, Note_on_c, 0, 33, 0
3, 319680, Note_on_c, 0, 38, 109
3, 320400, Note_on_c, 0, 38, 0
3, 320400, Note_on_c, 0, 35, 98
3, 320580, Note_on_c, 0, 35, 0
3, 320580, Note_on_c, 0, 36, 103
3, 320760, Note_on_c, 0, 36, 0
3, 320760, Note_on_c, 0, 38, 108
3, 320850, Note_on_c, 0, 38, 0
3, 320850, Note_on_c, 0, 36, 96
3, 320940, Note_on_c, 0, 36, 0
3, 320940, Note_on_c, 0, 36, 97
3, 321030, Note_on_c, 0, 36, 0
3, 321030, Note_on_c, 0, 35, 97
3, 321120, Note_on_c, 0, 35, 0
3, 321120, Note_on_c, 0, 40, 108
3, 321660, Note_on_c, 0, 40, 0
3, 321660, Note_on_c, 0, 38, 114
3, 321818, Note_on_c, 0, 38, 0
3, 321840, Note_on_c, 0, 35, 99
3, 322020, Note_on_c, 0, 35, 0
3, 322020, Note_on_c, 0, 36, 109
3, 322200, Note_on_c, 0, 36, 0
3, 322200, Note_on_c, 0, 38, 105
3, 322380, Note_on_c, 0, 38, 0
3, 322380, Note_on_c, 0, 36, 93
3, 322470, Note_on_c, 0, 36, 0
3, 322470, Note_on_c, 0, 35, 95
3, 322560, Note_on_c, 0, 35, 0
3, 322560, Note_on_c, 0, 40, 106
3, 323280, Note_on_c, 0, 40, 0
3, 323280, Note_on_c, 0, 36, 96
3, 323460, Note_on_c, 0, 36, 0
3, 323460, Note_on_c, 0, 38, 102
3, 323640, Note_on_c, 0, 38, 0
3, 323640, Note_on_c, 0, 39, 104
3, 323820, Note_on_c, 0, 39, 0
3, 323820, Note_on_c, 0, 38, 100
3, 323910, Note_on_c, 0, 38, 0
3, 323910, Note_on_c, 0, 36, 97
3, 324000, Note_on_c, 0, 36, 0
3, 324000, Note_on_c, 0, 41, 115
3, 324540, Note_on_c, 0, 41, 0
3, 324540, Note_on_c, 0, 41, 118
3, 324698, Note_on_c, 0, 41, 0
3, 324720, Note_on_c, 0, 38, 98
3, 324900, Note_on_c, 0, 38, 0
3, 324900, Note_on_c, 0, 39, 106
3, 325080, Note_on_c, 0, 39, 0
3, 325080, Note_on_c, 0, 41, 108
3, 325260, Note_on_c, 0, 41, 0
3, 325260, Note_on_c, 0, 39, 101
3, 325350, Note_on_c, 0, 39, 0
3, 325350, Note_on_c, 0, 38, 98
3, 325440, Note_on_c, 0, 38, 0
3, 325440, Note_on_c, 0, 43, 110
3, 326340, Note_on_c, 0, 43, 0
3, 326340, Note_on_c, 0, 36, 101
3, 326498, Note_on_c, 0, 36, 0
3, 326520, Note_on_c, 0, 38, 116
3, 326678, Note_on_c, 0, 38, 0
3, 326700, Note_on_c, 0, 39, 119
3, 326858, Note_on_c, 0, 39, 0
3, 326880, Note_on_c, 0, 45, 112
3, 327510, Note_on_c, 0, 45, 0
3, 327510, Note_on_c, 0, 43, 99
3, 327600, Note_on_c, 0, 43, 0
3, 327600, Note_on_c, 0, 43, 101
3, 327780, Note_on_c, 0, 43, 0
3, 327780, Note_on_c, 0, 24, 89
3, 327825, Note_on_c, 0, 24, 0
3, 327825, Note_on_c, 0, 26, 105
3, 327870, Note_on_c, 0, 26, 0
3, 327870, Note_on_c, 0, 27, 107
3, 327915, Note_on_c, 0, 27, 0
3, 327915, Note_on_c, 0, 29, 104
3, 327960, Note_on_c, 0, 29, 0
3, 327960, Note_on_c, 0, 31, 103
3, 328005, Note_on_c, 0, 31, 0
3, 328005, Note_on_c, 0, 33, 106
3, 328050, Note_on_c, 0, 33, 0
3, 328050, Note_on_c, 0, 35, 107
3, 328095, Note_on_c, 0, 35, 0
3, 328095, Note_on_c, 0, 36, 108
3, 328140, Note_on_c, 0, 36, 0
3, 328140, Note_on_c, 0, 38, 104
3, 328185, Note_on_c, 0, 38, 0
3, 328185, Note_on_c, 0, 39, 107
3, 328230, Note_on_c, 0, 39, 0
3, 328230, Note_on_c, 0, 41, 104
3, 328275, Note_on_c, 0, 41, 0
3, 328275, Note_on_c, 0, 43, 108
3, 328320, Note_on_c, 0, 43, 0
3, 328320, Note_on_c, 0, 45, 105
3, 328950, Note_on_c, 0, 45, 0
3, 328950, Note_on_c, 0, 43, 100
3, 329040, Note_on_c, 0, 43, 0
3, 329040, Note_on_c, 0, 43, 103
3, 329220, Note_on_c, 0, 43, 0
3, 329220, Note_on_c, 0, 39, 108
3, 329378, Note_on_c, 0, 39, 0
3, 329400, Note_on_c, 0, 41, 119
3, 329558, Note_on_c, 0, 41, 0
3, 329580, Note_on_c, 0, 43, 115
3, 329738, Note_on_c, 0, 43, 0
3, 329760, Note_on_c, 0, 46, 109
3, 330390, Note_on_c, 0, 46, 0
3, 330390, Note_on_c, 0, 43, 100
3, 330480, Note_on_c, 0, 43, 0
3, 330480, Note_on_c, 0, 43, 95
3, 330660, Note_on_c, 0, 43, 0
3, 330660, Note_on_c, 0, 26, 91
3, 330705, Note_on_c, 0, 26, 0
3, 330705, Note_on_c, 0, 27, 101
3, 330750, Note_on_c, 0, 27, 0
3, 330750, Note_on_c, 0, 29, 104
3, 330795, Note_on_c, 0, 29, 0
3, 330795, Note_on_c, 0, 31, 103
3, 330840, Note_on_c, 0, 31, 0
3, 330840, Note_on_c, 0, 33, 102
3, 330885, Note_on_c, 0, 33, 0
3, 330885, Note_on_c, 0, 34, 104
3, 330930, Note_on_c, 0, 34, 0
3, 330930, Note_on_c, 0, 36, 107
3, 330975, Note_on_c, 0, 36, 0
3, 330975, Note_on_c, 0, 38, 107
3, 331020, Note_on_c, 0, 38, 0
3, 331020, Note_on_c, 0, 39, 106
3, 331065, Note_on_c, 0, 39, 0
3, 331065, Note_on_c, 0, 41, 104
3, 331110, Note_on_c, 0, 41, 0
3, 331110, Note_on_c, 0, 43, 103
3, 331155, Note_on_c, 0, 43, 0
3, 331155, Note_on_c, 0, 45, 104
3, 331200, Note_on_c, 0, 45, 0
3, 331200, Note_on_c, 0, 46, 104
3, 331830, Note_on_c, 0, 46, 0
3, 331830, Note_on_c, 0, 43, 94
3, 331920, Note_on_c, 0, 43, 0
3, 331920, Note_on_c, 0, 43, 99
3, 332100, Note_on_c, 0, 43, 0
3, 332100, Note_on_c, 0, 43, 112
3, 332258, Note_on_c, 0, 43, 0
3, 332280, Note_on_c, 0, 45, 118
3, 332438, Note_on_c, 0, 45, 0
3, 332460, Note_on_c, 0, 46, 114
3, 332618, Note_on_c, 0, 46, 0
3, 332640, Note_on_c, 0, 50, 110
3, 333540, Note_on_c, 0, 50, 0
3, 333540, Note_on_c, 0, 43, 107
3, 333698, Note_on_c, 0, 43, 0
3, 333720, Note_on_c, 0, 45, 114
3, 333878, Note_on_c, 0, 45, 0
3, 333900, Note_on_c, 0, 46, 116
3, 334058, Note_on_c, 0, 46, 0
3, 334080, Note_on_c, 0, 50, 113
3, 334980, Note_on_c, 0, 50, 0
3, 334980, Note_on_c, 0, 44, 104
3, 335138, Note_on_c, 0, 44, 0
3, 335160, Note_on_c, 0, 46, 116
3, 335318, Note_on_c, 0, 46, 0
3, 335340, Note_on_c, 0, 47, 119
3, 335498, Note_on_c, 0, 47, 0
3, 335520, Note_on_c, 0, 51, 112
3, 336420, Note_on_c, 0, 51, 0
3, 336420, Note_on_c, 0, 44, 110
3, 336578, Note_on_c, 0, 44, 0
3, 336600, Note_on_c, 0, 46, 114
3, 336758, Note_on_c, 0, 46, 0
3, 336780, Note_on_c, 0, 47, 116
3, 336938, Note_on_c, 0, 47, 0
3, 336960, Note_on_c, 0, 51, 108
3, 337860, Note_on_c, 0, 51, 0
3, 337860, Note_on_c, 0, 48, 107
3, 338018, Note_on_c, 0, 48, 0
3, 338040, Note_on_c, 0, 50, 120
3, 338198, Note_on_c, 0, 50, 0
3, 338220, Note_on_c, 0, 51, 122
3, 338378, Note_on_c, 0, 51, 0
3, 338400, Note_on_c, 0, 55, 117
3, 339120, Note_on_c, 0, 55, 0
3, 339120, Note_on_c, 0, 53, 103
3, 339300, Note_on_c, 0, 53, 0
3, 339300, Note_on_c, 0, 45, 103
3, 339458, Note_on_c, 0, 45, 0
3, 339480, Note_on_c, 0, 46, 118
3, 339638, Note_on_c, 0, 46, 0
3, 339660, Note_on_c, 0, 48, 118
3, 339818, Note_on_c, 0, 48, 0
3, 339840, Note_on_c, 0, 51, 108
3, 340560, Note_on_c, 0, 51, 0
3, 340560, Note_on_c, 0, 50, 101
3, 340740, Note_on_c, 0, 50, 0
3, 340740, Note_on_c, 0, 41, 103
3, 340898, Note_on_c, 0, 41, 0
3, 340920, Note_on_c, 0, 43, 116
3, 341078, Note_on_c, 0, 43, 0
3, 341100, Note_on_c, 0, 45, 117
3, 341258, Note_on_c, 0, 45, 0
3, 341280, Note_on_c, 0, 48, 109
3, 342000, Note_on_c, 0, 48, 0
3, 342000, Note_on_c, 0, 46, 100
3, 342180, Note_on_c, 0, 46, 0
3, 342180, Note_on_c, 0, 38, 105
3, 342338, Note_on_c, 0, 38, 0
3, 342360, Note_on_c, 0, 39, 114
3, 342518, Note_on_c, 0, 39, 0
3, 342540, Note_on_c, 0, 41, 121
3, 342698, Note_on_c, 0, 41, 0
3, 342720, Note_on_c, 0, 45, 104
3, 343440, Note_on_c, 0, 45, 0
3, 343440, Note_on_c, 0, 43, 98
3, 343620, Note_on_c, 0, 43, 0
3, 343620, Note_on_c, 0, 46, 119
3, 343778, Note_on_c, 0, 46, 0
3, 343800, Note_on_c, 0, 48, 120
3, 343958, Note_on_c, 0, 48, 0
3, 343980, Note_on_c, 0, 50, 123
3, 344138, Note_on_c, 0, 50, 0
3, 344160, Note_on_c, 0, 53, 117
3, 344318, Note_on_c, 0, 53, 0
3, 344340, Note_on_c, 0, 51, 111
3, 344498, Note_on_c, 0, 51, 0
3, 344520, Note_on_c, 0, 50, 112
3, 344678, Note_on_c, 0, 50, 0
3, 344700, Note_on_c, 0, 48, 114
3, 344858, Note_on_c, 0, 48, 0
3, 344880, Note_on_c, 0, 46, 102
3, 344970, Note_on_c, 0, 46, 0
3, 344970, Note_on_c, 0, 45, 101
3, 345060, Note_on_c, 0, 45, 0
3, 345060, Note_on_c, 0, 43, 99
3, 345150, Note_on_c, 0, 43, 0
3, 345150, Note_on_c, 0, 39, 98
3, 345240, Note_on_c, 0, 39, 0
3, 345240, Note_on_c, 0, 36, 96
3, 345330, Note_on_c, 0, 36, 0
3, 345330, Note_on_c, 0, 31, 94
3, 345420, Note_on_c, 0, 31, 0
3, 345420, Note_on_c, 0, 33, 93
3, 345510, Note_on_c, 0, 33, 0
3, 345510, Note_on_c, 0, 34, 91
3, 345600, Note_on_c, 0, 34, 0
3, 345600, Note_on_c, 0, 33, 91
3, 348390, Note_on_c, 0, 33, 0
3, 348390, Note_on_c, 0, 31, 86
3, 348480, Note_on_c, 0, 31, 0
3, 348480, Note_on_c, 0, 31, 90
3, 348660, Note_on_c, 0, 31, 0
3, 353700, Note_on_c, 0, 31, 52
3, 353880, Note_on_c, 0, 31, 0
3, 353880, Note_on_c, 0, 33, 58
3, 354060, Note_on_c, 0, 33, 0
3, 354060, Note_on_c, 0, 34, 56
3, 354240, Note_on_c, 0, 34, 0
3, 354240, Note_on_c, 0, 38, 51
3, 355140, Note_on_c, 0, 38, 0
3, 355140, Note_on_c, 0, 31, 49
3, 355320, Note_on_c, 0, 31, 0
3, 355320, Note_on_c, 0, 33, 55
3, 355500, Note_on_c, 0, 33, 0
3, 355500, Note_on_c, 0, 34, 58
3, 355680, Note_on_c, 0, 34, 0
3, 355680, Note_on_c, 0, 38, 58
3, 356580, Note_on_c, 0, 38, 0
3, 356580, Note_on_c, 0, 43, 57
3, 356760, Note_on_c, 0, 43, 0
3, 356760, Note_on_c, 0, 41, 57
3, 356940, Note_on_c, 0, 41, 0
3, 356940, Note_on_c, 0, 38, 54
3, 357120, Note_on_c, 0, 38, 0
3, 357120, Note_on_c, 0, 34, 53
3, 357300, Note_on_c, 0, 34, 0
3, 357300, Note_on_c, 0, 39, 61
3, 357480, Note_on_c, 0, 39, 0
3, 357480, Note_on_c, 0, 38, 53
3, 357660, Note_on_c, 0, 38, 0
3, 357660, Note_on_c, 0, 34, 56
3, 357840, Note_on_c, 0, 34, 0
3, 357840, Note_on_c, 0, 31, 56
3, 358020, Note_on_c, 0, 31, 0
3, 358020, Note_on_c, 0, 36, 57
3, 358200, Note_on_c, 0, 36, 0
3, 358200, Note_on_c, 0, 34, 54
3, 358380, Note_on_c, 0, 34, 0
3, 358380, Note_on_c, 0, 38, 60
3, 358560, Note_on_c, 0, 38, 0
3, 358560, Note_on_c, 0, 40, 56
3, 358920, Note_on_c, 0, 40, 0
3, 358920, Note_on_c, 0, 42, 58
3, 359190, Note_on_c, 0, 42, 0
3, 359190, Note_on_c, 0, 43, 61
3, 359280, Note_on_c, 0, 43, 0
3, 359280, Note_on_c, 0, 43, 56
3, 359460, Note_on_c, 0, 43, 0
3, 359460, Note_on_c, 0, 36, 49
3, 359640, Note_on_c, 0, 36, 0
3, 359640, Note_on_c, 0, 38, 56
3, 359820, Note_on_c, 0, 38, 0
3, 359820, Note_on_c, 0, 40, 55
3, 360000, Note_on_c, 0, 40, 0
3, 360000, Note_on_c, 0, 43, 55
3, 360900, Note_on_c, 0, 43, 0
3, 360900, Note_on_c, 0, 36, 51
3, 361080, Note_on_c, 0, 36, 0
3, 361080, Note_on_c, 0, 38, 58
3, 361260, Note_on_c, 0, 38, 0
3, 361260, Note_on_c, 0, 39, 58
3, 361440, Note_on_c, 0, 39, 0
3, 361440, Note_on_c, 0, 43, 61
3, 362340, Note_on_c, 0, 43, 0
3, 362340, Note_on_c, 0, 51, 68
3, 362520, Note_on_c, 0, 51, 0
3, 362520, Note_on_c, 0, 50, 52
3, 362700, Note_on_c, 0, 50, 0
3, 362700, Note_on_c, 0, 46, 52
3, 362880, Note_on_c, 0, 46, 0
3, 362880, Note_on_c, 0, 43, 56
3, 363060, Note_on_c, 0, 43, 0
3, 363060, Note_on_c, 0, 48, 63
3, 363240, Note_on_c, 0, 48, 0
3, 363240, Note_on_c, 0, 46, 56
3, 363420, Note_on_c, 0, 46, 0
3, 363420, Note_on_c, 0, 43, 50
3, 363600, Note_on_c, 0, 43, 0
3, 363600, Note_on_c, 0, 39, 54
3, 363780, Note_on_c, 0, 39, 0
3, 363780, Note_on_c, 0, 45, 57
3, 363960, Note_on_c, 0, 45, 0
3, 363960, Note_on_c, 0, 43, 54
3, 364140, Note_on_c, 0, 43, 0
3, 364140, Note_on_c, 0, 38, 49
3, 364320, Note_on_c, 0, 38, 0
3, 364320, Note_on_c, 0, 34, 48
3, 364680, Note_on_c, 0, 34, 0
3, 364680, Note_on_c, 0, 33, 50
3, 364950, Note_on_c, 0, 33, 0
3, 364950, Note_on_c, 0, 31, 50
3, 365040, Note_on_c, 0, 31, 0
3, 365040, Note_on_c, 0, 31, 57
3, 365220, Note_on_c, 0, 31, 0
3, 365220, Note_on_c, 0, 31, 54
3, 365400, Note_on_c, 0, 31, 0
3, 365400, Note_on_c, 0, 33, 54
3, 365580, Note_on_c, 0, 33, 0
3, 365580, Note_on_c, 0, 34, 56
3, 365760, Note_on_c, 0, 34, 0
3, 365760, Note_on_c, 0, 38, 64
3, 366660, Note_on_c, 0, 38, 0
3, 366660, Note_on_c, 0, 31, 51
3, 366840, Note_on_c, 0, 31, 0
3, 366840, Note_on_c, 0, 33, 53
3, 367020, Note_on_c, 0, 33, 0
3, 367020, Note_on_c, 0, 34, 55
3, 367200, Note_on_c, 0, 34, 0
3, 367200, Note_on_c, 0, 38, 62
3, 368820, Note_on_c, 0, 38, 0
3, 368820, End_track
4, 0, Start_track
4, 0, Title_t, "Piano"
4, 0, Program_c, 0, 0
4, 0, Control_c, 0, 7, 105
4, 0, Control_c, 0, 10, 64
4, 0, Control_c, 0, 91, 48
4, 0, Control_c, 0, 121, 0
4, 0, Control_c, 0, 64, 0
4, 0, Control_c, 0, 121, 0
4, 0, Control_c, 0, 64, 0
4, 0, Control_c, 0, 91, 48
4, 0, Control_c, 0, 10, 51
4, 0, Control_c, 0, 7, 100
4, 5220, Note_on_c, 0, 67, 69
4, 5220, Note_on_c, 0, 79, 69
4, 5220, Note_on_c, 0, 55, 65
4, 5400, Note_on_c, 0, 55, 0
4, 5400, Note_on_c, 0, 79, 0
4, 5400, Note_on_c, 0, 67, 0
4, 5400, Note_on_c, 0, 72, 67
4, 5400, Note_on_c, 0, 75, 67
4, 5400, Note_on_c, 0, 69, 79
4, 5400, Note_on_c, 0, 81, 79
4, 5400, Note_on_c, 0, 55, 63
4, 5400, Note_on_c, 0, 60, 63
4, 5400, Note_on_c, 0, 63, 63
4, 5400, Note_on_c, 0, 57, 76
4, 5580, Note_on_c, 0, 57, 0
4, 5580, Note_on_c, 0, 81, 0
4, 5580, Note_on_c, 0, 69, 0
4, 5580, Note_on_c, 0, 70, 80
4, 5580, Note_on_c, 0, 82, 80
4, 5580, Note_on_c, 0, 58, 77
4, 5760, Note_on_c, 0, 58, 0
4, 5760, Note_on_c, 0, 72, 0
4, 5760, Note_on_c, 0, 75, 0
4, 5760, Note_on_c, 0, 63, 0
4, 5760, Note_on_c, 0, 55, 0
4, 5760, Note_on_c, 0, 60, 0
4, 5760, Note_on_c, 0, 70, 0
4, 5760, Note_on_c, 0, 82, 0
4, 5760, Note_on_c, 0, 74, 91
4, 5760, Note_on_c, 0, 79, 91
4, 5760, Note_on_c, 0, 82, 91
4, 5760, Note_on_c, 0, 86, 91
4, 5760, Note_on_c, 0, 55, 71
4, 5760, Note_on_c, 0, 58, 71
4, 5760, Note_on_c, 0, 62, 71
4, 6660, Note_on_c, 0, 62, 0
4, 6660, Note_on_c, 0, 55, 0
4, 6660, Note_on_c, 0, 79, 0
4, 6660, Note_on_c, 0, 82, 0
4, 6660, Note_on_c, 0, 74, 0
4, 6660, Note_on_c, 0, 58, 0
4, 6660, Note_on_c, 0, 86, 0
4, 6660, Note_on_c, 0, 67, 69
4, 6660, Note_on_c, 0, 79, 69
4, 6660, Note_on_c, 0, 55, 73
4, 6840, Note_on_c, 0, 55, 0
4, 6840, Note_on_c, 0, 79, 0
4, 6840, Note_on_c, 0, 67, 0
4, 6840, Note_on_c, 0, 72, 55
4, 6840, Note_on_c, 0, 75, 55
4, 6840, Note_on_c, 0, 69, 82
4, 6840, Note_on_c, 0, 81, 82
4, 6840, Note_on_c, 0, 55, 81
4, 6840, Note_on_c, 0, 60, 81
4, 6840, Note_on_c, 0, 63, 81
4, 6840, Note_on_c, 0, 57, 81
4, 7020, Note_on_c, 0, 57, 0
4, 7020, Note_on_c, 0, 81, 0
4, 7020, Note_on_c, 0, 69, 0
4, 7020, Note_on_c, 0, 70, 78
4, 7020, Note_on_c, 0, 82, 78
4, 7020, Note_on_c, 0, 58, 79
4, 7200, Note_on_c, 0, 58, 0
4, 7200, Note_on_c, 0, 72, 0
4, 7200, Note_on_c, 0, 75, 0
4, 7200, Note_on_c, 0, 63, 0
4, 7200, Note_on_c, 0, 55, 0
4, 7200, Note_on_c, 0, 60, 0
4, 7200, Note_on_c, 0, 70, 0
4, 7200, Note_on_c, 0, 82, 0
4, 7200, Note_on_c, 0, 74, 88
4, 7200, Note_on_c, 0, 79, 88
4, 7200, Note_on_c, 0, 82, 88
4, 7200, Note_on_c, 0, 86, 88
4, 7200, Note_on_c, 0, 55, 70
4, 7200, Note_on_c, 0, 58, 70
4, 7200, Note_on_c, 0, 62, 70
4, 8100, Note_on_c, 0, 62, 0
4, 8100, Note_on_c, 0, 55, 0
4, 8100, Note_on_c, 0, 79, 0
4, 8100, Note_on_c, 0, 82, 0
4, 8100, Note_on_c, 0, 74, 0
4, 8100, Note_on_c, 0, 58, 0
4, 8100, Note_on_c, 0, 86, 0
4, 8100, Note_on_c, 0, 79, 81
4, 8100, Note_on_c, 0, 91, 81
4, 8100, Note_on_c, 0, 67, 87
4, 8280, Note_on_c, 0, 67, 0
4, 8280, Note_on_c, 0, 91, 0
4, 8280, Note_on_c, 0, 79, 0
4, 8280, Note_on_c, 0, 77, 70
4, 8280, Note_on_c, 0, 82, 70
4, 8280, Note_on_c, 0, 86, 70
4, 8280, Note_on_c, 0, 89, 70
4, 8280, Note_on_c, 0, 58, 71
4, 8280, Note_on_c, 0, 62, 71
4, 8280, Note_on_c, 0, 65, 71
4, 8460, Note_on_c, 0, 65, 0
4, 8460, Note_on_c, 0, 58, 0
4, 8460, Note_on_c, 0, 82, 0
4, 8460, Note_on_c, 0, 86, 0
4, 8460, Note_on_c, 0, 77, 0
4, 8460, Note_on_c, 0, 62, 0
4, 8460, Note_on_c, 0, 89, 0
4, 8460, Note_on_c, 0, 74, 69
4, 8460, Note_on_c, 0, 86, 69
4, 8460, Note_on_c, 0, 62, 71
4, 8640, Note_on_c, 0, 62, 0
4, 8640, Note_on_c, 0, 86, 0
4, 8640, Note_on_c, 0, 74, 0
4, 8640, Note_on_c, 0, 70, 70
4, 8640, Note_on_c, 0, 75, 70
4, 8640, Note_on_c, 0, 79, 70
4, 8640, Note_on_c, 0, 82, 70
4, 8640, Note_on_c, 0, 51, 71
4, 8640, Note_on_c, 0, 55, 71
4, 8640, Note_on_c, 0, 58, 71
4, 8820, Note_on_c, 0, 58, 0
4, 8820, Note_on_c, 0, 51, 0
4, 8820, Note_on_c, 0, 75, 0
4, 8820, Note_on_c, 0, 79, 0
4, 8820, Note_on_c, 0, 70, 0
4, 8820, Note_on_c, 0, 55, 0
4, 8820, Note_on_c, 0, 82, 0
4, 8820, Note_on_c, 0, 75, 86
4, 8820, Note_on_c, 0, 87, 86
4, 8820, Note_on_c, 0, 63, 86
4, 9000, Note_on_c, 0, 63, 0
4, 9000, Note_on_c, 0, 87, 0
4, 9000, Note_on_c, 0, 75, 0
4, 9000, Note_on_c, 0, 74, 71
4, 9000, Note_on_c, 0, 79, 71
4, 9000, Note_on_c, 0, 82, 71
4, 9000, Note_on_c, 0, 86, 71
4, 9000, Note_on_c, 0, 55, 70
4, 9000, Note_on_c, 0, 58, 70
4, 9000, Note_on_c, 0, 62, 70
4, 9180, Note_on_c, 0, 62, 0
4, 9180, Note_on_c, 0, 55, 0
4, 9180, Note_on_c, 0, 79, 0
4, 9180, Note_on_c, 0, 82, 0
4, 9180, Note_on_c, 0, 74, 0
4, 9180, Note_on_c, 0, 58, 0
4, 9180, Note_on_c, 0, 86, 0
4, 9180, Note_on_c, 0, 70, 74
4, 9180, Note_on_c, 0, 82, 74
4, 9180, Note_on_c, 0, 58, 69
4, 9360, Note_on_c, 0, 58, 0
4, 9360, Note_on_c, 0, 82, 0
4, 9360, Note_on_c, 0, 70, 0
4, 9360, Note_on_c, 0, 67, 67
4, 9360, Note_on_c, 0, 72, 67
4, 9360, Note_on_c, 0, 75, 67
4, 9360, Note_on_c, 0, 79, 67
4, 9360, Note_on_c, 0, 48, 73
4, 9360, Note_on_c, 0, 51, 73
4, 9360, Note_on_c, 0, 55, 73
4, 9540, Note_on_c, 0, 55, 0
4, 9540, Note_on_c, 0, 48, 0
4, 9540, Note_on_c, 0, 72, 0
4, 9540, Note_on_c, 0, 75, 0
4, 9540, Note_on_c, 0, 67, 0
4, 9540, Note_on_c, 0, 51, 0
4, 9540, Note_on_c, 0, 79, 0
4, 9540, Note_on_c, 0, 72, 87
4, 9540, Note_on_c, 0, 84, 87
4, 9540, Note_on_c, 0, 60, 86
4, 9720, Note_on_c, 0, 60, 0
4, 9720, Note_on_c, 0, 84, 0
4, 9720, Note_on_c, 0, 72, 0
4, 9720, Note_on_c, 0, 70, 75
4, 9720, Note_on_c, 0, 74, 75
4, 9720, Note_on_c, 0, 79, 75
4, 9720, Note_on_c, 0, 82, 75
4, 9720, Note_on_c, 0, 50, 80
4, 9720, Note_on_c, 0, 55, 80
4, 9720, Note_on_c, 0, 58, 80
4, 9900, Note_on_c, 0, 58, 0
4, 9900, Note_on_c, 0, 50, 0
4, 9900, Note_on_c, 0, 74, 0
4, 9900, Note_on_c, 0, 79, 0
4, 9900, Note_on_c, 0, 70, 0
4, 9900, Note_on_c, 0, 55, 0
4, 9900, Note_on_c, 0, 82, 0
4, 9900, Note_on_c, 0, 67, 70
4, 9900, Note_on_c, 0, 79, 70
4, 9900, Note_on_c, 0, 55, 73
4, 10080, Note_on_c, 0, 55, 0
4, 10080, Note_on_c, 0, 79, 0
4, 10080, Note_on_c, 0, 67, 0
4, 10080, Note_on_c, 0, 64, 68
4, 10080, Note_on_c, 0, 67, 68
4, 10080, Note_on_c, 0, 70, 68
4, 10080, Note_on_c, 0, 76, 68
4, 10080, Note_on_c, 0, 50, 88
4, 10080, Note_on_c, 0, 55, 88
4, 10080, Note_on_c, 0, 58, 88
4, 10080, Note_on_c, 0, 61, 88
4, 10440, Note_on_c, 0, 61, 0
4, 10440, Note_on_c, 0, 64, 0
4, 10440, Note_on_c, 0, 50, 0
4, 10440, Note_on_c, 0, 67, 0
4, 10440, Note_on_c, 0, 70, 0
4, 10440, Note_on_c, 0, 76, 0
4, 10440, Note_on_c, 0, 55, 0
4, 10440, Note_on_c, 0, 58, 0
4, 10440, Note_on_c, 0, 66, 79
4, 10440, Note_on_c, 0, 69, 79
4, 10440, Note_on_c, 0, 74, 79
4, 10440, Note_on_c, 0, 78, 79
4, 10440, Note_on_c, 0, 50, 81
4, 10440, Note_on_c, 0, 54, 81
4, 10440, Note_on_c, 0, 57, 81
4, 10440, Note_on_c, 0, 62, 81
4, 10800, Note_on_c, 0, 62, 0
4, 10800, Note_on_c, 0, 66, 0
4, 10800, Note_on_c, 0, 50, 0
4, 10800, Note_on_c, 0, 69, 0
4, 10800, Note_on_c, 0, 74, 0
4, 10800, Note_on_c, 0, 78, 0
4, 10800, Note_on_c, 0, 54, 0
4, 10800, Note_on_c, 0, 57, 0
4, 10800, Note_on_c, 0, 67, 80
4, 10800, Note_on_c, 0, 72, 80
4, 10800, Note_on_c, 0, 75, 80
4, 10800, Note_on_c, 0, 79, 80
4, 10800, Note_on_c, 0, 55, 77
4, 10800, Note_on_c, 0, 60, 77
4, 10800, Note_on_c, 0, 63, 77
4, 10980, Note_on_c, 0, 63, 0
4, 10980, Note_on_c, 0, 55, 0
4, 10980, Note_on_c, 0, 72, 0
4, 10980, Note_on_c, 0, 75, 0
4, 10980, Note_on_c, 0, 67, 0
4, 10980, Note_on_c, 0, 60, 0
4, 10980, Note_on_c, 0, 79, 0
4, 10980, Note_on_c, 0, 72, 87
4, 10980, Note_on_c, 0, 84, 87
4, 10980, Note_on_c, 0, 60, 73
4, 11160, Note_on_c, 0, 60, 0
4, 11160, Note_on_c, 0, 84, 0
4, 11160, Note_on_c, 0, 72, 0
4, 11160, Note_on_c, 0, 78, 85
4, 11160, Note_on_c, 0, 80, 85
4, 11160, Note_on_c, 0, 74, 91
4, 11160, Note_on_c, 0, 86, 91
4, 11160, Note_on_c, 0, 56, 65
4, 11160, Note_on_c, 0, 60, 65
4, 11160, Note_on_c, 0, 62, 90
4, 11340, Note_on_c, 0, 62, 0
4, 11340, Note_on_c, 0, 74, 0
4, 11340, Note_on_c, 0, 86, 0
4, 11340, Note_on_c, 0, 75, 84
4, 11340, Note_on_c, 0, 87, 84
4, 11340, Note_on_c, 0, 63, 88
4, 11520, Note_on_c, 0, 63, 0
4, 11520, Note_on_c, 0, 75, 0
4, 11520, Note_on_c, 0, 80, 0
4, 11520, Note_on_c, 0, 60, 0
4, 11520, Note_on_c, 0, 78, 0
4, 11520, Note_on_c, 0, 87, 0
4, 11520, Note_on_c, 0, 56, 0
4, 11520, Note_on_c, 0, 79, 99
4, 11520, Note_on_c, 0, 84, 99
4, 11520, Note_on_c, 0, 87, 99
4, 11520, Note_on_c, 0, 91, 99
4, 11520, Note_on_c, 0, 55, 86
4, 11520, Note_on_c, 0, 60, 86
4, 11520, Note_on_c, 0, 63, 86
4, 11520, Note_on_c, 0, 67, 86
4, 12420, Note_on_c, 0, 67, 0
4, 12420, Note_on_c, 0, 79, 0
4, 12420, Note_on_c, 0, 55, 0
4, 12420, Note_on_c, 0, 84, 0
4, 12420, Note_on_c, 0, 87, 0
4, 12420, Note_on_c, 0, 91, 0
4, 12420, Note_on_c, 0, 60, 0
4, 12420, Note_on_c, 0, 63, 0
4, 12420, Note_on_c, 0, 72, 71
4, 12420, Note_on_c, 0, 84, 71
4, 12420, Note_on_c, 0, 60, 79
4, 12600, Note_on_c, 0, 60, 0
4, 12600, Note_on_c, 0, 84, 0
4, 12600, Note_on_c, 0, 72, 0
4, 12600, Note_on_c, 0, 77, 55
4, 12600, Note_on_c, 0, 80, 55
4, 12600, Note_on_c, 0, 74, 86
4, 12600, Note_on_c, 0, 86, 86
4, 12600, Note_on_c, 0, 56, 66
4, 12600, Note_on_c, 0, 60, 66
4, 12600, Note_on_c, 0, 62, 88
4, 12690, Note_on_c, 0, 62, 0
4, 12690, Note_on_c, 0, 74, 0
4, 12690, Note_on_c, 0, 86, 0
4, 12690, Note_on_c, 0, 72, 79
4, 12690, Note_on_c, 0, 84, 79
4, 12690, Note_on_c, 0, 60, 80
4, 12780, Note_on_c, 0, 84, 0
4, 12780, Note_on_c, 0, 60, 0
4, 12780, Note_on_c, 0, 72, 0
4, 12780, Note_on_c, 0, 74, 89
4, 12780, Note_on_c, 0, 86, 89
4, 12780, Note_on_c, 0, 62, 88
4, 12870, Note_on_c, 0, 62, 0
4, 12870, Note_on_c, 0, 74, 0
4, 12870, Note_on_c, 0, 86, 0
4, 12870, Note_on_c, 0, 75, 89
4, 12870, Note_on_c, 0, 87, 89
4, 12870, Note_on_c, 0, 63, 86
4, 12960, Note_on_c, 0, 63, 0
4, 12960, Note_on_c, 0, 75, 0
4, 12960, Note_on_c, 0, 80, 0
4, 12960, Note_on_c, 0, 56, 0
4, 12960, Note_on_c, 0, 77, 0
4, 12960, Note_on_c, 0, 87, 0
4, 12960, Note_on_c, 0, 60, 0
4, 12960, Note_on_c, 0, 79, 84
4, 12960, Note_on_c, 0, 84, 84
4, 12960, Note_on_c, 0, 87, 84
4, 12960, Note_on_c, 0, 91, 84
4, 12960, Note_on_c, 0, 55, 90
4, 12960, Note_on_c, 0, 60, 90
4, 12960, Note_on_c, 0, 63, 90
4, 12960, Note_on_c, 0, 67, 90
4, 13860, Note_on_c, 0, 67, 0
4, 13860, Note_on_c, 0, 79, 0
4, 13860, Note_on_c, 0, 55, 0
4, 13860, Note_on_c, 0, 84, 0
4, 13860, Note_on_c, 0, 87, 0
4, 13860, Note_on_c, 0, 91, 0
4, 13860, Note_on_c, 0, 60, 0
4, 13860, Note_on_c, 0, 63, 0
4, 13860, Note_on_c, 0, 87, 67
4, 13860, Note_on_c, 0, 99, 67
4, 13860, Note_on_c, 0, 63, 86
4, 13860, Note_on_c, 0, 75, 86
4, 14040, Note_on_c, 0, 75, 0
4, 14040, Note_on_c, 0, 87, 0
4, 14040, Note_on_c, 0, 99, 0
4, 14040, Note_on_c, 0, 63, 0
4, 14040, Note_on_c, 0, 86, 69
4, 14040, Note_on_c, 0, 91, 69
4, 14040, Note_on_c, 0, 94, 69
4, 14040, Note_on_c, 0, 98, 69
4, 14040, Note_on_c, 0, 62, 72
4, 14040, Note_on_c, 0, 67, 72
4, 14040, Note_on_c, 0, 70, 72
4, 14040, Note_on_c, 0, 74, 72
4, 14220, Note_on_c, 0, 74, 0
4, 14220, Note_on_c, 0, 86, 0
4, 14220, Note_on_c, 0, 62, 0
4, 14220, Note_on_c, 0, 91, 0
4, 14220, Note_on_c, 0, 94, 0
4, 14220, Note_on_c, 0, 98, 0
4, 14220, Note_on_c, 0, 67, 0
4, 14220, Note_on_c, 0, 70, 0
4, 14220, Note_on_c, 0, 82, 62
4, 14220, Note_on_c, 0, 94, 62
4, 14220, Note_on_c, 0, 58, 67
4, 14220, Note_on_c, 0, 70, 67
4, 14400, Note_on_c, 0, 70, 0
4, 14400, Note_on_c, 0, 82, 0
4, 14400, Note_on_c, 0, 94, 0
4, 14400, Note_on_c, 0, 58, 0
4, 14400, Note_on_c, 0, 79, 67
4, 14400, Note_on_c, 0, 84, 67
4, 14400, Note_on_c, 0, 87, 67
4, 14400, Note_on_c, 0, 91, 67
4, 14400, Note_on_c, 0, 55, 67
4, 14400, Note_on_c, 0, 60, 67
4, 14400, Note_on_c, 0, 63, 67
4, 14400, Note_on_c, 0, 67, 67
4, 14580, Note_on_c, 0, 67, 0
4, 14580, Note_on_c, 0, 79, 0
4, 14580, Note_on_c, 0, 55, 0
4, 14580, Note_on_c, 0, 84, 0
4, 14580, Note_on_c, 0, 87, 0
4, 14580, Note_on_c, 0, 91, 0
4, 14580, Note_on_c, 0, 60, 0
4, 14580, Note_on_c, 0, 63, 0
4, 14580, Note_on_c, 0, 84, 81
4, 14580, Note_on_c, 0, 96, 81
4, 14580, Note_on_c, 0, 60, 83
4, 14580, Note_on_c, 0, 72, 83
4, 14760, Note_on_c, 0, 72, 0
4, 14760, Note_on_c, 0, 84, 0
4, 14760, Note_on_c, 0, 96, 0
4, 14760, Note_on_c, 0, 60, 0
4, 14760, Note_on_c, 0, 82, 70
4, 14760, Note_on_c, 0, 86, 70
4, 14760, Note_on_c, 0, 91, 70
4, 14760, Note_on_c, 0, 94, 70
4, 14760, Note_on_c, 0, 58, 70
4, 14760, Note_on_c, 0, 62, 70
4, 14760, Note_on_c, 0, 67, 70
4, 14760, Note_on_c, 0, 70, 70
4, 14940, Note_on_c, 0, 70, 0
4, 14940, Note_on_c, 0, 82, 0
4, 14940, Note_on_c, 0, 58, 0
4, 14940, Note_on_c, 0, 86, 0
4, 14940, Note_on_c, 0, 91, 0
4, 14940, Note_on_c, 0, 94, 0
4, 14940, Note_on_c, 0, 62, 0
4, 14940, Note_on_c, 0, 67, 0
4, 14940, Note_on_c, 0, 79, 67
4, 14940, Note_on_c, 0, 91, 67
4, 14940, Note_on_c, 0, 55, 69
4, 14940, Note_on_c, 0, 67, 69
4, 15120, Note_on_c, 0, 67, 0
4, 15120, Note_on_c, 0, 79, 0
4, 15120, Note_on_c, 0, 91, 0
4, 15120, Note_on_c, 0, 55, 0
4, 15120, Note_on_c, 0, 75, 90
4, 15120, Note_on_c, 0, 79, 90
4, 15120, Note_on_c, 0, 84, 90
4, 15120, Note_on_c, 0, 87, 90
4, 15120, Note_on_c, 0, 51, 65
4, 15120, Note_on_c, 0, 55, 65
4, 15120, Note_on_c, 0, 60, 65
4, 15120, Note_on_c, 0, 63, 65
4, 15300, Note_on_c, 0, 63, 0
4, 15300, Note_on_c, 0, 75, 0
4, 15300, Note_on_c, 0, 51, 0
4, 15300, Note_on_c, 0, 79, 0
4, 15300, Note_on_c, 0, 84, 0
4, 15300, Note_on_c, 0, 87, 0
4, 15300, Note_on_c, 0, 55, 0
4, 15300, Note_on_c, 0, 60, 0
4, 15300, Note_on_c, 0, 81, 91
4, 15300, Note_on_c, 0, 93, 91
4, 15300, Note_on_c, 0, 57, 87
4, 15300, Note_on_c, 0, 69, 87
4, 15480, Note_on_c, 0, 69, 0
4, 15480, Note_on_c, 0, 81, 0
4, 15480, Note_on_c, 0, 93, 0
4, 15480, Note_on_c, 0, 57, 0
4, 15480, Note_on_c, 0, 79, 77
4, 15480, Note_on_c, 0, 82, 77
4, 15480, Note_on_c, 0, 86, 77
4, 15480, Note_on_c, 0, 91, 77
4, 15480, Note_on_c, 0, 55, 69
4, 15480, Note_on_c, 0, 58, 69
4, 15480, Note_on_c, 0, 62, 69
4, 15480, Note_on_c, 0, 67, 69
4, 15660, Note_on_c, 0, 67, 0
4, 15660, Note_on_c, 0, 79, 0
4, 15660, Note_on_c, 0, 55, 0
4, 15660, Note_on_c, 0, 82, 0
4, 15660, Note_on_c, 0, 86, 0
4, 15660, Note_on_c, 0, 91, 0
4, 15660, Note_on_c, 0, 58, 0
4, 15660, Note_on_c, 0, 62, 0
4, 15660, Note_on_c, 0, 74, 62
4, 15660, Note_on_c, 0, 86, 62
4, 15660, Note_on_c, 0, 50, 66
4, 15660, Note_on_c, 0, 62, 66
4, 15840, Note_on_c, 0, 62, 0
4, 15840, Note_on_c, 0, 74, 0
4, 15840, Note_on_c, 0, 86, 0
4, 15840, Note_on_c, 0, 50, 0
4, 15840, Note_on_c, 0, 76, 78
4, 15840, Note_on_c, 0, 79, 78
4, 15840, Note_on_c, 0, 82, 78
4, 15840, Note_on_c, 0, 88, 78
4, 15840, Note_on_c, 0, 50, 70
4, 15840, Note_on_c, 0, 55, 70
4, 15840, Note_on_c, 0, 58, 70
4, 15840, Note_on_c, 0, 61, 70
4, 16200, Note_on_c, 0, 61, 0
4, 16200, Note_on_c, 0, 76, 0
4, 16200, Note_on_c, 0, 50, 0
4, 16200, Note_on_c, 0, 79, 0
4, 16200, Note_on_c, 0, 82, 0
4, 16200, Note_on_c, 0, 88, 0
4, 16200, Note_on_c, 0, 55, 0
4, 16200, Note_on_c, 0, 58, 0
4, 16200, Note_on_c, 0, 78, 85
4, 16200, Note_on_c, 0, 81, 85
4, 16200, Note_on_c, 0, 86, 85
4, 16200, Note_on_c, 0, 90, 85
4, 16200, Note_on_c, 0, 50, 79
4, 16200, Note_on_c, 0, 54, 79
4, 16200, Note_on_c, 0, 57, 79
4, 16200, Note_on_c, 0, 62, 79
4, 16380, Note_on_c, 0, 62, 0
4, 16380, Note_on_c, 0, 78, 0
4, 16380, Note_on_c, 0, 50, 0
4, 16380, Note_on_c, 0, 81, 0
4, 16380, Note_on_c, 0, 86, 0
4, 16380, Note_on_c, 0, 90, 0
4, 16380, Note_on_c, 0, 54, 0
4, 16380, Note_on_c, 0, 57, 0
4, 16560, Note_on_c, 0, 60, 71
4, 16560, Note_on_c, 0, 63, 71
4, 16650, Note_on_c, 0, 69, 76
4, 16740, Note_on_c, 0, 69, 0
4, 16740, Note_on_c, 0, 70, 78
4, 16830, Note_on_c, 0, 70, 0
4, 16830, Note_on_c, 0, 72, 79
4, 16920, Note_on_c, 0, 72, 0
4, 16920, Note_on_c, 0, 63, 0
4, 16920, Note_on_c, 0, 60, 0
4, 16920, Note_on_c, 0, 74, 81
4, 16920, Note_on_c, 0, 67, 57
4, 16920, Note_on_c, 0, 58, 81
4, 16920, Note_on_c, 0, 62, 81
4, 17010, Note_on_c, 0, 74, 0
4, 17010, Note_on_c, 0, 76, 83
4, 17100, Note_on_c, 0, 76, 0
4, 17100, Note_on_c, 0, 78, 85
4, 17190, Note_on_c, 0, 78, 0
4, 17190, Note_on_c, 0, 79, 87
4, 17280, Note_on_c, 0, 79, 0
4, 17280, Note_on_c, 0, 62, 0
4, 17280, Note_on_c, 0, 58, 0
4, 17280, Note_on_c, 0, 67, 0
4, 17280, Note_on_c, 0, 82, 98
4, 17280, Note_on_c, 0, 73, 105
4, 17280, Note_on_c, 0, 57, 97
4, 17280, Note_on_c, 0, 67, 97
4, 17550, Note_on_c, 0, 82, 0
4, 17550, Note_on_c, 0, 81, 85
4, 17640, Note_on_c, 0, 81, 0
4, 17640, Note_on_c, 0, 67, 0
4, 17640, Note_on_c, 0, 57, 0
4, 17640, Note_on_c, 0, 73, 0
4, 17640, Note_on_c, 0, 79, 79
4, 17640, Note_on_c, 0, 74, 101
4, 17640, Note_on_c, 0, 58, 89
4, 17640, Note_on_c, 0, 67, 89
4, 18000, Note_on_c, 0, 67, 0
4, 18000, Note_on_c, 0, 79, 0
4, 18000, Note_on_c, 0, 74, 0
4, 18000, Note_on_c, 0, 58, 0
4, 18000, Note_on_c, 0, 60, 78
4, 18000, Note_on_c, 0, 63, 78
4, 18090, Note_on_c, 0, 69, 75
4, 18180, Note_on_c, 0, 69, 0
4, 18180, Note_on_c, 0, 70, 84
4, 18270, Note_on_c, 0, 70, 0
4, 18270, Note_on_c, 0, 72, 89
4, 18360, Note_on_c, 0, 72, 0
4, 18360, Note_on_c, 0, 63, 0
4, 18360, Note_on_c, 0, 60, 0
4, 18360, Note_on_c, 0, 74, 90
4, 18360, Note_on_c, 0, 67, 79
4, 18360, Note_on_c, 0, 58, 77
4, 18360, Note_on_c, 0, 62, 77
4, 18450, Note_on_c, 0, 74, 0
4, 18450, Note_on_c, 0, 76, 82
4, 18540, Note_on_c, 0, 76, 0
4, 18540, Note_on_c, 0, 78, 89
4, 18630, Note_on_c, 0, 78, 0
4, 18630, Note_on_c, 0, 79, 87
4, 18720, Note_on_c, 0, 79, 0
4, 18720, Note_on_c, 0, 62, 0
4, 18720, Note_on_c, 0, 58, 0
4, 18720, Note_on_c, 0, 67, 0
4, 18720, Note_on_c, 0, 82, 94
4, 18720, Note_on_c, 0, 73, 110
4, 18720, Note_on_c, 0, 57, 93
4, 18720, Note_on_c, 0, 67, 93
4, 18990, Note_on_c, 0, 82, 0
4, 18990, Note_on_c, 0, 81, 80
4, 19080, Note_on_c, 0, 81, 0
4, 19080, Note_on_c, 0, 67, 0
4, 19080, Note_on_c, 0, 57, 0
4, 19080, Note_on_c, 0, 73, 0
4, 19080, Note_on_c, 0, 79, 79
4, 19080, Note_on_c, 0, 74, 107
4, 19080, Note_on_c, 0, 58, 84
4, 19080, Note_on_c, 0, 67, 84
4, 19440, Note_on_c, 0, 67, 0
4, 19440, Note_on_c, 0, 79, 0
4, 19440, Note_on_c, 0, 74, 0
4, 19440, Note_on_c, 0, 58, 0
4, 19440, Note_on_c, 0, 75, 99
4, 19440, Note_on_c, 0, 60, 82
4, 19440, Note_on_c, 0, 67, 82
4, 19530, Note_on_c, 0, 79, 74
4, 19620, Note_on_c, 0, 79, 0
4, 19620, Note_on_c, 0, 86, 94
4, 19710, Note_on_c, 0, 86, 0
4, 19710, Note_on_c, 0, 84, 81
4, 19800, Note_on_c, 0, 84, 0
4, 19800, Note_on_c, 0, 75, 0
4, 19800, Note_on_c, 0, 60, 0
4, 19800, Note_on_c, 0, 67, 0
4, 19800, Note_on_c, 0, 79, 75
4, 19800, Note_on_c, 0, 74, 93
4, 19800, Note_on_c, 0, 58, 108
4, 19800, Note_on_c, 0, 67, 108
4, 19890, Note_on_c, 0, 67, 78
4, 19980, Note_on_c, 0, 67, 0
4, 19980, Note_on_c, 0, 58, 0
4, 19980, Note_on_c, 0, 67, 0
4, 19980, Note_on_c, 0, 74, 0
4, 19980, Note_on_c, 0, 75, 100
4, 19980, Note_on_c, 0, 74, 100
4, 19980, Note_on_c, 0, 60, 79
4, 20070, Note_on_c, 0, 74, 0
4, 20070, Note_on_c, 0, 73, 79
4, 20160, Note_on_c, 0, 73, 0
4, 20160, Note_on_c, 0, 60, 0
4, 20160, Note_on_c, 0, 75, 0
4, 20160, Note_on_c, 0, 74, 96
4, 20160, Note_on_c, 0, 58, 83
4, 20160, Note_on_c, 0, 67, 83
4, 20250, Note_on_c, 0, 74, 0
4, 20250, Note_on_c, 0, 79, 0
4, 20250, Note_on_c, 0, 74, 84
4, 20250, Note_on_c, 0, 86, 84
4, 20340, Note_on_c, 0, 86, 0
4, 20340, Note_on_c, 0, 67, 0
4, 20340, Note_on_c, 0, 58, 0
4, 20340, Note_on_c, 0, 74, 0
4, 20340, Note_on_c, 0, 79, 84
4, 20340, Note_on_c, 0, 86, 84
4, 20340, Note_on_c, 0, 91, 84
4, 20340, Note_on_c, 0, 59, 84
4, 20340, Note_on_c, 0, 67, 84
4, 20430, Note_on_c, 0, 91, 0
4, 20430, Note_on_c, 0, 79, 0
4, 20430, Note_on_c, 0, 86, 0
4, 20430, Note_on_c, 0, 77, 85
4, 20430, Note_on_c, 0, 89, 85
4, 20520, Note_on_c, 0, 89, 0
4, 20520, Note_on_c, 0, 67, 0
4, 20520, Note_on_c, 0, 59, 0
4, 20520, Note_on_c, 0, 77, 0
4, 20520, Note_on_c, 0, 84, 85
4, 20520, Note_on_c, 0, 75, 98
4, 20520, Note_on_c, 0, 79, 98
4, 20520, Note_on_c, 0, 60, 98
4, 20520, Note_on_c, 0, 67, 98
4, 20520, Note_on_c, 0, 72, 98
4, 20610, Note_on_c, 0, 72, 85
4, 20700, Note_on_c, 0, 72, 0
4, 20700, Note_on_c, 0, 67, 0
4, 20700, Note_on_c, 0, 75, 0
4, 20700, Note_on_c, 0, 79, 0
4, 20700, Note_on_c, 0, 60, 0
4, 20700, Note_on_c, 0, 72, 0
4, 20700, Note_on_c, 0, 80, 98
4, 20700, Note_on_c, 0, 79, 86
4, 20700, Note_on_c, 0, 65, 98
4, 20700, Note_on_c, 0, 72, 98
4, 20790, Note_on_c, 0, 79, 0
4, 20790, Note_on_c, 0, 77, 86
4, 20880, Note_on_c, 0, 77, 0
4, 20880, Note_on_c, 0, 72, 0
4, 20880, Note_on_c, 0, 84, 0
4, 20880, Note_on_c, 0, 80, 0
4, 20880, Note_on_c, 0, 65, 0
4, 20880, Note_on_c, 0, 84, 86
4, 20880, Note_on_c, 0, 79, 99
4, 20880, Note_on_c, 0, 63, 86
4, 20880, Note_on_c, 0, 72, 86
4, 20970, Note_on_c, 0, 79, 0
4, 20970, Note_on_c, 0, 84, 0
4, 20970, Note_on_c, 0, 75, 87
4, 20970, Note_on_c, 0, 87, 87
4, 21060, Note_on_c, 0, 87, 0
4, 21060, Note_on_c, 0, 72, 0
4, 21060, Note_on_c, 0, 63, 0
4, 21060, Note_on_c, 0, 75, 0
4, 21060, Note_on_c, 0, 81, 87
4, 21060, Note_on_c, 0, 82, 87
4, 21060, Note_on_c, 0, 87, 87
4, 21060, Note_on_c, 0, 93, 87
4, 21060, Note_on_c, 0, 61, 87
4, 21060, Note_on_c, 0, 67, 87
4, 21060, Note_on_c, 0, 70, 87
4, 21060, Note_on_c, 0, 75, 87
4, 21150, Note_on_c, 0, 93, 0
4, 21150, Note_on_c, 0, 87, 0
4, 21150, Note_on_c, 0, 81, 0
4, 21150, Note_on_c, 0, 82, 0
4, 21150, Note_on_c, 0, 79, 88
4, 21150, Note_on_c, 0, 91, 88
4, 21240, Note_on_c, 0, 91, 0
4, 21240, Note_on_c, 0, 67, 0
4, 21240, Note_on_c, 0, 70, 0
4, 21240, Note_on_c, 0, 75, 0
4, 21240, Note_on_c, 0, 79, 0
4, 21240, Note_on_c, 0, 61, 0
4, 21240, Note_on_c, 0, 86, 88
4, 21240, Note_on_c, 0, 82, 101
4, 21240, Note_on_c, 0, 62, 101
4, 21240, Note_on_c, 0, 67, 101
4, 21240, Note_on_c, 0, 70, 101
4, 21240, Note_on_c, 0, 74, 101
4, 21330, Note_on_c, 0, 74, 88
4, 21420, Note_on_c, 0, 74, 0
4, 21420, Note_on_c, 0, 70, 0
4, 21420, Note_on_c, 0, 86, 0
4, 21420, Note_on_c, 0, 62, 0
4, 21420, Note_on_c, 0, 67, 0
4, 21420, Note_on_c, 0, 74, 0
4, 21420, Note_on_c, 0, 85, 89
4, 21420, Note_on_c, 0, 81, 89
4, 21420, Note_on_c, 0, 63, 102
4, 21420, Note_on_c, 0, 67, 102
4, 21420, Note_on_c, 0, 70, 102
4, 21510, Note_on_c, 0, 81, 0
4, 21510, Note_on_c, 0, 79, 89
4, 21600, Note_on_c, 0, 79, 0
4, 21600, Note_on_c, 0, 70, 0
4, 21600, Note_on_c, 0, 63, 0
4, 21600, Note_on_c, 0, 82, 0
4, 21600, Note_on_c, 0, 85, 0
4, 21600, Note_on_c, 0, 67, 0
4, 21600, Note_on_c, 0, 79, 90
4, 21600, Note_on_c, 0, 82, 90
4, 21600, Note_on_c, 0, 86, 90
4, 21600, Note_on_c, 0, 62, 90
4, 21600, Note_on_c, 0, 67, 90
4, 21600, Note_on_c, 0, 70, 90
4, 21600, Note_on_c, 0, 74, 90
4, 21690, Note_on_c, 0, 86, 0
4, 21690, Note_on_c, 0, 79, 0
4, 21690, Note_on_c, 0, 82, 0
4, 21690, Note_on_c, 0, 76, 90
4, 21690, Note_on_c, 0, 88, 90
4, 21780, Note_on_c, 0, 88, 0
4, 21780, Note_on_c, 0, 76, 0
4, 21780, Note_on_c, 0, 78, 90
4, 21780, Note_on_c, 0, 90, 90
4, 21870, Note_on_c, 0, 90, 0
4, 21870, Note_on_c, 0, 78, 0
4, 21870, Note_on_c, 0, 79, 91
4, 21870, Note_on_c, 0, 91, 91
4, 21960, Note_on_c, 0, 91, 0
4, 21960, Note_on_c, 0, 70, 0
4, 21960, Note_on_c, 0, 74, 0
4, 21960, Note_on_c, 0, 62, 0
4, 21960, Note_on_c, 0, 79, 0
4, 21960, Note_on_c, 0, 67, 0
4, 21960, Note_on_c, 0, 82, 91
4, 21960, Note_on_c, 0, 94, 91
4, 21960, Note_on_c, 0, 86, 104
4, 21960, Note_on_c, 0, 74, 91
4, 21960, Note_on_c, 0, 57, 104
4, 21960, Note_on_c, 0, 64, 104
4, 21960, Note_on_c, 0, 67, 104
4, 22140, Note_on_c, 0, 74, 0
4, 22140, Note_on_c, 0, 86, 0
4, 22140, Note_on_c, 0, 84, 105
4, 22140, Note_on_c, 0, 84, 105
4, 22140, Note_on_c, 0, 73, 92
4, 22230, Note_on_c, 0, 82, 0
4, 22230, Note_on_c, 0, 94, 0
4, 22230, Note_on_c, 0, 81, 92
4, 22230, Note_on_c, 0, 93, 92
4, 22320, Note_on_c, 0, 93, 0
4, 22320, Note_on_c, 0, 64, 0
4, 22320, Note_on_c, 0, 67, 0
4, 22320, Note_on_c, 0, 84, 0
4, 22320, Note_on_c, 0, 57, 0
4, 22320, Note_on_c, 0, 73, 0
4, 22320, Note_on_c, 0, 84, 0
4, 22320, Note_on_c, 0, 81, 0
4, 22320, Note_on_c, 0, 79, 93
4, 22320, Note_on_c, 0, 82, 93
4, 22320, Note_on_c, 0, 87, 93
4, 22320, Note_on_c, 0, 75, 93
4, 22320, Note_on_c, 0, 63, 106
4, 22320, Note_on_c, 0, 67, 106
4, 22320, Note_on_c, 0, 70, 106
4, 22410, Note_on_c, 0, 87, 0
4, 22410, Note_on_c, 0, 79, 0
4, 22410, Note_on_c, 0, 82, 0
4, 22410, Note_on_c, 0, 75, 93
4, 22410, Note_on_c, 0, 87, 93
4, 22500, Note_on_c, 0, 87, 0
4, 22500, Note_on_c, 0, 75, 0
4, 22500, Note_on_c, 0, 75, 0
4, 22500, Note_on_c, 0, 78, 94
4, 22500, Note_on_c, 0, 90, 94
4, 22500, Note_on_c, 0, 74, 94
4, 22590, Note_on_c, 0, 90, 0
4, 22590, Note_on_c, 0, 78, 0
4, 22590, Note_on_c, 0, 79, 94
4, 22590, Note_on_c, 0, 91, 94
4, 22680, Note_on_c, 0, 91, 0
4, 22680, Note_on_c, 0, 74, 0
4, 22680, Note_on_c, 0, 63, 0
4, 22680, Note_on_c, 0, 67, 0
4, 22680, Note_on_c, 0, 79, 0
4, 22680, Note_on_c, 0, 70, 0
4, 22680, Note_on_c, 0, 82, 94
4, 22680, Note_on_c, 0, 94, 94
4, 22680, Note_on_c, 0, 86, 107
4, 22680, Note_on_c, 0, 74, 94
4, 22680, Note_on_c, 0, 57, 107
4, 22680, Note_on_c, 0, 64, 107
4, 22680, Note_on_c, 0, 67, 107
4, 22860, Note_on_c, 0, 74, 0
4, 22860, Note_on_c, 0, 86, 0
4, 22860, Note_on_c, 0, 85, 108
4, 22860, Note_on_c, 0, 73, 95
4, 22950, Note_on_c, 0, 82, 0
4, 22950, Note_on_c, 0, 94, 0
4, 22950, Note_on_c, 0, 81, 96
4, 22950, Note_on_c, 0, 93, 96
4, 23040, Note_on_c, 0, 93, 0
4, 23040, Note_on_c, 0, 85, 0
4, 23040, Note_on_c, 0, 73, 0
4, 23040, Note_on_c, 0, 57, 0
4, 23040, Note_on_c, 0, 67, 0
4, 23040, Note_on_c, 0, 81, 0
4, 23040, Note_on_c, 0, 64, 0
4, 23040, Note_on_c, 0, 79, 96
4, 23040, Note_on_c, 0, 82, 96
4, 23040, Note_on_c, 0, 87, 96
4, 23040, Note_on_c, 0, 75, 96
4, 23040, Note_on_c, 0, 63, 109
4, 23040, Note_on_c, 0, 67, 109
4, 23040, Note_on_c, 0, 70, 109
4, 23130, Note_on_c, 0, 75, 0
4, 23130, Note_on_c, 0, 87, 0
4, 23130, Note_on_c, 0, 79, 0
4, 23130, Note_on_c, 0, 82, 0
4, 23130, Note_on_c, 0, 79, 105
4, 23130, Note_on_c, 0, 91, 105
4, 23130, Note_on_c, 0, 74, 89
4, 23220, Note_on_c, 0, 74, 0
4, 23220, Note_on_c, 0, 63, 0
4, 23220, Note_on_c, 0, 70, 0
4, 23220, Note_on_c, 0, 67, 0
4, 23220, Note_on_c, 0, 91, 0
4, 23220, Note_on_c, 0, 79, 0
4, 23220, Note_on_c, 0, 82, 105
4, 23220, Note_on_c, 0, 86, 105
4, 23220, Note_on_c, 0, 94, 105
4, 23220, Note_on_c, 0, 74, 96
4, 23220, Note_on_c, 0, 57, 103
4, 23220, Note_on_c, 0, 64, 103
4, 23220, Note_on_c, 0, 67, 103
4, 23310, Note_on_c, 0, 74, 0
4, 23310, Note_on_c, 0, 94, 0
4, 23310, Note_on_c, 0, 82, 0
4, 23310, Note_on_c, 0, 86, 0
4, 23310, Note_on_c, 0, 81, 96
4, 23310, Note_on_c, 0, 85, 96
4, 23310, Note_on_c, 0, 93, 96
4, 23310, Note_on_c, 0, 73, 87
4, 23400, Note_on_c, 0, 73, 0
4, 23400, Note_on_c, 0, 85, 0
4, 23400, Note_on_c, 0, 57, 0
4, 23400, Note_on_c, 0, 67, 0
4, 23400, Note_on_c, 0, 64, 0
4, 23400, Note_on_c, 0, 93, 0
4, 23400, Note_on_c, 0, 81, 0
4, 23400, Note_on_c, 0, 79, 81
4, 23400, Note_on_c, 0, 82, 81
4, 23400, Note_on_c, 0, 87, 81
4, 23400, Note_on_c, 0, 75, 100
4, 23400, Note_on_c, 0, 63, 122
4, 23400, Note_on_c, 0, 67, 122
4, 23400, Note_on_c, 0, 70, 122
4, 23490, Note_on_c, 0, 75, 0
4, 23490, Note_on_c, 0, 87, 0
4, 23490, Note_on_c, 0, 79, 0
4, 23490, Note_on_c, 0, 82, 0
4, 23490, Note_on_c, 0, 79, 105
4, 23490, Note_on_c, 0, 91, 105
4, 23490, Note_on_c, 0, 74, 96
4, 23580, Note_on_c, 0, 74, 0
4, 23580, Note_on_c, 0, 63, 0
4, 23580, Note_on_c, 0, 70, 0
4, 23580, Note_on_c, 0, 67, 0
4, 23580, Note_on_c, 0, 91, 0
4, 23580, Note_on_c, 0, 79, 0
4, 23580, Note_on_c, 0, 82, 106
4, 23580, Note_on_c, 0, 86, 106
4, 23580, Note_on_c, 0, 94, 106
4, 23580, Note_on_c, 0, 74, 96
4, 23580, Note_on_c, 0, 57, 105
4, 23580, Note_on_c, 0, 64, 105
4, 23580, Note_on_c, 0, 67, 105
4, 23670, Note_on_c, 0, 74, 0
4, 23670, Note_on_c, 0, 94, 0
4, 23670, Note_on_c, 0, 82, 0
4, 23670, Note_on_c, 0, 86, 0
4, 23670, Note_on_c, 0, 81, 92
4, 23670, Note_on_c, 0, 85, 92
4, 23670, Note_on_c, 0, 93, 92
4, 23670, Note_on_c, 0, 73, 91
4, 23760, Note_on_c, 0, 73, 0
4, 23760, Note_on_c, 0, 85, 0
4, 23760, Note_on_c, 0, 57, 0
4, 23760, Note_on_c, 0, 67, 0
4, 23760, Note_on_c, 0, 64, 0
4, 23760, Note_on_c, 0, 93, 0
4, 23760, Note_on_c, 0, 81, 0
4, 23760, Note_on_c, 0, 77, 80
4, 23760, Note_on_c, 0, 80, 80
4, 23760, Note_on_c, 0, 86, 80
4, 23760, Note_on_c, 0, 74, 102
4, 23760, Note_on_c, 0, 62, 116
4, 23760, Note_on_c, 0, 65, 116
4, 23760, Note_on_c, 0, 68, 116
4, 23850, Note_on_c, 0, 74, 0
4, 23850, Note_on_c, 0, 86, 0
4, 23850, Note_on_c, 0, 77, 0
4, 23850, Note_on_c, 0, 80, 0
4, 23850, Note_on_c, 0, 77, 102
4, 23850, Note_on_c, 0, 89, 102
4, 23850, Note_on_c, 0, 72, 88
4, 23940, Note_on_c, 0, 72, 0
4, 23940, Note_on_c, 0, 62, 0
4, 23940, Note_on_c, 0, 68, 0
4, 23940, Note_on_c, 0, 65, 0
4, 23940, Note_on_c, 0, 89, 0
4, 23940, Note_on_c, 0, 77, 0
4, 23940, Note_on_c, 0, 80, 103
4, 23940, Note_on_c, 0, 84, 103
4, 23940, Note_on_c, 0, 92, 103
4, 23940, Note_on_c, 0, 72, 91
4, 23940, Note_on_c, 0, 55, 99
4, 23940, Note_on_c, 0, 62, 99
4, 23940, Note_on_c, 0, 65, 99
4, 24030, Note_on_c, 0, 72, 0
4, 24030, Note_on_c, 0, 92, 0
4, 24030, Note_on_c, 0, 80, 0
4, 24030, Note_on_c, 0, 84, 0
4, 24030, Note_on_c, 0, 79, 97
4, 24030, Note_on_c, 0, 83, 97
4, 24030, Note_on_c, 0, 91, 97
4, 24030, Note_on_c, 0, 71, 91
4, 24120, Note_on_c, 0, 71, 0
4, 24120, Note_on_c, 0, 83, 0
4, 24120, Note_on_c, 0, 55, 0
4, 24120, Note_on_c, 0, 65, 0
4, 24120, Note_on_c, 0, 62, 0
4, 24120, Note_on_c, 0, 91, 0
4, 24120, Note_on_c, 0, 79, 0
4, 24120, Note_on_c, 0, 77, 83
4, 24120, Note_on_c, 0, 80, 83
4, 24120, Note_on_c, 0, 86, 83
4, 24120, Note_on_c, 0, 74, 101
4, 24120, Note_on_c, 0, 62, 117
4, 24120, Note_on_c, 0, 65, 117
4, 24120, Note_on_c, 0, 68, 117
4, 24210, Note_on_c, 0, 74, 0
4, 24210, Note_on_c, 0, 86, 0
4, 24210, Note_on_c, 0, 77, 0
4, 24210, Note_on_c, 0, 80, 0
4, 24210, Note_on_c, 0, 77, 101
4, 24210, Note_on_c, 0, 89, 101
4, 24210, Note_on_c, 0, 72, 89
4, 24300, Note_on_c, 0, 72, 0
4, 24300, Note_on_c, 0, 62, 0
4, 24300, Note_on_c, 0, 68, 0
4, 24300, Note_on_c, 0, 65, 0
4, 24300, Note_on_c, 0, 89, 0
4, 24300, Note_on_c, 0, 77, 0
4, 24300, Note_on_c, 0, 80, 107
4, 24300, Note_on_c, 0, 84, 107
4, 24300, Note_on_c, 0, 92, 107
4, 24300, Note_on_c, 0, 72, 99
4, 24300, Note_on_c, 0, 55, 101
4, 24300, Note_on_c, 0, 62, 101
4, 24300, Note_on_c, 0, 65, 101
4, 24390, Note_on_c, 0, 72, 0
4, 24390, Note_on_c, 0, 92, 0
4, 24390, Note_on_c, 0, 80, 0
4, 24390, Note_on_c, 0, 84, 0
4, 24390, Note_on_c, 0, 79, 95
4, 24390, Note_on_c, 0, 83, 95
4, 24390, Note_on_c, 0, 91, 95
4, 24390, Note_on_c, 0, 71, 89
4, 24480, Note_on_c, 0, 71, 0
4, 24480, Note_on_c, 0, 83, 0
4, 24480, Note_on_c, 0, 55, 0
4, 24480, Note_on_c, 0, 65, 0
4, 24480, Note_on_c, 0, 62, 0
4, 24480, Note_on_c, 0, 91, 0
4, 24480, Note_on_c, 0, 79, 0
4, 24480, Note_on_c, 0, 79, 96
4, 24480, Note_on_c, 0, 84, 96
4, 24480, Note_on_c, 0, 87, 96
4, 24480, Note_on_c, 0, 91, 96
4, 24480, Note_on_c, 0, 48, 96
4, 24480, Note_on_c, 0, 55, 96
4, 24480, Note_on_c, 0, 63, 96
4, 24660, Note_on_c, 0, 91, 0
4, 24660, Note_on_c, 0, 87, 0
4, 24660, Note_on_c, 0, 79, 0
4, 24660, Note_on_c, 0, 84, 0
4, 24660, Note_on_c, 0, 75, 94
4, 24660, Note_on_c, 0, 87, 94
4, 24750, Note_on_c, 0, 87, 0
4, 24750, Note_on_c, 0, 75, 0
4, 24750, Note_on_c, 0, 74, 94
4, 24750, Note_on_c, 0, 86, 94
4, 24840, Note_on_c, 0, 86, 0
4, 24840, Note_on_c, 0, 74, 0
4, 24840, Note_on_c, 0, 72, 93
4, 24840, Note_on_c, 0, 84, 93
4, 24930, Note_on_c, 0, 84, 0
4, 24930, Note_on_c, 0, 72, 0
4, 24930, Note_on_c, 0, 70, 92
4, 24930, Note_on_c, 0, 82, 92
4, 25020, Note_on_c, 0, 82, 0
4, 25020, Note_on_c, 0, 70, 0
4, 25020, Note_on_c, 0, 69, 91
4, 25020, Note_on_c, 0, 81, 91
4, 25110, Note_on_c, 0, 81, 0
4, 25110, Note_on_c, 0, 69, 0
4, 25110, Note_on_c, 0, 67, 90
4, 25110, Note_on_c, 0, 79, 90
4, 25200, Note_on_c, 0, 79, 0
4, 25200, Note_on_c, 0, 55, 0
4, 25200, Note_on_c, 0, 63, 0
4, 25200, Note_on_c, 0, 48, 0
4, 25200, Note_on_c, 0, 67, 0
4, 25200, Note_on_c, 0, 70, 90
4, 25200, Note_on_c, 0, 75, 90
4, 25200, Note_on_c, 0, 79, 90
4, 25200, Note_on_c, 0, 82, 90
4, 25200, Note_on_c, 0, 49, 90
4, 25200, Note_on_c, 0, 55, 90
4, 25200, Note_on_c, 0, 58, 90
4, 25200, Note_on_c, 0, 63, 90
4, 25380, Note_on_c, 0, 82, 0
4, 25380, Note_on_c, 0, 79, 0
4, 25380, Note_on_c, 0, 70, 0
4, 25380, Note_on_c, 0, 75, 0
4, 25380, Note_on_c, 0, 69, 88
4, 25380, Note_on_c, 0, 81, 88
4, 25470, Note_on_c, 0, 81, 0
4, 25470, Note_on_c, 0, 69, 0
4, 25470, Note_on_c, 0, 67, 87
4, 25470, Note_on_c, 0, 79, 87
4, 25560, Note_on_c, 0, 79, 0
4, 25560, Note_on_c, 0, 67, 0
4, 25560, Note_on_c, 0, 65, 87
4, 25560, Note_on_c, 0, 77, 87
4, 25650, Note_on_c, 0, 77, 0
4, 25650, Note_on_c, 0, 65, 0
4, 25650, Note_on_c, 0, 63, 86
4, 25650, Note_on_c, 0, 75, 86
4, 25740, Note_on_c, 0, 75, 0
4, 25740, Note_on_c, 0, 63, 0
4, 25740, Note_on_c, 0, 74, 85
4, 25830, Note_on_c, 0, 74, 0
4, 25830, Note_on_c, 0, 73, 84
4, 25920, Note_on_c, 0, 73, 0
4, 25920, Note_on_c, 0, 49, 0
4, 25920, Note_on_c, 0, 58, 0
4, 25920, Note_on_c, 0, 55, 0
4, 25920, Note_on_c, 0, 63, 0
4, 25920, Note_on_c, 0, 79, 83
4, 25920, Note_on_c, 0, 67, 96
4, 25920, Note_on_c, 0, 70, 96
4, 25920, Note_on_c, 0, 73, 96
4, 25920, Note_on_c, 0, 50, 83
4, 25920, Note_on_c, 0, 58, 83
4, 25920, Note_on_c, 0, 61, 83
4, 25920, Note_on_c, 0, 64, 83
4, 26280, Note_on_c, 0, 79, 0
4, 26280, Note_on_c, 0, 73, 71
4, 26550, Note_on_c, 0, 73, 0
4, 26550, Note_on_c, 0, 73, 78
4, 26640, Note_on_c, 0, 73, 0
4, 26640, Note_on_c, 0, 67, 0
4, 26640, Note_on_c, 0, 58, 0
4, 26640, Note_on_c, 0, 70, 0
4, 26640, Note_on_c, 0, 50, 0
4, 26640, Note_on_c, 0, 73, 0
4, 26640, Note_on_c, 0, 61, 0
4, 26640, Note_on_c, 0, 64, 0
4, 26640, Note_on_c, 0, 75, 87
4, 26640, Note_on_c, 0, 66, 74
4, 26640, Note_on_c, 0, 50, 69
4, 26640, Note_on_c, 0, 57, 69
4, 26640, Note_on_c, 0, 60, 69
4, 27000, Note_on_c, 0, 60, 0
4, 27000, Note_on_c, 0, 50, 0
4, 27000, Note_on_c, 0, 75, 0
4, 27000, Note_on_c, 0, 66, 0
4, 27000, Note_on_c, 0, 57, 0
4, 27000, Note_on_c, 0, 66, 66
4, 27000, Note_on_c, 0, 60, 81
4, 27000, Note_on_c, 0, 50, 78
4, 27000, Note_on_c, 0, 57, 78
4, 27360, Note_on_c, 0, 57, 0
4, 27360, Note_on_c, 0, 66, 0
4, 27360, Note_on_c, 0, 60, 0
4, 27360, Note_on_c, 0, 50, 0
4, 27360, Note_on_c, 0, 67, 96
4, 27360, Note_on_c, 0, 31, 81
4, 27360, Note_on_c, 0, 43, 81
4, 27419, Note_on_c, 0, 67, 0
4, 27419, Note_on_c, 0, 58, 77
4, 27480, Note_on_c, 0, 58, 0
4, 27480, Note_on_c, 0, 55, 80
4, 27540, Note_on_c, 0, 55, 0
4, 27540, Note_on_c, 0, 50, 78
4, 27599, Note_on_c, 0, 50, 0
4, 27599, Note_on_c, 0, 58, 91
4, 27660, Note_on_c, 0, 58, 0
4, 27660, Note_on_c, 0, 55, 79
4, 27720, Note_on_c, 0, 55, 0
4, 27720, Note_on_c, 0, 62, 96
4, 27779, Note_on_c, 0, 62, 0
4, 27779, Note_on_c, 0, 58, 82
4, 27840, Note_on_c, 0, 58, 0
4, 27840, Note_on_c, 0, 55, 79
4, 27900, Note_on_c, 0, 55, 0
4, 27900, Note_on_c, 0, 50, 72
4, 27959, Note_on_c, 0, 50, 0
4, 27959, Note_on_c, 0, 58, 88
4, 28020, Note_on_c, 0, 58, 0
4, 28020, Note_on_c, 0, 55, 85
4, 28080, Note_on_c, 0, 55, 0
4, 28080, Note_on_c, 0, 62, 99
4, 28139, Note_on_c, 0, 62, 0
4, 28139, Note_on_c, 0, 58, 84
4, 28200, Note_on_c, 0, 58, 0
4, 28200, Note_on_c, 0, 55, 80
4, 28260, Note_on_c, 0, 55, 0
4, 28260, Note_on_c, 0, 50, 82
4, 28319, Note_on_c, 0, 50, 0
4, 28319, Note_on_c, 0, 58, 93
4, 28380, Note_on_c, 0, 58, 0
4, 28380, Note_on_c, 0, 55, 82
4, 28440, Note_on_c, 0, 55, 0
4, 28440, Note_on_c, 0, 43, 0
4, 28440, Note_on_c, 0, 31, 0
4, 28440, Note_on_c, 0, 63, 98
4, 28440, Note_on_c, 0, 31, 98
4, 28440, Note_on_c, 0, 43, 98
4, 28499, Note_on_c, 0, 63, 0
4, 28499, Note_on_c, 0, 60, 87
4, 28560, Note_on_c, 0, 60, 0
4, 28560, Note_on_c, 0, 54, 72
4, 28620, Note_on_c, 0, 54, 0
4, 28620, Note_on_c, 0, 51, 75
4, 28679, Note_on_c, 0, 51, 0
4, 28679, Note_on_c, 0, 60, 98
4, 28740, Note_on_c, 0, 60, 0
4, 28740, Note_on_c, 0, 54, 79
4, 28800, Note_on_c, 0, 54, 0
4, 28800, Note_on_c, 0, 43, 0
4, 28800, Note_on_c, 0, 31, 0
4, 28800, Note_on_c, 0, 62, 101
4, 28800, Note_on_c, 0, 31, 97
4, 28800, Note_on_c, 0, 43, 97
4, 28859, Note_on_c, 0, 62, 0
4, 28859, Note_on_c, 0, 58, 84
4, 28920, Note_on_c, 0, 58, 0
4, 28920, Note_on_c, 0, 55, 78
4, 28980, Note_on_c, 0, 55, 0
4, 28980, Note_on_c, 0, 50, 77
4, 29039, Note_on_c, 0, 50, 0
4, 29039, Note_on_c, 0, 58, 89
4, 29100, Note_on_c, 0, 58, 0
4, 29100, Note_on_c, 0, 55, 79
4, 29160, Note_on_c, 0, 55, 0
4, 29160, Note_on_c, 0, 62, 99
4, 29219, Note_on_c, 0, 62, 0
4, 29219, Note_on_c, 0, 58, 87
4, 29280, Note_on_c, 0, 58, 0
4, 29280, Note_on_c, 0, 55, 83
4, 29340, Note_on_c, 0, 55, 0
4, 29340, Note_on_c, 0, 50, 77
4, 29399, Note_on_c, 0, 50, 0
4, 29399, Note_on_c, 0, 58, 97
4, 29460, Note_on_c, 0, 58, 0
4, 29460, Note_on_c, 0, 55, 80
4, 29520, Note_on_c, 0, 55, 0
4, 29520, Note_on_c, 0, 62, 99
4, 29579, Note_on_c, 0, 62, 0
4, 29579, Note_on_c, 0, 58, 78
4, 29640, Note_on_c, 0, 58, 0
4, 29640, Note_on_c, 0, 55, 82
4, 29700, Note_on_c, 0, 55, 0
4, 29700, Note_on_c, 0, 50, 76
4, 29759, Note_on_c, 0, 50, 0
4, 29759, Note_on_c, 0, 58, 93
4, 29820, Note_on_c, 0, 58, 0
4, 29820, Note_on_c, 0, 55, 79
4, 29880, Note_on_c, 0, 55, 0
4, 29880, Note_on_c, 0, 43, 0
4, 29880, Note_on_c, 0, 31, 0
4, 29880, Note_on_c, 0, 63, 99
4, 29880, Note_on_c, 0, 31, 89
4, 29880, Note_on_c, 0, 43, 89
4, 29939, Note_on_c, 0, 63, 0
4, 29939, Note_on_c, 0, 60, 77
4, 30000, Note_on_c, 0, 60, 0
4, 30000, Note_on_c, 0, 54, 78
4, 30060, Note_on_c, 0, 54, 0
4, 30060, Note_on_c, 0, 51, 77
4, 30119, Note_on_c, 0, 51, 0
4, 30119, Note_on_c, 0, 60, 101
4, 30180, Note_on_c, 0, 60, 0
4, 30180, Note_on_c, 0, 54, 86
4, 30240, Note_on_c, 0, 54, 0
4, 30240, Note_on_c, 0, 43, 0
4, 30240, Note_on_c, 0, 31, 0
4, 30240, Note_on_c, 0, 62, 101
4, 30240, Note_on_c, 0, 31, 97
4, 30240, Note_on_c, 0, 43, 97
4, 30299, Note_on_c, 0, 62, 0
4, 30299, Note_on_c, 0, 58, 78
4, 30360, Note_on_c, 0, 58, 0
4, 30360, Note_on_c, 0, 55, 79
4, 30420, Note_on_c, 0, 55, 0
4, 30420, Note_on_c, 0, 50, 78
4, 30479, Note_on_c, 0, 50, 0
4, 30479, Note_on_c, 0, 58, 89
4, 30540, Note_on_c, 0, 58, 0
4, 30540, Note_on_c, 0, 55, 79
4, 30600, Note_on_c, 0, 55, 0
4, 30600, Note_on_c, 0, 62, 98
4, 30659, Note_on_c, 0, 62, 0
4, 30659, Note_on_c, 0, 58, 82
4, 30720, Note_on_c, 0, 58, 0
4, 30720, Note_on_c, 0, 55, 78
4, 30780, Note_on_c, 0, 55, 0
4, 30780, Note_on_c, 0, 50, 79
4, 30839, Note_on_c, 0, 50, 0
4, 30839, Note_on_c, 0, 58, 94
4, 30900, Note_on_c, 0, 58, 0
4, 30900, Note_on_c, 0, 55, 83
4, 30960, Note_on_c, 0, 55, 0
4, 30960, Note_on_c, 0, 43, 0
4, 30960, Note_on_c, 0, 31, 0
4, 30960, Note_on_c, 0, 70, 76
4, 30960, Note_on_c, 0, 31, 96
4, 30960, Note_on_c, 0, 43, 96
4, 31019, Note_on_c, 0, 67, 86
4, 31080, Note_on_c, 0, 67, 0
4, 31080, Note_on_c, 0, 62, 83
4, 31140, Note_on_c, 0, 62, 0
4, 31140, Note_on_c, 0, 58, 87
4, 31199, Note_on_c, 0, 58, 0
4, 31199, Note_on_c, 0, 67, 115
4, 31260, Note_on_c, 0, 67, 0
4, 31260, Note_on_c, 0, 62, 87
4, 31320, Note_on_c, 0, 62, 0
4, 31320, Note_on_c, 0, 70, 0
4, 31320, Note_on_c, 0, 31, 0
4, 31320, Note_on_c, 0, 43, 0
4, 31320, Note_on_c, 0, 68, 76
4, 31320, Note_on_c, 0, 34, 101
4, 31320, Note_on_c, 0, 46, 101
4, 31379, Note_on_c, 0, 65, 83
4, 31440, Note_on_c, 0, 65, 0
4, 31440, Note_on_c, 0, 62, 89
4, 31500, Note_on_c, 0, 62, 0
4, 31500, Note_on_c, 0, 56, 84
4, 31559, Note_on_c, 0, 56, 0
4, 31559, Note_on_c, 0, 65, 118
4, 31620, Note_on_c, 0, 65, 0
4, 31620, Note_on_c, 0, 62, 87
4, 31680, Note_on_c, 0, 62, 0
4, 31680, Note_on_c, 0, 68, 0
4, 31680, Note_on_c, 0, 34, 0
4, 31680, Note_on_c, 0, 46, 0
4, 31680, Note_on_c, 0, 67, 77
4, 31680, Note_on_c, 0, 39, 97
4, 31680, Note_on_c, 0, 46, 97
4, 31739, Note_on_c, 0, 63, 100
4, 31800, Note_on_c, 0, 63, 0
4, 31800, Note_on_c, 0, 58, 91
4, 31860, Note_on_c, 0, 58, 0
4, 31860, Note_on_c, 0, 55, 91
4, 31919, Note_on_c, 0, 55, 0
4, 31919, Note_on_c, 0, 63, 119
4, 31980, Note_on_c, 0, 63, 0
4, 31980, Note_on_c, 0, 58, 91
4, 32040, Note_on_c, 0, 58, 0
4, 32040, Note_on_c, 0, 67, 0
4, 32040, Note_on_c, 0, 39, 0
4, 32040, Note_on_c, 0, 46, 0
4, 32040, Note_on_c, 0, 65, 78
4, 32040, Note_on_c, 0, 34, 97
4, 32040, Note_on_c, 0, 46, 97
4, 32099, Note_on_c, 0, 62, 106
4, 32160, Note_on_c, 0, 62, 0
4, 32160, Note_on_c, 0, 58, 90
4, 32220, Note_on_c, 0, 58, 0
4, 32220, Note_on_c, 0, 53, 93
4, 32279, Note_on_c, 0, 53, 0
4, 32279, Note_on_c, 0, 62, 119
4, 32340, Note_on_c, 0, 62, 0
4, 32340, Note_on_c, 0, 58, 94
4, 32400, Note_on_c, 0, 58, 0
4, 32400, Note_on_c, 0, 65, 0
4, 32400, Note_on_c, 0, 34, 0
4, 32400, Note_on_c, 0, 46, 0
4, 32400, Note_on_c, 0, 63, 75
4, 32400, Note_on_c, 0, 36, 88
4, 32400, Note_on_c, 0, 43, 88
4, 32459, Note_on_c, 0, 60, 104
4, 32520, Note_on_c, 0, 60, 0
4, 32520, Note_on_c, 0, 55, 91
4, 32580, Note_on_c, 0, 55, 0
4, 32580, Note_on_c, 0, 51, 88
4, 32639, Note_on_c, 0, 51, 0
4, 32639, Note_on_c, 0, 60, 112
4, 32700, Note_on_c, 0, 60, 0
4, 32700, Note_on_c, 0, 55, 93
4, 32760, Note_on_c, 0, 55, 0
4, 32760, Note_on_c, 0, 63, 0
4, 32760, Note_on_c, 0, 36, 0
4, 32760, Note_on_c, 0, 43, 0
4, 32760, Note_on_c, 0, 62, 79
4, 32760, Note_on_c, 0, 31, 96
4, 32760, Note_on_c, 0, 43, 96
4, 32819, Note_on_c, 0, 58, 98
4, 32880, Note_on_c, 0, 58, 0
4, 32880, Note_on_c, 0, 55, 90
4, 32940, Note_on_c, 0, 55, 0
4, 32940, Note_on_c, 0, 50, 92
4, 32999, Note_on_c, 0, 50, 0
4, 32999, Note_on_c, 0, 58, 110
4, 33060, Note_on_c, 0, 58, 0
4, 33060, Note_on_c, 0, 55, 90
4, 33120, Note_on_c, 0, 55, 0
4, 33120, Note_on_c, 0, 62, 0
4, 33120, Note_on_c, 0, 31, 0
4, 33120, Note_on_c, 0, 43, 0
4, 33120, Note_on_c, 0, 61, 78
4, 33120, Note_on_c, 0, 38, 91
4, 33179, Note_on_c, 0, 58, 91
4, 33240, Note_on_c, 0, 58, 0
4, 33240, Note_on_c, 0, 55, 89
4, 33300, Note_on_c, 0, 55, 0
4, 33300, Note_on_c, 0, 52, 92
4, 33359, Note_on_c, 0, 52, 0
4, 33359, Note_on_c, 0, 58, 103
4, 33420, Note_on_c, 0, 58, 0
4, 33420, Note_on_c, 0, 55, 92
4, 33480, Note_on_c, 0, 55, 0
4, 33480, Note_on_c, 0, 61, 0
4, 33480, Note_on_c, 0, 62, 85
4, 33539, Note_on_c, 0, 60, 91
4, 33600, Note_on_c, 0, 60, 0
4, 33600, Note_on_c, 0, 57, 91
4, 33660, Note_on_c, 0, 57, 0
4, 33660, Note_on_c, 0, 50, 88
4, 33719, Note_on_c, 0, 50, 0
4, 33719, Note_on_c, 0, 60, 119
4, 33780, Note_on_c, 0, 60, 0
4, 33780, Note_on_c, 0, 57, 100
4, 33840, Note_on_c, 0, 57, 0
4, 33840, Note_on_c, 0, 62, 0
4, 33840, Note_on_c, 0, 38, 0
4, 33840, Note_on_c, 0, 63, 91
4, 33840, Note_on_c, 0, 31, 101
4, 33840, Note_on_c, 0, 43, 101
4, 33899, Note_on_c, 0, 60, 85
4, 33960, Note_on_c, 0, 60, 0
4, 33960, Note_on_c, 0, 55, 92
4, 34020, Note_on_c, 0, 55, 0
4, 34020, Note_on_c, 0, 51, 93
4, 34079, Note_on_c, 0, 51, 0
4, 34079, Note_on_c, 0, 60, 116
4, 34140, Note_on_c, 0, 60, 0
4, 34140, Note_on_c, 0, 55, 94
4, 34200, Note_on_c, 0, 55, 0
4, 34200, Note_on_c, 0, 63, 0
4, 34200, Note_on_c, 0, 68, 91
4, 34259, Note_on_c, 0, 65, 90
4, 34320, Note_on_c, 0, 65, 0
4, 34320, Note_on_c, 0, 60, 82
4, 34380, Note_on_c, 0, 60, 0
4, 34380, Note_on_c, 0, 56, 88
4, 34439, Note_on_c, 0, 56, 0
4, 34439, Note_on_c, 0, 65, 113
4, 34500, Note_on_c, 0, 65, 0
4, 34500, Note_on_c, 0, 60, 88
4, 34560, Note_on_c, 0, 60, 0
4, 34560, Note_on_c, 0, 31, 0
4, 34560, Note_on_c, 0, 43, 0
4, 34560, Note_on_c, 0, 68, 0
4, 34560, Note_on_c, 0, 67, 78
4, 34560, Note_on_c, 0, 31, 96
4, 34560, Note_on_c, 0, 43, 96
4, 34619, Note_on_c, 0, 63, 84
4, 34680, Note_on_c, 0, 63, 0
4, 34680, Note_on_c, 0, 60, 92
4, 34740, Note_on_c, 0, 60, 0
4, 34740, Note_on_c, 0, 55, 93
4, 34799, Note_on_c, 0, 55, 0
4, 34799, Note_on_c, 0, 63, 109
4, 34860, Note_on_c, 0, 63, 0
4, 34860, Note_on_c, 0, 60, 90
4, 34920, Note_on_c, 0, 60, 0
4, 34920, Note_on_c, 0, 67, 0
4, 34920, Note_on_c, 0, 65, 83
4, 34979, Note_on_c, 0, 60, 87
4, 35040, Note_on_c, 0, 60, 0
4, 35040, Note_on_c, 0, 56, 92
4, 35100, Note_on_c, 0, 56, 0
4, 35100, Note_on_c, 0, 53, 88
4, 35159, Note_on_c, 0, 53, 0
4, 35159, Note_on_c, 0, 60, 112
4, 35220, Note_on_c, 0, 60, 0
4, 35220, Note_on_c, 0, 57, 99
4, 35280, Note_on_c, 0, 57, 0
4, 35280, Note_on_c, 0, 65, 0
4, 35280, Note_on_c, 0, 63, 79
4, 35339, Note_on_c, 0, 60, 83
4, 35400, Note_on_c, 0, 60, 0
4, 35400, Note_on_c, 0, 55, 90
4, 35460, Note_on_c, 0, 55, 0
4, 35460, Note_on_c, 0, 51, 89
4, 35519, Note_on_c, 0, 51, 0
4, 35519, Note_on_c, 0, 60, 114
4, 35580, Note_on_c, 0, 60, 0
4, 35580, Note_on_c, 0, 55, 93
4, 35640, Note_on_c, 0, 55, 0
4, 35640, Note_on_c, 0, 31, 0
4, 35640, Note_on_c, 0, 43, 0
4, 35640, Note_on_c, 0, 63, 0
4, 35640, Note_on_c, 0, 68, 90
4, 35640, Note_on_c, 0, 31, 95
4, 35640, Note_on_c, 0, 43, 95
4, 35699, Note_on_c, 0, 65, 87
4, 35760, Note_on_c, 0, 65, 0
4, 35760, Note_on_c, 0, 60, 81
4, 35820, Note_on_c, 0, 60, 0
4, 35820, Note_on_c, 0, 56, 87
4, 35879, Note_on_c, 0, 56, 0
4, 35879, Note_on_c, 0, 65, 119
4, 35940, Note_on_c, 0, 65, 0
4, 35940, Note_on_c, 0, 60, 88
4, 36000, Note_on_c, 0, 60, 0
4, 36000, Note_on_c, 0, 68, 0
4, 36000, Note_on_c, 0, 31, 0
4, 36000, Note_on_c, 0, 43, 0
4, 36000, Note_on_c, 0, 67, 81
4, 36000, Note_on_c, 0, 31, 92
4, 36000, Note_on_c, 0, 43, 92
4, 36059, Note_on_c, 0, 63, 86
4, 36120, Note_on_c, 0, 63, 0
4, 36120, Note_on_c, 0, 60, 86
4, 36180, Note_on_c, 0, 60, 0
4, 36180, Note_on_c, 0, 55, 89
4, 36239, Note_on_c, 0, 55, 0
4, 36239, Note_on_c, 0, 63, 114
4, 36300, Note_on_c, 0, 63, 0
4, 36300, Note_on_c, 0, 60, 90
4, 36360, Note_on_c, 0, 60, 0
4, 36360, Note_on_c, 0, 67, 0
4, 36360, Note_on_c, 0, 65, 77
4, 36419, Note_on_c, 0, 60, 87
4, 36480, Note_on_c, 0, 60, 0
4, 36480, Note_on_c, 0, 56, 86
4, 36540, Note_on_c, 0, 56, 0
4, 36540, Note_on_c, 0, 53, 94
4, 36599, Note_on_c, 0, 53, 0
4, 36599, Note_on_c, 0, 60, 118
4, 36660, Note_on_c, 0, 60, 0
4, 36660, Note_on_c, 0, 57, 93
4, 36720, Note_on_c, 0, 57, 0
4, 36720, Note_on_c, 0, 65, 0
4, 36720, Note_on_c, 0, 63, 76
4, 36779, Note_on_c, 0, 60, 84
4, 36840, Note_on_c, 0, 60, 0
4, 36840, Note_on_c, 0, 55, 86
4, 36900, Note_on_c, 0, 55, 0
4, 36900, Note_on_c, 0, 51, 88
4, 36959, Note_on_c, 0, 51, 0
4, 36959, Note_on_c, 0, 60, 118
4, 37020, Note_on_c, 0, 60, 0
4, 37020, Note_on_c, 0, 55, 87
4, 37080, Note_on_c, 0, 55, 0
4, 37080, Note_on_c, 0, 31, 0
4, 37080, Note_on_c, 0, 43, 0
4, 37080, Note_on_c, 0, 63, 0
4, 37080, Note_on_c, 0, 62, 75
4, 37080, Note_on_c, 0, 31, 95
4, 37080, Note_on_c, 0, 43, 95
4, 37139, Note_on_c, 0, 58, 88
4, 37200, Note_on_c, 0, 58, 0
4, 37200, Note_on_c, 0, 53, 87
4, 37260, Note_on_c, 0, 53, 0
4, 37260, Note_on_c, 0, 50, 93
4, 37319, Note_on_c, 0, 50, 0
4, 37319, Note_on_c, 0, 58, 102
4, 37380, Note_on_c, 0, 58, 0
4, 37380, Note_on_c, 0, 53, 90
4, 37440, Note_on_c, 0, 53, 0
4, 37440, Note_on_c, 0, 62, 0
4, 37440, Note_on_c, 0, 31, 0
4, 37440, Note_on_c, 0, 43, 0
4, 37440, Note_on_c, 0, 72, 101
4, 37440, Note_on_c, 0, 33, 74
4, 37440, Note_on_c, 0, 45, 74
4, 37499, Note_on_c, 0, 67, 83
4, 37560, Note_on_c, 0, 67, 0
4, 37560, Note_on_c, 0, 63, 85
4, 37620, Note_on_c, 0, 63, 0
4, 37620, Note_on_c, 0, 60, 83
4, 37679, Note_on_c, 0, 60, 0
4, 37679, Note_on_c, 0, 67, 110
4, 37740, Note_on_c, 0, 67, 0
4, 37740, Note_on_c, 0, 63, 89
4, 37800, Note_on_c, 0, 63, 0
4, 37800, Note_on_c, 0, 72, 0
4, 37800, Note_on_c, 0, 33, 0
4, 37800, Note_on_c, 0, 45, 0
4, 37800, Note_on_c, 0, 70, 76
4, 37800, Note_on_c, 0, 34, 83
4, 37800, Note_on_c, 0, 46, 83
4, 37859, Note_on_c, 0, 67, 84
4, 37920, Note_on_c, 0, 67, 0
4, 37920, Note_on_c, 0, 62, 81
4, 37980, Note_on_c, 0, 62, 0
4, 37980, Note_on_c, 0, 58, 86
4, 38039, Note_on_c, 0, 58, 0
4, 38039, Note_on_c, 0, 67, 116
4, 38100, Note_on_c, 0, 67, 0
4, 38100, Note_on_c, 0, 62, 91
4, 38160, Note_on_c, 0, 62, 0
4, 38160, Note_on_c, 0, 70, 0
4, 38160, Note_on_c, 0, 34, 0
4, 38160, Note_on_c, 0, 46, 0
4, 38160, Note_on_c, 0, 69, 79
4, 38160, Note_on_c, 0, 36, 85
4, 38160, Note_on_c, 0, 48, 85
4, 38219, Note_on_c, 0, 67, 87
4, 38280, Note_on_c, 0, 67, 0
4, 38280, Note_on_c, 0, 63, 81
4, 38340, Note_on_c, 0, 63, 0
4, 38340, Note_on_c, 0, 57, 89
4, 38399, Note_on_c, 0, 57, 0
4, 38399, Note_on_c, 0, 67, 115
4, 38460, Note_on_c, 0, 67, 0
4, 38460, Note_on_c, 0, 63, 90
4, 38520, Note_on_c, 0, 63, 0
4, 38520, Note_on_c, 0, 69, 0
4, 38520, Note_on_c, 0, 36, 0
4, 38520, Note_on_c, 0, 48, 0
4, 38520, Note_on_c, 0, 70, 82
4, 38520, Note_on_c, 0, 38, 85
4, 38520, Note_on_c, 0, 50, 85
4, 38579, Note_on_c, 0, 67, 84
4, 38640, Note_on_c, 0, 67, 0
4, 38640, Note_on_c, 0, 62, 80
4, 38700, Note_on_c, 0, 62, 0
4, 38700, Note_on_c, 0, 58, 88
4, 38759, Note_on_c, 0, 58, 0
4, 38759, Note_on_c, 0, 67, 118
4, 38820, Note_on_c, 0, 67, 0
4, 38820, Note_on_c, 0, 62, 89
4, 38880, Note_on_c, 0, 62, 0
4, 38880, Note_on_c, 0, 70, 0
4, 38880, Note_on_c, 0, 38, 0
4, 38880, Note_on_c, 0, 50, 0
4, 38880, Note_on_c, 0, 70, 81
4, 38880, Note_on_c, 0, 38, 81
4, 38880, Note_on_c, 0, 50, 81
4, 38939, Note_on_c, 0, 70, 0
4, 38939, Note_on_c, 0, 67, 77
4, 39000, Note_on_c, 0, 67, 0
4, 39000, Note_on_c, 0, 61, 69
4, 39060, Note_on_c, 0, 61, 0
4, 39060, Note_on_c, 0, 58, 77
4, 39119, Note_on_c, 0, 58, 0
4, 39119, Note_on_c, 0, 67, 102
4, 39180, Note_on_c, 0, 67, 0
4, 39180, Note_on_c, 0, 61, 74
4, 39240, Note_on_c, 0, 61, 0
4, 39240, Note_on_c, 0, 69, 96
4, 39299, Note_on_c, 0, 69, 0
4, 39299, Note_on_c, 0, 66, 80
4, 39360, Note_on_c, 0, 66, 0
4, 39360, Note_on_c, 0, 62, 73
4, 39420, Note_on_c, 0, 62, 0
4, 39420, Note_on_c, 0, 57, 80
4, 39479, Note_on_c, 0, 57, 0
4, 39479, Note_on_c, 0, 66, 100
4, 39540, Note_on_c, 0, 66, 0
4, 39540, Note_on_c, 0, 62, 80
4, 39600, Note_on_c, 0, 62, 0
4, 39600, Note_on_c, 0, 50, 0
4, 39600, Note_on_c, 0, 38, 0
4, 39600, Note_on_c, 0, 67, 99
4, 39600, Note_on_c, 0, 36, 84
4, 39600, Note_on_c, 0, 48, 84
4, 39659, Note_on_c, 0, 67, 0
4, 39659, Note_on_c, 0, 63, 75
4, 39720, Note_on_c, 0, 63, 0
4, 39720, Note_on_c, 0, 57, 72
4, 39780, Note_on_c, 0, 57, 0
4, 39780, Note_on_c, 0, 55, 78
4, 39839, Note_on_c, 0, 55, 0
4, 39839, Note_on_c, 0, 63, 95
4, 39900, Note_on_c, 0, 63, 0
4, 39900, Note_on_c, 0, 57, 82
4, 39960, Note_on_c, 0, 57, 0
4, 39960, Note_on_c, 0, 48, 0
4, 39960, Note_on_c, 0, 36, 0
4, 39960, Note_on_c, 0, 67, 101
4, 39960, Note_on_c, 0, 34, 78
4, 39960, Note_on_c, 0, 46, 78
4, 40019, Note_on_c, 0, 67, 0
4, 40019, Note_on_c, 0, 62, 79
4, 40080, Note_on_c, 0, 62, 0
4, 40080, Note_on_c, 0, 58, 81
4, 40140, Note_on_c, 0, 58, 0
4, 40140, Note_on_c, 0, 55, 78
4, 40199, Note_on_c, 0, 55, 0
4, 40199, Note_on_c, 0, 62, 95
4, 40260, Note_on_c, 0, 62, 0
4, 40260, Note_on_c, 0, 58, 81
4, 40320, Note_on_c, 0, 58, 0
4, 40320, Note_on_c, 0, 46, 0
4, 40320, Note_on_c, 0, 34, 0
4, 40320, Note_on_c, 0, 67, 102
4, 40320, Note_on_c, 0, 33, 80
4, 40320, Note_on_c, 0, 45, 80
4, 40379, Note_on_c, 0, 67, 0
4, 40379, Note_on_c, 0, 64, 81
4, 40440, Note_on_c, 0, 64, 0
4, 40440, Note_on_c, 0, 61, 74
4, 40500, Note_on_c, 0, 61, 0
4, 40500, Note_on_c, 0, 55, 75
4, 40559, Note_on_c, 0, 55, 0
4, 40559, Note_on_c, 0, 64, 95
4, 40620, Note_on_c, 0, 64, 0
4, 40620, Note_on_c, 0, 61, 77
4, 40680, Note_on_c, 0, 61, 0
4, 40680, Note_on_c, 0, 45, 0
4, 40680, Note_on_c, 0, 33, 0
4, 40680, Note_on_c, 0, 67, 99
4, 40680, Note_on_c, 0, 34, 85
4, 40680, Note_on_c, 0, 46, 85
4, 40739, Note_on_c, 0, 67, 0
4, 40739, Note_on_c, 0, 62, 77
4, 40800, Note_on_c, 0, 62, 0
4, 40800, Note_on_c, 0, 58, 74
4, 40860, Note_on_c, 0, 58, 0
4, 40860, Note_on_c, 0, 55, 82
4, 40919, Note_on_c, 0, 55, 0
4, 40919, Note_on_c, 0, 62, 97
4, 40980, Note_on_c, 0, 62, 0
4, 40980, Note_on_c, 0, 58, 82
4, 41040, Note_on_c, 0, 58, 0
4, 41040, Note_on_c, 0, 46, 0
4, 41040, Note_on_c, 0, 34, 0
4, 41040, Note_on_c, 0, 67, 103
4, 41040, Note_on_c, 0, 36, 87
4, 41040, Note_on_c, 0, 48, 87
4, 41099, Note_on_c, 0, 67, 0
4, 41099, Note_on_c, 0, 63, 76
4, 41160, Note_on_c, 0, 63, 0
4, 41160, Note_on_c, 0, 57, 77
4, 41220, Note_on_c, 0, 57, 0
4, 41220, Note_on_c, 0, 55, 77
4, 41279, Note_on_c, 0, 55, 0
4, 41279, Note_on_c, 0, 63, 98
4, 41340, Note_on_c, 0, 63, 0
4, 41340, Note_on_c, 0, 57, 83
4, 41400, Note_on_c, 0, 57, 0
4, 41400, Note_on_c, 0, 48, 0
4, 41400, Note_on_c, 0, 36, 0
4, 41400, Note_on_c, 0, 67, 100
4, 41400, Note_on_c, 0, 34, 84
4, 41400, Note_on_c, 0, 46, 84
4, 41459, Note_on_c, 0, 67, 0
4, 41459, Note_on_c, 0, 62, 79
4, 41520, Note_on_c, 0, 62, 0
4, 41520, Note_on_c, 0, 58, 79
4, 41580, Note_on_c, 0, 58, 0
4, 41580, Note_on_c, 0, 55, 82
4, 41639, Note_on_c, 0, 55, 0
4, 41639, Note_on_c, 0, 62, 102
4, 41700, Note_on_c, 0, 62, 0
4, 41700, Note_on_c, 0, 58, 77
4, 41760, Note_on_c, 0, 58, 0
4, 41760, Note_on_c, 0, 46, 0
4, 41760, Note_on_c, 0, 34, 0
4, 41760, Note_on_c, 0, 67, 100
4, 41760, Note_on_c, 0, 33, 79
4, 41760, Note_on_c, 0, 45, 79
4, 41819, Note_on_c, 0, 67, 0
4, 41819, Note_on_c, 0, 64, 73
4, 41880, Note_on_c, 0, 64, 0
4, 41880, Note_on_c, 0, 61, 75
4, 41940, Note_on_c, 0, 61, 0
4, 41940, Note_on_c, 0, 55, 75
4, 41999, Note_on_c, 0, 55, 0
4, 41999, Note_on_c, 0, 64, 104
4, 42060, Note_on_c, 0, 64, 0
4, 42060, Note_on_c, 0, 61, 81
4, 42120, Note_on_c, 0, 61, 0
4, 42120, Note_on_c, 0, 45, 0
4, 42120, Note_on_c, 0, 33, 0
4, 42120, Note_on_c, 0, 67, 98
4, 42120, Note_on_c, 0, 34, 83
4, 42120, Note_on_c, 0, 46, 83
4, 42179, Note_on_c, 0, 67, 0
4, 42179, Note_on_c, 0, 62, 75
4, 42240, Note_on_c, 0, 62, 0
4, 42240, Note_on_c, 0, 58, 76
4, 42300, Note_on_c, 0, 58, 0
4, 42300, Note_on_c, 0, 55, 79
4, 42359, Note_on_c, 0, 55, 0
4, 42359, Note_on_c, 0, 62, 102
4, 42420, Note_on_c, 0, 62, 0
4, 42420, Note_on_c, 0, 58, 76
4, 42480, Note_on_c, 0, 58, 0
4, 42480, Note_on_c, 0, 46, 0
4, 42480, Note_on_c, 0, 34, 0
4, 42480, Note_on_c, 0, 55, 83
4, 42480, Note_on_c, 0, 39, 83
4, 42480, Note_on_c, 0, 51, 83
4, 42539, Note_on_c, 0, 55, 0
4, 42539, Note_on_c, 0, 60, 84
4, 42600, Note_on_c, 0, 60, 0
4, 42600, Note_on_c, 0, 67, 84
4, 42660, Note_on_c, 0, 67, 0
4, 42660, Note_on_c, 0, 51, 0
4, 42660, Note_on_c, 0, 39, 0
4, 42660, Note_on_c, 0, 55, 84
4, 42660, Note_on_c, 0, 36, 84
4, 42660, Note_on_c, 0, 48, 84
4, 42719, Note_on_c, 0, 55, 0
4, 42719, Note_on_c, 0, 63, 84
4, 42780, Note_on_c, 0, 63, 0
4, 42780, Note_on_c, 0, 67, 84
4, 42840, Note_on_c, 0, 67, 0
4, 42840, Note_on_c, 0, 48, 0
4, 42840, Note_on_c, 0, 36, 0
4, 42840, Note_on_c, 0, 55, 85
4, 42840, Note_on_c, 0, 34, 85
4, 42840, Note_on_c, 0, 46, 85
4, 42899, Note_on_c, 0, 55, 0
4, 42899, Note_on_c, 0, 62, 85
4, 42960, Note_on_c, 0, 62, 0
4, 42960, Note_on_c, 0, 67, 85
4, 43020, Note_on_c, 0, 67, 0
4, 43020, Note_on_c, 0, 46, 0
4, 43020, Note_on_c, 0, 34, 0
4, 43020, Note_on_c, 0, 55, 85
4, 43020, Note_on_c, 0, 39, 85
4, 43020, Note_on_c, 0, 51, 85
4, 43079, Note_on_c, 0, 55, 0
4, 43079, Note_on_c, 0, 60, 85
4, 43140, Note_on_c, 0, 60, 0
4, 43140, Note_on_c, 0, 67, 86
4, 43200, Note_on_c, 0, 67, 0
4, 43200, Note_on_c, 0, 51, 0
4, 43200, Note_on_c, 0, 39, 0
4, 43200, Note_on_c, 0, 55, 86
4, 43200, Note_on_c, 0, 38, 86
4, 43200, Note_on_c, 0, 50, 86
4, 43259, Note_on_c, 0, 55, 0
4, 43259, Note_on_c, 0, 58, 86
4, 43320, Note_on_c, 0, 58, 0
4, 43320, Note_on_c, 0, 67, 86
4, 43380, Note_on_c, 0, 67, 0
4, 43380, Note_on_c, 0, 50, 0
4, 43380, Note_on_c, 0, 38, 0
4, 43380, Note_on_c, 0, 62, 86
4, 43380, Note_on_c, 0, 35, 86
4, 43380, Note_on_c, 0, 47, 86
4, 43439, Note_on_c, 0, 62, 0
4, 43439, Note_on_c, 0, 67, 87
4, 43500, Note_on_c, 0, 67, 0
4, 43500, Note_on_c, 0, 74, 87
4, 43560, Note_on_c, 0, 74, 0
4, 43560, Note_on_c, 0, 47, 0
4, 43560, Note_on_c, 0, 35, 0
4, 43560, Note_on_c, 0, 63, 87
4, 43560, Note_on_c, 0, 36, 87
4, 43560, Note_on_c, 0, 48, 87
4, 43619, Note_on_c, 0, 63, 0
4, 43619, Note_on_c, 0, 67, 87
4, 43680, Note_on_c, 0, 67, 0
4, 43680, Note_on_c, 0, 75, 88
4, 43740, Note_on_c, 0, 75, 0
4, 43740, Note_on_c, 0, 48, 0
4, 43740, Note_on_c, 0, 36, 0
4, 43740, Note_on_c, 0, 60, 88
4, 43740, Note_on_c, 0, 41, 88
4, 43740, Note_on_c, 0, 53, 88
4, 43799, Note_on_c, 0, 60, 0
4, 43799, Note_on_c, 0, 68, 88
4, 43860, Note_on_c, 0, 68, 0
4, 43860, Note_on_c, 0, 72, 88
4, 43920, Note_on_c, 0, 72, 0
4, 43920, Note_on_c, 0, 53, 0
4, 43920, Note_on_c, 0, 41, 0
4, 43920, Note_on_c, 0, 60, 88
4, 43920, Note_on_c, 0, 39, 88
4, 43920, Note_on_c, 0, 51, 88
4, 43979, Note_on_c, 0, 60, 0
4, 43979, Note_on_c, 0, 67, 89
4, 44040, Note_on_c, 0, 67, 0
4, 44040, Note_on_c, 0, 72, 89
4, 44100, Note_on_c, 0, 72, 0
4, 44100, Note_on_c, 0, 51, 0
4, 44100, Note_on_c, 0, 39, 0
4, 44100, Note_on_c, 0, 63, 89
4, 44100, Note_on_c, 0, 37, 89
4, 44100, Note_on_c, 0, 49, 89
4, 44159, Note_on_c, 0, 63, 0
4, 44159, Note_on_c, 0, 70, 89
4, 44220, Note_on_c, 0, 70, 0
4, 44220, Note_on_c, 0, 75, 89
4, 44280, Note_on_c, 0, 75, 0
4, 44280, Note_on_c, 0, 49, 0
4, 44280, Note_on_c, 0, 37, 0
4, 44280, Note_on_c, 0, 62, 90
4, 44280, Note_on_c, 0, 38, 90
4, 44280, Note_on_c, 0, 50, 90
4, 44339, Note_on_c, 0, 62, 0
4, 44339, Note_on_c, 0, 70, 90
4, 44400, Note_on_c, 0, 70, 0
4, 44400, Note_on_c, 0, 74, 90
4, 44460, Note_on_c, 0, 74, 0
4, 44460, Note_on_c, 0, 50, 0
4, 44460, Note_on_c, 0, 38, 0
4, 44460, Note_on_c, 0, 61, 90
4, 44460, Note_on_c, 0, 39, 90
4, 44460, Note_on_c, 0, 51, 90
4, 44519, Note_on_c, 0, 61, 0
4, 44519, Note_on_c, 0, 70, 91
4, 44580, Note_on_c, 0, 70, 0
4, 44580, Note_on_c, 0, 73, 91
4, 44640, Note_on_c, 0, 73, 0
4, 44640, Note_on_c, 0, 51, 0
4, 44640, Note_on_c, 0, 39, 0
4, 44640, Note_on_c, 0, 74, 91
4, 44640, Note_on_c, 0, 38, 91
4, 44640, Note_on_c, 0, 50, 91
4, 44699, Note_on_c, 0, 70, 104
4, 44760, Note_on_c, 0, 70, 0
4, 44760, Note_on_c, 0, 67, 104
4, 44820, Note_on_c, 0, 67, 0
4, 44820, Note_on_c, 0, 62, 104
4, 44879, Note_on_c, 0, 62, 0
4, 44879, Note_on_c, 0, 70, 104
4, 44940, Note_on_c, 0, 70, 0
4, 44940, Note_on_c, 0, 67, 105
4, 45000, Note_on_c, 0, 67, 0
4, 45000, Note_on_c, 0, 74, 0
4, 45000, Note_on_c, 0, 38, 0
4, 45000, Note_on_c, 0, 50, 0
4, 45000, Note_on_c, 0, 74, 92
4, 45000, Note_on_c, 0, 33, 92
4, 45000, Note_on_c, 0, 45, 92
4, 45059, Note_on_c, 0, 67, 105
4, 45120, Note_on_c, 0, 67, 0
4, 45120, Note_on_c, 0, 62, 105
4, 45180, Note_on_c, 0, 62, 0
4, 45180, Note_on_c, 0, 74, 0
4, 45180, Note_on_c, 0, 73, 93
4, 45239, Note_on_c, 0, 67, 106
4, 45300, Note_on_c, 0, 67, 0
4, 45300, Note_on_c, 0, 61, 106
4, 45360, Note_on_c, 0, 61, 0
4, 45360, Note_on_c, 0, 73, 0
4, 45360, Note_on_c, 0, 45, 0
4, 45360, Note_on_c, 0, 33, 0
4, 45360, Note_on_c, 0, 70, 93
4, 45360, Note_on_c, 0, 39, 93
4, 45360, Note_on_c, 0, 51, 93
4, 45419, Note_on_c, 0, 67, 106
4, 45480, Note_on_c, 0, 67, 0
4, 45480, Note_on_c, 0, 63, 107
4, 45540, Note_on_c, 0, 63, 0
4, 45540, Note_on_c, 0, 58, 107
4, 45599, Note_on_c, 0, 58, 0
4, 45599, Note_on_c, 0, 67, 107
4, 45660, Note_on_c, 0, 67, 0
4, 45660, Note_on_c, 0, 63, 107
4, 45720, Note_on_c, 0, 63, 0
4, 45720, Note_on_c, 0, 70, 0
4, 45720, Note_on_c, 0, 39, 0
4, 45720, Note_on_c, 0, 51, 0
4, 45720, Note_on_c, 0, 74, 95
4, 45720, Note_on_c, 0, 33, 95
4, 45720, Note_on_c, 0, 45, 95
4, 45779, Note_on_c, 0, 67, 108
4, 45840, Note_on_c, 0, 67, 0
4, 45840, Note_on_c, 0, 62, 108
4, 45900, Note_on_c, 0, 62, 0
4, 45900, Note_on_c, 0, 74, 0
4, 45900, Note_on_c, 0, 73, 95
4, 45959, Note_on_c, 0, 67, 108
4, 46020, Note_on_c, 0, 67, 0
4, 46020, Note_on_c, 0, 61, 109
4, 46080, Note_on_c, 0, 61, 0
4, 46080, Note_on_c, 0, 73, 0
4, 46080, Note_on_c, 0, 45, 0
4, 46080, Note_on_c, 0, 33, 0
4, 46080, Note_on_c, 0, 70, 90
4, 46080, Note_on_c, 0, 39, 107
4, 46080, Note_on_c, 0, 51, 107
4, 46139, Note_on_c, 0, 70, 0
4, 46139, Note_on_c, 0, 67, 87
4, 46200, Note_on_c, 0, 67, 0
4, 46200, Note_on_c, 0, 63, 88
4, 46260, Note_on_c, 0, 63, 0
4, 46260, Note_on_c, 0, 51, 0
4, 46260, Note_on_c, 0, 39, 0
4, 46260, Note_on_c, 0, 62, 88
4, 46260, Note_on_c, 0, 33, 91
4, 46260, Note_on_c, 0, 45, 91
4, 46319, Note_on_c, 0, 62, 0
4, 46319, Note_on_c, 0, 67, 105
4, 46380, Note_on_c, 0, 67, 0
4, 46380, Note_on_c, 0, 61, 91
4, 46440, Note_on_c, 0, 61, 0
4, 46440, Note_on_c, 0, 45, 0
4, 46440, Note_on_c, 0, 33, 0
4, 46440, Note_on_c, 0, 70, 111
4, 46440, Note_on_c, 0, 39, 104
4, 46440, Note_on_c, 0, 51, 104
4, 46499, Note_on_c, 0, 70, 0
4, 46499, Note_on_c, 0, 67, 96
4, 46560, Note_on_c, 0, 67, 0
4, 46560, Note_on_c, 0, 63, 88
4, 46620, Note_on_c, 0, 63, 0
4, 46620, Note_on_c, 0, 51, 0
4, 46620, Note_on_c, 0, 39, 0
4, 46620, Note_on_c, 0, 62, 96
4, 46620, Note_on_c, 0, 33, 93
4, 46620, Note_on_c, 0, 45, 93
4, 46679, Note_on_c, 0, 62, 0
4, 46679, Note_on_c, 0, 67, 112
4, 46740, Note_on_c, 0, 67, 0
4, 46740, Note_on_c, 0, 61, 87
4, 46800, Note_on_c, 0, 61, 0
4, 46800, Note_on_c, 0, 45, 0
4, 46800, Note_on_c, 0, 33, 0
4, 46800, Note_on_c, 0, 68, 114
4, 46800, Note_on_c, 0, 38, 102
4, 46800, Note_on_c, 0, 50, 102
4, 46859, Note_on_c, 0, 68, 0
4, 46859, Note_on_c, 0, 65, 90
4, 46920, Note_on_c, 0, 65, 0
4, 46920, Note_on_c, 0, 62, 85
4, 46980, Note_on_c, 0, 62, 0
4, 46980, Note_on_c, 0, 50, 0
4, 46980, Note_on_c, 0, 38, 0
4, 46980, Note_on_c, 0, 60, 87
4, 46980, Note_on_c, 0, 31, 92
4, 46980, Note_on_c, 0, 43, 92
4, 47039, Note_on_c, 0, 60, 0
4, 47039, Note_on_c, 0, 65, 114
4, 47100, Note_on_c, 0, 65, 0
4, 47100, Note_on_c, 0, 59, 90
4, 47160, Note_on_c, 0, 59, 0
4, 47160, Note_on_c, 0, 43, 0
4, 47160, Note_on_c, 0, 31, 0
4, 47160, Note_on_c, 0, 68, 114
4, 47160, Note_on_c, 0, 38, 107
4, 47160, Note_on_c, 0, 50, 107
4, 47219, Note_on_c, 0, 68, 0
4, 47219, Note_on_c, 0, 65, 90
4, 47280, Note_on_c, 0, 65, 0
4, 47280, Note_on_c, 0, 62, 84
4, 47340, Note_on_c, 0, 62, 0
4, 47340, Note_on_c, 0, 50, 0
4, 47340, Note_on_c, 0, 38, 0
4, 47340, Note_on_c, 0, 60, 90
4, 47340, Note_on_c, 0, 31, 92
4, 47340, Note_on_c, 0, 43, 92
4, 47399, Note_on_c, 0, 60, 0
4, 47399, Note_on_c, 0, 65, 108
4, 47460, Note_on_c, 0, 65, 0
4, 47460, Note_on_c, 0, 59, 91
4, 47520, Note_on_c, 0, 59, 0
4, 47520, Note_on_c, 0, 43, 0
4, 47520, Note_on_c, 0, 31, 0
4, 47520, Note_on_c, 0, 67, 115
4, 47520, Note_on_c, 0, 36, 105
4, 47520, Note_on_c, 0, 48, 105
4, 47579, Note_on_c, 0, 67, 0
4, 47579, Note_on_c, 0, 63, 88
4, 47640, Note_on_c, 0, 63, 0
4, 47640, Note_on_c, 0, 60, 89
4, 47700, Note_on_c, 0, 60, 0
4, 47700, Note_on_c, 0, 55, 87
4, 47759, Note_on_c, 0, 55, 0
4, 47759, Note_on_c, 0, 63, 119
4, 47820, Note_on_c, 0, 63, 0
4, 47820, Note_on_c, 0, 60, 93
4, 47880, Note_on_c, 0, 60, 0
4, 47880, Note_on_c, 0, 72, 97
4, 47939, Note_on_c, 0, 72, 0
4, 47939, Note_on_c, 0, 67, 97
4, 48000, Note_on_c, 0, 67, 0
4, 48000, Note_on_c, 0, 63, 97
4, 48060, Note_on_c, 0, 63, 0
4, 48060, Note_on_c, 0, 60, 96
4, 48119, Note_on_c, 0, 60, 0
4, 48119, Note_on_c, 0, 67, 96
4, 48180, Note_on_c, 0, 67, 0
4, 48180, Note_on_c, 0, 63, 96
4, 48240, Note_on_c, 0, 63, 0
4, 48240, Note_on_c, 0, 48, 0
4, 48240, Note_on_c, 0, 36, 0
4, 48240, Note_on_c, 0, 70, 95
4, 48240, Note_on_c, 0, 37, 95
4, 48240, Note_on_c, 0, 49, 95
4, 48299, Note_on_c, 0, 70, 0
4, 48299, Note_on_c, 0, 67, 95
4, 48360, Note_on_c, 0, 67, 0
4, 48360, Note_on_c, 0, 63, 95
4, 48420, Note_on_c, 0, 63, 0
4, 48420, Note_on_c, 0, 58, 95
4, 48479, Note_on_c, 0, 58, 0
4, 48479, Note_on_c, 0, 67, 94
4, 48540, Note_on_c, 0, 67, 0
4, 48540, Note_on_c, 0, 63, 94
4, 48600, Note_on_c, 0, 63, 0
4, 48600, Note_on_c, 0, 67, 94
4, 48659, Note_on_c, 0, 67, 0
4, 48659, Note_on_c, 0, 63, 93
4, 48720, Note_on_c, 0, 63, 0
4, 48720, Note_on_c, 0, 58, 93
4, 48780, Note_on_c, 0, 58, 0
4, 48780, Note_on_c, 0, 55, 93
4, 48839, Note_on_c, 0, 55, 0
4, 48839, Note_on_c, 0, 63, 92
4, 48900, Note_on_c, 0, 63, 0
4, 48900, Note_on_c, 0, 58, 92
4, 48960, Note_on_c, 0, 58, 0
4, 48960, Note_on_c, 0, 49, 0
4, 48960, Note_on_c, 0, 37, 0
4, 48960, Note_on_c, 0, 70, 92
4, 48960, Note_on_c, 0, 38, 92
4, 48960, Note_on_c, 0, 50, 92
4, 49019, Note_on_c, 0, 70, 0
4, 49019, Note_on_c, 0, 67, 92
4, 49080, Note_on_c, 0, 67, 0
4, 49080, Note_on_c, 0, 61, 91
4, 49140, Note_on_c, 0, 61, 0
4, 49140, Note_on_c, 0, 57, 91
4, 49199, Note_on_c, 0, 57, 0
4, 49199, Note_on_c, 0, 67, 91
4, 49260, Note_on_c, 0, 67, 0
4, 49260, Note_on_c, 0, 61, 90
4, 49320, Note_on_c, 0, 61, 0
4, 49320, Note_on_c, 0, 70, 90
4, 49379, Note_on_c, 0, 70, 0
4, 49379, Note_on_c, 0, 67, 90
4, 49440, Note_on_c, 0, 67, 0
4, 49440, Note_on_c, 0, 61, 89
4, 49500, Note_on_c, 0, 61, 0
4, 49500, Note_on_c, 0, 58, 89
4, 49559, Note_on_c, 0, 58, 0
4, 49559, Note_on_c, 0, 67, 89
4, 49620, Note_on_c, 0, 67, 0
4, 49620, Note_on_c, 0, 61, 89
4, 49680, Note_on_c, 0, 61, 0
4, 49680, Note_on_c, 0, 50, 0
4, 49680, Note_on_c, 0, 38, 0
4, 49680, Note_on_c, 0, 69, 88
4, 49680, Note_on_c, 0, 38, 88
4, 49680, Note_on_c, 0, 50, 88
4, 49739, Note_on_c, 0, 69, 0
4, 49739, Note_on_c, 0, 66, 88
4, 49800, Note_on_c, 0, 66, 0
4, 49800, Note_on_c, 0, 60, 88
4, 49860, Note_on_c, 0, 60, 0
4, 49860, Note_on_c, 0, 57, 87
4, 49919, Note_on_c, 0, 57, 0
4, 49919, Note_on_c, 0, 66, 87
4, 49980, Note_on_c, 0, 66, 0
4, 49980, Note_on_c, 0, 60, 87
4, 50040, Note_on_c, 0, 60, 0
4, 50040, Note_on_c, 0, 69, 86
4, 50099, Note_on_c, 0, 69, 0
4, 50099, Note_on_c, 0, 66, 86
4, 50160, Note_on_c, 0, 66, 0
4, 50160, Note_on_c, 0, 60, 86
4, 50220, Note_on_c, 0, 60, 0
4, 50220, Note_on_c, 0, 57, 85
4, 50279, Note_on_c, 0, 57, 0
4, 50279, Note_on_c, 0, 66, 85
4, 50340, Note_on_c, 0, 66, 0
4, 50340, Note_on_c, 0, 60, 85
4, 50400, Note_on_c, 0, 60, 0
4, 50400, Note_on_c, 0, 50, 0
4, 50400, Note_on_c, 0, 38, 0
4, 50400, Note_on_c, 0, 58, 66
4, 50400, Note_on_c, 0, 67, 66
4, 50400, Note_on_c, 0, 31, 56
4, 50400, Note_on_c, 0, 43, 56
4, 50580, Note_on_c, 0, 43, 0
4, 50580, Note_on_c, 0, 58, 0
4, 50580, Note_on_c, 0, 67, 0
4, 50580, Note_on_c, 0, 31, 0
4, 51840, Note_on_c, 0, 74, 65
4, 51840, Note_on_c, 0, 78, 65
4, 51840, Note_on_c, 0, 81, 65
4, 51840, Note_on_c, 0, 62, 65
4, 51840, Note_on_c, 0, 66, 65
4, 51840, Note_on_c, 0, 69, 65
4, 52560, Note_on_c, 0, 69, 0
4, 52560, Note_on_c, 0, 78, 0
4, 52560, Note_on_c, 0, 81, 0
4, 52560, Note_on_c, 0, 74, 0
4, 52560, Note_on_c, 0, 66, 0
4, 52560, Note_on_c, 0, 62, 0
4, 52560, Note_on_c, 0, 79, 74
4, 52560, Note_on_c, 0, 82, 74
4, 52560, Note_on_c, 0, 67, 72
4, 52560, Note_on_c, 0, 70, 72
4, 52740, Note_on_c, 0, 70, 0
4, 52740, Note_on_c, 0, 79, 0
4, 52740, Note_on_c, 0, 82, 0
4, 52740, Note_on_c, 0, 67, 0
4, 52740, Note_on_c, 0, 81, 76
4, 52740, Note_on_c, 0, 84, 76
4, 52740, Note_on_c, 0, 69, 73
4, 52740, Note_on_c, 0, 72, 73
4, 52920, Note_on_c, 0, 72, 0
4, 52920, Note_on_c, 0, 81, 0
4, 52920, Note_on_c, 0, 84, 0
4, 52920, Note_on_c, 0, 69, 0
4, 52920, Note_on_c, 0, 82, 76
4, 52920, Note_on_c, 0, 86, 76
4, 52920, Note_on_c, 0, 70, 78
4, 52920, Note_on_c, 0, 74, 78
4, 53280, Note_on_c, 0, 74, 0
4, 53280, Note_on_c, 0, 82, 0
4, 53280, Note_on_c, 0, 86, 0
4, 53280, Note_on_c, 0, 70, 0
4, 53280, Note_on_c, 0, 74, 63
4, 53280, Note_on_c, 0, 78, 63
4, 53280, Note_on_c, 0, 81, 63
4, 53280, Note_on_c, 0, 62, 64
4, 53280, Note_on_c, 0, 66, 64
4, 53280, Note_on_c, 0, 69, 64
4, 54360, Note_on_c, 0, 69, 0
4, 54360, Note_on_c, 0, 78, 0
4, 54360, Note_on_c, 0, 81, 0
4, 54360, Note_on_c, 0, 74, 0
4, 54360, Note_on_c, 0, 66, 0
4, 54360, Note_on_c, 0, 62, 0
4, 54360, Note_on_c, 0, 70, 88
4, 54360, Note_on_c, 0, 75, 88
4, 54360, Note_on_c, 0, 79, 88
4, 54360, Note_on_c, 0, 58, 91
4, 54360, Note_on_c, 0, 63, 91
4, 54360, Note_on_c, 0, 67, 91
4, 54720, Note_on_c, 0, 67, 0
4, 54720, Note_on_c, 0, 75, 0
4, 54720, Note_on_c, 0, 79, 0
4, 54720, Note_on_c, 0, 70, 0
4, 54720, Note_on_c, 0, 63, 0
4, 54720, Note_on_c, 0, 58, 0
4, 54720, Note_on_c, 0, 69, 77
4, 54720, Note_on_c, 0, 74, 77
4, 54720, Note_on_c, 0, 78, 77
4, 54720, Note_on_c, 0, 81, 77
4, 54720, Note_on_c, 0, 57, 68
4, 54720, Note_on_c, 0, 62, 68
4, 54720, Note_on_c, 0, 66, 68
4, 55080, Note_on_c, 0, 66, 0
4, 55080, Note_on_c, 0, 57, 0
4, 55080, Note_on_c, 0, 74, 0
4, 55080, Note_on_c, 0, 78, 0
4, 55080, Note_on_c, 0, 69, 0
4, 55080, Note_on_c, 0, 62, 0
4, 55080, Note_on_c, 0, 81, 0
4, 55080, Note_on_c, 0, 70, 93
4, 55080, Note_on_c, 0, 75, 93
4, 55080, Note_on_c, 0, 79, 93
4, 55080, Note_on_c, 0, 58, 96
4, 55080, Note_on_c, 0, 63, 96
4, 55080, Note_on_c, 0, 67, 96
4, 55440, Note_on_c, 0, 67, 0
4, 55440, Note_on_c, 0, 75, 0
4, 55440, Note_on_c, 0, 79, 0
4, 55440, Note_on_c, 0, 70, 0
4, 55440, Note_on_c, 0, 63, 0
4, 55440, Note_on_c, 0, 58, 0
4, 55440, Note_on_c, 0, 69, 72
4, 55440, Note_on_c, 0, 74, 72
4, 55440, Note_on_c, 0, 78, 72
4, 55440, Note_on_c, 0, 81, 72
4, 55440, Note_on_c, 0, 57, 70
4, 55440, Note_on_c, 0, 62, 70
4, 55440, Note_on_c, 0, 66, 70
4, 55800, Note_on_c, 0, 66, 0
4, 55800, Note_on_c, 0, 57, 0
4, 55800, Note_on_c, 0, 74, 0
4, 55800, Note_on_c, 0, 78, 0
4, 55800, Note_on_c, 0, 69, 0
4, 55800, Note_on_c, 0, 62, 0
4, 55800, Note_on_c, 0, 81, 0
4, 55800, Note_on_c, 0, 70, 91
4, 55800, Note_on_c, 0, 75, 91
4, 55800, Note_on_c, 0, 79, 91
4, 55800, Note_on_c, 0, 58, 96
4, 55800, Note_on_c, 0, 63, 96
4, 55800, Note_on_c, 0, 67, 96
4, 56160, Note_on_c, 0, 67, 0
4, 56160, Note_on_c, 0, 75, 0
4, 56160, Note_on_c, 0, 79, 0
4, 56160, Note_on_c, 0, 70, 0
4, 56160, Note_on_c, 0, 63, 0
4, 56160, Note_on_c, 0, 58, 0
4, 56160, Note_on_c, 0, 69, 80
4, 56160, Note_on_c, 0, 74, 80
4, 56160, Note_on_c, 0, 78, 80
4, 56160, Note_on_c, 0, 81, 80
4, 56160, Note_on_c, 0, 57, 65
4, 56160, Note_on_c, 0, 62, 65
4, 56160, Note_on_c, 0, 66, 65
4, 56340, Note_on_c, 0, 66, 0
4, 56340, Note_on_c, 0, 57, 0
4, 56340, Note_on_c, 0, 74, 0
4, 56340, Note_on_c, 0, 78, 0
4, 56340, Note_on_c, 0, 69, 0
4, 56340, Note_on_c, 0, 62, 0
4, 56340, Note_on_c, 0, 81, 0
4, 56340, Note_on_c, 0, 70, 66
4, 56340, Note_on_c, 0, 75, 66
4, 56340, Note_on_c, 0, 79, 66
4, 56340, Note_on_c, 0, 58, 71
4, 56340, Note_on_c, 0, 63, 71
4, 56340, Note_on_c, 0, 67, 71
4, 56520, Note_on_c, 0, 67, 0
4, 56520, Note_on_c, 0, 75, 0
4, 56520, Note_on_c, 0, 79, 0
4, 56520, Note_on_c, 0, 70, 0
4, 56520, Note_on_c, 0, 63, 0
4, 56520, Note_on_c, 0, 58, 0
4, 56520, Note_on_c, 0, 69, 72
4, 56520, Note_on_c, 0, 74, 72
4, 56520, Note_on_c, 0, 78, 72
4, 56520, Note_on_c, 0, 81, 72
4, 56520, Note_on_c, 0, 57, 67
4, 56520, Note_on_c, 0, 62, 67
4, 56520, Note_on_c, 0, 66, 67
4, 57060, Note_on_c, 0, 66, 0
4, 57060, Note_on_c, 0, 57, 0
4, 57060, Note_on_c, 0, 74, 0
4, 57060, Note_on_c, 0, 78, 0
4, 57060, Note_on_c, 0, 69, 0
4, 57060, Note_on_c, 0, 62, 0
4, 57060, Note_on_c, 0, 81, 0
4, 57600, Note_on_c, 0, 62, 63
4, 57600, Note_on_c, 0, 66, 63
4, 57600, Note_on_c, 0, 69, 63
4, 57600, Note_on_c, 0, 50, 62
4, 57600, Note_on_c, 0, 54, 62
4, 57600, Note_on_c, 0, 57, 62
4, 58320, Note_on_c, 0, 57, 0
4, 58320, Note_on_c, 0, 66, 0
4, 58320, Note_on_c, 0, 69, 0
4, 58320, Note_on_c, 0, 62, 0
4, 58320, Note_on_c, 0, 54, 0
4, 58320, Note_on_c, 0, 50, 0
4, 58320, Note_on_c, 0, 67, 70
4, 58320, Note_on_c, 0, 70, 70
4, 58320, Note_on_c, 0, 55, 71
4, 58320, Note_on_c, 0, 58, 71
4, 58500, Note_on_c, 0, 58, 0
4, 58500, Note_on_c, 0, 67, 0
4, 58500, Note_on_c, 0, 70, 0
4, 58500, Note_on_c, 0, 55, 0
4, 58500, Note_on_c, 0, 69, 73
4, 58500, Note_on_c, 0, 72, 73
4, 58500, Note_on_c, 0, 57, 75
4, 58500, Note_on_c, 0, 60, 75
4, 58680, Note_on_c, 0, 60, 0
4, 58680, Note_on_c, 0, 69, 0
4, 58680, Note_on_c, 0, 72, 0
4, 58680, Note_on_c, 0, 57, 0
4, 58680, Note_on_c, 0, 70, 71
4, 58680, Note_on_c, 0, 74, 71
4, 58680, Note_on_c, 0, 58, 79
4, 58680, Note_on_c, 0, 62, 79
4, 59040, Note_on_c, 0, 62, 0
4, 59040, Note_on_c, 0, 70, 0
4, 59040, Note_on_c, 0, 74, 0
4, 59040, Note_on_c, 0, 58, 0
4, 59040, Note_on_c, 0, 62, 59
4, 59040, Note_on_c, 0, 66, 59
4, 59040, Note_on_c, 0, 69, 59
4, 59040, Note_on_c, 0, 50, 64
4, 59040, Note_on_c, 0, 54, 64
4, 59040, Note_on_c, 0, 57, 64
4, 60120, Note_on_c, 0, 57, 0
4, 60120, Note_on_c, 0, 66, 0
4, 60120, Note_on_c, 0, 69, 0
4, 60120, Note_on_c, 0, 62, 0
4, 60120, Note_on_c, 0, 54, 0
4, 60120, Note_on_c, 0, 50, 0
4, 60120, Note_on_c, 0, 58, 93
4, 60120, Note_on_c, 0, 63, 93
4, 60120, Note_on_c, 0, 67, 93
4, 60120, Note_on_c, 0, 46, 91
4, 60120, Note_on_c, 0, 51, 91
4, 60120, Note_on_c, 0, 55, 91
4, 60480, Note_on_c, 0, 55, 0
4, 60480, Note_on_c, 0, 63, 0
4, 60480, Note_on_c, 0, 67, 0
4, 60480, Note_on_c, 0, 58, 0
4, 60480, Note_on_c, 0, 51, 0
4, 60480, Note_on_c, 0, 46, 0
4, 60480, Note_on_c, 0, 57, 76
4, 60480, Note_on_c, 0, 62, 76
4, 60480, Note_on_c, 0, 66, 76
4, 60480, Note_on_c, 0, 69, 76
4, 60480, Note_on_c, 0, 45, 73
4, 60480, Note_on_c, 0, 50, 73
4, 60480, Note_on_c, 0, 54, 73
4, 60840, Note_on_c, 0, 54, 0
4, 60840, Note_on_c, 0, 45, 0
4, 60840, Note_on_c, 0, 62, 0
4, 60840, Note_on_c, 0, 66, 0
4, 60840, Note_on_c, 0, 57, 0
4, 60840, Note_on_c, 0, 50, 0
4, 60840, Note_on_c, 0, 69, 0
4, 60840, Note_on_c, 0, 58, 91
4, 60840, Note_on_c, 0, 63, 91
4, 60840, Note_on_c, 0, 67, 91
4, 60840, Note_on_c, 0, 46, 94
4, 60840, Note_on_c, 0, 51, 94
4, 60840, Note_on_c, 0, 55, 94
4, 61200, Note_on_c, 0, 55, 0
4, 61200, Note_on_c, 0, 63, 0
4, 61200, Note_on_c, 0, 67, 0
4, 61200, Note_on_c, 0, 58, 0
4, 61200, Note_on_c, 0, 51, 0
4, 61200, Note_on_c, 0, 46, 0
4, 61200, Note_on_c, 0, 57, 75
4, 61200, Note_on_c, 0, 62, 75
4, 61200, Note_on_c, 0, 66, 75
4, 61200, Note_on_c, 0, 69, 75
4, 61200, Note_on_c, 0, 45, 63
4, 61200, Note_on_c, 0, 50, 63
4, 61200, Note_on_c, 0, 54, 63
4, 61560, Note_on_c, 0, 54, 0
4, 61560, Note_on_c, 0, 45, 0
4, 61560, Note_on_c, 0, 62, 0
4, 61560, Note_on_c, 0, 66, 0
4, 61560, Note_on_c, 0, 57, 0
4, 61560, Note_on_c, 0, 50, 0
4, 61560, Note_on_c, 0, 69, 0
4, 61560, Note_on_c, 0, 58, 91
4, 61560, Note_on_c, 0, 63, 91
4, 61560, Note_on_c, 0, 67, 91
4, 61560, Note_on_c, 0, 46, 97
4, 61560, Note_on_c, 0, 51, 97
4, 61560, Note_on_c, 0, 55, 97
4, 61920, Note_on_c, 0, 55, 0
4, 61920, Note_on_c, 0, 63, 0
4, 61920, Note_on_c, 0, 67, 0
4, 61920, Note_on_c, 0, 58, 0
4, 61920, Note_on_c, 0, 51, 0
4, 61920, Note_on_c, 0, 46, 0
4, 61920, Note_on_c, 0, 57, 77
4, 61920, Note_on_c, 0, 62, 77
4, 61920, Note_on_c, 0, 66, 77
4, 61920, Note_on_c, 0, 69, 77
4, 61920, Note_on_c, 0, 45, 65
4, 61920, Note_on_c, 0, 50, 65
4, 61920, Note_on_c, 0, 54, 65
4, 62100, Note_on_c, 0, 54, 0
4, 62100, Note_on_c, 0, 45, 0
4, 62100, Note_on_c, 0, 62, 0
4, 62100, Note_on_c, 0, 66, 0
4, 62100, Note_on_c, 0, 57, 0
4, 62100, Note_on_c, 0, 50, 0
4, 62100, Note_on_c, 0, 69, 0
4, 62100, Note_on_c, 0, 58, 66
4, 62100, Note_on_c, 0, 63, 66
4, 62100, Note_on_c, 0, 67, 66
4, 62100, Note_on_c, 0, 46, 73
4, 62100, Note_on_c, 0, 51, 73
4, 62100, Note_on_c, 0, 55, 73
4, 62280, Note_on_c, 0, 55, 0
4, 62280, Note_on_c, 0, 63, 0
4, 62280, Note_on_c, 0, 67, 0
4, 62280, Note_on_c, 0, 58, 0
4, 62280, Note_on_c, 0, 51, 0
4, 62280, Note_on_c, 0, 46, 0
4, 62280, Note_on_c, 0, 57, 78
4, 62280, Note_on_c, 0, 62, 78
4, 62280, Note_on_c, 0, 66, 78
4, 62280, Note_on_c, 0, 69, 78
4, 62280, Note_on_c, 0, 45, 70
4, 62280, Note_on_c, 0, 50, 70
4, 62280, Note_on_c, 0, 54, 70
4, 63360, Note_on_c, 0, 54, 0
4, 63360, Note_on_c, 0, 45, 0
4, 63360, Note_on_c, 0, 62, 0
4, 63360, Note_on_c, 0, 66, 0
4, 63360, Note_on_c, 0, 57, 0
4, 63360, Note_on_c, 0, 50, 0
4, 63360, Note_on_c, 0, 69, 0
4, 63360, Note_on_c, 0, 38, 68
4, 63360, Note_on_c, 0, 50, 68
4, 64080, Note_on_c, 0, 50, 0
4, 64080, Note_on_c, 0, 38, 0
4, 64080, Note_on_c, 0, 36, 70
4, 64080, Note_on_c, 0, 48, 70
4, 64800, Note_on_c, 0, 48, 0
4, 64800, Note_on_c, 0, 36, 0
4, 64800, Note_on_c, 0, 34, 69
4, 64800, Note_on_c, 0, 46, 69
4, 64920, Note_on_c, 0, 52, 75
4, 65039, Note_on_c, 0, 52, 0
4, 65039, Note_on_c, 0, 53, 83
4, 65160, Note_on_c, 0, 53, 0
4, 65160, Note_on_c, 0, 62, 110
4, 65160, Note_on_c, 0, 65, 110
4, 65280, Note_on_c, 0, 65, 0
4, 65280, Note_on_c, 0, 62, 0
4, 65280, Note_on_c, 0, 57, 75
4, 65399, Note_on_c, 0, 57, 0
4, 65399, Note_on_c, 0, 58, 85
4, 65520, Note_on_c, 0, 58, 0
4, 65520, Note_on_c, 0, 46, 0
4, 65520, Note_on_c, 0, 34, 0
4, 65520, Note_on_c, 0, 46, 81
4, 65640, Note_on_c, 0, 53, 77
4, 65759, Note_on_c, 0, 53, 0
4, 65759, Note_on_c, 0, 54, 83
4, 65880, Note_on_c, 0, 54, 0
4, 65880, Note_on_c, 0, 62, 105
4, 65880, Note_on_c, 0, 66, 105
4, 66000, Note_on_c, 0, 66, 0
4, 66000, Note_on_c, 0, 62, 0
4, 66000, Note_on_c, 0, 57, 80
4, 66119, Note_on_c, 0, 57, 0
4, 66119, Note_on_c, 0, 58, 80
4, 66240, Note_on_c, 0, 58, 0
4, 66240, Note_on_c, 0, 46, 0
4, 66240, Note_on_c, 0, 34, 83
4, 66240, Note_on_c, 0, 46, 83
4, 66360, Note_on_c, 0, 54, 73
4, 66479, Note_on_c, 0, 54, 0
4, 66479, Note_on_c, 0, 55, 82
4, 66600, Note_on_c, 0, 55, 0
4, 66600, Note_on_c, 0, 62, 105
4, 66600, Note_on_c, 0, 67, 105
4, 66720, Note_on_c, 0, 67, 0
4, 66720, Note_on_c, 0, 62, 0
4, 66720, Note_on_c, 0, 57, 73
4, 66839, Note_on_c, 0, 57, 0
4, 66839, Note_on_c, 0, 58, 83
4, 66960, Note_on_c, 0, 58, 0
4, 66960, Note_on_c, 0, 46, 0
4, 66960, Note_on_c, 0, 34, 0
4, 66960, Note_on_c, 0, 35, 86
4, 66960, Note_on_c, 0, 47, 86
4, 67080, Note_on_c, 0, 55, 70
4, 67199, Note_on_c, 0, 55, 0
4, 67199, Note_on_c, 0, 56, 83
4, 67320, Note_on_c, 0, 56, 0
4, 67320, Note_on_c, 0, 65, 107
4, 67320, Note_on_c, 0, 68, 107
4, 67440, Note_on_c, 0, 68, 0
4, 67440, Note_on_c, 0, 65, 0
4, 67440, Note_on_c, 0, 61, 72
4, 67559, Note_on_c, 0, 61, 0
4, 67559, Note_on_c, 0, 62, 88
4, 67680, Note_on_c, 0, 62, 0
4, 67680, Note_on_c, 0, 47, 0
4, 67680, Note_on_c, 0, 35, 0
4, 67680, Note_on_c, 0, 36, 83
4, 67680, Note_on_c, 0, 48, 83
4, 67800, Note_on_c, 0, 54, 74
4, 67919, Note_on_c, 0, 54, 0
4, 67919, Note_on_c, 0, 55, 85
4, 68040, Note_on_c, 0, 55, 0
4, 68040, Note_on_c, 0, 63, 103
4, 68040, Note_on_c, 0, 67, 103
4, 68160, Note_on_c, 0, 67, 0
4, 68160, Note_on_c, 0, 63, 0
4, 68160, Note_on_c, 0, 59, 81
4, 68279, Note_on_c, 0, 59, 0
4, 68279, Note_on_c, 0, 60, 83
4, 68400, Note_on_c, 0, 60, 0
4, 68400, Note_on_c, 0, 48, 0
4, 68400, Note_on_c, 0, 36, 0
4, 68400, Note_on_c, 0, 39, 87
4, 68400, Note_on_c, 0, 51, 87
4, 68520, Note_on_c, 0, 59, 77
4, 68639, Note_on_c, 0, 59, 0
4, 68639, Note_on_c, 0, 60, 86
4, 68760, Note_on_c, 0, 60, 0
4, 68760, Note_on_c, 0, 67, 107
4, 68760, Note_on_c, 0, 72, 107
4, 68880, Note_on_c, 0, 72, 0
4, 68880, Note_on_c, 0, 67, 0
4, 68880, Note_on_c, 0, 62, 70
4, 68999, Note_on_c, 0, 62, 0
4, 68999, Note_on_c, 0, 63, 82
4, 69120, Note_on_c, 0, 63, 0
4, 69120, Note_on_c, 0, 51, 0
4, 69120, Note_on_c, 0, 39, 0
4, 69120, Note_on_c, 0, 42, 84
4, 69120, Note_on_c, 0, 54, 84
4, 69240, Note_on_c, 0, 56, 78
4, 69359, Note_on_c, 0, 56, 0
4, 69359, Note_on_c, 0, 57, 80
4, 69480, Note_on_c, 0, 57, 0
4, 69480, Note_on_c, 0, 66, 106
4, 69480, Note_on_c, 0, 69, 106
4, 69600, Note_on_c, 0, 69, 0
4, 69600, Note_on_c, 0, 66, 0
4, 69600, Note_on_c, 0, 61, 70
4, 69719, Note_on_c, 0, 61, 0
4, 69719, Note_on_c, 0, 62, 89
4, 69840, Note_on_c, 0, 62, 0
4, 69840, Note_on_c, 0, 54, 0
4, 69840, Note_on_c, 0, 42, 0
4, 69840, Note_on_c, 0, 41, 81
4, 69840, Note_on_c, 0, 53, 81
4, 69960, Note_on_c, 0, 56, 79
4, 70079, Note_on_c, 0, 56, 0
4, 70079, Note_on_c, 0, 57, 82
4, 70200, Note_on_c, 0, 57, 0
4, 70200, Note_on_c, 0, 63, 106
4, 70200, Note_on_c, 0, 69, 106
4, 70320, Note_on_c, 0, 69, 0
4, 70320, Note_on_c, 0, 63, 0
4, 70320, Note_on_c, 0, 59, 79
4, 70439, Note_on_c, 0, 59, 0
4, 70439, Note_on_c, 0, 61, 88
4, 70560, Note_on_c, 0, 61, 0
4, 70560, Note_on_c, 0, 53, 0
4, 70560, Note_on_c, 0, 41, 0
4, 70560, Note_on_c, 0, 34, 73
4, 70560, Note_on_c, 0, 46, 73
4, 70680, Note_on_c, 0, 52, 74
4, 70799, Note_on_c, 0, 52, 0
4, 70799, Note_on_c, 0, 53, 86
4, 70920, Note_on_c, 0, 53, 0
4, 70920, Note_on_c, 0, 62, 109
4, 70920, Note_on_c, 0, 65, 109
4, 71040, Note_on_c, 0, 65, 0
4, 71040, Note_on_c, 0, 62, 0
4, 71040, Note_on_c, 0, 57, 75
4, 71159, Note_on_c, 0, 57, 0
4, 71159, Note_on_c, 0, 58, 91
4, 71280, Note_on_c, 0, 58, 0
4, 71280, Note_on_c, 0, 46, 0
4, 71280, Note_on_c, 0, 34, 0
4, 71280, Note_on_c, 0, 46, 82
4, 71400, Note_on_c, 0, 53, 78
4, 71519, Note_on_c, 0, 53, 0
4, 71519, Note_on_c, 0, 54, 86
4, 71640, Note_on_c, 0, 54, 0
4, 71640, Note_on_c, 0, 62, 106
4, 71640, Note_on_c, 0, 66, 106
4, 71760, Note_on_c, 0, 66, 0
4, 71760, Note_on_c, 0, 62, 0
4, 71760, Note_on_c, 0, 57, 81
4, 71879, Note_on_c, 0, 57, 0
4, 71879, Note_on_c, 0, 58, 84
4, 72000, Note_on_c, 0, 58, 0
4, 72000, Note_on_c, 0, 46, 0
4, 72000, Note_on_c, 0, 34, 86
4, 72000, Note_on_c, 0, 46, 86
4, 72120, Note_on_c, 0, 54, 73
4, 72239, Note_on_c, 0, 54, 0
4, 72239, Note_on_c, 0, 55, 85
4, 72360, Note_on_c, 0, 55, 0
4, 72360, Note_on_c, 0, 62, 107
4, 72360, Note_on_c, 0, 67, 107
4, 72480, Note_on_c, 0, 67, 0
4, 72480, Note_on_c, 0, 62, 0
4, 72480, Note_on_c, 0, 57, 75
4, 72599, Note_on_c, 0, 57, 0
4, 72599, Note_on_c, 0, 58, 86
4, 72720, Note_on_c, 0, 58, 0
4, 72720, Note_on_c, 0, 46, 0
4, 72720, Note_on_c, 0, 34, 0
4, 72720, Note_on_c, 0, 35, 85
4, 72720, Note_on_c, 0, 47, 85
4, 72840, Note_on_c, 0, 55, 77
4, 72959, Note_on_c, 0, 55, 0
4, 72959, Note_on_c, 0, 56, 86
4, 73080, Note_on_c, 0, 56, 0
4, 73080, Note_on_c, 0, 65, 106
4, 73080, Note_on_c, 0, 68, 106
4, 73200, Note_on_c, 0, 68, 0
4, 73200, Note_on_c, 0, 65, 0
4, 73200, Note_on_c, 0, 61, 68
4, 73319, Note_on_c, 0, 61, 0
4, 73319, Note_on_c, 0, 62, 86
4, 73440, Note_on_c, 0, 62, 0
4, 73440, Note_on_c, 0, 47, 0
4, 73440, Note_on_c, 0, 35, 0
4, 73440, Note_on_c, 0, 36, 85
4, 73440, Note_on_c, 0, 48, 85
4, 73560, Note_on_c, 0, 54, 78
4, 73679, Note_on_c, 0, 54, 0
4, 73679, Note_on_c, 0, 55, 85
4, 73800, Note_on_c, 0, 55, 0
4, 73800, Note_on_c, 0, 63, 112
4, 73800, Note_on_c, 0, 67, 112
4, 73920, Note_on_c, 0, 67, 0
4, 73920, Note_on_c, 0, 63, 0
4, 73920, Note_on_c, 0, 59, 79
4, 74039, Note_on_c, 0, 59, 0
4, 74039, Note_on_c, 0, 60, 83
4, 74160, Note_on_c, 0, 60, 0
4, 74160, Note_on_c, 0, 48, 0
4, 74160, Note_on_c, 0, 36, 0
4, 74160, Note_on_c, 0, 39, 83
4, 74160, Note_on_c, 0, 51, 83
4, 74280, Note_on_c, 0, 59, 73
4, 74399, Note_on_c, 0, 59, 0
4, 74399, Note_on_c, 0, 60, 86
4, 74520, Note_on_c, 0, 60, 0
4, 74520, Note_on_c, 0, 67, 107
4, 74520, Note_on_c, 0, 72, 107
4, 74640, Note_on_c, 0, 72, 0
4, 74640, Note_on_c, 0, 67, 0
4, 74640, Note_on_c, 0, 62, 66
4, 74759, Note_on_c, 0, 62, 0
4, 74759, Note_on_c, 0, 63, 87
4, 74880, Note_on_c, 0, 63, 0
4, 74880, Note_on_c, 0, 51, 0
4, 74880, Note_on_c, 0, 39, 0
4, 74880, Note_on_c, 0, 41, 76
4, 74880, Note_on_c, 0, 48, 76
4, 75000, Note_on_c, 0, 56, 75
4, 75119, Note_on_c, 0, 56, 0
4, 75119, Note_on_c, 0, 57, 81
4, 75240, Note_on_c, 0, 57, 0
4, 75240, Note_on_c, 0, 63, 99
4, 75240, Note_on_c, 0, 67, 99
4, 75360, Note_on_c, 0, 67, 0
4, 75360, Note_on_c, 0, 63, 0
4, 75360, Note_on_c, 0, 56, 77
4, 75479, Note_on_c, 0, 56, 0
4, 75479, Note_on_c, 0, 57, 83
4, 75600, Note_on_c, 0, 57, 0
4, 75600, Note_on_c, 0, 48, 0
4, 75600, Note_on_c, 0, 41, 0
4, 75600, Note_on_c, 0, 41, 80
4, 75720, Note_on_c, 0, 56, 73
4, 75839, Note_on_c, 0, 56, 0
4, 75839, Note_on_c, 0, 57, 83
4, 75960, Note_on_c, 0, 57, 0
4, 75960, Note_on_c, 0, 63, 97
4, 75960, Note_on_c, 0, 65, 97
4, 76080, Note_on_c, 0, 65, 0
4, 76080, Note_on_c, 0, 63, 0
4, 76080, Note_on_c, 0, 59, 79
4, 76199, Note_on_c, 0, 59, 0
4, 76199, Note_on_c, 0, 60, 84
4, 76320, Note_on_c, 0, 60, 0
4, 76320, Note_on_c, 0, 41, 0
4, 76320, Note_on_c, 0, 42, 83
4, 76440, Note_on_c, 0, 57, 73
4, 76559, Note_on_c, 0, 57, 0
4, 76559, Note_on_c, 0, 58, 83
4, 76680, Note_on_c, 0, 58, 0
4, 76680, Note_on_c, 0, 63, 103
4, 76680, Note_on_c, 0, 70, 103
4, 76800, Note_on_c, 0, 70, 0
4, 76800, Note_on_c, 0, 63, 0
4, 76800, Note_on_c, 0, 57, 83
4, 76919, Note_on_c, 0, 57, 0
4, 76919, Note_on_c, 0, 58, 86
4, 77040, Note_on_c, 0, 58, 0
4, 77040, Note_on_c, 0, 42, 0
4, 77040, Note_on_c, 0, 48, 90
4, 77160, Note_on_c, 0, 57, 77
4, 77279, Note_on_c, 0, 57, 0
4, 77279, Note_on_c, 0, 58, 86
4, 77400, Note_on_c, 0, 58, 0
4, 77400, Note_on_c, 0, 63, 107
4, 77400, Note_on_c, 0, 70, 107
4, 77520, Note_on_c, 0, 70, 0
4, 77520, Note_on_c, 0, 63, 0
4, 77520, Note_on_c, 0, 57, 76
4, 77639, Note_on_c, 0, 57, 0
4, 77639, Note_on_c, 0, 58, 83
4, 77760, Note_on_c, 0, 58, 0
4, 77760, Note_on_c, 0, 48, 0
4, 77760, Note_on_c, 0, 41, 85
4, 77760, Note_on_c, 0, 48, 85
4, 77880, Note_on_c, 0, 56, 77
4, 77999, Note_on_c, 0, 56, 0
4, 77999, Note_on_c, 0, 57, 85
4, 78120, Note_on_c, 0, 57, 0
4, 78120, Note_on_c, 0, 63, 105
4, 78120, Note_on_c, 0, 69, 105
4, 78240, Note_on_c, 0, 69, 0
4, 78240, Note_on_c, 0, 63, 0
4, 78240, Note_on_c, 0, 59, 76
4, 78359, Note_on_c, 0, 59, 0
4, 78359, Note_on_c, 0, 60, 89
4, 78480, Note_on_c, 0, 60, 0
4, 78480, Note_on_c, 0, 48, 0
4, 78480, Note_on_c, 0, 41, 0
4, 78480, Note_on_c, 0, 60, 105
4, 78600, Note_on_c, 0, 68, 72
4, 78719, Note_on_c, 0, 68, 0
4, 78719, Note_on_c, 0, 69, 86
4, 78840, Note_on_c, 0, 69, 0
4, 78840, Note_on_c, 0, 75, 109
4, 78840, Note_on_c, 0, 81, 109
4, 78960, Note_on_c, 0, 81, 0
4, 78960, Note_on_c, 0, 75, 0
4, 78960, Note_on_c, 0, 71, 65
4, 79079, Note_on_c, 0, 71, 0
4, 79079, Note_on_c, 0, 72, 87
4, 79200, Note_on_c, 0, 72, 0
4, 79200, Note_on_c, 0, 60, 0
4, 79200, Note_on_c, 0, 42, 75
4, 79320, Note_on_c, 0, 57, 76
4, 79439, Note_on_c, 0, 57, 0
4, 79439, Note_on_c, 0, 58, 84
4, 79560, Note_on_c, 0, 58, 0
4, 79560, Note_on_c, 0, 63, 106
4, 79560, Note_on_c, 0, 70, 106
4, 79680, Note_on_c, 0, 70, 0
4, 79680, Note_on_c, 0, 63, 0
4, 79680, Note_on_c, 0, 57, 76
4, 79799, Note_on_c, 0, 57, 0
4, 79799, Note_on_c, 0, 58, 84
4, 79920, Note_on_c, 0, 58, 0
4, 79920, Note_on_c, 0, 42, 0
4, 79920, Note_on_c, 0, 48, 88
4, 80040, Note_on_c, 0, 57, 76
4, 80159, Note_on_c, 0, 57, 0
4, 80159, Note_on_c, 0, 58, 88
4, 80280, Note_on_c, 0, 58, 0
4, 80280, Note_on_c, 0, 63, 108
4, 80280, Note_on_c, 0, 70, 108
4, 80400, Note_on_c, 0, 70, 0
4, 80400, Note_on_c, 0, 63, 0
4, 80400, Note_on_c, 0, 57, 79
4, 80519, Note_on_c, 0, 57, 0
4, 80519, Note_on_c, 0, 58, 83
4, 80640, Note_on_c, 0, 58, 0
4, 80640, Note_on_c, 0, 48, 0
4, 80640, Note_on_c, 0, 41, 84
4, 80640, Note_on_c, 0, 48, 84
4, 80760, Note_on_c, 0, 56, 75
4, 80879, Note_on_c, 0, 56, 0
4, 80879, Note_on_c, 0, 57, 85
4, 81000, Note_on_c, 0, 57, 0
4, 81000, Note_on_c, 0, 63, 106
4, 81000, Note_on_c, 0, 69, 106
4, 81120, Note_on_c, 0, 69, 0
4, 81120, Note_on_c, 0, 63, 0
4, 81120, Note_on_c, 0, 59, 75
4, 81239, Note_on_c, 0, 59, 0
4, 81239, Note_on_c, 0, 60, 88
4, 81360, Note_on_c, 0, 60, 0
4, 81360, Note_on_c, 0, 48, 0
4, 81360, Note_on_c, 0, 41, 0
4, 81360, Note_on_c, 0, 60, 105
4, 81480, Note_on_c, 0, 68, 76
4, 81599, Note_on_c, 0, 68, 0
4, 81599, Note_on_c, 0, 69, 86
4, 81720, Note_on_c, 0, 69, 0
4, 81720, Note_on_c, 0, 75, 105
4, 81720, Note_on_c, 0, 81, 105
4, 81840, Note_on_c, 0, 81, 0
4, 81840, Note_on_c, 0, 75, 0
4, 81840, Note_on_c, 0, 71, 70
4, 81959, Note_on_c, 0, 71, 0
4, 81959, Note_on_c, 0, 72, 86
4, 82080, Note_on_c, 0, 72, 0
4, 82080, Note_on_c, 0, 60, 0
4, 82080, Note_on_c, 0, 44, 76
4, 82200, Note_on_c, 0, 59, 71
4, 82319, Note_on_c, 0, 59, 0
4, 82319, Note_on_c, 0, 60, 88
4, 82440, Note_on_c, 0, 60, 0
4, 82440, Note_on_c, 0, 65, 106
4, 82440, Note_on_c, 0, 72, 106
4, 82560, Note_on_c, 0, 72, 0
4, 82560, Note_on_c, 0, 65, 0
4, 82560, Note_on_c, 0, 59, 77
4, 82679, Note_on_c, 0, 59, 0
4, 82679, Note_on_c, 0, 60, 87
4, 82800, Note_on_c, 0, 60, 0
4, 82800, Note_on_c, 0, 44, 0
4, 82800, Note_on_c, 0, 50, 91
4, 82920, Note_on_c, 0, 59, 79
4, 83039, Note_on_c, 0, 59, 0
4, 83039, Note_on_c, 0, 60, 83
4, 83160, Note_on_c, 0, 60, 0
4, 83160, Note_on_c, 0, 65, 104
4, 83160, Note_on_c, 0, 72, 104
4, 83280, Note_on_c, 0, 72, 0
4, 83280, Note_on_c, 0, 65, 0
4, 83280, Note_on_c, 0, 59, 81
4, 83399, Note_on_c, 0, 59, 0
4, 83399, Note_on_c, 0, 60, 84
4, 83520, Note_on_c, 0, 60, 0
4, 83520, Note_on_c, 0, 50, 0
4, 83520, Note_on_c, 0, 43, 84
4, 83520, Note_on_c, 0, 50, 84
4, 83640, Note_on_c, 0, 58, 79
4, 83759, Note_on_c, 0, 58, 0
4, 83759, Note_on_c, 0, 59, 84
4, 83880, Note_on_c, 0, 59, 0
4, 83880, Note_on_c, 0, 65, 108
4, 83880, Note_on_c, 0, 71, 108
4, 84000, Note_on_c, 0, 71, 0
4, 84000, Note_on_c, 0, 65, 0
4, 84000, Note_on_c, 0, 61, 64
4, 84119, Note_on_c, 0, 61, 0
4, 84119, Note_on_c, 0, 62, 90
4, 84240, Note_on_c, 0, 62, 0
4, 84240, Note_on_c, 0, 50, 0
4, 84240, Note_on_c, 0, 43, 0
4, 84240, Note_on_c, 0, 62, 105
4, 84360, Note_on_c, 0, 70, 71
4, 84479, Note_on_c, 0, 70, 0
4, 84479, Note_on_c, 0, 71, 88
4, 84600, Note_on_c, 0, 71, 0
4, 84600, Note_on_c, 0, 77, 102
4, 84600, Note_on_c, 0, 83, 102
4, 84720, Note_on_c, 0, 83, 0
4, 84720, Note_on_c, 0, 77, 0
4, 84720, Note_on_c, 0, 73, 66
4, 84839, Note_on_c, 0, 73, 0
4, 84839, Note_on_c, 0, 74, 85
4, 84960, Note_on_c, 0, 74, 0
4, 84960, Note_on_c, 0, 62, 0
4, 84960, Note_on_c, 0, 46, 71
4, 85080, Note_on_c, 0, 61, 75
4, 85199, Note_on_c, 0, 61, 0
4, 85199, Note_on_c, 0, 62, 88
4, 85320, Note_on_c, 0, 62, 0
4, 85320, Note_on_c, 0, 67, 107
4, 85320, Note_on_c, 0, 74, 107
4, 85440, Note_on_c, 0, 74, 0
4, 85440, Note_on_c, 0, 67, 0
4, 85440, Note_on_c, 0, 61, 65
4, 85559, Note_on_c, 0, 61, 0
4, 85559, Note_on_c, 0, 62, 90
4, 85680, Note_on_c, 0, 62, 0
4, 85680, Note_on_c, 0, 46, 0
4, 85680, Note_on_c, 0, 52, 89
4, 85800, Note_on_c, 0, 61, 72
4, 85919, Note_on_c, 0, 61, 0
4, 85919, Note_on_c, 0, 62, 83
4, 86040, Note_on_c, 0, 62, 0
4, 86040, Note_on_c, 0, 67, 106
4, 86040, Note_on_c, 0, 74, 106
4, 86160, Note_on_c, 0, 74, 0
4, 86160, Note_on_c, 0, 67, 0
4, 86160, Note_on_c, 0, 61, 63
4, 86279, Note_on_c, 0, 61, 0
4, 86279, Note_on_c, 0, 62, 84
4, 86400, Note_on_c, 0, 62, 0
4, 86400, Note_on_c, 0, 52, 0
4, 86400, Note_on_c, 0, 45, 81
4, 86400, Note_on_c, 0, 52, 81
4, 86520, Note_on_c, 0, 60, 73
4, 86639, Note_on_c, 0, 60, 0
4, 86639, Note_on_c, 0, 61, 82
4, 86760, Note_on_c, 0, 61, 0
4, 86760, Note_on_c, 0, 67, 106
4, 86760, Note_on_c, 0, 73, 106
4, 86880, Note_on_c, 0, 73, 0
4, 86880, Note_on_c, 0, 67, 0
4, 86880, Note_on_c, 0, 60, 63
4, 86999, Note_on_c, 0, 60, 0
4, 86999, Note_on_c, 0, 61, 82
4, 87120, Note_on_c, 0, 61, 0
4, 87120, Note_on_c, 0, 52, 0
4, 87120, Note_on_c, 0, 45, 0
4, 87120, Note_on_c, 0, 58, 91
4, 87240, Note_on_c, 0, 61, 77
4, 87359, Note_on_c, 0, 61, 0
4, 87359, Note_on_c, 0, 62, 82
4, 87480, Note_on_c, 0, 62, 0
4, 87480, Note_on_c, 0, 67, 106
4, 87480, Note_on_c, 0, 74, 106
4, 87600, Note_on_c, 0, 74, 0
4, 87600, Note_on_c, 0, 67, 0
4, 87600, Note_on_c, 0, 61, 62
4, 87719, Note_on_c, 0, 61, 0
4, 87719, Note_on_c, 0, 62, 83
4, 87840, Note_on_c, 0, 62, 0
4, 87840, Note_on_c, 0, 58, 0
4, 87840, Note_on_c, 0, 45, 81
4, 87840, Note_on_c, 0, 52, 81
4, 87960, Note_on_c, 0, 60, 75
4, 88079, Note_on_c, 0, 60, 0
4, 88079, Note_on_c, 0, 61, 90
4, 88200, Note_on_c, 0, 61, 0
4, 88200, Note_on_c, 0, 67, 104
4, 88200, Note_on_c, 0, 73, 104
4, 88320, Note_on_c, 0, 73, 0
4, 88320, Note_on_c, 0, 67, 0
4, 88320, Note_on_c, 0, 60, 67
4, 88439, Note_on_c, 0, 60, 0
4, 88439, Note_on_c, 0, 61, 87
4, 88560, Note_on_c, 0, 61, 0
4, 88560, Note_on_c, 0, 52, 0
4, 88560, Note_on_c, 0, 45, 0
4, 88560, Note_on_c, 0, 58, 87
4, 88680, Note_on_c, 0, 61, 76
4, 88799, Note_on_c, 0, 61, 0
4, 88799, Note_on_c, 0, 62, 86
4, 88920, Note_on_c, 0, 62, 0
4, 88920, Note_on_c, 0, 67, 106
4, 88920, Note_on_c, 0, 74, 106
4, 89040, Note_on_c, 0, 74, 0
4, 89040, Note_on_c, 0, 67, 0
4, 89040, Note_on_c, 0, 61, 60
4, 89159, Note_on_c, 0, 61, 0
4, 89159, Note_on_c, 0, 62, 83
4, 89280, Note_on_c, 0, 62, 0
4, 89280, Note_on_c, 0, 58, 0
4, 89280, Note_on_c, 0, 45, 83
4, 89280, Note_on_c, 0, 52, 83
4, 89400, Note_on_c, 0, 60, 84
4, 89519, Note_on_c, 0, 60, 0
4, 89519, Note_on_c, 0, 61, 85
4, 89640, Note_on_c, 0, 61, 0
4, 89640, Note_on_c, 0, 67, 86
4, 89640, Note_on_c, 0, 73, 86
4, 89760, Note_on_c, 0, 73, 0
4, 89760, Note_on_c, 0, 67, 0
4, 89760, Note_on_c, 0, 60, 88
4, 89879, Note_on_c, 0, 60, 0
4, 89879, Note_on_c, 0, 61, 89
4, 90000, Note_on_c, 0, 61, 0
4, 90000, Note_on_c, 0, 52, 0
4, 90000, Note_on_c, 0, 45, 0
4, 90000, Note_on_c, 0, 41, 90
4, 90000, Note_on_c, 0, 53, 90
4, 90120, Note_on_c, 0, 59, 91
4, 90239, Note_on_c, 0, 59, 0
4, 90239, Note_on_c, 0, 60, 92
4, 90360, Note_on_c, 0, 60, 0
4, 90360, Note_on_c, 0, 69, 93
4, 90360, Note_on_c, 0, 72, 93
4, 90480, Note_on_c, 0, 72, 0
4, 90480, Note_on_c, 0, 69, 0
4, 90480, Note_on_c, 0, 62, 94
4, 90599, Note_on_c, 0, 62, 0
4, 90599, Note_on_c, 0, 63, 95
4, 90720, Note_on_c, 0, 63, 0
4, 90720, Note_on_c, 0, 53, 0
4, 90720, Note_on_c, 0, 41, 0
4, 90720, Note_on_c, 0, 34, 96
4, 90720, Note_on_c, 0, 46, 96
4, 90840, Note_on_c, 0, 52, 86
4, 90959, Note_on_c, 0, 52, 0
4, 90959, Note_on_c, 0, 53, 98
4, 91080, Note_on_c, 0, 53, 0
4, 91080, Note_on_c, 0, 62, 125
4, 91080, Note_on_c, 0, 65, 125
4, 91200, Note_on_c, 0, 65, 0
4, 91200, Note_on_c, 0, 62, 0
4, 91200, Note_on_c, 0, 57, 91
4, 91319, Note_on_c, 0, 57, 0
4, 91319, Note_on_c, 0, 58, 92
4, 91440, Note_on_c, 0, 58, 0
4, 91440, Note_on_c, 0, 46, 0
4, 91440, Note_on_c, 0, 34, 0
4, 91440, Note_on_c, 0, 46, 96
4, 91560, Note_on_c, 0, 53, 88
4, 91679, Note_on_c, 0, 53, 0
4, 91679, Note_on_c, 0, 54, 101
4, 91800, Note_on_c, 0, 54, 0
4, 91800, Note_on_c, 0, 62, 126
4, 91800, Note_on_c, 0, 66, 126
4, 91920, Note_on_c, 0, 66, 0
4, 91920, Note_on_c, 0, 62, 0
4, 91920, Note_on_c, 0, 57, 88
4, 92039, Note_on_c, 0, 57, 0
4, 92039, Note_on_c, 0, 58, 97
4, 92160, Note_on_c, 0, 58, 0
4, 92160, Note_on_c, 0, 46, 0
4, 92160, Note_on_c, 0, 34, 96
4, 92160, Note_on_c, 0, 46, 96
4, 92280, Note_on_c, 0, 54, 83
4, 92399, Note_on_c, 0, 54, 0
4, 92399, Note_on_c, 0, 55, 99
4, 92520, Note_on_c, 0, 55, 0
4, 92520, Note_on_c, 0, 62, 124
4, 92520, Note_on_c, 0, 67, 124
4, 92640, Note_on_c, 0, 67, 0
4, 92640, Note_on_c, 0, 62, 0
4, 92640, Note_on_c, 0, 57, 91
4, 92759, Note_on_c, 0, 57, 0
4, 92759, Note_on_c, 0, 58, 101
4, 92880, Note_on_c, 0, 58, 0
4, 92880, Note_on_c, 0, 46, 0
4, 92880, Note_on_c, 0, 34, 0
4, 92880, Note_on_c, 0, 35, 99
4, 92880, Note_on_c, 0, 47, 99
4, 93000, Note_on_c, 0, 55, 90
4, 93119, Note_on_c, 0, 55, 0
4, 93119, Note_on_c, 0, 56, 97
4, 93240, Note_on_c, 0, 56, 0
4, 93240, Note_on_c, 0, 65, 125
4, 93240, Note_on_c, 0, 68, 125
4, 93360, Note_on_c, 0, 68, 0
4, 93360, Note_on_c, 0, 65, 0
4, 93360, Note_on_c, 0, 61, 86
4, 93479, Note_on_c, 0, 61, 0
4, 93479, Note_on_c, 0, 62, 101
4, 93600, Note_on_c, 0, 62, 0
4, 93600, Note_on_c, 0, 47, 0
4, 93600, Note_on_c, 0, 35, 0
4, 93600, Note_on_c, 0, 36, 100
4, 93600, Note_on_c, 0, 48, 100
4, 93720, Note_on_c, 0, 54, 87
4, 93839, Note_on_c, 0, 54, 0
4, 93839, Note_on_c, 0, 55, 98
4, 93960, Note_on_c, 0, 55, 0
4, 93960, Note_on_c, 0, 63, 125
4, 93960, Note_on_c, 0, 67, 125
4, 94080, Note_on_c, 0, 67, 0
4, 94080, Note_on_c, 0, 63, 0
4, 94080, Note_on_c, 0, 59, 91
4, 94199, Note_on_c, 0, 59, 0
4, 94199, Note_on_c, 0, 60, 102
4, 94320, Note_on_c, 0, 60, 0
4, 94320, Note_on_c, 0, 48, 0
4, 94320, Note_on_c, 0, 36, 0
4, 94320, Note_on_c, 0, 39, 104
4, 94320, Note_on_c, 0, 51, 104
4, 94440, Note_on_c, 0, 59, 91
4, 94559, Note_on_c, 0, 59, 0
4, 94559, Note_on_c, 0, 60, 107
4, 94680, Note_on_c, 0, 60, 0
4, 94680, Note_on_c, 0, 67, 126
4, 94680, Note_on_c, 0, 72, 126
4, 94800, Note_on_c, 0, 72, 0
4, 94800, Note_on_c, 0, 67, 0
4, 94800, Note_on_c, 0, 62, 81
4, 94919, Note_on_c, 0, 62, 0
4, 94919, Note_on_c, 0, 63, 102
4, 95040, Note_on_c, 0, 63, 0
4, 95040, Note_on_c, 0, 51, 0
4, 95040, Note_on_c, 0, 39, 0
4, 95040, Note_on_c, 0, 42, 105
4, 95040, Note_on_c, 0, 54, 105
4, 95160, Note_on_c, 0, 56, 84
4, 95279, Note_on_c, 0, 56, 0
4, 95279, Note_on_c, 0, 57, 93
4, 95400, Note_on_c, 0, 57, 0
4, 95400, Note_on_c, 0, 66, 124
4, 95400, Note_on_c, 0, 69, 124
4, 95520, Note_on_c, 0, 69, 0
4, 95520, Note_on_c, 0, 66, 0
4, 95520, Note_on_c, 0, 61, 80
4, 95639, Note_on_c, 0, 61, 0
4, 95639, Note_on_c, 0, 62, 95
4, 95760, Note_on_c, 0, 62, 0
4, 95760, Note_on_c, 0, 54, 0
4, 95760, Note_on_c, 0, 42, 0
4, 95760, Note_on_c, 0, 41, 98
4, 95760, Note_on_c, 0, 53, 98
4, 95880, Note_on_c, 0, 56, 85
4, 95999, Note_on_c, 0, 56, 0
4, 95999, Note_on_c, 0, 57, 98
4, 96120, Note_on_c, 0, 57, 0
4, 96120, Note_on_c, 0, 63, 121
4, 96120, Note_on_c, 0, 69, 121
4, 96240, Note_on_c, 0, 69, 0
4, 96240, Note_on_c, 0, 63, 0
4, 96240, Note_on_c, 0, 59, 86
4, 96359, Note_on_c, 0, 59, 0
4, 96359, Note_on_c, 0, 60, 102
4, 96480, Note_on_c, 0, 60, 0
4, 96480, Note_on_c, 0, 53, 0
4, 96480, Note_on_c, 0, 41, 0
4, 96480, Note_on_c, 0, 34, 87
4, 96480, Note_on_c, 0, 46, 87
4, 96600, Note_on_c, 0, 52, 88
4, 96719, Note_on_c, 0, 52, 0
4, 96719, Note_on_c, 0, 53, 100
4, 96840, Note_on_c, 0, 53, 0
4, 96840, Note_on_c, 0, 62, 124
4, 96840, Note_on_c, 0, 65, 124
4, 96960, Note_on_c, 0, 65, 0
4, 96960, Note_on_c, 0, 62, 0
4, 96960, Note_on_c, 0, 57, 95
4, 97079, Note_on_c, 0, 57, 0
4, 97079, Note_on_c, 0, 58, 101
4, 97200, Note_on_c, 0, 58, 0
4, 97200, Note_on_c, 0, 46, 0
4, 97200, Note_on_c, 0, 34, 0
4, 97200, Note_on_c, 0, 46, 96
4, 97320, Note_on_c, 0, 53, 87
4, 97439, Note_on_c, 0, 53, 0
4, 97439, Note_on_c, 0, 54, 97
4, 97560, Note_on_c, 0, 54, 0
4, 97560, Note_on_c, 0, 62, 124
4, 97560, Note_on_c, 0, 66, 124
4, 97680, Note_on_c, 0, 66, 0
4, 97680, Note_on_c, 0, 62, 0
4, 97680, Note_on_c, 0, 57, 90
4, 97799, Note_on_c, 0, 57, 0
4, 97799, Note_on_c, 0, 58, 98
4, 97920, Note_on_c, 0, 58, 0
4, 97920, Note_on_c, 0, 46, 0
4, 97920, Note_on_c, 0, 34, 98
4, 97920, Note_on_c, 0, 46, 98
4, 98040, Note_on_c, 0, 54, 92
4, 98159, Note_on_c, 0, 54, 0
4, 98159, Note_on_c, 0, 55, 94
4, 98280, Note_on_c, 0, 55, 0
4, 98280, Note_on_c, 0, 62, 126
4, 98280, Note_on_c, 0, 67, 126
4, 98400, Note_on_c, 0, 67, 0
4, 98400, Note_on_c, 0, 62, 0
4, 98400, Note_on_c, 0, 57, 87
4, 98519, Note_on_c, 0, 57, 0
4, 98519, Note_on_c, 0, 58, 100
4, 98640, Note_on_c, 0, 58, 0
4, 98640, Note_on_c, 0, 46, 0
4, 98640, Note_on_c, 0, 34, 0
4, 98640, Note_on_c, 0, 35, 102
4, 98640, Note_on_c, 0, 47, 102
4, 98760, Note_on_c, 0, 55, 88
4, 98879, Note_on_c, 0, 55, 0
4, 98879, Note_on_c, 0, 56, 97
4, 99000, Note_on_c, 0, 56, 0
4, 99000, Note_on_c, 0, 65, 120
4, 99000, Note_on_c, 0, 68, 120
4, 99120, Note_on_c, 0, 68, 0
4, 99120, Note_on_c, 0, 65, 0
4, 99120, Note_on_c, 0, 61, 87
4, 99239, Note_on_c, 0, 61, 0
4, 99239, Note_on_c, 0, 62, 94
4, 99360, Note_on_c, 0, 62, 0
4, 99360, Note_on_c, 0, 47, 0
4, 99360, Note_on_c, 0, 35, 0
4, 99360, Note_on_c, 0, 75, 125
4, 99360, Note_on_c, 0, 36, 101
4, 99360, Note_on_c, 0, 48, 101
4, 99419, Note_on_c, 0, 75, 0
4, 99419, Note_on_c, 0, 79, 114
4, 99480, Note_on_c, 0, 79, 0
4, 99480, Note_on_c, 0, 74, 83
4, 99540, Note_on_c, 0, 74, 0
4, 99540, Note_on_c, 0, 48, 0
4, 99540, Note_on_c, 0, 36, 0
4, 99540, Note_on_c, 0, 72, 91
4, 99540, Note_on_c, 0, 55, 126
4, 99540, Note_on_c, 0, 60, 126
4, 99540, Note_on_c, 0, 63, 126
4, 99599, Note_on_c, 0, 72, 0
4, 99599, Note_on_c, 0, 75, 110
4, 99660, Note_on_c, 0, 75, 0
4, 99660, Note_on_c, 0, 70, 84
4, 99720, Note_on_c, 0, 70, 0
4, 99720, Note_on_c, 0, 68, 91
4, 99779, Note_on_c, 0, 68, 0
4, 99779, Note_on_c, 0, 72, 105
4, 99840, Note_on_c, 0, 72, 0
4, 99840, Note_on_c, 0, 67, 87
4, 99900, Note_on_c, 0, 67, 0
4, 99900, Note_on_c, 0, 63, 0
4, 99900, Note_on_c, 0, 60, 0
4, 99900, Note_on_c, 0, 55, 0
4, 99900, Note_on_c, 0, 65, 87
4, 99900, Note_on_c, 0, 55, 93
4, 99900, Note_on_c, 0, 60, 93
4, 99959, Note_on_c, 0, 65, 0
4, 99959, Note_on_c, 0, 68, 104
4, 100020, Note_on_c, 0, 68, 0
4, 100020, Note_on_c, 0, 63, 82
4, 100080, Note_on_c, 0, 63, 0
4, 100080, Note_on_c, 0, 60, 0
4, 100080, Note_on_c, 0, 55, 0
4, 100080, Note_on_c, 0, 62, 94
4, 100080, Note_on_c, 0, 43, 86
4, 100139, Note_on_c, 0, 62, 0
4, 100139, Note_on_c, 0, 65, 104
4, 100200, Note_on_c, 0, 65, 0
4, 100200, Note_on_c, 0, 60, 80
4, 100260, Note_on_c, 0, 60, 0
4, 100260, Note_on_c, 0, 43, 0
4, 100260, Note_on_c, 0, 59, 93
4, 100260, Note_on_c, 0, 53, 109
4, 100319, Note_on_c, 0, 59, 0
4, 100319, Note_on_c, 0, 62, 100
4, 100380, Note_on_c, 0, 62, 0
4, 100380, Note_on_c, 0, 56, 89
4, 100440, Note_on_c, 0, 56, 0
4, 100440, Note_on_c, 0, 55, 93
4, 100499, Note_on_c, 0, 55, 0
4, 100499, Note_on_c, 0, 59, 100
4, 100560, Note_on_c, 0, 59, 0
4, 100560, Note_on_c, 0, 53, 90
4, 100620, Note_on_c, 0, 53, 0
4, 100620, Note_on_c, 0, 53, 0
4, 100620, Note_on_c, 0, 51, 97
4, 100620, Note_on_c, 0, 43, 87
4, 100679, Note_on_c, 0, 51, 0
4, 100679, Note_on_c, 0, 55, 106
4, 100740, Note_on_c, 0, 55, 0
4, 100740, Note_on_c, 0, 50, 88
4, 100800, Note_on_c, 0, 50, 0
4, 100800, Note_on_c, 0, 43, 0
4, 100800, Note_on_c, 0, 75, 122
4, 100800, Note_on_c, 0, 36, 100
4, 100800, Note_on_c, 0, 48, 100
4, 100859, Note_on_c, 0, 75, 0
4, 100859, Note_on_c, 0, 79, 114
4, 100920, Note_on_c, 0, 79, 0
4, 100920, Note_on_c, 0, 74, 89
4, 100980, Note_on_c, 0, 74, 0
4, 100980, Note_on_c, 0, 48, 0
4, 100980, Note_on_c, 0, 36, 0
4, 100980, Note_on_c, 0, 72, 90
4, 100980, Note_on_c, 0, 55, 126
4, 100980, Note_on_c, 0, 60, 126
4, 100980, Note_on_c, 0, 63, 126
4, 101039, Note_on_c, 0, 72, 0
4, 101039, Note_on_c, 0, 75, 109
4, 101100, Note_on_c, 0, 75, 0
4, 101100, Note_on_c, 0, 70, 84
4, 101160, Note_on_c, 0, 70, 0
4, 101160, Note_on_c, 0, 68, 85
4, 101219, Note_on_c, 0, 68, 0
4, 101219, Note_on_c, 0, 72, 109
4, 101280, Note_on_c, 0, 72, 0
4, 101280, Note_on_c, 0, 67, 89
4, 101340, Note_on_c, 0, 67, 0
4, 101340, Note_on_c, 0, 63, 0
4, 101340, Note_on_c, 0, 60, 0
4, 101340, Note_on_c, 0, 55, 0
4, 101340, Note_on_c, 0, 65, 91
4, 101340, Note_on_c, 0, 55, 92
4, 101340, Note_on_c, 0, 60, 92
4, 101399, Note_on_c, 0, 65, 0
4, 101399, Note_on_c, 0, 68, 107
4, 101460, Note_on_c, 0, 68, 0
4, 101460, Note_on_c, 0, 63, 84
4, 101520, Note_on_c, 0, 63, 0
4, 101520, Note_on_c, 0, 60, 0
4, 101520, Note_on_c, 0, 55, 0
4, 101520, Note_on_c, 0, 64, 97
4, 101520, Note_on_c, 0, 45, 85
4, 101579, Note_on_c, 0, 64, 0
4, 101579, Note_on_c, 0, 67, 105
4, 101640, Note_on_c, 0, 67, 0
4, 101640, Note_on_c, 0, 62, 86
4, 101700, Note_on_c, 0, 62, 0
4, 101700, Note_on_c, 0, 45, 0
4, 101700, Note_on_c, 0, 61, 94
4, 101700, Note_on_c, 0, 55, 106
4, 101759, Note_on_c, 0, 61, 0
4, 101759, Note_on_c, 0, 64, 103
4, 101820, Note_on_c, 0, 64, 0
4, 101820, Note_on_c, 0, 58, 90
4, 101880, Note_on_c, 0, 58, 0
4, 101880, Note_on_c, 0, 57, 97
4, 101939, Note_on_c, 0, 57, 0
4, 101939, Note_on_c, 0, 61, 102
4, 102000, Note_on_c, 0, 61, 0
4, 102000, Note_on_c, 0, 55, 89
4, 102060, Note_on_c, 0, 55, 0
4, 102060, Note_on_c, 0, 55, 0
4, 102060, Note_on_c, 0, 53, 94
4, 102060, Note_on_c, 0, 45, 84
4, 102119, Note_on_c, 0, 53, 0
4, 102119, Note_on_c, 0, 57, 104
4, 102180, Note_on_c, 0, 57, 0
4, 102180, Note_on_c, 0, 52, 94
4, 102240, Note_on_c, 0, 52, 0
4, 102240, Note_on_c, 0, 45, 0
4, 102240, Note_on_c, 0, 77, 126
4, 102240, Note_on_c, 0, 38, 108
4, 102240, Note_on_c, 0, 50, 108
4, 102299, Note_on_c, 0, 77, 0
4, 102299, Note_on_c, 0, 81, 116
4, 102360, Note_on_c, 0, 81, 0
4, 102360, Note_on_c, 0, 76, 90
4, 102420, Note_on_c, 0, 76, 0
4, 102420, Note_on_c, 0, 50, 0
4, 102420, Note_on_c, 0, 38, 0
4, 102420, Note_on_c, 0, 74, 90
4, 102420, Note_on_c, 0, 57, 126
4, 102420, Note_on_c, 0, 62, 126
4, 102420, Note_on_c, 0, 65, 126
4, 102479, Note_on_c, 0, 74, 0
4, 102479, Note_on_c, 0, 77, 104
4, 102540, Note_on_c, 0, 77, 0
4, 102540, Note_on_c, 0, 72, 88
4, 102600, Note_on_c, 0, 72, 0
4, 102600, Note_on_c, 0, 70, 89
4, 102659, Note_on_c, 0, 70, 0
4, 102659, Note_on_c, 0, 74, 107
4, 102720, Note_on_c, 0, 74, 0
4, 102720, Note_on_c, 0, 69, 84
4, 102780, Note_on_c, 0, 69, 0
4, 102780, Note_on_c, 0, 65, 0
4, 102780, Note_on_c, 0, 62, 0
4, 102780, Note_on_c, 0, 57, 0
4, 102780, Note_on_c, 0, 67, 86
4, 102780, Note_on_c, 0, 57, 102
4, 102780, Note_on_c, 0, 62, 102
4, 102839, Note_on_c, 0, 67, 0
4, 102839, Note_on_c, 0, 70, 101
4, 102900, Note_on_c, 0, 70, 0
4, 102900, Note_on_c, 0, 65, 85
4, 102960, Note_on_c, 0, 65, 0
4, 102960, Note_on_c, 0, 62, 0
4, 102960, Note_on_c, 0, 57, 0
4, 102960, Note_on_c, 0, 64, 91
4, 102960, Note_on_c, 0, 45, 83
4, 103019, Note_on_c, 0, 64, 0
4, 103019, Note_on_c, 0, 67, 106
4, 103080, Note_on_c, 0, 67, 0
4, 103080, Note_on_c, 0, 62, 87
4, 103140, Note_on_c, 0, 62, 0
4, 103140, Note_on_c, 0, 45, 0
4, 103140, Note_on_c, 0, 61, 89
4, 103140, Note_on_c, 0, 55, 108
4, 103199, Note_on_c, 0, 61, 0
4, 103199, Note_on_c, 0, 64, 104
4, 103260, Note_on_c, 0, 64, 0
4, 103260, Note_on_c, 0, 58, 89
4, 103320, Note_on_c, 0, 58, 0
4, 103320, Note_on_c, 0, 57, 97
4, 103379, Note_on_c, 0, 57, 0
4, 103379, Note_on_c, 0, 61, 105
4, 103440, Note_on_c, 0, 61, 0
4, 103440, Note_on_c, 0, 55, 90
4, 103500, Note_on_c, 0, 55, 0
4, 103500, Note_on_c, 0, 55, 0
4, 103500, Note_on_c, 0, 53, 92
4, 103500, Note_on_c, 0, 45, 87
4, 103559, Note_on_c, 0, 53, 0
4, 103559, Note_on_c, 0, 57, 105
4, 103620, Note_on_c, 0, 57, 0
4, 103620, Note_on_c, 0, 52, 90
4, 103680, Note_on_c, 0, 52, 0
4, 103680, Note_on_c, 0, 45, 0
4, 103680, Note_on_c, 0, 77, 120
4, 103680, Note_on_c, 0, 38, 102
4, 103680, Note_on_c, 0, 50, 102
4, 103739, Note_on_c, 0, 77, 0
4, 103739, Note_on_c, 0, 81, 118
4, 103800, Note_on_c, 0, 81, 0
4, 103800, Note_on_c, 0, 76, 85
4, 103860, Note_on_c, 0, 76, 0
4, 103860, Note_on_c, 0, 50, 0
4, 103860, Note_on_c, 0, 38, 0
4, 103860, Note_on_c, 0, 74, 92
4, 103860, Note_on_c, 0, 57, 126
4, 103860, Note_on_c, 0, 62, 126
4, 103860, Note_on_c, 0, 65, 126
4, 103919, Note_on_c, 0, 74, 0
4, 103919, Note_on_c, 0, 77, 101
4, 103980, Note_on_c, 0, 77, 0
4, 103980, Note_on_c, 0, 72, 84
4, 104040, Note_on_c, 0, 72, 0
4, 104040, Note_on_c, 0, 70, 88
4, 104099, Note_on_c, 0, 70, 0
4, 104099, Note_on_c, 0, 74, 109
4, 104160, Note_on_c, 0, 74, 0
4, 104160, Note_on_c, 0, 69, 88
4, 104220, Note_on_c, 0, 69, 0
4, 104220, Note_on_c, 0, 65, 0
4, 104220, Note_on_c, 0, 62, 0
4, 104220, Note_on_c, 0, 57, 0
4, 104220, Note_on_c, 0, 67, 88
4, 104220, Note_on_c, 0, 57, 93
4, 104220, Note_on_c, 0, 62, 93
4, 104279, Note_on_c, 0, 67, 0
4, 104279, Note_on_c, 0, 70, 105
4, 104340, Note_on_c, 0, 70, 0
4, 104340, Note_on_c, 0, 65, 85
4, 104400, Note_on_c, 0, 65, 0
4, 104400, Note_on_c, 0, 62, 0
4, 104400, Note_on_c, 0, 57, 0
4, 104400, Note_on_c, 0, 65, 97
4, 104400, Note_on_c, 0, 46, 83
4, 104459, Note_on_c, 0, 65, 0
4, 104459, Note_on_c, 0, 68, 102
4, 104520, Note_on_c, 0, 68, 0
4, 104520, Note_on_c, 0, 63, 87
4, 104580, Note_on_c, 0, 63, 0
4, 104580, Note_on_c, 0, 46, 0
4, 104580, Note_on_c, 0, 62, 92
4, 104580, Note_on_c, 0, 56, 106
4, 104639, Note_on_c, 0, 62, 0
4, 104639, Note_on_c, 0, 65, 100
4, 104700, Note_on_c, 0, 65, 0
4, 104700, Note_on_c, 0, 60, 84
4, 104760, Note_on_c, 0, 60, 0
4, 104760, Note_on_c, 0, 58, 98
4, 104819, Note_on_c, 0, 58, 0
4, 104819, Note_on_c, 0, 62, 108
4, 104880, Note_on_c, 0, 62, 0
4, 104880, Note_on_c, 0, 56, 88
4, 104940, Note_on_c, 0, 56, 0
4, 104940, Note_on_c, 0, 56, 0
4, 104940, Note_on_c, 0, 55, 94
4, 104940, Note_on_c, 0, 46, 90
4, 104999, Note_on_c, 0, 55, 0
4, 104999, Note_on_c, 0, 58, 101
4, 105060, Note_on_c, 0, 58, 0
4, 105060, Note_on_c, 0, 53, 96
4, 105120, Note_on_c, 0, 53, 0
4, 105120, Note_on_c, 0, 46, 0
4, 105120, Note_on_c, 0, 79, 123
4, 105120, Note_on_c, 0, 39, 100
4, 105120, Note_on_c, 0, 51, 100
4, 105179, Note_on_c, 0, 79, 0
4, 105179, Note_on_c, 0, 82, 107
4, 105240, Note_on_c, 0, 82, 0
4, 105240, Note_on_c, 0, 77, 87
4, 105300, Note_on_c, 0, 77, 0
4, 105300, Note_on_c, 0, 51, 0
4, 105300, Note_on_c, 0, 39, 0
4, 105300, Note_on_c, 0, 75, 90
4, 105300, Note_on_c, 0, 58, 124
4, 105300, Note_on_c, 0, 63, 124
4, 105300, Note_on_c, 0, 67, 124
4, 105359, Note_on_c, 0, 75, 0
4, 105359, Note_on_c, 0, 79, 108
4, 105420, Note_on_c, 0, 79, 0
4, 105420, Note_on_c, 0, 74, 86
4, 105480, Note_on_c, 0, 74, 0
4, 105480, Note_on_c, 0, 72, 87
4, 105539, Note_on_c, 0, 72, 0
4, 105539, Note_on_c, 0, 75, 108
4, 105600, Note_on_c, 0, 75, 0
4, 105600, Note_on_c, 0, 70, 84
4, 105660, Note_on_c, 0, 70, 0
4, 105660, Note_on_c, 0, 67, 0
4, 105660, Note_on_c, 0, 63, 0
4, 105660, Note_on_c, 0, 58, 0
4, 105660, Note_on_c, 0, 68, 94
4, 105660, Note_on_c, 0, 58, 87
4, 105660, Note_on_c, 0, 63, 87
4, 105719, Note_on_c, 0, 68, 0
4, 105719, Note_on_c, 0, 72, 109
4, 105780, Note_on_c, 0, 72, 0
4, 105780, Note_on_c, 0, 67, 90
4, 105840, Note_on_c, 0, 67, 0
4, 105840, Note_on_c, 0, 63, 0
4, 105840, Note_on_c, 0, 58, 0
4, 105840, Note_on_c, 0, 67, 92
4, 105840, Note_on_c, 0, 48, 86
4, 105899, Note_on_c, 0, 67, 0
4, 105899, Note_on_c, 0, 70, 110
4, 105960, Note_on_c, 0, 70, 0
4, 105960, Note_on_c, 0, 65, 87
4, 106020, Note_on_c, 0, 65, 0
4, 106020, Note_on_c, 0, 48, 0
4, 106020, Note_on_c, 0, 64, 95
4, 106020, Note_on_c, 0, 58, 110
4, 106079, Note_on_c, 0, 64, 0
4, 106079, Note_on_c, 0, 67, 103
4, 106140, Note_on_c, 0, 67, 0
4, 106140, Note_on_c, 0, 61, 86
4, 106200, Note_on_c, 0, 61, 0
4, 106200, Note_on_c, 0, 60, 89
4, 106259, Note_on_c, 0, 60, 0
4, 106259, Note_on_c, 0, 64, 108
4, 106320, Note_on_c, 0, 64, 0
4, 106320, Note_on_c, 0, 58, 88
4, 106380, Note_on_c, 0, 58, 0
4, 106380, Note_on_c, 0, 58, 0
4, 106380, Note_on_c, 0, 56, 87
4, 106380, Note_on_c, 0, 48, 87
4, 106439, Note_on_c, 0, 56, 0
4, 106439, Note_on_c, 0, 60, 110
4, 106500, Note_on_c, 0, 60, 0
4, 106500, Note_on_c, 0, 55, 90
4, 106560, Note_on_c, 0, 55, 0
4, 106560, Note_on_c, 0, 48, 0
4, 106560, Note_on_c, 0, 80, 121
4, 106560, Note_on_c, 0, 41, 102
4, 106560, Note_on_c, 0, 53, 102
4, 106619, Note_on_c, 0, 80, 0
4, 106619, Note_on_c, 0, 84, 113
4, 106680, Note_on_c, 0, 84, 0
4, 106680, Note_on_c, 0, 79, 88
4, 106740, Note_on_c, 0, 79, 0
4, 106740, Note_on_c, 0, 53, 0
4, 106740, Note_on_c, 0, 41, 0
4, 106740, Note_on_c, 0, 77, 86
4, 106740, Note_on_c, 0, 60, 124
4, 106740, Note_on_c, 0, 65, 124
4, 106740, Note_on_c, 0, 68, 124
4, 106799, Note_on_c, 0, 77, 0
4, 106799, Note_on_c, 0, 80, 109
4, 106860, Note_on_c, 0, 80, 0
4, 106860, Note_on_c, 0, 75, 87
4, 106920, Note_on_c, 0, 75, 0
4, 106920, Note_on_c, 0, 73, 85
4, 106979, Note_on_c, 0, 73, 0
4, 106979, Note_on_c, 0, 77, 108
4, 107040, Note_on_c, 0, 77, 0
4, 107040, Note_on_c, 0, 72, 84
4, 107100, Note_on_c, 0, 72, 0
4, 107100, Note_on_c, 0, 68, 0
4, 107100, Note_on_c, 0, 65, 0
4, 107100, Note_on_c, 0, 60, 0
4, 107100, Note_on_c, 0, 70, 85
4, 107100, Note_on_c, 0, 60, 95
4, 107100, Note_on_c, 0, 65, 95
4, 107159, Note_on_c, 0, 70, 0
4, 107159, Note_on_c, 0, 72, 102
4, 107220, Note_on_c, 0, 72, 0
4, 107220, Note_on_c, 0, 68, 88
4, 107280, Note_on_c, 0, 68, 0
4, 107280, Note_on_c, 0, 65, 0
4, 107280, Note_on_c, 0, 60, 0
4, 107280, Note_on_c, 0, 67, 92
4, 107280, Note_on_c, 0, 41, 86
4, 107280, Note_on_c, 0, 53, 86
4, 107339, Note_on_c, 0, 67, 0
4, 107339, Note_on_c, 0, 68, 99
4, 107400, Note_on_c, 0, 68, 0
4, 107400, Note_on_c, 0, 65, 89
4, 107460, Note_on_c, 0, 65, 0
4, 107460, Note_on_c, 0, 63, 91
4, 107519, Note_on_c, 0, 63, 0
4, 107519, Note_on_c, 0, 65, 102
4, 107580, Note_on_c, 0, 65, 0
4, 107580, Note_on_c, 0, 61, 90
4, 107640, Note_on_c, 0, 61, 0
4, 107640, Note_on_c, 0, 60, 89
4, 107699, Note_on_c, 0, 60, 0
4, 107699, Note_on_c, 0, 61, 100
4, 107760, Note_on_c, 0, 61, 0
4, 107760, Note_on_c, 0, 58, 89
4, 107820, Note_on_c, 0, 58, 0
4, 107820, Note_on_c, 0, 53, 0
4, 107820, Note_on_c, 0, 41, 0
4, 107820, Note_on_c, 0, 55, 93
4, 107879, Note_on_c, 0, 55, 0
4, 107879, Note_on_c, 0, 57, 102
4, 107940, Note_on_c, 0, 57, 0
4, 107940, Note_on_c, 0, 53, 87
4, 108000, Note_on_c, 0, 53, 0
4, 108000, Note_on_c, 0, 29, 87
4, 108000, Note_on_c, 0, 41, 87
4, 108180, Note_on_c, 0, 41, 0
4, 108180, Note_on_c, 0, 29, 0
4, 108180, Note_on_c, 0, 72, 87
4, 108180, Note_on_c, 0, 74, 87
4, 108180, Note_on_c, 0, 80, 87
4, 108180, Note_on_c, 0, 84, 87
4, 108180, Note_on_c, 0, 86, 87
4, 108180, Note_on_c, 0, 48, 123
4, 108180, Note_on_c, 0, 53, 123
4, 108180, Note_on_c, 0, 56, 123
4, 108180, Note_on_c, 0, 60, 123
4, 108180, Note_on_c, 0, 62, 123
4, 108630, Note_on_c, 0, 62, 0
4, 108630, Note_on_c, 0, 80, 0
4, 108630, Note_on_c, 0, 84, 0
4, 108630, Note_on_c, 0, 72, 0
4, 108630, Note_on_c, 0, 86, 0
4, 108630, Note_on_c, 0, 74, 0
4, 108630, Note_on_c, 0, 56, 0
4, 108630, Note_on_c, 0, 53, 0
4, 108630, Note_on_c, 0, 48, 0
4, 108630, Note_on_c, 0, 60, 0
4, 108630, Note_on_c, 0, 72, 94
4, 108630, Note_on_c, 0, 74, 94
4, 108630, Note_on_c, 0, 80, 94
4, 108630, Note_on_c, 0, 84, 94
4, 108630, Note_on_c, 0, 48, 91
4, 108630, Note_on_c, 0, 53, 91
4, 108630, Note_on_c, 0, 56, 91
4, 108630, Note_on_c, 0, 60, 91
4, 108720, Note_on_c, 0, 60, 0
4, 108720, Note_on_c, 0, 72, 0
4, 108720, Note_on_c, 0, 48, 0
4, 108720, Note_on_c, 0, 74, 0
4, 108720, Note_on_c, 0, 80, 0
4, 108720, Note_on_c, 0, 84, 0
4, 108720, Note_on_c, 0, 53, 0
4, 108720, Note_on_c, 0, 56, 0
4, 108720, Note_on_c, 0, 72, 99
4, 108720, Note_on_c, 0, 74, 99
4, 108720, Note_on_c, 0, 80, 99
4, 108720, Note_on_c, 0, 84, 99
4, 108720, Note_on_c, 0, 48, 98
4, 108720, Note_on_c, 0, 53, 98
4, 108720, Note_on_c, 0, 56, 98
4, 108720, Note_on_c, 0, 60, 98
4, 108900, Note_on_c, 0, 60, 0
4, 108900, Note_on_c, 0, 72, 0
4, 108900, Note_on_c, 0, 48, 0
4, 108900, Note_on_c, 0, 74, 0
4, 108900, Note_on_c, 0, 80, 0
4, 108900, Note_on_c, 0, 84, 0
4, 108900, Note_on_c, 0, 53, 0
4, 108900, Note_on_c, 0, 56, 0
4, 108900, Note_on_c, 0, 65, 97
4, 108900, Note_on_c, 0, 77, 97
4, 108900, Note_on_c, 0, 53, 103
4, 109058, Note_on_c, 0, 53, 0
4, 109058, Note_on_c, 0, 77, 0
4, 109058, Note_on_c, 0, 65, 0
4, 109080, Note_on_c, 0, 67, 115
4, 109080, Note_on_c, 0, 79, 115
4, 109080, Note_on_c, 0, 55, 110
4, 109238, Note_on_c, 0, 55, 0
4, 109238, Note_on_c, 0, 79, 0
4, 109238, Note_on_c, 0, 67, 0
4, 109260, Note_on_c, 0, 68, 113
4, 109260, Note_on_c, 0, 80, 113
4, 109260, Note_on_c, 0, 56, 109
4, 109418, Note_on_c, 0, 56, 0
4, 109418, Note_on_c, 0, 80, 0
4, 109418, Note_on_c, 0, 68, 0
4, 109440, Note_on_c, 0, 72, 120
4, 109440, Note_on_c, 0, 74, 120
4, 109440, Note_on_c, 0, 80, 120
4, 109440, Note_on_c, 0, 84, 120
4, 109440, Note_on_c, 0, 86, 120
4, 109440, Note_on_c, 0, 29, 84
4, 109440, Note_on_c, 0, 41, 84
4, 109620, Note_on_c, 0, 41, 0
4, 109620, Note_on_c, 0, 29, 0
4, 109620, Note_on_c, 0, 48, 122
4, 109620, Note_on_c, 0, 53, 122
4, 109620, Note_on_c, 0, 56, 122
4, 109620, Note_on_c, 0, 60, 122
4, 109620, Note_on_c, 0, 62, 122
4, 110070, Note_on_c, 0, 62, 0
4, 110070, Note_on_c, 0, 80, 0
4, 110070, Note_on_c, 0, 84, 0
4, 110070, Note_on_c, 0, 72, 0
4, 110070, Note_on_c, 0, 74, 0
4, 110070, Note_on_c, 0, 86, 0
4, 110070, Note_on_c, 0, 56, 0
4, 110070, Note_on_c, 0, 53, 0
4, 110070, Note_on_c, 0, 48, 0
4, 110070, Note_on_c, 0, 60, 0
4, 110070, Note_on_c, 0, 72, 85
4, 110070, Note_on_c, 0, 74, 85
4, 110070, Note_on_c, 0, 80, 85
4, 110070, Note_on_c, 0, 84, 85
4, 110070, Note_on_c, 0, 48, 92
4, 110070, Note_on_c, 0, 53, 92
4, 110070, Note_on_c, 0, 56, 92
4, 110070, Note_on_c, 0, 60, 92
4, 110160, Note_on_c, 0, 60, 0
4, 110160, Note_on_c, 0, 72, 0
4, 110160, Note_on_c, 0, 48, 0
4, 110160, Note_on_c, 0, 74, 0
4, 110160, Note_on_c, 0, 80, 0
4, 110160, Note_on_c, 0, 84, 0
4, 110160, Note_on_c, 0, 53, 0
4, 110160, Note_on_c, 0, 56, 0
4, 110160, Note_on_c, 0, 72, 99
4, 110160, Note_on_c, 0, 74, 99
4, 110160, Note_on_c, 0, 80, 99
4, 110160, Note_on_c, 0, 84, 99
4, 110160, Note_on_c, 0, 48, 98
4, 110160, Note_on_c, 0, 53, 98
4, 110160, Note_on_c, 0, 56, 98
4, 110160, Note_on_c, 0, 60, 98
4, 110340, Note_on_c, 0, 60, 0
4, 110340, Note_on_c, 0, 72, 0
4, 110340, Note_on_c, 0, 48, 0
4, 110340, Note_on_c, 0, 74, 0
4, 110340, Note_on_c, 0, 80, 0
4, 110340, Note_on_c, 0, 84, 0
4, 110340, Note_on_c, 0, 53, 0
4, 110340, Note_on_c, 0, 56, 0
4, 110340, Note_on_c, 0, 60, 68
4, 110340, Note_on_c, 0, 48, 84
4, 110385, Note_on_c, 0, 48, 0
4, 110385, Note_on_c, 0, 60, 0
4, 110385, Note_on_c, 0, 58, 90
4, 110385, Note_on_c, 0, 46, 92
4, 110430, Note_on_c, 0, 46, 0
4, 110430, Note_on_c, 0, 58, 0
4, 110430, Note_on_c, 0, 56, 94
4, 110430, Note_on_c, 0, 44, 94
4, 110475, Note_on_c, 0, 44, 0
4, 110475, Note_on_c, 0, 56, 0
4, 110475, Note_on_c, 0, 55, 99
4, 110475, Note_on_c, 0, 43, 95
4, 110520, Note_on_c, 0, 43, 0
4, 110520, Note_on_c, 0, 55, 0
4, 110520, Note_on_c, 0, 53, 92
4, 110520, Note_on_c, 0, 41, 98
4, 110565, Note_on_c, 0, 41, 0
4, 110565, Note_on_c, 0, 53, 0
4, 110565, Note_on_c, 0, 51, 94
4, 110565, Note_on_c, 0, 39, 91
4, 110610, Note_on_c, 0, 39, 0
4, 110610, Note_on_c, 0, 51, 0
4, 110610, Note_on_c, 0, 50, 94
4, 110610, Note_on_c, 0, 38, 95
4, 110655, Note_on_c, 0, 38, 0
4, 110655, Note_on_c, 0, 50, 0
4, 110655, Note_on_c, 0, 48, 88
4, 110655, Note_on_c, 0, 36, 98
4, 110700, Note_on_c, 0, 36, 0
4, 110700, Note_on_c, 0, 48, 0
4, 110700, Note_on_c, 0, 46, 96
4, 110700, Note_on_c, 0, 34, 95
4, 110745, Note_on_c, 0, 34, 0
4, 110745, Note_on_c, 0, 46, 0
4, 110745, Note_on_c, 0, 45, 99
4, 110745, Note_on_c, 0, 33, 94
4, 110790, Note_on_c, 0, 33, 0
4, 110790, Note_on_c, 0, 45, 0
4, 110790, Note_on_c, 0, 44, 92
4, 110790, Note_on_c, 0, 32, 92
4, 110835, Note_on_c, 0, 32, 0
4, 110835, Note_on_c, 0, 44, 0
4, 110835, Note_on_c, 0, 43, 92
4, 110835, Note_on_c, 0, 31, 96
4, 110880, Note_on_c, 0, 31, 0
4, 110880, Note_on_c, 0, 43, 0
4, 110880, Note_on_c, 0, 30, 111
4, 110880, Note_on_c, 0, 42, 111
4, 111060, Note_on_c, 0, 42, 0
4, 111060, Note_on_c, 0, 30, 0
4, 111060, Note_on_c, 0, 75, 89
4, 111060, Note_on_c, 0, 80, 89
4, 111060, Note_on_c, 0, 84, 89
4, 111060, Note_on_c, 0, 87, 89
4, 111060, Note_on_c, 0, 51, 126
4, 111060, Note_on_c, 0, 56, 126
4, 111060, Note_on_c, 0, 60, 126
4, 111060, Note_on_c, 0, 63, 126
4, 111510, Note_on_c, 0, 63, 0
4, 111510, Note_on_c, 0, 75, 0
4, 111510, Note_on_c, 0, 51, 0
4, 111510, Note_on_c, 0, 80, 0
4, 111510, Note_on_c, 0, 84, 0
4, 111510, Note_on_c, 0, 87, 0
4, 111510, Note_on_c, 0, 56, 0
4, 111510, Note_on_c, 0, 60, 0
4, 111510, Note_on_c, 0, 72, 88
4, 111510, Note_on_c, 0, 75, 88
4, 111510, Note_on_c, 0, 80, 88
4, 111510, Note_on_c, 0, 84, 88
4, 111510, Note_on_c, 0, 48, 92
4, 111510, Note_on_c, 0, 51, 92
4, 111510, Note_on_c, 0, 56, 92
4, 111510, Note_on_c, 0, 60, 92
4, 111600, Note_on_c, 0, 60, 0
4, 111600, Note_on_c, 0, 72, 0
4, 111600, Note_on_c, 0, 48, 0
4, 111600, Note_on_c, 0, 75, 0
4, 111600, Note_on_c, 0, 80, 0
4, 111600, Note_on_c, 0, 84, 0
4, 111600, Note_on_c, 0, 51, 0
4, 111600, Note_on_c, 0, 56, 0
4, 111600, Note_on_c, 0, 72, 94
4, 111600, Note_on_c, 0, 75, 94
4, 111600, Note_on_c, 0, 80, 94
4, 111600, Note_on_c, 0, 84, 94
4, 111600, Note_on_c, 0, 48, 91
4, 111600, Note_on_c, 0, 51, 91
4, 111600, Note_on_c, 0, 56, 91
4, 111600, Note_on_c, 0, 60, 91
4, 111780, Note_on_c, 0, 60, 0
4, 111780, Note_on_c, 0, 72, 0
4, 111780, Note_on_c, 0, 48, 0
4, 111780, Note_on_c, 0, 75, 0
4, 111780, Note_on_c, 0, 80, 0
4, 111780, Note_on_c, 0, 84, 0
4, 111780, Note_on_c, 0, 51, 0
4, 111780, Note_on_c, 0, 56, 0
4, 111780, Note_on_c, 0, 68, 99
4, 111780, Note_on_c, 0, 80, 99
4, 111780, Note_on_c, 0, 56, 105
4, 111938, Note_on_c, 0, 56, 0
4, 111938, Note_on_c, 0, 80, 0
4, 111938, Note_on_c, 0, 68, 0
4, 111960, Note_on_c, 0, 70, 116
4, 111960, Note_on_c, 0, 82, 116
4, 111960, Note_on_c, 0, 58, 112
4, 112118, Note_on_c, 0, 58, 0
4, 112118, Note_on_c, 0, 82, 0
4, 112118, Note_on_c, 0, 70, 0
4, 112140, Note_on_c, 0, 72, 116
4, 112140, Note_on_c, 0, 84, 116
4, 112140, Note_on_c, 0, 60, 113
4, 112298, Note_on_c, 0, 60, 0
4, 112298, Note_on_c, 0, 84, 0
4, 112298, Note_on_c, 0, 72, 0
4, 112320, Note_on_c, 0, 75, 116
4, 112320, Note_on_c, 0, 80, 116
4, 112320, Note_on_c, 0, 84, 116
4, 112320, Note_on_c, 0, 87, 116
4, 112320, Note_on_c, 0, 30, 85
4, 112320, Note_on_c, 0, 42, 85
4, 112500, Note_on_c, 0, 42, 0
4, 112500, Note_on_c, 0, 30, 0
4, 112500, Note_on_c, 0, 51, 126
4, 112500, Note_on_c, 0, 56, 126
4, 112500, Note_on_c, 0, 60, 126
4, 112500, Note_on_c, 0, 63, 126
4, 112950, Note_on_c, 0, 63, 0
4, 112950, Note_on_c, 0, 75, 0
4, 112950, Note_on_c, 0, 51, 0
4, 112950, Note_on_c, 0, 80, 0
4, 112950, Note_on_c, 0, 87, 0
4, 112950, Note_on_c, 0, 84, 0
4, 112950, Note_on_c, 0, 56, 0
4, 112950, Note_on_c, 0, 60, 0
4, 112950, Note_on_c, 0, 72, 91
4, 112950, Note_on_c, 0, 75, 91
4, 112950, Note_on_c, 0, 80, 91
4, 112950, Note_on_c, 0, 84, 91
4, 112950, Note_on_c, 0, 48, 91
4, 112950, Note_on_c, 0, 51, 91
4, 112950, Note_on_c, 0, 56, 91
4, 112950, Note_on_c, 0, 60, 91
4, 113040, Note_on_c, 0, 60, 0
4, 113040, Note_on_c, 0, 72, 0
4, 113040, Note_on_c, 0, 48, 0
4, 113040, Note_on_c, 0, 75, 0
4, 113040, Note_on_c, 0, 80, 0
4, 113040, Note_on_c, 0, 84, 0
4, 113040, Note_on_c, 0, 51, 0
4, 113040, Note_on_c, 0, 56, 0
4, 113040, Note_on_c, 0, 72, 93
4, 113040, Note_on_c, 0, 75, 93
4, 113040, Note_on_c, 0, 80, 93
4, 113040, Note_on_c, 0, 84, 93
4, 113040, Note_on_c, 0, 48, 98
4, 113040, Note_on_c, 0, 51, 98
4, 113040, Note_on_c, 0, 56, 98
4, 113040, Note_on_c, 0, 60, 98
4, 113220, Note_on_c, 0, 60, 0
4, 113220, Note_on_c, 0, 72, 0
4, 113220, Note_on_c, 0, 48, 0
4, 113220, Note_on_c, 0, 75, 0
4, 113220, Note_on_c, 0, 80, 0
4, 113220, Note_on_c, 0, 84, 0
4, 113220, Note_on_c, 0, 51, 0
4, 113220, Note_on_c, 0, 56, 0
4, 113760, Note_on_c, 0, 79, 90
4, 113760, Note_on_c, 0, 84, 90
4, 113760, Note_on_c, 0, 87, 90
4, 113760, Note_on_c, 0, 91, 90
4, 113760, Note_on_c, 0, 31, 105
4, 113760, Note_on_c, 0, 43, 105
4, 113940, Note_on_c, 0, 60, 98
4, 113940, Note_on_c, 0, 51, 91
4, 113985, Note_on_c, 0, 51, 0
4, 113985, Note_on_c, 0, 60, 0
4, 113985, Note_on_c, 0, 62, 115
4, 113985, Note_on_c, 0, 53, 100
4, 114030, Note_on_c, 0, 53, 0
4, 114030, Note_on_c, 0, 62, 0
4, 114030, Note_on_c, 0, 63, 113
4, 114030, Note_on_c, 0, 55, 102
4, 114075, Note_on_c, 0, 55, 0
4, 114075, Note_on_c, 0, 63, 0
4, 114075, Note_on_c, 0, 65, 117
4, 114075, Note_on_c, 0, 57, 99
4, 114120, Note_on_c, 0, 57, 0
4, 114120, Note_on_c, 0, 65, 0
4, 114120, Note_on_c, 0, 67, 116
4, 114120, Note_on_c, 0, 59, 99
4, 114165, Note_on_c, 0, 59, 0
4, 114165, Note_on_c, 0, 67, 0
4, 114165, Note_on_c, 0, 69, 111
4, 114165, Note_on_c, 0, 60, 99
4, 114210, Note_on_c, 0, 60, 0
4, 114210, Note_on_c, 0, 69, 0
4, 114210, Note_on_c, 0, 71, 115
4, 114210, Note_on_c, 0, 62, 107
4, 114255, Note_on_c, 0, 62, 0
4, 114255, Note_on_c, 0, 71, 0
4, 114255, Note_on_c, 0, 72, 113
4, 114255, Note_on_c, 0, 63, 106
4, 114300, Note_on_c, 0, 63, 0
4, 114300, Note_on_c, 0, 72, 0
4, 114300, Note_on_c, 0, 74, 118
4, 114300, Note_on_c, 0, 65, 106
4, 114345, Note_on_c, 0, 65, 0
4, 114345, Note_on_c, 0, 74, 0
4, 114345, Note_on_c, 0, 75, 114
4, 114345, Note_on_c, 0, 67, 105
4, 114390, Note_on_c, 0, 67, 0
4, 114390, Note_on_c, 0, 75, 0
4, 114390, Note_on_c, 0, 77, 112
4, 114390, Note_on_c, 0, 69, 106
4, 114435, Note_on_c, 0, 69, 0
4, 114435, Note_on_c, 0, 77, 0
4, 114435, Note_on_c, 0, 79, 112
4, 114435, Note_on_c, 0, 71, 102
4, 114480, Note_on_c, 0, 71, 0
4, 114480, Note_on_c, 0, 87, 0
4, 114480, Note_on_c, 0, 91, 0
4, 114480, Note_on_c, 0, 79, 0
4, 114480, Note_on_c, 0, 79, 0
4, 114480, Note_on_c, 0, 84, 0
4, 114480, Note_on_c, 0, 72, 65
4, 114480, Note_on_c, 0, 77, 65
4, 114480, Note_on_c, 0, 80, 65
4, 114480, Note_on_c, 0, 60, 82
4, 114480, Note_on_c, 0, 65, 82
4, 114480, Note_on_c, 0, 68, 82
4, 115200, Note_on_c, 0, 68, 0
4, 115200, Note_on_c, 0, 31, 0
4, 115200, Note_on_c, 0, 80, 0
4, 115200, Note_on_c, 0, 43, 0
4, 115200, Note_on_c, 0, 72, 0
4, 115200, Note_on_c, 0, 77, 0
4, 115200, Note_on_c, 0, 60, 0
4, 115200, Note_on_c, 0, 65, 0
4, 115200, Note_on_c, 0, 79, 117
4, 115200, Note_on_c, 0, 84, 117
4, 115200, Note_on_c, 0, 87, 117
4, 115200, Note_on_c, 0, 91, 117
4, 115200, Note_on_c, 0, 31, 109
4, 115200, Note_on_c, 0, 43, 109
4, 115380, Note_on_c, 0, 60, 101
4, 115380, Note_on_c, 0, 51, 91
4, 115425, Note_on_c, 0, 51, 0
4, 115425, Note_on_c, 0, 60, 0
4, 115425, Note_on_c, 0, 62, 111
4, 115425, Note_on_c, 0, 53, 98
4, 115470, Note_on_c, 0, 53, 0
4, 115470, Note_on_c, 0, 62, 0
4, 115470, Note_on_c, 0, 63, 114
4, 115470, Note_on_c, 0, 55, 98
4, 115515, Note_on_c, 0, 55, 0
4, 115515, Note_on_c, 0, 63, 0
4, 115515, Note_on_c, 0, 65, 117
4, 115515, Note_on_c, 0, 57, 102
4, 115560, Note_on_c, 0, 57, 0
4, 115560, Note_on_c, 0, 65, 0
4, 115560, Note_on_c, 0, 67, 113
4, 115560, Note_on_c, 0, 59, 100
4, 115605, Note_on_c, 0, 59, 0
4, 115605, Note_on_c, 0, 67, 0
4, 115605, Note_on_c, 0, 69, 115
4, 115605, Note_on_c, 0, 60, 99
4, 115650, Note_on_c, 0, 60, 0
4, 115650, Note_on_c, 0, 69, 0
4, 115650, Note_on_c, 0, 71, 118
4, 115650, Note_on_c, 0, 62, 106
4, 115695, Note_on_c, 0, 62, 0
4, 115695, Note_on_c, 0, 71, 0
4, 115695, Note_on_c, 0, 72, 113
4, 115695, Note_on_c, 0, 63, 108
4, 115740, Note_on_c, 0, 63, 0
4, 115740, Note_on_c, 0, 72, 0
4, 115740, Note_on_c, 0, 74, 116
4, 115740, Note_on_c, 0, 65, 105
4, 115785, Note_on_c, 0, 65, 0
4, 115785, Note_on_c, 0, 74, 0
4, 115785, Note_on_c, 0, 75, 115
4, 115785, Note_on_c, 0, 67, 105
4, 115830, Note_on_c, 0, 67, 0
4, 115830, Note_on_c, 0, 75, 0
4, 115830, Note_on_c, 0, 77, 115
4, 115830, Note_on_c, 0, 69, 106
4, 115875, Note_on_c, 0, 69, 0
4, 115875, Note_on_c, 0, 77, 0
4, 115875, Note_on_c, 0, 79, 117
4, 115875, Note_on_c, 0, 71, 102
4, 115920, Note_on_c, 0, 71, 0
4, 115920, Note_on_c, 0, 87, 0
4, 115920, Note_on_c, 0, 91, 0
4, 115920, Note_on_c, 0, 79, 0
4, 115920, Note_on_c, 0, 79, 0
4, 115920, Note_on_c, 0, 84, 0
4, 115920, Note_on_c, 0, 73, 74
4, 115920, Note_on_c, 0, 76, 74
4, 115920, Note_on_c, 0, 80, 74
4, 115920, Note_on_c, 0, 59, 85
4, 115920, Note_on_c, 0, 61, 85
4, 115920, Note_on_c, 0, 64, 85
4, 115920, Note_on_c, 0, 68, 85
4, 116640, Note_on_c, 0, 68, 0
4, 116640, Note_on_c, 0, 76, 0
4, 116640, Note_on_c, 0, 31, 0
4, 116640, Note_on_c, 0, 80, 0
4, 116640, Note_on_c, 0, 43, 0
4, 116640, Note_on_c, 0, 73, 0
4, 116640, Note_on_c, 0, 61, 0
4, 116640, Note_on_c, 0, 59, 0
4, 116640, Note_on_c, 0, 64, 0
4, 116640, Note_on_c, 0, 80, 121
4, 116640, Note_on_c, 0, 84, 121
4, 116640, Note_on_c, 0, 89, 121
4, 116640, Note_on_c, 0, 92, 121
4, 116640, Note_on_c, 0, 31, 106
4, 116640, Note_on_c, 0, 43, 106
4, 116820, Note_on_c, 0, 60, 99
4, 116820, Note_on_c, 0, 52, 93
4, 116865, Note_on_c, 0, 52, 0
4, 116865, Note_on_c, 0, 60, 0
4, 116865, Note_on_c, 0, 62, 112
4, 116865, Note_on_c, 0, 53, 99
4, 116910, Note_on_c, 0, 53, 0
4, 116910, Note_on_c, 0, 62, 0
4, 116910, Note_on_c, 0, 64, 118
4, 116910, Note_on_c, 0, 55, 104
4, 116955, Note_on_c, 0, 55, 0
4, 116955, Note_on_c, 0, 64, 0
4, 116955, Note_on_c, 0, 65, 111
4, 116955, Note_on_c, 0, 56, 101
4, 117000, Note_on_c, 0, 56, 0
4, 117000, Note_on_c, 0, 65, 0
4, 117000, Note_on_c, 0, 67, 121
4, 117000, Note_on_c, 0, 59, 104
4, 117045, Note_on_c, 0, 59, 0
4, 117045, Note_on_c, 0, 67, 0
4, 117045, Note_on_c, 0, 68, 116
4, 117045, Note_on_c, 0, 60, 102
4, 117090, Note_on_c, 0, 60, 0
4, 117090, Note_on_c, 0, 68, 0
4, 117090, Note_on_c, 0, 70, 115
4, 117090, Note_on_c, 0, 62, 104
4, 117135, Note_on_c, 0, 62, 0
4, 117135, Note_on_c, 0, 70, 0
4, 117135, Note_on_c, 0, 72, 117
4, 117135, Note_on_c, 0, 64, 104
4, 117180, Note_on_c, 0, 64, 0
4, 117180, Note_on_c, 0, 72, 0
4, 117180, Note_on_c, 0, 74, 119
4, 117180, Note_on_c, 0, 65, 99
4, 117225, Note_on_c, 0, 65, 0
4, 117225, Note_on_c, 0, 74, 0
4, 117225, Note_on_c, 0, 76, 121
4, 117225, Note_on_c, 0, 67, 104
4, 117270, Note_on_c, 0, 67, 0
4, 117270, Note_on_c, 0, 76, 0
4, 117270, Note_on_c, 0, 77, 119
4, 117270, Note_on_c, 0, 68, 106
4, 117315, Note_on_c, 0, 68, 0
4, 117315, Note_on_c, 0, 77, 0
4, 117315, Note_on_c, 0, 79, 118
4, 117315, Note_on_c, 0, 70, 109
4, 117360, Note_on_c, 0, 70, 0
4, 117360, Note_on_c, 0, 89, 0
4, 117360, Note_on_c, 0, 92, 0
4, 117360, Note_on_c, 0, 79, 0
4, 117360, Note_on_c, 0, 80, 0
4, 117360, Note_on_c, 0, 84, 0
4, 117360, Note_on_c, 0, 73, 76
4, 117360, Note_on_c, 0, 76, 76
4, 117360, Note_on_c, 0, 80, 76
4, 117360, Note_on_c, 0, 58, 85
4, 117360, Note_on_c, 0, 61, 85
4, 117360, Note_on_c, 0, 64, 85
4, 117360, Note_on_c, 0, 68, 85
4, 118080, Note_on_c, 0, 68, 0
4, 118080, Note_on_c, 0, 76, 0
4, 118080, Note_on_c, 0, 31, 0
4, 118080, Note_on_c, 0, 80, 0
4, 118080, Note_on_c, 0, 43, 0
4, 118080, Note_on_c, 0, 73, 0
4, 118080, Note_on_c, 0, 61, 0
4, 118080, Note_on_c, 0, 58, 0
4, 118080, Note_on_c, 0, 64, 0
4, 118080, Note_on_c, 0, 80, 125
4, 118080, Note_on_c, 0, 84, 125
4, 118080, Note_on_c, 0, 89, 125
4, 118080, Note_on_c, 0, 92, 125
4, 118080, Note_on_c, 0, 31, 107
4, 118080, Note_on_c, 0, 43, 107
4, 118260, Note_on_c, 0, 60, 97
4, 118260, Note_on_c, 0, 52, 84
4, 118305, Note_on_c, 0, 52, 0
4, 118305, Note_on_c, 0, 60, 0
4, 118305, Note_on_c, 0, 62, 114
4, 118305, Note_on_c, 0, 53, 95
4, 118350, Note_on_c, 0, 53, 0
4, 118350, Note_on_c, 0, 62, 0
4, 118350, Note_on_c, 0, 64, 115
4, 118350, Note_on_c, 0, 55, 97
4, 118395, Note_on_c, 0, 55, 0
4, 118395, Note_on_c, 0, 64, 0
4, 118395, Note_on_c, 0, 65, 112
4, 118395, Note_on_c, 0, 56, 101
4, 118440, Note_on_c, 0, 56, 0
4, 118440, Note_on_c, 0, 65, 0
4, 118440, Note_on_c, 0, 67, 115
4, 118440, Note_on_c, 0, 58, 100
4, 118485, Note_on_c, 0, 58, 0
4, 118485, Note_on_c, 0, 67, 0
4, 118485, Note_on_c, 0, 68, 110
4, 118485, Note_on_c, 0, 60, 103
4, 118530, Note_on_c, 0, 60, 0
4, 118530, Note_on_c, 0, 68, 0
4, 118530, Note_on_c, 0, 70, 116
4, 118530, Note_on_c, 0, 62, 102
4, 118575, Note_on_c, 0, 62, 0
4, 118575, Note_on_c, 0, 70, 0
4, 118575, Note_on_c, 0, 72, 117
4, 118575, Note_on_c, 0, 64, 105
4, 118620, Note_on_c, 0, 64, 0
4, 118620, Note_on_c, 0, 72, 0
4, 118620, Note_on_c, 0, 74, 114
4, 118620, Note_on_c, 0, 65, 102
4, 118665, Note_on_c, 0, 65, 0
4, 118665, Note_on_c, 0, 74, 0
4, 118665, Note_on_c, 0, 76, 114
4, 118665, Note_on_c, 0, 67, 104
4, 118710, Note_on_c, 0, 67, 0
4, 118710, Note_on_c, 0, 76, 0
4, 118710, Note_on_c, 0, 77, 116
4, 118710, Note_on_c, 0, 68, 103
4, 118755, Note_on_c, 0, 68, 0
4, 118755, Note_on_c, 0, 77, 0
4, 118755, Note_on_c, 0, 79, 118
4, 118755, Note_on_c, 0, 70, 99
4, 118800, Note_on_c, 0, 70, 0
4, 118800, Note_on_c, 0, 89, 0
4, 118800, Note_on_c, 0, 92, 0
4, 118800, Note_on_c, 0, 79, 0
4, 118800, Note_on_c, 0, 80, 0
4, 118800, Note_on_c, 0, 84, 0
4, 118800, Note_on_c, 0, 72, 74
4, 118800, Note_on_c, 0, 74, 74
4, 118800, Note_on_c, 0, 77, 74
4, 118800, Note_on_c, 0, 80, 74
4, 118800, Note_on_c, 0, 60, 83
4, 118800, Note_on_c, 0, 62, 83
4, 118800, Note_on_c, 0, 65, 83
4, 118800, Note_on_c, 0, 68, 83
4, 119520, Note_on_c, 0, 68, 0
4, 119520, Note_on_c, 0, 72, 0
4, 119520, Note_on_c, 0, 74, 0
4, 119520, Note_on_c, 0, 31, 0
4, 119520, Note_on_c, 0, 77, 0
4, 119520, Note_on_c, 0, 43, 0
4, 119520, Note_on_c, 0, 62, 0
4, 119520, Note_on_c, 0, 60, 0
4, 119520, Note_on_c, 0, 80, 0
4, 119520, Note_on_c, 0, 65, 0
4, 119520, Note_on_c, 0, 67, 89
4, 119520, Note_on_c, 0, 72, 89
4, 119520, Note_on_c, 0, 75, 89
4, 119520, Note_on_c, 0, 79, 89
4, 119520, Note_on_c, 0, 31, 109
4, 119520, Note_on_c, 0, 43, 109
4, 119655, Note_on_c, 0, 79, 0
4, 119655, Note_on_c, 0, 75, 0
4, 119655, Note_on_c, 0, 67, 0
4, 119655, Note_on_c, 0, 72, 0
4, 119655, Note_on_c, 0, 72, 111
4, 119655, Note_on_c, 0, 75, 111
4, 119655, Note_on_c, 0, 79, 111
4, 119655, Note_on_c, 0, 84, 111
4, 119655, Note_on_c, 0, 55, 88
4, 119655, Note_on_c, 0, 60, 88
4, 119655, Note_on_c, 0, 63, 88
4, 119655, Note_on_c, 0, 67, 88
4, 119700, Note_on_c, 0, 67, 0
4, 119700, Note_on_c, 0, 72, 0
4, 119700, Note_on_c, 0, 75, 0
4, 119700, Note_on_c, 0, 63, 0
4, 119700, Note_on_c, 0, 79, 0
4, 119700, Note_on_c, 0, 55, 0
4, 119700, Note_on_c, 0, 60, 0
4, 119700, Note_on_c, 0, 84, 0
4, 119700, Note_on_c, 0, 72, 99
4, 119700, Note_on_c, 0, 75, 99
4, 119700, Note_on_c, 0, 79, 99
4, 119700, Note_on_c, 0, 84, 99
4, 119700, Note_on_c, 0, 55, 97
4, 119700, Note_on_c, 0, 60, 97
4, 119700, Note_on_c, 0, 63, 97
4, 119700, Note_on_c, 0, 67, 97
4, 119835, Note_on_c, 0, 67, 0
4, 119835, Note_on_c, 0, 72, 0
4, 119835, Note_on_c, 0, 75, 0
4, 119835, Note_on_c, 0, 63, 0
4, 119835, Note_on_c, 0, 79, 0
4, 119835, Note_on_c, 0, 55, 0
4, 119835, Note_on_c, 0, 60, 0
4, 119835, Note_on_c, 0, 84, 0
4, 119835, Note_on_c, 0, 75, 108
4, 119835, Note_on_c, 0, 79, 108
4, 119835, Note_on_c, 0, 84, 108
4, 119835, Note_on_c, 0, 87, 108
4, 119835, Note_on_c, 0, 60, 113
4, 119835, Note_on_c, 0, 63, 113
4, 119835, Note_on_c, 0, 67, 113
4, 119835, Note_on_c, 0, 72, 113
4, 119880, Note_on_c, 0, 72, 0
4, 119880, Note_on_c, 0, 75, 0
4, 119880, Note_on_c, 0, 79, 0
4, 119880, Note_on_c, 0, 67, 0
4, 119880, Note_on_c, 0, 84, 0
4, 119880, Note_on_c, 0, 60, 0
4, 119880, Note_on_c, 0, 63, 0
4, 119880, Note_on_c, 0, 87, 0
4, 119880, Note_on_c, 0, 75, 99
4, 119880, Note_on_c, 0, 79, 99
4, 119880, Note_on_c, 0, 84, 99
4, 119880, Note_on_c, 0, 87, 99
4, 119880, Note_on_c, 0, 60, 101
4, 119880, Note_on_c, 0, 63, 101
4, 119880, Note_on_c, 0, 67, 101
4, 119880, Note_on_c, 0, 72, 101
4, 120015, Note_on_c, 0, 72, 0
4, 120015, Note_on_c, 0, 75, 0
4, 120015, Note_on_c, 0, 79, 0
4, 120015, Note_on_c, 0, 67, 0
4, 120015, Note_on_c, 0, 84, 0
4, 120015, Note_on_c, 0, 60, 0
4, 120015, Note_on_c, 0, 63, 0
4, 120015, Note_on_c, 0, 87, 0
4, 120015, Note_on_c, 0, 79, 110
4, 120015, Note_on_c, 0, 84, 110
4, 120015, Note_on_c, 0, 87, 110
4, 120015, Note_on_c, 0, 91, 110
4, 120015, Note_on_c, 0, 63, 106
4, 120015, Note_on_c, 0, 67, 106
4, 120015, Note_on_c, 0, 72, 106
4, 120015, Note_on_c, 0, 75, 106
4, 120060, Note_on_c, 0, 75, 0
4, 120060, Note_on_c, 0, 79, 0
4, 120060, Note_on_c, 0, 84, 0
4, 120060, Note_on_c, 0, 72, 0
4, 120060, Note_on_c, 0, 87, 0
4, 120060, Note_on_c, 0, 63, 0
4, 120060, Note_on_c, 0, 67, 0
4, 120060, Note_on_c, 0, 91, 0
4, 120060, Note_on_c, 0, 79, 103
4, 120060, Note_on_c, 0, 84, 103
4, 120060, Note_on_c, 0, 87, 103
4, 120060, Note_on_c, 0, 91, 103
4, 120060, Note_on_c, 0, 63, 97
4, 120060, Note_on_c, 0, 67, 97
4, 120060, Note_on_c, 0, 72, 97
4, 120060, Note_on_c, 0, 75, 97
4, 120195, Note_on_c, 0, 75, 0
4, 120195, Note_on_c, 0, 79, 0
4, 120195, Note_on_c, 0, 84, 0
4, 120195, Note_on_c, 0, 72, 0
4, 120195, Note_on_c, 0, 87, 0
4, 120195, Note_on_c, 0, 63, 0
4, 120195, Note_on_c, 0, 67, 0
4, 120195, Note_on_c, 0, 91, 0
4, 120195, Note_on_c, 0, 82, 107
4, 120195, Note_on_c, 0, 86, 107
4, 120195, Note_on_c, 0, 89, 107
4, 120195, Note_on_c, 0, 94, 107
4, 120195, Note_on_c, 0, 62, 90
4, 120195, Note_on_c, 0, 65, 90
4, 120195, Note_on_c, 0, 70, 90
4, 120195, Note_on_c, 0, 74, 90
4, 120240, Note_on_c, 0, 74, 0
4, 120240, Note_on_c, 0, 82, 0
4, 120240, Note_on_c, 0, 86, 0
4, 120240, Note_on_c, 0, 70, 0
4, 120240, Note_on_c, 0, 89, 0
4, 120240, Note_on_c, 0, 62, 0
4, 120240, Note_on_c, 0, 65, 0
4, 120240, Note_on_c, 0, 94, 0
4, 120240, Note_on_c, 0, 82, 102
4, 120240, Note_on_c, 0, 86, 102
4, 120240, Note_on_c, 0, 89, 102
4, 120240, Note_on_c, 0, 94, 102
4, 120240, Note_on_c, 0, 62, 94
4, 120240, Note_on_c, 0, 65, 94
4, 120240, Note_on_c, 0, 70, 94
4, 120240, Note_on_c, 0, 74, 94
4, 120960, Note_on_c, 0, 74, 0
4, 120960, Note_on_c, 0, 82, 0
4, 120960, Note_on_c, 0, 86, 0
4, 120960, Note_on_c, 0, 43, 0
4, 120960, Note_on_c, 0, 89, 0
4, 120960, Note_on_c, 0, 31, 0
4, 120960, Note_on_c, 0, 65, 0
4, 120960, Note_on_c, 0, 62, 0
4, 120960, Note_on_c, 0, 94, 0
4, 120960, Note_on_c, 0, 70, 0
4, 120960, Note_on_c, 0, 65, 67
4, 120960, Note_on_c, 0, 68, 67
4, 120960, Note_on_c, 0, 72, 67
4, 120960, Note_on_c, 0, 77, 67
4, 120960, Note_on_c, 0, 31, 110
4, 120960, Note_on_c, 0, 43, 110
4, 121095, Note_on_c, 0, 77, 0
4, 121095, Note_on_c, 0, 72, 0
4, 121095, Note_on_c, 0, 65, 0
4, 121095, Note_on_c, 0, 68, 0
4, 121095, Note_on_c, 0, 68, 103
4, 121095, Note_on_c, 0, 72, 103
4, 121095, Note_on_c, 0, 77, 103
4, 121095, Note_on_c, 0, 80, 103
4, 121095, Note_on_c, 0, 53, 87
4, 121095, Note_on_c, 0, 56, 87
4, 121095, Note_on_c, 0, 60, 87
4, 121095, Note_on_c, 0, 65, 87
4, 121140, Note_on_c, 0, 65, 0
4, 121140, Note_on_c, 0, 68, 0
4, 121140, Note_on_c, 0, 72, 0
4, 121140, Note_on_c, 0, 60, 0
4, 121140, Note_on_c, 0, 77, 0
4, 121140, Note_on_c, 0, 53, 0
4, 121140, Note_on_c, 0, 56, 0
4, 121140, Note_on_c, 0, 80, 0
4, 121140, Note_on_c, 0, 68, 97
4, 121140, Note_on_c, 0, 72, 97
4, 121140, Note_on_c, 0, 77, 97
4, 121140, Note_on_c, 0, 80, 97
4, 121140, Note_on_c, 0, 53, 96
4, 121140, Note_on_c, 0, 56, 96
4, 121140, Note_on_c, 0, 60, 96
4, 121140, Note_on_c, 0, 65, 96
4, 121275, Note_on_c, 0, 65, 0
4, 121275, Note_on_c, 0, 68, 0
4, 121275, Note_on_c, 0, 72, 0
4, 121275, Note_on_c, 0, 60, 0
4, 121275, Note_on_c, 0, 77, 0
4, 121275, Note_on_c, 0, 53, 0
4, 121275, Note_on_c, 0, 56, 0
4, 121275, Note_on_c, 0, 80, 0
4, 121275, Note_on_c, 0, 72, 103
4, 121275, Note_on_c, 0, 77, 103
4, 121275, Note_on_c, 0, 80, 103
4, 121275, Note_on_c, 0, 84, 103
4, 121275, Note_on_c, 0, 56, 106
4, 121275, Note_on_c, 0, 60, 106
4, 121275, Note_on_c, 0, 65, 106
4, 121275, Note_on_c, 0, 68, 106
4, 121320, Note_on_c, 0, 68, 0
4, 121320, Note_on_c, 0, 72, 0
4, 121320, Note_on_c, 0, 77, 0
4, 121320, Note_on_c, 0, 65, 0
4, 121320, Note_on_c, 0, 80, 0
4, 121320, Note_on_c, 0, 56, 0
4, 121320, Note_on_c, 0, 60, 0
4, 121320, Note_on_c, 0, 84, 0
4, 121320, Note_on_c, 0, 72, 97
4, 121320, Note_on_c, 0, 77, 97
4, 121320, Note_on_c, 0, 80, 97
4, 121320, Note_on_c, 0, 84, 97
4, 121320, Note_on_c, 0, 56, 104
4, 121320, Note_on_c, 0, 60, 104
4, 121320, Note_on_c, 0, 65, 104
4, 121320, Note_on_c, 0, 68, 104
4, 121455, Note_on_c, 0, 68, 0
4, 121455, Note_on_c, 0, 72, 0
4, 121455, Note_on_c, 0, 77, 0
4, 121455, Note_on_c, 0, 65, 0
4, 121455, Note_on_c, 0, 80, 0
4, 121455, Note_on_c, 0, 56, 0
4, 121455, Note_on_c, 0, 60, 0
4, 121455, Note_on_c, 0, 84, 0
4, 121455, Note_on_c, 0, 77, 110
4, 121455, Note_on_c, 0, 80, 110
4, 121455, Note_on_c, 0, 84, 110
4, 121455, Note_on_c, 0, 89, 110
4, 121455, Note_on_c, 0, 60, 109
4, 121455, Note_on_c, 0, 65, 109
4, 121455, Note_on_c, 0, 68, 109
4, 121455, Note_on_c, 0, 72, 109
4, 121500, Note_on_c, 0, 72, 0
4, 121500, Note_on_c, 0, 77, 0
4, 121500, Note_on_c, 0, 80, 0
4, 121500, Note_on_c, 0, 68, 0
4, 121500, Note_on_c, 0, 84, 0
4, 121500, Note_on_c, 0, 60, 0
4, 121500, Note_on_c, 0, 65, 0
4, 121500, Note_on_c, 0, 89, 0
4, 121500, Note_on_c, 0, 77, 100
4, 121500, Note_on_c, 0, 80, 100
4, 121500, Note_on_c, 0, 84, 100
4, 121500, Note_on_c, 0, 89, 100
4, 121500, Note_on_c, 0, 60, 98
4, 121500, Note_on_c, 0, 65, 98
4, 121500, Note_on_c, 0, 68, 98
4, 121500, Note_on_c, 0, 72, 98
4, 121635, Note_on_c, 0, 72, 0
4, 121635, Note_on_c, 0, 77, 0
4, 121635, Note_on_c, 0, 80, 0
4, 121635, Note_on_c, 0, 68, 0
4, 121635, Note_on_c, 0, 84, 0
4, 121635, Note_on_c, 0, 60, 0
4, 121635, Note_on_c, 0, 65, 0
4, 121635, Note_on_c, 0, 89, 0
4, 121635, Note_on_c, 0, 79, 104
4, 121635, Note_on_c, 0, 82, 104
4, 121635, Note_on_c, 0, 86, 104
4, 121635, Note_on_c, 0, 91, 104
4, 121635, Note_on_c, 0, 58, 91
4, 121635, Note_on_c, 0, 62, 91
4, 121635, Note_on_c, 0, 67, 91
4, 121635, Note_on_c, 0, 70, 91
4, 121680, Note_on_c, 0, 70, 0
4, 121680, Note_on_c, 0, 79, 0
4, 121680, Note_on_c, 0, 82, 0
4, 121680, Note_on_c, 0, 67, 0
4, 121680, Note_on_c, 0, 86, 0
4, 121680, Note_on_c, 0, 58, 0
4, 121680, Note_on_c, 0, 62, 0
4, 121680, Note_on_c, 0, 91, 0
4, 121680, Note_on_c, 0, 79, 92
4, 121680, Note_on_c, 0, 82, 92
4, 121680, Note_on_c, 0, 86, 92
4, 121680, Note_on_c, 0, 91, 92
4, 121680, Note_on_c, 0, 58, 95
4, 121680, Note_on_c, 0, 62, 95
4, 121680, Note_on_c, 0, 67, 95
4, 121680, Note_on_c, 0, 70, 95
4, 122400, Note_on_c, 0, 70, 0
4, 122400, Note_on_c, 0, 79, 0
4, 122400, Note_on_c, 0, 82, 0
4, 122400, Note_on_c, 0, 43, 0
4, 122400, Note_on_c, 0, 86, 0
4, 122400, Note_on_c, 0, 31, 0
4, 122400, Note_on_c, 0, 62, 0
4, 122400, Note_on_c, 0, 58, 0
4, 122400, Note_on_c, 0, 91, 0
4, 122400, Note_on_c, 0, 67, 0
4, 122400, Note_on_c, 0, 60, 67
4, 122400, Note_on_c, 0, 65, 67
4, 122400, Note_on_c, 0, 68, 67
4, 122400, Note_on_c, 0, 72, 67
4, 122400, Note_on_c, 0, 31, 111
4, 122400, Note_on_c, 0, 43, 111
4, 122535, Note_on_c, 0, 72, 0
4, 122535, Note_on_c, 0, 68, 0
4, 122535, Note_on_c, 0, 60, 0
4, 122535, Note_on_c, 0, 65, 0
4, 122535, Note_on_c, 0, 65, 105
4, 122535, Note_on_c, 0, 68, 105
4, 122535, Note_on_c, 0, 72, 105
4, 122535, Note_on_c, 0, 77, 105
4, 122535, Note_on_c, 0, 48, 90
4, 122535, Note_on_c, 0, 53, 90
4, 122535, Note_on_c, 0, 56, 90
4, 122535, Note_on_c, 0, 60, 90
4, 122580, Note_on_c, 0, 60, 0
4, 122580, Note_on_c, 0, 65, 0
4, 122580, Note_on_c, 0, 68, 0
4, 122580, Note_on_c, 0, 56, 0
4, 122580, Note_on_c, 0, 72, 0
4, 122580, Note_on_c, 0, 48, 0
4, 122580, Note_on_c, 0, 53, 0
4, 122580, Note_on_c, 0, 77, 0
4, 122580, Note_on_c, 0, 65, 102
4, 122580, Note_on_c, 0, 68, 102
4, 122580, Note_on_c, 0, 72, 102
4, 122580, Note_on_c, 0, 77, 102
4, 122580, Note_on_c, 0, 48, 98
4, 122580, Note_on_c, 0, 53, 98
4, 122580, Note_on_c, 0, 56, 98
4, 122580, Note_on_c, 0, 60, 98
4, 122715, Note_on_c, 0, 60, 0
4, 122715, Note_on_c, 0, 65, 0
4, 122715, Note_on_c, 0, 68, 0
4, 122715, Note_on_c, 0, 56, 0
4, 122715, Note_on_c, 0, 72, 0
4, 122715, Note_on_c, 0, 48, 0
4, 122715, Note_on_c, 0, 53, 0
4, 122715, Note_on_c, 0, 77, 0
4, 122715, Note_on_c, 0, 68, 106
4, 122715, Note_on_c, 0, 72, 106
4, 122715, Note_on_c, 0, 77, 106
4, 122715, Note_on_c, 0, 80, 106
4, 122715, Note_on_c, 0, 53, 109
4, 122715, Note_on_c, 0, 56, 109
4, 122715, Note_on_c, 0, 62, 109
4, 122715, Note_on_c, 0, 65, 109
4, 122760, Note_on_c, 0, 65, 0
4, 122760, Note_on_c, 0, 68, 0
4, 122760, Note_on_c, 0, 72, 0
4, 122760, Note_on_c, 0, 62, 0
4, 122760, Note_on_c, 0, 77, 0
4, 122760, Note_on_c, 0, 53, 0
4, 122760, Note_on_c, 0, 56, 0
4, 122760, Note_on_c, 0, 80, 0
4, 122760, Note_on_c, 0, 68, 98
4, 122760, Note_on_c, 0, 72, 98
4, 122760, Note_on_c, 0, 77, 98
4, 122760, Note_on_c, 0, 80, 98
4, 122760, Note_on_c, 0, 53, 102
4, 122760, Note_on_c, 0, 56, 102
4, 122760, Note_on_c, 0, 62, 102
4, 122760, Note_on_c, 0, 65, 102
4, 122895, Note_on_c, 0, 65, 0
4, 122895, Note_on_c, 0, 68, 0
4, 122895, Note_on_c, 0, 72, 0
4, 122895, Note_on_c, 0, 62, 0
4, 122895, Note_on_c, 0, 77, 0
4, 122895, Note_on_c, 0, 53, 0
4, 122895, Note_on_c, 0, 56, 0
4, 122895, Note_on_c, 0, 80, 0
4, 122895, Note_on_c, 0, 72, 110
4, 122895, Note_on_c, 0, 77, 110
4, 122895, Note_on_c, 0, 80, 110
4, 122895, Note_on_c, 0, 84, 110
4, 122895, Note_on_c, 0, 56, 105
4, 122895, Note_on_c, 0, 60, 105
4, 122895, Note_on_c, 0, 65, 105
4, 122895, Note_on_c, 0, 68, 105
4, 122940, Note_on_c, 0, 68, 0
4, 122940, Note_on_c, 0, 72, 0
4, 122940, Note_on_c, 0, 77, 0
4, 122940, Note_on_c, 0, 65, 0
4, 122940, Note_on_c, 0, 80, 0
4, 122940, Note_on_c, 0, 56, 0
4, 122940, Note_on_c, 0, 60, 0
4, 122940, Note_on_c, 0, 84, 0
4, 122940, Note_on_c, 0, 72, 98
4, 122940, Note_on_c, 0, 77, 98
4, 122940, Note_on_c, 0, 80, 98
4, 122940, Note_on_c, 0, 84, 98
4, 122940, Note_on_c, 0, 56, 97
4, 122940, Note_on_c, 0, 60, 97
4, 122940, Note_on_c, 0, 65, 97
4, 122940, Note_on_c, 0, 68, 97
4, 123075, Note_on_c, 0, 68, 0
4, 123075, Note_on_c, 0, 72, 0
4, 123075, Note_on_c, 0, 77, 0
4, 123075, Note_on_c, 0, 65, 0
4, 123075, Note_on_c, 0, 80, 0
4, 123075, Note_on_c, 0, 56, 0
4, 123075, Note_on_c, 0, 60, 0
4, 123075, Note_on_c, 0, 84, 0
4, 123075, Note_on_c, 0, 75, 104
4, 123075, Note_on_c, 0, 79, 104
4, 123075, Note_on_c, 0, 82, 104
4, 123075, Note_on_c, 0, 87, 104
4, 123075, Note_on_c, 0, 55, 93
4, 123075, Note_on_c, 0, 58, 93
4, 123075, Note_on_c, 0, 63, 93
4, 123075, Note_on_c, 0, 67, 93
4, 123120, Note_on_c, 0, 67, 0
4, 123120, Note_on_c, 0, 75, 0
4, 123120, Note_on_c, 0, 79, 0
4, 123120, Note_on_c, 0, 63, 0
4, 123120, Note_on_c, 0, 82, 0
4, 123120, Note_on_c, 0, 55, 0
4, 123120, Note_on_c, 0, 58, 0
4, 123120, Note_on_c, 0, 87, 0
4, 123120, Note_on_c, 0, 75, 94
4, 123120, Note_on_c, 0, 79, 94
4, 123120, Note_on_c, 0, 82, 94
4, 123120, Note_on_c, 0, 87, 94
4, 123120, Note_on_c, 0, 55, 98
4, 123120, Note_on_c, 0, 58, 98
4, 123120, Note_on_c, 0, 63, 98
4, 123120, Note_on_c, 0, 67, 98
4, 123840, Note_on_c, 0, 67, 0
4, 123840, Note_on_c, 0, 75, 0
4, 123840, Note_on_c, 0, 79, 0
4, 123840, Note_on_c, 0, 43, 0
4, 123840, Note_on_c, 0, 82, 0
4, 123840, Note_on_c, 0, 31, 0
4, 123840, Note_on_c, 0, 58, 0
4, 123840, Note_on_c, 0, 55, 0
4, 123840, Note_on_c, 0, 87, 0
4, 123840, Note_on_c, 0, 63, 0
4, 123840, Note_on_c, 0, 56, 72
4, 123840, Note_on_c, 0, 62, 72
4, 123840, Note_on_c, 0, 65, 72
4, 123840, Note_on_c, 0, 68, 72
4, 123840, Note_on_c, 0, 31, 106
4, 123840, Note_on_c, 0, 43, 106
4, 123975, Note_on_c, 0, 68, 0
4, 123975, Note_on_c, 0, 65, 0
4, 123975, Note_on_c, 0, 56, 0
4, 123975, Note_on_c, 0, 62, 0
4, 123975, Note_on_c, 0, 62, 114
4, 123975, Note_on_c, 0, 65, 114
4, 123975, Note_on_c, 0, 68, 114
4, 123975, Note_on_c, 0, 74, 114
4, 123975, Note_on_c, 0, 44, 93
4, 123975, Note_on_c, 0, 50, 93
4, 123975, Note_on_c, 0, 53, 93
4, 123975, Note_on_c, 0, 56, 93
4, 124020, Note_on_c, 0, 56, 0
4, 124020, Note_on_c, 0, 62, 0
4, 124020, Note_on_c, 0, 65, 0
4, 124020, Note_on_c, 0, 53, 0
4, 124020, Note_on_c, 0, 68, 0
4, 124020, Note_on_c, 0, 44, 0
4, 124020, Note_on_c, 0, 50, 0
4, 124020, Note_on_c, 0, 74, 0
4, 124020, Note_on_c, 0, 62, 95
4, 124020, Note_on_c, 0, 65, 95
4, 124020, Note_on_c, 0, 68, 95
4, 124020, Note_on_c, 0, 74, 95
4, 124020, Note_on_c, 0, 44, 94
4, 124020, Note_on_c, 0, 50, 94
4, 124020, Note_on_c, 0, 53, 94
4, 124020, Note_on_c, 0, 56, 94
4, 124155, Note_on_c, 0, 56, 0
4, 124155, Note_on_c, 0, 62, 0
4, 124155, Note_on_c, 0, 65, 0
4, 124155, Note_on_c, 0, 53, 0
4, 124155, Note_on_c, 0, 68, 0
4, 124155, Note_on_c, 0, 44, 0
4, 124155, Note_on_c, 0, 50, 0
4, 124155, Note_on_c, 0, 74, 0
4, 124155, Note_on_c, 0, 65, 104
4, 124155, Note_on_c, 0, 68, 104
4, 124155, Note_on_c, 0, 74, 104
4, 124155, Note_on_c, 0, 77, 104
4, 124155, Note_on_c, 0, 50, 118
4, 124155, Note_on_c, 0, 53, 118
4, 124155, Note_on_c, 0, 56, 118
4, 124155, Note_on_c, 0, 62, 118
4, 124200, Note_on_c, 0, 62, 0
4, 124200, Note_on_c, 0, 65, 0
4, 124200, Note_on_c, 0, 68, 0
4, 124200, Note_on_c, 0, 56, 0
4, 124200, Note_on_c, 0, 74, 0
4, 124200, Note_on_c, 0, 50, 0
4, 124200, Note_on_c, 0, 53, 0
4, 124200, Note_on_c, 0, 77, 0
4, 124200, Note_on_c, 0, 65, 102
4, 124200, Note_on_c, 0, 68, 102
4, 124200, Note_on_c, 0, 74, 102
4, 124200, Note_on_c, 0, 77, 102
4, 124200, Note_on_c, 0, 50, 102
4, 124200, Note_on_c, 0, 53, 102
4, 124200, Note_on_c, 0, 56, 102
4, 124200, Note_on_c, 0, 62, 102
4, 124335, Note_on_c, 0, 62, 0
4, 124335, Note_on_c, 0, 65, 0
4, 124335, Note_on_c, 0, 68, 0
4, 124335, Note_on_c, 0, 56, 0
4, 124335, Note_on_c, 0, 74, 0
4, 124335, Note_on_c, 0, 50, 0
4, 124335, Note_on_c, 0, 53, 0
4, 124335, Note_on_c, 0, 77, 0
4, 124335, Note_on_c, 0, 68, 106
4, 124335, Note_on_c, 0, 74, 106
4, 124335, Note_on_c, 0, 77, 106
4, 124335, Note_on_c, 0, 80, 106
4, 124335, Note_on_c, 0, 53, 109
4, 124335, Note_on_c, 0, 56, 109
4, 124335, Note_on_c, 0, 62, 109
4, 124335, Note_on_c, 0, 65, 109
4, 124380, Note_on_c, 0, 65, 0
4, 124380, Note_on_c, 0, 68, 0
4, 124380, Note_on_c, 0, 74, 0
4, 124380, Note_on_c, 0, 62, 0
4, 124380, Note_on_c, 0, 77, 0
4, 124380, Note_on_c, 0, 53, 0
4, 124380, Note_on_c, 0, 56, 0
4, 124380, Note_on_c, 0, 80, 0
4, 124380, Note_on_c, 0, 68, 99
4, 124380, Note_on_c, 0, 74, 99
4, 124380, Note_on_c, 0, 77, 99
4, 124380, Note_on_c, 0, 80, 99
4, 124380, Note_on_c, 0, 53, 101
4, 124380, Note_on_c, 0, 56, 101
4, 124380, Note_on_c, 0, 62, 101
4, 124380, Note_on_c, 0, 65, 101
4, 124515, Note_on_c, 0, 65, 0
4, 124515, Note_on_c, 0, 68, 0
4, 124515, Note_on_c, 0, 74, 0
4, 124515, Note_on_c, 0, 62, 0
4, 124515, Note_on_c, 0, 77, 0
4, 124515, Note_on_c, 0, 53, 0
4, 124515, Note_on_c, 0, 56, 0
4, 124515, Note_on_c, 0, 80, 0
4, 124515, Note_on_c, 0, 72, 109
4, 124515, Note_on_c, 0, 75, 109
4, 124515, Note_on_c, 0, 79, 109
4, 124515, Note_on_c, 0, 84, 109
4, 124515, Note_on_c, 0, 51, 86
4, 124515, Note_on_c, 0, 55, 86
4, 124515, Note_on_c, 0, 60, 86
4, 124515, Note_on_c, 0, 63, 86
4, 124560, Note_on_c, 0, 63, 0
4, 124560, Note_on_c, 0, 72, 0
4, 124560, Note_on_c, 0, 75, 0
4, 124560, Note_on_c, 0, 60, 0
4, 124560, Note_on_c, 0, 79, 0
4, 124560, Note_on_c, 0, 51, 0
4, 124560, Note_on_c, 0, 55, 0
4, 124560, Note_on_c, 0, 84, 0
4, 124560, Note_on_c, 0, 72, 100
4, 124560, Note_on_c, 0, 75, 100
4, 124560, Note_on_c, 0, 79, 100
4, 124560, Note_on_c, 0, 84, 100
4, 124560, Note_on_c, 0, 51, 98
4, 124560, Note_on_c, 0, 55, 98
4, 124560, Note_on_c, 0, 60, 98
4, 124560, Note_on_c, 0, 63, 98
4, 125280, Note_on_c, 0, 63, 0
4, 125280, Note_on_c, 0, 72, 0
4, 125280, Note_on_c, 0, 75, 0
4, 125280, Note_on_c, 0, 43, 0
4, 125280, Note_on_c, 0, 79, 0
4, 125280, Note_on_c, 0, 31, 0
4, 125280, Note_on_c, 0, 55, 0
4, 125280, Note_on_c, 0, 51, 0
4, 125280, Note_on_c, 0, 84, 0
4, 125280, Note_on_c, 0, 60, 0
4, 125280, Note_on_c, 0, 65, 79
4, 125280, Note_on_c, 0, 72, 79
4, 125280, Note_on_c, 0, 77, 79
4, 125280, Note_on_c, 0, 43, 85
4, 125280, Note_on_c, 0, 48, 85
4, 125280, Note_on_c, 0, 53, 85
4, 126180, Note_on_c, 0, 53, 0
4, 126180, Note_on_c, 0, 72, 0
4, 126180, Note_on_c, 0, 77, 0
4, 126180, Note_on_c, 0, 65, 0
4, 126180, Note_on_c, 0, 48, 0
4, 126180, Note_on_c, 0, 43, 0
4, 126900, Note_on_c, 0, 48, 96
4, 126900, Note_on_c, 0, 54, 96
4, 126900, Note_on_c, 0, 60, 96
4, 126900, Note_on_c, 0, 38, 96
4, 126900, Note_on_c, 0, 45, 96
4, 127260, Note_on_c, 0, 45, 0
4, 127260, Note_on_c, 0, 60, 0
4, 127260, Note_on_c, 0, 48, 0
4, 127260, Note_on_c, 0, 54, 0
4, 127260, Note_on_c, 0, 38, 0
4, 127260, Note_on_c, 0, 48, 93
4, 127260, Note_on_c, 0, 53, 93
4, 127260, Note_on_c, 0, 60, 93
4, 127260, Note_on_c, 0, 32, 93
4, 127260, Note_on_c, 0, 38, 93
4, 127260, Note_on_c, 0, 44, 93
4, 127620, Note_on_c, 0, 44, 0
4, 127620, Note_on_c, 0, 53, 0
4, 127620, Note_on_c, 0, 60, 0
4, 127620, Note_on_c, 0, 48, 0
4, 127620, Note_on_c, 0, 38, 0
4, 127620, Note_on_c, 0, 32, 0
4, 127620, Note_on_c, 0, 48, 89
4, 127620, Note_on_c, 0, 54, 89
4, 127620, Note_on_c, 0, 60, 89
4, 127620, Note_on_c, 0, 38, 89
4, 127620, Note_on_c, 0, 45, 89
4, 127980, Note_on_c, 0, 45, 0
4, 127980, Note_on_c, 0, 60, 0
4, 127980, Note_on_c, 0, 48, 0
4, 127980, Note_on_c, 0, 54, 0
4, 127980, Note_on_c, 0, 38, 0
4, 127980, Note_on_c, 0, 48, 86
4, 127980, Note_on_c, 0, 53, 86
4, 127980, Note_on_c, 0, 60, 86
4, 127980, Note_on_c, 0, 32, 86
4, 127980, Note_on_c, 0, 38, 86
4, 127980, Note_on_c, 0, 44, 86
4, 128160, Note_on_c, 0, 44, 0
4, 128160, Note_on_c, 0, 53, 0
4, 128160, Note_on_c, 0, 60, 0
4, 128160, Note_on_c, 0, 48, 0
4, 128160, Note_on_c, 0, 38, 0
4, 128160, Note_on_c, 0, 32, 0
4, 128160, Note_on_c, 0, 48, 85
4, 128160, Note_on_c, 0, 56, 85
4, 128160, Note_on_c, 0, 60, 85
4, 128160, Note_on_c, 0, 29, 85
4, 128160, Note_on_c, 0, 36, 85
4, 128160, Note_on_c, 0, 41, 85
4, 128880, Note_on_c, 0, 41, 0
4, 128880, Note_on_c, 0, 56, 0
4, 128880, Note_on_c, 0, 60, 0
4, 128880, Note_on_c, 0, 48, 0
4, 128880, Note_on_c, 0, 36, 0
4, 128880, Note_on_c, 0, 29, 0
4, 128880, Note_on_c, 0, 53, 79
4, 128880, Note_on_c, 0, 59, 79
4, 128880, Note_on_c, 0, 56, 75
4, 128880, Note_on_c, 0, 31, 88
4, 128880, Note_on_c, 0, 43, 88
4, 129240, Note_on_c, 0, 56, 0
4, 129240, Note_on_c, 0, 55, 91
4, 129600, Note_on_c, 0, 55, 0
4, 129600, Note_on_c, 0, 43, 0
4, 129600, Note_on_c, 0, 53, 0
4, 129600, Note_on_c, 0, 59, 0
4, 129600, Note_on_c, 0, 31, 0
4, 129600, Note_on_c, 0, 51, 74
4, 129600, Note_on_c, 0, 55, 74
4, 129600, Note_on_c, 0, 60, 74
4, 129600, Note_on_c, 0, 24, 60
4, 129600, Note_on_c, 0, 31, 60
4, 129600, Note_on_c, 0, 36, 60
4, 130410, Note_on_c, 0, 36, 0
4, 130410, Note_on_c, 0, 55, 0
4, 130410, Note_on_c, 0, 60, 0
4, 130410, Note_on_c, 0, 51, 0
4, 130410, Note_on_c, 0, 31, 0
4, 130410, Note_on_c, 0, 24, 0
4, 130410, Note_on_c, 0, 48, 78
4, 130500, Note_on_c, 0, 48, 0
4, 130500, Note_on_c, 0, 51, 71
4, 130590, Note_on_c, 0, 51, 0
4, 130590, Note_on_c, 0, 55, 77
4, 130680, Note_on_c, 0, 55, 0
4, 130680, Note_on_c, 0, 60, 82
4, 130770, Note_on_c, 0, 60, 0
4, 130770, Note_on_c, 0, 63, 76
4, 130860, Note_on_c, 0, 63, 0
4, 130860, Note_on_c, 0, 67, 78
4, 130950, Note_on_c, 0, 67, 0
4, 130950, Note_on_c, 0, 72, 82
4, 131040, Note_on_c, 0, 72, 0
4, 131040, Note_on_c, 0, 74, 61
4, 131040, Note_on_c, 0, 72, 124
4, 131040, Note_on_c, 0, 56, 59
4, 131040, Note_on_c, 0, 65, 59
4, 131310, Note_on_c, 0, 74, 0
4, 131310, Note_on_c, 0, 75, 73
4, 131400, Note_on_c, 0, 75, 0
4, 131400, Note_on_c, 0, 77, 77
4, 131580, Note_on_c, 0, 77, 0
4, 131580, Note_on_c, 0, 75, 69
4, 131670, Note_on_c, 0, 75, 0
4, 131670, Note_on_c, 0, 74, 66
4, 131760, Note_on_c, 0, 74, 0
4, 131760, Note_on_c, 0, 72, 0
4, 131760, Note_on_c, 0, 56, 0
4, 131760, Note_on_c, 0, 65, 0
4, 131760, Note_on_c, 0, 79, 80
4, 131760, Note_on_c, 0, 71, 95
4, 131760, Note_on_c, 0, 62, 69
4, 131760, Note_on_c, 0, 55, 112
4, 132030, Note_on_c, 0, 62, 0
4, 132030, Note_on_c, 0, 63, 75
4, 132120, Note_on_c, 0, 63, 0
4, 132120, Note_on_c, 0, 79, 0
4, 132120, Note_on_c, 0, 74, 62
4, 132120, Note_on_c, 0, 65, 72
4, 132300, Note_on_c, 0, 65, 0
4, 132300, Note_on_c, 0, 63, 67
4, 132390, Note_on_c, 0, 63, 0
4, 132390, Note_on_c, 0, 62, 63
4, 132480, Note_on_c, 0, 62, 0
4, 132480, Note_on_c, 0, 55, 0
4, 132480, Note_on_c, 0, 71, 0
4, 132480, Note_on_c, 0, 74, 0
4, 132480, Note_on_c, 0, 79, 78
4, 132480, Note_on_c, 0, 72, 108
4, 132480, Note_on_c, 0, 75, 108
4, 132480, Note_on_c, 0, 70, 81
4, 132480, Note_on_c, 0, 60, 112
4, 132750, Note_on_c, 0, 70, 0
4, 132750, Note_on_c, 0, 79, 0
4, 132750, Note_on_c, 0, 80, 75
4, 132750, Note_on_c, 0, 68, 67
4, 132840, Note_on_c, 0, 68, 0
4, 132840, Note_on_c, 0, 80, 0
4, 132840, Note_on_c, 0, 82, 73
4, 132840, Note_on_c, 0, 67, 68
4, 133020, Note_on_c, 0, 67, 0
4, 133020, Note_on_c, 0, 82, 0
4, 133020, Note_on_c, 0, 80, 72
4, 133020, Note_on_c, 0, 68, 75
4, 133110, Note_on_c, 0, 68, 0
4, 133110, Note_on_c, 0, 80, 0
4, 133110, Note_on_c, 0, 79, 68
4, 133110, Note_on_c, 0, 70, 76
4, 133200, Note_on_c, 0, 70, 0
4, 133200, Note_on_c, 0, 79, 0
4, 133200, Note_on_c, 0, 84, 82
4, 133200, Note_on_c, 0, 67, 61
4, 133380, Note_on_c, 0, 84, 0
4, 133380, Note_on_c, 0, 79, 61
4, 133470, Note_on_c, 0, 79, 0
4, 133470, Note_on_c, 0, 67, 0
4, 133470, Note_on_c, 0, 60, 0
4, 133470, Note_on_c, 0, 75, 0
4, 133470, Note_on_c, 0, 72, 0
4, 133560, Note_on_c, 0, 72, 63
4, 133740, Note_on_c, 0, 72, 0
4, 133740, Note_on_c, 0, 74, 73
4, 133920, Note_on_c, 0, 74, 0
4, 133920, Note_on_c, 0, 76, 75
4, 133920, Note_on_c, 0, 74, 89
4, 133920, Note_on_c, 0, 57, 64
4, 133920, Note_on_c, 0, 67, 64
4, 134190, Note_on_c, 0, 76, 0
4, 134190, Note_on_c, 0, 77, 75
4, 134280, Note_on_c, 0, 77, 0
4, 134280, Note_on_c, 0, 79, 78
4, 134460, Note_on_c, 0, 79, 0
4, 134460, Note_on_c, 0, 77, 67
4, 134550, Note_on_c, 0, 77, 0
4, 134550, Note_on_c, 0, 76, 64
4, 134640, Note_on_c, 0, 76, 0
4, 134640, Note_on_c, 0, 74, 0
4, 134640, Note_on_c, 0, 57, 0
4, 134640, Note_on_c, 0, 67, 0
4, 134640, Note_on_c, 0, 81, 81
4, 134640, Note_on_c, 0, 73, 90
4, 134640, Note_on_c, 0, 64, 63
4, 134640, Note_on_c, 0, 57, 86
4, 134910, Note_on_c, 0, 64, 0
4, 134910, Note_on_c, 0, 65, 73
4, 135000, Note_on_c, 0, 65, 0
4, 135000, Note_on_c, 0, 81, 0
4, 135000, Note_on_c, 0, 76, 63
4, 135000, Note_on_c, 0, 67, 77
4, 135180, Note_on_c, 0, 67, 0
4, 135180, Note_on_c, 0, 65, 66
4, 135270, Note_on_c, 0, 65, 0
4, 135270, Note_on_c, 0, 64, 65
4, 135360, Note_on_c, 0, 64, 0
4, 135360, Note_on_c, 0, 57, 0
4, 135360, Note_on_c, 0, 73, 0
4, 135360, Note_on_c, 0, 76, 0
4, 135360, Note_on_c, 0, 81, 83
4, 135360, Note_on_c, 0, 74, 110
4, 135360, Note_on_c, 0, 77, 110
4, 135360, Note_on_c, 0, 72, 87
4, 135360, Note_on_c, 0, 62, 108
4, 135630, Note_on_c, 0, 72, 0
4, 135630, Note_on_c, 0, 81, 0
4, 135630, Note_on_c, 0, 82, 73
4, 135630, Note_on_c, 0, 70, 69
4, 135720, Note_on_c, 0, 70, 0
4, 135720, Note_on_c, 0, 82, 0
4, 135720, Note_on_c, 0, 84, 75
4, 135720, Note_on_c, 0, 69, 62
4, 135900, Note_on_c, 0, 69, 0
4, 135900, Note_on_c, 0, 84, 0
4, 135900, Note_on_c, 0, 82, 60
4, 135900, Note_on_c, 0, 70, 72
4, 135990, Note_on_c, 0, 70, 0
4, 135990, Note_on_c, 0, 82, 0
4, 135990, Note_on_c, 0, 81, 73
4, 135990, Note_on_c, 0, 72, 77
4, 136080, Note_on_c, 0, 72, 0
4, 136080, Note_on_c, 0, 81, 0
4, 136080, Note_on_c, 0, 86, 81
4, 136080, Note_on_c, 0, 69, 67
4, 136260, Note_on_c, 0, 86, 0
4, 136260, Note_on_c, 0, 81, 60
4, 136350, Note_on_c, 0, 81, 0
4, 136350, Note_on_c, 0, 69, 0
4, 136350, Note_on_c, 0, 62, 0
4, 136350, Note_on_c, 0, 77, 0
4, 136350, Note_on_c, 0, 74, 0
4, 137250, Note_on_c, 0, 50, 73
4, 137340, Note_on_c, 0, 50, 0
4, 137340, Note_on_c, 0, 51, 83
4, 137430, Note_on_c, 0, 51, 0
4, 137430, Note_on_c, 0, 53, 85
4, 137520, Note_on_c, 0, 53, 0
4, 137520, Note_on_c, 0, 56, 88
4, 137610, Note_on_c, 0, 44, 76
4, 137700, Note_on_c, 0, 44, 0
4, 137700, Note_on_c, 0, 46, 84
4, 137790, Note_on_c, 0, 46, 0
4, 137790, Note_on_c, 0, 47, 85
4, 137880, Note_on_c, 0, 47, 0
4, 137880, Note_on_c, 0, 50, 86
4, 137880, Note_on_c, 0, 53, 86
4, 137970, Note_on_c, 0, 41, 73
4, 138060, Note_on_c, 0, 41, 0
4, 138060, Note_on_c, 0, 43, 88
4, 138150, Note_on_c, 0, 43, 0
4, 138150, Note_on_c, 0, 44, 87
4, 138240, Note_on_c, 0, 44, 0
4, 138240, Note_on_c, 0, 48, 88
4, 139320, Note_on_c, 0, 48, 0
4, 139320, Note_on_c, 0, 53, 0
4, 139320, Note_on_c, 0, 50, 0
4, 139320, Note_on_c, 0, 56, 0
4, 139320, Note_on_c, 0, 55, 83
4, 139320, Note_on_c, 0, 50, 96
4, 139320, Note_on_c, 0, 53, 96
4, 139320, Note_on_c, 0, 47, 81
4, 139500, Note_on_c, 0, 47, 0
4, 139500, Note_on_c, 0, 55, 0
4, 139500, Note_on_c, 0, 50, 0
4, 139500, Note_on_c, 0, 53, 0
4, 140130, Note_on_c, 0, 55, 75
4, 140220, Note_on_c, 0, 55, 0
4, 140220, Note_on_c, 0, 56, 82
4, 140310, Note_on_c, 0, 56, 0
4, 140310, Note_on_c, 0, 58, 89
4, 140400, Note_on_c, 0, 58, 0
4, 140400, Note_on_c, 0, 61, 91
4, 140490, Note_on_c, 0, 49, 78
4, 140580, Note_on_c, 0, 49, 0
4, 140580, Note_on_c, 0, 51, 88
4, 140670, Note_on_c, 0, 51, 0
4, 140670, Note_on_c, 0, 52, 85
4, 140760, Note_on_c, 0, 52, 0
4, 140760, Note_on_c, 0, 55, 83
4, 140760, Note_on_c, 0, 58, 83
4, 140850, Note_on_c, 0, 46, 74
4, 140940, Note_on_c, 0, 46, 0
4, 140940, Note_on_c, 0, 48, 84
4, 141030, Note_on_c, 0, 48, 0
4, 141030, Note_on_c, 0, 49, 88
4, 141120, Note_on_c, 0, 49, 0
4, 141120, Note_on_c, 0, 53, 93
4, 142200, Note_on_c, 0, 53, 0
4, 142200, Note_on_c, 0, 58, 0
4, 142200, Note_on_c, 0, 55, 0
4, 142200, Note_on_c, 0, 61, 0
4, 142200, Note_on_c, 0, 60, 80
4, 142200, Note_on_c, 0, 55, 93
4, 142200, Note_on_c, 0, 58, 93
4, 142200, Note_on_c, 0, 52, 82
4, 142380, Note_on_c, 0, 52, 0
4, 142380, Note_on_c, 0, 60, 0
4, 142380, Note_on_c, 0, 55, 0
4, 142380, Note_on_c, 0, 58, 0
4, 142740, Note_on_c, 0, 29, 78
4, 142740, Note_on_c, 0, 41, 78
4, 142920, Note_on_c, 0, 41, 0
4, 142920, Note_on_c, 0, 29, 0
4, 142920, Note_on_c, 0, 31, 84
4, 142920, Note_on_c, 0, 43, 84
4, 143100, Note_on_c, 0, 43, 0
4, 143100, Note_on_c, 0, 31, 0
4, 143100, Note_on_c, 0, 32, 87
4, 143100, Note_on_c, 0, 44, 87
4, 143280, Note_on_c, 0, 44, 0
4, 143280, Note_on_c, 0, 32, 0
4, 143280, Note_on_c, 0, 36, 89
4, 143280, Note_on_c, 0, 48, 89
4, 143640, Note_on_c, 0, 50, 104
4, 144000, Note_on_c, 0, 48, 0
4, 144000, Note_on_c, 0, 36, 0
4, 144000, Note_on_c, 0, 35, 81
4, 144000, Note_on_c, 0, 47, 81
4, 144180, Note_on_c, 0, 50, 0
4, 144180, Note_on_c, 0, 50, 81
4, 144360, Note_on_c, 0, 50, 0
4, 144360, Note_on_c, 0, 47, 0
4, 144360, Note_on_c, 0, 35, 0
4, 144360, Note_on_c, 0, 52, 83
4, 144360, Note_on_c, 0, 50, 88
4, 144360, Note_on_c, 0, 34, 83
4, 144360, Note_on_c, 0, 46, 83
4, 144540, Note_on_c, 0, 52, 0
4, 144540, Note_on_c, 0, 55, 85
4, 144720, Note_on_c, 0, 55, 0
4, 144720, Note_on_c, 0, 46, 0
4, 144720, Note_on_c, 0, 34, 0
4, 144720, Note_on_c, 0, 50, 0
4, 144720, Note_on_c, 0, 60, 92
4, 144720, Note_on_c, 0, 48, 96
4, 144720, Note_on_c, 0, 53, 96
4, 144720, Note_on_c, 0, 32, 77
4, 144720, Note_on_c, 0, 44, 77
4, 145080, Note_on_c, 0, 44, 0
4, 145080, Note_on_c, 0, 53, 0
4, 145080, Note_on_c, 0, 32, 0
4, 145080, Note_on_c, 0, 48, 0
4, 145080, Note_on_c, 0, 52, 99
4, 145080, Note_on_c, 0, 58, 99
4, 145080, Note_on_c, 0, 31, 82
4, 145080, Note_on_c, 0, 43, 82
4, 145440, Note_on_c, 0, 43, 0
4, 145440, Note_on_c, 0, 58, 0
4, 145440, Note_on_c, 0, 31, 0
4, 145440, Note_on_c, 0, 52, 0
4, 145440, Note_on_c, 0, 53, 94
4, 145440, Note_on_c, 0, 56, 94
4, 145440, Note_on_c, 0, 29, 81
4, 145440, Note_on_c, 0, 41, 81
4, 145620, Note_on_c, 0, 60, 0
4, 145620, Note_on_c, 0, 60, 82
4, 145800, Note_on_c, 0, 60, 0
4, 145800, Note_on_c, 0, 41, 0
4, 145800, Note_on_c, 0, 53, 0
4, 145800, Note_on_c, 0, 56, 0
4, 145800, Note_on_c, 0, 29, 0
4, 145800, Note_on_c, 0, 62, 90
4, 145800, Note_on_c, 0, 56, 108
4, 145800, Note_on_c, 0, 60, 108
4, 145800, Note_on_c, 0, 27, 83
4, 145800, Note_on_c, 0, 39, 83
4, 145980, Note_on_c, 0, 62, 0
4, 145980, Note_on_c, 0, 63, 86
4, 146160, Note_on_c, 0, 63, 0
4, 146160, Note_on_c, 0, 39, 0
4, 146160, Note_on_c, 0, 56, 0
4, 146160, Note_on_c, 0, 60, 0
4, 146160, Note_on_c, 0, 27, 0
4, 146160, Note_on_c, 0, 65, 87
4, 146160, Note_on_c, 0, 56, 96
4, 146160, Note_on_c, 0, 60, 96
4, 146160, Note_on_c, 0, 26, 81
4, 146160, Note_on_c, 0, 38, 81
4, 146520, Note_on_c, 0, 38, 0
4, 146520, Note_on_c, 0, 60, 0
4, 146520, Note_on_c, 0, 65, 0
4, 146520, Note_on_c, 0, 56, 0
4, 146520, Note_on_c, 0, 26, 0
4, 146520, Note_on_c, 0, 67, 92
4, 146520, Note_on_c, 0, 53, 97
4, 146520, Note_on_c, 0, 59, 97
4, 146520, Note_on_c, 0, 31, 91
4, 146520, Note_on_c, 0, 43, 91
4, 146790, Note_on_c, 0, 67, 0
4, 146790, Note_on_c, 0, 63, 77
4, 146880, Note_on_c, 0, 63, 0
4, 146880, Note_on_c, 0, 43, 0
4, 146880, Note_on_c, 0, 53, 0
4, 146880, Note_on_c, 0, 59, 0
4, 146880, Note_on_c, 0, 31, 0
4, 146880, Note_on_c, 0, 60, 70
4, 146880, Note_on_c, 0, 51, 90
4, 146880, Note_on_c, 0, 55, 90
4, 146880, Note_on_c, 0, 36, 88
4, 146880, Note_on_c, 0, 48, 88
4, 147060, Note_on_c, 0, 48, 0
4, 147060, Note_on_c, 0, 55, 0
4, 147060, Note_on_c, 0, 60, 0
4, 147060, Note_on_c, 0, 51, 0
4, 147060, Note_on_c, 0, 36, 0
4, 147060, Note_on_c, 0, 39, 83
4, 147060, Note_on_c, 0, 51, 83
4, 147240, Note_on_c, 0, 51, 0
4, 147240, Note_on_c, 0, 39, 0
4, 147240, Note_on_c, 0, 41, 89
4, 147240, Note_on_c, 0, 53, 89
4, 147420, Note_on_c, 0, 53, 0
4, 147420, Note_on_c, 0, 41, 0
4, 147420, Note_on_c, 0, 42, 85
4, 147420, Note_on_c, 0, 54, 85
4, 147600, Note_on_c, 0, 54, 0
4, 147600, Note_on_c, 0, 42, 0
4, 147600, Note_on_c, 0, 46, 90
4, 147600, Note_on_c, 0, 58, 90
4, 147960, Note_on_c, 0, 60, 74
4, 148320, Note_on_c, 0, 58, 0
4, 148320, Note_on_c, 0, 46, 0
4, 148320, Note_on_c, 0, 45, 84
4, 148320, Note_on_c, 0, 57, 84
4, 148500, Note_on_c, 0, 60, 0
4, 148500, Note_on_c, 0, 60, 85
4, 148680, Note_on_c, 0, 60, 0
4, 148680, Note_on_c, 0, 57, 0
4, 148680, Note_on_c, 0, 45, 0
4, 148680, Note_on_c, 0, 62, 87
4, 148680, Note_on_c, 0, 59, 85
4, 148680, Note_on_c, 0, 44, 78
4, 148680, Note_on_c, 0, 56, 78
4, 148860, Note_on_c, 0, 62, 0
4, 148860, Note_on_c, 0, 65, 86
4, 149040, Note_on_c, 0, 65, 0
4, 149040, Note_on_c, 0, 56, 0
4, 149040, Note_on_c, 0, 44, 0
4, 149040, Note_on_c, 0, 59, 0
4, 149040, Note_on_c, 0, 70, 98
4, 149040, Note_on_c, 0, 58, 105
4, 149040, Note_on_c, 0, 63, 105
4, 149040, Note_on_c, 0, 42, 84
4, 149040, Note_on_c, 0, 54, 84
4, 149400, Note_on_c, 0, 54, 0
4, 149400, Note_on_c, 0, 63, 0
4, 149400, Note_on_c, 0, 42, 0
4, 149400, Note_on_c, 0, 58, 0
4, 149400, Note_on_c, 0, 62, 111
4, 149400, Note_on_c, 0, 68, 111
4, 149400, Note_on_c, 0, 41, 84
4, 149400, Note_on_c, 0, 53, 84
4, 149760, Note_on_c, 0, 53, 0
4, 149760, Note_on_c, 0, 68, 0
4, 149760, Note_on_c, 0, 41, 0
4, 149760, Note_on_c, 0, 62, 0
4, 149760, Note_on_c, 0, 63, 92
4, 149760, Note_on_c, 0, 66, 92
4, 149760, Note_on_c, 0, 39, 84
4, 149760, Note_on_c, 0, 51, 84
4, 149940, Note_on_c, 0, 70, 0
4, 149940, Note_on_c, 0, 70, 82
4, 150120, Note_on_c, 0, 70, 0
4, 150120, Note_on_c, 0, 51, 0
4, 150120, Note_on_c, 0, 63, 0
4, 150120, Note_on_c, 0, 66, 0
4, 150120, Note_on_c, 0, 39, 0
4, 150120, Note_on_c, 0, 72, 85
4, 150120, Note_on_c, 0, 66, 103
4, 150120, Note_on_c, 0, 70, 103
4, 150120, Note_on_c, 0, 37, 80
4, 150120, Note_on_c, 0, 49, 80
4, 150300, Note_on_c, 0, 72, 0
4, 150300, Note_on_c, 0, 73, 84
4, 150480, Note_on_c, 0, 73, 0
4, 150480, Note_on_c, 0, 49, 0
4, 150480, Note_on_c, 0, 66, 0
4, 150480, Note_on_c, 0, 70, 0
4, 150480, Note_on_c, 0, 37, 0
4, 150480, Note_on_c, 0, 75, 90
4, 150480, Note_on_c, 0, 66, 101
4, 150480, Note_on_c, 0, 70, 101
4, 150480, Note_on_c, 0, 36, 83
4, 150480, Note_on_c, 0, 48, 83
4, 150840, Note_on_c, 0, 48, 0
4, 150840, Note_on_c, 0, 70, 0
4, 150840, Note_on_c, 0, 75, 0
4, 150840, Note_on_c, 0, 66, 0
4, 150840, Note_on_c, 0, 36, 0
4, 150840, Note_on_c, 0, 77, 85
4, 150840, Note_on_c, 0, 63, 90
4, 150840, Note_on_c, 0, 69, 90
4, 150840, Note_on_c, 0, 41, 87
4, 150840, Note_on_c, 0, 53, 87
4, 151110, Note_on_c, 0, 77, 0
4, 151110, Note_on_c, 0, 73, 74
4, 151200, Note_on_c, 0, 73, 0
4, 151200, Note_on_c, 0, 53, 0
4, 151200, Note_on_c, 0, 63, 0
4, 151200, Note_on_c, 0, 69, 0
4, 151200, Note_on_c, 0, 41, 0
4, 151200, Note_on_c, 0, 61, 74
4, 151200, Note_on_c, 0, 65, 74
4, 151200, Note_on_c, 0, 70, 74
4, 151200, Note_on_c, 0, 34, 75
4, 151200, Note_on_c, 0, 46, 75
4, 151380, Note_on_c, 0, 46, 0
4, 151380, Note_on_c, 0, 70, 0
4, 151380, Note_on_c, 0, 61, 0
4, 151380, Note_on_c, 0, 65, 0
4, 151380, Note_on_c, 0, 34, 0
4, 151380, Note_on_c, 0, 60, 108
4, 151560, Note_on_c, 0, 60, 0
4, 151560, Note_on_c, 0, 61, 91
4, 151740, Note_on_c, 0, 61, 0
4, 151740, Note_on_c, 0, 63, 85
4, 151920, Note_on_c, 0, 63, 0
4, 151920, Note_on_c, 0, 66, 89
4, 152100, Note_on_c, 0, 72, 77
4, 152280, Note_on_c, 0, 72, 0
4, 152280, Note_on_c, 0, 73, 83
4, 152280, Note_on_c, 0, 63, 97
4, 152280, Note_on_c, 0, 70, 97
4, 152280, Note_on_c, 0, 60, 84
4, 152460, Note_on_c, 0, 73, 0
4, 152460, Note_on_c, 0, 75, 89
4, 152640, Note_on_c, 0, 75, 0
4, 152640, Note_on_c, 0, 60, 0
4, 152640, Note_on_c, 0, 66, 0
4, 152640, Note_on_c, 0, 63, 0
4, 152640, Note_on_c, 0, 70, 0
4, 152640, Note_on_c, 0, 77, 93
4, 152640, Note_on_c, 0, 63, 88
4, 152640, Note_on_c, 0, 69, 88
4, 152640, Note_on_c, 0, 65, 80
4, 152640, Note_on_c, 0, 53, 98
4, 152640, Note_on_c, 0, 60, 98
4, 152820, Note_on_c, 0, 60, 0
4, 152820, Note_on_c, 0, 63, 0
4, 152820, Note_on_c, 0, 69, 0
4, 152820, Note_on_c, 0, 77, 0
4, 152820, Note_on_c, 0, 53, 0
4, 152820, Note_on_c, 0, 65, 0
4, 152820, Note_on_c, 0, 60, 69
4, 153000, Note_on_c, 0, 60, 0
4, 153000, Note_on_c, 0, 61, 81
4, 153180, Note_on_c, 0, 61, 0
4, 153180, Note_on_c, 0, 63, 94
4, 153360, Note_on_c, 0, 63, 0
4, 153360, Note_on_c, 0, 66, 87
4, 153540, Note_on_c, 0, 72, 74
4, 153720, Note_on_c, 0, 72, 0
4, 153720, Note_on_c, 0, 73, 88
4, 153720, Note_on_c, 0, 63, 97
4, 153720, Note_on_c, 0, 70, 97
4, 153720, Note_on_c, 0, 60, 92
4, 153900, Note_on_c, 0, 73, 0
4, 153900, Note_on_c, 0, 75, 88
4, 154080, Note_on_c, 0, 75, 0
4, 154080, Note_on_c, 0, 60, 0
4, 154080, Note_on_c, 0, 66, 0
4, 154080, Note_on_c, 0, 63, 0
4, 154080, Note_on_c, 0, 70, 0
4, 154080, Note_on_c, 0, 77, 90
4, 154080, Note_on_c, 0, 63, 91
4, 154080, Note_on_c, 0, 69, 91
4, 154080, Note_on_c, 0, 65, 81
4, 154080, Note_on_c, 0, 53, 94
4, 154080, Note_on_c, 0, 60, 94
4, 154260, Note_on_c, 0, 60, 0
4, 154260, Note_on_c, 0, 63, 0
4, 154260, Note_on_c, 0, 69, 0
4, 154260, Note_on_c, 0, 77, 0
4, 154260, Note_on_c, 0, 53, 0
4, 154260, Note_on_c, 0, 65, 0
4, 154260, Note_on_c, 0, 77, 82
4, 154440, Note_on_c, 0, 77, 0
4, 154440, Note_on_c, 0, 78, 83
4, 154440, Note_on_c, 0, 71, 86
4, 154440, Note_on_c, 0, 62, 70
4, 154440, Note_on_c, 0, 56, 89
4, 154620, Note_on_c, 0, 78, 0
4, 154620, Note_on_c, 0, 80, 91
4, 154800, Note_on_c, 0, 80, 0
4, 154800, Note_on_c, 0, 56, 0
4, 154800, Note_on_c, 0, 62, 0
4, 154800, Note_on_c, 0, 71, 0
4, 154800, Note_on_c, 0, 82, 89
4, 154800, Note_on_c, 0, 70, 93
4, 154800, Note_on_c, 0, 63, 86
4, 154800, Note_on_c, 0, 54, 91
4, 154980, Note_on_c, 0, 63, 0
4, 154980, Note_on_c, 0, 58, 80
4, 155160, Note_on_c, 0, 58, 0
4, 155160, Note_on_c, 0, 60, 89
4, 155340, Note_on_c, 0, 60, 0
4, 155340, Note_on_c, 0, 82, 0
4, 155340, Note_on_c, 0, 70, 0
4, 155340, Note_on_c, 0, 54, 0
4, 155340, Note_on_c, 0, 70, 63
4, 155340, Note_on_c, 0, 68, 90
4, 155340, Note_on_c, 0, 62, 88
4, 155340, Note_on_c, 0, 53, 94
4, 155520, Note_on_c, 0, 53, 0
4, 155520, Note_on_c, 0, 70, 0
4, 155520, Note_on_c, 0, 68, 0
4, 155520, Note_on_c, 0, 62, 0
4, 155520, Note_on_c, 0, 72, 86
4, 155520, Note_on_c, 0, 66, 99
4, 155520, Note_on_c, 0, 70, 99
4, 155520, Note_on_c, 0, 63, 89
4, 155520, Note_on_c, 0, 51, 93
4, 155700, Note_on_c, 0, 63, 0
4, 155700, Note_on_c, 0, 72, 0
4, 155700, Note_on_c, 0, 74, 88
4, 155700, Note_on_c, 0, 53, 73
4, 155880, Note_on_c, 0, 53, 0
4, 155880, Note_on_c, 0, 74, 0
4, 155880, Note_on_c, 0, 75, 90
4, 155880, Note_on_c, 0, 54, 84
4, 156060, Note_on_c, 0, 54, 0
4, 156060, Note_on_c, 0, 66, 0
4, 156060, Note_on_c, 0, 75, 0
4, 156060, Note_on_c, 0, 70, 0
4, 156060, Note_on_c, 0, 63, 60
4, 156060, Note_on_c, 0, 56, 87
4, 156240, Note_on_c, 0, 56, 0
4, 156240, Note_on_c, 0, 63, 0
4, 156240, Note_on_c, 0, 51, 0
4, 156240, Note_on_c, 0, 65, 82
4, 156240, Note_on_c, 0, 63, 86
4, 156240, Note_on_c, 0, 57, 85
4, 156240, Note_on_c, 0, 48, 94
4, 156420, Note_on_c, 0, 57, 0
4, 156420, Note_on_c, 0, 65, 0
4, 156420, Note_on_c, 0, 67, 87
4, 156420, Note_on_c, 0, 58, 87
4, 156600, Note_on_c, 0, 58, 0
4, 156600, Note_on_c, 0, 67, 0
4, 156600, Note_on_c, 0, 63, 0
4, 156600, Note_on_c, 0, 70, 87
4, 156600, Note_on_c, 0, 63, 109
4, 156600, Note_on_c, 0, 67, 109
4, 156600, Note_on_c, 0, 61, 94
4, 156780, Note_on_c, 0, 48, 0
4, 156780, Note_on_c, 0, 41, 86
4, 156960, Note_on_c, 0, 41, 0
4, 156960, Note_on_c, 0, 53, 103
4, 157140, Note_on_c, 0, 61, 0
4, 157140, Note_on_c, 0, 70, 0
4, 157140, Note_on_c, 0, 69, 80
4, 157140, Note_on_c, 0, 60, 74
4, 157320, Note_on_c, 0, 60, 0
4, 157320, Note_on_c, 0, 67, 0
4, 157320, Note_on_c, 0, 69, 0
4, 157320, Note_on_c, 0, 63, 0
4, 157320, Note_on_c, 0, 70, 86
4, 157320, Note_on_c, 0, 63, 89
4, 157320, Note_on_c, 0, 65, 89
4, 157320, Note_on_c, 0, 58, 80
4, 157500, Note_on_c, 0, 58, 0
4, 157500, Note_on_c, 0, 70, 0
4, 157500, Note_on_c, 0, 72, 88
4, 157500, Note_on_c, 0, 57, 85
4, 157680, Note_on_c, 0, 57, 0
4, 157680, Note_on_c, 0, 53, 0
4, 157680, Note_on_c, 0, 65, 0
4, 157680, Note_on_c, 0, 63, 0
4, 157680, Note_on_c, 0, 72, 0
4, 157680, Note_on_c, 0, 73, 87
4, 157680, Note_on_c, 0, 65, 111
4, 157680, Note_on_c, 0, 70, 111
4, 157680, Note_on_c, 0, 58, 84
4, 157680, Note_on_c, 0, 46, 89
4, 157860, Note_on_c, 0, 46, 0
4, 157860, Note_on_c, 0, 70, 0
4, 157860, Note_on_c, 0, 73, 0
4, 157860, Note_on_c, 0, 65, 0
4, 157860, Note_on_c, 0, 58, 0
4, 157860, Note_on_c, 0, 72, 80
4, 158040, Note_on_c, 0, 72, 0
4, 158040, Note_on_c, 0, 73, 85
4, 158040, Note_on_c, 0, 66, 84
4, 158040, Note_on_c, 0, 57, 76
4, 158040, Note_on_c, 0, 51, 90
4, 158220, Note_on_c, 0, 73, 0
4, 158220, Note_on_c, 0, 75, 89
4, 158400, Note_on_c, 0, 75, 0
4, 158400, Note_on_c, 0, 51, 0
4, 158400, Note_on_c, 0, 57, 0
4, 158400, Note_on_c, 0, 66, 0
4, 158400, Note_on_c, 0, 77, 92
4, 158400, Note_on_c, 0, 65, 93
4, 158400, Note_on_c, 0, 58, 85
4, 158400, Note_on_c, 0, 49, 94
4, 158580, Note_on_c, 0, 58, 0
4, 158580, Note_on_c, 0, 53, 81
4, 158760, Note_on_c, 0, 53, 0
4, 158760, Note_on_c, 0, 55, 84
4, 158940, Note_on_c, 0, 55, 0
4, 158940, Note_on_c, 0, 77, 0
4, 158940, Note_on_c, 0, 65, 0
4, 158940, Note_on_c, 0, 65, 59
4, 158940, Note_on_c, 0, 63, 91
4, 158940, Note_on_c, 0, 57, 85
4, 159120, Note_on_c, 0, 57, 0
4, 159120, Note_on_c, 0, 49, 0
4, 159120, Note_on_c, 0, 65, 0
4, 159120, Note_on_c, 0, 63, 0
4, 159120, Note_on_c, 0, 67, 89
4, 159120, Note_on_c, 0, 61, 100
4, 159120, Note_on_c, 0, 65, 100
4, 159120, Note_on_c, 0, 58, 89
4, 159120, Note_on_c, 0, 46, 95
4, 159300, Note_on_c, 0, 58, 0
4, 159300, Note_on_c, 0, 67, 0
4, 159300, Note_on_c, 0, 69, 93
4, 159300, Note_on_c, 0, 48, 73
4, 159480, Note_on_c, 0, 48, 0
4, 159480, Note_on_c, 0, 69, 0
4, 159480, Note_on_c, 0, 70, 92
4, 159480, Note_on_c, 0, 49, 82
4, 159660, Note_on_c, 0, 49, 0
4, 159660, Note_on_c, 0, 61, 0
4, 159660, Note_on_c, 0, 70, 0
4, 159660, Note_on_c, 0, 65, 0
4, 159660, Note_on_c, 0, 58, 73
4, 159660, Note_on_c, 0, 51, 81
4, 159840, Note_on_c, 0, 51, 0
4, 159840, Note_on_c, 0, 58, 0
4, 159840, Note_on_c, 0, 46, 0
4, 159840, Note_on_c, 0, 60, 86
4, 159840, Note_on_c, 0, 58, 85
4, 159840, Note_on_c, 0, 52, 83
4, 159840, Note_on_c, 0, 43, 91
4, 160020, Note_on_c, 0, 52, 0
4, 160020, Note_on_c, 0, 60, 0
4, 160020, Note_on_c, 0, 61, 92
4, 160020, Note_on_c, 0, 53, 84
4, 160200, Note_on_c, 0, 53, 0
4, 160200, Note_on_c, 0, 61, 0
4, 160200, Note_on_c, 0, 58, 0
4, 160200, Note_on_c, 0, 65, 90
4, 160200, Note_on_c, 0, 58, 106
4, 160200, Note_on_c, 0, 61, 106
4, 160200, Note_on_c, 0, 56, 85
4, 160380, Note_on_c, 0, 43, 0
4, 160380, Note_on_c, 0, 36, 89
4, 160560, Note_on_c, 0, 36, 0
4, 160560, Note_on_c, 0, 48, 110
4, 160740, Note_on_c, 0, 56, 0
4, 160740, Note_on_c, 0, 65, 0
4, 160740, Note_on_c, 0, 64, 81
4, 160740, Note_on_c, 0, 55, 80
4, 160920, Note_on_c, 0, 55, 0
4, 160920, Note_on_c, 0, 61, 0
4, 160920, Note_on_c, 0, 64, 0
4, 160920, Note_on_c, 0, 58, 0
4, 160920, Note_on_c, 0, 65, 89
4, 160920, Note_on_c, 0, 58, 91
4, 160920, Note_on_c, 0, 60, 91
4, 160920, Note_on_c, 0, 53, 79
4, 161100, Note_on_c, 0, 53, 0
4, 161100, Note_on_c, 0, 65, 0
4, 161100, Note_on_c, 0, 67, 88
4, 161100, Note_on_c, 0, 52, 85
4, 161280, Note_on_c, 0, 52, 0
4, 161280, Note_on_c, 0, 48, 0
4, 161280, Note_on_c, 0, 60, 0
4, 161280, Note_on_c, 0, 58, 0
4, 161280, Note_on_c, 0, 67, 0
4, 161280, Note_on_c, 0, 56, 87
4, 161280, Note_on_c, 0, 65, 87
4, 161280, Note_on_c, 0, 68, 87
4, 161280, Note_on_c, 0, 41, 85
4, 161460, Note_on_c, 0, 48, 75
4, 161640, Note_on_c, 0, 68, 0
4, 161640, Note_on_c, 0, 56, 0
4, 161640, Note_on_c, 0, 65, 0
4, 161640, Note_on_c, 0, 58, 80
4, 161640, Note_on_c, 0, 64, 80
4, 161640, Note_on_c, 0, 67, 80
4, 161820, Note_on_c, 0, 48, 0
4, 161820, Note_on_c, 0, 48, 84
4, 162000, Note_on_c, 0, 64, 0
4, 162000, Note_on_c, 0, 67, 0
4, 162000, Note_on_c, 0, 58, 0
4, 162000, Note_on_c, 0, 60, 66
4, 162000, Note_on_c, 0, 56, 87
4, 162180, Note_on_c, 0, 48, 0
4, 162180, Note_on_c, 0, 48, 86
4, 162360, Note_on_c, 0, 56, 0
4, 162360, Note_on_c, 0, 58, 99
4, 162540, Note_on_c, 0, 48, 0
4, 162540, Note_on_c, 0, 48, 85
4, 162720, Note_on_c, 0, 48, 0
4, 162720, Note_on_c, 0, 58, 0
4, 162720, Note_on_c, 0, 60, 0
4, 162720, Note_on_c, 0, 41, 0
4, 162720, Note_on_c, 0, 56, 101
4, 162720, Note_on_c, 0, 65, 101
4, 162720, Note_on_c, 0, 68, 101
4, 162720, Note_on_c, 0, 41, 94
4, 162900, Note_on_c, 0, 48, 78
4, 163080, Note_on_c, 0, 68, 0
4, 163080, Note_on_c, 0, 56, 0
4, 163080, Note_on_c, 0, 65, 0
4, 163080, Note_on_c, 0, 58, 83
4, 163080, Note_on_c, 0, 64, 83
4, 163080, Note_on_c, 0, 67, 83
4, 163260, Note_on_c, 0, 48, 0
4, 163260, Note_on_c, 0, 48, 80
4, 163440, Note_on_c, 0, 64, 0
4, 163440, Note_on_c, 0, 67, 0
4, 163440, Note_on_c, 0, 58, 0
4, 163440, Note_on_c, 0, 56, 68
4, 163440, Note_on_c, 0, 60, 68
4, 163620, Note_on_c, 0, 48, 0
4, 163620, Note_on_c, 0, 48, 83
4, 163800, Note_on_c, 0, 48, 0
4, 163800, Note_on_c, 0, 60, 0
4, 163800, Note_on_c, 0, 56, 0
4, 163800, Note_on_c, 0, 41, 0
4, 163800, Note_on_c, 0, 55, 86
4, 163800, Note_on_c, 0, 61, 86
4, 163800, Note_on_c, 0, 51, 89
4, 163800, Note_on_c, 0, 39, 93
4, 164160, Note_on_c, 0, 39, 0
4, 164160, Note_on_c, 0, 55, 0
4, 164160, Note_on_c, 0, 61, 0
4, 164160, Note_on_c, 0, 51, 0
4, 164160, Note_on_c, 0, 60, 103
4, 164160, Note_on_c, 0, 68, 103
4, 164160, Note_on_c, 0, 72, 103
4, 164160, Note_on_c, 0, 44, 102
4, 164340, Note_on_c, 0, 51, 74
4, 164520, Note_on_c, 0, 72, 0
4, 164520, Note_on_c, 0, 60, 0
4, 164520, Note_on_c, 0, 68, 0
4, 164520, Note_on_c, 0, 61, 79
4, 164520, Note_on_c, 0, 67, 79
4, 164520, Note_on_c, 0, 70, 79
4, 164700, Note_on_c, 0, 51, 0
4, 164700, Note_on_c, 0, 51, 82
4, 164880, Note_on_c, 0, 67, 0
4, 164880, Note_on_c, 0, 70, 0
4, 164880, Note_on_c, 0, 61, 0
4, 164880, Note_on_c, 0, 63, 68
4, 164880, Note_on_c, 0, 60, 99
4, 165060, Note_on_c, 0, 51, 0
4, 165060, Note_on_c, 0, 51, 82
4, 165240, Note_on_c, 0, 60, 0
4, 165240, Note_on_c, 0, 61, 100
4, 165420, Note_on_c, 0, 51, 0
4, 165420, Note_on_c, 0, 51, 83
4, 165600, Note_on_c, 0, 51, 0
4, 165600, Note_on_c, 0, 61, 0
4, 165600, Note_on_c, 0, 63, 0
4, 165600, Note_on_c, 0, 44, 0
4, 165600, Note_on_c, 0, 60, 100
4, 165600, Note_on_c, 0, 68, 100
4, 165600, Note_on_c, 0, 72, 100
4, 165600, Note_on_c, 0, 44, 94
4, 165780, Note_on_c, 0, 51, 72
4, 165960, Note_on_c, 0, 72, 0
4, 165960, Note_on_c, 0, 60, 0
4, 165960, Note_on_c, 0, 68, 0
4, 165960, Note_on_c, 0, 61, 79
4, 165960, Note_on_c, 0, 67, 79
4, 165960, Note_on_c, 0, 70, 79
4, 166140, Note_on_c, 0, 51, 0
4, 166140, Note_on_c, 0, 51, 86
4, 166320, Note_on_c, 0, 67, 0
4, 166320, Note_on_c, 0, 70, 0
4, 166320, Note_on_c, 0, 61, 0
4, 166320, Note_on_c, 0, 60, 64
4, 166320, Note_on_c, 0, 63, 64
4, 166500, Note_on_c, 0, 51, 0
4, 166500, Note_on_c, 0, 51, 83
4, 166680, Note_on_c, 0, 51, 0
4, 166680, Note_on_c, 0, 63, 0
4, 166680, Note_on_c, 0, 60, 0
4, 166680, Note_on_c, 0, 44, 0
4, 166680, Note_on_c, 0, 59, 81
4, 166680, Note_on_c, 0, 65, 81
4, 166680, Note_on_c, 0, 55, 91
4, 166680, Note_on_c, 0, 43, 95
4, 167040, Note_on_c, 0, 43, 0
4, 167040, Note_on_c, 0, 59, 0
4, 167040, Note_on_c, 0, 65, 0
4, 167040, Note_on_c, 0, 55, 0
4, 167040, Note_on_c, 0, 64, 106
4, 167040, Note_on_c, 0, 72, 106
4, 167040, Note_on_c, 0, 76, 106
4, 167040, Note_on_c, 0, 36, 87
4, 167220, Note_on_c, 0, 55, 75
4, 167400, Note_on_c, 0, 76, 0
4, 167400, Note_on_c, 0, 64, 0
4, 167400, Note_on_c, 0, 72, 0
4, 167400, Note_on_c, 0, 65, 80
4, 167400, Note_on_c, 0, 71, 80
4, 167400, Note_on_c, 0, 74, 80
4, 167580, Note_on_c, 0, 55, 0
4, 167580, Note_on_c, 0, 55, 79
4, 167760, Note_on_c, 0, 71, 0
4, 167760, Note_on_c, 0, 74, 0
4, 167760, Note_on_c, 0, 65, 0
4, 167760, Note_on_c, 0, 67, 72
4, 167760, Note_on_c, 0, 64, 106
4, 167940, Note_on_c, 0, 55, 0
4, 167940, Note_on_c, 0, 55, 83
4, 168120, Note_on_c, 0, 64, 0
4, 168120, Note_on_c, 0, 65, 104
4, 168300, Note_on_c, 0, 55, 0
4, 168300, Note_on_c, 0, 55, 82
4, 168480, Note_on_c, 0, 55, 0
4, 168480, Note_on_c, 0, 65, 0
4, 168480, Note_on_c, 0, 67, 0
4, 168480, Note_on_c, 0, 36, 0
4, 168480, Note_on_c, 0, 64, 100
4, 168480, Note_on_c, 0, 72, 100
4, 168480, Note_on_c, 0, 76, 100
4, 168480, Note_on_c, 0, 36, 95
4, 168660, Note_on_c, 0, 55, 74
4, 168840, Note_on_c, 0, 76, 0
4, 168840, Note_on_c, 0, 64, 0
4, 168840, Note_on_c, 0, 72, 0
4, 168840, Note_on_c, 0, 65, 84
4, 168840, Note_on_c, 0, 71, 84
4, 168840, Note_on_c, 0, 74, 84
4, 169020, Note_on_c, 0, 55, 0
4, 169020, Note_on_c, 0, 55, 80
4, 169200, Note_on_c, 0, 71, 0
4, 169200, Note_on_c, 0, 74, 0
4, 169200, Note_on_c, 0, 65, 0
4, 169200, Note_on_c, 0, 67, 68
4, 169200, Note_on_c, 0, 64, 85
4, 169380, Note_on_c, 0, 55, 0
4, 169380, Note_on_c, 0, 55, 86
4, 169560, Note_on_c, 0, 64, 0
4, 169560, Note_on_c, 0, 65, 99
4, 169740, Note_on_c, 0, 55, 0
4, 169740, Note_on_c, 0, 55, 85
4, 169920, Note_on_c, 0, 55, 0
4, 169920, Note_on_c, 0, 65, 0
4, 169920, Note_on_c, 0, 67, 0
4, 169920, Note_on_c, 0, 36, 0
4, 169920, Note_on_c, 0, 67, 95
4, 169920, Note_on_c, 0, 72, 95
4, 169920, Note_on_c, 0, 48, 105
4, 169920, Note_on_c, 0, 55, 105
4, 169920, Note_on_c, 0, 64, 105
4, 170100, Note_on_c, 0, 72, 0
4, 170100, Note_on_c, 0, 67, 0
4, 170100, Note_on_c, 0, 80, 102
4, 170280, Note_on_c, 0, 80, 0
4, 170280, Note_on_c, 0, 79, 85
4, 170460, Note_on_c, 0, 79, 0
4, 170460, Note_on_c, 0, 76, 74
4, 170640, Note_on_c, 0, 76, 0
4, 170640, Note_on_c, 0, 72, 75
4, 170820, Note_on_c, 0, 72, 0
4, 170820, Note_on_c, 0, 68, 72
4, 171000, Note_on_c, 0, 68, 0
4, 171000, Note_on_c, 0, 67, 79
4, 171180, Note_on_c, 0, 67, 0
4, 171180, Note_on_c, 0, 55, 0
4, 171180, Note_on_c, 0, 48, 0
4, 171180, Note_on_c, 0, 64, 0
4, 171180, Note_on_c, 0, 64, 74
4, 171360, Note_on_c, 0, 64, 0
4, 171360, Note_on_c, 0, 60, 75
4, 171540, Note_on_c, 0, 60, 0
4, 171540, Note_on_c, 0, 56, 72
4, 171720, Note_on_c, 0, 56, 0
4, 171720, Note_on_c, 0, 55, 83
4, 171900, Note_on_c, 0, 55, 0
4, 171900, Note_on_c, 0, 52, 81
4, 172080, Note_on_c, 0, 52, 0
4, 172080, Note_on_c, 0, 48, 79
4, 172260, Note_on_c, 0, 48, 0
4, 172260, Note_on_c, 0, 44, 76
4, 172440, Note_on_c, 0, 44, 0
4, 172440, Note_on_c, 0, 43, 81
4, 172620, Note_on_c, 0, 43, 0
4, 172620, Note_on_c, 0, 40, 77
4, 172800, Note_on_c, 0, 40, 0
4, 172800, Note_on_c, 0, 36, 78
4, 172980, Note_on_c, 0, 36, 0
4, 173250, Note_on_c, 0, 60, 72
4, 173340, Note_on_c, 0, 60, 0
4, 173340, Note_on_c, 0, 61, 89
4, 173430, Note_on_c, 0, 61, 0
4, 173430, Note_on_c, 0, 63, 92
4, 173520, Note_on_c, 0, 63, 0
4, 173520, Note_on_c, 0, 66, 96
4, 173610, Note_on_c, 0, 54, 76
4, 173700, Note_on_c, 0, 54, 0
4, 173700, Note_on_c, 0, 56, 82
4, 173790, Note_on_c, 0, 56, 0
4, 173790, Note_on_c, 0, 57, 86
4, 173880, Note_on_c, 0, 57, 0
4, 173880, Note_on_c, 0, 60, 93
4, 173880, Note_on_c, 0, 63, 93
4, 173970, Note_on_c, 0, 51, 78
4, 174060, Note_on_c, 0, 51, 0
4, 174060, Note_on_c, 0, 53, 84
4, 174150, Note_on_c, 0, 53, 0
4, 174150, Note_on_c, 0, 54, 88
4, 174240, Note_on_c, 0, 54, 0
4, 174240, Note_on_c, 0, 58, 89
4, 175320, Note_on_c, 0, 58, 0
4, 175320, Note_on_c, 0, 63, 0
4, 175320, Note_on_c, 0, 60, 0
4, 175320, Note_on_c, 0, 66, 0
4, 175320, Note_on_c, 0, 65, 78
4, 175320, Note_on_c, 0, 60, 99
4, 175320, Note_on_c, 0, 63, 99
4, 175320, Note_on_c, 0, 57, 82
4, 175500, Note_on_c, 0, 57, 0
4, 175500, Note_on_c, 0, 65, 0
4, 175500, Note_on_c, 0, 60, 0
4, 175500, Note_on_c, 0, 63, 0
4, 175860, Note_on_c, 0, 34, 76
4, 175860, Note_on_c, 0, 46, 76
4, 176040, Note_on_c, 0, 46, 0
4, 176040, Note_on_c, 0, 34, 0
4, 176040, Note_on_c, 0, 36, 83
4, 176040, Note_on_c, 0, 48, 83
4, 176220, Note_on_c, 0, 48, 0
4, 176220, Note_on_c, 0, 36, 0
4, 176220, Note_on_c, 0, 37, 85
4, 176220, Note_on_c, 0, 49, 85
4, 176400, Note_on_c, 0, 49, 0
4, 176400, Note_on_c, 0, 37, 0
4, 176400, Note_on_c, 0, 41, 92
4, 176400, Note_on_c, 0, 53, 92
4, 176760, Note_on_c, 0, 55, 96
4, 177120, Note_on_c, 0, 53, 0
4, 177120, Note_on_c, 0, 41, 0
4, 177120, Note_on_c, 0, 40, 82
4, 177120, Note_on_c, 0, 52, 82
4, 177300, Note_on_c, 0, 55, 0
4, 177300, Note_on_c, 0, 55, 81
4, 177480, Note_on_c, 0, 55, 0
4, 177480, Note_on_c, 0, 52, 0
4, 177480, Note_on_c, 0, 40, 0
4, 177480, Note_on_c, 0, 57, 85
4, 177480, Note_on_c, 0, 54, 88
4, 177480, Note_on_c, 0, 39, 76
4, 177480, Note_on_c, 0, 51, 76
4, 177660, Note_on_c, 0, 57, 0
4, 177660, Note_on_c, 0, 60, 89
4, 177840, Note_on_c, 0, 60, 0
4, 177840, Note_on_c, 0, 51, 0
4, 177840, Note_on_c, 0, 39, 0
4, 177840, Note_on_c, 0, 54, 0
4, 177840, Note_on_c, 0, 65, 96
4, 177840, Note_on_c, 0, 53, 101
4, 177840, Note_on_c, 0, 58, 101
4, 177840, Note_on_c, 0, 37, 81
4, 177840, Note_on_c, 0, 49, 81
4, 178200, Note_on_c, 0, 49, 0
4, 178200, Note_on_c, 0, 58, 0
4, 178200, Note_on_c, 0, 37, 0
4, 178200, Note_on_c, 0, 53, 0
4, 178200, Note_on_c, 0, 57, 110
4, 178200, Note_on_c, 0, 63, 110
4, 178200, Note_on_c, 0, 36, 81
4, 178200, Note_on_c, 0, 48, 81
4, 178560, Note_on_c, 0, 48, 0
4, 178560, Note_on_c, 0, 63, 0
4, 178560, Note_on_c, 0, 36, 0
4, 178560, Note_on_c, 0, 57, 0
4, 178560, Note_on_c, 0, 58, 94
4, 178560, Note_on_c, 0, 61, 94
4, 178560, Note_on_c, 0, 34, 85
4, 178560, Note_on_c, 0, 46, 85
4, 178740, Note_on_c, 0, 65, 0
4, 178740, Note_on_c, 0, 65, 85
4, 178920, Note_on_c, 0, 65, 0
4, 178920, Note_on_c, 0, 46, 0
4, 178920, Note_on_c, 0, 58, 0
4, 178920, Note_on_c, 0, 61, 0
4, 178920, Note_on_c, 0, 34, 0
4, 178920, Note_on_c, 0, 67, 90
4, 178920, Note_on_c, 0, 61, 107
4, 178920, Note_on_c, 0, 65, 107
4, 178920, Note_on_c, 0, 32, 78
4, 178920, Note_on_c, 0, 44, 78
4, 179100, Note_on_c, 0, 67, 0
4, 179100, Note_on_c, 0, 68, 91
4, 179280, Note_on_c, 0, 68, 0
4, 179280, Note_on_c, 0, 44, 0
4, 179280, Note_on_c, 0, 61, 0
4, 179280, Note_on_c, 0, 65, 0
4, 179280, Note_on_c, 0, 32, 0
4, 179280, Note_on_c, 0, 70, 85
4, 179280, Note_on_c, 0, 61, 99
4, 179280, Note_on_c, 0, 65, 99
4, 179280, Note_on_c, 0, 31, 84
4, 179280, Note_on_c, 0, 43, 84
4, 179640, Note_on_c, 0, 43, 0
4, 179640, Note_on_c, 0, 65, 0
4, 179640, Note_on_c, 0, 70, 0
4, 179640, Note_on_c, 0, 61, 0
4, 179640, Note_on_c, 0, 31, 0
4, 179640, Note_on_c, 0, 72, 86
4, 179640, Note_on_c, 0, 58, 90
4, 179640, Note_on_c, 0, 64, 90
4, 179640, Note_on_c, 0, 36, 86
4, 179640, Note_on_c, 0, 48, 86
4, 179910, Note_on_c, 0, 72, 0
4, 179910, Note_on_c, 0, 68, 76
4, 180000, Note_on_c, 0, 68, 0
4, 180000, Note_on_c, 0, 48, 0
4, 180000, Note_on_c, 0, 58, 0
4, 180000, Note_on_c, 0, 64, 0
4, 180000, Note_on_c, 0, 36, 0
4, 180000, Note_on_c, 0, 56, 74
4, 180000, Note_on_c, 0, 60, 74
4, 180000, Note_on_c, 0, 65, 74
4, 180000, Note_on_c, 0, 41, 88
4, 180000, Note_on_c, 0, 53, 88
4, 180180, Note_on_c, 0, 53, 0
4, 180180, Note_on_c, 0, 65, 0
4, 180180, Note_on_c, 0, 56, 0
4, 180180, Note_on_c, 0, 60, 0
4, 180180, Note_on_c, 0, 41, 0
4, 180180, Note_on_c, 0, 41, 84
4, 180180, Note_on_c, 0, 53, 84
4, 180360, Note_on_c, 0, 53, 0
4, 180360, Note_on_c, 0, 41, 0
4, 180360, Note_on_c, 0, 43, 87
4, 180360, Note_on_c, 0, 55, 87
4, 180540, Note_on_c, 0, 55, 0
4, 180540, Note_on_c, 0, 43, 0
4, 180540, Note_on_c, 0, 44, 81
4, 180540, Note_on_c, 0, 56, 81
4, 180720, Note_on_c, 0, 56, 0
4, 180720, Note_on_c, 0, 44, 0
4, 180720, Note_on_c, 0, 48, 94
4, 180720, Note_on_c, 0, 60, 94
4, 181080, Note_on_c, 0, 62, 76
4, 181440, Note_on_c, 0, 60, 0
4, 181440, Note_on_c, 0, 48, 0
4, 181440, Note_on_c, 0, 47, 81
4, 181440, Note_on_c, 0, 59, 81
4, 181620, Note_on_c, 0, 62, 0
4, 181620, Note_on_c, 0, 62, 82
4, 181800, Note_on_c, 0, 62, 0
4, 181800, Note_on_c, 0, 59, 0
4, 181800, Note_on_c, 0, 47, 0
4, 181800, Note_on_c, 0, 64, 91
4, 181800, Note_on_c, 0, 61, 89
4, 181800, Note_on_c, 0, 46, 79
4, 181800, Note_on_c, 0, 58, 79
4, 181980, Note_on_c, 0, 64, 0
4, 181980, Note_on_c, 0, 67, 89
4, 182160, Note_on_c, 0, 67, 0
4, 182160, Note_on_c, 0, 58, 0
4, 182160, Note_on_c, 0, 46, 0
4, 182160, Note_on_c, 0, 61, 0
4, 182160, Note_on_c, 0, 72, 96
4, 182160, Note_on_c, 0, 60, 108
4, 182160, Note_on_c, 0, 65, 108
4, 182160, Note_on_c, 0, 44, 82
4, 182160, Note_on_c, 0, 56, 82
4, 182520, Note_on_c, 0, 56, 0
4, 182520, Note_on_c, 0, 65, 0
4, 182520, Note_on_c, 0, 44, 0
4, 182520, Note_on_c, 0, 60, 0
4, 182520, Note_on_c, 0, 64, 108
4, 182520, Note_on_c, 0, 70, 108
4, 182520, Note_on_c, 0, 43, 83
4, 182520, Note_on_c, 0, 55, 83
4, 182880, Note_on_c, 0, 55, 0
4, 182880, Note_on_c, 0, 70, 0
4, 182880, Note_on_c, 0, 43, 0
4, 182880, Note_on_c, 0, 64, 0
4, 182880, Note_on_c, 0, 65, 90
4, 182880, Note_on_c, 0, 68, 90
4, 182880, Note_on_c, 0, 41, 79
4, 182880, Note_on_c, 0, 53, 79
4, 183060, Note_on_c, 0, 72, 0
4, 183060, Note_on_c, 0, 72, 81
4, 183240, Note_on_c, 0, 72, 0
4, 183240, Note_on_c, 0, 53, 0
4, 183240, Note_on_c, 0, 65, 0
4, 183240, Note_on_c, 0, 68, 0
4, 183240, Note_on_c, 0, 41, 0
4, 183240, Note_on_c, 0, 74, 82
4, 183240, Note_on_c, 0, 67, 101
4, 183240, Note_on_c, 0, 72, 101
4, 183240, Note_on_c, 0, 39, 83
4, 183240, Note_on_c, 0, 51, 83
4, 183420, Note_on_c, 0, 74, 0
4, 183420, Note_on_c, 0, 75, 84
4, 183600, Note_on_c, 0, 75, 0
4, 183600, Note_on_c, 0, 51, 0
4, 183600, Note_on_c, 0, 67, 0
4, 183600, Note_on_c, 0, 72, 0
4, 183600, Note_on_c, 0, 39, 0
4, 183600, Note_on_c, 0, 77, 86
4, 183600, Note_on_c, 0, 68, 97
4, 183600, Note_on_c, 0, 72, 97
4, 183600, Note_on_c, 0, 38, 82
4, 183600, Note_on_c, 0, 50, 82
4, 183960, Note_on_c, 0, 50, 0
4, 183960, Note_on_c, 0, 72, 0
4, 183960, Note_on_c, 0, 77, 0
4, 183960, Note_on_c, 0, 68, 0
4, 183960, Note_on_c, 0, 38, 0
4, 183960, Note_on_c, 0, 79, 87
4, 183960, Note_on_c, 0, 65, 90
4, 183960, Note_on_c, 0, 71, 90
4, 183960, Note_on_c, 0, 43, 90
4, 183960, Note_on_c, 0, 55, 90
4, 184230, Note_on_c, 0, 79, 0
4, 184230, Note_on_c, 0, 75, 78
4, 184320, Note_on_c, 0, 75, 0
4, 184320, Note_on_c, 0, 55, 0
4, 184320, Note_on_c, 0, 65, 0
4, 184320, Note_on_c, 0, 71, 0
4, 184320, Note_on_c, 0, 43, 0
4, 184320, Note_on_c, 0, 63, 77
4, 184320, Note_on_c, 0, 67, 77
4, 184320, Note_on_c, 0, 72, 77
4, 184320, Note_on_c, 0, 36, 74
4, 184320, Note_on_c, 0, 48, 74
4, 184500, Note_on_c, 0, 48, 0
4, 184500, Note_on_c, 0, 72, 0
4, 184500, Note_on_c, 0, 63, 0
4, 184500, Note_on_c, 0, 67, 0
4, 184500, Note_on_c, 0, 36, 0
4, 184500, Note_on_c, 0, 67, 103
4, 184680, Note_on_c, 0, 67, 0
4, 184680, Note_on_c, 0, 68, 90
4, 184860, Note_on_c, 0, 68, 0
4, 184860, Note_on_c, 0, 70, 89
4, 185040, Note_on_c, 0, 70, 0
4, 185040, Note_on_c, 0, 73, 89
4, 185220, Note_on_c, 0, 79, 78
4, 185400, Note_on_c, 0, 79, 0
4, 185400, Note_on_c, 0, 80, 87
4, 185400, Note_on_c, 0, 70, 90
4, 185400, Note_on_c, 0, 77, 90
4, 185400, Note_on_c, 0, 67, 87
4, 185580, Note_on_c, 0, 80, 0
4, 185580, Note_on_c, 0, 82, 92
4, 185760, Note_on_c, 0, 82, 0
4, 185760, Note_on_c, 0, 67, 0
4, 185760, Note_on_c, 0, 73, 0
4, 185760, Note_on_c, 0, 70, 0
4, 185760, Note_on_c, 0, 77, 0
4, 185760, Note_on_c, 0, 84, 90
4, 185760, Note_on_c, 0, 70, 94
4, 185760, Note_on_c, 0, 76, 94
4, 185760, Note_on_c, 0, 72, 77
4, 185760, Note_on_c, 0, 60, 94
4, 185760, Note_on_c, 0, 67, 94
4, 185940, Note_on_c, 0, 67, 0
4, 185940, Note_on_c, 0, 70, 0
4, 185940, Note_on_c, 0, 76, 0
4, 185940, Note_on_c, 0, 84, 0
4, 185940, Note_on_c, 0, 60, 0
4, 185940, Note_on_c, 0, 72, 0
4, 185940, Note_on_c, 0, 67, 72
4, 186120, Note_on_c, 0, 67, 0
4, 186120, Note_on_c, 0, 68, 88
4, 186300, Note_on_c, 0, 68, 0
4, 186300, Note_on_c, 0, 70, 87
4, 186480, Note_on_c, 0, 70, 0
4, 186480, Note_on_c, 0, 73, 91
4, 186660, Note_on_c, 0, 79, 72
4, 186840, Note_on_c, 0, 79, 0
4, 186840, Note_on_c, 0, 80, 85
4, 186840, Note_on_c, 0, 70, 82
4, 186840, Note_on_c, 0, 77, 82
4, 186840, Note_on_c, 0, 67, 87
4, 187020, Note_on_c, 0, 80, 0
4, 187020, Note_on_c, 0, 82, 88
4, 187200, Note_on_c, 0, 82, 0
4, 187200, Note_on_c, 0, 67, 0
4, 187200, Note_on_c, 0, 73, 0
4, 187200, Note_on_c, 0, 70, 0
4, 187200, Note_on_c, 0, 77, 0
4, 187200, Note_on_c, 0, 84, 87
4, 187200, Note_on_c, 0, 70, 92
4, 187200, Note_on_c, 0, 76, 92
4, 187200, Note_on_c, 0, 72, 78
4, 187200, Note_on_c, 0, 60, 97
4, 187200, Note_on_c, 0, 67, 97
4, 187380, Note_on_c, 0, 67, 0
4, 187380, Note_on_c, 0, 70, 0
4, 187380, Note_on_c, 0, 76, 0
4, 187380, Note_on_c, 0, 84, 0
4, 187380, Note_on_c, 0, 60, 0
4, 187380, Note_on_c, 0, 72, 0
4, 187380, Note_on_c, 0, 84, 85
4, 187560, Note_on_c, 0, 84, 0
4, 187560, Note_on_c, 0, 85, 82
4, 187560, Note_on_c, 0, 78, 83
4, 187560, Note_on_c, 0, 69, 77
4, 187560, Note_on_c, 0, 63, 85
4, 187740, Note_on_c, 0, 85, 0
4, 187740, Note_on_c, 0, 87, 92
4, 187920, Note_on_c, 0, 87, 0
4, 187920, Note_on_c, 0, 63, 0
4, 187920, Note_on_c, 0, 69, 0
4, 187920, Note_on_c, 0, 78, 0
4, 187920, Note_on_c, 0, 89, 92
4, 187920, Note_on_c, 0, 77, 89
4, 187920, Note_on_c, 0, 70, 86
4, 187920, Note_on_c, 0, 61, 89
4, 188100, Note_on_c, 0, 70, 0
4, 188100, Note_on_c, 0, 65, 73
4, 188280, Note_on_c, 0, 65, 0
4, 188280, Note_on_c, 0, 67, 88
4, 188460, Note_on_c, 0, 67, 0
4, 188460, Note_on_c, 0, 89, 0
4, 188460, Note_on_c, 0, 77, 0
4, 188460, Note_on_c, 0, 61, 0
4, 188460, Note_on_c, 0, 77, 71
4, 188460, Note_on_c, 0, 76, 91
4, 188460, Note_on_c, 0, 69, 89
4, 188460, Note_on_c, 0, 60, 93
4, 188640, Note_on_c, 0, 60, 0
4, 188640, Note_on_c, 0, 77, 0
4, 188640, Note_on_c, 0, 76, 0
4, 188640, Note_on_c, 0, 69, 0
4, 188640, Note_on_c, 0, 79, 89
4, 188640, Note_on_c, 0, 73, 101
4, 188640, Note_on_c, 0, 77, 101
4, 188640, Note_on_c, 0, 70, 88
4, 188640, Note_on_c, 0, 58, 90
4, 188820, Note_on_c, 0, 70, 0
4, 188820, Note_on_c, 0, 79, 0
4, 188820, Note_on_c, 0, 81, 91
4, 188820, Note_on_c, 0, 60, 67
4, 189000, Note_on_c, 0, 60, 0
4, 189000, Note_on_c, 0, 81, 0
4, 189000, Note_on_c, 0, 82, 87
4, 189000, Note_on_c, 0, 61, 85
4, 189180, Note_on_c, 0, 61, 0
4, 189180, Note_on_c, 0, 73, 0
4, 189180, Note_on_c, 0, 82, 0
4, 189180, Note_on_c, 0, 77, 0
4, 189180, Note_on_c, 0, 70, 59
4, 189180, Note_on_c, 0, 63, 86
4, 189360, Note_on_c, 0, 63, 0
4, 189360, Note_on_c, 0, 70, 0
4, 189360, Note_on_c, 0, 58, 0
4, 189360, Note_on_c, 0, 72, 88
4, 189360, Note_on_c, 0, 70, 82
4, 189360, Note_on_c, 0, 64, 89
4, 189360, Note_on_c, 0, 55, 90
4, 189540, Note_on_c, 0, 64, 0
4, 189540, Note_on_c, 0, 72, 0
4, 189540, Note_on_c, 0, 73, 86
4, 189540, Note_on_c, 0, 65, 85
4, 189720, Note_on_c, 0, 65, 0
4, 189720, Note_on_c, 0, 73, 0
4, 189720, Note_on_c, 0, 70, 0
4, 189720, Note_on_c, 0, 77, 95
4, 189720, Note_on_c, 0, 70, 98
4, 189720, Note_on_c, 0, 73, 98
4, 189720, Note_on_c, 0, 68, 90
4, 189900, Note_on_c, 0, 55, 0
4, 189900, Note_on_c, 0, 48, 90
4, 190080, Note_on_c, 0, 48, 0
4, 190080, Note_on_c, 0, 60, 120
4, 190260, Note_on_c, 0, 68, 0
4, 190260, Note_on_c, 0, 77, 0
4, 190260, Note_on_c, 0, 76, 80
4, 190260, Note_on_c, 0, 67, 79
4, 190440, Note_on_c, 0, 67, 0
4, 190440, Note_on_c, 0, 73, 0
4, 190440, Note_on_c, 0, 76, 0
4, 190440, Note_on_c, 0, 70, 0
4, 190440, Note_on_c, 0, 77, 87
4, 190440, Note_on_c, 0, 70, 86
4, 190440, Note_on_c, 0, 72, 86
4, 190440, Note_on_c, 0, 65, 75
4, 190620, Note_on_c, 0, 65, 0
4, 190620, Note_on_c, 0, 77, 0
4, 190620, Note_on_c, 0, 79, 94
4, 190620, Note_on_c, 0, 64, 81
4, 190800, Note_on_c, 0, 64, 0
4, 190800, Note_on_c, 0, 60, 0
4, 190800, Note_on_c, 0, 72, 0
4, 190800, Note_on_c, 0, 70, 0
4, 190800, Note_on_c, 0, 79, 0
4, 190800, Note_on_c, 0, 80, 84
4, 190800, Note_on_c, 0, 68, 96
4, 190800, Note_on_c, 0, 72, 96
4, 190800, Note_on_c, 0, 60, 74
4, 190800, Note_on_c, 0, 53, 87
4, 190980, Note_on_c, 0, 53, 0
4, 190980, Note_on_c, 0, 72, 0
4, 190980, Note_on_c, 0, 80, 0
4, 190980, Note_on_c, 0, 68, 0
4, 190980, Note_on_c, 0, 60, 0
4, 190980, Note_on_c, 0, 79, 78
4, 191160, Note_on_c, 0, 79, 0
4, 191160, Note_on_c, 0, 80, 85
4, 191160, Note_on_c, 0, 73, 86
4, 191160, Note_on_c, 0, 64, 75
4, 191160, Note_on_c, 0, 58, 98
4, 191340, Note_on_c, 0, 80, 0
4, 191340, Note_on_c, 0, 82, 88
4, 191520, Note_on_c, 0, 82, 0
4, 191520, Note_on_c, 0, 58, 0
4, 191520, Note_on_c, 0, 64, 0
4, 191520, Note_on_c, 0, 73, 0
4, 191520, Note_on_c, 0, 84, 90
4, 191520, Note_on_c, 0, 72, 93
4, 191520, Note_on_c, 0, 65, 86
4, 191520, Note_on_c, 0, 56, 89
4, 191700, Note_on_c, 0, 65, 0
4, 191700, Note_on_c, 0, 60, 73
4, 191880, Note_on_c, 0, 60, 0
4, 191880, Note_on_c, 0, 62, 89
4, 192060, Note_on_c, 0, 62, 0
4, 192060, Note_on_c, 0, 84, 0
4, 192060, Note_on_c, 0, 72, 0
4, 192060, Note_on_c, 0, 56, 0
4, 192060, Note_on_c, 0, 72, 59
4, 192060, Note_on_c, 0, 70, 88
4, 192060, Note_on_c, 0, 64, 91
4, 192060, Note_on_c, 0, 55, 97
4, 192240, Note_on_c, 0, 55, 0
4, 192240, Note_on_c, 0, 72, 0
4, 192240, Note_on_c, 0, 70, 0
4, 192240, Note_on_c, 0, 64, 0
4, 192240, Note_on_c, 0, 74, 89
4, 192240, Note_on_c, 0, 68, 103
4, 192240, Note_on_c, 0, 72, 103
4, 192240, Note_on_c, 0, 65, 87
4, 192240, Note_on_c, 0, 53, 95
4, 192420, Note_on_c, 0, 65, 0
4, 192420, Note_on_c, 0, 74, 0
4, 192420, Note_on_c, 0, 76, 86
4, 192420, Note_on_c, 0, 55, 73
4, 192600, Note_on_c, 0, 55, 0
4, 192600, Note_on_c, 0, 76, 0
4, 192600, Note_on_c, 0, 77, 89
4, 192600, Note_on_c, 0, 56, 82
4, 192780, Note_on_c, 0, 56, 0
4, 192780, Note_on_c, 0, 68, 0
4, 192780, Note_on_c, 0, 77, 0
4, 192780, Note_on_c, 0, 72, 0
4, 192780, Note_on_c, 0, 65, 60
4, 192780, Note_on_c, 0, 58, 86
4, 192960, Note_on_c, 0, 58, 0
4, 192960, Note_on_c, 0, 65, 0
4, 192960, Note_on_c, 0, 53, 0
4, 192960, Note_on_c, 0, 67, 82
4, 192960, Note_on_c, 0, 65, 86
4, 192960, Note_on_c, 0, 59, 88
4, 192960, Note_on_c, 0, 50, 88
4, 193140, Note_on_c, 0, 59, 0
4, 193140, Note_on_c, 0, 67, 0
4, 193140, Note_on_c, 0, 68, 86
4, 193140, Note_on_c, 0, 60, 90
4, 193320, Note_on_c, 0, 60, 0
4, 193320, Note_on_c, 0, 68, 0
4, 193320, Note_on_c, 0, 65, 0
4, 193320, Note_on_c, 0, 72, 92
4, 193320, Note_on_c, 0, 65, 106
4, 193320, Note_on_c, 0, 68, 106
4, 193320, Note_on_c, 0, 63, 94
4, 193500, Note_on_c, 0, 50, 0
4, 193500, Note_on_c, 0, 43, 85
4, 193680, Note_on_c, 0, 43, 0
4, 193680, Note_on_c, 0, 55, 111
4, 193860, Note_on_c, 0, 63, 0
4, 193860, Note_on_c, 0, 72, 0
4, 193860, Note_on_c, 0, 71, 79
4, 193860, Note_on_c, 0, 62, 77
4, 194040, Note_on_c, 0, 62, 0
4, 194040, Note_on_c, 0, 68, 0
4, 194040, Note_on_c, 0, 71, 0
4, 194040, Note_on_c, 0, 65, 0
4, 194040, Note_on_c, 0, 72, 83
4, 194040, Note_on_c, 0, 65, 95
4, 194040, Note_on_c, 0, 67, 95
4, 194040, Note_on_c, 0, 60, 77
4, 194220, Note_on_c, 0, 60, 0
4, 194220, Note_on_c, 0, 72, 0
4, 194220, Note_on_c, 0, 74, 87
4, 194220, Note_on_c, 0, 59, 84
4, 194400, Note_on_c, 0, 59, 0
4, 194400, Note_on_c, 0, 55, 0
4, 194400, Note_on_c, 0, 67, 0
4, 194400, Note_on_c, 0, 65, 0
4, 194400, Note_on_c, 0, 74, 0
4, 194400, Note_on_c, 0, 63, 84
4, 194400, Note_on_c, 0, 72, 84
4, 194400, Note_on_c, 0, 75, 84
4, 194400, Note_on_c, 0, 48, 90
4, 194580, Note_on_c, 0, 55, 75
4, 194760, Note_on_c, 0, 75, 0
4, 194760, Note_on_c, 0, 63, 0
4, 194760, Note_on_c, 0, 72, 0
4, 194760, Note_on_c, 0, 65, 82
4, 194760, Note_on_c, 0, 71, 82
4, 194760, Note_on_c, 0, 74, 82
4, 194940, Note_on_c, 0, 55, 0
4, 194940, Note_on_c, 0, 55, 81
4, 195120, Note_on_c, 0, 71, 0
4, 195120, Note_on_c, 0, 74, 0
4, 195120, Note_on_c, 0, 65, 0
4, 195120, Note_on_c, 0, 67, 67
4, 195120, Note_on_c, 0, 63, 86
4, 195300, Note_on_c, 0, 55, 0
4, 195300, Note_on_c, 0, 55, 82
4, 195480, Note_on_c, 0, 63, 0
4, 195480, Note_on_c, 0, 65, 103
4, 195660, Note_on_c, 0, 55, 0
4, 195660, Note_on_c, 0, 55, 79
4, 195840, Note_on_c, 0, 55, 0
4, 195840, Note_on_c, 0, 65, 0
4, 195840, Note_on_c, 0, 67, 0
4, 195840, Note_on_c, 0, 48, 0
4, 195840, Note_on_c, 0, 63, 98
4, 195840, Note_on_c, 0, 72, 98
4, 195840, Note_on_c, 0, 75, 98
4, 195840, Note_on_c, 0, 48, 99
4, 196020, Note_on_c, 0, 55, 75
4, 196200, Note_on_c, 0, 75, 0
4, 196200, Note_on_c, 0, 63, 0
4, 196200, Note_on_c, 0, 72, 0
4, 196200, Note_on_c, 0, 65, 81
4, 196200, Note_on_c, 0, 71, 81
4, 196200, Note_on_c, 0, 74, 81
4, 196380, Note_on_c, 0, 55, 0
4, 196380, Note_on_c, 0, 55, 88
4, 196560, Note_on_c, 0, 71, 0
4, 196560, Note_on_c, 0, 74, 0
4, 196560, Note_on_c, 0, 65, 0
4, 196560, Note_on_c, 0, 63, 63
4, 196560, Note_on_c, 0, 67, 63
4, 196740, Note_on_c, 0, 55, 0
4, 196740, Note_on_c, 0, 55, 81
4, 196920, Note_on_c, 0, 55, 0
4, 196920, Note_on_c, 0, 67, 0
4, 196920, Note_on_c, 0, 63, 0
4, 196920, Note_on_c, 0, 48, 0
4, 196920, Note_on_c, 0, 62, 83
4, 196920, Note_on_c, 0, 68, 83
4, 196920, Note_on_c, 0, 58, 85
4, 196920, Note_on_c, 0, 46, 93
4, 197280, Note_on_c, 0, 46, 0
4, 197280, Note_on_c, 0, 62, 0
4, 197280, Note_on_c, 0, 68, 0
4, 197280, Note_on_c, 0, 58, 0
4, 197280, Note_on_c, 0, 67, 108
4, 197280, Note_on_c, 0, 75, 108
4, 197280, Note_on_c, 0, 79, 108
4, 197280, Note_on_c, 0, 39, 92
4, 197460, Note_on_c, 0, 58, 76
4, 197640, Note_on_c, 0, 79, 0
4, 197640, Note_on_c, 0, 67, 0
4, 197640, Note_on_c, 0, 75, 0
4, 197640, Note_on_c, 0, 68, 82
4, 197640, Note_on_c, 0, 74, 82
4, 197640, Note_on_c, 0, 77, 82
4, 197820, Note_on_c, 0, 58, 0
4, 197820, Note_on_c, 0, 58, 82
4, 198000, Note_on_c, 0, 74, 0
4, 198000, Note_on_c, 0, 77, 0
4, 198000, Note_on_c, 0, 68, 0
4, 198000, Note_on_c, 0, 70, 66
4, 198000, Note_on_c, 0, 67, 103
4, 198180, Note_on_c, 0, 58, 0
4, 198180, Note_on_c, 0, 58, 84
4, 198360, Note_on_c, 0, 67, 0
4, 198360, Note_on_c, 0, 68, 100
4, 198540, Note_on_c, 0, 58, 0
4, 198540, Note_on_c, 0, 58, 87
4, 198720, Note_on_c, 0, 58, 0
4, 198720, Note_on_c, 0, 68, 0
4, 198720, Note_on_c, 0, 70, 0
4, 198720, Note_on_c, 0, 39, 0
4, 198720, Note_on_c, 0, 67, 100
4, 198720, Note_on_c, 0, 75, 100
4, 198720, Note_on_c, 0, 79, 100
4, 198720, Note_on_c, 0, 39, 94
4, 198900, Note_on_c, 0, 58, 78
4, 199080, Note_on_c, 0, 79, 0
4, 199080, Note_on_c, 0, 67, 0
4, 199080, Note_on_c, 0, 75, 0
4, 199080, Note_on_c, 0, 68, 81
4, 199080, Note_on_c, 0, 74, 81
4, 199080, Note_on_c, 0, 77, 81
4, 199260, Note_on_c, 0, 58, 0
4, 199260, Note_on_c, 0, 58, 82
4, 199440, Note_on_c, 0, 74, 0
4, 199440, Note_on_c, 0, 77, 0
4, 199440, Note_on_c, 0, 68, 0
4, 199440, Note_on_c, 0, 67, 67
4, 199440, Note_on_c, 0, 70, 67
4, 199620, Note_on_c, 0, 58, 0
4, 199620, Note_on_c, 0, 58, 84
4, 199800, Note_on_c, 0, 70, 0
4, 199800, Note_on_c, 0, 67, 0
4, 199800, Note_on_c, 0, 66, 81
4, 199800, Note_on_c, 0, 70, 81
4, 199980, Note_on_c, 0, 58, 0
4, 199980, Note_on_c, 0, 58, 88
4, 200160, Note_on_c, 0, 58, 0
4, 200160, Note_on_c, 0, 70, 0
4, 200160, Note_on_c, 0, 66, 0
4, 200160, Note_on_c, 0, 39, 0
4, 200160, Note_on_c, 0, 73, 106
4, 200160, Note_on_c, 0, 82, 106
4, 200160, Note_on_c, 0, 85, 106
4, 200160, Note_on_c, 0, 46, 102
4, 200340, Note_on_c, 0, 65, 76
4, 200520, Note_on_c, 0, 85, 0
4, 200520, Note_on_c, 0, 73, 0
4, 200520, Note_on_c, 0, 82, 0
4, 200520, Note_on_c, 0, 75, 84
4, 200520, Note_on_c, 0, 81, 84
4, 200520, Note_on_c, 0, 84, 84
4, 200700, Note_on_c, 0, 65, 0
4, 200700, Note_on_c, 0, 65, 81
4, 200880, Note_on_c, 0, 81, 0
4, 200880, Note_on_c, 0, 84, 0
4, 200880, Note_on_c, 0, 75, 0
4, 200880, Note_on_c, 0, 77, 64
4, 200880, Note_on_c, 0, 73, 113
4, 201060, Note_on_c, 0, 65, 0
4, 201060, Note_on_c, 0, 65, 79
4, 201240, Note_on_c, 0, 73, 0
4, 201240, Note_on_c, 0, 75, 101
4, 201420, Note_on_c, 0, 65, 0
4, 201420, Note_on_c, 0, 65, 84
4, 201600, Note_on_c, 0, 65, 0
4, 201600, Note_on_c, 0, 75, 0
4, 201600, Note_on_c, 0, 77, 0
4, 201600, Note_on_c, 0, 46, 0
4, 201600, Note_on_c, 0, 73, 98
4, 201600, Note_on_c, 0, 82, 98
4, 201600, Note_on_c, 0, 85, 98
4, 201600, Note_on_c, 0, 46, 100
4, 201780, Note_on_c, 0, 65, 73
4, 201960, Note_on_c, 0, 85, 0
4, 201960, Note_on_c, 0, 73, 0
4, 201960, Note_on_c, 0, 82, 0
4, 201960, Note_on_c, 0, 75, 83
4, 201960, Note_on_c, 0, 81, 83
4, 201960, Note_on_c, 0, 84, 83
4, 202140, Note_on_c, 0, 65, 0
4, 202140, Note_on_c, 0, 65, 83
4, 202320, Note_on_c, 0, 81, 0
4, 202320, Note_on_c, 0, 84, 0
4, 202320, Note_on_c, 0, 75, 0
4, 202320, Note_on_c, 0, 77, 70
4, 202320, Note_on_c, 0, 73, 90
4, 202500, Note_on_c, 0, 65, 0
4, 202500, Note_on_c, 0, 65, 89
4, 202680, Note_on_c, 0, 73, 0
4, 202680, Note_on_c, 0, 75, 100
4, 202860, Note_on_c, 0, 65, 0
4, 202860, Note_on_c, 0, 65, 82
4, 203040, Note_on_c, 0, 65, 0
4, 203040, Note_on_c, 0, 75, 0
4, 203040, Note_on_c, 0, 77, 0
4, 203040, Note_on_c, 0, 46, 0
4, 203040, Note_on_c, 0, 73, 104
4, 203040, Note_on_c, 0, 82, 104
4, 203040, Note_on_c, 0, 85, 104
4, 203040, Note_on_c, 0, 34, 74
4, 203040, Note_on_c, 0, 46, 74
4, 203220, Note_on_c, 0, 46, 0
4, 203220, Note_on_c, 0, 34, 0
4, 203220, Note_on_c, 0, 46, 92
4, 203220, Note_on_c, 0, 58, 92
4, 203400, Note_on_c, 0, 58, 0
4, 203400, Note_on_c, 0, 46, 0
4, 203400, Note_on_c, 0, 49, 94
4, 203400, Note_on_c, 0, 61, 94
4, 203580, Note_on_c, 0, 61, 0
4, 203580, Note_on_c, 0, 85, 0
4, 203580, Note_on_c, 0, 73, 0
4, 203580, Note_on_c, 0, 82, 0
4, 203580, Note_on_c, 0, 49, 0
4, 203580, Note_on_c, 0, 51, 87
4, 203580, Note_on_c, 0, 63, 87
4, 203760, Note_on_c, 0, 63, 0
4, 203760, Note_on_c, 0, 51, 0
4, 203760, Note_on_c, 0, 53, 92
4, 203760, Note_on_c, 0, 65, 92
4, 203940, Note_on_c, 0, 53, 70
4, 203940, Note_on_c, 0, 65, 70
4, 204120, Note_on_c, 0, 65, 0
4, 204120, Note_on_c, 0, 53, 0
4, 204120, Note_on_c, 0, 65, 0
4, 204120, Note_on_c, 0, 53, 0
4, 204120, Note_on_c, 0, 55, 85
4, 204120, Note_on_c, 0, 67, 85
4, 204120, Note_on_c, 0, 65, 73
4, 204120, Note_on_c, 0, 51, 74
4, 204120, Note_on_c, 0, 60, 74
4, 204120, Note_on_c, 0, 63, 74
4, 204300, Note_on_c, 0, 67, 0
4, 204300, Note_on_c, 0, 55, 0
4, 204300, Note_on_c, 0, 57, 86
4, 204300, Note_on_c, 0, 69, 86
4, 204480, Note_on_c, 0, 69, 0
4, 204480, Note_on_c, 0, 63, 0
4, 204480, Note_on_c, 0, 65, 0
4, 204480, Note_on_c, 0, 51, 0
4, 204480, Note_on_c, 0, 57, 0
4, 204480, Note_on_c, 0, 60, 0
4, 204480, Note_on_c, 0, 58, 85
4, 204480, Note_on_c, 0, 65, 85
4, 204480, Note_on_c, 0, 70, 85
4, 204480, Note_on_c, 0, 49, 78
4, 204480, Note_on_c, 0, 53, 78
4, 204480, Note_on_c, 0, 61, 78
4, 204660, Note_on_c, 0, 70, 0
4, 204660, Note_on_c, 0, 58, 0
4, 204660, Note_on_c, 0, 65, 0
4, 204660, Note_on_c, 0, 65, 99
4, 204660, Note_on_c, 0, 77, 99
4, 204840, Note_on_c, 0, 77, 0
4, 204840, Note_on_c, 0, 49, 0
4, 204840, Note_on_c, 0, 61, 0
4, 204840, Note_on_c, 0, 53, 0
4, 204840, Note_on_c, 0, 65, 0
4, 204840, Note_on_c, 0, 67, 93
4, 204840, Note_on_c, 0, 79, 93
4, 204840, Note_on_c, 0, 75, 114
4, 204840, Note_on_c, 0, 48, 78
4, 204840, Note_on_c, 0, 53, 78
4, 204840, Note_on_c, 0, 60, 78
4, 205020, Note_on_c, 0, 79, 0
4, 205020, Note_on_c, 0, 67, 0
4, 205020, Note_on_c, 0, 69, 92
4, 205020, Note_on_c, 0, 81, 92
4, 205200, Note_on_c, 0, 81, 0
4, 205200, Note_on_c, 0, 60, 0
4, 205200, Note_on_c, 0, 75, 0
4, 205200, Note_on_c, 0, 48, 0
4, 205200, Note_on_c, 0, 69, 0
4, 205200, Note_on_c, 0, 53, 0
4, 205200, Note_on_c, 0, 70, 90
4, 205200, Note_on_c, 0, 73, 90
4, 205200, Note_on_c, 0, 77, 90
4, 205200, Note_on_c, 0, 82, 90
4, 205200, Note_on_c, 0, 46, 80
4, 205200, Note_on_c, 0, 53, 80
4, 205200, Note_on_c, 0, 58, 80
4, 205380, Note_on_c, 0, 58, 0
4, 205380, Note_on_c, 0, 46, 0
4, 205380, Note_on_c, 0, 53, 0
4, 205380, Note_on_c, 0, 44, 78
4, 205380, Note_on_c, 0, 56, 78
4, 205560, Note_on_c, 0, 56, 0
4, 205560, Note_on_c, 0, 73, 0
4, 205560, Note_on_c, 0, 82, 0
4, 205560, Note_on_c, 0, 70, 0
4, 205560, Note_on_c, 0, 44, 0
4, 205560, Note_on_c, 0, 77, 0
4, 205560, Note_on_c, 0, 72, 87
4, 205560, Note_on_c, 0, 75, 87
4, 205560, Note_on_c, 0, 82, 87
4, 205560, Note_on_c, 0, 84, 87
4, 205560, Note_on_c, 0, 43, 83
4, 205560, Note_on_c, 0, 55, 83
4, 205740, Note_on_c, 0, 55, 0
4, 205740, Note_on_c, 0, 43, 0
4, 205740, Note_on_c, 0, 42, 82
4, 205740, Note_on_c, 0, 54, 82
4, 205920, Note_on_c, 0, 54, 0
4, 205920, Note_on_c, 0, 75, 0
4, 205920, Note_on_c, 0, 84, 0
4, 205920, Note_on_c, 0, 72, 0
4, 205920, Note_on_c, 0, 42, 0
4, 205920, Note_on_c, 0, 82, 0
4, 205920, Note_on_c, 0, 73, 92
4, 205920, Note_on_c, 0, 77, 92
4, 205920, Note_on_c, 0, 82, 92
4, 205920, Note_on_c, 0, 85, 92
4, 205920, Note_on_c, 0, 41, 83
4, 205920, Note_on_c, 0, 53, 83
4, 206100, Note_on_c, 0, 85, 0
4, 206100, Note_on_c, 0, 82, 0
4, 206100, Note_on_c, 0, 73, 0
4, 206100, Note_on_c, 0, 77, 0
4, 206100, Note_on_c, 0, 72, 79
4, 206100, Note_on_c, 0, 84, 79
4, 206280, Note_on_c, 0, 84, 0
4, 206280, Note_on_c, 0, 41, 0
4, 206280, Note_on_c, 0, 53, 0
4, 206280, Note_on_c, 0, 72, 0
4, 206280, Note_on_c, 0, 73, 84
4, 206280, Note_on_c, 0, 78, 84
4, 206280, Note_on_c, 0, 82, 84
4, 206280, Note_on_c, 0, 85, 84
4, 206280, Note_on_c, 0, 39, 74
4, 206280, Note_on_c, 0, 51, 74
4, 206460, Note_on_c, 0, 85, 0
4, 206460, Note_on_c, 0, 82, 0
4, 206460, Note_on_c, 0, 73, 0
4, 206460, Note_on_c, 0, 78, 0
4, 206460, Note_on_c, 0, 75, 87
4, 206460, Note_on_c, 0, 87, 87
4, 206640, Note_on_c, 0, 87, 0
4, 206640, Note_on_c, 0, 39, 0
4, 206640, Note_on_c, 0, 51, 0
4, 206640, Note_on_c, 0, 75, 0
4, 206640, Note_on_c, 0, 77, 63
4, 206640, Note_on_c, 0, 82, 63
4, 206640, Note_on_c, 0, 85, 63
4, 206640, Note_on_c, 0, 89, 63
4, 206640, Note_on_c, 0, 37, 77
4, 206640, Note_on_c, 0, 49, 77
4, 206820, Note_on_c, 0, 89, 0
4, 206820, Note_on_c, 0, 85, 0
4, 206820, Note_on_c, 0, 77, 0
4, 206820, Note_on_c, 0, 82, 0
4, 206820, Note_on_c, 0, 79, 84
4, 206820, Note_on_c, 0, 91, 84
4, 207000, Note_on_c, 0, 91, 0
4, 207000, Note_on_c, 0, 37, 0
4, 207000, Note_on_c, 0, 49, 0
4, 207000, Note_on_c, 0, 79, 0
4, 207000, Note_on_c, 0, 81, 87
4, 207000, Note_on_c, 0, 85, 87
4, 207000, Note_on_c, 0, 89, 87
4, 207000, Note_on_c, 0, 93, 87
4, 207000, Note_on_c, 0, 34, 79
4, 207000, Note_on_c, 0, 46, 79
4, 207180, Note_on_c, 0, 93, 0
4, 207180, Note_on_c, 0, 89, 0
4, 207180, Note_on_c, 0, 81, 0
4, 207180, Note_on_c, 0, 85, 0
4, 207180, Note_on_c, 0, 82, 89
4, 207180, Note_on_c, 0, 94, 89
4, 207360, Note_on_c, 0, 94, 0
4, 207360, Note_on_c, 0, 34, 0
4, 207360, Note_on_c, 0, 46, 0
4, 207360, Note_on_c, 0, 82, 0
4, 207360, Note_on_c, 0, 83, 82
4, 207360, Note_on_c, 0, 87, 82
4, 207360, Note_on_c, 0, 92, 82
4, 207360, Note_on_c, 0, 95, 82
4, 207360, Note_on_c, 0, 32, 80
4, 207360, Note_on_c, 0, 44, 80
4, 207630, Note_on_c, 0, 44, 0
4, 207630, Note_on_c, 0, 87, 0
4, 207630, Note_on_c, 0, 92, 0
4, 207630, Note_on_c, 0, 83, 0
4, 207630, Note_on_c, 0, 32, 0
4, 207630, Note_on_c, 0, 95, 0
4, 207630, Note_on_c, 0, 71, 82
4, 207630, Note_on_c, 0, 75, 82
4, 207630, Note_on_c, 0, 80, 82
4, 207630, Note_on_c, 0, 83, 82
4, 207630, Note_on_c, 0, 51, 111
4, 207630, Note_on_c, 0, 56, 111
4, 207630, Note_on_c, 0, 59, 111
4, 207630, Note_on_c, 0, 63, 111
4, 207720, Note_on_c, 0, 63, 0
4, 207720, Note_on_c, 0, 71, 0
4, 207720, Note_on_c, 0, 51, 0
4, 207720, Note_on_c, 0, 75, 0
4, 207720, Note_on_c, 0, 80, 0
4, 207720, Note_on_c, 0, 83, 0
4, 207720, Note_on_c, 0, 56, 0
4, 207720, Note_on_c, 0, 59, 0
4, 207720, Note_on_c, 0, 71, 86
4, 207720, Note_on_c, 0, 75, 86
4, 207720, Note_on_c, 0, 80, 86
4, 207720, Note_on_c, 0, 83, 86
4, 207720, Note_on_c, 0, 51, 94
4, 207720, Note_on_c, 0, 56, 94
4, 207720, Note_on_c, 0, 59, 94
4, 207720, Note_on_c, 0, 63, 94
4, 208260, Note_on_c, 0, 63, 0
4, 208260, Note_on_c, 0, 71, 0
4, 208260, Note_on_c, 0, 51, 0
4, 208260, Note_on_c, 0, 75, 0
4, 208260, Note_on_c, 0, 80, 0
4, 208260, Note_on_c, 0, 83, 0
4, 208260, Note_on_c, 0, 56, 0
4, 208260, Note_on_c, 0, 59, 0
4, 208800, Note_on_c, 0, 27, 72
4, 208800, Note_on_c, 0, 39, 72
4, 208859, Note_on_c, 0, 54, 76
4, 208920, Note_on_c, 0, 54, 0
4, 208920, Note_on_c, 0, 58, 85
4, 208980, Note_on_c, 0, 58, 0
4, 208980, Note_on_c, 0, 63, 98
4, 208980, Note_on_c, 0, 66, 98
4, 209039, Note_on_c, 0, 66, 0
4, 209039, Note_on_c, 0, 63, 0
4, 209039, Note_on_c, 0, 54, 79
4, 209100, Note_on_c, 0, 54, 0
4, 209100, Note_on_c, 0, 58, 86
4, 209160, Note_on_c, 0, 58, 0
4, 209160, Note_on_c, 0, 39, 0
4, 209160, Note_on_c, 0, 27, 0
4, 209160, Note_on_c, 0, 30, 84
4, 209160, Note_on_c, 0, 42, 84
4, 209219, Note_on_c, 0, 54, 79
4, 209280, Note_on_c, 0, 54, 0
4, 209280, Note_on_c, 0, 58, 91
4, 209340, Note_on_c, 0, 58, 0
4, 209340, Note_on_c, 0, 63, 101
4, 209340, Note_on_c, 0, 66, 101
4, 209399, Note_on_c, 0, 66, 0
4, 209399, Note_on_c, 0, 63, 0
4, 209399, Note_on_c, 0, 54, 78
4, 209460, Note_on_c, 0, 54, 0
4, 209460, Note_on_c, 0, 58, 84
4, 209520, Note_on_c, 0, 58, 0
4, 209520, Note_on_c, 0, 42, 0
4, 209520, Note_on_c, 0, 30, 0
4, 209520, Note_on_c, 0, 32, 85
4, 209520, Note_on_c, 0, 44, 85
4, 209579, Note_on_c, 0, 54, 77
4, 209640, Note_on_c, 0, 54, 0
4, 209640, Note_on_c, 0, 59, 92
4, 209700, Note_on_c, 0, 59, 0
4, 209700, Note_on_c, 0, 63, 99
4, 209700, Note_on_c, 0, 66, 99
4, 209759, Note_on_c, 0, 66, 0
4, 209759, Note_on_c, 0, 63, 0
4, 209759, Note_on_c, 0, 54, 77
4, 209820, Note_on_c, 0, 54, 0
4, 209820, Note_on_c, 0, 59, 89
4, 209880, Note_on_c, 0, 59, 0
4, 209880, Note_on_c, 0, 44, 0
4, 209880, Note_on_c, 0, 32, 0
4, 209880, Note_on_c, 0, 34, 87
4, 209880, Note_on_c, 0, 46, 87
4, 209939, Note_on_c, 0, 54, 79
4, 210000, Note_on_c, 0, 54, 0
4, 210000, Note_on_c, 0, 58, 88
4, 210060, Note_on_c, 0, 58, 0
4, 210060, Note_on_c, 0, 63, 97
4, 210060, Note_on_c, 0, 66, 97
4, 210119, Note_on_c, 0, 66, 0
4, 210119, Note_on_c, 0, 63, 0
4, 210119, Note_on_c, 0, 54, 79
4, 210180, Note_on_c, 0, 54, 0
4, 210180, Note_on_c, 0, 58, 89
4, 210240, Note_on_c, 0, 58, 0
4, 210240, Note_on_c, 0, 46, 0
4, 210240, Note_on_c, 0, 34, 0
4, 210240, Note_on_c, 0, 37, 89
4, 210240, Note_on_c, 0, 49, 89
4, 210299, Note_on_c, 0, 54, 73
4, 210360, Note_on_c, 0, 54, 0
4, 210360, Note_on_c, 0, 58, 85
4, 210420, Note_on_c, 0, 58, 0
4, 210420, Note_on_c, 0, 63, 102
4, 210420, Note_on_c, 0, 66, 102
4, 210479, Note_on_c, 0, 66, 0
4, 210479, Note_on_c, 0, 63, 0
4, 210479, Note_on_c, 0, 54, 81
4, 210540, Note_on_c, 0, 54, 0
4, 210540, Note_on_c, 0, 58, 87
4, 210600, Note_on_c, 0, 58, 0
4, 210600, Note_on_c, 0, 49, 0
4, 210600, Note_on_c, 0, 37, 0
4, 210600, Note_on_c, 0, 36, 79
4, 210600, Note_on_c, 0, 48, 79
4, 210659, Note_on_c, 0, 57, 69
4, 210720, Note_on_c, 0, 57, 0
4, 210720, Note_on_c, 0, 63, 99
4, 210720, Note_on_c, 0, 65, 99
4, 210780, Note_on_c, 0, 65, 0
4, 210780, Note_on_c, 0, 36, 0
4, 210780, Note_on_c, 0, 48, 0
4, 210780, Note_on_c, 0, 63, 0
4, 210780, Note_on_c, 0, 34, 82
4, 210780, Note_on_c, 0, 46, 82
4, 210839, Note_on_c, 0, 58, 79
4, 210900, Note_on_c, 0, 58, 0
4, 210900, Note_on_c, 0, 63, 103
4, 210900, Note_on_c, 0, 65, 103
4, 210960, Note_on_c, 0, 65, 0
4, 210960, Note_on_c, 0, 34, 0
4, 210960, Note_on_c, 0, 46, 0
4, 210960, Note_on_c, 0, 63, 0
4, 210960, Note_on_c, 0, 33, 78
4, 210960, Note_on_c, 0, 45, 78
4, 211019, Note_on_c, 0, 60, 75
4, 211080, Note_on_c, 0, 60, 0
4, 211080, Note_on_c, 0, 63, 95
4, 211080, Note_on_c, 0, 65, 95
4, 211140, Note_on_c, 0, 65, 0
4, 211140, Note_on_c, 0, 33, 0
4, 211140, Note_on_c, 0, 45, 0
4, 211140, Note_on_c, 0, 63, 0
4, 211140, Note_on_c, 0, 31, 81
4, 211140, Note_on_c, 0, 43, 81
4, 211199, Note_on_c, 0, 58, 72
4, 211260, Note_on_c, 0, 58, 0
4, 211260, Note_on_c, 0, 63, 93
4, 211260, Note_on_c, 0, 65, 93
4, 211320, Note_on_c, 0, 65, 0
4, 211320, Note_on_c, 0, 31, 0
4, 211320, Note_on_c, 0, 43, 0
4, 211320, Note_on_c, 0, 63, 0
4, 211320, Note_on_c, 0, 29, 78
4, 211320, Note_on_c, 0, 41, 78
4, 211379, Note_on_c, 0, 53, 71
4, 211440, Note_on_c, 0, 53, 0
4, 211440, Note_on_c, 0, 57, 88
4, 211500, Note_on_c, 0, 57, 0
4, 211500, Note_on_c, 0, 63, 100
4, 211500, Note_on_c, 0, 65, 100
4, 211559, Note_on_c, 0, 65, 0
4, 211559, Note_on_c, 0, 63, 0
4, 211559, Note_on_c, 0, 53, 74
4, 211620, Note_on_c, 0, 53, 0
4, 211620, Note_on_c, 0, 57, 88
4, 211680, Note_on_c, 0, 57, 0
4, 211680, Note_on_c, 0, 41, 0
4, 211680, Note_on_c, 0, 29, 0
4, 211680, Note_on_c, 0, 34, 91
4, 211680, Note_on_c, 0, 46, 91
4, 211739, Note_on_c, 0, 61, 77
4, 211800, Note_on_c, 0, 61, 0
4, 211800, Note_on_c, 0, 65, 93
4, 211860, Note_on_c, 0, 65, 0
4, 211860, Note_on_c, 0, 70, 104
4, 211860, Note_on_c, 0, 73, 104
4, 211919, Note_on_c, 0, 73, 0
4, 211919, Note_on_c, 0, 70, 0
4, 211919, Note_on_c, 0, 61, 61
4, 211980, Note_on_c, 0, 61, 0
4, 211980, Note_on_c, 0, 65, 88
4, 212040, Note_on_c, 0, 65, 0
4, 212040, Note_on_c, 0, 46, 0
4, 212040, Note_on_c, 0, 34, 0
4, 212040, Note_on_c, 0, 37, 87
4, 212040, Note_on_c, 0, 49, 87
4, 212099, Note_on_c, 0, 61, 74
4, 212160, Note_on_c, 0, 61, 0
4, 212160, Note_on_c, 0, 65, 93
4, 212220, Note_on_c, 0, 65, 0
4, 212220, Note_on_c, 0, 70, 98
4, 212220, Note_on_c, 0, 73, 98
4, 212279, Note_on_c, 0, 73, 0
4, 212279, Note_on_c, 0, 70, 0
4, 212279, Note_on_c, 0, 61, 62
4, 212340, Note_on_c, 0, 61, 0
4, 212340, Note_on_c, 0, 65, 87
4, 212400, Note_on_c, 0, 65, 0
4, 212400, Note_on_c, 0, 49, 0
4, 212400, Note_on_c, 0, 37, 0
4, 212400, Note_on_c, 0, 39, 87
4, 212400, Note_on_c, 0, 51, 87
4, 212459, Note_on_c, 0, 61, 76
4, 212520, Note_on_c, 0, 61, 0
4, 212520, Note_on_c, 0, 66, 99
4, 212580, Note_on_c, 0, 66, 0
4, 212580, Note_on_c, 0, 70, 98
4, 212580, Note_on_c, 0, 73, 98
4, 212639, Note_on_c, 0, 73, 0
4, 212639, Note_on_c, 0, 70, 0
4, 212639, Note_on_c, 0, 61, 66
4, 212700, Note_on_c, 0, 61, 0
4, 212700, Note_on_c, 0, 66, 94
4, 212760, Note_on_c, 0, 66, 0
4, 212760, Note_on_c, 0, 51, 0
4, 212760, Note_on_c, 0, 39, 0
4, 212760, Note_on_c, 0, 41, 90
4, 212760, Note_on_c, 0, 53, 90
4, 212819, Note_on_c, 0, 61, 77
4, 212880, Note_on_c, 0, 61, 0
4, 212880, Note_on_c, 0, 65, 91
4, 212940, Note_on_c, 0, 65, 0
4, 212940, Note_on_c, 0, 70, 98
4, 212940, Note_on_c, 0, 73, 98
4, 212999, Note_on_c, 0, 73, 0
4, 212999, Note_on_c, 0, 70, 0
4, 212999, Note_on_c, 0, 61, 62
4, 213060, Note_on_c, 0, 61, 0
4, 213060, Note_on_c, 0, 65, 90
4, 213120, Note_on_c, 0, 65, 0
4, 213120, Note_on_c, 0, 53, 0
4, 213120, Note_on_c, 0, 41, 0
4, 213120, Note_on_c, 0, 44, 89
4, 213120, Note_on_c, 0, 56, 89
4, 213179, Note_on_c, 0, 61, 76
4, 213240, Note_on_c, 0, 61, 0
4, 213240, Note_on_c, 0, 65, 90
4, 213300, Note_on_c, 0, 65, 0
4, 213300, Note_on_c, 0, 70, 97
4, 213300, Note_on_c, 0, 73, 97
4, 213359, Note_on_c, 0, 73, 0
4, 213359, Note_on_c, 0, 70, 0
4, 213359, Note_on_c, 0, 61, 65
4, 213420, Note_on_c, 0, 61, 0
4, 213420, Note_on_c, 0, 65, 89
4, 213480, Note_on_c, 0, 65, 0
4, 213480, Note_on_c, 0, 56, 0
4, 213480, Note_on_c, 0, 44, 0
4, 213480, Note_on_c, 0, 43, 81
4, 213480, Note_on_c, 0, 55, 81
4, 213539, Note_on_c, 0, 64, 76
4, 213600, Note_on_c, 0, 64, 0
4, 213600, Note_on_c, 0, 70, 97
4, 213600, Note_on_c, 0, 72, 97
4, 213660, Note_on_c, 0, 72, 0
4, 213660, Note_on_c, 0, 43, 0
4, 213660, Note_on_c, 0, 55, 0
4, 213660, Note_on_c, 0, 70, 0
4, 213660, Note_on_c, 0, 41, 78
4, 213660, Note_on_c, 0, 53, 78
4, 213719, Note_on_c, 0, 65, 75
4, 213780, Note_on_c, 0, 65, 0
4, 213780, Note_on_c, 0, 70, 94
4, 213780, Note_on_c, 0, 72, 94
4, 213840, Note_on_c, 0, 72, 0
4, 213840, Note_on_c, 0, 41, 0
4, 213840, Note_on_c, 0, 53, 0
4, 213840, Note_on_c, 0, 70, 0
4, 213840, Note_on_c, 0, 40, 85
4, 213840, Note_on_c, 0, 52, 85
4, 213899, Note_on_c, 0, 67, 77
4, 213960, Note_on_c, 0, 67, 0
4, 213960, Note_on_c, 0, 70, 100
4, 213960, Note_on_c, 0, 72, 100
4, 214020, Note_on_c, 0, 72, 0
4, 214020, Note_on_c, 0, 40, 0
4, 214020, Note_on_c, 0, 52, 0
4, 214020, Note_on_c, 0, 70, 0
4, 214020, Note_on_c, 0, 38, 84
4, 214020, Note_on_c, 0, 50, 84
4, 214079, Note_on_c, 0, 65, 76
4, 214140, Note_on_c, 0, 65, 0
4, 214140, Note_on_c, 0, 70, 92
4, 214140, Note_on_c, 0, 72, 92
4, 214200, Note_on_c, 0, 72, 0
4, 214200, Note_on_c, 0, 38, 0
4, 214200, Note_on_c, 0, 50, 0
4, 214200, Note_on_c, 0, 70, 0
4, 214200, Note_on_c, 0, 36, 82
4, 214200, Note_on_c, 0, 48, 82
4, 214259, Note_on_c, 0, 60, 71
4, 214320, Note_on_c, 0, 60, 0
4, 214320, Note_on_c, 0, 64, 90
4, 214380, Note_on_c, 0, 64, 0
4, 214380, Note_on_c, 0, 70, 101
4, 214380, Note_on_c, 0, 72, 101
4, 214439, Note_on_c, 0, 72, 0
4, 214439, Note_on_c, 0, 70, 0
4, 214439, Note_on_c, 0, 60, 61
4, 214500, Note_on_c, 0, 60, 0
4, 214500, Note_on_c, 0, 64, 89
4, 214560, Note_on_c, 0, 64, 0
4, 214560, Note_on_c, 0, 48, 0
4, 214560, Note_on_c, 0, 36, 0
4, 214560, Note_on_c, 0, 29, 90
4, 214560, Note_on_c, 0, 41, 90
4, 214619, Note_on_c, 0, 53, 77
4, 214680, Note_on_c, 0, 53, 0
4, 214680, Note_on_c, 0, 55, 82
4, 214740, Note_on_c, 0, 55, 0
4, 214740, Note_on_c, 0, 56, 87
4, 214799, Note_on_c, 0, 56, 0
4, 214799, Note_on_c, 0, 59, 83
4, 214860, Note_on_c, 0, 59, 0
4, 214860, Note_on_c, 0, 60, 81
4, 214920, Note_on_c, 0, 60, 0
4, 214920, Note_on_c, 0, 65, 94
4, 214920, Note_on_c, 0, 48, 73
4, 214920, Note_on_c, 0, 56, 73
4, 214979, Note_on_c, 0, 65, 0
4, 214979, Note_on_c, 0, 59, 79
4, 215040, Note_on_c, 0, 59, 0
4, 215040, Note_on_c, 0, 60, 87
4, 215100, Note_on_c, 0, 60, 0
4, 215100, Note_on_c, 0, 64, 95
4, 215159, Note_on_c, 0, 64, 0
4, 215159, Note_on_c, 0, 65, 87
4, 215220, Note_on_c, 0, 65, 0
4, 215220, Note_on_c, 0, 67, 88
4, 215280, Note_on_c, 0, 67, 0
4, 215280, Note_on_c, 0, 68, 90
4, 215339, Note_on_c, 0, 68, 0
4, 215339, Note_on_c, 0, 64, 72
4, 215400, Note_on_c, 0, 64, 0
4, 215400, Note_on_c, 0, 65, 88
4, 215460, Note_on_c, 0, 65, 0
4, 215460, Note_on_c, 0, 67, 88
4, 215519, Note_on_c, 0, 67, 0
4, 215519, Note_on_c, 0, 68, 89
4, 215580, Note_on_c, 0, 68, 0
4, 215580, Note_on_c, 0, 71, 92
4, 215640, Note_on_c, 0, 71, 0
4, 215640, Note_on_c, 0, 72, 90
4, 215699, Note_on_c, 0, 72, 0
4, 215699, Note_on_c, 0, 68, 74
4, 215760, Note_on_c, 0, 68, 0
4, 215760, Note_on_c, 0, 72, 88
4, 215820, Note_on_c, 0, 72, 0
4, 215820, Note_on_c, 0, 48, 0
4, 215820, Note_on_c, 0, 29, 0
4, 215820, Note_on_c, 0, 41, 0
4, 215820, Note_on_c, 0, 56, 0
4, 215820, Note_on_c, 0, 77, 100
4, 215879, Note_on_c, 0, 77, 0
4, 215879, Note_on_c, 0, 79, 93
4, 215940, Note_on_c, 0, 79, 0
4, 215940, Note_on_c, 0, 80, 87
4, 216000, Note_on_c, 0, 80, 0
4, 216000, Note_on_c, 0, 82, 88
4, 216000, Note_on_c, 0, 58, 73
4, 216059, Note_on_c, 0, 82, 0
4, 216059, Note_on_c, 0, 84, 88
4, 216120, Note_on_c, 0, 84, 0
4, 216120, Note_on_c, 0, 85, 92
4, 216180, Note_on_c, 0, 85, 0
4, 216180, Note_on_c, 0, 58, 0
4, 216180, Note_on_c, 0, 84, 81
4, 216180, Note_on_c, 0, 65, 108
4, 216180, Note_on_c, 0, 67, 108
4, 216180, Note_on_c, 0, 73, 108
4, 216239, Note_on_c, 0, 84, 0
4, 216239, Note_on_c, 0, 82, 81
4, 216300, Note_on_c, 0, 82, 0
4, 216300, Note_on_c, 0, 80, 79
4, 216360, Note_on_c, 0, 80, 0
4, 216360, Note_on_c, 0, 79, 74
4, 216419, Note_on_c, 0, 79, 0
4, 216419, Note_on_c, 0, 80, 88
4, 216480, Note_on_c, 0, 80, 0
4, 216480, Note_on_c, 0, 82, 89
4, 216540, Note_on_c, 0, 82, 0
4, 216540, Note_on_c, 0, 73, 0
4, 216540, Note_on_c, 0, 67, 0
4, 216540, Note_on_c, 0, 65, 0
4, 216540, Note_on_c, 0, 80, 78
4, 216540, Note_on_c, 0, 65, 89
4, 216540, Note_on_c, 0, 67, 89
4, 216540, Note_on_c, 0, 73, 89
4, 216599, Note_on_c, 0, 80, 0
4, 216599, Note_on_c, 0, 79, 83
4, 216660, Note_on_c, 0, 79, 0
4, 216660, Note_on_c, 0, 77, 78
4, 216720, Note_on_c, 0, 77, 0
4, 216720, Note_on_c, 0, 65, 0
4, 216720, Note_on_c, 0, 67, 0
4, 216720, Note_on_c, 0, 73, 0
4, 216720, Note_on_c, 0, 76, 83
4, 216720, Note_on_c, 0, 48, 73
4, 216779, Note_on_c, 0, 76, 0
4, 216779, Note_on_c, 0, 77, 84
4, 216840, Note_on_c, 0, 77, 0
4, 216840, Note_on_c, 0, 79, 87
4, 216900, Note_on_c, 0, 79, 0
4, 216900, Note_on_c, 0, 48, 0
4, 216900, Note_on_c, 0, 77, 82
4, 216900, Note_on_c, 0, 55, 102
4, 216900, Note_on_c, 0, 58, 102
4, 216900, Note_on_c, 0, 67, 102
4, 216959, Note_on_c, 0, 77, 0
4, 216959, Note_on_c, 0, 76, 79
4, 217020, Note_on_c, 0, 76, 0
4, 217020, Note_on_c, 0, 73, 74
4, 217080, Note_on_c, 0, 73, 0
4, 217080, Note_on_c, 0, 72, 82
4, 217139, Note_on_c, 0, 72, 0
4, 217139, Note_on_c, 0, 73, 88
4, 217200, Note_on_c, 0, 73, 0
4, 217200, Note_on_c, 0, 72, 82
4, 217260, Note_on_c, 0, 72, 0
4, 217260, Note_on_c, 0, 67, 0
4, 217260, Note_on_c, 0, 58, 0
4, 217260, Note_on_c, 0, 55, 0
4, 217260, Note_on_c, 0, 70, 76
4, 217260, Note_on_c, 0, 55, 81
4, 217260, Note_on_c, 0, 58, 81
4, 217260, Note_on_c, 0, 64, 81
4, 217319, Note_on_c, 0, 70, 0
4, 217319, Note_on_c, 0, 68, 78
4, 217380, Note_on_c, 0, 68, 0
4, 217380, Note_on_c, 0, 67, 77
4, 217440, Note_on_c, 0, 67, 0
4, 217440, Note_on_c, 0, 55, 0
4, 217440, Note_on_c, 0, 58, 0
4, 217440, Note_on_c, 0, 64, 0
4, 217440, Note_on_c, 0, 72, 96
4, 217440, Note_on_c, 0, 68, 82
4, 217440, Note_on_c, 0, 65, 85
4, 217499, Note_on_c, 0, 65, 0
4, 217499, Note_on_c, 0, 67, 93
4, 217560, Note_on_c, 0, 67, 0
4, 217560, Note_on_c, 0, 68, 89
4, 217620, Note_on_c, 0, 68, 0
4, 217620, Note_on_c, 0, 67, 81
4, 217679, Note_on_c, 0, 67, 0
4, 217679, Note_on_c, 0, 65, 79
4, 217710, Note_on_c, 0, 72, 0
4, 217710, Note_on_c, 0, 73, 89
4, 217740, Note_on_c, 0, 65, 0
4, 217740, Note_on_c, 0, 61, 71
4, 217800, Note_on_c, 0, 61, 0
4, 217800, Note_on_c, 0, 73, 0
4, 217800, Note_on_c, 0, 68, 0
4, 217800, Note_on_c, 0, 75, 88
4, 217800, Note_on_c, 0, 65, 94
4, 217800, Note_on_c, 0, 68, 94
4, 217800, Note_on_c, 0, 60, 79
4, 217859, Note_on_c, 0, 60, 0
4, 217859, Note_on_c, 0, 61, 88
4, 217920, Note_on_c, 0, 61, 0
4, 217920, Note_on_c, 0, 63, 86
4, 217980, Note_on_c, 0, 63, 0
4, 217980, Note_on_c, 0, 75, 0
4, 217980, Note_on_c, 0, 73, 77
4, 217980, Note_on_c, 0, 61, 78
4, 218039, Note_on_c, 0, 61, 0
4, 218039, Note_on_c, 0, 60, 77
4, 218070, Note_on_c, 0, 73, 0
4, 218070, Note_on_c, 0, 72, 80
4, 218100, Note_on_c, 0, 60, 0
4, 218100, Note_on_c, 0, 58, 80
4, 218160, Note_on_c, 0, 58, 0
4, 218160, Note_on_c, 0, 72, 0
4, 218160, Note_on_c, 0, 68, 0
4, 218160, Note_on_c, 0, 65, 0
4, 218160, Note_on_c, 0, 65, 93
4, 218160, Note_on_c, 0, 68, 93
4, 218160, Note_on_c, 0, 72, 93
4, 218160, Note_on_c, 0, 77, 93
4, 218160, Note_on_c, 0, 56, 80
4, 218219, Note_on_c, 0, 56, 0
4, 218219, Note_on_c, 0, 58, 81
4, 218280, Note_on_c, 0, 58, 0
4, 218280, Note_on_c, 0, 60, 94
4, 218340, Note_on_c, 0, 60, 0
4, 218340, Note_on_c, 0, 58, 83
4, 218399, Note_on_c, 0, 58, 0
4, 218399, Note_on_c, 0, 56, 81
4, 218460, Note_on_c, 0, 56, 0
4, 218460, Note_on_c, 0, 55, 82
4, 218520, Note_on_c, 0, 55, 0
4, 218520, Note_on_c, 0, 53, 83
4, 218579, Note_on_c, 0, 53, 0
4, 218579, Note_on_c, 0, 55, 88
4, 218640, Note_on_c, 0, 55, 0
4, 218640, Note_on_c, 0, 56, 88
4, 218700, Note_on_c, 0, 56, 0
4, 218700, Note_on_c, 0, 55, 80
4, 218759, Note_on_c, 0, 55, 0
4, 218759, Note_on_c, 0, 53, 78
4, 218820, Note_on_c, 0, 53, 0
4, 218820, Note_on_c, 0, 51, 82
4, 218880, Note_on_c, 0, 51, 0
4, 218880, Note_on_c, 0, 77, 0
4, 218880, Note_on_c, 0, 65, 0
4, 218880, Note_on_c, 0, 68, 0
4, 218880, Note_on_c, 0, 72, 0
4, 218880, Note_on_c, 0, 84, 104
4, 218880, Note_on_c, 0, 50, 85
4, 218939, Note_on_c, 0, 84, 0
4, 218939, Note_on_c, 0, 86, 89
4, 219000, Note_on_c, 0, 86, 0
4, 219000, Note_on_c, 0, 87, 92
4, 219060, Note_on_c, 0, 87, 0
4, 219060, Note_on_c, 0, 50, 0
4, 219060, Note_on_c, 0, 86, 81
4, 219060, Note_on_c, 0, 63, 104
4, 219060, Note_on_c, 0, 72, 104
4, 219119, Note_on_c, 0, 86, 0
4, 219119, Note_on_c, 0, 84, 80
4, 219180, Note_on_c, 0, 84, 0
4, 219180, Note_on_c, 0, 82, 73
4, 219240, Note_on_c, 0, 82, 0
4, 219240, Note_on_c, 0, 81, 80
4, 219299, Note_on_c, 0, 81, 0
4, 219299, Note_on_c, 0, 82, 89
4, 219360, Note_on_c, 0, 82, 0
4, 219360, Note_on_c, 0, 84, 85
4, 219420, Note_on_c, 0, 84, 0
4, 219420, Note_on_c, 0, 72, 0
4, 219420, Note_on_c, 0, 63, 0
4, 219420, Note_on_c, 0, 82, 76
4, 219420, Note_on_c, 0, 60, 67
4, 219420, Note_on_c, 0, 63, 67
4, 219479, Note_on_c, 0, 82, 0
4, 219479, Note_on_c, 0, 81, 82
4, 219540, Note_on_c, 0, 81, 0
4, 219540, Note_on_c, 0, 79, 78
4, 219600, Note_on_c, 0, 79, 0
4, 219600, Note_on_c, 0, 63, 0
4, 219600, Note_on_c, 0, 60, 0
4, 219600, Note_on_c, 0, 78, 78
4, 219600, Note_on_c, 0, 50, 74
4, 219659, Note_on_c, 0, 78, 0
4, 219659, Note_on_c, 0, 79, 86
4, 219720, Note_on_c, 0, 79, 0
4, 219720, Note_on_c, 0, 81, 90
4, 219780, Note_on_c, 0, 81, 0
4, 219780, Note_on_c, 0, 50, 0
4, 219780, Note_on_c, 0, 79, 70
4, 219780, Note_on_c, 0, 60, 102
4, 219780, Note_on_c, 0, 69, 102
4, 219839, Note_on_c, 0, 79, 0
4, 219839, Note_on_c, 0, 78, 79
4, 219900, Note_on_c, 0, 78, 0
4, 219900, Note_on_c, 0, 75, 76
4, 219960, Note_on_c, 0, 75, 0
4, 219960, Note_on_c, 0, 74, 77
4, 220019, Note_on_c, 0, 74, 0
4, 220019, Note_on_c, 0, 75, 80
4, 220080, Note_on_c, 0, 75, 0
4, 220080, Note_on_c, 0, 74, 78
4, 220140, Note_on_c, 0, 74, 0
4, 220140, Note_on_c, 0, 69, 0
4, 220140, Note_on_c, 0, 60, 0
4, 220140, Note_on_c, 0, 72, 74
4, 220140, Note_on_c, 0, 60, 76
4, 220140, Note_on_c, 0, 66, 76
4, 220199, Note_on_c, 0, 72, 0
4, 220199, Note_on_c, 0, 70, 78
4, 220260, Note_on_c, 0, 70, 0
4, 220260, Note_on_c, 0, 69, 81
4, 220320, Note_on_c, 0, 69, 0
4, 220320, Note_on_c, 0, 66, 0
4, 220320, Note_on_c, 0, 60, 0
4, 220320, Note_on_c, 0, 74, 96
4, 220320, Note_on_c, 0, 70, 102
4, 220320, Note_on_c, 0, 67, 91
4, 220379, Note_on_c, 0, 67, 0
4, 220379, Note_on_c, 0, 69, 88
4, 220440, Note_on_c, 0, 69, 0
4, 220440, Note_on_c, 0, 70, 90
4, 220500, Note_on_c, 0, 70, 0
4, 220500, Note_on_c, 0, 69, 82
4, 220559, Note_on_c, 0, 69, 0
4, 220559, Note_on_c, 0, 67, 80
4, 220590, Note_on_c, 0, 74, 0
4, 220590, Note_on_c, 0, 75, 90
4, 220620, Note_on_c, 0, 67, 0
4, 220620, Note_on_c, 0, 63, 73
4, 220680, Note_on_c, 0, 63, 0
4, 220680, Note_on_c, 0, 75, 0
4, 220680, Note_on_c, 0, 70, 0
4, 220680, Note_on_c, 0, 77, 91
4, 220680, Note_on_c, 0, 67, 102
4, 220680, Note_on_c, 0, 70, 102
4, 220680, Note_on_c, 0, 62, 80
4, 220739, Note_on_c, 0, 62, 0
4, 220739, Note_on_c, 0, 63, 86
4, 220800, Note_on_c, 0, 63, 0
4, 220800, Note_on_c, 0, 65, 91
4, 220860, Note_on_c, 0, 65, 0
4, 220860, Note_on_c, 0, 77, 0
4, 220860, Note_on_c, 0, 75, 77
4, 220860, Note_on_c, 0, 63, 85
4, 220919, Note_on_c, 0, 63, 0
4, 220919, Note_on_c, 0, 62, 80
4, 220950, Note_on_c, 0, 75, 0
4, 220950, Note_on_c, 0, 74, 81
4, 220980, Note_on_c, 0, 62, 0
4, 220980, Note_on_c, 0, 60, 74
4, 221040, Note_on_c, 0, 60, 0
4, 221040, Note_on_c, 0, 74, 0
4, 221040, Note_on_c, 0, 70, 0
4, 221040, Note_on_c, 0, 67, 0
4, 221040, Note_on_c, 0, 67, 94
4, 221040, Note_on_c, 0, 70, 94
4, 221040, Note_on_c, 0, 74, 94
4, 221040, Note_on_c, 0, 79, 94
4, 221040, Note_on_c, 0, 58, 83
4, 221099, Note_on_c, 0, 58, 0
4, 221099, Note_on_c, 0, 60, 84
4, 221160, Note_on_c, 0, 60, 0
4, 221160, Note_on_c, 0, 62, 85
4, 221220, Note_on_c, 0, 62, 0
4, 221220, Note_on_c, 0, 60, 87
4, 221279, Note_on_c, 0, 60, 0
4, 221279, Note_on_c, 0, 58, 88
4, 221340, Note_on_c, 0, 58, 0
4, 221340, Note_on_c, 0, 57, 89
4, 221400, Note_on_c, 0, 57, 0
4, 221400, Note_on_c, 0, 55, 90
4, 221459, Note_on_c, 0, 55, 0
4, 221459, Note_on_c, 0, 57, 91
4, 221520, Note_on_c, 0, 57, 0
4, 221520, Note_on_c, 0, 58, 92
4, 221580, Note_on_c, 0, 58, 0
4, 221580, Note_on_c, 0, 57, 93
4, 221639, Note_on_c, 0, 57, 0
4, 221639, Note_on_c, 0, 55, 94
4, 221700, Note_on_c, 0, 55, 0
4, 221700, Note_on_c, 0, 53, 95
4, 221760, Note_on_c, 0, 53, 0
4, 221760, Note_on_c, 0, 79, 0
4, 221760, Note_on_c, 0, 67, 0
4, 221760, Note_on_c, 0, 70, 0
4, 221760, Note_on_c, 0, 74, 0
4, 221760, Note_on_c, 0, 60, 72
4, 221760, Note_on_c, 0, 54, 81
4, 221760, Note_on_c, 0, 39, 91
4, 221760, Note_on_c, 0, 46, 91
4, 221819, Note_on_c, 0, 60, 0
4, 221819, Note_on_c, 0, 61, 96
4, 221880, Note_on_c, 0, 61, 0
4, 221880, Note_on_c, 0, 63, 96
4, 221940, Note_on_c, 0, 63, 0
4, 221940, Note_on_c, 0, 63, 103
4, 221999, Note_on_c, 0, 63, 0
4, 221999, Note_on_c, 0, 61, 94
4, 222060, Note_on_c, 0, 61, 0
4, 222060, Note_on_c, 0, 60, 92
4, 222120, Note_on_c, 0, 60, 0
4, 222120, Note_on_c, 0, 60, 97
4, 222179, Note_on_c, 0, 60, 0
4, 222179, Note_on_c, 0, 61, 102
4, 222240, Note_on_c, 0, 61, 0
4, 222240, Note_on_c, 0, 63, 104
4, 222300, Note_on_c, 0, 63, 0
4, 222300, Note_on_c, 0, 63, 99
4, 222359, Note_on_c, 0, 63, 0
4, 222359, Note_on_c, 0, 61, 89
4, 222420, Note_on_c, 0, 61, 0
4, 222420, Note_on_c, 0, 60, 92
4, 222480, Note_on_c, 0, 60, 0
4, 222480, Note_on_c, 0, 60, 96
4, 222539, Note_on_c, 0, 60, 0
4, 222539, Note_on_c, 0, 61, 101
4, 222600, Note_on_c, 0, 61, 0
4, 222600, Note_on_c, 0, 63, 105
4, 222660, Note_on_c, 0, 63, 0
4, 222660, Note_on_c, 0, 63, 98
4, 222719, Note_on_c, 0, 63, 0
4, 222719, Note_on_c, 0, 61, 93
4, 222780, Note_on_c, 0, 61, 0
4, 222780, Note_on_c, 0, 60, 94
4, 222840, Note_on_c, 0, 60, 0
4, 222840, Note_on_c, 0, 60, 97
4, 223020, Note_on_c, 0, 60, 0
4, 223020, Note_on_c, 0, 54, 0
4, 223020, Note_on_c, 0, 39, 0
4, 223020, Note_on_c, 0, 46, 0
4, 223200, Note_on_c, 0, 34, 87
4, 223200, Note_on_c, 0, 46, 87
4, 223259, Note_on_c, 0, 61, 89
4, 223320, Note_on_c, 0, 61, 0
4, 223320, Note_on_c, 0, 65, 106
4, 223380, Note_on_c, 0, 65, 0
4, 223380, Note_on_c, 0, 70, 112
4, 223380, Note_on_c, 0, 73, 112
4, 223439, Note_on_c, 0, 73, 0
4, 223439, Note_on_c, 0, 70, 0
4, 223439, Note_on_c, 0, 61, 75
4, 223500, Note_on_c, 0, 61, 0
4, 223500, Note_on_c, 0, 65, 101
4, 223560, Note_on_c, 0, 65, 0
4, 223560, Note_on_c, 0, 46, 0
4, 223560, Note_on_c, 0, 34, 0
4, 223560, Note_on_c, 0, 37, 101
4, 223560, Note_on_c, 0, 49, 101
4, 223619, Note_on_c, 0, 61, 85
4, 223680, Note_on_c, 0, 61, 0
4, 223680, Note_on_c, 0, 65, 108
4, 223740, Note_on_c, 0, 65, 0
4, 223740, Note_on_c, 0, 70, 117
4, 223740, Note_on_c, 0, 73, 117
4, 223799, Note_on_c, 0, 73, 0
4, 223799, Note_on_c, 0, 70, 0
4, 223799, Note_on_c, 0, 61, 75
4, 223860, Note_on_c, 0, 61, 0
4, 223860, Note_on_c, 0, 65, 106
4, 223920, Note_on_c, 0, 65, 0
4, 223920, Note_on_c, 0, 49, 0
4, 223920, Note_on_c, 0, 37, 0
4, 223920, Note_on_c, 0, 39, 99
4, 223920, Note_on_c, 0, 51, 99
4, 223979, Note_on_c, 0, 61, 93
4, 224040, Note_on_c, 0, 61, 0
4, 224040, Note_on_c, 0, 66, 108
4, 224100, Note_on_c, 0, 66, 0
4, 224100, Note_on_c, 0, 70, 116
4, 224100, Note_on_c, 0, 73, 116
4, 224159, Note_on_c, 0, 73, 0
4, 224159, Note_on_c, 0, 70, 0
4, 224159, Note_on_c, 0, 61, 75
4, 224220, Note_on_c, 0, 61, 0
4, 224220, Note_on_c, 0, 66, 109
4, 224280, Note_on_c, 0, 66, 0
4, 224280, Note_on_c, 0, 51, 0
4, 224280, Note_on_c, 0, 39, 0
4, 224280, Note_on_c, 0, 41, 100
4, 224280, Note_on_c, 0, 53, 100
4, 224339, Note_on_c, 0, 61, 85
4, 224400, Note_on_c, 0, 61, 0
4, 224400, Note_on_c, 0, 65, 113
4, 224460, Note_on_c, 0, 65, 0
4, 224460, Note_on_c, 0, 70, 119
4, 224460, Note_on_c, 0, 73, 119
4, 224519, Note_on_c, 0, 73, 0
4, 224519, Note_on_c, 0, 70, 0
4, 224519, Note_on_c, 0, 61, 73
4, 224580, Note_on_c, 0, 61, 0
4, 224580, Note_on_c, 0, 65, 100
4, 224640, Note_on_c, 0, 65, 0
4, 224640, Note_on_c, 0, 53, 0
4, 224640, Note_on_c, 0, 41, 0
4, 224640, Note_on_c, 0, 44, 98
4, 224640, Note_on_c, 0, 56, 98
4, 224699, Note_on_c, 0, 61, 88
4, 224760, Note_on_c, 0, 61, 0
4, 224760, Note_on_c, 0, 65, 109
4, 224820, Note_on_c, 0, 65, 0
4, 224820, Note_on_c, 0, 70, 118
4, 224820, Note_on_c, 0, 73, 118
4, 224879, Note_on_c, 0, 73, 0
4, 224879, Note_on_c, 0, 70, 0
4, 224879, Note_on_c, 0, 61, 75
4, 224940, Note_on_c, 0, 61, 0
4, 224940, Note_on_c, 0, 65, 104
4, 225000, Note_on_c, 0, 65, 0
4, 225000, Note_on_c, 0, 56, 0
4, 225000, Note_on_c, 0, 44, 0
4, 225000, Note_on_c, 0, 43, 99
4, 225000, Note_on_c, 0, 55, 99
4, 225059, Note_on_c, 0, 64, 89
4, 225120, Note_on_c, 0, 64, 0
4, 225120, Note_on_c, 0, 70, 116
4, 225120, Note_on_c, 0, 72, 116
4, 225180, Note_on_c, 0, 72, 0
4, 225180, Note_on_c, 0, 43, 0
4, 225180, Note_on_c, 0, 55, 0
4, 225180, Note_on_c, 0, 70, 0
4, 225180, Note_on_c, 0, 41, 92
4, 225180, Note_on_c, 0, 53, 92
4, 225239, Note_on_c, 0, 65, 89
4, 225300, Note_on_c, 0, 65, 0
4, 225300, Note_on_c, 0, 70, 111
4, 225300, Note_on_c, 0, 72, 111
4, 225360, Note_on_c, 0, 72, 0
4, 225360, Note_on_c, 0, 41, 0
4, 225360, Note_on_c, 0, 53, 0
4, 225360, Note_on_c, 0, 70, 0
4, 225360, Note_on_c, 0, 40, 93
4, 225360, Note_on_c, 0, 52, 93
4, 225419, Note_on_c, 0, 67, 89
4, 225480, Note_on_c, 0, 67, 0
4, 225480, Note_on_c, 0, 70, 111
4, 225480, Note_on_c, 0, 72, 111
4, 225540, Note_on_c, 0, 72, 0
4, 225540, Note_on_c, 0, 40, 0
4, 225540, Note_on_c, 0, 52, 0
4, 225540, Note_on_c, 0, 70, 0
4, 225540, Note_on_c, 0, 38, 87
4, 225540, Note_on_c, 0, 50, 87
4, 225599, Note_on_c, 0, 65, 89
4, 225660, Note_on_c, 0, 65, 0
4, 225660, Note_on_c, 0, 70, 113
4, 225660, Note_on_c, 0, 72, 113
4, 225720, Note_on_c, 0, 72, 0
4, 225720, Note_on_c, 0, 38, 0
4, 225720, Note_on_c, 0, 50, 0
4, 225720, Note_on_c, 0, 70, 0
4, 225720, Note_on_c, 0, 36, 100
4, 225720, Note_on_c, 0, 48, 100
4, 225779, Note_on_c, 0, 60, 84
4, 225840, Note_on_c, 0, 60, 0
4, 225840, Note_on_c, 0, 64, 110
4, 225900, Note_on_c, 0, 64, 0
4, 225900, Note_on_c, 0, 70, 119
4, 225900, Note_on_c, 0, 72, 119
4, 225959, Note_on_c, 0, 72, 0
4, 225959, Note_on_c, 0, 70, 0
4, 225959, Note_on_c, 0, 60, 76
4, 226020, Note_on_c, 0, 60, 0
4, 226020, Note_on_c, 0, 64, 105
4, 226080, Note_on_c, 0, 64, 0
4, 226080, Note_on_c, 0, 48, 0
4, 226080, Note_on_c, 0, 36, 0
4, 226080, Note_on_c, 0, 29, 87
4, 226080, Note_on_c, 0, 41, 87
4, 226139, Note_on_c, 0, 56, 87
4, 226200, Note_on_c, 0, 56, 0
4, 226200, Note_on_c, 0, 60, 108
4, 226260, Note_on_c, 0, 60, 0
4, 226260, Note_on_c, 0, 65, 121
4, 226260, Note_on_c, 0, 68, 121
4, 226319, Note_on_c, 0, 68, 0
4, 226319, Note_on_c, 0, 65, 0
4, 226319, Note_on_c, 0, 56, 88
4, 226380, Note_on_c, 0, 56, 0
4, 226380, Note_on_c, 0, 60, 107
4, 226440, Note_on_c, 0, 60, 0
4, 226440, Note_on_c, 0, 41, 0
4, 226440, Note_on_c, 0, 29, 0
4, 226440, Note_on_c, 0, 32, 99
4, 226440, Note_on_c, 0, 44, 99
4, 226499, Note_on_c, 0, 56, 84
4, 226560, Note_on_c, 0, 56, 0
4, 226560, Note_on_c, 0, 60, 108
4, 226620, Note_on_c, 0, 60, 0
4, 226620, Note_on_c, 0, 65, 119
4, 226620, Note_on_c, 0, 68, 119
4, 226679, Note_on_c, 0, 68, 0
4, 226679, Note_on_c, 0, 65, 0
4, 226679, Note_on_c, 0, 56, 90
4, 226740, Note_on_c, 0, 56, 0
4, 226740, Note_on_c, 0, 60, 102
4, 226800, Note_on_c, 0, 60, 0
4, 226800, Note_on_c, 0, 44, 0
4, 226800, Note_on_c, 0, 32, 0
4, 226800, Note_on_c, 0, 34, 99
4, 226800, Note_on_c, 0, 46, 99
4, 226859, Note_on_c, 0, 56, 86
4, 226920, Note_on_c, 0, 56, 0
4, 226920, Note_on_c, 0, 61, 111
4, 226980, Note_on_c, 0, 61, 0
4, 226980, Note_on_c, 0, 65, 119
4, 226980, Note_on_c, 0, 68, 119
4, 227039, Note_on_c, 0, 68, 0
4, 227039, Note_on_c, 0, 65, 0
4, 227039, Note_on_c, 0, 56, 85
4, 227100, Note_on_c, 0, 56, 0
4, 227100, Note_on_c, 0, 61, 104
4, 227160, Note_on_c, 0, 61, 0
4, 227160, Note_on_c, 0, 46, 0
4, 227160, Note_on_c, 0, 34, 0
4, 227160, Note_on_c, 0, 36, 101
4, 227160, Note_on_c, 0, 48, 101
4, 227219, Note_on_c, 0, 56, 84
4, 227280, Note_on_c, 0, 56, 0
4, 227280, Note_on_c, 0, 60, 104
4, 227340, Note_on_c, 0, 60, 0
4, 227340, Note_on_c, 0, 65, 117
4, 227340, Note_on_c, 0, 68, 117
4, 227399, Note_on_c, 0, 68, 0
4, 227399, Note_on_c, 0, 65, 0
4, 227399, Note_on_c, 0, 56, 87
4, 227460, Note_on_c, 0, 56, 0
4, 227460, Note_on_c, 0, 60, 106
4, 227520, Note_on_c, 0, 60, 0
4, 227520, Note_on_c, 0, 48, 0
4, 227520, Note_on_c, 0, 36, 0
4, 227520, Note_on_c, 0, 39, 100
4, 227520, Note_on_c, 0, 51, 100
4, 227579, Note_on_c, 0, 56, 92
4, 227640, Note_on_c, 0, 56, 0
4, 227640, Note_on_c, 0, 60, 104
4, 227700, Note_on_c, 0, 60, 0
4, 227700, Note_on_c, 0, 65, 111
4, 227700, Note_on_c, 0, 68, 111
4, 227759, Note_on_c, 0, 68, 0
4, 227759, Note_on_c, 0, 65, 0
4, 227759, Note_on_c, 0, 56, 82
4, 227820, Note_on_c, 0, 56, 0
4, 227820, Note_on_c, 0, 60, 109
4, 227880, Note_on_c, 0, 60, 0
4, 227880, Note_on_c, 0, 51, 0
4, 227880, Note_on_c, 0, 39, 0
4, 227880, Note_on_c, 0, 38, 89
4, 227880, Note_on_c, 0, 50, 89
4, 227939, Note_on_c, 0, 59, 90
4, 228000, Note_on_c, 0, 59, 0
4, 228000, Note_on_c, 0, 65, 111
4, 228000, Note_on_c, 0, 67, 111
4, 228060, Note_on_c, 0, 67, 0
4, 228060, Note_on_c, 0, 38, 0
4, 228060, Note_on_c, 0, 50, 0
4, 228060, Note_on_c, 0, 65, 0
4, 228060, Note_on_c, 0, 36, 92
4, 228060, Note_on_c, 0, 48, 92
4, 228119, Note_on_c, 0, 60, 89
4, 228180, Note_on_c, 0, 60, 0
4, 228180, Note_on_c, 0, 65, 112
4, 228180, Note_on_c, 0, 67, 112
4, 228240, Note_on_c, 0, 67, 0
4, 228240, Note_on_c, 0, 36, 0
4, 228240, Note_on_c, 0, 48, 0
4, 228240, Note_on_c, 0, 65, 0
4, 228240, Note_on_c, 0, 35, 93
4, 228240, Note_on_c, 0, 47, 93
4, 228299, Note_on_c, 0, 62, 86
4, 228360, Note_on_c, 0, 62, 0
4, 228360, Note_on_c, 0, 65, 107
4, 228360, Note_on_c, 0, 67, 107
4, 228420, Note_on_c, 0, 67, 0
4, 228420, Note_on_c, 0, 35, 0
4, 228420, Note_on_c, 0, 47, 0
4, 228420, Note_on_c, 0, 65, 0
4, 228420, Note_on_c, 0, 33, 95
4, 228420, Note_on_c, 0, 45, 95
4, 228479, Note_on_c, 0, 60, 85
4, 228540, Note_on_c, 0, 60, 0
4, 228540, Note_on_c, 0, 65, 114
4, 228540, Note_on_c, 0, 67, 114
4, 228600, Note_on_c, 0, 67, 0
4, 228600, Note_on_c, 0, 33, 0
4, 228600, Note_on_c, 0, 45, 0
4, 228600, Note_on_c, 0, 65, 0
4, 228600, Note_on_c, 0, 31, 95
4, 228600, Note_on_c, 0, 43, 95
4, 228659, Note_on_c, 0, 55, 85
4, 228720, Note_on_c, 0, 55, 0
4, 228720, Note_on_c, 0, 59, 103
4, 228780, Note_on_c, 0, 59, 0
4, 228780, Note_on_c, 0, 65, 120
4, 228780, Note_on_c, 0, 67, 120
4, 228839, Note_on_c, 0, 67, 0
4, 228839, Note_on_c, 0, 65, 0
4, 228839, Note_on_c, 0, 55, 86
4, 228900, Note_on_c, 0, 55, 0
4, 228900, Note_on_c, 0, 59, 102
4, 228960, Note_on_c, 0, 59, 0
4, 228960, Note_on_c, 0, 43, 0
4, 228960, Note_on_c, 0, 31, 0
4, 228960, Note_on_c, 0, 67, 126
4, 228960, Note_on_c, 0, 75, 126
4, 228960, Note_on_c, 0, 36, 107
4, 228960, Note_on_c, 0, 48, 107
4, 229019, Note_on_c, 0, 75, 0
4, 229019, Note_on_c, 0, 67, 0
4, 229019, Note_on_c, 0, 77, 107
4, 229080, Note_on_c, 0, 77, 0
4, 229080, Note_on_c, 0, 79, 105
4, 229140, Note_on_c, 0, 79, 0
4, 229140, Note_on_c, 0, 36, 0
4, 229140, Note_on_c, 0, 48, 0
4, 229140, Note_on_c, 0, 67, 102
4, 229140, Note_on_c, 0, 79, 102
4, 229140, Note_on_c, 0, 55, 126
4, 229140, Note_on_c, 0, 60, 126
4, 229140, Note_on_c, 0, 63, 126
4, 229199, Note_on_c, 0, 79, 0
4, 229199, Note_on_c, 0, 67, 0
4, 229199, Note_on_c, 0, 77, 89
4, 229260, Note_on_c, 0, 77, 0
4, 229260, Note_on_c, 0, 75, 89
4, 229320, Note_on_c, 0, 75, 0
4, 229320, Note_on_c, 0, 67, 97
4, 229320, Note_on_c, 0, 75, 97
4, 229379, Note_on_c, 0, 75, 0
4, 229379, Note_on_c, 0, 67, 0
4, 229379, Note_on_c, 0, 77, 98
4, 229440, Note_on_c, 0, 77, 0
4, 229440, Note_on_c, 0, 79, 99
4, 229500, Note_on_c, 0, 79, 0
4, 229500, Note_on_c, 0, 63, 0
4, 229500, Note_on_c, 0, 55, 0
4, 229500, Note_on_c, 0, 60, 0
4, 229500, Note_on_c, 0, 67, 99
4, 229500, Note_on_c, 0, 79, 99
4, 229500, Note_on_c, 0, 36, 99
4, 229500, Note_on_c, 0, 48, 99
4, 229559, Note_on_c, 0, 79, 0
4, 229559, Note_on_c, 0, 67, 0
4, 229559, Note_on_c, 0, 77, 100
4, 229620, Note_on_c, 0, 77, 0
4, 229620, Note_on_c, 0, 75, 101
4, 229680, Note_on_c, 0, 75, 0
4, 229680, Note_on_c, 0, 36, 0
4, 229680, Note_on_c, 0, 48, 0
4, 229680, Note_on_c, 0, 67, 102
4, 229680, Note_on_c, 0, 75, 102
4, 229680, Note_on_c, 0, 37, 102
4, 229680, Note_on_c, 0, 49, 102
4, 229739, Note_on_c, 0, 75, 0
4, 229739, Note_on_c, 0, 67, 0
4, 229739, Note_on_c, 0, 77, 102
4, 229800, Note_on_c, 0, 77, 0
4, 229800, Note_on_c, 0, 79, 103
4, 229860, Note_on_c, 0, 79, 0
4, 229860, Note_on_c, 0, 37, 0
4, 229860, Note_on_c, 0, 49, 0
4, 229860, Note_on_c, 0, 67, 104
4, 229860, Note_on_c, 0, 79, 104
4, 229860, Note_on_c, 0, 55, 104
4, 229860, Note_on_c, 0, 58, 104
4, 229860, Note_on_c, 0, 63, 104
4, 229919, Note_on_c, 0, 79, 0
4, 229919, Note_on_c, 0, 67, 0
4, 229919, Note_on_c, 0, 77, 104
4, 229980, Note_on_c, 0, 77, 0
4, 229980, Note_on_c, 0, 75, 105
4, 230040, Note_on_c, 0, 75, 0
4, 230040, Note_on_c, 0, 67, 106
4, 230040, Note_on_c, 0, 75, 106
4, 230099, Note_on_c, 0, 75, 0
4, 230099, Note_on_c, 0, 67, 0
4, 230099, Note_on_c, 0, 77, 106
4, 230160, Note_on_c, 0, 77, 0
4, 230160, Note_on_c, 0, 79, 107
4, 230220, Note_on_c, 0, 79, 0
4, 230220, Note_on_c, 0, 63, 0
4, 230220, Note_on_c, 0, 55, 0
4, 230220, Note_on_c, 0, 58, 0
4, 230220, Note_on_c, 0, 67, 108
4, 230220, Note_on_c, 0, 79, 108
4, 230220, Note_on_c, 0, 55, 108
4, 230220, Note_on_c, 0, 58, 108
4, 230220, Note_on_c, 0, 63, 108
4, 230279, Note_on_c, 0, 79, 0
4, 230279, Note_on_c, 0, 67, 0
4, 230279, Note_on_c, 0, 77, 109
4, 230340, Note_on_c, 0, 77, 0
4, 230340, Note_on_c, 0, 75, 109
4, 230400, Note_on_c, 0, 75, 0
4, 230400, Note_on_c, 0, 58, 0
4, 230400, Note_on_c, 0, 55, 0
4, 230400, Note_on_c, 0, 63, 0
4, 230400, Note_on_c, 0, 67, 105
4, 230400, Note_on_c, 0, 75, 105
4, 230400, Note_on_c, 0, 36, 95
4, 230400, Note_on_c, 0, 48, 95
4, 230459, Note_on_c, 0, 75, 0
4, 230459, Note_on_c, 0, 67, 0
4, 230459, Note_on_c, 0, 77, 115
4, 230520, Note_on_c, 0, 77, 0
4, 230520, Note_on_c, 0, 79, 122
4, 230580, Note_on_c, 0, 79, 0
4, 230580, Note_on_c, 0, 36, 0
4, 230580, Note_on_c, 0, 48, 0
4, 230580, Note_on_c, 0, 67, 109
4, 230580, Note_on_c, 0, 79, 109
4, 230580, Note_on_c, 0, 55, 126
4, 230580, Note_on_c, 0, 60, 126
4, 230580, Note_on_c, 0, 63, 126
4, 230639, Note_on_c, 0, 79, 0
4, 230639, Note_on_c, 0, 67, 0
4, 230639, Note_on_c, 0, 77, 101
4, 230700, Note_on_c, 0, 77, 0
4, 230700, Note_on_c, 0, 75, 98
4, 230760, Note_on_c, 0, 75, 0
4, 230760, Note_on_c, 0, 67, 105
4, 230760, Note_on_c, 0, 75, 105
4, 230819, Note_on_c, 0, 75, 0
4, 230819, Note_on_c, 0, 67, 0
4, 230819, Note_on_c, 0, 77, 117
4, 230880, Note_on_c, 0, 77, 0
4, 230880, Note_on_c, 0, 79, 119
4, 230940, Note_on_c, 0, 79, 0
4, 230940, Note_on_c, 0, 63, 0
4, 230940, Note_on_c, 0, 55, 0
4, 230940, Note_on_c, 0, 60, 0
4, 230940, Note_on_c, 0, 67, 109
4, 230940, Note_on_c, 0, 79, 109
4, 230940, Note_on_c, 0, 36, 101
4, 230940, Note_on_c, 0, 48, 101
4, 230999, Note_on_c, 0, 79, 0
4, 230999, Note_on_c, 0, 67, 0
4, 230999, Note_on_c, 0, 77, 106
4, 231060, Note_on_c, 0, 77, 0
4, 231060, Note_on_c, 0, 75, 101
4, 231120, Note_on_c, 0, 75, 0
4, 231120, Note_on_c, 0, 36, 0
4, 231120, Note_on_c, 0, 48, 0
4, 231120, Note_on_c, 0, 67, 108
4, 231120, Note_on_c, 0, 75, 108
4, 231120, Note_on_c, 0, 35, 111
4, 231120, Note_on_c, 0, 47, 111
4, 231179, Note_on_c, 0, 75, 0
4, 231179, Note_on_c, 0, 67, 0
4, 231179, Note_on_c, 0, 77, 122
4, 231240, Note_on_c, 0, 77, 0
4, 231240, Note_on_c, 0, 79, 119
4, 231300, Note_on_c, 0, 79, 0
4, 231300, Note_on_c, 0, 35, 0
4, 231300, Note_on_c, 0, 47, 0
4, 231300, Note_on_c, 0, 67, 112
4, 231300, Note_on_c, 0, 79, 112
4, 231300, Note_on_c, 0, 55, 126
4, 231300, Note_on_c, 0, 59, 126
4, 231300, Note_on_c, 0, 63, 126
4, 231359, Note_on_c, 0, 79, 0
4, 231359, Note_on_c, 0, 67, 0
4, 231359, Note_on_c, 0, 77, 107
4, 231420, Note_on_c, 0, 77, 0
4, 231420, Note_on_c, 0, 75, 104
4, 231480, Note_on_c, 0, 75, 0
4, 231480, Note_on_c, 0, 59, 0
4, 231480, Note_on_c, 0, 55, 0
4, 231480, Note_on_c, 0, 63, 0
4, 231480, Note_on_c, 0, 67, 114
4, 231480, Note_on_c, 0, 75, 114
4, 231480, Note_on_c, 0, 34, 101
4, 231480, Note_on_c, 0, 46, 101
4, 231539, Note_on_c, 0, 75, 0
4, 231539, Note_on_c, 0, 67, 0
4, 231539, Note_on_c, 0, 77, 122
4, 231600, Note_on_c, 0, 77, 0
4, 231600, Note_on_c, 0, 79, 118
4, 231660, Note_on_c, 0, 79, 0
4, 231660, Note_on_c, 0, 34, 0
4, 231660, Note_on_c, 0, 46, 0
4, 231660, Note_on_c, 0, 67, 117
4, 231660, Note_on_c, 0, 79, 117
4, 231660, Note_on_c, 0, 55, 126
4, 231660, Note_on_c, 0, 58, 126
4, 231660, Note_on_c, 0, 63, 126
4, 231719, Note_on_c, 0, 79, 0
4, 231719, Note_on_c, 0, 67, 0
4, 231719, Note_on_c, 0, 77, 103
4, 231780, Note_on_c, 0, 77, 0
4, 231780, Note_on_c, 0, 75, 100
4, 231840, Note_on_c, 0, 75, 0
4, 231840, Note_on_c, 0, 58, 0
4, 231840, Note_on_c, 0, 55, 0
4, 231840, Note_on_c, 0, 63, 0
4, 231840, Note_on_c, 0, 67, 112
4, 231840, Note_on_c, 0, 75, 112
4, 231840, Note_on_c, 0, 33, 104
4, 231840, Note_on_c, 0, 45, 104
4, 231899, Note_on_c, 0, 75, 0
4, 231899, Note_on_c, 0, 67, 0
4, 231899, Note_on_c, 0, 77, 116
4, 231960, Note_on_c, 0, 77, 0
4, 231960, Note_on_c, 0, 79, 121
4, 232020, Note_on_c, 0, 79, 0
4, 232020, Note_on_c, 0, 33, 0
4, 232020, Note_on_c, 0, 45, 0
4, 232020, Note_on_c, 0, 67, 115
4, 232020, Note_on_c, 0, 79, 115
4, 232020, Note_on_c, 0, 55, 126
4, 232020, Note_on_c, 0, 60, 126
4, 232020, Note_on_c, 0, 63, 126
4, 232079, Note_on_c, 0, 79, 0
4, 232079, Note_on_c, 0, 67, 0
4, 232079, Note_on_c, 0, 77, 105
4, 232140, Note_on_c, 0, 77, 0
4, 232140, Note_on_c, 0, 75, 102
4, 232200, Note_on_c, 0, 75, 0
4, 232200, Note_on_c, 0, 60, 0
4, 232200, Note_on_c, 0, 55, 0
4, 232200, Note_on_c, 0, 63, 0
4, 232200, Note_on_c, 0, 63, 118
4, 232259, Note_on_c, 0, 63, 0
4, 232259, Note_on_c, 0, 65, 117
4, 232320, Note_on_c, 0, 65, 0
4, 232320, Note_on_c, 0, 67, 120
4, 232380, Note_on_c, 0, 67, 0
4, 232380, Note_on_c, 0, 67, 111
4, 232439, Note_on_c, 0, 67, 0
4, 232439, Note_on_c, 0, 65, 101
4, 232500, Note_on_c, 0, 65, 0
4, 232500, Note_on_c, 0, 63, 104
4, 232560, Note_on_c, 0, 63, 0
4, 232560, Note_on_c, 0, 51, 104
4, 232619, Note_on_c, 0, 51, 0
4, 232619, Note_on_c, 0, 53, 115
4, 232680, Note_on_c, 0, 53, 0
4, 232680, Note_on_c, 0, 55, 120
4, 232740, Note_on_c, 0, 55, 0
4, 232740, Note_on_c, 0, 55, 114
4, 232799, Note_on_c, 0, 55, 0
4, 232799, Note_on_c, 0, 53, 116
4, 232860, Note_on_c, 0, 53, 0
4, 232860, Note_on_c, 0, 51, 112
4, 232920, Note_on_c, 0, 51, 0
4, 232920, Note_on_c, 0, 39, 93
4, 232979, Note_on_c, 0, 39, 0
4, 232979, Note_on_c, 0, 41, 116
4, 233040, Note_on_c, 0, 41, 0
4, 233040, Note_on_c, 0, 43, 114
4, 233100, Note_on_c, 0, 43, 0
4, 233100, Note_on_c, 0, 43, 115
4, 233159, Note_on_c, 0, 43, 0
4, 233159, Note_on_c, 0, 41, 113
4, 233220, Note_on_c, 0, 41, 0
4, 233220, Note_on_c, 0, 39, 111
4, 233280, Note_on_c, 0, 39, 0
4, 233280, Note_on_c, 0, 24, 107
4, 233280, Note_on_c, 0, 36, 107
4, 233640, Note_on_c, 0, 45, 98
4, 233640, Note_on_c, 0, 36, 96
4, 233664, Note_on_c, 0, 45, 0
4, 233664, Note_on_c, 0, 36, 0
4, 233664, Note_on_c, 0, 51, 121
4, 233664, Note_on_c, 0, 43, 115
4, 233688, Note_on_c, 0, 43, 0
4, 233688, Note_on_c, 0, 51, 0
4, 233688, Note_on_c, 0, 55, 118
4, 233688, Note_on_c, 0, 45, 115
4, 233712, Note_on_c, 0, 45, 0
4, 233712, Note_on_c, 0, 55, 0
4, 233712, Note_on_c, 0, 57, 117
4, 233712, Note_on_c, 0, 48, 111
4, 233736, Note_on_c, 0, 48, 0
4, 233736, Note_on_c, 0, 57, 0
4, 233736, Note_on_c, 0, 63, 126
4, 233736, Note_on_c, 0, 55, 119
4, 233760, Note_on_c, 0, 55, 0
4, 233760, Note_on_c, 0, 63, 0
4, 233760, Note_on_c, 0, 67, 126
4, 233760, Note_on_c, 0, 57, 114
4, 233784, Note_on_c, 0, 57, 0
4, 233784, Note_on_c, 0, 67, 0
4, 233784, Note_on_c, 0, 69, 122
4, 233784, Note_on_c, 0, 60, 121
4, 233807, Note_on_c, 0, 60, 0
4, 233807, Note_on_c, 0, 69, 0
4, 233807, Note_on_c, 0, 75, 126
4, 233807, Note_on_c, 0, 67, 126
4, 233831, Note_on_c, 0, 67, 0
4, 233831, Note_on_c, 0, 75, 0
4, 233831, Note_on_c, 0, 79, 126
4, 233831, Note_on_c, 0, 69, 122
4, 233855, Note_on_c, 0, 69, 0
4, 233855, Note_on_c, 0, 79, 0
4, 233855, Note_on_c, 0, 81, 126
4, 233855, Note_on_c, 0, 72, 122
4, 233879, Note_on_c, 0, 72, 0
4, 233879, Note_on_c, 0, 81, 0
4, 233879, Note_on_c, 0, 87, 97
4, 233879, Note_on_c, 0, 79, 96
4, 233903, Note_on_c, 0, 79, 0
4, 233903, Note_on_c, 0, 87, 0
4, 233903, Note_on_c, 0, 91, 125
4, 233903, Note_on_c, 0, 81, 115
4, 233927, Note_on_c, 0, 81, 0
4, 233927, Note_on_c, 0, 91, 0
4, 233927, Note_on_c, 0, 93, 119
4, 233927, Note_on_c, 0, 84, 123
4, 233951, Note_on_c, 0, 84, 0
4, 233951, Note_on_c, 0, 93, 0
4, 233951, Note_on_c, 0, 99, 126
4, 233951, Note_on_c, 0, 91, 126
4, 233975, Note_on_c, 0, 91, 0
4, 233975, Note_on_c, 0, 99, 0
4, 233975, Note_on_c, 0, 103, 126
4, 233975, Note_on_c, 0, 93, 120
4, 234000, Note_on_c, 0, 93, 0
4, 234000, Note_on_c, 0, 36, 0
4, 234000, Note_on_c, 0, 24, 0
4, 234000, Note_on_c, 0, 103, 0
4, 234000, Note_on_c, 0, 93, 122
4, 234000, Note_on_c, 0, 84, 116
4, 234180, Note_on_c, 0, 84, 0
4, 234180, Note_on_c, 0, 93, 0
4, 234720, Note_on_c, 0, 66, 82
4, 234720, Note_on_c, 0, 38, 89
4, 234779, Note_on_c, 0, 66, 0
4, 234779, Note_on_c, 0, 62, 80
4, 234840, Note_on_c, 0, 62, 0
4, 234840, Note_on_c, 0, 57, 85
4, 234900, Note_on_c, 0, 57, 0
4, 234900, Note_on_c, 0, 54, 94
4, 234959, Note_on_c, 0, 54, 0
4, 234959, Note_on_c, 0, 62, 117
4, 235020, Note_on_c, 0, 62, 0
4, 235020, Note_on_c, 0, 57, 93
4, 235080, Note_on_c, 0, 57, 0
4, 235080, Note_on_c, 0, 66, 121
4, 235139, Note_on_c, 0, 66, 0
4, 235139, Note_on_c, 0, 62, 91
4, 235200, Note_on_c, 0, 62, 0
4, 235200, Note_on_c, 0, 57, 87
4, 235260, Note_on_c, 0, 57, 0
4, 235260, Note_on_c, 0, 54, 90
4, 235319, Note_on_c, 0, 54, 0
4, 235319, Note_on_c, 0, 62, 119
4, 235380, Note_on_c, 0, 62, 0
4, 235380, Note_on_c, 0, 57, 92
4, 235440, Note_on_c, 0, 57, 0
4, 235440, Note_on_c, 0, 38, 0
4, 235440, Note_on_c, 0, 66, 118
4, 235440, Note_on_c, 0, 31, 105
4, 235440, Note_on_c, 0, 43, 105
4, 235499, Note_on_c, 0, 66, 0
4, 235499, Note_on_c, 0, 62, 92
4, 235560, Note_on_c, 0, 62, 0
4, 235560, Note_on_c, 0, 58, 91
4, 235620, Note_on_c, 0, 58, 0
4, 235620, Note_on_c, 0, 52, 90
4, 235679, Note_on_c, 0, 52, 0
4, 235679, Note_on_c, 0, 62, 121
4, 235740, Note_on_c, 0, 62, 0
4, 235740, Note_on_c, 0, 58, 94
4, 235800, Note_on_c, 0, 58, 0
4, 235800, Note_on_c, 0, 66, 117
4, 235859, Note_on_c, 0, 66, 0
4, 235859, Note_on_c, 0, 62, 90
4, 235920, Note_on_c, 0, 62, 0
4, 235920, Note_on_c, 0, 58, 94
4, 235980, Note_on_c, 0, 58, 0
4, 235980, Note_on_c, 0, 52, 87
4, 236039, Note_on_c, 0, 52, 0
4, 236039, Note_on_c, 0, 62, 121
4, 236100, Note_on_c, 0, 62, 0
4, 236100, Note_on_c, 0, 58, 92
4, 236160, Note_on_c, 0, 58, 0
4, 236160, Note_on_c, 0, 43, 0
4, 236160, Note_on_c, 0, 31, 0
4, 236160, Note_on_c, 0, 66, 116
4, 236160, Note_on_c, 0, 38, 92
4, 236219, Note_on_c, 0, 66, 0
4, 236219, Note_on_c, 0, 62, 88
4, 236280, Note_on_c, 0, 62, 0
4, 236280, Note_on_c, 0, 57, 90
4, 236340, Note_on_c, 0, 57, 0
4, 236340, Note_on_c, 0, 54, 90
4, 236399, Note_on_c, 0, 54, 0
4, 236399, Note_on_c, 0, 62, 112
4, 236460, Note_on_c, 0, 62, 0
4, 236460, Note_on_c, 0, 57, 95
4, 236520, Note_on_c, 0, 57, 0
4, 236520, Note_on_c, 0, 66, 121
4, 236579, Note_on_c, 0, 66, 0
4, 236579, Note_on_c, 0, 62, 89
4, 236640, Note_on_c, 0, 62, 0
4, 236640, Note_on_c, 0, 57, 87
4, 236700, Note_on_c, 0, 57, 0
4, 236700, Note_on_c, 0, 54, 98
4, 236759, Note_on_c, 0, 54, 0
4, 236759, Note_on_c, 0, 62, 113
4, 236820, Note_on_c, 0, 62, 0
4, 236820, Note_on_c, 0, 57, 95
4, 236880, Note_on_c, 0, 57, 0
4, 236880, Note_on_c, 0, 38, 0
4, 236880, Note_on_c, 0, 66, 119
4, 236880, Note_on_c, 0, 31, 100
4, 236880, Note_on_c, 0, 43, 100
4, 236939, Note_on_c, 0, 66, 0
4, 236939, Note_on_c, 0, 62, 89
4, 237000, Note_on_c, 0, 62, 0
4, 237000, Note_on_c, 0, 58, 91
4, 237060, Note_on_c, 0, 58, 0
4, 237060, Note_on_c, 0, 52, 88
4, 237119, Note_on_c, 0, 52, 0
4, 237119, Note_on_c, 0, 62, 116
4, 237180, Note_on_c, 0, 62, 0
4, 237180, Note_on_c, 0, 58, 100
4, 237240, Note_on_c, 0, 58, 0
4, 237240, Note_on_c, 0, 66, 116
4, 237299, Note_on_c, 0, 66, 0
4, 237299, Note_on_c, 0, 62, 87
4, 237360, Note_on_c, 0, 62, 0
4, 237360, Note_on_c, 0, 58, 93
4, 237420, Note_on_c, 0, 58, 0
4, 237420, Note_on_c, 0, 52, 88
4, 237479, Note_on_c, 0, 52, 0
4, 237479, Note_on_c, 0, 62, 119
4, 237540, Note_on_c, 0, 62, 0
4, 237540, Note_on_c, 0, 58, 97
4, 237600, Note_on_c, 0, 58, 0
4, 237600, Note_on_c, 0, 43, 0
4, 237600, Note_on_c, 0, 31, 0
4, 237600, Note_on_c, 0, 66, 118
4, 237600, Note_on_c, 0, 38, 106
4, 237600, Note_on_c, 0, 50, 106
4, 237659, Note_on_c, 0, 66, 0
4, 237659, Note_on_c, 0, 62, 90
4, 237720, Note_on_c, 0, 62, 0
4, 237720, Note_on_c, 0, 57, 89
4, 237780, Note_on_c, 0, 57, 0
4, 237780, Note_on_c, 0, 54, 92
4, 237839, Note_on_c, 0, 54, 0
4, 237839, Note_on_c, 0, 62, 117
4, 237900, Note_on_c, 0, 62, 0
4, 237900, Note_on_c, 0, 57, 94
4, 237960, Note_on_c, 0, 57, 0
4, 237960, Note_on_c, 0, 66, 116
4, 238019, Note_on_c, 0, 66, 0
4, 238019, Note_on_c, 0, 62, 90
4, 238080, Note_on_c, 0, 62, 0
4, 238080, Note_on_c, 0, 57, 86
4, 238140, Note_on_c, 0, 57, 0
4, 238140, Note_on_c, 0, 54, 94
4, 238199, Note_on_c, 0, 54, 0
4, 238199, Note_on_c, 0, 62, 116
4, 238260, Note_on_c, 0, 62, 0
4, 238260, Note_on_c, 0, 57, 92
4, 238320, Note_on_c, 0, 57, 0
4, 238320, Note_on_c, 0, 50, 0
4, 238320, Note_on_c, 0, 38, 0
4, 238320, Note_on_c, 0, 66, 122
4, 238320, Note_on_c, 0, 36, 97
4, 238320, Note_on_c, 0, 48, 97
4, 238379, Note_on_c, 0, 66, 0
4, 238379, Note_on_c, 0, 62, 86
4, 238440, Note_on_c, 0, 62, 0
4, 238440, Note_on_c, 0, 57, 95
4, 238500, Note_on_c, 0, 57, 0
4, 238500, Note_on_c, 0, 54, 92
4, 238559, Note_on_c, 0, 54, 0
4, 238559, Note_on_c, 0, 62, 115
4, 238620, Note_on_c, 0, 62, 0
4, 238620, Note_on_c, 0, 57, 90
4, 238680, Note_on_c, 0, 57, 0
4, 238680, Note_on_c, 0, 66, 122
4, 238739, Note_on_c, 0, 66, 0
4, 238739, Note_on_c, 0, 62, 88
4, 238800, Note_on_c, 0, 62, 0
4, 238800, Note_on_c, 0, 57, 94
4, 238860, Note_on_c, 0, 57, 0
4, 238860, Note_on_c, 0, 54, 98
4, 238919, Note_on_c, 0, 54, 0
4, 238919, Note_on_c, 0, 62, 117
4, 238980, Note_on_c, 0, 62, 0
4, 238980, Note_on_c, 0, 57, 93
4, 239040, Note_on_c, 0, 57, 0
4, 239040, Note_on_c, 0, 48, 0
4, 239040, Note_on_c, 0, 36, 0
4, 239040, Note_on_c, 0, 66, 115
4, 239040, Note_on_c, 0, 34, 88
4, 239040, Note_on_c, 0, 46, 88
4, 239099, Note_on_c, 0, 66, 0
4, 239099, Note_on_c, 0, 62, 87
4, 239160, Note_on_c, 0, 62, 0
4, 239160, Note_on_c, 0, 58, 90
4, 239220, Note_on_c, 0, 58, 0
4, 239220, Note_on_c, 0, 54, 96
4, 239279, Note_on_c, 0, 54, 0
4, 239279, Note_on_c, 0, 62, 116
4, 239340, Note_on_c, 0, 62, 0
4, 239340, Note_on_c, 0, 58, 97
4, 239400, Note_on_c, 0, 58, 0
4, 239400, Note_on_c, 0, 66, 118
4, 239459, Note_on_c, 0, 66, 0
4, 239459, Note_on_c, 0, 62, 93
4, 239520, Note_on_c, 0, 62, 0
4, 239520, Note_on_c, 0, 58, 93
4, 239580, Note_on_c, 0, 58, 0
4, 239580, Note_on_c, 0, 54, 96
4, 239639, Note_on_c, 0, 54, 0
4, 239639, Note_on_c, 0, 62, 111
4, 239700, Note_on_c, 0, 62, 0
4, 239700, Note_on_c, 0, 58, 97
4, 239760, Note_on_c, 0, 58, 0
4, 239760, Note_on_c, 0, 46, 0
4, 239760, Note_on_c, 0, 34, 0
4, 239760, Note_on_c, 0, 66, 118
4, 239760, Note_on_c, 0, 33, 99
4, 239760, Note_on_c, 0, 45, 99
4, 239819, Note_on_c, 0, 66, 0
4, 239819, Note_on_c, 0, 62, 89
4, 239880, Note_on_c, 0, 62, 0
4, 239880, Note_on_c, 0, 60, 91
4, 239940, Note_on_c, 0, 60, 0
4, 239940, Note_on_c, 0, 54, 88
4, 239999, Note_on_c, 0, 54, 0
4, 239999, Note_on_c, 0, 62, 116
4, 240060, Note_on_c, 0, 62, 0
4, 240060, Note_on_c, 0, 60, 97
4, 240120, Note_on_c, 0, 60, 0
4, 240120, Note_on_c, 0, 66, 112
4, 240179, Note_on_c, 0, 66, 0
4, 240179, Note_on_c, 0, 62, 88
4, 240240, Note_on_c, 0, 62, 0
4, 240240, Note_on_c, 0, 60, 94
4, 240300, Note_on_c, 0, 60, 0
4, 240300, Note_on_c, 0, 54, 87
4, 240359, Note_on_c, 0, 54, 0
4, 240359, Note_on_c, 0, 62, 120
4, 240420, Note_on_c, 0, 62, 0
4, 240420, Note_on_c, 0, 60, 94
4, 240480, Note_on_c, 0, 60, 0
4, 240480, Note_on_c, 0, 45, 0
4, 240480, Note_on_c, 0, 33, 0
4, 240480, Note_on_c, 0, 67, 106
4, 240480, Note_on_c, 0, 31, 126
4, 240480, Note_on_c, 0, 43, 126
4, 240539, Note_on_c, 0, 67, 0
4, 240539, Note_on_c, 0, 58, 81
4, 240600, Note_on_c, 0, 58, 0
4, 240600, Note_on_c, 0, 55, 78
4, 240660, Note_on_c, 0, 55, 0
4, 240660, Note_on_c, 0, 50, 76
4, 240719, Note_on_c, 0, 50, 0
4, 240719, Note_on_c, 0, 58, 84
4, 240780, Note_on_c, 0, 58, 0
4, 240780, Note_on_c, 0, 55, 82
4, 240840, Note_on_c, 0, 55, 0
4, 240840, Note_on_c, 0, 62, 102
4, 240899, Note_on_c, 0, 62, 0
4, 240899, Note_on_c, 0, 58, 83
4, 240960, Note_on_c, 0, 58, 0
4, 240960, Note_on_c, 0, 55, 76
4, 241020, Note_on_c, 0, 55, 0
4, 241020, Note_on_c, 0, 50, 84
4, 241079, Note_on_c, 0, 50, 0
4, 241079, Note_on_c, 0, 58, 84
4, 241140, Note_on_c, 0, 58, 0
4, 241140, Note_on_c, 0, 55, 85
4, 241200, Note_on_c, 0, 55, 0
4, 241200, Note_on_c, 0, 62, 98
4, 241259, Note_on_c, 0, 62, 0
4, 241259, Note_on_c, 0, 58, 84
4, 241320, Note_on_c, 0, 58, 0
4, 241320, Note_on_c, 0, 55, 78
4, 241380, Note_on_c, 0, 55, 0
4, 241380, Note_on_c, 0, 50, 78
4, 241439, Note_on_c, 0, 50, 0
4, 241439, Note_on_c, 0, 58, 90
4, 241500, Note_on_c, 0, 58, 0
4, 241500, Note_on_c, 0, 55, 77
4, 241560, Note_on_c, 0, 55, 0
4, 241560, Note_on_c, 0, 43, 0
4, 241560, Note_on_c, 0, 31, 0
4, 241560, Note_on_c, 0, 63, 103
4, 241560, Note_on_c, 0, 31, 120
4, 241560, Note_on_c, 0, 43, 120
4, 241619, Note_on_c, 0, 63, 0
4, 241619, Note_on_c, 0, 60, 81
4, 241680, Note_on_c, 0, 60, 0
4, 241680, Note_on_c, 0, 54, 75
4, 241740, Note_on_c, 0, 54, 0
4, 241740, Note_on_c, 0, 51, 80
4, 241799, Note_on_c, 0, 51, 0
4, 241799, Note_on_c, 0, 60, 100
4, 241860, Note_on_c, 0, 60, 0
4, 241860, Note_on_c, 0, 54, 83
4, 241920, Note_on_c, 0, 54, 0
4, 241920, Note_on_c, 0, 43, 0
4, 241920, Note_on_c, 0, 31, 0
4, 241920, Note_on_c, 0, 62, 104
4, 241920, Note_on_c, 0, 31, 126
4, 241920, Note_on_c, 0, 43, 126
4, 241979, Note_on_c, 0, 62, 0
4, 241979, Note_on_c, 0, 58, 84
4, 242040, Note_on_c, 0, 58, 0
4, 242040, Note_on_c, 0, 55, 84
4, 242100, Note_on_c, 0, 55, 0
4, 242100, Note_on_c, 0, 50, 77
4, 242159, Note_on_c, 0, 50, 0
4, 242159, Note_on_c, 0, 58, 88
4, 242220, Note_on_c, 0, 58, 0
4, 242220, Note_on_c, 0, 55, 81
4, 242280, Note_on_c, 0, 55, 0
4, 242280, Note_on_c, 0, 62, 99
4, 242339, Note_on_c, 0, 62, 0
4, 242339, Note_on_c, 0, 58, 84
4, 242400, Note_on_c, 0, 58, 0
4, 242400, Note_on_c, 0, 55, 79
4, 242460, Note_on_c, 0, 55, 0
4, 242460, Note_on_c, 0, 50, 79
4, 242519, Note_on_c, 0, 50, 0
4, 242519, Note_on_c, 0, 58, 86
4, 242580, Note_on_c, 0, 58, 0
4, 242580, Note_on_c, 0, 55, 81
4, 242640, Note_on_c, 0, 55, 0
4, 242640, Note_on_c, 0, 62, 100
4, 242699, Note_on_c, 0, 62, 0
4, 242699, Note_on_c, 0, 58, 81
4, 242760, Note_on_c, 0, 58, 0
4, 242760, Note_on_c, 0, 55, 82
4, 242820, Note_on_c, 0, 55, 0
4, 242820, Note_on_c, 0, 50, 77
4, 242879, Note_on_c, 0, 50, 0
4, 242879, Note_on_c, 0, 58, 94
4, 242940, Note_on_c, 0, 58, 0
4, 242940, Note_on_c, 0, 55, 82
4, 243000, Note_on_c, 0, 55, 0
4, 243000, Note_on_c, 0, 43, 0
4, 243000, Note_on_c, 0, 31, 0
4, 243000, Note_on_c, 0, 63, 100
4, 243000, Note_on_c, 0, 31, 124
4, 243000, Note_on_c, 0, 43, 124
4, 243059, Note_on_c, 0, 63, 0
4, 243059, Note_on_c, 0, 60, 75
4, 243120, Note_on_c, 0, 60, 0
4, 243120, Note_on_c, 0, 54, 76
4, 243180, Note_on_c, 0, 54, 0
4, 243180, Note_on_c, 0, 51, 80
4, 243239, Note_on_c, 0, 51, 0
4, 243239, Note_on_c, 0, 60, 102
4, 243300, Note_on_c, 0, 60, 0
4, 243300, Note_on_c, 0, 54, 80
4, 243360, Note_on_c, 0, 54, 0
4, 243360, Note_on_c, 0, 43, 0
4, 243360, Note_on_c, 0, 31, 0
4, 243360, Note_on_c, 0, 62, 97
4, 243360, Note_on_c, 0, 31, 122
4, 243360, Note_on_c, 0, 43, 122
4, 243419, Note_on_c, 0, 62, 0
4, 243419, Note_on_c, 0, 58, 76
4, 243480, Note_on_c, 0, 58, 0
4, 243480, Note_on_c, 0, 55, 80
4, 243540, Note_on_c, 0, 55, 0
4, 243540, Note_on_c, 0, 50, 80
4, 243599, Note_on_c, 0, 50, 0
4, 243599, Note_on_c, 0, 58, 89
4, 243660, Note_on_c, 0, 58, 0
4, 243660, Note_on_c, 0, 55, 78
4, 243720, Note_on_c, 0, 55, 0
4, 243720, Note_on_c, 0, 62, 99
4, 243779, Note_on_c, 0, 62, 0
4, 243779, Note_on_c, 0, 58, 78
4, 243840, Note_on_c, 0, 58, 0
4, 243840, Note_on_c, 0, 55, 80
4, 243900, Note_on_c, 0, 55, 0
4, 243900, Note_on_c, 0, 50, 81
4, 243959, Note_on_c, 0, 50, 0
4, 243959, Note_on_c, 0, 58, 90
4, 244020, Note_on_c, 0, 58, 0
4, 244020, Note_on_c, 0, 55, 81
4, 244080, Note_on_c, 0, 55, 0
4, 244080, Note_on_c, 0, 43, 0
4, 244080, Note_on_c, 0, 31, 0
4, 244080, Note_on_c, 0, 70, 90
4, 244080, Note_on_c, 0, 31, 72
4, 244080, Note_on_c, 0, 43, 72
4, 244139, Note_on_c, 0, 70, 0
4, 244139, Note_on_c, 0, 67, 90
4, 244200, Note_on_c, 0, 67, 0
4, 244200, Note_on_c, 0, 62, 86
4, 244260, Note_on_c, 0, 62, 0
4, 244260, Note_on_c, 0, 58, 88
4, 244319, Note_on_c, 0, 58, 0
4, 244319, Note_on_c, 0, 67, 119
4, 244380, Note_on_c, 0, 67, 0
4, 244380, Note_on_c, 0, 62, 83
4, 244440, Note_on_c, 0, 62, 0
4, 244440, Note_on_c, 0, 43, 0
4, 244440, Note_on_c, 0, 31, 0
4, 244440, Note_on_c, 0, 68, 111
4, 244440, Note_on_c, 0, 34, 82
4, 244440, Note_on_c, 0, 46, 82
4, 244499, Note_on_c, 0, 68, 0
4, 244499, Note_on_c, 0, 65, 98
4, 244560, Note_on_c, 0, 65, 0
4, 244560, Note_on_c, 0, 62, 90
4, 244620, Note_on_c, 0, 62, 0
4, 244620, Note_on_c, 0, 56, 89
4, 244679, Note_on_c, 0, 56, 0
4, 244679, Note_on_c, 0, 65, 116
4, 244740, Note_on_c, 0, 65, 0
4, 244740, Note_on_c, 0, 62, 94
4, 244800, Note_on_c, 0, 62, 0
4, 244800, Note_on_c, 0, 46, 0
4, 244800, Note_on_c, 0, 34, 0
4, 244800, Note_on_c, 0, 67, 108
4, 244800, Note_on_c, 0, 39, 81
4, 244800, Note_on_c, 0, 46, 81
4, 244859, Note_on_c, 0, 67, 0
4, 244859, Note_on_c, 0, 63, 85
4, 244920, Note_on_c, 0, 63, 0
4, 244920, Note_on_c, 0, 58, 88
4, 244980, Note_on_c, 0, 58, 0
4, 244980, Note_on_c, 0, 55, 91
4, 245039, Note_on_c, 0, 55, 0
4, 245039, Note_on_c, 0, 63, 114
4, 245100, Note_on_c, 0, 63, 0
4, 245100, Note_on_c, 0, 58, 94
4, 245160, Note_on_c, 0, 58, 0
4, 245160, Note_on_c, 0, 46, 0
4, 245160, Note_on_c, 0, 39, 0
4, 245160, Note_on_c, 0, 65, 108
4, 245160, Note_on_c, 0, 34, 126
4, 245160, Note_on_c, 0, 46, 126
4, 245219, Note_on_c, 0, 65, 0
4, 245219, Note_on_c, 0, 62, 87
4, 245280, Note_on_c, 0, 62, 0
4, 245280, Note_on_c, 0, 58, 80
4, 245340, Note_on_c, 0, 58, 0
4, 245340, Note_on_c, 0, 53, 73
4, 245399, Note_on_c, 0, 53, 0
4, 245399, Note_on_c, 0, 62, 96
4, 245460, Note_on_c, 0, 62, 0
4, 245460, Note_on_c, 0, 58, 85
4, 245520, Note_on_c, 0, 58, 0
4, 245520, Note_on_c, 0, 46, 0
4, 245520, Note_on_c, 0, 34, 0
4, 245520, Note_on_c, 0, 63, 97
4, 245520, Note_on_c, 0, 36, 114
4, 245520, Note_on_c, 0, 43, 114
4, 245579, Note_on_c, 0, 63, 0
4, 245579, Note_on_c, 0, 60, 78
4, 245640, Note_on_c, 0, 60, 0
4, 245640, Note_on_c, 0, 55, 74
4, 245700, Note_on_c, 0, 55, 0
4, 245700, Note_on_c, 0, 51, 81
4, 245759, Note_on_c, 0, 51, 0
4, 245759, Note_on_c, 0, 60, 104
4, 245820, Note_on_c, 0, 60, 0
4, 245820, Note_on_c, 0, 55, 83
4, 245880, Note_on_c, 0, 55, 0
4, 245880, Note_on_c, 0, 43, 0
4, 245880, Note_on_c, 0, 36, 0
4, 245880, Note_on_c, 0, 62, 98
4, 245880, Note_on_c, 0, 31, 123
4, 245880, Note_on_c, 0, 43, 123
4, 245939, Note_on_c, 0, 62, 0
4, 245939, Note_on_c, 0, 58, 79
4, 246000, Note_on_c, 0, 58, 0
4, 246000, Note_on_c, 0, 55, 80
4, 246060, Note_on_c, 0, 55, 0
4, 246060, Note_on_c, 0, 50, 80
4, 246119, Note_on_c, 0, 50, 0
4, 246119, Note_on_c, 0, 58, 88
4, 246180, Note_on_c, 0, 58, 0
4, 246180, Note_on_c, 0, 55, 79
4, 246240, Note_on_c, 0, 55, 0
4, 246240, Note_on_c, 0, 43, 0
4, 246240, Note_on_c, 0, 31, 0
4, 246240, Note_on_c, 0, 61, 94
4, 246240, Note_on_c, 0, 38, 115
4, 246299, Note_on_c, 0, 61, 0
4, 246299, Note_on_c, 0, 58, 81
4, 246360, Note_on_c, 0, 58, 0
4, 246360, Note_on_c, 0, 55, 81
4, 246420, Note_on_c, 0, 55, 0
4, 246420, Note_on_c, 0, 52, 77
4, 246479, Note_on_c, 0, 52, 0
4, 246479, Note_on_c, 0, 58, 86
4, 246540, Note_on_c, 0, 58, 0
4, 246540, Note_on_c, 0, 55, 81
4, 246600, Note_on_c, 0, 55, 0
4, 246600, Note_on_c, 0, 62, 102
4, 246659, Note_on_c, 0, 62, 0
4, 246659, Note_on_c, 0, 60, 80
4, 246720, Note_on_c, 0, 60, 0
4, 246720, Note_on_c, 0, 57, 78
4, 246780, Note_on_c, 0, 57, 0
4, 246780, Note_on_c, 0, 50, 78
4, 246839, Note_on_c, 0, 50, 0
4, 246839, Note_on_c, 0, 60, 103
4, 246900, Note_on_c, 0, 60, 0
4, 246900, Note_on_c, 0, 57, 83
4, 246960, Note_on_c, 0, 57, 0
4, 246960, Note_on_c, 0, 38, 0
4, 246960, Note_on_c, 0, 63, 97
4, 246960, Note_on_c, 0, 31, 126
4, 246960, Note_on_c, 0, 43, 126
4, 247019, Note_on_c, 0, 63, 0
4, 247019, Note_on_c, 0, 60, 73
4, 247080, Note_on_c, 0, 60, 0
4, 247080, Note_on_c, 0, 55, 76
4, 247140, Note_on_c, 0, 55, 0
4, 247140, Note_on_c, 0, 51, 78
4, 247199, Note_on_c, 0, 51, 0
4, 247199, Note_on_c, 0, 60, 102
4, 247260, Note_on_c, 0, 60, 0
4, 247260, Note_on_c, 0, 55, 82
4, 247320, Note_on_c, 0, 55, 0
4, 247320, Note_on_c, 0, 68, 98
4, 247379, Note_on_c, 0, 65, 88
4, 247440, Note_on_c, 0, 65, 0
4, 247440, Note_on_c, 0, 60, 85
4, 247500, Note_on_c, 0, 60, 0
4, 247500, Note_on_c, 0, 56, 89
4, 247559, Note_on_c, 0, 56, 0
4, 247559, Note_on_c, 0, 65, 117
4, 247620, Note_on_c, 0, 65, 0
4, 247620, Note_on_c, 0, 60, 88
4, 247680, Note_on_c, 0, 60, 0
4, 247680, Note_on_c, 0, 31, 0
4, 247680, Note_on_c, 0, 43, 0
4, 247680, Note_on_c, 0, 68, 0
4, 247680, Note_on_c, 0, 67, 101
4, 247680, Note_on_c, 0, 31, 73
4, 247680, Note_on_c, 0, 43, 73
4, 247739, Note_on_c, 0, 63, 88
4, 247800, Note_on_c, 0, 63, 0
4, 247800, Note_on_c, 0, 60, 85
4, 247860, Note_on_c, 0, 60, 0
4, 247860, Note_on_c, 0, 55, 92
4, 247919, Note_on_c, 0, 55, 0
4, 247919, Note_on_c, 0, 63, 118
4, 247980, Note_on_c, 0, 63, 0
4, 247980, Note_on_c, 0, 60, 91
4, 248040, Note_on_c, 0, 60, 0
4, 248040, Note_on_c, 0, 67, 0
4, 248040, Note_on_c, 0, 65, 105
4, 248099, Note_on_c, 0, 60, 88
4, 248160, Note_on_c, 0, 60, 0
4, 248160, Note_on_c, 0, 56, 95
4, 248220, Note_on_c, 0, 56, 0
4, 248220, Note_on_c, 0, 53, 95
4, 248279, Note_on_c, 0, 53, 0
4, 248279, Note_on_c, 0, 60, 114
4, 248340, Note_on_c, 0, 60, 0
4, 248340, Note_on_c, 0, 56, 95
4, 248400, Note_on_c, 0, 56, 0
4, 248400, Note_on_c, 0, 65, 0
4, 248400, Note_on_c, 0, 63, 101
4, 248459, Note_on_c, 0, 60, 90
4, 248520, Note_on_c, 0, 60, 0
4, 248520, Note_on_c, 0, 55, 88
4, 248580, Note_on_c, 0, 55, 0
4, 248580, Note_on_c, 0, 51, 94
4, 248639, Note_on_c, 0, 51, 0
4, 248639, Note_on_c, 0, 60, 116
4, 248700, Note_on_c, 0, 60, 0
4, 248700, Note_on_c, 0, 55, 96
4, 248760, Note_on_c, 0, 55, 0
4, 248760, Note_on_c, 0, 31, 0
4, 248760, Note_on_c, 0, 43, 0
4, 248760, Note_on_c, 0, 63, 0
4, 248760, Note_on_c, 0, 68, 124
4, 248760, Note_on_c, 0, 31, 83
4, 248760, Note_on_c, 0, 43, 83
4, 248819, Note_on_c, 0, 65, 83
4, 248880, Note_on_c, 0, 65, 0
4, 248880, Note_on_c, 0, 60, 84
4, 248940, Note_on_c, 0, 60, 0
4, 248940, Note_on_c, 0, 56, 91
4, 248999, Note_on_c, 0, 56, 0
4, 248999, Note_on_c, 0, 65, 117
4, 249060, Note_on_c, 0, 65, 0
4, 249060, Note_on_c, 0, 60, 85
4, 249120, Note_on_c, 0, 60, 0
4, 249120, Note_on_c, 0, 68, 0
4, 249120, Note_on_c, 0, 31, 0
4, 249120, Note_on_c, 0, 43, 0
4, 249120, Note_on_c, 0, 67, 106
4, 249120, Note_on_c, 0, 31, 80
4, 249120, Note_on_c, 0, 43, 80
4, 249179, Note_on_c, 0, 63, 89
4, 249240, Note_on_c, 0, 63, 0
4, 249240, Note_on_c, 0, 60, 87
4, 249300, Note_on_c, 0, 60, 0
4, 249300, Note_on_c, 0, 55, 91
4, 249359, Note_on_c, 0, 55, 0
4, 249359, Note_on_c, 0, 63, 118
4, 249420, Note_on_c, 0, 63, 0
4, 249420, Note_on_c, 0, 60, 90
4, 249480, Note_on_c, 0, 60, 0
4, 249480, Note_on_c, 0, 67, 0
4, 249480, Note_on_c, 0, 65, 98
4, 249539, Note_on_c, 0, 60, 89
4, 249600, Note_on_c, 0, 60, 0
4, 249600, Note_on_c, 0, 56, 88
4, 249660, Note_on_c, 0, 56, 0
4, 249660, Note_on_c, 0, 53, 96
4, 249719, Note_on_c, 0, 53, 0
4, 249719, Note_on_c, 0, 60, 114
4, 249780, Note_on_c, 0, 60, 0
4, 249780, Note_on_c, 0, 56, 95
4, 249840, Note_on_c, 0, 56, 0
4, 249840, Note_on_c, 0, 65, 0
4, 249840, Note_on_c, 0, 63, 99
4, 249899, Note_on_c, 0, 60, 82
4, 249960, Note_on_c, 0, 60, 0
4, 249960, Note_on_c, 0, 55, 88
4, 250020, Note_on_c, 0, 55, 0
4, 250020, Note_on_c, 0, 51, 94
4, 250079, Note_on_c, 0, 51, 0
4, 250079, Note_on_c, 0, 60, 116
4, 250140, Note_on_c, 0, 60, 0
4, 250140, Note_on_c, 0, 55, 91
4, 250200, Note_on_c, 0, 55, 0
4, 250200, Note_on_c, 0, 31, 0
4, 250200, Note_on_c, 0, 43, 0
4, 250200, Note_on_c, 0, 63, 0
4, 250200, Note_on_c, 0, 62, 103
4, 250200, Note_on_c, 0, 31, 84
4, 250200, Note_on_c, 0, 43, 84
4, 250259, Note_on_c, 0, 58, 89
4, 250320, Note_on_c, 0, 58, 0
4, 250320, Note_on_c, 0, 55, 88
4, 250380, Note_on_c, 0, 55, 0
4, 250380, Note_on_c, 0, 50, 87
4, 250439, Note_on_c, 0, 50, 0
4, 250439, Note_on_c, 0, 58, 106
4, 250500, Note_on_c, 0, 58, 0
4, 250500, Note_on_c, 0, 55, 96
4, 250560, Note_on_c, 0, 55, 0
4, 250560, Note_on_c, 0, 62, 0
4, 250560, Note_on_c, 0, 31, 0
4, 250560, Note_on_c, 0, 43, 0
4, 250560, Note_on_c, 0, 72, 126
4, 250560, Note_on_c, 0, 33, 86
4, 250560, Note_on_c, 0, 45, 86
4, 250619, Note_on_c, 0, 67, 89
4, 250680, Note_on_c, 0, 67, 0
4, 250680, Note_on_c, 0, 63, 82
4, 250740, Note_on_c, 0, 63, 0
4, 250740, Note_on_c, 0, 60, 86
4, 250799, Note_on_c, 0, 60, 0
4, 250799, Note_on_c, 0, 67, 114
4, 250860, Note_on_c, 0, 67, 0
4, 250860, Note_on_c, 0, 63, 90
4, 250920, Note_on_c, 0, 63, 0
4, 250920, Note_on_c, 0, 72, 0
4, 250920, Note_on_c, 0, 33, 0
4, 250920, Note_on_c, 0, 45, 0
4, 250920, Note_on_c, 0, 70, 107
4, 250920, Note_on_c, 0, 34, 80
4, 250920, Note_on_c, 0, 46, 80
4, 250979, Note_on_c, 0, 67, 90
4, 251040, Note_on_c, 0, 67, 0
4, 251040, Note_on_c, 0, 62, 77
4, 251100, Note_on_c, 0, 62, 0
4, 251100, Note_on_c, 0, 58, 91
4, 251159, Note_on_c, 0, 58, 0
4, 251159, Note_on_c, 0, 67, 119
4, 251220, Note_on_c, 0, 67, 0
4, 251220, Note_on_c, 0, 62, 86
4, 251280, Note_on_c, 0, 62, 0
4, 251280, Note_on_c, 0, 70, 0
4, 251280, Note_on_c, 0, 34, 0
4, 251280, Note_on_c, 0, 46, 0
4, 251280, Note_on_c, 0, 69, 104
4, 251280, Note_on_c, 0, 36, 90
4, 251280, Note_on_c, 0, 48, 90
4, 251339, Note_on_c, 0, 67, 84
4, 251400, Note_on_c, 0, 67, 0
4, 251400, Note_on_c, 0, 63, 81
4, 251460, Note_on_c, 0, 63, 0
4, 251460, Note_on_c, 0, 57, 89
4, 251519, Note_on_c, 0, 57, 0
4, 251519, Note_on_c, 0, 67, 120
4, 251580, Note_on_c, 0, 67, 0
4, 251580, Note_on_c, 0, 63, 92
4, 251640, Note_on_c, 0, 63, 0
4, 251640, Note_on_c, 0, 69, 0
4, 251640, Note_on_c, 0, 36, 0
4, 251640, Note_on_c, 0, 48, 0
4, 251640, Note_on_c, 0, 70, 115
4, 251640, Note_on_c, 0, 38, 86
4, 251640, Note_on_c, 0, 50, 86
4, 251699, Note_on_c, 0, 67, 86
4, 251760, Note_on_c, 0, 67, 0
4, 251760, Note_on_c, 0, 62, 87
4, 251820, Note_on_c, 0, 62, 0
4, 251820, Note_on_c, 0, 58, 91
4, 251879, Note_on_c, 0, 58, 0
4, 251879, Note_on_c, 0, 67, 118
4, 251940, Note_on_c, 0, 67, 0
4, 251940, Note_on_c, 0, 62, 87
4, 252000, Note_on_c, 0, 62, 0
4, 252000, Note_on_c, 0, 70, 0
4, 252000, Note_on_c, 0, 38, 0
4, 252000, Note_on_c, 0, 50, 0
4, 252000, Note_on_c, 0, 70, 108
4, 252000, Note_on_c, 0, 38, 84
4, 252000, Note_on_c, 0, 50, 84
4, 252059, Note_on_c, 0, 67, 88
4, 252120, Note_on_c, 0, 67, 0
4, 252120, Note_on_c, 0, 61, 81
4, 252180, Note_on_c, 0, 61, 0
4, 252180, Note_on_c, 0, 58, 87
4, 252239, Note_on_c, 0, 58, 0
4, 252239, Note_on_c, 0, 67, 116
4, 252300, Note_on_c, 0, 67, 0
4, 252300, Note_on_c, 0, 61, 88
4, 252360, Note_on_c, 0, 61, 0
4, 252360, Note_on_c, 0, 70, 0
4, 252360, Note_on_c, 0, 69, 102
4, 252419, Note_on_c, 0, 66, 89
4, 252480, Note_on_c, 0, 66, 0
4, 252480, Note_on_c, 0, 62, 85
4, 252540, Note_on_c, 0, 62, 0
4, 252540, Note_on_c, 0, 57, 88
4, 252599, Note_on_c, 0, 57, 0
4, 252599, Note_on_c, 0, 66, 118
4, 252660, Note_on_c, 0, 66, 0
4, 252660, Note_on_c, 0, 62, 90
4, 252720, Note_on_c, 0, 62, 0
4, 252720, Note_on_c, 0, 38, 0
4, 252720, Note_on_c, 0, 50, 0
4, 252720, Note_on_c, 0, 69, 0
4, 252720, Note_on_c, 0, 67, 99
4, 252720, Note_on_c, 0, 36, 81
4, 252720, Note_on_c, 0, 48, 81
4, 252779, Note_on_c, 0, 63, 86
4, 252840, Note_on_c, 0, 63, 0
4, 252840, Note_on_c, 0, 57, 88
4, 252900, Note_on_c, 0, 57, 0
4, 252900, Note_on_c, 0, 55, 97
4, 252959, Note_on_c, 0, 55, 0
4, 252959, Note_on_c, 0, 63, 108
4, 253020, Note_on_c, 0, 63, 0
4, 253020, Note_on_c, 0, 57, 91
4, 253080, Note_on_c, 0, 57, 0
4, 253080, Note_on_c, 0, 67, 0
4, 253080, Note_on_c, 0, 36, 0
4, 253080, Note_on_c, 0, 48, 0
4, 253080, Note_on_c, 0, 67, 106
4, 253080, Note_on_c, 0, 34, 84
4, 253080, Note_on_c, 0, 46, 84
4, 253139, Note_on_c, 0, 62, 89
4, 253200, Note_on_c, 0, 62, 0
4, 253200, Note_on_c, 0, 58, 96
4, 253260, Note_on_c, 0, 58, 0
4, 253260, Note_on_c, 0, 55, 89
4, 253319, Note_on_c, 0, 55, 0
4, 253319, Note_on_c, 0, 62, 117
4, 253380, Note_on_c, 0, 62, 0
4, 253380, Note_on_c, 0, 58, 92
4, 253440, Note_on_c, 0, 58, 0
4, 253440, Note_on_c, 0, 67, 0
4, 253440, Note_on_c, 0, 34, 0
4, 253440, Note_on_c, 0, 46, 0
4, 253440, Note_on_c, 0, 67, 112
4, 253440, Note_on_c, 0, 33, 81
4, 253440, Note_on_c, 0, 45, 81
4, 253499, Note_on_c, 0, 64, 90
4, 253560, Note_on_c, 0, 64, 0
4, 253560, Note_on_c, 0, 61, 88
4, 253620, Note_on_c, 0, 61, 0
4, 253620, Note_on_c, 0, 55, 88
4, 253679, Note_on_c, 0, 55, 0
4, 253679, Note_on_c, 0, 64, 116
4, 253740, Note_on_c, 0, 64, 0
4, 253740, Note_on_c, 0, 61, 92
4, 253800, Note_on_c, 0, 61, 0
4, 253800, Note_on_c, 0, 67, 0
4, 253800, Note_on_c, 0, 33, 0
4, 253800, Note_on_c, 0, 45, 0
4, 253800, Note_on_c, 0, 67, 105
4, 253800, Note_on_c, 0, 34, 86
4, 253800, Note_on_c, 0, 46, 86
4, 253859, Note_on_c, 0, 62, 88
4, 253920, Note_on_c, 0, 62, 0
4, 253920, Note_on_c, 0, 58, 89
4, 253980, Note_on_c, 0, 58, 0
4, 253980, Note_on_c, 0, 55, 91
4, 254039, Note_on_c, 0, 55, 0
4, 254039, Note_on_c, 0, 62, 115
4, 254100, Note_on_c, 0, 62, 0
4, 254100, Note_on_c, 0, 58, 92
4, 254160, Note_on_c, 0, 58, 0
4, 254160, Note_on_c, 0, 67, 0
4, 254160, Note_on_c, 0, 34, 0
4, 254160, Note_on_c, 0, 46, 0
4, 254160, Note_on_c, 0, 67, 110
4, 254160, Note_on_c, 0, 36, 86
4, 254160, Note_on_c, 0, 48, 86
4, 254219, Note_on_c, 0, 63, 91
4, 254280, Note_on_c, 0, 63, 0
4, 254280, Note_on_c, 0, 57, 89
4, 254340, Note_on_c, 0, 57, 0
4, 254340, Note_on_c, 0, 55, 95
4, 254399, Note_on_c, 0, 55, 0
4, 254399, Note_on_c, 0, 63, 112
4, 254460, Note_on_c, 0, 63, 0
4, 254460, Note_on_c, 0, 57, 98
4, 254520, Note_on_c, 0, 57, 0
4, 254520, Note_on_c, 0, 67, 0
4, 254520, Note_on_c, 0, 36, 0
4, 254520, Note_on_c, 0, 48, 0
4, 254520, Note_on_c, 0, 67, 101
4, 254520, Note_on_c, 0, 34, 82
4, 254520, Note_on_c, 0, 46, 82
4, 254579, Note_on_c, 0, 62, 87
4, 254640, Note_on_c, 0, 62, 0
4, 254640, Note_on_c, 0, 58, 93
4, 254700, Note_on_c, 0, 58, 0
4, 254700, Note_on_c, 0, 55, 92
4, 254759, Note_on_c, 0, 55, 0
4, 254759, Note_on_c, 0, 62, 117
4, 254820, Note_on_c, 0, 62, 0
4, 254820, Note_on_c, 0, 58, 97
4, 254880, Note_on_c, 0, 58, 0
4, 254880, Note_on_c, 0, 67, 0
4, 254880, Note_on_c, 0, 34, 0
4, 254880, Note_on_c, 0, 46, 0
4, 254880, Note_on_c, 0, 67, 122
4, 254880, Note_on_c, 0, 33, 75
4, 254880, Note_on_c, 0, 45, 75
4, 254939, Note_on_c, 0, 67, 0
4, 254939, Note_on_c, 0, 64, 91
4, 255000, Note_on_c, 0, 64, 0
4, 255000, Note_on_c, 0, 61, 91
4, 255060, Note_on_c, 0, 61, 0
4, 255060, Note_on_c, 0, 55, 93
4, 255119, Note_on_c, 0, 55, 0
4, 255119, Note_on_c, 0, 64, 116
4, 255180, Note_on_c, 0, 64, 0
4, 255180, Note_on_c, 0, 61, 88
4, 255240, Note_on_c, 0, 61, 0
4, 255240, Note_on_c, 0, 45, 0
4, 255240, Note_on_c, 0, 33, 0
4, 255240, Note_on_c, 0, 67, 112
4, 255240, Note_on_c, 0, 34, 84
4, 255240, Note_on_c, 0, 46, 84
4, 255299, Note_on_c, 0, 67, 0
4, 255299, Note_on_c, 0, 62, 84
4, 255360, Note_on_c, 0, 62, 0
4, 255360, Note_on_c, 0, 58, 89
4, 255420, Note_on_c, 0, 58, 0
4, 255420, Note_on_c, 0, 55, 93
4, 255479, Note_on_c, 0, 55, 0
4, 255479, Note_on_c, 0, 62, 111
4, 255540, Note_on_c, 0, 62, 0
4, 255540, Note_on_c, 0, 58, 96
4, 255600, Note_on_c, 0, 58, 0
4, 255600, Note_on_c, 0, 46, 0
4, 255600, Note_on_c, 0, 34, 0
4, 255600, Note_on_c, 0, 55, 97
4, 255600, Note_on_c, 0, 39, 88
4, 255600, Note_on_c, 0, 51, 88
4, 255659, Note_on_c, 0, 55, 0
4, 255659, Note_on_c, 0, 60, 112
4, 255720, Note_on_c, 0, 60, 0
4, 255720, Note_on_c, 0, 67, 119
4, 255780, Note_on_c, 0, 67, 0
4, 255780, Note_on_c, 0, 51, 0
4, 255780, Note_on_c, 0, 39, 0
4, 255780, Note_on_c, 0, 55, 89
4, 255780, Note_on_c, 0, 36, 84
4, 255780, Note_on_c, 0, 48, 84
4, 255839, Note_on_c, 0, 55, 0
4, 255839, Note_on_c, 0, 63, 118
4, 255900, Note_on_c, 0, 63, 0
4, 255900, Note_on_c, 0, 67, 106
4, 255960, Note_on_c, 0, 67, 0
4, 255960, Note_on_c, 0, 48, 0
4, 255960, Note_on_c, 0, 36, 0
4, 255960, Note_on_c, 0, 55, 90
4, 255960, Note_on_c, 0, 34, 82
4, 255960, Note_on_c, 0, 46, 82
4, 256019, Note_on_c, 0, 55, 0
4, 256019, Note_on_c, 0, 62, 113
4, 256080, Note_on_c, 0, 62, 0
4, 256080, Note_on_c, 0, 67, 112
4, 256140, Note_on_c, 0, 67, 0
4, 256140, Note_on_c, 0, 46, 0
4, 256140, Note_on_c, 0, 34, 0
4, 256140, Note_on_c, 0, 55, 86
4, 256140, Note_on_c, 0, 39, 87
4, 256140, Note_on_c, 0, 51, 87
4, 256199, Note_on_c, 0, 55, 0
4, 256199, Note_on_c, 0, 60, 109
4, 256260, Note_on_c, 0, 60, 0
4, 256260, Note_on_c, 0, 67, 115
4, 256320, Note_on_c, 0, 67, 0
4, 256320, Note_on_c, 0, 51, 0
4, 256320, Note_on_c, 0, 39, 0
4, 256320, Note_on_c, 0, 55, 89
4, 256320, Note_on_c, 0, 38, 84
4, 256320, Note_on_c, 0, 50, 84
4, 256379, Note_on_c, 0, 55, 0
4, 256379, Note_on_c, 0, 58, 102
4, 256440, Note_on_c, 0, 58, 0
4, 256440, Note_on_c, 0, 67, 121
4, 256500, Note_on_c, 0, 67, 0
4, 256500, Note_on_c, 0, 50, 0
4, 256500, Note_on_c, 0, 38, 0
4, 256500, Note_on_c, 0, 62, 90
4, 256500, Note_on_c, 0, 35, 78
4, 256500, Note_on_c, 0, 47, 78
4, 256559, Note_on_c, 0, 62, 0
4, 256559, Note_on_c, 0, 67, 107
4, 256620, Note_on_c, 0, 67, 0
4, 256620, Note_on_c, 0, 74, 120
4, 256680, Note_on_c, 0, 74, 0
4, 256680, Note_on_c, 0, 47, 0
4, 256680, Note_on_c, 0, 35, 0
4, 256680, Note_on_c, 0, 63, 74
4, 256680, Note_on_c, 0, 36, 84
4, 256680, Note_on_c, 0, 48, 84
4, 256739, Note_on_c, 0, 63, 0
4, 256739, Note_on_c, 0, 67, 102
4, 256800, Note_on_c, 0, 67, 0
4, 256800, Note_on_c, 0, 75, 115
4, 256860, Note_on_c, 0, 75, 0
4, 256860, Note_on_c, 0, 48, 0
4, 256860, Note_on_c, 0, 36, 0
4, 256860, Note_on_c, 0, 60, 73
4, 256860, Note_on_c, 0, 41, 91
4, 256860, Note_on_c, 0, 53, 91
4, 256919, Note_on_c, 0, 60, 0
4, 256919, Note_on_c, 0, 68, 112
4, 256980, Note_on_c, 0, 68, 0
4, 256980, Note_on_c, 0, 72, 115
4, 257040, Note_on_c, 0, 72, 0
4, 257040, Note_on_c, 0, 53, 0
4, 257040, Note_on_c, 0, 41, 0
4, 257040, Note_on_c, 0, 60, 67
4, 257040, Note_on_c, 0, 39, 84
4, 257040, Note_on_c, 0, 51, 84
4, 257099, Note_on_c, 0, 60, 0
4, 257099, Note_on_c, 0, 67, 111
4, 257160, Note_on_c, 0, 67, 0
4, 257160, Note_on_c, 0, 72, 113
4, 257220, Note_on_c, 0, 72, 0
4, 257220, Note_on_c, 0, 51, 0
4, 257220, Note_on_c, 0, 39, 0
4, 257220, Note_on_c, 0, 63, 77
4, 257220, Note_on_c, 0, 37, 81
4, 257220, Note_on_c, 0, 49, 81
4, 257279, Note_on_c, 0, 63, 0
4, 257279, Note_on_c, 0, 70, 111
4, 257340, Note_on_c, 0, 70, 0
4, 257340, Note_on_c, 0, 75, 112
4, 257400, Note_on_c, 0, 75, 0
4, 257400, Note_on_c, 0, 49, 0
4, 257400, Note_on_c, 0, 37, 0
4, 257400, Note_on_c, 0, 62, 74
4, 257400, Note_on_c, 0, 38, 82
4, 257400, Note_on_c, 0, 50, 82
4, 257459, Note_on_c, 0, 62, 0
4, 257459, Note_on_c, 0, 70, 115
4, 257520, Note_on_c, 0, 70, 0
4, 257520, Note_on_c, 0, 74, 107
4, 257580, Note_on_c, 0, 74, 0
4, 257580, Note_on_c, 0, 50, 0
4, 257580, Note_on_c, 0, 38, 0
4, 257580, Note_on_c, 0, 61, 71
4, 257580, Note_on_c, 0, 39, 81
4, 257580, Note_on_c, 0, 51, 81
4, 257639, Note_on_c, 0, 61, 0
4, 257639, Note_on_c, 0, 70, 107
4, 257700, Note_on_c, 0, 70, 0
4, 257700, Note_on_c, 0, 73, 104
4, 257760, Note_on_c, 0, 73, 0
4, 257760, Note_on_c, 0, 51, 0
4, 257760, Note_on_c, 0, 39, 0
4, 257760, Note_on_c, 0, 74, 105
4, 257760, Note_on_c, 0, 38, 80
4, 257760, Note_on_c, 0, 50, 80
4, 257819, Note_on_c, 0, 70, 101
4, 257880, Note_on_c, 0, 70, 0
4, 257880, Note_on_c, 0, 67, 99
4, 257940, Note_on_c, 0, 67, 0
4, 257940, Note_on_c, 0, 62, 94
4, 257999, Note_on_c, 0, 62, 0
4, 257999, Note_on_c, 0, 70, 126
4, 258060, Note_on_c, 0, 70, 0
4, 258060, Note_on_c, 0, 67, 99
4, 258120, Note_on_c, 0, 67, 0
4, 258120, Note_on_c, 0, 74, 0
4, 258120, Note_on_c, 0, 38, 0
4, 258120, Note_on_c, 0, 50, 0
4, 258120, Note_on_c, 0, 74, 97
4, 258120, Note_on_c, 0, 33, 80
4, 258120, Note_on_c, 0, 45, 80
4, 258179, Note_on_c, 0, 67, 98
4, 258240, Note_on_c, 0, 67, 0
4, 258240, Note_on_c, 0, 62, 94
4, 258300, Note_on_c, 0, 62, 0
4, 258300, Note_on_c, 0, 74, 0
4, 258300, Note_on_c, 0, 73, 93
4, 258359, Note_on_c, 0, 67, 95
4, 258420, Note_on_c, 0, 67, 0
4, 258420, Note_on_c, 0, 61, 88
4, 258480, Note_on_c, 0, 61, 0
4, 258480, Note_on_c, 0, 73, 0
4, 258480, Note_on_c, 0, 45, 0
4, 258480, Note_on_c, 0, 33, 0
4, 258480, Note_on_c, 0, 70, 87
4, 258480, Note_on_c, 0, 39, 95
4, 258480, Note_on_c, 0, 51, 95
4, 258539, Note_on_c, 0, 67, 98
4, 258600, Note_on_c, 0, 67, 0
4, 258600, Note_on_c, 0, 63, 93
4, 258660, Note_on_c, 0, 63, 0
4, 258660, Note_on_c, 0, 58, 93
4, 258719, Note_on_c, 0, 58, 0
4, 258719, Note_on_c, 0, 67, 126
4, 258780, Note_on_c, 0, 67, 0
4, 258780, Note_on_c, 0, 63, 99
4, 258840, Note_on_c, 0, 63, 0
4, 258840, Note_on_c, 0, 70, 0
4, 258840, Note_on_c, 0, 39, 0
4, 258840, Note_on_c, 0, 51, 0
4, 258840, Note_on_c, 0, 74, 106
4, 258840, Note_on_c, 0, 33, 77
4, 258840, Note_on_c, 0, 45, 77
4, 258899, Note_on_c, 0, 67, 100
4, 258960, Note_on_c, 0, 67, 0
4, 258960, Note_on_c, 0, 62, 97
4, 259020, Note_on_c, 0, 62, 0
4, 259020, Note_on_c, 0, 74, 0
4, 259020, Note_on_c, 0, 73, 92
4, 259079, Note_on_c, 0, 67, 98
4, 259140, Note_on_c, 0, 67, 0
4, 259140, Note_on_c, 0, 61, 90
4, 259200, Note_on_c, 0, 61, 0
4, 259200, Note_on_c, 0, 73, 0
4, 259200, Note_on_c, 0, 45, 0
4, 259200, Note_on_c, 0, 33, 0
4, 259200, Note_on_c, 0, 70, 87
4, 259200, Note_on_c, 0, 39, 86
4, 259200, Note_on_c, 0, 51, 86
4, 259259, Note_on_c, 0, 70, 0
4, 259259, Note_on_c, 0, 67, 85
4, 259320, Note_on_c, 0, 67, 0
4, 259320, Note_on_c, 0, 63, 85
4, 259380, Note_on_c, 0, 63, 0
4, 259380, Note_on_c, 0, 51, 0
4, 259380, Note_on_c, 0, 39, 0
4, 259380, Note_on_c, 0, 62, 90
4, 259380, Note_on_c, 0, 33, 74
4, 259380, Note_on_c, 0, 45, 74
4, 259439, Note_on_c, 0, 62, 0
4, 259439, Note_on_c, 0, 67, 109
4, 259500, Note_on_c, 0, 67, 0
4, 259500, Note_on_c, 0, 61, 89
4, 259560, Note_on_c, 0, 61, 0
4, 259560, Note_on_c, 0, 45, 0
4, 259560, Note_on_c, 0, 33, 0
4, 259560, Note_on_c, 0, 70, 119
4, 259560, Note_on_c, 0, 39, 86
4, 259560, Note_on_c, 0, 51, 86
4, 259619, Note_on_c, 0, 70, 0
4, 259619, Note_on_c, 0, 67, 91
4, 259680, Note_on_c, 0, 67, 0
4, 259680, Note_on_c, 0, 63, 86
4, 259740, Note_on_c, 0, 63, 0
4, 259740, Note_on_c, 0, 51, 0
4, 259740, Note_on_c, 0, 39, 0
4, 259740, Note_on_c, 0, 62, 85
4, 259740, Note_on_c, 0, 33, 76
4, 259740, Note_on_c, 0, 45, 76
4, 259799, Note_on_c, 0, 62, 0
4, 259799, Note_on_c, 0, 67, 108
4, 259860, Note_on_c, 0, 67, 0
4, 259860, Note_on_c, 0, 61, 81
4, 259920, Note_on_c, 0, 61, 0
4, 259920, Note_on_c, 0, 45, 0
4, 259920, Note_on_c, 0, 33, 0
4, 259920, Note_on_c, 0, 68, 114
4, 259920, Note_on_c, 0, 38, 96
4, 259920, Note_on_c, 0, 50, 96
4, 259979, Note_on_c, 0, 68, 0
4, 259979, Note_on_c, 0, 65, 87
4, 260040, Note_on_c, 0, 65, 0
4, 260040, Note_on_c, 0, 62, 90
4, 260100, Note_on_c, 0, 62, 0
4, 260100, Note_on_c, 0, 50, 0
4, 260100, Note_on_c, 0, 38, 0
4, 260100, Note_on_c, 0, 60, 88
4, 260100, Note_on_c, 0, 31, 77
4, 260100, Note_on_c, 0, 43, 77
4, 260159, Note_on_c, 0, 60, 0
4, 260159, Note_on_c, 0, 65, 111
4, 260220, Note_on_c, 0, 65, 0
4, 260220, Note_on_c, 0, 59, 94
4, 260280, Note_on_c, 0, 59, 0
4, 260280, Note_on_c, 0, 43, 0
4, 260280, Note_on_c, 0, 31, 0
4, 260280, Note_on_c, 0, 68, 118
4, 260280, Note_on_c, 0, 38, 89
4, 260280, Note_on_c, 0, 50, 89
4, 260339, Note_on_c, 0, 68, 0
4, 260339, Note_on_c, 0, 65, 92
4, 260400, Note_on_c, 0, 65, 0
4, 260400, Note_on_c, 0, 62, 84
4, 260460, Note_on_c, 0, 62, 0
4, 260460, Note_on_c, 0, 50, 0
4, 260460, Note_on_c, 0, 38, 0
4, 260460, Note_on_c, 0, 60, 89
4, 260460, Note_on_c, 0, 31, 83
4, 260460, Note_on_c, 0, 43, 83
4, 260519, Note_on_c, 0, 60, 0
4, 260519, Note_on_c, 0, 65, 111
4, 260580, Note_on_c, 0, 65, 0
4, 260580, Note_on_c, 0, 59, 89
4, 260640, Note_on_c, 0, 59, 0
4, 260640, Note_on_c, 0, 43, 0
4, 260640, Note_on_c, 0, 31, 0
4, 260640, Note_on_c, 0, 67, 115
4, 260640, Note_on_c, 0, 36, 84
4, 260640, Note_on_c, 0, 48, 84
4, 260699, Note_on_c, 0, 67, 0
4, 260699, Note_on_c, 0, 63, 89
4, 260760, Note_on_c, 0, 63, 0
4, 260760, Note_on_c, 0, 60, 82
4, 260820, Note_on_c, 0, 60, 0
4, 260820, Note_on_c, 0, 55, 92
4, 260879, Note_on_c, 0, 55, 0
4, 260879, Note_on_c, 0, 63, 118
4, 260940, Note_on_c, 0, 63, 0
4, 260940, Note_on_c, 0, 60, 92
4, 261000, Note_on_c, 0, 60, 0
4, 261000, Note_on_c, 0, 72, 125
4, 261059, Note_on_c, 0, 72, 0
4, 261059, Note_on_c, 0, 67, 89
4, 261120, Note_on_c, 0, 67, 0
4, 261120, Note_on_c, 0, 63, 81
4, 261180, Note_on_c, 0, 63, 0
4, 261180, Note_on_c, 0, 60, 86
4, 261239, Note_on_c, 0, 60, 0
4, 261239, Note_on_c, 0, 67, 115
4, 261300, Note_on_c, 0, 67, 0
4, 261300, Note_on_c, 0, 63, 90
4, 261360, Note_on_c, 0, 63, 0
4, 261360, Note_on_c, 0, 48, 0
4, 261360, Note_on_c, 0, 36, 0
4, 261360, Note_on_c, 0, 70, 118
4, 261360, Note_on_c, 0, 37, 85
4, 261360, Note_on_c, 0, 49, 85
4, 261419, Note_on_c, 0, 70, 0
4, 261419, Note_on_c, 0, 67, 93
4, 261480, Note_on_c, 0, 67, 0
4, 261480, Note_on_c, 0, 63, 90
4, 261540, Note_on_c, 0, 63, 0
4, 261540, Note_on_c, 0, 58, 90
4, 261599, Note_on_c, 0, 58, 0
4, 261599, Note_on_c, 0, 67, 112
4, 261660, Note_on_c, 0, 67, 0
4, 261660, Note_on_c, 0, 63, 89
4, 261720, Note_on_c, 0, 63, 0
4, 261720, Note_on_c, 0, 67, 109
4, 261779, Note_on_c, 0, 67, 0
4, 261779, Note_on_c, 0, 63, 90
4, 261840, Note_on_c, 0, 63, 0
4, 261840, Note_on_c, 0, 58, 90
4, 261900, Note_on_c, 0, 58, 0
4, 261900, Note_on_c, 0, 55, 90
4, 261959, Note_on_c, 0, 55, 0
4, 261959, Note_on_c, 0, 63, 116
4, 262020, Note_on_c, 0, 63, 0
4, 262020, Note_on_c, 0, 58, 95
4, 262080, Note_on_c, 0, 58, 0
4, 262080, Note_on_c, 0, 49, 0
4, 262080, Note_on_c, 0, 37, 0
4, 262080, Note_on_c, 0, 70, 97
4, 262080, Note_on_c, 0, 38, 83
4, 262080, Note_on_c, 0, 50, 83
4, 262139, Note_on_c, 0, 70, 0
4, 262139, Note_on_c, 0, 67, 97
4, 262200, Note_on_c, 0, 67, 0
4, 262200, Note_on_c, 0, 61, 96
4, 262260, Note_on_c, 0, 61, 0
4, 262260, Note_on_c, 0, 57, 96
4, 262319, Note_on_c, 0, 57, 0
4, 262319, Note_on_c, 0, 67, 95
4, 262380, Note_on_c, 0, 67, 0
4, 262380, Note_on_c, 0, 61, 95
4, 262440, Note_on_c, 0, 61, 0
4, 262440, Note_on_c, 0, 70, 94
4, 262499, Note_on_c, 0, 70, 0
4, 262499, Note_on_c, 0, 67, 94
4, 262560, Note_on_c, 0, 67, 0
4, 262560, Note_on_c, 0, 61, 93
4, 262620, Note_on_c, 0, 61, 0
4, 262620, Note_on_c, 0, 58, 93
4, 262679, Note_on_c, 0, 58, 0
4, 262679, Note_on_c, 0, 67, 92
4, 262740, Note_on_c, 0, 67, 0
4, 262740, Note_on_c, 0, 61, 91
4, 262800, Note_on_c, 0, 61, 0
4, 262800, Note_on_c, 0, 50, 0
4, 262800, Note_on_c, 0, 38, 0
4, 262800, Note_on_c, 0, 69, 91
4, 262800, Note_on_c, 0, 38, 77
4, 262800, Note_on_c, 0, 50, 77
4, 262859, Note_on_c, 0, 69, 0
4, 262859, Note_on_c, 0, 66, 90
4, 262920, Note_on_c, 0, 66, 0
4, 262920, Note_on_c, 0, 60, 90
4, 262980, Note_on_c, 0, 60, 0
4, 262980, Note_on_c, 0, 57, 89
4, 263039, Note_on_c, 0, 57, 0
4, 263039, Note_on_c, 0, 66, 89
4, 263100, Note_on_c, 0, 66, 0
4, 263100, Note_on_c, 0, 60, 88
4, 263160, Note_on_c, 0, 60, 0
4, 263160, Note_on_c, 0, 69, 88
4, 263219, Note_on_c, 0, 69, 0
4, 263219, Note_on_c, 0, 66, 87
4, 263280, Note_on_c, 0, 66, 0
4, 263280, Note_on_c, 0, 60, 87
4, 263340, Note_on_c, 0, 60, 0
4, 263340, Note_on_c, 0, 57, 86
4, 263399, Note_on_c, 0, 57, 0
4, 263399, Note_on_c, 0, 66, 86
4, 263460, Note_on_c, 0, 66, 0
4, 263460, Note_on_c, 0, 60, 85
4, 263520, Note_on_c, 0, 60, 0
4, 263520, Note_on_c, 0, 50, 0
4, 263520, Note_on_c, 0, 38, 0
4, 263520, Note_on_c, 0, 58, 85
4, 263520, Note_on_c, 0, 67, 85
4, 263520, Note_on_c, 0, 31, 71
4, 263520, Note_on_c, 0, 43, 71
4, 263700, Note_on_c, 0, 43, 0
4, 263700, Note_on_c, 0, 58, 0
4, 263700, Note_on_c, 0, 67, 0
4, 263700, Note_on_c, 0, 31, 0
4, 264960, Note_on_c, 0, 74, 52
4, 264960, Note_on_c, 0, 78, 52
4, 264960, Note_on_c, 0, 81, 52
4, 264960, Note_on_c, 0, 62, 56
4, 264960, Note_on_c, 0, 66, 56
4, 264960, Note_on_c, 0, 69, 56
4, 265680, Note_on_c, 0, 69, 0
4, 265680, Note_on_c, 0, 78, 0
4, 265680, Note_on_c, 0, 81, 0
4, 265680, Note_on_c, 0, 74, 0
4, 265680, Note_on_c, 0, 66, 0
4, 265680, Note_on_c, 0, 62, 0
4, 265680, Note_on_c, 0, 79, 59
4, 265680, Note_on_c, 0, 82, 59
4, 265680, Note_on_c, 0, 67, 61
4, 265680, Note_on_c, 0, 70, 61
4, 265860, Note_on_c, 0, 70, 0
4, 265860, Note_on_c, 0, 79, 0
4, 265860, Note_on_c, 0, 82, 0
4, 265860, Note_on_c, 0, 67, 0
4, 265860, Note_on_c, 0, 81, 67
4, 265860, Note_on_c, 0, 84, 67
4, 265860, Note_on_c, 0, 69, 66
4, 265860, Note_on_c, 0, 72, 66
4, 266040, Note_on_c, 0, 72, 0
4, 266040, Note_on_c, 0, 81, 0
4, 266040, Note_on_c, 0, 84, 0
4, 266040, Note_on_c, 0, 69, 0
4, 266040, Note_on_c, 0, 82, 65
4, 266040, Note_on_c, 0, 86, 65
4, 266040, Note_on_c, 0, 70, 64
4, 266040, Note_on_c, 0, 74, 64
4, 266400, Note_on_c, 0, 74, 0
4, 266400, Note_on_c, 0, 82, 0
4, 266400, Note_on_c, 0, 86, 0
4, 266400, Note_on_c, 0, 70, 0
4, 266400, Note_on_c, 0, 74, 52
4, 266400, Note_on_c, 0, 78, 52
4, 266400, Note_on_c, 0, 81, 52
4, 266400, Note_on_c, 0, 62, 51
4, 266400, Note_on_c, 0, 66, 51
4, 266400, Note_on_c, 0, 69, 51
4, 267480, Note_on_c, 0, 69, 0
4, 267480, Note_on_c, 0, 78, 0
4, 267480, Note_on_c, 0, 81, 0
4, 267480, Note_on_c, 0, 74, 0
4, 267480, Note_on_c, 0, 66, 0
4, 267480, Note_on_c, 0, 62, 0
4, 267480, Note_on_c, 0, 70, 84
4, 267480, Note_on_c, 0, 75, 84
4, 267480, Note_on_c, 0, 79, 84
4, 267480, Note_on_c, 0, 58, 78
4, 267480, Note_on_c, 0, 63, 78
4, 267480, Note_on_c, 0, 67, 78
4, 267840, Note_on_c, 0, 67, 0
4, 267840, Note_on_c, 0, 75, 0
4, 267840, Note_on_c, 0, 79, 0
4, 267840, Note_on_c, 0, 70, 0
4, 267840, Note_on_c, 0, 63, 0
4, 267840, Note_on_c, 0, 58, 0
4, 267840, Note_on_c, 0, 69, 66
4, 267840, Note_on_c, 0, 74, 66
4, 267840, Note_on_c, 0, 78, 66
4, 267840, Note_on_c, 0, 81, 66
4, 267840, Note_on_c, 0, 57, 59
4, 267840, Note_on_c, 0, 62, 59
4, 267840, Note_on_c, 0, 66, 59
4, 268200, Note_on_c, 0, 66, 0
4, 268200, Note_on_c, 0, 57, 0
4, 268200, Note_on_c, 0, 74, 0
4, 268200, Note_on_c, 0, 78, 0
4, 268200, Note_on_c, 0, 69, 0
4, 268200, Note_on_c, 0, 62, 0
4, 268200, Note_on_c, 0, 81, 0
4, 268200, Note_on_c, 0, 70, 86
4, 268200, Note_on_c, 0, 75, 86
4, 268200, Note_on_c, 0, 79, 86
4, 268200, Note_on_c, 0, 58, 86
4, 268200, Note_on_c, 0, 63, 86
4, 268200, Note_on_c, 0, 67, 86
4, 268560, Note_on_c, 0, 67, 0
4, 268560, Note_on_c, 0, 75, 0
4, 268560, Note_on_c, 0, 79, 0
4, 268560, Note_on_c, 0, 70, 0
4, 268560, Note_on_c, 0, 63, 0
4, 268560, Note_on_c, 0, 58, 0
4, 268560, Note_on_c, 0, 69, 60
4, 268560, Note_on_c, 0, 74, 60
4, 268560, Note_on_c, 0, 78, 60
4, 268560, Note_on_c, 0, 81, 60
4, 268560, Note_on_c, 0, 57, 51
4, 268560, Note_on_c, 0, 62, 51
4, 268560, Note_on_c, 0, 66, 51
4, 268920, Note_on_c, 0, 66, 0
4, 268920, Note_on_c, 0, 57, 0
4, 268920, Note_on_c, 0, 74, 0
4, 268920, Note_on_c, 0, 78, 0
4, 268920, Note_on_c, 0, 69, 0
4, 268920, Note_on_c, 0, 62, 0
4, 268920, Note_on_c, 0, 81, 0
4, 268920, Note_on_c, 0, 70, 85
4, 268920, Note_on_c, 0, 75, 85
4, 268920, Note_on_c, 0, 79, 85
4, 268920, Note_on_c, 0, 58, 93
4, 268920, Note_on_c, 0, 63, 93
4, 268920, Note_on_c, 0, 67, 93
4, 269280, Note_on_c, 0, 67, 0
4, 269280, Note_on_c, 0, 75, 0
4, 269280, Note_on_c, 0, 79, 0
4, 269280, Note_on_c, 0, 70, 0
4, 269280, Note_on_c, 0, 63, 0
4, 269280, Note_on_c, 0, 58, 0
4, 269280, Note_on_c, 0, 69, 61
4, 269280, Note_on_c, 0, 74, 61
4, 269280, Note_on_c, 0, 78, 61
4, 269280, Note_on_c, 0, 81, 61
4, 269280, Note_on_c, 0, 57, 60
4, 269280, Note_on_c, 0, 62, 60
4, 269280, Note_on_c, 0, 66, 60
4, 269460, Note_on_c, 0, 66, 0
4, 269460, Note_on_c, 0, 57, 0
4, 269460, Note_on_c, 0, 74, 0
4, 269460, Note_on_c, 0, 78, 0
4, 269460, Note_on_c, 0, 69, 0
4, 269460, Note_on_c, 0, 62, 0
4, 269460, Note_on_c, 0, 81, 0
4, 269460, Note_on_c, 0, 70, 61
4, 269460, Note_on_c, 0, 75, 61
4, 269460, Note_on_c, 0, 79, 61
4, 269460, Note_on_c, 0, 58, 64
4, 269460, Note_on_c, 0, 63, 64
4, 269460, Note_on_c, 0, 67, 64
4, 269640, Note_on_c, 0, 67, 0
4, 269640, Note_on_c, 0, 75, 0
4, 269640, Note_on_c, 0, 79, 0
4, 269640, Note_on_c, 0, 70, 0
4, 269640, Note_on_c, 0, 63, 0
4, 269640, Note_on_c, 0, 58, 0
4, 269640, Note_on_c, 0, 69, 68
4, 269640, Note_on_c, 0, 74, 68
4, 269640, Note_on_c, 0, 78, 68
4, 269640, Note_on_c, 0, 81, 68
4, 269640, Note_on_c, 0, 57, 57
4, 269640, Note_on_c, 0, 62, 57
4, 269640, Note_on_c, 0, 66, 57
4, 270180, Note_on_c, 0, 66, 0
4, 270180, Note_on_c, 0, 57, 0
4, 270180, Note_on_c, 0, 74, 0
4, 270180, Note_on_c, 0, 78, 0
4, 270180, Note_on_c, 0, 69, 0
4, 270180, Note_on_c, 0, 62, 0
4, 270180, Note_on_c, 0, 81, 0
4, 270720, Note_on_c, 0, 76, 56
4, 270720, Note_on_c, 0, 85, 56
4, 270720, Note_on_c, 0, 88, 56
4, 270720, Note_on_c, 0, 57, 55
4, 270720, Note_on_c, 0, 61, 55
4, 270720, Note_on_c, 0, 64, 55
4, 271440, Note_on_c, 0, 64, 0
4, 271440, Note_on_c, 0, 85, 0
4, 271440, Note_on_c, 0, 88, 0
4, 271440, Note_on_c, 0, 76, 0
4, 271440, Note_on_c, 0, 61, 0
4, 271440, Note_on_c, 0, 57, 0
4, 271440, Note_on_c, 0, 77, 63
4, 271440, Note_on_c, 0, 86, 63
4, 271440, Note_on_c, 0, 89, 63
4, 271440, Note_on_c, 0, 62, 63
4, 271440, Note_on_c, 0, 65, 63
4, 271620, Note_on_c, 0, 65, 0
4, 271620, Note_on_c, 0, 89, 0
4, 271620, Note_on_c, 0, 77, 0
4, 271620, Note_on_c, 0, 86, 0
4, 271620, Note_on_c, 0, 62, 0
4, 271620, Note_on_c, 0, 79, 62
4, 271620, Note_on_c, 0, 88, 62
4, 271620, Note_on_c, 0, 91, 62
4, 271620, Note_on_c, 0, 64, 64
4, 271620, Note_on_c, 0, 67, 64
4, 271800, Note_on_c, 0, 67, 0
4, 271800, Note_on_c, 0, 91, 0
4, 271800, Note_on_c, 0, 79, 0
4, 271800, Note_on_c, 0, 88, 0
4, 271800, Note_on_c, 0, 64, 0
4, 271800, Note_on_c, 0, 81, 69
4, 271800, Note_on_c, 0, 89, 69
4, 271800, Note_on_c, 0, 93, 69
4, 271800, Note_on_c, 0, 65, 65
4, 271800, Note_on_c, 0, 69, 65
4, 272160, Note_on_c, 0, 69, 0
4, 272160, Note_on_c, 0, 93, 0
4, 272160, Note_on_c, 0, 81, 0
4, 272160, Note_on_c, 0, 89, 0
4, 272160, Note_on_c, 0, 65, 0
4, 272160, Note_on_c, 0, 76, 54
4, 272160, Note_on_c, 0, 85, 54
4, 272160, Note_on_c, 0, 88, 54
4, 272160, Note_on_c, 0, 57, 53
4, 272160, Note_on_c, 0, 61, 53
4, 272160, Note_on_c, 0, 64, 53
4, 273240, Note_on_c, 0, 64, 0
4, 273240, Note_on_c, 0, 85, 0
4, 273240, Note_on_c, 0, 88, 0
4, 273240, Note_on_c, 0, 76, 0
4, 273240, Note_on_c, 0, 61, 0
4, 273240, Note_on_c, 0, 57, 0
4, 273240, Note_on_c, 0, 74, 76
4, 273240, Note_on_c, 0, 77, 76
4, 273240, Note_on_c, 0, 82, 76
4, 273240, Note_on_c, 0, 86, 76
4, 273240, Note_on_c, 0, 62, 94
4, 273240, Note_on_c, 0, 65, 94
4, 273240, Note_on_c, 0, 70, 94
4, 273600, Note_on_c, 0, 70, 0
4, 273600, Note_on_c, 0, 62, 0
4, 273600, Note_on_c, 0, 77, 0
4, 273600, Note_on_c, 0, 82, 0
4, 273600, Note_on_c, 0, 74, 0
4, 273600, Note_on_c, 0, 65, 0
4, 273600, Note_on_c, 0, 86, 0
4, 273600, Note_on_c, 0, 76, 63
4, 273600, Note_on_c, 0, 81, 63
4, 273600, Note_on_c, 0, 85, 63
4, 273600, Note_on_c, 0, 88, 63
4, 273600, Note_on_c, 0, 57, 58
4, 273600, Note_on_c, 0, 61, 58
4, 273600, Note_on_c, 0, 64, 58
4, 273600, Note_on_c, 0, 69, 58
4, 273960, Note_on_c, 0, 69, 0
4, 273960, Note_on_c, 0, 76, 0
4, 273960, Note_on_c, 0, 57, 0
4, 273960, Note_on_c, 0, 81, 0
4, 273960, Note_on_c, 0, 85, 0
4, 273960, Note_on_c, 0, 88, 0
4, 273960, Note_on_c, 0, 61, 0
4, 273960, Note_on_c, 0, 64, 0
4, 273960, Note_on_c, 0, 74, 82
4, 273960, Note_on_c, 0, 77, 82
4, 273960, Note_on_c, 0, 82, 82
4, 273960, Note_on_c, 0, 86, 82
4, 273960, Note_on_c, 0, 62, 93
4, 273960, Note_on_c, 0, 65, 93
4, 273960, Note_on_c, 0, 70, 93
4, 274320, Note_on_c, 0, 70, 0
4, 274320, Note_on_c, 0, 62, 0
4, 274320, Note_on_c, 0, 77, 0
4, 274320, Note_on_c, 0, 82, 0
4, 274320, Note_on_c, 0, 74, 0
4, 274320, Note_on_c, 0, 65, 0
4, 274320, Note_on_c, 0, 86, 0
4, 274320, Note_on_c, 0, 76, 60
4, 274320, Note_on_c, 0, 81, 60
4, 274320, Note_on_c, 0, 85, 60
4, 274320, Note_on_c, 0, 88, 60
4, 274320, Note_on_c, 0, 57, 59
4, 274320, Note_on_c, 0, 61, 59
4, 274320, Note_on_c, 0, 64, 59
4, 274320, Note_on_c, 0, 69, 59
4, 274680, Note_on_c, 0, 69, 0
4, 274680, Note_on_c, 0, 76, 0
4, 274680, Note_on_c, 0, 57, 0
4, 274680, Note_on_c, 0, 81, 0
4, 274680, Note_on_c, 0, 85, 0
4, 274680, Note_on_c, 0, 88, 0
4, 274680, Note_on_c, 0, 61, 0
4, 274680, Note_on_c, 0, 64, 0
4, 274680, Note_on_c, 0, 74, 81
4, 274680, Note_on_c, 0, 77, 81
4, 274680, Note_on_c, 0, 82, 81
4, 274680, Note_on_c, 0, 86, 81
4, 274680, Note_on_c, 0, 62, 93
4, 274680, Note_on_c, 0, 65, 93
4, 274680, Note_on_c, 0, 70, 93
4, 275040, Note_on_c, 0, 70, 0
4, 275040, Note_on_c, 0, 62, 0
4, 275040, Note_on_c, 0, 77, 0
4, 275040, Note_on_c, 0, 82, 0
4, 275040, Note_on_c, 0, 74, 0
4, 275040, Note_on_c, 0, 65, 0
4, 275040, Note_on_c, 0, 86, 0
4, 275040, Note_on_c, 0, 76, 67
4, 275040, Note_on_c, 0, 81, 67
4, 275040, Note_on_c, 0, 85, 67
4, 275040, Note_on_c, 0, 88, 67
4, 275040, Note_on_c, 0, 57, 56
4, 275040, Note_on_c, 0, 61, 56
4, 275040, Note_on_c, 0, 64, 56
4, 275040, Note_on_c, 0, 69, 56
4, 275220, Note_on_c, 0, 69, 0
4, 275220, Note_on_c, 0, 76, 0
4, 275220, Note_on_c, 0, 57, 0
4, 275220, Note_on_c, 0, 81, 0
4, 275220, Note_on_c, 0, 85, 0
4, 275220, Note_on_c, 0, 88, 0
4, 275220, Note_on_c, 0, 61, 0
4, 275220, Note_on_c, 0, 64, 0
4, 275220, Note_on_c, 0, 74, 58
4, 275220, Note_on_c, 0, 77, 58
4, 275220, Note_on_c, 0, 82, 58
4, 275220, Note_on_c, 0, 86, 58
4, 275220, Note_on_c, 0, 62, 65
4, 275220, Note_on_c, 0, 65, 65
4, 275220, Note_on_c, 0, 70, 65
4, 275400, Note_on_c, 0, 70, 0
4, 275400, Note_on_c, 0, 62, 0
4, 275400, Note_on_c, 0, 77, 0
4, 275400, Note_on_c, 0, 82, 0
4, 275400, Note_on_c, 0, 74, 0
4, 275400, Note_on_c, 0, 65, 0
4, 275400, Note_on_c, 0, 86, 0
4, 275400, Note_on_c, 0, 76, 64
4, 275400, Note_on_c, 0, 81, 64
4, 275400, Note_on_c, 0, 85, 64
4, 275400, Note_on_c, 0, 88, 64
4, 275400, Note_on_c, 0, 57, 55
4, 275400, Note_on_c, 0, 61, 55
4, 275400, Note_on_c, 0, 64, 55
4, 275400, Note_on_c, 0, 69, 55
4, 275940, Note_on_c, 0, 69, 0
4, 275940, Note_on_c, 0, 76, 0
4, 275940, Note_on_c, 0, 57, 0
4, 275940, Note_on_c, 0, 81, 0
4, 275940, Note_on_c, 0, 85, 0
4, 275940, Note_on_c, 0, 88, 0
4, 275940, Note_on_c, 0, 61, 0
4, 275940, Note_on_c, 0, 64, 0
4, 276480, Note_on_c, 0, 69, 49
4, 276480, Note_on_c, 0, 73, 49
4, 276480, Note_on_c, 0, 76, 49
4, 276480, Note_on_c, 0, 57, 54
4, 276480, Note_on_c, 0, 61, 54
4, 276480, Note_on_c, 0, 64, 54
4, 277200, Note_on_c, 0, 64, 0
4, 277200, Note_on_c, 0, 73, 0
4, 277200, Note_on_c, 0, 76, 0
4, 277200, Note_on_c, 0, 69, 0
4, 277200, Note_on_c, 0, 61, 0
4, 277200, Note_on_c, 0, 57, 0
4, 277200, Note_on_c, 0, 74, 63
4, 277200, Note_on_c, 0, 77, 63
4, 277200, Note_on_c, 0, 62, 62
4, 277200, Note_on_c, 0, 65, 62
4, 277380, Note_on_c, 0, 65, 0
4, 277380, Note_on_c, 0, 74, 0
4, 277380, Note_on_c, 0, 77, 0
4, 277380, Note_on_c, 0, 62, 0
4, 277380, Note_on_c, 0, 76, 67
4, 277380, Note_on_c, 0, 79, 67
4, 277380, Note_on_c, 0, 64, 69
4, 277380, Note_on_c, 0, 67, 69
4, 277560, Note_on_c, 0, 67, 0
4, 277560, Note_on_c, 0, 76, 0
4, 277560, Note_on_c, 0, 79, 0
4, 277560, Note_on_c, 0, 64, 0
4, 277560, Note_on_c, 0, 77, 66
4, 277560, Note_on_c, 0, 81, 66
4, 277560, Note_on_c, 0, 65, 60
4, 277560, Note_on_c, 0, 69, 60
4, 277920, Note_on_c, 0, 69, 0
4, 277920, Note_on_c, 0, 77, 0
4, 277920, Note_on_c, 0, 81, 0
4, 277920, Note_on_c, 0, 65, 0
4, 277920, Note_on_c, 0, 69, 52
4, 277920, Note_on_c, 0, 73, 52
4, 277920, Note_on_c, 0, 76, 52
4, 277920, Note_on_c, 0, 57, 51
4, 277920, Note_on_c, 0, 61, 51
4, 277920, Note_on_c, 0, 64, 51
4, 279000, Note_on_c, 0, 64, 0
4, 279000, Note_on_c, 0, 73, 0
4, 279000, Note_on_c, 0, 76, 0
4, 279000, Note_on_c, 0, 69, 0
4, 279000, Note_on_c, 0, 61, 0
4, 279000, Note_on_c, 0, 57, 0
4, 279000, Note_on_c, 0, 62, 76
4, 279000, Note_on_c, 0, 65, 76
4, 279000, Note_on_c, 0, 70, 76
4, 279000, Note_on_c, 0, 74, 76
4, 279000, Note_on_c, 0, 50, 78
4, 279000, Note_on_c, 0, 53, 78
4, 279000, Note_on_c, 0, 58, 78
4, 279360, Note_on_c, 0, 58, 0
4, 279360, Note_on_c, 0, 50, 0
4, 279360, Note_on_c, 0, 65, 0
4, 279360, Note_on_c, 0, 70, 0
4, 279360, Note_on_c, 0, 62, 0
4, 279360, Note_on_c, 0, 53, 0
4, 279360, Note_on_c, 0, 74, 0
4, 279360, Note_on_c, 0, 64, 66
4, 279360, Note_on_c, 0, 69, 66
4, 279360, Note_on_c, 0, 73, 66
4, 279360, Note_on_c, 0, 76, 66
4, 279360, Note_on_c, 0, 45, 53
4, 279360, Note_on_c, 0, 52, 53
4, 279360, Note_on_c, 0, 57, 53
4, 279720, Note_on_c, 0, 57, 0
4, 279720, Note_on_c, 0, 45, 0
4, 279720, Note_on_c, 0, 69, 0
4, 279720, Note_on_c, 0, 73, 0
4, 279720, Note_on_c, 0, 64, 0
4, 279720, Note_on_c, 0, 52, 0
4, 279720, Note_on_c, 0, 76, 0
4, 279720, Note_on_c, 0, 62, 83
4, 279720, Note_on_c, 0, 65, 83
4, 279720, Note_on_c, 0, 70, 83
4, 279720, Note_on_c, 0, 74, 83
4, 279720, Note_on_c, 0, 50, 89
4, 279720, Note_on_c, 0, 53, 89
4, 279720, Note_on_c, 0, 58, 89
4, 280080, Note_on_c, 0, 58, 0
4, 280080, Note_on_c, 0, 50, 0
4, 280080, Note_on_c, 0, 65, 0
4, 280080, Note_on_c, 0, 70, 0
4, 280080, Note_on_c, 0, 62, 0
4, 280080, Note_on_c, 0, 53, 0
4, 280080, Note_on_c, 0, 74, 0
4, 280080, Note_on_c, 0, 64, 66
4, 280080, Note_on_c, 0, 69, 66
4, 280080, Note_on_c, 0, 73, 66
4, 280080, Note_on_c, 0, 76, 66
4, 280080, Note_on_c, 0, 45, 59
4, 280080, Note_on_c, 0, 52, 59
4, 280080, Note_on_c, 0, 57, 59
4, 280440, Note_on_c, 0, 57, 0
4, 280440, Note_on_c, 0, 45, 0
4, 280440, Note_on_c, 0, 69, 0
4, 280440, Note_on_c, 0, 73, 0
4, 280440, Note_on_c, 0, 64, 0
4, 280440, Note_on_c, 0, 52, 0
4, 280440, Note_on_c, 0, 76, 0
4, 280440, Note_on_c, 0, 62, 79
4, 280440, Note_on_c, 0, 65, 79
4, 280440, Note_on_c, 0, 70, 79
4, 280440, Note_on_c, 0, 74, 79
4, 280440, Note_on_c, 0, 50, 88
4, 280440, Note_on_c, 0, 53, 88
4, 280440, Note_on_c, 0, 58, 88
4, 280800, Note_on_c, 0, 58, 0
4, 280800, Note_on_c, 0, 50, 0
4, 280800, Note_on_c, 0, 65, 0
4, 280800, Note_on_c, 0, 70, 0
4, 280800, Note_on_c, 0, 62, 0
4, 280800, Note_on_c, 0, 53, 0
4, 280800, Note_on_c, 0, 74, 0
4, 280800, Note_on_c, 0, 64, 63
4, 280800, Note_on_c, 0, 69, 63
4, 280800, Note_on_c, 0, 73, 63
4, 280800, Note_on_c, 0, 76, 63
4, 280800, Note_on_c, 0, 45, 61
4, 280800, Note_on_c, 0, 52, 61
4, 280800, Note_on_c, 0, 57, 61
4, 280980, Note_on_c, 0, 57, 0
4, 280980, Note_on_c, 0, 45, 0
4, 280980, Note_on_c, 0, 69, 0
4, 280980, Note_on_c, 0, 73, 0
4, 280980, Note_on_c, 0, 64, 0
4, 280980, Note_on_c, 0, 52, 0
4, 280980, Note_on_c, 0, 76, 0
4, 280980, Note_on_c, 0, 62, 60
4, 280980, Note_on_c, 0, 65, 60
4, 280980, Note_on_c, 0, 70, 60
4, 280980, Note_on_c, 0, 74, 60
4, 280980, Note_on_c, 0, 50, 65
4, 280980, Note_on_c, 0, 53, 65
4, 280980, Note_on_c, 0, 58, 65
4, 281160, Note_on_c, 0, 58, 0
4, 281160, Note_on_c, 0, 50, 0
4, 281160, Note_on_c, 0, 65, 0
4, 281160, Note_on_c, 0, 70, 0
4, 281160, Note_on_c, 0, 62, 0
4, 281160, Note_on_c, 0, 53, 0
4, 281160, Note_on_c, 0, 74, 0
4, 281160, Note_on_c, 0, 64, 59
4, 281160, Note_on_c, 0, 69, 59
4, 281160, Note_on_c, 0, 73, 59
4, 281160, Note_on_c, 0, 76, 59
4, 281160, Note_on_c, 0, 45, 60
4, 281160, Note_on_c, 0, 52, 60
4, 281160, Note_on_c, 0, 57, 60
4, 281700, Note_on_c, 0, 57, 0
4, 281700, Note_on_c, 0, 45, 0
4, 281700, Note_on_c, 0, 69, 0
4, 281700, Note_on_c, 0, 73, 0
4, 281700, Note_on_c, 0, 64, 0
4, 281700, Note_on_c, 0, 52, 0
4, 281700, Note_on_c, 0, 76, 0
4, 282240, Note_on_c, 0, 33, 51
4, 282240, Note_on_c, 0, 45, 51
4, 282960, Note_on_c, 0, 45, 0
4, 282960, Note_on_c, 0, 33, 0
4, 282960, Note_on_c, 0, 31, 61
4, 282960, Note_on_c, 0, 43, 61
4, 283680, Note_on_c, 0, 43, 0
4, 283680, Note_on_c, 0, 31, 0
4, 283680, Note_on_c, 0, 29, 57
4, 283680, Note_on_c, 0, 41, 57
4, 283800, Note_on_c, 0, 47, 55
4, 283919, Note_on_c, 0, 47, 0
4, 283919, Note_on_c, 0, 48, 61
4, 284040, Note_on_c, 0, 48, 0
4, 284040, Note_on_c, 0, 57, 73
4, 284040, Note_on_c, 0, 60, 73
4, 284160, Note_on_c, 0, 60, 0
4, 284160, Note_on_c, 0, 57, 0
4, 284160, Note_on_c, 0, 52, 63
4, 284279, Note_on_c, 0, 52, 0
4, 284279, Note_on_c, 0, 53, 58
4, 284400, Note_on_c, 0, 53, 0
4, 284400, Note_on_c, 0, 41, 0
4, 284400, Note_on_c, 0, 29, 0
4, 284400, Note_on_c, 0, 41, 61
4, 284520, Note_on_c, 0, 48, 51
4, 284639, Note_on_c, 0, 48, 0
4, 284639, Note_on_c, 0, 49, 64
4, 284760, Note_on_c, 0, 49, 0
4, 284760, Note_on_c, 0, 57, 79
4, 284760, Note_on_c, 0, 61, 79
4, 284880, Note_on_c, 0, 61, 0
4, 284880, Note_on_c, 0, 57, 0
4, 284880, Note_on_c, 0, 52, 56
4, 284999, Note_on_c, 0, 52, 0
4, 284999, Note_on_c, 0, 53, 59
4, 285120, Note_on_c, 0, 53, 0
4, 285120, Note_on_c, 0, 41, 0
4, 285120, Note_on_c, 0, 29, 60
4, 285120, Note_on_c, 0, 41, 60
4, 285240, Note_on_c, 0, 49, 56
4, 285359, Note_on_c, 0, 49, 0
4, 285359, Note_on_c, 0, 50, 58
4, 285480, Note_on_c, 0, 50, 0
4, 285480, Note_on_c, 0, 57, 75
4, 285480, Note_on_c, 0, 62, 75
4, 285600, Note_on_c, 0, 62, 0
4, 285600, Note_on_c, 0, 57, 0
4, 285600, Note_on_c, 0, 52, 59
4, 285719, Note_on_c, 0, 52, 0
4, 285719, Note_on_c, 0, 53, 63
4, 285840, Note_on_c, 0, 53, 0
4, 285840, Note_on_c, 0, 41, 0
4, 285840, Note_on_c, 0, 29, 0
4, 285840, Note_on_c, 0, 30, 58
4, 285840, Note_on_c, 0, 42, 58
4, 285960, Note_on_c, 0, 50, 54
4, 286079, Note_on_c, 0, 50, 0
4, 286079, Note_on_c, 0, 51, 62
4, 286200, Note_on_c, 0, 51, 0
4, 286200, Note_on_c, 0, 60, 80
4, 286200, Note_on_c, 0, 63, 80
4, 286320, Note_on_c, 0, 63, 0
4, 286320, Note_on_c, 0, 60, 0
4, 286320, Note_on_c, 0, 56, 57
4, 286439, Note_on_c, 0, 56, 0
4, 286439, Note_on_c, 0, 57, 57
4, 286560, Note_on_c, 0, 57, 0
4, 286560, Note_on_c, 0, 42, 0
4, 286560, Note_on_c, 0, 30, 0
4, 286560, Note_on_c, 0, 31, 60
4, 286560, Note_on_c, 0, 43, 60
4, 286680, Note_on_c, 0, 49, 54
4, 286799, Note_on_c, 0, 49, 0
4, 286799, Note_on_c, 0, 50, 60
4, 286920, Note_on_c, 0, 50, 0
4, 286920, Note_on_c, 0, 58, 80
4, 286920, Note_on_c, 0, 62, 80
4, 287040, Note_on_c, 0, 62, 0
4, 287040, Note_on_c, 0, 58, 0
4, 287040, Note_on_c, 0, 54, 57
4, 287159, Note_on_c, 0, 54, 0
4, 287159, Note_on_c, 0, 55, 62
4, 287280, Note_on_c, 0, 55, 0
4, 287280, Note_on_c, 0, 43, 0
4, 287280, Note_on_c, 0, 31, 0
4, 287280, Note_on_c, 0, 34, 66
4, 287280, Note_on_c, 0, 46, 66
4, 287400, Note_on_c, 0, 54, 58
4, 287519, Note_on_c, 0, 54, 0
4, 287519, Note_on_c, 0, 55, 59
4, 287640, Note_on_c, 0, 55, 0
4, 287640, Note_on_c, 0, 62, 82
4, 287640, Note_on_c, 0, 67, 82
4, 287760, Note_on_c, 0, 67, 0
4, 287760, Note_on_c, 0, 62, 0
4, 287760, Note_on_c, 0, 57, 55
4, 287879, Note_on_c, 0, 57, 0
4, 287879, Note_on_c, 0, 58, 66
4, 288000, Note_on_c, 0, 58, 0
4, 288000, Note_on_c, 0, 46, 0
4, 288000, Note_on_c, 0, 34, 0
4, 288000, Note_on_c, 0, 37, 61
4, 288000, Note_on_c, 0, 49, 61
4, 288120, Note_on_c, 0, 51, 55
4, 288239, Note_on_c, 0, 51, 0
4, 288239, Note_on_c, 0, 52, 61
4, 288360, Note_on_c, 0, 52, 0
4, 288360, Note_on_c, 0, 61, 72
4, 288360, Note_on_c, 0, 64, 72
4, 288480, Note_on_c, 0, 64, 0
4, 288480, Note_on_c, 0, 61, 0
4, 288480, Note_on_c, 0, 56, 61
4, 288599, Note_on_c, 0, 56, 0
4, 288599, Note_on_c, 0, 57, 63
4, 288720, Note_on_c, 0, 57, 0
4, 288720, Note_on_c, 0, 49, 0
4, 288720, Note_on_c, 0, 37, 0
4, 288720, Note_on_c, 0, 36, 56
4, 288720, Note_on_c, 0, 48, 56
4, 288840, Note_on_c, 0, 51, 54
4, 288959, Note_on_c, 0, 51, 0
4, 288959, Note_on_c, 0, 52, 62
4, 289080, Note_on_c, 0, 52, 0
4, 289080, Note_on_c, 0, 58, 75
4, 289080, Note_on_c, 0, 64, 75
4, 289200, Note_on_c, 0, 64, 0
4, 289200, Note_on_c, 0, 58, 0
4, 289200, Note_on_c, 0, 54, 58
4, 289319, Note_on_c, 0, 54, 0
4, 289319, Note_on_c, 0, 55, 59
4, 289440, Note_on_c, 0, 55, 0
4, 289440, Note_on_c, 0, 48, 0
4, 289440, Note_on_c, 0, 36, 0
4, 289440, Note_on_c, 0, 29, 54
4, 289440, Note_on_c, 0, 41, 54
4, 289560, Note_on_c, 0, 47, 50
4, 289679, Note_on_c, 0, 47, 0
4, 289679, Note_on_c, 0, 48, 58
4, 289800, Note_on_c, 0, 48, 0
4, 289800, Note_on_c, 0, 57, 79
4, 289800, Note_on_c, 0, 60, 79
4, 289920, Note_on_c, 0, 60, 0
4, 289920, Note_on_c, 0, 57, 0
4, 289920, Note_on_c, 0, 52, 60
4, 290039, Note_on_c, 0, 52, 0
4, 290039, Note_on_c, 0, 53, 62
4, 290160, Note_on_c, 0, 53, 0
4, 290160, Note_on_c, 0, 41, 0
4, 290160, Note_on_c, 0, 29, 0
4, 290160, Note_on_c, 0, 41, 56
4, 290280, Note_on_c, 0, 48, 58
4, 290399, Note_on_c, 0, 48, 0
4, 290399, Note_on_c, 0, 49, 61
4, 290520, Note_on_c, 0, 49, 0
4, 290520, Note_on_c, 0, 57, 77
4, 290520, Note_on_c, 0, 61, 77
4, 290640, Note_on_c, 0, 61, 0
4, 290640, Note_on_c, 0, 57, 0
4, 290640, Note_on_c, 0, 52, 55
4, 290759, Note_on_c, 0, 52, 0
4, 290759, Note_on_c, 0, 53, 66
4, 290880, Note_on_c, 0, 53, 0
4, 290880, Note_on_c, 0, 41, 0
4, 290880, Note_on_c, 0, 29, 61
4, 290880, Note_on_c, 0, 41, 61
4, 291000, Note_on_c, 0, 49, 52
4, 291119, Note_on_c, 0, 49, 0
4, 291119, Note_on_c, 0, 50, 61
4, 291240, Note_on_c, 0, 50, 0
4, 291240, Note_on_c, 0, 57, 79
4, 291240, Note_on_c, 0, 62, 79
4, 291360, Note_on_c, 0, 62, 0
4, 291360, Note_on_c, 0, 57, 0
4, 291360, Note_on_c, 0, 52, 58
4, 291479, Note_on_c, 0, 52, 0
4, 291479, Note_on_c, 0, 53, 62
4, 291600, Note_on_c, 0, 53, 0
4, 291600, Note_on_c, 0, 41, 0
4, 291600, Note_on_c, 0, 29, 0
4, 291600, Note_on_c, 0, 30, 63
4, 291600, Note_on_c, 0, 42, 63
4, 291720, Note_on_c, 0, 50, 56
4, 291839, Note_on_c, 0, 50, 0
4, 291839, Note_on_c, 0, 51, 57
4, 291960, Note_on_c, 0, 51, 0
4, 291960, Note_on_c, 0, 60, 77
4, 291960, Note_on_c, 0, 63, 77
4, 292080, Note_on_c, 0, 63, 0
4, 292080, Note_on_c, 0, 60, 0
4, 292080, Note_on_c, 0, 56, 61
4, 292199, Note_on_c, 0, 56, 0
4, 292199, Note_on_c, 0, 57, 59
4, 292320, Note_on_c, 0, 57, 0
4, 292320, Note_on_c, 0, 42, 0
4, 292320, Note_on_c, 0, 30, 0
4, 292320, Note_on_c, 0, 31, 61
4, 292320, Note_on_c, 0, 43, 61
4, 292440, Note_on_c, 0, 49, 54
4, 292559, Note_on_c, 0, 49, 0
4, 292559, Note_on_c, 0, 50, 63
4, 292680, Note_on_c, 0, 50, 0
4, 292680, Note_on_c, 0, 58, 75
4, 292680, Note_on_c, 0, 62, 75
4, 292800, Note_on_c, 0, 62, 0
4, 292800, Note_on_c, 0, 58, 0
4, 292800, Note_on_c, 0, 54, 55
4, 292919, Note_on_c, 0, 54, 0
4, 292919, Note_on_c, 0, 55, 61
4, 293040, Note_on_c, 0, 55, 0
4, 293040, Note_on_c, 0, 43, 0
4, 293040, Note_on_c, 0, 31, 0
4, 293040, Note_on_c, 0, 34, 60
4, 293040, Note_on_c, 0, 46, 60
4, 293160, Note_on_c, 0, 54, 56
4, 293279, Note_on_c, 0, 54, 0
4, 293279, Note_on_c, 0, 55, 58
4, 293400, Note_on_c, 0, 55, 0
4, 293400, Note_on_c, 0, 62, 76
4, 293400, Note_on_c, 0, 67, 76
4, 293520, Note_on_c, 0, 67, 0
4, 293520, Note_on_c, 0, 62, 0
4, 293520, Note_on_c, 0, 54, 49
4, 293639, Note_on_c, 0, 54, 0
4, 293639, Note_on_c, 0, 55, 64
4, 293760, Note_on_c, 0, 55, 0
4, 293760, Note_on_c, 0, 46, 0
4, 293760, Note_on_c, 0, 34, 0
4, 293760, Note_on_c, 0, 36, 57
4, 293760, Note_on_c, 0, 43, 57
4, 293880, Note_on_c, 0, 51, 54
4, 293999, Note_on_c, 0, 51, 0
4, 293999, Note_on_c, 0, 52, 61
4, 294120, Note_on_c, 0, 52, 0
4, 294120, Note_on_c, 0, 58, 79
4, 294120, Note_on_c, 0, 62, 79
4, 294240, Note_on_c, 0, 62, 0
4, 294240, Note_on_c, 0, 58, 0
4, 294240, Note_on_c, 0, 54, 57
4, 294359, Note_on_c, 0, 54, 0
4, 294359, Note_on_c, 0, 55, 64
4, 294480, Note_on_c, 0, 55, 0
4, 294480, Note_on_c, 0, 43, 0
4, 294480, Note_on_c, 0, 36, 0
4, 294480, Note_on_c, 0, 48, 63
4, 294600, Note_on_c, 0, 51, 53
4, 294719, Note_on_c, 0, 51, 0
4, 294719, Note_on_c, 0, 52, 60
4, 294840, Note_on_c, 0, 52, 0
4, 294840, Note_on_c, 0, 58, 74
4, 294840, Note_on_c, 0, 60, 74
4, 294960, Note_on_c, 0, 60, 0
4, 294960, Note_on_c, 0, 58, 0
4, 294960, Note_on_c, 0, 51, 51
4, 295079, Note_on_c, 0, 51, 0
4, 295079, Note_on_c, 0, 52, 60
4, 295200, Note_on_c, 0, 52, 0
4, 295200, Note_on_c, 0, 48, 0
4, 295200, Note_on_c, 0, 37, 54
4, 295320, Note_on_c, 0, 52, 54
4, 295439, Note_on_c, 0, 52, 0
4, 295439, Note_on_c, 0, 53, 58
4, 295560, Note_on_c, 0, 53, 0
4, 295560, Note_on_c, 0, 58, 72
4, 295560, Note_on_c, 0, 65, 72
4, 295680, Note_on_c, 0, 65, 0
4, 295680, Note_on_c, 0, 58, 0
4, 295680, Note_on_c, 0, 52, 54
4, 295799, Note_on_c, 0, 52, 0
4, 295799, Note_on_c, 0, 53, 60
4, 295920, Note_on_c, 0, 53, 0
4, 295920, Note_on_c, 0, 37, 0
4, 295920, Note_on_c, 0, 43, 67
4, 296040, Note_on_c, 0, 52, 54
4, 296159, Note_on_c, 0, 52, 0
4, 296159, Note_on_c, 0, 53, 62
4, 296280, Note_on_c, 0, 53, 0
4, 296280, Note_on_c, 0, 58, 76
4, 296280, Note_on_c, 0, 65, 76
4, 296400, Note_on_c, 0, 65, 0
4, 296400, Note_on_c, 0, 58, 0
4, 296400, Note_on_c, 0, 52, 59
4, 296519, Note_on_c, 0, 52, 0
4, 296519, Note_on_c, 0, 53, 61
4, 296640, Note_on_c, 0, 53, 0
4, 296640, Note_on_c, 0, 43, 0
4, 296640, Note_on_c, 0, 36, 64
4, 296640, Note_on_c, 0, 43, 64
4, 296760, Note_on_c, 0, 51, 57
4, 296879, Note_on_c, 0, 51, 0
4, 296879, Note_on_c, 0, 52, 60
4, 297000, Note_on_c, 0, 52, 0
4, 297000, Note_on_c, 0, 58, 85
4, 297000, Note_on_c, 0, 64, 85
4, 297120, Note_on_c, 0, 64, 0
4, 297120, Note_on_c, 0, 58, 0
4, 297120, Note_on_c, 0, 51, 55
4, 297239, Note_on_c, 0, 51, 0
4, 297239, Note_on_c, 0, 52, 61
4, 297360, Note_on_c, 0, 52, 0
4, 297360, Note_on_c, 0, 43, 0
4, 297360, Note_on_c, 0, 36, 0
4, 297360, Note_on_c, 0, 55, 70
4, 297480, Note_on_c, 0, 63, 54
4, 297599, Note_on_c, 0, 63, 0
4, 297599, Note_on_c, 0, 64, 64
4, 297720, Note_on_c, 0, 64, 0
4, 297720, Note_on_c, 0, 70, 74
4, 297720, Note_on_c, 0, 76, 74
4, 297840, Note_on_c, 0, 76, 0
4, 297840, Note_on_c, 0, 70, 0
4, 297840, Note_on_c, 0, 63, 50
4, 297959, Note_on_c, 0, 63, 0
4, 297959, Note_on_c, 0, 64, 59
4, 298080, Note_on_c, 0, 64, 0
4, 298080, Note_on_c, 0, 55, 0
4, 298080, Note_on_c, 0, 37, 57
4, 298200, Note_on_c, 0, 52, 52
4, 298319, Note_on_c, 0, 52, 0
4, 298319, Note_on_c, 0, 53, 67
4, 298440, Note_on_c, 0, 53, 0
4, 298440, Note_on_c, 0, 58, 74
4, 298440, Note_on_c, 0, 65, 74
4, 298560, Note_on_c, 0, 65, 0
4, 298560, Note_on_c, 0, 58, 0
4, 298560, Note_on_c, 0, 52, 53
4, 298679, Note_on_c, 0, 52, 0
4, 298679, Note_on_c, 0, 53, 61
4, 298800, Note_on_c, 0, 53, 0
4, 298800, Note_on_c, 0, 37, 0
4, 298800, Note_on_c, 0, 43, 63
4, 298920, Note_on_c, 0, 52, 53
4, 299039, Note_on_c, 0, 52, 0
4, 299039, Note_on_c, 0, 53, 55
4, 299160, Note_on_c, 0, 53, 0
4, 299160, Note_on_c, 0, 58, 75
4, 299160, Note_on_c, 0, 65, 75
4, 299280, Note_on_c, 0, 65, 0
4, 299280, Note_on_c, 0, 58, 0
4, 299280, Note_on_c, 0, 52, 54
4, 299399, Note_on_c, 0, 52, 0
4, 299399, Note_on_c, 0, 53, 57
4, 299520, Note_on_c, 0, 53, 0
4, 299520, Note_on_c, 0, 43, 0
4, 299520, Note_on_c, 0, 36, 62
4, 299520, Note_on_c, 0, 43, 62
4, 299640, Note_on_c, 0, 51, 56
4, 299759, Note_on_c, 0, 51, 0
4, 299759, Note_on_c, 0, 52, 60
4, 299880, Note_on_c, 0, 52, 0
4, 299880, Note_on_c, 0, 58, 74
4, 299880, Note_on_c, 0, 64, 74
4, 300000, Note_on_c, 0, 64, 0
4, 300000, Note_on_c, 0, 58, 0
4, 300000, Note_on_c, 0, 51, 55
4, 300119, Note_on_c, 0, 51, 0
4, 300119, Note_on_c, 0, 52, 62
4, 300240, Note_on_c, 0, 52, 0
4, 300240, Note_on_c, 0, 43, 0
4, 300240, Note_on_c, 0, 36, 0
4, 300240, Note_on_c, 0, 55, 70
4, 300360, Note_on_c, 0, 63, 57
4, 300479, Note_on_c, 0, 63, 0
4, 300479, Note_on_c, 0, 64, 64
4, 300600, Note_on_c, 0, 64, 0
4, 300600, Note_on_c, 0, 70, 80
4, 300600, Note_on_c, 0, 76, 80
4, 300720, Note_on_c, 0, 76, 0
4, 300720, Note_on_c, 0, 70, 0
4, 300720, Note_on_c, 0, 63, 45
4, 300839, Note_on_c, 0, 63, 0
4, 300839, Note_on_c, 0, 64, 57
4, 300960, Note_on_c, 0, 64, 0
4, 300960, Note_on_c, 0, 55, 0
4, 300960, Note_on_c, 0, 39, 51
4, 301080, Note_on_c, 0, 54, 53
4, 301199, Note_on_c, 0, 54, 0
4, 301199, Note_on_c, 0, 55, 60
4, 301320, Note_on_c, 0, 55, 0
4, 301320, Note_on_c, 0, 60, 82
4, 301320, Note_on_c, 0, 67, 82
4, 301440, Note_on_c, 0, 67, 0
4, 301440, Note_on_c, 0, 60, 0
4, 301440, Note_on_c, 0, 54, 51
4, 301559, Note_on_c, 0, 54, 0
4, 301559, Note_on_c, 0, 55, 65
4, 301680, Note_on_c, 0, 55, 0
4, 301680, Note_on_c, 0, 39, 0
4, 301680, Note_on_c, 0, 45, 65
4, 301800, Note_on_c, 0, 54, 55
4, 301919, Note_on_c, 0, 54, 0
4, 301919, Note_on_c, 0, 55, 58
4, 302040, Note_on_c, 0, 55, 0
4, 302040, Note_on_c, 0, 60, 75
4, 302040, Note_on_c, 0, 67, 75
4, 302160, Note_on_c, 0, 67, 0
4, 302160, Note_on_c, 0, 60, 0
4, 302160, Note_on_c, 0, 54, 58
4, 302279, Note_on_c, 0, 54, 0
4, 302279, Note_on_c, 0, 55, 60
4, 302400, Note_on_c, 0, 55, 0
4, 302400, Note_on_c, 0, 45, 0
4, 302400, Note_on_c, 0, 38, 60
4, 302400, Note_on_c, 0, 45, 60
4, 302520, Note_on_c, 0, 53, 61
4, 302639, Note_on_c, 0, 53, 0
4, 302639, Note_on_c, 0, 54, 61
4, 302760, Note_on_c, 0, 54, 0
4, 302760, Note_on_c, 0, 60, 61
4, 302760, Note_on_c, 0, 66, 61
4, 302880, Note_on_c, 0, 66, 0
4, 302880, Note_on_c, 0, 60, 0
4, 302880, Note_on_c, 0, 53, 61
4, 302999, Note_on_c, 0, 53, 0
4, 302999, Note_on_c, 0, 54, 62
4, 303120, Note_on_c, 0, 54, 0
4, 303120, Note_on_c, 0, 45, 0
4, 303120, Note_on_c, 0, 38, 0
4, 303120, Note_on_c, 0, 57, 62
4, 303240, Note_on_c, 0, 65, 62
4, 303359, Note_on_c, 0, 65, 0
4, 303359, Note_on_c, 0, 66, 62
4, 303480, Note_on_c, 0, 66, 0
4, 303480, Note_on_c, 0, 72, 62
4, 303480, Note_on_c, 0, 78, 62
4, 303600, Note_on_c, 0, 78, 0
4, 303600, Note_on_c, 0, 72, 0
4, 303600, Note_on_c, 0, 65, 63
4, 303719, Note_on_c, 0, 65, 0
4, 303719, Note_on_c, 0, 66, 63
4, 303840, Note_on_c, 0, 66, 0
4, 303840, Note_on_c, 0, 57, 0
4, 303840, Note_on_c, 0, 41, 63
4, 303960, Note_on_c, 0, 56, 63
4, 304079, Note_on_c, 0, 56, 0
4, 304079, Note_on_c, 0, 57, 63
4, 304200, Note_on_c, 0, 57, 0
4, 304200, Note_on_c, 0, 62, 64
4, 304200, Note_on_c, 0, 69, 64
4, 304320, Note_on_c, 0, 69, 0
4, 304320, Note_on_c, 0, 62, 0
4, 304320, Note_on_c, 0, 56, 64
4, 304439, Note_on_c, 0, 56, 0
4, 304439, Note_on_c, 0, 57, 64
4, 304560, Note_on_c, 0, 57, 0
4, 304560, Note_on_c, 0, 41, 0
4, 304560, Note_on_c, 0, 47, 64
4, 304680, Note_on_c, 0, 56, 64
4, 304799, Note_on_c, 0, 56, 0
4, 304799, Note_on_c, 0, 57, 65
4, 304920, Note_on_c, 0, 57, 0
4, 304920, Note_on_c, 0, 62, 65
4, 304920, Note_on_c, 0, 69, 65
4, 305040, Note_on_c, 0, 69, 0
4, 305040, Note_on_c, 0, 62, 0
4, 305040, Note_on_c, 0, 56, 65
4, 305159, Note_on_c, 0, 56, 0
4, 305159, Note_on_c, 0, 57, 65
4, 305280, Note_on_c, 0, 57, 0
4, 305280, Note_on_c, 0, 47, 0
4, 305280, Note_on_c, 0, 40, 66
4, 305280, Note_on_c, 0, 47, 66
4, 305400, Note_on_c, 0, 55, 66
4, 305519, Note_on_c, 0, 55, 0
4, 305519, Note_on_c, 0, 56, 66
4, 305640, Note_on_c, 0, 56, 0
4, 305640, Note_on_c, 0, 62, 66
4, 305640, Note_on_c, 0, 68, 66
4, 305760, Note_on_c, 0, 68, 0
4, 305760, Note_on_c, 0, 62, 0
4, 305760, Note_on_c, 0, 55, 66
4, 305879, Note_on_c, 0, 55, 0
4, 305879, Note_on_c, 0, 56, 67
4, 306000, Note_on_c, 0, 56, 0
4, 306000, Note_on_c, 0, 47, 0
4, 306000, Note_on_c, 0, 40, 0
4, 306000, Note_on_c, 0, 53, 67
4, 306120, Note_on_c, 0, 56, 67
4, 306239, Note_on_c, 0, 56, 0
4, 306239, Note_on_c, 0, 57, 67
4, 306360, Note_on_c, 0, 57, 0
4, 306360, Note_on_c, 0, 62, 67
4, 306360, Note_on_c, 0, 69, 67
4, 306480, Note_on_c, 0, 69, 0
4, 306480, Note_on_c, 0, 62, 0
4, 306480, Note_on_c, 0, 56, 68
4, 306599, Note_on_c, 0, 56, 0
4, 306599, Note_on_c, 0, 57, 68
4, 306720, Note_on_c, 0, 57, 0
4, 306720, Note_on_c, 0, 53, 0
4, 306720, Note_on_c, 0, 40, 68
4, 306720, Note_on_c, 0, 47, 68
4, 306840, Note_on_c, 0, 55, 68
4, 306959, Note_on_c, 0, 55, 0
4, 306959, Note_on_c, 0, 56, 69
4, 307080, Note_on_c, 0, 56, 0
4, 307080, Note_on_c, 0, 62, 69
4, 307080, Note_on_c, 0, 68, 69
4, 307200, Note_on_c, 0, 68, 0
4, 307200, Note_on_c, 0, 62, 0
4, 307200, Note_on_c, 0, 55, 69
4, 307319, Note_on_c, 0, 55, 0
4, 307319, Note_on_c, 0, 56, 69
4, 307440, Note_on_c, 0, 56, 0
4, 307440, Note_on_c, 0, 47, 0
4, 307440, Note_on_c, 0, 40, 0
4, 307440, Note_on_c, 0, 53, 69
4, 307560, Note_on_c, 0, 56, 70
4, 307679, Note_on_c, 0, 56, 0
4, 307679, Note_on_c, 0, 57, 70
4, 307800, Note_on_c, 0, 57, 0
4, 307800, Note_on_c, 0, 62, 70
4, 307800, Note_on_c, 0, 69, 70
4, 307920, Note_on_c, 0, 69, 0
4, 307920, Note_on_c, 0, 62, 0
4, 307920, Note_on_c, 0, 56, 70
4, 308039, Note_on_c, 0, 56, 0
4, 308039, Note_on_c, 0, 57, 70
4, 308160, Note_on_c, 0, 57, 0
4, 308160, Note_on_c, 0, 53, 0
4, 308160, Note_on_c, 0, 40, 71
4, 308160, Note_on_c, 0, 47, 71
4, 308280, Note_on_c, 0, 55, 71
4, 308399, Note_on_c, 0, 55, 0
4, 308399, Note_on_c, 0, 56, 71
4, 308520, Note_on_c, 0, 56, 0
4, 308520, Note_on_c, 0, 62, 71
4, 308520, Note_on_c, 0, 68, 71
4, 308640, Note_on_c, 0, 68, 0
4, 308640, Note_on_c, 0, 62, 0
4, 308640, Note_on_c, 0, 55, 71
4, 308759, Note_on_c, 0, 55, 0
4, 308759, Note_on_c, 0, 56, 72
4, 308880, Note_on_c, 0, 56, 0
4, 308880, Note_on_c, 0, 47, 0
4, 308880, Note_on_c, 0, 40, 0
4, 308880, Note_on_c, 0, 36, 72
4, 308880, Note_on_c, 0, 48, 72
4, 309000, Note_on_c, 0, 54, 72
4, 309119, Note_on_c, 0, 54, 0
4, 309119, Note_on_c, 0, 55, 72
4, 309240, Note_on_c, 0, 55, 0
4, 309240, Note_on_c, 0, 64, 73
4, 309240, Note_on_c, 0, 67, 73
4, 309360, Note_on_c, 0, 67, 0
4, 309360, Note_on_c, 0, 64, 0
4, 309360, Note_on_c, 0, 57, 73
4, 309479, Note_on_c, 0, 57, 0
4, 309479, Note_on_c, 0, 58, 73
4, 309600, Note_on_c, 0, 58, 0
4, 309600, Note_on_c, 0, 48, 0
4, 309600, Note_on_c, 0, 36, 0
4, 309600, Note_on_c, 0, 41, 73
4, 309600, Note_on_c, 0, 53, 73
4, 309720, Note_on_c, 0, 59, 65
4, 309839, Note_on_c, 0, 59, 0
4, 309839, Note_on_c, 0, 60, 77
4, 309960, Note_on_c, 0, 60, 0
4, 309960, Note_on_c, 0, 69, 91
4, 309960, Note_on_c, 0, 72, 91
4, 310080, Note_on_c, 0, 72, 0
4, 310080, Note_on_c, 0, 69, 0
4, 310080, Note_on_c, 0, 64, 57
4, 310199, Note_on_c, 0, 64, 0
4, 310199, Note_on_c, 0, 65, 72
4, 310320, Note_on_c, 0, 65, 0
4, 310320, Note_on_c, 0, 53, 0
4, 310320, Note_on_c, 0, 41, 0
4, 310320, Note_on_c, 0, 53, 68
4, 310440, Note_on_c, 0, 60, 67
4, 310559, Note_on_c, 0, 60, 0
4, 310559, Note_on_c, 0, 61, 74
4, 310680, Note_on_c, 0, 61, 0
4, 310680, Note_on_c, 0, 69, 95
4, 310680, Note_on_c, 0, 73, 95
4, 310800, Note_on_c, 0, 73, 0
4, 310800, Note_on_c, 0, 69, 0
4, 310800, Note_on_c, 0, 64, 61
4, 310919, Note_on_c, 0, 64, 0
4, 310919, Note_on_c, 0, 65, 79
4, 311040, Note_on_c, 0, 65, 0
4, 311040, Note_on_c, 0, 53, 0
4, 311040, Note_on_c, 0, 41, 74
4, 311040, Note_on_c, 0, 53, 74
4, 311160, Note_on_c, 0, 61, 61
4, 311279, Note_on_c, 0, 61, 0
4, 311279, Note_on_c, 0, 62, 73
4, 311400, Note_on_c, 0, 62, 0
4, 311400, Note_on_c, 0, 69, 94
4, 311400, Note_on_c, 0, 74, 94
4, 311520, Note_on_c, 0, 74, 0
4, 311520, Note_on_c, 0, 69, 0
4, 311520, Note_on_c, 0, 64, 55
4, 311639, Note_on_c, 0, 64, 0
4, 311639, Note_on_c, 0, 65, 75
4, 311760, Note_on_c, 0, 65, 0
4, 311760, Note_on_c, 0, 53, 0
4, 311760, Note_on_c, 0, 41, 0
4, 311760, Note_on_c, 0, 42, 71
4, 311760, Note_on_c, 0, 54, 71
4, 311880, Note_on_c, 0, 62, 61
4, 311999, Note_on_c, 0, 62, 0
4, 311999, Note_on_c, 0, 63, 74
4, 312120, Note_on_c, 0, 63, 0
4, 312120, Note_on_c, 0, 72, 95
4, 312120, Note_on_c, 0, 75, 95
4, 312240, Note_on_c, 0, 75, 0
4, 312240, Note_on_c, 0, 72, 0
4, 312240, Note_on_c, 0, 68, 65
4, 312359, Note_on_c, 0, 68, 0
4, 312359, Note_on_c, 0, 69, 75
4, 312480, Note_on_c, 0, 69, 0
4, 312480, Note_on_c, 0, 54, 0
4, 312480, Note_on_c, 0, 42, 0
4, 312480, Note_on_c, 0, 43, 77
4, 312480, Note_on_c, 0, 55, 77
4, 312600, Note_on_c, 0, 61, 67
4, 312719, Note_on_c, 0, 61, 0
4, 312719, Note_on_c, 0, 62, 74
4, 312840, Note_on_c, 0, 62, 0
4, 312840, Note_on_c, 0, 70, 95
4, 312840, Note_on_c, 0, 74, 95
4, 312960, Note_on_c, 0, 74, 0
4, 312960, Note_on_c, 0, 70, 0
4, 312960, Note_on_c, 0, 66, 65
4, 313079, Note_on_c, 0, 66, 0
4, 313079, Note_on_c, 0, 67, 71
4, 313200, Note_on_c, 0, 67, 0
4, 313200, Note_on_c, 0, 55, 0
4, 313200, Note_on_c, 0, 43, 0
4, 313200, Note_on_c, 0, 34, 62
4, 313200, Note_on_c, 0, 46, 62
4, 313320, Note_on_c, 0, 54, 62
4, 313439, Note_on_c, 0, 54, 0
4, 313439, Note_on_c, 0, 55, 71
4, 313560, Note_on_c, 0, 55, 0
4, 313560, Note_on_c, 0, 62, 91
4, 313560, Note_on_c, 0, 67, 91
4, 313680, Note_on_c, 0, 67, 0
4, 313680, Note_on_c, 0, 62, 0
4, 313680, Note_on_c, 0, 57, 72
4, 313799, Note_on_c, 0, 57, 0
4, 313799, Note_on_c, 0, 58, 76
4, 313920, Note_on_c, 0, 58, 0
4, 313920, Note_on_c, 0, 46, 0
4, 313920, Note_on_c, 0, 34, 0
4, 313920, Note_on_c, 0, 37, 75
4, 313920, Note_on_c, 0, 49, 75
4, 314040, Note_on_c, 0, 56, 68
4, 314159, Note_on_c, 0, 56, 0
4, 314159, Note_on_c, 0, 57, 79
4, 314280, Note_on_c, 0, 57, 0
4, 314280, Note_on_c, 0, 64, 98
4, 314280, Note_on_c, 0, 69, 98
4, 314400, Note_on_c, 0, 69, 0
4, 314400, Note_on_c, 0, 64, 0
4, 314400, Note_on_c, 0, 56, 66
4, 314519, Note_on_c, 0, 56, 0
4, 314519, Note_on_c, 0, 57, 76
4, 314640, Note_on_c, 0, 57, 0
4, 314640, Note_on_c, 0, 49, 0
4, 314640, Note_on_c, 0, 37, 0
4, 314640, Note_on_c, 0, 36, 75
4, 314640, Note_on_c, 0, 48, 75
4, 314760, Note_on_c, 0, 59, 70
4, 314879, Note_on_c, 0, 59, 0
4, 314879, Note_on_c, 0, 60, 79
4, 315000, Note_on_c, 0, 60, 0
4, 315000, Note_on_c, 0, 70, 90
4, 315000, Note_on_c, 0, 72, 90
4, 315120, Note_on_c, 0, 72, 0
4, 315120, Note_on_c, 0, 70, 0
4, 315120, Note_on_c, 0, 63, 61
4, 315239, Note_on_c, 0, 63, 0
4, 315239, Note_on_c, 0, 64, 75
4, 315360, Note_on_c, 0, 64, 0
4, 315360, Note_on_c, 0, 48, 0
4, 315360, Note_on_c, 0, 36, 0
4, 315360, Note_on_c, 0, 41, 76
4, 315360, Note_on_c, 0, 53, 76
4, 315480, Note_on_c, 0, 59, 65
4, 315599, Note_on_c, 0, 59, 0
4, 315599, Note_on_c, 0, 60, 78
4, 315720, Note_on_c, 0, 60, 0
4, 315720, Note_on_c, 0, 69, 96
4, 315720, Note_on_c, 0, 72, 96
4, 315840, Note_on_c, 0, 72, 0
4, 315840, Note_on_c, 0, 69, 0
4, 315840, Note_on_c, 0, 64, 61
4, 315959, Note_on_c, 0, 64, 0
4, 315959, Note_on_c, 0, 65, 80
4, 316080, Note_on_c, 0, 65, 0
4, 316080, Note_on_c, 0, 53, 0
4, 316080, Note_on_c, 0, 41, 0
4, 316080, Note_on_c, 0, 53, 77
4, 316200, Note_on_c, 0, 60, 61
4, 316319, Note_on_c, 0, 60, 0
4, 316319, Note_on_c, 0, 61, 71
4, 316440, Note_on_c, 0, 61, 0
4, 316440, Note_on_c, 0, 69, 90
4, 316440, Note_on_c, 0, 73, 90
4, 316560, Note_on_c, 0, 73, 0
4, 316560, Note_on_c, 0, 69, 0
4, 316560, Note_on_c, 0, 64, 59
4, 316679, Note_on_c, 0, 64, 0
4, 316679, Note_on_c, 0, 65, 75
4, 316800, Note_on_c, 0, 65, 0
4, 316800, Note_on_c, 0, 53, 0
4, 316800, Note_on_c, 0, 41, 71
4, 316800, Note_on_c, 0, 53, 71
4, 316920, Note_on_c, 0, 61, 63
4, 317039, Note_on_c, 0, 61, 0
4, 317039, Note_on_c, 0, 62, 75
4, 317160, Note_on_c, 0, 62, 0
4, 317160, Note_on_c, 0, 69, 94
4, 317160, Note_on_c, 0, 74, 94
4, 317280, Note_on_c, 0, 74, 0
4, 317280, Note_on_c, 0, 69, 0
4, 317280, Note_on_c, 0, 64, 57
4, 317399, Note_on_c, 0, 64, 0
4, 317399, Note_on_c, 0, 65, 81
4, 317520, Note_on_c, 0, 65, 0
4, 317520, Note_on_c, 0, 53, 0
4, 317520, Note_on_c, 0, 41, 0
4, 317520, Note_on_c, 0, 42, 73
4, 317520, Note_on_c, 0, 54, 73
4, 317640, Note_on_c, 0, 61, 61
4, 317759, Note_on_c, 0, 61, 0
4, 317759, Note_on_c, 0, 62, 76
4, 317880, Note_on_c, 0, 62, 0
4, 317880, Note_on_c, 0, 72, 94
4, 317880, Note_on_c, 0, 74, 94
4, 318000, Note_on_c, 0, 74, 0
4, 318000, Note_on_c, 0, 72, 0
4, 318000, Note_on_c, 0, 68, 64
4, 318119, Note_on_c, 0, 68, 0
4, 318119, Note_on_c, 0, 69, 72
4, 318240, Note_on_c, 0, 69, 0
4, 318240, Note_on_c, 0, 54, 0
4, 318240, Note_on_c, 0, 42, 0
4, 318240, Note_on_c, 0, 82, 126
4, 318240, Note_on_c, 0, 31, 84
4, 318240, Note_on_c, 0, 43, 84
4, 318299, Note_on_c, 0, 82, 0
4, 318299, Note_on_c, 0, 86, 116
4, 318360, Note_on_c, 0, 86, 0
4, 318360, Note_on_c, 0, 81, 83
4, 318420, Note_on_c, 0, 81, 0
4, 318420, Note_on_c, 0, 43, 0
4, 318420, Note_on_c, 0, 31, 0
4, 318420, Note_on_c, 0, 79, 90
4, 318420, Note_on_c, 0, 50, 105
4, 318420, Note_on_c, 0, 55, 105
4, 318420, Note_on_c, 0, 58, 105
4, 318479, Note_on_c, 0, 79, 0
4, 318479, Note_on_c, 0, 82, 104
4, 318540, Note_on_c, 0, 82, 0
4, 318540, Note_on_c, 0, 77, 88
4, 318600, Note_on_c, 0, 77, 0
4, 318600, Note_on_c, 0, 75, 88
4, 318659, Note_on_c, 0, 75, 0
4, 318659, Note_on_c, 0, 79, 105
4, 318720, Note_on_c, 0, 79, 0
4, 318720, Note_on_c, 0, 74, 84
4, 318780, Note_on_c, 0, 74, 0
4, 318780, Note_on_c, 0, 58, 0
4, 318780, Note_on_c, 0, 55, 0
4, 318780, Note_on_c, 0, 50, 0
4, 318780, Note_on_c, 0, 72, 91
4, 318780, Note_on_c, 0, 50, 111
4, 318780, Note_on_c, 0, 55, 111
4, 318780, Note_on_c, 0, 62, 111
4, 318839, Note_on_c, 0, 72, 0
4, 318839, Note_on_c, 0, 75, 103
4, 318900, Note_on_c, 0, 75, 0
4, 318900, Note_on_c, 0, 70, 82
4, 318960, Note_on_c, 0, 70, 0
4, 318960, Note_on_c, 0, 50, 0
4, 318960, Note_on_c, 0, 55, 0
4, 318960, Note_on_c, 0, 62, 0
4, 318960, Note_on_c, 0, 69, 95
4, 318960, Note_on_c, 0, 38, 81
4, 318960, Note_on_c, 0, 50, 81
4, 319019, Note_on_c, 0, 69, 0
4, 319019, Note_on_c, 0, 72, 106
4, 319080, Note_on_c, 0, 72, 0
4, 319080, Note_on_c, 0, 67, 84
4, 319140, Note_on_c, 0, 67, 0
4, 319140, Note_on_c, 0, 50, 0
4, 319140, Note_on_c, 0, 38, 0
4, 319140, Note_on_c, 0, 66, 95
4, 319140, Note_on_c, 0, 60, 117
4, 319199, Note_on_c, 0, 66, 0
4, 319199, Note_on_c, 0, 69, 105
4, 319260, Note_on_c, 0, 69, 0
4, 319260, Note_on_c, 0, 63, 80
4, 319320, Note_on_c, 0, 63, 0
4, 319320, Note_on_c, 0, 62, 90
4, 319379, Note_on_c, 0, 62, 0
4, 319379, Note_on_c, 0, 66, 110
4, 319440, Note_on_c, 0, 66, 0
4, 319440, Note_on_c, 0, 60, 84
4, 319500, Note_on_c, 0, 60, 0
4, 319500, Note_on_c, 0, 60, 0
4, 319500, Note_on_c, 0, 58, 92
4, 319500, Note_on_c, 0, 50, 87
4, 319559, Note_on_c, 0, 58, 0
4, 319559, Note_on_c, 0, 62, 105
4, 319620, Note_on_c, 0, 62, 0
4, 319620, Note_on_c, 0, 57, 95
4, 319680, Note_on_c, 0, 57, 0
4, 319680, Note_on_c, 0, 50, 0
4, 319680, Note_on_c, 0, 82, 126
4, 319680, Note_on_c, 0, 31, 92
4, 319680, Note_on_c, 0, 43, 92
4, 319739, Note_on_c, 0, 82, 0
4, 319739, Note_on_c, 0, 86, 111
4, 319800, Note_on_c, 0, 86, 0
4, 319800, Note_on_c, 0, 81, 87
4, 319860, Note_on_c, 0, 81, 0
4, 319860, Note_on_c, 0, 43, 0
4, 319860, Note_on_c, 0, 31, 0
4, 319860, Note_on_c, 0, 79, 88
4, 319860, Note_on_c, 0, 50, 104
4, 319860, Note_on_c, 0, 55, 104
4, 319860, Note_on_c, 0, 58, 104
4, 319919, Note_on_c, 0, 79, 0
4, 319919, Note_on_c, 0, 82, 104
4, 319980, Note_on_c, 0, 82, 0
4, 319980, Note_on_c, 0, 77, 84
4, 320040, Note_on_c, 0, 77, 0
4, 320040, Note_on_c, 0, 75, 84
4, 320099, Note_on_c, 0, 75, 0
4, 320099, Note_on_c, 0, 79, 106
4, 320160, Note_on_c, 0, 79, 0
4, 320160, Note_on_c, 0, 74, 87
4, 320220, Note_on_c, 0, 74, 0
4, 320220, Note_on_c, 0, 58, 0
4, 320220, Note_on_c, 0, 55, 0
4, 320220, Note_on_c, 0, 50, 0
4, 320220, Note_on_c, 0, 72, 88
4, 320220, Note_on_c, 0, 50, 110
4, 320220, Note_on_c, 0, 55, 110
4, 320220, Note_on_c, 0, 62, 110
4, 320279, Note_on_c, 0, 72, 0
4, 320279, Note_on_c, 0, 75, 105
4, 320340, Note_on_c, 0, 75, 0
4, 320340, Note_on_c, 0, 70, 88
4, 320400, Note_on_c, 0, 70, 0
4, 320400, Note_on_c, 0, 50, 0
4, 320400, Note_on_c, 0, 55, 0
4, 320400, Note_on_c, 0, 62, 0
4, 320400, Note_on_c, 0, 71, 100
4, 320400, Note_on_c, 0, 40, 85
4, 320400, Note_on_c, 0, 52, 85
4, 320459, Note_on_c, 0, 71, 0
4, 320459, Note_on_c, 0, 74, 107
4, 320520, Note_on_c, 0, 74, 0
4, 320520, Note_on_c, 0, 69, 86
4, 320580, Note_on_c, 0, 69, 0
4, 320580, Note_on_c, 0, 52, 0
4, 320580, Note_on_c, 0, 40, 0
4, 320580, Note_on_c, 0, 68, 86
4, 320580, Note_on_c, 0, 62, 118
4, 320639, Note_on_c, 0, 68, 0
4, 320639, Note_on_c, 0, 71, 105
4, 320700, Note_on_c, 0, 71, 0
4, 320700, Note_on_c, 0, 65, 84
4, 320760, Note_on_c, 0, 65, 0
4, 320760, Note_on_c, 0, 64, 90
4, 320819, Note_on_c, 0, 64, 0
4, 320819, Note_on_c, 0, 68, 107
4, 320880, Note_on_c, 0, 68, 0
4, 320880, Note_on_c, 0, 62, 82
4, 320940, Note_on_c, 0, 62, 0
4, 320940, Note_on_c, 0, 62, 0
4, 320940, Note_on_c, 0, 60, 84
4, 320940, Note_on_c, 0, 52, 89
4, 320999, Note_on_c, 0, 60, 0
4, 320999, Note_on_c, 0, 64, 111
4, 321060, Note_on_c, 0, 64, 0
4, 321060, Note_on_c, 0, 59, 96
4, 321120, Note_on_c, 0, 59, 0
4, 321120, Note_on_c, 0, 52, 0
4, 321120, Note_on_c, 0, 84, 122
4, 321120, Note_on_c, 0, 33, 86
4, 321120, Note_on_c, 0, 45, 86
4, 321179, Note_on_c, 0, 84, 0
4, 321179, Note_on_c, 0, 88, 112
4, 321240, Note_on_c, 0, 88, 0
4, 321240, Note_on_c, 0, 83, 87
4, 321300, Note_on_c, 0, 83, 0
4, 321300, Note_on_c, 0, 45, 0
4, 321300, Note_on_c, 0, 33, 0
4, 321300, Note_on_c, 0, 81, 88
4, 321300, Note_on_c, 0, 52, 123
4, 321300, Note_on_c, 0, 57, 123
4, 321300, Note_on_c, 0, 60, 123
4, 321359, Note_on_c, 0, 81, 0
4, 321359, Note_on_c, 0, 84, 102
4, 321420, Note_on_c, 0, 84, 0
4, 321420, Note_on_c, 0, 79, 86
4, 321480, Note_on_c, 0, 79, 0
4, 321480, Note_on_c, 0, 77, 90
4, 321539, Note_on_c, 0, 77, 0
4, 321539, Note_on_c, 0, 81, 104
4, 321600, Note_on_c, 0, 81, 0
4, 321600, Note_on_c, 0, 76, 91
4, 321660, Note_on_c, 0, 76, 0
4, 321660, Note_on_c, 0, 60, 0
4, 321660, Note_on_c, 0, 57, 0
4, 321660, Note_on_c, 0, 52, 0
4, 321660, Note_on_c, 0, 74, 90
4, 321660, Note_on_c, 0, 52, 106
4, 321660, Note_on_c, 0, 57, 106
4, 321660, Note_on_c, 0, 60, 106
4, 321719, Note_on_c, 0, 74, 0
4, 321719, Note_on_c, 0, 77, 105
4, 321780, Note_on_c, 0, 77, 0
4, 321780, Note_on_c, 0, 72, 90
4, 321840, Note_on_c, 0, 72, 0
4, 321840, Note_on_c, 0, 52, 0
4, 321840, Note_on_c, 0, 57, 0
4, 321840, Note_on_c, 0, 60, 0
4, 321840, Note_on_c, 0, 71, 87
4, 321840, Note_on_c, 0, 40, 88
4, 321840, Note_on_c, 0, 52, 88
4, 321899, Note_on_c, 0, 71, 0
4, 321899, Note_on_c, 0, 74, 106
4, 321960, Note_on_c, 0, 74, 0
4, 321960, Note_on_c, 0, 69, 84
4, 322020, Note_on_c, 0, 69, 0
4, 322020, Note_on_c, 0, 52, 0
4, 322020, Note_on_c, 0, 40, 0
4, 322020, Note_on_c, 0, 68, 89
4, 322020, Note_on_c, 0, 62, 116
4, 322079, Note_on_c, 0, 68, 0
4, 322079, Note_on_c, 0, 71, 102
4, 322140, Note_on_c, 0, 71, 0
4, 322140, Note_on_c, 0, 65, 80
4, 322200, Note_on_c, 0, 65, 0
4, 322200, Note_on_c, 0, 65, 98
4, 322259, Note_on_c, 0, 65, 0
4, 322259, Note_on_c, 0, 68, 105
4, 322320, Note_on_c, 0, 68, 0
4, 322320, Note_on_c, 0, 62, 83
4, 322380, Note_on_c, 0, 62, 0
4, 322380, Note_on_c, 0, 62, 0
4, 322380, Note_on_c, 0, 60, 83
4, 322380, Note_on_c, 0, 52, 88
4, 322439, Note_on_c, 0, 60, 0
4, 322439, Note_on_c, 0, 65, 106
4, 322500, Note_on_c, 0, 65, 0
4, 322500, Note_on_c, 0, 59, 92
4, 322560, Note_on_c, 0, 59, 0
4, 322560, Note_on_c, 0, 52, 0
4, 322560, Note_on_c, 0, 84, 125
4, 322560, Note_on_c, 0, 33, 90
4, 322560, Note_on_c, 0, 45, 90
4, 322619, Note_on_c, 0, 84, 0
4, 322619, Note_on_c, 0, 88, 111
4, 322680, Note_on_c, 0, 88, 0
4, 322680, Note_on_c, 0, 83, 86
4, 322740, Note_on_c, 0, 83, 0
4, 322740, Note_on_c, 0, 45, 0
4, 322740, Note_on_c, 0, 33, 0
4, 322740, Note_on_c, 0, 81, 91
4, 322740, Note_on_c, 0, 52, 124
4, 322740, Note_on_c, 0, 57, 124
4, 322740, Note_on_c, 0, 60, 124
4, 322799, Note_on_c, 0, 81, 0
4, 322799, Note_on_c, 0, 84, 103
4, 322860, Note_on_c, 0, 84, 0
4, 322860, Note_on_c, 0, 79, 88
4, 322920, Note_on_c, 0, 79, 0
4, 322920, Note_on_c, 0, 77, 90
4, 322979, Note_on_c, 0, 77, 0
4, 322979, Note_on_c, 0, 81, 106
4, 323040, Note_on_c, 0, 81, 0
4, 323040, Note_on_c, 0, 76, 89
4, 323100, Note_on_c, 0, 76, 0
4, 323100, Note_on_c, 0, 60, 0
4, 323100, Note_on_c, 0, 57, 0
4, 323100, Note_on_c, 0, 52, 0
4, 323100, Note_on_c, 0, 74, 92
4, 323100, Note_on_c, 0, 52, 100
4, 323100, Note_on_c, 0, 57, 100
4, 323100, Note_on_c, 0, 60, 100
4, 323159, Note_on_c, 0, 74, 0
4, 323159, Note_on_c, 0, 77, 104
4, 323220, Note_on_c, 0, 77, 0
4, 323220, Note_on_c, 0, 72, 86
4, 323280, Note_on_c, 0, 72, 0
4, 323280, Note_on_c, 0, 52, 0
4, 323280, Note_on_c, 0, 57, 0
4, 323280, Note_on_c, 0, 60, 0
4, 323280, Note_on_c, 0, 72, 96
4, 323280, Note_on_c, 0, 41, 94
4, 323280, Note_on_c, 0, 53, 94
4, 323339, Note_on_c, 0, 72, 0
4, 323339, Note_on_c, 0, 75, 107
4, 323400, Note_on_c, 0, 75, 0
4, 323400, Note_on_c, 0, 70, 88
4, 323460, Note_on_c, 0, 70, 0
4, 323460, Note_on_c, 0, 53, 0
4, 323460, Note_on_c, 0, 41, 0
4, 323460, Note_on_c, 0, 69, 89
4, 323460, Note_on_c, 0, 63, 120
4, 323519, Note_on_c, 0, 69, 0
4, 323519, Note_on_c, 0, 72, 106
4, 323580, Note_on_c, 0, 72, 0
4, 323580, Note_on_c, 0, 67, 86
4, 323640, Note_on_c, 0, 67, 0
4, 323640, Note_on_c, 0, 65, 90
4, 323699, Note_on_c, 0, 65, 0
4, 323699, Note_on_c, 0, 69, 107
4, 323760, Note_on_c, 0, 69, 0
4, 323760, Note_on_c, 0, 63, 86
4, 323820, Note_on_c, 0, 63, 0
4, 323820, Note_on_c, 0, 63, 0
4, 323820, Note_on_c, 0, 62, 91
4, 323820, Note_on_c, 0, 53, 89
4, 323879, Note_on_c, 0, 62, 0
4, 323879, Note_on_c, 0, 65, 107
4, 323940, Note_on_c, 0, 65, 0
4, 323940, Note_on_c, 0, 60, 85
4, 324000, Note_on_c, 0, 60, 0
4, 324000, Note_on_c, 0, 53, 0
4, 324000, Note_on_c, 0, 86, 121
4, 324000, Note_on_c, 0, 34, 87
4, 324000, Note_on_c, 0, 46, 87
4, 324059, Note_on_c, 0, 86, 0
4, 324059, Note_on_c, 0, 89, 111
4, 324120, Note_on_c, 0, 89, 0
4, 324120, Note_on_c, 0, 84, 88
4, 324180, Note_on_c, 0, 84, 0
4, 324180, Note_on_c, 0, 46, 0
4, 324180, Note_on_c, 0, 34, 0
4, 324180, Note_on_c, 0, 82, 95
4, 324180, Note_on_c, 0, 53, 123
4, 324180, Note_on_c, 0, 58, 123
4, 324180, Note_on_c, 0, 62, 123
4, 324239, Note_on_c, 0, 82, 0
4, 324239, Note_on_c, 0, 86, 106
4, 324300, Note_on_c, 0, 86, 0
4, 324300, Note_on_c, 0, 81, 89
4, 324360, Note_on_c, 0, 81, 0
4, 324360, Note_on_c, 0, 79, 94
4, 324419, Note_on_c, 0, 79, 0
4, 324419, Note_on_c, 0, 82, 103
4, 324480, Note_on_c, 0, 82, 0
4, 324480, Note_on_c, 0, 77, 84
4, 324540, Note_on_c, 0, 77, 0
4, 324540, Note_on_c, 0, 62, 0
4, 324540, Note_on_c, 0, 58, 0
4, 324540, Note_on_c, 0, 53, 0
4, 324540, Note_on_c, 0, 75, 88
4, 324540, Note_on_c, 0, 53, 102
4, 324540, Note_on_c, 0, 58, 102
4, 324540, Note_on_c, 0, 62, 102
4, 324599, Note_on_c, 0, 75, 0
4, 324599, Note_on_c, 0, 79, 108
4, 324660, Note_on_c, 0, 79, 0
4, 324660, Note_on_c, 0, 74, 85
4, 324720, Note_on_c, 0, 74, 0
4, 324720, Note_on_c, 0, 53, 0
4, 324720, Note_on_c, 0, 58, 0
4, 324720, Note_on_c, 0, 62, 0
4, 324720, Note_on_c, 0, 74, 99
4, 324720, Note_on_c, 0, 43, 92
4, 324720, Note_on_c, 0, 55, 92
4, 324779, Note_on_c, 0, 74, 0
4, 324779, Note_on_c, 0, 77, 110
4, 324840, Note_on_c, 0, 77, 0
4, 324840, Note_on_c, 0, 72, 89
4, 324900, Note_on_c, 0, 72, 0
4, 324900, Note_on_c, 0, 55, 0
4, 324900, Note_on_c, 0, 43, 0
4, 324900, Note_on_c, 0, 71, 90
4, 324900, Note_on_c, 0, 65, 119
4, 324959, Note_on_c, 0, 71, 0
4, 324959, Note_on_c, 0, 74, 107
4, 325020, Note_on_c, 0, 74, 0
4, 325020, Note_on_c, 0, 68, 80
4, 325080, Note_on_c, 0, 68, 0
4, 325080, Note_on_c, 0, 67, 90
4, 325139, Note_on_c, 0, 67, 0
4, 325139, Note_on_c, 0, 71, 106
4, 325200, Note_on_c, 0, 71, 0
4, 325200, Note_on_c, 0, 65, 84
4, 325260, Note_on_c, 0, 65, 0
4, 325260, Note_on_c, 0, 65, 0
4, 325260, Note_on_c, 0, 63, 89
4, 325260, Note_on_c, 0, 55, 90
4, 325319, Note_on_c, 0, 63, 0
4, 325319, Note_on_c, 0, 67, 105
4, 325380, Note_on_c, 0, 67, 0
4, 325380, Note_on_c, 0, 62, 87
4, 325440, Note_on_c, 0, 62, 0
4, 325440, Note_on_c, 0, 55, 0
4, 325440, Note_on_c, 0, 87, 120
4, 325440, Note_on_c, 0, 36, 87
4, 325440, Note_on_c, 0, 48, 87
4, 325499, Note_on_c, 0, 87, 0
4, 325499, Note_on_c, 0, 91, 112
4, 325560, Note_on_c, 0, 91, 0
4, 325560, Note_on_c, 0, 86, 85
4, 325620, Note_on_c, 0, 86, 0
4, 325620, Note_on_c, 0, 48, 0
4, 325620, Note_on_c, 0, 36, 0
4, 325620, Note_on_c, 0, 84, 87
4, 325620, Note_on_c, 0, 55, 125
4, 325620, Note_on_c, 0, 60, 125
4, 325620, Note_on_c, 0, 63, 125
4, 325679, Note_on_c, 0, 84, 0
4, 325679, Note_on_c, 0, 87, 104
4, 325740, Note_on_c, 0, 87, 0
4, 325740, Note_on_c, 0, 82, 87
4, 325800, Note_on_c, 0, 82, 0
4, 325800, Note_on_c, 0, 80, 87
4, 325859, Note_on_c, 0, 80, 0
4, 325859, Note_on_c, 0, 84, 107
4, 325920, Note_on_c, 0, 84, 0
4, 325920, Note_on_c, 0, 79, 88
4, 325980, Note_on_c, 0, 79, 0
4, 325980, Note_on_c, 0, 63, 0
4, 325980, Note_on_c, 0, 60, 0
4, 325980, Note_on_c, 0, 55, 0
4, 325980, Note_on_c, 0, 77, 86
4, 325980, Note_on_c, 0, 55, 99
4, 325980, Note_on_c, 0, 60, 99
4, 325980, Note_on_c, 0, 63, 99
4, 326039, Note_on_c, 0, 77, 0
4, 326039, Note_on_c, 0, 79, 100
4, 326100, Note_on_c, 0, 79, 0
4, 326100, Note_on_c, 0, 75, 88
4, 326160, Note_on_c, 0, 75, 0
4, 326160, Note_on_c, 0, 55, 0
4, 326160, Note_on_c, 0, 60, 0
4, 326160, Note_on_c, 0, 63, 0
4, 326160, Note_on_c, 0, 74, 89
4, 326160, Note_on_c, 0, 36, 92
4, 326160, Note_on_c, 0, 48, 92
4, 326219, Note_on_c, 0, 74, 0
4, 326219, Note_on_c, 0, 75, 103
4, 326280, Note_on_c, 0, 75, 0
4, 326280, Note_on_c, 0, 72, 93
4, 326340, Note_on_c, 0, 72, 0
4, 326340, Note_on_c, 0, 70, 92
4, 326399, Note_on_c, 0, 70, 0
4, 326399, Note_on_c, 0, 72, 105
4, 326460, Note_on_c, 0, 72, 0
4, 326460, Note_on_c, 0, 68, 87
4, 326520, Note_on_c, 0, 68, 0
4, 326520, Note_on_c, 0, 67, 91
4, 326579, Note_on_c, 0, 67, 0
4, 326579, Note_on_c, 0, 68, 100
4, 326640, Note_on_c, 0, 68, 0
4, 326640, Note_on_c, 0, 65, 89
4, 326700, Note_on_c, 0, 65, 0
4, 326700, Note_on_c, 0, 48, 0
4, 326700, Note_on_c, 0, 36, 0
4, 326700, Note_on_c, 0, 62, 86
4, 326759, Note_on_c, 0, 62, 0
4, 326759, Note_on_c, 0, 63, 101
4, 326820, Note_on_c, 0, 63, 0
4, 326820, Note_on_c, 0, 60, 91
4, 326880, Note_on_c, 0, 60, 0
4, 326880, Note_on_c, 0, 24, 81
4, 326880, Note_on_c, 0, 36, 81
4, 327060, Note_on_c, 0, 36, 0
4, 327060, Note_on_c, 0, 24, 0
4, 327060, Note_on_c, 0, 67, 87
4, 327060, Note_on_c, 0, 69, 87
4, 327060, Note_on_c, 0, 75, 87
4, 327060, Note_on_c, 0, 79, 87
4, 327060, Note_on_c, 0, 81, 87
4, 327060, Note_on_c, 0, 43, 109
4, 327060, Note_on_c, 0, 48, 109
4, 327060, Note_on_c, 0, 51, 109
4, 327060, Note_on_c, 0, 55, 109
4, 327060, Note_on_c, 0, 57, 109
4, 327510, Note_on_c, 0, 57, 0
4, 327510, Note_on_c, 0, 75, 0
4, 327510, Note_on_c, 0, 79, 0
4, 327510, Note_on_c, 0, 67, 0
4, 327510, Note_on_c, 0, 81, 0
4, 327510, Note_on_c, 0, 69, 0
4, 327510, Note_on_c, 0, 51, 0
4, 327510, Note_on_c, 0, 48, 0
4, 327510, Note_on_c, 0, 43, 0
4, 327510, Note_on_c, 0, 55, 0
4, 327510, Note_on_c, 0, 67, 92
4, 327510, Note_on_c, 0, 69, 92
4, 327510, Note_on_c, 0, 75, 92
4, 327510, Note_on_c, 0, 79, 92
4, 327510, Note_on_c, 0, 43, 91
4, 327510, Note_on_c, 0, 48, 91
4, 327510, Note_on_c, 0, 51, 91
4, 327510, Note_on_c, 0, 55, 91
4, 327600, Note_on_c, 0, 55, 0
4, 327600, Note_on_c, 0, 67, 0
4, 327600, Note_on_c, 0, 43, 0
4, 327600, Note_on_c, 0, 69, 0
4, 327600, Note_on_c, 0, 75, 0
4, 327600, Note_on_c, 0, 79, 0
4, 327600, Note_on_c, 0, 48, 0
4, 327600, Note_on_c, 0, 51, 0
4, 327600, Note_on_c, 0, 67, 96
4, 327600, Note_on_c, 0, 69, 96
4, 327600, Note_on_c, 0, 75, 96
4, 327600, Note_on_c, 0, 79, 96
4, 327600, Note_on_c, 0, 43, 99
4, 327600, Note_on_c, 0, 48, 99
4, 327600, Note_on_c, 0, 51, 99
4, 327600, Note_on_c, 0, 55, 99
4, 327780, Note_on_c, 0, 55, 0
4, 327780, Note_on_c, 0, 67, 0
4, 327780, Note_on_c, 0, 43, 0
4, 327780, Note_on_c, 0, 69, 0
4, 327780, Note_on_c, 0, 75, 0
4, 327780, Note_on_c, 0, 79, 0
4, 327780, Note_on_c, 0, 48, 0
4, 327780, Note_on_c, 0, 51, 0
4, 327780, Note_on_c, 0, 60, 93
4, 327780, Note_on_c, 0, 72, 93
4, 327780, Note_on_c, 0, 48, 96
4, 327938, Note_on_c, 0, 48, 0
4, 327938, Note_on_c, 0, 72, 0
4, 327938, Note_on_c, 0, 60, 0
4, 327960, Note_on_c, 0, 62, 113
4, 327960, Note_on_c, 0, 74, 113
4, 327960, Note_on_c, 0, 50, 112
4, 328118, Note_on_c, 0, 50, 0
4, 328118, Note_on_c, 0, 74, 0
4, 328118, Note_on_c, 0, 62, 0
4, 328140, Note_on_c, 0, 63, 111
4, 328140, Note_on_c, 0, 75, 111
4, 328140, Note_on_c, 0, 51, 114
4, 328298, Note_on_c, 0, 51, 0
4, 328298, Note_on_c, 0, 75, 0
4, 328298, Note_on_c, 0, 63, 0
4, 328320, Note_on_c, 0, 67, 125
4, 328320, Note_on_c, 0, 69, 125
4, 328320, Note_on_c, 0, 75, 125
4, 328320, Note_on_c, 0, 79, 125
4, 328320, Note_on_c, 0, 81, 125
4, 328320, Note_on_c, 0, 24, 89
4, 328320, Note_on_c, 0, 36, 89
4, 328500, Note_on_c, 0, 36, 0
4, 328500, Note_on_c, 0, 24, 0
4, 328500, Note_on_c, 0, 43, 108
4, 328500, Note_on_c, 0, 48, 108
4, 328500, Note_on_c, 0, 51, 108
4, 328500, Note_on_c, 0, 55, 108
4, 328500, Note_on_c, 0, 57, 108
4, 328950, Note_on_c, 0, 57, 0
4, 328950, Note_on_c, 0, 75, 0
4, 328950, Note_on_c, 0, 79, 0
4, 328950, Note_on_c, 0, 67, 0
4, 328950, Note_on_c, 0, 69, 0
4, 328950, Note_on_c, 0, 81, 0
4, 328950, Note_on_c, 0, 51, 0
4, 328950, Note_on_c, 0, 48, 0
4, 328950, Note_on_c, 0, 43, 0
4, 328950, Note_on_c, 0, 55, 0
4, 328950, Note_on_c, 0, 67, 94
4, 328950, Note_on_c, 0, 69, 94
4, 328950, Note_on_c, 0, 75, 94
4, 328950, Note_on_c, 0, 79, 94
4, 328950, Note_on_c, 0, 43, 96
4, 328950, Note_on_c, 0, 48, 96
4, 328950, Note_on_c, 0, 51, 96
4, 328950, Note_on_c, 0, 55, 96
4, 329040, Note_on_c, 0, 55, 0
4, 329040, Note_on_c, 0, 67, 0
4, 329040, Note_on_c, 0, 43, 0
4, 329040, Note_on_c, 0, 69, 0
4, 329040, Note_on_c, 0, 75, 0
4, 329040, Note_on_c, 0, 79, 0
4, 329040, Note_on_c, 0, 48, 0
4, 329040, Note_on_c, 0, 51, 0
4, 329040, Note_on_c, 0, 67, 98
4, 329040, Note_on_c, 0, 69, 98
4, 329040, Note_on_c, 0, 75, 98
4, 329040, Note_on_c, 0, 79, 98
4, 329040, Note_on_c, 0, 43, 97
4, 329040, Note_on_c, 0, 48, 97
4, 329040, Note_on_c, 0, 51, 97
4, 329040, Note_on_c, 0, 55, 97
4, 329220, Note_on_c, 0, 55, 0
4, 329220, Note_on_c, 0, 67, 0
4, 329220, Note_on_c, 0, 43, 0
4, 329220, Note_on_c, 0, 69, 0
4, 329220, Note_on_c, 0, 75, 0
4, 329220, Note_on_c, 0, 79, 0
4, 329220, Note_on_c, 0, 48, 0
4, 329220, Note_on_c, 0, 51, 0
4, 329220, Note_on_c, 0, 67, 66
4, 329220, Note_on_c, 0, 55, 98
4, 329265, Note_on_c, 0, 55, 0
4, 329265, Note_on_c, 0, 67, 0
4, 329265, Note_on_c, 0, 65, 83
4, 329265, Note_on_c, 0, 53, 91
4, 329310, Note_on_c, 0, 53, 0
4, 329310, Note_on_c, 0, 65, 0
4, 329310, Note_on_c, 0, 63, 94
4, 329310, Note_on_c, 0, 51, 94
4, 329355, Note_on_c, 0, 51, 0
4, 329355, Note_on_c, 0, 63, 0
4, 329355, Note_on_c, 0, 62, 94
4, 329355, Note_on_c, 0, 50, 94
4, 329400, Note_on_c, 0, 50, 0
4, 329400, Note_on_c, 0, 62, 0
4, 329400, Note_on_c, 0, 60, 92
4, 329400, Note_on_c, 0, 48, 95
4, 329445, Note_on_c, 0, 48, 0
4, 329445, Note_on_c, 0, 60, 0
4, 329445, Note_on_c, 0, 58, 94
4, 329445, Note_on_c, 0, 46, 97
4, 329490, Note_on_c, 0, 46, 0
4, 329490, Note_on_c, 0, 58, 0
4, 329490, Note_on_c, 0, 57, 95
4, 329490, Note_on_c, 0, 45, 95
4, 329535, Note_on_c, 0, 45, 0
4, 329535, Note_on_c, 0, 57, 0
4, 329535, Note_on_c, 0, 55, 95
4, 329535, Note_on_c, 0, 43, 88
4, 329580, Note_on_c, 0, 43, 0
4, 329580, Note_on_c, 0, 55, 0
4, 329580, Note_on_c, 0, 53, 90
4, 329580, Note_on_c, 0, 41, 98
4, 329625, Note_on_c, 0, 41, 0
4, 329625, Note_on_c, 0, 53, 0
4, 329625, Note_on_c, 0, 52, 99
4, 329625, Note_on_c, 0, 40, 93
4, 329670, Note_on_c, 0, 40, 0
4, 329670, Note_on_c, 0, 52, 0
4, 329670, Note_on_c, 0, 51, 95
4, 329670, Note_on_c, 0, 39, 96
4, 329715, Note_on_c, 0, 39, 0
4, 329715, Note_on_c, 0, 51, 0
4, 329715, Note_on_c, 0, 50, 93
4, 329715, Note_on_c, 0, 38, 98
4, 329760, Note_on_c, 0, 38, 0
4, 329760, Note_on_c, 0, 50, 0
4, 329760, Note_on_c, 0, 37, 111
4, 329760, Note_on_c, 0, 49, 111
4, 329940, Note_on_c, 0, 49, 0
4, 329940, Note_on_c, 0, 37, 0
4, 329940, Note_on_c, 0, 70, 91
4, 329940, Note_on_c, 0, 75, 91
4, 329940, Note_on_c, 0, 79, 91
4, 329940, Note_on_c, 0, 82, 91
4, 329940, Note_on_c, 0, 46, 108
4, 329940, Note_on_c, 0, 51, 108
4, 329940, Note_on_c, 0, 55, 108
4, 329940, Note_on_c, 0, 58, 108
4, 330390, Note_on_c, 0, 58, 0
4, 330390, Note_on_c, 0, 70, 0
4, 330390, Note_on_c, 0, 46, 0
4, 330390, Note_on_c, 0, 75, 0
4, 330390, Note_on_c, 0, 79, 0
4, 330390, Note_on_c, 0, 82, 0
4, 330390, Note_on_c, 0, 51, 0
4, 330390, Note_on_c, 0, 55, 0
4, 330390, Note_on_c, 0, 67, 89
4, 330390, Note_on_c, 0, 70, 89
4, 330390, Note_on_c, 0, 75, 89
4, 330390, Note_on_c, 0, 79, 89
4, 330390, Note_on_c, 0, 43, 92
4, 330390, Note_on_c, 0, 46, 92
4, 330390, Note_on_c, 0, 51, 92
4, 330390, Note_on_c, 0, 55, 92
4, 330480, Note_on_c, 0, 55, 0
4, 330480, Note_on_c, 0, 67, 0
4, 330480, Note_on_c, 0, 43, 0
4, 330480, Note_on_c, 0, 70, 0
4, 330480, Note_on_c, 0, 75, 0
4, 330480, Note_on_c, 0, 79, 0
4, 330480, Note_on_c, 0, 46, 0
4, 330480, Note_on_c, 0, 51, 0
4, 330480, Note_on_c, 0, 67, 95
4, 330480, Note_on_c, 0, 70, 95
4, 330480, Note_on_c, 0, 75, 95
4, 330480, Note_on_c, 0, 79, 95
4, 330480, Note_on_c, 0, 43, 98
4, 330480, Note_on_c, 0, 46, 98
4, 330480, Note_on_c, 0, 51, 98
4, 330480, Note_on_c, 0, 55, 98
4, 330660, Note_on_c, 0, 55, 0
4, 330660, Note_on_c, 0, 67, 0
4, 330660, Note_on_c, 0, 43, 0
4, 330660, Note_on_c, 0, 70, 0
4, 330660, Note_on_c, 0, 75, 0
4, 330660, Note_on_c, 0, 79, 0
4, 330660, Note_on_c, 0, 46, 0
4, 330660, Note_on_c, 0, 51, 0
4, 330660, Note_on_c, 0, 63, 95
4, 330660, Note_on_c, 0, 75, 95
4, 330660, Note_on_c, 0, 51, 105
4, 330818, Note_on_c, 0, 51, 0
4, 330818, Note_on_c, 0, 75, 0
4, 330818, Note_on_c, 0, 63, 0
4, 330840, Note_on_c, 0, 65, 115
4, 330840, Note_on_c, 0, 77, 115
4, 330840, Note_on_c, 0, 53, 105
4, 330998, Note_on_c, 0, 53, 0
4, 330998, Note_on_c, 0, 77, 0
4, 330998, Note_on_c, 0, 65, 0
4, 331020, Note_on_c, 0, 67, 120
4, 331020, Note_on_c, 0, 79, 120
4, 331020, Note_on_c, 0, 55, 111
4, 331178, Note_on_c, 0, 55, 0
4, 331178, Note_on_c, 0, 79, 0
4, 331178, Note_on_c, 0, 67, 0
4, 331200, Note_on_c, 0, 70, 120
4, 331200, Note_on_c, 0, 75, 120
4, 331200, Note_on_c, 0, 79, 120
4, 331200, Note_on_c, 0, 82, 120
4, 331200, Note_on_c, 0, 37, 90
4, 331200, Note_on_c, 0, 49, 90
4, 331380, Note_on_c, 0, 49, 0
4, 331380, Note_on_c, 0, 37, 0
4, 331380, Note_on_c, 0, 46, 107
4, 331380, Note_on_c, 0, 51, 107
4, 331380, Note_on_c, 0, 55, 107
4, 331380, Note_on_c, 0, 58, 107
4, 331830, Note_on_c, 0, 58, 0
4, 331830, Note_on_c, 0, 70, 0
4, 331830, Note_on_c, 0, 46, 0
4, 331830, Note_on_c, 0, 75, 0
4, 331830, Note_on_c, 0, 82, 0
4, 331830, Note_on_c, 0, 79, 0
4, 331830, Note_on_c, 0, 51, 0
4, 331830, Note_on_c, 0, 55, 0
4, 331830, Note_on_c, 0, 67, 87
4, 331830, Note_on_c, 0, 70, 87
4, 331830, Note_on_c, 0, 75, 87
4, 331830, Note_on_c, 0, 79, 87
4, 331830, Note_on_c, 0, 43, 94
4, 331830, Note_on_c, 0, 46, 94
4, 331830, Note_on_c, 0, 51, 94
4, 331830, Note_on_c, 0, 55, 94
4, 331920, Note_on_c, 0, 55, 0
4, 331920, Note_on_c, 0, 67, 0
4, 331920, Note_on_c, 0, 43, 0
4, 331920, Note_on_c, 0, 70, 0
4, 331920, Note_on_c, 0, 75, 0
4, 331920, Note_on_c, 0, 79, 0
4, 331920, Note_on_c, 0, 46, 0
4, 331920, Note_on_c, 0, 51, 0
4, 331920, Note_on_c, 0, 67, 92
4, 331920, Note_on_c, 0, 70, 92
4, 331920, Note_on_c, 0, 75, 92
4, 331920, Note_on_c, 0, 79, 92
4, 331920, Note_on_c, 0, 43, 93
4, 331920, Note_on_c, 0, 46, 93
4, 331920, Note_on_c, 0, 51, 93
4, 331920, Note_on_c, 0, 55, 93
4, 332100, Note_on_c, 0, 55, 0
4, 332100, Note_on_c, 0, 67, 0
4, 332100, Note_on_c, 0, 43, 0
4, 332100, Note_on_c, 0, 70, 0
4, 332100, Note_on_c, 0, 75, 0
4, 332100, Note_on_c, 0, 79, 0
4, 332100, Note_on_c, 0, 46, 0
4, 332100, Note_on_c, 0, 51, 0
4, 332640, Note_on_c, 0, 74, 83
4, 332640, Note_on_c, 0, 79, 83
4, 332640, Note_on_c, 0, 82, 83
4, 332640, Note_on_c, 0, 86, 83
4, 332640, Note_on_c, 0, 38, 126
4, 332640, Note_on_c, 0, 50, 126
4, 332820, Note_on_c, 0, 55, 97
4, 332820, Note_on_c, 0, 46, 88
4, 332865, Note_on_c, 0, 46, 0
4, 332865, Note_on_c, 0, 55, 0
4, 332865, Note_on_c, 0, 57, 111
4, 332865, Note_on_c, 0, 48, 102
4, 332910, Note_on_c, 0, 48, 0
4, 332910, Note_on_c, 0, 57, 0
4, 332910, Note_on_c, 0, 58, 111
4, 332910, Note_on_c, 0, 50, 101
4, 332955, Note_on_c, 0, 58, 0
4, 332955, Note_on_c, 0, 50, 0
4, 332955, Note_on_c, 0, 60, 117
4, 332955, Note_on_c, 0, 52, 98
4, 333000, Note_on_c, 0, 52, 0
4, 333000, Note_on_c, 0, 60, 0
4, 333000, Note_on_c, 0, 62, 120
4, 333000, Note_on_c, 0, 54, 99
4, 333045, Note_on_c, 0, 54, 0
4, 333045, Note_on_c, 0, 62, 0
4, 333045, Note_on_c, 0, 64, 118
4, 333045, Note_on_c, 0, 55, 98
4, 333090, Note_on_c, 0, 55, 0
4, 333090, Note_on_c, 0, 64, 0
4, 333090, Note_on_c, 0, 66, 115
4, 333090, Note_on_c, 0, 57, 96
4, 333135, Note_on_c, 0, 57, 0
4, 333135, Note_on_c, 0, 66, 0
4, 333135, Note_on_c, 0, 67, 115
4, 333135, Note_on_c, 0, 58, 99
4, 333180, Note_on_c, 0, 58, 0
4, 333180, Note_on_c, 0, 67, 0
4, 333180, Note_on_c, 0, 69, 113
4, 333180, Note_on_c, 0, 60, 105
4, 333225, Note_on_c, 0, 60, 0
4, 333225, Note_on_c, 0, 69, 0
4, 333225, Note_on_c, 0, 70, 113
4, 333225, Note_on_c, 0, 62, 102
4, 333270, Note_on_c, 0, 62, 0
4, 333270, Note_on_c, 0, 70, 0
4, 333270, Note_on_c, 0, 72, 120
4, 333270, Note_on_c, 0, 64, 109
4, 333315, Note_on_c, 0, 64, 0
4, 333315, Note_on_c, 0, 72, 0
4, 333315, Note_on_c, 0, 74, 119
4, 333315, Note_on_c, 0, 66, 108
4, 333360, Note_on_c, 0, 66, 0
4, 333360, Note_on_c, 0, 74, 0
4, 333360, Note_on_c, 0, 79, 0
4, 333360, Note_on_c, 0, 74, 0
4, 333360, Note_on_c, 0, 82, 0
4, 333360, Note_on_c, 0, 86, 0
4, 333360, Note_on_c, 0, 67, 68
4, 333360, Note_on_c, 0, 72, 68
4, 333360, Note_on_c, 0, 75, 68
4, 333360, Note_on_c, 0, 55, 81
4, 333360, Note_on_c, 0, 60, 81
4, 333360, Note_on_c, 0, 63, 81
4, 334080, Note_on_c, 0, 63, 0
4, 334080, Note_on_c, 0, 38, 0
4, 334080, Note_on_c, 0, 75, 0
4, 334080, Note_on_c, 0, 50, 0
4, 334080, Note_on_c, 0, 67, 0
4, 334080, Note_on_c, 0, 72, 0
4, 334080, Note_on_c, 0, 55, 0
4, 334080, Note_on_c, 0, 60, 0
4, 334080, Note_on_c, 0, 74, 118
4, 334080, Note_on_c, 0, 79, 118
4, 334080, Note_on_c, 0, 82, 118
4, 334080, Note_on_c, 0, 86, 118
4, 334080, Note_on_c, 0, 38, 121
4, 334080, Note_on_c, 0, 50, 121
4, 334260, Note_on_c, 0, 55, 97
4, 334260, Note_on_c, 0, 46, 89
4, 334305, Note_on_c, 0, 46, 0
4, 334305, Note_on_c, 0, 55, 0
4, 334305, Note_on_c, 0, 57, 112
4, 334305, Note_on_c, 0, 48, 100
4, 334350, Note_on_c, 0, 48, 0
4, 334350, Note_on_c, 0, 57, 0
4, 334350, Note_on_c, 0, 58, 117
4, 334350, Note_on_c, 0, 50, 96
4, 334395, Note_on_c, 0, 58, 0
4, 334395, Note_on_c, 0, 50, 0
4, 334395, Note_on_c, 0, 60, 118
4, 334395, Note_on_c, 0, 52, 100
4, 334440, Note_on_c, 0, 52, 0
4, 334440, Note_on_c, 0, 60, 0
4, 334440, Note_on_c, 0, 62, 114
4, 334440, Note_on_c, 0, 54, 102
4, 334485, Note_on_c, 0, 54, 0
4, 334485, Note_on_c, 0, 62, 0
4, 334485, Note_on_c, 0, 64, 110
4, 334485, Note_on_c, 0, 55, 98
4, 334530, Note_on_c, 0, 55, 0
4, 334530, Note_on_c, 0, 64, 0
4, 334530, Note_on_c, 0, 66, 118
4, 334530, Note_on_c, 0, 57, 102
4, 334575, Note_on_c, 0, 57, 0
4, 334575, Note_on_c, 0, 66, 0
4, 334575, Note_on_c, 0, 67, 111
4, 334575, Note_on_c, 0, 58, 102
4, 334620, Note_on_c, 0, 58, 0
4, 334620, Note_on_c, 0, 67, 0
4, 334620, Note_on_c, 0, 69, 118
4, 334620, Note_on_c, 0, 60, 104
4, 334665, Note_on_c, 0, 60, 0
4, 334665, Note_on_c, 0, 69, 0
4, 334665, Note_on_c, 0, 70, 113
4, 334665, Note_on_c, 0, 62, 102
4, 334710, Note_on_c, 0, 62, 0
4, 334710, Note_on_c, 0, 70, 0
4, 334710, Note_on_c, 0, 72, 118
4, 334710, Note_on_c, 0, 64, 104
4, 334755, Note_on_c, 0, 64, 0
4, 334755, Note_on_c, 0, 72, 0
4, 334755, Note_on_c, 0, 74, 118
4, 334755, Note_on_c, 0, 66, 100
4, 334800, Note_on_c, 0, 66, 0
4, 334800, Note_on_c, 0, 74, 0
4, 334800, Note_on_c, 0, 79, 0
4, 334800, Note_on_c, 0, 74, 0
4, 334800, Note_on_c, 0, 82, 0
4, 334800, Note_on_c, 0, 86, 0
4, 334800, Note_on_c, 0, 68, 72
4, 334800, Note_on_c, 0, 71, 72
4, 334800, Note_on_c, 0, 75, 72
4, 334800, Note_on_c, 0, 54, 87
4, 334800, Note_on_c, 0, 56, 87
4, 334800, Note_on_c, 0, 59, 87
4, 334800, Note_on_c, 0, 64, 87
4, 335520, Note_on_c, 0, 64, 0
4, 335520, Note_on_c, 0, 71, 0
4, 335520, Note_on_c, 0, 38, 0
4, 335520, Note_on_c, 0, 75, 0
4, 335520, Note_on_c, 0, 50, 0
4, 335520, Note_on_c, 0, 68, 0
4, 335520, Note_on_c, 0, 56, 0
4, 335520, Note_on_c, 0, 54, 0
4, 335520, Note_on_c, 0, 59, 0
4, 335520, Note_on_c, 0, 75, 121
4, 335520, Note_on_c, 0, 79, 121
4, 335520, Note_on_c, 0, 84, 121
4, 335520, Note_on_c, 0, 87, 121
4, 335520, Note_on_c, 0, 38, 118
4, 335520, Note_on_c, 0, 50, 118
4, 335700, Note_on_c, 0, 55, 105
4, 335700, Note_on_c, 0, 47, 87
4, 335745, Note_on_c, 0, 47, 0
4, 335745, Note_on_c, 0, 55, 0
4, 335745, Note_on_c, 0, 57, 112
4, 335745, Note_on_c, 0, 48, 102
4, 335790, Note_on_c, 0, 48, 0
4, 335790, Note_on_c, 0, 57, 0
4, 335790, Note_on_c, 0, 59, 111
4, 335790, Note_on_c, 0, 50, 103
4, 335835, Note_on_c, 0, 59, 0
4, 335835, Note_on_c, 0, 50, 0
4, 335835, Note_on_c, 0, 60, 112
4, 335835, Note_on_c, 0, 51, 97
4, 335880, Note_on_c, 0, 51, 0
4, 335880, Note_on_c, 0, 60, 0
4, 335880, Note_on_c, 0, 62, 116
4, 335880, Note_on_c, 0, 54, 106
4, 335925, Note_on_c, 0, 54, 0
4, 335925, Note_on_c, 0, 62, 0
4, 335925, Note_on_c, 0, 63, 113
4, 335925, Note_on_c, 0, 55, 99
4, 335970, Note_on_c, 0, 55, 0
4, 335970, Note_on_c, 0, 63, 0
4, 335970, Note_on_c, 0, 65, 118
4, 335970, Note_on_c, 0, 57, 98
4, 336015, Note_on_c, 0, 57, 0
4, 336015, Note_on_c, 0, 65, 0
4, 336015, Note_on_c, 0, 67, 111
4, 336015, Note_on_c, 0, 59, 101
4, 336060, Note_on_c, 0, 59, 0
4, 336060, Note_on_c, 0, 67, 0
4, 336060, Note_on_c, 0, 69, 118
4, 336060, Note_on_c, 0, 60, 105
4, 336105, Note_on_c, 0, 60, 0
4, 336105, Note_on_c, 0, 69, 0
4, 336105, Note_on_c, 0, 71, 114
4, 336105, Note_on_c, 0, 62, 105
4, 336150, Note_on_c, 0, 62, 0
4, 336150, Note_on_c, 0, 71, 0
4, 336150, Note_on_c, 0, 72, 117
4, 336150, Note_on_c, 0, 63, 101
4, 336195, Note_on_c, 0, 63, 0
4, 336195, Note_on_c, 0, 72, 0
4, 336195, Note_on_c, 0, 74, 117
4, 336195, Note_on_c, 0, 65, 102
4, 336240, Note_on_c, 0, 65, 0
4, 336240, Note_on_c, 0, 75, 0
4, 336240, Note_on_c, 0, 79, 0
4, 336240, Note_on_c, 0, 74, 0
4, 336240, Note_on_c, 0, 84, 0
4, 336240, Note_on_c, 0, 87, 0
4, 336240, Note_on_c, 0, 68, 72
4, 336240, Note_on_c, 0, 71, 72
4, 336240, Note_on_c, 0, 75, 72
4, 336240, Note_on_c, 0, 53, 78
4, 336240, Note_on_c, 0, 56, 78
4, 336240, Note_on_c, 0, 59, 78
4, 336240, Note_on_c, 0, 63, 78
4, 336960, Note_on_c, 0, 63, 0
4, 336960, Note_on_c, 0, 71, 0
4, 336960, Note_on_c, 0, 38, 0
4, 336960, Note_on_c, 0, 75, 0
4, 336960, Note_on_c, 0, 50, 0
4, 336960, Note_on_c, 0, 68, 0
4, 336960, Note_on_c, 0, 56, 0
4, 336960, Note_on_c, 0, 53, 0
4, 336960, Note_on_c, 0, 59, 0
4, 336960, Note_on_c, 0, 75, 121
4, 336960, Note_on_c, 0, 79, 121
4, 336960, Note_on_c, 0, 84, 121
4, 336960, Note_on_c, 0, 87, 121
4, 336960, Note_on_c, 0, 38, 118
4, 336960, Note_on_c, 0, 50, 118
4, 337140, Note_on_c, 0, 55, 99
4, 337140, Note_on_c, 0, 47, 88
4, 337185, Note_on_c, 0, 47, 0
4, 337185, Note_on_c, 0, 55, 0
4, 337185, Note_on_c, 0, 57, 112
4, 337185, Note_on_c, 0, 48, 100
4, 337230, Note_on_c, 0, 48, 0
4, 337230, Note_on_c, 0, 57, 0
4, 337230, Note_on_c, 0, 59, 108
4, 337230, Note_on_c, 0, 50, 106
4, 337275, Note_on_c, 0, 59, 0
4, 337275, Note_on_c, 0, 50, 0
4, 337275, Note_on_c, 0, 60, 109
4, 337275, Note_on_c, 0, 51, 101
4, 337320, Note_on_c, 0, 51, 0
4, 337320, Note_on_c, 0, 60, 0
4, 337320, Note_on_c, 0, 62, 115
4, 337320, Note_on_c, 0, 53, 101
4, 337365, Note_on_c, 0, 53, 0
4, 337365, Note_on_c, 0, 62, 0
4, 337365, Note_on_c, 0, 63, 117
4, 337365, Note_on_c, 0, 55, 102
4, 337410, Note_on_c, 0, 55, 0
4, 337410, Note_on_c, 0, 63, 0
4, 337410, Note_on_c, 0, 65, 117
4, 337410, Note_on_c, 0, 57, 100
4, 337455, Note_on_c, 0, 57, 0
4, 337455, Note_on_c, 0, 65, 0
4, 337455, Note_on_c, 0, 67, 113
4, 337455, Note_on_c, 0, 59, 97
4, 337500, Note_on_c, 0, 59, 0
4, 337500, Note_on_c, 0, 67, 0
4, 337500, Note_on_c, 0, 69, 118
4, 337500, Note_on_c, 0, 60, 105
4, 337545, Note_on_c, 0, 60, 0
4, 337545, Note_on_c, 0, 69, 0
4, 337545, Note_on_c, 0, 71, 120
4, 337545, Note_on_c, 0, 62, 105
4, 337590, Note_on_c, 0, 62, 0
4, 337590, Note_on_c, 0, 71, 0
4, 337590, Note_on_c, 0, 72, 111
4, 337590, Note_on_c, 0, 63, 103
4, 337635, Note_on_c, 0, 63, 0
4, 337635, Note_on_c, 0, 72, 0
4, 337635, Note_on_c, 0, 74, 114
4, 337635, Note_on_c, 0, 65, 103
4, 337680, Note_on_c, 0, 65, 0
4, 337680, Note_on_c, 0, 75, 0
4, 337680, Note_on_c, 0, 79, 0
4, 337680, Note_on_c, 0, 74, 0
4, 337680, Note_on_c, 0, 84, 0
4, 337680, Note_on_c, 0, 87, 0
4, 337680, Note_on_c, 0, 67, 70
4, 337680, Note_on_c, 0, 69, 70
4, 337680, Note_on_c, 0, 72, 70
4, 337680, Note_on_c, 0, 75, 70
4, 337680, Note_on_c, 0, 55, 77
4, 337680, Note_on_c, 0, 57, 77
4, 337680, Note_on_c, 0, 60, 77
4, 337680, Note_on_c, 0, 63, 77
4, 338400, Note_on_c, 0, 63, 0
4, 338400, Note_on_c, 0, 67, 0
4, 338400, Note_on_c, 0, 69, 0
4, 338400, Note_on_c, 0, 38, 0
4, 338400, Note_on_c, 0, 72, 0
4, 338400, Note_on_c, 0, 50, 0
4, 338400, Note_on_c, 0, 57, 0
4, 338400, Note_on_c, 0, 55, 0
4, 338400, Note_on_c, 0, 75, 0
4, 338400, Note_on_c, 0, 60, 0
4, 338400, Note_on_c, 0, 62, 87
4, 338400, Note_on_c, 0, 67, 87
4, 338400, Note_on_c, 0, 70, 87
4, 338400, Note_on_c, 0, 74, 87
4, 338400, Note_on_c, 0, 26, 106
4, 338400, Note_on_c, 0, 38, 106
4, 338535, Note_on_c, 0, 74, 0
4, 338535, Note_on_c, 0, 70, 0
4, 338535, Note_on_c, 0, 62, 0
4, 338535, Note_on_c, 0, 67, 0
4, 338535, Note_on_c, 0, 67, 113
4, 338535, Note_on_c, 0, 70, 113
4, 338535, Note_on_c, 0, 74, 113
4, 338535, Note_on_c, 0, 79, 113
4, 338535, Note_on_c, 0, 50, 90
4, 338535, Note_on_c, 0, 55, 90
4, 338535, Note_on_c, 0, 58, 90
4, 338535, Note_on_c, 0, 62, 90
4, 338580, Note_on_c, 0, 62, 0
4, 338580, Note_on_c, 0, 67, 0
4, 338580, Note_on_c, 0, 70, 0
4, 338580, Note_on_c, 0, 58, 0
4, 338580, Note_on_c, 0, 74, 0
4, 338580, Note_on_c, 0, 50, 0
4, 338580, Note_on_c, 0, 55, 0
4, 338580, Note_on_c, 0, 79, 0
4, 338580, Note_on_c, 0, 67, 98
4, 338580, Note_on_c, 0, 70, 98
4, 338580, Note_on_c, 0, 74, 98
4, 338580, Note_on_c, 0, 79, 98
4, 338580, Note_on_c, 0, 50, 99
4, 338580, Note_on_c, 0, 55, 99
4, 338580, Note_on_c, 0, 58, 99
4, 338580, Note_on_c, 0, 62, 99
4, 338715, Note_on_c, 0, 62, 0
4, 338715, Note_on_c, 0, 67, 0
4, 338715, Note_on_c, 0, 70, 0
4, 338715, Note_on_c, 0, 58, 0
4, 338715, Note_on_c, 0, 74, 0
4, 338715, Note_on_c, 0, 50, 0
4, 338715, Note_on_c, 0, 55, 0
4, 338715, Note_on_c, 0, 79, 0
4, 338715, Note_on_c, 0, 70, 99
4, 338715, Note_on_c, 0, 74, 99
4, 338715, Note_on_c, 0, 79, 99
4, 338715, Note_on_c, 0, 82, 99
4, 338715, Note_on_c, 0, 55, 109
4, 338715, Note_on_c, 0, 58, 109
4, 338715, Note_on_c, 0, 62, 109
4, 338715, Note_on_c, 0, 67, 109
4, 338760, Note_on_c, 0, 67, 0
4, 338760, Note_on_c, 0, 70, 0
4, 338760, Note_on_c, 0, 74, 0
4, 338760, Note_on_c, 0, 62, 0
4, 338760, Note_on_c, 0, 79, 0
4, 338760, Note_on_c, 0, 55, 0
4, 338760, Note_on_c, 0, 58, 0
4, 338760, Note_on_c, 0, 82, 0
4, 338760, Note_on_c, 0, 70, 101
4, 338760, Note_on_c, 0, 74, 101
4, 338760, Note_on_c, 0, 79, 101
4, 338760, Note_on_c, 0, 82, 101
4, 338760, Note_on_c, 0, 55, 99
4, 338760, Note_on_c, 0, 58, 99
4, 338760, Note_on_c, 0, 62, 99
4, 338760, Note_on_c, 0, 67, 99
4, 338895, Note_on_c, 0, 67, 0
4, 338895, Note_on_c, 0, 70, 0
4, 338895, Note_on_c, 0, 74, 0
4, 338895, Note_on_c, 0, 62, 0
4, 338895, Note_on_c, 0, 79, 0
4, 338895, Note_on_c, 0, 55, 0
4, 338895, Note_on_c, 0, 58, 0
4, 338895, Note_on_c, 0, 82, 0
4, 338895, Note_on_c, 0, 74, 111
4, 338895, Note_on_c, 0, 79, 111
4, 338895, Note_on_c, 0, 82, 111
4, 338895, Note_on_c, 0, 86, 111
4, 338895, Note_on_c, 0, 58, 108
4, 338895, Note_on_c, 0, 62, 108
4, 338895, Note_on_c, 0, 67, 108
4, 338895, Note_on_c, 0, 70, 108
4, 338940, Note_on_c, 0, 70, 0
4, 338940, Note_on_c, 0, 74, 0
4, 338940, Note_on_c, 0, 79, 0
4, 338940, Note_on_c, 0, 67, 0
4, 338940, Note_on_c, 0, 82, 0
4, 338940, Note_on_c, 0, 58, 0
4, 338940, Note_on_c, 0, 62, 0
4, 338940, Note_on_c, 0, 86, 0
4, 338940, Note_on_c, 0, 74, 99
4, 338940, Note_on_c, 0, 79, 99
4, 338940, Note_on_c, 0, 82, 99
4, 338940, Note_on_c, 0, 86, 99
4, 338940, Note_on_c, 0, 58, 100
4, 338940, Note_on_c, 0, 62, 100
4, 338940, Note_on_c, 0, 67, 100
4, 338940, Note_on_c, 0, 70, 100
4, 339075, Note_on_c, 0, 70, 0
4, 339075, Note_on_c, 0, 74, 0
4, 339075, Note_on_c, 0, 79, 0
4, 339075, Note_on_c, 0, 67, 0
4, 339075, Note_on_c, 0, 82, 0
4, 339075, Note_on_c, 0, 58, 0
4, 339075, Note_on_c, 0, 62, 0
4, 339075, Note_on_c, 0, 86, 0
4, 339075, Note_on_c, 0, 77, 104
4, 339075, Note_on_c, 0, 81, 104
4, 339075, Note_on_c, 0, 84, 104
4, 339075, Note_on_c, 0, 89, 104
4, 339075, Note_on_c, 0, 57, 93
4, 339075, Note_on_c, 0, 60, 93
4, 339075, Note_on_c, 0, 65, 93
4, 339075, Note_on_c, 0, 69, 93
4, 339120, Note_on_c, 0, 69, 0
4, 339120, Note_on_c, 0, 77, 0
4, 339120, Note_on_c, 0, 81, 0
4, 339120, Note_on_c, 0, 65, 0
4, 339120, Note_on_c, 0, 84, 0
4, 339120, Note_on_c, 0, 57, 0
4, 339120, Note_on_c, 0, 60, 0
4, 339120, Note_on_c, 0, 89, 0
4, 339120, Note_on_c, 0, 77, 100
4, 339120, Note_on_c, 0, 81, 100
4, 339120, Note_on_c, 0, 84, 100
4, 339120, Note_on_c, 0, 89, 100
4, 339120, Note_on_c, 0, 57, 93
4, 339120, Note_on_c, 0, 60, 93
4, 339120, Note_on_c, 0, 65, 93
4, 339120, Note_on_c, 0, 69, 93
4, 339840, Note_on_c, 0, 69, 0
4, 339840, Note_on_c, 0, 77, 0
4, 339840, Note_on_c, 0, 81, 0
4, 339840, Note_on_c, 0, 38, 0
4, 339840, Note_on_c, 0, 84, 0
4, 339840, Note_on_c, 0, 26, 0
4, 339840, Note_on_c, 0, 60, 0
4, 339840, Note_on_c, 0, 57, 0
4, 339840, Note_on_c, 0, 89, 0
4, 339840, Note_on_c, 0, 65, 0
4, 339840, Note_on_c, 0, 58, 70
4, 339840, Note_on_c, 0, 63, 70
4, 339840, Note_on_c, 0, 67, 70
4, 339840, Note_on_c, 0, 70, 70
4, 339840, Note_on_c, 0, 26, 120
4, 339840, Note_on_c, 0, 38, 120
4, 339975, Note_on_c, 0, 70, 0
4, 339975, Note_on_c, 0, 67, 0
4, 339975, Note_on_c, 0, 58, 0
4, 339975, Note_on_c, 0, 63, 0
4, 339975, Note_on_c, 0, 63, 106
4, 339975, Note_on_c, 0, 67, 106
4, 339975, Note_on_c, 0, 70, 106
4, 339975, Note_on_c, 0, 75, 106
4, 339975, Note_on_c, 0, 46, 88
4, 339975, Note_on_c, 0, 51, 88
4, 339975, Note_on_c, 0, 55, 88
4, 339975, Note_on_c, 0, 58, 88
4, 340020, Note_on_c, 0, 58, 0
4, 340020, Note_on_c, 0, 63, 0
4, 340020, Note_on_c, 0, 67, 0
4, 340020, Note_on_c, 0, 55, 0
4, 340020, Note_on_c, 0, 70, 0
4, 340020, Note_on_c, 0, 46, 0
4, 340020, Note_on_c, 0, 51, 0
4, 340020, Note_on_c, 0, 75, 0
4, 340020, Note_on_c, 0, 63, 97
4, 340020, Note_on_c, 0, 67, 97
4, 340020, Note_on_c, 0, 70, 97
4, 340020, Note_on_c, 0, 75, 97
4, 340020, Note_on_c, 0, 46, 95
4, 340020, Note_on_c, 0, 51, 95
4, 340020, Note_on_c, 0, 55, 95
4, 340020, Note_on_c, 0, 58, 95
4, 340155, Note_on_c, 0, 58, 0
4, 340155, Note_on_c, 0, 63, 0
4, 340155, Note_on_c, 0, 67, 0
4, 340155, Note_on_c, 0, 55, 0
4, 340155, Note_on_c, 0, 70, 0
4, 340155, Note_on_c, 0, 46, 0
4, 340155, Note_on_c, 0, 51, 0
4, 340155, Note_on_c, 0, 75, 0
4, 340155, Note_on_c, 0, 67, 113
4, 340155, Note_on_c, 0, 70, 113
4, 340155, Note_on_c, 0, 75, 113
4, 340155, Note_on_c, 0, 79, 113
4, 340155, Note_on_c, 0, 51, 112
4, 340155, Note_on_c, 0, 55, 112
4, 340155, Note_on_c, 0, 58, 112
4, 340155, Note_on_c, 0, 63, 112
4, 340200, Note_on_c, 0, 63, 0
4, 340200, Note_on_c, 0, 67, 0
4, 340200, Note_on_c, 0, 70, 0
4, 340200, Note_on_c, 0, 58, 0
4, 340200, Note_on_c, 0, 75, 0
4, 340200, Note_on_c, 0, 51, 0
4, 340200, Note_on_c, 0, 55, 0
4, 340200, Note_on_c, 0, 79, 0
4, 340200, Note_on_c, 0, 67, 98
4, 340200, Note_on_c, 0, 70, 98
4, 340200, Note_on_c, 0, 75, 98
4, 340200, Note_on_c, 0, 79, 98
4, 340200, Note_on_c, 0, 51, 101
4, 340200, Note_on_c, 0, 55, 101
4, 340200, Note_on_c, 0, 58, 101
4, 340200, Note_on_c, 0, 63, 101
4, 340335, Note_on_c, 0, 63, 0
4, 340335, Note_on_c, 0, 67, 0
4, 340335, Note_on_c, 0, 70, 0
4, 340335, Note_on_c, 0, 58, 0
4, 340335, Note_on_c, 0, 75, 0
4, 340335, Note_on_c, 0, 51, 0
4, 340335, Note_on_c, 0, 55, 0
4, 340335, Note_on_c, 0, 79, 0
4, 340335, Note_on_c, 0, 70, 105
4, 340335, Note_on_c, 0, 75, 105
4, 340335, Note_on_c, 0, 79, 105
4, 340335, Note_on_c, 0, 82, 105
4, 340335, Note_on_c, 0, 55, 107
4, 340335, Note_on_c, 0, 58, 107
4, 340335, Note_on_c, 0, 63, 107
4, 340335, Note_on_c, 0, 67, 107
4, 340380, Note_on_c, 0, 67, 0
4, 340380, Note_on_c, 0, 70, 0
4, 340380, Note_on_c, 0, 75, 0
4, 340380, Note_on_c, 0, 63, 0
4, 340380, Note_on_c, 0, 79, 0
4, 340380, Note_on_c, 0, 55, 0
4, 340380, Note_on_c, 0, 58, 0
4, 340380, Note_on_c, 0, 82, 0
4, 340380, Note_on_c, 0, 70, 99
4, 340380, Note_on_c, 0, 75, 99
4, 340380, Note_on_c, 0, 79, 99
4, 340380, Note_on_c, 0, 82, 99
4, 340380, Note_on_c, 0, 55, 98
4, 340380, Note_on_c, 0, 58, 98
4, 340380, Note_on_c, 0, 63, 98
4, 340380, Note_on_c, 0, 67, 98
4, 340515, Note_on_c, 0, 67, 0
4, 340515, Note_on_c, 0, 70, 0
4, 340515, Note_on_c, 0, 75, 0
4, 340515, Note_on_c, 0, 63, 0
4, 340515, Note_on_c, 0, 79, 0
4, 340515, Note_on_c, 0, 55, 0
4, 340515, Note_on_c, 0, 58, 0
4, 340515, Note_on_c, 0, 82, 0
4, 340515, Note_on_c, 0, 74, 111
4, 340515, Note_on_c, 0, 77, 111
4, 340515, Note_on_c, 0, 81, 111
4, 340515, Note_on_c, 0, 86, 111
4, 340515, Note_on_c, 0, 53, 93
4, 340515, Note_on_c, 0, 57, 93
4, 340515, Note_on_c, 0, 62, 93
4, 340515, Note_on_c, 0, 65, 93
4, 340560, Note_on_c, 0, 65, 0
4, 340560, Note_on_c, 0, 74, 0
4, 340560, Note_on_c, 0, 77, 0
4, 340560, Note_on_c, 0, 62, 0
4, 340560, Note_on_c, 0, 81, 0
4, 340560, Note_on_c, 0, 53, 0
4, 340560, Note_on_c, 0, 57, 0
4, 340560, Note_on_c, 0, 86, 0
4, 340560, Note_on_c, 0, 74, 96
4, 340560, Note_on_c, 0, 77, 96
4, 340560, Note_on_c, 0, 81, 96
4, 340560, Note_on_c, 0, 86, 96
4, 340560, Note_on_c, 0, 53, 96
4, 340560, Note_on_c, 0, 57, 96
4, 340560, Note_on_c, 0, 62, 96
4, 340560, Note_on_c, 0, 65, 96
4, 341280, Note_on_c, 0, 65, 0
4, 341280, Note_on_c, 0, 74, 0
4, 341280, Note_on_c, 0, 77, 0
4, 341280, Note_on_c, 0, 38, 0
4, 341280, Note_on_c, 0, 81, 0
4, 341280, Note_on_c, 0, 26, 0
4, 341280, Note_on_c, 0, 57, 0
4, 341280, Note_on_c, 0, 53, 0
4, 341280, Note_on_c, 0, 86, 0
4, 341280, Note_on_c, 0, 62, 0
4, 341280, Note_on_c, 0, 55, 71
4, 341280, Note_on_c, 0, 60, 71
4, 341280, Note_on_c, 0, 63, 71
4, 341280, Note_on_c, 0, 67, 71
4, 341280, Note_on_c, 0, 26, 123
4, 341280, Note_on_c, 0, 38, 123
4, 341415, Note_on_c, 0, 67, 0
4, 341415, Note_on_c, 0, 63, 0
4, 341415, Note_on_c, 0, 55, 0
4, 341415, Note_on_c, 0, 60, 0
4, 341415, Note_on_c, 0, 60, 107
4, 341415, Note_on_c, 0, 63, 107
4, 341415, Note_on_c, 0, 67, 107
4, 341415, Note_on_c, 0, 72, 107
4, 341415, Note_on_c, 0, 43, 88
4, 341415, Note_on_c, 0, 48, 88
4, 341415, Note_on_c, 0, 51, 88
4, 341415, Note_on_c, 0, 55, 88
4, 341460, Note_on_c, 0, 55, 0
4, 341460, Note_on_c, 0, 60, 0
4, 341460, Note_on_c, 0, 63, 0
4, 341460, Note_on_c, 0, 51, 0
4, 341460, Note_on_c, 0, 67, 0
4, 341460, Note_on_c, 0, 43, 0
4, 341460, Note_on_c, 0, 48, 0
4, 341460, Note_on_c, 0, 72, 0
4, 341460, Note_on_c, 0, 60, 103
4, 341460, Note_on_c, 0, 63, 103
4, 341460, Note_on_c, 0, 67, 103
4, 341460, Note_on_c, 0, 72, 103
4, 341460, Note_on_c, 0, 43, 94
4, 341460, Note_on_c, 0, 48, 94
4, 341460, Note_on_c, 0, 51, 94
4, 341460, Note_on_c, 0, 55, 94
4, 341595, Note_on_c, 0, 55, 0
4, 341595, Note_on_c, 0, 60, 0
4, 341595, Note_on_c, 0, 63, 0
4, 341595, Note_on_c, 0, 51, 0
4, 341595, Note_on_c, 0, 67, 0
4, 341595, Note_on_c, 0, 43, 0
4, 341595, Note_on_c, 0, 48, 0
4, 341595, Note_on_c, 0, 72, 0
4, 341595, Note_on_c, 0, 63, 112
4, 341595, Note_on_c, 0, 67, 112
4, 341595, Note_on_c, 0, 72, 112
4, 341595, Note_on_c, 0, 75, 112
4, 341595, Note_on_c, 0, 48, 112
4, 341595, Note_on_c, 0, 51, 112
4, 341595, Note_on_c, 0, 55, 112
4, 341595, Note_on_c, 0, 60, 112
4, 341640, Note_on_c, 0, 60, 0
4, 341640, Note_on_c, 0, 63, 0
4, 341640, Note_on_c, 0, 67, 0
4, 341640, Note_on_c, 0, 55, 0
4, 341640, Note_on_c, 0, 72, 0
4, 341640, Note_on_c, 0, 48, 0
4, 341640, Note_on_c, 0, 51, 0
4, 341640, Note_on_c, 0, 75, 0
4, 341640, Note_on_c, 0, 63, 98
4, 341640, Note_on_c, 0, 67, 98
4, 341640, Note_on_c, 0, 72, 98
4, 341640, Note_on_c, 0, 75, 98
4, 341640, Note_on_c, 0, 48, 100
4, 341640, Note_on_c, 0, 51, 100
4, 341640, Note_on_c, 0, 55, 100
4, 341640, Note_on_c, 0, 60, 100
4, 341775, Note_on_c, 0, 60, 0
4, 341775, Note_on_c, 0, 63, 0
4, 341775, Note_on_c, 0, 67, 0
4, 341775, Note_on_c, 0, 55, 0
4, 341775, Note_on_c, 0, 72, 0
4, 341775, Note_on_c, 0, 48, 0
4, 341775, Note_on_c, 0, 51, 0
4, 341775, Note_on_c, 0, 75, 0
4, 341775, Note_on_c, 0, 67, 104
4, 341775, Note_on_c, 0, 72, 104
4, 341775, Note_on_c, 0, 75, 104
4, 341775, Note_on_c, 0, 79, 104
4, 341775, Note_on_c, 0, 51, 107
4, 341775, Note_on_c, 0, 55, 107
4, 341775, Note_on_c, 0, 60, 107
4, 341775, Note_on_c, 0, 63, 107
4, 341820, Note_on_c, 0, 63, 0
4, 341820, Note_on_c, 0, 67, 0
4, 341820, Note_on_c, 0, 72, 0
4, 341820, Note_on_c, 0, 60, 0
4, 341820, Note_on_c, 0, 75, 0
4, 341820, Note_on_c, 0, 51, 0
4, 341820, Note_on_c, 0, 55, 0
4, 341820, Note_on_c, 0, 79, 0
4, 341820, Note_on_c, 0, 67, 95
4, 341820, Note_on_c, 0, 72, 95
4, 341820, Note_on_c, 0, 75, 95
4, 341820, Note_on_c, 0, 79, 95
4, 341820, Note_on_c, 0, 51, 100
4, 341820, Note_on_c, 0, 55, 100
4, 341820, Note_on_c, 0, 60, 100
4, 341820, Note_on_c, 0, 63, 100
4, 341955, Note_on_c, 0, 63, 0
4, 341955, Note_on_c, 0, 67, 0
4, 341955, Note_on_c, 0, 72, 0
4, 341955, Note_on_c, 0, 60, 0
4, 341955, Note_on_c, 0, 75, 0
4, 341955, Note_on_c, 0, 51, 0
4, 341955, Note_on_c, 0, 55, 0
4, 341955, Note_on_c, 0, 79, 0
4, 341955, Note_on_c, 0, 70, 107
4, 341955, Note_on_c, 0, 74, 107
4, 341955, Note_on_c, 0, 77, 107
4, 341955, Note_on_c, 0, 82, 107
4, 341955, Note_on_c, 0, 50, 91
4, 341955, Note_on_c, 0, 53, 91
4, 341955, Note_on_c, 0, 58, 91
4, 341955, Note_on_c, 0, 62, 91
4, 342000, Note_on_c, 0, 62, 0
4, 342000, Note_on_c, 0, 70, 0
4, 342000, Note_on_c, 0, 74, 0
4, 342000, Note_on_c, 0, 58, 0
4, 342000, Note_on_c, 0, 77, 0
4, 342000, Note_on_c, 0, 50, 0
4, 342000, Note_on_c, 0, 53, 0
4, 342000, Note_on_c, 0, 82, 0
4, 342000, Note_on_c, 0, 70, 97
4, 342000, Note_on_c, 0, 74, 97
4, 342000, Note_on_c, 0, 77, 97
4, 342000, Note_on_c, 0, 82, 97
4, 342000, Note_on_c, 0, 50, 96
4, 342000, Note_on_c, 0, 53, 96
4, 342000, Note_on_c, 0, 58, 96
4, 342000, Note_on_c, 0, 62, 96
4, 342720, Note_on_c, 0, 62, 0
4, 342720, Note_on_c, 0, 70, 0
4, 342720, Note_on_c, 0, 74, 0
4, 342720, Note_on_c, 0, 38, 0
4, 342720, Note_on_c, 0, 77, 0
4, 342720, Note_on_c, 0, 26, 0
4, 342720, Note_on_c, 0, 53, 0
4, 342720, Note_on_c, 0, 50, 0
4, 342720, Note_on_c, 0, 82, 0
4, 342720, Note_on_c, 0, 58, 0
4, 342720, Note_on_c, 0, 51, 71
4, 342720, Note_on_c, 0, 57, 71
4, 342720, Note_on_c, 0, 60, 71
4, 342720, Note_on_c, 0, 63, 71
4, 342720, Note_on_c, 0, 26, 121
4, 342720, Note_on_c, 0, 38, 121
4, 342855, Note_on_c, 0, 63, 0
4, 342855, Note_on_c, 0, 60, 0
4, 342855, Note_on_c, 0, 51, 0
4, 342855, Note_on_c, 0, 57, 0
4, 342855, Note_on_c, 0, 57, 113
4, 342855, Note_on_c, 0, 60, 113
4, 342855, Note_on_c, 0, 63, 113
4, 342855, Note_on_c, 0, 69, 113
4, 342855, Note_on_c, 0, 39, 90
4, 342855, Note_on_c, 0, 45, 90
4, 342855, Note_on_c, 0, 48, 90
4, 342855, Note_on_c, 0, 51, 90
4, 342900, Note_on_c, 0, 51, 0
4, 342900, Note_on_c, 0, 57, 0
4, 342900, Note_on_c, 0, 60, 0
4, 342900, Note_on_c, 0, 48, 0
4, 342900, Note_on_c, 0, 63, 0
4, 342900, Note_on_c, 0, 39, 0
4, 342900, Note_on_c, 0, 45, 0
4, 342900, Note_on_c, 0, 69, 0
4, 342900, Note_on_c, 0, 57, 97
4, 342900, Note_on_c, 0, 60, 97
4, 342900, Note_on_c, 0, 63, 97
4, 342900, Note_on_c, 0, 69, 97
4, 342900, Note_on_c, 0, 39, 97
4, 342900, Note_on_c, 0, 45, 97
4, 342900, Note_on_c, 0, 48, 97
4, 342900, Note_on_c, 0, 51, 97
4, 343035, Note_on_c, 0, 51, 0
4, 343035, Note_on_c, 0, 57, 0
4, 343035, Note_on_c, 0, 60, 0
4, 343035, Note_on_c, 0, 48, 0
4, 343035, Note_on_c, 0, 63, 0
4, 343035, Note_on_c, 0, 39, 0
4, 343035, Note_on_c, 0, 45, 0
4, 343035, Note_on_c, 0, 69, 0
4, 343035, Note_on_c, 0, 60, 104
4, 343035, Note_on_c, 0, 63, 104
4, 343035, Note_on_c, 0, 69, 104
4, 343035, Note_on_c, 0, 72, 104
4, 343035, Note_on_c, 0, 45, 106
4, 343035, Note_on_c, 0, 48, 106
4, 343035, Note_on_c, 0, 51, 106
4, 343035, Note_on_c, 0, 57, 106
4, 343080, Note_on_c, 0, 57, 0
4, 343080, Note_on_c, 0, 60, 0
4, 343080, Note_on_c, 0, 63, 0
4, 343080, Note_on_c, 0, 51, 0
4, 343080, Note_on_c, 0, 69, 0
4, 343080, Note_on_c, 0, 45, 0
4, 343080, Note_on_c, 0, 48, 0
4, 343080, Note_on_c, 0, 72, 0
4, 343080, Note_on_c, 0, 60, 94
4, 343080, Note_on_c, 0, 63, 94
4, 343080, Note_on_c, 0, 69, 94
4, 343080, Note_on_c, 0, 72, 94
4, 343080, Note_on_c, 0, 45, 100
4, 343080, Note_on_c, 0, 48, 100
4, 343080, Note_on_c, 0, 51, 100
4, 343080, Note_on_c, 0, 57, 100
4, 343215, Note_on_c, 0, 57, 0
4, 343215, Note_on_c, 0, 60, 0
4, 343215, Note_on_c, 0, 63, 0
4, 343215, Note_on_c, 0, 51, 0
4, 343215, Note_on_c, 0, 69, 0
4, 343215, Note_on_c, 0, 45, 0
4, 343215, Note_on_c, 0, 48, 0
4, 343215, Note_on_c, 0, 72, 0
4, 343215, Note_on_c, 0, 63, 105
4, 343215, Note_on_c, 0, 69, 105
4, 343215, Note_on_c, 0, 72, 105
4, 343215, Note_on_c, 0, 75, 105
4, 343215, Note_on_c, 0, 48, 110
4, 343215, Note_on_c, 0, 51, 110
4, 343215, Note_on_c, 0, 57, 110
4, 343215, Note_on_c, 0, 60, 110
4, 343260, Note_on_c, 0, 60, 0
4, 343260, Note_on_c, 0, 63, 0
4, 343260, Note_on_c, 0, 69, 0
4, 343260, Note_on_c, 0, 57, 0
4, 343260, Note_on_c, 0, 72, 0
4, 343260, Note_on_c, 0, 48, 0
4, 343260, Note_on_c, 0, 51, 0
4, 343260, Note_on_c, 0, 75, 0
4, 343260, Note_on_c, 0, 63, 100
4, 343260, Note_on_c, 0, 69, 100
4, 343260, Note_on_c, 0, 72, 100
4, 343260, Note_on_c, 0, 75, 100
4, 343260, Note_on_c, 0, 48, 102
4, 343260, Note_on_c, 0, 51, 102
4, 343260, Note_on_c, 0, 57, 102
4, 343260, Note_on_c, 0, 60, 102
4, 343395, Note_on_c, 0, 60, 0
4, 343395, Note_on_c, 0, 63, 0
4, 343395, Note_on_c, 0, 69, 0
4, 343395, Note_on_c, 0, 57, 0
4, 343395, Note_on_c, 0, 72, 0
4, 343395, Note_on_c, 0, 48, 0
4, 343395, Note_on_c, 0, 51, 0
4, 343395, Note_on_c, 0, 75, 0
4, 343395, Note_on_c, 0, 67, 107
4, 343395, Note_on_c, 0, 70, 107
4, 343395, Note_on_c, 0, 74, 107
4, 343395, Note_on_c, 0, 79, 107
4, 343395, Note_on_c, 0, 46, 96
4, 343395, Note_on_c, 0, 50, 96
4, 343395, Note_on_c, 0, 55, 96
4, 343395, Note_on_c, 0, 58, 96
4, 343440, Note_on_c, 0, 58, 0
4, 343440, Note_on_c, 0, 67, 0
4, 343440, Note_on_c, 0, 70, 0
4, 343440, Note_on_c, 0, 55, 0
4, 343440, Note_on_c, 0, 74, 0
4, 343440, Note_on_c, 0, 46, 0
4, 343440, Note_on_c, 0, 50, 0
4, 343440, Note_on_c, 0, 79, 0
4, 343440, Note_on_c, 0, 67, 101
4, 343440, Note_on_c, 0, 70, 101
4, 343440, Note_on_c, 0, 74, 101
4, 343440, Note_on_c, 0, 79, 101
4, 343440, Note_on_c, 0, 46, 96
4, 343440, Note_on_c, 0, 50, 96
4, 343440, Note_on_c, 0, 55, 96
4, 343440, Note_on_c, 0, 58, 96
4, 344160, Note_on_c, 0, 58, 0
4, 344160, Note_on_c, 0, 67, 0
4, 344160, Note_on_c, 0, 70, 0
4, 344160, Note_on_c, 0, 38, 0
4, 344160, Note_on_c, 0, 74, 0
4, 344160, Note_on_c, 0, 26, 0
4, 344160, Note_on_c, 0, 50, 0
4, 344160, Note_on_c, 0, 46, 0
4, 344160, Note_on_c, 0, 79, 0
4, 344160, Note_on_c, 0, 55, 0
4, 344160, Note_on_c, 0, 60, 81
4, 344160, Note_on_c, 0, 67, 81
4, 344160, Note_on_c, 0, 72, 81
4, 344160, Note_on_c, 0, 38, 94
4, 344160, Note_on_c, 0, 43, 94
4, 344160, Note_on_c, 0, 48, 94
4, 345060, Note_on_c, 0, 48, 0
4, 345060, Note_on_c, 0, 67, 0
4, 345060, Note_on_c, 0, 72, 0
4, 345060, Note_on_c, 0, 60, 0
4, 345060, Note_on_c, 0, 43, 0
4, 345060, Note_on_c, 0, 38, 0
4, 345780, Note_on_c, 0, 43, 96
4, 345780, Note_on_c, 0, 49, 96
4, 345780, Note_on_c, 0, 55, 96
4, 345780, Note_on_c, 0, 33, 96
4, 345780, Note_on_c, 0, 40, 96
4, 346140, Note_on_c, 0, 40, 0
4, 346140, Note_on_c, 0, 55, 0
4, 346140, Note_on_c, 0, 43, 0
4, 346140, Note_on_c, 0, 49, 0
4, 346140, Note_on_c, 0, 33, 0
4, 346140, Note_on_c, 0, 43, 93
4, 346140, Note_on_c, 0, 48, 93
4, 346140, Note_on_c, 0, 55, 93
4, 346140, Note_on_c, 0, 27, 93
4, 346140, Note_on_c, 0, 33, 93
4, 346140, Note_on_c, 0, 39, 93
4, 346500, Note_on_c, 0, 39, 0
4, 346500, Note_on_c, 0, 48, 0
4, 346500, Note_on_c, 0, 55, 0
4, 346500, Note_on_c, 0, 43, 0
4, 346500, Note_on_c, 0, 33, 0
4, 346500, Note_on_c, 0, 27, 0
4, 346500, Note_on_c, 0, 43, 89
4, 346500, Note_on_c, 0, 49, 89
4, 346500, Note_on_c, 0, 55, 89
4, 346500, Note_on_c, 0, 33, 89
4, 346500, Note_on_c, 0, 40, 89
4, 346860, Note_on_c, 0, 40, 0
4, 346860, Note_on_c, 0, 55, 0
4, 346860, Note_on_c, 0, 43, 0
4, 346860, Note_on_c, 0, 49, 0
4, 346860, Note_on_c, 0, 33, 0
4, 346860, Note_on_c, 0, 43, 86
4, 346860, Note_on_c, 0, 48, 86
4, 346860, Note_on_c, 0, 55, 86
4, 346860, Note_on_c, 0, 27, 86
4, 346860, Note_on_c, 0, 33, 86
4, 346860, Note_on_c, 0, 39, 86
4, 347040, Note_on_c, 0, 39, 0
4, 347040, Note_on_c, 0, 48, 0
4, 347040, Note_on_c, 0, 55, 0
4, 347040, Note_on_c, 0, 43, 0
4, 347040, Note_on_c, 0, 33, 0
4, 347040, Note_on_c, 0, 27, 0
4, 347040, Note_on_c, 0, 43, 85
4, 347040, Note_on_c, 0, 51, 85
4, 347040, Note_on_c, 0, 55, 85
4, 347040, Note_on_c, 0, 24, 85
4, 347040, Note_on_c, 0, 31, 85
4, 347040, Note_on_c, 0, 36, 85
4, 347760, Note_on_c, 0, 36, 0
4, 347760, Note_on_c, 0, 51, 0
4, 347760, Note_on_c, 0, 55, 0
4, 347760, Note_on_c, 0, 43, 0
4, 347760, Note_on_c, 0, 31, 0
4, 347760, Note_on_c, 0, 24, 0
4, 347760, Note_on_c, 0, 48, 86
4, 347760, Note_on_c, 0, 54, 86
4, 347760, Note_on_c, 0, 51, 88
4, 347760, Note_on_c, 0, 26, 87
4, 347760, Note_on_c, 0, 38, 87
4, 348120, Note_on_c, 0, 51, 0
4, 348120, Note_on_c, 0, 50, 95
4, 348480, Note_on_c, 0, 50, 0
4, 348480, Note_on_c, 0, 38, 0
4, 348480, Note_on_c, 0, 48, 0
4, 348480, Note_on_c, 0, 54, 0
4, 348480, Note_on_c, 0, 26, 0
4, 348480, Note_on_c, 0, 46, 49
4, 348480, Note_on_c, 0, 50, 49
4, 348480, Note_on_c, 0, 55, 49
4, 348480, Note_on_c, 0, 31, 55
4, 348480, Note_on_c, 0, 38, 55
4, 348480, Note_on_c, 0, 43, 55
4, 348785, Note_on_c, 0, 43, 0
4, 348785, Note_on_c, 0, 31, 0
4, 348785, Note_on_c, 0, 38, 0
4, 348785, Note_on_c, 0, 26, 48
4, 348785, Note_on_c, 0, 31, 48
4, 348798, Note_on_c, 0, 31, 0
4, 348798, Note_on_c, 0, 26, 0
4, 348798, Note_on_c, 0, 38, 51
4, 348812, Note_on_c, 0, 38, 0
4, 348812, Note_on_c, 0, 26, 46
4, 348812, Note_on_c, 0, 31, 46
4, 348825, Note_on_c, 0, 31, 0
4, 348825, Note_on_c, 0, 26, 0
4, 348825, Note_on_c, 0, 38, 58
4, 348840, Note_on_c, 0, 38, 0
4, 348840, Note_on_c, 0, 26, 44
4, 348840, Note_on_c, 0, 31, 44
4, 349560, Note_on_c, 0, 31, 0
4, 349560, Note_on_c, 0, 26, 0
4, 349560, Note_on_c, 0, 31, 55
4, 349560, Note_on_c, 0, 38, 55
4, 349560, Note_on_c, 0, 43, 55
4, 349920, Note_on_c, 0, 43, 0
4, 349920, Note_on_c, 0, 31, 0
4, 349920, Note_on_c, 0, 38, 0
4, 349920, Note_on_c, 0, 31, 50
4, 349920, Note_on_c, 0, 38, 50
4, 349920, Note_on_c, 0, 43, 50
4, 350227, Note_on_c, 0, 43, 0
4, 350227, Note_on_c, 0, 31, 0
4, 350227, Note_on_c, 0, 38, 0
4, 350227, Note_on_c, 0, 26, 43
4, 350227, Note_on_c, 0, 31, 43
4, 350241, Note_on_c, 0, 31, 0
4, 350241, Note_on_c, 0, 26, 0
4, 350241, Note_on_c, 0, 38, 52
4, 350253, Note_on_c, 0, 38, 0
4, 350253, Note_on_c, 0, 26, 44
4, 350253, Note_on_c, 0, 31, 44
4, 350269, Note_on_c, 0, 31, 0
4, 350269, Note_on_c, 0, 26, 0
4, 350269, Note_on_c, 0, 38, 59
4, 350280, Note_on_c, 0, 38, 0
4, 350280, Note_on_c, 0, 26, 45
4, 350280, Note_on_c, 0, 31, 45
4, 351000, Note_on_c, 0, 31, 0
4, 351000, Note_on_c, 0, 26, 0
4, 351000, Note_on_c, 0, 31, 58
4, 351000, Note_on_c, 0, 38, 58
4, 351000, Note_on_c, 0, 43, 58
4, 351360, Note_on_c, 0, 43, 0
4, 351360, Note_on_c, 0, 46, 0
4, 351360, Note_on_c, 0, 50, 0
4, 351360, Note_on_c, 0, 55, 0
4, 351360, Note_on_c, 0, 38, 0
4, 351360, Note_on_c, 0, 31, 0
4, 351360, Note_on_c, 0, 50, 63
4, 351360, Note_on_c, 0, 55, 63
4, 351360, Note_on_c, 0, 58, 63
4, 351360, Note_on_c, 0, 62, 63
4, 351360, Note_on_c, 0, 31, 53
4, 351360, Note_on_c, 0, 38, 53
4, 351360, Note_on_c, 0, 43, 53
4, 351667, Note_on_c, 0, 43, 0
4, 351667, Note_on_c, 0, 31, 0
4, 351667, Note_on_c, 0, 38, 0
4, 351667, Note_on_c, 0, 26, 42
4, 351667, Note_on_c, 0, 31, 42
4, 351681, Note_on_c, 0, 31, 0
4, 351681, Note_on_c, 0, 26, 0
4, 351681, Note_on_c, 0, 38, 53
4, 351693, Note_on_c, 0, 38, 0
4, 351693, Note_on_c, 0, 26, 47
4, 351693, Note_on_c, 0, 31, 47
4, 351709, Note_on_c, 0, 31, 0
4, 351709, Note_on_c, 0, 26, 0
4, 351709, Note_on_c, 0, 38, 55
4, 351720, Note_on_c, 0, 38, 0
4, 351720, Note_on_c, 0, 26, 42
4, 351720, Note_on_c, 0, 31, 42
4, 352440, Note_on_c, 0, 31, 0
4, 352440, Note_on_c, 0, 26, 0
4, 352440, Note_on_c, 0, 31, 54
4, 352440, Note_on_c, 0, 38, 54
4, 352440, Note_on_c, 0, 43, 54
4, 352800, Note_on_c, 0, 43, 0
4, 352800, Note_on_c, 0, 31, 0
4, 352800, Note_on_c, 0, 38, 0
4, 352800, Note_on_c, 0, 31, 51
4, 352800, Note_on_c, 0, 38, 51
4, 352800, Note_on_c, 0, 43, 51
4, 353107, Note_on_c, 0, 43, 0
4, 353107, Note_on_c, 0, 31, 0
4, 353107, Note_on_c, 0, 38, 0
4, 353107, Note_on_c, 0, 26, 40
4, 353107, Note_on_c, 0, 31, 40
4, 353121, Note_on_c, 0, 31, 0
4, 353121, Note_on_c, 0, 26, 0
4, 353121, Note_on_c, 0, 38, 57
4, 353133, Note_on_c, 0, 38, 0
4, 353133, Note_on_c, 0, 26, 45
4, 353133, Note_on_c, 0, 31, 45
4, 353149, Note_on_c, 0, 31, 0
4, 353149, Note_on_c, 0, 26, 0
4, 353149, Note_on_c, 0, 38, 55
4, 353160, Note_on_c, 0, 38, 0
4, 353160, Note_on_c, 0, 26, 47
4, 353160, Note_on_c, 0, 31, 47
4, 353880, Note_on_c, 0, 31, 0
4, 353880, Note_on_c, 0, 55, 0
4, 353880, Note_on_c, 0, 58, 0
4, 353880, Note_on_c, 0, 50, 0
4, 353880, Note_on_c, 0, 26, 0
4, 353880, Note_on_c, 0, 62, 0
4, 353880, Note_on_c, 0, 51, 46
4, 353880, Note_on_c, 0, 55, 46
4, 353880, Note_on_c, 0, 57, 46
4, 353880, Note_on_c, 0, 60, 46
4, 353880, Note_on_c, 0, 31, 53
4, 353880, Note_on_c, 0, 38, 53
4, 353880, Note_on_c, 0, 43, 53
4, 354240, Note_on_c, 0, 43, 0
4, 354240, Note_on_c, 0, 31, 0
4, 354240, Note_on_c, 0, 55, 0
4, 354240, Note_on_c, 0, 57, 0
4, 354240, Note_on_c, 0, 51, 0
4, 354240, Note_on_c, 0, 38, 0
4, 354240, Note_on_c, 0, 60, 0
4, 354240, Note_on_c, 0, 50, 52
4, 354240, Note_on_c, 0, 55, 52
4, 354240, Note_on_c, 0, 58, 52
4, 354240, Note_on_c, 0, 62, 52
4, 354240, Note_on_c, 0, 31, 52
4, 354240, Note_on_c, 0, 38, 52
4, 354240, Note_on_c, 0, 43, 52
4, 354547, Note_on_c, 0, 43, 0
4, 354547, Note_on_c, 0, 31, 0
4, 354547, Note_on_c, 0, 38, 0
4, 354547, Note_on_c, 0, 26, 46
4, 354547, Note_on_c, 0, 31, 46
4, 354561, Note_on_c, 0, 31, 0
4, 354561, Note_on_c, 0, 26, 0
4, 354561, Note_on_c, 0, 38, 53
4, 354573, Note_on_c, 0, 38, 0
4, 354573, Note_on_c, 0, 26, 45
4, 354573, Note_on_c, 0, 31, 45
4, 354589, Note_on_c, 0, 31, 0
4, 354589, Note_on_c, 0, 26, 0
4, 354589, Note_on_c, 0, 38, 55
4, 354600, Note_on_c, 0, 38, 0
4, 354600, Note_on_c, 0, 26, 47
4, 354600, Note_on_c, 0, 31, 47
4, 355320, Note_on_c, 0, 31, 0
4, 355320, Note_on_c, 0, 55, 0
4, 355320, Note_on_c, 0, 62, 0
4, 355320, Note_on_c, 0, 50, 0
4, 355320, Note_on_c, 0, 26, 0
4, 355320, Note_on_c, 0, 58, 0
4, 355320, Note_on_c, 0, 51, 47
4, 355320, Note_on_c, 0, 55, 47
4, 355320, Note_on_c, 0, 57, 47
4, 355320, Note_on_c, 0, 60, 47
4, 355320, Note_on_c, 0, 31, 56
4, 355320, Note_on_c, 0, 38, 56
4, 355320, Note_on_c, 0, 43, 56
4, 355680, Note_on_c, 0, 43, 0
4, 355680, Note_on_c, 0, 31, 0
4, 355680, Note_on_c, 0, 55, 0
4, 355680, Note_on_c, 0, 57, 0
4, 355680, Note_on_c, 0, 51, 0
4, 355680, Note_on_c, 0, 38, 0
4, 355680, Note_on_c, 0, 60, 0
4, 355680, Note_on_c, 0, 50, 51
4, 355680, Note_on_c, 0, 55, 51
4, 355680, Note_on_c, 0, 58, 51
4, 355680, Note_on_c, 0, 62, 51
4, 355680, Note_on_c, 0, 31, 50
4, 355680, Note_on_c, 0, 38, 50
4, 355680, Note_on_c, 0, 43, 50
4, 355987, Note_on_c, 0, 43, 0
4, 355987, Note_on_c, 0, 31, 0
4, 355987, Note_on_c, 0, 38, 0
4, 355987, Note_on_c, 0, 26, 48
4, 355987, Note_on_c, 0, 31, 48
4, 356001, Note_on_c, 0, 31, 0
4, 356001, Note_on_c, 0, 26, 0
4, 356001, Note_on_c, 0, 38, 53
4, 356013, Note_on_c, 0, 38, 0
4, 356013, Note_on_c, 0, 26, 49
4, 356013, Note_on_c, 0, 31, 49
4, 356029, Note_on_c, 0, 31, 0
4, 356029, Note_on_c, 0, 26, 0
4, 356029, Note_on_c, 0, 38, 54
4, 356040, Note_on_c, 0, 38, 0
4, 356040, Note_on_c, 0, 26, 49
4, 356040, Note_on_c, 0, 31, 49
4, 356760, Note_on_c, 0, 31, 0
4, 356760, Note_on_c, 0, 55, 0
4, 356760, Note_on_c, 0, 62, 0
4, 356760, Note_on_c, 0, 50, 0
4, 356760, Note_on_c, 0, 26, 0
4, 356760, Note_on_c, 0, 58, 0
4, 356760, Note_on_c, 0, 53, 58
4, 356760, Note_on_c, 0, 58, 58
4, 356760, Note_on_c, 0, 62, 58
4, 356760, Note_on_c, 0, 65, 58
4, 356760, Note_on_c, 0, 34, 62
4, 356760, Note_on_c, 0, 41, 62
4, 356760, Note_on_c, 0, 46, 62
4, 357120, Note_on_c, 0, 46, 0
4, 357120, Note_on_c, 0, 34, 0
4, 357120, Note_on_c, 0, 58, 0
4, 357120, Note_on_c, 0, 62, 0
4, 357120, Note_on_c, 0, 53, 0
4, 357120, Note_on_c, 0, 41, 0
4, 357120, Note_on_c, 0, 65, 0
4, 357120, Note_on_c, 0, 46, 46
4, 357120, Note_on_c, 0, 51, 46
4, 357120, Note_on_c, 0, 55, 46
4, 357120, Note_on_c, 0, 58, 46
4, 357120, Note_on_c, 0, 27, 49
4, 357120, Note_on_c, 0, 34, 49
4, 357120, Note_on_c, 0, 39, 49
4, 357480, Note_on_c, 0, 39, 0
4, 357480, Note_on_c, 0, 27, 0
4, 357480, Note_on_c, 0, 51, 0
4, 357480, Note_on_c, 0, 55, 0
4, 357480, Note_on_c, 0, 46, 0
4, 357480, Note_on_c, 0, 34, 0
4, 357480, Note_on_c, 0, 58, 0
4, 357480, Note_on_c, 0, 50, 58
4, 357480, Note_on_c, 0, 55, 58
4, 357480, Note_on_c, 0, 58, 58
4, 357480, Note_on_c, 0, 62, 58
4, 357480, Note_on_c, 0, 31, 51
4, 357480, Note_on_c, 0, 38, 51
4, 357480, Note_on_c, 0, 43, 51
4, 357840, Note_on_c, 0, 43, 0
4, 357840, Note_on_c, 0, 31, 0
4, 357840, Note_on_c, 0, 55, 0
4, 357840, Note_on_c, 0, 58, 0
4, 357840, Note_on_c, 0, 50, 0
4, 357840, Note_on_c, 0, 38, 0
4, 357840, Note_on_c, 0, 62, 0
4, 357840, Note_on_c, 0, 43, 47
4, 357840, Note_on_c, 0, 48, 47
4, 357840, Note_on_c, 0, 51, 47
4, 357840, Note_on_c, 0, 55, 47
4, 357840, Note_on_c, 0, 24, 47
4, 357840, Note_on_c, 0, 31, 47
4, 357840, Note_on_c, 0, 36, 47
4, 358200, Note_on_c, 0, 36, 0
4, 358200, Note_on_c, 0, 24, 0
4, 358200, Note_on_c, 0, 48, 0
4, 358200, Note_on_c, 0, 51, 0
4, 358200, Note_on_c, 0, 43, 0
4, 358200, Note_on_c, 0, 31, 0
4, 358200, Note_on_c, 0, 55, 0
4, 358200, Note_on_c, 0, 46, 55
4, 358200, Note_on_c, 0, 50, 55
4, 358200, Note_on_c, 0, 55, 55
4, 358200, Note_on_c, 0, 58, 55
4, 358200, Note_on_c, 0, 31, 53
4, 358200, Note_on_c, 0, 38, 53
4, 358200, Note_on_c, 0, 43, 53
4, 358560, Note_on_c, 0, 43, 0
4, 358560, Note_on_c, 0, 31, 0
4, 358560, Note_on_c, 0, 50, 0
4, 358560, Note_on_c, 0, 55, 0
4, 358560, Note_on_c, 0, 46, 0
4, 358560, Note_on_c, 0, 38, 0
4, 358560, Note_on_c, 0, 58, 0
4, 358560, Note_on_c, 0, 49, 55
4, 358560, Note_on_c, 0, 52, 55
4, 358560, Note_on_c, 0, 55, 55
4, 358560, Note_on_c, 0, 58, 55
4, 358560, Note_on_c, 0, 61, 55
4, 358560, Note_on_c, 0, 26, 48
4, 358560, Note_on_c, 0, 38, 48
4, 358920, Note_on_c, 0, 38, 0
4, 358920, Note_on_c, 0, 61, 0
4, 358920, Note_on_c, 0, 52, 0
4, 358920, Note_on_c, 0, 55, 0
4, 358920, Note_on_c, 0, 49, 0
4, 358920, Note_on_c, 0, 26, 0
4, 358920, Note_on_c, 0, 58, 0
4, 358920, Note_on_c, 0, 50, 54
4, 358920, Note_on_c, 0, 57, 54
4, 358920, Note_on_c, 0, 60, 54
4, 358920, Note_on_c, 0, 62, 54
4, 358920, Note_on_c, 0, 26, 48
4, 358920, Note_on_c, 0, 38, 48
4, 359280, Note_on_c, 0, 38, 0
4, 359280, Note_on_c, 0, 57, 0
4, 359280, Note_on_c, 0, 60, 0
4, 359280, Note_on_c, 0, 50, 0
4, 359280, Note_on_c, 0, 26, 0
4, 359280, Note_on_c, 0, 62, 0
4, 359280, Note_on_c, 0, 51, 52
4, 359280, Note_on_c, 0, 55, 52
4, 359280, Note_on_c, 0, 60, 52
4, 359280, Note_on_c, 0, 63, 52
4, 359280, Note_on_c, 0, 31, 52
4, 359280, Note_on_c, 0, 38, 52
4, 359280, Note_on_c, 0, 43, 52
4, 359640, Note_on_c, 0, 43, 0
4, 359640, Note_on_c, 0, 31, 0
4, 359640, Note_on_c, 0, 55, 0
4, 359640, Note_on_c, 0, 60, 0
4, 359640, Note_on_c, 0, 51, 0
4, 359640, Note_on_c, 0, 38, 0
4, 359640, Note_on_c, 0, 63, 0
4, 359640, Note_on_c, 0, 50, 52
4, 359640, Note_on_c, 0, 54, 52
4, 359640, Note_on_c, 0, 57, 52
4, 359640, Note_on_c, 0, 60, 52
4, 359640, Note_on_c, 0, 62, 52
4, 359640, Note_on_c, 0, 31, 50
4, 359640, Note_on_c, 0, 38, 50
4, 359640, Note_on_c, 0, 43, 50
4, 360000, Note_on_c, 0, 43, 0
4, 360000, Note_on_c, 0, 50, 0
4, 360000, Note_on_c, 0, 62, 0
4, 360000, Note_on_c, 0, 54, 0
4, 360000, Note_on_c, 0, 57, 0
4, 360000, Note_on_c, 0, 60, 0
4, 360000, Note_on_c, 0, 31, 0
4, 360000, Note_on_c, 0, 38, 0
4, 360000, Note_on_c, 0, 51, 53
4, 360000, Note_on_c, 0, 55, 53
4, 360000, Note_on_c, 0, 60, 53
4, 360000, Note_on_c, 0, 63, 53
4, 360000, Note_on_c, 0, 31, 49
4, 360000, Note_on_c, 0, 36, 49
4, 360000, Note_on_c, 0, 43, 49
4, 360307, Note_on_c, 0, 43, 0
4, 360307, Note_on_c, 0, 31, 0
4, 360307, Note_on_c, 0, 36, 0
4, 360307, Note_on_c, 0, 24, 43
4, 360307, Note_on_c, 0, 31, 43
4, 360321, Note_on_c, 0, 31, 0
4, 360321, Note_on_c, 0, 24, 0
4, 360321, Note_on_c, 0, 36, 47
4, 360333, Note_on_c, 0, 36, 0
4, 360333, Note_on_c, 0, 24, 47
4, 360333, Note_on_c, 0, 31, 47
4, 360349, Note_on_c, 0, 31, 0
4, 360349, Note_on_c, 0, 24, 0
4, 360349, Note_on_c, 0, 36, 57
4, 360360, Note_on_c, 0, 36, 0
4, 360360, Note_on_c, 0, 24, 48
4, 360360, Note_on_c, 0, 31, 48
4, 361080, Note_on_c, 0, 31, 0
4, 361080, Note_on_c, 0, 55, 0
4, 361080, Note_on_c, 0, 63, 0
4, 361080, Note_on_c, 0, 51, 0
4, 361080, Note_on_c, 0, 24, 0
4, 361080, Note_on_c, 0, 60, 0
4, 361080, Note_on_c, 0, 53, 49
4, 361080, Note_on_c, 0, 56, 49
4, 361080, Note_on_c, 0, 60, 49
4, 361080, Note_on_c, 0, 62, 49
4, 361080, Note_on_c, 0, 31, 56
4, 361080, Note_on_c, 0, 38, 56
4, 361080, Note_on_c, 0, 43, 56
4, 361440, Note_on_c, 0, 43, 0
4, 361440, Note_on_c, 0, 31, 0
4, 361440, Note_on_c, 0, 56, 0
4, 361440, Note_on_c, 0, 60, 0
4, 361440, Note_on_c, 0, 53, 0
4, 361440, Note_on_c, 0, 38, 0
4, 361440, Note_on_c, 0, 62, 0
4, 361440, Note_on_c, 0, 51, 55
4, 361440, Note_on_c, 0, 55, 55
4, 361440, Note_on_c, 0, 60, 55
4, 361440, Note_on_c, 0, 63, 55
4, 361440, Note_on_c, 0, 31, 50
4, 361440, Note_on_c, 0, 36, 50
4, 361440, Note_on_c, 0, 43, 50
4, 361747, Note_on_c, 0, 43, 0
4, 361747, Note_on_c, 0, 31, 0
4, 361747, Note_on_c, 0, 36, 0
4, 361747, Note_on_c, 0, 24, 39
4, 361747, Note_on_c, 0, 31, 39
4, 361761, Note_on_c, 0, 31, 0
4, 361761, Note_on_c, 0, 24, 0
4, 361761, Note_on_c, 0, 36, 57
4, 361773, Note_on_c, 0, 36, 0
4, 361773, Note_on_c, 0, 24, 47
4, 361773, Note_on_c, 0, 31, 47
4, 361789, Note_on_c, 0, 31, 0
4, 361789, Note_on_c, 0, 24, 0
4, 361789, Note_on_c, 0, 36, 52
4, 361800, Note_on_c, 0, 36, 0
4, 361800, Note_on_c, 0, 24, 46
4, 361800, Note_on_c, 0, 31, 46
4, 362520, Note_on_c, 0, 31, 0
4, 362520, Note_on_c, 0, 55, 0
4, 362520, Note_on_c, 0, 63, 0
4, 362520, Note_on_c, 0, 51, 0
4, 362520, Note_on_c, 0, 24, 0
4, 362520, Note_on_c, 0, 60, 0
4, 362520, Note_on_c, 0, 50, 47
4, 362520, Note_on_c, 0, 55, 47
4, 362520, Note_on_c, 0, 58, 47
4, 362520, Note_on_c, 0, 62, 47
4, 362520, Note_on_c, 0, 31, 56
4, 362520, Note_on_c, 0, 38, 56
4, 362520, Note_on_c, 0, 43, 56
4, 362880, Note_on_c, 0, 43, 0
4, 362880, Note_on_c, 0, 31, 0
4, 362880, Note_on_c, 0, 55, 0
4, 362880, Note_on_c, 0, 58, 0
4, 362880, Note_on_c, 0, 50, 0
4, 362880, Note_on_c, 0, 38, 0
4, 362880, Note_on_c, 0, 62, 0
4, 362880, Note_on_c, 0, 43, 46
4, 362880, Note_on_c, 0, 48, 46
4, 362880, Note_on_c, 0, 51, 46
4, 362880, Note_on_c, 0, 55, 46
4, 362880, Note_on_c, 0, 24, 45
4, 362880, Note_on_c, 0, 31, 45
4, 362880, Note_on_c, 0, 36, 45
4, 363240, Note_on_c, 0, 36, 0
4, 363240, Note_on_c, 0, 24, 0
4, 363240, Note_on_c, 0, 48, 0
4, 363240, Note_on_c, 0, 51, 0
4, 363240, Note_on_c, 0, 43, 0
4, 363240, Note_on_c, 0, 31, 0
4, 363240, Note_on_c, 0, 55, 0
4, 363240, Note_on_c, 0, 45, 53
4, 363240, Note_on_c, 0, 48, 53
4, 363240, Note_on_c, 0, 53, 53
4, 363240, Note_on_c, 0, 57, 53
4, 363240, Note_on_c, 0, 31, 53
4, 363240, Note_on_c, 0, 38, 53
4, 363240, Note_on_c, 0, 43, 53
4, 363600, Note_on_c, 0, 43, 0
4, 363600, Note_on_c, 0, 31, 0
4, 363600, Note_on_c, 0, 48, 0
4, 363600, Note_on_c, 0, 53, 0
4, 363600, Note_on_c, 0, 45, 0
4, 363600, Note_on_c, 0, 38, 0
4, 363600, Note_on_c, 0, 57, 0
4, 363600, Note_on_c, 0, 46, 51
4, 363600, Note_on_c, 0, 51, 51
4, 363600, Note_on_c, 0, 55, 51
4, 363600, Note_on_c, 0, 58, 51
4, 363600, Note_on_c, 0, 27, 44
4, 363600, Note_on_c, 0, 34, 44
4, 363600, Note_on_c, 0, 39, 44
4, 363960, Note_on_c, 0, 39, 0
4, 363960, Note_on_c, 0, 27, 0
4, 363960, Note_on_c, 0, 51, 0
4, 363960, Note_on_c, 0, 55, 0
4, 363960, Note_on_c, 0, 46, 0
4, 363960, Note_on_c, 0, 34, 0
4, 363960, Note_on_c, 0, 58, 0
4, 363960, Note_on_c, 0, 46, 49
4, 363960, Note_on_c, 0, 50, 49
4, 363960, Note_on_c, 0, 55, 49
4, 363960, Note_on_c, 0, 58, 49
4, 363960, Note_on_c, 0, 26, 47
4, 363960, Note_on_c, 0, 33, 47
4, 363960, Note_on_c, 0, 38, 47
4, 364320, Note_on_c, 0, 38, 0
4, 364320, Note_on_c, 0, 26, 0
4, 364320, Note_on_c, 0, 50, 0
4, 364320, Note_on_c, 0, 55, 0
4, 364320, Note_on_c, 0, 46, 0
4, 364320, Note_on_c, 0, 33, 0
4, 364320, Note_on_c, 0, 58, 0
4, 364320, Note_on_c, 0, 46, 50
4, 364320, Note_on_c, 0, 49, 50
4, 364320, Note_on_c, 0, 52, 50
4, 364320, Note_on_c, 0, 55, 50
4, 364320, Note_on_c, 0, 58, 50
4, 364320, Note_on_c, 0, 26, 52
4, 364320, Note_on_c, 0, 38, 52
4, 364680, Note_on_c, 0, 38, 0
4, 364680, Note_on_c, 0, 58, 0
4, 364680, Note_on_c, 0, 49, 0
4, 364680, Note_on_c, 0, 52, 0
4, 364680, Note_on_c, 0, 46, 0
4, 364680, Note_on_c, 0, 26, 0
4, 364680, Note_on_c, 0, 55, 0
4, 364680, Note_on_c, 0, 48, 47
4, 364680, Note_on_c, 0, 50, 47
4, 364680, Note_on_c, 0, 54, 47
4, 364680, Note_on_c, 0, 57, 47
4, 364680, Note_on_c, 0, 26, 46
4, 364680, Note_on_c, 0, 38, 46
4, 365040, Note_on_c, 0, 38, 0
4, 365040, Note_on_c, 0, 50, 0
4, 365040, Note_on_c, 0, 54, 0
4, 365040, Note_on_c, 0, 48, 0
4, 365040, Note_on_c, 0, 26, 0
4, 365040, Note_on_c, 0, 57, 0
4, 365040, Note_on_c, 0, 46, 47
4, 365040, Note_on_c, 0, 50, 47
4, 365040, Note_on_c, 0, 55, 47
4, 365040, Note_on_c, 0, 31, 60
4, 365040, Note_on_c, 0, 38, 60
4, 365040, Note_on_c, 0, 43, 60
4, 365400, Note_on_c, 0, 43, 0
4, 365400, Note_on_c, 0, 50, 0
4, 365400, Note_on_c, 0, 55, 0
4, 365400, Note_on_c, 0, 46, 0
4, 365400, Note_on_c, 0, 38, 0
4, 365400, Note_on_c, 0, 31, 0
4, 365400, Note_on_c, 0, 48, 51
4, 365400, Note_on_c, 0, 51, 51
4, 365400, Note_on_c, 0, 55, 51
4, 365400, Note_on_c, 0, 57, 51
4, 365400, Note_on_c, 0, 31, 50
4, 365400, Note_on_c, 0, 38, 50
4, 365400, Note_on_c, 0, 43, 50
4, 365760, Note_on_c, 0, 43, 0
4, 365760, Note_on_c, 0, 31, 0
4, 365760, Note_on_c, 0, 51, 0
4, 365760, Note_on_c, 0, 55, 0
4, 365760, Note_on_c, 0, 48, 0
4, 365760, Note_on_c, 0, 38, 0
4, 365760, Note_on_c, 0, 57, 0
4, 365760, Note_on_c, 0, 46, 51
4, 365760, Note_on_c, 0, 50, 51
4, 365760, Note_on_c, 0, 55, 51
4, 365760, Note_on_c, 0, 58, 51
4, 365760, Note_on_c, 0, 31, 52
4, 365760, Note_on_c, 0, 38, 52
4, 365760, Note_on_c, 0, 43, 52
4, 366067, Note_on_c, 0, 43, 0
4, 366067, Note_on_c, 0, 31, 0
4, 366067, Note_on_c, 0, 38, 0
4, 366067, Note_on_c, 0, 26, 44
4, 366067, Note_on_c, 0, 31, 44
4, 366081, Note_on_c, 0, 31, 0
4, 366081, Note_on_c, 0, 26, 0
4, 366081, Note_on_c, 0, 38, 54
4, 366093, Note_on_c, 0, 38, 0
4, 366093, Note_on_c, 0, 26, 44
4, 366093, Note_on_c, 0, 31, 44
4, 366109, Note_on_c, 0, 31, 0
4, 366109, Note_on_c, 0, 26, 0
4, 366109, Note_on_c, 0, 38, 56
4, 366120, Note_on_c, 0, 38, 0
4, 366120, Note_on_c, 0, 26, 44
4, 366120, Note_on_c, 0, 31, 44
4, 366840, Note_on_c, 0, 31, 0
4, 366840, Note_on_c, 0, 50, 0
4, 366840, Note_on_c, 0, 58, 0
4, 366840, Note_on_c, 0, 46, 0
4, 366840, Note_on_c, 0, 26, 0
4, 366840, Note_on_c, 0, 55, 0
4, 366840, Note_on_c, 0, 48, 50
4, 366840, Note_on_c, 0, 51, 50
4, 366840, Note_on_c, 0, 55, 50
4, 366840, Note_on_c, 0, 57, 50
4, 366840, Note_on_c, 0, 31, 52
4, 366840, Note_on_c, 0, 38, 52
4, 366840, Note_on_c, 0, 43, 52
4, 367200, Note_on_c, 0, 43, 0
4, 367200, Note_on_c, 0, 31, 0
4, 367200, Note_on_c, 0, 51, 0
4, 367200, Note_on_c, 0, 55, 0
4, 367200, Note_on_c, 0, 48, 0
4, 367200, Note_on_c, 0, 38, 0
4, 367200, Note_on_c, 0, 57, 0
4, 367200, Note_on_c, 0, 46, 56
4, 367200, Note_on_c, 0, 50, 56
4, 367200, Note_on_c, 0, 55, 56
4, 367200, Note_on_c, 0, 58, 56
4, 367200, Note_on_c, 0, 31, 55
4, 367200, Note_on_c, 0, 38, 55
4, 367200, Note_on_c, 0, 43, 55
4, 367507, Note_on_c, 0, 43, 0
4, 367507, Note_on_c, 0, 31, 0
4, 367507, Note_on_c, 0, 38, 0
4, 367507, Note_on_c, 0, 26, 43
4, 367507, Note_on_c, 0, 31, 43
4, 367521, Note_on_c, 0, 31, 0
4, 367521, Note_on_c, 0, 26, 0
4, 367521, Note_on_c, 0, 38, 49
4, 367533, Note_on_c, 0, 38, 0
4, 367533, Note_on_c, 0, 26, 51
4, 367533, Note_on_c, 0, 31, 51
4, 367549, Note_on_c, 0, 31, 0
4, 367549, Note_on_c, 0, 26, 0
4, 367549, Note_on_c, 0, 38, 53
4, 367560, Note_on_c, 0, 38, 0
4, 367560, Note_on_c, 0, 26, 49
4, 367560, Note_on_c, 0, 31, 49
4, 368280, Note_on_c, 0, 31, 0
4, 368280, Note_on_c, 0, 50, 0
4, 368280, Note_on_c, 0, 58, 0
4, 368280, Note_on_c, 0, 46, 0
4, 368280, Note_on_c, 0, 26, 0
4, 368280, Note_on_c, 0, 55, 0
4, 368280, Note_on_c, 0, 46, 50
4, 368280, Note_on_c, 0, 50, 50
4, 368280, Note_on_c, 0, 55, 50
4, 368280, Note_on_c, 0, 58, 50
4, 368280, Note_on_c, 0, 31, 60
4, 368280, Note_on_c, 0, 38, 60
4, 368280, Note_on_c, 0, 43, 60
4, 368640, Note_on_c, 0, 43, 0
4, 368640, Note_on_c, 0, 31, 0
4, 368640, Note_on_c, 0, 50, 0
4, 368640, Note_on_c, 0, 55, 0
4, 368640, Note_on_c, 0, 46, 0
4, 368640, Note_on_c, 0, 38, 0
4, 368640, Note_on_c, 0, 58, 0
4, 368640, Note_on_c, 0, 46, 51
4, 368640, Note_on_c, 0, 50, 51
4, 368640, Note_on_c, 0, 55, 51
4, 368640, Note_on_c, 0, 58, 51
4, 368640, Note_on_c, 0, 31, 49
4, 368640, Note_on_c, 0, 38, 49
4, 368640, Note_on_c, 0, 43, 49
4, 368961, Note_on_c, 0, 43, 0
4, 368961, Note_on_c, 0, 31, 0
4, 368961, Note_on_c, 0, 38, 0
4, 368961, Note_on_c, 0, 26, 43
4, 368961, Note_on_c, 0, 31, 43
4, 368970, Note_on_c, 0, 31, 0
4, 368970, Note_on_c, 0, 26, 0
4, 368970, Note_on_c, 0, 38, 53
4, 368981, Note_on_c, 0, 38, 0
4, 368981, Note_on_c, 0, 26, 52
4, 368981, Note_on_c, 0, 31, 52
4, 368992, Note_on_c, 0, 31, 0
4, 368992, Note_on_c, 0, 26, 0
4, 368992, Note_on_c, 0, 38, 52
4, 369000, Note_on_c, 0, 38, 0
4, 369000, Note_on_c, 0, 26, 47
4, 369000, Note_on_c, 0, 31, 47
4, 369720, Note_on_c, 0, 31, 0
4, 369720, Note_on_c, 0, 50, 0
4, 369720, Note_on_c, 0, 58, 0
4, 369720, Note_on_c, 0, 46, 0
4, 369720, Note_on_c, 0, 26, 0
4, 369720, Note_on_c, 0, 55, 0
4, 369720, Note_on_c, 0, 46, 48
4, 369720, Note_on_c, 0, 50, 48
4, 369720, Note_on_c, 0, 55, 48
4, 369720, Note_on_c, 0, 58, 48
4, 369720, Note_on_c, 0, 31, 57
4, 369720, Note_on_c, 0, 38, 57
4, 369720, Note_on_c, 0, 43, 57
4, 370080, Note_on_c, 0, 43, 0
4, 370080, Note_on_c, 0, 31, 0
4, 370080, Note_on_c, 0, 50, 0
4, 370080, Note_on_c, 0, 55, 0
4, 370080, Note_on_c, 0, 46, 0
4, 370080, Note_on_c, 0, 38, 0
4, 370080, Note_on_c, 0, 58, 0
4, 370080, Note_on_c, 0, 46, 51
4, 370080, Note_on_c, 0, 50, 51
4, 370080, Note_on_c, 0, 55, 51
4, 370080, Note_on_c, 0, 58, 51
4, 370080, Note_on_c, 0, 31, 49
4, 370080, Note_on_c, 0, 38, 49
4, 370080, Note_on_c, 0, 43, 49
4, 371520, Note_on_c, 0, 43, 0
4, 371520, Note_on_c, 0, 31, 0
4, 371520, Note_on_c, 0, 50, 0
4, 371520, Note_on_c, 0, 55, 0
4, 371520, Note_on_c, 0, 46, 0
4, 371520, Note_on_c, 0, 38, 0
4, 371520, Note_on_c, 0, 58, 0
4, 371520, End_track
0, 0, End_of_file
