0, 0, Header, 1, 2, 360
1, 0, Start_track
1, 0, Title_t, "untitled"
1, 0, Time_signature, 12, 3, 12, 8
1, 0, Key_signature, 0, "major"
1, 0, Tempo, 600000
1, 90, Tempo, 352941
1, 5940, Tempo, 352941
1, 6098, Tempo, 358230
1, 6255, Tempo, 363680
1, 6570, Tempo, 375094
1, 6728, Tempo, 381073
1, 6885, Tempo, 387247
1, 7043, Tempo, 393623
1, 7200, Tempo, 400213
1, 7358, Tempo, 407028
1, 7515, Tempo, 414079
1, 7673, Tempo, 421378
1, 7830, Tempo, 428939
1, 7988, Tempo, 436777
1, 8145, Tempo, 444873
1, 8303, Tempo, 453309
1, 8460, Tempo, 462072
1, 8639, Tempo, 472441
1, 8640, Tempo, 352941
1, 20520, Tempo, 352941
1, 20583, Tempo, 358252
1, 20647, Tempo, 363747
1, 20710, Tempo, 369390
1, 20773, Tempo, 375211
1, 20837, Tempo, 381219
1, 20900, Tempo, 387447
1, 20963, Tempo, 393856
1, 21026, Tempo, 400481
1, 21090, Tempo, 407360
1, 21153, Tempo, 414451
1, 21216, Tempo, 421793
1, 21279, Tempo, 429400
1, 21343, Tempo, 437318
1, 21406, Tempo, 445500
1, 21469, Tempo, 453995
1, 21533, Tempo, 462856
1, 21599, Tempo, 472441
1, 21600, Tempo, 352941
1, 23940, Tempo, 387097
1, 25920, Time_signature, 9, 3, 12, 8
1, 27540, Time_signature, 12, 3, 12, 8
1, 29700, Time_signature, 9, 3, 12, 8
1, 32400, Tempo, 379747
1, 32940, Tempo, 372671
1, 33480, Tempo, 365854
1, 34020, Tempo, 359281
1, 34560, Tempo, 352941
1, 39420, Tempo, 338028
1, 50760, Tempo, 352941
1, 52380, Time_signature, 12, 3, 12, 8
1, 52380, Tempo, 369231
1, 54000, Tempo, 369231
1, 56700, Tempo, 352941
1, 61020, Time_signature, 9, 3, 12, 8
1, 64260, Time_signature, 12, 3, 12, 8
1, 64260, Tempo, 324324
1, 71280, Tempo, 483871
1, 72900, Tempo, 550459
1, 76680, Tempo, 550459
1, 76809, Tempo, 558867
1, 76939, Tempo, 567537
1, 77068, Tempo, 576424
1, 77327, Tempo, 595179
1, 77456, Tempo, 605022
1, 77586, Tempo, 615132
1, 77715, Tempo, 625652
1, 77844, Tempo, 636537
1, 77974, Tempo, 647808
1, 78103, Tempo, 659413
1, 78233, Tempo, 671517
1, 78300, Tempo, 1290323
1, 78362, Tempo, 684073
1, 78491, Tempo, 697107
1, 78621, Tempo, 710564
1, 78750, Tempo, 724638
1, 78892, Tempo, 740741
1, 78930, Tempo, 1379310
1, 79020, Tempo, 1481481
1, 79110, Tempo, 1600000
1, 79200, Tempo, 1739130
1, 79290, Tempo, 1904762
1, 79380, Tempo, 352941
1, 81450, Tempo, 5000000
1, 81540, Tempo, 352941
1, 81540, End_track
2, 0, Start_track
2, 0, Title_t, "Piano"
2, 0, Program_c, 0, 0
2, 0, Control_c, 0, 7, 115
2, 0, Control_c, 0, 10, 64
2, 0, Control_c, 0, 91, 60
2, 0, Control_c, 0, 121, 0
2, 0, Control_c, 0, 121, 0
2, 0, Control_c, 0, 91, 60
2, 0, Control_c, 0, 10, 51
2, 0, Control_c, 0, 7, 100
2, 0, Note_on_c, 0, 72, 42
2, 0, Control_c, 0, 64, 127
2, 0, Note_on_c, 0, 36, 44
2, 0, Note_on_c, 0, 43, 44
2, 0, Note_on_c, 0, 48, 44
2, 90, Note_on_c, 0, 72, 0
2, 90, Note_on_c, 0, 67, 43
2, 180, Note_on_c, 0, 67, 0
2, 180, Note_on_c, 0, 60, 41
2, 360, Note_on_c, 0, 60, 0
2, 360, Note_on_c, 0, 72, 65
2, 450, Note_on_c, 0, 72, 0
2, 450, Note_on_c, 0, 67, 43
2, 540, Note_on_c, 0, 67, 0
2, 540, Note_on_c, 0, 72, 56
2, 630, Note_on_c, 0, 72, 0
2, 630, Note_on_c, 0, 67, 44
2, 720, Note_on_c, 0, 67, 0
2, 720, Note_on_c, 0, 60, 44
2, 900, Note_on_c, 0, 60, 0
2, 900, Note_on_c, 0, 72, 65
2, 990, Note_on_c, 0, 72, 0
2, 990, Note_on_c, 0, 67, 46
2, 1080, Note_on_c, 0, 67, 0
2, 1080, Note_on_c, 0, 72, 54
2, 1170, Note_on_c, 0, 72, 0
2, 1170, Note_on_c, 0, 67, 41
2, 1260, Note_on_c, 0, 67, 0
2, 1260, Note_on_c, 0, 60, 40
2, 1440, Note_on_c, 0, 60, 0
2, 1440, Note_on_c, 0, 72, 59
2, 1530, Note_on_c, 0, 72, 0
2, 1530, Note_on_c, 0, 67, 46
2, 1620, Note_on_c, 0, 67, 0
2, 1620, Note_on_c, 0, 72, 50
2, 1710, Note_on_c, 0, 72, 0
2, 1710, Note_on_c, 0, 67, 55
2, 1800, Note_on_c, 0, 67, 0
2, 1800, Note_on_c, 0, 60, 60
2, 1980, Note_on_c, 0, 60, 0
2, 1980, Note_on_c, 0, 72, 71
2, 2070, Note_on_c, 0, 72, 0
2, 2070, Note_on_c, 0, 67, 76
2, 2160, Note_on_c, 0, 67, 0
2, 2160, Note_on_c, 0, 48, 0
2, 2160, Note_on_c, 0, 43, 0
2, 2160, Note_on_c, 0, 36, 0
2, 2160, Note_on_c, 0, 72, 122
2, 2160, Control_c, 0, 64, 0
2, 2160, Control_c, 0, 64, 127
2, 2160, Note_on_c, 0, 68, 59
2, 2160, Note_on_c, 0, 75, 59
2, 2250, Note_on_c, 0, 75, 0
2, 2250, Note_on_c, 0, 68, 0
2, 2250, Note_on_c, 0, 63, 37
2, 2340, Note_on_c, 0, 63, 0
2, 2340, Note_on_c, 0, 60, 50
2, 2520, Note_on_c, 0, 60, 0
2, 2520, Note_on_c, 0, 68, 59
2, 2520, Note_on_c, 0, 75, 59
2, 2610, Note_on_c, 0, 75, 0
2, 2610, Note_on_c, 0, 68, 0
2, 2610, Note_on_c, 0, 63, 42
2, 2634, Note_on_c, 0, 72, 0
2, 2700, Note_on_c, 0, 63, 0
2, 2700, Note_on_c, 0, 84, 127
2, 2700, Note_on_c, 0, 68, 62
2, 2700, Note_on_c, 0, 75, 62
2, 2790, Note_on_c, 0, 75, 0
2, 2790, Note_on_c, 0, 68, 0
2, 2790, Control_c, 0, 64, 0
2, 2790, Note_on_c, 0, 63, 34
2, 2880, Note_on_c, 0, 63, 0
2, 2880, Note_on_c, 0, 60, 47
2, 3060, Note_on_c, 0, 60, 0
2, 3060, Note_on_c, 0, 68, 63
2, 3060, Note_on_c, 0, 75, 63
2, 3150, Note_on_c, 0, 75, 0
2, 3150, Note_on_c, 0, 68, 0
2, 3150, Note_on_c, 0, 63, 40
2, 3240, Note_on_c, 0, 63, 0
2, 3240, Note_on_c, 0, 68, 62
2, 3240, Note_on_c, 0, 75, 62
2, 3330, Note_on_c, 0, 75, 0
2, 3330, Note_on_c, 0, 68, 0
2, 3330, Note_on_c, 0, 63, 37
2, 3420, Note_on_c, 0, 63, 0
2, 3420, Note_on_c, 0, 60, 44
2, 3600, Note_on_c, 0, 60, 0
2, 3600, Note_on_c, 0, 84, 0
2, 3600, Note_on_c, 0, 82, 96
2, 3600, Note_on_c, 0, 68, 65
2, 3600, Note_on_c, 0, 75, 65
2, 3690, Note_on_c, 0, 75, 0
2, 3690, Note_on_c, 0, 68, 0
2, 3690, Note_on_c, 0, 63, 40
2, 3700, Note_on_c, 0, 82, 96
2, 3741, Note_on_c, 0, 82, 0
2, 3741, Note_on_c, 0, 84, 104
2, 3780, Note_on_c, 0, 84, 0
2, 3780, Note_on_c, 0, 82, 0
2, 3780, Note_on_c, 0, 63, 0
2, 3780, Note_on_c, 0, 82, 93
2, 3780, Note_on_c, 0, 68, 60
2, 3780, Note_on_c, 0, 75, 60
2, 3870, Note_on_c, 0, 75, 0
2, 3870, Note_on_c, 0, 68, 0
2, 3870, Note_on_c, 0, 65, 36
2, 3960, Note_on_c, 0, 65, 0
2, 3960, Note_on_c, 0, 82, 0
2, 3960, Note_on_c, 0, 80, 89
2, 3960, Note_on_c, 0, 60, 42
2, 4140, Note_on_c, 0, 60, 0
2, 4140, Note_on_c, 0, 80, 0
2, 4140, Note_on_c, 0, 79, 87
2, 4140, Note_on_c, 0, 68, 61
2, 4140, Note_on_c, 0, 75, 61
2, 4230, Note_on_c, 0, 75, 0
2, 4230, Note_on_c, 0, 68, 0
2, 4230, Note_on_c, 0, 65, 40
2, 4320, Note_on_c, 0, 65, 0
2, 4320, Note_on_c, 0, 79, 0
2, 4320, Note_on_c, 0, 79, 97
2, 4320, Control_c, 0, 64, 127
2, 4320, Note_on_c, 0, 75, 61
2, 4410, Note_on_c, 0, 75, 0
2, 4410, Note_on_c, 0, 67, 40
2, 4500, Note_on_c, 0, 67, 0
2, 4500, Note_on_c, 0, 60, 38
2, 4680, Note_on_c, 0, 60, 0
2, 4680, Note_on_c, 0, 75, 63
2, 4770, Note_on_c, 0, 75, 0
2, 4770, Note_on_c, 0, 67, 43
2, 4794, Note_on_c, 0, 79, 0
2, 4860, Note_on_c, 0, 67, 0
2, 4860, Note_on_c, 0, 72, 72
2, 4860, Note_on_c, 0, 75, 64
2, 4950, Note_on_c, 0, 75, 0
2, 4950, Control_c, 0, 64, 0
2, 4950, Note_on_c, 0, 67, 45
2, 5040, Note_on_c, 0, 67, 0
2, 5040, Note_on_c, 0, 60, 40
2, 5220, Note_on_c, 0, 60, 0
2, 5220, Note_on_c, 0, 75, 59
2, 5310, Note_on_c, 0, 75, 0
2, 5310, Note_on_c, 0, 67, 41
2, 5400, Note_on_c, 0, 67, 0
2, 5400, Note_on_c, 0, 75, 57
2, 5490, Note_on_c, 0, 75, 0
2, 5490, Note_on_c, 0, 67, 41
2, 5580, Note_on_c, 0, 67, 0
2, 5580, Note_on_c, 0, 60, 40
2, 5760, Note_on_c, 0, 60, 0
2, 5760, Note_on_c, 0, 75, 61
2, 5850, Note_on_c, 0, 75, 0
2, 5850, Note_on_c, 0, 67, 42
2, 5940, Note_on_c, 0, 67, 0
2, 5940, Note_on_c, 0, 72, 0
2, 5940, Note_on_c, 0, 70, 72
2, 5940, Note_on_c, 0, 75, 63
2, 6030, Note_on_c, 0, 75, 0
2, 6030, Note_on_c, 0, 66, 41
2, 6120, Note_on_c, 0, 66, 0
2, 6120, Note_on_c, 0, 60, 48
2, 6300, Note_on_c, 0, 60, 0
2, 6300, Note_on_c, 0, 70, 0
2, 6300, Note_on_c, 0, 69, 97
2, 6300, Note_on_c, 0, 75, 62
2, 6390, Note_on_c, 0, 75, 0
2, 6390, Note_on_c, 0, 66, 44
2, 6480, Note_on_c, 0, 66, 0
2, 6480, Note_on_c, 0, 77, 101
2, 6480, Control_c, 0, 64, 127
2, 6480, Note_on_c, 0, 75, 61
2, 6570, Note_on_c, 0, 75, 0
2, 6570, Note_on_c, 0, 65, 38
2, 6660, Note_on_c, 0, 65, 0
2, 6660, Note_on_c, 0, 60, 41
2, 6840, Note_on_c, 0, 60, 0
2, 6840, Note_on_c, 0, 75, 66
2, 6930, Note_on_c, 0, 75, 0
2, 6930, Note_on_c, 0, 65, 43
2, 6954, Note_on_c, 0, 77, 0
2, 7020, Note_on_c, 0, 65, 0
2, 7020, Note_on_c, 0, 72, 76
2, 7020, Control_c, 0, 64, 0
2, 7020, Note_on_c, 0, 75, 62
2, 7110, Note_on_c, 0, 75, 0
2, 7110, Note_on_c, 0, 65, 39
2, 7200, Note_on_c, 0, 65, 0
2, 7200, Note_on_c, 0, 60, 44
2, 7380, Note_on_c, 0, 60, 0
2, 7380, Note_on_c, 0, 75, 64
2, 7470, Note_on_c, 0, 75, 0
2, 7470, Note_on_c, 0, 65, 43
2, 7560, Note_on_c, 0, 65, 0
2, 7560, Note_on_c, 0, 69, 0
2, 7560, Note_on_c, 0, 68, 62
2, 7560, Note_on_c, 0, 75, 62
2, 7650, Note_on_c, 0, 75, 0
2, 7650, Note_on_c, 0, 68, 0
2, 7650, Note_on_c, 0, 66, 42
2, 7740, Note_on_c, 0, 66, 0
2, 7740, Note_on_c, 0, 60, 43
2, 7920, Note_on_c, 0, 60, 0
2, 7920, Note_on_c, 0, 68, 62
2, 7920, Note_on_c, 0, 75, 62
2, 8010, Note_on_c, 0, 75, 0
2, 8010, Note_on_c, 0, 68, 0
2, 8010, Note_on_c, 0, 66, 36
2, 8100, Note_on_c, 0, 66, 0
2, 8100, Note_on_c, 0, 75, 61
2, 8190, Note_on_c, 0, 75, 0
2, 8190, Note_on_c, 0, 67, 38
2, 8280, Note_on_c, 0, 67, 0
2, 8280, Note_on_c, 0, 60, 39
2, 8460, Note_on_c, 0, 60, 0
2, 8460, Note_on_c, 0, 75, 63
2, 8550, Note_on_c, 0, 75, 0
2, 8550, Note_on_c, 0, 67, 42
2, 8640, Note_on_c, 0, 67, 0
2, 8640, Note_on_c, 0, 72, 0
2, 8640, Note_on_c, 0, 72, 44
2, 8640, Control_c, 0, 64, 127
2, 8640, Note_on_c, 0, 36, 41
2, 8640, Note_on_c, 0, 43, 41
2, 8640, Note_on_c, 0, 48, 41
2, 8730, Note_on_c, 0, 72, 0
2, 8730, Note_on_c, 0, 67, 42
2, 8820, Note_on_c, 0, 67, 0
2, 8820, Note_on_c, 0, 60, 41
2, 9000, Note_on_c, 0, 60, 0
2, 9000, Note_on_c, 0, 72, 64
2, 9090, Note_on_c, 0, 72, 0
2, 9090, Note_on_c, 0, 67, 48
2, 9180, Note_on_c, 0, 67, 0
2, 9180, Note_on_c, 0, 72, 52
2, 9270, Note_on_c, 0, 72, 0
2, 9270, Note_on_c, 0, 67, 40
2, 9360, Note_on_c, 0, 67, 0
2, 9360, Note_on_c, 0, 60, 37
2, 9540, Note_on_c, 0, 60, 0
2, 9540, Note_on_c, 0, 72, 64
2, 9630, Note_on_c, 0, 72, 0
2, 9630, Note_on_c, 0, 67, 42
2, 9720, Note_on_c, 0, 67, 0
2, 9720, Note_on_c, 0, 72, 50
2, 9810, Note_on_c, 0, 72, 0
2, 9810, Note_on_c, 0, 67, 52
2, 9900, Note_on_c, 0, 67, 0
2, 9900, Note_on_c, 0, 60, 55
2, 10080, Note_on_c, 0, 60, 0
2, 10080, Note_on_c, 0, 72, 59
2, 10170, Note_on_c, 0, 72, 0
2, 10170, Note_on_c, 0, 67, 61
2, 10260, Note_on_c, 0, 67, 0
2, 10260, Note_on_c, 0, 72, 63
2, 10350, Note_on_c, 0, 72, 0
2, 10350, Note_on_c, 0, 67, 65
2, 10440, Note_on_c, 0, 67, 0
2, 10440, Note_on_c, 0, 60, 67
2, 10620, Note_on_c, 0, 60, 0
2, 10620, Note_on_c, 0, 72, 71
2, 10710, Note_on_c, 0, 72, 0
2, 10710, Note_on_c, 0, 67, 74
2, 10800, Note_on_c, 0, 67, 0
2, 10800, Note_on_c, 0, 48, 0
2, 10800, Note_on_c, 0, 43, 0
2, 10800, Note_on_c, 0, 36, 0
2, 10800, Note_on_c, 0, 72, 120
2, 10800, Control_c, 0, 64, 0
2, 10800, Control_c, 0, 64, 127
2, 10800, Note_on_c, 0, 68, 61
2, 10800, Note_on_c, 0, 75, 61
2, 10890, Note_on_c, 0, 75, 0
2, 10890, Note_on_c, 0, 68, 0
2, 10890, Note_on_c, 0, 63, 41
2, 10980, Note_on_c, 0, 63, 0
2, 10980, Note_on_c, 0, 60, 41
2, 11117, Note_on_c, 0, 72, 0
2, 11160, Note_on_c, 0, 60, 0
2, 11160, Note_on_c, 0, 84, 127
2, 11160, Note_on_c, 0, 68, 64
2, 11160, Note_on_c, 0, 75, 64
2, 11250, Note_on_c, 0, 75, 0
2, 11250, Note_on_c, 0, 68, 0
2, 11250, Note_on_c, 0, 63, 39
2, 11340, Note_on_c, 0, 63, 0
2, 11340, Note_on_c, 0, 68, 65
2, 11340, Note_on_c, 0, 75, 65
2, 11430, Note_on_c, 0, 75, 0
2, 11430, Note_on_c, 0, 68, 0
2, 11430, Note_on_c, 0, 63, 38
2, 11520, Note_on_c, 0, 63, 0
2, 11520, Note_on_c, 0, 60, 41
2, 11700, Note_on_c, 0, 60, 0
2, 11700, Note_on_c, 0, 84, 0
2, 11700, Note_on_c, 0, 82, 91
2, 11700, Note_on_c, 0, 68, 64
2, 11700, Note_on_c, 0, 75, 64
2, 11790, Note_on_c, 0, 75, 0
2, 11790, Note_on_c, 0, 68, 0
2, 11790, Note_on_c, 0, 63, 43
2, 11800, Note_on_c, 0, 82, 96
2, 11841, Note_on_c, 0, 82, 0
2, 11841, Note_on_c, 0, 84, 101
2, 11880, Note_on_c, 0, 84, 0
2, 11880, Note_on_c, 0, 82, 0
2, 11880, Note_on_c, 0, 63, 0
2, 11880, Note_on_c, 0, 82, 105
2, 11880, Note_on_c, 0, 68, 66
2, 11880, Note_on_c, 0, 75, 66
2, 11970, Note_on_c, 0, 75, 0
2, 11970, Note_on_c, 0, 68, 0
2, 11970, Note_on_c, 0, 64, 40
2, 12038, Note_on_c, 0, 82, 0
2, 12060, Note_on_c, 0, 64, 0
2, 12060, Note_on_c, 0, 80, 95
2, 12060, Note_on_c, 0, 60, 45
2, 12240, Note_on_c, 0, 60, 0
2, 12240, Note_on_c, 0, 80, 0
2, 12240, Note_on_c, 0, 79, 92
2, 12240, Note_on_c, 0, 68, 63
2, 12240, Note_on_c, 0, 75, 63
2, 12330, Note_on_c, 0, 75, 0
2, 12330, Note_on_c, 0, 68, 0
2, 12330, Note_on_c, 0, 64, 40
2, 12420, Note_on_c, 0, 64, 0
2, 12420, Note_on_c, 0, 79, 0
2, 12420, Note_on_c, 0, 80, 97
2, 12420, Control_c, 0, 64, 0
2, 12420, Note_on_c, 0, 68, 60
2, 12420, Note_on_c, 0, 75, 60
2, 12510, Note_on_c, 0, 75, 0
2, 12510, Note_on_c, 0, 68, 0
2, 12510, Note_on_c, 0, 65, 45
2, 12600, Note_on_c, 0, 65, 0
2, 12600, Note_on_c, 0, 60, 42
2, 12737, Note_on_c, 0, 80, 0
2, 12780, Note_on_c, 0, 60, 0
2, 12780, Note_on_c, 0, 77, 72
2, 12780, Note_on_c, 0, 68, 57
2, 12780, Note_on_c, 0, 75, 57
2, 12870, Note_on_c, 0, 75, 0
2, 12870, Note_on_c, 0, 68, 0
2, 12870, Note_on_c, 0, 65, 44
2, 12960, Note_on_c, 0, 65, 0
2, 12960, Note_on_c, 0, 77, 0
2, 12960, Note_on_c, 0, 79, 101
2, 12960, Control_c, 0, 64, 127
2, 12960, Note_on_c, 0, 75, 61
2, 13050, Note_on_c, 0, 75, 0
2, 13050, Note_on_c, 0, 67, 40
2, 13140, Note_on_c, 0, 67, 0
2, 13140, Note_on_c, 0, 60, 34
2, 13320, Note_on_c, 0, 60, 0
2, 13320, Note_on_c, 0, 75, 62
2, 13410, Note_on_c, 0, 75, 0
2, 13410, Note_on_c, 0, 67, 47
2, 13434, Note_on_c, 0, 79, 0
2, 13500, Note_on_c, 0, 67, 0
2, 13500, Note_on_c, 0, 72, 58
2, 13500, Note_on_c, 0, 75, 59
2, 13590, Note_on_c, 0, 75, 0
2, 13590, Control_c, 0, 64, 0
2, 13590, Note_on_c, 0, 68, 41
2, 13680, Note_on_c, 0, 68, 0
2, 13680, Note_on_c, 0, 60, 40
2, 13860, Note_on_c, 0, 60, 0
2, 13860, Note_on_c, 0, 75, 64
2, 13950, Note_on_c, 0, 75, 0
2, 13950, Note_on_c, 0, 68, 44
2, 14040, Note_on_c, 0, 68, 0
2, 14040, Note_on_c, 0, 75, 61
2, 14130, Note_on_c, 0, 75, 0
2, 14130, Note_on_c, 0, 67, 42
2, 14220, Note_on_c, 0, 67, 0
2, 14220, Note_on_c, 0, 60, 39
2, 14400, Note_on_c, 0, 60, 0
2, 14400, Note_on_c, 0, 75, 63
2, 14490, Note_on_c, 0, 75, 0
2, 14490, Note_on_c, 0, 67, 42
2, 14580, Note_on_c, 0, 67, 0
2, 14580, Note_on_c, 0, 72, 0
2, 14580, Note_on_c, 0, 70, 58
2, 14580, Note_on_c, 0, 75, 56
2, 14670, Note_on_c, 0, 75, 0
2, 14670, Note_on_c, 0, 66, 38
2, 14760, Note_on_c, 0, 66, 0
2, 14760, Note_on_c, 0, 60, 41
2, 14940, Note_on_c, 0, 60, 0
2, 14940, Note_on_c, 0, 70, 0
2, 14940, Note_on_c, 0, 69, 33
2, 14940, Note_on_c, 0, 75, 58
2, 15030, Note_on_c, 0, 75, 0
2, 15030, Note_on_c, 0, 66, 39
2, 15120, Note_on_c, 0, 66, 0
2, 15120, Note_on_c, 0, 77, 25
2, 15120, Control_c, 0, 64, 127
2, 15120, Note_on_c, 0, 75, 64
2, 15210, Note_on_c, 0, 75, 0
2, 15210, Note_on_c, 0, 65, 39
2, 15300, Note_on_c, 0, 65, 0
2, 15300, Note_on_c, 0, 60, 38
2, 15480, Note_on_c, 0, 60, 0
2, 15480, Note_on_c, 0, 75, 63
2, 15570, Note_on_c, 0, 75, 0
2, 15570, Note_on_c, 0, 65, 40
2, 15594, Note_on_c, 0, 77, 0
2, 15660, Note_on_c, 0, 65, 0
2, 15660, Note_on_c, 0, 72, 0
2, 15660, Note_on_c, 0, 72, 0
2, 15660, Note_on_c, 0, 75, 65
2, 15750, Note_on_c, 0, 75, 0
2, 15750, Control_c, 0, 64, 0
2, 15750, Note_on_c, 0, 65, 41
2, 15840, Note_on_c, 0, 65, 0
2, 15840, Note_on_c, 0, 60, 40
2, 16020, Note_on_c, 0, 60, 0
2, 16020, Note_on_c, 0, 75, 65
2, 16110, Note_on_c, 0, 75, 0
2, 16110, Note_on_c, 0, 65, 42
2, 16200, Note_on_c, 0, 65, 0
2, 16200, Note_on_c, 0, 69, 0
2, 16200, Note_on_c, 0, 68, 62
2, 16200, Note_on_c, 0, 75, 62
2, 16290, Note_on_c, 0, 75, 0
2, 16290, Note_on_c, 0, 68, 0
2, 16290, Note_on_c, 0, 66, 44
2, 16380, Note_on_c, 0, 66, 0
2, 16380, Note_on_c, 0, 60, 37
2, 16560, Note_on_c, 0, 60, 0
2, 16560, Note_on_c, 0, 68, 60
2, 16560, Note_on_c, 0, 75, 60
2, 16650, Note_on_c, 0, 75, 0
2, 16650, Note_on_c, 0, 68, 0
2, 16650, Note_on_c, 0, 66, 40
2, 16740, Note_on_c, 0, 66, 0
2, 16740, Note_on_c, 0, 75, 58
2, 16830, Note_on_c, 0, 75, 0
2, 16830, Note_on_c, 0, 67, 42
2, 16920, Note_on_c, 0, 67, 0
2, 16920, Note_on_c, 0, 60, 36
2, 17100, Note_on_c, 0, 60, 0
2, 17100, Note_on_c, 0, 75, 59
2, 17190, Note_on_c, 0, 75, 0
2, 17190, Note_on_c, 0, 67, 38
2, 17280, Note_on_c, 0, 67, 0
2, 17280, Note_on_c, 0, 72, 0
2, 17280, Note_on_c, 0, 72, 0
2, 17280, Note_on_c, 0, 72, 46
2, 17280, Control_c, 0, 64, 127
2, 17280, Note_on_c, 0, 36, 40
2, 17280, Note_on_c, 0, 43, 40
2, 17280, Note_on_c, 0, 48, 40
2, 17370, Note_on_c, 0, 72, 0
2, 17370, Note_on_c, 0, 67, 42
2, 17460, Note_on_c, 0, 67, 0
2, 17460, Note_on_c, 0, 60, 38
2, 17640, Note_on_c, 0, 60, 0
2, 17640, Note_on_c, 0, 72, 63
2, 17730, Note_on_c, 0, 72, 0
2, 17730, Note_on_c, 0, 67, 49
2, 17820, Note_on_c, 0, 67, 0
2, 17820, Note_on_c, 0, 72, 58
2, 17910, Note_on_c, 0, 72, 0
2, 17910, Note_on_c, 0, 67, 44
2, 18000, Note_on_c, 0, 67, 0
2, 18000, Note_on_c, 0, 60, 41
2, 18180, Note_on_c, 0, 60, 0
2, 18180, Note_on_c, 0, 72, 60
2, 18180, Control_c, 0, 64, 0
2, 18270, Note_on_c, 0, 72, 0
2, 18270, Note_on_c, 0, 67, 47
2, 18360, Note_on_c, 0, 67, 0
2, 18360, Note_on_c, 0, 72, 55
2, 18450, Note_on_c, 0, 72, 0
2, 18450, Note_on_c, 0, 67, 40
2, 18540, Note_on_c, 0, 67, 0
2, 18540, Note_on_c, 0, 60, 36
2, 18720, Note_on_c, 0, 60, 0
2, 18720, Note_on_c, 0, 72, 63
2, 18810, Note_on_c, 0, 72, 0
2, 18810, Note_on_c, 0, 67, 46
2, 18900, Note_on_c, 0, 67, 0
2, 18900, Note_on_c, 0, 72, 55
2, 18900, Note_on_c, 0, 58, 75
2, 18990, Note_on_c, 0, 72, 0
2, 18990, Note_on_c, 0, 66, 46
2, 19080, Note_on_c, 0, 66, 0
2, 19080, Note_on_c, 0, 60, 43
2, 19260, Note_on_c, 0, 60, 0
2, 19260, Note_on_c, 0, 58, 0
2, 19260, Note_on_c, 0, 72, 62
2, 19260, Note_on_c, 0, 57, 80
2, 19350, Note_on_c, 0, 72, 0
2, 19350, Note_on_c, 0, 67, 44
2, 19440, Note_on_c, 0, 67, 0
2, 19440, Note_on_c, 0, 36, 0
2, 19440, Note_on_c, 0, 48, 0
2, 19440, Note_on_c, 0, 43, 0
2, 19440, Note_on_c, 0, 65, 58
2, 19440, Control_c, 0, 64, 127
2, 19440, Note_on_c, 0, 72, 65
2, 19530, Note_on_c, 0, 72, 0
2, 19530, Note_on_c, 0, 63, 44
2, 19620, Note_on_c, 0, 63, 0
2, 19620, Note_on_c, 0, 60, 44
2, 19800, Note_on_c, 0, 60, 0
2, 19800, Note_on_c, 0, 72, 65
2, 19890, Note_on_c, 0, 72, 0
2, 19890, Note_on_c, 0, 63, 40
2, 19914, Note_on_c, 0, 65, 0
2, 19980, Note_on_c, 0, 63, 0
2, 19980, Note_on_c, 0, 60, 43
2, 19980, Note_on_c, 0, 72, 60
2, 20070, Note_on_c, 0, 72, 0
2, 20070, Control_c, 0, 64, 0
2, 20070, Note_on_c, 0, 63, 41
2, 20160, Note_on_c, 0, 63, 0
2, 20160, Note_on_c, 0, 60, 48
2, 20340, Note_on_c, 0, 60, 0
2, 20340, Note_on_c, 0, 72, 63
2, 20430, Note_on_c, 0, 72, 0
2, 20430, Note_on_c, 0, 63, 41
2, 20520, Note_on_c, 0, 63, 0
2, 20520, Note_on_c, 0, 72, 50
2, 20610, Note_on_c, 0, 72, 0
2, 20610, Note_on_c, 0, 63, 48
2, 20700, Note_on_c, 0, 63, 0
2, 20700, Note_on_c, 0, 60, 46
2, 20880, Note_on_c, 0, 60, 0
2, 20880, Note_on_c, 0, 72, 41
2, 20970, Note_on_c, 0, 72, 0
2, 20970, Note_on_c, 0, 63, 39
2, 21060, Note_on_c, 0, 63, 0
2, 21060, Note_on_c, 0, 60, 0
2, 21060, Note_on_c, 0, 57, 0
2, 21060, Note_on_c, 0, 56, 51
2, 21060, Note_on_c, 0, 56, 78
2, 21060, Note_on_c, 0, 72, 36
2, 21150, Note_on_c, 0, 72, 0
2, 21150, Note_on_c, 0, 64, 34
2, 21150, Note_on_c, 0, 64, 66
2, 21240, Note_on_c, 0, 64, 0
2, 21240, Note_on_c, 0, 60, 32
2, 21420, Note_on_c, 0, 60, 0
2, 21420, Note_on_c, 0, 56, 0
2, 21420, Note_on_c, 0, 56, 0
2, 21420, Note_on_c, 0, 55, 51
2, 21420, Note_on_c, 0, 55, 80
2, 21420, Note_on_c, 0, 72, 27
2, 21510, Note_on_c, 0, 72, 0
2, 21510, Note_on_c, 0, 64, 0
2, 21510, Note_on_c, 0, 60, 25
2, 21600, Note_on_c, 0, 60, 0
2, 21600, Note_on_c, 0, 55, 0
2, 21600, Note_on_c, 0, 55, 0
2, 21600, Note_on_c, 0, 57, 74
2, 21600, Note_on_c, 0, 65, 74
2, 21600, Note_on_c, 0, 29, 25
2, 21651, Note_on_c, 0, 29, 0
2, 21651, Note_on_c, 0, 41, 25
2, 21690, Note_on_c, 0, 72, 45
2, 21690, Control_c, 0, 64, 127
2, 21780, Note_on_c, 0, 72, 0
2, 21780, Note_on_c, 0, 60, 36
2, 21869, Note_on_c, 0, 48, 24
2, 21960, Note_on_c, 0, 60, 0
2, 21960, Note_on_c, 0, 72, 59
2, 22050, Note_on_c, 0, 72, 0
2, 22050, Note_on_c, 0, 65, 42
2, 22140, Note_on_c, 0, 65, 0
2, 22140, Note_on_c, 0, 72, 55
2, 22230, Note_on_c, 0, 72, 0
2, 22230, Note_on_c, 0, 65, 44
2, 22320, Note_on_c, 0, 65, 0
2, 22320, Note_on_c, 0, 60, 39
2, 22500, Note_on_c, 0, 60, 0
2, 22500, Note_on_c, 0, 72, 62
2, 22590, Note_on_c, 0, 72, 0
2, 22590, Note_on_c, 0, 65, 43
2, 22680, Note_on_c, 0, 65, 0
2, 22680, Note_on_c, 0, 72, 55
2, 22770, Note_on_c, 0, 72, 0
2, 22770, Note_on_c, 0, 65, 38
2, 22860, Note_on_c, 0, 65, 0
2, 22860, Note_on_c, 0, 60, 44
2, 23040, Note_on_c, 0, 60, 0
2, 23040, Note_on_c, 0, 72, 66
2, 23040, Control_c, 0, 64, 0
2, 23130, Note_on_c, 0, 72, 0
2, 23130, Note_on_c, 0, 65, 45
2, 23220, Note_on_c, 0, 65, 0
2, 23220, Note_on_c, 0, 72, 58
2, 23310, Note_on_c, 0, 72, 0
2, 23310, Note_on_c, 0, 65, 40
2, 23400, Note_on_c, 0, 65, 0
2, 23400, Note_on_c, 0, 60, 42
2, 23580, Note_on_c, 0, 60, 0
2, 23580, Note_on_c, 0, 72, 61
2, 23670, Note_on_c, 0, 72, 0
2, 23670, Note_on_c, 0, 65, 39
2, 23760, Note_on_c, 0, 65, 0
2, 23760, Note_on_c, 0, 65, 0
2, 23760, Note_on_c, 0, 57, 0
2, 23760, Note_on_c, 0, 48, 0
2, 23947, Note_on_c, 0, 41, 0
2, 23947, Control_c, 0, 64, 127
2, 23947, Note_on_c, 0, 41, 0
2, 23947, Note_on_c, 0, 41, 0
2, 23947, Note_on_c, 0, 72, 95
2, 23947, Note_on_c, 0, 72, 0
2, 23947, Note_on_c, 0, 63, 63
2, 23947, Note_on_c, 0, 63, 0
2, 23947, Note_on_c, 0, 51, 50
2, 23947, Note_on_c, 0, 60, 66
2, 24120, Note_on_c, 0, 60, 0
2, 24120, Note_on_c, 0, 51, 0
2, 24120, Note_on_c, 0, 53, 76
2, 24120, Note_on_c, 0, 70, 91
2, 24210, Note_on_c, 0, 70, 0
2, 24210, Note_on_c, 0, 63, 60
2, 24300, Note_on_c, 0, 63, 0
2, 24300, Note_on_c, 0, 53, 0
2, 24300, Note_on_c, 0, 54, 85
2, 24300, Note_on_c, 0, 70, 81
2, 24390, Note_on_c, 0, 70, 0
2, 24390, Control_c, 0, 64, 0
2, 24390, Note_on_c, 0, 63, 60
2, 24480, Note_on_c, 0, 63, 0
2, 24480, Note_on_c, 0, 60, 62
2, 24660, Note_on_c, 0, 60, 0
2, 24660, Note_on_c, 0, 72, 88
2, 24750, Note_on_c, 0, 72, 0
2, 24750, Note_on_c, 0, 63, 58
2, 24840, Note_on_c, 0, 63, 0
2, 24840, Note_on_c, 0, 72, 83
2, 24930, Note_on_c, 0, 72, 0
2, 24930, Note_on_c, 0, 63, 54
2, 25020, Note_on_c, 0, 63, 0
2, 25020, Note_on_c, 0, 60, 62
2, 25200, Note_on_c, 0, 60, 0
2, 25200, Note_on_c, 0, 54, 0
2, 25200, Note_on_c, 0, 53, 71
2, 25200, Note_on_c, 0, 70, 86
2, 25290, Note_on_c, 0, 70, 0
2, 25290, Note_on_c, 0, 63, 61
2, 25380, Note_on_c, 0, 63, 0
2, 25380, Note_on_c, 0, 53, 0
2, 25380, Note_on_c, 0, 54, 76
2, 25380, Note_on_c, 0, 70, 79
2, 25470, Note_on_c, 0, 70, 0
2, 25470, Note_on_c, 0, 63, 60
2, 25560, Note_on_c, 0, 63, 0
2, 25560, Note_on_c, 0, 60, 59
2, 25740, Note_on_c, 0, 60, 0
2, 25740, Note_on_c, 0, 54, 0
2, 25740, Note_on_c, 0, 55, 81
2, 25740, Note_on_c, 0, 72, 89
2, 25830, Note_on_c, 0, 72, 0
2, 25830, Note_on_c, 0, 63, 58
2, 25920, Note_on_c, 0, 63, 0
2, 25920, Note_on_c, 0, 55, 0
2, 25920, Note_on_c, 0, 49, 98
2, 25920, Control_c, 0, 64, 127
2, 25920, Note_on_c, 0, 29, 41
2, 25920, Note_on_c, 0, 41, 41
2, 25993, Note_on_c, 0, 53, 98
2, 26010, Note_on_c, 0, 72, 64
2, 26066, Note_on_c, 0, 56, 98
2, 26100, Note_on_c, 0, 72, 0
2, 26100, Note_on_c, 0, 61, 51
2, 26280, Note_on_c, 0, 61, 0
2, 26280, Note_on_c, 0, 70, 80
2, 26370, Note_on_c, 0, 70, 0
2, 26370, Note_on_c, 0, 65, 64
2, 26460, Note_on_c, 0, 65, 0
2, 26460, Note_on_c, 0, 72, 84
2, 26550, Note_on_c, 0, 72, 0
2, 26550, Note_on_c, 0, 65, 58
2, 26640, Note_on_c, 0, 65, 0
2, 26640, Note_on_c, 0, 84, 78
2, 26640, Note_on_c, 0, 61, 63
2, 26820, Note_on_c, 0, 61, 0
2, 26820, Note_on_c, 0, 84, 0
2, 26820, Note_on_c, 0, 82, 80
2, 26820, Control_c, 0, 64, 0
2, 26820, Note_on_c, 0, 70, 87
2, 26910, Note_on_c, 0, 70, 0
2, 26910, Note_on_c, 0, 65, 61
2, 26927, Note_on_c, 0, 80, 83
2, 26964, Note_on_c, 0, 80, 0
2, 26964, Note_on_c, 0, 82, 83
2, 27000, Note_on_c, 0, 82, 0
2, 27000, Note_on_c, 0, 53, 0
2, 27000, Note_on_c, 0, 82, 0
2, 27000, Note_on_c, 0, 56, 0
2, 27000, Note_on_c, 0, 41, 0
2, 27000, Note_on_c, 0, 65, 0
2, 27000, Note_on_c, 0, 29, 0
2, 27000, Note_on_c, 0, 49, 0
2, 27000, Note_on_c, 0, 80, 83
2, 27000, Note_on_c, 0, 72, 81
2, 27090, Note_on_c, 0, 72, 0
2, 27090, Note_on_c, 0, 65, 60
2, 27158, Note_on_c, 0, 80, 0
2, 27180, Note_on_c, 0, 65, 0
2, 27180, Note_on_c, 0, 77, 71
2, 27180, Note_on_c, 0, 61, 62
2, 27360, Note_on_c, 0, 61, 0
2, 27360, Note_on_c, 0, 77, 0
2, 27360, Note_on_c, 0, 79, 58
2, 27360, Note_on_c, 0, 70, 90
2, 27450, Note_on_c, 0, 70, 0
2, 27450, Note_on_c, 0, 65, 63
2, 27540, Note_on_c, 0, 65, 0
2, 27540, Note_on_c, 0, 79, 0
2, 27540, Note_on_c, 0, 72, 86
2, 27630, Note_on_c, 0, 72, 0
2, 27630, Note_on_c, 0, 65, 60
2, 27720, Note_on_c, 0, 65, 0
2, 27720, Note_on_c, 0, 55, 75
2, 27720, Control_c, 0, 64, 127
2, 27720, Note_on_c, 0, 61, 68
2, 27900, Note_on_c, 0, 61, 0
2, 27900, Note_on_c, 0, 55, 0
2, 27900, Note_on_c, 0, 56, 84
2, 27900, Note_on_c, 0, 70, 82
2, 27990, Note_on_c, 0, 70, 0
2, 27990, Note_on_c, 0, 65, 62
2, 28080, Note_on_c, 0, 65, 0
2, 28080, Note_on_c, 0, 56, 0
2, 28080, Note_on_c, 0, 58, 97
2, 28080, Note_on_c, 0, 70, 80
2, 28170, Note_on_c, 0, 70, 0
2, 28170, Control_c, 0, 64, 0
2, 28170, Note_on_c, 0, 66, 64
2, 28260, Note_on_c, 0, 66, 0
2, 28260, Note_on_c, 0, 63, 66
2, 28440, Note_on_c, 0, 63, 0
2, 28440, Note_on_c, 0, 72, 82
2, 28530, Note_on_c, 0, 72, 0
2, 28530, Note_on_c, 0, 66, 62
2, 28620, Note_on_c, 0, 66, 0
2, 28620, Note_on_c, 0, 72, 84
2, 28710, Note_on_c, 0, 72, 0
2, 28710, Note_on_c, 0, 66, 60
2, 28800, Note_on_c, 0, 66, 0
2, 28800, Note_on_c, 0, 63, 65
2, 28980, Note_on_c, 0, 63, 0
2, 28980, Note_on_c, 0, 58, 0
2, 28980, Note_on_c, 0, 56, 79
2, 28980, Note_on_c, 0, 70, 84
2, 29070, Note_on_c, 0, 70, 0
2, 29070, Note_on_c, 0, 66, 67
2, 29160, Note_on_c, 0, 66, 0
2, 29160, Note_on_c, 0, 56, 0
2, 29160, Note_on_c, 0, 58, 90
2, 29160, Note_on_c, 0, 70, 78
2, 29250, Note_on_c, 0, 70, 0
2, 29250, Note_on_c, 0, 66, 63
2, 29340, Note_on_c, 0, 66, 0
2, 29340, Note_on_c, 0, 63, 58
2, 29520, Note_on_c, 0, 63, 0
2, 29520, Note_on_c, 0, 58, 0
2, 29520, Note_on_c, 0, 60, 92
2, 29520, Note_on_c, 0, 72, 85
2, 29610, Note_on_c, 0, 72, 0
2, 29610, Note_on_c, 0, 66, 64
2, 29700, Note_on_c, 0, 66, 0
2, 29700, Note_on_c, 0, 60, 0
2, 29700, Note_on_c, 0, 53, 81
2, 29700, Control_c, 0, 64, 127
2, 29700, Note_on_c, 0, 41, 52
2, 29700, Note_on_c, 0, 49, 52
2, 29773, Note_on_c, 0, 58, 81
2, 29790, Note_on_c, 0, 72, 62
2, 29846, Note_on_c, 0, 61, 81
2, 29880, Note_on_c, 0, 72, 0
2, 29880, Note_on_c, 0, 61, 52
2, 30060, Note_on_c, 0, 61, 0
2, 30060, Note_on_c, 0, 70, 78
2, 30150, Note_on_c, 0, 70, 0
2, 30150, Note_on_c, 0, 67, 65
2, 30240, Note_on_c, 0, 67, 0
2, 30240, Note_on_c, 0, 72, 77
2, 30330, Note_on_c, 0, 72, 0
2, 30330, Note_on_c, 0, 65, 62
2, 30420, Note_on_c, 0, 65, 0
2, 30420, Note_on_c, 0, 84, 84
2, 30420, Note_on_c, 0, 61, 60
2, 30600, Note_on_c, 0, 84, 0
2, 30600, Note_on_c, 0, 61, 0
2, 30600, Note_on_c, 0, 82, 94
2, 30600, Control_c, 0, 64, 0
2, 30600, Note_on_c, 0, 70, 85
2, 30690, Note_on_c, 0, 70, 0
2, 30690, Note_on_c, 0, 65, 60
2, 30707, Note_on_c, 0, 80, 97
2, 30744, Note_on_c, 0, 80, 0
2, 30744, Note_on_c, 0, 82, 97
2, 30780, Note_on_c, 0, 82, 0
2, 30780, Note_on_c, 0, 58, 0
2, 30780, Note_on_c, 0, 82, 0
2, 30780, Note_on_c, 0, 61, 0
2, 30780, Note_on_c, 0, 49, 0
2, 30780, Note_on_c, 0, 65, 0
2, 30780, Note_on_c, 0, 41, 0
2, 30780, Note_on_c, 0, 53, 0
2, 30780, Note_on_c, 0, 80, 97
2, 30780, Note_on_c, 0, 72, 78
2, 30870, Note_on_c, 0, 72, 0
2, 30870, Note_on_c, 0, 65, 60
2, 30938, Note_on_c, 0, 80, 0
2, 30960, Note_on_c, 0, 65, 0
2, 30960, Note_on_c, 0, 77, 85
2, 30960, Note_on_c, 0, 61, 63
2, 31140, Note_on_c, 0, 61, 0
2, 31140, Note_on_c, 0, 77, 0
2, 31140, Note_on_c, 0, 79, 72
2, 31140, Note_on_c, 0, 70, 83
2, 31230, Note_on_c, 0, 70, 0
2, 31230, Note_on_c, 0, 65, 62
2, 31320, Note_on_c, 0, 65, 0
2, 31320, Note_on_c, 0, 79, 0
2, 31320, Note_on_c, 0, 72, 80
2, 31410, Note_on_c, 0, 72, 0
2, 31410, Note_on_c, 0, 65, 60
2, 31500, Note_on_c, 0, 65, 0
2, 31500, Note_on_c, 0, 60, 77
2, 31658, Note_on_c, 0, 60, 0
2, 31680, Note_on_c, 0, 61, 89
2, 31680, Note_on_c, 0, 70, 61
2, 31770, Note_on_c, 0, 70, 0
2, 31770, Note_on_c, 0, 65, 61
2, 31838, Note_on_c, 0, 61, 0
2, 31860, Note_on_c, 0, 65, 0
2, 31860, Note_on_c, 0, 60, 35
2, 31860, Note_on_c, 0, 63, 35
2, 31860, Control_c, 0, 64, 127
2, 31860, Note_on_c, 0, 44, 56
2, 31860, Note_on_c, 0, 51, 56
2, 31950, Note_on_c, 0, 70, 66
2, 32040, Note_on_c, 0, 70, 0
2, 32040, Note_on_c, 0, 60, 53
2, 32220, Note_on_c, 0, 60, 0
2, 32220, Note_on_c, 0, 72, 90
2, 32310, Note_on_c, 0, 72, 0
2, 32310, Note_on_c, 0, 63, 59
2, 32400, Note_on_c, 0, 63, 0
2, 32400, Note_on_c, 0, 72, 86
2, 32490, Note_on_c, 0, 72, 0
2, 32490, Note_on_c, 0, 63, 57
2, 32580, Note_on_c, 0, 63, 0
2, 32580, Note_on_c, 0, 60, 59
2, 32760, Note_on_c, 0, 60, 0
2, 32760, Note_on_c, 0, 63, 0
2, 32760, Note_on_c, 0, 60, 0
2, 32760, Note_on_c, 0, 70, 86
2, 32760, Note_on_c, 0, 65, 58
2, 32850, Note_on_c, 0, 70, 0
2, 32850, Note_on_c, 0, 60, 58
2, 32918, Note_on_c, 0, 65, 0
2, 32940, Note_on_c, 0, 51, 0
2, 32940, Note_on_c, 0, 44, 0
2, 32940, Note_on_c, 0, 60, 0
2, 32940, Note_on_c, 0, 55, 64
2, 32940, Control_c, 0, 64, 0
2, 32940, Control_c, 0, 64, 127
2, 32940, Note_on_c, 0, 27, 46
2, 33006, Note_on_c, 0, 27, 0
2, 33006, Note_on_c, 0, 39, 53
2, 33020, Note_on_c, 0, 58, 64
2, 33030, Note_on_c, 0, 72, 90
2, 33090, Note_on_c, 0, 46, 53
2, 33101, Note_on_c, 0, 63, 64
2, 33120, Note_on_c, 0, 72, 0
2, 33120, Note_on_c, 0, 63, 73
2, 33180, Note_on_c, 0, 67, 64
2, 33300, Note_on_c, 0, 63, 0
2, 33300, Note_on_c, 0, 70, 111
2, 33390, Note_on_c, 0, 70, 0
2, 33390, Note_on_c, 0, 67, 91
2, 33480, Note_on_c, 0, 67, 0
2, 33480, Note_on_c, 0, 72, 112
2, 33480, Control_c, 0, 64, 0
2, 33480, Note_on_c, 0, 84, 72
2, 33570, Note_on_c, 0, 72, 0
2, 33570, Note_on_c, 0, 67, 88
2, 33660, Note_on_c, 0, 67, 0
2, 33660, Note_on_c, 0, 63, 85
2, 33797, Note_on_c, 0, 84, 0
2, 33840, Note_on_c, 0, 63, 0
2, 33840, Note_on_c, 0, 70, 110
2, 33840, Note_on_c, 0, 82, 75
2, 33930, Note_on_c, 0, 70, 0
2, 33930, Note_on_c, 0, 67, 86
2, 33998, Note_on_c, 0, 82, 0
2, 34020, Note_on_c, 0, 63, 0
2, 34020, Note_on_c, 0, 67, 0
2, 34020, Note_on_c, 0, 39, 0
2, 34020, Note_on_c, 0, 58, 0
2, 34020, Note_on_c, 0, 46, 0
2, 34020, Note_on_c, 0, 55, 0
2, 34020, Note_on_c, 0, 67, 0
2, 34020, Note_on_c, 0, 58, 97
2, 34020, Note_on_c, 0, 65, 97
2, 34020, Note_on_c, 0, 68, 97
2, 34020, Note_on_c, 0, 37, 63
2, 34020, Note_on_c, 0, 53, 63
2, 34110, Note_on_c, 0, 72, 87
2, 34200, Note_on_c, 0, 72, 0
2, 34200, Note_on_c, 0, 65, 82
2, 34380, Note_on_c, 0, 65, 0
2, 34380, Note_on_c, 0, 68, 0
2, 34380, Note_on_c, 0, 58, 0
2, 34380, Note_on_c, 0, 65, 0
2, 34380, Note_on_c, 0, 67, 95
2, 34380, Note_on_c, 0, 70, 118
2, 34470, Note_on_c, 0, 67, 0
2, 34470, Note_on_c, 0, 65, 89
2, 34560, Note_on_c, 0, 65, 0
2, 34560, Note_on_c, 0, 70, 0
2, 34560, Note_on_c, 0, 37, 0
2, 34560, Note_on_c, 0, 53, 0
2, 34560, Note_on_c, 0, 60, 126
2, 34560, Control_c, 0, 64, 127
2, 34560, Note_on_c, 0, 36, 62
2, 34560, Note_on_c, 0, 43, 62
2, 34590, Note_on_c, 0, 64, 126
2, 34619, Note_on_c, 0, 72, 126
2, 34650, Note_on_c, 0, 72, 0
2, 34650, Note_on_c, 0, 60, 0
2, 34650, Note_on_c, 0, 64, 0
2, 34650, Note_on_c, 0, 67, 98
2, 34740, Note_on_c, 0, 67, 0
2, 34740, Note_on_c, 0, 60, 93
2, 34920, Note_on_c, 0, 60, 0
2, 34920, Note_on_c, 0, 43, 0
2, 34920, Note_on_c, 0, 36, 0
2, 34920, Note_on_c, 0, 84, 127
2, 34920, Control_c, 0, 64, 0
2, 34920, Note_on_c, 0, 72, 90
2, 35010, Note_on_c, 0, 72, 0
2, 35010, Note_on_c, 0, 64, 59
2, 35100, Note_on_c, 0, 64, 0
2, 35100, Note_on_c, 0, 65, 84
2, 35100, Note_on_c, 0, 72, 84
2, 35190, Note_on_c, 0, 72, 0
2, 35190, Note_on_c, 0, 65, 0
2, 35190, Note_on_c, 0, 62, 56
2, 35280, Note_on_c, 0, 62, 0
2, 35280, Note_on_c, 0, 60, 63
2, 35460, Note_on_c, 0, 60, 0
2, 35460, Note_on_c, 0, 84, 0
2, 35460, Note_on_c, 0, 82, 88
2, 35460, Note_on_c, 0, 65, 89
2, 35460, Note_on_c, 0, 72, 89
2, 35550, Note_on_c, 0, 72, 0
2, 35550, Note_on_c, 0, 65, 0
2, 35550, Note_on_c, 0, 62, 57
2, 35560, Note_on_c, 0, 80, 90
2, 35601, Note_on_c, 0, 80, 0
2, 35601, Note_on_c, 0, 82, 100
2, 35640, Note_on_c, 0, 82, 0
2, 35640, Note_on_c, 0, 62, 0
2, 35640, Note_on_c, 0, 82, 0
2, 35640, Note_on_c, 0, 80, 106
2, 35640, Note_on_c, 0, 65, 85
2, 35640, Note_on_c, 0, 71, 85
2, 35730, Note_on_c, 0, 71, 0
2, 35730, Note_on_c, 0, 65, 0
2, 35730, Note_on_c, 0, 62, 57
2, 35798, Note_on_c, 0, 80, 0
2, 35820, Note_on_c, 0, 62, 0
2, 35820, Note_on_c, 0, 77, 86
2, 35820, Note_on_c, 0, 60, 70
2, 36000, Note_on_c, 0, 60, 0
2, 36000, Note_on_c, 0, 77, 0
2, 36000, Note_on_c, 0, 79, 98
2, 36000, Note_on_c, 0, 65, 85
2, 36000, Note_on_c, 0, 71, 85
2, 36090, Note_on_c, 0, 71, 0
2, 36090, Note_on_c, 0, 65, 0
2, 36090, Note_on_c, 0, 62, 55
2, 36180, Note_on_c, 0, 62, 0
2, 36180, Note_on_c, 0, 79, 0
2, 36180, Note_on_c, 0, 79, 110
2, 36180, Control_c, 0, 64, 127
2, 36180, Note_on_c, 0, 72, 81
2, 36270, Note_on_c, 0, 72, 0
2, 36270, Note_on_c, 0, 64, 58
2, 36338, Note_on_c, 0, 79, 0
2, 36360, Note_on_c, 0, 64, 0
2, 36360, Note_on_c, 0, 72, 82
2, 36360, Note_on_c, 0, 60, 64
2, 36540, Note_on_c, 0, 60, 0
2, 36540, Note_on_c, 0, 72, 0
2, 36540, Note_on_c, 0, 84, 127
2, 36540, Note_on_c, 0, 72, 86
2, 36630, Note_on_c, 0, 72, 0
2, 36630, Control_c, 0, 64, 0
2, 36630, Note_on_c, 0, 64, 62
2, 36720, Note_on_c, 0, 64, 0
2, 36720, Note_on_c, 0, 65, 86
2, 36720, Note_on_c, 0, 72, 86
2, 36810, Note_on_c, 0, 72, 0
2, 36810, Note_on_c, 0, 65, 0
2, 36810, Note_on_c, 0, 62, 53
2, 36900, Note_on_c, 0, 62, 0
2, 36900, Note_on_c, 0, 84, 0
2, 36900, Note_on_c, 0, 82, 90
2, 36900, Note_on_c, 0, 60, 66
2, 37080, Note_on_c, 0, 60, 0
2, 37080, Note_on_c, 0, 82, 0
2, 37080, Note_on_c, 0, 84, 105
2, 37080, Note_on_c, 0, 65, 87
2, 37080, Note_on_c, 0, 72, 87
2, 37170, Note_on_c, 0, 72, 0
2, 37170, Note_on_c, 0, 65, 0
2, 37170, Note_on_c, 0, 62, 57
2, 37180, Note_on_c, 0, 80, 85
2, 37221, Note_on_c, 0, 80, 0
2, 37221, Note_on_c, 0, 82, 106
2, 37260, Note_on_c, 0, 82, 0
2, 37260, Note_on_c, 0, 62, 0
2, 37260, Note_on_c, 0, 84, 0
2, 37260, Note_on_c, 0, 80, 90
2, 37260, Note_on_c, 0, 65, 84
2, 37260, Note_on_c, 0, 71, 84
2, 37350, Note_on_c, 0, 71, 0
2, 37350, Note_on_c, 0, 65, 0
2, 37350, Note_on_c, 0, 62, 57
2, 37440, Note_on_c, 0, 62, 0
2, 37440, Note_on_c, 0, 80, 0
2, 37440, Note_on_c, 0, 77, 91
2, 37440, Note_on_c, 0, 60, 64
2, 37620, Note_on_c, 0, 60, 0
2, 37620, Note_on_c, 0, 77, 0
2, 37620, Note_on_c, 0, 79, 99
2, 37620, Note_on_c, 0, 65, 87
2, 37620, Note_on_c, 0, 71, 87
2, 37710, Note_on_c, 0, 71, 0
2, 37710, Note_on_c, 0, 65, 0
2, 37710, Note_on_c, 0, 62, 57
2, 37800, Note_on_c, 0, 62, 0
2, 37800, Note_on_c, 0, 79, 0
2, 37800, Note_on_c, 0, 79, 110
2, 37800, Control_c, 0, 64, 127
2, 37800, Note_on_c, 0, 72, 87
2, 37890, Note_on_c, 0, 72, 0
2, 37890, Note_on_c, 0, 64, 60
2, 37958, Note_on_c, 0, 79, 0
2, 37980, Note_on_c, 0, 64, 0
2, 37980, Note_on_c, 0, 72, 80
2, 37980, Note_on_c, 0, 60, 65
2, 38160, Note_on_c, 0, 60, 0
2, 38160, Note_on_c, 0, 72, 0
2, 38160, Note_on_c, 0, 84, 127
2, 38160, Note_on_c, 0, 72, 88
2, 38250, Note_on_c, 0, 72, 0
2, 38250, Control_c, 0, 64, 0
2, 38250, Note_on_c, 0, 64, 57
2, 38340, Note_on_c, 0, 64, 0
2, 38340, Note_on_c, 0, 65, 80
2, 38340, Note_on_c, 0, 72, 80
2, 38430, Note_on_c, 0, 72, 0
2, 38430, Note_on_c, 0, 65, 0
2, 38430, Note_on_c, 0, 62, 53
2, 38520, Note_on_c, 0, 62, 0
2, 38520, Note_on_c, 0, 60, 64
2, 38700, Note_on_c, 0, 60, 0
2, 38700, Note_on_c, 0, 84, 0
2, 38700, Note_on_c, 0, 84, 113
2, 38700, Note_on_c, 0, 65, 84
2, 38700, Note_on_c, 0, 72, 84
2, 38790, Note_on_c, 0, 72, 0
2, 38790, Note_on_c, 0, 65, 0
2, 38790, Note_on_c, 0, 62, 59
2, 38880, Note_on_c, 0, 62, 0
2, 38880, Note_on_c, 0, 67, 82
2, 38880, Note_on_c, 0, 72, 82
2, 38970, Note_on_c, 0, 72, 0
2, 38970, Note_on_c, 0, 67, 0
2, 38970, Note_on_c, 0, 63, 60
2, 39060, Note_on_c, 0, 63, 0
2, 39060, Note_on_c, 0, 60, 66
2, 39240, Note_on_c, 0, 60, 0
2, 39240, Note_on_c, 0, 84, 0
2, 39240, Note_on_c, 0, 82, 94
2, 39240, Note_on_c, 0, 67, 92
2, 39240, Note_on_c, 0, 72, 92
2, 39330, Note_on_c, 0, 72, 0
2, 39330, Note_on_c, 0, 67, 0
2, 39330, Note_on_c, 0, 63, 58
2, 39420, Note_on_c, 0, 63, 0
2, 39420, Note_on_c, 0, 82, 0
2, 39420, Note_on_c, 0, 80, 102
2, 39420, Control_c, 0, 64, 127
2, 39420, Note_on_c, 0, 68, 86
2, 39420, Note_on_c, 0, 72, 86
2, 39510, Note_on_c, 0, 72, 0
2, 39510, Note_on_c, 0, 68, 0
2, 39510, Note_on_c, 0, 63, 57
2, 39600, Note_on_c, 0, 63, 0
2, 39600, Note_on_c, 0, 60, 59
2, 39737, Note_on_c, 0, 80, 0
2, 39780, Note_on_c, 0, 60, 0
2, 39780, Note_on_c, 0, 84, 117
2, 39780, Note_on_c, 0, 68, 85
2, 39780, Note_on_c, 0, 72, 85
2, 39870, Note_on_c, 0, 72, 0
2, 39870, Note_on_c, 0, 68, 0
2, 39870, Control_c, 0, 64, 0
2, 39870, Note_on_c, 0, 63, 60
2, 39960, Note_on_c, 0, 63, 0
2, 39960, Note_on_c, 0, 68, 83
2, 39960, Note_on_c, 0, 73, 83
2, 40050, Note_on_c, 0, 73, 0
2, 40050, Note_on_c, 0, 68, 0
2, 40050, Note_on_c, 0, 64, 63
2, 40140, Note_on_c, 0, 64, 0
2, 40140, Note_on_c, 0, 60, 59
2, 40320, Note_on_c, 0, 60, 0
2, 40320, Note_on_c, 0, 84, 0
2, 40320, Note_on_c, 0, 82, 95
2, 40320, Note_on_c, 0, 68, 86
2, 40320, Note_on_c, 0, 73, 86
2, 40410, Note_on_c, 0, 73, 0
2, 40410, Note_on_c, 0, 68, 0
2, 40410, Note_on_c, 0, 64, 54
2, 40417, Note_on_c, 0, 80, 94
2, 40459, Note_on_c, 0, 80, 0
2, 40459, Note_on_c, 0, 82, 104
2, 40500, Note_on_c, 0, 82, 0
2, 40500, Note_on_c, 0, 64, 0
2, 40500, Note_on_c, 0, 82, 0
2, 40500, Note_on_c, 0, 80, 93
2, 40500, Note_on_c, 0, 68, 88
2, 40500, Note_on_c, 0, 74, 88
2, 40590, Note_on_c, 0, 74, 0
2, 40590, Note_on_c, 0, 68, 0
2, 40590, Note_on_c, 0, 65, 55
2, 40680, Note_on_c, 0, 65, 0
2, 40680, Note_on_c, 0, 80, 0
2, 40680, Note_on_c, 0, 77, 91
2, 40680, Note_on_c, 0, 60, 61
2, 40860, Note_on_c, 0, 60, 0
2, 40860, Note_on_c, 0, 77, 0
2, 40860, Note_on_c, 0, 79, 98
2, 40860, Note_on_c, 0, 68, 87
2, 40860, Note_on_c, 0, 74, 87
2, 40950, Note_on_c, 0, 74, 0
2, 40950, Note_on_c, 0, 68, 0
2, 40950, Note_on_c, 0, 65, 58
2, 41040, Note_on_c, 0, 65, 0
2, 41040, Note_on_c, 0, 79, 0
2, 41040, Note_on_c, 0, 79, 97
2, 41040, Control_c, 0, 64, 127
2, 41040, Note_on_c, 0, 68, 83
2, 41040, Note_on_c, 0, 75, 83
2, 41130, Note_on_c, 0, 75, 0
2, 41130, Note_on_c, 0, 68, 0
2, 41130, Note_on_c, 0, 63, 53
2, 41198, Note_on_c, 0, 79, 0
2, 41220, Note_on_c, 0, 63, 0
2, 41220, Note_on_c, 0, 72, 98
2, 41220, Note_on_c, 0, 60, 60
2, 41400, Note_on_c, 0, 60, 0
2, 41400, Note_on_c, 0, 72, 0
2, 41400, Note_on_c, 0, 87, 99
2, 41400, Note_on_c, 0, 68, 92
2, 41400, Note_on_c, 0, 75, 92
2, 41490, Note_on_c, 0, 75, 0
2, 41490, Note_on_c, 0, 68, 0
2, 41490, Control_c, 0, 64, 0
2, 41490, Note_on_c, 0, 63, 53
2, 41580, Note_on_c, 0, 63, 0
2, 41580, Note_on_c, 0, 68, 88
2, 41580, Note_on_c, 0, 75, 88
2, 41670, Note_on_c, 0, 75, 0
2, 41670, Note_on_c, 0, 68, 0
2, 41670, Note_on_c, 0, 64, 55
2, 41760, Note_on_c, 0, 64, 0
2, 41760, Note_on_c, 0, 60, 61
2, 41940, Note_on_c, 0, 60, 0
2, 41940, Note_on_c, 0, 87, 0
2, 41940, Note_on_c, 0, 85, 102
2, 41940, Note_on_c, 0, 68, 92
2, 41940, Note_on_c, 0, 75, 92
2, 42030, Note_on_c, 0, 75, 0
2, 42030, Note_on_c, 0, 68, 0
2, 42030, Note_on_c, 0, 64, 59
2, 42037, Note_on_c, 0, 84, 103
2, 42079, Note_on_c, 0, 84, 0
2, 42079, Note_on_c, 0, 85, 103
2, 42120, Note_on_c, 0, 85, 0
2, 42120, Note_on_c, 0, 64, 0
2, 42120, Note_on_c, 0, 85, 0
2, 42120, Note_on_c, 0, 84, 103
2, 42120, Note_on_c, 0, 68, 92
2, 42120, Note_on_c, 0, 75, 92
2, 42210, Note_on_c, 0, 75, 0
2, 42210, Note_on_c, 0, 68, 0
2, 42210, Note_on_c, 0, 65, 56
2, 42300, Note_on_c, 0, 65, 0
2, 42300, Note_on_c, 0, 84, 0
2, 42300, Note_on_c, 0, 82, 104
2, 42300, Note_on_c, 0, 60, 60
2, 42480, Note_on_c, 0, 60, 0
2, 42480, Note_on_c, 0, 82, 0
2, 42480, Note_on_c, 0, 84, 105
2, 42480, Note_on_c, 0, 68, 97
2, 42480, Note_on_c, 0, 75, 97
2, 42570, Note_on_c, 0, 75, 0
2, 42570, Note_on_c, 0, 68, 0
2, 42570, Note_on_c, 0, 65, 56
2, 42660, Note_on_c, 0, 65, 0
2, 42660, Note_on_c, 0, 84, 0
2, 42660, Note_on_c, 0, 84, 106
2, 42660, Note_on_c, 0, 69, 84
2, 42660, Note_on_c, 0, 75, 84
2, 42750, Note_on_c, 0, 75, 0
2, 42750, Note_on_c, 0, 69, 0
2, 42750, Note_on_c, 0, 65, 57
2, 42818, Note_on_c, 0, 84, 0
2, 42840, Note_on_c, 0, 65, 0
2, 42840, Note_on_c, 0, 77, 107
2, 42840, Note_on_c, 0, 60, 63
2, 43020, Note_on_c, 0, 60, 0
2, 43020, Note_on_c, 0, 77, 0
2, 43020, Note_on_c, 0, 89, 108
2, 43020, Note_on_c, 0, 69, 91
2, 43020, Note_on_c, 0, 75, 91
2, 43110, Note_on_c, 0, 75, 0
2, 43110, Note_on_c, 0, 69, 0
2, 43110, Note_on_c, 0, 65, 58
2, 43200, Note_on_c, 0, 65, 0
2, 43200, Note_on_c, 0, 70, 85
2, 43200, Note_on_c, 0, 75, 85
2, 43290, Note_on_c, 0, 75, 0
2, 43290, Note_on_c, 0, 70, 0
2, 43290, Note_on_c, 0, 65, 58
2, 43380, Note_on_c, 0, 65, 0
2, 43380, Note_on_c, 0, 60, 64
2, 43560, Note_on_c, 0, 60, 0
2, 43560, Note_on_c, 0, 89, 0
2, 43560, Note_on_c, 0, 87, 111
2, 43560, Note_on_c, 0, 70, 89
2, 43560, Note_on_c, 0, 75, 89
2, 43650, Note_on_c, 0, 75, 0
2, 43650, Note_on_c, 0, 70, 0
2, 43650, Note_on_c, 0, 65, 57
2, 43657, Note_on_c, 0, 85, 111
2, 43699, Note_on_c, 0, 85, 0
2, 43699, Note_on_c, 0, 87, 111
2, 43740, Note_on_c, 0, 87, 0
2, 43740, Note_on_c, 0, 65, 0
2, 43740, Note_on_c, 0, 87, 0
2, 43740, Note_on_c, 0, 85, 112
2, 43740, Note_on_c, 0, 70, 93
2, 43740, Note_on_c, 0, 77, 93
2, 43830, Note_on_c, 0, 77, 0
2, 43830, Note_on_c, 0, 70, 0
2, 43830, Note_on_c, 0, 66, 58
2, 43920, Note_on_c, 0, 66, 0
2, 43920, Note_on_c, 0, 85, 0
2, 43920, Note_on_c, 0, 84, 113
2, 43920, Note_on_c, 0, 60, 51
2, 44100, Note_on_c, 0, 60, 0
2, 44100, Note_on_c, 0, 84, 0
2, 44100, Note_on_c, 0, 85, 114
2, 44100, Note_on_c, 0, 70, 86
2, 44100, Note_on_c, 0, 77, 86
2, 44190, Note_on_c, 0, 77, 0
2, 44190, Note_on_c, 0, 70, 0
2, 44190, Note_on_c, 0, 66, 58
2, 44280, Note_on_c, 0, 66, 0
2, 44280, Note_on_c, 0, 85, 0
2, 44280, Note_on_c, 0, 86, 115
2, 44280, Note_on_c, 0, 71, 83
2, 44280, Note_on_c, 0, 77, 83
2, 44370, Note_on_c, 0, 77, 0
2, 44370, Note_on_c, 0, 71, 0
2, 44370, Note_on_c, 0, 67, 60
2, 44438, Note_on_c, 0, 86, 0
2, 44460, Note_on_c, 0, 67, 0
2, 44460, Note_on_c, 0, 79, 115
2, 44460, Note_on_c, 0, 60, 57
2, 44640, Note_on_c, 0, 60, 0
2, 44640, Note_on_c, 0, 79, 0
2, 44640, Note_on_c, 0, 92, 116
2, 44640, Note_on_c, 0, 71, 81
2, 44640, Note_on_c, 0, 77, 81
2, 44730, Note_on_c, 0, 77, 0
2, 44730, Note_on_c, 0, 71, 0
2, 44730, Note_on_c, 0, 67, 55
2, 44820, Note_on_c, 0, 67, 0
2, 44820, Note_on_c, 0, 72, 85
2, 44820, Note_on_c, 0, 77, 85
2, 44910, Note_on_c, 0, 77, 0
2, 44910, Note_on_c, 0, 72, 0
2, 44910, Note_on_c, 0, 67, 58
2, 45000, Note_on_c, 0, 67, 0
2, 45000, Note_on_c, 0, 60, 57
2, 45180, Note_on_c, 0, 60, 0
2, 45180, Note_on_c, 0, 92, 0
2, 45180, Note_on_c, 0, 91, 119
2, 45180, Note_on_c, 0, 72, 86
2, 45180, Note_on_c, 0, 77, 86
2, 45270, Note_on_c, 0, 77, 0
2, 45270, Note_on_c, 0, 72, 0
2, 45270, Note_on_c, 0, 67, 58
2, 45277, Note_on_c, 0, 89, 120
2, 45319, Note_on_c, 0, 89, 0
2, 45319, Note_on_c, 0, 91, 120
2, 45360, Note_on_c, 0, 91, 0
2, 45360, Note_on_c, 0, 67, 0
2, 45360, Note_on_c, 0, 91, 0
2, 45360, Note_on_c, 0, 89, 120
2, 45360, Note_on_c, 0, 71, 82
2, 45360, Note_on_c, 0, 77, 82
2, 45450, Note_on_c, 0, 77, 0
2, 45450, Note_on_c, 0, 71, 0
2, 45450, Note_on_c, 0, 67, 58
2, 45540, Note_on_c, 0, 67, 0
2, 45540, Note_on_c, 0, 89, 0
2, 45540, Note_on_c, 0, 87, 121
2, 45540, Note_on_c, 0, 60, 55
2, 45720, Note_on_c, 0, 60, 0
2, 45720, Note_on_c, 0, 87, 0
2, 45720, Note_on_c, 0, 89, 122
2, 45720, Note_on_c, 0, 71, 82
2, 45720, Note_on_c, 0, 77, 82
2, 45810, Note_on_c, 0, 77, 0
2, 45810, Note_on_c, 0, 71, 0
2, 45810, Note_on_c, 0, 67, 57
2, 45900, Note_on_c, 0, 67, 0
2, 45900, Note_on_c, 0, 89, 0
2, 45900, Note_on_c, 0, 89, 125
2, 45900, Note_on_c, 0, 70, 89
2, 45900, Note_on_c, 0, 77, 89
2, 45990, Note_on_c, 0, 77, 0
2, 45990, Note_on_c, 0, 70, 0
2, 45990, Note_on_c, 0, 67, 54
2, 46058, Note_on_c, 0, 89, 0
2, 46080, Note_on_c, 0, 67, 0
2, 46080, Note_on_c, 0, 84, 103
2, 46080, Note_on_c, 0, 60, 53
2, 46260, Note_on_c, 0, 60, 0
2, 46260, Note_on_c, 0, 84, 0
2, 46260, Note_on_c, 0, 96, 127
2, 46260, Note_on_c, 0, 70, 87
2, 46260, Note_on_c, 0, 77, 87
2, 46350, Note_on_c, 0, 77, 0
2, 46350, Note_on_c, 0, 70, 0
2, 46350, Note_on_c, 0, 67, 58
2, 46440, Note_on_c, 0, 67, 0
2, 46440, Note_on_c, 0, 70, 89
2, 46440, Note_on_c, 0, 77, 89
2, 46530, Note_on_c, 0, 77, 0
2, 46530, Note_on_c, 0, 70, 0
2, 46530, Note_on_c, 0, 66, 52
2, 46620, Note_on_c, 0, 66, 0
2, 46620, Note_on_c, 0, 60, 59
2, 46800, Note_on_c, 0, 60, 0
2, 46800, Note_on_c, 0, 96, 0
2, 46800, Note_on_c, 0, 84, 92
2, 46800, Note_on_c, 0, 70, 86
2, 46800, Note_on_c, 0, 77, 86
2, 46890, Note_on_c, 0, 77, 0
2, 46890, Note_on_c, 0, 70, 0
2, 46890, Note_on_c, 0, 66, 52
2, 46980, Note_on_c, 0, 66, 0
2, 46980, Note_on_c, 0, 70, 87
2, 46980, Note_on_c, 0, 77, 87
2, 47070, Note_on_c, 0, 77, 0
2, 47070, Note_on_c, 0, 70, 0
2, 47070, Note_on_c, 0, 67, 62
2, 47160, Note_on_c, 0, 67, 0
2, 47160, Note_on_c, 0, 84, 0
2, 47160, Note_on_c, 0, 96, 127
2, 47160, Note_on_c, 0, 60, 56
2, 47318, Note_on_c, 0, 96, 0
2, 47340, Note_on_c, 0, 60, 0
2, 47340, Note_on_c, 0, 84, 86
2, 47340, Note_on_c, 0, 70, 85
2, 47340, Note_on_c, 0, 77, 85
2, 47430, Note_on_c, 0, 77, 0
2, 47430, Note_on_c, 0, 70, 0
2, 47430, Note_on_c, 0, 67, 56
2, 47520, Note_on_c, 0, 67, 0
2, 47520, Note_on_c, 0, 70, 86
2, 47520, Note_on_c, 0, 77, 86
2, 47610, Note_on_c, 0, 77, 0
2, 47610, Note_on_c, 0, 70, 0
2, 47610, Note_on_c, 0, 66, 56
2, 47700, Note_on_c, 0, 66, 0
2, 47700, Note_on_c, 0, 84, 0
2, 47700, Note_on_c, 0, 82, 111
2, 47700, Note_on_c, 0, 60, 60
2, 47880, Note_on_c, 0, 60, 0
2, 47880, Note_on_c, 0, 82, 0
2, 47880, Note_on_c, 0, 87, 127
2, 47880, Note_on_c, 0, 70, 82
2, 47880, Note_on_c, 0, 77, 82
2, 47970, Note_on_c, 0, 77, 0
2, 47970, Note_on_c, 0, 70, 0
2, 47970, Note_on_c, 0, 66, 55
2, 48060, Note_on_c, 0, 66, 0
2, 48060, Note_on_c, 0, 70, 89
2, 48060, Note_on_c, 0, 75, 89
2, 48150, Note_on_c, 0, 75, 0
2, 48150, Note_on_c, 0, 70, 0
2, 48150, Note_on_c, 0, 65, 55
2, 48240, Note_on_c, 0, 65, 0
2, 48240, Note_on_c, 0, 60, 60
2, 48420, Note_on_c, 0, 60, 0
2, 48420, Note_on_c, 0, 87, 0
2, 48420, Note_on_c, 0, 85, 105
2, 48420, Note_on_c, 0, 70, 86
2, 48420, Note_on_c, 0, 75, 86
2, 48510, Note_on_c, 0, 75, 0
2, 48510, Note_on_c, 0, 70, 0
2, 48510, Note_on_c, 0, 65, 59
2, 48517, Note_on_c, 0, 84, 104
2, 48559, Note_on_c, 0, 84, 0
2, 48559, Note_on_c, 0, 85, 117
2, 48600, Note_on_c, 0, 85, 0
2, 48600, Note_on_c, 0, 65, 0
2, 48600, Note_on_c, 0, 85, 0
2, 48600, Note_on_c, 0, 84, 103
2, 48600, Note_on_c, 0, 68, 83
2, 48600, Note_on_c, 0, 75, 83
2, 48690, Note_on_c, 0, 75, 0
2, 48690, Note_on_c, 0, 68, 0
2, 48690, Note_on_c, 0, 65, 56
2, 48780, Note_on_c, 0, 65, 0
2, 48780, Note_on_c, 0, 84, 0
2, 48780, Note_on_c, 0, 82, 106
2, 48780, Note_on_c, 0, 60, 62
2, 48960, Note_on_c, 0, 60, 0
2, 48960, Note_on_c, 0, 82, 0
2, 48960, Note_on_c, 0, 84, 121
2, 48960, Note_on_c, 0, 68, 88
2, 48960, Note_on_c, 0, 75, 88
2, 49050, Note_on_c, 0, 75, 0
2, 49050, Note_on_c, 0, 68, 0
2, 49050, Note_on_c, 0, 65, 57
2, 49140, Note_on_c, 0, 65, 0
2, 49140, Note_on_c, 0, 84, 0
2, 49140, Note_on_c, 0, 84, 120
2, 49140, Note_on_c, 0, 69, 86
2, 49140, Note_on_c, 0, 75, 86
2, 49230, Note_on_c, 0, 75, 0
2, 49230, Note_on_c, 0, 69, 0
2, 49230, Note_on_c, 0, 65, 58
2, 49298, Note_on_c, 0, 84, 0
2, 49320, Note_on_c, 0, 65, 0
2, 49320, Note_on_c, 0, 77, 92
2, 49320, Note_on_c, 0, 60, 58
2, 49500, Note_on_c, 0, 60, 0
2, 49500, Note_on_c, 0, 77, 0
2, 49500, Note_on_c, 0, 89, 127
2, 49500, Note_on_c, 0, 69, 90
2, 49500, Note_on_c, 0, 75, 90
2, 49590, Note_on_c, 0, 75, 0
2, 49590, Note_on_c, 0, 69, 0
2, 49590, Note_on_c, 0, 65, 64
2, 49680, Note_on_c, 0, 65, 0
2, 49680, Note_on_c, 0, 70, 84
2, 49680, Note_on_c, 0, 75, 84
2, 49770, Note_on_c, 0, 75, 0
2, 49770, Note_on_c, 0, 70, 0
2, 49770, Note_on_c, 0, 65, 50
2, 49860, Note_on_c, 0, 65, 0
2, 49860, Note_on_c, 0, 60, 65
2, 50040, Note_on_c, 0, 60, 0
2, 50040, Note_on_c, 0, 89, 0
2, 50040, Note_on_c, 0, 77, 94
2, 50040, Note_on_c, 0, 70, 93
2, 50040, Note_on_c, 0, 75, 93
2, 50130, Note_on_c, 0, 75, 0
2, 50130, Note_on_c, 0, 70, 0
2, 50130, Note_on_c, 0, 65, 58
2, 50220, Note_on_c, 0, 65, 0
2, 50220, Note_on_c, 0, 69, 90
2, 50220, Note_on_c, 0, 75, 90
2, 50310, Note_on_c, 0, 75, 0
2, 50310, Note_on_c, 0, 69, 0
2, 50310, Note_on_c, 0, 65, 57
2, 50400, Note_on_c, 0, 65, 0
2, 50400, Note_on_c, 0, 77, 0
2, 50400, Note_on_c, 0, 89, 126
2, 50400, Note_on_c, 0, 60, 61
2, 50580, Note_on_c, 0, 60, 0
2, 50580, Note_on_c, 0, 89, 0
2, 50580, Note_on_c, 0, 84, 102
2, 50580, Note_on_c, 0, 69, 89
2, 50580, Note_on_c, 0, 75, 89
2, 50670, Note_on_c, 0, 75, 0
2, 50670, Note_on_c, 0, 69, 0
2, 50670, Note_on_c, 0, 65, 57
2, 50760, Note_on_c, 0, 65, 0
2, 50760, Note_on_c, 0, 68, 81
2, 50760, Note_on_c, 0, 75, 81
2, 50850, Note_on_c, 0, 75, 0
2, 50850, Note_on_c, 0, 68, 0
2, 50850, Note_on_c, 0, 65, 57
2, 50918, Note_on_c, 0, 84, 0
2, 50940, Note_on_c, 0, 65, 0
2, 50940, Note_on_c, 0, 77, 109
2, 50940, Note_on_c, 0, 60, 64
2, 51120, Note_on_c, 0, 60, 0
2, 51120, Note_on_c, 0, 77, 0
2, 51120, Note_on_c, 0, 82, 106
2, 51120, Note_on_c, 0, 68, 92
2, 51120, Note_on_c, 0, 75, 92
2, 51210, Note_on_c, 0, 75, 0
2, 51210, Note_on_c, 0, 68, 0
2, 51210, Note_on_c, 0, 65, 54
2, 51300, Note_on_c, 0, 65, 0
2, 51300, Note_on_c, 0, 68, 83
2, 51300, Note_on_c, 0, 74, 83
2, 51390, Note_on_c, 0, 74, 0
2, 51390, Note_on_c, 0, 68, 0
2, 51390, Note_on_c, 0, 65, 58
2, 51480, Note_on_c, 0, 65, 0
2, 51480, Note_on_c, 0, 60, 60
2, 51660, Note_on_c, 0, 60, 0
2, 51660, Note_on_c, 0, 82, 0
2, 51660, Note_on_c, 0, 80, 97
2, 51660, Note_on_c, 0, 65, 92
2, 51660, Note_on_c, 0, 72, 92
2, 51750, Note_on_c, 0, 72, 0
2, 51750, Note_on_c, 0, 65, 0
2, 51750, Note_on_c, 0, 62, 56
2, 51760, Note_on_c, 0, 79, 95
2, 51801, Note_on_c, 0, 79, 0
2, 51801, Note_on_c, 0, 80, 94
2, 51840, Note_on_c, 0, 80, 0
2, 51840, Note_on_c, 0, 62, 0
2, 51840, Note_on_c, 0, 80, 0
2, 51840, Note_on_c, 0, 79, 93
2, 51840, Note_on_c, 0, 65, 84
2, 51840, Note_on_c, 0, 72, 84
2, 51930, Note_on_c, 0, 72, 0
2, 51930, Note_on_c, 0, 65, 0
2, 51930, Note_on_c, 0, 62, 62
2, 52020, Note_on_c, 0, 62, 0
2, 52020, Note_on_c, 0, 79, 0
2, 52020, Note_on_c, 0, 77, 90
2, 52020, Note_on_c, 0, 60, 63
2, 52200, Note_on_c, 0, 60, 0
2, 52200, Note_on_c, 0, 77, 0
2, 52200, Note_on_c, 0, 79, 87
2, 52200, Note_on_c, 0, 65, 89
2, 52200, Note_on_c, 0, 71, 89
2, 52290, Note_on_c, 0, 71, 0
2, 52290, Note_on_c, 0, 65, 0
2, 52290, Note_on_c, 0, 62, 58
2, 52380, Note_on_c, 0, 62, 0
2, 52380, Note_on_c, 0, 79, 0
2, 52380, Note_on_c, 0, 79, 60
2, 52380, Note_on_c, 0, 72, 86
2, 52470, Note_on_c, 0, 72, 0
2, 52470, Note_on_c, 0, 64, 61
2, 52560, Note_on_c, 0, 64, 0
2, 52560, Note_on_c, 0, 60, 63
2, 52740, Note_on_c, 0, 60, 0
2, 52740, Note_on_c, 0, 72, 90
2, 52830, Note_on_c, 0, 72, 0
2, 52830, Note_on_c, 0, 64, 59
2, 52854, Note_on_c, 0, 79, 0
2, 52920, Note_on_c, 0, 64, 0
2, 52920, Note_on_c, 0, 72, 35
2, 52920, Note_on_c, 0, 72, 81
2, 53010, Note_on_c, 0, 72, 0
2, 53010, Note_on_c, 0, 64, 61
2, 53100, Note_on_c, 0, 64, 0
2, 53100, Note_on_c, 0, 60, 60
2, 53280, Note_on_c, 0, 60, 0
2, 53280, Note_on_c, 0, 72, 91
2, 53370, Note_on_c, 0, 72, 0
2, 53370, Note_on_c, 0, 64, 64
2, 53460, Note_on_c, 0, 64, 0
2, 53460, Note_on_c, 0, 72, 81
2, 53550, Note_on_c, 0, 72, 0
2, 53550, Note_on_c, 0, 64, 56
2, 53640, Note_on_c, 0, 64, 0
2, 53640, Note_on_c, 0, 60, 65
2, 53820, Note_on_c, 0, 60, 0
2, 53820, Note_on_c, 0, 72, 90
2, 53910, Note_on_c, 0, 72, 0
2, 53910, Note_on_c, 0, 64, 59
2, 54000, Note_on_c, 0, 64, 0
2, 54000, Note_on_c, 0, 72, 0
2, 54000, Note_on_c, 0, 70, 35
2, 54000, Note_on_c, 0, 72, 85
2, 54090, Note_on_c, 0, 72, 0
2, 54090, Note_on_c, 0, 63, 58
2, 54180, Note_on_c, 0, 63, 0
2, 54180, Note_on_c, 0, 60, 63
2, 54360, Note_on_c, 0, 60, 0
2, 54360, Note_on_c, 0, 70, 0
2, 54360, Note_on_c, 0, 69, 60
2, 54360, Note_on_c, 0, 72, 90
2, 54450, Note_on_c, 0, 72, 0
2, 54450, Note_on_c, 0, 63, 56
2, 54540, Note_on_c, 0, 63, 0
2, 54540, Note_on_c, 0, 69, 0
2, 54540, Note_on_c, 0, 69, 62
2, 54540, Note_on_c, 0, 77, 101
2, 54540, Note_on_c, 0, 75, 85
2, 54630, Note_on_c, 0, 75, 0
2, 54630, Note_on_c, 0, 65, 61
2, 54720, Note_on_c, 0, 65, 0
2, 54720, Note_on_c, 0, 60, 62
2, 54900, Note_on_c, 0, 60, 0
2, 54900, Note_on_c, 0, 75, 89
2, 54990, Note_on_c, 0, 75, 0
2, 54990, Note_on_c, 0, 65, 60
2, 55014, Note_on_c, 0, 77, 0
2, 55080, Note_on_c, 0, 65, 0
2, 55080, Note_on_c, 0, 72, 76
2, 55080, Note_on_c, 0, 75, 84
2, 55170, Note_on_c, 0, 75, 0
2, 55170, Note_on_c, 0, 65, 55
2, 55260, Note_on_c, 0, 65, 0
2, 55260, Note_on_c, 0, 60, 59
2, 55440, Note_on_c, 0, 60, 0
2, 55440, Note_on_c, 0, 75, 90
2, 55530, Note_on_c, 0, 75, 0
2, 55530, Note_on_c, 0, 65, 56
2, 55620, Note_on_c, 0, 65, 0
2, 55620, Note_on_c, 0, 69, 0
2, 55620, Note_on_c, 0, 69, 0
2, 55620, Note_on_c, 0, 69, 0
2, 55620, Note_on_c, 0, 68, 85
2, 55620, Note_on_c, 0, 75, 85
2, 55710, Note_on_c, 0, 75, 0
2, 55710, Note_on_c, 0, 68, 0
2, 55710, Note_on_c, 0, 66, 62
2, 55800, Note_on_c, 0, 66, 0
2, 55800, Note_on_c, 0, 60, 53
2, 55980, Note_on_c, 0, 60, 0
2, 55980, Note_on_c, 0, 68, 89
2, 55980, Note_on_c, 0, 75, 89
2, 56070, Note_on_c, 0, 75, 0
2, 56070, Note_on_c, 0, 68, 0
2, 56070, Note_on_c, 0, 66, 58
2, 56160, Note_on_c, 0, 66, 0
2, 56160, Note_on_c, 0, 75, 85
2, 56250, Note_on_c, 0, 75, 0
2, 56250, Note_on_c, 0, 67, 59
2, 56340, Note_on_c, 0, 67, 0
2, 56340, Note_on_c, 0, 60, 55
2, 56520, Note_on_c, 0, 60, 0
2, 56520, Note_on_c, 0, 75, 88
2, 56610, Note_on_c, 0, 75, 0
2, 56610, Note_on_c, 0, 67, 64
2, 56700, Note_on_c, 0, 67, 0
2, 56700, Note_on_c, 0, 72, 0
2, 56700, Note_on_c, 0, 72, 34
2, 56700, Note_on_c, 0, 36, 57
2, 56700, Note_on_c, 0, 43, 57
2, 56700, Note_on_c, 0, 48, 57
2, 56790, Note_on_c, 0, 72, 0
2, 56790, Note_on_c, 0, 67, 32
2, 56880, Note_on_c, 0, 67, 0
2, 56880, Note_on_c, 0, 60, 27
2, 57060, Note_on_c, 0, 60, 0
2, 57060, Note_on_c, 0, 72, 45
2, 57150, Note_on_c, 0, 72, 0
2, 57150, Note_on_c, 0, 67, 35
2, 57240, Note_on_c, 0, 67, 0
2, 57240, Note_on_c, 0, 72, 31
2, 57330, Note_on_c, 0, 72, 0
2, 57330, Note_on_c, 0, 67, 34
2, 57420, Note_on_c, 0, 67, 0
2, 57420, Note_on_c, 0, 60, 33
2, 57600, Note_on_c, 0, 60, 0
2, 57600, Note_on_c, 0, 72, 43
2, 57690, Note_on_c, 0, 72, 0
2, 57690, Note_on_c, 0, 67, 31
2, 57780, Note_on_c, 0, 67, 0
2, 57780, Note_on_c, 0, 72, 36
2, 57870, Note_on_c, 0, 72, 0
2, 57870, Note_on_c, 0, 67, 33
2, 57960, Note_on_c, 0, 67, 0
2, 57960, Note_on_c, 0, 60, 26
2, 58140, Note_on_c, 0, 60, 0
2, 58140, Note_on_c, 0, 72, 45
2, 58230, Note_on_c, 0, 72, 0
2, 58230, Note_on_c, 0, 67, 27
2, 58320, Note_on_c, 0, 67, 0
2, 58320, Note_on_c, 0, 72, 43
2, 58320, Note_on_c, 0, 58, 76
2, 58410, Note_on_c, 0, 72, 0
2, 58410, Note_on_c, 0, 66, 28
2, 58500, Note_on_c, 0, 66, 0
2, 58500, Note_on_c, 0, 60, 30
2, 58680, Note_on_c, 0, 60, 0
2, 58680, Note_on_c, 0, 58, 0
2, 58680, Note_on_c, 0, 72, 42
2, 58680, Note_on_c, 0, 57, 101
2, 58770, Note_on_c, 0, 72, 0
2, 58770, Note_on_c, 0, 67, 56
2, 58860, Note_on_c, 0, 67, 0
2, 58860, Note_on_c, 0, 36, 0
2, 58860, Note_on_c, 0, 48, 0
2, 58860, Note_on_c, 0, 43, 0
2, 58860, Note_on_c, 0, 65, 60
2, 58860, Note_on_c, 0, 72, 86
2, 58950, Note_on_c, 0, 72, 0
2, 58950, Note_on_c, 0, 63, 61
2, 59040, Note_on_c, 0, 63, 0
2, 59040, Note_on_c, 0, 60, 57
2, 59220, Note_on_c, 0, 60, 0
2, 59220, Note_on_c, 0, 72, 92
2, 59310, Note_on_c, 0, 72, 0
2, 59310, Note_on_c, 0, 63, 59
2, 59334, Note_on_c, 0, 65, 0
2, 59400, Note_on_c, 0, 63, 0
2, 59400, Note_on_c, 0, 60, 35
2, 59400, Note_on_c, 0, 72, 84
2, 59490, Note_on_c, 0, 72, 0
2, 59490, Note_on_c, 0, 63, 55
2, 59580, Note_on_c, 0, 63, 0
2, 59580, Note_on_c, 0, 60, 62
2, 59760, Note_on_c, 0, 60, 0
2, 59760, Note_on_c, 0, 72, 88
2, 59850, Note_on_c, 0, 72, 0
2, 59850, Note_on_c, 0, 63, 58
2, 59940, Note_on_c, 0, 63, 0
2, 59940, Note_on_c, 0, 72, 81
2, 60030, Note_on_c, 0, 72, 0
2, 60030, Note_on_c, 0, 63, 60
2, 60120, Note_on_c, 0, 63, 0
2, 60120, Note_on_c, 0, 60, 59
2, 60300, Note_on_c, 0, 60, 0
2, 60300, Note_on_c, 0, 72, 87
2, 60390, Note_on_c, 0, 72, 0
2, 60390, Note_on_c, 0, 63, 59
2, 60480, Note_on_c, 0, 63, 0
2, 60480, Note_on_c, 0, 57, 0
2, 60480, Note_on_c, 0, 56, 74
2, 60480, Note_on_c, 0, 72, 85
2, 60570, Note_on_c, 0, 72, 0
2, 60570, Note_on_c, 0, 62, 55
2, 60660, Note_on_c, 0, 62, 0
2, 60660, Note_on_c, 0, 60, 64
2, 60840, Note_on_c, 0, 60, 0
2, 60840, Note_on_c, 0, 60, 70
2, 60930, Note_on_c, 0, 60, 0
2, 60930, Note_on_c, 0, 48, 65
2, 61020, Note_on_c, 0, 48, 0
2, 61020, Note_on_c, 0, 60, 0
2, 61020, Note_on_c, 0, 56, 0
2, 61020, Note_on_c, 0, 60, 59
2, 61020, Note_on_c, 0, 36, 65
2, 61020, Note_on_c, 0, 43, 65
2, 61110, Note_on_c, 0, 60, 0
2, 61110, Note_on_c, 0, 55, 50
2, 61200, Note_on_c, 0, 55, 0
2, 61200, Note_on_c, 0, 48, 55
2, 61380, Note_on_c, 0, 48, 0
2, 61380, Note_on_c, 0, 60, 75
2, 61470, Note_on_c, 0, 60, 0
2, 61470, Note_on_c, 0, 55, 62
2, 61560, Note_on_c, 0, 55, 0
2, 61560, Note_on_c, 0, 60, 69
2, 61650, Note_on_c, 0, 60, 0
2, 61650, Note_on_c, 0, 55, 54
2, 61740, Note_on_c, 0, 55, 0
2, 61740, Note_on_c, 0, 48, 56
2, 61920, Note_on_c, 0, 48, 0
2, 61920, Note_on_c, 0, 60, 79
2, 62010, Note_on_c, 0, 60, 0
2, 62010, Note_on_c, 0, 55, 60
2, 62100, Note_on_c, 0, 55, 0
2, 62100, Note_on_c, 0, 43, 0
2, 62100, Note_on_c, 0, 36, 0
2, 62100, Note_on_c, 0, 60, 68
2, 62190, Note_on_c, 0, 60, 0
2, 62190, Note_on_c, 0, 55, 59
2, 62280, Note_on_c, 0, 55, 0
2, 62280, Note_on_c, 0, 48, 54
2, 62460, Note_on_c, 0, 48, 0
2, 62460, Note_on_c, 0, 72, 72
2, 62460, Note_on_c, 0, 84, 65
2, 62550, Note_on_c, 0, 84, 0
2, 62550, Note_on_c, 0, 72, 0
2, 62550, Note_on_c, 0, 67, 58
2, 62550, Note_on_c, 0, 79, 62
2, 62640, Note_on_c, 0, 79, 0
2, 62640, Note_on_c, 0, 67, 0
2, 62640, Note_on_c, 0, 84, 73
2, 62640, Note_on_c, 0, 72, 60
2, 62730, Note_on_c, 0, 72, 0
2, 62730, Note_on_c, 0, 84, 0
2, 62730, Note_on_c, 0, 79, 54
2, 62730, Note_on_c, 0, 67, 61
2, 62820, Note_on_c, 0, 67, 0
2, 62820, Note_on_c, 0, 79, 0
2, 62820, Note_on_c, 0, 72, 50
2, 62820, Note_on_c, 0, 60, 53
2, 63000, Note_on_c, 0, 60, 0
2, 63000, Note_on_c, 0, 72, 0
2, 63000, Note_on_c, 0, 84, 73
2, 63000, Note_on_c, 0, 72, 85
2, 63090, Note_on_c, 0, 72, 0
2, 63090, Note_on_c, 0, 84, 0
2, 63090, Note_on_c, 0, 79, 54
2, 63090, Note_on_c, 0, 67, 65
2, 63180, Note_on_c, 0, 67, 0
2, 63180, Note_on_c, 0, 79, 0
2, 63180, Note_on_c, 0, 84, 71
2, 63180, Note_on_c, 0, 72, 80
2, 63270, Note_on_c, 0, 72, 0
2, 63270, Note_on_c, 0, 84, 0
2, 63270, Note_on_c, 0, 79, 57
2, 63270, Note_on_c, 0, 67, 64
2, 63360, Note_on_c, 0, 67, 0
2, 63360, Note_on_c, 0, 79, 0
2, 63360, Note_on_c, 0, 72, 49
2, 63360, Note_on_c, 0, 60, 56
2, 63540, Note_on_c, 0, 60, 0
2, 63540, Note_on_c, 0, 72, 0
2, 63540, Note_on_c, 0, 84, 73
2, 63540, Note_on_c, 0, 72, 84
2, 63630, Note_on_c, 0, 72, 0
2, 63630, Note_on_c, 0, 84, 0
2, 63630, Note_on_c, 0, 79, 58
2, 63630, Note_on_c, 0, 67, 61
2, 63720, Note_on_c, 0, 67, 0
2, 63720, Note_on_c, 0, 79, 0
2, 63720, Note_on_c, 0, 84, 68
2, 63720, Note_on_c, 0, 72, 76
2, 63810, Note_on_c, 0, 72, 0
2, 63810, Note_on_c, 0, 84, 0
2, 63810, Note_on_c, 0, 79, 54
2, 63810, Note_on_c, 0, 67, 67
2, 63900, Note_on_c, 0, 67, 0
2, 63900, Note_on_c, 0, 79, 0
2, 63900, Note_on_c, 0, 72, 49
2, 63900, Note_on_c, 0, 60, 51
2, 64080, Note_on_c, 0, 60, 0
2, 64080, Note_on_c, 0, 72, 0
2, 64080, Note_on_c, 0, 96, 75
2, 64170, Note_on_c, 0, 96, 0
2, 64170, Note_on_c, 0, 91, 54
2, 64260, Note_on_c, 0, 91, 0
2, 64260, Note_on_c, 0, 96, 58
2, 64260, Note_on_c, 0, 80, 45
2, 64260, Note_on_c, 0, 39, 0
2, 64260, Note_on_c, 0, 39, 0
2, 64260, Note_on_c, 0, 72, 67
2, 64260, Note_on_c, 0, 76, 67
2, 64350, Note_on_c, 0, 96, 0
2, 64350, Note_on_c, 0, 91, 40
2, 64440, Note_on_c, 0, 91, 0
2, 64440, Note_on_c, 0, 80, 0
2, 64440, Note_on_c, 0, 84, 37
2, 64440, Note_on_c, 0, 79, 51
2, 64530, Note_on_c, 0, 84, 0
2, 64530, Note_on_c, 0, 92, 62
2, 64620, Note_on_c, 0, 92, 0
2, 64620, Note_on_c, 0, 79, 0
2, 64620, Note_on_c, 0, 91, 48
2, 64620, Note_on_c, 0, 67, 36
2, 64710, Note_on_c, 0, 91, 0
2, 64710, Note_on_c, 0, 84, 42
2, 64800, Note_on_c, 0, 84, 0
2, 64800, Note_on_c, 0, 67, 0
2, 64800, Note_on_c, 0, 72, 0
2, 64800, Note_on_c, 0, 76, 0
2, 64800, Note_on_c, 0, 91, 60
2, 64800, Note_on_c, 0, 76, 55
2, 64890, Note_on_c, 0, 91, 0
2, 64890, Note_on_c, 0, 84, 38
2, 64980, Note_on_c, 0, 84, 0
2, 64980, Note_on_c, 0, 76, 0
2, 64980, Note_on_c, 0, 79, 43
2, 64980, Note_on_c, 0, 67, 44
2, 65070, Note_on_c, 0, 79, 0
2, 65070, Note_on_c, 0, 85, 61
2, 65160, Note_on_c, 0, 85, 0
2, 65160, Note_on_c, 0, 67, 0
2, 65160, Note_on_c, 0, 84, 47
2, 65160, Note_on_c, 0, 60, 46
2, 65250, Note_on_c, 0, 84, 0
2, 65250, Note_on_c, 0, 79, 47
2, 65340, Note_on_c, 0, 79, 0
2, 65340, Note_on_c, 0, 84, 58
2, 65340, Note_on_c, 0, 68, 45
2, 65340, Note_on_c, 0, 64, 55
2, 65430, Note_on_c, 0, 84, 0
2, 65430, Note_on_c, 0, 79, 44
2, 65520, Note_on_c, 0, 79, 0
2, 65520, Note_on_c, 0, 68, 0
2, 65520, Note_on_c, 0, 72, 49
2, 65520, Note_on_c, 0, 67, 47
2, 65610, Note_on_c, 0, 72, 0
2, 65610, Note_on_c, 0, 80, 57
2, 65700, Note_on_c, 0, 80, 0
2, 65700, Note_on_c, 0, 67, 0
2, 65700, Note_on_c, 0, 79, 46
2, 65700, Note_on_c, 0, 55, 43
2, 65790, Note_on_c, 0, 79, 0
2, 65790, Note_on_c, 0, 72, 48
2, 65880, Note_on_c, 0, 72, 0
2, 65880, Note_on_c, 0, 55, 0
2, 65880, Note_on_c, 0, 60, 0
2, 65880, Note_on_c, 0, 64, 0
2, 65880, Note_on_c, 0, 79, 56
2, 65880, Note_on_c, 0, 64, 62
2, 65970, Note_on_c, 0, 79, 0
2, 65970, Note_on_c, 0, 72, 44
2, 66060, Note_on_c, 0, 72, 0
2, 66060, Note_on_c, 0, 64, 0
2, 66060, Note_on_c, 0, 67, 42
2, 66060, Note_on_c, 0, 55, 43
2, 66150, Note_on_c, 0, 67, 0
2, 66150, Note_on_c, 0, 73, 55
2, 66240, Note_on_c, 0, 73, 0
2, 66240, Note_on_c, 0, 55, 0
2, 66240, Note_on_c, 0, 72, 45
2, 66240, Note_on_c, 0, 48, 43
2, 66330, Note_on_c, 0, 72, 0
2, 66330, Note_on_c, 0, 67, 43
2, 66420, Note_on_c, 0, 67, 0
2, 66420, Note_on_c, 0, 48, 0
2, 66420, Note_on_c, 0, 72, 58
2, 66420, Note_on_c, 0, 55, 57
2, 66510, Note_on_c, 0, 72, 0
2, 66510, Note_on_c, 0, 67, 43
2, 66600, Note_on_c, 0, 67, 0
2, 66600, Note_on_c, 0, 55, 0
2, 66600, Note_on_c, 0, 60, 40
2, 66600, Note_on_c, 0, 48, 48
2, 66690, Note_on_c, 0, 60, 0
2, 66690, Note_on_c, 0, 67, 54
2, 66780, Note_on_c, 0, 67, 0
2, 66780, Note_on_c, 0, 48, 0
2, 66780, Note_on_c, 0, 72, 59
2, 66780, Note_on_c, 0, 43, 47
2, 66870, Note_on_c, 0, 72, 0
2, 66870, Note_on_c, 0, 67, 40
2, 66960, Note_on_c, 0, 67, 0
2, 66960, Note_on_c, 0, 43, 0
2, 66960, Note_on_c, 0, 72, 60
2, 66960, Note_on_c, 0, 52, 56
2, 67050, Note_on_c, 0, 72, 0
2, 67050, Note_on_c, 0, 79, 60
2, 67140, Note_on_c, 0, 79, 0
2, 67140, Note_on_c, 0, 52, 0
2, 67140, Note_on_c, 0, 72, 38
2, 67140, Note_on_c, 0, 43, 44
2, 67230, Note_on_c, 0, 72, 0
2, 67230, Note_on_c, 0, 78, 58
2, 67320, Note_on_c, 0, 78, 0
2, 67320, Note_on_c, 0, 43, 0
2, 67320, Note_on_c, 0, 80, 53
2, 67320, Note_on_c, 0, 36, 45
2, 67410, Note_on_c, 0, 80, 0
2, 67410, Note_on_c, 0, 79, 51
2, 67500, Note_on_c, 0, 79, 0
2, 67500, Note_on_c, 0, 84, 54
2, 67500, Note_on_c, 0, 43, 40
2, 67590, Note_on_c, 0, 84, 0
2, 67590, Note_on_c, 0, 79, 44
2, 67680, Note_on_c, 0, 79, 0
2, 67680, Note_on_c, 0, 43, 0
2, 67680, Note_on_c, 0, 72, 47
2, 67680, Note_on_c, 0, 52, 56
2, 67770, Note_on_c, 0, 72, 0
2, 67770, Note_on_c, 0, 79, 55
2, 67860, Note_on_c, 0, 79, 0
2, 67860, Note_on_c, 0, 52, 0
2, 67860, Note_on_c, 0, 84, 59
2, 67860, Note_on_c, 0, 58, 55
2, 67950, Note_on_c, 0, 84, 0
2, 67950, Note_on_c, 0, 79, 45
2, 68040, Note_on_c, 0, 79, 0
2, 68040, Note_on_c, 0, 58, 0
2, 68040, Note_on_c, 0, 84, 50
2, 68040, Note_on_c, 0, 59, 56
2, 68130, Note_on_c, 0, 84, 0
2, 68130, Note_on_c, 0, 91, 55
2, 68220, Note_on_c, 0, 91, 0
2, 68220, Note_on_c, 0, 59, 0
2, 68220, Note_on_c, 0, 84, 59
2, 68220, Note_on_c, 0, 60, 50
2, 68310, Note_on_c, 0, 84, 0
2, 68310, Note_on_c, 0, 90, 63
2, 68400, Note_on_c, 0, 90, 0
2, 68400, Note_on_c, 0, 60, 0
2, 68400, Note_on_c, 0, 92, 67
2, 68400, Note_on_c, 0, 64, 59
2, 68490, Note_on_c, 0, 92, 0
2, 68490, Note_on_c, 0, 91, 71
2, 68580, Note_on_c, 0, 91, 0
2, 68580, Note_on_c, 0, 64, 0
2, 68580, Note_on_c, 0, 36, 0
2, 68580, Note_on_c, 0, 96, 76
2, 68580, Note_on_c, 0, 70, 56
2, 68670, Note_on_c, 0, 96, 0
2, 68670, Note_on_c, 0, 91, 78
2, 68760, Note_on_c, 0, 91, 0
2, 68760, Note_on_c, 0, 70, 0
2, 68760, Note_on_c, 0, 84, 80
2, 68760, Note_on_c, 0, 71, 56
2, 68850, Note_on_c, 0, 84, 0
2, 68850, Note_on_c, 0, 91, 83
2, 68940, Note_on_c, 0, 91, 0
2, 68940, Note_on_c, 0, 71, 0
2, 68940, Note_on_c, 0, 96, 85
2, 68940, Note_on_c, 0, 72, 46
2, 69030, Note_on_c, 0, 96, 0
2, 69030, Note_on_c, 0, 91, 87
2, 69120, Note_on_c, 0, 91, 0
2, 69120, Note_on_c, 0, 72, 0
2, 69120, Note_on_c, 0, 96, 90
2, 69120, Note_on_c, 0, 76, 58
2, 69210, Note_on_c, 0, 96, 0
2, 69210, Note_on_c, 0, 91, 92
2, 69300, Note_on_c, 0, 91, 0
2, 69300, Note_on_c, 0, 76, 0
2, 69300, Note_on_c, 0, 84, 94
2, 69300, Note_on_c, 0, 82, 58
2, 69390, Note_on_c, 0, 84, 0
2, 69390, Note_on_c, 0, 91, 96
2, 69480, Note_on_c, 0, 91, 0
2, 69480, Note_on_c, 0, 82, 0
2, 69480, Note_on_c, 0, 96, 99
2, 69480, Note_on_c, 0, 83, 54
2, 69570, Note_on_c, 0, 96, 0
2, 69570, Note_on_c, 0, 91, 101
2, 69660, Note_on_c, 0, 91, 0
2, 69660, Note_on_c, 0, 83, 0
2, 69660, Note_on_c, 0, 96, 111
2, 69660, Note_on_c, 0, 84, 54
2, 69750, Note_on_c, 0, 96, 0
2, 69750, Note_on_c, 0, 91, 97
2, 69840, Note_on_c, 0, 91, 0
2, 69840, Note_on_c, 0, 84, 0
2, 69840, Note_on_c, 0, 84, 95
2, 69840, Note_on_c, 0, 83, 47
2, 69930, Note_on_c, 0, 84, 0
2, 69930, Note_on_c, 0, 91, 92
2, 70020, Note_on_c, 0, 91, 0
2, 70020, Note_on_c, 0, 83, 0
2, 70020, Note_on_c, 0, 96, 90
2, 70020, Note_on_c, 0, 82, 54
2, 70110, Note_on_c, 0, 96, 0
2, 70110, Note_on_c, 0, 91, 87
2, 70200, Note_on_c, 0, 91, 0
2, 70200, Note_on_c, 0, 82, 0
2, 70200, Note_on_c, 0, 96, 85
2, 70200, Note_on_c, 0, 79, 46
2, 70290, Note_on_c, 0, 96, 0
2, 70290, Note_on_c, 0, 91, 82
2, 70380, Note_on_c, 0, 91, 0
2, 70380, Note_on_c, 0, 79, 0
2, 70380, Note_on_c, 0, 84, 80
2, 70380, Note_on_c, 0, 76, 47
2, 70470, Note_on_c, 0, 84, 0
2, 70470, Note_on_c, 0, 91, 77
2, 70560, Note_on_c, 0, 91, 0
2, 70560, Note_on_c, 0, 76, 0
2, 70560, Note_on_c, 0, 96, 74
2, 70560, Note_on_c, 0, 73, 42
2, 70650, Note_on_c, 0, 96, 0
2, 70650, Note_on_c, 0, 91, 72
2, 70740, Note_on_c, 0, 91, 0
2, 70740, Note_on_c, 0, 73, 0
2, 70740, Note_on_c, 0, 96, 63
2, 70740, Note_on_c, 0, 72, 45
2, 71193, Note_on_c, 0, 73, 50
2, 71222, Note_on_c, 0, 73, 0
2, 71222, Note_on_c, 0, 72, 57
2, 71252, Note_on_c, 0, 72, 0
2, 71252, Note_on_c, 0, 73, 62
2, 71280, Note_on_c, 0, 72, 0
2, 71280, Note_on_c, 0, 96, 0
2, 71348, Note_on_c, 0, 73, 0
2, 71348, Note_on_c, 0, 72, 52
2, 71401, Note_on_c, 0, 72, 0
2, 71409, Note_on_c, 0, 73, 48
2, 71459, Note_on_c, 0, 73, 0
2, 71469, Note_on_c, 0, 72, 57
2, 71515, Note_on_c, 0, 72, 0
2, 71525, Note_on_c, 0, 73, 49
2, 71570, Note_on_c, 0, 73, 0
2, 71581, Note_on_c, 0, 72, 58
2, 71626, Note_on_c, 0, 72, 0
2, 71639, Note_on_c, 0, 73, 53
2, 71684, Note_on_c, 0, 73, 0
2, 71699, Note_on_c, 0, 72, 53
2, 71747, Note_on_c, 0, 72, 0
2, 71762, Note_on_c, 0, 73, 50
2, 71813, Note_on_c, 0, 73, 0
2, 71888, Note_on_c, 0, 72, 62
2, 71941, Note_on_c, 0, 72, 0
2, 71952, Note_on_c, 0, 73, 58
2, 72003, Note_on_c, 0, 73, 0
2, 72015, Note_on_c, 0, 72, 62
2, 72066, Note_on_c, 0, 72, 0
2, 72077, Note_on_c, 0, 73, 54
2, 72127, Note_on_c, 0, 73, 0
2, 72138, Note_on_c, 0, 72, 73
2, 72186, Note_on_c, 0, 72, 0
2, 72197, Note_on_c, 0, 73, 62
2, 72243, Note_on_c, 0, 73, 0
2, 72255, Note_on_c, 0, 72, 63
2, 72300, Note_on_c, 0, 72, 0
2, 72311, Note_on_c, 0, 73, 53
2, 72356, Note_on_c, 0, 73, 0
2, 72360, Note_on_c, 0, 60, 56
2, 72366, Note_on_c, 0, 72, 59
2, 72409, Note_on_c, 0, 72, 0
2, 72422, Note_on_c, 0, 73, 55
2, 72467, Note_on_c, 0, 73, 0
2, 72478, Note_on_c, 0, 72, 60
2, 72523, Note_on_c, 0, 72, 0
2, 72536, Note_on_c, 0, 73, 55
2, 72581, Note_on_c, 0, 73, 0
2, 72595, Note_on_c, 0, 72, 56
2, 72641, Note_on_c, 0, 72, 0
2, 72656, Note_on_c, 0, 73, 52
2, 72703, Note_on_c, 0, 73, 0
2, 72717, Note_on_c, 0, 72, 69
2, 72767, Note_on_c, 0, 72, 0
2, 72780, Note_on_c, 0, 73, 64
2, 72831, Note_on_c, 0, 73, 0
2, 72834, Note_on_c, 0, 60, 0
2, 72847, Note_on_c, 0, 72, 61
2, 72899, Note_on_c, 0, 72, 0
2, 72900, Note_on_c, 0, 72, 61
2, 72900, Note_on_c, 0, 60, 91
2, 72900, Note_on_c, 0, 41, 53
2, 72945, Note_on_c, 0, 72, 0
2, 72945, Note_on_c, 0, 73, 64
2, 72952, Note_on_c, 0, 49, 53
2, 72990, Note_on_c, 0, 73, 0
2, 72990, Note_on_c, 0, 72, 58
2, 73004, Note_on_c, 0, 56, 53
2, 73035, Note_on_c, 0, 72, 0
2, 73035, Note_on_c, 0, 73, 61
2, 73080, Note_on_c, 0, 73, 0
2, 73080, Note_on_c, 0, 72, 55
2, 73125, Note_on_c, 0, 72, 0
2, 73125, Note_on_c, 0, 73, 59
2, 73170, Note_on_c, 0, 73, 0
2, 73170, Note_on_c, 0, 72, 61
2, 73215, Note_on_c, 0, 72, 0
2, 73215, Note_on_c, 0, 73, 60
2, 73260, Note_on_c, 0, 73, 0
2, 73260, Note_on_c, 0, 72, 57
2, 73305, Note_on_c, 0, 72, 0
2, 73305, Note_on_c, 0, 73, 59
2, 73350, Note_on_c, 0, 73, 0
2, 73350, Note_on_c, 0, 72, 57
2, 73395, Note_on_c, 0, 72, 0
2, 73395, Note_on_c, 0, 73, 64
2, 73440, Note_on_c, 0, 73, 0
2, 73440, Note_on_c, 0, 60, 0
2, 73440, Note_on_c, 0, 72, 59
2, 73440, Note_on_c, 0, 72, 83
2, 73485, Note_on_c, 0, 72, 0
2, 73485, Note_on_c, 0, 73, 67
2, 73530, Note_on_c, 0, 73, 0
2, 73530, Note_on_c, 0, 72, 61
2, 73575, Note_on_c, 0, 72, 0
2, 73575, Note_on_c, 0, 73, 66
2, 73620, Note_on_c, 0, 73, 0
2, 73620, Note_on_c, 0, 72, 57
2, 73665, Note_on_c, 0, 72, 0
2, 73665, Note_on_c, 0, 73, 63
2, 73710, Note_on_c, 0, 73, 0
2, 73710, Note_on_c, 0, 72, 59
2, 73755, Note_on_c, 0, 72, 0
2, 73755, Note_on_c, 0, 73, 64
2, 73800, Note_on_c, 0, 73, 0
2, 73800, Note_on_c, 0, 72, 53
2, 73845, Note_on_c, 0, 72, 0
2, 73845, Note_on_c, 0, 73, 66
2, 73890, Note_on_c, 0, 73, 0
2, 73890, Note_on_c, 0, 72, 57
2, 73935, Note_on_c, 0, 72, 0
2, 73935, Note_on_c, 0, 73, 65
2, 73980, Note_on_c, 0, 73, 0
2, 73980, Note_on_c, 0, 72, 58
2, 74025, Note_on_c, 0, 72, 0
2, 74025, Note_on_c, 0, 73, 62
2, 74070, Note_on_c, 0, 73, 0
2, 74070, Note_on_c, 0, 72, 58
2, 74115, Note_on_c, 0, 72, 0
2, 74115, Note_on_c, 0, 73, 67
2, 74160, Note_on_c, 0, 73, 0
2, 74160, Note_on_c, 0, 72, 58
2, 74205, Note_on_c, 0, 72, 0
2, 74205, Note_on_c, 0, 73, 63
2, 74250, Note_on_c, 0, 73, 0
2, 74250, Note_on_c, 0, 72, 54
2, 74295, Note_on_c, 0, 72, 0
2, 74295, Note_on_c, 0, 73, 65
2, 74340, Note_on_c, 0, 73, 0
2, 74340, Note_on_c, 0, 72, 52
2, 74385, Note_on_c, 0, 72, 0
2, 74385, Note_on_c, 0, 73, 65
2, 74389, Note_on_c, 0, 72, 0
2, 74430, Note_on_c, 0, 73, 0
2, 74430, Note_on_c, 0, 72, 62
2, 74475, Note_on_c, 0, 72, 0
2, 74475, Note_on_c, 0, 73, 65
2, 74520, Note_on_c, 0, 73, 0
2, 74520, Note_on_c, 0, 72, 56
2, 74520, Note_on_c, 0, 70, 109
2, 74565, Note_on_c, 0, 72, 0
2, 74565, Note_on_c, 0, 73, 65
2, 74610, Note_on_c, 0, 73, 0
2, 74610, Note_on_c, 0, 72, 60
2, 74655, Note_on_c, 0, 72, 0
2, 74655, Note_on_c, 0, 73, 64
2, 74700, Note_on_c, 0, 73, 0
2, 74700, Note_on_c, 0, 72, 63
2, 74745, Note_on_c, 0, 72, 0
2, 74745, Note_on_c, 0, 73, 63
2, 74790, Note_on_c, 0, 73, 0
2, 74790, Note_on_c, 0, 72, 53
2, 74835, Note_on_c, 0, 72, 0
2, 74835, Note_on_c, 0, 73, 59
2, 74880, Note_on_c, 0, 73, 0
2, 74880, Note_on_c, 0, 72, 60
2, 74925, Note_on_c, 0, 72, 0
2, 74925, Note_on_c, 0, 73, 63
2, 74970, Note_on_c, 0, 73, 0
2, 74970, Note_on_c, 0, 72, 54
2, 75015, Note_on_c, 0, 72, 0
2, 75015, Note_on_c, 0, 73, 63
2, 75060, Note_on_c, 0, 73, 0
2, 75060, Note_on_c, 0, 70, 0
2, 75060, Note_on_c, 0, 49, 0
2, 75060, Note_on_c, 0, 41, 0
2, 75060, Note_on_c, 0, 56, 0
2, 75060, Note_on_c, 0, 72, 57
2, 75060, Note_on_c, 0, 68, 99
2, 75060, Note_on_c, 0, 41, 92
2, 75105, Note_on_c, 0, 72, 0
2, 75105, Note_on_c, 0, 74, 61
2, 75109, Note_on_c, 0, 46, 92
2, 75150, Note_on_c, 0, 74, 0
2, 75150, Note_on_c, 0, 72, 58
2, 75159, Note_on_c, 0, 50, 92
2, 75195, Note_on_c, 0, 72, 0
2, 75195, Note_on_c, 0, 74, 63
2, 75208, Note_on_c, 0, 56, 92
2, 75240, Note_on_c, 0, 74, 0
2, 75240, Note_on_c, 0, 72, 61
2, 75257, Note_on_c, 0, 58, 92
2, 75285, Note_on_c, 0, 72, 0
2, 75285, Note_on_c, 0, 74, 60
2, 75306, Note_on_c, 0, 62, 92
2, 75330, Note_on_c, 0, 74, 0
2, 75330, Note_on_c, 0, 72, 56
2, 75375, Note_on_c, 0, 72, 0
2, 75375, Note_on_c, 0, 74, 61
2, 75420, Note_on_c, 0, 74, 0
2, 75420, Note_on_c, 0, 72, 55
2, 75465, Note_on_c, 0, 72, 0
2, 75465, Note_on_c, 0, 74, 61
2, 75510, Note_on_c, 0, 74, 0
2, 75510, Note_on_c, 0, 72, 55
2, 75555, Note_on_c, 0, 72, 0
2, 75555, Note_on_c, 0, 74, 67
2, 75600, Note_on_c, 0, 74, 0
2, 75600, Note_on_c, 0, 68, 0
2, 75600, Note_on_c, 0, 72, 56
2, 75600, Note_on_c, 0, 65, 85
2, 75645, Note_on_c, 0, 72, 0
2, 75645, Note_on_c, 0, 74, 69
2, 75690, Note_on_c, 0, 74, 0
2, 75690, Note_on_c, 0, 72, 60
2, 75735, Note_on_c, 0, 72, 0
2, 75735, Note_on_c, 0, 74, 61
2, 75780, Note_on_c, 0, 74, 0
2, 75780, Note_on_c, 0, 72, 58
2, 75825, Note_on_c, 0, 72, 0
2, 75825, Note_on_c, 0, 74, 67
2, 75870, Note_on_c, 0, 74, 0
2, 75870, Note_on_c, 0, 72, 60
2, 75915, Note_on_c, 0, 72, 0
2, 75915, Note_on_c, 0, 74, 62
2, 75960, Note_on_c, 0, 74, 0
2, 75960, Note_on_c, 0, 72, 54
2, 76005, Note_on_c, 0, 72, 0
2, 76005, Note_on_c, 0, 74, 67
2, 76050, Note_on_c, 0, 74, 0
2, 76050, Note_on_c, 0, 72, 59
2, 76095, Note_on_c, 0, 72, 0
2, 76095, Note_on_c, 0, 74, 65
2, 76140, Note_on_c, 0, 74, 0
2, 76140, Note_on_c, 0, 72, 58
2, 76185, Note_on_c, 0, 72, 0
2, 76185, Note_on_c, 0, 74, 63
2, 76230, Note_on_c, 0, 74, 0
2, 76230, Note_on_c, 0, 72, 61
2, 76275, Note_on_c, 0, 72, 0
2, 76275, Note_on_c, 0, 74, 70
2, 76320, Note_on_c, 0, 74, 0
2, 76320, Note_on_c, 0, 72, 59
2, 76365, Note_on_c, 0, 72, 0
2, 76365, Note_on_c, 0, 74, 65
2, 76410, Note_on_c, 0, 74, 0
2, 76410, Note_on_c, 0, 72, 59
2, 76455, Note_on_c, 0, 72, 0
2, 76455, Note_on_c, 0, 74, 66
2, 76500, Note_on_c, 0, 74, 0
2, 76500, Note_on_c, 0, 72, 52
2, 76545, Note_on_c, 0, 72, 0
2, 76545, Note_on_c, 0, 74, 64
2, 76590, Note_on_c, 0, 74, 0
2, 76590, Note_on_c, 0, 72, 58
2, 76635, Note_on_c, 0, 72, 0
2, 76635, Note_on_c, 0, 74, 65
2, 76680, Note_on_c, 0, 74, 0
2, 76680, Note_on_c, 0, 65, 0
2, 76680, Note_on_c, 0, 46, 0
2, 76680, Note_on_c, 0, 56, 0
2, 76680, Note_on_c, 0, 50, 0
2, 76680, Note_on_c, 0, 41, 0
2, 76680, Note_on_c, 0, 58, 0
2, 76680, Note_on_c, 0, 62, 0
2, 76680, Note_on_c, 0, 72, 64
2, 76680, Note_on_c, 0, 67, 97
2, 76680, Note_on_c, 0, 41, 53
2, 76725, Note_on_c, 0, 72, 0
2, 76725, Note_on_c, 0, 74, 64
2, 76729, Note_on_c, 0, 47, 53
2, 76770, Note_on_c, 0, 74, 0
2, 76770, Note_on_c, 0, 72, 56
2, 76779, Note_on_c, 0, 50, 53
2, 76815, Note_on_c, 0, 72, 0
2, 76815, Note_on_c, 0, 74, 67
2, 76828, Note_on_c, 0, 56, 53
2, 76860, Note_on_c, 0, 74, 0
2, 76860, Note_on_c, 0, 72, 55
2, 76877, Note_on_c, 0, 59, 53
2, 76905, Note_on_c, 0, 72, 0
2, 76905, Note_on_c, 0, 74, 60
2, 76926, Note_on_c, 0, 62, 53
2, 76950, Note_on_c, 0, 74, 0
2, 76950, Note_on_c, 0, 72, 58
2, 76995, Note_on_c, 0, 72, 0
2, 76995, Note_on_c, 0, 74, 69
2, 77040, Note_on_c, 0, 74, 0
2, 77040, Note_on_c, 0, 72, 62
2, 77085, Note_on_c, 0, 72, 0
2, 77085, Note_on_c, 0, 74, 64
2, 77130, Note_on_c, 0, 74, 0
2, 77130, Note_on_c, 0, 72, 58
2, 77175, Note_on_c, 0, 72, 0
2, 77175, Note_on_c, 0, 74, 60
2, 77220, Note_on_c, 0, 74, 0
2, 77220, Note_on_c, 0, 47, 0
2, 77220, Note_on_c, 0, 59, 0
2, 77220, Note_on_c, 0, 56, 0
2, 77220, Note_on_c, 0, 50, 0
2, 77220, Note_on_c, 0, 67, 0
2, 77220, Note_on_c, 0, 41, 0
2, 77220, Note_on_c, 0, 62, 0
2, 77220, Control_c, 0, 64, 127
2, 77220, Note_on_c, 0, 67, 97
2, 77220, Note_on_c, 0, 36, 49
2, 77220, Note_on_c, 0, 43, 49
2, 77220, Note_on_c, 0, 52, 49
2, 77220, Note_on_c, 0, 55, 49
2, 77220, Note_on_c, 0, 60, 49
2, 77220, Note_on_c, 0, 64, 49
2, 77262, Note_on_c, 0, 72, 47
2, 77296, Note_on_c, 0, 72, 0
2, 77304, Note_on_c, 0, 73, 49
2, 77338, Note_on_c, 0, 73, 0
2, 77345, Note_on_c, 0, 72, 51
2, 77378, Note_on_c, 0, 72, 0
2, 77386, Note_on_c, 0, 73, 49
2, 77418, Note_on_c, 0, 73, 0
2, 77427, Note_on_c, 0, 72, 47
2, 77459, Note_on_c, 0, 72, 0
2, 77466, Note_on_c, 0, 73, 53
2, 77497, Note_on_c, 0, 73, 0
2, 77505, Note_on_c, 0, 72, 48
2, 77537, Note_on_c, 0, 72, 0
2, 77544, Note_on_c, 0, 73, 48
2, 77573, Note_on_c, 0, 73, 0
2, 77582, Note_on_c, 0, 72, 48
2, 77611, Note_on_c, 0, 72, 0
2, 77619, Note_on_c, 0, 73, 43
2, 77649, Note_on_c, 0, 73, 0
2, 77656, Note_on_c, 0, 72, 59
2, 77684, Note_on_c, 0, 72, 0
2, 77693, Note_on_c, 0, 73, 49
2, 77721, Note_on_c, 0, 73, 0
2, 77729, Note_on_c, 0, 72, 47
2, 77757, Note_on_c, 0, 72, 0
2, 77764, Note_on_c, 0, 73, 45
2, 77792, Note_on_c, 0, 73, 0
2, 77799, Note_on_c, 0, 72, 49
2, 77828, Note_on_c, 0, 72, 0
2, 77835, Note_on_c, 0, 73, 43
2, 77863, Note_on_c, 0, 73, 0
2, 77871, Note_on_c, 0, 72, 56
2, 77899, Note_on_c, 0, 72, 0
2, 77908, Note_on_c, 0, 73, 52
2, 77936, Note_on_c, 0, 73, 0
2, 77944, Note_on_c, 0, 72, 49
2, 77972, Note_on_c, 0, 72, 0
2, 77982, Note_on_c, 0, 73, 41
2, 78012, Note_on_c, 0, 73, 0
2, 78020, Note_on_c, 0, 72, 55
2, 78050, Note_on_c, 0, 72, 0
2, 78058, Note_on_c, 0, 73, 43
2, 78088, Note_on_c, 0, 73, 0
2, 78098, Note_on_c, 0, 72, 46
2, 78129, Note_on_c, 0, 72, 0
2, 78137, Note_on_c, 0, 73, 42
2, 78168, Note_on_c, 0, 73, 0
2, 78169, Note_on_c, 0, 67, 0
2, 78176, Note_on_c, 0, 72, 50
2, 78207, Note_on_c, 0, 72, 0
2, 78217, Note_on_c, 0, 73, 47
2, 78249, Note_on_c, 0, 73, 0
2, 78258, Note_on_c, 0, 72, 54
2, 78290, Note_on_c, 0, 72, 0
2, 78299, Note_on_c, 0, 73, 39
2, 78300, Note_on_c, 0, 60, 79
2, 78331, Note_on_c, 0, 73, 0
2, 78342, Note_on_c, 0, 72, 57
2, 78376, Note_on_c, 0, 72, 0
2, 78383, Note_on_c, 0, 73, 50
2, 78416, Note_on_c, 0, 73, 0
2, 78422, Note_on_c, 0, 72, 55
2, 78453, Note_on_c, 0, 72, 0
2, 78462, Note_on_c, 0, 73, 44
2, 78493, Note_on_c, 0, 73, 0
2, 78500, Note_on_c, 0, 72, 47
2, 78529, Note_on_c, 0, 72, 0
2, 78536, Note_on_c, 0, 73, 46
2, 78564, Note_on_c, 0, 73, 0
2, 78572, Note_on_c, 0, 72, 51
2, 78600, Note_on_c, 0, 72, 0
2, 78607, Note_on_c, 0, 73, 45
2, 78635, Note_on_c, 0, 73, 0
2, 78643, Note_on_c, 0, 72, 55
2, 78671, Note_on_c, 0, 72, 0
2, 78681, Note_on_c, 0, 73, 49
2, 78711, Note_on_c, 0, 73, 0
2, 78719, Note_on_c, 0, 72, 45
2, 78749, Note_on_c, 0, 72, 0
2, 78759, Note_on_c, 0, 73, 41
2, 78789, Note_on_c, 0, 73, 0
2, 78799, Note_on_c, 0, 72, 49
2, 78832, Note_on_c, 0, 72, 0
2, 78930, Note_on_c, 0, 71, 58
2, 79009, Note_on_c, 0, 71, 0
2, 79020, Note_on_c, 0, 72, 61
2, 79099, Note_on_c, 0, 72, 0
2, 79110, Note_on_c, 0, 76, 71
2, 79189, Note_on_c, 0, 76, 0
2, 79200, Note_on_c, 0, 79, 69
2, 79249, Note_on_c, 0, 60, 0
2, 79279, Note_on_c, 0, 79, 0
2, 79290, Note_on_c, 0, 84, 71
2, 79369, Note_on_c, 0, 84, 0
2, 79380, Note_on_c, 0, 36, 0
2, 79380, Note_on_c, 0, 43, 0
2, 79380, Note_on_c, 0, 52, 0
2, 79380, Note_on_c, 0, 60, 0
2, 79380, Note_on_c, 0, 64, 0
2, 79380, Note_on_c, 0, 55, 0
2, 79380, Note_on_c, 0, 72, 49
2, 79380, Control_c, 0, 64, 0
2, 81540, Note_on_c, 0, 72, 0
2, 81540, End_track
0, 0, End_of_file
