0, 0, Header, 1, 2, 360
1, 0, Start_track
1, 0, Title_t, "untitled"
1, 0, Time_signature, 3, 2, 24, 8
1, 0, Key_signature, 0, "major"
1, 0, Tempo, 857143
1, 12960, Tempo, 857143
1, 13002, Tempo, 870196
1, 13044, Tempo, 883783
1, 13087, Tempo, 897666
1, 13129, Tempo, 912131
1, 13171, Tempo, 926927
1, 13213, Tempo, 942359
1, 13256, Tempo, 958160
1, 13298, Tempo, 974659
1, 13340, Tempo, 991572
1, 13382, Tempo, 1009251
1, 13424, Tempo, 1027397
1, 13466, Tempo, 1046390
1, 13509, Tempo, 1065909
1, 13551, Tempo, 1086366
1, 13593, Tempo, 1107420
1, 13635, Tempo, 1129305
1, 13680, Tempo, 1153846
1, 13860, Tempo, 857143
1, 18360, Tempo, 821918
1, 19440, Tempo, 800000
1, 21600, Tempo, 810811
1, 22680, Tempo, 821918
1, 23760, Tempo, 833333
1, 25920, Tempo, 833333
1, 25983, Tempo, 845785
1, 26047, Tempo, 858492
1, 26110, Tempo, 871713
1, 26173, Tempo, 885217
1, 26237, Tempo, 899281
1, 26300, Tempo, 913798
1, 26363, Tempo, 928649
1, 26426, Tempo, 944138
1, 26490, Tempo, 960000
1, 26553, Tempo, 976563
1, 26616, Tempo, 993707
1, 26679, Tempo, 1011293
1, 26743, Tempo, 1029689
1, 26806, Tempo, 1048584
1, 26869, Tempo, 1068376
1, 26933, Tempo, 1088929
1, 26999, Tempo, 1111111
1, 27000, Tempo, 857143
1, 36000, Tempo, 857143
1, 36042, Tempo, 870322
1, 36084, Tempo, 883783
1, 36127, Tempo, 897800
1, 36169, Tempo, 912270
1, 36211, Tempo, 927070
1, 36253, Tempo, 942507
1, 36296, Tempo, 958466
1, 36338, Tempo, 974817
1, 36380, Tempo, 991899
1, 36422, Tempo, 1009591
1, 36464, Tempo, 1027749
1, 36506, Tempo, 1046755
1, 36549, Tempo, 1066477
1, 36591, Tempo, 1086760
1, 36633, Tempo, 1108033
1, 36675, Tempo, 1130156
1, 36719, Tempo, 1153846
1, 36720, Tempo, 857143
1, 43560, Tempo, 857143
1, 43602, Tempo, 870322
1, 43644, Tempo, 883783
1, 43687, Tempo, 897800
1, 43729, Tempo, 912270
1, 43771, Tempo, 927070
1, 43813, Tempo, 942507
1, 43856, Tempo, 958466
1, 43898, Tempo, 974817
1, 43940, Tempo, 991899
1, 43982, Tempo, 1009591
1, 44024, Tempo, 1027749
1, 44066, Tempo, 1046755
1, 44109, Tempo, 1066477
1, 44151, Tempo, 1086760
1, 44193, Tempo, 1108033
1, 44235, Tempo, 1130156
1, 44279, Tempo, 1153846
1, 44280, Tempo, 857143
1, 60840, Tempo, 821918
1, 62159, Tempo, 800000
1, 63000, Tempo, 769231
1, 63720, Tempo, 681818
1, 66960, Tempo, 681818
1, 67023, Tempo, 691962
1, 67087, Tempo, 702412
1, 67150, Tempo, 713182
1, 67213, Tempo, 724288
1, 67277, Tempo, 735745
1, 67340, Tempo, 747570
1, 67403, Tempo, 759878
1, 67466, Tempo, 772499
1, 67530, Tempo, 785546
1, 67593, Tempo, 799041
1, 67656, Tempo, 813008
1, 67719, Tempo, 827472
1, 67783, Tempo, 842460
1, 67846, Tempo, 858001
1, 67909, Tempo, 874126
1, 67973, Tempo, 890869
1, 68039, Tempo, 909091
1, 68040, Tempo, 857143
1, 73440, Tempo, 833333
1, 74520, Tempo, 800000
1, 75600, Tempo, 759494
1, 76680, Tempo, 681818
1, 81000, Tempo, 666667
1, 92640, Tempo, 666667
1, 92710, Tempo, 676819
1, 92780, Tempo, 687285
1, 92921, Tempo, 709136
1, 92991, Tempo, 720634
1, 93062, Tempo, 732511
1, 93132, Tempo, 744786
1, 93202, Tempo, 757480
1, 93272, Tempo, 770515
1, 93343, Tempo, 784109
1, 93413, Tempo, 798191
1, 93483, Tempo, 812788
1, 93554, Tempo, 827929
1, 93624, Tempo, 843526
1, 93694, Tempo, 859845
1, 93765, Tempo, 876808
1, 93839, Tempo, 895522
1, 93960, Tempo, 750000
1, 103680, Time_signature, 4, 2, 24, 8
1, 103680, Tempo, 705882
1, 110880, Tempo, 705882
1, 110964, Tempo, 716760
1, 111049, Tempo, 727979
1, 111133, Tempo, 739554
1, 111218, Tempo, 751503
1, 111302, Tempo, 763845
1, 111386, Tempo, 776598
1, 111471, Tempo, 789785
1, 111555, Tempo, 803428
1, 111639, Tempo, 817550
1, 111724, Tempo, 832178
1, 111808, Tempo, 847338
1, 111893, Tempo, 863061
1, 111977, Tempo, 879379
1, 112061, Tempo, 896325
1, 112146, Tempo, 913938
1, 112230, Tempo, 932401
1, 112319, Tempo, 952381
1, 112320, Time_signature, 3, 2, 24, 8
1, 112320, Tempo, 857143
1, 124740, Tempo, 833333
1, 125280, Tempo, 810811
1, 126360, Tempo, 789474
1, 127440, Tempo, 769231
1, 139680, Tempo, 769231
1, 139722, Tempo, 780945
1, 139764, Tempo, 793126
1, 139807, Tempo, 805585
1, 139849, Tempo, 818554
1, 139891, Tempo, 831831
1, 139933, Tempo, 845547
1, 139976, Tempo, 859845
1, 140018, Tempo, 874508
1, 140060, Tempo, 889812
1, 140102, Tempo, 905524
1, 140144, Tempo, 921942
1, 140186, Tempo, 938820
1, 140229, Tempo, 956328
1, 140271, Tempo, 974659
1, 140313, Tempo, 993542
1, 140355, Tempo, 1013342
1, 140399, Tempo, 1034483
1, 140400, Tempo, 750000
1, 143640, Tempo, 750000
1, 143703, Tempo, 761132
1, 143767, Tempo, 772698
1, 143830, Tempo, 784519
1, 143893, Tempo, 796707
1, 143957, Tempo, 809389
1, 144020, Tempo, 822368
1, 144083, Tempo, 835771
1, 144146, Tempo, 849738
1, 144210, Tempo, 864055
1, 144273, Tempo, 878863
1, 144336, Tempo, 894321
1, 144399, Tempo, 910194
1, 144463, Tempo, 926641
1, 144526, Tempo, 943841
1, 144589, Tempo, 961538
1, 144653, Tempo, 979912
1, 144719, Tempo, 1000000
1, 144720, Tempo, 857143
1, 149040, Tempo, 1200000
1, 152280, Tempo, 750000
1, 153270, Tempo, 5000000
1, 153360, Tempo, 750000
1, 154350, Tempo, 5000000
1, 154440, Tempo, 750000
1, 154440, End_track
2, 0, Start_track
2, 0, Title_t, "Piano"
2, 0, Program_c, 0, 0
2, 0, Control_c, 0, 7, 105
2, 0, Control_c, 0, 10, 64
2, 0, Control_c, 0, 91, 60
2, 0, Control_c, 0, 121, 0
2, 0, Control_c, 0, 121, 0
2, 0, Control_c, 0, 91, 60
2, 0, Control_c, 0, 10, 51
2, 0, Control_c, 0, 7, 100
2, 0, Control_c, 0, 64, 127
2, 0, Note_on_c, 0, 60, 46
2, 0, Note_on_c, 0, 60, 51
2, 120, Note_on_c, 0, 60, 0
2, 120, Note_on_c, 0, 64, 50
2, 239, Note_on_c, 0, 64, 0
2, 239, Control_c, 0, 64, 0
2, 239, Note_on_c, 0, 69, 54
2, 360, Note_on_c, 0, 69, 0
2, 360, Note_on_c, 0, 60, 0
2, 360, Control_c, 0, 64, 127
2, 360, Note_on_c, 0, 59, 45
2, 360, Note_on_c, 0, 59, 56
2, 480, Note_on_c, 0, 59, 0
2, 480, Note_on_c, 0, 64, 53
2, 599, Note_on_c, 0, 64, 0
2, 599, Control_c, 0, 64, 0
2, 599, Note_on_c, 0, 69, 53
2, 720, Note_on_c, 0, 69, 0
2, 720, Note_on_c, 0, 59, 0
2, 720, Control_c, 0, 64, 127
2, 720, Note_on_c, 0, 60, 33
2, 720, Note_on_c, 0, 60, 58
2, 840, Note_on_c, 0, 60, 0
2, 840, Note_on_c, 0, 64, 46
2, 959, Note_on_c, 0, 64, 0
2, 959, Control_c, 0, 64, 0
2, 959, Note_on_c, 0, 69, 52
2, 1080, Note_on_c, 0, 69, 0
2, 1080, Note_on_c, 0, 60, 0
2, 1080, Control_c, 0, 64, 127
2, 1080, Note_on_c, 0, 57, 44
2, 1080, Note_on_c, 0, 57, 50
2, 1200, Note_on_c, 0, 57, 0
2, 1200, Note_on_c, 0, 64, 56
2, 1319, Note_on_c, 0, 64, 0
2, 1319, Control_c, 0, 64, 0
2, 1319, Note_on_c, 0, 69, 54
2, 1440, Note_on_c, 0, 69, 0
2, 1440, Note_on_c, 0, 57, 0
2, 1440, Control_c, 0, 64, 127
2, 1440, Note_on_c, 0, 60, 43
2, 1440, Note_on_c, 0, 60, 59
2, 1560, Note_on_c, 0, 60, 0
2, 1560, Note_on_c, 0, 64, 48
2, 1679, Note_on_c, 0, 64, 0
2, 1679, Control_c, 0, 64, 0
2, 1679, Note_on_c, 0, 69, 55
2, 1800, Note_on_c, 0, 69, 0
2, 1800, Note_on_c, 0, 60, 0
2, 1800, Control_c, 0, 64, 127
2, 1800, Note_on_c, 0, 59, 44
2, 1800, Note_on_c, 0, 59, 52
2, 1920, Note_on_c, 0, 59, 0
2, 1920, Note_on_c, 0, 64, 54
2, 2039, Note_on_c, 0, 64, 0
2, 2039, Control_c, 0, 64, 0
2, 2039, Note_on_c, 0, 69, 53
2, 2160, Note_on_c, 0, 69, 0
2, 2160, Note_on_c, 0, 59, 0
2, 2160, Note_on_c, 0, 76, 91
2, 2160, Control_c, 0, 64, 127
2, 2160, Note_on_c, 0, 60, 37
2, 2160, Note_on_c, 0, 60, 60
2, 2280, Note_on_c, 0, 60, 0
2, 2280, Note_on_c, 0, 64, 54
2, 2399, Note_on_c, 0, 64, 0
2, 2399, Control_c, 0, 64, 0
2, 2399, Note_on_c, 0, 69, 55
2, 2520, Note_on_c, 0, 69, 0
2, 2520, Note_on_c, 0, 60, 0
2, 2520, Control_c, 0, 64, 127
2, 2520, Note_on_c, 0, 59, 42
2, 2520, Note_on_c, 0, 59, 56
2, 2634, Note_on_c, 0, 76, 0
2, 2640, Note_on_c, 0, 59, 0
2, 2640, Note_on_c, 0, 64, 51
2, 2700, Note_on_c, 0, 71, 78
2, 2759, Note_on_c, 0, 64, 0
2, 2759, Control_c, 0, 64, 0
2, 2759, Note_on_c, 0, 69, 51
2, 2880, Note_on_c, 0, 69, 0
2, 2880, Note_on_c, 0, 59, 0
2, 2880, Control_c, 0, 64, 127
2, 2880, Note_on_c, 0, 60, 38
2, 2880, Note_on_c, 0, 60, 59
2, 3000, Note_on_c, 0, 60, 0
2, 3000, Note_on_c, 0, 64, 48
2, 3060, Note_on_c, 0, 71, 0
2, 3060, Note_on_c, 0, 52, 58
2, 3119, Note_on_c, 0, 64, 0
2, 3119, Control_c, 0, 64, 0
2, 3119, Note_on_c, 0, 69, 53
2, 3240, Note_on_c, 0, 69, 0
2, 3240, Note_on_c, 0, 60, 0
2, 3240, Control_c, 0, 64, 127
2, 3240, Note_on_c, 0, 57, 46
2, 3240, Note_on_c, 0, 57, 52
2, 3360, Note_on_c, 0, 57, 0
2, 3360, Note_on_c, 0, 64, 53
2, 3420, Note_on_c, 0, 52, 0
2, 3420, Note_on_c, 0, 45, 59
2, 3479, Note_on_c, 0, 64, 0
2, 3479, Control_c, 0, 64, 0
2, 3479, Note_on_c, 0, 69, 53
2, 3600, Note_on_c, 0, 69, 0
2, 3600, Note_on_c, 0, 45, 0
2, 3600, Note_on_c, 0, 57, 0
2, 3600, Control_c, 0, 64, 127
2, 3600, Note_on_c, 0, 60, 39
2, 3600, Note_on_c, 0, 60, 57
2, 3720, Note_on_c, 0, 60, 0
2, 3720, Note_on_c, 0, 64, 50
2, 3780, Note_on_c, 0, 76, 65
2, 3839, Note_on_c, 0, 64, 0
2, 3839, Control_c, 0, 64, 0
2, 3839, Note_on_c, 0, 69, 50
2, 3960, Note_on_c, 0, 69, 0
2, 3960, Note_on_c, 0, 60, 0
2, 3960, Control_c, 0, 64, 127
2, 3960, Note_on_c, 0, 59, 42
2, 3960, Note_on_c, 0, 59, 48
2, 4080, Note_on_c, 0, 59, 0
2, 4080, Note_on_c, 0, 64, 55
2, 4140, Note_on_c, 0, 76, 0
2, 4140, Note_on_c, 0, 83, 78
2, 4199, Note_on_c, 0, 64, 0
2, 4199, Control_c, 0, 64, 0
2, 4199, Note_on_c, 0, 69, 52
2, 4320, Note_on_c, 0, 69, 0
2, 4320, Note_on_c, 0, 59, 0
2, 4320, Control_c, 0, 64, 127
2, 4320, Note_on_c, 0, 60, 41
2, 4320, Note_on_c, 0, 60, 57
2, 4440, Note_on_c, 0, 60, 0
2, 4440, Note_on_c, 0, 64, 54
2, 4500, Note_on_c, 0, 83, 0
2, 4500, Note_on_c, 0, 76, 69
2, 4559, Note_on_c, 0, 64, 0
2, 4559, Control_c, 0, 64, 0
2, 4559, Note_on_c, 0, 69, 54
2, 4680, Note_on_c, 0, 69, 0
2, 4680, Note_on_c, 0, 60, 0
2, 4680, Control_c, 0, 64, 127
2, 4680, Note_on_c, 0, 59, 41
2, 4680, Note_on_c, 0, 59, 51
2, 4800, Note_on_c, 0, 59, 0
2, 4800, Note_on_c, 0, 64, 58
2, 4817, Note_on_c, 0, 76, 0
2, 4860, Note_on_c, 0, 71, 58
2, 4919, Note_on_c, 0, 64, 0
2, 4919, Control_c, 0, 64, 0
2, 4919, Note_on_c, 0, 69, 56
2, 5040, Note_on_c, 0, 69, 0
2, 5040, Note_on_c, 0, 59, 0
2, 5040, Control_c, 0, 64, 127
2, 5040, Note_on_c, 0, 60, 39
2, 5040, Note_on_c, 0, 60, 55
2, 5160, Note_on_c, 0, 60, 0
2, 5160, Note_on_c, 0, 64, 51
2, 5220, Note_on_c, 0, 71, 0
2, 5220, Note_on_c, 0, 52, 57
2, 5279, Note_on_c, 0, 64, 0
2, 5279, Control_c, 0, 64, 0
2, 5279, Note_on_c, 0, 69, 60
2, 5400, Note_on_c, 0, 69, 0
2, 5400, Note_on_c, 0, 60, 0
2, 5400, Control_c, 0, 64, 127
2, 5400, Note_on_c, 0, 57, 44
2, 5400, Note_on_c, 0, 57, 54
2, 5520, Note_on_c, 0, 57, 0
2, 5520, Note_on_c, 0, 64, 52
2, 5580, Note_on_c, 0, 52, 0
2, 5580, Note_on_c, 0, 45, 62
2, 5639, Note_on_c, 0, 64, 0
2, 5639, Control_c, 0, 64, 0
2, 5639, Note_on_c, 0, 69, 53
2, 5760, Note_on_c, 0, 69, 0
2, 5760, Note_on_c, 0, 45, 0
2, 5760, Note_on_c, 0, 57, 0
2, 5760, Control_c, 0, 64, 127
2, 5760, Note_on_c, 0, 60, 41
2, 5760, Note_on_c, 0, 60, 54
2, 5880, Note_on_c, 0, 60, 0
2, 5880, Note_on_c, 0, 64, 44
2, 5940, Note_on_c, 0, 76, 59
2, 5999, Note_on_c, 0, 64, 0
2, 5999, Control_c, 0, 64, 0
2, 5999, Note_on_c, 0, 69, 53
2, 6120, Note_on_c, 0, 69, 0
2, 6120, Note_on_c, 0, 60, 0
2, 6120, Control_c, 0, 64, 127
2, 6120, Note_on_c, 0, 59, 41
2, 6120, Note_on_c, 0, 59, 52
2, 6240, Note_on_c, 0, 59, 0
2, 6240, Note_on_c, 0, 64, 51
2, 6300, Note_on_c, 0, 76, 0
2, 6300, Note_on_c, 0, 83, 78
2, 6359, Note_on_c, 0, 64, 0
2, 6359, Control_c, 0, 64, 0
2, 6359, Note_on_c, 0, 69, 54
2, 6480, Note_on_c, 0, 69, 0
2, 6480, Note_on_c, 0, 83, 0
2, 6480, Note_on_c, 0, 59, 0
2, 6480, Note_on_c, 0, 76, 66
2, 6480, Control_c, 0, 64, 127
2, 6480, Note_on_c, 0, 60, 41
2, 6480, Note_on_c, 0, 60, 55
2, 6600, Note_on_c, 0, 60, 0
2, 6600, Note_on_c, 0, 64, 52
2, 6638, Note_on_c, 0, 76, 0
2, 6660, Note_on_c, 0, 71, 59
2, 6719, Note_on_c, 0, 64, 0
2, 6719, Control_c, 0, 64, 0
2, 6719, Note_on_c, 0, 69, 57
2, 6840, Note_on_c, 0, 69, 0
2, 6840, Note_on_c, 0, 71, 0
2, 6840, Note_on_c, 0, 60, 0
2, 6840, Control_c, 0, 64, 127
2, 6840, Note_on_c, 0, 59, 47
2, 6840, Note_on_c, 0, 59, 56
2, 6960, Note_on_c, 0, 59, 0
2, 6960, Note_on_c, 0, 64, 53
2, 7020, Note_on_c, 0, 76, 65
2, 7079, Note_on_c, 0, 64, 0
2, 7079, Control_c, 0, 64, 0
2, 7079, Note_on_c, 0, 69, 58
2, 7200, Note_on_c, 0, 69, 0
2, 7200, Note_on_c, 0, 59, 0
2, 7200, Control_c, 0, 64, 127
2, 7200, Note_on_c, 0, 60, 39
2, 7200, Note_on_c, 0, 60, 55
2, 7320, Note_on_c, 0, 60, 0
2, 7320, Note_on_c, 0, 64, 51
2, 7380, Note_on_c, 0, 76, 0
2, 7380, Note_on_c, 0, 81, 72
2, 7439, Note_on_c, 0, 64, 0
2, 7439, Control_c, 0, 64, 0
2, 7439, Note_on_c, 0, 69, 54
2, 7560, Note_on_c, 0, 69, 0
2, 7560, Note_on_c, 0, 81, 0
2, 7560, Note_on_c, 0, 60, 0
2, 7560, Note_on_c, 0, 83, 75
2, 7560, Control_c, 0, 64, 127
2, 7560, Note_on_c, 0, 57, 42
2, 7560, Note_on_c, 0, 57, 56
2, 7680, Note_on_c, 0, 57, 0
2, 7680, Note_on_c, 0, 64, 55
2, 7740, Note_on_c, 0, 83, 0
2, 7740, Note_on_c, 0, 88, 78
2, 7799, Note_on_c, 0, 64, 0
2, 7799, Control_c, 0, 64, 0
2, 7799, Note_on_c, 0, 69, 56
2, 7920, Note_on_c, 0, 69, 0
2, 7920, Note_on_c, 0, 88, 0
2, 7920, Note_on_c, 0, 57, 0
2, 7920, Note_on_c, 0, 84, 81
2, 7920, Control_c, 0, 64, 127
2, 7920, Note_on_c, 0, 63, 39
2, 7920, Note_on_c, 0, 63, 65
2, 8040, Note_on_c, 0, 63, 0
2, 8040, Note_on_c, 0, 69, 55
2, 8159, Note_on_c, 0, 69, 0
2, 8159, Control_c, 0, 64, 0
2, 8159, Note_on_c, 0, 71, 49
2, 8280, Note_on_c, 0, 71, 0
2, 8280, Note_on_c, 0, 63, 0
2, 8280, Control_c, 0, 64, 127
2, 8280, Note_on_c, 0, 64, 40
2, 8280, Note_on_c, 0, 64, 60
2, 8400, Note_on_c, 0, 64, 0
2, 8400, Note_on_c, 0, 69, 54
2, 8460, Note_on_c, 0, 84, 0
2, 8460, Note_on_c, 0, 90, 91
2, 8519, Note_on_c, 0, 69, 0
2, 8519, Control_c, 0, 64, 0
2, 8519, Note_on_c, 0, 72, 52
2, 8640, Note_on_c, 0, 72, 0
2, 8640, Note_on_c, 0, 90, 0
2, 8640, Note_on_c, 0, 64, 0
2, 8640, Note_on_c, 0, 83, 85
2, 8640, Control_c, 0, 64, 127
2, 8640, Note_on_c, 0, 66, 40
2, 8640, Note_on_c, 0, 66, 67
2, 8760, Note_on_c, 0, 66, 0
2, 8760, Note_on_c, 0, 71, 51
2, 8879, Note_on_c, 0, 71, 0
2, 8879, Control_c, 0, 64, 0
2, 8879, Note_on_c, 0, 74, 50
2, 9000, Note_on_c, 0, 74, 0
2, 9000, Note_on_c, 0, 57, 65
2, 9000, Control_c, 0, 64, 127
2, 9000, Note_on_c, 0, 71, 43
2, 9120, Note_on_c, 0, 71, 0
2, 9120, Note_on_c, 0, 68, 40
2, 9179, Note_on_c, 0, 57, 0
2, 9239, Note_on_c, 0, 68, 0
2, 9239, Control_c, 0, 64, 0
2, 9239, Note_on_c, 0, 63, 43
2, 9273, Note_on_c, 0, 66, 0
2, 9273, Note_on_c, 0, 83, 0
2, 9360, Note_on_c, 0, 63, 0
2, 9360, Note_on_c, 0, 81, 82
2, 9360, Control_c, 0, 64, 127
2, 9360, Note_on_c, 0, 64, 50
2, 9360, Note_on_c, 0, 64, 48
2, 9480, Note_on_c, 0, 64, 0
2, 9480, Note_on_c, 0, 69, 53
2, 9540, Note_on_c, 0, 81, 0
2, 9540, Note_on_c, 0, 90, 76
2, 9599, Note_on_c, 0, 69, 0
2, 9599, Control_c, 0, 64, 0
2, 9599, Note_on_c, 0, 72, 55
2, 9720, Note_on_c, 0, 72, 0
2, 9720, Note_on_c, 0, 90, 0
2, 9720, Note_on_c, 0, 64, 0
2, 9720, Note_on_c, 0, 83, 91
2, 9720, Control_c, 0, 64, 127
2, 9720, Note_on_c, 0, 66, 41
2, 9720, Note_on_c, 0, 66, 66
2, 9840, Note_on_c, 0, 66, 0
2, 9840, Note_on_c, 0, 71, 54
2, 9959, Note_on_c, 0, 71, 0
2, 9959, Control_c, 0, 64, 0
2, 9959, Note_on_c, 0, 74, 54
2, 10010, Control_c, 0, 64, 127
2, 10080, Note_on_c, 0, 74, 0
2, 10080, Note_on_c, 0, 57, 38
2, 10080, Note_on_c, 0, 71, 47
2, 10200, Note_on_c, 0, 71, 0
2, 10200, Note_on_c, 0, 68, 45
2, 10259, Note_on_c, 0, 57, 0
2, 10319, Note_on_c, 0, 68, 0
2, 10319, Control_c, 0, 64, 0
2, 10319, Note_on_c, 0, 63, 40
2, 10353, Note_on_c, 0, 66, 0
2, 10353, Note_on_c, 0, 83, 0
2, 10440, Note_on_c, 0, 63, 0
2, 10440, Note_on_c, 0, 81, 88
2, 10440, Control_c, 0, 64, 127
2, 10440, Note_on_c, 0, 64, 49
2, 10440, Note_on_c, 0, 64, 54
2, 10560, Note_on_c, 0, 64, 0
2, 10560, Note_on_c, 0, 69, 55
2, 10620, Note_on_c, 0, 81, 0
2, 10620, Note_on_c, 0, 90, 69
2, 10679, Note_on_c, 0, 69, 0
2, 10679, Control_c, 0, 64, 0
2, 10679, Note_on_c, 0, 72, 55
2, 10800, Note_on_c, 0, 72, 0
2, 10800, Note_on_c, 0, 90, 0
2, 10800, Note_on_c, 0, 64, 0
2, 10800, Note_on_c, 0, 79, 68
2, 10800, Note_on_c, 0, 63, 40
2, 10800, Note_on_c, 0, 63, 58
2, 10817, Note_on_c, 0, 79, 0
2, 10817, Note_on_c, 0, 81, 92
2, 10832, Note_on_c, 0, 81, 0
2, 10832, Note_on_c, 0, 79, 96
2, 10920, Note_on_c, 0, 63, 0
2, 10920, Note_on_c, 0, 69, 51
2, 10962, Note_on_c, 0, 79, 0
2, 10980, Note_on_c, 0, 78, 95
2, 11039, Note_on_c, 0, 69, 0
2, 11039, Note_on_c, 0, 71, 52
2, 11138, Note_on_c, 0, 78, 0
2, 11160, Note_on_c, 0, 71, 0
2, 11160, Note_on_c, 0, 63, 0
2, 11160, Note_on_c, 0, 81, 106
2, 11160, Control_c, 0, 64, 127
2, 11160, Note_on_c, 0, 64, 38
2, 11160, Note_on_c, 0, 64, 58
2, 11280, Note_on_c, 0, 64, 0
2, 11280, Note_on_c, 0, 69, 48
2, 11399, Note_on_c, 0, 69, 0
2, 11399, Control_c, 0, 64, 0
2, 11399, Note_on_c, 0, 72, 52
2, 11520, Note_on_c, 0, 72, 0
2, 11520, Note_on_c, 0, 64, 0
2, 11520, Control_c, 0, 64, 127
2, 11520, Note_on_c, 0, 63, 43
2, 11520, Note_on_c, 0, 63, 51
2, 11640, Note_on_c, 0, 63, 0
2, 11640, Note_on_c, 0, 69, 57
2, 11759, Note_on_c, 0, 69, 0
2, 11759, Control_c, 0, 64, 0
2, 11759, Note_on_c, 0, 71, 54
2, 11880, Note_on_c, 0, 71, 0
2, 11880, Note_on_c, 0, 63, 0
2, 11880, Control_c, 0, 64, 127
2, 11880, Note_on_c, 0, 64, 44
2, 11880, Note_on_c, 0, 64, 57
2, 12000, Note_on_c, 0, 64, 0
2, 12000, Note_on_c, 0, 69, 53
2, 12119, Note_on_c, 0, 69, 0
2, 12119, Control_c, 0, 64, 0
2, 12119, Note_on_c, 0, 72, 51
2, 12208, Note_on_c, 0, 79, 88
2, 12225, Note_on_c, 0, 79, 0
2, 12225, Note_on_c, 0, 81, 88
2, 12240, Note_on_c, 0, 81, 0
2, 12240, Note_on_c, 0, 72, 0
2, 12240, Note_on_c, 0, 64, 0
2, 12240, Note_on_c, 0, 81, 0
2, 12240, Note_on_c, 0, 79, 88
2, 12240, Note_on_c, 0, 63, 42
2, 12240, Note_on_c, 0, 63, 55
2, 12360, Note_on_c, 0, 63, 0
2, 12360, Note_on_c, 0, 69, 52
2, 12420, Note_on_c, 0, 79, 0
2, 12420, Note_on_c, 0, 78, 79
2, 12479, Note_on_c, 0, 69, 0
2, 12479, Note_on_c, 0, 71, 55
2, 12600, Note_on_c, 0, 71, 0
2, 12600, Note_on_c, 0, 78, 0
2, 12600, Note_on_c, 0, 63, 0
2, 12600, Note_on_c, 0, 81, 69
2, 12600, Control_c, 0, 64, 127
2, 12600, Note_on_c, 0, 64, 41
2, 12600, Note_on_c, 0, 64, 62
2, 12720, Note_on_c, 0, 64, 0
2, 12720, Note_on_c, 0, 69, 54
2, 12839, Note_on_c, 0, 69, 0
2, 12839, Control_c, 0, 64, 0
2, 12839, Note_on_c, 0, 72, 52
2, 12960, Note_on_c, 0, 72, 0
2, 12960, Note_on_c, 0, 64, 0
2, 12960, Control_c, 0, 64, 127
2, 12960, Note_on_c, 0, 63, 36
2, 12960, Note_on_c, 0, 63, 55
2, 13080, Note_on_c, 0, 63, 0
2, 13080, Note_on_c, 0, 69, 53
2, 13199, Note_on_c, 0, 69, 0
2, 13199, Control_c, 0, 64, 0
2, 13199, Note_on_c, 0, 71, 50
2, 13320, Note_on_c, 0, 71, 0
2, 13320, Note_on_c, 0, 63, 0
2, 13320, Control_c, 0, 64, 127
2, 13320, Note_on_c, 0, 62, 32
2, 13320, Note_on_c, 0, 62, 50
2, 13440, Note_on_c, 0, 62, 0
2, 13440, Note_on_c, 0, 69, 52
2, 13500, Note_on_c, 0, 81, 0
2, 13500, Note_on_c, 0, 79, 68
2, 13559, Note_on_c, 0, 69, 0
2, 13559, Note_on_c, 0, 72, 51
2, 13680, Note_on_c, 0, 72, 0
2, 13680, Note_on_c, 0, 62, 0
2, 13680, Control_c, 0, 64, 0
2, 13817, Note_on_c, 0, 79, 0
2, 13860, Note_on_c, 0, 78, 61
2, 14040, Note_on_c, 0, 78, 0
2, 14040, Note_on_c, 0, 76, 94
2, 14040, Control_c, 0, 64, 127
2, 14040, Note_on_c, 0, 60, 45
2, 14040, Note_on_c, 0, 60, 54
2, 14160, Note_on_c, 0, 60, 0
2, 14160, Note_on_c, 0, 64, 52
2, 14279, Note_on_c, 0, 64, 0
2, 14279, Control_c, 0, 64, 0
2, 14279, Note_on_c, 0, 67, 51
2, 14400, Note_on_c, 0, 67, 0
2, 14400, Note_on_c, 0, 60, 0
2, 14400, Control_c, 0, 64, 127
2, 14400, Note_on_c, 0, 59, 43
2, 14400, Note_on_c, 0, 59, 56
2, 14514, Note_on_c, 0, 76, 0
2, 14520, Note_on_c, 0, 59, 0
2, 14520, Note_on_c, 0, 64, 52
2, 14580, Note_on_c, 0, 71, 77
2, 14639, Note_on_c, 0, 64, 0
2, 14639, Control_c, 0, 64, 0
2, 14639, Note_on_c, 0, 67, 49
2, 14760, Note_on_c, 0, 67, 0
2, 14760, Note_on_c, 0, 59, 0
2, 14760, Control_c, 0, 64, 127
2, 14760, Note_on_c, 0, 60, 44
2, 14760, Note_on_c, 0, 60, 61
2, 14880, Note_on_c, 0, 60, 0
2, 14880, Note_on_c, 0, 64, 53
2, 14940, Note_on_c, 0, 71, 0
2, 14940, Note_on_c, 0, 43, 53
2, 14999, Note_on_c, 0, 64, 0
2, 14999, Control_c, 0, 64, 0
2, 14999, Note_on_c, 0, 67, 50
2, 15120, Note_on_c, 0, 67, 0
2, 15120, Note_on_c, 0, 60, 0
2, 15120, Control_c, 0, 64, 127
2, 15120, Note_on_c, 0, 55, 45
2, 15120, Note_on_c, 0, 55, 55
2, 15240, Note_on_c, 0, 55, 0
2, 15240, Note_on_c, 0, 64, 53
2, 15300, Note_on_c, 0, 43, 0
2, 15300, Note_on_c, 0, 36, 58
2, 15359, Note_on_c, 0, 64, 0
2, 15359, Control_c, 0, 64, 0
2, 15359, Note_on_c, 0, 67, 55
2, 15480, Note_on_c, 0, 67, 0
2, 15480, Note_on_c, 0, 36, 0
2, 15480, Note_on_c, 0, 55, 0
2, 15480, Control_c, 0, 64, 127
2, 15480, Note_on_c, 0, 60, 43
2, 15480, Note_on_c, 0, 60, 64
2, 15600, Note_on_c, 0, 60, 0
2, 15600, Note_on_c, 0, 64, 51
2, 15660, Note_on_c, 0, 76, 58
2, 15719, Note_on_c, 0, 64, 0
2, 15719, Control_c, 0, 64, 0
2, 15719, Note_on_c, 0, 67, 50
2, 15840, Note_on_c, 0, 67, 0
2, 15840, Note_on_c, 0, 60, 0
2, 15840, Control_c, 0, 64, 127
2, 15840, Note_on_c, 0, 59, 43
2, 15840, Note_on_c, 0, 59, 56
2, 15960, Note_on_c, 0, 59, 0
2, 15960, Note_on_c, 0, 64, 51
2, 16020, Note_on_c, 0, 76, 0
2, 16020, Note_on_c, 0, 83, 81
2, 16079, Note_on_c, 0, 64, 0
2, 16079, Control_c, 0, 64, 0
2, 16079, Note_on_c, 0, 68, 52
2, 16200, Note_on_c, 0, 68, 0
2, 16200, Note_on_c, 0, 59, 0
2, 16200, Control_c, 0, 64, 127
2, 16200, Note_on_c, 0, 60, 37
2, 16200, Note_on_c, 0, 60, 61
2, 16320, Note_on_c, 0, 60, 0
2, 16320, Note_on_c, 0, 64, 51
2, 16380, Note_on_c, 0, 83, 0
2, 16380, Note_on_c, 0, 76, 51
2, 16439, Note_on_c, 0, 64, 0
2, 16439, Control_c, 0, 64, 0
2, 16439, Note_on_c, 0, 68, 52
2, 16560, Note_on_c, 0, 68, 0
2, 16560, Note_on_c, 0, 60, 0
2, 16560, Control_c, 0, 64, 127
2, 16560, Note_on_c, 0, 59, 41
2, 16560, Note_on_c, 0, 59, 55
2, 16680, Note_on_c, 0, 59, 0
2, 16680, Note_on_c, 0, 64, 51
2, 16740, Note_on_c, 0, 76, 0
2, 16740, Note_on_c, 0, 71, 51
2, 16799, Note_on_c, 0, 64, 0
2, 16799, Control_c, 0, 64, 0
2, 16799, Note_on_c, 0, 67, 51
2, 16920, Note_on_c, 0, 67, 0
2, 16920, Note_on_c, 0, 59, 0
2, 16920, Control_c, 0, 64, 127
2, 16920, Note_on_c, 0, 60, 40
2, 16920, Note_on_c, 0, 60, 56
2, 17040, Note_on_c, 0, 60, 0
2, 17040, Note_on_c, 0, 64, 53
2, 17100, Note_on_c, 0, 71, 0
2, 17100, Note_on_c, 0, 52, 53
2, 17159, Note_on_c, 0, 64, 0
2, 17159, Control_c, 0, 64, 0
2, 17159, Note_on_c, 0, 67, 54
2, 17280, Note_on_c, 0, 67, 0
2, 17280, Note_on_c, 0, 52, 0
2, 17280, Note_on_c, 0, 60, 0
2, 17280, Note_on_c, 0, 43, 59
2, 17280, Control_c, 0, 64, 127
2, 17280, Note_on_c, 0, 55, 44
2, 17280, Note_on_c, 0, 55, 51
2, 17400, Note_on_c, 0, 55, 0
2, 17400, Note_on_c, 0, 64, 54
2, 17460, Note_on_c, 0, 43, 0
2, 17460, Note_on_c, 0, 36, 58
2, 17519, Note_on_c, 0, 64, 0
2, 17519, Control_c, 0, 64, 0
2, 17519, Note_on_c, 0, 67, 49
2, 17640, Note_on_c, 0, 67, 0
2, 17640, Note_on_c, 0, 36, 0
2, 17640, Note_on_c, 0, 55, 0
2, 17640, Control_c, 0, 64, 127
2, 17640, Note_on_c, 0, 60, 40
2, 17640, Note_on_c, 0, 60, 60
2, 17760, Note_on_c, 0, 60, 0
2, 17760, Note_on_c, 0, 64, 48
2, 17820, Note_on_c, 0, 75, 65
2, 17879, Note_on_c, 0, 64, 0
2, 17879, Control_c, 0, 64, 0
2, 17879, Note_on_c, 0, 68, 51
2, 18000, Note_on_c, 0, 68, 0
2, 18000, Note_on_c, 0, 75, 0
2, 18000, Note_on_c, 0, 60, 0
2, 18000, Note_on_c, 0, 76, 69
2, 18000, Control_c, 0, 64, 127
2, 18000, Note_on_c, 0, 60, 35
2, 18000, Note_on_c, 0, 60, 58
2, 18120, Note_on_c, 0, 60, 0
2, 18120, Note_on_c, 0, 64, 50
2, 18180, Note_on_c, 0, 76, 0
2, 18180, Note_on_c, 0, 78, 72
2, 18239, Note_on_c, 0, 64, 0
2, 18239, Control_c, 0, 64, 0
2, 18239, Note_on_c, 0, 69, 52
2, 18360, Note_on_c, 0, 69, 0
2, 18360, Note_on_c, 0, 78, 0
2, 18360, Note_on_c, 0, 60, 0
2, 18360, Note_on_c, 0, 79, 75
2, 18360, Control_c, 0, 64, 127
2, 18360, Note_on_c, 0, 64, 43
2, 18360, Note_on_c, 0, 59, 51
2, 18480, Note_on_c, 0, 64, 0
2, 18480, Note_on_c, 0, 67, 50
2, 18540, Note_on_c, 0, 79, 0
2, 18540, Note_on_c, 0, 81, 78
2, 18599, Note_on_c, 0, 67, 0
2, 18599, Control_c, 0, 64, 0
2, 18599, Note_on_c, 0, 71, 48
2, 18720, Note_on_c, 0, 71, 0
2, 18720, Note_on_c, 0, 81, 0
2, 18720, Note_on_c, 0, 59, 0
2, 18720, Note_on_c, 0, 83, 81
2, 18720, Control_c, 0, 64, 127
2, 18720, Note_on_c, 0, 66, 43
2, 18840, Note_on_c, 0, 66, 0
2, 18840, Note_on_c, 0, 69, 53
2, 18959, Note_on_c, 0, 69, 0
2, 18959, Control_c, 0, 64, 0
2, 18959, Note_on_c, 0, 76, 59
2, 19080, Note_on_c, 0, 76, 0
2, 19080, Control_c, 0, 64, 127
2, 19080, Note_on_c, 0, 67, 34
2, 19200, Note_on_c, 0, 67, 0
2, 19200, Note_on_c, 0, 71, 54
2, 19260, Note_on_c, 0, 83, 0
2, 19260, Note_on_c, 0, 88, 90
2, 19319, Note_on_c, 0, 71, 0
2, 19319, Control_c, 0, 64, 0
2, 19319, Note_on_c, 0, 79, 58
2, 19440, Note_on_c, 0, 79, 0
2, 19440, Control_c, 0, 64, 127
2, 19440, Note_on_c, 0, 66, 31
2, 19440, Note_on_c, 0, 59, 60
2, 19560, Note_on_c, 0, 66, 0
2, 19560, Note_on_c, 0, 69, 50
2, 19620, Note_on_c, 0, 88, 0
2, 19620, Note_on_c, 0, 83, 82
2, 19679, Note_on_c, 0, 69, 0
2, 19679, Note_on_c, 0, 76, 56
2, 19800, Note_on_c, 0, 76, 0
2, 19800, Note_on_c, 0, 83, 0
2, 19800, Note_on_c, 0, 59, 0
2, 19800, Note_on_c, 0, 79, 91
2, 19800, Control_c, 0, 64, 0
2, 19800, Control_c, 0, 64, 127
2, 19800, Note_on_c, 0, 64, 38
2, 19920, Note_on_c, 0, 64, 0
2, 19920, Note_on_c, 0, 67, 49
2, 20039, Note_on_c, 0, 67, 0
2, 20039, Control_c, 0, 64, 0
2, 20039, Note_on_c, 0, 74, 57
2, 20160, Note_on_c, 0, 74, 0
2, 20160, Control_c, 0, 64, 127
2, 20160, Note_on_c, 0, 66, 35
2, 20274, Note_on_c, 0, 79, 0
2, 20280, Note_on_c, 0, 66, 0
2, 20280, Note_on_c, 0, 69, 50
2, 20340, Note_on_c, 0, 83, 66
2, 20399, Note_on_c, 0, 69, 0
2, 20399, Control_c, 0, 64, 0
2, 20399, Note_on_c, 0, 76, 61
2, 20520, Note_on_c, 0, 76, 0
2, 20520, Control_c, 0, 64, 127
2, 20520, Note_on_c, 0, 64, 31
2, 20520, Note_on_c, 0, 59, 52
2, 20640, Note_on_c, 0, 64, 0
2, 20640, Note_on_c, 0, 67, 45
2, 20700, Note_on_c, 0, 83, 0
2, 20700, Note_on_c, 0, 79, 65
2, 20759, Note_on_c, 0, 67, 0
2, 20759, Control_c, 0, 64, 0
2, 20759, Note_on_c, 0, 74, 61
2, 20880, Note_on_c, 0, 74, 0
2, 20880, Note_on_c, 0, 79, 0
2, 20880, Note_on_c, 0, 59, 0
2, 20880, Note_on_c, 0, 76, 91
2, 20880, Control_c, 0, 64, 127
2, 20880, Note_on_c, 0, 62, 39
2, 21000, Note_on_c, 0, 62, 0
2, 21000, Note_on_c, 0, 67, 51
2, 21119, Note_on_c, 0, 67, 0
2, 21119, Control_c, 0, 64, 0
2, 21119, Note_on_c, 0, 71, 52
2, 21240, Note_on_c, 0, 71, 0
2, 21240, Control_c, 0, 64, 127
2, 21240, Note_on_c, 0, 64, 40
2, 21354, Note_on_c, 0, 76, 0
2, 21360, Note_on_c, 0, 64, 0
2, 21360, Note_on_c, 0, 67, 52
2, 21420, Note_on_c, 0, 79, 66
2, 21479, Note_on_c, 0, 67, 0
2, 21479, Control_c, 0, 64, 0
2, 21479, Note_on_c, 0, 74, 58
2, 21600, Note_on_c, 0, 74, 0
2, 21600, Control_c, 0, 64, 127
2, 21600, Note_on_c, 0, 62, 42
2, 21720, Note_on_c, 0, 62, 0
2, 21720, Note_on_c, 0, 67, 48
2, 21780, Note_on_c, 0, 79, 0
2, 21780, Note_on_c, 0, 76, 61
2, 21839, Note_on_c, 0, 67, 0
2, 21839, Control_c, 0, 64, 0
2, 21839, Note_on_c, 0, 71, 48
2, 21960, Note_on_c, 0, 71, 0
2, 21960, Note_on_c, 0, 76, 0
2, 21960, Note_on_c, 0, 74, 65
2, 21960, Control_c, 0, 64, 127
2, 21960, Note_on_c, 0, 60, 39
2, 22080, Note_on_c, 0, 60, 0
2, 22080, Note_on_c, 0, 64, 50
2, 22140, Note_on_c, 0, 74, 0
2, 22140, Note_on_c, 0, 76, 58
2, 22199, Note_on_c, 0, 64, 0
2, 22199, Control_c, 0, 64, 0
2, 22199, Note_on_c, 0, 69, 55
2, 22320, Note_on_c, 0, 69, 0
2, 22320, Note_on_c, 0, 76, 0
2, 22320, Note_on_c, 0, 74, 50
2, 22320, Control_c, 0, 64, 127
2, 22320, Note_on_c, 0, 59, 42
2, 22440, Note_on_c, 0, 59, 0
2, 22440, Note_on_c, 0, 63, 53
2, 22500, Note_on_c, 0, 74, 0
2, 22500, Note_on_c, 0, 72, 43
2, 22559, Note_on_c, 0, 63, 0
2, 22559, Control_c, 0, 64, 0
2, 22559, Note_on_c, 0, 67, 52
2, 22680, Note_on_c, 0, 67, 0
2, 22680, Control_c, 0, 64, 127
2, 22680, Note_on_c, 0, 57, 48
2, 22800, Note_on_c, 0, 57, 0
2, 22800, Note_on_c, 0, 62, 51
2, 22919, Note_on_c, 0, 62, 0
2, 22919, Control_c, 0, 64, 0
2, 22919, Note_on_c, 0, 65, 52
2, 23040, Note_on_c, 0, 65, 0
2, 23040, Note_on_c, 0, 72, 0
2, 23040, Note_on_c, 0, 71, 65
2, 23040, Control_c, 0, 64, 127
2, 23040, Note_on_c, 0, 56, 44
2, 23160, Note_on_c, 0, 56, 0
2, 23160, Note_on_c, 0, 61, 52
2, 23279, Note_on_c, 0, 61, 0
2, 23279, Control_c, 0, 64, 0
2, 23279, Note_on_c, 0, 64, 52
2, 23400, Note_on_c, 0, 64, 0
2, 23400, Note_on_c, 0, 71, 0
2, 23400, Note_on_c, 0, 72, 91
2, 23400, Control_c, 0, 64, 127
2, 23400, Note_on_c, 0, 55, 41
2, 23520, Note_on_c, 0, 55, 0
2, 23520, Note_on_c, 0, 60, 54
2, 23639, Note_on_c, 0, 60, 0
2, 23639, Control_c, 0, 64, 0
2, 23639, Note_on_c, 0, 63, 53
2, 23717, Note_on_c, 0, 72, 0
2, 23760, Note_on_c, 0, 63, 0
2, 23760, Note_on_c, 0, 47, 80
2, 23760, Control_c, 0, 64, 127
2, 23760, Note_on_c, 0, 57, 43
2, 23880, Note_on_c, 0, 57, 0
2, 23880, Note_on_c, 0, 62, 53
2, 23939, Note_on_c, 0, 47, 0
2, 23999, Note_on_c, 0, 62, 0
2, 23999, Control_c, 0, 64, 0
2, 23999, Note_on_c, 0, 65, 54
2, 24120, Note_on_c, 0, 65, 0
2, 24120, Note_on_c, 0, 71, 112
2, 24120, Control_c, 0, 64, 127
2, 24120, Note_on_c, 0, 56, 40
2, 24240, Note_on_c, 0, 56, 0
2, 24240, Note_on_c, 0, 61, 56
2, 24300, Note_on_c, 0, 71, 0
2, 24300, Note_on_c, 0, 72, 96
2, 24359, Note_on_c, 0, 61, 0
2, 24359, Control_c, 0, 64, 0
2, 24359, Note_on_c, 0, 64, 51
2, 24480, Note_on_c, 0, 64, 0
2, 24480, Note_on_c, 0, 72, 0
2, 24480, Note_on_c, 0, 72, 106
2, 24480, Control_c, 0, 64, 127
2, 24480, Note_on_c, 0, 55, 45
2, 24600, Note_on_c, 0, 55, 0
2, 24600, Note_on_c, 0, 60, 51
2, 24719, Note_on_c, 0, 60, 0
2, 24719, Control_c, 0, 64, 0
2, 24719, Note_on_c, 0, 63, 54
2, 24797, Note_on_c, 0, 72, 0
2, 24840, Note_on_c, 0, 63, 0
2, 24840, Note_on_c, 0, 47, 82
2, 24840, Control_c, 0, 64, 127
2, 24840, Note_on_c, 0, 57, 42
2, 24960, Note_on_c, 0, 57, 0
2, 24960, Note_on_c, 0, 62, 50
2, 25019, Note_on_c, 0, 47, 0
2, 25079, Note_on_c, 0, 62, 0
2, 25079, Control_c, 0, 64, 0
2, 25079, Note_on_c, 0, 65, 51
2, 25166, Note_on_c, 0, 71, 114
2, 25183, Note_on_c, 0, 71, 0
2, 25183, Note_on_c, 0, 72, 96
2, 25200, Note_on_c, 0, 72, 0
2, 25200, Note_on_c, 0, 65, 0
2, 25200, Note_on_c, 0, 71, 87
2, 25200, Note_on_c, 0, 56, 43
2, 25320, Note_on_c, 0, 56, 0
2, 25320, Note_on_c, 0, 61, 53
2, 25380, Note_on_c, 0, 71, 0
2, 25380, Note_on_c, 0, 70, 83
2, 25439, Note_on_c, 0, 61, 0
2, 25439, Note_on_c, 0, 64, 53
2, 25560, Note_on_c, 0, 64, 0
2, 25560, Note_on_c, 0, 70, 0
2, 25560, Note_on_c, 0, 72, 105
2, 25560, Control_c, 0, 64, 127
2, 25560, Note_on_c, 0, 55, 41
2, 25680, Note_on_c, 0, 55, 0
2, 25680, Note_on_c, 0, 60, 54
2, 25799, Note_on_c, 0, 60, 0
2, 25799, Control_c, 0, 64, 0
2, 25799, Note_on_c, 0, 63, 53
2, 25920, Note_on_c, 0, 63, 0
2, 25920, Control_c, 0, 64, 127
2, 25920, Note_on_c, 0, 54, 43
2, 26040, Note_on_c, 0, 54, 0
2, 26040, Note_on_c, 0, 59, 47
2, 26100, Note_on_c, 0, 72, 0
2, 26100, Note_on_c, 0, 71, 87
2, 26159, Note_on_c, 0, 59, 0
2, 26159, Control_c, 0, 64, 0
2, 26159, Note_on_c, 0, 62, 50
2, 26280, Note_on_c, 0, 71, 0
2, 26280, Note_on_c, 0, 69, 81
2, 26400, Note_on_c, 0, 62, 0
2, 26400, Control_c, 0, 64, 127
2, 26400, Note_on_c, 0, 57, 43
2, 26460, Note_on_c, 0, 69, 0
2, 26460, Note_on_c, 0, 70, 94
2, 26519, Note_on_c, 0, 57, 0
2, 26519, Note_on_c, 0, 54, 49
2, 26640, Note_on_c, 0, 54, 0
2, 26640, Note_on_c, 0, 70, 0
2, 26640, Note_on_c, 0, 71, 94
2, 26640, Control_c, 0, 64, 0
2, 26640, Control_c, 0, 64, 127
2, 26640, Note_on_c, 0, 53, 45
2, 26760, Note_on_c, 0, 53, 0
2, 26760, Note_on_c, 0, 56, 48
2, 26820, Note_on_c, 0, 71, 0
2, 26820, Note_on_c, 0, 83, 126
2, 26879, Note_on_c, 0, 56, 0
2, 26879, Control_c, 0, 64, 0
2, 26879, Note_on_c, 0, 61, 55
2, 26978, Note_on_c, 0, 83, 0
2, 27000, Note_on_c, 0, 61, 0
2, 27000, Note_on_c, 0, 83, 108
2, 27000, Control_c, 0, 64, 127
2, 27000, Note_on_c, 0, 45, 47
2, 27032, Note_on_c, 0, 52, 47
2, 27065, Note_on_c, 0, 60, 47
2, 27120, Note_on_c, 0, 60, 0
2, 27120, Note_on_c, 0, 52, 0
2, 27120, Note_on_c, 0, 45, 0
2, 27120, Note_on_c, 0, 64, 49
2, 27239, Note_on_c, 0, 64, 0
2, 27239, Control_c, 0, 64, 0
2, 27239, Note_on_c, 0, 69, 54
2, 27360, Note_on_c, 0, 69, 0
2, 27360, Control_c, 0, 64, 127
2, 27360, Note_on_c, 0, 59, 43
2, 27474, Note_on_c, 0, 83, 0
2, 27480, Note_on_c, 0, 59, 0
2, 27480, Note_on_c, 0, 64, 52
2, 27540, Note_on_c, 0, 76, 63
2, 27599, Note_on_c, 0, 64, 0
2, 27599, Control_c, 0, 64, 0
2, 27599, Note_on_c, 0, 69, 55
2, 27720, Note_on_c, 0, 69, 0
2, 27720, Control_c, 0, 64, 127
2, 27720, Note_on_c, 0, 60, 38
2, 27840, Note_on_c, 0, 60, 0
2, 27840, Note_on_c, 0, 64, 52
2, 27900, Note_on_c, 0, 76, 0
2, 27900, Note_on_c, 0, 52, 47
2, 27959, Note_on_c, 0, 64, 0
2, 27959, Control_c, 0, 64, 0
2, 27959, Note_on_c, 0, 69, 49
2, 28080, Note_on_c, 0, 69, 0
2, 28080, Control_c, 0, 64, 127
2, 28080, Note_on_c, 0, 57, 47
2, 28200, Note_on_c, 0, 57, 0
2, 28200, Note_on_c, 0, 64, 52
2, 28260, Note_on_c, 0, 52, 0
2, 28260, Note_on_c, 0, 45, 62
2, 28319, Note_on_c, 0, 64, 0
2, 28319, Control_c, 0, 64, 0
2, 28319, Note_on_c, 0, 69, 51
2, 28440, Note_on_c, 0, 69, 0
2, 28440, Note_on_c, 0, 45, 0
2, 28440, Control_c, 0, 64, 127
2, 28440, Note_on_c, 0, 60, 39
2, 28560, Note_on_c, 0, 60, 0
2, 28560, Note_on_c, 0, 64, 55
2, 28620, Note_on_c, 0, 76, 56
2, 28679, Note_on_c, 0, 64, 0
2, 28679, Control_c, 0, 64, 0
2, 28679, Note_on_c, 0, 69, 57
2, 28800, Note_on_c, 0, 69, 0
2, 28800, Control_c, 0, 64, 127
2, 28800, Note_on_c, 0, 59, 42
2, 28920, Note_on_c, 0, 59, 0
2, 28920, Note_on_c, 0, 64, 51
2, 28980, Note_on_c, 0, 76, 0
2, 28980, Note_on_c, 0, 83, 68
2, 29039, Note_on_c, 0, 64, 0
2, 29039, Control_c, 0, 64, 0
2, 29039, Note_on_c, 0, 69, 56
2, 29160, Note_on_c, 0, 69, 0
2, 29160, Control_c, 0, 64, 127
2, 29160, Note_on_c, 0, 60, 37
2, 29280, Note_on_c, 0, 60, 0
2, 29280, Note_on_c, 0, 64, 53
2, 29340, Note_on_c, 0, 83, 0
2, 29340, Note_on_c, 0, 76, 66
2, 29399, Note_on_c, 0, 64, 0
2, 29399, Control_c, 0, 64, 0
2, 29399, Note_on_c, 0, 69, 51
2, 29520, Note_on_c, 0, 69, 0
2, 29520, Control_c, 0, 64, 127
2, 29520, Note_on_c, 0, 59, 41
2, 29640, Note_on_c, 0, 59, 0
2, 29640, Note_on_c, 0, 64, 55
2, 29657, Note_on_c, 0, 76, 0
2, 29700, Note_on_c, 0, 71, 52
2, 29759, Note_on_c, 0, 64, 0
2, 29759, Control_c, 0, 64, 0
2, 29759, Note_on_c, 0, 69, 54
2, 29880, Note_on_c, 0, 69, 0
2, 29880, Control_c, 0, 64, 127
2, 29880, Note_on_c, 0, 60, 43
2, 30000, Note_on_c, 0, 60, 0
2, 30000, Note_on_c, 0, 64, 49
2, 30060, Note_on_c, 0, 71, 0
2, 30060, Note_on_c, 0, 52, 55
2, 30119, Note_on_c, 0, 64, 0
2, 30119, Control_c, 0, 64, 0
2, 30119, Note_on_c, 0, 69, 55
2, 30240, Note_on_c, 0, 69, 0
2, 30240, Control_c, 0, 64, 127
2, 30240, Note_on_c, 0, 57, 43
2, 30360, Note_on_c, 0, 57, 0
2, 30360, Note_on_c, 0, 64, 56
2, 30420, Note_on_c, 0, 52, 0
2, 30420, Note_on_c, 0, 45, 57
2, 30479, Note_on_c, 0, 64, 0
2, 30479, Control_c, 0, 64, 0
2, 30479, Note_on_c, 0, 69, 55
2, 30600, Note_on_c, 0, 69, 0
2, 30600, Note_on_c, 0, 45, 0
2, 30600, Control_c, 0, 64, 127
2, 30600, Note_on_c, 0, 60, 41
2, 30720, Note_on_c, 0, 60, 0
2, 30720, Note_on_c, 0, 64, 50
2, 30780, Note_on_c, 0, 76, 58
2, 30839, Note_on_c, 0, 64, 0
2, 30839, Control_c, 0, 64, 0
2, 30839, Note_on_c, 0, 69, 55
2, 30960, Note_on_c, 0, 69, 0
2, 30960, Control_c, 0, 64, 127
2, 30960, Note_on_c, 0, 61, 42
2, 31080, Note_on_c, 0, 61, 0
2, 31080, Note_on_c, 0, 64, 49
2, 31140, Note_on_c, 0, 76, 0
2, 31140, Note_on_c, 0, 82, 71
2, 31199, Note_on_c, 0, 64, 0
2, 31199, Control_c, 0, 64, 0
2, 31199, Note_on_c, 0, 70, 55
2, 31320, Note_on_c, 0, 70, 0
2, 31320, Control_c, 0, 64, 127
2, 31320, Note_on_c, 0, 61, 40
2, 31440, Note_on_c, 0, 61, 0
2, 31440, Note_on_c, 0, 64, 52
2, 31500, Note_on_c, 0, 82, 0
2, 31500, Note_on_c, 0, 76, 72
2, 31559, Note_on_c, 0, 64, 0
2, 31559, Control_c, 0, 64, 0
2, 31559, Note_on_c, 0, 70, 53
2, 31680, Note_on_c, 0, 70, 0
2, 31680, Control_c, 0, 64, 127
2, 31680, Note_on_c, 0, 60, 37
2, 31800, Note_on_c, 0, 60, 0
2, 31800, Note_on_c, 0, 64, 49
2, 31817, Note_on_c, 0, 76, 0
2, 31860, Note_on_c, 0, 67, 49
2, 31919, Note_on_c, 0, 64, 0
2, 31919, Control_c, 0, 64, 0
2, 31919, Note_on_c, 0, 70, 57
2, 32040, Note_on_c, 0, 70, 0
2, 32040, Control_c, 0, 64, 127
2, 32040, Note_on_c, 0, 61, 38
2, 32160, Note_on_c, 0, 61, 0
2, 32160, Note_on_c, 0, 64, 52
2, 32220, Note_on_c, 0, 67, 0
2, 32220, Note_on_c, 0, 52, 56
2, 32279, Note_on_c, 0, 64, 0
2, 32279, Control_c, 0, 64, 0
2, 32279, Note_on_c, 0, 70, 53
2, 32400, Note_on_c, 0, 70, 0
2, 32400, Control_c, 0, 64, 127
2, 32400, Note_on_c, 0, 55, 47
2, 32520, Note_on_c, 0, 55, 0
2, 32520, Note_on_c, 0, 64, 56
2, 32580, Note_on_c, 0, 52, 0
2, 32580, Note_on_c, 0, 43, 54
2, 32639, Note_on_c, 0, 64, 0
2, 32639, Control_c, 0, 64, 0
2, 32639, Note_on_c, 0, 70, 55
2, 32760, Note_on_c, 0, 70, 0
2, 32760, Note_on_c, 0, 43, 0
2, 32760, Control_c, 0, 64, 127
2, 32760, Note_on_c, 0, 61, 37
2, 32880, Note_on_c, 0, 61, 0
2, 32880, Note_on_c, 0, 64, 50
2, 32940, Note_on_c, 0, 76, 53
2, 32999, Note_on_c, 0, 64, 0
2, 32999, Control_c, 0, 64, 0
2, 32999, Note_on_c, 0, 70, 54
2, 33120, Note_on_c, 0, 70, 0
2, 33120, Control_c, 0, 64, 127
2, 33120, Note_on_c, 0, 60, 36
2, 33240, Note_on_c, 0, 60, 0
2, 33240, Note_on_c, 0, 64, 54
2, 33300, Note_on_c, 0, 76, 0
2, 33300, Note_on_c, 0, 82, 69
2, 33359, Note_on_c, 0, 64, 0
2, 33359, Control_c, 0, 64, 0
2, 33359, Note_on_c, 0, 70, 52
2, 33480, Note_on_c, 0, 70, 0
2, 33480, Control_c, 0, 64, 127
2, 33480, Note_on_c, 0, 61, 39
2, 33600, Note_on_c, 0, 61, 0
2, 33600, Note_on_c, 0, 64, 49
2, 33660, Note_on_c, 0, 82, 0
2, 33660, Note_on_c, 0, 76, 79
2, 33719, Note_on_c, 0, 64, 0
2, 33719, Control_c, 0, 64, 0
2, 33719, Note_on_c, 0, 70, 55
2, 33808, Note_on_c, 0, 74, 84
2, 33825, Note_on_c, 0, 74, 0
2, 33825, Note_on_c, 0, 76, 91
2, 33840, Note_on_c, 0, 76, 0
2, 33840, Note_on_c, 0, 70, 0
2, 33840, Note_on_c, 0, 76, 0
2, 33840, Note_on_c, 0, 74, 82
2, 33840, Note_on_c, 0, 62, 40
2, 33960, Note_on_c, 0, 62, 0
2, 33960, Note_on_c, 0, 64, 48
2, 34020, Note_on_c, 0, 74, 0
2, 34020, Note_on_c, 0, 73, 84
2, 34079, Note_on_c, 0, 64, 0
2, 34079, Note_on_c, 0, 70, 51
2, 34200, Note_on_c, 0, 70, 0
2, 34200, Note_on_c, 0, 73, 0
2, 34200, Note_on_c, 0, 76, 92
2, 34200, Control_c, 0, 64, 127
2, 34200, Note_on_c, 0, 61, 41
2, 34320, Note_on_c, 0, 61, 0
2, 34320, Note_on_c, 0, 64, 50
2, 34439, Note_on_c, 0, 64, 0
2, 34439, Control_c, 0, 64, 0
2, 34439, Note_on_c, 0, 70, 58
2, 34560, Note_on_c, 0, 70, 0
2, 34560, Control_c, 0, 64, 127
2, 34560, Note_on_c, 0, 58, 45
2, 34560, Note_on_c, 0, 55, 55
2, 34680, Note_on_c, 0, 58, 0
2, 34680, Note_on_c, 0, 64, 61
2, 34799, Note_on_c, 0, 64, 0
2, 34799, Control_c, 0, 64, 0
2, 34799, Note_on_c, 0, 70, 53
2, 34888, Note_on_c, 0, 74, 83
2, 34905, Note_on_c, 0, 74, 0
2, 34905, Note_on_c, 0, 76, 94
2, 34920, Note_on_c, 0, 76, 0
2, 34920, Note_on_c, 0, 70, 0
2, 34920, Note_on_c, 0, 76, 0
2, 34920, Note_on_c, 0, 74, 85
2, 34920, Note_on_c, 0, 62, 41
2, 35040, Note_on_c, 0, 62, 0
2, 35040, Note_on_c, 0, 64, 51
2, 35100, Note_on_c, 0, 74, 0
2, 35100, Note_on_c, 0, 73, 88
2, 35159, Note_on_c, 0, 64, 0
2, 35159, Note_on_c, 0, 70, 61
2, 35280, Note_on_c, 0, 70, 0
2, 35280, Note_on_c, 0, 73, 0
2, 35280, Note_on_c, 0, 76, 83
2, 35280, Control_c, 0, 64, 127
2, 35280, Note_on_c, 0, 61, 40
2, 35400, Note_on_c, 0, 61, 0
2, 35400, Note_on_c, 0, 64, 59
2, 35519, Note_on_c, 0, 64, 0
2, 35519, Control_c, 0, 64, 0
2, 35519, Note_on_c, 0, 70, 53
2, 35640, Note_on_c, 0, 70, 0
2, 35640, Control_c, 0, 64, 127
2, 35640, Note_on_c, 0, 58, 40
2, 35760, Note_on_c, 0, 58, 0
2, 35760, Note_on_c, 0, 64, 52
2, 35820, Note_on_c, 0, 76, 0
2, 35820, Note_on_c, 0, 74, 68
2, 35879, Note_on_c, 0, 64, 0
2, 35879, Control_c, 0, 64, 0
2, 35879, Note_on_c, 0, 70, 52
2, 36000, Note_on_c, 0, 70, 0
2, 36000, Note_on_c, 0, 74, 0
2, 36000, Note_on_c, 0, 73, 88
2, 36000, Control_c, 0, 64, 127
2, 36000, Note_on_c, 0, 61, 41
2, 36120, Note_on_c, 0, 61, 0
2, 36120, Note_on_c, 0, 64, 53
2, 36180, Note_on_c, 0, 73, 0
2, 36180, Note_on_c, 0, 74, 95
2, 36239, Note_on_c, 0, 64, 0
2, 36239, Control_c, 0, 64, 0
2, 36239, Note_on_c, 0, 69, 54
2, 36360, Note_on_c, 0, 69, 0
2, 36360, Note_on_c, 0, 74, 0
2, 36360, Note_on_c, 0, 76, 101
2, 36360, Control_c, 0, 64, 127
2, 36360, Note_on_c, 0, 57, 48
2, 36480, Note_on_c, 0, 57, 0
2, 36480, Note_on_c, 0, 61, 57
2, 36540, Note_on_c, 0, 76, 0
2, 36540, Note_on_c, 0, 81, 107
2, 36599, Note_on_c, 0, 61, 0
2, 36599, Control_c, 0, 64, 0
2, 36599, Note_on_c, 0, 69, 57
2, 36720, Note_on_c, 0, 69, 0
2, 36720, Note_on_c, 0, 81, 0
2, 36720, Note_on_c, 0, 55, 0
2, 36720, Note_on_c, 0, 81, 103
2, 36720, Control_c, 0, 64, 127
2, 36720, Note_on_c, 0, 43, 45
2, 36752, Note_on_c, 0, 50, 45
2, 36785, Note_on_c, 0, 58, 45
2, 36840, Note_on_c, 0, 58, 0
2, 36840, Note_on_c, 0, 50, 0
2, 36840, Note_on_c, 0, 43, 0
2, 36840, Note_on_c, 0, 62, 46
2, 36959, Note_on_c, 0, 62, 0
2, 36959, Control_c, 0, 64, 0
2, 36959, Note_on_c, 0, 67, 50
2, 37080, Note_on_c, 0, 67, 0
2, 37080, Control_c, 0, 64, 127
2, 37080, Note_on_c, 0, 57, 46
2, 37194, Note_on_c, 0, 81, 0
2, 37200, Note_on_c, 0, 57, 0
2, 37200, Note_on_c, 0, 62, 49
2, 37260, Note_on_c, 0, 74, 63
2, 37319, Note_on_c, 0, 62, 0
2, 37319, Control_c, 0, 64, 0
2, 37319, Note_on_c, 0, 67, 55
2, 37440, Note_on_c, 0, 67, 0
2, 37440, Control_c, 0, 64, 127
2, 37440, Note_on_c, 0, 58, 46
2, 37560, Note_on_c, 0, 58, 0
2, 37560, Note_on_c, 0, 62, 51
2, 37620, Note_on_c, 0, 74, 0
2, 37620, Note_on_c, 0, 50, 51
2, 37679, Note_on_c, 0, 62, 0
2, 37679, Control_c, 0, 64, 0
2, 37679, Note_on_c, 0, 67, 51
2, 37800, Note_on_c, 0, 67, 0
2, 37800, Control_c, 0, 64, 127
2, 37800, Note_on_c, 0, 55, 41
2, 37920, Note_on_c, 0, 55, 0
2, 37920, Note_on_c, 0, 62, 56
2, 37980, Note_on_c, 0, 50, 0
2, 37980, Note_on_c, 0, 43, 57
2, 38039, Note_on_c, 0, 62, 0
2, 38039, Control_c, 0, 64, 0
2, 38039, Note_on_c, 0, 67, 54
2, 38160, Note_on_c, 0, 67, 0
2, 38160, Note_on_c, 0, 43, 0
2, 38160, Control_c, 0, 64, 127
2, 38160, Note_on_c, 0, 58, 39
2, 38280, Note_on_c, 0, 58, 0
2, 38280, Note_on_c, 0, 62, 53
2, 38340, Note_on_c, 0, 74, 57
2, 38399, Note_on_c, 0, 62, 0
2, 38399, Control_c, 0, 64, 0
2, 38399, Note_on_c, 0, 67, 51
2, 38520, Note_on_c, 0, 67, 0
2, 38520, Control_c, 0, 64, 127
2, 38520, Note_on_c, 0, 57, 43
2, 38640, Note_on_c, 0, 57, 0
2, 38640, Note_on_c, 0, 62, 57
2, 38700, Note_on_c, 0, 74, 0
2, 38700, Note_on_c, 0, 81, 72
2, 38759, Note_on_c, 0, 62, 0
2, 38759, Control_c, 0, 64, 0
2, 38759, Note_on_c, 0, 67, 51
2, 38880, Note_on_c, 0, 67, 0
2, 38880, Control_c, 0, 64, 127
2, 38880, Note_on_c, 0, 58, 43
2, 39000, Note_on_c, 0, 58, 0
2, 39000, Note_on_c, 0, 62, 49
2, 39060, Note_on_c, 0, 81, 0
2, 39060, Note_on_c, 0, 74, 63
2, 39119, Note_on_c, 0, 62, 0
2, 39119, Control_c, 0, 64, 0
2, 39119, Note_on_c, 0, 67, 54
2, 39240, Note_on_c, 0, 67, 0
2, 39240, Control_c, 0, 64, 127
2, 39240, Note_on_c, 0, 57, 45
2, 39360, Note_on_c, 0, 57, 0
2, 39360, Note_on_c, 0, 62, 51
2, 39420, Note_on_c, 0, 74, 0
2, 39420, Note_on_c, 0, 69, 38
2, 39479, Note_on_c, 0, 62, 0
2, 39479, Control_c, 0, 64, 0
2, 39479, Note_on_c, 0, 67, 58
2, 39600, Note_on_c, 0, 67, 0
2, 39600, Control_c, 0, 64, 127
2, 39600, Note_on_c, 0, 58, 44
2, 39720, Note_on_c, 0, 58, 0
2, 39720, Note_on_c, 0, 62, 56
2, 39780, Note_on_c, 0, 69, 0
2, 39780, Note_on_c, 0, 50, 30
2, 39839, Note_on_c, 0, 62, 0
2, 39839, Control_c, 0, 64, 0
2, 39839, Note_on_c, 0, 67, 51
2, 39960, Note_on_c, 0, 67, 0
2, 39960, Control_c, 0, 64, 127
2, 39960, Note_on_c, 0, 55, 39
2, 40080, Note_on_c, 0, 55, 0
2, 40080, Note_on_c, 0, 62, 53
2, 40140, Note_on_c, 0, 50, 0
2, 40140, Note_on_c, 0, 43, 35
2, 40199, Note_on_c, 0, 62, 0
2, 40199, Control_c, 0, 64, 0
2, 40199, Note_on_c, 0, 67, 52
2, 40320, Note_on_c, 0, 67, 0
2, 40320, Note_on_c, 0, 43, 0
2, 40320, Control_c, 0, 64, 127
2, 40320, Note_on_c, 0, 58, 44
2, 40440, Note_on_c, 0, 58, 0
2, 40440, Note_on_c, 0, 62, 53
2, 40500, Note_on_c, 0, 74, 45
2, 40559, Note_on_c, 0, 62, 0
2, 40559, Control_c, 0, 64, 0
2, 40559, Note_on_c, 0, 67, 51
2, 40680, Note_on_c, 0, 67, 0
2, 40680, Control_c, 0, 64, 127
2, 40680, Note_on_c, 0, 59, 46
2, 40800, Note_on_c, 0, 59, 0
2, 40800, Note_on_c, 0, 62, 53
2, 40860, Note_on_c, 0, 74, 0
2, 40860, Note_on_c, 0, 80, 60
2, 40919, Note_on_c, 0, 62, 0
2, 40919, Control_c, 0, 64, 0
2, 40919, Note_on_c, 0, 68, 55
2, 41040, Note_on_c, 0, 68, 0
2, 41040, Control_c, 0, 64, 127
2, 41040, Note_on_c, 0, 59, 41
2, 41160, Note_on_c, 0, 59, 0
2, 41160, Note_on_c, 0, 62, 52
2, 41220, Note_on_c, 0, 80, 0
2, 41220, Note_on_c, 0, 74, 73
2, 41279, Note_on_c, 0, 62, 0
2, 41279, Control_c, 0, 64, 0
2, 41279, Note_on_c, 0, 68, 57
2, 41368, Note_on_c, 0, 72, 77
2, 41389, Note_on_c, 0, 72, 0
2, 41389, Note_on_c, 0, 74, 97
2, 41400, Note_on_c, 0, 74, 0
2, 41400, Note_on_c, 0, 68, 0
2, 41400, Note_on_c, 0, 74, 0
2, 41400, Note_on_c, 0, 72, 84
2, 41400, Note_on_c, 0, 60, 40
2, 41520, Note_on_c, 0, 60, 0
2, 41520, Note_on_c, 0, 62, 51
2, 41580, Note_on_c, 0, 72, 0
2, 41580, Note_on_c, 0, 71, 85
2, 41639, Note_on_c, 0, 62, 0
2, 41639, Note_on_c, 0, 68, 51
2, 41760, Note_on_c, 0, 68, 0
2, 41760, Note_on_c, 0, 71, 0
2, 41760, Note_on_c, 0, 74, 97
2, 41760, Control_c, 0, 64, 127
2, 41760, Note_on_c, 0, 59, 48
2, 41880, Note_on_c, 0, 59, 0
2, 41880, Note_on_c, 0, 62, 49
2, 41999, Note_on_c, 0, 62, 0
2, 41999, Control_c, 0, 64, 0
2, 41999, Note_on_c, 0, 68, 58
2, 42120, Note_on_c, 0, 68, 0
2, 42120, Control_c, 0, 64, 127
2, 42120, Note_on_c, 0, 56, 43
2, 42120, Note_on_c, 0, 53, 53
2, 42240, Note_on_c, 0, 56, 0
2, 42240, Note_on_c, 0, 62, 53
2, 42359, Note_on_c, 0, 62, 0
2, 42359, Control_c, 0, 64, 0
2, 42359, Note_on_c, 0, 68, 61
2, 42448, Note_on_c, 0, 72, 88
2, 42465, Note_on_c, 0, 72, 0
2, 42465, Note_on_c, 0, 74, 88
2, 42480, Note_on_c, 0, 74, 0
2, 42480, Note_on_c, 0, 68, 0
2, 42480, Note_on_c, 0, 74, 0
2, 42480, Note_on_c, 0, 72, 88
2, 42480, Note_on_c, 0, 60, 45
2, 42600, Note_on_c, 0, 60, 0
2, 42600, Note_on_c, 0, 62, 51
2, 42660, Note_on_c, 0, 72, 0
2, 42660, Note_on_c, 0, 71, 86
2, 42719, Note_on_c, 0, 62, 0
2, 42719, Note_on_c, 0, 68, 56
2, 42840, Note_on_c, 0, 68, 0
2, 42840, Note_on_c, 0, 71, 0
2, 42840, Note_on_c, 0, 74, 83
2, 42840, Control_c, 0, 64, 127
2, 42840, Note_on_c, 0, 59, 44
2, 42960, Note_on_c, 0, 59, 0
2, 42960, Note_on_c, 0, 62, 53
2, 43079, Note_on_c, 0, 62, 0
2, 43079, Control_c, 0, 64, 0
2, 43079, Note_on_c, 0, 68, 55
2, 43200, Note_on_c, 0, 68, 0
2, 43200, Control_c, 0, 64, 127
2, 43200, Note_on_c, 0, 56, 50
2, 43320, Note_on_c, 0, 56, 0
2, 43320, Note_on_c, 0, 62, 53
2, 43380, Note_on_c, 0, 74, 0
2, 43380, Note_on_c, 0, 72, 75
2, 43439, Note_on_c, 0, 62, 0
2, 43439, Control_c, 0, 64, 0
2, 43439, Note_on_c, 0, 68, 57
2, 43560, Note_on_c, 0, 68, 0
2, 43560, Note_on_c, 0, 72, 0
2, 43560, Note_on_c, 0, 71, 72
2, 43560, Control_c, 0, 64, 127
2, 43560, Note_on_c, 0, 59, 47
2, 43680, Note_on_c, 0, 59, 0
2, 43680, Note_on_c, 0, 62, 50
2, 43740, Note_on_c, 0, 71, 0
2, 43740, Note_on_c, 0, 72, 69
2, 43799, Note_on_c, 0, 62, 0
2, 43799, Control_c, 0, 64, 0
2, 43799, Note_on_c, 0, 67, 48
2, 43920, Note_on_c, 0, 67, 0
2, 43920, Note_on_c, 0, 72, 0
2, 43920, Note_on_c, 0, 74, 67
2, 43920, Control_c, 0, 64, 127
2, 43920, Note_on_c, 0, 55, 40
2, 44040, Note_on_c, 0, 55, 0
2, 44040, Note_on_c, 0, 59, 51
2, 44100, Note_on_c, 0, 74, 0
2, 44100, Note_on_c, 0, 79, 64
2, 44159, Note_on_c, 0, 59, 0
2, 44159, Control_c, 0, 64, 0
2, 44159, Note_on_c, 0, 67, 56
2, 44280, Note_on_c, 0, 67, 0
2, 44280, Note_on_c, 0, 79, 0
2, 44280, Note_on_c, 0, 53, 0
2, 44280, Note_on_c, 0, 79, 80
2, 44280, Control_c, 0, 64, 127
2, 44280, Note_on_c, 0, 41, 43
2, 44312, Note_on_c, 0, 48, 43
2, 44345, Note_on_c, 0, 57, 43
2, 44400, Note_on_c, 0, 57, 0
2, 44400, Note_on_c, 0, 48, 0
2, 44400, Note_on_c, 0, 41, 0
2, 44400, Note_on_c, 0, 60, 49
2, 44519, Note_on_c, 0, 60, 0
2, 44519, Control_c, 0, 64, 0
2, 44519, Note_on_c, 0, 67, 55
2, 44640, Note_on_c, 0, 67, 0
2, 44640, Control_c, 0, 64, 127
2, 44640, Note_on_c, 0, 56, 45
2, 44754, Note_on_c, 0, 79, 0
2, 44760, Note_on_c, 0, 56, 0
2, 44760, Note_on_c, 0, 60, 49
2, 44820, Note_on_c, 0, 72, 53
2, 44879, Note_on_c, 0, 60, 0
2, 44879, Control_c, 0, 64, 0
2, 44879, Note_on_c, 0, 67, 57
2, 45000, Note_on_c, 0, 67, 0
2, 45000, Control_c, 0, 64, 127
2, 45000, Note_on_c, 0, 57, 48
2, 45120, Note_on_c, 0, 57, 0
2, 45120, Note_on_c, 0, 60, 49
2, 45180, Note_on_c, 0, 72, 0
2, 45180, Note_on_c, 0, 48, 53
2, 45239, Note_on_c, 0, 60, 0
2, 45239, Control_c, 0, 64, 0
2, 45239, Note_on_c, 0, 67, 51
2, 45360, Note_on_c, 0, 67, 0
2, 45360, Control_c, 0, 64, 127
2, 45360, Note_on_c, 0, 57, 45
2, 45480, Note_on_c, 0, 57, 0
2, 45480, Note_on_c, 0, 60, 50
2, 45540, Note_on_c, 0, 48, 0
2, 45540, Note_on_c, 0, 41, 63
2, 45599, Note_on_c, 0, 60, 0
2, 45599, Control_c, 0, 64, 0
2, 45599, Note_on_c, 0, 67, 58
2, 45720, Note_on_c, 0, 67, 0
2, 45720, Note_on_c, 0, 41, 0
2, 45720, Control_c, 0, 64, 127
2, 45720, Note_on_c, 0, 56, 41
2, 45840, Note_on_c, 0, 56, 0
2, 45840, Note_on_c, 0, 60, 54
2, 45900, Note_on_c, 0, 72, 58
2, 45959, Note_on_c, 0, 60, 0
2, 45959, Control_c, 0, 64, 0
2, 45959, Note_on_c, 0, 67, 49
2, 46080, Note_on_c, 0, 67, 0
2, 46080, Control_c, 0, 64, 127
2, 46080, Note_on_c, 0, 57, 43
2, 46200, Note_on_c, 0, 57, 0
2, 46200, Note_on_c, 0, 60, 51
2, 46260, Note_on_c, 0, 72, 0
2, 46260, Note_on_c, 0, 79, 75
2, 46319, Note_on_c, 0, 60, 0
2, 46319, Control_c, 0, 64, 0
2, 46319, Note_on_c, 0, 67, 51
2, 46440, Note_on_c, 0, 67, 0
2, 46440, Control_c, 0, 64, 127
2, 46440, Note_on_c, 0, 57, 47
2, 46560, Note_on_c, 0, 57, 0
2, 46560, Note_on_c, 0, 60, 56
2, 46620, Note_on_c, 0, 79, 0
2, 46620, Note_on_c, 0, 72, 58
2, 46679, Note_on_c, 0, 60, 0
2, 46679, Control_c, 0, 64, 0
2, 46679, Note_on_c, 0, 67, 58
2, 46800, Note_on_c, 0, 67, 0
2, 46800, Control_c, 0, 64, 127
2, 46800, Note_on_c, 0, 56, 44
2, 46920, Note_on_c, 0, 56, 0
2, 46920, Note_on_c, 0, 72, 0
2, 46920, Note_on_c, 0, 60, 52
2, 47039, Note_on_c, 0, 60, 0
2, 47039, Note_on_c, 0, 67, 76
2, 47039, Control_c, 0, 64, 0
2, 47160, Control_c, 0, 64, 127
2, 47160, Note_on_c, 0, 57, 46
2, 47280, Note_on_c, 0, 57, 0
2, 47280, Note_on_c, 0, 60, 54
2, 47340, Note_on_c, 0, 67, 0
2, 47340, Note_on_c, 0, 48, 57
2, 47399, Note_on_c, 0, 60, 0
2, 47399, Control_c, 0, 64, 0
2, 47399, Note_on_c, 0, 67, 52
2, 47520, Note_on_c, 0, 67, 0
2, 47520, Control_c, 0, 64, 127
2, 47520, Note_on_c, 0, 55, 65
2, 47640, Note_on_c, 0, 55, 0
2, 47640, Note_on_c, 0, 60, 54
2, 47700, Note_on_c, 0, 48, 0
2, 47700, Note_on_c, 0, 40, 76
2, 47759, Note_on_c, 0, 60, 0
2, 47759, Control_c, 0, 64, 0
2, 47759, Note_on_c, 0, 67, 59
2, 47858, Note_on_c, 0, 40, 0
2, 47880, Note_on_c, 0, 67, 0
2, 47880, Control_c, 0, 64, 127
2, 47880, Note_on_c, 0, 57, 40
2, 48000, Note_on_c, 0, 57, 0
2, 48000, Note_on_c, 0, 60, 47
2, 48060, Note_on_c, 0, 72, 65
2, 48119, Note_on_c, 0, 60, 0
2, 48119, Control_c, 0, 64, 0
2, 48119, Note_on_c, 0, 67, 56
2, 48240, Note_on_c, 0, 67, 0
2, 48240, Control_c, 0, 64, 127
2, 48240, Note_on_c, 0, 56, 47
2, 48360, Note_on_c, 0, 56, 0
2, 48360, Note_on_c, 0, 60, 53
2, 48420, Note_on_c, 0, 72, 0
2, 48420, Note_on_c, 0, 79, 69
2, 48479, Note_on_c, 0, 60, 0
2, 48479, Control_c, 0, 64, 0
2, 48479, Note_on_c, 0, 67, 55
2, 48600, Note_on_c, 0, 67, 0
2, 48600, Note_on_c, 0, 57, 42
2, 48720, Note_on_c, 0, 57, 0
2, 48720, Note_on_c, 0, 60, 48
2, 48780, Note_on_c, 0, 79, 0
2, 48780, Note_on_c, 0, 72, 73
2, 48839, Note_on_c, 0, 60, 0
2, 48839, Note_on_c, 0, 67, 55
2, 48960, Note_on_c, 0, 67, 0
2, 48960, Note_on_c, 0, 56, 45
2, 49080, Note_on_c, 0, 56, 0
2, 49080, Note_on_c, 0, 72, 0
2, 49080, Note_on_c, 0, 60, 54
2, 49199, Note_on_c, 0, 60, 0
2, 49199, Note_on_c, 0, 67, 77
2, 49320, Note_on_c, 0, 57, 47
2, 49440, Note_on_c, 0, 57, 0
2, 49440, Note_on_c, 0, 60, 47
2, 49500, Note_on_c, 0, 67, 0
2, 49500, Note_on_c, 0, 48, 80
2, 49559, Note_on_c, 0, 60, 0
2, 49559, Note_on_c, 0, 67, 59
2, 49680, Note_on_c, 0, 67, 0
2, 49680, Note_on_c, 0, 53, 64
2, 49800, Note_on_c, 0, 53, 0
2, 49800, Note_on_c, 0, 60, 52
2, 49860, Note_on_c, 0, 48, 0
2, 49860, Note_on_c, 0, 38, 84
2, 49919, Note_on_c, 0, 60, 0
2, 49919, Note_on_c, 0, 67, 52
2, 50018, Note_on_c, 0, 38, 0
2, 50040, Note_on_c, 0, 67, 0
2, 50040, Note_on_c, 0, 57, 43
2, 50160, Note_on_c, 0, 57, 0
2, 50160, Note_on_c, 0, 60, 46
2, 50220, Note_on_c, 0, 72, 87
2, 50279, Note_on_c, 0, 60, 0
2, 50279, Note_on_c, 0, 67, 59
2, 50400, Note_on_c, 0, 67, 0
2, 50400, Note_on_c, 0, 56, 44
2, 50520, Note_on_c, 0, 56, 0
2, 50520, Note_on_c, 0, 60, 51
2, 50580, Note_on_c, 0, 72, 0
2, 50580, Note_on_c, 0, 79, 91
2, 50639, Note_on_c, 0, 60, 0
2, 50639, Note_on_c, 0, 67, 57
2, 50760, Note_on_c, 0, 67, 0
2, 50760, Note_on_c, 0, 57, 44
2, 50880, Note_on_c, 0, 57, 0
2, 50880, Note_on_c, 0, 60, 49
2, 50940, Note_on_c, 0, 79, 0
2, 50940, Note_on_c, 0, 72, 76
2, 50999, Note_on_c, 0, 60, 0
2, 50999, Note_on_c, 0, 67, 56
2, 51120, Note_on_c, 0, 67, 0
2, 51120, Note_on_c, 0, 56, 47
2, 51240, Note_on_c, 0, 56, 0
2, 51240, Note_on_c, 0, 60, 54
2, 51300, Note_on_c, 0, 72, 0
2, 51359, Note_on_c, 0, 60, 0
2, 51359, Note_on_c, 0, 67, 52
2, 51480, Note_on_c, 0, 67, 0
2, 51480, Note_on_c, 0, 57, 39
2, 51660, Note_on_c, 0, 60, 78
2, 52020, Note_on_c, 0, 53, 47
2, 52200, Note_on_c, 0, 53, 0
2, 52200, Note_on_c, 0, 50, 54
2, 52380, Note_on_c, 0, 50, 0
2, 52380, Note_on_c, 0, 43, 52
2, 52560, Note_on_c, 0, 43, 0
2, 52560, Note_on_c, 0, 31, 47
2, 52920, Note_on_c, 0, 31, 0
2, 52920, Note_on_c, 0, 60, 0
2, 52920, Note_on_c, 0, 57, 0
2, 52920, Note_on_c, 0, 48, 88
2, 52920, Note_on_c, 0, 43, 42
2, 53040, Note_on_c, 0, 43, 0
2, 53040, Note_on_c, 0, 52, 53
2, 53159, Note_on_c, 0, 52, 0
2, 53159, Note_on_c, 0, 36, 38
2, 53237, Note_on_c, 0, 48, 0
2, 53280, Note_on_c, 0, 36, 0
2, 53280, Note_on_c, 0, 47, 55
2, 53280, Note_on_c, 0, 47, 61
2, 53400, Note_on_c, 0, 47, 0
2, 53400, Note_on_c, 0, 52, 54
2, 53519, Note_on_c, 0, 52, 0
2, 53519, Note_on_c, 0, 36, 41
2, 53597, Note_on_c, 0, 47, 0
2, 53640, Note_on_c, 0, 36, 0
2, 53640, Note_on_c, 0, 48, 51
2, 53640, Note_on_c, 0, 48, 68
2, 53760, Note_on_c, 0, 48, 0
2, 53760, Note_on_c, 0, 52, 52
2, 53879, Note_on_c, 0, 52, 0
2, 53879, Note_on_c, 0, 36, 39
2, 53957, Note_on_c, 0, 48, 0
2, 54000, Note_on_c, 0, 36, 0
2, 54000, Note_on_c, 0, 43, 53
2, 54000, Note_on_c, 0, 43, 58
2, 54120, Note_on_c, 0, 43, 0
2, 54120, Note_on_c, 0, 52, 47
2, 54239, Note_on_c, 0, 52, 0
2, 54239, Note_on_c, 0, 36, 40
2, 54360, Note_on_c, 0, 36, 0
2, 54360, Note_on_c, 0, 43, 0
2, 54360, Note_on_c, 0, 42, 48
2, 54360, Note_on_c, 0, 42, 52
2, 54480, Note_on_c, 0, 42, 0
2, 54480, Note_on_c, 0, 52, 52
2, 54599, Note_on_c, 0, 52, 0
2, 54599, Note_on_c, 0, 36, 56
2, 54720, Note_on_c, 0, 36, 0
2, 54720, Note_on_c, 0, 42, 0
2, 54720, Note_on_c, 0, 43, 60
2, 54720, Note_on_c, 0, 43, 57
2, 54840, Note_on_c, 0, 43, 0
2, 54840, Note_on_c, 0, 52, 65
2, 54959, Note_on_c, 0, 52, 0
2, 54959, Note_on_c, 0, 36, 69
2, 55080, Note_on_c, 0, 36, 0
2, 55080, Note_on_c, 0, 43, 0
2, 55080, Note_on_c, 0, 67, 93
2, 55080, Note_on_c, 0, 70, 93
2, 55080, Note_on_c, 0, 75, 93
2, 55080, Note_on_c, 0, 79, 93
2, 55080, Note_on_c, 0, 82, 93
2, 55080, Note_on_c, 0, 46, 93
2, 55080, Note_on_c, 0, 51, 93
2, 55080, Note_on_c, 0, 55, 93
2, 55080, Note_on_c, 0, 58, 93
2, 55200, Note_on_c, 0, 42, 76
2, 55319, Note_on_c, 0, 42, 0
2, 55319, Note_on_c, 0, 36, 69
2, 55440, Note_on_c, 0, 36, 0
2, 55440, Note_on_c, 0, 43, 91
2, 55560, Note_on_c, 0, 43, 0
2, 55560, Note_on_c, 0, 51, 92
2, 55679, Note_on_c, 0, 51, 0
2, 55679, Note_on_c, 0, 36, 74
2, 55800, Note_on_c, 0, 36, 0
2, 55800, Note_on_c, 0, 36, 76
2, 55920, Note_on_c, 0, 36, 0
2, 55920, Note_on_c, 0, 24, 71
2, 56029, Note_on_c, 0, 51, 0
2, 56029, Note_on_c, 0, 75, 0
2, 56029, Note_on_c, 0, 79, 0
2, 56029, Note_on_c, 0, 55, 0
2, 56029, Note_on_c, 0, 82, 0
2, 56029, Note_on_c, 0, 70, 0
2, 56029, Note_on_c, 0, 58, 0
2, 56029, Note_on_c, 0, 67, 0
2, 56029, Note_on_c, 0, 46, 0
2, 56039, Note_on_c, 0, 24, 0
2, 56039, Note_on_c, 0, 36, 89
2, 56160, Note_on_c, 0, 36, 0
2, 56160, Note_on_c, 0, 65, 76
2, 56160, Note_on_c, 0, 67, 76
2, 56160, Note_on_c, 0, 72, 76
2, 56160, Note_on_c, 0, 74, 76
2, 56160, Note_on_c, 0, 79, 76
2, 56160, Note_on_c, 0, 45, 83
2, 56160, Note_on_c, 0, 50, 83
2, 56160, Note_on_c, 0, 53, 83
2, 56160, Note_on_c, 0, 57, 83
2, 56280, Control_c, 0, 64, 127
2, 56280, Note_on_c, 0, 42, 74
2, 56399, Note_on_c, 0, 42, 0
2, 56399, Note_on_c, 0, 36, 77
2, 56520, Note_on_c, 0, 36, 0
2, 56520, Control_c, 0, 64, 0
2, 56520, Control_c, 0, 64, 127
2, 56520, Note_on_c, 0, 43, 83
2, 56640, Note_on_c, 0, 43, 0
2, 56640, Note_on_c, 0, 50, 83
2, 56759, Note_on_c, 0, 50, 0
2, 56759, Control_c, 0, 64, 0
2, 56759, Note_on_c, 0, 36, 74
2, 56880, Note_on_c, 0, 36, 0
2, 56880, Control_c, 0, 64, 127
2, 56880, Note_on_c, 0, 36, 79
2, 57000, Note_on_c, 0, 36, 0
2, 57000, Note_on_c, 0, 24, 74
2, 57109, Note_on_c, 0, 50, 0
2, 57109, Note_on_c, 0, 72, 0
2, 57109, Note_on_c, 0, 74, 0
2, 57109, Note_on_c, 0, 53, 0
2, 57109, Note_on_c, 0, 79, 0
2, 57109, Note_on_c, 0, 67, 0
2, 57109, Note_on_c, 0, 57, 0
2, 57109, Note_on_c, 0, 65, 0
2, 57109, Note_on_c, 0, 45, 0
2, 57119, Note_on_c, 0, 24, 0
2, 57119, Control_c, 0, 64, 0
2, 57119, Note_on_c, 0, 36, 92
2, 57240, Note_on_c, 0, 36, 0
2, 57240, Note_on_c, 0, 60, 72
2, 57240, Note_on_c, 0, 64, 72
2, 57240, Note_on_c, 0, 67, 72
2, 57240, Note_on_c, 0, 72, 72
2, 57240, Control_c, 0, 64, 127
2, 57240, Note_on_c, 0, 48, 63
2, 57240, Note_on_c, 0, 48, 94
2, 57360, Note_on_c, 0, 48, 0
2, 57360, Note_on_c, 0, 52, 87
2, 57479, Note_on_c, 0, 52, 0
2, 57479, Control_c, 0, 64, 0
2, 57479, Note_on_c, 0, 36, 73
2, 57479, Note_on_c, 0, 43, 73
2, 57600, Note_on_c, 0, 43, 0
2, 57600, Note_on_c, 0, 48, 0
2, 57600, Note_on_c, 0, 36, 0
2, 57600, Note_on_c, 0, 47, 58
2, 57600, Note_on_c, 0, 47, 68
2, 57600, Control_c, 0, 64, 127
2, 57720, Note_on_c, 0, 47, 0
2, 57720, Note_on_c, 0, 52, 65
2, 57839, Note_on_c, 0, 52, 0
2, 57839, Note_on_c, 0, 60, 75
2, 57960, Note_on_c, 0, 47, 0
2, 57960, Note_on_c, 0, 60, 0
2, 57960, Note_on_c, 0, 48, 62
2, 57960, Note_on_c, 0, 48, 72
2, 57960, Control_c, 0, 64, 0
2, 57960, Control_c, 0, 64, 127
2, 58080, Note_on_c, 0, 48, 0
2, 58080, Note_on_c, 0, 52, 68
2, 58140, Control_c, 0, 64, 0
2, 58140, Note_on_c, 0, 42, 83
2, 58189, Note_on_c, 0, 72, 0
2, 58189, Note_on_c, 0, 64, 0
2, 58189, Note_on_c, 0, 67, 0
2, 58189, Note_on_c, 0, 60, 0
2, 58199, Note_on_c, 0, 52, 0
2, 58199, Note_on_c, 0, 60, 79
2, 58320, Note_on_c, 0, 60, 0
2, 58320, Note_on_c, 0, 42, 0
2, 58320, Note_on_c, 0, 48, 0
2, 58320, Note_on_c, 0, 43, 58
2, 58320, Note_on_c, 0, 43, 71
2, 58320, Control_c, 0, 64, 127
2, 58320, Note_on_c, 0, 43, 91
2, 58440, Note_on_c, 0, 43, 0
2, 58440, Note_on_c, 0, 52, 71
2, 58500, Note_on_c, 0, 43, 0
2, 58500, Control_c, 0, 64, 0
2, 58500, Note_on_c, 0, 36, 82
2, 58559, Note_on_c, 0, 52, 0
2, 58559, Note_on_c, 0, 60, 79
2, 58680, Note_on_c, 0, 60, 0
2, 58680, Note_on_c, 0, 36, 0
2, 58680, Note_on_c, 0, 43, 0
2, 58680, Note_on_c, 0, 48, 58
2, 58680, Note_on_c, 0, 48, 80
2, 58680, Control_c, 0, 64, 127
2, 58800, Note_on_c, 0, 48, 0
2, 58800, Note_on_c, 0, 52, 66
2, 58919, Note_on_c, 0, 52, 0
2, 58919, Note_on_c, 0, 60, 71
2, 59040, Note_on_c, 0, 60, 0
2, 59040, Note_on_c, 0, 48, 0
2, 59040, Note_on_c, 0, 47, 59
2, 59040, Note_on_c, 0, 47, 78
2, 59040, Control_c, 0, 64, 0
2, 59040, Control_c, 0, 64, 127
2, 59160, Note_on_c, 0, 47, 0
2, 59160, Note_on_c, 0, 52, 69
2, 59279, Note_on_c, 0, 52, 0
2, 59279, Note_on_c, 0, 60, 80
2, 59400, Note_on_c, 0, 60, 0
2, 59400, Note_on_c, 0, 47, 0
2, 59400, Note_on_c, 0, 48, 57
2, 59400, Note_on_c, 0, 48, 75
2, 59400, Control_c, 0, 64, 0
2, 59400, Control_c, 0, 64, 127
2, 59520, Note_on_c, 0, 48, 0
2, 59520, Note_on_c, 0, 60, 81
2, 59580, Control_c, 0, 64, 0
2, 59580, Note_on_c, 0, 42, 89
2, 59639, Note_on_c, 0, 60, 0
2, 59639, Note_on_c, 0, 64, 74
2, 59760, Note_on_c, 0, 64, 0
2, 59760, Note_on_c, 0, 42, 0
2, 59760, Note_on_c, 0, 48, 0
2, 59760, Note_on_c, 0, 47, 58
2, 59760, Note_on_c, 0, 47, 73
2, 59760, Control_c, 0, 64, 127
2, 59760, Note_on_c, 0, 43, 89
2, 59880, Note_on_c, 0, 47, 0
2, 59880, Note_on_c, 0, 59, 72
2, 59940, Note_on_c, 0, 43, 0
2, 59940, Control_c, 0, 64, 0
2, 59940, Note_on_c, 0, 36, 82
2, 59999, Note_on_c, 0, 59, 0
2, 59999, Note_on_c, 0, 64, 75
2, 60120, Note_on_c, 0, 64, 0
2, 60120, Note_on_c, 0, 36, 0
2, 60120, Note_on_c, 0, 47, 0
2, 60120, Note_on_c, 0, 48, 58
2, 60120, Note_on_c, 0, 48, 80
2, 60120, Control_c, 0, 64, 127
2, 60240, Note_on_c, 0, 48, 0
2, 60240, Note_on_c, 0, 60, 82
2, 60300, Control_c, 0, 64, 0
2, 60300, Note_on_c, 0, 24, 83
2, 60359, Note_on_c, 0, 60, 0
2, 60359, Note_on_c, 0, 64, 70
2, 60480, Note_on_c, 0, 64, 0
2, 60480, Note_on_c, 0, 24, 0
2, 60480, Note_on_c, 0, 48, 0
2, 60480, Note_on_c, 0, 43, 62
2, 60480, Note_on_c, 0, 43, 71
2, 60480, Control_c, 0, 64, 127
2, 60480, Note_on_c, 0, 43, 98
2, 60600, Note_on_c, 0, 43, 0
2, 60600, Note_on_c, 0, 52, 71
2, 60660, Note_on_c, 0, 43, 0
2, 60660, Control_c, 0, 64, 0
2, 60660, Note_on_c, 0, 36, 84
2, 60719, Note_on_c, 0, 52, 0
2, 60719, Note_on_c, 0, 60, 76
2, 60840, Note_on_c, 0, 60, 0
2, 60840, Note_on_c, 0, 36, 0
2, 60840, Note_on_c, 0, 43, 0
2, 60840, Note_on_c, 0, 52, 65
2, 60840, Note_on_c, 0, 52, 84
2, 60840, Control_c, 0, 64, 127
2, 60960, Note_on_c, 0, 52, 0
2, 60960, Note_on_c, 0, 60, 67
2, 61020, Control_c, 0, 64, 0
2, 61020, Note_on_c, 0, 56, 81
2, 61079, Note_on_c, 0, 60, 0
2, 61079, Note_on_c, 0, 64, 68
2, 61200, Note_on_c, 0, 64, 0
2, 61200, Note_on_c, 0, 56, 0
2, 61200, Note_on_c, 0, 52, 0
2, 61200, Note_on_c, 0, 51, 69
2, 61200, Note_on_c, 0, 51, 72
2, 61200, Control_c, 0, 64, 127
2, 61200, Note_on_c, 0, 55, 84
2, 61320, Note_on_c, 0, 51, 0
2, 61320, Note_on_c, 0, 60, 70
2, 61380, Note_on_c, 0, 55, 0
2, 61380, Control_c, 0, 64, 0
2, 61380, Note_on_c, 0, 48, 80
2, 61439, Note_on_c, 0, 60, 0
2, 61439, Note_on_c, 0, 67, 71
2, 61560, Note_on_c, 0, 67, 0
2, 61560, Note_on_c, 0, 48, 0
2, 61560, Note_on_c, 0, 51, 0
2, 61560, Note_on_c, 0, 52, 72
2, 61560, Note_on_c, 0, 52, 73
2, 61560, Control_c, 0, 64, 127
2, 61560, Note_on_c, 0, 44, 82
2, 61680, Note_on_c, 0, 52, 0
2, 61680, Note_on_c, 0, 60, 73
2, 61740, Note_on_c, 0, 44, 0
2, 61740, Control_c, 0, 64, 0
2, 61740, Note_on_c, 0, 43, 88
2, 61799, Note_on_c, 0, 60, 0
2, 61799, Note_on_c, 0, 64, 74
2, 61920, Note_on_c, 0, 64, 0
2, 61920, Note_on_c, 0, 43, 0
2, 61920, Note_on_c, 0, 52, 0
2, 61920, Note_on_c, 0, 43, 75
2, 61920, Note_on_c, 0, 43, 67
2, 61920, Control_c, 0, 64, 127
2, 61920, Note_on_c, 0, 36, 78
2, 62040, Note_on_c, 0, 43, 0
2, 62040, Note_on_c, 0, 52, 76
2, 62100, Note_on_c, 0, 36, 0
2, 62100, Control_c, 0, 64, 0
2, 62100, Note_on_c, 0, 24, 74
2, 62159, Note_on_c, 0, 52, 0
2, 62159, Note_on_c, 0, 60, 77
2, 62280, Note_on_c, 0, 60, 0
2, 62280, Note_on_c, 0, 24, 0
2, 62280, Note_on_c, 0, 43, 0
2, 62280, Note_on_c, 0, 56, 78
2, 62280, Note_on_c, 0, 56, 85
2, 62280, Control_c, 0, 64, 127
2, 62400, Note_on_c, 0, 56, 0
2, 62400, Note_on_c, 0, 64, 79
2, 62460, Control_c, 0, 64, 0
2, 62460, Note_on_c, 0, 60, 78
2, 62519, Note_on_c, 0, 64, 0
2, 62519, Note_on_c, 0, 68, 80
2, 62640, Note_on_c, 0, 68, 0
2, 62640, Note_on_c, 0, 60, 0
2, 62640, Note_on_c, 0, 56, 0
2, 62640, Note_on_c, 0, 55, 81
2, 62640, Note_on_c, 0, 55, 74
2, 62640, Control_c, 0, 64, 127
2, 62640, Note_on_c, 0, 59, 86
2, 62760, Note_on_c, 0, 55, 0
2, 62760, Note_on_c, 0, 64, 82
2, 62820, Note_on_c, 0, 59, 0
2, 62820, Control_c, 0, 64, 0
2, 62820, Note_on_c, 0, 52, 80
2, 62879, Note_on_c, 0, 64, 0
2, 62879, Note_on_c, 0, 72, 83
2, 63000, Note_on_c, 0, 72, 0
2, 63000, Note_on_c, 0, 52, 0
2, 63000, Note_on_c, 0, 55, 0
2, 63000, Note_on_c, 0, 56, 85
2, 63000, Note_on_c, 0, 56, 79
2, 63000, Control_c, 0, 64, 127
2, 63000, Note_on_c, 0, 48, 79
2, 63120, Note_on_c, 0, 56, 0
2, 63120, Note_on_c, 0, 64, 86
2, 63180, Note_on_c, 0, 48, 0
2, 63180, Control_c, 0, 64, 0
2, 63180, Note_on_c, 0, 47, 81
2, 63239, Note_on_c, 0, 64, 0
2, 63239, Note_on_c, 0, 68, 87
2, 63360, Note_on_c, 0, 68, 0
2, 63360, Note_on_c, 0, 47, 0
2, 63360, Note_on_c, 0, 56, 0
2, 63360, Note_on_c, 0, 44, 88
2, 63360, Note_on_c, 0, 44, 67
2, 63360, Control_c, 0, 64, 127
2, 63360, Note_on_c, 0, 36, 79
2, 63480, Note_on_c, 0, 44, 0
2, 63480, Note_on_c, 0, 52, 89
2, 63540, Note_on_c, 0, 36, 0
2, 63540, Control_c, 0, 64, 0
2, 63540, Note_on_c, 0, 24, 76
2, 63599, Note_on_c, 0, 52, 0
2, 63599, Note_on_c, 0, 60, 90
2, 63720, Note_on_c, 0, 60, 0
2, 63720, Note_on_c, 0, 24, 0
2, 63720, Note_on_c, 0, 44, 0
2, 63720, Note_on_c, 0, 52, 127
2, 63720, Note_on_c, 0, 56, 127
2, 63720, Note_on_c, 0, 61, 127
2, 63720, Note_on_c, 0, 64, 127
2, 63720, Note_on_c, 0, 25, 83
2, 63720, Note_on_c, 0, 37, 83
2, 63900, Note_on_c, 0, 85, 79
2, 63900, Note_on_c, 0, 88, 79
2, 64080, Note_on_c, 0, 88, 0
2, 64080, Note_on_c, 0, 85, 0
2, 64080, Note_on_c, 0, 84, 95
2, 64080, Note_on_c, 0, 87, 95
2, 64080, Control_c, 0, 64, 127
2, 64080, Note_on_c, 0, 44, 56
2, 64200, Note_on_c, 0, 44, 0
2, 64200, Note_on_c, 0, 49, 74
2, 64238, Note_on_c, 0, 87, 0
2, 64238, Note_on_c, 0, 84, 0
2, 64260, Note_on_c, 0, 76, 76
2, 64260, Note_on_c, 0, 81, 76
2, 64319, Note_on_c, 0, 49, 0
2, 64319, Control_c, 0, 64, 0
2, 64319, Note_on_c, 0, 52, 67
2, 64353, Note_on_c, 0, 61, 0
2, 64353, Note_on_c, 0, 52, 0
2, 64353, Note_on_c, 0, 56, 0
2, 64353, Note_on_c, 0, 64, 0
2, 64440, Note_on_c, 0, 81, 0
2, 64440, Note_on_c, 0, 52, 0
2, 64440, Note_on_c, 0, 76, 0
2, 64440, Note_on_c, 0, 85, 118
2, 64440, Note_on_c, 0, 88, 118
2, 64440, Control_c, 0, 64, 127
2, 64440, Note_on_c, 0, 55, 70
2, 64560, Note_on_c, 0, 55, 0
2, 64560, Note_on_c, 0, 56, 69
2, 64598, Note_on_c, 0, 85, 0
2, 64598, Note_on_c, 0, 88, 0
2, 64620, Note_on_c, 0, 73, 78
2, 64620, Note_on_c, 0, 80, 78
2, 64669, Note_on_c, 0, 25, 0
2, 64669, Note_on_c, 0, 37, 0
2, 64679, Note_on_c, 0, 56, 0
2, 64679, Control_c, 0, 64, 0
2, 64679, Note_on_c, 0, 61, 74
2, 64800, Note_on_c, 0, 61, 0
2, 64800, Note_on_c, 0, 80, 0
2, 64800, Note_on_c, 0, 73, 0
2, 64800, Note_on_c, 0, 76, 104
2, 64800, Note_on_c, 0, 80, 104
2, 64800, Control_c, 0, 64, 127
2, 64800, Note_on_c, 0, 63, 72
2, 64920, Note_on_c, 0, 63, 0
2, 64920, Note_on_c, 0, 64, 71
2, 64958, Note_on_c, 0, 80, 0
2, 64958, Note_on_c, 0, 76, 0
2, 64980, Note_on_c, 0, 70, 80
2, 64980, Note_on_c, 0, 75, 80
2, 65039, Note_on_c, 0, 64, 0
2, 65039, Control_c, 0, 64, 0
2, 65039, Note_on_c, 0, 68, 75
2, 65160, Note_on_c, 0, 68, 0
2, 65160, Note_on_c, 0, 75, 0
2, 65160, Note_on_c, 0, 70, 0
2, 65160, Note_on_c, 0, 76, 115
2, 65160, Note_on_c, 0, 79, 115
2, 65160, Control_c, 0, 64, 127
2, 65160, Note_on_c, 0, 67, 61
2, 65280, Note_on_c, 0, 67, 0
2, 65280, Note_on_c, 0, 64, 59
2, 65318, Note_on_c, 0, 79, 0
2, 65318, Note_on_c, 0, 76, 0
2, 65340, Note_on_c, 0, 68, 82
2, 65340, Note_on_c, 0, 73, 82
2, 65399, Note_on_c, 0, 64, 0
2, 65399, Control_c, 0, 64, 0
2, 65399, Note_on_c, 0, 63, 59
2, 65520, Note_on_c, 0, 63, 0
2, 65520, Note_on_c, 0, 73, 0
2, 65520, Note_on_c, 0, 68, 0
2, 65520, Note_on_c, 0, 76, 122
2, 65520, Note_on_c, 0, 80, 122
2, 65520, Control_c, 0, 64, 127
2, 65520, Note_on_c, 0, 64, 69
2, 65640, Note_on_c, 0, 64, 0
2, 65640, Note_on_c, 0, 63, 62
2, 65678, Note_on_c, 0, 80, 0
2, 65678, Note_on_c, 0, 76, 0
2, 65700, Note_on_c, 0, 67, 74
2, 65700, Note_on_c, 0, 71, 74
2, 65759, Note_on_c, 0, 63, 0
2, 65759, Control_c, 0, 64, 0
2, 65759, Note_on_c, 0, 61, 66
2, 65880, Note_on_c, 0, 61, 0
2, 65880, Note_on_c, 0, 71, 0
2, 65880, Note_on_c, 0, 67, 0
2, 65880, Note_on_c, 0, 73, 91
2, 65880, Note_on_c, 0, 76, 91
2, 65880, Control_c, 0, 64, 127
2, 65880, Note_on_c, 0, 59, 65
2, 66000, Note_on_c, 0, 59, 0
2, 66000, Note_on_c, 0, 58, 63
2, 66060, Note_on_c, 0, 76, 0
2, 66060, Note_on_c, 0, 73, 0
2, 66060, Note_on_c, 0, 64, 88
2, 66060, Note_on_c, 0, 69, 88
2, 66119, Note_on_c, 0, 58, 0
2, 66119, Control_c, 0, 64, 0
2, 66119, Note_on_c, 0, 57, 68
2, 66240, Note_on_c, 0, 57, 0
2, 66240, Note_on_c, 0, 69, 0
2, 66240, Note_on_c, 0, 64, 0
2, 66240, Note_on_c, 0, 72, 85
2, 66240, Note_on_c, 0, 75, 85
2, 66240, Control_c, 0, 64, 127
2, 66240, Note_on_c, 0, 56, 64
2, 66360, Note_on_c, 0, 56, 0
2, 66360, Note_on_c, 0, 55, 68
2, 66420, Note_on_c, 0, 75, 0
2, 66420, Note_on_c, 0, 72, 0
2, 66420, Note_on_c, 0, 63, 82
2, 66420, Note_on_c, 0, 68, 82
2, 66479, Note_on_c, 0, 55, 0
2, 66479, Control_c, 0, 64, 0
2, 66479, Note_on_c, 0, 54, 69
2, 66600, Note_on_c, 0, 54, 0
2, 66600, Note_on_c, 0, 68, 0
2, 66600, Note_on_c, 0, 63, 0
2, 66600, Note_on_c, 0, 73, 80
2, 66600, Note_on_c, 0, 76, 80
2, 66600, Control_c, 0, 64, 127
2, 66600, Note_on_c, 0, 52, 68
2, 66720, Note_on_c, 0, 52, 0
2, 66720, Note_on_c, 0, 51, 61
2, 66780, Note_on_c, 0, 76, 0
2, 66780, Note_on_c, 0, 73, 0
2, 66780, Note_on_c, 0, 61, 77
2, 66780, Note_on_c, 0, 67, 77
2, 66839, Note_on_c, 0, 51, 0
2, 66839, Control_c, 0, 64, 0
2, 66839, Note_on_c, 0, 50, 62
2, 66960, Note_on_c, 0, 50, 0
2, 66960, Note_on_c, 0, 67, 0
2, 66960, Note_on_c, 0, 61, 0
2, 66960, Note_on_c, 0, 64, 74
2, 66960, Note_on_c, 0, 68, 74
2, 66960, Control_c, 0, 64, 127
2, 66960, Note_on_c, 0, 49, 62
2, 67080, Note_on_c, 0, 49, 0
2, 67080, Note_on_c, 0, 48, 66
2, 67140, Note_on_c, 0, 68, 0
2, 67140, Note_on_c, 0, 64, 0
2, 67140, Note_on_c, 0, 58, 71
2, 67140, Note_on_c, 0, 63, 71
2, 67199, Note_on_c, 0, 48, 0
2, 67199, Control_c, 0, 64, 0
2, 67199, Note_on_c, 0, 47, 63
2, 67320, Note_on_c, 0, 47, 0
2, 67320, Note_on_c, 0, 63, 0
2, 67320, Note_on_c, 0, 58, 0
2, 67320, Note_on_c, 0, 64, 68
2, 67320, Note_on_c, 0, 67, 68
2, 67320, Control_c, 0, 64, 127
2, 67320, Note_on_c, 0, 46, 62
2, 67440, Note_on_c, 0, 46, 0
2, 67440, Note_on_c, 0, 45, 62
2, 67500, Note_on_c, 0, 67, 0
2, 67500, Note_on_c, 0, 64, 0
2, 67500, Note_on_c, 0, 56, 65
2, 67500, Note_on_c, 0, 61, 65
2, 67559, Note_on_c, 0, 45, 0
2, 67559, Control_c, 0, 64, 0
2, 67559, Note_on_c, 0, 44, 67
2, 67680, Note_on_c, 0, 61, 0
2, 67680, Note_on_c, 0, 56, 0
2, 67680, Note_on_c, 0, 64, 74
2, 67680, Note_on_c, 0, 68, 74
2, 67680, Note_on_c, 0, 37, 65
2, 67860, Note_on_c, 0, 68, 0
2, 67860, Note_on_c, 0, 64, 0
2, 67860, Note_on_c, 0, 52, 60
2, 67860, Note_on_c, 0, 56, 60
2, 68040, Note_on_c, 0, 56, 0
2, 68040, Note_on_c, 0, 37, 0
2, 68040, Note_on_c, 0, 44, 0
2, 68040, Note_on_c, 0, 52, 0
2, 68040, Control_c, 0, 64, 127
2, 68040, Note_on_c, 0, 49, 70
2, 68040, Note_on_c, 0, 49, 89
2, 68160, Note_on_c, 0, 49, 0
2, 68160, Note_on_c, 0, 52, 72
2, 68279, Note_on_c, 0, 52, 0
2, 68279, Control_c, 0, 64, 0
2, 68279, Note_on_c, 0, 37, 54
2, 68400, Note_on_c, 0, 37, 0
2, 68400, Note_on_c, 0, 49, 0
2, 68400, Control_c, 0, 64, 127
2, 68400, Note_on_c, 0, 48, 70
2, 68400, Note_on_c, 0, 48, 76
2, 68520, Note_on_c, 0, 48, 0
2, 68520, Note_on_c, 0, 52, 70
2, 68639, Note_on_c, 0, 52, 0
2, 68639, Control_c, 0, 64, 0
2, 68639, Note_on_c, 0, 37, 57
2, 68760, Note_on_c, 0, 37, 0
2, 68760, Note_on_c, 0, 48, 0
2, 68760, Control_c, 0, 64, 127
2, 68760, Note_on_c, 0, 49, 76
2, 68760, Note_on_c, 0, 49, 78
2, 68880, Note_on_c, 0, 49, 0
2, 68880, Note_on_c, 0, 52, 65
2, 68999, Note_on_c, 0, 52, 0
2, 68999, Control_c, 0, 64, 0
2, 68999, Note_on_c, 0, 37, 58
2, 69120, Note_on_c, 0, 37, 0
2, 69120, Note_on_c, 0, 49, 0
2, 69120, Control_c, 0, 64, 127
2, 69120, Note_on_c, 0, 44, 65
2, 69120, Note_on_c, 0, 44, 75
2, 69240, Note_on_c, 0, 44, 0
2, 69240, Note_on_c, 0, 52, 78
2, 69359, Note_on_c, 0, 52, 0
2, 69359, Control_c, 0, 64, 0
2, 69359, Note_on_c, 0, 37, 91
2, 69480, Note_on_c, 0, 37, 0
2, 69480, Note_on_c, 0, 44, 0
2, 69480, Note_on_c, 0, 55, 73
2, 69480, Control_c, 0, 64, 127
2, 69480, Note_on_c, 0, 49, 102
2, 69480, Note_on_c, 0, 49, 107
2, 69512, Note_on_c, 0, 58, 73
2, 69545, Note_on_c, 0, 63, 73
2, 69577, Note_on_c, 0, 67, 73
2, 69600, Note_on_c, 0, 49, 0
2, 69600, Note_on_c, 0, 51, 97
2, 69609, Note_on_c, 0, 70, 73
2, 69719, Note_on_c, 0, 51, 0
2, 69719, Control_c, 0, 64, 0
2, 69719, Note_on_c, 0, 37, 91
2, 69719, Note_on_c, 0, 43, 91
2, 69840, Note_on_c, 0, 43, 0
2, 69840, Note_on_c, 0, 37, 0
2, 69840, Note_on_c, 0, 49, 0
2, 69840, Control_c, 0, 64, 127
2, 69840, Note_on_c, 0, 48, 82
2, 69840, Note_on_c, 0, 48, 99
2, 69960, Note_on_c, 0, 48, 0
2, 69960, Note_on_c, 0, 51, 74
2, 70079, Note_on_c, 0, 51, 0
2, 70079, Control_c, 0, 64, 0
2, 70079, Note_on_c, 0, 37, 66
2, 70079, Note_on_c, 0, 43, 66
2, 70200, Note_on_c, 0, 43, 0
2, 70200, Note_on_c, 0, 63, 0
2, 70200, Note_on_c, 0, 67, 0
2, 70200, Note_on_c, 0, 70, 0
2, 70200, Note_on_c, 0, 58, 0
2, 70200, Note_on_c, 0, 55, 0
2, 70200, Note_on_c, 0, 48, 0
2, 70200, Note_on_c, 0, 37, 0
2, 70200, Note_on_c, 0, 52, 71
2, 70200, Note_on_c, 0, 56, 71
2, 70200, Note_on_c, 0, 61, 71
2, 70200, Note_on_c, 0, 64, 71
2, 70200, Control_c, 0, 64, 127
2, 70200, Note_on_c, 0, 49, 70
2, 70200, Note_on_c, 0, 49, 77
2, 70320, Note_on_c, 0, 49, 0
2, 70320, Note_on_c, 0, 52, 69
2, 70439, Note_on_c, 0, 52, 0
2, 70439, Control_c, 0, 64, 0
2, 70439, Note_on_c, 0, 37, 58
2, 70560, Note_on_c, 0, 37, 0
2, 70560, Note_on_c, 0, 49, 0
2, 70560, Note_on_c, 0, 44, 73
2, 70560, Control_c, 0, 64, 127
2, 70560, Note_on_c, 0, 48, 69
2, 70560, Note_on_c, 0, 48, 77
2, 70680, Note_on_c, 0, 48, 0
2, 70680, Note_on_c, 0, 52, 66
2, 70799, Note_on_c, 0, 52, 0
2, 70799, Control_c, 0, 64, 0
2, 70799, Note_on_c, 0, 37, 58
2, 70877, Note_on_c, 0, 44, 0
2, 70920, Note_on_c, 0, 48, 0
2, 70920, Note_on_c, 0, 37, 0
2, 70920, Note_on_c, 0, 25, 65
2, 70920, Control_c, 0, 64, 127
2, 70920, Note_on_c, 0, 49, 73
2, 70920, Note_on_c, 0, 49, 77
2, 71040, Note_on_c, 0, 49, 0
2, 71040, Note_on_c, 0, 52, 70
2, 71159, Note_on_c, 0, 52, 0
2, 71159, Control_c, 0, 64, 0
2, 71159, Note_on_c, 0, 37, 59
2, 71237, Note_on_c, 0, 25, 0
2, 71280, Note_on_c, 0, 52, 0
2, 71280, Note_on_c, 0, 64, 0
2, 71280, Note_on_c, 0, 61, 0
2, 71280, Note_on_c, 0, 56, 0
2, 71280, Note_on_c, 0, 37, 0
2, 71280, Note_on_c, 0, 49, 0
2, 71280, Control_c, 0, 64, 127
2, 71280, Note_on_c, 0, 44, 65
2, 71280, Note_on_c, 0, 44, 75
2, 71400, Note_on_c, 0, 44, 0
2, 71400, Note_on_c, 0, 52, 74
2, 71519, Note_on_c, 0, 52, 0
2, 71519, Control_c, 0, 64, 0
2, 71519, Note_on_c, 0, 37, 82
2, 71640, Note_on_c, 0, 37, 0
2, 71640, Note_on_c, 0, 44, 0
2, 71640, Note_on_c, 0, 55, 70
2, 71640, Control_c, 0, 64, 127
2, 71640, Note_on_c, 0, 49, 91
2, 71640, Note_on_c, 0, 49, 81
2, 71672, Note_on_c, 0, 59, 70
2, 71705, Note_on_c, 0, 64, 70
2, 71737, Note_on_c, 0, 67, 70
2, 71760, Note_on_c, 0, 49, 0
2, 71760, Note_on_c, 0, 52, 95
2, 71769, Note_on_c, 0, 71, 70
2, 71879, Note_on_c, 0, 52, 0
2, 71879, Control_c, 0, 64, 0
2, 71879, Note_on_c, 0, 37, 83
2, 71879, Note_on_c, 0, 43, 83
2, 72000, Note_on_c, 0, 43, 0
2, 72000, Note_on_c, 0, 55, 0
2, 72000, Note_on_c, 0, 71, 0
2, 72000, Note_on_c, 0, 67, 0
2, 72000, Note_on_c, 0, 59, 0
2, 72000, Note_on_c, 0, 64, 0
2, 72000, Note_on_c, 0, 49, 0
2, 72000, Note_on_c, 0, 37, 0
2, 72000, Note_on_c, 0, 55, 70
2, 72000, Note_on_c, 0, 58, 70
2, 72000, Note_on_c, 0, 63, 70
2, 72000, Note_on_c, 0, 67, 70
2, 72000, Control_c, 0, 64, 127
2, 72000, Note_on_c, 0, 48, 95
2, 72000, Note_on_c, 0, 48, 99
2, 72120, Note_on_c, 0, 48, 0
2, 72120, Note_on_c, 0, 51, 96
2, 72239, Note_on_c, 0, 51, 0
2, 72239, Control_c, 0, 64, 0
2, 72239, Note_on_c, 0, 37, 87
2, 72239, Note_on_c, 0, 43, 87
2, 72317, Note_on_c, 0, 58, 0
2, 72317, Note_on_c, 0, 55, 0
2, 72317, Note_on_c, 0, 63, 0
2, 72317, Note_on_c, 0, 67, 0
2, 72360, Note_on_c, 0, 48, 0
2, 72360, Note_on_c, 0, 43, 0
2, 72360, Note_on_c, 0, 37, 0
2, 72360, Note_on_c, 0, 52, 80
2, 72360, Note_on_c, 0, 56, 80
2, 72360, Note_on_c, 0, 61, 80
2, 72360, Note_on_c, 0, 64, 80
2, 72360, Control_c, 0, 64, 127
2, 72360, Note_on_c, 0, 49, 95
2, 72360, Note_on_c, 0, 49, 102
2, 72480, Note_on_c, 0, 49, 0
2, 72480, Note_on_c, 0, 52, 93
2, 72599, Note_on_c, 0, 52, 0
2, 72599, Control_c, 0, 64, 0
2, 72599, Note_on_c, 0, 37, 82
2, 72720, Note_on_c, 0, 37, 0
2, 72720, Note_on_c, 0, 49, 0
2, 72720, Note_on_c, 0, 44, 73
2, 72720, Control_c, 0, 64, 127
2, 72720, Note_on_c, 0, 48, 94
2, 72720, Note_on_c, 0, 48, 97
2, 72840, Note_on_c, 0, 48, 0
2, 72840, Note_on_c, 0, 52, 100
2, 72959, Note_on_c, 0, 52, 0
2, 72959, Control_c, 0, 64, 0
2, 72959, Note_on_c, 0, 37, 79
2, 73037, Note_on_c, 0, 44, 0
2, 73080, Note_on_c, 0, 48, 0
2, 73080, Note_on_c, 0, 37, 0
2, 73080, Note_on_c, 0, 25, 72
2, 73080, Control_c, 0, 64, 127
2, 73080, Note_on_c, 0, 49, 102
2, 73080, Note_on_c, 0, 49, 104
2, 73200, Note_on_c, 0, 49, 0
2, 73200, Note_on_c, 0, 52, 96
2, 73319, Note_on_c, 0, 52, 0
2, 73319, Control_c, 0, 64, 0
2, 73319, Note_on_c, 0, 37, 82
2, 73397, Note_on_c, 0, 25, 0
2, 73440, Note_on_c, 0, 52, 0
2, 73440, Note_on_c, 0, 64, 0
2, 73440, Note_on_c, 0, 61, 0
2, 73440, Note_on_c, 0, 56, 0
2, 73440, Note_on_c, 0, 37, 0
2, 73440, Note_on_c, 0, 49, 0
2, 73440, Control_c, 0, 64, 127
2, 73440, Note_on_c, 0, 44, 99
2, 73440, Note_on_c, 0, 44, 93
2, 73560, Note_on_c, 0, 44, 0
2, 73560, Note_on_c, 0, 52, 96
2, 73679, Note_on_c, 0, 52, 0
2, 73679, Control_c, 0, 64, 0
2, 73679, Note_on_c, 0, 37, 79
2, 73800, Note_on_c, 0, 37, 0
2, 73800, Note_on_c, 0, 44, 0
2, 73800, Note_on_c, 0, 53, 65
2, 73800, Note_on_c, 0, 53, 68
2, 73800, Control_c, 0, 64, 127
2, 73920, Note_on_c, 0, 53, 0
2, 73920, Note_on_c, 0, 61, 67
2, 73980, Control_c, 0, 64, 0
2, 73980, Note_on_c, 0, 57, 85
2, 74039, Note_on_c, 0, 61, 0
2, 74039, Note_on_c, 0, 65, 68
2, 74160, Note_on_c, 0, 65, 0
2, 74160, Note_on_c, 0, 57, 0
2, 74160, Note_on_c, 0, 53, 0
2, 74160, Note_on_c, 0, 52, 69
2, 74160, Note_on_c, 0, 52, 74
2, 74160, Control_c, 0, 64, 127
2, 74160, Note_on_c, 0, 56, 88
2, 74280, Note_on_c, 0, 52, 0
2, 74280, Note_on_c, 0, 61, 70
2, 74340, Note_on_c, 0, 56, 0
2, 74340, Control_c, 0, 64, 0
2, 74340, Note_on_c, 0, 49, 83
2, 74399, Note_on_c, 0, 61, 0
2, 74399, Note_on_c, 0, 68, 71
2, 74520, Note_on_c, 0, 68, 0
2, 74520, Note_on_c, 0, 49, 0
2, 74520, Note_on_c, 0, 52, 0
2, 74520, Note_on_c, 0, 53, 72
2, 74520, Note_on_c, 0, 53, 75
2, 74520, Control_c, 0, 64, 127
2, 74520, Note_on_c, 0, 45, 87
2, 74640, Note_on_c, 0, 53, 0
2, 74640, Note_on_c, 0, 61, 73
2, 74700, Note_on_c, 0, 45, 0
2, 74700, Control_c, 0, 64, 0
2, 74700, Note_on_c, 0, 44, 93
2, 74759, Note_on_c, 0, 61, 0
2, 74759, Note_on_c, 0, 65, 74
2, 74880, Note_on_c, 0, 65, 0
2, 74880, Note_on_c, 0, 44, 0
2, 74880, Note_on_c, 0, 53, 0
2, 74880, Note_on_c, 0, 44, 75
2, 74880, Note_on_c, 0, 44, 67
2, 74880, Control_c, 0, 64, 127
2, 74880, Note_on_c, 0, 37, 86
2, 75000, Note_on_c, 0, 44, 0
2, 75000, Note_on_c, 0, 52, 76
2, 75060, Note_on_c, 0, 37, 0
2, 75060, Control_c, 0, 64, 0
2, 75060, Note_on_c, 0, 25, 77
2, 75119, Note_on_c, 0, 52, 0
2, 75119, Note_on_c, 0, 61, 78
2, 75240, Note_on_c, 0, 61, 0
2, 75240, Note_on_c, 0, 25, 0
2, 75240, Note_on_c, 0, 44, 0
2, 75240, Note_on_c, 0, 57, 79
2, 75240, Note_on_c, 0, 57, 86
2, 75240, Control_c, 0, 64, 127
2, 75360, Note_on_c, 0, 57, 0
2, 75360, Note_on_c, 0, 65, 80
2, 75420, Control_c, 0, 64, 0
2, 75420, Note_on_c, 0, 61, 81
2, 75479, Note_on_c, 0, 65, 0
2, 75479, Note_on_c, 0, 69, 81
2, 75600, Note_on_c, 0, 69, 0
2, 75600, Note_on_c, 0, 61, 0
2, 75600, Note_on_c, 0, 57, 0
2, 75600, Note_on_c, 0, 56, 82
2, 75600, Note_on_c, 0, 56, 80
2, 75600, Control_c, 0, 64, 127
2, 75600, Note_on_c, 0, 60, 87
2, 75720, Note_on_c, 0, 56, 0
2, 75720, Note_on_c, 0, 64, 83
2, 75780, Note_on_c, 0, 60, 0
2, 75780, Control_c, 0, 64, 0
2, 75780, Note_on_c, 0, 52, 83
2, 75839, Note_on_c, 0, 64, 0
2, 75839, Note_on_c, 0, 72, 84
2, 75960, Note_on_c, 0, 72, 0
2, 75960, Note_on_c, 0, 52, 0
2, 75960, Note_on_c, 0, 56, 0
2, 75960, Note_on_c, 0, 57, 85
2, 75960, Note_on_c, 0, 57, 80
2, 75960, Control_c, 0, 64, 127
2, 75960, Note_on_c, 0, 49, 84
2, 76080, Note_on_c, 0, 57, 0
2, 76080, Note_on_c, 0, 65, 86
2, 76140, Note_on_c, 0, 49, 0
2, 76140, Control_c, 0, 64, 0
2, 76140, Note_on_c, 0, 48, 87
2, 76199, Note_on_c, 0, 65, 0
2, 76199, Note_on_c, 0, 69, 88
2, 76320, Note_on_c, 0, 69, 0
2, 76320, Note_on_c, 0, 48, 0
2, 76320, Note_on_c, 0, 57, 0
2, 76320, Note_on_c, 0, 45, 89
2, 76320, Note_on_c, 0, 45, 67
2, 76320, Control_c, 0, 64, 127
2, 76320, Note_on_c, 0, 37, 78
2, 76440, Note_on_c, 0, 45, 0
2, 76440, Note_on_c, 0, 53, 90
2, 76500, Note_on_c, 0, 37, 0
2, 76500, Control_c, 0, 64, 0
2, 76500, Note_on_c, 0, 25, 77
2, 76559, Note_on_c, 0, 53, 0
2, 76559, Note_on_c, 0, 61, 91
2, 76680, Note_on_c, 0, 61, 0
2, 76680, Note_on_c, 0, 25, 0
2, 76680, Note_on_c, 0, 45, 0
2, 76680, Note_on_c, 0, 53, 127
2, 76680, Note_on_c, 0, 57, 127
2, 76680, Note_on_c, 0, 62, 127
2, 76680, Note_on_c, 0, 65, 127
2, 76680, Note_on_c, 0, 26, 104
2, 76680, Note_on_c, 0, 38, 104
2, 76860, Note_on_c, 0, 86, 84
2, 76860, Note_on_c, 0, 89, 84
2, 76919, Note_on_c, 0, 44, 59
2, 77040, Note_on_c, 0, 44, 0
2, 77040, Note_on_c, 0, 89, 0
2, 77040, Note_on_c, 0, 86, 0
2, 77040, Note_on_c, 0, 85, 98
2, 77040, Note_on_c, 0, 88, 98
2, 77040, Control_c, 0, 64, 127
2, 77040, Note_on_c, 0, 45, 69
2, 77160, Note_on_c, 0, 45, 0
2, 77160, Note_on_c, 0, 50, 72
2, 77198, Note_on_c, 0, 88, 0
2, 77198, Note_on_c, 0, 85, 0
2, 77220, Note_on_c, 0, 77, 75
2, 77220, Note_on_c, 0, 82, 75
2, 77279, Note_on_c, 0, 50, 0
2, 77279, Control_c, 0, 64, 0
2, 77279, Note_on_c, 0, 53, 69
2, 77313, Note_on_c, 0, 62, 0
2, 77313, Note_on_c, 0, 53, 0
2, 77313, Note_on_c, 0, 57, 0
2, 77313, Note_on_c, 0, 65, 0
2, 77400, Note_on_c, 0, 82, 0
2, 77400, Note_on_c, 0, 53, 0
2, 77400, Note_on_c, 0, 77, 0
2, 77400, Note_on_c, 0, 86, 114
2, 77400, Note_on_c, 0, 89, 114
2, 77400, Control_c, 0, 64, 127
2, 77400, Note_on_c, 0, 56, 72
2, 77520, Note_on_c, 0, 56, 0
2, 77520, Note_on_c, 0, 57, 70
2, 77558, Note_on_c, 0, 86, 0
2, 77558, Note_on_c, 0, 89, 0
2, 77580, Note_on_c, 0, 74, 72
2, 77580, Note_on_c, 0, 81, 72
2, 77629, Note_on_c, 0, 26, 0
2, 77629, Note_on_c, 0, 38, 0
2, 77639, Note_on_c, 0, 57, 0
2, 77639, Control_c, 0, 64, 0
2, 77639, Note_on_c, 0, 62, 75
2, 77760, Note_on_c, 0, 62, 0
2, 77760, Note_on_c, 0, 81, 0
2, 77760, Note_on_c, 0, 74, 0
2, 77760, Note_on_c, 0, 77, 99
2, 77760, Note_on_c, 0, 81, 99
2, 77760, Control_c, 0, 64, 127
2, 77760, Note_on_c, 0, 64, 70
2, 77880, Note_on_c, 0, 64, 0
2, 77880, Note_on_c, 0, 65, 70
2, 77918, Note_on_c, 0, 81, 0
2, 77918, Note_on_c, 0, 77, 0
2, 77940, Note_on_c, 0, 71, 83
2, 77940, Note_on_c, 0, 76, 83
2, 77999, Note_on_c, 0, 65, 0
2, 77999, Control_c, 0, 64, 0
2, 77999, Note_on_c, 0, 69, 73
2, 78120, Note_on_c, 0, 69, 0
2, 78120, Note_on_c, 0, 76, 0
2, 78120, Note_on_c, 0, 71, 0
2, 78120, Note_on_c, 0, 77, 108
2, 78120, Note_on_c, 0, 80, 108
2, 78120, Control_c, 0, 64, 127
2, 78120, Note_on_c, 0, 68, 62
2, 78240, Note_on_c, 0, 68, 0
2, 78240, Note_on_c, 0, 65, 62
2, 78278, Note_on_c, 0, 80, 0
2, 78278, Note_on_c, 0, 77, 0
2, 78300, Note_on_c, 0, 69, 77
2, 78300, Note_on_c, 0, 74, 77
2, 78359, Note_on_c, 0, 65, 0
2, 78359, Control_c, 0, 64, 0
2, 78359, Note_on_c, 0, 64, 59
2, 78480, Note_on_c, 0, 64, 0
2, 78480, Note_on_c, 0, 74, 0
2, 78480, Note_on_c, 0, 69, 0
2, 78480, Note_on_c, 0, 77, 117
2, 78480, Note_on_c, 0, 81, 117
2, 78480, Control_c, 0, 64, 127
2, 78480, Note_on_c, 0, 65, 65
2, 78600, Note_on_c, 0, 65, 0
2, 78600, Note_on_c, 0, 64, 67
2, 78638, Note_on_c, 0, 81, 0
2, 78638, Note_on_c, 0, 77, 0
2, 78660, Note_on_c, 0, 68, 72
2, 78660, Note_on_c, 0, 72, 72
2, 78719, Note_on_c, 0, 64, 0
2, 78719, Control_c, 0, 64, 0
2, 78719, Note_on_c, 0, 62, 63
2, 78840, Note_on_c, 0, 62, 0
2, 78840, Note_on_c, 0, 72, 0
2, 78840, Note_on_c, 0, 68, 0
2, 78840, Note_on_c, 0, 74, 91
2, 78840, Note_on_c, 0, 77, 91
2, 78840, Control_c, 0, 64, 127
2, 78840, Note_on_c, 0, 60, 60
2, 78960, Note_on_c, 0, 60, 0
2, 78960, Note_on_c, 0, 59, 65
2, 79020, Note_on_c, 0, 77, 0
2, 79020, Note_on_c, 0, 74, 0
2, 79020, Note_on_c, 0, 65, 88
2, 79020, Note_on_c, 0, 70, 88
2, 79079, Note_on_c, 0, 59, 0
2, 79079, Control_c, 0, 64, 0
2, 79079, Note_on_c, 0, 58, 64
2, 79200, Note_on_c, 0, 58, 0
2, 79200, Note_on_c, 0, 70, 0
2, 79200, Note_on_c, 0, 65, 0
2, 79200, Note_on_c, 0, 73, 85
2, 79200, Note_on_c, 0, 76, 85
2, 79200, Control_c, 0, 64, 127
2, 79200, Note_on_c, 0, 57, 65
2, 79320, Note_on_c, 0, 57, 0
2, 79320, Note_on_c, 0, 56, 67
2, 79380, Note_on_c, 0, 76, 0
2, 79380, Note_on_c, 0, 73, 0
2, 79380, Note_on_c, 0, 64, 83
2, 79380, Note_on_c, 0, 69, 83
2, 79439, Note_on_c, 0, 56, 0
2, 79439, Control_c, 0, 64, 0
2, 79439, Note_on_c, 0, 55, 63
2, 79560, Note_on_c, 0, 55, 0
2, 79560, Note_on_c, 0, 69, 0
2, 79560, Note_on_c, 0, 64, 0
2, 79560, Note_on_c, 0, 74, 80
2, 79560, Note_on_c, 0, 77, 80
2, 79560, Control_c, 0, 64, 127
2, 79560, Note_on_c, 0, 53, 61
2, 79680, Note_on_c, 0, 53, 0
2, 79680, Note_on_c, 0, 52, 61
2, 79740, Note_on_c, 0, 77, 0
2, 79740, Note_on_c, 0, 74, 0
2, 79740, Note_on_c, 0, 62, 77
2, 79740, Note_on_c, 0, 68, 77
2, 79799, Note_on_c, 0, 52, 0
2, 79799, Control_c, 0, 64, 0
2, 79799, Note_on_c, 0, 51, 61
2, 79920, Note_on_c, 0, 51, 0
2, 79920, Note_on_c, 0, 68, 0
2, 79920, Note_on_c, 0, 62, 0
2, 79920, Note_on_c, 0, 65, 75
2, 79920, Note_on_c, 0, 69, 75
2, 79920, Control_c, 0, 64, 127
2, 79920, Note_on_c, 0, 50, 64
2, 80040, Note_on_c, 0, 50, 0
2, 80040, Note_on_c, 0, 49, 65
2, 80100, Note_on_c, 0, 69, 0
2, 80100, Note_on_c, 0, 65, 0
2, 80100, Note_on_c, 0, 59, 72
2, 80100, Note_on_c, 0, 64, 72
2, 80159, Note_on_c, 0, 49, 0
2, 80159, Control_c, 0, 64, 0
2, 80159, Note_on_c, 0, 48, 67
2, 80280, Note_on_c, 0, 48, 0
2, 80280, Note_on_c, 0, 64, 0
2, 80280, Note_on_c, 0, 59, 0
2, 80280, Note_on_c, 0, 65, 69
2, 80280, Note_on_c, 0, 68, 69
2, 80280, Control_c, 0, 64, 127
2, 80280, Note_on_c, 0, 47, 65
2, 80400, Note_on_c, 0, 47, 0
2, 80400, Note_on_c, 0, 46, 66
2, 80460, Note_on_c, 0, 68, 0
2, 80460, Note_on_c, 0, 65, 0
2, 80460, Note_on_c, 0, 57, 66
2, 80460, Note_on_c, 0, 62, 66
2, 80519, Note_on_c, 0, 46, 0
2, 80519, Control_c, 0, 64, 0
2, 80519, Note_on_c, 0, 45, 60
2, 80640, Note_on_c, 0, 62, 0
2, 80640, Note_on_c, 0, 57, 0
2, 80640, Note_on_c, 0, 65, 77
2, 80640, Note_on_c, 0, 69, 77
2, 80640, Note_on_c, 0, 38, 68
2, 80820, Note_on_c, 0, 69, 0
2, 80820, Note_on_c, 0, 65, 0
2, 80820, Note_on_c, 0, 53, 56
2, 80820, Note_on_c, 0, 57, 56
2, 81000, Note_on_c, 0, 57, 0
2, 81000, Note_on_c, 0, 38, 0
2, 81000, Note_on_c, 0, 45, 0
2, 81000, Note_on_c, 0, 53, 0
2, 81000, Control_c, 0, 64, 127
2, 81000, Note_on_c, 0, 50, 52
2, 81000, Note_on_c, 0, 50, 112
2, 81120, Note_on_c, 0, 50, 0
2, 81120, Note_on_c, 0, 38, 51
2, 81239, Note_on_c, 0, 38, 0
2, 81239, Control_c, 0, 64, 0
2, 81239, Note_on_c, 0, 53, 60
2, 81360, Note_on_c, 0, 53, 0
2, 81360, Note_on_c, 0, 50, 0
2, 81360, Control_c, 0, 64, 127
2, 81360, Note_on_c, 0, 49, 52
2, 81360, Note_on_c, 0, 49, 101
2, 81480, Note_on_c, 0, 49, 0
2, 81480, Note_on_c, 0, 57, 59
2, 81599, Note_on_c, 0, 57, 0
2, 81599, Control_c, 0, 64, 0
2, 81599, Note_on_c, 0, 45, 47
2, 81720, Note_on_c, 0, 45, 0
2, 81720, Note_on_c, 0, 49, 0
2, 81720, Control_c, 0, 64, 127
2, 81720, Note_on_c, 0, 50, 59
2, 81720, Note_on_c, 0, 50, 107
2, 81840, Note_on_c, 0, 50, 0
2, 81840, Note_on_c, 0, 53, 55
2, 81959, Note_on_c, 0, 53, 0
2, 81959, Control_c, 0, 64, 0
2, 81959, Note_on_c, 0, 38, 44
2, 82080, Note_on_c, 0, 38, 0
2, 82080, Note_on_c, 0, 50, 0
2, 82080, Control_c, 0, 64, 127
2, 82080, Note_on_c, 0, 45, 53
2, 82080, Note_on_c, 0, 45, 91
2, 82200, Note_on_c, 0, 45, 0
2, 82200, Note_on_c, 0, 50, 57
2, 82319, Note_on_c, 0, 50, 0
2, 82319, Control_c, 0, 64, 0
2, 82319, Note_on_c, 0, 38, 47
2, 82440, Note_on_c, 0, 38, 0
2, 82440, Note_on_c, 0, 45, 0
2, 82440, Note_on_c, 0, 65, 85
2, 82440, Note_on_c, 0, 67, 85
2, 82440, Note_on_c, 0, 71, 85
2, 82440, Note_on_c, 0, 74, 85
2, 82440, Note_on_c, 0, 77, 85
2, 82440, Control_c, 0, 64, 127
2, 82440, Note_on_c, 0, 53, 58
2, 82440, Note_on_c, 0, 53, 106
2, 82560, Note_on_c, 0, 53, 0
2, 82560, Note_on_c, 0, 43, 51
2, 82679, Note_on_c, 0, 43, 0
2, 82679, Control_c, 0, 64, 0
2, 82679, Note_on_c, 0, 47, 60
2, 82800, Note_on_c, 0, 47, 0
2, 82800, Note_on_c, 0, 53, 0
2, 82800, Control_c, 0, 64, 127
2, 82800, Note_on_c, 0, 52, 56
2, 82800, Note_on_c, 0, 52, 101
2, 82920, Note_on_c, 0, 52, 0
2, 82920, Note_on_c, 0, 44, 50
2, 83039, Note_on_c, 0, 44, 0
2, 83039, Control_c, 0, 64, 0
2, 83039, Note_on_c, 0, 47, 59
2, 83160, Note_on_c, 0, 47, 0
2, 83160, Note_on_c, 0, 52, 0
2, 83160, Control_c, 0, 64, 127
2, 83160, Note_on_c, 0, 53, 56
2, 83160, Note_on_c, 0, 53, 107
2, 83280, Note_on_c, 0, 53, 0
2, 83280, Note_on_c, 0, 43, 50
2, 83399, Note_on_c, 0, 43, 0
2, 83399, Control_c, 0, 64, 0
2, 83399, Note_on_c, 0, 38, 53
2, 83520, Note_on_c, 0, 38, 0
2, 83520, Note_on_c, 0, 53, 0
2, 83520, Control_c, 0, 64, 127
2, 83520, Note_on_c, 0, 47, 59
2, 83520, Note_on_c, 0, 47, 93
2, 83640, Note_on_c, 0, 47, 0
2, 83640, Note_on_c, 0, 38, 56
2, 83759, Note_on_c, 0, 38, 0
2, 83759, Control_c, 0, 64, 0
2, 83759, Note_on_c, 0, 53, 65
2, 83880, Note_on_c, 0, 53, 0
2, 83880, Note_on_c, 0, 47, 0
2, 83880, Control_c, 0, 64, 127
2, 83880, Note_on_c, 0, 55, 55
2, 83880, Note_on_c, 0, 55, 108
2, 84000, Note_on_c, 0, 55, 0
2, 84000, Note_on_c, 0, 59, 64
2, 84119, Note_on_c, 0, 59, 0
2, 84119, Control_c, 0, 64, 0
2, 84119, Note_on_c, 0, 50, 72
2, 84240, Note_on_c, 0, 50, 0
2, 84240, Note_on_c, 0, 77, 0
2, 84240, Note_on_c, 0, 67, 0
2, 84240, Note_on_c, 0, 71, 0
2, 84240, Note_on_c, 0, 65, 0
2, 84240, Note_on_c, 0, 55, 0
2, 84240, Note_on_c, 0, 74, 0
2, 84240, Note_on_c, 0, 59, 73
2, 84240, Note_on_c, 0, 65, 73
2, 84240, Note_on_c, 0, 67, 73
2, 84240, Note_on_c, 0, 71, 73
2, 84240, Control_c, 0, 64, 127
2, 84240, Note_on_c, 0, 54, 81
2, 84240, Note_on_c, 0, 54, 99
2, 84360, Note_on_c, 0, 54, 0
2, 84360, Note_on_c, 0, 62, 93
2, 84479, Note_on_c, 0, 62, 0
2, 84479, Control_c, 0, 64, 0
2, 84479, Note_on_c, 0, 53, 75
2, 84600, Note_on_c, 0, 53, 0
2, 84600, Note_on_c, 0, 54, 0
2, 84600, Control_c, 0, 64, 127
2, 84600, Note_on_c, 0, 55, 75
2, 84600, Note_on_c, 0, 55, 127
2, 84720, Note_on_c, 0, 55, 0
2, 84720, Note_on_c, 0, 59, 84
2, 84839, Note_on_c, 0, 59, 0
2, 84839, Control_c, 0, 64, 0
2, 84839, Note_on_c, 0, 38, 72
2, 84960, Note_on_c, 0, 38, 0
2, 84960, Note_on_c, 0, 55, 0
2, 84960, Control_c, 0, 64, 127
2, 84960, Note_on_c, 0, 43, 81
2, 84960, Note_on_c, 0, 43, 113
2, 85080, Note_on_c, 0, 43, 0
2, 85080, Note_on_c, 0, 53, 68
2, 85189, Note_on_c, 0, 71, 0
2, 85189, Note_on_c, 0, 65, 0
2, 85189, Note_on_c, 0, 67, 0
2, 85189, Note_on_c, 0, 59, 0
2, 85199, Note_on_c, 0, 53, 0
2, 85199, Control_c, 0, 64, 0
2, 85199, Note_on_c, 0, 38, 55
2, 85320, Note_on_c, 0, 38, 0
2, 85320, Note_on_c, 0, 43, 0
2, 85320, Note_on_c, 0, 55, 80
2, 85320, Note_on_c, 0, 59, 80
2, 85320, Note_on_c, 0, 64, 80
2, 85320, Note_on_c, 0, 67, 80
2, 85320, Control_c, 0, 64, 127
2, 85320, Note_on_c, 0, 52, 60
2, 85320, Note_on_c, 0, 52, 110
2, 85440, Note_on_c, 0, 52, 0
2, 85440, Note_on_c, 0, 40, 48
2, 85559, Note_on_c, 0, 40, 0
2, 85559, Control_c, 0, 64, 0
2, 85559, Note_on_c, 0, 55, 60
2, 85680, Note_on_c, 0, 52, 0
2, 85680, Note_on_c, 0, 55, 0
2, 85680, Control_c, 0, 64, 127
2, 85680, Note_on_c, 0, 51, 52
2, 85680, Note_on_c, 0, 51, 100
2, 85800, Note_on_c, 0, 51, 0
2, 85800, Note_on_c, 0, 59, 59
2, 85919, Note_on_c, 0, 59, 0
2, 85919, Control_c, 0, 64, 0
2, 85919, Note_on_c, 0, 47, 46
2, 86040, Note_on_c, 0, 47, 0
2, 86040, Note_on_c, 0, 51, 0
2, 86040, Note_on_c, 0, 28, 75
2, 86040, Control_c, 0, 64, 127
2, 86040, Note_on_c, 0, 52, 58
2, 86040, Note_on_c, 0, 52, 99
2, 86160, Note_on_c, 0, 52, 0
2, 86160, Note_on_c, 0, 55, 58
2, 86279, Note_on_c, 0, 55, 0
2, 86279, Control_c, 0, 64, 0
2, 86279, Note_on_c, 0, 40, 49
2, 86357, Note_on_c, 0, 28, 0
2, 86400, Note_on_c, 0, 55, 0
2, 86400, Note_on_c, 0, 59, 0
2, 86400, Note_on_c, 0, 64, 0
2, 86400, Note_on_c, 0, 67, 0
2, 86400, Note_on_c, 0, 40, 0
2, 86400, Note_on_c, 0, 52, 0
2, 86400, Control_c, 0, 64, 127
2, 86400, Note_on_c, 0, 47, 56
2, 86400, Note_on_c, 0, 47, 96
2, 86520, Note_on_c, 0, 47, 0
2, 86520, Note_on_c, 0, 52, 60
2, 86639, Note_on_c, 0, 52, 0
2, 86639, Control_c, 0, 64, 0
2, 86639, Note_on_c, 0, 40, 50
2, 86760, Note_on_c, 0, 40, 0
2, 86760, Note_on_c, 0, 47, 0
2, 86760, Control_c, 0, 64, 127
2, 86760, Note_on_c, 0, 55, 61
2, 86760, Note_on_c, 0, 55, 109
2, 86880, Note_on_c, 0, 55, 0
2, 86880, Note_on_c, 0, 45, 50
2, 86940, Note_on_c, 0, 79, 79
2, 86940, Note_on_c, 0, 82, 79
2, 86940, Control_c, 0, 64, 0
2, 86999, Note_on_c, 0, 45, 0
2, 86999, Note_on_c, 0, 49, 56
2, 87120, Note_on_c, 0, 49, 0
2, 87120, Note_on_c, 0, 82, 0
2, 87120, Note_on_c, 0, 79, 0
2, 87120, Note_on_c, 0, 55, 0
2, 87120, Note_on_c, 0, 78, 82
2, 87120, Note_on_c, 0, 81, 82
2, 87120, Control_c, 0, 64, 127
2, 87120, Note_on_c, 0, 53, 58
2, 87120, Note_on_c, 0, 54, 100
2, 87240, Note_on_c, 0, 53, 0
2, 87240, Note_on_c, 0, 46, 60
2, 87300, Note_on_c, 0, 78, 0
2, 87300, Note_on_c, 0, 81, 0
2, 87300, Note_on_c, 0, 77, 90
2, 87300, Note_on_c, 0, 80, 90
2, 87359, Note_on_c, 0, 46, 0
2, 87359, Control_c, 0, 64, 0
2, 87359, Note_on_c, 0, 50, 62
2, 87480, Note_on_c, 0, 50, 0
2, 87480, Note_on_c, 0, 80, 0
2, 87480, Note_on_c, 0, 77, 0
2, 87480, Note_on_c, 0, 54, 0
2, 87480, Note_on_c, 0, 76, 84
2, 87480, Note_on_c, 0, 79, 84
2, 87480, Control_c, 0, 64, 127
2, 87480, Note_on_c, 0, 55, 64
2, 87480, Note_on_c, 0, 55, 103
2, 87600, Note_on_c, 0, 55, 0
2, 87600, Note_on_c, 0, 45, 66
2, 87660, Note_on_c, 0, 76, 0
2, 87660, Note_on_c, 0, 79, 0
2, 87660, Note_on_c, 0, 67, 67
2, 87660, Note_on_c, 0, 70, 67
2, 87719, Note_on_c, 0, 45, 0
2, 87719, Control_c, 0, 64, 0
2, 87719, Note_on_c, 0, 40, 68
2, 87840, Note_on_c, 0, 40, 0
2, 87840, Note_on_c, 0, 70, 0
2, 87840, Note_on_c, 0, 67, 0
2, 87840, Note_on_c, 0, 55, 0
2, 87840, Control_c, 0, 64, 127
2, 87840, Note_on_c, 0, 49, 71
2, 87840, Note_on_c, 0, 49, 96
2, 87960, Note_on_c, 0, 49, 0
2, 87960, Note_on_c, 0, 40, 73
2, 88079, Note_on_c, 0, 40, 0
2, 88079, Control_c, 0, 64, 0
2, 88079, Note_on_c, 0, 55, 75
2, 88200, Note_on_c, 0, 55, 0
2, 88200, Note_on_c, 0, 49, 0
2, 88200, Control_c, 0, 64, 127
2, 88200, Note_on_c, 0, 57, 77
2, 88200, Note_on_c, 0, 57, 113
2, 88320, Note_on_c, 0, 57, 0
2, 88320, Note_on_c, 0, 61, 79
2, 88439, Note_on_c, 0, 61, 0
2, 88439, Control_c, 0, 64, 0
2, 88439, Note_on_c, 0, 52, 81
2, 88560, Note_on_c, 0, 52, 0
2, 88560, Note_on_c, 0, 57, 0
2, 88560, Note_on_c, 0, 61, 110
2, 88560, Note_on_c, 0, 67, 110
2, 88560, Note_on_c, 0, 69, 110
2, 88560, Note_on_c, 0, 73, 110
2, 88560, Control_c, 0, 64, 127
2, 88560, Note_on_c, 0, 56, 82
2, 88560, Note_on_c, 0, 56, 120
2, 88680, Note_on_c, 0, 56, 0
2, 88680, Note_on_c, 0, 64, 96
2, 88799, Note_on_c, 0, 64, 0
2, 88799, Control_c, 0, 64, 0
2, 88799, Note_on_c, 0, 55, 75
2, 88920, Note_on_c, 0, 55, 0
2, 88920, Note_on_c, 0, 56, 0
2, 88920, Control_c, 0, 64, 127
2, 88920, Note_on_c, 0, 57, 77
2, 88920, Note_on_c, 0, 57, 127
2, 89040, Note_on_c, 0, 57, 0
2, 89040, Note_on_c, 0, 61, 90
2, 89159, Note_on_c, 0, 61, 0
2, 89159, Control_c, 0, 64, 0
2, 89159, Note_on_c, 0, 40, 75
2, 89280, Note_on_c, 0, 40, 0
2, 89280, Note_on_c, 0, 57, 0
2, 89280, Control_c, 0, 64, 127
2, 89280, Note_on_c, 0, 45, 82
2, 89280, Note_on_c, 0, 45, 111
2, 89400, Note_on_c, 0, 45, 0
2, 89400, Note_on_c, 0, 55, 91
2, 89519, Note_on_c, 0, 55, 0
2, 89519, Control_c, 0, 64, 0
2, 89519, Note_on_c, 0, 40, 74
2, 89640, Note_on_c, 0, 40, 0
2, 89640, Note_on_c, 0, 61, 0
2, 89640, Note_on_c, 0, 69, 0
2, 89640, Note_on_c, 0, 67, 0
2, 89640, Note_on_c, 0, 45, 0
2, 89640, Note_on_c, 0, 73, 0
2, 89640, Note_on_c, 0, 57, 108
2, 89640, Note_on_c, 0, 61, 108
2, 89640, Note_on_c, 0, 66, 108
2, 89640, Note_on_c, 0, 69, 108
2, 89640, Control_c, 0, 64, 127
2, 89640, Note_on_c, 0, 54, 90
2, 89640, Note_on_c, 0, 54, 111
2, 89760, Note_on_c, 0, 54, 0
2, 89760, Note_on_c, 0, 42, 71
2, 89879, Note_on_c, 0, 42, 0
2, 89879, Control_c, 0, 64, 0
2, 89879, Note_on_c, 0, 57, 90
2, 90000, Note_on_c, 0, 54, 0
2, 90000, Note_on_c, 0, 57, 0
2, 90000, Control_c, 0, 64, 127
2, 90000, Note_on_c, 0, 53, 75
2, 90000, Note_on_c, 0, 53, 103
2, 90120, Note_on_c, 0, 53, 0
2, 90120, Note_on_c, 0, 93, 94
2, 90120, Note_on_c, 0, 61, 104
2, 90239, Note_on_c, 0, 93, 0
2, 90239, Note_on_c, 0, 61, 0
2, 90239, Note_on_c, 0, 84, 73
2, 90239, Control_c, 0, 64, 0
2, 90239, Note_on_c, 0, 49, 69
2, 90360, Note_on_c, 0, 49, 0
2, 90360, Note_on_c, 0, 53, 0
2, 90360, Note_on_c, 0, 84, 0
2, 90360, Note_on_c, 0, 83, 97
2, 90360, Control_c, 0, 64, 127
2, 90360, Note_on_c, 0, 54, 84
2, 90360, Note_on_c, 0, 54, 107
2, 90480, Note_on_c, 0, 54, 0
2, 90480, Note_on_c, 0, 83, 0
2, 90480, Note_on_c, 0, 90, 118
2, 90480, Note_on_c, 0, 57, 80
2, 90589, Note_on_c, 0, 66, 0
2, 90589, Note_on_c, 0, 69, 0
2, 90589, Note_on_c, 0, 57, 0
2, 90589, Note_on_c, 0, 61, 0
2, 90599, Note_on_c, 0, 90, 0
2, 90599, Note_on_c, 0, 57, 0
2, 90599, Note_on_c, 0, 82, 88
2, 90599, Control_c, 0, 64, 0
2, 90599, Note_on_c, 0, 42, 77
2, 90720, Note_on_c, 0, 42, 0
2, 90720, Note_on_c, 0, 82, 0
2, 90720, Note_on_c, 0, 54, 0
2, 90720, Note_on_c, 0, 81, 96
2, 90720, Control_c, 0, 64, 127
2, 90720, Note_on_c, 0, 49, 89
2, 90720, Note_on_c, 0, 49, 99
2, 90840, Note_on_c, 0, 49, 0
2, 90840, Note_on_c, 0, 81, 0
2, 90840, Note_on_c, 0, 85, 111
2, 90840, Note_on_c, 0, 57, 87
2, 90959, Note_on_c, 0, 57, 0
2, 90959, Note_on_c, 0, 85, 0
2, 90959, Note_on_c, 0, 73, 75
2, 90959, Control_c, 0, 64, 0
2, 90959, Note_on_c, 0, 42, 72
2, 91080, Note_on_c, 0, 42, 0
2, 91080, Note_on_c, 0, 73, 0
2, 91080, Note_on_c, 0, 49, 0
2, 91080, Control_c, 0, 64, 127
2, 91080, Note_on_c, 0, 63, 81
2, 91080, Note_on_c, 0, 63, 127
2, 91200, Note_on_c, 0, 63, 0
2, 91200, Note_on_c, 0, 73, 95
2, 91200, Note_on_c, 0, 57, 79
2, 91319, Note_on_c, 0, 57, 0
2, 91319, Note_on_c, 0, 73, 0
2, 91319, Note_on_c, 0, 72, 99
2, 91319, Control_c, 0, 64, 0
2, 91319, Note_on_c, 0, 54, 78
2, 91440, Note_on_c, 0, 54, 0
2, 91440, Note_on_c, 0, 72, 0
2, 91440, Note_on_c, 0, 63, 0
2, 91440, Note_on_c, 0, 71, 95
2, 91440, Control_c, 0, 64, 127
2, 91440, Note_on_c, 0, 62, 77
2, 91440, Note_on_c, 0, 62, 101
2, 91560, Note_on_c, 0, 62, 0
2, 91560, Note_on_c, 0, 71, 0
2, 91560, Note_on_c, 0, 78, 120
2, 91560, Note_on_c, 0, 54, 76
2, 91679, Note_on_c, 0, 54, 0
2, 91679, Note_on_c, 0, 78, 0
2, 91679, Note_on_c, 0, 70, 85
2, 91679, Control_c, 0, 64, 0
2, 91679, Note_on_c, 0, 49, 75
2, 91800, Note_on_c, 0, 49, 0
2, 91800, Note_on_c, 0, 70, 0
2, 91800, Note_on_c, 0, 62, 0
2, 91800, Note_on_c, 0, 69, 93
2, 91800, Control_c, 0, 64, 127
2, 91800, Note_on_c, 0, 63, 73
2, 91800, Note_on_c, 0, 63, 105
2, 91920, Note_on_c, 0, 63, 0
2, 91920, Note_on_c, 0, 69, 0
2, 91920, Note_on_c, 0, 72, 110
2, 91920, Note_on_c, 0, 57, 72
2, 92039, Note_on_c, 0, 57, 0
2, 92039, Note_on_c, 0, 72, 0
2, 92039, Note_on_c, 0, 60, 77
2, 92039, Control_c, 0, 64, 0
2, 92039, Note_on_c, 0, 54, 71
2, 92160, Note_on_c, 0, 54, 0
2, 92160, Note_on_c, 0, 60, 0
2, 92160, Note_on_c, 0, 63, 0
2, 92160, Control_c, 0, 64, 127
2, 92160, Note_on_c, 0, 51, 70
2, 92160, Note_on_c, 0, 51, 89
2, 92280, Note_on_c, 0, 51, 0
2, 92280, Note_on_c, 0, 57, 69
2, 92399, Note_on_c, 0, 57, 0
2, 92399, Control_c, 0, 64, 0
2, 92399, Note_on_c, 0, 42, 67
2, 92520, Note_on_c, 0, 42, 0
2, 92520, Note_on_c, 0, 51, 0
2, 92520, Control_c, 0, 64, 127
2, 92520, Note_on_c, 0, 57, 66
2, 92520, Note_on_c, 0, 57, 107
2, 92640, Note_on_c, 0, 57, 0
2, 92640, Note_on_c, 0, 60, 95
2, 92640, Note_on_c, 0, 51, 65
2, 92759, Note_on_c, 0, 51, 0
2, 92759, Note_on_c, 0, 60, 0
2, 92759, Note_on_c, 0, 59, 99
2, 92759, Control_c, 0, 64, 0
2, 92759, Note_on_c, 0, 50, 64
2, 92880, Note_on_c, 0, 50, 0
2, 92880, Note_on_c, 0, 59, 0
2, 92880, Note_on_c, 0, 57, 0
2, 92880, Note_on_c, 0, 60, 109
2, 92880, Control_c, 0, 64, 127
2, 92880, Note_on_c, 0, 56, 63
2, 92880, Note_on_c, 0, 56, 104
2, 93000, Note_on_c, 0, 56, 0
2, 93000, Note_on_c, 0, 60, 0
2, 93000, Note_on_c, 0, 66, 116
2, 93000, Note_on_c, 0, 51, 61
2, 93119, Note_on_c, 0, 51, 0
2, 93119, Note_on_c, 0, 66, 0
2, 93119, Note_on_c, 0, 54, 91
2, 93119, Control_c, 0, 64, 0
2, 93119, Note_on_c, 0, 42, 60
2, 93240, Note_on_c, 0, 42, 0
2, 93240, Note_on_c, 0, 54, 0
2, 93240, Note_on_c, 0, 56, 0
2, 93240, Control_c, 0, 64, 127
2, 93240, Note_on_c, 0, 57, 59
2, 93240, Note_on_c, 0, 57, 102
2, 93360, Note_on_c, 0, 57, 0
2, 93360, Note_on_c, 0, 52, 58
2, 93479, Note_on_c, 0, 52, 0
2, 93479, Control_c, 0, 64, 0
2, 93479, Note_on_c, 0, 51, 57
2, 93600, Note_on_c, 0, 51, 0
2, 93600, Note_on_c, 0, 57, 0
2, 93600, Control_c, 0, 64, 127
2, 93600, Note_on_c, 0, 47, 55
2, 93600, Note_on_c, 0, 47, 87
2, 93720, Note_on_c, 0, 47, 0
2, 93720, Note_on_c, 0, 57, 62
2, 93839, Note_on_c, 0, 57, 0
2, 93839, Control_c, 0, 64, 0
2, 93839, Note_on_c, 0, 63, 65
2, 93960, Note_on_c, 0, 63, 0
2, 93960, Note_on_c, 0, 47, 0
2, 93960, Note_on_c, 0, 64, 62
2, 93960, Note_on_c, 0, 64, 78
2, 93960, Control_c, 0, 64, 127
2, 93960, Note_on_c, 0, 40, 62
2, 93960, Note_on_c, 0, 47, 62
2, 93960, Note_on_c, 0, 56, 62
2, 94080, Note_on_c, 0, 64, 0
2, 94080, Note_on_c, 0, 68, 70
2, 94199, Note_on_c, 0, 68, 0
2, 94199, Note_on_c, 0, 71, 73
2, 94320, Note_on_c, 0, 71, 0
2, 94320, Note_on_c, 0, 47, 0
2, 94320, Note_on_c, 0, 64, 0
2, 94320, Note_on_c, 0, 40, 0
2, 94320, Note_on_c, 0, 56, 0
2, 94320, Control_c, 0, 64, 0
2, 94320, Control_c, 0, 64, 127
2, 94320, Note_on_c, 0, 63, 53
2, 94320, Note_on_c, 0, 63, 61
2, 94440, Note_on_c, 0, 63, 0
2, 94440, Note_on_c, 0, 68, 52
2, 94559, Note_on_c, 0, 68, 0
2, 94559, Control_c, 0, 64, 0
2, 94559, Note_on_c, 0, 71, 55
2, 94680, Note_on_c, 0, 71, 0
2, 94680, Note_on_c, 0, 63, 0
2, 94680, Control_c, 0, 64, 127
2, 94680, Note_on_c, 0, 64, 38
2, 94680, Note_on_c, 0, 64, 51
2, 94800, Note_on_c, 0, 64, 0
2, 94800, Note_on_c, 0, 68, 50
2, 94919, Note_on_c, 0, 68, 0
2, 94919, Control_c, 0, 64, 0
2, 94919, Note_on_c, 0, 71, 54
2, 95040, Note_on_c, 0, 71, 0
2, 95040, Note_on_c, 0, 64, 0
2, 95040, Control_c, 0, 64, 127
2, 95040, Note_on_c, 0, 59, 45
2, 95040, Note_on_c, 0, 59, 45
2, 95160, Note_on_c, 0, 59, 0
2, 95160, Note_on_c, 0, 68, 56
2, 95279, Note_on_c, 0, 68, 0
2, 95279, Control_c, 0, 64, 0
2, 95279, Note_on_c, 0, 71, 53
2, 95400, Note_on_c, 0, 71, 0
2, 95400, Note_on_c, 0, 59, 0
2, 95400, Note_on_c, 0, 87, 65
2, 95400, Control_c, 0, 64, 127
2, 95400, Note_on_c, 0, 65, 39
2, 95400, Note_on_c, 0, 65, 53
2, 95520, Note_on_c, 0, 65, 0
2, 95520, Note_on_c, 0, 68, 51
2, 95639, Note_on_c, 0, 68, 0
2, 95639, Control_c, 0, 64, 0
2, 95639, Note_on_c, 0, 71, 49
2, 95717, Note_on_c, 0, 87, 0
2, 95760, Note_on_c, 0, 71, 0
2, 95760, Note_on_c, 0, 65, 0
2, 95760, Note_on_c, 0, 80, 52
2, 95760, Control_c, 0, 64, 127
2, 95760, Note_on_c, 0, 64, 41
2, 95760, Note_on_c, 0, 64, 44
2, 95880, Note_on_c, 0, 64, 0
2, 95880, Note_on_c, 0, 68, 55
2, 95999, Note_on_c, 0, 68, 0
2, 95999, Control_c, 0, 64, 0
2, 95999, Note_on_c, 0, 72, 52
2, 96120, Note_on_c, 0, 72, 0
2, 96120, Note_on_c, 0, 64, 0
2, 96120, Note_on_c, 0, 80, 0
2, 96120, Control_c, 0, 64, 127
2, 96120, Note_on_c, 0, 64, 40
2, 96120, Note_on_c, 0, 64, 47
2, 96240, Note_on_c, 0, 64, 0
2, 96240, Note_on_c, 0, 68, 47
2, 96359, Note_on_c, 0, 68, 0
2, 96359, Control_c, 0, 64, 0
2, 96359, Note_on_c, 0, 71, 51
2, 96480, Note_on_c, 0, 71, 0
2, 96480, Note_on_c, 0, 64, 0
2, 96480, Note_on_c, 0, 59, 80
2, 96480, Control_c, 0, 64, 127
2, 96480, Note_on_c, 0, 63, 41
2, 96480, Note_on_c, 0, 63, 51
2, 96600, Note_on_c, 0, 63, 0
2, 96600, Note_on_c, 0, 68, 56
2, 96719, Note_on_c, 0, 68, 0
2, 96719, Control_c, 0, 64, 0
2, 96719, Note_on_c, 0, 71, 48
2, 96797, Note_on_c, 0, 59, 0
2, 96840, Note_on_c, 0, 71, 0
2, 96840, Note_on_c, 0, 63, 0
2, 96840, Note_on_c, 0, 52, 68
2, 96840, Control_c, 0, 64, 127
2, 96840, Note_on_c, 0, 64, 40
2, 96840, Note_on_c, 0, 64, 49
2, 96960, Note_on_c, 0, 64, 0
2, 96960, Note_on_c, 0, 68, 55
2, 97079, Note_on_c, 0, 68, 0
2, 97079, Control_c, 0, 64, 0
2, 97079, Note_on_c, 0, 71, 48
2, 97200, Note_on_c, 0, 71, 0
2, 97200, Note_on_c, 0, 64, 0
2, 97200, Note_on_c, 0, 52, 0
2, 97200, Control_c, 0, 64, 127
2, 97200, Note_on_c, 0, 59, 38
2, 97200, Note_on_c, 0, 59, 42
2, 97320, Note_on_c, 0, 59, 0
2, 97320, Note_on_c, 0, 68, 61
2, 97439, Note_on_c, 0, 68, 0
2, 97439, Control_c, 0, 64, 0
2, 97439, Note_on_c, 0, 71, 51
2, 97560, Note_on_c, 0, 71, 0
2, 97560, Note_on_c, 0, 59, 0
2, 97560, Note_on_c, 0, 75, 79
2, 97560, Control_c, 0, 64, 127
2, 97560, Note_on_c, 0, 65, 39
2, 97560, Note_on_c, 0, 65, 54
2, 97680, Note_on_c, 0, 65, 0
2, 97680, Note_on_c, 0, 68, 50
2, 97799, Note_on_c, 0, 68, 0
2, 97799, Control_c, 0, 64, 0
2, 97799, Note_on_c, 0, 71, 48
2, 97877, Note_on_c, 0, 75, 0
2, 97920, Note_on_c, 0, 71, 0
2, 97920, Note_on_c, 0, 65, 0
2, 97920, Control_c, 0, 64, 127
2, 97920, Note_on_c, 0, 64, 38
2, 97920, Note_on_c, 0, 64, 49
2, 98040, Note_on_c, 0, 64, 0
2, 98040, Note_on_c, 0, 68, 85
2, 98159, Note_on_c, 0, 68, 0
2, 98159, Control_c, 0, 64, 0
2, 98159, Note_on_c, 0, 72, 51
2, 98280, Note_on_c, 0, 72, 0
2, 98280, Note_on_c, 0, 64, 0
2, 98280, Control_c, 0, 64, 127
2, 98280, Note_on_c, 0, 64, 39
2, 98280, Note_on_c, 0, 64, 50
2, 98400, Note_on_c, 0, 64, 0
2, 98400, Note_on_c, 0, 68, 46
2, 98519, Note_on_c, 0, 68, 0
2, 98519, Control_c, 0, 64, 0
2, 98519, Note_on_c, 0, 71, 54
2, 98640, Note_on_c, 0, 71, 0
2, 98640, Note_on_c, 0, 64, 0
2, 98640, Note_on_c, 0, 47, 66
2, 98640, Control_c, 0, 64, 127
2, 98640, Note_on_c, 0, 63, 39
2, 98640, Note_on_c, 0, 63, 48
2, 98760, Note_on_c, 0, 63, 0
2, 98760, Note_on_c, 0, 68, 54
2, 98879, Note_on_c, 0, 68, 0
2, 98879, Control_c, 0, 64, 0
2, 98879, Note_on_c, 0, 71, 53
2, 99000, Note_on_c, 0, 71, 0
2, 99000, Note_on_c, 0, 63, 0
2, 99000, Note_on_c, 0, 47, 0
2, 99000, Note_on_c, 0, 40, 70
2, 99000, Control_c, 0, 64, 127
2, 99000, Note_on_c, 0, 64, 45
2, 99000, Note_on_c, 0, 64, 51
2, 99120, Note_on_c, 0, 64, 0
2, 99120, Note_on_c, 0, 68, 51
2, 99239, Note_on_c, 0, 68, 0
2, 99239, Control_c, 0, 64, 0
2, 99239, Note_on_c, 0, 71, 50
2, 99360, Note_on_c, 0, 71, 0
2, 99360, Note_on_c, 0, 64, 0
2, 99360, Note_on_c, 0, 40, 0
2, 99360, Control_c, 0, 64, 127
2, 99360, Note_on_c, 0, 59, 43
2, 99360, Note_on_c, 0, 59, 42
2, 99480, Note_on_c, 0, 59, 0
2, 99480, Note_on_c, 0, 68, 57
2, 99599, Note_on_c, 0, 68, 0
2, 99599, Control_c, 0, 64, 0
2, 99599, Note_on_c, 0, 71, 51
2, 99720, Note_on_c, 0, 71, 0
2, 99720, Note_on_c, 0, 59, 0
2, 99720, Note_on_c, 0, 63, 82
2, 99720, Control_c, 0, 64, 127
2, 99720, Note_on_c, 0, 65, 39
2, 99720, Note_on_c, 0, 65, 56
2, 99840, Note_on_c, 0, 65, 0
2, 99840, Note_on_c, 0, 68, 54
2, 99959, Note_on_c, 0, 68, 0
2, 99959, Control_c, 0, 64, 0
2, 99959, Note_on_c, 0, 71, 47
2, 100080, Note_on_c, 0, 71, 0
2, 100080, Note_on_c, 0, 65, 0
2, 100080, Note_on_c, 0, 63, 0
2, 100080, Note_on_c, 0, 56, 78
2, 100080, Control_c, 0, 64, 127
2, 100080, Note_on_c, 0, 64, 40
2, 100080, Note_on_c, 0, 64, 45
2, 100200, Note_on_c, 0, 64, 0
2, 100200, Note_on_c, 0, 68, 53
2, 100319, Note_on_c, 0, 68, 0
2, 100319, Control_c, 0, 64, 0
2, 100319, Note_on_c, 0, 72, 51
2, 100440, Note_on_c, 0, 72, 0
2, 100440, Note_on_c, 0, 64, 0
2, 100440, Note_on_c, 0, 56, 0
2, 100440, Control_c, 0, 64, 127
2, 100440, Note_on_c, 0, 59, 45
2, 100440, Note_on_c, 0, 59, 44
2, 100560, Note_on_c, 0, 59, 0
2, 100560, Note_on_c, 0, 68, 59
2, 100679, Note_on_c, 0, 68, 0
2, 100679, Control_c, 0, 64, 0
2, 100679, Note_on_c, 0, 71, 54
2, 100800, Note_on_c, 0, 71, 0
2, 100800, Note_on_c, 0, 59, 0
2, 100800, Note_on_c, 0, 77, 91
2, 100800, Control_c, 0, 64, 127
2, 100800, Note_on_c, 0, 63, 36
2, 100800, Note_on_c, 0, 63, 55
2, 100920, Note_on_c, 0, 63, 0
2, 100920, Note_on_c, 0, 68, 56
2, 101039, Note_on_c, 0, 68, 0
2, 101039, Control_c, 0, 64, 0
2, 101039, Note_on_c, 0, 71, 54
2, 101117, Note_on_c, 0, 77, 0
2, 101160, Note_on_c, 0, 71, 0
2, 101160, Note_on_c, 0, 63, 0
2, 101160, Note_on_c, 0, 76, 84
2, 101160, Control_c, 0, 64, 127
2, 101160, Note_on_c, 0, 64, 40
2, 101160, Note_on_c, 0, 64, 51
2, 101280, Note_on_c, 0, 64, 0
2, 101280, Note_on_c, 0, 68, 51
2, 101399, Note_on_c, 0, 68, 0
2, 101399, Control_c, 0, 64, 0
2, 101399, Note_on_c, 0, 72, 55
2, 101520, Note_on_c, 0, 72, 0
2, 101520, Note_on_c, 0, 64, 0
2, 101520, Note_on_c, 0, 76, 0
2, 101520, Control_c, 0, 64, 127
2, 101520, Note_on_c, 0, 59, 43
2, 101520, Note_on_c, 0, 59, 42
2, 101640, Note_on_c, 0, 59, 0
2, 101640, Note_on_c, 0, 68, 53
2, 101759, Note_on_c, 0, 68, 0
2, 101759, Control_c, 0, 64, 0
2, 101759, Note_on_c, 0, 71, 56
2, 101880, Note_on_c, 0, 71, 0
2, 101880, Note_on_c, 0, 59, 0
2, 101880, Note_on_c, 0, 63, 77
2, 101880, Control_c, 0, 64, 127
2, 101880, Note_on_c, 0, 65, 45
2, 101880, Note_on_c, 0, 65, 54
2, 102000, Note_on_c, 0, 65, 0
2, 102000, Note_on_c, 0, 68, 51
2, 102119, Note_on_c, 0, 68, 0
2, 102119, Control_c, 0, 64, 0
2, 102119, Note_on_c, 0, 71, 50
2, 102240, Note_on_c, 0, 71, 0
2, 102240, Note_on_c, 0, 65, 0
2, 102240, Note_on_c, 0, 63, 0
2, 102240, Note_on_c, 0, 56, 78
2, 102240, Control_c, 0, 64, 127
2, 102240, Note_on_c, 0, 64, 41
2, 102240, Note_on_c, 0, 64, 51
2, 102360, Note_on_c, 0, 64, 0
2, 102360, Note_on_c, 0, 68, 49
2, 102479, Note_on_c, 0, 68, 0
2, 102479, Control_c, 0, 64, 0
2, 102479, Note_on_c, 0, 72, 48
2, 102600, Note_on_c, 0, 72, 0
2, 102600, Note_on_c, 0, 64, 0
2, 102600, Note_on_c, 0, 56, 0
2, 102600, Control_c, 0, 64, 127
2, 102600, Note_on_c, 0, 59, 42
2, 102600, Note_on_c, 0, 59, 46
2, 102720, Note_on_c, 0, 59, 0
2, 102720, Note_on_c, 0, 68, 56
2, 102839, Note_on_c, 0, 68, 0
2, 102839, Control_c, 0, 64, 0
2, 102839, Note_on_c, 0, 71, 47
2, 102960, Note_on_c, 0, 71, 0
2, 102960, Note_on_c, 0, 59, 0
2, 102960, Note_on_c, 0, 77, 97
2, 102960, Control_c, 0, 64, 127
2, 102960, Note_on_c, 0, 63, 44
2, 102960, Note_on_c, 0, 63, 54
2, 103080, Note_on_c, 0, 63, 0
2, 103080, Note_on_c, 0, 68, 52
2, 103199, Note_on_c, 0, 68, 0
2, 103199, Control_c, 0, 64, 0
2, 103199, Note_on_c, 0, 71, 50
2, 103277, Note_on_c, 0, 77, 0
2, 103320, Note_on_c, 0, 71, 0
2, 103320, Note_on_c, 0, 63, 0
2, 103320, Note_on_c, 0, 76, 78
2, 103320, Control_c, 0, 64, 127
2, 103320, Note_on_c, 0, 64, 39
2, 103320, Note_on_c, 0, 64, 53
2, 103440, Note_on_c, 0, 64, 0
2, 103440, Note_on_c, 0, 68, 49
2, 103559, Note_on_c, 0, 68, 0
2, 103559, Control_c, 0, 64, 0
2, 103559, Note_on_c, 0, 72, 54
2, 103680, Note_on_c, 0, 72, 0
2, 103680, Note_on_c, 0, 64, 0
2, 103680, Note_on_c, 0, 76, 0
2, 103680, Note_on_c, 0, 63, 92
2, 103680, Control_c, 0, 64, 127
2, 103680, Note_on_c, 0, 65, 43
2, 103680, Note_on_c, 0, 65, 46
2, 103800, Note_on_c, 0, 65, 0
2, 103800, Note_on_c, 0, 68, 48
2, 103919, Note_on_c, 0, 68, 0
2, 103919, Control_c, 0, 64, 0
2, 103919, Note_on_c, 0, 71, 46
2, 103997, Note_on_c, 0, 63, 0
2, 104040, Note_on_c, 0, 71, 0
2, 104040, Note_on_c, 0, 65, 0
2, 104040, Note_on_c, 0, 56, 81
2, 104040, Control_c, 0, 64, 127
2, 104040, Note_on_c, 0, 64, 43
2, 104040, Note_on_c, 0, 64, 44
2, 104160, Note_on_c, 0, 64, 0
2, 104160, Note_on_c, 0, 68, 50
2, 104220, Note_on_c, 0, 77, 89
2, 104279, Note_on_c, 0, 68, 0
2, 104279, Control_c, 0, 64, 0
2, 104279, Note_on_c, 0, 72, 57
2, 104378, Note_on_c, 0, 77, 0
2, 104400, Note_on_c, 0, 56, 0
2, 104400, Note_on_c, 0, 64, 0
2, 104400, Note_on_c, 0, 72, 0
2, 104400, Note_on_c, 0, 63, 116
2, 104400, Control_c, 0, 64, 127
2, 104400, Note_on_c, 0, 65, 40
2, 104400, Note_on_c, 0, 65, 44
2, 104520, Note_on_c, 0, 65, 0
2, 104520, Note_on_c, 0, 68, 50
2, 104639, Note_on_c, 0, 68, 0
2, 104639, Control_c, 0, 64, 0
2, 104639, Note_on_c, 0, 71, 52
2, 104717, Note_on_c, 0, 63, 0
2, 104760, Note_on_c, 0, 71, 0
2, 104760, Note_on_c, 0, 65, 0
2, 104760, Note_on_c, 0, 56, 86
2, 104760, Control_c, 0, 64, 127
2, 104760, Note_on_c, 0, 64, 42
2, 104760, Note_on_c, 0, 64, 45
2, 104880, Note_on_c, 0, 64, 0
2, 104880, Note_on_c, 0, 68, 57
2, 104940, Note_on_c, 0, 77, 89
2, 104999, Note_on_c, 0, 68, 0
2, 104999, Control_c, 0, 64, 0
2, 104999, Note_on_c, 0, 72, 49
2, 105098, Note_on_c, 0, 77, 0
2, 105120, Note_on_c, 0, 56, 0
2, 105120, Note_on_c, 0, 64, 0
2, 105120, Note_on_c, 0, 72, 0
2, 105120, Note_on_c, 0, 62, 112
2, 105120, Control_c, 0, 64, 127
2, 105120, Note_on_c, 0, 65, 38
2, 105120, Note_on_c, 0, 65, 53
2, 105240, Note_on_c, 0, 65, 0
2, 105240, Note_on_c, 0, 68, 52
2, 105359, Note_on_c, 0, 68, 0
2, 105359, Control_c, 0, 64, 0
2, 105359, Note_on_c, 0, 71, 49
2, 105437, Note_on_c, 0, 62, 0
2, 105480, Note_on_c, 0, 71, 0
2, 105480, Note_on_c, 0, 65, 0
2, 105480, Note_on_c, 0, 56, 79
2, 105480, Control_c, 0, 64, 127
2, 105480, Note_on_c, 0, 64, 44
2, 105480, Note_on_c, 0, 64, 46
2, 105600, Note_on_c, 0, 64, 0
2, 105600, Note_on_c, 0, 68, 52
2, 105660, Note_on_c, 0, 77, 90
2, 105719, Note_on_c, 0, 68, 0
2, 105719, Control_c, 0, 64, 0
2, 105719, Note_on_c, 0, 72, 51
2, 105818, Note_on_c, 0, 77, 0
2, 105840, Note_on_c, 0, 56, 0
2, 105840, Note_on_c, 0, 64, 0
2, 105840, Note_on_c, 0, 72, 0
2, 105840, Note_on_c, 0, 62, 116
2, 105840, Control_c, 0, 64, 127
2, 105840, Note_on_c, 0, 65, 41
2, 105840, Note_on_c, 0, 65, 45
2, 105960, Note_on_c, 0, 65, 0
2, 105960, Note_on_c, 0, 68, 50
2, 106079, Note_on_c, 0, 68, 0
2, 106079, Control_c, 0, 64, 0
2, 106079, Note_on_c, 0, 71, 50
2, 106157, Note_on_c, 0, 62, 0
2, 106200, Note_on_c, 0, 71, 0
2, 106200, Note_on_c, 0, 65, 0
2, 106200, Note_on_c, 0, 56, 83
2, 106200, Control_c, 0, 64, 127
2, 106200, Note_on_c, 0, 64, 43
2, 106200, Note_on_c, 0, 64, 46
2, 106320, Note_on_c, 0, 64, 0
2, 106320, Note_on_c, 0, 68, 49
2, 106380, Note_on_c, 0, 77, 89
2, 106439, Note_on_c, 0, 68, 0
2, 106439, Control_c, 0, 64, 0
2, 106439, Note_on_c, 0, 72, 57
2, 106538, Note_on_c, 0, 77, 0
2, 106560, Note_on_c, 0, 56, 0
2, 106560, Note_on_c, 0, 64, 0
2, 106560, Note_on_c, 0, 72, 0
2, 106560, Note_on_c, 0, 61, 109
2, 106560, Control_c, 0, 64, 127
2, 106560, Note_on_c, 0, 65, 43
2, 106560, Note_on_c, 0, 65, 50
2, 106680, Note_on_c, 0, 65, 0
2, 106680, Note_on_c, 0, 68, 51
2, 106799, Note_on_c, 0, 68, 0
2, 106799, Control_c, 0, 64, 0
2, 106799, Note_on_c, 0, 71, 54
2, 106877, Note_on_c, 0, 61, 0
2, 106920, Note_on_c, 0, 71, 0
2, 106920, Note_on_c, 0, 65, 0
2, 106920, Note_on_c, 0, 56, 89
2, 106920, Control_c, 0, 64, 127
2, 106920, Note_on_c, 0, 64, 37
2, 106920, Note_on_c, 0, 64, 44
2, 107040, Note_on_c, 0, 64, 0
2, 107040, Note_on_c, 0, 68, 57
2, 107100, Note_on_c, 0, 77, 87
2, 107159, Note_on_c, 0, 68, 0
2, 107159, Control_c, 0, 64, 0
2, 107159, Note_on_c, 0, 72, 49
2, 107258, Note_on_c, 0, 77, 0
2, 107280, Note_on_c, 0, 56, 0
2, 107280, Note_on_c, 0, 64, 0
2, 107280, Note_on_c, 0, 72, 0
2, 107280, Note_on_c, 0, 61, 110
2, 107280, Control_c, 0, 64, 127
2, 107280, Note_on_c, 0, 65, 38
2, 107280, Note_on_c, 0, 65, 46
2, 107400, Note_on_c, 0, 65, 0
2, 107400, Note_on_c, 0, 68, 47
2, 107519, Note_on_c, 0, 68, 0
2, 107519, Control_c, 0, 64, 0
2, 107519, Note_on_c, 0, 71, 57
2, 107597, Note_on_c, 0, 61, 0
2, 107640, Note_on_c, 0, 71, 0
2, 107640, Note_on_c, 0, 65, 0
2, 107640, Note_on_c, 0, 56, 87
2, 107640, Control_c, 0, 64, 127
2, 107640, Note_on_c, 0, 64, 44
2, 107640, Note_on_c, 0, 64, 46
2, 107760, Note_on_c, 0, 64, 0
2, 107760, Note_on_c, 0, 68, 50
2, 107820, Note_on_c, 0, 77, 93
2, 107879, Note_on_c, 0, 68, 0
2, 107879, Control_c, 0, 64, 0
2, 107879, Note_on_c, 0, 72, 51
2, 107978, Note_on_c, 0, 77, 0
2, 108000, Note_on_c, 0, 56, 0
2, 108000, Note_on_c, 0, 64, 0
2, 108000, Note_on_c, 0, 72, 0
2, 108000, Note_on_c, 0, 60, 88
2, 108000, Control_c, 0, 64, 127
2, 108000, Note_on_c, 0, 65, 39
2, 108000, Note_on_c, 0, 65, 49
2, 108120, Note_on_c, 0, 65, 0
2, 108120, Note_on_c, 0, 68, 52
2, 108239, Note_on_c, 0, 68, 0
2, 108239, Control_c, 0, 64, 0
2, 108239, Note_on_c, 0, 71, 53
2, 108317, Note_on_c, 0, 60, 0
2, 108360, Note_on_c, 0, 71, 0
2, 108360, Note_on_c, 0, 65, 0
2, 108360, Note_on_c, 0, 56, 82
2, 108360, Control_c, 0, 64, 127
2, 108360, Note_on_c, 0, 64, 37
2, 108360, Note_on_c, 0, 64, 45
2, 108480, Note_on_c, 0, 64, 0
2, 108480, Note_on_c, 0, 68, 51
2, 108540, Note_on_c, 0, 77, 94
2, 108599, Note_on_c, 0, 68, 0
2, 108599, Control_c, 0, 64, 0
2, 108599, Note_on_c, 0, 72, 57
2, 108698, Note_on_c, 0, 77, 0
2, 108720, Note_on_c, 0, 56, 0
2, 108720, Note_on_c, 0, 64, 0
2, 108720, Note_on_c, 0, 72, 0
2, 108720, Note_on_c, 0, 60, 75
2, 108720, Control_c, 0, 64, 127
2, 108720, Note_on_c, 0, 65, 41
2, 108720, Note_on_c, 0, 65, 49
2, 108840, Note_on_c, 0, 65, 0
2, 108840, Note_on_c, 0, 68, 48
2, 108959, Note_on_c, 0, 68, 0
2, 108959, Control_c, 0, 64, 0
2, 108959, Note_on_c, 0, 71, 51
2, 109037, Note_on_c, 0, 60, 0
2, 109080, Note_on_c, 0, 71, 0
2, 109080, Note_on_c, 0, 65, 0
2, 109080, Note_on_c, 0, 56, 68
2, 109080, Control_c, 0, 64, 127
2, 109080, Note_on_c, 0, 64, 38
2, 109080, Note_on_c, 0, 64, 46
2, 109200, Note_on_c, 0, 64, 0
2, 109200, Note_on_c, 0, 68, 56
2, 109260, Note_on_c, 0, 77, 88
2, 109319, Note_on_c, 0, 68, 0
2, 109319, Control_c, 0, 64, 0
2, 109319, Note_on_c, 0, 72, 59
2, 109418, Note_on_c, 0, 77, 0
2, 109440, Note_on_c, 0, 56, 0
2, 109440, Note_on_c, 0, 64, 0
2, 109440, Note_on_c, 0, 72, 0
2, 109440, Control_c, 0, 64, 127
2, 109440, Note_on_c, 0, 65, 37
2, 109440, Note_on_c, 0, 65, 51
2, 109560, Note_on_c, 0, 65, 0
2, 109560, Note_on_c, 0, 68, 50
2, 109679, Note_on_c, 0, 68, 0
2, 109679, Control_c, 0, 64, 0
2, 109679, Note_on_c, 0, 71, 51
2, 109800, Note_on_c, 0, 71, 0
2, 109800, Note_on_c, 0, 65, 0
2, 109800, Control_c, 0, 64, 127
2, 109800, Note_on_c, 0, 64, 39
2, 109800, Note_on_c, 0, 64, 49
2, 109920, Note_on_c, 0, 64, 0
2, 109920, Note_on_c, 0, 68, 50
2, 109980, Note_on_c, 0, 77, 68
2, 110039, Note_on_c, 0, 68, 0
2, 110039, Control_c, 0, 64, 0
2, 110039, Note_on_c, 0, 72, 51
2, 110138, Note_on_c, 0, 77, 0
2, 110160, Note_on_c, 0, 72, 0
2, 110160, Note_on_c, 0, 64, 0
2, 110160, Control_c, 0, 64, 127
2, 110160, Note_on_c, 0, 63, 35
2, 110160, Note_on_c, 0, 63, 48
2, 110280, Note_on_c, 0, 63, 0
2, 110280, Note_on_c, 0, 68, 55
2, 110399, Note_on_c, 0, 68, 0
2, 110399, Control_c, 0, 64, 0
2, 110399, Note_on_c, 0, 71, 55
2, 110520, Note_on_c, 0, 71, 0
2, 110520, Note_on_c, 0, 63, 0
2, 110520, Control_c, 0, 64, 127
2, 110520, Note_on_c, 0, 62, 41
2, 110520, Note_on_c, 0, 62, 45
2, 110640, Note_on_c, 0, 62, 0
2, 110640, Note_on_c, 0, 68, 59
2, 110700, Note_on_c, 0, 77, 67
2, 110759, Note_on_c, 0, 68, 0
2, 110759, Control_c, 0, 64, 0
2, 110759, Note_on_c, 0, 72, 49
2, 110858, Note_on_c, 0, 77, 0
2, 110880, Note_on_c, 0, 72, 0
2, 110880, Note_on_c, 0, 62, 0
2, 110880, Control_c, 0, 64, 127
2, 110880, Note_on_c, 0, 65, 43
2, 110880, Note_on_c, 0, 65, 57
2, 111000, Note_on_c, 0, 65, 0
2, 111000, Note_on_c, 0, 68, 50
2, 111119, Note_on_c, 0, 68, 0
2, 111119, Control_c, 0, 64, 0
2, 111119, Note_on_c, 0, 71, 56
2, 111240, Note_on_c, 0, 71, 0
2, 111240, Note_on_c, 0, 65, 0
2, 111240, Control_c, 0, 64, 127
2, 111240, Note_on_c, 0, 64, 40
2, 111240, Note_on_c, 0, 64, 48
2, 111360, Note_on_c, 0, 64, 0
2, 111360, Note_on_c, 0, 68, 48
2, 111420, Note_on_c, 0, 77, 53
2, 111479, Note_on_c, 0, 68, 0
2, 111479, Control_c, 0, 64, 0
2, 111479, Note_on_c, 0, 72, 55
2, 111578, Note_on_c, 0, 77, 0
2, 111600, Note_on_c, 0, 72, 0
2, 111600, Note_on_c, 0, 64, 0
2, 111600, Control_c, 0, 64, 127
2, 111600, Note_on_c, 0, 63, 40
2, 111600, Note_on_c, 0, 63, 41
2, 111720, Note_on_c, 0, 63, 0
2, 111720, Note_on_c, 0, 68, 54
2, 111839, Note_on_c, 0, 68, 0
2, 111839, Control_c, 0, 64, 0
2, 111839, Note_on_c, 0, 71, 52
2, 111960, Note_on_c, 0, 71, 0
2, 111960, Note_on_c, 0, 63, 0
2, 111960, Control_c, 0, 64, 127
2, 111960, Note_on_c, 0, 62, 36
2, 111960, Note_on_c, 0, 62, 46
2, 112080, Note_on_c, 0, 62, 0
2, 112080, Note_on_c, 0, 68, 53
2, 112140, Note_on_c, 0, 77, 39
2, 112199, Note_on_c, 0, 68, 0
2, 112199, Control_c, 0, 64, 0
2, 112199, Note_on_c, 0, 72, 47
2, 112298, Note_on_c, 0, 77, 0
2, 112320, Note_on_c, 0, 72, 0
2, 112320, Note_on_c, 0, 62, 0
2, 112320, Control_c, 0, 64, 127
2, 112320, Note_on_c, 0, 45, 35
2, 112352, Note_on_c, 0, 52, 35
2, 112385, Note_on_c, 0, 60, 35
2, 112440, Note_on_c, 0, 60, 0
2, 112440, Note_on_c, 0, 52, 0
2, 112440, Note_on_c, 0, 45, 0
2, 112440, Note_on_c, 0, 64, 50
2, 112500, Note_on_c, 0, 76, 79
2, 112559, Note_on_c, 0, 64, 0
2, 112559, Control_c, 0, 64, 0
2, 112559, Note_on_c, 0, 69, 52
2, 112680, Note_on_c, 0, 69, 0
2, 112680, Control_c, 0, 64, 127
2, 112680, Note_on_c, 0, 59, 43
2, 112800, Note_on_c, 0, 59, 0
2, 112800, Note_on_c, 0, 64, 61
2, 112817, Note_on_c, 0, 76, 0
2, 112860, Note_on_c, 0, 71, 64
2, 112919, Note_on_c, 0, 64, 0
2, 112919, Control_c, 0, 64, 0
2, 112919, Note_on_c, 0, 69, 55
2, 113040, Note_on_c, 0, 69, 0
2, 113040, Control_c, 0, 64, 127
2, 113040, Note_on_c, 0, 60, 38
2, 113160, Note_on_c, 0, 60, 0
2, 113160, Note_on_c, 0, 64, 43
2, 113220, Note_on_c, 0, 71, 0
2, 113220, Note_on_c, 0, 52, 62
2, 113279, Note_on_c, 0, 64, 0
2, 113279, Control_c, 0, 64, 0
2, 113279, Note_on_c, 0, 69, 49
2, 113400, Note_on_c, 0, 69, 0
2, 113400, Control_c, 0, 64, 127
2, 113400, Note_on_c, 0, 57, 47
2, 113520, Note_on_c, 0, 57, 0
2, 113520, Note_on_c, 0, 64, 56
2, 113580, Note_on_c, 0, 52, 0
2, 113580, Note_on_c, 0, 45, 72
2, 113639, Note_on_c, 0, 64, 0
2, 113639, Control_c, 0, 64, 0
2, 113639, Note_on_c, 0, 69, 56
2, 113760, Note_on_c, 0, 69, 0
2, 113760, Note_on_c, 0, 45, 0
2, 113760, Control_c, 0, 64, 127
2, 113760, Note_on_c, 0, 60, 41
2, 113880, Note_on_c, 0, 60, 0
2, 113880, Note_on_c, 0, 64, 54
2, 113940, Note_on_c, 0, 76, 76
2, 113999, Note_on_c, 0, 64, 0
2, 113999, Control_c, 0, 64, 0
2, 113999, Note_on_c, 0, 69, 50
2, 114120, Note_on_c, 0, 69, 0
2, 114120, Control_c, 0, 64, 127
2, 114120, Note_on_c, 0, 59, 44
2, 114240, Note_on_c, 0, 59, 0
2, 114240, Note_on_c, 0, 64, 51
2, 114300, Note_on_c, 0, 76, 0
2, 114300, Note_on_c, 0, 83, 101
2, 114359, Note_on_c, 0, 64, 0
2, 114359, Control_c, 0, 64, 0
2, 114359, Note_on_c, 0, 69, 54
2, 114480, Note_on_c, 0, 69, 0
2, 114480, Control_c, 0, 64, 127
2, 114480, Note_on_c, 0, 60, 37
2, 114600, Note_on_c, 0, 60, 0
2, 114600, Note_on_c, 0, 64, 53
2, 114660, Note_on_c, 0, 83, 0
2, 114660, Note_on_c, 0, 76, 101
2, 114719, Note_on_c, 0, 64, 0
2, 114719, Control_c, 0, 64, 0
2, 114719, Note_on_c, 0, 69, 57
2, 114840, Note_on_c, 0, 69, 0
2, 114840, Control_c, 0, 64, 127
2, 114840, Note_on_c, 0, 59, 45
2, 114960, Note_on_c, 0, 59, 0
2, 114960, Note_on_c, 0, 64, 52
2, 115020, Note_on_c, 0, 76, 0
2, 115020, Note_on_c, 0, 71, 76
2, 115079, Note_on_c, 0, 64, 0
2, 115079, Control_c, 0, 64, 0
2, 115079, Note_on_c, 0, 69, 57
2, 115200, Note_on_c, 0, 69, 0
2, 115200, Control_c, 0, 64, 127
2, 115200, Note_on_c, 0, 60, 38
2, 115320, Note_on_c, 0, 60, 0
2, 115320, Note_on_c, 0, 64, 51
2, 115380, Note_on_c, 0, 71, 0
2, 115380, Note_on_c, 0, 52, 66
2, 115439, Note_on_c, 0, 64, 0
2, 115439, Control_c, 0, 64, 0
2, 115439, Note_on_c, 0, 69, 52
2, 115560, Note_on_c, 0, 69, 0
2, 115560, Control_c, 0, 64, 127
2, 115560, Note_on_c, 0, 57, 44
2, 115680, Note_on_c, 0, 57, 0
2, 115680, Note_on_c, 0, 64, 55
2, 115740, Note_on_c, 0, 52, 0
2, 115740, Note_on_c, 0, 45, 68
2, 115799, Note_on_c, 0, 64, 0
2, 115799, Control_c, 0, 64, 0
2, 115799, Note_on_c, 0, 69, 52
2, 115920, Note_on_c, 0, 69, 0
2, 115920, Note_on_c, 0, 45, 0
2, 115920, Control_c, 0, 64, 127
2, 115920, Note_on_c, 0, 60, 39
2, 116040, Note_on_c, 0, 60, 0
2, 116040, Note_on_c, 0, 64, 50
2, 116100, Note_on_c, 0, 76, 76
2, 116159, Note_on_c, 0, 64, 0
2, 116159, Control_c, 0, 64, 0
2, 116159, Note_on_c, 0, 69, 53
2, 116280, Note_on_c, 0, 69, 0
2, 116280, Control_c, 0, 64, 127
2, 116280, Note_on_c, 0, 59, 42
2, 116400, Note_on_c, 0, 59, 0
2, 116400, Note_on_c, 0, 64, 54
2, 116460, Note_on_c, 0, 76, 0
2, 116460, Note_on_c, 0, 76, 101
2, 116519, Note_on_c, 0, 64, 0
2, 116519, Control_c, 0, 64, 0
2, 116519, Note_on_c, 0, 69, 51
2, 116618, Note_on_c, 0, 76, 0
2, 116640, Note_on_c, 0, 69, 0
2, 116640, Note_on_c, 0, 76, 117
2, 116640, Control_c, 0, 64, 127
2, 116640, Note_on_c, 0, 60, 36
2, 116760, Note_on_c, 0, 60, 0
2, 116760, Note_on_c, 0, 64, 48
2, 116879, Note_on_c, 0, 64, 0
2, 116879, Control_c, 0, 64, 0
2, 116879, Note_on_c, 0, 69, 54
2, 117000, Note_on_c, 0, 69, 0
2, 117000, Control_c, 0, 64, 127
2, 117000, Note_on_c, 0, 59, 44
2, 117114, Note_on_c, 0, 76, 0
2, 117120, Note_on_c, 0, 59, 0
2, 117120, Note_on_c, 0, 64, 50
2, 117180, Note_on_c, 0, 71, 89
2, 117239, Note_on_c, 0, 64, 0
2, 117239, Control_c, 0, 64, 0
2, 117239, Note_on_c, 0, 69, 56
2, 117360, Note_on_c, 0, 69, 0
2, 117360, Control_c, 0, 64, 127
2, 117360, Note_on_c, 0, 60, 38
2, 117480, Note_on_c, 0, 60, 0
2, 117480, Note_on_c, 0, 64, 55
2, 117540, Note_on_c, 0, 71, 0
2, 117540, Note_on_c, 0, 52, 55
2, 117599, Note_on_c, 0, 64, 0
2, 117599, Control_c, 0, 64, 0
2, 117599, Note_on_c, 0, 69, 56
2, 117720, Note_on_c, 0, 69, 0
2, 117720, Note_on_c, 0, 52, 0
2, 117720, Note_on_c, 0, 48, 60
2, 117720, Control_c, 0, 64, 127
2, 117720, Note_on_c, 0, 57, 46
2, 117840, Note_on_c, 0, 57, 0
2, 117840, Note_on_c, 0, 64, 55
2, 117900, Note_on_c, 0, 48, 0
2, 117900, Note_on_c, 0, 41, 58
2, 117959, Note_on_c, 0, 64, 0
2, 117959, Control_c, 0, 64, 0
2, 117959, Note_on_c, 0, 69, 58
2, 118080, Note_on_c, 0, 69, 0
2, 118080, Note_on_c, 0, 41, 0
2, 118080, Control_c, 0, 64, 127
2, 118080, Note_on_c, 0, 60, 43
2, 118200, Note_on_c, 0, 60, 0
2, 118200, Note_on_c, 0, 64, 49
2, 118260, Note_on_c, 0, 76, 65
2, 118319, Note_on_c, 0, 64, 0
2, 118319, Control_c, 0, 64, 0
2, 118319, Note_on_c, 0, 69, 56
2, 118440, Note_on_c, 0, 69, 0
2, 118440, Control_c, 0, 64, 127
2, 118440, Note_on_c, 0, 59, 43
2, 118560, Note_on_c, 0, 59, 0
2, 118560, Note_on_c, 0, 64, 55
2, 118620, Note_on_c, 0, 76, 0
2, 118620, Note_on_c, 0, 83, 91
2, 118679, Note_on_c, 0, 64, 0
2, 118679, Control_c, 0, 64, 0
2, 118679, Note_on_c, 0, 69, 55
2, 118800, Note_on_c, 0, 69, 0
2, 118800, Control_c, 0, 64, 127
2, 118800, Note_on_c, 0, 60, 42
2, 118920, Note_on_c, 0, 60, 0
2, 118920, Note_on_c, 0, 64, 55
2, 118980, Note_on_c, 0, 83, 0
2, 118980, Note_on_c, 0, 76, 91
2, 119039, Note_on_c, 0, 64, 0
2, 119039, Control_c, 0, 64, 0
2, 119039, Note_on_c, 0, 69, 56
2, 119160, Note_on_c, 0, 69, 0
2, 119160, Control_c, 0, 64, 127
2, 119160, Note_on_c, 0, 59, 38
2, 119280, Note_on_c, 0, 59, 0
2, 119280, Note_on_c, 0, 64, 53
2, 119340, Note_on_c, 0, 76, 0
2, 119340, Note_on_c, 0, 71, 66
2, 119399, Note_on_c, 0, 64, 0
2, 119399, Control_c, 0, 64, 0
2, 119399, Note_on_c, 0, 69, 55
2, 119520, Note_on_c, 0, 69, 0
2, 119520, Note_on_c, 0, 71, 0
2, 119520, Note_on_c, 0, 52, 58
2, 119520, Control_c, 0, 64, 127
2, 119520, Note_on_c, 0, 60, 43
2, 119640, Note_on_c, 0, 60, 0
2, 119640, Note_on_c, 0, 64, 53
2, 119700, Note_on_c, 0, 52, 0
2, 119700, Note_on_c, 0, 50, 58
2, 119759, Note_on_c, 0, 64, 0
2, 119759, Control_c, 0, 64, 0
2, 119759, Note_on_c, 0, 69, 60
2, 119880, Note_on_c, 0, 69, 0
2, 119880, Note_on_c, 0, 50, 0
2, 119880, Note_on_c, 0, 48, 64
2, 119880, Control_c, 0, 64, 127
2, 119880, Note_on_c, 0, 57, 43
2, 120000, Note_on_c, 0, 57, 0
2, 120000, Note_on_c, 0, 64, 53
2, 120060, Note_on_c, 0, 48, 0
2, 120060, Note_on_c, 0, 41, 57
2, 120119, Note_on_c, 0, 64, 0
2, 120119, Control_c, 0, 64, 0
2, 120119, Note_on_c, 0, 69, 56
2, 120240, Note_on_c, 0, 69, 0
2, 120240, Note_on_c, 0, 41, 0
2, 120240, Control_c, 0, 64, 127
2, 120240, Note_on_c, 0, 60, 40
2, 120360, Note_on_c, 0, 60, 0
2, 120360, Note_on_c, 0, 64, 49
2, 120420, Note_on_c, 0, 76, 65
2, 120479, Note_on_c, 0, 64, 0
2, 120479, Control_c, 0, 64, 0
2, 120479, Note_on_c, 0, 69, 53
2, 120600, Note_on_c, 0, 69, 0
2, 120600, Control_c, 0, 64, 127
2, 120600, Note_on_c, 0, 59, 39
2, 120720, Note_on_c, 0, 59, 0
2, 120720, Note_on_c, 0, 64, 53
2, 120780, Note_on_c, 0, 76, 0
2, 120780, Note_on_c, 0, 76, 60
2, 120839, Note_on_c, 0, 64, 0
2, 120839, Control_c, 0, 64, 0
2, 120839, Note_on_c, 0, 69, 53
2, 120938, Note_on_c, 0, 76, 0
2, 120960, Note_on_c, 0, 69, 0
2, 120960, Note_on_c, 0, 76, 57
2, 120960, Control_c, 0, 64, 127
2, 120960, Note_on_c, 0, 60, 40
2, 121080, Note_on_c, 0, 60, 0
2, 121080, Note_on_c, 0, 64, 52
2, 121199, Note_on_c, 0, 64, 0
2, 121199, Control_c, 0, 64, 0
2, 121199, Note_on_c, 0, 69, 54
2, 121320, Note_on_c, 0, 69, 0
2, 121320, Control_c, 0, 64, 127
2, 121320, Note_on_c, 0, 59, 44
2, 121434, Note_on_c, 0, 76, 0
2, 121440, Note_on_c, 0, 59, 0
2, 121440, Note_on_c, 0, 64, 52
2, 121500, Note_on_c, 0, 71, 49
2, 121559, Note_on_c, 0, 64, 0
2, 121559, Control_c, 0, 64, 0
2, 121559, Note_on_c, 0, 69, 57
2, 121680, Note_on_c, 0, 69, 0
2, 121680, Control_c, 0, 64, 127
2, 121680, Note_on_c, 0, 60, 39
2, 121800, Note_on_c, 0, 60, 0
2, 121800, Note_on_c, 0, 64, 50
2, 121860, Note_on_c, 0, 71, 0
2, 121860, Note_on_c, 0, 52, 43
2, 121919, Note_on_c, 0, 64, 0
2, 121919, Control_c, 0, 64, 0
2, 121919, Note_on_c, 0, 69, 53
2, 122040, Note_on_c, 0, 69, 0
2, 122040, Note_on_c, 0, 52, 0
2, 122040, Note_on_c, 0, 45, 49
2, 122040, Control_c, 0, 64, 127
2, 122040, Note_on_c, 0, 57, 44
2, 122160, Note_on_c, 0, 57, 0
2, 122160, Note_on_c, 0, 64, 52
2, 122220, Note_on_c, 0, 45, 0
2, 122220, Note_on_c, 0, 38, 45
2, 122279, Note_on_c, 0, 64, 0
2, 122279, Control_c, 0, 64, 0
2, 122279, Note_on_c, 0, 69, 53
2, 122400, Note_on_c, 0, 69, 0
2, 122400, Note_on_c, 0, 38, 0
2, 122400, Control_c, 0, 64, 127
2, 122400, Note_on_c, 0, 60, 39
2, 122520, Note_on_c, 0, 60, 0
2, 122520, Note_on_c, 0, 64, 48
2, 122580, Note_on_c, 0, 76, 53
2, 122639, Note_on_c, 0, 64, 0
2, 122639, Control_c, 0, 64, 0
2, 122639, Note_on_c, 0, 69, 51
2, 122760, Note_on_c, 0, 69, 0
2, 122760, Control_c, 0, 64, 127
2, 122760, Note_on_c, 0, 59, 42
2, 122880, Note_on_c, 0, 59, 0
2, 122880, Note_on_c, 0, 64, 51
2, 122940, Note_on_c, 0, 76, 0
2, 122940, Note_on_c, 0, 83, 66
2, 122999, Note_on_c, 0, 64, 0
2, 122999, Control_c, 0, 64, 0
2, 122999, Note_on_c, 0, 69, 50
2, 123120, Note_on_c, 0, 69, 0
2, 123120, Control_c, 0, 64, 127
2, 123120, Note_on_c, 0, 60, 40
2, 123240, Note_on_c, 0, 60, 0
2, 123240, Note_on_c, 0, 64, 56
2, 123300, Note_on_c, 0, 83, 0
2, 123300, Note_on_c, 0, 76, 45
2, 123359, Note_on_c, 0, 64, 0
2, 123359, Control_c, 0, 64, 0
2, 123359, Note_on_c, 0, 69, 55
2, 123480, Note_on_c, 0, 69, 0
2, 123480, Control_c, 0, 64, 127
2, 123480, Note_on_c, 0, 59, 42
2, 123600, Note_on_c, 0, 59, 0
2, 123600, Note_on_c, 0, 64, 57
2, 123660, Note_on_c, 0, 76, 0
2, 123660, Note_on_c, 0, 71, 46
2, 123719, Note_on_c, 0, 64, 0
2, 123719, Control_c, 0, 64, 0
2, 123719, Note_on_c, 0, 69, 54
2, 123840, Note_on_c, 0, 69, 0
2, 123840, Note_on_c, 0, 71, 0
2, 123840, Note_on_c, 0, 52, 42
2, 123840, Control_c, 0, 64, 127
2, 123840, Note_on_c, 0, 60, 43
2, 123960, Note_on_c, 0, 60, 0
2, 123960, Note_on_c, 0, 52, 0
2, 123960, Note_on_c, 0, 50, 50
2, 123960, Note_on_c, 0, 64, 51
2, 124079, Note_on_c, 0, 64, 0
2, 124079, Note_on_c, 0, 50, 0
2, 124079, Note_on_c, 0, 48, 58
2, 124079, Control_c, 0, 64, 0
2, 124079, Note_on_c, 0, 69, 51
2, 124200, Note_on_c, 0, 69, 0
2, 124200, Note_on_c, 0, 48, 0
2, 124200, Note_on_c, 0, 45, 55
2, 124200, Control_c, 0, 64, 127
2, 124200, Note_on_c, 0, 57, 42
2, 124320, Note_on_c, 0, 57, 0
2, 124320, Note_on_c, 0, 64, 55
2, 124380, Note_on_c, 0, 45, 0
2, 124380, Note_on_c, 0, 38, 51
2, 124439, Note_on_c, 0, 64, 0
2, 124439, Control_c, 0, 64, 0
2, 124439, Note_on_c, 0, 69, 60
2, 124560, Note_on_c, 0, 69, 0
2, 124560, Note_on_c, 0, 38, 0
2, 124560, Control_c, 0, 64, 127
2, 124560, Note_on_c, 0, 60, 39
2, 124680, Note_on_c, 0, 60, 0
2, 124680, Note_on_c, 0, 64, 49
2, 124740, Note_on_c, 0, 68, 62
2, 124799, Note_on_c, 0, 64, 0
2, 124799, Control_c, 0, 64, 0
2, 124799, Note_on_c, 0, 65, 54
2, 124920, Note_on_c, 0, 65, 0
2, 124920, Note_on_c, 0, 68, 0
2, 124920, Note_on_c, 0, 69, 65
2, 124920, Control_c, 0, 64, 127
2, 124920, Note_on_c, 0, 59, 43
2, 125040, Note_on_c, 0, 59, 0
2, 125040, Note_on_c, 0, 62, 53
2, 125100, Note_on_c, 0, 69, 0
2, 125100, Note_on_c, 0, 71, 74
2, 125159, Note_on_c, 0, 62, 0
2, 125159, Control_c, 0, 64, 0
2, 125159, Note_on_c, 0, 67, 51
2, 125280, Note_on_c, 0, 67, 0
2, 125280, Note_on_c, 0, 71, 0
2, 125280, Note_on_c, 0, 72, 70
2, 125280, Control_c, 0, 64, 127
2, 125280, Note_on_c, 0, 57, 43
2, 125280, Note_on_c, 0, 52, 44
2, 125400, Note_on_c, 0, 57, 0
2, 125400, Note_on_c, 0, 60, 50
2, 125460, Note_on_c, 0, 72, 0
2, 125460, Note_on_c, 0, 74, 68
2, 125519, Note_on_c, 0, 60, 0
2, 125519, Control_c, 0, 64, 0
2, 125519, Note_on_c, 0, 69, 61
2, 125640, Note_on_c, 0, 69, 0
2, 125640, Note_on_c, 0, 74, 0
2, 125640, Note_on_c, 0, 52, 0
2, 125640, Note_on_c, 0, 76, 68
2, 125640, Control_c, 0, 64, 127
2, 125640, Note_on_c, 0, 59, 42
2, 125760, Note_on_c, 0, 59, 0
2, 125760, Note_on_c, 0, 62, 52
2, 125879, Note_on_c, 0, 62, 0
2, 125879, Control_c, 0, 64, 0
2, 125879, Note_on_c, 0, 69, 61
2, 126000, Note_on_c, 0, 69, 0
2, 126000, Control_c, 0, 64, 127
2, 126000, Note_on_c, 0, 60, 38
2, 126120, Note_on_c, 0, 60, 0
2, 126120, Note_on_c, 0, 64, 51
2, 126180, Note_on_c, 0, 76, 0
2, 126180, Note_on_c, 0, 76, 65
2, 126239, Note_on_c, 0, 64, 0
2, 126239, Control_c, 0, 64, 0
2, 126239, Note_on_c, 0, 69, 52
2, 126360, Note_on_c, 0, 69, 0
2, 126360, Note_on_c, 0, 76, 0
2, 126360, Note_on_c, 0, 79, 67
2, 126360, Control_c, 0, 64, 127
2, 126360, Note_on_c, 0, 62, 38
2, 126480, Note_on_c, 0, 62, 0
2, 126480, Note_on_c, 0, 65, 48
2, 126540, Note_on_c, 0, 79, 0
2, 126540, Note_on_c, 0, 80, 68
2, 126599, Note_on_c, 0, 65, 0
2, 126599, Control_c, 0, 64, 0
2, 126599, Note_on_c, 0, 71, 56
2, 126720, Note_on_c, 0, 71, 0
2, 126720, Note_on_c, 0, 80, 0
2, 126720, Note_on_c, 0, 81, 70
2, 126720, Control_c, 0, 64, 127
2, 126720, Note_on_c, 0, 60, 40
2, 126840, Note_on_c, 0, 60, 0
2, 126840, Note_on_c, 0, 64, 55
2, 126959, Note_on_c, 0, 64, 0
2, 126959, Control_c, 0, 64, 0
2, 126959, Note_on_c, 0, 69, 53
2, 127080, Note_on_c, 0, 69, 0
2, 127080, Control_c, 0, 64, 127
2, 127080, Note_on_c, 0, 59, 45
2, 127200, Note_on_c, 0, 59, 0
2, 127200, Note_on_c, 0, 62, 55
2, 127260, Note_on_c, 0, 81, 0
2, 127260, Note_on_c, 0, 76, 74
2, 127319, Note_on_c, 0, 62, 0
2, 127319, Control_c, 0, 64, 0
2, 127319, Note_on_c, 0, 67, 51
2, 127440, Note_on_c, 0, 67, 0
2, 127440, Note_on_c, 0, 76, 0
2, 127440, Note_on_c, 0, 79, 76
2, 127440, Control_c, 0, 64, 127
2, 127440, Note_on_c, 0, 60, 38
2, 127440, Note_on_c, 0, 52, 43
2, 127560, Note_on_c, 0, 60, 0
2, 127560, Note_on_c, 0, 64, 47
2, 127620, Note_on_c, 0, 79, 0
2, 127620, Note_on_c, 0, 80, 77
2, 127679, Note_on_c, 0, 64, 0
2, 127679, Control_c, 0, 64, 0
2, 127679, Note_on_c, 0, 69, 54
2, 127800, Note_on_c, 0, 69, 0
2, 127800, Note_on_c, 0, 80, 0
2, 127800, Note_on_c, 0, 52, 0
2, 127800, Note_on_c, 0, 81, 79
2, 127800, Control_c, 0, 64, 127
2, 127800, Note_on_c, 0, 59, 47
2, 127920, Note_on_c, 0, 59, 0
2, 127920, Note_on_c, 0, 62, 51
2, 127980, Note_on_c, 0, 81, 0
2, 127980, Note_on_c, 0, 76, 80
2, 128039, Note_on_c, 0, 62, 0
2, 128039, Control_c, 0, 64, 0
2, 128039, Note_on_c, 0, 67, 50
2, 128160, Note_on_c, 0, 67, 0
2, 128160, Note_on_c, 0, 76, 0
2, 128160, Note_on_c, 0, 79, 82
2, 128160, Control_c, 0, 64, 127
2, 128160, Note_on_c, 0, 60, 43
2, 128280, Note_on_c, 0, 60, 0
2, 128280, Note_on_c, 0, 79, 0
2, 128280, Note_on_c, 0, 80, 83
2, 128280, Note_on_c, 0, 64, 53
2, 128399, Note_on_c, 0, 64, 0
2, 128399, Note_on_c, 0, 80, 0
2, 128399, Note_on_c, 0, 81, 84
2, 128399, Control_c, 0, 64, 0
2, 128399, Note_on_c, 0, 69, 51
2, 128520, Note_on_c, 0, 69, 0
2, 128520, Note_on_c, 0, 81, 0
2, 128520, Note_on_c, 0, 83, 85
2, 128520, Control_c, 0, 64, 127
2, 128520, Note_on_c, 0, 63, 40
2, 128640, Note_on_c, 0, 63, 0
2, 128640, Note_on_c, 0, 69, 55
2, 128700, Note_on_c, 0, 83, 0
2, 128700, Note_on_c, 0, 88, 86
2, 128759, Note_on_c, 0, 69, 0
2, 128759, Control_c, 0, 64, 0
2, 128759, Note_on_c, 0, 71, 48
2, 128880, Note_on_c, 0, 71, 0
2, 128880, Note_on_c, 0, 88, 0
2, 128880, Note_on_c, 0, 84, 88
2, 128880, Control_c, 0, 64, 127
2, 128880, Note_on_c, 0, 64, 46
2, 129000, Note_on_c, 0, 64, 0
2, 129000, Note_on_c, 0, 69, 52
2, 129119, Note_on_c, 0, 69, 0
2, 129119, Control_c, 0, 64, 0
2, 129119, Note_on_c, 0, 72, 55
2, 129240, Note_on_c, 0, 72, 0
2, 129240, Control_c, 0, 64, 127
2, 129240, Note_on_c, 0, 65, 47
2, 129360, Note_on_c, 0, 65, 0
2, 129360, Note_on_c, 0, 69, 48
2, 129420, Note_on_c, 0, 84, 0
2, 129420, Note_on_c, 0, 93, 111
2, 129479, Note_on_c, 0, 69, 0
2, 129479, Control_c, 0, 64, 0
2, 129479, Note_on_c, 0, 73, 53
2, 129600, Note_on_c, 0, 73, 0
2, 129600, Note_on_c, 0, 93, 0
2, 129600, Note_on_c, 0, 83, 99
2, 129600, Control_c, 0, 64, 127
2, 129600, Note_on_c, 0, 66, 41
2, 129600, Note_on_c, 0, 64, 44
2, 129720, Note_on_c, 0, 66, 0
2, 129720, Note_on_c, 0, 69, 48
2, 129839, Note_on_c, 0, 69, 0
2, 129839, Control_c, 0, 64, 0
2, 129839, Note_on_c, 0, 74, 56
2, 129960, Note_on_c, 0, 74, 0
2, 129960, Control_c, 0, 64, 127
2, 129960, Note_on_c, 0, 68, 43
2, 130080, Note_on_c, 0, 68, 0
2, 130080, Note_on_c, 0, 71, 52
2, 130199, Note_on_c, 0, 71, 0
2, 130199, Control_c, 0, 64, 0
2, 130199, Note_on_c, 0, 75, 51
2, 130233, Note_on_c, 0, 83, 0
2, 130320, Note_on_c, 0, 75, 0
2, 130320, Note_on_c, 0, 84, 104
2, 130320, Control_c, 0, 64, 127
2, 130320, Note_on_c, 0, 69, 43
2, 130440, Note_on_c, 0, 69, 0
2, 130440, Note_on_c, 0, 72, 47
2, 130500, Note_on_c, 0, 84, 0
2, 130500, Note_on_c, 0, 93, 121
2, 130559, Note_on_c, 0, 72, 0
2, 130559, Control_c, 0, 64, 0
2, 130559, Note_on_c, 0, 76, 54
2, 130680, Note_on_c, 0, 76, 0
2, 130680, Note_on_c, 0, 93, 0
2, 130680, Note_on_c, 0, 64, 0
2, 130680, Note_on_c, 0, 83, 97
2, 130680, Control_c, 0, 64, 127
2, 130680, Note_on_c, 0, 66, 36
2, 130680, Note_on_c, 0, 64, 48
2, 130800, Note_on_c, 0, 66, 0
2, 130800, Note_on_c, 0, 69, 49
2, 130919, Note_on_c, 0, 69, 0
2, 130919, Control_c, 0, 64, 0
2, 130919, Note_on_c, 0, 74, 58
2, 131040, Note_on_c, 0, 74, 0
2, 131040, Control_c, 0, 64, 127
2, 131040, Note_on_c, 0, 68, 42
2, 131160, Note_on_c, 0, 68, 0
2, 131160, Note_on_c, 0, 71, 47
2, 131279, Note_on_c, 0, 71, 0
2, 131279, Control_c, 0, 64, 0
2, 131279, Note_on_c, 0, 75, 55
2, 131313, Note_on_c, 0, 83, 0
2, 131400, Note_on_c, 0, 75, 0
2, 131400, Note_on_c, 0, 84, 106
2, 131400, Control_c, 0, 64, 127
2, 131400, Note_on_c, 0, 69, 45
2, 131520, Note_on_c, 0, 69, 0
2, 131520, Note_on_c, 0, 72, 52
2, 131580, Note_on_c, 0, 84, 0
2, 131580, Note_on_c, 0, 93, 121
2, 131639, Note_on_c, 0, 72, 0
2, 131639, Control_c, 0, 64, 0
2, 131639, Note_on_c, 0, 76, 52
2, 131760, Note_on_c, 0, 76, 0
2, 131760, Note_on_c, 0, 93, 0
2, 131760, Note_on_c, 0, 64, 0
2, 131760, Note_on_c, 0, 84, 101
2, 131760, Control_c, 0, 64, 127
2, 131760, Note_on_c, 0, 62, 36
2, 131760, Note_on_c, 0, 52, 42
2, 131880, Note_on_c, 0, 62, 0
2, 131880, Note_on_c, 0, 65, 52
2, 131918, Note_on_c, 0, 84, 0
2, 131940, Note_on_c, 0, 81, 94
2, 131999, Note_on_c, 0, 65, 0
2, 131999, Control_c, 0, 64, 0
2, 131999, Note_on_c, 0, 72, 56
2, 132120, Note_on_c, 0, 72, 0
2, 132120, Note_on_c, 0, 81, 0
2, 132120, Note_on_c, 0, 81, 111
2, 132120, Control_c, 0, 64, 127
2, 132120, Note_on_c, 0, 64, 43
2, 132240, Note_on_c, 0, 64, 0
2, 132240, Note_on_c, 0, 67, 49
2, 132359, Note_on_c, 0, 67, 0
2, 132359, Control_c, 0, 64, 0
2, 132359, Note_on_c, 0, 73, 58
2, 132480, Note_on_c, 0, 73, 0
2, 132480, Control_c, 0, 64, 127
2, 132480, Note_on_c, 0, 65, 42
2, 132594, Note_on_c, 0, 81, 0
2, 132600, Note_on_c, 0, 65, 0
2, 132600, Note_on_c, 0, 69, 49
2, 132660, Note_on_c, 0, 93, 125
2, 132719, Note_on_c, 0, 69, 0
2, 132719, Control_c, 0, 64, 0
2, 132719, Note_on_c, 0, 74, 53
2, 132840, Note_on_c, 0, 74, 0
2, 132840, Note_on_c, 0, 93, 0
2, 132840, Note_on_c, 0, 52, 0
2, 132840, Note_on_c, 0, 84, 84
2, 132840, Note_on_c, 0, 62, 33
2, 132840, Note_on_c, 0, 52, 51
2, 132858, Note_on_c, 0, 84, 0
2, 132858, Note_on_c, 0, 86, 106
2, 132877, Note_on_c, 0, 86, 0
2, 132877, Note_on_c, 0, 84, 103
2, 132960, Note_on_c, 0, 62, 0
2, 132960, Note_on_c, 0, 65, 46
2, 133002, Note_on_c, 0, 84, 0
2, 133020, Note_on_c, 0, 81, 92
2, 133079, Note_on_c, 0, 65, 0
2, 133079, Note_on_c, 0, 72, 58
2, 133200, Note_on_c, 0, 72, 0
2, 133200, Note_on_c, 0, 81, 0
2, 133200, Note_on_c, 0, 81, 99
2, 133200, Control_c, 0, 64, 127
2, 133200, Note_on_c, 0, 64, 40
2, 133320, Note_on_c, 0, 64, 0
2, 133320, Note_on_c, 0, 67, 54
2, 133439, Note_on_c, 0, 67, 0
2, 133439, Control_c, 0, 64, 0
2, 133439, Note_on_c, 0, 73, 53
2, 133560, Note_on_c, 0, 73, 0
2, 133560, Control_c, 0, 64, 127
2, 133560, Note_on_c, 0, 65, 46
2, 133680, Note_on_c, 0, 65, 0
2, 133680, Note_on_c, 0, 69, 50
2, 133740, Note_on_c, 0, 81, 0
2, 133740, Note_on_c, 0, 89, 122
2, 133799, Note_on_c, 0, 69, 0
2, 133799, Control_c, 0, 64, 0
2, 133799, Note_on_c, 0, 74, 53
2, 133920, Note_on_c, 0, 74, 0
2, 133920, Note_on_c, 0, 89, 0
2, 133920, Note_on_c, 0, 52, 0
2, 133920, Note_on_c, 0, 76, 74
2, 133920, Control_c, 0, 64, 127
2, 133920, Note_on_c, 0, 59, 44
2, 133920, Note_on_c, 0, 52, 52
2, 134040, Note_on_c, 0, 59, 0
2, 134040, Note_on_c, 0, 62, 52
2, 134100, Note_on_c, 0, 76, 0
2, 134100, Note_on_c, 0, 74, 91
2, 134159, Note_on_c, 0, 62, 0
2, 134159, Control_c, 0, 64, 0
2, 134159, Note_on_c, 0, 69, 59
2, 134280, Note_on_c, 0, 69, 0
2, 134280, Note_on_c, 0, 74, 0
2, 134280, Note_on_c, 0, 77, 110
2, 134280, Control_c, 0, 64, 127
2, 134280, Note_on_c, 0, 60, 37
2, 134400, Note_on_c, 0, 60, 0
2, 134400, Note_on_c, 0, 62, 49
2, 134519, Note_on_c, 0, 62, 0
2, 134519, Control_c, 0, 64, 0
2, 134519, Note_on_c, 0, 69, 57
2, 134640, Note_on_c, 0, 69, 0
2, 134640, Note_on_c, 0, 77, 0
2, 134640, Note_on_c, 0, 88, 127
2, 134640, Control_c, 0, 64, 127
2, 134640, Note_on_c, 0, 62, 35
2, 134760, Note_on_c, 0, 62, 0
2, 134760, Note_on_c, 0, 65, 52
2, 134820, Note_on_c, 0, 88, 0
2, 134820, Note_on_c, 0, 86, 98
2, 134879, Note_on_c, 0, 65, 0
2, 134879, Control_c, 0, 64, 0
2, 134879, Note_on_c, 0, 72, 60
2, 135000, Note_on_c, 0, 72, 0
2, 135000, Note_on_c, 0, 86, 0
2, 135000, Note_on_c, 0, 52, 0
2, 135000, Note_on_c, 0, 76, 78
2, 135000, Note_on_c, 0, 59, 41
2, 135000, Note_on_c, 0, 52, 49
2, 135018, Note_on_c, 0, 76, 0
2, 135018, Note_on_c, 0, 77, 104
2, 135037, Note_on_c, 0, 77, 0
2, 135037, Note_on_c, 0, 76, 97
2, 135120, Note_on_c, 0, 59, 0
2, 135120, Note_on_c, 0, 62, 53
2, 135180, Note_on_c, 0, 76, 0
2, 135180, Note_on_c, 0, 74, 92
2, 135239, Note_on_c, 0, 62, 0
2, 135239, Note_on_c, 0, 69, 55
2, 135360, Note_on_c, 0, 69, 0
2, 135360, Note_on_c, 0, 74, 0
2, 135360, Note_on_c, 0, 77, 112
2, 135360, Control_c, 0, 64, 127
2, 135360, Note_on_c, 0, 60, 39
2, 135480, Note_on_c, 0, 60, 0
2, 135480, Note_on_c, 0, 62, 47
2, 135599, Note_on_c, 0, 62, 0
2, 135599, Control_c, 0, 64, 0
2, 135599, Note_on_c, 0, 69, 56
2, 135720, Note_on_c, 0, 69, 0
2, 135720, Note_on_c, 0, 77, 0
2, 135720, Note_on_c, 0, 85, 102
2, 135720, Control_c, 0, 64, 127
2, 135720, Note_on_c, 0, 62, 42
2, 135840, Note_on_c, 0, 62, 0
2, 135840, Note_on_c, 0, 65, 47
2, 135900, Note_on_c, 0, 85, 0
2, 135900, Note_on_c, 0, 86, 83
2, 135959, Note_on_c, 0, 65, 0
2, 135959, Control_c, 0, 64, 0
2, 135959, Note_on_c, 0, 72, 57
2, 136080, Note_on_c, 0, 72, 0
2, 136080, Note_on_c, 0, 86, 0
2, 136080, Note_on_c, 0, 52, 0
2, 136080, Note_on_c, 0, 72, 72
2, 136080, Control_c, 0, 64, 127
2, 136080, Note_on_c, 0, 57, 44
2, 136080, Note_on_c, 0, 52, 51
2, 136200, Note_on_c, 0, 57, 0
2, 136200, Note_on_c, 0, 62, 53
2, 136260, Note_on_c, 0, 72, 0
2, 136260, Note_on_c, 0, 71, 77
2, 136319, Note_on_c, 0, 62, 0
2, 136319, Control_c, 0, 64, 0
2, 136319, Note_on_c, 0, 65, 52
2, 136440, Note_on_c, 0, 65, 0
2, 136440, Note_on_c, 0, 71, 0
2, 136440, Note_on_c, 0, 52, 0
2, 136440, Note_on_c, 0, 74, 95
2, 136440, Control_c, 0, 64, 127
2, 136440, Note_on_c, 0, 59, 44
2, 136560, Note_on_c, 0, 59, 0
2, 136560, Note_on_c, 0, 62, 53
2, 136679, Note_on_c, 0, 62, 0
2, 136679, Control_c, 0, 64, 0
2, 136679, Note_on_c, 0, 69, 54
2, 136800, Note_on_c, 0, 69, 0
2, 136800, Note_on_c, 0, 74, 0
2, 136800, Note_on_c, 0, 84, 123
2, 136800, Control_c, 0, 64, 127
2, 136800, Note_on_c, 0, 60, 38
2, 136920, Note_on_c, 0, 60, 0
2, 136920, Note_on_c, 0, 62, 49
2, 136958, Note_on_c, 0, 84, 0
2, 136980, Note_on_c, 0, 81, 87
2, 137039, Note_on_c, 0, 62, 0
2, 137039, Control_c, 0, 64, 0
2, 137039, Note_on_c, 0, 72, 55
2, 137160, Note_on_c, 0, 72, 0
2, 137160, Note_on_c, 0, 81, 0
2, 137160, Note_on_c, 0, 72, 70
2, 137160, Note_on_c, 0, 57, 44
2, 137160, Note_on_c, 0, 52, 45
2, 137178, Note_on_c, 0, 72, 0
2, 137178, Note_on_c, 0, 74, 91
2, 137197, Note_on_c, 0, 74, 0
2, 137197, Note_on_c, 0, 72, 84
2, 137280, Note_on_c, 0, 57, 0
2, 137280, Note_on_c, 0, 62, 51
2, 137340, Note_on_c, 0, 72, 0
2, 137340, Note_on_c, 0, 71, 83
2, 137399, Note_on_c, 0, 62, 0
2, 137399, Note_on_c, 0, 65, 50
2, 137520, Note_on_c, 0, 65, 0
2, 137520, Note_on_c, 0, 71, 0
2, 137520, Note_on_c, 0, 52, 0
2, 137520, Note_on_c, 0, 74, 94
2, 137520, Control_c, 0, 64, 127
2, 137520, Note_on_c, 0, 59, 46
2, 137640, Note_on_c, 0, 59, 0
2, 137640, Note_on_c, 0, 62, 51
2, 137759, Note_on_c, 0, 62, 0
2, 137759, Control_c, 0, 64, 0
2, 137759, Note_on_c, 0, 69, 56
2, 137880, Note_on_c, 0, 69, 0
2, 137880, Note_on_c, 0, 74, 0
2, 137880, Note_on_c, 0, 83, 116
2, 137880, Control_c, 0, 64, 127
2, 137880, Note_on_c, 0, 60, 41
2, 138000, Note_on_c, 0, 60, 0
2, 138000, Note_on_c, 0, 62, 46
2, 138038, Note_on_c, 0, 83, 0
2, 138060, Note_on_c, 0, 81, 86
2, 138119, Note_on_c, 0, 62, 0
2, 138119, Control_c, 0, 64, 0
2, 138119, Note_on_c, 0, 72, 58
2, 138240, Note_on_c, 0, 72, 0
2, 138240, Note_on_c, 0, 81, 0
2, 138240, Note_on_c, 0, 72, 48
2, 138240, Control_c, 0, 64, 127
2, 138240, Note_on_c, 0, 57, 43
2, 138360, Note_on_c, 0, 57, 0
2, 138360, Note_on_c, 0, 62, 53
2, 138420, Note_on_c, 0, 72, 0
2, 138420, Note_on_c, 0, 71, 57
2, 138479, Note_on_c, 0, 62, 0
2, 138479, Control_c, 0, 64, 0
2, 138479, Note_on_c, 0, 65, 48
2, 138600, Note_on_c, 0, 65, 0
2, 138600, Note_on_c, 0, 71, 0
2, 138600, Note_on_c, 0, 74, 69
2, 138600, Control_c, 0, 64, 127
2, 138600, Note_on_c, 0, 56, 46
2, 138720, Note_on_c, 0, 56, 0
2, 138720, Note_on_c, 0, 62, 52
2, 138839, Note_on_c, 0, 62, 0
2, 138839, Control_c, 0, 64, 0
2, 138839, Note_on_c, 0, 65, 54
2, 138960, Note_on_c, 0, 65, 0
2, 138960, Note_on_c, 0, 74, 0
2, 138960, Note_on_c, 0, 70, 60
2, 138960, Control_c, 0, 64, 127
2, 138960, Note_on_c, 0, 55, 47
2, 139080, Note_on_c, 0, 55, 0
2, 139080, Note_on_c, 0, 61, 52
2, 139199, Note_on_c, 0, 61, 0
2, 139199, Control_c, 0, 64, 0
2, 139199, Note_on_c, 0, 65, 55
2, 139320, Note_on_c, 0, 65, 0
2, 139320, Note_on_c, 0, 70, 0
2, 139320, Note_on_c, 0, 74, 71
2, 139320, Control_c, 0, 64, 127
2, 139320, Note_on_c, 0, 56, 40
2, 139440, Note_on_c, 0, 56, 0
2, 139440, Note_on_c, 0, 62, 53
2, 139559, Note_on_c, 0, 62, 0
2, 139559, Control_c, 0, 64, 0
2, 139559, Note_on_c, 0, 65, 52
2, 139680, Note_on_c, 0, 65, 0
2, 139680, Note_on_c, 0, 74, 0
2, 139680, Note_on_c, 0, 69, 61
2, 139680, Control_c, 0, 64, 127
2, 139680, Note_on_c, 0, 55, 43
2, 139800, Note_on_c, 0, 55, 0
2, 139800, Note_on_c, 0, 61, 53
2, 139860, Note_on_c, 0, 69, 0
2, 139860, Note_on_c, 0, 70, 67
2, 139919, Note_on_c, 0, 61, 0
2, 139919, Control_c, 0, 64, 0
2, 139919, Note_on_c, 0, 65, 51
2, 140040, Note_on_c, 0, 65, 0
2, 140040, Note_on_c, 0, 70, 0
2, 140040, Note_on_c, 0, 74, 74
2, 140040, Control_c, 0, 64, 127
2, 140040, Note_on_c, 0, 56, 43
2, 140160, Note_on_c, 0, 56, 0
2, 140160, Note_on_c, 0, 62, 48
2, 140220, Note_on_c, 0, 74, 0
2, 140220, Note_on_c, 0, 71, 61
2, 140279, Note_on_c, 0, 62, 0
2, 140279, Control_c, 0, 64, 0
2, 140279, Note_on_c, 0, 65, 54
2, 140400, Note_on_c, 0, 65, 0
2, 140400, Note_on_c, 0, 71, 0
2, 140400, Note_on_c, 0, 40, 57
2, 140520, Note_on_c, 0, 50, 40
2, 140639, Note_on_c, 0, 50, 0
2, 140639, Note_on_c, 0, 56, 52
2, 140760, Note_on_c, 0, 40, 0
2, 140760, Note_on_c, 0, 65, 92
2, 140880, Note_on_c, 0, 56, 0
2, 140880, Note_on_c, 0, 57, 47
2, 140999, Note_on_c, 0, 57, 0
2, 140999, Note_on_c, 0, 58, 51
2, 141077, Note_on_c, 0, 65, 0
2, 141120, Note_on_c, 0, 64, 66
2, 141240, Note_on_c, 0, 58, 0
2, 141240, Note_on_c, 0, 55, 47
2, 141359, Note_on_c, 0, 55, 0
2, 141359, Note_on_c, 0, 49, 45
2, 141480, Note_on_c, 0, 49, 0
2, 141480, Note_on_c, 0, 64, 0
2, 141480, Note_on_c, 0, 40, 58
2, 141600, Note_on_c, 0, 50, 44
2, 141719, Note_on_c, 0, 50, 0
2, 141719, Note_on_c, 0, 56, 47
2, 141840, Note_on_c, 0, 40, 0
2, 141840, Note_on_c, 0, 65, 90
2, 141960, Note_on_c, 0, 56, 0
2, 141960, Note_on_c, 0, 57, 49
2, 142079, Note_on_c, 0, 57, 0
2, 142079, Note_on_c, 0, 58, 50
2, 142157, Note_on_c, 0, 65, 0
2, 142200, Note_on_c, 0, 64, 81
2, 142320, Note_on_c, 0, 58, 0
2, 142320, Note_on_c, 0, 55, 47
2, 142439, Note_on_c, 0, 55, 0
2, 142439, Note_on_c, 0, 49, 44
2, 142517, Note_on_c, 0, 64, 0
2, 142560, Note_on_c, 0, 49, 0
2, 142560, Note_on_c, 0, 40, 59
2, 142680, Note_on_c, 0, 50, 42
2, 142799, Note_on_c, 0, 50, 0
2, 142799, Note_on_c, 0, 56, 52
2, 142920, Note_on_c, 0, 56, 0
2, 142920, Note_on_c, 0, 40, 0
2, 142920, Note_on_c, 0, 65, 78
2, 142920, Control_c, 0, 64, 127
2, 142920, Note_on_c, 0, 51, 40
2, 143040, Note_on_c, 0, 51, 0
2, 143040, Note_on_c, 0, 56, 51
2, 143159, Note_on_c, 0, 56, 0
2, 143159, Control_c, 0, 64, 0
2, 143159, Note_on_c, 0, 60, 51
2, 143280, Note_on_c, 0, 60, 0
2, 143280, Note_on_c, 0, 65, 0
2, 143280, Note_on_c, 0, 64, 66
2, 143280, Control_c, 0, 64, 127
2, 143280, Note_on_c, 0, 52, 46
2, 143400, Note_on_c, 0, 52, 0
2, 143400, Note_on_c, 0, 57, 53
2, 143519, Note_on_c, 0, 57, 0
2, 143519, Control_c, 0, 64, 0
2, 143519, Note_on_c, 0, 60, 52
2, 143640, Note_on_c, 0, 60, 0
2, 143640, Control_c, 0, 64, 127
2, 143640, Note_on_c, 0, 53, 40
2, 143760, Note_on_c, 0, 53, 0
2, 143760, Note_on_c, 0, 57, 50
2, 143820, Note_on_c, 0, 64, 0
2, 143820, Note_on_c, 0, 64, 67
2, 143879, Note_on_c, 0, 57, 0
2, 143879, Control_c, 0, 64, 0
2, 143879, Note_on_c, 0, 61, 50
2, 144000, Note_on_c, 0, 61, 0
2, 144000, Note_on_c, 0, 64, 0
2, 144000, Note_on_c, 0, 63, 66
2, 144000, Control_c, 0, 64, 127
2, 144000, Note_on_c, 0, 54, 43
2, 144120, Note_on_c, 0, 54, 0
2, 144120, Note_on_c, 0, 57, 49
2, 144180, Note_on_c, 0, 63, 0
2, 144180, Note_on_c, 0, 64, 70
2, 144239, Note_on_c, 0, 57, 0
2, 144239, Control_c, 0, 64, 0
2, 144239, Note_on_c, 0, 62, 56
2, 144360, Note_on_c, 0, 62, 0
2, 144360, Note_on_c, 0, 64, 0
2, 144360, Note_on_c, 0, 65, 70
2, 144360, Control_c, 0, 64, 127
2, 144360, Note_on_c, 0, 56, 47
2, 144480, Note_on_c, 0, 56, 0
2, 144480, Note_on_c, 0, 60, 53
2, 144599, Note_on_c, 0, 60, 0
2, 144599, Note_on_c, 0, 65, 0
2, 144599, Note_on_c, 0, 76, 83
2, 144599, Control_c, 0, 64, 0
2, 144599, Note_on_c, 0, 64, 47
2, 144720, Note_on_c, 0, 64, 0
2, 144720, Control_c, 0, 64, 127
2, 144720, Note_on_c, 0, 45, 44
2, 144752, Note_on_c, 0, 52, 44
2, 144785, Note_on_c, 0, 60, 44
2, 144840, Note_on_c, 0, 60, 0
2, 144840, Note_on_c, 0, 52, 0
2, 144840, Note_on_c, 0, 45, 0
2, 144840, Note_on_c, 0, 64, 52
2, 144900, Note_on_c, 0, 76, 0
2, 144900, Note_on_c, 0, 76, 71
2, 144959, Note_on_c, 0, 64, 0
2, 144959, Control_c, 0, 64, 0
2, 144959, Note_on_c, 0, 69, 56
2, 145080, Note_on_c, 0, 69, 0
2, 145080, Control_c, 0, 64, 127
2, 145080, Note_on_c, 0, 59, 43
2, 145200, Note_on_c, 0, 59, 0
2, 145200, Note_on_c, 0, 64, 52
2, 145260, Note_on_c, 0, 76, 0
2, 145260, Note_on_c, 0, 71, 56
2, 145319, Note_on_c, 0, 64, 0
2, 145319, Control_c, 0, 64, 0
2, 145319, Note_on_c, 0, 69, 56
2, 145440, Note_on_c, 0, 69, 0
2, 145440, Control_c, 0, 64, 127
2, 145440, Note_on_c, 0, 60, 36
2, 145560, Note_on_c, 0, 60, 0
2, 145560, Note_on_c, 0, 64, 50
2, 145620, Note_on_c, 0, 71, 0
2, 145620, Note_on_c, 0, 76, 74
2, 145679, Note_on_c, 0, 64, 0
2, 145679, Control_c, 0, 64, 0
2, 145679, Note_on_c, 0, 69, 52
2, 145800, Note_on_c, 0, 69, 0
2, 145800, Control_c, 0, 64, 127
2, 145800, Note_on_c, 0, 57, 38
2, 145920, Note_on_c, 0, 57, 0
2, 145920, Note_on_c, 0, 64, 53
2, 145980, Note_on_c, 0, 76, 0
2, 145980, Note_on_c, 0, 83, 70
2, 146039, Note_on_c, 0, 64, 0
2, 146039, Control_c, 0, 64, 0
2, 146039, Note_on_c, 0, 69, 52
2, 146160, Note_on_c, 0, 69, 0
2, 146160, Control_c, 0, 64, 127
2, 146160, Note_on_c, 0, 60, 37
2, 146280, Note_on_c, 0, 60, 0
2, 146280, Note_on_c, 0, 64, 54
2, 146340, Note_on_c, 0, 83, 0
2, 146340, Note_on_c, 0, 88, 80
2, 146399, Note_on_c, 0, 64, 0
2, 146399, Control_c, 0, 64, 0
2, 146399, Note_on_c, 0, 69, 57
2, 146520, Note_on_c, 0, 69, 0
2, 146520, Control_c, 0, 64, 127
2, 146520, Note_on_c, 0, 59, 44
2, 146640, Note_on_c, 0, 59, 0
2, 146640, Note_on_c, 0, 64, 56
2, 146700, Note_on_c, 0, 88, 0
2, 146700, Note_on_c, 0, 95, 89
2, 146759, Note_on_c, 0, 64, 0
2, 146759, Control_c, 0, 64, 0
2, 146759, Note_on_c, 0, 69, 52
2, 146880, Note_on_c, 0, 69, 0
2, 146880, Control_c, 0, 64, 127
2, 146880, Note_on_c, 0, 60, 36
2, 147000, Note_on_c, 0, 60, 0
2, 147000, Note_on_c, 0, 64, 53
2, 147060, Note_on_c, 0, 95, 0
2, 147060, Note_on_c, 0, 88, 91
2, 147119, Note_on_c, 0, 64, 0
2, 147119, Control_c, 0, 64, 0
2, 147119, Note_on_c, 0, 69, 55
2, 147240, Note_on_c, 0, 69, 0
2, 147240, Control_c, 0, 64, 127
2, 147240, Note_on_c, 0, 59, 42
2, 147360, Note_on_c, 0, 59, 0
2, 147360, Note_on_c, 0, 64, 50
2, 147420, Note_on_c, 0, 88, 0
2, 147420, Note_on_c, 0, 83, 79
2, 147479, Note_on_c, 0, 64, 0
2, 147479, Control_c, 0, 64, 0
2, 147479, Note_on_c, 0, 69, 56
2, 147600, Note_on_c, 0, 69, 0
2, 147600, Control_c, 0, 64, 127
2, 147600, Note_on_c, 0, 60, 41
2, 147720, Note_on_c, 0, 60, 0
2, 147720, Note_on_c, 0, 64, 52
2, 147780, Note_on_c, 0, 83, 0
2, 147780, Note_on_c, 0, 76, 67
2, 147839, Note_on_c, 0, 64, 0
2, 147839, Control_c, 0, 64, 0
2, 147839, Note_on_c, 0, 69, 54
2, 147960, Note_on_c, 0, 69, 0
2, 147960, Control_c, 0, 64, 127
2, 147960, Note_on_c, 0, 57, 43
2, 148080, Note_on_c, 0, 57, 0
2, 148080, Note_on_c, 0, 64, 47
2, 148140, Note_on_c, 0, 76, 0
2, 148140, Note_on_c, 0, 71, 53
2, 148199, Note_on_c, 0, 64, 0
2, 148199, Control_c, 0, 64, 0
2, 148199, Note_on_c, 0, 69, 58
2, 148320, Note_on_c, 0, 69, 0
2, 148320, Note_on_c, 0, 60, 36
2, 148500, Note_on_c, 0, 71, 0
2, 148500, Note_on_c, 0, 64, 54
2, 148680, Note_on_c, 0, 60, 0
2, 148860, Note_on_c, 0, 64, 0
2, 148860, Note_on_c, 0, 59, 60
2, 149040, Note_on_c, 0, 59, 0
2, 149040, Note_on_c, 0, 57, 100
2, 149040, Note_on_c, 0, 64, 100
2, 149040, Note_on_c, 0, 41, 58
2, 149040, Note_on_c, 0, 48, 58
2, 149357, Note_on_c, 0, 48, 0
2, 149357, Note_on_c, 0, 57, 0
2, 149357, Note_on_c, 0, 64, 0
2, 149357, Note_on_c, 0, 41, 0
2, 149400, Note_on_c, 0, 53, 84
2, 149400, Note_on_c, 0, 59, 84
2, 149400, Note_on_c, 0, 38, 53
2, 149400, Note_on_c, 0, 45, 53
2, 150033, Note_on_c, 0, 45, 0
2, 150033, Note_on_c, 0, 53, 0
2, 150033, Note_on_c, 0, 59, 0
2, 150033, Note_on_c, 0, 38, 0
2, 150120, Note_on_c, 0, 57, 97
2, 150120, Note_on_c, 0, 64, 97
2, 150120, Note_on_c, 0, 41, 61
2, 150120, Note_on_c, 0, 48, 61
2, 150753, Note_on_c, 0, 48, 0
2, 150753, Note_on_c, 0, 57, 0
2, 150753, Note_on_c, 0, 64, 0
2, 150753, Note_on_c, 0, 41, 0
2, 150840, Note_on_c, 0, 59, 76
2, 150840, Note_on_c, 0, 63, 76
2, 150840, Note_on_c, 0, 69, 76
2, 150840, Note_on_c, 0, 71, 76
2, 150840, Note_on_c, 0, 42, 63
2, 150840, Note_on_c, 0, 51, 63
2, 150840, Note_on_c, 0, 58, 63
2, 151560, Note_on_c, 0, 58, 0
2, 151560, Note_on_c, 0, 42, 0
2, 151560, Note_on_c, 0, 63, 0
2, 151560, Note_on_c, 0, 69, 0
2, 151560, Note_on_c, 0, 59, 0
2, 151560, Note_on_c, 0, 51, 0
2, 151560, Note_on_c, 0, 71, 0
2, 151560, Note_on_c, 0, 64, 76
2, 151560, Note_on_c, 0, 65, 76
2, 151560, Note_on_c, 0, 69, 76
2, 151560, Note_on_c, 0, 71, 76
2, 151560, Note_on_c, 0, 76, 76
2, 151560, Note_on_c, 0, 43, 65
2, 151560, Note_on_c, 0, 50, 65
2, 151560, Note_on_c, 0, 53, 65
2, 151560, Note_on_c, 0, 59, 65
2, 152193, Note_on_c, 0, 59, 0
2, 152193, Note_on_c, 0, 71, 0
2, 152193, Note_on_c, 0, 64, 0
2, 152193, Note_on_c, 0, 76, 0
2, 152193, Note_on_c, 0, 65, 0
2, 152193, Note_on_c, 0, 69, 0
2, 152193, Note_on_c, 0, 50, 0
2, 152193, Note_on_c, 0, 43, 0
2, 152193, Note_on_c, 0, 53, 0
2, 152280, Note_on_c, 0, 33, 45
2, 152325, Note_on_c, 0, 33, 0
2, 152325, Note_on_c, 0, 45, 60
2, 152370, Note_on_c, 0, 45, 0
2, 152370, Note_on_c, 0, 52, 63
2, 152415, Note_on_c, 0, 52, 0
2, 152415, Note_on_c, 0, 60, 66
2, 152460, Note_on_c, 0, 64, 63
2, 152505, Note_on_c, 0, 68, 62
2, 152550, Note_on_c, 0, 71, 58
2, 152595, Note_on_c, 0, 72, 22
2, 152640, Note_on_c, 0, 76, 32
2, 152685, Note_on_c, 0, 80, 34
2, 152730, Note_on_c, 0, 81, 35
2, 152775, Note_on_c, 0, 81, 0
2, 152775, Note_on_c, 0, 83, 29
2, 153315, Note_on_c, 0, 60, 0
2, 153315, Note_on_c, 0, 71, 0
2, 153315, Note_on_c, 0, 68, 0
2, 153315, Note_on_c, 0, 64, 0
2, 153360, Note_on_c, 0, 72, 0
2, 153360, Note_on_c, 0, 83, 0
2, 153360, Note_on_c, 0, 76, 0
2, 153360, Note_on_c, 0, 80, 0
2, 153360, Note_on_c, 0, 69, 44
2, 153360, Note_on_c, 0, 72, 44
2, 153360, Note_on_c, 0, 76, 44
2, 154440, Note_on_c, 0, 76, 0
2, 154440, Note_on_c, 0, 72, 0
2, 154440, Note_on_c, 0, 69, 0
2, 154440, End_track
0, 0, End_of_file
