0, 0, Header, 1, 2, 360
1, 0, Start_track
1, 0, Title_t, "untitled"
1, 0, Time_signature, 9, 3, 12, 8
1, 0, Key_signature, -1, "major"
1, 0, Tempo, 400000
1, 10260, Tempo, 400000
1, 10350, Tempo, 409556
1, 10440, Tempo, 419580
1, 10530, Tempo, 430108
1, 10620, Tempo, 441176
1, 10710, Tempo, 452830
1, 10800, Tempo, 465116
1, 10890, Tempo, 478088
1, 10980, Tempo, 491803
1, 11070, Tempo, 506329
1, 11160, Tempo, 521739
1, 11880, Tempo, 400000
1, 11970, Tempo, 400000
1, 12060, Tempo, 400000
1, 12150, Tempo, 400000
1, 12240, Tempo, 400000
1, 12330, Tempo, 400000
1, 12420, Tempo, 400000
1, 12510, Tempo, 400000
1, 12600, Tempo, 400000
1, 12690, Tempo, 400000
1, 12780, Tempo, 400000
1, 19440, Tempo, 400000
1, 19534, Tempo, 405981
1, 19629, Tempo, 412145
1, 19723, Tempo, 418468
1, 19817, Tempo, 425019
1, 19911, Tempo, 431779
1, 20006, Tempo, 438757
1, 20100, Tempo, 445964
1, 20194, Tempo, 453412
1, 20288, Tempo, 461077
1, 20382, Tempo, 469043
1, 20477, Tempo, 477289
1, 20571, Tempo, 485830
1, 20665, Tempo, 494682
1, 20759, Tempo, 503821
1, 20853, Tempo, 513347
1, 20948, Tempo, 523241
1, 21062, Tempo, 535714
1, 21240, Tempo, 400000
1, 35100, Tempo, 461538
1, 36180, Tempo, 400000
1, 43740, Tempo, 400000
1, 43824, Tempo, 406036
1, 43909, Tempo, 412229
1, 43993, Tempo, 418644
1, 44078, Tempo, 425260
1, 44162, Tempo, 432059
1, 44246, Tempo, 439110
1, 44331, Tempo, 446395
1, 44415, Tempo, 453892
1, 44499, Tempo, 461681
1, 44584, Tempo, 469741
1, 44668, Tempo, 478050
1, 44753, Tempo, 486697
1, 44837, Tempo, 495663
1, 44921, Tempo, 504923
1, 45006, Tempo, 514580
1, 45090, Tempo, 524567
1, 45180, Tempo, 535714
1, 45446, Tempo, 387097
1, 74520, Tempo, 387097
1, 74614, Tempo, 392850
1, 74709, Tempo, 398751
1, 74803, Tempo, 404858
1, 74897, Tempo, 411156
1, 74991, Tempo, 417624
1, 75086, Tempo, 424328
1, 75180, Tempo, 431220
1, 75274, Tempo, 438372
1, 75368, Tempo, 445765
1, 75462, Tempo, 453378
1, 75557, Tempo, 461290
1, 75651, Tempo, 469447
1, 75745, Tempo, 477935
1, 75839, Tempo, 486736
1, 75933, Tempo, 495827
1, 76028, Tempo, 505306
1, 76142, Tempo, 517241
1, 76320, Tempo, 400000
1, 85860, Tempo, 413793
1, 86040, Tempo, 413793
1, 86230, Tempo, 404313
1, 86420, Tempo, 395283
1, 86610, Tempo, 386623
1, 86799, Tempo, 378334
1, 86989, Tempo, 370416
1, 87179, Tempo, 362801
1, 87559, Tempo, 348473
1, 87749, Tempo, 341744
1, 87939, Tempo, 335252
1, 88128, Tempo, 329001
1, 88318, Tempo, 322997
1, 88508, Tempo, 317192
1, 88698, Tempo, 311591
1, 88888, Tempo, 306201
1, 89100, Time_signature, 12, 3, 12, 8
1, 89280, Tempo, 352941
1, 89282, Tempo, 295567
1, 93420, Time_signature, 9, 3, 12, 8
1, 93420, Tempo, 375000
1, 96660, Tempo, 387097
1, 100440, Tempo, 400000
1, 106560, Tempo, 375000
1, 156960, Tempo, 285714
1, 161460, Tempo, 285714
1, 161554, Tempo, 289967
1, 161649, Tempo, 294349
1, 161743, Tempo, 298864
1, 161837, Tempo, 303521
1, 161931, Tempo, 308325
1, 162026, Tempo, 313283
1, 162120, Tempo, 318404
1, 162214, Tempo, 323694
1, 162308, Tempo, 329164
1, 162402, Tempo, 334821
1, 162497, Tempo, 340677
1, 162591, Tempo, 346741
1, 162685, Tempo, 353024
1, 162779, Tempo, 359540
1, 162873, Tempo, 366300
1, 162968, Tempo, 373320
1, 163082, Tempo, 382166
1, 163260, Tempo, 461538
1, 166860, Tempo, 461538
1, 167040, Tempo, 461538
1, 167092, Tempo, 468421
1, 167144, Tempo, 475511
1, 167196, Tempo, 482820
1, 167248, Tempo, 490356
1, 167300, Tempo, 498132
1, 167352, Tempo, 506158
1, 167404, Tempo, 514492
1, 167456, Tempo, 523058
1, 167508, Tempo, 531915
1, 167561, Tempo, 541077
1, 167612, Tempo, 550560
1, 167664, Tempo, 560381
1, 167717, Tempo, 570559
1, 167769, Tempo, 581114
1, 167820, Tempo, 592066
1, 167873, Tempo, 603440
1, 167939, Tempo, 618557
1, 167940, Tempo, 461538
1, 169200, Tempo, 500000
1, 169200, End_track
2, 0, Start_track
2, 0, Title_t, "Piano"
2, 0, Program_c, 0, 0
2, 0, Control_c, 0, 7, 105
2, 0, Control_c, 0, 10, 63
2, 0, Control_c, 0, 91, 60
2, 0, Control_c, 0, 121, 0
2, 0, Control_c, 0, 121, 0
2, 0, Control_c, 0, 91, 60
2, 0, Control_c, 0, 10, 51
2, 0, Control_c, 0, 7, 100
2, 0, Control_c, 0, 64, 127
2, 0, Note_on_c, 0, 38, 50
2, 180, Note_on_c, 0, 38, 0
2, 180, Note_on_c, 0, 45, 64
2, 360, Note_on_c, 0, 45, 0
2, 360, Note_on_c, 0, 53, 65
2, 540, Note_on_c, 0, 53, 0
2, 540, Control_c, 0, 64, 0
2, 540, Note_on_c, 0, 62, 67
2, 540, Note_on_c, 0, 62, 73
2, 720, Note_on_c, 0, 62, 0
2, 720, Note_on_c, 0, 67, 54
2, 720, Note_on_c, 0, 74, 54
2, 720, Note_on_c, 0, 53, 52
2, 900, Note_on_c, 0, 53, 0
2, 900, Note_on_c, 0, 74, 0
2, 900, Note_on_c, 0, 67, 0
2, 900, Note_on_c, 0, 69, 64
2, 900, Note_on_c, 0, 76, 64
2, 900, Note_on_c, 0, 50, 58
2, 1014, Note_on_c, 0, 62, 0
2, 1080, Note_on_c, 0, 69, 0
2, 1080, Note_on_c, 0, 76, 0
2, 1080, Note_on_c, 0, 50, 0
2, 1080, Note_on_c, 0, 65, 66
2, 1080, Note_on_c, 0, 74, 66
2, 1080, Note_on_c, 0, 60, 68
2, 1080, Note_on_c, 0, 60, 73
2, 1260, Note_on_c, 0, 60, 0
2, 1260, Note_on_c, 0, 65, 0
2, 1260, Note_on_c, 0, 74, 0
2, 1260, Note_on_c, 0, 69, 68
2, 1260, Note_on_c, 0, 76, 68
2, 1260, Note_on_c, 0, 53, 59
2, 1440, Note_on_c, 0, 53, 0
2, 1440, Note_on_c, 0, 76, 0
2, 1440, Note_on_c, 0, 69, 0
2, 1440, Note_on_c, 0, 64, 53
2, 1440, Note_on_c, 0, 72, 53
2, 1440, Note_on_c, 0, 45, 54
2, 1554, Note_on_c, 0, 60, 0
2, 1620, Note_on_c, 0, 64, 0
2, 1620, Note_on_c, 0, 72, 0
2, 1620, Note_on_c, 0, 45, 0
2, 1620, Note_on_c, 0, 69, 78
2, 1620, Note_on_c, 0, 76, 78
2, 1620, Note_on_c, 0, 38, 54
2, 1800, Note_on_c, 0, 38, 0
2, 1800, Note_on_c, 0, 45, 70
2, 1980, Note_on_c, 0, 45, 0
2, 1980, Note_on_c, 0, 53, 67
2, 2094, Note_on_c, 0, 76, 0
2, 2094, Note_on_c, 0, 69, 0
2, 2160, Note_on_c, 0, 53, 0
2, 2160, Note_on_c, 0, 62, 64
2, 2160, Note_on_c, 0, 62, 74
2, 2340, Note_on_c, 0, 62, 0
2, 2340, Note_on_c, 0, 67, 52
2, 2340, Note_on_c, 0, 74, 52
2, 2340, Note_on_c, 0, 53, 60
2, 2520, Note_on_c, 0, 53, 0
2, 2520, Note_on_c, 0, 74, 0
2, 2520, Note_on_c, 0, 67, 0
2, 2520, Note_on_c, 0, 69, 60
2, 2520, Note_on_c, 0, 76, 60
2, 2520, Note_on_c, 0, 50, 56
2, 2634, Note_on_c, 0, 62, 0
2, 2700, Note_on_c, 0, 69, 0
2, 2700, Note_on_c, 0, 76, 0
2, 2700, Note_on_c, 0, 50, 0
2, 2700, Note_on_c, 0, 65, 60
2, 2700, Note_on_c, 0, 74, 60
2, 2700, Note_on_c, 0, 60, 64
2, 2700, Note_on_c, 0, 60, 73
2, 2880, Note_on_c, 0, 60, 0
2, 2880, Note_on_c, 0, 65, 0
2, 2880, Note_on_c, 0, 74, 0
2, 2880, Note_on_c, 0, 69, 65
2, 2880, Note_on_c, 0, 76, 65
2, 2880, Note_on_c, 0, 53, 56
2, 3060, Note_on_c, 0, 53, 0
2, 3060, Note_on_c, 0, 76, 0
2, 3060, Note_on_c, 0, 69, 0
2, 3060, Note_on_c, 0, 64, 52
2, 3060, Note_on_c, 0, 72, 52
2, 3060, Note_on_c, 0, 45, 53
2, 3174, Note_on_c, 0, 60, 0
2, 3240, Note_on_c, 0, 64, 0
2, 3240, Note_on_c, 0, 72, 0
2, 3240, Note_on_c, 0, 45, 0
2, 3240, Note_on_c, 0, 69, 78
2, 3240, Note_on_c, 0, 76, 78
2, 3240, Note_on_c, 0, 38, 47
2, 3420, Note_on_c, 0, 38, 0
2, 3420, Note_on_c, 0, 45, 66
2, 3600, Note_on_c, 0, 45, 0
2, 3600, Note_on_c, 0, 53, 60
2, 3714, Note_on_c, 0, 76, 0
2, 3714, Note_on_c, 0, 69, 0
2, 3780, Note_on_c, 0, 53, 0
2, 3780, Note_on_c, 0, 60, 67
2, 3780, Note_on_c, 0, 60, 69
2, 3960, Note_on_c, 0, 60, 0
2, 3960, Note_on_c, 0, 65, 52
2, 3960, Note_on_c, 0, 74, 52
2, 3960, Note_on_c, 0, 53, 61
2, 4140, Note_on_c, 0, 53, 0
2, 4140, Note_on_c, 0, 74, 0
2, 4140, Note_on_c, 0, 65, 0
2, 4140, Note_on_c, 0, 69, 60
2, 4140, Note_on_c, 0, 76, 60
2, 4140, Note_on_c, 0, 45, 55
2, 4254, Note_on_c, 0, 60, 0
2, 4320, Note_on_c, 0, 69, 0
2, 4320, Note_on_c, 0, 76, 0
2, 4320, Note_on_c, 0, 45, 0
2, 4320, Note_on_c, 0, 64, 58
2, 4320, Note_on_c, 0, 72, 58
2, 4320, Note_on_c, 0, 57, 68
2, 4320, Note_on_c, 0, 57, 66
2, 4500, Note_on_c, 0, 57, 0
2, 4500, Note_on_c, 0, 64, 0
2, 4500, Note_on_c, 0, 72, 0
2, 4500, Note_on_c, 0, 67, 64
2, 4500, Note_on_c, 0, 74, 64
2, 4500, Note_on_c, 0, 50, 53
2, 4680, Note_on_c, 0, 50, 0
2, 4680, Note_on_c, 0, 74, 0
2, 4680, Note_on_c, 0, 67, 0
2, 4680, Note_on_c, 0, 62, 55
2, 4680, Note_on_c, 0, 69, 55
2, 4680, Note_on_c, 0, 43, 49
2, 4794, Note_on_c, 0, 57, 0
2, 4860, Note_on_c, 0, 62, 0
2, 4860, Note_on_c, 0, 69, 0
2, 4860, Note_on_c, 0, 43, 0
2, 4860, Note_on_c, 0, 65, 75
2, 4860, Note_on_c, 0, 72, 75
2, 4860, Note_on_c, 0, 38, 54
2, 5040, Note_on_c, 0, 38, 0
2, 5040, Note_on_c, 0, 45, 66
2, 5220, Note_on_c, 0, 45, 0
2, 5220, Note_on_c, 0, 53, 65
2, 5334, Note_on_c, 0, 72, 0
2, 5334, Note_on_c, 0, 65, 0
2, 5400, Note_on_c, 0, 53, 0
2, 5400, Note_on_c, 0, 60, 65
2, 5400, Note_on_c, 0, 60, 74
2, 5580, Note_on_c, 0, 60, 0
2, 5580, Note_on_c, 0, 65, 57
2, 5580, Note_on_c, 0, 74, 57
2, 5580, Note_on_c, 0, 53, 59
2, 5760, Note_on_c, 0, 53, 0
2, 5760, Note_on_c, 0, 74, 0
2, 5760, Note_on_c, 0, 65, 0
2, 5760, Note_on_c, 0, 69, 60
2, 5760, Note_on_c, 0, 76, 60
2, 5760, Note_on_c, 0, 45, 54
2, 5874, Note_on_c, 0, 60, 0
2, 5940, Note_on_c, 0, 69, 0
2, 5940, Note_on_c, 0, 76, 0
2, 5940, Note_on_c, 0, 45, 0
2, 5940, Note_on_c, 0, 64, 57
2, 5940, Note_on_c, 0, 72, 57
2, 5940, Note_on_c, 0, 57, 67
2, 5940, Note_on_c, 0, 57, 70
2, 6120, Note_on_c, 0, 57, 0
2, 6120, Note_on_c, 0, 64, 0
2, 6120, Note_on_c, 0, 72, 0
2, 6120, Note_on_c, 0, 67, 69
2, 6120, Note_on_c, 0, 74, 69
2, 6120, Note_on_c, 0, 50, 57
2, 6300, Note_on_c, 0, 50, 0
2, 6300, Note_on_c, 0, 74, 0
2, 6300, Note_on_c, 0, 67, 0
2, 6300, Note_on_c, 0, 62, 49
2, 6300, Note_on_c, 0, 69, 49
2, 6300, Note_on_c, 0, 43, 59
2, 6414, Note_on_c, 0, 57, 0
2, 6480, Note_on_c, 0, 62, 0
2, 6480, Note_on_c, 0, 69, 0
2, 6480, Note_on_c, 0, 43, 0
2, 6480, Note_on_c, 0, 65, 76
2, 6480, Note_on_c, 0, 72, 76
2, 6480, Note_on_c, 0, 38, 59
2, 6660, Note_on_c, 0, 38, 0
2, 6660, Note_on_c, 0, 45, 68
2, 6840, Note_on_c, 0, 45, 0
2, 6840, Note_on_c, 0, 50, 62
2, 6954, Note_on_c, 0, 72, 0
2, 6954, Note_on_c, 0, 65, 0
2, 7020, Note_on_c, 0, 50, 0
2, 7020, Note_on_c, 0, 53, 64
2, 7020, Note_on_c, 0, 53, 63
2, 7200, Note_on_c, 0, 53, 0
2, 7200, Note_on_c, 0, 64, 56
2, 7200, Note_on_c, 0, 69, 56
2, 7200, Note_on_c, 0, 50, 58
2, 7380, Note_on_c, 0, 50, 0
2, 7380, Note_on_c, 0, 69, 0
2, 7380, Note_on_c, 0, 64, 0
2, 7380, Note_on_c, 0, 65, 65
2, 7380, Note_on_c, 0, 72, 65
2, 7380, Note_on_c, 0, 43, 58
2, 7494, Note_on_c, 0, 53, 0
2, 7560, Note_on_c, 0, 65, 0
2, 7560, Note_on_c, 0, 72, 0
2, 7560, Note_on_c, 0, 43, 0
2, 7560, Note_on_c, 0, 60, 52
2, 7560, Note_on_c, 0, 67, 52
2, 7560, Note_on_c, 0, 53, 71
2, 7560, Note_on_c, 0, 53, 70
2, 7740, Note_on_c, 0, 53, 0
2, 7740, Note_on_c, 0, 60, 0
2, 7740, Note_on_c, 0, 67, 0
2, 7740, Note_on_c, 0, 65, 57
2, 7740, Note_on_c, 0, 69, 57
2, 7740, Note_on_c, 0, 43, 51
2, 7920, Note_on_c, 0, 43, 0
2, 7920, Note_on_c, 0, 69, 0
2, 7920, Note_on_c, 0, 65, 0
2, 7920, Note_on_c, 0, 59, 56
2, 7920, Note_on_c, 0, 67, 56
2, 7920, Note_on_c, 0, 38, 56
2, 8034, Note_on_c, 0, 53, 0
2, 8100, Note_on_c, 0, 59, 0
2, 8100, Note_on_c, 0, 67, 0
2, 8100, Note_on_c, 0, 65, 62
2, 8100, Note_on_c, 0, 69, 62
2, 8280, Note_on_c, 0, 69, 0
2, 8280, Note_on_c, 0, 65, 0
2, 8280, Note_on_c, 0, 38, 0
2, 8280, Note_on_c, 0, 57, 51
2, 8280, Note_on_c, 0, 67, 51
2, 8280, Note_on_c, 0, 45, 66
2, 8460, Note_on_c, 0, 45, 0
2, 8460, Note_on_c, 0, 67, 0
2, 8460, Note_on_c, 0, 57, 0
2, 8460, Note_on_c, 0, 65, 63
2, 8460, Note_on_c, 0, 69, 63
2, 8460, Note_on_c, 0, 50, 63
2, 8640, Note_on_c, 0, 50, 0
2, 8640, Note_on_c, 0, 69, 0
2, 8640, Note_on_c, 0, 65, 0
2, 8640, Note_on_c, 0, 62, 67
2, 8640, Note_on_c, 0, 72, 67
2, 8640, Note_on_c, 0, 53, 65
2, 8820, Note_on_c, 0, 53, 0
2, 8820, Note_on_c, 0, 45, 55
2, 9000, Note_on_c, 0, 45, 0
2, 9000, Note_on_c, 0, 55, 65
2, 9180, Note_on_c, 0, 55, 0
2, 9180, Note_on_c, 0, 57, 64
2, 9360, Note_on_c, 0, 72, 0
2, 9360, Note_on_c, 0, 62, 0
2, 9360, Note_on_c, 0, 62, 60
2, 9360, Note_on_c, 0, 69, 60
2, 9540, Note_on_c, 0, 69, 0
2, 9540, Note_on_c, 0, 62, 0
2, 9540, Note_on_c, 0, 57, 0
2, 9540, Note_on_c, 0, 64, 63
2, 9540, Note_on_c, 0, 72, 63
2, 9540, Note_on_c, 0, 55, 58
2, 9720, Note_on_c, 0, 55, 0
2, 9720, Note_on_c, 0, 72, 0
2, 9720, Note_on_c, 0, 64, 0
2, 9720, Note_on_c, 0, 65, 66
2, 9720, Note_on_c, 0, 74, 66
2, 9720, Note_on_c, 0, 53, 51
2, 9900, Note_on_c, 0, 53, 0
2, 9900, Note_on_c, 0, 74, 0
2, 9900, Note_on_c, 0, 65, 0
2, 9900, Note_on_c, 0, 64, 68
2, 9900, Note_on_c, 0, 72, 68
2, 9900, Note_on_c, 0, 43, 55
2, 10080, Note_on_c, 0, 43, 0
2, 10080, Note_on_c, 0, 72, 0
2, 10080, Note_on_c, 0, 64, 0
2, 10080, Note_on_c, 0, 65, 71
2, 10080, Note_on_c, 0, 74, 71
2, 10080, Note_on_c, 0, 50, 65
2, 10260, Note_on_c, 0, 50, 0
2, 10260, Note_on_c, 0, 74, 0
2, 10260, Note_on_c, 0, 65, 0
2, 10260, Note_on_c, 0, 69, 73
2, 10260, Note_on_c, 0, 77, 73
2, 10260, Note_on_c, 0, 57, 65
2, 10440, Note_on_c, 0, 57, 0
2, 10440, Note_on_c, 0, 77, 0
2, 10440, Note_on_c, 0, 69, 0
2, 10440, Note_on_c, 0, 71, 76
2, 10440, Note_on_c, 0, 76, 76
2, 10440, Note_on_c, 0, 59, 66
2, 10620, Note_on_c, 0, 59, 0
2, 10620, Note_on_c, 0, 76, 0
2, 10620, Note_on_c, 0, 71, 0
2, 10620, Note_on_c, 0, 72, 78
2, 10620, Note_on_c, 0, 77, 78
2, 10620, Note_on_c, 0, 62, 68
2, 10800, Note_on_c, 0, 62, 0
2, 10800, Note_on_c, 0, 77, 0
2, 10800, Note_on_c, 0, 72, 0
2, 10800, Note_on_c, 0, 77, 81
2, 10800, Note_on_c, 0, 81, 81
2, 10800, Note_on_c, 0, 65, 65
2, 10980, Note_on_c, 0, 81, 0
2, 10980, Note_on_c, 0, 77, 0
2, 10980, Note_on_c, 0, 76, 83
2, 10980, Note_on_c, 0, 82, 83
2, 11160, Note_on_c, 0, 82, 0
2, 11160, Note_on_c, 0, 76, 0
2, 11160, Note_on_c, 0, 74, 86
2, 11160, Note_on_c, 0, 83, 86
2, 11340, Note_on_c, 0, 83, 0
2, 11340, Note_on_c, 0, 74, 0
2, 11340, Note_on_c, 0, 65, 0
2, 11340, Note_on_c, 0, 83, 89
2, 11340, Note_on_c, 0, 86, 89
2, 11340, Note_on_c, 0, 29, 54
2, 11520, Note_on_c, 0, 29, 0
2, 11520, Note_on_c, 0, 86, 0
2, 11520, Note_on_c, 0, 83, 0
2, 11520, Note_on_c, 0, 79, 76
2, 11520, Note_on_c, 0, 83, 76
2, 11520, Note_on_c, 0, 48, 66
2, 11700, Note_on_c, 0, 48, 0
2, 11700, Note_on_c, 0, 83, 0
2, 11700, Note_on_c, 0, 79, 0
2, 11700, Note_on_c, 0, 72, 85
2, 11700, Note_on_c, 0, 84, 85
2, 11700, Note_on_c, 0, 57, 66
2, 11880, Note_on_c, 0, 57, 0
2, 11880, Note_on_c, 0, 84, 0
2, 11880, Note_on_c, 0, 72, 0
2, 11880, Note_on_c, 0, 77, 74
2, 11880, Note_on_c, 0, 81, 74
2, 11880, Note_on_c, 0, 60, 64
2, 12060, Note_on_c, 0, 60, 0
2, 12060, Note_on_c, 0, 64, 68
2, 12240, Note_on_c, 0, 64, 0
2, 12240, Note_on_c, 0, 65, 67
2, 12420, Note_on_c, 0, 65, 0
2, 12420, Note_on_c, 0, 69, 68
2, 12600, Note_on_c, 0, 81, 0
2, 12600, Note_on_c, 0, 77, 0
2, 12600, Note_on_c, 0, 74, 88
2, 12600, Note_on_c, 0, 83, 88
2, 12780, Note_on_c, 0, 83, 0
2, 12780, Note_on_c, 0, 74, 0
2, 12780, Note_on_c, 0, 76, 91
2, 12780, Note_on_c, 0, 84, 91
2, 12960, Note_on_c, 0, 84, 0
2, 12960, Note_on_c, 0, 76, 0
2, 12960, Note_on_c, 0, 69, 0
2, 12960, Note_on_c, 0, 77, 83
2, 12960, Note_on_c, 0, 86, 83
2, 12960, Note_on_c, 0, 41, 58
2, 13140, Note_on_c, 0, 41, 0
2, 13140, Note_on_c, 0, 86, 0
2, 13140, Note_on_c, 0, 77, 0
2, 13140, Note_on_c, 0, 79, 80
2, 13140, Note_on_c, 0, 82, 80
2, 13140, Note_on_c, 0, 48, 67
2, 13320, Note_on_c, 0, 48, 0
2, 13320, Note_on_c, 0, 82, 0
2, 13320, Note_on_c, 0, 79, 0
2, 13320, Note_on_c, 0, 80, 77
2, 13320, Note_on_c, 0, 84, 77
2, 13320, Note_on_c, 0, 56, 64
2, 13500, Note_on_c, 0, 56, 0
2, 13500, Note_on_c, 0, 84, 0
2, 13500, Note_on_c, 0, 80, 0
2, 13500, Note_on_c, 0, 72, 74
2, 13500, Note_on_c, 0, 80, 74
2, 13500, Note_on_c, 0, 60, 66
2, 13680, Note_on_c, 0, 60, 0
2, 13680, Note_on_c, 0, 80, 0
2, 13680, Note_on_c, 0, 72, 0
2, 13680, Note_on_c, 0, 74, 71
2, 13680, Note_on_c, 0, 82, 71
2, 13680, Note_on_c, 0, 56, 53
2, 13860, Note_on_c, 0, 56, 0
2, 13860, Note_on_c, 0, 82, 0
2, 13860, Note_on_c, 0, 74, 0
2, 13860, Note_on_c, 0, 76, 67
2, 13860, Note_on_c, 0, 79, 67
2, 13860, Note_on_c, 0, 62, 69
2, 14040, Note_on_c, 0, 62, 0
2, 14040, Note_on_c, 0, 79, 0
2, 14040, Note_on_c, 0, 76, 0
2, 14040, Note_on_c, 0, 77, 64
2, 14040, Note_on_c, 0, 80, 64
2, 14040, Note_on_c, 0, 68, 66
2, 14220, Note_on_c, 0, 80, 0
2, 14220, Note_on_c, 0, 77, 0
2, 14220, Note_on_c, 0, 68, 61
2, 14220, Note_on_c, 0, 77, 61
2, 14400, Note_on_c, 0, 77, 0
2, 14400, Note_on_c, 0, 68, 0
2, 14400, Note_on_c, 0, 70, 58
2, 14400, Note_on_c, 0, 79, 58
2, 14580, Note_on_c, 0, 79, 0
2, 14580, Note_on_c, 0, 70, 0
2, 14580, Note_on_c, 0, 68, 0
2, 14580, Note_on_c, 0, 72, 56
2, 14580, Note_on_c, 0, 76, 56
2, 14580, Note_on_c, 0, 45, 55
2, 14760, Note_on_c, 0, 45, 0
2, 14760, Note_on_c, 0, 52, 62
2, 14940, Note_on_c, 0, 52, 0
2, 14940, Note_on_c, 0, 60, 73
2, 15120, Note_on_c, 0, 60, 0
2, 15120, Note_on_c, 0, 76, 0
2, 15120, Note_on_c, 0, 72, 0
2, 15120, Note_on_c, 0, 65, 87
2, 15300, Note_on_c, 0, 69, 56
2, 15300, Note_on_c, 0, 74, 56
2, 15437, Note_on_c, 0, 65, 0
2, 15480, Note_on_c, 0, 74, 0
2, 15480, Note_on_c, 0, 69, 0
2, 15480, Note_on_c, 0, 72, 62
2, 15480, Note_on_c, 0, 76, 62
2, 15480, Note_on_c, 0, 64, 57
2, 15660, Note_on_c, 0, 64, 0
2, 15660, Note_on_c, 0, 76, 0
2, 15660, Note_on_c, 0, 72, 0
2, 15660, Note_on_c, 0, 67, 59
2, 15660, Note_on_c, 0, 74, 59
2, 15660, Note_on_c, 0, 62, 56
2, 15840, Note_on_c, 0, 62, 0
2, 15840, Note_on_c, 0, 74, 0
2, 15840, Note_on_c, 0, 67, 0
2, 15840, Note_on_c, 0, 72, 62
2, 15840, Note_on_c, 0, 76, 62
2, 15840, Note_on_c, 0, 60, 60
2, 16020, Note_on_c, 0, 60, 0
2, 16020, Note_on_c, 0, 76, 0
2, 16020, Note_on_c, 0, 72, 0
2, 16020, Note_on_c, 0, 65, 58
2, 16020, Note_on_c, 0, 74, 58
2, 16020, Note_on_c, 0, 58, 60
2, 16200, Note_on_c, 0, 58, 0
2, 16200, Note_on_c, 0, 74, 0
2, 16200, Note_on_c, 0, 65, 0
2, 16200, Note_on_c, 0, 72, 77
2, 16200, Note_on_c, 0, 76, 77
2, 16200, Note_on_c, 0, 45, 47
2, 16358, Note_on_c, 0, 76, 0
2, 16358, Note_on_c, 0, 72, 0
2, 16380, Note_on_c, 0, 45, 0
2, 16380, Note_on_c, 0, 64, 44
2, 16380, Note_on_c, 0, 52, 66
2, 16380, Note_on_c, 0, 57, 66
2, 16560, Note_on_c, 0, 57, 0
2, 16560, Note_on_c, 0, 52, 0
2, 16560, Note_on_c, 0, 64, 0
2, 16560, Note_on_c, 0, 60, 63
2, 16740, Note_on_c, 0, 60, 0
2, 16740, Note_on_c, 0, 65, 79
2, 16920, Note_on_c, 0, 69, 56
2, 16920, Note_on_c, 0, 74, 56
2, 17057, Note_on_c, 0, 65, 0
2, 17100, Note_on_c, 0, 74, 0
2, 17100, Note_on_c, 0, 69, 0
2, 17100, Note_on_c, 0, 72, 68
2, 17100, Note_on_c, 0, 76, 68
2, 17100, Note_on_c, 0, 64, 60
2, 17280, Note_on_c, 0, 64, 0
2, 17280, Note_on_c, 0, 76, 0
2, 17280, Note_on_c, 0, 72, 0
2, 17280, Note_on_c, 0, 67, 62
2, 17280, Note_on_c, 0, 74, 62
2, 17280, Note_on_c, 0, 62, 56
2, 17460, Note_on_c, 0, 62, 0
2, 17460, Note_on_c, 0, 74, 0
2, 17460, Note_on_c, 0, 67, 0
2, 17460, Note_on_c, 0, 72, 64
2, 17460, Note_on_c, 0, 76, 64
2, 17460, Note_on_c, 0, 60, 60
2, 17640, Note_on_c, 0, 60, 0
2, 17640, Note_on_c, 0, 76, 0
2, 17640, Note_on_c, 0, 72, 0
2, 17640, Note_on_c, 0, 65, 54
2, 17640, Note_on_c, 0, 74, 54
2, 17640, Note_on_c, 0, 58, 59
2, 17820, Note_on_c, 0, 58, 0
2, 17820, Note_on_c, 0, 74, 0
2, 17820, Note_on_c, 0, 65, 0
2, 17820, Note_on_c, 0, 72, 76
2, 17820, Note_on_c, 0, 76, 76
2, 17820, Note_on_c, 0, 41, 51
2, 17978, Note_on_c, 0, 76, 0
2, 17978, Note_on_c, 0, 72, 0
2, 18000, Note_on_c, 0, 41, 0
2, 18000, Note_on_c, 0, 64, 48
2, 18000, Note_on_c, 0, 48, 66
2, 18000, Note_on_c, 0, 57, 66
2, 18180, Note_on_c, 0, 57, 0
2, 18180, Note_on_c, 0, 48, 0
2, 18180, Note_on_c, 0, 64, 0
2, 18180, Note_on_c, 0, 60, 69
2, 18360, Note_on_c, 0, 60, 0
2, 18360, Note_on_c, 0, 64, 79
2, 18540, Note_on_c, 0, 74, 54
2, 18540, Note_on_c, 0, 69, 52
2, 18540, Note_on_c, 0, 72, 52
2, 18677, Note_on_c, 0, 64, 0
2, 18720, Note_on_c, 0, 74, 0
2, 18720, Note_on_c, 0, 69, 0
2, 18720, Note_on_c, 0, 72, 0
2, 18720, Note_on_c, 0, 76, 66
2, 18720, Note_on_c, 0, 67, 53
2, 18720, Note_on_c, 0, 70, 53
2, 18720, Note_on_c, 0, 62, 57
2, 18900, Note_on_c, 0, 62, 0
2, 18900, Note_on_c, 0, 76, 0
2, 18900, Note_on_c, 0, 67, 0
2, 18900, Note_on_c, 0, 70, 0
2, 18900, Note_on_c, 0, 72, 53
2, 18900, Note_on_c, 0, 65, 57
2, 18900, Note_on_c, 0, 69, 57
2, 18900, Note_on_c, 0, 60, 58
2, 19080, Note_on_c, 0, 60, 0
2, 19080, Note_on_c, 0, 72, 0
2, 19080, Note_on_c, 0, 65, 0
2, 19080, Note_on_c, 0, 69, 0
2, 19080, Note_on_c, 0, 76, 67
2, 19080, Note_on_c, 0, 64, 61
2, 19080, Note_on_c, 0, 68, 61
2, 19080, Note_on_c, 0, 59, 60
2, 19260, Note_on_c, 0, 59, 0
2, 19260, Note_on_c, 0, 76, 0
2, 19260, Note_on_c, 0, 64, 0
2, 19260, Note_on_c, 0, 68, 0
2, 19260, Note_on_c, 0, 70, 48
2, 19260, Note_on_c, 0, 63, 57
2, 19260, Note_on_c, 0, 67, 57
2, 19260, Note_on_c, 0, 58, 64
2, 19440, Note_on_c, 0, 58, 0
2, 19440, Note_on_c, 0, 70, 0
2, 19440, Note_on_c, 0, 63, 0
2, 19440, Note_on_c, 0, 67, 0
2, 19440, Control_c, 0, 64, 127
2, 19440, Note_on_c, 0, 69, 83
2, 19440, Note_on_c, 0, 76, 83
2, 19440, Note_on_c, 0, 41, 55
2, 19598, Note_on_c, 0, 76, 0
2, 19598, Note_on_c, 0, 69, 0
2, 19620, Note_on_c, 0, 41, 0
2, 19620, Control_c, 0, 64, 0
2, 19620, Note_on_c, 0, 64, 44
2, 19620, Note_on_c, 0, 48, 69
2, 19620, Note_on_c, 0, 57, 69
2, 19800, Note_on_c, 0, 57, 0
2, 19800, Note_on_c, 0, 48, 0
2, 19800, Note_on_c, 0, 64, 0
2, 19800, Note_on_c, 0, 60, 66
2, 19980, Note_on_c, 0, 60, 0
2, 19980, Note_on_c, 0, 64, 78
2, 20160, Note_on_c, 0, 74, 59
2, 20160, Note_on_c, 0, 69, 55
2, 20160, Note_on_c, 0, 72, 55
2, 20297, Note_on_c, 0, 64, 0
2, 20340, Note_on_c, 0, 74, 0
2, 20340, Note_on_c, 0, 69, 0
2, 20340, Note_on_c, 0, 72, 0
2, 20340, Note_on_c, 0, 76, 68
2, 20340, Note_on_c, 0, 67, 57
2, 20340, Note_on_c, 0, 70, 57
2, 20340, Note_on_c, 0, 62, 60
2, 20520, Note_on_c, 0, 62, 0
2, 20520, Note_on_c, 0, 76, 0
2, 20520, Note_on_c, 0, 67, 0
2, 20520, Note_on_c, 0, 70, 0
2, 20520, Note_on_c, 0, 72, 54
2, 20520, Note_on_c, 0, 65, 54
2, 20520, Note_on_c, 0, 69, 54
2, 20520, Note_on_c, 0, 60, 55
2, 20700, Note_on_c, 0, 60, 0
2, 20700, Note_on_c, 0, 72, 0
2, 20700, Note_on_c, 0, 65, 0
2, 20700, Note_on_c, 0, 69, 0
2, 20700, Note_on_c, 0, 76, 68
2, 20700, Note_on_c, 0, 64, 58
2, 20700, Note_on_c, 0, 68, 58
2, 20700, Note_on_c, 0, 59, 52
2, 20880, Note_on_c, 0, 59, 0
2, 20880, Note_on_c, 0, 76, 0
2, 20880, Note_on_c, 0, 64, 0
2, 20880, Note_on_c, 0, 68, 0
2, 20880, Note_on_c, 0, 70, 47
2, 20880, Note_on_c, 0, 63, 55
2, 20880, Note_on_c, 0, 67, 55
2, 20880, Note_on_c, 0, 58, 58
2, 21060, Note_on_c, 0, 58, 0
2, 21060, Note_on_c, 0, 70, 0
2, 21060, Note_on_c, 0, 63, 0
2, 21060, Note_on_c, 0, 67, 0
2, 21060, Note_on_c, 0, 69, 78
2, 21060, Note_on_c, 0, 76, 78
2, 21060, Control_c, 0, 64, 127
2, 21060, Note_on_c, 0, 38, 53
2, 21218, Note_on_c, 0, 76, 0
2, 21218, Note_on_c, 0, 69, 0
2, 21240, Note_on_c, 0, 38, 0
2, 21240, Note_on_c, 0, 57, 48
2, 21240, Note_on_c, 0, 64, 48
2, 21240, Note_on_c, 0, 69, 48
2, 21240, Note_on_c, 0, 45, 65
2, 21420, Note_on_c, 0, 45, 0
2, 21420, Note_on_c, 0, 53, 69
2, 21600, Note_on_c, 0, 53, 0
2, 21600, Note_on_c, 0, 69, 0
2, 21600, Note_on_c, 0, 64, 0
2, 21600, Note_on_c, 0, 57, 0
2, 21600, Control_c, 0, 64, 0
2, 21600, Note_on_c, 0, 60, 52
2, 21600, Note_on_c, 0, 60, 74
2, 21780, Note_on_c, 0, 60, 0
2, 21780, Note_on_c, 0, 67, 55
2, 21780, Note_on_c, 0, 74, 55
2, 21780, Note_on_c, 0, 53, 56
2, 21960, Note_on_c, 0, 53, 0
2, 21960, Note_on_c, 0, 74, 0
2, 21960, Note_on_c, 0, 67, 0
2, 21960, Note_on_c, 0, 69, 64
2, 21960, Note_on_c, 0, 76, 64
2, 21960, Note_on_c, 0, 50, 59
2, 22140, Note_on_c, 0, 50, 0
2, 22140, Note_on_c, 0, 60, 0
2, 22140, Note_on_c, 0, 69, 0
2, 22140, Note_on_c, 0, 76, 0
2, 22140, Note_on_c, 0, 65, 55
2, 22140, Note_on_c, 0, 74, 55
2, 22140, Note_on_c, 0, 57, 53
2, 22140, Note_on_c, 0, 57, 65
2, 22320, Note_on_c, 0, 57, 0
2, 22320, Note_on_c, 0, 65, 0
2, 22320, Note_on_c, 0, 74, 0
2, 22320, Note_on_c, 0, 69, 65
2, 22320, Note_on_c, 0, 76, 65
2, 22320, Note_on_c, 0, 53, 59
2, 22500, Note_on_c, 0, 53, 0
2, 22500, Note_on_c, 0, 76, 0
2, 22500, Note_on_c, 0, 69, 0
2, 22500, Note_on_c, 0, 64, 56
2, 22500, Note_on_c, 0, 72, 56
2, 22500, Note_on_c, 0, 45, 55
2, 22680, Note_on_c, 0, 45, 0
2, 22680, Note_on_c, 0, 57, 0
2, 22680, Note_on_c, 0, 64, 0
2, 22680, Note_on_c, 0, 72, 0
2, 22680, Note_on_c, 0, 69, 79
2, 22680, Note_on_c, 0, 76, 79
2, 22680, Note_on_c, 0, 38, 48
2, 22838, Note_on_c, 0, 76, 0
2, 22838, Note_on_c, 0, 69, 0
2, 22860, Note_on_c, 0, 38, 0
2, 22860, Note_on_c, 0, 57, 52
2, 22860, Note_on_c, 0, 64, 52
2, 22860, Note_on_c, 0, 69, 52
2, 22860, Note_on_c, 0, 45, 61
2, 23040, Note_on_c, 0, 45, 0
2, 23040, Note_on_c, 0, 53, 71
2, 23220, Note_on_c, 0, 53, 0
2, 23220, Note_on_c, 0, 69, 0
2, 23220, Note_on_c, 0, 64, 0
2, 23220, Note_on_c, 0, 57, 0
2, 23220, Note_on_c, 0, 60, 57
2, 23220, Note_on_c, 0, 60, 69
2, 23400, Note_on_c, 0, 60, 0
2, 23400, Note_on_c, 0, 67, 53
2, 23400, Note_on_c, 0, 74, 53
2, 23400, Note_on_c, 0, 53, 54
2, 23580, Note_on_c, 0, 53, 0
2, 23580, Note_on_c, 0, 74, 0
2, 23580, Note_on_c, 0, 67, 0
2, 23580, Note_on_c, 0, 69, 64
2, 23580, Note_on_c, 0, 76, 64
2, 23580, Note_on_c, 0, 50, 58
2, 23760, Note_on_c, 0, 50, 0
2, 23760, Note_on_c, 0, 60, 0
2, 23760, Note_on_c, 0, 69, 0
2, 23760, Note_on_c, 0, 76, 0
2, 23760, Note_on_c, 0, 65, 58
2, 23760, Note_on_c, 0, 74, 58
2, 23760, Note_on_c, 0, 57, 58
2, 23760, Note_on_c, 0, 57, 69
2, 23940, Note_on_c, 0, 57, 0
2, 23940, Note_on_c, 0, 65, 0
2, 23940, Note_on_c, 0, 74, 0
2, 23940, Note_on_c, 0, 69, 67
2, 23940, Note_on_c, 0, 76, 67
2, 23940, Note_on_c, 0, 53, 55
2, 24120, Note_on_c, 0, 53, 0
2, 24120, Note_on_c, 0, 76, 0
2, 24120, Note_on_c, 0, 69, 0
2, 24120, Note_on_c, 0, 64, 51
2, 24120, Note_on_c, 0, 72, 51
2, 24120, Note_on_c, 0, 45, 56
2, 24300, Note_on_c, 0, 45, 0
2, 24300, Note_on_c, 0, 57, 0
2, 24300, Note_on_c, 0, 64, 0
2, 24300, Note_on_c, 0, 72, 0
2, 24300, Note_on_c, 0, 69, 79
2, 24300, Note_on_c, 0, 76, 79
2, 24300, Note_on_c, 0, 38, 54
2, 24458, Note_on_c, 0, 76, 0
2, 24458, Note_on_c, 0, 69, 0
2, 24480, Note_on_c, 0, 38, 0
2, 24480, Note_on_c, 0, 57, 50
2, 24480, Note_on_c, 0, 64, 50
2, 24480, Note_on_c, 0, 69, 50
2, 24480, Note_on_c, 0, 45, 67
2, 24660, Note_on_c, 0, 45, 0
2, 24660, Note_on_c, 0, 50, 60
2, 24840, Note_on_c, 0, 50, 0
2, 24840, Note_on_c, 0, 69, 0
2, 24840, Note_on_c, 0, 64, 0
2, 24840, Note_on_c, 0, 57, 0
2, 24840, Note_on_c, 0, 57, 52
2, 24840, Note_on_c, 0, 57, 67
2, 25020, Note_on_c, 0, 57, 0
2, 25020, Note_on_c, 0, 65, 57
2, 25020, Note_on_c, 0, 74, 57
2, 25020, Note_on_c, 0, 50, 57
2, 25200, Note_on_c, 0, 50, 0
2, 25200, Note_on_c, 0, 74, 0
2, 25200, Note_on_c, 0, 65, 0
2, 25200, Note_on_c, 0, 69, 65
2, 25200, Note_on_c, 0, 76, 65
2, 25200, Note_on_c, 0, 43, 55
2, 25380, Note_on_c, 0, 43, 0
2, 25380, Note_on_c, 0, 57, 0
2, 25380, Note_on_c, 0, 69, 0
2, 25380, Note_on_c, 0, 76, 0
2, 25380, Note_on_c, 0, 64, 53
2, 25380, Note_on_c, 0, 72, 53
2, 25380, Note_on_c, 0, 53, 53
2, 25380, Note_on_c, 0, 53, 64
2, 25560, Note_on_c, 0, 53, 0
2, 25560, Note_on_c, 0, 64, 0
2, 25560, Note_on_c, 0, 72, 0
2, 25560, Note_on_c, 0, 67, 60
2, 25560, Note_on_c, 0, 74, 60
2, 25560, Note_on_c, 0, 43, 54
2, 25740, Note_on_c, 0, 43, 0
2, 25740, Note_on_c, 0, 74, 0
2, 25740, Note_on_c, 0, 67, 0
2, 25740, Note_on_c, 0, 62, 53
2, 25740, Note_on_c, 0, 69, 53
2, 25740, Note_on_c, 0, 38, 55
2, 25920, Note_on_c, 0, 69, 0
2, 25920, Note_on_c, 0, 53, 0
2, 25920, Note_on_c, 0, 62, 0
2, 25920, Note_on_c, 0, 65, 79
2, 25920, Note_on_c, 0, 72, 79
2, 26078, Note_on_c, 0, 72, 0
2, 26078, Note_on_c, 0, 65, 0
2, 26100, Note_on_c, 0, 38, 0
2, 26100, Note_on_c, 0, 57, 47
2, 26100, Note_on_c, 0, 65, 47
2, 26100, Note_on_c, 0, 45, 66
2, 26280, Note_on_c, 0, 45, 0
2, 26280, Note_on_c, 0, 50, 64
2, 26460, Note_on_c, 0, 50, 0
2, 26460, Note_on_c, 0, 65, 0
2, 26460, Note_on_c, 0, 57, 0
2, 26460, Note_on_c, 0, 57, 52
2, 26460, Note_on_c, 0, 57, 67
2, 26640, Note_on_c, 0, 57, 0
2, 26640, Note_on_c, 0, 65, 51
2, 26640, Note_on_c, 0, 74, 51
2, 26640, Note_on_c, 0, 50, 54
2, 26820, Note_on_c, 0, 50, 0
2, 26820, Note_on_c, 0, 74, 0
2, 26820, Note_on_c, 0, 65, 0
2, 26820, Note_on_c, 0, 69, 61
2, 26820, Note_on_c, 0, 76, 61
2, 26820, Note_on_c, 0, 43, 57
2, 27000, Note_on_c, 0, 43, 0
2, 27000, Note_on_c, 0, 57, 0
2, 27000, Note_on_c, 0, 69, 0
2, 27000, Note_on_c, 0, 76, 0
2, 27000, Note_on_c, 0, 64, 52
2, 27000, Note_on_c, 0, 72, 52
2, 27000, Note_on_c, 0, 53, 60
2, 27000, Note_on_c, 0, 53, 67
2, 27180, Note_on_c, 0, 53, 0
2, 27180, Note_on_c, 0, 64, 0
2, 27180, Note_on_c, 0, 72, 0
2, 27180, Note_on_c, 0, 67, 64
2, 27180, Note_on_c, 0, 74, 64
2, 27180, Note_on_c, 0, 43, 57
2, 27360, Note_on_c, 0, 43, 0
2, 27360, Note_on_c, 0, 74, 0
2, 27360, Note_on_c, 0, 67, 0
2, 27360, Note_on_c, 0, 62, 57
2, 27360, Note_on_c, 0, 69, 57
2, 27360, Note_on_c, 0, 38, 54
2, 27540, Note_on_c, 0, 69, 0
2, 27540, Note_on_c, 0, 53, 0
2, 27540, Note_on_c, 0, 62, 0
2, 27540, Note_on_c, 0, 65, 80
2, 27540, Note_on_c, 0, 72, 80
2, 27698, Note_on_c, 0, 72, 0
2, 27698, Note_on_c, 0, 65, 0
2, 27720, Note_on_c, 0, 38, 0
2, 27720, Note_on_c, 0, 57, 54
2, 27720, Note_on_c, 0, 65, 54
2, 27720, Note_on_c, 0, 45, 60
2, 27900, Note_on_c, 0, 45, 0
2, 27900, Note_on_c, 0, 50, 63
2, 28080, Note_on_c, 0, 50, 0
2, 28080, Note_on_c, 0, 65, 0
2, 28080, Note_on_c, 0, 57, 0
2, 28080, Note_on_c, 0, 53, 55
2, 28080, Note_on_c, 0, 53, 62
2, 28260, Note_on_c, 0, 53, 0
2, 28260, Note_on_c, 0, 60, 50
2, 28260, Note_on_c, 0, 69, 50
2, 28260, Note_on_c, 0, 50, 58
2, 28440, Note_on_c, 0, 50, 0
2, 28440, Note_on_c, 0, 69, 0
2, 28440, Note_on_c, 0, 60, 0
2, 28440, Note_on_c, 0, 65, 65
2, 28440, Note_on_c, 0, 72, 65
2, 28440, Note_on_c, 0, 43, 54
2, 28620, Note_on_c, 0, 43, 0
2, 28620, Note_on_c, 0, 53, 0
2, 28620, Note_on_c, 0, 65, 0
2, 28620, Note_on_c, 0, 72, 0
2, 28620, Note_on_c, 0, 59, 57
2, 28620, Note_on_c, 0, 67, 57
2, 28620, Note_on_c, 0, 50, 60
2, 28620, Note_on_c, 0, 50, 64
2, 28800, Note_on_c, 0, 50, 0
2, 28800, Note_on_c, 0, 59, 0
2, 28800, Note_on_c, 0, 67, 0
2, 28800, Note_on_c, 0, 65, 67
2, 28800, Note_on_c, 0, 69, 67
2, 28800, Note_on_c, 0, 43, 55
2, 28980, Note_on_c, 0, 43, 0
2, 28980, Note_on_c, 0, 69, 0
2, 28980, Note_on_c, 0, 65, 0
2, 28980, Note_on_c, 0, 57, 53
2, 28980, Note_on_c, 0, 67, 53
2, 28980, Note_on_c, 0, 38, 59
2, 29160, Note_on_c, 0, 38, 0
2, 29160, Note_on_c, 0, 50, 0
2, 29160, Note_on_c, 0, 57, 0
2, 29160, Note_on_c, 0, 67, 0
2, 29160, Note_on_c, 0, 65, 61
2, 29160, Note_on_c, 0, 69, 61
2, 29160, Note_on_c, 0, 38, 55
2, 29340, Note_on_c, 0, 38, 0
2, 29340, Note_on_c, 0, 69, 0
2, 29340, Note_on_c, 0, 65, 0
2, 29340, Note_on_c, 0, 62, 55
2, 29340, Note_on_c, 0, 67, 55
2, 29340, Note_on_c, 0, 45, 64
2, 29520, Note_on_c, 0, 45, 0
2, 29520, Note_on_c, 0, 67, 0
2, 29520, Note_on_c, 0, 62, 0
2, 29520, Note_on_c, 0, 64, 58
2, 29520, Note_on_c, 0, 69, 58
2, 29520, Note_on_c, 0, 52, 65
2, 29700, Note_on_c, 0, 52, 0
2, 29700, Note_on_c, 0, 69, 0
2, 29700, Note_on_c, 0, 64, 0
2, 29700, Note_on_c, 0, 65, 68
2, 29700, Note_on_c, 0, 72, 68
2, 29700, Note_on_c, 0, 53, 61
2, 29880, Note_on_c, 0, 53, 0
2, 29880, Note_on_c, 0, 45, 55
2, 30060, Note_on_c, 0, 45, 0
2, 30060, Note_on_c, 0, 55, 68
2, 30240, Note_on_c, 0, 55, 0
2, 30240, Note_on_c, 0, 57, 62
2, 30420, Note_on_c, 0, 72, 0
2, 30420, Note_on_c, 0, 65, 0
2, 30420, Note_on_c, 0, 64, 60
2, 30420, Note_on_c, 0, 69, 60
2, 30600, Note_on_c, 0, 69, 0
2, 30600, Note_on_c, 0, 64, 0
2, 30600, Note_on_c, 0, 57, 0
2, 30600, Note_on_c, 0, 65, 61
2, 30600, Note_on_c, 0, 72, 61
2, 30600, Note_on_c, 0, 55, 59
2, 30780, Note_on_c, 0, 55, 0
2, 30780, Note_on_c, 0, 72, 0
2, 30780, Note_on_c, 0, 65, 0
2, 30780, Note_on_c, 0, 69, 62
2, 30780, Note_on_c, 0, 74, 62
2, 30780, Note_on_c, 0, 53, 56
2, 30960, Note_on_c, 0, 53, 0
2, 30960, Note_on_c, 0, 74, 0
2, 30960, Note_on_c, 0, 69, 0
2, 30960, Note_on_c, 0, 67, 63
2, 30960, Note_on_c, 0, 72, 63
2, 30960, Note_on_c, 0, 43, 56
2, 31140, Note_on_c, 0, 43, 0
2, 31140, Note_on_c, 0, 72, 0
2, 31140, Note_on_c, 0, 67, 0
2, 31140, Note_on_c, 0, 69, 64
2, 31140, Note_on_c, 0, 74, 64
2, 31140, Note_on_c, 0, 50, 61
2, 31320, Note_on_c, 0, 50, 0
2, 31320, Note_on_c, 0, 74, 0
2, 31320, Note_on_c, 0, 69, 0
2, 31320, Note_on_c, 0, 71, 65
2, 31320, Note_on_c, 0, 77, 65
2, 31320, Note_on_c, 0, 53, 64
2, 31500, Note_on_c, 0, 53, 0
2, 31500, Note_on_c, 0, 77, 0
2, 31500, Note_on_c, 0, 71, 0
2, 31500, Note_on_c, 0, 72, 66
2, 31500, Note_on_c, 0, 76, 66
2, 31500, Note_on_c, 0, 57, 69
2, 31680, Note_on_c, 0, 57, 0
2, 31680, Note_on_c, 0, 76, 0
2, 31680, Note_on_c, 0, 72, 0
2, 31680, Note_on_c, 0, 74, 67
2, 31680, Note_on_c, 0, 77, 67
2, 31680, Note_on_c, 0, 59, 65
2, 31860, Note_on_c, 0, 59, 0
2, 31860, Note_on_c, 0, 77, 0
2, 31860, Note_on_c, 0, 74, 0
2, 31860, Note_on_c, 0, 77, 67
2, 31860, Note_on_c, 0, 81, 67
2, 31860, Note_on_c, 0, 62, 69
2, 32040, Note_on_c, 0, 62, 0
2, 32040, Note_on_c, 0, 64, 67
2, 32220, Note_on_c, 0, 64, 0
2, 32220, Note_on_c, 0, 65, 66
2, 32400, Note_on_c, 0, 57, 71
2, 32400, Note_on_c, 0, 69, 71
2, 32400, Note_on_c, 0, 41, 74
2, 32400, Note_on_c, 0, 48, 74
2, 32580, Note_on_c, 0, 81, 0
2, 32580, Note_on_c, 0, 77, 0
2, 32580, Note_on_c, 0, 74, 71
2, 32580, Note_on_c, 0, 76, 71
2, 32760, Note_on_c, 0, 76, 0
2, 32760, Note_on_c, 0, 65, 0
2, 32760, Note_on_c, 0, 48, 0
2, 32760, Note_on_c, 0, 69, 0
2, 32760, Note_on_c, 0, 57, 0
2, 32760, Note_on_c, 0, 74, 0
2, 32760, Note_on_c, 0, 41, 0
2, 32760, Note_on_c, 0, 71, 72
2, 32760, Note_on_c, 0, 77, 72
2, 32760, Note_on_c, 0, 48, 53
2, 32760, Note_on_c, 0, 57, 53
2, 32940, Note_on_c, 0, 57, 0
2, 32940, Note_on_c, 0, 71, 0
2, 32940, Note_on_c, 0, 77, 0
2, 32940, Note_on_c, 0, 48, 0
2, 32940, Note_on_c, 0, 72, 73
2, 32940, Note_on_c, 0, 81, 73
2, 32940, Note_on_c, 0, 60, 64
2, 33120, Note_on_c, 0, 60, 0
2, 33120, Note_on_c, 0, 64, 69
2, 33300, Note_on_c, 0, 64, 0
2, 33300, Note_on_c, 0, 65, 59
2, 33480, Note_on_c, 0, 65, 0
2, 33480, Note_on_c, 0, 69, 68
2, 33660, Note_on_c, 0, 81, 0
2, 33660, Note_on_c, 0, 72, 0
2, 33660, Note_on_c, 0, 71, 76
2, 33660, Note_on_c, 0, 79, 76
2, 33840, Note_on_c, 0, 79, 0
2, 33840, Note_on_c, 0, 71, 0
2, 33840, Note_on_c, 0, 72, 77
2, 33840, Note_on_c, 0, 81, 77
2, 34020, Note_on_c, 0, 81, 0
2, 34020, Note_on_c, 0, 72, 0
2, 34020, Note_on_c, 0, 69, 0
2, 34020, Note_on_c, 0, 74, 78
2, 34020, Note_on_c, 0, 84, 78
2, 34020, Note_on_c, 0, 38, 52
2, 34020, Note_on_c, 0, 45, 52
2, 34200, Note_on_c, 0, 45, 0
2, 34200, Note_on_c, 0, 74, 0
2, 34200, Note_on_c, 0, 84, 0
2, 34200, Note_on_c, 0, 38, 0
2, 34200, Note_on_c, 0, 76, 79
2, 34200, Note_on_c, 0, 79, 79
2, 34200, Note_on_c, 0, 53, 63
2, 34380, Note_on_c, 0, 53, 0
2, 34380, Note_on_c, 0, 79, 0
2, 34380, Note_on_c, 0, 76, 0
2, 34380, Note_on_c, 0, 77, 80
2, 34380, Note_on_c, 0, 81, 80
2, 34380, Note_on_c, 0, 57, 62
2, 34560, Note_on_c, 0, 57, 0
2, 34560, Note_on_c, 0, 81, 0
2, 34560, Note_on_c, 0, 77, 0
2, 34560, Note_on_c, 0, 76, 81
2, 34560, Note_on_c, 0, 84, 81
2, 34560, Note_on_c, 0, 62, 71
2, 34740, Note_on_c, 0, 62, 0
2, 34740, Note_on_c, 0, 84, 0
2, 34740, Note_on_c, 0, 76, 0
2, 34740, Note_on_c, 0, 77, 81
2, 34740, Note_on_c, 0, 81, 81
2, 34740, Note_on_c, 0, 65, 70
2, 34920, Note_on_c, 0, 65, 0
2, 34920, Note_on_c, 0, 81, 0
2, 34920, Note_on_c, 0, 77, 0
2, 34920, Note_on_c, 0, 79, 82
2, 34920, Note_on_c, 0, 84, 82
2, 34920, Note_on_c, 0, 69, 68
2, 35100, Note_on_c, 0, 69, 0
2, 35100, Note_on_c, 0, 84, 0
2, 35100, Note_on_c, 0, 79, 0
2, 35100, Note_on_c, 0, 82, 83
2, 35100, Note_on_c, 0, 86, 83
2, 35100, Note_on_c, 0, 60, 66
2, 35100, Note_on_c, 0, 64, 66
2, 35100, Note_on_c, 0, 70, 66
2, 35280, Note_on_c, 0, 86, 0
2, 35280, Note_on_c, 0, 82, 0
2, 35280, Note_on_c, 0, 79, 84
2, 35280, Note_on_c, 0, 87, 84
2, 35460, Note_on_c, 0, 87, 0
2, 35460, Note_on_c, 0, 64, 0
2, 35460, Note_on_c, 0, 70, 0
2, 35460, Note_on_c, 0, 60, 0
2, 35460, Note_on_c, 0, 79, 0
2, 35460, Note_on_c, 0, 84, 85
2, 35460, Note_on_c, 0, 88, 85
2, 35460, Note_on_c, 0, 72, 61
2, 35640, Note_on_c, 0, 72, 0
2, 35640, Note_on_c, 0, 88, 0
2, 35640, Note_on_c, 0, 84, 0
2, 35640, Note_on_c, 0, 88, 106
2, 35640, Note_on_c, 0, 91, 106
2, 35640, Note_on_c, 0, 34, 56
2, 35640, Note_on_c, 0, 41, 56
2, 35820, Note_on_c, 0, 41, 0
2, 35820, Note_on_c, 0, 88, 0
2, 35820, Note_on_c, 0, 91, 0
2, 35820, Note_on_c, 0, 34, 0
2, 35820, Note_on_c, 0, 84, 86
2, 35820, Note_on_c, 0, 88, 86
2, 35820, Note_on_c, 0, 50, 65
2, 36000, Note_on_c, 0, 50, 0
2, 36000, Note_on_c, 0, 88, 0
2, 36000, Note_on_c, 0, 84, 0
2, 36000, Note_on_c, 0, 77, 102
2, 36000, Note_on_c, 0, 89, 102
2, 36000, Note_on_c, 0, 53, 64
2, 36180, Note_on_c, 0, 53, 0
2, 36180, Note_on_c, 0, 89, 0
2, 36180, Note_on_c, 0, 77, 0
2, 36180, Note_on_c, 0, 82, 83
2, 36180, Note_on_c, 0, 86, 83
2, 36180, Note_on_c, 0, 41, 52
2, 36360, Note_on_c, 0, 41, 0
2, 36360, Note_on_c, 0, 62, 74
2, 36540, Note_on_c, 0, 62, 0
2, 36540, Note_on_c, 0, 50, 56
2, 36720, Note_on_c, 0, 50, 0
2, 36720, Note_on_c, 0, 74, 75
2, 36900, Note_on_c, 0, 86, 0
2, 36900, Note_on_c, 0, 82, 0
2, 36900, Note_on_c, 0, 79, 101
2, 36900, Note_on_c, 0, 88, 101
2, 37080, Note_on_c, 0, 88, 0
2, 37080, Note_on_c, 0, 79, 0
2, 37080, Note_on_c, 0, 81, 95
2, 37080, Note_on_c, 0, 89, 95
2, 37260, Note_on_c, 0, 89, 0
2, 37260, Note_on_c, 0, 81, 0
2, 37260, Note_on_c, 0, 74, 0
2, 37260, Note_on_c, 0, 82, 99
2, 37260, Note_on_c, 0, 91, 99
2, 37260, Note_on_c, 0, 46, 57
2, 37440, Note_on_c, 0, 46, 0
2, 37440, Note_on_c, 0, 91, 0
2, 37440, Note_on_c, 0, 82, 0
2, 37440, Note_on_c, 0, 84, 89
2, 37440, Note_on_c, 0, 87, 89
2, 37440, Note_on_c, 0, 53, 62
2, 37620, Note_on_c, 0, 53, 0
2, 37620, Note_on_c, 0, 87, 0
2, 37620, Note_on_c, 0, 84, 0
2, 37620, Note_on_c, 0, 85, 100
2, 37620, Note_on_c, 0, 89, 100
2, 37620, Note_on_c, 0, 61, 78
2, 37800, Note_on_c, 0, 61, 0
2, 37800, Note_on_c, 0, 89, 0
2, 37800, Note_on_c, 0, 85, 0
2, 37800, Note_on_c, 0, 77, 88
2, 37800, Note_on_c, 0, 85, 88
2, 37800, Note_on_c, 0, 55, 53
2, 37980, Note_on_c, 0, 55, 0
2, 37980, Note_on_c, 0, 85, 0
2, 37980, Note_on_c, 0, 77, 0
2, 37980, Note_on_c, 0, 79, 105
2, 37980, Note_on_c, 0, 87, 105
2, 37980, Note_on_c, 0, 65, 72
2, 38160, Note_on_c, 0, 65, 0
2, 38160, Note_on_c, 0, 87, 0
2, 38160, Note_on_c, 0, 79, 0
2, 38160, Note_on_c, 0, 80, 86
2, 38160, Note_on_c, 0, 84, 86
2, 38160, Note_on_c, 0, 58, 59
2, 38340, Note_on_c, 0, 58, 0
2, 38340, Note_on_c, 0, 84, 0
2, 38340, Note_on_c, 0, 80, 0
2, 38340, Note_on_c, 0, 82, 103
2, 38340, Note_on_c, 0, 85, 103
2, 38340, Note_on_c, 0, 67, 76
2, 38520, Note_on_c, 0, 67, 0
2, 38520, Note_on_c, 0, 85, 0
2, 38520, Note_on_c, 0, 82, 0
2, 38520, Note_on_c, 0, 73, 90
2, 38520, Note_on_c, 0, 82, 90
2, 38520, Note_on_c, 0, 61, 55
2, 38700, Note_on_c, 0, 61, 0
2, 38700, Note_on_c, 0, 82, 0
2, 38700, Note_on_c, 0, 73, 0
2, 38700, Note_on_c, 0, 75, 100
2, 38700, Note_on_c, 0, 84, 100
2, 38700, Note_on_c, 0, 68, 75
2, 38880, Note_on_c, 0, 68, 0
2, 38880, Note_on_c, 0, 84, 0
2, 38880, Note_on_c, 0, 75, 0
2, 38880, Note_on_c, 0, 69, 90
2, 38880, Note_on_c, 0, 77, 90
2, 38880, Note_on_c, 0, 81, 90
2, 38880, Note_on_c, 0, 38, 54
2, 38880, Note_on_c, 0, 45, 54
2, 39060, Note_on_c, 0, 45, 0
2, 39060, Note_on_c, 0, 38, 0
2, 39060, Note_on_c, 0, 53, 66
2, 39240, Note_on_c, 0, 53, 0
2, 39240, Note_on_c, 0, 81, 0
2, 39240, Note_on_c, 0, 77, 0
2, 39240, Note_on_c, 0, 69, 0
2, 39240, Note_on_c, 0, 57, 77
2, 39240, Note_on_c, 0, 62, 77
2, 39420, Note_on_c, 0, 62, 0
2, 39420, Note_on_c, 0, 57, 0
2, 39420, Note_on_c, 0, 70, 73
2, 39600, Note_on_c, 0, 74, 87
2, 39600, Note_on_c, 0, 79, 87
2, 39780, Note_on_c, 0, 79, 0
2, 39780, Note_on_c, 0, 74, 0
2, 39780, Note_on_c, 0, 70, 0
2, 39780, Note_on_c, 0, 77, 102
2, 39780, Note_on_c, 0, 81, 102
2, 39780, Note_on_c, 0, 69, 56
2, 39960, Note_on_c, 0, 69, 0
2, 39960, Note_on_c, 0, 81, 0
2, 39960, Note_on_c, 0, 77, 0
2, 39960, Note_on_c, 0, 72, 92
2, 39960, Note_on_c, 0, 79, 92
2, 39960, Note_on_c, 0, 67, 57
2, 40140, Note_on_c, 0, 67, 0
2, 40140, Note_on_c, 0, 79, 0
2, 40140, Note_on_c, 0, 72, 0
2, 40140, Note_on_c, 0, 77, 106
2, 40140, Note_on_c, 0, 81, 106
2, 40140, Note_on_c, 0, 65, 56
2, 40320, Note_on_c, 0, 65, 0
2, 40320, Note_on_c, 0, 81, 0
2, 40320, Note_on_c, 0, 77, 0
2, 40320, Note_on_c, 0, 70, 93
2, 40320, Note_on_c, 0, 79, 93
2, 40320, Note_on_c, 0, 63, 57
2, 40500, Note_on_c, 0, 63, 0
2, 40500, Note_on_c, 0, 79, 0
2, 40500, Note_on_c, 0, 70, 0
2, 40500, Note_on_c, 0, 77, 117
2, 40500, Note_on_c, 0, 81, 117
2, 40500, Note_on_c, 0, 62, 59
2, 40658, Note_on_c, 0, 81, 0
2, 40658, Note_on_c, 0, 77, 0
2, 40680, Note_on_c, 0, 62, 0
2, 40680, Note_on_c, 0, 69, 68
2, 40680, Note_on_c, 0, 50, 54
2, 40680, Note_on_c, 0, 57, 54
2, 40860, Note_on_c, 0, 57, 0
2, 40860, Note_on_c, 0, 50, 0
2, 40860, Note_on_c, 0, 69, 0
2, 40860, Note_on_c, 0, 65, 70
2, 41040, Note_on_c, 0, 65, 0
2, 41040, Note_on_c, 0, 70, 65
2, 41220, Note_on_c, 0, 74, 92
2, 41220, Note_on_c, 0, 79, 92
2, 41400, Note_on_c, 0, 79, 0
2, 41400, Note_on_c, 0, 74, 0
2, 41400, Note_on_c, 0, 70, 0
2, 41400, Note_on_c, 0, 77, 103
2, 41400, Note_on_c, 0, 81, 103
2, 41400, Note_on_c, 0, 69, 61
2, 41580, Note_on_c, 0, 69, 0
2, 41580, Note_on_c, 0, 81, 0
2, 41580, Note_on_c, 0, 77, 0
2, 41580, Note_on_c, 0, 72, 92
2, 41580, Note_on_c, 0, 79, 92
2, 41580, Note_on_c, 0, 67, 54
2, 41760, Note_on_c, 0, 67, 0
2, 41760, Note_on_c, 0, 79, 0
2, 41760, Note_on_c, 0, 72, 0
2, 41760, Note_on_c, 0, 77, 105
2, 41760, Note_on_c, 0, 81, 105
2, 41760, Note_on_c, 0, 65, 56
2, 41940, Note_on_c, 0, 65, 0
2, 41940, Note_on_c, 0, 81, 0
2, 41940, Note_on_c, 0, 77, 0
2, 41940, Note_on_c, 0, 70, 91
2, 41940, Note_on_c, 0, 79, 91
2, 41940, Note_on_c, 0, 63, 58
2, 42120, Note_on_c, 0, 63, 0
2, 42120, Note_on_c, 0, 79, 0
2, 42120, Note_on_c, 0, 70, 0
2, 42120, Note_on_c, 0, 77, 117
2, 42120, Note_on_c, 0, 81, 117
2, 42120, Note_on_c, 0, 62, 53
2, 42278, Note_on_c, 0, 81, 0
2, 42278, Note_on_c, 0, 77, 0
2, 42300, Note_on_c, 0, 62, 0
2, 42300, Note_on_c, 0, 69, 71
2, 42300, Note_on_c, 0, 61, 59
2, 42480, Note_on_c, 0, 61, 0
2, 42480, Note_on_c, 0, 69, 0
2, 42480, Note_on_c, 0, 60, 60
2, 42660, Note_on_c, 0, 60, 0
2, 42660, Note_on_c, 0, 65, 70
2, 42840, Note_on_c, 0, 65, 0
2, 42840, Note_on_c, 0, 69, 81
2, 42840, Note_on_c, 0, 74, 81
2, 42840, Note_on_c, 0, 59, 55
2, 43020, Note_on_c, 0, 59, 0
2, 43020, Note_on_c, 0, 74, 0
2, 43020, Note_on_c, 0, 69, 0
2, 43020, Note_on_c, 0, 77, 102
2, 43020, Note_on_c, 0, 58, 61
2, 43200, Note_on_c, 0, 58, 0
2, 43200, Note_on_c, 0, 77, 0
2, 43200, Note_on_c, 0, 65, 76
2, 43200, Note_on_c, 0, 69, 76
2, 43200, Note_on_c, 0, 62, 69
2, 43380, Note_on_c, 0, 62, 0
2, 43380, Note_on_c, 0, 69, 0
2, 43380, Note_on_c, 0, 65, 0
2, 43380, Note_on_c, 0, 72, 103
2, 43380, Note_on_c, 0, 57, 58
2, 43560, Note_on_c, 0, 57, 0
2, 43560, Note_on_c, 0, 72, 0
2, 43560, Note_on_c, 0, 65, 108
2, 43560, Note_on_c, 0, 73, 108
2, 43560, Note_on_c, 0, 56, 50
2, 43740, Note_on_c, 0, 56, 0
2, 43740, Note_on_c, 0, 73, 0
2, 43740, Note_on_c, 0, 65, 0
2, 43740, Note_on_c, 0, 74, 97
2, 43740, Note_on_c, 0, 77, 97
2, 43740, Note_on_c, 0, 58, 65
2, 43920, Note_on_c, 0, 58, 0
2, 43920, Note_on_c, 0, 77, 0
2, 43920, Note_on_c, 0, 74, 0
2, 43920, Note_on_c, 0, 74, 94
2, 43920, Note_on_c, 0, 80, 94
2, 43920, Note_on_c, 0, 55, 58
2, 44100, Note_on_c, 0, 55, 0
2, 44100, Note_on_c, 0, 80, 0
2, 44100, Note_on_c, 0, 74, 0
2, 44100, Note_on_c, 0, 81, 91
2, 44100, Note_on_c, 0, 53, 61
2, 44280, Note_on_c, 0, 53, 0
2, 44280, Note_on_c, 0, 81, 0
2, 44280, Note_on_c, 0, 77, 88
2, 44280, Note_on_c, 0, 81, 88
2, 44280, Note_on_c, 0, 84, 88
2, 44280, Note_on_c, 0, 57, 64
2, 44460, Note_on_c, 0, 57, 0
2, 44460, Note_on_c, 0, 77, 0
2, 44460, Note_on_c, 0, 81, 0
2, 44460, Note_on_c, 0, 84, 0
2, 44460, Note_on_c, 0, 85, 85
2, 44460, Note_on_c, 0, 52, 57
2, 44640, Note_on_c, 0, 52, 0
2, 44640, Note_on_c, 0, 85, 0
2, 44640, Note_on_c, 0, 86, 81
2, 44640, Note_on_c, 0, 89, 81
2, 44640, Note_on_c, 0, 50, 61
2, 44820, Note_on_c, 0, 50, 0
2, 44820, Note_on_c, 0, 89, 0
2, 44820, Note_on_c, 0, 86, 0
2, 44820, Note_on_c, 0, 86, 78
2, 44820, Note_on_c, 0, 93, 78
2, 44820, Note_on_c, 0, 48, 59
2, 45000, Note_on_c, 0, 48, 0
2, 45000, Note_on_c, 0, 93, 0
2, 45000, Note_on_c, 0, 86, 0
2, 45000, Note_on_c, 0, 86, 75
2, 45000, Note_on_c, 0, 46, 61
2, 45180, Note_on_c, 0, 46, 0
2, 45180, Note_on_c, 0, 86, 0
2, 45180, Note_on_c, 0, 45, 58
2, 45360, Note_on_c, 0, 45, 0
2, 45360, Note_on_c, 0, 31, 56
2, 45540, Note_on_c, 0, 82, 76
2, 45540, Note_on_c, 0, 86, 76
2, 45720, Note_on_c, 0, 86, 0
2, 45720, Note_on_c, 0, 82, 0
2, 45720, Note_on_c, 0, 31, 0
2, 45720, Note_on_c, 0, 74, 77
2, 45720, Note_on_c, 0, 82, 77
2, 45720, Note_on_c, 0, 50, 68
2, 45900, Note_on_c, 0, 50, 0
2, 45900, Note_on_c, 0, 82, 0
2, 45900, Note_on_c, 0, 74, 0
2, 45900, Note_on_c, 0, 76, 72
2, 45900, Note_on_c, 0, 79, 72
2, 45900, Note_on_c, 0, 64, 66
2, 45900, Note_on_c, 0, 64, 77
2, 46080, Note_on_c, 0, 64, 0
2, 46080, Note_on_c, 0, 58, 57
2, 46260, Note_on_c, 0, 58, 0
2, 46260, Note_on_c, 0, 55, 61
2, 46374, Note_on_c, 0, 64, 0
2, 46440, Note_on_c, 0, 55, 0
2, 46440, Note_on_c, 0, 65, 73
2, 46440, Note_on_c, 0, 65, 74
2, 46620, Note_on_c, 0, 65, 0
2, 46620, Note_on_c, 0, 76, 0
2, 46620, Note_on_c, 0, 79, 0
2, 46620, Note_on_c, 0, 77, 93
2, 46620, Note_on_c, 0, 81, 93
2, 46620, Note_on_c, 0, 58, 62
2, 46800, Note_on_c, 0, 58, 0
2, 46800, Note_on_c, 0, 81, 0
2, 46800, Note_on_c, 0, 77, 0
2, 46800, Note_on_c, 0, 76, 91
2, 46800, Note_on_c, 0, 84, 91
2, 46800, Note_on_c, 0, 50, 56
2, 46914, Note_on_c, 0, 65, 0
2, 46980, Note_on_c, 0, 76, 0
2, 46980, Note_on_c, 0, 84, 0
2, 46980, Note_on_c, 0, 50, 0
2, 46980, Note_on_c, 0, 74, 79
2, 46980, Note_on_c, 0, 82, 79
2, 46980, Note_on_c, 0, 67, 73
2, 47160, Note_on_c, 0, 82, 0
2, 47160, Note_on_c, 0, 74, 0
2, 47160, Note_on_c, 0, 72, 81
2, 47160, Note_on_c, 0, 81, 81
2, 47340, Note_on_c, 0, 81, 0
2, 47340, Note_on_c, 0, 72, 0
2, 47340, Note_on_c, 0, 74, 84
2, 47340, Note_on_c, 0, 82, 84
2, 47340, Note_on_c, 0, 43, 56
2, 47520, Note_on_c, 0, 43, 0
2, 47520, Note_on_c, 0, 82, 0
2, 47520, Note_on_c, 0, 74, 0
2, 47520, Note_on_c, 0, 76, 77
2, 47520, Note_on_c, 0, 79, 77
2, 47520, Note_on_c, 0, 50, 64
2, 47700, Note_on_c, 0, 50, 0
2, 47700, Note_on_c, 0, 79, 0
2, 47700, Note_on_c, 0, 76, 0
2, 47700, Note_on_c, 0, 74, 79
2, 47700, Note_on_c, 0, 77, 79
2, 47700, Note_on_c, 0, 58, 67
2, 47880, Note_on_c, 0, 58, 0
2, 47880, Note_on_c, 0, 77, 0
2, 47880, Note_on_c, 0, 74, 0
2, 47880, Note_on_c, 0, 72, 95
2, 47880, Note_on_c, 0, 81, 95
2, 47880, Note_on_c, 0, 50, 55
2, 47929, Note_on_c, 0, 67, 0
2, 48060, Note_on_c, 0, 72, 0
2, 48060, Note_on_c, 0, 81, 0
2, 48060, Note_on_c, 0, 50, 0
2, 48060, Note_on_c, 0, 70, 80
2, 48060, Note_on_c, 0, 79, 80
2, 48060, Note_on_c, 0, 65, 68
2, 48060, Note_on_c, 0, 65, 78
2, 48240, Note_on_c, 0, 65, 0
2, 48240, Note_on_c, 0, 70, 0
2, 48240, Note_on_c, 0, 79, 0
2, 48240, Note_on_c, 0, 69, 72
2, 48240, Note_on_c, 0, 74, 72
2, 48240, Note_on_c, 0, 58, 57
2, 48420, Note_on_c, 0, 58, 0
2, 48420, Note_on_c, 0, 74, 0
2, 48420, Note_on_c, 0, 69, 0
2, 48420, Note_on_c, 0, 72, 92
2, 48420, Note_on_c, 0, 77, 92
2, 48420, Note_on_c, 0, 55, 58
2, 48534, Note_on_c, 0, 65, 0
2, 48600, Note_on_c, 0, 72, 0
2, 48600, Note_on_c, 0, 77, 0
2, 48600, Note_on_c, 0, 55, 0
2, 48600, Note_on_c, 0, 67, 80
2, 48600, Note_on_c, 0, 76, 80
2, 48600, Note_on_c, 0, 43, 52
2, 48780, Note_on_c, 0, 43, 0
2, 48780, Note_on_c, 0, 76, 0
2, 48780, Note_on_c, 0, 67, 0
2, 48780, Note_on_c, 0, 69, 76
2, 48780, Note_on_c, 0, 74, 76
2, 48780, Note_on_c, 0, 48, 60
2, 48960, Note_on_c, 0, 48, 0
2, 48960, Note_on_c, 0, 74, 0
2, 48960, Note_on_c, 0, 69, 0
2, 48960, Note_on_c, 0, 70, 92
2, 48960, Note_on_c, 0, 76, 92
2, 48960, Note_on_c, 0, 58, 68
2, 49140, Note_on_c, 0, 58, 0
2, 49140, Note_on_c, 0, 76, 0
2, 49140, Note_on_c, 0, 70, 0
2, 49140, Note_on_c, 0, 64, 89
2, 49140, Note_on_c, 0, 72, 89
2, 49320, Note_on_c, 0, 48, 54
2, 49500, Note_on_c, 0, 48, 0
2, 49500, Note_on_c, 0, 58, 63
2, 49680, Note_on_c, 0, 58, 0
2, 49680, Note_on_c, 0, 62, 51
2, 49680, Note_on_c, 0, 62, 65
2, 49860, Note_on_c, 0, 62, 0
2, 49860, Note_on_c, 0, 64, 0
2, 49860, Note_on_c, 0, 72, 0
2, 49860, Note_on_c, 0, 65, 90
2, 49860, Note_on_c, 0, 74, 90
2, 49860, Note_on_c, 0, 58, 58
2, 50040, Note_on_c, 0, 58, 0
2, 50040, Note_on_c, 0, 74, 0
2, 50040, Note_on_c, 0, 65, 0
2, 50040, Note_on_c, 0, 67, 91
2, 50040, Note_on_c, 0, 77, 91
2, 50040, Note_on_c, 0, 55, 56
2, 50220, Note_on_c, 0, 55, 0
2, 50220, Note_on_c, 0, 62, 0
2, 50220, Note_on_c, 0, 67, 0
2, 50220, Note_on_c, 0, 77, 0
2, 50220, Note_on_c, 0, 69, 80
2, 50220, Note_on_c, 0, 76, 80
2, 50220, Note_on_c, 0, 60, 57
2, 50220, Note_on_c, 0, 60, 67
2, 50400, Note_on_c, 0, 60, 0
2, 50400, Note_on_c, 0, 69, 0
2, 50400, Note_on_c, 0, 76, 0
2, 50400, Note_on_c, 0, 70, 81
2, 50400, Note_on_c, 0, 74, 81
2, 50400, Note_on_c, 0, 52, 55
2, 50580, Note_on_c, 0, 52, 0
2, 50580, Note_on_c, 0, 74, 0
2, 50580, Note_on_c, 0, 70, 0
2, 50580, Note_on_c, 0, 69, 88
2, 50580, Note_on_c, 0, 76, 88
2, 50580, Note_on_c, 0, 48, 57
2, 50760, Note_on_c, 0, 48, 0
2, 50760, Note_on_c, 0, 76, 0
2, 50760, Note_on_c, 0, 69, 0
2, 50760, Note_on_c, 0, 67, 83
2, 50760, Note_on_c, 0, 72, 83
2, 50940, Note_on_c, 0, 72, 0
2, 50940, Note_on_c, 0, 67, 0
2, 50940, Note_on_c, 0, 65, 78
2, 50940, Note_on_c, 0, 74, 78
2, 51120, Note_on_c, 0, 74, 0
2, 51120, Note_on_c, 0, 65, 0
2, 51120, Note_on_c, 0, 64, 73
2, 51120, Note_on_c, 0, 70, 73
2, 51300, Note_on_c, 0, 70, 0
2, 51300, Note_on_c, 0, 64, 0
2, 51300, Note_on_c, 0, 60, 0
2, 51300, Note_on_c, 0, 62, 68
2, 51300, Note_on_c, 0, 72, 68
2, 51300, Note_on_c, 0, 58, 56
2, 51300, Note_on_c, 0, 58, 52
2, 51480, Note_on_c, 0, 58, 0
2, 51480, Note_on_c, 0, 62, 0
2, 51480, Note_on_c, 0, 72, 0
2, 51480, Note_on_c, 0, 64, 63
2, 51480, Note_on_c, 0, 69, 63
2, 51480, Note_on_c, 0, 48, 50
2, 51660, Note_on_c, 0, 48, 0
2, 51660, Note_on_c, 0, 69, 0
2, 51660, Note_on_c, 0, 64, 0
2, 51660, Note_on_c, 0, 62, 58
2, 51660, Note_on_c, 0, 70, 58
2, 51660, Note_on_c, 0, 43, 55
2, 51840, Note_on_c, 0, 43, 0
2, 51840, Note_on_c, 0, 58, 0
2, 51840, Note_on_c, 0, 62, 0
2, 51840, Note_on_c, 0, 70, 0
2, 51840, Note_on_c, 0, 60, 50
2, 51840, Note_on_c, 0, 64, 50
2, 51840, Note_on_c, 0, 67, 50
2, 51840, Note_on_c, 0, 36, 57
2, 52020, Note_on_c, 0, 67, 0
2, 52020, Note_on_c, 0, 60, 0
2, 52020, Note_on_c, 0, 64, 0
2, 52020, Note_on_c, 0, 55, 49
2, 52020, Note_on_c, 0, 60, 49
2, 52109, Note_on_c, 0, 60, 0
2, 52109, Note_on_c, 0, 55, 0
2, 52200, Note_on_c, 0, 36, 0
2, 52200, Note_on_c, 0, 60, 62
2, 52200, Note_on_c, 0, 62, 62
2, 52200, Note_on_c, 0, 43, 66
2, 52289, Note_on_c, 0, 62, 0
2, 52289, Note_on_c, 0, 60, 0
2, 52380, Note_on_c, 0, 43, 0
2, 52380, Note_on_c, 0, 60, 60
2, 52380, Note_on_c, 0, 64, 60
2, 52380, Note_on_c, 0, 52, 69
2, 52469, Note_on_c, 0, 64, 0
2, 52469, Note_on_c, 0, 60, 0
2, 52560, Note_on_c, 0, 52, 0
2, 52560, Note_on_c, 0, 64, 62
2, 52560, Note_on_c, 0, 67, 62
2, 52560, Note_on_c, 0, 55, 65
2, 52649, Note_on_c, 0, 67, 0
2, 52649, Note_on_c, 0, 64, 0
2, 52740, Note_on_c, 0, 55, 0
2, 52740, Note_on_c, 0, 67, 63
2, 52740, Note_on_c, 0, 72, 63
2, 52740, Note_on_c, 0, 52, 58
2, 52829, Note_on_c, 0, 72, 0
2, 52829, Note_on_c, 0, 67, 0
2, 52920, Note_on_c, 0, 52, 0
2, 52920, Note_on_c, 0, 72, 64
2, 52920, Note_on_c, 0, 74, 64
2, 52920, Note_on_c, 0, 55, 67
2, 53100, Note_on_c, 0, 55, 0
2, 53100, Note_on_c, 0, 60, 66
2, 53280, Note_on_c, 0, 60, 0
2, 53280, Note_on_c, 0, 62, 62
2, 53460, Note_on_c, 0, 62, 0
2, 53460, Note_on_c, 0, 60, 69
2, 53460, Note_on_c, 0, 64, 69
2, 53640, Note_on_c, 0, 74, 0
2, 53640, Note_on_c, 0, 72, 0
2, 53640, Note_on_c, 0, 64, 68
2, 53640, Note_on_c, 0, 67, 68
2, 53729, Note_on_c, 0, 67, 0
2, 53729, Note_on_c, 0, 64, 0
2, 53820, Note_on_c, 0, 64, 0
2, 53820, Note_on_c, 0, 60, 0
2, 53820, Note_on_c, 0, 67, 69
2, 53820, Note_on_c, 0, 72, 69
2, 53820, Note_on_c, 0, 55, 52
2, 53909, Note_on_c, 0, 72, 0
2, 53909, Note_on_c, 0, 67, 0
2, 54000, Note_on_c, 0, 55, 0
2, 54000, Note_on_c, 0, 72, 70
2, 54000, Note_on_c, 0, 74, 70
2, 54000, Note_on_c, 0, 64, 74
2, 54089, Note_on_c, 0, 74, 0
2, 54089, Note_on_c, 0, 72, 0
2, 54180, Note_on_c, 0, 64, 0
2, 54180, Note_on_c, 0, 72, 71
2, 54180, Note_on_c, 0, 76, 71
2, 54180, Note_on_c, 0, 67, 68
2, 54269, Note_on_c, 0, 76, 0
2, 54269, Note_on_c, 0, 72, 0
2, 54360, Note_on_c, 0, 67, 0
2, 54360, Note_on_c, 0, 76, 73
2, 54360, Note_on_c, 0, 79, 73
2, 54360, Note_on_c, 0, 64, 55
2, 54449, Note_on_c, 0, 79, 0
2, 54449, Note_on_c, 0, 76, 0
2, 54540, Note_on_c, 0, 64, 0
2, 54540, Note_on_c, 0, 79, 74
2, 54540, Note_on_c, 0, 84, 74
2, 54540, Note_on_c, 0, 67, 67
2, 54720, Note_on_c, 0, 67, 0
2, 54720, Note_on_c, 0, 72, 71
2, 54900, Note_on_c, 0, 72, 0
2, 54900, Note_on_c, 0, 74, 65
2, 55080, Note_on_c, 0, 74, 0
2, 55080, Note_on_c, 0, 76, 74
2, 55080, Note_on_c, 0, 79, 74
2, 55260, Note_on_c, 0, 84, 0
2, 55260, Note_on_c, 0, 79, 0
2, 55260, Note_on_c, 0, 76, 78
2, 55260, Note_on_c, 0, 79, 78
2, 55349, Note_on_c, 0, 76, 0
2, 55349, Note_on_c, 0, 79, 0
2, 55440, Note_on_c, 0, 76, 0
2, 55440, Note_on_c, 0, 79, 0
2, 55440, Note_on_c, 0, 79, 79
2, 55440, Note_on_c, 0, 84, 79
2, 55440, Note_on_c, 0, 72, 51
2, 55529, Note_on_c, 0, 72, 0
2, 55529, Note_on_c, 0, 84, 0
2, 55529, Note_on_c, 0, 79, 0
2, 55620, Note_on_c, 0, 84, 80
2, 55620, Note_on_c, 0, 86, 80
2, 55620, Note_on_c, 0, 70, 62
2, 55709, Note_on_c, 0, 70, 0
2, 55709, Note_on_c, 0, 86, 0
2, 55709, Note_on_c, 0, 84, 0
2, 55800, Note_on_c, 0, 76, 81
2, 55800, Note_on_c, 0, 79, 81
2, 55800, Note_on_c, 0, 64, 48
2, 55889, Note_on_c, 0, 64, 0
2, 55889, Note_on_c, 0, 79, 0
2, 55889, Note_on_c, 0, 76, 0
2, 55980, Note_on_c, 0, 79, 83
2, 55980, Note_on_c, 0, 84, 83
2, 55980, Note_on_c, 0, 60, 52
2, 56069, Note_on_c, 0, 60, 0
2, 56069, Note_on_c, 0, 84, 0
2, 56069, Note_on_c, 0, 79, 0
2, 56160, Note_on_c, 0, 84, 84
2, 56160, Note_on_c, 0, 86, 84
2, 56160, Note_on_c, 0, 58, 59
2, 56249, Note_on_c, 0, 58, 0
2, 56249, Note_on_c, 0, 86, 0
2, 56249, Note_on_c, 0, 84, 0
2, 56340, Note_on_c, 0, 79, 85
2, 56340, Note_on_c, 0, 84, 85
2, 56340, Note_on_c, 0, 48, 51
2, 56429, Note_on_c, 0, 48, 0
2, 56429, Note_on_c, 0, 84, 0
2, 56429, Note_on_c, 0, 79, 0
2, 56520, Note_on_c, 0, 84, 86
2, 56520, Note_on_c, 0, 86, 86
2, 56520, Note_on_c, 0, 43, 54
2, 56609, Note_on_c, 0, 43, 0
2, 56609, Note_on_c, 0, 86, 0
2, 56609, Note_on_c, 0, 84, 0
2, 56700, Note_on_c, 0, 36, 58
2, 56880, Note_on_c, 0, 87, 77
2, 56880, Note_on_c, 0, 91, 77
2, 57060, Note_on_c, 0, 91, 0
2, 57060, Note_on_c, 0, 87, 0
2, 57060, Note_on_c, 0, 36, 0
2, 57060, Note_on_c, 0, 79, 73
2, 57060, Note_on_c, 0, 87, 73
2, 57060, Note_on_c, 0, 55, 62
2, 57240, Note_on_c, 0, 55, 0
2, 57240, Note_on_c, 0, 87, 0
2, 57240, Note_on_c, 0, 79, 0
2, 57240, Note_on_c, 0, 81, 74
2, 57240, Note_on_c, 0, 84, 74
2, 57240, Note_on_c, 0, 67, 68
2, 57240, Note_on_c, 0, 67, 76
2, 57420, Note_on_c, 0, 67, 0
2, 57420, Note_on_c, 0, 63, 54
2, 57600, Note_on_c, 0, 63, 0
2, 57600, Note_on_c, 0, 55, 55
2, 57714, Note_on_c, 0, 67, 0
2, 57780, Note_on_c, 0, 55, 0
2, 57780, Note_on_c, 0, 69, 73
2, 57780, Note_on_c, 0, 69, 75
2, 57960, Note_on_c, 0, 69, 0
2, 57960, Note_on_c, 0, 81, 0
2, 57960, Note_on_c, 0, 84, 0
2, 57960, Note_on_c, 0, 82, 91
2, 57960, Note_on_c, 0, 86, 91
2, 57960, Note_on_c, 0, 65, 58
2, 58140, Note_on_c, 0, 65, 0
2, 58140, Note_on_c, 0, 86, 0
2, 58140, Note_on_c, 0, 82, 0
2, 58140, Note_on_c, 0, 81, 92
2, 58140, Note_on_c, 0, 89, 92
2, 58140, Note_on_c, 0, 62, 50
2, 58254, Note_on_c, 0, 69, 0
2, 58320, Note_on_c, 0, 81, 0
2, 58320, Note_on_c, 0, 89, 0
2, 58320, Note_on_c, 0, 62, 0
2, 58320, Note_on_c, 0, 79, 80
2, 58320, Note_on_c, 0, 87, 80
2, 58320, Note_on_c, 0, 70, 76
2, 58320, Note_on_c, 0, 70, 68
2, 58500, Note_on_c, 0, 70, 0
2, 58500, Note_on_c, 0, 79, 0
2, 58500, Note_on_c, 0, 87, 0
2, 58500, Note_on_c, 0, 77, 79
2, 58500, Note_on_c, 0, 86, 79
2, 58500, Note_on_c, 0, 63, 55
2, 58680, Note_on_c, 0, 63, 0
2, 58680, Note_on_c, 0, 86, 0
2, 58680, Note_on_c, 0, 77, 0
2, 58680, Note_on_c, 0, 79, 88
2, 58680, Note_on_c, 0, 87, 88
2, 58680, Note_on_c, 0, 60, 58
2, 58860, Note_on_c, 0, 60, 0
2, 58860, Note_on_c, 0, 87, 0
2, 58860, Note_on_c, 0, 79, 0
2, 58860, Note_on_c, 0, 81, 80
2, 58860, Note_on_c, 0, 84, 80
2, 59040, Note_on_c, 0, 84, 0
2, 59040, Note_on_c, 0, 81, 0
2, 59040, Note_on_c, 0, 79, 75
2, 59040, Note_on_c, 0, 82, 75
2, 59220, Note_on_c, 0, 82, 0
2, 59220, Note_on_c, 0, 79, 0
2, 59220, Note_on_c, 0, 77, 92
2, 59220, Note_on_c, 0, 86, 92
2, 59220, Note_on_c, 0, 55, 53
2, 59269, Note_on_c, 0, 70, 0
2, 59400, Note_on_c, 0, 77, 0
2, 59400, Note_on_c, 0, 86, 0
2, 59400, Note_on_c, 0, 55, 0
2, 59400, Note_on_c, 0, 75, 85
2, 59400, Note_on_c, 0, 84, 85
2, 59400, Note_on_c, 0, 67, 69
2, 59400, Note_on_c, 0, 67, 79
2, 59580, Note_on_c, 0, 67, 0
2, 59580, Note_on_c, 0, 75, 0
2, 59580, Note_on_c, 0, 84, 0
2, 59580, Note_on_c, 0, 74, 74
2, 59580, Note_on_c, 0, 79, 74
2, 59580, Note_on_c, 0, 63, 54
2, 59760, Note_on_c, 0, 63, 0
2, 59760, Note_on_c, 0, 79, 0
2, 59760, Note_on_c, 0, 74, 0
2, 59760, Note_on_c, 0, 77, 87
2, 59760, Note_on_c, 0, 82, 87
2, 59760, Note_on_c, 0, 60, 54
2, 59874, Note_on_c, 0, 67, 0
2, 59940, Note_on_c, 0, 77, 0
2, 59940, Note_on_c, 0, 82, 0
2, 59940, Note_on_c, 0, 60, 0
2, 59940, Note_on_c, 0, 72, 82
2, 59940, Note_on_c, 0, 81, 82
2, 59940, Note_on_c, 0, 36, 51
2, 60120, Note_on_c, 0, 81, 0
2, 60120, Note_on_c, 0, 72, 0
2, 60120, Note_on_c, 0, 74, 78
2, 60120, Note_on_c, 0, 79, 78
2, 60300, Note_on_c, 0, 79, 0
2, 60300, Note_on_c, 0, 74, 0
2, 60300, Note_on_c, 0, 36, 0
2, 60300, Note_on_c, 0, 75, 88
2, 60300, Note_on_c, 0, 81, 88
2, 60300, Note_on_c, 0, 53, 69
2, 60480, Note_on_c, 0, 53, 0
2, 60480, Note_on_c, 0, 81, 0
2, 60480, Note_on_c, 0, 75, 0
2, 60480, Note_on_c, 0, 69, 87
2, 60480, Note_on_c, 0, 77, 87
2, 60480, Note_on_c, 0, 63, 64
2, 60480, Note_on_c, 0, 63, 75
2, 60660, Note_on_c, 0, 63, 0
2, 60660, Note_on_c, 0, 57, 59
2, 60840, Note_on_c, 0, 57, 0
2, 60840, Note_on_c, 0, 48, 54
2, 60954, Note_on_c, 0, 63, 0
2, 61020, Note_on_c, 0, 48, 0
2, 61020, Note_on_c, 0, 65, 76
2, 61020, Note_on_c, 0, 65, 77
2, 61200, Note_on_c, 0, 65, 0
2, 61200, Note_on_c, 0, 69, 0
2, 61200, Note_on_c, 0, 77, 0
2, 61200, Note_on_c, 0, 70, 87
2, 61200, Note_on_c, 0, 79, 87
2, 61200, Note_on_c, 0, 58, 57
2, 61380, Note_on_c, 0, 58, 0
2, 61380, Note_on_c, 0, 79, 0
2, 61380, Note_on_c, 0, 70, 0
2, 61380, Note_on_c, 0, 72, 94
2, 61380, Note_on_c, 0, 82, 94
2, 61380, Note_on_c, 0, 55, 58
2, 61494, Note_on_c, 0, 65, 0
2, 61560, Note_on_c, 0, 72, 0
2, 61560, Note_on_c, 0, 82, 0
2, 61560, Note_on_c, 0, 55, 0
2, 61560, Note_on_c, 0, 74, 80
2, 61560, Note_on_c, 0, 81, 80
2, 61560, Note_on_c, 0, 63, 70
2, 61560, Note_on_c, 0, 63, 73
2, 61740, Note_on_c, 0, 63, 0
2, 61740, Note_on_c, 0, 74, 0
2, 61740, Note_on_c, 0, 81, 0
2, 61740, Note_on_c, 0, 75, 80
2, 61740, Note_on_c, 0, 79, 80
2, 61740, Note_on_c, 0, 57, 57
2, 61920, Note_on_c, 0, 57, 0
2, 61920, Note_on_c, 0, 79, 0
2, 61920, Note_on_c, 0, 75, 0
2, 61920, Note_on_c, 0, 74, 83
2, 61920, Note_on_c, 0, 81, 83
2, 61920, Note_on_c, 0, 53, 56
2, 62100, Note_on_c, 0, 53, 0
2, 62100, Note_on_c, 0, 81, 0
2, 62100, Note_on_c, 0, 74, 0
2, 62100, Note_on_c, 0, 72, 79
2, 62100, Note_on_c, 0, 77, 79
2, 62280, Note_on_c, 0, 77, 0
2, 62280, Note_on_c, 0, 72, 0
2, 62280, Note_on_c, 0, 70, 75
2, 62280, Note_on_c, 0, 79, 75
2, 62460, Note_on_c, 0, 79, 0
2, 62460, Note_on_c, 0, 70, 0
2, 62460, Note_on_c, 0, 69, 71
2, 62460, Note_on_c, 0, 75, 71
2, 62509, Note_on_c, 0, 63, 0
2, 62640, Note_on_c, 0, 75, 0
2, 62640, Note_on_c, 0, 69, 0
2, 62640, Note_on_c, 0, 67, 66
2, 62640, Note_on_c, 0, 77, 66
2, 62640, Note_on_c, 0, 60, 75
2, 62640, Note_on_c, 0, 60, 54
2, 62820, Note_on_c, 0, 60, 0
2, 62820, Note_on_c, 0, 67, 0
2, 62820, Note_on_c, 0, 77, 0
2, 62820, Note_on_c, 0, 69, 62
2, 62820, Note_on_c, 0, 74, 62
2, 62820, Note_on_c, 0, 51, 50
2, 63000, Note_on_c, 0, 51, 0
2, 63000, Note_on_c, 0, 74, 0
2, 63000, Note_on_c, 0, 69, 0
2, 63000, Note_on_c, 0, 67, 58
2, 63000, Note_on_c, 0, 75, 58
2, 63000, Note_on_c, 0, 48, 57
2, 63114, Note_on_c, 0, 60, 0
2, 63180, Note_on_c, 0, 67, 0
2, 63180, Note_on_c, 0, 75, 0
2, 63180, Note_on_c, 0, 48, 0
2, 63180, Note_on_c, 0, 65, 52
2, 63180, Note_on_c, 0, 69, 52
2, 63180, Note_on_c, 0, 72, 52
2, 63180, Note_on_c, 0, 57, 58
2, 63180, Note_on_c, 0, 57, 66
2, 63360, Note_on_c, 0, 57, 0
2, 63360, Note_on_c, 0, 72, 0
2, 63360, Note_on_c, 0, 65, 0
2, 63360, Note_on_c, 0, 69, 0
2, 63360, Note_on_c, 0, 60, 49
2, 63360, Note_on_c, 0, 65, 49
2, 63360, Note_on_c, 0, 48, 54
2, 63449, Note_on_c, 0, 65, 0
2, 63449, Note_on_c, 0, 60, 0
2, 63540, Note_on_c, 0, 48, 0
2, 63540, Note_on_c, 0, 65, 69
2, 63540, Note_on_c, 0, 67, 69
2, 63540, Note_on_c, 0, 41, 52
2, 63629, Note_on_c, 0, 67, 0
2, 63629, Note_on_c, 0, 65, 0
2, 63720, Note_on_c, 0, 57, 0
2, 63720, Note_on_c, 0, 41, 0
2, 63720, Note_on_c, 0, 65, 65
2, 63720, Note_on_c, 0, 69, 65
2, 63720, Note_on_c, 0, 29, 55
2, 63809, Note_on_c, 0, 69, 0
2, 63809, Note_on_c, 0, 65, 0
2, 63900, Note_on_c, 0, 69, 68
2, 63900, Note_on_c, 0, 72, 68
2, 63989, Note_on_c, 0, 72, 0
2, 63989, Note_on_c, 0, 69, 0
2, 64080, Note_on_c, 0, 29, 0
2, 64080, Note_on_c, 0, 72, 60
2, 64080, Note_on_c, 0, 77, 60
2, 64080, Note_on_c, 0, 48, 65
2, 64080, Note_on_c, 0, 57, 65
2, 64169, Note_on_c, 0, 77, 0
2, 64169, Note_on_c, 0, 72, 0
2, 64260, Note_on_c, 0, 48, 0
2, 64260, Note_on_c, 0, 57, 0
2, 64260, Note_on_c, 0, 77, 63
2, 64260, Note_on_c, 0, 79, 63
2, 64260, Note_on_c, 0, 60, 63
2, 64440, Note_on_c, 0, 60, 0
2, 64440, Note_on_c, 0, 65, 66
2, 64620, Note_on_c, 0, 65, 0
2, 64620, Note_on_c, 0, 67, 69
2, 64800, Note_on_c, 0, 67, 0
2, 64800, Note_on_c, 0, 65, 70
2, 64800, Note_on_c, 0, 69, 70
2, 64980, Note_on_c, 0, 79, 0
2, 64980, Note_on_c, 0, 77, 0
2, 64980, Note_on_c, 0, 69, 73
2, 64980, Note_on_c, 0, 72, 73
2, 65069, Note_on_c, 0, 72, 0
2, 65069, Note_on_c, 0, 69, 0
2, 65160, Note_on_c, 0, 69, 0
2, 65160, Note_on_c, 0, 65, 0
2, 65160, Note_on_c, 0, 72, 76
2, 65160, Note_on_c, 0, 77, 76
2, 65160, Note_on_c, 0, 60, 49
2, 65249, Note_on_c, 0, 77, 0
2, 65249, Note_on_c, 0, 72, 0
2, 65340, Note_on_c, 0, 60, 0
2, 65340, Note_on_c, 0, 77, 78
2, 65340, Note_on_c, 0, 79, 78
2, 65340, Note_on_c, 0, 57, 56
2, 65429, Note_on_c, 0, 79, 0
2, 65429, Note_on_c, 0, 77, 0
2, 65520, Note_on_c, 0, 57, 0
2, 65520, Note_on_c, 0, 77, 81
2, 65520, Note_on_c, 0, 81, 81
2, 65520, Note_on_c, 0, 60, 69
2, 65609, Note_on_c, 0, 81, 0
2, 65609, Note_on_c, 0, 77, 0
2, 65700, Note_on_c, 0, 60, 0
2, 65700, Note_on_c, 0, 77, 83
2, 65700, Note_on_c, 0, 81, 83
2, 65700, Note_on_c, 0, 65, 69
2, 65789, Note_on_c, 0, 81, 0
2, 65789, Note_on_c, 0, 77, 0
2, 65880, Note_on_c, 0, 65, 0
2, 65880, Note_on_c, 0, 81, 86
2, 65880, Note_on_c, 0, 84, 86
2, 65880, Note_on_c, 0, 67, 66
2, 66060, Note_on_c, 0, 67, 0
2, 66060, Note_on_c, 0, 69, 63
2, 66240, Note_on_c, 0, 69, 0
2, 66240, Note_on_c, 0, 72, 67
2, 66420, Note_on_c, 0, 72, 0
2, 66420, Note_on_c, 0, 77, 68
2, 66600, Note_on_c, 0, 84, 0
2, 66600, Note_on_c, 0, 81, 0
2, 66600, Note_on_c, 0, 77, 69
2, 66780, Note_on_c, 0, 77, 0
2, 66780, Note_on_c, 0, 77, 0
2, 66780, Note_on_c, 0, 79, 84
2, 66780, Note_on_c, 0, 72, 48
2, 66960, Note_on_c, 0, 72, 0
2, 66960, Note_on_c, 0, 79, 0
2, 66960, Note_on_c, 0, 77, 86
2, 66960, Note_on_c, 0, 80, 86
2, 66960, Note_on_c, 0, 68, 53
2, 67140, Note_on_c, 0, 68, 0
2, 67140, Note_on_c, 0, 80, 0
2, 67140, Note_on_c, 0, 77, 0
2, 67140, Note_on_c, 0, 72, 91
2, 67140, Note_on_c, 0, 79, 91
2, 67140, Note_on_c, 0, 65, 58
2, 67320, Note_on_c, 0, 65, 0
2, 67320, Note_on_c, 0, 79, 0
2, 67320, Note_on_c, 0, 72, 0
2, 67320, Note_on_c, 0, 77, 96
2, 67320, Note_on_c, 0, 80, 96
2, 67320, Note_on_c, 0, 61, 54
2, 67500, Note_on_c, 0, 61, 0
2, 67500, Note_on_c, 0, 80, 0
2, 67500, Note_on_c, 0, 77, 0
2, 67500, Note_on_c, 0, 79, 101
2, 67500, Note_on_c, 0, 84, 101
2, 67500, Note_on_c, 0, 60, 61
2, 67680, Note_on_c, 0, 60, 0
2, 67680, Note_on_c, 0, 84, 0
2, 67680, Note_on_c, 0, 79, 0
2, 67680, Note_on_c, 0, 77, 106
2, 67680, Note_on_c, 0, 80, 106
2, 67680, Note_on_c, 0, 56, 54
2, 67860, Note_on_c, 0, 56, 0
2, 67860, Note_on_c, 0, 80, 0
2, 67860, Note_on_c, 0, 77, 0
2, 67860, Note_on_c, 0, 79, 111
2, 67860, Note_on_c, 0, 84, 111
2, 67860, Note_on_c, 0, 51, 55
2, 68040, Note_on_c, 0, 51, 0
2, 68040, Note_on_c, 0, 84, 0
2, 68040, Note_on_c, 0, 79, 0
2, 68040, Note_on_c, 0, 77, 115
2, 68040, Note_on_c, 0, 89, 115
2, 68040, Note_on_c, 0, 84, 119
2, 68040, Note_on_c, 0, 43, 59
2, 68040, Note_on_c, 0, 50, 59
2, 68220, Note_on_c, 0, 50, 0
2, 68220, Note_on_c, 0, 89, 0
2, 68220, Note_on_c, 0, 77, 0
2, 68220, Note_on_c, 0, 43, 0
2, 68220, Note_on_c, 0, 76, 98
2, 68220, Note_on_c, 0, 88, 98
2, 68220, Note_on_c, 0, 53, 65
2, 68400, Note_on_c, 0, 53, 0
2, 68400, Note_on_c, 0, 88, 0
2, 68400, Note_on_c, 0, 76, 0
2, 68400, Note_on_c, 0, 77, 97
2, 68400, Note_on_c, 0, 89, 97
2, 68400, Note_on_c, 0, 56, 61
2, 68514, Note_on_c, 0, 84, 0
2, 68580, Note_on_c, 0, 77, 0
2, 68580, Note_on_c, 0, 89, 0
2, 68580, Note_on_c, 0, 56, 0
2, 68580, Note_on_c, 0, 76, 92
2, 68580, Note_on_c, 0, 88, 92
2, 68580, Note_on_c, 0, 83, 97
2, 68580, Note_on_c, 0, 59, 63
2, 68760, Note_on_c, 0, 59, 0
2, 68760, Note_on_c, 0, 76, 0
2, 68760, Note_on_c, 0, 88, 0
2, 68760, Note_on_c, 0, 75, 90
2, 68760, Note_on_c, 0, 87, 90
2, 68760, Note_on_c, 0, 65, 64
2, 68940, Note_on_c, 0, 65, 0
2, 68940, Note_on_c, 0, 87, 0
2, 68940, Note_on_c, 0, 75, 0
2, 68940, Note_on_c, 0, 76, 100
2, 68940, Note_on_c, 0, 88, 100
2, 68940, Note_on_c, 0, 68, 70
2, 69054, Note_on_c, 0, 83, 0
2, 69120, Note_on_c, 0, 76, 0
2, 69120, Note_on_c, 0, 88, 0
2, 69120, Note_on_c, 0, 68, 0
2, 69120, Note_on_c, 0, 75, 93
2, 69120, Note_on_c, 0, 87, 93
2, 69120, Note_on_c, 0, 82, 92
2, 69120, Note_on_c, 0, 71, 68
2, 69300, Note_on_c, 0, 87, 0
2, 69300, Note_on_c, 0, 75, 0
2, 69300, Note_on_c, 0, 74, 92
2, 69300, Note_on_c, 0, 86, 92
2, 69480, Note_on_c, 0, 86, 0
2, 69480, Note_on_c, 0, 74, 0
2, 69480, Note_on_c, 0, 75, 102
2, 69480, Note_on_c, 0, 87, 102
2, 69594, Note_on_c, 0, 82, 0
2, 69660, Note_on_c, 0, 71, 0
2, 69660, Note_on_c, 0, 75, 0
2, 69660, Note_on_c, 0, 87, 0
2, 69660, Note_on_c, 0, 72, 99
2, 69660, Note_on_c, 0, 84, 99
2, 69660, Note_on_c, 0, 82, 84
2, 69660, Note_on_c, 0, 44, 54
2, 69660, Note_on_c, 0, 51, 54
2, 69840, Note_on_c, 0, 51, 0
2, 69840, Note_on_c, 0, 82, 0
2, 69840, Note_on_c, 0, 44, 0
2, 69840, Note_on_c, 0, 80, 74
2, 69840, Note_on_c, 0, 60, 74
2, 70020, Note_on_c, 0, 60, 0
2, 70020, Note_on_c, 0, 80, 0
2, 70020, Note_on_c, 0, 82, 93
2, 70020, Note_on_c, 0, 51, 52
2, 70200, Note_on_c, 0, 51, 0
2, 70200, Note_on_c, 0, 82, 0
2, 70200, Note_on_c, 0, 80, 77
2, 70200, Note_on_c, 0, 68, 72
2, 70200, Note_on_c, 0, 68, 75
2, 70380, Note_on_c, 0, 68, 0
2, 70380, Note_on_c, 0, 80, 0
2, 70380, Note_on_c, 0, 79, 84
2, 70380, Note_on_c, 0, 60, 53
2, 70560, Note_on_c, 0, 60, 0
2, 70560, Note_on_c, 0, 79, 0
2, 70560, Note_on_c, 0, 80, 83
2, 70560, Note_on_c, 0, 51, 52
2, 70609, Note_on_c, 0, 72, 0
2, 70609, Note_on_c, 0, 84, 0
2, 70674, Note_on_c, 0, 68, 0
2, 70740, Note_on_c, 0, 51, 0
2, 70740, Note_on_c, 0, 80, 0
2, 70740, Note_on_c, 0, 70, 89
2, 70740, Note_on_c, 0, 82, 89
2, 70740, Note_on_c, 0, 79, 92
2, 70740, Note_on_c, 0, 67, 69
2, 70740, Note_on_c, 0, 56, 74
2, 70740, Note_on_c, 0, 60, 74
2, 70920, Note_on_c, 0, 82, 0
2, 70920, Note_on_c, 0, 70, 0
2, 70920, Note_on_c, 0, 72, 106
2, 70920, Note_on_c, 0, 84, 106
2, 71100, Note_on_c, 0, 84, 0
2, 71100, Note_on_c, 0, 72, 0
2, 71100, Note_on_c, 0, 74, 107
2, 71100, Note_on_c, 0, 86, 107
2, 71214, Note_on_c, 0, 67, 0
2, 71214, Note_on_c, 0, 79, 0
2, 71280, Note_on_c, 0, 56, 0
2, 71280, Note_on_c, 0, 60, 0
2, 71280, Note_on_c, 0, 86, 0
2, 71280, Note_on_c, 0, 74, 0
2, 71280, Note_on_c, 0, 75, 106
2, 71280, Note_on_c, 0, 83, 106
2, 71280, Note_on_c, 0, 87, 106
2, 71280, Note_on_c, 0, 78, 79
2, 71280, Note_on_c, 0, 44, 56
2, 71280, Note_on_c, 0, 51, 56
2, 71460, Note_on_c, 0, 51, 0
2, 71460, Note_on_c, 0, 83, 0
2, 71460, Note_on_c, 0, 75, 0
2, 71460, Note_on_c, 0, 87, 0
2, 71460, Note_on_c, 0, 44, 0
2, 71460, Note_on_c, 0, 73, 92
2, 71460, Note_on_c, 0, 82, 92
2, 71460, Note_on_c, 0, 85, 92
2, 71460, Note_on_c, 0, 59, 65
2, 71640, Note_on_c, 0, 59, 0
2, 71640, Note_on_c, 0, 82, 0
2, 71640, Note_on_c, 0, 85, 0
2, 71640, Note_on_c, 0, 73, 0
2, 71640, Note_on_c, 0, 75, 104
2, 71640, Note_on_c, 0, 83, 104
2, 71640, Note_on_c, 0, 87, 104
2, 71640, Note_on_c, 0, 48, 55
2, 71820, Note_on_c, 0, 48, 0
2, 71820, Note_on_c, 0, 83, 0
2, 71820, Note_on_c, 0, 87, 0
2, 71820, Note_on_c, 0, 75, 0
2, 71820, Note_on_c, 0, 73, 91
2, 71820, Note_on_c, 0, 82, 91
2, 71820, Note_on_c, 0, 85, 91
2, 71820, Note_on_c, 0, 66, 64
2, 71820, Note_on_c, 0, 66, 78
2, 72000, Note_on_c, 0, 66, 0
2, 72000, Note_on_c, 0, 85, 0
2, 72000, Note_on_c, 0, 82, 0
2, 72000, Note_on_c, 0, 73, 0
2, 72000, Note_on_c, 0, 71, 88
2, 72000, Note_on_c, 0, 83, 88
2, 72000, Note_on_c, 0, 59, 55
2, 72180, Note_on_c, 0, 59, 0
2, 72180, Note_on_c, 0, 71, 0
2, 72180, Note_on_c, 0, 83, 0
2, 72180, Note_on_c, 0, 73, 103
2, 72180, Note_on_c, 0, 82, 103
2, 72180, Note_on_c, 0, 85, 103
2, 72180, Note_on_c, 0, 56, 63
2, 72294, Note_on_c, 0, 66, 0
2, 72360, Note_on_c, 0, 85, 0
2, 72360, Note_on_c, 0, 82, 0
2, 72360, Note_on_c, 0, 78, 0
2, 72360, Note_on_c, 0, 73, 0
2, 72360, Note_on_c, 0, 71, 95
2, 72360, Note_on_c, 0, 80, 95
2, 72360, Note_on_c, 0, 83, 95
2, 72360, Note_on_c, 0, 77, 78
2, 72360, Note_on_c, 0, 65, 71
2, 72518, Note_on_c, 0, 65, 0
2, 72540, Note_on_c, 0, 71, 0
2, 72540, Note_on_c, 0, 80, 0
2, 72540, Note_on_c, 0, 83, 0
2, 72540, Note_on_c, 0, 70, 85
2, 72540, Note_on_c, 0, 82, 85
2, 72540, Note_on_c, 0, 62, 53
2, 72540, Note_on_c, 0, 59, 64
2, 72720, Note_on_c, 0, 82, 0
2, 72720, Note_on_c, 0, 70, 0
2, 72720, Note_on_c, 0, 71, 100
2, 72720, Note_on_c, 0, 83, 100
2, 72900, Note_on_c, 0, 83, 0
2, 72900, Note_on_c, 0, 59, 0
2, 72900, Note_on_c, 0, 56, 0
2, 72900, Note_on_c, 0, 77, 0
2, 72900, Note_on_c, 0, 71, 0
2, 72900, Note_on_c, 0, 62, 0
2, 72900, Note_on_c, 0, 68, 100
2, 72900, Note_on_c, 0, 71, 100
2, 72900, Note_on_c, 0, 80, 100
2, 72900, Note_on_c, 0, 75, 80
2, 72900, Note_on_c, 0, 34, 52
2, 73080, Note_on_c, 0, 34, 0
2, 73080, Note_on_c, 0, 75, 0
2, 73080, Note_on_c, 0, 73, 78
2, 73080, Note_on_c, 0, 54, 67
2, 73260, Note_on_c, 0, 73, 0
2, 73260, Note_on_c, 0, 75, 94
2, 73260, Note_on_c, 0, 63, 72
2, 73440, Note_on_c, 0, 75, 0
2, 73440, Note_on_c, 0, 73, 80
2, 73620, Note_on_c, 0, 73, 0
2, 73620, Note_on_c, 0, 63, 0
2, 73620, Note_on_c, 0, 71, 75
2, 73620, Note_on_c, 0, 66, 67
2, 73800, Note_on_c, 0, 66, 0
2, 73800, Note_on_c, 0, 71, 0
2, 73800, Note_on_c, 0, 73, 90
2, 73800, Note_on_c, 0, 65, 60
2, 73849, Note_on_c, 0, 68, 0
2, 73849, Note_on_c, 0, 71, 0
2, 73849, Note_on_c, 0, 80, 0
2, 73980, Note_on_c, 0, 65, 0
2, 73980, Note_on_c, 0, 73, 0
2, 73980, Note_on_c, 0, 66, 91
2, 73980, Note_on_c, 0, 78, 91
2, 73980, Note_on_c, 0, 76, 103
2, 73980, Note_on_c, 0, 64, 61
2, 74160, Note_on_c, 0, 78, 0
2, 74160, Note_on_c, 0, 66, 0
2, 74160, Note_on_c, 0, 68, 103
2, 74160, Note_on_c, 0, 80, 103
2, 74340, Note_on_c, 0, 80, 0
2, 74340, Note_on_c, 0, 68, 0
2, 74340, Note_on_c, 0, 70, 108
2, 74340, Note_on_c, 0, 82, 108
2, 74454, Note_on_c, 0, 76, 0
2, 74520, Note_on_c, 0, 70, 0
2, 74520, Note_on_c, 0, 54, 0
2, 74520, Note_on_c, 0, 64, 0
2, 74520, Note_on_c, 0, 82, 0
2, 74520, Note_on_c, 0, 71, 97
2, 74520, Note_on_c, 0, 79, 97
2, 74520, Note_on_c, 0, 83, 97
2, 74520, Note_on_c, 0, 75, 83
2, 74520, Note_on_c, 0, 40, 54
2, 74520, Note_on_c, 0, 47, 54
2, 74700, Note_on_c, 0, 47, 0
2, 74700, Note_on_c, 0, 79, 0
2, 74700, Note_on_c, 0, 71, 0
2, 74700, Note_on_c, 0, 83, 0
2, 74700, Note_on_c, 0, 40, 0
2, 74700, Note_on_c, 0, 69, 94
2, 74700, Note_on_c, 0, 78, 94
2, 74700, Note_on_c, 0, 81, 94
2, 74700, Note_on_c, 0, 55, 62
2, 74880, Note_on_c, 0, 55, 0
2, 74880, Note_on_c, 0, 78, 0
2, 74880, Note_on_c, 0, 81, 0
2, 74880, Note_on_c, 0, 69, 0
2, 74880, Note_on_c, 0, 71, 92
2, 74880, Note_on_c, 0, 79, 92
2, 74880, Note_on_c, 0, 83, 92
2, 74880, Note_on_c, 0, 63, 67
2, 75060, Note_on_c, 0, 63, 0
2, 75060, Note_on_c, 0, 79, 0
2, 75060, Note_on_c, 0, 75, 0
2, 75060, Note_on_c, 0, 71, 0
2, 75060, Note_on_c, 0, 83, 0
2, 75060, Note_on_c, 0, 69, 89
2, 75060, Note_on_c, 0, 78, 89
2, 75060, Note_on_c, 0, 81, 89
2, 75060, Note_on_c, 0, 74, 81
2, 75060, Note_on_c, 0, 59, 73
2, 75060, Note_on_c, 0, 62, 73
2, 75218, Note_on_c, 0, 62, 0
2, 75218, Note_on_c, 0, 59, 0
2, 75240, Note_on_c, 0, 69, 0
2, 75240, Note_on_c, 0, 81, 0
2, 75240, Note_on_c, 0, 78, 0
2, 75240, Note_on_c, 0, 67, 86
2, 75240, Note_on_c, 0, 76, 86
2, 75240, Note_on_c, 0, 79, 86
2, 75240, Note_on_c, 0, 55, 59
2, 75420, Note_on_c, 0, 79, 0
2, 75420, Note_on_c, 0, 76, 0
2, 75420, Note_on_c, 0, 67, 0
2, 75420, Note_on_c, 0, 69, 83
2, 75420, Note_on_c, 0, 78, 83
2, 75420, Note_on_c, 0, 81, 83
2, 75600, Note_on_c, 0, 81, 0
2, 75600, Note_on_c, 0, 69, 0
2, 75600, Note_on_c, 0, 55, 0
2, 75600, Note_on_c, 0, 74, 0
2, 75600, Note_on_c, 0, 78, 0
2, 75600, Note_on_c, 0, 67, 80
2, 75600, Note_on_c, 0, 76, 80
2, 75600, Note_on_c, 0, 79, 80
2, 75600, Note_on_c, 0, 73, 85
2, 75600, Note_on_c, 0, 58, 86
2, 75600, Note_on_c, 0, 61, 86
2, 75758, Note_on_c, 0, 61, 0
2, 75758, Note_on_c, 0, 58, 0
2, 75780, Note_on_c, 0, 67, 0
2, 75780, Note_on_c, 0, 79, 0
2, 75780, Note_on_c, 0, 76, 0
2, 75780, Note_on_c, 0, 66, 78
2, 75780, Note_on_c, 0, 75, 78
2, 75780, Note_on_c, 0, 78, 78
2, 75780, Note_on_c, 0, 52, 56
2, 75960, Note_on_c, 0, 78, 0
2, 75960, Note_on_c, 0, 75, 0
2, 75960, Note_on_c, 0, 66, 0
2, 75960, Note_on_c, 0, 67, 75
2, 75960, Note_on_c, 0, 76, 75
2, 75960, Note_on_c, 0, 79, 75
2, 76140, Note_on_c, 0, 79, 0
2, 76140, Note_on_c, 0, 67, 0
2, 76140, Note_on_c, 0, 52, 0
2, 76140, Note_on_c, 0, 73, 0
2, 76140, Note_on_c, 0, 76, 0
2, 76140, Note_on_c, 0, 67, 67
2, 76140, Note_on_c, 0, 71, 67
2, 76140, Note_on_c, 0, 76, 67
2, 76140, Note_on_c, 0, 43, 55
2, 76320, Note_on_c, 0, 43, 0
2, 76320, Note_on_c, 0, 50, 67
2, 76500, Note_on_c, 0, 50, 0
2, 76500, Note_on_c, 0, 55, 70
2, 76500, Note_on_c, 0, 59, 70
2, 76680, Note_on_c, 0, 59, 0
2, 76680, Note_on_c, 0, 55, 0
2, 76680, Note_on_c, 0, 67, 67
2, 76860, Note_on_c, 0, 67, 0
2, 76860, Note_on_c, 0, 76, 0
2, 76860, Note_on_c, 0, 71, 0
2, 76860, Note_on_c, 0, 67, 59
2, 76860, Note_on_c, 0, 71, 59
2, 76860, Note_on_c, 0, 74, 59
2, 77040, Note_on_c, 0, 74, 0
2, 77040, Note_on_c, 0, 67, 0
2, 77040, Note_on_c, 0, 67, 0
2, 77040, Note_on_c, 0, 71, 0
2, 77040, Note_on_c, 0, 76, 63
2, 77040, Note_on_c, 0, 66, 64
2, 77220, Note_on_c, 0, 66, 0
2, 77220, Note_on_c, 0, 76, 0
2, 77220, Note_on_c, 0, 67, 55
2, 77220, Note_on_c, 0, 71, 55
2, 77220, Note_on_c, 0, 73, 55
2, 77220, Note_on_c, 0, 65, 57
2, 77400, Note_on_c, 0, 65, 0
2, 77400, Note_on_c, 0, 67, 0
2, 77400, Note_on_c, 0, 71, 0
2, 77400, Note_on_c, 0, 73, 0
2, 77400, Note_on_c, 0, 76, 67
2, 77400, Note_on_c, 0, 64, 55
2, 77580, Note_on_c, 0, 64, 0
2, 77580, Note_on_c, 0, 76, 0
2, 77580, Note_on_c, 0, 72, 57
2, 77580, Note_on_c, 0, 63, 59
2, 77760, Note_on_c, 0, 63, 0
2, 77760, Note_on_c, 0, 72, 0
2, 77760, Note_on_c, 0, 62, 55
2, 77760, Note_on_c, 0, 67, 55
2, 77760, Note_on_c, 0, 71, 55
2, 77760, Note_on_c, 0, 43, 51
2, 77940, Note_on_c, 0, 43, 0
2, 77940, Note_on_c, 0, 62, 0
2, 77940, Note_on_c, 0, 67, 0
2, 77940, Note_on_c, 0, 71, 0
2, 77940, Note_on_c, 0, 76, 72
2, 77940, Note_on_c, 0, 50, 64
2, 78120, Note_on_c, 0, 50, 0
2, 78120, Note_on_c, 0, 55, 68
2, 78120, Note_on_c, 0, 59, 68
2, 78300, Note_on_c, 0, 59, 0
2, 78300, Note_on_c, 0, 55, 0
2, 78300, Note_on_c, 0, 67, 71
2, 78480, Note_on_c, 0, 76, 0
2, 78480, Note_on_c, 0, 67, 56
2, 78480, Note_on_c, 0, 71, 56
2, 78480, Note_on_c, 0, 74, 56
2, 78660, Note_on_c, 0, 74, 0
2, 78660, Note_on_c, 0, 67, 0
2, 78660, Note_on_c, 0, 67, 0
2, 78660, Note_on_c, 0, 71, 0
2, 78660, Note_on_c, 0, 76, 59
2, 78660, Note_on_c, 0, 66, 60
2, 78840, Note_on_c, 0, 66, 0
2, 78840, Note_on_c, 0, 76, 0
2, 78840, Note_on_c, 0, 67, 56
2, 78840, Note_on_c, 0, 71, 56
2, 78840, Note_on_c, 0, 73, 56
2, 78840, Note_on_c, 0, 65, 55
2, 79020, Note_on_c, 0, 65, 0
2, 79020, Note_on_c, 0, 67, 0
2, 79020, Note_on_c, 0, 71, 0
2, 79020, Note_on_c, 0, 73, 0
2, 79020, Note_on_c, 0, 76, 64
2, 79020, Note_on_c, 0, 64, 57
2, 79200, Note_on_c, 0, 64, 0
2, 79200, Note_on_c, 0, 76, 0
2, 79200, Note_on_c, 0, 72, 54
2, 79200, Note_on_c, 0, 63, 60
2, 79380, Note_on_c, 0, 63, 0
2, 79380, Note_on_c, 0, 72, 0
2, 79380, Note_on_c, 0, 62, 60
2, 79380, Note_on_c, 0, 67, 60
2, 79380, Note_on_c, 0, 71, 60
2, 79380, Note_on_c, 0, 43, 57
2, 79560, Note_on_c, 0, 43, 0
2, 79560, Note_on_c, 0, 62, 0
2, 79560, Note_on_c, 0, 67, 0
2, 79560, Note_on_c, 0, 71, 0
2, 79560, Note_on_c, 0, 61, 59
2, 79560, Note_on_c, 0, 70, 59
2, 79560, Note_on_c, 0, 50, 62
2, 79740, Note_on_c, 0, 50, 0
2, 79740, Note_on_c, 0, 70, 0
2, 79740, Note_on_c, 0, 61, 0
2, 79740, Note_on_c, 0, 76, 57
2, 79740, Note_on_c, 0, 58, 77
2, 79740, Note_on_c, 0, 61, 77
2, 79920, Note_on_c, 0, 61, 0
2, 79920, Note_on_c, 0, 58, 0
2, 79920, Note_on_c, 0, 67, 69
2, 80100, Note_on_c, 0, 67, 0
2, 80100, Note_on_c, 0, 76, 0
2, 80100, Note_on_c, 0, 67, 54
2, 80100, Note_on_c, 0, 70, 54
2, 80100, Note_on_c, 0, 74, 54
2, 80100, Note_on_c, 0, 66, 57
2, 80280, Note_on_c, 0, 66, 0
2, 80280, Note_on_c, 0, 67, 0
2, 80280, Note_on_c, 0, 70, 0
2, 80280, Note_on_c, 0, 74, 0
2, 80280, Note_on_c, 0, 76, 53
2, 80280, Note_on_c, 0, 65, 58
2, 80460, Note_on_c, 0, 65, 0
2, 80460, Note_on_c, 0, 76, 0
2, 80460, Note_on_c, 0, 67, 51
2, 80460, Note_on_c, 0, 70, 51
2, 80460, Note_on_c, 0, 73, 51
2, 80460, Note_on_c, 0, 64, 60
2, 80640, Note_on_c, 0, 64, 0
2, 80640, Note_on_c, 0, 67, 0
2, 80640, Note_on_c, 0, 70, 0
2, 80640, Note_on_c, 0, 73, 0
2, 80640, Note_on_c, 0, 72, 50
2, 80640, Note_on_c, 0, 63, 58
2, 80820, Note_on_c, 0, 63, 0
2, 80820, Note_on_c, 0, 72, 0
2, 80820, Note_on_c, 0, 71, 49
2, 80820, Note_on_c, 0, 62, 56
2, 81000, Note_on_c, 0, 62, 0
2, 81000, Note_on_c, 0, 71, 0
2, 81000, Note_on_c, 0, 61, 47
2, 81000, Note_on_c, 0, 67, 47
2, 81000, Note_on_c, 0, 70, 47
2, 81000, Note_on_c, 0, 31, 52
2, 81180, Note_on_c, 0, 31, 0
2, 81180, Note_on_c, 0, 61, 0
2, 81180, Note_on_c, 0, 67, 0
2, 81180, Note_on_c, 0, 70, 0
2, 81180, Note_on_c, 0, 76, 46
2, 81180, Note_on_c, 0, 50, 68
2, 81360, Note_on_c, 0, 50, 0
2, 81360, Note_on_c, 0, 58, 76
2, 81360, Note_on_c, 0, 61, 76
2, 81540, Note_on_c, 0, 61, 0
2, 81540, Note_on_c, 0, 58, 0
2, 81540, Note_on_c, 0, 67, 73
2, 81720, Note_on_c, 0, 67, 0
2, 81720, Note_on_c, 0, 76, 0
2, 81720, Note_on_c, 0, 67, 41
2, 81720, Note_on_c, 0, 70, 41
2, 81720, Note_on_c, 0, 74, 41
2, 81720, Note_on_c, 0, 66, 63
2, 81900, Note_on_c, 0, 66, 0
2, 81900, Note_on_c, 0, 67, 0
2, 81900, Note_on_c, 0, 70, 0
2, 81900, Note_on_c, 0, 74, 0
2, 81900, Note_on_c, 0, 76, 40
2, 81900, Note_on_c, 0, 65, 59
2, 82080, Note_on_c, 0, 65, 0
2, 82080, Note_on_c, 0, 76, 0
2, 82080, Note_on_c, 0, 67, 38
2, 82080, Note_on_c, 0, 70, 38
2, 82080, Note_on_c, 0, 73, 38
2, 82080, Note_on_c, 0, 64, 57
2, 82260, Note_on_c, 0, 64, 0
2, 82260, Note_on_c, 0, 67, 0
2, 82260, Note_on_c, 0, 70, 0
2, 82260, Note_on_c, 0, 73, 0
2, 82260, Note_on_c, 0, 72, 37
2, 82260, Note_on_c, 0, 63, 57
2, 82440, Note_on_c, 0, 63, 0
2, 82440, Note_on_c, 0, 72, 0
2, 82440, Note_on_c, 0, 71, 35
2, 82440, Note_on_c, 0, 62, 56
2, 82620, Note_on_c, 0, 62, 0
2, 82620, Note_on_c, 0, 71, 0
2, 82620, Note_on_c, 0, 61, 61
2, 82620, Note_on_c, 0, 67, 61
2, 82620, Note_on_c, 0, 70, 61
2, 82620, Note_on_c, 0, 43, 55
2, 82620, Note_on_c, 0, 50, 55
2, 82709, Note_on_c, 0, 50, 0
2, 82709, Note_on_c, 0, 43, 0
2, 82778, Note_on_c, 0, 61, 0
2, 82778, Note_on_c, 0, 67, 0
2, 82778, Note_on_c, 0, 70, 0
2, 82800, Note_on_c, 0, 76, 54
2, 82800, Note_on_c, 0, 50, 57
2, 82980, Note_on_c, 0, 50, 0
2, 82980, Note_on_c, 0, 58, 76
2, 82980, Note_on_c, 0, 61, 76
2, 83160, Note_on_c, 0, 61, 0
2, 83160, Note_on_c, 0, 58, 0
2, 83160, Note_on_c, 0, 76, 0
2, 83160, Note_on_c, 0, 67, 90
2, 83318, Note_on_c, 0, 67, 0
2, 83340, Note_on_c, 0, 63, 49
2, 83340, Note_on_c, 0, 69, 49
2, 83340, Note_on_c, 0, 72, 49
2, 83340, Note_on_c, 0, 66, 73
2, 83498, Note_on_c, 0, 66, 0
2, 83520, Note_on_c, 0, 63, 0
2, 83520, Note_on_c, 0, 69, 0
2, 83520, Note_on_c, 0, 72, 0
2, 83520, Note_on_c, 0, 78, 57
2, 83520, Note_on_c, 0, 58, 53
2, 83520, Note_on_c, 0, 61, 53
2, 83700, Note_on_c, 0, 61, 0
2, 83700, Note_on_c, 0, 58, 0
2, 83700, Note_on_c, 0, 78, 0
2, 83700, Note_on_c, 0, 67, 86
2, 83858, Note_on_c, 0, 67, 0
2, 83880, Note_on_c, 0, 64, 42
2, 83880, Note_on_c, 0, 70, 42
2, 83880, Note_on_c, 0, 73, 42
2, 83880, Note_on_c, 0, 66, 75
2, 84038, Note_on_c, 0, 66, 0
2, 84060, Note_on_c, 0, 64, 0
2, 84060, Note_on_c, 0, 70, 0
2, 84060, Note_on_c, 0, 73, 0
2, 84060, Note_on_c, 0, 79, 56
2, 84060, Note_on_c, 0, 58, 55
2, 84060, Note_on_c, 0, 61, 55
2, 84240, Note_on_c, 0, 61, 0
2, 84240, Note_on_c, 0, 58, 0
2, 84240, Note_on_c, 0, 79, 0
2, 84240, Note_on_c, 0, 43, 52
2, 84240, Note_on_c, 0, 50, 52
2, 84329, Note_on_c, 0, 50, 0
2, 84329, Note_on_c, 0, 43, 0
2, 84420, Note_on_c, 0, 50, 59
2, 84600, Note_on_c, 0, 50, 0
2, 84600, Note_on_c, 0, 58, 77
2, 84600, Note_on_c, 0, 61, 77
2, 84780, Note_on_c, 0, 61, 0
2, 84780, Note_on_c, 0, 58, 0
2, 84780, Note_on_c, 0, 67, 86
2, 84938, Note_on_c, 0, 67, 0
2, 84960, Note_on_c, 0, 69, 47
2, 84960, Note_on_c, 0, 72, 47
2, 84960, Note_on_c, 0, 75, 47
2, 84960, Note_on_c, 0, 66, 72
2, 85118, Note_on_c, 0, 66, 0
2, 85140, Note_on_c, 0, 69, 0
2, 85140, Note_on_c, 0, 72, 0
2, 85140, Note_on_c, 0, 75, 0
2, 85140, Note_on_c, 0, 81, 56
2, 85140, Note_on_c, 0, 58, 56
2, 85140, Note_on_c, 0, 61, 56
2, 85320, Note_on_c, 0, 61, 0
2, 85320, Note_on_c, 0, 58, 0
2, 85320, Note_on_c, 0, 81, 0
2, 85320, Note_on_c, 0, 67, 79
2, 85478, Note_on_c, 0, 67, 0
2, 85500, Note_on_c, 0, 70, 42
2, 85500, Note_on_c, 0, 73, 42
2, 85500, Note_on_c, 0, 76, 42
2, 85500, Note_on_c, 0, 66, 74
2, 85658, Note_on_c, 0, 66, 0
2, 85680, Note_on_c, 0, 70, 0
2, 85680, Note_on_c, 0, 73, 0
2, 85680, Note_on_c, 0, 76, 0
2, 85680, Note_on_c, 0, 82, 55
2, 85680, Note_on_c, 0, 58, 51
2, 85680, Note_on_c, 0, 61, 51
2, 85860, Note_on_c, 0, 61, 0
2, 85860, Note_on_c, 0, 58, 0
2, 85860, Note_on_c, 0, 82, 0
2, 85860, Note_on_c, 0, 70, 50
2, 85860, Note_on_c, 0, 43, 53
2, 85860, Note_on_c, 0, 50, 53
2, 85949, Note_on_c, 0, 50, 0
2, 85949, Note_on_c, 0, 43, 0
2, 86040, Note_on_c, 0, 50, 59
2, 86220, Note_on_c, 0, 50, 0
2, 86220, Note_on_c, 0, 70, 0
2, 86220, Note_on_c, 0, 58, 79
2, 86220, Note_on_c, 0, 61, 79
2, 86400, Note_on_c, 0, 61, 0
2, 86400, Note_on_c, 0, 58, 0
2, 86400, Note_on_c, 0, 72, 55
2, 86400, Note_on_c, 0, 75, 55
2, 86400, Note_on_c, 0, 81, 55
2, 86400, Note_on_c, 0, 67, 86
2, 86558, Note_on_c, 0, 67, 0
2, 86580, Note_on_c, 0, 72, 0
2, 86580, Note_on_c, 0, 75, 0
2, 86580, Note_on_c, 0, 81, 0
2, 86580, Note_on_c, 0, 84, 56
2, 86580, Note_on_c, 0, 66, 73
2, 86738, Note_on_c, 0, 66, 0
2, 86760, Note_on_c, 0, 84, 0
2, 86760, Note_on_c, 0, 73, 58
2, 86760, Note_on_c, 0, 76, 58
2, 86760, Note_on_c, 0, 82, 58
2, 86760, Note_on_c, 0, 58, 54
2, 86760, Note_on_c, 0, 61, 54
2, 86940, Note_on_c, 0, 61, 0
2, 86940, Note_on_c, 0, 82, 0
2, 86940, Note_on_c, 0, 73, 0
2, 86940, Note_on_c, 0, 76, 0
2, 86940, Note_on_c, 0, 58, 0
2, 86940, Note_on_c, 0, 85, 59
2, 86940, Note_on_c, 0, 67, 83
2, 87098, Note_on_c, 0, 67, 0
2, 87120, Note_on_c, 0, 85, 0
2, 87120, Note_on_c, 0, 75, 61
2, 87120, Note_on_c, 0, 81, 61
2, 87120, Note_on_c, 0, 84, 61
2, 87120, Note_on_c, 0, 66, 71
2, 87278, Note_on_c, 0, 66, 0
2, 87300, Note_on_c, 0, 75, 0
2, 87300, Note_on_c, 0, 81, 0
2, 87300, Note_on_c, 0, 84, 0
2, 87300, Note_on_c, 0, 87, 62
2, 87300, Note_on_c, 0, 58, 56
2, 87300, Note_on_c, 0, 61, 56
2, 87480, Note_on_c, 0, 61, 0
2, 87480, Note_on_c, 0, 58, 0
2, 87480, Note_on_c, 0, 87, 0
2, 87480, Note_on_c, 0, 76, 64
2, 87480, Note_on_c, 0, 82, 64
2, 87480, Note_on_c, 0, 85, 64
2, 87480, Note_on_c, 0, 67, 84
2, 87638, Note_on_c, 0, 67, 0
2, 87660, Note_on_c, 0, 76, 0
2, 87660, Note_on_c, 0, 82, 0
2, 87660, Note_on_c, 0, 85, 0
2, 87660, Note_on_c, 0, 88, 65
2, 87660, Note_on_c, 0, 66, 71
2, 87818, Note_on_c, 0, 66, 0
2, 87840, Note_on_c, 0, 88, 0
2, 87840, Note_on_c, 0, 77, 67
2, 87840, Note_on_c, 0, 85, 67
2, 87840, Note_on_c, 0, 89, 67
2, 87840, Note_on_c, 0, 58, 53
2, 87840, Note_on_c, 0, 61, 53
2, 87929, Note_on_c, 0, 89, 0
2, 87929, Note_on_c, 0, 77, 0
2, 87929, Note_on_c, 0, 85, 0
2, 88020, Note_on_c, 0, 58, 0
2, 88020, Note_on_c, 0, 61, 0
2, 88020, Note_on_c, 0, 78, 68
2, 88020, Note_on_c, 0, 85, 68
2, 88020, Note_on_c, 0, 89, 68
2, 88020, Note_on_c, 0, 67, 79
2, 88109, Note_on_c, 0, 89, 0
2, 88109, Note_on_c, 0, 78, 0
2, 88109, Note_on_c, 0, 85, 0
2, 88178, Note_on_c, 0, 67, 0
2, 88200, Note_on_c, 0, 79, 70
2, 88200, Note_on_c, 0, 85, 70
2, 88200, Note_on_c, 0, 89, 70
2, 88200, Note_on_c, 0, 66, 74
2, 88289, Note_on_c, 0, 89, 0
2, 88289, Note_on_c, 0, 79, 0
2, 88289, Note_on_c, 0, 85, 0
2, 88358, Note_on_c, 0, 66, 0
2, 88380, Note_on_c, 0, 81, 71
2, 88380, Note_on_c, 0, 85, 71
2, 88380, Note_on_c, 0, 89, 71
2, 88380, Note_on_c, 0, 58, 51
2, 88380, Note_on_c, 0, 61, 51
2, 88469, Note_on_c, 0, 89, 0
2, 88469, Note_on_c, 0, 81, 0
2, 88469, Note_on_c, 0, 85, 0
2, 88560, Note_on_c, 0, 58, 0
2, 88560, Note_on_c, 0, 61, 0
2, 88560, Note_on_c, 0, 82, 73
2, 88560, Note_on_c, 0, 85, 73
2, 88560, Note_on_c, 0, 89, 73
2, 88560, Note_on_c, 0, 67, 84
2, 88649, Note_on_c, 0, 89, 0
2, 88649, Note_on_c, 0, 82, 0
2, 88649, Note_on_c, 0, 85, 0
2, 88718, Note_on_c, 0, 67, 0
2, 88740, Note_on_c, 0, 84, 74
2, 88740, Note_on_c, 0, 85, 74
2, 88740, Note_on_c, 0, 89, 74
2, 88740, Note_on_c, 0, 66, 70
2, 88829, Note_on_c, 0, 89, 0
2, 88829, Note_on_c, 0, 84, 0
2, 88829, Note_on_c, 0, 85, 0
2, 88898, Note_on_c, 0, 66, 0
2, 88920, Note_on_c, 0, 85, 76
2, 88920, Note_on_c, 0, 89, 76
2, 88920, Note_on_c, 0, 58, 49
2, 88920, Note_on_c, 0, 61, 49
2, 89009, Note_on_c, 0, 89, 0
2, 89009, Note_on_c, 0, 85, 0
2, 89100, Note_on_c, 0, 58, 0
2, 89100, Note_on_c, 0, 61, 0
2, 89100, Note_on_c, 0, 67, 127
2, 89100, Note_on_c, 0, 73, 127
2, 89100, Note_on_c, 0, 49, 96
2, 89100, Note_on_c, 0, 55, 96
2, 89100, Note_on_c, 0, 61, 96
2, 89280, Note_on_c, 0, 89, 70
2, 89280, Note_on_c, 0, 94, 70
2, 89280, Note_on_c, 0, 31, 55
2, 89280, Note_on_c, 0, 31, 57
2, 89460, Note_on_c, 0, 31, 0
2, 89460, Note_on_c, 0, 94, 0
2, 89460, Note_on_c, 0, 89, 0
2, 89460, Note_on_c, 0, 88, 74
2, 89460, Note_on_c, 0, 93, 74
2, 89460, Note_on_c, 0, 36, 62
2, 89640, Note_on_c, 0, 36, 0
2, 89640, Note_on_c, 0, 93, 0
2, 89640, Note_on_c, 0, 88, 0
2, 89640, Note_on_c, 0, 87, 79
2, 89640, Note_on_c, 0, 94, 79
2, 89640, Note_on_c, 0, 37, 65
2, 89820, Note_on_c, 0, 37, 0
2, 89820, Note_on_c, 0, 94, 0
2, 89820, Note_on_c, 0, 87, 0
2, 89820, Note_on_c, 0, 86, 68
2, 89820, Note_on_c, 0, 93, 68
2, 89820, Note_on_c, 0, 38, 60
2, 90000, Note_on_c, 0, 38, 0
2, 90000, Note_on_c, 0, 93, 0
2, 90000, Note_on_c, 0, 86, 0
2, 90000, Note_on_c, 0, 85, 79
2, 90000, Note_on_c, 0, 94, 79
2, 90000, Note_on_c, 0, 39, 65
2, 90180, Note_on_c, 0, 39, 0
2, 90180, Note_on_c, 0, 94, 0
2, 90180, Note_on_c, 0, 85, 0
2, 90180, Note_on_c, 0, 84, 71
2, 90180, Note_on_c, 0, 91, 71
2, 90180, Note_on_c, 0, 40, 63
2, 90360, Note_on_c, 0, 40, 0
2, 90360, Note_on_c, 0, 91, 0
2, 90360, Note_on_c, 0, 84, 0
2, 90360, Note_on_c, 0, 83, 93
2, 90360, Note_on_c, 0, 88, 93
2, 90360, Note_on_c, 0, 41, 64
2, 90540, Note_on_c, 0, 41, 0
2, 90540, Note_on_c, 0, 88, 0
2, 90540, Note_on_c, 0, 83, 0
2, 90540, Note_on_c, 0, 82, 76
2, 90540, Note_on_c, 0, 87, 76
2, 90540, Note_on_c, 0, 42, 61
2, 90720, Note_on_c, 0, 42, 0
2, 90720, Note_on_c, 0, 87, 0
2, 90720, Note_on_c, 0, 82, 0
2, 90720, Note_on_c, 0, 81, 81
2, 90720, Note_on_c, 0, 88, 81
2, 90720, Note_on_c, 0, 43, 63
2, 90900, Note_on_c, 0, 43, 0
2, 90900, Note_on_c, 0, 88, 0
2, 90900, Note_on_c, 0, 81, 0
2, 90900, Note_on_c, 0, 80, 76
2, 90900, Note_on_c, 0, 87, 76
2, 90900, Note_on_c, 0, 44, 60
2, 91080, Note_on_c, 0, 44, 0
2, 91080, Note_on_c, 0, 87, 0
2, 91080, Note_on_c, 0, 80, 0
2, 91080, Note_on_c, 0, 31, 0
2, 91080, Note_on_c, 0, 79, 78
2, 91080, Note_on_c, 0, 88, 78
2, 91080, Note_on_c, 0, 45, 67
2, 91260, Note_on_c, 0, 45, 0
2, 91260, Note_on_c, 0, 61, 0
2, 91260, Note_on_c, 0, 73, 0
2, 91260, Note_on_c, 0, 67, 0
2, 91260, Note_on_c, 0, 49, 0
2, 91260, Note_on_c, 0, 55, 0
2, 91260, Note_on_c, 0, 79, 0
2, 91260, Note_on_c, 0, 88, 0
2, 91260, Note_on_c, 0, 78, 74
2, 91260, Note_on_c, 0, 85, 74
2, 91260, Note_on_c, 0, 46, 65
2, 91260, Note_on_c, 0, 43, 52
2, 91440, Note_on_c, 0, 46, 0
2, 91440, Note_on_c, 0, 78, 0
2, 91440, Note_on_c, 0, 85, 0
2, 91440, Note_on_c, 0, 77, 67
2, 91440, Note_on_c, 0, 82, 67
2, 91440, Note_on_c, 0, 47, 65
2, 91620, Note_on_c, 0, 47, 0
2, 91620, Note_on_c, 0, 82, 0
2, 91620, Note_on_c, 0, 77, 0
2, 91620, Note_on_c, 0, 76, 75
2, 91620, Note_on_c, 0, 81, 75
2, 91620, Note_on_c, 0, 48, 63
2, 91800, Note_on_c, 0, 48, 0
2, 91800, Note_on_c, 0, 81, 0
2, 91800, Note_on_c, 0, 76, 0
2, 91800, Note_on_c, 0, 75, 85
2, 91800, Note_on_c, 0, 82, 85
2, 91800, Note_on_c, 0, 49, 63
2, 91980, Note_on_c, 0, 49, 0
2, 91980, Note_on_c, 0, 82, 0
2, 91980, Note_on_c, 0, 75, 0
2, 91980, Note_on_c, 0, 74, 73
2, 91980, Note_on_c, 0, 81, 73
2, 91980, Note_on_c, 0, 50, 60
2, 92160, Note_on_c, 0, 50, 0
2, 92160, Note_on_c, 0, 81, 0
2, 92160, Note_on_c, 0, 74, 0
2, 92160, Note_on_c, 0, 73, 84
2, 92160, Note_on_c, 0, 82, 84
2, 92160, Note_on_c, 0, 51, 62
2, 92340, Note_on_c, 0, 51, 0
2, 92340, Note_on_c, 0, 82, 0
2, 92340, Note_on_c, 0, 73, 0
2, 92340, Note_on_c, 0, 72, 71
2, 92340, Note_on_c, 0, 79, 71
2, 92340, Note_on_c, 0, 52, 60
2, 92520, Note_on_c, 0, 52, 0
2, 92520, Note_on_c, 0, 79, 0
2, 92520, Note_on_c, 0, 72, 0
2, 92520, Note_on_c, 0, 71, 64
2, 92520, Note_on_c, 0, 76, 64
2, 92520, Note_on_c, 0, 53, 64
2, 92700, Note_on_c, 0, 53, 0
2, 92700, Note_on_c, 0, 76, 0
2, 92700, Note_on_c, 0, 71, 0
2, 92700, Note_on_c, 0, 70, 73
2, 92700, Note_on_c, 0, 75, 73
2, 92700, Note_on_c, 0, 54, 62
2, 92880, Note_on_c, 0, 54, 0
2, 92880, Note_on_c, 0, 75, 0
2, 92880, Note_on_c, 0, 70, 0
2, 92880, Note_on_c, 0, 69, 78
2, 92880, Note_on_c, 0, 76, 78
2, 92880, Note_on_c, 0, 55, 63
2, 93060, Note_on_c, 0, 55, 0
2, 93060, Note_on_c, 0, 76, 0
2, 93060, Note_on_c, 0, 69, 0
2, 93060, Note_on_c, 0, 68, 72
2, 93060, Note_on_c, 0, 75, 72
2, 93060, Note_on_c, 0, 56, 60
2, 93240, Note_on_c, 0, 56, 0
2, 93240, Note_on_c, 0, 75, 0
2, 93240, Note_on_c, 0, 68, 0
2, 93240, Note_on_c, 0, 67, 77
2, 93240, Note_on_c, 0, 76, 77
2, 93240, Note_on_c, 0, 57, 63
2, 93420, Note_on_c, 0, 57, 0
2, 93420, Note_on_c, 0, 43, 0
2, 93420, Note_on_c, 0, 67, 0
2, 93420, Note_on_c, 0, 76, 0
2, 93420, Note_on_c, 0, 66, 75
2, 93420, Note_on_c, 0, 73, 75
2, 93420, Note_on_c, 0, 58, 71
2, 93420, Note_on_c, 0, 61, 71
2, 93600, Note_on_c, 0, 73, 0
2, 93600, Note_on_c, 0, 66, 0
2, 93600, Note_on_c, 0, 65, 67
2, 93600, Note_on_c, 0, 70, 67
2, 93780, Note_on_c, 0, 70, 0
2, 93780, Note_on_c, 0, 65, 0
2, 93780, Note_on_c, 0, 64, 82
2, 93780, Note_on_c, 0, 76, 82
2, 93960, Note_on_c, 0, 76, 0
2, 93960, Note_on_c, 0, 64, 0
2, 93960, Note_on_c, 0, 66, 65
2, 93960, Note_on_c, 0, 73, 65
2, 93960, Note_on_c, 0, 85, 52
2, 94094, Note_on_c, 0, 85, 0
2, 94140, Note_on_c, 0, 66, 0
2, 94140, Note_on_c, 0, 73, 0
2, 94140, Note_on_c, 0, 65, 69
2, 94140, Note_on_c, 0, 70, 69
2, 94230, Note_on_c, 0, 85, 61
2, 94320, Note_on_c, 0, 70, 0
2, 94320, Note_on_c, 0, 65, 0
2, 94320, Note_on_c, 0, 64, 88
2, 94320, Note_on_c, 0, 76, 88
2, 94364, Note_on_c, 0, 85, 0
2, 94500, Note_on_c, 0, 64, 0
2, 94500, Note_on_c, 0, 61, 0
2, 94500, Note_on_c, 0, 58, 0
2, 94500, Note_on_c, 0, 76, 0
2, 94500, Note_on_c, 0, 66, 70
2, 94500, Note_on_c, 0, 73, 70
2, 94500, Note_on_c, 0, 82, 65
2, 94680, Note_on_c, 0, 73, 0
2, 94680, Note_on_c, 0, 66, 0
2, 94680, Note_on_c, 0, 65, 70
2, 94680, Note_on_c, 0, 70, 70
2, 94860, Note_on_c, 0, 70, 0
2, 94860, Note_on_c, 0, 65, 0
2, 94860, Note_on_c, 0, 64, 87
2, 94860, Note_on_c, 0, 76, 87
2, 94974, Note_on_c, 0, 82, 0
2, 95040, Note_on_c, 0, 76, 0
2, 95040, Note_on_c, 0, 64, 0
2, 95040, Note_on_c, 0, 66, 72
2, 95040, Note_on_c, 0, 73, 72
2, 95040, Note_on_c, 0, 49, 72
2, 95040, Note_on_c, 0, 57, 72
2, 95220, Note_on_c, 0, 73, 0
2, 95220, Note_on_c, 0, 66, 0
2, 95220, Note_on_c, 0, 65, 69
2, 95220, Note_on_c, 0, 69, 69
2, 95400, Note_on_c, 0, 69, 0
2, 95400, Note_on_c, 0, 65, 0
2, 95400, Note_on_c, 0, 64, 88
2, 95400, Note_on_c, 0, 76, 88
2, 95580, Note_on_c, 0, 76, 0
2, 95580, Note_on_c, 0, 64, 0
2, 95580, Note_on_c, 0, 66, 69
2, 95580, Note_on_c, 0, 73, 69
2, 95580, Note_on_c, 0, 31, 58
2, 95760, Note_on_c, 0, 73, 0
2, 95760, Note_on_c, 0, 66, 0
2, 95760, Note_on_c, 0, 65, 70
2, 95760, Note_on_c, 0, 69, 70
2, 95940, Note_on_c, 0, 69, 0
2, 95940, Note_on_c, 0, 65, 0
2, 95940, Note_on_c, 0, 64, 87
2, 95940, Note_on_c, 0, 76, 87
2, 96120, Note_on_c, 0, 76, 0
2, 96120, Note_on_c, 0, 31, 0
2, 96120, Note_on_c, 0, 64, 0
2, 96120, Note_on_c, 0, 66, 71
2, 96120, Note_on_c, 0, 73, 71
2, 96300, Note_on_c, 0, 73, 0
2, 96300, Note_on_c, 0, 66, 0
2, 96300, Note_on_c, 0, 65, 66
2, 96300, Note_on_c, 0, 69, 66
2, 96480, Note_on_c, 0, 69, 0
2, 96480, Note_on_c, 0, 65, 0
2, 96480, Note_on_c, 0, 64, 90
2, 96480, Note_on_c, 0, 76, 90
2, 96660, Note_on_c, 0, 76, 0
2, 96660, Note_on_c, 0, 57, 0
2, 96660, Note_on_c, 0, 49, 0
2, 96660, Note_on_c, 0, 64, 0
2, 96660, Note_on_c, 0, 66, 71
2, 96660, Note_on_c, 0, 72, 71
2, 96660, Note_on_c, 0, 57, 67
2, 96660, Note_on_c, 0, 60, 67
2, 96840, Note_on_c, 0, 72, 0
2, 96840, Note_on_c, 0, 66, 0
2, 96840, Note_on_c, 0, 65, 68
2, 96840, Note_on_c, 0, 69, 68
2, 97020, Note_on_c, 0, 69, 0
2, 97020, Note_on_c, 0, 65, 0
2, 97020, Note_on_c, 0, 64, 87
2, 97020, Note_on_c, 0, 76, 87
2, 97200, Note_on_c, 0, 76, 0
2, 97200, Note_on_c, 0, 64, 0
2, 97200, Note_on_c, 0, 66, 69
2, 97200, Note_on_c, 0, 72, 69
2, 97200, Note_on_c, 0, 81, 53
2, 97334, Note_on_c, 0, 81, 0
2, 97380, Note_on_c, 0, 66, 0
2, 97380, Note_on_c, 0, 72, 0
2, 97380, Note_on_c, 0, 65, 64
2, 97380, Note_on_c, 0, 69, 64
2, 97470, Note_on_c, 0, 81, 57
2, 97560, Note_on_c, 0, 69, 0
2, 97560, Note_on_c, 0, 65, 0
2, 97560, Note_on_c, 0, 64, 86
2, 97560, Note_on_c, 0, 76, 86
2, 97604, Note_on_c, 0, 81, 0
2, 97740, Note_on_c, 0, 64, 0
2, 97740, Note_on_c, 0, 60, 0
2, 97740, Note_on_c, 0, 57, 0
2, 97740, Note_on_c, 0, 76, 0
2, 97740, Note_on_c, 0, 66, 70
2, 97740, Note_on_c, 0, 72, 70
2, 97740, Note_on_c, 0, 76, 65
2, 97920, Note_on_c, 0, 72, 0
2, 97920, Note_on_c, 0, 66, 0
2, 97920, Note_on_c, 0, 65, 72
2, 97920, Note_on_c, 0, 69, 72
2, 98100, Note_on_c, 0, 69, 0
2, 98100, Note_on_c, 0, 65, 0
2, 98100, Note_on_c, 0, 64, 88
2, 98100, Note_on_c, 0, 76, 88
2, 98214, Note_on_c, 0, 76, 0
2, 98280, Note_on_c, 0, 76, 0
2, 98280, Note_on_c, 0, 64, 0
2, 98280, Note_on_c, 0, 66, 70
2, 98280, Note_on_c, 0, 72, 70
2, 98280, Note_on_c, 0, 50, 66
2, 98280, Note_on_c, 0, 56, 66
2, 98460, Note_on_c, 0, 72, 0
2, 98460, Note_on_c, 0, 66, 0
2, 98460, Note_on_c, 0, 65, 69
2, 98460, Note_on_c, 0, 68, 69
2, 98640, Note_on_c, 0, 68, 0
2, 98640, Note_on_c, 0, 65, 0
2, 98640, Note_on_c, 0, 64, 86
2, 98640, Note_on_c, 0, 76, 86
2, 98820, Note_on_c, 0, 76, 0
2, 98820, Note_on_c, 0, 64, 0
2, 98820, Note_on_c, 0, 66, 70
2, 98820, Note_on_c, 0, 72, 70
2, 98820, Note_on_c, 0, 31, 58
2, 99000, Note_on_c, 0, 72, 0
2, 99000, Note_on_c, 0, 66, 0
2, 99000, Note_on_c, 0, 65, 69
2, 99000, Note_on_c, 0, 68, 69
2, 99180, Note_on_c, 0, 68, 0
2, 99180, Note_on_c, 0, 65, 0
2, 99180, Note_on_c, 0, 64, 94
2, 99180, Note_on_c, 0, 76, 94
2, 99360, Note_on_c, 0, 76, 0
2, 99360, Note_on_c, 0, 31, 0
2, 99360, Note_on_c, 0, 64, 0
2, 99360, Note_on_c, 0, 66, 71
2, 99360, Note_on_c, 0, 72, 71
2, 99540, Note_on_c, 0, 72, 0
2, 99540, Note_on_c, 0, 66, 0
2, 99540, Note_on_c, 0, 65, 63
2, 99540, Note_on_c, 0, 68, 63
2, 99720, Note_on_c, 0, 68, 0
2, 99720, Note_on_c, 0, 65, 0
2, 99720, Note_on_c, 0, 64, 88
2, 99720, Note_on_c, 0, 76, 88
2, 99900, Note_on_c, 0, 76, 0
2, 99900, Note_on_c, 0, 56, 0
2, 99900, Note_on_c, 0, 50, 0
2, 99900, Note_on_c, 0, 64, 0
2, 99900, Note_on_c, 0, 65, 75
2, 99900, Note_on_c, 0, 72, 75
2, 99900, Note_on_c, 0, 50, 77
2, 99900, Note_on_c, 0, 57, 77
2, 99900, Note_on_c, 0, 60, 77
2, 100080, Note_on_c, 0, 72, 0
2, 100080, Note_on_c, 0, 65, 0
2, 100080, Note_on_c, 0, 64, 70
2, 100080, Note_on_c, 0, 69, 70
2, 100260, Note_on_c, 0, 69, 0
2, 100260, Note_on_c, 0, 64, 0
2, 100260, Note_on_c, 0, 62, 88
2, 100260, Note_on_c, 0, 76, 88
2, 100374, Note_on_c, 0, 60, 0
2, 100374, Note_on_c, 0, 57, 0
2, 100374, Note_on_c, 0, 50, 0
2, 100440, Note_on_c, 0, 62, 0
2, 100440, Note_on_c, 0, 76, 0
2, 100440, Note_on_c, 0, 65, 68
2, 100440, Note_on_c, 0, 72, 68
2, 100440, Note_on_c, 0, 45, 54
2, 100620, Note_on_c, 0, 45, 0
2, 100620, Note_on_c, 0, 72, 0
2, 100620, Note_on_c, 0, 65, 0
2, 100620, Note_on_c, 0, 64, 73
2, 100620, Note_on_c, 0, 69, 73
2, 100620, Note_on_c, 0, 74, 52
2, 100709, Note_on_c, 0, 74, 0
2, 100709, Note_on_c, 0, 69, 0
2, 100709, Note_on_c, 0, 64, 0
2, 100800, Note_on_c, 0, 64, 88
2, 100800, Note_on_c, 0, 76, 88
2, 100800, Note_on_c, 0, 76, 64
2, 100889, Note_on_c, 0, 76, 0
2, 100980, Note_on_c, 0, 76, 0
2, 100980, Note_on_c, 0, 64, 0
2, 100980, Note_on_c, 0, 65, 68
2, 100980, Note_on_c, 0, 72, 68
2, 100980, Note_on_c, 0, 74, 58
2, 101069, Note_on_c, 0, 74, 0
2, 101069, Note_on_c, 0, 72, 0
2, 101069, Note_on_c, 0, 65, 0
2, 101160, Note_on_c, 0, 64, 65
2, 101160, Note_on_c, 0, 69, 65
2, 101160, Note_on_c, 0, 76, 63
2, 101249, Note_on_c, 0, 76, 0
2, 101249, Note_on_c, 0, 69, 0
2, 101249, Note_on_c, 0, 64, 0
2, 101340, Note_on_c, 0, 62, 61
2, 101340, Note_on_c, 0, 65, 61
2, 101340, Note_on_c, 0, 72, 56
2, 101429, Note_on_c, 0, 72, 0
2, 101429, Note_on_c, 0, 65, 0
2, 101429, Note_on_c, 0, 62, 0
2, 101520, Note_on_c, 0, 65, 84
2, 101520, Note_on_c, 0, 72, 84
2, 101520, Note_on_c, 0, 76, 83
2, 101609, Note_on_c, 0, 72, 0
2, 101609, Note_on_c, 0, 65, 0
2, 101700, Note_on_c, 0, 64, 72
2, 101700, Note_on_c, 0, 69, 72
2, 101789, Note_on_c, 0, 69, 0
2, 101789, Note_on_c, 0, 64, 0
2, 101880, Note_on_c, 0, 62, 66
2, 101880, Note_on_c, 0, 65, 66
2, 101969, Note_on_c, 0, 65, 0
2, 101969, Note_on_c, 0, 62, 0
2, 101994, Note_on_c, 0, 76, 0
2, 102060, Note_on_c, 0, 65, 86
2, 102060, Note_on_c, 0, 72, 86
2, 102060, Note_on_c, 0, 43, 54
2, 102105, Note_on_c, 0, 50, 54
2, 102149, Note_on_c, 0, 72, 0
2, 102149, Note_on_c, 0, 65, 0
2, 102150, Note_on_c, 0, 53, 54
2, 102195, Note_on_c, 0, 60, 54
2, 102240, Note_on_c, 0, 60, 0
2, 102240, Note_on_c, 0, 50, 0
2, 102240, Note_on_c, 0, 43, 0
2, 102240, Note_on_c, 0, 53, 0
2, 102240, Note_on_c, 0, 64, 69
2, 102240, Note_on_c, 0, 69, 69
2, 102240, Note_on_c, 0, 74, 54
2, 102329, Note_on_c, 0, 74, 0
2, 102329, Note_on_c, 0, 69, 0
2, 102329, Note_on_c, 0, 64, 0
2, 102420, Note_on_c, 0, 62, 64
2, 102420, Note_on_c, 0, 65, 64
2, 102420, Note_on_c, 0, 76, 63
2, 102509, Note_on_c, 0, 76, 0
2, 102509, Note_on_c, 0, 65, 0
2, 102509, Note_on_c, 0, 62, 0
2, 102600, Note_on_c, 0, 65, 88
2, 102600, Note_on_c, 0, 72, 88
2, 102600, Note_on_c, 0, 74, 57
2, 102689, Note_on_c, 0, 74, 0
2, 102689, Note_on_c, 0, 72, 0
2, 102689, Note_on_c, 0, 65, 0
2, 102780, Note_on_c, 0, 64, 72
2, 102780, Note_on_c, 0, 69, 72
2, 102780, Note_on_c, 0, 76, 63
2, 102869, Note_on_c, 0, 76, 0
2, 102869, Note_on_c, 0, 69, 0
2, 102869, Note_on_c, 0, 64, 0
2, 102960, Note_on_c, 0, 62, 68
2, 102960, Note_on_c, 0, 65, 68
2, 102960, Note_on_c, 0, 72, 57
2, 103049, Note_on_c, 0, 72, 0
2, 103049, Note_on_c, 0, 65, 0
2, 103049, Note_on_c, 0, 62, 0
2, 103140, Note_on_c, 0, 65, 87
2, 103140, Note_on_c, 0, 72, 87
2, 103140, Note_on_c, 0, 76, 76
2, 103229, Note_on_c, 0, 72, 0
2, 103229, Note_on_c, 0, 65, 0
2, 103320, Note_on_c, 0, 64, 69
2, 103320, Note_on_c, 0, 69, 69
2, 103409, Note_on_c, 0, 69, 0
2, 103409, Note_on_c, 0, 64, 0
2, 103500, Note_on_c, 0, 62, 70
2, 103500, Note_on_c, 0, 65, 70
2, 103589, Note_on_c, 0, 65, 0
2, 103589, Note_on_c, 0, 62, 0
2, 103614, Note_on_c, 0, 76, 0
2, 103680, Note_on_c, 0, 65, 90
2, 103680, Note_on_c, 0, 72, 90
2, 103680, Note_on_c, 0, 43, 54
2, 103725, Note_on_c, 0, 50, 54
2, 103769, Note_on_c, 0, 72, 0
2, 103769, Note_on_c, 0, 65, 0
2, 103770, Note_on_c, 0, 53, 54
2, 103815, Note_on_c, 0, 60, 54
2, 103860, Note_on_c, 0, 60, 0
2, 103860, Note_on_c, 0, 50, 0
2, 103860, Note_on_c, 0, 43, 0
2, 103860, Note_on_c, 0, 53, 0
2, 103860, Note_on_c, 0, 64, 69
2, 103860, Note_on_c, 0, 69, 69
2, 103860, Note_on_c, 0, 74, 53
2, 103949, Note_on_c, 0, 74, 0
2, 103949, Note_on_c, 0, 69, 0
2, 103949, Note_on_c, 0, 64, 0
2, 104040, Note_on_c, 0, 62, 63
2, 104040, Note_on_c, 0, 65, 63
2, 104040, Note_on_c, 0, 76, 62
2, 104129, Note_on_c, 0, 76, 0
2, 104129, Note_on_c, 0, 65, 0
2, 104129, Note_on_c, 0, 62, 0
2, 104220, Note_on_c, 0, 65, 86
2, 104220, Note_on_c, 0, 72, 86
2, 104220, Note_on_c, 0, 74, 51
2, 104309, Note_on_c, 0, 74, 0
2, 104309, Note_on_c, 0, 72, 0
2, 104309, Note_on_c, 0, 65, 0
2, 104400, Note_on_c, 0, 64, 74
2, 104400, Note_on_c, 0, 69, 74
2, 104400, Note_on_c, 0, 76, 68
2, 104489, Note_on_c, 0, 76, 0
2, 104489, Note_on_c, 0, 69, 0
2, 104489, Note_on_c, 0, 64, 0
2, 104580, Note_on_c, 0, 62, 66
2, 104580, Note_on_c, 0, 65, 66
2, 104580, Note_on_c, 0, 72, 57
2, 104669, Note_on_c, 0, 72, 0
2, 104669, Note_on_c, 0, 65, 0
2, 104669, Note_on_c, 0, 62, 0
2, 104760, Note_on_c, 0, 65, 117
2, 104760, Note_on_c, 0, 72, 117
2, 104760, Note_on_c, 0, 74, 80
2, 104940, Note_on_c, 0, 74, 0
2, 104940, Note_on_c, 0, 72, 0
2, 104940, Note_on_c, 0, 65, 0
2, 104940, Note_on_c, 0, 64, 72
2, 104940, Note_on_c, 0, 69, 72
2, 104940, Note_on_c, 0, 76, 63
2, 105029, Note_on_c, 0, 76, 0
2, 105029, Note_on_c, 0, 69, 0
2, 105029, Note_on_c, 0, 64, 0
2, 105120, Note_on_c, 0, 62, 69
2, 105120, Note_on_c, 0, 65, 69
2, 105120, Note_on_c, 0, 72, 56
2, 105209, Note_on_c, 0, 72, 0
2, 105209, Note_on_c, 0, 65, 0
2, 105209, Note_on_c, 0, 62, 0
2, 105300, Note_on_c, 0, 65, 115
2, 105300, Note_on_c, 0, 72, 115
2, 105300, Note_on_c, 0, 74, 86
2, 105480, Note_on_c, 0, 74, 0
2, 105480, Note_on_c, 0, 72, 0
2, 105480, Note_on_c, 0, 65, 0
2, 105480, Note_on_c, 0, 64, 72
2, 105480, Note_on_c, 0, 69, 72
2, 105480, Note_on_c, 0, 76, 66
2, 105569, Note_on_c, 0, 76, 0
2, 105569, Note_on_c, 0, 69, 0
2, 105569, Note_on_c, 0, 64, 0
2, 105660, Note_on_c, 0, 62, 67
2, 105660, Note_on_c, 0, 65, 67
2, 105660, Note_on_c, 0, 72, 56
2, 105749, Note_on_c, 0, 72, 0
2, 105749, Note_on_c, 0, 65, 0
2, 105749, Note_on_c, 0, 62, 0
2, 105840, Note_on_c, 0, 65, 111
2, 105840, Note_on_c, 0, 72, 111
2, 105840, Note_on_c, 0, 74, 86
2, 106020, Note_on_c, 0, 74, 0
2, 106020, Note_on_c, 0, 72, 0
2, 106020, Note_on_c, 0, 65, 0
2, 106020, Note_on_c, 0, 64, 70
2, 106020, Note_on_c, 0, 69, 70
2, 106020, Note_on_c, 0, 76, 64
2, 106109, Note_on_c, 0, 76, 0
2, 106109, Note_on_c, 0, 69, 0
2, 106109, Note_on_c, 0, 64, 0
2, 106200, Note_on_c, 0, 62, 70
2, 106200, Note_on_c, 0, 65, 70
2, 106200, Note_on_c, 0, 72, 52
2, 106289, Note_on_c, 0, 72, 0
2, 106289, Note_on_c, 0, 65, 0
2, 106289, Note_on_c, 0, 62, 0
2, 106560, Note_on_c, 0, 62, 64
2, 106560, Note_on_c, 0, 69, 64
2, 106560, Note_on_c, 0, 72, 64
2, 106649, Note_on_c, 0, 72, 0
2, 106649, Note_on_c, 0, 69, 0
2, 106649, Note_on_c, 0, 62, 0
2, 106740, Note_on_c, 0, 64, 71
2, 106740, Note_on_c, 0, 69, 71
2, 106740, Note_on_c, 0, 72, 71
2, 106829, Note_on_c, 0, 72, 0
2, 106829, Note_on_c, 0, 69, 0
2, 106829, Note_on_c, 0, 64, 0
2, 106920, Note_on_c, 0, 65, 104
2, 106920, Note_on_c, 0, 69, 104
2, 106920, Note_on_c, 0, 72, 104
2, 107100, Note_on_c, 0, 72, 0
2, 107100, Note_on_c, 0, 69, 0
2, 107100, Note_on_c, 0, 65, 0
2, 107100, Note_on_c, 0, 64, 79
2, 107100, Note_on_c, 0, 69, 79
2, 107100, Note_on_c, 0, 72, 79
2, 107189, Note_on_c, 0, 72, 0
2, 107189, Note_on_c, 0, 69, 0
2, 107189, Note_on_c, 0, 64, 0
2, 107280, Note_on_c, 0, 62, 72
2, 107280, Note_on_c, 0, 69, 72
2, 107280, Note_on_c, 0, 72, 72
2, 107369, Note_on_c, 0, 72, 0
2, 107369, Note_on_c, 0, 69, 0
2, 107369, Note_on_c, 0, 62, 0
2, 107460, Note_on_c, 0, 65, 100
2, 107460, Note_on_c, 0, 69, 100
2, 107460, Note_on_c, 0, 72, 100
2, 107460, Note_on_c, 0, 60, 81
2, 107640, Note_on_c, 0, 60, 0
2, 107640, Note_on_c, 0, 65, 0
2, 107640, Note_on_c, 0, 69, 0
2, 107640, Note_on_c, 0, 72, 0
2, 107640, Note_on_c, 0, 64, 74
2, 107640, Note_on_c, 0, 69, 74
2, 107640, Note_on_c, 0, 72, 74
2, 107640, Note_on_c, 0, 58, 61
2, 107729, Note_on_c, 0, 58, 0
2, 107729, Note_on_c, 0, 64, 0
2, 107729, Note_on_c, 0, 69, 0
2, 107729, Note_on_c, 0, 72, 0
2, 107820, Note_on_c, 0, 62, 75
2, 107820, Note_on_c, 0, 69, 75
2, 107820, Note_on_c, 0, 72, 75
2, 107820, Note_on_c, 0, 57, 57
2, 107909, Note_on_c, 0, 57, 0
2, 107909, Note_on_c, 0, 62, 0
2, 107909, Note_on_c, 0, 69, 0
2, 107909, Note_on_c, 0, 72, 0
2, 108000, Note_on_c, 0, 65, 100
2, 108000, Note_on_c, 0, 69, 100
2, 108000, Note_on_c, 0, 72, 100
2, 108000, Note_on_c, 0, 55, 84
2, 108180, Note_on_c, 0, 55, 0
2, 108180, Note_on_c, 0, 65, 0
2, 108180, Note_on_c, 0, 69, 0
2, 108180, Note_on_c, 0, 72, 0
2, 108180, Note_on_c, 0, 64, 73
2, 108180, Note_on_c, 0, 69, 73
2, 108180, Note_on_c, 0, 72, 73
2, 108180, Note_on_c, 0, 54, 58
2, 108269, Note_on_c, 0, 54, 0
2, 108269, Note_on_c, 0, 64, 0
2, 108269, Note_on_c, 0, 69, 0
2, 108269, Note_on_c, 0, 72, 0
2, 108360, Note_on_c, 0, 62, 74
2, 108360, Note_on_c, 0, 69, 74
2, 108360, Note_on_c, 0, 72, 74
2, 108360, Note_on_c, 0, 53, 58
2, 108449, Note_on_c, 0, 53, 0
2, 108449, Note_on_c, 0, 62, 0
2, 108449, Note_on_c, 0, 69, 0
2, 108449, Note_on_c, 0, 72, 0
2, 108540, Note_on_c, 0, 65, 99
2, 108540, Note_on_c, 0, 69, 99
2, 108540, Note_on_c, 0, 72, 99
2, 108540, Note_on_c, 0, 50, 84
2, 108720, Note_on_c, 0, 50, 0
2, 108720, Note_on_c, 0, 65, 0
2, 108720, Note_on_c, 0, 69, 0
2, 108720, Note_on_c, 0, 72, 0
2, 108720, Note_on_c, 0, 64, 72
2, 108720, Note_on_c, 0, 69, 72
2, 108720, Note_on_c, 0, 72, 72
2, 108720, Note_on_c, 0, 48, 53
2, 108809, Note_on_c, 0, 48, 0
2, 108809, Note_on_c, 0, 64, 0
2, 108809, Note_on_c, 0, 69, 0
2, 108809, Note_on_c, 0, 72, 0
2, 108900, Note_on_c, 0, 62, 79
2, 108900, Note_on_c, 0, 69, 79
2, 108900, Note_on_c, 0, 72, 79
2, 108900, Note_on_c, 0, 46, 59
2, 108989, Note_on_c, 0, 46, 0
2, 108989, Note_on_c, 0, 62, 0
2, 108989, Note_on_c, 0, 69, 0
2, 108989, Note_on_c, 0, 72, 0
2, 109080, Note_on_c, 0, 65, 98
2, 109080, Note_on_c, 0, 69, 98
2, 109080, Note_on_c, 0, 72, 98
2, 109080, Note_on_c, 0, 45, 83
2, 109260, Note_on_c, 0, 45, 0
2, 109260, Note_on_c, 0, 65, 0
2, 109260, Note_on_c, 0, 69, 0
2, 109260, Note_on_c, 0, 72, 0
2, 109260, Note_on_c, 0, 64, 77
2, 109260, Note_on_c, 0, 69, 77
2, 109260, Note_on_c, 0, 72, 77
2, 109260, Note_on_c, 0, 43, 60
2, 109349, Note_on_c, 0, 43, 0
2, 109349, Note_on_c, 0, 64, 0
2, 109349, Note_on_c, 0, 69, 0
2, 109349, Note_on_c, 0, 72, 0
2, 109440, Note_on_c, 0, 62, 78
2, 109440, Note_on_c, 0, 69, 78
2, 109440, Note_on_c, 0, 72, 78
2, 109440, Note_on_c, 0, 41, 59
2, 109529, Note_on_c, 0, 41, 0
2, 109529, Note_on_c, 0, 62, 0
2, 109529, Note_on_c, 0, 69, 0
2, 109529, Note_on_c, 0, 72, 0
2, 109620, Note_on_c, 0, 26, 81
2, 109620, Note_on_c, 0, 38, 81
2, 109800, Note_on_c, 0, 38, 0
2, 109800, Note_on_c, 0, 26, 0
2, 109800, Note_on_c, 0, 62, 58
2, 109800, Note_on_c, 0, 69, 58
2, 109800, Note_on_c, 0, 72, 58
2, 109800, Note_on_c, 0, 45, 69
2, 109889, Note_on_c, 0, 72, 0
2, 109889, Note_on_c, 0, 62, 0
2, 109889, Note_on_c, 0, 69, 0
2, 109980, Note_on_c, 0, 45, 0
2, 109980, Note_on_c, 0, 64, 61
2, 109980, Note_on_c, 0, 69, 61
2, 109980, Note_on_c, 0, 72, 61
2, 109980, Note_on_c, 0, 53, 66
2, 110069, Note_on_c, 0, 72, 0
2, 110069, Note_on_c, 0, 64, 0
2, 110069, Note_on_c, 0, 69, 0
2, 110160, Note_on_c, 0, 53, 0
2, 110160, Note_on_c, 0, 65, 86
2, 110160, Note_on_c, 0, 69, 86
2, 110160, Note_on_c, 0, 72, 86
2, 110160, Note_on_c, 0, 60, 97
2, 110340, Note_on_c, 0, 60, 0
2, 110340, Note_on_c, 0, 65, 0
2, 110340, Note_on_c, 0, 69, 0
2, 110340, Note_on_c, 0, 72, 0
2, 110340, Note_on_c, 0, 74, 96
2, 110340, Note_on_c, 0, 64, 57
2, 110340, Note_on_c, 0, 69, 57
2, 110340, Note_on_c, 0, 72, 57
2, 110340, Note_on_c, 0, 53, 58
2, 110429, Note_on_c, 0, 72, 0
2, 110429, Note_on_c, 0, 69, 0
2, 110429, Note_on_c, 0, 74, 0
2, 110429, Note_on_c, 0, 64, 0
2, 110520, Note_on_c, 0, 53, 0
2, 110520, Note_on_c, 0, 76, 102
2, 110520, Note_on_c, 0, 62, 62
2, 110520, Note_on_c, 0, 69, 62
2, 110520, Note_on_c, 0, 72, 62
2, 110520, Note_on_c, 0, 45, 52
2, 110609, Note_on_c, 0, 72, 0
2, 110609, Note_on_c, 0, 69, 0
2, 110609, Note_on_c, 0, 76, 0
2, 110609, Note_on_c, 0, 62, 0
2, 110700, Note_on_c, 0, 45, 0
2, 110700, Note_on_c, 0, 74, 101
2, 110700, Note_on_c, 0, 65, 85
2, 110700, Note_on_c, 0, 69, 85
2, 110700, Note_on_c, 0, 72, 85
2, 110700, Note_on_c, 0, 57, 67
2, 110789, Note_on_c, 0, 74, 0
2, 110880, Note_on_c, 0, 72, 0
2, 110880, Note_on_c, 0, 65, 0
2, 110880, Note_on_c, 0, 69, 0
2, 110880, Note_on_c, 0, 57, 0
2, 110880, Note_on_c, 0, 76, 108
2, 110880, Note_on_c, 0, 64, 54
2, 110880, Note_on_c, 0, 69, 54
2, 110880, Note_on_c, 0, 72, 54
2, 110880, Note_on_c, 0, 50, 56
2, 110969, Note_on_c, 0, 72, 0
2, 110969, Note_on_c, 0, 69, 0
2, 110969, Note_on_c, 0, 76, 0
2, 110969, Note_on_c, 0, 64, 0
2, 111060, Note_on_c, 0, 50, 0
2, 111060, Note_on_c, 0, 72, 98
2, 111060, Note_on_c, 0, 62, 55
2, 111060, Note_on_c, 0, 69, 55
2, 111060, Note_on_c, 0, 53, 66
2, 111149, Note_on_c, 0, 69, 0
2, 111149, Note_on_c, 0, 72, 0
2, 111149, Note_on_c, 0, 62, 0
2, 111240, Note_on_c, 0, 53, 0
2, 111240, Note_on_c, 0, 76, 121
2, 111240, Note_on_c, 0, 65, 83
2, 111240, Note_on_c, 0, 69, 83
2, 111240, Note_on_c, 0, 72, 83
2, 111240, Note_on_c, 0, 45, 82
2, 111420, Note_on_c, 0, 45, 0
2, 111420, Note_on_c, 0, 69, 0
2, 111420, Note_on_c, 0, 72, 0
2, 111420, Note_on_c, 0, 65, 0
2, 111420, Note_on_c, 0, 64, 63
2, 111420, Note_on_c, 0, 69, 63
2, 111420, Note_on_c, 0, 72, 63
2, 111420, Note_on_c, 0, 38, 51
2, 111509, Note_on_c, 0, 72, 0
2, 111509, Note_on_c, 0, 69, 0
2, 111509, Note_on_c, 0, 64, 0
2, 111600, Note_on_c, 0, 38, 0
2, 111600, Note_on_c, 0, 62, 62
2, 111600, Note_on_c, 0, 69, 62
2, 111600, Note_on_c, 0, 72, 62
2, 111600, Note_on_c, 0, 26, 52
2, 111689, Note_on_c, 0, 72, 0
2, 111689, Note_on_c, 0, 69, 0
2, 111689, Note_on_c, 0, 62, 0
2, 111780, Note_on_c, 0, 76, 0
2, 111780, Note_on_c, 0, 26, 0
2, 111780, Note_on_c, 0, 65, 86
2, 111780, Note_on_c, 0, 69, 86
2, 111780, Note_on_c, 0, 72, 86
2, 111780, Note_on_c, 0, 60, 100
2, 111960, Note_on_c, 0, 60, 0
2, 111960, Note_on_c, 0, 65, 0
2, 111960, Note_on_c, 0, 69, 0
2, 111960, Note_on_c, 0, 72, 0
2, 111960, Note_on_c, 0, 74, 94
2, 111960, Note_on_c, 0, 64, 56
2, 111960, Note_on_c, 0, 69, 56
2, 111960, Note_on_c, 0, 72, 56
2, 111960, Note_on_c, 0, 53, 55
2, 112049, Note_on_c, 0, 74, 0
2, 112140, Note_on_c, 0, 72, 0
2, 112140, Note_on_c, 0, 64, 0
2, 112140, Note_on_c, 0, 69, 0
2, 112140, Note_on_c, 0, 53, 0
2, 112140, Note_on_c, 0, 76, 102
2, 112140, Note_on_c, 0, 62, 60
2, 112140, Note_on_c, 0, 69, 60
2, 112140, Note_on_c, 0, 72, 60
2, 112140, Note_on_c, 0, 45, 57
2, 112229, Note_on_c, 0, 76, 0
2, 112320, Note_on_c, 0, 72, 0
2, 112320, Note_on_c, 0, 62, 0
2, 112320, Note_on_c, 0, 69, 0
2, 112320, Note_on_c, 0, 45, 0
2, 112320, Note_on_c, 0, 74, 94
2, 112320, Note_on_c, 0, 65, 91
2, 112320, Note_on_c, 0, 69, 91
2, 112320, Note_on_c, 0, 72, 91
2, 112320, Note_on_c, 0, 57, 67
2, 112409, Note_on_c, 0, 74, 0
2, 112500, Note_on_c, 0, 72, 0
2, 112500, Note_on_c, 0, 65, 0
2, 112500, Note_on_c, 0, 69, 0
2, 112500, Note_on_c, 0, 57, 0
2, 112500, Note_on_c, 0, 76, 103
2, 112500, Note_on_c, 0, 64, 60
2, 112500, Note_on_c, 0, 69, 60
2, 112500, Note_on_c, 0, 72, 60
2, 112500, Note_on_c, 0, 50, 60
2, 112589, Note_on_c, 0, 76, 0
2, 112680, Note_on_c, 0, 72, 0
2, 112680, Note_on_c, 0, 64, 0
2, 112680, Note_on_c, 0, 69, 0
2, 112680, Note_on_c, 0, 50, 0
2, 112680, Note_on_c, 0, 72, 92
2, 112680, Note_on_c, 0, 62, 52
2, 112680, Note_on_c, 0, 69, 52
2, 112680, Note_on_c, 0, 53, 61
2, 112769, Note_on_c, 0, 72, 0
2, 112860, Note_on_c, 0, 62, 0
2, 112860, Note_on_c, 0, 69, 0
2, 112860, Note_on_c, 0, 53, 0
2, 112860, Note_on_c, 0, 76, 119
2, 112860, Note_on_c, 0, 65, 92
2, 112860, Note_on_c, 0, 69, 92
2, 112860, Note_on_c, 0, 72, 92
2, 112860, Note_on_c, 0, 45, 80
2, 113040, Note_on_c, 0, 45, 0
2, 113040, Note_on_c, 0, 69, 0
2, 113040, Note_on_c, 0, 72, 0
2, 113040, Note_on_c, 0, 65, 0
2, 113040, Note_on_c, 0, 64, 60
2, 113040, Note_on_c, 0, 69, 60
2, 113040, Note_on_c, 0, 72, 60
2, 113040, Note_on_c, 0, 38, 52
2, 113220, Note_on_c, 0, 38, 0
2, 113220, Note_on_c, 0, 69, 0
2, 113220, Note_on_c, 0, 72, 0
2, 113220, Note_on_c, 0, 64, 0
2, 113220, Note_on_c, 0, 62, 62
2, 113220, Note_on_c, 0, 69, 62
2, 113220, Note_on_c, 0, 72, 62
2, 113220, Note_on_c, 0, 26, 49
2, 113400, Note_on_c, 0, 26, 0
2, 113400, Note_on_c, 0, 69, 0
2, 113400, Note_on_c, 0, 76, 0
2, 113400, Note_on_c, 0, 62, 0
2, 113400, Note_on_c, 0, 72, 0
2, 113400, Note_on_c, 0, 65, 88
2, 113400, Note_on_c, 0, 69, 88
2, 113400, Note_on_c, 0, 72, 88
2, 113400, Note_on_c, 0, 57, 94
2, 113580, Note_on_c, 0, 57, 0
2, 113580, Note_on_c, 0, 65, 0
2, 113580, Note_on_c, 0, 69, 0
2, 113580, Note_on_c, 0, 72, 0
2, 113580, Note_on_c, 0, 74, 94
2, 113580, Note_on_c, 0, 64, 57
2, 113580, Note_on_c, 0, 69, 57
2, 113580, Note_on_c, 0, 50, 60
2, 113669, Note_on_c, 0, 74, 0
2, 113760, Note_on_c, 0, 64, 0
2, 113760, Note_on_c, 0, 69, 0
2, 113760, Note_on_c, 0, 50, 0
2, 113760, Note_on_c, 0, 76, 106
2, 113760, Note_on_c, 0, 62, 60
2, 113760, Note_on_c, 0, 69, 60
2, 113760, Note_on_c, 0, 45, 53
2, 113849, Note_on_c, 0, 76, 0
2, 113940, Note_on_c, 0, 62, 0
2, 113940, Note_on_c, 0, 69, 0
2, 113940, Note_on_c, 0, 45, 0
2, 113940, Note_on_c, 0, 72, 95
2, 113940, Note_on_c, 0, 65, 86
2, 113940, Note_on_c, 0, 69, 86
2, 113940, Note_on_c, 0, 53, 64
2, 114029, Note_on_c, 0, 72, 0
2, 114120, Note_on_c, 0, 65, 0
2, 114120, Note_on_c, 0, 69, 0
2, 114120, Note_on_c, 0, 53, 0
2, 114120, Note_on_c, 0, 74, 106
2, 114120, Note_on_c, 0, 64, 63
2, 114120, Note_on_c, 0, 69, 63
2, 114120, Note_on_c, 0, 48, 61
2, 114209, Note_on_c, 0, 74, 0
2, 114300, Note_on_c, 0, 64, 0
2, 114300, Note_on_c, 0, 69, 0
2, 114300, Note_on_c, 0, 48, 0
2, 114300, Note_on_c, 0, 69, 89
2, 114300, Note_on_c, 0, 62, 50
2, 114300, Note_on_c, 0, 50, 61
2, 114389, Note_on_c, 0, 69, 0
2, 114480, Note_on_c, 0, 50, 0
2, 114480, Note_on_c, 0, 62, 0
2, 114480, Note_on_c, 0, 72, 124
2, 114480, Note_on_c, 0, 65, 96
2, 114480, Note_on_c, 0, 69, 96
2, 114480, Note_on_c, 0, 43, 84
2, 114660, Note_on_c, 0, 43, 0
2, 114660, Note_on_c, 0, 69, 0
2, 114660, Note_on_c, 0, 65, 0
2, 114660, Note_on_c, 0, 64, 59
2, 114660, Note_on_c, 0, 69, 59
2, 114660, Note_on_c, 0, 38, 52
2, 114840, Note_on_c, 0, 38, 0
2, 114840, Note_on_c, 0, 69, 0
2, 114840, Note_on_c, 0, 64, 0
2, 114840, Note_on_c, 0, 62, 52
2, 114840, Note_on_c, 0, 69, 52
2, 114840, Note_on_c, 0, 26, 53
2, 115020, Note_on_c, 0, 26, 0
2, 115020, Note_on_c, 0, 72, 0
2, 115020, Note_on_c, 0, 62, 0
2, 115020, Note_on_c, 0, 69, 0
2, 115020, Note_on_c, 0, 65, 87
2, 115020, Note_on_c, 0, 69, 87
2, 115020, Note_on_c, 0, 57, 90
2, 115200, Note_on_c, 0, 57, 0
2, 115200, Note_on_c, 0, 69, 0
2, 115200, Note_on_c, 0, 65, 0
2, 115200, Note_on_c, 0, 74, 91
2, 115200, Note_on_c, 0, 64, 61
2, 115200, Note_on_c, 0, 69, 61
2, 115200, Note_on_c, 0, 50, 62
2, 115289, Note_on_c, 0, 74, 0
2, 115380, Note_on_c, 0, 64, 0
2, 115380, Note_on_c, 0, 69, 0
2, 115380, Note_on_c, 0, 50, 0
2, 115380, Note_on_c, 0, 76, 106
2, 115380, Note_on_c, 0, 62, 62
2, 115380, Note_on_c, 0, 69, 62
2, 115380, Note_on_c, 0, 45, 57
2, 115469, Note_on_c, 0, 76, 0
2, 115560, Note_on_c, 0, 62, 0
2, 115560, Note_on_c, 0, 69, 0
2, 115560, Note_on_c, 0, 45, 0
2, 115560, Note_on_c, 0, 72, 91
2, 115560, Note_on_c, 0, 65, 85
2, 115560, Note_on_c, 0, 69, 85
2, 115560, Note_on_c, 0, 53, 64
2, 115649, Note_on_c, 0, 72, 0
2, 115740, Note_on_c, 0, 65, 0
2, 115740, Note_on_c, 0, 69, 0
2, 115740, Note_on_c, 0, 53, 0
2, 115740, Note_on_c, 0, 74, 106
2, 115740, Note_on_c, 0, 64, 61
2, 115740, Note_on_c, 0, 69, 61
2, 115740, Note_on_c, 0, 48, 62
2, 115829, Note_on_c, 0, 74, 0
2, 115920, Note_on_c, 0, 64, 0
2, 115920, Note_on_c, 0, 69, 0
2, 115920, Note_on_c, 0, 48, 0
2, 115920, Note_on_c, 0, 69, 88
2, 115920, Note_on_c, 0, 62, 44
2, 115920, Note_on_c, 0, 50, 61
2, 116009, Note_on_c, 0, 69, 0
2, 116100, Note_on_c, 0, 50, 0
2, 116100, Note_on_c, 0, 62, 0
2, 116100, Note_on_c, 0, 72, 120
2, 116100, Note_on_c, 0, 65, 93
2, 116100, Note_on_c, 0, 69, 93
2, 116100, Note_on_c, 0, 43, 82
2, 116280, Note_on_c, 0, 43, 0
2, 116280, Note_on_c, 0, 69, 0
2, 116280, Note_on_c, 0, 65, 0
2, 116280, Note_on_c, 0, 64, 64
2, 116280, Note_on_c, 0, 69, 64
2, 116280, Note_on_c, 0, 38, 55
2, 116460, Note_on_c, 0, 38, 0
2, 116460, Note_on_c, 0, 69, 0
2, 116460, Note_on_c, 0, 64, 0
2, 116460, Note_on_c, 0, 62, 62
2, 116460, Note_on_c, 0, 69, 62
2, 116460, Note_on_c, 0, 26, 50
2, 116640, Note_on_c, 0, 26, 0
2, 116640, Note_on_c, 0, 72, 0
2, 116640, Note_on_c, 0, 62, 0
2, 116640, Note_on_c, 0, 69, 0
2, 116640, Note_on_c, 0, 65, 84
2, 116640, Note_on_c, 0, 69, 84
2, 116640, Note_on_c, 0, 53, 91
2, 116820, Note_on_c, 0, 53, 0
2, 116820, Note_on_c, 0, 69, 0
2, 116820, Note_on_c, 0, 65, 0
2, 116820, Note_on_c, 0, 69, 93
2, 116820, Note_on_c, 0, 64, 52
2, 116820, Note_on_c, 0, 50, 60
2, 116909, Note_on_c, 0, 69, 0
2, 117000, Note_on_c, 0, 50, 0
2, 117000, Note_on_c, 0, 64, 0
2, 117000, Note_on_c, 0, 72, 106
2, 117000, Note_on_c, 0, 62, 56
2, 117000, Note_on_c, 0, 43, 54
2, 117089, Note_on_c, 0, 72, 0
2, 117180, Note_on_c, 0, 43, 0
2, 117180, Note_on_c, 0, 62, 0
2, 117180, Note_on_c, 0, 67, 89
2, 117180, Note_on_c, 0, 65, 89
2, 117180, Note_on_c, 0, 50, 66
2, 117269, Note_on_c, 0, 50, 0
2, 117269, Note_on_c, 0, 67, 0
2, 117360, Note_on_c, 0, 65, 0
2, 117360, Note_on_c, 0, 69, 105
2, 117360, Note_on_c, 0, 64, 59
2, 117360, Note_on_c, 0, 43, 57
2, 117449, Note_on_c, 0, 43, 0
2, 117449, Note_on_c, 0, 69, 0
2, 117540, Note_on_c, 0, 64, 0
2, 117540, Note_on_c, 0, 67, 95
2, 117540, Note_on_c, 0, 62, 54
2, 117540, Note_on_c, 0, 45, 63
2, 117629, Note_on_c, 0, 45, 0
2, 117629, Note_on_c, 0, 67, 0
2, 117720, Note_on_c, 0, 62, 0
2, 117720, Note_on_c, 0, 69, 105
2, 117720, Note_on_c, 0, 65, 86
2, 117720, Note_on_c, 0, 38, 78
2, 117809, Note_on_c, 0, 69, 0
2, 117900, Note_on_c, 0, 38, 0
2, 117900, Note_on_c, 0, 65, 0
2, 117900, Note_on_c, 0, 67, 99
2, 117900, Note_on_c, 0, 64, 59
2, 117900, Note_on_c, 0, 45, 65
2, 117989, Note_on_c, 0, 67, 0
2, 118080, Note_on_c, 0, 45, 0
2, 118080, Note_on_c, 0, 64, 0
2, 118080, Note_on_c, 0, 69, 106
2, 118080, Note_on_c, 0, 62, 55
2, 118080, Note_on_c, 0, 50, 66
2, 118169, Note_on_c, 0, 69, 0
2, 118260, Note_on_c, 0, 50, 0
2, 118260, Note_on_c, 0, 62, 0
2, 118260, Note_on_c, 0, 72, 119
2, 118260, Note_on_c, 0, 65, 99
2, 118260, Note_on_c, 0, 69, 99
2, 118260, Note_on_c, 0, 53, 89
2, 118440, Note_on_c, 0, 53, 0
2, 118440, Note_on_c, 0, 69, 0
2, 118440, Note_on_c, 0, 65, 0
2, 118440, Note_on_c, 0, 64, 63
2, 118440, Note_on_c, 0, 69, 63
2, 118440, Note_on_c, 0, 50, 62
2, 118620, Note_on_c, 0, 50, 0
2, 118620, Note_on_c, 0, 69, 0
2, 118620, Note_on_c, 0, 64, 0
2, 118620, Note_on_c, 0, 62, 58
2, 118620, Note_on_c, 0, 69, 58
2, 118620, Note_on_c, 0, 45, 57
2, 118800, Note_on_c, 0, 45, 0
2, 118800, Note_on_c, 0, 69, 0
2, 118800, Note_on_c, 0, 62, 0
2, 118800, Note_on_c, 0, 65, 86
2, 118800, Note_on_c, 0, 69, 86
2, 118800, Note_on_c, 0, 57, 91
2, 118980, Note_on_c, 0, 57, 0
2, 118980, Note_on_c, 0, 72, 0
2, 118980, Note_on_c, 0, 65, 0
2, 118980, Note_on_c, 0, 69, 0
2, 118980, Note_on_c, 0, 69, 90
2, 118980, Note_on_c, 0, 64, 54
2, 118980, Note_on_c, 0, 53, 60
2, 119160, Note_on_c, 0, 53, 0
2, 119160, Note_on_c, 0, 64, 0
2, 119160, Note_on_c, 0, 69, 0
2, 119160, Note_on_c, 0, 72, 104
2, 119160, Note_on_c, 0, 62, 57
2, 119160, Note_on_c, 0, 50, 59
2, 119340, Note_on_c, 0, 50, 0
2, 119340, Note_on_c, 0, 62, 0
2, 119340, Note_on_c, 0, 72, 0
2, 119340, Note_on_c, 0, 74, 105
2, 119340, Note_on_c, 0, 65, 60
2, 119340, Note_on_c, 0, 69, 60
2, 119340, Note_on_c, 0, 31, 57
2, 119340, Note_on_c, 0, 43, 57
2, 119520, Note_on_c, 0, 43, 0
2, 119520, Note_on_c, 0, 69, 0
2, 119520, Note_on_c, 0, 74, 0
2, 119520, Note_on_c, 0, 65, 0
2, 119520, Note_on_c, 0, 31, 0
2, 119520, Note_on_c, 0, 72, 101
2, 119520, Note_on_c, 0, 64, 64
2, 119520, Note_on_c, 0, 69, 64
2, 119520, Note_on_c, 0, 53, 69
2, 119700, Note_on_c, 0, 53, 0
2, 119700, Note_on_c, 0, 72, 0
2, 119700, Note_on_c, 0, 64, 0
2, 119700, Note_on_c, 0, 69, 0
2, 119700, Note_on_c, 0, 74, 104
2, 119700, Note_on_c, 0, 62, 67
2, 119700, Note_on_c, 0, 69, 67
2, 119700, Note_on_c, 0, 57, 62
2, 119880, Note_on_c, 0, 57, 0
2, 119880, Note_on_c, 0, 74, 0
2, 119880, Note_on_c, 0, 62, 0
2, 119880, Note_on_c, 0, 69, 0
2, 119880, Note_on_c, 0, 69, 107
2, 119880, Note_on_c, 0, 77, 107
2, 119880, Note_on_c, 0, 53, 94
2, 119880, Note_on_c, 0, 57, 94
2, 119880, Note_on_c, 0, 65, 94
2, 120060, Note_on_c, 0, 65, 0
2, 120060, Note_on_c, 0, 53, 0
2, 120060, Note_on_c, 0, 69, 0
2, 120060, Note_on_c, 0, 77, 0
2, 120060, Note_on_c, 0, 57, 0
2, 120060, Note_on_c, 0, 69, 99
2, 120060, Note_on_c, 0, 76, 99
2, 120060, Note_on_c, 0, 53, 59
2, 120060, Note_on_c, 0, 57, 59
2, 120060, Note_on_c, 0, 64, 59
2, 120240, Note_on_c, 0, 64, 0
2, 120240, Note_on_c, 0, 53, 0
2, 120240, Note_on_c, 0, 69, 0
2, 120240, Note_on_c, 0, 76, 0
2, 120240, Note_on_c, 0, 57, 0
2, 120240, Note_on_c, 0, 69, 105
2, 120240, Note_on_c, 0, 74, 105
2, 120240, Note_on_c, 0, 77, 105
2, 120240, Note_on_c, 0, 53, 57
2, 120240, Note_on_c, 0, 57, 57
2, 120240, Note_on_c, 0, 62, 57
2, 120420, Note_on_c, 0, 62, 0
2, 120420, Note_on_c, 0, 74, 0
2, 120420, Note_on_c, 0, 77, 0
2, 120420, Note_on_c, 0, 69, 0
2, 120420, Note_on_c, 0, 57, 0
2, 120420, Note_on_c, 0, 53, 0
2, 120420, Note_on_c, 0, 69, 125
2, 120420, Note_on_c, 0, 74, 125
2, 120420, Note_on_c, 0, 81, 125
2, 120420, Note_on_c, 0, 53, 89
2, 120420, Note_on_c, 0, 57, 89
2, 120420, Note_on_c, 0, 65, 89
2, 120600, Note_on_c, 0, 65, 0
2, 120600, Note_on_c, 0, 53, 0
2, 120600, Note_on_c, 0, 57, 0
2, 120600, Note_on_c, 0, 53, 58
2, 120600, Note_on_c, 0, 57, 58
2, 120600, Note_on_c, 0, 64, 58
2, 120780, Note_on_c, 0, 64, 0
2, 120780, Note_on_c, 0, 53, 0
2, 120780, Note_on_c, 0, 57, 0
2, 120780, Note_on_c, 0, 53, 59
2, 120780, Note_on_c, 0, 57, 59
2, 120780, Note_on_c, 0, 62, 59
2, 120960, Note_on_c, 0, 62, 0
2, 120960, Note_on_c, 0, 69, 0
2, 120960, Note_on_c, 0, 74, 0
2, 120960, Note_on_c, 0, 81, 0
2, 120960, Note_on_c, 0, 57, 0
2, 120960, Note_on_c, 0, 53, 0
2, 120960, Note_on_c, 0, 57, 102
2, 120960, Note_on_c, 0, 62, 102
2, 120960, Note_on_c, 0, 65, 102
2, 120960, Note_on_c, 0, 34, 57
2, 120960, Note_on_c, 0, 46, 57
2, 121140, Note_on_c, 0, 65, 0
2, 121140, Note_on_c, 0, 57, 0
2, 121140, Note_on_c, 0, 62, 0
2, 121140, Note_on_c, 0, 74, 94
2, 121140, Note_on_c, 0, 77, 94
2, 121140, Note_on_c, 0, 79, 94
2, 121140, Note_on_c, 0, 53, 74
2, 121140, Note_on_c, 0, 57, 74
2, 121140, Note_on_c, 0, 64, 74
2, 121320, Note_on_c, 0, 64, 0
2, 121320, Note_on_c, 0, 57, 0
2, 121320, Note_on_c, 0, 79, 0
2, 121320, Note_on_c, 0, 77, 0
2, 121320, Note_on_c, 0, 74, 0
2, 121320, Note_on_c, 0, 53, 0
2, 121320, Note_on_c, 0, 74, 108
2, 121320, Note_on_c, 0, 77, 108
2, 121320, Note_on_c, 0, 81, 108
2, 121320, Note_on_c, 0, 53, 79
2, 121320, Note_on_c, 0, 57, 79
2, 121320, Note_on_c, 0, 62, 79
2, 121500, Note_on_c, 0, 62, 0
2, 121500, Note_on_c, 0, 34, 0
2, 121500, Note_on_c, 0, 81, 0
2, 121500, Note_on_c, 0, 46, 0
2, 121500, Note_on_c, 0, 74, 0
2, 121500, Note_on_c, 0, 77, 0
2, 121500, Note_on_c, 0, 53, 0
2, 121500, Note_on_c, 0, 57, 0
2, 121500, Note_on_c, 0, 72, 125
2, 121500, Note_on_c, 0, 77, 125
2, 121500, Note_on_c, 0, 84, 125
2, 121500, Note_on_c, 0, 53, 114
2, 121500, Note_on_c, 0, 57, 114
2, 121500, Note_on_c, 0, 65, 114
2, 121680, Note_on_c, 0, 65, 0
2, 121680, Note_on_c, 0, 53, 0
2, 121680, Note_on_c, 0, 57, 0
2, 121680, Note_on_c, 0, 53, 84
2, 121680, Note_on_c, 0, 57, 84
2, 121680, Note_on_c, 0, 64, 84
2, 121860, Note_on_c, 0, 64, 0
2, 121860, Note_on_c, 0, 53, 0
2, 121860, Note_on_c, 0, 57, 0
2, 121860, Note_on_c, 0, 53, 79
2, 121860, Note_on_c, 0, 57, 79
2, 121860, Note_on_c, 0, 62, 79
2, 121974, Note_on_c, 0, 77, 0
2, 121974, Note_on_c, 0, 84, 0
2, 121974, Note_on_c, 0, 72, 0
2, 122040, Note_on_c, 0, 53, 0
2, 122040, Note_on_c, 0, 57, 0
2, 122040, Note_on_c, 0, 62, 0
2, 122040, Note_on_c, 0, 57, 118
2, 122040, Note_on_c, 0, 62, 118
2, 122040, Note_on_c, 0, 65, 118
2, 122040, Note_on_c, 0, 35, 51
2, 122040, Note_on_c, 0, 47, 51
2, 122220, Note_on_c, 0, 65, 0
2, 122220, Note_on_c, 0, 57, 0
2, 122220, Note_on_c, 0, 62, 0
2, 122220, Note_on_c, 0, 74, 87
2, 122220, Note_on_c, 0, 81, 87
2, 122220, Note_on_c, 0, 53, 83
2, 122220, Note_on_c, 0, 57, 83
2, 122220, Note_on_c, 0, 64, 83
2, 122400, Note_on_c, 0, 64, 0
2, 122400, Note_on_c, 0, 53, 0
2, 122400, Note_on_c, 0, 81, 0
2, 122400, Note_on_c, 0, 74, 0
2, 122400, Note_on_c, 0, 57, 0
2, 122400, Note_on_c, 0, 74, 110
2, 122400, Note_on_c, 0, 81, 110
2, 122400, Note_on_c, 0, 84, 110
2, 122400, Note_on_c, 0, 53, 79
2, 122400, Note_on_c, 0, 57, 79
2, 122400, Note_on_c, 0, 62, 79
2, 122580, Note_on_c, 0, 62, 0
2, 122580, Note_on_c, 0, 35, 0
2, 122580, Note_on_c, 0, 84, 0
2, 122580, Note_on_c, 0, 47, 0
2, 122580, Note_on_c, 0, 74, 0
2, 122580, Note_on_c, 0, 81, 0
2, 122580, Note_on_c, 0, 53, 0
2, 122580, Note_on_c, 0, 57, 0
2, 122580, Note_on_c, 0, 74, 111
2, 122580, Note_on_c, 0, 81, 111
2, 122580, Note_on_c, 0, 86, 111
2, 122580, Note_on_c, 0, 53, 78
2, 122580, Note_on_c, 0, 57, 78
2, 122580, Note_on_c, 0, 65, 78
2, 122760, Note_on_c, 0, 65, 0
2, 122760, Note_on_c, 0, 81, 0
2, 122760, Note_on_c, 0, 86, 0
2, 122760, Note_on_c, 0, 74, 0
2, 122760, Note_on_c, 0, 57, 0
2, 122760, Note_on_c, 0, 53, 0
2, 122760, Note_on_c, 0, 74, 97
2, 122760, Note_on_c, 0, 81, 97
2, 122760, Note_on_c, 0, 84, 97
2, 122760, Note_on_c, 0, 53, 56
2, 122760, Note_on_c, 0, 57, 56
2, 122760, Note_on_c, 0, 64, 56
2, 122940, Note_on_c, 0, 64, 0
2, 122940, Note_on_c, 0, 81, 0
2, 122940, Note_on_c, 0, 84, 0
2, 122940, Note_on_c, 0, 74, 0
2, 122940, Note_on_c, 0, 57, 0
2, 122940, Note_on_c, 0, 53, 0
2, 122940, Note_on_c, 0, 74, 112
2, 122940, Note_on_c, 0, 81, 112
2, 122940, Note_on_c, 0, 86, 112
2, 122940, Note_on_c, 0, 53, 59
2, 122940, Note_on_c, 0, 57, 59
2, 122940, Note_on_c, 0, 62, 59
2, 123120, Note_on_c, 0, 62, 0
2, 123120, Note_on_c, 0, 81, 0
2, 123120, Note_on_c, 0, 86, 0
2, 123120, Note_on_c, 0, 74, 0
2, 123120, Note_on_c, 0, 57, 0
2, 123120, Note_on_c, 0, 53, 0
2, 123120, Note_on_c, 0, 77, 127
2, 123120, Note_on_c, 0, 81, 127
2, 123120, Note_on_c, 0, 89, 127
2, 123120, Note_on_c, 0, 53, 88
2, 123120, Note_on_c, 0, 57, 88
2, 123120, Note_on_c, 0, 65, 88
2, 123300, Note_on_c, 0, 65, 0
2, 123300, Note_on_c, 0, 81, 0
2, 123300, Note_on_c, 0, 89, 0
2, 123300, Note_on_c, 0, 77, 0
2, 123300, Note_on_c, 0, 57, 0
2, 123300, Note_on_c, 0, 53, 0
2, 123300, Note_on_c, 0, 77, 93
2, 123300, Note_on_c, 0, 81, 93
2, 123300, Note_on_c, 0, 86, 93
2, 123300, Note_on_c, 0, 53, 58
2, 123300, Note_on_c, 0, 57, 58
2, 123300, Note_on_c, 0, 64, 58
2, 123480, Note_on_c, 0, 64, 0
2, 123480, Note_on_c, 0, 53, 0
2, 123480, Note_on_c, 0, 57, 0
2, 123480, Note_on_c, 0, 53, 55
2, 123480, Note_on_c, 0, 57, 55
2, 123480, Note_on_c, 0, 62, 55
2, 123660, Note_on_c, 0, 62, 0
2, 123660, Note_on_c, 0, 86, 0
2, 123660, Note_on_c, 0, 77, 0
2, 123660, Note_on_c, 0, 81, 0
2, 123660, Note_on_c, 0, 57, 0
2, 123660, Note_on_c, 0, 53, 0
2, 123660, Note_on_c, 0, 57, 89
2, 123660, Note_on_c, 0, 62, 89
2, 123660, Note_on_c, 0, 65, 89
2, 123660, Note_on_c, 0, 36, 53
2, 123660, Note_on_c, 0, 48, 53
2, 123840, Note_on_c, 0, 65, 0
2, 123840, Note_on_c, 0, 57, 0
2, 123840, Note_on_c, 0, 62, 0
2, 123840, Note_on_c, 0, 81, 98
2, 123840, Note_on_c, 0, 86, 98
2, 123840, Note_on_c, 0, 91, 98
2, 123840, Note_on_c, 0, 53, 56
2, 123840, Note_on_c, 0, 57, 56
2, 123840, Note_on_c, 0, 64, 56
2, 124020, Note_on_c, 0, 64, 0
2, 124020, Note_on_c, 0, 57, 0
2, 124020, Note_on_c, 0, 91, 0
2, 124020, Note_on_c, 0, 86, 0
2, 124020, Note_on_c, 0, 81, 0
2, 124020, Note_on_c, 0, 53, 0
2, 124020, Note_on_c, 0, 81, 120
2, 124020, Note_on_c, 0, 86, 120
2, 124020, Note_on_c, 0, 93, 120
2, 124020, Note_on_c, 0, 53, 56
2, 124020, Note_on_c, 0, 57, 56
2, 124020, Note_on_c, 0, 62, 56
2, 124200, Note_on_c, 0, 62, 0
2, 124200, Note_on_c, 0, 36, 0
2, 124200, Note_on_c, 0, 93, 0
2, 124200, Note_on_c, 0, 48, 0
2, 124200, Note_on_c, 0, 81, 0
2, 124200, Note_on_c, 0, 86, 0
2, 124200, Note_on_c, 0, 53, 0
2, 124200, Note_on_c, 0, 57, 0
2, 124200, Note_on_c, 0, 86, 126
2, 124200, Note_on_c, 0, 89, 126
2, 124200, Note_on_c, 0, 98, 126
2, 124200, Note_on_c, 0, 53, 93
2, 124200, Note_on_c, 0, 57, 93
2, 124200, Note_on_c, 0, 65, 93
2, 124380, Note_on_c, 0, 65, 0
2, 124380, Note_on_c, 0, 89, 0
2, 124380, Note_on_c, 0, 98, 0
2, 124380, Note_on_c, 0, 86, 0
2, 124380, Note_on_c, 0, 57, 0
2, 124380, Note_on_c, 0, 53, 0
2, 124380, Note_on_c, 0, 83, 104
2, 124380, Note_on_c, 0, 89, 104
2, 124380, Note_on_c, 0, 95, 104
2, 124380, Note_on_c, 0, 53, 59
2, 124380, Note_on_c, 0, 57, 59
2, 124380, Note_on_c, 0, 64, 59
2, 124560, Note_on_c, 0, 64, 0
2, 124560, Note_on_c, 0, 89, 0
2, 124560, Note_on_c, 0, 95, 0
2, 124560, Note_on_c, 0, 83, 0
2, 124560, Note_on_c, 0, 57, 0
2, 124560, Note_on_c, 0, 53, 0
2, 124560, Note_on_c, 0, 84, 114
2, 124560, Note_on_c, 0, 89, 114
2, 124560, Note_on_c, 0, 96, 114
2, 124560, Note_on_c, 0, 53, 55
2, 124560, Note_on_c, 0, 57, 55
2, 124560, Note_on_c, 0, 62, 55
2, 124740, Note_on_c, 0, 62, 0
2, 124740, Note_on_c, 0, 89, 0
2, 124740, Note_on_c, 0, 96, 0
2, 124740, Note_on_c, 0, 84, 0
2, 124740, Note_on_c, 0, 57, 0
2, 124740, Note_on_c, 0, 53, 0
2, 124740, Note_on_c, 0, 81, 107
2, 124740, Note_on_c, 0, 89, 107
2, 124740, Note_on_c, 0, 93, 107
2, 124740, Note_on_c, 0, 53, 88
2, 124740, Note_on_c, 0, 57, 88
2, 124740, Note_on_c, 0, 65, 88
2, 124920, Note_on_c, 0, 65, 0
2, 124920, Note_on_c, 0, 53, 0
2, 124920, Note_on_c, 0, 57, 0
2, 124920, Note_on_c, 0, 53, 58
2, 124920, Note_on_c, 0, 57, 58
2, 124920, Note_on_c, 0, 64, 58
2, 125100, Note_on_c, 0, 64, 0
2, 125100, Note_on_c, 0, 93, 0
2, 125100, Note_on_c, 0, 81, 0
2, 125100, Note_on_c, 0, 89, 0
2, 125100, Note_on_c, 0, 57, 0
2, 125100, Note_on_c, 0, 53, 0
2, 125100, Note_on_c, 0, 53, 56
2, 125100, Note_on_c, 0, 57, 56
2, 125100, Note_on_c, 0, 62, 56
2, 125280, Note_on_c, 0, 62, 0
2, 125280, Note_on_c, 0, 57, 0
2, 125280, Note_on_c, 0, 53, 0
2, 125280, Note_on_c, 0, 55, 88
2, 125280, Note_on_c, 0, 62, 88
2, 125280, Note_on_c, 0, 65, 88
2, 125280, Note_on_c, 0, 39, 54
2, 125280, Note_on_c, 0, 46, 54
2, 125460, Note_on_c, 0, 65, 0
2, 125460, Note_on_c, 0, 55, 0
2, 125460, Note_on_c, 0, 62, 0
2, 125460, Note_on_c, 0, 79, 99
2, 125460, Note_on_c, 0, 86, 99
2, 125460, Note_on_c, 0, 91, 99
2, 125460, Note_on_c, 0, 55, 58
2, 125460, Note_on_c, 0, 58, 58
2, 125460, Note_on_c, 0, 63, 58
2, 125640, Note_on_c, 0, 63, 0
2, 125640, Note_on_c, 0, 58, 0
2, 125640, Note_on_c, 0, 91, 0
2, 125640, Note_on_c, 0, 86, 0
2, 125640, Note_on_c, 0, 79, 0
2, 125640, Note_on_c, 0, 55, 0
2, 125640, Note_on_c, 0, 81, 117
2, 125640, Note_on_c, 0, 86, 117
2, 125640, Note_on_c, 0, 93, 117
2, 125640, Note_on_c, 0, 55, 54
2, 125640, Note_on_c, 0, 58, 54
2, 125640, Note_on_c, 0, 62, 54
2, 125820, Note_on_c, 0, 62, 0
2, 125820, Note_on_c, 0, 39, 0
2, 125820, Note_on_c, 0, 93, 0
2, 125820, Note_on_c, 0, 46, 0
2, 125820, Note_on_c, 0, 81, 0
2, 125820, Note_on_c, 0, 86, 0
2, 125820, Note_on_c, 0, 55, 0
2, 125820, Note_on_c, 0, 58, 0
2, 125820, Note_on_c, 0, 77, 99
2, 125820, Note_on_c, 0, 86, 99
2, 125820, Note_on_c, 0, 89, 99
2, 125820, Note_on_c, 0, 55, 90
2, 125820, Note_on_c, 0, 58, 90
2, 125820, Note_on_c, 0, 65, 90
2, 126000, Note_on_c, 0, 65, 0
2, 126000, Note_on_c, 0, 55, 0
2, 126000, Note_on_c, 0, 58, 0
2, 126000, Note_on_c, 0, 55, 62
2, 126000, Note_on_c, 0, 58, 62
2, 126000, Note_on_c, 0, 63, 62
2, 126180, Note_on_c, 0, 63, 0
2, 126180, Note_on_c, 0, 89, 0
2, 126180, Note_on_c, 0, 77, 0
2, 126180, Note_on_c, 0, 86, 0
2, 126180, Note_on_c, 0, 58, 0
2, 126180, Note_on_c, 0, 55, 0
2, 126180, Note_on_c, 0, 55, 58
2, 126180, Note_on_c, 0, 58, 58
2, 126180, Note_on_c, 0, 62, 58
2, 126360, Note_on_c, 0, 62, 0
2, 126360, Note_on_c, 0, 58, 0
2, 126360, Note_on_c, 0, 55, 0
2, 126360, Note_on_c, 0, 57, 88
2, 126360, Note_on_c, 0, 62, 88
2, 126360, Note_on_c, 0, 65, 88
2, 126540, Note_on_c, 0, 65, 0
2, 126540, Note_on_c, 0, 62, 0
2, 126540, Note_on_c, 0, 57, 0
2, 126540, Note_on_c, 0, 76, 111
2, 126540, Note_on_c, 0, 81, 111
2, 126540, Note_on_c, 0, 88, 111
2, 126540, Note_on_c, 0, 57, 56
2, 126540, Note_on_c, 0, 64, 56
2, 126720, Note_on_c, 0, 64, 0
2, 126720, Note_on_c, 0, 88, 0
2, 126720, Note_on_c, 0, 76, 0
2, 126720, Note_on_c, 0, 81, 0
2, 126720, Note_on_c, 0, 57, 0
2, 126720, Note_on_c, 0, 77, 109
2, 126720, Note_on_c, 0, 81, 109
2, 126720, Note_on_c, 0, 89, 109
2, 126720, Note_on_c, 0, 57, 58
2, 126720, Note_on_c, 0, 62, 58
2, 126900, Note_on_c, 0, 62, 0
2, 126900, Note_on_c, 0, 89, 0
2, 126900, Note_on_c, 0, 77, 0
2, 126900, Note_on_c, 0, 81, 0
2, 126900, Note_on_c, 0, 57, 0
2, 126900, Note_on_c, 0, 74, 107
2, 126900, Note_on_c, 0, 81, 107
2, 126900, Note_on_c, 0, 86, 107
2, 126900, Note_on_c, 0, 57, 85
2, 126900, Note_on_c, 0, 65, 85
2, 127080, Note_on_c, 0, 65, 0
2, 127080, Note_on_c, 0, 57, 0
2, 127080, Note_on_c, 0, 57, 56
2, 127080, Note_on_c, 0, 64, 56
2, 127260, Note_on_c, 0, 64, 0
2, 127260, Note_on_c, 0, 74, 0
2, 127260, Note_on_c, 0, 86, 0
2, 127260, Note_on_c, 0, 81, 0
2, 127260, Note_on_c, 0, 57, 0
2, 127260, Note_on_c, 0, 57, 55
2, 127260, Note_on_c, 0, 62, 55
2, 127440, Note_on_c, 0, 62, 0
2, 127440, Note_on_c, 0, 57, 0
2, 127440, Note_on_c, 0, 58, 92
2, 127440, Note_on_c, 0, 62, 92
2, 127440, Note_on_c, 0, 65, 92
2, 127440, Note_on_c, 0, 43, 64
2, 127440, Note_on_c, 0, 50, 64
2, 127620, Note_on_c, 0, 65, 0
2, 127620, Note_on_c, 0, 58, 0
2, 127620, Note_on_c, 0, 62, 0
2, 127620, Note_on_c, 0, 72, 100
2, 127620, Note_on_c, 0, 79, 100
2, 127620, Note_on_c, 0, 84, 100
2, 127620, Note_on_c, 0, 58, 60
2, 127620, Note_on_c, 0, 64, 60
2, 127800, Note_on_c, 0, 64, 0
2, 127800, Note_on_c, 0, 84, 0
2, 127800, Note_on_c, 0, 43, 0
2, 127800, Note_on_c, 0, 72, 0
2, 127800, Note_on_c, 0, 50, 0
2, 127800, Note_on_c, 0, 58, 0
2, 127800, Note_on_c, 0, 79, 0
2, 127800, Note_on_c, 0, 74, 98
2, 127800, Note_on_c, 0, 79, 98
2, 127800, Note_on_c, 0, 86, 98
2, 127800, Note_on_c, 0, 58, 57
2, 127800, Note_on_c, 0, 62, 57
2, 127980, Note_on_c, 0, 62, 0
2, 127980, Note_on_c, 0, 86, 0
2, 127980, Note_on_c, 0, 74, 0
2, 127980, Note_on_c, 0, 79, 0
2, 127980, Note_on_c, 0, 58, 0
2, 127980, Note_on_c, 0, 69, 96
2, 127980, Note_on_c, 0, 74, 96
2, 127980, Note_on_c, 0, 81, 96
2, 127980, Note_on_c, 0, 58, 92
2, 127980, Note_on_c, 0, 65, 92
2, 128160, Note_on_c, 0, 65, 0
2, 128160, Note_on_c, 0, 81, 0
2, 128160, Note_on_c, 0, 69, 0
2, 128160, Note_on_c, 0, 74, 0
2, 128160, Note_on_c, 0, 58, 0
2, 128160, Note_on_c, 0, 67, 94
2, 128160, Note_on_c, 0, 74, 94
2, 128160, Note_on_c, 0, 79, 94
2, 128160, Note_on_c, 0, 58, 59
2, 128160, Note_on_c, 0, 64, 59
2, 128340, Note_on_c, 0, 64, 0
2, 128340, Note_on_c, 0, 79, 0
2, 128340, Note_on_c, 0, 67, 0
2, 128340, Note_on_c, 0, 74, 0
2, 128340, Note_on_c, 0, 58, 0
2, 128340, Note_on_c, 0, 69, 93
2, 128340, Note_on_c, 0, 74, 93
2, 128340, Note_on_c, 0, 81, 93
2, 128340, Note_on_c, 0, 58, 56
2, 128340, Note_on_c, 0, 62, 56
2, 128520, Note_on_c, 0, 62, 0
2, 128520, Note_on_c, 0, 81, 0
2, 128520, Note_on_c, 0, 69, 0
2, 128520, Note_on_c, 0, 74, 0
2, 128520, Note_on_c, 0, 58, 0
2, 128520, Note_on_c, 0, 70, 91
2, 128520, Note_on_c, 0, 74, 91
2, 128520, Note_on_c, 0, 77, 91
2, 128520, Note_on_c, 0, 65, 93
2, 128520, Note_on_c, 0, 48, 53
2, 128520, Note_on_c, 0, 55, 53
2, 128700, Note_on_c, 0, 55, 0
2, 128700, Note_on_c, 0, 74, 0
2, 128700, Note_on_c, 0, 77, 0
2, 128700, Note_on_c, 0, 70, 0
2, 128700, Note_on_c, 0, 48, 0
2, 128700, Note_on_c, 0, 65, 0
2, 128700, Note_on_c, 0, 70, 89
2, 128700, Note_on_c, 0, 74, 89
2, 128700, Note_on_c, 0, 58, 56
2, 128700, Note_on_c, 0, 64, 56
2, 128880, Note_on_c, 0, 64, 0
2, 128880, Note_on_c, 0, 70, 0
2, 128880, Note_on_c, 0, 74, 0
2, 128880, Note_on_c, 0, 58, 0
2, 128880, Note_on_c, 0, 70, 87
2, 128880, Note_on_c, 0, 74, 87
2, 128880, Note_on_c, 0, 77, 87
2, 128880, Note_on_c, 0, 58, 58
2, 128880, Note_on_c, 0, 62, 58
2, 129060, Note_on_c, 0, 62, 0
2, 129060, Note_on_c, 0, 77, 0
2, 129060, Note_on_c, 0, 70, 0
2, 129060, Note_on_c, 0, 74, 0
2, 129060, Note_on_c, 0, 58, 0
2, 129060, Note_on_c, 0, 69, 55
2, 129060, Note_on_c, 0, 74, 55
2, 129060, Note_on_c, 0, 65, 68
2, 129060, Note_on_c, 0, 50, 57
2, 129060, Note_on_c, 0, 57, 57
2, 129240, Note_on_c, 0, 57, 0
2, 129240, Note_on_c, 0, 65, 0
2, 129240, Note_on_c, 0, 50, 0
2, 129240, Note_on_c, 0, 57, 59
2, 129240, Note_on_c, 0, 64, 59
2, 129420, Note_on_c, 0, 64, 0
2, 129420, Note_on_c, 0, 69, 0
2, 129420, Note_on_c, 0, 74, 0
2, 129420, Note_on_c, 0, 57, 0
2, 129420, Note_on_c, 0, 57, 56
2, 129420, Note_on_c, 0, 62, 56
2, 129600, Note_on_c, 0, 62, 0
2, 129600, Note_on_c, 0, 57, 0
2, 129600, Note_on_c, 0, 65, 67
2, 129780, Note_on_c, 0, 65, 0
2, 129780, Note_on_c, 0, 69, 56
2, 129780, Note_on_c, 0, 76, 56
2, 129780, Note_on_c, 0, 64, 59
2, 129960, Note_on_c, 0, 64, 0
2, 129960, Note_on_c, 0, 76, 0
2, 129960, Note_on_c, 0, 69, 0
2, 129960, Note_on_c, 0, 74, 62
2, 129960, Note_on_c, 0, 77, 62
2, 129960, Note_on_c, 0, 62, 56
2, 130140, Note_on_c, 0, 62, 0
2, 130140, Note_on_c, 0, 77, 0
2, 130140, Note_on_c, 0, 74, 0
2, 130140, Note_on_c, 0, 76, 60
2, 130140, Note_on_c, 0, 77, 60
2, 130140, Note_on_c, 0, 60, 54
2, 130320, Note_on_c, 0, 60, 0
2, 130320, Note_on_c, 0, 77, 0
2, 130320, Note_on_c, 0, 76, 0
2, 130320, Note_on_c, 0, 74, 73
2, 130320, Note_on_c, 0, 79, 73
2, 130320, Note_on_c, 0, 58, 55
2, 130500, Note_on_c, 0, 58, 0
2, 130500, Note_on_c, 0, 79, 0
2, 130500, Note_on_c, 0, 74, 0
2, 130500, Note_on_c, 0, 72, 86
2, 130500, Note_on_c, 0, 81, 86
2, 130500, Note_on_c, 0, 57, 65
2, 130680, Note_on_c, 0, 57, 0
2, 130680, Note_on_c, 0, 81, 0
2, 130680, Note_on_c, 0, 72, 0
2, 130680, Note_on_c, 0, 75, 90
2, 130680, Note_on_c, 0, 84, 90
2, 130680, Note_on_c, 0, 39, 46
2, 130860, Note_on_c, 0, 39, 0
2, 130860, Note_on_c, 0, 84, 0
2, 130860, Note_on_c, 0, 75, 0
2, 130860, Note_on_c, 0, 77, 80
2, 130860, Note_on_c, 0, 81, 80
2, 130860, Note_on_c, 0, 46, 60
2, 131040, Note_on_c, 0, 46, 0
2, 131040, Note_on_c, 0, 81, 0
2, 131040, Note_on_c, 0, 77, 0
2, 131040, Note_on_c, 0, 79, 90
2, 131040, Note_on_c, 0, 82, 90
2, 131040, Note_on_c, 0, 55, 72
2, 131220, Note_on_c, 0, 55, 0
2, 131220, Note_on_c, 0, 82, 0
2, 131220, Note_on_c, 0, 79, 0
2, 131220, Note_on_c, 0, 70, 76
2, 131220, Note_on_c, 0, 79, 76
2, 131220, Note_on_c, 0, 58, 63
2, 131400, Note_on_c, 0, 58, 0
2, 131400, Note_on_c, 0, 79, 0
2, 131400, Note_on_c, 0, 70, 0
2, 131400, Note_on_c, 0, 72, 87
2, 131400, Note_on_c, 0, 81, 87
2, 131400, Note_on_c, 0, 63, 66
2, 131580, Note_on_c, 0, 63, 0
2, 131580, Note_on_c, 0, 81, 0
2, 131580, Note_on_c, 0, 72, 0
2, 131580, Note_on_c, 0, 74, 73
2, 131580, Note_on_c, 0, 77, 73
2, 131580, Note_on_c, 0, 69, 72
2, 131760, Note_on_c, 0, 69, 0
2, 131760, Note_on_c, 0, 77, 0
2, 131760, Note_on_c, 0, 74, 0
2, 131760, Note_on_c, 0, 75, 87
2, 131760, Note_on_c, 0, 79, 87
2, 131760, Note_on_c, 0, 67, 58
2, 131940, Note_on_c, 0, 79, 0
2, 131940, Note_on_c, 0, 75, 0
2, 131940, Note_on_c, 0, 67, 76
2, 131940, Note_on_c, 0, 75, 76
2, 132120, Note_on_c, 0, 75, 0
2, 132120, Note_on_c, 0, 67, 0
2, 132120, Note_on_c, 0, 67, 0
2, 132120, Note_on_c, 0, 69, 88
2, 132120, Note_on_c, 0, 77, 88
2, 132300, Note_on_c, 0, 77, 0
2, 132300, Note_on_c, 0, 69, 0
2, 132300, Note_on_c, 0, 70, 76
2, 132300, Note_on_c, 0, 74, 76
2, 132300, Note_on_c, 0, 43, 58
2, 132480, Note_on_c, 0, 43, 0
2, 132480, Note_on_c, 0, 50, 67
2, 132660, Note_on_c, 0, 50, 0
2, 132660, Note_on_c, 0, 74, 0
2, 132660, Note_on_c, 0, 70, 0
2, 132660, Note_on_c, 0, 67, 74
2, 132660, Note_on_c, 0, 70, 74
2, 132660, Note_on_c, 0, 58, 66
2, 132840, Note_on_c, 0, 58, 0
2, 132840, Note_on_c, 0, 70, 0
2, 132840, Note_on_c, 0, 67, 0
2, 132840, Note_on_c, 0, 69, 87
2, 132840, Note_on_c, 0, 72, 87
2, 132840, Note_on_c, 0, 62, 60
2, 133020, Note_on_c, 0, 62, 0
2, 133020, Note_on_c, 0, 72, 0
2, 133020, Note_on_c, 0, 69, 0
2, 133020, Note_on_c, 0, 70, 89
2, 133020, Note_on_c, 0, 74, 89
2, 133020, Note_on_c, 0, 66, 73
2, 133200, Note_on_c, 0, 66, 0
2, 133200, Note_on_c, 0, 74, 0
2, 133200, Note_on_c, 0, 70, 0
2, 133200, Note_on_c, 0, 72, 88
2, 133200, Note_on_c, 0, 75, 88
2, 133200, Note_on_c, 0, 67, 86
2, 133380, Note_on_c, 0, 67, 0
2, 133380, Note_on_c, 0, 75, 0
2, 133380, Note_on_c, 0, 72, 0
2, 133380, Note_on_c, 0, 73, 84
2, 133380, Note_on_c, 0, 77, 84
2, 133380, Note_on_c, 0, 58, 86
2, 133380, Note_on_c, 0, 61, 86
2, 133380, Note_on_c, 0, 68, 86
2, 133560, Note_on_c, 0, 77, 0
2, 133560, Note_on_c, 0, 73, 0
2, 133560, Note_on_c, 0, 75, 90
2, 133560, Note_on_c, 0, 79, 90
2, 133740, Note_on_c, 0, 79, 0
2, 133740, Note_on_c, 0, 61, 0
2, 133740, Note_on_c, 0, 68, 0
2, 133740, Note_on_c, 0, 58, 0
2, 133740, Note_on_c, 0, 75, 0
2, 133740, Note_on_c, 0, 77, 83
2, 133740, Note_on_c, 0, 80, 83
2, 133740, Note_on_c, 0, 72, 94
2, 133920, Note_on_c, 0, 72, 0
2, 133920, Note_on_c, 0, 80, 0
2, 133920, Note_on_c, 0, 77, 0
2, 133920, Note_on_c, 0, 73, 86
2, 133920, Note_on_c, 0, 82, 86
2, 133920, Note_on_c, 0, 70, 116
2, 133920, Note_on_c, 0, 37, 75
2, 134100, Note_on_c, 0, 37, 0
2, 134100, Note_on_c, 0, 73, 0
2, 134100, Note_on_c, 0, 82, 0
2, 134100, Note_on_c, 0, 75, 78
2, 134100, Note_on_c, 0, 79, 78
2, 134100, Note_on_c, 0, 44, 93
2, 134280, Note_on_c, 0, 44, 0
2, 134280, Note_on_c, 0, 79, 0
2, 134280, Note_on_c, 0, 75, 0
2, 134280, Note_on_c, 0, 77, 84
2, 134280, Note_on_c, 0, 80, 84
2, 134280, Note_on_c, 0, 53, 95
2, 134394, Note_on_c, 0, 70, 0
2, 134460, Note_on_c, 0, 77, 0
2, 134460, Note_on_c, 0, 80, 0
2, 134460, Note_on_c, 0, 53, 0
2, 134460, Note_on_c, 0, 77, 78
2, 134460, Note_on_c, 0, 68, 96
2, 134460, Note_on_c, 0, 56, 92
2, 134460, Note_on_c, 0, 56, 79
2, 134640, Note_on_c, 0, 56, 0
2, 134640, Note_on_c, 0, 77, 0
2, 134640, Note_on_c, 0, 70, 89
2, 134640, Note_on_c, 0, 79, 89
2, 134640, Note_on_c, 0, 61, 98
2, 134820, Note_on_c, 0, 61, 0
2, 134820, Note_on_c, 0, 70, 0
2, 134820, Note_on_c, 0, 79, 0
2, 134820, Note_on_c, 0, 72, 78
2, 134820, Note_on_c, 0, 75, 78
2, 134820, Note_on_c, 0, 68, 104
2, 134934, Note_on_c, 0, 68, 0
2, 135000, Note_on_c, 0, 75, 0
2, 135000, Note_on_c, 0, 56, 0
2, 135000, Note_on_c, 0, 72, 0
2, 135000, Note_on_c, 0, 68, 0
2, 135000, Note_on_c, 0, 73, 88
2, 135000, Note_on_c, 0, 77, 88
2, 135000, Note_on_c, 0, 61, 86
2, 135000, Note_on_c, 0, 67, 86
2, 135000, Note_on_c, 0, 58, 85
2, 135180, Note_on_c, 0, 77, 0
2, 135180, Note_on_c, 0, 73, 0
2, 135180, Note_on_c, 0, 65, 74
2, 135180, Note_on_c, 0, 73, 74
2, 135360, Note_on_c, 0, 73, 0
2, 135360, Note_on_c, 0, 65, 0
2, 135360, Note_on_c, 0, 67, 91
2, 135360, Note_on_c, 0, 75, 91
2, 135540, Note_on_c, 0, 75, 0
2, 135540, Note_on_c, 0, 58, 0
2, 135540, Note_on_c, 0, 67, 0
2, 135540, Note_on_c, 0, 61, 0
2, 135540, Note_on_c, 0, 67, 0
2, 135540, Note_on_c, 0, 68, 78
2, 135540, Note_on_c, 0, 72, 78
2, 135540, Note_on_c, 0, 41, 73
2, 135720, Note_on_c, 0, 41, 0
2, 135720, Note_on_c, 0, 48, 90
2, 135900, Note_on_c, 0, 48, 0
2, 135900, Note_on_c, 0, 72, 0
2, 135900, Note_on_c, 0, 68, 0
2, 135900, Note_on_c, 0, 65, 75
2, 135900, Note_on_c, 0, 68, 75
2, 135900, Note_on_c, 0, 56, 94
2, 136080, Note_on_c, 0, 56, 0
2, 136080, Note_on_c, 0, 68, 0
2, 136080, Note_on_c, 0, 65, 0
2, 136080, Note_on_c, 0, 67, 85
2, 136080, Note_on_c, 0, 70, 85
2, 136080, Note_on_c, 0, 60, 98
2, 136260, Note_on_c, 0, 60, 0
2, 136260, Note_on_c, 0, 70, 0
2, 136260, Note_on_c, 0, 67, 0
2, 136260, Note_on_c, 0, 68, 91
2, 136260, Note_on_c, 0, 72, 91
2, 136260, Note_on_c, 0, 56, 85
2, 136440, Note_on_c, 0, 72, 0
2, 136440, Note_on_c, 0, 68, 0
2, 136440, Note_on_c, 0, 71, 89
2, 136440, Note_on_c, 0, 74, 89
2, 136440, Note_on_c, 0, 62, 101
2, 136620, Note_on_c, 0, 68, 74
2, 136800, Note_on_c, 0, 62, 0
2, 136800, Note_on_c, 0, 74, 0
2, 136800, Note_on_c, 0, 56, 0
2, 136800, Note_on_c, 0, 71, 0
2, 136800, Note_on_c, 0, 72, 84
2, 136800, Note_on_c, 0, 75, 84
2, 136980, Note_on_c, 0, 75, 0
2, 136980, Note_on_c, 0, 72, 0
2, 136980, Note_on_c, 0, 74, 84
2, 136980, Note_on_c, 0, 77, 84
2, 137160, Note_on_c, 0, 77, 0
2, 137160, Note_on_c, 0, 74, 0
2, 137160, Note_on_c, 0, 68, 0
2, 137160, Note_on_c, 0, 75, 90
2, 137160, Note_on_c, 0, 79, 90
2, 137160, Note_on_c, 0, 36, 71
2, 137340, Note_on_c, 0, 79, 0
2, 137340, Note_on_c, 0, 75, 0
2, 137340, Note_on_c, 0, 67, 78
2, 137340, Note_on_c, 0, 75, 78
2, 137520, Note_on_c, 0, 75, 0
2, 137520, Note_on_c, 0, 67, 0
2, 137520, Note_on_c, 0, 36, 0
2, 137520, Note_on_c, 0, 69, 92
2, 137520, Note_on_c, 0, 77, 92
2, 137520, Note_on_c, 0, 43, 91
2, 137700, Note_on_c, 0, 43, 0
2, 137700, Note_on_c, 0, 77, 0
2, 137700, Note_on_c, 0, 69, 0
2, 137700, Note_on_c, 0, 70, 80
2, 137700, Note_on_c, 0, 74, 80
2, 137700, Note_on_c, 0, 55, 92
2, 137880, Note_on_c, 0, 55, 0
2, 137880, Note_on_c, 0, 74, 0
2, 137880, Note_on_c, 0, 70, 0
2, 137880, Note_on_c, 0, 72, 88
2, 137880, Note_on_c, 0, 75, 88
2, 137880, Note_on_c, 0, 60, 103
2, 138060, Note_on_c, 0, 60, 0
2, 138060, Note_on_c, 0, 75, 0
2, 138060, Note_on_c, 0, 72, 0
2, 138060, Note_on_c, 0, 69, 82
2, 138060, Note_on_c, 0, 72, 82
2, 138060, Note_on_c, 0, 63, 93
2, 138240, Note_on_c, 0, 63, 0
2, 138240, Note_on_c, 0, 72, 0
2, 138240, Note_on_c, 0, 69, 0
2, 138240, Note_on_c, 0, 70, 86
2, 138240, Note_on_c, 0, 74, 86
2, 138240, Note_on_c, 0, 66, 95
2, 138420, Note_on_c, 0, 66, 0
2, 138420, Note_on_c, 0, 67, 90
2, 138600, Note_on_c, 0, 67, 0
2, 138600, Note_on_c, 0, 62, 78
2, 138780, Note_on_c, 0, 62, 0
2, 138780, Note_on_c, 0, 58, 75
2, 138780, Note_on_c, 0, 43, 70
2, 138960, Note_on_c, 0, 74, 0
2, 138960, Note_on_c, 0, 70, 0
2, 138960, Note_on_c, 0, 64, 78
2, 138960, Note_on_c, 0, 72, 78
2, 139140, Note_on_c, 0, 72, 0
2, 139140, Note_on_c, 0, 43, 0
2, 139140, Note_on_c, 0, 58, 0
2, 139140, Note_on_c, 0, 64, 0
2, 139140, Note_on_c, 0, 66, 88
2, 139140, Note_on_c, 0, 74, 88
2, 139140, Note_on_c, 0, 50, 108
2, 139140, Note_on_c, 0, 60, 108
2, 139320, Note_on_c, 0, 60, 0
2, 139320, Note_on_c, 0, 66, 0
2, 139320, Note_on_c, 0, 74, 0
2, 139320, Note_on_c, 0, 50, 0
2, 139320, Note_on_c, 0, 67, 79
2, 139320, Note_on_c, 0, 70, 79
2, 139320, Note_on_c, 0, 58, 95
2, 139320, Note_on_c, 0, 61, 95
2, 139500, Note_on_c, 0, 70, 0
2, 139500, Note_on_c, 0, 67, 0
2, 139500, Note_on_c, 0, 69, 87
2, 139500, Note_on_c, 0, 72, 87
2, 139680, Note_on_c, 0, 72, 0
2, 139680, Note_on_c, 0, 69, 0
2, 139680, Note_on_c, 0, 61, 76
2, 139680, Note_on_c, 0, 69, 76
2, 139860, Note_on_c, 0, 69, 0
2, 139860, Note_on_c, 0, 61, 0
2, 139860, Note_on_c, 0, 62, 86
2, 139860, Note_on_c, 0, 70, 86
2, 140040, Note_on_c, 0, 70, 0
2, 140040, Note_on_c, 0, 62, 0
2, 140040, Note_on_c, 0, 64, 77
2, 140040, Note_on_c, 0, 67, 77
2, 140220, Note_on_c, 0, 67, 0
2, 140220, Note_on_c, 0, 58, 0
2, 140220, Note_on_c, 0, 61, 0
2, 140220, Note_on_c, 0, 64, 0
2, 140220, Note_on_c, 0, 65, 84
2, 140220, Note_on_c, 0, 69, 84
2, 140400, Note_on_c, 0, 69, 0
2, 140400, Note_on_c, 0, 65, 0
2, 140400, Note_on_c, 0, 62, 74
2, 140400, Note_on_c, 0, 65, 74
2, 140400, Note_on_c, 0, 38, 55
2, 140580, Note_on_c, 0, 38, 0
2, 140580, Note_on_c, 0, 45, 64
2, 140580, Note_on_c, 0, 50, 64
2, 140580, Note_on_c, 0, 53, 64
2, 140760, Note_on_c, 0, 53, 0
2, 140760, Note_on_c, 0, 45, 0
2, 140760, Note_on_c, 0, 62, 0
2, 140760, Note_on_c, 0, 65, 0
2, 140760, Note_on_c, 0, 50, 0
2, 140760, Note_on_c, 0, 57, 67
2, 140940, Note_on_c, 0, 57, 0
2, 140940, Note_on_c, 0, 53, 70
2, 140940, Note_on_c, 0, 58, 70
2, 140940, Note_on_c, 0, 62, 70
2, 141120, Note_on_c, 0, 62, 0
2, 141120, Note_on_c, 0, 58, 0
2, 141120, Note_on_c, 0, 53, 0
2, 141120, Note_on_c, 0, 65, 63
2, 141300, Note_on_c, 0, 65, 0
2, 141300, Note_on_c, 0, 53, 58
2, 141300, Note_on_c, 0, 58, 58
2, 141300, Note_on_c, 0, 62, 58
2, 141480, Note_on_c, 0, 62, 0
2, 141480, Note_on_c, 0, 58, 0
2, 141480, Note_on_c, 0, 53, 0
2, 141480, Note_on_c, 0, 69, 50
2, 141480, Note_on_c, 0, 74, 50
2, 141480, Note_on_c, 0, 77, 50
2, 141480, Note_on_c, 0, 65, 60
2, 141569, Note_on_c, 0, 77, 0
2, 141569, Note_on_c, 0, 69, 0
2, 141569, Note_on_c, 0, 74, 0
2, 141660, Note_on_c, 0, 65, 0
2, 141660, Note_on_c, 0, 74, 65
2, 141660, Note_on_c, 0, 77, 65
2, 141660, Note_on_c, 0, 81, 65
2, 141660, Note_on_c, 0, 53, 56
2, 141660, Note_on_c, 0, 57, 56
2, 141660, Note_on_c, 0, 62, 56
2, 141749, Note_on_c, 0, 81, 0
2, 141749, Note_on_c, 0, 74, 0
2, 141749, Note_on_c, 0, 77, 0
2, 141840, Note_on_c, 0, 53, 0
2, 141840, Note_on_c, 0, 57, 0
2, 141840, Note_on_c, 0, 62, 0
2, 141840, Note_on_c, 0, 69, 51
2, 141840, Note_on_c, 0, 74, 51
2, 141840, Note_on_c, 0, 77, 51
2, 141840, Note_on_c, 0, 65, 66
2, 141929, Note_on_c, 0, 77, 0
2, 141929, Note_on_c, 0, 69, 0
2, 141929, Note_on_c, 0, 74, 0
2, 142020, Note_on_c, 0, 65, 0
2, 142020, Note_on_c, 0, 74, 69
2, 142020, Note_on_c, 0, 77, 69
2, 142020, Note_on_c, 0, 81, 69
2, 142020, Note_on_c, 0, 43, 83
2, 142109, Note_on_c, 0, 81, 0
2, 142109, Note_on_c, 0, 74, 0
2, 142109, Note_on_c, 0, 77, 0
2, 142200, Note_on_c, 0, 43, 0
2, 142200, Note_on_c, 0, 69, 55
2, 142200, Note_on_c, 0, 74, 55
2, 142200, Note_on_c, 0, 77, 55
2, 142200, Note_on_c, 0, 53, 71
2, 142200, Note_on_c, 0, 58, 71
2, 142200, Note_on_c, 0, 62, 71
2, 142289, Note_on_c, 0, 62, 0
2, 142289, Note_on_c, 0, 74, 0
2, 142289, Note_on_c, 0, 77, 0
2, 142289, Note_on_c, 0, 69, 0
2, 142289, Note_on_c, 0, 58, 0
2, 142289, Note_on_c, 0, 53, 0
2, 142380, Note_on_c, 0, 74, 65
2, 142380, Note_on_c, 0, 77, 65
2, 142380, Note_on_c, 0, 81, 65
2, 142380, Note_on_c, 0, 58, 68
2, 142380, Note_on_c, 0, 62, 68
2, 142380, Note_on_c, 0, 65, 68
2, 142469, Note_on_c, 0, 65, 0
2, 142469, Note_on_c, 0, 77, 0
2, 142469, Note_on_c, 0, 81, 0
2, 142469, Note_on_c, 0, 74, 0
2, 142469, Note_on_c, 0, 62, 0
2, 142469, Note_on_c, 0, 58, 0
2, 142560, Note_on_c, 0, 69, 57
2, 142560, Note_on_c, 0, 74, 57
2, 142560, Note_on_c, 0, 77, 57
2, 142560, Note_on_c, 0, 44, 83
2, 142649, Note_on_c, 0, 77, 0
2, 142649, Note_on_c, 0, 69, 0
2, 142649, Note_on_c, 0, 74, 0
2, 142740, Note_on_c, 0, 44, 0
2, 142740, Note_on_c, 0, 74, 70
2, 142740, Note_on_c, 0, 77, 70
2, 142740, Note_on_c, 0, 81, 70
2, 142740, Note_on_c, 0, 53, 78
2, 142740, Note_on_c, 0, 59, 78
2, 142740, Note_on_c, 0, 62, 78
2, 142829, Note_on_c, 0, 62, 0
2, 142829, Note_on_c, 0, 77, 0
2, 142829, Note_on_c, 0, 81, 0
2, 142829, Note_on_c, 0, 74, 0
2, 142829, Note_on_c, 0, 59, 0
2, 142829, Note_on_c, 0, 53, 0
2, 142920, Note_on_c, 0, 69, 51
2, 142920, Note_on_c, 0, 74, 51
2, 142920, Note_on_c, 0, 77, 51
2, 142920, Note_on_c, 0, 59, 66
2, 142920, Note_on_c, 0, 62, 66
2, 142920, Note_on_c, 0, 65, 66
2, 143009, Note_on_c, 0, 65, 0
2, 143009, Note_on_c, 0, 74, 0
2, 143009, Note_on_c, 0, 77, 0
2, 143009, Note_on_c, 0, 69, 0
2, 143009, Note_on_c, 0, 62, 0
2, 143009, Note_on_c, 0, 59, 0
2, 143100, Note_on_c, 0, 73, 66
2, 143100, Note_on_c, 0, 77, 66
2, 143100, Note_on_c, 0, 81, 66
2, 143100, Note_on_c, 0, 45, 81
2, 143189, Note_on_c, 0, 81, 0
2, 143189, Note_on_c, 0, 73, 0
2, 143189, Note_on_c, 0, 77, 0
2, 143280, Note_on_c, 0, 45, 0
2, 143280, Note_on_c, 0, 69, 56
2, 143280, Note_on_c, 0, 73, 56
2, 143280, Note_on_c, 0, 77, 56
2, 143280, Note_on_c, 0, 53, 77
2, 143280, Note_on_c, 0, 58, 77
2, 143280, Note_on_c, 0, 61, 77
2, 143369, Note_on_c, 0, 61, 0
2, 143369, Note_on_c, 0, 73, 0
2, 143369, Note_on_c, 0, 77, 0
2, 143369, Note_on_c, 0, 69, 0
2, 143369, Note_on_c, 0, 58, 0
2, 143369, Note_on_c, 0, 53, 0
2, 143460, Note_on_c, 0, 73, 66
2, 143460, Note_on_c, 0, 77, 66
2, 143460, Note_on_c, 0, 81, 66
2, 143460, Note_on_c, 0, 58, 70
2, 143460, Note_on_c, 0, 61, 70
2, 143460, Note_on_c, 0, 65, 70
2, 143549, Note_on_c, 0, 65, 0
2, 143549, Note_on_c, 0, 77, 0
2, 143549, Note_on_c, 0, 81, 0
2, 143549, Note_on_c, 0, 73, 0
2, 143549, Note_on_c, 0, 61, 0
2, 143549, Note_on_c, 0, 58, 0
2, 143640, Note_on_c, 0, 69, 65
2, 143640, Note_on_c, 0, 74, 65
2, 143640, Note_on_c, 0, 77, 65
2, 143640, Note_on_c, 0, 38, 53
2, 143820, Note_on_c, 0, 38, 0
2, 143820, Note_on_c, 0, 45, 66
2, 143820, Note_on_c, 0, 50, 66
2, 143820, Note_on_c, 0, 53, 66
2, 144000, Note_on_c, 0, 53, 0
2, 144000, Note_on_c, 0, 45, 0
2, 144000, Note_on_c, 0, 50, 0
2, 144000, Note_on_c, 0, 57, 63
2, 144114, Note_on_c, 0, 77, 0
2, 144114, Note_on_c, 0, 74, 0
2, 144114, Note_on_c, 0, 69, 0
2, 144180, Note_on_c, 0, 57, 0
2, 144180, Note_on_c, 0, 53, 94
2, 144180, Note_on_c, 0, 58, 94
2, 144180, Note_on_c, 0, 62, 94
2, 144360, Note_on_c, 0, 62, 0
2, 144360, Note_on_c, 0, 58, 0
2, 144360, Note_on_c, 0, 53, 0
2, 144360, Note_on_c, 0, 65, 96
2, 144540, Note_on_c, 0, 65, 0
2, 144540, Note_on_c, 0, 53, 75
2, 144540, Note_on_c, 0, 58, 75
2, 144540, Note_on_c, 0, 62, 75
2, 144720, Note_on_c, 0, 62, 0
2, 144720, Note_on_c, 0, 58, 0
2, 144720, Note_on_c, 0, 53, 0
2, 144720, Note_on_c, 0, 69, 55
2, 144720, Note_on_c, 0, 74, 55
2, 144720, Note_on_c, 0, 77, 55
2, 144720, Note_on_c, 0, 65, 88
2, 144720, Note_on_c, 0, 65, 78
2, 144809, Note_on_c, 0, 65, 0
2, 144809, Note_on_c, 0, 77, 0
2, 144809, Note_on_c, 0, 69, 0
2, 144809, Note_on_c, 0, 74, 0
2, 144900, Note_on_c, 0, 65, 0
2, 144900, Note_on_c, 0, 74, 63
2, 144900, Note_on_c, 0, 77, 63
2, 144900, Note_on_c, 0, 81, 63
2, 144900, Note_on_c, 0, 64, 86
2, 144900, Note_on_c, 0, 53, 80
2, 144900, Note_on_c, 0, 57, 80
2, 144989, Note_on_c, 0, 64, 0
2, 144989, Note_on_c, 0, 81, 0
2, 144989, Note_on_c, 0, 74, 0
2, 144989, Note_on_c, 0, 77, 0
2, 145080, Note_on_c, 0, 57, 0
2, 145080, Note_on_c, 0, 53, 0
2, 145080, Note_on_c, 0, 69, 54
2, 145080, Note_on_c, 0, 74, 54
2, 145080, Note_on_c, 0, 77, 54
2, 145080, Note_on_c, 0, 62, 80
2, 145080, Note_on_c, 0, 53, 86
2, 145080, Note_on_c, 0, 57, 86
2, 145169, Note_on_c, 0, 62, 0
2, 145169, Note_on_c, 0, 77, 0
2, 145169, Note_on_c, 0, 69, 0
2, 145169, Note_on_c, 0, 74, 0
2, 145260, Note_on_c, 0, 57, 0
2, 145260, Note_on_c, 0, 53, 0
2, 145260, Note_on_c, 0, 74, 69
2, 145260, Note_on_c, 0, 77, 69
2, 145260, Note_on_c, 0, 81, 69
2, 145260, Note_on_c, 0, 65, 111
2, 145260, Note_on_c, 0, 43, 98
2, 145349, Note_on_c, 0, 81, 0
2, 145349, Note_on_c, 0, 74, 0
2, 145349, Note_on_c, 0, 77, 0
2, 145440, Note_on_c, 0, 65, 0
2, 145440, Note_on_c, 0, 43, 0
2, 145440, Note_on_c, 0, 74, 58
2, 145440, Note_on_c, 0, 77, 58
2, 145440, Note_on_c, 0, 64, 83
2, 145440, Note_on_c, 0, 58, 95
2, 145529, Note_on_c, 0, 64, 0
2, 145529, Note_on_c, 0, 74, 0
2, 145529, Note_on_c, 0, 77, 0
2, 145620, Note_on_c, 0, 58, 0
2, 145620, Note_on_c, 0, 74, 69
2, 145620, Note_on_c, 0, 77, 69
2, 145620, Note_on_c, 0, 81, 69
2, 145620, Note_on_c, 0, 62, 74
2, 145620, Note_on_c, 0, 53, 84
2, 145620, Note_on_c, 0, 58, 84
2, 145709, Note_on_c, 0, 62, 0
2, 145709, Note_on_c, 0, 81, 0
2, 145709, Note_on_c, 0, 74, 0
2, 145709, Note_on_c, 0, 77, 0
2, 145800, Note_on_c, 0, 58, 0
2, 145800, Note_on_c, 0, 53, 0
2, 145800, Note_on_c, 0, 74, 56
2, 145800, Note_on_c, 0, 77, 56
2, 145800, Note_on_c, 0, 65, 115
2, 145800, Note_on_c, 0, 44, 100
2, 145889, Note_on_c, 0, 77, 0
2, 145889, Note_on_c, 0, 74, 0
2, 145980, Note_on_c, 0, 65, 0
2, 145980, Note_on_c, 0, 44, 0
2, 145980, Note_on_c, 0, 74, 70
2, 145980, Note_on_c, 0, 77, 70
2, 145980, Note_on_c, 0, 81, 70
2, 145980, Note_on_c, 0, 64, 78
2, 145980, Note_on_c, 0, 59, 93
2, 146069, Note_on_c, 0, 64, 0
2, 146069, Note_on_c, 0, 81, 0
2, 146069, Note_on_c, 0, 74, 0
2, 146069, Note_on_c, 0, 77, 0
2, 146160, Note_on_c, 0, 59, 0
2, 146160, Note_on_c, 0, 74, 60
2, 146160, Note_on_c, 0, 77, 60
2, 146160, Note_on_c, 0, 62, 78
2, 146160, Note_on_c, 0, 53, 87
2, 146160, Note_on_c, 0, 59, 87
2, 146249, Note_on_c, 0, 62, 0
2, 146249, Note_on_c, 0, 74, 0
2, 146249, Note_on_c, 0, 77, 0
2, 146340, Note_on_c, 0, 53, 0
2, 146340, Note_on_c, 0, 59, 0
2, 146340, Note_on_c, 0, 73, 68
2, 146340, Note_on_c, 0, 77, 68
2, 146340, Note_on_c, 0, 81, 68
2, 146340, Note_on_c, 0, 65, 113
2, 146340, Note_on_c, 0, 45, 102
2, 146429, Note_on_c, 0, 81, 0
2, 146429, Note_on_c, 0, 73, 0
2, 146429, Note_on_c, 0, 77, 0
2, 146520, Note_on_c, 0, 65, 0
2, 146520, Note_on_c, 0, 45, 0
2, 146520, Note_on_c, 0, 73, 58
2, 146520, Note_on_c, 0, 77, 58
2, 146520, Note_on_c, 0, 61, 75
2, 146520, Note_on_c, 0, 53, 95
2, 146520, Note_on_c, 0, 58, 95
2, 146609, Note_on_c, 0, 61, 0
2, 146609, Note_on_c, 0, 73, 0
2, 146609, Note_on_c, 0, 77, 0
2, 146700, Note_on_c, 0, 53, 0
2, 146700, Note_on_c, 0, 58, 0
2, 146700, Note_on_c, 0, 77, 65
2, 146700, Note_on_c, 0, 81, 65
2, 146700, Note_on_c, 0, 65, 95
2, 146700, Note_on_c, 0, 58, 95
2, 146700, Note_on_c, 0, 61, 95
2, 146789, Note_on_c, 0, 65, 0
2, 146789, Note_on_c, 0, 77, 0
2, 146789, Note_on_c, 0, 81, 0
2, 146880, Note_on_c, 0, 58, 0
2, 146880, Note_on_c, 0, 61, 0
2, 146880, Note_on_c, 0, 74, 51
2, 146880, Note_on_c, 0, 77, 51
2, 146880, Note_on_c, 0, 62, 92
2, 146880, Note_on_c, 0, 38, 55
2, 147060, Note_on_c, 0, 38, 0
2, 147060, Note_on_c, 0, 45, 67
2, 147060, Note_on_c, 0, 50, 67
2, 147060, Note_on_c, 0, 53, 67
2, 147149, Note_on_c, 0, 74, 0
2, 147149, Note_on_c, 0, 77, 0
2, 147240, Note_on_c, 0, 50, 0
2, 147240, Note_on_c, 0, 45, 0
2, 147240, Note_on_c, 0, 53, 0
2, 147240, Note_on_c, 0, 57, 64
2, 147354, Note_on_c, 0, 62, 0
2, 147420, Note_on_c, 0, 57, 0
2, 147420, Note_on_c, 0, 53, 69
2, 147420, Note_on_c, 0, 57, 69
2, 147420, Note_on_c, 0, 62, 69
2, 147600, Note_on_c, 0, 62, 0
2, 147600, Note_on_c, 0, 57, 0
2, 147600, Note_on_c, 0, 53, 0
2, 147600, Note_on_c, 0, 65, 68
2, 147780, Note_on_c, 0, 65, 0
2, 147780, Note_on_c, 0, 81, 45
2, 147780, Note_on_c, 0, 88, 45
2, 147780, Note_on_c, 0, 72, 60
2, 147960, Note_on_c, 0, 72, 0
2, 147960, Note_on_c, 0, 88, 0
2, 147960, Note_on_c, 0, 81, 0
2, 147960, Note_on_c, 0, 77, 48
2, 147960, Note_on_c, 0, 86, 48
2, 147960, Note_on_c, 0, 74, 50
2, 148140, Note_on_c, 0, 74, 0
2, 148140, Note_on_c, 0, 86, 0
2, 148140, Note_on_c, 0, 77, 0
2, 148140, Note_on_c, 0, 81, 53
2, 148140, Note_on_c, 0, 88, 53
2, 148140, Note_on_c, 0, 70, 41
2, 148320, Note_on_c, 0, 70, 0
2, 148320, Note_on_c, 0, 88, 0
2, 148320, Note_on_c, 0, 81, 0
2, 148320, Note_on_c, 0, 76, 43
2, 148320, Note_on_c, 0, 84, 43
2, 148320, Note_on_c, 0, 72, 52
2, 148500, Note_on_c, 0, 72, 0
2, 148500, Note_on_c, 0, 84, 0
2, 148500, Note_on_c, 0, 76, 0
2, 148500, Note_on_c, 0, 81, 58
2, 148500, Note_on_c, 0, 88, 58
2, 148500, Note_on_c, 0, 62, 61
2, 148500, Note_on_c, 0, 69, 61
2, 148658, Note_on_c, 0, 69, 0
2, 148658, Note_on_c, 0, 62, 0
2, 148680, Note_on_c, 0, 88, 0
2, 148680, Note_on_c, 0, 81, 0
2, 148680, Note_on_c, 0, 88, 39
2, 148680, Note_on_c, 0, 93, 39
2, 148680, Note_on_c, 0, 72, 57
2, 148860, Note_on_c, 0, 72, 0
2, 148860, Note_on_c, 0, 93, 0
2, 148860, Note_on_c, 0, 88, 0
2, 148860, Note_on_c, 0, 93, 55
2, 148860, Note_on_c, 0, 100, 55
2, 148860, Note_on_c, 0, 76, 56
2, 149040, Note_on_c, 0, 76, 0
2, 149040, Note_on_c, 0, 100, 0
2, 149040, Note_on_c, 0, 93, 0
2, 149040, Note_on_c, 0, 88, 40
2, 149040, Note_on_c, 0, 93, 40
2, 149040, Note_on_c, 0, 81, 59
2, 149220, Note_on_c, 0, 81, 0
2, 149220, Note_on_c, 0, 93, 0
2, 149220, Note_on_c, 0, 88, 0
2, 149220, Note_on_c, 0, 77, 52
2, 149220, Note_on_c, 0, 86, 52
2, 149220, Note_on_c, 0, 74, 48
2, 149400, Note_on_c, 0, 74, 0
2, 149400, Note_on_c, 0, 86, 0
2, 149400, Note_on_c, 0, 77, 0
2, 149400, Note_on_c, 0, 81, 52
2, 149400, Note_on_c, 0, 88, 52
2, 149400, Note_on_c, 0, 69, 44
2, 149580, Note_on_c, 0, 69, 0
2, 149580, Note_on_c, 0, 88, 0
2, 149580, Note_on_c, 0, 81, 0
2, 149580, Note_on_c, 0, 76, 44
2, 149580, Note_on_c, 0, 84, 44
2, 149580, Note_on_c, 0, 72, 53
2, 149760, Note_on_c, 0, 72, 0
2, 149760, Note_on_c, 0, 84, 0
2, 149760, Note_on_c, 0, 76, 0
2, 149760, Note_on_c, 0, 79, 51
2, 149760, Note_on_c, 0, 86, 51
2, 149760, Note_on_c, 0, 67, 43
2, 149940, Note_on_c, 0, 67, 0
2, 149940, Note_on_c, 0, 86, 0
2, 149940, Note_on_c, 0, 79, 0
2, 149940, Note_on_c, 0, 74, 41
2, 149940, Note_on_c, 0, 81, 41
2, 149940, Note_on_c, 0, 70, 57
2, 150120, Note_on_c, 0, 70, 0
2, 150120, Note_on_c, 0, 81, 0
2, 150120, Note_on_c, 0, 74, 0
2, 150120, Note_on_c, 0, 77, 67
2, 150120, Note_on_c, 0, 84, 67
2, 150120, Note_on_c, 0, 60, 58
2, 150120, Note_on_c, 0, 65, 58
2, 150278, Note_on_c, 0, 65, 0
2, 150278, Note_on_c, 0, 77, 0
2, 150278, Note_on_c, 0, 84, 0
2, 150278, Note_on_c, 0, 60, 0
2, 150300, Note_on_c, 0, 84, 43
2, 150300, Note_on_c, 0, 89, 43
2, 150300, Note_on_c, 0, 69, 55
2, 150480, Note_on_c, 0, 69, 0
2, 150480, Note_on_c, 0, 89, 0
2, 150480, Note_on_c, 0, 84, 0
2, 150480, Note_on_c, 0, 89, 60
2, 150480, Note_on_c, 0, 96, 60
2, 150480, Note_on_c, 0, 72, 57
2, 150660, Note_on_c, 0, 72, 0
2, 150660, Note_on_c, 0, 96, 0
2, 150660, Note_on_c, 0, 89, 0
2, 150660, Note_on_c, 0, 84, 44
2, 150660, Note_on_c, 0, 89, 44
2, 150660, Note_on_c, 0, 77, 51
2, 150840, Note_on_c, 0, 77, 0
2, 150840, Note_on_c, 0, 89, 0
2, 150840, Note_on_c, 0, 84, 0
2, 150840, Note_on_c, 0, 72, 53
2, 150840, Note_on_c, 0, 79, 53
2, 150840, Note_on_c, 0, 69, 42
2, 151020, Note_on_c, 0, 69, 0
2, 151020, Note_on_c, 0, 79, 0
2, 151020, Note_on_c, 0, 72, 0
2, 151020, Note_on_c, 0, 77, 53
2, 151020, Note_on_c, 0, 81, 53
2, 151020, Note_on_c, 0, 65, 43
2, 151200, Note_on_c, 0, 65, 0
2, 151200, Note_on_c, 0, 81, 0
2, 151200, Note_on_c, 0, 77, 0
2, 151200, Note_on_c, 0, 71, 48
2, 151200, Note_on_c, 0, 79, 48
2, 151200, Note_on_c, 0, 67, 51
2, 151380, Note_on_c, 0, 67, 0
2, 151380, Note_on_c, 0, 79, 0
2, 151380, Note_on_c, 0, 71, 0
2, 151380, Note_on_c, 0, 76, 49
2, 151380, Note_on_c, 0, 81, 49
2, 151380, Note_on_c, 0, 64, 55
2, 151560, Note_on_c, 0, 64, 0
2, 151560, Note_on_c, 0, 81, 0
2, 151560, Note_on_c, 0, 76, 0
2, 151560, Note_on_c, 0, 69, 49
2, 151560, Note_on_c, 0, 79, 49
2, 151560, Note_on_c, 0, 65, 51
2, 151740, Note_on_c, 0, 65, 0
2, 151740, Note_on_c, 0, 79, 0
2, 151740, Note_on_c, 0, 69, 0
2, 151740, Note_on_c, 0, 74, 62
2, 151740, Note_on_c, 0, 81, 62
2, 151740, Note_on_c, 0, 57, 58
2, 151740, Note_on_c, 0, 62, 58
2, 151898, Note_on_c, 0, 62, 0
2, 151898, Note_on_c, 0, 74, 0
2, 151898, Note_on_c, 0, 81, 0
2, 151898, Note_on_c, 0, 57, 0
2, 151920, Note_on_c, 0, 81, 59
2, 151920, Note_on_c, 0, 86, 59
2, 151920, Note_on_c, 0, 65, 49
2, 152100, Note_on_c, 0, 65, 0
2, 152100, Note_on_c, 0, 86, 0
2, 152100, Note_on_c, 0, 81, 0
2, 152100, Note_on_c, 0, 86, 63
2, 152100, Note_on_c, 0, 93, 63
2, 152100, Note_on_c, 0, 69, 59
2, 152280, Note_on_c, 0, 69, 0
2, 152280, Note_on_c, 0, 93, 0
2, 152280, Note_on_c, 0, 86, 0
2, 152280, Note_on_c, 0, 81, 42
2, 152280, Note_on_c, 0, 86, 42
2, 152280, Note_on_c, 0, 74, 57
2, 152460, Note_on_c, 0, 74, 0
2, 152460, Note_on_c, 0, 86, 0
2, 152460, Note_on_c, 0, 81, 0
2, 152460, Note_on_c, 0, 67, 32
2, 152460, Note_on_c, 0, 72, 32
2, 152460, Note_on_c, 0, 64, 37
2, 152640, Note_on_c, 0, 64, 0
2, 152640, Note_on_c, 0, 72, 0
2, 152640, Note_on_c, 0, 67, 0
2, 152640, Note_on_c, 0, 69, 52
2, 152640, Note_on_c, 0, 76, 52
2, 152640, Note_on_c, 0, 62, 49
2, 152820, Note_on_c, 0, 62, 0
2, 152820, Note_on_c, 0, 76, 0
2, 152820, Note_on_c, 0, 69, 0
2, 152820, Note_on_c, 0, 67, 60
2, 152820, Note_on_c, 0, 72, 60
2, 152820, Note_on_c, 0, 53, 57
2, 152820, Note_on_c, 0, 60, 57
2, 152978, Note_on_c, 0, 60, 0
2, 152978, Note_on_c, 0, 67, 0
2, 152978, Note_on_c, 0, 72, 0
2, 152978, Note_on_c, 0, 53, 0
2, 153000, Note_on_c, 0, 76, 64
2, 153000, Note_on_c, 0, 81, 64
2, 153000, Note_on_c, 0, 64, 53
2, 153180, Note_on_c, 0, 64, 0
2, 153180, Note_on_c, 0, 81, 0
2, 153180, Note_on_c, 0, 76, 0
2, 153180, Note_on_c, 0, 81, 55
2, 153180, Note_on_c, 0, 88, 55
2, 153180, Note_on_c, 0, 69, 58
2, 153360, Note_on_c, 0, 69, 0
2, 153360, Note_on_c, 0, 88, 0
2, 153360, Note_on_c, 0, 81, 0
2, 153360, Note_on_c, 0, 76, 40
2, 153360, Note_on_c, 0, 81, 40
2, 153360, Note_on_c, 0, 72, 56
2, 153540, Note_on_c, 0, 72, 0
2, 153540, Note_on_c, 0, 81, 0
2, 153540, Note_on_c, 0, 76, 0
2, 153540, Note_on_c, 0, 64, 35
2, 153540, Note_on_c, 0, 69, 35
2, 153540, Note_on_c, 0, 60, 33
2, 153720, Note_on_c, 0, 60, 0
2, 153720, Note_on_c, 0, 69, 0
2, 153720, Note_on_c, 0, 64, 0
2, 153720, Note_on_c, 0, 65, 48
2, 153720, Note_on_c, 0, 72, 48
2, 153720, Note_on_c, 0, 58, 46
2, 153900, Note_on_c, 0, 58, 0
2, 153900, Note_on_c, 0, 72, 0
2, 153900, Note_on_c, 0, 65, 0
2, 153900, Note_on_c, 0, 64, 56
2, 153900, Note_on_c, 0, 69, 56
2, 153900, Note_on_c, 0, 50, 60
2, 153900, Note_on_c, 0, 57, 60
2, 154058, Note_on_c, 0, 57, 0
2, 154058, Note_on_c, 0, 64, 0
2, 154058, Note_on_c, 0, 69, 0
2, 154058, Note_on_c, 0, 50, 0
2, 154080, Note_on_c, 0, 69, 57
2, 154080, Note_on_c, 0, 74, 57
2, 154080, Note_on_c, 0, 57, 50
2, 154260, Note_on_c, 0, 57, 0
2, 154260, Note_on_c, 0, 74, 0
2, 154260, Note_on_c, 0, 69, 0
2, 154260, Note_on_c, 0, 74, 63
2, 154260, Note_on_c, 0, 81, 63
2, 154260, Note_on_c, 0, 62, 55
2, 154440, Note_on_c, 0, 62, 0
2, 154440, Note_on_c, 0, 81, 0
2, 154440, Note_on_c, 0, 74, 0
2, 154440, Note_on_c, 0, 69, 44
2, 154440, Note_on_c, 0, 74, 44
2, 154440, Note_on_c, 0, 65, 58
2, 154620, Note_on_c, 0, 65, 0
2, 154620, Note_on_c, 0, 74, 0
2, 154620, Note_on_c, 0, 69, 0
2, 154620, Note_on_c, 0, 64, 38
2, 154620, Note_on_c, 0, 69, 38
2, 154620, Note_on_c, 0, 60, 48
2, 154800, Note_on_c, 0, 60, 0
2, 154800, Note_on_c, 0, 69, 0
2, 154800, Note_on_c, 0, 64, 0
2, 154800, Note_on_c, 0, 65, 52
2, 154800, Note_on_c, 0, 72, 52
2, 154800, Note_on_c, 0, 58, 48
2, 154980, Note_on_c, 0, 58, 0
2, 154980, Note_on_c, 0, 72, 0
2, 154980, Note_on_c, 0, 65, 0
2, 154980, Note_on_c, 0, 64, 61
2, 154980, Note_on_c, 0, 69, 61
2, 154980, Note_on_c, 0, 50, 64
2, 154980, Note_on_c, 0, 57, 64
2, 155138, Note_on_c, 0, 57, 0
2, 155138, Note_on_c, 0, 64, 0
2, 155138, Note_on_c, 0, 69, 0
2, 155138, Note_on_c, 0, 50, 0
2, 155160, Note_on_c, 0, 69, 56
2, 155160, Note_on_c, 0, 74, 56
2, 155160, Note_on_c, 0, 57, 52
2, 155340, Note_on_c, 0, 57, 0
2, 155340, Note_on_c, 0, 74, 0
2, 155340, Note_on_c, 0, 69, 0
2, 155340, Note_on_c, 0, 74, 55
2, 155340, Note_on_c, 0, 81, 55
2, 155340, Note_on_c, 0, 62, 54
2, 155520, Note_on_c, 0, 62, 0
2, 155520, Note_on_c, 0, 81, 0
2, 155520, Note_on_c, 0, 74, 0
2, 155520, Note_on_c, 0, 69, 40
2, 155520, Note_on_c, 0, 74, 40
2, 155520, Note_on_c, 0, 65, 54
2, 155700, Note_on_c, 0, 65, 0
2, 155700, Note_on_c, 0, 74, 0
2, 155700, Note_on_c, 0, 69, 0
2, 155700, Note_on_c, 0, 64, 39
2, 155700, Note_on_c, 0, 69, 39
2, 155700, Note_on_c, 0, 60, 50
2, 155880, Note_on_c, 0, 60, 0
2, 155880, Note_on_c, 0, 69, 0
2, 155880, Note_on_c, 0, 64, 0
2, 155880, Note_on_c, 0, 65, 48
2, 155880, Note_on_c, 0, 72, 48
2, 155880, Note_on_c, 0, 58, 45
2, 156060, Note_on_c, 0, 58, 0
2, 156060, Note_on_c, 0, 72, 0
2, 156060, Note_on_c, 0, 65, 0
2, 156060, Note_on_c, 0, 64, 59
2, 156060, Note_on_c, 0, 69, 59
2, 156060, Note_on_c, 0, 50, 64
2, 156060, Note_on_c, 0, 57, 64
2, 156218, Note_on_c, 0, 57, 0
2, 156218, Note_on_c, 0, 64, 0
2, 156218, Note_on_c, 0, 69, 0
2, 156218, Note_on_c, 0, 50, 0
2, 156240, Note_on_c, 0, 69, 57
2, 156240, Note_on_c, 0, 74, 57
2, 156240, Note_on_c, 0, 57, 46
2, 156420, Note_on_c, 0, 57, 0
2, 156420, Note_on_c, 0, 74, 0
2, 156420, Note_on_c, 0, 69, 0
2, 156420, Note_on_c, 0, 74, 56
2, 156420, Note_on_c, 0, 81, 56
2, 156420, Note_on_c, 0, 62, 57
2, 156600, Note_on_c, 0, 62, 0
2, 156600, Note_on_c, 0, 81, 0
2, 156600, Note_on_c, 0, 74, 0
2, 156600, Note_on_c, 0, 69, 41
2, 156600, Note_on_c, 0, 74, 41
2, 156780, Note_on_c, 0, 74, 0
2, 156780, Note_on_c, 0, 69, 0
2, 156960, Note_on_c, 0, 57, 49
2, 157140, Note_on_c, 0, 57, 0
2, 157140, Note_on_c, 0, 62, 54
2, 157320, Note_on_c, 0, 62, 0
2, 157320, Note_on_c, 0, 56, 77
2, 157320, Note_on_c, 0, 61, 77
2, 157320, Note_on_c, 0, 64, 77
2, 157500, Note_on_c, 0, 64, 0
2, 157500, Note_on_c, 0, 61, 0
2, 157500, Note_on_c, 0, 56, 0
2, 157500, Note_on_c, 0, 57, 43
2, 157680, Note_on_c, 0, 57, 0
2, 157680, Note_on_c, 0, 62, 60
2, 157680, Note_on_c, 0, 65, 60
2, 157860, Note_on_c, 0, 65, 0
2, 157860, Note_on_c, 0, 62, 0
2, 157860, Note_on_c, 0, 61, 80
2, 157860, Note_on_c, 0, 64, 80
2, 157860, Note_on_c, 0, 68, 80
2, 158040, Note_on_c, 0, 68, 0
2, 158040, Note_on_c, 0, 64, 0
2, 158040, Note_on_c, 0, 61, 0
2, 158040, Note_on_c, 0, 57, 46
2, 158040, Note_on_c, 0, 62, 46
2, 158220, Note_on_c, 0, 62, 0
2, 158220, Note_on_c, 0, 57, 0
2, 158220, Note_on_c, 0, 65, 56
2, 158220, Note_on_c, 0, 69, 56
2, 158400, Note_on_c, 0, 69, 0
2, 158400, Note_on_c, 0, 65, 0
2, 158400, Note_on_c, 0, 64, 76
2, 158400, Note_on_c, 0, 68, 76
2, 158400, Note_on_c, 0, 73, 76
2, 158580, Note_on_c, 0, 73, 0
2, 158580, Note_on_c, 0, 68, 0
2, 158580, Note_on_c, 0, 64, 0
2, 158580, Note_on_c, 0, 62, 44
2, 158580, Note_on_c, 0, 65, 44
2, 158760, Note_on_c, 0, 65, 0
2, 158760, Note_on_c, 0, 62, 0
2, 158760, Note_on_c, 0, 69, 59
2, 158760, Note_on_c, 0, 74, 59
2, 158940, Note_on_c, 0, 74, 0
2, 158940, Note_on_c, 0, 69, 0
2, 158940, Note_on_c, 0, 68, 80
2, 158940, Note_on_c, 0, 73, 80
2, 158940, Note_on_c, 0, 76, 80
2, 159120, Note_on_c, 0, 76, 0
2, 159120, Note_on_c, 0, 73, 0
2, 159120, Note_on_c, 0, 68, 0
2, 159120, Note_on_c, 0, 65, 50
2, 159120, Note_on_c, 0, 69, 50
2, 159300, Note_on_c, 0, 69, 0
2, 159300, Note_on_c, 0, 65, 0
2, 159300, Note_on_c, 0, 74, 59
2, 159300, Note_on_c, 0, 77, 59
2, 159480, Note_on_c, 0, 77, 0
2, 159480, Note_on_c, 0, 74, 0
2, 159480, Note_on_c, 0, 73, 76
2, 159480, Note_on_c, 0, 76, 76
2, 159480, Note_on_c, 0, 80, 76
2, 159660, Note_on_c, 0, 80, 0
2, 159660, Note_on_c, 0, 76, 0
2, 159660, Note_on_c, 0, 73, 0
2, 159660, Note_on_c, 0, 69, 44
2, 159660, Note_on_c, 0, 74, 44
2, 159840, Note_on_c, 0, 74, 0
2, 159840, Note_on_c, 0, 69, 0
2, 159840, Note_on_c, 0, 77, 60
2, 159840, Note_on_c, 0, 81, 60
2, 160020, Note_on_c, 0, 81, 0
2, 160020, Note_on_c, 0, 77, 0
2, 160020, Note_on_c, 0, 73, 80
2, 160020, Note_on_c, 0, 76, 80
2, 160020, Note_on_c, 0, 80, 80
2, 160200, Note_on_c, 0, 80, 0
2, 160200, Note_on_c, 0, 76, 0
2, 160200, Note_on_c, 0, 73, 0
2, 160200, Note_on_c, 0, 69, 42
2, 160200, Note_on_c, 0, 74, 42
2, 160380, Note_on_c, 0, 74, 0
2, 160380, Note_on_c, 0, 69, 0
2, 160380, Note_on_c, 0, 77, 53
2, 160380, Note_on_c, 0, 81, 53
2, 160560, Note_on_c, 0, 81, 0
2, 160560, Note_on_c, 0, 77, 0
2, 160560, Note_on_c, 0, 73, 76
2, 160560, Note_on_c, 0, 76, 76
2, 160560, Note_on_c, 0, 80, 76
2, 160740, Note_on_c, 0, 80, 0
2, 160740, Note_on_c, 0, 76, 0
2, 160740, Note_on_c, 0, 73, 0
2, 160740, Note_on_c, 0, 69, 42
2, 160740, Note_on_c, 0, 74, 42
2, 160920, Note_on_c, 0, 74, 0
2, 160920, Note_on_c, 0, 69, 0
2, 160920, Note_on_c, 0, 77, 57
2, 160920, Note_on_c, 0, 81, 57
2, 161100, Note_on_c, 0, 81, 0
2, 161100, Note_on_c, 0, 77, 0
2, 161100, Note_on_c, 0, 73, 78
2, 161100, Note_on_c, 0, 76, 78
2, 161100, Note_on_c, 0, 80, 78
2, 161280, Note_on_c, 0, 80, 0
2, 161280, Note_on_c, 0, 76, 0
2, 161280, Note_on_c, 0, 73, 0
2, 161280, Note_on_c, 0, 69, 50
2, 161280, Note_on_c, 0, 74, 50
2, 161460, Note_on_c, 0, 74, 0
2, 161460, Note_on_c, 0, 69, 0
2, 161460, Note_on_c, 0, 77, 58
2, 161460, Note_on_c, 0, 81, 58
2, 161640, Note_on_c, 0, 81, 0
2, 161640, Note_on_c, 0, 77, 0
2, 161640, Note_on_c, 0, 69, 49
2, 161640, Note_on_c, 0, 74, 49
2, 161640, Note_on_c, 0, 77, 49
2, 161820, Note_on_c, 0, 77, 0
2, 161820, Note_on_c, 0, 74, 0
2, 161820, Note_on_c, 0, 69, 0
2, 161820, Note_on_c, 0, 74, 57
2, 161820, Note_on_c, 0, 77, 57
2, 161820, Note_on_c, 0, 81, 57
2, 162000, Note_on_c, 0, 81, 0
2, 162000, Note_on_c, 0, 77, 0
2, 162000, Note_on_c, 0, 74, 0
2, 162000, Note_on_c, 0, 74, 51
2, 162000, Note_on_c, 0, 77, 51
2, 162000, Note_on_c, 0, 81, 51
2, 162180, Note_on_c, 0, 81, 0
2, 162180, Note_on_c, 0, 77, 0
2, 162180, Note_on_c, 0, 74, 0
2, 162180, Note_on_c, 0, 69, 41
2, 162180, Note_on_c, 0, 74, 41
2, 162180, Note_on_c, 0, 77, 41
2, 162360, Note_on_c, 0, 77, 0
2, 162360, Note_on_c, 0, 74, 0
2, 162360, Note_on_c, 0, 69, 0
2, 162360, Note_on_c, 0, 74, 54
2, 162360, Note_on_c, 0, 77, 54
2, 162360, Note_on_c, 0, 81, 54
2, 162540, Note_on_c, 0, 81, 0
2, 162540, Note_on_c, 0, 77, 0
2, 162540, Note_on_c, 0, 74, 0
2, 162540, Note_on_c, 0, 74, 49
2, 162540, Note_on_c, 0, 77, 49
2, 162540, Note_on_c, 0, 81, 49
2, 162540, Note_on_c, 0, 60, 48
2, 162720, Note_on_c, 0, 81, 0
2, 162720, Note_on_c, 0, 74, 0
2, 162720, Note_on_c, 0, 77, 0
2, 162720, Note_on_c, 0, 69, 47
2, 162720, Note_on_c, 0, 74, 47
2, 162720, Note_on_c, 0, 77, 47
2, 162900, Note_on_c, 0, 77, 0
2, 162900, Note_on_c, 0, 74, 0
2, 162900, Note_on_c, 0, 69, 0
2, 162900, Note_on_c, 0, 74, 58
2, 162900, Note_on_c, 0, 77, 58
2, 162900, Note_on_c, 0, 81, 58
2, 163080, Note_on_c, 0, 81, 0
2, 163080, Note_on_c, 0, 60, 0
2, 163080, Note_on_c, 0, 74, 0
2, 163080, Note_on_c, 0, 77, 0
2, 163080, Note_on_c, 0, 74, 50
2, 163080, Note_on_c, 0, 77, 50
2, 163080, Note_on_c, 0, 81, 50
2, 163080, Note_on_c, 0, 31, 40
2, 163080, Note_on_c, 0, 38, 40
2, 163080, Note_on_c, 0, 43, 40
2, 163124, Note_on_c, 0, 43, 0
2, 163124, Note_on_c, 0, 31, 0
2, 163124, Note_on_c, 0, 38, 0
2, 163124, Note_on_c, 0, 50, 65
2, 163260, Note_on_c, 0, 74, 0
2, 163260, Note_on_c, 0, 77, 0
2, 163260, Note_on_c, 0, 81, 0
2, 163260, Note_on_c, 0, 69, 44
2, 163260, Note_on_c, 0, 74, 44
2, 163260, Note_on_c, 0, 77, 44
2, 163440, Note_on_c, 0, 77, 0
2, 163440, Note_on_c, 0, 74, 0
2, 163440, Note_on_c, 0, 69, 0
2, 163440, Note_on_c, 0, 74, 53
2, 163440, Note_on_c, 0, 77, 53
2, 163440, Note_on_c, 0, 81, 53
2, 163560, Note_on_c, 0, 50, 0
2, 163620, Note_on_c, 0, 74, 0
2, 163620, Note_on_c, 0, 77, 0
2, 163620, Note_on_c, 0, 81, 0
2, 163620, Note_on_c, 0, 74, 52
2, 163620, Note_on_c, 0, 77, 52
2, 163620, Note_on_c, 0, 81, 52
2, 163620, Note_on_c, 0, 53, 52
2, 163800, Note_on_c, 0, 53, 0
2, 163800, Note_on_c, 0, 74, 0
2, 163800, Note_on_c, 0, 77, 0
2, 163800, Note_on_c, 0, 81, 0
2, 163800, Note_on_c, 0, 69, 45
2, 163800, Note_on_c, 0, 74, 45
2, 163800, Note_on_c, 0, 77, 45
2, 163800, Note_on_c, 0, 57, 51
2, 163980, Note_on_c, 0, 57, 0
2, 163980, Note_on_c, 0, 69, 0
2, 163980, Note_on_c, 0, 74, 0
2, 163980, Note_on_c, 0, 77, 0
2, 163980, Note_on_c, 0, 74, 56
2, 163980, Note_on_c, 0, 77, 56
2, 163980, Note_on_c, 0, 81, 56
2, 163980, Note_on_c, 0, 60, 60
2, 164160, Note_on_c, 0, 60, 0
2, 164160, Note_on_c, 0, 74, 0
2, 164160, Note_on_c, 0, 77, 0
2, 164160, Note_on_c, 0, 81, 0
2, 164160, Note_on_c, 0, 74, 47
2, 164160, Note_on_c, 0, 77, 47
2, 164160, Note_on_c, 0, 81, 47
2, 164160, Note_on_c, 0, 65, 58
2, 164340, Note_on_c, 0, 81, 0
2, 164340, Note_on_c, 0, 74, 0
2, 164340, Note_on_c, 0, 77, 0
2, 164340, Note_on_c, 0, 69, 41
2, 164340, Note_on_c, 0, 74, 41
2, 164340, Note_on_c, 0, 77, 41
2, 164520, Note_on_c, 0, 77, 0
2, 164520, Note_on_c, 0, 74, 0
2, 164520, Note_on_c, 0, 69, 0
2, 164520, Note_on_c, 0, 74, 54
2, 164520, Note_on_c, 0, 77, 54
2, 164520, Note_on_c, 0, 81, 54
2, 164700, Note_on_c, 0, 81, 0
2, 164700, Note_on_c, 0, 65, 0
2, 164700, Note_on_c, 0, 74, 0
2, 164700, Note_on_c, 0, 77, 0
2, 164700, Note_on_c, 0, 74, 52
2, 164700, Note_on_c, 0, 77, 52
2, 164700, Note_on_c, 0, 81, 52
2, 164700, Note_on_c, 0, 34, 47
2, 164700, Note_on_c, 0, 41, 47
2, 164777, Note_on_c, 0, 41, 0
2, 164777, Note_on_c, 0, 34, 0
2, 164777, Note_on_c, 0, 46, 71
2, 164777, Note_on_c, 0, 50, 71
2, 164777, Note_on_c, 0, 55, 71
2, 164880, Note_on_c, 0, 74, 0
2, 164880, Note_on_c, 0, 81, 0
2, 164880, Note_on_c, 0, 77, 0
2, 164880, Note_on_c, 0, 69, 50
2, 164880, Note_on_c, 0, 74, 50
2, 164880, Note_on_c, 0, 77, 50
2, 165060, Note_on_c, 0, 77, 0
2, 165060, Note_on_c, 0, 69, 0
2, 165060, Note_on_c, 0, 74, 0
2, 165060, Note_on_c, 0, 74, 53
2, 165060, Note_on_c, 0, 77, 53
2, 165060, Note_on_c, 0, 81, 53
2, 165184, Note_on_c, 0, 55, 0
2, 165184, Note_on_c, 0, 50, 0
2, 165184, Note_on_c, 0, 46, 0
2, 165240, Note_on_c, 0, 74, 0
2, 165240, Note_on_c, 0, 77, 0
2, 165240, Note_on_c, 0, 81, 0
2, 165240, Note_on_c, 0, 74, 57
2, 165240, Note_on_c, 0, 77, 57
2, 165240, Note_on_c, 0, 81, 57
2, 165240, Note_on_c, 0, 58, 49
2, 165420, Note_on_c, 0, 58, 0
2, 165420, Note_on_c, 0, 74, 0
2, 165420, Note_on_c, 0, 77, 0
2, 165420, Note_on_c, 0, 81, 0
2, 165420, Note_on_c, 0, 69, 60
2, 165420, Note_on_c, 0, 74, 60
2, 165420, Note_on_c, 0, 77, 60
2, 165420, Note_on_c, 0, 62, 58
2, 165600, Note_on_c, 0, 62, 0
2, 165600, Note_on_c, 0, 69, 0
2, 165600, Note_on_c, 0, 74, 0
2, 165600, Note_on_c, 0, 77, 0
2, 165600, Note_on_c, 0, 74, 63
2, 165600, Note_on_c, 0, 77, 63
2, 165600, Note_on_c, 0, 81, 63
2, 165600, Note_on_c, 0, 65, 55
2, 165780, Note_on_c, 0, 65, 0
2, 165780, Note_on_c, 0, 74, 0
2, 165780, Note_on_c, 0, 77, 0
2, 165780, Note_on_c, 0, 81, 0
2, 165780, Note_on_c, 0, 74, 66
2, 165780, Note_on_c, 0, 77, 66
2, 165780, Note_on_c, 0, 81, 66
2, 165780, Note_on_c, 0, 69, 56
2, 165960, Note_on_c, 0, 81, 0
2, 165960, Note_on_c, 0, 74, 0
2, 165960, Note_on_c, 0, 77, 0
2, 165960, Note_on_c, 0, 69, 69
2, 165960, Note_on_c, 0, 74, 69
2, 165960, Note_on_c, 0, 77, 69
2, 166140, Note_on_c, 0, 77, 0
2, 166140, Note_on_c, 0, 74, 0
2, 166140, Note_on_c, 0, 69, 0
2, 166140, Note_on_c, 0, 74, 73
2, 166140, Note_on_c, 0, 77, 73
2, 166140, Note_on_c, 0, 81, 73
2, 166320, Note_on_c, 0, 81, 0
2, 166320, Note_on_c, 0, 69, 0
2, 166320, Note_on_c, 0, 74, 0
2, 166320, Note_on_c, 0, 77, 0
2, 166320, Note_on_c, 0, 74, 99
2, 166320, Note_on_c, 0, 77, 99
2, 166320, Note_on_c, 0, 81, 99
2, 166320, Note_on_c, 0, 36, 45
2, 166320, Note_on_c, 0, 43, 45
2, 166352, Note_on_c, 0, 43, 0
2, 166352, Note_on_c, 0, 36, 0
2, 166352, Note_on_c, 0, 50, 65
2, 166352, Note_on_c, 0, 53, 65
2, 166352, Note_on_c, 0, 58, 65
2, 166500, Note_on_c, 0, 74, 0
2, 166500, Note_on_c, 0, 81, 0
2, 166500, Note_on_c, 0, 77, 0
2, 166500, Note_on_c, 0, 69, 89
2, 166500, Note_on_c, 0, 74, 89
2, 166500, Note_on_c, 0, 77, 89
2, 166680, Note_on_c, 0, 77, 0
2, 166680, Note_on_c, 0, 69, 0
2, 166680, Note_on_c, 0, 74, 0
2, 166680, Note_on_c, 0, 74, 102
2, 166680, Note_on_c, 0, 77, 102
2, 166680, Note_on_c, 0, 81, 102
2, 166798, Note_on_c, 0, 58, 0
2, 166798, Note_on_c, 0, 53, 0
2, 166798, Note_on_c, 0, 50, 0
2, 166860, Note_on_c, 0, 74, 0
2, 166860, Note_on_c, 0, 77, 0
2, 166860, Note_on_c, 0, 81, 0
2, 166860, Note_on_c, 0, 74, 97
2, 166860, Note_on_c, 0, 77, 97
2, 166860, Note_on_c, 0, 81, 97
2, 166860, Note_on_c, 0, 62, 57
2, 167040, Note_on_c, 0, 62, 0
2, 167040, Note_on_c, 0, 74, 0
2, 167040, Note_on_c, 0, 77, 0
2, 167040, Note_on_c, 0, 81, 0
2, 167040, Note_on_c, 0, 69, 110
2, 167040, Note_on_c, 0, 74, 110
2, 167040, Note_on_c, 0, 77, 110
2, 167040, Note_on_c, 0, 65, 51
2, 167220, Note_on_c, 0, 65, 0
2, 167220, Note_on_c, 0, 69, 0
2, 167220, Note_on_c, 0, 74, 0
2, 167220, Note_on_c, 0, 77, 0
2, 167220, Note_on_c, 0, 74, 123
2, 167220, Note_on_c, 0, 77, 123
2, 167220, Note_on_c, 0, 81, 123
2, 167220, Note_on_c, 0, 69, 57
2, 167400, Note_on_c, 0, 69, 0
2, 167400, Note_on_c, 0, 74, 0
2, 167400, Note_on_c, 0, 77, 0
2, 167400, Note_on_c, 0, 81, 0
2, 167400, Note_on_c, 0, 74, 123
2, 167400, Note_on_c, 0, 77, 123
2, 167400, Note_on_c, 0, 81, 123
2, 167400, Note_on_c, 0, 72, 60
2, 167580, Note_on_c, 0, 81, 0
2, 167580, Note_on_c, 0, 74, 0
2, 167580, Note_on_c, 0, 77, 0
2, 167580, Note_on_c, 0, 69, 110
2, 167580, Note_on_c, 0, 74, 110
2, 167580, Note_on_c, 0, 77, 110
2, 167760, Note_on_c, 0, 77, 0
2, 167760, Note_on_c, 0, 74, 0
2, 167760, Note_on_c, 0, 69, 0
2, 167760, Note_on_c, 0, 74, 97
2, 167760, Note_on_c, 0, 77, 97
2, 167760, Note_on_c, 0, 81, 97
2, 167940, Note_on_c, 0, 81, 0
2, 167940, Note_on_c, 0, 72, 0
2, 167940, Note_on_c, 0, 74, 0
2, 167940, Note_on_c, 0, 77, 0
2, 167940, Note_on_c, 0, 74, 83
2, 167940, Note_on_c, 0, 77, 83
2, 167940, Note_on_c, 0, 81, 83
2, 167940, Control_c, 0, 64, 127
2, 167940, Note_on_c, 0, 38, 43
2, 167940, Note_on_c, 0, 45, 43
2, 168006, Note_on_c, 0, 45, 0
2, 168006, Note_on_c, 0, 38, 0
2, 168006, Note_on_c, 0, 53, 64
2, 168006, Note_on_c, 0, 57, 64
2, 168006, Note_on_c, 0, 62, 64
2, 168120, Note_on_c, 0, 74, 0
2, 168120, Note_on_c, 0, 81, 0
2, 168120, Note_on_c, 0, 77, 0
2, 168120, Note_on_c, 0, 69, 74
2, 168120, Note_on_c, 0, 74, 74
2, 168120, Note_on_c, 0, 77, 74
2, 168300, Note_on_c, 0, 77, 0
2, 168300, Note_on_c, 0, 69, 0
2, 168300, Note_on_c, 0, 74, 0
2, 168300, Note_on_c, 0, 74, 93
2, 168300, Note_on_c, 0, 77, 93
2, 168300, Note_on_c, 0, 81, 93
2, 168480, Note_on_c, 0, 81, 0
2, 168480, Note_on_c, 0, 74, 0
2, 168480, Note_on_c, 0, 77, 0
2, 168480, Note_on_c, 0, 74, 83
2, 168480, Note_on_c, 0, 77, 83
2, 168480, Note_on_c, 0, 81, 83
2, 168660, Note_on_c, 0, 81, 0
2, 168660, Note_on_c, 0, 74, 0
2, 168660, Note_on_c, 0, 77, 0
2, 168660, Note_on_c, 0, 69, 75
2, 168660, Note_on_c, 0, 74, 75
2, 168660, Note_on_c, 0, 77, 75
2, 168840, Note_on_c, 0, 77, 0
2, 168840, Note_on_c, 0, 69, 0
2, 168840, Note_on_c, 0, 74, 0
2, 168840, Note_on_c, 0, 74, 66
2, 168840, Note_on_c, 0, 77, 66
2, 168840, Note_on_c, 0, 81, 66
2, 169020, Note_on_c, 0, 81, 0
2, 169020, Note_on_c, 0, 74, 0
2, 169020, Note_on_c, 0, 77, 0
2, 169020, Note_on_c, 0, 74, 58
2, 169020, Note_on_c, 0, 77, 58
2, 169020, Note_on_c, 0, 81, 58
2, 169200, Note_on_c, 0, 81, 0
2, 169200, Note_on_c, 0, 74, 0
2, 169200, Note_on_c, 0, 77, 0
2, 169200, Note_on_c, 0, 81, 74
2, 169200, Note_on_c, 0, 88, 74
2, 169200, Note_on_c, 0, 69, 51
2, 169289, Note_on_c, 0, 88, 0
2, 169289, Note_on_c, 0, 81, 0
2, 169380, Note_on_c, 0, 69, 0
2, 169380, Note_on_c, 0, 84, 63
2, 169380, Note_on_c, 0, 89, 63
2, 169380, Note_on_c, 0, 74, 72
2, 169469, Note_on_c, 0, 89, 0
2, 169469, Note_on_c, 0, 84, 0
2, 169560, Note_on_c, 0, 62, 0
2, 169560, Note_on_c, 0, 57, 0
2, 169560, Note_on_c, 0, 74, 0
2, 169560, Note_on_c, 0, 53, 0
2, 169560, Note_on_c, 0, 86, 64
2, 169560, Note_on_c, 0, 89, 64
2, 169560, Note_on_c, 0, 93, 64
2, 169560, Note_on_c, 0, 77, 67
2, 169739, Note_on_c, 0, 93, 0
2, 169739, Note_on_c, 0, 86, 0
2, 169739, Note_on_c, 0, 89, 0
2, 169920, Note_on_c, 0, 77, 0
2, 170280, Note_on_c, 0, 93, 51
2, 170280, Note_on_c, 0, 100, 51
2, 170280, Note_on_c, 0, 81, 59
2, 170369, Note_on_c, 0, 100, 0
2, 170369, Note_on_c, 0, 93, 0
2, 170460, Note_on_c, 0, 81, 0
2, 170460, Note_on_c, 0, 96, 63
2, 170460, Note_on_c, 0, 101, 63
2, 170460, Note_on_c, 0, 86, 67
2, 170549, Note_on_c, 0, 101, 0
2, 170549, Note_on_c, 0, 96, 0
2, 170640, Note_on_c, 0, 86, 0
2, 170640, Note_on_c, 0, 98, 66
2, 170640, Note_on_c, 0, 101, 66
2, 170640, Note_on_c, 0, 105, 66
2, 170640, Note_on_c, 0, 89, 63
2, 170819, Note_on_c, 0, 105, 0
2, 170819, Note_on_c, 0, 98, 0
2, 170819, Note_on_c, 0, 101, 0
2, 171000, Note_on_c, 0, 89, 0
2, 171360, Note_on_c, 0, 81, 45
2, 171360, Note_on_c, 0, 88, 45
2, 171360, Note_on_c, 0, 69, 44
2, 171449, Note_on_c, 0, 88, 0
2, 171449, Note_on_c, 0, 81, 0
2, 171540, Note_on_c, 0, 69, 0
2, 171540, Note_on_c, 0, 84, 49
2, 171540, Note_on_c, 0, 89, 49
2, 171540, Note_on_c, 0, 74, 56
2, 171629, Note_on_c, 0, 89, 0
2, 171629, Note_on_c, 0, 84, 0
2, 171720, Note_on_c, 0, 74, 0
2, 171720, Note_on_c, 0, 86, 59
2, 171720, Note_on_c, 0, 89, 59
2, 171720, Note_on_c, 0, 93, 59
2, 171720, Note_on_c, 0, 77, 57
2, 171899, Note_on_c, 0, 93, 0
2, 171899, Note_on_c, 0, 86, 0
2, 171899, Note_on_c, 0, 89, 0
2, 172080, Note_on_c, 0, 77, 0
2, 172080, End_track
0, 0, End_of_file
