0, 0, Header, 1, 2, 360
1, 0, Start_track
1, 0, Title_t, "Italian Polka"
1, 0, Copyright_t, "Copyright (C) "
1, 0, Time_signature, 2, 2, 24, 8
1, 0, Key_signature, -6, "major"
1, 0, Tempo, 666667
1, 2160, Tempo, 666667
1, 2183, Tempo, 677507
1, 2205, Tempo, 688626
1, 2228, Tempo, 700198
1, 2250, Tempo, 712166
1, 2273, Tempo, 724550
1, 2295, Tempo, 737282
1, 2318, Tempo, 750563
1, 2340, Tempo, 764331
1, 2363, Tempo, 778614
1, 2385, Tempo, 793336
1, 2408, Tempo, 808734
1, 2430, Tempo, 824742
1, 2453, Tempo, 841397
1, 2475, Tempo, 858615
1, 2498, Tempo, 876680
1, 2520, Tempo, 895522
1, 2880, Tempo, 652174
1, 8280, Tempo, 652174
1, 8303, Tempo, 666075
1, 8325, Tempo, 680504
1, 8348, Tempo, 695652
1, 8370, Tempo, 711491
1, 8393, Tempo, 727979
1, 8415, Tempo, 745342
1, 8438, Tempo, 763553
1, 8460, Tempo, 782575
1, 8483, Tempo, 802676
1, 8505, Tempo, 823836
1, 8528, Tempo, 846024
1, 8550, Tempo, 869565
1, 8640, Tempo, 652174
1, 14399, Tempo, 652174
1, 14400, Key_signature, -3, "major"
1, 25920, Tempo, 652174
1, 25951, Tempo, 661667
1, 25982, Tempo, 671441
1, 26013, Tempo, 681431
1, 26044, Tempo, 691802
1, 26075, Tempo, 702494
1, 26106, Tempo, 713521
1, 26137, Tempo, 724813
1, 26168, Tempo, 736558
1, 26199, Tempo, 748690
1, 26229, Tempo, 761228
1, 26261, Tempo, 774094
1, 26291, Tempo, 787505
1, 26322, Tempo, 801389
1, 26353, Tempo, 815772
1, 26384, Tempo, 830680
1, 26415, Tempo, 846024
1, 26460, Tempo, 869565
1, 26640, Tempo, 652174
1, 27360, Tempo, 652174
1, 27397, Tempo, 661740
1, 27433, Tempo, 671667
1, 27470, Tempo, 681818
1, 27506, Tempo, 692361
1, 27543, Tempo, 703152
1, 27579, Tempo, 714371
1, 27616, Tempo, 725865
1, 27653, Tempo, 737826
1, 27689, Tempo, 750094
1, 27726, Tempo, 762873
1, 27762, Tempo, 775996
1, 27799, Tempo, 789681
1, 27836, Tempo, 803751
1, 27872, Tempo, 818442
1, 27909, Tempo, 833565
1, 27945, Tempo, 849377
1, 27990, Tempo, 869565
1, 28080, Tempo, 652174
1, 32040, Tempo, 652174
1, 32063, Tempo, 673174
1, 32085, Tempo, 695652
1, 32108, Tempo, 719597
1, 32130, Tempo, 745342
1, 32153, Tempo, 772897
1, 32175, Tempo, 802676
1, 32198, Tempo, 834725
1, 32220, Tempo, 869565
1, 32400, Tempo, 652174
1, 33480, Tempo, 652174
1, 33503, Tempo, 673174
1, 33525, Tempo, 695652
1, 33548, Tempo, 719597
1, 33570, Tempo, 745342
1, 33593, Tempo, 772897
1, 33615, Tempo, 802676
1, 33638, Tempo, 834725
1, 33660, Tempo, 869565
1, 33840, Tempo, 652174
1, 37440, Time_signature, 3, 2, 24, 8
1, 37440, Tempo, 631579
1, 40680, Time_signature, 2, 2, 24, 8
1, 40680, Tempo, 701754
1, 41445, Tempo, 705882
1, 41527, Tempo, 716760
1, 41608, Tempo, 727979
1, 41690, Tempo, 739463
1, 41771, Tempo, 751409
1, 41853, Tempo, 763747
1, 41934, Tempo, 776498
1, 42016, Tempo, 789578
1, 42179, Tempo, 817327
1, 42261, Tempo, 831947
1, 42342, Tempo, 846979
1, 42424, Tempo, 862689
1, 42506, Tempo, 878992
1, 42587, Tempo, 895924
1, 42669, Tempo, 913381
1, 42750, Tempo, 931677
1, 42839, Tempo, 952381
1, 42885, Tempo, 1000000
1, 43065, Tempo, 1333333
1, 43245, Tempo, 2000000
1, 43425, Tempo, 3000000
1, 43560, Key_signature, -6, "major"
1, 43560, Tempo, 652174
1, 48960, Tempo, 652174
1, 48983, Tempo, 666075
1, 49005, Tempo, 680504
1, 49028, Tempo, 695652
1, 49050, Tempo, 711491
1, 49073, Tempo, 727979
1, 49095, Tempo, 745342
1, 49118, Tempo, 763553
1, 49140, Tempo, 782575
1, 49163, Tempo, 802676
1, 49185, Tempo, 823836
1, 49208, Tempo, 846024
1, 49230, Tempo, 869565
1, 49320, Tempo, 652174
1, 54720, Tempo, 652174
1, 54743, Tempo, 664158
1, 54765, Tempo, 676590
1, 54788, Tempo, 689417
1, 54810, Tempo, 702823
1, 54833, Tempo, 716760
1, 54855, Tempo, 731261
1, 54878, Tempo, 746269
1, 54900, Tempo, 762002
1, 54923, Tempo, 778412
1, 54945, Tempo, 795545
1, 54968, Tempo, 813339
1, 54990, Tempo, 832062
1, 55032, Tempo, 869565
1, 55080, Tempo, 869565
1, 55122, Tempo, 883002
1, 55164, Tempo, 896995
1, 55207, Tempo, 911300
1, 55249, Tempo, 926212
1, 55291, Tempo, 941472
1, 55333, Tempo, 957396
1, 55376, Tempo, 973710
1, 55418, Tempo, 990753
1, 55460, Tempo, 1008234
1, 55502, Tempo, 1026518
1, 55544, Tempo, 1045296
1, 55586, Tempo, 1064963
1, 55629, Tempo, 1085187
1, 55671, Tempo, 1106399
1, 55713, Tempo, 1128244
1, 55755, Tempo, 1150969
1, 55800, Tempo, 1176471
1, 57240, Tempo, 652174
1, 57780, Tempo, 652174
1, 57960, Key_signature, -3, "major"
1, 57960, End_track
2, 0, Start_track
2, 0, Title_t, "Piano"
2, 0, Program_c, 0, 0
2, 0, Control_c, 0, 7, 105
2, 0, Control_c, 0, 10, 64
2, 0, Control_c, 0, 91, 28
2, 0, Control_c, 0, 121, 0
2, 0, Control_c, 0, 64, 0
2, 0, Control_c, 0, 121, 0
2, 0, Control_c, 0, 64, 0
2, 0, Control_c, 0, 91, 28
2, 0, Control_c, 0, 10, 51
2, 0, Control_c, 0, 7, 100
2, 0, Control_c, 0, 64, 0
2, 0, Control_c, 0, 64, 0
2, 0, Control_c, 0, 91, 48
2, 0, Control_c, 0, 10, 51
2, 0, Control_c, 0, 7, 100
2, 0, Control_c, 0, 7, 100
2, 0, Control_c, 0, 10, 51
2, 0, Control_c, 0, 91, 37
2, 0, Control_c, 0, 64, 0
2, 0, Control_c, 0, 64, 0
2, 0, Note_on_c, 0, 75, 58
2, 0, Note_on_c, 0, 69, 62
2, 42, Note_on_c, 0, 79, 58
2, 84, Note_on_c, 0, 82, 58
2, 89, Note_on_c, 0, 69, 0
2, 180, Note_on_c, 0, 75, 0
2, 180, Note_on_c, 0, 79, 0
2, 180, Note_on_c, 0, 82, 0
2, 180, Note_on_c, 0, 75, 59
2, 180, Note_on_c, 0, 79, 59
2, 180, Note_on_c, 0, 82, 59
2, 180, Note_on_c, 0, 58, 53
2, 249, Note_on_c, 0, 58, 0
2, 270, Note_on_c, 0, 75, 0
2, 270, Note_on_c, 0, 79, 0
2, 270, Note_on_c, 0, 82, 0
2, 270, Note_on_c, 0, 75, 62
2, 270, Note_on_c, 0, 79, 62
2, 270, Note_on_c, 0, 83, 62
2, 319, Note_on_c, 0, 68, 73
2, 360, Note_on_c, 0, 68, 0
2, 360, Note_on_c, 0, 75, 0
2, 360, Note_on_c, 0, 79, 0
2, 360, Note_on_c, 0, 83, 0
2, 360, Note_on_c, 0, 69, 65
2, 360, Note_on_c, 0, 74, 57
2, 360, Note_on_c, 0, 78, 57
2, 360, Note_on_c, 0, 82, 57
2, 435, Note_on_c, 0, 82, 0
2, 435, Note_on_c, 0, 78, 0
2, 435, Note_on_c, 0, 74, 0
2, 449, Note_on_c, 0, 69, 0
2, 510, Note_on_c, 0, 77, 49
2, 540, Note_on_c, 0, 77, 0
2, 540, Note_on_c, 0, 89, 75
2, 540, Note_on_c, 0, 58, 53
2, 584, Note_on_c, 0, 89, 0
2, 609, Note_on_c, 0, 58, 0
2, 679, Note_on_c, 0, 67, 68
2, 720, Note_on_c, 0, 67, 0
2, 720, Note_on_c, 0, 73, 55
2, 720, Note_on_c, 0, 68, 66
2, 762, Note_on_c, 0, 77, 55
2, 804, Note_on_c, 0, 82, 55
2, 809, Note_on_c, 0, 68, 0
2, 900, Note_on_c, 0, 73, 0
2, 900, Note_on_c, 0, 77, 0
2, 900, Note_on_c, 0, 82, 0
2, 900, Note_on_c, 0, 73, 57
2, 900, Note_on_c, 0, 77, 57
2, 900, Note_on_c, 0, 82, 57
2, 900, Note_on_c, 0, 58, 54
2, 969, Note_on_c, 0, 58, 0
2, 990, Note_on_c, 0, 73, 0
2, 990, Note_on_c, 0, 77, 0
2, 990, Note_on_c, 0, 82, 0
2, 990, Note_on_c, 0, 73, 63
2, 990, Note_on_c, 0, 77, 63
2, 990, Note_on_c, 0, 83, 63
2, 1039, Note_on_c, 0, 66, 71
2, 1080, Note_on_c, 0, 66, 0
2, 1080, Note_on_c, 0, 73, 0
2, 1080, Note_on_c, 0, 77, 0
2, 1080, Note_on_c, 0, 83, 0
2, 1080, Note_on_c, 0, 76, 53
2, 1080, Note_on_c, 0, 82, 53
2, 1080, Note_on_c, 0, 67, 64
2, 1080, Note_on_c, 0, 72, 53
2, 1155, Note_on_c, 0, 72, 0
2, 1155, Note_on_c, 0, 76, 0
2, 1155, Note_on_c, 0, 82, 0
2, 1169, Note_on_c, 0, 67, 0
2, 1230, Note_on_c, 0, 77, 56
2, 1260, Note_on_c, 0, 77, 0
2, 1260, Note_on_c, 0, 89, 71
2, 1260, Note_on_c, 0, 58, 53
2, 1304, Note_on_c, 0, 89, 0
2, 1339, Note_on_c, 0, 58, 0
2, 1419, Note_on_c, 0, 65, 72
2, 1440, Note_on_c, 0, 65, 0
2, 1440, Note_on_c, 0, 71, 49
2, 1440, Note_on_c, 0, 66, 66
2, 1482, Note_on_c, 0, 75, 49
2, 1524, Note_on_c, 0, 82, 49
2, 1529, Note_on_c, 0, 66, 0
2, 1620, Note_on_c, 0, 71, 0
2, 1620, Note_on_c, 0, 75, 0
2, 1620, Note_on_c, 0, 82, 0
2, 1620, Note_on_c, 0, 63, 42
2, 1620, Note_on_c, 0, 71, 42
2, 1620, Note_on_c, 0, 40, 53
2, 1710, Note_on_c, 0, 40, 0
2, 1710, Note_on_c, 0, 71, 0
2, 1710, Note_on_c, 0, 63, 0
2, 1710, Note_on_c, 0, 70, 66
2, 1710, Note_on_c, 0, 73, 66
2, 1710, Note_on_c, 0, 47, 61
2, 1800, Note_on_c, 0, 47, 0
2, 1800, Note_on_c, 0, 73, 0
2, 1800, Note_on_c, 0, 70, 0
2, 1800, Note_on_c, 0, 71, 60
2, 1800, Note_on_c, 0, 75, 60
2, 1800, Note_on_c, 0, 56, 60
2, 1890, Note_on_c, 0, 56, 0
2, 1890, Note_on_c, 0, 75, 0
2, 1890, Note_on_c, 0, 71, 0
2, 1890, Note_on_c, 0, 73, 64
2, 1890, Note_on_c, 0, 76, 64
2, 1890, Note_on_c, 0, 59, 65
2, 1980, Note_on_c, 0, 59, 0
2, 1980, Note_on_c, 0, 76, 0
2, 1980, Note_on_c, 0, 73, 0
2, 1980, Note_on_c, 0, 64, 69
2, 1980, Note_on_c, 0, 75, 68
2, 1980, Note_on_c, 0, 78, 68
2, 2070, Note_on_c, 0, 78, 0
2, 2070, Note_on_c, 0, 75, 0
2, 2070, Note_on_c, 0, 64, 0
2, 2070, Note_on_c, 0, 66, 72
2, 2070, Note_on_c, 0, 73, 72
2, 2070, Note_on_c, 0, 80, 72
2, 2160, Note_on_c, 0, 80, 0
2, 2160, Note_on_c, 0, 73, 0
2, 2160, Note_on_c, 0, 66, 0
2, 2160, Note_on_c, 0, 70, 73
2, 2160, Note_on_c, 0, 74, 73
2, 2160, Note_on_c, 0, 79, 73
2, 2160, Note_on_c, 0, 82, 73
2, 2160, Note_on_c, 0, 56, 73
2, 2160, Note_on_c, 0, 58, 73
2, 2160, Note_on_c, 0, 62, 73
2, 2160, Note_on_c, 0, 67, 73
2, 2520, Note_on_c, 0, 67, 0
2, 2520, Note_on_c, 0, 70, 0
2, 2520, Note_on_c, 0, 56, 0
2, 2520, Note_on_c, 0, 74, 0
2, 2520, Note_on_c, 0, 79, 0
2, 2520, Note_on_c, 0, 82, 0
2, 2520, Note_on_c, 0, 58, 0
2, 2520, Note_on_c, 0, 62, 0
2, 2520, Note_on_c, 0, 56, 48
2, 2520, Note_on_c, 0, 62, 48
2, 2520, Note_on_c, 0, 66, 48
2, 2520, Note_on_c, 0, 70, 48
2, 2520, Note_on_c, 0, 34, 52
2, 2520, Note_on_c, 0, 40, 52
2, 2520, Note_on_c, 0, 46, 52
2, 2880, Note_on_c, 0, 46, 0
2, 2880, Note_on_c, 0, 34, 0
2, 2880, Note_on_c, 0, 62, 0
2, 2880, Note_on_c, 0, 66, 0
2, 2880, Note_on_c, 0, 56, 0
2, 2880, Note_on_c, 0, 40, 0
2, 2880, Note_on_c, 0, 70, 0
2, 2880, Note_on_c, 0, 54, 63
2, 2880, Note_on_c, 0, 70, 125
2, 2880, Note_on_c, 0, 39, 63
2, 2880, Note_on_c, 0, 46, 63
2, 2924, Note_on_c, 0, 75, 125
2, 2967, Note_on_c, 0, 78, 125
2, 2969, Note_on_c, 0, 46, 0
2, 2969, Note_on_c, 0, 39, 0
2, 2969, Note_on_c, 0, 54, 0
2, 3011, Note_on_c, 0, 82, 125
2, 3060, Note_on_c, 0, 82, 0
2, 3060, Note_on_c, 0, 78, 0
2, 3060, Note_on_c, 0, 75, 0
2, 3060, Note_on_c, 0, 70, 0
2, 3060, Note_on_c, 0, 74, 84
2, 3060, Note_on_c, 0, 78, 84
2, 3060, Note_on_c, 0, 82, 84
2, 3060, Note_on_c, 0, 58, 81
2, 3060, Note_on_c, 0, 60, 81
2, 3060, Note_on_c, 0, 66, 81
2, 3149, Note_on_c, 0, 66, 0
2, 3149, Note_on_c, 0, 58, 0
2, 3149, Note_on_c, 0, 60, 0
2, 3150, Note_on_c, 0, 74, 0
2, 3150, Note_on_c, 0, 82, 0
2, 3150, Note_on_c, 0, 78, 0
2, 3150, Note_on_c, 0, 83, 83
2, 3150, Note_on_c, 0, 73, 83
2, 3240, Note_on_c, 0, 73, 0
2, 3240, Note_on_c, 0, 83, 0
2, 3240, Note_on_c, 0, 72, 79
2, 3240, Note_on_c, 0, 78, 79
2, 3240, Note_on_c, 0, 82, 79
2, 3240, Note_on_c, 0, 22, 54
2, 3240, Note_on_c, 0, 34, 54
2, 3329, Note_on_c, 0, 34, 0
2, 3329, Note_on_c, 0, 82, 0
2, 3329, Note_on_c, 0, 72, 0
2, 3329, Note_on_c, 0, 78, 0
2, 3329, Note_on_c, 0, 22, 0
2, 3420, Note_on_c, 0, 71, 73
2, 3420, Note_on_c, 0, 75, 73
2, 3420, Note_on_c, 0, 78, 73
2, 3420, Note_on_c, 0, 58, 79
2, 3420, Note_on_c, 0, 60, 79
2, 3420, Note_on_c, 0, 63, 79
2, 3509, Note_on_c, 0, 63, 0
2, 3509, Note_on_c, 0, 75, 0
2, 3509, Note_on_c, 0, 78, 0
2, 3509, Note_on_c, 0, 71, 0
2, 3509, Note_on_c, 0, 60, 0
2, 3509, Note_on_c, 0, 58, 0
2, 3600, Note_on_c, 0, 68, 85
2, 3600, Note_on_c, 0, 74, 85
2, 3600, Note_on_c, 0, 78, 85
2, 3600, Note_on_c, 0, 80, 85
2, 3600, Note_on_c, 0, 35, 55
2, 3600, Note_on_c, 0, 42, 55
2, 3600, Note_on_c, 0, 50, 55
2, 3689, Note_on_c, 0, 50, 0
2, 3689, Note_on_c, 0, 35, 0
2, 3689, Note_on_c, 0, 74, 0
2, 3689, Note_on_c, 0, 78, 0
2, 3689, Note_on_c, 0, 68, 0
2, 3689, Note_on_c, 0, 42, 0
2, 3689, Note_on_c, 0, 80, 0
2, 3780, Note_on_c, 0, 56, 81
2, 3780, Note_on_c, 0, 59, 81
2, 3780, Note_on_c, 0, 62, 81
2, 3780, Note_on_c, 0, 68, 81
2, 3780, Note_on_c, 0, 74, 88
2, 3780, Note_on_c, 0, 78, 88
2, 3780, Note_on_c, 0, 82, 88
2, 3869, Note_on_c, 0, 82, 0
2, 3869, Note_on_c, 0, 74, 0
2, 3869, Note_on_c, 0, 59, 0
2, 3869, Note_on_c, 0, 62, 0
2, 3869, Note_on_c, 0, 56, 0
2, 3869, Note_on_c, 0, 78, 0
2, 3869, Note_on_c, 0, 68, 0
2, 3960, Note_on_c, 0, 74, 93
2, 3960, Note_on_c, 0, 78, 93
2, 3960, Note_on_c, 0, 82, 93
2, 3960, Note_on_c, 0, 56, 70
2, 3960, Note_on_c, 0, 59, 70
2, 3960, Note_on_c, 0, 62, 70
2, 3960, Note_on_c, 0, 66, 70
2, 4277, Note_on_c, 0, 66, 0
2, 4277, Note_on_c, 0, 59, 0
2, 4277, Note_on_c, 0, 78, 0
2, 4277, Note_on_c, 0, 82, 0
2, 4277, Note_on_c, 0, 74, 0
2, 4277, Note_on_c, 0, 62, 0
2, 4277, Note_on_c, 0, 56, 0
2, 4320, Note_on_c, 0, 70, 111
2, 4320, Note_on_c, 0, 41, 53
2, 4364, Note_on_c, 0, 76, 111
2, 4364, Note_on_c, 0, 50, 53
2, 4407, Note_on_c, 0, 56, 53
2, 4407, Note_on_c, 0, 80, 111
2, 4451, Note_on_c, 0, 82, 111
2, 4500, Note_on_c, 0, 82, 0
2, 4500, Note_on_c, 0, 56, 0
2, 4500, Note_on_c, 0, 41, 0
2, 4500, Note_on_c, 0, 76, 0
2, 4500, Note_on_c, 0, 70, 0
2, 4500, Note_on_c, 0, 80, 0
2, 4500, Note_on_c, 0, 50, 0
2, 4500, Note_on_c, 0, 74, 81
2, 4500, Note_on_c, 0, 77, 81
2, 4500, Note_on_c, 0, 82, 81
2, 4500, Note_on_c, 0, 56, 72
2, 4500, Note_on_c, 0, 58, 72
2, 4500, Note_on_c, 0, 62, 72
2, 4589, Note_on_c, 0, 62, 0
2, 4589, Note_on_c, 0, 56, 0
2, 4589, Note_on_c, 0, 58, 0
2, 4590, Note_on_c, 0, 74, 0
2, 4590, Note_on_c, 0, 82, 0
2, 4590, Note_on_c, 0, 77, 0
2, 4590, Note_on_c, 0, 83, 87
2, 4590, Note_on_c, 0, 73, 87
2, 4680, Note_on_c, 0, 73, 0
2, 4680, Note_on_c, 0, 83, 0
2, 4680, Note_on_c, 0, 72, 87
2, 4680, Note_on_c, 0, 77, 87
2, 4680, Note_on_c, 0, 82, 87
2, 4680, Note_on_c, 0, 34, 54
2, 4680, Note_on_c, 0, 41, 54
2, 4769, Note_on_c, 0, 41, 0
2, 4769, Note_on_c, 0, 82, 0
2, 4769, Note_on_c, 0, 72, 0
2, 4769, Note_on_c, 0, 77, 0
2, 4769, Note_on_c, 0, 34, 0
2, 4860, Note_on_c, 0, 71, 70
2, 4860, Note_on_c, 0, 74, 70
2, 4860, Note_on_c, 0, 77, 70
2, 4860, Note_on_c, 0, 56, 75
2, 4860, Note_on_c, 0, 59, 75
2, 4860, Note_on_c, 0, 62, 75
2, 4949, Note_on_c, 0, 62, 0
2, 4949, Note_on_c, 0, 74, 0
2, 4949, Note_on_c, 0, 77, 0
2, 4949, Note_on_c, 0, 71, 0
2, 4949, Note_on_c, 0, 59, 0
2, 4949, Note_on_c, 0, 56, 0
2, 5040, Note_on_c, 0, 70, 86
2, 5040, Note_on_c, 0, 75, 86
2, 5040, Note_on_c, 0, 78, 86
2, 5040, Note_on_c, 0, 54, 62
2, 5040, Note_on_c, 0, 39, 62
2, 5040, Note_on_c, 0, 46, 62
2, 5129, Note_on_c, 0, 78, 0
2, 5129, Note_on_c, 0, 70, 0
2, 5129, Note_on_c, 0, 75, 0
2, 5220, Note_on_c, 0, 54, 0
2, 5220, Note_on_c, 0, 39, 0
2, 5220, Note_on_c, 0, 46, 0
2, 5220, Note_on_c, 0, 70, 93
2, 5220, Note_on_c, 0, 75, 93
2, 5220, Note_on_c, 0, 78, 93
2, 5220, Note_on_c, 0, 82, 93
2, 5220, Note_on_c, 0, 54, 75
2, 5220, Note_on_c, 0, 63, 75
2, 5220, Note_on_c, 0, 66, 75
2, 5309, Note_on_c, 0, 66, 0
2, 5309, Note_on_c, 0, 54, 0
2, 5309, Note_on_c, 0, 75, 0
2, 5309, Note_on_c, 0, 78, 0
2, 5309, Note_on_c, 0, 70, 0
2, 5309, Note_on_c, 0, 63, 0
2, 5309, Note_on_c, 0, 82, 0
2, 5400, Note_on_c, 0, 82, 97
2, 5400, Note_on_c, 0, 78, 97
2, 5400, Note_on_c, 0, 70, 66
2, 5400, Note_on_c, 0, 75, 97
2, 5400, Note_on_c, 0, 54, 69
2, 5400, Note_on_c, 0, 60, 69
2, 5400, Note_on_c, 0, 63, 69
2, 5444, Note_on_c, 0, 70, 0
2, 5490, Note_on_c, 0, 75, 0
2, 5490, Note_on_c, 0, 75, 83
2, 5490, Note_on_c, 0, 69, 83
2, 5534, Note_on_c, 0, 69, 0
2, 5534, Note_on_c, 0, 75, 0
2, 5580, Note_on_c, 0, 78, 0
2, 5580, Note_on_c, 0, 75, 85
2, 5580, Note_on_c, 0, 78, 85
2, 5624, Note_on_c, 0, 78, 0
2, 5624, Note_on_c, 0, 75, 0
2, 5670, Note_on_c, 0, 82, 0
2, 5670, Note_on_c, 0, 82, 91
2, 5670, Note_on_c, 0, 70, 91
2, 5714, Note_on_c, 0, 70, 0
2, 5714, Note_on_c, 0, 82, 0
2, 5717, Note_on_c, 0, 54, 0
2, 5717, Note_on_c, 0, 60, 0
2, 5717, Note_on_c, 0, 63, 0
2, 5760, Note_on_c, 0, 83, 89
2, 5760, Note_on_c, 0, 75, 87
2, 5760, Note_on_c, 0, 87, 87
2, 5760, Note_on_c, 0, 51, 68
2, 5760, Note_on_c, 0, 54, 68
2, 5850, Note_on_c, 0, 83, 0
2, 5850, Note_on_c, 0, 82, 81
2, 5918, Note_on_c, 0, 51, 0
2, 5918, Note_on_c, 0, 54, 0
2, 5940, Note_on_c, 0, 75, 0
2, 5940, Note_on_c, 0, 87, 0
2, 5940, Note_on_c, 0, 82, 0
2, 5940, Note_on_c, 0, 82, 84
2, 5940, Note_on_c, 0, 75, 77
2, 5940, Note_on_c, 0, 87, 77
2, 5940, Note_on_c, 0, 58, 72
2, 5940, Note_on_c, 0, 63, 72
2, 6029, Note_on_c, 0, 63, 0
2, 6029, Note_on_c, 0, 58, 0
2, 6030, Note_on_c, 0, 82, 0
2, 6030, Note_on_c, 0, 78, 76
2, 6120, Note_on_c, 0, 78, 0
2, 6120, Note_on_c, 0, 87, 0
2, 6120, Note_on_c, 0, 75, 0
2, 6120, Note_on_c, 0, 83, 85
2, 6120, Note_on_c, 0, 75, 77
2, 6120, Note_on_c, 0, 87, 77
2, 6120, Note_on_c, 0, 49, 68
2, 6120, Note_on_c, 0, 55, 68
2, 6210, Note_on_c, 0, 83, 0
2, 6210, Note_on_c, 0, 82, 81
2, 6278, Note_on_c, 0, 49, 0
2, 6278, Note_on_c, 0, 55, 0
2, 6300, Note_on_c, 0, 75, 0
2, 6300, Note_on_c, 0, 87, 0
2, 6300, Note_on_c, 0, 82, 0
2, 6300, Note_on_c, 0, 82, 82
2, 6300, Note_on_c, 0, 75, 81
2, 6300, Note_on_c, 0, 87, 81
2, 6300, Note_on_c, 0, 58, 68
2, 6300, Note_on_c, 0, 63, 68
2, 6389, Note_on_c, 0, 63, 0
2, 6389, Note_on_c, 0, 58, 0
2, 6390, Note_on_c, 0, 82, 0
2, 6390, Note_on_c, 0, 79, 78
2, 6480, Note_on_c, 0, 79, 0
2, 6480, Note_on_c, 0, 87, 0
2, 6480, Note_on_c, 0, 75, 0
2, 6480, Note_on_c, 0, 83, 94
2, 6480, Note_on_c, 0, 75, 73
2, 6480, Note_on_c, 0, 87, 73
2, 6480, Note_on_c, 0, 51, 68
2, 6480, Note_on_c, 0, 35, 68
2, 6570, Note_on_c, 0, 83, 0
2, 6570, Note_on_c, 0, 82, 92
2, 6570, Note_on_c, 0, 85, 92
2, 6638, Note_on_c, 0, 51, 0
2, 6638, Note_on_c, 0, 35, 0
2, 6660, Note_on_c, 0, 82, 0
2, 6660, Note_on_c, 0, 75, 0
2, 6660, Note_on_c, 0, 85, 0
2, 6660, Note_on_c, 0, 87, 0
2, 6660, Note_on_c, 0, 83, 77
2, 6660, Note_on_c, 0, 80, 77
2, 6660, Note_on_c, 0, 63, 76
2, 6660, Note_on_c, 0, 56, 76
2, 6660, Note_on_c, 0, 59, 76
2, 6750, Note_on_c, 0, 80, 0
2, 6750, Note_on_c, 0, 83, 0
2, 6750, Note_on_c, 0, 82, 78
2, 6750, Note_on_c, 0, 79, 78
2, 6840, Note_on_c, 0, 79, 0
2, 6840, Note_on_c, 0, 63, 0
2, 6840, Note_on_c, 0, 82, 0
2, 6840, Note_on_c, 0, 77, 66
2, 6840, Note_on_c, 0, 80, 81
2, 6840, Note_on_c, 0, 65, 65
2, 6930, Note_on_c, 0, 77, 0
2, 6930, Note_on_c, 0, 76, 71
2, 7020, Note_on_c, 0, 76, 0
2, 7020, Note_on_c, 0, 65, 0
2, 7020, Note_on_c, 0, 59, 0
2, 7020, Note_on_c, 0, 56, 0
2, 7020, Note_on_c, 0, 80, 0
2, 7020, Note_on_c, 0, 83, 85
2, 7020, Note_on_c, 0, 83, 84
2, 7020, Note_on_c, 0, 66, 63
2, 7022, Note_on_c, 0, 83, 0
2, 7022, Note_on_c, 0, 83, 0
2, 7110, Note_on_c, 0, 75, 58
2, 7200, Note_on_c, 0, 75, 0
2, 7200, Note_on_c, 0, 66, 0
2, 7200, Note_on_c, 0, 74, 78
2, 7200, Note_on_c, 0, 82, 78
2, 7200, Note_on_c, 0, 34, 78
2, 7200, Note_on_c, 0, 46, 78
2, 7289, Note_on_c, 0, 82, 0
2, 7289, Note_on_c, 0, 74, 0
2, 7380, Note_on_c, 0, 34, 0
2, 7380, Note_on_c, 0, 46, 0
2, 7380, Note_on_c, 0, 74, 83
2, 7380, Note_on_c, 0, 81, 83
2, 7380, Note_on_c, 0, 82, 83
2, 7380, Note_on_c, 0, 53, 74
2, 7380, Note_on_c, 0, 58, 74
2, 7380, Note_on_c, 0, 62, 74
2, 7469, Note_on_c, 0, 62, 0
2, 7469, Note_on_c, 0, 81, 0
2, 7469, Note_on_c, 0, 82, 0
2, 7469, Note_on_c, 0, 74, 0
2, 7469, Note_on_c, 0, 58, 0
2, 7469, Note_on_c, 0, 53, 0
2, 7560, Note_on_c, 0, 75, 83
2, 7560, Note_on_c, 0, 81, 83
2, 7560, Note_on_c, 0, 82, 83
2, 7560, Note_on_c, 0, 54, 64
2, 7560, Note_on_c, 0, 58, 64
2, 7560, Note_on_c, 0, 63, 64
2, 7649, Note_on_c, 0, 63, 0
2, 7649, Note_on_c, 0, 81, 0
2, 7649, Note_on_c, 0, 82, 0
2, 7649, Note_on_c, 0, 75, 0
2, 7649, Note_on_c, 0, 58, 0
2, 7649, Note_on_c, 0, 54, 0
2, 7740, Note_on_c, 0, 77, 85
2, 7740, Note_on_c, 0, 81, 85
2, 7740, Note_on_c, 0, 82, 85
2, 7740, Note_on_c, 0, 56, 66
2, 7740, Note_on_c, 0, 58, 66
2, 7740, Note_on_c, 0, 65, 66
2, 7829, Note_on_c, 0, 65, 0
2, 7829, Note_on_c, 0, 81, 0
2, 7829, Note_on_c, 0, 82, 0
2, 7829, Note_on_c, 0, 77, 0
2, 7829, Note_on_c, 0, 58, 0
2, 7829, Note_on_c, 0, 56, 0
2, 7920, Note_on_c, 0, 61, 60
2, 7920, Note_on_c, 0, 63, 60
2, 7920, Note_on_c, 0, 66, 60
2, 7920, Note_on_c, 0, 82, 83
2, 8009, Note_on_c, 0, 66, 0
2, 8009, Note_on_c, 0, 61, 0
2, 8009, Note_on_c, 0, 63, 0
2, 8010, Note_on_c, 0, 82, 0
2, 8010, Note_on_c, 0, 80, 80
2, 8100, Note_on_c, 0, 80, 0
2, 8100, Note_on_c, 0, 59, 54
2, 8100, Note_on_c, 0, 65, 54
2, 8100, Note_on_c, 0, 68, 54
2, 8100, Note_on_c, 0, 78, 77
2, 8189, Note_on_c, 0, 68, 0
2, 8189, Note_on_c, 0, 59, 0
2, 8189, Note_on_c, 0, 65, 0
2, 8190, Note_on_c, 0, 78, 0
2, 8190, Note_on_c, 0, 77, 74
2, 8280, Note_on_c, 0, 77, 0
2, 8280, Note_on_c, 0, 70, 64
2, 8280, Note_on_c, 0, 75, 66
2, 8280, Note_on_c, 0, 61, 64
2, 8280, Note_on_c, 0, 66, 64
2, 8370, Note_on_c, 0, 75, 0
2, 8370, Note_on_c, 0, 70, 0
2, 8370, Note_on_c, 0, 70, 65
2, 8438, Note_on_c, 0, 70, 0
2, 8438, Note_on_c, 0, 61, 0
2, 8438, Note_on_c, 0, 66, 0
2, 8460, Note_on_c, 0, 63, 78
2, 8460, Note_on_c, 0, 69, 78
2, 8460, Note_on_c, 0, 75, 78
2, 8460, Note_on_c, 0, 47, 55
2, 8460, Note_on_c, 0, 51, 55
2, 8460, Note_on_c, 0, 54, 55
2, 8460, Note_on_c, 0, 57, 55
2, 8550, Note_on_c, 0, 75, 0
2, 8550, Note_on_c, 0, 63, 0
2, 8550, Note_on_c, 0, 69, 0
2, 8550, Note_on_c, 0, 66, 82
2, 8550, Note_on_c, 0, 78, 82
2, 8618, Note_on_c, 0, 51, 0
2, 8618, Note_on_c, 0, 57, 0
2, 8618, Note_on_c, 0, 47, 0
2, 8618, Note_on_c, 0, 54, 0
2, 8640, Note_on_c, 0, 78, 0
2, 8640, Note_on_c, 0, 66, 0
2, 8640, Control_c, 0, 64, 127
2, 8640, Note_on_c, 0, 70, 79
2, 8640, Note_on_c, 0, 74, 79
2, 8640, Note_on_c, 0, 78, 79
2, 8640, Note_on_c, 0, 82, 79
2, 8640, Note_on_c, 0, 27, 45
2, 8640, Note_on_c, 0, 39, 45
2, 8730, Note_on_c, 0, 39, 0
2, 8730, Note_on_c, 0, 27, 0
2, 8730, Note_on_c, 0, 46, 43
2, 8820, Note_on_c, 0, 46, 0
2, 8820, Note_on_c, 0, 82, 0
2, 8820, Note_on_c, 0, 70, 0
2, 8820, Note_on_c, 0, 74, 0
2, 8820, Note_on_c, 0, 78, 0
2, 8820, Note_on_c, 0, 73, 72
2, 8820, Note_on_c, 0, 78, 72
2, 8820, Note_on_c, 0, 82, 72
2, 8820, Note_on_c, 0, 61, 60
2, 8910, Note_on_c, 0, 61, 0
2, 8910, Note_on_c, 0, 73, 0
2, 8910, Note_on_c, 0, 78, 0
2, 8910, Note_on_c, 0, 82, 0
2, 8910, Note_on_c, 0, 83, 75
2, 8910, Note_on_c, 0, 46, 46
2, 8910, Note_on_c, 0, 54, 46
2, 9000, Note_on_c, 0, 54, 0
2, 9000, Note_on_c, 0, 46, 0
2, 9000, Note_on_c, 0, 83, 0
2, 9000, Note_on_c, 0, 78, 64
2, 9000, Note_on_c, 0, 82, 64
2, 9000, Note_on_c, 0, 62, 59
2, 9000, Note_on_c, 0, 72, 64
2, 9089, Note_on_c, 0, 72, 0
2, 9089, Note_on_c, 0, 78, 0
2, 9089, Note_on_c, 0, 82, 0
2, 9090, Note_on_c, 0, 62, 0
2, 9090, Control_c, 0, 64, 0
2, 9090, Note_on_c, 0, 46, 44
2, 9090, Note_on_c, 0, 54, 44
2, 9180, Note_on_c, 0, 54, 0
2, 9180, Note_on_c, 0, 46, 0
2, 9180, Note_on_c, 0, 71, 62
2, 9180, Note_on_c, 0, 75, 62
2, 9180, Note_on_c, 0, 78, 62
2, 9180, Note_on_c, 0, 63, 59
2, 9269, Note_on_c, 0, 78, 0
2, 9269, Note_on_c, 0, 71, 0
2, 9269, Note_on_c, 0, 75, 0
2, 9270, Note_on_c, 0, 63, 0
2, 9270, Note_on_c, 0, 46, 46
2, 9270, Note_on_c, 0, 54, 46
2, 9360, Note_on_c, 0, 54, 0
2, 9360, Note_on_c, 0, 46, 0
2, 9360, Note_on_c, 0, 78, 70
2, 9360, Note_on_c, 0, 80, 70
2, 9360, Note_on_c, 0, 68, 60
2, 9360, Note_on_c, 0, 74, 60
2, 9360, Note_on_c, 0, 28, 48
2, 9360, Note_on_c, 0, 40, 48
2, 9449, Note_on_c, 0, 80, 0
2, 9449, Note_on_c, 0, 78, 0
2, 9450, Note_on_c, 0, 28, 0
2, 9450, Note_on_c, 0, 40, 0
2, 9450, Note_on_c, 0, 47, 44
2, 9540, Note_on_c, 0, 47, 0
2, 9540, Note_on_c, 0, 74, 0
2, 9540, Note_on_c, 0, 68, 0
2, 9540, Note_on_c, 0, 82, 75
2, 9540, Note_on_c, 0, 70, 60
2, 9540, Note_on_c, 0, 73, 60
2, 9540, Note_on_c, 0, 56, 57
2, 9630, Note_on_c, 0, 56, 0
2, 9630, Note_on_c, 0, 73, 0
2, 9630, Note_on_c, 0, 70, 0
2, 9630, Note_on_c, 0, 62, 56
2, 9630, Note_on_c, 0, 71, 57
2, 9720, Note_on_c, 0, 71, 0
2, 9720, Note_on_c, 0, 62, 0
2, 9720, Note_on_c, 0, 82, 0
2, 9720, Note_on_c, 0, 82, 81
2, 9720, Note_on_c, 0, 59, 54
2, 9720, Note_on_c, 0, 62, 54
2, 9720, Note_on_c, 0, 66, 54
2, 9720, Note_on_c, 0, 70, 76
2, 9720, Note_on_c, 0, 74, 76
2, 9720, Note_on_c, 0, 78, 76
2, 9810, Note_on_c, 0, 78, 0
2, 9810, Note_on_c, 0, 70, 0
2, 9810, Note_on_c, 0, 74, 0
2, 9810, Note_on_c, 0, 71, 54
2, 9900, Note_on_c, 0, 71, 0
2, 9900, Note_on_c, 0, 70, 72
2, 9900, Note_on_c, 0, 74, 72
2, 9900, Note_on_c, 0, 78, 72
2, 9990, Note_on_c, 0, 78, 0
2, 9990, Note_on_c, 0, 70, 0
2, 9990, Note_on_c, 0, 74, 0
2, 9990, Note_on_c, 0, 68, 51
2, 10037, Note_on_c, 0, 82, 0
2, 10080, Note_on_c, 0, 66, 0
2, 10080, Note_on_c, 0, 59, 0
2, 10080, Note_on_c, 0, 62, 0
2, 10080, Note_on_c, 0, 68, 0
2, 10080, Note_on_c, 0, 71, 98
2, 10080, Note_on_c, 0, 75, 98
2, 10080, Note_on_c, 0, 82, 98
2, 10080, Note_on_c, 0, 25, 40
2, 10080, Note_on_c, 0, 32, 40
2, 10080, Note_on_c, 0, 37, 40
2, 10169, Note_on_c, 0, 37, 0
2, 10169, Note_on_c, 0, 75, 0
2, 10169, Note_on_c, 0, 82, 0
2, 10169, Note_on_c, 0, 71, 0
2, 10169, Note_on_c, 0, 32, 0
2, 10169, Note_on_c, 0, 25, 0
2, 10260, Note_on_c, 0, 56, 58
2, 10260, Note_on_c, 0, 59, 58
2, 10260, Note_on_c, 0, 63, 58
2, 10260, Note_on_c, 0, 82, 72
2, 10349, Note_on_c, 0, 63, 0
2, 10349, Note_on_c, 0, 56, 0
2, 10349, Note_on_c, 0, 59, 0
2, 10350, Note_on_c, 0, 82, 0
2, 10350, Note_on_c, 0, 73, 76
2, 10350, Note_on_c, 0, 83, 76
2, 10440, Note_on_c, 0, 83, 0
2, 10440, Note_on_c, 0, 73, 0
2, 10440, Note_on_c, 0, 34, 44
2, 10440, Note_on_c, 0, 41, 44
2, 10440, Note_on_c, 0, 74, 66
2, 10440, Note_on_c, 0, 77, 66
2, 10440, Note_on_c, 0, 82, 66
2, 10529, Note_on_c, 0, 82, 0
2, 10529, Note_on_c, 0, 74, 0
2, 10529, Note_on_c, 0, 34, 0
2, 10529, Note_on_c, 0, 41, 0
2, 10529, Note_on_c, 0, 77, 0
2, 10620, Note_on_c, 0, 56, 67
2, 10620, Note_on_c, 0, 58, 67
2, 10620, Note_on_c, 0, 62, 67
2, 10620, Note_on_c, 0, 68, 60
2, 10620, Note_on_c, 0, 74, 60
2, 10620, Note_on_c, 0, 77, 60
2, 10709, Note_on_c, 0, 77, 0
2, 10709, Note_on_c, 0, 58, 0
2, 10709, Note_on_c, 0, 62, 0
2, 10709, Note_on_c, 0, 56, 0
2, 10709, Note_on_c, 0, 74, 0
2, 10709, Note_on_c, 0, 68, 0
2, 10800, Note_on_c, 0, 70, 72
2, 10800, Note_on_c, 0, 75, 72
2, 10800, Note_on_c, 0, 78, 72
2, 10800, Note_on_c, 0, 54, 47
2, 10800, Note_on_c, 0, 39, 47
2, 10800, Note_on_c, 0, 46, 47
2, 10889, Note_on_c, 0, 78, 0
2, 10889, Note_on_c, 0, 70, 0
2, 10889, Note_on_c, 0, 75, 0
2, 10980, Note_on_c, 0, 54, 0
2, 10980, Note_on_c, 0, 39, 0
2, 10980, Note_on_c, 0, 46, 0
2, 10980, Note_on_c, 0, 70, 81
2, 10980, Note_on_c, 0, 75, 81
2, 10980, Note_on_c, 0, 78, 81
2, 10980, Note_on_c, 0, 82, 81
2, 10980, Note_on_c, 0, 54, 65
2, 10980, Note_on_c, 0, 63, 65
2, 10980, Note_on_c, 0, 66, 65
2, 11069, Note_on_c, 0, 66, 0
2, 11069, Note_on_c, 0, 54, 0
2, 11069, Note_on_c, 0, 75, 0
2, 11069, Note_on_c, 0, 78, 0
2, 11069, Note_on_c, 0, 70, 0
2, 11069, Note_on_c, 0, 63, 0
2, 11069, Note_on_c, 0, 82, 0
2, 11160, Note_on_c, 0, 82, 86
2, 11160, Note_on_c, 0, 78, 86
2, 11160, Note_on_c, 0, 70, 63
2, 11160, Note_on_c, 0, 75, 86
2, 11160, Note_on_c, 0, 54, 56
2, 11160, Note_on_c, 0, 60, 56
2, 11160, Note_on_c, 0, 63, 56
2, 11204, Note_on_c, 0, 70, 0
2, 11250, Note_on_c, 0, 75, 0
2, 11250, Note_on_c, 0, 75, 70
2, 11250, Note_on_c, 0, 69, 70
2, 11294, Note_on_c, 0, 69, 0
2, 11294, Note_on_c, 0, 75, 0
2, 11340, Note_on_c, 0, 78, 0
2, 11340, Note_on_c, 0, 75, 70
2, 11340, Note_on_c, 0, 78, 70
2, 11384, Note_on_c, 0, 78, 0
2, 11384, Note_on_c, 0, 75, 0
2, 11430, Note_on_c, 0, 82, 0
2, 11430, Note_on_c, 0, 82, 70
2, 11430, Note_on_c, 0, 70, 70
2, 11474, Note_on_c, 0, 70, 0
2, 11474, Note_on_c, 0, 82, 0
2, 11477, Note_on_c, 0, 54, 0
2, 11477, Note_on_c, 0, 60, 0
2, 11477, Note_on_c, 0, 63, 0
2, 11520, Note_on_c, 0, 83, 72
2, 11520, Note_on_c, 0, 75, 73
2, 11520, Note_on_c, 0, 87, 73
2, 11520, Note_on_c, 0, 51, 55
2, 11520, Note_on_c, 0, 54, 55
2, 11610, Note_on_c, 0, 83, 0
2, 11610, Note_on_c, 0, 82, 68
2, 11678, Note_on_c, 0, 51, 0
2, 11678, Note_on_c, 0, 54, 0
2, 11700, Note_on_c, 0, 75, 0
2, 11700, Note_on_c, 0, 87, 0
2, 11700, Note_on_c, 0, 82, 0
2, 11700, Note_on_c, 0, 82, 63
2, 11700, Note_on_c, 0, 75, 66
2, 11700, Note_on_c, 0, 87, 66
2, 11700, Note_on_c, 0, 58, 54
2, 11700, Note_on_c, 0, 63, 54
2, 11789, Note_on_c, 0, 63, 0
2, 11789, Note_on_c, 0, 58, 0
2, 11790, Note_on_c, 0, 82, 0
2, 11790, Note_on_c, 0, 78, 63
2, 11880, Note_on_c, 0, 78, 0
2, 11880, Note_on_c, 0, 87, 0
2, 11880, Note_on_c, 0, 75, 0
2, 11880, Note_on_c, 0, 83, 75
2, 11880, Note_on_c, 0, 75, 58
2, 11880, Note_on_c, 0, 87, 58
2, 11880, Note_on_c, 0, 49, 57
2, 11880, Note_on_c, 0, 55, 57
2, 11970, Note_on_c, 0, 83, 0
2, 11970, Note_on_c, 0, 82, 68
2, 12038, Note_on_c, 0, 49, 0
2, 12038, Note_on_c, 0, 55, 0
2, 12060, Note_on_c, 0, 75, 0
2, 12060, Note_on_c, 0, 87, 0
2, 12060, Note_on_c, 0, 82, 0
2, 12060, Note_on_c, 0, 82, 72
2, 12060, Note_on_c, 0, 75, 63
2, 12060, Note_on_c, 0, 87, 63
2, 12060, Note_on_c, 0, 58, 62
2, 12060, Note_on_c, 0, 63, 62
2, 12149, Note_on_c, 0, 63, 0
2, 12149, Note_on_c, 0, 58, 0
2, 12150, Note_on_c, 0, 82, 0
2, 12150, Note_on_c, 0, 79, 65
2, 12240, Note_on_c, 0, 79, 0
2, 12240, Note_on_c, 0, 87, 0
2, 12240, Note_on_c, 0, 75, 0
2, 12240, Note_on_c, 0, 83, 76
2, 12240, Note_on_c, 0, 75, 64
2, 12240, Note_on_c, 0, 87, 64
2, 12240, Note_on_c, 0, 51, 56
2, 12240, Note_on_c, 0, 35, 56
2, 12330, Note_on_c, 0, 83, 0
2, 12330, Note_on_c, 0, 82, 79
2, 12330, Note_on_c, 0, 85, 79
2, 12398, Note_on_c, 0, 51, 0
2, 12398, Note_on_c, 0, 35, 0
2, 12420, Note_on_c, 0, 82, 0
2, 12420, Note_on_c, 0, 75, 0
2, 12420, Note_on_c, 0, 85, 0
2, 12420, Note_on_c, 0, 87, 0
2, 12420, Note_on_c, 0, 83, 66
2, 12420, Note_on_c, 0, 80, 66
2, 12420, Note_on_c, 0, 63, 58
2, 12420, Note_on_c, 0, 56, 58
2, 12420, Note_on_c, 0, 59, 58
2, 12510, Note_on_c, 0, 80, 0
2, 12510, Note_on_c, 0, 83, 0
2, 12510, Note_on_c, 0, 82, 61
2, 12510, Note_on_c, 0, 79, 61
2, 12600, Note_on_c, 0, 79, 0
2, 12600, Note_on_c, 0, 63, 0
2, 12600, Note_on_c, 0, 82, 0
2, 12600, Note_on_c, 0, 77, 57
2, 12600, Note_on_c, 0, 80, 62
2, 12600, Note_on_c, 0, 65, 55
2, 12690, Note_on_c, 0, 77, 0
2, 12690, Note_on_c, 0, 76, 55
2, 12780, Note_on_c, 0, 76, 0
2, 12780, Note_on_c, 0, 65, 0
2, 12780, Note_on_c, 0, 59, 0
2, 12780, Note_on_c, 0, 56, 0
2, 12780, Note_on_c, 0, 80, 0
2, 12780, Note_on_c, 0, 83, 79
2, 12780, Note_on_c, 0, 83, 73
2, 12780, Note_on_c, 0, 66, 55
2, 12782, Note_on_c, 0, 83, 0
2, 12782, Note_on_c, 0, 83, 0
2, 12870, Note_on_c, 0, 75, 54
2, 12960, Note_on_c, 0, 75, 0
2, 12960, Note_on_c, 0, 66, 0
2, 12960, Note_on_c, 0, 74, 69
2, 12960, Note_on_c, 0, 82, 69
2, 12960, Note_on_c, 0, 34, 41
2, 12960, Note_on_c, 0, 41, 41
2, 12960, Note_on_c, 0, 46, 41
2, 13004, Note_on_c, 0, 82, 0
2, 13004, Note_on_c, 0, 74, 0
2, 13050, Note_on_c, 0, 69, 62
2, 13050, Note_on_c, 0, 81, 62
2, 13140, Note_on_c, 0, 81, 0
2, 13140, Note_on_c, 0, 41, 0
2, 13140, Note_on_c, 0, 46, 0
2, 13140, Note_on_c, 0, 34, 0
2, 13140, Note_on_c, 0, 69, 0
2, 13140, Note_on_c, 0, 56, 61
2, 13140, Note_on_c, 0, 58, 61
2, 13140, Note_on_c, 0, 65, 61
2, 13140, Note_on_c, 0, 70, 77
2, 13140, Note_on_c, 0, 82, 77
2, 13230, Note_on_c, 0, 82, 0
2, 13230, Note_on_c, 0, 65, 0
2, 13230, Note_on_c, 0, 56, 0
2, 13230, Note_on_c, 0, 58, 0
2, 13230, Note_on_c, 0, 70, 0
2, 13230, Note_on_c, 0, 69, 64
2, 13230, Note_on_c, 0, 81, 64
2, 13230, Note_on_c, 0, 56, 52
2, 13230, Note_on_c, 0, 58, 52
2, 13230, Note_on_c, 0, 65, 52
2, 13320, Note_on_c, 0, 65, 0
2, 13320, Note_on_c, 0, 56, 0
2, 13320, Note_on_c, 0, 69, 0
2, 13320, Note_on_c, 0, 81, 0
2, 13320, Note_on_c, 0, 58, 0
2, 13320, Note_on_c, 0, 70, 74
2, 13320, Note_on_c, 0, 82, 74
2, 13320, Note_on_c, 0, 56, 49
2, 13320, Note_on_c, 0, 58, 49
2, 13320, Note_on_c, 0, 66, 49
2, 13410, Note_on_c, 0, 82, 0
2, 13410, Note_on_c, 0, 70, 0
2, 13410, Note_on_c, 0, 71, 74
2, 13410, Note_on_c, 0, 83, 74
2, 13500, Note_on_c, 0, 83, 0
2, 13500, Note_on_c, 0, 58, 0
2, 13500, Note_on_c, 0, 66, 0
2, 13500, Note_on_c, 0, 56, 0
2, 13500, Note_on_c, 0, 71, 0
2, 13500, Note_on_c, 0, 72, 75
2, 13500, Note_on_c, 0, 84, 75
2, 13500, Note_on_c, 0, 46, 44
2, 13500, Note_on_c, 0, 58, 44
2, 13590, Note_on_c, 0, 84, 0
2, 13590, Note_on_c, 0, 72, 0
2, 13590, Note_on_c, 0, 74, 78
2, 13590, Note_on_c, 0, 86, 78
2, 13680, Note_on_c, 0, 86, 0
2, 13680, Note_on_c, 0, 58, 0
2, 13680, Note_on_c, 0, 46, 0
2, 13680, Note_on_c, 0, 74, 0
2, 13680, Note_on_c, 0, 75, 98
2, 13680, Note_on_c, 0, 79, 98
2, 13680, Note_on_c, 0, 82, 98
2, 13680, Note_on_c, 0, 87, 98
2, 13680, Note_on_c, 0, 39, 71
2, 13680, Note_on_c, 0, 46, 71
2, 13680, Note_on_c, 0, 51, 71
2, 13836, Note_on_c, 0, 51, 0
2, 13836, Note_on_c, 0, 39, 0
2, 13836, Note_on_c, 0, 79, 0
2, 13836, Note_on_c, 0, 82, 0
2, 13836, Note_on_c, 0, 75, 0
2, 13836, Note_on_c, 0, 46, 0
2, 13836, Note_on_c, 0, 87, 0
2, 13836, Note_on_c, 0, 33, 43
2, 13836, Note_on_c, 0, 45, 58
2, 13860, Note_on_c, 0, 45, 0
2, 13860, Note_on_c, 0, 33, 0
2, 13860, Note_on_c, 0, 34, 47
2, 13860, Note_on_c, 0, 46, 71
2, 13949, Note_on_c, 0, 46, 0
2, 13949, Note_on_c, 0, 34, 0
2, 14040, Note_on_c, 0, 26, 52
2, 14040, Note_on_c, 0, 38, 52
2, 14400, Note_on_c, 0, 38, 0
2, 14400, Note_on_c, 0, 26, 0
2, 14400, Note_on_c, 0, 82, 52
2, 14400, Note_on_c, 0, 91, 52
2, 14400, Note_on_c, 0, 27, 66
2, 14400, Note_on_c, 0, 34, 66
2, 14400, Note_on_c, 0, 39, 66
2, 14444, Note_on_c, 0, 91, 0
2, 14444, Note_on_c, 0, 82, 0
2, 14489, Note_on_c, 0, 34, 0
2, 14489, Note_on_c, 0, 27, 0
2, 14489, Note_on_c, 0, 39, 0
2, 14490, Note_on_c, 0, 81, 54
2, 14490, Note_on_c, 0, 89, 54
2, 14534, Note_on_c, 0, 89, 0
2, 14534, Note_on_c, 0, 81, 0
2, 14580, Note_on_c, 0, 55, 75
2, 14580, Note_on_c, 0, 58, 75
2, 14580, Note_on_c, 0, 63, 75
2, 14580, Note_on_c, 0, 67, 75
2, 14580, Note_on_c, 0, 82, 55
2, 14580, Note_on_c, 0, 87, 55
2, 14624, Note_on_c, 0, 87, 0
2, 14624, Note_on_c, 0, 82, 0
2, 14669, Note_on_c, 0, 63, 0
2, 14669, Note_on_c, 0, 55, 0
2, 14669, Note_on_c, 0, 58, 0
2, 14669, Note_on_c, 0, 67, 0
2, 14670, Note_on_c, 0, 78, 58
2, 14670, Note_on_c, 0, 86, 58
2, 14714, Note_on_c, 0, 86, 0
2, 14714, Note_on_c, 0, 78, 0
2, 14760, Note_on_c, 0, 34, 57
2, 14760, Note_on_c, 0, 39, 57
2, 14760, Note_on_c, 0, 46, 57
2, 14760, Note_on_c, 0, 79, 56
2, 14760, Note_on_c, 0, 84, 56
2, 14804, Note_on_c, 0, 84, 0
2, 14804, Note_on_c, 0, 79, 0
2, 14849, Note_on_c, 0, 34, 0
2, 14849, Note_on_c, 0, 39, 0
2, 14849, Note_on_c, 0, 46, 0
2, 14850, Note_on_c, 0, 74, 59
2, 14850, Note_on_c, 0, 82, 59
2, 14894, Note_on_c, 0, 82, 0
2, 14894, Note_on_c, 0, 74, 0
2, 14940, Note_on_c, 0, 55, 77
2, 14940, Note_on_c, 0, 58, 77
2, 14940, Note_on_c, 0, 63, 77
2, 14940, Note_on_c, 0, 67, 77
2, 14940, Note_on_c, 0, 75, 53
2, 14940, Note_on_c, 0, 80, 53
2, 14984, Note_on_c, 0, 80, 0
2, 14984, Note_on_c, 0, 75, 0
2, 15029, Note_on_c, 0, 63, 0
2, 15029, Note_on_c, 0, 55, 0
2, 15029, Note_on_c, 0, 58, 0
2, 15029, Note_on_c, 0, 67, 0
2, 15030, Note_on_c, 0, 70, 58
2, 15030, Note_on_c, 0, 79, 58
2, 15074, Note_on_c, 0, 79, 0
2, 15074, Note_on_c, 0, 70, 0
2, 15120, Note_on_c, 0, 74, 57
2, 15120, Note_on_c, 0, 78, 57
2, 15120, Note_on_c, 0, 39, 56
2, 15120, Note_on_c, 0, 46, 56
2, 15120, Note_on_c, 0, 51, 56
2, 15164, Note_on_c, 0, 78, 0
2, 15164, Note_on_c, 0, 74, 0
2, 15209, Note_on_c, 0, 46, 0
2, 15209, Note_on_c, 0, 39, 0
2, 15209, Note_on_c, 0, 51, 0
2, 15210, Note_on_c, 0, 75, 59
2, 15210, Note_on_c, 0, 79, 59
2, 15254, Note_on_c, 0, 79, 0
2, 15254, Note_on_c, 0, 75, 0
2, 15300, Note_on_c, 0, 67, 75
2, 15300, Note_on_c, 0, 74, 60
2, 15300, Note_on_c, 0, 78, 60
2, 15300, Note_on_c, 0, 55, 75
2, 15300, Note_on_c, 0, 58, 75
2, 15300, Note_on_c, 0, 63, 75
2, 15344, Note_on_c, 0, 78, 0
2, 15344, Note_on_c, 0, 74, 0
2, 15389, Note_on_c, 0, 55, 0
2, 15389, Note_on_c, 0, 67, 0
2, 15389, Note_on_c, 0, 63, 0
2, 15389, Note_on_c, 0, 58, 0
2, 15390, Note_on_c, 0, 75, 64
2, 15390, Note_on_c, 0, 79, 64
2, 15434, Note_on_c, 0, 79, 0
2, 15434, Note_on_c, 0, 75, 0
2, 15480, Note_on_c, 0, 76, 57
2, 15480, Note_on_c, 0, 78, 57
2, 15480, Note_on_c, 0, 34, 59
2, 15480, Note_on_c, 0, 39, 59
2, 15480, Note_on_c, 0, 46, 59
2, 15524, Note_on_c, 0, 78, 0
2, 15524, Note_on_c, 0, 76, 0
2, 15569, Note_on_c, 0, 39, 0
2, 15569, Note_on_c, 0, 34, 0
2, 15569, Note_on_c, 0, 46, 0
2, 15570, Note_on_c, 0, 75, 62
2, 15570, Note_on_c, 0, 79, 62
2, 15614, Note_on_c, 0, 79, 0
2, 15614, Note_on_c, 0, 75, 0
2, 15660, Note_on_c, 0, 77, 64
2, 15660, Note_on_c, 0, 80, 64
2, 15660, Note_on_c, 0, 55, 76
2, 15660, Note_on_c, 0, 58, 76
2, 15660, Note_on_c, 0, 63, 76
2, 15660, Note_on_c, 0, 67, 76
2, 15704, Note_on_c, 0, 80, 0
2, 15704, Note_on_c, 0, 77, 0
2, 15749, Note_on_c, 0, 63, 0
2, 15749, Note_on_c, 0, 58, 0
2, 15749, Note_on_c, 0, 67, 0
2, 15749, Note_on_c, 0, 55, 0
2, 15750, Note_on_c, 0, 75, 60
2, 15750, Note_on_c, 0, 82, 60
2, 15794, Note_on_c, 0, 82, 0
2, 15794, Note_on_c, 0, 75, 0
2, 15840, Note_on_c, 0, 79, 63
2, 15840, Note_on_c, 0, 84, 63
2, 15840, Note_on_c, 0, 39, 56
2, 15840, Note_on_c, 0, 46, 56
2, 15840, Note_on_c, 0, 51, 56
2, 15884, Note_on_c, 0, 84, 0
2, 15884, Note_on_c, 0, 79, 0
2, 15929, Note_on_c, 0, 46, 0
2, 15929, Note_on_c, 0, 39, 0
2, 15929, Note_on_c, 0, 51, 0
2, 15930, Note_on_c, 0, 74, 62
2, 15930, Note_on_c, 0, 82, 62
2, 15974, Note_on_c, 0, 82, 0
2, 15974, Note_on_c, 0, 74, 0
2, 16020, Note_on_c, 0, 55, 76
2, 16020, Note_on_c, 0, 58, 76
2, 16020, Note_on_c, 0, 63, 76
2, 16020, Note_on_c, 0, 67, 76
2, 16020, Note_on_c, 0, 75, 56
2, 16020, Note_on_c, 0, 80, 56
2, 16064, Note_on_c, 0, 80, 0
2, 16064, Note_on_c, 0, 75, 0
2, 16109, Note_on_c, 0, 63, 0
2, 16109, Note_on_c, 0, 55, 0
2, 16109, Note_on_c, 0, 58, 0
2, 16109, Note_on_c, 0, 67, 0
2, 16110, Note_on_c, 0, 70, 58
2, 16110, Note_on_c, 0, 79, 58
2, 16154, Note_on_c, 0, 79, 0
2, 16154, Note_on_c, 0, 70, 0
2, 16200, Note_on_c, 0, 74, 63
2, 16200, Note_on_c, 0, 80, 63
2, 16200, Note_on_c, 0, 34, 59
2, 16200, Note_on_c, 0, 39, 59
2, 16200, Note_on_c, 0, 46, 59
2, 16244, Note_on_c, 0, 80, 0
2, 16244, Note_on_c, 0, 74, 0
2, 16289, Note_on_c, 0, 39, 0
2, 16289, Note_on_c, 0, 34, 0
2, 16289, Note_on_c, 0, 46, 0
2, 16290, Note_on_c, 0, 70, 59
2, 16290, Note_on_c, 0, 79, 59
2, 16334, Note_on_c, 0, 79, 0
2, 16334, Note_on_c, 0, 70, 0
2, 16380, Note_on_c, 0, 67, 72
2, 16380, Note_on_c, 0, 71, 54
2, 16380, Note_on_c, 0, 77, 54
2, 16380, Note_on_c, 0, 55, 72
2, 16380, Note_on_c, 0, 59, 72
2, 16380, Note_on_c, 0, 63, 72
2, 16424, Note_on_c, 0, 77, 0
2, 16424, Note_on_c, 0, 71, 0
2, 16457, Note_on_c, 0, 55, 0
2, 16457, Note_on_c, 0, 67, 0
2, 16457, Note_on_c, 0, 63, 0
2, 16457, Note_on_c, 0, 59, 0
2, 16470, Note_on_c, 0, 66, 62
2, 16470, Note_on_c, 0, 75, 62
2, 16514, Note_on_c, 0, 75, 0
2, 16514, Note_on_c, 0, 66, 0
2, 16536, Note_on_c, 0, 45, 55
2, 16560, Note_on_c, 0, 45, 0
2, 16560, Note_on_c, 0, 46, 90
2, 16560, Note_on_c, 0, 56, 90
2, 16560, Note_on_c, 0, 70, 56
2, 16560, Note_on_c, 0, 74, 56
2, 16604, Note_on_c, 0, 74, 0
2, 16604, Note_on_c, 0, 70, 0
2, 16649, Note_on_c, 0, 56, 0
2, 16649, Note_on_c, 0, 46, 0
2, 16650, Note_on_c, 0, 68, 61
2, 16650, Note_on_c, 0, 75, 61
2, 16694, Note_on_c, 0, 75, 0
2, 16694, Note_on_c, 0, 68, 0
2, 16740, Note_on_c, 0, 74, 61
2, 16740, Note_on_c, 0, 77, 61
2, 16740, Note_on_c, 0, 56, 73
2, 16740, Note_on_c, 0, 62, 73
2, 16740, Note_on_c, 0, 65, 73
2, 16784, Note_on_c, 0, 77, 0
2, 16784, Note_on_c, 0, 74, 0
2, 16829, Note_on_c, 0, 62, 0
2, 16829, Note_on_c, 0, 56, 0
2, 16829, Note_on_c, 0, 65, 0
2, 16830, Note_on_c, 0, 72, 59
2, 16830, Note_on_c, 0, 79, 59
2, 16874, Note_on_c, 0, 79, 0
2, 16874, Note_on_c, 0, 72, 0
2, 16920, Note_on_c, 0, 77, 65
2, 16920, Note_on_c, 0, 80, 65
2, 16920, Note_on_c, 0, 34, 54
2, 16920, Note_on_c, 0, 41, 54
2, 16920, Note_on_c, 0, 46, 54
2, 16964, Note_on_c, 0, 80, 0
2, 16964, Note_on_c, 0, 77, 0
2, 17009, Note_on_c, 0, 41, 0
2, 17009, Note_on_c, 0, 34, 0
2, 17009, Note_on_c, 0, 46, 0
2, 17010, Note_on_c, 0, 75, 66
2, 17010, Note_on_c, 0, 82, 66
2, 17054, Note_on_c, 0, 82, 0
2, 17054, Note_on_c, 0, 75, 0
2, 17100, Note_on_c, 0, 80, 66
2, 17100, Note_on_c, 0, 84, 66
2, 17100, Note_on_c, 0, 56, 75
2, 17100, Note_on_c, 0, 62, 75
2, 17100, Note_on_c, 0, 65, 75
2, 17144, Note_on_c, 0, 84, 0
2, 17144, Note_on_c, 0, 80, 0
2, 17177, Note_on_c, 0, 62, 0
2, 17177, Note_on_c, 0, 56, 0
2, 17177, Note_on_c, 0, 65, 0
2, 17190, Note_on_c, 0, 77, 66
2, 17190, Note_on_c, 0, 86, 66
2, 17234, Note_on_c, 0, 86, 0
2, 17234, Note_on_c, 0, 77, 0
2, 17256, Note_on_c, 0, 47, 58
2, 17280, Note_on_c, 0, 47, 0
2, 17280, Note_on_c, 0, 80, 67
2, 17280, Note_on_c, 0, 89, 67
2, 17280, Note_on_c, 0, 48, 91
2, 17280, Note_on_c, 0, 56, 91
2, 17324, Note_on_c, 0, 89, 0
2, 17324, Note_on_c, 0, 80, 0
2, 17369, Note_on_c, 0, 48, 0
2, 17369, Note_on_c, 0, 56, 0
2, 17370, Note_on_c, 0, 79, 55
2, 17370, Note_on_c, 0, 87, 55
2, 17414, Note_on_c, 0, 87, 0
2, 17414, Note_on_c, 0, 79, 0
2, 17460, Note_on_c, 0, 80, 58
2, 17460, Note_on_c, 0, 86, 58
2, 17460, Note_on_c, 0, 56, 71
2, 17460, Note_on_c, 0, 62, 71
2, 17460, Note_on_c, 0, 65, 71
2, 17504, Note_on_c, 0, 86, 0
2, 17504, Note_on_c, 0, 80, 0
2, 17549, Note_on_c, 0, 62, 0
2, 17549, Note_on_c, 0, 56, 0
2, 17549, Note_on_c, 0, 65, 0
2, 17550, Note_on_c, 0, 75, 56
2, 17550, Note_on_c, 0, 84, 56
2, 17594, Note_on_c, 0, 84, 0
2, 17594, Note_on_c, 0, 75, 0
2, 17640, Note_on_c, 0, 76, 60
2, 17640, Note_on_c, 0, 82, 60
2, 17640, Note_on_c, 0, 34, 58
2, 17640, Note_on_c, 0, 41, 58
2, 17640, Note_on_c, 0, 46, 58
2, 17684, Note_on_c, 0, 82, 0
2, 17684, Note_on_c, 0, 76, 0
2, 17729, Note_on_c, 0, 41, 0
2, 17729, Note_on_c, 0, 34, 0
2, 17729, Note_on_c, 0, 46, 0
2, 17730, Note_on_c, 0, 72, 58
2, 17730, Note_on_c, 0, 80, 58
2, 17774, Note_on_c, 0, 80, 0
2, 17774, Note_on_c, 0, 72, 0
2, 17820, Note_on_c, 0, 74, 58
2, 17820, Note_on_c, 0, 79, 58
2, 17820, Note_on_c, 0, 56, 79
2, 17820, Note_on_c, 0, 62, 79
2, 17820, Note_on_c, 0, 65, 79
2, 17864, Note_on_c, 0, 79, 0
2, 17864, Note_on_c, 0, 74, 0
2, 17889, Note_on_c, 0, 62, 0
2, 17889, Note_on_c, 0, 56, 0
2, 17889, Note_on_c, 0, 65, 0
2, 17910, Note_on_c, 0, 68, 56
2, 17910, Note_on_c, 0, 77, 56
2, 17954, Note_on_c, 0, 77, 0
2, 17954, Note_on_c, 0, 68, 0
2, 17959, Note_on_c, 0, 49, 52
2, 18000, Note_on_c, 0, 49, 0
2, 18000, Note_on_c, 0, 73, 55
2, 18000, Note_on_c, 0, 76, 55
2, 18000, Note_on_c, 0, 50, 90
2, 18000, Note_on_c, 0, 56, 90
2, 18044, Note_on_c, 0, 76, 0
2, 18044, Note_on_c, 0, 73, 0
2, 18089, Note_on_c, 0, 50, 0
2, 18089, Note_on_c, 0, 56, 0
2, 18090, Note_on_c, 0, 68, 61
2, 18090, Note_on_c, 0, 77, 61
2, 18134, Note_on_c, 0, 77, 0
2, 18134, Note_on_c, 0, 68, 0
2, 18180, Note_on_c, 0, 56, 73
2, 18180, Note_on_c, 0, 62, 73
2, 18180, Note_on_c, 0, 65, 73
2, 18180, Note_on_c, 0, 74, 59
2, 18180, Note_on_c, 0, 76, 59
2, 18224, Note_on_c, 0, 76, 0
2, 18224, Note_on_c, 0, 74, 0
2, 18269, Note_on_c, 0, 56, 0
2, 18269, Note_on_c, 0, 62, 0
2, 18269, Note_on_c, 0, 65, 0
2, 18270, Note_on_c, 0, 68, 63
2, 18270, Note_on_c, 0, 77, 63
2, 18314, Note_on_c, 0, 77, 0
2, 18314, Note_on_c, 0, 68, 0
2, 18360, Note_on_c, 0, 75, 58
2, 18360, Note_on_c, 0, 76, 58
2, 18360, Note_on_c, 0, 34, 54
2, 18360, Note_on_c, 0, 41, 54
2, 18360, Note_on_c, 0, 46, 54
2, 18404, Note_on_c, 0, 76, 0
2, 18404, Note_on_c, 0, 75, 0
2, 18449, Note_on_c, 0, 41, 0
2, 18449, Note_on_c, 0, 34, 0
2, 18449, Note_on_c, 0, 46, 0
2, 18450, Note_on_c, 0, 68, 57
2, 18450, Note_on_c, 0, 77, 57
2, 18494, Note_on_c, 0, 77, 0
2, 18494, Note_on_c, 0, 68, 0
2, 18540, Note_on_c, 0, 76, 68
2, 18540, Note_on_c, 0, 79, 68
2, 18540, Note_on_c, 0, 56, 75
2, 18540, Note_on_c, 0, 62, 75
2, 18540, Note_on_c, 0, 65, 75
2, 18584, Note_on_c, 0, 79, 0
2, 18584, Note_on_c, 0, 76, 0
2, 18609, Note_on_c, 0, 62, 0
2, 18609, Note_on_c, 0, 56, 0
2, 18609, Note_on_c, 0, 65, 0
2, 18630, Note_on_c, 0, 74, 63
2, 18630, Note_on_c, 0, 80, 63
2, 18674, Note_on_c, 0, 80, 0
2, 18674, Note_on_c, 0, 74, 0
2, 18679, Note_on_c, 0, 49, 57
2, 18720, Note_on_c, 0, 49, 0
2, 18720, Note_on_c, 0, 77, 58
2, 18720, Note_on_c, 0, 82, 58
2, 18720, Note_on_c, 0, 50, 88
2, 18720, Note_on_c, 0, 56, 88
2, 18764, Note_on_c, 0, 82, 0
2, 18764, Note_on_c, 0, 77, 0
2, 18809, Note_on_c, 0, 50, 0
2, 18809, Note_on_c, 0, 56, 0
2, 18810, Note_on_c, 0, 73, 62
2, 18810, Note_on_c, 0, 80, 62
2, 18854, Note_on_c, 0, 80, 0
2, 18854, Note_on_c, 0, 73, 0
2, 18900, Note_on_c, 0, 74, 64
2, 18900, Note_on_c, 0, 79, 64
2, 18900, Note_on_c, 0, 56, 73
2, 18900, Note_on_c, 0, 62, 73
2, 18900, Note_on_c, 0, 65, 73
2, 18944, Note_on_c, 0, 79, 0
2, 18944, Note_on_c, 0, 74, 0
2, 18989, Note_on_c, 0, 62, 0
2, 18989, Note_on_c, 0, 56, 0
2, 18989, Note_on_c, 0, 65, 0
2, 18990, Note_on_c, 0, 70, 56
2, 18990, Note_on_c, 0, 77, 56
2, 19034, Note_on_c, 0, 77, 0
2, 19034, Note_on_c, 0, 70, 0
2, 19080, Note_on_c, 0, 71, 62
2, 19080, Note_on_c, 0, 79, 62
2, 19080, Note_on_c, 0, 34, 57
2, 19080, Note_on_c, 0, 41, 57
2, 19080, Note_on_c, 0, 46, 57
2, 19124, Note_on_c, 0, 79, 0
2, 19124, Note_on_c, 0, 71, 0
2, 19169, Note_on_c, 0, 41, 0
2, 19169, Note_on_c, 0, 34, 0
2, 19169, Note_on_c, 0, 46, 0
2, 19170, Note_on_c, 0, 68, 58
2, 19170, Note_on_c, 0, 77, 58
2, 19214, Note_on_c, 0, 77, 0
2, 19214, Note_on_c, 0, 68, 0
2, 19260, Note_on_c, 0, 56, 72
2, 19260, Note_on_c, 0, 62, 72
2, 19260, Note_on_c, 0, 65, 72
2, 19260, Note_on_c, 0, 70, 53
2, 19260, Note_on_c, 0, 75, 53
2, 19304, Note_on_c, 0, 75, 0
2, 19304, Note_on_c, 0, 70, 0
2, 19349, Note_on_c, 0, 56, 0
2, 19349, Note_on_c, 0, 62, 0
2, 19349, Note_on_c, 0, 65, 0
2, 19350, Note_on_c, 0, 65, 55
2, 19350, Note_on_c, 0, 74, 55
2, 19394, Note_on_c, 0, 74, 0
2, 19394, Note_on_c, 0, 65, 0
2, 19440, Note_on_c, 0, 39, 59
2, 19440, Note_on_c, 0, 46, 59
2, 19440, Note_on_c, 0, 51, 59
2, 19440, Note_on_c, 0, 72, 60
2, 19440, Note_on_c, 0, 75, 60
2, 19484, Note_on_c, 0, 75, 0
2, 19484, Note_on_c, 0, 72, 0
2, 19529, Note_on_c, 0, 39, 0
2, 19529, Note_on_c, 0, 46, 0
2, 19529, Note_on_c, 0, 51, 0
2, 19530, Note_on_c, 0, 68, 63
2, 19530, Note_on_c, 0, 77, 63
2, 19574, Note_on_c, 0, 77, 0
2, 19574, Note_on_c, 0, 68, 0
2, 19620, Note_on_c, 0, 77, 58
2, 19620, Note_on_c, 0, 79, 58
2, 19620, Note_on_c, 0, 55, 77
2, 19620, Note_on_c, 0, 58, 77
2, 19620, Note_on_c, 0, 63, 77
2, 19620, Note_on_c, 0, 67, 77
2, 19664, Note_on_c, 0, 79, 0
2, 19664, Note_on_c, 0, 77, 0
2, 19709, Note_on_c, 0, 63, 0
2, 19709, Note_on_c, 0, 58, 0
2, 19709, Note_on_c, 0, 67, 0
2, 19709, Note_on_c, 0, 55, 0
2, 19710, Note_on_c, 0, 75, 65
2, 19710, Note_on_c, 0, 80, 65
2, 19754, Note_on_c, 0, 80, 0
2, 19754, Note_on_c, 0, 75, 0
2, 19800, Note_on_c, 0, 79, 68
2, 19800, Note_on_c, 0, 82, 68
2, 19800, Note_on_c, 0, 34, 55
2, 19800, Note_on_c, 0, 39, 55
2, 19800, Note_on_c, 0, 46, 55
2, 19844, Note_on_c, 0, 82, 0
2, 19844, Note_on_c, 0, 79, 0
2, 19889, Note_on_c, 0, 39, 0
2, 19889, Note_on_c, 0, 34, 0
2, 19889, Note_on_c, 0, 46, 0
2, 19890, Note_on_c, 0, 77, 62
2, 19890, Note_on_c, 0, 84, 62
2, 19934, Note_on_c, 0, 84, 0
2, 19934, Note_on_c, 0, 77, 0
2, 19980, Note_on_c, 0, 82, 64
2, 19980, Note_on_c, 0, 86, 64
2, 19980, Note_on_c, 0, 55, 78
2, 19980, Note_on_c, 0, 58, 78
2, 19980, Note_on_c, 0, 63, 78
2, 19980, Note_on_c, 0, 67, 78
2, 20024, Note_on_c, 0, 86, 0
2, 20024, Note_on_c, 0, 82, 0
2, 20069, Note_on_c, 0, 63, 0
2, 20069, Note_on_c, 0, 58, 0
2, 20069, Note_on_c, 0, 67, 0
2, 20069, Note_on_c, 0, 55, 0
2, 20070, Note_on_c, 0, 80, 60
2, 20070, Note_on_c, 0, 87, 60
2, 20114, Note_on_c, 0, 87, 0
2, 20114, Note_on_c, 0, 80, 0
2, 20160, Note_on_c, 0, 82, 70
2, 20160, Note_on_c, 0, 91, 70
2, 20160, Note_on_c, 0, 58, 71
2, 20160, Note_on_c, 0, 63, 71
2, 20160, Note_on_c, 0, 67, 71
2, 20160, Note_on_c, 0, 70, 71
2, 20204, Note_on_c, 0, 91, 0
2, 20204, Note_on_c, 0, 82, 0
2, 20249, Note_on_c, 0, 67, 0
2, 20249, Note_on_c, 0, 63, 0
2, 20249, Note_on_c, 0, 70, 0
2, 20249, Note_on_c, 0, 58, 0
2, 20250, Note_on_c, 0, 81, 54
2, 20250, Note_on_c, 0, 89, 54
2, 20294, Note_on_c, 0, 89, 0
2, 20294, Note_on_c, 0, 81, 0
2, 20340, Note_on_c, 0, 82, 59
2, 20340, Note_on_c, 0, 87, 59
2, 20340, Note_on_c, 0, 63, 61
2, 20340, Note_on_c, 0, 67, 61
2, 20340, Note_on_c, 0, 70, 61
2, 20384, Note_on_c, 0, 87, 0
2, 20384, Note_on_c, 0, 82, 0
2, 20430, Note_on_c, 0, 67, 0
2, 20430, Note_on_c, 0, 63, 0
2, 20430, Note_on_c, 0, 70, 0
2, 20430, Note_on_c, 0, 72, 67
2, 20430, Note_on_c, 0, 78, 60
2, 20430, Note_on_c, 0, 86, 60
2, 20474, Note_on_c, 0, 86, 0
2, 20474, Note_on_c, 0, 78, 0
2, 20520, Note_on_c, 0, 72, 0
2, 20520, Note_on_c, 0, 79, 55
2, 20520, Note_on_c, 0, 84, 55
2, 20520, Note_on_c, 0, 63, 59
2, 20520, Note_on_c, 0, 67, 59
2, 20520, Note_on_c, 0, 70, 59
2, 20564, Note_on_c, 0, 84, 0
2, 20564, Note_on_c, 0, 79, 0
2, 20609, Note_on_c, 0, 67, 0
2, 20609, Note_on_c, 0, 63, 0
2, 20609, Note_on_c, 0, 70, 0
2, 20610, Note_on_c, 0, 74, 56
2, 20610, Note_on_c, 0, 82, 56
2, 20654, Note_on_c, 0, 82, 0
2, 20654, Note_on_c, 0, 74, 0
2, 20700, Note_on_c, 0, 75, 55
2, 20700, Note_on_c, 0, 80, 55
2, 20700, Note_on_c, 0, 63, 55
2, 20700, Note_on_c, 0, 67, 55
2, 20744, Note_on_c, 0, 80, 0
2, 20744, Note_on_c, 0, 75, 0
2, 20789, Note_on_c, 0, 63, 0
2, 20789, Note_on_c, 0, 67, 0
2, 20790, Note_on_c, 0, 79, 55
2, 20834, Note_on_c, 0, 79, 0
2, 20880, Note_on_c, 0, 63, 60
2, 20880, Note_on_c, 0, 67, 60
2, 20880, Note_on_c, 0, 68, 60
2, 20880, Note_on_c, 0, 74, 60
2, 20880, Note_on_c, 0, 78, 60
2, 20924, Note_on_c, 0, 78, 0
2, 20924, Note_on_c, 0, 74, 0
2, 20969, Note_on_c, 0, 63, 0
2, 20969, Note_on_c, 0, 67, 0
2, 20969, Note_on_c, 0, 68, 0
2, 20970, Note_on_c, 0, 75, 64
2, 20970, Note_on_c, 0, 79, 64
2, 21014, Note_on_c, 0, 79, 0
2, 21014, Note_on_c, 0, 75, 0
2, 21060, Note_on_c, 0, 63, 67
2, 21060, Note_on_c, 0, 67, 67
2, 21060, Note_on_c, 0, 69, 67
2, 21060, Note_on_c, 0, 70, 67
2, 21060, Note_on_c, 0, 74, 57
2, 21060, Note_on_c, 0, 78, 57
2, 21104, Note_on_c, 0, 78, 0
2, 21104, Note_on_c, 0, 74, 0
2, 21149, Note_on_c, 0, 69, 0
2, 21149, Note_on_c, 0, 63, 0
2, 21149, Note_on_c, 0, 67, 0
2, 21149, Note_on_c, 0, 70, 0
2, 21150, Note_on_c, 0, 75, 62
2, 21150, Note_on_c, 0, 79, 62
2, 21194, Note_on_c, 0, 79, 0
2, 21194, Note_on_c, 0, 75, 0
2, 21240, Note_on_c, 0, 63, 75
2, 21240, Note_on_c, 0, 67, 75
2, 21240, Note_on_c, 0, 69, 75
2, 21240, Note_on_c, 0, 70, 75
2, 21240, Note_on_c, 0, 76, 58
2, 21240, Note_on_c, 0, 78, 58
2, 21284, Note_on_c, 0, 78, 0
2, 21284, Note_on_c, 0, 76, 0
2, 21330, Note_on_c, 0, 75, 59
2, 21330, Note_on_c, 0, 79, 59
2, 21374, Note_on_c, 0, 79, 0
2, 21374, Note_on_c, 0, 75, 0
2, 21398, Note_on_c, 0, 70, 0
2, 21398, Note_on_c, 0, 63, 0
2, 21398, Note_on_c, 0, 67, 0
2, 21398, Note_on_c, 0, 69, 0
2, 21420, Note_on_c, 0, 77, 65
2, 21420, Note_on_c, 0, 80, 65
2, 21420, Note_on_c, 0, 50, 51
2, 21464, Note_on_c, 0, 80, 0
2, 21464, Note_on_c, 0, 77, 0
2, 21510, Note_on_c, 0, 50, 0
2, 21510, Note_on_c, 0, 74, 64
2, 21510, Note_on_c, 0, 82, 64
2, 21510, Note_on_c, 0, 51, 59
2, 21554, Note_on_c, 0, 82, 0
2, 21554, Note_on_c, 0, 74, 0
2, 21600, Note_on_c, 0, 51, 0
2, 21600, Note_on_c, 0, 79, 63
2, 21600, Note_on_c, 0, 84, 63
2, 21600, Note_on_c, 0, 55, 65
2, 21644, Note_on_c, 0, 84, 0
2, 21644, Note_on_c, 0, 79, 0
2, 21690, Note_on_c, 0, 74, 60
2, 21690, Note_on_c, 0, 82, 60
2, 21734, Note_on_c, 0, 82, 0
2, 21734, Note_on_c, 0, 74, 0
2, 21780, Note_on_c, 0, 55, 0
2, 21780, Note_on_c, 0, 75, 56
2, 21780, Note_on_c, 0, 80, 56
2, 21780, Note_on_c, 0, 46, 59
2, 21780, Note_on_c, 0, 51, 59
2, 21780, Note_on_c, 0, 55, 59
2, 21824, Note_on_c, 0, 80, 0
2, 21824, Note_on_c, 0, 75, 0
2, 21870, Note_on_c, 0, 51, 0
2, 21870, Note_on_c, 0, 46, 0
2, 21870, Note_on_c, 0, 55, 0
2, 21870, Note_on_c, 0, 70, 55
2, 21870, Note_on_c, 0, 79, 55
2, 21870, Note_on_c, 0, 56, 61
2, 21914, Note_on_c, 0, 79, 0
2, 21914, Note_on_c, 0, 70, 0
2, 21960, Note_on_c, 0, 56, 0
2, 21960, Note_on_c, 0, 74, 65
2, 21960, Note_on_c, 0, 80, 65
2, 21960, Note_on_c, 0, 46, 59
2, 21960, Note_on_c, 0, 51, 59
2, 21960, Note_on_c, 0, 55, 59
2, 22004, Note_on_c, 0, 80, 0
2, 22004, Note_on_c, 0, 74, 0
2, 22050, Note_on_c, 0, 70, 55
2, 22050, Note_on_c, 0, 79, 55
2, 22094, Note_on_c, 0, 79, 0
2, 22094, Note_on_c, 0, 70, 0
2, 22140, Note_on_c, 0, 55, 0
2, 22140, Note_on_c, 0, 46, 0
2, 22140, Note_on_c, 0, 51, 0
2, 22140, Note_on_c, 0, 71, 58
2, 22140, Note_on_c, 0, 77, 58
2, 22140, Note_on_c, 0, 55, 68
2, 22140, Note_on_c, 0, 58, 68
2, 22184, Note_on_c, 0, 77, 0
2, 22184, Note_on_c, 0, 71, 0
2, 22230, Note_on_c, 0, 68, 56
2, 22230, Note_on_c, 0, 75, 56
2, 22274, Note_on_c, 0, 75, 0
2, 22274, Note_on_c, 0, 68, 0
2, 22320, Note_on_c, 0, 55, 0
2, 22320, Note_on_c, 0, 58, 0
2, 22320, Note_on_c, 0, 65, 59
2, 22320, Note_on_c, 0, 74, 59
2, 22320, Note_on_c, 0, 51, 85
2, 22320, Note_on_c, 0, 56, 85
2, 22320, Note_on_c, 0, 59, 85
2, 22364, Note_on_c, 0, 74, 0
2, 22364, Note_on_c, 0, 65, 0
2, 22410, Note_on_c, 0, 67, 65
2, 22410, Note_on_c, 0, 75, 65
2, 22454, Note_on_c, 0, 75, 0
2, 22454, Note_on_c, 0, 67, 0
2, 22500, Note_on_c, 0, 59, 0
2, 22500, Note_on_c, 0, 51, 0
2, 22500, Note_on_c, 0, 56, 0
2, 22500, Note_on_c, 0, 22, 50
2, 22500, Note_on_c, 0, 34, 50
2, 22500, Note_on_c, 0, 68, 54
2, 22500, Note_on_c, 0, 74, 54
2, 22544, Note_on_c, 0, 74, 0
2, 22544, Note_on_c, 0, 68, 0
2, 22590, Note_on_c, 0, 34, 0
2, 22590, Note_on_c, 0, 22, 0
2, 22590, Note_on_c, 0, 22, 55
2, 22590, Note_on_c, 0, 34, 55
2, 22590, Note_on_c, 0, 69, 54
2, 22590, Note_on_c, 0, 72, 54
2, 22634, Note_on_c, 0, 72, 0
2, 22634, Note_on_c, 0, 69, 0
2, 22680, Note_on_c, 0, 34, 0
2, 22680, Note_on_c, 0, 22, 0
2, 22680, Note_on_c, 0, 70, 66
2, 22680, Note_on_c, 0, 74, 66
2, 22680, Note_on_c, 0, 22, 58
2, 22680, Note_on_c, 0, 34, 58
2, 22724, Note_on_c, 0, 74, 0
2, 22724, Note_on_c, 0, 70, 0
2, 22770, Note_on_c, 0, 82, 78
2, 22770, Note_on_c, 0, 86, 78
2, 22814, Note_on_c, 0, 86, 0
2, 22814, Note_on_c, 0, 82, 0
2, 22860, Note_on_c, 0, 22, 0
2, 22860, Note_on_c, 0, 34, 0
2, 22860, Note_on_c, 0, 81, 58
2, 22860, Note_on_c, 0, 84, 58
2, 22860, Note_on_c, 0, 50, 65
2, 22860, Note_on_c, 0, 53, 65
2, 22904, Note_on_c, 0, 84, 0
2, 22904, Note_on_c, 0, 81, 0
2, 22950, Note_on_c, 0, 79, 59
2, 22950, Note_on_c, 0, 82, 59
2, 22994, Note_on_c, 0, 82, 0
2, 22994, Note_on_c, 0, 79, 0
2, 23040, Note_on_c, 0, 50, 0
2, 23040, Note_on_c, 0, 53, 0
2, 23040, Note_on_c, 0, 75, 60
2, 23040, Note_on_c, 0, 81, 60
2, 23040, Note_on_c, 0, 48, 60
2, 23040, Note_on_c, 0, 53, 60
2, 23084, Note_on_c, 0, 81, 0
2, 23084, Note_on_c, 0, 75, 0
2, 23129, Note_on_c, 0, 48, 0
2, 23129, Note_on_c, 0, 53, 0
2, 23130, Note_on_c, 0, 76, 61
2, 23130, Note_on_c, 0, 82, 61
2, 23174, Note_on_c, 0, 82, 0
2, 23174, Note_on_c, 0, 76, 0
2, 23220, Note_on_c, 0, 77, 62
2, 23220, Note_on_c, 0, 81, 62
2, 23220, Note_on_c, 0, 60, 62
2, 23220, Note_on_c, 0, 63, 62
2, 23220, Note_on_c, 0, 65, 62
2, 23264, Note_on_c, 0, 65, 0
2, 23264, Note_on_c, 0, 60, 0
2, 23264, Note_on_c, 0, 77, 0
2, 23264, Note_on_c, 0, 81, 0
2, 23264, Note_on_c, 0, 63, 0
2, 23310, Note_on_c, 0, 66, 62
2, 23310, Note_on_c, 0, 78, 62
2, 23310, Note_on_c, 0, 79, 62
2, 23354, Note_on_c, 0, 79, 0
2, 23354, Note_on_c, 0, 78, 0
2, 23400, Note_on_c, 0, 66, 0
2, 23400, Note_on_c, 0, 79, 63
2, 23400, Note_on_c, 0, 81, 63
2, 23400, Note_on_c, 0, 60, 63
2, 23400, Note_on_c, 0, 63, 63
2, 23400, Note_on_c, 0, 65, 63
2, 23444, Note_on_c, 0, 81, 0
2, 23444, Note_on_c, 0, 79, 0
2, 23490, Note_on_c, 0, 84, 63
2, 23490, Note_on_c, 0, 87, 63
2, 23534, Note_on_c, 0, 87, 0
2, 23534, Note_on_c, 0, 84, 0
2, 23580, Note_on_c, 0, 65, 0
2, 23580, Note_on_c, 0, 60, 0
2, 23580, Note_on_c, 0, 63, 0
2, 23580, Note_on_c, 0, 82, 64
2, 23580, Note_on_c, 0, 86, 64
2, 23580, Note_on_c, 0, 53, 64
2, 23580, Note_on_c, 0, 57, 64
2, 23580, Note_on_c, 0, 60, 64
2, 23624, Note_on_c, 0, 86, 0
2, 23624, Note_on_c, 0, 82, 0
2, 23670, Note_on_c, 0, 81, 64
2, 23670, Note_on_c, 0, 84, 64
2, 23714, Note_on_c, 0, 84, 0
2, 23714, Note_on_c, 0, 81, 0
2, 23760, Note_on_c, 0, 60, 0
2, 23760, Note_on_c, 0, 53, 0
2, 23760, Note_on_c, 0, 57, 0
2, 23760, Note_on_c, 0, 75, 65
2, 23760, Note_on_c, 0, 82, 65
2, 23760, Note_on_c, 0, 50, 65
2, 23760, Note_on_c, 0, 53, 65
2, 23760, Note_on_c, 0, 58, 65
2, 23804, Note_on_c, 0, 82, 0
2, 23804, Note_on_c, 0, 75, 0
2, 23849, Note_on_c, 0, 53, 0
2, 23849, Note_on_c, 0, 50, 0
2, 23849, Note_on_c, 0, 58, 0
2, 23850, Note_on_c, 0, 76, 65
2, 23850, Note_on_c, 0, 84, 65
2, 23894, Note_on_c, 0, 84, 0
2, 23894, Note_on_c, 0, 76, 0
2, 23940, Note_on_c, 0, 77, 66
2, 23940, Note_on_c, 0, 82, 66
2, 23940, Note_on_c, 0, 58, 66
2, 23940, Note_on_c, 0, 62, 66
2, 23940, Note_on_c, 0, 65, 66
2, 23984, Note_on_c, 0, 82, 0
2, 23984, Note_on_c, 0, 77, 0
2, 24030, Note_on_c, 0, 62, 0
2, 24030, Note_on_c, 0, 58, 0
2, 24030, Note_on_c, 0, 65, 0
2, 24030, Note_on_c, 0, 78, 67
2, 24030, Note_on_c, 0, 81, 67
2, 24030, Note_on_c, 0, 66, 67
2, 24074, Note_on_c, 0, 81, 0
2, 24074, Note_on_c, 0, 78, 0
2, 24120, Note_on_c, 0, 66, 0
2, 24120, Note_on_c, 0, 77, 67
2, 24120, Note_on_c, 0, 82, 67
2, 24120, Note_on_c, 0, 62, 67
2, 24120, Note_on_c, 0, 65, 67
2, 24120, Note_on_c, 0, 70, 67
2, 24164, Note_on_c, 0, 82, 0
2, 24164, Note_on_c, 0, 77, 0
2, 24210, Note_on_c, 0, 84, 68
2, 24210, Note_on_c, 0, 89, 68
2, 24254, Note_on_c, 0, 89, 0
2, 24254, Note_on_c, 0, 84, 0
2, 24300, Note_on_c, 0, 70, 0
2, 24300, Note_on_c, 0, 62, 0
2, 24300, Note_on_c, 0, 65, 0
2, 24300, Note_on_c, 0, 78, 68
2, 24300, Note_on_c, 0, 87, 68
2, 24300, Note_on_c, 0, 50, 68
2, 24300, Note_on_c, 0, 53, 68
2, 24300, Note_on_c, 0, 58, 68
2, 24344, Note_on_c, 0, 87, 0
2, 24344, Note_on_c, 0, 78, 0
2, 24390, Note_on_c, 0, 79, 69
2, 24390, Note_on_c, 0, 86, 69
2, 24434, Note_on_c, 0, 86, 0
2, 24434, Note_on_c, 0, 79, 0
2, 24480, Note_on_c, 0, 58, 0
2, 24480, Note_on_c, 0, 50, 0
2, 24480, Note_on_c, 0, 53, 0
2, 24480, Note_on_c, 0, 74, 69
2, 24480, Note_on_c, 0, 84, 69
2, 24480, Note_on_c, 0, 43, 69
2, 24480, Note_on_c, 0, 48, 69
2, 24480, Note_on_c, 0, 51, 69
2, 24524, Note_on_c, 0, 84, 0
2, 24524, Note_on_c, 0, 74, 0
2, 24569, Note_on_c, 0, 48, 0
2, 24569, Note_on_c, 0, 43, 0
2, 24569, Note_on_c, 0, 51, 0
2, 24570, Note_on_c, 0, 75, 70
2, 24570, Note_on_c, 0, 82, 70
2, 24614, Note_on_c, 0, 82, 0
2, 24614, Note_on_c, 0, 75, 0
2, 24660, Note_on_c, 0, 72, 70
2, 24660, Note_on_c, 0, 81, 70
2, 24660, Note_on_c, 0, 55, 70
2, 24660, Note_on_c, 0, 60, 70
2, 24660, Note_on_c, 0, 63, 70
2, 24704, Note_on_c, 0, 81, 0
2, 24704, Note_on_c, 0, 72, 0
2, 24749, Note_on_c, 0, 60, 0
2, 24749, Note_on_c, 0, 55, 0
2, 24749, Note_on_c, 0, 63, 0
2, 24750, Note_on_c, 0, 74, 71
2, 24750, Note_on_c, 0, 79, 71
2, 24794, Note_on_c, 0, 79, 0
2, 24794, Note_on_c, 0, 74, 0
2, 24840, Note_on_c, 0, 68, 72
2, 24840, Note_on_c, 0, 77, 72
2, 24840, Note_on_c, 0, 41, 72
2, 24840, Note_on_c, 0, 51, 72
2, 24884, Note_on_c, 0, 77, 0
2, 24884, Note_on_c, 0, 68, 0
2, 24929, Note_on_c, 0, 41, 0
2, 24929, Note_on_c, 0, 51, 0
2, 24930, Note_on_c, 0, 69, 72
2, 24930, Note_on_c, 0, 75, 72
2, 24974, Note_on_c, 0, 75, 0
2, 24974, Note_on_c, 0, 69, 0
2, 25020, Note_on_c, 0, 57, 73
2, 25020, Note_on_c, 0, 63, 73
2, 25020, Note_on_c, 0, 65, 73
2, 25020, Note_on_c, 0, 74, 73
2, 25064, Note_on_c, 0, 74, 0
2, 25064, Note_on_c, 0, 65, 0
2, 25109, Note_on_c, 0, 63, 0
2, 25109, Note_on_c, 0, 57, 0
2, 25110, Note_on_c, 0, 67, 69
2, 25110, Note_on_c, 0, 72, 69
2, 25154, Note_on_c, 0, 72, 0
2, 25154, Note_on_c, 0, 67, 0
2, 25200, Note_on_c, 0, 62, 113
2, 25200, Note_on_c, 0, 70, 113
2, 25200, Note_on_c, 0, 46, 126
2, 25200, Note_on_c, 0, 53, 126
2, 25200, Note_on_c, 0, 58, 126
2, 25380, Note_on_c, 0, 58, 0
2, 25380, Note_on_c, 0, 46, 0
2, 25380, Note_on_c, 0, 62, 0
2, 25380, Note_on_c, 0, 70, 0
2, 25380, Note_on_c, 0, 53, 0
2, 25380, Note_on_c, 0, 57, 97
2, 25400, Note_on_c, 0, 57, 0
2, 25400, Note_on_c, 0, 60, 99
2, 25419, Note_on_c, 0, 60, 0
2, 25419, Note_on_c, 0, 63, 100
2, 25439, Note_on_c, 0, 63, 0
2, 25439, Note_on_c, 0, 66, 102
2, 25459, Note_on_c, 0, 66, 0
2, 25459, Note_on_c, 0, 69, 104
2, 25480, Note_on_c, 0, 69, 0
2, 25480, Note_on_c, 0, 72, 105
2, 25500, Note_on_c, 0, 72, 0
2, 25500, Note_on_c, 0, 75, 107
2, 25519, Note_on_c, 0, 75, 0
2, 25519, Note_on_c, 0, 78, 108
2, 25539, Note_on_c, 0, 78, 0
2, 25539, Note_on_c, 0, 81, 122
2, 25560, Note_on_c, 0, 81, 0
2, 25560, Note_on_c, 0, 82, 127
2, 25560, Note_on_c, 0, 82, 127
2, 25560, Note_on_c, 0, 70, 127
2, 25560, Note_on_c, 0, 74, 127
2, 25560, Note_on_c, 0, 77, 127
2, 25562, Note_on_c, 0, 82, 0
2, 25562, Note_on_c, 0, 82, 0
2, 25706, Note_on_c, 0, 77, 0
2, 25706, Note_on_c, 0, 70, 0
2, 25706, Note_on_c, 0, 73, 64
2, 25740, Note_on_c, 0, 73, 0
2, 25740, Note_on_c, 0, 74, 0
2, 25740, Note_on_c, 0, 74, 85
2, 25740, Note_on_c, 0, 75, 81
2, 25740, Note_on_c, 0, 79, 81
2, 25740, Note_on_c, 0, 82, 81
2, 25809, Note_on_c, 0, 74, 0
2, 25830, Note_on_c, 0, 75, 0
2, 25830, Note_on_c, 0, 79, 0
2, 25830, Note_on_c, 0, 82, 0
2, 25830, Note_on_c, 0, 75, 86
2, 25830, Note_on_c, 0, 79, 86
2, 25830, Note_on_c, 0, 82, 86
2, 25889, Note_on_c, 0, 68, 71
2, 25920, Note_on_c, 0, 68, 0
2, 25920, Note_on_c, 0, 75, 0
2, 25920, Note_on_c, 0, 79, 0
2, 25920, Note_on_c, 0, 82, 0
2, 25920, Note_on_c, 0, 69, 91
2, 25920, Note_on_c, 0, 75, 97
2, 25920, Note_on_c, 0, 79, 97
2, 25920, Note_on_c, 0, 81, 75
2, 25991, Note_on_c, 0, 81, 0
2, 26002, Note_on_c, 0, 69, 0
2, 26010, Note_on_c, 0, 79, 0
2, 26010, Note_on_c, 0, 75, 0
2, 26010, Note_on_c, 0, 78, 86
2, 26082, Note_on_c, 0, 78, 0
2, 26085, Note_on_c, 0, 61, 70
2, 26100, Note_on_c, 0, 61, 0
2, 26100, Note_on_c, 0, 74, 84
2, 26100, Note_on_c, 0, 78, 84
2, 26100, Note_on_c, 0, 82, 85
2, 26100, Note_on_c, 0, 62, 90
2, 26171, Note_on_c, 0, 82, 0
2, 26173, Note_on_c, 0, 62, 0
2, 26190, Note_on_c, 0, 78, 0
2, 26190, Note_on_c, 0, 74, 0
2, 26190, Note_on_c, 0, 77, 84
2, 26249, Note_on_c, 0, 56, 75
2, 26262, Note_on_c, 0, 77, 0
2, 26280, Note_on_c, 0, 56, 0
2, 26280, Note_on_c, 0, 73, 88
2, 26280, Note_on_c, 0, 77, 88
2, 26280, Note_on_c, 0, 81, 75
2, 26280, Note_on_c, 0, 57, 88
2, 26351, Note_on_c, 0, 81, 0
2, 26362, Note_on_c, 0, 57, 0
2, 26370, Note_on_c, 0, 77, 0
2, 26370, Note_on_c, 0, 73, 0
2, 26370, Note_on_c, 0, 76, 87
2, 26442, Note_on_c, 0, 76, 0
2, 26445, Note_on_c, 0, 49, 79
2, 26460, Note_on_c, 0, 49, 0
2, 26460, Note_on_c, 0, 72, 89
2, 26460, Note_on_c, 0, 76, 89
2, 26460, Note_on_c, 0, 82, 85
2, 26460, Note_on_c, 0, 50, 84
2, 26531, Note_on_c, 0, 82, 0
2, 26549, Note_on_c, 0, 50, 0
2, 26550, Note_on_c, 0, 76, 0
2, 26550, Note_on_c, 0, 72, 0
2, 26550, Note_on_c, 0, 75, 81
2, 26622, Note_on_c, 0, 75, 0
2, 26640, Note_on_c, 0, 68, 83
2, 26640, Note_on_c, 0, 74, 83
2, 26640, Note_on_c, 0, 76, 83
2, 26640, Note_on_c, 0, 80, 83
2, 26640, Note_on_c, 0, 34, 77
2, 26684, Note_on_c, 0, 80, 0
2, 26684, Note_on_c, 0, 76, 0
2, 26684, Note_on_c, 0, 68, 0
2, 26684, Note_on_c, 0, 74, 0
2, 26684, Note_on_c, 0, 41, 77
2, 26727, Note_on_c, 0, 50, 77
2, 26730, Control_c, 0, 64, 127
2, 26730, Note_on_c, 0, 83, 87
2, 26730, Note_on_c, 0, 68, 87
2, 26775, Note_on_c, 0, 83, 0
2, 26775, Note_on_c, 0, 92, 89
2, 26820, Note_on_c, 0, 92, 0
2, 26820, Note_on_c, 0, 68, 0
2, 26820, Note_on_c, 0, 74, 91
2, 26820, Note_on_c, 0, 76, 91
2, 26820, Note_on_c, 0, 77, 91
2, 26820, Note_on_c, 0, 86, 91
2, 26820, Note_on_c, 0, 95, 91
2, 26910, Note_on_c, 0, 95, 0
2, 26910, Note_on_c, 0, 86, 0
2, 26910, Note_on_c, 0, 76, 0
2, 26910, Note_on_c, 0, 74, 0
2, 26910, Note_on_c, 0, 77, 0
2, 26910, Note_on_c, 0, 94, 94
2, 26910, Note_on_c, 0, 80, 94
2, 26955, Note_on_c, 0, 94, 0
2, 26955, Note_on_c, 0, 104, 116
2, 27000, Note_on_c, 0, 104, 0
2, 27000, Note_on_c, 0, 80, 0
2, 27000, Note_on_c, 0, 98, 127
2, 27000, Note_on_c, 0, 107, 127
2, 27000, Note_on_c, 0, 74, 127
2, 27000, Note_on_c, 0, 76, 127
2, 27000, Note_on_c, 0, 77, 127
2, 27139, Note_on_c, 0, 77, 0
2, 27139, Note_on_c, 0, 76, 0
2, 27139, Note_on_c, 0, 74, 0
2, 27139, Note_on_c, 0, 68, 69
2, 27180, Note_on_c, 0, 68, 0
2, 27180, Note_on_c, 0, 107, 0
2, 27180, Note_on_c, 0, 41, 0
2, 27180, Note_on_c, 0, 98, 0
2, 27180, Note_on_c, 0, 34, 0
2, 27180, Note_on_c, 0, 50, 0
2, 27180, Control_c, 0, 64, 0
2, 27180, Note_on_c, 0, 69, 84
2, 27180, Note_on_c, 0, 74, 61
2, 27180, Note_on_c, 0, 77, 61
2, 27180, Note_on_c, 0, 82, 61
2, 27269, Note_on_c, 0, 69, 0
2, 27270, Note_on_c, 0, 74, 0
2, 27270, Note_on_c, 0, 77, 0
2, 27270, Note_on_c, 0, 82, 0
2, 27270, Note_on_c, 0, 74, 79
2, 27270, Note_on_c, 0, 77, 79
2, 27270, Note_on_c, 0, 82, 79
2, 27360, Note_on_c, 0, 82, 0
2, 27360, Note_on_c, 0, 77, 0
2, 27360, Note_on_c, 0, 74, 0
2, 27360, Note_on_c, 0, 73, 108
2, 27360, Note_on_c, 0, 77, 108
2, 27360, Note_on_c, 0, 81, 73
2, 27360, Note_on_c, 0, 34, 72
2, 27360, Note_on_c, 0, 41, 72
2, 27449, Note_on_c, 0, 41, 0
2, 27449, Note_on_c, 0, 81, 0
2, 27449, Note_on_c, 0, 34, 0
2, 27450, Note_on_c, 0, 77, 0
2, 27450, Note_on_c, 0, 73, 0
2, 27450, Note_on_c, 0, 76, 95
2, 27540, Note_on_c, 0, 76, 0
2, 27540, Note_on_c, 0, 56, 105
2, 27540, Note_on_c, 0, 58, 105
2, 27540, Note_on_c, 0, 62, 105
2, 27540, Note_on_c, 0, 72, 97
2, 27540, Note_on_c, 0, 76, 97
2, 27540, Note_on_c, 0, 82, 86
2, 27629, Note_on_c, 0, 82, 0
2, 27629, Note_on_c, 0, 58, 0
2, 27629, Note_on_c, 0, 56, 0
2, 27629, Note_on_c, 0, 62, 0
2, 27630, Note_on_c, 0, 72, 0
2, 27630, Note_on_c, 0, 76, 0
2, 27630, Note_on_c, 0, 75, 95
2, 27720, Note_on_c, 0, 75, 0
2, 27720, Note_on_c, 0, 46, 76
2, 27720, Note_on_c, 0, 71, 98
2, 27720, Note_on_c, 0, 75, 98
2, 27720, Note_on_c, 0, 81, 83
2, 27809, Note_on_c, 0, 81, 0
2, 27809, Note_on_c, 0, 46, 0
2, 27810, Note_on_c, 0, 75, 0
2, 27810, Note_on_c, 0, 71, 0
2, 27810, Note_on_c, 0, 74, 94
2, 27900, Note_on_c, 0, 74, 0
2, 27900, Note_on_c, 0, 56, 100
2, 27900, Note_on_c, 0, 62, 100
2, 27900, Note_on_c, 0, 66, 100
2, 27900, Note_on_c, 0, 70, 101
2, 27900, Note_on_c, 0, 74, 101
2, 27900, Note_on_c, 0, 82, 88
2, 27989, Note_on_c, 0, 82, 0
2, 27989, Note_on_c, 0, 62, 0
2, 27989, Note_on_c, 0, 56, 0
2, 27989, Note_on_c, 0, 66, 0
2, 27990, Note_on_c, 0, 70, 0
2, 27990, Note_on_c, 0, 74, 0
2, 27990, Note_on_c, 0, 73, 97
2, 28080, Note_on_c, 0, 73, 0
2, 28080, Note_on_c, 0, 67, 83
2, 28080, Note_on_c, 0, 71, 83
2, 28080, Note_on_c, 0, 75, 83
2, 28080, Note_on_c, 0, 79, 83
2, 28080, Note_on_c, 0, 39, 90
2, 28124, Note_on_c, 0, 79, 0
2, 28124, Note_on_c, 0, 75, 0
2, 28124, Note_on_c, 0, 67, 0
2, 28124, Note_on_c, 0, 71, 0
2, 28124, Note_on_c, 0, 46, 90
2, 28167, Note_on_c, 0, 55, 90
2, 28170, Control_c, 0, 64, 127
2, 28170, Note_on_c, 0, 83, 86
2, 28170, Note_on_c, 0, 67, 86
2, 28215, Note_on_c, 0, 83, 0
2, 28215, Note_on_c, 0, 91, 88
2, 28260, Note_on_c, 0, 91, 0
2, 28260, Note_on_c, 0, 67, 0
2, 28260, Note_on_c, 0, 87, 90
2, 28260, Note_on_c, 0, 95, 90
2, 28260, Note_on_c, 0, 71, 90
2, 28260, Note_on_c, 0, 74, 90
2, 28260, Note_on_c, 0, 75, 90
2, 28350, Note_on_c, 0, 75, 0
2, 28350, Note_on_c, 0, 74, 0
2, 28350, Note_on_c, 0, 95, 0
2, 28350, Note_on_c, 0, 87, 0
2, 28350, Note_on_c, 0, 71, 0
2, 28350, Note_on_c, 0, 94, 93
2, 28350, Note_on_c, 0, 79, 93
2, 28395, Note_on_c, 0, 94, 0
2, 28395, Note_on_c, 0, 103, 94
2, 28440, Note_on_c, 0, 103, 0
2, 28440, Note_on_c, 0, 79, 0
2, 28440, Note_on_c, 0, 99, 127
2, 28440, Note_on_c, 0, 107, 127
2, 28440, Note_on_c, 0, 71, 127
2, 28440, Note_on_c, 0, 74, 127
2, 28440, Note_on_c, 0, 75, 127
2, 28579, Note_on_c, 0, 75, 0
2, 28579, Note_on_c, 0, 74, 0
2, 28579, Note_on_c, 0, 71, 0
2, 28579, Note_on_c, 0, 70, 75
2, 28620, Note_on_c, 0, 70, 0
2, 28620, Note_on_c, 0, 107, 0
2, 28620, Note_on_c, 0, 46, 0
2, 28620, Note_on_c, 0, 99, 0
2, 28620, Note_on_c, 0, 39, 0
2, 28620, Note_on_c, 0, 55, 0
2, 28620, Control_c, 0, 64, 0
2, 28620, Note_on_c, 0, 71, 84
2, 28620, Note_on_c, 0, 72, 64
2, 28620, Note_on_c, 0, 75, 64
2, 28620, Note_on_c, 0, 78, 64
2, 28709, Note_on_c, 0, 71, 0
2, 28710, Note_on_c, 0, 72, 0
2, 28710, Note_on_c, 0, 75, 0
2, 28710, Note_on_c, 0, 78, 0
2, 28710, Note_on_c, 0, 72, 78
2, 28710, Note_on_c, 0, 75, 78
2, 28710, Note_on_c, 0, 78, 78
2, 28800, Note_on_c, 0, 78, 0
2, 28800, Note_on_c, 0, 75, 0
2, 28800, Note_on_c, 0, 72, 0
2, 28800, Note_on_c, 0, 82, 83
2, 28800, Note_on_c, 0, 87, 83
2, 28800, Note_on_c, 0, 51, 83
2, 28800, Note_on_c, 0, 57, 83
2, 28844, Note_on_c, 0, 87, 0
2, 28844, Note_on_c, 0, 82, 0
2, 28890, Note_on_c, 0, 51, 0
2, 28890, Note_on_c, 0, 57, 0
2, 28890, Note_on_c, 0, 79, 85
2, 28890, Note_on_c, 0, 86, 85
2, 28890, Note_on_c, 0, 58, 85
2, 28934, Note_on_c, 0, 86, 0
2, 28934, Note_on_c, 0, 79, 0
2, 28980, Note_on_c, 0, 58, 0
2, 28980, Note_on_c, 0, 82, 86
2, 28980, Note_on_c, 0, 91, 86
2, 28980, Note_on_c, 0, 61, 86
2, 29024, Note_on_c, 0, 91, 0
2, 29024, Note_on_c, 0, 82, 0
2, 29070, Note_on_c, 0, 61, 0
2, 29070, Note_on_c, 0, 81, 88
2, 29070, Note_on_c, 0, 89, 88
2, 29070, Note_on_c, 0, 62, 88
2, 29114, Note_on_c, 0, 89, 0
2, 29114, Note_on_c, 0, 81, 0
2, 29160, Note_on_c, 0, 62, 0
2, 29160, Note_on_c, 0, 82, 90
2, 29160, Note_on_c, 0, 87, 90
2, 29160, Note_on_c, 0, 63, 90
2, 29204, Note_on_c, 0, 87, 0
2, 29204, Note_on_c, 0, 82, 0
2, 29250, Note_on_c, 0, 63, 0
2, 29250, Note_on_c, 0, 78, 91
2, 29250, Note_on_c, 0, 86, 91
2, 29250, Note_on_c, 0, 64, 91
2, 29294, Note_on_c, 0, 86, 0
2, 29294, Note_on_c, 0, 78, 0
2, 29340, Note_on_c, 0, 64, 0
2, 29340, Note_on_c, 0, 79, 93
2, 29340, Note_on_c, 0, 84, 93
2, 29340, Note_on_c, 0, 66, 93
2, 29384, Note_on_c, 0, 84, 0
2, 29384, Note_on_c, 0, 79, 0
2, 29430, Note_on_c, 0, 66, 0
2, 29430, Note_on_c, 0, 75, 94
2, 29430, Note_on_c, 0, 82, 94
2, 29430, Note_on_c, 0, 67, 94
2, 29474, Note_on_c, 0, 82, 0
2, 29474, Note_on_c, 0, 75, 0
2, 29520, Note_on_c, 0, 67, 0
2, 29520, Note_on_c, 0, 41, 96
2, 29520, Note_on_c, 0, 46, 96
2, 29520, Note_on_c, 0, 53, 96
2, 29520, Note_on_c, 0, 74, 96
2, 29520, Note_on_c, 0, 80, 96
2, 29520, Note_on_c, 0, 82, 96
2, 29520, Note_on_c, 0, 86, 96
2, 29609, Note_on_c, 0, 86, 0
2, 29609, Note_on_c, 0, 80, 0
2, 29609, Note_on_c, 0, 46, 0
2, 29609, Note_on_c, 0, 53, 0
2, 29609, Note_on_c, 0, 41, 0
2, 29609, Note_on_c, 0, 82, 0
2, 29609, Note_on_c, 0, 74, 0
2, 29700, Note_on_c, 0, 58, 123
2, 29700, Note_on_c, 0, 62, 123
2, 29700, Note_on_c, 0, 65, 123
2, 29700, Note_on_c, 0, 68, 85
2, 29700, Note_on_c, 0, 74, 85
2, 29700, Note_on_c, 0, 80, 85
2, 29789, Note_on_c, 0, 80, 0
2, 29789, Note_on_c, 0, 62, 0
2, 29789, Note_on_c, 0, 65, 0
2, 29789, Note_on_c, 0, 58, 0
2, 29789, Note_on_c, 0, 74, 0
2, 29789, Note_on_c, 0, 68, 0
2, 29880, Note_on_c, 0, 56, 127
2, 29880, Note_on_c, 0, 58, 127
2, 29880, Note_on_c, 0, 62, 127
2, 29880, Note_on_c, 0, 66, 127
2, 29880, Note_on_c, 0, 68, 122
2, 29880, Note_on_c, 0, 72, 122
2, 29880, Note_on_c, 0, 74, 122
2, 29880, Note_on_c, 0, 76, 122
2, 29880, Note_on_c, 0, 80, 122
2, 29970, Note_on_c, 0, 80, 0
2, 29970, Note_on_c, 0, 76, 0
2, 29970, Note_on_c, 0, 74, 0
2, 29970, Note_on_c, 0, 68, 0
2, 29970, Note_on_c, 0, 72, 0
2, 29970, Note_on_c, 0, 72, 108
2, 29970, Note_on_c, 0, 84, 108
2, 30014, Note_on_c, 0, 84, 0
2, 30014, Note_on_c, 0, 72, 0
2, 30060, Note_on_c, 0, 56, 0
2, 30060, Note_on_c, 0, 66, 0
2, 30060, Note_on_c, 0, 58, 0
2, 30060, Note_on_c, 0, 62, 0
2, 30060, Note_on_c, 0, 70, 93
2, 30060, Note_on_c, 0, 77, 93
2, 30060, Note_on_c, 0, 82, 93
2, 30060, Note_on_c, 0, 34, 89
2, 30060, Note_on_c, 0, 46, 89
2, 30104, Note_on_c, 0, 46, 0
2, 30104, Note_on_c, 0, 82, 0
2, 30104, Note_on_c, 0, 70, 0
2, 30104, Note_on_c, 0, 77, 0
2, 30104, Note_on_c, 0, 34, 0
2, 30150, Note_on_c, 0, 68, 87
2, 30150, Note_on_c, 0, 80, 87
2, 30150, Note_on_c, 0, 29, 92
2, 30150, Note_on_c, 0, 41, 92
2, 30194, Note_on_c, 0, 41, 0
2, 30194, Note_on_c, 0, 68, 0
2, 30194, Note_on_c, 0, 80, 0
2, 30194, Note_on_c, 0, 29, 0
2, 30240, Note_on_c, 0, 74, 111
2, 30240, Note_on_c, 0, 80, 111
2, 30240, Note_on_c, 0, 82, 111
2, 30240, Note_on_c, 0, 86, 111
2, 30240, Note_on_c, 0, 22, 92
2, 30240, Note_on_c, 0, 34, 92
2, 30329, Note_on_c, 0, 34, 0
2, 30329, Note_on_c, 0, 80, 0
2, 30329, Note_on_c, 0, 82, 0
2, 30329, Note_on_c, 0, 74, 0
2, 30329, Note_on_c, 0, 22, 0
2, 30329, Note_on_c, 0, 86, 0
2, 30420, Note_on_c, 0, 58, 119
2, 30420, Note_on_c, 0, 62, 119
2, 30420, Note_on_c, 0, 65, 119
2, 30420, Note_on_c, 0, 68, 85
2, 30420, Note_on_c, 0, 74, 85
2, 30420, Note_on_c, 0, 80, 85
2, 30509, Note_on_c, 0, 80, 0
2, 30509, Note_on_c, 0, 62, 0
2, 30509, Note_on_c, 0, 65, 0
2, 30509, Note_on_c, 0, 58, 0
2, 30509, Note_on_c, 0, 74, 0
2, 30509, Note_on_c, 0, 68, 0
2, 30600, Note_on_c, 0, 68, 120
2, 30600, Note_on_c, 0, 72, 120
2, 30600, Note_on_c, 0, 74, 120
2, 30600, Note_on_c, 0, 76, 120
2, 30600, Note_on_c, 0, 80, 120
2, 30600, Note_on_c, 0, 56, 127
2, 30600, Note_on_c, 0, 58, 127
2, 30600, Note_on_c, 0, 62, 127
2, 30600, Note_on_c, 0, 66, 127
2, 30690, Note_on_c, 0, 80, 0
2, 30690, Note_on_c, 0, 76, 0
2, 30690, Note_on_c, 0, 68, 0
2, 30690, Note_on_c, 0, 74, 0
2, 30690, Note_on_c, 0, 72, 0
2, 30690, Note_on_c, 0, 72, 106
2, 30690, Note_on_c, 0, 84, 106
2, 30734, Note_on_c, 0, 84, 0
2, 30734, Note_on_c, 0, 72, 0
2, 30780, Note_on_c, 0, 58, 0
2, 30780, Note_on_c, 0, 66, 0
2, 30780, Note_on_c, 0, 56, 0
2, 30780, Note_on_c, 0, 62, 0
2, 30780, Note_on_c, 0, 34, 87
2, 30780, Note_on_c, 0, 46, 87
2, 30780, Note_on_c, 0, 70, 93
2, 30780, Note_on_c, 0, 77, 93
2, 30780, Note_on_c, 0, 82, 93
2, 30824, Note_on_c, 0, 82, 0
2, 30824, Note_on_c, 0, 70, 0
2, 30824, Note_on_c, 0, 34, 0
2, 30824, Note_on_c, 0, 46, 0
2, 30824, Note_on_c, 0, 77, 0
2, 30870, Note_on_c, 0, 29, 91
2, 30870, Note_on_c, 0, 41, 91
2, 30870, Note_on_c, 0, 68, 90
2, 30870, Note_on_c, 0, 80, 90
2, 30914, Note_on_c, 0, 80, 0
2, 30914, Note_on_c, 0, 29, 0
2, 30914, Note_on_c, 0, 41, 0
2, 30914, Note_on_c, 0, 68, 0
2, 30960, Note_on_c, 0, 72, 104
2, 30960, Note_on_c, 0, 78, 104
2, 30960, Note_on_c, 0, 82, 104
2, 30960, Note_on_c, 0, 84, 104
2, 30960, Note_on_c, 0, 27, 118
2, 30960, Note_on_c, 0, 34, 118
2, 30960, Note_on_c, 0, 39, 118
2, 31049, Note_on_c, 0, 39, 0
2, 31049, Note_on_c, 0, 27, 0
2, 31049, Note_on_c, 0, 78, 0
2, 31049, Note_on_c, 0, 82, 0
2, 31049, Note_on_c, 0, 72, 0
2, 31049, Note_on_c, 0, 34, 0
2, 31049, Note_on_c, 0, 84, 0
2, 31140, Note_on_c, 0, 51, 125
2, 31140, Note_on_c, 0, 55, 125
2, 31140, Note_on_c, 0, 58, 125
2, 31140, Note_on_c, 0, 63, 125
2, 31140, Note_on_c, 0, 67, 86
2, 31140, Note_on_c, 0, 70, 86
2, 31140, Note_on_c, 0, 75, 86
2, 31140, Note_on_c, 0, 79, 86
2, 31229, Note_on_c, 0, 79, 0
2, 31229, Note_on_c, 0, 51, 0
2, 31229, Note_on_c, 0, 67, 0
2, 31229, Note_on_c, 0, 55, 0
2, 31229, Note_on_c, 0, 58, 0
2, 31229, Note_on_c, 0, 63, 0
2, 31229, Note_on_c, 0, 70, 0
2, 31229, Note_on_c, 0, 75, 0
2, 31320, Note_on_c, 0, 67, 118
2, 31320, Note_on_c, 0, 71, 118
2, 31320, Note_on_c, 0, 75, 118
2, 31320, Note_on_c, 0, 79, 118
2, 31320, Note_on_c, 0, 51, 127
2, 31320, Note_on_c, 0, 55, 127
2, 31320, Note_on_c, 0, 59, 127
2, 31320, Note_on_c, 0, 63, 127
2, 31476, Note_on_c, 0, 63, 0
2, 31476, Note_on_c, 0, 59, 0
2, 31476, Note_on_c, 0, 51, 0
2, 31476, Note_on_c, 0, 55, 0
2, 31476, Note_on_c, 0, 73, 105
2, 31500, Note_on_c, 0, 73, 0
2, 31500, Note_on_c, 0, 67, 0
2, 31500, Note_on_c, 0, 79, 0
2, 31500, Note_on_c, 0, 71, 0
2, 31500, Note_on_c, 0, 75, 0
2, 31500, Note_on_c, 0, 74, 93
2, 31500, Note_on_c, 0, 75, 89
2, 31500, Note_on_c, 0, 79, 89
2, 31500, Note_on_c, 0, 82, 89
2, 31569, Note_on_c, 0, 74, 0
2, 31590, Note_on_c, 0, 75, 0
2, 31590, Note_on_c, 0, 79, 0
2, 31590, Note_on_c, 0, 82, 0
2, 31590, Note_on_c, 0, 75, 85
2, 31590, Note_on_c, 0, 79, 85
2, 31590, Note_on_c, 0, 82, 85
2, 31649, Note_on_c, 0, 68, 70
2, 31680, Note_on_c, 0, 68, 0
2, 31680, Note_on_c, 0, 75, 0
2, 31680, Note_on_c, 0, 79, 0
2, 31680, Note_on_c, 0, 82, 0
2, 31680, Note_on_c, 0, 69, 85
2, 31680, Note_on_c, 0, 75, 126
2, 31680, Note_on_c, 0, 79, 126
2, 31680, Note_on_c, 0, 81, 82
2, 31751, Note_on_c, 0, 81, 0
2, 31760, Note_on_c, 0, 69, 0
2, 31770, Note_on_c, 0, 79, 0
2, 31770, Note_on_c, 0, 75, 0
2, 31770, Note_on_c, 0, 78, 125
2, 31842, Note_on_c, 0, 78, 0
2, 31842, Note_on_c, 0, 61, 62
2, 31860, Note_on_c, 0, 61, 0
2, 31860, Note_on_c, 0, 74, 126
2, 31860, Note_on_c, 0, 78, 126
2, 31860, Note_on_c, 0, 82, 89
2, 31860, Note_on_c, 0, 62, 84
2, 31931, Note_on_c, 0, 82, 0
2, 31933, Note_on_c, 0, 62, 0
2, 31950, Note_on_c, 0, 78, 0
2, 31950, Note_on_c, 0, 74, 0
2, 31950, Note_on_c, 0, 77, 124
2, 32009, Note_on_c, 0, 56, 76
2, 32022, Note_on_c, 0, 77, 0
2, 32040, Note_on_c, 0, 56, 0
2, 32040, Note_on_c, 0, 73, 126
2, 32040, Note_on_c, 0, 77, 126
2, 32040, Note_on_c, 0, 81, 77
2, 32040, Note_on_c, 0, 57, 85
2, 32111, Note_on_c, 0, 81, 0
2, 32122, Note_on_c, 0, 57, 0
2, 32130, Note_on_c, 0, 77, 0
2, 32130, Note_on_c, 0, 73, 0
2, 32130, Note_on_c, 0, 76, 122
2, 32202, Note_on_c, 0, 76, 0
2, 32205, Note_on_c, 0, 49, 79
2, 32220, Note_on_c, 0, 49, 0
2, 32220, Note_on_c, 0, 72, 124
2, 32220, Note_on_c, 0, 76, 124
2, 32220, Note_on_c, 0, 82, 86
2, 32220, Note_on_c, 0, 50, 84
2, 32291, Note_on_c, 0, 82, 0
2, 32309, Note_on_c, 0, 50, 0
2, 32310, Note_on_c, 0, 76, 0
2, 32310, Note_on_c, 0, 72, 0
2, 32310, Note_on_c, 0, 75, 120
2, 32382, Note_on_c, 0, 75, 0
2, 32400, Note_on_c, 0, 68, 83
2, 32400, Note_on_c, 0, 74, 83
2, 32400, Note_on_c, 0, 76, 83
2, 32400, Note_on_c, 0, 80, 83
2, 32400, Note_on_c, 0, 34, 112
2, 32444, Note_on_c, 0, 80, 0
2, 32444, Note_on_c, 0, 76, 0
2, 32444, Note_on_c, 0, 68, 0
2, 32444, Note_on_c, 0, 74, 0
2, 32444, Note_on_c, 0, 41, 112
2, 32487, Note_on_c, 0, 50, 112
2, 32490, Control_c, 0, 64, 127
2, 32490, Note_on_c, 0, 83, 87
2, 32490, Note_on_c, 0, 68, 87
2, 32535, Note_on_c, 0, 83, 0
2, 32535, Note_on_c, 0, 92, 88
2, 32580, Note_on_c, 0, 92, 0
2, 32580, Note_on_c, 0, 68, 0
2, 32580, Note_on_c, 0, 74, 90
2, 32580, Note_on_c, 0, 76, 90
2, 32580, Note_on_c, 0, 77, 90
2, 32580, Note_on_c, 0, 86, 90
2, 32580, Note_on_c, 0, 95, 90
2, 32670, Note_on_c, 0, 95, 0
2, 32670, Note_on_c, 0, 86, 0
2, 32670, Note_on_c, 0, 76, 0
2, 32670, Note_on_c, 0, 74, 0
2, 32670, Note_on_c, 0, 77, 0
2, 32670, Note_on_c, 0, 94, 94
2, 32670, Note_on_c, 0, 80, 94
2, 32715, Note_on_c, 0, 94, 0
2, 32715, Note_on_c, 0, 104, 95
2, 32760, Note_on_c, 0, 104, 0
2, 32760, Note_on_c, 0, 80, 0
2, 32760, Note_on_c, 0, 98, 127
2, 32760, Note_on_c, 0, 107, 127
2, 32760, Note_on_c, 0, 74, 127
2, 32760, Note_on_c, 0, 76, 127
2, 32760, Note_on_c, 0, 77, 127
2, 32899, Note_on_c, 0, 77, 0
2, 32899, Note_on_c, 0, 76, 0
2, 32899, Note_on_c, 0, 74, 0
2, 32899, Note_on_c, 0, 68, 65
2, 32940, Note_on_c, 0, 68, 0
2, 32940, Note_on_c, 0, 107, 0
2, 32940, Note_on_c, 0, 41, 0
2, 32940, Note_on_c, 0, 98, 0
2, 32940, Note_on_c, 0, 34, 0
2, 32940, Note_on_c, 0, 50, 0
2, 32940, Control_c, 0, 64, 0
2, 32940, Note_on_c, 0, 69, 85
2, 32940, Note_on_c, 0, 74, 63
2, 32940, Note_on_c, 0, 77, 63
2, 32940, Note_on_c, 0, 82, 63
2, 33029, Note_on_c, 0, 69, 0
2, 33030, Note_on_c, 0, 74, 0
2, 33030, Note_on_c, 0, 77, 0
2, 33030, Note_on_c, 0, 82, 0
2, 33030, Note_on_c, 0, 74, 79
2, 33030, Note_on_c, 0, 77, 79
2, 33030, Note_on_c, 0, 82, 79
2, 33120, Note_on_c, 0, 82, 0
2, 33120, Note_on_c, 0, 77, 0
2, 33120, Note_on_c, 0, 74, 0
2, 33120, Note_on_c, 0, 73, 126
2, 33120, Note_on_c, 0, 77, 126
2, 33120, Note_on_c, 0, 81, 75
2, 33120, Note_on_c, 0, 34, 72
2, 33120, Note_on_c, 0, 41, 72
2, 33209, Note_on_c, 0, 41, 0
2, 33209, Note_on_c, 0, 81, 0
2, 33209, Note_on_c, 0, 34, 0
2, 33210, Note_on_c, 0, 77, 0
2, 33210, Note_on_c, 0, 73, 0
2, 33210, Note_on_c, 0, 76, 125
2, 33300, Note_on_c, 0, 76, 0
2, 33300, Note_on_c, 0, 56, 107
2, 33300, Note_on_c, 0, 58, 107
2, 33300, Note_on_c, 0, 62, 107
2, 33300, Note_on_c, 0, 72, 126
2, 33300, Note_on_c, 0, 76, 126
2, 33300, Note_on_c, 0, 82, 89
2, 33389, Note_on_c, 0, 82, 0
2, 33389, Note_on_c, 0, 58, 0
2, 33389, Note_on_c, 0, 56, 0
2, 33389, Note_on_c, 0, 62, 0
2, 33390, Note_on_c, 0, 72, 0
2, 33390, Note_on_c, 0, 76, 0
2, 33390, Note_on_c, 0, 75, 122
2, 33480, Note_on_c, 0, 75, 0
2, 33480, Note_on_c, 0, 46, 77
2, 33480, Note_on_c, 0, 71, 124
2, 33480, Note_on_c, 0, 75, 124
2, 33480, Note_on_c, 0, 81, 78
2, 33569, Note_on_c, 0, 81, 0
2, 33569, Note_on_c, 0, 46, 0
2, 33570, Note_on_c, 0, 75, 0
2, 33570, Note_on_c, 0, 71, 0
2, 33570, Note_on_c, 0, 74, 121
2, 33660, Note_on_c, 0, 74, 0
2, 33660, Note_on_c, 0, 56, 102
2, 33660, Note_on_c, 0, 62, 102
2, 33660, Note_on_c, 0, 66, 102
2, 33660, Note_on_c, 0, 70, 126
2, 33660, Note_on_c, 0, 74, 126
2, 33660, Note_on_c, 0, 82, 86
2, 33749, Note_on_c, 0, 82, 0
2, 33749, Note_on_c, 0, 62, 0
2, 33749, Note_on_c, 0, 56, 0
2, 33749, Note_on_c, 0, 66, 0
2, 33750, Note_on_c, 0, 70, 0
2, 33750, Note_on_c, 0, 74, 0
2, 33750, Note_on_c, 0, 73, 121
2, 33840, Note_on_c, 0, 73, 0
2, 33840, Note_on_c, 0, 67, 83
2, 33840, Note_on_c, 0, 71, 83
2, 33840, Note_on_c, 0, 75, 83
2, 33840, Note_on_c, 0, 79, 83
2, 33840, Note_on_c, 0, 39, 115
2, 33884, Note_on_c, 0, 79, 0
2, 33884, Note_on_c, 0, 75, 0
2, 33884, Note_on_c, 0, 67, 0
2, 33884, Note_on_c, 0, 71, 0
2, 33884, Note_on_c, 0, 46, 115
2, 33927, Note_on_c, 0, 55, 115
2, 33930, Control_c, 0, 64, 127
2, 33930, Note_on_c, 0, 83, 87
2, 33930, Note_on_c, 0, 67, 87
2, 33975, Note_on_c, 0, 83, 0
2, 33975, Note_on_c, 0, 91, 89
2, 34020, Note_on_c, 0, 91, 0
2, 34020, Note_on_c, 0, 67, 0
2, 34020, Note_on_c, 0, 87, 91
2, 34020, Note_on_c, 0, 95, 91
2, 34020, Note_on_c, 0, 71, 91
2, 34020, Note_on_c, 0, 74, 91
2, 34020, Note_on_c, 0, 75, 91
2, 34110, Note_on_c, 0, 75, 0
2, 34110, Note_on_c, 0, 74, 0
2, 34110, Note_on_c, 0, 95, 0
2, 34110, Note_on_c, 0, 87, 0
2, 34110, Note_on_c, 0, 71, 0
2, 34110, Note_on_c, 0, 94, 94
2, 34110, Note_on_c, 0, 79, 94
2, 34155, Note_on_c, 0, 94, 0
2, 34155, Note_on_c, 0, 103, 113
2, 34200, Note_on_c, 0, 103, 0
2, 34200, Note_on_c, 0, 79, 0
2, 34200, Note_on_c, 0, 99, 127
2, 34200, Note_on_c, 0, 107, 127
2, 34200, Note_on_c, 0, 71, 127
2, 34200, Note_on_c, 0, 74, 127
2, 34200, Note_on_c, 0, 75, 127
2, 34339, Note_on_c, 0, 75, 0
2, 34339, Note_on_c, 0, 74, 0
2, 34339, Note_on_c, 0, 71, 0
2, 34339, Note_on_c, 0, 70, 77
2, 34380, Note_on_c, 0, 70, 0
2, 34380, Note_on_c, 0, 107, 0
2, 34380, Note_on_c, 0, 46, 0
2, 34380, Note_on_c, 0, 99, 0
2, 34380, Note_on_c, 0, 39, 0
2, 34380, Note_on_c, 0, 55, 0
2, 34380, Control_c, 0, 64, 0
2, 34380, Note_on_c, 0, 71, 88
2, 34380, Note_on_c, 0, 72, 62
2, 34380, Note_on_c, 0, 75, 62
2, 34380, Note_on_c, 0, 78, 62
2, 34469, Note_on_c, 0, 71, 0
2, 34470, Note_on_c, 0, 72, 0
2, 34470, Note_on_c, 0, 75, 0
2, 34470, Note_on_c, 0, 78, 0
2, 34470, Note_on_c, 0, 72, 81
2, 34470, Note_on_c, 0, 75, 81
2, 34470, Note_on_c, 0, 78, 81
2, 34560, Note_on_c, 0, 78, 0
2, 34560, Note_on_c, 0, 75, 0
2, 34560, Note_on_c, 0, 72, 0
2, 34560, Note_on_c, 0, 82, 83
2, 34560, Note_on_c, 0, 87, 83
2, 34560, Note_on_c, 0, 51, 83
2, 34560, Note_on_c, 0, 57, 83
2, 34604, Note_on_c, 0, 87, 0
2, 34604, Note_on_c, 0, 82, 0
2, 34650, Note_on_c, 0, 51, 0
2, 34650, Note_on_c, 0, 57, 0
2, 34650, Note_on_c, 0, 79, 84
2, 34650, Note_on_c, 0, 86, 84
2, 34650, Note_on_c, 0, 58, 84
2, 34694, Note_on_c, 0, 86, 0
2, 34694, Note_on_c, 0, 79, 0
2, 34740, Note_on_c, 0, 58, 0
2, 34740, Note_on_c, 0, 82, 84
2, 34740, Note_on_c, 0, 91, 84
2, 34740, Note_on_c, 0, 61, 84
2, 34784, Note_on_c, 0, 91, 0
2, 34784, Note_on_c, 0, 82, 0
2, 34830, Note_on_c, 0, 61, 0
2, 34830, Note_on_c, 0, 81, 85
2, 34830, Note_on_c, 0, 89, 85
2, 34830, Note_on_c, 0, 62, 85
2, 34874, Note_on_c, 0, 89, 0
2, 34874, Note_on_c, 0, 81, 0
2, 34920, Note_on_c, 0, 62, 0
2, 34920, Note_on_c, 0, 82, 86
2, 34920, Note_on_c, 0, 87, 86
2, 34920, Note_on_c, 0, 63, 86
2, 34964, Note_on_c, 0, 87, 0
2, 34964, Note_on_c, 0, 82, 0
2, 35010, Note_on_c, 0, 63, 0
2, 35010, Note_on_c, 0, 78, 86
2, 35010, Note_on_c, 0, 86, 86
2, 35010, Note_on_c, 0, 64, 86
2, 35054, Note_on_c, 0, 86, 0
2, 35054, Note_on_c, 0, 78, 0
2, 35100, Note_on_c, 0, 64, 0
2, 35100, Note_on_c, 0, 79, 87
2, 35100, Note_on_c, 0, 84, 87
2, 35100, Note_on_c, 0, 66, 87
2, 35144, Note_on_c, 0, 84, 0
2, 35144, Note_on_c, 0, 79, 0
2, 35190, Note_on_c, 0, 66, 0
2, 35190, Note_on_c, 0, 78, 87
2, 35190, Note_on_c, 0, 86, 87
2, 35190, Note_on_c, 0, 67, 87
2, 35234, Note_on_c, 0, 86, 0
2, 35234, Note_on_c, 0, 78, 0
2, 35280, Note_on_c, 0, 67, 0
2, 35280, Note_on_c, 0, 75, 88
2, 35280, Note_on_c, 0, 86, 88
2, 35280, Note_on_c, 0, 56, 88
2, 35280, Note_on_c, 0, 41, 88
2, 35280, Note_on_c, 0, 48, 88
2, 35324, Note_on_c, 0, 86, 0
2, 35324, Note_on_c, 0, 75, 0
2, 35370, Note_on_c, 0, 80, 88
2, 35370, Note_on_c, 0, 84, 88
2, 35414, Note_on_c, 0, 84, 0
2, 35414, Note_on_c, 0, 80, 0
2, 35460, Note_on_c, 0, 48, 0
2, 35460, Note_on_c, 0, 56, 0
2, 35460, Note_on_c, 0, 41, 0
2, 35460, Note_on_c, 0, 75, 89
2, 35460, Note_on_c, 0, 83, 89
2, 35460, Note_on_c, 0, 60, 89
2, 35460, Note_on_c, 0, 63, 89
2, 35460, Note_on_c, 0, 67, 89
2, 35504, Note_on_c, 0, 83, 0
2, 35504, Note_on_c, 0, 75, 0
2, 35550, Note_on_c, 0, 80, 89
2, 35550, Note_on_c, 0, 84, 89
2, 35594, Note_on_c, 0, 84, 0
2, 35594, Note_on_c, 0, 80, 0
2, 35640, Note_on_c, 0, 67, 0
2, 35640, Note_on_c, 0, 60, 0
2, 35640, Note_on_c, 0, 63, 0
2, 35640, Note_on_c, 0, 75, 90
2, 35640, Note_on_c, 0, 77, 90
2, 35640, Note_on_c, 0, 59, 90
2, 35640, Note_on_c, 0, 63, 90
2, 35640, Note_on_c, 0, 65, 90
2, 35684, Note_on_c, 0, 77, 0
2, 35684, Note_on_c, 0, 75, 0
2, 35730, Note_on_c, 0, 71, 90
2, 35730, Note_on_c, 0, 79, 90
2, 35774, Note_on_c, 0, 79, 0
2, 35774, Note_on_c, 0, 71, 0
2, 35820, Note_on_c, 0, 65, 0
2, 35820, Note_on_c, 0, 59, 0
2, 35820, Note_on_c, 0, 63, 0
2, 35820, Note_on_c, 0, 75, 91
2, 35820, Note_on_c, 0, 82, 91
2, 35820, Note_on_c, 0, 59, 91
2, 35820, Note_on_c, 0, 44, 91
2, 35820, Note_on_c, 0, 51, 91
2, 35864, Note_on_c, 0, 82, 0
2, 35864, Note_on_c, 0, 75, 0
2, 35910, Note_on_c, 0, 71, 92
2, 35910, Note_on_c, 0, 80, 92
2, 35954, Note_on_c, 0, 80, 0
2, 35954, Note_on_c, 0, 71, 0
2, 36000, Note_on_c, 0, 51, 0
2, 36000, Note_on_c, 0, 59, 0
2, 36000, Note_on_c, 0, 44, 0
2, 36000, Note_on_c, 0, 67, 92
2, 36000, Note_on_c, 0, 79, 92
2, 36000, Note_on_c, 0, 46, 92
2, 36000, Note_on_c, 0, 55, 92
2, 36000, Note_on_c, 0, 58, 92
2, 36044, Note_on_c, 0, 79, 0
2, 36044, Note_on_c, 0, 67, 0
2, 36090, Note_on_c, 0, 68, 93
2, 36090, Note_on_c, 0, 80, 93
2, 36134, Note_on_c, 0, 80, 0
2, 36134, Note_on_c, 0, 68, 0
2, 36180, Note_on_c, 0, 58, 0
2, 36180, Note_on_c, 0, 46, 0
2, 36180, Note_on_c, 0, 55, 0
2, 36180, Note_on_c, 0, 69, 93
2, 36180, Note_on_c, 0, 81, 93
2, 36180, Note_on_c, 0, 58, 93
2, 36180, Note_on_c, 0, 63, 93
2, 36180, Note_on_c, 0, 67, 93
2, 36224, Note_on_c, 0, 81, 0
2, 36224, Note_on_c, 0, 69, 0
2, 36270, Note_on_c, 0, 70, 94
2, 36270, Note_on_c, 0, 82, 94
2, 36314, Note_on_c, 0, 82, 0
2, 36314, Note_on_c, 0, 70, 0
2, 36360, Note_on_c, 0, 67, 0
2, 36360, Note_on_c, 0, 58, 0
2, 36360, Note_on_c, 0, 63, 0
2, 36360, Note_on_c, 0, 71, 94
2, 36360, Note_on_c, 0, 83, 94
2, 36360, Note_on_c, 0, 56, 94
2, 36360, Note_on_c, 0, 59, 94
2, 36360, Note_on_c, 0, 62, 94
2, 36360, Note_on_c, 0, 66, 94
2, 36404, Note_on_c, 0, 83, 0
2, 36404, Note_on_c, 0, 71, 0
2, 36450, Note_on_c, 0, 72, 95
2, 36450, Note_on_c, 0, 84, 95
2, 36494, Note_on_c, 0, 84, 0
2, 36494, Note_on_c, 0, 72, 0
2, 36540, Note_on_c, 0, 56, 0
2, 36540, Note_on_c, 0, 59, 0
2, 36540, Note_on_c, 0, 66, 0
2, 36540, Note_on_c, 0, 62, 0
2, 36540, Note_on_c, 0, 73, 95
2, 36540, Note_on_c, 0, 85, 95
2, 36540, Note_on_c, 0, 32, 95
2, 36540, Note_on_c, 0, 44, 95
2, 36584, Note_on_c, 0, 85, 0
2, 36584, Note_on_c, 0, 73, 0
2, 36630, Note_on_c, 0, 74, 101
2, 36630, Note_on_c, 0, 86, 101
2, 36674, Note_on_c, 0, 86, 0
2, 36674, Note_on_c, 0, 74, 0
2, 36720, Note_on_c, 0, 32, 0
2, 36720, Note_on_c, 0, 44, 0
2, 36720, Note_on_c, 0, 75, 127
2, 36720, Note_on_c, 0, 80, 127
2, 36720, Note_on_c, 0, 84, 127
2, 36720, Note_on_c, 0, 87, 127
2, 36720, Note_on_c, 0, 26, 127
2, 36720, Note_on_c, 0, 38, 127
2, 36810, Note_on_c, 0, 38, 0
2, 36810, Note_on_c, 0, 26, 0
2, 36900, Note_on_c, 0, 84, 0
2, 36900, Note_on_c, 0, 75, 0
2, 36900, Note_on_c, 0, 80, 0
2, 36900, Note_on_c, 0, 87, 0
2, 36900, Control_c, 0, 64, 127
2, 36900, Note_on_c, 0, 45, 90
2, 36926, Note_on_c, 0, 45, 0
2, 36926, Note_on_c, 0, 54, 106
2, 36951, Note_on_c, 0, 54, 0
2, 36951, Note_on_c, 0, 59, 103
2, 36976, Note_on_c, 0, 59, 0
2, 36976, Note_on_c, 0, 60, 103
2, 37003, Note_on_c, 0, 60, 0
2, 37003, Note_on_c, 0, 63, 100
2, 37028, Note_on_c, 0, 63, 0
2, 37028, Note_on_c, 0, 62, 94
2, 37053, Note_on_c, 0, 62, 0
2, 37053, Note_on_c, 0, 68, 111
2, 37080, Note_on_c, 0, 68, 0
2, 37080, Note_on_c, 0, 71, 105
2, 37106, Note_on_c, 0, 71, 0
2, 37106, Note_on_c, 0, 72, 103
2, 37131, Note_on_c, 0, 72, 0
2, 37131, Note_on_c, 0, 75, 106
2, 37156, Note_on_c, 0, 75, 0
2, 37156, Note_on_c, 0, 74, 89
2, 37183, Note_on_c, 0, 74, 0
2, 37183, Note_on_c, 0, 80, 108
2, 37208, Note_on_c, 0, 80, 0
2, 37208, Note_on_c, 0, 83, 106
2, 37233, Note_on_c, 0, 83, 0
2, 37233, Note_on_c, 0, 84, 103
2, 37260, Note_on_c, 0, 84, 0
2, 37260, Note_on_c, 0, 87, 106
2, 37290, Note_on_c, 0, 87, 0
2, 37290, Note_on_c, 0, 86, 69
2, 37319, Note_on_c, 0, 86, 0
2, 37319, Note_on_c, 0, 92, 104
2, 37350, Note_on_c, 0, 92, 0
2, 37350, Note_on_c, 0, 95, 105
2, 37380, Note_on_c, 0, 95, 0
2, 37380, Note_on_c, 0, 96, 104
2, 37409, Note_on_c, 0, 96, 0
2, 37409, Control_c, 0, 64, 0
2, 37409, Note_on_c, 0, 99, 105
2, 37440, Note_on_c, 0, 99, 0
2, 37440, Control_c, 0, 64, 127
2, 37440, Note_on_c, 0, 77, 86
2, 37440, Note_on_c, 0, 81, 86
2, 37440, Note_on_c, 0, 87, 86
2, 37485, Note_on_c, 0, 89, 87
2, 37485, Note_on_c, 0, 93, 87
2, 37530, Note_on_c, 0, 93, 0
2, 37530, Note_on_c, 0, 87, 0
2, 37530, Note_on_c, 0, 77, 0
2, 37530, Note_on_c, 0, 81, 0
2, 37530, Note_on_c, 0, 89, 0
2, 37530, Note_on_c, 0, 94, 113
2, 37530, Note_on_c, 0, 101, 112
2, 37575, Note_on_c, 0, 101, 0
2, 37575, Note_on_c, 0, 89, 78
2, 37575, Note_on_c, 0, 93, 78
2, 37620, Note_on_c, 0, 93, 0
2, 37620, Note_on_c, 0, 89, 0
2, 37620, Note_on_c, 0, 94, 0
2, 37620, Note_on_c, 0, 86, 80
2, 37620, Note_on_c, 0, 78, 80
2, 37620, Note_on_c, 0, 82, 80
2, 37665, Note_on_c, 0, 88, 88
2, 37665, Note_on_c, 0, 92, 88
2, 37710, Note_on_c, 0, 92, 0
2, 37710, Note_on_c, 0, 82, 0
2, 37710, Note_on_c, 0, 86, 0
2, 37710, Note_on_c, 0, 78, 0
2, 37710, Note_on_c, 0, 88, 0
2, 37710, Note_on_c, 0, 93, 113
2, 37710, Note_on_c, 0, 100, 112
2, 37755, Note_on_c, 0, 100, 0
2, 37755, Note_on_c, 0, 88, 84
2, 37755, Note_on_c, 0, 92, 84
2, 37800, Note_on_c, 0, 92, 0
2, 37800, Note_on_c, 0, 88, 0
2, 37800, Note_on_c, 0, 93, 0
2, 37800, Control_c, 0, 64, 0
2, 37800, Control_c, 0, 64, 127
2, 37800, Note_on_c, 0, 85, 76
2, 37800, Note_on_c, 0, 75, 76
2, 37800, Note_on_c, 0, 79, 76
2, 37845, Note_on_c, 0, 87, 86
2, 37845, Note_on_c, 0, 91, 86
2, 37890, Note_on_c, 0, 91, 0
2, 37890, Note_on_c, 0, 79, 0
2, 37890, Note_on_c, 0, 85, 0
2, 37890, Note_on_c, 0, 75, 0
2, 37890, Note_on_c, 0, 87, 0
2, 37890, Note_on_c, 0, 92, 110
2, 37890, Note_on_c, 0, 99, 112
2, 37935, Note_on_c, 0, 99, 0
2, 37935, Note_on_c, 0, 87, 79
2, 37935, Note_on_c, 0, 91, 79
2, 37980, Note_on_c, 0, 91, 0
2, 37980, Note_on_c, 0, 87, 0
2, 37980, Note_on_c, 0, 92, 0
2, 37980, Note_on_c, 0, 84, 82
2, 37980, Note_on_c, 0, 76, 82
2, 37980, Note_on_c, 0, 80, 82
2, 38025, Note_on_c, 0, 86, 94
2, 38025, Note_on_c, 0, 90, 94
2, 38070, Note_on_c, 0, 90, 0
2, 38070, Note_on_c, 0, 80, 0
2, 38070, Note_on_c, 0, 84, 0
2, 38070, Note_on_c, 0, 76, 0
2, 38070, Note_on_c, 0, 86, 0
2, 38070, Note_on_c, 0, 91, 110
2, 38070, Note_on_c, 0, 98, 112
2, 38115, Note_on_c, 0, 98, 0
2, 38115, Note_on_c, 0, 86, 83
2, 38115, Note_on_c, 0, 90, 83
2, 38160, Note_on_c, 0, 90, 0
2, 38160, Note_on_c, 0, 86, 0
2, 38160, Note_on_c, 0, 91, 0
2, 38160, Control_c, 0, 64, 0
2, 38160, Control_c, 0, 64, 127
2, 38160, Note_on_c, 0, 83, 81
2, 38160, Note_on_c, 0, 73, 81
2, 38160, Note_on_c, 0, 77, 81
2, 38205, Note_on_c, 0, 85, 87
2, 38205, Note_on_c, 0, 89, 87
2, 38250, Note_on_c, 0, 89, 0
2, 38250, Note_on_c, 0, 77, 0
2, 38250, Note_on_c, 0, 83, 0
2, 38250, Note_on_c, 0, 73, 0
2, 38250, Note_on_c, 0, 85, 0
2, 38250, Note_on_c, 0, 90, 109
2, 38250, Note_on_c, 0, 97, 110
2, 38295, Note_on_c, 0, 97, 0
2, 38295, Note_on_c, 0, 85, 82
2, 38295, Note_on_c, 0, 89, 82
2, 38340, Note_on_c, 0, 89, 0
2, 38340, Note_on_c, 0, 85, 0
2, 38340, Note_on_c, 0, 90, 0
2, 38340, Note_on_c, 0, 82, 85
2, 38340, Note_on_c, 0, 74, 85
2, 38340, Note_on_c, 0, 78, 85
2, 38385, Note_on_c, 0, 84, 86
2, 38385, Note_on_c, 0, 88, 86
2, 38430, Note_on_c, 0, 88, 0
2, 38430, Note_on_c, 0, 78, 0
2, 38430, Note_on_c, 0, 82, 0
2, 38430, Note_on_c, 0, 74, 0
2, 38430, Note_on_c, 0, 84, 0
2, 38430, Note_on_c, 0, 89, 110
2, 38430, Note_on_c, 0, 96, 114
2, 38475, Note_on_c, 0, 96, 0
2, 38475, Note_on_c, 0, 84, 80
2, 38475, Note_on_c, 0, 88, 80
2, 38520, Note_on_c, 0, 88, 0
2, 38520, Note_on_c, 0, 84, 0
2, 38520, Note_on_c, 0, 89, 0
2, 38520, Control_c, 0, 64, 0
2, 38520, Control_c, 0, 64, 127
2, 38520, Note_on_c, 0, 65, 96
2, 38520, Note_on_c, 0, 69, 96
2, 38520, Note_on_c, 0, 75, 96
2, 38565, Note_on_c, 0, 77, 96
2, 38565, Note_on_c, 0, 81, 96
2, 38610, Note_on_c, 0, 81, 0
2, 38610, Note_on_c, 0, 75, 0
2, 38610, Note_on_c, 0, 65, 0
2, 38610, Note_on_c, 0, 69, 0
2, 38610, Note_on_c, 0, 77, 0
2, 38610, Note_on_c, 0, 82, 95
2, 38610, Note_on_c, 0, 89, 95
2, 38655, Note_on_c, 0, 89, 0
2, 38655, Note_on_c, 0, 77, 95
2, 38655, Note_on_c, 0, 81, 95
2, 38700, Note_on_c, 0, 81, 0
2, 38700, Note_on_c, 0, 77, 0
2, 38700, Note_on_c, 0, 82, 0
2, 38700, Note_on_c, 0, 74, 95
2, 38700, Note_on_c, 0, 66, 95
2, 38700, Note_on_c, 0, 70, 95
2, 38745, Note_on_c, 0, 76, 95
2, 38745, Note_on_c, 0, 80, 95
2, 38790, Note_on_c, 0, 80, 0
2, 38790, Note_on_c, 0, 70, 0
2, 38790, Note_on_c, 0, 74, 0
2, 38790, Note_on_c, 0, 66, 0
2, 38790, Note_on_c, 0, 76, 0
2, 38790, Control_c, 0, 64, 0
2, 38790, Note_on_c, 0, 81, 94
2, 38790, Note_on_c, 0, 88, 94
2, 38835, Note_on_c, 0, 88, 0
2, 38835, Note_on_c, 0, 76, 94
2, 38835, Note_on_c, 0, 80, 94
2, 38880, Note_on_c, 0, 80, 0
2, 38880, Note_on_c, 0, 76, 0
2, 38880, Note_on_c, 0, 81, 0
2, 38880, Control_c, 0, 64, 127
2, 38880, Note_on_c, 0, 73, 94
2, 38880, Note_on_c, 0, 63, 94
2, 38880, Note_on_c, 0, 67, 94
2, 38925, Note_on_c, 0, 75, 94
2, 38925, Note_on_c, 0, 79, 94
2, 38970, Note_on_c, 0, 79, 0
2, 38970, Note_on_c, 0, 67, 0
2, 38970, Note_on_c, 0, 73, 0
2, 38970, Note_on_c, 0, 63, 0
2, 38970, Note_on_c, 0, 75, 0
2, 38970, Note_on_c, 0, 80, 93
2, 38970, Note_on_c, 0, 87, 93
2, 39015, Note_on_c, 0, 87, 0
2, 39015, Note_on_c, 0, 75, 93
2, 39015, Note_on_c, 0, 79, 93
2, 39060, Note_on_c, 0, 79, 0
2, 39060, Note_on_c, 0, 75, 0
2, 39060, Note_on_c, 0, 80, 0
2, 39060, Note_on_c, 0, 72, 93
2, 39060, Note_on_c, 0, 64, 93
2, 39060, Note_on_c, 0, 68, 93
2, 39105, Note_on_c, 0, 74, 93
2, 39105, Note_on_c, 0, 78, 93
2, 39150, Note_on_c, 0, 78, 0
2, 39150, Note_on_c, 0, 68, 0
2, 39150, Note_on_c, 0, 72, 0
2, 39150, Note_on_c, 0, 64, 0
2, 39150, Note_on_c, 0, 74, 0
2, 39150, Control_c, 0, 64, 0
2, 39150, Note_on_c, 0, 79, 92
2, 39150, Note_on_c, 0, 86, 92
2, 39195, Note_on_c, 0, 86, 0
2, 39195, Note_on_c, 0, 74, 92
2, 39195, Note_on_c, 0, 78, 92
2, 39240, Note_on_c, 0, 78, 0
2, 39240, Note_on_c, 0, 74, 0
2, 39240, Note_on_c, 0, 79, 0
2, 39240, Control_c, 0, 64, 127
2, 39240, Note_on_c, 0, 71, 92
2, 39240, Note_on_c, 0, 61, 92
2, 39240, Note_on_c, 0, 65, 92
2, 39285, Note_on_c, 0, 73, 92
2, 39285, Note_on_c, 0, 77, 92
2, 39330, Note_on_c, 0, 77, 0
2, 39330, Note_on_c, 0, 65, 0
2, 39330, Note_on_c, 0, 71, 0
2, 39330, Note_on_c, 0, 61, 0
2, 39330, Note_on_c, 0, 73, 0
2, 39330, Note_on_c, 0, 78, 91
2, 39330, Note_on_c, 0, 85, 91
2, 39375, Note_on_c, 0, 85, 0
2, 39375, Note_on_c, 0, 73, 91
2, 39375, Note_on_c, 0, 77, 91
2, 39420, Note_on_c, 0, 77, 0
2, 39420, Note_on_c, 0, 73, 0
2, 39420, Note_on_c, 0, 78, 0
2, 39420, Note_on_c, 0, 70, 91
2, 39420, Note_on_c, 0, 62, 91
2, 39420, Note_on_c, 0, 66, 91
2, 39465, Note_on_c, 0, 72, 90
2, 39465, Note_on_c, 0, 76, 90
2, 39510, Note_on_c, 0, 76, 0
2, 39510, Note_on_c, 0, 66, 0
2, 39510, Note_on_c, 0, 70, 0
2, 39510, Note_on_c, 0, 62, 0
2, 39510, Note_on_c, 0, 72, 0
2, 39510, Note_on_c, 0, 77, 90
2, 39510, Note_on_c, 0, 84, 90
2, 39555, Note_on_c, 0, 84, 0
2, 39555, Note_on_c, 0, 72, 90
2, 39555, Note_on_c, 0, 76, 90
2, 39600, Note_on_c, 0, 76, 0
2, 39600, Note_on_c, 0, 72, 0
2, 39600, Note_on_c, 0, 77, 0
2, 39600, Control_c, 0, 64, 0
2, 39600, Control_c, 0, 64, 127
2, 39600, Note_on_c, 0, 53, 90
2, 39600, Note_on_c, 0, 57, 90
2, 39600, Note_on_c, 0, 63, 90
2, 39645, Note_on_c, 0, 65, 89
2, 39645, Note_on_c, 0, 69, 89
2, 39690, Note_on_c, 0, 69, 0
2, 39690, Note_on_c, 0, 63, 0
2, 39690, Note_on_c, 0, 53, 0
2, 39690, Note_on_c, 0, 57, 0
2, 39690, Note_on_c, 0, 65, 0
2, 39690, Note_on_c, 0, 70, 89
2, 39690, Note_on_c, 0, 77, 89
2, 39735, Note_on_c, 0, 77, 0
2, 39735, Note_on_c, 0, 65, 89
2, 39735, Note_on_c, 0, 69, 89
2, 39780, Note_on_c, 0, 69, 0
2, 39780, Note_on_c, 0, 65, 0
2, 39780, Note_on_c, 0, 70, 0
2, 39780, Note_on_c, 0, 62, 89
2, 39780, Note_on_c, 0, 54, 89
2, 39780, Note_on_c, 0, 58, 89
2, 39825, Note_on_c, 0, 64, 88
2, 39825, Note_on_c, 0, 68, 88
2, 39870, Note_on_c, 0, 68, 0
2, 39870, Note_on_c, 0, 58, 0
2, 39870, Note_on_c, 0, 62, 0
2, 39870, Note_on_c, 0, 54, 0
2, 39870, Note_on_c, 0, 64, 0
2, 39870, Note_on_c, 0, 69, 88
2, 39870, Note_on_c, 0, 76, 88
2, 39915, Note_on_c, 0, 76, 0
2, 39915, Note_on_c, 0, 64, 88
2, 39915, Note_on_c, 0, 68, 88
2, 39960, Note_on_c, 0, 68, 0
2, 39960, Note_on_c, 0, 64, 0
2, 39960, Note_on_c, 0, 69, 0
2, 39960, Control_c, 0, 64, 0
2, 39960, Control_c, 0, 64, 127
2, 39960, Note_on_c, 0, 61, 88
2, 39960, Note_on_c, 0, 51, 88
2, 39960, Note_on_c, 0, 55, 88
2, 40005, Note_on_c, 0, 63, 87
2, 40005, Note_on_c, 0, 67, 87
2, 40050, Note_on_c, 0, 67, 0
2, 40050, Note_on_c, 0, 55, 0
2, 40050, Note_on_c, 0, 61, 0
2, 40050, Note_on_c, 0, 51, 0
2, 40050, Note_on_c, 0, 63, 0
2, 40050, Note_on_c, 0, 68, 87
2, 40050, Note_on_c, 0, 75, 87
2, 40095, Note_on_c, 0, 75, 0
2, 40095, Note_on_c, 0, 63, 87
2, 40095, Note_on_c, 0, 67, 87
2, 40140, Note_on_c, 0, 67, 0
2, 40140, Note_on_c, 0, 63, 0
2, 40140, Note_on_c, 0, 68, 0
2, 40140, Note_on_c, 0, 60, 86
2, 40140, Note_on_c, 0, 52, 86
2, 40140, Note_on_c, 0, 56, 86
2, 40185, Note_on_c, 0, 62, 86
2, 40185, Note_on_c, 0, 66, 86
2, 40230, Note_on_c, 0, 66, 0
2, 40230, Note_on_c, 0, 56, 0
2, 40230, Note_on_c, 0, 60, 0
2, 40230, Note_on_c, 0, 52, 0
2, 40230, Note_on_c, 0, 62, 0
2, 40230, Note_on_c, 0, 67, 86
2, 40230, Note_on_c, 0, 74, 86
2, 40275, Note_on_c, 0, 74, 0
2, 40275, Note_on_c, 0, 62, 86
2, 40275, Note_on_c, 0, 66, 86
2, 40320, Note_on_c, 0, 66, 0
2, 40320, Note_on_c, 0, 62, 0
2, 40320, Note_on_c, 0, 67, 0
2, 40320, Control_c, 0, 64, 0
2, 40320, Control_c, 0, 64, 127
2, 40320, Note_on_c, 0, 59, 85
2, 40320, Note_on_c, 0, 49, 85
2, 40320, Note_on_c, 0, 53, 85
2, 40365, Note_on_c, 0, 61, 85
2, 40365, Note_on_c, 0, 65, 85
2, 40410, Note_on_c, 0, 65, 0
2, 40410, Note_on_c, 0, 53, 0
2, 40410, Note_on_c, 0, 59, 0
2, 40410, Note_on_c, 0, 49, 0
2, 40410, Note_on_c, 0, 61, 0
2, 40410, Note_on_c, 0, 66, 85
2, 40410, Note_on_c, 0, 73, 85
2, 40455, Note_on_c, 0, 73, 0
2, 40455, Note_on_c, 0, 61, 85
2, 40455, Note_on_c, 0, 65, 85
2, 40500, Note_on_c, 0, 65, 0
2, 40500, Note_on_c, 0, 61, 0
2, 40500, Note_on_c, 0, 66, 0
2, 40500, Note_on_c, 0, 58, 84
2, 40500, Note_on_c, 0, 50, 84
2, 40500, Note_on_c, 0, 54, 84
2, 40545, Note_on_c, 0, 60, 84
2, 40545, Note_on_c, 0, 64, 84
2, 40590, Note_on_c, 0, 64, 0
2, 40590, Note_on_c, 0, 54, 0
2, 40590, Note_on_c, 0, 58, 0
2, 40590, Note_on_c, 0, 50, 0
2, 40590, Note_on_c, 0, 60, 0
2, 40590, Note_on_c, 0, 65, 84
2, 40590, Note_on_c, 0, 72, 84
2, 40635, Note_on_c, 0, 72, 0
2, 40635, Note_on_c, 0, 60, 84
2, 40635, Note_on_c, 0, 64, 84
2, 40680, Note_on_c, 0, 64, 0
2, 40680, Note_on_c, 0, 60, 0
2, 40680, Note_on_c, 0, 65, 0
2, 40680, Control_c, 0, 64, 0
2, 40680, Control_c, 0, 64, 127
2, 40680, Note_on_c, 0, 54, 98
2, 40725, Note_on_c, 0, 60, 75
2, 40770, Note_on_c, 0, 60, 0
2, 40770, Note_on_c, 0, 64, 95
2, 40770, Note_on_c, 0, 68, 95
2, 40815, Note_on_c, 0, 68, 0
2, 40815, Note_on_c, 0, 64, 0
2, 40815, Note_on_c, 0, 69, 93
2, 40860, Note_on_c, 0, 69, 0
2, 40860, Note_on_c, 0, 54, 0
2, 40860, Control_c, 0, 64, 0
2, 40860, Control_c, 0, 64, 127
2, 40860, Note_on_c, 0, 55, 85
2, 40905, Note_on_c, 0, 62, 76
2, 40950, Note_on_c, 0, 62, 0
2, 40950, Note_on_c, 0, 64, 96
2, 40950, Note_on_c, 0, 69, 96
2, 40995, Note_on_c, 0, 69, 0
2, 40995, Note_on_c, 0, 64, 0
2, 40995, Note_on_c, 0, 70, 90
2, 41040, Note_on_c, 0, 70, 0
2, 41040, Note_on_c, 0, 55, 0
2, 41040, Control_c, 0, 64, 0
2, 41040, Control_c, 0, 64, 127
2, 41040, Note_on_c, 0, 56, 80
2, 41085, Note_on_c, 0, 62, 71
2, 41130, Note_on_c, 0, 62, 0
2, 41130, Note_on_c, 0, 65, 100
2, 41130, Note_on_c, 0, 70, 100
2, 41175, Note_on_c, 0, 70, 0
2, 41175, Note_on_c, 0, 65, 0
2, 41175, Note_on_c, 0, 71, 86
2, 41220, Note_on_c, 0, 71, 0
2, 41220, Note_on_c, 0, 56, 0
2, 41220, Control_c, 0, 64, 0
2, 41220, Control_c, 0, 64, 127
2, 41220, Note_on_c, 0, 57, 87
2, 41265, Note_on_c, 0, 63, 73
2, 41310, Note_on_c, 0, 63, 0
2, 41310, Note_on_c, 0, 66, 98
2, 41310, Note_on_c, 0, 71, 98
2, 41355, Note_on_c, 0, 71, 0
2, 41355, Note_on_c, 0, 66, 0
2, 41355, Note_on_c, 0, 72, 90
2, 41400, Note_on_c, 0, 72, 0
2, 41400, Note_on_c, 0, 57, 0
2, 41400, Control_c, 0, 64, 0
2, 41400, Control_c, 0, 64, 127
2, 41400, Note_on_c, 0, 58, 83
2, 41445, Note_on_c, 0, 64, 83
2, 41490, Note_on_c, 0, 64, 0
2, 41490, Note_on_c, 0, 67, 82
2, 41490, Note_on_c, 0, 72, 82
2, 41535, Note_on_c, 0, 72, 0
2, 41535, Note_on_c, 0, 67, 0
2, 41535, Note_on_c, 0, 73, 82
2, 41580, Note_on_c, 0, 73, 0
2, 41580, Note_on_c, 0, 58, 0
2, 41580, Control_c, 0, 64, 0
2, 41580, Control_c, 0, 64, 127
2, 41580, Note_on_c, 0, 59, 82
2, 41625, Note_on_c, 0, 65, 81
2, 41670, Note_on_c, 0, 65, 0
2, 41670, Note_on_c, 0, 68, 81
2, 41670, Note_on_c, 0, 73, 81
2, 41715, Note_on_c, 0, 73, 0
2, 41715, Note_on_c, 0, 68, 0
2, 41715, Note_on_c, 0, 74, 80
2, 41760, Note_on_c, 0, 74, 0
2, 41760, Note_on_c, 0, 59, 0
2, 41760, Control_c, 0, 64, 0
2, 41760, Control_c, 0, 64, 127
2, 41760, Note_on_c, 0, 60, 80
2, 41805, Note_on_c, 0, 66, 80
2, 41850, Note_on_c, 0, 66, 0
2, 41850, Note_on_c, 0, 69, 79
2, 41850, Note_on_c, 0, 74, 79
2, 41895, Note_on_c, 0, 74, 0
2, 41895, Note_on_c, 0, 69, 0
2, 41895, Note_on_c, 0, 75, 79
2, 41940, Note_on_c, 0, 75, 0
2, 41940, Note_on_c, 0, 60, 0
2, 41940, Control_c, 0, 64, 0
2, 41940, Control_c, 0, 64, 127
2, 41940, Note_on_c, 0, 61, 78
2, 41985, Note_on_c, 0, 67, 78
2, 42030, Note_on_c, 0, 67, 0
2, 42030, Note_on_c, 0, 70, 77
2, 42030, Note_on_c, 0, 75, 77
2, 42075, Note_on_c, 0, 75, 0
2, 42075, Note_on_c, 0, 70, 0
2, 42075, Note_on_c, 0, 76, 77
2, 42120, Note_on_c, 0, 76, 0
2, 42120, Note_on_c, 0, 61, 0
2, 42120, Control_c, 0, 64, 0
2, 42120, Control_c, 0, 64, 127
2, 42120, Note_on_c, 0, 62, 77
2, 42165, Note_on_c, 0, 68, 76
2, 42210, Note_on_c, 0, 68, 0
2, 42210, Note_on_c, 0, 71, 76
2, 42210, Note_on_c, 0, 76, 76
2, 42255, Note_on_c, 0, 76, 0
2, 42255, Note_on_c, 0, 71, 0
2, 42255, Note_on_c, 0, 77, 75
2, 42300, Note_on_c, 0, 77, 0
2, 42300, Note_on_c, 0, 62, 0
2, 42300, Control_c, 0, 64, 0
2, 42300, Control_c, 0, 64, 127
2, 42300, Note_on_c, 0, 65, 75
2, 42345, Note_on_c, 0, 71, 74
2, 42390, Note_on_c, 0, 71, 0
2, 42390, Note_on_c, 0, 74, 74
2, 42390, Note_on_c, 0, 79, 74
2, 42435, Note_on_c, 0, 79, 0
2, 42435, Note_on_c, 0, 74, 0
2, 42435, Note_on_c, 0, 80, 74
2, 42480, Note_on_c, 0, 80, 0
2, 42480, Note_on_c, 0, 65, 0
2, 42480, Control_c, 0, 64, 0
2, 42480, Control_c, 0, 64, 127
2, 42480, Note_on_c, 0, 68, 83
2, 42525, Note_on_c, 0, 74, 73
2, 42570, Note_on_c, 0, 74, 0
2, 42570, Note_on_c, 0, 77, 72
2, 42570, Note_on_c, 0, 82, 72
2, 42615, Note_on_c, 0, 82, 0
2, 42615, Note_on_c, 0, 77, 0
2, 42615, Note_on_c, 0, 83, 72
2, 42660, Note_on_c, 0, 83, 0
2, 42660, Note_on_c, 0, 68, 0
2, 42660, Control_c, 0, 64, 0
2, 42660, Control_c, 0, 64, 127
2, 42660, Note_on_c, 0, 71, 81
2, 42705, Note_on_c, 0, 77, 71
2, 42750, Note_on_c, 0, 77, 0
2, 42750, Note_on_c, 0, 80, 80
2, 42750, Note_on_c, 0, 85, 80
2, 42795, Note_on_c, 0, 85, 0
2, 42795, Note_on_c, 0, 80, 0
2, 42795, Note_on_c, 0, 86, 79
2, 42840, Note_on_c, 0, 86, 0
2, 42840, Note_on_c, 0, 71, 0
2, 42840, Control_c, 0, 64, 0
2, 42840, Control_c, 0, 64, 127
2, 42840, Note_on_c, 0, 74, 79
2, 42885, Note_on_c, 0, 80, 53
2, 42930, Note_on_c, 0, 80, 0
2, 42930, Note_on_c, 0, 83, 69
2, 42930, Note_on_c, 0, 88, 69
2, 42975, Note_on_c, 0, 88, 0
2, 42975, Note_on_c, 0, 83, 0
2, 42975, Note_on_c, 0, 89, 62
2, 43020, Note_on_c, 0, 89, 0
2, 43020, Note_on_c, 0, 74, 0
2, 43020, Control_c, 0, 64, 0
2, 43020, Control_c, 0, 64, 127
2, 43020, Note_on_c, 0, 77, 77
2, 43065, Note_on_c, 0, 83, 50
2, 43110, Note_on_c, 0, 83, 0
2, 43110, Note_on_c, 0, 86, 58
2, 43110, Note_on_c, 0, 91, 58
2, 43155, Note_on_c, 0, 91, 0
2, 43155, Note_on_c, 0, 86, 0
2, 43155, Note_on_c, 0, 92, 50
2, 43200, Note_on_c, 0, 92, 0
2, 43200, Note_on_c, 0, 77, 0
2, 43200, Control_c, 0, 64, 0
2, 43200, Control_c, 0, 64, 127
2, 43200, Note_on_c, 0, 80, 74
2, 43245, Note_on_c, 0, 86, 34
2, 43290, Note_on_c, 0, 86, 0
2, 43290, Note_on_c, 0, 89, 50
2, 43290, Note_on_c, 0, 94, 50
2, 43335, Note_on_c, 0, 94, 0
2, 43335, Note_on_c, 0, 89, 0
2, 43335, Note_on_c, 0, 95, 48
2, 43380, Note_on_c, 0, 95, 0
2, 43380, Note_on_c, 0, 80, 0
2, 43380, Control_c, 0, 64, 0
2, 43380, Control_c, 0, 64, 127
2, 43380, Note_on_c, 0, 83, 72
2, 43425, Note_on_c, 0, 89, 38
2, 43470, Note_on_c, 0, 89, 0
2, 43470, Note_on_c, 0, 92, 50
2, 43470, Note_on_c, 0, 97, 50
2, 43515, Note_on_c, 0, 97, 0
2, 43515, Note_on_c, 0, 92, 0
2, 43515, Note_on_c, 0, 98, 51
2, 43560, Note_on_c, 0, 98, 0
2, 43560, Note_on_c, 0, 83, 0
2, 43560, Control_c, 0, 64, 0
2, 43560, Note_on_c, 0, 87, 89
2, 43560, Note_on_c, 0, 90, 89
2, 43560, Note_on_c, 0, 94, 89
2, 43560, Note_on_c, 0, 99, 89
2, 43560, Note_on_c, 0, 27, 55
2, 43560, Note_on_c, 0, 34, 55
2, 43560, Note_on_c, 0, 42, 55
2, 43649, Note_on_c, 0, 42, 0
2, 43649, Note_on_c, 0, 27, 0
2, 43649, Note_on_c, 0, 90, 0
2, 43649, Note_on_c, 0, 94, 0
2, 43649, Note_on_c, 0, 87, 0
2, 43649, Note_on_c, 0, 34, 0
2, 43649, Note_on_c, 0, 99, 0
2, 43740, Note_on_c, 0, 71, 73
2, 43740, Note_on_c, 0, 82, 73
2, 43740, Note_on_c, 0, 58, 77
2, 43740, Note_on_c, 0, 60, 77
2, 43740, Note_on_c, 0, 66, 77
2, 43829, Note_on_c, 0, 66, 0
2, 43829, Note_on_c, 0, 58, 0
2, 43829, Note_on_c, 0, 60, 0
2, 43830, Note_on_c, 0, 82, 0
2, 43830, Note_on_c, 0, 71, 0
2, 43830, Note_on_c, 0, 83, 89
2, 43920, Note_on_c, 0, 83, 0
2, 43920, Note_on_c, 0, 72, 79
2, 43920, Note_on_c, 0, 78, 79
2, 43920, Note_on_c, 0, 82, 79
2, 43920, Note_on_c, 0, 34, 53
2, 43920, Note_on_c, 0, 39, 53
2, 43920, Note_on_c, 0, 46, 53
2, 44009, Note_on_c, 0, 46, 0
2, 44009, Note_on_c, 0, 78, 0
2, 44009, Note_on_c, 0, 82, 0
2, 44009, Note_on_c, 0, 72, 0
2, 44009, Note_on_c, 0, 39, 0
2, 44009, Note_on_c, 0, 34, 0
2, 44100, Note_on_c, 0, 73, 72
2, 44100, Note_on_c, 0, 78, 72
2, 44100, Note_on_c, 0, 58, 76
2, 44100, Note_on_c, 0, 60, 76
2, 44100, Note_on_c, 0, 63, 76
2, 44189, Note_on_c, 0, 63, 0
2, 44189, Note_on_c, 0, 58, 0
2, 44189, Note_on_c, 0, 73, 0
2, 44189, Note_on_c, 0, 78, 0
2, 44189, Note_on_c, 0, 60, 0
2, 44280, Note_on_c, 0, 68, 85
2, 44280, Note_on_c, 0, 74, 85
2, 44280, Note_on_c, 0, 78, 85
2, 44280, Note_on_c, 0, 80, 85
2, 44280, Note_on_c, 0, 35, 65
2, 44280, Note_on_c, 0, 42, 65
2, 44280, Note_on_c, 0, 50, 65
2, 44369, Note_on_c, 0, 50, 0
2, 44369, Note_on_c, 0, 35, 0
2, 44369, Note_on_c, 0, 74, 0
2, 44369, Note_on_c, 0, 78, 0
2, 44369, Note_on_c, 0, 68, 0
2, 44369, Note_on_c, 0, 42, 0
2, 44369, Note_on_c, 0, 80, 0
2, 44460, Note_on_c, 0, 56, 80
2, 44460, Note_on_c, 0, 59, 80
2, 44460, Note_on_c, 0, 62, 80
2, 44460, Note_on_c, 0, 68, 80
2, 44460, Note_on_c, 0, 74, 95
2, 44460, Note_on_c, 0, 78, 95
2, 44460, Note_on_c, 0, 82, 95
2, 44549, Note_on_c, 0, 82, 0
2, 44549, Note_on_c, 0, 74, 0
2, 44549, Note_on_c, 0, 59, 0
2, 44549, Note_on_c, 0, 62, 0
2, 44549, Note_on_c, 0, 56, 0
2, 44549, Note_on_c, 0, 78, 0
2, 44549, Note_on_c, 0, 68, 0
2, 44640, Note_on_c, 0, 74, 94
2, 44640, Note_on_c, 0, 78, 94
2, 44640, Note_on_c, 0, 82, 94
2, 44640, Note_on_c, 0, 56, 70
2, 44640, Note_on_c, 0, 59, 70
2, 44640, Note_on_c, 0, 62, 70
2, 44640, Note_on_c, 0, 66, 70
2, 44957, Note_on_c, 0, 66, 0
2, 44957, Note_on_c, 0, 59, 0
2, 44957, Note_on_c, 0, 78, 0
2, 44957, Note_on_c, 0, 82, 0
2, 44957, Note_on_c, 0, 74, 0
2, 44957, Note_on_c, 0, 62, 0
2, 44957, Note_on_c, 0, 56, 0
2, 45000, Note_on_c, 0, 41, 57
2, 45000, Note_on_c, 0, 70, 106
2, 45000, Note_on_c, 0, 76, 106
2, 45000, Note_on_c, 0, 80, 106
2, 45000, Note_on_c, 0, 82, 106
2, 45044, Note_on_c, 0, 50, 57
2, 45087, Note_on_c, 0, 56, 57
2, 45089, Note_on_c, 0, 82, 0
2, 45089, Note_on_c, 0, 80, 0
2, 45089, Note_on_c, 0, 76, 0
2, 45089, Note_on_c, 0, 70, 0
2, 45180, Note_on_c, 0, 41, 0
2, 45180, Note_on_c, 0, 56, 0
2, 45180, Note_on_c, 0, 50, 0
2, 45180, Note_on_c, 0, 74, 85
2, 45180, Note_on_c, 0, 82, 85
2, 45180, Note_on_c, 0, 56, 66
2, 45180, Note_on_c, 0, 58, 66
2, 45180, Note_on_c, 0, 62, 66
2, 45269, Note_on_c, 0, 62, 0
2, 45269, Note_on_c, 0, 56, 0
2, 45269, Note_on_c, 0, 58, 0
2, 45270, Note_on_c, 0, 82, 0
2, 45270, Note_on_c, 0, 74, 0
2, 45270, Note_on_c, 0, 73, 93
2, 45270, Note_on_c, 0, 83, 93
2, 45360, Note_on_c, 0, 83, 0
2, 45360, Note_on_c, 0, 73, 0
2, 45360, Note_on_c, 0, 72, 80
2, 45360, Note_on_c, 0, 82, 80
2, 45360, Note_on_c, 0, 34, 53
2, 45360, Note_on_c, 0, 41, 53
2, 45449, Note_on_c, 0, 41, 0
2, 45449, Note_on_c, 0, 72, 0
2, 45449, Note_on_c, 0, 82, 0
2, 45449, Note_on_c, 0, 34, 0
2, 45540, Note_on_c, 0, 71, 75
2, 45540, Note_on_c, 0, 74, 75
2, 45540, Note_on_c, 0, 77, 75
2, 45540, Note_on_c, 0, 56, 77
2, 45540, Note_on_c, 0, 59, 77
2, 45540, Note_on_c, 0, 62, 77
2, 45629, Note_on_c, 0, 62, 0
2, 45629, Note_on_c, 0, 74, 0
2, 45629, Note_on_c, 0, 77, 0
2, 45629, Note_on_c, 0, 71, 0
2, 45629, Note_on_c, 0, 59, 0
2, 45629, Note_on_c, 0, 56, 0
2, 45720, Note_on_c, 0, 70, 85
2, 45720, Note_on_c, 0, 75, 85
2, 45720, Note_on_c, 0, 78, 85
2, 45720, Note_on_c, 0, 54, 59
2, 45720, Note_on_c, 0, 39, 59
2, 45720, Note_on_c, 0, 46, 59
2, 45809, Note_on_c, 0, 78, 0
2, 45809, Note_on_c, 0, 70, 0
2, 45809, Note_on_c, 0, 75, 0
2, 45900, Note_on_c, 0, 54, 0
2, 45900, Note_on_c, 0, 39, 0
2, 45900, Note_on_c, 0, 46, 0
2, 45900, Note_on_c, 0, 70, 97
2, 45900, Note_on_c, 0, 75, 97
2, 45900, Note_on_c, 0, 78, 97
2, 45900, Note_on_c, 0, 82, 97
2, 45900, Note_on_c, 0, 54, 73
2, 45900, Note_on_c, 0, 63, 73
2, 45900, Note_on_c, 0, 66, 73
2, 45989, Note_on_c, 0, 66, 0
2, 45989, Note_on_c, 0, 54, 0
2, 45989, Note_on_c, 0, 75, 0
2, 45989, Note_on_c, 0, 78, 0
2, 45989, Note_on_c, 0, 70, 0
2, 45989, Note_on_c, 0, 63, 0
2, 45989, Note_on_c, 0, 82, 0
2, 46080, Note_on_c, 0, 82, 93
2, 46080, Note_on_c, 0, 78, 93
2, 46080, Note_on_c, 0, 70, 91
2, 46080, Note_on_c, 0, 75, 93
2, 46080, Note_on_c, 0, 54, 73
2, 46080, Note_on_c, 0, 60, 73
2, 46080, Note_on_c, 0, 63, 73
2, 46124, Note_on_c, 0, 70, 0
2, 46170, Note_on_c, 0, 75, 0
2, 46170, Note_on_c, 0, 75, 113
2, 46170, Note_on_c, 0, 69, 113
2, 46214, Note_on_c, 0, 69, 0
2, 46214, Note_on_c, 0, 75, 0
2, 46260, Note_on_c, 0, 78, 0
2, 46260, Note_on_c, 0, 75, 111
2, 46260, Note_on_c, 0, 78, 111
2, 46304, Note_on_c, 0, 78, 0
2, 46304, Note_on_c, 0, 75, 0
2, 46350, Note_on_c, 0, 82, 0
2, 46350, Note_on_c, 0, 82, 120
2, 46350, Note_on_c, 0, 70, 120
2, 46394, Note_on_c, 0, 70, 0
2, 46394, Note_on_c, 0, 82, 0
2, 46397, Note_on_c, 0, 54, 0
2, 46397, Note_on_c, 0, 60, 0
2, 46397, Note_on_c, 0, 63, 0
2, 46440, Note_on_c, 0, 83, 85
2, 46440, Note_on_c, 0, 75, 120
2, 46440, Note_on_c, 0, 87, 120
2, 46440, Note_on_c, 0, 51, 64
2, 46440, Note_on_c, 0, 54, 64
2, 46530, Note_on_c, 0, 83, 0
2, 46530, Note_on_c, 0, 82, 76
2, 46598, Note_on_c, 0, 51, 0
2, 46598, Note_on_c, 0, 54, 0
2, 46620, Note_on_c, 0, 75, 0
2, 46620, Note_on_c, 0, 87, 0
2, 46620, Note_on_c, 0, 82, 0
2, 46620, Note_on_c, 0, 82, 84
2, 46620, Note_on_c, 0, 75, 100
2, 46620, Note_on_c, 0, 87, 100
2, 46620, Note_on_c, 0, 58, 76
2, 46620, Note_on_c, 0, 63, 76
2, 46709, Note_on_c, 0, 63, 0
2, 46709, Note_on_c, 0, 58, 0
2, 46710, Note_on_c, 0, 82, 0
2, 46710, Note_on_c, 0, 78, 70
2, 46800, Note_on_c, 0, 78, 0
2, 46800, Note_on_c, 0, 87, 0
2, 46800, Note_on_c, 0, 75, 0
2, 46800, Note_on_c, 0, 83, 88
2, 46800, Note_on_c, 0, 75, 99
2, 46800, Note_on_c, 0, 87, 99
2, 46800, Note_on_c, 0, 49, 66
2, 46800, Note_on_c, 0, 55, 66
2, 46890, Note_on_c, 0, 83, 0
2, 46890, Note_on_c, 0, 82, 79
2, 46958, Note_on_c, 0, 49, 0
2, 46958, Note_on_c, 0, 55, 0
2, 46980, Note_on_c, 0, 75, 0
2, 46980, Note_on_c, 0, 87, 0
2, 46980, Note_on_c, 0, 82, 0
2, 46980, Note_on_c, 0, 82, 84
2, 46980, Note_on_c, 0, 75, 105
2, 46980, Note_on_c, 0, 87, 105
2, 46980, Note_on_c, 0, 58, 72
2, 46980, Note_on_c, 0, 63, 72
2, 47069, Note_on_c, 0, 63, 0
2, 47069, Note_on_c, 0, 58, 0
2, 47070, Note_on_c, 0, 82, 0
2, 47070, Note_on_c, 0, 79, 77
2, 47160, Note_on_c, 0, 79, 0
2, 47160, Note_on_c, 0, 87, 0
2, 47160, Note_on_c, 0, 75, 0
2, 47160, Note_on_c, 0, 83, 93
2, 47160, Note_on_c, 0, 75, 106
2, 47160, Note_on_c, 0, 87, 106
2, 47160, Note_on_c, 0, 51, 68
2, 47160, Note_on_c, 0, 35, 68
2, 47250, Note_on_c, 0, 83, 0
2, 47250, Note_on_c, 0, 82, 95
2, 47250, Note_on_c, 0, 85, 95
2, 47318, Note_on_c, 0, 51, 0
2, 47318, Note_on_c, 0, 35, 0
2, 47340, Note_on_c, 0, 82, 0
2, 47340, Note_on_c, 0, 75, 0
2, 47340, Note_on_c, 0, 85, 0
2, 47340, Note_on_c, 0, 87, 0
2, 47340, Note_on_c, 0, 83, 82
2, 47340, Note_on_c, 0, 80, 82
2, 47340, Note_on_c, 0, 63, 75
2, 47340, Note_on_c, 0, 56, 75
2, 47340, Note_on_c, 0, 59, 75
2, 47430, Note_on_c, 0, 80, 0
2, 47430, Note_on_c, 0, 83, 0
2, 47430, Note_on_c, 0, 82, 81
2, 47430, Note_on_c, 0, 79, 81
2, 47520, Note_on_c, 0, 79, 0
2, 47520, Note_on_c, 0, 63, 0
2, 47520, Note_on_c, 0, 82, 0
2, 47520, Note_on_c, 0, 77, 90
2, 47520, Note_on_c, 0, 80, 70
2, 47520, Note_on_c, 0, 65, 71
2, 47610, Note_on_c, 0, 77, 0
2, 47610, Note_on_c, 0, 76, 99
2, 47700, Note_on_c, 0, 76, 0
2, 47700, Note_on_c, 0, 65, 0
2, 47700, Note_on_c, 0, 59, 0
2, 47700, Note_on_c, 0, 56, 0
2, 47700, Note_on_c, 0, 80, 0
2, 47700, Note_on_c, 0, 83, 93
2, 47700, Note_on_c, 0, 83, 117
2, 47700, Note_on_c, 0, 66, 63
2, 47702, Note_on_c, 0, 83, 0
2, 47702, Note_on_c, 0, 83, 0
2, 47790, Note_on_c, 0, 75, 82
2, 47880, Note_on_c, 0, 75, 0
2, 47880, Note_on_c, 0, 66, 0
2, 47880, Note_on_c, 0, 74, 80
2, 47880, Note_on_c, 0, 82, 80
2, 47880, Note_on_c, 0, 34, 74
2, 47880, Note_on_c, 0, 46, 74
2, 47969, Note_on_c, 0, 82, 0
2, 47969, Note_on_c, 0, 74, 0
2, 48060, Note_on_c, 0, 34, 0
2, 48060, Note_on_c, 0, 46, 0
2, 48060, Note_on_c, 0, 74, 83
2, 48060, Note_on_c, 0, 81, 83
2, 48060, Note_on_c, 0, 82, 83
2, 48060, Note_on_c, 0, 53, 80
2, 48060, Note_on_c, 0, 58, 80
2, 48060, Note_on_c, 0, 62, 80
2, 48149, Note_on_c, 0, 62, 0
2, 48149, Note_on_c, 0, 81, 0
2, 48149, Note_on_c, 0, 82, 0
2, 48149, Note_on_c, 0, 74, 0
2, 48149, Note_on_c, 0, 58, 0
2, 48149, Note_on_c, 0, 53, 0
2, 48240, Note_on_c, 0, 75, 90
2, 48240, Note_on_c, 0, 81, 90
2, 48240, Note_on_c, 0, 82, 90
2, 48240, Note_on_c, 0, 54, 61
2, 48240, Note_on_c, 0, 58, 61
2, 48240, Note_on_c, 0, 63, 61
2, 48329, Note_on_c, 0, 63, 0
2, 48329, Note_on_c, 0, 81, 0
2, 48329, Note_on_c, 0, 82, 0
2, 48329, Note_on_c, 0, 75, 0
2, 48329, Note_on_c, 0, 58, 0
2, 48329, Note_on_c, 0, 54, 0
2, 48420, Note_on_c, 0, 77, 80
2, 48420, Note_on_c, 0, 81, 80
2, 48420, Note_on_c, 0, 82, 80
2, 48420, Note_on_c, 0, 56, 66
2, 48420, Note_on_c, 0, 58, 66
2, 48420, Note_on_c, 0, 65, 66
2, 48509, Note_on_c, 0, 65, 0
2, 48509, Note_on_c, 0, 81, 0
2, 48509, Note_on_c, 0, 82, 0
2, 48509, Note_on_c, 0, 77, 0
2, 48509, Note_on_c, 0, 58, 0
2, 48509, Note_on_c, 0, 56, 0
2, 48600, Note_on_c, 0, 61, 60
2, 48600, Note_on_c, 0, 63, 60
2, 48600, Note_on_c, 0, 66, 60
2, 48600, Note_on_c, 0, 82, 83
2, 48689, Note_on_c, 0, 66, 0
2, 48689, Note_on_c, 0, 61, 0
2, 48689, Note_on_c, 0, 63, 0
2, 48690, Note_on_c, 0, 82, 0
2, 48690, Note_on_c, 0, 80, 80
2, 48780, Note_on_c, 0, 80, 0
2, 48780, Note_on_c, 0, 59, 54
2, 48780, Note_on_c, 0, 65, 54
2, 48780, Note_on_c, 0, 68, 54
2, 48780, Note_on_c, 0, 78, 77
2, 48869, Note_on_c, 0, 68, 0
2, 48869, Note_on_c, 0, 59, 0
2, 48869, Note_on_c, 0, 65, 0
2, 48870, Note_on_c, 0, 78, 0
2, 48870, Note_on_c, 0, 77, 74
2, 48960, Note_on_c, 0, 77, 0
2, 48960, Note_on_c, 0, 70, 64
2, 48960, Note_on_c, 0, 75, 69
2, 48960, Note_on_c, 0, 61, 64
2, 48960, Note_on_c, 0, 66, 64
2, 49050, Note_on_c, 0, 75, 0
2, 49050, Note_on_c, 0, 70, 0
2, 49050, Note_on_c, 0, 70, 63
2, 49118, Note_on_c, 0, 70, 0
2, 49118, Note_on_c, 0, 61, 0
2, 49118, Note_on_c, 0, 66, 0
2, 49140, Note_on_c, 0, 63, 79
2, 49140, Note_on_c, 0, 69, 79
2, 49140, Note_on_c, 0, 75, 79
2, 49140, Note_on_c, 0, 47, 54
2, 49140, Note_on_c, 0, 51, 54
2, 49140, Note_on_c, 0, 54, 54
2, 49140, Note_on_c, 0, 57, 54
2, 49230, Note_on_c, 0, 75, 0
2, 49230, Note_on_c, 0, 63, 0
2, 49230, Note_on_c, 0, 69, 0
2, 49230, Note_on_c, 0, 66, 75
2, 49230, Note_on_c, 0, 78, 75
2, 49298, Note_on_c, 0, 51, 0
2, 49298, Note_on_c, 0, 57, 0
2, 49298, Note_on_c, 0, 47, 0
2, 49298, Note_on_c, 0, 54, 0
2, 49320, Note_on_c, 0, 78, 0
2, 49320, Note_on_c, 0, 66, 0
2, 49320, Control_c, 0, 64, 127
2, 49320, Note_on_c, 0, 70, 93
2, 49320, Note_on_c, 0, 74, 93
2, 49320, Note_on_c, 0, 78, 93
2, 49320, Note_on_c, 0, 82, 93
2, 49320, Note_on_c, 0, 27, 78
2, 49320, Note_on_c, 0, 39, 78
2, 49410, Note_on_c, 0, 39, 0
2, 49410, Note_on_c, 0, 27, 0
2, 49410, Note_on_c, 0, 46, 74
2, 49500, Note_on_c, 0, 46, 0
2, 49500, Note_on_c, 0, 82, 0
2, 49500, Note_on_c, 0, 70, 0
2, 49500, Note_on_c, 0, 74, 0
2, 49500, Note_on_c, 0, 78, 0
2, 49500, Note_on_c, 0, 73, 81
2, 49500, Note_on_c, 0, 78, 81
2, 49500, Note_on_c, 0, 82, 81
2, 49500, Note_on_c, 0, 61, 105
2, 49590, Note_on_c, 0, 61, 0
2, 49590, Note_on_c, 0, 73, 0
2, 49590, Note_on_c, 0, 78, 0
2, 49590, Note_on_c, 0, 82, 0
2, 49590, Note_on_c, 0, 83, 85
2, 49590, Note_on_c, 0, 46, 73
2, 49590, Note_on_c, 0, 54, 73
2, 49680, Note_on_c, 0, 54, 0
2, 49680, Note_on_c, 0, 46, 0
2, 49680, Note_on_c, 0, 83, 0
2, 49680, Note_on_c, 0, 78, 84
2, 49680, Note_on_c, 0, 82, 84
2, 49680, Note_on_c, 0, 62, 99
2, 49680, Note_on_c, 0, 72, 84
2, 49769, Note_on_c, 0, 72, 0
2, 49769, Note_on_c, 0, 78, 0
2, 49769, Note_on_c, 0, 82, 0
2, 49770, Note_on_c, 0, 62, 0
2, 49770, Control_c, 0, 64, 0
2, 49770, Note_on_c, 0, 46, 78
2, 49770, Note_on_c, 0, 54, 78
2, 49860, Note_on_c, 0, 54, 0
2, 49860, Note_on_c, 0, 46, 0
2, 49860, Note_on_c, 0, 71, 69
2, 49860, Note_on_c, 0, 75, 69
2, 49860, Note_on_c, 0, 78, 69
2, 49860, Note_on_c, 0, 63, 105
2, 49949, Note_on_c, 0, 78, 0
2, 49949, Note_on_c, 0, 71, 0
2, 49949, Note_on_c, 0, 75, 0
2, 49950, Note_on_c, 0, 63, 0
2, 49950, Note_on_c, 0, 46, 78
2, 49950, Note_on_c, 0, 54, 78
2, 50040, Note_on_c, 0, 54, 0
2, 50040, Note_on_c, 0, 46, 0
2, 50040, Control_c, 0, 64, 127
2, 50040, Note_on_c, 0, 78, 87
2, 50040, Note_on_c, 0, 80, 87
2, 50040, Note_on_c, 0, 68, 84
2, 50040, Note_on_c, 0, 74, 84
2, 50040, Note_on_c, 0, 28, 78
2, 50040, Note_on_c, 0, 40, 78
2, 50129, Note_on_c, 0, 80, 0
2, 50129, Note_on_c, 0, 78, 0
2, 50130, Note_on_c, 0, 28, 0
2, 50130, Note_on_c, 0, 40, 0
2, 50130, Note_on_c, 0, 47, 73
2, 50220, Note_on_c, 0, 47, 0
2, 50220, Note_on_c, 0, 74, 0
2, 50220, Note_on_c, 0, 68, 0
2, 50220, Note_on_c, 0, 82, 85
2, 50220, Note_on_c, 0, 70, 83
2, 50220, Note_on_c, 0, 73, 83
2, 50220, Note_on_c, 0, 56, 89
2, 50310, Note_on_c, 0, 56, 0
2, 50310, Note_on_c, 0, 73, 0
2, 50310, Note_on_c, 0, 70, 0
2, 50310, Note_on_c, 0, 62, 101
2, 50310, Note_on_c, 0, 71, 77
2, 50400, Note_on_c, 0, 71, 0
2, 50400, Note_on_c, 0, 62, 0
2, 50400, Note_on_c, 0, 82, 0
2, 50400, Control_c, 0, 64, 0
2, 50400, Note_on_c, 0, 82, 99
2, 50400, Note_on_c, 0, 59, 91
2, 50400, Note_on_c, 0, 62, 91
2, 50400, Note_on_c, 0, 66, 91
2, 50400, Note_on_c, 0, 70, 103
2, 50400, Note_on_c, 0, 74, 103
2, 50400, Note_on_c, 0, 78, 103
2, 50490, Note_on_c, 0, 78, 0
2, 50490, Note_on_c, 0, 70, 0
2, 50490, Note_on_c, 0, 74, 0
2, 50490, Note_on_c, 0, 71, 79
2, 50580, Note_on_c, 0, 71, 0
2, 50580, Note_on_c, 0, 70, 104
2, 50580, Note_on_c, 0, 74, 104
2, 50580, Note_on_c, 0, 78, 104
2, 50670, Note_on_c, 0, 78, 0
2, 50670, Note_on_c, 0, 70, 0
2, 50670, Note_on_c, 0, 74, 0
2, 50670, Note_on_c, 0, 68, 67
2, 50717, Note_on_c, 0, 82, 0
2, 50760, Note_on_c, 0, 66, 0
2, 50760, Note_on_c, 0, 59, 0
2, 50760, Note_on_c, 0, 62, 0
2, 50760, Note_on_c, 0, 68, 0
2, 50760, Note_on_c, 0, 71, 105
2, 50760, Note_on_c, 0, 75, 105
2, 50760, Note_on_c, 0, 82, 105
2, 50760, Note_on_c, 0, 25, 77
2, 50760, Note_on_c, 0, 32, 77
2, 50760, Note_on_c, 0, 37, 77
2, 50849, Note_on_c, 0, 37, 0
2, 50849, Note_on_c, 0, 75, 0
2, 50849, Note_on_c, 0, 82, 0
2, 50849, Note_on_c, 0, 71, 0
2, 50849, Note_on_c, 0, 32, 0
2, 50849, Note_on_c, 0, 25, 0
2, 50940, Note_on_c, 0, 59, 105
2, 50940, Note_on_c, 0, 63, 105
2, 50940, Note_on_c, 0, 71, 78
2, 50940, Note_on_c, 0, 75, 78
2, 50940, Note_on_c, 0, 82, 78
2, 51029, Note_on_c, 0, 63, 0
2, 51029, Note_on_c, 0, 59, 0
2, 51030, Note_on_c, 0, 75, 0
2, 51030, Note_on_c, 0, 71, 0
2, 51030, Note_on_c, 0, 82, 0
2, 51030, Note_on_c, 0, 83, 88
2, 51120, Note_on_c, 0, 83, 0
2, 51120, Note_on_c, 0, 34, 76
2, 51120, Note_on_c, 0, 41, 76
2, 51120, Note_on_c, 0, 70, 81
2, 51120, Note_on_c, 0, 76, 81
2, 51120, Note_on_c, 0, 82, 81
2, 51209, Note_on_c, 0, 82, 0
2, 51209, Note_on_c, 0, 70, 0
2, 51209, Note_on_c, 0, 34, 0
2, 51209, Note_on_c, 0, 41, 0
2, 51209, Note_on_c, 0, 76, 0
2, 51300, Note_on_c, 0, 56, 104
2, 51300, Note_on_c, 0, 58, 104
2, 51300, Note_on_c, 0, 62, 104
2, 51300, Note_on_c, 0, 68, 71
2, 51300, Note_on_c, 0, 74, 71
2, 51300, Note_on_c, 0, 77, 71
2, 51389, Note_on_c, 0, 77, 0
2, 51389, Note_on_c, 0, 58, 0
2, 51389, Note_on_c, 0, 62, 0
2, 51389, Note_on_c, 0, 56, 0
2, 51389, Note_on_c, 0, 74, 0
2, 51389, Note_on_c, 0, 68, 0
2, 51480, Note_on_c, 0, 66, 83
2, 51480, Note_on_c, 0, 70, 83
2, 51480, Note_on_c, 0, 75, 83
2, 51480, Note_on_c, 0, 78, 83
2, 51480, Note_on_c, 0, 39, 75
2, 51480, Note_on_c, 0, 46, 75
2, 51569, Note_on_c, 0, 78, 0
2, 51569, Note_on_c, 0, 75, 0
2, 51569, Note_on_c, 0, 66, 0
2, 51569, Note_on_c, 0, 70, 0
2, 51660, Note_on_c, 0, 46, 0
2, 51660, Note_on_c, 0, 39, 0
2, 51660, Note_on_c, 0, 75, 93
2, 51660, Note_on_c, 0, 78, 93
2, 51660, Note_on_c, 0, 82, 93
2, 51660, Note_on_c, 0, 60, 105
2, 51660, Note_on_c, 0, 63, 105
2, 51660, Note_on_c, 0, 66, 105
2, 51660, Note_on_c, 0, 70, 93
2, 51749, Note_on_c, 0, 70, 0
2, 51749, Note_on_c, 0, 63, 0
2, 51749, Note_on_c, 0, 78, 0
2, 51749, Note_on_c, 0, 82, 0
2, 51749, Note_on_c, 0, 75, 0
2, 51749, Note_on_c, 0, 66, 0
2, 51749, Note_on_c, 0, 60, 0
2, 51840, Note_on_c, 0, 78, 94
2, 51840, Note_on_c, 0, 82, 94
2, 51840, Note_on_c, 0, 70, 91
2, 51840, Note_on_c, 0, 75, 94
2, 51840, Note_on_c, 0, 54, 98
2, 51840, Note_on_c, 0, 60, 98
2, 51840, Note_on_c, 0, 63, 98
2, 51840, Note_on_c, 0, 66, 98
2, 51884, Note_on_c, 0, 70, 0
2, 51930, Note_on_c, 0, 75, 0
2, 51930, Note_on_c, 0, 69, 96
2, 51930, Note_on_c, 0, 75, 96
2, 51974, Note_on_c, 0, 75, 0
2, 51974, Note_on_c, 0, 69, 0
2, 52020, Note_on_c, 0, 78, 0
2, 52020, Note_on_c, 0, 75, 98
2, 52020, Note_on_c, 0, 78, 98
2, 52064, Note_on_c, 0, 78, 0
2, 52064, Note_on_c, 0, 75, 0
2, 52110, Note_on_c, 0, 82, 0
2, 52110, Note_on_c, 0, 82, 98
2, 52110, Note_on_c, 0, 70, 98
2, 52154, Note_on_c, 0, 70, 0
2, 52154, Note_on_c, 0, 82, 0
2, 52157, Note_on_c, 0, 60, 0
2, 52157, Note_on_c, 0, 66, 0
2, 52157, Note_on_c, 0, 63, 0
2, 52157, Note_on_c, 0, 54, 0
2, 52200, Note_on_c, 0, 83, 86
2, 52200, Note_on_c, 0, 75, 102
2, 52200, Note_on_c, 0, 87, 102
2, 52200, Note_on_c, 0, 51, 87
2, 52200, Note_on_c, 0, 54, 87
2, 52290, Note_on_c, 0, 83, 0
2, 52290, Note_on_c, 0, 82, 83
2, 52358, Note_on_c, 0, 51, 0
2, 52358, Note_on_c, 0, 54, 0
2, 52380, Note_on_c, 0, 75, 0
2, 52380, Note_on_c, 0, 87, 0
2, 52380, Note_on_c, 0, 82, 0
2, 52380, Note_on_c, 0, 82, 86
2, 52380, Note_on_c, 0, 75, 95
2, 52380, Note_on_c, 0, 87, 95
2, 52380, Note_on_c, 0, 58, 95
2, 52380, Note_on_c, 0, 63, 95
2, 52469, Note_on_c, 0, 63, 0
2, 52469, Note_on_c, 0, 58, 0
2, 52470, Note_on_c, 0, 82, 0
2, 52470, Note_on_c, 0, 78, 74
2, 52560, Note_on_c, 0, 78, 0
2, 52560, Note_on_c, 0, 87, 0
2, 52560, Note_on_c, 0, 75, 0
2, 52560, Note_on_c, 0, 83, 93
2, 52560, Note_on_c, 0, 75, 89
2, 52560, Note_on_c, 0, 87, 89
2, 52560, Note_on_c, 0, 49, 87
2, 52560, Note_on_c, 0, 55, 87
2, 52650, Note_on_c, 0, 83, 0
2, 52650, Note_on_c, 0, 82, 84
2, 52718, Note_on_c, 0, 49, 0
2, 52718, Note_on_c, 0, 55, 0
2, 52740, Note_on_c, 0, 75, 0
2, 52740, Note_on_c, 0, 87, 0
2, 52740, Note_on_c, 0, 82, 0
2, 52740, Note_on_c, 0, 82, 79
2, 52740, Note_on_c, 0, 75, 89
2, 52740, Note_on_c, 0, 87, 89
2, 52740, Note_on_c, 0, 58, 98
2, 52740, Note_on_c, 0, 63, 98
2, 52829, Note_on_c, 0, 63, 0
2, 52829, Note_on_c, 0, 58, 0
2, 52830, Note_on_c, 0, 82, 0
2, 52830, Note_on_c, 0, 79, 74
2, 52920, Note_on_c, 0, 79, 0
2, 52920, Note_on_c, 0, 87, 0
2, 52920, Note_on_c, 0, 75, 0
2, 52920, Note_on_c, 0, 83, 91
2, 52920, Note_on_c, 0, 75, 91
2, 52920, Note_on_c, 0, 87, 91
2, 52920, Note_on_c, 0, 51, 88
2, 52920, Note_on_c, 0, 35, 88
2, 53010, Note_on_c, 0, 83, 0
2, 53010, Note_on_c, 0, 82, 86
2, 53010, Note_on_c, 0, 85, 86
2, 53078, Note_on_c, 0, 51, 0
2, 53078, Note_on_c, 0, 35, 0
2, 53100, Note_on_c, 0, 82, 0
2, 53100, Note_on_c, 0, 75, 0
2, 53100, Note_on_c, 0, 85, 0
2, 53100, Note_on_c, 0, 87, 0
2, 53100, Note_on_c, 0, 83, 82
2, 53100, Note_on_c, 0, 80, 82
2, 53100, Note_on_c, 0, 63, 105
2, 53100, Note_on_c, 0, 56, 105
2, 53100, Note_on_c, 0, 59, 105
2, 53190, Note_on_c, 0, 80, 0
2, 53190, Note_on_c, 0, 83, 0
2, 53190, Note_on_c, 0, 82, 81
2, 53190, Note_on_c, 0, 79, 81
2, 53280, Note_on_c, 0, 79, 0
2, 53280, Note_on_c, 0, 63, 0
2, 53280, Note_on_c, 0, 82, 0
2, 53280, Note_on_c, 0, 77, 81
2, 53280, Note_on_c, 0, 80, 78
2, 53280, Note_on_c, 0, 65, 91
2, 53370, Note_on_c, 0, 77, 0
2, 53370, Note_on_c, 0, 76, 87
2, 53460, Note_on_c, 0, 76, 0
2, 53460, Note_on_c, 0, 65, 0
2, 53460, Note_on_c, 0, 59, 0
2, 53460, Note_on_c, 0, 56, 0
2, 53460, Note_on_c, 0, 80, 0
2, 53460, Note_on_c, 0, 83, 87
2, 53460, Note_on_c, 0, 83, 104
2, 53460, Note_on_c, 0, 66, 86
2, 53462, Note_on_c, 0, 83, 0
2, 53462, Note_on_c, 0, 83, 0
2, 53550, Note_on_c, 0, 75, 74
2, 53640, Note_on_c, 0, 75, 0
2, 53640, Note_on_c, 0, 66, 0
2, 53640, Note_on_c, 0, 74, 78
2, 53640, Note_on_c, 0, 82, 78
2, 53640, Note_on_c, 0, 34, 74
2, 53640, Note_on_c, 0, 41, 74
2, 53640, Note_on_c, 0, 46, 74
2, 53684, Note_on_c, 0, 82, 0
2, 53684, Note_on_c, 0, 74, 0
2, 53730, Note_on_c, 0, 69, 81
2, 53730, Note_on_c, 0, 81, 81
2, 53820, Note_on_c, 0, 81, 0
2, 53820, Note_on_c, 0, 41, 0
2, 53820, Note_on_c, 0, 46, 0
2, 53820, Note_on_c, 0, 34, 0
2, 53820, Note_on_c, 0, 69, 0
2, 53820, Note_on_c, 0, 56, 101
2, 53820, Note_on_c, 0, 58, 101
2, 53820, Note_on_c, 0, 65, 101
2, 53820, Note_on_c, 0, 70, 91
2, 53820, Note_on_c, 0, 82, 91
2, 53910, Note_on_c, 0, 82, 0
2, 53910, Note_on_c, 0, 65, 0
2, 53910, Note_on_c, 0, 56, 0
2, 53910, Note_on_c, 0, 58, 0
2, 53910, Note_on_c, 0, 70, 0
2, 53910, Note_on_c, 0, 69, 75
2, 53910, Note_on_c, 0, 81, 75
2, 53910, Note_on_c, 0, 56, 90
2, 53910, Note_on_c, 0, 58, 90
2, 53910, Note_on_c, 0, 65, 90
2, 54000, Note_on_c, 0, 65, 0
2, 54000, Note_on_c, 0, 56, 0
2, 54000, Note_on_c, 0, 69, 0
2, 54000, Note_on_c, 0, 81, 0
2, 54000, Note_on_c, 0, 58, 0
2, 54000, Note_on_c, 0, 70, 83
2, 54000, Note_on_c, 0, 82, 83
2, 54000, Note_on_c, 0, 56, 83
2, 54000, Note_on_c, 0, 58, 83
2, 54000, Note_on_c, 0, 66, 83
2, 54090, Note_on_c, 0, 82, 0
2, 54090, Note_on_c, 0, 70, 0
2, 54090, Note_on_c, 0, 71, 88
2, 54090, Note_on_c, 0, 83, 88
2, 54180, Note_on_c, 0, 83, 0
2, 54180, Note_on_c, 0, 58, 0
2, 54180, Note_on_c, 0, 66, 0
2, 54180, Note_on_c, 0, 56, 0
2, 54180, Note_on_c, 0, 71, 0
2, 54180, Note_on_c, 0, 72, 92
2, 54180, Note_on_c, 0, 84, 92
2, 54180, Note_on_c, 0, 46, 92
2, 54180, Note_on_c, 0, 58, 92
2, 54270, Note_on_c, 0, 84, 0
2, 54270, Note_on_c, 0, 72, 0
2, 54270, Note_on_c, 0, 74, 98
2, 54270, Note_on_c, 0, 86, 98
2, 54360, Note_on_c, 0, 86, 0
2, 54360, Note_on_c, 0, 58, 0
2, 54360, Note_on_c, 0, 46, 0
2, 54360, Note_on_c, 0, 74, 0
2, 54360, Control_c, 0, 64, 127
2, 54360, Note_on_c, 0, 75, 127
2, 54360, Note_on_c, 0, 79, 127
2, 54360, Note_on_c, 0, 83, 127
2, 54360, Note_on_c, 0, 87, 127
2, 54360, Note_on_c, 0, 55, 90
2, 54360, Note_on_c, 0, 40, 90
2, 54360, Note_on_c, 0, 47, 90
2, 54450, Note_on_c, 0, 87, 0
2, 54450, Note_on_c, 0, 83, 0
2, 54450, Note_on_c, 0, 75, 0
2, 54450, Note_on_c, 0, 79, 0
2, 54450, Note_on_c, 0, 76, 93
2, 54450, Note_on_c, 0, 85, 93
2, 54450, Note_on_c, 0, 52, 91
2, 54540, Note_on_c, 0, 52, 0
2, 54540, Note_on_c, 0, 76, 0
2, 54540, Note_on_c, 0, 85, 0
2, 54540, Note_on_c, 0, 75, 84
2, 54540, Note_on_c, 0, 79, 84
2, 54540, Note_on_c, 0, 59, 107
2, 54630, Note_on_c, 0, 59, 0
2, 54630, Note_on_c, 0, 75, 0
2, 54630, Note_on_c, 0, 79, 0
2, 54630, Note_on_c, 0, 64, 115
2, 54630, Note_on_c, 0, 73, 82
2, 54630, Note_on_c, 0, 76, 82
2, 54720, Note_on_c, 0, 76, 0
2, 54720, Note_on_c, 0, 64, 0
2, 54720, Note_on_c, 0, 73, 0
2, 54720, Note_on_c, 0, 67, 112
2, 54720, Note_on_c, 0, 71, 97
2, 54720, Note_on_c, 0, 75, 97
2, 54810, Note_on_c, 0, 75, 0
2, 54810, Note_on_c, 0, 67, 0
2, 54810, Note_on_c, 0, 71, 0
2, 54810, Note_on_c, 0, 64, 92
2, 54810, Note_on_c, 0, 73, 94
2, 54810, Note_on_c, 0, 76, 94
2, 54810, Note_on_c, 0, 79, 94
2, 54900, Note_on_c, 0, 79, 0
2, 54900, Note_on_c, 0, 73, 0
2, 54900, Note_on_c, 0, 64, 0
2, 54900, Note_on_c, 0, 76, 0
2, 54900, Control_c, 0, 64, 0
2, 54900, Note_on_c, 0, 67, 90
2, 54900, Note_on_c, 0, 63, 100
2, 54990, Note_on_c, 0, 63, 0
2, 54990, Note_on_c, 0, 67, 0
2, 54990, Note_on_c, 0, 64, 86
2, 54990, Note_on_c, 0, 61, 86
2, 55080, Note_on_c, 0, 61, 0
2, 55080, Note_on_c, 0, 47, 0
2, 55080, Note_on_c, 0, 55, 0
2, 55080, Note_on_c, 0, 40, 0
2, 55080, Note_on_c, 0, 64, 0
2, 55080, Note_on_c, 0, 71, 65
2, 55080, Note_on_c, 0, 56, 46
2, 55080, Note_on_c, 0, 62, 46
2, 55080, Note_on_c, 0, 66, 46
2, 55080, Note_on_c, 0, 34, 56
2, 55101, Note_on_c, 0, 71, 0
2, 55104, Note_on_c, 0, 46, 56
2, 55107, Note_on_c, 0, 72, 62
2, 55128, Note_on_c, 0, 72, 0
2, 55134, Note_on_c, 0, 71, 74
2, 55155, Note_on_c, 0, 71, 0
2, 55159, Note_on_c, 0, 72, 69
2, 55179, Note_on_c, 0, 72, 0
2, 55184, Note_on_c, 0, 71, 66
2, 55204, Note_on_c, 0, 71, 0
2, 55208, Note_on_c, 0, 72, 71
2, 55226, Note_on_c, 0, 72, 0
2, 55232, Note_on_c, 0, 71, 72
2, 55250, Note_on_c, 0, 71, 0
2, 55256, Note_on_c, 0, 72, 56
2, 55274, Note_on_c, 0, 72, 0
2, 55278, Note_on_c, 0, 71, 77
2, 55295, Note_on_c, 0, 71, 0
2, 55301, Note_on_c, 0, 72, 62
2, 55318, Note_on_c, 0, 72, 0
2, 55325, Note_on_c, 0, 71, 68
2, 55343, Note_on_c, 0, 71, 0
2, 55349, Note_on_c, 0, 72, 62
2, 55367, Note_on_c, 0, 72, 0
2, 55373, Note_on_c, 0, 71, 74
2, 55391, Note_on_c, 0, 71, 0
2, 55398, Note_on_c, 0, 72, 66
2, 55418, Note_on_c, 0, 72, 0
2, 55423, Note_on_c, 0, 71, 69
2, 55439, Note_on_c, 0, 71, 0
2, 55440, Note_on_c, 0, 46, 0
2, 55440, Note_on_c, 0, 34, 0
2, 55440, Note_on_c, 0, 56, 0
2, 55440, Note_on_c, 0, 62, 0
2, 55440, Note_on_c, 0, 66, 0
2, 55440, Note_on_c, 0, 72, 61
2, 55440, Note_on_c, 0, 58, 81
2, 55440, Note_on_c, 0, 62, 81
2, 55440, Note_on_c, 0, 67, 81
2, 55461, Note_on_c, 0, 72, 0
2, 55467, Note_on_c, 0, 74, 52
2, 55488, Note_on_c, 0, 74, 0
2, 55494, Note_on_c, 0, 72, 63
2, 55515, Note_on_c, 0, 72, 0
2, 55519, Note_on_c, 0, 74, 60
2, 55539, Note_on_c, 0, 74, 0
2, 55544, Note_on_c, 0, 72, 59
2, 55564, Note_on_c, 0, 72, 0
2, 55568, Note_on_c, 0, 74, 51
2, 55586, Note_on_c, 0, 74, 0
2, 55592, Note_on_c, 0, 72, 59
2, 55610, Note_on_c, 0, 72, 0
2, 55616, Note_on_c, 0, 74, 51
2, 55634, Note_on_c, 0, 74, 0
2, 55638, Note_on_c, 0, 72, 65
2, 55655, Note_on_c, 0, 72, 0
2, 55661, Note_on_c, 0, 74, 57
2, 55678, Note_on_c, 0, 74, 0
2, 55685, Note_on_c, 0, 72, 65
2, 55703, Note_on_c, 0, 72, 0
2, 55709, Note_on_c, 0, 74, 48
2, 55727, Note_on_c, 0, 74, 0
2, 55733, Note_on_c, 0, 72, 57
2, 55751, Note_on_c, 0, 72, 0
2, 55758, Note_on_c, 0, 74, 57
2, 55778, Note_on_c, 0, 74, 0
2, 55783, Note_on_c, 0, 72, 62
2, 55799, Note_on_c, 0, 72, 0
2, 55800, Note_on_c, 0, 58, 0
2, 55800, Note_on_c, 0, 62, 0
2, 55800, Note_on_c, 0, 67, 0
2, 55800, Note_on_c, 0, 73, 69
2, 55800, Note_on_c, 0, 58, 66
2, 55800, Note_on_c, 0, 62, 66
2, 55800, Note_on_c, 0, 68, 66
2, 55821, Note_on_c, 0, 73, 0
2, 55827, Note_on_c, 0, 74, 64
2, 55848, Note_on_c, 0, 74, 0
2, 55854, Note_on_c, 0, 73, 60
2, 55875, Note_on_c, 0, 73, 0
2, 55880, Note_on_c, 0, 74, 64
2, 55901, Note_on_c, 0, 74, 0
2, 55907, Note_on_c, 0, 73, 58
2, 55928, Note_on_c, 0, 73, 0
2, 55934, Note_on_c, 0, 74, 59
2, 55955, Note_on_c, 0, 74, 0
2, 55961, Note_on_c, 0, 73, 64
2, 55982, Note_on_c, 0, 73, 0
2, 55986, Note_on_c, 0, 74, 63
2, 56006, Note_on_c, 0, 74, 0
2, 56011, Note_on_c, 0, 73, 68
2, 56031, Note_on_c, 0, 73, 0
2, 56036, Note_on_c, 0, 74, 59
2, 56056, Note_on_c, 0, 74, 0
2, 56062, Note_on_c, 0, 73, 66
2, 56081, Note_on_c, 0, 73, 0
2, 56087, Note_on_c, 0, 74, 62
2, 56107, Note_on_c, 0, 74, 0
2, 56112, Note_on_c, 0, 73, 67
2, 56132, Note_on_c, 0, 73, 0
2, 56138, Note_on_c, 0, 74, 58
2, 56157, Note_on_c, 0, 74, 0
2, 56162, Note_on_c, 0, 73, 66
2, 56180, Note_on_c, 0, 73, 0
2, 56186, Note_on_c, 0, 74, 62
2, 56204, Note_on_c, 0, 74, 0
2, 56209, Note_on_c, 0, 73, 68
2, 56228, Note_on_c, 0, 73, 0
2, 56233, Note_on_c, 0, 74, 59
2, 56252, Note_on_c, 0, 74, 0
2, 56257, Note_on_c, 0, 73, 61
2, 56276, Note_on_c, 0, 73, 0
2, 56281, Note_on_c, 0, 74, 60
2, 56299, Note_on_c, 0, 74, 0
2, 56305, Note_on_c, 0, 73, 67
2, 56323, Note_on_c, 0, 73, 0
2, 56329, Note_on_c, 0, 74, 63
2, 56347, Note_on_c, 0, 74, 0
2, 56353, Note_on_c, 0, 73, 65
2, 56371, Note_on_c, 0, 73, 0
2, 56377, Note_on_c, 0, 74, 60
2, 56395, Note_on_c, 0, 74, 0
2, 56400, Note_on_c, 0, 73, 71
2, 56419, Note_on_c, 0, 73, 0
2, 56424, Note_on_c, 0, 74, 63
2, 56443, Note_on_c, 0, 74, 0
2, 56448, Note_on_c, 0, 73, 66
2, 56467, Note_on_c, 0, 73, 0
2, 56472, Note_on_c, 0, 74, 56
2, 56490, Note_on_c, 0, 74, 0
2, 56496, Note_on_c, 0, 73, 61
2, 56514, Note_on_c, 0, 73, 0
2, 56520, Note_on_c, 0, 74, 59
2, 56538, Note_on_c, 0, 74, 0
2, 56544, Note_on_c, 0, 73, 68
2, 56562, Note_on_c, 0, 73, 0
2, 56568, Note_on_c, 0, 74, 64
2, 56586, Note_on_c, 0, 74, 0
2, 56592, Note_on_c, 0, 73, 59
2, 56610, Note_on_c, 0, 73, 0
2, 56616, Note_on_c, 0, 74, 56
2, 56634, Note_on_c, 0, 74, 0
2, 56640, Note_on_c, 0, 73, 64
2, 56658, Note_on_c, 0, 73, 0
2, 56664, Note_on_c, 0, 74, 61
2, 56682, Note_on_c, 0, 74, 0
2, 56687, Note_on_c, 0, 73, 67
2, 56706, Note_on_c, 0, 73, 0
2, 56711, Note_on_c, 0, 74, 53
2, 56730, Note_on_c, 0, 74, 0
2, 56735, Note_on_c, 0, 73, 72
2, 56754, Note_on_c, 0, 73, 0
2, 56759, Note_on_c, 0, 74, 58
2, 56777, Note_on_c, 0, 74, 0
2, 56783, Note_on_c, 0, 73, 67
2, 56801, Note_on_c, 0, 73, 0
2, 56807, Note_on_c, 0, 74, 61
2, 56825, Note_on_c, 0, 74, 0
2, 56831, Note_on_c, 0, 73, 63
2, 56849, Note_on_c, 0, 73, 0
2, 56855, Note_on_c, 0, 74, 51
2, 56873, Note_on_c, 0, 74, 0
2, 56879, Note_on_c, 0, 73, 58
2, 56897, Note_on_c, 0, 73, 0
2, 56903, Note_on_c, 0, 74, 57
2, 56921, Note_on_c, 0, 74, 0
2, 56927, Note_on_c, 0, 73, 75
2, 56945, Note_on_c, 0, 73, 0
2, 56951, Note_on_c, 0, 74, 53
2, 56969, Note_on_c, 0, 74, 0
2, 56974, Note_on_c, 0, 73, 71
2, 56993, Note_on_c, 0, 73, 0
2, 56998, Note_on_c, 0, 74, 59
2, 57017, Note_on_c, 0, 74, 0
2, 57022, Note_on_c, 0, 73, 59
2, 57041, Note_on_c, 0, 73, 0
2, 57046, Note_on_c, 0, 74, 65
2, 57064, Note_on_c, 0, 74, 0
2, 57070, Note_on_c, 0, 73, 66
2, 57088, Note_on_c, 0, 73, 0
2, 57094, Note_on_c, 0, 74, 61
2, 57112, Note_on_c, 0, 74, 0
2, 57118, Note_on_c, 0, 73, 65
2, 57136, Note_on_c, 0, 73, 0
2, 57142, Note_on_c, 0, 74, 57
2, 57160, Note_on_c, 0, 74, 0
2, 57165, Note_on_c, 0, 73, 66
2, 57184, Note_on_c, 0, 73, 0
2, 57189, Note_on_c, 0, 74, 63
2, 57208, Note_on_c, 0, 74, 0
2, 57213, Note_on_c, 0, 73, 67
2, 57232, Note_on_c, 0, 73, 0
2, 57237, Note_on_c, 0, 74, 56
2, 57240, Note_on_c, 0, 73, 61
2, 57255, Note_on_c, 0, 74, 0
2, 57420, Note_on_c, 0, 73, 0
2, 57420, Note_on_c, 0, 75, 60
2, 57444, Note_on_c, 0, 75, 0
2, 57444, Note_on_c, 0, 74, 61
2, 57468, Note_on_c, 0, 74, 0
2, 57468, Note_on_c, 0, 72, 62
2, 57492, Note_on_c, 0, 72, 0
2, 57492, Note_on_c, 0, 74, 63
2, 57516, Note_on_c, 0, 74, 0
2, 57516, Note_on_c, 0, 75, 64
2, 57540, Note_on_c, 0, 75, 0
2, 57540, Note_on_c, 0, 77, 65
2, 57564, Note_on_c, 0, 77, 0
2, 57564, Note_on_c, 0, 79, 66
2, 57587, Note_on_c, 0, 79, 0
2, 57587, Note_on_c, 0, 81, 67
2, 57611, Note_on_c, 0, 81, 0
2, 57611, Note_on_c, 0, 82, 68
2, 57635, Note_on_c, 0, 82, 0
2, 57635, Note_on_c, 0, 84, 69
2, 57659, Note_on_c, 0, 84, 0
2, 57659, Note_on_c, 0, 74, 70
2, 57683, Note_on_c, 0, 74, 0
2, 57683, Note_on_c, 0, 75, 70
2, 57707, Note_on_c, 0, 75, 0
2, 57707, Note_on_c, 0, 77, 71
2, 57731, Note_on_c, 0, 77, 0
2, 57731, Note_on_c, 0, 79, 72
2, 57755, Note_on_c, 0, 79, 0
2, 57755, Note_on_c, 0, 81, 74
2, 57780, Note_on_c, 0, 81, 0
2, 57780, Note_on_c, 0, 58, 0
2, 57780, Note_on_c, 0, 62, 0
2, 57780, Note_on_c, 0, 68, 0
2, 57780, Note_on_c, 0, 92, 90
2, 57780, Note_on_c, 0, 96, 90
2, 57824, Note_on_c, 0, 96, 0
2, 57824, Note_on_c, 0, 92, 0
2, 57870, Note_on_c, 0, 99, 89
2, 57870, Note_on_c, 0, 94, 89
2, 57914, Note_on_c, 0, 94, 0
2, 57914, Note_on_c, 0, 99, 0
2, 57960, Note_on_c, 0, 103, 66
2, 57960, Note_on_c, 0, 39, 103
2, 57960, Note_on_c, 0, 46, 103
2, 58004, Note_on_c, 0, 46, 0
2, 58004, Note_on_c, 0, 39, 0
2, 58005, Note_on_c, 0, 103, 0
2, 58005, Note_on_c, 0, 98, 69
2, 58050, Note_on_c, 0, 98, 0
2, 58050, Note_on_c, 0, 101, 92
2, 58050, Note_on_c, 0, 54, 92
2, 58095, Note_on_c, 0, 101, 0
2, 58095, Note_on_c, 0, 96, 73
2, 58140, Note_on_c, 0, 96, 0
2, 58140, Note_on_c, 0, 54, 0
2, 58140, Note_on_c, 0, 99, 96
2, 58140, Note_on_c, 0, 54, 103
2, 58140, Note_on_c, 0, 58, 103
2, 58140, Note_on_c, 0, 63, 103
2, 58184, Note_on_c, 0, 63, 0
2, 58184, Note_on_c, 0, 58, 0
2, 58184, Note_on_c, 0, 54, 0
2, 58185, Note_on_c, 0, 99, 0
2, 58185, Note_on_c, 0, 94, 73
2, 58230, Note_on_c, 0, 94, 0
2, 58230, Note_on_c, 0, 98, 93
2, 58230, Note_on_c, 0, 55, 95
2, 58230, Note_on_c, 0, 67, 95
2, 58274, Note_on_c, 0, 67, 0
2, 58274, Note_on_c, 0, 55, 0
2, 58275, Note_on_c, 0, 98, 0
2, 58275, Note_on_c, 0, 90, 66
2, 58320, Note_on_c, 0, 90, 0
2, 58320, Note_on_c, 0, 96, 99
2, 58320, Note_on_c, 0, 34, 76
2, 58320, Note_on_c, 0, 46, 76
2, 58365, Note_on_c, 0, 96, 0
2, 58365, Note_on_c, 0, 91, 73
2, 58409, Note_on_c, 0, 46, 0
2, 58409, Note_on_c, 0, 34, 0
2, 58410, Note_on_c, 0, 91, 0
2, 58410, Note_on_c, 0, 94, 84
2, 58455, Note_on_c, 0, 94, 0
2, 58455, Note_on_c, 0, 86, 66
2, 58500, Note_on_c, 0, 86, 0
2, 58500, Note_on_c, 0, 92, 92
2, 58500, Note_on_c, 0, 55, 106
2, 58500, Note_on_c, 0, 58, 106
2, 58500, Note_on_c, 0, 63, 106
2, 58500, Note_on_c, 0, 67, 106
2, 58545, Note_on_c, 0, 92, 0
2, 58545, Note_on_c, 0, 87, 75
2, 58589, Note_on_c, 0, 63, 0
2, 58589, Note_on_c, 0, 67, 0
2, 58589, Note_on_c, 0, 55, 0
2, 58589, Note_on_c, 0, 58, 0
2, 58590, Note_on_c, 0, 87, 0
2, 58590, Note_on_c, 0, 91, 89
2, 58635, Note_on_c, 0, 91, 0
2, 58635, Note_on_c, 0, 82, 74
2, 58680, Note_on_c, 0, 82, 0
2, 58680, Note_on_c, 0, 90, 101
2, 58680, Note_on_c, 0, 39, 97
2, 58680, Note_on_c, 0, 46, 97
2, 58724, Note_on_c, 0, 46, 0
2, 58724, Note_on_c, 0, 39, 0
2, 58725, Note_on_c, 0, 90, 0
2, 58725, Note_on_c, 0, 86, 78
2, 58770, Note_on_c, 0, 86, 0
2, 58770, Note_on_c, 0, 91, 95
2, 58770, Note_on_c, 0, 54, 86
2, 58815, Note_on_c, 0, 91, 0
2, 58815, Note_on_c, 0, 82, 78
2, 58860, Note_on_c, 0, 82, 0
2, 58860, Note_on_c, 0, 54, 0
2, 58860, Note_on_c, 0, 90, 98
2, 58860, Note_on_c, 0, 54, 99
2, 58860, Note_on_c, 0, 58, 99
2, 58860, Note_on_c, 0, 63, 99
2, 58904, Note_on_c, 0, 63, 0
2, 58904, Note_on_c, 0, 58, 0
2, 58904, Note_on_c, 0, 54, 0
2, 58905, Note_on_c, 0, 90, 0
2, 58905, Note_on_c, 0, 87, 73
2, 58950, Note_on_c, 0, 87, 0
2, 58950, Note_on_c, 0, 91, 93
2, 58950, Note_on_c, 0, 55, 97
2, 58950, Note_on_c, 0, 67, 97
2, 58994, Note_on_c, 0, 67, 0
2, 58994, Note_on_c, 0, 55, 0
2, 58995, Note_on_c, 0, 91, 0
2, 58995, Note_on_c, 0, 82, 71
2, 59040, Note_on_c, 0, 82, 0
2, 59040, Note_on_c, 0, 90, 98
2, 59040, Note_on_c, 0, 63, 112
2, 59040, Note_on_c, 0, 67, 112
2, 59040, Note_on_c, 0, 72, 112
2, 59085, Note_on_c, 0, 90, 0
2, 59085, Note_on_c, 0, 88, 81
2, 59130, Note_on_c, 0, 88, 0
2, 59130, Note_on_c, 0, 72, 0
2, 59130, Note_on_c, 0, 67, 0
2, 59130, Note_on_c, 0, 63, 0
2, 59130, Note_on_c, 0, 91, 90
2, 59130, Note_on_c, 0, 63, 86
2, 59130, Note_on_c, 0, 67, 86
2, 59130, Note_on_c, 0, 71, 86
2, 59175, Note_on_c, 0, 91, 0
2, 59175, Note_on_c, 0, 82, 74
2, 59220, Note_on_c, 0, 82, 0
2, 59220, Note_on_c, 0, 71, 0
2, 59220, Note_on_c, 0, 67, 0
2, 59220, Note_on_c, 0, 63, 0
2, 59220, Note_on_c, 0, 92, 101
2, 59220, Note_on_c, 0, 63, 79
2, 59220, Note_on_c, 0, 67, 79
2, 59220, Note_on_c, 0, 70, 79
2, 59265, Note_on_c, 0, 92, 0
2, 59265, Note_on_c, 0, 88, 79
2, 59309, Note_on_c, 0, 63, 0
2, 59309, Note_on_c, 0, 70, 0
2, 59309, Note_on_c, 0, 67, 0
2, 59310, Note_on_c, 0, 88, 0
2, 59310, Note_on_c, 0, 94, 97
2, 59355, Note_on_c, 0, 94, 0
2, 59355, Note_on_c, 0, 89, 76
2, 59400, Note_on_c, 0, 89, 0
2, 59400, Note_on_c, 0, 96, 103
2, 59400, Note_on_c, 0, 39, 102
2, 59400, Note_on_c, 0, 46, 102
2, 59444, Note_on_c, 0, 46, 0
2, 59444, Note_on_c, 0, 39, 0
2, 59445, Note_on_c, 0, 96, 0
2, 59445, Note_on_c, 0, 91, 75
2, 59490, Note_on_c, 0, 91, 0
2, 59490, Note_on_c, 0, 94, 89
2, 59490, Note_on_c, 0, 54, 89
2, 59535, Note_on_c, 0, 94, 0
2, 59535, Note_on_c, 0, 86, 65
2, 59580, Note_on_c, 0, 86, 0
2, 59580, Note_on_c, 0, 54, 0
2, 59580, Note_on_c, 0, 92, 92
2, 59580, Note_on_c, 0, 54, 100
2, 59580, Note_on_c, 0, 58, 100
2, 59580, Note_on_c, 0, 63, 100
2, 59624, Note_on_c, 0, 63, 0
2, 59624, Note_on_c, 0, 58, 0
2, 59624, Note_on_c, 0, 54, 0
2, 59625, Note_on_c, 0, 92, 0
2, 59625, Note_on_c, 0, 87, 76
2, 59670, Note_on_c, 0, 87, 0
2, 59670, Note_on_c, 0, 91, 88
2, 59670, Note_on_c, 0, 55, 96
2, 59670, Note_on_c, 0, 67, 96
2, 59714, Note_on_c, 0, 67, 0
2, 59714, Note_on_c, 0, 55, 0
2, 59715, Note_on_c, 0, 91, 0
2, 59715, Note_on_c, 0, 82, 76
2, 59760, Note_on_c, 0, 82, 0
2, 59760, Note_on_c, 0, 92, 101
2, 59760, Note_on_c, 0, 34, 72
2, 59760, Note_on_c, 0, 46, 72
2, 59805, Note_on_c, 0, 92, 0
2, 59805, Note_on_c, 0, 86, 72
2, 59849, Note_on_c, 0, 46, 0
2, 59849, Note_on_c, 0, 34, 0
2, 59850, Note_on_c, 0, 86, 0
2, 59850, Note_on_c, 0, 91, 94
2, 59895, Note_on_c, 0, 91, 0
2, 59895, Note_on_c, 0, 82, 74
2, 59940, Note_on_c, 0, 82, 0
2, 59940, Note_on_c, 0, 89, 96
2, 59940, Note_on_c, 0, 55, 107
2, 59940, Note_on_c, 0, 58, 107
2, 59940, Note_on_c, 0, 63, 107
2, 59940, Note_on_c, 0, 67, 107
2, 59985, Note_on_c, 0, 89, 0
2, 59985, Note_on_c, 0, 83, 78
2, 60029, Note_on_c, 0, 63, 0
2, 60029, Note_on_c, 0, 67, 0
2, 60029, Note_on_c, 0, 55, 0
2, 60029, Note_on_c, 0, 58, 0
2, 60030, Note_on_c, 0, 83, 0
2, 60030, Note_on_c, 0, 87, 90
2, 60075, Note_on_c, 0, 87, 0
2, 60075, Note_on_c, 0, 80, 79
2, 60120, Note_on_c, 0, 80, 0
2, 60120, Note_on_c, 0, 86, 93
2, 60120, Note_on_c, 0, 41, 95
2, 60120, Note_on_c, 0, 50, 95
2, 60164, Note_on_c, 0, 50, 0
2, 60164, Note_on_c, 0, 41, 0
2, 60165, Note_on_c, 0, 86, 0
2, 60165, Note_on_c, 0, 82, 82
2, 60210, Note_on_c, 0, 82, 0
2, 60210, Note_on_c, 0, 87, 95
2, 60210, Note_on_c, 0, 55, 90
2, 60255, Note_on_c, 0, 87, 0
2, 60255, Note_on_c, 0, 82, 82
2, 60300, Note_on_c, 0, 82, 0
2, 60300, Note_on_c, 0, 55, 0
2, 60300, Note_on_c, 0, 89, 98
2, 60300, Note_on_c, 0, 55, 100
2, 60300, Note_on_c, 0, 62, 100
2, 60344, Note_on_c, 0, 62, 0
2, 60344, Note_on_c, 0, 55, 0
2, 60345, Note_on_c, 0, 89, 0
2, 60345, Note_on_c, 0, 86, 76
2, 60390, Note_on_c, 0, 86, 0
2, 60390, Note_on_c, 0, 91, 94
2, 60390, Note_on_c, 0, 56, 93
2, 60390, Note_on_c, 0, 58, 93
2, 60390, Note_on_c, 0, 65, 93
2, 60434, Note_on_c, 0, 65, 0
2, 60434, Note_on_c, 0, 58, 0
2, 60434, Note_on_c, 0, 56, 0
2, 60435, Note_on_c, 0, 91, 0
2, 60435, Note_on_c, 0, 86, 78
2, 60480, Note_on_c, 0, 86, 0
2, 60480, Note_on_c, 0, 92, 99
2, 60480, Note_on_c, 0, 65, 121
2, 60480, Note_on_c, 0, 68, 121
2, 60480, Note_on_c, 0, 75, 121
2, 60525, Note_on_c, 0, 92, 0
2, 60525, Note_on_c, 0, 89, 79
2, 60570, Note_on_c, 0, 89, 0
2, 60570, Note_on_c, 0, 75, 0
2, 60570, Note_on_c, 0, 68, 0
2, 60570, Note_on_c, 0, 65, 0
2, 60570, Note_on_c, 0, 94, 97
2, 60570, Note_on_c, 0, 65, 87
2, 60570, Note_on_c, 0, 68, 87
2, 60570, Note_on_c, 0, 74, 87
2, 60615, Note_on_c, 0, 94, 0
2, 60615, Note_on_c, 0, 86, 69
2, 60660, Note_on_c, 0, 86, 0
2, 60660, Note_on_c, 0, 74, 0
2, 60660, Note_on_c, 0, 68, 0
2, 60660, Note_on_c, 0, 65, 0
2, 60660, Note_on_c, 0, 96, 101
2, 60660, Note_on_c, 0, 65, 79
2, 60660, Note_on_c, 0, 68, 79
2, 60660, Note_on_c, 0, 73, 79
2, 60705, Note_on_c, 0, 96, 0
2, 60705, Note_on_c, 0, 94, 79
2, 60749, Note_on_c, 0, 65, 0
2, 60749, Note_on_c, 0, 73, 0
2, 60749, Note_on_c, 0, 68, 0
2, 60750, Note_on_c, 0, 94, 0
2, 60750, Note_on_c, 0, 98, 97
2, 60795, Note_on_c, 0, 98, 0
2, 60795, Note_on_c, 0, 92, 71
2, 60840, Note_on_c, 0, 92, 0
2, 60840, Note_on_c, 0, 101, 98
2, 60840, Note_on_c, 0, 41, 97
2, 60840, Note_on_c, 0, 50, 97
2, 60884, Note_on_c, 0, 50, 0
2, 60884, Note_on_c, 0, 41, 0
2, 60885, Note_on_c, 0, 101, 0
2, 60885, Note_on_c, 0, 96, 68
2, 60930, Note_on_c, 0, 96, 0
2, 60930, Note_on_c, 0, 99, 89
2, 60930, Note_on_c, 0, 55, 82
2, 60975, Note_on_c, 0, 99, 0
2, 60975, Note_on_c, 0, 91, 72
2, 61020, Note_on_c, 0, 91, 0
2, 61020, Note_on_c, 0, 55, 0
2, 61020, Note_on_c, 0, 98, 96
2, 61020, Note_on_c, 0, 55, 97
2, 61020, Note_on_c, 0, 62, 97
2, 61064, Note_on_c, 0, 62, 0
2, 61064, Note_on_c, 0, 55, 0
2, 61065, Note_on_c, 0, 98, 0
2, 61065, Note_on_c, 0, 92, 71
2, 61110, Note_on_c, 0, 92, 0
2, 61110, Note_on_c, 0, 96, 91
2, 61110, Note_on_c, 0, 56, 96
2, 61110, Note_on_c, 0, 58, 96
2, 61110, Note_on_c, 0, 65, 96
2, 61154, Note_on_c, 0, 65, 0
2, 61154, Note_on_c, 0, 58, 0
2, 61154, Note_on_c, 0, 56, 0
2, 61155, Note_on_c, 0, 96, 0
2, 61155, Note_on_c, 0, 87, 68
2, 61200, Note_on_c, 0, 87, 0
2, 61200, Note_on_c, 0, 94, 97
2, 61200, Note_on_c, 0, 34, 73
2, 61200, Note_on_c, 0, 41, 73
2, 61200, Note_on_c, 0, 46, 73
2, 61245, Note_on_c, 0, 94, 0
2, 61245, Note_on_c, 0, 88, 75
2, 61289, Note_on_c, 0, 34, 0
2, 61289, Note_on_c, 0, 46, 0
2, 61289, Note_on_c, 0, 41, 0
2, 61290, Note_on_c, 0, 88, 0
2, 61290, Note_on_c, 0, 92, 91
2, 61335, Note_on_c, 0, 92, 0
2, 61335, Note_on_c, 0, 84, 67
2, 61380, Note_on_c, 0, 84, 0
2, 61380, Note_on_c, 0, 91, 96
2, 61380, Note_on_c, 0, 56, 106
2, 61380, Note_on_c, 0, 62, 106
2, 61380, Note_on_c, 0, 65, 106
2, 61425, Note_on_c, 0, 91, 0
2, 61425, Note_on_c, 0, 84, 70
2, 61469, Note_on_c, 0, 56, 0
2, 61469, Note_on_c, 0, 65, 0
2, 61469, Note_on_c, 0, 62, 0
2, 61470, Note_on_c, 0, 84, 0
2, 61470, Note_on_c, 0, 89, 90
2, 61515, Note_on_c, 0, 89, 0
2, 61515, Note_on_c, 0, 80, 72
2, 61560, Note_on_c, 0, 80, 0
2, 61560, Note_on_c, 0, 88, 99
2, 61560, Note_on_c, 0, 41, 99
2, 61560, Note_on_c, 0, 50, 99
2, 61604, Note_on_c, 0, 50, 0
2, 61604, Note_on_c, 0, 41, 0
2, 61605, Note_on_c, 0, 88, 0
2, 61605, Note_on_c, 0, 85, 79
2, 61650, Note_on_c, 0, 85, 0
2, 61650, Note_on_c, 0, 89, 93
2, 61650, Note_on_c, 0, 55, 86
2, 61695, Note_on_c, 0, 89, 0
2, 61695, Note_on_c, 0, 80, 79
2, 61740, Note_on_c, 0, 80, 0
2, 61740, Note_on_c, 0, 55, 0
2, 61740, Note_on_c, 0, 88, 98
2, 61740, Note_on_c, 0, 55, 97
2, 61740, Note_on_c, 0, 62, 97
2, 61784, Note_on_c, 0, 62, 0
2, 61784, Note_on_c, 0, 55, 0
2, 61785, Note_on_c, 0, 88, 0
2, 61785, Note_on_c, 0, 86, 77
2, 61830, Note_on_c, 0, 86, 0
2, 61830, Note_on_c, 0, 89, 91
2, 61830, Note_on_c, 0, 56, 93
2, 61830, Note_on_c, 0, 58, 93
2, 61830, Note_on_c, 0, 65, 93
2, 61874, Note_on_c, 0, 65, 0
2, 61874, Note_on_c, 0, 58, 0
2, 61874, Note_on_c, 0, 56, 0
2, 61875, Note_on_c, 0, 89, 0
2, 61875, Note_on_c, 0, 80, 74
2, 61920, Note_on_c, 0, 80, 0
2, 61920, Note_on_c, 0, 88, 103
2, 61920, Note_on_c, 0, 65, 119
2, 61920, Note_on_c, 0, 68, 119
2, 61920, Note_on_c, 0, 75, 119
2, 61965, Note_on_c, 0, 88, 0
2, 61965, Note_on_c, 0, 87, 83
2, 62010, Note_on_c, 0, 87, 0
2, 62010, Note_on_c, 0, 75, 0
2, 62010, Note_on_c, 0, 68, 0
2, 62010, Note_on_c, 0, 65, 0
2, 62010, Note_on_c, 0, 89, 86
2, 62010, Note_on_c, 0, 65, 79
2, 62010, Note_on_c, 0, 68, 79
2, 62010, Note_on_c, 0, 74, 79
2, 62055, Note_on_c, 0, 89, 0
2, 62055, Note_on_c, 0, 80, 77
2, 62100, Note_on_c, 0, 80, 0
2, 62100, Note_on_c, 0, 74, 0
2, 62100, Note_on_c, 0, 68, 0
2, 62100, Note_on_c, 0, 65, 0
2, 62100, Note_on_c, 0, 91, 105
2, 62100, Note_on_c, 0, 65, 75
2, 62100, Note_on_c, 0, 68, 75
2, 62100, Note_on_c, 0, 73, 75
2, 62145, Note_on_c, 0, 91, 0
2, 62145, Note_on_c, 0, 88, 81
2, 62189, Note_on_c, 0, 65, 0
2, 62189, Note_on_c, 0, 73, 0
2, 62189, Note_on_c, 0, 68, 0
2, 62190, Note_on_c, 0, 88, 0
2, 62190, Note_on_c, 0, 92, 95
2, 62235, Note_on_c, 0, 92, 0
2, 62235, Note_on_c, 0, 86, 68
2, 62280, Note_on_c, 0, 86, 0
2, 62280, Note_on_c, 0, 94, 99
2, 62280, Note_on_c, 0, 41, 97
2, 62280, Note_on_c, 0, 50, 97
2, 62324, Note_on_c, 0, 50, 0
2, 62324, Note_on_c, 0, 41, 0
2, 62325, Note_on_c, 0, 94, 0
2, 62325, Note_on_c, 0, 88, 72
2, 62370, Note_on_c, 0, 88, 0
2, 62370, Note_on_c, 0, 92, 88
2, 62370, Note_on_c, 0, 55, 86
2, 62415, Note_on_c, 0, 92, 0
2, 62415, Note_on_c, 0, 85, 70
2, 62460, Note_on_c, 0, 85, 0
2, 62460, Note_on_c, 0, 55, 0
2, 62460, Note_on_c, 0, 91, 98
2, 62460, Note_on_c, 0, 55, 99
2, 62460, Note_on_c, 0, 62, 99
2, 62504, Note_on_c, 0, 62, 0
2, 62504, Note_on_c, 0, 55, 0
2, 62505, Note_on_c, 0, 91, 0
2, 62505, Note_on_c, 0, 86, 76
2, 62550, Note_on_c, 0, 86, 0
2, 62550, Note_on_c, 0, 89, 89
2, 62550, Note_on_c, 0, 56, 96
2, 62550, Note_on_c, 0, 58, 96
2, 62550, Note_on_c, 0, 65, 96
2, 62594, Note_on_c, 0, 65, 0
2, 62594, Note_on_c, 0, 58, 0
2, 62594, Note_on_c, 0, 56, 0
2, 62595, Note_on_c, 0, 89, 0
2, 62595, Note_on_c, 0, 80, 75
2, 62640, Note_on_c, 0, 80, 0
2, 62640, Note_on_c, 0, 91, 101
2, 62640, Note_on_c, 0, 34, 75
2, 62640, Note_on_c, 0, 41, 75
2, 62640, Note_on_c, 0, 46, 75
2, 62685, Note_on_c, 0, 91, 0
2, 62685, Note_on_c, 0, 83, 80
2, 62729, Note_on_c, 0, 34, 0
2, 62729, Note_on_c, 0, 46, 0
2, 62729, Note_on_c, 0, 41, 0
2, 62730, Note_on_c, 0, 83, 0
2, 62730, Note_on_c, 0, 89, 94
2, 62775, Note_on_c, 0, 89, 0
2, 62775, Note_on_c, 0, 80, 75
2, 62820, Note_on_c, 0, 80, 0
2, 62820, Note_on_c, 0, 87, 93
2, 62820, Note_on_c, 0, 56, 104
2, 62820, Note_on_c, 0, 62, 104
2, 62820, Note_on_c, 0, 65, 104
2, 62865, Note_on_c, 0, 87, 0
2, 62865, Note_on_c, 0, 80, 74
2, 62909, Note_on_c, 0, 56, 0
2, 62909, Note_on_c, 0, 65, 0
2, 62909, Note_on_c, 0, 62, 0
2, 62910, Note_on_c, 0, 80, 0
2, 62910, Note_on_c, 0, 86, 96
2, 62955, Note_on_c, 0, 86, 0
2, 62955, Note_on_c, 0, 77, 76
2, 63000, Note_on_c, 0, 77, 0
2, 63000, Note_on_c, 0, 87, 102
2, 63000, Note_on_c, 0, 39, 100
2, 63000, Note_on_c, 0, 46, 100
2, 63044, Note_on_c, 0, 46, 0
2, 63044, Note_on_c, 0, 39, 0
2, 63045, Note_on_c, 0, 87, 0
2, 63045, Note_on_c, 0, 84, 78
2, 63090, Note_on_c, 0, 84, 0
2, 63090, Note_on_c, 0, 89, 91
2, 63090, Note_on_c, 0, 54, 90
2, 63135, Note_on_c, 0, 89, 0
2, 63135, Note_on_c, 0, 84, 74
2, 63180, Note_on_c, 0, 84, 0
2, 63180, Note_on_c, 0, 54, 0
2, 63180, Note_on_c, 0, 91, 94
2, 63180, Note_on_c, 0, 54, 103
2, 63180, Note_on_c, 0, 58, 103
2, 63180, Note_on_c, 0, 63, 103
2, 63224, Note_on_c, 0, 63, 0
2, 63224, Note_on_c, 0, 58, 0
2, 63224, Note_on_c, 0, 54, 0
2, 63225, Note_on_c, 0, 91, 0
2, 63225, Note_on_c, 0, 87, 76
2, 63270, Note_on_c, 0, 87, 0
2, 63270, Note_on_c, 0, 92, 94
2, 63270, Note_on_c, 0, 55, 100
2, 63270, Note_on_c, 0, 67, 100
2, 63314, Note_on_c, 0, 67, 0
2, 63314, Note_on_c, 0, 55, 0
2, 63315, Note_on_c, 0, 92, 0
2, 63315, Note_on_c, 0, 85, 75
2, 63360, Note_on_c, 0, 85, 0
2, 63360, Note_on_c, 0, 94, 97
2, 63360, Note_on_c, 0, 63, 115
2, 63360, Note_on_c, 0, 67, 115
2, 63360, Note_on_c, 0, 72, 115
2, 63405, Note_on_c, 0, 94, 0
2, 63405, Note_on_c, 0, 91, 81
2, 63450, Note_on_c, 0, 91, 0
2, 63450, Note_on_c, 0, 72, 0
2, 63450, Note_on_c, 0, 67, 0
2, 63450, Note_on_c, 0, 63, 0
2, 63450, Note_on_c, 0, 96, 92
2, 63450, Note_on_c, 0, 63, 81
2, 63450, Note_on_c, 0, 67, 81
2, 63450, Note_on_c, 0, 71, 81
2, 63495, Note_on_c, 0, 96, 0
2, 63495, Note_on_c, 0, 91, 76
2, 63540, Note_on_c, 0, 91, 0
2, 63540, Note_on_c, 0, 71, 0
2, 63540, Note_on_c, 0, 67, 0
2, 63540, Note_on_c, 0, 63, 0
2, 63540, Note_on_c, 0, 98, 99
2, 63540, Note_on_c, 0, 63, 80
2, 63540, Note_on_c, 0, 67, 80
2, 63540, Note_on_c, 0, 70, 80
2, 63585, Note_on_c, 0, 98, 0
2, 63585, Note_on_c, 0, 94, 76
2, 63629, Note_on_c, 0, 63, 0
2, 63629, Note_on_c, 0, 70, 0
2, 63629, Note_on_c, 0, 67, 0
2, 63630, Note_on_c, 0, 94, 0
2, 63630, Note_on_c, 0, 99, 95
2, 63720, Note_on_c, 0, 99, 0
2, 63720, Note_on_c, 0, 103, 120
2, 63720, Note_on_c, 0, 67, 52
2, 63720, Note_on_c, 0, 67, 100
2, 63722, Note_on_c, 0, 67, 0
2, 63722, Note_on_c, 0, 67, 0
2, 63855, Note_on_c, 0, 103, 0
2, 63855, Note_on_c, 0, 93, 63
2, 63900, Note_on_c, 0, 93, 0
2, 63900, Note_on_c, 0, 99, 93
2, 63900, Note_on_c, 0, 51, 52
2, 63900, Note_on_c, 0, 58, 52
2, 63945, Note_on_c, 0, 99, 0
2, 63945, Note_on_c, 0, 94, 76
2, 63990, Note_on_c, 0, 94, 0
2, 63990, Note_on_c, 0, 98, 90
2, 64035, Note_on_c, 0, 98, 0
2, 64035, Note_on_c, 0, 90, 68
2, 64080, Note_on_c, 0, 90, 0
2, 64080, Note_on_c, 0, 58, 0
2, 64080, Note_on_c, 0, 51, 0
2, 64080, Note_on_c, 0, 82, 102
2, 64080, Note_on_c, 0, 82, 77
2, 64080, Note_on_c, 0, 96, 91
2, 64082, Note_on_c, 0, 82, 0
2, 64082, Note_on_c, 0, 82, 0
2, 64125, Note_on_c, 0, 96, 0
2, 64125, Note_on_c, 0, 91, 74
2, 64170, Note_on_c, 0, 91, 0
2, 64170, Note_on_c, 0, 75, 49
2, 64170, Note_on_c, 0, 94, 89
2, 64215, Note_on_c, 0, 94, 0
2, 64215, Note_on_c, 0, 86, 64
2, 64260, Note_on_c, 0, 86, 0
2, 64260, Note_on_c, 0, 75, 0
2, 64260, Note_on_c, 0, 70, 50
2, 64260, Note_on_c, 0, 92, 96
2, 64305, Note_on_c, 0, 92, 0
2, 64305, Note_on_c, 0, 87, 76
2, 64350, Note_on_c, 0, 87, 0
2, 64350, Note_on_c, 0, 70, 0
2, 64350, Note_on_c, 0, 75, 66
2, 64350, Note_on_c, 0, 91, 90
2, 64395, Note_on_c, 0, 91, 0
2, 64395, Note_on_c, 0, 82, 75
2, 64440, Note_on_c, 0, 82, 0
2, 64440, Note_on_c, 0, 75, 0
2, 64440, Note_on_c, 0, 80, 77
2, 64440, Note_on_c, 0, 80, 68
2, 64440, Note_on_c, 0, 90, 96
2, 64442, Note_on_c, 0, 80, 0
2, 64442, Note_on_c, 0, 80, 0
2, 64485, Note_on_c, 0, 90, 0
2, 64485, Note_on_c, 0, 86, 73
2, 64530, Note_on_c, 0, 86, 0
2, 64530, Note_on_c, 0, 75, 51
2, 64530, Note_on_c, 0, 91, 95
2, 64575, Note_on_c, 0, 91, 0
2, 64575, Note_on_c, 0, 82, 79
2, 64620, Note_on_c, 0, 82, 0
2, 64620, Note_on_c, 0, 75, 0
2, 64620, Note_on_c, 0, 70, 50
2, 64620, Note_on_c, 0, 90, 100
2, 64665, Note_on_c, 0, 90, 0
2, 64665, Note_on_c, 0, 87, 79
2, 64710, Note_on_c, 0, 87, 0
2, 64710, Note_on_c, 0, 70, 0
2, 64710, Note_on_c, 0, 75, 71
2, 64710, Note_on_c, 0, 91, 90
2, 64755, Note_on_c, 0, 91, 0
2, 64755, Note_on_c, 0, 82, 75
2, 64800, Note_on_c, 0, 82, 0
2, 64800, Note_on_c, 0, 75, 0
2, 64800, Note_on_c, 0, 77, 80
2, 64800, Note_on_c, 0, 77, 70
2, 64800, Note_on_c, 0, 90, 97
2, 64802, Note_on_c, 0, 77, 0
2, 64802, Note_on_c, 0, 77, 0
2, 64845, Note_on_c, 0, 90, 0
2, 64845, Note_on_c, 0, 88, 76
2, 64890, Note_on_c, 0, 88, 0
2, 64890, Note_on_c, 0, 91, 95
2, 64890, Note_on_c, 0, 75, 61
2, 64935, Note_on_c, 0, 91, 0
2, 64935, Note_on_c, 0, 82, 73
2, 64980, Note_on_c, 0, 82, 0
2, 64980, Note_on_c, 0, 75, 0
2, 64980, Note_on_c, 0, 92, 98
2, 64980, Note_on_c, 0, 70, 57
2, 65025, Note_on_c, 0, 92, 0
2, 65025, Note_on_c, 0, 88, 78
2, 65070, Note_on_c, 0, 88, 0
2, 65070, Note_on_c, 0, 70, 0
2, 65070, Note_on_c, 0, 94, 97
2, 65070, Note_on_c, 0, 75, 66
2, 65115, Note_on_c, 0, 94, 0
2, 65115, Note_on_c, 0, 89, 77
2, 65160, Note_on_c, 0, 89, 0
2, 65160, Note_on_c, 0, 75, 0
2, 65160, Note_on_c, 0, 96, 104
2, 65160, Note_on_c, 0, 77, 89
2, 65160, Note_on_c, 0, 77, 70
2, 65162, Note_on_c, 0, 77, 0
2, 65162, Note_on_c, 0, 77, 0
2, 65205, Note_on_c, 0, 96, 0
2, 65205, Note_on_c, 0, 91, 77
2, 65250, Note_on_c, 0, 91, 0
2, 65250, Note_on_c, 0, 94, 88
2, 65250, Note_on_c, 0, 67, 49
2, 65295, Note_on_c, 0, 94, 0
2, 65295, Note_on_c, 0, 86, 66
2, 65340, Note_on_c, 0, 86, 0
2, 65340, Note_on_c, 0, 67, 0
2, 65340, Note_on_c, 0, 92, 93
2, 65340, Note_on_c, 0, 58, 55
2, 65385, Note_on_c, 0, 92, 0
2, 65385, Note_on_c, 0, 87, 73
2, 65430, Note_on_c, 0, 87, 0
2, 65430, Note_on_c, 0, 58, 0
2, 65430, Note_on_c, 0, 91, 88
2, 65430, Note_on_c, 0, 67, 75
2, 65475, Note_on_c, 0, 91, 0
2, 65475, Note_on_c, 0, 82, 66
2, 65520, Note_on_c, 0, 82, 0
2, 65520, Note_on_c, 0, 67, 0
2, 65520, Note_on_c, 0, 75, 81
2, 65520, Note_on_c, 0, 75, 72
2, 65520, Note_on_c, 0, 92, 101
2, 65522, Note_on_c, 0, 75, 0
2, 65522, Note_on_c, 0, 75, 0
2, 65565, Note_on_c, 0, 92, 0
2, 65565, Note_on_c, 0, 86, 73
2, 65610, Note_on_c, 0, 86, 0
2, 65610, Note_on_c, 0, 67, 47
2, 65610, Note_on_c, 0, 91, 90
2, 65655, Note_on_c, 0, 91, 0
2, 65655, Note_on_c, 0, 82, 67
2, 65700, Note_on_c, 0, 82, 0
2, 65700, Note_on_c, 0, 67, 0
2, 65700, Note_on_c, 0, 58, 46
2, 65700, Note_on_c, 0, 89, 92
2, 65745, Note_on_c, 0, 89, 0
2, 65745, Note_on_c, 0, 83, 72
2, 65789, Note_on_c, 0, 58, 0
2, 65790, Note_on_c, 0, 83, 0
2, 65790, Note_on_c, 0, 87, 90
2, 65835, Note_on_c, 0, 87, 0
2, 65835, Note_on_c, 0, 78, 65
2, 65880, Note_on_c, 0, 78, 0
2, 65880, Note_on_c, 0, 86, 103
2, 65880, Note_on_c, 0, 58, 69
2, 65880, Note_on_c, 0, 65, 69
2, 65924, Note_on_c, 0, 65, 0
2, 65924, Note_on_c, 0, 58, 0
2, 65925, Note_on_c, 0, 86, 0
2, 65925, Note_on_c, 0, 80, 75
2, 65970, Note_on_c, 0, 80, 0
2, 65970, Note_on_c, 0, 82, 94
2, 65970, Note_on_c, 0, 87, 94
2, 65970, Note_on_c, 0, 62, 87
2, 65970, Note_on_c, 0, 68, 87
2, 66014, Note_on_c, 0, 68, 0
2, 66014, Note_on_c, 0, 62, 0
2, 66015, Note_on_c, 0, 87, 0
2, 66015, Note_on_c, 0, 82, 0
2, 66015, Note_on_c, 0, 80, 71
2, 66060, Note_on_c, 0, 80, 0
2, 66060, Note_on_c, 0, 82, 94
2, 66060, Note_on_c, 0, 86, 94
2, 66060, Note_on_c, 0, 65, 90
2, 66060, Note_on_c, 0, 70, 90
2, 66104, Note_on_c, 0, 70, 0
2, 66104, Note_on_c, 0, 65, 0
2, 66105, Note_on_c, 0, 86, 0
2, 66105, Note_on_c, 0, 82, 0
2, 66105, Note_on_c, 0, 80, 70
2, 66150, Note_on_c, 0, 80, 0
2, 66150, Note_on_c, 0, 84, 92
2, 66150, Note_on_c, 0, 68, 93
2, 66150, Note_on_c, 0, 74, 93
2, 66194, Note_on_c, 0, 74, 0
2, 66194, Note_on_c, 0, 68, 0
2, 66195, Note_on_c, 0, 84, 0
2, 66195, Note_on_c, 0, 79, 75
2, 66240, Note_on_c, 0, 79, 0
2, 66240, Note_on_c, 0, 77, 92
2, 66240, Note_on_c, 0, 80, 95
2, 66240, Note_on_c, 0, 86, 95
2, 66284, Note_on_c, 0, 86, 0
2, 66284, Note_on_c, 0, 80, 0
2, 66284, Note_on_c, 0, 77, 0
2, 66330, Note_on_c, 0, 70, 80
2, 66330, Note_on_c, 0, 76, 80
2, 66330, Note_on_c, 0, 86, 87
2, 66374, Note_on_c, 0, 76, 0
2, 66374, Note_on_c, 0, 70, 0
2, 66375, Note_on_c, 0, 86, 0
2, 66375, Note_on_c, 0, 77, 67
2, 66420, Note_on_c, 0, 77, 0
2, 66420, Note_on_c, 0, 74, 95
2, 66420, Note_on_c, 0, 79, 95
2, 66420, Note_on_c, 0, 84, 93
2, 66464, Note_on_c, 0, 79, 0
2, 66464, Note_on_c, 0, 74, 0
2, 66465, Note_on_c, 0, 84, 0
2, 66465, Note_on_c, 0, 77, 69
2, 66510, Note_on_c, 0, 77, 0
2, 66510, Note_on_c, 0, 70, 76
2, 66510, Note_on_c, 0, 76, 76
2, 66510, Note_on_c, 0, 82, 93
2, 66554, Note_on_c, 0, 76, 0
2, 66554, Note_on_c, 0, 70, 0
2, 66555, Note_on_c, 0, 82, 0
2, 66555, Note_on_c, 0, 77, 74
2, 66600, Note_on_c, 0, 77, 0
2, 66600, Note_on_c, 0, 81, 95
2, 66600, Note_on_c, 0, 65, 73
2, 66600, Note_on_c, 0, 71, 73
2, 66644, Note_on_c, 0, 71, 0
2, 66644, Note_on_c, 0, 65, 0
2, 66645, Note_on_c, 0, 81, 0
2, 66645, Note_on_c, 0, 72, 69
2, 66690, Note_on_c, 0, 72, 0
2, 66690, Note_on_c, 0, 69, 91
2, 66690, Note_on_c, 0, 74, 91
2, 66690, Note_on_c, 0, 82, 104
2, 66734, Note_on_c, 0, 74, 0
2, 66734, Note_on_c, 0, 69, 0
2, 66735, Note_on_c, 0, 82, 0
2, 66735, Note_on_c, 0, 72, 67
2, 66780, Note_on_c, 0, 72, 0
2, 66780, Note_on_c, 0, 71, 77
2, 66780, Note_on_c, 0, 81, 106
2, 66780, Note_on_c, 0, 60, 77
2, 66824, Note_on_c, 0, 60, 0
2, 66824, Note_on_c, 0, 71, 0
2, 66825, Note_on_c, 0, 81, 0
2, 66825, Note_on_c, 0, 72, 65
2, 66870, Note_on_c, 0, 72, 0
2, 66870, Note_on_c, 0, 69, 89
2, 66870, Note_on_c, 0, 74, 89
2, 66870, Note_on_c, 0, 80, 96
2, 66914, Note_on_c, 0, 74, 0
2, 66914, Note_on_c, 0, 69, 0
2, 66915, Note_on_c, 0, 80, 0
2, 66915, Note_on_c, 0, 72, 70
2, 66960, Note_on_c, 0, 72, 0
2, 66960, Note_on_c, 0, 65, 71
2, 66960, Note_on_c, 0, 71, 71
2, 66960, Note_on_c, 0, 81, 99
2, 67004, Note_on_c, 0, 71, 0
2, 67004, Note_on_c, 0, 65, 0
2, 67050, Note_on_c, 0, 81, 0
2, 67050, Note_on_c, 0, 69, 93
2, 67050, Note_on_c, 0, 76, 93
2, 67050, Note_on_c, 0, 81, 127
2, 67050, Note_on_c, 0, 87, 127
2, 67094, Note_on_c, 0, 76, 0
2, 67094, Note_on_c, 0, 69, 0
2, 67095, Note_on_c, 0, 81, 0
2, 67095, Note_on_c, 0, 87, 0
2, 67095, Note_on_c, 0, 77, 64
2, 67140, Note_on_c, 0, 77, 0
2, 67140, Note_on_c, 0, 72, 95
2, 67140, Note_on_c, 0, 79, 95
2, 67140, Note_on_c, 0, 86, 99
2, 67184, Note_on_c, 0, 79, 0
2, 67184, Note_on_c, 0, 72, 0
2, 67185, Note_on_c, 0, 86, 0
2, 67185, Note_on_c, 0, 77, 71
2, 67230, Note_on_c, 0, 77, 0
2, 67230, Note_on_c, 0, 69, 79
2, 67230, Note_on_c, 0, 76, 79
2, 67230, Note_on_c, 0, 84, 95
2, 67274, Note_on_c, 0, 76, 0
2, 67274, Note_on_c, 0, 69, 0
2, 67275, Note_on_c, 0, 84, 0
2, 67275, Note_on_c, 0, 77, 73
2, 67320, Note_on_c, 0, 77, 0
2, 67320, Note_on_c, 0, 82, 94
2, 67320, Note_on_c, 0, 65, 72
2, 67320, Note_on_c, 0, 72, 72
2, 67364, Note_on_c, 0, 72, 0
2, 67364, Note_on_c, 0, 65, 0
2, 67365, Note_on_c, 0, 82, 0
2, 67365, Note_on_c, 0, 73, 65
2, 67410, Note_on_c, 0, 73, 0
2, 67410, Note_on_c, 0, 70, 85
2, 67410, Note_on_c, 0, 74, 85
2, 67410, Note_on_c, 0, 84, 99
2, 67454, Note_on_c, 0, 74, 0
2, 67454, Note_on_c, 0, 70, 0
2, 67455, Note_on_c, 0, 84, 0
2, 67455, Note_on_c, 0, 73, 62
2, 67500, Note_on_c, 0, 73, 0
2, 67500, Note_on_c, 0, 82, 103
2, 67500, Note_on_c, 0, 62, 81
2, 67500, Note_on_c, 0, 72, 81
2, 67544, Note_on_c, 0, 72, 0
2, 67544, Note_on_c, 0, 62, 0
2, 67545, Note_on_c, 0, 82, 0
2, 67545, Note_on_c, 0, 73, 66
2, 67590, Note_on_c, 0, 73, 0
2, 67590, Note_on_c, 0, 70, 87
2, 67590, Note_on_c, 0, 74, 87
2, 67590, Note_on_c, 0, 81, 100
2, 67634, Note_on_c, 0, 74, 0
2, 67634, Note_on_c, 0, 70, 0
2, 67635, Note_on_c, 0, 81, 0
2, 67635, Note_on_c, 0, 73, 68
2, 67680, Note_on_c, 0, 73, 0
2, 67680, Note_on_c, 0, 82, 101
2, 67680, Note_on_c, 0, 65, 80
2, 67680, Note_on_c, 0, 72, 80
2, 67724, Note_on_c, 0, 72, 0
2, 67724, Note_on_c, 0, 65, 0
2, 67770, Note_on_c, 0, 82, 0
2, 67770, Note_on_c, 0, 89, 127
2, 67770, Note_on_c, 0, 70, 88
2, 67770, Note_on_c, 0, 76, 88
2, 67814, Note_on_c, 0, 76, 0
2, 67814, Note_on_c, 0, 70, 0
2, 67815, Note_on_c, 0, 89, 0
2, 67815, Note_on_c, 0, 77, 62
2, 67860, Note_on_c, 0, 77, 0
2, 67860, Note_on_c, 0, 73, 88
2, 67860, Note_on_c, 0, 79, 88
2, 67860, Note_on_c, 0, 87, 98
2, 67904, Note_on_c, 0, 79, 0
2, 67904, Note_on_c, 0, 73, 0
2, 67905, Note_on_c, 0, 87, 0
2, 67905, Note_on_c, 0, 77, 65
2, 67950, Note_on_c, 0, 77, 0
2, 67950, Note_on_c, 0, 86, 100
2, 67950, Note_on_c, 0, 70, 78
2, 67950, Note_on_c, 0, 76, 78
2, 67994, Note_on_c, 0, 76, 0
2, 67994, Note_on_c, 0, 70, 0
2, 67995, Note_on_c, 0, 86, 0
2, 67995, Note_on_c, 0, 77, 63
2, 68040, Note_on_c, 0, 77, 0
2, 68040, Note_on_c, 0, 84, 98
2, 68040, Note_on_c, 0, 67, 71
2, 68040, Note_on_c, 0, 72, 71
2, 68084, Note_on_c, 0, 72, 0
2, 68084, Note_on_c, 0, 67, 0
2, 68085, Note_on_c, 0, 84, 0
2, 68085, Note_on_c, 0, 74, 64
2, 68130, Note_on_c, 0, 74, 0
2, 68130, Note_on_c, 0, 70, 87
2, 68130, Note_on_c, 0, 75, 87
2, 68130, Note_on_c, 0, 82, 95
2, 68174, Note_on_c, 0, 75, 0
2, 68174, Note_on_c, 0, 70, 0
2, 68175, Note_on_c, 0, 82, 0
2, 68175, Note_on_c, 0, 74, 68
2, 68220, Note_on_c, 0, 74, 0
2, 68220, Note_on_c, 0, 81, 96
2, 68220, Note_on_c, 0, 63, 75
2, 68220, Note_on_c, 0, 71, 75
2, 68264, Note_on_c, 0, 71, 0
2, 68264, Note_on_c, 0, 63, 0
2, 68265, Note_on_c, 0, 81, 0
2, 68265, Note_on_c, 0, 72, 70
2, 68310, Note_on_c, 0, 72, 0
2, 68310, Note_on_c, 0, 69, 87
2, 68310, Note_on_c, 0, 74, 87
2, 68310, Note_on_c, 0, 79, 96
2, 68354, Note_on_c, 0, 74, 0
2, 68354, Note_on_c, 0, 69, 0
2, 68355, Note_on_c, 0, 79, 0
2, 68355, Note_on_c, 0, 72, 72
2, 68400, Note_on_c, 0, 72, 0
2, 68400, Note_on_c, 0, 77, 94
2, 68400, Note_on_c, 0, 60, 69
2, 68400, Note_on_c, 0, 67, 69
2, 68444, Note_on_c, 0, 67, 0
2, 68444, Note_on_c, 0, 60, 0
2, 68445, Note_on_c, 0, 77, 0
2, 68445, Note_on_c, 0, 68, 65
2, 68490, Note_on_c, 0, 68, 0
2, 68490, Note_on_c, 0, 63, 85
2, 68490, Note_on_c, 0, 69, 85
2, 68490, Note_on_c, 0, 75, 97
2, 68534, Note_on_c, 0, 69, 0
2, 68534, Note_on_c, 0, 63, 0
2, 68535, Note_on_c, 0, 75, 0
2, 68535, Note_on_c, 0, 68, 70
2, 68580, Note_on_c, 0, 68, 0
2, 68580, Note_on_c, 0, 74, 95
2, 68580, Note_on_c, 0, 57, 69
2, 68580, Note_on_c, 0, 64, 69
2, 68624, Note_on_c, 0, 64, 0
2, 68624, Note_on_c, 0, 57, 0
2, 68625, Note_on_c, 0, 74, 0
2, 68625, Note_on_c, 0, 65, 66
2, 68670, Note_on_c, 0, 65, 0
2, 68670, Note_on_c, 0, 62, 89
2, 68670, Note_on_c, 0, 67, 89
2, 68670, Note_on_c, 0, 72, 95
2, 68714, Note_on_c, 0, 67, 0
2, 68714, Note_on_c, 0, 62, 0
2, 68715, Note_on_c, 0, 72, 0
2, 68715, Note_on_c, 0, 65, 66
2, 68760, Note_on_c, 0, 65, 0
2, 68760, Control_c, 0, 64, 127
2, 68760, Note_on_c, 0, 58, 83
2, 68760, Note_on_c, 0, 70, 83
2, 68805, Note_on_c, 0, 70, 0
2, 68805, Note_on_c, 0, 62, 83
2, 68850, Note_on_c, 0, 58, 0
2, 68850, Note_on_c, 0, 58, 84
2, 68850, Note_on_c, 0, 46, 84
2, 68895, Note_on_c, 0, 62, 0
2, 68895, Note_on_c, 0, 62, 84
2, 68895, Note_on_c, 0, 70, 84
2, 68940, Note_on_c, 0, 46, 0
2, 68940, Note_on_c, 0, 58, 0
2, 68940, Note_on_c, 0, 45, 84
2, 68940, Note_on_c, 0, 57, 84
2, 68985, Note_on_c, 0, 62, 0
2, 68985, Note_on_c, 0, 70, 0
2, 68985, Note_on_c, 0, 63, 84
2, 68985, Note_on_c, 0, 71, 84
2, 69030, Note_on_c, 0, 45, 0
2, 69030, Note_on_c, 0, 57, 0
2, 69030, Note_on_c, 0, 34, 84
2, 69030, Note_on_c, 0, 46, 84
2, 69075, Note_on_c, 0, 63, 0
2, 69075, Note_on_c, 0, 71, 0
2, 69075, Note_on_c, 0, 63, 84
2, 69075, Note_on_c, 0, 71, 84
2, 69120, Note_on_c, 0, 34, 0
2, 69120, Note_on_c, 0, 46, 0
2, 69120, Control_c, 0, 64, 0
2, 69120, Control_c, 0, 64, 127
2, 69120, Note_on_c, 0, 44, 84
2, 69120, Note_on_c, 0, 56, 84
2, 69165, Note_on_c, 0, 63, 0
2, 69165, Note_on_c, 0, 71, 0
2, 69165, Note_on_c, 0, 64, 85
2, 69165, Note_on_c, 0, 72, 85
2, 69210, Note_on_c, 0, 44, 0
2, 69210, Note_on_c, 0, 56, 0
2, 69210, Note_on_c, 0, 34, 85
2, 69210, Note_on_c, 0, 46, 85
2, 69255, Note_on_c, 0, 64, 0
2, 69255, Note_on_c, 0, 72, 0
2, 69255, Note_on_c, 0, 64, 85
2, 69255, Note_on_c, 0, 72, 85
2, 69300, Note_on_c, 0, 34, 0
2, 69300, Note_on_c, 0, 46, 0
2, 69300, Note_on_c, 0, 43, 85
2, 69300, Note_on_c, 0, 55, 85
2, 69345, Note_on_c, 0, 64, 0
2, 69345, Note_on_c, 0, 72, 0
2, 69345, Note_on_c, 0, 64, 85
2, 69345, Note_on_c, 0, 69, 85
2, 69345, Note_on_c, 0, 73, 85
2, 69390, Note_on_c, 0, 43, 0
2, 69390, Note_on_c, 0, 55, 0
2, 69390, Note_on_c, 0, 34, 85
2, 69390, Note_on_c, 0, 46, 85
2, 69435, Note_on_c, 0, 69, 0
2, 69435, Note_on_c, 0, 73, 0
2, 69435, Note_on_c, 0, 64, 0
2, 69435, Note_on_c, 0, 64, 85
2, 69435, Note_on_c, 0, 69, 85
2, 69435, Note_on_c, 0, 73, 85
2, 69480, Note_on_c, 0, 34, 0
2, 69480, Note_on_c, 0, 46, 0
2, 69480, Control_c, 0, 64, 0
2, 69480, Control_c, 0, 64, 127
2, 69480, Note_on_c, 0, 42, 85
2, 69480, Note_on_c, 0, 54, 85
2, 69525, Note_on_c, 0, 69, 0
2, 69525, Note_on_c, 0, 73, 0
2, 69525, Note_on_c, 0, 64, 0
2, 69525, Note_on_c, 0, 66, 86
2, 69525, Note_on_c, 0, 70, 86
2, 69525, Note_on_c, 0, 73, 86
2, 69570, Note_on_c, 0, 42, 0
2, 69570, Note_on_c, 0, 54, 0
2, 69570, Note_on_c, 0, 34, 86
2, 69570, Note_on_c, 0, 46, 86
2, 69615, Note_on_c, 0, 70, 0
2, 69615, Note_on_c, 0, 73, 0
2, 69615, Note_on_c, 0, 66, 0
2, 69615, Note_on_c, 0, 66, 86
2, 69615, Note_on_c, 0, 70, 86
2, 69615, Note_on_c, 0, 73, 86
2, 69660, Note_on_c, 0, 34, 0
2, 69660, Note_on_c, 0, 46, 0
2, 69660, Note_on_c, 0, 41, 86
2, 69660, Note_on_c, 0, 53, 86
2, 69705, Note_on_c, 0, 70, 0
2, 69705, Note_on_c, 0, 73, 0
2, 69705, Note_on_c, 0, 66, 0
2, 69705, Note_on_c, 0, 58, 86
2, 69705, Note_on_c, 0, 67, 86
2, 69705, Note_on_c, 0, 70, 86
2, 69750, Note_on_c, 0, 41, 0
2, 69750, Note_on_c, 0, 53, 0
2, 69750, Note_on_c, 0, 34, 86
2, 69750, Note_on_c, 0, 46, 86
2, 69795, Note_on_c, 0, 67, 0
2, 69795, Note_on_c, 0, 70, 0
2, 69795, Note_on_c, 0, 58, 0
2, 69795, Note_on_c, 0, 58, 86
2, 69795, Note_on_c, 0, 67, 86
2, 69795, Note_on_c, 0, 70, 86
2, 69840, Note_on_c, 0, 34, 0
2, 69840, Note_on_c, 0, 46, 0
2, 69840, Control_c, 0, 64, 0
2, 69840, Control_c, 0, 64, 127
2, 69840, Note_on_c, 0, 40, 87
2, 69840, Note_on_c, 0, 52, 87
2, 69885, Note_on_c, 0, 67, 0
2, 69885, Note_on_c, 0, 70, 0
2, 69885, Note_on_c, 0, 58, 0
2, 69885, Note_on_c, 0, 59, 87
2, 69885, Note_on_c, 0, 68, 87
2, 69885, Note_on_c, 0, 71, 87
2, 69930, Note_on_c, 0, 40, 0
2, 69930, Note_on_c, 0, 52, 0
2, 69930, Note_on_c, 0, 34, 87
2, 69930, Note_on_c, 0, 46, 87
2, 69975, Note_on_c, 0, 68, 0
2, 69975, Note_on_c, 0, 71, 0
2, 69975, Note_on_c, 0, 59, 0
2, 69975, Note_on_c, 0, 59, 87
2, 69975, Note_on_c, 0, 68, 87
2, 69975, Note_on_c, 0, 71, 87
2, 70020, Note_on_c, 0, 34, 0
2, 70020, Note_on_c, 0, 46, 0
2, 70020, Note_on_c, 0, 39, 87
2, 70020, Note_on_c, 0, 51, 87
2, 70065, Note_on_c, 0, 68, 0
2, 70065, Note_on_c, 0, 71, 0
2, 70065, Note_on_c, 0, 59, 0
2, 70065, Note_on_c, 0, 60, 87
2, 70065, Note_on_c, 0, 69, 87
2, 70065, Note_on_c, 0, 72, 87
2, 70110, Note_on_c, 0, 39, 0
2, 70110, Note_on_c, 0, 51, 0
2, 70110, Note_on_c, 0, 34, 87
2, 70110, Note_on_c, 0, 46, 87
2, 70155, Note_on_c, 0, 69, 0
2, 70155, Note_on_c, 0, 72, 0
2, 70155, Note_on_c, 0, 60, 0
2, 70155, Note_on_c, 0, 60, 88
2, 70155, Note_on_c, 0, 69, 88
2, 70155, Note_on_c, 0, 72, 88
2, 70200, Note_on_c, 0, 72, 0
2, 70200, Note_on_c, 0, 60, 0
2, 70200, Note_on_c, 0, 46, 0
2, 70200, Note_on_c, 0, 34, 0
2, 70200, Note_on_c, 0, 69, 0
2, 70200, Control_c, 0, 64, 0
2, 70200, Control_c, 0, 64, 127
2, 70200, Note_on_c, 0, 59, 88
2, 70200, Note_on_c, 0, 66, 88
2, 70200, Note_on_c, 0, 37, 88
2, 70200, Note_on_c, 0, 44, 88
2, 70200, Note_on_c, 0, 50, 88
2, 70200, Note_on_c, 0, 54, 88
2, 70290, Note_on_c, 0, 54, 0
2, 70290, Note_on_c, 0, 66, 0
2, 70290, Note_on_c, 0, 37, 0
2, 70290, Note_on_c, 0, 59, 0
2, 70290, Note_on_c, 0, 50, 0
2, 70290, Note_on_c, 0, 44, 0
2, 70290, Note_on_c, 0, 54, 88
2, 70290, Note_on_c, 0, 59, 88
2, 70290, Note_on_c, 0, 66, 88
2, 70290, Note_on_c, 0, 37, 88
2, 70290, Note_on_c, 0, 44, 88
2, 70290, Note_on_c, 0, 49, 88
2, 70380, Note_on_c, 0, 49, 0
2, 70380, Note_on_c, 0, 59, 0
2, 70380, Note_on_c, 0, 66, 0
2, 70380, Note_on_c, 0, 54, 0
2, 70380, Note_on_c, 0, 44, 0
2, 70380, Note_on_c, 0, 37, 0
2, 70380, Note_on_c, 0, 53, 88
2, 70380, Note_on_c, 0, 59, 88
2, 70380, Note_on_c, 0, 65, 88
2, 70380, Note_on_c, 0, 35, 88
2, 70380, Note_on_c, 0, 47, 88
2, 70470, Note_on_c, 0, 47, 0
2, 70470, Note_on_c, 0, 65, 0
2, 70470, Note_on_c, 0, 53, 0
2, 70470, Note_on_c, 0, 59, 0
2, 70470, Note_on_c, 0, 35, 0
2, 70470, Note_on_c, 0, 53, 88
2, 70470, Note_on_c, 0, 59, 88
2, 70470, Note_on_c, 0, 65, 88
2, 70470, Note_on_c, 0, 29, 88
2, 70470, Note_on_c, 0, 41, 88
2, 70560, Note_on_c, 0, 41, 0
2, 70560, Note_on_c, 0, 65, 0
2, 70560, Note_on_c, 0, 53, 0
2, 70560, Note_on_c, 0, 59, 0
2, 70560, Note_on_c, 0, 29, 0
2, 70560, Control_c, 0, 64, 0
2, 70560, Control_c, 0, 64, 127
2, 70560, Note_on_c, 0, 61, 89
2, 70560, Note_on_c, 0, 65, 89
2, 70560, Note_on_c, 0, 73, 89
2, 70560, Note_on_c, 0, 37, 89
2, 70560, Note_on_c, 0, 44, 89
2, 70560, Note_on_c, 0, 50, 89
2, 70650, Note_on_c, 0, 50, 0
2, 70650, Note_on_c, 0, 65, 0
2, 70650, Note_on_c, 0, 73, 0
2, 70650, Note_on_c, 0, 61, 0
2, 70650, Note_on_c, 0, 44, 0
2, 70650, Note_on_c, 0, 37, 0
2, 70650, Note_on_c, 0, 61, 89
2, 70650, Note_on_c, 0, 65, 89
2, 70650, Note_on_c, 0, 73, 89
2, 70650, Note_on_c, 0, 37, 89
2, 70650, Note_on_c, 0, 44, 89
2, 70650, Note_on_c, 0, 49, 89
2, 70740, Note_on_c, 0, 49, 0
2, 70740, Note_on_c, 0, 65, 0
2, 70740, Note_on_c, 0, 73, 0
2, 70740, Note_on_c, 0, 61, 0
2, 70740, Note_on_c, 0, 44, 0
2, 70740, Note_on_c, 0, 37, 0
2, 70740, Note_on_c, 0, 59, 89
2, 70740, Note_on_c, 0, 65, 89
2, 70740, Note_on_c, 0, 71, 89
2, 70740, Note_on_c, 0, 35, 89
2, 70740, Note_on_c, 0, 47, 89
2, 70830, Note_on_c, 0, 47, 0
2, 70830, Note_on_c, 0, 71, 0
2, 70830, Note_on_c, 0, 59, 0
2, 70830, Note_on_c, 0, 65, 0
2, 70830, Note_on_c, 0, 35, 0
2, 70830, Control_c, 0, 64, 0
2, 70830, Note_on_c, 0, 59, 90
2, 70830, Note_on_c, 0, 65, 90
2, 70830, Note_on_c, 0, 71, 90
2, 70830, Note_on_c, 0, 29, 90
2, 70830, Note_on_c, 0, 41, 90
2, 70920, Note_on_c, 0, 41, 0
2, 70920, Note_on_c, 0, 71, 0
2, 70920, Note_on_c, 0, 59, 0
2, 70920, Note_on_c, 0, 65, 0
2, 70920, Note_on_c, 0, 29, 0
2, 70920, Control_c, 0, 64, 127
2, 70920, Note_on_c, 0, 66, 90
2, 70920, Note_on_c, 0, 71, 90
2, 70920, Note_on_c, 0, 78, 90
2, 70920, Note_on_c, 0, 37, 90
2, 70920, Note_on_c, 0, 44, 90
2, 70920, Note_on_c, 0, 50, 90
2, 71010, Note_on_c, 0, 50, 0
2, 71010, Note_on_c, 0, 71, 0
2, 71010, Note_on_c, 0, 78, 0
2, 71010, Note_on_c, 0, 66, 0
2, 71010, Note_on_c, 0, 44, 0
2, 71010, Note_on_c, 0, 37, 0
2, 71010, Note_on_c, 0, 66, 90
2, 71010, Note_on_c, 0, 71, 90
2, 71010, Note_on_c, 0, 78, 90
2, 71010, Note_on_c, 0, 37, 90
2, 71010, Note_on_c, 0, 44, 90
2, 71010, Note_on_c, 0, 49, 90
2, 71100, Note_on_c, 0, 49, 0
2, 71100, Note_on_c, 0, 71, 0
2, 71100, Note_on_c, 0, 78, 0
2, 71100, Note_on_c, 0, 66, 0
2, 71100, Note_on_c, 0, 44, 0
2, 71100, Note_on_c, 0, 37, 0
2, 71100, Note_on_c, 0, 65, 90
2, 71100, Note_on_c, 0, 71, 90
2, 71100, Note_on_c, 0, 77, 90
2, 71100, Note_on_c, 0, 35, 90
2, 71100, Note_on_c, 0, 47, 90
2, 71190, Note_on_c, 0, 47, 0
2, 71190, Note_on_c, 0, 77, 0
2, 71190, Note_on_c, 0, 65, 0
2, 71190, Note_on_c, 0, 71, 0
2, 71190, Note_on_c, 0, 35, 0
2, 71190, Note_on_c, 0, 65, 91
2, 71190, Note_on_c, 0, 71, 91
2, 71190, Note_on_c, 0, 77, 91
2, 71190, Note_on_c, 0, 29, 91
2, 71190, Note_on_c, 0, 41, 91
2, 71280, Note_on_c, 0, 41, 0
2, 71280, Note_on_c, 0, 77, 0
2, 71280, Note_on_c, 0, 65, 0
2, 71280, Note_on_c, 0, 71, 0
2, 71280, Note_on_c, 0, 29, 0
2, 71280, Control_c, 0, 64, 0
2, 71280, Control_c, 0, 64, 127
2, 71280, Note_on_c, 0, 73, 91
2, 71280, Note_on_c, 0, 77, 91
2, 71280, Note_on_c, 0, 85, 91
2, 71280, Note_on_c, 0, 37, 91
2, 71280, Note_on_c, 0, 44, 91
2, 71280, Note_on_c, 0, 50, 91
2, 71370, Note_on_c, 0, 50, 0
2, 71370, Note_on_c, 0, 77, 0
2, 71370, Note_on_c, 0, 85, 0
2, 71370, Note_on_c, 0, 73, 0
2, 71370, Note_on_c, 0, 44, 0
2, 71370, Note_on_c, 0, 37, 0
2, 71370, Note_on_c, 0, 73, 91
2, 71370, Note_on_c, 0, 77, 91
2, 71370, Note_on_c, 0, 85, 91
2, 71370, Note_on_c, 0, 37, 91
2, 71370, Note_on_c, 0, 44, 91
2, 71370, Note_on_c, 0, 49, 91
2, 71460, Note_on_c, 0, 49, 0
2, 71460, Note_on_c, 0, 77, 0
2, 71460, Note_on_c, 0, 85, 0
2, 71460, Note_on_c, 0, 73, 0
2, 71460, Note_on_c, 0, 44, 0
2, 71460, Note_on_c, 0, 37, 0
2, 71460, Note_on_c, 0, 71, 91
2, 71460, Note_on_c, 0, 77, 91
2, 71460, Note_on_c, 0, 83, 91
2, 71460, Note_on_c, 0, 35, 91
2, 71460, Note_on_c, 0, 47, 91
2, 71550, Note_on_c, 0, 47, 0
2, 71550, Note_on_c, 0, 83, 0
2, 71550, Note_on_c, 0, 71, 0
2, 71550, Note_on_c, 0, 77, 0
2, 71550, Note_on_c, 0, 35, 0
2, 71550, Control_c, 0, 64, 0
2, 71550, Note_on_c, 0, 71, 92
2, 71550, Note_on_c, 0, 77, 92
2, 71550, Note_on_c, 0, 83, 92
2, 71550, Note_on_c, 0, 29, 92
2, 71550, Note_on_c, 0, 41, 92
2, 71640, Note_on_c, 0, 41, 0
2, 71640, Note_on_c, 0, 83, 0
2, 71640, Note_on_c, 0, 71, 0
2, 71640, Note_on_c, 0, 77, 0
2, 71640, Note_on_c, 0, 29, 0
2, 71640, Control_c, 0, 64, 127
2, 71640, Note_on_c, 0, 78, 92
2, 71640, Note_on_c, 0, 83, 92
2, 71640, Note_on_c, 0, 90, 92
2, 71640, Note_on_c, 0, 37, 92
2, 71640, Note_on_c, 0, 44, 92
2, 71640, Note_on_c, 0, 50, 92
2, 71730, Note_on_c, 0, 50, 0
2, 71730, Note_on_c, 0, 83, 0
2, 71730, Note_on_c, 0, 90, 0
2, 71730, Note_on_c, 0, 78, 0
2, 71730, Note_on_c, 0, 44, 0
2, 71730, Note_on_c, 0, 37, 0
2, 71730, Note_on_c, 0, 78, 92
2, 71730, Note_on_c, 0, 83, 92
2, 71730, Note_on_c, 0, 90, 92
2, 71730, Note_on_c, 0, 37, 92
2, 71730, Note_on_c, 0, 44, 92
2, 71730, Note_on_c, 0, 49, 92
2, 71820, Note_on_c, 0, 49, 0
2, 71820, Note_on_c, 0, 83, 0
2, 71820, Note_on_c, 0, 90, 0
2, 71820, Note_on_c, 0, 78, 0
2, 71820, Note_on_c, 0, 44, 0
2, 71820, Note_on_c, 0, 37, 0
2, 71820, Note_on_c, 0, 77, 93
2, 71820, Note_on_c, 0, 83, 93
2, 71820, Note_on_c, 0, 89, 93
2, 71820, Note_on_c, 0, 35, 93
2, 71820, Note_on_c, 0, 47, 93
2, 71910, Note_on_c, 0, 47, 0
2, 71910, Note_on_c, 0, 89, 0
2, 71910, Note_on_c, 0, 77, 0
2, 71910, Note_on_c, 0, 83, 0
2, 71910, Note_on_c, 0, 35, 0
2, 71910, Note_on_c, 0, 77, 93
2, 71910, Note_on_c, 0, 83, 93
2, 71910, Note_on_c, 0, 89, 93
2, 71910, Note_on_c, 0, 29, 93
2, 71910, Note_on_c, 0, 41, 93
2, 72000, Note_on_c, 0, 41, 0
2, 72000, Note_on_c, 0, 89, 0
2, 72000, Note_on_c, 0, 77, 0
2, 72000, Note_on_c, 0, 83, 0
2, 72000, Note_on_c, 0, 29, 0
2, 72000, Control_c, 0, 64, 0
2, 72000, Control_c, 0, 64, 127
2, 72000, Note_on_c, 0, 85, 93
2, 72000, Note_on_c, 0, 89, 93
2, 72000, Note_on_c, 0, 97, 93
2, 72000, Note_on_c, 0, 37, 93
2, 72000, Note_on_c, 0, 44, 93
2, 72000, Note_on_c, 0, 50, 93
2, 72090, Note_on_c, 0, 50, 0
2, 72090, Note_on_c, 0, 89, 0
2, 72090, Note_on_c, 0, 97, 0
2, 72090, Note_on_c, 0, 85, 0
2, 72090, Note_on_c, 0, 44, 0
2, 72090, Note_on_c, 0, 37, 0
2, 72090, Note_on_c, 0, 85, 93
2, 72090, Note_on_c, 0, 89, 93
2, 72090, Note_on_c, 0, 97, 93
2, 72090, Note_on_c, 0, 37, 93
2, 72090, Note_on_c, 0, 44, 93
2, 72090, Note_on_c, 0, 49, 93
2, 72180, Note_on_c, 0, 49, 0
2, 72180, Note_on_c, 0, 89, 0
2, 72180, Note_on_c, 0, 97, 0
2, 72180, Note_on_c, 0, 85, 0
2, 72180, Note_on_c, 0, 44, 0
2, 72180, Note_on_c, 0, 37, 0
2, 72180, Note_on_c, 0, 83, 94
2, 72180, Note_on_c, 0, 89, 94
2, 72180, Note_on_c, 0, 95, 94
2, 72180, Note_on_c, 0, 35, 94
2, 72180, Note_on_c, 0, 47, 94
2, 72270, Note_on_c, 0, 47, 0
2, 72270, Note_on_c, 0, 95, 0
2, 72270, Note_on_c, 0, 83, 0
2, 72270, Note_on_c, 0, 89, 0
2, 72270, Note_on_c, 0, 35, 0
2, 72270, Note_on_c, 0, 83, 94
2, 72270, Note_on_c, 0, 89, 94
2, 72270, Note_on_c, 0, 95, 94
2, 72270, Note_on_c, 0, 29, 94
2, 72270, Note_on_c, 0, 41, 94
2, 72360, Note_on_c, 0, 41, 0
2, 72360, Note_on_c, 0, 95, 0
2, 72360, Note_on_c, 0, 83, 0
2, 72360, Note_on_c, 0, 89, 0
2, 72360, Note_on_c, 0, 29, 0
2, 72360, Control_c, 0, 64, 0
2, 72360, Control_c, 0, 64, 127
2, 72360, Note_on_c, 0, 90, 94
2, 72360, Note_on_c, 0, 95, 94
2, 72360, Note_on_c, 0, 98, 94
2, 72360, Note_on_c, 0, 102, 94
2, 72360, Note_on_c, 0, 37, 94
2, 72360, Note_on_c, 0, 44, 94
2, 72360, Note_on_c, 0, 50, 94
2, 72450, Note_on_c, 0, 50, 0
2, 72450, Note_on_c, 0, 37, 0
2, 72450, Note_on_c, 0, 95, 0
2, 72450, Note_on_c, 0, 98, 0
2, 72450, Note_on_c, 0, 90, 0
2, 72450, Note_on_c, 0, 44, 0
2, 72450, Note_on_c, 0, 102, 0
2, 72450, Note_on_c, 0, 90, 94
2, 72450, Note_on_c, 0, 95, 94
2, 72450, Note_on_c, 0, 98, 94
2, 72450, Note_on_c, 0, 102, 94
2, 72450, Note_on_c, 0, 37, 94
2, 72450, Note_on_c, 0, 44, 94
2, 72450, Note_on_c, 0, 50, 94
2, 72540, Note_on_c, 0, 50, 0
2, 72540, Note_on_c, 0, 37, 0
2, 72540, Note_on_c, 0, 95, 0
2, 72540, Note_on_c, 0, 98, 0
2, 72540, Note_on_c, 0, 90, 0
2, 72540, Note_on_c, 0, 44, 0
2, 72540, Note_on_c, 0, 102, 0
2, 72540, Note_on_c, 0, 89, 95
2, 72540, Note_on_c, 0, 95, 95
2, 72540, Note_on_c, 0, 101, 95
2, 72540, Note_on_c, 0, 37, 95
2, 72540, Note_on_c, 0, 44, 95
2, 72540, Note_on_c, 0, 49, 95
2, 72630, Note_on_c, 0, 49, 0
2, 72630, Note_on_c, 0, 95, 0
2, 72630, Note_on_c, 0, 101, 0
2, 72630, Note_on_c, 0, 89, 0
2, 72630, Note_on_c, 0, 44, 0
2, 72630, Note_on_c, 0, 37, 0
2, 72630, Control_c, 0, 64, 0
2, 72630, Note_on_c, 0, 89, 95
2, 72630, Note_on_c, 0, 95, 95
2, 72630, Note_on_c, 0, 101, 95
2, 72630, Note_on_c, 0, 37, 95
2, 72630, Note_on_c, 0, 44, 95
2, 72630, Note_on_c, 0, 49, 95
2, 72720, Note_on_c, 0, 49, 0
2, 72720, Note_on_c, 0, 95, 0
2, 72720, Note_on_c, 0, 101, 0
2, 72720, Note_on_c, 0, 89, 0
2, 72720, Note_on_c, 0, 44, 0
2, 72720, Note_on_c, 0, 37, 0
2, 72720, Control_c, 0, 64, 127
2, 72720, Note_on_c, 0, 90, 95
2, 72720, Note_on_c, 0, 95, 95
2, 72720, Note_on_c, 0, 98, 95
2, 72720, Note_on_c, 0, 102, 95
2, 72720, Note_on_c, 0, 37, 95
2, 72720, Note_on_c, 0, 44, 95
2, 72720, Note_on_c, 0, 48, 95
2, 72810, Note_on_c, 0, 48, 0
2, 72810, Note_on_c, 0, 37, 0
2, 72810, Note_on_c, 0, 95, 0
2, 72810, Note_on_c, 0, 98, 0
2, 72810, Note_on_c, 0, 90, 0
2, 72810, Note_on_c, 0, 44, 0
2, 72810, Note_on_c, 0, 102, 0
2, 72810, Note_on_c, 0, 90, 95
2, 72810, Note_on_c, 0, 95, 95
2, 72810, Note_on_c, 0, 98, 95
2, 72810, Note_on_c, 0, 102, 95
2, 72810, Note_on_c, 0, 37, 95
2, 72810, Note_on_c, 0, 44, 95
2, 72810, Note_on_c, 0, 48, 95
2, 72900, Note_on_c, 0, 48, 0
2, 72900, Note_on_c, 0, 37, 0
2, 72900, Note_on_c, 0, 95, 0
2, 72900, Note_on_c, 0, 98, 0
2, 72900, Note_on_c, 0, 90, 0
2, 72900, Note_on_c, 0, 44, 0
2, 72900, Note_on_c, 0, 102, 0
2, 72900, Note_on_c, 0, 89, 96
2, 72900, Note_on_c, 0, 95, 96
2, 72900, Note_on_c, 0, 101, 96
2, 72900, Note_on_c, 0, 37, 96
2, 72900, Note_on_c, 0, 44, 96
2, 72900, Note_on_c, 0, 49, 96
2, 72990, Note_on_c, 0, 49, 0
2, 72990, Note_on_c, 0, 95, 0
2, 72990, Note_on_c, 0, 101, 0
2, 72990, Note_on_c, 0, 89, 0
2, 72990, Note_on_c, 0, 44, 0
2, 72990, Note_on_c, 0, 37, 0
2, 72990, Note_on_c, 0, 89, 98
2, 72990, Note_on_c, 0, 95, 98
2, 72990, Note_on_c, 0, 101, 98
2, 72990, Note_on_c, 0, 37, 100
2, 72990, Note_on_c, 0, 44, 100
2, 72990, Note_on_c, 0, 49, 100
2, 73080, Note_on_c, 0, 49, 0
2, 73080, Note_on_c, 0, 95, 0
2, 73080, Note_on_c, 0, 101, 0
2, 73080, Note_on_c, 0, 89, 0
2, 73080, Note_on_c, 0, 44, 0
2, 73080, Note_on_c, 0, 37, 0
2, 73080, Control_c, 0, 64, 0
2, 73080, Control_c, 0, 64, 127
2, 73080, Note_on_c, 0, 90, 126
2, 73080, Note_on_c, 0, 95, 126
2, 73080, Note_on_c, 0, 98, 126
2, 73080, Note_on_c, 0, 102, 126
2, 73080, Note_on_c, 0, 23, 124
2, 73080, Note_on_c, 0, 35, 124
2, 73170, Note_on_c, 0, 35, 0
2, 73170, Note_on_c, 0, 95, 0
2, 73170, Note_on_c, 0, 98, 0
2, 73170, Note_on_c, 0, 90, 0
2, 73170, Note_on_c, 0, 23, 0
2, 73170, Note_on_c, 0, 102, 0
2, 73170, Note_on_c, 0, 89, 122
2, 73170, Note_on_c, 0, 95, 122
2, 73170, Note_on_c, 0, 98, 122
2, 73170, Note_on_c, 0, 101, 122
2, 73170, Note_on_c, 0, 22, 121
2, 73170, Note_on_c, 0, 34, 121
2, 73260, Note_on_c, 0, 34, 0
2, 73260, Note_on_c, 0, 95, 0
2, 73260, Note_on_c, 0, 98, 0
2, 73260, Note_on_c, 0, 89, 0
2, 73260, Note_on_c, 0, 22, 0
2, 73260, Note_on_c, 0, 101, 0
2, 73260, Note_on_c, 0, 90, 126
2, 73260, Note_on_c, 0, 95, 126
2, 73260, Note_on_c, 0, 98, 126
2, 73260, Note_on_c, 0, 102, 126
2, 73260, Note_on_c, 0, 23, 126
2, 73260, Note_on_c, 0, 35, 126
2, 73350, Note_on_c, 0, 35, 0
2, 73350, Note_on_c, 0, 95, 0
2, 73350, Note_on_c, 0, 98, 0
2, 73350, Note_on_c, 0, 90, 0
2, 73350, Note_on_c, 0, 23, 0
2, 73350, Note_on_c, 0, 102, 0
2, 73350, Control_c, 0, 64, 0
2, 73350, Note_on_c, 0, 89, 117
2, 73350, Note_on_c, 0, 95, 117
2, 73350, Note_on_c, 0, 98, 117
2, 73350, Note_on_c, 0, 101, 117
2, 73350, Note_on_c, 0, 22, 122
2, 73350, Note_on_c, 0, 34, 122
2, 73440, Note_on_c, 0, 34, 0
2, 73440, Note_on_c, 0, 95, 0
2, 73440, Note_on_c, 0, 98, 0
2, 73440, Note_on_c, 0, 89, 0
2, 73440, Note_on_c, 0, 22, 0
2, 73440, Note_on_c, 0, 101, 0
2, 73440, Control_c, 0, 64, 127
2, 73440, Note_on_c, 0, 90, 126
2, 73440, Note_on_c, 0, 95, 126
2, 73440, Note_on_c, 0, 98, 126
2, 73440, Note_on_c, 0, 102, 126
2, 73440, Note_on_c, 0, 23, 126
2, 73440, Note_on_c, 0, 35, 126
2, 73530, Note_on_c, 0, 35, 0
2, 73530, Note_on_c, 0, 95, 0
2, 73530, Note_on_c, 0, 98, 0
2, 73530, Note_on_c, 0, 90, 0
2, 73530, Note_on_c, 0, 23, 0
2, 73530, Note_on_c, 0, 102, 0
2, 73530, Note_on_c, 0, 89, 122
2, 73530, Note_on_c, 0, 95, 122
2, 73530, Note_on_c, 0, 98, 122
2, 73530, Note_on_c, 0, 101, 122
2, 73530, Note_on_c, 0, 22, 119
2, 73530, Note_on_c, 0, 34, 119
2, 73620, Note_on_c, 0, 34, 0
2, 73620, Note_on_c, 0, 95, 0
2, 73620, Note_on_c, 0, 98, 0
2, 73620, Note_on_c, 0, 89, 0
2, 73620, Note_on_c, 0, 22, 0
2, 73620, Note_on_c, 0, 101, 0
2, 73620, Note_on_c, 0, 90, 126
2, 73620, Note_on_c, 0, 95, 126
2, 73620, Note_on_c, 0, 98, 126
2, 73620, Note_on_c, 0, 102, 126
2, 73620, Note_on_c, 0, 23, 126
2, 73620, Note_on_c, 0, 35, 126
2, 73710, Note_on_c, 0, 35, 0
2, 73710, Note_on_c, 0, 95, 0
2, 73710, Note_on_c, 0, 98, 0
2, 73710, Note_on_c, 0, 90, 0
2, 73710, Note_on_c, 0, 23, 0
2, 73710, Note_on_c, 0, 102, 0
2, 73710, Control_c, 0, 64, 0
2, 73710, Note_on_c, 0, 89, 118
2, 73710, Note_on_c, 0, 95, 118
2, 73710, Note_on_c, 0, 98, 118
2, 73710, Note_on_c, 0, 101, 118
2, 73710, Note_on_c, 0, 22, 122
2, 73710, Note_on_c, 0, 34, 122
2, 73800, Note_on_c, 0, 34, 0
2, 73800, Note_on_c, 0, 95, 0
2, 73800, Note_on_c, 0, 98, 0
2, 73800, Note_on_c, 0, 89, 0
2, 73800, Note_on_c, 0, 22, 0
2, 73800, Note_on_c, 0, 101, 0
2, 73800, Control_c, 0, 64, 127
2, 73800, Note_on_c, 0, 90, 126
2, 73800, Note_on_c, 0, 95, 126
2, 73800, Note_on_c, 0, 98, 126
2, 73800, Note_on_c, 0, 102, 126
2, 73800, Note_on_c, 0, 23, 126
2, 73800, Note_on_c, 0, 35, 126
2, 73890, Note_on_c, 0, 35, 0
2, 73890, Note_on_c, 0, 95, 0
2, 73890, Note_on_c, 0, 98, 0
2, 73890, Note_on_c, 0, 90, 0
2, 73890, Note_on_c, 0, 23, 0
2, 73890, Note_on_c, 0, 102, 0
2, 73890, Note_on_c, 0, 89, 120
2, 73890, Note_on_c, 0, 95, 120
2, 73890, Note_on_c, 0, 98, 120
2, 73890, Note_on_c, 0, 101, 120
2, 73890, Note_on_c, 0, 22, 119
2, 73890, Note_on_c, 0, 34, 119
2, 73980, Note_on_c, 0, 34, 0
2, 73980, Note_on_c, 0, 95, 0
2, 73980, Note_on_c, 0, 98, 0
2, 73980, Note_on_c, 0, 89, 0
2, 73980, Note_on_c, 0, 22, 0
2, 73980, Note_on_c, 0, 101, 0
2, 73980, Note_on_c, 0, 90, 126
2, 73980, Note_on_c, 0, 95, 126
2, 73980, Note_on_c, 0, 98, 126
2, 73980, Note_on_c, 0, 102, 126
2, 73980, Note_on_c, 0, 23, 126
2, 73980, Note_on_c, 0, 35, 126
2, 74070, Note_on_c, 0, 35, 0
2, 74070, Note_on_c, 0, 95, 0
2, 74070, Note_on_c, 0, 98, 0
2, 74070, Note_on_c, 0, 90, 0
2, 74070, Note_on_c, 0, 23, 0
2, 74070, Note_on_c, 0, 102, 0
2, 74070, Control_c, 0, 64, 0
2, 74070, Note_on_c, 0, 89, 121
2, 74070, Note_on_c, 0, 95, 121
2, 74070, Note_on_c, 0, 98, 121
2, 74070, Note_on_c, 0, 101, 121
2, 74070, Note_on_c, 0, 22, 122
2, 74070, Note_on_c, 0, 34, 122
2, 74160, Note_on_c, 0, 34, 0
2, 74160, Note_on_c, 0, 95, 0
2, 74160, Note_on_c, 0, 98, 0
2, 74160, Note_on_c, 0, 89, 0
2, 74160, Note_on_c, 0, 22, 0
2, 74160, Note_on_c, 0, 101, 0
2, 74160, Control_c, 0, 64, 127
2, 74160, Note_on_c, 0, 90, 127
2, 74160, Note_on_c, 0, 95, 127
2, 74160, Note_on_c, 0, 98, 127
2, 74160, Note_on_c, 0, 102, 127
2, 74160, Note_on_c, 0, 23, 127
2, 74160, Note_on_c, 0, 35, 127
2, 74340, Note_on_c, 0, 35, 0
2, 74340, Note_on_c, 0, 95, 0
2, 74340, Note_on_c, 0, 98, 0
2, 74340, Note_on_c, 0, 90, 0
2, 74340, Note_on_c, 0, 23, 0
2, 74340, Note_on_c, 0, 102, 0
2, 74340, Note_on_c, 0, 82, 90
2, 74340, Note_on_c, 0, 94, 90
2, 74340, Note_on_c, 0, 34, 109
2, 74340, Note_on_c, 0, 46, 109
2, 74430, Note_on_c, 0, 46, 0
2, 74430, Note_on_c, 0, 82, 0
2, 74430, Note_on_c, 0, 94, 0
2, 74430, Note_on_c, 0, 34, 0
2, 74430, Note_on_c, 0, 82, 113
2, 74430, Note_on_c, 0, 94, 113
2, 74430, Note_on_c, 0, 34, 111
2, 74430, Note_on_c, 0, 46, 111
2, 74520, Note_on_c, 0, 46, 0
2, 74520, Note_on_c, 0, 82, 0
2, 74520, Note_on_c, 0, 94, 0
2, 74520, Note_on_c, 0, 34, 0
2, 74520, Control_c, 0, 64, 0
2, 74520, Control_c, 0, 64, 127
2, 74520, Note_on_c, 0, 81, 104
2, 74520, Note_on_c, 0, 93, 106
2, 74520, Note_on_c, 0, 93, 104
2, 74520, Note_on_c, 0, 51, 127
2, 74520, Note_on_c, 0, 55, 127
2, 74520, Note_on_c, 0, 58, 127
2, 74520, Note_on_c, 0, 63, 127
2, 74522, Note_on_c, 0, 93, 0
2, 74522, Note_on_c, 0, 93, 0
2, 74610, Note_on_c, 0, 81, 0
2, 74610, Note_on_c, 0, 84, 79
2, 74610, Note_on_c, 0, 87, 79
2, 74700, Note_on_c, 0, 87, 0
2, 74700, Note_on_c, 0, 63, 0
2, 74700, Note_on_c, 0, 58, 0
2, 74700, Note_on_c, 0, 51, 0
2, 74700, Note_on_c, 0, 84, 0
2, 74700, Note_on_c, 0, 55, 0
2, 74700, Control_c, 0, 64, 0
2, 74700, Note_on_c, 0, 94, 108
2, 74700, Note_on_c, 0, 106, 126
2, 74700, Note_on_c, 0, 106, 108
2, 74700, Note_on_c, 0, 34, 101
2, 74700, Note_on_c, 0, 46, 101
2, 74702, Note_on_c, 0, 106, 0
2, 74702, Note_on_c, 0, 106, 0
2, 74790, Note_on_c, 0, 94, 0
2, 74790, Note_on_c, 0, 34, 0
2, 74790, Note_on_c, 0, 46, 0
2, 74790, Note_on_c, 0, 96, 74
2, 74790, Note_on_c, 0, 99, 74
2, 74790, Note_on_c, 0, 34, 107
2, 74790, Note_on_c, 0, 46, 107
2, 74880, Note_on_c, 0, 46, 0
2, 74880, Note_on_c, 0, 96, 0
2, 74880, Note_on_c, 0, 99, 0
2, 74880, Note_on_c, 0, 34, 0
2, 74880, Control_c, 0, 64, 127
2, 74880, Note_on_c, 0, 81, 74
2, 74880, Note_on_c, 0, 93, 88
2, 74880, Note_on_c, 0, 93, 74
2, 74880, Note_on_c, 0, 52, 127
2, 74880, Note_on_c, 0, 55, 127
2, 74880, Note_on_c, 0, 58, 127
2, 74880, Note_on_c, 0, 64, 127
2, 74882, Note_on_c, 0, 93, 0
2, 74882, Note_on_c, 0, 93, 0
2, 74970, Note_on_c, 0, 81, 0
2, 74970, Note_on_c, 0, 85, 76
2, 74970, Note_on_c, 0, 88, 76
2, 75060, Note_on_c, 0, 88, 0
2, 75060, Note_on_c, 0, 64, 0
2, 75060, Note_on_c, 0, 58, 0
2, 75060, Note_on_c, 0, 52, 0
2, 75060, Note_on_c, 0, 85, 0
2, 75060, Note_on_c, 0, 55, 0
2, 75060, Control_c, 0, 64, 0
2, 75060, Note_on_c, 0, 94, 106
2, 75060, Note_on_c, 0, 106, 126
2, 75060, Note_on_c, 0, 106, 106
2, 75060, Note_on_c, 0, 34, 103
2, 75060, Note_on_c, 0, 46, 103
2, 75062, Note_on_c, 0, 106, 0
2, 75062, Note_on_c, 0, 106, 0
2, 75150, Note_on_c, 0, 94, 0
2, 75150, Note_on_c, 0, 34, 0
2, 75150, Note_on_c, 0, 46, 0
2, 75150, Note_on_c, 0, 97, 77
2, 75150, Note_on_c, 0, 100, 77
2, 75150, Note_on_c, 0, 34, 109
2, 75150, Note_on_c, 0, 46, 109
2, 75240, Note_on_c, 0, 46, 0
2, 75240, Note_on_c, 0, 97, 0
2, 75240, Note_on_c, 0, 100, 0
2, 75240, Note_on_c, 0, 34, 0
2, 75240, Control_c, 0, 64, 127
2, 75240, Note_on_c, 0, 56, 127
2, 75240, Note_on_c, 0, 59, 127
2, 75240, Note_on_c, 0, 62, 127
2, 75240, Note_on_c, 0, 64, 127
2, 75240, Note_on_c, 0, 68, 127
2, 75240, Note_on_c, 0, 80, 71
2, 75240, Note_on_c, 0, 92, 86
2, 75240, Note_on_c, 0, 92, 71
2, 75242, Note_on_c, 0, 92, 0
2, 75242, Note_on_c, 0, 92, 0
2, 75330, Note_on_c, 0, 80, 0
2, 75330, Note_on_c, 0, 86, 71
2, 75330, Note_on_c, 0, 88, 71
2, 75420, Note_on_c, 0, 88, 0
2, 75420, Note_on_c, 0, 59, 0
2, 75420, Note_on_c, 0, 68, 0
2, 75420, Note_on_c, 0, 62, 0
2, 75420, Note_on_c, 0, 64, 0
2, 75420, Note_on_c, 0, 86, 0
2, 75420, Note_on_c, 0, 56, 0
2, 75420, Control_c, 0, 64, 0
2, 75420, Note_on_c, 0, 94, 107
2, 75420, Note_on_c, 0, 106, 107
2, 75420, Note_on_c, 0, 22, 103
2, 75420, Note_on_c, 0, 34, 103
2, 75510, Note_on_c, 0, 34, 0
2, 75510, Note_on_c, 0, 94, 0
2, 75510, Note_on_c, 0, 106, 0
2, 75510, Note_on_c, 0, 22, 0
2, 75510, Note_on_c, 0, 98, 75
2, 75510, Note_on_c, 0, 100, 75
2, 75510, Note_on_c, 0, 22, 112
2, 75510, Note_on_c, 0, 34, 112
2, 75600, Note_on_c, 0, 34, 0
2, 75600, Note_on_c, 0, 98, 0
2, 75600, Note_on_c, 0, 100, 0
2, 75600, Note_on_c, 0, 22, 0
2, 75600, Note_on_c, 0, 22, 118
2, 75600, Note_on_c, 0, 34, 118
2, 75600, Note_on_c, 0, 82, 69
2, 75600, Note_on_c, 0, 94, 69
2, 75690, Note_on_c, 0, 94, 0
2, 75690, Note_on_c, 0, 82, 0
2, 75690, Note_on_c, 0, 86, 68
2, 75690, Note_on_c, 0, 88, 68
2, 75780, Note_on_c, 0, 88, 0
2, 75780, Note_on_c, 0, 22, 0
2, 75780, Note_on_c, 0, 34, 0
2, 75780, Note_on_c, 0, 86, 0
2, 75780, Note_on_c, 0, 34, 113
2, 75780, Note_on_c, 0, 46, 113
2, 75780, Note_on_c, 0, 70, 73
2, 75780, Note_on_c, 0, 82, 73
2, 75870, Note_on_c, 0, 82, 0
2, 75870, Note_on_c, 0, 34, 0
2, 75870, Note_on_c, 0, 46, 0
2, 75870, Note_on_c, 0, 70, 0
2, 75870, Note_on_c, 0, 34, 113
2, 75870, Note_on_c, 0, 46, 113
2, 75870, Note_on_c, 0, 70, 85
2, 75870, Note_on_c, 0, 82, 85
2, 75960, Note_on_c, 0, 82, 0
2, 75960, Note_on_c, 0, 34, 0
2, 75960, Note_on_c, 0, 46, 0
2, 75960, Note_on_c, 0, 70, 0
2, 75960, Control_c, 0, 64, 127
2, 75960, Note_on_c, 0, 53, 127
2, 75960, Note_on_c, 0, 57, 127
2, 75960, Note_on_c, 0, 62, 127
2, 75960, Note_on_c, 0, 65, 127
2, 75960, Note_on_c, 0, 69, 85
2, 75960, Note_on_c, 0, 81, 106
2, 75960, Note_on_c, 0, 81, 85
2, 75962, Note_on_c, 0, 81, 0
2, 75962, Note_on_c, 0, 81, 0
2, 76050, Note_on_c, 0, 69, 0
2, 76050, Note_on_c, 0, 70, 64
2, 76050, Note_on_c, 0, 74, 64
2, 76140, Note_on_c, 0, 74, 0
2, 76140, Note_on_c, 0, 57, 0
2, 76140, Note_on_c, 0, 65, 0
2, 76140, Note_on_c, 0, 53, 0
2, 76140, Note_on_c, 0, 70, 0
2, 76140, Note_on_c, 0, 62, 0
2, 76140, Control_c, 0, 64, 0
2, 76140, Note_on_c, 0, 82, 109
2, 76140, Note_on_c, 0, 94, 126
2, 76140, Note_on_c, 0, 94, 109
2, 76140, Note_on_c, 0, 34, 105
2, 76140, Note_on_c, 0, 46, 105
2, 76142, Note_on_c, 0, 94, 0
2, 76142, Note_on_c, 0, 94, 0
2, 76230, Note_on_c, 0, 82, 0
2, 76230, Note_on_c, 0, 34, 0
2, 76230, Note_on_c, 0, 46, 0
2, 76230, Note_on_c, 0, 86, 71
2, 76230, Note_on_c, 0, 87, 71
2, 76230, Note_on_c, 0, 34, 112
2, 76230, Note_on_c, 0, 46, 112
2, 76320, Note_on_c, 0, 46, 0
2, 76320, Note_on_c, 0, 86, 0
2, 76320, Note_on_c, 0, 87, 0
2, 76320, Note_on_c, 0, 34, 0
2, 76320, Control_c, 0, 64, 127
2, 76320, Note_on_c, 0, 54, 127
2, 76320, Note_on_c, 0, 58, 127
2, 76320, Note_on_c, 0, 62, 127
2, 76320, Note_on_c, 0, 66, 127
2, 76320, Note_on_c, 0, 68, 68
2, 76320, Note_on_c, 0, 80, 86
2, 76320, Note_on_c, 0, 80, 68
2, 76322, Note_on_c, 0, 80, 0
2, 76322, Note_on_c, 0, 80, 0
2, 76410, Note_on_c, 0, 68, 0
2, 76410, Note_on_c, 0, 70, 70
2, 76410, Note_on_c, 0, 74, 70
2, 76500, Note_on_c, 0, 74, 0
2, 76500, Note_on_c, 0, 58, 0
2, 76500, Note_on_c, 0, 66, 0
2, 76500, Note_on_c, 0, 54, 0
2, 76500, Note_on_c, 0, 70, 0
2, 76500, Note_on_c, 0, 62, 0
2, 76500, Control_c, 0, 64, 0
2, 76500, Note_on_c, 0, 82, 105
2, 76500, Note_on_c, 0, 94, 126
2, 76500, Note_on_c, 0, 94, 105
2, 76500, Note_on_c, 0, 34, 106
2, 76500, Note_on_c, 0, 46, 106
2, 76502, Note_on_c, 0, 94, 0
2, 76502, Note_on_c, 0, 94, 0
2, 76590, Note_on_c, 0, 82, 0
2, 76590, Note_on_c, 0, 34, 0
2, 76590, Note_on_c, 0, 46, 0
2, 76590, Note_on_c, 0, 86, 77
2, 76590, Note_on_c, 0, 90, 77
2, 76590, Note_on_c, 0, 34, 112
2, 76590, Note_on_c, 0, 46, 112
2, 76680, Note_on_c, 0, 46, 0
2, 76680, Note_on_c, 0, 86, 0
2, 76680, Note_on_c, 0, 90, 0
2, 76680, Note_on_c, 0, 34, 0
2, 76680, Control_c, 0, 64, 127
2, 76680, Note_on_c, 0, 55, 127
2, 76680, Note_on_c, 0, 59, 127
2, 76680, Note_on_c, 0, 63, 127
2, 76680, Note_on_c, 0, 67, 127
2, 76680, Note_on_c, 0, 79, 87
2, 76680, Note_on_c, 0, 91, 101
2, 76680, Note_on_c, 0, 91, 87
2, 76682, Note_on_c, 0, 91, 0
2, 76682, Note_on_c, 0, 91, 0
2, 76770, Note_on_c, 0, 79, 0
2, 76770, Note_on_c, 0, 82, 76
2, 76770, Note_on_c, 0, 87, 76
2, 76860, Note_on_c, 0, 87, 0
2, 76860, Note_on_c, 0, 59, 0
2, 76860, Note_on_c, 0, 67, 0
2, 76860, Note_on_c, 0, 55, 0
2, 76860, Note_on_c, 0, 82, 0
2, 76860, Note_on_c, 0, 63, 0
2, 76860, Control_c, 0, 64, 0
2, 76860, Note_on_c, 0, 94, 110
2, 76860, Note_on_c, 0, 106, 110
2, 76860, Note_on_c, 0, 31, 103
2, 76860, Note_on_c, 0, 34, 103
2, 76860, Note_on_c, 0, 39, 103
2, 76860, Note_on_c, 0, 43, 103
2, 76950, Note_on_c, 0, 43, 0
2, 76950, Note_on_c, 0, 106, 0
2, 76950, Note_on_c, 0, 31, 0
2, 76950, Note_on_c, 0, 94, 0
2, 76950, Note_on_c, 0, 39, 0
2, 76950, Note_on_c, 0, 34, 0
2, 76950, Note_on_c, 0, 99, 84
2, 76950, Note_on_c, 0, 103, 84
2, 76950, Note_on_c, 0, 31, 111
2, 76950, Note_on_c, 0, 34, 111
2, 76950, Note_on_c, 0, 39, 111
2, 76950, Note_on_c, 0, 43, 111
2, 77040, Note_on_c, 0, 43, 0
2, 77040, Note_on_c, 0, 103, 0
2, 77040, Note_on_c, 0, 31, 0
2, 77040, Note_on_c, 0, 99, 0
2, 77040, Note_on_c, 0, 39, 0
2, 77040, Note_on_c, 0, 34, 0
2, 77040, Note_on_c, 0, 31, 118
2, 77040, Note_on_c, 0, 34, 118
2, 77040, Note_on_c, 0, 39, 118
2, 77040, Note_on_c, 0, 43, 118
2, 77040, Note_on_c, 0, 82, 65
2, 77040, Note_on_c, 0, 94, 65
2, 77130, Note_on_c, 0, 94, 0
2, 77130, Note_on_c, 0, 82, 0
2, 77130, Note_on_c, 0, 87, 76
2, 77130, Note_on_c, 0, 91, 76
2, 77220, Note_on_c, 0, 91, 0
2, 77220, Note_on_c, 0, 34, 0
2, 77220, Note_on_c, 0, 43, 0
2, 77220, Note_on_c, 0, 31, 0
2, 77220, Note_on_c, 0, 87, 0
2, 77220, Note_on_c, 0, 39, 0
2, 77220, Note_on_c, 0, 82, 93
2, 77220, Note_on_c, 0, 94, 93
2, 77220, Note_on_c, 0, 58, 126
2, 77310, Note_on_c, 0, 58, 0
2, 77310, Note_on_c, 0, 94, 0
2, 77310, Note_on_c, 0, 82, 0
2, 77310, Note_on_c, 0, 82, 86
2, 77310, Note_on_c, 0, 94, 86
2, 77310, Note_on_c, 0, 55, 110
2, 77400, Note_on_c, 0, 55, 0
2, 77400, Note_on_c, 0, 94, 0
2, 77400, Note_on_c, 0, 82, 0
2, 77400, Control_c, 0, 64, 127
2, 77400, Note_on_c, 0, 58, 126
2, 77400, Note_on_c, 0, 63, 126
2, 77400, Note_on_c, 0, 70, 126
2, 77445, Note_on_c, 0, 70, 0
2, 77445, Note_on_c, 0, 63, 0
2, 77445, Note_on_c, 0, 58, 0
2, 77445, Note_on_c, 0, 87, 102
2, 77445, Note_on_c, 0, 99, 102
2, 77490, Note_on_c, 0, 99, 0
2, 77490, Note_on_c, 0, 87, 0
2, 77490, Note_on_c, 0, 50, 100
2, 77490, Note_on_c, 0, 62, 100
2, 77535, Note_on_c, 0, 62, 0
2, 77535, Note_on_c, 0, 50, 0
2, 77535, Note_on_c, 0, 86, 100
2, 77535, Note_on_c, 0, 98, 100
2, 77535, Control_c, 0, 64, 0
2, 77580, Note_on_c, 0, 98, 0
2, 77580, Note_on_c, 0, 86, 0
2, 77580, Control_c, 0, 64, 127
2, 77580, Note_on_c, 0, 34, 107
2, 77580, Note_on_c, 0, 46, 107
2, 77625, Note_on_c, 0, 46, 0
2, 77625, Note_on_c, 0, 34, 0
2, 77625, Note_on_c, 0, 91, 99
2, 77625, Note_on_c, 0, 103, 99
2, 77670, Note_on_c, 0, 103, 0
2, 77670, Note_on_c, 0, 91, 0
2, 77670, Note_on_c, 0, 45, 103
2, 77670, Note_on_c, 0, 57, 103
2, 77715, Note_on_c, 0, 57, 0
2, 77715, Note_on_c, 0, 45, 0
2, 77715, Note_on_c, 0, 89, 101
2, 77715, Note_on_c, 0, 101, 101
2, 77715, Control_c, 0, 64, 0
2, 77760, Note_on_c, 0, 101, 0
2, 77760, Note_on_c, 0, 89, 0
2, 77760, Control_c, 0, 64, 127
2, 77760, Note_on_c, 0, 46, 99
2, 77760, Note_on_c, 0, 58, 99
2, 77805, Note_on_c, 0, 58, 0
2, 77805, Note_on_c, 0, 46, 0
2, 77805, Note_on_c, 0, 87, 105
2, 77805, Note_on_c, 0, 99, 105
2, 77850, Note_on_c, 0, 99, 0
2, 77850, Note_on_c, 0, 87, 0
2, 77850, Note_on_c, 0, 38, 97
2, 77850, Note_on_c, 0, 50, 97
2, 77895, Note_on_c, 0, 50, 0
2, 77895, Note_on_c, 0, 38, 0
2, 77895, Note_on_c, 0, 86, 104
2, 77895, Note_on_c, 0, 98, 104
2, 77895, Control_c, 0, 64, 0
2, 77940, Note_on_c, 0, 98, 0
2, 77940, Note_on_c, 0, 86, 0
2, 77940, Control_c, 0, 64, 127
2, 77940, Note_on_c, 0, 39, 104
2, 77940, Note_on_c, 0, 51, 104
2, 77985, Note_on_c, 0, 51, 0
2, 77985, Note_on_c, 0, 39, 0
2, 77985, Note_on_c, 0, 84, 98
2, 77985, Note_on_c, 0, 96, 98
2, 78030, Note_on_c, 0, 96, 0
2, 78030, Note_on_c, 0, 84, 0
2, 78030, Note_on_c, 0, 34, 102
2, 78030, Note_on_c, 0, 46, 102
2, 78075, Note_on_c, 0, 46, 0
2, 78075, Note_on_c, 0, 34, 0
2, 78075, Control_c, 0, 64, 0
2, 78075, Note_on_c, 0, 82, 106
2, 78075, Note_on_c, 0, 94, 106
2, 78120, Note_on_c, 0, 94, 0
2, 78120, Note_on_c, 0, 82, 0
2, 78120, Control_c, 0, 64, 127
2, 78120, Note_on_c, 0, 86, 118
2, 78120, Note_on_c, 0, 92, 118
2, 78120, Note_on_c, 0, 98, 118
2, 78120, Note_on_c, 0, 34, 103
2, 78120, Note_on_c, 0, 46, 103
2, 78300, Note_on_c, 0, 46, 0
2, 78300, Note_on_c, 0, 98, 0
2, 78300, Note_on_c, 0, 86, 0
2, 78300, Note_on_c, 0, 92, 0
2, 78300, Note_on_c, 0, 34, 0
2, 78300, Note_on_c, 0, 48, 126
2, 78300, Note_on_c, 0, 56, 126
2, 78300, Note_on_c, 0, 60, 126
2, 78345, Note_on_c, 0, 60, 0
2, 78345, Note_on_c, 0, 56, 0
2, 78345, Note_on_c, 0, 48, 0
2, 78345, Note_on_c, 0, 73, 126
2, 78345, Note_on_c, 0, 61, 126
2, 78390, Note_on_c, 0, 61, 0
2, 78390, Note_on_c, 0, 73, 0
2, 78390, Note_on_c, 0, 62, 93
2, 78390, Note_on_c, 0, 50, 93
2, 78390, Note_on_c, 0, 56, 93
2, 78435, Note_on_c, 0, 56, 0
2, 78435, Note_on_c, 0, 50, 0
2, 78435, Note_on_c, 0, 62, 0
2, 78435, Control_c, 0, 64, 0
2, 78435, Note_on_c, 0, 63, 126
2, 78435, Note_on_c, 0, 75, 126
2, 78480, Note_on_c, 0, 75, 0
2, 78480, Note_on_c, 0, 63, 0
2, 78480, Note_on_c, 0, 74, 107
2, 78480, Note_on_c, 0, 76, 107
2, 78480, Note_on_c, 0, 52, 88
2, 78480, Note_on_c, 0, 56, 88
2, 78480, Note_on_c, 0, 59, 88
2, 78480, Note_on_c, 0, 64, 88
2, 78570, Note_on_c, 0, 76, 0
2, 78570, Note_on_c, 0, 74, 0
2, 78570, Note_on_c, 0, 96, 126
2, 78570, Note_on_c, 0, 84, 126
2, 78660, Note_on_c, 0, 84, 0
2, 78660, Note_on_c, 0, 64, 0
2, 78660, Note_on_c, 0, 52, 0
2, 78660, Note_on_c, 0, 56, 0
2, 78660, Note_on_c, 0, 96, 0
2, 78660, Note_on_c, 0, 59, 0
2, 78660, Note_on_c, 0, 94, 110
2, 78660, Note_on_c, 0, 82, 110
2, 78660, Note_on_c, 0, 38, 88
2, 78660, Note_on_c, 0, 50, 88
2, 78750, Note_on_c, 0, 50, 0
2, 78750, Note_on_c, 0, 94, 0
2, 78750, Note_on_c, 0, 82, 0
2, 78750, Note_on_c, 0, 38, 0
2, 78750, Note_on_c, 0, 96, 118
2, 78750, Note_on_c, 0, 84, 118
2, 78750, Note_on_c, 0, 36, 105
2, 78750, Note_on_c, 0, 48, 105
2, 78840, Note_on_c, 0, 48, 0
2, 78840, Note_on_c, 0, 96, 0
2, 78840, Note_on_c, 0, 84, 0
2, 78840, Note_on_c, 0, 36, 0
2, 78840, Control_c, 0, 64, 127
2, 78840, Note_on_c, 0, 86, 118
2, 78840, Note_on_c, 0, 92, 118
2, 78840, Note_on_c, 0, 98, 118
2, 78840, Note_on_c, 0, 34, 109
2, 78840, Note_on_c, 0, 46, 109
2, 79020, Note_on_c, 0, 46, 0
2, 79020, Note_on_c, 0, 98, 0
2, 79020, Note_on_c, 0, 86, 0
2, 79020, Note_on_c, 0, 92, 0
2, 79020, Note_on_c, 0, 34, 0
2, 79020, Note_on_c, 0, 48, 126
2, 79020, Note_on_c, 0, 56, 126
2, 79020, Note_on_c, 0, 60, 126
2, 79065, Note_on_c, 0, 60, 0
2, 79065, Note_on_c, 0, 56, 0
2, 79065, Note_on_c, 0, 48, 0
2, 79065, Note_on_c, 0, 73, 126
2, 79065, Note_on_c, 0, 61, 126
2, 79110, Note_on_c, 0, 61, 0
2, 79110, Note_on_c, 0, 73, 0
2, 79110, Note_on_c, 0, 62, 91
2, 79110, Note_on_c, 0, 50, 91
2, 79110, Note_on_c, 0, 56, 91
2, 79155, Note_on_c, 0, 56, 0
2, 79155, Note_on_c, 0, 50, 0
2, 79155, Note_on_c, 0, 62, 0
2, 79155, Note_on_c, 0, 63, 126
2, 79155, Note_on_c, 0, 75, 126
2, 79155, Control_c, 0, 64, 0
2, 79200, Note_on_c, 0, 75, 0
2, 79200, Note_on_c, 0, 63, 0
2, 79200, Note_on_c, 0, 74, 101
2, 79200, Note_on_c, 0, 76, 101
2, 79200, Note_on_c, 0, 52, 87
2, 79200, Note_on_c, 0, 56, 87
2, 79200, Note_on_c, 0, 59, 87
2, 79200, Note_on_c, 0, 64, 87
2, 79290, Note_on_c, 0, 76, 0
2, 79290, Note_on_c, 0, 74, 0
2, 79290, Note_on_c, 0, 82, 126
2, 79290, Note_on_c, 0, 94, 126
2, 79380, Note_on_c, 0, 94, 0
2, 79380, Note_on_c, 0, 64, 0
2, 79380, Note_on_c, 0, 52, 0
2, 79380, Note_on_c, 0, 56, 0
2, 79380, Note_on_c, 0, 82, 0
2, 79380, Note_on_c, 0, 59, 0
2, 79380, Note_on_c, 0, 80, 108
2, 79380, Note_on_c, 0, 92, 108
2, 79380, Note_on_c, 0, 43, 90
2, 79380, Note_on_c, 0, 55, 90
2, 79470, Note_on_c, 0, 55, 0
2, 79470, Note_on_c, 0, 80, 0
2, 79470, Note_on_c, 0, 92, 0
2, 79470, Note_on_c, 0, 43, 0
2, 79470, Note_on_c, 0, 82, 119
2, 79470, Note_on_c, 0, 94, 119
2, 79470, Note_on_c, 0, 41, 113
2, 79470, Note_on_c, 0, 53, 113
2, 79560, Note_on_c, 0, 53, 0
2, 79560, Note_on_c, 0, 82, 0
2, 79560, Note_on_c, 0, 94, 0
2, 79560, Note_on_c, 0, 41, 0
2, 79560, Control_c, 0, 64, 127
2, 79560, Note_on_c, 0, 84, 125
2, 79560, Note_on_c, 0, 90, 125
2, 79560, Note_on_c, 0, 96, 125
2, 79560, Note_on_c, 0, 39, 108
2, 79560, Note_on_c, 0, 43, 108
2, 79560, Note_on_c, 0, 46, 108
2, 79560, Note_on_c, 0, 51, 108
2, 79740, Note_on_c, 0, 51, 0
2, 79740, Note_on_c, 0, 43, 0
2, 79740, Note_on_c, 0, 90, 0
2, 79740, Note_on_c, 0, 96, 0
2, 79740, Note_on_c, 0, 84, 0
2, 79740, Note_on_c, 0, 46, 0
2, 79740, Note_on_c, 0, 39, 0
2, 79740, Note_on_c, 0, 51, 126
2, 79740, Note_on_c, 0, 58, 126
2, 79740, Note_on_c, 0, 63, 126
2, 79785, Note_on_c, 0, 63, 0
2, 79785, Note_on_c, 0, 58, 0
2, 79785, Note_on_c, 0, 51, 0
2, 79785, Note_on_c, 0, 76, 126
2, 79785, Note_on_c, 0, 64, 126
2, 79830, Note_on_c, 0, 64, 0
2, 79830, Note_on_c, 0, 76, 0
2, 79830, Note_on_c, 0, 65, 87
2, 79830, Note_on_c, 0, 53, 87
2, 79830, Note_on_c, 0, 58, 87
2, 79875, Note_on_c, 0, 58, 0
2, 79875, Note_on_c, 0, 53, 0
2, 79875, Note_on_c, 0, 65, 0
2, 79875, Note_on_c, 0, 66, 126
2, 79875, Note_on_c, 0, 78, 126
2, 79875, Control_c, 0, 64, 0
2, 79920, Note_on_c, 0, 78, 0
2, 79920, Note_on_c, 0, 66, 0
2, 79920, Note_on_c, 0, 67, 90
2, 79920, Note_on_c, 0, 70, 106
2, 79920, Note_on_c, 0, 75, 106
2, 79920, Note_on_c, 0, 55, 90
2, 79920, Note_on_c, 0, 58, 90
2, 79920, Note_on_c, 0, 63, 90
2, 79920, Note_on_c, 0, 65, 90
2, 80100, Note_on_c, 0, 65, 0
2, 80100, Note_on_c, 0, 58, 0
2, 80100, Note_on_c, 0, 70, 0
2, 80100, Note_on_c, 0, 75, 0
2, 80100, Note_on_c, 0, 67, 0
2, 80100, Note_on_c, 0, 63, 0
2, 80100, Note_on_c, 0, 55, 0
2, 80100, Note_on_c, 0, 94, 126
2, 80100, Note_on_c, 0, 82, 126
2, 80100, Note_on_c, 0, 34, 89
2, 80100, Note_on_c, 0, 46, 89
2, 80190, Note_on_c, 0, 46, 0
2, 80190, Note_on_c, 0, 94, 0
2, 80190, Note_on_c, 0, 82, 0
2, 80190, Note_on_c, 0, 34, 0
2, 80190, Note_on_c, 0, 94, 117
2, 80190, Note_on_c, 0, 82, 117
2, 80190, Note_on_c, 0, 34, 114
2, 80190, Note_on_c, 0, 46, 114
2, 80280, Note_on_c, 0, 46, 0
2, 80280, Note_on_c, 0, 94, 0
2, 80280, Note_on_c, 0, 82, 0
2, 80280, Note_on_c, 0, 34, 0
2, 80280, Control_c, 0, 64, 127
2, 80280, Note_on_c, 0, 81, 82
2, 80280, Note_on_c, 0, 93, 105
2, 80280, Note_on_c, 0, 93, 82
2, 80280, Note_on_c, 0, 51, 127
2, 80280, Note_on_c, 0, 55, 127
2, 80280, Note_on_c, 0, 58, 127
2, 80280, Note_on_c, 0, 63, 127
2, 80282, Note_on_c, 0, 93, 0
2, 80282, Note_on_c, 0, 93, 0
2, 80370, Note_on_c, 0, 81, 0
2, 80370, Note_on_c, 0, 84, 71
2, 80370, Note_on_c, 0, 87, 71
2, 80460, Note_on_c, 0, 87, 0
2, 80460, Note_on_c, 0, 63, 0
2, 80460, Note_on_c, 0, 58, 0
2, 80460, Note_on_c, 0, 51, 0
2, 80460, Note_on_c, 0, 84, 0
2, 80460, Note_on_c, 0, 55, 0
2, 80460, Control_c, 0, 64, 0
2, 80460, Note_on_c, 0, 94, 104
2, 80460, Note_on_c, 0, 106, 126
2, 80460, Note_on_c, 0, 106, 104
2, 80460, Note_on_c, 0, 34, 102
2, 80460, Note_on_c, 0, 46, 102
2, 80462, Note_on_c, 0, 106, 0
2, 80462, Note_on_c, 0, 106, 0
2, 80550, Note_on_c, 0, 94, 0
2, 80550, Note_on_c, 0, 34, 0
2, 80550, Note_on_c, 0, 46, 0
2, 80550, Note_on_c, 0, 96, 76
2, 80550, Note_on_c, 0, 99, 76
2, 80550, Note_on_c, 0, 34, 110
2, 80550, Note_on_c, 0, 46, 110
2, 80640, Note_on_c, 0, 46, 0
2, 80640, Note_on_c, 0, 96, 0
2, 80640, Note_on_c, 0, 99, 0
2, 80640, Note_on_c, 0, 34, 0
2, 80640, Control_c, 0, 64, 127
2, 80640, Note_on_c, 0, 81, 74
2, 80640, Note_on_c, 0, 93, 92
2, 80640, Note_on_c, 0, 93, 74
2, 80640, Note_on_c, 0, 52, 127
2, 80640, Note_on_c, 0, 55, 127
2, 80640, Note_on_c, 0, 58, 127
2, 80640, Note_on_c, 0, 64, 127
2, 80642, Note_on_c, 0, 93, 0
2, 80642, Note_on_c, 0, 93, 0
2, 80730, Note_on_c, 0, 81, 0
2, 80730, Note_on_c, 0, 85, 68
2, 80730, Note_on_c, 0, 88, 68
2, 80820, Note_on_c, 0, 88, 0
2, 80820, Note_on_c, 0, 64, 0
2, 80820, Note_on_c, 0, 58, 0
2, 80820, Note_on_c, 0, 52, 0
2, 80820, Note_on_c, 0, 85, 0
2, 80820, Note_on_c, 0, 55, 0
2, 80820, Control_c, 0, 64, 0
2, 80820, Note_on_c, 0, 94, 109
2, 80820, Note_on_c, 0, 106, 126
2, 80820, Note_on_c, 0, 106, 109
2, 80820, Note_on_c, 0, 34, 101
2, 80820, Note_on_c, 0, 46, 101
2, 80822, Note_on_c, 0, 106, 0
2, 80822, Note_on_c, 0, 106, 0
2, 80910, Note_on_c, 0, 94, 0
2, 80910, Note_on_c, 0, 34, 0
2, 80910, Note_on_c, 0, 46, 0
2, 80910, Note_on_c, 0, 97, 77
2, 80910, Note_on_c, 0, 100, 77
2, 80910, Note_on_c, 0, 34, 112
2, 80910, Note_on_c, 0, 46, 112
2, 81000, Note_on_c, 0, 46, 0
2, 81000, Note_on_c, 0, 97, 0
2, 81000, Note_on_c, 0, 100, 0
2, 81000, Note_on_c, 0, 34, 0
2, 81000, Control_c, 0, 64, 127
2, 81000, Note_on_c, 0, 56, 127
2, 81000, Note_on_c, 0, 59, 127
2, 81000, Note_on_c, 0, 62, 127
2, 81000, Note_on_c, 0, 64, 127
2, 81000, Note_on_c, 0, 68, 127
2, 81000, Note_on_c, 0, 80, 67
2, 81000, Note_on_c, 0, 92, 86
2, 81000, Note_on_c, 0, 92, 67
2, 81002, Note_on_c, 0, 92, 0
2, 81002, Note_on_c, 0, 92, 0
2, 81090, Note_on_c, 0, 80, 0
2, 81090, Note_on_c, 0, 86, 73
2, 81090, Note_on_c, 0, 88, 73
2, 81180, Note_on_c, 0, 88, 0
2, 81180, Note_on_c, 0, 59, 0
2, 81180, Note_on_c, 0, 68, 0
2, 81180, Note_on_c, 0, 62, 0
2, 81180, Note_on_c, 0, 64, 0
2, 81180, Note_on_c, 0, 86, 0
2, 81180, Note_on_c, 0, 56, 0
2, 81180, Control_c, 0, 64, 0
2, 81180, Note_on_c, 0, 94, 115
2, 81180, Note_on_c, 0, 106, 115
2, 81180, Note_on_c, 0, 22, 105
2, 81180, Note_on_c, 0, 34, 105
2, 81239, Note_on_c, 0, 34, 0
2, 81239, Note_on_c, 0, 22, 0
2, 81239, Note_on_c, 0, 22, 110
2, 81239, Note_on_c, 0, 34, 110
2, 81270, Note_on_c, 0, 106, 0
2, 81270, Note_on_c, 0, 94, 0
2, 81270, Note_on_c, 0, 98, 74
2, 81270, Note_on_c, 0, 100, 74
2, 81300, Note_on_c, 0, 22, 0
2, 81300, Note_on_c, 0, 34, 0
2, 81300, Note_on_c, 0, 22, 115
2, 81300, Note_on_c, 0, 34, 115
2, 81360, Note_on_c, 0, 34, 0
2, 81360, Note_on_c, 0, 100, 0
2, 81360, Note_on_c, 0, 98, 0
2, 81360, Note_on_c, 0, 22, 0
2, 81360, Note_on_c, 0, 22, 117
2, 81360, Note_on_c, 0, 34, 117
2, 81360, Note_on_c, 0, 82, 72
2, 81360, Note_on_c, 0, 94, 72
2, 81450, Note_on_c, 0, 94, 0
2, 81450, Note_on_c, 0, 82, 0
2, 81450, Note_on_c, 0, 86, 71
2, 81450, Note_on_c, 0, 88, 71
2, 81540, Note_on_c, 0, 88, 0
2, 81540, Note_on_c, 0, 22, 0
2, 81540, Note_on_c, 0, 34, 0
2, 81540, Note_on_c, 0, 86, 0
2, 81540, Note_on_c, 0, 34, 110
2, 81540, Note_on_c, 0, 46, 110
2, 81540, Note_on_c, 0, 82, 98
2, 81540, Note_on_c, 0, 94, 98
2, 81630, Note_on_c, 0, 94, 0
2, 81630, Note_on_c, 0, 34, 0
2, 81630, Note_on_c, 0, 46, 0
2, 81630, Note_on_c, 0, 82, 0
2, 81630, Note_on_c, 0, 34, 110
2, 81630, Note_on_c, 0, 46, 110
2, 81630, Note_on_c, 0, 82, 87
2, 81630, Note_on_c, 0, 94, 87
2, 81720, Note_on_c, 0, 94, 0
2, 81720, Note_on_c, 0, 34, 0
2, 81720, Note_on_c, 0, 46, 0
2, 81720, Note_on_c, 0, 82, 0
2, 81720, Control_c, 0, 64, 127
2, 81720, Note_on_c, 0, 81, 84
2, 81720, Note_on_c, 0, 93, 105
2, 81720, Note_on_c, 0, 93, 84
2, 81720, Note_on_c, 0, 53, 127
2, 81720, Note_on_c, 0, 57, 127
2, 81720, Note_on_c, 0, 62, 127
2, 81720, Note_on_c, 0, 65, 127
2, 81722, Note_on_c, 0, 93, 0
2, 81722, Note_on_c, 0, 93, 0
2, 81810, Note_on_c, 0, 81, 0
2, 81810, Note_on_c, 0, 82, 68
2, 81810, Note_on_c, 0, 86, 68
2, 81900, Note_on_c, 0, 86, 0
2, 81900, Note_on_c, 0, 65, 0
2, 81900, Note_on_c, 0, 62, 0
2, 81900, Note_on_c, 0, 53, 0
2, 81900, Note_on_c, 0, 82, 0
2, 81900, Note_on_c, 0, 57, 0
2, 81900, Control_c, 0, 64, 0
2, 81900, Note_on_c, 0, 94, 107
2, 81900, Note_on_c, 0, 106, 126
2, 81900, Note_on_c, 0, 106, 107
2, 81900, Note_on_c, 0, 34, 104
2, 81900, Note_on_c, 0, 46, 104
2, 81902, Note_on_c, 0, 106, 0
2, 81902, Note_on_c, 0, 106, 0
2, 81990, Note_on_c, 0, 94, 0
2, 81990, Note_on_c, 0, 34, 0
2, 81990, Note_on_c, 0, 46, 0
2, 81990, Note_on_c, 0, 98, 74
2, 81990, Note_on_c, 0, 99, 74
2, 81990, Note_on_c, 0, 34, 111
2, 81990, Note_on_c, 0, 46, 111
2, 82080, Note_on_c, 0, 46, 0
2, 82080, Note_on_c, 0, 98, 0
2, 82080, Note_on_c, 0, 99, 0
2, 82080, Note_on_c, 0, 34, 0
2, 82080, Control_c, 0, 64, 127
2, 82080, Note_on_c, 0, 81, 68
2, 82080, Note_on_c, 0, 93, 88
2, 82080, Note_on_c, 0, 93, 68
2, 82080, Note_on_c, 0, 54, 127
2, 82080, Note_on_c, 0, 58, 127
2, 82080, Note_on_c, 0, 62, 127
2, 82080, Note_on_c, 0, 66, 127
2, 82082, Note_on_c, 0, 93, 0
2, 82082, Note_on_c, 0, 93, 0
2, 82170, Note_on_c, 0, 81, 0
2, 82170, Note_on_c, 0, 82, 70
2, 82170, Note_on_c, 0, 86, 70
2, 82260, Note_on_c, 0, 86, 0
2, 82260, Note_on_c, 0, 66, 0
2, 82260, Note_on_c, 0, 62, 0
2, 82260, Note_on_c, 0, 54, 0
2, 82260, Note_on_c, 0, 82, 0
2, 82260, Note_on_c, 0, 58, 0
2, 82260, Control_c, 0, 64, 0
2, 82260, Note_on_c, 0, 94, 102
2, 82260, Note_on_c, 0, 106, 126
2, 82260, Note_on_c, 0, 106, 102
2, 82260, Note_on_c, 0, 34, 107
2, 82260, Note_on_c, 0, 46, 107
2, 82262, Note_on_c, 0, 106, 0
2, 82262, Note_on_c, 0, 106, 0
2, 82350, Note_on_c, 0, 94, 0
2, 82350, Note_on_c, 0, 34, 0
2, 82350, Note_on_c, 0, 46, 0
2, 82350, Note_on_c, 0, 98, 79
2, 82350, Note_on_c, 0, 102, 79
2, 82350, Note_on_c, 0, 34, 114
2, 82350, Note_on_c, 0, 46, 114
2, 82440, Note_on_c, 0, 46, 0
2, 82440, Note_on_c, 0, 98, 0
2, 82440, Note_on_c, 0, 102, 0
2, 82440, Note_on_c, 0, 34, 0
2, 82440, Control_c, 0, 64, 127
2, 82440, Note_on_c, 0, 55, 127
2, 82440, Note_on_c, 0, 58, 127
2, 82440, Note_on_c, 0, 63, 127
2, 82440, Note_on_c, 0, 67, 127
2, 82440, Note_on_c, 0, 79, 66
2, 82440, Note_on_c, 0, 91, 87
2, 82440, Note_on_c, 0, 91, 66
2, 82442, Note_on_c, 0, 91, 0
2, 82442, Note_on_c, 0, 91, 0
2, 82530, Note_on_c, 0, 79, 0
2, 82530, Note_on_c, 0, 82, 72
2, 82530, Note_on_c, 0, 87, 72
2, 82620, Note_on_c, 0, 87, 0
2, 82620, Note_on_c, 0, 58, 0
2, 82620, Note_on_c, 0, 67, 0
2, 82620, Note_on_c, 0, 55, 0
2, 82620, Note_on_c, 0, 82, 0
2, 82620, Note_on_c, 0, 63, 0
2, 82620, Control_c, 0, 64, 0
2, 82620, Note_on_c, 0, 94, 106
2, 82620, Note_on_c, 0, 106, 106
2, 82620, Note_on_c, 0, 31, 103
2, 82620, Note_on_c, 0, 34, 103
2, 82620, Note_on_c, 0, 39, 103
2, 82620, Note_on_c, 0, 43, 103
2, 82710, Note_on_c, 0, 43, 0
2, 82710, Note_on_c, 0, 106, 0
2, 82710, Note_on_c, 0, 31, 0
2, 82710, Note_on_c, 0, 94, 0
2, 82710, Note_on_c, 0, 39, 0
2, 82710, Note_on_c, 0, 34, 0
2, 82710, Note_on_c, 0, 99, 83
2, 82710, Note_on_c, 0, 103, 83
2, 82710, Note_on_c, 0, 31, 112
2, 82710, Note_on_c, 0, 34, 112
2, 82710, Note_on_c, 0, 39, 112
2, 82710, Note_on_c, 0, 43, 112
2, 82800, Note_on_c, 0, 43, 0
2, 82800, Note_on_c, 0, 103, 0
2, 82800, Note_on_c, 0, 31, 0
2, 82800, Note_on_c, 0, 99, 0
2, 82800, Note_on_c, 0, 39, 0
2, 82800, Note_on_c, 0, 34, 0
2, 82800, Note_on_c, 0, 31, 113
2, 82800, Note_on_c, 0, 34, 113
2, 82800, Note_on_c, 0, 39, 113
2, 82800, Note_on_c, 0, 43, 113
2, 82800, Note_on_c, 0, 82, 69
2, 82800, Note_on_c, 0, 94, 69
2, 82890, Note_on_c, 0, 94, 0
2, 82890, Note_on_c, 0, 82, 0
2, 82890, Note_on_c, 0, 87, 74
2, 82890, Note_on_c, 0, 91, 74
2, 82980, Note_on_c, 0, 91, 0
2, 82980, Note_on_c, 0, 34, 0
2, 82980, Note_on_c, 0, 43, 0
2, 82980, Note_on_c, 0, 31, 0
2, 82980, Note_on_c, 0, 87, 0
2, 82980, Note_on_c, 0, 39, 0
2, 82980, Note_on_c, 0, 82, 96
2, 82980, Note_on_c, 0, 94, 96
2, 82980, Note_on_c, 0, 58, 126
2, 83070, Note_on_c, 0, 58, 0
2, 83070, Note_on_c, 0, 94, 0
2, 83070, Note_on_c, 0, 82, 0
2, 83070, Note_on_c, 0, 82, 82
2, 83070, Note_on_c, 0, 94, 82
2, 83070, Note_on_c, 0, 55, 111
2, 83160, Note_on_c, 0, 55, 0
2, 83160, Note_on_c, 0, 94, 0
2, 83160, Note_on_c, 0, 82, 0
2, 83160, Control_c, 0, 64, 127
2, 83160, Note_on_c, 0, 58, 126
2, 83160, Note_on_c, 0, 63, 126
2, 83160, Note_on_c, 0, 70, 126
2, 83205, Note_on_c, 0, 70, 0
2, 83205, Note_on_c, 0, 63, 0
2, 83205, Note_on_c, 0, 58, 0
2, 83205, Note_on_c, 0, 87, 104
2, 83205, Note_on_c, 0, 99, 104
2, 83250, Note_on_c, 0, 99, 0
2, 83250, Note_on_c, 0, 87, 0
2, 83250, Control_c, 0, 64, 0
2, 83250, Note_on_c, 0, 50, 105
2, 83250, Note_on_c, 0, 62, 105
2, 83295, Note_on_c, 0, 62, 0
2, 83295, Note_on_c, 0, 50, 0
2, 83295, Note_on_c, 0, 86, 101
2, 83295, Note_on_c, 0, 98, 101
2, 83295, Control_c, 0, 64, 127
2, 83340, Note_on_c, 0, 98, 0
2, 83340, Note_on_c, 0, 86, 0
2, 83340, Note_on_c, 0, 53, 99
2, 83340, Note_on_c, 0, 65, 99
2, 83385, Note_on_c, 0, 65, 0
2, 83385, Note_on_c, 0, 53, 0
2, 83385, Note_on_c, 0, 91, 104
2, 83385, Note_on_c, 0, 103, 104
2, 83430, Note_on_c, 0, 103, 0
2, 83430, Note_on_c, 0, 91, 0
2, 83430, Control_c, 0, 64, 0
2, 83430, Note_on_c, 0, 45, 100
2, 83430, Note_on_c, 0, 57, 100
2, 83475, Note_on_c, 0, 57, 0
2, 83475, Note_on_c, 0, 45, 0
2, 83475, Note_on_c, 0, 89, 105
2, 83475, Note_on_c, 0, 101, 105
2, 83520, Note_on_c, 0, 101, 0
2, 83520, Note_on_c, 0, 89, 0
2, 83520, Control_c, 0, 64, 127
2, 83520, Note_on_c, 0, 48, 103
2, 83520, Note_on_c, 0, 60, 103
2, 83565, Note_on_c, 0, 60, 0
2, 83565, Note_on_c, 0, 48, 0
2, 83565, Note_on_c, 0, 87, 101
2, 83565, Note_on_c, 0, 99, 101
2, 83610, Note_on_c, 0, 99, 0
2, 83610, Note_on_c, 0, 87, 0
2, 83610, Note_on_c, 0, 38, 105
2, 83610, Note_on_c, 0, 50, 105
2, 83655, Note_on_c, 0, 50, 0
2, 83655, Note_on_c, 0, 38, 0
2, 83655, Note_on_c, 0, 86, 98
2, 83655, Note_on_c, 0, 98, 98
2, 83655, Control_c, 0, 64, 0
2, 83700, Note_on_c, 0, 98, 0
2, 83700, Note_on_c, 0, 86, 0
2, 83700, Control_c, 0, 64, 127
2, 83700, Note_on_c, 0, 41, 98
2, 83700, Note_on_c, 0, 53, 98
2, 83745, Note_on_c, 0, 53, 0
2, 83745, Note_on_c, 0, 41, 0
2, 83745, Note_on_c, 0, 84, 103
2, 83745, Note_on_c, 0, 96, 103
2, 83790, Note_on_c, 0, 96, 0
2, 83790, Note_on_c, 0, 84, 0
2, 83790, Note_on_c, 0, 40, 102
2, 83790, Note_on_c, 0, 52, 102
2, 83835, Note_on_c, 0, 52, 0
2, 83835, Note_on_c, 0, 40, 0
2, 83835, Control_c, 0, 64, 0
2, 83835, Note_on_c, 0, 82, 102
2, 83835, Note_on_c, 0, 94, 102
2, 83880, Note_on_c, 0, 94, 0
2, 83880, Note_on_c, 0, 82, 0
2, 83880, Control_c, 0, 64, 127
2, 83880, Note_on_c, 0, 87, 127
2, 83880, Note_on_c, 0, 92, 127
2, 83880, Note_on_c, 0, 95, 127
2, 83880, Note_on_c, 0, 99, 127
2, 83880, Note_on_c, 0, 28, 127
2, 83880, Note_on_c, 0, 40, 127
2, 84060, Note_on_c, 0, 40, 0
2, 84060, Note_on_c, 0, 92, 0
2, 84060, Note_on_c, 0, 95, 0
2, 84060, Note_on_c, 0, 87, 0
2, 84060, Note_on_c, 0, 28, 0
2, 84060, Note_on_c, 0, 99, 0
2, 84060, Control_c, 0, 64, 0
2, 84060, Control_c, 0, 64, 127
2, 84060, Note_on_c, 0, 43, 125
2, 84060, Note_on_c, 0, 50, 125
2, 84105, Note_on_c, 0, 50, 0
2, 84105, Note_on_c, 0, 43, 0
2, 84105, Note_on_c, 0, 59, 126
2, 84105, Note_on_c, 0, 63, 126
2, 84105, Note_on_c, 0, 51, 126
2, 84105, Note_on_c, 0, 55, 126
2, 84150, Note_on_c, 0, 55, 0
2, 84150, Note_on_c, 0, 59, 0
2, 84150, Note_on_c, 0, 63, 0
2, 84150, Note_on_c, 0, 51, 0
2, 84150, Note_on_c, 0, 47, 102
2, 84150, Note_on_c, 0, 52, 102
2, 84195, Note_on_c, 0, 52, 0
2, 84195, Note_on_c, 0, 47, 0
2, 84195, Note_on_c, 0, 58, 126
2, 84195, Note_on_c, 0, 63, 126
2, 84195, Control_c, 0, 64, 0
2, 84195, Note_on_c, 0, 51, 126
2, 84195, Note_on_c, 0, 55, 126
2, 84240, Note_on_c, 0, 55, 0
2, 84240, Note_on_c, 0, 58, 0
2, 84240, Note_on_c, 0, 63, 0
2, 84240, Note_on_c, 0, 51, 0
2, 84240, Control_c, 0, 64, 127
2, 84240, Note_on_c, 0, 62, 112
2, 84240, Note_on_c, 0, 55, 112
2, 84285, Note_on_c, 0, 55, 0
2, 84285, Note_on_c, 0, 62, 0
2, 84285, Note_on_c, 0, 63, 126
2, 84285, Note_on_c, 0, 67, 126
2, 84285, Note_on_c, 0, 71, 126
2, 84285, Note_on_c, 0, 75, 126
2, 84330, Note_on_c, 0, 75, 0
2, 84330, Note_on_c, 0, 63, 0
2, 84330, Note_on_c, 0, 67, 0
2, 84330, Note_on_c, 0, 71, 0
2, 84330, Note_on_c, 0, 59, 86
2, 84330, Note_on_c, 0, 64, 86
2, 84375, Note_on_c, 0, 64, 0
2, 84375, Note_on_c, 0, 59, 0
2, 84375, Note_on_c, 0, 63, 126
2, 84375, Note_on_c, 0, 67, 126
2, 84375, Control_c, 0, 64, 0
2, 84375, Note_on_c, 0, 70, 126
2, 84375, Note_on_c, 0, 75, 126
2, 84420, Note_on_c, 0, 75, 0
2, 84420, Note_on_c, 0, 63, 0
2, 84420, Note_on_c, 0, 67, 0
2, 84420, Note_on_c, 0, 70, 0
2, 84420, Control_c, 0, 64, 127
2, 84420, Note_on_c, 0, 67, 108
2, 84420, Note_on_c, 0, 74, 108
2, 84465, Note_on_c, 0, 74, 0
2, 84465, Note_on_c, 0, 67, 0
2, 84465, Note_on_c, 0, 87, 126
2, 84465, Note_on_c, 0, 83, 126
2, 84465, Note_on_c, 0, 75, 126
2, 84465, Note_on_c, 0, 79, 126
2, 84510, Note_on_c, 0, 79, 0
2, 84510, Note_on_c, 0, 87, 0
2, 84510, Note_on_c, 0, 83, 0
2, 84510, Note_on_c, 0, 75, 0
2, 84510, Note_on_c, 0, 71, 89
2, 84510, Note_on_c, 0, 76, 89
2, 84555, Note_on_c, 0, 76, 0
2, 84555, Note_on_c, 0, 71, 0
2, 84555, Control_c, 0, 64, 0
2, 84555, Note_on_c, 0, 75, 126
2, 84555, Note_on_c, 0, 79, 126
2, 84555, Note_on_c, 0, 83, 126
2, 84555, Note_on_c, 0, 87, 126
2, 84600, Note_on_c, 0, 87, 0
2, 84600, Note_on_c, 0, 75, 0
2, 84600, Note_on_c, 0, 79, 0
2, 84600, Note_on_c, 0, 83, 0
2, 84600, Control_c, 0, 64, 127
2, 84600, Note_on_c, 0, 79, 111
2, 84600, Note_on_c, 0, 86, 111
2, 84645, Note_on_c, 0, 86, 0
2, 84645, Note_on_c, 0, 79, 0
2, 84645, Note_on_c, 0, 95, 126
2, 84645, Note_on_c, 0, 99, 126
2, 84645, Note_on_c, 0, 87, 126
2, 84645, Note_on_c, 0, 91, 126
2, 84690, Note_on_c, 0, 91, 0
2, 84690, Note_on_c, 0, 95, 0
2, 84690, Note_on_c, 0, 99, 0
2, 84690, Note_on_c, 0, 87, 0
2, 84690, Note_on_c, 0, 83, 89
2, 84690, Note_on_c, 0, 88, 89
2, 84735, Note_on_c, 0, 88, 0
2, 84735, Note_on_c, 0, 83, 0
2, 84735, Note_on_c, 0, 87, 126
2, 84735, Note_on_c, 0, 91, 126
2, 84735, Note_on_c, 0, 94, 126
2, 84735, Note_on_c, 0, 99, 126
2, 84735, Control_c, 0, 64, 0
2, 84780, Note_on_c, 0, 99, 0
2, 84780, Note_on_c, 0, 87, 0
2, 84780, Note_on_c, 0, 91, 0
2, 84780, Note_on_c, 0, 94, 0
2, 84780, Control_c, 0, 64, 127
2, 84780, Note_on_c, 0, 67, 85
2, 84780, Note_on_c, 0, 74, 85
2, 84825, Note_on_c, 0, 74, 0
2, 84825, Note_on_c, 0, 67, 0
2, 84825, Note_on_c, 0, 83, 126
2, 84825, Note_on_c, 0, 87, 126
2, 84825, Note_on_c, 0, 75, 126
2, 84825, Note_on_c, 0, 79, 126
2, 84870, Note_on_c, 0, 79, 0
2, 84870, Note_on_c, 0, 83, 0
2, 84870, Note_on_c, 0, 87, 0
2, 84870, Note_on_c, 0, 75, 0
2, 84870, Note_on_c, 0, 71, 88
2, 84870, Note_on_c, 0, 76, 88
2, 84915, Note_on_c, 0, 76, 0
2, 84915, Note_on_c, 0, 71, 0
2, 84915, Note_on_c, 0, 82, 126
2, 84915, Note_on_c, 0, 87, 126
2, 84915, Control_c, 0, 64, 0
2, 84915, Note_on_c, 0, 75, 126
2, 84915, Note_on_c, 0, 79, 126
2, 84960, Note_on_c, 0, 79, 0
2, 84960, Note_on_c, 0, 82, 0
2, 84960, Note_on_c, 0, 87, 0
2, 84960, Note_on_c, 0, 75, 0
2, 84960, Control_c, 0, 64, 127
2, 84960, Note_on_c, 0, 86, 114
2, 84960, Note_on_c, 0, 79, 114
2, 85005, Note_on_c, 0, 79, 0
2, 85005, Note_on_c, 0, 86, 0
2, 85005, Note_on_c, 0, 87, 126
2, 85005, Note_on_c, 0, 91, 126
2, 85005, Note_on_c, 0, 95, 126
2, 85005, Note_on_c, 0, 99, 126
2, 85050, Note_on_c, 0, 99, 0
2, 85050, Note_on_c, 0, 87, 0
2, 85050, Note_on_c, 0, 91, 0
2, 85050, Note_on_c, 0, 95, 0
2, 85050, Note_on_c, 0, 83, 84
2, 85050, Note_on_c, 0, 88, 84
2, 85095, Note_on_c, 0, 88, 0
2, 85095, Note_on_c, 0, 83, 0
2, 85095, Control_c, 0, 64, 0
2, 85095, Note_on_c, 0, 87, 126
2, 85095, Note_on_c, 0, 91, 126
2, 85095, Note_on_c, 0, 94, 126
2, 85095, Note_on_c, 0, 99, 126
2, 85140, Note_on_c, 0, 99, 0
2, 85140, Note_on_c, 0, 87, 0
2, 85140, Note_on_c, 0, 91, 0
2, 85140, Note_on_c, 0, 94, 0
2, 85140, Control_c, 0, 64, 127
2, 85140, Note_on_c, 0, 67, 89
2, 85140, Note_on_c, 0, 74, 89
2, 85185, Note_on_c, 0, 74, 0
2, 85185, Note_on_c, 0, 67, 0
2, 85185, Note_on_c, 0, 75, 126
2, 85185, Note_on_c, 0, 79, 126
2, 85185, Note_on_c, 0, 83, 126
2, 85185, Note_on_c, 0, 87, 126
2, 85230, Note_on_c, 0, 87, 0
2, 85230, Note_on_c, 0, 75, 0
2, 85230, Note_on_c, 0, 79, 0
2, 85230, Note_on_c, 0, 83, 0
2, 85230, Note_on_c, 0, 71, 87
2, 85230, Note_on_c, 0, 76, 87
2, 85275, Note_on_c, 0, 76, 0
2, 85275, Note_on_c, 0, 71, 0
2, 85275, Control_c, 0, 64, 0
2, 85275, Note_on_c, 0, 75, 126
2, 85275, Note_on_c, 0, 79, 126
2, 85275, Note_on_c, 0, 82, 126
2, 85275, Note_on_c, 0, 87, 126
2, 85320, Note_on_c, 0, 87, 0
2, 85320, Note_on_c, 0, 75, 0
2, 85320, Note_on_c, 0, 79, 0
2, 85320, Note_on_c, 0, 82, 0
2, 85320, Control_c, 0, 64, 127
2, 85320, Note_on_c, 0, 79, 111
2, 85320, Note_on_c, 0, 86, 111
2, 85365, Note_on_c, 0, 86, 0
2, 85365, Note_on_c, 0, 79, 0
2, 85365, Note_on_c, 0, 95, 126
2, 85365, Note_on_c, 0, 99, 126
2, 85365, Note_on_c, 0, 87, 126
2, 85365, Note_on_c, 0, 91, 126
2, 85410, Note_on_c, 0, 91, 0
2, 85410, Note_on_c, 0, 95, 0
2, 85410, Note_on_c, 0, 99, 0
2, 85410, Note_on_c, 0, 87, 0
2, 85410, Note_on_c, 0, 83, 91
2, 85410, Note_on_c, 0, 88, 91
2, 85455, Note_on_c, 0, 88, 0
2, 85455, Note_on_c, 0, 83, 0
2, 85455, Note_on_c, 0, 87, 126
2, 85455, Note_on_c, 0, 91, 126
2, 85455, Note_on_c, 0, 95, 126
2, 85455, Note_on_c, 0, 99, 126
2, 85455, Control_c, 0, 64, 0
2, 85500, Note_on_c, 0, 99, 0
2, 85500, Note_on_c, 0, 87, 0
2, 85500, Note_on_c, 0, 91, 0
2, 85500, Note_on_c, 0, 95, 0
2, 85500, Control_c, 0, 64, 127
2, 85500, Note_on_c, 0, 71, 85
2, 85500, Note_on_c, 0, 74, 85
2, 85545, Note_on_c, 0, 74, 0
2, 85545, Note_on_c, 0, 71, 0
2, 85545, Note_on_c, 0, 83, 126
2, 85545, Note_on_c, 0, 87, 126
2, 85545, Note_on_c, 0, 75, 126
2, 85545, Note_on_c, 0, 79, 126
2, 85590, Note_on_c, 0, 79, 0
2, 85590, Note_on_c, 0, 83, 0
2, 85590, Note_on_c, 0, 87, 0
2, 85590, Note_on_c, 0, 75, 0
2, 85590, Note_on_c, 0, 71, 89
2, 85590, Note_on_c, 0, 76, 89
2, 85635, Note_on_c, 0, 76, 0
2, 85635, Note_on_c, 0, 71, 0
2, 85635, Note_on_c, 0, 83, 126
2, 85635, Note_on_c, 0, 87, 126
2, 85635, Control_c, 0, 64, 0
2, 85635, Note_on_c, 0, 75, 126
2, 85635, Note_on_c, 0, 79, 126
2, 85680, Note_on_c, 0, 79, 0
2, 85680, Note_on_c, 0, 83, 0
2, 85680, Note_on_c, 0, 87, 0
2, 85680, Note_on_c, 0, 75, 0
2, 85680, Control_c, 0, 64, 127
2, 85680, Note_on_c, 0, 71, 83
2, 85680, Note_on_c, 0, 74, 83
2, 85725, Note_on_c, 0, 74, 0
2, 85725, Note_on_c, 0, 71, 0
2, 85725, Note_on_c, 0, 83, 126
2, 85725, Note_on_c, 0, 87, 126
2, 85725, Note_on_c, 0, 75, 126
2, 85725, Note_on_c, 0, 79, 126
2, 85770, Note_on_c, 0, 79, 0
2, 85770, Note_on_c, 0, 83, 0
2, 85770, Note_on_c, 0, 87, 0
2, 85770, Note_on_c, 0, 75, 0
2, 85770, Note_on_c, 0, 71, 89
2, 85770, Note_on_c, 0, 76, 89
2, 85815, Note_on_c, 0, 76, 0
2, 85815, Note_on_c, 0, 71, 0
2, 85815, Note_on_c, 0, 83, 126
2, 85815, Note_on_c, 0, 87, 126
2, 85815, Note_on_c, 0, 75, 126
2, 85815, Note_on_c, 0, 79, 126
2, 85860, Note_on_c, 0, 79, 0
2, 85860, Note_on_c, 0, 83, 0
2, 85860, Note_on_c, 0, 87, 0
2, 85860, Note_on_c, 0, 75, 0
2, 85860, Note_on_c, 0, 71, 86
2, 85860, Note_on_c, 0, 74, 86
2, 85905, Note_on_c, 0, 74, 0
2, 85905, Note_on_c, 0, 71, 0
2, 85905, Note_on_c, 0, 83, 126
2, 85905, Note_on_c, 0, 87, 126
2, 85905, Note_on_c, 0, 75, 126
2, 85905, Note_on_c, 0, 79, 126
2, 85950, Note_on_c, 0, 79, 0
2, 85950, Note_on_c, 0, 83, 0
2, 85950, Note_on_c, 0, 87, 0
2, 85950, Note_on_c, 0, 75, 0
2, 85950, Note_on_c, 0, 71, 91
2, 85950, Note_on_c, 0, 76, 91
2, 85995, Note_on_c, 0, 76, 0
2, 85995, Note_on_c, 0, 71, 0
2, 85995, Control_c, 0, 64, 0
2, 85995, Note_on_c, 0, 83, 126
2, 85995, Note_on_c, 0, 87, 126
2, 85995, Note_on_c, 0, 75, 126
2, 85995, Note_on_c, 0, 79, 126
2, 86040, Note_on_c, 0, 79, 0
2, 86040, Note_on_c, 0, 83, 0
2, 86040, Note_on_c, 0, 87, 0
2, 86040, Note_on_c, 0, 75, 0
2, 86040, Control_c, 0, 64, 127
2, 86040, Note_on_c, 0, 71, 84
2, 86040, Note_on_c, 0, 74, 84
2, 86085, Note_on_c, 0, 74, 0
2, 86085, Note_on_c, 0, 71, 0
2, 86085, Note_on_c, 0, 83, 126
2, 86085, Note_on_c, 0, 87, 126
2, 86085, Note_on_c, 0, 75, 126
2, 86085, Note_on_c, 0, 79, 126
2, 86130, Note_on_c, 0, 79, 0
2, 86130, Note_on_c, 0, 83, 0
2, 86130, Note_on_c, 0, 87, 0
2, 86130, Note_on_c, 0, 75, 0
2, 86130, Note_on_c, 0, 71, 88
2, 86130, Note_on_c, 0, 76, 88
2, 86175, Note_on_c, 0, 76, 0
2, 86175, Note_on_c, 0, 71, 0
2, 86175, Note_on_c, 0, 83, 126
2, 86175, Note_on_c, 0, 87, 126
2, 86175, Note_on_c, 0, 75, 126
2, 86175, Note_on_c, 0, 79, 126
2, 86220, Note_on_c, 0, 79, 0
2, 86220, Note_on_c, 0, 83, 0
2, 86220, Note_on_c, 0, 87, 0
2, 86220, Note_on_c, 0, 75, 0
2, 86220, Note_on_c, 0, 71, 87
2, 86220, Note_on_c, 0, 74, 87
2, 86265, Note_on_c, 0, 74, 0
2, 86265, Note_on_c, 0, 71, 0
2, 86265, Note_on_c, 0, 83, 126
2, 86265, Note_on_c, 0, 87, 126
2, 86265, Note_on_c, 0, 75, 126
2, 86265, Note_on_c, 0, 79, 126
2, 86310, Note_on_c, 0, 79, 0
2, 86310, Note_on_c, 0, 83, 0
2, 86310, Note_on_c, 0, 87, 0
2, 86310, Note_on_c, 0, 75, 0
2, 86310, Note_on_c, 0, 71, 87
2, 86310, Note_on_c, 0, 76, 87
2, 86355, Note_on_c, 0, 76, 0
2, 86355, Note_on_c, 0, 71, 0
2, 86355, Note_on_c, 0, 83, 126
2, 86355, Note_on_c, 0, 87, 126
2, 86355, Note_on_c, 0, 75, 126
2, 86355, Note_on_c, 0, 79, 126
2, 86400, Note_on_c, 0, 79, 0
2, 86400, Note_on_c, 0, 83, 0
2, 86400, Note_on_c, 0, 87, 0
2, 86400, Note_on_c, 0, 75, 0
2, 86400, Control_c, 0, 64, 0
2, 86400, Control_c, 0, 64, 127
2, 86400, Note_on_c, 0, 71, 88
2, 86400, Note_on_c, 0, 74, 88
2, 86445, Note_on_c, 0, 74, 0
2, 86445, Note_on_c, 0, 71, 0
2, 86445, Note_on_c, 0, 83, 126
2, 86445, Note_on_c, 0, 87, 126
2, 86445, Note_on_c, 0, 75, 126
2, 86445, Note_on_c, 0, 79, 126
2, 86490, Note_on_c, 0, 79, 0
2, 86490, Note_on_c, 0, 83, 0
2, 86490, Note_on_c, 0, 87, 0
2, 86490, Note_on_c, 0, 75, 0
2, 86490, Note_on_c, 0, 71, 85
2, 86490, Note_on_c, 0, 76, 85
2, 86535, Note_on_c, 0, 76, 0
2, 86535, Note_on_c, 0, 71, 0
2, 86535, Note_on_c, 0, 83, 126
2, 86535, Note_on_c, 0, 87, 126
2, 86535, Note_on_c, 0, 75, 126
2, 86535, Note_on_c, 0, 79, 126
2, 86580, Note_on_c, 0, 79, 0
2, 86580, Note_on_c, 0, 83, 0
2, 86580, Note_on_c, 0, 87, 0
2, 86580, Note_on_c, 0, 75, 0
2, 86580, Note_on_c, 0, 71, 87
2, 86580, Note_on_c, 0, 74, 87
2, 86625, Note_on_c, 0, 74, 0
2, 86625, Note_on_c, 0, 71, 0
2, 86625, Note_on_c, 0, 83, 126
2, 86625, Note_on_c, 0, 87, 126
2, 86625, Note_on_c, 0, 75, 126
2, 86625, Note_on_c, 0, 79, 126
2, 86670, Note_on_c, 0, 79, 0
2, 86670, Note_on_c, 0, 83, 0
2, 86670, Note_on_c, 0, 87, 0
2, 86670, Note_on_c, 0, 75, 0
2, 86670, Note_on_c, 0, 71, 88
2, 86670, Note_on_c, 0, 76, 88
2, 86715, Note_on_c, 0, 76, 0
2, 86715, Note_on_c, 0, 71, 0
2, 86715, Note_on_c, 0, 75, 126
2, 86715, Note_on_c, 0, 79, 126
2, 86715, Note_on_c, 0, 83, 126
2, 86715, Note_on_c, 0, 87, 126
2, 86760, Note_on_c, 0, 87, 0
2, 86760, Note_on_c, 0, 75, 0
2, 86760, Note_on_c, 0, 79, 0
2, 86760, Note_on_c, 0, 83, 0
2, 86760, Control_c, 0, 64, 0
2, 86760, Note_on_c, 0, 71, 95
2, 86760, Note_on_c, 0, 74, 95
2, 86940, Note_on_c, 0, 74, 0
2, 86940, Note_on_c, 0, 71, 0
2, 86940, Note_on_c, 0, 71, 98
2, 86970, Note_on_c, 0, 71, 0
2, 86970, Note_on_c, 0, 74, 125
2, 86999, Note_on_c, 0, 74, 0
2, 86999, Note_on_c, 0, 75, 113
2, 87030, Note_on_c, 0, 75, 0
2, 87030, Note_on_c, 0, 77, 125
2, 87060, Note_on_c, 0, 77, 0
2, 87060, Note_on_c, 0, 78, 120
2, 87089, Note_on_c, 0, 78, 0
2, 87089, Note_on_c, 0, 80, 116
2, 87120, Note_on_c, 0, 80, 0
2, 87120, Note_on_c, 0, 83, 120
2, 87150, Note_on_c, 0, 83, 0
2, 87150, Note_on_c, 0, 86, 126
2, 87179, Note_on_c, 0, 86, 0
2, 87179, Note_on_c, 0, 87, 84
2, 87210, Note_on_c, 0, 87, 0
2, 87210, Note_on_c, 0, 89, 116
2, 87240, Note_on_c, 0, 89, 0
2, 87240, Note_on_c, 0, 90, 120
2, 87269, Note_on_c, 0, 90, 0
2, 87269, Note_on_c, 0, 92, 117
2, 87300, Note_on_c, 0, 92, 0
2, 87300, Note_on_c, 0, 95, 124
2, 87330, Note_on_c, 0, 95, 0
2, 87330, Note_on_c, 0, 98, 122
2, 87359, Note_on_c, 0, 98, 0
2, 87359, Note_on_c, 0, 99, 116
2, 87390, Note_on_c, 0, 99, 0
2, 87390, Note_on_c, 0, 101, 124
2, 87420, Note_on_c, 0, 101, 0
2, 87420, Note_on_c, 0, 102, 121
2, 87449, Note_on_c, 0, 102, 0
2, 87480, Note_on_c, 0, 99, 113
2, 87480, Note_on_c, 0, 103, 113
2, 87480, Note_on_c, 0, 106, 113
2, 87480, Note_on_c, 0, 87, 102
2, 87480, Note_on_c, 0, 91, 102
2, 87480, Note_on_c, 0, 94, 102
2, 87840, Note_on_c, 0, 94, 0
2, 87840, Note_on_c, 0, 103, 0
2, 87840, Note_on_c, 0, 106, 0
2, 87840, Note_on_c, 0, 99, 0
2, 87840, Note_on_c, 0, 91, 0
2, 87840, Note_on_c, 0, 87, 0
2, 87840, Note_on_c, 0, 63, 81
2, 87840, Note_on_c, 0, 67, 81
2, 87840, Note_on_c, 0, 70, 81
2, 87840, Note_on_c, 0, 75, 81
2, 87840, Note_on_c, 0, 27, 88
2, 87840, Note_on_c, 0, 31, 88
2, 87840, Note_on_c, 0, 34, 88
2, 87840, Note_on_c, 0, 39, 88
2, 88019, Note_on_c, 0, 39, 0
2, 88019, Note_on_c, 0, 63, 0
2, 88019, Note_on_c, 0, 27, 0
2, 88019, Note_on_c, 0, 67, 0
2, 88019, Note_on_c, 0, 70, 0
2, 88019, Note_on_c, 0, 75, 0
2, 88019, Note_on_c, 0, 31, 0
2, 88019, Note_on_c, 0, 34, 0
2, 88019, End_track
0, 0, End_of_file
